<?xml version="1.0" encoding="UTF-8"?>
<svg id="svg27" width="22" height="22" version="1.1" xmlns="http://www.w3.org/2000/svg" xmlns:cc="http://creativecommons.org/ns#" xmlns:dc="http://purl.org/dc/elements/1.1/" xmlns:rdf="http://www.w3.org/1999/02/22-rdf-syntax-ns#">
 <metadata id="metadata31">
  <rdf:RDF>
   <cc:Work rdf:about="">
    <dc:format>image/svg+xml</dc:format>
    <dc:type rdf:resource="http://purl.org/dc/dcmitype/StillImage"/>
   </cc:Work>
  </rdf:RDF>
 </metadata>
 <defs id="defs7">
  <linearGradient id="gr0" x1="11" x2="11" y1="4" y2="18" gradientUnits="userSpaceOnUse">
   <stop id="stop2" stop-color="#ebebeb" offset="0"/>
   <stop id="stop4" stop-color="#aaa" offset="1"/>
  </linearGradient>
 </defs>
 <path id="path9" d="m7.9707 3a1.0001 1.0001 0 0 0-0.67773 0.29297l-3.707 3.707h-2.0859c-0.8137 0-1.5 0.6863-1.5 1.5v5c-1.0871e-16 0.8137 0.6863 1.5 1.5 1.5h2.0859l3.707 3.707a1.0001 1.0001 0 0 0 1.707-0.707v-3.6211a1.0001 1.0001 0 0 0 0.08398 0.0664l1.75 1.2188a1.0001 1.0001 0 0 0 1.0508 0.0566 1.0001 1.0001 0 0 0 0.2832 0.8301l0.0312 0.0312a1.0001 1.0001 0 0 0 0.1485 0.1231l1.7187 1.1562a1.0001 1.0001 0 0 0 1.2969-0.1562c1.6639-1.8249 2.6992-4.2568 2.6992-6.9239 0-2.6975-1.0705-5.163-2.7656-6.9921a1.0001 1.0001 0 0 0-1.2715-0.16406 1.0001 1.0001 0 0 0-0.0293 0.01953l-1.6856 1.1562a1.0001 1.0001 0 0 0-0.1445 0.11914l-0.0312 0.03125a1.0001 1.0001 0 0 0-0.2832 0.82813 1.0001 1.0001 0 0 0-1.0489 0.05664l-1.75 1.2188a1.0001 1.0001 0 0 0-0.05273 0.04101v-3.0957a1.0001 1.0001 0 0 0-1.0293-1zm0.0293 1v14l-4-4h-2.5c-0.277 0-0.5-0.223-0.5-0.5v-5c0-0.277 0.223-0.5 0.5-0.5h2.5l4-4zm6.5625 0.46875c1.5337 1.655 2.5 3.8798 2.5 6.3124 0 2.4093-0.9317 4.5985-2.4375 6.25l-1.7188-1.1562-0.0312-0.0312c1.3064-1.3065 2.125-3.0704 2.125-5.0626 0-2.0078-0.8313-3.816-2.1562-5.125l0.0312-0.03125 1.6875-1.1562zm-3.1875 2.1875c0.9659 1.093 1.5625 2.5529 1.5625 4.125 0 1.5573-0.5816 2.9734-1.5313 4.0626l-1.75-1.2188c0.72895-0.7436 1.2188-1.7211 1.2188-2.8438 0-1.139-0.5023-2.16-1.25-2.9062l1.75-1.2188zm2.1016 1.6582c0.3321 0.75573 0.5234 1.5856 0.5234 2.4668 0 0.8744-0.1869 1.6892-0.5137 2.4317 0.2775-0.7619 0.4512-1.5753 0.4512-2.4317 0-0.86516-0.1781-1.6922-0.4609-2.4668zm-4.4766 0.38477c0.52547 0.56855 0.875 1.2866 0.875 2.082 0 0.7795-0.35937 1.4409-0.875 2.0098v-4.0918z" opacity=".25"/>
 <path id="base" d="m8 4-4 4h-2.5c-0.277 0-0.5 0.223-0.5 0.5v5c0 0.277 0.223 0.5 0.5 0.5h2.5l4 4v-14zm6.562 0.4688-1.687 1.1562-0.031 0.0312c1.325 1.3089 2.156 3.1169 2.156 5.1248 0 1.9921-0.81857 3.7561-2.125 5.0625l0.03125 0.03125 1.7188 1.1562c1.5058-1.6515 2.4375-3.8408 2.4375-6.25 0-2.4328-0.96627-4.6575-2.5-6.3125zm-3.187 2.1874-1.75 1.2188c0.74774 0.7462 1.25 1.7672 1.25 2.9062 0 1.1226-0.48993 2.1002-1.2188 2.8438l1.75 1.2188c0.94962-1.0891 1.5312-2.5052 1.5312-4.0625 0-1.5721-0.59658-3.032-1.5625-4.125z" fill="url(#gr0)"/>
 <path id="path15" d="m17.75 2.2812-1.688 1.1563c1.8798 1.863 3.0312 4.4889 3.0312 7.3438 0 2.8378-1.1397 5.421-3 7.2812l1.6875 1.1562c2.0871-2.2139 3.4062-5.157 3.4062-8.4375 1e-6 -3.2961-1.3327-6.2829-3.4375-8.5z" fill="#fff" opacity=".4"/>
 <path id="path17" d="m13.393 6.2695-0.5176 0.35547-0.0312 0.03125c1.2158 1.2011 2.0073 2.8243 2.1308 4.6348 0.0121-0.1688 0.0254-0.3374 0.0254-0.5098 0-1.7119-0.6081-3.2758-1.6074-4.5117zm-3.2422 2.2402-0.5254 0.36523c0.6351 0.63382 1.0717 1.472 1.1953 2.4062 0.0223-0.1655 0.0547-0.3272 0.0547-0.5 0-0.84395-0.2775-1.6208-0.7246-2.2714zm2.7637 2.7675c-0.1095 1.3607-0.6605 2.5946-1.5079 3.5665l-1.2304-0.8575c-0.1546 0.2276-0.32692 0.4422-0.51955 0.6387l1.75 1.2188c0.9497-1.0892 1.5313-2.5053 1.5313-4.0626 0-0.1695-0.0098-0.3372-0.0234-0.5039zm4.123 0.0118c-0.1214 2.2073-1.0134 4.2081-2.4121 5.7421l-1.2012-0.8085c-0.1726 0.2154-0.3532 0.4254-0.5488 0.6211l0.0312 0.0312 1.7188 1.1562c1.5058-1.6514 2.4375-3.8407 2.4375-6.25 0-0.1658-0.0165-0.3283-0.0254-0.4921zm-16.037 2.2109v1c0 0.277 0.223 0.5 0.5 0.5h2.5l4 4v-1l-4-4h-2.5c-0.277 0-0.5-0.223-0.5-0.5z" opacity=".45"/>
 <path id="path22" d="m8 4-4 4h-2.5c-0.277 0-0.5 0.223-0.5 0.5v1c0-0.277 0.223-0.5 0.5-0.5h2.5l4-4v-1zm6.5625 0.46875-1.6875 1.1562-0.0312 0.03125c0.1953 0.19294 0.376 0.39961 0.5488 0.61328l1.1699-0.80078c1.4291 1.5422 2.3535 3.5814 2.4746 5.8204 0.0093-0.169 0.0254-0.3365 0.0254-0.5079 0-2.4327-0.9663-4.6574-2.5-6.3124zm-3.1875 2.1875-1.75 1.2188c0.19365 0.19326 0.36912 0.40736 0.5254 0.63477l1.2246-0.85352c0.8617 0.97511 1.4266 2.2428 1.5391 3.621 0.0132-0.1641 0.0234-0.3284 0.0234-0.4961 0-1.572-0.5966-3.032-1.5625-4.125zm-0.5547 4.625c-0.1225 0.9104-0.5473 1.7146-1.164 2.3438l0.51955 0.3613c0.4304-0.6335 0.6992-1.3791 0.6992-2.2051 0-0.1715-0.0328-0.3343-0.0547-0.5zm4.1543 0.0098c-0.1271 1.7821-0.9063 3.3594-2.0996 4.5528l0.0312 0.0312 0.5176 0.3477c0.9803-1.223 1.5762-2.7477 1.5762-4.4415 0-0.1653-0.0143-0.3277-0.0254-0.4902z" fill="#fff" opacity=".6"/>
</svg>
