<?xml version="1.0" encoding="UTF-8"?>
<svg id="svg25" width="22" height="22" version="1.1" xmlns="http://www.w3.org/2000/svg" xmlns:cc="http://creativecommons.org/ns#" xmlns:dc="http://purl.org/dc/elements/1.1/" xmlns:rdf="http://www.w3.org/1999/02/22-rdf-syntax-ns#">
 <metadata id="metadata29">
  <rdf:RDF>
   <cc:Work rdf:about="">
    <dc:format>image/svg+xml</dc:format>
    <dc:type rdf:resource="http://purl.org/dc/dcmitype/StillImage"/>
   </cc:Work>
  </rdf:RDF>
 </metadata>
 <defs id="defs7">
  <linearGradient id="gr0" x1="11" x2="11" y1="3" y2="19" gradientUnits="userSpaceOnUse">
   <stop id="stop2" stop-color="#ebebeb" offset="0"/>
   <stop id="stop4" stop-color="#aaa" offset="1"/>
  </linearGradient>
 </defs>
 <path id="path9" d="m7.5 2c-3.0257 0-5.5 2.4743-5.5 5.5 0 1.9333 0.99918 3.646 2.5234 4.623a1.0001 1.0001 0 0 0 0.05273 0.0293c-0.34614 0.7189-0.57617 1.5-0.57617 2.3477 0 3.0257 2.4743 5.5 5.5 5.5 2.8716 0 5.1776-2.251 5.4121-5.0645a1.0001 1.0001 0 0 0 0.1621-0.0039c2.7507-0.2899 4.9258-2.5997 4.9258-5.4316 0-3.0257-2.4743-5.5-5.5-5.5-0.8499 0-1.6205 0.24507-2.3359 0.59375a1.0001 1.0001 0 0 0-0.0411-0.07031c-0.977-1.5243-2.6897-2.5234-4.623-2.5234zm0 1c1.5923 0 2.9815 0.81461 3.7812 2.0625-1.2533 0.91349-2.1117 2.3349-2.25 3.9688-1.6353 0.13891-3.054 0.99485-3.9688 2.25-1.2479-0.7997-2.0625-2.1889-2.0625-3.7812 0-2.4853 2.0147-4.5 4.5-4.5zm7 2c2.4853 0 4.5 2.0147 4.5 4.5 0 2.3241-1.7702 4.1992-4.0312 4.4375-0.2628-2.5885-2.3178-4.6434-4.9063-4.9062 0.2383-2.261 2.1134-4.0312 4.4375-4.0312zm-5 5c2.4853 0 4.5 2.0147 4.5 4.5s-2.0147 4.5-4.5 4.5c-2.4853 0-4.5-2.0147-4.5-4.5s2.0147-4.5 4.5-4.5z" opacity=".25"/>
 <path id="base" d="m7.5 3c-2.4853 0-4.5 2.0147-4.5 4.5 0 1.5923 0.81461 2.9814 2.0625 3.7812 0.91478-1.2551 2.3335-2.1111 3.9688-2.25 0.13826-1.6339 0.99667-3.0553 2.25-3.9688-0.79988-1.2479-2.189-2.0625-3.7812-2.0625zm7 2c-2.3241 0-4.1992 1.7703-4.4375 4.0312 2.5885 0.26288 4.6434 2.3177 4.9062 4.9062 2.261-0.2383 4.0312-2.1134 4.0312-4.4375 0-2.4853-2.0147-4.5-4.5-4.5zm-5 5c-2.4853 0-4.5 2.0147-4.5 4.5s2.0147 4.5 4.5 4.5c2.4853 0 4.5-2.0147 4.5-4.5s-2.0147-4.5-4.5-4.5z" fill="url(#gr0)"/>
 <path id="path15" d="m10.803 5.4551c-0.98988 0.90452-1.6516 2.1602-1.7714 3.5762-1.6353 0.13891-3.054 0.99485-3.9688 2.25-1.0875-0.697-1.8445-1.843-2.0215-3.1796-0.01192 0.13351-0.04102 0.26183-0.04102 0.39844 0 1.5923 0.81461 2.9815 2.0625 3.7812 0.82938-1.1379 2.0758-1.9406 3.5195-2.1855 0.01919-4e-3 0.03931-0.0041 0.05859-0.0078 0.12977-0.0206 0.25786-0.0454 0.39063-0.0567 0.13826-1.6338 0.99665-3.0552 2.25-3.9687-0.1399-0.21837-0.3045-0.41763-0.4785-0.60742zm-0.5215 3.6172c-0.1025 0.30794-0.1836 0.6256-0.2187 0.95893 0.0991 0.0101 0.1916 0.0395 0.2891 0.0547 0.0321 0.0062 0.0638 0.0127 0.0957 0.0196 2.4017 0.4198 4.2721 2.3755 4.5215 4.832 2.261-0.2383 4.0312-2.1134 4.0312-4.4375 0-0.1654-0.0314-0.3217-0.0488-0.4824-0.2428 2.077-1.894 3.6998-3.9824 3.9199-0.2552-2.5135-2.2051-4.5102-4.6876-4.8652zm-5.2304 5.9277c-0.01866 0.1664-0.05078 0.3286-0.05078 0.5 0 2.4853 2.0147 4.5 4.5 4.5 2.4853 0 4.5-2.0147 4.5-4.5 0-0.1714-0.0321-0.3336-0.0508-0.5-0.2519 2.2466-2.1353 4-4.4492 4-2.3139 0-4.1973-1.7534-4.4492-4z" opacity=".45"/>
 <path id="path20" d="m7.5 3c-2.4853 0-4.5 2.0147-4.5 4.5 0 0.2046 0.01492 0.40449 0.04102 0.60156 0.20489-2.2954 2.1103-4.1016 4.459-4.1016 1.3136 0 2.4825 0.5603 3.3027 1.4551 0.1523-0.13916 0.3114-0.27078 0.4785-0.39258-0.7997-1.2479-2.1889-2.0625-3.7812-2.0625zm7 2c-2.3241 0-4.1992 1.7703-4.4375 4.0312 0.075 0.00762 0.1447 0.03042 0.2187 0.04102 0.5927-1.7804 2.2374-3.0723 4.2188-3.0723 2.3199 0 4.2073 1.7625 4.4512 4.0176 0.02-0.17165 0.0488-0.34022 0.0488-0.5176 0-2.4853-2.0147-4.5-4.5-4.5zm-5 5c-0.29462 0-0.58055 0.0338-0.85938 0.0879-0.01943 0.0031-0.03923 0.0045-0.05859 0.0078-2.0445 0.4243-3.582 2.234-3.582 4.4043 0 0.1714 0.03212 0.3336 0.05078 0.5 0.2519-2.2466 2.1353-4 4.4492-4 2.3139 0 4.1973 1.7534 4.4492 4 0.0187-0.1664 0.0508-0.3286 0.0508-0.5 0-2.1595-1.5235-3.9586-3.5527-4.3945-0.0322-0.0057-0.0634-0.0145-0.0957-0.0196-0.2765-0.053-0.5597-0.0859-0.8516-0.0859z" fill="#fff" opacity=".6"/>
</svg>
