<?xml version="1.0" encoding="UTF-8"?>
<svg id="svg25" width="22" height="22" version="1.1" xmlns="http://www.w3.org/2000/svg" xmlns:cc="http://creativecommons.org/ns#" xmlns:dc="http://purl.org/dc/elements/1.1/" xmlns:rdf="http://www.w3.org/1999/02/22-rdf-syntax-ns#">
 <metadata id="metadata29">
  <rdf:RDF>
   <cc:Work rdf:about="">
    <dc:format>image/svg+xml</dc:format>
    <dc:type rdf:resource="http://purl.org/dc/dcmitype/StillImage"/>
   </cc:Work>
  </rdf:RDF>
 </metadata>
 <defs id="defs7">
  <linearGradient id="gr0" x1="11" x2="11" y1="3.0625" y2="19.938" gradientUnits="userSpaceOnUse">
   <stop id="stop2" stop-color="#f3604d" offset="0"/>
   <stop id="stop4" stop-color="#c81700" offset="1"/>
  </linearGradient>
 </defs>
 <path id="path9" d="m6.4434 2.0625a1.0001 1.0001 0 0 0-0.54297 0.19922l-4.5 3.375a1.0001 1.0001 0 0 0 0 1.6016l3.4316 2.5742-3.4316 2.5742a1.0001 1.0001 0 0 0 0 1.6016l9 6.75a1.0001 1.0001 0 0 0 1.1992 0l9-6.75a1.0001 1.0001 0 0 0 0-1.6016l-3.4316-2.5742 3.4316-2.5742a1.0001 1.0001 0 0 0 0-1.6016l-4.5-3.375a1.0001 1.0001 0 0 0-1.1992 0l-3.9004 2.9258-3.9004-2.9258a1.0001 1.0001 0 0 0-0.55664-0.19922 1.0001 1.0001 0 0 0-0.09961 0zm0.05664 1 4.5 3.375 4.5-3.375 4.5 3.375-4.5 3.375 4.5 3.375-9 6.75-9-6.75 4.5-3.375-4.5-3.375 4.5-3.375zm3.5 4.9375v6h2v-6h-2zm0 7v2h2v-2h-2z" opacity=".25"/>
 <path id="base" class="error" d="m6.5 3.0625-4.5 3.375 4.5 3.375-4.5 3.375 9 6.75 9-6.75-4.5-3.375 4.5-3.375-4.5-3.375-4.5 3.375-4.5-3.375zm3.5 4.9375h2v6h-2v-6zm0 7h2v2h-2v-2z" fill="url(#gr0)"/>
 <path id="path15" d="m2.666 6.9375-0.66602 0.5 3.834 2.875 0.66602-0.5-3.834-2.875zm16.668 0-3.834 2.875 0.666 0.5 3.834-2.875-0.666-0.5zm-9.334 1.0625v1h2v-1h-2zm-7.334 5.6875-0.66602 0.5 9 6.75 9-6.75-0.666-0.5-8.334 6.25-8.334-6.25zm7.334 1.3125v1h2v-1h-2z" opacity=".55"/>
 <path id="path20" d="m6.5 3.0625-4.5 3.375 0.66602 0.5 3.834-2.875 4.5 3.375 4.5-3.375 3.834 2.875 0.666-0.5-4.5-3.375-4.5 3.375-4.5-3.375zm-0.66602 7.25-3.834 2.875 0.66602 0.5 3.834-2.875-0.66602-0.5zm10.332 0-0.666 0.5 3.834 2.875 0.666-0.5-3.834-2.875zm-6.166 3.6875v1h2v-1h-2zm0 3v1h2v-1h-2z" fill="#fff" opacity=".3"/>
</svg>
