<?xml version="1.0" encoding="UTF-8"?>
<!-- Created with Inkscape (http://www.inkscape.org/) -->
<svg id="svg2" width="22" height="22" version="1.0" xmlns="http://www.w3.org/2000/svg" xmlns:cc="http://creativecommons.org/ns#" xmlns:dc="http://purl.org/dc/elements/1.1/" xmlns:rdf="http://www.w3.org/1999/02/22-rdf-syntax-ns#" xmlns:xlink="http://www.w3.org/1999/xlink">
 <defs id="defs4">
  <linearGradient id="linearGradient3675" x1="13" x2="13" y1="17" y2="5" gradientUnits="userSpaceOnUse">
   <stop id="stop3737" stop-color="#a4a4a4" offset="0"/>
   <stop id="stop3739" stop-color="#d7d7d7" offset="1"/>
  </linearGradient>
 </defs>
 <metadata id="metadata7">
  <rdf:RDF>
   <cc:Work rdf:about="">
    <dc:format>image/svg+xml</dc:format>
    <dc:type rdf:resource="http://purl.org/dc/dcmitype/StillImage"/>
    <dc:title/>
   </cc:Work>
  </rdf:RDF>
 </metadata>
 <g id="layer1">
  <path id="path3699" d="m11 4.5c-4.1421 0-7.5 2.6882-7.5 6.6923 0 4.0041 3.3579 6.6923 7.5 6.6923 1.141 0 2.2126-0.2565 3.1808-0.69712l4.3192 1.8125-1.5402-3.9736c0.96768-1.221 1.5402-2.1772 1.5402-3.8341 0-4.0041-3.3579-6.6923-7.5-6.6923z" opacity=".25"/>
  <path id="path3695" d="m11 6c-3.866 0-7 2.4101-7 6 0 3.5899 3.134 6 7 6 1.065 0 2.0651-0.22996 2.9688-0.625l4.0312 1.625-1.4375-3.5625c0.90317-1.0947 1.4375-1.9519 1.4375-3.4375 0-3.5899-3.134-6-7-6z" opacity=".45"/>
  <path id="path2892" d="m11 5c-3.866 0-7 2.4101-7 6 0 3.5899 3.134 6 7 6 1.065 0 2.0651-0.22996 2.9688-0.625l4.0312 1.625-1.4375-3.5625c0.90317-1.0947 1.4375-1.9519 1.4375-3.4375 0-3.5899-3.134-6-7-6z" fill="url(#linearGradient3675)"/>
  <path id="path2893" d="m11 5c-3.866 0-7 2.4101-7 6 0 0.11777 0.02459 0.22857 0.03125 0.34375 0.35847-3.2227 3.3444-5.3438 6.9688-5.3438 3.6244 0 6.6103 2.121 6.9688 5.3438 0.006929-0.11259 0.03125-0.22337 0.03125-0.34375 0-3.5899-3.134-6-7-6zm5.8125 10.094c-0.08893 0.11405-0.15222 0.22523-0.25 0.34375l0.96875 2.375 0.46875 0.1875-1.1875-2.9062z" fill="#fff" opacity=".35"/>
  <path id="path3788" transform="translate(-20)" d="m14 11a3 3 0 1 1-6 0 3 3 0 1 1 6 0z" color="#000000" fill="#803d0c" opacity=".3"/>
  <path id="path3790" d="m-9 8c-1.6569 0-3 1.3431-3 3 0 0.17476 0.03382 0.33342 0.0625 0.5 0.24322-1.4126 1.4554-2.5 2.9375-2.5s2.6943 1.0874 2.9375 2.5c0.028679-0.16658 0.0625-0.32524 0.0625-0.5 0-1.6569-1.3431-3-3-3z" color="#000000" fill="#803d0c" opacity=".4"/>
  <path id="path3792" d="m-11.938 11.5c-0.028679 0.16658-0.0625 0.32524-0.0625 0.5 0 1.6569 1.3431 3 3 3s3-1.3431 3-3c0-0.17476-0.033821-0.33342-0.0625-0.5-0.24322 1.4126-1.4554 2.5-2.9375 2.5s-2.6943-1.0874-2.9375-2.5z" color="#000000" fill="#fff" opacity=".2"/>
  <path id="path3794" transform="matrix(1,0,0,-1,-20,22)" d="m14 11a3 3 0 0 1-3 3v-3z" color="#000000" fill="#803d0c" opacity=".4"/>
  <path id="rect3827" d="m8.875 7.4688-1.4062 1.4062 2.125 2.125-2.125 2.125 1.4062 1.4062 2.125-2.125 2.125 2.125 1.4062-1.4062-2.125-2.125 2.125-2.125-1.4062-1.4062-2.125 2.125-2.125-2.125z" color="#000000" fill="#3e3e3e" opacity=".4"/>
  <path id="path3836" d="m8.875 7.4688-1.4062 1.4062 0.5 0.5 0.90625-0.90625 2.125 2.125 2.125-2.125 0.90625 0.90625 0.5-0.5-1.4062-1.4062-2.125 2.125-2.125-2.125zm0.21875 4.0312-1.625 1.625 0.5 0.5 1.625-1.625-0.5-0.5zm3.8125 0-0.5 0.5 1.625 1.625 0.5-0.5-1.625-1.625z" color="#000000" fill="#3e3e3e" opacity=".4"/>
  <path id="path3841" d="m7.9688 9.375-0.5 0.5 1.625 1.625 0.5-0.5-1.625-1.625zm6.0625 0-1.625 1.625 0.5 0.5 1.625-1.625-0.5-0.5zm-3.0312 3.0312-2.125 2.125-0.90625-0.90625-0.5 0.5 1.4062 1.4062 2.125-2.125 2.125 2.125 1.4062-1.4062-0.5-0.5-0.90625 0.90625-2.125-2.125z" color="#000000" fill="#fff" opacity=".15"/>
 </g>
</svg>
