<?xml version="1.0" encoding="UTF-8"?>
<svg id="svg25" width="22" height="22" version="1.1" xmlns="http://www.w3.org/2000/svg" xmlns:cc="http://creativecommons.org/ns#" xmlns:dc="http://purl.org/dc/elements/1.1/" xmlns:rdf="http://www.w3.org/1999/02/22-rdf-syntax-ns#">
 <metadata id="metadata29">
  <rdf:RDF>
   <cc:Work rdf:about="">
    <dc:format>image/svg+xml</dc:format>
    <dc:type rdf:resource="http://purl.org/dc/dcmitype/StillImage"/>
   </cc:Work>
  </rdf:RDF>
 </metadata>
 <defs id="defs7">
  <linearGradient id="gr0" x1="11" x2="11" y1="3" y2="19" gradientUnits="userSpaceOnUse">
   <stop id="stop2" stop-color="#ebebeb" offset="0"/>
   <stop id="stop4" stop-color="#aaa" offset="1"/>
  </linearGradient>
 </defs>
 <path id="path9" d="m6 2c-1.6447 0-3 1.3553-3 3v12c0 1.6447 1.3553 3 3 3h10c1.6447 0 3-1.3553 3-3v-12c0-1.6447-1.3553-3-3-3h-10zm0 1h10c1.108 0 2 0.892 2 2v12c0 1.108-0.892 2-2 2h-10c-1.108 0-2-0.892-2-2v-12c0-1.108 0.892-2 2-2zm5.2188 3.0312c-0.7754 1e-5 -1.4956 0.10003-2.125 0.3125-0.62487 0.20766-1.1513 0.5438-1.5938 0.96875-0.43787 0.42014-0.79407 0.92507-1.0312 1.5625-0.23718 0.63261-0.34375 1.4001-0.34375 2.25 0 0.7968 0.13326 1.4854 0.375 2.0938 0.2463 0.6084 0.56669 1.1159 1 1.5312 0.43786 0.4105 0.95587 0.725 1.5625 0.9375 0.60662 0.2076 1.2748 0.3125 2 0.3125 0.3284 0 0.6755-0.0285 1.0313-0.0625s0.7112-0.067 1.0624-0.125c0.3512-0.0579 0.7075-0.1418 1.0313-0.2187 0.3284-0.082 0.6104-0.158 0.875-0.25v-3.1563l0.9063-0.1875v-1h-3.9688v1l1.0938 0.1875v2.8125c-0.2189 0.0773-0.6418 0.1395-0.9063 0.1875-0.2645 0.043-0.5213 0.0625-0.7813 0.0625-0.237 0-0.477-0.0145-0.7187-0.0625-0.2417-0.0531-0.4953-0.1605-0.71875-0.2813-0.21894-0.1207-0.42888-0.2659-0.625-0.4687-0.19157-0.2076-0.35861-0.4721-0.5-0.7813-0.1414-0.3089-0.2304-0.6736-0.3125-1.0937s-0.125-0.9085-0.125-1.4687c0-0.8257 0.07735-1.512 0.21875-2.0626 0.14595-0.55533 0.3292-0.98412 0.59375-1.3125 0.2691-0.3332 0.59474-0.58353 0.96875-0.71875 0.374-0.14005 0.7848-0.21874 1.25-0.21875 0.2417 0 0.4862 0.0191 0.7187 0.0625 0.2373 0.03864 0.4733 0.1102 0.6876 0.1875 0.219 0.07244 0.4335 0.1486 0.625 0.25 0.1916 0.10142 0.3404 0.22786 0.5 0.34375l0.1874 1.25h0.8438v-2.125c-0.2554-0.07726-0.7491-0.2401-1-0.3125-0.2509-0.07726-0.5297-0.16075-0.8125-0.21875-0.2828-0.0579-0.5778-0.0912-0.9063-0.125-0.3237-0.0338-0.6655-0.06249-1.0624-0.0625zm-3.5704 2.8262c-0.15842 0.64467-0.24219 1.3767-0.24219 2.2364 0 0.6112 0.04702 1.1611 0.14453 1.6601 0.03377 0.1728 0.10621 0.3396 0.14844 0.5098-0.08347-0.1484-0.19686-0.2388-0.26953-0.418l-0.00196-0.0019c-0.19149-0.484-0.30273-1.0359-0.30273-1.7188 0-0.7663 0.10088-1.4226 0.2793-1.8984a1.0001 1.0001 0 0 0 0.00195-0.00195c0.05649-0.15182 0.17107-0.23666 0.24219-0.36719zm6.4278 3.1426h0.0039a1.0001 1.0001 0 0 0-2e-3 0.0137 1.0001 1.0001 0 0 0-0.0019-0.0137z" opacity=".25"/>
 <path id="base" d="m6 3c-1.108 0-2 0.892-2 2v12c0 1.108 0.892 2 2 2h10c1.108 0 2-0.892 2-2v-12c0-1.108-0.892-2-2-2h-10zm5.2188 3.0312c0.39681 9.9e-6 0.73866 0.028707 1.0625 0.0625 0.32839 0.033813 0.62346 0.067061 0.90625 0.125 0.28278 0.057958 0.56163 0.14149 0.8125 0.21875 0.25085 0.072446 0.74457 0.23524 1 0.3125v2.125h-0.84375l-0.1875-1.25c-0.15965-0.11589-0.30844-0.24233-0.5-0.34375-0.19157-0.1014-0.40608-0.17756-0.625-0.25-0.21438-0.077256-0.45033-0.14886-0.6875-0.1875-0.23262-0.043453-0.47702-0.062491-0.71875-0.0625-0.46524 9.1e-6 -0.876 0.078717-1.25 0.21875-0.37401 0.13522-0.69965 0.38555-0.96875 0.71875-0.26455 0.32838-0.4478 0.75717-0.59375 1.3125-0.1414 0.55052-0.21875 1.2367-0.21875 2.0625-2.9e-6 0.56017 0.042897 1.0486 0.125 1.4688 0.082097 0.42013 0.1711 0.78469 0.3125 1.0938 0.14139 0.30906 0.30843 0.5736 0.5 0.78125 0.19612 0.20282 0.40606 0.34802 0.625 0.46875 0.22349 0.12073 0.47701 0.22813 0.71875 0.28125 0.24173 0.04829 0.48157 0.0625 0.71875 0.0625 0.25998 0 0.5167-0.01904 0.78125-0.0625 0.26454-0.04829 0.68731-0.11023 0.90625-0.1875v-2.8125l-1.0938-0.1875v-1h3.9688v1l-0.90625 0.1875v3.1562c-0.26455 0.09175-0.54661 0.16791-0.875 0.25-0.32385 0.07726-0.68005 0.1608-1.0312 0.21875-0.35121 0.05795-0.70674 0.091197-1.0625 0.125-0.35577 0.0338-0.70286 0.0625-1.0312 0.0625-0.72522 0-1.3934-0.10485-2-0.3125-0.60663-0.21248-1.1246-0.52703-1.5625-0.9375-0.43331-0.4153-0.7537-0.92279-1-1.5312-0.24174-0.60846-0.375-1.297-0.375-2.0938-7e-7 -0.84991 0.10657-1.6174 0.34375-2.25 0.23718-0.63743 0.59338-1.1424 1.0312-1.5625 0.44242-0.42495 0.96888-0.76109 1.5938-0.96875 0.62943-0.21247 1.3496-0.31249 2.125-0.3125z" fill="url(#gr0)"/>
 <path id="path15" d="m11.219 6.0312c-0.7754 1e-5 -1.4956 0.10003-2.125 0.3125-0.62487 0.20766-1.1513 0.5438-1.5938 0.96875-0.43787 0.42014-0.79407 0.92507-1.0312 1.5625-0.23718 0.63261-0.34375 1.4001-0.34375 2.25 0 0.205 0.01013 0.4026 0.02734 0.5938 0.0304-0.6826 0.11914-1.3177 0.31641-1.8438 0.23718-0.63743 0.59338-1.1424 1.0312-1.5625 0.44242-0.42495 0.96888-0.76109 1.5938-0.96875 0.25378-0.08567 0.53154-0.14149 0.8125-0.19141 0.09323-0.05223 0.18095-0.11606 0.28125-0.15234 0.374-0.14005 0.7848-0.21874 1.25-0.21875 0.2417 0 0.4862 0.0191 0.7187 0.0625 0.2373 0.03864 0.4733 0.1102 0.6876 0.1875 0.219 0.07244 0.4335 0.1486 0.625 0.25 0.0119 0.00634 0.0195 0.01496 0.0312 0.02148 0.17 0.04488 0.3456 0.08722 0.5 0.13477 0.2509 0.0724 0.7446 0.23524 1 0.3125v-1c-0.2554-0.07726-0.7491-0.2401-1-0.3125-0.2509-0.07726-0.5297-0.16075-0.8125-0.21875-0.2828-0.0579-0.5778-0.0912-0.9063-0.125-0.3237-0.0338-0.6655-0.06249-1.0624-0.0625zm0.7812 4.9688v1h3.9688v-1h-3.9688zm-3.5723 0.6504c-0.0058 0.1507-0.02148 0.2821-0.02148 0.4434 0 0.5602 0.0429 1.0486 0.125 1.4687s0.1711 0.7848 0.3125 1.0937c0.14139 0.3092 0.30843 0.5737 0.5 0.7813 0.19612 0.2028 0.40606 0.348 0.625 0.4687 0.00502 0.0028 0.01058 0.0052 0.01563 0.0079 0.34402 0.0558 0.70292 0.0859 1.0781 0.0859 0.3284 0 0.6755-0.0285 1.0313-0.0625 0.3348-0.032 0.669-0.0653 1-0.1172v-0.8203c-0.2189 0.0773-0.6418 0.1395-0.9063 0.1875-0.2645 0.043-0.5213 0.0625-0.7813 0.0625-0.237 0-0.477-0.0145-0.7187-0.0625-0.2417-0.0531-0.4953-0.1605-0.71875-0.2813-0.21894-0.1207-0.42888-0.2659-0.625-0.4687-0.19157-0.2076-0.35861-0.4721-0.5-0.7813-0.1414-0.3089-0.2304-0.6736-0.3125-1.0937-0.05307-0.2716-0.0842-0.5825-0.10352-0.9121zm-4.4277 5.3496v1c0 1.108 0.892 2 2 2h10c1.108 0 2-0.892 2-2v-1c0 1.108-0.892 2-2 2h-10c-1.108 0-2-0.892-2-2z" opacity=".45"/>
 <path id="path20" d="m6 3c-1.108 0-2 0.892-2 2v1c0-1.108 0.892-2 2-2h10c1.108 0 2 0.892 2 2v-1c0-1.108-0.892-2-2-2h-10zm5.2188 4.0312c-0.4628 1e-5 -0.8967 0.0472-1.3126 0.12109-0.25424 0.14244-0.4906 0.32261-0.6875 0.56641-0.26455 0.32838-0.4478 0.75717-0.59375 1.3125-0.1414 0.55052-0.21875 1.2368-0.21875 2.0626 0 0.198 0.01092 0.3763 0.02148 0.5566 0.02391-0.6207 0.08349-1.1761 0.19727-1.6192 0.14595-0.55523 0.3292-0.98407 0.59375-1.3124 0.2691-0.3332 0.59474-0.58353 0.96875-0.71875 0.374-0.14005 0.7848-0.21874 1.25-0.21875 0.2417 0 0.4862 0.0191 0.7187 0.0625 0.2373 0.03864 0.4733 0.1102 0.6876 0.1875 0.219 0.07244 0.4335 0.1486 0.625 0.25 0.1916 0.10142 0.3404 0.22786 0.5 0.34375l0.1874 1.25h0.8438v-1h-0.8438l-0.1874-1.25c-0.1497-0.10865-0.294-0.22438-0.4688-0.32227-0.1062-0.02804-0.2037-0.06167-0.3125-0.08398-0.2828-0.0579-0.5778-0.0912-0.9063-0.125-0.3237-0.0338-0.6655-0.06249-1.0624-0.0625zm-5.0665 4.6876c-0.00615 0.1381-0.02734 0.2632-0.02734 0.4062 0 0.7968 0.13326 1.4854 0.375 2.0938 0.2463 0.6085 0.56669 1.1159 1 1.5312 0.43786 0.4105 0.95587 0.725 1.5625 0.9375 0.60662 0.2076 1.2748 0.3125 2 0.3125 0.3284 0 0.6755-0.0285 1.0313-0.0625s0.7112-0.067 1.0624-0.125c0.3512-0.0579 0.7075-0.1417 1.0313-0.2187 0.3284-0.0821 0.6104-0.1581 0.875-0.25v-1c-0.2646 0.092-0.5466 0.168-0.875 0.25-0.3238 0.0769-0.6801 0.1608-1.0313 0.2187-0.0206 0.0034-0.0417 0.0046-0.0624 0.0078v0.1797c-0.2189 0.0773-0.6418 0.1395-0.9063 0.1875-0.2645 0.043-0.5213 0.0625-0.7813 0.0625-0.237 0-0.477-0.0145-0.7187-0.0625-0.2363-0.0519-0.4834-0.156-0.70312-0.2734-0.32097-0.0521-0.62909-0.1264-0.92188-0.2266-0.60663-0.2125-1.1246-0.527-1.5625-0.9375-0.43331-0.4153-0.7537-0.9228-1-1.5312-0.17956-0.4519-0.29795-0.9482-0.34766-1.5zm5.8477 0.2812v1l1.0938 0.1875v-1l-1.0938-0.1875zm3.9688 0-0.9063 0.1875v1l0.9063-0.1875v-1z" fill="#fff" opacity=".6"/>
</svg>
