<?xml version="1.0" encoding="UTF-8"?>
<svg id="svg36" width="22" height="22" version="1.1" xmlns="http://www.w3.org/2000/svg" xmlns:cc="http://creativecommons.org/ns#" xmlns:dc="http://purl.org/dc/elements/1.1/" xmlns:rdf="http://www.w3.org/1999/02/22-rdf-syntax-ns#">
 <metadata id="metadata40">
  <rdf:RDF>
   <cc:Work rdf:about="">
    <dc:format>image/svg+xml</dc:format>
    <dc:type rdf:resource="http://purl.org/dc/dcmitype/StillImage"/>
   </cc:Work>
  </rdf:RDF>
 </metadata>
 <defs id="defs12">
  <linearGradient id="gr0" x1="11" x2="11" y1="5" y2="17" gradientUnits="userSpaceOnUse">
   <stop id="stop2" stop-color="#ebebeb" offset="0"/>
   <stop id="stop4" stop-color="#aaa" offset="1"/>
  </linearGradient>
  <linearGradient id="gr1" x1="11" x2="11" y1="7" y2="15" gradientUnits="userSpaceOnUse">
   <stop id="stop7" stop-color="#f7c15a" offset="0"/>
   <stop id="stop9" stop-color="#df880b" offset="1"/>
  </linearGradient>
 </defs>
 <path id="path14" d="m3.5 4c-1.368 0-2.5 1.132-2.5 2.5v9c0 1.37 1.132 2.5 2.5 2.5h13c1.37 0 2.5-1.13 2.5-2.5v-1.5c1.09 0 2-0.91 2-2v-2c0-1.091-0.91-2-2-2v-1.5c0-1.368-1.13-2.5-2.5-2.5h-13zm0 1h13c0.83 0 1.5 0.669 1.5 1.5v2.5h1c0.55 0 1 0.446 1 1v2c0 0.55-0.45 1-1 1h-1v2.5c0 0.83-0.67 1.5-1.5 1.5h-13c-0.831 0-1.5-0.67-1.5-1.5v-9c0-0.831 0.669-1.5 1.5-1.5zm1.5 2c-0.554 0-1 0.446-1 1v6c0 0.55 0.446 1 1 1h10c0.55 0 1-0.45 1-1v-2-2-2c0-0.554-0.45-1-1-1h-10zm0 1h10v2 2 2h-10v-6z" opacity=".25"/>
 <path id="base" d="m3.5 5c-0.831 0-1.5 0.669-1.5 1.5v9c0 0.831 0.669 1.5 1.5 1.5h13c0.831 0 1.5-0.669 1.5-1.5v-2.5h1c0.554 0 1-0.446 1-1v-2c0-0.554-0.446-1-1-1h-1v-2.5c0-0.831-0.669-1.5-1.5-1.5h-13zm1.5 2h10c0.554 0 1 0.446 1 1v6c0 0.554-0.446 1-1 1h-10c-0.554 0-1-0.446-1-1v-6c0-0.554 0.446-1 1-1z" fill="url(#gr0)"/>
 <path id="path22" class="fill" d="m5 7c-0.554 0-1 0.446-1 1v6c0 0.554 0.446 1 1 1h4v-8h-4z" fill="url(#gr1)"/>
 <path id="path24" d="m5 7c-0.554 0-1 0.446-1 1v1c0-0.554 0.446-1 1-1h10c0.55 0 1 0.446 1 1v-1c0-0.554-0.45-1-1-1h-10zm15 5c0 0.55-0.45 1-1 1h-1v1h1c0.55 0 1-0.45 1-1v-1zm-18 3.5v1c0 0.83 0.669 1.5 1.5 1.5h13c0.83 0 1.5-0.67 1.5-1.5v-1c0 0.83-0.67 1.5-1.5 1.5h-13c-0.831 0-1.5-0.67-1.5-1.5z" opacity=".45"/>
 <path id="path31" d="m3.5 5c-0.831 0-1.5 0.669-1.5 1.5v1c0-0.831 0.669-1.5 1.5-1.5h13c0.83 0 1.5 0.669 1.5 1.5v-1c0-0.831-0.67-1.5-1.5-1.5h-13zm14.5 4v1h1c0.55 0 1 0.45 1 1v-1c0-0.554-0.45-1-1-1h-1zm-14 5v1c0 0.55 0.446 1 1 1h10c0.55 0 1-0.45 1-1v-1c0 0.55-0.45 1-1 1h-10c-0.554 0-1-0.45-1-1z" fill="#fff" opacity=".6"/>
</svg>
