<?xml version="1.0" encoding="UTF-8"?>
<svg id="svg27" width="22" height="22" version="1.1" xmlns="http://www.w3.org/2000/svg" xmlns:cc="http://creativecommons.org/ns#" xmlns:dc="http://purl.org/dc/elements/1.1/" xmlns:rdf="http://www.w3.org/1999/02/22-rdf-syntax-ns#">
 <metadata id="metadata31">
  <rdf:RDF>
   <cc:Work rdf:about="">
    <dc:format>image/svg+xml</dc:format>
    <dc:type rdf:resource="http://purl.org/dc/dcmitype/StillImage"/>
   </cc:Work>
  </rdf:RDF>
 </metadata>
 <defs id="defs7">
  <linearGradient id="gr0" x1="11" x2="11" y1="10" y2="18" gradientUnits="userSpaceOnUse">
   <stop id="stop2" stop-color="#ebebeb" offset="0"/>
   <stop id="stop4" stop-color="#aaa" offset="1"/>
  </linearGradient>
 </defs>
 <path id="path9" d="m9 9c-1.0137 0-2 0.73812-2 1.8438v1.4492c-0.31591-0.1562-0.64022-0.293-1-0.293h-1c-0.45751 0-0.89181 0.1136-1.2715 0.373-0.37968 0.2595-0.72852 0.7373-0.72852 1.3145v3.625c0 0.5772 0.34884 1.055 0.72852 1.3145 0.37967 0.2594 0.81397 0.373 1.2715 0.373h1c0.45751 0 0.89181-0.1136 1.2715-0.373 0.11618-0.0794 0.12142-0.2854 0.22266-0.4024 0.38135 0.4519 0.89736 0.7754 1.5059 0.7754h1c1.0137 0 2-0.7381 2-1.8438v-6.3124c0-1.1057-0.9863-1.8438-2-1.8438h-1zm0 1h1c0.554 0 1 0.3818 1 0.8438v6.3124c0 0.462-0.446 0.8438-1 0.8438h-1c-0.554 0-1-0.3818-1-0.8438v-6.3124c0-0.462 0.446-0.8438 1-0.8438zm-4 3h1c0.554 0 1 0.2995 1 0.6875v3.625c0 0.388-0.446 0.6875-1 0.6875h-1c-0.554 0-1-0.2995-1-0.6875v-3.625c0-0.388 0.446-0.6875 1-0.6875z" opacity=".25"/>
 <path id="base" d="m9 10c-0.554 0-1 0.382-1 0.844v6.312c0 0.462 0.446 0.844 1 0.844h1c0.554 0 1-0.382 1-0.844v-6.312c0-0.462-0.446-0.844-1-0.844h-1zm-4 3c-0.554 0-1 0.3-1 0.688v3.624c0 0.388 0.446 0.688 1 0.688h1c0.554 0 1-0.3 1-0.688v-3.624c0-0.388-0.446-0.688-1-0.688h-1z" fill="url(#gr0)"/>
 <path id="path15" d="m0 2v1l3 2.5v3.5h1v-3.5l3-2.5v-1zm1 1h2v1.5zm3 0h2l-2 1.5zm13 1c-0.554 0-1 0.446-1 1v12c0 0.554 0.446 1 1 1h1c0.554 0 1-0.446 1-1v-12c0-0.554-0.446-1-1-1zm-4 3c-0.554 0-1 0.4231-1 0.9375v9.125c0 0.515 0.446 0.9375 1 0.9375h1c0.554 0 1-0.4225 1-0.9375v-9.125c0-0.5144-0.446-0.9375-1-0.9375z" fill="#fff" opacity=".4"/>
 <path id="path17" d="m8 17.156v1c0 0.462 0.446 0.8438 1 0.8438h1c0.554 0 1-0.3818 1-0.8438v-1c0 0.462-0.446 0.8438-1 0.8438h-1c-0.554 0-1-0.3818-1-0.8438zm-4 0.1563v1c0 0.388 0.446 0.6875 1 0.6875h1c0.554 0 1-0.2995 1-0.6875v-1c0 0.388-0.446 0.6875-1 0.6875h-1c-0.554 0-1-0.2995-1-0.6875z" opacity=".45"/>
 <path id="path22" d="m9 10c-0.554 0-1 0.3818-1 0.8438v1c0-0.4621 0.446-0.8438 1-0.8438h1c0.554 0 1 0.3818 1 0.8438v-1c0-0.462-0.446-0.8438-1-0.8438h-1zm-4 3c-0.554 0-1 0.2995-1 0.6875v1c0-0.388 0.446-0.6875 1-0.6875h1c0.554 0 1 0.2995 1 0.6875v-1c0-0.388-0.446-0.6875-1-0.6875h-1z" fill="#fff" opacity=".6"/>
</svg>
