<?xml version="1.0" encoding="UTF-8"?>
<svg id="svg27" width="22" height="22" version="1.1" xmlns="http://www.w3.org/2000/svg" xmlns:cc="http://creativecommons.org/ns#" xmlns:dc="http://purl.org/dc/elements/1.1/" xmlns:rdf="http://www.w3.org/1999/02/22-rdf-syntax-ns#">
 <metadata id="metadata31">
  <rdf:RDF>
   <cc:Work rdf:about="">
    <dc:format>image/svg+xml</dc:format>
    <dc:type rdf:resource="http://purl.org/dc/dcmitype/StillImage"/>
   </cc:Work>
  </rdf:RDF>
 </metadata>
 <defs id="defs7">
  <linearGradient id="gr0" x1="11" x2="11" y1="3" y2="8.8438" gradientUnits="userSpaceOnUse">
   <stop id="stop2" stop-color="#ebebeb" offset="0"/>
   <stop id="stop4" stop-color="#aaa" offset="1"/>
  </linearGradient>
 </defs>
 <path id="path9" d="m14.375 2c-0.8677 0-1.912 0.21274-2.6562 1.0586-0.8643 0.98182-1.016 2.0166-1.0997 2.6504-0.0837 0.63376-0.0617 0.85612-0.64644 1.4043a1.0001 1.0001 0 0 0-0.17383 1.2461c0.22517 0.37395 0.49567 0.72095 0.80277 1.0312 0.0578 0.06035 0.1171 0.12009 0.1777 0.17774a1.0001 1.0001 0 0 0 1.3242 0.04883c0.3306-0.27134 0.8877-0.3569 1.7598-0.48438 0.872-0.12748 2.0306-0.35465 3.0312-1.2715 1.424-1.3046 1.4232-3.5738 0-4.8789-0.6974-0.64029-1.6009-0.98242-2.5195-0.98242zm0 1c0.676 0 1.3287 0.24595 1.8438 0.71875 1.032 0.9455 1.032 2.4607 0 3.4062-1.5745 1.4425-3.5102 0.70105-4.75 1.7188a4.5 4.5 0 0 1-0.1563-0.15625 4.5 4.5 0 0 1-0.6563-0.84375c1.5322-1.4364 0.409-2.5302 1.8126-4.125 0.4615-0.52459 1.2299-0.71875 1.9062-0.71875z" opacity=".25"/>
 <path id="base" d="m14.375 3c-0.6763 0-1.4446 0.19416-1.9062 0.71875-1.4036 1.5948-0.28042 2.6886-1.8125 4.125a4.5 4.5 0.78778 0 0 0.65625 0.84375 4.5 4.5 0.78778 0 0 0.15625 0.15625c1.2398-1.0177 3.1756-0.27626 4.75-1.7188 1.032-0.94554 1.032-2.4607 0-3.4062-0.515-0.4728-1.167-0.7188-1.843-0.7188z" fill="url(#gr0)"/>
 <path id="path15" d="m11.688 5.3438c-0.055 0.3043-0.099 0.6108-0.157 0.9062 0.058-0.3036 0.101-0.5933 0.157-0.9062zm-1.032 2.5c-0.012 0.0112-0.019 0.0199-0.031 0.0312-0.7931 0.7267-1.6182 1.0904-2.4375 1.1562-0.0195-4e-3 -0.0426 1e-3 -0.0625 0-0.8485-0.055-1.73 0.0653-2.375 0.6563-0.4384 0.4015-0.6528 0.9135-0.7188 1.4375-0.0154 0.123-0.0364 0.251-0.0312 0.375-1e-3 0.031 0 0.063 0 0.094 8e-3 0.093 0.0118 0.189 0.0312 0.281 0.066 0.524 0.2804 1.036 0.7188 1.437 0.645 0.591 1.5735 0.65 2.375 0.626 0.0214-1e-3 0.0411-2e-3 0.0625 0 0.8193 0.065 1.6444 0.46 2.4375 1.187 1.586 1.453 0.32 2.611 1.844 4.156 0.982 0.996 2.718 0.946 3.75 0 1.032-0.945 1.032-2.492 0-3.437-1.612-1.477-3.167-0.297-4.719-1.719-0.916-0.839-1.469-1.704-1.469-2.625s0.11-1.463 1.344-2.5938c0.029-0.0262 0.064-0.0383 0.094-0.0624a4.5 4.5 0.013749 0 1-0.157-0.1563 4.5 4.5 0.013749 0 1-0.656-0.8437zm4.344 0c-0.369 0.1305-0.757 0.224-1.125 0.2812 0.374-0.056 0.75-0.1497 1.125-0.2812z" fill="#fff" opacity=".4"/>
 <path id="path17" d="m16.932 5.9219c-0.1024 0.43947-0.3377 0.85944-0.7128 1.2031-1.5745 1.4425-3.5102 0.70105-4.75 1.7188a4.5 4.5 0 0 1-0.1563-0.15625 4.5 4.5 0 0 1-0.2598-0.29492c-0.1098 0.14773-0.2315 0.29655-0.3965 0.45117a4.5 4.5 0 0 0 0.6563 0.84375 4.5 4.5 0 0 0 0.1563 0.15625c1.2398-1.0177 3.1755-0.27621 4.75-1.7188 0.6568-0.60186 0.8922-1.4335 0.7128-2.2031z" opacity=".45"/>
 <path id="path22" d="m14.375 3c-0.6763 0-1.4447 0.19416-1.9062 0.71875-1.4036 1.5948-0.2804 2.6886-1.8126 4.125a4.5 4.5 0 0 0 0.3965 0.54883c0.9107-1.2247 0.1635-2.2507 1.4161-3.6738 0.4615-0.52459 1.2299-0.71875 1.9062-0.71875 0.676 0 1.3287 0.24595 1.8438 0.71875 0.3751 0.34366 0.6104 0.76365 0.7128 1.2031 0.1794-0.76964-0.056-1.6013-0.7128-2.2031-0.5151-0.4728-1.1678-0.71875-1.8438-0.71875z" fill="#fff" opacity=".6"/>
</svg>
