<?xml version="1.0" encoding="UTF-8"?>
<svg id="svg25" width="22" height="22" version="1.1" xmlns="http://www.w3.org/2000/svg" xmlns:cc="http://creativecommons.org/ns#" xmlns:dc="http://purl.org/dc/elements/1.1/" xmlns:rdf="http://www.w3.org/1999/02/22-rdf-syntax-ns#">
 <metadata id="metadata29">
  <rdf:RDF>
   <cc:Work rdf:about="">
    <dc:format>image/svg+xml</dc:format>
    <dc:type rdf:resource="http://purl.org/dc/dcmitype/StillImage"/>
   </cc:Work>
  </rdf:RDF>
 </metadata>
 <defs id="defs7">
  <linearGradient id="gr0" x1="11" x2="11" y1="3" y2="20" gradientUnits="userSpaceOnUse">
   <stop id="stop2" stop-color="#ebebeb" offset="0"/>
   <stop id="stop4" stop-color="#aaa" offset="1"/>
  </linearGradient>
 </defs>
 <path id="path9" d="m14.365 2a1.0001 1.0001 0 0 0-0.2949 0.04492 1.0001 1.0001 0 0 0-0.0058 0.00196c-0.7986 0.04658-1.6843 0.26066-2.3418 1.0078-0.8692 0.98758-1.0188 2.026-1.1055 2.6562s-0.0661 0.85186-0.6797 1.4141c-0.66968 0.61358-1.2667 0.8686-1.832 0.91406l0.0293 0.00196c-0.9747-0.05638-2.1412 0.07497-3.0527 0.91015-0.62337 0.57117-0.95044 1.3258-1.041 2.0449-0.01194 0.095-0.05022 0.273-0.03907 0.5391v-0.0743c-0.00241 0.0745-0.00195 0.1178-0.00195 0.127a1.0001 1.0001 0 0 0 0.00391 0.084c0.00449 0.0522 0.01751 0.1841 0.04101 0.3281 0.09208 0.7165 0.41608 1.4661 1.0371 2.0352 0.93858 0.8599 2.119 0.9346 3.0098 0.9121a1.0001 1.0001 0 0 0 0.01367 0.0019c0.56532 0.0455 1.1624 0.3005 1.832 0.9141 0.5999 0.5497 0.5615 0.7631 0.6367 1.416 0.0753 0.6529 0.2425 1.7371 1.1875 2.6953 1.4082 1.4279 3.7093 1.3466 5.1406 0.0352 1.4286-1.3089 1.4285-3.5896 0-4.8985-1.0226-0.937-2.1864-1.0689-2.9765-1.1347-0.7901-0.0659-1.1952-0.0714-1.7461-0.5762-0.8052-0.7377-1.1426-1.3849-1.1426-1.9063 0-0.4244 0.0166-0.5858 0.1113-0.791 0.0948-0.2051 0.3267-0.5267 0.8965-1.0488 0.3277-0.30027 0.8621-0.38335 1.7481-0.50586 0.886-0.12252 2.0821-0.33221 3.1093-1.2734 1.4285-1.3088 1.4286-3.5876 0-4.8965-0.7072-0.64801-1.6214-0.97852-2.5371-0.97852zm0 1c0.6762 0 1.3454 0.24206 1.8614 0.71484 1.032 0.94554 1.032 2.4763 0 3.4219-1.6118 1.4768-3.6236 0.64881-4.8575 1.7793-1.2335 1.1305-1.332 1.657-1.332 2.5781s0.5512 1.8057 1.4668 2.6446c1.552 1.422 3.1109 0.2341 4.7227 1.7109 1.032 0.9455 1.032 2.4763 0 3.4219-1.032 0.9455-2.7699 0.9958-3.752 0-1.5243-1.5456-0.2751-2.6932-1.8613-4.1465-0.79313-0.7267-1.6084-1.1078-2.4278-1.1738-0.0214 0-0.0411-6e-4 -0.0625 0-0.80153 0.0241-1.7202-0.0615-2.3652-0.6524-0.43836-0.4017-0.65861-0.908-0.72461-1.4316-0.0194-0.0919-0.0252-0.1883-0.0332-0.2813 0-0.031-1e-3 -0.0608 0-0.0918-0.0052-0.124 0.0177-0.2496 0.0332-0.373 0.06595-0.5236 0.28625-1.03 0.72461-1.4316 0.645-0.59096 1.5167-0.70939 2.3652-0.65429 0.0199 1e-3 0.043-4e-3 0.0625 0 0.81934-0.06589 1.6346-0.44521 2.4278-1.1719 1.5862-1.4533 0.4466-2.5411 1.8613-4.1484 0.4617-0.52459 1.2143-0.71484 1.8906-0.71484z" opacity=".25"/>
 <path id="base" d="m14.366 3c-0.6763 0-1.4302 0.191-1.8919 0.71559-1.4146 1.6074-0.27414 2.6935-1.8604 4.1468-0.79311 0.72667-1.6086 1.1075-2.4279 1.1734-0.0195-4e-3 -0.0432 1e-3 -0.0631 0-0.84851-0.0551-1.7199 0.0624-2.3649 0.65336-0.43836 0.40165-0.65927 0.90758-0.72522 1.4312-0.0155 0.1234-0.0367 0.24936-0.0315 0.37335-1e-3 0.0309 0 0.0625 0 0.0933 8e-3 0.093 0.0121 0.18817 0.0315 0.28001 0.066 0.5236 0.28686 1.0295 0.72522 1.4312 0.645 0.59095 1.5633 0.67749 2.3649 0.65336 0.0214-6.5e-4 0.0417-2e-3 0.0631 0 0.81934 0.0659 1.6348 0.44672 2.4279 1.1734 1.5862 1.4533 0.33612 2.6013 1.8604 4.1468 0.98215 0.99588 2.7203 0.94554 3.7522 0 1.032-0.94554 1.032-2.4768 0-3.4224-1.6118-1.4768-3.1695-0.28914-4.7215-1.7112-0.91562-0.83892-1.4679-1.7235-1.4679-2.6446s0.0998-1.4469 1.3336-2.5774c1.2338-1.1305 3.2441-0.30158 4.8558-1.7784 1.032-0.94554 1.032-2.4768 0-3.4224-0.51599-0.47278-1.1841-0.7156-1.8604-0.7156v5e-5z" fill="url(#gr0)"/>
 <path id="path15" d="m16.94 5.9258c-0.1019 0.44382-0.3366 0.86611-0.7129 1.2109-1.6118 1.4768-3.6236 0.64881-4.8575 1.7793-1.2335 1.1305-1.332 1.657-1.332 2.5781 0 0.1291 0.014 0.2572 0.0352 0.3848 0.083-0.5965 0.3632-1.1072 1.2968-1.9629 1.2339-1.1305 3.2457-0.30253 4.8575-1.7793 0.6561-0.60118 0.8911-1.4373 0.7129-2.2109zm-11.881 6.0683c-0.00748 0.0425-0.02 0.0842-0.02539 0.127-0.0155 0.1234-0.0384 0.249-0.0332 0.373-1e-3 0.031 0 0.0608 0 0.0918 8e-3 0.093 0.0138 0.1894 0.0332 0.2813 0.066 0.5236 0.28625 1.0299 0.72461 1.4316 0.645 0.5909 1.5637 0.6765 2.3652 0.6524 0.0214-6e-4 0.0411 0 0.0625 0 0.81934 0.066 1.6346 0.4471 2.4278 1.1738 1.5862 1.4533 0.337 2.6009 1.8613 4.1465 0.9821 0.9958 2.72 0.9455 3.752 0 0.6556-0.6008 0.8903-1.4378 0.7129-2.211-0.1019 0.4438-0.3366 0.8662-0.7129 1.211-1.032 0.9455-2.7699 0.9958-3.752 0-1.5243-1.5456-0.2751-2.6932-1.8613-4.1465-0.79313-0.7267-1.6084-1.1078-2.4278-1.1738-0.0214 0-0.0411-6e-4 -0.0625 0-0.80153 0.0241-1.7202-0.0615-2.3652-0.6524-0.4024-0.3687-0.61492-0.8272-0.69922-1.3047z" opacity=".45"/>
 <path id="path20" d="m14.365 3c-0.6763 0-1.4289 0.19025-1.8906 0.71484-1.4147 1.6074-0.2751 2.6951-1.8613 4.1484-0.79313 0.72667-1.6084 1.106-2.4278 1.1719-0.0195-4e-3 -0.0426 1e-3 -0.0625 0-0.84851-0.0551-1.7202 0.06333-2.3652 0.65429-0.43836 0.40165-0.65866 0.90805-0.72461 1.4316-0.0155 0.1234-0.0384 0.249-0.0332 0.373-1e-3 0.031 0 0.0608 0 0.0918 8e-3 0.093 0.0138 0.1894 0.0332 0.2813 0.00542 0.0429 0.01786 0.0843 0.02539 0.1269 0.08419-0.4776 0.29665-0.9357 0.69922-1.3046 0.645-0.5913 1.5167-0.70944 2.3652-0.6543 0.0199 1e-3 0.043 0 0.0625 0 0.81934-0.06595 1.6346-0.44525 2.4278-1.1719 1.5862-1.4533 0.4466-2.5411 1.8613-4.1484 0.4617-0.52459 1.2143-0.71484 1.8906-0.71484 0.6762 0 1.3454 0.24206 1.8614 0.71484 0.3758 0.34437 0.6108 0.76778 0.7129 1.2109 0.1774-0.77315-0.0573-1.6102-0.7129-2.2109-0.516-0.47278-1.1852-0.71484-1.8614-0.71484zm-4.2929 8.8789c-0.0267 0.1916-0.0352 0.3913-0.0352 0.6152 0 0.9211 0.5512 1.8057 1.4668 2.6446 1.552 1.422 3.1109 0.2341 4.7227 1.7109 0.3763 0.3448 0.611 0.7672 0.7129 1.2109 0.1774-0.7732-0.0573-1.6102-0.7129-2.2109-1.6118-1.4768-3.1707-0.2889-4.7227-1.7109-0.7873-0.7214-1.3017-1.4767-1.4316-2.2598z" fill="#fff" opacity=".6"/>
</svg>
