<?xml version="1.0" encoding="UTF-8"?>
<svg id="svg31" width="22" height="22" version="1.1" xmlns="http://www.w3.org/2000/svg" xmlns:cc="http://creativecommons.org/ns#" xmlns:dc="http://purl.org/dc/elements/1.1/" xmlns:rdf="http://www.w3.org/1999/02/22-rdf-syntax-ns#">
 <metadata id="metadata35">
  <rdf:RDF>
   <cc:Work rdf:about="">
    <dc:format>image/svg+xml</dc:format>
    <dc:type rdf:resource="http://purl.org/dc/dcmitype/StillImage"/>
   </cc:Work>
  </rdf:RDF>
 </metadata>
 <defs id="defs7">
  <linearGradient id="gr0" x1="11" x2="11" y1="6.469" y2="20.999" gradientUnits="userSpaceOnUse">
   <stop id="stop2" stop-color="#ebebeb" offset="0"/>
   <stop id="stop4" stop-color="#aaa" offset="1"/>
  </linearGradient>
 </defs>
 <path id="path9" d="m10.96 5.439 0.04 0.03c-3.063 0-5.899 1.086-8.082 2.922a1 1 0 0 0-0.121 1.408l1.625 1.941a1 1 0 0 0 0.785 0.35 1 1 0 0 0 0.219 0.84l1.625 1.91a1 1 0 0 0 0.713 0.35 1 1 0 0 0 0.222 0.8l2.254 2.66a1 1 0 0 0 1.53 0l2.22-2.66a1 1 0 0 0 0.22-0.79 1 1 0 0 0 0.75-0.36v0.34c-0.55 0.23-1 0.67-1 1.29v4c0 0.81 0.69 1.5 1.5 1.5h5c0.81 0 1.5-0.69 1.5-1.5v-4c0-0.62-0.45-1.06-1-1.29v-1.71c0-0.81-0.69-1.5-1.5-1.5h-2.38a1 1 0 0 0 0.43-0.29l1.62-1.942a1 1 0 0 0-0.12-1.412c-2.18-1.818-5.01-2.887-8.05-2.887zm0.04 1.03c2.81 0 5.4 0.986 7.41 2.656l-1.63 1.935c-1.56-1.293-3.59-2.06-5.78-2.06-2.206 0-4.245 0.778-5.812 2.09l-1.626-1.934c2.007-1.687 4.611-2.687 7.438-2.687zm0 4.061c1.82 0 3.49 0.67 4.78 1.75l-1.59 1.91c-0.87-0.73-1.97-1.19-3.19-1.19-1.224 0-2.319 0.46-3.188 1.19l-1.624-1.91c1.299-1.09 2.983-1.75 4.812-1.75zm5.5 2.47h3c0.28 0 0.5 0.22 0.5 0.5v2.5h0.5c0.28 0 0.5 0.22 0.5 0.5v4c0 0.28-0.22 0.5-0.5 0.5h-5c-0.28 0-0.5-0.22-0.5-0.5v-4c0-0.28 0.22-0.5 0.5-0.5h0.5v-2.5c0-0.28 0.22-0.5 0.5-0.5zm0.5 1v2h2v-2h-2zm-6 0.5c0.86 0 1.61 0.33 2.22 0.84l-2.22 2.66-2.25-2.66c0.61-0.52 1.39-0.84 2.25-0.84z" opacity=".25"/>
 <path id="base" d="m11 6.4688c-2.8266 0-5.4317 1.0006-7.4375 2.6874l1.625 1.9378c1.5674-1.3162 3.606-2.094 5.8125-2.094 2.191 0 4.219 0.7645 5.781 2.062l1.625-1.937c-2.001-1.6702-4.595-2.6562-7.406-2.6562zm0 4.0622c-1.8295 0-3.5141 0.659-4.8125 1.75l1.625 1.907c0.8683-0.732 1.9638-1.188 3.1875-1.188 1.224 0 2.318 0.456 3.188 1.188l1.593-1.907c-1.296-1.082-2.96-1.75-4.781-1.75zm5.5 2.469c-0.277 0-0.5 0.223-0.5 0.5v2.5h-0.5c-0.277 0-0.5 0.223-0.5 0.5v4c0 0.277 0.223 0.5 0.5 0.5h5c0.277 0 0.5-0.223 0.5-0.5v-4c0-0.277-0.223-0.5-0.5-0.5h-0.5v-2.5c0-0.277-0.223-0.5-0.5-0.5h-3zm0.5 1h2v2h-2v-2zm-6 0.5c-0.865 0-1.6401 0.322-2.25 0.844l2.25 2.656 2.219-2.656c-0.608-0.513-1.362-0.844-2.219-0.844z" fill="url(#gr0)"/>
 <path id="path17" d="m11 2.4375c-3.8086 0-7.2961 1.3842-10 3.6563l1.6562 1.9687c2.2607-1.9057 5.1556-3.0625 8.3438-3.0625 3.173 0 6.057 1.1424 8.312 3.0312l1.657-1.9687c-2.699-2.2549-6.176-3.625-9.969-3.625z" fill="#fff" opacity=".4"/>
 <path id="path19" d="m11 9c-2.206 0-4.245 0.778-5.812 2.09l-1.114-1.324c-0.172 0.129-0.347 0.254-0.512 0.394l1.626 1.93c1.567-1.31 3.606-2.09 5.812-2.09 2.19 0 4.22 0.77 5.78 2.06l1.63-1.93c-0.17-0.137-0.34-0.263-0.52-0.392l-1.11 1.322c-1.56-1.293-3.59-2.06-5.78-2.06zm-4.297 3.89c-0.177 0.12-0.35 0.25-0.515 0.39l1.624 1.91c0.869-0.73 1.964-1.19 3.188-1.19 1.22 0 2.32 0.46 3.19 1.19l1.59-1.91c-0.16-0.14-0.33-0.27-0.51-0.39l-1.08 1.3c-0.87-0.73-1.97-1.19-3.19-1.19-1.224 0-2.319 0.46-3.188 1.19l-1.109-1.3zm10.297 1.11v1h2v-1h-2zm-7.719 1.97c-0.187 0.11-0.366 0.23-0.531 0.37l2.25 2.66 2.22-2.66c-0.16-0.14-0.34-0.26-0.53-0.37l-1.69 2.03-1.719-2.03zm5.719 4.53v1c0 0.28 0.22 0.5 0.5 0.5h5c0.28 0 0.5-0.22 0.5-0.5v-1c0 0.28-0.22 0.5-0.5 0.5h-5c-0.28 0-0.5-0.22-0.5-0.5z" opacity=".45"/>
 <path id="path26" d="m11 6.469c-2.827 0-5.432 1-7.438 2.687l0.512 0.61c1.929-1.447 4.331-2.297 6.926-2.297 2.58 0 4.96 0.838 6.89 2.269l0.52-0.613c-2.01-1.67-4.6-2.656-7.41-2.656zm0 4.061c-1.829 0-3.513 0.66-4.812 1.75l0.515 0.6c1.216-0.85 2.702-1.35 4.297-1.35 1.59 0 3.06 0.51 4.27 1.36l0.51-0.61c-1.29-1.08-2.96-1.75-4.78-1.75zm5.5 2.47c-0.28 0-0.5 0.22-0.5 0.5v1c0-0.28 0.22-0.5 0.5-0.5h0.5 2 0.5c0.28 0 0.5 0.22 0.5 0.5v-1c0-0.28-0.22-0.5-0.5-0.5h-3zm-5.5 1.5c-0.86 0-1.64 0.32-2.25 0.84l0.531 0.63c0.508-0.3 1.089-0.47 1.719-0.47s1.19 0.18 1.69 0.47l0.53-0.63c-0.61-0.51-1.36-0.84-2.22-0.84zm4.5 1.5c-0.28 0-0.5 0.22-0.5 0.5v1c0-0.28 0.22-0.5 0.5-0.5h0.5v-1h-0.5zm1.5 0v1h2v-1h-2zm3 0v1h0.5c0.28 0 0.5 0.22 0.5 0.5v-1c0-0.28-0.22-0.5-0.5-0.5h-0.5z" fill="#fff" opacity=".6"/>
</svg>
