<?xml version="1.0" encoding="UTF-8"?>
<svg id="svg29" width="22" height="22" version="1.1" xmlns="http://www.w3.org/2000/svg" xmlns:cc="http://creativecommons.org/ns#" xmlns:dc="http://purl.org/dc/elements/1.1/" xmlns:rdf="http://www.w3.org/1999/02/22-rdf-syntax-ns#">
 <metadata id="metadata33">
  <rdf:RDF>
   <cc:Work rdf:about="">
    <dc:format>image/svg+xml</dc:format>
    <dc:type rdf:resource="http://purl.org/dc/dcmitype/StillImage"/>
   </cc:Work>
  </rdf:RDF>
 </metadata>
 <defs id="defs7">
  <linearGradient id="gr0" x1="11" x2="11" y1="4" y2="18" gradientUnits="userSpaceOnUse">
   <stop id="stop2" stop-color="#ebebeb" offset="0"/>
   <stop id="stop4" stop-color="#aaa" offset="1"/>
  </linearGradient>
 </defs>
 <path id="path9" d="m4 3a1 1 0 0 0-1 1v2.801a1 1 0 0 0 0.723 0.959 1 1 0 0 0-0.723 0.961v2.719a1 1 0 0 0 1 1c1.433 0 2.703 0.57 3.688 1.46-0.502-0.41-1.082-0.74-1.768-0.74-1.601 0-2.92 1.32-2.92 2.92s1.319 2.92 2.92 2.92 2.92-1.32 2.92-2.92c0-0.69-0.333-1.27-0.736-1.77 0.882 0.99 1.457 2.26 1.457 3.69a1 1 0 0 0 0.999 1h2.72a1 1 0 0 0 0.96-0.72 1 1 0 0 0 0.96 0.72h2.8a1 1 0 0 0 1-1c0-8.271-6.73-15-15-15zm0 1c7.73 0 14 6.27 14 14h-2.8c0-6.19-5.01-11.199-11.2-11.199v-2.801zm0 4.721c5.125 0 9.28 4.149 9.28 9.279h-2.72c0-3.62-2.937-6.56-6.56-6.56v-2.719zm1.92 5.439c1.06 0 1.92 0.86 1.92 1.92s-0.86 1.92-1.92 1.92-1.92-0.86-1.92-1.92 0.86-1.92 1.92-1.92z" opacity=".25"/>
 <path id="base" d="m4 4v2.8c6.19 0 11.2 5.01 11.2 11.2h2.8c0-7.73-6.27-14-14-14zm0 4.72v2.72c3.623 0 6.56 2.94 6.56 6.56h2.72c0-5.13-4.155-9.28-9.28-9.28zm1.92 5.44c-1.06 0-1.92 0.86-1.92 1.92s0.86 1.92 1.92 1.92 1.92-0.86 1.92-1.92-0.86-1.92-1.92-1.92z" fill="url(#gr0)"/>
 <path id="path17" d="m4 6.801v1c6.19 0 11.2 5.009 11.2 11.199h2.8c0-0.34-0.03-0.67-0.05-1h-2.75c0-6.19-5.01-11.199-11.2-11.199zm0 4.639v1c3.623 0 6.56 2.94 6.56 6.56h2.72c0-0.34-0.02-0.67-0.06-1h-2.66c0-3.62-2.937-6.56-6.56-6.56zm0.074 5.14c-0.043 0.16-0.074 0.33-0.074 0.5 0 1.06 0.86 1.92 1.92 1.92s1.92-0.86 1.92-1.92c0-0.17-0.031-0.34-0.074-0.5-0.222 0.82-0.96 1.42-1.846 1.42s-1.625-0.6-1.846-1.42z" opacity=".45"/>
 <path id="path24" d="m4 4v1c7.39 0 13.43 5.74 13.95 13h0.05c0-7.73-6.27-14-14-14zm0 4.721v1c4.787 0 8.73 3.619 9.22 8.279h0.06c0-5.13-4.155-9.279-9.28-9.279zm1.92 5.439c-1.06 0-1.92 0.86-1.92 1.92 0 0.17 0.031 0.34 0.074 0.5 0.221-0.82 0.96-1.42 1.846-1.42s1.624 0.6 1.846 1.42c0.043-0.16 0.074-0.33 0.074-0.5 0-1.06-0.86-1.92-1.92-1.92z" fill="#fff" opacity=".6"/>
</svg>
