<?xml version="1.0" encoding="UTF-8"?>
<svg id="svg25" width="22" height="22" version="1.1" xmlns="http://www.w3.org/2000/svg" xmlns:cc="http://creativecommons.org/ns#" xmlns:dc="http://purl.org/dc/elements/1.1/" xmlns:rdf="http://www.w3.org/1999/02/22-rdf-syntax-ns#">
 <metadata id="metadata29">
  <rdf:RDF>
   <cc:Work rdf:about="">
    <dc:format>image/svg+xml</dc:format>
    <dc:type rdf:resource="http://purl.org/dc/dcmitype/StillImage"/>
   </cc:Work>
  </rdf:RDF>
 </metadata>
 <defs id="defs7">
  <linearGradient id="gr0" x1="11" x2="11" y1="2" y2="20" gradientUnits="userSpaceOnUse">
   <stop id="stop2" stop-color="#ebebeb" offset="0"/>
   <stop id="stop4" stop-color="#aaa" offset="1"/>
  </linearGradient>
 </defs>
 <path id="path9" d="m10.988 1-0.7461 0.33398-4.6348 5.1856a1.0001 1.0001 0 0 0 0.4961 1.6348l0.58398 0.15234-3.2559 3.1172a1.0001 1.0001 0 0 0 0.44922 1.6934l0.58984 0.1484-3.1465 2.8828a1.0001 1.0001 0 0 0 0.45703 1.7149l6.2188 1.3906v0.7461a1.0001 1.0001 0 0 0 1 1h4a1.0001 1.0001 0 0 0 1-1v-0.7402l6.2188-1.3965a1.0001 1.0001 0 0 0 0.457-1.7149l-3.1465-2.8828 0.5898-0.1484a1.0001 1.0001 0 0 0 0.4493-1.6934l-3.2559-3.1172 0.584-0.15234a1.0001 1.0001 0 0 0 0.4961-1.6348l-4.6348-5.1856a1.0001 1.0001 0 0 0-0.7461-0.33398h-0.0234zm0 1h0.0234l4.6348 5.1875-2.3223 0.59961 4.5528 4.3594-2.3946 0.5996 4.5176 4.1406-7 1.5742v1.5391h-4v-1.5469l-7-1.5664 4.5176-4.1406-2.3945-0.5996 4.5527-4.3594-2.3223-0.59961 4.6348-5.1875z" opacity=".25"/>
 <path id="base" d="m10.988 2-4.6356 5.1867 2.3237 0.6-4.5531 4.36 2.3945 0.6-4.5177 4.14 7 1.5667v1.5467h4v-1.54l7-1.5733-4.5177-4.14 2.3945-0.6-4.5531-4.36 2.3237-0.6-4.6356-5.1867h-0.02359" fill="url(#gr0)"/>
 <path id="path15" d="m7.0801 7.375-0.72656 0.8125 1.5 0.38672 0.82226-0.78711-1.5957-0.41211zm7.8398 0-1.5957 0.41211 0.8223 0.78711 1.5-0.38672-0.7266-0.8125zm-9.9687 4.9785-0.82812 0.793 1.5371 0.3847 0.85742-0.7851-1.5664-0.3926zm12.098 0-1.5664 0.3926 0.8574 0.7851 1.5372-0.3847-0.8282-0.793zm-14.172 4.7285-0.87695 0.8047 7 1.5664v-1l-6.123-1.3711zm16.246 2e-3 -6.123 1.3769v1l7-1.5742-0.877-0.8027zm-10.123 2.916v1h4v-1h-4z" opacity=".45"/>
 <path id="path20" d="m10.988 2-4.6348 5.1875 0.72656 0.1875 3.9082-4.375h0.0234l3.9082 4.375 0.7266-0.1875-4.6348-5.1875h-0.0234zm-3.1348 6.5742-3.7305 3.5723 0.82812 0.207 3.7246-3.5664-0.82226-0.21289zm6.293 0-0.8223 0.21289 3.7246 3.5664 0.8282-0.207-3.7305-3.5723zm-8.4863 4.957-3.6602 3.3555 0.87695 0.1953 3.6406-3.3359-0.85742-0.2149zm10.68 0-0.8574 0.2149 3.6406 3.3379 0.877-0.1973-3.6602-3.3555z" fill="#fff" opacity=".6"/>
</svg>
