<?xml version="1.0" encoding="UTF-8"?>
<svg id="svg25" width="22" height="22" version="1.1" xmlns="http://www.w3.org/2000/svg" xmlns:cc="http://creativecommons.org/ns#" xmlns:dc="http://purl.org/dc/elements/1.1/" xmlns:rdf="http://www.w3.org/1999/02/22-rdf-syntax-ns#">
 <metadata id="metadata29">
  <rdf:RDF>
   <cc:Work rdf:about="">
    <dc:format>image/svg+xml</dc:format>
    <dc:type rdf:resource="http://purl.org/dc/dcmitype/StillImage"/>
   </cc:Work>
  </rdf:RDF>
 </metadata>
 <defs id="defs7">
  <linearGradient id="gr0" x1="11" x2="11" y1="2" y2="20" gradientUnits="userSpaceOnUse">
   <stop id="stop2" stop-color="#ebebeb" offset="0"/>
   <stop id="stop4" stop-color="#aaa" offset="1"/>
  </linearGradient>
 </defs>
 <path id="path9" d="m12 1a1.0001 1.0001 0 0 0-1 1v11.334c-0.6155-0.2161-1.2907-0.334-2-0.334-1.3072 0-2.5086 0.3887-3.4277 1.0781-0.91918 0.6894-1.5723 1.7332-1.5723 2.9219s0.65309 2.2325 1.5723 2.9219c0.91917 0.6894 2.1205 1.0781 3.4277 1.0781 1.3072 0 2.5086-0.3887 3.4277-1.0781 0.9192-0.6894 1.5723-1.7332 1.5723-2.9219v-9.7559c0.631 0.11908 1.3908 0.18864 1.7031 0.41797 0.4956 0.36394 0.7333 0.81669 0.8574 1.3906 0.2484 1.1479-0.1665 2.7096-0.3769 3.2989a1.0001 1.0001 0 0 0 1.8457 0.7636c1.4644-3.0902 1.3097-5.3943 0.4082-6.959s-2.3801-2.3402-2.9941-2.8008c-0.662-0.4965-1.0449-0.95253-1.2598-1.2656-0.2149-0.31309-0.2344-0.40625-0.2344-0.40625a1.0001 1.0001 0 0 0-0.9492-0.68359h-1zm0 1h1s0.3438 1.0312 1.8438 2.1562c1.4737 1.1053 5.0366 2.7169 2.2812 8.5312 0.4785-1.3398 2-6.6875-4.125-6.6875v11c0 1.6569-1.7909 3-4 3-2.2091 0-4-1.3431-4-3s1.7909-3 4-3c1.1997 0 2.2668 0.404 3 1.0312v-13.031z" opacity=".25"/>
 <path id="base" d="m12 2v13.031c-0.73316-0.62734-1.8003-1.0312-3-1.0312-2.2091 0-4 1.3431-4 3s1.7909 3 4 3 4-1.3431 4-3v-11c6.125 0 4.6035 5.3477 4.125 6.6875 2.7554-5.8144-0.80746-7.4259-2.2812-8.5312-1.5-1.125-1.8438-2.1562-1.8438-2.1562h-1z" fill="url(#gr0)"/>
 <path id="path15" d="m13 6v1c3.3901 0 4.4348 1.6379 4.6133 3.3281 0.1329-1.9774-0.5437-4.3281-4.6133-4.3281zm5.1113 3.3438c-0.0515 0.65915-0.2086 1.3994-0.5234 2.248-0.0931 0.8906-0.3167 1.6864-0.4629 2.0957 0.8643-1.8237 1.1058-3.2329 0.9863-4.3438zm-5.1113 7.6562c0 1.6569-1.7909 3-4 3-1.9811 0-3.6132-1.0821-3.9316-2.5-0.03667 0.1632-0.06836 0.3289-0.06836 0.5 0 1.6569 1.7909 3 4 3 2.2091 0 4-1.3431 4-3v-1z" opacity=".45"/>
 <path id="path20" d="m12 2v1h1s0.3438 1.0312 1.8438 2.1562c1.0115 0.75864 3.006 1.7568 3.2675 4.1875 0.2477-3.167-2.1283-4.333-3.2675-5.1875-1.5-1.125-1.8438-2.1562-1.8438-2.1562h-1zm5.6133 8.3281c-0.0671 0.9987-0.3277 1.9098-0.4883 2.3594 0.1821-0.3843 0.3335-0.747 0.4629-1.0957 0.043-0.4112 0.0709-0.833 0.0254-1.2637zm-8.6133 3.6719c-2.2091 0-4 1.3431-4 3 0 0.1711 0.03169 0.3368 0.06836 0.5 0.31849-1.4179 1.9506-2.5 3.9316-2.5 1.1997 0 2.2668 0.404 3 1.0312v-1c-0.7332-0.6272-1.8003-1.0312-3-1.0312z" fill="#fff" opacity=".6"/>
</svg>
