<?xml version="1.0" encoding="UTF-8"?>
<svg id="svg2" width="22" height="22" version="1.0" xmlns="http://www.w3.org/2000/svg" xmlns:cc="http://creativecommons.org/ns#" xmlns:dc="http://purl.org/dc/elements/1.1/" xmlns:rdf="http://www.w3.org/1999/02/22-rdf-syntax-ns#" xmlns:xlink="http://www.w3.org/1999/xlink">
 <defs id="defs4">
  <linearGradient id="linearGradient3828">
   <stop id="stop3830" stop-color="#fff" offset="0"/>
   <stop id="stop3832" stop-color="#fff" stop-opacity="0" offset="1"/>
  </linearGradient>
  <linearGradient id="linearGradient3335" x1="11.375" x2="11.375" y1="22" y2="-9.8173" gradientUnits="userSpaceOnUse">
   <stop id="stop3330" offset="0"/>
   <stop id="stop3333" stop-opacity="0" offset="1"/>
  </linearGradient>
  <linearGradient id="linearGradient3181" x1="-3.0608" x2="-3.0608" y1="27.258" y2="7.2537" gradientTransform="translate(11.119 -6.2582)" gradientUnits="userSpaceOnUse">
   <stop id="stop3189-4" stop-color="#30475c" offset="0"/>
   <stop id="stop3191-8" stop-color="#6588af" offset="1"/>
  </linearGradient>
  <filter id="filter3194" x="-.18" y="-.18" width="1.36" height="1.36" color-interpolation-filters="sRGB">
   <feGaussianBlur id="feGaussianBlur3196" stdDeviation="1.2"/>
  </filter>
  <clipPath id="clipPath2849">
   <rect id="rect2851" x="1" y="1" width="20" height="20" rx="2" ry="2" fill="#fff" fill-rule="evenodd"/>
  </clipPath>
  <linearGradient id="linearGradient3793-7">
   <stop id="stop3795-0" stop-color="#ffb100" offset="0"/>
   <stop id="stop3797-4" stop-color="#ffb100" stop-opacity="0" offset="1"/>
  </linearGradient>
  <filter id="filter3801-8" x="-.21708" y="-.26833" width="1.4342" height="1.5367" color-interpolation-filters="sRGB">
   <feGaussianBlur id="feGaussianBlur3803-0" stdDeviation="4.3125"/>
  </filter>
  <linearGradient id="linearGradient3740-0" x1="50.714" x2="59.526" y1="32.607" y2="65.416" gradientUnits="userSpaceOnUse">
   <stop id="stop3736-0" stop-color="#cbf44b" offset="0"/>
   <stop id="stop3738-1" stop-color="#cbf44b" stop-opacity="0" offset="1"/>
  </linearGradient>
  <linearGradient id="linearGradient3914" x1="44.821" x2="45.001" y1="54.036" y2="84.291" gradientUnits="userSpaceOnUse" xlink:href="#linearGradient3793-7"/>
  <clipPath id="clipPath3819">
   <path id="path3821" d="m19.486 69.407 11.05-11.8 8.4004 7.7012 6.0714-15.031 10.366 21.997 13.232-6.7819 4.9912 3.7374 12.677 3.2608 1.5832 32.26-73.214-3.0357 4.8428-32.308z" fill="#fff"/>
  </clipPath>
  <linearGradient id="linearGradient3836" x1="8.531" x2="8.531" y1="17.903" y2="5.0035" gradientTransform="matrix(1 0 0 1.1538 0 -2.7692)" gradientUnits="userSpaceOnUse" xlink:href="#linearGradient3828"/>
  <linearGradient id="linearGradient3840" x1="8.531" x2="8.531" y1="17.903" y2="5.0035" gradientTransform="matrix(1 0 0 1.1538 5 -2.7692)" gradientUnits="userSpaceOnUse" xlink:href="#linearGradient3828"/>
  <filter id="filter3861" color-interpolation-filters="sRGB">
   <feGaussianBlur id="feGaussianBlur3863" stdDeviation="0.4"/>
  </filter>
  <linearGradient id="linearGradient3879" x1="44.821" x2="45.181" y1="54.036" y2="87.348" gradientUnits="userSpaceOnUse" xlink:href="#linearGradient3793-7"/>
  <clipPath id="clipPath3883">
   <path id="path3885" d="m15.709 65.091 17.524 6.3632 11.774-21.177 10.366 21.997 13.232-6.7819 19.107 10.775 0.14458 28.483-73.214-3.0357 1.0664-36.624z" fill="#fff"/>
  </clipPath>
  <clipPath id="clipPath3888">
   <path id="path3890" d="m15.37 46.093 11.314 10.16 23.492-22.189 5.7244 5.3534 12.135-17.88 16.247 17.494 0.18108 73.219-71.429-5.8929 2.334-60.264z" fill="#fff"/>
  </clipPath>
  <filter id="filter3892" x="-.20008" y="-.16358" width="1.4002" height="1.3272" color-interpolation-filters="sRGB">
   <feGaussianBlur id="feGaussianBlur3894" stdDeviation="3.7366071"/>
  </filter>
  <linearGradient id="linearGradient3730" x1="15.457" x2="19.727" y1="12.691" y2="12.691" gradientUnits="userSpaceOnUse">
   <stop id="stop3726" stop-color="#ffc000" offset="0"/>
   <stop id="stop3728" stop-color="#ffc000" stop-opacity="0" offset="1"/>
  </linearGradient>
  <linearGradient id="linearGradient3739" x1="15.514" x2="19.86" y1="7.5828" y2="7.5828" gradientUnits="userSpaceOnUse">
   <stop id="stop3734" stop-color="#cbf44b" offset="0"/>
   <stop id="stop3737" stop-color="#cbf44b" stop-opacity="0" offset="1"/>
  </linearGradient>
  <linearGradient id="linearGradient3845-3" x1="11" x2="21" y1="19.5" y2="19.5" gradientUnits="userSpaceOnUse" spreadMethod="reflect">
   <stop id="stop3833-5" stop-color="#fff" offset="0"/>
   <stop id="stop3821" stop-color="#fff" stop-opacity=".49804" offset=".75"/>
   <stop id="stop3835-9" stop-color="#fff" stop-opacity="0" offset="1"/>
  </linearGradient>
  <linearGradient id="linearGradient3852" x1="10" x2="10" y1="1" y2="16" gradientUnits="userSpaceOnUse">
   <stop id="stop3825" stop-color="#fff" offset="0"/>
   <stop id="stop3829" stop-color="#fff" stop-opacity="0" offset="1"/>
  </linearGradient>
 </defs>
 <metadata id="metadata7">
  <rdf:RDF>
   <cc:Work rdf:about="">
    <dc:format>image/svg+xml</dc:format>
    <dc:type rdf:resource="http://purl.org/dc/dcmitype/StillImage"/>
   </cc:Work>
  </rdf:RDF>
 </metadata>
 <g id="layer1">
  <g id="g3337">
   <rect id="rect3371" x=".5" y=".5" width="21" height="21.5" rx="2.5" ry="2.5" fill="url(#linearGradient3335)" opacity=".3"/>
   <rect id="rect2553" x="1" y="2" width="20" height="20" rx="2.381" ry="2.3256" opacity=".5"/>
  </g>
  <rect id="rect3173" x="1" y="1" width="20" height="20" rx="2" ry="2" fill="url(#linearGradient3181)" fill-rule="evenodd"/>
  <path id="rect3050" d="m3 1c-1.108 0-2 0.892-2 2v16c0 1.108 0.892 2 2 2h16c1.108 0 2-0.892 2-2v-16c0-1.108-0.892-2-2-2h-16zm0 1.0312h16c0.5497 0 0.96875 0.41905 0.96875 0.96875v16c0 0.5497-0.41905 0.96875-0.96875 0.96875h-16c-0.5497 0-0.96875-0.41905-0.96875-0.96875v-16c0-0.5497 0.41905-0.96875 0.96875-0.96875z" fill="url(#linearGradient3852)" fill-rule="evenodd" opacity=".3"/>
  <path id="path3235" d="m3 21c-1.108 0-2-0.892-2-2v-1c0 1.108 0.892 2 2 2h16c1.108 0 2-0.892 2-2v1c0 1.108-0.892 2-2 2h-16z" fill="url(#linearGradient3845-3)" fill-rule="evenodd" opacity=".15"/>
 </g>
 <g id="layer4">
  <path id="rect3842" d="m4.5 3.5-1.5 3h1v11 1h1 11v1l3-1.5-3-1.5v1h-11v-11h1l-1.5-3z" filter="url(#filter3861)" opacity=".6"/>
  <rect id="rect3838" x="13" y="3" width="1" height="15" fill="url(#linearGradient3840)" opacity=".2"/>
  <rect id="rect3648" x="8" y="3" width="1" height="15" fill="url(#linearGradient3836)" opacity=".2"/>
  <rect id="rect3638" x="4" y="4" width="1" height="14" fill="#c8d5e5"/>
  <rect id="rect3640" transform="rotate(90)" x="17" y="-18" width="1" height="14" fill="#c8d5e5"/>
  <path id="path3644" transform="matrix(.90633 0 0 1.0465 1.4576 2.1304)" d="m5.0119 3.6976h-1.655-1.655l1.655-2.8666 1.655 2.8666z" fill="#c8d5e5"/>
  <path id="path3646" transform="matrix(0 .90633 -1.0465 0 19.87 14.458)" d="m5.0119 3.6976h-1.655-1.655l1.655-2.8666 1.655 2.8666z" fill="#c8d5e5"/>
  <path id="rect3714" d="m3 8v1h1v-1h-1zm0 3v1h1v-1h-1zm0 3v1h1v-1h-1zm0 3v1h1v-1h-1z" fill="#fff" opacity=".2"/>
 </g>
 <g id="layer2">
  <rect id="rect2410" x="3" y="3" width="16" height="16" rx="2" ry="2" clip-path="url(#clipPath2849)" fill="#fff" filter="url(#filter3194)" opacity=".1"/>
 </g>
 <g id="layer3">
  <path id="path3251" d="m36.671 5.5251-1.4651-1.5108-2.4584 2.7607-0.80799-1.0598-1.6818 2.8206-1.7417 0.22892-1.8728 1.1442" fill="none" stroke="#cbf44b" stroke-linecap="round"/>
  <path id="path3231" d="m36.671 13.833-1.1027 0.29236-1.2017-1.0555-2.0226 1.3876-1.6183-3.2203-1.2144 1.9483-1.3996-0.80577-1.4685 1.072" fill="none" stroke="#ffb100" stroke-linecap="round"/>
  <rect id="rect3762" transform="matrix(.17368 0 0 .17368 22.726 2.0163)" x="25.536" y="40.464" width="47.679" height="38.571" clip-path="url(#clipPath3819)" fill="url(#linearGradient3914)" filter="url(#filter3801-8)" opacity=".3"/>
  <rect id="rect3720" transform="matrix(.17368 0 0 .17368 2.8821 .71443)" x="20.674" y="14.917" width="54.352" height="64.173" ry="0" clip-path="url(#clipPath3888)" fill="url(#linearGradient3740-0)" filter="url(#filter3892)" opacity=".4"/>
  <rect id="rect3877" transform="matrix(.17368 0 0 .17368 2.7259 2.0163)" x="25.536" y="40.464" width="50.915" height="40.19" clip-path="url(#clipPath3883)" fill="url(#linearGradient3879)" filter="url(#filter3801-8)" opacity=".4"/>
  <path id="path3740" d="m6.3107 9.4442 1.3806 1.1045 3.7702-3.8776 1.0654 0.94019 2.1332-2.9945 2.5854 3.1009 2.4099-0.55867" fill="none" stroke="url(#linearGradient3739)" stroke-linecap="round" stroke-width=".85"/>
  <path id="path3761" d="m6.3495 13.428 2.1556 1.0581 2.0755-3.7553 1.7637 3.7267 2.1551-1.0784 2.0965 1.2727 3.1037-3.2078" fill="none" stroke="url(#linearGradient3730)" stroke-linecap="round" stroke-width=".85"/>
 </g>
</svg>
