<?xml version="1.0" encoding="UTF-8"?>
<svg id="svg2" width="24" height="24" version="1.0" xmlns="http://www.w3.org/2000/svg" xmlns:cc="http://creativecommons.org/ns#" xmlns:dc="http://purl.org/dc/elements/1.1/" xmlns:rdf="http://www.w3.org/1999/02/22-rdf-syntax-ns#" xmlns:xlink="http://www.w3.org/1999/xlink">
 <defs id="defs4">
  <linearGradient id="linearGradient4315">
   <stop id="stop4317" stop-color="#fff" offset="0"/>
   <stop id="stop4319" stop-color="#fff" stop-opacity="0" offset="1"/>
  </linearGradient>
  <linearGradient id="linearGradient4213">
   <stop id="stop4215" stop-color="#989898" offset="0"/>
   <stop id="stop4217" stop-color="#e3e3e3" offset="1"/>
  </linearGradient>
  <linearGradient id="linearGradient3335" x1="11.4" x2="11.4" y1="22" y2="-9.82" gradientUnits="userSpaceOnUse">
   <stop id="stop3330" offset="0"/>
   <stop id="stop3333" stop-opacity="0" offset="1"/>
  </linearGradient>
  <linearGradient id="linearGradient3181" x1="-3.06" x2="-3.06" y1="27.3" y2="7.25" gradientTransform="translate(12.1 -7.26)" gradientUnits="userSpaceOnUse">
   <stop id="stop3643" stop-color="#b4b4b4" offset="0"/>
   <stop id="stop3645" stop-color="#dcdcdc" offset="1"/>
  </linearGradient>
  <filter id="filter3194" x="-.18" y="-.18" width="1.36" height="1.36" color-interpolation-filters="sRGB">
   <feGaussianBlur id="feGaussianBlur3196" stdDeviation="1.2"/>
  </filter>
  <clipPath id="clipPath2849">
   <rect id="rect2851" x="1" y="1" width="20" height="20" rx="2" ry="2" fill="#fff" fill-rule="evenodd"/>
  </clipPath>
  <linearGradient id="linearGradient4227" x1="5" x2="9" y1="5" y2="5" gradientTransform="translate(-12,7)" gradientUnits="userSpaceOnUse" xlink:href="#linearGradient4213"/>
  <linearGradient id="linearGradient4233" x1="5" x2="9" y1="5" y2="5" gradientTransform="translate(-12,12)" gradientUnits="userSpaceOnUse" xlink:href="#linearGradient4213"/>
  <linearGradient id="linearGradient4273" x1="5" x2="9" y1="5" y2="5" gradientTransform="translate(-22,3)" gradientUnits="userSpaceOnUse" xlink:href="#linearGradient4213"/>
  <linearGradient id="linearGradient4279" x1="5" x2="9" y1="5" y2="5" gradientTransform="translate(-12,2)" gradientUnits="userSpaceOnUse" xlink:href="#linearGradient4213"/>
  <linearGradient id="linearGradient4321" x1="6" x2="9" y1="5" y2="5" gradientTransform="translate(-12,-12)" gradientUnits="userSpaceOnUse" xlink:href="#linearGradient4315"/>
  <linearGradient id="linearGradient4325" x1="5" x2="9" y1="5" y2="5" gradientTransform="translate(-17,9)" gradientUnits="userSpaceOnUse" xlink:href="#linearGradient4213"/>
  <linearGradient id="linearGradient4329" x1="5" x2="9" y1="5" y2="5" gradientTransform="translate(-17,4)" gradientUnits="userSpaceOnUse" xlink:href="#linearGradient4213"/>
  <linearGradient id="linearGradient4333" x1="5" x2="9" y1="5" y2="5" gradientTransform="translate(-22,11)" gradientUnits="userSpaceOnUse" xlink:href="#linearGradient4213"/>
  <linearGradient id="linearGradient4337" x1="6" x2="9" y1="5" y2="5" gradientTransform="translate(-12,-22)" gradientUnits="userSpaceOnUse" xlink:href="#linearGradient4315"/>
  <linearGradient id="linearGradient4341" x1="6" x2="9" y1="5" y2="5" gradientTransform="translate(-12,-17)" gradientUnits="userSpaceOnUse" xlink:href="#linearGradient4315"/>
  <linearGradient id="linearGradient4345" x1="6" x2="9" y1="5" y2="5" gradientTransform="translate(-17,-14)" gradientUnits="userSpaceOnUse" xlink:href="#linearGradient4315"/>
  <linearGradient id="linearGradient4349" x1="6" x2="9" y1="5" y2="5" gradientTransform="translate(-17,-19)" gradientUnits="userSpaceOnUse" xlink:href="#linearGradient4315"/>
  <linearGradient id="linearGradient4353" x1="6" x2="9" y1="5" y2="5" gradientTransform="translate(-22,-21)" gradientUnits="userSpaceOnUse" xlink:href="#linearGradient4315"/>
  <linearGradient id="linearGradient4357" x1="6" x2="9" y1="5" y2="5" gradientTransform="translate(-22,-16)" gradientUnits="userSpaceOnUse" xlink:href="#linearGradient4315"/>
  <linearGradient id="linearGradient3845" x1="11" x2="21" y1="19.5" y2="19.5" gradientTransform="translate(1,-1)" gradientUnits="userSpaceOnUse" spreadMethod="reflect">
   <stop id="stop3833" stop-color="#fff" offset="0"/>
   <stop id="stop3821" stop-color="#fff" stop-opacity=".498" offset=".75"/>
   <stop id="stop3835" stop-color="#fff" stop-opacity="0" offset="1"/>
  </linearGradient>
  <linearGradient id="linearGradient3078" x1="10" x2="10" y1="1" y2="16" gradientTransform="translate(1,-1)" gradientUnits="userSpaceOnUse">
   <stop id="stop3825" stop-color="#fff" offset="0"/>
   <stop id="stop3829" stop-color="#fff" stop-opacity="0" offset="1"/>
  </linearGradient>
 </defs>
 <metadata id="metadata7">
  <rdf:RDF>
   <cc:Work rdf:about="">
    <dc:format>image/svg+xml</dc:format>
    <dc:type rdf:resource="http://purl.org/dc/dcmitype/StillImage"/>
    <dc:title/>
   </cc:Work>
  </rdf:RDF>
 </metadata>
 <g id="layer1" transform="translate(0,2)">
  <g id="g3337" transform="translate(1,-1)">
   <rect id="rect3371" x=".5" y=".5" width="21" height="21.5" rx="2.5" ry="2.5" fill="url(#linearGradient3335)" opacity=".3"/>
   <rect id="rect2553" x="1" y="2" width="20" height="20" rx="2.38" ry="2.33" opacity=".5"/>
  </g>
  <rect id="rect3173" x="2" width="20" height="20" rx="2" ry="2" fill="url(#linearGradient3181)" fill-rule="evenodd" opacity=".96"/>
  <path id="rect3050" d="m4 0c-1.11 0-2 0.892-2 2v16c0 1.11 0.892 2 2 2h16c1.11 0 2-0.892 2-2v-16c0-1.11-0.892-2-2-2h-16zm0 1.03h16c0.55 0 0.969 0.419 0.969 0.969v16c0 0.55-0.419 0.969-0.969 0.969h-16c-0.55 0-0.969-0.419-0.969-0.969v-16c0-0.55 0.419-0.969 0.969-0.969z" fill="url(#linearGradient3078)" fill-rule="evenodd" opacity=".6"/>
  <path id="path3235" d="m4 20c-1.11 0-2-0.892-2-2v-1c0 1.11 0.892 2 2 2h16c1.11 0 2-0.892 2-2v1c0 1.11-0.892 2-2 2h-16z" fill="url(#linearGradient3845)" fill-rule="evenodd" opacity=".35"/>
 </g>
 <g id="layer2" transform="translate(0,2)">
  <rect id="rect2410" transform="translate(1,-1)" x="3" y="3" width="16" height="16" rx="2" ry="2" clip-path="url(#clipPath2849)" fill="#fff" filter="url(#filter3194)" opacity=".5"/>
 </g>
 <g id="layer3" transform="translate(0,2)">
  <path id="rect4302" transform="translate(0,-2)" d="m5 4c-0.554 0-1 0.446-1 1v4c0 0.554 0.446 1 1 1h1v4c-0.554 0-1 0.446-1 1v4c0 0.554 0.446 1 1 1h12c0.554 0 1-0.446 1-1v-4c0-0.554-0.446-1-1-1h-1v-4h2c0.554 0 1-0.446 1-1v-4c0-0.554-0.446-1-1-1h-14z" color="#000000" opacity=".5"/>
  <rect id="rect3416" transform="rotate(-90)" x="-7" y="5" width="4" height="4" rx=".5" ry=".5" color="#000000" fill="url(#linearGradient4279)"/>
  <rect id="rect4221" transform="matrix(0,-1,-1,0,0,0)" x="-6" y="-8" width="2" height="2" rx=".25" ry=".25" color="#000000" fill="url(#linearGradient4321)"/>
  <rect id="rect4223" transform="rotate(-90)" x="-7" y="10" width="4" height="4" rx=".5" ry=".5" color="#000000" fill="url(#linearGradient4227)"/>
  <rect id="rect4229" transform="rotate(-90)" x="-7" y="15" width="4" height="4" rx=".5" ry=".5" color="#000000" fill="url(#linearGradient4233)"/>
  <rect id="rect4241" transform="rotate(-90)" x="-12" y="7" width="4" height="4" rx=".5" ry=".5" color="#000000" fill="url(#linearGradient4329)"/>
  <rect id="rect4249" transform="rotate(-90)" x="-12" y="12" width="4" height="4" rx=".5" ry=".5" color="#000000" fill="url(#linearGradient4325)"/>
  <rect id="rect4257" transform="rotate(-90)" x="-17" y="6" width="4" height="7" rx=".5" ry=".5" color="#000000" fill="url(#linearGradient4273)"/>
  <rect id="rect4265" transform="rotate(-90)" x="-17" y="14" width="4" height="4" rx=".5" ry=".5" color="#000000" fill="url(#linearGradient4333)"/>
  <path id="rect4281" transform="translate(0,-2)" d="m5 8.5v1c0 0.277 0.223 0.5 0.5 0.5h3c0.277 0 0.5-0.223 0.5-0.5v-1c0 0.277-0.223 0.5-0.5 0.5h-3c-0.277 0-0.5-0.223-0.5-0.5zm5 0v1c0 0.277 0.223 0.5 0.5 0.5h3c0.277 0 0.5-0.223 0.5-0.5v-1c0 0.277-0.223 0.5-0.5 0.5h-3c-0.277 0-0.5-0.223-0.5-0.5zm5 0v1c0 0.277 0.223 0.5 0.5 0.5h3c0.277 0 0.5-0.223 0.5-0.5v-1c0 0.277-0.223 0.5-0.5 0.5h-3c-0.277 0-0.5-0.223-0.5-0.5zm-8 5v1c0 0.277 0.223 0.5 0.5 0.5h3c0.277 0 0.5-0.223 0.5-0.5v-1c0 0.277-0.223 0.5-0.5 0.5h-3c-0.277 0-0.5-0.223-0.5-0.5zm5 0v1c0 0.277 0.223 0.5 0.5 0.5h3c0.277 0 0.5-0.223 0.5-0.5v-1c0 0.277-0.223 0.5-0.5 0.5h-3c-0.277 0-0.5-0.223-0.5-0.5zm-6 5v1c0 0.277 0.223 0.5 0.5 0.5h6c0.277 0 0.5-0.223 0.5-0.5v-1c0 0.277-0.223 0.5-0.5 0.5h-6c-0.277 0-0.5-0.223-0.5-0.5zm8 0v1c0 0.277 0.223 0.5 0.5 0.5h3c0.277 0 0.5-0.223 0.5-0.5v-1c0 0.277-0.223 0.5-0.5 0.5h-3c-0.277 0-0.5-0.223-0.5-0.5z" color="#000000" opacity=".6"/>
  <path id="path4310" transform="translate(0,-2)" d="m4 9v1c0 0.554 0.446 1 1 1h1v-1h-1c-0.554 0-1-0.446-1-1zm16 0c0 0.554-0.446 1-1 1h-2v1h2c0.554 0 1-0.446 1-1v-1zm-15 10v1c0 0.554 0.446 1 1 1h12c0.554 0 1-0.446 1-1v-1c0 0.554-0.446 1-1 1h-12c-0.554 0-1-0.446-1-1z" color="#000000" fill="#fff" opacity=".6"/>
  <rect id="rect4335" transform="matrix(0,-1,-1,0,0,0)" x="-6" y="-18" width="2" height="2" rx=".25" ry=".25" color="#000000" fill="url(#linearGradient4337)"/>
  <rect id="rect4339" transform="matrix(0,-1,-1,0,0,0)" x="-6" y="-13" width="2" height="2" rx=".25" ry=".25" color="#000000" fill="url(#linearGradient4341)"/>
  <rect id="rect4343" transform="matrix(0,-1,-1,0,0,0)" x="-11" y="-10" width="2" height="2" rx=".25" ry=".25" color="#000000" fill="url(#linearGradient4345)"/>
  <rect id="rect4347" transform="matrix(0,-1,-1,0,0,0)" x="-11" y="-15" width="2" height="2" rx=".25" ry=".25" color="#000000" fill="url(#linearGradient4349)"/>
  <rect id="rect4351" transform="matrix(0,-1,-1,0,0,0)" x="-16" y="-17" width="2" height="2" rx=".25" ry=".25" color="#000000" fill="url(#linearGradient4353)"/>
  <rect id="rect4355" transform="matrix(0,-1,-1,0,0,0)" x="-16" y="-12" width="2" height="5" rx=".25" ry=".25" color="#000000" fill="url(#linearGradient4357)"/>
  <rect id="rect4360" transform="translate(0,-2)" x="6" y="6" width="1" height="1" color="#000000" opacity=".3"/>
  <rect id="rect4364" x="11" y="4" width="1" height="1" color="#000000" opacity=".4"/>
  <rect id="rect4366" x="16" y="4" width="1" height="1" color="#000000" opacity=".3"/>
  <rect id="rect4368" x="13" y="9" width="1" height="1" color="#000000" opacity=".3"/>
  <rect id="rect4370" x="8" y="9" width="1" height="1" color="#000000" opacity=".3"/>
  <rect id="rect4372" x="7" y="14" width="1" height="1" color="#000000" opacity=".5"/>
  <rect id="rect4374" x="8" y="14" width="1" height="1" color="#000000" opacity=".3"/>
  <rect id="rect4376" x="9" y="14" width="1" height="1" color="#000000" opacity=".4"/>
  <rect id="rect4378" x="15" y="14" width="1" height="1" color="#000000" opacity=".3"/>
 </g>
</svg>
