<?xml version="1.0" encoding="UTF-8"?>
<svg id="svg2" width="24" height="24" version="1.0" xmlns="http://www.w3.org/2000/svg" xmlns:cc="http://creativecommons.org/ns#" xmlns:dc="http://purl.org/dc/elements/1.1/" xmlns:rdf="http://www.w3.org/1999/02/22-rdf-syntax-ns#" xmlns:xlink="http://www.w3.org/1999/xlink">
 <defs id="defs4">
  <filter id="filter3342" x="-.294" y="-.589" width="1.59" height="2.18" color-interpolation-filters="sRGB">
   <feGaussianBlur id="feGaussianBlur3344" stdDeviation="2.2029067"/>
  </filter>
  <linearGradient id="linearGradient5226">
   <stop id="stop5228" stop-color="#fff" offset="0"/>
   <stop id="stop5230" stop-color="#fff" stop-opacity=".414" offset="1"/>
  </linearGradient>
  <radialGradient id="radialGradient3180" cx="64" cy="61.9" r="58" gradientTransform="matrix(.26 0 0 .2 -4.58 -2.71)" gradientUnits="userSpaceOnUse" xlink:href="#linearGradient5226"/>
  <radialGradient id="radialGradient4102" cx="63.9" cy="2.22" r="58.4" gradientTransform="matrix(.196 0 0 .0802 -.494 6.39)" gradientUnits="userSpaceOnUse" xlink:href="#linearGradient5226"/>
  <radialGradient id="radialGradient4111" cx="65.2" cy="63.2" r="43.8" gradientTransform="matrix(.302 .00388 -.00321 .25 -7.17 -6.61)" gradientUnits="userSpaceOnUse" xlink:href="#linearGradient5226"/>
  <radialGradient id="radialGradient4114" cx="49.2" cy="70.6" r="25.5" gradientTransform="matrix(-.161 .046 .132 .399 6.01 -21.4)" gradientUnits="userSpaceOnUse" xlink:href="#linearGradient5226"/>
  <linearGradient id="linearGradient3216" x1="-6.44" x2="-6.44" y1="25.1" y2="5.06" gradientTransform="translate(17.9 -5.06)" gradientUnits="userSpaceOnUse">
   <stop id="stop3702-0-2-3" stop-color="#285178" offset="0"/>
   <stop id="stop3704-4-9-9" stop-color="#4f759a" offset="1"/>
  </linearGradient>
  <linearGradient id="linearGradient7424" x1="11.4" x2="11.4" y1="22" y2="-9.82" gradientTransform="translate(1,-1)" gradientUnits="userSpaceOnUse">
   <stop id="stop3330" offset="0"/>
   <stop id="stop3333" stop-opacity="0" offset="1"/>
  </linearGradient>
  <clipPath id="clipPath2849">
   <rect id="rect2851" x="1" y="1" width="20" height="20" rx="2" ry="2" fill="#fff" fill-rule="evenodd"/>
  </clipPath>
  <filter id="filter3194" x="-.18" y="-.18" width="1.36" height="1.36" color-interpolation-filters="sRGB">
   <feGaussianBlur id="feGaussianBlur3196" stdDeviation="1.2"/>
  </filter>
  <linearGradient id="linearGradient3845" x1="11" x2="21" y1="19.5" y2="19.5" gradientTransform="translate(1,-1)" gradientUnits="userSpaceOnUse" spreadMethod="reflect">
   <stop id="stop3833" stop-color="#fff" offset="0"/>
   <stop id="stop3821" stop-color="#fff" stop-opacity=".498" offset=".75"/>
   <stop id="stop3835" stop-color="#fff" stop-opacity="0" offset="1"/>
  </linearGradient>
  <linearGradient id="linearGradient3852" x1="10" x2="10" y1="1" y2="16" gradientTransform="translate(1,-1)" gradientUnits="userSpaceOnUse">
   <stop id="stop3825" stop-color="#fff" offset="0"/>
   <stop id="stop3829" stop-color="#fff" stop-opacity="0" offset="1"/>
  </linearGradient>
  <linearGradient id="linearGradient4191" x1="10" x2="14" y1="9.5" y2="9.5" gradientTransform="matrix(-1.67 0 0 1.67 32 -5.33)" gradientUnits="userSpaceOnUse">
   <stop id="stop3979" stop-color="#cbcbcb" offset="0"/>
   <stop id="stop3981" stop-color="#efefef" offset="1"/>
  </linearGradient>
  <linearGradient id="linearGradient3161" x1="48" x2="60" y1="41" y2="41" gradientTransform="matrix(.417 0 0 .417 -8 -5.33)" gradientUnits="userSpaceOnUse" spreadMethod="reflect">
   <stop id="stop3958" stop-color="#e6c94c" offset="0"/>
   <stop id="stop3966" stop-color="#e7ce5f" offset=".578"/>
   <stop id="stop3960" stop-color="#f0de93" offset=".833"/>
   <stop id="stop3962" stop-color="#d0b64c" offset=".917"/>
   <stop id="stop3964" stop-color="#907d2e" offset="1"/>
  </linearGradient>
  <linearGradient id="linearGradient3957" x1="13" x2="13" y1="8" y2="7" gradientTransform="matrix(1.67 0 0 1.67 -8 -2)" gradientUnits="userSpaceOnUse">
   <stop id="stop4197" offset="0"/>
   <stop id="stop4199" stop-opacity="0" offset="1"/>
  </linearGradient>
 </defs>
 <metadata id="metadata7">
  <rdf:RDF>
   <cc:Work rdf:about="">
    <dc:format>image/svg+xml</dc:format>
    <dc:type rdf:resource="http://purl.org/dc/dcmitype/StillImage"/>
    <dc:title/>
   </cc:Work>
  </rdf:RDF>
 </metadata>
 <g id="layer1" transform="translate(0,2)">
  <rect id="rect3371" x="1.5" y="-.5" width="21" height="21.5" rx="2.5" ry="2.5" fill="url(#linearGradient7424)" opacity=".3"/>
  <rect id="rect2553" x="2" y="1" width="20" height="20" rx="2.38" ry="2.33" opacity=".5"/>
  <rect id="rect3200" transform="matrix(.882 0 0 .882 1.3 1.29)" x="2" y="1.98" width="18" height="8.97" rx="2" ry="2" fill="#fff" filter="url(#filter3342)" opacity=".1"/>
  <rect id="rect3207" x="2" width="20" height="20" rx="2" ry="2" fill="url(#linearGradient3216)" fill-rule="evenodd"/>
  <path id="rect3050" d="m4 0c-1.11 0-2 0.892-2 2v16c0 1.11 0.892 2 2 2h16c1.11 0 2-0.892 2-2v-16c0-1.11-0.892-2-2-2h-16zm0 1.03h16c0.55 0 0.969 0.419 0.969 0.969v16c0 0.55-0.419 0.969-0.969 0.969h-16c-0.55 0-0.969-0.419-0.969-0.969v-16c0-0.55 0.419-0.969 0.969-0.969z" fill="url(#linearGradient3852)" fill-rule="evenodd" opacity=".3"/>
  <path id="path3235" d="m4 20c-1.11 0-2-0.892-2-2v-1c0 1.11 0.892 2 2 2h16c1.11 0 2-0.892 2-2v1c0 1.11-0.892 2-2 2h-16z" fill="url(#linearGradient3845)" fill-rule="evenodd" opacity=".15"/>
 </g>
 <g id="layer2" transform="translate(0,2)">
  <rect id="rect2410" transform="translate(1,-1)" x="3" y="3" width="16" height="16" rx="2" ry="2" clip-path="url(#clipPath2849)" fill="#fff" filter="url(#filter3194)" opacity=".15"/>
 </g>
 <g id="layer4" transform="translate(0,2)">
  <path id="path3175" d="m9.24 0.0528c0.29 0.535 0.177 1.3 0.661 1.6-0.539 0.0958 0.482 0.411-0.0755 0.761-0.0586 0.499 0.00653 1.73 0.873 1.93 0.201-0.828 0.641-1.47 1.44-1.87 0.539-0.354 1.02-0.529 0.279-0.851 0.0946-0.576 0.951 0.528 0.463-0.325-0.344-0.406-0.632-0.582 0.0944-0.602 0.956-0.763-0.802-0.711-1.34-0.645h-2.39zm-6.62 0.345c-0.656 0.0997-0.503 1.64 0.0369 0.665 0.25-0.237 0.56-0.665-0.0369-0.665zm2.73 0.0485c-0.518 0.667 0.453 0.797 0.359 0.0944-0.094-0.0892-0.241-0.0801-0.359-0.0944zm0.84 0.118c-0.818 0.531 8.68e-5 1.59 0.828 1.28 0.623 0.335 0.86 1.2 0.095 1.59 0.399-0.407 1.22 0.988 1.06 0.246 0.921 0.397-0.548-1.19 0.361-0.51 0.824-0.162-0.632-0.728-0.315-1.21-0.371-0.419-0.884-1.08-1.44-0.816-0.0118-0.949-0.583-0.313-0.473 0.259-0.24-0.261-0.0189-0.611-0.109-0.838zm-1.32 0.00539c-0.927 0.514 0.669 1.2 0.128 0.112l-0.0588-0.0749-0.0693-0.0371-2e-7 1e-7zm-1.7 0.189c-0.659 0.0525-0.0899 0.739-0.304 0.831 0.437 0.118 0.856 0.143 0.151 0.336 0.218 0.591 2.15 0.392 1.3-0.499-0.121-0.393-0.481-0.98-0.442-0.198-0.133-0.607-0.42 0.152-0.709-0.469zm18 0.0592c-0.775 0.313 0.563 1.38 0.16 0.277 0.0144-0.1 0.0062-0.332-0.16-0.277zm-15.9 0.452c-0.408 0.314 0.569 1.43-0.209 1.19-0.7 0.031-1.59 0.279-2.26-0.277-1.14-0.931-0.709 1.02-0.776 1.63-0.138 0.805 0.196 2.68 0.0364 2.64-0.044 1.05 0.302 1.94 1.01 2.66 0.0903 0.34 0.888 1.15 0.34 0.329-0.431-1.2 0.646 0.973 1.12 1.03 0.81 0.472 2.04 0.779 2.54 1.37-0.415 0.841-0.369 1.68 0.426 2.28 0.847 0.779 0.0318 1.84 0.102 2.77-0.0719 0.726-0.436 2.27 0.444 2.35 0.187-0.761 0.136-1.99 0.976-2.3 0.355-0.657 0.985-0.933 1.33-1.72 0.685-0.448 1.28-1.38 1.12-2.23-0.578-0.506-1.61-0.151-1.73-1.05-0.753-0.382-1.63-1.04-2.49-0.572-0.835 0.469-1.14-1.27-1.39-1.13-1.48 0.535-0.784-1.72 0.371-1.13 0.517 0.0741 0.644 0.978 0.529 0.0861 0.247-0.829 0.9-1.78 1.64-2.14-0.157 0.606 0.987-0.501 0.233-0.158 0.0678-0.705-1.24-0.171-0.283-0.592 0.933 0.00691 1.29-0.639 0.478-1.21-0.0864-0.299-0.393-0.845-0.662-0.358-0.122-0.924-1.51-1.1-1.01 0.0707 0.00676 0.412-0.251 1.68-0.507 0.77-0.711-0.405-1.88-0.999-0.957-1.9 0.2-0.619 1.6-1.04 0.697-1.72 0.0293 0.415-0.535 0.89-0.41 0.196-0.462 0.451-0.311-0.841-0.694-0.896zm13 0.334c-1.12 0.229-1.35 1.52-2.11 2.16-0.482 0.547 0.0312 1.17 0.476 1.1 0.117 1.25 0.909-0.6 0.794-1.11 0.0335-0.455 0.82-0.982 0.404-0.19-0.53 0.664 0.284 0.931 0.525 0.893-0.622 0.103-0.32 0.58-0.706 0.672-0.0733 0.683-1.46 0.637-1.21-0.173-0.111 0.83-0.774 1.18-1.46 1.61 0.596 0.615-0.0847 0.767-0.602 0.959-0.0787 1.16 1.07 0.627 1.36-0.0457 0.671-0.883 1.34 0.745 1.27 0.647 0.763-0.246-0.837-1.39 0.11-0.868 0.423 0.294 0.59 1.45 0.902 0.455-0.0056 0.736 1.67 0.411 0.965 1.19-0.75-0.0276-1.63 0.101-2.28-0.166-0.229-0.925-1.47-0.415-2.07-0.109-0.654 0.699-1.42 1.8-0.794 2.75 0.472 1.18 2.46-0.292 2.62 1.07 0.35 0.758 0.221 1.62 0.359 2.48 0.176 0.925 1.01 2.13 1.85 0.917 0.336-0.935 1.2-1.66 0.92-2.63 0.0814-0.716 1.32-1.42 1.1-1.9-0.981-0.0388-1.45-1.11-1.65-1.91 0.67 0.152 0.552 1.67 1.4 1.61 0.641-0.102 1.96-1.37 0.615-1.25-0.479-0.124-0.586-1.07-0.0454-0.327 1.48 0.819 0.968-1.39 1.04-2.2v-5.27c-0.507 0.548-1.23 0.261-1.77 0.736-0.141-0.858-0.317 0.775-0.915 0.645-0.112 0.596-0.751-1.02 0.0266-0.356 0.915-0.514-0.843-1.03-1.02-1.41l-0.103 0.00791 1e-6 -1e-7zm-8.63 0.21c-0.294 0.357 0.638 0.22 0 0zm-4.65 0.156c-0.377 0.425 0.615 0.279 0 0zm2.26 0.404c-0.324 0.422 0.435 0.18 0 0zm6.45 0.571c-0.336 0.282-1.2-0.0421-0.559 0.628 0.302 0.34 1.21-0.358 0.559-0.628zm-7.35 0.237c-0.619 0.568 1.07 0.526 0.139 0.0656-0.0462-0.0219-0.0924-0.0437-0.139-0.0656zm8.63 1.58c-0.35 0.393 0.103 1.08 0.025 1.47 1.16-0.148-4.49e-4 -0.928-0.025-1.47zm-0.318 0.619c-0.69 0.155-0.0406 1.06 0.0835 0.241 0.0079-0.0662 0.0352-0.235-0.0835-0.241zm-5.26 0.695c-0.933 0.42 0.768 1.12 0.143 0.316l-0.0995-0.152-0.0439-0.165h-1e-7zm11.5 0.7c0.0549 0.271-0.443 0.588 0.087 0.844 0.405 0.792-0.63 0.748-0.471 0.00807-0.254-0.442-0.183-0.812 0.384-0.852zm-1.57 0.00539c0.0596 0.361 0.719 1.08-0.113 0.835-0.666 0.373-1.29-0.607-0.448-0.664 0.513 0.34 0.124-0.172 0.561-0.171zm-3.03 0.883c-0.387 0.229 0.29 0.384 0 0zm-9.61 2.3c0.297 0.41 0.974 0.232 0.2 0.0424-0.0665-0.0141-0.133-0.0283-0.2-0.0424zm0.991 0.307c-0.316 0.428 0.748 0.0262 0 0zm12.9 3.6c-0.918-0.0221-0.601 2.16-0.115 0.799 0.069-0.254 0.236-0.534 0.115-0.799z" fill="url(#radialGradient3180)" opacity=".3"/>
 </g>
 <g id="layer3" transform="translate(0,2)">
  <path id="path3577" d="m2 10.2c6.52-4.7 16-5.64 19.8-0.303" fill="none" stroke="url(#radialGradient4102)"/>
  <path id="path3583" d="m6.15 0.196c-4.12 11.4 12.6 19.3 12.6 19.3" fill="none" stroke="url(#radialGradient4114)"/>
  <path id="path3581" d="m7.28 20c-0.246-3.76 6.92-14.8 14.5-16.7" fill="none" stroke="url(#radialGradient4111)"/>
  <path id="path4125" transform="matrix(.897 0 0 .897 .647 .0664)" d="m8.06 8.38c0 1-0.811 1.81-1.81 1.81s-1.81-0.811-1.81-1.81 0.811-1.81 1.81-1.81 1.81 0.811 1.81 1.81z" fill="#eeeeec" fill-rule="evenodd"/>
  <path id="path4127" transform="matrix(.903 0 0 .903 2.93 -.362)" d="m16.8 7.62c0 1.07-0.867 1.94-1.94 1.94s-1.94-0.867-1.94-1.94 0.867-1.94 1.94-1.94 1.94 0.867 1.94 1.94z" fill="#eeeeec" fill-rule="evenodd"/>
  <path id="path4129" transform="translate(.6 -5e-4)" d="m10.8 13.5c0 0.863-0.7 1.56-1.56 1.56-0.863 0-1.56-0.7-1.56-1.56s0.7-1.56 1.56-1.56c0.863 0 1.56 0.7 1.56 1.56z" fill="#eeeeec" fill-rule="evenodd"/>
 </g>
 <g id="layer5">
  <path id="path3876" d="m12 3.53c-2.73 0-4.97 2.24-4.97 4.97v1.59c-0.937 0.336-1.66 1.19-1.66 2.25v6.31c0 1.35 1.12 2.47 2.47 2.47h8.31c1.35 0 2.47-1.12 2.47-2.47v-6.31c0-1.06-0.719-1.91-1.66-2.25v-1.59c0-2.73-2.24-4.97-4.97-4.97zm0 4.88c0.102 0 0.0201-0.0111 0.0625 0.0312 0.0424 0.0424 0.0312-0.0393 0.0312 0.0625v1.38h-0.188v-1.38c0-0.102-0.0111-0.0201 0.0312-0.0625 0.0424-0.0424-0.0393-0.0312 0.0625-0.0312z" color="#000000" opacity=".1"/>
  <path id="path3974" d="m12 4.09c-2.43 0-4.41 1.98-4.41 4.41v2c-0.93 0.129-1.66 0.881-1.66 1.84v6.31c0 1.05 0.855 1.91 1.91 1.91h8.31c1.05 0 1.91-0.855 1.91-1.91v-6.31c0-0.963-0.726-1.71-1.66-1.84v-2c0-2.43-1.98-4.41-4.41-4.41zm0 3.75c0.241 0 0.372 0.0909 0.469 0.188 0.0966 0.0966 0.188 0.228 0.188 0.469v1.94h-1.31v-1.94c0-0.241 0.0909-0.372 0.188-0.469 0.0966-0.0966 0.228-0.188 0.469-0.188z" color="#000000" opacity=".15"/>
  <path id="path3970" d="m12 4.69c-2.1 0-3.81 1.71-3.81 3.81v2.53h-0.344c-0.723 0-1.31 0.59-1.31 1.31v6.31c0 0.723 0.59 1.31 1.31 1.31h8.31c0.723 0 1.31-0.59 1.31-1.31v-6.31c0-0.723-0.59-1.31-1.31-1.31h-0.344v-2.53c0-2.1-1.71-3.81-3.81-3.81zm0 2.56c0.75 0 1.25 0.5 1.25 1.25v2.53h-2.5v-2.53c0-0.75 0.5-1.25 1.25-1.25z" color="#000000" opacity=".2"/>
  <path id="path3959" d="m12 5.16c-1.85 0-3.34 1.5-3.34 3.34v3h-0.812c-0.462 0-0.844 0.382-0.844 0.844v6.31c0 0.462 0.382 0.844 0.844 0.844h8.31c0.462 0 0.844-0.382 0.844-0.844v-6.31c0-0.462-0.382-0.844-0.844-0.844h-0.812v-3c0-1.85-1.5-3.34-3.34-3.34zm0 1.62c0.985 0 1.72 0.733 1.72 1.72v3h-3.44v-3c0-0.985 0.733-1.72 1.72-1.72z" color="#000000" opacity=".3"/>
  <path id="path4173" transform="translate(0,2)" d="m12 3.91c-0.128 0-0.192 0.0161-0.25 0.0312-0.0777 0.0052-0.172 0.00252-0.312 0.0312-1.32 0.27-2.31 1.46-2.31 2.84v0.875c-0.557 0.164-0.969 0.675-0.969 1.28v0.531 2 0.469c0 0.736 0.607 1.34 1.34 1.34h5c0.736 0 1.34-0.607 1.34-1.34v-2.47-0.531c0-0.607-0.412-1.12-0.969-1.28v-0.875c0-0.817-0.381-1.54-0.938-2.06-0.0059-0.0239-0.0247-0.0468-0.0312-0.0625-0.0525-0.126-0.0858-0.12-0.125-0.156-0.0147-0.0138-0.0464-0.018-0.0625-0.0312-0.0268-0.022-0.0298-0.0714-0.0625-0.0938-0.459-0.314-1.04-0.5-1.66-0.5zm0 2.38c0.0106-0.00474 0.0218 0.00473 0.0312 0 0.122 0.00828 0.259 0.077 0.344 0.156a0.374 0.374 0 0 0 0.0312 0.0312c0.0074 0.00949-0.0062 0.0232 0 0.0312 0.0029 0.00427 0.027 0.0233 0.0312 0.0312 0.0032 0.00599-0.0037 0.0234 0 0.0312 0.016 0.0341 0.0179 0.0647 0.0312 0.125 0.013 0.0584 0.051 0.0835 0.0625 0.125 0.0049 0.0178-0.0045 0.0477 0 0.0625v0.75h-1.06v-0.812c0.0117-0.0359 0.0466-0.0621 0.0625-0.125 0.0039-0.015-0.0021-0.0416 0-0.0625 0.011-0.0188 0.0164-0.0367 0.0312-0.0625 0.0108-0.0187-0.0084-0.017 0-0.0312 0.028-0.0474 0.0823-0.0848 0.0625-0.0625 0.0061-0.00597 0.0577-0.047 0.156-0.0938 0.0106-0.00521 0.0161-0.0208 0.0312-0.0312s0.0222-0.0245 0.0312-0.0312c0.0097-0.00318 0.0223 0.00313 0.0312 0 0.018-0.00625 0.0471 0.00602 0.0625 0 0.0179-0.00702 0.0477-0.0246 0.0625-0.0312z" color="#000000" opacity="0" stroke-width="2"/>
  <path id="rect4177" d="m12 4.67c1.85 0 3.33 1.49 3.33 3.33v5c0 1.85-1.49 3.33-3.33 3.33-1.85 0-3.33-1.49-3.33-3.33v-5c0-1.85 1.49-3.33 3.33-3.33zm0 1.61c-0.985 0-1.72 0.733-1.72 1.72v5c0 0.985 0.733 1.72 1.72 1.72 0.985 0 1.72-0.733 1.72-1.72v-5c0-0.985-0.733-1.72-1.72-1.72z" color="#000000" fill="url(#linearGradient4191)"/>
  <path id="path4193" d="m12 4.67c1.85 0 3.33 1.49 3.33 3.33v5c0 1.85-1.49 3.33-3.33 3.33-1.85 0-3.33-1.49-3.33-3.33v-5c0-1.85 1.49-3.33 3.33-3.33zm0 1.61c-0.985 0-1.72 0.733-1.72 1.72v5c0 0.985 0.733 1.72 1.72 1.72 0.985 0 1.72-0.733 1.72-1.72v-5c0-0.985-0.733-1.72-1.72-1.72z" color="#000000" fill="url(#linearGradient3957)" opacity=".3"/>
  <rect id="rect3225" x="7" y="11" width="10" height="8" rx=".833" ry=".833" color="#000000" fill="url(#linearGradient3161)"/>
  <path id="rect3233" d="m7.83 11c-0.462 0-0.833 0.372-0.833 0.833v0.885c0-0.462 0.372-0.833 0.833-0.833h8.33c0.462 0 0.833 0.372 0.833 0.833v-0.885c0-0.462-0.372-0.833-0.833-0.833h-8.33z" color="#000000" fill="#fff" opacity=".3"/>
  <path id="rect4010" d="m7 17.4v0.781c0 0.462 0.372 0.833 0.833 0.833h8.33c0.462 0 0.833-0.372 0.833-0.833v-0.781c0 0.462-0.372 0.833-0.833 0.833h-8.33c-0.462 0-0.833-0.372-0.833-0.833z" color="#000000" fill="#c87137" opacity=".3"/>
  <path id="path3167" d="m7 13.4v0.781c0 0.462 0.372 0.833 0.833 0.833h8.33c0.462 0 0.833-0.372 0.833-0.833v-0.781c0 0.462-0.372 0.833-0.833 0.833h-8.33c-0.462 0-0.833-0.372-0.833-0.833z" color="#000000" fill="#c87137" opacity=".3"/>
  <path id="path3169" d="m7.83 15c-0.462 0-0.833 0.372-0.833 0.833v0.885c0-0.462 0.372-0.833 0.833-0.833h8.33c0.462 0 0.833 0.372 0.833 0.833v-0.885c0-0.462-0.372-0.833-0.833-0.833h-8.33z" color="#000000" fill="#fff" opacity=".3"/>
 </g>
</svg>
