<?xml version="1.0" encoding="UTF-8"?>
<svg id="svg2" width="22" height="22" version="1.0" xmlns="http://www.w3.org/2000/svg" xmlns:cc="http://creativecommons.org/ns#" xmlns:dc="http://purl.org/dc/elements/1.1/" xmlns:rdf="http://www.w3.org/1999/02/22-rdf-syntax-ns#" xmlns:xlink="http://www.w3.org/1999/xlink">
 <defs id="defs4">
  <linearGradient id="linearGradient3716">
   <stop id="stop3718" stop-color="#0c0c0c" offset="0"/>
   <stop id="stop3720" stop-color="#2c2c2c" offset=".137"/>
   <stop id="stop3722" stop-color="#353535" offset=".167"/>
   <stop id="stop3724" stop-color="#424242" offset=".454"/>
   <stop id="stop3726" stop-color="#585858" offset=".454"/>
   <stop id="stop3728" stop-color="#151515" offset="1"/>
  </linearGradient>
  <linearGradient id="linearGradient3335" x1="11.4" x2="11.4" y1="22" y2="-9.82" gradientUnits="userSpaceOnUse">
   <stop id="stop3330" offset="0"/>
   <stop id="stop3333" stop-opacity="0" offset="1"/>
  </linearGradient>
  <filter id="filter3194" x="-.18" y="-.18" width="1.36" height="1.36" color-interpolation-filters="sRGB">
   <feGaussianBlur id="feGaussianBlur3196" stdDeviation="1.2"/>
  </filter>
  <clipPath id="clipPath2849">
   <rect id="rect2851" x="1" y="1" width="20" height="20" rx="2" ry="2" fill="#fff" fill-rule="evenodd"/>
  </clipPath>
  <linearGradient id="linearGradient3672" x1="4" x2="4" y1="18" y2="3" gradientUnits="userSpaceOnUse">
   <stop id="stop3624" stop-color="#bebebe" offset="0"/>
   <stop id="stop3626" stop-color="#e6e6e6" offset="1"/>
  </linearGradient>
  <linearGradient id="linearGradient3680" x1="6" x2="6" y1="17" y2="13" gradientUnits="userSpaceOnUse">
   <stop id="stop3676" stop-color="#999" offset="0"/>
   <stop id="stop3678" stop-color="#999" stop-opacity="0" offset="1"/>
  </linearGradient>
  <radialGradient id="radialGradient3806" cx="11" cy="15.5" r="4" gradientTransform="matrix(1 0 0 .125 0 12.6)" gradientUnits="userSpaceOnUse">
   <stop id="stop3802" stop-color="#fff" offset="0"/>
   <stop id="stop3804" stop-color="#fff" stop-opacity="0" offset="1"/>
  </radialGradient>
  <linearGradient id="linearGradient3846" x1="-3.12" x2="-3.12" y1="21.3" y2="10.3" gradientTransform="translate(41.1 -6.26)" gradientUnits="userSpaceOnUse" xlink:href="#linearGradient3716"/>
  <linearGradient id="linearGradient3849" x1="-3.12" x2="-3.12" y1="21.3" y2="10.3" gradientTransform="translate(11.1 -6.26)" gradientUnits="userSpaceOnUse" xlink:href="#linearGradient3716"/>
  <linearGradient id="linearGradient3851" x1="7" x2="7" y1="15" y2="6" gradientUnits="userSpaceOnUse">
   <stop id="stop3817" stop-color="#fff" offset="0"/>
   <stop id="stop3819" stop-color="#fff" stop-opacity="0" offset="1"/>
  </linearGradient>
  <linearGradient id="linearGradient3845" x1="11" x2="21" y1="19.5" y2="19.5" gradientUnits="userSpaceOnUse" spreadMethod="reflect">
   <stop id="stop3833" stop-color="#fff" offset="0"/>
   <stop id="stop3821" stop-color="#fff" stop-opacity=".498" offset=".75"/>
   <stop id="stop3835" stop-color="#fff" stop-opacity="0" offset="1"/>
  </linearGradient>
  <linearGradient id="linearGradient3078" x1="10" x2="10" y1="1" y2="16" gradientUnits="userSpaceOnUse">
   <stop id="stop3825" stop-color="#fff" offset="0"/>
   <stop id="stop3829" stop-color="#fff" stop-opacity="0" offset="1"/>
  </linearGradient>
 </defs>
 <metadata id="metadata7">
  <rdf:RDF>
   <cc:Work rdf:about="">
    <dc:format>image/svg+xml</dc:format>
    <dc:type rdf:resource="http://purl.org/dc/dcmitype/StillImage"/>
   </cc:Work>
  </rdf:RDF>
 </metadata>
 <g id="layer1">
  <g id="g3337">
   <rect id="rect3371" x=".5" y=".5" width="21" height="21.5" rx="2.5" ry="2.5" fill="url(#linearGradient3335)" opacity=".3"/>
   <rect id="rect2553" x="1" y="2" width="20" height="20" rx="2.38" ry="2.33" opacity=".5"/>
  </g>
  <path id="rect3173" d="m3 2h16c1.11 0 2 0.892 2 2v14c0 1.11-0.892 2-2 2h-16c-1.11 0-2-0.892-2-2v-14c0-1.11 0.892-2 2-2z" fill="url(#linearGradient3849)" fill-rule="evenodd"/>
  <path id="rect3813" transform="translate(0,-2)" d="m6 6v9h1v-9h-1zm2 0v9h1v-9h-1zm2 0v9h1v-9h-1zm2 0v9h1v-9h-1zm2 0v9h1v-9h-1zm2 0v9h1v-9h-1z" fill="url(#linearGradient3851)" opacity=".1"/>
  <rect id="rect3798" x="7" y="14" width="8" height="1" fill="url(#radialGradient3806)" opacity=".6"/>
  <rect id="rect3844" x="31" y="1" width="20" height="20" rx="2" ry="2" fill="url(#linearGradient3846)" fill-rule="evenodd"/>
 </g>
 <g id="layer2" display="none">
  <rect id="rect2410" x="3" y="3" width="16" height="16" rx="2" ry="2" clip-path="url(#clipPath2849)" display="inline" fill="#fff" filter="url(#filter3194)" opacity=".15"/>
 </g>
 <g id="layer3">
  <path id="path3732" d="m5.5 3c-0.831 0-1.5 0.669-1.5 1.5v6c0 0.831 0.669 1.5 1.5 1.5h0.5v3.5c0 0.831 2.23 1.5 5 1.5s5-0.669 5-1.5v-3.5h0.5c0.831 0 1.5-0.669 1.5-1.5v-6c0-0.831-0.669-1.5-1.5-1.5h-11zm0 1h11c0.301 0 0.5 0.199 0.5 0.5v6c0 0.301-0.199 0.5-0.5 0.5h-0.5c-0.525-0.0066-1.01 0.475-1 1v3.28c-0.12 0.0817-0.378 0.232-0.75 0.344-0.771 0.231-1.94 0.375-3.25 0.375s-2.48-0.144-3.25-0.375c-0.372-0.112-0.63-0.262-0.75-0.344v-3.28c0.0066-0.525-0.475-1.01-1-1h-0.5c-0.301 0-0.5-0.199-0.5-0.5v-6c0-0.301 0.199-0.5 0.5-0.5z" fill-rule="evenodd" opacity=".6"/>
  <path id="rect3623" transform="translate(0,-2)" d="m3 3c-1.11 0-2 0.892-2 2v16c0 1.11 0.892 2 2 2h16c1.11 0 2-0.892 2-2v-16c0-1.11-0.892-2-2-2h-16zm2.5 2h11c0.831 0 1.5 0.669 1.5 1.5v6c0 0.831-0.669 1.5-1.5 1.5h-0.5v2.5c0 0.831-2.23 1.5-5 1.5s-5-0.669-5-1.5v-2.5h-0.5c-0.831 0-1.5-0.669-1.5-1.5v-6c0-0.831 0.669-1.5 1.5-1.5z" fill="url(#linearGradient3672)" fill-rule="evenodd"/>
  <path id="rect3635" transform="translate(0,-2)" d="m1 18v3c0 1.11 0.892 2 2 2h16c1.11 0 2-0.892 2-2v-3c0 1.11-0.892 2-2 2h-16c-1.11 0-2-0.892-2-2z" fill="#666"/>
  <path id="rect3640" transform="translate(0,-2)" d="m1 13v5c0 1.11 0.892 2 2 2h16c1.11 0 2-0.892 2-2v-5c0 1.11-0.892 2-2 2h-3v1.5c0 0.831-2.23 1.5-5 1.5s-5-0.669-5-1.5v-1.5h-3c-1.11 0-2-0.892-2-2z" fill="url(#linearGradient3680)" opacity=".8"/>
  <path id="path3682" transform="translate(0,-2)" d="m1 13v1c0 1.11 0.892 2 2 2h3v-1h-3c-1.11 0-2-0.892-2-2zm20 0c0 1.11-0.892 2-2 2h-3v1h3c1.11 0 2-0.892 2-2v-1zm-15 3.5v1c0 0.831 2.23 1.5 5 1.5s5-0.669 5-1.5v-1c0 0.831-2.23 1.5-5 1.5s-5-0.669-5-1.5z" fill="#fff" opacity=".4"/>
  <path id="path3808" transform="translate(0,-2)" d="m1 18v1c0 1.11 0.892 2 2 2h16c1.11 0 2-0.892 2-2v-1c0 1.11-0.892 2-2 2h-16c-1.11 0-2-0.892-2-2z" opacity=".3"/>
  <rect id="rect2922" x="2" y="10" width="1" height="1" fill="#f00"/>
  <rect id="rect3696" x="2" y="8" width="1" height="1" fill="#f60"/>
  <rect id="rect3698" x="2" y="6" width="1" height="1" fill="#00c300"/>
  <path id="rect3050" d="m3 1c-1.11 0-2 0.892-2 2v16c0 1.11 0.892 2 2 2h16c1.11 0 2-0.892 2-2v-16c0-1.11-0.892-2-2-2h-16zm0 1.03h16c0.55 0 0.969 0.419 0.969 0.969v16c0 0.55-0.419 0.969-0.969 0.969h-16c-0.55 0-0.969-0.419-0.969-0.969v-16c0-0.55 0.419-0.969 0.969-0.969z" fill="url(#linearGradient3078)" fill-rule="evenodd" opacity=".6"/>
  <path id="path3235" d="m3 21c-1.11 0-2-0.892-2-2v-1c0 1.11 0.892 2 2 2h16c1.11 0 2-0.892 2-2v1c0 1.11-0.892 2-2 2h-16z" fill="url(#linearGradient3845)" fill-rule="evenodd" opacity=".2"/>
 </g>
</svg>
