<?xml version="1.0" encoding="UTF-8"?>
<svg id="svg30" width="16" height="16" version="1.1" xmlns="http://www.w3.org/2000/svg" xmlns:cc="http://creativecommons.org/ns#" xmlns:dc="http://purl.org/dc/elements/1.1/" xmlns:rdf="http://www.w3.org/1999/02/22-rdf-syntax-ns#">
 <metadata id="metadata34">
  <rdf:RDF>
   <cc:Work rdf:about="">
    <dc:format>image/svg+xml</dc:format>
    <dc:type rdf:resource="http://purl.org/dc/dcmitype/StillImage"/>
   </cc:Work>
  </rdf:RDF>
 </metadata>
 <defs id="defs7">
  <radialGradient id="gr0" cx="9" cy="10" r="11" gradientTransform="matrix(1 0 0 .72727 0 2.7273)" gradientUnits="userSpaceOnUse">
   <stop id="stop2" stop-opacity=".23529" offset="0"/>
   <stop id="stop4" stop-opacity=".54902" offset="1"/>
  </radialGradient>
 </defs>
 <path id="path9" d="m1.4062-0.0058594c-0.51276-0.0032801-1.0145 0.30037-1.25 0.75586s-0.19365 1.0425 0.10547 1.459l-0.013672-0.01953c0.42757 0.6268 0.80181 2.1831 1.0117 3.9297a1 1.0001 0 0 0 0.03711 0.17383 1.0001 1.0001 0 0 0-0.29297 0.70508 1.0001 1.0001 0 0 0-1 1v1a1.0001 1.0001 0 0 0 1 1 1.0001 1.0001 0 0 0 0.74023 0.96485l-0.08398-0.8457a1.0001 1.0001 0 0 0 0.1875 0.4922 1.0001 1.0001 0 0 0-0.07422 0.3613 1.0001 1.0001 0 0 0 0.19726 0.0273h-0.19726a1.0001 1.0001 0 0 0 0.00781 0.1133c0.10638 0.8515 0.23096 1.6882 0.48828 2.4453 0.20125 0.5941 0.48055 1.1868 0.97461 1.6719a1.0001 1.0001 0 0 0 0.00195 2e-3c0.5262 0.5135 1.2741 0.8134 2.0625 0.7617 1.6103-0.1061 2.8016-1.1468 3.4453-2.3418 0.4205-0.7808 0.64448-1.6193 0.82812-2.4297a1.0001 1.0001 0 0 0 0.02344-0.2227h0.39843a1.0001 1.0001 0 0 0 1-0.99995 1.0001 1.0001 0 0 0 0.9199 0.99605 1.0001 1.0001 0 0 0 0.0137 0.17c0.0689 0.4151 0.1345 0.8686 0.2324 1.3164a1.0001 1.0001 0 0 0 0 0.0019c0.2542 1.1569 0.5472 2.3486 1.5274 3.1758 0.4006 0.3433 1.0033 0.4338 1.4843 0.2168 0.4821-0.2174 0.8138-0.7291 0.8204-1.2578 0.0049-0.4188-0.189-0.837-0.5137-1.1016l0.0117 0.0098c0.0795 0.0667-0.3875-0.6705-0.5996-1.6406a1.0001 1.0001 0 0 0 0-2e-3c-0.0514-0.2327-0.1003-0.5598-0.1543-0.8848h0.2578a1.0001 1.0001 0 0 0 1-0.99995v-1-1-1a1.0001 1.0001 0 0 0-1-1h-0.9648a1.0001 1.0001 0 0 0-0.0079 0c-0.0983 7e-4 -0.1054 0.00195-0.0312 0.00195h-0.3047a1.0001 1.0001 0 0 0-0.0605-0.3418c-0.0902-0.24849-0.1919-0.51913-0.3418-0.79687l-2e-3 -0.00195c-0.2859-0.52903-0.6906-1.0553-1.2988-1.4004a1.0001 1.0001 0 0 0-2e-3 0c-0.4766-0.27014-1.0269-0.38317-1.5742-0.3457-0.1778 0.01229-0.3605 0.04099-0.54491 0.08594a1.0001 1.0001 0 0 0-0.00195 0c-0.74563 0.18225-1.2595 0.70346-1.5723 1.2227-0.25935 0.42999-0.40484 0.87587-0.5254 1.3105a1.0001 1.0001 0 0 0-0.0371 0.26758h-0.73047a1.0001 1.0001 0 0 0-1 0.99805 1.0001 1.0001 0 0 0-1-0.99805h-0.92579a1.0001 1.0001 0 0 0-0.00585-0.10938c-0.20739-1.9018-0.51271-3.7958-1.5078-5.2637-0.25202-0.38274-0.69985-0.6302-1.1582-0.63281zm-0.00586 1a0.39844 0.39844 0 0 1 0.33203 0.18164c0.8135 1.1926 1.1429 2.9645 1.3457 4.8242h-0.82617c-0.2152-1.7906-0.53303-3.4299-1.1777-4.375a0.39844 0.39844 0 0 1 0.32617-0.63086zm9.084 3.1172c0.371-0.0254 0.7186 0.04959 1.0136 0.21679 0.393 0.223 0.6841 0.58182 0.9141 1.0078 0.109 0.2016 0.1982 0.42986 0.2832 0.66406h-0.8594c-0.042-0.0951-0.08-0.20176-0.125-0.28516-0.185-0.342-0.3884-0.57231-0.6054-0.69531-0.216-0.122-0.4546-0.16217-0.8086-0.07617-0.169 0.042-0.31026 0.15234-0.46096 0.40234-0.0988 0.1633-0.18663 0.3965-0.26953 0.6543h-0.83203c0.10979-0.3959 0.23692-0.7596 0.41992-1.0625 0.2193-0.364 0.53584-0.66558 0.9531-0.76758 0.128-0.0312 0.254-0.04959 0.377-0.05859zm0.1738 1.8379c0.0236 0.0219 0.0713 0.05273 0.1738 0.24219-0.0112-0.02033 0.027 0.07051 0.0899 0.21289a1.0001 1.0001 0 0 0 0.1484 0.23828 1.0001 1.0001 0 0 0-0.0664 0.35547 1.0001 1.0001 0 0 0-0.4355-0.82227c0.0371-0.09922 0.0697-0.18336 0.0898-0.22656zm3.3809 1.0488h0.9648v1 1 1h-1.4512v0.00195h-0.8047v-0.00195h-0.7441v-1h-2v1h-1.1758v0.00195h-0.82031v-0.00195h-1.0039v-1h-2v1h-1.5488v0.00195h-0.45508c-0.1229 0-0.2291 0.0076-0.3457 0.0176l-0.00196-0.01955h-0.64843v-1h-1v-1h1v-0.99805h3v0.99805h2v-0.99805h3v0.99805h2v-0.99805h1.9961c0.014 0 0.0251-0.00185 0.0391-0.00195zm-8.0352 3a1.0001 1.0001 0 0 0 0.74218 0.96485c-0.13807 0.5398-0.28862 1.0525-0.45507 1.3613-0.34825 0.6462-0.53197 0.8121-1.1113 0.8613-0.03437-0.0432-0.15375-0.205-0.26172-0.5253-0.12037-0.3548-0.22784-0.9878-0.32031-1.6622h0.40625a1.0001 1.0001 0 0 0 1-0.99995zm-3.2305 0.99025c0.078 2e-3 0.14606 0.0117 0.22656 0.0117h0.58008c0.0989 0.757 0.21522 1.4635 0.39062 1.9805 0.15 0.445 0.33621 0.7738 0.53321 0.9668 0.197 0.1929 0.3855 0.2719 0.6875 0.2519 0.96-0.062 1.5305-0.5654 1.9805-1.4004 0.2679-0.497 0.45222-1.1308 0.61132-1.7988h0.82422c-0.1763 0.778-0.38807 1.5328-0.73437 2.1758-0.5306 0.985-1.3917 1.7373-2.6309 1.8183-0.503 0.033-0.96388-0.1535-1.2969-0.4785-0.332-0.326-0.55451-0.7672-0.72851-1.2812-0.2141-0.63-0.33966-1.4161-0.44336-2.2461zm10.15 0.0117h0.8067c0.064 0.37 0.1193 0.7627 0.1933 1.0977 0.232 1.061 0.5676 1.8863 0.9336 2.1933a0.39788 0.39788 0 0 1 0.1465 0.3145 0.39788 0.39788 0 0 1-0.6582 0.2968c-0.66-0.553-0.9542-1.5197-1.1992-2.6347-0.087-0.398-0.1517-0.8396-0.2227-1.2676z" fill="#fff" opacity=".05"/>
 <path id="base" d="m1.4004 0.99414a0.39844 0.39844 0 0 0-0.32617 0.63086c0.6447 0.9451 0.96253 2.5844 1.1777 4.375h0.82617c-0.2028-1.8597-0.5322-3.6316-1.3457-4.8242a0.39844 0.39844 0 0 0-0.33203-0.18164zm9.084 3.1172c-0.123 0.0085-0.24895 0.027394-0.37695 0.058594-0.4173 0.102-0.73383 0.40358-0.95313 0.76758-0.183 0.3029-0.31012 0.6666-0.41992 1.0625h0.83203c0.0829-0.2578 0.17073-0.491 0.26953-0.6543 0.1507-0.25 0.29194-0.36034 0.46094-0.40234 0.354-0.086 0.59259-0.045828 0.80859 0.076172 0.217 0.123 0.42047 0.35331 0.60547 0.69531 0.044999 0.0834 0.082999 0.19006 0.125 0.28516h0.85937c-0.085-0.2342-0.1742-0.46246-0.2832-0.66406-0.23-0.426-0.52106-0.78481-0.91406-1.0078-0.295-0.1672-0.64267-0.2422-1.0137-0.2168zm3.5547 2.8867c-0.013999 1e-4 -0.025062 0.0019531-0.039062 0.0019531h-1.9961v0.99805h-2v-0.99805h-3v0.99805h-2v-0.99805h-3v0.99805h-1v1h1v1h0.64844l0.0019531 0.019531c0.1166-6e-3 0.2228-0.017578 0.3457-0.017578h0.45508v-0.0019531h1.5488v-1h2v1h1.0039v0.0019531h0.82031v-0.0019531h1.1758v-1h2v1h0.74414v0.0019531h0.80469v-0.0019531h1.4512v-1-1-1h-0.96484zm-11.266 3.9902c0.1037 0.83 0.22926 1.6161 0.44336 2.2461 0.174 0.514 0.39652 0.95525 0.72852 1.2812 0.333 0.325 0.79388 0.51152 1.2969 0.47852 1.2392-0.081 2.1003-0.83336 2.6309-1.8184 0.3463-0.643 0.55808-1.3978 0.73438-2.1758h-0.82422c-0.1591 0.668-0.34343 1.3018-0.61133 1.7988-0.45 0.835-1.0205 1.3384-1.9805 1.4004-0.302 0.02-0.4905-0.058953-0.6875-0.25195s-0.3832-0.5218-0.5332-0.9668c-0.1754-0.517-0.29172-1.2235-0.39062-1.9805h-0.58008c-0.0805 0-0.14856-0.008719-0.22656-0.011719zm10.15 0.011719c0.071 0.428 0.13566 0.86958 0.22266 1.2676 0.245 1.115 0.53922 2.0818 1.1992 2.6348a0.39788 0.39788 0 0 0 0.6582-0.29688 0.39788 0.39788 0 0 0-0.14648-0.31445c-0.366-0.307-0.70159-1.1324-0.93359-2.1934-0.074-0.335-0.12936-0.72766-0.19336-1.0977h-0.80664z" fill="url(#gr0)"/>
 <path id="path15" d="m1.4004 0.99414a0.39844 0.39844 0 0 0-0.32617 0.63086c0.6447 0.9451 0.96253 2.5844 1.1777 4.375h0.82617c-0.20279-1.8597-0.5322-3.6316-1.3457-4.8242a0.39844 0.39844 0 0 0-0.33203-0.18164zm9.084 3.1172c-0.123 9e-3 -0.249 0.02739-0.377 0.05859-0.41726 0.102-0.7338 0.40358-0.9531 0.76758-0.183 0.3029-0.31013 0.6666-0.41992 1.0625h0.83203c0.0829-0.2578 0.17073-0.491 0.26953-0.6543 0.1507-0.25 0.29196-0.36034 0.46096-0.40234 0.354-0.086 0.5926-0.04583 0.8086 0.07617 0.217 0.123 0.4204 0.35331 0.6054 0.69531 0.045 0.0834 0.083 0.19006 0.125 0.28516h0.8594c-0.085-0.2342-0.1742-0.46246-0.2832-0.66406-0.23-0.426-0.5211-0.78482-0.9141-1.0078-0.295-0.1672-0.6426-0.24219-1.0136-0.21679zm3.5547 2.8867c-0.014 1e-4 -0.0251 0.00195-0.0391 0.00195h-1.9961v0.99805h-2v-0.99805h-3v0.99805h-2v-0.99805h-3v0.99805h-1v1h1v1h0.64843l0.00196 0.01955c0.1166-0.01 0.2228-0.0176 0.3457-0.0176h0.45508v-0.00195h1.5488v-1h2v1h1.0039v0.00195h0.82031v-0.00195h1.1758v-1h2v1h0.7441v0.00195h0.8047v-0.00195h1.4512v-1-1-1h-0.9648zm0 0.5h0.0039 0.4609v0.5 1 0.5h-0.9512a0.50005 0.50005 0 0 0-0.0351 0.00195h-0.7188a0.50005 0.50005 0 0 0-0.0508-0.00195h-0.2441v-0.5a0.50005 0.50005 0 0 0-0.5-0.5 0.50005 0.50005 0 0 0 0.5-0.5v-0.49805h1.4961c0.0528 0 0.0579-0.00178 0.0391-0.00195zm-11.535 0.00195h2v0.49805a0.50005 0.50005 0 0 0 0.5 0.5 0.50005 0.50005 0 0 0-0.5 0.5v0.5h-1.0488a0.50005 0.50005 0 0 0-0.03516 0.00195h-0.41992c-0.09747 0-0.1615 0.00657-0.23438 0.01172a0.50005 0.50005 0 0 0-0.11328-0.01367h-0.14843v-0.5a0.50005 0.50005 0 0 0-0.5-0.5 0.50005 0.50005 0 0 0 0.5-0.5v-0.49805zm5 0h2v0.49805a0.50005 0.50005 0 0 0 0.49999 0.5 0.50005 0.50005 0 0 0-0.49999 0.5v0.5h-0.67579a0.50005 0.50005 0 0 0-0.03515 0.00195h-0.73438a0.50005 0.50005 0 0 0-0.05078-0.00195h-0.5039v-0.5a0.50005 0.50005 0 0 0-0.5-0.5 0.50005 0.50005 0 0 0 0.5-0.5v-0.49805zm-4.7305 3.4883c0.1037 0.83 0.22926 1.6161 0.44336 2.2461 0.174 0.514 0.39651 0.9552 0.72851 1.2812 0.333 0.325 0.79388 0.5115 1.2969 0.4785 1.2392-0.081 2.1003-0.8333 2.6309-1.8183 0.3463-0.643 0.55807-1.3978 0.73437-2.1758h-0.82422c-0.1591 0.668-0.34342 1.3018-0.61132 1.7988-0.45001 0.835-1.0205 1.3384-1.9805 1.4004-0.302 0.02-0.4905-0.059-0.6875-0.2519-0.197-0.193-0.38321-0.5218-0.53321-0.9668-0.1754-0.517-0.29172-1.2235-0.39062-1.9805h-0.58008c-0.0805 0-0.14856-0.0097-0.22656-0.0117zm10.15 0.0117c0.071 0.428 0.1357 0.8696 0.2227 1.2676 0.245 1.115 0.5392 2.0817 1.1992 2.6347a0.39788 0.39788 0 0 0 0.6582-0.2968 0.39788 0.39788 0 0 0-0.1465-0.3145c-0.366-0.307-0.7016-1.1323-0.9336-2.1933-0.074-0.335-0.1293-0.7277-0.1933-1.0977h-0.8067z" opacity=".3"/>
 <path id="path20" d="m1.2988 2.0078a0.39844 0.39844 0 0 0-0.22461 0.61719c0.6447 0.9451 0.96253 2.5844 1.1777 4.375h0.82617c-0.03697-0.33911-0.08524-0.66971-0.13281-1h-0.69336c-0.18856-1.569-0.45612-3.0208-0.95312-3.9922zm9.1856 3.1035c-0.123 9e-3 -0.249 0.02739-0.377 0.05859-0.0662 0.0162-0.12628 0.0446-0.18748 0.07031-0.02802 0.03772-0.05554 0.05829-0.08398 0.10547-0.0988 0.1633-0.18663 0.3965-0.26953 0.6543h-0.44141c-0.1651 0.29095-0.28771 0.62893-0.39062 1h0.83203c0.0829-0.2578 0.17073-0.491 0.26953-0.6543 0.1507-0.25 0.29196-0.36034 0.46096-0.40234 0.354-0.086 0.5926-0.04583 0.8086 0.07617 0.217 0.123 0.4204 0.35331 0.6054 0.69531 0.045 0.0834 0.083 0.19006 0.125 0.28516h0.168 0.6914c-0.085-0.2342-0.1742-0.46246-0.2832-0.66406-0.0667-0.1235-0.1525-0.2254-0.2305-0.33594h-0.3457c-0.042-0.0951-0.08-0.20176-0.125-0.28516-0.0887-0.16404-0.1826-0.29897-0.2793-0.41211-0.2811-0.1436-0.602-0.21504-0.9472-0.1914zm-9.4805 3.8867v1h1v-1h-1zm1 1v0.99995h0.64843l0.00196 0.0196c0.04149-0.0036 0.08296-0.0031 0.12304-0.0059-0.00102-0.0081-0.00289-0.0153-0.0039-0.0234 0.078 2e-3 0.14606 0.0117 0.22656 0.0117h0.58008 1.4238v-1h2v1h0.77929 0.22461 0.59961 0.2207 1.1758v-1h2v1h0.7441 0.1758 0.6289 0.1778 1.2734v-1-0.00195h-1.4512v0.00195h-0.8047v-0.00195h-0.7441v-1h-2v1h-1.1758v0.00195h-0.82031v-0.00195h-1.0039v-1h-2v1h-1.5488v0.00195h-0.45508c-0.1229 0-0.2291 0.0076-0.3457 0.0176l-0.00196-0.01955h-0.64843zm0.76953 1.9902c0.1037 0.83 0.22926 1.6161 0.44336 2.2461 0.174 0.514 0.39651 0.9552 0.72851 1.2812 0.333 0.325 0.79388 0.5115 1.2969 0.4785 1.2392-0.081 2.1003-0.8333 2.6309-1.8183 0.3463-0.643 0.55807-1.3978 0.73437-2.1758h-0.26562c-0.12708 0.4154-0.27451 0.8151-0.46875 1.1758-0.3087 0.573-0.73359 1.0614-1.2754 1.3906-0.36281 0.3618-0.80163 0.5938-1.4062 0.6328-0.302 0.02-0.4905-0.059-0.6875-0.2519-0.02858-0.028-0.05399-0.0797-0.08203-0.1133-0.17549-0.0813-0.33879-0.1839-0.47657-0.3184-0.332-0.326-0.55451-0.7672-0.72851-1.2812-0.124-0.3649-0.21542-0.7905-0.29297-1.2383-0.04956-0.0031-0.09862-0.0065-0.15039-0.0078zm10.15 0.0117c0.071 0.428 0.1357 0.8696 0.2227 1.2676 0.245 1.115 0.5392 2.0817 1.1992 2.6347a0.39788 0.39788 0 0 0 0.6582-0.2968 0.39788 0.39788 0 0 0-0.1465-0.3145c-0.0827-0.0694-0.1634-0.172-0.2422-0.291a0.39788 0.39788 0 0 1-0.2695-0.0977c-0.66-0.553-0.9542-1.5197-1.1992-2.6347-0.0184-0.084-0.0302-0.1802-0.0469-0.2676h-0.1758z" fill="#fff" opacity=".2"/>
 <path id="path25" d="m1.4004 0.99414a0.39844 0.39844 0 0 0-0.32617 0.63086c0.0798 0.11699 0.1544 0.24558 0.22461 0.38281a0.39844 0.39844 0 0 1 0.10156-0.01367 0.39844 0.39844 0 0 1 0.33203 0.18164c0.66516 0.97514 0.9996 2.3432 1.2129 3.8242h0.13281c-0.20279-1.8597-0.5322-3.6316-1.3457-4.8242a0.39844 0.39844 0 0 0-0.33203-0.18164zm9.084 3.1172c-0.123 9e-3 -0.249 0.02739-0.377 0.05859-0.41726 0.102-0.7338 0.40358-0.9531 0.76758-0.183 0.3029-0.31013 0.6666-0.41992 1.0625h0.39062c0.01105-0.01947 0.01782-0.04351 0.0293-0.0625 0.18447-0.30619 0.44146-0.56105 0.76562-0.69727 0.12048-0.16211 0.23988-0.2628 0.37698-0.29687 0.354-0.086 0.5926-0.04583 0.8086 0.07617 0.1129 0.064 0.2213 0.16047 0.3261 0.2832 0.0211 0.01074 0.0459 0.01377 0.0664 0.02539 0.2791 0.15836 0.4927 0.40114 0.6836 0.67188h0.5137c-0.085-0.2342-0.1742-0.46246-0.2832-0.66406-0.23-0.426-0.5211-0.78482-0.9141-1.0078-0.295-0.1672-0.6426-0.24219-1.0136-0.21679zm3.5547 2.8867c-0.014 1e-4 -0.0251 0.00195-0.0391 0.00195h-1.3047-0.6914v0.99805h-2v-0.99805h-0.43749-0.83203-1.7305v0.99805h-2v-0.99805h-1.9258-0.82617-0.24804v0.99805h-1v1h1v-0.99805h3v0.99805h2v-0.99805h3v0.99805h2v-0.99805h1.9961c0.014 0 0.0251-0.00185 0.0391-0.00195l0.9648 0.00195v-0.00195-1h-0.9648zm-11.039 4.002c-0.07916 0-0.15011 0.0067-0.22266 0.0117 0.04281 0.3408 0.09145 0.6666 0.14649 0.9844 0.0251 0.0016 0.04911 0.0039 0.07617 0.0039h0.58008c0.0989 0.757 0.21522 1.4635 0.39062 1.9805 0.12824 0.3804 0.28589 0.6552 0.45118 0.8535 0.24865 0.1152 0.52542 0.1795 0.82031 0.1601 0.51824-0.0338 0.96601-0.1911 1.3555-0.4277 0.21324-0.2126 0.40763-0.4585 0.57422-0.7676 0.2679-0.497 0.45222-1.1308 0.61132-1.7988h0.5586c0.09947-0.3252 0.18821-0.6584 0.26562-1h-0.59961-0.22461c-0.1591 0.668-0.34342 1.3018-0.61132 1.7988-0.45001 0.835-1.0205 1.3384-1.9805 1.4004-0.302 0.02-0.4905-0.059-0.6875-0.2519-0.197-0.193-0.38321-0.5218-0.53321-0.9668-0.1754-0.517-0.29172-1.2235-0.39062-1.9805h-0.125-0.45508zm9.9238 0c0.056 0.3377 0.1136 0.6735 0.1758 1h0.6309c0.064 0.37 0.1193 0.7627 0.1933 1.0977 0.1796 0.8212 0.4217 1.4945 0.6914 1.9023a0.39788 0.39788 0 0 0 0.3887-0.3945 0.39788 0.39788 0 0 0-0.1465-0.3145c-0.366-0.307-0.7016-1.1323-0.9336-2.1933-0.074-0.335-0.1293-0.7277-0.1933-1.0977h-0.1778-0.6289z" opacity=".3"/>
</svg>
