<?xml version="1.0" encoding="UTF-8"?>
<svg id="svg30" width="16" height="16" version="1.1" xmlns="http://www.w3.org/2000/svg" xmlns:cc="http://creativecommons.org/ns#" xmlns:dc="http://purl.org/dc/elements/1.1/" xmlns:rdf="http://www.w3.org/1999/02/22-rdf-syntax-ns#">
 <metadata id="metadata34">
  <rdf:RDF>
   <cc:Work rdf:about="">
    <dc:format>image/svg+xml</dc:format>
    <dc:type rdf:resource="http://purl.org/dc/dcmitype/StillImage"/>
   </cc:Work>
  </rdf:RDF>
 </metadata>
 <defs id="defs7">
  <radialGradient id="gr0" cx="9" cy="10" r="11" gradientTransform="matrix(1 0 0 .72727 0 2.7273)" gradientUnits="userSpaceOnUse">
   <stop id="stop2" stop-color="#e64b36" offset="0"/>
   <stop id="stop4" stop-color="#a31414" offset="1"/>
  </radialGradient>
 </defs>
 <path id="path9" d="m3 0c-1.6447 0-3 1.3553-3 3v10c0 1.6447 1.3553 3 3 3h10c1.6447 0 3-1.3553 3-3v-10c0-1.6447-1.3553-3-3-3h-10zm0 1h10c1.108 0 2 0.892 2 2v10c0 1.108-0.892 2-2 2h-10c-1.108 0-2-0.892-2-2v-10c0-1.108 0.892-2 2-2zm2.3125 2-2.3125 2.3125 2.6875 2.6875-2.6875 2.6875 2.3125 2.3125 2.6875-2.6875 2.6875 2.6875 2.3125-2.3125-2.6875-2.6875 2.6875-2.6875-2.3125-2.3125-2.6875 2.6875-2.6875-2.6875zm0 1.4141 1.9805 1.9805a1 1.0001 0 0 0 1.4141 0l1.9805-1.9805 0.8984 0.89844-1.9804 1.9805a1.0001 1.0001 0 0 0 0 1.4141l1.9804 1.9805-0.8984 0.8984-1.9805-1.9804a1.0001 1.0001 0 0 0-1.4141 0l-1.9805 1.9804-0.89844-0.8984 1.9805-1.9805a1.0001 1.0001 0 0 0 0-1.4141l-1.9805-1.9805 0.89844-0.89844z" fill="#fff" opacity=".05"/>
 <path id="base" class="error" d="m3 1c-1.108 0-2 0.892-2 2v10c0 1.108 0.892 2 2 2h10c1.108 0 2-0.892 2-2v-10c0-1.108-0.892-2-2-2h-10zm2.3125 2 2.6875 2.6875 2.6875-2.6875 2.3125 2.3125-2.6875 2.6875 2.6875 2.6875-2.3125 2.3125-2.6875-2.6875-2.6875 2.6875-2.3125-2.3125 2.6875-2.6875-2.6875-2.6875 2.3125-2.3125z" fill="url(#gr0)"/>
 <path id="path15" d="m3 1c-1.108 0-2 0.892-2 2v10c0 1.108 0.892 2 2 2h10c1.108 0 2-0.892 2-2v-10c0-1.108-0.892-2-2-2h-10zm0 0.5h10c0.8396 0 1.5 0.66035 1.5 1.5v10c0 0.8396-0.6604 1.5-1.5 1.5h-10c-0.83965 0-1.5-0.6604-1.5-1.5v-10c0-0.83965 0.66035-1.5 1.5-1.5zm2.3203 1a0.50005 0.50005 0 0 0-0.36133 0.14648l-2.3125 2.3125a0.50005 0.50005 0 0 0 0 0.70704l2.334 2.334-2.334 2.334a0.50005 0.50005 0 0 0 0 0.707l2.3125 2.3125a0.50005 0.50005 0 0 0 0.70704 0l2.334-2.334 2.334 2.334a0.50005 0.50005 0 0 0 0.707 0l2.3125-2.3125a0.50005 0.50005 0 0 0 0-0.707l-2.334-2.334 2.334-2.334a0.50005 0.50005 0 0 0 0-0.70704l-2.3125-2.3125a0.50005 0.50005 0 0 0-0.707 0l-2.334 2.334-2.334-2.334a0.50005 0.50005 0 0 0-0.34571-0.14648zm-0.00781 0.5 2.6875 2.6875 2.6875-2.6875 2.3125 2.3125-2.6875 2.6875 2.6875 2.6875-2.3125 2.3125-2.6875-2.6875-2.6875 2.6875-2.3125-2.3125 2.6875-2.6875-2.6875-2.6875 2.3125-2.3125z" opacity=".3"/>
 <path id="path20" d="m5.3125 3-2.3125 2.3125 0.5 0.5 1.8125-1.8125 2.6875 2.6875 2.6875-2.6875 1.8125 1.8125 0.5-0.5-2.3125-2.3125-2.6875 2.6875-2.6875-2.6875zm-0.125 5.5-2.1875 2.1875 0.5 0.5 2.1875-2.1875-0.5-0.5zm5.625 0-0.5 0.5 2.1875 2.1875 0.5-0.5-2.1875-2.1875zm-9.8125 4.5v1c0 1.108 0.892 2 2 2h10c1.108 0 2-0.892 2-2v-1c0 1.108-0.892 2-2 2h-10c-1.108 0-2-0.892-2-2z" fill="#fff" opacity=".2"/>
 <path id="path25" d="m3 1c-1.108 0-2 0.892-2 2v1c0-1.108 0.892-2 2-2h10c1.108 0 2 0.892 2 2v-1c0-1.108-0.892-2-2-2h-10zm0.5 4.8125-0.5 0.5 2.1875 2.1875 0.5-0.5-2.1875-2.1875zm9 0-2.1875 2.1875 0.5 0.5 2.1875-2.1875-0.5-0.5zm-4.5 4.5-2.6875 2.6875-1.8125-1.8125-0.5 0.5 2.3125 2.3125 2.6875-2.6875 2.6875 2.6875 2.3125-2.3125-0.5-0.5-1.8125 1.8125-2.6875-2.6875z" opacity=".3"/>
</svg>
