<?xml version="1.0" encoding="UTF-8"?>
<svg id="svg30" width="16" height="16" version="1.1" xmlns="http://www.w3.org/2000/svg" xmlns:cc="http://creativecommons.org/ns#" xmlns:dc="http://purl.org/dc/elements/1.1/" xmlns:rdf="http://www.w3.org/1999/02/22-rdf-syntax-ns#">
 <metadata id="metadata34">
  <rdf:RDF>
   <cc:Work rdf:about="">
    <dc:format>image/svg+xml</dc:format>
    <dc:type rdf:resource="http://purl.org/dc/dcmitype/StillImage"/>
   </cc:Work>
  </rdf:RDF>
 </metadata>
 <defs id="defs7">
  <radialGradient id="gr0" cx="9" cy="10" r="11" gradientTransform="matrix(1 0 0 .72727 0 2.7273)" gradientUnits="userSpaceOnUse">
   <stop id="stop2" stop-opacity=".23529" offset="0"/>
   <stop id="stop4" stop-opacity=".54902" offset="1"/>
  </radialGradient>
 </defs>
 <path id="path9" d="m6 0a1 1.0001 0 0 0-1 1v2h-2a1.0001 1.0001 0 0 0-1 1v1h-1a1.0001 1.0001 0 0 0-1 1v2a1.0001 1.0001 0 0 0 1 1h1v1a1.0001 1.0001 0 0 0 1 1h2v3a1.0001 1.0001 0 0 0 1.707 0.707l3.293-3.2929 3.293 3.2929a1.0001 1.0001 0 0 0 1.707-0.707v-13a1.0001 1.0001 0 0 0-1-1h-8zm0 1h8v13l-4-4-4 4v-4-1h2v-4h-2v-4zm-3 3h2v2h2v2h-2v2h-2v-2h-2v-2h2v-2z" fill="#fff" opacity=".05"/>
 <path id="base" d="m6 1v4h2v4h-2v5l4-4 4 4v-13h-8zm-3 3v2h-2v2h2v2h2v-2h2v-2h-2v-2h-2z" fill="url(#gr0)"/>
 <path id="path15" d="m6 1v4h2v4h-2v1 4l4-4 4 4v-13h-8zm0.5 0.5h7v11.293l-3.1465-3.1465a0.50005 0.50005 0 0 0-0.70702 0l-3.1465 3.1465v-2.793-0.5h1.5a0.50005 0.50005 0 0 0 0.5-0.5v-4a0.50005 0.50005 0 0 0-0.5-0.5h-1.5v-3zm-3.5 2.5v2h-2v2h2v2h2v-2h2v-2h-2v-2h-2zm0.5 0.5h1v1.5a0.50005 0.50005 0 0 0 0.5 0.5h1.5v1h-1.5a0.50005 0.50005 0 0 0-0.5 0.5v1.5h-1v-1.5a0.50005 0.50005 0 0 0-0.5-0.5h-1.5v-1h1.5a0.50005 0.50005 0 0 0 0.5-0.5v-1.5z" opacity=".3"/>
 <path id="path20" d="m6 5v1h1 1v-1h-2zm-5 3v1h2v-1h-2zm4 0v1h1 1v-1h-2zm-2 2v1h2v-1h-2zm7 0-4 4v1l4-4 4 4v-1l-4-4z" fill="#fff" opacity=".2"/>
 <path id="path25" d="m6 1v1h8v-1h-8zm-3 3v1h2v-1h-2zm-2 2v1h2v-1h-2zm4 0v1h2v-1h-1-1zm1 3v1h2v-1h-1-1z" opacity=".3"/>
</svg>
