<?xml version="1.0" encoding="UTF-8"?>
<svg id="svg30" width="16" height="16" version="1.1" xmlns="http://www.w3.org/2000/svg" xmlns:cc="http://creativecommons.org/ns#" xmlns:dc="http://purl.org/dc/elements/1.1/" xmlns:rdf="http://www.w3.org/1999/02/22-rdf-syntax-ns#">
 <metadata id="metadata34">
  <rdf:RDF>
   <cc:Work rdf:about="">
    <dc:format>image/svg+xml</dc:format>
    <dc:type rdf:resource="http://purl.org/dc/dcmitype/StillImage"/>
   </cc:Work>
  </rdf:RDF>
 </metadata>
 <defs id="defs7">
  <radialGradient id="gr0" cx="9" cy="10" r="11" gradientTransform="matrix(1 0 0 .72727 0 2.7273)" gradientUnits="userSpaceOnUse">
   <stop id="stop2" stop-opacity=".23529" offset="0"/>
   <stop id="stop4" stop-opacity=".54902" offset="1"/>
  </radialGradient>
 </defs>
 <path id="path9" d="m1 0a1 1.0001 0 0 0-1 1v14a1.0001 1.0001 0 0 0 1 1h14a1.0001 1.0001 0 0 0 1-1v-14a1.0001 1.0001 0 0 0-1-1h-14zm0 1h14v14h-14v-14zm1 1v12h12v-12h-12zm1 1h10l-4.8086 4.7539-2.1914-1.7539v-2h-2v2h1l2.793 2.1562-4.793 4.8438v-10zm10 1.4062v5.4688a1.0001 1.0001 0 0 0-0.9922-0.875h-0.6504l-1.664-1.3262 3.3066-3.2676zm-4.8125 3.3477 2.8203 2.2461h1v2h-2v-2l-2.2109-1.8438 0.39062-0.40234zm-0.32812 1.7559 1.1484 0.95903v1.5312a1.0001 1.0001 0 0 0 0.99999 1h-5.6016l3.4531-3.4902zm5.1406 2.6113v0.8789h-0.9922a1.0001 1.0001 0 0 0 0.9922-0.8789z" fill="#fff" opacity=".05"/>
 <path id="base" d="m1 1v14h14v-14h-14zm1 1h12v12h-12v-12zm1 1v10l4.793-4.8438-2.793-2.1562h-1v-2h2v2l2.1914 1.7539 4.8086-4.7539h-10zm5.1875 4.7539l-.3906.4023 2.2111 1.8438v2h2v-2h-1l-2.8205-2.2461z" fill="url(#gr0)"/>
 <path id="path15" d="m1 1v14h14v-14h-14zm0.5 0.5h0.5a0.50005 0.50005 0 0 0-0.5 0.5v-0.5zm12.5 0h0.5v0.5a0.50005 0.50005 0 0 0-0.5-0.5zm-12 0.5h12v12h-12v-12zm1 1v10l4.793-4.8438-2.793-2.1562h-1v-2h2v2l2.1914 1.7539 4.8086-4.7539h-10zm0.5 0.5h0.5a0.50005 0.50005 0 0 0-0.5 0.5v-0.5zm2.5 0h5.7832l-3.627 3.5859-1.6562-1.3262v-1.7598a0.50005 0.50005 0 0 0-0.5-0.5zm-2.5 2.5a0.50005 0.50005 0 0 0 0.5 0.5h0.83008l2.209 1.707-3.5391 3.5762v-5.7832zm4.6875 1.7539-0.39062 0.40234 2.2109 1.8438v2h2v-2h-1l-2.8203-2.2461zm2.3203 2.4863 0.1895 0.1504a0.50005 0.50005 0 0 0 0.3105 0.1094h0.5v1h-1v-1.2598zm-9.0078 3.7598a0.50005 0.50005 0 0 0 0.5 0.5h-0.5v-0.5zm13 0v0.5h-0.5a0.50005 0.50005 0 0 0 0.5-0.5z" opacity=".3"/>
 <path id="path20" d="m2 2v1h1 10 1v-1h-12zm2 2v1h2v-1h-2zm7.9883 0-3.7969 3.7539-2.1914-1.7539v0.77148l1.793 1.3848-0.1543 0.15625 0.55274 0.44141 0.14648-0.14649-0.54101-0.45117 0.39062-0.40234 0.5625 0.44726 4.25-4.2012h-1.0117zm-4.7559 4.7227-4.2324 4.2773v1l4.793-4.8438-0.56055-0.43359zm0.95508 0.03125-0.39062 0.40234 2.2109 1.8438v-0.7969l-1.8203-1.4492zm1.8203 3.2461v1h2v-1h-2zm-9.0078 3v1h14v-1h-1-12-1z" fill="#fff" opacity=".2"/>
 <path id="path25" d="m1 1v1h1 12 1v-1h-14zm2 2v1h1 2 5.9883l1.0117-1h-10zm1 3v1h1l2.2324 1.7227 0.40625-0.41016-1.6387-1.3125v-0.22852l-1-0.77148h-1zm4.75 2.2012-0.41211 0.40625 1.6699 1.3926v0.2031l1 0.7969h1v-1h-1l-2.2578-1.7988zm-6.75 5.7988v1h12v-1h-11-1z" opacity=".3"/>
</svg>
