<?xml version="1.0" encoding="UTF-8"?>
<svg id="svg30" width="16" height="16" version="1.1" xmlns="http://www.w3.org/2000/svg" xmlns:cc="http://creativecommons.org/ns#" xmlns:dc="http://purl.org/dc/elements/1.1/" xmlns:rdf="http://www.w3.org/1999/02/22-rdf-syntax-ns#">
 <metadata id="metadata34">
  <rdf:RDF>
   <cc:Work rdf:about="">
    <dc:format>image/svg+xml</dc:format>
    <dc:type rdf:resource="http://purl.org/dc/dcmitype/StillImage"/>
   </cc:Work>
  </rdf:RDF>
 </metadata>
 <defs id="defs7">
  <radialGradient id="gr0" cx="9" cy="10" r="11" gradientTransform="matrix(1 0 0 .72727 0 2.7273)" gradientUnits="userSpaceOnUse">
   <stop id="stop2" stop-opacity=".23529" offset="0"/>
   <stop id="stop4" stop-opacity=".54902" offset="1"/>
  </radialGradient>
 </defs>
 <path id="path9" d="m2 0a1 1.0001 0 0 0-0.71484 0.30078c-0.7101 0.30947-1.2852 0.8854-1.2852 1.6992v1c-1.4572e-16 1.0907 0.9093 2 2 2h2a1.0001 1.0001 0 0 0-1 1v4a1.0001 1.0001 0 0 0 1 1h4.2832l0.27735 0.6895c-0.33012 0.3516-0.56055 0.792-0.56055 1.3105v1c0 1.0907 0.9093 2 2 2h4c1.0907 0 2-0.9093 2-2v-1c0-1.0907-0.9093-2-2-2h-1a1.0001 1.0001 0 0 0 1-1v-4a1.0001 1.0001 0 0 0-1-1h-3.8828l-1.1172-2.791v-0.20898c0-1.0907-0.9093-2-2-2h-4zm0 1h4c0.554 0 1 0.446 1 1v0.40234l1.4394 3.5977h4.5606v4h-2.9609l0.8007 2h3.1602c0.554 0 1 0.446 1 1v1c0 0.554-0.446 1-1 1h-4c-0.554 0-1-0.446-1-1v-1c0-0.4757 0.33562-0.8527 0.7793-0.9551l-0.81836-2.0449h-4.9609v-4h3.3613l-0.86133-2.1523c-0.14906 0.08804-0.31363 0.15234-0.5 0.15234h-4c-0.554 0-1-0.446-1-1v-1c0-0.554 0.446-1 1-1zm3 6v2h3.5606l-0.79883-2h-2.7617zm3.8398 0 0.79883 2h2.3613v-2h-3.1602z" fill="#fff" opacity=".05"/>
 <path id="base" d="m2 1c-0.554 0-1 0.446-1 1v1c0 0.554 0.446 1 1 1h4c0.18637 0 0.35094-0.064267 0.5-0.15234l0.86133 2.1523h-3.3613v4h4.9609l0.81836 2.0449c-0.44368 0.10246-0.7793 0.47938-0.7793 0.95508v1c0 0.554 0.446 1 1 1h4c0.554 0 1-0.446 1-1v-1c0-0.554-0.446-1-1-1h-3.1602l-0.80078-2h2.9609v-4h-4.5605l-1.4395-3.5977v-0.40234c0-0.554-0.446-1-1-1h-4zm3 6h2.7617l0.79883 2h-3.5605v-2zm3.8398 0h3.1602v2h-2.3613l-0.79883-2z" fill="url(#gr0)"/>
 <path id="path15" d="m2 1c-0.554 0-1 0.446-1 1v1c0 0.554 0.446 1 1 1h4c0.18637 0 0.35094-0.0643 0.5-0.15234l0.86133 2.1523h-3.3613v4h4.9609l0.81836 2.0449c-0.44368 0.1024-0.7793 0.4794-0.7793 0.9551v1c0 0.554 0.446 1 1 1h4c0.554 0 1-0.446 1-1v-1c0-0.554-0.446-1-1-1h-3.1602l-0.8007-2h2.9609v-4h-4.5606l-1.4394-3.5977v-0.40234c0-0.554-0.446-1-1-1h-4zm0 0.5h0.00195 3.998c0.28565 0 0.5 0.21435 0.5 0.5v0.40234a0.50005 0.50005 0 0 0 0.03516 0.18555l0.42382 1.0625a0.50005 0.50005 0 0 0-0.71289-0.23242c-0.10201 0.06027-0.17467 0.08203-0.24609 0.08203h-4c-0.28565 0-0.5-0.21435-0.5-0.5v-1c0-0.28565 0.21435-0.5 0.5-0.5zm5.8262 4.3144 0.14844 0.3711a0.50005 0.50005 0 0 0 0.46484 0.31445h0.38672a0.50005 0.50005 0 0 0 0.01367 1h-0.33789l0.52344 1.3144 0.14844 0.3711a0.50005 0.50005 0 0 0 0.46484 0.31445h0.37503a0.50005 0.50005 0 0 0-0.43948 0.6836l-0.14844-0.36915a0.50005 0.50005 0 0 0-0.46484-0.31445h-0.37305a0.50005 0.50005 0 0 0 0.4375-0.68555l-0.79883-2a0.50005 0.50005 0 0 0-0.46484-0.31445h-0.37305a0.50005 0.50005 0 0 0 0.4375-0.68555zm-3.3262 0.68555h0.49414a0.50005 0.50005 0 0 0-0.48633 0.50781l-0.00781-0.00781v-0.5zm7.5 0h0.5v0.5a0.50005 0.50005 0 0 0-0.5-0.5zm-7 0.5h2.7617l0.79883 2h-3.5606v-2zm3.8398 0h3.1602v2h-2.3613l-0.79883-2zm-4.3398 2a0.50005 0.50005 0 0 0 0.5 0.5h-0.5v-0.5zm8 0v0.5h-0.5a0.50005 0.50005 0 0 0 0.5-0.5zm-2.2559 2.8594 0.1309 0.3261a0.50005 0.50005 0 0 0 0.4648 0.3145h3.1602c0.2856 0 0.5 0.2144 0.5 0.5v1c0 0.2856-0.2144 0.5-0.5 0.5h-4c-0.28565 0-0.5-0.2144-0.5-0.5v-1c0-0.2405 0.15698-0.4143 0.39258-0.4688a0.50005 0.50005 0 0 0 0.35152-0.6718z" opacity=".3"/>
 <path id="path20" d="m1 3v1c0 0.554 0.446 1 1 1h4c0.18637 0 0.35094-0.0643 0.5-0.15234l0.46094 1.1523h0.40039l-0.86133-2.1523c-0.14906 0.08804-0.31363 0.15234-0.5 0.15234h-4c-0.554 0-1-0.446-1-1zm4 4v1h2.7617l0.39844 1h0.40039l-0.79883-2h-0.40039-2.3613zm3.8398 0 0.39844 1h2.7617v-1h-3.1602zm-4.8398 3v1h4.9609l0.47851 1.1973c0.10277-0.0685 0.21484-0.1235 0.33985-0.1524l-0.81836-2.0449h-0.40039-3.5606-1zm6.0391 0 0.4004 1h2.5605v-1h-1-1.9609zm-1.0391 4v1c0 0.554 0.446 1 1 1h4c0.554 0 1-0.446 1-1v-1c0 0.554-0.446 1-1 1h-4c-0.554 0-1-0.446-1-1z" fill="#fff" opacity=".2"/>
 <path id="path25" d="m2 1c-0.554 0-1 0.446-1 1v1c0-0.554 0.446-1 1-1h4c0.554 0 1 0.446 1 1v0.40234l1.4394 3.5977h0.40039 3.1602 1v-1h-4.5606l-1.4394-3.5977v-0.40234c0-0.554-0.446-1-1-1h-4zm2 5v1h1 2.3613l-0.40039-1h-2.9609zm4.8398 2 0.79883 2h0.40043 1.9609v-1h-2.3613l-0.40039-1h-0.39844zm-3.8398 1v1h3.5606l-0.40039-1h-3.1602zm5.0391 2 0.8007 2h3.1602c0.554 0 1 0.446 1 1v-1c0-0.554-0.446-1-1-1h-3.1602l-0.4003-1h-0.4004zm-0.59965 1.1973c-0.26196 0.1746-0.43945 0.461-0.43945 0.8027v1c0-0.4757 0.33562-0.8527 0.7793-0.9551l-0.33985-0.8476z" opacity=".3"/>
</svg>
