<?xml version="1.0" encoding="UTF-8"?>
<svg id="svg30" width="16" height="16" version="1.1" xmlns="http://www.w3.org/2000/svg" xmlns:cc="http://creativecommons.org/ns#" xmlns:dc="http://purl.org/dc/elements/1.1/" xmlns:rdf="http://www.w3.org/1999/02/22-rdf-syntax-ns#">
 <metadata id="metadata34">
  <rdf:RDF>
   <cc:Work rdf:about="">
    <dc:format>image/svg+xml</dc:format>
    <dc:type rdf:resource="http://purl.org/dc/dcmitype/StillImage"/>
   </cc:Work>
  </rdf:RDF>
 </metadata>
 <defs id="defs7">
  <radialGradient id="gr0" cx="9" cy="10" r="11" gradientTransform="matrix(1 0 0 .72727 0 2.7273)" gradientUnits="userSpaceOnUse">
   <stop id="stop2" stop-opacity=".23529" offset="0"/>
   <stop id="stop4" stop-opacity=".54902" offset="1"/>
  </radialGradient>
 </defs>
 <path id="path9" d="m8.498 0.0019531a1 1.0001 0 0 0-0.33789 0.064453c-2.1206 0.17239-3.8496 1.826-3.8496 3.9355a1.0001 1.0001 0 0 0 0 0.02149c0.00183 0.0808 0.0115 0.19639 0.01562 0.29687-0.14469 0.25945-0.21493 0.5404-0.22461 0.77149-0.01847 0.44113 0.08144 0.85398 0.25782 1.2695 0.08518 0.20073 0.21645 0.35219 0.33203 0.52148 0.00531 0.06848 0.00214 0.11836 0.04882 0.33203a1.0001 1.0001 0 0 0 0.02735 0.10157c0.08651 0.25954 0.28882 0.46998 0.42383 0.70507a1.0001 1.0001 0 0 0-0.19336-0.01953h-2a1.0001 1.0001 0 0 0-1 1v1h-1a1.0001 1.0001 0 0 0-1 1v2a1.0001 1.0001 0 0 0 1 1h1v1a1.0001 1.0001 0 0 0 1 1h2a1.0001 1.0001 0 0 0 1-1v-1h1a1.0001 1.0001 0 0 0 0.50195-0.1368 1.0001 1.0001 0 0 0 0.49805 0.1368h6.8124a1.0001 1.0001 0 0 0 0.9883-1.1524l-0.0625-0.4062 0.0117 0.1464c-0.0022-0.4074-0.1908-0.7539-0.3847-0.9785-0.1939-0.2245-0.4014-0.3717-0.6153-0.5039-0.4277-0.2643-0.9034-0.4615-1.3964-0.6621-0.8538-0.3474-1.6285-0.71191-2.0918-1.0117-0.0034-0.11011-0.0109-0.22053-0.0078-0.33203 0.158-0.24327 0.3219-0.4922 0.4804-0.75195 0.2125-0.34822 0.3975-0.64375 0.5274-1.0332a1.0001 1.0001 0 0 0 0.0234-0.08594c0.0488-0.2061 0.0614-0.30327 0.0781-0.4043 0.0959-0.15279 0.2042-0.29704 0.2754-0.46484 0.1687-0.39747 0.266-0.79359 0.2559-1.2109-0.0032-0.12904-0.175-0.25973-0.209-0.4043 0.0166-0.25226 0.0265-0.51142 0.0332-0.71093a1.0001 1.0001 0 0 0 0-0.03321c0-2.2385-1.9378-4-4.2188-4zm0 1h0.00195c1.779 0 3.2188 1.3397 3.2188 3-0.0071 0.20115-0.0163 0.45462-0.0313 0.6875 0.2632 0.1657 0.2766 0.70132 0.0313 1.2793-0.0873 0.2056-0.1942 0.38777-0.3126 0.53125-0.038 0.1736-0.0457 0.29839-0.0937 0.5-0.1327 0.3981-0.6671 1.2025-1.0625 1.8125-0.026 0.40486-0.0207 0.8078 0.0293 1.2187 1.2347 1.0737 4.4587 1.6436 4.4687 2.5626l0.0625 0.4082h-6.8124v-1.9942-0.0058a1.0001 1.0001 0 0 0-0.92969-0.9981 1.0001 1.0001 0 0 0-0.07031-0.0019h-0.00586-0.27539c0.0793-0.49207 0.0416-0.94046 0-1.375-0.43382-0.5784-0.88085-1.2676-1-1.625-0.0427-0.19543-0.028-0.26651-0.0625-0.4375-0.14219-0.15304-0.2726-0.35249-0.375-0.59375-0.25822-0.6084-0.2417-1.1834 0.0625-1.3125-0.0168-0.21537-0.02725-0.47945-0.03125-0.65625 0-1.6603 1.4086-3 3.1875-3zm-5.5 8h2v2h2v2h-2v2h-2v-2h-2v-2h2v-2z" fill="#fff" opacity=".05"/>
 <path id="base" d="m8.4985 1.001c-1.7789 0-3.1875 1.3397-3.1875 3 4e-3 0.1768 0.0144 0.44088 0.0312 0.65625-0.3042 0.12911-0.32072 0.7041-0.0625 1.3125 0.1024 0.24126 0.23281 0.44071 0.375 0.59375 0.0345 0.17099 0.0198 0.24207 0.0625 0.4375 0.11915 0.35745 0.56618 1.0466 1 1.625 0.0416 0.43459 0.0793 0.88298 0 1.375h0.28125a0.98628 0.98628 0 0 1 1 1v2h6.8125l-0.0625-0.40625c-5e-3 -0.9189-3.234-1.4888-4.4688-2.5625-0.05-0.411-0.0566-0.81394-0.0312-1.2188 0.39531-0.61004 0.92979-1.4144 1.0625-1.8125 0.0477-0.20161 0.0565-0.3264 0.0937-0.5 0.11845-0.14348 0.22524-0.32565 0.3125-0.53125 0.2453-0.57798 0.23229-1.1155-0.0312-1.2812 0.0155-0.23288 0.0244-0.48635 0.0312-0.6875 0-1.6603-1.4399-3-3.2188-3zm-5.5 8v2h-2v2h2v2h2v-2h2v-2h-2v-2h-2z" fill="url(#gr0)"/>
 <path id="path15" d="m8.498 1.002c-1.7789 0-3.1875 1.3397-3.1875 3 4e-3 0.1768 0.01445 0.44088 0.03125 0.65625-0.3042 0.12911-0.32072 0.7041-0.0625 1.3125 0.1024 0.24126 0.23281 0.44071 0.375 0.59375 0.0345 0.17099 0.0198 0.24207 0.0625 0.4375 0.11915 0.35745 0.56618 1.0466 1 1.625 0.0416 0.43459 0.0793 0.88298 0 1.375h0.28125a0.98628 0.98628 0 0 1 0.47656 0.1152 0.50005 0.50005 0 0 0-0.26172-0.56447c0.00823-0.33692 0.02919-0.69003 0.00195-0.97461a0.50005 0.50005 0 0 0-0.09765-0.25195c-0.4146-0.55277-0.85023-1.2761-0.91797-1.4688-0.02245-0.12221-0.01335-0.18768-0.05469-0.39258a0.50005 0.50005 0 0 0-0.12305-0.24218c-0.0985-0.10603-0.19977-0.25727-0.28125-0.44922-0.10548-0.24853-0.1462-0.4858-0.14062-0.61914 0.00239-0.05717 0.00553-0.06682 0.00391-0.07032a0.50005 0.50005 0 0 1-0.06641 0.03321c0.05177-0.02198 0.06424-0.03786 0.06641-0.03321a0.50005 0.50005 0 0 0 0.23632-0.46484c-0.01529-0.19601-0.02531-0.44855-0.02929-0.61719v-0.00195c0.00111-1.3766 1.1604-2.498 2.6875-2.498 1.5264 0 2.7164 1.1267 2.7188 2.4961-0.0067 0.19842-0.0149 0.44115-0.0293 0.6582a0.50005 0.50005 0 0 0 0.1914 0.42578c0.0017 0.00811 0.0121 0.0393 0.0137 0.10547 0.0032 0.13234-0.0352 0.35119-0.1348 0.58594-0.0714 0.16832-0.1582 0.31313-0.2383 0.41015a0.50005 0.50005 0 0 0-0.1035 0.21289c-0.0411 0.1919-0.0523 0.30495-0.0859 0.45704-0.0375 0.10785-0.1884 0.40073-0.3789 0.71289-0.1932 0.31655-0.424 0.66745-0.62308 0.97461a0.50005 0.50005 0 0 0-0.07812 0.24023c-0.02704 0.43095-0.02089 0.86589 0.0332 1.3106a0.50005 0.50005 0 0 0 0.16797 0.3184c0.74723 0.6497 1.8856 1.0371 2.8359 1.4238 0.4752 0.1933 0.9017 0.3819 1.1719 0.5488 0.0769 0.0476 0.1046 0.0798 0.1523 0.1192h-5.6132v-1.5a0.50005 0.50005 0 0 0-0.61914-0.4844 0.98628 0.98628 0 0 1 0.11914 0.4844v2h6.8124l-0.0625-0.4082c-0.01-0.919-3.234-1.4889-4.4687-2.5626-0.05-0.4109-0.0553-0.81384-0.0293-1.2187 0.3954-0.61004 0.9298-1.4144 1.0625-1.8125 0.048-0.20161 0.0557-0.3264 0.0937-0.5 0.1184-0.14348 0.2253-0.32565 0.3126-0.53125 0.2453-0.57798 0.2319-1.1136-0.0313-1.2793 0.015-0.23288 0.0242-0.48635 0.0313-0.6875 0-1.6603-1.4398-3-3.2188-3h-0.00195zm-5.5 8v2h-2v2h2v2h2v-2h2v-2h-2v-2h-2zm0.5 0.5h1v1.5a0.50005 0.50005 0 0 0 0.5 0.5h1.5v1h-1.5a0.50005 0.50005 0 0 0-0.5 0.5v1.5h-1v-1.5a0.50005 0.50005 0 0 0-0.5-0.5h-1.5v-1h1.5a0.50005 0.50005 0 0 0 0.5-0.5v-1.5z" opacity=".3"/>
 <path id="path20" d="m5.2188 5.7812c-0.1669 0.22551-0.15198 0.68872 0.06055 1.1894 0.1024 0.24126 0.23281 0.44071 0.375 0.59375 0.0345 0.17099 0.0198 0.24207 0.0625 0.4375 0.11915 0.35745 0.56618 1.0466 1 1.625 0.00569 0.05943 0.00646 0.12163 0.01172 0.18164 0.04283-0.41534 0.02422-0.80614-0.01172-1.1816-0.43382-0.5784-0.88085-1.2676-1-1.625-0.0427-0.19543-0.028-0.26651-0.0625-0.4375-0.14219-0.15304-0.2726-0.35249-0.375-0.59375-0.0275-0.06478-0.0393-0.12593-0.06055-0.18945zm6.5546 0.01563c-0.0196 0.05789-0.0296 0.11278-0.0546 0.17187-0.0873 0.2056-0.1942 0.38777-0.3126 0.53125-0.038 0.1736-0.0457 0.29839-0.0937 0.5-0.1327 0.3981-0.6671 1.2025-1.0625 1.8125-0.0209 0.32594-0.0153 0.65184 0.0117 0.98047 0.3942-0.60779 0.9194-1.3988 1.0508-1.793 0.048-0.20161 0.0557-0.3264 0.0937-0.5 0.1184-0.14348 0.2253-0.32565 0.3126-0.53125 0.2102-0.49528 0.2187-0.94452 0.0546-1.1719zm-5.0312 4.2051c0.0218 0.3191 0.03152 0.6469-0.02539 1h0.28125a0.98628 0.98628 0 0 1 1 1v-1a0.98628 0.98628 0 0 0-1-1h-0.25586zm-5.7441 3v1h2v-1h-2zm4 0v1h2v-1h-2zm3 0v1h6.8124l-0.0625-0.4082c-0.0023-0.2129-0.188-0.4058-0.4707-0.5918h-6.2792zm-5 2v1h2v-1h-2z" fill="#fff" opacity=".2"/>
 <path id="path25" d="m8.498 1.002c-1.7789 0-3.1875 1.3397-3.1875 3 4e-3 0.1768 0.01445 0.44088 0.03125 0.65625-0.27181 0.11537-0.30137 0.58997-0.12305 1.123 0.03589-0.04849 0.06921-0.1002 0.12305-0.12305-0.0168-0.21537-0.02725-0.47945-0.03125-0.65625 0-1.6603 1.4086-3 3.1875-3h0.00195c1.779 0 3.2188 1.3397 3.2188 3-0.0071 0.20115-0.0163 0.45462-0.0313 0.6875 0.0377 0.02371 0.0585 0.06946 0.0859 0.10743 0.1729-0.50835 0.1504-0.95867-0.0859-1.1074 0.015-0.23288 0.0242-0.48635 0.0313-0.6875 0-1.6603-1.4398-3-3.2188-3h-0.00195zm-5.5 8v1h2v-1h-2zm7.2636 0.79102c-0.0039 0.00598-0.0078 0.01358-0.0117 0.01953-0.026 0.4048-0.0207 0.8078 0.0293 1.2187 0.9486 0.825 3.0607 1.3538 3.998 1.9708h0.5332l-0.0625-0.4082c-0.01-0.919-3.234-1.4889-4.4687-2.5626-0.0097-0.08006-0.011-0.15866-0.0176-0.23823zm-3.5332 0.01562c-0.00674 0.06536-9.4e-4 0.12646-0.01172 0.19341h0.02539c-0.00443-0.06481-0.00808-0.12949-0.01367-0.19341zm-5.7305 1.1934v1h2v-1h-2zm4 0v1h2v-1h-0.28125-1.7188z" opacity=".3"/>
</svg>
