<?xml version="1.0" encoding="UTF-8"?>
<svg id="svg30" width="16" height="16" version="1.1" xmlns="http://www.w3.org/2000/svg" xmlns:cc="http://creativecommons.org/ns#" xmlns:dc="http://purl.org/dc/elements/1.1/" xmlns:rdf="http://www.w3.org/1999/02/22-rdf-syntax-ns#">
 <metadata id="metadata34">
  <rdf:RDF>
   <cc:Work rdf:about="">
    <dc:format>image/svg+xml</dc:format>
    <dc:type rdf:resource="http://purl.org/dc/dcmitype/StillImage"/>
   </cc:Work>
  </rdf:RDF>
 </metadata>
 <defs id="defs7">
  <radialGradient id="gr0" cx="9" cy="10" r="11" gradientTransform="matrix(1 0 0 .72727 0 2.7273)" gradientUnits="userSpaceOnUse">
   <stop id="stop2" stop-opacity=".23529" offset="0"/>
   <stop id="stop4" stop-opacity=".54902" offset="1"/>
  </radialGradient>
 </defs>
 <path id="path9" d="m2 0c-1.0907-1.4572e-16 -2 0.9093-2 2v13a1 1.0001 0 0 0 1 1h2 12a1.0001 1.0001 0 0 0 1-1v-13c0-1.0907-0.9093-2-2-2h-12zm0 1h12c0.554 0 1 0.446 1 1v13h-12-2v-13c0-0.554 0.446-1 1-1zm6 1v1h1v-1h-1zm2 0v1h1v-1h-1zm2 0v1h1v-1h-1zm-9 2v4.4922c0.6897-2.0792 2.713-3.4923 5-3.4922 2.291 2e-3 4.316 1.4225 5 3.5078v-4.5078h-10zm10 4.5078c-0.69 2.0792-2.713 3.4922-5 3.4922-2.2914-2e-3 -4.3161-1.422-5-3.5078v4.5078h10v-4.4922zm-9-3.5078h0.62695c-0.22329 0.1389-0.42362 0.29372-0.62695 0.45898v-0.45898zm7.3633 0h0.6367v0.46484c-0.206-0.16794-0.4101-0.32401-0.6367-0.46484zm-3.3633 1c-1.8295-1e-4 -3.4481 1.0091-4 2.4941 0.5469 1.4897 2.1667 2.5049 4 2.5059 1.8295 0 3.448-1.0091 4-2.4941-0.533-1.4461-2.0802-2.4483-3.8594-2.5 1.047 0.0738 1.8589 0.94454 1.8594 1.9941 0 1.1046-0.8954 2-2 2s-2-0.8954-2-2 0.8954-2 2-2zm-4 5.5352c0.20605 0.1679 0.41011 0.324 0.63672 0.4648h-0.63672v-0.4648zm8 0.0058v0.459h-0.627c0.2233-0.1389 0.4237-0.2937 0.627-0.459z" fill="#fff" opacity=".05"/>
 <path id="base" d="m2 1c-0.554 0-1 0.446-1 1v13h14v-13c0-0.554-0.446-1-1-1zm6 1h1v1h-1zm2 0h1v1h-1zm2 0h1v1h-1zm-9 2h10v9h-10v-4.5078zm0 4.4922c0.6839 2.0858 2.7086 3.5058 5 3.5078 2.287 0 4.31-1.413 5-3.4922-0.684-2.0853-2.709-3.5058-5-3.5078-2.287-1e-4 -4.3103 1.413-5 3.4922zm5-2.4922c-1.1046 0-2 0.8954-2 2s0.8954 2 2 2 2-0.8954 2-2c-5e-4 -1.0496-0.8124-1.9203-1.8594-1.9941 1.7792 0.0517 3.3264 1.0539 3.8594 2.5-0.552 1.485-2.1705 2.4941-4 2.4941-1.8333-1e-3 -3.4531-1.0162-4-2.5059 0.5519-1.485 2.1705-2.4942 4-2.4941z" fill="url(#gr0)"/>
 <path id="path15" d="m2 1c-0.554 0-1 0.446-1 1v13h2 12v-13c0-0.554-0.446-1-1-1h-12zm0 0.5h6a0.50005 0.50005 0 0 0-0.5 0.5v1a0.50005 0.50005 0 0 0 0.5 0.5h-5a0.50005 0.50005 0 0 0-0.5 0.5v4.4922 4.5078a0.50005 0.50005 0 0 0 0.5 0.5h10a0.50005 0.50005 0 0 0 0.5-0.5v-4.4922-4.5078a0.50005 0.50005 0 0 0-0.5-0.5 0.50005 0.50005 0 0 0 0.5-0.5v-1a0.50005 0.50005 0 0 0-0.5-0.5h1c0.2856 0 0.5 0.21435 0.5 0.5v12.5h-11.5-1.5v-12.5c0-0.28565 0.21435-0.5 0.5-0.5zm7 0h1a0.50005 0.50005 0 0 0-0.5 0.5 0.50005 0.50005 0 0 0-0.5-0.5zm2 0h1a0.50005 0.50005 0 0 0-0.5 0.5 0.50005 0.50005 0 0 0-0.5-0.5zm-3 0.5h1v1h-1v-1zm2 0h1v1h-1v-1zm2 0h1v1h-1v-1zm-2.5 1a0.50005 0.50005 0 0 0 0.5 0.5h-1a0.50005 0.50005 0 0 0 0.5-0.5zm2 0a0.50005 0.50005 0 0 0 0.5 0.5h-1a0.50005 0.50005 0 0 0 0.5-0.5zm-8.5 1h10v4.5078 4.4922h-10v-4.5078-4.4922zm0 4.4922c0.6839 2.0858 2.7086 3.5058 5 3.5078 2.287 0 4.31-1.413 5-3.4922-0.684-2.0853-2.709-3.5058-5-3.5078-2.287-1e-4 -4.3103 1.413-5 3.4922zm5-2.4922c-1.1046 0-2 0.8954-2 2s0.8954 2 2 2 2-0.8954 2-2c-5e-4 -1.0496-0.81237-1.9203-1.8594-1.9941 1.7792 0.0517 3.3264 1.0539 3.8594 2.5-0.552 1.485-2.1705 2.4941-4 2.4941-1.8333-1e-3 -3.4531-1.0162-4-2.5059 0.5519-1.485 2.1705-2.4942 4-2.4941zm0.05078 0.49609a0.50005 0.50005 0 0 0 0.05469 0.00782c0.78993 0.05568 1.3942 0.7042 1.3945 1.4961 0 0.8344-0.6656 1.5-1.5 1.5s-1.5-0.6656-1.5-1.5 0.6656-1.5 1.5-1.5a0.50005 0.50005 0 0 0 0.05078-0.00391z" opacity=".3"/>
 <path id="path20" d="m8 2v1h1v-1h-1zm2 0v1h1v-1h-1zm2 0v1h1v-1h-1zm-9 2v1h5 5v-1h-1-1-1-1-1-5zm5 2c-0.24023-1e-5 -0.47582 0.02438-0.70898 0.05469-1.5271 0.2229-2.8119 1.1502-3.291 2.4394 0.06413 0.17468 0.14604 0.3412 0.23828 0.50195 0.40589-0.70289 1.0662-1.2617 1.8672-1.6074 0.25952-0.80352 1.0046-1.3887 1.8945-1.3887zm0.19727 0.01562c0.81063 0.08062 1.4648 0.63858 1.7012 1.3828 0.79916 0.34675 1.4595 0.90299 1.8633 1.6035 0.0917-0.15902 0.1741-0.32335 0.2383-0.49609-0.5014-1.3603-1.9037-2.3177-3.5488-2.4707-0.08465-0.00708-0.16836-0.01637-0.2539-0.01954zm-2.127 2.4844c-0.04165 0.16076-0.07031 0.32621-0.07031 0.5 0 1.1046 0.8954 2 2 2s2-0.8954 2-2c-8e-5 -0.17321-0.02863-0.33931-0.07031-0.5-0.22311 0.86103-0.99888 1.5-1.9297 1.5s-1.7066-0.63897-1.9297-1.5zm-2.8574 0.49414c-0.07552 0.16383-0.15532 0.32451-0.21289 0.49805 0.6839 2.0858 2.7086 3.5058 5 3.5078 2.287 0 4.31-1.413 5-3.4922-0.0573-0.17459-0.1375-0.33712-0.2129-0.50195-0.7345 1.5928-2.2768 2.7052-4.0781 2.9394-0.23189 0.0339-0.46779 0.0547-0.70898 0.0547-0.24644-1e-4 -0.48797-0.0212-0.72461-0.0566-1.7972-0.2409-3.3337-1.3564-4.0625-2.9493zm-2.2129 6.0059v1h2 12v-1h-12-2z" fill="#fff" opacity=".2"/>
 <path id="path25" d="m2 1c-0.554 0-1 0.446-1 1v1c0-0.554 0.446-1 1-1h6 1 1 1 1 1 1c0.554 0 1 0.446 1 1v-1c0-0.554-0.446-1-1-1h-12zm6 2v1h1v-1h-1zm2 0v1h1v-1h-1zm2 0v1h1v-1h-1zm-4 2c-2.287-1e-4 -4.3103 1.413-5 3.4922 0.05726 0.17463 0.13746 0.33709 0.21289 0.50195 0.73429-1.5928 2.2768-2.7053 4.0781-2.9394 0.2319-0.03385 0.46779-0.0547 0.70898-0.05469 0.06696 6e-5 0.13079 0.01316 0.19727 0.01562-0.01931-0.00192-0.03717-0.00839-0.05665-0.00976 0.10555 0.00307 0.2068 0.01965 0.31055 0.0293 1.9118 0.1599 3.5706 1.2984 4.3359 2.9707 0.0756-0.16382 0.1553-0.32451 0.2129-0.49805-0.684-2.0853-2.709-3.5058-5-3.5078zm0 2c-0.67508-4e-5 -1.3199 0.14066-1.8945 0.38867-0.06261 0.19384-0.10547 0.39665-0.10547 0.61133 0 0.17379 0.02866 0.33924 0.07031 0.5 0.22311-0.86103 0.99888-1.5 1.9297-1.5zm0.14062 0.00586c0.87423 0.06162 1.5782 0.6811 1.7891 1.4941 0.04165-0.16076 0.07031-0.32621 0.07031-0.5-1e-4 -0.21043-0.04088-0.41049-0.10156-0.60156-0.53526-0.23226-1.1306-0.37436-1.7578-0.39258zm-3.9023 1.9902c-0.09209 0.15949-0.17388 0.32476-0.23828 0.49805 0.47338 1.2895 1.7517 2.2208 3.2754 2.4493 0.2385 0.0319 0.47864 0.0564 0.72461 0.0566 0.24023 0 0.47582-0.0244 0.70898-0.0547 1.5271-0.2229 2.8118-1.1502 3.291-2.4394-0.0646-0.17527-0.1453-0.34258-0.2383-0.50391-0.6968 1.208-2.145 1.998-3.7617 1.998-1.6183-9e-4 -3.0673-0.7937-3.7617-2.0039zm-1.2383 4.0039v1h10v-1h-5-5z" opacity=".3"/>
</svg>
