<?xml version="1.0" encoding="UTF-8"?>
<svg id="svg30" width="16" height="16" version="1.1" xmlns="http://www.w3.org/2000/svg" xmlns:cc="http://creativecommons.org/ns#" xmlns:dc="http://purl.org/dc/elements/1.1/" xmlns:rdf="http://www.w3.org/1999/02/22-rdf-syntax-ns#">
 <metadata id="metadata34">
  <rdf:RDF>
   <cc:Work rdf:about="">
    <dc:format>image/svg+xml</dc:format>
    <dc:type rdf:resource="http://purl.org/dc/dcmitype/StillImage"/>
   </cc:Work>
  </rdf:RDF>
 </metadata>
 <defs id="defs7">
  <radialGradient id="gr0" cx="9" cy="10" r="11" gradientTransform="matrix(1 0 0 .72727 0 2.7273)" gradientUnits="userSpaceOnUse">
   <stop id="stop2" stop-opacity=".23529" offset="0"/>
   <stop id="stop4" stop-opacity=".54902" offset="1"/>
  </radialGradient>
 </defs>
 <path id="path9" d="m2 0c-1.0907-1.4572e-16 -2 0.9093-2 2v13a1 1.0001 0 0 0 1 1h2 12a1.0001 1.0001 0 0 0 1-1v-13c0-1.0907-0.9093-2-2-2h-12zm0 1h12c0.554 0 1 0.446 1 1v13h-12-2v-13c0-0.554 0.446-1 1-1zm6 1v1h1v-1h-1zm2 0v1h1v-1h-1zm2 0v1h1v-1h-1zm-9 2v9h10v-9h-10zm1 1h1v7h-1v-7zm2 0h6v2h-6v-2zm0 3h3v1h-3v-1zm4 0h2v2a1.0001 1.0001 0 0 0-1-1h-1v-1zm-4 2h5v2h-5v-2z" fill="#fff" opacity=".05"/>
 <path id="base" d="m2 1c-.554 0-1 .446-1 1v13h2 12v-13c0-.554-.446-1-1-1h-12zm6 1h1v1h-1v-1zm2 0h1v1h-1v-1zm2 0h1v1h-1v-1zm-9 2h10v9h-10v-9zm1 1v7h1v-7h-1zm2 0v2h6v-2h-6zm0 3v1h3v-1h-3zm0 2v2h5v-2h-5z" fill="url(#gr0)"/>
 <path id="path15" d="m2 1c-0.554 0-1 0.446-1 1v13h2 12v-13c0-0.554-0.446-1-1-1h-12zm0 0.5h6a0.50005 0.50005 0 0 0-0.5 0.5v1a0.50005 0.50005 0 0 0 0.5 0.5h-5a0.50005 0.50005 0 0 0-0.5 0.5v9a0.50005 0.50005 0 0 0 0.5 0.5h10a0.50005 0.50005 0 0 0 0.5-0.5v-9a0.50005 0.50005 0 0 0-0.5-0.5 0.50005 0.50005 0 0 0 0.5-0.5v-1a0.50005 0.50005 0 0 0-0.5-0.5h1c0.2856 0 0.5 0.21435 0.5 0.5v12.5h-11.5-1.5v-12.5c0-0.28565 0.21435-0.5 0.5-0.5zm7 0h1a0.50005 0.50005 0 0 0-0.5 0.5 0.50005 0.50005 0 0 0-0.5-0.5zm2 0h1a0.50005 0.50005 0 0 0-0.5 0.5 0.50005 0.50005 0 0 0-0.5-0.5zm-3 0.5h1v1h-1v-1zm2 0h1v1h-1v-1zm2 0h1v1h-1v-1zm-2.5 1a0.50005 0.50005 0 0 0 0.5 0.5h-1a0.50005 0.50005 0 0 0 0.5-0.5zm2 0a0.50005 0.50005 0 0 0 0.5 0.5h-1a0.50005 0.50005 0 0 0 0.5-0.5zm-8.5 1h10v9h-10v-9zm1 1v7h1v-7h-1zm2 0v2h6v-2h-6zm0.5 0.5h5v1h-5v-1zm-0.5 2.5v1h3v-1h-3zm0 2v2h5v-2h-5zm0.5 0.5h4v1h-4v-1z" opacity=".3"/>
 <path id="path20" d="m8 2v1h1v-1h-1zm2 0v1h1v-1h-1zm2 0v1h1v-1h-1zm-9 2v1h1 1 1 6 1v-1h-1-1-1-1-1-5zm3 3v1h3 3v-1h-6zm0 2v1h3v-1h-3zm-2 3v1h1v-1h-1zm2 0v1h5v-1h-5zm-5 3v1h2 12v-1h-12-2z" fill="#fff" opacity=".2"/>
 <path id="path25" d="m2 1c-0.554 0-1 0.446-1 1v1c0-0.554 0.446-1 1-1h6 1 1 1 1 1 1c0.554 0 1 0.446 1 1v-1c0-0.554-0.446-1-1-1h-12zm6 2v1h1v-1h-1zm2 0v1h1v-1h-1zm2 0v1h1v-1h-1zm-8 2v1h1v-1h-1zm2 0v1h6v-1h-6zm0 3v1h3v-1h-3zm0 2v1h5v-1h-2-3zm-3 3v1h10v-1h-2-5-1-1-1z" opacity=".3"/>
</svg>
