<?xml version="1.0" encoding="UTF-8"?>
<svg id="svg30" width="16" height="16" version="1.1" xmlns="http://www.w3.org/2000/svg" xmlns:cc="http://creativecommons.org/ns#" xmlns:dc="http://purl.org/dc/elements/1.1/" xmlns:rdf="http://www.w3.org/1999/02/22-rdf-syntax-ns#">
 <metadata id="metadata34">
  <rdf:RDF>
   <cc:Work rdf:about="">
    <dc:format>image/svg+xml</dc:format>
    <dc:type rdf:resource="http://purl.org/dc/dcmitype/StillImage"/>
   </cc:Work>
  </rdf:RDF>
 </metadata>
 <defs id="defs7">
  <radialGradient id="gr0" cx="9" cy="10" r="11" gradientTransform="matrix(1 0 0 .72727 0 2.7273)" gradientUnits="userSpaceOnUse">
   <stop id="stop2" stop-opacity=".23529" offset="0"/>
   <stop id="stop4" stop-opacity=".54902" offset="1"/>
  </radialGradient>
 </defs>
 <path id="path9" d="m2 0c-1.0907-1.4572e-16 -2 0.9093-2 2v13a1 1.0001 0 0 0 1 1h2 12a1.0001 1.0001 0 0 0 1-1v-13c0-1.0907-0.9093-2-2-2h-12zm0 1h12c0.554 0 1 0.446 1 1v13h-12-2v-13c0-0.554 0.446-1 1-1zm6 1v1h1v-1h-1zm2 0v1h1v-1h-1zm2 0v1h1v-1h-1zm-9 2v9h10v-9h-10zm1 1h2a1.0001 1.0001 0 0 0-0.70703 0.29297l-1.293 1.293v-1.5859zm2 1h6l-2 2h-6l2-2zm6 1.4141v0.58594h-0.5859l0.5859-0.58594zm-8 1.5859h0.58594l-0.58594 0.58594v-0.58594zm2 0h6l-2 2h-6l2-2zm6 1.4141v1.5859h-2a1.0001 1.0001 0 0 0 0.707-0.293l1.293-1.2929z" fill="#fff" opacity=".05"/>
 <path id="base" d="m2 1c-0.554 0-1 0.446-1 1v13h14v-13c0-0.554-0.446-1-1-1h-12zm6 1h1v1h-1v-1zm2 0h1v1h-1v-1zm2 0h1v1h-1v-1zm-9 2h10v9h-10v-9zm3 2-2 2h6l2-2h-6zm0 3-2 2h6l2-2h-6z" fill="url(#gr0)"/>
 <path id="path15" d="m2 1c-0.554 0-1 0.446-1 1v13h2 12v-13c0-0.554-0.446-1-1-1h-12zm0 0.5h6a0.50005 0.50005 0 0 0-0.5 0.5v1a0.50005 0.50005 0 0 0 0.5 0.5h-5a0.50005 0.50005 0 0 0-0.5 0.5v9a0.50005 0.50005 0 0 0 0.5 0.5h10a0.50005 0.50005 0 0 0 0.5-0.5v-9a0.50005 0.50005 0 0 0-0.5-0.5 0.50005 0.50005 0 0 0 0.5-0.5v-1a0.50005 0.50005 0 0 0-0.5-0.5h1c0.2856 0 0.5 0.21435 0.5 0.5v12.5h-11.5-1.5v-12.5c0-0.28565 0.21435-0.5 0.5-0.5zm7 0h1a0.50005 0.50005 0 0 0-0.5 0.5 0.50005 0.50005 0 0 0-0.5-0.5zm2 0h1a0.50005 0.50005 0 0 0-0.5 0.5 0.50005 0.50005 0 0 0-0.5-0.5zm-3 0.5h1v1h-1v-1zm2 0h1v1h-1v-1zm2 0h1v1h-1v-1zm-2.5 1a0.50005 0.50005 0 0 0 0.5 0.5h-1a0.50005 0.50005 0 0 0 0.5-0.5zm2 0a0.50005 0.50005 0 0 0 0.5 0.5h-1a0.50005 0.50005 0 0 0 0.5-0.5zm-8.5 1h10v9h-10v-9zm3 2-2 2h6l2-2h-6zm0.20703 0.5h4.586l-1 1h-4.5859l1-1zm-0.20703 2.5-2 2h6l2-2h-6zm0.20703 0.5h4.586l-1 1h-4.5859l1-1z" opacity=".3"/>
 <path id="path20" d="m8 2v1h1v-1h-1zm2 0v1h1v-1h-1zm2 0v1h1v-1h-1zm-9 2v1h10v-1h-1-1-1-1-1-5zm8 3-1 1h-5l-1 1h2 4l2-2h-1zm0 3-1 1h-5l-1 1h6l2-2h-1zm-10 5v1h2 12v-1h-12-2z" fill="#fff" opacity=".2"/>
 <path id="path25" d="m2 1c-0.554 0-1 0.446-1 1v1c0-0.554 0.446-1 1-1h6 1 1 1 1 1 1c0.554 0 1 0.446 1 1v-1c0-0.554-0.446-1-1-1h-12zm6 2v1h1v-1h-1zm2 0v1h1v-1h-1zm2 0v1h1v-1h-1zm-6 3-2 2h1l1-1h5l1-1h-6zm0 3-2 2h1l1-1h5l1-1h-2-4zm-3 4v1h10v-1h-10z" opacity=".3"/>
</svg>
