<?xml version="1.0" encoding="UTF-8"?>
<svg id="svg30" width="16" height="16" version="1.1" xmlns="http://www.w3.org/2000/svg" xmlns:cc="http://creativecommons.org/ns#" xmlns:dc="http://purl.org/dc/elements/1.1/" xmlns:rdf="http://www.w3.org/1999/02/22-rdf-syntax-ns#">
 <metadata id="metadata34">
  <rdf:RDF>
   <cc:Work rdf:about="">
    <dc:format>image/svg+xml</dc:format>
    <dc:type rdf:resource="http://purl.org/dc/dcmitype/StillImage"/>
   </cc:Work>
  </rdf:RDF>
 </metadata>
 <defs id="defs7">
  <radialGradient id="gr0" cx="9" cy="10" r="11" gradientTransform="matrix(1 0 0 .54545 0 4.5455)" gradientUnits="userSpaceOnUse">
   <stop id="stop2" stop-opacity=".23529" offset="0"/>
   <stop id="stop4" stop-opacity=".54902" offset="1"/>
  </radialGradient>
 </defs>
 <path id="path9" d="m12 2a1 1.0001 0 0 0-1 1v2.7988c0 0.84934-0.1162 1.1591-0.0762 1.1289-0.0122 0.00312-0.0135 0.00383-0.0566 0.01368-0.1369 0.03122-0.4259 0.05859-0.8418 0.05859h-2.0254v-2a1.0001 1.0001 0 0 0-1.5547-0.83203l-6 4a1.0001 1.0001 0 0 0 0 1.6641l6 4a1.0001 1.0001 0 0 0 1.5547-0.832v-2h3.2324c0.9316 0 1.8363-0.2097 2.5645-0.7598 0.7282-0.54996 1.1964-1.476 1.2031-2.5097a1.0001 1.0001 0 0 0 0-0.00781v-4.7227a1.0001 1.0001 0 0 0-1-1h-2zm0 1h2v4.7227c-0.01 1.5505-1.2166 2.2773-2.7676 2.2773h-4.2324v3l-6-4 6-4v3h3.0254c1.7925 0 1.9746-0.34647 1.9746-2.2012v-2.7988z" fill="#fff" opacity=".05"/>
 <path id="base" d="m12 3v2.7994c0 1.8547-0.18255 2.2006-1.975 2.2006h-3.025v-3l-6 4 6 4v-3h4.2325c1.551 0 2.758-0.726 2.768-2.2765v-4.7235z" fill="url(#gr0)"/>
 <path id="path15" d="m12 3v2.7988c0 1.8547-0.1821 2.2012-1.9746 2.2012h-3.0254v-3l-6 4 6 4v-3h4.2324c1.551 0 2.7576-0.72684 2.7676-2.2773v-4.7227h-2zm0.5 0.5h1v4.2207 0.00196c-0.0047 0.64465-0.2266 1.0346-0.6074 1.3223-0.3812 0.28796-0.9627 0.45508-1.6602 0.45508h-4.2324a0.50005 0.50005 0 0 0-0.5 0.5v2.0664l-4.5977-3.0664 4.5977-3.0664v2.0664a0.50005 0.50005 0 0 0 0.5 0.5h3.0254c0.4642 0 0.8404-0.0192 1.1758-0.0957 0.3353-0.07651 0.6475-0.22939 0.8652-0.48633 0.4354-0.51388 0.4336-1.1754 0.4336-2.1191v-2.2988z" opacity=".3"/>
 <path id="path20" d="m14 7.7227c-0.01 1.5505-1.2166 2.2773-2.7676 2.2773h-4.2324v1h4.2324c1.551 0 2.7576-0.7268 2.7676-2.2773v-1zm-12.25 1.7773-0.75 0.5 6 4v-1l-5.25-3.5z" fill="#fff" opacity=".2"/>
 <path id="path25" d="m12 3v1h2v-1h-2zm-5 2-6 4 0.75 0.5 5.25-3.5v-1zm5 0.79883c0 1.8547-0.1821 2.2012-1.9746 2.2012h-3.0254v1h3.0254c1.7925 0 1.9746-0.34647 1.9746-2.2012v-1z" opacity=".3"/>
</svg>
