<?xml version="1.0" encoding="UTF-8"?>
<svg id="svg30" width="16" height="16" version="1.1" xmlns="http://www.w3.org/2000/svg" xmlns:cc="http://creativecommons.org/ns#" xmlns:dc="http://purl.org/dc/elements/1.1/" xmlns:rdf="http://www.w3.org/1999/02/22-rdf-syntax-ns#">
 <metadata id="metadata34">
  <rdf:RDF>
   <cc:Work rdf:about="">
    <dc:format>image/svg+xml</dc:format>
    <dc:type rdf:resource="http://purl.org/dc/dcmitype/StillImage"/>
   </cc:Work>
  </rdf:RDF>
 </metadata>
 <defs id="defs7">
  <radialGradient id="gr0" cx="9" cy="10" r="11" gradientTransform="matrix(1 0 0 .72727 0 2.7273)" gradientUnits="userSpaceOnUse">
   <stop id="stop2" stop-opacity=".23529" offset="0"/>
   <stop id="stop4" stop-opacity=".54902" offset="1"/>
  </radialGradient>
 </defs>
 <path id="path9" d="m2 0c-1.0907-1.4572e-16 -2 0.9093-2 2v13a1 1.0001 0 0 0 1 1h2 12a1.0001 1.0001 0 0 0 1-1v-13c0-1.0907-0.9093-2-2-2h-12zm0 1h12c0.554 0 1 0.446 1 1v13h-12-2v-13c0-0.554 0.446-1 1-1zm6 1v1h1v-1h-1zm2 0v1h1v-1h-1zm2 0v1h1v-1h-1zm-9 2v9h10v-9h-10zm1 1h1.1367l-0.66211 0.66211c-0.35111 0.35111-0.34458 0.85641-0.18164 1.2988-0.09837 0.04406-0.20911 0.05425-0.29297 0.12109v-2.082zm3.5176 0h0.96484c0.1378 0 0.25 0.11381 0.25 0.25391v0.49414c0.2463 0.0657 0.48197 0.16386 0.69727 0.28906l0.35156-0.34961c0.0991-0.0992 0.25165-0.10326 0.34965-0.00586l0.6875 0.6875c0.094 0.0974 0.0902 0.25051-0.0098 0.34961l-0.3496 0.35156c0.125 0.2153 0.223 0.45097 0.289 0.69727h0.4942c0.14 0 0.2539 0.1122 0.2539 0.25v0.96484c0 0.1378-0.1139 0.25-0.2539 0.25h-0.4942c-0.066 0.2463-0.164 0.48197-0.289 0.69727l0.3496 0.35151c0.103 0.099 0.1078 0.2517 0.0098 0.3497l-0.6875 0.6875c-0.098 0.094-0.25055 0.0902-0.34965-0.0098l-0.35156-0.3496c-0.2153 0.125-0.45097 0.223-0.69727 0.289v0.4942c0 0.14-0.1122 0.2539-0.25 0.2539h-0.96484c-0.1378 0-0.25-0.1139-0.25-0.2539v-0.4942c-0.2463-0.066-0.48197-0.164-0.69727-0.289l-0.35156 0.3496c-0.0991 0.103-0.25221 0.1078-0.34961 0.0098l-0.6875-0.6875c-0.0973-0.098-0.09324-0.2506 0.00586-0.3497l0.34961-0.35151c-0.1252-0.2153-0.22336-0.45097-0.28906-0.69727h-0.49414c-0.1401 0-0.25391-0.1122-0.25391-0.25v-0.96484c0-0.1378 0.11381-0.25 0.25391-0.25h0.49414c0.0657-0.2463 0.16386-0.48197 0.28906-0.69727l-0.34961-0.35156c-0.0991-0.0991-0.10326-0.25221-0.00586-0.34961l0.6875-0.6875c0.0487-0.0487 0.11364-0.07081 0.17774-0.07031 0.06409 6e-4 0.12227 0.02667 0.17187 0.07617l0.35156 0.34961c0.2153-0.1252 0.45097-0.22336 0.69727-0.28906v-0.49414c0-0.1401 0.1122-0.25391 0.25-0.25391zm3.3457 0h1.1367v2.082c-0.0841-0.06695-0.1943-0.07899-0.293-0.12305 0.1618-0.44286 0.1675-0.94818-0.1816-1.2969l-2e-3 -0.00195-0.6601-0.66016zm-2.8633 2.4414c-0.5841 0-1.0586 0.47449-1.0586 1.0586s0.47449 1.0586 1.0586 1.0586 1.0586-0.47449 1.0586-1.0586-0.47449-1.0586-1.0586-1.0586zm0 1c0.04253 0 0.05859 0.01606 0.05859 0.05859s-0.01606 0.05859-0.05859 0.05859-0.05859-0.01606-0.05859-0.05859 0.01606-0.05859 0.05859-0.05859zm-4 1.4766c0.08386 0.06684 0.1946 0.07699 0.29297 0.12113-0.16241 0.4421-0.16813 0.9469 0.17969 1.2968a1.0001 1.0001 0 0 0 0.00195 2e-3l0.66211 0.6621h-1.1367v-2.082zm8 0v2.082h-1.1367l0.6621-0.6621c0.3505-0.3505 0.344-0.8565 0.1816-1.2988 0.0984-0.04409 0.2091-0.05434 0.293-0.12113z" fill="#fff" opacity=".05"/>
 <path id="base" d="m2 1c-0.554 0-1 0.446-1 1v13h14v-13c0-0.554-0.446-1-1-1h-12zm6 1h1v1h-1v-1zm2 0h1v1h-1v-1zm2 0h1v1h-1v-1zm-9 2h10v9h-10v-9zm4.5176 1c-0.1378 0-0.25 0.1138-0.25 0.2539v0.4941c-0.2463 0.0657-0.482 0.1639-0.6973 0.2891l-0.3515-0.3496c-0.0496-0.0495-0.1078-0.0756-0.1719-0.0762-0.0641-5e-4 -0.1291 0.0216-0.1778 0.0703l-0.6875 0.6875c-0.0974 0.0974-0.0931 0.2506 0.0059 0.3497l0.3496 0.3515c-0.1252 0.2153-0.2234 0.451-0.2891 0.6973h-0.4941c-0.1401 0-0.2539 0.1122-0.2539 0.25v0.9648c0 0.1378 0.1138 0.25 0.2539 0.25h0.4941c0.0657 0.2463 0.1639 0.482 0.2891 0.6973l-0.3496 0.3513c-0.0991 0.099-0.1033 0.252-0.0059 0.35l0.6875 0.687c0.0974 0.098 0.2506 0.093 0.3497-6e-3l0.3515-0.349c0.2153 0.125 0.451 0.223 0.6973 0.289v0.494c0 0.14 0.1122 0.254 0.25 0.254h0.9648c0.1378 0 0.25-0.114 0.25-0.254v-0.494c0.2463-0.066 0.482-0.164 0.6973-0.289l0.3515 0.349c0.0991 0.1 0.2518 0.104 0.3498 6e-3l0.687-0.687c0.098-0.098 0.093-0.251-6e-3 -0.35l-0.349-0.3513c0.125-0.2153 0.223-0.451 0.289-0.6973h0.494c0.14 0 0.254-0.1122 0.254-0.25v-0.9648c0-0.1378-0.114-0.25-0.254-0.25h-0.494c-0.066-0.2463-0.164-0.482-0.289-0.6973l0.349-0.3515c0.1-0.0991 0.104-0.2523 6e-3 -0.3497l-0.687-0.6875c-0.098-0.0974-0.2507-0.0932-0.3498 0.0059l-0.3515 0.3496c-0.2153-0.1252-0.451-0.2234-0.6973-0.2891v-0.4941c0-0.1401-0.1122-0.2539-0.25-0.2539h-0.9648zm0.4824 2.4414c0.5841 0 1.0586 0.4745 1.0586 1.0586s-0.4745 1.0586-1.0586 1.0586-1.0586-0.4745-1.0586-1.0586 0.4745-1.0586 1.0586-1.0586z" fill="url(#gr0)"/>
 <path id="path15" d="m2 1c-0.554 0-1 0.446-1 1v13h2 12v-13c0-0.554-0.446-1-1-1h-12zm0 0.5h6a0.50005 0.50005 0 0 0-0.5 0.5v1a0.50005 0.50005 0 0 0 0.5 0.5h-5a0.50005 0.50005 0 0 0-0.5 0.5v9a0.50005 0.50005 0 0 0 0.5 0.5h10a0.50005 0.50005 0 0 0 0.5-0.5v-9a0.50005 0.50005 0 0 0-0.5-0.5 0.50005 0.50005 0 0 0 0.5-0.5v-1a0.50005 0.50005 0 0 0-0.5-0.5h1c0.2856 0 0.5 0.21435 0.5 0.5v12.5h-11.5-1.5v-12.5c0-0.28565 0.21435-0.5 0.5-0.5zm7 0h1a0.50005 0.50005 0 0 0-0.5 0.5 0.50005 0.50005 0 0 0-0.5-0.5zm2 0h1a0.50005 0.50005 0 0 0-0.5 0.5 0.50005 0.50005 0 0 0-0.5-0.5zm-3 0.5h1v1h-1v-1zm2 0h1v1h-1v-1zm2 0h1v1h-1v-1zm-2.5 1a0.50005 0.50005 0 0 0 0.5 0.5h-1a0.50005 0.50005 0 0 0 0.5-0.5zm2 0a0.50005 0.50005 0 0 0 0.5 0.5h-1a0.50005 0.50005 0 0 0 0.5-0.5zm-8.5 1h10v9h-10v-9zm4.5176 1c-0.1378 0-0.25 0.11381-0.25 0.25391v0.49414c-0.2463 0.0657-0.48197 0.16386-0.69727 0.28906l-0.35156-0.34961c-0.0496-0.0495-0.10778-0.07557-0.17187-0.07617-0.0641-5e-4 -0.12904 0.02161-0.17774 0.07031l-0.6875 0.6875c-0.0974 0.0974-0.09324 0.25051 0.00586 0.34961l0.34961 0.35156c-0.1252 0.2153-0.22336 0.45097-0.28906 0.69727h-0.49414c-0.1401 0-0.25391 0.1122-0.25391 0.25v0.96484c0 0.1378 0.11381 0.25 0.25391 0.25h0.49414c0.0657 0.2463 0.16386 0.48197 0.28906 0.69727l-0.34961 0.35151c-0.0991 0.0991-0.10316 0.2517-0.00586 0.3497l0.6875 0.6875c0.0974 0.098 0.25051 0.0932 0.34961-0.0098l0.35156-0.3496c0.2153 0.125 0.45097 0.223 0.69727 0.289v0.4942c0 0.14 0.1122 0.2539 0.25 0.2539h0.96484c0.1378 0 0.25-0.1139 0.25-0.2539v-0.4942c0.2463-0.066 0.48197-0.164 0.69727-0.289l0.35156 0.3496c0.0991 0.1 0.25165 0.1038 0.34965 0.0098l0.6875-0.6875c0.098-0.098 0.0932-0.2507-0.0098-0.3497l-0.3496-0.35151c0.125-0.2153 0.223-0.45097 0.289-0.69727h0.4942c0.14 0 0.2539-0.1122 0.2539-0.25v-0.96484c0-0.1378-0.1139-0.25-0.2539-0.25h-0.4942c-0.066-0.2463-0.164-0.48197-0.289-0.69727l0.3496-0.35156c0.1-0.0991 0.1038-0.25221 0.0098-0.34961l-0.6875-0.6875c-0.098-0.0974-0.25055-0.09334-0.34965 0.00586l-0.35156 0.34961c-0.2153-0.1252-0.45097-0.22336-0.69727-0.28906v-0.49414c0-0.1401-0.1122-0.25391-0.25-0.25391h-0.96484zm0.25 0.5h0.46484v0.24805a0.50005 0.50005 0 0 0 0.3711 0.48242c0.20317 0.05419 0.39778 0.13568 0.57421 0.23828a0.50005 0.50005 0 0 0 0.60547-0.07617l0.17578-0.17578 0.32422 0.32422-0.1758 0.17773a0.50005 0.50005 0 0 0-0.0762 0.60352c0.1025 0.1764 0.1837 0.37041 0.2383 0.57421a0.50005 0.50005 0 0 0 0.4825 0.3711h0.248v0.46484h-0.248a0.50005 0.50005 0 0 0-0.4825 0.3711c-0.0546 0.2038-0.1358 0.39781-0.2383 0.57421a0.50005 0.50005 0 0 0 0.0762 0.60347l0.1758 0.1778-0.32422 0.3242-0.17773-0.1758a0.50005 0.50005 0 0 0-0.60352-0.0762c-0.1764 0.1025-0.37041 0.1837-0.57421 0.2383a0.50005 0.50005 0 0 0-0.3711 0.4825v0.248h-0.46484v-0.248a0.50005 0.50005 0 0 0-0.3711-0.4825c-0.2038-0.0546-0.39781-0.1358-0.57421-0.2383a0.50005 0.50005 0 0 0-0.60352 0.0762l-0.17773 0.1758-0.32618-0.3262 0.17578-0.1738a0.50005 0.50005 0 0 0 0.07813-0.60547c-0.1026-0.17643-0.18409-0.37104-0.23828-0.57421a0.50005 0.50005 0 0 0-0.48242-0.3711h-0.24805v-0.46484h0.24805a0.50005 0.50005 0 0 0 0.48242-0.3711c0.05419-0.20317 0.13568-0.39778 0.23828-0.57421a0.50005 0.50005 0 0 0-0.07617-0.60547l-0.17578-0.17578 0.32422-0.32422 0.17578 0.17578a0.50005 0.50005 0 0 0 0.60547 0.07617c0.17643-0.1026 0.37104-0.18409 0.57421-0.23828a0.50005 0.50005 0 0 0 0.3711-0.48242v-0.24805zm0.23242 1.4414c-0.85489 0-1.5586 0.7037-1.5586 1.5586s0.7037 1.5586 1.5586 1.5586 1.5586-0.70371 1.5586-1.5586-0.7037-1.5586-1.5586-1.5586zm0 0.5c0.5841 0 1.0586 0.47449 1.0586 1.0586s-0.47449 1.0586-1.0586 1.0586-1.0586-0.47449-1.0586-1.0586 0.47449-1.0586 1.0586-1.0586z" opacity=".3"/>
 <path id="path20" d="m8 2v1h1v-1h-1zm2 0v1h1v-1h-1zm2 0v1h1v-1h-1zm-9 2v1h4.5176 0.96484 4.5176v-1h-1-1-1-1-1-5zm7.4883 3.0391-0.0293 0.03125c0.125 0.2153 0.223 0.45097 0.289 0.69727h0.0118l0.0488-0.04883c0.1-0.0991 0.1038-0.25221 0.0098-0.34961l-0.3301-0.33008zm-4.9785 0.00196-0.32813 0.32812c-0.0974 0.0974-0.09324 0.25051 0.00586 0.34961l0.04883 0.04883h0.01172c0.0657-0.2463 0.16386-0.48197 0.28906-0.69727l-0.02734-0.02929zm2.4902 0.40039c-0.5841 0-1.0586 0.47449-1.0586 1.0586 0 0.18409 0.05973 0.34911 0.14257 0.5 0.18001-0.32787 0.51601-0.55859 0.91602-0.55859s0.73601 0.23072 0.91602 0.55859c0.08284-0.15089 0.14257-0.31591 0.14257-0.5 0-0.5841-0.47449-1.0586-1.0586-1.0586zm-3.4922 1.5586c-5.6e-4 0.0068-0.00781 0.01063-0.00781 0.01758v0.96484c0 0.13778 0.11381 0.24998 0.25391 0.24998h0.48242l0.30078-0.30271c-0.1252-0.2153-0.22336-0.45097-0.28906-0.69727h-0.49414c-0.13304 0-0.23542-0.10422-0.2461-0.23242zm6.9805 0c-0.0107 0.1282-0.1132 0.23242-0.2461 0.23242h-0.4942c-0.066 0.2463-0.164 0.48197-0.289 0.69727l0.3008 0.30271h0.4824c0.14 0 0.2539-0.1122 0.2539-0.24998v-0.96484c0-0.00695-0.0073-0.01078-0.0078-0.01758zm-5.9785 1.959-0.32227 0.3222c-0.0991 0.0991-0.10316 0.2517-0.00586 0.3497l0.6875 0.6875c0.0974 0.098 0.25051 0.0932 0.34961-0.0098l0.35156-0.3496c0.2153 0.125 0.45097 0.223 0.69727 0.289v0.4942c0 0.14 0.1122 0.2539 0.25 0.2539h0.96484c0.1378 0 0.25-0.1139 0.25-0.2539v-0.4942c0.2463-0.066 0.48197-0.164 0.69727-0.289l0.35156 0.3496c0.0991 0.1 0.25165 0.1038 0.34965 0.0098l0.6875-0.6875c0.098-0.098 0.0932-0.2507-0.0098-0.3497l-0.3203-0.3203-0.3574 0.3575c-0.098 0.094-0.25055 0.0902-0.34965-0.0098l-0.35156-0.3496c-0.2153 0.125-0.45097 0.223-0.69727 0.289v0.4942c0 0.14-0.1122 0.2539-0.25 0.2539h-0.96484c-0.1378 0-0.25-0.1139-0.25-0.2539v-0.4942c-0.2463-0.066-0.48197-0.164-0.69727-0.289l-0.35156 0.3496c-0.0991 0.103-0.25221 0.1078-0.34961 0.0098l-0.35937-0.3594zm-4.5098 4.041v1h2 12v-1h-12-2z" fill="#fff" opacity=".2"/>
 <path id="path25" d="m2 1c-0.554 0-1 0.446-1 1v1c0-0.554 0.446-1 1-1h6 1 1 1 1 1 1c0.554 0 1 0.446 1 1v-1c0-0.554-0.446-1-1-1h-12zm6 2v1h1v-1h-1zm2 0v1h1v-1h-1zm2 0v1h1v-1h-1zm-4.4824 2c-0.1378 0-0.25 0.11381-0.25 0.25391v0.49414c-0.2463 0.0657-0.48197 0.16386-0.69727 0.28906l-0.35156-0.34961c-0.0496-0.0495-0.10778-0.07557-0.17187-0.07617-0.0641-5e-4 -0.12904 0.02161-0.17774 0.07031l-0.6875 0.6875c-0.0974 0.0974-0.09324 0.25051 0.00586 0.34961l0.32227 0.32227 0.35937-0.35938c0.0487-0.0487 0.11364-0.07081 0.17774-0.07031 0.06409 6e-4 0.12227 0.02667 0.17187 0.07617l0.35156 0.34961c0.2153-0.1252 0.45097-0.22336 0.69727-0.28906v-0.49414c0-0.1401 0.1122-0.25391 0.25-0.25391h0.96484c0.1378 0 0.25 0.11381 0.25 0.25391v0.49414c0.2463 0.0657 0.48197 0.16386 0.69727 0.28906l0.35156-0.34961c0.0991-0.0992 0.25165-0.10326 0.34965-0.00586l0.3574 0.35742 0.3203-0.32031c0.1-0.0991 0.1038-0.25221 0.0098-0.34961l-0.6875-0.6875c-0.098-0.0974-0.25055-0.09334-0.34965 0.00586l-0.35156 0.34961c-0.2153-0.1252-0.45097-0.22336-0.69727-0.28906v-0.49414c0-0.1401-0.1122-0.25391-0.25-0.25391h-0.96484zm-2.7637 2.7676c-0.1401 0-0.25391 0.1122-0.25391 0.25v0.96484c0 0.00695 0.00725 0.01078 0.00781 0.01758 0.01068-0.1282 0.11306-0.23242 0.2461-0.23242h0.49414c0.0657-0.2463 0.16386-0.48197 0.28906-0.69727l-0.30078-0.30273h-0.48242zm6.0059 0-0.3008 0.30273c0.125 0.2153 0.223 0.45097 0.289 0.69727h0.4942c0.1329 0 0.2354 0.10422 0.2461 0.23242 5e-4 -0.0068 0.0078-0.01063 0.0078-0.01758v-0.96484c0-0.1378-0.1139-0.25-0.2539-0.25h-0.4824zm-3.6758 1.2324c-0.08284 0.15089-0.14257 0.31591-0.14257 0.5 0 0.5841 0.47449 1.0586 1.0586 1.0586s1.0586-0.4745 1.0586-1.0586c0-0.18409-0.05973-0.34911-0.14257-0.5-0.18001 0.32787-0.51601 0.55859-0.91602 0.55859s-0.73601-0.23072-0.91602-0.55859zm-1.8476 1.2324-0.04883 0.0488c-0.0991 0.0991-0.10316 0.2517-0.00586 0.3497l0.32813 0.3281 0.02734-0.0293c-0.1252-0.2153-0.22336-0.451-0.28906-0.6973h-0.01172zm5.5117 0c-0.066 0.2463-0.164 0.482-0.289 0.6973l0.0293 0.0312 0.3301-0.33c0.098-0.098 0.0932-0.2507-0.0098-0.3497l-0.0488-0.0488h-0.0118zm-7.748 2.7676v1h10v-1h-10z" opacity=".3"/>
</svg>
