<?xml version="1.0" encoding="UTF-8"?>
<svg id="svg30" width="16" height="16" version="1.1" xmlns="http://www.w3.org/2000/svg" xmlns:cc="http://creativecommons.org/ns#" xmlns:dc="http://purl.org/dc/elements/1.1/" xmlns:rdf="http://www.w3.org/1999/02/22-rdf-syntax-ns#">
 <metadata id="metadata34">
  <rdf:RDF>
   <cc:Work rdf:about="">
    <dc:format>image/svg+xml</dc:format>
    <dc:type rdf:resource="http://purl.org/dc/dcmitype/StillImage"/>
   </cc:Work>
  </rdf:RDF>
 </metadata>
 <defs id="defs7">
  <radialGradient id="gr0" cx="9" cy="10" r="11" gradientTransform="matrix(1 0 0 .72727 0 2.7273)" gradientUnits="userSpaceOnUse">
   <stop id="stop2" stop-opacity=".23529" offset="0"/>
   <stop id="stop4" stop-opacity=".54902" offset="1"/>
  </radialGradient>
 </defs>
 <path id="path9" d="m5.5 0a1 1.0001 0 0 0-0.68555 0.28516c-1.0011 0.32717-1.8144 1.1128-1.8144 2.2148v1.6875a1.0001 1.0001 0 0 0 0.17969 0.57227c-0.68335 0.55197-1.1797 1.3025-1.1797 2.2402 0 0.30474 0.11844 0.56771 0.20312 0.84375l-0.29296 1.1562h-0.91016a1.0001 1.0001 0 0 0-1 1v1a1.0001 1.0001 0 0 0 1 1h0.24219c-0.13479 0.726-0.27868 1.4589-0.20899 2.0605 0.04711 0.4067 0.13663 0.7892 0.36133 1.1583 0.22471 0.3689 0.68795 0.7397 1.2188 0.7792a1.0001 1.0001 0 0 0 1.041-0.7421l0.86523-3.2559h0.96094l0.86523 3.2559a1.0001 1.0001 0 0 0 1.041 0.7421c0.5307-0.0395 0.99404-0.4103 1.2188-0.7792 0.22471-0.369 0.31422-0.7516 0.36133-1.1583 0.00204-0.0176-0.00772-0.0427-0.00586-0.0605h3.5391c1.3677 0 2.5-1.1323 2.5-2.5v-9c0-1.3677-1.1323-2.5-2.5-2.5h-6.9863a1.0001 1.0001 0 0 0-0.01367 0zm0 1h7c0.831 0 1.5 0.669 1.5 1.5v9c0 0.831-0.669 1.5-1.5 1.5h-3.5742c-0.04422-0.3264-0.10537-0.6628-0.16797-1h0.24219a1.0001 1.0001 0 0 0 0.85742-0.4883 1.0001 1.0001 0 0 0 0-0.0019 1.0001 1.0001 0 0 0 0.04688-0.086 1.0001 1.0001 0 0 0 0.03125-0.0722 1.0001 1.0001 0 0 0 0.01367-0.0391 1.0001 1.0001 0 0 0 0.02148-0.0781 1.0001 1.0001 0 0 0 0.01563-0.0782 1.0001 1.0001 0 0 0 0.00781-0.0507 1.0001 1.0001 0 0 0 0-0.0059 1.0001 1.0001 0 0 0 0-0.0058 1.0001 1.0001 0 0 0 0.00586-0.0938v-1a1.0001 1.0001 0 0 0-1-1h-0.92383l-0.30469-1.1211c0.09729-0.28315 0.22852-0.54419 0.22852-0.87891 0-0.93773-0.49634-1.6883-1.1797-2.2402a1.0001 1.0001 0 0 0 0.17969-0.57227v-0.1875h4v6h-1l1 1h0.5c0.277 0 0.5-0.223 0.5-0.5v-7c0-0.277-0.223-0.5-0.5-0.5h-5c-0.277 0-0.5 0.223-0.5 0.5v0.6875c-0.31489-0.1136-0.64815-0.1875-1-0.1875s-0.68511 0.07394-1 0.1875v-1.6875c0-0.831 0.669-1.5 1.5-1.5zm-0.5 4c1.1046 0 2 0.8954 2 2 0 0.3403-0.1001 0.6569-0.25 0.9375l0.5625 2.0625h1.6875v1h-1.4375l0.15625 0.5312c0.49411 1.8683 0.31935 3.4148-0.40625 3.4688l-1.0625-4h-2.5l-1.0625 4c-0.7256-0.054-0.90035-1.6007-0.40625-3.4688l0.125-0.5312h-1.4062v-1h1.6875l0.53125-2.0938c-0.13795-0.2715-0.21875-0.58085-0.21875-0.90625 0-1.1046 0.8954-2 2-2zm0 1.0312c-0.5302 0-0.96875 0.43855-0.96875 0.96875s0.43855 0.96875 0.96875 0.96875 0.96875-0.43855 0.96875-0.96875-0.43855-0.96875-0.96875-0.96875zm0 0.9375c0.0212 0 0.03125 0.01005 0.03125 0.03125s-0.01005 0.03125-0.03125 0.03125-0.03125-0.01005-0.03125-0.03125 0.01005-0.03125 0.03125-0.03125zm-0.6875 1.9062-0.28125 1.125h1.9688l-0.3125-1.125c-0.2144 0.0785-0.4459 0.125-0.6875 0.125s-0.4731-0.0465-0.6875-0.125z" fill="#fff" opacity=".05"/>
 <path id="base" d="m5.5 1c-0.831 0-1.5 0.669-1.5 1.5v1.6875c0.31489-0.11356 0.64815-0.1875 1-0.1875s0.68511 0.073942 1 0.1875v-0.6875c0-0.277 0.223-0.5 0.5-0.5h5c0.277 0 0.5 0.223 0.5 0.5v7c0 0.277-0.223 0.5-0.5 0.5h-1.5a1 1.0001 0 0 1-1 1h-0.24219c0.062618 0.33725 0.12375 0.67361 0.16797 1h3.5742c0.831 0 1.5-0.669 1.5-1.5v-9c0-0.831-0.669-1.5-1.5-1.5h-7zm-0.5 4c-1.1046 0-2 0.8954-2 2 0 0.3254 0.08085 0.63475 0.21875 0.90625l-0.53125 2.0938h-1.6875v1h1.4062l-0.125 0.53125c-0.4941 1.868-0.31935 3.4148 0.40625 3.4688l1.0625-4h2.5l1.0625 4c0.7256-0.05412 0.90036-1.6006 0.40625-3.4688l-0.15625-0.53125h1.4375v-1h-1.6875l-0.5625-2.0625c0.1499-0.2806 0.25-0.5972 0.25-0.9375 0-1.1046-0.8954-2-2-2zm0 1.0312c0.5302 0 0.96875 0.43855 0.96875 0.96875s-0.43855 0.96875-0.96875 0.96875-0.96875-0.43855-0.96875-0.96875 0.43855-0.96875 0.96875-0.96875zm0 0.9375c-0.021227 0-0.03125 0.010023-0.03125 0.03125s0.010023 0.03125 0.03125 0.03125 0.03125-0.010023 0.03125-0.03125-0.010023-0.03125-0.03125-0.03125zm-0.6875 1.9062c0.2144 0.0785 0.4459 0.125 0.6875 0.125s0.4731-0.0465 0.6875-0.125l0.3125 1.125h-1.9688l0.28125-1.125z" fill="url(#gr0)"/>
 <path id="path15" d="m5.5 1c-0.831 0-1.5 0.669-1.5 1.5v1.6875c0.31489-0.11356 0.64815-0.1875 1-0.1875s0.68511 0.0739 1 0.1875v-0.6875c0-0.277 0.223-0.5 0.5-0.5h5c0.277 0 0.5 0.223 0.5 0.5v7c0 0.277-0.223 0.5-0.5 0.5h-1.5a1 1.0001 0 0 1-0.12695 0.4844 0.50005 0.50005 0 0 0 0.12695 0.0156h1.5c0.5454 0 1-0.4546 1-1v-7c0-0.54535-0.4546-1-1-1h-5c-0.54535 0-1 0.45465-1 1v0.0918c-0.16885-0.02859-0.31974-0.0918-0.5-0.0918s-0.33115 0.06321-0.5 0.0918v-1.0918c0-0.56265 0.43735-1 1-1h0.00586 6.9941c0.5626 0 1 0.43735 1 1v9c0 0.5626-0.4374 1-1 1h-3.1504c-0.02989-0.1786-0.05801-0.3579-0.08984-0.5352a1.0001 1.0001 0 0 1-0.07032 0.0176l-0.18945 0.2266v-0.209h-0.24219c0.0626 0.3372 0.12375 0.6736 0.16797 1h3.5742c0.831 0 1.5-0.669 1.5-1.5v-9c0-0.831-0.669-1.5-1.5-1.5h-7zm-0.5 4c-1.1046 0-2 0.8954-2 2 0 0.3254 0.0808 0.63475 0.21875 0.90625l-0.53125 2.0938h-1.6875v1h1.4062l-0.125 0.5312c-0.4941 1.8681-0.31935 3.4148 0.40625 3.4688l1.0625-4h2.5l1.0625 4c0.7256-0.054 0.90036-1.6005 0.40625-3.4688l-0.15625-0.5312h1.4375v-1h-1.6875l-0.5625-2.0625c0.1499-0.2806 0.25-0.5972 0.25-0.9375 0-1.1046-0.8954-2-2-2zm0 0.5c0.8344 0 1.5 0.6656 1.5 1.5 0 0.24225-0.07157 0.47684-0.19141 0.70117a0.50005 0.50005 0 0 0-0.04101 0.36719l0.5625 2.0625a0.50005 0.50005 0 0 0 0.48242 0.3691h0.2207a0.50005 0.50005 0 0 0-0.45117 0.6406l0.15235 0.5176c0.19619 0.7418 0.21841 1.348 0.20312 1.8652l-0.70508-2.6523a0.50005 0.50005 0 0 0-0.48242-0.3711h-0.22656a0.50005 0.50005 0 0 0 0.45898-0.63477l-0.3125-1.125a0.50005 0.50005 0 0 0-0.6543-0.33398c-0.16514 0.06047-0.33818 0.09375-0.51562 0.09375s-0.35048-0.03328-0.51562-0.09375a0.50005 0.50005 0 0 0-0.17188-0.03125 0.50005 0.50005 0 0 0-0.48438 0.37891l-0.28124 1.125a0.50005 0.50005 0 0 0 0.48437 0.62109h-0.28125a0.50005 0.50005 0 0 0-0.48242 0.3711l-0.70508 2.6543c-0.0155-0.5174 0.00478-1.1247 0.20117-1.8672a0.50005 0.50005 0 0 0 0.00391-0.0117l0.125-0.5313a0.50005 0.50005 0 0 0-0.48633-0.6152h0.28125a0.50005 0.50005 0 0 0 0.48438-0.377l0.53124-2.0937a0.50005 0.50005 0 0 0-0.03906-0.34961c-0.10419-0.20513-0.16406-0.43711-0.16406-0.67969 0-0.8344 0.6656-1.5 1.5-1.5zm0 0.03125c-0.80591 0-1.4688 0.66284-1.4688 1.4688s0.66284 1.4688 1.4688 1.4688 1.4688-0.66284 1.4688-1.4688-0.66284-1.4688-1.4688-1.4688zm0 0.5c0.5302 0 0.96875 0.43855 0.96875 0.96875s-0.43855 0.96875-0.96875 0.96875-0.96875-0.43855-0.96875-0.96875 0.43855-0.96875 0.96875-0.96875zm-0.6875 2.8438c0.2144 0.0785 0.4459 0.125 0.6875 0.125s0.4731-0.0465 0.6875-0.125l0.3125 1.125h-1.9688l0.28125-1.125z" opacity=".3"/>
 <path id="path20" d="m6.5 3c-0.277 0-0.5 0.223-0.5 0.5v0.6875c-0.31489-0.1136-0.64815-0.1875-1-0.1875s-0.68511 0.07394-1 0.1875v1c0.31489-0.11356 0.64815-0.1875 1-0.1875s0.68511 0.0739 1 0.1875v-0.6875c0-0.277 0.223-0.5 0.5-0.5h5c0.277 0 0.5 0.223 0.5 0.5v-1c0-0.277-0.223-0.5-0.5-0.5h-5zm-1.5 3.0312c-0.5302 0-0.96875 0.43855-0.96875 0.96875 0 0.18611 0.06709 0.35148 0.16016 0.5 0.17206-0.2746 0.4645-0.46875 0.80859-0.46875-0.0212 0-0.03125-0.01005-0.03125-0.03125s0.01005-0.03125 0.03125-0.03125 0.03125 0.01005 0.03125 0.03125-0.01005 0.03125-0.03125 0.03125c0.34409 0 0.63653 0.19415 0.80859 0.46875 0.09307-0.14852 0.16016-0.31389 0.16016-0.5 0-0.5302-0.43855-0.96875-0.96875-0.96875zm1.9277 1.4668c-0.04363 0.15367-0.10413 0.30168-0.17773 0.43945l0.16406 0.59766c0.05219-0.17077 0.08594-0.34801 0.08594-0.53516 0-0.17464-0.03021-0.34048-0.07227-0.50195zm-3.8574 0.00586c-0.04105 0.15966-0.07031 0.32361-0.07031 0.49609 0 0.17292 0.02627 0.33942 0.06836 0.5l0.15039-0.59375c-0.06399-0.12595-0.1114-0.26228-0.14844-0.40234zm1.2422 1.3711-0.28125 1.125h0.25l0.03125-0.125c0.2144 0.0785 0.4459 0.125 0.6875 0.125s0.4731-0.0465 0.6875-0.125l0.03516 0.125h0.27734l-0.3125-1.125c-0.2144 0.0785-0.4459 0.125-0.6875 0.125s-0.4731-0.0465-0.6875-0.125zm-3.3125 2.125v1h1.1758c0.0326-0.1546 0.06313-0.3087 0.10547-0.4688l0.125-0.5312h-1.4062zm2.75 0-1.0625 4c-0.36072-0.0268-0.58425-0.4242-0.6582-1.0449-0.10138 1.17 0.12983 2.0056 0.6582 2.0449l1.0625-4h2.5l1.0625 4c0.52837-0.0393 0.75958-0.8748 0.6582-2.0449-0.07395 0.6207-0.29748 1.0181-0.6582 1.0449l-1.0625-4h-0.25-1.9688-0.28125zm3.8125 0 0.15625 0.5312c0.04235 0.1602 0.07287 0.3142 0.10547 0.4688h0.93359 0.24219v-1h-1.4375zm6.4375 0.5c0 0.831-0.669 1.5-1.5 1.5h-3.5-0.07422-0.16797c0.0626 0.3372 0.12375 0.6736 0.16797 1h3.5742c0.831 0 1.5-0.669 1.5-1.5v-1z" fill="#fff" opacity=".2"/>
 <path id="path25" d="m5.5 1c-0.831 0-1.5 0.669-1.5 1.5v1c0-0.831 0.669-1.5 1.5-1.5h7c0.831 0 1.5 0.669 1.5 1.5v-1c0-0.831-0.669-1.5-1.5-1.5h-7zm-0.5 4c-1.1046 0-2 0.8954-2 2 0 0.17445 0.02751 0.34204 0.07031 0.50391 0.22185-0.86287 0.99757-1.5039 1.9297-1.5039 0.92996 0 1.7038 0.63822 1.9277 1.498 0.04524-0.15932 0.07227-0.32483 0.07227-0.49805 0-1.1046-0.8954-2-2-2zm-0.80859 2.5c-0.09307 0.14852-0.16016 0.31389-0.16016 0.5 0 0.5302 0.43855 0.96875 0.96875 0.96875s0.96875-0.43855 0.96875-0.96875c0-0.18611-0.06709-0.35148-0.16016-0.5-0.17206 0.2746-0.4645 0.46875-0.80859 0.46875 0.0212 0 0.03125 0.01005 0.03125 0.03125s-0.01005 0.03125-0.03125 0.03125-0.03125-0.01005-0.03125-0.03125 0.01005-0.03125 0.03125-0.03125c-0.34409 0-0.63653-0.19415-0.80859-0.46875zm-1.123 1-0.38086 1.5h-1.6875v1h1.4062 0.28125l0.53125-2.0938c-0.06464-0.12722-0.11328-0.26465-0.15039-0.40625zm3.8457 0.03516c-0.0427 0.13974-0.0966 0.27606-0.16406 0.40234l0.5625 2.0625h0.25 1.4375v-1h-1.6875l-0.39844-1.4648zm-2.6328 1.4648-0.25 1h1.9688l-0.27734-1h-0.72266-0.71875zm7.7188 0.5c0 0.277-0.223 0.5-0.5 0.5h-1.5a1 1.0001 0 0 1-1 1h-0.24219c0.0626 0.3372 0.12375 0.6736 0.16797 1h0.07422a1.0001 1.0001 0 0 0 1-1h1.5c0.277 0 0.5-0.223 0.5-0.5v-1zm-9.8242 1.5c-0.15866 0.7527-0.20854 1.4342-0.14648 1.9551 0.03784-0.4368 0.11765-0.9161 0.25195-1.4239l0.125-0.5312h-0.23047zm5.3867 0 0.15625 0.5312c0.13431 0.5079 0.21411 0.9871 0.25195 1.4239 0.06206-0.5209 0.01218-1.2023-0.14648-1.9551h-0.26172z" opacity=".3"/>
</svg>
