<?xml version="1.0" encoding="UTF-8"?>
<svg id="svg30" width="16" height="16" version="1.1" xmlns="http://www.w3.org/2000/svg" xmlns:cc="http://creativecommons.org/ns#" xmlns:dc="http://purl.org/dc/elements/1.1/" xmlns:rdf="http://www.w3.org/1999/02/22-rdf-syntax-ns#">
 <metadata id="metadata34">
  <rdf:RDF>
   <cc:Work rdf:about="">
    <dc:format>image/svg+xml</dc:format>
    <dc:type rdf:resource="http://purl.org/dc/dcmitype/StillImage"/>
   </cc:Work>
  </rdf:RDF>
 </metadata>
 <defs id="defs7">
  <radialGradient id="gr0" cx="9" cy="10" r="11" gradientTransform="matrix(1 0 0 .72727 0 2.7273)" gradientUnits="userSpaceOnUse">
   <stop id="stop2" stop-opacity=".23529" offset="0"/>
   <stop id="stop4" stop-opacity=".54902" offset="1"/>
  </radialGradient>
 </defs>
 <path id="path9" d="m2 0c-1.0907-1.4572e-16 -2 0.9093-2 2v13a1 1.0001 0 0 0 1 1h2 12a1.0001 1.0001 0 0 0 1-1v-9.6836l-0.0527 0.31836c0-2e-4 -0.09 0.22284-0.0899 0.22265l-0.8574-0.40625v9.5488h-12-2v-13c0-0.554 0.446-1 1-1h12c0.554 0 1 0.446 1 1v1.2676c0.1069 0.05458 0.2227 0.11329 0.2227 0.11328-1e-4 -3e-5 0.4433 0.43949 0.4433 0.43945 0-3e-5 0.2832 0.55473 0.2832 0.55469l0.0508 0.3125v-2.6875c0-1.0907-0.9093-2-2-2h-12zm6 2v1h1v-1h-1zm2 0v1h1v-1h-1zm2 0v1h1v-1h-1zm3 1.7324v0.5293a1.0001 1.0001 0 0 0 0-0.5293zm-12 0.26758v9h5.9902 1.0078 3.002v-3.4473l1.9551-4.123v-0.00196a1.0001 1.0001 0 0 0 0.0371-0.09179 1.0001 1.0001 0 0 0-0.0469-0.77735 1.0001 1.0001 0 0 0-0.0371-0.06836 1.0001 1.0001 0 0 0-0.8574-0.49023h-1.0508-0.957-9.043zm2 1h1v1 1h-1-1v-1c0-0.554 0.446-1 1-1zm2 0h1c0.554 0 1 0.446 1 1v1h-1-1v-1-1zm2.5801 0h1.3496c-0.303 0.62317-0.6114 1.2368-0.9297 1.8828v-0.88281c0-0.38722-0.22328-0.69108-0.41992-1zm2.4629 0h2.0078l-2.3692 5-0.123 0.5781-0.7969 0.4219-0.76365 1h-0.99805l0.59766-1v-1l0.47464-1c0.611-1.2028 1.3537-2.7302 1.9707-4zm-8.043 3h5v1.5c0 1.385-1.115 2.5-2.5 2.5s-2.5-1.115-2.5-2.5v-1.5zm8 3.4746v0.5254h-0.7441l0.1679-0.2188 0.5762-0.3066zm-8 0.4531c0.02421 0.025 0.04733 0.0481 0.07227 0.0723h-0.07227v-0.0723z" fill="#fff" opacity=".05"/>
 <path id="base" d="m2 1c-0.554 0-1 0.446-1 1v13h14v-9.6836a1 1.0001 0 0 1-0.045 0.1113l-1.955 4.125v3.4473h-10v-9h11.051a1.0001 1.0001 0 0 1 0.949 0.6875v-2.6875c0-0.554-0.446-1-1-1h-12zm6 1h1v1h-1v-1zm2 0h1v1h-1v-1zm2 0h1v1h-1v-1zm-7 3c-0.554 0-1 0.446-1 1v1h2v-2h-1zm2 0v2h2v-1c0-0.554-0.446-1-1-1h-1zm5.043 0c-0.617 1.2698-1.36 2.7972-1.971 4l-0.4743 1v1l-0.5977 1h0.998l0.764-1 0.797-0.422 0.123-0.578 2.369-5h-2.008zm-8.043 3v1.5c0 1.385 1.115 2.5 2.5 2.5s2.5-1.115 2.5-2.5v-1.5h-5z" fill="url(#gr0)"/>
 <path id="path15" d="m2 1c-0.554 0-1 0.446-1 1v13h2 12v-9.6836a1 1.0001 0 0 1-0.0449 0.11132l-1.9551 4.125v3.4473h-3.002-1.0078-5.9902v-9h9.043 0.957 1.0508v-0.5h-1.0508a0.50005 0.50005 0 0 0 0.5-0.5v-1a0.50005 0.50005 0 0 0-0.5-0.5h1c0.2856 0 0.5 0.21435 0.5 0.5v2.1094a1.0001 1.0001 0 0 1 0.5 0.57812v-2.6875c0-0.554-0.446-1-1-1h-12zm0 0.5h6a0.50005 0.50005 0 0 0-0.5 0.5v1a0.50005 0.50005 0 0 0 0.5 0.5h-5a0.50005 0.50005 0 0 0-0.5 0.5v9a0.50005 0.50005 0 0 0 0.5 0.5h5.9902 1.0078 3.002a0.50005 0.50005 0 0 0 0.5-0.5v-3.334l1-2.1113v6.9453h-11.5-1.5v-12.5c0-0.28565 0.21435-0.5 0.5-0.5zm7 0h1a0.50005 0.50005 0 0 0-0.5 0.5 0.50005 0.50005 0 0 0-0.5-0.5zm2 0h1a0.50005 0.50005 0 0 0-0.5 0.5 0.50005 0.50005 0 0 0-0.5-0.5zm-3 0.5h1v1h-1v-1zm2 0h1v1h-1v-1zm2 0h1v1h-1v-1zm-2.5 1a0.50005 0.50005 0 0 0 0.5 0.5h-1a0.50005 0.50005 0 0 0 0.5-0.5zm2 0a0.50005 0.50005 0 0 0 0.5 0.5h-1a0.50005 0.50005 0 0 0 0.5-0.5zm-6.5 2c-0.554 0-1 0.446-1 1v1h1 1v-1-1h-1zm2 0v1 1h1 1v-1c0-0.554-0.446-1-1-1h-1zm5.043 0c-0.617 1.2698-1.3597 2.7972-1.9707 4l-0.47464 1v1l-0.59766 1h0.99805l0.76365-1 0.7969-0.4219 0.123-0.5781 2.3692-5h-2.0078zm-7.043 0.5h0.5v0.5 0.5h-0.5-0.5v-0.5c0-0.28565 0.21435-0.5 0.5-0.5zm2.5 0h0.5c0.28565 0 0.5 0.21435 0.5 0.5v0.5h-0.5-0.5v-0.5-0.5zm4.8535 0h0.9082l-2.0312 4.2852a0.50005 0.50005 0 0 0-0.0371 0.11132l-0.0743 0.34962-0.5918 0.3125a0.50005 0.50005 0 0 0-0.1621 0.1387l-0.2695 0.3515a0.50005 0.50005 0 0 0 2e-3 -0.0488v-0.8867l0.4199-0.88674c0.5711-1.1244 1.2468-2.5146 1.8359-3.7266zm-8.3535 2.5v1.5c0 1.385 1.115 2.5 2.5 2.5s2.5-1.115 2.5-2.5v-1.5h-5zm0.5 0.5h4v1c0 1.1166-0.88335 2-2 2s-2-0.8834-2-2v-1z" opacity=".3"/>
 <path id="path20" d="m8 2v1h1v-1h-1zm2 0v1h1v-1h-1zm2 0v1h1v-1h-1zm-9 2v1h2 1 1 1 4.043 2.0078a1 1.0001 0 0 1 0.8672 0.50586l0.0371-0.07813a1.0001 1.0001 0 0 0 0.0449-0.11132v-0.62891a1.0001 1.0001 0 0 0-0.9492-0.6875h-1.0508-0.957-0.043-1-1-1-1-5zm10.576 2-1.8946 4-0.123 0.5781-0.7969 0.4219-0.76365 1h-0.40039l-0.59766 1h0.99805l0.76365-1 0.7969-0.4219 0.123-0.5781 2.3692-5h-0.4746zm-9.5762 1v1h2v-1h-1-1zm3 0v1h2v-1h-1-1zm-3 2.5v1c0 1.385 1.115 2.5 2.5 2.5s2.5-1.115 2.5-2.5v-1c0 1.385-1.115 2.5-2.5 2.5s-2.5-1.115-2.5-2.5zm-3 5.5v1h2 12v-1h-12-2z" fill="#fff" opacity=".2"/>
 <path id="path25" d="m2 1c-0.554 0-1 0.446-1 1v1c0-0.554 0.446-1 1-1h6 1 1 1 1 1 1c0.554 0 1 0.446 1 1v-1c0-0.554-0.446-1-1-1h-12zm6 2v1h1v-1h-1zm2 0v1h1v-1h-1zm2 0v1h0.043 0.957v-1h-1zm-7 2c-0.554 0-1 0.446-1 1v1c0-0.554 0.446-1 1-1h1v-1h-1zm2 0v1h1c0.554 0 1 0.446 1 1v-1c0-0.554-0.446-1-1-1h-1zm5.043 0c-0.617 1.2698-1.3597 2.7972-1.9707 4l-0.47464 1v1l0.47464-1c0.611-1.2028 1.3537-2.7302 1.9707-4h1.5332l0.4746-1h-1.0508-0.957zm-2.4453 6-0.59766 1h0.59766v-1zm5.3203-5.4941-1.918 4.0469v0.99997l1.9551-4.125a1 1.0001 0 0 0 0.0449-0.11132v-0.62891a1.0001 1.0001 0 0 0-0.082-0.18164zm-10.918 2.4941v1h5v-1h-2-1-1-1zm-1 5v1h5.9902 1.0078 3.002v-1h-3.002-0.99805-0.00977-2.4902-3.5z" opacity=".3"/>
</svg>
