<?xml version="1.0" encoding="UTF-8"?>
<svg id="svg30" width="16" height="16" version="1.1" xmlns="http://www.w3.org/2000/svg" xmlns:cc="http://creativecommons.org/ns#" xmlns:dc="http://purl.org/dc/elements/1.1/" xmlns:rdf="http://www.w3.org/1999/02/22-rdf-syntax-ns#">
 <metadata id="metadata34">
  <rdf:RDF>
   <cc:Work rdf:about="">
    <dc:format>image/svg+xml</dc:format>
    <dc:type rdf:resource="http://purl.org/dc/dcmitype/StillImage"/>
   </cc:Work>
  </rdf:RDF>
 </metadata>
 <defs id="defs7">
  <radialGradient id="gr0" cx="9" cy="10" r="11" gradientTransform="matrix(1 0 0 .72727 0 2.7273)" gradientUnits="userSpaceOnUse">
   <stop id="stop2" stop-opacity=".23529" offset="0"/>
   <stop id="stop4" stop-opacity=".54902" offset="1"/>
  </radialGradient>
 </defs>
 <path id="path9" d="m3-0.0019531a1 1.0001 0 0 0-1 1v4.998a1.0001 1.0001 0 0 0-1 1 1.0001 1.0001 0 0 0-1 1v1a1.0001 1.0001 0 0 0 1 1 1.0001 1.0001 0 0 0 0.71289 0.95901c-0.07774 0.3003-0.1461 0.6426-0.23242 0.9043-0.29003 0.8791-0.70616 1.4703-0.86914 1.582l0.009766-0.0059c-0.38794 0.2592-0.6314 0.7211-0.62305 1.1875 0.0087783 0.5057 0.31466 0.9957 0.76563 1.2247 0.45026 0.2286 1.0262 0.1846 1.4394-0.1055 1.0655-0.736 1.5667-1.8876 1.9356-3.0059 0.18897-0.5729 0.31223-1.1584 0.44727-1.7402h0.41406a1.0001 1.0001 0 0 0 1-1h0.17578c0.02095 0.13931 0.03707 0.26861 0.06055 0.41211 0.18542 1.1337 0.43079 2.3529 1.0625 3.4414 0.64845 1.1175 1.8378 2.043 3.3965 2.1445 0.7874 0.0515 1.5341-0.2448 2.0625-0.7617a1.0001 1.0001 0 0 0 2e-3 0c0.4936-0.4841 0.7748-1.078 0.9765-1.6738v-2e-3c0.2617-0.7723 0.3489-1.6813 0.4551-2.5781a1.0001 1.0001 0 0 0 0.8086-0.98241 1.0001 1.0001 0 0 0 1-1v-1a1.0001 1.0001 0 0 0-1-1 1.0001 1.0001 0 0 0-0.2051-0.60547c0.2269-1.7812 0.5247-3.5593 0.961-4.1992a1.0001 1.0001 0 0 0 0.0136-0.01953c0.394-0.6064 0.2109-1.5128-0.3867-1.9199-0.485-0.33044-1.122-0.20455-1.5898 0.13867a1.0001 1.0001 0 0 0-0.793-0.39258h-1a1.0001 1.0001 0 0 0-1 1v0.25195l-1.4004-1.0508a1.0001 1.0001 0 0 0-1.5996 0.78516 1.0001 1.0001 0 0 0-1.5996-0.78516l-1.4004 1.0508v-0.25195a1.0001 1.0001 0 0 0-1-1h-1zm0 1h1v5.3223c0.0408-0.0892 0.07659-0.18653 0.12109-0.26953 0.2031-0.3787 0.45319-0.70139 0.80079-0.90039 0.3475-0.199 0.78484-0.23761 1.2187-0.09961 0.39761 0.126 0.69881 0.41858 0.90821 0.76758 0.2094 0.3493 0.34623 0.76155 0.45703 1.2188 0.0716 0.2957 0.12158 0.63218 0.17578 0.95898h3.3184v-1h1v-5.998h1v4.3594c0.212-1.617 0.5486-3.1276 1.2676-4.1816a0.40061 0.40061 0 0 1 0.6621 0.45117c-0.763 1.119-1.075 3.1991-1.291 5.3691h0.3613v1h1v1h-1v1h-0.6484c-0.12 1.2176-0.2635 2.3584-0.5625 3.2402-0.174 0.5141-0.3985 0.9557-0.7305 1.2813-0.333 0.3257-0.7958 0.5115-1.2988 0.4785-1.2245-0.0798-2.0762-0.7531-2.5957-1.6484-0.5196-0.8953-0.7618-2.0035-0.9414-3.1016-0.0697-0.42591-0.12675-0.84061-0.18555-1.25h-2.0371v1h-1.1875c-0.1803 0.82321-0.36985 1.6581-0.62305 2.4258-0.3451 1.0461-0.79104 1.9763-1.5605 2.5039a0.40004 0.40004 0 0 1-0.63086-0.3203 0.40004 0.40004 0 0 1 0.17773-0.3399c0.5122-0.3512 0.93171-1.117 1.2539-2.0937 0.2193-0.6648 0.3944-1.4173 0.5625-2.1758h-0.99219v-1h-1v-1h1v-1h1v-5.998zm4 0v1h2v-1l2 1.5-2 1.5v-1h-2v1l-2-1.5 2-1.5zm-2 2.75 0.57422 0.43164c-0.19677 0.0053-0.38418-7.8e-4 -0.57422 0.05078v-0.48242zm6 0v2.248a1.0001 1.0001 0 0 0-1 1h-1.4863c-0.01407-0.0671-0.01874-0.12556-0.03515-0.19336-0.12278-0.5066-0.28314-1.0157-0.57227-1.498-0.09956-0.16593-0.34453-0.2466-0.48437-0.40039a1.0001 1.0001 0 0 0 0.57812-0.89258 1.0001 1.0001 0 0 0 1.5996 0.78711l1.4004-1.0508zm-5.4316 2.0137c-0.09163 0.00725-0.1706 0.03653-0.25 0.08203-0.1588 0.091-0.33099 0.28308-0.49219 0.58398-0.0868 0.1619-0.16819 0.35596-0.24609 0.56836h0.41992v1h1.8691c-0.0449-0.2606-0.08582-0.54333-0.14062-0.76953-0.1003-0.4139-0.22459-0.76044-0.36719-0.99804-0.1425-0.2375-0.28499-0.35902-0.46289-0.41602-0.1341-0.0425-0.23846-0.05803-0.33008-0.05078zm2.2793 3.2344c0.0528 0.3724 0.10296 0.74534 0.16406 1.1191 0.1744 1.0659 0.41675 2.0944 0.84375 2.8301 0.4269 0.7357 0.98241 1.188 1.957 1.252 0.301 0.0197 0.4885-0.0596 0.6855-0.252 0.197-0.1925 0.3832-0.5227 0.5332-0.9668 0.252-0.7431 0.3947-1.8178 0.5137-2.9824h-1.5449v-1h-3.1523zm1.1621 1h0.99023a1.0001 1.0001 0 0 0 1 1h0.3652c-0.0886 0.6048-0.1641 1.3167-0.2812 1.6621-0.1086 0.3214-0.2301 0.4871-0.2617 0.5273-0.6255-0.0513-0.7867-0.1994-1.1016-0.7421-0.30132-0.5192-0.54395-1.4455-0.71093-2.4473z" fill="#fff" opacity=".05"/>
 <path id="base" d="m.99818 14.606a.40004 .40004 0 0 0 .63085 .3203c.7695-.5276 1.2155-1.4578 1.5606-2.5039.2532-.7677.4427-1.6026.623-2.4258h1.1875v-1h2.0371c.0588.4094.1159.8241.1856 1.25.1796 1.0981.4218 2.2063.9414 3.1016.5195.8953 1.3714 1.5686 2.5959 1.6484.503.0329.966-.1528 1.299-.4785.332-.3256.556-.7671.73-1.2812.299-.8818.443-2.0227.563-3.2403h.648v-1h1v-1h-1v-1h-.361c.216-2.17.528-4.25 1.291-5.369a.40061 .40061 0 0 0 -.662 -.451c-.719 1.054-1.056 2.564-1.268 4.181v-4.359h-1v5.998h-1v1h-3.3184c-.0542-.3268-.1041-.6632-.1757-.9589-.1108-.4572-.2477-.8698-.4571-1.2191-.2094-.349-.5106-.641-.9082-.767-.4339-.138-.8712-.1-1.2187.099-.3476.199-.5977.522-.8008.9007-.0445.083-.0803.1804-.1211.2696v-5.3223h-1v5.998h-1v1h-1v1h1v1h.9922c-.1681.7585-.3432 1.511-.5625 2.1758-.3222.9767-.7417 1.7426-1.2539 2.0938a.40004 .40004 0 0 0 -.17775 .3398zm3.582-7.6094c.0779-.2124.1593-.4064.2461-.5683.1612-.3009.3334-.4927.4922-.5837s.3118-.117.58-.032c.1779.057.3204.179.4629.4165.1426.2376.2669.5841.3672.998.0548.2262.0957.5089.1406.7695h-1.8691v-1h-.4199zm.4199-4.498 2 1.5v-1h2v1l2-1.5-2-1.5v1h-2v-1l-2 1.5zm2.8477 6.498h3.1523v1h1.545c-.119 1.1646-.262 2.2394-.514 2.9825-.15.4441-.336.7743-.533.9668-.197.1924-.385.2716-.686.2519-.97460-.0636-1.5296-.5162-1.9565-1.2519-.427-.7357-.6694-1.7642-.8438-2.8301-.0611-.3738-.1112-.7468-.164-1.1192z" fill="url(#gr0)"/>
 <path id="path15" d="m3 0.99805v5.998h-1v1h-1v1h1v1h0.99219c-0.1681 0.75851-0.3432 1.511-0.5625 2.1758-0.3222 0.9767-0.74171 1.7425-1.2539 2.0937a0.40004 0.40004 0 0 0-0.17773 0.3399 0.40004 0.40004 0 0 0 0.63086 0.3203c0.7695-0.5276 1.2154-1.4578 1.5605-2.5039 0.2532-0.7677 0.44275-1.6026 0.62305-2.4258h1.1875v-1h2.0371c0.0588 0.4094 0.11585 0.8241 0.18555 1.25 0.1796 1.0981 0.4218 2.2063 0.9414 3.1016 0.5195 0.8953 1.3712 1.5686 2.5957 1.6484 0.503 0.033 0.9658-0.1528 1.2988-0.4785 0.332-0.3256 0.5565-0.7672 0.7305-1.2813 0.299-0.8818 0.4425-2.0226 0.5625-3.2402h0.6484v-1h1v-1h-1v-1h-0.3613c0.216-2.17 0.528-4.2501 1.291-5.3691a0.40061 0.40061 0 0 0-0.6621-0.45117c-0.719 1.054-1.0556 2.5646-1.2676 4.1816v-4.3594h-1v5.998h-1v1h-3.3184c-0.0542-0.3268-0.10418-0.66328-0.17578-0.95898-0.1108-0.4572-0.24763-0.86945-0.45703-1.2188-0.2094-0.349-0.5106-0.64158-0.90821-0.76758-0.4339-0.138-0.87124-0.09939-1.2187 0.09961-0.3476 0.199-0.59769 0.52169-0.80079 0.90039-0.0445 0.083-0.08029 0.18033-0.12109 0.26953v-5.3223h-1zm4 0-2 1.5 2 1.5v-1h2v1l2-1.5-2-1.5v1h-2v-1zm-0.5 1a0.50005 0.50005 0 0 0 0.5 0.5 0.50005 0.50005 0 0 0-0.5 0.5l-0.66602-0.5 0.66602-0.5zm3 0 0.666 0.5-0.666 0.5a0.50005 0.50005 0 0 0-0.5-0.5 0.50005 0.50005 0 0 0 0.5-0.5zm3 3.377a0.50005 0.50005 0 0 0 0.8086 0.375c-0.0493 0.40736-0.1264 0.77928-0.168 1.1973a0.50005 0.50005 0 0 0 0.3594 0.52929v0.51953a0.50005 0.50005 0 0 0 0.5 0.5 0.50005 0.50005 0 0 0-0.5 0.5v0.5h-0.1484a0.50005 0.50005 0 0 0-0.4024 0.20508 0.50005 0.50005 0 0 0-0.4043-0.20508h-1.0449v-0.5a0.50005 0.50005 0 0 0-0.5-0.5 0.50005 0.50005 0 0 0 0.5-0.5v-0.5h0.5a0.50005 0.50005 0 0 0 0.5-0.5v-1.6211zm-6.9316 0.38672c0.09162-0.00725 0.19598 0.00828 0.33008 0.05078 0.1779 0.057 0.32039 0.17852 0.46289 0.41602 0.1426 0.2376 0.26689 0.58414 0.36719 0.99804 0.0548 0.2262 0.09572 0.50893 0.14062 0.76953h-1.8691v-1h-0.41992c0.0779-0.2124 0.15929-0.40646 0.24609-0.56836 0.1612-0.3009 0.33339-0.49298 0.49219-0.58398 0.0794-0.0455 0.15837-0.07478 0.25-0.08203zm-2.0684 0.56445a0.50005 0.50005 0 0 0 0.61914 0.48047c-0.00232 0.00628-0.0055 0.01128-0.00781 0.01758a0.50005 0.50005 0 0 0 0.38867 0.66601v0.50586a0.50005 0.50005 0 0 0 0.5 0.5 0.50005 0.50005 0 0 0-0.5 0.5v0.5h-0.6875a0.50005 0.50005 0 0 0-0.41016 0.21485 0.50005 0.50005 0 0 0-0.41015-0.21485h-0.49219v-0.5a0.50005 0.50005 0 0 0-0.5-0.5 0.50005 0.50005 0 0 0 0.5-0.5v-0.5h0.5a0.50005 0.50005 0 0 0 0.5-0.5v-0.66992zm3.7754 1.9609a0.50005 0.50005 0 0 0 0.40625 0.20898h0.14258a0.50005 0.50005 0 0 0-0.38281 0.20899 0.50005 0.50005 0 0 0-0.4043-0.20899h-0.14258a0.50005 0.50005 0 0 0 0.38086-0.20898zm0.57227 0.70898h3.1523v1h1.5449c-0.119 1.1646-0.2617 2.2393-0.5137 2.9824-0.15 0.4441-0.3362 0.7743-0.5332 0.9668-0.197 0.1924-0.3845 0.2717-0.6855 0.252-0.97462-0.064-1.5301-0.5163-1.957-1.252-0.427-0.7357-0.66935-1.7642-0.84375-2.8301-0.0611-0.37377-0.11126-0.74671-0.16406-1.1191z" opacity=".3"/>
 <path id="path20" d="m14.701 2.0254c-0.598 1.1742-0.8698 3.0342-1.0625 4.9707h0.1172c0.2148-1.7882 0.5303-3.4255 1.1738-4.3691a0.40061 0.40061 0 0 0-0.2285-0.60156zm-9.0352 0.97266-0.66602 0.5 2 1.5v-1l-1.334-1zm1.334 1h2v-1h-2v1zm2 0v1l2-1.5-0.666-0.5-1.334 1zm-3.502 1.9766c-0.15932 0.01318-0.30801 0.05886-0.44922 0.12109-0.07468 0.09192-0.15021 0.19679-0.22266 0.33203-0.0868 0.1619-0.16819 0.35596-0.24609 0.56836h0.41992v0.17383c0.10791-0.14676 0.21507-0.26698 0.31836-0.32617 0.1588-0.091 0.31188-0.11625 0.58008-0.03125 0.1779 0.057 0.32039 0.17852 0.46289 0.41602 0.11349 0.1891 0.21139 0.46142 0.29883 0.76757h0.20898c-0.0449-0.2606-0.08582-0.54333-0.14062-0.76953-0.1003-0.4139-0.22459-0.76044-0.36719-0.99804-0.03183-0.05305-0.06544-0.08097-0.09766-0.12305-0.04119-0.01761-0.07956-0.04091-0.12305-0.05469-0.21695-0.069-0.43557-0.0933-0.64257-0.07617zm-4.498 3.0215v1h1v-1h-1zm1 1v1h0.75977c0.08088-0.3281 0.15759-0.6624 0.23242-1h-0.99219zm3-1v1h2.0371c0.0588 0.40941 0.11585 0.82411 0.18555 1.25 0.1796 1.0981 0.4218 2.2063 0.9414 3.1016 0.5195 0.8953 1.3712 1.5686 2.5957 1.6484 0.503 0.033 0.9658-0.1528 1.2988-0.4785 0.332-0.3256 0.5565-0.7672 0.7305-1.2813 0.299-0.8818 0.4425-2.0226 0.5625-3.2402h0.6484v-1h-0.6484c-0.12 1.2176-0.2635 2.3584-0.5625 3.2402-0.174 0.5141-0.3985 0.9557-0.7305 1.2813-0.1397 0.1366-0.3056 0.2426-0.4844 0.3242-0.0259 0.0306-0.0498 0.0778-0.0762 0.1035-0.197 0.1924-0.3845 0.2717-0.6855 0.252-0.6594-0.0433-1.1169-0.2764-1.4824-0.6426-0.49184-0.2962-0.88097-0.7158-1.166-1.207-0.5196-0.8953-0.7618-2.0035-0.9414-3.1016-0.0697-0.42591-0.12675-0.84061-0.18555-1.25h-0.16797-1.8691zm9 1h1v-1h-1v1zm-9 0h-1.1875c-0.1803 0.82321-0.36985 1.6581-0.62305 2.4258-0.3451 1.0461-0.79104 1.9763-1.5605 2.5039a0.40004 0.40004 0 0 1-0.15625 0.0664c-0.09596 0.1032-0.19331 0.2024-0.29688 0.2734a0.40004 0.40004 0 0 0-0.17773 0.3399 0.40004 0.40004 0 0 0 0.63086 0.3203c0.7695-0.5276 1.2154-1.4578 1.5605-2.5039 0.2532-0.7677 0.44275-1.6026 0.62305-2.4258h1.1875v-1zm2.8477-1c0.04717 0.33275 0.09384 0.66615 0.14648 1h3.0059v-1h-3.1523zm3.1523 1v1h1.4199c0.0428-0.3296 0.089-0.6472 0.125-1h-1.5449z" fill="#fff" opacity=".2"/>
 <path id="path25" d="m3 0.99805v1h1v-1h-1zm4 0-2 1.5 0.66602 0.5 1.334-1v-1zm0 1v1h2v-1h-2zm2 0 1.334 1 0.666-0.5-2-1.5v1zm3-1v1h1v-1h-1zm2.5723 0.011723a0.40061 0.40061 0 0 0-0.3047 0.16601c-0.719 1.054-1.0556 2.5646-1.2676 4.1816v1c0.212-1.617 0.5486-3.1276 1.2676-4.1816a0.40061 0.40061 0 0 1 0.4336-0.15039c0.0721-0.14154 0.1464-0.27805 0.2285-0.39844a0.40061 0.40061 0 0 0-0.3574-0.61718zm-9.0742 3.9648c-0.207 0.01712-0.40242 0.07628-0.57617 0.17578-0.3476 0.199-0.59769 0.52169-0.80079 0.90039-0.0445 0.083-0.08029 0.18033-0.12109 0.26953v1c0.0408-0.0892 0.07659-0.18653 0.12109-0.26953 0.2031-0.3787 0.45319-0.70139 0.80079-0.90039 0.04002-0.02292 0.08469-0.03606 0.12695-0.05469 0.09148-0.11259 0.1821-0.20185 0.26953-0.25195 0.1588-0.091 0.31188-0.11625 0.58008-0.03125 0.13817 0.04427 0.25319 0.14662 0.36523 0.29297 0.33538 0.1434 0.59866 0.40206 0.78516 0.71289 0.2094 0.3493 0.34623 0.76155 0.45703 1.2188 0.0716 0.2957 0.12158 0.63218 0.17578 0.95898h0.16602 3.1523v-1h-3.3184c-0.0542-0.3268-0.10418-0.66328-0.17578-0.95898-0.1108-0.4572-0.24763-0.86945-0.45703-1.2188-0.2094-0.349-0.5106-0.64158-0.90821-0.76758-0.21695-0.069-0.43557-0.0933-0.64257-0.07617zm5.502 3.0215h1v-1h-1v1zm-9-1v1h1v-1h-1zm0 1h-1v1h1v-1zm11.756-1c-0.04 0.33224-0.0834 0.65999-0.1172 1h0.3613v-1h-0.2441zm0.2441 1v1h1v-1h-1zm-9-0.82617c-0.058 0.07888-0.11748 0.15263-0.17383 0.25781-0.0868 0.1619-0.16819 0.35596-0.24609 0.56836h0.41992v-0.82617zm0 0.82617v1h1.8691c-0.0449-0.2606-0.08582-0.54333-0.14062-0.76953-0.02048-0.08447-0.04594-0.15196-0.06836-0.23047h-1.6602zm2.8477 2c0.0528 0.37241 0.10296 0.74531 0.16406 1.1191 0.1744 1.0659 0.41675 2.0944 0.84375 2.8301 0.13808 0.238 0.29987 0.4343 0.47461 0.6094 0.40453 0.2436 0.87712 0.4054 1.4297 0.4414 0.292 0.0192 0.5669-0.0414 0.8144-0.1543 0.1678-0.1983 0.3271-0.4785 0.457-0.8633 0.252-0.7431 0.3947-1.8178 0.5137-2.9824h-0.125c-0.0985 0.7584-0.213 1.4644-0.3887 1.9824-0.15 0.4441-0.3362 0.7743-0.5332 0.9668-0.197 0.1924-0.3845 0.2717-0.6855 0.252-0.97462-0.064-1.5301-0.5163-1.957-1.252-0.427-0.7357-0.66935-1.7642-0.84375-2.8301-0.00651-0.0398-0.01131-0.0793-0.01758-0.11911h-0.14648zm-5.0879 1c-0.10082 0.4089-0.20841 0.8069-0.33008 1.1758-0.3222 0.9767-0.74171 1.7425-1.2539 2.0937a0.40004 0.40004 0 0 0-0.17773 0.3399 0.40004 0.40004 0 0 0 0.47461 0.3867c0.37856-0.4073 0.69998-1.0411 0.95703-1.8203 0.2193-0.6648 0.3944-1.4173 0.5625-2.1758h-0.23242z" opacity=".3"/>
</svg>
