<?xml version="1.0" encoding="UTF-8"?>
<svg id="svg30" width="16" height="16" version="1.1" xmlns="http://www.w3.org/2000/svg" xmlns:cc="http://creativecommons.org/ns#" xmlns:dc="http://purl.org/dc/elements/1.1/" xmlns:rdf="http://www.w3.org/1999/02/22-rdf-syntax-ns#">
 <metadata id="metadata34">
  <rdf:RDF>
   <cc:Work rdf:about="">
    <dc:format>image/svg+xml</dc:format>
    <dc:type rdf:resource="http://purl.org/dc/dcmitype/StillImage"/>
   </cc:Work>
  </rdf:RDF>
 </metadata>
 <defs id="defs7">
  <radialGradient id="gr0" cx="9" cy="10" r="11" gradientTransform="matrix(1 0 0 .72727 0 2.7273)" gradientUnits="userSpaceOnUse">
   <stop id="stop2" stop-opacity=".23529" offset="0"/>
   <stop id="stop4" stop-opacity=".54902" offset="1"/>
  </radialGradient>
 </defs>
 <path id="path9" d="m1 0a1 1.0001 0 0 0-1 1v1a1.0001 1.0001 0 0 0 1 1h0.25l-1.0508 1.4004a1.0001 1.0001 0 0 0 0.78711 1.5996 1.0001 1.0001 0 0 0-0.78711 1.5996l1.0508 1.4004h-0.25a1.0001 1.0001 0 0 0-1 1v1a1.0001 1.0001 0 0 0 1 1h4v3a1.0001 1.0001 0 0 0 1 1h9a1.0001 1.0001 0 0 0 1-1v-5a1.0001 1.0001 0 0 0-1-1h-4.1523-1.8477-3-2.25l1.0508-1.4004a1.0001 1.0001 0 0 0-0.78711-1.5996 1.0001 1.0001 0 0 0 0.98633-1.0293 1.0001 1.0001 0 0 0-0.19922-0.57031l-1.0508-1.4004h1.25v1.9707 1.0293a1.0001 1.0001 0 0 0 1 1h6a1.0001 1.0001 0 0 0 1-1v-5a1.0001 1.0001 0 0 0-1-1h-2.5078-0.49219-3-5zm0 1h5 3 0.49219 2.5078v5h-6v-3-1h-5v-1zm1.5 2 1.5 2h-1v2h1l-1.5 2-1.5-2h1v-2h-1l1.5-2zm-1.5 7h5 3 1.8477 4.1523v5h-9v-3-1h-5v-1z" fill="#fff" opacity=".05"/>
 <path id="base" d="m1 11h5v4h9v-5h-14v1zm0-4 1.5 2 1.5-2h-1v-2h1l-1.5-2-1.5 2h1v2h-1zm0-5h5v4h6v-5h-11v1z" fill="url(#gr0)"/>
 <path id="path15" d="m1 1v1h5v1 3h6v-5h-2.5078-0.49219-3-5zm5 0.5h3 0.49219 2.0078v4h-5v-2.5-1a0.50005 0.50005 0 0 0-0.5-0.5zm-3.5 1.5-1.5 2h1v2h-1l1.5 2 1.5-2h-1v-2h1l-1.5-2zm0 0.83398 0.5 0.66602a0.50005 0.50005 0 0 0-0.5 0.5 0.50005 0.50005 0 0 0-0.5-0.5l0.5-0.66602zm0 3.166a0.50005 0.50005 0 0 0 0.5 0.5l-0.5 0.66602-0.5-0.66602a0.50005 0.50005 0 0 0 0.5-0.5zm-1.5 3v1h5v1 3h9v-5h-4.1523-1.8477-3-5zm5 0.5h3 1.8477 3.6523v4h-8v-2.5-1a0.50005 0.50005 0 0 0-0.5-0.5z" opacity=".3"/>
 <path id="path20" d="m1 2v1h1.5 3.5v-1h-5zm0.75 3-0.75 1h1v-1h-0.25zm1.25 0v1h1l-0.75-1h-0.25zm3 1v1h6v-1h-6zm-5 2 1.5 2 1.5-2h-0.75l-0.75 1-0.75-1h-0.75zm0 3v1h5v-1h-5zm5 4v1h9v-1h-9z" fill="#fff" opacity=".2"/>
 <path id="path25" d="m1 1v1h5 3 0.49219 2.5078v-1h-2.5078-0.49219-3-5zm1.5 2-1.5 2h0.75l0.75-1 0.75 1h0.75l-1.5-2zm-1.5 4 0.75 1h0.25v-1h-1zm2 0v1h0.25l0.75-1h-1zm-2 3v1h5 3 1.8477 4.1523v-1h-4.1523-1.8477-3-3.5-1.5z" opacity=".3"/>
</svg>
