<?xml version="1.0" encoding="UTF-8"?>
<svg id="svg30" width="16" height="16" version="1.1" xmlns="http://www.w3.org/2000/svg" xmlns:cc="http://creativecommons.org/ns#" xmlns:dc="http://purl.org/dc/elements/1.1/" xmlns:rdf="http://www.w3.org/1999/02/22-rdf-syntax-ns#">
 <metadata id="metadata34">
  <rdf:RDF>
   <cc:Work rdf:about="">
    <dc:format>image/svg+xml</dc:format>
    <dc:type rdf:resource="http://purl.org/dc/dcmitype/StillImage"/>
   </cc:Work>
  </rdf:RDF>
 </metadata>
 <defs id="defs7">
  <radialGradient id="gr0" cx="9" cy="10" r="11" gradientTransform="matrix(1 0 0 .72727 0 2.7273)" gradientUnits="userSpaceOnUse">
   <stop id="stop2" stop-opacity=".23529" offset="0"/>
   <stop id="stop4" stop-opacity=".54902" offset="1"/>
  </radialGradient>
 </defs>
 <path id="path9" d="m11 0a1 1.0001 0 0 0-1 1v2.1621c-0.10271-0.04117-0.17978-0.1273-0.29297-0.14453h-0.00195c-0.20086-0.03016-0.4231-0.01839-0.63281 0.04297l-2.9727 0.87304c-0.53847 0.15825-0.81425 0.59225-0.95117 1.0781a1.0001 1.0001 0 0 0-0.14844-0.01172h-4a1.0001 1.0001 0 0 0-1 1v4a1.0001 1.0001 0 0 0 1 1h4a1.0001 1.0001 0 0 0 0.16016-0.0137c-0.0287 0.0704-0.09501 0.1189-0.11328 0.1934-0.19143 0.7829 0.21906 1.6429 1.0527 1.8867l2.9727 0.8731c0.32663 0.0958 0.63518-0.016 0.92773-0.1368v1.1973a1.0001 1.0001 0 0 0 1 1h4a1.0001 1.0001 0 0 0 1-1v-4a1.0001 1.0001 0 0 0-1-1h-0.2109c0.0696-0.1711 0.2109-0.30715 0.2109-0.5v-3c0-0.19285-0.1413-0.3289-0.2109-0.5h0.2109a1.0001 1.0001 0 0 0 1-1v-4a1.0001 1.0001 0 0 0-1-1h-4zm0 1h4v4h-4v-4zm-1.4434 3.0059c0.1981 0.0299 0.37058 0.18621 0.42578 0.41211 0.07358 0.3011-0.08868 0.60875-0.36328 0.68945l-2.9727 0.87305c-0.2746 0.0807-0.5554-0.09724-0.6289-0.39844-0.0736-0.3011 0.08868-0.60875 0.36328-0.68945l2.9727-0.87305c0.0687-0.0196 0.13712-0.02367 0.20312-0.01367zm0.75976 1.7227a1.0001 1.0001 0 0 0 0.6836 0.27148h1.2109c-0.0696 0.1711-0.2109 0.30715-0.2109 0.5v3c0 0.19285 0.1413 0.3289 0.2109 0.5h-1.2109a1.0001 1.0001 0 0 0-1 1v0.0156c-0.04324-0.017-0.05379-0.0686-0.09961-0.082h-0.00195l-2.959-0.8691c-0.22069-0.06756-0.45001-0.07671-0.64648-0.0469-0.11866 0.0179-0.19945 0.1081-0.30664 0.1523a1.0001 1.0001 0 0 0 0.01367-0.1699v-3.1973c0.29291 0.12102 0.60065 0.23285 0.92773 0.13672l2.9727-0.87304c0.19001-0.05584 0.27201-0.22618 0.41601-0.33789zm-9.3164 0.27148h4v4h-4v-4zm12.5 0c0.277 0 0.5 0.223 0.5 0.5v3c0 0.277-0.223 0.5-0.5 0.5s-0.5-0.223-0.5-0.5v-3c0-0.277 0.223-0.5 0.5-0.5zm-2.5 5h4v4h-4v-4zm-4.5566 0.0098c0.066-0.01 0.13442-0.0074 0.20312 0.0136l2.9727 0.8731c0.2746 0.08 0.43686 0.3884 0.36328 0.6894-0.0735 0.301-0.3543 0.4795-0.6289 0.3985l-2.9727-0.8731c-0.2746-0.08-0.43688-0.3884-0.36328-0.6894 0.0552-0.226 0.22768-0.3821 0.42578-0.4121z" fill="#fff" opacity=".05"/>
 <path id="base" d="m11 1v4h4v-4h-4zm-1.4434 3.0059c-.0660-0.01-.1344-.0065-.2031.0136l-2.9726.8731c-.2746.0807-.4369.3883-.3633.6894.0735.3012.3543.4792.6289.3985l2.9726-.8731c.2746-.0807.4369-.3883.3633-.6894-.0552-.2259-.2277-.3822-.4258-.4121zm-8.5566 1.9941v4h4v-4h-4zm12.5 0c-.277 0-.5.223-.5.5v3c0 .277.223.5.5.5s.5-.223.5-.5v-3c0-.277-.223-.5-.5-.5zm-2.5 5v4h4v-4h-4zm-4.5566.006c-.1981.030-.3706.186-.4258.412-.0736.301.0887.609.3633.689l2.9726.873c.2746.081.5554-.097.6289-.398.0736-.301-.0887-.609-.3633-.689l-2.9726-.873c-.0687-.021-.1371-.024-.2031-.014z" fill="url(#gr0)"/>
 <path id="path15" d="m11 1v4h4v-4h-4zm0.5 0.5h3v3h-3v-3zm-1.9434 2.5059c-0.066-0.01-0.13442-0.00593-0.20312 0.01367l-2.9727 0.87305c-0.2746 0.0807-0.43688 0.38835-0.36328 0.68945 0.0735 0.3012 0.3543 0.47914 0.6289 0.39844l2.9727-0.87305c0.2746-0.0807 0.43686-0.38835 0.36328-0.68945-0.0552-0.2259-0.22768-0.38221-0.42578-0.41211zm-0.07226 0.49805c-0.00655-2e-3 0.00209-0.00618 0.01171 0.0332 0.0147 0.06011-0.0216 0.09103-0.01757 0.08984l-2.9727 0.87305c0.00469-0.00138 0.01277 0.02323-0.00195-0.03711-0.0147-0.06011 0.0216-0.09103 0.01757-0.08984l2.9629-0.86914zm-8.4844 1.4961v4h4v-4h-4zm12.5 0c-0.277 0-0.5 0.223-0.5 0.5v3c0 0.277 0.223 0.5 0.5 0.5s0.5-0.223 0.5-0.5v-3c0-0.277-0.223-0.5-0.5-0.5zm-12 0.5h3v3h-3v-3zm9.5 4.5v4h4v-4h-4zm-4.5566 0.0098c-0.1981 0.03-0.37058 0.1861-0.42578 0.4121-0.0736 0.301 0.08868 0.6094 0.36328 0.6894l2.9727 0.8731c0.2746 0.081 0.5554-0.0975 0.6289-0.3985 0.07358-0.301-0.08868-0.6094-0.36328-0.6894l-2.9727-0.8731c-0.0687-0.021-0.13712-0.0236-0.20312-0.0136zm5.0566 0.4902h3v3h-3v-3zm-4.9844 0.0039 2.9629 0.8691c-0.00548-0.0015 0.0322 0.0301 0.01757 0.0899-0.01466 0.06-0.00672 0.0357-0.00195 0.0371l-2.9727-0.873c0.00548 0.0015-0.0322-0.0301-0.01757-0.0899 0.00962-0.0394 0.01786-0.0352 0.01171-0.0332z" opacity=".3"/>
 <path id="path20" d="m11 5v1h2.5 1.5v-1h-4zm-1.3125 0.07031c-0.02352 0.01126-0.04279 0.0296-0.06836 0.03711l-2.9727 0.87305c-0.12288 0.03611-0.24533 0.01434-0.35156-0.04102-0.2177 0.11536-0.34232 0.37676-0.27734 0.64258 0.0735 0.3012 0.3543 0.47914 0.6289 0.39844l2.9727-0.87305c0.2746-0.0807 0.43686-0.38835 0.36328-0.68945-0.04164-0.17042-0.15913-0.28085-0.29492-0.34766zm3.3125 4.4297v1c0 0.277 0.223 0.5 0.5 0.5s0.5-0.223 0.5-0.5v-1c0 0.277-0.223 0.5-0.5 0.5s-0.5-0.223-0.5-0.5zm-12 0.5v1h4v-1h-4zm5.3125 2.0742c-0.13579 0.0668-0.25328 0.1772-0.29492 0.3477-0.0736 0.301 0.08868 0.6094 0.36328 0.6894l2.9727 0.8731c0.2746 0.081 0.5554-0.0975 0.6289-0.3985 0.06498-0.2657-0.05964-0.5276-0.27734-0.6425-0.10623 0.0553-0.22868 0.0772-0.35156 0.041l-2.9727-0.8731c-0.02557-0.0074-0.04484-0.0259-0.06836-0.0371zm4.6875 2.9258v1h4v-1h-4z" fill="#fff" opacity=".2"/>
 <path id="path25" d="m11 1v1h4v-1h-4zm-1.4434 3.0059c-0.066-0.01-0.13442-0.00593-0.20312 0.01367l-2.9727 0.87305c-0.2746 0.0807-0.43688 0.38835-0.36328 0.68945 0.04061 0.16642 0.14618 0.28908 0.27734 0.35742 0.02889-0.01531 0.05377-0.03742 0.08594-0.04687l2.9727-0.87305c0.0687-0.0196 0.13712-0.02367 0.20312-0.01367 0.04865 0.00734 0.08666 0.0427 0.13086 0.06445 0.2291-0.10966 0.3617-0.37927 0.29492-0.65234-0.0552-0.2259-0.22768-0.38221-0.42578-0.41211zm-8.5566 1.9941v1h4v-1h-4zm12.5 0c-0.277 0-0.5 0.223-0.5 0.5v1c0-0.277 0.223-0.5 0.5-0.5s0.5 0.223 0.5 0.5v-1c0-0.277-0.223-0.5-0.5-0.5zm-2.5 5v1h4v-1h-1.5-2.5zm-4.5566 0.0098c-0.1981 0.03-0.37058 0.1861-0.42578 0.4121-0.06675 0.273 0.06582 0.5431 0.29492 0.6523 0.0442-0.0217 0.08221-0.0571 0.13086-0.0644 0.066-0.01 0.13442-0.0074 0.20312 0.0136l2.9727 0.8731c0.03217 0.0094 0.05705 0.0316 0.08594 0.0469 0.13116-0.0683 0.23673-0.1912 0.27734-0.3575 0.07358-0.301-0.08868-0.6094-0.36328-0.6894l-2.9727-0.8731c-0.0687-0.021-0.13712-0.0236-0.20312-0.0136z" opacity=".3"/>
</svg>
