<?xml version="1.0" encoding="UTF-8"?>
<svg id="svg30" width="16" height="16" version="1.1" xmlns="http://www.w3.org/2000/svg" xmlns:cc="http://creativecommons.org/ns#" xmlns:dc="http://purl.org/dc/elements/1.1/" xmlns:rdf="http://www.w3.org/1999/02/22-rdf-syntax-ns#">
 <metadata id="metadata34">
  <rdf:RDF>
   <cc:Work rdf:about="">
    <dc:format>image/svg+xml</dc:format>
    <dc:type rdf:resource="http://purl.org/dc/dcmitype/StillImage"/>
   </cc:Work>
  </rdf:RDF>
 </metadata>
 <defs id="defs7">
  <radialGradient id="gr0" cx="9" cy="10" r="11" gradientTransform="matrix(1 0 0 .72727 0 2.7273)" gradientUnits="userSpaceOnUse">
   <stop id="stop2" stop-opacity=".23529" offset="0"/>
   <stop id="stop4" stop-opacity=".54902" offset="1"/>
  </radialGradient>
 </defs>
 <path id="path9" d="m6 0a1 1.0001 0 0 0-1 1v1h-4a1.0001 1.0001 0 0 0-1 1v1a1.0001 1.0001 0 0 0 1 1h0.25l-1.0508 1.4004a1.0001 1.0001 0 0 0 0.78711 1.5996 1.0001 1.0001 0 0 0-0.78711 1.5996l1.0508 1.4004h-0.25a1.0001 1.0001 0 0 0-1 1v1a1.0001 1.0001 0 0 0 1 1h4v1a1.0001 1.0001 0 0 0 1 1h9a1.0001 1.0001 0 0 0 1-1v-5a1.0001 1.0001 0 0 0-1-1h-9a1.0001 1.0001 0 0 0-1 1v1h-1.25l1.0508-1.4004a1.0001 1.0001 0 0 0-0.78711-1.5996 1.0001 1.0001 0 0 0 0.78711-1.5996l-1.0508-1.4004h1.25v1a1.0001 1.0001 0 0 0 1 1h6a1.0001 1.0001 0 0 0 1-1v-5a1.0001 1.0001 0 0 0-1-1h-6zm0 1h6v5h-6v-1h3v-3h-3v-1zm-5 2h7v1h-7v-1zm1.5 2 1.5 2h-1v2h1l-1.5 2-1.5-2h1v-2h-1l1.5-2zm3.5 5h9v5h-9v-1h3v-3h-3v-1zm-5 2h7v1h-7v-1z" fill="#fff" opacity=".05"/>
 <path id="base" d="m1 13h7v-1h-7v1zm0-4 1.5 2 1.5-2h-1v-2h1l-1.5-2-1.5 2h1v2h-1zm0-5h7v-1h-7v1zm5 11h9v-5h-9v1h3v3h-3v1zm0-9h6v-5h-6v1h3v3h-3v1z" fill="url(#gr0)"/>
 <path id="path15" d="m6 1v1h3v3h-3v1h6v-5h-6zm3 0.5h2.5v4h-2.5a0.50005 0.50005 0 0 0 0.5-0.5v-3a0.50005 0.50005 0 0 0-0.5-0.5zm-8 1.5v1h7v-1h-7zm1.5 2-1.5 2h1v2h-1l1.5 2 1.5-2h-1v-2h1l-1.5-2zm0 0.83398 0.5 0.66602a0.50005 0.50005 0 0 0-0.5 0.5 0.50005 0.50005 0 0 0-0.5-0.5l0.5-0.66602zm0 3.166a0.50005 0.50005 0 0 0 0.5 0.5l-0.5 0.666-0.5-0.666a0.50005 0.50005 0 0 0 0.5-0.5zm3.5 1v1h3v3h-3v1h9v-5h-9zm3 0.5h5.5v4h-5.5a0.50005 0.50005 0 0 0 0.5-0.5v-3a0.50005 0.50005 0 0 0-0.5-0.5zm-8 1.5v1h7v-1h-7z" opacity=".3"/>
 <path id="path20" d="m6 2v1h2 1v-1h-3zm-5 2v1h1.5 3.5 2v-1h-7zm5 2v1h6v-1h-3-3zm-4.25 1-0.75 1h1v-1h-0.25zm1.25 0v1h1l-0.75-1h-0.25zm-2 3 1.5 2 1.5-2h-0.75l-0.75 1-0.75-1h-0.75zm5 1v1h2 1v-1h-3zm-5 2v1h5 2v-1h-7zm5 2v1h9v-1h-6-3z" fill="#fff" opacity=".2"/>
 <path id="path25" d="m6 1v1h3 3v-1h-6zm-5 2v1h7v-1h-2-5zm1.5 2-1.5 2h0.75l0.75-1 0.75 1h0.75l-1.5-2zm3.5 0v1h3v-1h-1-2zm-5 4 0.75 1h0.25v-1h-1zm2 0v1h0.25l0.75-1h-1zm3 1v1h3 6v-1h-9zm-5 2v1h7v-1h-2-3.5-1.5zm5 2v1h3v-1h-1-2z" opacity=".3"/>
</svg>
