<?xml version="1.0" encoding="UTF-8"?>
<svg id="svg30" width="16" height="16" version="1.1" xmlns="http://www.w3.org/2000/svg" xmlns:cc="http://creativecommons.org/ns#" xmlns:dc="http://purl.org/dc/elements/1.1/" xmlns:rdf="http://www.w3.org/1999/02/22-rdf-syntax-ns#">
 <metadata id="metadata34">
  <rdf:RDF>
   <cc:Work rdf:about="">
    <dc:format>image/svg+xml</dc:format>
    <dc:type rdf:resource="http://purl.org/dc/dcmitype/StillImage"/>
   </cc:Work>
  </rdf:RDF>
 </metadata>
 <defs id="defs7">
  <radialGradient id="gr0" cx="9" cy="10" r="11" gradientTransform="matrix(1 0 0 .72727 0 2.7273)" gradientUnits="userSpaceOnUse">
   <stop id="stop2" stop-opacity=".23529" offset="0"/>
   <stop id="stop4" stop-opacity=".54902" offset="1"/>
  </radialGradient>
 </defs>
 <path id="path9" d="m5.5 0c-1.309 2.4046e-16 -2.5 1.191-2.5 2.5a1 1.0001 0 0 0 0 0.00391c4.2e-4 0.10507 0.05661 0.20051 0.07031 0.30468l-0.26172 0.26172c-0.10417-0.0137-0.19961-0.06989-0.30468-0.07031a1.0001 1.0001 0 0 0-0.00391 0c-1.309 0-2.5 1.191-2.5 2.5 1.6031e-16 1.309 1.191 2.5 2.5 2.5l0.67969 0.90625c-0.05239 0.20256-0.1794 0.38255-0.17969 0.5918a1.0001 1.0001 0 0 0 0 0.00195c0 1.309 1.191 2.5 2.5 2.5a1.0001 1.0001 0 0 0 0.00195 0c0.888-0.0014 1.5976-0.6156 2.0391-1.3789l1.3945-0.2793c0.44831 0.3772 0.97581 0.6568 1.5624 0.6582h2e-3l0.3711 0.4961-0.8066 0.1621c-0.44909-0.3771-0.9773-0.6577-1.5645-0.6582-1.309 0-2.5 1.191-2.5 2.5s1.191 2.5 2.5 2.5a1.0001 1.0001 0 0 0 0.00195 0c0.88797-0.0014 1.5976-0.6157 2.039-1.3789l1.3945-0.2793c0.449 0.3771 0.9754 0.6576 1.5625 0.6582a1.0001 1.0001 0 0 0 2e-3 0c1.309 0 2.5-1.191 2.5-2.5s-1.191-2.5-2.5-2.5l-0.6797-0.90625c0.0524-0.20256 0.1794-0.38255 0.1797-0.5918a1.0001 1.0001 0 0 0 0-0.0039c-1e-3 -0.73917-0.4345-1.368-1-1.8398v-1.3164c0.5655-0.4719 0.999-1.1007 1-1.8398a1.0001 1.0001 0 0 0 0-0.00195c0-1.309-1.191-2.5-2.5-2.5a1.0001 1.0001 0 0 0-2e-3 0c-0.58719 6.3e-4 -1.1135 0.28095-1.5624 0.6582l-1.3926-0.27929c-0.44208-0.76422-1.1538-1.3787-2.043-1.3789zm0 1a1.5 1.5 0 0 1 1.4844 1.2871l2.2285 0.44531a1.5 1.5 0 0 1 1.2871-0.73242 1.5 1.5 0 0 1 1.5 1.5 1.5 1.5 0 0 1-1 1.4121v2.1758a1.5 1.5 0 0 1 1 1.4121 1.5 1.5 0 0 1-0.252 0.83008l1.3047 1.7402a1.5 1.5 0 0 1 0.4473-0.0703 1.5 1.5 0 0 1 1.5 1.5 1.5 1.5 0 0 1-1.5 1.5 1.5 1.5 0 0 1-1.2871-0.7324l-2.2305 0.4453a1.5 1.5 0 0 1-1.4824 1.2871 1.5 1.5 0 0 1-1.5-1.5 1.5 1.5 0 0 1 1.5-1.5 1.5 1.5 0 0 1 1.2871 0.7324l2.2305-0.4453a1.5 1.5 0 0 1 0.2344-0.6172l-1.3047-1.7402a1.5 1.5 0 0 1-0.4473 0.07031 1.5 1.5 0 0 1-1.2852-0.73242l-2.2324 0.44531a1.5 1.5 0 0 1-1.4824 1.2871 1.5 1.5 0 0 1-1.5-1.5 1.5 1.5 0 0 1 0.25195-0.83008l-1.3047-1.7402a1.5 1.5 0 0 1-0.44727 0.07031 1.5 1.5 0 0 1-1.5-1.5 1.5 1.5 0 0 1 1.5-1.5 1.5 1.5 0 0 1 0.64453 0.14844l1.0039-1.0039a1.5 1.5 0 0 1-0.14844-0.64453 1.5 1.5 0 0 1 1.5-1.5zm1.2871 2.2676a1.5 1.5 0 0 1-1.2871 0.73242 1.5 1.5 0 0 1-0.64453-0.14844l-1.0039 1.0039a1.5 1.5 0 0 1 0.14844 0.64453 1.5 1.5 0 0 1-0.25195 0.83008l1.3047 1.7402a1.5 1.5 0 0 1 0.44727-0.07031 1.5 1.5 0 0 1 1.2852 0.73242l2.2324-0.44531a1.5 1.5 0 0 1 0.98242-1.1992v-2.1758a1.5 1.5 0 0 1-0.98438-1.1992l-2.2285-0.44531zm0.27734 1.0742 1.2949 0.25976c0.16399 0.31209 0.3665 0.5576 0.64062 0.7793v1.2383c-0.27364 0.22176-0.47503 0.4674-0.63867 0.7793l-1.2969 0.25976c-0.44831-0.37719-0.97576-0.65682-1.5625-0.6582h-0.00195l-0.67969-0.90625c0.05239-0.20256 0.1794-0.38255 0.17969-0.5918a1.0001 1.0001 0 0 0 0-0.00586c-4.2e-4 -0.10507-0.05661-0.20051-0.07031-0.30468l0.26172-0.26172c0.10417 0.0137 0.19961 0.06989 0.30468 0.07031a1.0001 1.0001 0 0 0 0.00586 0c0.58729-6.3e-4 1.1135-0.28095 1.5625-0.6582z" fill="#fff" opacity=".05"/>
 <path id="base" d="m5.5 1a1.5 1.5 0 0 0 -1.5 1.5 1.5 1.5 0 0 0 .1484 .6445l-1.0039 1.0039a1.5 1.5 0 0 0 -.6445 -.1484 1.5 1.5 0 0 0 -1.5 1.5 1.5 1.5 0 0 0 1.5 1.5 1.5 1.5 0 0 0 .4473 -.0703l1.3047 1.7402a1.5 1.5 0 0 0 -.2520 .8301 1.5 1.5 0 0 0 1.5 1.5 1.5 1.5 0 0 0 1.4824 -1.2871l2.2324-.4453a1.5 1.5 0 0 0 1.2852 .7324 1.5 1.5 0 0 0 .447 -.0703l1.305 1.7403a1.5 1.5 0 0 0 -.234 .617l-2.2309.445a1.5 1.5 0 0 0 -1.2871 -.732 1.5 1.5 0 0 0 -1.5 1.5 1.5 1.5 0 0 0 1.5 1.5 1.5 1.5 0 0 0 1.4824 -1.287l2.2306-.445a1.5 1.5 0 0 0 1.287 .732 1.5 1.5 0 0 0 1.5 -1.5 1.5 1.5 0 0 0 -1.5 -1.5 1.5 1.5 0 0 0 -.447 .070l-1.305-1.7399a1.5 1.5 0 0 0 .252 -.8301 1.5 1.5 0 0 0 -1 -1.4121v-2.1758a1.5 1.5 0 0 0 1 -1.4121 1.5 1.5 0 0 0 -1.5 -1.5 1.5 1.5 0 0 0 -1.2871 .7324l-2.2285-.4453a1.5 1.5 0 0 0 -1.4844 -1.2871zm1.2871 2.2676l2.2285.4453a1.5 1.5 0 0 0 .9844 1.1992v2.1758a1.5 1.5 0 0 0 -.9824 1.1992l-2.2324.4453a1.5 1.5 0 0 0 -1.2852 -.7324 1.5 1.5 0 0 0 -.4473 .0703l-1.3047-1.7402a1.5 1.5 0 0 0 .2520 -.8301 1.5 1.5 0 0 0 -.1484 -.6445l1.0039-1.0039a1.5 1.5 0 0 0 .6445 .1484 1.5 1.5 0 0 0 1.2871 -.7324z" fill="url(#gr0)"/>
 <path id="path15" d="m5.5 1a1.5 1.5 0 0 0-1.5 1.5 1.5 1.5 0 0 0 0.14844 0.64453l-1.0039 1.0039a1.5 1.5 0 0 0-0.64453-0.14844 1.5 1.5 0 0 0-1.5 1.5 1.5 1.5 0 0 0 1.5 1.5 1.5 1.5 0 0 0 0.44727-0.07031l1.3047 1.7402a1.5 1.5 0 0 0-0.25195 0.83008 1.5 1.5 0 0 0 1.5 1.5 1.5 1.5 0 0 0 1.4824-1.2871l2.2324-0.44531a1.5 1.5 0 0 0 1.2852 0.73242 1.5 1.5 0 0 0 0.4473-0.07031l1.3047 1.7402a1.5 1.5 0 0 0-0.2344 0.6172l-2.2305 0.4453a1.5 1.5 0 0 0-1.2871-0.7324 1.5 1.5 0 0 0-1.5 1.5 1.5 1.5 0 0 0 1.5 1.5 1.5 1.5 0 0 0 1.4824-1.2871l2.2305-0.4453a1.5 1.5 0 0 0 1.2871 0.7324 1.5 1.5 0 0 0 1.5-1.5 1.5 1.5 0 0 0-1.5-1.5 1.5 1.5 0 0 0-0.4473 0.0703l-1.3047-1.7402a1.5 1.5 0 0 0 0.252-0.83008 1.5 1.5 0 0 0-1-1.4121v-2.1758a1.5 1.5 0 0 0 1-1.4121 1.5 1.5 0 0 0-1.5-1.5 1.5 1.5 0 0 0-1.2871 0.73242l-2.2285-0.44531a1.5 1.5 0 0 0-1.4844-1.2871zm0 0.5c0.47604 1.3e-4 0.92267 0.38621 0.99023 0.85742a0.50005 0.50005 0 0 0 0.39454 0.41992 0.50005 0.50005 0 0 0-0.52735 0.23438c-0.1758 0.29515-0.51196 0.4872-0.85547 0.48828-0.14818-6e-4 -0.29616-0.03534-0.42968-0.09961a0.50005 0.50005 0 0 0-0.5586 0.08594 0.50005 0.50005 0 0 0 0.08594-0.5586c-0.06427-0.13352-0.09901-0.2815-0.09961-0.42968 0.00112-0.52287 0.47702-0.99805 1-0.99805zm5 1c0.5236 0 1 0.4764 1 1-6e-4 0.40985-0.2796 0.80479-0.666 0.94141a0.50005 0.50005 0 0 0-0.334 0.45507 0.50005 0.50005 0 0 0-0.334-0.45507c-0.34159-0.12082-0.6043-0.44217-0.65623-0.80079a0.50005 0.50005 0 0 0-0.39454-0.41796 0.50005 0.50005 0 0 0 0.52735-0.23438c0.17612-0.29569 0.51322-0.48791 0.85742-0.48828zm-3.7129 0.76758 2.2285 0.44531a1.5 1.5 0 0 0 0.98438 1.1992v2.1758a1.5 1.5 0 0 0-0.98242 1.1992l-2.2324 0.44531a1.5 1.5 0 0 0-1.2852-0.73242 1.5 1.5 0 0 0-0.44727 0.07031l-1.3047-1.7402a1.5 1.5 0 0 0 0.25195-0.83008 1.5 1.5 0 0 0-0.14844-0.64453l1.0039-1.0039a1.5 1.5 0 0 0 0.64453 0.14844 1.5 1.5 0 0 0 1.2871-0.73242zm-4.2891 1.2324h0.00195c0.14754 8.8e-4 0.29479 0.03562 0.42773 0.09961a0.50005 0.50005 0 0 0 0.5586-0.08594 0.50005 0.50005 0 0 0-0.08594 0.5586c0.06399 0.13294 0.09873 0.28019 0.09961 0.42773v0.00195c-6.5e-4 0.19494-0.05982 0.38859-0.16797 0.55078a0.50005 0.50005 0 0 0 0.00586 0.5625 0.50005 0.50005 0 0 0-0.54101-0.16211c-0.09567 0.03037-0.19652 0.04624-0.29688 0.04688-0.5236 0-1-0.4764-1-1 0-0.52298 0.47518-0.99888 0.99805-1zm8.002 2.6035a0.50005 0.50005 0 0 0 0.334 0.45507c0.3864 0.13662 0.6654 0.53156 0.666 0.94141-3e-4 0.19557-0.0595 0.39002-0.168 0.55273a0.50005 0.50005 0 0 0 0.0039 0.56055 0.50005 0.50005 0 0 0-0.541-0.16016c-0.095 0.03017-0.1933 0.04603-0.2929 0.04688-0.3438-8.1e-4 -0.68156-0.19295-0.85747-0.48828a0.50005 0.50005 0 0 0-0.51562-0.23633 0.50005 0.50005 0 0 0 0.38281-0.41601c0.0517-0.35832 0.31509-0.67957 0.65628-0.80079a0.50005 0.50005 0 0 0 0.332-0.45507zm-5.8379 1.2812a0.50005 0.50005 0 0 0 0.54101 0.16211c0.09505-0.03019 0.19521-0.04605 0.29493-0.04688h0.0039c0.34243 0.00221 0.67826 0.19404 0.85352 0.48828a0.50005 0.50005 0 0 0 0.52734 0.23438 0.50005 0.50005 0 0 0-0.39453 0.41992c-0.0675 0.47082-0.51269 0.85662-0.98828 0.85742-0.5236 0-1-0.4764-1-1 2.7e-4 -0.19557 0.05947-0.39002 0.16797-0.55273a0.50005 0.50005 0 0 0-0.00586-0.5625zm8 2.998a0.50005 0.50005 0 0 0 0.541 0.1641c0.0956-0.0303 0.1966-0.0463 0.2969-0.0469h2e-3c0.5228 0.0011 0.998 0.477 0.998 1 0 0.5236-0.4764 1-1 1-0.3441-3e-4 -0.6812-0.1927-0.8574-0.4883a0.50005 0.50005 0 0 0-0.5098-0.2383 0.50005 0.50005 0 0 0 0.3809-0.416c0.0207-0.1464 0.0747-0.2888 0.1562-0.4121a0.50005 0.50005 0 0 0-0.0078-0.5625zm-4.1621 1.1172c0.34412 3e-4 0.68123 0.1927 0.85742 0.4883a0.50005 0.50005 0 0 0 0.52735 0.2344 0.50005 0.50005 0 0 0-0.39649 0.4199c-0.06753 0.4707-0.51271 0.8566-0.98828 0.8574-0.5236 0-1-0.4764-1-1s0.4764-1 1-1z" opacity=".3"/>
 <path id="path20" d="m4.0879 2.9961a1.5 1.5 0 0 0-0.07031 0.2793l0.13086-0.13086a1.5 1.5 0 0 1-0.06055-0.14844zm2.6992 0.27149a1.5 1.5 0 0 1-1.2871 0.73242 1.5 1.5 0 0 1-0.64453-0.14844l-1.0039 1.0039a1.5 1.5 0 0 1 0.14844 0.64453 1.5 1.5 0 0 1-0.01953 0.22656l0.875-0.875a1.5 1.5 0 0 0 0.64453 0.14844 1.5 1.5 0 0 0 1.2871-0.73242l2.2285 0.44531a1.5 1.5 0 0 0 0.98438 1.1992v-1a1.5 1.5 0 0 1-0.98438-1.1992l-2.2285-0.44531zm5.125 0.73242a1.5 1.5 0 0 1-0.9121 0.91211v1a1.5 1.5 0 0 0 1-1.4121 1.5 1.5 0 0 0-0.0879-0.5zm-10.824 2a1.5 1.5 0 0 0-0.08789 0.5 1.5 1.5 0 0 0 1.5 1.5 1.5 1.5 0 0 0 0.44727-0.07031l1.0625 1.416a1.5 1.5 0 0 1 0.24218-0.67578l-1.3047-1.7402a1.5 1.5 0 0 1-0.44727 0.07031 1.5 1.5 0 0 1-1.4121-1zm2.8223 0.00195a1.5 1.5 0 0 1-0.16211 0.32813l0.24218 0.32422a1.5 1.5 0 0 0 0.00977-0.1543 1.5 1.5 0 0 0-0.08984-0.49805zm8.0019 2.998a1.5 1.5 0 0 1-0.1641 0.33008l0.2422 0.32422a1.5 1.5 0 0 0 0.0098-0.1543 1.5 1.5 0 0 0-0.0879-0.5zm-2.6973 0.26758-2.2324 0.44531a1.5 1.5 0 0 1-1.4824 1.2871 1.5 1.5 0 0 1-1.4121-0.998 1.5 1.5 0 0 0-0.08789 0.498 1.5 1.5 0 0 0 1.5 1.5 1.5 1.5 0 0 0 1.4824-1.2871l2.2324-0.4453a1.5 1.5 0 0 0 1.2852 0.7324 1.5 1.5 0 0 0 0.4473-0.0703l1.0254 1.3672 0.0449-0.0098a1.5 1.5 0 0 1 0.2344-0.6172l-1.3047-1.7402a1.5 1.5 0 0 1-0.4473 0.07031 1.5 1.5 0 0 1-1.2852-0.73242zm5.6973 3.7324a1.5 1.5 0 0 1-1.4121 1 1.5 1.5 0 0 1-1.2871-0.7324l-2.2305 0.4453a1.5 1.5 0 0 1-1.4824 1.2871 1.5 1.5 0 0 1-1.4121-1 1.5 1.5 0 0 0-0.08789 0.5 1.5 1.5 0 0 0 1.5 1.5 1.5 1.5 0 0 0 1.4824-1.2871l2.2305-0.4453a1.5 1.5 0 0 0 1.2871 0.7324 1.5 1.5 0 0 0 1.5-1.5 1.5 1.5 0 0 0-0.0879-0.5z" fill="#fff" opacity=".2"/>
 <path id="path25" d="m5.5 1a1.5 1.5 0 0 0-1.5 1.5 1.5 1.5 0 0 0 0.08789 0.49609 1.5 1.5 0 0 1 1.4121-0.99609 1.5 1.5 0 0 1 1.4844 1.2871l2.2285 0.44531a1.5 1.5 0 0 1 1.2871-0.73242 1.5 1.5 0 0 1 1.4121 1 1.5 1.5 0 0 0 0.0879-0.5 1.5 1.5 0 0 0-1.5-1.5 1.5 1.5 0 0 0-1.2871 0.73242l-2.2285-0.44531a1.5 1.5 0 0 0-1.4844-1.2871zm-1.4824 2.2754-0.87305 0.87305a1.5 1.5 0 0 0-0.64453-0.14844 1.5 1.5 0 0 0-1.5 1.5 1.5 1.5 0 0 0 0.08789 0.5 1.5 1.5 0 0 1 1.4121-1 1.5 1.5 0 0 1 0.64453 0.14844l1.0039-1.0039a1.5 1.5 0 0 1-0.14844-0.64453 1.5 1.5 0 0 1 0.01758-0.22461zm-0.03711 2.4512-0.12891 0.12891a1.5 1.5 0 0 1 0.0586 0.14648 1.5 1.5 0 0 0 0.07031-0.27539zm0.00976 0.92774a1.5 1.5 0 0 1-0.24218 0.67578l1.3047 1.7402a1.5 1.5 0 0 1 0.44727-0.07031 1.5 1.5 0 0 1 1.2852 0.73242l2.2324-0.44531a1.5 1.5 0 0 1 0.98242-1.1992v-1a1.5 1.5 0 0 0-0.98242 1.1992l-2.2324 0.44531a1.5 1.5 0 0 0-1.2852-0.73242 1.5 1.5 0 0 0-0.44727 0.07031l-1.0625-1.416zm7.0098 0.43359v1a1.5 1.5 0 0 1 0.9121 0.91211 1.5 1.5 0 0 0 0.0879-0.5 1.5 1.5 0 0 0-1-1.4121zm-6.9902 2.2578a1.5 1.5 0 0 0-0.00977 0.1543 1.5 1.5 0 0 0 0.08789 0.502 1.5 1.5 0 0 1 0.16406-0.33208l-0.24218-0.32422zm7.9804 0.3086a1.5 1.5 0 0 1-0.2422 0.6758l1.3047 1.7402a1.5 1.5 0 0 1 0.4473-0.0703 1.5 1.5 0 0 1 1.4121 1 1.5 1.5 0 0 0 0.0879-0.5 1.5 1.5 0 0 0-1.5-1.5 1.5 1.5 0 0 0-0.4473 0.0703l-1.0625-1.416zm-3.4902 2.3457a1.5 1.5 0 0 0-1.5 1.5 1.5 1.5 0 0 0 0.08789 0.5 1.5 1.5 0 0 1 1.4121-1 1.5 1.5 0 0 1 1.2871 0.7324l2.2305-0.4453a1.5 1.5 0 0 1 0.2344-0.6172l-0.2793-0.373-2.1856 0.4355a1.5 1.5 0 0 0-1.2871-0.7324z" opacity=".3"/>
</svg>
