<?xml version="1.0" encoding="UTF-8"?>
<svg id="svg30" width="16" height="16" version="1.1" xmlns="http://www.w3.org/2000/svg" xmlns:cc="http://creativecommons.org/ns#" xmlns:dc="http://purl.org/dc/elements/1.1/" xmlns:rdf="http://www.w3.org/1999/02/22-rdf-syntax-ns#">
 <metadata id="metadata34">
  <rdf:RDF>
   <cc:Work rdf:about="">
    <dc:format>image/svg+xml</dc:format>
    <dc:type rdf:resource="http://purl.org/dc/dcmitype/StillImage"/>
   </cc:Work>
  </rdf:RDF>
 </metadata>
 <defs id="defs7">
  <radialGradient id="gr0" cx="9" cy="10" r="11" gradientTransform="matrix(1 0 0 .72727 0 2.7273)" gradientUnits="userSpaceOnUse">
   <stop id="stop2" stop-opacity=".23529" offset="0"/>
   <stop id="stop4" stop-opacity=".54902" offset="1"/>
  </radialGradient>
 </defs>
 <path id="path9" d="m3.498 0c-0.17566 1.258e-4 -0.34048 0.016336-0.50977 0.050781-0.5261 0.10718-1.0133 0.38834-1.3633 0.78906 0.07114-0.08159 0.03558-0.066817-0.09766 0.10156a1 1.0001 0 0 0-0.00781 0.011719c-0.20367 0.26474-0.27625 0.49188-0.32617 0.61914-0.03623 0.09217-0.04924 0.14564-0.05078 0.15039-0.0547 0.16846-0.14258 0.42533-0.14258 0.77734v0.5 10 0.5c0 0.3522 0.08813 0.6094 0.14258 0.7773 0.00173 0.0054 0.01387 0.0588 0.05273 0.1563 0.04976 0.1275 0.12202 0.3505 0.32422 0.6133a1.0001 1.0001 0 0 0 0.00781 0.0097c0.12898 0.1635 0.15219 0.1708 0.0918 0.0996h0.00195c0.34976 0.4024 0.83785 0.6853 1.3652 0.793 0.17253 0.0353 0.33919 0.0508 0.51367 0.0508h0.5 8 0.5c0.4753 0 0.9218-0.1347 1.2988-0.3633a1.0001 1.0001 0 0 0 2e-3 -0.0019c-0.1469 0.0894-0.0999 0.0791 0.1015-0.0567 0.1876-0.1265 0.3419-0.2692 0.4707-0.414a1.0001 1.0001 0 0 0 0.0079-0.0098c-0.0944 0.1087-0.039 0.0673 0.0937-0.1016 0.2119-0.2703 0.2857-0.5097 0.3301-0.6211a1.0001 1.0001 0 0 0 0.0019-0.0039c0.0309-0.0785 0.0442-0.1266 0.0508-0.1484l2e-3 -0.0078c0.0556-0.1701 0.1406-0.4239 0.1406-0.7715v-0.5-2a1.0001 1.0001 0 0 0-0.6504-0.9355l1.3574-1.3575a1.0001 1.0001 0 0 0 0-1.4141l-1.3574-1.3574a1.0001 1.0001 0 0 0 0.6504-0.93555v-2-0.5c0-0.34323-0.0826-0.59279-0.1387-0.76367l-0.0019-0.00586c-0.0094-0.03063-0.0226-0.08161-0.0489-0.15039a1.0001 1.0001 0 0 0-0.0058-0.01367c-0.0443-0.11066-0.1162-0.34864-0.3301-0.6211-0.1418-0.18032-0.1941-0.21806-0.0918-0.099609a1.0001 1.0001 0 0 0-0.0098-0.009765c-0.1753-0.19751-0.3759-0.35387-0.5761-0.47461-0.1206-0.07311-0.225-0.11981-0.3047-0.1543a1.0001 1.0001 0 0 0-0.0098-0.003906c-0.2883-0.12125-0.6164-0.20313-0.9824-0.20312h-0.5-8-0.5-0.00195zm0.00195 1h0.49805 8 0.5c0.208 0 0.4158 0.0493 0.5958 0.125 0.064 0.0277 0.1265 0.05755 0.1855 0.09375 0.129 0.0778 0.2447 0.16975 0.3437 0.28125 0.019 0.022 0.0465 0.0393 0.0645 0.0625 0.088 0.1121 0.1315 0.24 0.1855 0.375 0.012 0.0315 0.0213 0.06125 0.0313 0.09375 0.048 0.1466 0.0937 0.30605 0.0937 0.46875v0.5 2l-2-2h-7.5c-0.277 0-0.5 0.223-0.5 0.5v9c0 0.277 0.223 0.5 0.5 0.5h7.5l2-2v2 0.5c0 0.163-0.0457 0.3217-0.0937 0.4688-0.01 0.033-0.0193 0.0617-0.0313 0.0937-0.0538 0.1349-0.0995 0.2628-0.1875 0.375-0.017 0.023-0.0415 0.0405-0.0605 0.0625-0.0832 0.0935-0.177 0.18-0.2812 0.25-0.0191 0.013-0.0426 0.0192-0.0626 0.0312-0.2266 0.1379-0.4955 0.2188-0.7812 0.2188h-0.5-8-0.5c-0.1039 0-0.2147-0.0113-0.3125-0.0312-0.32694-0.0665-0.60345-0.228-0.8125-0.4688-0.0195-0.021-0.0443-0.0395-0.0625-0.0625-0.08472-0.1101-0.1358-0.2432-0.1875-0.375-0.012-0.03-0.02115-0.0627-0.03125-0.0937-0.0474-0.1464-0.09375-0.3061-0.09375-0.4688v-0.5-10-0.5c0-0.1627 0.04615-0.32215 0.09375-0.46875 0.0101-0.0311 0.01925-0.06355 0.03125-0.09375 0.0517-0.1318 0.1028-0.2649 0.1875-0.375 0.0182-0.023 0.043-0.0406 0.0625-0.0625 0.209-0.2408 0.4856-0.40215 0.8125-0.46875 0.0978-0.0199 0.2086-0.03125 0.3125-0.03125zm1.5 3h5v2h-3a1.0001 1.0001 0 0 0-1 1v2a1.0001 1.0001 0 0 0 1 1h3v2h-5v-8zm6 0 4 4-4 4v-3h-4v-2h4v-3z" fill="#fff" opacity=".05"/>
 <path id="base" d="m3.5 1c-0.1039 0-0.2147 0.0113-0.3125 0.0312-0.3269 0.0666-0.6035 0.228-0.8125 0.4688-0.0195 0.0219-0.0443 0.0395-0.0625 0.0625-0.0847 0.1101-0.1358 0.2432-0.1875 0.375-0.012 0.0302-0.0211 0.0626-0.0312 0.0937-0.0476 0.1466-0.0938 0.3061-0.0938 0.4688v11c0 0.16274 0.04625 0.32225 0.09375 0.46875 0.01011 0.03117 0.0192 0.06352 0.03125 0.09375 0.05173 0.13179 0.10278 0.26492 0.1875 0.375 0.01819 0.02305 0.04301 0.04058 0.0625 0.0625 0.20905 0.24079 0.48556 0.40219 0.8125 0.46875 0.0978 0.02 0.2086 0.031 0.3125 0.031h9c0.28566 0 0.55447-0.08124 0.78125-0.21875 0.01999-0.01218 0.04316-0.01816 0.0625-0.03125 0.10418-0.07026 0.19804-0.15642 0.28125-0.25 0.01913-0.02204 0.04468-0.03934 0.0625-0.0625 0.0885-0.11214 0.1337-0.24004 0.1875-0.375 0.01237-0.03152 0.02097-0.0612 0.03125-0.09375 0.048-0.147 0.094-0.306 0.094-0.469v-2.5l-2 2h-7.5c-0.277 0-0.5-0.223-0.5-0.5v-9c0-0.277 0.223-0.5 0.5-0.5h7.5l2 2v-2.5c0-0.1627-0.046-0.3222-0.094-0.4688-0.01-0.0325-0.019-0.0622-0.031-0.0937-0.054-0.135-0.099-0.2629-0.187-0.375-0.018-0.0232-0.044-0.0405-0.063-0.0625-0.099-0.1115-0.215-0.2034-0.344-0.2812-0.059-0.0362-0.123-0.0661-0.187-0.0938-0.18-0.0757-0.386-0.125-0.594-0.125h-8.5zm7.5 3v3h-4v2h4v3l4-4z" fill="url(#gr0)"/>
 <path id="path15" d="m3.5 1c-0.1039 0-0.2147 0.01135-0.3125 0.03125-0.3269 0.0666-0.6035 0.22795-0.8125 0.46875-0.0195 0.0219-0.0443 0.0395-0.0625 0.0625-0.0847 0.1101-0.1358 0.2432-0.1875 0.375-0.012 0.0302-0.02115 0.06265-0.03125 0.09375-0.0476 0.1466-0.09375 0.30605-0.09375 0.46875v0.5 10 0.5c0 0.1627 0.04635 0.3224 0.09375 0.4688 0.0101 0.031 0.01925 0.0637 0.03125 0.0937 0.0517 0.1318 0.10278 0.2649 0.1875 0.375 0.0182 0.023 0.043 0.0415 0.0625 0.0625 0.20905 0.2408 0.48556 0.4023 0.8125 0.4688 0.0978 0.0199 0.2086 0.0312 0.3125 0.0312h0.5 8 0.5c0.2857 0 0.5546-0.0809 0.7812-0.2188 0.02-0.012 0.0435-0.0182 0.0626-0.0312 0.1042-0.07 0.198-0.1565 0.2812-0.25 0.019-0.022 0.0435-0.0395 0.0605-0.0625 0.088-0.1122 0.1337-0.2401 0.1875-0.375 0.012-0.032 0.0213-0.0607 0.0313-0.0937 0.048-0.1471 0.0937-0.3058 0.0937-0.4688v-0.5-2l-2 2h-7.5c-0.277 0-0.5-0.223-0.5-0.5v-9c0-0.277 0.223-0.5 0.5-0.5h7.5l2 2v-2-0.5c0-0.1627-0.0457-0.32215-0.0937-0.46875-0.01-0.0325-0.0193-0.06225-0.0313-0.09375-0.054-0.135-0.0975-0.2629-0.1855-0.375-0.018-0.0232-0.0455-0.0405-0.0645-0.0625-0.099-0.1115-0.2147-0.20345-0.3437-0.28125-0.059-0.0362-0.1215-0.06605-0.1855-0.09375-0.18-0.0757-0.3878-0.125-0.5958-0.125h-0.5-8-0.49805zm0 0.5h0.5 8 0.5c0.1277 0 0.2715 0.03201 0.3965 0.08398l0.0039 0.00196c0.0526 0.02293 0.0937 0.04301 0.1191 0.05859a0.50005 0.50005 0 0 0 0.0039 0.00195c0.0934 0.05633 0.1677 0.11706 0.2286 0.18555 0.0561 0.06396 0.0855 0.09445 0.041 0.03711a0.50005 0.50005 0 0 1 0.0019 0.00195c0.0251 0.03193 0.0564 0.10478 0.1153 0.25196 0.0041 0.01152 0.0084 0.02509 0.0175 0.05468a0.50005 0.50005 0 0 0 0.0039 0.00782c0.0441 0.13445 0.0684 0.24599 0.0684 0.31445v0.5 0.79297l-1.1465-1.1465a0.50005 0.50005 0 0 0-0.3535-0.14648h-7.5c-0.54535 0-1 0.45465-1 1v9c0 0.5454 0.45465 1 1 1h7.5a0.50005 0.50005 0 0 0 0.3535-0.1465l1.1465-1.1465v0.793 0.5c0 0.0689-0.0241 0.177-0.0684 0.3125a0.50005 0.50005 0 0 0-0.0019 0.0059c-0.0121 0.0382-0.0173 0.0525-0.0195 0.0586-0.0584 0.1464-0.09 0.218-0.1153 0.25a0.50005 0.50005 0 0 0-0.0039 0.0058c0.0449-0.0584 0.0212-0.0336-0.039 0.0352-0.0605 0.0679-0.125 0.1258-0.1875 0.1679 0.0756-0.0512 0.0615-0.0461-0.043 0.0176-0.1517 0.092-0.3306 0.1465-0.5215 0.1465h-0.5-8-0.5c-0.06861 0-0.15246-0.0091-0.21289-0.0215-0.22611-0.046-0.39668-0.1471-0.53516-0.3066a0.50005 0.50005 0 0 0-0.0039-0.0039c-0.06827-0.0768-0.07645-0.0844-0.04102-0.0391l-0.00195-0.0019c-0.02522-0.0344-0.06385-0.1172-0.11524-0.2481a0.50005 0.50005 0 0 1 0-0.0019c0.00136 0.0034-0.00523-0.0185-0.01953-0.0625-0.04403-0.1358-0.07031-0.2465-0.07031-0.3145v-0.5-10-0.5c0-0.06805 0.02626-0.17879 0.07031-0.31445 0.01436-0.04422 0.02082-0.06574 0.01953-0.0625a0.50005 0.50005 0 0 0 0-0.00391c0.05128-0.13071 0.08991-0.21155 0.11524-0.24609l0.00195-0.00196c-0.03496 0.04464-0.02672 0.03701 0.04102-0.03906a0.50005 0.50005 0 0 0 0.0039-0.00391c0.13836-0.15939 0.30904-0.26057 0.53516-0.30664 0.06173-0.01256 0.14524-0.02148 0.21289-0.02148zm7.5 2.5v3h-4v2h4v3l4-4-4-4zm0.5 1.207 2.793 2.793-2.793 2.793v-1.793a0.50005 0.50005 0 0 0-0.5-0.5h-3.5v-1h3.5a0.50005 0.50005 0 0 0 0.5-0.5v-1.793z" opacity=".3"/>
 <path id="path20" d="m4.498 3c-0.277 0-0.5 0.223-0.5 0.5v1c0-0.277 0.223-0.5 0.5-0.5h6.502 0.998l2 2v-1l-2-2h-7.5zm10.002 5.5-3.5 3.5v1l4-4-0.5-0.5zm-7.5 0.5v1h4v-1h-4zm-5 4.5v0.5 0.5c0 0.1627 0.04635 0.3224 0.09375 0.4688 0.0101 0.031 0.01925 0.0637 0.03125 0.0937 0.0517 0.1318 0.10278 0.2649 0.1875 0.375 0.0182 0.023 0.043 0.0415 0.0625 0.0625 0.20905 0.2408 0.48556 0.4023 0.8125 0.4688 0.0978 0.0199 0.2086 0.0312 0.3125 0.0312h0.5 8 0.5c0.2857 0 0.5546-0.0809 0.7812-0.2188 0.02-0.012 0.0435-0.0182 0.0626-0.0312 0.1042-0.07 0.198-0.1565 0.2812-0.25 0.019-0.022 0.0435-0.0395 0.0605-0.0625 0.088-0.1122 0.1337-0.2401 0.1875-0.375 0.012-0.032 0.0213-0.0607 0.0313-0.0937 0.048-0.1471 0.0937-0.3058 0.0937-0.4688v-0.5-0.5c0 0.163-0.0457 0.3217-0.0937 0.4688-0.01 0.033-0.0193 0.0617-0.0313 0.0937-0.0538 0.1349-0.0995 0.2628-0.1875 0.375-0.017 0.023-0.0415 0.0405-0.0605 0.0625-0.0832 0.0935-0.177 0.18-0.2812 0.25-0.0191 0.013-0.0426 0.0192-0.0626 0.0312-0.2266 0.1379-0.4955 0.2188-0.7812 0.2188h-0.5-8-0.5c-0.1039 0-0.2147-0.0113-0.3125-0.0312-0.32694-0.0665-0.60345-0.228-0.8125-0.4688-0.0195-0.021-0.0443-0.0395-0.0625-0.0625-0.08472-0.1101-0.1358-0.2432-0.1875-0.375-0.012-0.03-0.02115-0.0627-0.03125-0.0937-0.0474-0.1464-0.09375-0.3061-0.09375-0.4688z" fill="#fff" opacity=".2"/>
 <path id="path25" d="m3.5 1c-0.1039 0-0.2147 0.01135-0.3125 0.03125-0.3269 0.0666-0.6035 0.22795-0.8125 0.46875-0.0195 0.0219-0.0443 0.0395-0.0625 0.0625-0.0847 0.1101-0.1358 0.2432-0.1875 0.375-0.012 0.0302-0.02115 0.06265-0.03125 0.09375-0.0476 0.1466-0.09375 0.30605-0.09375 0.46875v0.5 0.5c0-0.1627 0.04615-0.32215 0.09375-0.46875 0.0101-0.0311 0.01925-0.06355 0.03125-0.09375 0.0517-0.1318 0.1028-0.2649 0.1875-0.375 0.0182-0.023 0.043-0.0406 0.0625-0.0625 0.209-0.2408 0.4856-0.40215 0.8125-0.46875 0.0978-0.0199 0.2086-0.03125 0.3125-0.03125h0.49805 8 0.5c0.208 0 0.4158 0.0493 0.5958 0.125 0.064 0.0277 0.1265 0.05755 0.1855 0.09375 0.129 0.0778 0.2447 0.16975 0.3437 0.28125 0.019 0.022 0.0465 0.0393 0.0645 0.0625 0.088 0.1121 0.1315 0.24 0.1855 0.375 0.012 0.0315 0.0213 0.06125 0.0313 0.09375 0.048 0.1466 0.0937 0.30605 0.0937 0.46875v-0.5-0.5c0-0.1627-0.0457-0.32215-0.0937-0.46875-0.01-0.0325-0.0193-0.06225-0.0313-0.09375-0.054-0.135-0.0975-0.2629-0.1855-0.375-0.018-0.0232-0.0455-0.0405-0.0645-0.0625-0.099-0.1115-0.2147-0.20345-0.3437-0.28125-0.059-0.0362-0.1215-0.06605-0.1855-0.09375-0.18-0.0757-0.3878-0.125-0.5958-0.125h-0.5-8-0.49805zm7.5 3v1l3.5 3.5 0.5-0.5-4-4zm-4 3v1h4v-1h-4zm6.998 4-2 2h-0.998-6.502c-0.277 0-0.5-0.223-0.5-0.5v1c0 0.277 0.223 0.5 0.5 0.5h7.5l2-2v-1z" opacity=".3"/>
</svg>
