<?xml version="1.0" encoding="UTF-8"?>
<svg id="svg32" width="16" height="16" version="1.1" xmlns="http://www.w3.org/2000/svg" xmlns:cc="http://creativecommons.org/ns#" xmlns:dc="http://purl.org/dc/elements/1.1/" xmlns:rdf="http://www.w3.org/1999/02/22-rdf-syntax-ns#">
 <metadata id="metadata36">
  <rdf:RDF>
   <cc:Work rdf:about="">
    <dc:format>image/svg+xml</dc:format>
    <dc:type rdf:resource="http://purl.org/dc/dcmitype/StillImage"/>
   </cc:Work>
  </rdf:RDF>
 </metadata>
 <defs id="defs7">
  <radialGradient id="gr0" cx="9" cy="10" r="11" gradientTransform="matrix(1 0 0 .63636 0 3.6364)" gradientUnits="userSpaceOnUse">
   <stop id="stop2" stop-opacity=".23529" offset="0"/>
   <stop id="stop4" stop-opacity=".54902" offset="1"/>
  </radialGradient>
 </defs>
 <path id="path9" d="m1 1a1 1.0001 0 0 0-1 1v1 9 1a1.0001 1.0001 0 0 0 1 1h1 3a1.0001 1.0001 0 0 0 0.19922-0.0195h0.00195c0.25216 1.1115 1.1175 2.0195 2.2988 2.0195h6c1.3677 0 2.5-1.1323 2.5-2.5v-6c0-0.85179-0.5082-1.4908-1.1699-1.9434a1.0001 1.0001 0 0 0 0.1699-0.55664v-3a1.0001 1.0001 0 0 0-1-1h-13zm0 1h13v3h-0.5-0.5v-2h-11v9h3v1h-3-1v-1-9-1zm2 2h9v1h-4.5c-1.3677 0-2.5 1.1323-2.5 2.5v3.5h-2v-7zm4.5 2h6c0.831 0 1.5 0.669 1.5 1.5v6c0 0.831-0.669 1.5-1.5 1.5h-6c-0.831 0-1.5-0.669-1.5-1.5v-6c0-0.831 0.669-1.5 1.5-1.5zm1.5 1.5-1.5 1.5 1.5 1.5-1.5 1.5 1.5 1.5 1.5-1.5 1.5 1.5 1.5-1.5-1.5-1.5 1.5-1.5-1.5-1.5-1.5 1.5-1.5-1.5zm0 1.4141 0.79297 0.79297a1.0001 1.0001 0 0 0 1.414 0l0.793-0.79297 0.0859 0.08594-0.7929 0.79297a1.0001 1.0001 0 0 0 0 1.414l0.7929 0.793-0.0859 0.0859-0.793-0.7929a1.0001 1.0001 0 0 0-1.414 0l-0.79297 0.7929-0.08594-0.0859 0.79297-0.793a1.0001 1.0001 0 0 0 0-1.414l-0.79297-0.79297 0.08594-0.08594z" fill="#fff" opacity=".05"/>
 <path id="base" d="m1 2v11h4v-1h-3v-9h11v2h1v-3h-13zm6.5 4c-0.831 0-1.5 0.669-1.5 1.5v6c0 0.831 0.669 1.5 1.5 1.5h6c0.831 0 1.5-0.669 1.5-1.5v-6c0-0.831-0.669-1.5-1.5-1.5h-6zm1.5 1.5 1.5 1.5 1.5-1.5 1.5 1.5-1.5 1.5 1.5 1.5-1.5 1.5-1.5-1.5-1.5 1.5-1.5-1.5 1.5-1.5-1.5-1.5 1.5-1.5z" fill="url(#gr0)"/>
 <path id="path15" d="m3 4v7h2v-3.5c0-1.3677 1.1323-2.5 2.5-2.5h4.5v-1h-9z" opacity=".2"/>
 <path id="path17" d="m1 2v1 9 1h1 3v-1h-3v-9h11v2h0.5 0.5v-3h-13zm0.5 0.5h0.5a0.50005 0.50005 0 0 0-0.5 0.5v-0.5zm11.5 0h0.5v0.5a0.50005 0.50005 0 0 0-0.5-0.5zm-5.5 3.5c-0.831 0-1.5 0.669-1.5 1.5v6c0 0.831 0.669 1.5 1.5 1.5h6c0.831 0 1.5-0.669 1.5-1.5v-6c0-0.831-0.669-1.5-1.5-1.5h-6zm0 0.5h6c0.5626 0 1 0.43735 1 1v6c0 0.5626-0.4374 1-1 1h-6c-0.56265 0-1-0.4374-1-1v-6c0-0.56265 0.43735-1 1-1zm1.5078 0.5a0.50005 0.50005 0 0 0-0.36133 0.14648l-1.5 1.5a0.50005 0.50005 0 0 0 0 0.70704l1.1465 1.1465-1.1465 1.1465a0.50005 0.50005 0 0 0 0 0.707l1.5 1.5a0.50005 0.50005 0 0 0 0.70704 0l1.1465-1.1465 1.1465 1.1465a0.50005 0.50005 0 0 0 0.707 0l1.5-1.5a0.50005 0.50005 0 0 0 0-0.707l-1.1465-1.1465 1.1465-1.1465a0.50005 0.50005 0 0 0 0-0.70704l-1.5-1.5a0.50005 0.50005 0 0 0-0.707 0l-1.1465 1.1465-1.1465-1.1465a0.50005 0.50005 0 0 0-0.34571-0.14648zm-0.00781 0.5 1.5 1.5 1.5-1.5 1.5 1.5-1.5 1.5 1.5 1.5-1.5 1.5-1.5-1.5-1.5 1.5-1.5-1.5 1.5-1.5-1.5-1.5 1.5-1.5zm-7.5 4.5a0.50005 0.50005 0 0 0 0.5 0.5h-0.5v-0.5z" opacity=".3"/>
 <path id="path22" d="m2 3v1h11v-1h-11zm11 2v1h0.5 0.5v-1h-0.5-0.5zm-4 2.5-1.5 1.5 0.5 0.5 1-1 1.5 1.5 1.5-1.5 1 1 0.5-0.5-1.5-1.5-1.5 1.5-1.5-1.5zm-0.5 3.5-1 1 0.5 0.5 1-1-0.5-0.5zm4 0-0.5 0.5 1 1 0.5-0.5-1-1zm-11.5 2v1h1 3v-1h-3-1zm5 0.5v1c0 0.831 0.669 1.5 1.5 1.5h6c0.831 0 1.5-0.669 1.5-1.5v-1c0 0.831-0.669 1.5-1.5 1.5h-6c-0.831 0-1.5-0.669-1.5-1.5z" fill="#fff" opacity=".2"/>
 <path id="path27" d="m1 2v1h1 11 1v-1h-13zm6.5 4c-0.831 0-1.5 0.669-1.5 1.5v1c0-0.831 0.669-1.5 1.5-1.5h6c0.831 0 1.5 0.669 1.5 1.5v-1c0-0.831-0.669-1.5-1.5-1.5h-0.5-5.5zm0.5 3.5-0.5 0.5 1 1 0.5-0.5-1-1zm5 0-1 1 0.5 0.5 1-1-0.5-0.5zm-11 2.5v1h3v-1h-3zm8.5 0-1.5 1.5-1-1-0.5 0.5 1.5 1.5 1.5-1.5 1.5 1.5 1.5-1.5-0.5-0.5-1 1-1.5-1.5z" opacity=".3"/>
</svg>
