<?xml version="1.0" encoding="UTF-8"?>
<svg id="svg30" width="16" height="16" version="1.1" xmlns="http://www.w3.org/2000/svg" xmlns:cc="http://creativecommons.org/ns#" xmlns:dc="http://purl.org/dc/elements/1.1/" xmlns:rdf="http://www.w3.org/1999/02/22-rdf-syntax-ns#">
 <metadata id="metadata34">
  <rdf:RDF>
   <cc:Work rdf:about="">
    <dc:format>image/svg+xml</dc:format>
    <dc:type rdf:resource="http://purl.org/dc/dcmitype/StillImage"/>
   </cc:Work>
  </rdf:RDF>
 </metadata>
 <defs id="defs7">
  <radialGradient id="gr0" cx="9" cy="10" r="11" gradientTransform="matrix(1 0 0 .72727 0 2.7273)" gradientUnits="userSpaceOnUse">
   <stop id="stop2" stop-opacity=".23529" offset="0"/>
   <stop id="stop4" stop-opacity=".54902" offset="1"/>
  </radialGradient>
 </defs>
 <path id="path9" d="m8 0c-4.4064 0-8 3.5936-8 8 0 4.4064 3.5936 8 8 8 3.682 0 6.7891-2.5022 7.7129-5.9023a1 1.0001 0 0 0-0.2227-0.93168c0.2712-0.34241 0.5098-0.72745 0.5098-1.166 0-0.43919-0.2379-0.82531-0.5098-1.168a1.0001 1.0001 0 0 0 0.2227-0.92969c-0.5282-1.946-1.7664-3.5943-3.4258-4.6504a1.0001 1.0001 0 0 0-1.2871 0.1836c-0.2041-0.1347-0.4169-0.23273-0.6543-0.28516a1.0001 1.0001 0 0 0-0.80859-1c-0.49339-0.09619-1.0071-0.15039-1.5371-0.15039zm0 1c0.4609 0 0.9097 0.04781 1.3457 0.13281-0.7575 0.2914-1.3457 1.0463-1.3457 1.8672 0 1.0472 0.9528 2 2 2 1.047 0 2-0.9528 2-2 0-0.3196-0.097-0.6267-0.25-0.9043 1.452 0.9241 2.536 2.3662 2.998 4.0684-0.235-0.1042-0.488-0.16406-0.748-0.16406-1.047 0-2 0.9528-2 2s0.953 2 2 2c0.26 0 0.513-0.05986 0.748-0.16406-0.808 2.9741-3.518 5.1641-6.748 5.1641-3.866 0-7-3.134-7-7s3.134-7 7-7zm2 1a1 1 0 0 1 1 1 1 1 0 0 1-1 1 1 1 0 0 1-1-1 1 1 0 0 1 1-1zm4 5a1 1 0 0 1 1 1 1 1 0 0 1-1 1 1 1 0 0 1-1-1 1 1 0 0 1 1-1z" fill="#fff" opacity=".05"/>
 <path id="base" d="m8 1c-3.866 0-7 3.134-7 7s3.134 7 7 7c3.23 0 5.94-2.19 6.748-5.1641-0.235 0.1042-0.488 0.1641-0.748 0.1641-1.047 0-2-0.9528-2-2s0.953-2 2-2c0.26 0 0.513 0.0599 0.748 0.1641-0.462-1.7022-1.546-3.1443-2.998-4.0684 0.153 0.2776 0.25 0.5847 0.25 0.9043 0 1.0472-0.953 2-2 2-1.0472 0-2-0.9528-2-2 0-0.8209 0.5882-1.5758 1.3457-1.8672-0.436-0.085-0.8848-0.1328-1.3457-0.1328zm2 1a1 1 0 0 0-1 1 1 1 0 0 0 1 1 1 1 0 0 0 1-1 1 1 0 0 0-1-1zm4 5a1 1 0 0 0-1 1 1 1 0 0 0 1 1 1 1 0 0 0 1-1 1 1 0 0 0-1-1z" fill="url(#gr0)"/>
 <path id="path15" d="m8 1c-3.866 0-7 3.134-7 7s3.134 7 7 7c3.23 0 5.94-2.19 6.748-5.1641-0.235 0.1042-0.488 0.16406-0.748 0.16406-1.047 0-2-0.9528-2-2s0.953-2 2-2c0.26 0 0.513 0.05986 0.748 0.16406-0.462-1.7022-1.546-3.1443-2.998-4.0684 0.153 0.2776 0.25 0.5847 0.25 0.9043 0 1.0472-0.953 2-2 2-1.0472 0-2-0.9528-2-2 0-0.8209 0.5882-1.5758 1.3457-1.8672-0.436-0.085-0.8848-0.13281-1.3457-0.13281zm0 0.5c0.02197 0 0.04254 0.00563 0.06445 0.00586-0.338 0.42111-0.56445 0.92575-0.56445 1.4941 0 1.3505 1.1495 2.5 2.5 2.5 1.2138 0 2.2176-0.94268 2.418-2.1113 0.6331 0.60708 1.1261 1.3143 1.4726 2.1348-1.3 0.06287-2.3906 1.1645-2.3906 2.4766 0 1.3197 1.102 2.4316 2.4121 2.4824-0.9834 2.3362-3.2129 4.0176-5.9121 4.0176-3.5958 0-6.5-2.9042-6.5-6.5 0-3.5958 2.9042-6.5 6.5-6.5zm2 0.5a1 1 0 0 0-1 1 1 1 0 0 0 1 1 1 1 0 0 0 1-1 1 1 0 0 0-1-1zm0 0.5c0.2618 0 0.5 0.2382 0.5 0.5s-0.2382 0.5-0.5 0.5-0.5-0.2382-0.5-0.5 0.2382-0.5 0.5-0.5zm4 4.5a1 1 0 0 0-1 1 1 1 0 0 0 1 1 1 1 0 0 0 1-1 1 1 0 0 0-1-1zm0 0.5c0.2618 0 0.5 0.2382 0.5 0.5s-0.2382 0.5-0.5 0.5-0.5-0.2382-0.5-0.5 0.2382-0.5 0.5-0.5z" opacity=".3"/>
 <path id="path20" d="M 8.30859 2.01562 C 8.12402 2.31283 8 2.64663 8 3 C 8 3.16994 8.03356 3.33479 8.08008 3.49609 C 8.2607 2.88343 8.74735 2.36299 9.3457 2.13281 C 9.00839 2.06705 8.6609 2.03195 8.30859 2.01562 z M 11.75 3.0957 C 11.821 3.22447 11.8752 3.36023 11.918 3.5 C 11.9417 3.41829 11.9604 3.33636 11.9727 3.25195 C 11.8982 3.20038 11.8266 3.14443 11.75 3.0957 z M 9.13477 3.5 A 1 1 0 0 0 9 4 A 1 1 0 0 0 9.78906 4.97656 C 9.85931 4.98515 9.9286 5 10 5 C 10.0733 5 10.1447 4.98562 10.2168 4.97656 A 1 1 0 0 0 11 4 A 1 1 0 0 0 10.8652 3.5 A 1 1 0 0 1 10 4 A 1 1 0 0 1 9.13477 3.5 z M 14 6 C 12.953 6 12 6.9528 12 8 C 12 8.17119 12.0329 8.3376 12.0801 8.5 C 12.3013 7.73859 12.994 7.12253 13.7832 7.02344 A 1 1 0 0 1 14 7 A 1 1 0 0 1 14.2129 7.02344 C 14.3972 7.04661 14.5784 7.08883 14.748 7.16406 C 14.642 6.77329 14.5006 6.39734 14.332 6.03711 C 14.2228 6.01585 14.1127 6 14 6 z M 1.02539 8.5 C 1.01361 8.666 1 8.831 1 9 C 1 12.866 4.134 16 8 16 C 11.23 16 13.94 13.81 14.748 10.8359 C 14.6144 10.8952 14.4734 10.9352 14.3301 10.9629 C 13.2147 13.3458 10.8053 15 8 15 C 4.303 15 1.28302 12.1314 1.02539 8.5 z M 13.1348 8.5 A 1 1 0 0 0 13 9 A 1 1 0 0 0 13.7891 9.97656 C 13.8593 9.98515 13.9286 10 14 10 C 14.0737 10 14.1445 9.98387 14.2168 9.97461 A 1 1 0 0 0 15 9 A 1 1 0 0 0 14.8652 8.5 A 1 1 0 0 1 14 9 A 1 1 0 0 1 13.1348 8.5 z " fill="#fff" opacity=".2"/>
 <path id="path25" d="m8 1c-3.866 0-7 3.134-7 7 0 0.169 0.01361 0.334 0.02539 0.5 0.25763-3.6314 3.2776-6.5 6.9746-6.5 0.10432 0 0.20552 0.01085 0.30859 0.01562 0.24421-0.39321 0.60569-0.71685 1.0371-0.88281-0.436-0.085-0.8848-0.13281-1.3457-0.13281zm2 1a1 1 0 0 0-1 1 1 1 0 0 0 0.13477 0.5 1 1 0 0 1 0.86523-0.5 1 1 0 0 1 0.8652 0.5 1 1 0 0 0 0.1348-0.5 1 1 0 0 0-1-1zm1.75 0.0957c0.153 0.2776 0.25 0.5847 0.25 0.9043 0 0.08526-0.0152 0.16841-0.0273 0.25195 1.0137 0.70192 1.8324 1.659 2.3593 2.7852 0.1427 0.02776 0.283 0.06794 0.416 0.12695-0.462-1.7022-1.546-3.1443-2.998-4.0684zm-3.6699 1.4004c-0.04804 0.16296-0.08008 0.33144-0.08008 0.50391 0 1.0472 0.9528 2 2 2 1.047 0 2-0.9528 2-2 0-0.17135-0.0326-0.33846-0.082-0.5-0.2214 0.76114-0.9122 1.3775-1.7012 1.4766a1 1 0 0 1-0.2168 0.02344 1 1 0 0 1-0.21094-0.02344c-0.79288-0.09691-1.4884-0.71558-1.709-1.4805zm5.9199 3.5039c-0.0733 0-0.1447 0.01438-0.2168 0.02344a1 1 0 0 0-0.7832 0.97656 1 1 0 0 0 0.1348 0.5 1 1 0 0 1 0.8652-0.5 1 1 0 0 1 0.8652 0.5 1 1 0 0 0 0.1348-0.5 1 1 0 0 0-0.7871-0.97656c-0.071-0.00893-0.1406-0.02344-0.2129-0.02344zm-1.9199 1.5c-0.0472 0.1624-0.0801 0.32881-0.0801 0.5 0 1.0472 0.953 2 2 2 0.1121 0 0.2215-0.0161 0.3301-0.0371 0.1688-0.3607 0.3117-0.7359 0.4179-1.127-0.1684 0.07468-0.3483 0.11524-0.5312 0.13867a1 1 0 0 1-0.2168 0.02539 1 1 0 0 1-0.2109-0.02344c-0.7916-0.09676-1.4873-0.71329-1.709-1.4766z" opacity=".3"/>
</svg>
