<?xml version="1.0" encoding="UTF-8"?>
<svg id="svg30" width="16" height="16" version="1.1" xmlns="http://www.w3.org/2000/svg" xmlns:cc="http://creativecommons.org/ns#" xmlns:dc="http://purl.org/dc/elements/1.1/" xmlns:rdf="http://www.w3.org/1999/02/22-rdf-syntax-ns#">
 <metadata id="metadata34">
  <rdf:RDF>
   <cc:Work rdf:about="">
    <dc:format>image/svg+xml</dc:format>
    <dc:type rdf:resource="http://purl.org/dc/dcmitype/StillImage"/>
   </cc:Work>
  </rdf:RDF>
 </metadata>
 <defs id="defs7">
  <radialGradient id="gr0" cx="9" cy="10" r="11" gradientTransform="matrix(1 0 0 .72727 0 2.7273)" gradientUnits="userSpaceOnUse">
   <stop id="stop2" stop-opacity=".23529" offset="0"/>
   <stop id="stop4" stop-opacity=".54902" offset="1"/>
  </radialGradient>
 </defs>
 <path id="path9" d="m6.7871 0a1 1.0001 0 0 0-0.58399 0.17383c-0.46921 0.16825-0.892 0.45972-1.0781 0.92383a1.0001 1.0001 0 0 0 0 0.00195l-5 12.5c-0.21184 0.5289-0.1438 1.1593 0.17578 1.6309 0.31925 0.4711 0.88014 0.7696 1.4492 0.7695h12.5c0.9162-1e-4 1.7499-0.8338 1.75-1.75v-1.4082c0.0135-0.9248-0.8251-1.7754-1.75-1.7754-0.7969 0-1.4265 0.6673-1.6055 1.4336h-2.9843c-0.2331-1.3167-0.76644-2.4767-1.4785-3.3633-0.51244-0.63789-1.1758-1.1206-1.9141-1.4668l1.4941-3.7383-0.0625-0.02148-0.04883-0.01758c0.88121 0.34267 1.9986-0.18091 2.2969-1.0781 0.29823-0.89722-0.28237-1.9852-1.1934-2.2383l0.04882 0.013672-1.4961-0.49805c-0.1658-0.055923-0.34071-0.087358-0.51562-0.091797a1.0001 1.0001 0 0 0-0.00391 0zm-0.02149 1a0.75008 0.75008 0 0 1 0.22071 0.03906l1.5 0.5a0.75008 0.75008 0 1 1-0.47266 1.4219l-0.83008-0.27539-2.2246 5.5644a0.75008 0.75008 0 0 1 0.13868 0.00586c0.8834 0.115 1.6532 0.69681 2.3047 1.5078 0.6516 0.81133 1.1666 1.8898 1.3398 3.1328a0.75008 0.75008 0 0 1-0.15235 0.6035h4.9102v-0.6719a0.75008 0.75008 0 1 1 1.5 0v1.4219a0.75008 0.75008 0 0 1-0.75 0.75h-12.5a0.75008 0.75008 0 0 1-0.69727-1.0293l5-12.5a0.75008 0.75008 0 0 1 0.71289-0.4707zm-2.3164 8.5215-1.5898 3.9785h4.5586a0.75008 0.75008 0 0 1-0.16016-0.3965c-0.1328-0.954-0.54149-1.7984-1.0254-2.4004-0.4838-0.602-1.0611-0.92386-1.3301-0.95896a0.75008 0.75008 0 0 1-0.45312-0.22266zm0.5293 1.3672c0.14587 0.1044 0.31639 0.2445 0.4746 0.4414 0.22631 0.2815 0.34127 0.7521 0.49805 1.1699h-1.6152l0.64258-1.6113zm4.748 1.8261 0.00586 0.043c-0.00158-0.0113-0.00814-0.0199-0.00976-0.0312-7.3e-4 -0.0042 0.00466-0.0076 0.0039-0.0118z" fill="#fff" opacity=".05"/>
 <path id="base" d="m6.7656 1a0.75008 0.75008 0 0 0-0.7129 0.4707l-5 12.5a0.75008 0.75008 0 0 0 0.6973 1.029h12.5a0.75008 0.75008 0 0 0 0.75-0.75v-1.422a0.75008 0.75008 0 1 0-1.5 0v0.672h-4.9102a0.75008 0.75008 0 0 0 0.1524-0.604c-0.1732-1.243-0.6883-2.321-1.3399-3.1323-0.6515-0.811-1.4212-1.3928-2.3046-1.5078a0.75008 0.75008 0 0 0-0.1387-0.0059l2.2246-5.5645 0.8301 0.2754a0.75008 0.75008 0 1 0 0.4726-1.4218l-1.5-0.5a0.75008 0.75008 0 0 0-0.2207-0.0391zm-2.3164 8.5215a0.75008 0.75008 0 0 0 0.4531 0.2226c0.269 0.0351 0.8463 0.3569 1.3301 0.9589 0.4839 0.602 0.8926 1.447 1.0254 2.401a0.75008 0.75008 0 0 0 0.1602 0.396h-4.5586l1.5898-3.9785z" fill="url(#gr0)"/>
 <path id="path15" d="m6.7656 1a0.75008 0.75008 0 0 0-0.71289 0.4707l-5 12.5a0.75008 0.75008 0 0 0 0.69727 1.0293h12.5a0.75008 0.75008 0 0 0 0.75-0.75v-1.4219a0.75008 0.75008 0 1 0-1.5 0v0.6719h-4.9102a0.75008 0.75008 0 0 0 0.15235-0.6035c-0.1732-1.243-0.68825-2.3215-1.3398-3.1328-0.6515-0.811-1.4213-1.3928-2.3047-1.5078a0.75008 0.75008 0 0 0-0.13868-0.00586l2.2246-5.5644 0.83008 0.27539a0.75008 0.75008 0 1 0 0.47266-1.4219l-1.5-0.5a0.75008 0.75008 0 0 0-0.22071-0.03906zm-0.01367 0.5h0.00196c0.02434 8.1e-4 0.04918 0.00393 0.07226 0.01172a0.50005 0.50005 0 0 1 0.00195 0.00195l1.5 0.5a0.50005 0.50005 0 0 0 0.02344 0.00781c0.13018 0.03616 0.21449 0.19015 0.17188 0.31836-0.04262 0.12821-0.20221 0.20327-0.32813 0.1543a0.50005 0.50005 0 0 0-0.02343-0.00781l-0.83008-0.27539a0.50005 0.50005 0 0 0-0.62305 0.28906l-2.2246 5.5644a0.50005 0.50005 0 0 0 0.49024 0.68555c0.01543-7.7e-4 0.03156-1.3e-4 0.04687 0.00195a0.50005 0.50005 0 0 1 0.00195 0c0.7062 0.09194 1.3743 0.57207 1.9785 1.3242 0.59675 0.743 1.0744 1.7407 1.2344 2.8886a0.50005 0.50005 0 0 0 0.00391 0.0215c0.01285 0.0703-0.00615 0.1455-0.05078 0.2012a0.50005 0.50005 0 0 0 0.39062 0.8125h4.9102a0.50005 0.50005 0 0 0 0.5-0.5v-0.6719a0.50005 0.50005 0 0 0 0-0.0078c-0.0019-0.1321 0.1178-0.2539 0.25-0.2539s0.2519 0.1218 0.25 0.2539a0.50005 0.50005 0 0 0 0 0.0078v1.4219c0 0.1309-0.1191 0.25-0.25 0.25h-12.5c-0.16281 2e-4 -0.29297-0.1926-0.23242-0.3438l5-12.5c0.03738-0.09321 0.134-0.15772 0.23437-0.15625zm-2.2988 7.5215a0.50005 0.50005 0 0 0-0.46874 0.31446l-1.5898 3.9786a0.50005 0.50005 0 0 0 0.46485 0.6855h4.5586a0.50005 0.50005 0 0 0 0.39062-0.8125c-0.03001-0.0376-0.04813-0.0829-0.05273-0.1309a0.50005 0.50005 0 0 0-0.00195-0.0214c-0.14656-1.0529-0.58995-1.9716-1.1309-2.6446-0.27548-0.3428-0.57673-0.60643-0.85743-0.7949-0.28069-0.18847-0.51543-0.31068-0.79882-0.34765a0.50005 0.50005 0 0 0-0.00782 0c-0.05685-0.00648-0.11051-0.03318-0.15039-0.07422a0.50005 0.50005 0 0 0-0.35547-0.15235zm-0.0039 0.5a0.75008 0.75008 0 0 0 0.45312 0.22266c0.269 0.0351 0.84628 0.35696 1.3301 0.95896 0.4839 0.602 0.89259 1.4464 1.0254 2.4004a0.75008 0.75008 0 0 0 0.16016 0.3965h-4.5586l1.5898-3.9785z" opacity=".3"/>
 <path id="path20" d="m7.1836 2.6856-2.2246 5.5644a0.75008 0.75008 0 0 1 0.13868 0.00586c0.08082 0.01052 0.15545 0.04434 0.23437 0.0625l1.8516-4.6328 0.83008 0.27539a0.75008 0.75008 0 0 0 0.83008-1.1992 0.75008 0.75008 0 0 1-0.83008 0.19922l-0.83008-0.27539zm-2.7344 6.8359-1.5898 3.9785h0.40039l1.1894-2.9785a0.75008 0.75008 0 0 0 0.45312 0.2226c0.269 0.035 0.84628 0.357 1.3301 0.959 0.37861 0.471 0.70608 1.0926 0.89649 1.7969h0.28906a0.75008 0.75008 0 0 1-0.16016-0.3965c-0.1328-0.954-0.54149-1.7984-1.0254-2.4004-0.4838-0.602-1.0611-0.92386-1.3301-0.95896a0.75008 0.75008 0 0 1-0.45312-0.22266zm4.1934 3.9023a0.75008 0.75008 0 0 1-0.05274 0.0762h0.06836c-0.00519-0.0255-0.01014-0.0509-0.01562-0.0762zm6.3574 0.8262a0.75008 0.75008 0 0 1-0.75 0.75h-12.5a0.75008 0.75008 0 0 1-0.5918-0.291l-0.10547 0.2617a0.75008 0.75008 0 0 0 0.69727 1.0293h12.5a0.75008 0.75008 0 0 0 0.75-0.75v-1z" fill="#fff" opacity=".2"/>
 <path id="path25" d="m6.7656 1a0.75008 0.75008 0 0 0-0.71289 0.4707l-5 12.5a0.75008 0.75008 0 0 0 0.10547 0.7383l4.8945-12.238a0.75008 0.75008 0 0 1 0.71289-0.4707 0.75008 0.75008 0 0 1 0.22071 0.03906l1.5 0.5a0.75008 0.75008 0 0 1 0.35742 0.22266 0.75008 0.75008 0 0 0-0.35742-1.2227l-1.5-0.5a0.75008 0.75008 0 0 0-0.22071-0.03906zm-1.4336 7.3184-0.37305 0.93164a0.75008 0.75008 0 0 1 0.13868 0.00586c0.8834 0.115 1.6532 0.69681 2.3047 1.5078 0.56612 0.7048 1.0149 1.6193 1.2402 2.6601a0.75008 0.75008 0 0 0 0.09961-0.5273c-0.1732-1.243-0.68825-2.3215-1.3398-3.1328-0.59189-0.7368-1.2867-1.265-2.0703-1.4453zm8.9063 3.748a0.75008 0.75008 0 0 0-0.7383 0.7617v0.6719h-4.8418c0.02708 0.1327 0.06492 0.2597 0.08399 0.3965a0.75008 0.75008 0 0 1-0.15235 0.6035h4.9102v-0.6719a0.75008 0.75008 0 1 1 1.5 0v-1a0.75008 0.75008 0 0 0-0.7617-0.7617zm-10.979 1.4336-0.40039 1h4.5586a0.75008 0.75008 0 0 1-0.16016-0.3965c-0.02889-0.2076-0.07595-0.4076-0.1289-0.6035h-3.8691z" opacity=".3"/>
</svg>
