<?xml version="1.0" encoding="UTF-8"?>
<svg id="svg30" width="16" height="16" version="1.1" xmlns="http://www.w3.org/2000/svg" xmlns:cc="http://creativecommons.org/ns#" xmlns:dc="http://purl.org/dc/elements/1.1/" xmlns:rdf="http://www.w3.org/1999/02/22-rdf-syntax-ns#">
 <metadata id="metadata34">
  <rdf:RDF>
   <cc:Work rdf:about="">
    <dc:format>image/svg+xml</dc:format>
    <dc:type rdf:resource="http://purl.org/dc/dcmitype/StillImage"/>
   </cc:Work>
  </rdf:RDF>
 </metadata>
 <defs id="defs7">
  <radialGradient id="gr0" cx="9" cy="10" r="11" gradientTransform="matrix(1 0 0 .72727 0 2.7273)" gradientUnits="userSpaceOnUse">
   <stop id="stop2" stop-opacity=".23529" offset="0"/>
   <stop id="stop4" stop-opacity=".54902" offset="1"/>
  </radialGradient>
 </defs>
 <path id="path9" d="m14.19 0a1 1.0001 0 0 0-0.6778 0.30078c-0.1733 0.087021-0.3842 0.089464-0.5195 0.22852l-1.4707 1.4707h-2.5215a1.0001 1.0001 0 0 0-1 1v2.5234l-2.4766 2.4766h-2.5234a1.0001 1.0001 0 0 0-1 1v2.5254l-1.4512 1.4531c-0.69856 0.6355-0.7283 1.8655-0.060547 2.5332 0.66775 0.6678 1.8979 0.6382 2.5332-0.0605l1.4531-1.4512h2.5254a1.0001 1.0001 0 0 0 1-1v-2.5254l2.4746-2.4746h2.5254a1.0001 1.0001 0 0 0 1-1v-2.5254l1.4648-1.4648c0.5066-0.48767 0.6731-1.2961 0.3985-1.9434-0.2741-0.64596-0.9687-1.0879-1.6699-1.0645-0.0015 4.876e-5 -0.0025-0.0020059-0.0039-0.0019531zm0.0351 1a0.74946 0.74956 0 0 1 0.5469 1.2891l-1.7715 1.7715v2.9394h-2.9395l-3.0605 3.0605v2.9395h-2.9394l-1.7793 1.7793a0.75068 0.75078 0 1 1-1.0606-1.0605l1.7793-1.7793v-2.9395h2.9375l3.0625-3.0625v-2.9375h2.9355l1.7735-1.7734a0.74946 0.74956 0 0 1 0.5156-0.22656z" fill="#fff" opacity=".05"/>
 <path id="base" d="m14.225 1a0.74946 0.74956 0 0 0-0.51562 0.22656l-1.7734 1.7734h-2.9355v2.9375l-3.0625 3.0625h-2.9375v2.9395l-1.7793 1.7793a0.75068 0.75078 0 1 0 1.0605 1.0605l1.7793-1.7793h2.9395v-2.9395l3.0605-3.0605h2.9395v-2.9395l1.7715-1.7715a0.74946 0.74956 0 0 0-0.54688-1.2891z" fill="url(#gr0)"/>
 <path id="path15" d="m14.225 1a0.74946 0.74956 0 0 0-0.5156 0.22656l-1.7735 1.7734h-2.9355v2.9375l-3.0625 3.0625h-2.9375v2.9395l-1.7793 1.7793a0.75068 0.75078 0 1 0 1.0606 1.0605l1.7793-1.7793h2.9394v-2.9395l3.0605-3.0605h2.9395v-2.9394l1.7715-1.7715a0.74946 0.74956 0 0 0-0.5469-1.2891zm0.0156 0.5a0.50005 0.50005 0 0 0 0.0039 0c0.2004-0.00726 0.3262 0.29059 0.1817 0.42969a0.50005 0.50005 0 0 0-0.0078 0.00586l-1.7715 1.7715a0.50005 0.50005 0 0 0-0.1465 0.35352v2.4394h-2.4395a0.50005 0.50005 0 0 0-0.35347 0.14648l-3.0606 3.0606a0.50005 0.50005 0 0 0-0.14648 0.35347v2.4395h-2.4394a0.50005 0.50005 0 0 0-0.35352 0.1465l-1.7793 1.7793a0.50005 0.50005 0 0 0-0.01562 0.0176c-0.09098 0.1-0.26765 0.1034-0.36328 0.0078-0.09563-0.0957-0.09028-0.2723 0.00976-0.3633a0.50005 0.50005 0 0 0 0.01563-0.0156l1.7793-1.7793a0.50005 0.50005 0 0 0 0.14648-0.3535v-2.4395h2.4375a0.50005 0.50005 0 0 0 0.35352-0.14648l3.0625-3.0625a0.50005 0.50005 0 0 0 0.14648-0.35352v-2.4375h2.4355a0.50005 0.50005 0 0 0 0.3536-0.14648l1.7734-1.7734a0.50005 0.50005 0 0 0 0.0059-0.00391c0.0446-0.04592 0.1078-0.07433 0.1718-0.07617z" opacity=".3"/>
 <path id="path20" d="m14.81 2.25a0.74946 0.74956 0 0 1-0.039 0.03906l-1.7715 1.7715v1l1.7715-1.7715a0.74946 0.74956 0 0 0 0.039-1.0391zm-4.75 4.75-3.0605 3.0605v1l3.0605-3.0605h2.9395v-1h-2.9395zm-6 6-1.7793 1.7793a0.75068 0.75078 0 0 1-1.1152-0.0059 0.75068 0.75078 0 0 0 1.1152 1.0059l1.7793-1.7793h2.9394v-1h-2.9394z" fill="#fff" opacity=".2"/>
 <path id="path25" d="m14.225 1a0.74946 0.74956 0 0 0-0.5156 0.22656l-1.7735 1.7734h-2.9355v1h2.9355l1.7735-1.7734a0.74946 0.74956 0 0 1 0.5156-0.22656 0.74946 0.74956 0 0 1 0.5859 0.25 0.74946 0.74956 0 0 0-0.5859-1.25zm-5.2246 4.9375-3.0625 3.0625h-2.9375v1h2.9375l3.0625-3.0625v-1zm-6 6.002-1.7793 1.7793a0.75068 0.75078 0 0 0-0.05468 1.0546 0.75068 0.75078 0 0 1 0.05468-0.0546l1.7793-1.7793v-1z" opacity=".3"/>
</svg>
