<?xml version="1.0" encoding="UTF-8"?>
<svg id="svg30" width="16" height="16" version="1.1" xmlns="http://www.w3.org/2000/svg" xmlns:cc="http://creativecommons.org/ns#" xmlns:dc="http://purl.org/dc/elements/1.1/" xmlns:rdf="http://www.w3.org/1999/02/22-rdf-syntax-ns#">
 <metadata id="metadata34">
  <rdf:RDF>
   <cc:Work rdf:about="">
    <dc:format>image/svg+xml</dc:format>
    <dc:type rdf:resource="http://purl.org/dc/dcmitype/StillImage"/>
   </cc:Work>
  </rdf:RDF>
 </metadata>
 <defs id="defs7">
  <radialGradient id="gr0" cx="9" cy="10" r="11" gradientTransform="matrix(1 0 0 .72727 0 2.7273)" gradientUnits="userSpaceOnUse">
   <stop id="stop2" stop-opacity=".23529" offset="0"/>
   <stop id="stop4" stop-opacity=".54902" offset="1"/>
  </radialGradient>
 </defs>
 <path id="path9" d="m4.1699-0.0058594c-0.79962 0.012358-1.5735 0.19276-2.2383 0.55078a1 1.0001 0 0 0-0.12695 0.060547 1.0001 1.0001 0 0 0-0.00196 0c-0.36883 0.21609-0.79501 0.54419-1.1641 1.0293-0.37951 0.49917-0.71509 1.2259-0.63672 2.0879 0.074736 0.82217 0.54679 1.3879 0.88086 1.748 0.21251 0.22901 0.37264 0.3508 0.5586 0.50977-0.07511 0.0172-0.10812 0.01587-0.18946 0.03906-0.00862 0.00246-0.75473 0.24058-1.0684 0.78125-0.27421 0.47302-0.28416 0.81632-0.11914 1.2871 0.10761 0.30697 0.31622 0.54878 0.41211 0.64649 0.44697 0.45528 0.96145 0.69882 1.8008 1.1133a1.0001 1.0001 0 0 0 0.44336-0.89649c-0.8301-0.4099-1.2558-0.63717-1.5312-0.91797-0.0689-0.0702-0.13684-0.14759-0.18164-0.27539-0.044758-0.1277-0.035212-0.32358 0.04102-0.45508 0.1525-0.2629 0.33226-0.28116 0.47656-0.32226 0.2886-0.0823 0.61527-0.11465 0.91797-0.18555 0.3026-0.0709 0.54309-0.18674 0.61719-0.27344 0.0567-0.0659 0.05568-0.08595 0.05468-0.13086-0.0014-0.04489-0.02313-0.1258-0.08203-0.2246-0.1178-0.1975-0.36776-0.43908-0.57226-0.60938-0.2258-0.188-0.55461-0.45192-0.84571-0.76562-0.291-0.3137-0.57353-0.67801-0.61718-1.1582-0.0503-0.5533 0.1654-1.0347 0.4375-1.3926 0.2722-0.3578 0.60114-0.61218 0.87304-0.77148a0.44303 0.44303 0 0 0 0.00196 0c0.4828-0.283 1.1917-0.46405 1.875-0.47461 0.2278-0.00352 0.45341 0.011829 0.66601 0.048829 0.4244 0.0737 0.83871 0.22433 1.1914 0.39453s0.63234 0.33778 0.83594 0.55078a0.44343 0.44343 0 1 1-0.64063 0.61328c-0.0467-0.0489-0.28918-0.22483-0.58008-0.36523-0.2908-0.1403-0.64293-0.26571-0.95703-0.32031-0.52-0.0903-1.6362 0.13826-1.9434 0.31836-0.1795 0.10519-0.43638 0.30341-0.61719 0.54101-0.1807 0.2376-0.28546 0.49514-0.25976 0.77734 0.0119 0.1311 0.15276 0.38662 0.38476 0.63672 0.23211 0.2501 0.52832 0.4932 0.76172 0.6875 0.2328 0.1937 0.54818 0.46794 0.76758 0.83594 0.1097 0.184 0.19903 0.39944 0.20703 0.64844 0.0081 0.2491-0.08538 0.52127-0.26757 0.73437-0.30311 0.3544-0.72015 0.4759-1.0898 0.5625-0.1246 0.0292-0.18022 0.0372-0.29492 0.0586 0.2137 0.1333 0.28647 0.20385 0.76367 0.43945a0.44333 0.44333 0 0 1 0.09766 0.73047 1.0001 1.0001 0 0 0 0.61718-0.77539c0.24017-0.12935 0.45051-0.11325 0.66602-0.36524 0.34572-0.40435 0.52481-0.89538 0.50781-1.418-0.01542-0.46846-0.18427-0.8529-0.34765-1.127-0.32278-0.54139-0.73806-0.88523-0.98633-1.0918-0.23791-0.19806-0.5066-0.42362-0.66992-0.59961-0.03751-0.04044-0.054-0.0682-0.08008-0.10352 0.00896-0.0141-0.00643 0.00874 0.01953-0.02539 0.06729-0.08777 0.26052-0.24472 0.32617-0.2832-0.14301 0.08384 0.24416-0.08176 0.5625-0.13868 0.31834-0.05691 0.70211-0.05877 0.70313-0.05859 0.18333 0.03187 0.47721 0.13226 0.69336 0.23633 0.0961 0.04638 0.19744 0.10619 0.26757 0.15234 0.07014 0.04615 0.18528 0.17133 0.02539 0.00391l-0.00195-0.00391c0.5217 0.54978 1.4975 0.57491 2.0449 0.05078 0.54701-0.52369 0.56427-1.4995 0.03907-2.0449-0.33777-0.35214-0.7226-0.56645-1.1191-0.75781-0.42081-0.20307-0.91251-0.3843-1.4551-0.47852-0.28427-0.049472-0.57052-0.068826-0.85352-0.064453zm8.3281 1.0078a1.0001 1.0001 0 0 0-0.6933 0.31641l-1.625 1.7324a1.0001 1.0001 0 0 0-0.25978 0.55469c-0.00959 2.7e-4 -0.01773-0.00426-0.02734-0.00391a1.0001 1.0001 0 0 0-0.69336 0.31641l-6.5176 6.9629a1.0001 1.0001 0 0 0-0.19531 0.3027l-1.4121 3.4355a1.0001 1.0001 0 0 0 1.293 1.3106l3.9082-1.5391a1.0001 1.0001 0 0 0 0.35352-0.2363l6.4922-6.7539a1.0001 1.0001 0 0 0 0.2695-0.56055 1.0001 1.0001 0 0 0 0.586-0.28515l1.7304-1.7344a1.0001 1.0001 0 0 0 0.293-0.75c-0.0397-0.90704-0.5254-1.6596-1.1543-2.1992s-1.4445-0.90276-2.3477-0.86914zm0.0372 1c1.187-0.0442 2.4168 1.0148 2.4648 2.1113l-1.7324 1.7344c-0.047-1.0624-1.2054-2.0909-2.3574-2.1133l1.625-1.7324zm-2.6055 2.5996c1.1863-0.0441 2.4227 1.009 2.4707 2.1055l-6.4922 6.7539-3.9082 1.5391 1.4121-3.4355 6.5176-6.9629z" fill="#fff" opacity=".05"/>
 <path id="base" d="m4.1855.99414c-.6833.01056-1.3922.19166-1.875.47466a.44303 .44303 0 0 0 -.0019 0c-.2719.1593-.6009.4136-.8731.7714-.2721.3579-.48775.8393-.43745 1.3926.04365.4802.32615.8445.61715 1.1582.2911.3137.6199.5776.8457.7656.2045.1703.4545.4119.5723.6094.0589.0988.0806.1797.0820.2246.0015.0449.0017.0650-.0547.1309-.0741.0867-.3145.2025-.6171.2734-.3027.0709-.6294.1033-.9180.1856-.1443.0411-.3241.0593-.4766.3222-.07623.1315-.08576.3274-.0410.4551.0448.1278.1128.2052.1817.2754.2754.2808.7011.5081 1.5312.9180a.44329 .44329 0 0 0 .3926 -.7950c-.4772-.2356-0.55-.3061-.7637-.4394.1147-.0214.1703-.0294.2949-.0586.3697-.0866.7868-.2081 1.0899-.5625.1822-.2131.2757-.4853.2676-.7344-.0082-.2490-.0974-.4644-.2071-.6484-.2194-.3680-.5348-.6422-.7676-.8359-.2334-.1943-.5296-.4374-.7617-.6875-.2320-.2501-.3728-.5057-.3847-.6368-.0257-.2822.0790-.5397.2597-.7773.1808-.2376.4377-.4358.6172-.5410.3072-.1801 1.4234-.4087 1.9434-.3184.3141.0546.6662 0.18.9570.3203.2909.1404.5334.3164.5801.3653a.44343 .44343 0 1 0 .6406 -.6133c-.2036-.2130-.4832-.3806-.8359-.5508s-.7670-.3208-1.1914-.3945c-.2126-.0370-.4383-.05238-.6661-.04886zm8.3495 1.0079l-1.625 1.7324c1.152.0224 2.311 1.0509 2.358 2.1133l1.732-1.7344c-.048-1.0965-1.278-2.1555-2.465-2.1113zm-2.6053 2.5996l-6.5176 6.9624-1.4121 3.436 3.9082-1.539 6.4918-6.754c-.048-1.0965-1.284-2.1495-2.4703-2.1054z" fill="url(#gr0)"/>
 <path id="path15" d="m4.1856 0.99414c-0.6833 0.010559-1.3922 0.19161-1.875 0.47461a0.44303 0.44303 0 0 0-0.00196 0c-0.2719 0.1593-0.60084 0.41368-0.87304 0.77148-0.2721 0.3579-0.4878 0.83928-0.4375 1.3926 0.043653 0.4802 0.32618 0.84451 0.61718 1.1582 0.2911 0.3137 0.61991 0.57762 0.84571 0.76562 0.2045 0.1703 0.45446 0.41188 0.57226 0.60938 0.0589 0.0988 0.08063 0.17971 0.08203 0.2246 1e-3 0.04491 0.00202 0.06496-0.05468 0.13086-0.0741 0.0867-0.31459 0.20254-0.61719 0.27344-0.3027 0.0709-0.62937 0.10325-0.91797 0.18555-0.1443 0.0411-0.32406 0.05936-0.47656 0.32226-0.076232 0.1315-0.085778 0.32738-0.04102 0.45508 0.0448 0.1278 0.11274 0.20519 0.18164 0.27539 0.2754 0.2808 0.70115 0.50807 1.5312 0.91797a0.44333 0.44333 0 0 0 0.39258-0.79492c-0.4772-0.2356-0.54997-0.30615-0.76367-0.43945 0.1147-0.0214 0.17032-0.0294 0.29492-0.0586 0.3697-0.0866 0.78674-0.2081 1.0898-0.5625 0.18219-0.2131 0.27567-0.48527 0.26757-0.73437-8e-3 -0.249-0.09733-0.46444-0.20703-0.64844-0.2194-0.368-0.53478-0.64224-0.76758-0.83594-0.2334-0.1943-0.52961-0.4374-0.76172-0.6875-0.232-0.2501-0.37286-0.50562-0.38476-0.63672-0.0257-0.2822 0.07906-0.53974 0.25976-0.77734 0.18081-0.2376 0.43769-0.43582 0.61719-0.54101 0.3072-0.1801 1.4234-0.40866 1.9434-0.31836 0.3141 0.0546 0.66623 0.18001 0.95703 0.32031 0.2909 0.1404 0.53338 0.31633 0.58008 0.36523a0.44343 0.44343 0 1 0 0.64063-0.61328c-0.2036-0.213-0.48324-0.38058-0.83594-0.55078s-0.76701-0.32083-1.1914-0.39453c-0.2126-0.037-0.43821-0.052349-0.66601-0.048829zm8.3496 1.0078-1.625 1.7324c1.152 0.0224 2.3104 1.0509 2.3574 2.1133l1.7324-1.7344c-0.048-1.0965-1.2778-2.1555-2.4648-2.1113zm0.1875 0.53125c0.3945 0.03155 0.8153 0.19241 1.1464 0.47657 0.3215 0.27577 0.5076 0.62489 0.5762 0.95117l-0.9414 0.94336c-0.1661-0.32853-0.3904-0.62899-0.668-0.87696-0.2808-0.25085-0.6119-0.44405-0.9668-0.58398l0.8536-0.91016zm-2.793 2.0684-6.5176 6.9629-1.4121 3.4355 3.9082-1.5391 6.4922-6.7539c-0.048-1.0965-1.2844-2.1496-2.4707-2.1055zm0.18751 0.53125c0.3958 0.03097 0.8176 0.19101 1.1504 0.47461 0.3242 0.2763 0.5126 0.6264 0.5801 0.95313l-6.2246 6.4746-2.7148 1.0703 0.93164-2.2676 6.2774-6.7051zm-8.1543 2.2676a0.50005 0.50005 0 0 0-0.08789 0.47656c-0.06918-0.0505-0.2835-0.14785-0.32812-0.19336-0.05542-0.05645-0.05301-0.05358-0.06641-0.09179 0.01537 0.04384 0.02276-0.07833 0-0.03907 0.07194-0.12401-0.0305-0.03137 0.18164-0.09179 0.07606-0.02169 0.20585-0.04284 0.30078-0.06055z" opacity=".3"/>
 <path id="path20" d="m4.1856 1.9941c-0.52929 0.00821-1.0706 0.12182-1.5137 0.30274-0.17042 0.11196-0.37577 0.27418-0.53126 0.47851-0.1807 0.2376-0.28546 0.49514-0.25976 0.77734 0.00746 0.08218 0.08022 0.21724 0.17969 0.36524 0.02875-0.04723 0.04531-0.09686 0.08007-0.14258 0.18081-0.2376 0.43769-0.43581 0.61719-0.54101 0.3072-0.1801 1.4234-0.40866 1.9434-0.31836 0.3141 0.0546 0.66623 0.18001 0.95703 0.32031 0.2909 0.1404 0.53338 0.31633 0.58008 0.36523a0.44343 0.44343 0 1 0 0.64063-0.61328c-0.08688-0.09088-0.19427-0.16996-0.3086-0.24805a0.44343 0.44343 0 0 1-0.33203-0.13867c-0.03006-0.03148-0.15558-0.11752-0.30859-0.21094-0.32813-0.14919-0.69604-0.2813-1.0781-0.34765-0.2126-0.037-0.43821-0.05233-0.66601-0.04883zm7.5058 1.9082-0.7812 0.83204c1.152 0.0224 2.3104 1.0509 2.3574 2.1133l1.7324-1.7344c-0.0116-0.26511-0.0941-0.52777-0.2266-0.77344l-1.5058 1.5078c-0.0362-0.81791-0.7325-1.6112-1.5762-1.9453zm-10.621 0.0625c-0.06038 0.20768-0.093948 0.42944-0.072263 0.66797 0.043653 0.4802 0.32618 0.84451 0.61718 1.1582 0.2911 0.3137 0.61991 0.57762 0.84571 0.76562 0.05959 0.04963 0.12262 0.113 0.18554 0.17188 0.19595-0.0662 0.35901-0.14262 0.41407-0.20704 0.0567-0.0659 0.05568-0.08595 0.05468-0.13086-0.0014-0.04489-0.02313-0.1258-0.08203-0.2246-0.1178-0.1975-0.36776-0.43908-0.57226-0.60938-0.2258-0.188-0.55461-0.45192-0.84571-0.76562-0.21993-0.23709-0.43414-0.50309-0.54492-0.82618zm2.7969 2.9024c-0.03993 0.07848-0.0739 0.15961-0.13281 0.22851-0.19613 0.22932-0.43964 0.34566-0.6875 0.4336-0.07954 0.08376-0.30176 0.19069-0.58594 0.25976 0.14396 0.09424 0.26927 0.17806 0.65234 0.36719a0.44333 0.44333 0 0 1 0.22266 0.25195c0.14315-0.07908 0.28034-0.17442 0.39844-0.3125 0.18219-0.2131 0.27567-0.48527 0.26757-0.73437-0.00594-0.18511-0.06394-0.34527-0.13476-0.49414zm8.3066 0.07617-6.2656 6.5175-3.418 1.3457-0.49023 1.1934 3.9082-1.5391 6.4922-6.7539c-0.0115-0.26255-0.0958-0.52057-0.2266-0.76367zm-10.916 1.1387c-0.07114 0.04381-0.14298 0.10692-0.20898 0.2207-0.076232 0.1315-0.085778 0.32738-0.04102 0.45508 0.0448 0.1278 0.11274 0.20519 0.18164 0.27539 0.2754 0.2808 0.70115 0.50807 1.5312 0.91797a0.44333 0.44333 0 0 0 0.39258-0.79492c-0.17168-0.08476-0.25331-0.13291-0.3457-0.18555a0.44333 0.44333 0 0 1-0.00586-0.00195 0.44333 0.44333 0 0 1-0.04102-0.01758c-0.77967-0.385-1.1862-0.61068-1.4629-0.86914z" fill="#fff" opacity=".2"/>
 <path id="path25" d="m4.1856 0.99414c-0.6833 0.010559-1.3922 0.19161-1.875 0.47461a0.44303 0.44303 0 0 0-0.00196 0c-0.2719 0.1593-0.60084 0.41368-0.87304 0.77148-0.2721 0.3579-0.4878 0.83928-0.4375 1.3926 0.010663 0.11727 0.036473 0.22764 0.072263 0.33203 0.07969-0.27404 0.21044-0.521 0.36524-0.72461 0.2722-0.3578 0.60114-0.61218 0.87304-0.77148a0.44303 0.44303 0 0 0 0.00196 0c0.10882-0.06379 0.23241-0.11923 0.36133-0.17187 0.02775-0.01824 0.0608-0.04777 0.08593-0.0625 0.3072-0.1801 1.4234-0.40866 1.9434-0.31836 0.3141 0.0546 0.66623 0.18001 0.95703 0.32031 0.10364 0.05002 0.1868 0.10259 0.27149 0.15429 0.03634 0.01653 0.07811 0.02991 0.11328 0.04688 0.2022 0.09758 0.37374 0.19782 0.52734 0.30273a0.44343 0.44343 0 0 0 0.3086-0.75195c-0.2036-0.213-0.48324-0.38058-0.83594-0.55078s-0.76701-0.32083-1.1914-0.39453c-0.2126-0.037-0.43821-0.052349-0.66601-0.048829zm8.3496 1.0078-1.625 1.7324c0.2651 0.00515 0.529 0.06809 0.7812 0.16796l0.8438-0.90039c0.9-0.03351 1.8228 0.56749 2.2382 1.3379l0.2266-0.22656c-0.048-1.0965-1.2778-2.1555-2.4648-2.1113zm-10.475 1.916c-0.12069 0.19821-0.20045 0.40686-0.17969 0.63476 0.0119 0.1311 0.15276 0.38662 0.38476 0.63672 0.23211 0.2501 0.52832 0.4932 0.76172 0.6875 0.2328 0.1937 0.54818 0.46794 0.76758 0.83594 0.02815 0.04721 0.04783 0.10292 0.07227 0.1543 0.08355-0.16424 0.14024-0.33731 0.13476-0.50586-8e-3 -0.249-0.09733-0.46444-0.20703-0.64844-0.2194-0.368-0.53478-0.64224-0.76758-0.83594-0.2334-0.1943-0.52961-0.4374-0.76172-0.6875-0.08657-0.09333-0.14586-0.18337-0.20507-0.27148zm7.8691 0.68359-6.5176 6.9629-1.4121 3.4355 0.49023-0.1934 0.92188-2.2421 6.5176-6.9629c0.90221-0.03354 1.8289 0.56964 2.2441 1.3418l0.2266-0.23633c-0.048-1.0965-1.2844-2.1496-2.4707-2.1055zm-7.2832 2.127c-0.06779 0.0229-0.12533 0.04818-0.20312 0.0664-0.3027 0.0709-0.62937 0.10325-0.91797 0.18555-0.1443 0.0411-0.32406 0.05936-0.47656 0.32226-0.076232 0.1315-0.085778 0.32738-0.04102 0.45508 0.0448 0.1278 0.11274 0.20519 0.18164 0.27539 0.01673 0.01706 0.05047 0.03212 0.06836 0.04883 0.09323-0.05741 0.18573-0.07825 0.26758-0.10156 0.2886-0.0823 0.61527-0.11465 0.91797-0.18555 0.00674-0.00158 0.0109-0.00423 0.01758-0.00586-0.03537-0.02315-0.06918-0.04597-0.11133-0.07226 0.1147-0.0214 0.17032-0.0294 0.29492-0.0586 0.13048-0.03056 0.26715-0.08094 0.40235-0.1289 0.00249-0.00263 0.01146-0.00524 0.01367-0.00782 0.0567-0.0659 0.05568-0.08595 0.05468-0.13086-0.0014-0.04489-0.02313-0.1258-0.08203-0.2246-0.08347-0.13995-0.23371-0.29433-0.38672-0.4375zm0.68946 1.6797c-0.22428 0.1239-0.46575 0.19714-0.69141 0.25-0.1246 0.0292-0.18022 0.0372-0.29492 0.0586 0.13562 0.08459 0.2506 0.15969 0.41211 0.25195a0.44333 0.44333 0 0 0 0.00586 0.00195 0.44333 0.44333 0 0 0 0.56836-0.5625z" opacity=".3"/>
</svg>
