<?xml version="1.0" encoding="UTF-8"?>
<svg id="svg30" width="16" height="16" version="1.1" xmlns="http://www.w3.org/2000/svg" xmlns:cc="http://creativecommons.org/ns#" xmlns:dc="http://purl.org/dc/elements/1.1/" xmlns:rdf="http://www.w3.org/1999/02/22-rdf-syntax-ns#">
 <metadata id="metadata34">
  <rdf:RDF>
   <cc:Work rdf:about="">
    <dc:format>image/svg+xml</dc:format>
    <dc:type rdf:resource="http://purl.org/dc/dcmitype/StillImage"/>
   </cc:Work>
  </rdf:RDF>
 </metadata>
 <defs id="defs7">
  <radialGradient id="gr0" cx="9" cy="10" r="11" gradientTransform="matrix(1 0 0 .72727 0 2.7273)" gradientUnits="userSpaceOnUse">
   <stop id="stop2" stop-opacity=".23529" offset="0"/>
   <stop id="stop4" stop-opacity=".54902" offset="1"/>
  </radialGradient>
 </defs>
 <path id="path9" d="m11.496 0.015625c-0.1686-0.024101-0.3492-0.024089-0.5332 0.013672-0.3726 0.076461-0.5459 0.23313-0.6953 0.37109a1 1.0001 0 0 0-0.0039 0.003906l-4.2852 3.998a1.0001 1.0001 0 0 0-0.31055 0.83789 1.0001 1.0001 0 0 0-0.8457 0.25586l-2.3457 2.1875c-0.38504 0.35939-0.50496 0.85805-0.4707 1.2793s0.20696 0.8095 0.49219 1.1367a1.0001 1.0001 0 0 0 0.00195 2e-3l2.8144 3.2187c0.27596 0.3159 0.62294 0.5471 1.043 0.6406 0.33299 0.0742 0.72543-0.078 1.0762-0.2754-0.1975 0.2356-0.43359 0.4568-0.43359 0.8145 0 0.5132 0.29996 0.9368 0.62305 1.168 0.32308 0.2311 0.69059 0.332 1.0762 0.332h1.4004 4.2012 0.6992a1.0001 1.0001 0 0 0 1-1v-0.5-0.5a1.0001 1.0001 0 0 0-1-1h-0.6992-4.2012-1.4004c-0.17492 0-0.3231 0.1059-0.48828 0.1504l1.9786-1.8516a1.0001 1.0001 0 0 0 0.3085-0.8457 1.0001 1.0001 0 0 0 0.879-0.2461l4.1582-3.873a1.0001 1.0001 0 0 0 0.0019-0.00195c0.4021-0.37562 0.5004-0.90478 0.4492-1.3203-0.0511-0.41492-0.2286-0.78107-0.5019-1.0957v-0.00196l-2.7832-3.2148a1.0001 1.0001 0 0 0 0-0.001953c-0.3166-0.36476-0.7098-0.61046-1.2051-0.68164zm-0.1426 0.99024c0.199 0.0286 0.4218 0.15176 0.5918 0.34766l2.7832 3.2168c0.303 0.3483 0.362 0.80985 0.125 1.0312l-4.1582 3.873-4.0351-4.3418 4.2851-3.998c0.06-0.0554 0.1398-0.1089 0.2188-0.125 0.059-0.012204 0.1224-0.013511 0.1894-0.00391zm-5.8496 5.2207 4.002 4.3418-2.4707 2.3125c-0.2372 0.221-0.66515 0.1292-0.96875-0.2188l-2.8145-3.2187c-0.3036-0.3483-0.33085-0.808-0.09375-1.0293l2.3457-2.1875zm-4.5039 6.7734a1.0001 1.0001 0 0 0-1 1v0.5 0.5a1.0001 1.0001 0 0 0 1 1h2.3008c0.38558 0 0.75309-0.1009 1.0762-0.332 0.32309-0.2312 0.62305-0.6548 0.62305-1.168s-0.29996-0.9368-0.62305-1.168c-0.32308-0.2311-0.69059-0.332-1.0762-0.332h-2.3008zm0 1h2.3008c0.3878 0 0.69922 0.223 0.69922 0.5s-0.31142 0.5-0.69922 0.5h-2.3008v-0.5-0.5zm7.6992 0h1.4004 4.2012 0.6992v0.5 0.5h-0.6992-4.2012-1.4004c-0.3878 0-0.69922-0.223-0.69922-0.5s0.31142-0.5 0.69922-0.5z" fill="#fff" opacity=".05"/>
 <path id="base" d="m11.354 1.0059c-.067-.00958-.131-.00821-.190.0039-.079.0161-.159.0696-.219.1250l-4.2848 3.998 4.0348 4.3418 4.159-3.873c.237-.2214.178-.6830-.125-1.0313l-2.784-3.2168c-.170-.1959-.392-.3190-.591-.3476zm-5.8501 5.2207l-2.3457 2.1875c-.2371.2213-.2098.6810.0938 1.0293l2.8144 3.2186c.3036.348.7316.440.9688.219l2.4707-2.313-4.002-4.3414zm-4.5039 7.7734v.5.5h2.3008c.3878 0 .6992-.223.6992-.5s-.3114-.5-.6992-.5h-2.3008zm7.6992 0c-.3878 0-.6992.223-.6992.5s.3114.5.6992.5h1.4008 4.201.699v-.5-.5h-.699-4.201-1.4008z" fill="url(#gr0)"/>
 <path id="path15" d="m11.354 1.0059c-0.067-0.009601-0.1304-0.008294-0.1894 0.00391-0.079 0.0161-0.1588 0.0696-0.2188 0.125l-4.2851 3.998 4.0351 4.3418 4.1582-3.873c0.237-0.2214 0.178-0.68295-0.125-1.0312l-2.7832-3.2168c-0.17-0.1959-0.3928-0.31906-0.5918-0.34766zm-0.0898 0.49414c-0.0035 7.2e-4 0.0033-0.00232 0.0195 0v0.00195h2e-3c0.0518 0.00812 0.1853 0.06912 0.2812 0.17969l2.7852 3.2168c0.0902 0.10375 0.1376 0.22472 0.1464 0.29687 0.0089 0.07215-0.0096 0.06278 0.0137 0.04102l-3.791 3.5312-3.3555-3.6094 3.918-3.6562c0.0158-0.01078 0.0429-0.01468-0.0195-0.00195zm-5.7598 4.7266-2.3457 2.1875c-0.2371 0.2213-0.20985 0.681 0.09375 1.0293l2.8145 3.2187c0.3036 0.348 0.73155 0.4398 0.96875 0.2188l2.4707-2.3125-4.002-4.3418zm-0.02735 0.70899 3.3262 3.6074-2.0957 1.959c0.00309 0.0021-0.00208 0.0049-0.01172 0.0117l0.01172-0.0117c-0.00205-0.0015-0.00439-0.0017-0.02344-0.0059-0.0516-0.0115-0.1506-0.0594-0.24023-0.1621a0.50005 0.50005 0 0 1 0-2e-3l-2.8144-3.2168c-0.08509-0.09761-0.12333-0.20682-0.12891-0.27539-0.00558-0.06856 0.0147-0.07426 0-0.06054l1.9766-1.8438zm-4.4766 7.0644v0.5 0.5h2.3008c0.3878 0 0.69922-0.223 0.69922-0.5s-0.31142-0.5-0.69922-0.5h-2.3008zm7.6992 0c-0.3878 0-0.69922 0.223-0.69922 0.5s0.31142 0.5 0.69922 0.5h1.4004 4.2012 0.6992v-0.5-0.5h-0.6992-4.2012-1.4004z" opacity=".3"/>
 <path id="path20" d="m14.789 5.6621-4.0938 3.8125-3.5371-3.8066-0.49804 0.46484 4.0351 4.3418 4.1582-3.873c0.2174-0.20304 0.176-0.60503-0.0644-0.93945zm-11.584 3.707-0.04688 0.04492c-0.2371 0.2213-0.20985 0.68104 0.09375 1.0293l2.8145 3.2187c0.3036 0.348 0.73155 0.4398 0.96875 0.2188l2.4707-2.3125-0.49414-0.5372-1.9766 1.8497c-0.2372 0.221-0.66515 0.1292-0.96875-0.2188l-2.8145-3.2187c-0.02029-0.02328-0.02905-0.05005-0.04687-0.07422zm-2.2051 5.6309v0.5 0.5h2.3008c0.3878 0 0.69922-0.223 0.69922-0.5s-0.31142-0.5-0.69922-0.5h-2.3008zm7.6992 0c-0.3878 0-0.69922 0.223-0.69922 0.5s0.31142 0.5 0.69922 0.5h1.4004 4.2012 0.6992v-0.5-0.5h-0.6992-4.2012-1.4004z" fill="#fff" opacity=".2"/>
 <path id="path25" d="m11.354 1.0059c-0.067-0.009601-0.1304-0.008294-0.1894 0.00391-0.079 0.0161-0.1588 0.0696-0.2188 0.125l-4.2851 3.998 0.49804 0.53516 3.7871-3.5332c0.06-0.0554 0.1398-0.1089 0.2188-0.125 0.059-0.012 0.1224-0.01391 0.1894-0.00391 0.199 0.0286 0.4218 0.15176 0.5918 0.34766l2.7832 3.2168c0.0251 0.02888 0.0388 0.06156 0.0606 0.0918l0.0644-0.06055c0.237-0.2214 0.178-0.68295-0.125-1.0312l-2.7832-3.2168c-0.17-0.1959-0.3928-0.31906-0.5918-0.34766zm-5.8496 5.2207-2.3457 2.1875c-0.22125 0.20651-0.20202 0.61762 0.04688 0.95508l2.2988-2.1426 3.5078 3.8046 0.49414-0.4628-4.002-4.3418zm-4.5039 7.7734v0.5 0.5h2.3008c0.3878 0 0.69922-0.223 0.69922-0.5s-0.31142-0.5-0.69922-0.5h-2.3008zm7.6992 0c-0.3878 0-0.69922 0.223-0.69922 0.5s0.31142 0.5 0.69922 0.5h1.4004 4.2012 0.6992v-0.5-0.5h-0.6992-4.2012-1.4004z" opacity=".3"/>
</svg>
