<?xml version="1.0" encoding="UTF-8"?>
<svg id="svg30" width="16" height="16" version="1.1" xmlns="http://www.w3.org/2000/svg" xmlns:cc="http://creativecommons.org/ns#" xmlns:dc="http://purl.org/dc/elements/1.1/" xmlns:rdf="http://www.w3.org/1999/02/22-rdf-syntax-ns#">
 <metadata id="metadata34">
  <rdf:RDF>
   <cc:Work rdf:about="">
    <dc:format>image/svg+xml</dc:format>
    <dc:type rdf:resource="http://purl.org/dc/dcmitype/StillImage"/>
   </cc:Work>
  </rdf:RDF>
 </metadata>
 <defs id="defs7">
  <radialGradient id="gr0" cx="9" cy="10" r="11" gradientTransform="matrix(1 0 0 .63636 0 3.6364)" gradientUnits="userSpaceOnUse">
   <stop id="stop2" stop-opacity=".23529" offset="0"/>
   <stop id="stop4" stop-opacity=".54902" offset="1"/>
  </radialGradient>
 </defs>
 <path id="path9" d="m4 1a1 1.0001 0 0 0-1 1v1a1.0001 1.0001 0 0 0 0.13477 0.5 1.0001 1.0001 0 0 0-0.13477 0.5v1a1.0001 1.0001 0 0 0 0.13477 0.5 1.0001 1.0001 0 0 0-0.13477 0.5v0.58594l-1.293-1.293a1.0001 1.0001 0 0 0-1.707 0.70703v4a1.0001 1.0001 0 0 0 1.707 0.707l1.3574-1.3574a1.0001 1.0001 0 0 0 0.07032 0.15039 1.0001 1.0001 0 0 0-0.13477 0.5v1a1.0001 1.0001 0 0 0 0.13477 0.5 1.0001 1.0001 0 0 0-0.13477 0.5v1a1.0001 1.0001 0 0 0 0.13477 0.5 1.0001 1.0001 0 0 0-0.13477 0.5v1a1.0001 1.0001 0 0 0 1 1h1a1.0001 1.0001 0 0 0 0.5-0.1348 1.0001 1.0001 0 0 0 0.5 0.1348h1a1.0001 1.0001 0 0 0 0.5-0.1348 1.0001 1.0001 0 0 0 0.5 0.1348h1a1.0001 1.0001 0 0 0 0.5-0.1348 1.0001 1.0001 0 0 0 0.5 0.1348h1a1.0001 1.0001 0 0 0 1-1v-1a1.0001 1.0001 0 0 0-0.1348-0.5 1.0001 1.0001 0 0 0 0.1348-0.5v-1a1.0001 1.0001 0 0 0-0.1348-0.5 1.0001 1.0001 0 0 0 0.1348-0.5v-1a1.0001 1.0001 0 0 0-0.1348-0.5 1.0001 1.0001 0 0 0 0.0703-0.15039l1.3575 1.3574a1.0001 1.0001 0 0 0 1.707-0.707v-4a1.0001 1.0001 0 0 0-1.707-0.70703l-1.293 1.293v-0.58594a1.0001 1.0001 0 0 0-0.1348-0.5 1.0001 1.0001 0 0 0 0.1348-0.5v-1a1.0001 1.0001 0 0 0-0.1348-0.5 1.0001 1.0001 0 0 0 0.1348-0.5v-1a1.0001 1.0001 0 0 0-1-1h-1a1.0001 1.0001 0 0 0-0.5 0.13477 1.0001 1.0001 0 0 0-0.5-0.13477h-1a1.0001 1.0001 0 0 0-0.5 0.13477 1.0001 1.0001 0 0 0-0.5-0.13477h-1a1.0001 1.0001 0 0 0-0.5 0.13477 1.0001 1.0001 0 0 0-0.5-0.13477h-1zm0 1h1v1h-1v-1zm2 0h1v1h-1v-1zm2 0h1v1h-1v-1zm2 0h1v1h-1v-1zm-2.5 1.8652a1.0001 1.0001 0 0 0 0.5 0.13477h1v1a1.0001 1.0001 0 0 0 0.13477 0.5 1.0001 1.0001 0 0 0-0.13477 0.5v1a1.0001 1.0001 0 0 0 0.13477 0.5 1.0001 1.0001 0 0 0-0.13477 0.5v1a1.0001 1.0001 0 0 0 0.13477 0.5 1.0001 1.0001 0 0 0-0.13477 0.5v1a1.0001 1.0001 0 0 0 0.13477 0.5 1.0001 1.0001 0 0 0-0.13477 0.5v1h-1a1.0001 1.0001 0 0 0-0.5 0.1348 1.0001 1.0001 0 0 0-0.5-0.1348h-1v-1a1.0001 1.0001 0 0 0-0.13477-0.5 1.0001 1.0001 0 0 0 0.13477-0.5v-1a1.0001 1.0001 0 0 0-0.13477-0.5 1.0001 1.0001 0 0 0 0.13477-0.5v-1a1.0001 1.0001 0 0 0-0.13477-0.5 1.0001 1.0001 0 0 0 0.13477-0.5v-1a1.0001 1.0001 0 0 0-0.13477-0.5 1.0001 1.0001 0 0 0 0.13477-0.5v-1h1a1.0001 1.0001 0 0 0 0.5-0.13477zm-3.5 0.13477h1v1h-1v-1zm6 0h1v1h-1v-1zm-9 2 2 2-2 2v-4zm3 0h1v1h-1v-1zm6 0h1v1h-1v-1zm4 0v4l-2-2 2-2zm-10 2h1v1h-1v-1zm6 0h1v1h-1v-1zm-6 2h1v1h-1v-1zm6 0h1v1h-1v-1zm-6 2h1v1h-1v-1zm6 0h1v1h-1v-1zm-6 2h1v1h-1v-1zm2 0h1v1h-1v-1zm2 0h1v1h-1v-1zm2 0h1v1h-1v-1z" fill="#fff" opacity=".05"/>
 <path id="base" d="m4 2v1h1v-1h-1zm2 0v1h1v-1h-1zm2 0v1h1v-1h-1zm2 0v1h1v-1h-1zm-6 2v1h1v-1h-1zm6 0v1h1v-1h-1zm-9 2v4l2-2-2-2zm3 0v1h1v-1h-1zm6 0v1h1v-1h-1zm4 0-2 2 2 2v-4zm-10 2v1h1v-1h-1zm6 0v1h1v-1h-1zm-6 2v1h1v-1h-1zm6 0v1h1v-1h-1zm-6 2v1h1v-1h-1zm6 0v1h1v-1h-1zm-6 2v1h1v-1h-1zm2 0v1h1v-1h-1zm2 0v1h1v-1h-1zm2 0v1h1v-1h-1z" fill="url(#gr0)"/>
 <path id="path15" d="m4 2v1h1v-1h-1zm2 0v1h1v-1h-1zm2 0v1h1v-1h-1zm2 0v1h1v-1h-1zm-6 2v1h1v-1h-1zm6 0v1h1v-1h-1zm-9 2v4l2-2-2-2zm3 0v1h1v-1h-1zm6 0v1h1v-1h-1zm4 0-2 2 2 2v-4zm-12.5 1.207 0.79297 0.79297-0.79297 0.79297v-1.5859zm12 0v1.5859l-0.793-0.79297 0.793-0.79297zm-9.5 0.79297v1h1v-1h-1zm6 0v1h1v-1h-1zm-6 2v1h1v-1h-1zm6 0v1h1v-1h-1zm-6 2v1h1v-1h-1zm6 0v1h1v-1h-1zm-6 2v1h1v-1h-1zm2 0v1h1v-1h-1zm2 0v1h1v-1h-1zm2 0v1h1v-1h-1z" opacity=".3"/>
 <path id="path20" d="m4 3v1h1v-1h-1zm2 0v1h1v-1h-1zm2 0v1h1v-1h-1zm2 0v1h1v-1h-1zm-6 2v1h1v-1h-1zm6 0v1h1v-1h-1zm-6 2v1h1v-1h-1zm6 0v1h1v-1h-1zm-7.5 1.5-1.5 1.5v1l2-2-0.5-0.5zm10 0-0.5 0.5 2 2v-1l-1.5-1.5zm-8.5 0.5v1h1v-1h-1zm6 0v1h1v-1h-1zm-6 2v1h1v-1h-1zm6 0v1h1v-1h-1zm-6 2v1h1v-1h-1zm6 0v1h1v-1h-1zm-6 2v1h1v-1h-1zm2 0v1h1v-1h-1zm2 0v1h1v-1h-1zm2 0v1h1v-1h-1z" fill="#fff" opacity=".2"/>
 <path id="path25" d="m4 2v1h1v-1h-1zm2 0v1h1v-1h-1zm2 0v1h1v-1h-1zm2 0v1h1v-1h-1zm-6 2v1h1v-1h-1zm6 0v1h1v-1h-1zm-9 2v1l1.5 1.5 0.5-0.5-2-2zm3 0v1h1v-1h-1zm6 0v1h1v-1h-1zm4 0-2 2 0.5 0.5 1.5-1.5v-1zm-10 2v1h1v-1h-1zm6 0v1h1v-1h-1zm-6 2v1h1v-1h-1zm6 0v1h1v-1h-1zm-6 2v1h1v-1h-1zm6 0v1h1v-1h-1zm-6 2v1h1v-1h-1zm2 0v1h1v-1h-1zm2 0v1h1v-1h-1zm2 0v1h1v-1h-1z" opacity=".3"/>
</svg>
