<?xml version="1.0" encoding="UTF-8"?>
<svg id="svg30" width="16" height="16" version="1.1" xmlns="http://www.w3.org/2000/svg" xmlns:cc="http://creativecommons.org/ns#" xmlns:dc="http://purl.org/dc/elements/1.1/" xmlns:rdf="http://www.w3.org/1999/02/22-rdf-syntax-ns#">
 <metadata id="metadata34">
  <rdf:RDF>
   <cc:Work rdf:about="">
    <dc:format>image/svg+xml</dc:format>
    <dc:type rdf:resource="http://purl.org/dc/dcmitype/StillImage"/>
   </cc:Work>
  </rdf:RDF>
 </metadata>
 <defs id="defs7">
  <radialGradient id="gr0" cx="9" cy="10" r="11" gradientTransform="matrix(1 0 0 .72727 0 2.7273)" gradientUnits="userSpaceOnUse">
   <stop id="stop2" stop-opacity=".23529" offset="0"/>
   <stop id="stop4" stop-opacity=".54902" offset="1"/>
  </radialGradient>
 </defs>
 <path id="path9" d="m6 0 0.01562 0.015625a1 1.0001 0 0 0-1.0156 0.98438v0.81836a1.0001 1.0001 0 0 0-0.5 0.13476 1.0001 1.0001 0 0 0-0.0957 0.06446c-1.008 0.60568-1.8646 1.4634-2.4551 2.4805a1.0001 1.0001 0 0 0-0.13477 0.50195h-0.81445a1.0001 1.0001 0 0 0-1 1v4a1.0001 1.0001 0 0 0 1 1h0.81641a1.0001 1.0001 0 0 0 0.13476 0.5c1.2193 2.1119 3.6083 3.4949 6.0469 3.5a1.0001 1.0001 0 0 0 0.0039 0c2.437-0.0067 4.8244-1.3894 6.043-3.5a1.0001 1.0001 0 0 0 0.1348-0.5h0.8203a1.0001 1.0001 0 0 0 1-1v-4a1.0001 1.0001 0 0 0-1-1h-0.8184a1.0001 1.0001 0 0 0-0.1347-0.5c-0.5897-1.0198-1.446-1.8806-2.4551-2.4883a1.0001 1.0001 0 0 0-0.0742-0.05078c-0.0041-0.00237-0.0077-0.00545-0.0117-0.00782a1.0001 1.0001 0 0 0-0.5059-0.13867v-0.81445a1.0001 1.0001 0 0 0-1-1h-4zm0 1h4v1.3496 1.0703 1.5801h-4v-1.5762-1.0723-1.3516zm5 1.8144a6 6 0 0 1 0.5996 0.39844h2e-3c-0.7994-0.60161 0.9438 0.75817 0.166 0.12891s0.9154 0.7909 0.1601 0.13476c-0.6556-0.56958 0.2982 0.28522 0.1348 0.12305-0.0248-0.02464 0.118 0.10756 0.0215 0.01758-0.7318-0.6822 0.8598 0.85391 0.1523 0.14648-0.7074-0.70743 0.8287 0.88413 0.1465 0.15235-0.4848-0.52004-0.0565-0.05436 0.0996 0.11132 0.0636 0.06747 0.2309 0.26347 0.041 0.04493-0.6561-0.75525 0.7641 0.93793 0.1348 0.16015s0.7305 0.96538 0.1289 0.16602l-0.0039 0.00781a6 6 0 0 1 0.3984 0.59375h-0.6953-0.498-0.9883v-0.98828-0.49805-0.69922zm-6 0.00391v0.69531 0.49805 0.98828h-0.98828-0.49805-0.69922a6 6 0 0 1 0.39844-0.59961v-0.00195c-0.60161 0.79936 0.75817-0.9438 0.12891-0.16602s0.7909-0.9154 0.13476-0.16015c-0.56958 0.65562 0.28522-0.29821 0.12305-0.13477-0.02464 0.02483 0.10756-0.11801 0.01758-0.02148-0.6822 0.73178 0.85391-0.85978 0.14648-0.15235s0.88413-0.82868 0.15235-0.14648c-0.73179 0.6822 0.9115-0.79676 0.15625-0.14063-0.75525 0.65614 0.93793-0.76402 0.16015-0.13476s0.96538-0.73052 0.16602-0.12891l0.00781 0.00391a6 6 0 0 1 0.59375-0.39844zm-4 3.1816h1.3496 1.0703 1.5801v4h-1.5762-1.0723-1.3516v-4zm5 0h4a1.0001 1.0001 0 0 0 0.0156 0 1.0001 1.0001 0 0 0 0 0.01562l-0.0156-0.01562v4a1.0001 1.0001 0 0 0 1 1h0.9922 0.5 0.6875a6 6 0 0 1-5.1797 3 6 6 0 0 1-5.1836-3h0.69531 0.5 0.98828a1.0001 1.0001 0 0 0 1-1v-4zm5 0h1.5762 1.0722 1.3516v4h-1.3496-1.0703-1.5801v-4z" fill="#fff" opacity=".05"/>
 <path id="base" d="m6 1v4.0001h4v-4h-4zm5 1.8145v1.1973a5 5 0 0 1 0.98828 0.98828h1.1934a6 6 0 0 0-2.1816-2.1855zm-6 0.0039063a6 6 0 0 0-2.1855 2.1816h1.1973a5 5 0 0 1 0.98828-0.98828v-1.1934zm-4 3.1816v4h4.0001v-4h-4zm10 0v4h4v-4h-4.0001zm-8.1836 5a6 6 0 0 0 5.1836 3 6 6 0 0 0 5.1797-3h-1.1875a5 5 0 0 1-3.9922 2 5 5 0 0 1-3.9883-2h-1.1953z" fill="url(#gr0)"/>
 <path id="path15" d="m6 1v1.3516 1.0723 1.5762h4v-1.5801-1.0703-1.3496h-4zm0.5 0.5h3v0.84961 1.0703 1.0801h-3v-1.0762-1.0723-0.85156zm4.5 1.3144v1.1973a5 5 0 0 1 0.3848 0.32031 0.50005 0.50005 0 0 0 0.1152-0.32031v-0.18555c0.2454 0.20666 0.4657 0.42795 0.6719 0.67383h-0.1836a0.50005 0.50005 0 0 0-0.3242 0.11719 5 5 0 0 1 0.3242 0.38281h1.1933a6 6 0 0 0-2.1816-2.1856zm-6 0.00391a6 6 0 0 0-2.1856 2.1816h1.1973a5 5 0 0 1 0.32031-0.38281 0.50005 0.50005 0 0 0-0.32031-0.11719h-0.18555c0.20657-0.24529 0.42808-0.46584 0.67383-0.67188v0.1836a0.50005 0.50005 0 0 0 0.11914 0.32422 5 5 0 0 1 0.38086-0.32422v-1.1934zm-4 3.1816v4h1.3516 1.0723 1.5762v-4h-1.5801-1.0703-1.3496zm10 0v4h1.5801 1.0703 1.3496v-4h-1.3516-1.0722-1.5762zm-9.5 0.5h0.84961 1.0703 1.0801v3h-1.0762-1.0723-0.85156v-3zm10 0h1.0762 1.0722 0.8516v3h-0.8496-1.0703-1.0801v-3zm-8.6836 4.5a6 6 0 0 0 5.1836 3 6 6 0 0 0 5.1797-3h-1.1875a5 5 0 0 1-0.3203 0.3848 0.50005 0.50005 0 0 0 0.3203 0.1152h0.1719c-1.0318 1.2116-2.5668 1.9944-4.1622 2-1.5979-0.0033-3.1366-0.7865-4.1699-2h0.17969a0.50005 0.50005 0 0 0 0.32422-0.1172 5 5 0 0 1-0.32422-0.3828h-1.1953z" opacity=".3"/>
 <path id="path20" d="m5 4.0117a5 5 0 0 0-0.98828 0.98828h-0.46484a6 6 0 0 0-0.73243 1h0.60547 0.5918a5 5 0 0 1 0.98828-0.98828v-1zm6 0v1a5 5 0 0 1 0.9883 0.98828h0.5879 0.6054a6 6 0 0 0-0.7265-1h-0.4668a5 5 0 0 0-0.9883-0.98828zm-5 0.98828v1h4v-1h-4zm-5 5v1h1.3516 0.46485 0.60742 0.58789 0.98828v-1h-1.5762-1.0723-1.3516zm10 0v1h0.9922 0.5879 0.5996 0.4707 1.3496v-1h-1.3496-1.0703-1.5801zm-8.1836 2a6 6 0 0 0 5.1836 3 6 6 0 0 0 5.1797-3h-0.7344a6 6 0 0 1-4.1348 1.9844 5 5 0 0 1-0.31055 0.0156 6 6 0 0 1-0.4375-0.0215 5 5 0 0 1-0.11523-0.0117 6 6 0 0 1-3.9043-1.9668h-0.72656z" fill="#fff" opacity=".2"/>
 <path id="path25" d="m6 1v1h4v-1h-4zm5 1.8144v1a6 6 0 0 1 1.4551 1.1856h0.7265a6 6 0 0 0-2.1816-2.1856zm-6 0.00391a6 6 0 0 0-2.1856 2.1816h0.73243a6 6 0 0 1 1.4531-1.1816v-1zm-4 3.1816v1h1.3496 1.0703 1.5801v-1h-0.98828-0.5918-0.60547-0.46484-1.3496zm10 0v1h1.5762 1.0722 1.3516v-1h-1.3516-0.4668-0.6054-0.5879-0.9883zm-8.1836 5a6 6 0 0 0 0.72656 1h0.46875a5 5 0 0 0 3.4356 1.9668 6 6 0 0 0 0.11523 0.0117 5 5 0 0 0 0.4375 0.0215 6 6 0 0 0 0.31055-0.0156 5 5 0 0 0 3.6816-1.9844h0.4531a6 6 0 0 0 0.7344-1h-0.5996-0.5879a5 5 0 0 1-3.9922 2 5 5 0 0 1-3.9883-2h-0.58789-0.60742z" opacity=".3"/>
</svg>
