<?xml version="1.0" encoding="UTF-8"?>
<svg id="svg30" width="16" height="16" version="1.1" xmlns="http://www.w3.org/2000/svg" xmlns:cc="http://creativecommons.org/ns#" xmlns:dc="http://purl.org/dc/elements/1.1/" xmlns:rdf="http://www.w3.org/1999/02/22-rdf-syntax-ns#">
 <metadata id="metadata34">
  <rdf:RDF>
   <cc:Work rdf:about="">
    <dc:format>image/svg+xml</dc:format>
    <dc:type rdf:resource="http://purl.org/dc/dcmitype/StillImage"/>
   </cc:Work>
  </rdf:RDF>
 </metadata>
 <defs id="defs7">
  <radialGradient id="gr0" cx="9" cy="10" r="11" gradientTransform="matrix(1 0 0 .63636 0 3.6364)" gradientUnits="userSpaceOnUse">
   <stop id="stop2" stop-opacity=".23529" offset="0"/>
   <stop id="stop4" stop-opacity=".54902" offset="1"/>
  </radialGradient>
 </defs>
 <path id="path9" d="m1 1a1 1.0001 0 0 0-1 1v1a1.0001 1.0001 0 0 0 0.13477 0.5 1.0001 1.0001 0 0 0-0.13477 0.5v1a1.0001 1.0001 0 0 0 0.13477 0.5 1.0001 1.0001 0 0 0-0.13477 0.5v1a1.0001 1.0001 0 0 0 0.13477 0.5 1.0001 1.0001 0 0 0-0.13477 0.5v1a1.0001 1.0001 0 0 0 0.13477 0.5 1.0001 1.0001 0 0 0-0.13477 0.5v1a1.0001 1.0001 0 0 0 0.13477 0.5 1.0001 1.0001 0 0 0-0.13477 0.5v1a1.0001 1.0001 0 0 0 0.13477 0.5 1.0001 1.0001 0 0 0-0.13477 0.5v1a1.0001 1.0001 0 0 0 1 1h1a1.0001 1.0001 0 0 0 0.5-0.1348 1.0001 1.0001 0 0 0 0.5 0.1348h1a1.0001 1.0001 0 0 0 0.5-0.1348 1.0001 1.0001 0 0 0 0.5 0.1348h1a1.0001 1.0001 0 0 0 0.5-0.1348 1.0001 1.0001 0 0 0 0.5 0.1348h1a1.0001 1.0001 0 0 0 0.5-0.1348 1.0001 1.0001 0 0 0 0.5 0.1348h1a1.0001 1.0001 0 0 0 0.5-0.1348 1.0001 1.0001 0 0 0 0.5 0.1348h1a1.0001 1.0001 0 0 0 0.5-0.1348 1.0001 1.0001 0 0 0 0.5 0.1348h1a1.0001 1.0001 0 0 0 1-1v-1a1.0001 1.0001 0 0 0-0.1348-0.5 1.0001 1.0001 0 0 0 0.1348-0.5v-1a1.0001 1.0001 0 0 0-0.1348-0.5 1.0001 1.0001 0 0 0 0.1348-0.5v-1a1.0001 1.0001 0 0 0-0.1348-0.5 1.0001 1.0001 0 0 0 0.1348-0.5v-1a1.0001 1.0001 0 0 0-0.1348-0.5 1.0001 1.0001 0 0 0 0.1348-0.5v-1a1.0001 1.0001 0 0 0-0.1348-0.5 1.0001 1.0001 0 0 0 0.1348-0.5v-1a1.0001 1.0001 0 0 0-0.1348-0.5 1.0001 1.0001 0 0 0 0.1348-0.5v-1a1.0001 1.0001 0 0 0-1-1h-1a1.0001 1.0001 0 0 0-0.5 0.13477 1.0001 1.0001 0 0 0-0.5-0.13477h-1a1.0001 1.0001 0 0 0-0.5 0.13477 1.0001 1.0001 0 0 0-0.5-0.13477h-1a1.0001 1.0001 0 0 0-0.5 0.13477 1.0001 1.0001 0 0 0-0.5-0.13477h-1a1.0001 1.0001 0 0 0-0.5 0.13477 1.0001 1.0001 0 0 0-0.5-0.13477h-1a1.0001 1.0001 0 0 0-0.5 0.13477 1.0001 1.0001 0 0 0-0.5-0.13477h-1a1.0001 1.0001 0 0 0-0.5 0.13477 1.0001 1.0001 0 0 0-0.5-0.13477h-1zm0 1h1v1h-1v-1zm2 0h1v1h-1v-1zm2 0h1v1h-1v-1zm2 0h1v1h-1v-1zm2 0h1v1h-1v-1zm2 0h1v1h-1v-1zm2 0h1v1h-1v-1zm-8.5 1.8652a1.0001 1.0001 0 0 0 0.47656 0.13477h-0.97656a1.0001 1.0001 0 0 0-1 1v-1h1a1.0001 1.0001 0 0 0 0.5-0.13477zm2 0a1.0001 1.0001 0 0 0 0.47656 0.13477h-0.97656a1.0001 1.0001 0 0 0-0.5 0.13477 1.0001 1.0001 0 0 0-0.47656-0.13477h0.97656a1.0001 1.0001 0 0 0 0.5-0.13477zm2 0a1.0001 1.0001 0 0 0 0.47656 0.13477h-0.97656a1.0001 1.0001 0 0 0-0.5 0.13477 1.0001 1.0001 0 0 0-0.47656-0.13477h0.97656a1.0001 1.0001 0 0 0 0.5-0.13477zm2 0a1.0001 1.0001 0 0 0 0.4766 0.13477h-0.9766a1.0001 1.0001 0 0 0-0.5 0.13477 1.0001 1.0001 0 0 0-0.47656-0.13477h0.97656a1.0001 1.0001 0 0 0 0.5-0.13477zm-9.5 0.13477h1v1h-1v-1zm10 0h1v1a1.0001 1.0001 0 0 0 0.1348 0.5 1.0001 1.0001 0 0 0-0.1348 0.47656v-0.97656a1.0001 1.0001 0 0 0-1-1zm2 0h1v1h-1v-1zm-9 1h1v1h-1v-1zm2 0h1v1h-1v-1zm2 0h1v1h-1v-1zm2 0h1v1h-1v-1zm-7 0.02344v0.97656a1.0001 1.0001 0 0 0 0.13477 0.5 1.0001 1.0001 0 0 0-0.13477 0.47656v-0.97656a1.0001 1.0001 0 0 0-0.13477-0.5 1.0001 1.0001 0 0 0 0.13477-0.47656zm-2 0.97656h1v1h-1v-1zm12 0h1v1h-1v-1zm-1 0.02344v0.97656a1.0001 1.0001 0 0 0 0.1348 0.5 1.0001 1.0001 0 0 0-0.1348 0.47656v-0.97656a1.0001 1.0001 0 0 0-0.1348-0.5 1.0001 1.0001 0 0 0 0.1348-0.47656zm-4.5 0.84179a1.0001 1.0001 0 0 0 0.5 0.13477h1v1a1.0001 1.0001 0 0 0 0.13477 0.5 1.0001 1.0001 0 0 0-0.13477 0.5v1h-1a1.0001 1.0001 0 0 0-0.5 0.1348 1.0001 1.0001 0 0 0-0.5-0.1348h-1v-1a1.0001 1.0001 0 0 0-0.13477-0.5 1.0001 1.0001 0 0 0 0.13477-0.5v-1h1a1.0001 1.0001 0 0 0 0.5-0.13477zm-3.5 0.13477h1v1h-1v-1zm6 0h1v1h-1v-1zm-7 0.02344v0.97656a1.0001 1.0001 0 0 0 0.13477 0.5 1.0001 1.0001 0 0 0-0.13477 0.47656v-0.97656a1.0001 1.0001 0 0 0-0.13477-0.5 1.0001 1.0001 0 0 0 0.13477-0.47656zm-2 0.97656h1v1h-1v-1zm12 0h1v1h-1v-1zm-1 0.02344v0.97656a1.0001 1.0001 0 0 0 0.1348 0.5 1.0001 1.0001 0 0 0-0.1348 0.47656v-0.97656a1.0001 1.0001 0 0 0-0.1348-0.5 1.0001 1.0001 0 0 0 0.1348-0.47656zm-8 0.97656h1v1h-1v-1zm6 0h1v1h-1v-1zm-7 0.02344v0.97656a1.0001 1.0001 0 0 0 0.13477 0.5 1.0001 1.0001 0 0 0-0.13477 0.4766v-0.9766a1.0001 1.0001 0 0 0-0.13477-0.5 1.0001 1.0001 0 0 0 0.13477-0.47656zm-2 0.97656h1v1h-1v-1zm12 0h1v1h-1v-1zm-1 0.0234v0.9766a1.0001 1.0001 0 0 0 0.1348 0.5 1.0001 1.0001 0 0 0-0.1348 0.4766v-0.9766a1.0001 1.0001 0 0 0-0.1348-0.5 1.0001 1.0001 0 0 0 0.1348-0.4766zm-8 0.9766h1v1h-1v-1zm2 0h1v1h-1v-1zm2 0h1v1h-1v-1zm2 0h1v1h-1v-1zm-7 0.0234v0.9766a1.0001 1.0001 0 0 0 1 1h-1v-1a1.0001 1.0001 0 0 0-0.13477-0.5 1.0001 1.0001 0 0 0 0.13477-0.4766zm-2 0.9766h1v1h-1v-1zm11 0v1h-1a1.0001 1.0001 0 0 0-0.5 0.1348 1.0001 1.0001 0 0 0-0.4766-0.1348h0.9766a1.0001 1.0001 0 0 0 1-1zm1 0h1v1h-1v-1zm-7.5 0.8652a1.0001 1.0001 0 0 0 0.47656 0.1348h-0.97656a1.0001 1.0001 0 0 0-0.5 0.1348 1.0001 1.0001 0 0 0-0.47656-0.1348h0.97656a1.0001 1.0001 0 0 0 0.5-0.1348zm2 0a1.0001 1.0001 0 0 0 0.47656 0.1348h-0.97656a1.0001 1.0001 0 0 0-0.5 0.1348 1.0001 1.0001 0 0 0-0.47656-0.1348h0.97656a1.0001 1.0001 0 0 0 0.5-0.1348zm2 0a1.0001 1.0001 0 0 0 0.47656 0.1348h-0.97656a1.0001 1.0001 0 0 0-0.5 0.1348 1.0001 1.0001 0 0 0-0.47656-0.1348h0.97656a1.0001 1.0001 0 0 0 0.5-0.1348zm-8.5 1.1348h1v1h-1v-1zm2 0h1v1h-1v-1zm2 0h1v1h-1v-1zm2 0h1v1h-1v-1zm2 0h1v1h-1v-1zm2 0h1v1h-1v-1zm2 0h1v1h-1v-1z" fill="#fff" opacity=".05"/>
 <path id="base" d="m1 2v1h1v-1h-1zm2 0v1h1v-1h-1zm2 0v1h1v-1h-1zm2 0v1h1v-1h-1zm2 0v1h1v-1h-1zm2 0v1h1v-1h-1zm2 0v1h1v-1h-1zm-12 2v1h1v-1h-1zm12 0v1h1v-1h-1zm-9 1v1h1v-1h-1zm2 0v1h1v-1h-1zm2 0v1h1v-1h-1zm2 0v1h1v-1h-1zm-9 1v1h1v-1h-1zm12 0v1h1v-1h-1zm-9 1v1h1v-1h-1zm6 0v1h1v-1h-1zm-9 1v1h1v-1h-1zm12 0v1h1v-1h-1zm-9 1v1h1v-1h-1zm6 0v1h1v-1h-1zm-9 1v1h1v-1h-1zm12 0v1h1v-1h-1zm-9 1v1h1v-1h-1zm2 0v1h1v-1h-1zm2 0v1h1v-1h-1zm2 0v1h1v-1h-1zm-9 1v1h1v-1h-1zm12 0v1h1v-1h-1zm-12 2v1h1v-1h-1zm2 0v1h1v-1h-1zm2 0v1h1v-1h-1zm2 0v1h1v-1h-1zm2 0v1h1v-1h-1zm2 0v1h1v-1h-1zm2 0v1h1v-1h-1z" fill="url(#gr0)"/>
 <path id="path20" d="m1 3v1h1v-1h-1zm2 0v1h1v-1h-1zm2 0v1h1v-1h-1zm2 0v1h1v-1h-1zm2 0v1h1v-1h-1zm2 0v1h1v-1h-1zm2 0v1h1v-1h-1zm-12 2v1h1v-1h-1zm12 0v1h1v-1h-1zm-9 1v1h1v-1h-1zm2 0v1h1v-1h-1zm2 0v1h1v-1h-1zm2 0v1h1v-1h-1zm-9 1v1h1v-1h-1zm12 0v1h1v-1h-1zm-9 1v1h1v-1h-1zm6 0v1h1v-1h-1zm-9 1v1h1v-1h-1zm12 0v1h1v-1h-1zm-9 1v1h1v-1h-1zm6 0v1h1v-1h-1zm-9 1v1h1v-1h-1zm12 0v1h1v-1h-1zm-9 1v1h1v-1h-1zm2 0v1h1v-1h-1zm2 0v1h1v-1h-1zm2 0v1h1v-1h-1zm-9 1v1h1v-1h-1zm12 0v1h1v-1h-1zm-12 2v1h1v-1h-1zm2 0v1h1v-1h-1zm2 0v1h1v-1h-1zm2 0v1h1v-1h-1zm2 0v1h1v-1h-1zm2 0v1h1v-1h-1zm2 0v1h1v-1h-1z" fill="#fff" opacity=".2"/>
 <path id="path25" d="m1 2v1h1v-1h-1zm2 0v1h1v-1h-1zm2 0v1h1v-1h-1zm2 0v1h1v-1h-1zm2 0v1h1v-1h-1zm2 0v1h1v-1h-1zm2 0v1h1v-1h-1zm-12 2v1h1v-1h-1zm12 0v1h1v-1h-1zm-9 1v1h1v-1h-1zm2 0v1h1v-1h-1zm2 0v1h1v-1h-1zm2 0v1h1v-1h-1zm-9 1v1h1v-1h-1zm12 0v1h1v-1h-1zm-9 1v1h1v-1h-1zm6 0v1h1v-1h-1zm-9 1v1h1v-1h-1zm12 0v1h1v-1h-1zm-9 1v1h1v-1h-1zm6 0v1h1v-1h-1zm-9 1v1h1v-1h-1zm12 0v1h1v-1h-1zm-9 1v1h1v-1h-1zm2 0v1h1v-1h-1zm2 0v1h1v-1h-1zm2 0v1h1v-1h-1zm-9 1v1h1v-1h-1zm12 0v1h1v-1h-1zm-12 2v1h1v-1h-1zm2 0v1h1v-1h-1zm2 0v1h1v-1h-1zm2 0v1h1v-1h-1zm2 0v1h1v-1h-1zm2 0v1h1v-1h-1zm2 0v1h1v-1h-1z" opacity=".3"/>
</svg>
