<?xml version="1.0" encoding="UTF-8"?>
<svg id="svg30" width="16" height="16" version="1.1" xmlns="http://www.w3.org/2000/svg" xmlns:cc="http://creativecommons.org/ns#" xmlns:dc="http://purl.org/dc/elements/1.1/" xmlns:rdf="http://www.w3.org/1999/02/22-rdf-syntax-ns#">
 <metadata id="metadata34">
  <rdf:RDF>
   <cc:Work rdf:about="">
    <dc:format>image/svg+xml</dc:format>
    <dc:type rdf:resource="http://purl.org/dc/dcmitype/StillImage"/>
   </cc:Work>
  </rdf:RDF>
 </metadata>
 <defs id="defs7">
  <radialGradient id="gr0" cx="9" cy="10" r="11" gradientTransform="matrix(1 0 0 .72727 0 2.7273)" gradientUnits="userSpaceOnUse">
   <stop id="stop2" stop-opacity=".23529" offset="0"/>
   <stop id="stop4" stop-opacity=".54902" offset="1"/>
  </radialGradient>
 </defs>
 <path id="path9" d="m2.5 0c-1.3677 0-2.5 1.1323-2.5 2.5v6c0 1.3677 1.1323 2.5 2.5 2.5h1.5v1.5c0 1.3677 1.1323 2.5 2.5 2.5h1.5a1 1.0001 0 0 0 0.20312-0.0195c0.21908 0.5611 0.66856 1.0195 1.2969 1.0195h5c0.8137 0 1.5-0.6863 1.5-1.5v-2c0-0.6208-0.4492-1.0648-1-1.2891v-1.2109c0-0.35847-0.2181-0.63234-0.3887-0.92578a1.0001 1.0001 0 0 0 0.3887-0.79102v-1.7832c0-1.3677-1.1323-2.5-2.5-2.5h-1.5v-1.5c0-1.3677-1.1323-2.5-2.5-2.5h-6zm0 1h6c0.831 0 1.5 0.669 1.5 1.5v5.7832c-0.56591 0.3348-0.95653 0.9356-0.99023 1.623-0.15984 0.0577-0.32951 0.09375-0.50977 0.09375h-6c-0.831 0-1.5-0.669-1.5-1.5v-6c0-0.831 0.669-1.5 1.5-1.5zm1 2c-0.277 0-0.5 0.223-0.5 0.5v4c0 0.277 0.223 0.5 0.5 0.5h4c0.277 0 0.5-0.223 0.5-0.5v-4c0-0.277-0.223-0.5-0.5-0.5h-4zm0.5 1h2.5c-1.3677 0-2.5 1.1323-2.5 2.5v-2.5zm2.5 1h0.5v2h-2v-0.5c0-0.831 0.669-1.5 1.5-1.5zm4.5 0h1.5c0.831 0 1.5 0.669 1.5 1.5v1.7832c-0.2965-0.17546-0.636-0.2832-1-0.2832h-1v-0.5c0-0.277-0.223-0.5-0.5-0.5h-0.5v-2zm0 4h2c0.554 0 1 0.446 1 1v2h0.5c0.277 0 0.5 0.223 0.5 0.5v2c0 0.277-0.223 0.5-0.5 0.5h-5c-0.277 0-0.5-0.223-0.5-0.5v-2c0-0.277 0.223-0.5 0.5-0.5h0.5v-2c0-0.554 0.446-1 1-1zm0.5 1c-0.277 0-0.5 0.223-0.5 0.5v1.5h2v-1.5c0-0.277-0.223-0.5-0.5-0.5h-1zm-2.5 0.9102v0.3007c-0.0621 0.0253-0.12374 0.0431-0.18164 0.0762a1.0001 1.0001 0 0 0-0.69531-0.2871h0.37695c0.18438 0 0.33599-0.0534 0.5-0.0898zm-4 0.0898h2v0.5c0 0.277 0.223 0.5 0.5 0.5h0.61914c-0.07034 0.1522-0.11914 0.3154-0.11914 0.5v1.5h-1.5c-0.831 0-1.5-0.669-1.5-1.5v-1.5z" fill="#fff" opacity=".05"/>
 <path id="base" d="m2.5 1c-0.831 0-1.5 0.669-1.5 1.5v6c0 0.831 0.669 1.5 1.5 1.5h6c0.18026 0 0.34993-0.035967 0.50977-0.09375 0.033669-0.68745 0.42432-1.2882 0.99023-1.623v-5.7832c0-0.831-0.669-1.5-1.5-1.5h-6zm1 2h4c0.277 0 0.5 0.223 0.5 0.5v4c0 0.277-0.223 0.5-0.5 0.5h-4c-0.277 0-0.5-0.223-0.5-0.5v-4c0-0.277 0.223-0.5 0.5-0.5zm3 2c-0.831 0-1.5 0.669-1.5 1.5v0.5h2v-2h-0.5zm4.5 0v2h0.5c0.277 0 0.5 0.223 0.5 0.5v0.5h1c0.36397 0 0.70348 0.10774 1 0.2832v-1.7832c0-0.831-0.669-1.5-1.5-1.5h-1.5zm0 4c-0.554 0-1 0.446-1 1v2h-0.5c-0.277 0-0.5 0.223-0.5 0.5v2c0 0.277 0.223 0.5 0.5 0.5h5c0.277 0 0.5-0.223 0.5-0.5v-2c0-0.277-0.223-0.5-0.5-0.5h-0.5v-2c0-0.554-0.446-1-1-1h-2zm0.5 1h1c0.277 0 0.5 0.223 0.5 0.5v1.5h-2v-1.5c0-0.277 0.223-0.5 0.5-0.5zm-6.5 1v1.5c0 0.831 0.669 1.5 1.5 1.5h1.5v-1.5c0-0.18465 0.048821-0.34777 0.11914-0.5h-0.61914c-0.277 0-0.5-0.223-0.5-0.5v-0.5h-2z" fill="url(#gr0)"/>
 <path id="path15" d="m2.5 1c-0.831 0-1.5 0.669-1.5 1.5v6c0 0.831 0.669 1.5 1.5 1.5h6c0.18026 0 0.34993-0.03605 0.50977-0.09375 0.0337-0.68745 0.42432-1.2882 0.99023-1.623v-5.7832c0-0.831-0.669-1.5-1.5-1.5h-6zm0 0.5h6c0.56265 0 1 0.43735 1 1v5.5938c-0.43815 0.34777-0.73365 0.82047-0.86328 1.3809-0.04518 0.00699-0.09099 0.02539-0.13672 0.02539h-6c-0.56265 0-1-0.43735-1-1v-6c0-0.56265 0.43735-1 1-1zm1 1c-0.54535 0-1 0.45465-1 1v4c0 0.54535 0.45465 1 1 1h4c0.54535 0 1-0.45465 1-1v-4c0-0.54535-0.45465-1-1-1h-4zm0 0.5h4c0.277 0 0.5 0.223 0.5 0.5v4c0 0.277-0.223 0.5-0.5 0.5h-4c-0.277 0-0.5-0.223-0.5-0.5v-4c0-0.277 0.223-0.5 0.5-0.5zm3 2c-0.831 0-1.5 0.669-1.5 1.5v0.5h2v-2h-0.5zm4.5 0v2h0.5c0.277 0 0.5 0.223 0.5 0.5v0.5h1c0.364 0 0.7035 0.10774 1 0.2832v-1.7832c0-0.831-0.669-1.5-1.5-1.5h-1.5zm-4.5 0.5v1h-1c0-0.56265 0.43735-1 1-1zm5 0h1c0.5626 0 1 0.43735 1 1v1.1406c-0.1717-0.03998-0.3156-0.14062-0.5-0.14062h-0.5c0-0.54535-0.4546-1-1-1v-1zm-0.5 3.5c-0.554 0-1 0.446-1 1v2h-0.5c-0.277 0-0.5 0.223-0.5 0.5v2c0 0.277 0.223 0.5 0.5 0.5h5c0.277 0 0.5-0.223 0.5-0.5v-2c0-0.277-0.223-0.5-0.5-0.5h-0.5v-2c0-0.554-0.446-1-1-1h-2zm0 0.5h0.5c-0.5454 0-1 0.45465-1 1v-0.5c0-0.28565 0.2144-0.5 0.5-0.5zm1.5 0h0.5c0.2856 0 0.5 0.21435 0.5 0.5v0.5c0-0.54535-0.4546-1-1-1zm-1 0.5h1c0.277 0 0.5 0.223 0.5 0.5v1.5h-2v-1.5c0-0.277 0.223-0.5 0.5-0.5zm-6.5 1v1.5c0 0.831 0.669 1.5 1.5 1.5h1.5v-1.5c0-0.1846 0.0488-0.3478 0.11914-0.5h-0.61914c-0.277 0-0.5-0.223-0.5-0.5v-0.5h-2zm0.5 0.5h1c0 0.5454 0.45465 1 1 1v1h-1c-0.56265 0-1-0.4374-1-1v-1zm5 0.5a0.50005 0.50005 0 0 0 0.5 0.5h2a0.50005 0.50005 0 0 0 0.5-0.5 0.50005 0.50005 0 0 0 0.5 0.5h0.5v2h-5v-2h0.5a0.50005 0.50005 0 0 0 0.5-0.5z" opacity=".3"/>
 <path id="path20" d="m3.5 3c-0.277 0-0.5 0.223-0.5 0.5v1c0-0.277 0.223-0.5 0.5-0.5h4c0.277 0 0.5 0.223 0.5 0.5v-1c0-0.277-0.223-0.5-0.5-0.5h-4zm1.5918 4c-0.05566 0.15722-0.0918 0.32324-0.0918 0.5v0.5h2v-1h-1.9082zm5.9082 0v1h0.5c0.277 0 0.5 0.223 0.5 0.5v0.5h1c0.364 0 0.7035 0.10774 1 0.2832v-1c-0.2965-0.17546-0.636-0.2832-1-0.2832h-1v-0.5c0-0.277-0.223-0.5-0.5-0.5h-0.5zm-1 1.2832c-0.56591 0.3348-0.95653 0.9356-0.99023 1.623-0.15984 0.0577-0.32951 0.09375-0.50977 0.09375h-6c-0.831 0-1.5-0.669-1.5-1.5v1c0 0.831 0.669 1.5 1.5 1.5h2.5 2 1.5c0.18026 0 0.34993-0.0358 0.50977-0.0938 0.0337-0.6874 0.42432-1.2882 0.99023-1.623v-1zm1.5 1.7168c-0.277 0-0.5 0.223-0.5 0.5v1c0-0.277 0.223-0.5 0.5-0.5h1c0.277 0 0.5 0.223 0.5 0.5v-1c0-0.277-0.223-0.5-0.5-0.5h-1zm-6.5 2.5v1c0 0.831 0.669 1.5 1.5 1.5h1.5v-1h-1.5c-0.831 0-1.5-0.669-1.5-1.5zm3 0.5v0.5c0-0.1846 0.0488-0.3478 0.11914-0.5h-0.11914zm1 1.5v1c0 0.277 0.223 0.5 0.5 0.5h5c0.277 0 0.5-0.223 0.5-0.5v-1c0 0.277-0.223 0.5-0.5 0.5h-5c-0.277 0-0.5-0.223-0.5-0.5z" fill="#fff" opacity=".2"/>
 <path id="path25" d="m2.5 1c-0.831 0-1.5 0.669-1.5 1.5v1c0-0.831 0.669-1.5 1.5-1.5h6c0.831 0 1.5 0.669 1.5 1.5v-1c0-0.831-0.669-1.5-1.5-1.5h-6zm4 4c-0.831 0-1.5 0.669-1.5 1.5v0.5h0.0918c0.206-0.58192 0.75396-1 1.4082-1h0.5v-1h-0.5zm4.5 0v1h1.5c0.831 0 1.5 0.669 1.5 1.5v-1c0-0.831-0.669-1.5-1.5-1.5h-1.5zm-8 2.5v1c0 0.277 0.223 0.5 0.5 0.5h4c0.277 0 0.5-0.223 0.5-0.5v-1c0 0.277-0.223 0.5-0.5 0.5h-0.5-2-1.5c-0.277 0-0.5-0.223-0.5-0.5zm8 1.5c-0.554 0-1 0.446-1 1v1c0-0.554 0.446-1 1-1h0.5 1 0.5c0.554 0 1 0.446 1 1v-1c0-0.554-0.446-1-1-1h-1-1zm-6 2v1h2v0.5c0 0.277 0.223 0.5 0.5 0.5h0.5v-0.5c0-0.1846 0.0488-0.3478 0.11914-0.5h-0.61914c-0.277 0-0.5-0.223-0.5-0.5v-0.5h-2zm4.5 1c-0.277 0-0.5 0.223-0.5 0.5v1c0-0.277 0.223-0.5 0.5-0.5h0.5v-1h-0.5zm1.5 0v1h2v-1h-2zm3 0v1h0.5c0.277 0 0.5 0.223 0.5 0.5v-1c0-0.277-0.223-0.5-0.5-0.5h-0.5z" opacity=".3"/>
</svg>
