<?xml version="1.0" encoding="UTF-8"?>
<svg id="svg30" width="16" height="16" version="1.1" xmlns="http://www.w3.org/2000/svg" xmlns:cc="http://creativecommons.org/ns#" xmlns:dc="http://purl.org/dc/elements/1.1/" xmlns:rdf="http://www.w3.org/1999/02/22-rdf-syntax-ns#">
 <metadata id="metadata34">
  <rdf:RDF>
   <cc:Work rdf:about="">
    <dc:format>image/svg+xml</dc:format>
    <dc:type rdf:resource="http://purl.org/dc/dcmitype/StillImage"/>
   </cc:Work>
  </rdf:RDF>
 </metadata>
 <defs id="defs7">
  <radialGradient id="gr0" cx="9" cy="10" r="11" gradientTransform="matrix(1 0 0 .54545 0 4.5455)" gradientUnits="userSpaceOnUse">
   <stop id="stop2" stop-opacity=".23529" offset="0"/>
   <stop id="stop4" stop-opacity=".54902" offset="1"/>
  </radialGradient>
 </defs>
 <path id="path9" d="m8.5898 2c-1.6451-0.00699-3.2351 0.64468-4.6172 1.6856l-1.0684-1.1094a1 1.0001 0 0 0-1.7051 0.51953l-1.1836 6.7305a1.0001 1.0001 0 0 0 1.1699 1.1562l5.8144-1.0957v1.1153c0 1.0906 0.9105 1.998 2 1.998h2c1.0892 0 2-0.9074 2-1.998 0-0.5204-0.2277-0.9851-0.5625-1.3438a1.0001 1.0001 0 0 0 0.1855-0.02929l2.6446-0.73047a1.0001 1.0001 0 0 0 0.6914-1.248c-0.356-1.2086-0.9956-2.3576-1.9238-3.3184-1.4899-1.5424-3.4685-2.3236-5.4434-2.332a1.0001 1.0001 0 0 0-0.00196 0zm-0.0039 1c1.7171 0.0073 3.4295 0.67984 4.7305 2.0273 0.8111 0.8394 1.3706 1.8438 1.6836 2.9062l-2.6426 0.73047c-0.1931-0.5826-0.5161-1.1292-0.9648-1.5938-1.5472-1.6018-4.0411-1.6322-5.627-0.08984l1.7344 1.7949-6.5 1.2246 1.1836-6.7305 1.6328 1.6934c1.3289-1.3114 3.0522-1.9699 4.7695-1.9629zm0.41406 4c0.554 0 1 0.44465 1 0.99805v2.004h1c0.554 0 1 0.4466 1 1 0 0.5533-0.446 0.998-1 0.998h-2c-0.554 0-1-0.445-1-0.998v-3.004c0-0.5533 0.446-0.99805 1-0.99805zm2 1.3047c0.1421 0.22342 0.3264 0.42715 0.4082 0.67383a1.0001 1.0001 0 0 0 0.1211 0.24609c-0.1872-0.05928-0.3244-0.22266-0.5293-0.22266v-0.69726z" fill="#fff" opacity=".05"/>
 <path id="base" d="m8.5859 3c-1.7173-0.0073-3.4406 0.6515-4.7695 1.9629l-1.6328-1.6934-1.1836 6.7305 6.5-1.2246-1.7344-1.7949c1.5859-1.5424 4.0798-1.512 5.627 0.089844 0.44873 0.4646 0.77166 1.0112 0.96484 1.5938l2.643-0.7305c-0.313-1.0625-0.87259-2.0668-1.6836-2.9062-1.301-1.3475-3.013-2.0201-4.7301-2.0274zm0.4141 4c-0.554 0-1 0.4447-1 0.998v3.004c0 0.553 0.446 0.998 1 0.998h2c0.554 0 1-0.44475 1-0.99805 0-0.5534-0.446-1-1-1h-1v-2.0039c0-0.5534-0.446-0.9981-1-0.9981z" fill="url(#gr0)"/>
 <path id="path15" d="m8.5859 3c-1.7173-7e-3 -3.4406 0.65149-4.7695 1.9629l-1.6328-1.6934-1.1836 6.7305 6.5-1.2246-1.7344-1.7949c1.5859-1.5424 4.0798-1.512 5.627 0.08984 0.4487 0.4646 0.7717 1.0112 0.9648 1.5938l2.6426-0.73047c-0.313-1.0625-0.8725-2.0668-1.6836-2.9062-1.301-1.3475-3.0134-2.02-4.7305-2.0273zm-0.00196 0.5c1.5879 0.00675 3.1665 0.62537 4.373 1.875 0.6279 0.64989 1.0569 1.4189 1.3633 2.2266l-1.7441 0.48242c-0.2175-0.4811-0.4414-0.9649-0.8242-1.3613-1.7316-1.7927-4.558-1.8289-6.334-0.10157a0.50005 0.50005 0 0 0-0.01172 0.70703l1.0898 1.127-4.8789 0.91992 0.88867-5.0508 0.95117 0.98633a0.50005 0.50005 0 0 0 0.71094 0.00781c1.2347-1.2184 2.828-1.8251 4.416-1.8184zm0.41602 3.5c-0.554 0-1 0.44475-1 0.99805v3.004c0 0.553 0.446 0.998 1 0.998h2c0.554 0 1-0.4447 1-0.998 0-0.5534-0.446-1-1-1h-1v-2.004c0-0.5534-0.446-0.99805-1-0.99805zm0 0.5c0.28643 0 0.5 0.21329 0.5 0.49805v2.004a0.50005 0.50005 0 0 0 0.5 0.5h1c0.2853 0 0.5 0.2152 0.5 0.5 0 0.2846-0.2136 0.498-0.5 0.498h-2c-0.28625 0-0.5-0.2139-0.5-0.498v-3.004c0-0.28461 0.21357-0.49805 0.5-0.49805z" opacity=".3"/>
 <path id="path20" d="m8.5938 5.8457c-1.0151-0.01502-2.0352 0.36357-2.8281 1.1348l0.54688 0.56445c1.5703-1.0727 3.7-0.90336 5.0801 0.52539 0.4487 0.4646 0.7717 1.0112 0.9648 1.5938l2.6426-0.73047c-0.0909-0.30846-0.2092-0.6102-0.3418-0.90625l-2.3008 0.63672c-0.1931-0.5826-0.5161-1.1292-0.9648-1.5938-0.7736-0.8009-1.7837-1.2096-2.7988-1.2246zm-1.9121 3.084-5.5 1.0352-0.18164 1.0352 6.5-1.2246-0.81836-0.8457zm1.3184 2.0723v1c0 0.553 0.446 0.998 1 0.998h2c0.554 0 1-0.4447 1-0.998 0-0.1862-0.0643-0.351-0.1523-0.5-0.1739 0.2929-0.4804 0.498-0.8477 0.498h-2c-0.554 0-1-0.445-1-0.998z" fill="#fff" opacity=".2"/>
 <path id="path25" d="m8.5859 3c-1.7173-7e-3 -3.4406 0.65149-4.7695 1.9629l-1.6328-1.6934-1.1836 6.7305 0.18164-0.03516 1.002-5.6953 1.6328 1.6934c1.3289-1.3114 3.0522-1.9699 4.7695-1.9629 1.7171 0.0073 3.4295 0.67984 4.7305 2.0273 0.5756 0.59571 1.0178 1.2763 1.3418 2l0.3418-0.09375c-0.313-1.0625-0.8725-2.0668-1.6836-2.9062-1.301-1.3475-3.0134-2.02-4.7305-2.0273zm0.41406 4c-0.554 0-1 0.44475-1 0.99805v1c0-0.5533 0.446-0.99805 1-0.99805s1 0.44465 1 0.99805v-1c0-0.5534-0.446-0.99805-1-0.99805zm-2.6875 0.54492c-0.19018 0.12992-0.37555 0.26892-0.54688 0.43555l0.91602 0.94922 0.81836-0.1543-1.1875-1.2305zm3.6875 2.4571v1h1c0.3676 0 0.6739 0.2059 0.8477 0.5 0.0884-0.149 0.1523-0.3135 0.1523-0.5 0-0.5534-0.446-1-1-1h-1z" opacity=".3"/>
</svg>
