<?xml version="1.0" encoding="UTF-8"?>
<svg id="svg30" width="16" height="16" version="1.1" xmlns="http://www.w3.org/2000/svg" xmlns:cc="http://creativecommons.org/ns#" xmlns:dc="http://purl.org/dc/elements/1.1/" xmlns:rdf="http://www.w3.org/1999/02/22-rdf-syntax-ns#">
 <metadata id="metadata34">
  <rdf:RDF>
   <cc:Work rdf:about="">
    <dc:format>image/svg+xml</dc:format>
    <dc:type rdf:resource="http://purl.org/dc/dcmitype/StillImage"/>
   </cc:Work>
  </rdf:RDF>
 </metadata>
 <defs id="defs7">
  <radialGradient id="gr0" cx="9" cy="10" r="11" gradientTransform="matrix(1 0 0 .72727 0 2.7273)" gradientUnits="userSpaceOnUse">
   <stop id="stop2" stop-opacity=".23529" offset="0"/>
   <stop id="stop4" stop-opacity=".54902" offset="1"/>
  </radialGradient>
 </defs>
 <path id="path9" d="m2.5 0c-1.3677 0-2.5 1.1323-2.5 2.5v4c0 1.2543 0.99422 2.2123 2.207 2.3789l-0.41406 0.41406a1 1.0001 0 0 0 0.70703 1.707h0.5v2a1.0001 1.0001 0 0 0 1 1h3a1.0001 1.0001 0 0 0 0.19922-0.0195h0.00195c0.25216 1.1115 1.1175 2.0195 2.2988 2.0195h2.5 1.5c1.3677 0 2.5-1.1323 2.5-2.5v-4c0-1.2543-0.9942-2.2123-2.207-2.3789l0.414-0.41406a1.0001 1.0001 0 0 0-0.707-1.707h-0.5v-2a1.0001 1.0001 0 0 0-1-1h-3a1.0001 1.0001 0 0 0-0.19922 0.01953h-0.00195c-0.25216-1.1115-1.1175-2.0195-2.2988-2.0195h-4zm0 1h4c0.831 0 1.5 0.669 1.5 1.5v4c0 0.831-0.669 1.5-1.5 1.5h-1.5-0.5l2 2h-1.5v2h2v1h-3v-3h-1.5l2-2h-2c-0.831 0-1.5-0.669-1.5-1.5v-4c0-0.831 0.669-1.5 1.5-1.5zm1 2c-0.277 0-0.5 0.223-0.5 0.5v2c0 0.277 0.223 0.5 0.5 0.5h2c0.277 0 0.5-0.223 0.5-0.5v-2c0-0.277-0.223-0.5-0.5-0.5h-2zm5.5 0h3v3h1.5l-2 2h2c0.831 0 1.5 0.669 1.5 1.5v4c0 0.831-0.669 1.5-1.5 1.5h-1.5-2.5c-0.831 0-1.5-0.669-1.5-1.5v-4c0-0.831 0.669-1.5 1.5-1.5h2l-2-2h1.5v-2h-2v-1zm-5 1h1v1h-1v-1zm5 1h0.5a1.0001 1.0001 0 0 0-0.5 0.13672v-0.13672zm-0.12109 1.793 0.32812 0.32812c-0.21172 0.02908-0.37229 0.15671-0.56445 0.23633 0.07962-0.19216 0.20725-0.35273 0.23633-0.56445zm-1.5215 1.8496c-0.07962 0.19216-0.20725 0.35273-0.23633 0.56445l-0.32812-0.32812c0.21172-0.02908 0.37229-0.15671 0.56445-0.23633zm3.1426 1.3574c-0.277 0-0.5 0.223-0.5 0.5v2c0 0.277 0.223 0.5 0.5 0.5h2c0.277 0 0.5-0.223 0.5-0.5v-2c0-0.277-0.223-0.5-0.5-0.5h-2zm-3.5 0.8633v0.1367h-0.5a1.0001 1.0001 0 0 0 0.5-0.1367zm4 0.1367h1v1h-1v-1z" fill="#fff" opacity=".05"/>
 <path id="base" d="m2.5 1c-0.831 0-1.5 0.669-1.5 1.5v4c0 0.831 0.669 1.5 1.5 1.5h4c0.831 0 1.5-0.669 1.5-1.5v-4c0-0.831-0.669-1.5-1.5-1.5h-4zm2 7-2 2h1.5v3h3v-1h-2v-2h1.5l-2-2zm-1-5h2c0.277 0 0.5 0.223 0.5 0.5v2c0 0.277-0.223 0.5-0.5 0.5h-2c-0.277 0-0.5-0.223-0.5-0.5v-2c0-0.277 0.223-0.5 0.5-0.5zm5.5 0v1h2v2h-1.5l2 2 2-2h-1.5v-3h-3zm2.5 5h-2c-0.831 0-1.5 0.669-1.5 1.5v4c0 0.831 0.669 1.5 1.5 1.5h4c0.831 0 1.5-0.669 1.5-1.5v-4c0-0.831-0.669-1.5-1.5-1.5h-2zm-1 2h2c0.277 0 0.5 0.223 0.5 0.5v2c0 0.277-0.223 0.5-0.5 0.5h-2c-0.277 0-0.5-0.223-0.5-0.5v-2c0-0.277 0.223-0.5 0.5-0.5z" fill="url(#gr0)"/>
 <path id="path15" d="m2.5 1c-0.831 0-1.5 0.669-1.5 1.5v4c0 0.831 0.669 1.5 1.5 1.5h2 0.5 1.5c0.831 0 1.5-0.669 1.5-1.5v-4c0-0.831-0.669-1.5-1.5-1.5h-4zm2 7-2 2h1.5v3h3v-1h-2v-2h1.5l-2-2zm-2-6.5h4c0.56265 0 1 0.43735 1 1v4c0 0.56265-0.43735 1-1 1h-1.5-0.5-2c-0.56265 0-1-0.43735-1-1v-4c0-0.56265 0.43735-1 1-1zm1 1c-0.54535 0-1 0.45465-1 1v2c0 0.54535 0.45465 1 1 1h2c0.54535 0 1-0.45465 1-1v-2c0-0.54535-0.45465-1-1-1h-2zm0 0.5h2c0.277 0 0.5 0.223 0.5 0.5v2c0 0.277-0.223 0.5-0.5 0.5h-2c-0.277 0-0.5-0.223-0.5-0.5v-2c0-0.277 0.223-0.5 0.5-0.5zm5.5 0v1h2v2h-1.5l2 2 2-2h-1.5v-3h-3zm2.5 5h-2c-0.831 0-1.5 0.669-1.5 1.5v4c0 0.831 0.669 1.5 1.5 1.5h2.5 1.5c0.831 0 1.5-0.669 1.5-1.5v-4c0-0.831-0.669-1.5-1.5-1.5h-2zm-0.5-4.5h0.5v0.5a0.50005 0.50005 0 0 0-0.5-0.5zm0.5 2.5a0.50005 0.50005 0 0 0 0.5 0.5h0.293l-0.793 0.79297-0.793-0.79297h0.293a0.50005 0.50005 0 0 0 0.5-0.5zm-2 2.5h2 2c0.5626 0 1 0.43735 1 1v4c0 0.5626-0.4374 1-1 1h-1.5-2.5c-0.56265 0-1-0.4374-1-1v-4c0-0.56265 0.43735-1 1-1zm-5 0.20703 0.79297 0.79297h-0.29297a0.50005 0.50005 0 0 0-0.5 0.5 0.50005 0.50005 0 0 0-0.5-0.5h-0.29297l0.79297-0.79297zm6 0.79297c-0.54535 0-1 0.45465-1 1v2c0 0.5454 0.45465 1 1 1h2c0.5454 0 1-0.4546 1-1v-2c0-0.54535-0.4546-1-1-1h-2zm0 0.5h2c0.277 0 0.5 0.223 0.5 0.5v2c0 0.277-0.223 0.5-0.5 0.5h-2c-0.277 0-0.5-0.223-0.5-0.5v-2c0-0.277 0.223-0.5 0.5-0.5zm-6 2a0.50005 0.50005 0 0 0 0.5 0.5h-0.5v-0.5z" opacity=".3"/>
 <path id="path20" d="m3.5 3c-0.277 0-0.5 0.223-0.5 0.5v1c0-0.277 0.223-0.5 0.5-0.5h2c0.277 0 0.5 0.223 0.5 0.5v-1c0-0.277-0.223-0.5-0.5-0.5h-2zm5.5 1v1h2v-1h-2zm-8 2.5v1c0 0.831 0.669 1.5 1.5 1.5h1l1-1h-2c-0.831 0-1.5-0.669-1.5-1.5zm3.5 1.5 1 1h1c0.831 0 1.5-0.669 1.5-1.5v-1c0 0.831-0.669 1.5-1.5 1.5h-1.5-0.5zm5-1 1 1h1l-1-1h-1zm2 1h1l1-1h-1l-1 1zm-8 2-1 1h1.5v-1h-0.5zm1.5 0v1h1.5l-1-1h-0.5zm5.5 0c-0.277 0-0.5 0.223-0.5 0.5v1c0-0.277 0.223-0.5 0.5-0.5h2c0.277 0 0.5 0.223 0.5 0.5v-1c0-0.277-0.223-0.5-0.5-0.5h-2zm-6.5 3v1h3v-1h-2-1zm4 0.5v1c0 0.831 0.669 1.5 1.5 1.5h2.5 1.5c0.831 0 1.5-0.669 1.5-1.5v-1c0 0.831-0.669 1.5-1.5 1.5h-1.5-2.5c-0.831 0-1.5-0.669-1.5-1.5z" fill="#fff" opacity=".2"/>
 <path id="path25" d="m2.5 1c-0.831 0-1.5 0.669-1.5 1.5v1c0-0.831 0.669-1.5 1.5-1.5h4c0.831 0 1.5 0.669 1.5 1.5v-1c0-0.831-0.669-1.5-1.5-1.5h-4zm6.5 2v1h2 1v-1h-3zm-6 2.5v1c0 0.277 0.223 0.5 0.5 0.5h2c0.277 0 0.5-0.223 0.5-0.5v-1c0 0.277-0.223 0.5-0.5 0.5h-2c-0.277 0-0.5-0.223-0.5-0.5zm6.5 0.5 1 1h0.5v-1h-1.5zm2.5 0v1h0.5l1-1h-1.5zm-2.5 2c-0.831 0-1.5 0.669-1.5 1.5v1c0-0.831 0.669-1.5 1.5-1.5h2l-1-1h-1zm2 1h2c0.831 0 1.5 0.669 1.5 1.5v-1c0-0.831-0.669-1.5-1.5-1.5h-1l-1 1zm-8 0-1 1h1l1-1h-1zm1 0 1 1h1l-1-1h-0.5-0.5zm0.5 3v1h2v-1h-2zm5 0.5v1c0 0.277 0.223 0.5 0.5 0.5h2c0.277 0 0.5-0.223 0.5-0.5v-1c0 0.277-0.223 0.5-0.5 0.5h-2c-0.277 0-0.5-0.223-0.5-0.5z" opacity=".3"/>
</svg>
