<?xml version="1.0" encoding="UTF-8"?>
<svg id="svg30" width="16" height="16" version="1.1" xmlns="http://www.w3.org/2000/svg" xmlns:cc="http://creativecommons.org/ns#" xmlns:dc="http://purl.org/dc/elements/1.1/" xmlns:rdf="http://www.w3.org/1999/02/22-rdf-syntax-ns#">
 <metadata id="metadata34">
  <rdf:RDF>
   <cc:Work rdf:about="">
    <dc:format>image/svg+xml</dc:format>
    <dc:type rdf:resource="http://purl.org/dc/dcmitype/StillImage"/>
   </cc:Work>
  </rdf:RDF>
 </metadata>
 <defs id="defs7">
  <radialGradient id="gr0" cx="9" cy="10" r="11" gradientTransform="matrix(1 0 0 .72727 0 2.7273)" gradientUnits="userSpaceOnUse">
   <stop id="stop2" stop-opacity=".23529" offset="0"/>
   <stop id="stop4" stop-opacity=".54902" offset="1"/>
  </radialGradient>
 </defs>
 <path id="path9" d="m3 0c-0.81821-1.0931e-16 -1.3964 0.58073-1.7031 1.2969-0.71615 0.30674-1.2969 0.88491-1.2969 1.7031v5c-1.4572e-16 1.0907 0.9093 2 2 2h3v4c0 1.0907 0.9093 2 2 2h7c1.0907 0 2-0.9093 2-2v-5c0-1.0907-0.9093-2-2-2h-1-1.4199c-0.174-0.27328-0.3687-0.44345-0.6485-0.60742a1 1.0001 0 0 0 0.0684-0.36133v-3.0312c0-1.0907-0.9093-2-2-2h-1-1.4199c-0.35725-0.56123-0.8766-1-1.5801-1h-2zm0 1h2c0.554 0 1 0.446 1 1h2 1c0.554 0 1 0.446 1 1v3.0312h-2c-0.8015 0-1.3892 0.57895-1.6875 1.2812-0.7023 0.2983-1.2812 0.886-1.2812 1.6875h-3.0312c-0.554 0-1-0.446-1-1v-5c0-0.554 0.446-1 1-1 0-0.554 0.446-1 1-1zm5 6h2c0.554 0 1 0.446 1 1h2 1c0.554 0 1 0.446 1 1v5c0 0.554-0.446 1-1 1h-7c-0.554 0-1-0.446-1-1v-5c0-0.554 0.446-1 1-1 0-0.554 0.446-1 1-1z" fill="#fff" opacity=".05"/>
 <path id="base" d="m3 1c-0.554 0-1 0.446-1 1-0.554 0-1 0.446-1 1v5c0 0.554 0.446 1 1 1h3.0312c0-0.8015 0.579-1.3892 1.2813-1.6875 0.2983-0.7023 0.886-1.2813 1.6875-1.2813h2v-3.0312c0-0.554-0.446-1-1-1h-3c0-0.554-0.446-1-1-1h-2zm5 6c-0.554 0-1 0.446-1 1-0.554 0-1 0.446-1 1v5c0 0.554 0.446 1 1 1h7c0.554 0 1-0.446 1-1v-5c0-0.554-0.446-1-1-1h-3c0-0.554-0.446-1-1-1h-2z" fill="url(#gr0)"/>
 <path id="path15" d="m3 1c-0.554 0-1 0.446-1 1-0.554 0-1 0.446-1 1v5c0 0.554 0.446 1 1 1h3.0312c0-0.8015 0.57895-1.3892 1.2812-1.6875 0.2983-0.7023 0.886-1.2812 1.6875-1.2812h2v-3.0312c0-0.554-0.446-1-1-1h-1-2c0-0.554-0.446-1-1-1h-2zm0 0.5h2c0.28565 0 0.5 0.21435 0.5 0.5a0.50005 0.50005 0 0 0 0.5 0.5h2 1c0.28565 0 0.5 0.21435 0.5 0.5v2.5312h-1.5c-0.97022 0-1.6563 0.67441-2.0352 1.4336-0.61888 0.30884-1.1615 0.8222-1.3438 1.5352h-2.6211c-0.28565 0-0.5-0.21435-0.5-0.5v-5c0-0.28565 0.21435-0.5 0.5-0.5a0.50005 0.50005 0 0 0 0.5-0.5c0-0.28565 0.21435-0.5 0.5-0.5zm5 5.5c-0.554 0-1 0.446-1 1-0.554 0-1 0.446-1 1v5c0 0.554 0.446 1 1 1h7c0.554 0 1-0.446 1-1v-5c0-0.554-0.446-1-1-1h-1-2c0-0.554-0.446-1-1-1h-2zm0 0.5h2c0.2856 0 0.5 0.21435 0.5 0.5a0.50005 0.50005 0 0 0 0.5 0.5h2 1c0.2856 0 0.5 0.21435 0.5 0.5v5c0 0.2856-0.2144 0.5-0.5 0.5h-7c-0.28565 0-0.5-0.2144-0.5-0.5v-5c0-0.28565 0.21435-0.5 0.5-0.5a0.50005 0.50005 0 0 0 0.5-0.5c0-0.28565 0.21435-0.5 0.5-0.5z" opacity=".3"/>
 <path id="path20" d="m8 6.0312c-0.8015 0-1.3892 0.57895-1.6875 1.2812-0.7023 0.2983-1.2812 0.886-1.2812 1.6875h-3.0312c-0.554 0-1-0.446-1-1v1c0 0.554 0.446 1 1 1h3.0312c0-0.78023 0.55153-1.3529 1.2285-1.6582 0.02621-0.02952 0.05251-0.05582 0.08203-0.08203 0.24903-0.55225 0.67635-1.0166 1.25-1.1699 0.03078-0.01377 0.0653-0.01668 0.09765-0.02734 0.01115-0.00221 0.02196-0.00584 0.03321-0.00781 0.08959-0.02619 0.17906-0.05469 0.27734-0.05469h2v-0.96875h-2zm-2 7.9688v1c0 0.554 0.446 1 1 1h7c0.554 0 1-0.446 1-1v-1c0 0.554-0.446 1-1 1h-7c-0.554 0-1-0.446-1-1z" fill="#fff" opacity=".2"/>
 <path id="path25" d="m3 1c-0.554 0-1 0.446-1 1-0.554 0-1 0.446-1 1v1c0-0.554 0.446-1 1-1 0-0.554 0.446-1 1-1h2c0.554 0 1 0.446 1 1h2 1c0.554 0 1 0.446 1 1v-1c0-0.554-0.446-1-1-1h-1-2c0-0.554-0.446-1-1-1h-2zm7 6v0.03125h-2c-0.09546 0-0.18808 0.00778-0.27734 0.02344-0.01081 0.00316-0.02256 0.0043-0.03321 0.00781-0.03362 0.00666-0.06496 0.01861-0.09765 0.02734-0.34859 0.15592-0.5918 0.50231-0.5918 0.91016-0.25562 0-0.48177 0.10307-0.6582 0.25977-0.00832 0.01845-0.02138 0.03409-0.0293 0.05273-0.01864 0.00792-0.03428 0.02098-0.05273 0.0293-0.1567 0.17643-0.25977 0.40258-0.25977 0.6582v1c0-0.554 0.446-1 1-1 0-0.554 0.446-1 1-1h2c0.554 0 1 0.446 1 1h2 1c0.554 0 1 0.446 1 1v-1c0-0.554-0.446-1-1-1h-1-2c0-0.554-0.446-1-1-1z" opacity=".3"/>
</svg>
