<?xml version="1.0" encoding="UTF-8"?>
<svg id="svg30" width="16" height="16" version="1.1" xmlns="http://www.w3.org/2000/svg" xmlns:cc="http://creativecommons.org/ns#" xmlns:dc="http://purl.org/dc/elements/1.1/" xmlns:rdf="http://www.w3.org/1999/02/22-rdf-syntax-ns#">
 <metadata id="metadata34">
  <rdf:RDF>
   <cc:Work rdf:about="">
    <dc:format>image/svg+xml</dc:format>
    <dc:type rdf:resource="http://purl.org/dc/dcmitype/StillImage"/>
   </cc:Work>
  </rdf:RDF>
 </metadata>
 <defs id="defs7">
  <radialGradient id="gr0" cx="9" cy="10" r="11" gradientTransform="matrix(1 0 0 .72727 0 2.7273)" gradientUnits="userSpaceOnUse">
   <stop id="stop2" stop-opacity=".23529" offset="0"/>
   <stop id="stop4" stop-opacity=".54902" offset="1"/>
  </radialGradient>
 </defs>
 <path id="path9" d="m2 0c-1.0907-1.4572e-16 -2 0.9093-2 2v13a1 1.0001 0 0 0 1 1h2 12a1.0001 1.0001 0 0 0 1-1v-13c0-1.0907-0.9093-2-2-2h-12zm0 1h12c0.554 0 1 0.446 1 1v13h-12-2v-13c0-0.554 0.446-1 1-1zm6 1v1h1v-1h-1zm2 0v1h1v-1h-1zm2 0v1h1v-1h-1zm-9 2v9h10v-9h-10zm1 1h3.9707 4.0293v3.5918c0-1.0877-0.3081-2.0942-1.0684-2.7402v-0.00195c-0.7554-0.64872-1.7674-0.84961-2.9609-0.84961-0.45036 0-0.9007 0.02772-1.3516 0.08398-0.44616 0.05218-0.88916 0.13145-1.3281 0.23438a1.0001 1.0001 0 0 0-0.77149 0.97266v1.3926a1.0001 1.0001 0 0 0 0.22461 0.63282c-0.44017 0.50777-0.74414 1.1363-0.74414 1.8223 0 0.6978 0.33781 1.3478 0.80273 1.8613h-0.80273v-1.8613-5.1387zm3.9707 1c1.0697 0 1.8416 0.20323 2.3145 0.61133 0.477 0.4048 0.7148 1.0656 0.7148 1.9805v3.4082h-1.9121v-0.9941c-0.2544 0.347-0.53972 0.5987-0.85742 0.7597-0.3177 0.156-0.70466 0.2344-1.1602 0.2344-0.6142 0-1.1132-0.1716-1.498-0.5156-0.3813-0.346-0.57227-0.7947-0.57227-1.3457 0-0.67043 0.23824-1.1617 0.71484-1.4746 0.4802-0.313 1.2321-0.4707 2.2559-0.4707h1.1172v-0.14258c0-0.2892-0.11887-0.50021-0.35547-0.63281-0.2365-0.136-0.60417-0.20313-1.1055-0.20313-0.406 0-0.78321 0.03899-1.1328 0.11719-0.3495 0.0783-0.67451 0.19516-0.97461 0.35156v-1.3926c0.406-0.0952 0.81316-0.16725 1.2227-0.21485 0.4095-0.0511 0.81901-0.07617 1.2285-0.07617zm0.13282 3.2812c-0.3954 0-0.69334 0.06416-0.89454 0.19336-0.1977 0.1292-0.29687 0.32047-0.29687 0.57229 0 0.231 0.07938 0.4119 0.23828 0.5449 0.1624 0.129 0.38588 0.1934 0.67188 0.1934 0.3565 0 0.65679-0.1222 0.90039-0.3672 0.2435-0.248 0.36523-0.55697 0.36523-0.92777v-0.20898h-0.98437z" fill="#fff" opacity=".05"/>
 <path id="base" d="m2 1c-.554 0-1 .4460-1 1v13h2 12v-13c0-.5540-.446-1-1-1h-12zm6 1h1v1h-1v-1zm2 0h1v1h-1v-1zm2 0h1v1h-1v-1zm-9 2h10v9h-10v-9zm4.9707 2c-.4095 0-.8190.0251-1.2285.0762-.4095.0476-.8167.1196-1.2227.2148v1.3926c.3001-.1564.6251-.2733.9746-.3516.3496-.0782.7269-.1172 1.1329-.1172.5013 0 .8689.0672 1.1054.2032.2366.1326.3555.3436.3555.6328v.1426h-1.1172c-1.0238 0-1.7757.1577-2.2559.4707-.4766.3129-.7148.8045-.7148 1.4749 0 .551.1910.999.5723 1.345.3848.344.8838.516 1.498.516.4555 0 .8425-.078 1.1602-.234.3177-.161.6030-.413.8574-.760v.994h1.9121v-3.4082c0-.9149-.238-1.5757-.715-1.9805-.4729-.4081-1.2446-.6113-2.3143-.6113zm.1328 3.2812h.9844v.2090c0 .3708-.1217.6798-.3652.9278-.2436.245-.5439.367-.9004.367-.2860 0-.5095-.064-.6719-.193-.1589-.133-.2383-.314-.2383-.545 0-.2518.0992-.4432.2969-.5724.2012-.1292.4991-.1934.8945-.1934z" fill="url(#gr0)"/>
 <path id="path15" d="m2 1c-0.554 0-1 0.446-1 1v13h2 12v-13c0-0.554-0.446-1-1-1h-12zm0 0.5h6a0.50005 0.50005 0 0 0-0.5 0.5v1a0.50005 0.50005 0 0 0 0.5 0.5h-5a0.50005 0.50005 0 0 0-0.5 0.5v9a0.50005 0.50005 0 0 0 0.5 0.5h10a0.50005 0.50005 0 0 0 0.5-0.5v-9a0.50005 0.50005 0 0 0-0.5-0.5 0.50005 0.50005 0 0 0 0.5-0.5v-1a0.50005 0.50005 0 0 0-0.5-0.5h1c0.2856 0 0.5 0.21435 0.5 0.5v12.5h-11.5-1.5v-12.5c0-0.28565 0.21435-0.5 0.5-0.5zm7 0h1a0.50005 0.50005 0 0 0-0.5 0.5 0.50005 0.50005 0 0 0-0.5-0.5zm2 0h1a0.50005 0.50005 0 0 0-0.5 0.5 0.50005 0.50005 0 0 0-0.5-0.5zm-3 0.5h1v1h-1v-1zm2 0h1v1h-1v-1zm2 0h1v1h-1v-1zm-2.5 1a0.50005 0.50005 0 0 0 0.5 0.5h-1a0.50005 0.50005 0 0 0 0.5-0.5zm2 0a0.50005 0.50005 0 0 0 0.5 0.5h-1a0.50005 0.50005 0 0 0 0.5-0.5zm-8.5 1h10v9h-10v-9zm4.9707 2c-0.4095 0-0.81901 0.02507-1.2285 0.07617-0.4095 0.0476-0.81666 0.11965-1.2227 0.21485v1.3926c0.3001-0.1564 0.62511-0.27326 0.97461-0.35156 0.3496-0.0782 0.72681-0.11719 1.1328-0.11719 0.5013 0 0.86897 0.06713 1.1055 0.20313 0.2366 0.1326 0.35547 0.34361 0.35547 0.63281v0.14258h-1.1172c-1.0238 0-1.7757 0.1577-2.2559 0.4707-0.4766 0.3129-0.71484 0.80421-0.71484 1.4746 0 0.551 0.19097 0.9997 0.57227 1.3457 0.3848 0.344 0.88384 0.5156 1.498 0.5156 0.4555 0 0.84246-0.0784 1.1602-0.2344 0.3177-0.161 0.60302-0.4127 0.85742-0.7597v0.9941h1.9121v-3.4082c0-0.9149-0.2378-1.5757-0.7148-1.9805-0.47294-0.4081-1.2448-0.61133-2.3145-0.61133zm0 0.5c1.0064 0 1.6569 0.20428 1.9883 0.49023a0.50005 0.50005 0 0 1 0.00196 0.00196c0.33486 0.28419 0.53906 0.77142 0.53906 1.5996v2.9082h-0.91211v-0.4941a0.50005 0.50005 0 0 0-0.35351-0.4766c0.2126-0.3049 0.35351-0.65692 0.35351-1.0391v-0.20898a0.50005 0.50005 0 0 0-0.5-0.5h-0.98437c-0.44953 0-0.83742 0.06368-1.1641 0.27344a0.50005 0.50005 0 0 0-0.0039 0.00195c-0.32288 0.21101-0.52344 0.60708-0.52344 0.99026 0 0.3455 0.15072 0.704 0.41797 0.9277a0.50005 0.50005 0 0 0 0.00976 0.0098c0.27428 0.2178 0.62183 0.3008 0.98243 0.3008 0.09799 0 0.18758-0.0392 0.2832-0.0547-0.03293 0.02-0.06229 0.0688-0.0957 0.0859h-0.00196c-0.23252 0.1139-0.53988 0.1836-0.9375 0.1836-0.5198 0-0.87598-0.1317-1.1621-0.3867-0.28377-0.2575-0.4082-0.5392-0.4082-0.9746 0-0.55202 0.14864-0.83368 0.48828-1.0567 0.34454-0.22457 1.01-0.38867 1.9824-0.38867h1.1172a0.50005 0.50005 0 0 0 0.5-0.5v-0.14258c0-0.42578-0.24041-0.85787-0.61133-1.0664v-0.00196c-0.36788-0.20983-0.80604-0.26758-1.3496-0.26758-0.43802 0-0.85236 0.04171-1.2422 0.12891-0.1296 0.02903-0.24061 0.09383-0.36524 0.13281v-0.26758c0.25978-0.05088 0.52053-0.10641 0.78125-0.13671a0.50005 0.50005 0 0 0 0.00391 0c0.38882-0.04852 0.77694-0.07227 1.166-0.07227zm0.13282 2.7812h0.98437v0.20898c0 0.3708-0.12173 0.67977-0.36523 0.92777-0.2436 0.245-0.54389 0.3672-0.90039 0.3672-0.286 0-0.50948-0.0644-0.67188-0.1934-0.1589-0.133-0.23828-0.3139-0.23828-0.5449 0-0.25182 0.09917-0.44309 0.29687-0.57229 0.2012-0.1292 0.49914-0.19336 0.89454-0.19336z" opacity=".3"/>
 <path id="path20" d="m8 2v1h1v-1h-1zm2 0v1h1v-1h-1zm2 0v1h1v-1h-1zm-9 2v1h10v-1h-1-1-1-1-1-5zm4.627 3.2148c-0.406 0-0.78321 0.03899-1.1328 0.11719-0.3495 0.0783-0.67451 0.19516-0.97461 0.35156v1c0.3001-0.1564 0.62511-0.27326 0.97461-0.35156 0.20443-0.04573 0.42096-0.07479 0.64453-0.09375 0.25595-0.02772 0.52819-0.04492 0.83203-0.04492h1.1172v-0.14258c0-0.2892-0.11887-0.50021-0.35547-0.63281-0.2365-0.136-0.60417-0.20313-1.1055-0.20313zm0.47657 2.0664c-0.3954 0-0.69334 0.06416-0.89454 0.19336-0.1977 0.1292-0.29687 0.32047-0.29687 0.57229 0 0.2164 0.07539 0.3853 0.21484 0.5156 0.02965-0.0279 0.04575-0.0642 0.08203-0.0879 0.2012-0.1292 0.49914-0.1934 0.89454-0.1934h0.73046c0.16634-0.2224 0.25391-0.48449 0.25391-0.79097v-0.20898h-0.98437zm-3.043 1.3378c-0.03772 0.1603-0.06055 0.331-0.06055 0.5196 0 0.551 0.19097 0.9997 0.57227 1.3457 0.3848 0.344 0.88384 0.5156 1.498 0.5156 0.4555 0 0.84246-0.0784 1.1602-0.2344 0.3177-0.161 0.60302-0.4127 0.85742-0.7597v0.9941h1.9121v-1h-1.9121v-0.9941c-0.09839 0.1342-0.20478 0.2416-0.3125 0.3476-0.01832 0.0212-0.03278 0.0441-0.05273 0.0645-0.00674 0.0067-0.01467 0.011-0.02149 0.0175-0.01669 0.0151-0.03386 0.0286-0.05078 0.043-0.07387 0.0645-0.1529 0.1184-0.23633 0.1621-0.06159 0.04-0.11936 0.0925-0.18359 0.125-0.3177 0.156-0.70466 0.2344-1.1602 0.2344-0.6142 0-1.1132-0.1716-1.498-0.5156-0.26298-0.2387-0.43001-0.5293-0.51172-0.8653zm-4.0606 4.3809v1h2 12v-1h-12-2z" fill="#fff" opacity=".2"/>
 <path id="path25" d="m2 1c-0.554 0-1 0.446-1 1v1c0-0.554 0.446-1 1-1h6 1 1 1 1 1 1c0.554 0 1 0.446 1 1v-1c0-0.554-0.446-1-1-1h-12zm6 2v1h1v-1h-1zm2 0v1h1v-1h-1zm2 0v1h1v-1h-1zm-4.0293 3c-0.4095 0-0.81901 0.02507-1.2285 0.07617-0.4095 0.0476-0.81666 0.11965-1.2227 0.21485v1c0.406-0.0952 0.81316-0.16725 1.2227-0.21485 0.4095-0.0511 0.81901-0.07617 1.2285-0.07617 1.0697 0 1.8416 0.20323 2.3145 0.61133 0.477 0.4048 0.7148 1.0656 0.7148 1.9805v-1c0-0.9149-0.2378-1.5757-0.7148-1.9805-0.47294-0.4081-1.2448-0.61133-2.3145-0.61133zm-0.34375 2.2148c-0.16859 0-0.32951 0.00998-0.48828 0.02344-0.60648 0.06568-1.0861 0.20567-1.4238 0.42578-0.4766 0.3129-0.71484 0.80421-0.71484 1.4746 0 0.171 0.02378 0.3293 0.06055 0.4804 0.09633-0.4094 0.31178-0.73017 0.65429-0.95504 0.4802-0.313 1.2321-0.4707 2.2559-0.4707h1.1172v-0.14258c0-0.2892-0.11887-0.50021-0.35547-0.63281-0.2365-0.136-0.60417-0.20313-1.1055-0.20313zm1.207 2.0664c-0.03491 0.0467-0.06908 0.0937-0.11132 0.1368-0.2436 0.245-0.54389 0.3672-0.90039 0.3672-0.286 0-0.50948-0.0644-0.67188-0.1934-0.01004-0.0084-0.01403-0.0205-0.02344-0.0293-0.13188 0.1241-0.21484 0.2788-0.21484 0.4844 0 0.231 0.07938 0.4119 0.23828 0.5449 0.1624 0.129 0.38588 0.1934 0.67188 0.1934 0.21945 0 0.41505-0.0519 0.59179-0.1446 0.07947-0.0516 0.1612-0.0979 0.23633-0.1621 0.01684-0.0147 0.03444-0.0272 0.05078-0.043 0.02602-0.0235 0.04873-0.0569 0.07422-0.082 0.20523-0.2368 0.3125-0.5228 0.3125-0.8633v-0.209h-0.25391zm-5.834 2.7188v1h10v-1h-2-1.9121-2.0176-4.0703z" opacity=".3"/>
</svg>
