<?xml version="1.0" encoding="UTF-8"?>
<svg id="svg30" width="16" height="16" version="1.1" xmlns="http://www.w3.org/2000/svg" xmlns:cc="http://creativecommons.org/ns#" xmlns:dc="http://purl.org/dc/elements/1.1/" xmlns:rdf="http://www.w3.org/1999/02/22-rdf-syntax-ns#">
 <metadata id="metadata34">
  <rdf:RDF>
   <cc:Work rdf:about="">
    <dc:format>image/svg+xml</dc:format>
    <dc:type rdf:resource="http://purl.org/dc/dcmitype/StillImage"/>
   </cc:Work>
  </rdf:RDF>
 </metadata>
 <defs id="defs7">
  <radialGradient id="gr0" cx="9" cy="10" r="11" gradientTransform="matrix(1 0 0 .72727 0 2.7273)" gradientUnits="userSpaceOnUse">
   <stop id="stop2" stop-opacity=".23529" offset="0"/>
   <stop id="stop4" stop-opacity=".54902" offset="1"/>
  </radialGradient>
 </defs>
 <path id="path9" d="m3.9707 0a1 1.0001 0 0 0-0.67773 0.29297l-3 3a1.0001 1.0001 0 0 0 0 1.4141l3 3a1.0001 1.0001 0 0 0 0.72265 0.29297 1.0001 1.0001 0 0 0 0.98438-1v-0.99805l2.002-0.0039a1.0001 1.0001 0 0 0 0.76953-0.36524l-0.71484 2.0352a1.0001 1.0001 0 0 0 0.94336 1.332h1.7344a1.0001 1.0001 0 0 0 0.94922-0.6875l0.1855-0.5625h1.2481l0.2051 0.58203a1.0001 1.0001 0 0 0 0.9433 0.66797h1.7344a1.0001 1.0001 0 0 0 0.9414-1.3359l-2.4902-7a1.0001 1.0001 0 0 0-0.9414-0.66406h-2.0508a1.0001 1.0001 0 0 0-0.94338 0.66797l-1.5156 4.3145v-1.9863a1.0001 1.0001 0 0 0-1.002-1l-1.998 0.00586v-1.002a1.0001 1.0001 0 0 0-1.0293-1zm0.04492 8a1.0001 1.0001 0 0 0-0.72265 0.29297l-3 3a1.0001 1.0001 0 0 0 0 1.414l3 3a1.0001 1.0001 0 0 0 1.707-0.707v-0.9961l10-0.0059a1.0001 1.0001 0 0 0 1-1v-2.0019a1.0001 1.0001 0 0 0-1-1l-10 0.00781v-1.0039a1.0001 1.0001 0 0 0-0.98438-1zm-0.01562-7v2.0039l3-0.00782v2.002l-3 0.00586v1.9961l-3-3 3-3zm6.459 0h2.0508l2.4902 7h-1.7344l-0.4414-1.25h-2.6797l-0.41012 1.25h-1.7344l2.459-7zm1.041 1.6562-0.9141 2.7812h1.8282l-0.9141-2.7812zm-7.5 6.3438v2.002l11-0.0098v2.0019l-11 0.0098v1.9961l-3-3 3-3z" fill="#fff" opacity=".05"/>
 <path id="base" d="m4 1-3 3 3 3v-1.9961l3-0.00586v-2.002l-3 0.00781zm6.459 0-2.459 7h1.7344l0.41016-1.25h2.6797l0.44141 1.25h1.7344l-2.4902-7zm1.041 1.6562 0.91406 2.7812h-1.8281zm-7.5 6.3438-3 3 3 3v-1.9961l11-0.0059v-2.002l-11 0.0078z" fill="url(#gr0)"/>
 <path id="path15" d="m4 1-3 3 3 3v-1.9961l3-0.00586v-2.002l-3 0.00782v-2.0039zm6.459 0-2.459 7h1.7344l0.41012-1.25h2.6797l0.4414 1.25h1.7344l-2.4902-7h-2.0508zm0.3555 0.5h1.3417l2.1348 6h-0.6719l-0.3242-0.91602a0.50005 0.50005 0 0 0-0.4707-0.33398h-2.6797a0.50005 0.50005 0 0 0-0.47458 0.34375l-0.29687 0.90625h-0.66602l2.1075-6zm0.6582 0.65625a0.50005 0.50005 0 0 0-0.4473 0.34375l-0.9141 2.7812a0.50005 0.50005 0 0 0 0.4746 0.65625h1.8282a0.50005 0.50005 0 0 0 0.4746-0.65625l-0.9141-2.7812a0.50005 0.50005 0 0 0-0.5019-0.34375zm-7.9727 0.05078v0.79688a0.50005 0.50005 0 0 0 0.50195 0.5l2.498-0.00586v1l-2.502 0.00586a0.50005 0.50005 0 0 0-0.49805 0.5v0.78906l-1.793-1.793 1.793-1.793zm8 0.44922 0.9141 2.7812h-1.8282l0.9141-2.7812zm-7.5 6.3438-3 3 3 3v-1.9961l11-0.0098v-2.0019l-11 0.0098v-2.002zm-0.5 1.207v0.7969a0.50005 0.50005 0 0 0 0.5 0.5l10.5-0.0078v1.0019l-10.5 0.0059a0.50005 0.50005 0 0 0-0.5 0.5v0.7891l-1.793-1.793 1.793-1.793z" opacity=".3"/>
 <path id="path20" d="m11.5 2.6562-0.9141 2.7812h0.3282l0.5859-1.7812 0.5859 1.7812h0.3282l-0.9141-2.7812zm-10 1.8438-0.5 0.5 3 3v-1l-2.5-2.5zm5.5 0.49805-3 0.00586v1l3-0.00586v-1zm3.1445 1.752-0.41012 1.25h-1.3828l-0.35156 1h1.7344l0.41012-1.25h2.6797l0.4414 1.25h1.7344l-0.3555-1h-1.3789l-0.4414-1.25h-2.6797zm-8.6445 5.75-0.5 0.5 3 3v-1l-2.5-2.5zm13.5 0.4941-11 0.0098v1l11-0.0098v-1z" fill="#fff" opacity=".2"/>
 <path id="path25" d="m4 1-3 3 0.5 0.5 2.5-2.5v-1zm6.459 0-2.459 7h0.35156l2.1074-6h2.0508l2.1347 6h0.3555l-2.4902-7h-2.0508zm-3.459 1.9961-3 0.00782v1l3-0.00782v-1zm3.9141 2.4414-0.3282 1h1.8282l-0.3282-1h-1.1718zm-6.9141 3.5625-3 3 0.5 0.5 2.5-2.5v-1zm11 1.9922-11 0.0098v1l11-0.0098v-1z" opacity=".3"/>
</svg>
