<?xml version="1.0" encoding="UTF-8"?>
<svg id="svg30" width="16" height="16" version="1.1" xmlns="http://www.w3.org/2000/svg" xmlns:cc="http://creativecommons.org/ns#" xmlns:dc="http://purl.org/dc/elements/1.1/" xmlns:rdf="http://www.w3.org/1999/02/22-rdf-syntax-ns#">
 <metadata id="metadata34">
  <rdf:RDF>
   <cc:Work rdf:about="">
    <dc:format>image/svg+xml</dc:format>
    <dc:type rdf:resource="http://purl.org/dc/dcmitype/StillImage"/>
   </cc:Work>
  </rdf:RDF>
 </metadata>
 <defs id="defs7">
  <radialGradient id="gr0" cx="9" cy="10" r="11" gradientTransform="matrix(1 0 0 .72727 0 2.7273)" gradientUnits="userSpaceOnUse">
   <stop id="stop2" stop-opacity=".23529" offset="0"/>
   <stop id="stop4" stop-opacity=".54902" offset="1"/>
  </radialGradient>
 </defs>
 <path id="path9" d="m3.459 0a1 1.0001 0 0 0-0.94336 0.66797l-2.459 7a1.0001 1.0001 0 0 0 0.94336 1.332h1.7344a1.0001 1.0001 0 0 0 0.94921-0.6875l0.18555-0.5625h1.248l0.20508 0.58203a1.0001 1.0001 0 0 0 0.94335 0.66797h1.7344a1.0001 1.0001 0 0 0 0.94141-1.3359l-0.73047-2.0508a1.0001 1.0001 0 0 0 0.78711 0.38477l2.002 0.0039v0.99805a1.0001 1.0001 0 0 0 0.9844 1 1.0001 1.0001 0 0 0 0.7226-0.29297l3-3a1.0001 1.0001 0 0 0 0-1.4141l-3-3a1.0001 1.0001 0 0 0-1.707 0.70703v1.002l-1.998-0.00586a1.0001 1.0001 0 0 0-1.002 1v2.002a1.0001 1.0001 0 0 0 0.00195 0.02343l-1.5508-4.3574a1.0001 1.0001 0 0 0-0.9414-0.66406h-2.0508zm8.5254 8a1.0001 1.0001 0 0 0-0.9844 1v1.0039l-10-0.00781a1.0001 1.0001 0 0 0-1 1v2.0019a1.0001 1.0001 0 0 0 1 1l10 0.0059v0.9961a1.0001 1.0001 0 0 0 1.707 0.707l3-3a1.0001 1.0001 0 0 0 0-1.414l-3-3a1.0001 1.0001 0 0 0-0.7226-0.29297zm-8.5254-7h2.0508l2.4902 7h-1.7344l-0.4414-1.25h-2.6797l-0.41015 1.25h-1.7344l2.459-7zm8.541 0 3 3-3 3v-1.9961l-3-0.00586v-2.002l3 0.00782v-2.0039zm-7.5 1.6562-0.91406 2.7812h1.8281l-0.91406-2.7812zm7.5 6.3438 3 3.002-3 3v-1.9961l-11-0.0098v-2.002l11 0.0098v-2.0039z" fill="#fff" opacity=".05"/>
 <path id="base" d="m3.459 1-2.459 7h1.7344l0.4101-1.25h2.6797l0.4414 1.25h1.7344l-2.4902-7h-2.0508zm8.541 0v2.0039l-3-0.0078v2.0019l3 0.0059v1.9961l3-3-3-3zm-7.5 1.6562 0.9141 2.7813h-1.8282l0.9141-2.7813zm7.5 6.3438v2.004l-11-8e-3v2.002l11 6e-3v1.996l3-3-3-3z" fill="url(#gr0)"/>
 <path id="path15" d="m3.459 1-2.459 7h1.7344l0.41015-1.25h2.6797l0.4414 1.25h1.7344l-2.4902-7h-2.0508zm8.541 0v2.0039l-3-0.00782v2.002l3 0.00586v1.9961l3-3-3-3zm-8.1856 0.5h1.3418l2.1348 6h-0.67188l-0.32422-0.91602a0.50005 0.50005 0 0 0-0.4707-0.33398h-2.6797a0.50005 0.50005 0 0 0-0.47461 0.34375l-0.29687 0.90625h-0.66602l2.1074-6zm0.65821 0.65625a0.50005 0.50005 0 0 0-0.44727 0.34375l-0.91406 2.7812a0.50005 0.50005 0 0 0 0.47461 0.65625h1.8281a0.50005 0.50005 0 0 0 0.47461-0.65625l-0.91406-2.7812a0.50005 0.50005 0 0 0-0.50195-0.34375zm8.0273 0.05078 1.793 1.793-1.793 1.793v-0.78906a0.50005 0.50005 0 0 0-0.498-0.5l-2.502-0.00586v-1l2.498 0.00586a0.50005 0.50005 0 0 0 0.502-0.5v-0.79688zm-8 0.44922 0.91406 2.7812h-1.8281l0.91406-2.7812zm7.5 6.3438v2.0039l-11-0.0098v2.002l11 0.0098v1.9961l3-3-3-3.002zm0.5 1.207 1.793 1.793-1.793 1.793v-0.7891a0.50005 0.50005 0 0 0-0.5-0.5l-10.5-0.0059v-1.0019l10.5 0.0078a0.50005 0.50005 0 0 0 0.5-0.5v-0.7969z" opacity=".3"/>
 <path id="path20" d="m4.5 2.6562-0.91406 2.7812h0.32812l0.58594-1.7812 0.58594 1.7812h0.32812l-0.91406-2.7812zm10 1.8438-2.5 2.5v1l3-3-0.5-0.5zm-5.5 0.49805v1l3 0.00586v-1l-3-0.00586zm-5.8555 1.752-0.41015 1.25h-1.3828l-0.35156 1h1.7344l0.41015-1.25h2.6797l0.4414 1.25h1.7344l-0.35547-1h-1.3789l-0.4414-1.25h-2.6797zm11.355 5.752-2.5 2.5v1l3-3-0.5-0.5zm-13.5 0.4941v1l11 0.0098v-1l-11-0.0098z" fill="#fff" opacity=".2"/>
 <path id="path25" d="m3.459 1-2.459 7h0.35156l2.1074-6h2.0508l2.1348 6h0.35547l-2.4902-7h-2.0508zm8.541 0v1l2.5 2.5 0.5-0.5-3-3zm-3 1.9961v1l3 0.00782v-1l-3-0.00782zm-5.0859 2.4414-0.32812 1h1.8281l-0.32812-1h-1.1719zm8.0859 3.5625v1l2.5 2.502 0.5-0.5-3-3.002zm-11 1.9941v1l11 0.0098v-1l-11-0.0098z" opacity=".3"/>
</svg>
