<?xml version="1.0" encoding="UTF-8"?>
<svg id="svg30" width="16" height="16" version="1.1" xmlns="http://www.w3.org/2000/svg" xmlns:cc="http://creativecommons.org/ns#" xmlns:dc="http://purl.org/dc/elements/1.1/" xmlns:rdf="http://www.w3.org/1999/02/22-rdf-syntax-ns#">
 <metadata id="metadata34">
  <rdf:RDF>
   <cc:Work rdf:about="">
    <dc:format>image/svg+xml</dc:format>
    <dc:type rdf:resource="http://purl.org/dc/dcmitype/StillImage"/>
   </cc:Work>
  </rdf:RDF>
 </metadata>
 <defs id="defs7">
  <radialGradient id="gr0" cx="9" cy="10" r="11" gradientTransform="matrix(1 0 0 .63636 0 3.6364)" gradientUnits="userSpaceOnUse">
   <stop id="stop2" stop-opacity=".23529" offset="0"/>
   <stop id="stop4" stop-opacity=".54902" offset="1"/>
  </radialGradient>
 </defs>
 <path id="path9" d="m6 1a1 1.0001 0 0 0-1 1v3h-2a1.0001 1.0001 0 0 0-0.84766 1.5293l5 8a1.0001 1.0001 0 0 0 1.6953 0l5-8a1.0001 1.0001 0 0 0-0.8477-1.5293h-2v-3a1.0001 1.0001 0 0 0-1-1h-4zm0 1h4v4h3l-5 8-5-8h3v-4z" fill="#fff" opacity=".05"/>
 <path id="base" d="m6 2v4h-3l5 8 5-8h-3v-4z" fill="url(#gr0)"/>
 <path id="path15" d="m6 2v4h-3l5 8 5-8h-3v-4h-4zm0.5 0.5h3v3.5a0.50005 0.50005 0 0 0 0.5 0.5h2.0977l-4.0977 6.5566-4.0977-6.5566h2.0977a0.50005 0.50005 0 0 0 0.5-0.5v-3.5z" opacity=".3"/>
 <path id="path20" d="m3 7 5 8 5-8h-0.625l-4.375 7-4.375-7h-0.625z" fill="#fff" opacity=".2"/>
 <path id="path25" d="m6 2v1h4v-1h-4zm-3 4 0.625 1h2.375v-1h-3zm7 0v1h2.375l0.625-1h-3z" opacity=".3"/>
</svg>
