<?xml version="1.0" encoding="UTF-8"?>
<svg id="svg30" width="16" height="16" version="1.1" xmlns="http://www.w3.org/2000/svg" xmlns:cc="http://creativecommons.org/ns#" xmlns:dc="http://purl.org/dc/elements/1.1/" xmlns:rdf="http://www.w3.org/1999/02/22-rdf-syntax-ns#">
 <metadata id="metadata34">
  <rdf:RDF>
   <cc:Work rdf:about="">
    <dc:format>image/svg+xml</dc:format>
    <dc:type rdf:resource="http://purl.org/dc/dcmitype/StillImage"/>
   </cc:Work>
  </rdf:RDF>
 </metadata>
 <defs id="defs7">
  <radialGradient id="gr0" cx="9" cy="10" r="11" gradientTransform="matrix(1 0 0 .54545 0 4.5455)" gradientUnits="userSpaceOnUse">
   <stop id="stop2" stop-opacity=".23529" offset="0"/>
   <stop id="stop4" stop-opacity=".54902" offset="1"/>
  </radialGradient>
 </defs>
 <path id="path9" d="m9.9707 2a1 1.0001 0 0 0-0.5 0.15234l-8 5a1.0001 1.0001 0 0 0 0 1.6953l8 5a1.0001 1.0001 0 0 0 1.5293-0.8477v-2h3a1.0001 1.0001 0 0 0 1-1v-4a1.0001 1.0001 0 0 0-1-1h-3v-2a1.0001 1.0001 0 0 0-1.0293-1zm0.0293 1v3h4v4h-4v3l-8-5 8-5z" fill="#fff" opacity=".05"/>
 <path id="base" d="m14 6h-4v-3l-8 5 8 5v-3h4z" fill="url(#gr0)"/>
 <path id="path15" d="m10 3-8 5 8 5v-3h4v-4h-4v-3zm-0.5 0.90234v2.0977a0.50005 0.50005 0 0 0 0.5 0.5h3.5v3h-3.5a0.50005 0.50005 0 0 0-0.5 0.5v2.0977l-6.5566-4.0977 6.5566-4.0977z" opacity=".3"/>
 <path id="path20" d="m2.8008 8.5-0.80078 0.5 8 5v-1l-7.1992-4.5zm7.1992 1.5v1h4v-1h-4z" fill="#fff" opacity=".2"/>
 <path id="path25" d="m10 3-8 5 0.80078 0.5 7.1992-4.5v-1zm0 3v1h4v-1h-4z" opacity=".3"/>
</svg>
