<?xml version="1.0" encoding="UTF-8"?>
<svg id="svg30" width="16" height="16" version="1.1" xmlns="http://www.w3.org/2000/svg" xmlns:cc="http://creativecommons.org/ns#" xmlns:dc="http://purl.org/dc/elements/1.1/" xmlns:rdf="http://www.w3.org/1999/02/22-rdf-syntax-ns#">
 <metadata id="metadata34">
  <rdf:RDF>
   <cc:Work rdf:about="">
    <dc:format>image/svg+xml</dc:format>
    <dc:type rdf:resource="http://purl.org/dc/dcmitype/StillImage"/>
   </cc:Work>
  </rdf:RDF>
 </metadata>
 <defs id="defs7">
  <radialGradient id="gr0" cx="9" cy="10" r="11" gradientTransform="matrix(1 0 0 .72727 0 2.7273)" gradientUnits="userSpaceOnUse">
   <stop id="stop2" stop-opacity=".23529" offset="0"/>
   <stop id="stop4" stop-opacity=".54902" offset="1"/>
  </radialGradient>
 </defs>
 <path id="path9" d="m3 0a1 1.0001 0 0 0-1 1v2a1.0001 1.0001 0 0 0 1 1h3.1973l-4.0449 6.4707a1.0001 1.0001 0 0 0 0.84766 1.5293h2v3a1.0001 1.0001 0 0 0 1 1h4a1.0001 1.0001 0 0 0 1-1v-3h2a1.0001 1.0001 0 0 0 0.8477-1.5293l-4.045-6.4707h3.1973a1.0001 1.0001 0 0 0 1-1v-2a1.0001 1.0001 0 0 0-1-1h-10zm0 1h10v2h-5l5 8h-3v4h-4v-4h-3l5-8h-5v-2z" fill="#fff" opacity=".05"/>
 <path id="base" d="m3 1v2h10v-2h-10zm5 2-5 8h3v4h4v-4h3l-5-8z" fill="url(#gr0)"/>
 <path id="path15" d="m3 1v2h5 5v-2h-10zm5 2-5 8h3v4h4v-4h3l-5-8zm-4.5-1.5h9v1h-4.5-4.5v-1zm4.5 2.4434 4.0977 6.5566h-2.0977a0.50005 0.50005 0 0 0-0.5 0.5v3.5h-3v-3.5a0.50005 0.50005 0 0 0-0.5-0.5h-2.0977l4.0977-6.5566z" opacity=".3"/>
 <path id="path20" d="m3 3v1h4.375l0.625-1h-5zm5 0 0.625 1h4.375v-1h-5zm-4.375 8-0.625 1h3v-1h-2.375zm6.375 0v1h3l-0.625-1h-2.375zm-4 4v1h4v-1h-4z" fill="#fff" opacity=".2"/>
 <path id="path25" d="m3 1v1h10v-1h-10zm4.375 3-4.375 7h0.625l4.375-7h-0.625zm0.625 0 4.375 7h0.625l-4.375-7h-0.625z" opacity=".3"/>
</svg>
