<?xml version="1.0" encoding="UTF-8"?>
<svg id="svg30" width="16" height="16" version="1.1" xmlns="http://www.w3.org/2000/svg" xmlns:cc="http://creativecommons.org/ns#" xmlns:dc="http://purl.org/dc/elements/1.1/" xmlns:rdf="http://www.w3.org/1999/02/22-rdf-syntax-ns#">
 <metadata id="metadata34">
  <rdf:RDF>
   <cc:Work rdf:about="">
    <dc:format>image/svg+xml</dc:format>
    <dc:type rdf:resource="http://purl.org/dc/dcmitype/StillImage"/>
   </cc:Work>
  </rdf:RDF>
 </metadata>
 <defs id="defs7">
  <radialGradient id="gr0" cx="9" cy="10" r="11" gradientTransform="matrix(1 0 0 .72727 0 2.7273)" gradientUnits="userSpaceOnUse">
   <stop id="stop2" stop-opacity=".23529" offset="0"/>
   <stop id="stop4" stop-opacity=".54902" offset="1"/>
  </radialGradient>
 </defs>
 <path id="path9" d="m3 0a1 1.0001 0 0 0-1 1v3h-1a1.0001 1.0001 0 0 0-0.70703 1.707l3 3a1.0001 1.0001 0 0 0 1.4141 0l0.13867-0.13867 1.4316 1.4316-1.9844 1.9844a1.0001 1.0001 0 0 0 0 1.414l2.3086 2.3086a1.0001 1.0001 0 0 0 1.4141 0l1.9844-1.9863 1.9844 1.9863a1.0001 1.0001 0 0 0 1.414 0l2.3086-2.3086a1.0001 1.0001 0 0 0 0-1.414l-1.9843-1.9844 1.9843-1.9863a1.0001 1.0001 0 0 0 0-1.4141l-2.3086-2.3066a1.0001 1.0001 0 0 0-1.414 0l-1.9844 1.9844-1.4492-1.4492 0.05078 0.46094a1.0001 1.0001 0 0 0-0.63281-0.53515 1.0001 1.0001 0 0 0-0.94727-0.75391h1.9785a1.0001 1.0001 0 0 0 1-1v-2a1.0001 1.0001 0 0 0-1-1h-6zm0 1h6v2h-4v2h2l-3 3-3-3h2v-4zm9.6914 4 2.3086 2.3066-2.6914 2.6934 2.6914 2.6914-2.3086 2.3086-2.6914-2.6934-2.6914 2.6934-2.3086-2.3086 2.6914-2.6914-2.1387-2.1387 2.1543-2.1543a1.0001 1.0001 0 0 0 0.13672-0.17187l0.70508 0.70507a1.0001 1.0001 0 0 0 0.125-0.31054l0.01562 0.13867c6e-5 -9e-5 -0.06987 0.08738-0.13867 0.17383l1.4492 1.4492 2.6914-2.6914z" fill="#fff" opacity=".05"/>
 <path id="base" d="m3 1v4h-2l3 3 3-3h-2v-2h4v-2h-6zm9.6914 4-2.6914 2.6914-2.1562-2.1562a1 1.0001 0 0 1-0.13672 0.17188l-2.1543 2.1543 2.1387 2.1387-2.6914 2.6914 2.3086 2.3086 2.6914-2.6934 2.6914 2.6934 2.3086-2.3086-2.6914-2.6914 2.6914-2.6934-2.3086-2.3066z" fill="url(#gr0)"/>
 <path id="path15" d="m3 1v4h-2l3 3 3-3h-2v-2h4v-2h-6zm0.5 0.5h5v1h-3.5a0.50005 0.50005 0 0 0-0.5 0.5v2a0.50005 0.50005 0 0 0 0.5 0.5h0.79297l-1.793 1.793-1.793-1.793h0.79297a0.50005 0.50005 0 0 0 0.5-0.5v-3.5zm9.1914 3.5-2.6914 2.6914-2.1562-2.1562a1 1.0001 0 0 1-0.13672 0.17187l-2.1543 2.1543 2.1387 2.1387-2.6914 2.6914 2.3086 2.3086 2.6914-2.6934 2.6914 2.6934 2.3086-2.3086-2.6914-2.6914 2.6914-2.6934-2.3086-2.3066zm0 0.70703 1.6016 1.5996-2.3379 2.3398a0.50005 0.50005 0 0 0 0 0.70702l2.3379 2.3379-1.6016 1.6016-2.3379-2.3399a0.50005 0.50005 0 0 0-0.70702 0l-2.3379 2.3399-1.6016-1.6016 2.3379-2.3379a0.50005 0.50005 0 0 0 0-0.70702l-1.7852-1.7852 1.6016-1.6016 1.7852 1.7852a0.50005 0.50005 0 0 0 0.70702 0l2.3379-2.3379z" opacity=".3"/>
 <path id="path20" d="m5 3v1h4v-1h-4zm-4 3 3 3 3-3h-1l-2 2-2-2h-1zm13.5 1.8066-2.1914 2.1934 0.5 0.5 2.1914-2.1934-0.5-0.5zm-8.4473 0.55469-0.5 0.5 1.6387 1.6387 0.5-0.5-1.6387-1.6387zm3.9473 3.9453-2.6914 2.6934-1.8086-1.8086-0.5 0.5 2.3086 2.3086 2.6914-2.6934 2.6914 2.6934 2.3086-2.3086-0.5-0.5-1.8086 1.8086-2.6914-2.6934z" fill="#fff" opacity=".2"/>
 <path id="path25" d="m3 1v1h6v-1h-6zm-2 4 1 1h1v-1h-2zm4 0v1h1l1-1h-2zm7.6914 0-2.6914 2.6914-2.1562-2.1562a1 1.0001 0 0 1-0.13672 0.17187l-2.1543 2.1543 0.5 0.5 1.6543-1.6543a1.0001 1.0001 0 0 0 0.13672-0.17187l2.1562 2.1562 2.6914-2.6914 1.8086 1.8066 0.5-0.5-2.3086-2.3066zm-5.5 5.5-2.1914 2.1914 0.5 0.5 2.1914-2.1914-0.5-0.5zm5.6172 0-0.5 0.5 2.1914 2.1914 0.5-0.5-2.1914-2.1914z" opacity=".3"/>
</svg>
