<?xml version="1.0" encoding="UTF-8"?>
<svg id="svg30" width="16" height="16" version="1.1" xmlns="http://www.w3.org/2000/svg" xmlns:cc="http://creativecommons.org/ns#" xmlns:dc="http://purl.org/dc/elements/1.1/" xmlns:rdf="http://www.w3.org/1999/02/22-rdf-syntax-ns#">
 <metadata id="metadata34">
  <rdf:RDF>
   <cc:Work rdf:about="">
    <dc:format>image/svg+xml</dc:format>
    <dc:type rdf:resource="http://purl.org/dc/dcmitype/StillImage"/>
   </cc:Work>
  </rdf:RDF>
 </metadata>
 <defs id="defs7">
  <radialGradient id="gr0" cx="9" cy="10" r="11" gradientTransform="matrix(1 0 0 .72727 0 2.7273)" gradientUnits="userSpaceOnUse">
   <stop id="stop2" stop-opacity=".23529" offset="0"/>
   <stop id="stop4" stop-opacity=".54902" offset="1"/>
  </radialGradient>
 </defs>
 <path id="path9" d="m8 0c-4.4051 0-8 3.5949-8 8 0 4.4051 3.5949 8 8 8 4.4051 0 8-3.5949 8-8 0-4.4051-3.5949-8-8-8zm0 1c3.864 0 7 3.136 7 7s-3.136 7-7 7-7-3.136-7-7 3.136-7 7-7zm3.1602 3.1113-4.2051 4.5215-2.1152-2.2617-1.5059 1.6289 3.6211 3.8887 5.7129-6.1485-1.5078-1.6289zm-2e-3 1.4707 0.1445 0.15625-4.3476 4.6816-2.2578-2.4218 0.14648-0.15821 1.3809 1.4746a1 1.0001 0 0 0 1.4629-0.00195l3.4707-3.7305z" fill="#fff" opacity=".05"/>
 <path id="base" d="m8 1c-3.864 0-7 3.136-7 7s3.136 7 7 7 7-3.136 7-7-3.136-7-7-7zm3.16 3.1111 1.507 1.6285-5.7121 6.1494-3.6216-3.889 1.507-1.6285 2.1146 2.2604 4.2051-4.5208z" fill="url(#gr0)"/>
 <path id="path15" d="m8 1c-3.864 0-7 3.136-7 7s3.136 7 7 7 7-3.136 7-7-3.136-7-7-7zm0 0.5c3.5935 0 6.5 2.9065 6.5 6.5 0 3.5935-2.9065 6.5-6.5 6.5-3.5935 0-6.5-2.9065-6.5-6.5 0-3.5935 2.9065-6.5 6.5-6.5zm3.1484 2.1113a0.50005 0.50005 0 0 0-0.3554 0.16015l-3.8399 4.127-1.748-1.8691a0.50005 0.50005 0 0 0-0.73242 0.00195l-1.5059 1.6289a0.50005 0.50005 0 0 0 0 0.67968l3.623 3.8907a0.50005 0.50005 0 0 0 0.73047-2e-3l5.7129-6.1484a0.50005 0.50005 0 0 0 0-0.67969l-1.5059-1.6289a0.50005 0.50005 0 0 0-0.3789-0.16015zm0.0118 0.5 1.5078 1.6289-5.7129 6.1485-3.6211-3.8887 1.5059-1.6289 2.1152 2.2617 4.2051-4.5215z" opacity=".3"/>
 <path id="path20" d="m11.16 4.1113-4.2051 4.5215-2.1152-2.2617-1.5059 1.6289 0.46485 0.49805 1.041-1.127 2.1152 2.2617 4.2051-4.5215 1.0449 1.1289 0.4629-0.5-1.5078-1.6289zm-10.135 4.3887c-0.01178 0.16592-0.02539 0.33109-0.02539 0.5 0 3.864 3.136 7 7 7s7-3.136 7-7c0-0.16891-0.0136-0.33408-0.0254-0.5-0.2578 3.6298-3.2795 6.5-6.9746 6.5-3.6951 0-6.7168-2.8702-6.9746-6.5z" fill="#fff" opacity=".2"/>
 <path id="path25" d="m8 1c-3.864 0-7 3.136-7 7 0 0.16891 0.01361 0.33408 0.02539 0.5 0.25779-3.6298 3.2795-6.5 6.9746-6.5 3.6951 0 6.7168 2.8702 6.9746 6.5 0.0118-0.16592 0.0254-0.33109 0.0254-0.5 0-3.864-3.136-7-7-7zm4.2051 5.2402-5.25 5.6485-3.1562-3.3906-0.46485 0.50195 3.6211 3.8887 5.7129-6.1485-0.4629-0.5z" opacity=".3"/>
</svg>
