<?xml version="1.0" encoding="UTF-8"?>
<svg id="svg30" width="16" height="16" version="1.1" xmlns="http://www.w3.org/2000/svg" xmlns:cc="http://creativecommons.org/ns#" xmlns:dc="http://purl.org/dc/elements/1.1/" xmlns:rdf="http://www.w3.org/1999/02/22-rdf-syntax-ns#">
 <metadata id="metadata34">
  <rdf:RDF>
   <cc:Work rdf:about="">
    <dc:format>image/svg+xml</dc:format>
    <dc:type rdf:resource="http://purl.org/dc/dcmitype/StillImage"/>
   </cc:Work>
  </rdf:RDF>
 </metadata>
 <defs id="defs7">
  <radialGradient id="gr0" cx="9" cy="10" r="11" gradientTransform="matrix(1 0 0 .72727 0 2.7273)" gradientUnits="userSpaceOnUse">
   <stop id="stop2" stop-opacity=".23529" offset="0"/>
   <stop id="stop4" stop-opacity=".54902" offset="1"/>
  </radialGradient>
 </defs>
 <path id="path9" d="m2.5 0c-0.8137-1.0871e-16 -1.5 0.6863-1.5 1.5v13c0 0.8137 0.6863 1.5 1.5 1.5h10c0.8137 0 1.5-0.6863 1.5-1.5v-10.5a1 1.0001 0 0 0-0.293-0.70703l-3-3a1.0001 1.0001 0 0 0-0.707-0.29297h-7.5zm0 1h7.5l3 3v10.5c0 0.277-0.223 0.5-0.5 0.5h-10c-0.277 0-0.5-0.223-0.5-0.5v-13c0-0.277 0.223-0.5 0.5-0.5zm0.75 1c-0.1385 0-0.25 0.1115-0.25 0.25v11.5c0 0.1385 0.1115 0.25 0.25 0.25h8.5c0.1385 0 0.25-0.1115 0.25-0.25v-8.75h-2.5c-0.277 0-0.5-0.223-0.5-0.5v-2.5h-5.75zm0.75 1h4v1.5c0 0.33157 0.17319 0.60793 0.36328 0.85938-0.30218-0.10357-0.52799-0.35938-0.86328-0.35938-1.645 0-3 1.355-3 3 0 0.39019 0.28166 0.66056 0.41992 1.0039a1.0001 1.0001 0 0 0-0.60742 0.28515c-0.10632 0.04443-0.216 0.06944-0.3125 0.13086v-6.4199zm3.5 3c1.1046 0 2 0.8954 2 2 0 1.1046-0.8954 2-2 2-1.1046 0-2-0.8954-2-2 0-1.1046 0.8954-2 2-2zm2.166 0h1.334v3.4199c-0.2872-0.18283-0.5728-0.37581-0.9297-0.39062 0.1449-0.35035 0.4297-0.62936 0.4297-1.0293 0-0.77699-0.3416-1.4646-0.83398-2zm-4.666 4h0.26953c0.5678 0.6349 1.3787 1 2.2305 1 0.8524-1e-3 1.6642-0.3646 2.2324-1h0.26758c0.554 0 1 0.446 1 1v2h-7v-2c0-0.554 0.446-1 1-1z" fill="#fff" opacity=".05"/>
 <path id="base" d="m2.5 1c-0.277 0-0.5 0.223-0.5 0.5v13c0 0.277 0.223 0.5 0.5 0.5h10c0.277 0 0.5-0.223 0.5-0.5v-10.5l-3-3h-7.5zm0.75 1h5.75v2.5c0 0.277 0.223 0.5 0.5 0.5h2.5v8.75c0 0.1385-0.1115 0.25-0.25 0.25h-8.5c-0.1385 0-0.25-0.1115-0.25-0.25v-11.5c0-0.1385 0.1115-0.25 0.25-0.25zm4.25 4c-1.1046 0-2 0.89543-2 2 0 1.1046 0.89543 2 2 2 1.1046 0 2-0.89543 2-2 0-1.1046-0.89543-2-2-2zm-2.5 4c-0.554 0-1 0.446-1 1v2h7v-2c0-0.554-0.446-1-1-1h-0.26758c-0.56827 0.63535-1.38 0.99896-2.2324 1-0.85175-0.001582-1.6627-0.36514-2.2305-1h-0.26953z" fill="url(#gr0)"/>
 <path id="path15" d="m2.5 1c-0.277 0-0.5 0.223-0.5 0.5v13c0 0.277 0.223 0.5 0.5 0.5h10c0.277 0 0.5-0.223 0.5-0.5v-10.5l-3-3h-7.5zm0 0.5h0.75c-0.40685 0-0.75 0.34315-0.75 0.75v-0.75zm6.5 0h0.79297l2.707 2.707v0.79297a0.50005 0.50005 0 0 0-0.5-0.5h-2.5v-2.5a0.50005 0.50005 0 0 0-0.5-0.5zm-5.75 0.5h5.75v2.5c0 0.277 0.223 0.5 0.5 0.5h2.5v8.75c0 0.1385-0.1115 0.25-0.25 0.25h-8.5c-0.1385 0-0.25-0.1115-0.25-0.25v-11.5c0-0.1385 0.1115-0.25 0.25-0.25zm4.25 4c-1.1046 0-2 0.89543-2 2 0 1.1046 0.89543 2 2 2 1.1046 0 2-0.89543 2-2 0-1.1046-0.89543-2-2-2zm0 0.5c0.83436 0 1.5 0.66561 1.5 1.5 0 0.83436-0.66561 1.5-1.5 1.5-0.83436 0-1.5-0.66561-1.5-1.5 0-0.83436 0.66561-1.5 1.5-1.5zm-2.5 3.5c-0.554 0-1 0.446-1 1v2h7v-2c0-0.554-0.446-1-1-1h-0.26758c-0.56827 0.6354-1.38 0.999-2.2324 1-0.85175 0-1.6627-0.3651-2.2305-1h-0.26953zm0 0.5h0.12305c0.64597 0.6132 1.4792 0.9983 2.377 1 0.89843-0.0011 1.7324-0.3864 2.3789-1h0.12109c0.2856 0 0.5 0.2144 0.5 0.5v1.5h-6v-1.5c0-0.2856 0.21435-0.5 0.5-0.5zm-2.5 3.25c0 0.4069 0.34315 0.75 0.75 0.75h-0.75v-0.75zm10 0v0.75h-0.75c0.4069 0 0.75-0.3431 0.75-0.75z" opacity=".3"/>
 <path id="path20" d="m3.25 2c-0.1385 0-0.25 0.1115-0.25 0.25v1c0-0.1385 0.1115-0.25 0.25-0.25h5.75v-1h-5.75zm5.75 2.5v1c0 0.277 0.223 0.5 0.5 0.5h2.5v-1h-2.5c-0.277 0-0.5-0.223-0.5-0.5zm-3.4297 4c-0.04165 0.16076-0.07031 0.32622-0.07031 0.5 0 0.96371 0.68245 1.7675 1.5898 1.957 0.13582 0.019 0.2713 0.043 0.41016 0.043 0.13897-2e-4 0.27423-0.0239 0.41016-0.043 0.9074-0.1895 1.5898-0.99329 1.5898-1.957 0-0.17379-0.02866-0.33924-0.07031-0.5-0.22311 0.86102-0.99888 1.5-1.9297 1.5-0.93079 0-1.7066-0.63897-1.9297-1.5zm-1.5703 4.5v1h7v-1h-7zm-2 1.5v1c0 0.277 0.223 0.5 0.5 0.5h10c0.277 0 0.5-0.223 0.5-0.5v-1c0 0.277-0.223 0.5-0.5 0.5h-0.75-8.5-0.75c-0.277 0-0.5-0.223-0.5-0.5z" fill="#fff" opacity=".2"/>
 <path id="path25" d="m2.5 1c-0.277 0-0.5 0.223-0.5 0.5v1c0-0.277 0.223-0.5 0.5-0.5h0.75 5.75 1l3 3v-1l-3-3h-7.5zm5 5c-1.1046 0-2 0.89543-2 2 0 0.17379 0.02866 0.33924 0.07031 0.5 0.22311-0.86102 0.99888-1.5 1.9297-1.5 0.93079 0 1.7066 0.63897 1.9297 1.5 0.04165-0.16076 0.07031-0.32622 0.07031-0.5 0-1.1046-0.89543-2-2-2zm-2.5 4c-0.554 0-1 0.446-1 1v1c0-0.554 0.446-1 1-1h0.26953c0.5678 0.6349 1.3787 1 2.2305 1 0.8524-1e-3 1.6642-0.3646 2.2324-1h0.26758c0.554 0 1 0.446 1 1v-1c0-0.554-0.446-1-1-1h-0.26758c-0.47562 0.5318-1.1244 0.8593-1.8223 0.957-0.13266 0.0277-0.26927 0.043-0.41016 0.043s-0.2775-0.0153-0.41016-0.043c-0.69725-0.0975-1.3451-0.4256-1.8203-0.957h-0.26953zm-2 3.75v1c0 0.1385 0.1115 0.25 0.25 0.25h8.5c0.1385 0 0.25-0.1115 0.25-0.25v-1c0 0.1385-0.1115 0.25-0.25 0.25h-0.75-7-0.75c-0.1385 0-0.25-0.1115-0.25-0.25z" opacity=".3"/>
</svg>
