<?xml version="1.0" encoding="UTF-8"?>
<svg id="svg30" width="16" height="16" version="1.1" xmlns="http://www.w3.org/2000/svg" xmlns:cc="http://creativecommons.org/ns#" xmlns:dc="http://purl.org/dc/elements/1.1/" xmlns:rdf="http://www.w3.org/1999/02/22-rdf-syntax-ns#">
 <metadata id="metadata34">
  <rdf:RDF>
   <cc:Work rdf:about="">
    <dc:format>image/svg+xml</dc:format>
    <dc:type rdf:resource="http://purl.org/dc/dcmitype/StillImage"/>
   </cc:Work>
  </rdf:RDF>
 </metadata>
 <defs id="defs7">
  <radialGradient id="gr0" cx="9" cy="10" r="11" gradientTransform="matrix(1 0 0 .63636 0 3.6364)" gradientUnits="userSpaceOnUse">
   <stop id="stop2" stop-opacity=".23529" offset="0"/>
   <stop id="stop4" stop-opacity=".54902" offset="1"/>
  </radialGradient>
 </defs>
 <path id="path9" d="m7.9961 0.96875c-2.6996-0.007243-5.5945 1.115-7.1543 3.5859-1.2053 1.8601-1.1079 4.31 0.1875 6.0879 0.57288 0.8197 1.39 1.3684 2.2109 1.875 0.0334 0.5576-0.31612 1.2074-0.91015 1.7363a1 1.0001 0 0 0 0.73047 1.7441c1.7244-0.1107 3.1356-1.0567 4.2324-2.164 2.2782 0.198 4.6217-0.3733 6.4218-1.836 1.6983-1.3526 2.7121-3.6393 2.0899-5.8808v-0.00196c-0.7063-2.64-3.0795-4.2943-5.4785-4.8672h-2e-3c-0.68676-0.16769-1.3966-0.23582-2.1015-0.25196a1.0001 1.0001 0 0 0-0.22461-0.027344h-0.00196zm0 1c0.7004-1e-4 1.4137 0.0838 2.0937 0.25 2.1188 0.5044 4.1652 1.9678 4.75 4.1562 0.502 1.7917-0.3302 3.715-1.75 4.8438-1.7073 1.3896-4.0184 1.9768-6.1875 1.6562-1.0047 1.115-2.3718 2.026-3.9062 2.125 0.80375-0.7156 1.5257-1.782 1.25-2.9062-0.9441-0.4739-1.8002-1.1596-2.4062-2.0313-1.0511-1.4354-1.1284-3.4724-0.15625-4.9688 1.3271-2.1081 3.894-3.132 6.3125-3.125zm-0.0625 2.1562c-0.30004 0.02326-0.55235 0.14676-0.75 0.34375-0.19765 0.19701-0.30545 0.40243-0.28125 0.65625 0.0242 0.2538 0.17425 0.4613 0.40625 0.625 0.2317 0.1604 0.48125 0.24205 0.78125 0.21875 0.30004-0.02324 0.55573-0.11912 0.75-0.3125 0.1977-0.19699 0.2742-0.43366 0.25-0.6875-0.02419-0.25382-0.14297-0.46129-0.375-0.625-0.22833-0.16395-0.48121-0.24195-0.78125-0.21875zm-0.28125 2.5625c-0.21487 0.01666-0.42205 0.0984-0.65625 0.1875-0.23448 0.08618-0.49553 0.16395-0.75 0.28125l-0.0625 0.40625c0.07562-0.0324 0.17661-0.05605 0.28125-0.09375 0.10789-0.0379 0.20832-0.0545 0.3125-0.0625 0.21161-0.0164 0.3565 0.0037 0.4375 0.0625 0.081 0.05878 0.1093 0.14812 0.125 0.3125 9e-3 0.091 0.0154 0.19894 0 0.3125-0.0124 0.11038-0.0384 0.24894-0.0625 0.375l-0.28125 1.3125c-0.0232 0.1378-0.02525 0.26525-0.03125 0.37495-6e-3 0.107-0.01 0.2098 0 0.3126 0.02519 0.2641 0.17487 0.4685 0.40625 0.625 0.23435 0.1534 0.54683 0.2174 0.9375 0.1874 0.25393-0.0195 0.47004-0.0802 0.65625-0.1562 0.18648-0.0736 0.43861-0.1731 0.75-0.3125l0.0625-0.4063c-0.05311 0.0281-0.12937 0.0518-0.25 0.0938-0.12092 0.038-0.24605 0.0525-0.34375 0.0625-0.20836 0.016-0.347 0.0237-0.4375-0.0313-0.09055-0.055-0.14005-0.1734-0.15625-0.3437-6e-3 -0.0675-0.0135-0.1784 0-0.3125 0.0135-0.13411 0.0397-0.23849 0.0625-0.34375l0.28125-1.3125c0.0282-0.12044 0.03167-0.26434 0.03125-0.40625 3e-3 -0.14216 5e-3 -0.22545 0-0.28125-0.02576-0.27005-0.14744-0.50533-0.375-0.65625-0.22459-0.1541-0.55009-0.2175-0.9375-0.1875z" fill="#fff" opacity=".05"/>
 <path id="base" d="m7.9956 1.9688c-2.4185-0.00696-4.9854 1.0169-6.3125 3.125-0.97216 1.4963-0.89489 3.5334 0.15625 4.9688 0.60607 0.87171 1.4621 1.5574 2.4062 2.0312 0.27571 1.1243-0.44625 2.1906-1.25 2.9062 1.5344-0.09856 2.9015-1.01 3.9062-2.125 2.1691 0.32064 4.4802-0.26657 6.1875-1.6562 1.4197-1.1287 2.252-3.0521 1.75-4.8438-0.58481-2.1885-2.6312-3.6518-4.75-4.1562-0.6801-0.1662-1.393-0.2499-2.0934-0.2498zm-0.0625 2.1562c0.30004-0.023241 0.55292 0.054766 0.78125 0.21875 0.23203 0.16371 0.35081 0.37118 0.375 0.625 0.02419 0.25384-0.05235 0.49051-0.25 0.6875-0.19427 0.19338-0.44996 0.28926-0.75 0.3125-0.3 0.0233-0.5495-0.0583-0.7812-0.2187-0.232-0.1637-0.382-0.3712-0.4062-0.625-0.0242-0.25382 0.0836-0.45924 0.28125-0.65625 0.19765-0.19699 0.44996-0.32049 0.75-0.34375zm-0.28125 2.5625c0.38741-0.030015 0.71291 0.033398 0.9375 0.1875 0.22756 0.15092 0.34924 0.3862 0.375 0.65625 0.0053 0.055777 0.0029 0.13909 0 0.28125 4.22e-4 0.14191-0.0034 0.28581-0.03125 0.40625l-0.28125 1.3125c-0.02276 0.10526-0.04905 0.20964-0.0625 0.34375-0.01348 0.13411-0.0064 0.24498 0 0.3125 0.01623 0.17026 0.06573 0.28866 0.15625 0.34375 0.09052 0.05506 0.22914 0.0474 0.4375 0.03125 0.09767-0.0076 0.22283-0.02356 0.34375-0.0625 0.12063-0.04188 0.19689-0.06598 0.25-0.09375l-0.0625 0.40625c-0.31139 0.13945-0.56352 0.2389-0.75 0.3125-0.18621 0.07653-0.40232 0.13657-0.65625 0.15625-0.39067 0.03027-0.70315-0.03415-0.9375-0.1875-0.23138-0.15654-0.38106-0.36082-0.40625-0.625-0.0099-0.10274-0.0062-0.20556 0-0.3125 0.0059-0.10987 0.0083-0.2372 0.03125-0.375l0.28125-1.3125c0.02406-0.12606 0.05007-0.26462 0.0625-0.375 0.01536-0.11356 0.0087-0.2215 0-0.3125-0.01567-0.16438-0.04397-0.25372-0.125-0.3125-0.08103-0.058771-0.22589-0.078893-0.4375-0.0625-0.10418 0.00807-0.20461 0.024574-0.3125 0.0625-0.10464 0.037686-0.20563 0.061284-0.28125 0.09375l0.0625-0.40625c0.25447-0.1173 0.51552-0.19507 0.75-0.28125 0.2342-0.089114 0.44138-0.17084 0.65625-0.1875z" fill="url(#gr0)"/>
 <path id="path15" d="m7.9961 1.9688c-2.4185-7e-3 -4.9854 1.0169-6.3125 3.125-0.97216 1.4963-0.89489 3.5334 0.15625 4.9688 0.60607 0.8717 1.4622 1.5574 2.4062 2.0313 0.27571 1.1242-0.44625 2.1906-1.25 2.9062 1.5344-0.099 2.9016-1.01 3.9062-2.125 2.1691 0.3206 4.4802-0.2666 6.1875-1.6562 1.4198-1.1288 2.252-3.0521 1.75-4.8438-0.5848-2.1885-2.6312-3.6518-4.75-4.1562-0.68001-0.1662-1.3933-0.2501-2.0937-0.25zm-0.00195 0.5a0.50005 0.50005 0 0 1 0.00195 0c0.66052-9e-5 1.3352 0.08007 1.9746 0.23633a0.50005 0.50005 0 0 1 0.00196 0c1.9774 0.47074 3.8587 1.8377 4.3828 3.7988a0.50005 0.50005 0 0 0 0.0019 0.00586c0.4382 1.5639-0.3024 3.3026-1.5801 4.3183a0.50005 0.50005 0 0 0-0.0039 2e-3c-1.5894 1.2937-3.7679 1.851-5.7988 1.5508a0.50005 0.50005 0 0 0-0.44336 0.1601c-0.60211 0.6682-1.3585 1.1581-2.1621 1.5117 0.34519-0.6195 0.54931-1.3115 0.36133-2.0781a0.50005 0.50005 0 0 0-0.25977-0.3281c-0.87954-0.4414-1.6704-1.0777-2.2207-1.8692a0.50005 0.50005 0 0 0-0.00781-0.00976c-0.92482-1.2629-0.99324-3.09-0.14063-4.4024a0.50005 0.50005 0 0 0 0.00391-0.00585c1.2111-1.9239 3.6123-2.8972 5.8887-2.8906zm-0.09961 1.1582a0.50005 0.50005 0 0 0-0.3125 0.14258 0.50005 0.50005 0 0 1-0.00195 0.00195c-0.27194 0.08161-0.55674 0.15113-0.75 0.34375-0.25635 0.25552-0.46572 0.63779-0.42578 1.0566 0.04028 0.42251 0.30356 0.7664 0.61523 0.98632a0.50005 0.50005 0 0 0 0.00391 0.00391c0.09477 0.06561 0.23453 0.04857 0.34375 0.0957-0.19111 0.04493-0.38667 0.08814-0.54492 0.14844l-0.00391 0.00195c-0.21267 0.07796-0.48655 0.15909-0.78125 0.29492a0.50005 0.50005 0 0 0-0.28516 0.37696l-0.0625 0.40625a0.50005 0.50005 0 0 0 0.69141 0.53515c0.00804-0.00345 0.11342-0.03214 0.25195-0.08203l-0.00195 0.00196c0.05912-0.02079 0.10903-0.03119 0.18555-0.03711 0.03996-0.0031-8e-5 -0.01012 0.02539-0.00782 0.00213 0.04606 0.00664 0.09616 0.00195 0.13086a0.50005 0.50005 0 0 0-0.00195 0.00977c-0.00865 0.07678-0.03168 0.20509-0.05469 0.32617l-0.00195 0.01172-0.2793 1.3008a0.50005 0.50005 0 0 0-0.00391 0.02344c-0.03008 0.18064-0.03198 0.33118-0.03711 0.42778-0.00657 0.1133-0.01187 0.2432 0.00196 0.3886v2e-3c0.04126 0.4254 0.30782 0.7769 0.62304 0.9902a0.50005 0.50005 0 0 0 0.00782 0.0039c0.35106 0.2297 0.78438 0.3037 1.25 0.2676 0.30794-0.0239 0.57485-0.0971 0.80078-0.1895 9.7e-4 -3e-4 0.00293-0.0015 0.0039-0.0019h0.00196c0.18612-0.0735 0.44371-0.1751 0.76367-0.3184a0.50005 0.50005 0 0 0 0.29103-0.3808l0.0625-0.4063a0.50005 0.50005 0 0 0-0.72658-0.51951c0.01493-0.0078-0.05827 0.02077-0.17187 0.06051-0.06304 0.0203-0.15189 0.0351-0.22852 0.0411-0.08298 0.0064-0.02465 0.018-0.05664 0.0156-0.00257-0.0458-0.00841-0.09005-0.00195-0.15432 0.00956-0.09537 0.02955-0.1728 0.05468-0.28906l0.2793-1.3047c0.04427-0.19146 0.04535-0.36035 0.04492-0.50976 0.00287-0.14052 0.00913-0.22129-0.00195-0.33789-0.0372-0.39002-0.23859-0.78543-0.5957-1.0234-0.13719-0.09327-0.32481-0.05868-0.48242-0.10352 0.28888-0.0638 0.58552-0.12755 0.80664-0.34765 0.29376-0.29279 0.4329-0.70568 0.39648-1.0879-0.03636-0.38154-0.25779-0.75222-0.58594-0.98438v-0.00195c-0.30886-0.22062-0.70144-0.34004-1.1074-0.3086zm0.03906 0.49805c0.30004-0.0232 0.55292 0.0548 0.78125 0.21875 0.23203 0.16371 0.35081 0.37118 0.375 0.625 0.0242 0.25384-0.0523 0.49051-0.25 0.6875-0.19427 0.19338-0.44996 0.28926-0.75 0.3125-0.3 0.0233-0.54955-0.05835-0.78125-0.21875-0.232-0.1637-0.38205-0.3712-0.40625-0.625-0.0242-0.25382 0.0836-0.45924 0.28125-0.65625 0.19765-0.19699 0.44996-0.32049 0.75-0.34375zm-0.28125 2.5625c0.38741-0.03 0.71291 0.0334 0.9375 0.1875 0.22756 0.15092 0.34924 0.3862 0.375 0.65625 5e-3 0.0558 3e-3 0.13909 0 0.28125 4.2e-4 0.14191-0.00305 0.28581-0.03125 0.40625l-0.28125 1.3125c-0.0228 0.10526-0.049 0.20964-0.0625 0.34375-0.0135 0.1341-6e-3 0.245 0 0.3125 0.0162 0.1703 0.0657 0.2887 0.15625 0.3437 0.0905 0.055 0.22914 0.0473 0.4375 0.0313 0.0977-0.01 0.22283-0.0245 0.34375-0.0625 0.12063-0.042 0.19689-0.0657 0.25-0.0938l-0.0625 0.4063c-0.31139 0.1394-0.56352 0.2389-0.75 0.3125-0.18621 0.076-0.40232 0.1367-0.65625 0.1562-0.39067 0.03-0.70315-0.034-0.9375-0.1874-0.23138-0.1565-0.38106-0.3609-0.40625-0.625-0.01-0.1028-6e-3 -0.2056 0-0.3126 6e-3 -0.1097 0.00805-0.23715 0.03125-0.37495l0.28125-1.3125c0.0241-0.12606 0.0501-0.26462 0.0625-0.375 0.0154-0.11356 9e-3 -0.2215 0-0.3125-0.0157-0.16438-0.044-0.25372-0.125-0.3125-0.081-0.0588-0.22589-0.0789-0.4375-0.0625-0.10418 8e-3 -0.20461 0.0246-0.3125 0.0625-0.10464 0.0377-0.20563 0.06135-0.28125 0.09375l0.0625-0.40625c0.25447-0.1173 0.51552-0.19507 0.75-0.28125 0.2342-0.0891 0.44138-0.17084 0.65625-0.1875z" opacity=".3"/>
 <path id="path20" d="m7.9336 4.125c-0.30004 0.02326-0.55235 0.14676-0.75 0.34375-0.19765 0.19701-0.30545 0.40243-0.28125 0.65625 0.01598 0.16758 0.10179 0.30762 0.21485 0.43555 0.02532-0.02987 0.03695-0.06244 0.0664-0.0918 0.19765-0.19699 0.44996-0.32049 0.75-0.34375 0.30004-0.0232 0.55292 0.0548 0.78125 0.21875 0.08525 0.06014 0.13972 0.13299 0.19532 0.20508 0.13123-0.17452 0.19983-0.36878 0.17968-0.58008-0.02419-0.25382-0.14297-0.46129-0.375-0.625-0.22833-0.16395-0.48121-0.24195-0.78125-0.21875zm-0.61132 2.6309c-0.10561 0.03329-0.21172 0.07559-0.32618 0.11914-0.23448 0.08618-0.49553 0.16395-0.75 0.28125l-0.0625 0.40625c0.07562-0.0324 0.17661-0.05605 0.28125-0.09375 0.10789-0.0379 0.20832-0.0545 0.3125-0.0625 0.21161-0.0164 0.3565 0.0037 0.4375 0.0625 0.07532 0.05465 0.10272 0.14191 0.11914 0.28516 0.10662-0.03306 0.21218-0.05818 0.31836-0.06641 0.38741-0.03 0.71291 0.0334 0.9375 0.1875 0.16986 0.11265 0.26235 0.28077 0.31836 0.4668l0.02539-0.12305c0.0282-0.12044 0.03167-0.26434 0.03125-0.40625 3e-3 -0.14216 5e-3 -0.22545 0-0.28125-0.02576-0.27005-0.14744-0.50533-0.375-0.65625-0.01409-0.00967-0.0359-0.01253-0.05078-0.02148-0.13583 0.06139-0.28343 0.10239-0.44922 0.11523-0.29451 0.02287-0.53946-0.05826-0.76757-0.21289zm-6.2871 1.1504c-0.13358 1.1003 0.13977 2.2482 0.80468 3.1562 0.60441 0.8693 1.4574 1.5537 2.3984 2.0273 0.07417-0.3218 0.09135-0.6554 0.00781-0.996-0.9441-0.4739-1.8002-1.1596-2.4062-2.0313-0.46419-0.63389-0.72684-1.3861-0.80468-2.1562zm13.91 0.03516c-0.1482 1.2713-0.8472 2.4758-1.8555 3.2774-1.7073 1.3896-4.0184 1.9768-6.1875 1.6562-0.79234 0.8793-1.8135 1.6238-2.9609 1.9512-0.24554 0.4428-0.57991 0.8485-0.94532 1.1738 1.5344-0.099 2.9016-1.01 3.9062-2.125 2.1691 0.3206 4.4802-0.2666 6.1875-1.6562 1.2711-1.0105 2.0621-2.6578 1.8555-4.2774zm-7.6816 0.59375-0.26758 1.2461c-0.0232 0.1378-0.02525 0.26525-0.03125 0.37495-6e-3 0.107-0.01 0.2098 0 0.3126 0.00619 0.0648 0.04 0.116 0.06055 0.1738l0.25195-1.1738c0.0241-0.12606 0.0501-0.26462 0.0625-0.375 0.0154-0.11356 9e-3 -0.2215 0-0.3125-0.01124-0.11776-0.03724-0.189-0.07617-0.24609zm2.5137 1.871c-0.05311 0.0281-0.12937 0.0518-0.25 0.0938-0.12092 0.038-0.24605 0.0525-0.34375 0.0625-0.20836 0.016-0.347 0.0237-0.4375-0.0313-0.03144-0.019-0.05235-0.0559-0.07421-0.0898l-0.01954 0.0898c-0.0228 0.1053-0.049 0.2097-0.0625 0.3438s-6e-3 0.245 0 0.3125c0.00176 0.0185 0.00721 0.0296 0.00977 0.0469 0.13187-0.0289 0.25568-0.0647 0.36523-0.1094 0.18648-0.0736 0.43861-0.1731 0.75-0.3125l0.0625-0.4063z" fill="#fff" opacity=".2"/>
 <path id="path25" d="m7.9961 1.9688c-2.4185-7e-3 -4.9854 1.0169-6.3125 3.125-0.54284 0.83552-0.74686 1.8386-0.64843 2.8125 0.07759-0.63914 0.29123-1.2627 0.64843-1.8125 1.3271-2.1081 3.894-3.132 6.3125-3.125 0.7004-1e-4 1.4137 0.0838 2.0937 0.25 2.1188 0.5044 4.1652 1.9678 4.75 4.1562 0.0526 0.18766 0.0813 0.37692 0.1055 0.56641 0.0605-0.51891 0.0401-1.0471-0.1055-1.5664-0.5848-2.1885-2.6312-3.6518-4.75-4.1562-0.68001-0.1662-1.3933-0.2501-2.0937-0.25zm0.91407 3.5801c-0.02642 0.03513-0.03718 0.07441-0.07032 0.10742-0.19427 0.19338-0.44996 0.28926-0.75 0.3125-0.3 0.0233-0.54955-0.05835-0.78125-0.21875-0.07881-0.05561-0.13323-0.12363-0.1914-0.18945-0.14461 0.17053-0.23544 0.34846-0.21485 0.56445 0.0242 0.2538 0.17425 0.4613 0.40625 0.625 0.00424 0.00293 0.00943 0.00298 0.01368 0.00586 0.11047-0.03483 0.22022-0.05984 0.33007-0.06836 0.3631-0.02812 0.6645 0.03227 0.88672 0.16602 0.10999-0.04972 0.21386-0.11074 0.30078-0.19727 0.1977-0.19699 0.2742-0.43366 0.25-0.6875-0.0153-0.16057-0.08394-0.29579-0.17968-0.41992zm-1.5801 2.2051c-0.10793 0.03365-0.21689 0.07654-0.33399 0.12109-0.23448 0.08618-0.49553 0.16395-0.75 0.28125l-0.0625 0.40625c0.07562-0.0324 0.17661-0.05605 0.28125-0.09375 0.10789-0.0379 0.20832-0.0545 0.3125-0.0625 0.21161-0.0164 0.3565 0.0037 0.4375 0.0625 0.02298 0.01667 0.03342 0.04381 0.04883 0.06641l0.01367-0.06641c0.0241-0.12606 0.0501-0.26462 0.0625-0.375 0.0154-0.11356 9e-3 -0.2215 0-0.3125-0.0011-0.01154-0.00462-0.01653-0.00586-0.02734-0.00125 3.9e-4 -0.00265-4e-4 -0.0039 0zm1.5781 0.58789-0.25586 1.1894c-0.0228 0.10526-0.049 0.20964-0.0625 0.34375-0.0135 0.1341-6e-3 0.245 0 0.3125 0.01058 0.1112 0.04093 0.1902 0.08204 0.2539l0.26171-1.2226c0.0282-0.12044 0.03167-0.26434 0.03125-0.40625 3e-3 -0.14216 5e-3 -0.22545 0-0.28125-0.00653-0.06848-0.0376-0.12625-0.05664-0.18945zm-1.8828 2.3008-0.0293 0.1386c-0.0232 0.1379-0.02525 0.2653-0.03125 0.375-6e-3 0.107-0.01 0.2098 0 0.3126 0.02519 0.2641 0.17487 0.4685 0.40625 0.625 0.23435 0.1534 0.54683 0.2174 0.9375 0.1874 0.25393-0.0195 0.47004-0.0802 0.65625-0.1562 0.18648-0.0736 0.43861-0.1731 0.75-0.3125l0.0625-0.4063c-0.05311 0.028-0.12937 0.0518-0.25 0.0938-0.12092 0.038-0.24605 0.0525-0.34375 0.0625-0.20836 0.016-0.347 0.0237-0.4375-0.0313-0.08071-0.049-0.12551-0.1552-0.14648-0.2968-0.09227 0.0202-0.18648 0.0388-0.29102 0.0468-0.39067 0.03-0.70315-0.034-0.9375-0.1874-0.17458-0.1181-0.28253-0.2735-0.3457-0.4512zm-2.7871 2.4472c-0.17061 0.7405-0.68196 1.4114-1.2422 1.9102 0.32432-0.0209 0.63779-0.0861 0.94532-0.1738 0.29455-0.5312 0.45505-1.1193 0.30468-1.7324-0.00259-0.0014-0.00522-0.0027-0.00781-4e-3z" opacity=".3"/>
</svg>
