<?xml version="1.0" encoding="UTF-8"?>
<svg id="svg30" width="16" height="16" version="1.1" xmlns="http://www.w3.org/2000/svg" xmlns:cc="http://creativecommons.org/ns#" xmlns:dc="http://purl.org/dc/elements/1.1/" xmlns:rdf="http://www.w3.org/1999/02/22-rdf-syntax-ns#">
 <metadata id="metadata34">
  <rdf:RDF>
   <cc:Work rdf:about="">
    <dc:format>image/svg+xml</dc:format>
    <dc:type rdf:resource="http://purl.org/dc/dcmitype/StillImage"/>
   </cc:Work>
  </rdf:RDF>
 </metadata>
 <defs id="defs7">
  <radialGradient id="gr0" cx="9" cy="10" r="11" gradientTransform="matrix(1 0 0 .72727 0 2.7273)" gradientUnits="userSpaceOnUse">
   <stop id="stop2" stop-opacity=".23529" offset="0"/>
   <stop id="stop4" stop-opacity=".54902" offset="1"/>
  </radialGradient>
 </defs>
 <path id="path9" d="m7.998 0c-0.65477-6.0692e-17 -1.3244 0.27025-1.8125 0.77539l-5.4356 5.625c-0.48098 0.49767-0.74019 1.1443-0.75 1.8066-6.156e-4 0.04328 2.1684e-19 0.04875 0 0.04688 5.2896e-4 0.37356 0.17649 0.80887 0.44531 1.0684 0.26924 0.25989 0.55853 0.36543 0.8086 0.43164 0.44735 0.11843 0.83638 0.11547 1.209 0.1289-0.32135 0.23699-0.71289 0.60319-0.71289 1.1152 0 0.3574 0.17716 0.7639 0.41992 1 0.03878 0.0378 0.07612 0.0332 0.11524 0.0645-0.11266 0.1059-0.25821 0.1138-0.35547 0.2813-0.14157 0.2435-0.25943 0.6669-0.09766 1.0781 0.16178 0.4112 0.50994 0.6319 0.7832 0.7343 0.41486 0.1556 0.88736 0.1492 1.2305 0.0508 0.31912-0.0914 0.52377-0.2163 0.70118-0.3125a1 1.0001 0 0 0 0.16796 0.2325c0.55045 0.5695 1.137 0.5791 1.3926 0.6464 0.07163 0.0189 0.05978 0.0164 0.08203 0.0254-0.01888-0.0505-0.04506-0.098-0.05859-0.1504 0.00712 0.0276 0.09056 0.1476 0.12305 0.17 0.01427 0.0098-0.04701-0.0125-0.06446-0.0196 0.15472 0.4141 0.46986 0.766 0.81446 0.9492 0.38664 0.2057 0.77962 0.2589 1.1543 0.252 0.74936-0.0137 1.4723-0.2612 2.0898-0.7188a1.0001 1.0001 0 0 0 0.125-0.1093c0.2634-0.2726 0.3619-0.8534 0.2696-1.2559 0.1761-0.0406 0.3305-0.0739 0.539-0.1289 0.3515-0.0926 0.7301-0.2023 1.1172-0.4531 0.3109-0.2014 0.5364-0.6646 0.6621-1.1309 0.3834 0.1547 0.8085 0.2962 1.3008 0.3223 0.2646 0.014 0.5567 0.0079 0.8965-0.1406 0.3399-0.1486 0.7131-0.5455 0.8066-0.9786 0.1141-0.5267-0.1871-1.1945-0.5586-1.457-0.1402-0.09913-0.2522-0.07382-0.3828-0.1211 0.2134-0.13628 0.4766-0.23819 0.6387-0.44921 0.3033-0.39481 0.338-0.90651 0.3359-1.1348 1e-4 0.0088 0-0.00749 0-0.02148a1.0001 1.0001 0 0 0 0-0.01368c-0.0087-0.66461-0.2696-1.3115-0.75-1.8086l-5.4355-5.625c-0.48817-0.50525-1.1578-0.77539-1.8125-0.77539a1.0001 1.0001 0 0 0-0.00195 0zm0 1h0.00195c0.3992 0 0.78785 0.15215 1.0938 0.46875l5.4356 5.627c0.2999 0.31028 0.4587 0.72207 0.4687 1.127 0 0.0085-1e-4 0.02129 0 0.02929 0.0036 0.40155-0.0272 0.62649-0.955 1.0625-2.3204 0.64106-3.0372 0.46121-2.9922 1.1054 0.0129 0.7606 0.8583 0.8467 1.0722 1.4903-0.0162 1.0245-2.2676 0.9335-2.7207 1.4023s0.70506 0.6972 0.25196 1.166c-0.8548 0.6329-2.331 0.7844-2.5547-0.0801-0.1958-0.7567-1.2129-0.498-1.666-0.9668-0.24044-0.7206 1.1146-0.6033 0.79688-1.3789-0.7735-0.7756-3.4805-0.1138-3.4805-1.0547 0-0.8019 1.9265-0.4548 1.7695-1.2519-0.29-1.4728-3.5196-0.28748-3.5195-1.4922 0-0.0068-8.7e-5 -0.02525 0-0.03125 6e-3 -0.4049 0.16895-0.81676 0.46875-1.127l5.4356-5.627c0.3059-0.31657 0.6945-0.46875 1.0938-0.46875zm0.11718 1.1856c-0.4036-0.0032-0.53879 0.1351-0.71289 0.3125l-2.2656 2.3164-0.38281 0.50391 1.4414 0.85937 0.50196-1.8965 0.80664 1.2207 0.93945-1.2637 2.0957 1.1406s0.4058-0.36301 0.123-0.74219c-1.0053-1.0436-2.1357-2.4472-2.5469-2.4512zm-0.09961 1.1152c0.00697 0.00626 0.01817 0.01684 0.0254 0.02344a1.0001 1.0001 0 0 0-0.09571 0.04883l0.07031-0.07227zm6.3399 7.3281c0.3318 0.0123 0.7198 0.1649 0.6328 0.5664-0.1157 0.5356-1.0997 0.33-1.7363 0.0625-0.0579-0.5352 0.6602-0.5546 0.8085-0.5976 0.0787-0.021 0.1844-0.0313 0.295-0.0313zm-1.916 0.082c-9e-3 0.0237-0.0117 0.0463-0.0196 0.0703-0.0153-0.0126-0.0283-0.0429-0.0429-0.0546 0.0142-3e-3 0.0476-0.0126 0.0625-0.0157zm-8.7481 1.7012c0.37864 0.0334 0.74197 0.2551 0.79687 0.2441 0.02859 0.0809 0.03804 0.1203-0.35742 0.3301-0.39538 0.2101-0.71299 0.4036-1.1641 0.2344-0.45102-0.1691-0.12728-0.5777 0.35547-0.7617 0.12072-0.048 0.24292-0.0579 0.36914-0.0469z" fill="#fff" fill-rule="evenodd" opacity=".05"/>
 <path id="base" d="m7.999 1c-0.39925 0-0.7879 0.15302-1.0938 0.46959l-5.4369 5.6265c-0.2998 0.3102-0.4623 0.7211-0.4683 1.126-8.747e-5 0.00615 0 0.024092 0 0.030848-5.247e-5 1.2047 3.2291 0.019876 3.5191 1.4927 0.15698 0.79716-1.769 0.4508-1.769 1.2528 0 0.94085 2.7063 0.27842 3.4798 1.054 0.31772 0.77558-1.0369 0.65896-0.79646 1.3796 0.45309 0.46884 1.4706 0.20982 1.6664 0.9666 0.22364 0.86446 1.6987 0.7119 2.5535 0.07883 0.45309-0.4688-0.70434-0.69659-0.25124-1.1654s2.7047-0.37741 2.7209-1.4019c-0.21386-0.64359-1.0587-0.73036-1.0716-1.491-0.04515-0.64418 0.67059-0.46434 2.991-1.1054 0.92784-0.43601 0.95897-0.65935 0.95541-1.0609-7e-5 -0.0079 0-0.022337 0-0.030848-0.0053-0.40489-0.16846-0.81572-0.4683-1.126l-5.4362-5.6264c-0.3059-0.3166-0.6946-0.4696-1.0938-0.4696zm0.11622 1.186c0.41116 0.00351 1.5413 1.4072 2.5466 2.4508 0.28276 0.37918-0.12306 0.74209-0.12306 0.74209l-2.0957-1.1398-0.94 1.2631-0.805-1.2219-0.5025 1.8972-1.4408-0.8587 0.3812-0.5038 2.2663-2.3171c0.1741-0.1774 0.3091-0.3151 0.7127-0.3119zm6.2401 8.4423c-0.11058-0.0035-0.2153 0.0087-0.29397 0.03085-0.14832 0.04282-0.868 0.06281-0.81013 0.59812 0.63657 0.26755 1.6208 0.47368 1.7365-0.0617 0.0869-0.40144-0.30058-0.55499-0.63238-0.56728zm-10.663 1.783c-0.12622-0.01114-0.25016 0.0019-0.37088 0.04799-0.48275 0.18406-0.80652 0.59178-0.3555 0.76093 0.45107 0.16913 0.77022-0.02327 1.1656-0.23308 0.39546-0.20985 0.3858-0.2498 0.35721-0.33077-0.054867 0.01097-0.41782-0.21172-0.79646-0.24508z" fill="url(#gr0)" fill-rule="evenodd"/>
 <path id="path15" d="m7.998 1c-0.39925 0-0.78785 0.15218-1.0938 0.46875l-5.4356 5.627c-0.2998 0.3102-0.46275 0.72206-0.46875 1.127-8.7e-5 6e-3 0 0.02445 0 0.03125-5.2e-5 1.2047 3.2295 0.01938 3.5195 1.4922 0.15698 0.79711-1.7695 0.45001-1.7695 1.2519 0 0.9409 2.707 0.2791 3.4805 1.0547 0.31772 0.7756-1.0373 0.6583-0.79688 1.3789 0.45309 0.4688 1.4702 0.2101 1.666 0.9668 0.22364 0.8645 1.6999 0.713 2.5547 0.0801 0.4531-0.4688-0.70506-0.6972-0.25196-1.166s2.7045-0.3778 2.7207-1.4023c-0.2139-0.6436-1.0593-0.7297-1.0722-1.4903-0.045-0.64424 0.6718-0.46439 2.9922-1.1054 0.9278-0.43601 0.9586-0.66095 0.955-1.0625-1e-4 -8e-3 0-0.02079 0-0.02929-0.01-0.40489-0.1688-0.81668-0.4687-1.127l-5.4356-5.627c-0.3059-0.3166-0.69455-0.46875-1.0938-0.46875h-0.00195zm0 0.5a0.50005 0.50005 0 0 1 0.00195 0c0.27144 0 0.51961 0.09413 0.73438 0.31641l5.4355 5.627c0.2096 0.21686 0.3245 0.51013 0.3281 0.78516 0 0.00678-1e-4 0.01575 0 0.02929 0.0017 0.18704 8e-3 0.16364-0.0253 0.20703-0.0319 0.04153-0.2193 0.18763-0.6153 0.37891-1.0928 0.29797-1.8176 0.41208-2.3183 0.53711-0.2561 0.06394-0.4798 0.12029-0.6934 0.30469-0.2109 0.18204-0.3035 0.50965-0.2891 0.75975 0.0182 0.5537 0.3778 0.9352 0.6368 1.1485 0.2126 0.175 0.3003 0.2743 0.3691 0.3847-0.0154 0.0259-0.0026 0.0475-0.0801 0.0977-0.1371 0.0888-0.3931 0.1832-0.6836 0.2597-0.2904 0.0766-0.613 0.141-0.91208 0.2207-0.2991 0.0798-0.58102 0.1364-0.84375 0.4082-0.20126 0.2083-0.29111 0.6005-0.19336 0.8457 0.07808 0.1959 0.17555 0.2719 0.25977 0.3516-0.31317 0.1696-0.67442 0.3323-0.97852 0.3379-0.19034 0.0035-0.34251-0.0329-0.42383-0.0762-0.08132-0.0432-0.10141-0.0667-0.12305-0.1504-0.07698-0.2975-0.26921-0.546-0.48046-0.6914-0.21125-0.1453-0.42557-0.2083-0.61329-0.2578-0.20313-0.0535-0.25472-0.0892-0.37695-0.1308 0.13943-0.0819 0.33259-0.1778 0.49805-0.4082s0.20704-0.6168 0.08203-0.9219a0.50005 0.50005 0 0 0-0.10938-0.1641c-0.32145-0.3223-0.73357-0.4307-1.1406-0.5-0.40705-0.0692-0.83004-0.0872-1.2109-0.1113-0.35111-0.0222-0.645-0.0579-0.83008-0.1055 0.10837-0.0403 0.23135-0.0831 0.41016-0.1269 0.23233-0.057 0.48774-0.1065 0.74805-0.2578 0.13015-0.0757 0.26971-0.1878 0.36523-0.3614 0.09552-0.1735 0.12167-0.3965 0.08399-0.58786-0.10894-0.55325-0.56402-0.91541-1.0039-1.0625s-0.90399-0.16797-1.332-0.1875-0.82629-0.03794-1.0371-0.09375c-0.09578-0.02536-0.12993-0.05219-0.13672-0.05664 2e-5 -0.01025 9e-5 -0.02239 0-0.01758 0.00409-0.27618 0.11892-0.57065 0.32812-0.78711l5.4375-5.627c0.2148-0.22229 0.46093-0.31641 0.73243-0.31641zm6.3574 9.1289c-0.1106 0-0.2163 0.0103-0.295 0.0313-0.1483 0.043-0.8664 0.0624-0.8085 0.5976 0.6366 0.2675 1.6206 0.4731 1.7363-0.0625 0.087-0.4015-0.301-0.5541-0.6328-0.5664zm-10.664 1.7832c-0.12622-0.011-0.24842-0.0011-0.36914 0.0469-0.48275 0.184-0.80649 0.5926-0.35547 0.7617 0.45107 0.1692 0.76868-0.0243 1.1641-0.2344 0.39546-0.2098 0.38601-0.2492 0.35742-0.3301-0.0549 0.011-0.41823-0.2107-0.79687-0.2441z" fill-rule="evenodd" opacity=".3"/>
 <path id="path20" d="m8.1152 2.1856c-0.4036-0.0032-0.53879 0.1351-0.71289 0.3125l-2.2656 2.3164-0.38281 0.50391 0.54882 0.32617 2.0996-2.1465c0.1741-0.1774 0.30929-0.3157 0.71289-0.3125 0.36213 0.00352 1.2884 1.0938 2.1895 2.0664l0.2344 0.12696s0.4058-0.36301 0.123-0.74219c-1.0053-1.0436-2.1357-2.4472-2.5469-2.4512zm-6.9805 6.4141c-0.08534 0.19908-0.13164 0.41214-0.13477 0.62305-8.7e-5 6e-3 0 0.02445 0 0.03125-4.4e-5 1.0097 2.2628 0.34473 3.168 0.96879 0.2359-0.0958 0.40068-0.22721 0.35156-0.47661-0.25428-1.2914-2.7694-0.53908-3.3848-1.1465zm13.764 0.10742c-0.1072 0.18098-0.3315 0.36119-0.8554 0.60742-2.3204 0.64106-3.0372 0.46121-2.9922 1.1054 0.0043 0.2541 0.1145 0.4227 0.25 0.5723 0.3701-0.1854 1.1941-0.25 2.7422-0.6777 0.9278-0.43604 0.9586-0.661 0.955-1.0626-1e-4 -8e-3 0-0.02079 0-0.02929-0.0042-0.17382-0.0411-0.34805-0.0996-0.51563zm-11.59 2.7676c-0.30901 0.0979-0.55859 0.2368-0.55859 0.5234 0 0.2637 0.22402 0.3959 0.54688 0.4747 0.00933-0.0038 0.01593-0.0101 0.02539-0.0137 0.12072-0.048 0.24292-0.0579 0.36914-0.0469 0.27943 0.0247 0.50752 0.1286 0.65234 0.1895 0.51615 0.0315 1.0543 0.062 1.457 0.205 0.29009-0.1715 0.60188-0.3335 0.42969-0.7539-0.55434-0.5558-2.0897-0.3799-2.9219-0.5781zm11.047 0.1543c-0.1106 0-0.2163 0.0103-0.295 0.0313-0.1483 0.043-0.8664 0.0624-0.8085 0.5976 0.6366 0.2675 1.6206 0.4731 1.7363-0.0625 0.087-0.4015-0.301-0.5541-0.6328-0.5664zm-2.5567 0.8262c-0.6389 0.4633-2.0472 0.496-2.3965 0.8574-0.32839 0.3398 0.18107 0.5541 0.31836 0.8242 0.7661-0.288 2.3886-0.3553 2.4023-1.2265-0.0637-0.1919-0.187-0.3296-0.3242-0.4551zm-8.1074 0.957c-0.12622-0.011-0.24842-0.0011-0.36914 0.0469-0.48275 0.184-0.80649 0.5926-0.35547 0.7617 0.45107 0.1692 0.76868-0.0243 1.1641-0.2344 0.39546-0.2098 0.38601-0.2492 0.35742-0.3301-0.0549 0.011-0.41823-0.2107-0.79687-0.2441zm2.2695 0.2891c-0.293 0.1841-0.66299 0.3239-0.52735 0.7304 0.45309 0.4688 1.4702 0.2101 1.666 0.9668 0.22364 0.8645 1.6999 0.713 2.5547 0.0801 0.32272-0.3339-0.16117-0.547-0.3086-0.8105-0.86182 0.4619-2.0473 0.499-2.2461-0.2696-0.13683-0.5288-0.67232-0.5655-1.1387-0.6972z" fill="#fff" fill-rule="evenodd" opacity=".2"/>
 <path id="path25" d="m7.998 1c-0.39925 0-0.78785 0.15218-1.0938 0.46875l-5.4356 5.627c-0.2998 0.3102-0.46275 0.72206-0.46875 1.127-8.7e-5 6e-3 0 0.02445 0 0.03125-6e-6 0.14836 0.04834 0.26039 0.13477 0.3457 0.07849-0.18312 0.19034-0.35528 0.33398-0.50391l5.4356-5.627c0.3059-0.31657 0.6945-0.46875 1.0938-0.46875h0.00195c0.3992 0 0.78785 0.15215 1.0938 0.46875l5.4356 5.627c0.1712 0.17709 0.2914 0.38854 0.3691 0.61133 0.0827-0.13949 0.1012-0.2803 0.0996-0.45508-1e-4 -8e-3 0-0.02079 0-0.02929-0.01-0.40489-0.1688-0.81668-0.4687-1.127l-5.4356-5.627c-0.3059-0.3166-0.69455-0.46875-1.0938-0.46875h-0.00195zm0.44531 3.2383-0.93945 1.2637-0.80664-1.2207-0.50196 1.8965-0.89258-0.5332-0.16601 0.16992-0.38281 0.50391 1.4414 0.85937 0.50196-1.8965 0.80664 1.2207 0.93945-1.2637 2.0957 1.1406s0.4058-0.36301 0.123-0.74219c-0.1199-0.12447-0.2354-0.25306-0.3574-0.38477l-1.8613-1.0137zm-4.2754 5.9844c-0.51809 0.2102-1.418 0.2243-1.418 0.7753 0 0.2666 0.22959 0.3983 0.55859 0.4766 0.5556-0.176 1.3118-0.2163 1.2109-0.7285-0.04695-0.2385-0.1767-0.4029-0.35156-0.5234zm10.188 0.4062c-0.1106 0-0.2163 0.0103-0.295 0.0313-0.1483 0.043-0.8664 0.0624-0.8085 0.5976 0.6366 0.2675 1.6206 0.4731 1.7363-0.0625 0.087-0.4015-0.301-0.5541-0.6328-0.5664zm-3.0547 0.3633c-0.1847 0.0925-0.265 0.2133-0.25 0.4277 9e-3 0.5339 0.4251 0.7397 0.748 1.0352 0.19-0.1378 0.3205-0.3102 0.3242-0.5449-0.1424-0.4286-0.5522-0.6199-0.8222-0.918zm-8.0039 1.4805c-0.46695 0.1888-0.77226 0.5822-0.33008 0.748 0.45107 0.1692 0.76868-0.0243 1.1641-0.2344 0.39546-0.2098 0.38601-0.2492 0.35742-0.3301-0.01438 0.0029-0.09311-0.033-0.14453-0.0546-0.39306-0.0241-0.75767-0.0584-1.0469-0.1289zm2.5039 0.3339c-0.24517 0.145-0.47732 0.295-0.36719 0.625 0.13646 0.1412 0.32636 0.2128 0.52735 0.2696 0.22638-0.1423 0.40801-0.3104 0.26953-0.6485-0.10773-0.108-0.25951-0.1856-0.42969-0.2461zm3.9199 1.3301c-0.13473 0.0507-0.25059 0.1057-0.31836 0.1758-0.13035 0.1349-0.11618 0.249-0.05664 0.3555 0.10764-0.0577 0.21369-0.1192 0.3086-0.1895 0.12469-0.129 0.11854-0.2392 0.0664-0.3418z" fill-rule="evenodd" opacity=".3"/>
</svg>
