<?xml version="1.0" encoding="UTF-8"?>
<svg id="svg30" width="16" height="16" version="1.1" xmlns="http://www.w3.org/2000/svg" xmlns:cc="http://creativecommons.org/ns#" xmlns:dc="http://purl.org/dc/elements/1.1/" xmlns:rdf="http://www.w3.org/1999/02/22-rdf-syntax-ns#">
 <metadata id="metadata34">
  <rdf:RDF>
   <cc:Work rdf:about="">
    <dc:format>image/svg+xml</dc:format>
    <dc:type rdf:resource="http://purl.org/dc/dcmitype/StillImage"/>
   </cc:Work>
  </rdf:RDF>
 </metadata>
 <defs id="defs7">
  <radialGradient id="gr0" cx="9" cy="10" r="11" gradientTransform="matrix(1 0 0 .54545 0 4.5455)" gradientUnits="userSpaceOnUse">
   <stop id="stop2" stop-opacity=".23529" offset="0"/>
   <stop id="stop4" stop-opacity=".54902" offset="1"/>
  </radialGradient>
 </defs>
 <path id="path9" d="m6 2a1 1.0001 0 0 0-1 1v2h-2a1.0001 1.0001 0 0 0-1 1v4a1.0001 1.0001 0 0 0 1 1h2v2a1.0001 1.0001 0 0 0 1 1h4a1.0001 1.0001 0 0 0 1-1v-2h2a1.0001 1.0001 0 0 0 1-1v-4a1.0001 1.0001 0 0 0-1-1h-2v-2a1.0001 1.0001 0 0 0-1-1h-4zm0 1h4v3h3v4h-3v3h-4v-3h-3v-4h3v-3z" fill="#fff" opacity=".05"/>
 <path id="base" d="m6 3v3h-3v4h3v3h4v-3h3v-4h-3v-3z" fill="url(#gr0)"/>
 <path id="path15" d="m6 3v3h-3v4h3v3h4v-3h3v-4h-3v-3h-4zm0.5 0.5h3v2.5a0.50005 0.50005 0 0 0 0.5 0.5h2.5v3h-2.5a0.50005 0.50005 0 0 0-0.5 0.5v2.5h-3v-2.5a0.50005 0.50005 0 0 0-0.5-0.5h-2.5v-3h2.5a0.50005 0.50005 0 0 0 0.5-0.5v-2.5z" opacity=".3"/>
 <path id="path20" d="m3 10v1h3v-1h-3zm7 0v1h3v-1h-3zm-4 3v1h4v-1h-4z" fill="#fff" opacity=".2"/>
 <path id="path25" d="m6 3v1h4v-1h-4zm-3 3v1h3v-1h-3zm7 0v1h3v-1h-3z" opacity=".3"/>
</svg>
