<?xml version="1.0" encoding="UTF-8"?>
<svg id="svg30" width="16" height="16" version="1.1" xmlns="http://www.w3.org/2000/svg" xmlns:cc="http://creativecommons.org/ns#" xmlns:dc="http://purl.org/dc/elements/1.1/" xmlns:rdf="http://www.w3.org/1999/02/22-rdf-syntax-ns#">
 <metadata id="metadata34">
  <rdf:RDF>
   <cc:Work rdf:about="">
    <dc:format>image/svg+xml</dc:format>
    <dc:type rdf:resource="http://purl.org/dc/dcmitype/StillImage"/>
   </cc:Work>
  </rdf:RDF>
 </metadata>
 <defs id="defs7">
  <radialGradient id="gr0" cx="9" cy="10" r="11" gradientTransform="matrix(1 0 0 .72727 0 2.7273)" gradientUnits="userSpaceOnUse">
   <stop id="stop2" stop-opacity=".23529" offset="0"/>
   <stop id="stop4" stop-opacity=".54902" offset="1"/>
  </radialGradient>
 </defs>
 <path id="path9" d="m6.9707 0a1 1.0001 0 0 0-0.91797 0.67969c-0.32417 0.95954-0.73172 1.9805-1.1016 3.0156l-3.0527 0.31055a1.0001 1.0001 0 0 0-0.75196 1.5137c0.53499 0.87934 0.98269 1.4256 1.459 2.0762-0.78971 0.94405-1.5556 1.9451-2.3105 2.6953a1.0001 1.0001 0 0 0 0.52539 1.6934c1.2134 0.2226 2.33 0.3132 3.418 0.4765 0.25011 0.97 0.53199 1.9338 0.80469 2.8301a1.0001 1.0001 0 0 0 1.6035 0.4727c0.72777-0.6156 1.2669-1.2058 1.8438-1.7832 1.0209 0.641 2.16 1.2785 2.9258 1.83a1.0001 1.0001 0 0 0 1.584-0.8359c-0.0365-1.4193-0.39-2.6135-0.543-3.7187 0.9976-0.4453 1.9938-0.9046 2.959-1.3457a1.0001 1.0001 0 0 0 0.1172-1.7559c-0.7958-0.50165-1.5621-0.97857-2.3301-1.4648 0.5762-1.4319 1.172-2.87 1.7305-4.334a1.0001 1.0001 0 0 0-1.416-1.2324c-1.2549 0.69007-2.5807 1.3481-3.8946 2.0156-0.59223-0.88417-1.1593-1.7692-1.7988-2.7031a1.0001 1.0001 0 0 0-0.85352-0.43555zm0.0293 1c0.7903 1.1541 1.4801 2.2937 2.2852 3.4375 1.5628-0.8044 3.1748-1.5906 4.7148-2.4375-0.65 1.704-1.3632 3.3984-2.0352 5.0938 1.01 0.6593 2.0152 1.2632 3.0352 1.9062-1.204 0.5503-2.4207 1.1322-3.6367 1.6562 0.07 1.4371 0.5997 2.9048 0.6367 4.3438-1.058-0.762-2.5747-1.5363-3.6445-2.2812-0.8328 0.766-1.4913 1.5502-2.3555 2.2812-0.3435-1.129-0.72637-2.2845-0.98047-3.4375-1.3397-0.25-2.679-0.3165-4.0195-0.5625 1.0098-1.0035 1.9266-2.2786 2.8711-3.3438-0.6919-1.0361-1.2234-1.5916-1.8711-2.6562l3.6758-0.375c0.3996-1.2088 0.91672-2.4188 1.3242-3.625zm0 5v3h2v-3h-2zm0 4v1h2v-1h-2z" fill="#fff" opacity=".05"/>
 <path id="base" d="m7 1c-0.4075 1.2062-0.9246 2.4162-1.3242 3.625l-3.6758 0.375c0.6477 1.0646 1.1792 1.6201 1.8711 2.6562-0.9445 1.0651-1.8613 2.3403-2.8711 3.3438 1.3405 0.246 2.6798 0.312 4.0195 0.562 0.2541 1.153 0.637 2.309 0.9805 3.438 0.8642-0.731 1.5227-1.515 2.3555-2.281 1.0698 0.745 2.5865 1.519 3.6445 2.281-0.037-1.439-0.567-2.907-0.637-4.344 1.216-0.524 2.433-1.1057 3.637-1.656-1.02-0.643-2.025-1.2469-3.035-1.9062 0.672-1.6953 1.385-3.3898 2.035-5.0938-1.54 0.8469-3.152 1.6331-4.7148 2.4375-0.8051-1.1438-1.4949-2.2834-2.2852-3.4375zm0 5h2v3h-2v-3zm0 4h2v1h-2v-1z" fill="url(#gr0)"/>
 <path id="path15" d="m7 1c-0.4075 1.2062-0.92462 2.4162-1.3242 3.625l-3.6758 0.375c0.6477 1.0646 1.1792 1.6202 1.8711 2.6562-0.9445 1.0651-1.8613 2.3402-2.8711 3.3438 1.3405 0.246 2.6798 0.3125 4.0195 0.5625 0.2541 1.153 0.63697 2.3085 0.98047 3.4375 0.8642-0.731 1.5227-1.5152 2.3555-2.2812 1.0698 0.7449 2.5865 1.5192 3.6445 2.2812-0.037-1.439-0.5667-2.9067-0.6367-4.3438 1.216-0.524 2.4327-1.1059 3.6367-1.6562-1.02-0.643-2.0252-1.247-3.0352-1.9062 0.672-1.6953 1.3852-3.3898 2.0352-5.0938-1.54 0.8469-3.152 1.6331-4.7148 2.4375-0.8051-1.1438-1.4949-2.2834-2.2852-3.4375zm0.13086 1.0996c0.5721 0.8707 1.1224 1.7389 1.7461 2.625a0.50005 0.50005 0 0 0 0.63672 0.1582c1.1608-0.59749 2.3483-1.208 3.5254-1.8242-0.5087 1.282-1.0284 2.5633-1.5391 3.8516a0.50005 0.50005 0 0 0 0.1914 0.60156c0.7567 0.49392 1.5052 0.95212 2.2559 1.418-0.9285 0.42996-1.8581 0.86972-2.7813 1.2676a0.50005 0.50005 0 0 0-0.3027 0.4824c0.0577 1.1841 0.3253 2.262 0.4883 3.3262-0.9363-0.5824-1.9528-1.1694-2.711-1.6973a0.50005 0.50005 0 0 0-0.62304 0.043c-0.64987 0.5977-1.1893 1.1578-1.7656 1.7109-0.27009-0.8736-0.55503-1.7493-0.74414-2.6074a0.50005 0.50005 0 0 0-0.39648-0.3848c-1.0789-0.2013-2.1099-0.299-3.1367-0.4394 0.78623-0.88367 1.5498-1.8288 2.2715-2.6426a0.50005 0.50005 0 0 0 0.04102-0.60937c-0.53061-0.79458-0.94547-1.3355-1.3867-1.9668l2.8262-0.28906a0.50005 0.50005 0 0 0 0.42383-0.3418c0.28916-0.8747 0.64501-1.7785 0.98047-2.6816zm-0.13086 3.4004a0.50005 0.50005 0 0 0-0.5 0.5v3a0.50005 0.50005 0 0 0 0.5 0.5 0.50005 0.50005 0 0 0-0.5 0.5v1a0.50005 0.50005 0 0 0 0.5 0.5h2a0.50005 0.50005 0 0 0 0.5-0.5v-1a0.50005 0.50005 0 0 0-0.5-0.5 0.50005 0.50005 0 0 0 0.5-0.5v-3a0.50005 0.50005 0 0 0-0.5-0.5h-2zm0 0.5h2v3h-2v-3zm0 4h2v1h-2v-1z" opacity=".3"/>
 <path id="path20" d="m14 3c-0.1658 0.09116-0.3386 0.17578-0.5059 0.26562-0.5072 1.2775-1.0242 2.5541-1.5293 3.8281 0.1066 0.06958 0.2139 0.13272 0.3204 0.20117 0.5752-1.4293 1.1668-2.8583 1.7148-4.2949zm-11.373 2.9356-0.62695 0.06445c0.51617 0.84841 0.97581 1.4184 1.4844 2.1211 0.12876-0.15268 0.25722-0.31881 0.38671-0.46484-0.45832-0.68633-0.84618-1.1685-1.2441-1.7207zm4.373 0.06445v1h2v-1h-2zm7.0762 3.4199c-0.9025 0.41817-1.8057 0.84538-2.7129 1.2363 0.0154 0.3158 0.0577 0.6331 0.1074 0.9512 1.1801-0.5117 2.3609-1.0733 3.5293-1.6074-0.3104-0.1957-0.6156-0.38896-0.9238-0.58008zm-7.0762 0.58008v1h2v-1h-2zm-5.1816 1.1133c-0.26747 0.3087-0.53923 0.6093-0.81836 0.8867 1.3405 0.246 2.6798 0.3125 4.0195 0.5625 0.2541 1.153 0.63697 2.3085 0.98047 3.4375 0.8642-0.731 1.5227-1.5152 2.3555-2.2812 1.0698 0.7449 2.5865 1.5192 3.6445 2.2812-0.0091-0.3546-0.0488-0.7112-0.1035-1.0684-1.0522-0.7398-2.5032-1.4901-3.541-2.2128-0.8328 0.766-1.4913 1.5502-2.3555 2.2812-0.3435-1.129-0.72637-2.2845-0.98047-3.4375-1.067-0.1991-2.1339-0.2997-3.2012-0.4492z" fill="#fff" opacity=".2"/>
 <path id="path25" d="m7 1c-0.4075 1.2062-0.92462 2.4162-1.3242 3.625l-3.6758 0.375c0.21865 0.35939 0.42414 0.65412 0.62695 0.93555l3.0488-0.31055c0.3996-1.2088 0.91672-2.4188 1.3242-3.625 0.7903 1.1541 1.4801 2.2937 2.2852 3.4375 1.3945-0.71782 2.8221-1.427 4.2089-2.1719 0.1677-0.42239 0.3444-0.84221 0.5059-1.2656-1.54 0.8469-3.152 1.6331-4.7148 2.4375-0.8051-1.1438-1.4949-2.2834-2.2852-3.4375zm5.2852 6.2949c-0.1071 0.266-0.2149 0.53283-0.3204 0.79883 0.7026 0.45864 1.4069 0.88934 2.1114 1.3262 0.3072-0.14233 0.6181-0.28017 0.9238-0.41992-0.9124-0.57514-1.8122-1.1249-2.7148-1.7051zm-8.8008 0.82617c-0.81041 0.96097-1.613 2.013-2.4844 2.8789 0.2729 0.0501 0.54555 0.075 0.81836 0.1133 0.70014-0.8082 1.3693-1.6864 2.0527-2.457-0.1405-0.2104-0.25712-0.3561-0.38671-0.53516zm3.5156 0.87891v1h2v-1h-2zm0 2v1h2v-1h-2zm4.4707 0.6074c-0.0359 0.0156-0.0715 0.0334-0.1074 0.0488 0.0527 1.083 0.3658 2.183 0.5332 3.2754 0.0324 0.0228 0.0719 0.0456 0.1035 0.0684-0.0289-1.1228-0.3528-2.263-0.5293-3.3926z" opacity=".3"/>
</svg>
