<?xml version="1.0" encoding="UTF-8"?>
<svg id="svg30" width="16" height="16" version="1.1" xmlns="http://www.w3.org/2000/svg" xmlns:cc="http://creativecommons.org/ns#" xmlns:dc="http://purl.org/dc/elements/1.1/" xmlns:rdf="http://www.w3.org/1999/02/22-rdf-syntax-ns#">
 <metadata id="metadata34">
  <rdf:RDF>
   <cc:Work rdf:about="">
    <dc:format>image/svg+xml</dc:format>
    <dc:type rdf:resource="http://purl.org/dc/dcmitype/StillImage"/>
   </cc:Work>
  </rdf:RDF>
 </metadata>
 <defs id="defs7">
  <radialGradient id="gr0" cx="9" cy="10" r="11" gradientTransform="matrix(1 0 0 .72727 0 2.7273)" gradientUnits="userSpaceOnUse">
   <stop id="stop2" stop-opacity=".23529" offset="0"/>
   <stop id="stop4" stop-opacity=".54902" offset="1"/>
  </radialGradient>
 </defs>
 <path id="path9" d="m8 0c-1.5708 2.8855e-16 -3.1315 0.64709-4.2422 1.7578-1.1107 1.1107-1.7578 2.6714-1.7578 4.2422 2.7e-4 1.3692 0.48743 2.7344 1.3535 3.7949 0.52412 0.64178 1.2078 1.1148 1.9453 1.4922a1 1.0001 0 0 0-0.29883 0.7129h-2a1.0001 1.0001 0 0 0-1 1v1a1.0001 1.0001 0 0 0 1 1h2a1.0001 1.0001 0 0 0 1 1h4a1.0001 1.0001 0 0 0 1-1h2a1.0001 1.0001 0 0 0 1-1v-1a1.0001 1.0001 0 0 0-1-1h-2a1.0001 1.0001 0 0 0-0.2988-0.7129c0.7375-0.3772 1.421-0.8526 1.9453-1.4941 0.866-1.0598 1.3524-2.4243 1.3535-3.793 0-1.5708-0.6471-3.1315-1.7578-4.2422-1.1107-1.1107-2.6714-1.7578-4.2422-1.7578zm0 1a5 5 0 0 1 5 5 5 5 0 0 1-4 4.8945v1.1055h1v1h3v1h-3v1h-4v-1h-3v-1h3v-1h1v-1.1016a5 5 0 0 1-4-4.8984 5 5 0 0 1 5-5zm0.11719 1.0625c-0.5915 0-1.0842 0.17594-1.4766 0.52734-0.42749 0.377-0.64062 0.88118-0.64062 1.5137v0.15234h1.5723c-0.0059-0.1981 0.03524-0.36721 0.12304-0.50781 0.0879-0.1405 0.21893-0.21094 0.39453-0.21094 0.1347 0 0.25207 0.04873 0.35157 0.14453 0.0996 0.0895 0.15039 0.2052 0.15039 0.3457 0 0.2109-0.12912 0.44026-0.38672 0.68946-0.4685 0.46-0.70494 0.69618-0.71094 0.70898-0.2576 0.3131-0.38672 0.65143-0.38672 1.0156v0.54687h1.625v-0.33594c0-0.2044 0.1349-0.42375 0.4043-0.66015 0.4099-0.3514 0.65443-0.58617 0.73633-0.70117 0.26895-0.345 0.40425-0.75713 0.40425-1.2363 0-0.6198-0.2233-1.1138-0.66792-1.4844-0.40991-0.3386-0.90659-0.50781-1.4922-0.50781zm0.99219 0.875 0.02539 0.02344c-0.00445-0.00428-0.01305-0.00358-0.01758-0.00782-0.00424-0.00392-0.00353-0.01177-0.00781-0.01562zm-1.0898 5.1035c-0.2865 0-0.52243 0.09059-0.70703 0.27539-0.1783 0.1848-0.26758 0.42218-0.26758 0.70898s0.08928 0.51877 0.26758 0.69727c0.1846 0.1848 0.42053 0.27734 0.70703 0.27734s0.51897-0.09254 0.69727-0.27734c0.1846-0.1785 0.27734-0.41047 0.27734-0.69727s-0.09274-0.52418-0.27734-0.70898c-0.1783-0.1848-0.41077-0.27539-0.69727-0.27539zm0 0.95898c-0.02672 0-0.00235 0.00287 0 0.00586 0.00393 0.00498 9.2e-4 0.0107 0 0.00976 0.00224 0.00226 0.00333-0.00472 0.00586 0.00196l-0.00586 0.00586c-9e-5 9e-5 -0.00451 0.00157-0.00586 0.00195-0.00212-8e-4 -0.00403-0.0012-0.00586-0.00195-0.00115-0.00505-0.00303 0.00638-0.00586 0v0.00195c-0.00377-0.00798-0.00781-0.03511-0.00781 0 0 0.02565 0.00596-0.00368 0.00977-0.00781 0.00213-0.00232 0.00334 0.00234 0.00586-0.00391 0.01101-0.0055 0.04271-0.01367 0.00976-0.01367z" fill="#fff" opacity=".05"/>
 <path id="base" d="m8 1a5 5 0 0 0-5 5 5 5 0 0 0 4 4.898v1.102h-1v1h-3v1h3v1h4v-1h3v-1h-3v-1h-1v-1.105a5 5 0 0 0 4-4.895 5 5 0 0 0-5-5zm0.1172 1.0625c0.5856 0 1.0823 0.1692 1.4922 0.5078 0.4446 0.3706 0.6676 0.8646 0.6676 1.4844 0 0.4792-0.135 0.8913-0.404 1.2363-0.0819 0.115-0.3264 0.3498-0.7363 0.7012-0.2694 0.2364-0.4043 0.4557-0.4043 0.6601v0.336h-1.625v-0.5469c0-0.3642 0.1291-0.7025 0.3867-1.0156 0.0059-0.0128 0.2425-0.249 0.711-0.709 0.2576-0.2492 0.3867-0.4786 0.3867-0.6895 0-0.1405-0.0508-0.2562-0.1504-0.3457-0.0995-0.0958-0.2169-0.1445-0.3516-0.1445-0.1756 0-0.3066 0.0704-0.3945 0.2109-0.0878 0.1406-0.1289 0.3098-0.123 0.5079h-1.5723v-0.1524c0-0.6325 0.2131-1.1367 0.6406-1.5137 0.3924-0.3514 0.8851-0.5273 1.4766-0.5273zm-0.0977 5.9785c0.2865 0 0.519 0.0906 0.6973 0.2754 0.1846 0.1848 0.2773 0.4222 0.2773 0.709s-0.0927 0.5188-0.2773 0.6973c-0.1783 0.1848-0.4108 0.2773-0.6973 0.2773s-0.5224-0.0925-0.707-0.2773c-0.1783-0.1785-0.2676-0.4105-0.2676-0.6973s0.0893-0.5242 0.2676-0.709c0.1846-0.1848 0.4205-0.2754 0.707-0.2754z" fill="url(#gr0)"/>
 <path id="path15" d="m8 1a5 5 0 0 0-5 5 5 5 0 0 0 4 4.8984v1.1016h-1v1h-3v1h3v1h4v-1h3v-1h-3v-1h-1v-1.1055a5 5 0 0 0 4-4.8945 5 5 0 0 0-5-5zm0 0.5c0.36844 0 0.71926 0.12611 1.0762 0.2168-0.3008-0.1007-0.62346-0.1543-0.95898-0.1543-0.68907 0-1.3215 0.21946-1.8066 0.65234-0.53155 0.46876-0.81055 1.1439-0.81055 1.8887v0.15234a0.50005 0.50005 0 0 0 0.5 0.5h1.4531c-0.03633 0.03603-0.10135 0.09948-0.13085 0.12891-0.06012 0.05996-0.10517 0.10623-0.13868 0.14062-0.01675 0.01719-0.02971 0.03062-0.04297 0.04492-0.00662 0.00715-0.01354 0.0138-0.02343 0.02539-0.00236 0.00276-0.00672 8e-3 -0.00977 0.01172-9.5e-4 0.00115-0.00101 0.00276-0.00195 0.00391l-0.00195 0.00195c-0.00209 0.00255-0.00379 0.00526-0.00586 0.00781l-0.0586 0.09571c8e-5 -1.8e-4 0.02382-0.04179 0.03516-0.06055-0.29473 0.3768-0.4668 0.82203-0.4668 1.2852v0.54687a0.50005 0.50005 0 0 0 0.5 0.5h1.625a0.50005 0.50005 0 0 0 0.5-0.5v-0.33594c0 0.01536 0.02311-0.09656 0.23047-0.28125 0.41631-0.35689 0.64271-0.55297 0.81051-0.78711 0.3318-0.43121 0.5039-0.96141 0.5039-1.5293 0-0.73973-0.2983-1.4113-0.84761-1.8691a0.50005 0.50005 0 0 1-0.00196 0c-0.24943-0.20605-0.52965-0.36283-0.83398-0.4668 0.77782 0.20085 1.5196 0.53128 2.0878 1.0996 0.8331 0.83304 1.3184 2.0035 1.3184 3.1816-8e-4 1.0265-0.3661 2.0489-1.0156 2.8438s-1.5783 1.3552-2.584 1.5606a0.50005 0.50005 0 0 0-0.40039 0.4902v1.1055a0.50005 0.50005 0 0 0 0.5 0.5h0.5v0.5a0.50005 0.50005 0 0 0 0.5 0.5 0.50005 0.50005 0 0 0-0.5 0.5v0.5h-3v-0.5a0.50005 0.50005 0 0 0-0.5-0.5 0.50005 0.50005 0 0 0 0.5-0.5v-0.5h0.5a0.50005 0.50005 0 0 0 0.5-0.5v-1.1016a0.50005 0.50005 0 0 0-0.40039-0.4902c-1.0062-0.2054-1.9364-0.7671-2.5859-1.5625-0.64956-0.79539-1.0135-1.8188-1.0137-2.8457 0-1.1781 0.48532-2.3486 1.3184-3.1816s2.0035-1.3184 3.1816-1.3184zm0.11719 0.5625c0.5856 0 1.0823 0.16921 1.4922 0.50781 0.44462 0.3706 0.66792 0.86458 0.66792 1.4844 0 0.4792-0.1353 0.89133-0.40425 1.2363-0.0819 0.115-0.32643 0.34977-0.73633 0.70117-0.2694 0.2364-0.4043 0.45575-0.4043 0.66015v0.33594h-1.625v-0.54687c0-0.3642 0.12912-0.70253 0.38672-1.0156 6e-3 -0.0128 0.24244-0.24898 0.71094-0.70898 0.2576-0.2492 0.38672-0.47856 0.38672-0.68946 0-0.1405-0.05079-0.2562-0.15039-0.3457-0.0995-0.0958-0.21687-0.14453-0.35157-0.14453-0.1756 0-0.30663 0.07044-0.39453 0.21094-0.0878 0.1406-0.12894 0.30971-0.12304 0.50781h-1.5723v-0.15234c0-0.6325 0.21313-1.1367 0.64062-1.5137 0.39241-0.3514 0.88507-0.52734 1.4766-0.52734zm-0.09766 5.4785c-0.39191 0-0.78317 0.1442-1.0606 0.42187a0.50005 0.50005 0 0 0-0.00586 0.00586c-0.26894 0.27875-0.4082 0.66605-0.4082 1.0566s0.14167 0.77805 0.41406 1.0508c0.27617 0.2764 0.66643 0.4238 1.0606 0.4238 0.39111 0 0.77786-0.1488 1.0488-0.4258 0.27599-0.27056 0.42578-0.65728 0.42578-1.0488 0-0.39304-0.14715-0.78172-0.42187-1.0586-0.27228-0.28022-0.66233-0.42578-1.0527-0.42578zm0 0.5c0.2865 0 0.51897 0.09059 0.69727 0.27539 0.1846 0.1848 0.27734 0.42218 0.27734 0.70898s-0.09274 0.51877-0.27734 0.69727c-0.1783 0.1848-0.41077 0.27734-0.69727 0.27734s-0.52243-0.09254-0.70703-0.27734c-0.1783-0.1785-0.26758-0.41047-0.26758-0.69727s0.08928-0.52418 0.26758-0.70898c0.1846-0.1848 0.42053-0.27539 0.70703-0.27539z" opacity=".3"/>
 <path id="path20" d="m8.1172 2.0625c-0.5915 0-1.0842 0.17594-1.4766 0.52734-0.42749 0.377-0.64062 0.88118-0.64062 1.5137v0.15234h0.1582c0.10671-0.25456 0.2671-0.47613 0.48242-0.66602 0.39241-0.3514 0.88507-0.52734 1.4766-0.52734 0.5856 0 1.0823 0.16921 1.4922 0.50781 0.31686 0.26413 0.51422 0.59403 0.60542 0.98438 0.0368-0.15858 0.0625-0.32315 0.0625-0.5 0-0.6198-0.2233-1.1138-0.66792-1.4844-0.40991-0.3386-0.90659-0.50781-1.4922-0.50781zm0.18945 2.5293c-0.03714 0.04231-0.05658 0.08149-0.10156 0.125-0.4685 0.46-0.70494 0.69618-0.71094 0.70898-0.2576 0.3131-0.38672 0.65143-0.38672 1.0156v0.54687h0.08399c0.0632-0.1951 0.15581-0.38392 0.30273-0.5625 6e-3 -0.0128 0.24244-0.24898 0.71094-0.70898 0.2576-0.2492 0.38672-0.47856 0.38672-0.68946 0-0.1405-0.05079-0.2562-0.15039-0.3457-0.04144-0.03989-0.08717-0.0664-0.13477-0.08984zm4.6641 1.8887a5 5 0 0 1-3.9707 4.414v1a5 5 0 0 0 4-4.8945 5 5 0 0 0-0.0293-0.51953zm-9.9434 0.03515a5 5 0 0 0-0.02734 0.48438 5 5 0 0 0 4 4.8984v-1a5 5 0 0 1-3.9727-4.3828zm4.9922 1.5254c-0.2865 0-0.52243 0.09059-0.70703 0.27539-0.1783 0.1848-0.26758 0.42218-0.26758 0.70898 0 0.19338 0.05562 0.35214 0.13672 0.49609 0.0391-0.07091 0.07302-0.14512 0.13086-0.20507 0.1846-0.1848 0.42053-0.27539 0.70703-0.27539s0.51897 0.09059 0.69727 0.27539c0.0599 0.05996 0.09424 0.13414 0.13476 0.20507 0.08403-0.14394 0.14258-0.30273 0.14258-0.49609 0-0.2868-0.09274-0.52418-0.27734-0.70898-0.1783-0.1848-0.41077-0.27539-0.69727-0.27539zm-5.0195 5.959v1h3v-1h-3zm3 1v1h4v-1h-4zm4 0h3v-1h-3v1z" fill="#fff" opacity=".2"/>
 <path id="path25" d="m8 1a5 5 0 0 0-5 5 5 5 0 0 0 0.02734 0.51562 5 5 0 0 1 4.9727-4.5156 5 5 0 0 1 4.9707 4.4805 5 5 0 0 0 0.0293-0.48047 5 5 0 0 0-5-5zm0.08984 2.5371c-0.1756 0-0.30663 0.07044-0.39453 0.21094-0.0878 0.1406-0.12894 0.30971-0.12304 0.50781h-1.4141c-0.10515 0.25085-0.1582 0.53373-0.1582 0.84766v0.15234h1.5723c-0.0059-0.1981 0.03524-0.36721 0.12304-0.50781 0.0879-0.1405 0.21893-0.21094 0.39453-0.21094 0.07861 0 0.1501 0.02184 0.2168 0.05469 0.17557-0.20002 0.28516-0.39038 0.28516-0.56446 0-0.1405-0.05079-0.2562-0.15039-0.3457-0.0995-0.0958-0.21687-0.14453-0.35157-0.14453zm2.125 1.0176c-0.0627 0.2711-0.172 0.51865-0.34175 0.73633-0.0819 0.115-0.32643 0.34977-0.73633 0.70117-0.2694 0.2364-0.4043 0.45575-0.4043 0.66015v0.33594h-1.541c-0.04762 0.14697-0.08399 0.29665-0.08399 0.45313v0.54687h1.625v-0.33594c0-0.2044 0.1349-0.42375 0.4043-0.66015 0.4099-0.3514 0.65443-0.58617 0.73633-0.70117 0.26895-0.345 0.40425-0.75713 0.40425-1.2363 0-0.17807-0.0257-0.34264-0.0625-0.5zm-3.0332 4.9668c-0.08142 0.14768-0.13672 0.31015-0.13672 0.50392 0 0.2868 0.08928 0.5188 0.26758 0.6973 0.1846 0.1853 0.42053 0.2773 0.70703 0.2773s0.51897-0.0925 0.69727-0.2773c0.1846-0.1785 0.27734-0.4105 0.27734-0.6973 0-0.19374-0.05822-0.35625-0.14258-0.50392-0.0406 0.06956-0.07462 0.14302-0.13476 0.20118-0.1783 0.1848-0.41077 0.27734-0.69727 0.27734s-0.52243-0.09254-0.70703-0.27734c-0.05808-0.05815-0.09168-0.13163-0.13086-0.20118zm-1.1816 2.4785v1h1v-1h-1zm0 1h-3v1h3v-1zm3-1v1h1v-1h-1zm1 1v1h3v-1h-3z" opacity=".3"/>
</svg>
