<?xml version="1.0" encoding="UTF-8"?>
<svg id="svg30" width="16" height="16" version="1.1" xmlns="http://www.w3.org/2000/svg" xmlns:cc="http://creativecommons.org/ns#" xmlns:dc="http://purl.org/dc/elements/1.1/" xmlns:rdf="http://www.w3.org/1999/02/22-rdf-syntax-ns#">
 <metadata id="metadata34">
  <rdf:RDF>
   <cc:Work rdf:about="">
    <dc:format>image/svg+xml</dc:format>
    <dc:type rdf:resource="http://purl.org/dc/dcmitype/StillImage"/>
   </cc:Work>
  </rdf:RDF>
 </metadata>
 <defs id="defs7">
  <radialGradient id="gr0" cx="9" cy="10" r="11" gradientTransform="matrix(1 0 0 .72727 0 2.7273)" gradientUnits="userSpaceOnUse">
   <stop id="stop2" stop-opacity=".23529" offset="0"/>
   <stop id="stop4" stop-opacity=".54902" offset="1"/>
  </radialGradient>
 </defs>
 <path id="path9" d="m9 0a1 1.0001 0 0 0-1 1v3h-1a1.0001 1.0001 0 0 0-0.70703 1.707l4 4a1.0001 1.0001 0 0 0 1.414 0l4-4a1.0001 1.0001 0 0 0-0.707-1.707h-1v-3a1.0001 1.0001 0 0 0-1-1h-4zm0 1h4v4h2l-4 4-4-4h2v-4zm-4.0156 5a1.0001 1.0001 0 0 0-0.69141 0.29297l-4 4a1.0001 1.0001 0 0 0 0.70703 1.707h1v3a1.0001 1.0001 0 0 0 1 1h4a1.0001 1.0001 0 0 0 1-1v-3h1a1.0001 1.0001 0 0 0 0.70703-1.707l-4-4a1.0001 1.0001 0 0 0-0.72265-0.29297zm0.01562 1 4 4h-2v4h-4v-4h-2l4-4z" fill="#fff" opacity=".05"/>
 <path id="base" d="m9 1v4h-2l4 4 4-4h-2v-4h-4zm-4 6-4 4h2v4h4v-4h2l-4-4z" fill="url(#gr0)"/>
 <path id="path15" d="m9 1v4h-2l4 4 4-4h-2v-4h-4zm0.5 0.5h3v3.5a0.50005 0.50005 0 0 0 0.5 0.5h0.793l-2.793 2.793-2.793-2.793h0.79297a0.50005 0.50005 0 0 0 0.5-0.5v-3.5zm-4.5 5.5-4 4h2v4h4v-4h2l-4-4zm0 0.70703 2.793 2.793h-0.79297a0.50005 0.50005 0 0 0-0.5 0.5v3.5h-3v-3.5a0.50005 0.50005 0 0 0-0.5-0.5h-0.79297l2.793-2.793z" opacity=".3"/>
 <path id="path20" d="m7 6 4 4 4-4h-1l-3 3-3-3h-1zm-5 5-1 1h2v-1h-1zm5 0v1h2l-1-1h-1zm-4 4v1h4v-1h-4z" fill="#fff" opacity=".2"/>
 <path id="path25" d="m9 1v1h4v-1h-4zm-2 4 1 1h1v-1h-2zm6 0v1h1l1-1h-2zm-8 2-4 4h1l3-3 3 3h1l-4-4z" opacity=".3"/>
</svg>
