<?xml version="1.0" encoding="UTF-8"?>
<svg id="svg36" width="16" height="16" version="1.1" xmlns="http://www.w3.org/2000/svg" xmlns:cc="http://creativecommons.org/ns#" xmlns:dc="http://purl.org/dc/elements/1.1/" xmlns:rdf="http://www.w3.org/1999/02/22-rdf-syntax-ns#">
 <metadata id="metadata40">
  <rdf:RDF>
   <cc:Work rdf:about="">
    <dc:format>image/svg+xml</dc:format>
    <dc:type rdf:resource="http://purl.org/dc/dcmitype/StillImage"/>
   </cc:Work>
  </rdf:RDF>
 </metadata>
 <defs id="defs7">
  <radialGradient id="gr0" cx="9" cy="10" r="11" gradientTransform="matrix(1 0 0 .72727 0 2.7273)" gradientUnits="userSpaceOnUse">
   <stop id="stop2" stop-color="#e64b36" offset="0"/>
   <stop id="stop4" stop-color="#a31414" offset="1"/>
  </radialGradient>
 </defs>
 <path id="path9" d="m8 0a1 1 0 0 0-0.385 0.07812 1 1 0 0 0 0 0.00196c-3.111 0.21322-5.609 2.7569-5.609 5.9199 0 1.077 0.294 2.134 0.846 3.059a1 1 0 0 0 0.019 0.041c1.401 2.12 2.872 4.31 4.299 6.45a1 1 0 0 0 1.662 0c1.448-2.17 2.918-4.37 4.358-6.544a1 1 0 0 0 0-0.061c0.51-0.899 0.78-1.915 0.78-2.947 0-3.292-2.68-5.9819-5.97-5.998zm0 1c2.76 0 5 2.239 5 5 0 0.86-0.22 1.706-0.65 2.455-1.43 2.165-2.903 4.365-4.35 6.545-1.428-2.14-2.897-4.33-4.295-6.451-0.459-0.771-0.705-1.652-0.705-2.549 0-2.761 2.239-5 5-5zm0 2c-1.657 0-3 1.343-3 3s1.343 3 3 3 3-1.343 3-3-1.343-3-3-3zm0 1c1.116 0 2 0.884 2 2s-0.884 2-2 2-2-0.884-2-2 0.884-2 2-2z" fill="#fff" opacity=".05"/>
 <path id="base" class="error" d="m8 1c-2.7614 0-5 2.2386-5 5 2e-3 0.89749 0.24556 1.7779 0.70508 2.5488 1.3984 2.1191 2.8666 4.3096 4.2947 6.4511 1.4474-2.1796 2.9179-4.3752 4.3534-6.5449 0.42312-0.7491 0.6458-1.5947 0.64648-2.4551 0-2.7614-2.2386-5-5-5zm0 2c1.6568 0 3 1.3432 3 3s-1.3432 3-3 3-3-1.3432-3-3 1.3432-3 3-3z" fill="url(#gr0)"/>
 <path id="path17" d="m8 1c-2.761 0-5 2.239-5 5 0 0.897 0.246 1.778 0.705 2.549 1.398 2.121 2.867 4.311 4.295 6.451 1.447-2.18 2.92-4.38 4.35-6.545 0.43-0.749 0.65-1.595 0.65-2.455 0-2.761-2.24-5-5-5zm-2e-3 0.494c2.492 0 4.502 2.009 4.502 4.5 0 0.771-0.2 1.529-0.58 2.201-1.29 1.955-2.614 3.925-3.922 5.895-1.292-1.94-2.607-3.9-3.865-5.803-0.412-0.692-0.633-1.483-0.633-2.289 1e-3 -2.49 2.009-4.498 4.5-4.498l-2e-3 -6e-3zm2e-3 1.006c-1.927 0-3.5 1.573-3.5 3.5s1.573 3.5 3.5 3.5 3.5-1.573 3.5-3.5-1.573-3.5-3.5-3.5zm0 0.5c1.657 0 3 1.343 3 3s-1.343 3-3 3-3-1.343-3-3 1.343-3 3-3z" opacity=".3"/>
 <path id="path24" d="m8 3c-1.657 0-3 1.343-3 3 0 0.171 0.023 0.337 0.051 0.5 0.239-1.418 1.463-2.5 2.949-2.5s2.71 1.082 2.95 2.5c0.03-0.163 0.05-0.329 0.05-0.5 0-1.657-1.343-3-3-3zm-4.969 3.455c-0.019 0.179-0.031 0.361-0.031 0.545 0 0.897 0.246 1.778 0.705 2.549 1.398 2.121 2.867 4.311 4.295 6.451 1.447-2.18 2.92-4.38 4.35-6.545 0.43-0.749 0.65-1.595 0.65-2.455 0-0.182-0.01-0.362-0.03-0.539-0.06 0.699-0.27 1.38-0.62 1.994-1.43 2.165-2.903 4.365-4.35 6.545-1.428-2.14-2.897-4.33-4.295-6.451-0.381-0.64-0.605-1.357-0.674-2.094z" fill="#fff" opacity=".2"/>
 <path id="path31" d="m8 1c-2.761 0-5 2.239-5 5 0 0.153 0.017 0.304 0.031 0.455 0.272-2.505 2.392-4.455 4.969-4.455 2.58 0 4.7 1.953 4.97 4.461 0.01-0.153 0.03-0.306 0.03-0.461 0-2.761-2.24-5-5-5zm-2.949 5.5c-0.028 0.163-0.051 0.329-0.051 0.5 0 1.657 1.343 3 3 3s3-1.343 3-3c0-0.171-0.02-0.337-0.05-0.5-0.24 1.418-1.464 2.5-2.95 2.5s-2.71-1.082-2.949-2.5z" opacity=".3"/>
</svg>
