<?xml version="1.0" encoding="UTF-8"?>
<svg id="svg30" width="16" height="16" version="1.1" xmlns="http://www.w3.org/2000/svg" xmlns:cc="http://creativecommons.org/ns#" xmlns:dc="http://purl.org/dc/elements/1.1/" xmlns:rdf="http://www.w3.org/1999/02/22-rdf-syntax-ns#">
 <metadata id="metadata34">
  <rdf:RDF>
   <cc:Work rdf:about="">
    <dc:format>image/svg+xml</dc:format>
    <dc:type rdf:resource="http://purl.org/dc/dcmitype/StillImage"/>
   </cc:Work>
  </rdf:RDF>
 </metadata>
 <defs id="defs7">
  <radialGradient id="gr0" cx="9" cy="10" r="11" gradientTransform="matrix(1 0 0 .45454 0 5.4546)" gradientUnits="userSpaceOnUse">
   <stop id="stop2" stop-opacity=".23529" offset="0"/>
   <stop id="stop4" stop-opacity=".54902" offset="1"/>
  </radialGradient>
 </defs>
 <path id="path9" d="m2.9902 3a1 1.0001 0 0 0-0.99023 1v8a1.0001 1.0001 0 0 0 1.5566 0.832l3.4434-2.3027v1.4707a1.0001 1.0001 0 0 0 1.5547 0.832l6-4a1.0001 1.0001 0 0 0 0-1.6641l-6-4a1.0001 1.0001 0 0 0-1.5547 0.83203v1.4707l-3.4434-2.3027a1.0001 1.0001 0 0 0-0.56641-0.16797zm0.00977 1 5 3.3438v-3.3438l6 4-6 4v-3.3438l-5 3.3438v-8z" fill="#fff" opacity=".05"/>
 <path id="base" d="m3 4v8l5-3.3438v3.3438l6-4-6-4v3.3438l-5-3.3438z" fill="url(#gr0)"/>
 <path id="path15" d="m3 4v8l5-3.3438v3.3438l6-4-6-4v3.3438l-5-3.3438zm5.5 0.93359 4.5977 3.0664-4.5977 3.0664v-2.4102a0.50005 0.50005 0 0 0-0.77734-0.41602l-4.2227 2.8243v-6.129l4.2227 2.8242a0.50005 0.50005 0 0 0 0.77734-0.41602v-2.4102z" opacity=".3"/>
 <path id="path20" d="m13.25 8.5-5.25 3.5v1l6-4-0.75-0.5zm-5.25 0.15625-5 3.3438v1l5-3.3438v-1z" fill="#fff" opacity=".2"/>
 <path id="path25" d="m3 4v1l5 3.3438v-1l-5-3.3438zm5 0v1l5.25 3.5 0.75-0.5-6-4z" opacity=".3"/>
</svg>
