<?xml version="1.0" encoding="UTF-8"?>
<svg id="svg36" width="16" height="16" version="1.1" xmlns="http://www.w3.org/2000/svg" xmlns:cc="http://creativecommons.org/ns#" xmlns:dc="http://purl.org/dc/elements/1.1/" xmlns:rdf="http://www.w3.org/1999/02/22-rdf-syntax-ns#">
 <metadata id="metadata40">
  <rdf:RDF>
   <cc:Work rdf:about="">
    <dc:format>image/svg+xml</dc:format>
    <dc:type rdf:resource="http://purl.org/dc/dcmitype/StillImage"/>
   </cc:Work>
  </rdf:RDF>
 </metadata>
 <defs id="defs7">
  <radialGradient id="gr0" cx="9" cy="10" r="11" gradientTransform="matrix(1 0 0 .72727 0 2.7273)" gradientUnits="userSpaceOnUse">
   <stop id="stop2" stop-opacity=".23529" offset="0"/>
   <stop id="stop4" stop-opacity=".54902" offset="1"/>
  </radialGradient>
 </defs>
 <path id="path9" d="m7.994 0c-4.401 0.0228-7.994 3.594-7.994 8 0 0.411 0.03392 0.822 0.1035 1.229a1 1 0 0 0 0.9865 0.831c-0.1707 0.2-0.3609 0.38-0.6388 0.93-0.38883 0.77-0.7379 1.97-0.0879 3.09 0.6193 1.07 1.7117 1.51 2.6447 1.72 0.907 0.21 1.723 0.21 2.187 0.19h2.803a1 1 0 0 0 0.592-0.2 1 1 0 0 0 0.547 0.1c3.923-0.56 6.863-3.9 6.863-7.87 0-4.406-3.59-8.0221-8.006-8.0005v-0.01953zm4e-3 1h2e-3c3.87-0.0178 7 3.135 7 7 0 3.48-2.56 6.39-6.008 6.88-0.024-0.33-0.202-0.62-0.484-0.79-0.618-0.36-1.238-0.73-1.539-1h-0.031c0.356 0 0.685-0.2 0.861-0.51 0.116-0.21 0.234-0.42 0.347-0.62 0.362-0.64 0.259-1.43-0.197-1.96 0.977 0.02 1.999-0.745 2.049-1.998-1e-3 -0.746-0.416-1.431-1.078-1.775-0.121-0.51-0.65-1.099-1.406-1.211-0.671-0.086-1.354 0.251-1.694 0.853-0.5 0.626-0.992 1.256-1.48 1.891l-0.449-0.27c-0.802-0.472-1.885-0.172-2.34 0.629l-0.352 0.621c-0.049 0.1-0.089 0.209-0.109 0.321-0.06-0.35-0.09-0.706-0.09-1.061 0-3.865 3.132-6.979 6.998-7zm-0.65 4.996c0.095 0.012 0.198 0.042 0.302 0.102 0.336 0.197 0.45 0.632 0.256 0.974l-2.099 2.709 1.213 0.719c0.333 0.19 0.447 0.63 0.253 0.97l-0.347 0.62-4.854-2.858 0.352-0.617c0.194-0.34 0.619-0.458 0.955-0.26l1.215 0.713 2.099-2.709c0.132-0.212 0.368-0.393 0.655-0.363zm1.41 1.609c0.071 0.135 0.227 0.221 0.23 0.381-0.04 0.702-0.586 1.023-1.019 1.014a1 1 0 0 0-0.33 0.051l1.058-1.365a1 1 0 0 0 0.061-0.081zm-6.682 2.765 3.82 2.21c-0.525 0.93 0.889 1.7 2.102 2.41h-2.803c-0.773 0.04-3.145 0-3.966-1.41-0.8238-1.42 0.847-3.21 0.847-3.21z" fill="#fff" opacity=".05"/>
 <path id="base" d="m1 8c0 0.355 0.03 0.71 0.09 1.06 0.02-0.112 0.06-0.22 0.11-0.32l0.35-0.62c0.455-0.801 1.538-1.102 2.34-0.63l0.45 0.27c0.488-0.635 0.98-1.264 1.48-1.89 0.34-0.602 1.022-0.941 1.693-0.855 0.756 0.112 1.286 0.702 1.407 1.212 0.662 0.344 1.078 1.028 1.079 1.774-0.05 1.253-1.073 2.019-2.05 1.999 0.456 0.53 0.56 1.32 0.198 1.96-0.113 0.2-0.232 0.41-0.348 0.62-0.176 0.31-0.504 0.51-0.861 0.51h0.03c0.301 0.27 0.921 0.64 1.539 1 0.282 0.17 0.464 0.46 0.488 0.79 3.445-0.49 6.005-3.4 6.005-6.88 0-3.866-3.13-7.0189-7-7-3.867 0.02-7 3.134-7 7zm5.694-1.64-2.101 2.709-1.215-0.714c-0.336-0.198-0.761-0.08-0.955 0.261l-0.35 0.617 4.852 2.857 0.349-0.62c0.194-0.34 0.08-0.78-0.255-0.97l-1.213-0.718 2.101-2.709c0.194-0.342 0.08-0.779-0.257-0.976-0.419-0.242-0.78-0.02-0.956 0.263zm-4.617 4.01s-1.6718 1.79-0.849 3.21c0.821 1.41 3.195 1.45 3.968 1.41h2.803c-1.213-0.71-2.627-1.48-2.102-2.41z" fill="url(#gr0)"/>
 <path id="path17" d="m7.998 1c-3.866 0.021-6.998 3.135-6.998 7 0 0.355 0.03 0.711 0.09 1.061 0.02-0.112 0.06-0.221 0.109-0.321l0.352-0.621c0.455-0.801 1.538-1.101 2.34-0.629l0.449 0.27c0.488-0.635 0.98-1.265 1.48-1.891 0.34-0.602 1.023-0.939 1.694-0.853 0.756 0.112 1.285 0.701 1.406 1.211 0.662 0.344 1.077 1.029 1.078 1.775-0.05 1.253-1.072 2.018-2.049 1.998 0.456 0.53 0.559 1.32 0.197 1.96-0.113 0.2-0.231 0.41-0.347 0.62-0.176 0.31-0.505 0.51-0.861 0.51h0.031c0.301 0.27 0.921 0.64 1.539 1 0.282 0.17 0.46 0.46 0.484 0.79 3.448-0.49 6.008-3.4 6.008-6.88 0-3.865-3.13-7.0178-7-7h-2e-3zm-6e-3 0.484c3.598-0.018 6.498 2.904 6.498 6.5 0 3.096-2.2 5.636-5.195 6.256-0.128-0.24-0.3-0.45-0.537-0.6-0.347-0.2-0.543-0.35-0.82-0.53 0.1-0.1 0.224-0.18 0.294-0.3 0.114-0.2 0.233-0.41 0.346-0.61 0.332-0.59 0.274-1.24 0.051-1.83 0.977-0.28 1.771-1.124 1.871-2.354a0.5 0.5 0 0 0 0-0.022c0-0.867-0.49-1.637-1.219-2.09-0.245-0.659-0.821-1.258-1.699-1.388a0.5 0.5 0 0 0-0.01 0c-0.852-0.11-1.696 0.302-2.148 1.041-0.409 0.511-0.81 1.025-1.209 1.543l-0.07-0.041c-0.847-0.499-1.888-0.324-2.581 0.302 0.325-3.288 3.057-5.841 6.438-5.861l-0.01-0.016zm-0.644 4.512c-0.287-0.03-0.523 0.151-0.655 0.363l-2.099 2.709-1.215-0.713c-0.336-0.198-0.761-0.08-0.955 0.26l-0.352 0.617 4.854 2.858 0.347-0.62c0.194-0.34 0.08-0.78-0.253-0.97l-1.213-0.719 2.099-2.709c0.194-0.342 0.08-0.777-0.256-0.974-0.104-0.06-0.207-0.09-0.302-0.102zm-0.043 0.494 0.011 0.01c0.02 0 0.04 9e-3 0.09 0.039 0.1 0.058 0.121 0.181 0.071 0.289l-2.061 2.658a0.5 0.5 0 0 0 0.141 0.734l1.213 0.72c0.09 0.05 0.13 0.18 0.07 0.28l-0.1 0.18-3.99-2.345 0.107-0.192c0.064-0.11 0.166-0.14 0.268-0.08l1.215 0.715a0.5 0.5 0 0 0 0.648-0.125l2.102-2.709a0.5 0.5 0 0 0 0.029-0.039c0.035-0.065 0.097-0.115 0.137-0.125 0.02-0.01 0.029-0.01 0.049-0.01zm-5.229 3.88s-1.6708 1.79-0.847 3.21c0.821 1.41 3.193 1.45 3.966 1.41h2.803c-1.213-0.71-2.627-1.48-2.102-2.41l-3.82-2.21zm0.149 0.66 3.193 1.85c-0.02 0.19-0.111 0.37-0.051 0.54 0.121 0.33 0.346 0.59 0.6 0.82 0.108 0.1 0.26 0.15 0.381 0.25h-1.149a0.5 0.5 0 0 0-0.029 0c-0.352 0.02-1.106 0.02-1.828-0.15-0.723-0.16-1.376-0.49-1.682-1.01-0.291-0.51-0.147-1.11 0.131-1.66 0.185-0.37 0.302-0.48 0.434-0.64z" opacity=".3"/>
 <path id="path24" d="m7.514 5.016c-0.671-0.086-1.354 0.251-1.694 0.853-0.5 0.626-0.992 1.256-1.48 1.891l-0.449-0.27c-0.802-0.472-1.885-0.172-2.34 0.629l-0.352 0.621c-0.049 0.1-0.089 0.209-0.109 0.321-0.039-0.229-0.045-0.462-0.059-0.694-0.019 0.209-0.031 0.419-0.031 0.633 0 0.355 0.03 0.712 0.09 1.06 0.02-0.11 0.06-0.22 0.109-0.32l0.352-0.621c0.299-0.527 0.871-0.831 1.455-0.848 0.048-1e-3 0.094-4e-3 0.142 4e-3 0.257 0.014 0.511 0.079 0.743 0.215l0.449 0.27c0.488-0.635 0.98-1.265 1.48-1.891 0.27-0.478 0.757-0.777 1.282-0.842 0.077-0.025 0.158-0.04 0.246-0.031 0.02 3e-3 0.045 0.017 0.066 0.022 0.033 2e-3 0.066-7e-3 0.1-2e-3 0.756 0.112 1.285 0.701 1.406 1.211 0.503 0.261 0.859 0.721 1.004 1.253 0.039-0.15 0.067-0.309 0.074-0.478-1e-3 -0.746-0.416-1.431-1.078-1.775-0.121-0.51-0.65-1.099-1.406-1.211zm0.275 2.207-1.982 2.558 0.531 0.319 1.568-2.028c0.162-0.285 0.1-0.627-0.117-0.849zm7.191 1.297c-0.24 3.25-2.71 5.9-5.988 6.36-0.024-0.33-0.202-0.62-0.484-0.79-0.262-0.15-0.514-0.3-0.752-0.45-0.183 0.27-0.486 0.45-0.818 0.45h0.031c0.301 0.27 0.921 0.64 1.539 1 0.282 0.17 0.46 0.46 0.484 0.79 3.448-0.49 6.008-3.4 6.008-6.88 0-0.162-0.01-0.321-0.02-0.48zm-12.457 0.978c-0.034 0.038-0.073 0.071-0.099 0.117l-0.352 0.615 4.854 2.86 0.347-0.62c0.157-0.27 0.104-0.61-0.095-0.83l-0.252 0.45-4.403-2.592zm5.831 1.462c-0.134 0.03-0.27 0.04-0.405 0.04 0.157 0.18 0.254 0.4 0.322 0.62 0.068-0.21 0.104-0.44 0.083-0.66zm-7.28 2.25c-0.1034 0.45-0.1035 0.93 0.155 1.37 0.821 1.41 3.193 1.45 3.966 1.41h2.803c-0.542-0.32-1.104-0.65-1.535-1h-1.268c-0.773 0.04-3.145 0-3.966-1.41-0.072-0.12-0.118-0.25-0.155-0.37z" fill="#fff" opacity=".2"/>
 <path id="path31" d="m8 1c-3.867 0.02-7 3.134-7 7 0 0.123 0.024 0.244 0.031 0.367 0.321-3.567 3.316-6.348 6.969-6.367 3.71-0.018 6.73 2.877 6.98 6.52 0.01-0.173 0.02-0.345 0.02-0.52 0-3.866-3.13-7.0189-7-7zm-0.588 5.018c-0.094-7e-3 -0.188-3e-3 -0.281 7e-3 -0.186 0.053-0.341 0.179-0.438 0.334l-2.099 2.709-1.215-0.713c-0.074-0.043-0.152-0.066-0.231-0.08-0.052-3e-3 -0.105-4e-3 -0.158-2e-3 -0.046 3e-3 -0.094-2e-3 -0.138 0.01h-6e-3c-0.172 0.048-0.325 0.162-0.422 0.332l-0.352 0.617 0.453 0.266c0.217-0.239 0.564-0.313 0.854-0.143l1.215 0.715 2.099-2.711c0.176-0.283 0.538-0.503 0.957-0.261 0.056 0.032 0.096 0.08 0.139 0.125l0.117-0.151c0.194-0.342 0.081-0.777-0.256-0.974-0.082-0.048-0.161-0.066-0.238-0.08zm2.514 2.461c-0.254 0.965-1.132 1.541-1.977 1.521 0.233 0.27 0.372 0.61 0.406 0.96 0.836-0.17 1.6-0.88 1.643-1.958 0-0.179-0.026-0.355-0.072-0.523zm-3.588 1.621-0.531 0.68 1.213 0.72c0.064 0.04 0.11 0.09 0.158 0.14l0.095-0.17c0.194-0.34 0.082-0.78-0.253-0.97l-0.682-0.4zm-4.262 0.27s-1.3918 1.5-1.002 2.84c0.227-0.99 1.002-1.84 1.002-1.84l3.82 2.21c-0.29 0.51 0.035 0.98 0.569 1.41h1.533c-1.213-0.71-2.627-1.48-2.102-2.41l-3.82-2.21zm6.195 1.25c-0.035 0.12-0.064 0.23-0.125 0.34-0.113 0.2-0.231 0.41-0.347 0.62-0.176 0.31-0.504 0.51-0.861 0.51h0.031c0.173 0.16 0.462 0.35 0.787 0.55 0.013-0.02 0.031-0.04 0.043-0.06 0.116-0.21 0.234-0.42 0.347-0.62 0.239-0.42 0.258-0.9 0.125-1.34z" opacity=".3"/>
</svg>
