<?xml version="1.0" encoding="UTF-8"?>
<svg id="svg30" width="16" height="16" version="1.1" xmlns="http://www.w3.org/2000/svg" xmlns:cc="http://creativecommons.org/ns#" xmlns:dc="http://purl.org/dc/elements/1.1/" xmlns:rdf="http://www.w3.org/1999/02/22-rdf-syntax-ns#">
 <metadata id="metadata34">
  <rdf:RDF>
   <cc:Work rdf:about="">
    <dc:format>image/svg+xml</dc:format>
    <dc:type rdf:resource="http://purl.org/dc/dcmitype/StillImage"/>
   </cc:Work>
  </rdf:RDF>
 </metadata>
 <defs id="defs7">
  <radialGradient id="gr0" cx="9" cy="10" r="11" gradientTransform="matrix(1 0 0 .54545 0 4.5455)" gradientUnits="userSpaceOnUse">
   <stop id="stop2" stop-opacity=".23529" offset="0"/>
   <stop id="stop4" stop-opacity=".54902" offset="1"/>
  </radialGradient>
 </defs>
 <path id="path9" d="m2.5 2c-1.3677 0-2.5 1.1323-2.5 2.5v4.5 2.5c0 1.3677 1.1323 2.5 2.5 2.5h2.5a1 1.0001 0 0 0 0.98828-0.8418l4.498 2.6992a1.0001 1.0001 0 0 0 1.5137-0.8574v-1h1.5c1.3677 0 2.5-1.1323 2.5-2.5v-7c0-1.3677-1.1323-2.5-2.5-2.5h-11zm0 1h11c0.831 0 1.5 0.669 1.5 1.5v7c0 0.831-0.669 1.5-1.5 1.5h-2.5v2l-5-3 5-3v2h1.5c0.277 0 0.5-0.223 0.5-0.5v-5c0-0.277-0.223-0.5-0.5-0.5h-9c-0.277 0-0.5 0.223-0.5 0.5v3.5 1.5c0 0.277 0.223 0.5 0.5 0.5h1.5v2h-2.5c-0.831 0-1.5-0.669-1.5-1.5v-2.5-4.5c0-0.831 0.669-1.5 1.5-1.5zm1.5 3h8v3a1.0001 1.0001 0 0 0-1.5137-0.85742l-4.5 2.6992a1.0001 1.0001 0 0 0-0.98633-0.8418h-1v-1-3z" fill="#fff" opacity=".05"/>
 <path id="base" d="m2.5 3c-0.831 0-1.5 0.669-1.5 1.5v7c0 0.831 0.669 1.5 1.5 1.5h2.5v-2h-1.5c-0.277 0-0.5-0.223-0.5-0.5v-5c0-0.277 0.223-0.5 0.5-0.5h9c0.277 0 0.5 0.223 0.5 0.5v5c0 0.277-0.223 0.5-0.5 0.5h-1.5v-2l-5 3 5 3v-2h2.5c0.831 0 1.5-0.669 1.5-1.5v-7c0-0.831-0.669-1.5-1.5-1.5h-11z" fill="url(#gr0)"/>
 <path id="path15" d="m2.5 3c-0.831 0-1.5 0.669-1.5 1.5v4.5 2.5c0 0.831 0.669 1.5 1.5 1.5h2.5v-2h-1.5c-0.277 0-0.5-0.223-0.5-0.5v-1.5-3.5c0-0.277 0.223-0.5 0.5-0.5h9c0.277 0 0.5 0.223 0.5 0.5v5c0 0.277-0.223 0.5-0.5 0.5h-1.5v-2l-5 3 5 3v-2h2.5c0.831 0 1.5-0.669 1.5-1.5v-7c0-0.831-0.669-1.5-1.5-1.5h-11zm0 0.5h11c0.5626 0 1 0.43735 1 1v7c0 0.5626-0.4374 1-1 1h-2.5a0.50005 0.50005 0 0 0-0.5 0.5v1.1152l-3.5254-2.1152 3.5254-2.1152v1.1152a0.50005 0.50005 0 0 0 0.5 0.5h1.5c0.5454 0 1-0.4546 1-1v-5c0-0.54535-0.4546-1-1-1h-9c-0.54535 0-1 0.45465-1 1v3.5 1.5c0 0.5454 0.45465 1 1 1h1v1h-2c-0.56265 0-1-0.4374-1-1v-2.5-4.5c0-0.56265 0.43735-1 1-1z" opacity=".3"/>
 <path id="path20" d="m3.5 5c-0.277 0-0.5 0.223-0.5 0.5v1c0-0.277 0.223-0.5 0.5-0.5h9c0.277 0 0.5 0.223 0.5 0.5v-1c0-0.277-0.223-0.5-0.5-0.5h-9zm-2.5 6.5v1c0 0.831 0.669 1.5 1.5 1.5h2.5v-1h-2.5c-0.831 0-1.5-0.669-1.5-1.5zm14 0c0 0.831-0.669 1.5-1.5 1.5h-2.5v1h2.5c0.831 0 1.5-0.669 1.5-1.5v-1zm-8.166 1-0.83398 0.5 5 3v-1l-4.166-2.5z" fill="#fff" opacity=".2"/>
 <path id="path25" d="m2.5 3c-0.831 0-1.5 0.669-1.5 1.5v1c0-0.831 0.669-1.5 1.5-1.5h11c0.831 0 1.5 0.669 1.5 1.5v-1c0-0.831-0.669-1.5-1.5-1.5h-11zm8.5 6-5 3 0.83398 0.5 4.166-2.5v-1zm-8 1.5v1c0 0.277 0.223 0.5 0.5 0.5h1.5v-1h-1.5c-0.277 0-0.5-0.223-0.5-0.5zm10 0c0 0.277-0.223 0.5-0.5 0.5h-1.5v1h1.5c0.277 0 0.5-0.223 0.5-0.5v-1z" opacity=".3"/>
</svg>
