<?xml version="1.0" encoding="UTF-8"?>
<svg id="svg30" width="16" height="16" version="1.1" xmlns="http://www.w3.org/2000/svg" xmlns:cc="http://creativecommons.org/ns#" xmlns:dc="http://purl.org/dc/elements/1.1/" xmlns:rdf="http://www.w3.org/1999/02/22-rdf-syntax-ns#">
 <metadata id="metadata34">
  <rdf:RDF>
   <cc:Work rdf:about="">
    <dc:format>image/svg+xml</dc:format>
    <dc:type rdf:resource="http://purl.org/dc/dcmitype/StillImage"/>
   </cc:Work>
  </rdf:RDF>
 </metadata>
 <defs id="defs7">
  <radialGradient id="gr0" cx="9" cy="10" r="11" gradientTransform="matrix(1 0 0 .72727 0 2.7273)" gradientUnits="userSpaceOnUse">
   <stop id="stop2" stop-opacity=".23529" offset="0"/>
   <stop id="stop4" stop-opacity=".54902" offset="1"/>
  </radialGradient>
 </defs>
 <path id="path9" d="m1.2383 0a1 1.0001 0 0 0-0.97656 1.2188c0.2157 0.95998 0.57302 1.9311 1.127 2.834 0.72071 1.1748 1.7791 2.1934 3.166 2.8828a1.0001 1.0001 0 0 0 0.44531 0.10547v0.95898a1.0001 1.0001 0 0 0 1 1v1h-1a1.0001 1.0001 0 0 0-1 1v2a1.0001 1.0001 0 0 0 1 1h1v1a1.0001 1.0001 0 0 0 1 1h2a1.0001 1.0001 0 0 0 1-1v-1h1a1.0001 1.0001 0 0 0 1-1v-2a1.0001 1.0001 0 0 0-1-1h-1v-1a1.0001 1.0001 0 0 0 1-1v-0.93359a1.0001 1.0001 0 0 0 0.4727-0.11914c1.3005-0.69681 2.3137-1.683 3.0234-2.8106 0.5848-0.92803 0.965-1.9221 1.1992-2.9043a1.0001 1.0001 0 0 0-0.9726-1.2324h-1.0606a1.0001 1.0001 0 0 0-0.9648 0.73438c-0.1722 0.62522-0.4277 1.2342-0.7676 1.7734a1.0001 1.0001 0 0 0-2e-3 0.00196c-0.2604 0.41449-0.6519 0.73058-1.0254 1.0605a1.0001 1.0001 0 0 0-0.9023-0.57031h-4a1.0001 1.0001 0 0 0-0.91797 0.60742c-0.41345-0.34227-0.83439-0.67493-1.1152-1.1328-0.31687-0.51657-0.54755-1.1028-0.69922-1.7148a1.0001 1.0001 0 0 0-0.9707-0.75977h-1.0586zm0 1h1.0586c0.17274 0.6971 0.43908 1.3797 0.81835 1.998 0.461 0.7516 1.0712 1.4096 1.8848 1.9082v1.1348c-1.2191-0.606-2.1309-1.4866-2.7598-2.5117-0.4865-0.793-0.80628-1.6585-1.002-2.5293zm12.424 0h1.0606c-0.2129 0.8928-0.5553 1.783-1.0723 2.6035-0.622 0.9882-1.5044 1.8489-2.6504 2.4629v-1.1914c0.743-0.4975 1.3294-1.1241 1.7754-1.834 0.3994-0.6336 0.6914-1.3318 0.8867-2.041zm-7.6621 3h4v4h-4v-4zm1 5h2v2h2v2h-2v2h-2v-2h-2v-2h2v-2z" fill="#fff" opacity=".05"/>
 <path id="base" d="m1.2381 1c0.19567 0.87084 0.5155 1.7363 1.002 2.5293 0.6289 1.0251 1.5407 1.9057 2.7598 2.5117v-1.1348c-0.8136-0.4986-1.4238-1.1566-1.8848-1.9082-0.37927-0.61831-0.64562-1.3009-0.81836-1.998zm12.424 0c-0.19534 0.70918-0.48734 1.4074-0.88672 2.041-0.446 0.7099-1.0324 1.3365-1.7754 1.834v1.1914c1.146-0.614 2.0284-1.4747 2.6504-2.4629 0.51702-0.82049 0.85942-1.7107 1.0723-2.6035zm-7.6621 3v4h4v-4zm1 5v2h-2v2h2v2h2v-2h2v-2h-2v-2z" fill="url(#gr0)"/>
 <path id="path15" d="m1.2383 1c0.19567 0.87084 0.51545 1.7363 1.002 2.5293 0.6289 1.0251 1.5407 1.9057 2.7598 2.5117v-1.1348c-0.8136-0.4986-1.4238-1.1566-1.8848-1.9082-0.37927-0.61831-0.64561-1.301-0.81835-1.998h-1.0586zm12.424 0c-0.1953 0.70918-0.4873 1.4074-0.8867 2.041-0.446 0.7099-1.0324 1.3365-1.7754 1.834v1.1914c1.146-0.614 2.0284-1.4747 2.6504-2.4629 0.517-0.82049 0.8594-1.7107 1.0723-2.6035h-1.0606zm-11.666 0.57227c0.17898 0.57866 0.36949 1.1595 0.69336 1.6875 0.14559 0.23736 0.33917 0.44785 0.51563 0.66796-0.18004-0.2201-0.39211-0.42061-0.53906-0.66015-0.32293-0.52638-0.48793-1.115-0.66993-1.6953zm11.953 0.01171c-0.1963 0.59881-0.3772 1.2056-0.7226 1.7539-0.27 0.42886-0.627 0.80384-1.0157 1.1582-0.2066 0.19666-0.4229 0.38665-0.6562 0.5625 0.2357-0.17513 0.445-0.36988 0.6562-0.5625 0.3805-0.36213 0.7169-0.7557 0.9883-1.1875 0.3402-0.53969 0.5516-1.1337 0.75-1.7246zm-7.9492 2.416v4h4v-4h-4zm1 5v2h-2v2h2v2h2v-2h2v-2h-2v-2h-2zm0.5 0.5h1v1.5a0.50005 0.50005 0 0 0 0.5 0.5h1.5v1h-1.5a0.50005 0.50005 0 0 0-0.5 0.5v1.5h-1v-1.5a0.50005 0.50005 0 0 0-0.5-0.5h-1.5v-1h1.5a0.50005 0.50005 0 0 0 0.5-0.5v-1.5z" opacity=".3"/>
 <path id="path20" d="m1.2383 2c0.19567 0.87084 0.51545 1.7363 1.002 2.5293 0.6289 1.0251 1.5407 1.9057 2.7598 2.5117v-1c-1.2191-0.606-2.1309-1.4866-2.7598-2.5117-0.2987-0.4869-0.52805-1.0033-0.71093-1.5293h-0.29102zm13.18 0c-0.1977 0.55018-0.4449 1.0913-0.7676 1.6035-0.622 0.9882-1.5044 1.8489-2.6504 2.4629v1c1.146-0.614 2.0284-1.4747 2.6504-2.4629 0.517-0.82049 0.8594-1.7107 1.0723-2.6035h-0.3047zm-8.418 6v1h1 2 1v-1h-4zm-1 5v1h2v-1h-2zm4 0v1h2v-1h-2zm-2 2v1h2v-1h-2z" fill="#fff" opacity=".2"/>
 <path id="path25" d="m1.2383 1c0.07553 0.33616 0.17604 0.66931 0.29102 1h0.76758c0.17274 0.6971 0.43908 1.3797 0.81835 1.998 0.461 0.7516 1.0712 1.4096 1.8848 1.9082v-1c-0.8136-0.4986-1.4238-1.1566-1.8848-1.9082-0.37927-0.61831-0.64561-1.301-0.81835-1.998h-1.0586zm12.424 0c-0.1953 0.70918-0.4873 1.4074-0.8867 2.041-0.446 0.7099-1.0324 1.3365-1.7754 1.834v1c0.743-0.4975 1.3294-1.1241 1.7754-1.834 0.3994-0.6336 0.6914-1.3318 0.8867-2.041h0.7559c0.1189-0.3312 0.2247-0.66451 0.3047-1h-1.0606zm-7.6621 3v1h4v-1h-4zm1 5v1h2v-1h-2zm-2 2v1h2v-1h-2zm4 0v1h2v-1h-2z" opacity=".3"/>
</svg>
