<?xml version="1.0" encoding="UTF-8"?>
<svg id="svg30" width="16" height="16" version="1.1" xmlns="http://www.w3.org/2000/svg" xmlns:cc="http://creativecommons.org/ns#" xmlns:dc="http://purl.org/dc/elements/1.1/" xmlns:rdf="http://www.w3.org/1999/02/22-rdf-syntax-ns#">
 <metadata id="metadata34">
  <rdf:RDF>
   <cc:Work rdf:about="">
    <dc:format>image/svg+xml</dc:format>
    <dc:type rdf:resource="http://purl.org/dc/dcmitype/StillImage"/>
   </cc:Work>
  </rdf:RDF>
 </metadata>
 <defs id="defs7">
  <radialGradient id="gr0" cx="9" cy="10" r="11" gradientTransform="matrix(1 0 0 .72727 0 2.7273)" gradientUnits="userSpaceOnUse">
   <stop id="stop2" stop-opacity=".23529" offset="0"/>
   <stop id="stop4" stop-opacity=".54902" offset="1"/>
  </radialGradient>
 </defs>
 <path id="path9" d="m1 0a1 1.0001 0 0 0-1 1v2a1.0001 1.0001 0 0 0 1 1h1.3652c-0.50267 0.72605-0.86523 1.5559-0.86523 2.5s0.36256 1.774 0.86523 2.5h-1.3652a1.0001 1.0001 0 0 0-1 1v2a1.0001 1.0001 0 0 0 1 1h2a1.0001 1.0001 0 0 0 1-1v-1.5273c0.61037 0.3109 1.2719 0.5273 2 0.5273v1a1.0001 1.0001 0 0 0 1 1h6a1.0001 1.0001 0 0 0 1-1v-6a1.0001 1.0001 0 0 0-1-1h-2.0625a1.0001 1.0001 0 0 0-0.6875 0.27539c-0.1366-0.46803-0.34349-0.88289-0.61523-1.2754h1.3652a1.0001 1.0001 0 0 0 1-1v-2a1.0001 1.0001 0 0 0-1-1h-2a1.0001 1.0001 0 0 0-1 1v1.5273c-0.61037-0.31092-1.2719-0.52734-2-0.52734s-1.3896 0.21642-2 0.52734v-1.5273a1.0001 1.0001 0 0 0-1-1h-2zm0 1h2v2h-2v-2zm8 0h2v2h-2v-2zm-3 2c1.933 0 3.5 1.567 3.5 3.5s-1.567 3.5-3.5 3.5-3.5-1.567-3.5-3.5 1.567-3.5 3.5-3.5zm4.9375 3h2.0625v6h-6v-1.0625c2.2461-0.253 4-2.124 4-4.4375 0-0.1718-0.0445-0.3332-0.0625-0.5zm-9.9375 4h2v2h-2v-2z" fill="#fff" opacity=".05"/>
 <path id="base" d="m1 1v2h2v-2zm8 0v2h2v-2zm-3 2c-1.933 0-3.5 1.567-3.5 3.5s1.567 3.5 3.5 3.5 3.5-1.567 3.5-3.5-1.567-3.5-3.5-3.5zm4.938 3c0.018 0.1668 0.062 0.3282 0.062 0.5 0 2.3135-1.7539 4.185-4 4.438v1.062h6v-6zm-9.938 4v2h2v-2z" fill="url(#gr0)"/>
 <path id="path15" d="m1 1v2h2v-2h-2zm8 0v2h2v-2h-2zm-7.5 0.5h1v1h-1v-1zm8 0h1v1h-1v-1zm-3.5 1.5c-1.933 0-3.5 1.567-3.5 3.5s1.567 3.5 3.5 3.5 3.5-1.567 3.5-3.5-1.567-3.5-3.5-3.5zm0 0.5c1.6628 0 3 1.3372 3 3s-1.3372 3-3 3-3-1.3372-3-3 1.3372-3 3-3zm4.9375 2.5c0.018 0.1668 0.0625 0.3282 0.0625 0.5 0 2.3135-1.7539 4.1845-4 4.4375v1.0625h6v-6h-2.0625zm0.5625 0.5h1v5h-5v-0.1992c2.2625-0.4728 4-2.3977 4-4.8008zm-10.5 3.5v2h2v-2h-2zm0.5 0.5h1v1h-1v-1z" opacity=".3"/>
 <path id="path20" d="m1 3v1h2v-1h-2zm8 0v1h2v-1h-2zm-6.4492 4c-0.0238 0.16479-0.05078 0.32862-0.05078 0.5 0 1.933 1.567 3.5 3.5 3.5s3.5-1.567 3.5-3.5c0-0.17138-0.02698-0.33521-0.05078-0.5-0.24462 1.6939-1.6876 3-3.4492 3s-3.2046-1.3061-3.4492-3zm8.3867 0c0.0025 0.02277 0.0046 0.04575 0.0078 0.06836 0.0029-0.02263 0.0053-0.04562 0.0078-0.06836h-0.0156zm-9.9375 5v1h2v-1h-2zm6 0v1h6v-1h-6z" fill="#fff" opacity=".2"/>
 <path id="path25" d="m1 1v1h2v-1h-2zm8 0v1h2v-1h-2zm-3 2c-1.933 0-3.5 1.567-3.5 3.5 0 0.17138 0.02698 0.33521 0.05078 0.5 0.24462-1.6939 1.6876-3 3.4492-3s3.2046 1.3061 3.4492 3c0.0238-0.16479 0.05078-0.32862 0.05078-0.5 0-1.933-1.567-3.5-3.5-3.5zm4.9375 3c0.018 0.1668 0.0625 0.3282 0.0625 0.5 0 0.17135-0.0281 0.33398-0.0469 0.5h2.0469v-1h-2.0625zm0.0078 1.0684c-0.2623 2.0429-1.8884 3.6374-3.9453 3.8691v1c2.2461-0.253 4-2.124 4-4.4375 0-0.14834-0.0341-0.28863-0.0547-0.43164zm-9.9453 2.9316v1h2v-1h-2z" opacity=".3"/>
</svg>
