<?xml version="1.0" encoding="UTF-8"?>
<svg id="svg30" width="16" height="16" version="1.1" xmlns="http://www.w3.org/2000/svg" xmlns:cc="http://creativecommons.org/ns#" xmlns:dc="http://purl.org/dc/elements/1.1/" xmlns:rdf="http://www.w3.org/1999/02/22-rdf-syntax-ns#">
 <metadata id="metadata34">
  <rdf:RDF>
   <cc:Work rdf:about="">
    <dc:format>image/svg+xml</dc:format>
    <dc:type rdf:resource="http://purl.org/dc/dcmitype/StillImage"/>
   </cc:Work>
  </rdf:RDF>
 </metadata>
 <defs id="defs7">
  <radialGradient id="gr0" cx="9" cy="10" r="11" gradientTransform="matrix(1 0 0 .72727 0 2.7273)" gradientUnits="userSpaceOnUse">
   <stop id="stop2" stop-opacity=".23529" offset="0"/>
   <stop id="stop4" stop-opacity=".54902" offset="1"/>
  </radialGradient>
 </defs>
 <path id="path9" d="m8.0293 0a1 1.0001 0 0 0-0.88672 0.48633l-3 5a1.0001 1.0001 0 0 0 0.85742 1.5137h1v2h-1a1.0001 1.0001 0 0 0-0.85742 1.5137l3 5a1.0001 1.0001 0 0 0 1.7148 0l3-5a1.0001 1.0001 0 0 0-0.8574-1.5137h-1v-2h1a1.0001 1.0001 0 0 0 0.8574-1.5137l-3-5a1.0001 1.0001 0 0 0-0.82812-0.48633zm-0.0293 1 3 5h-2v4h2l-3 5-3-5h2v-4h-2l3-5z" fill="#fff" opacity=".05"/>
 <path id="base" d="m8 1-3 5h2v4h-2l3 5 3-5h-2v-4h2z" fill="url(#gr0)"/>
 <path id="path15" d="m8 1-3 5h2v4h-2l3 5 3-5h-2v-4h2l-3-5zm0 0.97461 2.1152 3.5254h-1.1152a0.50005 0.50005 0 0 0-0.5 0.5v4a0.50005 0.50005 0 0 0 0.5 0.5h1.1152l-2.1152 3.5254-2.1152-3.5254h1.1152a0.50005 0.50005 0 0 0 0.5-0.5v-4a0.50005 0.50005 0 0 0-0.5-0.5h-1.1152l2.1152-3.5254z" opacity=".3"/>
 <path id="path20" d="m5.5996 6-0.59961 1h2v-1h-1.4004zm3.4004 0v1h2l-0.5996-1h-1.4004zm-4 5 3 5 3-5h-0.5996l-2.4004 4-2.4004-4h-0.59961z" fill="#fff" opacity=".2"/>
 <path id="path25" d="m8 1-3 5h0.59961l2.4004-4 2.4004 4h0.5996l-3-5zm-3 9 0.59961 1h1.4004v-1h-2zm4 0v1h1.4004l0.5996-1h-2z" opacity=".3"/>
</svg>
