<?xml version="1.0" encoding="UTF-8"?>
<svg id="svg32" width="16" height="16" version="1.1" xmlns="http://www.w3.org/2000/svg" xmlns:cc="http://creativecommons.org/ns#" xmlns:dc="http://purl.org/dc/elements/1.1/" xmlns:rdf="http://www.w3.org/1999/02/22-rdf-syntax-ns#">
 <metadata id="metadata36">
  <rdf:RDF>
   <cc:Work rdf:about="">
    <dc:format>image/svg+xml</dc:format>
    <dc:type rdf:resource="http://purl.org/dc/dcmitype/StillImage"/>
   </cc:Work>
  </rdf:RDF>
 </metadata>
 <defs id="defs7">
  <radialGradient id="gr0" cx="9" cy="10" r="11" gradientTransform="matrix(1 0 0 .72727 0 2.7273)" gradientUnits="userSpaceOnUse">
   <stop id="stop2" stop-opacity=".23529" offset="0"/>
   <stop id="stop4" stop-opacity=".54902" offset="1"/>
  </radialGradient>
 </defs>
 <path id="path9" d="m2 0c-1.0907-1.4572e-16 -2 0.9093-2 2v12c-1.4572e-16 1.0907 0.9093 2 2 2h12c1.0907 0 2-0.9093 2-2v-12c0-1.0907-0.9093-2-2-2h-12zm0 1h6 6c0.554 0 1 0.446 1 1v6 6c0 0.554-0.446 1-1 1h-6-6c-0.554 0-1-0.446-1-1v-6-6c0-0.554 0.446-1 1-1zm5.9961 2c-0.42189 0.00157-0.8419 0.05702-1.25 0.16406a1 1.0001 0 0 0-0.56445 0.39258 1.0001 1.0001 0 0 0-0.68164 0.11914c-0.28432 0.16455-0.55221 0.35721-0.79883 0.57422a1.0001 1.0001 0 0 0-0.20312 0.24609 1.0001 1.0001 0 0 0-0.24805 0.20508c-0.21698 0.24661-0.40966 0.5145-0.57422 0.79883a1.0001 1.0001 0 0 0-0.11719 0.68164 1.0001 1.0001 0 0 0-0.39257 0.5625c-0.10787 0.40799-0.16366 0.828-0.16602 1.25a1.0001 1.0001 0 0 0 0.21094 0.61719 1.0001 1.0001 0 0 0-0.04883 0.64062c0.11355 0.43793 0.28698 0.85845 0.51367 1.25a1.0001 1.0001 0 0 0 0.34961 0.3554 1.0001 1.0001 0 0 0 0.22461 0.4414c0.14077 0.16 0.29115 0.3104 0.45117 0.4512a1.0001 1.0001 0 0 0 0.44336 0.2246 1.0001 1.0001 0 0 0 0.35547 0.3516c0.39167 0.2258 0.81218 0.397 1.25 0.5097a1.0001 1.0001 0 0 0 0.63477-0.0488 1.0001 1.0001 0 0 0 0.61914 0.2129c0.42171-0.0016 0.8418-0.057 1.25-0.1641a1.0001 1.0001 0 0 0 0.56445-0.3925 1.0001 1.0001 0 0 0 0.68164-0.1192c0.2843-0.1645 0.5522-0.3572 0.7988-0.5742a1.0001 1.0001 0 0 0 0.2032-0.2461 1.0001 1.0001 0 0 0 0.248-0.2051c0.217-0.2466 0.4097-0.5145 0.5742-0.7988a1.0001 1.0001 0 0 0 0.1172-0.68164 1.0001 1.0001 0 0 0 0.3926-0.5625c0.1079-0.40799 0.1636-0.82799 0.166-1.25a1.0001 1.0001 0 0 0-0.2109-0.61719 1.0001 1.0001 0 0 0 0.0488-0.64062c-0.1136-0.43793-0.287-0.85843-0.5137-1.25a1.0001 1.0001 0 0 0-0.3496-0.35547 1.0001 1.0001 0 0 0-0.2246-0.44141c-0.1408-0.16002-0.2912-0.3104-0.4512-0.45117a1.0001 1.0001 0 0 0-0.4433-0.22461 1.0001 1.0001 0 0 0-0.3555-0.35156c-0.3917-0.22581-0.81218-0.39698-1.25-0.50977a1.0001 1.0001 0 0 0-0.63477 0.04883 1.0001 1.0001 0 0 0-0.61914-0.21289zm0.00391 1v1h1v-0.86719c0.35026 0.09023 0.68666 0.22756 1 0.40821v0.45898h0.6387c0.128 0.11262 0.2487 0.23331 0.3613 0.36133v0.63867h0.459c0.1813 0.31324 0.3191 0.64965 0.4101 1h-0.8691v1h1c-0.0019 0.3376-0.0468 0.67361-0.1328 1h-0.8672v1h0.459c-0.1317 0.2274-0.2854 0.4414-0.459 0.6387v-0.6387h-1v1h0.6387c-0.1973 0.1736-0.4113 0.3273-0.6387 0.459v-0.459h-1v0.8691c-0.32648 0.0859-0.66248 0.1309-1 0.1309v-1h-1v0.8672c-0.35026-0.0902-0.68666-0.2276-1-0.4082v-0.459h-0.63867c-0.12802-0.1126-0.24871-0.2333-0.36133-0.3613v-0.6387h-0.45898c-0.18134-0.31324-0.31936-0.64965-0.41016-1h0.86914v-1h-1c0.00189-0.3376 0.04651-0.67361 0.13281-1h0.86719v-1h-0.45898c0.13164-0.22745 0.28538-0.44137 0.45898-0.63867v0.63867h1v-1h-0.63867c0.19729-0.1736 0.41122-0.32734 0.63867-0.45898v0.45898h1v-0.86914c0.32648-0.08566 0.66248-0.12986 1-0.13086zm-1 1v1h1v-1h-1zm1 1c0.35122 4.8e-4 0.69611 0.09344 1 0.26953v-0.26953h-1zm1 0h1v-1h-1v1zm1 0v1h1v-1h-1zm0 1h-0.27148c0.17678 0.3037 0.27048 0.64861 0.27148 1v-1zm0 1v1h1v-1h-1zm0 1h-0.26953c-0.17559 0.30254-0.42746 0.55374-0.73047 0.72852v0.27148h1v-1zm-1 1h-1v1h1v-1zm-1 0c-0.35122-4.8e-4 -0.69611-0.09344-1-0.26953v0.26953h1zm-1 0h-1v1h1v-1zm-1 0v-1h-1v1h1zm0-1h0.27148c-0.17678-0.3037-0.27048-0.64861-0.27148-1v1zm0-1v-1h-1v1h1zm0-1h0.26953c0.17559-0.30254 0.42746-0.55374 0.73047-0.72852v-0.27148h-1v1z" fill="#fff" opacity=".05"/>
 <path id="base" d="m2 1c-0.554 0-1 0.446-1 1v12c0 0.554 0.446 1 1 1h12c0.554 0 1-0.446 1-1v-12c0-0.554-0.446-1-1-1h-12zm6 1a6 6 0 0 1 6 6 6 6 0 0 1-6 6 6 6 0 0 1-6-6 6 6 0 0 1 6-6zm0 2c-0.33752 0.0012549-0.67352 0.045224-1 0.13086v0.86914h1v-1zm0 1v1h1v-1h-1zm1 0h1v-0.45898c-0.31334-0.18065-0.64974-0.31797-1-0.4082v0.86719zm1 0v1h1v-0.63867c-0.11262-0.12802-0.23331-0.24871-0.36133-0.36133h-0.63867zm1 1v1h0.86914c-0.090847-0.35035-0.22882-0.68676-0.41016-1h-0.45898zm0 1h-1v1h1v-1zm0 1v1h0.86719c0.086293-0.32639 0.13092-0.6624 0.13281-1h-1zm0 1h-1v1h1v-1zm0 1v0.63867c0.1736-0.1973 0.32734-0.41122 0.45898-0.63867h-0.45898zm-1 0h-1v1h1v-1zm0 1v0.45898c0.22745-0.13164 0.44138-0.28538 0.63867-0.45898h-0.63867zm-1 0h-1v1c0.33752-0.0013 0.67352-0.04522 1-0.13086v-0.86914zm-1 0v-1h-1v1h1zm-1 0h-1v0.45898c0.31334 0.18065 0.64974 0.31797 1 0.4082v-0.86719zm-1 0v-1h-1v0.63867c0.11262 0.12802 0.23331 0.24871 0.36133 0.36133h0.63867zm-1-1v-1h-0.86914c0.090846 0.35035 0.22882 0.68676 0.41016 1h0.45898zm0-1h1v-1h-1v1zm0-1v-1h-0.86719c-0.086294 0.32639-0.13092 0.6624-0.13281 1h1zm0-1h1v-1h-1v1zm0-1v-0.63867c-0.1736 0.1973-0.32734 0.41122-0.45898 0.63867h0.45898zm1 0h1v-1h-1v1zm0-1v-0.45898c-0.22745 0.13164-0.44138 0.28538-0.63867 0.45898h0.63867zm1 1v0.27148c-0.30301 0.17478-0.55488 0.42598-0.73047 0.72852h-0.26953v1c0.00107 0.35139 0.094712 0.6963 0.27148 1h-0.27148v1h1v-0.26953c0.30389 0.17609 0.64878 0.26905 1 0.26953h1v-0.27148c0.30301-0.17478 0.55488-0.42598 0.73047-0.72852h0.26953v-1c-0.0010741-0.35139-0.094712-0.6963-0.27148-1h0.27148v-1h-1v0.26953c-0.30389-0.17609-0.64878-0.26905-1-0.26953h-1z" fill="url(#gr0)"/>
 <path id="path15" d="m8 3v1h1v-0.89844a5 5 0 0 0-1-0.10156zm1 1v0.13281a4 4 0 0 1 1 0.4082v-0.54102h-1zm1 0h0.99023a5 5 0 0 0-0.99023-0.58008v0.58008zm-2 0h-1v0.13086a4 4 0 0 1 1-0.13086zm-1 0v-0.89453a5 5 0 0 0-1 0.31836v0.57617h1zm-1 0h-0.99023a5 5 0 0 0-0.0097656 0.0078125v0.99219h0.36133a4 4 0 0 1 0.63867-0.45898v-0.54102zm-1 1h-0.99219a5 5 0 0 0-0.0078125 0.0097656v0.99023h0.54102a4 4 0 0 1 0.45898-0.63867v-0.36133zm-1 1h-0.58008a5 5 0 0 0-0.31836 1h0.89844v-1zm0 1v1a4 4 0 0 1 0.13281-1h-0.13281zm0 1h-1a5 5 0 0 0 0.10547 1h0.89453v-1zm0 1v1h0.54102a4 4 0 0 1-0.41016-1h-0.13086zm0 1h-0.57617a5 5 0 0 0 0.57617 0.99023v-0.99023zm7-5.9922v0.99219h0.99219a5 5 0 0 0-0.99219-0.99219zm0 0.99219h-0.36133a4 4 0 0 1 0.36133 0.36133v-0.36133zm1 0.0097656v0.99023h0.57617a5 5 0 0 0-0.57617-0.99023zm0 0.99023h-0.54102a4 4 0 0 1 0.41016 1h0.13086v-1zm0 1v1h1a5 5 0 0 0-0.10547-1h-0.89453zm0 1a4 4 0 0 1-0.13281 1h0.13281v-1zm0 1v1h0.58008a5 5 0 0 0 0.31836-1h-0.89844zm0 1h-0.54102a4 4 0 0 1-0.45898 0.63867v0.36133h0.99219a5 5 0 0 0 0.007812-0.009766v-0.99023zm-1 1h-0.36133a4 4 0 0 1-0.63867 0.45898v0.54102h0.99023a5 5 0 0 0 0.009766-0.007812v-0.99219zm-1 1h-1v0.89453a5 5 0 0 0 1-0.31836v-0.57617zm-1 0v-0.13086a4 4 0 0 1-1 0.13086h1zm-1 0h-1v0.89844a5 5 0 0 0 1 0.10156v-1zm-1 0v-0.13281a4 4 0 0 1-1-0.4082v0.54102h1zm-1 0h-0.99023a5 5 0 0 0 0.99023 0.58008v-0.58008zm-1-1.3613v0.36133h0.36133a4 4 0 0 1-0.36133-0.36133zm0 0.36133h-0.99219a5 5 0 0 0 0.99219 0.99219v-0.99219z" opacity=".2"/>
 <path id="path17" d="m2 1c-0.554 0-1 0.446-1 1v12c0 0.554 0.446 1 1 1h12c0.554 0 1-0.446 1-1v-12c0-0.554-0.446-1-1-1h-12zm0 0.5h12c0.2856 0 0.5 0.21435 0.5 0.5v12c0 0.2856-0.2144 0.5-0.5 0.5h-12c-0.28565 0-0.5-0.2144-0.5-0.5v-12c0-0.28565 0.21435-0.5 0.5-0.5zm6 2.5c-0.33752 1e-3 -0.67352 0.0452-1 0.13086v0.86914h1v-1zm0 1v1h1v-1h-1zm1 0h1v-0.45898c-0.31334-0.18065-0.64974-0.31798-1-0.40821v0.86719zm1 0v1h1v-0.63867c-0.1126-0.12802-0.2333-0.24871-0.3613-0.36133h-0.6387zm1 1v1h0.8691c-0.091-0.35035-0.2288-0.68676-0.4101-1h-0.459zm0 1h-1v1h1v-1zm0 1v1h0.8672c0.086-0.32639 0.1309-0.6624 0.1328-1h-1zm0 1h-1v1h1v-1zm0 1v0.6387c0.1736-0.1973 0.3273-0.4113 0.459-0.6387h-0.459zm-1 0h-1v1h1v-1zm0 1v0.459c0.2274-0.1317 0.4414-0.2854 0.6387-0.459h-0.6387zm-1 0h-1v1c0.33752 0 0.67352-0.045 1-0.1309v-0.8691zm-1 0v-1h-1v1h1zm-1 0h-1v0.459c0.31334 0.1806 0.64974 0.318 1 0.4082v-0.8672zm-1 0v-1h-1v0.6387c0.11262 0.128 0.23331 0.2487 0.36133 0.3613h0.63867zm-1-1v-1h-0.86914c0.0908 0.35035 0.22882 0.68676 0.41016 1h0.45898zm0-1h1v-1h-1v1zm0-1v-1h-0.86719c-0.0863 0.32639-0.13092 0.6624-0.13281 1h1zm0-1h1v-1h-1v1zm0-1v-0.63867c-0.1736 0.1973-0.32734 0.41122-0.45898 0.63867h0.45898zm1 0h1v-1h-1v1zm0-1v-0.45898c-0.22745 0.13164-0.44138 0.28538-0.63867 0.45898h0.63867zm1 1v0.27148c-0.30301 0.17478-0.55488 0.42598-0.73047 0.72852h-0.26953v1c1e-3 0.35139 0.0947 0.6963 0.27148 1h-0.27148v1h1v-0.26953c0.30389 0.17609 0.64878 0.26905 1 0.26953h1v-0.27148c0.30301-0.17478 0.55488-0.42598 0.73047-0.72852h0.26953v-1c-1e-3 -0.35139-0.0947-0.6963-0.27148-1h0.27148v-1h-1v0.26953c-0.30389-0.17609-0.64878-0.26905-1-0.26953h-1zm0.44531 0.5h0.55469c0.26344 3.6e-4 0.52205 0.06909 0.75 0.20117a0.50005 0.50005 0 0 0 0.69336-0.20117h0.05664v0.05664a0.50005 0.50005 0 0 0-0.20312 0.69531c0.13226 0.22725 0.20198 0.48515 0.20312 0.74805v0.00195 0.55469a0.50005 0.50005 0 0 0-0.20117 0.19141c-0.13171 0.22692-0.32155 0.41578-0.54883 0.54687a0.50005 0.50005 0 0 0-0.19531 0.20508h-0.55469c-0.26344-3.6e-4 -0.52205-0.06909-0.75-0.20117a0.50005 0.50005 0 0 0-0.69336 0.20117h-0.05664v-0.05664a0.50005 0.50005 0 0 0 0.20312-0.69531c-0.13226-0.22726-0.20198-0.48516-0.20312-0.74805v-0.00195-0.55469a0.50005 0.50005 0 0 0 0.20117-0.19141c0.13171-0.22692 0.32155-0.41578 0.54883-0.54687a0.50005 0.50005 0 0 0 0.19531-0.20508z" opacity=".3"/>
 <path id="path22" d="m8 2a6 6 0 0 0-6 6 6 6 0 0 0 0.02539 0.49805 6 6 0 0 1 5.9746-5.498 6 6 0 0 1 5.9746 5.502 6 6 0 0 0 0.0254-0.50195 6 6 0 0 0-6-6zm0 3c-0.33752 1e-3 -0.67352 0.0452-1 0.13086v0.86914h1v-1zm0 1c0.35122 4.8e-4 0.69611 0.09344 1 0.26953v-0.26953h-1zm1 0h1v-0.45898c-0.31334-0.18065-0.64974-0.31798-1-0.40821v0.86719zm1 0v1h1v-0.63867c-0.1126-0.12802-0.2333-0.24871-0.3613-0.36133h-0.6387zm1 1v1h0.8691c-0.091-0.35035-0.2288-0.68676-0.4101-1h-0.459zm0 1h-1v1h1v-1zm0 1v1h0.459 0.4082c0.086-0.32639 0.1309-0.6624 0.1328-1h-0.1328-0.8672zm0 1h-1v1h0.6387 0.3613v-0.3613-0.6387zm0 1v0.6387c0.1736-0.1973 0.3273-0.4113 0.459-0.6387h-0.459zm-1 0h-1v0.8691 0.1309h1v-0.541-0.459zm0 1v0.459c0.2274-0.1317 0.4414-0.2854 0.6387-0.459h-0.6387zm-1 0h-1v1c0.33752 0 0.67352-0.045 1-0.1309v-0.8691zm-1 0v-1h-1v0.8672 0.1328h1zm-1 0h-1v0.459c0.31334 0.1806 0.64974 0.318 1 0.4082v-0.8672zm-1 0v-0.541-0.459h-0.63867-0.36133v0.6387c0.11262 0.128 0.23331 0.2487 0.36133 0.3613h0.63867zm-1-1v-0.3613-0.6387h-0.45898-0.41016c0.0908 0.3504 0.22882 0.6868 0.41016 1h0.45898zm0-1h1v-1h-1v1zm0-1v-1h-0.86719c-0.0863 0.32639-0.13092 0.6624-0.13281 1h0.13086 0.86914zm0-1h1v-1h-1v1zm0-1v-0.63867c-0.1736 0.1973-0.32734 0.41122-0.45898 0.63867h0.45898zm1 0h0.26953c0.17559-0.30254 0.42746-0.55374 0.73047-0.72852v-0.27148h-1v1zm0-1v-0.45898c-0.22745 0.13164-0.44138 0.28538-0.63867 0.45898h0.63867zm0 2v1h0.27148c-0.17678-0.3037-0.27048-0.64861-0.27148-1zm0 2v1h1v-0.2695-0.7305h-0.72852-0.27148zm1 0h1c-0.35122-4.8e-4 -0.69611-0.09344-1-0.26953v0.26953zm1 0v1h1v-0.2715-0.7285h-1zm1 0h0.73047 0.26953v-1h-0.26953c-0.17559 0.30254-0.42746 0.55374-0.73047 0.72852v0.27148zm1-2v-1h-0.27148c0.17678 0.3037 0.27048 0.64861 0.27148 1zm-9 6v1c0 0.554 0.446 1 1 1h12c0.554 0 1-0.446 1-1v-1c0 0.554-0.446 1-1 1h-6-6c-0.554 0-1-0.446-1-1z" fill="#fff" opacity=".2"/>
 <path id="path27" d="m2 1c-0.554 0-1 0.446-1 1v1c0-0.554 0.446-1 1-1h6 6c0.554 0 1 0.446 1 1v-1c0-0.554-0.446-1-1-1h-12zm6 3c-0.33752 1e-3 -0.67352 0.0452-1 0.13086v0.86914h1v-1zm0 1v1h1v-0.86719-0.13281h-1zm1 0h1v-0.45898c-0.31334-0.18065-0.64974-0.31798-1-0.40821v0.86719zm1 0v0.54102 0.45898h0.6387 0.3613v-0.63867c-0.1126-0.12802-0.2333-0.24871-0.3613-0.36133h-0.6387zm1 1v0.36133 0.63867h0.459 0.4101c-0.091-0.35035-0.2288-0.68676-0.4101-1h-0.459zm0 1h-1v1h1v-1zm0 1v1h0.8672c0.086-0.32639 0.1309-0.6624 0.1328-1h-0.1309-0.8691zm0 1h-1v1h1v-1zm0 1v0.6387c0.1736-0.1973 0.3273-0.4113 0.459-0.6387h-0.459zm-1 0h-0.26953c-0.17559 0.3025-0.42746 0.5537-0.73047 0.7285v0.2715h1v-1zm0 1v0.459c0.2274-0.1317 0.4414-0.2854 0.6387-0.459h-0.6387zm-1 0h-1v1c0.33752 0 0.67352-0.045 1-0.1309v-0.8691zm-1 0c-0.35122-5e-4 -0.69611-0.0934-1-0.2695v0.2695h1zm-1 0h-1v0.459c0.31334 0.1806 0.64974 0.318 1 0.4082v-0.8672zm-1 0v-1h-1v0.6387c0.11262 0.128 0.23331 0.2487 0.36133 0.3613h0.63867zm-1-1v-1h-0.86914c0.0908 0.35035 0.22882 0.68676 0.41016 1h0.45898zm0-1h1v-1h-1v1zm0-1v-1h-0.45898-0.40821c-0.0863 0.32639-0.13092 0.6624-0.13281 1h0.13281 0.86719zm0-1h1v-1h-0.63867-0.36133v0.36133 0.63867zm0-1v-0.63867c-0.1736 0.1973-0.32734 0.41122-0.45898 0.63867h0.45898zm1 0h1v-0.86914-0.13086h-1v0.54102 0.45898zm0-1v-0.45898c-0.22745 0.13164-0.44138 0.28538-0.63867 0.45898h0.63867zm1 1v0.27148 0.72852h1v-1h-1zm1 1c0.35122 4.8e-4 0.69611 0.09344 1 0.26953v-0.26953h-1zm1 0h0.72852 0.27148v-1h-1v0.26953 0.73047zm-2 0h-0.73047-0.26953v1h0.26953c0.17559-0.30254 0.42746-0.55374 0.73047-0.72852v-0.27148zm-1 2v1h0.27148c-0.17678-0.3037-0.27048-0.64861-0.27148-1zm4 0v-1h-0.27148c0.17678 0.3037 0.27048 0.64861 0.27148 1zm-7.9746-0.50195a6 6 0 0 0-0.02539 0.50195 6 6 0 0 0 6 6 6 6 0 0 0 6-6 6 6 0 0 0-0.0254-0.49805 6 6 0 0 1-5.9746 5.498 6 6 0 0 1-5.9746-5.502z" opacity=".3"/>
</svg>
