<?xml version="1.0" encoding="UTF-8"?>
<svg id="svg32" width="16" height="16" version="1.1" xmlns="http://www.w3.org/2000/svg" xmlns:cc="http://creativecommons.org/ns#" xmlns:dc="http://purl.org/dc/elements/1.1/" xmlns:rdf="http://www.w3.org/1999/02/22-rdf-syntax-ns#">
 <metadata id="metadata36">
  <rdf:RDF>
   <cc:Work rdf:about="">
    <dc:format>image/svg+xml</dc:format>
    <dc:type rdf:resource="http://purl.org/dc/dcmitype/StillImage"/>
   </cc:Work>
  </rdf:RDF>
 </metadata>
 <defs id="defs7">
  <radialGradient id="gr0" cx="9" cy="10" r="11" gradientTransform="matrix(1 0 0 .72727 0 2.7273)" gradientUnits="userSpaceOnUse">
   <stop id="stop2" stop-opacity=".23529" offset="0"/>
   <stop id="stop4" stop-opacity=".54902" offset="1"/>
  </radialGradient>
 </defs>
 <path id="path9" d="m7 0c-1.8326 3.3664e-16 -3.6534 0.75494-4.9492 2.0508-1.2958 1.2958-2.0508 3.1166-2.0508 4.9492 2.2443e-16 1.8326 0.75494 3.6534 2.0508 4.9492 0.8234 0.8234 1.8822 1.3267 2.998 1.6582a1 1.0001 0 0 0-0.04883 0.3086v1.084a1.0001 1.0001 0 0 0 1 1h1 1 7a1.0001 1.0001 0 0 0 1-1v-7-1-1a1.0001 1.0001 0 0 0-1-1h-1.084l0.4141 1h0.6699v1 1 7h-7-1-1v-1.084c0.33146 0.049 0.6646 0.084 1 0.084 1.8326 0 3.6534-0.755 4.9492-2.0508s2.0508-3.1166 2.0508-4.9492c0-0.17228-0.0273-0.34251-0.043-0.51367l-0.0644-0.02149c-0.1339-1.6427-0.7771-3.2478-1.9434-4.4141-1.2958-1.2958-3.1166-2.0508-4.9492-2.0508zm0 1a6 6 0 0 1 6 6 6 6 0 0 1-6 6 6 6 0 0 1-6-6 6 6 0 0 1 6-6z" fill="#fff" opacity=".05"/>
 <path id="base" d="m7 1a6 6 0 0 0-6 6 6 6 0 0 0 6 6 6 6 0 0 0 6-6 6 6 0 0 0-6-6zm6.916 5c0.049262 0.33146 0.083984 0.6646 0.083984 1 0 1.8326-0.75494 3.6534-2.0508 4.9492-1.2958 1.2958-3.1166 2.0508-4.9492 2.0508-0.3354 0-0.66854-0.034724-1-0.083984v1.084h9v-9h-1.084z" fill="url(#gr0)"/>
 <path id="path15" d="m13.309 4c8.76e-4 0.00185 0.0011 0.00401 2e-3 0.00586 0.15245 0.32227 0.2877 0.65284 0.39058 0.99414h1.2988v-1zm-9.3086 9.3086v1.6914h1v-1.2988c-0.3413-0.10288-0.67187-0.23813-0.99414-0.39062-0.0019-8.81e-4 -4e-3 -0.0011-0.0059-2e-3z" opacity=".2"/>
 <path id="path17" d="m7 1a6 6 0 0 0-6 6 6 6 0 0 0 6 6 6 6 0 0 0 6-6 6 6 0 0 0-6-6zm0 0.5c1.4399 0 2.8705 0.59317 3.8887 1.6113 1.0181 1.0182 1.6113 2.4488 1.6113 3.8887s-0.5932 2.8705-1.6113 3.8887c-1.0182 1.0181-2.4488 1.6113-3.8887 1.6113s-2.8705-0.5932-3.8887-1.6113c-1.0182-1.0182-1.6113-2.4488-1.6113-3.8887s0.59317-2.8705 1.6113-3.8887 2.4488-1.6113 3.8887-1.6113zm6.916 4.5c0.049 0.33146 0.084 0.6646 0.084 1 0 1.8326-0.755 3.6534-2.0508 4.9492s-3.1166 2.0508-4.9492 2.0508c-0.3354 0-0.66854-0.035-1-0.084v1.084h1 1 7v-7-1-1h-1.084zm0.543 0.5h0.041v0.5 1 6.5h-6.5-1-0.5v-0.041c0.16691 0.014 0.32785 0.041 0.5 0.041 1.9699 0 3.91-0.8045 5.3027-2.1973 1.3928-1.3927 2.1973-3.3328 2.1973-5.3027 0-0.17215-0.027-0.33309-0.041-0.5z" opacity=".3"/>
 <path id="path22" d="m13.916 7c0.0305 0.20588 0.0381 0.41377 0.0528 0.62109 0.019-0.20648 0.0312-0.41356 0.0312-0.62109h-0.084zm-0.9414 0.49805a6 6 0 0 1-5.9746 5.502 6 6 0 0 1-5.9746-5.498 6 6 0 0 0-0.02539 0.49805 6 6 0 0 0 5.041 5.9199c0.31798 0.0459 0.63735 0.0801 0.95898 0.0801 0.20492 0 0.40937-0.0127 0.61328-0.0312a6 6 0 0 0 5.3867-5.9688 6 6 0 0 0-0.0254-0.50195zm-6.9746 7.502v1h1 1 7v-1h-7-1-1z" fill="#fff" opacity=".2"/>
 <path id="path27" d="m7 1a6 6 0 0 0-6 6 6 6 0 0 0 0.02539 0.50195 6 6 0 0 1 5.9746-5.502 6 6 0 0 1 5.9746 5.498 6 6 0 0 0 0.0254-0.49805 6 6 0 0 0-6-6zm6.916 5c0.049 0.33146 0.084 0.6646 0.084 1h1v-1h-1.084zm0.0528 1.6211c-0.1492 1.6169-0.8705 3.1791-2.0196 4.3281-1.1509 1.1509-2.7163 1.872-4.3359 2.0196a6 6 0 0 1-0.61328 0.0312 6 6 0 0 1-0.95898-0.0801c-0.01362-0.0019-0.02741-0.0019-0.04102-0.0039v1c0.33146 0.049 0.6646 0.084 1 0.084 1.8326 0 3.6534-0.755 4.9492-2.0508s2.0508-3.1166 2.0508-4.9492c0-0.12707-0.0223-0.25245-0.0312-0.37891z" opacity=".3"/>
</svg>
