<?xml version="1.0" encoding="UTF-8"?>
<svg id="svg30" width="16" height="16" version="1.1" xmlns="http://www.w3.org/2000/svg" xmlns:cc="http://creativecommons.org/ns#" xmlns:dc="http://purl.org/dc/elements/1.1/" xmlns:rdf="http://www.w3.org/1999/02/22-rdf-syntax-ns#">
 <metadata id="metadata34">
  <rdf:RDF>
   <cc:Work rdf:about="">
    <dc:format>image/svg+xml</dc:format>
    <dc:type rdf:resource="http://purl.org/dc/dcmitype/StillImage"/>
   </cc:Work>
  </rdf:RDF>
 </metadata>
 <defs id="defs7">
  <radialGradient id="gr0" cx="9" cy="10" r="11" gradientTransform="matrix(1 0 0 .72727 0 2.7273)" gradientUnits="userSpaceOnUse">
   <stop id="stop2" stop-opacity=".23529" offset="0"/>
   <stop id="stop4" stop-opacity=".54902" offset="1"/>
  </radialGradient>
 </defs>
 <path id="path9" d="m6.8906-0.0019531a1 1.0001 0 0 0-0.6289 0.2168c-0.1585 0.062809-0.34103 0.056128-0.47461 0.16211l-5.1211 4.0449a1.0001 1.0001 0 0 0-0.001954 0.00195c-0.4557 0.36093-0.71022 0.96044-0.6543 1.5391 0.055921 0.57862 0.42111 1.1178 0.9375 1.3848l2.4414 1.2578-1.2832 5.2285c-0.17113 0.6973 0.13944 1.4856 0.74023 1.8789 0.60079 0.3932 1.4489 0.3636 2.0195-0.0723l4.8965-3.7461 3.6778 1.8965-0.0118-0.0078c0.8147 0.4357 1.9528 0.0824 2.377-0.7383s0.0551-1.9546-0.7715-2.3672l-2.1953-1.1328 0.4941-0.3789-0.0234 0.01562c0.7562-0.5449 0.9332-1.7399 0.3672-2.4805-0.5661-0.74053-1.766-0.88361-2.4903-0.29687l-1.789 1.3672-1.9551-1.0078 1.1289-4.5996c0.25115-1.0195-0.62978-2.1544-1.6797-2.166zm-0.00976 1a0.74871 0.74871 0 0 1 0.71875 0.92773l-1.3164 5.3652 3.2188 1.6602 2.3144-1.7695a0.74871 0.74871 0 1 1 0.9082 1.1894l-1.75 1.3379 3.6113 1.8633a0.74871 0.74871 0 1 1-0.6875 1.33l-4.2402-2.1875-5.4004 4.1309a0.74871 0.74871 0 0 1-1.1816-0.7734l1.4707-5.9942-3.1406-1.6191a0.74871 0.74871 0 0 1-0.12109-1.252l5.123-4.0469a0.74871 0.74871 0 0 1 0.47266-0.16211zm-1.2559 2.6875-2.502 1.9766 1.791 0.92187 0.71094-2.8984zm0.29102 5.0996-0.87891 3.58 3.1504-2.4082-2.2715-1.1719z" fill="#fff" opacity=".05"/>
 <path id="base" d="m6.8809.99805a.74871 .74871 0 0 0 -.4727 .16215l-5.123 4.0468a.74871 .74871 0 0 0 .1210 1.252l3.1407 1.6191-1.4707 5.9939a.74871 .74871 0 0 0 1.1816 .77344l5.4004-4.1309 4.2402 2.1875a.74871 .74871 0 1 0 .6875 -1.3301l-3.6113-1.8633 1.75-1.3379a.74871 .74871 0 1 0 -.909 -1.1892l-2.314 1.7696-3.2188-1.6602 1.3164-5.3652a.74871 .74871 0 0 0 -.7187 -.92775zm-1.2559 2.6874-.7109 2.8985-1.7911-.9219 2.502-1.9766zm.2910 5.0997 2.2715 1.1718-3.1504 2.408.8789-3.5798z" fill="url(#gr0)"/>
 <path id="path15" d="m6.8809 0.99805a0.74871 0.74871 0 0 0-0.47266 0.16211l-5.123 4.0469a0.74871 0.74871 0 0 0 0.12109 1.252l3.1406 1.6191-1.4707 5.9942a0.74871 0.74871 0 0 0 1.1816 0.7734l5.4004-4.1309 4.2402 2.1875a0.74871 0.74871 0 1 0 0.6875-1.33l-3.6113-1.8633 1.75-1.3379a0.74871 0.74871 0 1 0-0.9082-1.1894l-2.3144 1.7695-3.2188-1.6602 1.3164-5.3652a0.74871 0.74871 0 0 0-0.71875-0.92773zm-0.00586 0.5c0.14932 0.00165 0.274 0.16359 0.23828 0.30859l-1.3164 5.3652a0.50005 0.50005 0 0 0 0.25585 0.5625l3.2188 1.6621a0.50005 0.50005 0 0 0 0.53321-0.04882l2.3144-1.7695a0.50005 0.50005 0 0 0 0.0118-0.00781c0.103-0.08345 0.273-0.0643 0.3535 0.04102s0.0548 0.27602-0.0528 0.35351a0.50005 0.50005 0 0 0-0.0097 0.00782l-1.75 1.3379a0.50005 0.50005 0 0 0 0.0742 0.84175l3.6113 1.8633a0.50005 0.50005 0 0 0 0.0059 0.0039c0.1175 0.0587 0.1697 0.2192 0.1094 0.336-0.0604 0.1167-0.2221 0.1674-0.3379 0.1054a0.50005 0.50005 0 0 0-0.0078-0.0039l-4.2403-2.1875a0.50005 0.50005 0 0 0-0.5332 0.0489l-5.3984 4.1289c-0.16232 0.1239-0.44126-0.0575-0.39258-0.2559l1.4707-5.9941a0.50005 0.50005 0 0 0-0.25781-0.56446l-3.1387-1.6172v-0.00195c-0.14506-0.07707-0.17004-0.31187-0.04102-0.41406l5.123-4.0469c0.04371-0.03467 0.10046-0.0548 0.15625-0.05468zm-1.2852 1.6875a0.50005 0.50005 0 0 0-0.27539 0.10742l-2.502 1.9766a0.50005 0.50005 0 0 0 0.08203 0.83789l1.791 0.92188a0.50005 0.50005 0 0 0 0.71484-0.32618l0.71094-2.8984a0.50005 0.50005 0 0 0-0.47071-0.61914 0.50005 0.50005 0 0 0-0.05078 0zm0.03516 0.5-0.71094 2.8984-1.791-0.92187 2.502-1.9766zm0.27539 4.5996a0.50005 0.50005 0 0 0-0.4707 0.38086l-0.87891 3.5801a0.50005 0.50005 0 0 0 0.78906 0.5156l3.1504-2.4082a0.50005 0.50005 0 0 0-0.07421-0.84178l-2.2715-1.1719a0.50005 0.50005 0 0 0-0.24414-0.05468zm0.01563 0.5 2.2715 1.1719-3.1504 2.4082 0.87891-3.58z" opacity=".3"/>
 <path id="path20" d="m7.498 2.3359-1.2148 4.9551 0.21875 0.11328 1.0977-4.4785a0.74871 0.74871 0 0 0-0.10156-0.58984zm-1.873 1.3496-2.502 1.9766 0.76562 0.39453 1.4316-1.1309 0.30469-1.2402zm-4.4316 2.6074a0.74871 0.74871 0 0 0 0.21289 1.166l2.9219 1.5078 0.21876-0.88868-3.1406-1.6191a0.74871 0.74871 0 0 1-0.21289-0.16601zm11.648 1.9707a0.74871 0.74871 0 0 1-0.1172 0.10742l-1.75 1.3379 0.7813 0.40232 0.9687-0.74021a0.74871 0.74871 0 0 0 0.1172-1.1074zm-6.9258 0.52149-0.87891 3.58 0.30273-0.2304 0.57618-2.3496 1.4902 0.76954 0.78125-0.59767-2.2715-1.1719zm3.7422 1.9296-5.4004 4.1309a0.74871 0.74871 0 0 1-1.0801-0.1836l-0.10156 0.4102a0.74871 0.74871 0 0 0 1.1816 0.7734l5.4004-4.1309 4.2402 2.1875a0.74871 0.74871 0 0 0 0.9082-1.1601 0.74871 0.74871 0 0 1-0.9082 0.1601l-4.2402-2.1875z" fill="#fff" opacity=".2"/>
 <path id="path25" d="m6.8809 0.99805a0.74871 0.74871 0 0 0-0.47266 0.16211l-5.123 4.0469a0.74871 0.74871 0 0 0-0.0918 1.0859 0.74871 0.74871 0 0 1 0.0918-0.08594l5.123-4.0469a0.74871 0.74871 0 0 1 0.47266-0.16211 0.74871 0.74871 0 0 1 0.61719 0.33789l0.10156-0.41016a0.74871 0.74871 0 0 0-0.71875-0.92773zm-1.2559 3.6875-0.30469 0.24023-0.40625 1.6582-1.0254-0.52734-0.76562 0.60547 1.791 0.92187 0.71094-2.8984zm6.6738 2.3301a0.74871 0.74871 0 0 0-0.4824 0.16602l-2.3144 1.7695-3-1.5469-0.21875 0.88672 3.2188 1.6602 2.3144-1.7695a0.74871 0.74871 0 0 1 1.0254 0.08203 0.74871 0.74871 0 0 0-0.543-1.248zm-7.9707 1.9512-1.252 5.1055a0.74871 0.74871 0 0 0 0.10156 0.5898l1.3692-5.584-0.21876-0.11132zm7.4278 1.1445-0.7813 0.5977 3.6113 1.8633a0.74871 0.74871 0 0 1 0.2207 0.1699 0.74871 0.74871 0 0 0-0.2207-1.1699l-2.83-1.461zm-4.3496 0.4434-2.0664 1.5801-0.30273 1.2304 3.1504-2.4082-0.78125-0.4023z" opacity=".3"/>
</svg>
