<?xml version="1.0" encoding="UTF-8"?>
<svg id="svg30" width="16" height="16" version="1.1" xmlns="http://www.w3.org/2000/svg" xmlns:cc="http://creativecommons.org/ns#" xmlns:dc="http://purl.org/dc/elements/1.1/" xmlns:rdf="http://www.w3.org/1999/02/22-rdf-syntax-ns#">
 <metadata id="metadata34">
  <rdf:RDF>
   <cc:Work rdf:about="">
    <dc:format>image/svg+xml</dc:format>
    <dc:type rdf:resource="http://purl.org/dc/dcmitype/StillImage"/>
   </cc:Work>
  </rdf:RDF>
 </metadata>
 <defs id="defs7">
  <radialGradient id="gr0" cx="9" cy="10" r="11" gradientTransform="matrix(1 0 0 .72727 0 2.7273)" gradientUnits="userSpaceOnUse">
   <stop id="stop2" stop-opacity=".23529" offset="0"/>
   <stop id="stop4" stop-opacity=".54902" offset="1"/>
  </radialGradient>
 </defs>
 <path id="path9" d="m6 0c-1.5708 2.8855e-16 -3.1315 0.64709-4.2422 1.7578-1.1107 1.1107-1.7578 2.6714-1.7578 4.2422a1 1.0001 0 0 0 0 0.00195c0.0030466 2.3159 1.477 4.5638 3.5996 5.4902a1.0001 1.0001 0 0 0 0.64062 0.0527 1.0001 1.0001 0 0 0 0.55665 0.3281c0.17389 0.0363 0.34913 0.0612 0.52539 0.0821 0.02362 0.0028 0.04665 0.0092 0.07031 0.0117a6 6 0 0 0 0.00781 0c0.19759 0.0207 0.39687 0.0324 0.5957 0.0332a6 6 0 0 0 0.00391 0c1.5708 0 3.1315-0.6471 4.2422-1.7578 1.1107-1.1107 1.7578-2.6714 1.7578-4.2422-2e-4 -0.16943-0.0108-0.33877-0.0254-0.50781a6 6 0 0 0-0.0371-0.30078c-0.018-0.13124-0.034-0.26299-0.0605-0.39258a1.0001 1.0001 0 0 0-0.3282-0.55664 1.0001 1.0001 0 0 0-0.0527-0.64258c-0.927-2.124-3.1786-3.5984-5.4961-3.5996zm6 6v1 5h-5-1l0.49805 0.498-0.4668 0.4668c-0.01313-4e-4 -0.01797-0.0015-0.03125-0.0019v0.0371h7v-7h-0.0391c4e-4 0.01491 0.0016 0.02043 2e-3 0.03516l-0.4629 0.46484-0.5-0.5zm-6-5a5 5 0 0 1 0.52539 0.0332c-0.00492 0.00406 0.0525 0.01859 0.12109 0.03516 0.10909 0.00313 0.1549 0.00128 0.06836-0.01367a5 5 0 0 1 0.44727 0.08789c-0.01528 7.2e-4 0.05067 0.02492 0.12305 0.05273 0.07434 0.01204 0.13713 0.02219 0.13086 0.01563a5 5 0 0 1 0.43945 0.15039c-0.08636-0.0323-0.04816-0.00759 0.04883 0.04492 0.07472 0.02229 0.1406 0.04311 0.1289 0.0332a5 5 0 0 1 0.34961 0.17188c-0.01084-7.9e-4 0.04151 0.03903 0.10352 0.08398 0.09648 0.04311 0.13779 0.05788 0.06836 0.01367a5 5 0 0 1 0.94336 0.72461c-0.08183-0.07811-0.0584-0.04004 0.01367 0.04883 0.06149 0.04994 0.11651 0.09392 0.10937 0.08008a5 5 0 0 1 0.25586 0.29102c-0.01255-0.0087 0.02264 0.05002 0.0625 0.11523 0.07335 0.07767 0.10865 0.11059 0.06445 0.04687a5 5 0 0 1 0.3203 0.48438 5 5 0 0 1 0.2559 0.5h-0.5449l0.2753-0.47461c-0.103-0.14144-0.2769-0.40264-0.37105-0.55664-0.12316-0.13035-0.31654-0.34921-0.42773-0.48633-0.13959-0.11336-0.36502-0.31083-0.49219-0.43164-0.15215-0.09395-0.39055-0.25204-0.5332-0.35547-0.16158-0.07218-0.42502-0.20406-0.58203-0.28906-0.17076-0.05093-0.45323-0.14718-0.61914-0.21094-0.17682-0.02862-0.46711-0.08552-0.63868-0.12695-0.25286-0.00725-0.80012-0.0467-0.77343-0.0625a5 5 0 0 1 0.12695-0.00586zm3.0195 1.0508c0.11852 0.07318 0.1801 0.10621 0.02149-0.01562-0.15401-0.11829-0.11543-0.07363-0.02149 0.01562zm1.291 1.4746c0.0735 0.1009 0.1093 0.14022 0.0137-0.02539l-0.0137 0.02539zm-5.7695-2.3066c0.13686-0.0404-0.06691 0.02549-0.26758 0.0957a5 5 0 0 1 0.26758-0.0957zm-0.46875 0.16797c0.08749-0.03479-0.04027 0.01821-0.19532 0.0918a5 5 0 0 1 0.19532-0.0918zm-0.45118 0.2168c0.05115-0.02525-0.03749 0.02104-0.15039 0.08984a5 5 0 0 1 0.15039-0.08984zm-0.42773 0.25976c0.03258-0.01875-0.0323 0.02363-0.13867 0.10352a5 5 0 0 1 0.13867-0.10352zm-0.39063 0.29492c0.04515-0.03274-0.03743 0.03561-0.17578 0.16016a5 5 0 0 1 0.17578-0.16016zm-0.35937 0.33008c0.04392-0.03986-0.03081 0.03462-0.15234 0.16797a5 5 0 0 1 0.15234-0.16797zm-0.33984 0.38281c0.00893-0.00565-0.02257 0.02813-0.09961 0.13282a5 5 0 0 1 0.09961-0.13282zm-0.29102 0.40039c0.00521-0.00157-0.01897 0.0293-0.08398 0.13868a5 5 0 0 1 0.08398-0.13868zm-0.25391 0.43555c-0.00382 0.01632-0.01384 0.0304-0.07031 0.15039a5 5 0 0 1 0.07031-0.15039zm10.356 0.29297 0.9433 0.79492c0.0125 0.08582 0.016 0.11601 0.0293 0.20508h0.1133 1v9h-9v-1.1191c-0.09063-0.014-0.12164-0.0163-0.20898-0.0293l-0.79102-0.9414v0.0898 2a1.0001 1.0001 0 0 0 1 1h9a1.0001 1.0001 0 0 0 1-1v-9a1.0001 1.0001 0 0 0-1-1h-1-1.0859zm-10.551 0.13672c0.00982-0.01072-0.02166 0.06332-0.08398 0.23242a5 5 0 0 1 0.08398-0.23242zm-0.16211 0.4668c0.0075-0.00615-0.0173 0.07353-0.0625 0.24609a5 5 0 0 1 0.0625-0.24609zm3.7988 0.39648h5.8984a5 5 0 0 1 0.1016 1 5 5 0 0 1-5 5 5 5 0 0 1-1-0.1055v-5.8945zm-3.9141 0.08594c0.0048 0.00395-0.00776 0.06799-0.03516 0.24023a5 5 0 0 1 0.03516-0.24023zm-0.06641 0.49218c0.00524 0.02138-0.00274 0.147-0.01367 0.29102v0.00195c0.01548-0.03719 0.05519 0.52041 0.0625 0.77539 0.04143 0.17157 0.09833 0.46186 0.12695 0.63868 0.06376 0.16591 0.16001 0.44838 0.21094 0.61914 0.085 0.15701 0.21688 0.42045 0.28906 0.58203 0.10343 0.14265 0.26152 0.38105 0.35547 0.5332 0.12081 0.12717 0.31828 0.3526 0.43164 0.49219 0.13712 0.11119 0.35598 0.30457 0.48633 0.42773 0.154 0.09415 0.4152 0.26805 0.55664 0.37105l0.47461-0.2753v0.541a5 5 0 0 1-0.38867-0.1953c0.00302-0.0033-0.03521-0.0334-0.08594-0.0704l-0.01953 0.0098a5 5 0 0 1-0.44727-0.291c-4.8e-4 -0.0063-0.04094-0.04365-0.08984-0.08985-0.06359-0.03887-0.11943-0.07311-0.11328-0.0625-8e-5 -1e-4 -0.00188 1e-4 -0.00195 0a5 5 0 0 1-0.29102-0.25586c-2e-4 -1e-4 -0.00173-0.00182-0.00195-0.00195 0.01045 0.00374-0.03001-0.04817-0.07813-0.10742-0.04874-0.03953-0.08812-0.06912-0.0957-0.07031a5 5 0 0 1-0.26563-0.29883c-1e-4 -7e-5 1.1e-4 -0.00188 0-0.00196 0.011 0.0064-0.0281-0.05273-0.07031-0.12109-0.04851-0.05106-0.08857-0.0943-0.08789-0.08594 4e-5 5.4e-4 -0.00422-0.00281-0.00391-0.00195a5 5 0 0 1-0.21679-0.33008c0.00356-0.00312-0.01933-0.05356-0.04688-0.11523-0.05996-0.08271-0.09053-0.11829-0.06054-0.0586a5 5 0 0 1-0.19532-0.39453 5 5 0 0 1-0.05273-0.11328c0.02765 0.06599 0.04612 0.10548 0.05273 0.11328 0.00991 0.0117-0.01091-0.05418-0.0332-0.1289-0.03426-0.06329-0.06318-0.11585-0.06641-0.11133a5 5 0 0 1-0.1289-0.37305c0.00838 0.01308-0.0029-0.05616-0.01563-0.13476-0.02519-0.06557-0.04517-0.12151-0.04883-0.11719a5 5 0 0 1-0.07812-0.39453c0.0045-0.00184 0.00197-0.05807 0-0.12696-0.02229-0.09231-0.03617-0.1378-0.0332-0.08398a5 5 0 0 1-0.03516-0.5625 5 5 0 0 1 0.01953-0.42188z" fill="#fff" opacity=".05"/>
 <path id="base" d="m6 1a5 5 0 0 0-5 5 5 5 0 0 0 3 4.576v-1.117a4 4 0 0 1-2-3.459 4 4 0 0 1 4-4 4 4 0 0 1 3.459 2h1.121a5 5 0 0 0-4.58-3zm-1 4v5.895a5 5 0 0 0 1 0.105 5 5 0 0 0 5-5 5 5 0 0 0-0.102-1h-5.898zm6.914 0a6 6 0 0 1 0.086 1h1v7h-7v-1a6 6 0 0 1-1-0.09v2.09h9v-9h-2.086z" fill="url(#gr0)"/>
 <path id="path15" d="m6 1a5 5 0 0 0-5 5 5 5 0 0 0 3 4.5762v-1.1172a4 4 0 0 1-0.41406-0.27929 0.50005 0.50005 0 0 0-0.08594 0.27929v0.21485c-1.1929-0.83006-1.9981-2.2151-2-3.6738 0-1.1781 0.48532-2.3486 1.3184-3.1816s2.0035-1.3184 3.1816-1.3184c1.4605 7.5e-4 2.8491 0.80546 3.6797 2h-0.22071a0.50005 0.50005 0 0 0-0.27929 0.08594 4 4 0 0 1 0.27929 0.41406h1.1211a5 5 0 0 0-4.5801-3zm-1 4v5.8945a5 5 0 0 0 1 0.1055 5 5 0 0 0 5-5 5 5 0 0 0-0.1016-1h-5.8984zm6.9141 0a6 6 0 0 1 0.0605 0.5h0.0254a0.50005 0.50005 0 0 0-0.0254 0.00195 6 6 0 0 1 0.0254 0.49805h1v7h-7v-1a6 6 0 0 1-0.49805-0.0273 0.50005 0.50005 0 0 0-0.00195 0.0273v-0.0273a6 6 0 0 1-0.5-0.0625v0.0898 2h9v-9h-1-1.0859zm-6.4141 0.5h4.9492c0.0189 0.16667 0.0506 0.33226 0.0508 0.5 0 1.1781-0.4853 2.3486-1.3184 3.1816-0.83259 0.83256-2.0022 1.3179-3.1797 1.3184-0.16846-7e-4 -0.33462-0.0332-0.50195-0.0527v-4.9473zm7.5 0h0.5v0.5a0.50005 0.50005 0 0 0-0.5-0.5zm-7.5 7.5a0.50005 0.50005 0 0 0 0.5 0.5h-0.5v-0.5zm8 0v0.5h-0.5a0.50005 0.50005 0 0 0 0.5-0.5z" opacity=".3"/>
 <path id="path20" d="m6 2a5 5 0 0 0-0.34766 0.01758 4 4 0 0 0-3.6523 3.9824 4 4 0 0 0 0.03516 0.5 4 4 0 0 1 3.9648-3.5 4 4 0 0 1 3.459 2h1.1211a5 5 0 0 0-0.58791-1h-0.53321a4 4 0 0 0-3.0605-1.9805 4 4 0 0 0-0.39844-0.01953zm5.9141 4a6 6 0 0 1 0.0859 1h1v-1h-1-0.0859zm-0.9414 0.48438a5 5 0 0 1-4.9727 4.5156 5 5 0 0 1-1-0.1055v1a5 5 0 0 0 0.48828 0.0762 5 5 0 0 0 0.50391 0.0293 6 6 0 0 0 0.00781 0 5 5 0 0 0 5-5 5 5 0 0 0-0.0273-0.51562zm-9.9454 0.03124a5 5 0 0 0-0.02734 0.48438 5 5 0 0 0 3 4.5762v-1a5 5 0 0 1-2.9727-4.0606zm3.9727 7.4844v1h9v-1h-1-7-1z" fill="#fff" opacity=".2"/>
 <path id="path25" d="m6 1a5 5 0 0 0-5 5 5 5 0 0 0 0.02734 0.51562 5 5 0 0 1 4.625-4.498 4 4 0 0 1 0.34766-0.01758 5 5 0 0 1 0.39844 0.01953 5 5 0 0 1 3.5938 1.9805h0.58791a5 5 0 0 0-4.5801-3zm-1 4v1h5.8984a5 5 0 0 1 0.0743 0.48438 5 5 0 0 0 0.0273-0.48438 5 5 0 0 0-0.1016-1h-0.3183-1.1211-4.459zm6.9141 0a6 6 0 0 1 0.0859 1h1 1v-1h-1-1.0859zm-9.8789 1.5a4 4 0 0 0-0.03516 0.5 4 4 0 0 0 2 3.459v-1a4 4 0 0 1-1.9648-2.959zm2.9648 5.4102v0.0898 0.9102a6 6 0 0 0 1 0.0898v-1a6 6 0 0 1-0.00781 0 5 5 0 0 1-0.50391-0.0293 6 6 0 0 1-0.48828-0.0605zm1 1.0898v1h7v-1h-7z" opacity=".3"/>
</svg>
