<?xml version="1.0" encoding="UTF-8"?>
<svg id="svg30" width="16" height="16" version="1.1" xmlns="http://www.w3.org/2000/svg" xmlns:cc="http://creativecommons.org/ns#" xmlns:dc="http://purl.org/dc/elements/1.1/" xmlns:rdf="http://www.w3.org/1999/02/22-rdf-syntax-ns#">
 <metadata id="metadata34">
  <rdf:RDF>
   <cc:Work rdf:about="">
    <dc:format>image/svg+xml</dc:format>
    <dc:type rdf:resource="http://purl.org/dc/dcmitype/StillImage"/>
   </cc:Work>
  </rdf:RDF>
 </metadata>
 <defs id="defs7">
  <radialGradient id="gr0" cx="9" cy="10" r="11" gradientTransform="matrix(1 0 0 .72727 0 2.7273)" gradientUnits="userSpaceOnUse">
   <stop id="stop2" stop-opacity=".23529" offset="0"/>
   <stop id="stop4" stop-opacity=".54902" offset="1"/>
  </radialGradient>
 </defs>
 <path id="path9" d="m6 0c-1.5708 2.8855e-16 -3.1315 0.64709-4.2422 1.7578-1.1107 1.1107-1.7578 2.6714-1.7578 4.2422 0.0010894 1.3686 0.48748 2.7332 1.3535 3.793 0.78817 0.96453 1.9037 1.6216 3.1055 1.9472 0.00141 4e-4 0.0025 0.0016 0.00391 2e-3a1 1.0001 0 0 0 0.37305 0.1426c0.02497 0.0041 0.04919 0.0078 0.07422 0.0117 0.10219 0.0182 0.20363 0.034 0.30664 0.0469 0.07634 0.011 0.15368 0.0191 0.23047 0.0273 0.00392 4e-4 0.00779 0.0015 0.01171 2e-3a6 6 0 0 0 0.54102 0.0273c0.31797-3e-4 0.63546-0.0327 0.94922-0.084a6 6 0 0 0 0.05078-0.0058v0.0019c1.0186-0.1754 1.9925-0.6116 2.793-1.2656 0.96453-0.78821 1.6216-1.9037 1.9472-3.1055a1.0001 1.0001 0 0 0 2e-3 -0.00391 1.0001 1.0001 0 0 0 0.1426-0.37305c0.0026-0.01579 0.0053-0.03106 0.0078-0.04687l0.0039-0.02735c0.0168-0.09437 0.0307-0.18813 0.043-0.2832l0.0039-0.02344c0.011-0.07634 0.0191-0.15368 0.0273-0.23047a6 6 0 0 0 2e-3 -0.01171 6 6 0 0 0 0.0273-0.53321v-0.00195-0.00586c0-0.15526-0.011-0.31021-0.0234-0.46484a6 6 0 0 0-0.0528-0.43164c-0.1947-1.2542-0.7833-2.4474-1.6816-3.3457-1.1107-1.1107-2.6714-1.7578-4.2422-1.7578zm-0.00391 0.99609a5 5 0 0 1 5 5 5 5 0 0 1 0 0.00782 5 5 0 0 1 0 0.01367 5 5 0 0 1-0.0195 0.41601 5 5 0 0 1-0.0293 0.22071 5 5 0 0 1-0.043 0.27929 5 5 0 0 1-0.0098 0.0625 5 5 0 0 1-4.8945 4 5 5 0 0 1-0.02148 0 5 5 0 0 1-0.41602-0.0195 5 5 0 0 1-0.2207-0.0293 5 5 0 0 1-0.2793-0.043 5 5 0 0 1-0.0625-0.0098 5 5 0 0 1-4-4.8945 5 5 0 0 1 5-5l-0.00391-0.003906zm-0.99609 3.0039a1.0001 1.0001 0 0 0-1 1v2.7305a1.0001 1.0001 0 0 0 0.41211 0.80859 3 3 0 0 0 0.0957 0.06055c0.01846 0.01061 0.03796 0.01909 0.05664 0.0293 0.07909 0.04319 0.15952 0.08329 0.24219 0.11914a3 3 0 0 0 0.15234 0.05859c0.06594 0.02443 0.13174 0.04858 0.19922 0.06836a3 3 0 0 0 0.14258 0.03711c0.08143 0.01961 0.16332 0.03604 0.2461 0.04883a3 3 0 0 0 0.09179 0.01367c0.11704 0.0144 0.23558 0.025 0.35352 0.02539a3 3 0 0 0 0.00781 0 3 3 0 0 0 0.00391 0c0.00129 0 0.00261 1e-5 0.0039 0 0.10628-4.7e-4 0.21276-0.01152 0.31836-0.02344a3 3 0 0 0 0.04883-0.0039 3 3 0 0 0 0.03906-0.00391c0.00127-1.8e-4 0.00264 1.8e-4 0.00391 0a3 3 0 0 0 0.00976-0.00195c0.10205-0.01506 0.20275-0.03708 0.30274-0.0625a3 3 0 0 0 0.15234-0.04492c0.08559-0.02661 0.17102-0.05381 0.25391-0.0879a3 3 0 0 0 0.01562-0.00586c0.00674-0.00281 0.01282-0.0069 0.01954-0.00976 0.10121-0.04314 0.19908-0.09247 0.29492-0.14648a3 3 0 0 0 0.05664-0.0293 1.0001 1.0001 0 0 0 0.44726-0.61133 1.0001 1.0001 0 0 0 0.5625-0.37305 3 3 0 0 0 0.06641-0.10351 3 3 0 0 0 0.05078-0.09961c0.03173-0.06042 0.06233-0.12115 0.08984-0.1836a3 3 0 0 0 0.07227-0.18164c0.0224-0.0614 0.04411-0.12281 0.0625-0.18554a3 3 0 0 0 0.03711-0.14258c0.01961-0.08143 0.03604-0.16332 0.04883-0.2461a3 3 0 0 0 0.01367-0.09179c0.0144-0.11704 0.025-0.23558 0.02539-0.35352a3 3 0 0 0 0-0.00586 1.0001 1.0001 0 0 0 0-0.00195 3 3 0 0 0 0-0.00391c0-0.00129 1e-5 -0.00261 0-0.0039-4.7e-4 -0.10628-0.01152-0.21276-0.02344-0.31836a3 3 0 0 0-0.0039-0.04883 3 3 0 0 0-0.00391-0.03906c-1.8e-4 -0.00127 1.8e-4 -0.00264 0-0.00391a3 3 0 0 0-0.00195-0.00976c-0.01506-0.10205-0.03708-0.20275-0.0625-0.30274a3 3 0 0 0-0.04492-0.15234c-0.02765-0.08894-0.05609-0.17767-0.0918-0.26367a3 3 0 0 0-0.00196-0.00586c-0.00191-0.00458-0.00392-0.00911-0.00585-0.01368-0.04439-0.1048-0.09633-0.20563-0.15235-0.30468a3 3 0 0 0-0.03711-0.06446 1.0001 1.0001 0 0 0-0.84179-0.46484h-2.7285zm6.9102 0 0.9414 0.79102c0.013 0.08734 0.0153 0.11835 0.0293 0.20898h2.1191v10h-10v-2.1133c-0.08907-0.0133-0.11926-0.0168-0.20508-0.0293l-0.79492-0.9433v3.0859a1.0001 1.0001 0 0 0 1 1h10a1.0001 1.0001 0 0 0 1-1v-10a1.0001 1.0001 0 0 0-1-1h-3.0898zm-6.9102 1h2.7285a2 2 0 0 1 0.27148 1 2 2 0 0 1-0.26953 1h-0.73047v0.72852a2 2 0 0 1-1 0.27148 2 2 0 0 1-1-0.26953v-2.7305zm7 2v0.92773l-0.0859 0.07227h0.0859v4h-4v-0.0898l-0.07617 0.0898h-0.92383l0.50195 0.502-0.29297 0.3496c-0.08734 0.013-0.11835 0.0153-0.20898 0.0293v0.1191h6v-6h-0.1133c-0.0133 0.08907-0.0168 0.11926-0.0293 0.20508l-0.3535 0.29883-0.5039-0.50391z" fill="#fff" opacity=".05"/>
 <path id="base" d="m6 1a5 5 0 0 0-5 5 5 5 0 0 0 4 4.895v3e-3a5 5 0 0 0 0.0625 0.01 5 5 0 0 0 0.2793 0.043 5 5 0 0 0 0.2207 0.028 5 5 0 0 0 0.416 0.021 5 5 0 0 0 0.0215 0 5 5 0 0 0 4.895-4h3e-3a5 5 0 0 0 0.01-0.0625 5 5 0 0 0 0.043-0.2793 5 5 0 0 0 0.028-0.2207 5 5 0 0 0 0.021-0.416 5 5 0 0 0 0-0.0137 5 5 0 0 0 0-0.0078 5 5 0 0 0-5-5zm0 2a3 3 0 0 1 2.8262 2h-2e-3a3 3 0 0 1 0.086 0.2871 3 3 0 0 1 0.0566 0.2852 3 3 0 0 1 2e-3 0.0097 3 3 0 0 1 0.0039 0.043 3 3 0 0 1 0.0214 0.2129 3 3 0 0 1 0.0059 0.1621 3 3 0 0 1-0.0605 0.5957 3 3 0 0 1-0.0957 0.3496 3 3 0 0 1-1.8438 1.8809v-2e-3a3 3 0 0 1-0.2871 0.086 3 3 0 0 1-0.2852 0.0566 3 3 0 0 1-0.0097 2e-3 3 3 0 0 1-0.043 0.0039 3 3 0 0 1-0.2129 0.0214 3 3 0 0 1-0.1621 0.0059 3 3 0 0 1-0.5957-0.0605 3 3 0 0 1-0.3496-0.0957 3 3 0 0 1-2.0547-2.8438 3 3 0 0 1 3-3zm-1 2v2.7305a2 2 0 0 0 1 0.2695 2 2 0 0 0 1-0.2715v-0.7285h0.7305a2 2 0 0 0 0.2695-1 2 2 0 0 0-0.2715-1h-2.7285zm6.91 0a6 6 0 0 1 0.09 1 6 6 0 0 1-0.086 1h1.086v6h-6v-1.09a6 6 0 0 1-1 0.09 6 6 0 0 1-1-0.086v3.086h10v-10h-3.09z" fill="url(#gr0)"/>
 <path id="path15" d="m5.9961 0.99609 0.00391 0.003906a5 5 0 0 0-5 5 5 5 0 0 0 4 4.8945 5 5 0 0 0 0.0625 0.0098 5 5 0 0 0 0.2793 0.043 5 5 0 0 0 0.2207 0.0293 5 5 0 0 0 0.41602 0.0195 5 5 0 0 0 0.02148 0 5 5 0 0 0 4.8945-4 5 5 0 0 0 0.0098-0.0625 5 5 0 0 0 0.043-0.27929 5 5 0 0 0 0.0293-0.22071 5 5 0 0 0 0.0195-0.41601 5 5 0 0 0 0-0.01367 5 5 0 0 0 0-0.00782 5 5 0 0 0-5-5zm0.00391 0.50391c1.1781 0 2.3486 0.48532 3.1816 1.3184 0.83306 0.83304 1.3184 2.0035 1.3184 3.1816v0.00781 0.00977 0.0039c-0.0012 0.12369-0.0082 0.24598-0.0195 0.36914l0.0019-0.00585c-0.0069 0.06638-0.0155 0.1332-0.0254 0.19921a0.50005 0.50005 0 0 0-0.0019 0.01172c-0.0106 0.08414-0.0238 0.16855-0.0391 0.25196a0.50005 0.50005 0 0 0-0.0019 0.01367c-6e-4 0.00388-0.0014 0.00784-2e-3 0.01172a0.50005 0.50005 0 0 0-0.0078 0.02734c-0.2053 1.0057-0.7657 1.9344-1.5606 2.584-0.79485 0.64952-1.8173 1.0148-2.8438 1.0156a0.50005 0.50005 0 0 1-0.00195 0h-0.01758c-0.12434-0.0011-0.24729-0.0081-0.37109-0.0195l0.00585 0.0019c-0.06638-0.0069-0.1332-0.0155-0.19921-0.0254a0.50005 0.50005 0 0 0-0.01172-0.0019c-0.08414-0.0106-0.16855-0.0238-0.25196-0.0391a0.50005 0.50005 0 0 0-0.01367-0.0019c-0.00388-6e-4 -0.00784-0.0014-0.01172-2e-3a0.50005 0.50005 0 0 0-0.02734-0.0078c-1.0057-0.2053-1.9345-0.7657-2.584-1.5606-0.64952-0.79485-1.0148-1.8173-1.0156-2.8438 0-1.1781 0.48532-2.3486 1.3184-3.1816s2.0035-1.3184 3.1816-1.3184zm-1 3.5v2.7305a2 2 0 0 0 1 0.26953 2 2 0 0 0 1-0.27148v-0.72852h0.73047a2 2 0 0 0 0.26953-1 2 2 0 0 0-0.27148-1h-2.7285zm6.9102 0a6 6 0 0 1 0.0625 0.5h2.5273v9h-9v-2.5254a6 6 0 0 1-0.5-0.0605v3.0859h10v-10h-3.0898zm-6.4102 0.5h1.8633c0.06066 0.16461 0.13618 0.32651 0.13672 0.50195-4.6e-4 0.17402-0.07513 0.33458-0.13477 0.49805h-0.36523a0.50005 0.50005 0 0 0-0.5 0.5v0.36328c-0.16401 0.06044-0.3252 0.13596-0.5 0.13672-0.17466-2.3e-4 -0.33593-0.07492-0.5-0.13477v-1.8652zm6.4746 1a6 6 0 0 1-0.0605 0.5h1.0859v6h-6v-1.0898a6 6 0 0 1-0.5 0.0625v1.0273a0.50005 0.50005 0 0 0 0.5 0.5h6a0.50005 0.50005 0 0 0 0.5-0.5v-6a0.50005 0.50005 0 0 0-0.5-0.5h-1.0254z" opacity=".3"/>
 <path id="path20" d="m6 3a3 3 0 0 0-3 3 3 3 0 0 0 0.04492 0.50391 3 3 0 0 1 2.9551-2.5039 3 3 0 0 1 2.8262 2h-0.00195a3 3 0 0 1 0.08594 0.28711 3 3 0 0 1 0.04296 0.2168 3 3 0 0 0 0.04688-0.50391 3 3 0 0 0-0.00586-0.16211 3 3 0 0 0-0.02148-0.21289 3 3 0 0 0-0.00391-0.04297 3 3 0 0 0-0.00195-0.00976 3 3 0 0 0-0.05664-0.28516 3 3 0 0 0-0.08594-0.28711h0.00195a3 3 0 0 0-2.8262-2zm5.9102 3a6 6 0 0 1 0.0625 0.50781 6 6 0 0 0 0.0273-0.50781h-0.0898zm-0.9395 0.48242a5 5 0 0 1-0.0234 0.17188 5 5 0 0 1-0.043 0.27929 5 5 0 0 1-0.0098 0.0625 5 5 0 0 1-4.8945 4 5 5 0 0 1-0.02148 0 5 5 0 0 1-0.41602-0.0195 5 5 0 0 1-0.2207-0.0293 5 5 0 0 1-0.2793-0.043 5 5 0 0 1-0.0625-0.0098 5 5 0 0 1-3.9727-4.3789 5 5 0 0 0-0.02734 0.48438 5 5 0 0 0 4 4.8945 5 5 0 0 0 0.0625 0.0098 5 5 0 0 0 0.2793 0.043 5 5 0 0 0 0.2207 0.0293 5 5 0 0 0 0.41602 0.0195 5 5 0 0 0 0.02148 0 5 5 0 0 0 4.8945-4 5 5 0 0 0 0.0098-0.0625 5 5 0 0 0 0.043-0.27929 5 5 0 0 0 0.0293-0.22071 5 5 0 0 0 0.0195-0.41601 5 5 0 0 0 0-0.01367 5 5 0 0 0 0-0.00782 5 5 0 0 0-0.0254-0.51367zm-3.0391 0.01953a2 2 0 0 1-0.20117 0.49805h-0.73047v0.72852a2 2 0 0 1-1 0.27148 2 2 0 0 1-1-0.26953v1a2 2 0 0 0 0.85938 0.26172 3 3 0 0 0 0.14062 0.00781 2 2 0 0 0 0.19922-0.00977 2 2 0 0 0 0.80078-0.26171v-0.72852h0.73047a2 2 0 0 0 0.26953-1 2 2 0 0 0-0.06836-0.49805zm4.0684 0.49805a6 6 0 0 1-0.0859 1h1.0859v-1h-1zm-7 8v1h10v-1h-10z" fill="#fff" opacity=".2"/>
 <path id="path25" d="m5.9961 0.99609 0.00391 0.003906a5 5 0 0 0-5 5 5 5 0 0 0 0.02734 0.51562 5 5 0 0 1 4.9727-4.5156l-0.00391-0.00391a5 5 0 0 1 4.9746 4.4863 5 5 0 0 0 0.0059-0.04883 5 5 0 0 0 0.0195-0.41601 5 5 0 0 0 0-0.01367 5 5 0 0 0 0-0.00782 5 5 0 0 0-5-5zm-0.99609 4.0039v1h2.7285a2 2 0 0 1 0.20312 0.50195 2 2 0 0 0 0.06836-0.50195 2 2 0 0 0-0.27148-1h-2.7285zm6.9102 0a6 6 0 0 1 0.0898 1h3v-1h-3.0898zm-8.8653 1.5039a3 3 0 0 0-0.04492 0.49609 3 3 0 0 0 2.0547 2.8438 3 3 0 0 0 0.34961 0.0957 3 3 0 0 0 0.5957 0.06055 3 3 0 0 0 0.16211-0.00586 3 3 0 0 0 0.21289-0.02148 3 3 0 0 0 0.04297-0.00391 3 3 0 0 0 0.00976-0.00195 3 3 0 0 0 0.28516-0.05664 3 3 0 0 0 0.28711-0.08594v0.00195a3 3 0 0 0 1.8438-1.8809 3 3 0 0 0 0.0957-0.34961 3 3 0 0 0 0.06055-0.5957 3 3 0 0 0-0.00586-0.16211 3 3 0 0 0-0.02148-0.21289 3 3 0 0 0-0.00391-0.04297 3 3 0 0 0-0.00195-0.00976 3 3 0 0 0-0.01368-0.06836 3 3 0 0 1-0.01367 0.09179 3 3 0 0 1-0.0957 0.34961 3 3 0 0 1-1.8438 1.8809v-0.00195a3 3 0 0 1-0.28711 0.08594 3 3 0 0 1-0.28516 0.05664 3 3 0 0 1-0.00976 0.00195 3 3 0 0 1-0.04297 0.00391 3 3 0 0 1-0.17578 0.01757 3 3 0 0 1-0.03711 0.00391 3 3 0 0 1-0.16211 0.00586 2 2 0 0 1-0.14062-0.00781 3 3 0 0 1-0.45508-0.05274 3 3 0 0 1-0.34961-0.0957 3 3 0 0 1-2.0098-2.3398zm8.9278 0.0039a6 6 0 0 1-0.0586 0.49219h0.0859a6 6 0 0 0-0.0273-0.49219zm-4.9727 5.4024a6 6 0 0 1-1 0.0898 6 6 0 0 1-0.4375-0.0234 6 6 0 0 1-0.5625-0.0625v1a6 6 0 0 0 1 0.0859 6 6 0 0 0 1-0.0898v-1zm0 1.0898v1h6v-1h-6z" opacity=".3"/>
</svg>
