<?xml version="1.0" encoding="UTF-8"?>
<svg id="svg30" width="16" height="16" version="1.1" xmlns="http://www.w3.org/2000/svg" xmlns:cc="http://creativecommons.org/ns#" xmlns:dc="http://purl.org/dc/elements/1.1/" xmlns:rdf="http://www.w3.org/1999/02/22-rdf-syntax-ns#">
 <metadata id="metadata34">
  <rdf:RDF>
   <cc:Work rdf:about="">
    <dc:format>image/svg+xml</dc:format>
    <dc:type rdf:resource="http://purl.org/dc/dcmitype/StillImage"/>
   </cc:Work>
  </rdf:RDF>
 </metadata>
 <defs id="defs7">
  <radialGradient id="gr0" cx="9" cy="10" r="11" gradientTransform="matrix(1 0 0 .45454 0 5.4546)" gradientUnits="userSpaceOnUse">
   <stop id="stop2" stop-opacity=".23529" offset="0"/>
   <stop id="stop4" stop-opacity=".54902" offset="1"/>
  </radialGradient>
 </defs>
 <path id="path9" d="m8 3c-1.1502 0-2.4498 0.3912-4.1055 1.8809-1.2334 1.1097-2.8828 1.1191-2.8828 1.1191a1 1.0001 0 0 0-1.0117 1v5a1.0001 1.0001 0 0 0 0.98828 1s2.3643 0.0587 4.2422-1.6309c1.4556-1.3097 1.9197-1.3691 2.7695-1.3691 0.84977 0 1.314 0.0595 2.7695 1.3691 1.8779 1.6897 4.2422 1.6309 4.2422 1.6309a1.0001 1.0001 0 0 0 0.9883-1v-5a1.0001 1.0001 0 0 0-1.0117-1s-1.6495-0.00942-2.8828-1.1191c-1.6557-1.4897-2.9553-1.8809-4.1055-1.8809zm0 1c1 0 1.8819 0.2253 3.4375 1.625s3.5625 1.375 3.5625 1.375v5s-2.0069 0.0247-3.5625-1.375c-1.5556-1.3997-2.4375-1.625-3.4375-1.625s-1.8819 0.2253-3.4375 1.625c-1.5556 1.4-3.5625 1.375-3.5625 1.375v-5s2.0069 0.02466 3.5625-1.375 2.4375-1.625 3.4375-1.625z" fill="#fff" opacity=".05"/>
 <path id="base" d="m8 4c-1 0-1.8819 0.22534-3.4375 1.625s-3.5625 1.375-3.5625 1.375v5s2.0069 0.02466 3.5625-1.375c1.5556-1.3997 2.4375-1.625 3.4375-1.625s1.8819 0.22534 3.4375 1.625c1.5556 1.3997 3.5625 1.375 3.5625 1.375v-5s-2.0069 0.024664-3.5625-1.375c-1.5556-1.3997-2.4375-1.625-3.4375-1.625z" fill="url(#gr0)"/>
 <path id="path15" d="m8 4c-1 0-1.8819 0.22534-3.4375 1.625s-3.5625 1.375-3.5625 1.375v5s2.0069 0.025 3.5625-1.375c1.5556-1.3997 2.4375-1.625 3.4375-1.625s1.8819 0.22534 3.4375 1.625c1.5556 1.3997 3.5625 1.375 3.5625 1.375v-5s-2.0069 0.0247-3.5625-1.375-2.4375-1.625-3.4375-1.625zm0 0.5c0.9249 0 1.598 0.1414 3.1035 1.4961 1.3844 1.2456 2.7942 1.4012 3.3965 1.4375v3.998c-0.5514-0.0478-1.6507-0.2079-2.7285-1.1777-1.6056-1.4446-2.6964-1.7539-3.7715-1.7539-1.0751 0-2.1659 0.30921-3.7715 1.7539-1.0778 0.9698-2.1772 1.1299-2.7285 1.1777v-3.998c0.60232-0.03625 2.0121-0.19185 3.3965-1.4375 1.5056-1.3547 2.1786-1.4961 3.1035-1.4961z" opacity=".3"/>
 <path id="path20" d="m8 9c-1 0-1.8819 0.2253-3.4375 1.625-1.5556 1.4-3.5625 1.375-3.5625 1.375v1s2.0069 0.025 3.5625-1.375c1.5556-1.3997 2.4375-1.625 3.4375-1.625s1.8819 0.2253 3.4375 1.625 3.5625 1.375 3.5625 1.375v-1s-2.0069 0.0247-3.5625-1.375c-1.5556-1.3997-2.4375-1.625-3.4375-1.625z" fill="#fff" opacity=".2"/>
 <path id="path25" d="m8 4c-1 0-1.8819 0.22534-3.4375 1.625s-3.5625 1.375-3.5625 1.375v1s2.0069 0.02466 3.5625-1.375 2.4375-1.625 3.4375-1.625 1.8819 0.2253 3.4375 1.625 3.5625 1.375 3.5625 1.375v-1s-2.0069 0.0247-3.5625-1.375-2.4375-1.625-3.4375-1.625z" opacity=".3"/>
</svg>
