<?xml version="1.0" encoding="UTF-8"?>
<svg id="svg30" width="16" height="16" version="1.1" xmlns="http://www.w3.org/2000/svg" xmlns:cc="http://creativecommons.org/ns#" xmlns:dc="http://purl.org/dc/elements/1.1/" xmlns:rdf="http://www.w3.org/1999/02/22-rdf-syntax-ns#">
 <metadata id="metadata34">
  <rdf:RDF>
   <cc:Work rdf:about="">
    <dc:format>image/svg+xml</dc:format>
    <dc:type rdf:resource="http://purl.org/dc/dcmitype/StillImage"/>
   </cc:Work>
  </rdf:RDF>
 </metadata>
 <defs id="defs7">
  <radialGradient id="gr0" cx="9" cy="10" r="11" gradientTransform="matrix(1 0 0 .63636 0 3.6364)" gradientUnits="userSpaceOnUse">
   <stop id="stop2" stop-opacity=".23529" offset="0"/>
   <stop id="stop4" stop-opacity=".54902" offset="1"/>
  </radialGradient>
 </defs>
 <path id="path9" d="m1 1a1 1.0001 0 0 0-1 1v2a1.0001 1.0001 0 0 0 1 1c1.5441 0 1.7364 0.30136 2.5742 1.0195 0.81304 0.69691 2.2213 1.9805 4.4258 1.9805s3.6128-1.2838 4.4258-1.9805c0.8378-0.71814 1.0301-1.0195 2.5742-1.0195a1.0001 1.0001 0 0 0 1-1v-2a1.0001 1.0001 0 0 0-1-1c-2.5343 0-4.1978 1.1422-5.1758 1.9805-0.47759 0.40936-0.78674 0.69112-1.0098 0.82617-0.22302 0.13505-0.368 0.19336-0.81445 0.19336-0.44646 0-0.59143-0.05831-0.81445-0.19336-0.22302-0.13504-0.53221-0.4168-1.0098-0.82617-0.97807-0.83841-2.6415-1.9805-5.1758-1.9805zm7 7c-2.2045 0-3.6128 1.2838-4.4258 1.9805-0.83783 0.71813-1.0301 1.0195-2.5742 1.0195a1.0001 1.0001 0 0 0-1 1v2a1.0001 1.0001 0 0 0 1 1c2.5343 0 4.1978-1.1422 5.1758-1.9805 0.47759-0.4093 0.78674-0.6911 1.0098-0.8261 0.22302-0.1351 0.368-0.1934 0.81445-0.1934 0.44646 0 0.59143 0.0583 0.81445 0.1934 0.22302 0.135 0.53221 0.4168 1.0098 0.8261 0.97808 0.8384 2.6415 1.9805 5.1758 1.9805a1.0001 1.0001 0 0 0 1-1v-2a1.0001 1.0001 0 0 0-1-1c-1.5441 0-1.7364-0.3014-2.5742-1.0195-0.813-0.69686-2.2213-1.9805-4.4258-1.9805zm-7-6c2.25 0 3.6147 0.95957 4.5254 1.7402s1.3079 1.2598 2.4746 1.2598 1.5639-0.47914 2.4746-1.2598c0.9107-0.78059 2.2754-1.7402 4.5254-1.7402v2c-1.75 0-2.3853 0.5404-3.2246 1.2598-0.8393 0.7193-1.9421 1.7402-3.7754 1.7402s-2.9361-1.0208-3.7754-1.7402-1.4746-1.2598-3.2246-1.2598v-2zm7 7c1.8333 0 2.9361 1.0208 3.7754 1.7402s1.4746 1.2598 3.2246 1.2598v2c-2.25 0-3.6147-0.9596-4.5254-1.7402-0.91069-0.7807-1.3079-1.2598-2.4746-1.2598s-1.5639 0.4792-2.4746 1.2598c-0.9107 0.7806-2.2754 1.7402-4.5254 1.7402v-2c1.75 0 2.3853-0.5404 3.2246-1.2598 0.8393-0.7193 1.9421-1.7402 3.7754-1.7402z" fill="#fff" opacity=".05"/>
 <path id="base" d="m1 2v2c1.75 0 2.3853 0.54039 3.2246 1.2598s1.9421 1.7402 3.7754 1.7402 2.9361-1.0209 3.7754-1.7402c0.83927-0.71937 1.4746-1.2598 3.2246-1.2598v-2c-2.25 0-3.6147 0.95961-4.5254 1.7402-0.91073 0.78063-1.3079 1.2598-2.4746 1.2598s-1.5639-0.47914-2.4746-1.2598-2.2754-1.7402-4.5254-1.7402zm7 7c-1.8333 0-2.9361 1.0209-3.7754 1.7402-0.83927 0.71938-1.4746 1.2598-3.2246 1.2598v2c2.25 0 3.6147-0.95961 4.5254-1.7402 0.91073-0.78063 1.3079-1.2598 2.4746-1.2598s1.5639 0.47914 2.4746 1.2598c0.91073 0.78062 2.2754 1.7402 4.5254 1.7402v-2c-1.75 0-2.3853-0.54039-3.2246-1.2598-0.83927-0.71937-1.9421-1.7402-3.7754-1.7402z" fill="url(#gr0)"/>
 <path id="path15" d="m1 2v2c1.75 0 2.3853 0.54036 3.2246 1.2598s1.9421 1.7402 3.7754 1.7402 2.9361-1.0209 3.7754-1.7402c0.8393-0.71937 1.4746-1.2598 3.2246-1.2598v-2c-2.25 0-3.6147 0.95964-4.5254 1.7402-0.91072 0.78063-1.3079 1.2598-2.4746 1.2598s-1.5639-0.47911-2.4746-1.2598-2.2754-1.7402-4.5254-1.7402zm0.5 0.55078c1.7833 0.13225 2.8993 0.88266 3.6992 1.5684 0.44424 0.38081 0.78203 0.71217 1.209 0.9707s0.94 0.41016 1.5918 0.41016 1.1648-0.15162 1.5918-0.41016c0.4269-0.25853 0.7647-0.58991 1.209-0.9707 0.7999-0.68566 1.9159-1.4361 3.6992-1.5684v0.9961c-1.4888 0.11585-2.2969 0.68783-3.0508 1.334-0.8525 0.73059-1.8015 1.6191-3.4492 1.6191-1.6477 0-2.5968-0.88848-3.4492-1.6191-0.75387-0.64619-1.562-1.2181-3.0508-1.334v-0.9961zm6.5 6.4492c-1.8333 0-2.9361 1.0209-3.7754 1.7402-0.83927 0.7194-1.4746 1.2598-3.2246 1.2598v2c2.25 0 3.6147-0.9596 4.5254-1.7402 0.91073-0.7806 1.3079-1.2598 2.4746-1.2598s1.5639 0.4791 2.4746 1.2598c0.9107 0.7806 2.2754 1.7402 4.5254 1.7402v-2c-1.75 0-2.3853-0.5404-3.2246-1.2598s-1.9421-1.7402-3.7754-1.7402zm0 0.5c1.6477 0 2.5968 0.8885 3.4492 1.6191 0.7539 0.6462 1.562 1.2182 3.0508 1.334v0.9961c-1.7833-0.1322-2.8992-0.8827-3.6992-1.5683-0.4443-0.3809-0.7821-0.7122-1.209-0.9707-0.42695-0.2586-0.94-0.4102-1.5918-0.4102s-1.1648 0.1516-1.5918 0.4102c-0.42694 0.2585-0.76473 0.5899-1.209 0.9707-0.79995 0.6856-1.9159 1.4361-3.6992 1.5683v-0.9961c1.4888-0.1158 2.2969-0.6878 3.0508-1.334 0.85248-0.7306 1.8015-1.6191 3.4492-1.6191z" opacity=".3"/>
 <path id="path20" d="m1 4v1c1.75 0 2.3853 0.54036 3.2246 1.2598s1.9421 1.7402 3.7754 1.7402 2.9361-1.0209 3.7754-1.7402c0.8393-0.71937 1.4746-1.2598 3.2246-1.2598v-1c-1.75 0-2.3853 0.5404-3.2246 1.2598-0.8393 0.7193-1.9421 1.7402-3.7754 1.7402s-2.9361-1.0208-3.7754-1.7402-1.4746-1.2598-3.2246-1.2598zm7 7c-1.1667 0-1.5639 0.4792-2.4746 1.2598-0.9107 0.7806-2.2754 1.7402-4.5254 1.7402v1c2.25 0 3.6147-0.9596 4.5254-1.7402 0.91073-0.7806 1.3079-1.2598 2.4746-1.2598s1.5639 0.4791 2.4746 1.2598c0.9107 0.7806 2.2754 1.7402 4.5254 1.7402v-1c-2.25 0-3.6147-0.9596-4.5254-1.7402-0.91069-0.7807-1.3079-1.2598-2.4746-1.2598z" fill="#fff" opacity=".2"/>
 <path id="path25" d="m1 2v1c2.25 0 3.6147 0.95957 4.5254 1.7402s1.3079 1.2598 2.4746 1.2598 1.5639-0.47914 2.4746-1.2598c0.9107-0.78059 2.2754-1.7402 4.5254-1.7402v-1c-2.25 0-3.6147 0.95964-4.5254 1.7402-0.91072 0.78063-1.3079 1.2598-2.4746 1.2598s-1.5639-0.47911-2.4746-1.2598-2.2754-1.7402-4.5254-1.7402zm7 7c-1.8333 0-2.9361 1.0209-3.7754 1.7402-0.83927 0.7194-1.4746 1.2598-3.2246 1.2598v1c1.75 0 2.3853-0.5404 3.2246-1.2598 0.8393-0.7193 1.9421-1.7402 3.7754-1.7402s2.9361 1.0208 3.7754 1.7402 1.4746 1.2598 3.2246 1.2598v-1c-1.75 0-2.3853-0.5404-3.2246-1.2598s-1.9421-1.7402-3.7754-1.7402z" opacity=".3"/>
</svg>
