<?xml version="1.0" encoding="UTF-8"?>
<svg id="svg30" width="16" height="16" version="1.1" xmlns="http://www.w3.org/2000/svg" xmlns:cc="http://creativecommons.org/ns#" xmlns:dc="http://purl.org/dc/elements/1.1/" xmlns:rdf="http://www.w3.org/1999/02/22-rdf-syntax-ns#">
 <metadata id="metadata34">
  <rdf:RDF>
   <cc:Work rdf:about="">
    <dc:format>image/svg+xml</dc:format>
    <dc:type rdf:resource="http://purl.org/dc/dcmitype/StillImage"/>
   </cc:Work>
  </rdf:RDF>
 </metadata>
 <defs id="defs7">
  <radialGradient id="gr0" cx="9" cy="10" r="11" gradientTransform="matrix(1 0 0 .72727 0 2.7273)" gradientUnits="userSpaceOnUse">
   <stop id="stop2" stop-opacity=".23529" offset="0"/>
   <stop id="stop4" stop-opacity=".54902" offset="1"/>
  </radialGradient>
 </defs>
 <path id="path9" d="m13.498 0c-0.9129 0.0017132-1.6441 0.64579-2.0742 1.4434-1.6318 0.4817-3.1835 1.1932-4.58 2.1562a1 1.0001 0 0 0-0.38281 0.23828l-0.04297 0.04297c-2.3488 1.7481-4.1336 4.2967-4.9609 7.5293-0.80615 0.427-1.4559 1.1687-1.457 2.0878a1.0001 1.0001 0 0 0 0 2e-3c1.6031e-16 1.309 1.191 2.5 2.5 2.5s2.5-1.191 2.5-2.5a1.0001 1.0001 0 0 0 0-2e-3c-7.7e-4 -0.5682-0.26169-1.081-0.61719-1.5234 0.30002-1.1212 0.75817-2.091 1.3184-2.9609 0.67586 0.89066 1.1465 1.7204 1.252 2.3418 0.15579 0.9197-0.02625 1.5025-0.7539 2.2304a1.0001 1.0001 0 0 0 0 1.4141l0.70703 0.707a1.0001 1.0001 0 0 0 1.4141 0c1.2973-1.2969 1.894-3.0703 1.5918-4.8535-0.15037-0.8863-0.50743-1.753-1.0195-2.6054 0.6437 0.32375 1.2933 0.59377 1.9609 0.70703 1.7832 0.30223 3.5566-0.29435 4.8535-1.5918a1.0001 1.0001 0 0 0 0-1.4141l-0.707-0.70703a1.0001 1.0001 0 0 0-1.4141 0c-0.7279 0.72765-1.3107 0.90976-2.2304 0.7539-0.322-0.05463-0.8331-0.48042-1.2461-0.6875 0.6307-0.31018 1.2317-0.6601 1.9218-0.875 0.4321 0.32632 0.9249 0.56536 1.4668 0.56641a1.0001 1.0001 0 0 0 2e-3 0c1.309 0 2.5-1.191 2.5-2.5s-1.191-2.5-2.5-2.5a1.0001 1.0001 0 0 0-2e-3 0zm2e-3 1a1.5 1.5 0 0 1 1.5 1.5 1.5 1.5 0 0 1-1.5 1.5 1.5 1.5 0 0 1-1.2871-0.73438c-1.551 0.42641-3.0088 1.0732-4.291 1.957 1.1736 1.006 2.2886 1.5937 3.2676 1.7598 1.189 0.2015 2.1985-0.1285 3.1035-1.0332l0.707 0.70703c-1.095 1.0954-2.5005 1.563-3.9785 1.3125-1.2704-0.2155-2.5849-0.95381-3.9121-2.1328-0.27961 0.2301-0.54729 0.47417-0.80469 0.73047 1.4842 1.5118 2.3762 3.0116 2.6211 4.4551 0.2505 1.478-0.2172 2.8835-1.3125 3.9785l-0.70703-0.707c0.9047-0.905 1.2346-1.9145 1.0332-3.1035-0.195-1.149-0.9489-2.4821-2.3125-3.8829-1.1104 1.3262-1.9418 2.9485-2.377 4.8965a1.5 1.5 0 0 1 0.75 1.2969 1.5 1.5 0 0 1-1.5 1.5 1.5 1.5 0 0 1-1.5-1.5 1.5 1.5 0 0 1 1.2676-1.4805c0.7254-3.2536 2.5019-5.7019 4.8281-7.4023l0.07227-0.07227 0.01172 0.01172c1.4447-1.0389 3.0929-1.7918 4.8379-2.2695a1.5 1.5 0 0 1 1.4824-1.2871z" fill="#fff" opacity=".05"/>
 <path id="base" d="m13.5 1a1.5 1.5 0 0 0 -1.482 1.2871c-1.745.4777-3.3936 1.2306-4.8383 2.2695-.0042-.0041-.0076-.0075-.0117-.0117l-.0723.0723c-2.3262 1.7004-4.1027 4.1492-4.8281 7.4028a1.5 1.5 0 0 0 -1.2676 1.48 1.5 1.5 0 0 0 1.5 1.5 1.5 1.5 0 0 0 1.5 -1.5 1.5 1.5 0 0 0 -0.75 -1.297c.4351-1.948 1.2666-3.5702 2.377-4.8964 1.3636 1.4008 2.1175 2.7334 2.3125 3.8824.2014 1.189-.1286 2.199-1.0333 3.104l.7071.707c1.0953-1.095 1.563-2.501 1.3125-3.979-.2449-1.4435-1.1369-2.9428-2.6211-4.4546.2574-.2563.5251-.5004.8047-.7305 1.3272 1.179 2.6412 1.9174 3.9116 2.1329 1.478.2505 2.884-.2172 3.979-1.3126l-.707-.7070c-.905.9047-1.915 1.2347-3.104 1.0332-.979-.1661-2.0935-.7537-3.2671-1.7597 1.2822-.8838 2.7401-1.5307 4.2911-1.9571a1.5 1.5 0 0 0 1.287 .7344 1.5 1.5 0 0 0 1.5 -1.5 1.5 1.5 0 0 0 -1.5 -1.5z" fill="url(#gr0)"/>
 <path id="path15" d="m13.5 1a1.5 1.5 0 0 0-1.4824 1.2871c-1.745 0.4777-3.3932 1.2306-4.8379 2.2695l-0.01172-0.01172-0.07227 0.07227c-2.3262 1.7004-4.1027 4.1487-4.8281 7.4023a1.5 1.5 0 0 0-1.2676 1.4805 1.5 1.5 0 0 0 1.5 1.5 1.5 1.5 0 0 0 1.5-1.5 1.5 1.5 0 0 0-0.75-1.2969c0.4351-1.948 1.2666-3.5703 2.377-4.8965 1.3636 1.4008 2.1175 2.7339 2.3125 3.8829 0.2014 1.189-0.1285 2.1985-1.0332 3.1035l0.70703 0.707c1.0953-1.095 1.563-2.5005 1.3125-3.9785-0.2449-1.4435-1.1369-2.9433-2.6211-4.4551 0.2574-0.2563 0.52508-0.50037 0.80469-0.73047 1.3272 1.179 2.6417 1.9173 3.9121 2.1328 1.478 0.2505 2.8835-0.2171 3.9785-1.3125l-0.707-0.70703c-0.905 0.9047-1.9145 1.2347-3.1035 1.0332-0.979-0.1661-2.094-0.75376-3.2676-1.7598 1.2822-0.8838 2.74-1.5306 4.291-1.957a1.5 1.5 0 0 0 1.2871 0.73438 1.5 1.5 0 0 0 1.5-1.5 1.5 1.5 0 0 0-1.5-1.5zm0 0.5c0.5236 0 1 0.4764 1 1s-0.4764 1-1 1c-0.3444-6.7e-4 -0.6816-0.19407-0.8574-0.49023a0.50005 0.50005 0 0 0-0.4981-0.23829c2e-3 -5.4e-4 0.0039-0.0014 0.0059-0.00195a0.50005 0.50005 0 0 0 0.3633-0.41211c0.0675-0.47069 0.5108-0.85653 0.9863-0.85742zm-5.9902 3.4394a0.50005 0.50005 0 0 0 0.01171 0.58008c-0.027-0.02362-0.05303-0.03261-0.08007-0.05664a0.50005 0.50005 0 0 0-0.42579-0.11719c0.12967-0.10267 0.24138-0.22654 0.375-0.32422a0.50005 0.50005 0 0 0 0.03321-0.02929 0.50005 0.50005 0 0 0 0.04687-0.0293c0.0123-0.00884 0.02674-0.01464 0.03907-0.02344zm-1.6562 1.4121a0.50005 0.50005 0 0 0 0.09375 0.56446c0.00623 0.00635 0.00903 0.01324 0.01367 0.01953a0.50005 0.50005 0 0 0-0.51367-0.09375c0.14-0.159 0.25851-0.33961 0.40625-0.49024zm4.9903 1.0293c0.0855 0.01962 0.177 0.07938 0.2617 0.09375 0.4963 0.08412 0.9779 0.08048 1.4394-0.00977-0.4607 0.09049-0.9431 0.09585-1.4394 0.01172-0.0839-0.01422-0.1769-0.07621-0.2617-0.0957zm-5.9434 0.13281c-0.28977 0.38662-0.55439 0.79741-0.79883 1.2285 0.24583-0.42998 0.50735-0.8428 0.79883-1.2285zm3.123 2.5312c0.13998 0.3544 0.35253 0.7209 0.41015 1.0606 0.08413 0.4963 0.07877 0.9787-0.01171 1.4394 0.09023-0.4615 0.09384-0.9431 0.00976-1.4394-0.05779-0.3405-0.26798-0.7063-0.4082-1.0606zm-5.2676 2.086a0.50005 0.50005 0 0 0 0.24414 0.5058c0.30191 0.1743 0.49953 0.5147 0.5 0.8633 0 0.5236-0.4764 1-1 1s-1-0.4764-1-1c5.9e-4 -0.4713 0.38007-0.9133 0.8457-0.9863a0.50005 0.50005 0 0 0 0.41016-0.3828z" opacity=".3"/>
 <path id="path20" d="m14.912 3a1.5 1.5 0 0 1-1.4121 1 1.5 1.5 0 0 1-1.2871-0.73438c-1.551 0.42641-3.0088 1.0732-4.291 1.957 0.24137 0.2069 0.47717 0.38516 0.71289 0.55664 1.1019-0.65616 2.305-1.1637 3.5781-1.5137a1.5 1.5 0 0 0 1.2871 0.73438 1.5 1.5 0 0 0 1.5-1.5 1.5 1.5 0 0 0-0.0879-0.5zm-7.8027 2.8359c-0.27961 0.2301-0.54729 0.47417-0.80469 0.73047 0.1818 0.18518 0.3263 0.36996 0.49023 0.55468 0.10568-0.09404 0.20524-0.19528 0.31446-0.28515 1.3272 1.179 2.6417 1.9173 3.9121 2.1328 1.478 0.2505 2.8835-0.2171 3.9785-1.3125l-0.5371-0.53711c-0.5974 0.45149-1.2651 0.73904-1.9707 0.85352-0.1851 0.03768-0.3777 0.04814-0.5723 0.05273-0.2957 0.00844-0.5945-0.00513-0.8984-0.05664-1.2704-0.2155-2.5849-0.95381-3.9121-2.1328zm-1.4824 1.4707c-1.1104 1.3262-1.9418 2.9485-2.377 4.8965a1.5 1.5 0 0 1 0.23633 0.1699c0.4685-1.5776 1.1948-2.9367 2.1406-4.0664 1.3636 1.4008 2.1175 2.7339 2.3125 3.8829 0.01053 0.0621 0.00215 0.1185 0.00977 0.1796 0.06078-0.3741 0.06044-0.7652-0.00977-1.1796-0.195-1.149-0.9489-2.4821-2.3125-3.8829zm3.3281 4.9903c-0.11564 0.9992-0.56834 1.9299-1.3418 2.7031l-0.25781-0.2578c-0.13379 0.1866-0.27131 0.3728-0.44922 0.5508l0.70703 0.707c1.0269-1.0266 1.4928-2.3268 1.3418-3.7031zm-7.8672 1.7031a1.5 1.5 0 0 0-0.08789 0.5 1.5 1.5 0 0 0 1.5 1.5 1.5 1.5 0 0 0 1.5-1.5 1.5 1.5 0 0 0-0.08789-0.498 1.5 1.5 0 0 1-1.4121 0.998 1.5 1.5 0 0 1-1.4121-1z" fill="#fff" opacity=".2"/>
 <path id="path25" d="m13.5 1a1.5 1.5 0 0 0-1.4824 1.2871c-1.745 0.4777-3.3932 1.2306-4.8379 2.2695l-0.01172-0.01172-0.07227 0.07227c-2.3262 1.7004-4.1027 4.1487-4.8281 7.4023a1.5 1.5 0 0 0-1.2676 1.4805 1.5 1.5 0 0 0 0.08789 0.5 1.5 1.5 0 0 1 1.1797-0.9805c0.7254-3.2536 2.5019-5.7019 4.8281-7.4023l0.07227-0.07227 0.01172 0.01172c1.4447-1.0389 3.0929-1.7918 4.8379-2.2695a1.5 1.5 0 0 1 1.4824-1.2871 1.5 1.5 0 0 1 1.4121 1 1.5 1.5 0 0 0 0.0879-0.5 1.5 1.5 0 0 0-1.5-1.5zm-4.8652 4.7793c-0.24059 0.14326-0.48312 0.28498-0.71289 0.44336 1.1736 1.006 2.2886 1.5937 3.2676 1.7598 0.2526 0.04282 0.4932 0.04857 0.7304 0.04297 0.1932-0.00551 0.384-0.02219 0.5723-0.05273 0.6509-0.13255 1.2458-0.46871 1.8008-1.0234l0.1699 0.16992c0.1857-0.14036 0.3657-0.29143 0.5371-0.46289l-0.707-0.70703c-0.905 0.9047-1.9145 1.2347-3.1035 1.0332-0.7777-0.13194-1.6444-0.54084-2.5547-1.2031zm-1.8398 1.3418c-0.16487 0.14673-0.33337 0.28913-0.49023 0.44532 1.4842 1.5118 2.3762 3.0116 2.6211 4.4551 0.01565 0.0923 0.01923 0.1837 0.0293 0.2754 0.04812-0.4158 0.04431-0.8411-0.0293-1.2754-0.2149-1.2667-0.95649-2.577-2.1309-3.9004zm1.1543 5.248c-0.11357 0.6991-0.45364 1.3343-1.043 1.9239l0.44922 0.4492c0.51099-0.7129 0.70321-1.4939 0.59375-2.3731zm-4.4629 0.0039c-0.08151 0.2745-0.17185 0.5414-0.23633 0.8301a1.5 1.5 0 0 1 0.66211 0.7989 1.5 1.5 0 0 0 0.08789-0.502 1.5 1.5 0 0 0-0.51367-1.127z" opacity=".3"/>
</svg>
