<?xml version="1.0" encoding="UTF-8"?>
<svg id="svg30" width="16" height="16" version="1.1" xmlns="http://www.w3.org/2000/svg" xmlns:cc="http://creativecommons.org/ns#" xmlns:dc="http://purl.org/dc/elements/1.1/" xmlns:rdf="http://www.w3.org/1999/02/22-rdf-syntax-ns#">
 <metadata id="metadata34">
  <rdf:RDF>
   <cc:Work rdf:about="">
    <dc:format>image/svg+xml</dc:format>
    <dc:type rdf:resource="http://purl.org/dc/dcmitype/StillImage"/>
   </cc:Work>
  </rdf:RDF>
 </metadata>
 <defs id="defs7">
  <radialGradient id="gr0" cx="9" cy="10" r="11" gradientTransform="matrix(1 0 0 .72727 0 2.7273)" gradientUnits="userSpaceOnUse">
   <stop id="stop2" stop-opacity=".23529" offset="0"/>
   <stop id="stop4" stop-opacity=".54902" offset="1"/>
  </radialGradient>
 </defs>
 <path id="path9" d="m1 0a1 1.0001 0 0 0-1 1v2a1.0001 1.0001 0 0 0 0.13477 0.5 1.0001 1.0001 0 0 0-0.13477 0.5v2a1.0001 1.0001 0 0 0 1 1h1v3a1.0001 1.0001 0 0 0 1 1h2v4a1.0001 1.0001 0 0 0 1 1h4a1.0001 1.0001 0 0 0 0.5-0.1348 1.0001 1.0001 0 0 0 0.5 0.1348h4a1.0001 1.0001 0 0 0 1-1v-4a1.0001 1.0001 0 0 0-0.1348-0.5 1.0001 1.0001 0 0 0 0.1348-0.5v-4a1.0001 1.0001 0 0 0-1-1h-4v-2a1.0001 1.0001 0 0 0-1-1h-3v-1a1.0001 1.0001 0 0 0-1-1h-2a1.0001 1.0001 0 0 0-0.5 0.13477 1.0001 1.0001 0 0 0-0.5-0.13477h-2zm0 1h2v1 1h-1-1v-2zm3 0h2v2h-2v-2zm3 2h3v3h-3v-3zm-6 1h2v2h-2v-2zm3 0h2v2h-2v-2zm7 2h4v4h-4v-4zm-8 1h3v3h-3v-3zm4 0h3v3h-3v-3zm-1 4h4v4h-4v-4zm5 0h4v4h-4v-4z" fill="#fff" opacity=".05"/>
 <path id="base" d="m1 1v2h2v-2zm3 0v2h2v-2zm3 2v3h3v-3zm-6 1v2h2v-2zm3 0v2h2v-2zm7 2v4h4v-4zm-8 1v3h3v-3zm4 0v3h3v-3zm-1 4v4h4v-4zm5 0v4h4v-4z" fill="url(#gr0)"/>
 <path id="path15" d="m1 1v2h1 1v-1-1h-2zm3 0v2h2v-2h-2zm-2.5 0.5h1v0.5 0.5h-0.5-0.5v-1zm3 0h1v1h-1v-1zm2.5 1.5v3h3v-3h-3zm0.5 0.5h2v2h-2v-2zm-6.5 0.5v2h2v-2h-2zm3 0v2h2v-2h-2zm-2.5 0.5h1v1h-1v-1zm3 0h1v1h-1v-1zm6.5 1.5v4h4v-4h-4zm0.5 0.5h3v3h-3v-3zm-8.5 0.5v3h3v-3h-3zm4 0v3h3v-3h-3zm-3.5 0.5h2v2h-2v-2zm4 0h2v2h-2v-2zm-1.5 3.5v4h4v-4h-4zm5 0v4h4v-4h-4zm-4.5 0.5h3v3h-3v-3zm5 0h3v3h-3v-3z" opacity=".3"/>
 <path id="path20" d="m1 3v1h2v-1h-1-1zm3 0v1h2v-1h-2zm-3 3v1h2v-1h-2zm3 0v1h2v-1h-2zm3 0v1h3v-1h-3zm-4 4v1h3v-1h-3zm4 0v1h3v-1h-3zm4 0v1h4v-1h-4zm-5 5v1h4v-1h-4zm5 0v1h4v-1h-4z" fill="#fff" opacity=".2"/>
 <path id="path25" d="m1 1v1h2v-1h-2zm3 0v1h2v-1h-2zm3 2v1h3v-1h-3zm-6 1v1h2v-1h-1-1zm3 0v1h2v-1h-2zm7 2v1h4v-1h-4zm-8 1v1h3v-1h-2-1zm4 0v1h3v-1h-3zm-1 4v1h4v-1h-3-1zm5 0v1h4v-1h-4z" opacity=".3"/>
</svg>
