<?xml version="1.0" encoding="UTF-8"?>
<svg id="svg30" width="16" height="16" version="1.1" xmlns="http://www.w3.org/2000/svg" xmlns:cc="http://creativecommons.org/ns#" xmlns:dc="http://purl.org/dc/elements/1.1/" xmlns:rdf="http://www.w3.org/1999/02/22-rdf-syntax-ns#">
 <metadata id="metadata34">
  <rdf:RDF>
   <cc:Work rdf:about="">
    <dc:format>image/svg+xml</dc:format>
    <dc:type rdf:resource="http://purl.org/dc/dcmitype/StillImage"/>
   </cc:Work>
  </rdf:RDF>
 </metadata>
 <defs id="defs7">
  <radialGradient id="gr0" cx="9" cy="10" r="11" gradientTransform="matrix(1 0 0 .72727 0 2.7273)" gradientUnits="userSpaceOnUse">
   <stop id="stop2" stop-opacity=".23529" offset="0"/>
   <stop id="stop4" stop-opacity=".54902" offset="1"/>
  </radialGradient>
 </defs>
 <path id="path9" d="m7.3086 0c-0.63153 3.1162e-17 -1.2677 0.24821-1.7441 0.72461l-4.8398 4.8398c-0.34734 0.34751-0.57001 0.77999-0.66602 1.2246a1 1.0001 0 0 0 0.09375 0.67969 1.0001 1.0001 0 0 0-0.15234 0.53125v2a1.0001 1.0001 0 0 0 1 1 1.0001 1.0001 0 0 0-0.70703 1.707l3 3a1.0001 1.0001 0 0 0 1.4141 0l1.3359-1.3359 0.9043 0.9043c0.9539 0.9546 2.5344 0.9546 3.4882 0l3.1114-3.1113 1.7285-1.7286c0.9546-0.95381 0.9546-2.5343 0-3.4882l-6.2227-6.2227c-0.47648-0.47648-1.1126-0.72461-1.7441-0.72461zm0 1c0.3749 0 0.74981 0.14434 1.0371 0.43164l6.2227 6.2227c0.575 0.5746 0.575 1.4996 0 2.0742l-1.7286 1.7285-3.1113 3.1114c-0.5746 0.575-1.4996 0.575-2.0742 0l-0.9043-0.9043 0.95703-0.9571a1.0001 1.0001 0 0 0 0.28125-0.5703l0.35742 0.3574c0.09624 0.0965 0.22205 0.1451 0.34766 0.1446a1.0001 1.0001 0 0 0-0.72461-0.8848 1.0001 1.0001 0 0 0-0.19141-0.3809 1.0001 1.0001 0 0 0-0.21875-1.08l-0.85156-0.85159a1.0001 1.0001 0 0 0-0.81641-0.28711c-0.06076-0.39476-0.13379-0.79392-0.35156-1.1016l0.02344 0.03516c0.11651 0.17976 0.11461 0.13057-0.07227-0.12109a1.0001 1.0001 0 0 0-0.04882-0.06055c-0.09098-0.10462-0.08811-0.09543-0.05274-0.05273l-0.00976-0.00977c-0.10702-0.12108-0.19736-0.21588-0.03711-0.0332a1.0001 1.0001 0 0 0-0.02539-0.02539c-0.14341-0.15205-0.29936-0.27927-0.46289-0.38477a1.0001 1.0001 0 0 0-0.01172-0.00781c-0.08997-0.05634-0.16313-0.09318-0.21094-0.11719l0.00391 0.00391c-0.00697-0.00355-0.01641-0.00431-0.02344-0.00782l2.6973-2.6973 4.1172 4.1172-3.0957 3.0957c0.12614-0.1252 0.313-0.0433 0.48633 0l0.16211 0.4844c0-1e-4 -0.04984 0.1648-0.09961 0.3281 0.05736-0.024 0.11139-0.0585 0.1582-0.1055l2.4199-2.4199 1.0371-1.0371c0.192-0.1915 0.192-0.49991 0-0.69141l-4.8398-4.8398c-0.1915-0.1916-0.49991-0.1916-0.69141 0l-3.457 3.457c-0.0111 0.0111-0.01539 0.02531-0.02539 0.03711h-0.48047-1.9648c0.0575-0.2663 0.18878-0.52072 0.39648-0.72852l4.8398-4.8398c0.2873-0.2873 0.66211-0.43164 1.0371-0.43164zm-6.3086 7h2 0.5c0.104 0 0.20473 0.01145 0.30273 0.03125 3e-3 6e-4 0.00677-6e-4 0.00977 0 0.015 0.0032 0.02602 0.01262 0.04102 0.01563 0.115 0.0279 0.22412 0.07014 0.32812 0.12304 0.044 0.0221 0.08691 0.04401 0.12891 0.07031 0.102 0.0658 0.19629 0.14247 0.27929 0.23047 0.01 0.0114 0.02516 0.0175 0.03516 0.0293 0.019 0.0218 0.0425 0.0395 0.0625 0.0625 0.015 0.0202 0.02116 0.04676 0.03516 0.06836 0.173 0.2444 0.27734 0.54349 0.27734 0.86719v0.00195 0.5 1.9941 0.0098h2l-3 3-3-3h2v-0.0098-1.498c0-0.27-0.21347-0.4851-0.48047-0.4961h-0.01953-1.5v-2zm5 2.1484 0.85156 0.8516h-0.85156v-0.8516z" fill="#fff" opacity=".05"/>
 <path id="base" d="m7.3086 1c-.3750 0-.7498.1443-1.0371.4316l-4.8399 4.8399c-.2077.2078-.3389.4622-.3964.7285h1.9648.4805c.0098-.0118.0143-.0260.0254-.0371l3.457-3.457c.1915-.1916.4999-.1916.6914 0l4.8397 4.8398c.192.1915.192.4999 0 .6914l-1.037 1.0369-2.4199 2.42c-.1915.192-.4999.192-.6914 0l-.3574-.357a1 1.0001 0 0 1 -.2813 .570l-.9570.957.9043.904c.5746.575 1.4996.575 2.0742 0l3.1115-3.111 1.728-1.7285c.575-.5746.575-1.4996 0-2.0742l-6.2223-6.2227c-.2873-.2873-.6622-.4316-1.0371-.4316zm-6.3086 7v2h1.5.0195c.2670.011.4805.226.4805.496v1.498.006h-2l3 3 3-3h-2v-.006-1.994-0.5-.0020c0-.3237-.1043-.6227-.2773-.8671-.0140-.0216-.0202-.0482-.0352-.0684-0.02-.0230-.0435-.0407-.0625-.0625-0.01-.0118-.0252-.0179-.0352-.0293-.0830-.0880-.1773-.1647-.2793-.2305-.0420-.0263-.0849-.0482-.1289-.0703-.1040-.0529-.2131-.0951-.3281-.1230-.0150-.0034-.0260-.0125-.0410-.0157-.0030-.0006-.0068.0006-.0098 0-.0980-.0198-.1987-.0312-.3027-.0312h-0.5-2zm5 2.148v.852h.8516l-.8516-.852z" fill="url(#gr0)"/>
 <path id="path15" d="m7.3086 1c-0.375 0-0.74981 0.14434-1.0371 0.43164l-4.8398 4.8398c-0.2077 0.2078-0.33898 0.46222-0.39648 0.72852h1.9648 0.48047c0.01-0.0118 0.01429-0.02601 0.02539-0.03711l3.457-3.457c0.1915-0.1916 0.49991-0.1916 0.69141 0l4.8398 4.8398c0.192 0.1915 0.192 0.49991 0 0.69141l-3.457 3.457c-0.1915 0.192-0.49991 0.192-0.69141 0l-0.35742-0.3574a1 1.0001 0 0 1-0.21289 0.4942l0.2168 0.2168c0.38104 0.382 1.0174 0.382 1.3984 0l2.4199-2.42 1.0372-1.0371c0.382-0.38103 0.382-1.0174 0-1.3984l-4.8399-4.8398c-0.38124-0.38144-1.0172-0.38144-1.3984 0l-3.3477 3.3477h-0.26172-1.0898l4.7148-4.7148c0.19275-0.19275 0.43686-0.28516 0.68359-0.28516 0.2466 0 0.49089 0.09245 0.6836 0.28516l6.2226 6.2226c0.3853 0.38495 0.3853 0.98224 0 1.3672l-4.8398 4.8398c-0.38495 0.3853-0.98224 0.3853-1.3672 0l-0.55078-0.5507 0.60352-0.6036-0.35352-0.3535-0.95703 0.9571 0.9043 0.9043c0.5746 0.575 1.4996 0.575 2.0742 0l3.1113-3.1114 1.7286-1.7285c0.575-0.5746 0.575-1.4996 0-2.0742l-6.2227-6.2227c-0.2873-0.2873-0.66221-0.43164-1.0371-0.43164zm-6.3086 7v2h1.5 0.01953c0.267 0.011 0.48047 0.2261 0.48047 0.4961v1.498 0.0098h-2l3 3 3-3h-2v-0.0098-1.9941-0.5-0.00195c0-0.3237-0.10434-0.62279-0.27734-0.86719-0.014-0.0216-0.02016-0.04816-0.03516-0.06836-0.02-0.023-0.0435-0.0407-0.0625-0.0625-0.01-0.0118-0.02516-0.0179-0.03516-0.0293-0.083-0.088-0.17729-0.16467-0.27929-0.23047-0.042-0.0263-0.08491-0.04821-0.12891-0.07031-0.104-0.0529-0.21312-0.09514-0.32812-0.12304-0.015-0.00301-0.02602-0.01243-0.04102-0.01563-3e-3 -6e-4 -0.00677 6e-4 -0.00977 0-0.098-0.0198-0.19873-0.03125-0.30273-0.03125h-0.5-2zm0.5 0.5h1.5 0.5c0.06746 0 0.13378 0.00747 0.20312 0.02148a0.50005 0.50005 0 0 1 0.00196 0c6e-5 2e-5 0.00848-1.5e-4 0.00976 0-0.05342-0.01045-0.04766-0.00487 0.02149 0.01172l0.00586 0.00196c0.07117 0.01777 0.14101 0.04351 0.21289 0.08007a0.50005 0.50005 0 0 1 0.00195 0.00196c0.04025 0.02021 0.06593 0.03383 0.08399 0.04492l0.0039 0.00195c0.06869 0.04494 0.13037 0.09603 0.18164 0.15039l-0.01172-0.01367c0.11733 0.13375 0.12592 0.13745 0.0293 0.02344a0.50005 0.50005 0 0 0 0.00391 0.0039c0.0417 0.04785 0.03574 0.03573 0.04101 0.03907-0.03923-0.05168-0.05328-0.06815 0.01367 0.03515a0.50005 0.50005 0 0 0 0.01172 0.01758c0.11665 0.16479 0.18555 0.36183 0.18555 0.57813v0.00195 0.5 1.9941 0.0059a0.50005 0.50005 0 0 0 0.5 0.5h0.79297l-1.793 1.793-1.793-1.793h0.79297a0.50005 0.50005 0 0 0 0.5-0.5v-0.0059-1.498c0-0.5336-0.43521-0.97452-0.95898-0.9961a0.50005 0.50005 0 0 0-0.02149 0h-0.01953-1v-1zm4.5 1.6484v0.8516h0.85156l-0.85156-0.8516z" opacity=".3"/>
 <path id="path20" d="m7.3086 3.3613c-0.12497 0-0.24995 0.04873-0.3457 0.14453l-3.457 3.457c-0.0111 0.0111-0.01539 0.02531-0.02539 0.03711h-0.48047-1.2969l-0.27148 0.27148c-0.2077 0.2078-0.33898 0.46222-0.39648 0.72852h1.9648 0.48047c0.01-0.0118 0.01429-0.02601 0.02539-0.03711l3.457-3.457c0.1915-0.1916 0.49991-0.1916 0.69141 0l4.6855 4.6856 0.1543-0.1543c0.192-0.1915 0.192-0.49991 0-0.69141l-4.8398-4.8398c-0.09575-0.0958-0.22073-0.14453-0.34571-0.14453zm7.5976 5.8301c-0.0712 0.19517-0.1806 0.38-0.3378 0.53711l-1.7286 1.7285-3.1113 3.1114c-0.5746 0.575-1.4996 0.575-2.0742 0l-0.4043-0.4043-0.5 0.5 0.9043 0.9043c0.5746 0.575 1.4996 0.575 2.0742 0l3.1113-3.1114 1.7286-1.7285c0.4177-0.4175 0.5272-1.0184 0.3378-1.5371zm-13.906 0.80859v1h1.5 0.01953c0.267 0.011 0.48047 0.2261 0.48047 0.4961v-1c0-0.27-0.21347-0.4851-0.48047-0.4961h-0.01953-1.5zm5 1.1484v0.8516h0.85156l-0.85156-0.8516zm-5 1.8555 3 3 3-3h-1l-2 2-2-2h-1z" fill="#fff" opacity=".2"/>
 <path id="path25" d="m7.3086 1c-0.375 0-0.74981 0.14434-1.0371 0.43164l-4.8398 4.8398c-0.2077 0.2078-0.33898 0.46222-0.39648 0.72852h0.66796l4.5684-4.5684c0.2873-0.2873 0.66211-0.43164 1.0371-0.43164 0.3749 0 0.74981 0.14434 1.0371 0.43164l6.2227 6.2227c0.1572 0.1571 0.2666 0.34194 0.3378 0.53711 0.1894-0.51865 0.0799-1.1196-0.3378-1.5371l-6.2227-6.2227c-0.2873-0.2873-0.66221-0.43164-1.0371-0.43164zm-6.3086 7v1l2 0.00195h0.5c0.104 0 0.20473 0.01145 0.30273 0.03125 3e-3 6e-4 0.00677-6e-4 0.00977 0 0.015 0.0032 0.02602 0.01263 0.04102 0.01563 0.115 0.0279 0.22412 0.07015 0.32812 0.12305 0.044 0.0221 0.08691 0.04401 0.12891 0.07031 0.102 0.0658 0.19629 0.14247 0.27929 0.23047 0.01 0.0114 0.02516 0.01749 0.03516 0.02929 0.019 0.0218 0.0425 0.0395 0.0625 0.0625 0.015 0.0202 0.02116 0.04676 0.03516 0.06836 0.173 0.2444 0.27734 0.54349 0.27734 0.86719v-0.5-0.5-0.00195c0-0.3237-0.10434-0.62279-0.27734-0.86719-0.014-0.0216-0.02016-0.04816-0.03516-0.06836-0.02-0.023-0.0435-0.0407-0.0625-0.0625-0.01-0.0118-0.02516-0.0179-0.03516-0.0293-0.083-0.088-0.17729-0.16467-0.27929-0.23047-0.042-0.0263-0.08491-0.04821-0.12891-0.07031-0.104-0.0529-0.21312-0.09514-0.32812-0.12304-0.015-0.00301-0.02602-0.01243-0.04102-0.01563-3e-3 -6e-4 -0.00677 6e-4 -0.00977 0-0.098-0.0198-0.19873-0.03125-0.30273-0.03125h-0.01953-0.48047-1.9648-0.03516zm11.34 1.1914-3.3027 3.3027c-0.1915 0.192-0.49991 0.192-0.69141 0l-0.35742-0.3574a1 1.0001 0 0 1-0.28125 0.5703l-0.95703 0.9571 0.5 0.5 0.45703-0.4571a1.0001 1.0001 0 0 0 0.28125-0.5703l0.35742 0.3574c0.1915 0.192 0.49991 0.192 0.69141 0l3.457-3.457c0.192-0.19149 0.192-0.4999 0-0.6914l-0.1543-0.15429zm-6.3398 0.95699v0.8516h0.85156l-0.85156-0.8516zm-5 1.8555 1 1h1v-0.0098-0.9902h-2zm4 0v0.9902 0.0098h1l1-1h-2z" opacity=".3"/>
</svg>
