<?xml version="1.0" encoding="UTF-8"?>
<svg id="svg30" width="16" height="16" version="1.1" xmlns="http://www.w3.org/2000/svg" xmlns:cc="http://creativecommons.org/ns#" xmlns:dc="http://purl.org/dc/elements/1.1/" xmlns:rdf="http://www.w3.org/1999/02/22-rdf-syntax-ns#">
 <metadata id="metadata34">
  <rdf:RDF>
   <cc:Work rdf:about="">
    <dc:format>image/svg+xml</dc:format>
    <dc:type rdf:resource="http://purl.org/dc/dcmitype/StillImage"/>
   </cc:Work>
  </rdf:RDF>
 </metadata>
 <defs id="defs7">
  <radialGradient id="gr0" cx="9" cy="10" r="11" gradientTransform="matrix(1 0 0 .72727 0 2.7273)" gradientUnits="userSpaceOnUse">
   <stop id="stop2" stop-opacity=".23529" offset="0"/>
   <stop id="stop4" stop-opacity=".54902" offset="1"/>
  </radialGradient>
 </defs>
 <path id="path9" d="m7.3086 0c-0.63153 3.1162e-17 -1.2677 0.24821-1.7441 0.72461l-4.8398 4.8398c-0.74986 0.74986-0.91612 1.8818-0.48438 2.7949a1 1.0001 0 0 0 0.75977 0.5625v1.3398c-0.55354 0.2618-1 0.7209-1 1.3633v2.75c0 0.8836 0.74143 1.625 1.625 1.625h4.75c0.37479 0 0.6928-0.1871 0.9707-0.4082a1.0001 1.0001 0 0 0 0.07813 0.0508c0.94688 0.5709 2.2021 0.4434 3.0117-0.3672l3.1114-3.1113 1.7285-1.7286c0.9546-0.95381 0.9546-2.5343 0-3.4882l-6.2227-6.2227c-0.47648-0.47648-1.1126-0.72461-1.7441-0.72461zm0 1c0.3749 0 0.74981 0.14434 1.0371 0.43164l6.2227 6.2227c0.575 0.5746 0.575 1.4996 0 2.0742l-1.7286 1.7285-3.1113 3.1114c-0.4874 0.488-1.2252 0.5587-1.7891 0.2187 0.036-0.132 0.06055-0.2701 0.06055-0.4121v-2.2266l0.3457 0.3457c0.1915 0.192 0.49991 0.192 0.69141 0l2.4199-2.4199 1.0371-1.0371c0.192-0.1915 0.192-0.49991 0-0.69141l-4.8398-4.8398c-0.1915-0.1916-0.49991-0.1916-0.69141 0l-3.457 3.457c-0.0111 0.0111-0.01539 0.02531-0.02539 0.03711h-0.85547c-0.3383 0-0.75432 0.08488-1.1035 0.39258-0.1659 0.1461-0.29035 0.33576-0.37695 0.53906-0.25722-0.544-0.16399-1.2091 0.28711-1.6602l4.8398-4.8398c0.2873-0.2873 0.66211-0.43164 1.0371-0.43164zm0 3.5742 4.1172 4.1172-2.7344 2.7344a1.0001 1.0001 0 0 0-0.88282-0.2578c-0.14352-0.4236-0.407-0.7163-0.80859-0.9063v-1.6367c0-0.88346-0.74181-1.625-1.625-1.625h-0.49219l2.4258-2.4258zm-4.6836 3.4258h2.75c0.346 0 0.625 0.2788 0.625 0.625v2.375h0.375c0.346 0 0.625 0.279 0.625 0.625v2.75c0 0.346-0.279 0.625-0.625 0.625h-4.75c-0.346 0-0.625-0.279-0.625-0.625v-2.75c0-0.346 0.279-0.625 0.625-0.625h0.375v-2.375c0-0.4534 0.279-0.625 0.625-0.625zm0.375 1v2h2v-2h-2z" fill="#fff" opacity=".05"/>
 <path id="base" d="m7.3086 1c-.3750 0-.7498.1443-1.0371.4316l-4.8399 4.8399c-.45110.4511-.54432 1.1161-.2871 1.6601.0866-.2033.2111-.3929.3770-.5390.3492-.3077.7652-.3926 1.1035-.3926h.8555c.0098-.0118.0143-.0260.0254-.0371l3.457-3.457c.1915-.1916.4999-.1916.6914 0l4.8397 4.8398c.192.1915.192.4999 0 .6914l-1.037 1.0369-2.4199 2.42c-.1915.192-.4999.192-.6914 0l-.3457-.346v2.227c0 .142-.0245.280-.0605.412.5639.340 1.3016.269 1.789-.219l3.1115-3.111 1.728-1.7285c.575-.5746.575-1.4996 0-2.0742l-6.2223-6.2227c-.2873-.2873-.6622-.4316-1.0371-.4316zm-4.6836 7c-.346 0-.625.1716-.625.625v2.375h-.375c-.346 0-.625.279-.625.625v2.75c0 .346.279.625.625.625h4.75c.346 0 .625-.279.625-.625v-2.75c0-.346-.279-.625-.625-.625h-.375v-2.375c0-.3462-.279-.625-.625-.625h-2.75zm.375 1h2v2h-2v-2z" fill="url(#gr0)"/>
 <path id="path15" d="m7.3086 1c-0.375 0-0.74981 0.14434-1.0371 0.43164l-4.8398 4.8398c-0.4511 0.4511-0.54433 1.1162-0.28711 1.6602 0.0866-0.2033 0.21105-0.39296 0.37695-0.53906 0.3492-0.3077 0.76522-0.39258 1.1035-0.39258h0.85547c0.01-0.0118 0.01429-0.02601 0.02539-0.03711l3.457-3.457c0.1915-0.1916 0.49991-0.1916 0.69141 0l4.8398 4.8398c0.192 0.1915 0.192 0.49991 0 0.69141l-3.457 3.457c-0.1915 0.192-0.49991 0.192-0.69141 0l-0.3457-0.3457v2.2266c0 0.142-0.02455 0.2801-0.06055 0.4121 0.5639 0.34 1.3017 0.2693 1.7891-0.2187l3.1113-3.1114 1.7286-1.7285c0.575-0.5746 0.575-1.4996 0-2.0742l-6.2227-6.2227c-0.2873-0.2873-0.66221-0.43164-1.0371-0.43164zm0 0.5c0.2466 0 0.49089 0.09245 0.6836 0.28516l6.2226 6.2226c0.3853 0.38495 0.3853 0.98224 0 1.3672l-4.8398 4.8398c-0.24677 0.2471-0.57368 0.2817-0.88281 0.211 5.7e-4 -0.0184 0.00781-0.0321 0.00781-0.0508v-1.3203c0.31818 0.0666 0.64794 0.0363 0.89062-0.207l2.4199-2.42 1.0372-1.0371c0.382-0.38103 0.382-1.0174 0-1.3984l-4.8399-4.8398c-0.38124-0.38144-1.0172-0.38144-1.3984 0l-3.3477 3.3477h-0.63672c-0.26322 0-0.57239 0.07593-0.88281 0.20703 0.02063-0.02512 0.01934-0.05841 0.04297-0.08203l4.8398-4.8398c0.19275-0.19275 0.43686-0.28516 0.68359-0.28516zm-4.6836 6.5c-0.346 0-0.625 0.1716-0.625 0.625v2.375h-0.375c-0.346 0-0.625 0.279-0.625 0.625v2.75c0 0.346 0.279 0.625 0.625 0.625h4.75c0.346 0 0.625-0.279 0.625-0.625v-2.75c0-0.346-0.279-0.625-0.625-0.625h-0.375v-2.375c0-0.3462-0.279-0.625-0.625-0.625h-2.75zm0 0.5h0.375a0.50005 0.50005 0 0 0-0.5 0.5v-0.375c0-0.12414 0.01876-0.1119 0.01367-0.10742-0.00508 0.00448 0.02099-0.01758 0.11133-0.01758zm2.375 0h0.375c0.07741 0 0.125 0.04743 0.125 0.125v0.375a0.50005 0.50005 0 0 0-0.5-0.5zm-2 0.5h2v2h-2v-2zm-0.5 2a0.50005 0.50005 0 0 0 0.5 0.5h2a0.50005 0.50005 0 0 0 0.5-0.5 0.50005 0.50005 0 0 0 0.5 0.5h0.375c0.07721 0 0.125 0.0478 0.125 0.125v2.75c0 0.0772-0.04779 0.125-0.125 0.125h-4.75c-0.07721 0-0.125-0.0478-0.125-0.125v-2.75c0-0.0772 0.04779-0.125 0.125-0.125h0.375a0.50005 0.50005 0 0 0 0.5-0.5z" opacity=".3"/>
 <path id="path20" d="m7.3086 3.3613c-0.12497 0-0.24995 0.04873-0.3457 0.14453l-3.457 3.457c-0.0111 0.0111-0.01539 0.02531-0.02539 0.03711h-0.85547c-0.3383 0-0.75432 0.08488-1.1035 0.39258-0.1659 0.1461-0.29035 0.33576-0.37695 0.53906-0.01887-0.03991-0.02201-0.08392-0.03711-0.125-0.13366 0.36562-0.13112 0.76921 0.03711 1.125 0.0866-0.2033 0.21105-0.39296 0.37695-0.53906 0.26936-0.23735 0.57099-0.31996 0.85352-0.35547 0.07666-0.02469 0.16081-0.03711 0.25-0.03711h0.85547c0.01-0.0118 0.01429-0.02601 0.02539-0.03711l3.457-3.457c0.1915-0.1916 0.49991-0.1916 0.69141 0l4.6855 4.6856 0.1543-0.1543c0.192-0.1915 0.192-0.49991 0-0.69141l-4.8398-4.8398c-0.09575-0.0958-0.22073-0.14453-0.34571-0.14453zm-4.3086 5.6387v1h2v-1h-2zm11.906 0.19141c-0.0712 0.19517-0.1806 0.38-0.3378 0.53711l-1.7286 1.7285-3.1113 3.1114c-0.47103 0.4716-1.1727 0.544-1.7285 0.2421v0.5645c0 0.142-0.02455 0.2801-0.06055 0.4121 0.5639 0.34 1.3017 0.2693 1.7891-0.2187l3.1113-3.1114 1.7286-1.7285c0.4177-0.4175 0.5272-1.0184 0.3378-1.5371zm-13.906 5.1836v1c0 0.346 0.279 0.625 0.625 0.625h4.75c0.346 0 0.625-0.279 0.625-0.625v-1c0 0.346-0.279 0.625-0.625 0.625h-4.75c-0.346 0-0.625-0.279-0.625-0.625z" fill="#fff" opacity=".2"/>
 <path id="path25" d="m7.3086 1c-0.375 0-0.74981 0.14434-1.0371 0.43164l-4.8398 4.8398c-0.418 0.41801-0.51488 1.0163-0.32422 1.5352 0.0707-0.1934 0.16815-0.37909 0.32422-0.53516l4.8398-4.8398c0.2873-0.2873 0.66211-0.43164 1.0371-0.43164 0.3749 0 0.74981 0.14434 1.0371 0.43164l6.2227 6.2227c0.1572 0.1571 0.2666 0.34194 0.3378 0.53711 0.1894-0.51865 0.0799-1.1196-0.3378-1.5371l-6.2227-6.2227c-0.2873-0.2873-0.66221-0.43164-1.0371-0.43164zm-4.6836 7c-0.07735 0-0.16626 0.02658-0.25 0.03711-0.22071 0.0711-0.375 0.25137-0.375 0.58789v1c0-0.4534 0.279-0.625 0.625-0.625h0.375 2 0.375c0.346 0 0.625 0.2788 0.625 0.625v-1c0-0.3462-0.279-0.625-0.625-0.625h-1.8945-0.85547zm9.7148 1.1914-3.3027 3.3027c-0.1915 0.192-0.49991 0.192-0.69141 0l-0.3457-0.3457v1l0.3457 0.3457c0.1915 0.192 0.49991 0.192 0.69141 0l3.457-3.457c0.192-0.19149 0.192-0.4999 0-0.6914l-0.1543-0.15429zm-10.715 1.8086c-0.346 0-0.625 0.279-0.625 0.625v1c0-0.346 0.279-0.625 0.625-0.625h0.375v-1h-0.375zm1.375 0v1h2v-1h-2zm3 0v1h0.375c0.346 0 0.625 0.279 0.625 0.625v-1c0-0.346-0.279-0.625-0.625-0.625h-0.375zm2 3.375c0 0.142-0.02455 0.2801-0.06055 0.4121 0.01895 0.0114 0.04123 0.013 0.06055 0.0234v-0.4355z" opacity=".3"/>
</svg>
