<?xml version="1.0" encoding="UTF-8"?>
<svg id="svg30" width="16" height="16" version="1.1" xmlns="http://www.w3.org/2000/svg" xmlns:cc="http://creativecommons.org/ns#" xmlns:dc="http://purl.org/dc/elements/1.1/" xmlns:rdf="http://www.w3.org/1999/02/22-rdf-syntax-ns#">
 <metadata id="metadata34">
  <rdf:RDF>
   <cc:Work rdf:about="">
    <dc:format>image/svg+xml</dc:format>
    <dc:type rdf:resource="http://purl.org/dc/dcmitype/StillImage"/>
   </cc:Work>
  </rdf:RDF>
 </metadata>
 <defs id="defs7">
  <radialGradient id="gr0" cx="9" cy="10" r="11" gradientTransform="matrix(1 0 0 .63636 0 3.6364)" gradientUnits="userSpaceOnUse">
   <stop id="stop2" stop-opacity=".23529" offset="0"/>
   <stop id="stop4" stop-opacity=".54902" offset="1"/>
  </radialGradient>
 </defs>
 <path id="path9" d="m4.9844 1a1 1.0001 0 0 0-0.98438 1v6 6a1.0001 1.0001 0 0 0 1 1h6a1.0001 1.0001 0 0 0 1-1v-6a1.0001 1.0001 0 0 0-0.293-0.70703l-6-6a1.0001 1.0001 0 0 0-0.72265-0.29297zm0.01562 1 6 6v6h-6v-6-6z" fill="#fff" opacity=".05"/>
 <path id="base" d="m5 2v12h6v-6l-6-6z" fill="url(#gr0)"/>
 <path id="path15" d="m5 2v6 6h6v-6l-6-6zm0.5 1.207 5 5v5.293h-5v-5.5-4.793z" opacity=".3"/>
 <path id="path20" d="m5 14v1h6v-1h-6z" fill="#fff" opacity=".2"/>
 <path id="path25" d="m5 2v1l6 6v-1l-6-6z" opacity=".3"/>
</svg>
