<?xml version="1.0" encoding="UTF-8"?>
<svg id="svg30" width="16" height="16" version="1.1" xmlns="http://www.w3.org/2000/svg" xmlns:cc="http://creativecommons.org/ns#" xmlns:dc="http://purl.org/dc/elements/1.1/" xmlns:rdf="http://www.w3.org/1999/02/22-rdf-syntax-ns#">
 <metadata id="metadata34">
  <rdf:RDF>
   <cc:Work rdf:about="">
    <dc:format>image/svg+xml</dc:format>
    <dc:type rdf:resource="http://purl.org/dc/dcmitype/StillImage"/>
   </cc:Work>
  </rdf:RDF>
 </metadata>
 <defs id="defs7">
  <radialGradient id="gr0" cx="9" cy="10" r="11" gradientTransform="matrix(1 0 0 .63636 0 3.6364)" gradientUnits="userSpaceOnUse">
   <stop id="stop2" stop-opacity=".23529" offset="0"/>
   <stop id="stop4" stop-opacity=".54902" offset="1"/>
  </radialGradient>
 </defs>
 <path id="path9" d="m6.5 1c-1.1738 0-2.031 0.89896-2.291 2h-1.709c-1.3677 0-2.5 1.1323-2.5 2.5v7c0 1.3677 1.1323 2.5 2.5 2.5h11c1.3677 0 2.5-1.1323 2.5-2.5v-7c0-1.3677-1.1323-2.5-2.5-2.5h-1.709c-0.2601-1.101-1.1172-2-2.291-2h-3zm0 1h3c0.831 0 1.5 0.669 1.5 1.5v0.5h2.5c0.831 0 1.5 0.669 1.5 1.5v7c0 0.831-0.669 1.5-1.5 1.5h-5.5-5.5c-0.831 0-1.5-0.669-1.5-1.5v-7c0-0.831 0.669-1.5 1.5-1.5h2.5v-0.5c0-0.831 0.669-1.5 1.5-1.5zm1.5 4c-1.5708 0-3 1.4292-3 3s1.4292 3 3 3 3-1.4292 3-3-1.4292-3-3-3zm0 1a2 2 0 0 1 2 2 2 2 0 0 1-2 2 2 2 0 0 1-2-2 2 2 0 0 1 2-2z" fill="#fff" opacity=".05"/>
 <path id="base" d="m6.5 2c-0.831 0-1.5 0.669-1.5 1.5v0.5h-2.5c-0.831 0-1.5 0.669-1.5 1.5v7c0 0.831 0.669 1.5 1.5 1.5h11c0.831 0 1.5-0.669 1.5-1.5v-7c0-0.831-0.669-1.5-1.5-1.5h-2.5v-0.5c0-0.831-0.669-1.5-1.5-1.5h-3zm1.5 3a4 4 0 0 1 4 4 4 4 0 0 1-4 4 4 4 0 0 1-4-4 4 4 0 0 1 4-4zm0 2a2 2 0 0 0-2 2 2 2 0 0 0 2 2 2 2 0 0 0 2-2 2 2 0 0 0-2-2z" fill="url(#gr0)"/>
 <path id="path15" d="m6.5 2c-0.831 0-1.5 0.669-1.5 1.5v0.5h-2.5c-0.831 0-1.5 0.669-1.5 1.5v7c0 0.831 0.669 1.5 1.5 1.5h11c0.831 0 1.5-0.669 1.5-1.5v-7c0-0.831-0.669-1.5-1.5-1.5h-2.5v-0.5c0-0.831-0.669-1.5-1.5-1.5h-3zm0 0.5h3c0.5626 0 1 0.43735 1 1v0.5a0.50005 0.50005 0 0 0 0.5 0.5h2.5c0.5626 0 1 0.43735 1 1v7c0 0.5626-0.4374 1-1 1h-11c-0.56265 0-1-0.4374-1-1v-7c0-0.56265 0.43735-1 1-1h2.5a0.50005 0.50005 0 0 0 0.5-0.5v-0.5c0-0.56265 0.43735-1 1-1zm1.5 4.5a2 2 0 0 0-2 2 2 2 0 0 0 2 2 2 2 0 0 0 2-2 2 2 0 0 0-2-2zm0 0.5c0.7854 0 1.5 0.7146 1.5 1.5s-0.7146 1.5-1.5 1.5-1.5-0.7146-1.5-1.5 0.7146-1.5 1.5-1.5z" opacity=".3"/>
 <path id="path20" d="m8 5a4 4 0 0 0-4 4 4 4 0 0 0 0.03516 0.49414 4 4 0 0 1 3.9648-3.4941 4 4 0 0 1 3.9648 3.5059 4 4 0 0 0 0.0352-0.50586 4 4 0 0 0-4-4zm-1.9356 4.4961a2 2 0 0 0-0.06445 0.50391 2 2 0 0 0 2 2 2 2 0 0 0 2-2 2 2 0 0 0-0.06445-0.49609 2 2 0 0 1-1.9356 1.4961 2 2 0 0 1-1.9356-1.5039zm-5.0644 3.0039v1c0 0.831 0.669 1.5 1.5 1.5h11c0.831 0 1.5-0.669 1.5-1.5v-1c0 0.831-0.669 1.5-1.5 1.5h-5.5-5.5c-0.831 0-1.5-0.669-1.5-1.5z" fill="#fff" opacity=".2"/>
 <path id="path25" d="m6.5 2c-0.831 0-1.5 0.669-1.5 1.5v0.5h-2.5c-0.831 0-1.5 0.669-1.5 1.5v1c0-0.831 0.669-1.5 1.5-1.5h2.5v-0.5c0-0.831 0.669-1.5 1.5-1.5h3c0.831 0 1.5 0.669 1.5 1.5v0.5h2.5c0.831 0 1.5 0.669 1.5 1.5v-1c0-0.831-0.669-1.5-1.5-1.5h-2.5v-0.5c0-0.831-0.669-1.5-1.5-1.5h-3zm1.5 5a2 2 0 0 0-2 2 2 2 0 0 0 0.06445 0.49609 2 2 0 0 1 1.9356-1.4961 2 2 0 0 1 1.9356 1.5039 2 2 0 0 0 0.06445-0.50391 2 2 0 0 0-2-2zm-3.9648 2.4941a4 4 0 0 0-0.03516 0.50586 4 4 0 0 0 4 4 4 4 0 0 0 4-4 4 4 0 0 0-0.0352-0.49414 4 4 0 0 1-3.9648 3.4941 4 4 0 0 1-3.9648-3.5059z" opacity=".3"/>
</svg>
