<?xml version="1.0" encoding="UTF-8"?>
<svg id="svg30" width="16" height="16" version="1.1" xmlns="http://www.w3.org/2000/svg" xmlns:cc="http://creativecommons.org/ns#" xmlns:dc="http://purl.org/dc/elements/1.1/" xmlns:rdf="http://www.w3.org/1999/02/22-rdf-syntax-ns#">
 <metadata id="metadata34">
  <rdf:RDF>
   <cc:Work rdf:about="">
    <dc:format>image/svg+xml</dc:format>
    <dc:type rdf:resource="http://purl.org/dc/dcmitype/StillImage"/>
   </cc:Work>
  </rdf:RDF>
 </metadata>
 <defs id="defs7">
  <radialGradient id="gr0" cx="9" cy="10" r="11" gradientTransform="matrix(1 0 0 .72727 0 2.7273)" gradientUnits="userSpaceOnUse">
   <stop id="stop2" stop-opacity=".23529" offset="0"/>
   <stop id="stop4" stop-opacity=".54902" offset="1"/>
  </radialGradient>
 </defs>
 <path id="path9" d="m3.5 0c-1.309 2.4046e-16 -2.5 1.191-2.5 2.5 4e-4 0.7403 0.43538 1.3714 1.002 1.8438v4.6562h-0.00195a1 1.0001 0 0 0-1 1v4a1.0001 1.0001 0 0 0 1 1h4a1.0001 1.0001 0 0 0 1-1v-4a1.0001 1.0001 0 0 0-0.14258-0.51172c0.37689-0.49493 0.69581-1.0134 1.1758-1.4531 1.7122-1.5684 3.9966-2.7033 5.5586-2.9434l-0.2539 0.00586c0.9788 0.09932 1.8242-0.885 1.7148-1.8027-0.0547-0.45886-0.311-0.90146-0.7148-1.166-0.3943-0.2583-0.9252-0.30719-1.3731-0.14453-2.3612 0.40695-4.9005 1.6921-6.998 3.6133-0.38629 0.35385-0.61947 0.8505-0.96875 1.248v-2.502c0.56657-0.47237 1.0016-1.1034 1.002-1.8438 0-1.309-1.191-2.5-2.5-2.5zm0 1a1.5 1.5 0 0 1 1.5 1.5 1.5 1.5 0 0 1-1.002 1.4141v5.8242c0.6488-1.2718 1.5799-2.4271 2.6445-3.4023 2.0129-1.8437 4.5033-3.0934 6.6543-3.4238a0.57251 0.61562 0 1 1 0.1426 1.1914c-1.856 0.2852-4.2309 1.4977-6.0821 3.1934-0.8814 0.8074-1.6296 1.7263-2.1797 2.7031h0.82227v4h-4v-4h1.002v-6.0859a1.5 1.5 0 0 1-1.002-1.4141 1.5 1.5 0 0 1 1.5-1.5z" fill="#fff" opacity=".05"/>
 <path id="base" d="m3.5 1a1.5 1.5 0 0 0 -1.5 1.5 1.5 1.5 0 0 0 1.002 1.4141v6.0859h-1.002v4h4v-4h-.8223c.5501-.9768 1.2983-1.8957 2.1797-2.7031 1.8512-1.6957 4.2256-2.9082 6.0816-3.1934a.57251 .61562 0 1 0 -.142 -1.1914c-2.151.3304-4.6415 1.5801-6.6544 3.4238-1.0646.9752-1.9958 2.1306-2.6446 3.4024v-5.8242a1.5 1.5 0 0 0 1.002 -1.4141 1.5 1.5 0 0 0 -1.5 -1.5z" fill="url(#gr0)"/>
 <path id="path15" d="m3.5 1a1.5 1.5 0 0 0-1.5 1.5 1.5 1.5 0 0 0 1.002 1.4141v6.0859h-1.002v4h4v-4h-0.82227c0.5501-0.9768 1.2983-1.8957 2.1797-2.7031 1.8512-1.6957 4.2261-2.9082 6.0821-3.1934a0.57251 0.61562 0 1 0-0.1426-1.1914c-2.151 0.3304-4.6414 1.5801-6.6543 3.4238-1.0646 0.9752-1.9957 2.1305-2.6445 3.4023v-5.8242a1.5 1.5 0 0 0 1.002-1.4141 1.5 1.5 0 0 0-1.5-1.5zm0 0.5c0.5236 0 1 0.4764 1 1-2.2e-4 0.41061-0.28065 0.80704-0.66797 0.94336a0.50005 0.50005 0 0 0-0.33203 0.41992 0.50005 0.50005 0 0 0-0.33203-0.41992c-0.38732-0.13632-0.66775-0.53275-0.66797-0.94336 0-0.5236 0.4764-1 1-1zm9.9785 1.877c0.0277-0.01082 0.0754 0.00539 0.086 0.09375 0.0105 0.08836-0.0529 0.13694-0.0743 0.13477a0.50005 0.50005 0 0 0-0.1269 0.00391c-2.003 0.30777-4.4231 1.559-6.3438 3.3184-0.91681 0.83984-1.6979 1.7973-2.2773 2.8262a0.50005 0.50005 0 0 0 0.43554 0.74609h0.32227v3h-3v-3h0.50195a0.50005 0.50005 0 0 0 0.5-0.5v-0.21094a0.50005 0.50005 0 0 0 0.94141 0.17578c0.6165-1.2085 1.5105-2.3193 2.5371-3.2598 1.9444-1.781 4.3713-2.9884 6.3925-3.2988a0.50005 0.50005 0 0 0 0.1055-0.0293z" opacity=".3"/>
 <path id="path20" d="m2.0879 3a1.5 1.5 0 0 0-0.08789 0.5 1.5 1.5 0 0 0 1.002 1.4141v-1a1.5 1.5 0 0 1-0.91406-0.91406zm2.8242 0.00195a1.5 1.5 0 0 1-0.91406 0.91211v1a1.5 1.5 0 0 0 1.002-1.4141 1.5 1.5 0 0 0-0.08789-0.49805zm8.9121 0.98828a0.57251 0.61562 0 0 1-0.3847 0.11329c-1.856 0.2852-4.2309 1.4977-6.0821 3.1934-0.8814 0.8074-1.6296 1.7263-2.1797 2.7031h0.65625c0.44235-0.60389 0.95089-1.1786 1.5234-1.7031 1.8512-1.6957 4.2261-2.9082 6.0821-3.1934a0.57251 0.61562 0 0 0 0.3847-1.1133zm-11.824 10.01v1h4v-1h-4z" fill="#fff" opacity=".2"/>
 <path id="path25" d="m3.5 1a1.5 1.5 0 0 0-1.5 1.5 1.5 1.5 0 0 0 0.08789 0.5 1.5 1.5 0 0 1 1.4121-1 1.5 1.5 0 0 1 1.4121 1.002 1.5 1.5 0 0 0 0.08789-0.50195 1.5 1.5 0 0 0-1.5-1.5zm10.014 1.875a0.57251 0.61562 0 0 0-0.2168 0.03711c-2.151 0.3304-4.6414 1.5801-6.6543 3.4238-1.0646 0.9752-1.9957 2.1305-2.6445 3.4023v1c0.6488-1.2718 1.5799-2.4272 2.6445-3.4024 2.0129-1.8437 4.5033-3.0934 6.6543-3.4238a0.57251 0.61562 0 0 1 0.5273 0.07812 0.57251 0.61562 0 0 0-0.3105-1.1152zm-11.514 7.125v1h1.002v-1h-1.002zm3.834 0c-0.23861 0.3258-0.46349 0.6577-0.65625 1h0.82227v-1h-0.16602z" opacity=".3"/>
</svg>
