<?xml version="1.0" encoding="UTF-8"?>
<svg id="svg30" width="16" height="16" version="1.1" xmlns="http://www.w3.org/2000/svg" xmlns:cc="http://creativecommons.org/ns#" xmlns:dc="http://purl.org/dc/elements/1.1/" xmlns:rdf="http://www.w3.org/1999/02/22-rdf-syntax-ns#">
 <metadata id="metadata34">
  <rdf:RDF>
   <cc:Work rdf:about="">
    <dc:format>image/svg+xml</dc:format>
    <dc:type rdf:resource="http://purl.org/dc/dcmitype/StillImage"/>
   </cc:Work>
  </rdf:RDF>
 </metadata>
 <defs id="defs7">
  <radialGradient id="gr0" cx="9" cy="10" r="11" gradientTransform="matrix(1 0 0 .72727 0 2.7273)" gradientUnits="userSpaceOnUse">
   <stop id="stop2" stop-opacity=".23529" offset="0"/>
   <stop id="stop4" stop-opacity=".54902" offset="1"/>
  </radialGradient>
 </defs>
 <path id="path9" d="m1.5234 0.019531c-0.74261-0.0049406-1.4335 0.62187-1.502 1.3613-0.068416 0.73946 0.49566 1.4838 1.2266 1.6152 5.1386 1.0086 7.0284 2.8032 7.5391 4.0508 0.21104 0.51539 0.22293 1.0032 0.125 1.4512l-0.20508-0.20508a1 1.0001 0 0 0-1.4141 0l-3 3a1.0001 1.0001 0 0 0 0 1.414l3 3a1.0001 1.0001 0 0 0 1.4141 0l1.8965-1.8965c2.0314-0.5549 3.458-1.6147 4.2481-2.7949 1.1325-1.6908 1.1328-3.4556 1.1328-3.4648 0.0084-0.78514-0.6977-1.547-1.5176-1.5352h-2e-3c-0.806 0.01214-1.4839 0.76521-1.4746 1.5371 1e-4 0.0119 0.0011 0.82919-0.6054 1.7344-0.1366 0.20366-0.6464 0.38929-0.9297 0.59961 0.4707-1.2116 0.6913-2.5548 0.1094-3.9766-1.065-2.6007-4.0839-4.7473-9.7481-5.8574-0.09317-0.019549-0.18803-0.031634-0.28321-0.033203a1.0001 1.0001 0 0 0-0.00976 0zm-0.00586 1a0.50005 0.50005 0 0 1 0.09961 0.01172c5.4971 1.0758 8.1376 3.0993 9.0215 5.2578 0.713 1.742 0.2224 3.4604-0.73245 4.6171l0.68555 0.6856c1.302-0.417 2.157-1.0529 2.623-1.748 0.775-1.164 0.7754-2.3027 0.7754-2.3027a0.49652 0.51886 0 0 1 0.4903-0.5254 0.49652 0.51886 0 0 1 0.5039 0.5254s-0.0049 1.4878-0.9629 2.918c-0.709 1.059-1.9577 2.0752-4.0137 2.5332l-2.0078 2.0078-3-3 3-3 1.1973 1.1973c0.6942-0.88903 1.0627-2.1932 0.51562-3.5293-0.6991-1.7079-2.9631-3.6144-8.2871-4.6562a0.50005 0.50005 0 0 1 0.0918-0.99219z" fill="#fff" opacity=".05"/>
 <path id="base" d="m1.5176 1.0195a.50005 .50005 0 0 0 -.0918 .9922c5.324 1.0419 7.588 2.9484 8.2871 4.6563.5471 1.3361.1786 2.64-.5156 3.529l-1.1973-1.197-3 3 3 3 2.008-2.008c2.056-.458 3.304-1.474 4.013-2.533.958-1.4302.963-2.918.963-2.918a.49652 .51886 0 0 0 -.504 -.5254 .49652 .51886 0 0 0 -.490 .5254s.005 1.1388-.775 2.3028c-.466.6952-1.321 1.3312-2.623 1.7482l-.6858-.686c.9548-1.1568 1.4458-2.8749.7328-4.6169-.8839-2.1585-3.5247-4.1821-9.0218-5.2579a.50005 .50005 0 0 0 -.0996 -.0117z" fill="url(#gr0)"/>
 <path id="path15" d="m1.5176 1.0195a0.50005 0.50005 0 0 0-0.0918 0.99219c5.324 1.0419 7.588 2.9484 8.2871 4.6562 0.54711 1.3361 0.17858 2.6403-0.51562 3.5293l-1.1973-1.1973-3 3 3 3 2.0078-2.0078c2.056-0.458 3.3047-1.4742 4.0137-2.5332 0.958-1.4302 0.9629-2.918 0.9629-2.918a0.49652 0.51886 0 0 0-0.5039-0.5254 0.49652 0.51886 0 0 0-0.4903 0.5254s-4e-4 1.1387-0.7754 2.3027c-0.466 0.69515-1.321 1.331-2.623 1.748l-0.68555-0.6856c0.95485-1.1568 1.4454-2.8751 0.73245-4.6171-0.88393-2.1585-3.5244-4.182-9.0215-5.2578a0.50005 0.50005 0 0 0-0.09961-0.01172zm12.969 6.4961a0.50005 0.50005 0 0 1 2e-3 0c-0.0027 5e-5 0.0011 0.00387 0 0.00391-0.0011-6e-5 9e-4 -0.00393-2e-3 -0.00391zm-6.4863 2.1914 0.84375 0.84377a0.50005 0.50005 0 0 0 0.69531 0.0097c-0.00674 0.0083-0.01078 0.0192-0.01758 0.0274a0.50005 0.50005 0 0 0 0.03125 0.6719l0.68557 0.6855a0.50005 0.50005 0 0 0 0.5058 0.1231c1.3809-0.4423 2.3396-1.1313 2.8848-1.9434-0.0131 0.0203-0.0099 0.0364-0.0234 0.0566-0.6404 0.9565-1.7623 1.8891-3.7071 2.3223a0.50005 0.50005 0 0 0-0.24414 0.1348l-1.6543 1.6543-2.293-2.293 2.293-2.293z" opacity=".3"/>
 <path id="path20" d="m1.4668 2.0215a0.50005 0.50005 0 0 0-0.04102 0.99024c5.324 1.0419 7.588 2.9484 8.2871 4.6562 0.11342 0.27699 0.17878 0.55145 0.21875 0.82226 0.08656-0.5745 0.03865-1.1936-0.21875-1.8223-0.69708-1.703-2.9532-3.6026-8.2441-4.6465-6.6e-4 -1.3e-4 -0.00129 1.4e-4 -0.00195 0zm13.43 6.2207c-0.0987 0.56673-0.3169 1.3836-0.875 2.2168-0.709 1.059-1.9577 2.0752-4.0137 2.5332l-2.0078 2.0078-2.5-2.5-0.5 0.5 3 3 2.0078-2.0078c2.056-0.458 3.3047-1.4742 4.0137-2.5332 0.958-1.4302 0.9629-2.918 0.9629-2.918a0.49652 0.51886 0 0 0-0.0879-0.29883zm-3.9551 0.23047c-0.105 0.92647-0.49 1.773-1.0352 2.4335l0.40825 0.4083c0.4846-0.8101 0.7502-1.7972 0.6269-2.8418z" fill="#fff" opacity=".2"/>
 <path id="path25" d="m1.5176 1.0195a0.50005 0.50005 0 0 0-0.0918 0.99219c0.01473 0.00288 0.02633 0.00687 0.04102 0.00976 6.6e-4 1.4e-4 0.00129-1.3e-4 0.00195 0a0.50005 0.50005 0 0 1 0.04883-0.00195 0.50005 0.50005 0 0 1 0.09961 0.01172c5.4971 1.0758 8.1376 3.0993 9.0215 5.2578 0.1631 0.39848 0.2567 0.79405 0.3027 1.1836 0.0789-0.69611 0.0032-1.4363-0.3027-2.1836-0.88393-2.1585-3.5244-4.182-9.0215-5.2578a0.50005 0.50005 0 0 0-0.09961-0.01172zm12.963 5.9961a0.49652 0.51886 0 0 0-0.4903 0.5254s-4e-4 1.1387-0.7754 2.3027c-0.466 0.69515-1.321 1.331-2.623 1.748l-0.2773-0.2773c-0.1247 0.2083-0.2576 0.4092-0.40825 0.5917l0.68555 0.6856c1.302-0.417 2.157-1.0529 2.623-1.748 0.775-1.164 0.7754-2.3028 0.7754-2.3028a0.49652 0.51886 0 0 1 0.4903-0.5254 0.49652 0.51886 0 0 1 0.416 0.22657c0.0707-0.40607 0.0879-0.70117 0.0879-0.70117a0.49652 0.51886 0 0 0-0.5039-0.5254zm-4.5489 1.4746c-0.09736 0.64659-0.36679 1.2363-0.73437 1.7071l-1.1973-1.1973-3 3 0.5 0.5 2.5-2.5 1.1973 1.1973c0.55028-0.7047 0.88723-1.6716 0.73437-2.7071z" opacity=".3"/>
</svg>
