<?xml version="1.0" encoding="UTF-8"?>
<svg id="svg30" width="16" height="16" version="1.1" xmlns="http://www.w3.org/2000/svg" xmlns:cc="http://creativecommons.org/ns#" xmlns:dc="http://purl.org/dc/elements/1.1/" xmlns:rdf="http://www.w3.org/1999/02/22-rdf-syntax-ns#">
 <metadata id="metadata34">
  <rdf:RDF>
   <cc:Work rdf:about="">
    <dc:format>image/svg+xml</dc:format>
    <dc:type rdf:resource="http://purl.org/dc/dcmitype/StillImage"/>
   </cc:Work>
  </rdf:RDF>
 </metadata>
 <defs id="defs7">
  <radialGradient id="gr0" cx="9" cy="10" r="11" gradientTransform="matrix(1 0 0 .63636 0 3.6364)" gradientUnits="userSpaceOnUse">
   <stop id="stop2" stop-opacity=".23529" offset="0"/>
   <stop id="stop4" stop-opacity=".54902" offset="1"/>
  </radialGradient>
 </defs>
 <path id="path9" d="m8 1c-3.8607 0-7 3.1393-7 7v1 6a1 1.0001 0 0 0 1 1h3a1.0001 1.0001 0 0 0 1-1v-0.8047-0.1953a1.0001 1.0001 0 0 0 1 1h1a1.0001 1.0001 0 0 0 1-1v-1a1.0001 1.0001 0 0 0-0.13477-0.5 1.0001 1.0001 0 0 0 0.13477-0.5v-1a1.0001 1.0001 0 0 0-0.13477-0.5 1.0001 1.0001 0 0 0 0.13477-0.5v-1h1a1.0001 1.0001 0 0 0 0.5-0.13477 1.0001 1.0001 0 0 0 0.5 0.13477h1a1.0001 1.0001 0 0 0 0.5-0.13477 1.0001 1.0001 0 0 0 0.5 0.13477h1a1.0001 1.0001 0 0 0 1-1v-1a1.0001 1.0001 0 0 0-1-1 1.0001 1.0001 0 0 0 1-1v-3a1.0001 1.0001 0 0 0-1-1h-6zm0 1h6v3h-0.8047-5.1953c-1.662 0-3 1.4406-3 3.2305v0.53906c0 0.0791 0.01648 0.15287 0.02148 0.23047h-0.02148v5.1953 0.8047h-3v-6-1c0-3.324 2.676-6 6-6zm0.02344 4h0.97656a1.0001 1.0001 0 0 0-0.5 0.13477 1.0001 1.0001 0 0 0-0.47656-0.13477zm2 0h0.9766a1.0001 1.0001 0 0 0-0.5 0.13477 1.0001 1.0001 0 0 0-0.4766-0.13477zm2 0h0.9766a1.0001 1.0001 0 0 0-0.5 0.13477 1.0001 1.0001 0 0 0-0.4766-0.13477zm-5.0234 1h1v1h-1v-1zm2 0h1v1h-1v-1zm2 0h1v1h-1v-1zm2 0h1v1h-1v-1zm-6.9824 1.1836a1.0001 1.0001 0 0 0 0.11719 0.31641 1.0001 1.0001 0 0 0-0.125 0.35742c-0.00385-0.03292-0.00977-0.11953-0.00977-0.08789v-0.53906c0-0.01895 0.01719-0.02808 0.01758-0.04688zm0.98242 0.81641h1v1h-1v-1zm-1 1a1.0001 1.0001 0 0 0 0.13477 0.5 1.0001 1.0001 0 0 0-0.13477 0.4766v-0.9766zm1 1h1v1h-1v-1zm-1 1a1.0001 1.0001 0 0 0 0.13477 0.5 1.0001 1.0001 0 0 0-0.13477 0.4766v-0.9766zm1 1h1v1h-1v-1z" fill="#fff" fill-rule="evenodd" opacity=".05"/>
 <path id="base" d="m8 2c-3.324 0-6 2.676-6 6v7h3v-6h0.0215c-0.0051-0.0776-0.0215-0.1514-0.0215-0.2305v-0.539c0-1.7899 1.338-3.2305 3-3.2305h6v-3h-6zm-1 5v1h1v-1h-1zm2 0v1h1v-1h-1zm2 0v1h1v-1h-1zm2 0v1h1v-1h-1zm-6 2v1h1v-1h-1zm0 2v1h1v-1h-1zm0 2v1h1v-1h-1z" fill="url(#gr0)" fill-rule="evenodd"/>
 <path id="path15" d="m8 2c-3.324 0-6 2.676-6 6v1 6h3v-0.8047-5.1953h0.02148c-5e-3 -0.0776-0.02148-0.15137-0.02148-0.23047v-0.53906c0-1.7899 1.338-3.2305 3-3.2305h5.1953 0.8047v-3h-6zm0 0.5h5.5v2h-0.3047-5.1953c-1.9509 0-3.5 1.6914-3.5 3.7305v0.53906c0 0.07029 0.00662 0.08203 0.01172 0.125a0.50005 0.50005 0 0 0-0.01172 0.10547v5.1953 0.3047h-2v-5.5-1c0-3.0556 2.4444-5.5 5.5-5.5zm-1 4.5v1h1v-1h-1zm2 0v1h1v-1h-1zm2 0v1h1v-1h-1zm2 0v1h1v-1h-1zm-6 2v1h1v-1h-1zm0 2v1h1v-1h-1zm0 2v1h1v-1h-1z" fill-rule="evenodd" opacity=".3"/>
 <path id="path20" d="m8 5c-1.662 0-3 1.4406-3 3.2305v0.53906c0 0.0791 0.01648 0.15287 0.02148 0.23047 0.11108-1.6793 1.3899-3 2.9785-3h5.1953 0.8047v-1h-0.8047-5.1953zm-2.9785 4h-0.02148v0.23047c0-0.07905 0.01635-0.15288 0.02148-0.23047zm1.9785-1v1h1v-1h-1zm2 0v1h1v-1h-1zm2 0v1h1v-1h-1zm2 0v1h1v-1h-1zm-8 1.7695v0.23047h0.02148c-5e-3 -0.0776-0.02148-0.15137-0.02148-0.23047zm2 0.23047v1h1v-1h-1zm0 2v1h1v-1h-1zm0 2v1h1v-1h-1zm-5 1v1h3v-0.8047-0.1953h-3z" fill="#fff" fill-rule="evenodd" opacity=".2"/>
 <path id="path25" d="m8 2c-3.324 0-6 2.676-6 6v1c0-3.324 2.676-6 6-6h6v-1h-6zm-1 5v1h1v-1h-1zm2 0v1h1v-1h-1zm2 0v1h1v-1h-1zm2 0v1h1v-1h-1zm-6 2v1h1v-1h-1zm0 2v1h1v-1h-1zm0 2v1h1v-1h-1z" fill-rule="evenodd" opacity=".3"/>
</svg>
