<?xml version="1.0" encoding="UTF-8"?>
<svg id="svg30" width="16" height="16" version="1.1" xmlns="http://www.w3.org/2000/svg" xmlns:cc="http://creativecommons.org/ns#" xmlns:dc="http://purl.org/dc/elements/1.1/" xmlns:rdf="http://www.w3.org/1999/02/22-rdf-syntax-ns#">
 <metadata id="metadata34">
  <rdf:RDF>
   <cc:Work rdf:about="">
    <dc:format>image/svg+xml</dc:format>
    <dc:type rdf:resource="http://purl.org/dc/dcmitype/StillImage"/>
   </cc:Work>
  </rdf:RDF>
 </metadata>
 <defs id="defs7">
  <radialGradient id="gr0" cx="9" cy="10" r="11" gradientTransform="matrix(1 0 0 .63636 0 3.6364)" gradientUnits="userSpaceOnUse">
   <stop id="stop2" stop-opacity=".23529" offset="0"/>
   <stop id="stop4" stop-opacity=".54902" offset="1"/>
  </radialGradient>
 </defs>
 <path id="path9" d="m2 1a1 1.0001 0 0 0-1 1v13a1.0001 1.0001 0 0 0 1 1h3a1.0001 1.0001 0 0 0 1-1v-1a1.0001 1.0001 0 0 0 1 1h1a1.0001 1.0001 0 0 0 1-1v-1a1.0001 1.0001 0 0 0-0.13477-0.5 1.0001 1.0001 0 0 0 0.13477-0.5v-1a1.0001 1.0001 0 0 0-0.13477-0.5 1.0001 1.0001 0 0 0 0.13477-0.5v-1h1a1.0001 1.0001 0 0 0 0.5-0.13477 1.0001 1.0001 0 0 0 0.5 0.13477h1a1.0001 1.0001 0 0 0 0.5-0.13477 1.0001 1.0001 0 0 0 0.5 0.13477h1a1.0001 1.0001 0 0 0 1-1v-1a1.0001 1.0001 0 0 0-1-1 1.0001 1.0001 0 0 0 1-1v-3a1.0001 1.0001 0 0 0-1-1h-12zm0 1h12v3h-9v10h-3v-13zm4 4h1a1.0001 1.0001 0 0 0-1 1v-1zm2.0234 0h0.97656a1.0001 1.0001 0 0 0-0.5 0.13477 1.0001 1.0001 0 0 0-0.47656-0.13477zm2 0h0.9766a1.0001 1.0001 0 0 0-0.5 0.13477 1.0001 1.0001 0 0 0-0.4766-0.13477zm2 0h0.9766a1.0001 1.0001 0 0 0-0.5 0.13477 1.0001 1.0001 0 0 0-0.4766-0.13477zm-5.0234 1h1v1h-1v-1zm2 0h1v1h-1v-1zm2 0h1v1h-1v-1zm2 0h1v1h-1v-1zm-7 1a1.0001 1.0001 0 0 0 0.13477 0.5 1.0001 1.0001 0 0 0-0.13477 0.47656v-0.97656zm1 1h1v1h-1v-1zm-1 1a1.0001 1.0001 0 0 0 0.13477 0.5 1.0001 1.0001 0 0 0-0.13477 0.4766v-0.9766zm1 1h1v1h-1v-1zm-1 1a1.0001 1.0001 0 0 0 0.13477 0.5 1.0001 1.0001 0 0 0-0.13477 0.4766v-0.9766zm1 1h1v1h-1v-1z" fill="#fff" opacity=".05"/>
 <path id="base" d="m2 2v13h3v-10h9v-3zm5 5v1h1v-1zm2 0v1h1v-1zm2 0v1h1v-1zm2 0v1h1v-1zm-6 2v1h1v-1zm0 2v1h1v-1zm0 2v1h1v-1z" fill="url(#gr0)"/>
 <path id="path15" d="m2 2v13h3v-10h9v-3h-12zm0.5 0.5h11v2h-8.5a0.50005 0.50005 0 0 0-0.5 0.5v9.5h-2v-12zm4.5 4.5v1h1v-1h-1zm2 0v1h1v-1h-1zm2 0v1h1v-1h-1zm2 0v1h1v-1h-1zm-6 2v1h1v-1h-1zm0 2v1h1v-1h-1zm0 2v1h1v-1h-1z" opacity=".3"/>
 <path id="path20" d="m5 5v1h9v-1h-9zm2 3v1h1v-1h-1zm2 0v1h1v-1h-1zm2 0v1h1v-1h-1zm2 0v1h1v-1h-1zm-6 2v1h1v-1h-1zm0 2v1h1v-1h-1zm0 2v1h1v-1h-1zm-5 1v1h3v-1h-3z" fill="#fff" opacity=".2"/>
 <path id="path25" d="m2 2v1h12v-1h-12zm5 5v1h1v-1h-1zm2 0v1h1v-1h-1zm2 0v1h1v-1h-1zm2 0v1h1v-1h-1zm-6 2v1h1v-1h-1zm0 2v1h1v-1h-1zm0 2v1h1v-1h-1z" opacity=".3"/>
</svg>
