<?xml version="1.0" encoding="UTF-8"?>
<svg id="svg30" width="16" height="16" version="1.1" xmlns="http://www.w3.org/2000/svg" xmlns:cc="http://creativecommons.org/ns#" xmlns:dc="http://purl.org/dc/elements/1.1/" xmlns:rdf="http://www.w3.org/1999/02/22-rdf-syntax-ns#">
 <metadata id="metadata34">
  <rdf:RDF>
   <cc:Work rdf:about="">
    <dc:format>image/svg+xml</dc:format>
    <dc:type rdf:resource="http://purl.org/dc/dcmitype/StillImage"/>
   </cc:Work>
  </rdf:RDF>
 </metadata>
 <defs id="defs7">
  <radialGradient id="gr0" cx="9" cy="10" r="11" gradientTransform="matrix(1 0 0 .72727 0 2.7273)" gradientUnits="userSpaceOnUse">
   <stop id="stop2" stop-opacity=".23529" offset="0"/>
   <stop id="stop4" stop-opacity=".54902" offset="1"/>
  </radialGradient>
 </defs>
 <path id="path9" d="m8 0c-4.4024 0-8 3.5976-8 8 0 4.4024 3.5976 8 8 8 4.4024 0 8-3.5976 8-8 0-4.4024-3.5976-8-8-8zm0 1c3.8601 0 7 3.1399 7 7s-3.1399 7-7 7-7-3.1399-7-7 3.1399-7 7-7zm0 1c-3.3196 0-6 2.6804-6 6s2.6804 6 6 6 6-2.6804 6-6-2.6804-6-6-6zm0.17578 1.0156 0.78125 0.07813 0.09766 0.01953 0.20508 0.06445-0.29688 0.95508-0.15234-0.04687-0.73633-0.07617 0.10156-0.99415zm-1.0957 0.07422 0.06836 0.67383 0.09375 0.30469-0.80274 0.25-0.02148 0.01172-0.00195-0.00391-0.01954 0.00586-0.02929-0.09765-0.42578-0.78321 0.06836-0.03711 0.08984-0.03711 0.8457-0.26367 0.09766-0.01953 0.03711-0.00391zm3.1992 0.48243 0.4746 0.25585 0.0801 0.05469 0.3555 0.29297-0.6368 0.77149-0.3222-0.26563-0.42777-0.23047 0.47657-0.8789zm-5.2754 0.44335 0.63671 0.77149-0.46679 0.38672-0.18945 0.22851-0.77149-0.63672 0.21875-0.26562 0.06836-0.06836 0.50391-0.41602zm0.60156 0.92383a1 1.0001 0 0 0 0.86914 0.38867 1.0001 1.0001 0 0 0 0.00781 0 1.0001 1.0001 0 0 0 0-0.00195 1.0001 1.0001 0 0 0 0.03516-0.00195 1.0001 1.0001 0 0 0 0.0918-0.01367 1.0001 1.0001 0 0 0 0.00585-0.00196 1.0001 1.0001 0 0 0 0.00782-0.00195 1.0001 1.0001 0 0 0 0.26172-0.09375l-0.05274 0.03125 0.70703-0.2207a1.0001 1.0001 0 0 0 0.1836-0.07813 1.0001 1.0001 0 0 0 0.24804 0.0586l0.63868 0.0664 0.05859 0.01758a1.0001 1.0001 0 0 0 0.39844 0.03906 1.0001 1.0001 0 0 0 0.26171 0.20508l0.3418 0.18359 0.2461 0.20313a1.0001 1.0001 0 0 0 0.30468 0.17187 1.0001 1.0001 0 0 0 0.1816 0.33985l0.0821 0.09961 0.2793 0.51367a1.0001 1.0001 0 0 0 0.1504 0.20703 1.0001 1.0001 0 0 0 0.0019 0.19141l0.0762 0.75976-0.0156 0.15235a1.0001 1.0001 0 0 0 0.039 0.37695 1.0001 1.0001 0 0 0-0.1543 0.30078l-0.1054 0.33985-0.168 0.30664a1.0001 1.0001 0 0 0-0.1074 0.32226 1.0001 1.0001 0 0 0-0.3203 0.26372 1.0001 1.0001 0 0 0-0.0079 0.0097l-0.0371 0.0449-0.48239 0.3965a1.0001 1.0001 0 0 0-0.2539 1.2227l0.1875-0.0586 0.29687 0.9551-0.80859 0.2519-0.09766 0.0195-0.15234 0.0157-0.09961-0.9961 0.10742-0.0117 0.38477-0.1192 0.07226-1.0703-0.66211 0.2051-0.01172 0.0019a1.0001 1.0001 0 0 0-0.39062 0.1289 1.0001 1.0001 0 0 0-0.29102-0.0761l-0.52734-0.0547-0.16797-0.0527a1.0001 1.0001 0 0 0-0.36914-0.0391 1.0001 1.0001 0 0 0-0.2793-0.2246l-0.24023-0.1289-0.33594-0.2774a1.0001 1.0001 0 0 0-0.2832-0.1621 1.0001 1.0001 0 0 0-0.18555-0.36131l-0.00977-0.01171-0.33398-0.61719a1.0001 1.0001 0 0 0-0.11133-0.16407 1.0001 1.0001 0 0 0 0-0.00195 1.0001 1.0001 0 0 0 0.00391-0.22656l-0.06641-0.66992 0.00391-0.03516a1.0001 1.0001 0 0 0-0.04492-0.39844 1.0001 1.0001 0 0 0 0.13867-0.28125l0.13867-0.44726 0.11133-0.20313a1.0001 1.0001 0 0 0 0.11328-0.34961 1.0001 1.0001 0 0 0 0.28516-0.23632l0.13086-0.15625 0.39453-0.32813a1.0001 1.0001 0 0 0 0.18359-0.20117l-0.56445 0.16992-0.29297-0.58594zm6.3418 0.01953 0.1699 0.20704 0.0547 0.08007 0.3496 0.64258-0.8789 0.47852-0.3242-0.59766-0.1426-0.17383 0.7715-0.63672zm-8.3477 0.71094 0.87891 0.47656-0.16016 0.29297-0.16797 0.54297-0.95508-0.29687 0.18164-0.58594 0.03711-0.08984 0.18555-0.33985zm9.2754 1.2559 0.0098 0.01953 0.0214 0.09766 0.0918 0.90625v0.10156l-0.0312 0.29883-0.9941-0.10156 0.0234-0.24805-0.0859-0.85742 0.3867-0.03711 0.5781-0.17969zm-9.8535 0.8418 0.99414 0.09961-0.01171 0.13086 0.07617 0.76367-0.9961 0.10156-0.08203-0.8125v-0.10156l0.01953-0.18164zm8.7949 1.3613 0.9551 0.29687-0.1485 0.47461-0.0371 0.08984-0.2402 0.44337-0.8789-0.47657 0.2148-0.39453 0.1348-0.43359zm-7.5137 0.40234 0.37891 0.69925 0.06836 0.084-0.77148 0.6367-0.09571-0.1172-0.05469-0.0801-0.40429-0.7461 0.8789-0.47655zm6.6387 1.1562 0.7715 0.6367-0.1445 0.1758-0.0684 0.0684-0.5938 0.4902-0.6367-0.7715 0.5567-0.459 0.1152-0.1406zm-5.584 0.291 0.41211 0.3399 0.32617 0.1757-0.47851 0.8789-0.3711-0.2011-0.08007-0.0547-0.44532-0.3672 0.63672-0.7715zm1.5684 0.8555 0.26172 0.0801 0.62305 0.0644-0.10157 0.9942-0.66601-0.0665-0.09766-0.0195-0.3164-0.0976 0.29687-0.9551z" fill="#fff" opacity=".05"/>
 <path id="base" d="m8 1c-3.8601 0-7 3.1399-7 7s3.1399 7 7 7 7-3.1399 7-7-3.1399-7-7-7zm0 1c3.3196 0 6 2.6804 6 6s-2.6804 6-6 6-6-2.6804-6-6 2.6804-6 6-6zm0.17578 1.0156-0.10156 0.99414 0.73633 0.076172 0.15234 0.046875 0.29688-0.95508-0.20508-0.064453-0.097656-0.019531-0.78125-0.078125zm-1.0957 0.074219-0.037109 0.0039062-0.097656 0.019531-0.8457 0.26367-0.089844 0.037109-0.068359 0.037109 0.42578 0.7832 0.029297 0.097656 0.019531-0.0058593 0.0019532 0.0039062 0.021484-0.011719 0.80273-0.25-0.09375-0.30469-0.068359-0.67383zm3.1992 0.48242-0.47656 0.87891 0.42773 0.23047 0.32226 0.26562 0.63672-0.77148-0.35547-0.29297-0.080078-0.054688-0.47461-0.25586zm-5.2754 0.44336-0.50391 0.41602-0.068359 0.068359-0.21875 0.26562 0.77148 0.63672 0.18945-0.22852 0.4668-0.38672-0.63672-0.77148zm6.9434 0.94336-0.77148 0.63672 0.14258 0.17383 0.32422 0.59766 0.87891-0.47852-0.34961-0.64258-0.054687-0.080078-0.16992-0.20703zm-8.3477 0.71094-0.18555 0.33984-0.037109 0.089844-0.18164 0.58594 0.95508 0.29688 0.16797-0.54297 0.16016-0.29297-0.87891-0.47656zm9.2793 1.2539-0.58203 0.18164-0.38672 0.037109 0.085938 0.85742-0.023438 0.24805 0.99414 0.10156 0.03125-0.29883v-0.10156l-0.091797-0.90625-0.019531-0.097656-0.007813-0.021484zm-9.8574 0.84375-0.019531 0.18164v0.10156l0.082031 0.8125 0.99609-0.10156-0.076172-0.76367 0.011719-0.13086-0.99414-0.099609zm8.7949 1.3613-0.13476 0.43359-0.21484 0.39453 0.87891 0.47656 0.24024-0.44336 0.037109-0.089844 0.14844-0.47461-0.95508-0.29688zm-7.5137 0.40234-0.87891 0.47656 0.4043 0.74609 0.054688 0.080078 0.095703 0.11719 0.77148-0.63672-0.068359-0.083984-0.37891-0.69922zm6.6387 1.1562-0.11523 0.14062-0.55664 0.45898 0.63672 0.77148 0.59375-0.49024 0.068359-0.068359 0.14453-0.17578-0.77148-0.63672zm-5.584 0.29102-0.63672 0.77148 0.44531 0.36719 0.080078 0.054687 0.37109 0.20117 0.47852-0.87891-0.32617-0.17578-0.41211-0.33984zm4.209 0.70117-0.75391 0.23437-0.10742 0.011719 0.099609 0.99609 0.15234-0.015625 0.097656-0.019531 0.80859-0.25195-0.29688-0.95508zm-2.6406 0.1543-0.29688 0.95508 0.31641 0.097657 0.097656 0.019531 0.66602 0.066406 0.10156-0.99414-0.62305-0.064454-0.26172-0.080078z" fill="url(#gr0)"/>
 <path id="path15" d="m8 1c-3.8601 0-7 3.1399-7 7s3.1399 7 7 7 7-3.1399 7-7-3.1399-7-7-7zm0 1c3.3196 0 6 2.6804 6 6s-2.6804 6-6 6-6-2.6804-6-6 2.6804-6 6-6zm0.17578 1.0156-0.10156 0.99415 0.73633 0.07617 0.15234 0.04687 0.29688-0.95508-0.20508-0.06445-0.09766-0.01953-0.78125-0.07813zm-1.0957 0.07422-0.03711 0.00391-0.09766 0.01953-0.8457 0.26367-0.08984 0.03711-0.06836 0.03711 0.42578 0.78321 0.02929 0.09765 0.01954-0.00586 0.00195 0.00391 0.02148-0.01172 0.80274-0.25-0.09375-0.30469-0.06836-0.67383zm1.543 0.47266 0.25976 0.02539 0.02149 0.00586a0.50005 0.50005 0 0 0-0.04297-0.00586l-0.23828-0.02344v-0.00195zm1.6562 0.00977-0.47657 0.8789 0.42777 0.23047 0.3222 0.26563 0.6368-0.77149-0.3555-0.29297-0.0801-0.05469-0.4746-0.25585zm-3.5469 0.13671 0.10156 0.34375a0.50005 0.50005 0 0 0-0.0039-0.00585 0.50005 0.50005 0 0 0-0.02344-0.05079l-0.14453-0.26562 0.07031-0.02149zm-0.08984 0.02735 0.00781 0.07812a0.50005 0.50005 0 0 0 0.01367 0.07617l-0.04492-0.14648 0.02344-0.00781zm-1.6387 0.27929-0.50391 0.41602-0.06836 0.06836-0.21875 0.26562 0.77149 0.63672 0.18945-0.22851 0.46679-0.38672-0.63671-0.77149zm5.4766 0.23243 0.0136 0.00781 0.0157 0.01172a0.50005 0.50005 0 0 0-0.0293-0.01758v-0.00195zm-5.543 0.4707v0.00195l-0.08203 0.06836a0.50005 0.50005 0 0 0-0.0332 0.0293 0.50005 0.50005 0 0 0-0.03321 0.03711l0.02735-0.0332 0.00586-0.00391 0.01367-0.01563 0.10156-0.08398zm7.0098 0.24023-0.7715 0.63672 0.1426 0.17383 0.3242 0.59766 0.8789-0.47852-0.3496-0.64258-0.0547-0.08007-0.1699-0.20704zm-8.3477 0.71094-0.18555 0.33985-0.03711 0.08984-0.18164 0.58594 0.95508 0.29687 0.16797-0.54297 0.16016-0.29297-0.87891-0.47656zm9.2754 1.2559-0.5781 0.17969-0.3867 0.03711 0.0859 0.85742-0.0234 0.24805 0.9941 0.10156 0.0312-0.29883v-0.10156l-0.0918-0.90625-0.0214-0.09766-0.0098-0.01953zm-0.418 0.65234h2e-3l0.039 0.39649v0.03125l-0.0039 0.04102a0.50005 0.50005 0 0 0 0-0.09766l-0.0371-0.3711zm-9.4355 0.18946-0.01953 0.18164v0.10156l0.08203 0.8125 0.9961-0.10156-0.07617-0.76367 0.01171-0.13086-0.99414-0.09961zm0.48438 0.18554a0.50005 0.50005 0 0 0 0 0.09376l0.02734 0.26757h-0.00195l-0.0293-0.28906v-0.0293l0.00391-0.04297zm8.3105 1.1758-0.1348 0.43359-0.2148 0.39453 0.8789 0.47657 0.2402-0.44337 0.0371-0.08984 0.1485-0.47461-0.9551-0.29687zm-7.5137 0.40234-0.8789 0.47655 0.40429 0.7461 0.05469 0.0801 0.09571 0.1172 0.77148-0.6367-0.06836-0.084-0.37891-0.69925zm6.6387 1.1562-0.1152 0.1406-0.5567 0.459 0.6367 0.7715 0.5938-0.4902 0.0684-0.0684 0.1445-0.1758-0.7715-0.6367zm-5.584 0.291-0.63672 0.7715 0.44532 0.3672 0.08007 0.0547 0.3711 0.2011 0.47851-0.8789-0.32617-0.1757-0.41211-0.3399zm4.209 0.7012-0.75391 0.2344-0.10742 0.0117 0.09961 0.9961 0.15234-0.0157 0.09766-0.0195 0.80859-0.2519-0.29687-0.9551zm-2.6406 0.1543-0.29687 0.9551 0.3164 0.0976 0.09766 0.0195 0.66601 0.0665 0.10157-0.9942-0.62305-0.0644-0.26172-0.0801zm2.3125 0.4707v0.0019l-0.30664 0.0957-0.00976 2e-3h-0.00977a0.50005 0.50005 0 0 0 0.04883-0.0137l0.27734-0.0859z" opacity=".3"/>
 <path id="path20" d="m8 2c-0.21024 0-0.41846 0.01222-0.62305 0.0332-3.0259 0.31034-5.377 2.8574-5.377 5.9668 0 0.16861 0.01183 0.33495 0.02539 0.5 0.25347-3.0844 2.8236-5.5 5.9746-5.5 3.151 0 5.7211 2.4156 5.9746 5.5 0.0136-0.16505 0.0254-0.33139 0.0254-0.5 0-3.1094-2.3511-5.6565-5.377-5.9668-0.20563-0.01824-0.41276-0.0332-0.62305-0.0332zm0.17578 2.0195-0.10156 0.99024 0.73633 0.07617 0.15234 0.04687 0.29688-0.95508-0.20508-0.06445-0.08008-0.01562-0.01172 0.03515-0.15234-0.04687-0.63477-0.06641zm-1.0938 0.09766-0.64258 0.20117-0.02148 0.01172-0.00195-0.00391-0.01954 0.00586-0.01367-0.04297-0.2832 0.08789-0.08984 0.03711-0.06836 0.03711 0.42578 0.78321 0.02929 0.09765 0.01954-0.00586 0.00195 0.00391 0.02148-0.01172 0.80274-0.25-0.09375-0.30469-0.06641-0.64648zm3.1407 0.56054-0.41997 0.77344 0.42777 0.23047 0.3222 0.26563 0.6368-0.77149-0.3555-0.29297-0.0801-0.05469-0.0703-0.03906-0.1309 0.15821-0.3222-0.26563-0.0078-0.00391zm-5.0684 0.51954-0.16992 0.20507-0.22461-0.18554-0.25977 0.21484-0.06836 0.06836-0.21875 0.26562 0.77149 0.63672 0.18945-0.22851 0.46679-0.38672-0.48632-0.58984zm6.9297 0.92968-0.4414 0.24024-0.0586-0.10742-0.4082 0.33593 0.1426 0.17383 0.3242 0.59766 0.2754-0.15039-0.0078-0.07422 0.1757-0.01758 0.4356-0.23633-0.3496-0.64258-0.0547-0.08007-0.0332-0.03907zm-8.5508 0.66407-0.11914 0.21875-0.03711 0.08984-0.18164 0.58594 0.47266 0.14648 0.34765 0.03516-0.00585 0.07226 0.14062 0.04297 0.16797-0.54297 0.16016-0.29297-0.32422-0.17578-0.00391 0.01172-0.61719-0.1914zm8.4492 1.3438-0.0722 0.00781 0.0859 0.85742-0.0176 0.17969 0.332 0.10351 0.6563 0.06641 0.0312-0.29883v-0.10156l-0.0605-0.60352-0.9648-0.09765 0.0097-0.11328zm-10.957 0.36523c-0.0118 0.16578-0.02539 0.33126-0.02539 0.5 0 3.8601 3.1399 7 7 7s7-3.1399 7-7c0-0.16874-0.0136-0.33422-0.0254-0.5-0.2434 3.4201-2.9477 6.1648-6.3516 6.4668-0.20563 0.0182-0.41276 0.0332-0.62305 0.0332-0.20763 0-0.41215-0.0135-0.61523-0.0312-0.00269-3e-4 -0.00513-0.0017-0.00782-2e-3 -3.4038-0.302-6.1082-3.0467-6.3516-6.4668zm1.9961 0.26758-0.01953 0.18164v0.10156l0.08203 0.8125 0.7461-0.07617 0.24023-0.12891-0.0664-0.66015 0.01171-0.13086-0.48828-0.04883-0.44336 0.04492-0.00976-0.08984-0.05274-0.00586zm8.791 1.3769-0.1309 0.418-0.2148 0.3945 0.8789 0.4766 0.2402-0.4434 0.0371-0.0898 0.1485-0.4746-0.3613-0.1113-0.0645 0.1191-0.5332-0.2891zm-7.4531 0.4922-0.38086 0.3145-0.09571-0.1172-0.03711-0.0547-0.42187 0.2285 0.40429 0.7461 0.05469 0.0801 0.09571 0.1172 0.77148-0.6367-0.06836-0.084-0.32226-0.5938zm6.789 1.2227-0.2422 0.1992-0.1464-0.1758-0.4903 0.4043 0.6367 0.7715 0.5938-0.4902 0.0684-0.0684 0.1445-0.1758-0.5645-0.4648zm-5.9336 0.291-0.49414 0.5996 0.44532 0.3672 0.08007 0.0547 0.3711 0.2011 0.47851-0.8789-0.32617-0.1757-0.08398-0.0704-0.06836 0.125-0.3711-0.2011-0.03125-0.0215zm4.3652 0.5723-0.52539 0.164-0.09766 0.0195-0.15234 0.0157v-0.0078l-0.09961 0.0117 0.09961 0.9961 0.15234-0.0157 0.09766-0.0195 0.80859-0.2519-0.2832-0.9121zm-2.668 0.1543-0.2832 0.9121 0.3164 0.0976 0.09766 0.0195 0.66601 0.0665 0.10157-0.9942-0.10157-0.0097v0.0039l-0.66601-0.0665-0.09766-0.0195-0.0332-0.0097z" fill="#fff" opacity=".2"/>
 <path id="path25" d="m8 1c-3.8601 0-7 3.1399-7 7 0 0.16874 0.01359 0.33422 0.02539 0.5 0.24339-3.4201 2.9477-6.1648 6.3516-6.4668 0.20459-0.02098 0.41281-0.0332 0.62305-0.0332 0.21029 0 0.41742 0.01496 0.62305 0.0332 3.4038 0.30205 6.1082 3.0467 6.3516 6.4668 0.0118-0.16578 0.0254-0.33126 0.0254-0.5 0-3.8601-3.1399-7-7-7zm0.17578 2.0156-0.10156 0.99415 0.10156 0.00976v-0.00391l0.78125 0.07813 0.01758 0.00391 0.28516-0.91993-0.20508-0.06445-0.09766-0.01953-0.78125-0.07813zm-1.0957 0.07422-0.03711 0.00391-0.09766 0.01953-0.8457 0.26367-0.08984 0.03711-0.06836 0.03711 0.42578 0.78321 0.01562 0.05468 0.5625-0.17578 0.09766-0.01953 0.03711-0.00391 0.00195 0.02735 0.16016-0.04883-0.09375-0.30469-0.06836-0.67383zm3.1992 0.48243-0.47657 0.8789 0.41997 0.22656 0.0566-0.10546 0.4043 0.21679 0.5059-0.61328-0.3555-0.29297-0.0801-0.05469-0.4746-0.25585zm-5.2754 0.44335-0.50391 0.41602-0.06836 0.06836-0.21875 0.26562 0.54688 0.45118 0.24414-0.20118 0.15039 0.18165 0.01953-0.02344 0.46679-0.38672-0.63671-0.77149zm6.9434 0.94336-0.7715 0.63672 0.1426 0.17383 0.2656 0.49024 0.3633-0.30079 0.1367 0.16797 0.4375-0.23828-0.3496-0.64258-0.0547-0.08007-0.1699-0.20704zm-8.3477 0.71094-0.18555 0.33985-0.03711 0.08984-0.18164 0.58594 0.33789 0.10547 0.06641-0.1211 0.55469 0.30078 0.16406-0.53125 0.16016-0.29297-0.87891-0.47656zm9.2754 1.2559-0.5781 0.17969-0.211 0.01953-0.1679 0.0918 0.0781 0.7832-0.0137 0.13477 0.3145-0.0293 0.5781-0.17969 0.0098 0.01953 0.0214 0.09766 0.0313 0.30273 0.0293 0.00391 0.0312-0.29883v-0.10156l-0.0918-0.90625-0.0214-0.09766-0.0098-0.01953zm-9.8535 0.8418-0.01953 0.18164v0.10156l0.07227 0.72266 0.45312 0.04492 0.55274-0.05664-0.07617-0.76367 0.00586-0.0586-0.3418-0.10742-0.64649-0.06445zm-0.99609 0.73242c-0.01356 0.16505-0.02539 0.33139-0.02539 0.5 0 3.1094 2.3511 5.6565 5.377 5.9668 0.20459 0.021 0.41281 0.0332 0.62305 0.0332 0.20748 0 0.41325-0.0108 0.61523-0.0312 0.00261-3e-4 0.00521-0.0018 0.00782-2e-3 3.0258-0.3103 5.377-2.8574 5.377-5.9668 0-0.16861-0.0118-0.33495-0.0254-0.5-0.2535 3.0844-2.8236 5.5-5.9746 5.5-3.151 0-5.7211-2.4156-5.9746-5.5zm9.791 0.62891-0.1348 0.43359-0.2148 0.39453 0.3457 0.18747 0.0039-0.0156 0.5938 0.1856 0.1757-0.32427 0.0371-0.08984 0.1485-0.47461-0.461-0.14258-0.3378-0.03515 0.0058-0.06836-0.1621-0.05078zm-7.5137 0.40234-0.23242 0.12695 0.00977 0.10352-0.25 0.02539-0.40625 0.22069 0.40429 0.7461 0.01758 0.0254 0.45703-0.2481 0.05665 0.1055 0.39062-0.3222-0.06836-0.084-0.37891-0.69925zm6.6387 1.1562-0.1152 0.1406-0.5567 0.459 0.4903 0.5957 0.0664-0.0547 0.1152-0.1406 0.207 0.1719 0.3516-0.291 0.0684-0.0684 0.1445-0.1758-0.7715-0.6367zm-5.584 0.291-0.63672 0.7715 0.44532 0.3672 0.04882 0.0332 0.14258-0.1719 0.32813 0.2695 0.41015-0.7539-0.32617-0.1757-0.41211-0.3399zm4.209 0.7012-0.75391 0.2344-0.10742 0.0117 0.09961 0.9883h0.00781l0.75391-0.2344 0.01367 0.043 0.2832-0.0879-0.29687-0.9551zm-2.6406 0.1543-0.29687 0.9551 0.2832 0.0879 0.01367-0.043 0.26172 0.0801 0.52148 0.0547 0.10157-0.9903-0.62305-0.0644-0.26172-0.0801z" opacity=".3"/>
</svg>
