<?xml version="1.0" encoding="UTF-8"?>
<svg id="svg30" width="16" height="16" version="1.1" xmlns="http://www.w3.org/2000/svg" xmlns:cc="http://creativecommons.org/ns#" xmlns:dc="http://purl.org/dc/elements/1.1/" xmlns:rdf="http://www.w3.org/1999/02/22-rdf-syntax-ns#">
 <metadata id="metadata34">
  <rdf:RDF>
   <cc:Work rdf:about="">
    <dc:format>image/svg+xml</dc:format>
    <dc:type rdf:resource="http://purl.org/dc/dcmitype/StillImage"/>
   </cc:Work>
  </rdf:RDF>
 </metadata>
 <defs id="defs7">
  <radialGradient id="gr0" cx="9" cy="10" r="11" gradientTransform="matrix(1 0 0 .72727 0 2.7273)" gradientUnits="userSpaceOnUse">
   <stop id="stop2" stop-opacity=".23529" offset="0"/>
   <stop id="stop4" stop-opacity=".54902" offset="1"/>
  </radialGradient>
 </defs>
 <path id="path9" d="m8 0c-0.51133 0-1.0022 0.054999-1.4707 0.14258a1 1.0001 0 0 0-0.77735 0.70508 1.0001 1.0001 0 0 0-1.041-0.13281c-0.53911 0.24426-1.0432 0.54671-1.5059 0.89454a1.0001 1.0001 0 0 0-0.39649 0.8457 1.0001 1.0001 0 0 0-0.87109 0.35351l-0.00977 0.01172a1.0001 1.0001 0 0 0-0.13281 0.20899c-0.26627 0.33376-0.50562 0.6826-0.71289 1.0488a1.0001 1.0001 0 0 0-0.10156 0.14063l-0.00586 0.00977a1.0001 1.0001 0 0 0-0.017578 0.03515 1.0001 1.0001 0 0 0-0.015625 0.93164 1.0001 1.0001 0 0 0-0.64648 0.68164c-0.15739 0.57028-0.25065 1.1643-0.27734 1.7715a1.0001 1.0001 0 0 0 0.41016 0.84961 1.0001 1.0001 0 0 0-0.29688 0.89843c0.11286 0.63662 0.29858 1.2539 0.55664 1.8359a1.0001 1.0001 0 0 0 0.74805 0.5801 1.0001 1.0001 0 0 0 0.13476 0.9316c0.3468 0.4689 0.74393 0.9006 1.1856 1.2852a1.0001 1.0001 0 0 0 0.91406 0.2129 1.0001 1.0001 0 0 0 0.51563 0.789c0.51465 0.2803 1.0612 0.4974 1.625 0.6583a1.0001 1.0001 0 0 0 0.92383-0.2032 1.0001 1.0001 0 0 0 0.80273 0.4903c0.10596 0.0061 0.25924 0.0234 0.46289 0.0234 0.45316 0 0.88127-0.0476 1.2852-0.1133a1.0001 1.0001 0 0 0 0.74804-0.5683 1.0001 1.0001 0 0 0 0.9395 0.1035c0.595-0.2391 1.1506-0.547 1.6621-0.9121a1.0001 1.0001 0 0 0 0.4179-0.8418 1.0001 1.0001 0 0 0 0.8828-0.3203c0.3421-0.3794 0.6053-0.7932 0.8536-1.2071a1.0001 1.0001 0 0 0 0.1797-0.2402l0.0468-0.0879a1.0001 1.0001 0 0 0 0.0801-0.7363 1.0001 1.0001 0 0 0-0.0234-0.0742v-2e-3c-0.0034-0.0093-0.0126-0.0241-0.0196-0.0391 0.0035 0.0074 0.0116 0.016 0.0137 0.0215a1.0001 1.0001 0 0 0-0.0098-0.0234 1.0001 1.0001 0 0 0 0.5899-0.6367c0.1755-0.57629 0.2811-1.1749 0.3223-1.7852a1.0001 1.0001 0 0 0-0.6954-1.0195c0.1036 0.03411 0.0283 0.01027-0.0234-0.00586a1.0001 1.0001 0 0 0-0.1895-0.03906l0.0704-0.02149a1.0001 1.0001 0 0 0 0.6796-1.1699c-0.1113-0.5062-0.3001-0.94844-0.4902-1.3789a1.0001 1.0001 0 0 0-0.0937-0.31054l-0.0098-0.01953a1.0001 1.0001 0 0 0-0.6816-0.5293 1.0001 1.0001 0 0 0-0.1875-0.88867l-0.0411-0.05078a1.0001 1.0001 0 0 0-0.1601-0.1543c-0.2631-0.31788-0.5484-0.60958-0.8516-0.87891a1.0001 1.0001 0 0 0-0.1875-0.20703l-0.0117-0.00976a1.0001 1.0001 0 0 0-0.9062-0.19532 1.0001 1.0001 0 0 0 0-0.00195 1.0001 1.0001 0 0 0-0.6758-0.82031l-0.0059-0.001954a1.0001 1.0001 0 0 0-0.125-0.03125c-0.4287-0.20702-0.8709-0.40725-1.3691-0.53711a1.0001 1.0001 0 0 0-0.91995 0.22461 1.0001 1.0001 0 0 0-0.81445-0.47656c-0.01618-5.62e-4 -0.10926-0.013672-0.2793-0.013672zm0 1c0.08241 0 0.16244 0.01067 0.24414 0.01367l-0.10156 0.99414c-0.04778-1e-3 -0.09448-0.00781-0.14258-0.00781-0.40201 0-0.79419 0.04023-1.1738 0.11523l-0.01953-0.0625-0.09375-0.92773c0.41808-0.0782 0.84669-0.125 1.2871-0.125zm1.7617 0.23242c0.50178 0.13078 0.97248 0.32976 1.4238 0.5625l-0.0039-0.01172 0.0098 0.00196v0.0039c0 0.0047 0.0091 0.00867 0.0098 0.01367-5e-3 -3e-3 -0.0057-0.00481-0.0157-0.00781l-0.4648 0.85938c-0.3945-0.20075-0.81464-0.35668-1.2539-0.4668l0.29492-0.95508zm2.3945 0.28711c0.0024 0.00748 0.0098 0.03136 0.0098 0.03125 0-6e-5 0.0033 0.02055 0.0039 0.02539-0.0053-0.02377-0.0075-0.03232-0.0137-0.05664zm-7.0332 0.10547 0.47461 0.87695c-0.41437 0.18085-0.80114 0.4104-1.1602 0.67578l-0.63086-0.76953c0.40736-0.3062 0.84723-0.57063 1.3164-0.7832zm7.332 0.99609 0.0156 0.00977-0.0098 0.00781c-6e-3 -0.0047-0.0056-0.00967-0.0156-0.01367 0-2e-3 0.0098-0.00191 0.0098-0.00391zm0.0097 0.01758c0.3927 0.32713 0.7513 0.691 1.0645 1.0957l0.0019-0.00196 0.0411 0.05078c-0.0129-0.01721-0.0293-0.03162-0.043-0.04882l-0.7578 0.6289c-0.2724-0.35693-0.5793-0.68529-0.9238-0.97266l0.6171-0.75195zm-4.4609 0.36133c2.7572 0 5 2.2428 5 5 0 2.7572-2.2428 5-5 5-2.7572 0-5-2.2428-5-5 0-2.7572 2.2428-5 5-5zm-5.2949 0.44922c0.00135 2e-3 9.6e-4 0.00386 0.00196 0.00586-3e-3 3e-3 -0.00481 0.00676-0.00782 0.00976l0.75391 0.62305c-0.29224 0.33953-0.54875 0.70977-0.75976 1.1094l-0.85352-0.46289c-1e-3 0.00299-0.00291 0.00481-0.00391 0.00781-1e-3 -7.1e-4 -0.00298 7e-4 -0.0039 0l0.00586-0.00977 0.00195 0.00196c0.24234-0.45463 0.52648-0.88125 0.85937-1.2695l-0.0039-0.0039 0.00976-0.01172zm5.2949 0.58594c-2.1933 0-3.9648 1.7715-3.9648 3.9648 0 2.1933 1.7715 3.9648 3.9648 3.9648 2.1933 0 3.9649-1.7715 3.9649-3.9648 0-2.1933-1.7716-3.9648-3.9649-3.9648zm6.3223 0.98437 0.0097 0.01953-0.0156 0.00782c0-0.0066-0.0098-0.01254-0.0098-0.01954 6e-3 -2e-3 0.0057-0.00581 0.0157-0.00781zm-6.3262 0.01563c1.6548 0 2.9648 1.31 2.9648 2.9648s-1.31 2.9648-2.9648 2.9648-2.9648-1.31-2.9648-2.9648 1.31-2.9648 2.9648-2.9648zm6.3164 0.01172c0.218 0.46129 0.4054 0.93926 0.5176 1.4492l-0.8164 0.25391-0.1446 0.01367c-0.0908-0.43567-0.2345-0.85099-0.414-1.2461l0.8574-0.4707zm-12.043 1.0566a1.0001 1.0001 0 0 0 0.04687 0.02148l-0.08398 0.29688a1.0001 1.0001 0 0 0 0.03711-0.31836zm-1.0137 0.03906c0.0054 1e-3 0.01062 0.00353 0.01562 0.0039l-0.00391 0.01368 0.93555 0.29296c-0.11301 0.42597-0.17891 0.87014-0.19531 1.3281l-0.98438-0.09961-0.00195 0.00977c-3e-3 -6.3e-4 -0.00581 5.9e-4 -0.00781 0 0.02347-0.53384 0.10518-1.0524 0.24219-1.5488zm12.818 1.2617 0.0039 0.00195a1.0001 1.0001 0 0 0-0.0039 0v-0.00195zm0.2364 0.30078a1.0001 1.0001 0 0 0-0.3457 0.64453l0.0683-0.5957 0.0742-0.00782a1.0001 1.0001 0 0 0 0.2032-0.04101zm-12.314 0.21484-0.04297 0.21289-0.03711 0.00391a1.0001 1.0001 0 0 0 0.08008-0.2168zm11.98 0.48047 0.9843 0.0957v-0.0332c0 1e-3 0.0098 0.00293 0.0098 0.00391-0.0362 0.5391-0.1293 1.0616-0.2812 1.5605 0 0-0.0098 2e-4 -0.0098 0v-0.0136l-0.9356-0.293c0.1257-0.42202 0.2025-0.86458 0.2325-1.3203zm-11.873 0.7207c0.08046 0.42714 0.2036 0.83876 0.36914 1.2285l-0.875 0.4766c-0.22427-0.5058-0.38703-1.0436-0.48633-1.6035l0.99219-0.10157zm11.611 0.63086a1.0001 1.0001 0 0 0-0.0372 0.32225 1.0001 1.0001 0 0 0-0.0488-0.0234l0.086-0.29885zm-0.5 1.207 0.8574 0.4648c-0.2534 0.448-0.5401 0.8738-0.8828 1.2539l-0.7657-0.6347c0.3018-0.3305 0.5687-0.6919 0.7911-1.084zm0.914 0.3769v0.0098l-0.0469 0.0879-0.0058-0.0059c0.018-0.031 0.0357-0.0608 0.0527-0.0918zm-10.99 0.1797c0.26298 0.3632 0.56425 0.695 0.90039 0.9903l-0.63086 0.7695c-0.38583-0.336-0.7324-0.7131-1.0371-1.125l0.76758-0.6348zm8.2793 1.4121 0.6328 0.7676c-0.4491 0.3206-0.9361 0.5904-1.4551 0.7988l-0.2949-0.9531c0.3962-0.1645 0.7695-0.3717 1.1172-0.6133zm-6.2832 0.3496c0.3892 0.211 0.80673 0.3747 1.2422 0.4961l-0.29688 0.9551c-0.49752-0.1419-0.97402-0.3334-1.4199-0.5762l0.47461-0.875zm3.8867 0.6289 0.09961 0.9942c-0.36734 0.06-0.74102 0.0996-1.125 0.0996-0.13711 0-0.27106-0.0115-0.40625-0.0215l0.10156-0.9941c0.10147 5e-3 0.20194 0.0156 0.30469 0.0156 0.35036 0 0.69167-0.0367 1.0254-0.0938z" fill="#fff" opacity=".05"/>
 <path id="base" d="m8 1c-0.44042 0-0.86903 0.046844-1.2871 0.125l0.09375 0.92773 0.019531 0.0625c0.37964-0.074995 0.77182-0.11523 1.1738-0.11523 0.048091 0 0.094761 0.0066925 0.14258 0.0078125l0.10156-0.99414c-0.081734-0.00284-0.16173-0.013672-0.24414-0.013672zm1.7617 0.23242-0.29492 0.95508c0.43926 0.11012 0.85936 0.26605 1.2539 0.4668l0.46484-0.85938c-0.4513-0.23275-0.92206-0.43172-1.4238-0.5625zm1.4238 0.5625c0.0052 0.00267 0.010455 0.0051325 0.015625 0.0078125-6.42e-4 -0.00473-0.00586-0.0088599-0.00586-0.013672 0-0.00141 0.001854-0.0024962 0.001954-0.0039063l-0.00586-0.0019531-0.005859 0.011719zm-6.0625-0.16992c-0.46917 0.21257-0.90905 0.477-1.3164 0.7832l0.63086 0.76953c0.35902-0.26539 0.74579-0.49494 1.1602-0.67578l-0.47461-0.87695zm7.332 0.99609c-0.0027 0.0016699-0.006965 0.0023062-0.009766 0.0039062 0.005301 0.00442 0.010296 0.0092299 0.015626 0.013672l0.005859-0.0078125-0.011719-0.0097656zm0.00586 0.017578-0.61719 0.75195c0.34446 0.28736 0.65141 0.61572 0.92383 0.97266l0.75781-0.62891c-0.31316-0.4047-0.67176-0.76857-1.0645-1.0957zm1.0645 1.0957c0.0136 0.017573 0.029528 0.033072 0.042968 0.050781 0 0 0.001953-0.0019531 0.001953-0.0019531l-0.041015-0.050781-0.003906 0.0019531zm-5.5254-0.73438c-2.7572 0-5 2.2428-5 5s2.2428 5 5 5c2.7572 0 5-2.2428 5-5s-2.2428-5-5-5zm-5.2949 0.44922-0.0097656 0.011719 0.0039063 0.0039063c0.00272-0.00317 0.0050924-0.0065957 0.0078124-0.0097657-0.0013399-0.00152-6.498e-4 -0.0042993-0.0019531-0.0058593zm-0.0058593 0.015625c-0.3329 0.38829-0.61703 0.81489-0.85938 1.2695l0.85352 0.46289c0.21101-0.39961 0.46752-0.76984 0.75977-1.1094l-0.75391-0.62305zm-0.85938 1.2695-0.0019532-0.0019531-0.0058594 0.0097656c9.184e-4 7.003e-4 0.0029963-7.091e-4 0.0039063 0 0.00137-0.00257 0.0025363-0.0052425 0.0039063-0.0078125zm6.1602-0.69922c2.1933 0 3.9648 1.7715 3.9648 3.9648 0 2.1933-1.7715 3.9648-3.9648 3.9648-2.1933 0-3.9648-1.7715-3.9648-3.9648 0-2.1933 1.7715-3.9648 3.9648-3.9648zm6.3223 0.98438c-0.0055 0.0021101-0.010005 0.0058725-0.015625 0.0078126 0.0031 0.00659 0.006565 0.012931 0.009765 0.019531l0.015625-0.0078125-0.009765-0.019531zm-0.00586 0.027344-0.85742 0.4707c0.17952 0.3951 0.32318 0.81043 0.41406 1.2461l0.14453-0.013672 0.81641-0.25391c-0.1122-0.50995-0.29956-0.98792-0.51758-1.4492zm-13.057 1.0957c-0.137 0.49641-0.21872 1.015-0.24219 1.5488 0.00247 5.934e-4 0.0053625-6.26e-4 0.0078125 0l0.0019532-0.0097656 0.98438 0.099609c0.016445-0.45799 0.082258-0.90217 0.19531-1.3281l-0.93555-0.29297 0.0039062-0.013672c-0.00547-3.786e-4 -0.010208-0.0033463-0.015625-0.0039063zm12.721 2.2578c-0.02997 0.45573-0.10675 0.89829-0.23242 1.3203l0.93555 0.29297-0.003906 0.013672c0.003899 1.13e-4 0.005865 0.003706 0.009765 0.003906 0.15195-0.499 0.24501-1.0215 0.28125-1.5605-0.0035-9.79e-4 -0.006365-0.0027862-0.009765-0.0039062l-0.003907 0.033203-0.97656-0.099609zm-11.873 0.7207-0.99219 0.10156c0.099265 0.55993 0.26206 1.0977 0.48633 1.6035l0.875-0.47656c-0.16554-0.38973-0.28869-0.80138-0.36914-1.2285zm11.111 1.8379c-0.22234 0.39208-0.48924 0.75356-0.79102 1.084l0.76562 0.63476c0.34269-0.3801 0.62942-0.80589 0.88281-1.2539l-0.85742-0.46484zm0.85742 0.46484 0.009766 0.00586 0.046874-0.087891c-0.0021-0.0028-0.001906-0.006766-0.003906-0.009766-0.01692 0.031-0.035374 0.061087-0.052734 0.091797zm-10.934 0.091797-0.76758 0.63477c0.30471 0.41195 0.65128 0.78902 1.0371 1.125l0.63086-0.76953c-0.33614-0.2953-0.63741-0.62709-0.90039-0.99023zm8.2793 1.4121c-0.34771 0.24159-0.72098 0.44876-1.1172 0.61328l0.29492 0.95312c0.519-0.20848 1.006-0.47822 1.4551-0.79883l-0.63281-0.76758zm-6.2832 0.34961-0.47461 0.875c0.4459 0.24274 0.9224 0.43427 1.4199 0.57617l0.29688-0.95508c-0.43546-0.12143-0.85299-0.28511-1.2422-0.49609zm3.8867 0.62891c-0.33372 0.05732-0.67503 0.09375-1.0254 0.09375-0.10275 0-0.20322-0.010545-0.30469-0.015625l-0.10156 0.99414c0.13519 0.0078 0.26914 0.021484 0.40625 0.021484 0.38398 0 0.75766-0.039849 1.125-0.099609l-0.099609-0.99414z" fill="url(#gr0)"/>
 <path id="path15" d="m8 1c-0.44042 0-0.86903 0.0468-1.2871 0.125l0.09375 0.92773 0.01953 0.0625c0.37964-0.075 0.77182-0.11523 1.1738-0.11523 0.0481 0 0.0948 0.00681 0.14258 0.00781l0.10156-0.99414c-0.0817-3e-3 -0.16173-0.01367-0.24414-0.01367zm1.7617 0.23242-0.29492 0.95508c0.43926 0.11012 0.8594 0.26605 1.2539 0.4668l0.2598-0.48242-0.0821-0.125-0.08-0.25782 0.1406-0.09961c-0.3831-0.18465-0.7776-0.34764-1.1973-0.45703zm-4.6387 0.39258c-0.46918 0.21257-0.90905 0.477-1.3164 0.7832l0.63086 0.76953c0.35902-0.26538 0.74579-0.49493 1.1602-0.67578l-0.47461-0.87695zm7.5878 1.2402-0.0097 0.10352-0.4571 0.04492-0.0781-0.00586h-0.0019-2e-3l-0.3144 0.38281c0.3445 0.28737 0.6514 0.61573 0.9238 0.97266l0.3808-0.3164c-0.0069-0.00678-0.0136-0.01388-0.0195-0.02149l0.0625-0.57422 0.0195-0.01953 0.0547 0.00391c-0.1755-0.20055-0.3614-0.3909-0.5586-0.57032zm-4.707 0.13477c-2.7572 0-5 2.2428-5 5 0 2.7572 2.2428 5 5 5 2.7572 0 5-2.2428 5-5 0-2.7572-2.2428-5-5-5zm-0.00391 0.5c2.4861 0 4.5 2.0139 4.5 4.5 0 2.4861-2.0139 4.5-4.5 4.5-2.4861 0-4.5-2.0139-4.5-4.5 0-2.4861 2.0139-4.5 4.5-4.5zm0 0.03516c-2.4625 0-4.4648 2.0023-4.4648 4.4648 0 2.4625 2.0023 4.4648 4.4648 4.4648 2.4625 0 4.4648-2.0023 4.4648-4.4648 0-2.4625-2.0023-4.4648-4.4648-4.4648zm-4.9297 0.23242c-5.4e-4 7.4e-4 -0.00136 0.00126-0.00195 0.00195h-0.5957c-0.14504 0.19094-0.28122 0.38812-0.40625 0.59375l0.03125-0.00586 0.11132 0.375 0.04493 0.22461 0.44336 0.24024c0.21101-0.39961 0.46752-0.76985 0.75976-1.1094l-0.38672-0.32031zm4.9336 0.26758c2.1933 0 3.9649 1.7715 3.9649 3.9648 0 2.1933-1.7716 3.9648-3.9649 3.9648-2.1933 0-3.9648-1.7715-3.9648-3.9648 0-2.1933 1.7715-3.9648 3.9648-3.9648zm5.9219 1.2266-0.4668 0.25586c0.1795 0.3951 0.3232 0.81042 0.414 1.2461l0.1446-0.01367 0.8164-0.25391c-0.0798-0.36282-0.2058-0.70505-0.3457-1.041l-2e-3 0.00586-0.289-0.09375-0.2715-0.10547zm-12.666 0.88086c-0.13701 0.4964-0.21872 1.015-0.24219 1.5488 2e-3 5.9e-4 0.00481-6.3e-4 0.00781 0l0.00195-0.00977 0.98438 0.09961c0.0164-0.45799 0.0823-0.90216 0.19531-1.3281l-0.93555-0.29296 0.00391-0.01368c-5e-3 -3.7e-4 -0.01022-0.0029-0.01562-0.0039zm12.721 2.2578c-0.03 0.45573-0.1068 0.89829-0.2325 1.3203l0.9356 0.293v0.0136c0 2e-4 0.0098 0 0.0098 0 0.1519-0.49895 0.245-1.0214 0.2812-1.5605 0-9.8e-4 -0.0098-0.00291-0.0098-0.00391v0.0332l-0.9843-0.0957zm-11.873 0.7207-0.99219 0.10157c0.0993 0.55992 0.26206 1.0977 0.48633 1.6035l0.875-0.4766c-0.16554-0.38975-0.28868-0.80137-0.36914-1.2285zm11.111 1.8379c-0.2224 0.3921-0.4893 0.7535-0.7911 1.084l0.7657 0.6347c0.2966-0.3289 0.546-0.6959 0.7734-1.0781l-0.2031 0.0078-0.0469-0.164-0.0156-0.2227-0.4824-0.2617zm-10.076 0.5566-0.76758 0.6348c0.30471 0.4119 0.65128 0.789 1.0371 1.125l0.63086-0.7695c-0.33614-0.2953-0.63741-0.6271-0.90039-0.9903zm8.2793 1.4121c-0.3477 0.2416-0.721 0.4488-1.1172 0.6133l0.2949 0.9531c0.519-0.2084 1.006-0.4782 1.4551-0.7988l-0.6328-0.7676zm-6.2832 0.3496-0.47461 0.875c0.4459 0.2428 0.9224 0.4343 1.4199 0.5762l0.29688-0.9551c-0.43546-0.1214-0.85299-0.2851-1.2422-0.4961zm3.8867 0.6289c-0.33372 0.0571-0.67503 0.0938-1.0254 0.0938-0.10275 0-0.20322-0.0106-0.30469-0.0156l-0.10156 0.9941c0.13519 0.01 0.26914 0.0215 0.40625 0.0215 0.38398 0 0.75766-0.0396 1.125-0.0996l-0.09961-0.9942zm-0.44922 0.5411v0.0019c-0.14295 0.0145-0.28637 0.0331-0.42969 0.0371 0.14759-0.0039 0.28661-0.0249 0.42969-0.039z" opacity=".3"/>
 <path id="path20" d="m8 2c-0.20443 0-0.40648 0.01116-0.60547 0.03125-0.19233 0.01942-0.38177 0.04712-0.56836 0.08398l-0.00195-0.00585c-0.0368 0.00636-0.07469 0.00877-0.11133 0.01562l0.09375 0.92773 0.01953 0.0625c0.21844-0.04315 0.44174-0.07075 0.66797-0.08984 0.1666-0.01697 0.33488-0.02526 0.50586-0.02539 0.00131 0 0.00259-1e-5 0.00391 0 0.04671 0 0.09226 0.00653 0.13867 0.00781l0.10156-0.99414c-0.03399-0.00125-0.06786-0.00327-0.10156-0.00586-0.04778-1e-3 -0.09448-0.00781-0.14258-0.00781zm1.748 0.27539-0.28125 0.91211c0.43926 0.11012 0.8594 0.26605 1.2539 0.4668l0.4648-0.85938c-0.1409-0.0727-0.2884-0.13415-0.4335-0.19922l-0.0313 0.0586c-0.3083-0.15691-0.6361-0.27724-0.97265-0.37891zm1.4374 0.51953c0.01 3e-3 0.0107 0.00481 0.0157 0.00781-7e-4 -5e-3 -0.0098-0.00897-0.0098-0.01367v-0.0039l-0.0098-0.00196 0.0039 0.01172zm-6.0117-0.07617c-0.25568 0.13829-0.50387 0.28716-0.73633 0.45898l-0.10156-0.125c-0.18098 0.11245-0.3594 0.22776-0.5293 0.35547l0.63086 0.76953c0.35902-0.26538 0.74579-0.49493 1.1602-0.67578l-0.42383-0.7832zm7.1367 1.1094-0.4628 0.5625c0.3445 0.28736 0.6514 0.61573 0.9238 0.97266l0.7578-0.6289c-0.1577-0.20381-0.3265-0.39646-0.5059-0.58008l-0.2519 0.20898c-0.1432-0.18765-0.2982-0.3651-0.461-0.53516zm1.2188 0.90626c0.0137 0.0172 0.0301 0.03161 0.043 0.04882l-0.0411-0.05078-0.0019 0.00196zm-5.5254-0.69922c-2.1933 0-3.9648 1.7715-3.9648 3.9648 0 0.17121 0.02984 0.33457 0.05078 0.5 0.24741-1.9538 1.892-3.4648 3.9141-3.4648 2.0221 0 3.6667 1.511 3.9141 3.4648 0.0209-0.16543 0.0508-0.32879 0.0508-0.5 0-2.1933-1.7716-3.9648-3.9649-3.9648zm-5.0098 0.66992c-0.10547 0.15925-0.20711 0.3222-0.29687 0.49219l-0.39063-0.21094c-0.16726 0.23977-0.32428 0.48801-0.46289 0.74805l0.85352 0.46289c0.21101-0.39961 0.46752-0.76985 0.75976-1.1094l-0.46289-0.38281zm-1.1504 1.0293-0.00195-0.00196-0.00586 0.00977c9.2e-4 7e-4 0.0029-7.1e-4 0.0039 0 1e-3 -3e-3 0.00291-0.00482 0.00391-0.00781zm11.918 0.61718-0.3027 0.16602c0.1795 0.3951 0.3232 0.81042 0.414 1.2461l0.1446-0.01367 0.8164-0.25391c-0.0694-0.31546-0.1727-0.61554-0.2891-0.91015l-0.5273 0.16406-0.1446 0.01367c-0.0292-0.14049-0.0716-0.27585-0.1113-0.41211zm-11.715 1.0508c-0.01233 0.12614-0.03056 0.25051-0.03516 0.37891l-0.8711-0.08789c-0.06153 0.32613-0.10808 0.65772-0.12304 0.99805 2e-3 5.9e-4 0.00481-6.3e-4 0.00781 0l0.00195-0.00977 0.98438 0.09961c0.0164-0.45799 0.0823-0.90217 0.19531-1.3281l-0.16015-0.05078zm0.98242 1.1074c-0.01584 0.16164-0.02539 0.32449-0.02539 0.49023 0 2.6529 2.0784 4.8235 4.6914 4.9844 0.10276 0.0063 0.20427 0.0156 0.3086 0.0156 0.29356-2e-4 0.57765-0.036 0.85937-0.0781 2.3483-0.4092 4.1406-2.4582 4.1406-4.9219 0-0.16574-0.0096-0.32859-0.0254-0.49023-0.2565 2.5182-2.3897 4.4902-4.9746 4.4902s-4.7181-1.972-4.9746-4.4902zm11.936 0.95312v0.0332l-0.1406-0.01367c-0.0392 0.18323-0.0768 0.36734-0.1308 0.54488 0 0-0.0098 2e-4 -0.0098 0v-0.0136l-0.7481-0.2344c-0.0406 0.3215-0.0972 0.6383-0.1875 0.9414l0.9356 0.293v0.0136c0 2e-4 0.0098 0 0.0098 0 0.1519-0.499 0.245-1.0214 0.2812-1.5605 0-9.8e-4 -0.0098-0.00291-0.0098-0.00391zm-13.598 0.73441-0.25196 0.0254c0.0993 0.5599 0.26206 1.0977 0.48633 1.6035l0.875-0.4766c-0.11567-0.2724-0.20317-0.5581-0.27734-0.8496l-0.59766 0.3262c-0.09027-0.2036-0.16416-0.4156-0.23437-0.6289zm12.231 1.9668c-0.1276 0.1769-0.2582 0.3515-0.4043 0.5136l-0.2872-0.2363c-0.148 0.2094-0.3057 0.4123-0.4785 0.6016l0.7657 0.6347c0.3427-0.3801 0.6294-0.8059 0.8828-1.2539l-0.4785-0.2597zm0.5351 0.1718c-0.017 0.031-0.0347 0.0608-0.0527 0.0918l0.0058 0.0059 0.0469-0.0879v-0.0098zm-11.268 0.4082-0.49023 0.4063c0.30471 0.4119 0.65128 0.789 1.0371 1.125l0.63086-0.7695c-0.15976-0.1404-0.31144-0.2891-0.45508-0.4454l-0.17578 0.2149c-0.19222-0.1674-0.37447-0.3442-0.54688-0.5313zm8.6465 1.293c-0.2926 0.1714-0.594 0.3293-0.9121 0.457l-0.0254-0.082c-0.09 0.043-0.177 0.0905-0.2695 0.1289l0.2949 0.9531c0.519-0.2084 1.006-0.4782 1.4551-0.7988l-0.543-0.6582zm-6.416 0.3184-0.43164 0.7968c0.4459 0.2428 0.9224 0.4343 1.4199 0.5762l0.29688-0.9551c-0.09579-0.0267-0.1873-0.0629-0.28125-0.0937l-0.01563 0.0488c-0.34229-0.0976-0.66901-0.2279-0.98828-0.373zm3.9297 0.5586c-0.3355 0.0512-0.6758 0.0859-1.0254 0.0859-0.10282 0-0.20356-0.0083-0.30469-0.0156l-0.10156 0.9941c0.13519 0.01 0.26914 0.0215 0.40625 0.0215 0.38398 0 0.75766-0.0396 1.125-0.0996l-0.09961-0.9863z" fill="#fff" opacity=".2"/>
 <path id="path25" d="m8 1c-0.44042 0-0.86903 0.0468-1.2871 0.125l0.09375 0.92773 0.01758 0.05665c0.18824-0.03254 0.37767-0.06014 0.57031-0.07813 0.19899-0.02009 0.40104-0.03125 0.60547-0.03125 0.0481 0 0.0948 0.00681 0.14258 0.00781l0.10156-0.99414c-0.0817-3e-3 -0.16173-0.01367-0.24414-0.01367zm1.7617 0.23242-0.29492 0.95508c0.09593 0.02405 0.18721 0.05948 0.28125 0.08789l0.01367-0.04297c0.34508 0.08993 0.67078 0.22006 0.99028 0.36328l0.4335-0.80078c-0.4513-0.23274-0.922-0.43172-1.4238-0.5625zm1.4238 0.5625c0.01 3e-3 0.0107 0.00481 0.0157 0.00781-7e-4 -5e-3 -0.0098-0.00897-0.0098-0.01367v-0.0039l-0.0098-0.00196 0.0039 0.01172zm-6.0624-0.16992c-0.46918 0.21257-0.90905 0.477-1.3164 0.7832l0.5293 0.64453c0.25294-0.15715 0.51361-0.30382 0.78711-0.42773l0.05078 0.09375c0.13921-0.07529 0.27775-0.15304 0.42383-0.2168l-0.47461-0.87695zm7.332 0.99609c0 2e-3 -0.0098 0.00191-0.0098 0.00391 0.01 4e-3 0.0096 0.00897 0.0156 0.01367l0.0098-0.00781-0.0156-0.00977zm0.0097 0.01758-0.6171 0.75195c0.1633 0.13629 0.316 0.2841 0.4628 0.4375l0.1543-0.18945c0.195 0.16239 0.3819 0.33463 0.5586 0.51563l0.5059-0.41992c-0.3132-0.40471-0.6718-0.76858-1.0645-1.0957zm1.0645 1.0957c0.0137 0.0172 0.0301 0.03161 0.043 0.04882l-0.0411-0.05078-0.0019 0.00196zm-5.5293-0.73438c-0.17098 1.3e-4 -0.33926 0.00842-0.50586 0.02539-2.5183 0.2565-4.4902 2.3897-4.4902 4.9746 0 0.16574 0.00955 0.32859 0.02539 0.49023 0.25649-2.5183 2.3897-4.4902 4.9746-4.4902s4.7181 1.972 4.9746 4.4902c0.0158-0.16164 0.0254-0.32449 0.0254-0.49023 0-2.7105-2.1685-4.918-4.8613-4.9922-0.04641-0.00128-0.09196-0.00781-0.13867-0.00781-0.00132-1e-5 -0.0026 0-0.00391 0zm-5.291 0.44922-0.00976 0.01172 0.0039 0.0039c0.00301-3e-3 0.00482-0.00676 0.00782-0.00976-1e-3 -2e-3 -6.1e-4 -0.00386-0.00196-0.00586zm-0.00586 0.01562c-0.33289 0.38829-0.61703 0.81491-0.85937 1.2695l0.46289 0.25195c0.12517-0.17943 0.254-0.35529 0.39648-0.52149l-0.0039-0.0039 0.00976-0.01172c0.00135 2e-3 9.6e-4 0.00386 0.00196 0.00586-3e-3 3e-3 -0.00481 0.00676-0.00782 0.00976l0.29102 0.24024c0.14248-0.21513 0.29497-0.42209 0.46289-0.61719l-0.75391-0.62305zm-0.85937 1.2695-0.00195-0.00196-0.00586 0.00977c9.2e-4 7e-4 0.0029-7.1e-4 0.0039 0 1e-3 -3e-3 0.00291-0.00482 0.00391-0.00781zm10.611-1.1133 0.0156 0.00977-0.0098 0.00781c-6e-3 -0.0047-0.0056-0.00967-0.0156-0.01367 0-2e-3 0.0098-0.00191 0.0098-0.00391zm1.8711 1.3984c-0.01 2e-3 -0.0097 0.00581-0.0157 0.00781 0 7e-3 0.0098 0.01294 0.0098 0.01954l0.0156-0.00782-0.0097-0.01953zm-0.0098 0.02735-0.8574 0.4707c0.1216 0.26769 0.2193 0.54768 0.3027 0.83398l0.5547-0.30468c0.0831 0.17593 0.1568 0.35742 0.2285 0.53906l0.2891-0.08985c-0.1122-0.50995-0.2996-0.98792-0.5176-1.4492zm0.0098 0.97265 0.0097 0.01953-0.0156 0.00782c0-0.0066-0.0098-0.01254-0.0098-0.01954 6e-3 -2e-3 0.0057-0.00581 0.0157-0.00781zm-13.066 0.12305c-0.13701 0.4964-0.21872 1.015-0.24219 1.5488 2e-3 5.9e-4 0.00481-6.3e-4 0.00781 0l0.00195-0.00977 0.11328 0.01172c0.035-0.18544 0.06948-0.37084 0.11915-0.55078 0.0054 1e-3 0.01062 0.00353 0.01562 0.0039l-0.00391 0.01368 0.7754 0.24218c0.03164-0.32376 0.07882-0.64267 0.16015-0.94922l-0.93555-0.29296 0.00391-0.01368c-5e-3 -3.7e-4 -0.01022-0.0029-0.01562-0.0039zm12.721 2.2578c-0.03 0.45573-0.1068 0.89829-0.2325 1.3203l0.1875 0.0586c0.016-0.12624 0.0365-0.25041 0.045-0.37891l0.8437 0.08203c0.0711-0.3316 0.1271-0.66839 0.1504-1.0156 0-9.8e-4 -0.0098-0.00291-0.0098-0.00391v0.0332l-0.9843-0.0957zm-9.8907 0.09961c-0.02094 0.16543-0.05078 0.32879-0.05078 0.5 0 2.1933 1.7715 3.9648 3.9648 3.9648 2.1933 0 3.9649-1.7715 3.9649-3.9648 0-0.17121-0.0299-0.33457-0.0508-0.5-0.2474 1.9538-1.892 3.4648-3.9141 3.4648-2.0221 0-3.6667-1.511-3.9141-3.4648zm-1.9824 0.62109-0.99219 0.10157c0.05933 0.33454 0.14774 0.65795 0.25196 0.97464l0.74023-0.0762c0.02424 0.1287 0.05982 0.2532 0.0918 0.3789l0.27734-0.1504c-0.16554-0.38975-0.28868-0.80137-0.36914-1.2285zm11.111 1.8379c-0.2224 0.3921-0.4893 0.7535-0.7911 1.084l0.4785 0.3984c0.1106-0.1564 0.2175-0.3148 0.3126-0.4824l0.3789 0.2051c0.1714-0.2379 0.3332-0.4834 0.4785-0.7403l-0.8574-0.4648zm0.914 0.3769c-0.017 0.031-0.0347 0.0608-0.0527 0.0918l0.0058 0.0059 0.0469-0.0879v-0.0098zm-10.99 0.1797-0.76758 0.6348c0.1529 0.2067 0.31658 0.4054 0.49023 0.5937l0.27735-0.2285c0.13799 0.1906 0.28672 0.3724 0.44531 0.5449l0.45508-0.5546c-0.33614-0.2953-0.63741-0.6271-0.90039-0.9903zm8.2793 1.4121c-0.3477 0.2416-0.721 0.4488-1.1172 0.6133l0.2695 0.8711c0.2953-0.141 0.5812-0.2992 0.8477-0.4844l0.0898 0.1094c0.1849-0.1083 0.3691-0.2177 0.543-0.3418l-0.6328-0.7676zm-6.2832 0.3496-0.47461 0.875c0.13913 0.0758 0.28685 0.1373 0.43164 0.2032l0.04297-0.0782c0.30359 0.1646 0.62782 0.293 0.96094 0.4024l0.28125-0.9063c-0.43546-0.1214-0.85299-0.2851-1.2422-0.4961zm3.8867 0.6289c-0.05278 0.0091-0.10894 0.0077-0.16211 0.0157-0.27977 0.0487-0.56585 0.0781-0.85937 0.0781-0.10433 0-0.20584-0.0093-0.3086-0.0156l-0.10156 0.9941c0.03381 0.0025 0.06784 0.0034 0.10156 0.0059 0.10113 0.0073 0.20187 0.0156 0.30469 0.0156 0.35036 0 0.69167-0.0367 1.0254-0.0938v0.0079c0.033-0.0051 0.06671-0.0083 0.09961-0.0137l-0.09961-0.9942z" opacity=".3"/>
</svg>
