<?xml version="1.0" encoding="UTF-8"?>
<svg id="svg30" width="16" height="16" version="1.1" xmlns="http://www.w3.org/2000/svg" xmlns:cc="http://creativecommons.org/ns#" xmlns:dc="http://purl.org/dc/elements/1.1/" xmlns:rdf="http://www.w3.org/1999/02/22-rdf-syntax-ns#">
 <metadata id="metadata34">
  <rdf:RDF>
   <cc:Work rdf:about="">
    <dc:format>image/svg+xml</dc:format>
    <dc:type rdf:resource="http://purl.org/dc/dcmitype/StillImage"/>
   </cc:Work>
  </rdf:RDF>
 </metadata>
 <defs id="defs7">
  <radialGradient id="gr0" cx="9" cy="10" r="11" gradientTransform="matrix(1 0 0 .63636 0 3.6364)" gradientUnits="userSpaceOnUse">
   <stop id="stop2" stop-opacity=".23529" offset="0"/>
   <stop id="stop4" stop-opacity=".54902" offset="1"/>
  </radialGradient>
 </defs>
 <path id="path9" d="m8 1c-3.8467 0-7 3.1533-7 7 0 3.8467 3.1534 7 7 7 3.8467 0 7-3.1533 7-7 0-3.8466-3.1533-7-7-7zm0 1c3.302 0 6 2.6981 6 6 0 3.302-2.698 6-6 6-3.3019 0-6-2.698-6-6 0-3.3019 2.6981-6 6-6zm0 2c-1.8732 0-3.4014 1.2712-3.8438 3h7.6876c-0.443-1.7288-1.9706-3-3.8438-3zm0 1c0.8711 0 1.5449 0.42503 2.0781 1h-4.1562c0.53317-0.57489 1.207-1 2.0781-1zm-3.8438 4c0.4423 1.729 1.9706 3 3.8438 3s3.4008-1.271 3.8438-3h-7.6876zm1.7637 1h4.1602c-0.53333 0.576-1.2081 1-2.0801 1s-1.5468-0.4241-2.0801-1z" fill="#fff" opacity=".05"/>
 <path id="base" d="m8 2c-3.3019 0-6 2.6981-6 6 0 3.302 2.6981 6 6 6 3.302 0 6-2.698 6-6 0-3.3019-2.698-6-6-6zm0 2c1.8732 0 3.401 1.2712 3.844 3h-7.6878c.4423-1.7288 1.9706-3 3.8438-3zm-3.8438 5h7.6878c-.443 1.729-1.9708 3-3.844 3s-3.4015-1.271-3.8438-3z" fill="url(#gr0)"/>
 <path id="path15" d="m8 2c-3.3019 0-6 2.6981-6 6 0 3.302 2.6981 6 6 6 3.302 0 6-2.698 6-6 0-3.3019-2.698-6-6-6zm0 0.5c3.0296 0 5.5 2.4705 5.5 5.5 0 3.0296-2.4704 5.5-5.5 5.5-3.0295 0-5.5-2.4704-5.5-5.5 0-3.0295 2.4705-5.5 5.5-5.5zm0 1c-2.0994 0-3.8319 1.4372-4.3281 3.377a0.50005 0.50005 0 0 0 0.48437 0.62305h7.6876a0.50005 0.50005 0 0 0 0.4843-0.625c-0.497-1.9395-2.2287-3.375-4.3281-3.375zm0 0.5c1.8732 0 3.4008 1.2712 3.8438 3h-7.6876c0.4423-1.7288 1.9706-3 3.8438-3zm-3.8535 4.5a0.50005 0.50005 0 0 0-0.4746 0.62305c0.49624 1.94 2.2288 3.377 4.3281 3.377 2.0994 0 3.8311-1.4353 4.3281-3.375a0.50005 0.50005 0 0 0-0.4843-0.625h-7.6876a0.50005 0.50005 0 0 0-0.00977 0zm0.00977 0.5h7.6876c-0.443 1.729-1.9706 3-3.8438 3s-3.4014-1.271-3.8438-3z" opacity=".3"/>
 <path id="path20" d="m8 4c-1.8732 0-3.4014 1.2712-3.8438 3h0.41797c0.68209-1.1931 1.9403-2 3.4258-2s2.7435 0.80692 3.4258 2h0.418c-0.443-1.7288-1.9706-3-3.8438-3zm-5.9746 4.5c-0.01382 0.16535-0.02539 0.33122-0.02539 0.5 0 3.302 2.6981 6 6 6 3.302 0 6-2.698 6-6 0-0.16878-0.0116-0.33465-0.0254-0.5-0.2565 3.0694-2.8414 5.5-5.9746 5.5-3.1331 0-5.7181-2.4306-5.9746-5.5zm2.1309 0.5c0.09155 0.35789 0.23993 0.68857 0.41797 1h6.8516c0.1781-0.31143 0.3263-0.64211 0.418-1h-7.6876z" fill="#fff" opacity=".2"/>
 <path id="path25" d="m8 2c-3.3019 0-6 2.6981-6 6 0 0.16879 0.01157 0.33465 0.02539 0.5 0.25655-3.0694 2.8415-5.5 5.9746-5.5 3.1332 0 5.7181 2.4306 5.9746 5.5 0.0138-0.16535 0.0254-0.33121 0.0254-0.5 0-3.3019-2.698-6-6-6zm-3.4258 5c-0.17804 0.31142-0.32642 0.64215-0.41797 1h7.6876c-0.0917-0.35785-0.2399-0.68858-0.418-1h-6.8516zm-0.41797 3c0.4423 1.729 1.9706 3 3.8438 3s3.4008-1.271 3.8438-3h-0.418c-0.6823 1.1931-1.9403 2-3.4258 2s-2.7437-0.8069-3.4258-2h-0.41797z" opacity=".3"/>
</svg>
