<?xml version="1.0" encoding="UTF-8"?>
<svg id="svg36" width="16" height="16" version="1.1" xmlns="http://www.w3.org/2000/svg" xmlns:cc="http://creativecommons.org/ns#" xmlns:dc="http://purl.org/dc/elements/1.1/" xmlns:rdf="http://www.w3.org/1999/02/22-rdf-syntax-ns#">
 <metadata id="metadata40">
  <rdf:RDF>
   <cc:Work rdf:about="">
    <dc:format>image/svg+xml</dc:format>
    <dc:type rdf:resource="http://purl.org/dc/dcmitype/StillImage"/>
   </cc:Work>
  </rdf:RDF>
 </metadata>
 <defs id="defs7">
  <radialGradient id="gr0" cx="9" cy="10" r="11" gradientTransform="matrix(1 0 0 .63636 0 3.6364)" gradientUnits="userSpaceOnUse">
   <stop id="stop2" stop-color="#e64b36" offset="0"/>
   <stop id="stop4" stop-color="#a31414" offset="1"/>
  </radialGradient>
 </defs>
 <path id="path9" d="m8.594 1.023v0.039c-0.103 0-0.3-0.03-0.604 0-2.772 0.277-4.928 2.393-5.51 5.086h-1.168a1 1 0 0 0-0.8335 1.553l2.7185 4.089a1 1 0 0 0 1.649 0l2.906-4.095a1 1 0 0 0-0.814-1.578h-0.362c0.446-0.724 1.096-1.279 2.018-1.279 1.426 0 2.596 1.156 2.596 2.625 0 1.367-0.99 2.446-2.276 2.597a1 1 0 0 0-0.883 0.99v1.85a1 1 0 0 0 1.078 1c3.291-0.26 5.861-3.07 5.861-6.437 0-3.545-2.86-6.439-6.376-6.44zm-0.5 1.039c0.174-0.02 0.321 0 0.5 0 2.966 0 5.376 2.427 5.376 5.438 0 2.86-2.17 5.22-4.939 5.44v-1.85c1.779-0.21 3.159-1.729 3.159-3.59 0-2.007-1.62-3.625-3.596-3.625-1.868 0-3.365 1.43-3.532 3.281h1.876l-2.907 4.094-2.719-4.094h1.938c0.163-2.674 2.235-4.835 4.844-5.094z" fill="#fff" opacity=".05"/>
 <path id="base" d="m8.094 2.063c-2.609 0.258-4.681 2.419-4.844 5.093h-1.938l2.719 4.094 2.906-4.094h-1.875c0.166-1.851 1.664-3.281 3.532-3.281 1.976 0 3.596 1.618 3.596 3.625 0 1.861-1.38 3.38-3.159 3.59v1.85c2.769-0.22 4.939-2.58 4.939-5.44 0-3.011-2.41-5.437-5.376-5.437-0.179 0-0.326-0.02-0.5 0z" fill="url(#gr0)"/>
 <path id="path17" d="m8.094 2.062c-2.609 0.259-4.681 2.42-4.844 5.094h-1.938l2.719 4.094 2.907-4.094h-1.876c0.167-1.851 1.664-3.281 3.532-3.281 1.976 0 3.596 1.618 3.596 3.625 0 1.861-1.38 3.38-3.159 3.59v1.85c2.769-0.22 4.939-2.58 4.939-5.44 0-3.011-2.41-5.438-5.376-5.438-0.179 0-0.326-0.02-0.5 0zm0.049 0.499h7e-3c0.105-9e-3 0.228 1e-3 0.444 1e-3 2.696 0 4.876 2.194 4.876 4.938 0 2.407-1.71 4.34-3.939 4.79v-0.84c1.799-0.43 3.159-2.006 3.159-3.95 0-2.276-1.85-4.125-4.096-4.125-2.123 0-3.842 1.642-4.03 3.736a0.5 0.5 0 0 0 0.498 0.545h0.907l-1.924 2.714-1.801-2.714h1.006a0.5 0.5 0 0 0 0.5-0.47c0.148-2.434 2.03-4.392 4.393-4.625z" opacity=".3"/>
 <path id="path24" d="m8.594 3.875c-1.868 0-3.365 1.43-3.532 3.281h0.249c0.517-1.337 1.772-2.281 3.283-2.281 1.816 0 3.316 1.367 3.546 3.143 0.03-0.171 0.05-0.341 0.05-0.518 0-2.007-1.62-3.625-3.596-3.625zm5.356 4.154c-0.25 2.621-2.32 4.701-4.919 4.911v1c2.769-0.22 4.939-2.58 4.939-5.44 0-0.159-0.01-0.315-0.02-0.471zm-12.638 0.127 2.719 4.094 2.907-4.094h-0.709l-2.198 3.094-2.054-3.094h-0.665z" fill="#fff" opacity=".2"/>
 <path id="path31" d="m8.094 2.062c-2.609 0.259-4.681 2.42-4.844 5.094h-1.938l0.665 1h1.273c0.163-2.674 2.235-4.835 4.844-5.094 0.174-0.02 0.321 0 0.5 0 2.806 0 5.116 2.176 5.356 4.961 0.01-0.172 0.02-0.346 0.02-0.523 0-3.011-2.41-5.438-5.376-5.438-0.179 0-0.326-0.02-0.5 0zm-2.783 5.094c-0.123 0.316-0.217 0.647-0.249 1h1.167l0.709-1h-1.627zm6.829 0.862c-0.23 1.617-1.5 2.882-3.109 3.072v1c1.779-0.21 3.159-1.73 3.159-3.59 0-0.165-0.03-0.323-0.05-0.482z" opacity=".3"/>
</svg>
