<?xml version="1.0" encoding="UTF-8"?>
<svg id="svg30" width="16" height="16" version="1.1" xmlns="http://www.w3.org/2000/svg" xmlns:cc="http://creativecommons.org/ns#" xmlns:dc="http://purl.org/dc/elements/1.1/" xmlns:rdf="http://www.w3.org/1999/02/22-rdf-syntax-ns#">
 <metadata id="metadata34">
  <rdf:RDF>
   <cc:Work rdf:about="">
    <dc:format>image/svg+xml</dc:format>
    <dc:type rdf:resource="http://purl.org/dc/dcmitype/StillImage"/>
   </cc:Work>
  </rdf:RDF>
 </metadata>
 <defs id="defs7">
  <radialGradient id="gr0" cx="9" cy="10" r="11" gradientTransform="matrix(1 0 0 .72727 0 2.7273)" gradientUnits="userSpaceOnUse">
   <stop id="stop2" stop-opacity=".23529" offset="0"/>
   <stop id="stop4" stop-opacity=".54902" offset="1"/>
  </radialGradient>
 </defs>
 <path id="path9" d="m7 0a1 1.0001 0 0 0-1 1v2.1621l-1.5469-1.5293a1.0001 1.0001 0 0 0-1.4102 0.00391l-1.4062 1.4062a1.0001 1.0001 0 0 0-0.00391 1.4102l1.5293 1.5469h-2.1621a1.0001 1.0001 0 0 0-1 1v2a1.0001 1.0001 0 0 0 1 1h2.1621l-1.5293 1.5469a1.0001 1.0001 0 0 0 0.00391 1.4101l1.4062 1.4063a1.0001 1.0001 0 0 0 1.4102 0.0039l1.5469-1.5293v2.1621a1.0001 1.0001 0 0 0 1 1h2a1.0001 1.0001 0 0 0 1-1v-2.1621l1.5469 1.5293a1.0001 1.0001 0 0 0 1.4101-0.0039l1.4063-1.4063a1.0001 1.0001 0 0 0 0.0039-1.4101l-1.5293-1.5469h2.1621a1.0001 1.0001 0 0 0 1-1v-2a1.0001 1.0001 0 0 0-1-1h-2.1621l1.5293-1.5469a1.0001 1.0001 0 0 0-0.0039-1.4102l-1.4063-1.4062-0.414 1 1.1132 1.1133-2.8124 2.8438-1.4376-1.4375 2.5508-2.5234-0.4101-1-1.5469 1.5293v-2.1621a1.0001 1.0001 0 0 0-1-1h-2zm0 1h2v4h-2v-4zm-3.25 1.3438 2.8438 2.8125-1.4375 1.4375-2.8125-2.8438 1.4062-1.4062zm3.4141 3.6562h1.6719l1.1641 1.1641v1.6719l-1.1641 1.1641h-1.6719l-1.1641-1.1641v-1.6719l1.1641-1.1641zm-6.1641 1h4v2h-4v-2zm10 0h4v2h-4v-2zm-5.8438 2.4062 1.4375 1.4376-2.8438 2.8124-1.4062-1.4062 2.8125-2.8438zm5.6876 0 2.8124 2.8438-1.4062 1.4062-2.8438-2.8124 1.4376-1.4376zm-3.8438 1.5938h2v4h-2v-4z" fill="#fff" opacity=".05"/>
 <path id="base" d="m7 1v4h2v-4h-2zm-3.25 1.3438-1.4062 1.4062 2.8124 2.8438 1.4376-1.4376-2.8438-2.8124zm8.5 0-2.8438 2.8125 1.4375 1.4375 2.812-2.8438-1.406-1.4062zm-11.25 4.6562v2h4v-2h-4zm10 0v2h4v-2h-4zm-5.8438 2.4062-2.8124 2.8438 1.4062 1.406 2.8438-2.812-1.4376-1.4378zm5.6875 0-1.4375 1.4375 2.8435 2.812 1.406-1.406-2.812-2.8438zm-3.844 1.5938v4h2v-4h-2z" fill="url(#gr0)"/>
 <path id="path15" d="m7 1v4h2v-4h-2zm0.5 0.5h1v3h-1v-3zm-3.75 0.84375-1.4062 1.4062 2.8125 2.8438 1.4375-1.4375-2.8438-2.8125zm8.5 0-2.8438 2.8125 1.4376 1.4375 2.8124-2.8438-1.4062-1.4062zm-8.498 0.70508 2.1328 2.1094-0.72657 0.72657-2.1094-2.1328 0.70312-0.70312zm8.496 0 0.7032 0.70312-2.1094 2.1328-0.7266-0.72657 2.1328-2.1094zm-11.248 3.9512v2h4v-2h-4zm10 0v2h4v-2h-4zm-9.5 0.5h3v1h-3v-1zm10 0h3v1h-3v-1zm-6.3438 1.9062-2.8125 2.8438 1.4062 1.4062 2.8438-2.8124-1.4375-1.4376zm5.6876 0-1.4376 1.4376 2.8438 2.8124 1.4062-1.4062-2.8124-2.8438zm-5.6856 0.70895 0.72657 0.7266-2.1328 2.1094-0.70312-0.7032 2.1094-2.1328zm5.6836 0 2.1094 2.1328-0.7032 0.7032-2.1328-2.1094 0.7266-0.7266zm-3.8418 0.8848v4h2v-4h-2zm0.5 0.5h1v3h-1v-3z" opacity=".3"/>
 <path id="path20" d="m2.8418 4.252-0.49805 0.49805 2.2246 2.25h0.43164v0.43555l0.15625 0.1582 1.4375-1.4375-0.50195-0.49805-0.93555 0.93555-2.3144-2.3418zm10.316 0-2.3144 2.3418-0.9356-0.93555-0.50195 0.49805 1.4376 1.4375 0.1562-0.1582v-0.43555h0.4316l2.2246-2.25-0.498-0.49805zm-6.1582 0.74805v1h2v-1h-2zm-6 4v1h3.5684l0.43164-0.43555v-0.56445h-4zm10 0v0.56445l0.4316 0.43555h3.5684v-1h-4zm-4.9082 2.3418-2.3418 2.3144-0.9082-0.9082-0.49805 0.502 1.4062 1.4062 2.8438-2.8124-0.50195-0.502zm3.8164 0-0.50195 0.502 2.8438 2.8124 1.4062-1.4062-0.498-0.502-0.9082 0.9082-2.3418-2.3144zm-2.9082 3.6582v1h2v-1h-2z" fill="#fff" opacity=".2"/>
 <path id="path25" d="m7 1v1h2v-1h-2zm-3.25 1.3438-1.4062 1.4062 0.49805 0.50195 0.9082-0.9082 2.3418 2.3144 0.50195-0.50195-2.8438-2.8125zm8.5 0-2.8438 2.8125 0.50195 0.50195 2.3418-2.3144 0.9082 0.9082 0.498-0.50195-1.4062-1.4062zm-11.25 4.6562v1h4v-0.56445l-0.43164-0.43555h-3.5684zm10.432 0-0.4316 0.43555v0.56445h4v-1h-3.5684zm-6.2754 2.4062-0.15625 0.1582v0.43555h-0.43164l-2.2246 2.25 0.49805 0.498 2.3144-2.3418 0.93555 0.9356 0.50195-0.498-1.4375-1.4376zm5.6876 0-1.4376 1.4376 0.50195 0.498 0.9356-0.9356 2.3144 2.3418 0.498-0.498-2.2246-2.25h-0.4316v-0.43555l-0.1562-0.1582zm-3.8438 1.5938v1h2v-1h-2z" opacity=".3"/>
</svg>
