<?xml version="1.0" encoding="UTF-8"?>
<svg id="svg30" width="16" height="16" version="1.1" xmlns="http://www.w3.org/2000/svg" xmlns:cc="http://creativecommons.org/ns#" xmlns:dc="http://purl.org/dc/elements/1.1/" xmlns:rdf="http://www.w3.org/1999/02/22-rdf-syntax-ns#">
 <metadata id="metadata34">
  <rdf:RDF>
   <cc:Work rdf:about="">
    <dc:format>image/svg+xml</dc:format>
    <dc:type rdf:resource="http://purl.org/dc/dcmitype/StillImage"/>
   </cc:Work>
  </rdf:RDF>
 </metadata>
 <defs id="defs7">
  <radialGradient id="gr0" cx="9" cy="10" r="11" gradientTransform="matrix(1 0 0 .72727 0 2.7273)" gradientUnits="userSpaceOnUse">
   <stop id="stop2" stop-opacity=".23529" offset="0"/>
   <stop id="stop4" stop-opacity=".54902" offset="1"/>
  </radialGradient>
 </defs>
 <path id="path9" d="m7.0332 0c-0.82852-2.226e-16 -1.498 0.69687-1.498 1.5078v0.33008c-0.05193 0.02092-0.10305 0.0423-0.1543 0.06445l-0.23438-0.23632c-0.25655-0.25656-0.64855-0.44223-1.0449-0.44532-0.37372-0.0032-0.77062 0.13391-1.0723 0.43555l-1.373 1.373c-0.57715 0.57715-0.54813 1.5593 0.00977 2.1172l0.23632 0.23438c-0.02215 0.05126-0.04354 0.10237-0.06445 0.1543h-0.33008c-0.81101 0-1.5078 0.66951-1.5078 1.498v1.9336c-2.226e-16 0.82852 0.69687 1.498 1.5078 1.498h0.33008c0.02091 0.052 0.0423 0.1031 0.06445 0.1543l-0.23632 0.2344c-0.55773 0.5577-0.5869 1.5401-0.00977 2.1172l1.373 1.3731c0.57711 0.577 1.5594 0.5479 2.1172-0.0098l0.23438-0.2363c0.05126 0.0221 0.10236 0.0435 0.1543 0.0644v0.3281c0 0.811 0.66953 1.5098 1.498 1.5098h1.9336c0.82852 0 1.498-0.6988 1.498-1.5098v-0.3281c0.052-0.0209 0.1031-0.0423 0.1543-0.0644l0.2344 0.2363c0.5577 0.5577 1.5401 0.5869 2.1172 0.0098l1.3731-1.3731c0.577-0.5771 0.5479-1.5595-0.0098-2.1172l-0.2363-0.2344c0.0221-0.0512 0.0435-0.1023 0.0644-0.1543h0.3262c0.8129 0.0029 1.5117-0.66836 1.5117-1.498v-1.9316c0-0.82975-0.6966-1.5-1.5078-1.5h-0.3301c-0.0207-0.05136-0.0425-0.10164-0.0644-0.15235l0.2363-0.23633c0.5577-0.55772 0.5869-1.5381 0.0098-2.1152l-1.3731-1.373a1 1.0001 0 0 0 0-0.00195c-0.577-0.57645-1.5596-0.5461-2.1172 0.01172l-0.2344 0.23437c-0.051-0.02203-0.1026-0.04168-0.1543-0.0625v-0.33007c0-0.81093-0.66948-1.5098-1.498-1.5098h-1.3594l0.28906 0.49414a1.0001 1.0001 0 0 0-0.86328-0.49414zm0 1h1.9336c0.27548 0 0.49804 0.22958 0.49804 0.50977v0.98632c0.4926 0.1313 0.96356 0.32958 1.3946 0.58008l0.7011-0.70117c0.198-0.1981 0.5082-0.20457 0.7032-0.00977l1.373 1.373c0.195 0.19479 0.1884 0.50305-0.0097 0.70117l-0.7032 0.70313c0.251 0.4307 0.4491 0.89998 0.5801 1.3926h0.9883c0.28 0 0.5078 0.2246 0.5078 0.5v1.9316c0 0.2755-0.2278 0.49904-0.5078 0.49804h-0.9883c-0.1312 0.49259-0.3297 0.96386-0.5801 1.3946l0.7032 0.7011c0.1979 0.1981 0.2045 0.5084 0.0097 0.7032l-1.373 1.373c-0.1948 0.195-0.5051 0.1884-0.7032-0.0097l-0.7011-0.7032c-0.4307 0.2505-0.90198 0.4488-1.3946 0.5801v0.9883c0 0.2802-0.22256 0.5078-0.49804 0.5078h-1.9336c-0.27549 0-0.49804-0.2276-0.49804-0.5078v-0.9883c-0.49259-0.1313-0.96389-0.3296-1.3945-0.5801l-0.70117 0.7032c-0.19812 0.198-0.50833 0.2046-0.70312 0.0097l-1.373-1.373c-0.19477-0.1947-0.18836-0.5051 0.00977-0.7032l0.70312-0.7011c-0.25045-0.4307-0.44883-0.90198-0.58008-1.3946h-0.98828c-0.28019 0-0.50781-0.22256-0.50781-0.49804v-1.9336c0-0.2754 0.22761-0.49804 0.50781-0.49804h0.98828c0.1313-0.4926 0.32958-0.96384 0.58008-1.3945l-0.70312-0.70117c-0.1981-0.1981-0.20457-0.50832-0.00977-0.70312l1.373-1.373c0.0974-0.0974 0.22922-0.14358 0.35742-0.14258s0.2466 0.05325 0.3457 0.15235l0.70117 0.70312c0.43061-0.2504 0.90204-0.44878 1.3945-0.58008v-0.98828c0-0.28019 0.22256-0.50781 0.49804-0.50781zm0.9668 4.8828c-1.1682 0-2.1172 0.94898-2.1172 2.1172s0.94898 2.1172 2.1172 2.1172 2.1172-0.94899 2.1172-2.1172-0.949-2.1172-2.1172-2.1172zm0 1c0.62715 0 1.1172 0.49004 1.1172 1.1172 0 0.62716-0.49003 1.1172-1.1172 1.1172s-1.1172-0.49003-1.1172-1.1172 0.49003-1.1172 1.1172-1.1172z" fill="#fff" opacity=".05"/>
 <path id="base" d="m7.0334 1c-0.27548 0-0.49855 0.22853-0.49855 0.50872v0.98692c-0.4925 0.1313-0.9632 0.3296-1.3938 0.58l-0.702-0.702c-0.0991-0.0991-0.2178-0.1516-0.346-0.1526-0.1282-0.0011-0.2587 0.045-0.3561 0.1424l-1.3735 1.3735c-0.1948 0.1948-0.188 0.504 0.0101 0.7021l0.7021 0.702c-0.2505 0.4307-0.4487 0.9013-0.58 1.3939h-0.98691c-0.2802 0-0.5087 0.2231-0.5087 0.4985v1.9331c0 0.27548 0.22853 0.49855 0.50872 0.49855h0.98691c0.13125 0.49258 0.32949 0.96325 0.57994 1.3939l-0.70203 0.70203c-0.19813 0.19813-0.20497 0.50724-0.010162 0.70203l1.3735 1.3735c0.19479 0.1948 0.50391 0.18795 0.70203-0.01015l0.70204-0.70206c0.43064 0.25046 0.90131 0.4487 1.3939 0.57994v0.98692c0 0.28019 0.22306 0.50872 0.49855 0.50872h1.9331c0.27548 0 0.49855-0.22853 0.49855-0.50872v-0.98692c0.49258-0.13124 0.96325-0.32948 1.3939-0.57994l0.70204 0.70204c0.19812 0.19812 0.50724 0.20497 0.70203 0.01015l1.3735-1.3735c0.1948-0.1948 0.18795-0.50391-0.01015-0.70203l-0.70203-0.70204c0.25046-0.43064 0.4487-0.90131 0.57994-1.3939h0.98692c0.28 1e-3 0.509-0.222 0.509-0.4975v-1.9332c0-0.2754-0.229-0.4985-0.509-0.4985h-0.98692c-0.131-0.4926-0.329-0.9632-0.58-1.3939l0.702-0.702c0.19812-0.19812 0.20497-0.50724 0.01015-0.70203l-1.373-1.3736c-0.195-0.1948-0.504-0.1879-0.702 0.0102l-0.702 0.702c-0.431-0.2505-0.9013-0.4487-1.3939-0.58v-0.98691c0-0.28019-0.22306-0.50872-0.49854-0.50872h-1.9331zm0.96657 4.8837c1.1682 0 2.1163 0.94809 2.1163 2.1163s-0.94809 2.1163-2.1163 2.1163-2.1163-0.94809-2.1163-2.1163 0.94809-2.1163 2.1163-2.1163z" fill="url(#gr0)"/>
 <path id="path15" d="m7.0332 1c-0.27548 0-0.49804 0.22762-0.49804 0.50781v0.98828c-0.4925 0.1313-0.96393 0.32968-1.3945 0.58008l-0.70117-0.70312c-0.0991-0.0991-0.2175-0.15135-0.3457-0.15235s-0.26002 0.04518-0.35742 0.14258l-1.373 1.373c-0.1948 0.1948-0.18833 0.50502 0.00977 0.70312l0.70312 0.70117c-0.2505 0.4307-0.44878 0.90194-0.58008 1.3945h-0.98828c-0.2802 0-0.50781 0.22264-0.50781 0.49804v1.9336c0 0.27548 0.22762 0.49804 0.50781 0.49804h0.98828c0.13125 0.49258 0.32963 0.96386 0.58008 1.3946l-0.70312 0.7011c-0.19813 0.1981-0.20454 0.5085-0.00977 0.7032l1.373 1.373c0.19479 0.1949 0.505 0.1883 0.70312-0.0097l0.70117-0.7032c0.43065 0.2505 0.90195 0.4488 1.3945 0.5801v0.9883c0 0.2802 0.22255 0.5078 0.49804 0.5078h1.9336c0.27548 0 0.49804-0.2276 0.49804-0.5078v-0.9883c0.49258-0.1313 0.96386-0.3296 1.3946-0.5801l0.7011 0.7032c0.1981 0.1981 0.5084 0.2047 0.7032 0.0097l1.373-1.373c0.1948-0.1948 0.1882-0.5051-0.0097-0.7032l-0.7032-0.7011c0.2504-0.4307 0.4489-0.90197 0.5801-1.3946h0.9883c0.28 1e-3 0.5078-0.22254 0.5078-0.49804v-1.9316c0-0.2754-0.2278-0.5-0.5078-0.5h-0.9883c-0.131-0.4926-0.3291-0.96188-0.5801-1.3926l0.7032-0.70313c0.1981-0.19812 0.2047-0.50638 0.0097-0.70117l-1.373-1.373c-0.195-0.1948-0.5052-0.18833-0.7032 0.00977l-0.7011 0.70117c-0.431-0.2505-0.90196-0.44878-1.3946-0.58008v-0.98632c0-0.28019-0.22256-0.50977-0.49804-0.50977h-1.9336zm0 0.5h1.9336c-0.00105 0-0.00196-0.00506-0.00196 0.00977v0.98632a0.50005 0.50005 0 0 0 0.3711 0.48438c0.44813 0.11945 0.87806 0.30062 1.2715 0.5293a0.50005 0.50005 0 0 0 0.6055-0.08008l0.7012-0.70117a0.50005 0.50005 0 0 1 0.0019 0c0.0182-0.01824-0.0098-0.01374-0.0058-0.00977l1.373 1.373c0.0036 0.00364 0.0086-0.02418-0.0098-0.00586l-0.7031 0.70312a0.50005 0.50005 0 0 0-0.0781 0.60547c0.2288 0.39264 0.4101 0.82143 0.5293 1.2695a0.50005 0.50005 0 0 0 0.4824 0.3711h0.9883c0.0144 0 0.0078 0.00177 0.0078 0v1.9316c0-0.00158 0.0057-0.00191-0.0078-0.00196h-0.9883a0.50005 0.50005 0 0 0-0.4824 0.3711c-0.1194 0.44812-0.3008 0.87856-0.5293 1.2715a0.50005 0.50005 0 0 0 0.0781 0.6055l0.7031 0.7012c0.0183 0.0183 0.0135-0.0076 0.0098-0.0039l-1.373 1.373c-0.0037 0.0036 0.0222 0.0086 0.0039-0.0098l-0.7012-0.7031a0.50005 0.50005 0 0 0-0.6055-0.0781c-0.3929 0.2285-0.82335 0.4099-1.2715 0.5293a0.50005 0.50005 0 0 0-0.3711 0.4824v0.9863c0 0.0148 9.1e-4 0.0098 0.00196 0.0098h-1.9336c0.00103 0 0.00196 0.0051 0.00196-0.0098v-0.9863a0.50005 0.50005 0 0 0-0.3711-0.4824c-0.44812-0.1194-0.87859-0.3008-1.2715-0.5293a0.50005 0.50005 0 0 0-0.60547 0.0781l-0.70117 0.7031c-0.01831 0.0183 0.00753 0.0134 0.0039 0.0098l-1.373-1.373c-0.00365-0.0037-0.00857 0.0222 0.00976 0.0039l0.70313-0.7012a0.50005 0.50005 0 0 0 0.07812-0.6055c-0.2285-0.3929-0.40989-0.82335-0.52929-1.2715a0.50005 0.50005 0 0 0-0.48243-0.3711h-0.98828c-0.01481 0-0.00781 9.1e-4 -0.00781 0.00196v-1.9336c0 0.00117-0.00698 0.00196 0.00781 0.00196h0.98828a0.50005 0.50005 0 0 0 0.48243-0.3711c0.11946-0.44818 0.30075-0.87853 0.52929-1.2715a0.50005 0.50005 0 0 0-0.07812-0.60547l-0.70313-0.70117c-0.0182-0.0182-0.01339 0.00753-0.00976 0.0039l1.3711-1.3691a0.50005 0.50005 0 0 1 0.00195 0c-0.00588-4e-5 -0.02428-0.01451-0.0039 0.00586l0.70117 0.70313a0.50005 0.50005 0 0 0 0.60547 0.07812c0.39288-0.22847 0.82344-0.40985 1.2715-0.52929a0.50005 0.50005 0 0 0 0.3711-0.48243v-0.98828c0-0.01481-9.1e-4 -0.00781-0.00196-0.00781zm0.9668 3.8828c-1.4387 0-2.6172 1.1785-2.6172 2.6172s1.1785 2.6172 2.6172 2.6172 2.6172-1.1785 2.6172-2.6172c0-1.4387-1.1785-2.6172-2.6172-2.6172zm0 0.5c1.1682 0 2.1172 0.94898 2.1172 2.1172s-0.94899 2.1172-2.1172 2.1172-2.1172-0.94899-2.1172-2.1172 0.94898-2.1172 2.1172-2.1172z" opacity=".3"/>
 <path id="path20" d="m2.5176 4.582-0.1543 0.1543c-0.1948 0.1948-0.18833 0.50502 0.00977 0.70312l0.37109 0.36914c0.09665-0.23075 0.20794-0.45461 0.33203-0.66797l-0.55859-0.55859zm10.965 0.00195-0.5586 0.5586c0.1244 0.21335 0.2354 0.43721 0.3321 0.66797l0.3711-0.3711c0.1981-0.19812 0.2047-0.50638 0.0097-0.70117l-0.1543-0.1543zm-5.4824 1.2988c-1.1682 0-2.1172 0.94898-2.1172 2.1172 0 0.17324 0.02708 0.33881 0.06641 0.5 0.22586-0.92573 1.0558-1.6172 2.0508-1.6172 0.99496 0 1.8249 0.69146 2.0508 1.6172 0.0393-0.16119 0.0664-0.32676 0.0664-0.5 0-1.1682-0.949-2.1172-2.1172-2.1172zm-7 3.084v1c0 0.2755 0.22762 0.498 0.50781 0.498h0.98828c0.06624 0.2486 0.1496 0.4915 0.24805 0.7266l0.33203-0.332c-0.25045-0.4307-0.44883-0.90198-0.58008-1.3946h-0.98828c-0.28019 0-0.50781-0.22256-0.50781-0.49804zm14 0c0 0.2755-0.2278 0.49904-0.5078 0.49804h-0.9883c-0.1312 0.49259-0.3297 0.96386-0.5801 1.3946l0.3321 0.332c0.0984-0.2351 0.1818-0.478 0.248-0.7266h0.9883c0.28 0 0.5078-0.2225 0.5078-0.498v-1zm-12.482 3.4512-0.14453 0.1425c-0.19813 0.1981-0.20454 0.5085-0.00977 0.7032l1.373 1.373c0.19479 0.1949 0.505 0.1883 0.70312-0.0097l0.70117-0.7032c0.43065 0.2505 0.90195 0.4488 1.3945 0.5801v0.9883c0 0.2802 0.22255 0.5078 0.49804 0.5078h1.9336c0.27548 0 0.49804-0.2276 0.49804-0.5078v-0.9883c0.49258-0.1313 0.96386-0.3296 1.3946-0.5801l0.7011 0.7032c0.1981 0.1981 0.5084 0.2047 0.7032 0.0097l1.373-1.373c0.1948-0.1948 0.1882-0.5051-0.0097-0.7032l-0.1446-0.1425-1.2187 1.2187c-0.1948 0.195-0.5051 0.1884-0.7032-0.0097l-0.7011-0.7032c-0.4307 0.2505-0.90198 0.4488-1.3946 0.5801v0.9883c0 0.2802-0.22256 0.5078-0.49804 0.5078h-1.9336c-0.27549 0-0.49804-0.2276-0.49804-0.5078v-0.9883c-0.49259-0.1313-0.96389-0.3296-1.3945-0.5801l-0.70117 0.7032c-0.19812 0.198-0.50833 0.2046-0.70312 0.0097l-1.2188-1.2187z" fill="#fff" opacity=".2"/>
 <path id="path25" d="m7.0332 1c-0.27548 0-0.49804 0.22762-0.49804 0.50781v0.98828c-0.4925 0.1313-0.96393 0.32968-1.3945 0.58008l-0.70117-0.70312c-0.0991-0.0991-0.2175-0.15135-0.3457-0.15235s-0.26002 0.04518-0.35742 0.14258l-1.373 1.373c-0.1948 0.1948-0.18833 0.50502 0.00977 0.70312l0.14453 0.14258 1.2188-1.2188c0.0974-0.0974 0.22922-0.14358 0.35742-0.14258s0.2466 0.05325 0.3457 0.15235l0.70117 0.70312c0.43061-0.2504 0.90204-0.44878 1.3945-0.58008v-0.98828c0-0.28019 0.22256-0.50781 0.49804-0.50781h1.9336c0.27548 0 0.49804 0.22958 0.49804 0.50977v0.98632c0.4926 0.1313 0.96356 0.32958 1.3946 0.58008l0.7011-0.70117c0.198-0.1981 0.5082-0.20457 0.7032-0.00977l1.2187 1.2188 0.1446-0.14453c0.1981-0.19812 0.2047-0.50638 0.0097-0.70117l-1.373-1.373c-0.195-0.1948-0.5052-0.18833-0.7032 0.00977l-0.7011 0.70117c-0.431-0.2505-0.90196-0.44878-1.3946-0.58008v-0.98632c0-0.28019-0.22256-0.50977-0.49804-0.50977h-1.9336zm-4.2891 4.8086c-0.09846 0.23508-0.18179 0.47798-0.24805 0.72657h-0.98828c-0.2802 0-0.50781 0.22264-0.50781 0.49804v1c0-0.2754 0.22761-0.49804 0.50781-0.49804h0.98828c0.1313-0.4926 0.32958-0.96384 0.58008-1.3945l-0.33203-0.33203zm10.512 0.00196-0.3321 0.33203c0.251 0.4307 0.4491 0.89998 0.5801 1.3926h0.9883c0.28 0 0.5078 0.2246 0.5078 0.5v-1c0-0.2754-0.2278-0.5-0.5078-0.5h-0.9883c-0.0661-0.24859-0.1496-0.48953-0.248-0.72461zm-7.3067 2.6894c-0.03933 0.16119-0.06641 0.32676-0.06641 0.5 0 1.1682 0.94898 2.1172 2.1172 2.1172s2.1172-0.949 2.1172-2.1172c0-0.17324-0.0271-0.33881-0.0664-0.5-0.22589 0.92573-1.0558 1.6172-2.0508 1.6172s-1.8249-0.69147-2.0508-1.6172zm-3.2051 2.6914-0.37109 0.3691c-0.19813 0.1981-0.20454 0.5085-0.00977 0.7032l0.1543 0.1543 0.55859-0.5586c-0.12406-0.2134-0.23539-0.4372-0.33203-0.668zm10.512 0c-0.0967 0.2308-0.208 0.4546-0.3321 0.668l0.5586 0.5586 0.1543-0.1543c0.1948-0.1948 0.1882-0.5051-0.0097-0.7032l-0.3711-0.3691z" opacity=".3"/>
</svg>
