<?xml version="1.0" encoding="UTF-8"?>
<svg id="svg30" width="16" height="16" version="1.1" xmlns="http://www.w3.org/2000/svg" xmlns:cc="http://creativecommons.org/ns#" xmlns:dc="http://purl.org/dc/elements/1.1/" xmlns:rdf="http://www.w3.org/1999/02/22-rdf-syntax-ns#">
 <metadata id="metadata34">
  <rdf:RDF>
   <cc:Work rdf:about="">
    <dc:format>image/svg+xml</dc:format>
    <dc:type rdf:resource="http://purl.org/dc/dcmitype/StillImage"/>
   </cc:Work>
  </rdf:RDF>
 </metadata>
 <defs id="defs7">
  <radialGradient id="gr0" cx="9" cy="10" r="11" gradientTransform="matrix(1 0 0 .54545 0 4.5455)" gradientUnits="userSpaceOnUse">
   <stop id="stop2" stop-opacity=".23529" offset="0"/>
   <stop id="stop4" stop-opacity=".54902" offset="1"/>
  </radialGradient>
 </defs>
 <path id="path9" d="m9 2c-1.0907 0-2 0.9093-2 2h-5c-1.0907 0-2 0.9093-2 2v3a1 1.0001 0 0 0 0.13477 0.5 1.0001 1.0001 0 0 0-0.13477 0.5v2a1.0001 1.0001 0 0 0 1 1h1v1a1.0001 1.0001 0 0 0 1 1h2a1.0001 1.0001 0 0 0 1-1v-1h1a1.0001 1.0001 0 0 0 0.5-0.1348 1.0001 1.0001 0 0 0 0.5 0.1348h7a1.0001 1.0001 0 0 0 1-1v-8c0-1.0907-0.9093-2-2-2h-5zm0 1h5c0.554 0 1 0.446 1 1v8h-7v-3h-2v-2h-4v2h-1v-3c0-0.554 0.446-1 1-1h6v-1c0-0.554 0.446-1 1-1zm1 2v1h3v-1h-3zm-7 3h2v2h2v2h-2v2h-2v-2h-2v-2h2v-2z" fill="#fff" opacity=".05"/>
 <path id="base" d="m9 3c-0.554 0-1 0.446-1 1v1h-6c-0.554 0-1 0.446-1 1v3h1v-2h4v2h2v3h7v-8c0-0.554-0.446-1-1-1h-5zm1 2h3v1h-3v-1zm-7 3v2h-2v2h2v2h2v-2h2v-2h-2v-2h-2z" fill="url(#gr0)"/>
 <path id="path15" d="m9 3c-0.554 0-1 0.446-1 1v1h-6c-0.554 0-1 0.446-1 1v3h1v-2h4v2h2v3h7v-8c0-0.554-0.446-1-1-1h-5zm0 0.5h5c0.2856 0 0.5 0.21435 0.5 0.5v7.5h-6v-2.5a0.50005 0.50005 0 0 0-0.5-0.5h-1.5v-1.5a0.50005 0.50005 0 0 0-0.5-0.5h-4a0.50005 0.50005 0 0 0-0.5 0.5v-1c0-0.28565 0.21435-0.5 0.5-0.5h6a0.50005 0.50005 0 0 0 0.5-0.5v-1c0-0.28565 0.21435-0.5 0.5-0.5zm1 1a0.50005 0.50005 0 0 0-0.5 0.5v1a0.50005 0.50005 0 0 0 0.5 0.5h3a0.50005 0.50005 0 0 0 0.5-0.5v-1a0.50005 0.50005 0 0 0-0.5-0.5h-3zm0 0.5h3v1h-3v-1zm-7 3v2h-2v2h2v2h2v-2h2v-2h-2v-2h-2zm0.5 0.5h1v1.5a0.50005 0.50005 0 0 0 0.5 0.5h1.5v1h-1.5a0.50005 0.50005 0 0 0-0.5 0.5v1.5h-1v-1.5a0.50005 0.50005 0 0 0-0.5-0.5h-1.5v-1h1.5a0.50005 0.50005 0 0 0 0.5-0.5v-1.5z" opacity=".3"/>
 <path id="path20" d="m10 5v1h3v-1h-3zm-8 2v1h1 2 1v-1h-4zm-1 2v1h1v-1h-1zm5 0v1h1 1v-1h-2zm-5 3v1h2v-1h-2zm4 0v1h2v-1h-2zm3 0v1h7v-1h-7zm-5 2v1h2v-1h-2z" fill="#fff" opacity=".2"/>
 <path id="path25" d="m9 3c-0.554 0-1 0.446-1 1v1c0-0.554 0.446-1 1-1h5c0.554 0 1 0.446 1 1v-1c0-0.554-0.446-1-1-1h-5zm-1 2h-6c-0.554 0-1 0.446-1 1v1c0-0.554 0.446-1 1-1h6v-1zm2 1v1h3v-1h-3zm-7 2v1h2v-1h-2zm-2 2v1h2v-1h-1-1zm4 0v1h2v-1h-1-1z" opacity=".3"/>
</svg>
