<?xml version="1.0" encoding="UTF-8"?>
<svg id="svg32" width="16" height="16" version="1.1" xmlns="http://www.w3.org/2000/svg" xmlns:cc="http://creativecommons.org/ns#" xmlns:dc="http://purl.org/dc/elements/1.1/" xmlns:rdf="http://www.w3.org/1999/02/22-rdf-syntax-ns#">
 <metadata id="metadata36">
  <rdf:RDF>
   <cc:Work rdf:about="">
    <dc:format>image/svg+xml</dc:format>
    <dc:type rdf:resource="http://purl.org/dc/dcmitype/StillImage"/>
   </cc:Work>
  </rdf:RDF>
 </metadata>
 <defs id="defs7">
  <radialGradient id="gr0" cx="9" cy="10" r="11" gradientTransform="matrix(1 0 0 .72727 0 2.7273)" gradientUnits="userSpaceOnUse">
   <stop id="stop2" stop-opacity=".23529" offset="0"/>
   <stop id="stop4" stop-opacity=".54902" offset="1"/>
  </radialGradient>
 </defs>
 <path id="path9" d="m1 0a1 1.0001 0 0 0-0.75195 1.6582l5.5645 6.3594a1.0001 1.0001 0 0 0-0.8125 0.98242v1h-4a1.0001 1.0001 0 0 0-1 1v2a1.0001 1.0001 0 0 0 1 1h4v1a1.0001 1.0001 0 0 0 1.5996 0.8008l4-3a1.0001 1.0001 0 0 0 0-1.6016l-1.5996-1.1992h6a1.0001 1.0001 0 0 0 0.752-1.6582l-7-8a1.0001 1.0001 0 0 0-0.75195-0.3418h-7zm0 1h7l7 8h-7l-7-8zm5 8 4 3-4 3v-2h-5v-2h5v-2z" fill="#fff" opacity=".05"/>
 <path id="base" d="m1 1 7 8h7l-7-8h-7zm5 8v2h-5v2h5v2l4-3-4-3z" fill="url(#gr0)"/>
 <path id="path15" d="m1 1v6h5.25l-5.25-6z" opacity=".2"/>
 <path id="path17" d="m1 1 7 8h7l-7-8h-7zm1.1035 0.5h5.6699l6.1231 7h-5.6699l-6.123-7zm3.8965 7.5v2h-5v2h5v2l4-3-4-3zm0.5 1 2.666 2-2.666 2v-1a0.50005 0.50005 0 0 0-0.5-0.5h-4.5v-1h4.5a0.50005 0.50005 0 0 0 0.5-0.5v-1z" opacity=".3"/>
 <path id="path22" d="m1 2 7 8h7l-0.875-1h-6.125l-6.125-7h-0.875zm8.334 10.5-3.334 2.5v1l4-3-0.66602-0.5zm-8.334 0.5v1h5v-1h-5z" fill="#fff" opacity=".2"/>
 <path id="path27" d="m1 1 0.875 1h6.125l6.125 7h0.875l-7-8h-7zm5 8v1l3.334 2.5 0.66602-0.5-4-3zm-5 2v1h5v-1h-5z" opacity=".3"/>
</svg>
