<?xml version="1.0" encoding="UTF-8"?>
<svg id="svg30" width="16" height="16" version="1.1" xmlns="http://www.w3.org/2000/svg" xmlns:cc="http://creativecommons.org/ns#" xmlns:dc="http://purl.org/dc/elements/1.1/" xmlns:rdf="http://www.w3.org/1999/02/22-rdf-syntax-ns#">
 <metadata id="metadata34">
  <rdf:RDF>
   <cc:Work rdf:about="">
    <dc:format>image/svg+xml</dc:format>
    <dc:type rdf:resource="http://purl.org/dc/dcmitype/StillImage"/>
   </cc:Work>
  </rdf:RDF>
 </metadata>
 <defs id="defs7">
  <radialGradient id="gr0" cx="9" cy="10" r="11" gradientTransform="matrix(1 0 0 .72727 0 2.7273)" gradientUnits="userSpaceOnUse">
   <stop id="stop2" stop-opacity=".23529" offset="0"/>
   <stop id="stop4" stop-opacity=".54902" offset="1"/>
  </radialGradient>
 </defs>
 <path id="path9" d="m4.9707 0a1 1.0001 0 0 0-0.57031 0.19922l-4 3a1.0001 1.0001 0 0 0 0 1.6016l4 3a1.0001 1.0001 0 0 0 1.5996-0.80078v-1h4v1a1.0001 1.0001 0 0 0 1.5996 0.80078l4-3a1.0001 1.0001 0 0 0 0-1.6016l-4-3a1.0001 1.0001 0 0 0-1.5996 0.80078v1h-4v-1a1.0001 1.0001 0 0 0-1.0293-1zm0.0293 1v2h6v-2l4 3-4 3v-2h-6v2l-4-3 4-3zm1 7c-1.0907 0-2 0.9093-2 2v4c0 1.0907 0.9093 2 2 2h4c1.0907 0 2-0.9093 2-2v-4c0-1.0907-0.9093-2-2-2h-4zm0 1h4c0.554 0 1 0.446 1 1v4c0 0.554-0.446 1-1 1h-4c-0.554 0-1-0.446-1-1v-4c0-0.554 0.446-1 1-1z" fill="#fff" opacity=".05"/>
 <path id="base" d="m5 1-4 3 4 3v-2h6v2l4-3-4-3v2h-6v-2zm1 8c-0.554 0-1 0.446-1 1v4c0 0.554 0.446 1 1 1h4c0.554 0 1-0.446 1-1v-4c0-0.554-0.446-1-1-1h-4z" fill="url(#gr0)"/>
 <path id="path15" d="m5 1-4 3 4 3v-2h6v2l4-3-4-3v2h-6v-2zm-0.5 1v1a0.50005 0.50005 0 0 0 0.5 0.5h6a0.50005 0.50005 0 0 0 0.5-0.5v-1l2.666 2-2.666 2v-1a0.50005 0.50005 0 0 0-0.5-0.5h-6a0.50005 0.50005 0 0 0-0.5 0.5v1l-2.666-2 2.666-2zm1.5 7c-0.554 0-1 0.446-1 1v4c0 0.554 0.446 1 1 1h4c0.554 0 1-0.446 1-1v-4c0-0.554-0.446-1-1-1h-4zm0 0.5h4c0.2856 0 0.5 0.21435 0.5 0.5v4c0 0.2856-0.2144 0.5-0.5 0.5h-4c-0.28565 0-0.5-0.2144-0.5-0.5v-4c0-0.28565 0.21435-0.5 0.5-0.5z" opacity=".3"/>
 <path id="path20" d="m1.666 4.5-0.66602 0.5 4 3v-1l-3.334-2.5zm12.668 0-3.334 2.5v1l4-3-0.666-0.5zm-9.334 0.5v1h6v-1h-6zm0 9v1c0 0.554 0.446 1 1 1h4c0.554 0 1-0.446 1-1v-1c0 0.554-0.446 1-1 1h-4c-0.554 0-1-0.446-1-1z" fill="#fff" opacity=".2"/>
 <path id="path25" d="m5 1-4 3 0.66602 0.5 3.334-2.5v-1zm6 0v1l3.334 2.5 0.666-0.5-4-3zm-6 2v1h6v-1h-6zm1 6c-0.554 0-1 0.446-1 1v1c0-0.554 0.446-1 1-1h4c0.554 0 1 0.446 1 1v-1c0-0.554-0.446-1-1-1h-4z" opacity=".3"/>
</svg>
