<?xml version="1.0" encoding="UTF-8"?>
<svg id="svg30" width="16" height="16" version="1.1" xmlns="http://www.w3.org/2000/svg" xmlns:cc="http://creativecommons.org/ns#" xmlns:dc="http://purl.org/dc/elements/1.1/" xmlns:rdf="http://www.w3.org/1999/02/22-rdf-syntax-ns#">
 <metadata id="metadata34">
  <rdf:RDF>
   <cc:Work rdf:about="">
    <dc:format>image/svg+xml</dc:format>
    <dc:type rdf:resource="http://purl.org/dc/dcmitype/StillImage"/>
   </cc:Work>
  </rdf:RDF>
 </metadata>
 <defs id="defs7">
  <radialGradient id="gr0" cx="9" cy="10" r="11" gradientTransform="matrix(1 0 0 .72727 0 2.7273)" gradientUnits="userSpaceOnUse">
   <stop id="stop2" stop-opacity=".23529" offset="0"/>
   <stop id="stop4" stop-opacity=".54902" offset="1"/>
  </radialGradient>
 </defs>
 <path id="path9" d="m8.5 0c-3.5771 0.0012327-6.5029 2.5828-7.2227 6h-1.2773a1 1.0001 0 0 0-0.85742 1.5137l3 5a1.0001 1.0001 0 0 0 1.7148 0l3-5a1.0001 1.0001 0 0 0-0.85742-1.5137h-0.4043c0.58605-1.1248 1.562-1.999 2.9043-2 1.9449 0 3.5 1.5551 3.5 3.5 0 1.9428-1.5524 3.4968-3.4941 3.5-0.13119-8e-4 -0.26045-0.0082-0.38672-0.0234a1.0001 1.0001 0 0 0-1.1191 0.9922v2.0097a1.0001 1.0001 0 0 0 0.91992 0.9981c0.19197 0.0154 0.38365 0.0227 0.57617 0.0234a1.0001 1.0001 0 0 0 0.00391 0c4.1303 0 7.5-3.3697 7.5-7.5 0-4.1303-3.3697-7.5-7.5-7.5zm0 1c3.5899 0 6.5 2.9101 6.5 6.5s-2.9101 6.5-6.5 6.5c-0.16687-1e-3 -0.33366-0.0085-0.5-0.0215v-2.0097c0.166 0.02 0.3329 0.0302 0.5 0.0312 2.485 0 4.5-2.0147 4.5-4.5s-2.0147-4.5-4.5-4.5c-2.2905 0.0017-4.2142 1.7237-4.4688 4h1.9688l-3 5-3-5h2.0215c0.2612-3.385 3.0834-5.999 6.4785-6z" fill="#fff" opacity=".05"/>
 <path id="base" d="m8.5 1c-3.3951 0.00117-6.2173 2.615-6.4785 6h-2.0215l3 5 3-5h-1.9688c0.2545-2.2763 2.1783-3.9983 4.4688-4 2.4853 0 4.5 2.0147 4.5 4.5s-2.015 4.5-4.5 4.5c-0.1671-1e-3 -0.334-0.011-0.5-0.031v2.01c0.16634 0.01342 0.33313 0.02042 0.5 0.021 3.5899 0 6.5-2.9101 6.5-6.5s-2.9101-6.5-6.5-6.5z" fill="url(#gr0)"/>
 <path id="path15" d="m8.5 1c-3.3951 1e-3 -6.2173 2.615-6.4785 6h-2.0215l3 5 3-5h-1.9688c0.2545-2.2763 2.1782-3.9983 4.4688-4 2.4853 0 4.5 2.0147 4.5 4.5s-2.015 4.5-4.5 4.5c-0.1671-1e-3 -0.334-0.0112-0.5-0.0312v2.0097c0.16634 0.013 0.33313 0.0205 0.5 0.0215 3.5899 0 6.5-2.9101 6.5-6.5s-2.9101-6.5-6.5-6.5zm0 0.5c3.3197 0 6 2.6803 6 6 0 3.319-2.6793 5.9989-5.998 6h-0.00195v-1c2.7552 0 5-2.2444 5-5 0-2.7555-2.2445-5-5-5-2.5409 0.00189-4.6825 1.9202-4.9648 4.4453a0.50005 0.50005 0 0 0 0.49609 0.55469h1.084l-2.1152 3.5254-2.1152-3.5254h1.1367a0.50005 0.50005 0 0 0 0.49805-0.46094c0.24147-3.1292 2.8419-5.538 5.9805-5.5391z" opacity=".3"/>
 <path id="path20" d="m8.5 3c-2.2905 0.0017-4.2142 1.7237-4.4688 4h0.24414c0.62352-1.7591 2.286-2.9986 4.2246-3 2.3139 0 4.1973 1.7534 4.4492 4 0.0187-0.16642 0.0508-0.3286 0.0508-0.5 0-2.4853-2.0147-4.5-4.5-4.5zm-8.5 5 3 5 3-5h-0.59961l-2.4004 4-2.4004-4h-0.59961zm14.975 0c-0.2563 3.3553-3.0536 6-6.4746 6-0.16687-1e-3 -0.33366-0.0085-0.5-0.0215v1c0.16634 0.013 0.33313 0.0205 0.5 0.0215 3.5899 0 6.5-2.9101 6.5-6.5 0-0.16894-0.0127-0.3343-0.0254-0.5z" fill="#fff" opacity=".2"/>
 <path id="path25" d="m8.5 1c-3.3951 1e-3 -6.2173 2.615-6.4785 6h-2.0215l0.59961 1h1.4219c0.2612-3.385 3.0834-5.999 6.4785-6 3.421 0 6.2183 2.6447 6.4746 6 0.0127-0.1657 0.0254-0.33106 0.0254-0.5 0-3.5899-2.9101-6.5-6.5-6.5zm-4.2246 6c-0.11319 0.31934-0.20504 0.65026-0.24414 1h1.3691l0.59961-1h-1.7246zm8.6738 1c-0.2519 2.2466-2.1356 4-4.4492 4-0.1671-1e-3 -0.334-0.0112-0.5-0.0312v1c0.166 0.02 0.3329 0.0302 0.5 0.0312 2.485 0 4.5-2.0147 4.5-4.5 0-0.1714-0.0321-0.33358-0.0508-0.5z" opacity=".3"/>
</svg>
