<?xml version="1.0" encoding="UTF-8"?>
<svg id="svg30" width="16" height="16" version="1.1" xmlns="http://www.w3.org/2000/svg" xmlns:cc="http://creativecommons.org/ns#" xmlns:dc="http://purl.org/dc/elements/1.1/" xmlns:rdf="http://www.w3.org/1999/02/22-rdf-syntax-ns#">
 <metadata id="metadata34">
  <rdf:RDF>
   <cc:Work rdf:about="">
    <dc:format>image/svg+xml</dc:format>
    <dc:type rdf:resource="http://purl.org/dc/dcmitype/StillImage"/>
   </cc:Work>
  </rdf:RDF>
 </metadata>
 <defs id="defs7">
  <radialGradient id="gr0" cx="9" cy="10" r="11" gradientTransform="matrix(1 0 0 .72727 0 2.7273)" gradientUnits="userSpaceOnUse">
   <stop id="stop2" stop-opacity=".23529" offset="0"/>
   <stop id="stop4" stop-opacity=".54902" offset="1"/>
  </radialGradient>
 </defs>
 <path id="path9" d="m7 0c-1.0907-1.4572e-16 -2 0.9093-2 2v2c0 0.63005 0.34402 1.1313 0.81055 1.5-0.46653 0.36868-0.81055 0.86995-0.81055 1.5v2c0 0.63005 0.34402 1.1313 0.81055 1.5-0.46653 0.3687-0.81055 0.87-0.81055 1.5v2c0 1.0907 0.9093 2 2 2h2c1.0907 0 2-0.9093 2-2v-2c0-0.63-0.344-1.1313-0.8105-1.5 0.4665-0.3687 0.8105-0.86995 0.8105-1.5v-2c0-0.63005-0.344-1.1313-0.8105-1.5 0.4665-0.36868 0.8105-0.86995 0.8105-1.5v-2c0-1.0907-0.9093-2-2-2h-2zm0 1h2c0.554 0 1 0.446 1 1v2c0 0.554-0.446 1-1 1h-2c-0.554 0-1-0.446-1-1v-2c0-0.554 0.446-1 1-1zm0 5h2c0.554 0 1 0.446 1 1v2c0 0.554-0.446 1-1 1h-2c-0.554 0-1-0.446-1-1v-2c0-0.554 0.446-1 1-1zm0 5h2c0.554 0 1 0.446 1 1v2c0 0.554-0.446 1-1 1h-2c-0.554 0-1-0.446-1-1v-2c0-0.554 0.446-1 1-1z" fill="#fff" fill-rule="evenodd" opacity=".05"/>
 <path id="base" d="m7 1c-.554 0-1 .446-1 1v2c0 .554.446 1 1 1h2c.554 0 1-.446 1-1v-2c0-.554-.446-1-1-1h-2zm0 5c-.554 0-1 .446-1 1v2c0 .554.446 1 1 1h2c.554 0 1-.446 1-1v-2c0-.554-.446-1-1-1h-2zm0 5c-.554 0-1 .446-1 1v2c0 .554.446 1 1 1h2c.554 0 1-.446 1-1v-2c0-.554-.446-1-1-1h-2z" fill="url(#gr0)" fill-rule="evenodd"/>
 <path id="path15" d="m7 1c-0.554 0-1 0.446-1 1v2c0 0.554 0.446 1 1 1h2c0.554 0 1-0.446 1-1v-2c0-0.554-0.446-1-1-1h-2zm0 0.5h2c0.28565 0 0.5 0.21435 0.5 0.5v2c0 0.28565-0.21435 0.5-0.5 0.5h-2c-0.28565 0-0.5-0.21435-0.5-0.5v-2c0-0.28565 0.21435-0.5 0.5-0.5zm0 4.5c-0.554 0-1 0.446-1 1v2c0 0.554 0.446 1 1 1h2c0.554 0 1-0.446 1-1v-2c0-0.554-0.446-1-1-1h-2zm0 0.5h2c0.28565 0 0.5 0.21435 0.5 0.5v2c0 0.28565-0.21435 0.5-0.5 0.5h-2c-0.28565 0-0.5-0.21435-0.5-0.5v-2c0-0.28565 0.21435-0.5 0.5-0.5zm0 4.5c-0.554 0-1 0.446-1 1v2c0 0.554 0.446 1 1 1h2c0.554 0 1-0.446 1-1v-2c0-0.554-0.446-1-1-1h-2zm0 0.5h2c0.28565 0 0.5 0.2144 0.5 0.5v2c0 0.2856-0.21435 0.5-0.5 0.5h-2c-0.28565 0-0.5-0.2144-0.5-0.5v-2c0-0.2856 0.21435-0.5 0.5-0.5z" fill-rule="evenodd" opacity=".3"/>
 <path id="path20" d="m6 4v1c0 0.554 0.446 1 1 1h2c0.554 0 1-0.446 1-1v-1c0 0.554-0.446 1-1 1h-2c-0.554 0-1-0.446-1-1zm0 5v1c0 0.554 0.446 1 1 1h2c0.554 0 1-0.446 1-1v-1c0 0.554-0.446 1-1 1h-2c-0.554 0-1-0.446-1-1zm0 5v1c0 0.554 0.446 1 1 1h2c0.554 0 1-0.446 1-1v-1c0 0.554-0.446 1-1 1h-2c-0.554 0-1-0.446-1-1z" fill="#fff" fill-rule="evenodd" opacity=".2"/>
 <path id="path25" d="m7 1c-0.554 0-1 0.446-1 1v1c0-0.554 0.446-1 1-1h2c0.554 0 1 0.446 1 1v-1c0-0.554-0.446-1-1-1h-2zm0 5c-0.554 0-1 0.446-1 1v1c0-0.554 0.446-1 1-1h2c0.554 0 1 0.446 1 1v-1c0-0.554-0.446-1-1-1h-2zm0 5c-0.554 0-1 0.446-1 1v1c0-0.554 0.446-1 1-1h2c0.554 0 1 0.446 1 1v-1c0-0.554-0.446-1-1-1h-2z" fill-rule="evenodd" opacity=".3"/>
</svg>
