<?xml version="1.0" encoding="UTF-8"?>
<svg id="svg30" width="16" height="16" version="1.1" xmlns="http://www.w3.org/2000/svg" xmlns:cc="http://creativecommons.org/ns#" xmlns:dc="http://purl.org/dc/elements/1.1/" xmlns:rdf="http://www.w3.org/1999/02/22-rdf-syntax-ns#">
 <metadata id="metadata34">
  <rdf:RDF>
   <cc:Work rdf:about="">
    <dc:format>image/svg+xml</dc:format>
    <dc:type rdf:resource="http://purl.org/dc/dcmitype/StillImage"/>
   </cc:Work>
  </rdf:RDF>
 </metadata>
 <defs id="defs7">
  <radialGradient id="gr0" cx="9" cy="10" r="11" gradientTransform="matrix(1 0 0 .54545 0 4.5455)" gradientUnits="userSpaceOnUse">
   <stop id="stop2" stop-opacity=".23529" offset="0"/>
   <stop id="stop4" stop-opacity=".54902" offset="1"/>
  </radialGradient>
 </defs>
 <path id="path9" d="m1 2a1 1.0001 0 0 0-1 1v2.5h1v-2.5h5.5c0.831 0 1.5 0.669 1.5 1.5v8c0 0.831-0.669 1.5-1.5 1.5h-5.5v-2.5c0 0.277 0.223 0.5 0.5 0.5h4c0.277 0 0.5-0.223 0.5-0.5v-6c0-0.277-0.223-0.5-0.5-0.5h-4c-0.277 0-0.5 0.223-0.5 0.5h0.13477a1.0001 1.0001 0 0 0-0.13477 0.5v1a1.0001 1.0001 0 0 0 0.13477 0.5 1.0001 1.0001 0 0 0-0.13477 0.5v1a1.0001 1.0001 0 0 0 0.13477 0.5 1.0001 1.0001 0 0 0-0.13477 0.5v0.5156a1.0001 1.0001 0 0 0-1 0.9844v2.5a1.0001 1.0001 0 0 0 1 1h5.5c0.90345 0 1.5605-0.5731 2-1.3027 0.43951 0.7296 1.0966 1.3027 2 1.3027h4.5176a1.0001 1.0001 0 0 0 1-1v-2a1.0001 1.0001 0 0 0-0.1446-0.5156 1.0001 1.0001 0 0 0 0.127-0.4844v-1a1.0001 1.0001 0 0 0-0.1348-0.5 1.0001 1.0001 0 0 0 0.1348-0.5v-1a1.0001 1.0001 0 0 0-0.1348-0.5 1.0001 1.0001 0 0 0 0.1348-0.5v-1a1.0001 1.0001 0 0 0-0.127-0.48438 1.0001 1.0001 0 0 0 0.1446-0.51562v-2a1.0001 1.0001 0 0 0-1-1h-4.5176c-0.90345 0-1.5605 0.57311-2 1.3027-0.43951-0.72962-1.0966-1.3027-2-1.3027h-5.5zm9.5 1h4.5176v2h-3.5176c-0.277 0-0.5 0.223-0.5 0.5v6c0 0.277 0.223 0.5 0.5 0.5h3.5176v2h-4.5176c-0.831 0-1.5-0.669-1.5-1.5v-8c0-0.831 0.669-1.5 1.5-1.5zm-8.5 3h3v1h-3v-1zm10 0h3v1h-3v-1zm-10 2h3v1h-3v-1zm10 0h3v1h-3v-1zm-10 2h3v1h-3v-1zm10 0h3v1h-3v-1z" fill="#fff" opacity=".05"/>
 <path id="base" d="m1 3v2.5c0-.277.223-.5.5-.5h4c.277 0 .5.223.5.5v6c0 .277-.223.5-.5.5h-4c-.277 0-.5-.223-.5-.5v2.5h5.5c.831 0 1.5-.669 1.5-1.5v-8c0-.831-.669-1.5-1.5-1.5h-5.5zm9.5 0c-.8310 0-1.5.669-1.5 1.5v8c0 .831.6690 1.5 1.5 1.5h4.518v-2h-3.518c-.277 0-0.5-.223-0.5-.5v-6c0-.277.223-.5 0.5-.5h3.518v-2h-4.518zm-8.5 3v1h3v-1h-3zm10 0v1h3v-1h-3zm-10 2v1h3v-1h-3zm10 0v1h3v-1h-3zm-10 2v1h3v-1h-3zm10 0v1h3v-1h-3z" fill="url(#gr0)"/>
 <path id="path15" d="m1 3v2.5c0-0.277 0.223-0.5 0.5-0.5h4c0.277 0 0.5 0.223 0.5 0.5v6c0 0.277-0.223 0.5-0.5 0.5h-4c-0.277 0-0.5-0.223-0.5-0.5v2.5h5.5c0.831 0 1.5-0.669 1.5-1.5v-8c0-0.831-0.669-1.5-1.5-1.5h-5.5zm9.5 0c-0.831 0-1.5 0.669-1.5 1.5v8c0 0.831 0.669 1.5 1.5 1.5h4.5176v-2h-3.5176c-0.277 0-0.5-0.223-0.5-0.5v-6c0-0.277 0.223-0.5 0.5-0.5h3.5176v-2h-4.5176zm-9 0.5h5c0.56265 0 1 0.43735 1 1v8c0 0.5626-0.43735 1-1 1h-5v-1h4c0.54535 0 1-0.4546 1-1v-6c0-0.54535-0.45465-1-1-1h-4v-1zm9 0h4.0176v1h-3.0176c-0.5454 0-1 0.45465-1 1v6c0 0.5454 0.4546 1 1 1h3.0176v1h-4.0176c-0.56265 0-1-0.4374-1-1v-8c0-0.56265 0.43735-1 1-1zm-8.5 2.5v1h3v-1h-3zm10 0v1h3v-1h-3zm-10 2v1h3v-1h-3zm10 0v1h3v-1h-3zm-10 2v1h3v-1h-3zm10 0v1h3v-1h-3z" opacity=".3"/>
 <path id="path20" d="m1.5 5c-0.277 0-0.5 0.223-0.5 0.5v1c0-0.277 0.223-0.5 0.5-0.5h0.5 3 0.5c0.277 0 0.5 0.223 0.5 0.5v-1c0-0.277-0.223-0.5-0.5-0.5h-4zm10 0c-0.277 0-0.5 0.223-0.5 0.5v1c0-0.277 0.223-0.5 0.5-0.5h0.5 3 0.0176v-1h-3.5176zm-9.5 2v1h3v-1h-3zm10 0v1h3v-1h-3zm-10 2v1h3v-1h-3zm10 0v1h3v-1h-3zm-10 2v1h3v-1h-3zm10 0v1h3v-1h-3zm-4 1.5c0 0.831-0.669 1.5-1.5 1.5h-5.5v1h5.5c0.831 0 1.5-0.669 1.5-1.5v-1zm1 0v1c0 0.831 0.669 1.5 1.5 1.5h4.5176v-1h-4.5176c-0.831 0-1.5-0.669-1.5-1.5z" fill="#fff" opacity=".2"/>
 <path id="path25" d="m1 3v1h5.5c0.831 0 1.5 0.669 1.5 1.5v-1c0-0.831-0.669-1.5-1.5-1.5h-5.5zm9.5 0c-0.831 0-1.5 0.669-1.5 1.5v1c0-0.831 0.669-1.5 1.5-1.5h4.5176v-1h-4.5176zm-8.5 3v1h3v-1h-3zm10 0v1h3v-1h-3zm-10 2v1h3v-1h-3zm10 0v1h3v-1h-3zm-10 2v1h3v-1h-3zm10 0v1h3v-1h-3zm-11 1.5v1c0 0.277 0.223 0.5 0.5 0.5h4c0.277 0 0.5-0.223 0.5-0.5v-1c0 0.277-0.223 0.5-0.5 0.5h-0.5-3-0.5c-0.277 0-0.5-0.223-0.5-0.5zm10 0v1c0 0.277 0.223 0.5 0.5 0.5h3.5176v-1h-0.0176-3-0.5c-0.277 0-0.5-0.223-0.5-0.5z" opacity=".3"/>
</svg>
