<?xml version="1.0" encoding="UTF-8"?>
<svg id="svg30" width="16" height="16" version="1.1" xmlns="http://www.w3.org/2000/svg" xmlns:cc="http://creativecommons.org/ns#" xmlns:dc="http://purl.org/dc/elements/1.1/" xmlns:rdf="http://www.w3.org/1999/02/22-rdf-syntax-ns#">
 <metadata id="metadata34">
  <rdf:RDF>
   <cc:Work rdf:about="">
    <dc:format>image/svg+xml</dc:format>
    <dc:type rdf:resource="http://purl.org/dc/dcmitype/StillImage"/>
   </cc:Work>
  </rdf:RDF>
 </metadata>
 <defs id="defs7">
  <radialGradient id="gr0" cx="9" cy="10" r="11" gradientTransform="matrix(1 0 0 .54545 0 4.5455)" gradientUnits="userSpaceOnUse">
   <stop id="stop2" stop-opacity=".23529" offset="0"/>
   <stop id="stop4" stop-opacity=".54902" offset="1"/>
  </radialGradient>
 </defs>
 <path id="path9" d="m2.3848 2c-0.74212 0-1.3848 0.62351-1.3848 1.3789v1.2422c0 0.7554 0.64265 1.3789 1.3848 1.3789-0.74212 0-1.3848 0.62351-1.3848 1.3789v1.2422c0 0.7554 0.64265 1.3789 1.3848 1.3789-0.74181 0-1.3848 0.6238-1.3848 1.3789v1.2422c0 0.7551 0.64296 1.3789 1.3848 1.3789h2.2305c0.74181 0 1.3848-0.6238 1.3848-1.3789v0.3789a1 1.0001 0 0 0 1 1h6a1.0001 1.0001 0 0 0 1-1v-2a1.0001 1.0001 0 0 0-1-1 1.0001 1.0001 0 0 0 1-1v-2a1.0001 1.0001 0 0 0-1-1 1.0001 1.0001 0 0 0 1-1v-2a1.0001 1.0001 0 0 0-1-1h-6a1.0001 1.0001 0 0 0-1 1v0.37891c0-0.7554-0.64265-1.3789-1.3848-1.3789h-2.2305zm0 1h2.2305c0.2131 0 0.38477 0.16911 0.38477 0.37891v1.2422c0 0.2098-0.17167 0.37891-0.38477 0.37891h-2.2305c-0.2131 0-0.38477-0.16911-0.38477-0.37891v-1.2422c0-0.2098 0.17167-0.37891 0.38477-0.37891zm4.6152 0h6v2h-6v-2zm-1 1.6211v0.37891a1.0001 1.0001 0 0 0 1 1 1.0001 1.0001 0 0 0-1 1v0.37891c0-0.7554-0.64265-1.3789-1.3848-1.3789 0.74212 0 1.3848-0.62351 1.3848-1.3789zm-3.6152 2.3789h2.2305c0.2131 0 0.38477 0.16911 0.38477 0.37891v1.2422c0 0.2098-0.17167 0.37891-0.38477 0.37891h-2.2305c-0.2131 0-0.38477-0.16911-0.38477-0.37891v-1.2422c0-0.2098 0.17167-0.37891 0.38477-0.37891zm4.6152 0h6v2h-6v-2zm-1 1.6211v0.37891a1.0001 1.0001 0 0 0 1 1 1.0001 1.0001 0 0 0-1 1v0.3789c0-0.7551-0.64296-1.3789-1.3848-1.3789 0.74212 0 1.3848-0.62351 1.3848-1.3789zm-3.6152 2.3789h2.2305c0.2131 0 0.38477 0.1689 0.38477 0.3789v1.2422c0 0.21-0.17167 0.3789-0.38477 0.3789h-2.2305c-0.2131 0-0.38477-0.1689-0.38477-0.3789v-1.2422c0-0.21 0.17167-0.3789 0.38477-0.3789zm4.6152 0h6v2h-6v-2z" fill="#fff" opacity=".05"/>
 <path id="base" d="m2.3848 3c-0.2131 0-0.3848 0.1691-0.3848 0.3789v1.2422c0 0.2098 0.1717 0.3789 0.3848 0.3789h2.2304c0.2131 0 0.3848-0.1691 0.3848-0.3789v-1.2422c0-0.2098-0.1717-0.3789-0.3848-0.3789h-2.2304zm4.6152 0v2h6v-2h-6zm-4.6152 4c-0.2131 0-0.3848 0.1691-0.3848 0.3789v1.2422c0 0.2098 0.1717 0.3789 0.3848 0.3789h2.2304c0.2131 0 0.3848-0.1691 0.3848-0.3789v-1.2422c0-0.2098-0.1717-0.3789-0.3848-0.3789h-2.2304zm4.6152 0v2h6v-2h-6zm-4.6152 4c-0.2131 0-0.3848 0.169-0.3848 0.379v1.242c0 0.21 0.1717 0.379 0.3848 0.379h2.2304c0.2131 0 0.3848-0.169 0.3848-0.379v-1.242c0-0.21-0.1717-0.379-0.3848-0.379h-2.2304zm4.6152 0v2h6v-2h-6z" fill="url(#gr0)"/>
 <path id="path15" d="m2.3848 3c-0.2131 0-0.38477 0.16911-0.38477 0.37891v1.2422c0 0.2098 0.17167 0.37891 0.38477 0.37891h2.2305c0.2131 0 0.38477-0.16911 0.38477-0.37891v-1.2422c0-0.2098-0.17167-0.37891-0.38477-0.37891h-2.2305zm4.6152 0v2h6v-2h-6zm-4.5 0.5h2v1h-2v-1zm5 0h5v1h-5v-1zm-5.1152 3.5c-0.2131 0-0.38477 0.16911-0.38477 0.37891v1.2422c0 0.2098 0.17167 0.37891 0.38477 0.37891h2.2305c0.2131 0 0.38477-0.16911 0.38477-0.37891v-1.2422c0-0.2098-0.17167-0.37891-0.38477-0.37891h-2.2305zm4.6152 0v2h6v-2h-6zm-4.5 0.5h2v1h-2v-1zm5 0h5v1h-5v-1zm-5.1152 3.5c-0.2131 0-0.38477 0.1689-0.38477 0.3789v1.2422c0 0.21 0.17167 0.3789 0.38477 0.3789h2.2305c0.2131 0 0.38477-0.1689 0.38477-0.3789v-1.2422c0-0.21-0.17167-0.3789-0.38477-0.3789h-2.2305zm4.6152 0v2h6v-2h-6zm-4.5 0.5h2v1h-2v-1zm5 0h5v1h-5v-1z" opacity=".3"/>
 <path id="path20" d="m2 4.6211v1c0 0.2098 0.17167 0.37891 0.38477 0.37891h2.2305c0.2131 0 0.38477-0.16911 0.38477-0.37891v-1c0 0.2098-0.17167 0.37891-0.38477 0.37891h-2.2305c-0.2131 0-0.38477-0.16911-0.38477-0.37891zm5 0.37891v1h6v-1h-6zm-5 3.6211v1c0 0.2098 0.17167 0.37891 0.38477 0.37891h2.2305c0.2131 0 0.38477-0.16911 0.38477-0.37891v-1c0 0.2098-0.17167 0.37891-0.38477 0.37891h-2.2305c-0.2131 0-0.38477-0.16911-0.38477-0.37891zm5 0.37891v1h6v-1h-6zm-5 3.6211v1c0 0.21 0.17167 0.3789 0.38477 0.3789h2.2305c0.2131 0 0.38477-0.1689 0.38477-0.3789v-1c0 0.21-0.17167 0.3789-0.38477 0.3789h-2.2305c-0.2131 0-0.38477-0.1689-0.38477-0.3789zm5 0.3789v1h6v-1h-6z" fill="#fff" opacity=".2"/>
 <path id="path25" d="m2.3848 3c-0.2131 0-0.38477 0.16911-0.38477 0.37891v1c0-0.2098 0.17167-0.37891 0.38477-0.37891h2.2305c0.2131 0 0.38477 0.16911 0.38477 0.37891v-1c0-0.2098-0.17167-0.37891-0.38477-0.37891h-2.2305zm4.6152 0v1h6v-1h-6zm-4.6152 4c-0.2131 0-0.38477 0.16911-0.38477 0.37891v1c0-0.2098 0.17167-0.37891 0.38477-0.37891h2.2305c0.2131 0 0.38477 0.16911 0.38477 0.37891v-1c0-0.2098-0.17167-0.37891-0.38477-0.37891h-2.2305zm4.6152 0v1h6v-1h-6zm-4.6152 4c-0.2131 0-0.38477 0.1689-0.38477 0.3789v1c0-0.21 0.17167-0.3789 0.38477-0.3789h2.2305c0.2131 0 0.38477 0.1689 0.38477 0.3789v-1c0-0.21-0.17167-0.3789-0.38477-0.3789h-2.2305zm4.6152 0v1h6v-1h-6z" opacity=".3"/>
</svg>
