<?xml version="1.0" encoding="UTF-8"?>
<svg id="svg30" width="16" height="16" version="1.1" xmlns="http://www.w3.org/2000/svg" xmlns:cc="http://creativecommons.org/ns#" xmlns:dc="http://purl.org/dc/elements/1.1/" xmlns:rdf="http://www.w3.org/1999/02/22-rdf-syntax-ns#">
 <metadata id="metadata34">
  <rdf:RDF>
   <cc:Work rdf:about="">
    <dc:format>image/svg+xml</dc:format>
    <dc:type rdf:resource="http://purl.org/dc/dcmitype/StillImage"/>
   </cc:Work>
  </rdf:RDF>
 </metadata>
 <defs id="defs7">
  <radialGradient id="gr0" cx="9" cy="10" r="11" gradientTransform="matrix(1 0 0 .72727 0 2.7273)" gradientUnits="userSpaceOnUse">
   <stop id="stop2" stop-opacity=".23529" offset="0"/>
   <stop id="stop4" stop-opacity=".54902" offset="1"/>
  </radialGradient>
 </defs>
 <path id="path9" d="m8.0059 0a1 1.0001 0 0 0-0.99219 0.83594s-0.093 0.54317-0.2832 1.0977c-0.0951 0.27725-0.21713 0.54946-0.32422 0.7168-0.04438 0.06935-0.07684 0.10054-0.10156 0.125-0.03464-0.00512-0.0792-0.01124-0.15625-0.04101-0.18485-0.07144-0.44228-0.2184-0.68164-0.38477-0.47872-0.33274-0.8711-0.71289-0.8711-0.71289a1.0001 1.0001 0 0 0-1.5957 1.1582s0.23918 0.48756 0.40625 1.043c0.08353 0.27771 0.14188 0.56681 0.15234 0.76367 0.00439 0.08252-0.00404 0.12751-0.00976 0.16211-0.03086 0.01596-0.07002 0.03762-0.15039 0.0586-0.19218 0.05015-0.4883 0.08111-0.78125 0.08593-0.5859 0.00964-1.1309-0.07031-1.1309-0.07031a1.0001 1.0001 0 0 0-0.61133 1.875s0.4866 0.25944 0.95703 0.61523c0.23522 0.17791 0.45885 0.3799 0.58594 0.53516 0.05295 0.06469 0.07187 0.10511 0.08789 0.13672-0.01602 0.03161-0.03494 0.07203-0.08789 0.13672-0.12709 0.15526-0.35072 0.35725-0.58594 0.53516-0.47043 0.35579-0.95703 0.61523-0.95703 0.61523a1.0001 1.0001 0 0 0 0.61133 1.875s0.54496-0.0799 1.1309-0.0703c0.29295 0.0048 0.58907 0.0358 0.78125 0.0859 0.08037 0.021 0.11953 0.0427 0.15039 0.0586 0.00572 0.0346 0.01415 0.0796 0.00976 0.1621-0.01046 0.1969-0.06881 0.486-0.15234 0.7637-0.16707 0.5554-0.40625 1.043-0.40625 1.043a1.0001 1.0001 0 0 0 1.5957 1.1582s0.39238-0.3802 0.8711-0.7129c0.23936-0.1664 0.49679-0.3133 0.68164-0.3848 0.07705-0.0297 0.12161-0.0359 0.15625-0.041 0.02472 0.0245 0.05718 0.0557 0.10156 0.125 0.10709 0.1674 0.22912 0.4396 0.32422 0.7168 0.1902 0.5545 0.2832 1.0977 0.2832 1.0977a1.0001 1.0001 0 0 0 1.9727 0s0.093-0.5432 0.2832-1.0977c0.0951-0.2772 0.21713-0.5494 0.32422-0.7168 0.04438-0.0693 0.07684-0.1005 0.10156-0.125 0.03464 0.0051 0.0792 0.0113 0.15625 0.041 0.18484 0.0715 0.44224 0.2184 0.68164 0.3848 0.4787 0.3327 0.8711 0.7129 0.8711 0.7129a1.0001 1.0001 0 0 0 1.5957-1.1582s-0.2392-0.4876-0.4062-1.043c-0.0837-0.2777-0.1419-0.5668-0.1524-0.7637-0.0044-0.0825 0.0041-0.1275 0.0098-0.1621 0.0308-0.0159 0.07-0.0376 0.1504-0.0586 0.1921-0.0501 0.4883-0.0811 0.7812-0.0859 0.5859-0.0096 1.1309 0.0703 1.1309 0.0703a1.0001 1.0001 0 0 0 0.6113-1.875s-0.4866-0.25944-0.957-0.61523c-0.2352-0.1779-0.4589-0.3799-0.586-0.53516-0.0529-0.06469-0.0718-0.10511-0.0879-0.13672 0.0161-0.03161 0.035-0.07203 0.0879-0.13672 0.1271-0.15526 0.3508-0.35725 0.586-0.53516 0.4704-0.35578 0.957-0.61523 0.957-0.61523a1.0001 1.0001 0 0 0-0.6113-1.875s-0.545 0.07995-1.1309 0.07031c-0.2929-0.00482-0.5891-0.03578-0.7812-0.08593-0.0804-0.02098-0.1196-0.04264-0.1504-0.0586-0.0057-0.0346-0.0142-0.07959-0.0098-0.16211 0.0105-0.19686 0.0688-0.48596 0.1524-0.76367 0.1669-0.55541 0.4062-1.043 0.4062-1.043a1.0001 1.0001 0 0 0-1.5957-1.1582s-0.3924 0.38015-0.8711 0.71289c-0.2394 0.16637-0.4968 0.31333-0.68164 0.38477-0.07705 0.02977-0.12161 0.03589-0.15625 0.04101-0.02472-0.02446-0.05718-0.05565-0.10156-0.125-0.10709-0.16734-0.22912-0.43955-0.32422-0.7168-0.1902-0.55448-0.2832-1.0977-0.2832-1.0977a1.0001 1.0001 0 0 0-0.98047-0.83594zm-0.00586 1s0.40276 2.436 1.375 2.752c0.9722 0.3159 2.7285-1.4004 2.7285-1.4004s-1.0833 2.1905-0.4824 3.0176c0.6009 0.82703 3.041 0.45898 3.041 0.45898 0 1e-5 -2.1973 1.1496-2.1973 2.1719s2.1973 2.1719 2.1973 2.1719-2.4401-0.36804-3.041 0.459c-0.6009 0.8271 0.4824 3.0175 0.4824 3.0175s-1.7563-1.7163-2.7285-1.4004c-0.97224 0.3159-1.375 2.752-1.375 2.752s-0.40276-2.4361-1.375-2.752-2.7285 1.4004-2.7285 1.4004 1.0833-2.1904 0.48243-3.0175c-0.60088-0.82704-3.041-0.459-3.041-0.459s2.1973-1.1496 2.1973-2.1719-2.1973-2.1719-2.1973-2.1719 2.4401 0.36805 3.041-0.45898c0.60088-0.82704-0.48243-3.0176-0.48243-3.0176s1.7563 1.7163 2.7285 1.4004 1.375-2.752 1.375-2.752zm0 3.9102c-1.7064 0-3.0898 1.3835-3.0898 3.0898s1.3835 3.0898 3.0898 3.0898 3.0898-1.3834 3.0898-3.0898-1.3834-3.0898-3.0898-3.0898zm0 1c1.1659 0 2.0898 0.92391 2.0898 2.0898s-0.92387 2.0898-2.0898 2.0898-2.0898-0.92387-2.0898-2.0898 0.92391-2.0898 2.0898-2.0898z" fill="#fff" opacity=".05"/>
 <path id="base" d="m8 1s-0.40362 2.4358-1.3759 2.7517c-0.97224 0.3159-2.7276-1.4-2.7276-1.4s1.0836 2.1902 0.48276 3.0172c-0.60088 0.82704-3.0414 0.45862-3.0414 0.45862s2.1966 1.1501 2.1966 2.1724c1e-7 1.0223-2.1966 2.1724-2.1966 2.1724s2.4405-0.36841 3.0414 0.45862c0.60088 0.82704-0.48276 3.0172-0.48276 3.0172s1.7553-1.7159 2.7276-1.4c0.97224 0.3159 1.3759 2.7517 1.3759 2.7517s0.40362-2.4358 1.3759-2.7517c0.97224-0.3159 2.7276 1.4 2.7276 1.4s-1.0836-2.1902-0.48276-3.0172c0.60088-0.82703 3.0414-0.45862 3.0414-0.45862s-2.1966-1.1501-2.1966-2.1724c0-1.0223 2.1966-2.1724 2.1966-2.1724s-2.4405 0.36841-3.0414-0.45862c-0.60088-0.82703 0.48276-3.0172 0.48276-3.0172s-1.7553 1.7159-2.7276 1.4c-0.97224-0.3159-1.3759-2.7517-1.3759-2.7517zm0 3.9103c1.7064 0 3.0897 1.3833 3.0897 3.0897s-1.3833 3.0897-3.0897 3.0897c-1.7064 0-3.0897-1.3833-3.0897-3.0897s1.3833-3.0897 3.0897-3.0897z" fill="url(#gr0)"/>
 <path id="path15" d="m8 1s-0.40276 2.436-1.375 2.752-2.7285-1.4004-2.7285-1.4004 1.0833 2.1905 0.48243 3.0176c-0.60088 0.82703-3.041 0.45898-3.041 0.45898s2.1973 1.1496 2.1973 2.1719-2.1973 2.1719-2.1973 2.1719 2.4401-0.36804 3.041 0.459c0.60088 0.8271-0.48243 3.0175-0.48243 3.0175s1.7563-1.7163 2.7285-1.4004 1.375 2.752 1.375 2.752 0.40276-2.4361 1.375-2.752c0.9722-0.3159 2.7285 1.4004 2.7285 1.4004s-1.0833-2.1904-0.4824-3.0175c0.6009-0.82704 3.041-0.459 3.041-0.459s-2.1973-1.1496-2.1973-2.1719 2.1973-2.1719 2.1973-2.1719c0 0-2.4401 0.36805-3.041-0.45898-0.6009-0.82704 0.4824-3.0176 0.4824-3.0176s-1.7563 1.7163-2.7285 1.4004c-0.97224-0.3159-1.375-2.752-1.375-2.752zm0 1.7441c0.09751 0.24265 0.18691 0.48917 0.33008 0.71289 0.2083 0.3255 0.47763 0.63534 0.89062 0.76953 0.41164 0.13375 0.8124 0.0452 1.1719-0.09375 0.253-0.09778 0.4753-0.24741 0.7012-0.38867-0.0633 0.25553-0.1362 0.50963-0.1504 0.77734-0.0204 0.38403 0.0195 0.79115 0.2734 1.1406 0.2552 0.35125 0.632 0.51376 1.0059 0.61133 0.2582 0.0674 0.523 0.07604 0.7851 0.09375-0.2041 0.17079-0.4148 0.33582-0.5859 0.54492-0.2454 0.29974-0.4571 0.65326-0.4571 1.0879s0.2117 0.78815 0.4571 1.0879c0.1711 0.2091 0.3818 0.37413 0.5859 0.54492-0.2621 0.01771-0.5269 0.02635-0.7851 0.09375-0.3739 0.09757-0.7507 0.26007-1.0059 0.61134-0.2539 0.3495-0.2938 0.7566-0.2734 1.1406 0.0142 0.2677 0.0871 0.5218 0.1504 0.7774-0.226-0.1413-0.4482-0.2909-0.7012-0.3887-0.3595-0.139-0.76026-0.2275-1.1719-0.0938-0.41299 0.1342-0.68232 0.4441-0.89062 0.7696-0.14317 0.2237-0.23257 0.4702-0.33008 0.7129-0.09751-0.2427-0.18691-0.4892-0.33008-0.7129-0.2083-0.3255-0.47763-0.6354-0.89062-0.7696-0.41164-0.1337-0.81237-0.0452-1.1719 0.0938-0.253 0.0978-0.47529 0.2474-0.70117 0.3887 0.06314-0.2556 0.13616-0.5097 0.15039-0.7774 0.02041-0.384-0.01953-0.7911-0.27344-1.1406-0.2552-0.35127-0.632-0.51377-1.0059-0.61134-0.25825-0.0674-0.52305-0.07604-0.78515-0.09375 0.20406-0.17079 0.41478-0.33582 0.58593-0.54492 0.24535-0.29974 0.45704-0.65326 0.45704-1.0879s-0.21169-0.78815-0.45704-1.0879c-0.17115-0.2091-0.38187-0.37413-0.58593-0.54492 0.2621-0.01771 0.5269-0.02635 0.78515-0.09375 0.37386-0.09757 0.75066-0.26008 1.0059-0.61133 0.25391-0.34948 0.29385-0.7566 0.27344-1.1406-0.01423-0.26771-0.08725-0.52181-0.15039-0.77734 0.22588 0.14126 0.44817 0.29089 0.70117 0.38867 0.35951 0.13895 0.76024 0.2275 1.1719 0.09375 0.41299-0.13419 0.68232-0.44403 0.89062-0.76953 0.14317-0.22372 0.23257-0.47024 0.33008-0.71289zm0 1.666c-1.9766 0-3.5898 1.6132-3.5898 3.5898s1.6132 3.5898 3.5898 3.5898 3.5898-1.6132 3.5898-3.5898-1.6132-3.5898-3.5898-3.5898zm0 0.5c1.7064 0 3.0898 1.3835 3.0898 3.0898s-1.3834 3.0898-3.0898 3.0898-3.0898-1.3834-3.0898-3.0898 1.3835-3.0898 3.0898-3.0898z" opacity=".3"/>
 <path id="path20" d="m3.8965 3.3516s0.4341 0.8807 0.59961 1.7363c0.10342-0.35967 0.04827-0.82662-0.06836-1.2832-0.29892-0.2445-0.53125-0.45313-0.53125-0.45313zm8.207 0s-0.2323 0.20863-0.5312 0.45313c-0.1167 0.45658-0.1718 0.92353-0.0684 1.2832 0.1655-0.85563 0.5996-1.7363 0.5996-1.7363zm-4.1035 1.5586c-1.7064 0-3.0898 1.3835-3.0898 3.0898 0 0.17119 0.024 0.33638 0.05078 0.5 0.24011-1.4672 1.5039-2.5898 3.0391-2.5898s2.7989 1.1226 3.0391 2.5898c0.0267-0.16362 0.0507-0.32881 0.0507-0.5 0-1.7064-1.3834-3.0898-3.0898-3.0898zm-6.6621 1.918s1.5301 0.80824 2.0293 1.6719c0.09628-0.16657 0.16797-0.33471 0.16797-0.5 0-0.37255-0.29519-0.76081-0.66602-1.1055-0.77447 0.04156-1.5312-0.06641-1.5312-0.06641zm13.324 0s-0.7568 0.10797-1.5312 0.06641c-0.3709 0.34466-0.6661 0.73292-0.6661 1.1055 0 0.16529 0.0717 0.33343 0.168 0.5 0.4992-0.86364 2.0293-1.6719 2.0293-1.6719zm-11.793 3.2774c-0.64671 0.601-1.5312 1.0664-1.5312 1.0664s2.4401-0.368 3.041 0.459c0.05756 0.0792 0.08811 0.1801 0.11718 0.2812 0.09541-0.4932 0.10253-0.9788-0.11718-1.2812-0.26628-0.3665-0.89344-0.4924-1.5098-0.5254zm10.262 0c-0.6164 0.033-1.2435 0.1589-1.5098 0.5254-0.2197 0.3024-0.2126 0.788-0.1172 1.2812 0.0291-0.1011 0.0596-0.202 0.1172-0.2812 0.6009-0.827 3.041-0.459 3.041-0.459s-0.8845-0.4654-1.5312-1.0664zm-6.9024 2.1113c-0.60903 0.072-1.3195 0.5849-1.8008 0.9785-0.19288 0.7551-0.53125 1.4531-0.53125 1.4531s1.7563-1.7163 2.7285-1.4004 1.375 2.752 1.375 2.752 0.40276-2.4361 1.375-2.752c0.9722-0.3159 2.7285 1.4004 2.7285 1.4004s-0.3384-0.698-0.5312-1.4531c-0.5927-0.4848-1.551-1.1572-2.1973-0.9473-0.97224 0.3159-1.375 2.752-1.375 2.752s-0.40276-2.4361-1.375-2.752c-0.12153-0.0394-0.25544-0.0479-0.39648-0.0312z" fill="#fff" opacity=".2"/>
 <path id="path25" d="m8 1s-0.40276 2.436-1.375 2.752-2.7285-1.4004-2.7285-1.4004 0.33837 0.69804 0.53125 1.4531c0.59273 0.4848 1.551 1.1573 2.1973 0.94726 0.97224-0.3159 1.375-2.752 1.375-2.752s0.40276 2.436 1.375 2.752c0.6463 0.21 1.6046-0.46246 2.1973-0.94726 0.1928-0.75509 0.5312-1.4531 0.5312-1.4531s-1.7563 1.7163-2.7285 1.4004c-0.97224-0.3159-1.375-2.752-1.375-2.752zm-3.5039 4.0879c-0.02907 0.10113-0.05962 0.20202-0.11718 0.28125-0.60088 0.82703-3.041 0.45898-3.041 0.45898s0.88454 0.46534 1.5312 1.0664c0.61633-0.03307 1.2435-0.15889 1.5098-0.52539 0.21971-0.30241 0.21259-0.78804 0.11718-1.2812zm7.0078 0c-0.0954 0.49321-0.1025 0.97884 0.1172 1.2812 0.2663 0.3665 0.8934 0.49232 1.5098 0.52539 0.6467-0.60107 1.5312-1.0664 1.5312-1.0664 0 0-2.4401 0.36805-3.041-0.45898-0.0576-0.07923-0.0881-0.18012-0.1172-0.28125zm-8.1367 3.4121c-0.49919 0.86363-2.0293 1.6719-2.0293 1.6719s0.75678-0.108 1.5312-0.0664c0.37083-0.34469 0.66602-0.73293 0.66602-1.1055 0-0.16529-0.07169-0.33343-0.16797-0.5zm1.5938 0c-0.02678 0.16362-0.05078 0.32881-0.05078 0.5 0 1.7064 1.3835 3.0898 3.0898 3.0898s3.0898-1.3834 3.0898-3.0898c0-0.17119-0.024-0.33638-0.0507-0.5-0.2402 1.4673-1.5039 2.5898-3.0391 2.5898s-2.799-1.1225-3.0391-2.5898zm7.6719 0c-0.0963 0.16657-0.168 0.33471-0.168 0.5 0 0.37257 0.2952 0.76081 0.6661 1.1055 0.7744-0.0416 1.5312 0.0664 1.5312 0.0664s-1.5301-0.80827-2.0293-1.6719zm-8.1367 3.4121c-0.16551 0.8557-0.59961 1.7363-0.59961 1.7363s0.23233-0.2086 0.53125-0.4531c0.11663-0.4566 0.17178-0.9235 0.06836-1.2832zm7.0078 0c-0.1034 0.3597-0.0483 0.8266 0.0684 1.2832 0.2989 0.2445 0.5312 0.4531 0.5312 0.4531s-0.4341-0.8806-0.5996-1.7363z" opacity=".3"/>
</svg>
