<?xml version="1.0" encoding="UTF-8"?>
<svg id="svg30" width="16" height="16" version="1.1" xmlns="http://www.w3.org/2000/svg" xmlns:cc="http://creativecommons.org/ns#" xmlns:dc="http://purl.org/dc/elements/1.1/" xmlns:rdf="http://www.w3.org/1999/02/22-rdf-syntax-ns#">
 <metadata id="metadata34">
  <rdf:RDF>
   <cc:Work rdf:about="">
    <dc:format>image/svg+xml</dc:format>
    <dc:type rdf:resource="http://purl.org/dc/dcmitype/StillImage"/>
   </cc:Work>
  </rdf:RDF>
 </metadata>
 <defs id="defs7">
  <radialGradient id="gr0" cx="9" cy="10" r="11" gradientTransform="matrix(1 0 0 .72727 0 2.7273)" gradientUnits="userSpaceOnUse">
   <stop id="stop2" stop-opacity=".23529" offset="0"/>
   <stop id="stop4" stop-opacity=".54902" offset="1"/>
  </radialGradient>
 </defs>
 <path id="path9" d="m6.0312-0.015625c-1.5534 0-3.1025 0.62311-4.2695 1.793-2.3382 2.3437-2.3382 6.1641 0 8.5079 1.8507 1.8552 4.6192 2.249 6.8613 1.1621a1 1.0001 0 0 0 0.00195-2e-3c0.12974-0.0633 0.10815-0.0594 0.12305-0.0723 0.09076-0.0323 0.25127-0.0797 0.36133-0.0878 0.01077 0.0282 0.01132 0.0303 0.03124 0.0859 0.08272 0.2307 0.26454 0.6505 0.6211 1.0078l3.0625 3.0625a1.0001 1.0001 0 0 0 0.0488 0.0449 1.0001 1.0001 0 0 0 0.0254 0.0215 1.0001 1.0001 0 0 0 0.0567 0.043c-0.0034-0.0021-0.0157-0.0098-0.0156-0.0098 0.0307 0.0256 0.0627 0.0543 0.1093 0.0879 0.1211 0.0874 0.2929 0.1944 0.5313 0.2754 0.4763 0.1618 1.3129 0.0685 1.8457-0.4648h0.0019c0.5332-0.5359 0.6262-1.3649 0.4707-1.8438-0.1556-0.4794-0.3671-0.6625-0.3711-0.668a1.0001 1.0001 0 0 0-0.0976-0.1152l-3.0313-3.0625a1.0001 1.0001 0 0 0-0.0039-0.00391c-0.3499-0.3501-0.7568-0.53612-0.9804-0.61914-0.1122-0.04164-0.0615-0.01693-0.0723-0.01953 0.0013-0.02056 8e-4 -0.02645 0.0098-0.07617 0.0311-0.17285 0.1043-0.34681 0.1191-0.37891 1.0759-2.2457 0.6783-5.0223-1.1699-6.875-1.1672-1.1698-2.7161-1.793-4.2696-1.793zm0 1c1.2842 0 2.5834 0.5186 3.5625 1.5 1.5502 1.5539 1.8738 3.8767 0.96875 5.75-0.029 0.063-0.492 1.0685 0 1.5625 0.299 0.29912 0.667 0.19802 1.125 0.65622l3.0313 3.0625c0.0099 0.011 0.5999 0.6178 0 1.2188-0.598 0.6-1.1876 0-1.1876 0l-3.0624-3.0625c-0.4571-0.458-0.3578-0.8573-0.6563-1.1563-0.403-0.404-1.1654-0.1825-1.4688-0.0625-0.0486 0.026-0.10705 0.0698-0.15625 0.0938-1.8689 0.906-4.1686 0.5851-5.7188-0.96878-1.9582-1.9628-1.9582-5.131 0-7.0937 0.979-0.98138 2.2784-1.5 3.5625-1.5zm0 1.2812c-2.0769 0-3.7499 1.6994-3.75 3.7813 0 2.0818 1.6731 3.75 3.75 3.75 2.077 0 3.75-1.6682 3.75-3.75 0-2.0819-1.673-3.7813-3.75-3.7813zm-1.0312 0.73438h2v6h-2v-4h-1v-1c0.221-0.0331 1.0771 0.0764 1-1zm3 1.125c0.4745 0.49889 0.78125 1.1679 0.78125 1.9219 0 0.75761-0.30387 1.4241-0.78125 1.916v-3.8379zm-4.6133 1.6641a1.0001 1.0001 0 0 0 0.61328 0.21094v1.8106c-0.41138-0.47906-0.71875-1.0664-0.71875-1.7637 0-0.10124 0.09527-0.15951 0.10547-0.25782z" fill="#fff" opacity=".05"/>
 <path id="base" d="m6.0312.98438c-1.2841 0-2.5834.51862-3.5624 1.5-1.9582 1.9628-1.9582 5.1309 0 7.0937 1.5501 1.5539 3.8498 1.8749 5.7187.9689.0492-.024.1077-.068.1563-.094.3033-.120 1.0657-.341 1.4687.063.2985.299.1995.698.6565 1.156l3.062 3.062c.003-.003.590 0.6 1.188 0 0.6-.601.008-1.207 0-1.218l-3.031-3.063c-.458-.4582-.827-.357-1.126-.6561-.492-.4940-.029-1.4995 0-1.5625.905-1.8733.582-4.1961-.9682-5.75-.9791-.9814-2.2784-1.5-3.5626-1.5zm0 1.2812c2.077 0 3.75 1.6994 3.75 3.7813 0 2.0818-1.673 3.75-3.75 3.75-2.0769 0-3.75-1.6682-3.75-3.75.0001-2.0819 1.6731-3.7813 3.75-3.7813zm-1.0312.7344c.0771 1.0764-.7790.9669-1 1v1h1v4h2v-6h-2z" fill="url(#gr0)"/>
 <path id="path15" d="m6.0312 0.98438c-1.2841 0-2.5835 0.51862-3.5625 1.5-1.9582 1.9628-1.9582 5.1309 0 7.0937 1.5501 1.5539 3.8498 1.8748 5.7188 0.96878 0.0492-0.024 0.10765-0.0678 0.15625-0.0938 0.3033-0.12 1.0658-0.3415 1.4688 0.0625 0.2985 0.299 0.1992 0.6983 0.6563 1.1563l2.7089 2.709h0.4121c-0.0987 0.0508-0.1593 0.0829-0.2714 0.1406l0.2128 0.2129s0.5896 0.6 1.1876 0c0.5999-0.601 0.0099-1.2078 0-1.2188l-3.0313-3.0625c-0.458-0.4582-0.826-0.3571-1.125-0.65622-0.492-0.494-0.029-1.4995 0-1.5625 0.905-1.8733 0.5815-4.1961-0.96875-5.75-0.9791-0.98141-2.2783-1.5-3.5625-1.5zm0 0.5c1.1496-1e-5 2.3239 0.46634 3.209 1.3535 1.3988 1.4021 1.6854 3.4941 0.87107 5.1797a0.50005 0.50005 0 0 0-0.0039 0.00781c-0.0143 0.0312-0.16117 0.34516-0.2324 0.74023-0.07123 0.39509-0.08897 0.96202 0.332 1.3848a0.50005 0.50005 0 0 1 2e-3 0c0.2421 0.2422 0.5131 0.3203 0.6816 0.3828s0.2749 0.1048 0.4434 0.2734l2.9922 3.0235c0.0191 0.0234 0.1139 0.1342 0.1445 0.2285 0.0332 0.1023 0.0771 0.1394-0.1055 0.3223-0.1821 0.1827-0.2082 0.1356-0.3027 0.1035-0.0472-0.0161-0.1001-0.0459-0.1367-0.0723-0.0183-0.0132-0.0313-0.0249-0.041-0.0332-0.0049-0.0042-0.0085-0.0071-0.0137-0.0117-0.0026-0.0023-0.0044-0.0038-0.0137-0.0117l-3.0351-3.0371c-0.1645-0.1649-0.2064-0.2769-0.2696-0.4532-0.0631-0.1762-0.1393-0.4553-0.3867-0.7031-0.345-0.34587-0.8025-0.39836-1.1601-0.37304-0.35764 0.02533-0.65843 0.12512-0.8457 0.19922a0.50005 0.50005 0 0 0-0.05274 0.02342c-0.10833 0.058-0.16553 0.0991-0.13867 0.086-1.6823 0.8155-3.7467 0.5301-5.1465-0.87309-1.7682-1.7724-1.7682-4.6144 0-6.3867 0.88498-0.88714 2.0595-1.3535 3.209-1.3535zm0 0.28124c-2.3496 0-4.2499 1.9315-4.25 4.2813 0 2.3497 1.9054 4.25 4.25 4.25 2.3447 0 4.25-1.9004 4.25-4.25 1e-4 -2.3498-1.9002-4.2813-4.25-4.2813zm0 0.5c2.077 0 3.75 1.6994 3.75 3.7813 0 2.0818-1.673 3.75-3.75 3.75-2.0769 0-3.75-1.6682-3.75-3.75 1e-4 -2.0819 1.6731-3.7813 3.75-3.7813zm-1.0312 0.73438c0.0771 1.0764-0.779 0.9669-1 1v1h1v4h2v-6h-2zm0.4082 0.5h1.0918v5h-1v-3.5a0.50005 0.50005 0 0 0-0.5-0.5h-0.5v-0.07227c0.10593-0.02012 0.20515-0.02694 0.32812-0.08593 0.19409-0.09312 0.3984-0.26479 0.52344-0.50782 0.04806-0.0934 0.03148-0.22633 0.05664-0.33398z" opacity=".3"/>
 <path id="path20" d="m6.0312 2.2656c-2.0769 0-3.7499 1.6994-3.75 3.7813 0 0.17127 0.02884 0.33502 0.05078 0.5 0.19669-1.482 1.2356-2.6849 2.6289-3.1055 0.03274-0.12062 0.0521-0.2594 0.03906-0.44141h2v0.4082c1.4445 0.39066 2.529 1.6204 2.7305 3.1387 0.02194-0.16498 0.05078-0.32873 0.05078-0.5 0-2.0819-1.673-3.7813-3.75-3.7813zm-2.0312 2.7344v1h1v-1h-1zm-2.9512 1.5312c-0.14461 1.4445 0.31292 2.9373 1.4199 4.0468 1.5501 1.5539 3.8498 1.8748 5.7188 0.9688 0.0492-0.024 0.10765-0.0678 0.15625-0.0938 0.3033-0.12 1.0658-0.3415 1.4688 0.0625 0.2985 0.299 0.1992 0.6983 0.6563 1.1563l3.0624 3.0625s0.5896 0.6 1.1876 0c0.4545-0.4553 0.2277-0.9112 0.0859-1.1114-0.0285 0.0371-0.0488 0.0742-0.0859 0.1114-0.598 0.6-1.1876 0-1.1876 0l-3.0624-3.0625c-0.4571-0.458-0.3578-0.8573-0.6563-1.1563-0.403-0.404-1.1654-0.1825-1.4688-0.0625-0.0486 0.026-0.10705 0.0698-0.15625 0.0938-1.8689 0.906-4.1686 0.5851-5.7188-0.96878-0.8512-0.85319-1.3087-1.9362-1.4199-3.0469zm9.9766 0.02148c-0.0586 0.57793-0.2053 1.1484-0.4629 1.6816-0.0257 0.05587-0.3894 0.85075-0.1289 1.375 0.0574-0.19397 0.1186-0.35271 0.1289-0.375 0.4061-0.84057 0.5512-1.7702 0.4629-2.6816zm-6.0254 2.4473v0.63672c0.32936 0.09385 0.67097 0.16016 1.0312 0.16016 0.33725 0 0.65823-0.05803 0.96875-0.14063v-0.65625h-2z" fill="#fff" opacity=".2"/>
 <path id="path25" d="m6.0312 0.98438c-1.2841 0-2.5835 0.51862-3.5625 1.5-1.107 1.1096-1.5645 2.6024-1.4199 4.0469 0.11119-1.1107 0.56872-2.1937 1.4199-3.0469 0.979-0.98138 2.2784-1.5 3.5625-1.5 1.2842 0 2.5834 0.5186 3.5625 1.5 0.85465 0.85665 1.3232 1.9485 1.4316 3.0684 0.1474-1.4525-0.3227-2.9567-1.4316-4.0684-0.9791-0.98141-2.2783-1.5-3.5625-1.5zm0 2.2812c-0.37477 0-0.7293 0.07285-1.0703 0.17579-0.16091 0.59271-0.77731 0.53109-0.96094 0.55859v1c0.221-0.0331 1.0771 0.0764 1-1h2v-0.5918c-0.31053-0.08398-0.63147-0.14258-0.96875-0.14258zm-3.6992 3.2813c-0.02195 0.16537-0.05077 0.32871-0.05078 0.5 0 2.0818 1.6731 3.75 3.75 3.75 2.077 0 3.75-1.6682 3.75-3.75 0-0.17129-0.02884-0.33463-0.05078-0.5-0.20145 1.5147-1.286 2.7251-2.7305 3.1094v0.34375h-2v-0.36328c-1.413-0.40266-2.4695-1.5974-2.668-3.0898zm8.1016 3.0625c-0.1048 0.35406-0.189 0.86832 0.1289 1.1875 0.299 0.2991 0.667 0.198 1.125 0.6562l3.0313 3.0625c0.0024 0.0027 0.0405 0.0434 0.0859 0.1074 0.431-0.5622-0.0766-1.0971-0.0859-1.1074l-3.0313-3.0625c-0.458-0.4582-0.826-0.3571-1.125-0.65622-0.0557-0.0559-0.0957-0.12062-0.1289-0.1875z" opacity=".3"/>
</svg>
