<?xml version="1.0" encoding="UTF-8"?>
<svg id="svg32" width="16" height="16" version="1.1" xmlns="http://www.w3.org/2000/svg" xmlns:cc="http://creativecommons.org/ns#" xmlns:dc="http://purl.org/dc/elements/1.1/" xmlns:rdf="http://www.w3.org/1999/02/22-rdf-syntax-ns#">
 <metadata id="metadata36">
  <rdf:RDF>
   <cc:Work rdf:about="">
    <dc:format>image/svg+xml</dc:format>
    <dc:type rdf:resource="http://purl.org/dc/dcmitype/StillImage"/>
   </cc:Work>
  </rdf:RDF>
 </metadata>
 <defs id="defs7">
  <radialGradient id="gr0" cx="9" cy="10" r="11" gradientTransform="matrix(1 0 0 .45454 0 5.4546)" gradientUnits="userSpaceOnUse">
   <stop id="stop2" stop-opacity=".23529" offset="0"/>
   <stop id="stop4" stop-opacity=".54902" offset="1"/>
  </radialGradient>
 </defs>
 <path id="path9" d="m4.5 3.002c-0.8137 0-1.5 0.6863-1.5 1.5v6.998c0 0.8137 0.6863 1.5 1.5 1.5h7c0.8137 0 1.5-0.6863 1.5-1.5v-6.998c0-0.8137-0.6863-1.5-1.5-1.5h-7zm0 1h7c0.277 0 0.5 0.223 0.5 0.5v6.998c0 0.277-0.223 0.5-0.5 0.5h-7c-0.277 0-0.5-0.223-0.5-0.5v-6.998c0-0.277 0.223-0.5 0.5-0.5zm1.7852 1.8477v4.5703h1.1426v-1.7148h1.7148v-1.1426h-1.7148v-0.57031h2.2871v-1.1426h-3.4297z" fill="#fff" opacity=".05"/>
 <path id="base" d="m4.5 4.002c-.277 0-.5.223-.5 0.5v6.998c0 .277.223 0.5.5 0.5h7c.277 0 .5-.223.5-.5v-6.998c0-.277-.223-.5-.5-.5h-7zm1.7852 1.8476h3.4296v1.1426h-2.2871v.5703h1.7149v1.1426h-1.7149v1.7149h-1.1425v-4.5704z" fill="url(#gr0)"/>
 <path id="path15" d="m4.2637 1.0059c-.2822.0389-.5171.2634-.5957.5566l-2.6446 9.8765c-.10475.391.1461.79.5371.895l9.8775 2.643c.391.104.789-.147.894-.538l2.645-9.8765c.104-.3910-.146-.7878-.538-.8926l-9.8765-2.6445c-.0978-.0262-.2048-.03252-.2988-.0195zm.2363 2.9961h7c.277 0 .5.223.5.5v6.998c0 .277-.223.5-.5.5h-7c-.277 0-.5-.223-.5-0.5v-6.998c0-.277.223-.5.5-.5z" opacity=".2"/>
 <path id="path17" d="m4.5 4.002c-0.277 0-0.5 0.223-0.5 0.5v6.998c0 0.277 0.223 0.5 0.5 0.5h7c0.277 0 0.5-0.223 0.5-0.5v-6.998c0-0.277-0.223-0.5-0.5-0.5h-7zm0 0.5h7v6.998h-7v-6.998zm1.7852 0.84766a0.50005 0.50005 0 0 0-0.5 0.5v4.5703a0.50005 0.50005 0 0 0 0.5 0.5h1.1426a0.50005 0.50005 0 0 0 0.5-0.5v-1.2148h1.2148a0.50005 0.50005 0 0 0 0.5-0.5v-1.1426a0.50005 0.50005 0 0 0-0.00586-0.07031h0.07812a0.50005 0.50005 0 0 0 0.49996-0.5v-1.1426a0.50005 0.50005 0 0 0-0.49996-0.5h-3.4297zm0 0.5h3.4297v1.1426h-2.2871v0.57031h1.7148v1.1426h-1.7148v1.7148h-1.1426v-4.5703z" opacity=".3"/>
 <path id="path22" d="m6.2852 5.8496v1h3.4297v-1h-3.4297zm1.1426 2.1426v0.57031h1.7148v-0.57031h-1.7148zm-3.4277 3.5078v1c0 0.277 0.223 0.5 0.5 0.5h7c0.277 0 0.5-0.223 0.5-0.5v-1c0 0.277-0.223 0.5-0.5 0.5h-7c-0.277 0-0.5-0.223-0.5-0.5z" fill="#fff" opacity=".2"/>
 <path id="path27" d="m4.5 4.002c-0.277 0-0.5 0.223-0.5 0.5v1c0-0.277 0.223-0.5 0.5-0.5h7c0.277 0 0.5 0.223 0.5 0.5v-1c0-0.277-0.223-0.5-0.5-0.5h-7zm2.9277 2.9902v0.57031h1.7148v0.42969h0.57226v-1h-2.2871zm0 1.7129v1h1.7148v-1h-1.7148zm-1.1426 1.7148v1h1.1426v-1h-1.1426z" opacity=".3"/>
</svg>
