<?xml version="1.0" encoding="UTF-8"?>
<svg id="svg30" width="16" height="16" version="1.1" xmlns="http://www.w3.org/2000/svg" xmlns:cc="http://creativecommons.org/ns#" xmlns:dc="http://purl.org/dc/elements/1.1/" xmlns:rdf="http://www.w3.org/1999/02/22-rdf-syntax-ns#">
 <metadata id="metadata34">
  <rdf:RDF>
   <cc:Work rdf:about="">
    <dc:format>image/svg+xml</dc:format>
    <dc:type rdf:resource="http://purl.org/dc/dcmitype/StillImage"/>
   </cc:Work>
  </rdf:RDF>
 </metadata>
 <defs id="defs7">
  <radialGradient id="gr0" cx="9" cy="10" r="11" gradientTransform="matrix(1 0 0 .72727 0 2.7273)" gradientUnits="userSpaceOnUse">
   <stop id="stop2" stop-opacity=".23529" offset="0"/>
   <stop id="stop4" stop-opacity=".54902" offset="1"/>
  </radialGradient>
 </defs>
 <path id="path9" d="m8 0c-4.4064 0-8 3.5936-8 8 0 4.4064 3.5936 8 8 8 2.5192 0 4.7839-1.1717 6.25-3a1 1.0001 0 0 0 0.1445-1 1.0001 1.0001 0 0 0 0.752-0.4902c0.6679-1.1511 0.8535-2.1682 0.8535-3.5098 0-4.4064-3.5936-8-8-8zm0 1c3.866 0 7 3.134 7 7 0 1.279-0.1197 1.9756-0.7188 3.0078l-9.2734 0.0176v-1.2754h-1.3828v2.625h9.8438c-1.2831 1.6-3.2588 2.625-5.4688 2.625-3.866 0-7-3.134-7-7s3.134-7 7-7zm0.21289 2.0332c-1.0789 7e-4 -2.6699 0.56827-2.6699 1.9805 0 1.3554 1.5152 1.8398 2.502 1.8398 1.0277 0 1.9961 0.27073 1.9961 1.1445 0 0.8515-0.90828 1.2266-1.9668 1.2266-1.2022 0-1.7715-0.86205-1.7715-1.3106 0-0.1572-0.22161-0.33398-0.47851-0.33398-0.2571 0-0.42188 0.15478-0.42188 0.33398v0.28516c0.06501 0.10022 0.14416 0.1927 0.18555 0.30273-0.00577-0.00393-0.01165-0.00153-0.01758-0.00586-0.04326-0.03156-0.11135-0.081-0.16797-0.17187v1.0117c0.0103 0.3248 0.15186 0.64258 0.50586 0.64258 0.3813 0 0.50586-0.03057 0.50586-0.44727 0.5871 0.3286 1.1745 0.44727 1.8281 0.44727 1.6339 0 2.7639-0.87167 2.7539-1.9805-0.01-1.7921-1.9783-2.0078-2.9238-2.0078-0.9762-0.0112-1.5176-0.50606-1.5176-0.97656 0-0.5041 0.46986-1.2266 1.6309-1.2266 1.3061 0 1.6144 0.77415 1.6582 1.0312 0.0513 0.2024 0.25255 0.30664 0.47855 0.30664 0.237 0 0.3925-0.14554 0.3925-0.33594v-1.3105c0-0.168-0.2518-0.39063-0.5058-0.39063-0.21582 0-0.43903 0.08264-0.44923 0.30664-0.2156-0.179-0.92753-0.36093-1.5449-0.36133h-0.00195z" fill="#fff" opacity=".05"/>
 <path id="base" d="m8 1c-3.866 0-7 3.134-7 7s3.134 7 7 7c2.21 0 4.186-1.025 5.469-2.625h-9.844v-2.625h1.3828v1.275l9.2732-.017c.599-1.0322.719-1.729.719-3.008 0-3.866-3.134-7-7-7zm.2129 2.0332h.0019c.6174.0004 1.3294.1823 1.545.3613.0102-.2240.2334-.3066.4492-.3066.254 0 .506.2226.506.3906v1.3106c0 .1904-.156.3359-.393.3359-.226 0-.4269-.1042-.4782-.3066-.0438-.2571-.3522-1.0313-1.6583-1.0313-1.161 0-1.6308.7225-1.6308 1.2266 0 .4705.5414.9653 1.5176.9765.9455 0 2.9137.2157 2.9237 2.0078.006 1.1088-1.1199 1.9805-2.7538 1.9805-.6536 0-1.241-.1187-1.8281-.4473 0 .4167-.1246.4473-.5059.4473-.3540 0-.4956-.3178-.5059-.6426v-1.4218c0-.1792.1648-.3340.4219-.3340.2569 0 .4785.1768.4785.3340 0 .4485.5693 1.3105 1.7715 1.3105 1.0585 0 1.9668-.3751 1.9668-1.2266 0-.8738-.9684-1.1445-1.9961-1.1445-.9868 0-2.5019-.4844-2.5019-1.8398 0-1.4122 1.591-1.9798 2.6699-1.9805z" fill="url(#gr0)"/>
 <path id="path15" d="m8 1c-3.866 0-7 3.134-7 7s3.134 7 7 7c2.21 0 4.1857-1.025 5.4688-2.625h-9.8438v-2.625h1.3828v1.2754l9.2734-0.0176c0.5991-1.0322 0.7188-1.7288 0.7188-3.0078 0-3.866-3.134-7-7-7zm0 0.5c3.5958 0 6.5 2.9042 6.5 6.5 0 1.1255-0.1187 1.6975-0.5469 2.5078l-8.4453 0.0176v-0.2578c0.13924 0.0767 0.23629 0.2109 0.40039 0.2109 0.20403 0 0.42961 0.0349 0.69727-0.168 0.04674-0.0354 0.05596-0.0927 0.0918-0.1386 0.50335 0.191 1.0158 0.3066 1.5449 0.3066 0.90587 0 1.6981-0.2389 2.2871-0.67186 0.589-0.43298 0.9707-1.0862 0.9668-1.8106-6e-3 -1.079-0.6788-1.7992-1.4043-2.1289-0.72321-0.32872-1.5028-0.37666-2.0137-0.37696-0.40469-0.00464-0.68334-0.11082-0.83984-0.22265s-0.18359-0.21044-0.18359-0.25391c0-0.19345 0.17729-0.72656 1.1309-0.72656 0.55425 0 0.81494 0.14949 0.96484 0.28711s0.19795 0.30919 0.20117 0.32812a0.50005 0.50005 0 0 0 0.00782 0.03907c0.11764 0.46414 0.58317 0.68359 0.96292 0.68359 0.4416 0 0.8925-0.37243 0.8925-0.83594v-1.3105c0-0.334-0.1718-0.5074-0.3437-0.64649-0.1719-0.13908-0.3891-0.24414-0.6621-0.24414-0.1717 0-0.35847 0.02426-0.55275 0.13672-0.02514 0.01455-0.02617 0.06477-0.05078 0.08398-0.11657-0.03984-0.21407-0.11581-0.34961-0.14843-0.31949-0.0769-0.68334-0.12673-1.041-0.12696h-0.00195c-0.62697 4.1e-4 -1.3618 0.15191-1.9961 0.53125-0.63433 0.37934-1.1738 1.0554-1.1738 1.9492 0 0.86401 0.52507 1.5108 1.1309 1.8613 0.60578 0.3505 1.2959 0.47852 1.8711 0.47852 0.46995 0 0.91016 0.07223 1.168 0.19531 0.25781 0.12307 0.32813 0.19703 0.32813 0.44922 0 0.24796-0.08209 0.35794-0.33008 0.49609-0.248 0.13816-0.66653 0.23047-1.1367 0.23047-0.4816 0-0.79121-0.16336-0.9961-0.35352-0.20488-0.19015-0.27539-0.44433-0.27539-0.45703 0-0.31354-0.17363-0.50194-0.34765-0.6289-0.17402-0.12697-0.38771-0.20508-0.63086-0.20508-0.4578 0-0.92188 0.34823-0.92188 0.83398v1.3359h-1.2773a0.50005 0.50005 0 0 0-0.5 0.5v2.4355c-0.97509-1.1365-1.625-2.5669-1.625-4.1855 0-3.5958 2.9042-6.5 6.5-6.5zm0.21289 1.5332h0.00195c0.6174 4e-4 1.3293 0.18233 1.5449 0.36133 0.0102-0.224 0.23341-0.30664 0.44923-0.30664 0.254 0 0.5058 0.22263 0.5058 0.39063v1.3105c0 0.1904-0.1555 0.33594-0.3925 0.33594-0.226 0-0.42725-0.10424-0.47855-0.30664-0.0438-0.2571-0.3521-1.0312-1.6582-1.0312-1.161 0-1.6309 0.72246-1.6309 1.2266 0 0.4705 0.54138 0.96536 1.5176 0.97656 0.9455 0 2.9138 0.21572 2.9238 2.0078 0.01 1.1088-1.12 1.9805-2.7539 1.9805-0.6536 0-1.241-0.11867-1.8281-0.44727 0 0.4167-0.12456 0.44727-0.50586 0.44727-0.354 0-0.49556-0.31778-0.50586-0.64258v-1.4219c0-0.1792 0.16478-0.33398 0.42188-0.33398 0.2569 0 0.47851 0.17678 0.47851 0.33398 0 0.4485 0.56929 1.3106 1.7715 1.3106 1.0585 0 1.9668-0.37506 1.9668-1.2266 0-0.8738-0.96838-1.1445-1.9961-1.1445-0.9868 0-2.502-0.48445-2.502-1.8398 0-1.4122 1.591-1.9798 2.6699-1.9805zm-4.3984 9.8418h8.4532c-1.144 1.0011-2.6264 1.625-4.2676 1.625-1.6186 0-3.049-0.6499-4.1856-1.625z" opacity=".3"/>
 <path id="path20" d="m8.2129 3.0332c-1.0789 7e-4 -2.6699 0.56827-2.6699 1.9805 0 0.18038 0.02927 0.3437 0.07812 0.49414 0.18196-0.57726 0.66964-0.96654 1.2285-1.1992 0.25494-0.29023 0.6821-0.52148 1.3359-0.52148 0.71971 0 1.119 0.23613 1.3555 0.49023 0.09024 0.03799 0.17091 0.07748 0.21875 0.11719 0.0102-0.224 0.23341-0.30664 0.44923-0.30664 0.254 0 0.5058 0.22263 0.5058 0.39063v-1c0-0.168-0.2518-0.39063-0.5058-0.39063-0.21582 0-0.43903 0.08264-0.44923 0.30664-0.2156-0.179-0.92753-0.36093-1.5449-0.36133h-0.00195zm-1.4746 2.418c-0.12195 0.18793-0.18359 0.38788-0.18359 0.5625 0 0.23182 0.13466 0.46753 0.38476 0.65039 0.3768 0.12676 0.7705 0.18946 1.1055 0.18946 0.63619 0 1.248 0.10429 1.623 0.39062 0.56843 0.2055 1.0707 0.57433 1.25 1.2324 0.0475-0.1534 0.0796-0.31232 0.0781-0.47851-0.01-1.7921-1.9783-2.0078-2.9238-2.0078-0.66266-0.0076-1.1054-0.24465-1.334-0.53906zm-0.91406 2.1289c-0.2571 0-0.42188 0.15478-0.42188 0.33398v1c0-0.1792 0.16478-0.33398 0.42188-0.33398 0.2569 0 0.47851 0.17678 0.47851 0.33398 0 0.1996 0.12045 0.4795 0.35157 0.73047 0.5084 0.23606 1.0232 0.33399 1.5879 0.33399 0.58992 0 1.1105-0.11706 1.5391-0.31446 0.15964-0.17778 0.25975-0.39494 0.25975-0.66601 0-0.19322-0.05379-0.3524-0.13866-0.49024-0.29061 0.49145-1.0128 0.7168-1.8281 0.7168-1.2022 0-1.7715-0.86205-1.7715-1.3106 0-0.1572-0.22161-0.33398-0.47851-0.33398zm-4.7988 0.91992c-0.01178 0.166-0.02539 0.331-0.02539 0.5 0 3.866 3.134 7 7 7 2.21 0 4.1857-1.025 5.4688-2.625h-0.9883c-1.2153 1.0121-2.7768 1.625-4.4805 1.625-3.697 0-6.717-2.8686-6.9746-6.5zm13.955 0.12109c-0.0449 0.90227-0.2077 1.5397-0.6993 2.3867l-9.2734 0.0176v1l9.2734-0.0176c0.5991-1.0322 0.7188-1.7288 0.7188-3.0078 0-0.12807-0.0127-0.25253-0.0195-0.37891zm-11.356 1.1289v1h1.3828v-1h-1.3828z" fill="#fff" opacity=".2"/>
 <path id="path25" d="m8 1c-3.866 0-7 3.134-7 7 0 0.169 0.01361 0.334 0.02539 0.5 0.25763-3.6314 3.2776-6.5 6.9746-6.5 3.7379 0 6.7823 2.9326 6.9805 6.6211 0.0098-0.19733 0.0195-0.39156 0.0195-0.62109 0-3.866-3.134-7-7-7zm0.21289 3.0332c-0.41888 2.7e-4 -0.9131 0.08797-1.3633 0.27539-0.19775 0.22513-0.29492 0.48488-0.29492 0.70508 0 0.15112 0.07542 0.2982 0.18359 0.4375 0.2301-0.35458 0.68844-0.66406 1.4473-0.66406 1.3061 0 1.6144 0.77415 1.6582 1.0312 0.0513 0.2024 0.25255 0.30664 0.47855 0.30664 0.237 0 0.3925-0.14554 0.3925-0.33594v-1c0 0.1904-0.1555 0.33594-0.3925 0.33594-0.226 0-0.42725-0.10424-0.47855-0.30664-0.01966-0.11543-0.11006-0.33399-0.30273-0.54102-0.31653-0.13322-0.84575-0.24383-1.3262-0.24414h-0.00195zm-2.5918 1.4746c-0.04898 0.15542-0.07812 0.3226-0.07812 0.50586 0 1.3554 1.5152 1.8398 2.502 1.8398 0.80045 0 1.5585 0.16879 1.8574 0.65429 0.08666-0.14654 0.13866-0.31418 0.13866-0.50976 0-0.33288-0.14221-0.57771-0.37303-0.75391-0.56097-0.20279-1.177-0.25391-1.5957-0.25391-0.49523-0.00568-0.8753-0.13788-1.1328-0.32617-0.58548-0.19696-1.1247-0.55999-1.3184-1.1562zm5.2969 2.9688c-0.1553 0.50054-0.5562 0.92012-1.1368 1.1875-0.34183 0.38064-0.9855 0.56054-1.707 0.56054-0.66717 0-1.1317-0.26712-1.4199-0.58007-0.08-0.03714-0.16041-0.0686-0.24024-0.11328 0 0.4167-0.12456 0.44727-0.50586 0.44727-0.354 0-0.49556-0.31778-0.50586-0.64258v0.99996c0.0103 0.3248 0.15186 0.6426 0.50586 0.6426 0.3813 0 0.50586-0.0305 0.50586-0.4473 0.5871 0.3287 1.1745 0.4473 1.8281 0.4473 1.6339 0 2.7639-0.8717 2.7539-1.9804-0.0011-0.19421-0.0348-0.36258-0.0781-0.52149zm-7.293 3.8984v1h8.8555c0.3611-0.3008 0.6943-0.6335 0.9883-1h-9.8438z" opacity=".3"/>
</svg>
