<?xml version="1.0" encoding="UTF-8"?>
<svg id="svg30" width="16" height="16" version="1.1" xmlns="http://www.w3.org/2000/svg" xmlns:cc="http://creativecommons.org/ns#" xmlns:dc="http://purl.org/dc/elements/1.1/" xmlns:rdf="http://www.w3.org/1999/02/22-rdf-syntax-ns#">
 <metadata id="metadata34">
  <rdf:RDF>
   <cc:Work rdf:about="">
    <dc:format>image/svg+xml</dc:format>
    <dc:type rdf:resource="http://purl.org/dc/dcmitype/StillImage"/>
   </cc:Work>
  </rdf:RDF>
 </metadata>
 <defs id="defs7">
  <radialGradient id="gr0" cx="9" cy="10" r="11" gradientTransform="matrix(1 0 0 .72727 0 2.7273)" gradientUnits="userSpaceOnUse">
   <stop id="stop2" stop-opacity=".23529" offset="0"/>
   <stop id="stop4" stop-opacity=".54902" offset="1"/>
  </radialGradient>
 </defs>
 <path id="path9" d="m8 0c-4.4064 0-8 3.5936-8 8 0 4.4064 3.5936 8 8 8 4.4064 0 8-3.5936 8-8 0-4.4064-3.5936-8-8-8zm0 1c3.866 0 7 3.134 7 7s-3.134 7-7 7-7-3.134-7-7 3.134-7 7-7zm0 1.5547c-1.8477 0-3.4885 0.92648-4.4727 2.334 0.4686 0.116 0.9385 0.23467 1.4336 0.38867l0.02539-0.92382c0.7571 0.095 1.4904 0.25606 2.2363 0.41406 1.5603 0.356 2.4138 0.60465 3.1835 0.97265 0.6941 0.33 0.9892 0.70727 1.4102 1.8223 0.1683 0.446 0.4609 1.4301 0.4609 1.5312 0 0.05364-0.5736 0.42851-0.875 0.58203-0.855 0.43552-1.6842 0.48232-2.746 0.14649-0.6951-0.2198-1.8476-0.77199-2.5527-1.2402l-0.41211-0.26758 0.4375 1.0938 0.58203 0.26758c1.235 0.59392 2.2572 0.96402 2.8926 0.99802 0.61118 0.0327 1.3134-0.1562 2.1153-0.5351 0.2137-0.101 0.3921-0.16995 0.4121-0.16995 0.0575 0 0.0166 0.27845-0.0957 0.58205-0.1178 0.3183-0.2328 0.4389-0.7774 0.7051-1.042 0.5095-1.9826 0.744-3.4043 0.8515-0.6243 0.0474-1.1431 0.0095-2.0898-0.0976-0.64727-0.073-1.1457-0.0675-1.459-0.0235 0.9716 0.9025 2.2645 1.459 3.6953 1.459 3.0068 0 5.4453-2.4384 5.4453-5.4453 0-3.0068-2.4384-5.4453-5.4453-5.4453zm0 1c1.4396 0 2.6542 0.71995 3.4648 1.7715-0.2112-0.16578-0.3954-0.37808-0.6269-0.48828h-2e-3c-0.87053-0.416-1.8096-0.68421-3.3906-1.0449a1 1.0001 0 0 0-0.01562-0.00391c-0.06752-0.0143-0.14308-0.02465-0.21094-0.03906 0.26793-0.05046 0.49861-0.19531 0.78125-0.19531zm1.2891 2.9375c-0.267 6e-3 -0.54959 0.1084-0.77929 0.3164-0.3507 0.317-0.44459 0.89989-0.24219 1.3379 0.1661 0.359 0.48436 0.59625 0.85156 0.65625 0.52069 0.08513 0.99866-0.15836 1.2149-0.60742 0.148-0.30719 0.1697-0.51318 0.0957-0.80273-0.147-0.57475-0.63087-0.91119-1.1406-0.90039zm0.26563 0.60937c0.1979 0 0.43349 0.09975 0.46291 0.21875 0.041 0.1617-0.0133 0.28318-0.16994 0.36328-0.24232 0.12386-0.54807 0.0994-0.73047-0.07226-0.22487-0.21164 0.03069-0.50977 0.4375-0.50977z" fill="#fff" opacity=".05"/>
 <path id="base" d="m8 1c-3.866 0-7 3.134-7 7s3.134 7 7 7 7-3.134 7-7-3.134-7-7-7zm0 1.5556c3.0069 0 5.4444 2.4376 5.4444 5.4444 0 3.0069-2.4376 5.4444-5.4444 5.4444-1.4308 0-2.7228-.5558-3.6944-1.4583.31332-.04405.81103-.04895 1.4583.02431.94675.10714 1.466.14441 2.0903.09722 1.4217-.10748 2.3608-.34127 3.4028-.85069.54456-.26624.66-.38652.77778-.70486.1123-.30353.15448-.58334.09722-.58334-.02027 0-.19951.06915-.41319.17014-.80182.3789-1.5034.56737-2.1146.53472-.6354-.034-1.6574-.403-2.8924-.9969l-.5833-.2674-.4375-1.0938.4132.2674c.70515.46825 1.857 1.0198 2.5521 1.2396 1.0618.3358 1.8915.2897 2.7465-.14583.30137-.15352.875-.52969.875-.58333 0-.10112-.29351-1.0852-.46181-1.5312-.421-1.115-.716-1.492-1.41-1.822-.7698-.368-1.6235-.617-3.1838-.973-.7459-.158-1.479-.318-2.2361-.413l-.0243.9235c-.4951-.154-.9654-.273-1.434-.389.9842-1.4075 2.6245-2.3334 4.4722-2.3334zm1.2882 3.9375c.50977-.01081.99537.32456 1.1424.89931.07404.28955.05065.49489-.09722.80208-.21619.44906-.69461.69277-1.2153.60764-.3672-.06-.6846-.297-.8507-.656-.2024-.438-.1077-1.02.243-1.337.2297-.208.5108-.31.7778-.316zm.26736.60764c-.40681 0-.66237.29878-.4375.51042.1824.17166.48685.19676.72917.07291.1567-.0801.2107-.2028.1697-.3645-.0294-.1190-.2635-.2188-.4614-.2188z" fill="url(#gr0)"/>
 <path id="path15" d="m8 1c-3.866 0-7 3.134-7 7s3.134 7 7 7 7-3.134 7-7-3.134-7-7-7zm0 0.5c3.5958 0 6.5 2.9042 6.5 6.5 0 3.5958-2.9042 6.5-6.5 6.5-3.5958 0-6.5-2.9042-6.5-6.5 0-3.5958 2.9042-6.5 6.5-6.5zm0 0.55469c-2.0147 0-3.8081 1.01-4.8828 2.5469a0.50005 0.50005 0 0 0 0.29101 0.77149c0.46693 0.11558 0.92519 0.23378 1.4043 0.38281a0.50005 0.50005 0 0 0 0.64844-0.46484l0.00976-0.33985c0.54497 0.08995 1.0869 0.18574 1.6484 0.30469 1.542 0.3521 2.3529 0.59259 3.0704 0.93555a0.50005 0.50005 0 0 1 0.0019 0c0.3051 0.14508 0.465 0.26374 0.627 0.47265 0.1619 0.20892 0.3258 0.5354 0.5293 1.0742 0.0751 0.19918 0.191 0.55641 0.2832 0.86328 0.0346 0.1152 0.0604 0.20889 0.0859 0.30078-0.0158 0.01072-0.0223 0.01823-0.0391 0.0293-0.1677 0.11113-0.3841 0.2388-0.5019 0.29883-0.7512 0.38262-1.3913 0.42449-2.3692 0.11523-0.61724-0.19518-1.7789-0.75015-2.4258-1.1797a0.50005 0.50005 0 0 0-0.00586-0.00196l-0.41211-0.26758a0.50005 0.50005 0 0 0-0.73633 0.60547l0.4375 1.0938a0.50005 0.50005 0 0 0 0.25586 0.26758l0.57617 0.26372 0.00782 0.0039c1.2552 0.6031 2.2765 1.0002 3.0742 1.0429 0.2198 0.0118 0.45168-0.0433 0.67968-0.0761-0.70578 0.2575-1.4261 0.4349-2.4414 0.5117-0.5838 0.0441-1.0568 0.0106-1.9961-0.0957-0.6782-0.0768-1.2034-0.077-1.584-0.0235a0.50005 0.50005 0 0 0-0.27149 0.8614c1.0586 0.9832 2.4749 1.5937 4.0352 1.5937 3.277 0 5.9453-2.6682 5.9453-5.9453 0-3.2106-2.5721-5.8031-5.7578-5.9082a0.50005 0.50005 0 0 0-0.1875-0.03711zm0 0.5c3.0069 0 5.4453 2.4385 5.4453 5.4453 0 3.0069-2.4385 5.4453-5.4453 5.4453-1.4308 0-2.7237-0.5565-3.6953-1.459 0.31332-0.044 0.81171-0.0495 1.459 0.0235 0.94675 0.1071 1.4656 0.145 2.0898 0.0976 1.4217-0.1075 2.3623-0.342 3.4043-0.8515 0.5446-0.2662 0.6596-0.3868 0.7774-0.7051 0.1123-0.3036 0.1532-0.58205 0.0957-0.58205-0.02 0-0.1984 0.06895-0.4121 0.16995-0.8019 0.3789-1.5041 0.5678-2.1153 0.5351-0.6354-0.034-1.6576-0.4041-2.8926-0.99802l-0.58203-0.26758-0.4375-1.0938 0.41211 0.26758c0.70515 0.46825 1.8576 1.0204 2.5527 1.2402 1.0618 0.33583 1.891 0.28903 2.746-0.14649 0.3014-0.15352 0.875-0.52839 0.875-0.58203 0-0.10112-0.2926-1.0852-0.4609-1.5312-0.421-1.115-0.7161-1.4923-1.4102-1.8223-0.76975-0.368-1.6232-0.61665-3.1835-0.97265-0.7459-0.158-1.4792-0.31906-2.2363-0.41406l-0.02539 0.92382c-0.4951-0.154-0.965-0.27267-1.4336-0.38867 0.9842-1.4075 2.625-2.334 4.4727-2.334zm1.2461 3.4394a0.50005 0.50005 0 0 0-0.29687 0.13281c-0.26929 0.06397-0.54918 0.10811-0.77344 0.31055-0.54333 0.49112-0.65939 1.273-0.36133 1.918 0.23282 0.50319 0.69391 0.85305 1.2227 0.93945 0.71879 0.11752 1.4355-0.23769 1.7461-0.88281 0.1767-0.36708 0.2252-0.77553 0.1309-1.1445-0.201-0.78559-0.9011-1.289-1.6368-1.2734a0.50005 0.50005 0 0 0-0.03125 0zm0.04297 0.49805c0.50977-0.0108 0.99364 0.32564 1.1406 0.90039 0.074 0.28955 0.0523 0.49554-0.0957 0.80273-0.2162 0.44906-0.69417 0.69255-1.2149 0.60742-0.3672-0.06-0.68546-0.29725-0.85156-0.65625-0.2024-0.438-0.10851-1.0209 0.24219-1.3379 0.2297-0.208 0.51229-0.3104 0.77929-0.3164zm0.26563 0.60937c-0.40681 0-0.66237 0.29813-0.4375 0.50977 0.1824 0.17166 0.48815 0.19612 0.73047 0.07226 0.15664-0.0801 0.21094-0.20158 0.16994-0.36328-0.02942-0.119-0.26501-0.21875-0.46291-0.21875z" opacity=".3"/>
 <path id="path20" d="m8 2.5547c-1.8477 0-3.4885 0.92648-4.4727 2.334 0.2299 0.05691 0.46969 0.12928 0.70313 0.19141 0.23255-0.22295 0.4827-0.42792 0.75195-0.60742l0.00391-0.11914c0.05146 0.00645 0.10109 0.01835 0.15234 0.02539 0.83379-0.51663 1.8112-0.82422 2.8613-0.82422 2.8381 0 5.1672 2.1732 5.4199 4.9453 0.0151-0.16487 0.0254-0.33121 0.0254-0.5 0-3.0068-2.4384-5.4453-5.4453-5.4453zm1.2891 3.9375c-0.267 6e-3 -0.54959 0.1084-0.77929 0.3164-0.3507 0.317-0.44459 0.89989-0.24219 1.3379 0.00188 0.00407 0.00394 0.00769 0.00586 0.01172 0.05802-0.1318 0.13109-0.25448 0.23633-0.34961 0.17035-0.15426 0.37013-0.2317 0.57031-0.27343-0.10755-0.20094 0.11347-0.4336 0.47461-0.4336 0.1979 0 0.43349 0.09975 0.46291 0.21875 0.0376 0.14841-0.0162 0.25797-0.14455 0.33789 0.19955 0.1158 0.35855 0.29394 0.46485 0.52539 0.1423-0.29991 0.1647-0.50563 0.0918-0.79101-0.147-0.57475-0.63087-0.91119-1.1406-0.90039zm0.26563 1.6094c-0.40681 0-0.66237 0.29813-0.4375 0.50977 0.1824 0.17166 0.48815 0.19612 0.73047 0.07226 0.15664-0.0801 0.21094-0.20158 0.16994-0.36328-0.02942-0.119-0.26501-0.21875-0.46291-0.21875zm-3.8633 0.21289 0.4375 1.0938 0.58203 0.26758c1.235 0.59392 2.2572 0.96402 2.8926 0.99802 0.61118 0.0327 1.3134-0.1562 2.1153-0.5351 0.2137-0.101 0.3921-0.16995 0.4121-0.16995 0.0332 0 0.0256 0.10295-2e-3 0.24025 0.0497-0.0394 0.1484-0.103 0.1484-0.1152 0-0.0534-0.142-0.47197-0.2441-0.80864-0.1945 0.13667-0.443 0.29493-0.6309 0.39062-0.855 0.43552-1.6842 0.48232-2.746 0.14649-0.6951-0.2198-1.8476-0.77199-2.5527-1.2402l-0.41211-0.26758zm-4.666 0.18555c-0.01178 0.166-0.02539 0.331-0.02539 0.5 0 3.866 3.134 7 7 7s7-3.134 7-7c0-0.169-0.0136-0.334-0.0254-0.5-0.2576 3.6314-3.2776 6.5-6.9746 6.5s-6.717-2.8686-6.9746-6.5zm11.106 2.4688c-0.02 0-0.1984 0.0687-0.4121 0.1699-0.4255 0.201-0.8209 0.3443-1.1915 0.4336-0.78314 0.2956-1.5886 0.4531-2.6738 0.5351-0.6243 0.0474-1.1431 0.0095-2.0898-0.0976-0.64727-0.073-1.1457-0.0675-1.459-0.0235 0.47095 0.4375 1.0203 0.7884 1.6211 1.0391 0.82799 0.0905 1.3468 0.1261 1.9277 0.082 1.4217-0.1075 2.3623-0.342 3.4043-0.8515 0.215-0.1051 0.3258-0.181 0.4336-0.2618 0.0873-0.0807 0.1721-0.1637 0.2539-0.25 0.0328-0.0571 0.0623-0.1189 0.0899-0.1933 0.1123-0.3036 0.1532-0.5821 0.0957-0.582z" fill="#fff" opacity=".2"/>
 <path id="path25" d="m8 1c-3.866 0-7 3.134-7 7 0 0.169 0.01361 0.334 0.02539 0.5 0.25763-3.6314 3.2776-6.5 6.9746-6.5s6.717 2.8686 6.9746 6.5c0.0118-0.166 0.0254-0.331 0.0254-0.5 0-3.866-3.134-7-7-7zm-2.8613 3.3789c-0.05171 0.03204-0.10571 0.06005-0.15625 0.09375l-0.02148 0.80468c-0.25221-0.07844-0.48808-0.13275-0.73047-0.19726-0.25833 0.24766-0.49782 0.51498-0.70313 0.80859 0.4686 0.116 0.9385 0.23467 1.4336 0.38867l0.02539-0.92382c0.7571 0.095 1.4904 0.25606 2.2363 0.41406 1.5603 0.356 2.4138 0.60465 3.1835 0.97265 0.6941 0.33 0.9892 0.70727 1.4102 1.8223 0.0794 0.21043 0.1256 0.42192 0.2168 0.72266 0.1176-0.08259 0.2441-0.17121 0.2441-0.19141 0-0.10112-0.2926-1.0852-0.4609-1.5312-0.421-1.115-0.7161-1.4923-1.4102-1.8223-0.76975-0.368-1.6232-0.61665-3.1835-0.97265-0.6952-0.14726-1.3812-0.29218-2.084-0.38867zm4.1504 3.1133c-0.06898 0.00155-0.13925 0.02843-0.20898 0.04297 0.0136 0.02541 0.01186 0.05241 0.03711 0.07617 0.1824 0.17166 0.48815 0.19612 0.73047 0.07226 0.01288-0.00658 0.01389-0.01823 0.02539-0.02539-0.17865-0.10368-0.3759-0.17042-0.58399-0.16601zm-1.0156 0.66601c-0.13533 0.30742-0.14752 0.68172-0.00586 0.98828 0.1661 0.359 0.48436 0.59625 0.85156 0.65625 0.52069 0.08513 0.99866-0.15836 1.2149-0.60742 0.148-0.30719 0.1697-0.51318 0.0957-0.80273-0.02-0.07812-0.0601-0.13998-0.0918-0.20899-0.0021 0.00439-0.0018 0.0073-0.0039 0.01172-0.2162 0.44906-0.69417 0.69255-1.2149 0.60742-0.36304-0.05932-0.67811-0.29233-0.8457-0.64453zm5.1465 0.3418c-0.1143 1.2536-0.6556 2.3814-1.4746 3.2441-0.0521 0.0909-0.1525 0.174-0.2539 0.25-0.9707 0.8977-2.265 1.4512-3.6914 1.4512-0.73726 0-1.4355-0.1534-2.0742-0.4199-0.06188-0.0068-0.09627-0.0082-0.16211-0.0156-0.64727-0.073-1.1457-0.0675-1.459-0.0235 0.9716 0.9025 2.2645 1.459 3.6953 1.459 3.0068 0 5.4453-2.4384 5.4453-5.4453 0-0.16879-0.0103-0.33513-0.0254-0.5zm-7.7285 0.81445 0.4375 1.0938 0.58203 0.2676c1.235 0.5939 2.2572 0.964 2.8926 0.998 0.28686 0.0154 0.59608-0.0226 0.92378-0.1015 0.243-0.0917 0.4838-0.1958 0.7305-0.3164 0.5446-0.2662 0.6596-0.3868 0.7774-0.7051 0.0474-0.1283 0.0735-0.2413 0.0937-0.3418-0.168 0.1331-0.4939 0.3482-0.7266 0.4668-0.855 0.4355-1.6842 0.4823-2.746 0.1465-0.6951-0.2198-1.8476-0.7721-2.5527-1.2403l-0.41211-0.26758z" opacity=".3"/>
</svg>
