<?xml version="1.0" encoding="UTF-8"?>
<svg id="svg30" width="16" height="16" version="1.1" xmlns="http://www.w3.org/2000/svg" xmlns:cc="http://creativecommons.org/ns#" xmlns:dc="http://purl.org/dc/elements/1.1/" xmlns:rdf="http://www.w3.org/1999/02/22-rdf-syntax-ns#">
 <metadata id="metadata34">
  <rdf:RDF>
   <cc:Work rdf:about="">
    <dc:format>image/svg+xml</dc:format>
    <dc:type rdf:resource="http://purl.org/dc/dcmitype/StillImage"/>
   </cc:Work>
  </rdf:RDF>
 </metadata>
 <defs id="defs7">
  <radialGradient id="gr0" cx="9" cy="10" r="11" gradientTransform="matrix(1 0 0 .72727 0 2.7273)" gradientUnits="userSpaceOnUse">
   <stop id="stop2" stop-opacity=".23529" offset="0"/>
   <stop id="stop4" stop-opacity=".54902" offset="1"/>
  </radialGradient>
 </defs>
 <path id="path9" d="m14.973 0a1 1.0001 0 0 0-0.7032 0.31641c-0.0764 0.081667-0.8038 0.39332-1.7441 0.49805s-2.0509 0.10733-2.961 0.11914c-2.0417 0.026324-3.6101 0.30814-4.8711 0.91016s-2.1659 1.542-2.8047 2.6602a1.0001 1.0001 0 0 0 0.08789 1.1191h-0.08789a1.0001 1.0001 0 0 0-0.82031 0.42968c-0.68505 0.98925-0.97137 2.1762-1.0566 3.2715a1.0001 1.0001 0 0 0 0.39258 0.87308 1.0001 1.0001 0 0 0-0.4043 0.8027v4a1.0001 1.0001 0 0 0 0.97461 1c2.8075 0.0728 5.5411-0.0733 7.8867-0.709 2.3457-0.6357 4.3686-1.8067 5.4336-3.8242a1.0001 1.0001 0 0 0-0.0859-1.0664h0.0469a1.0001 1.0001 0 0 0 0.9003-0.56446c0.2194-0.45308 0.3852-0.94711 0.4961-1.4746 0.1387-0.49492 0.2358-1.0008 0.3028-1.5117 4e-4 -0.00343 0.0034-0.00634 0.0039-0.00977a1.0001 1.0001 0 0 0 0.0195-0.10351c7e-4 -0.00598 0.0032-0.0116 0.0039-0.01758l-0.0019 0.00195a1.0001 1.0001 0 0 0-0.3926-0.91992 1.0001 1.0001 0 0 0 0.4023-0.79883l0.0098-4a1.0001 1.0001 0 0 0-1.0273-1.002zm0.0273 1-0.0098 4h-12.234c1.1272-1.9733 2.9128-3.016 6.8223-3.0664 1.7983-0.02333 4.5481-1.3e-4 5.4219-0.93359zm-0.0098 5.6016c-0.0617 0.5202-0.1656 1.0335-0.3086 1.5352-0.0943 0.45735-0.2387 0.87722-0.4257 1.2637h-13.248c0.07515-0.9652 0.34629-2.0026 0.88281-2.7773l13.1-0.02149zm-13.99 4.3984h12.41c-1.792 3.3946-6.9016 4.1428-12.41 4v-4z" fill="#fff" opacity=".05"/>
 <path id="base" d="m15 1c-0.87382 0.93346-3.6234 0.91013-5.4217 0.93346-3.9095 0.050407-5.6947 1.0932-6.8219 3.0665h12.234zm-0.01013 5.6008-13.099 0.02147c-0.53653 0.77478-0.80741 1.8137-0.88256 2.7789h13.247c0.187-0.38645 0.33205-0.80745 0.42643-1.2648 0.143-0.50163 0.2459-1.0153 0.30759-1.5355zm-13.99 4.3992v4c5.5086 0.14282 10.619-0.60544 12.411-4z" fill="url(#gr0)"/>
 <path id="path15" d="m15 1c-0.8738 0.93346-3.6236 0.91026-5.4219 0.93359-3.9095 0.0504-5.6951 1.0931-6.8223 3.0664h12.234l0.0098-4zm-0.502 0.84766-0.0058 2.6523h-10.736c0.42573-0.52557 0.90828-0.98013 1.584-1.3027 0.98336-0.46949 2.3329-0.73903 4.2441-0.76368 0.89372-0.01159 2.0454-0.01062 3.1074-0.1289 0.6686-0.07447 1.2688-0.2278 1.8066-0.45703zm0.4922 4.7539-13.1 0.02149c-0.53652 0.77478-0.80766 1.8121-0.88281 2.7773h13.248c0.187-0.38645 0.3314-0.80632 0.4257-1.2637 0.143-0.50163 0.2469-1.015 0.3086-1.5352zm-0.6093 0.50196c-0.0545 0.30003-0.0964 0.604-0.1797 0.89648a0.50005 0.50005 0 0 0-0.0098 0.03516c-0.0649 0.31452-0.1779 0.58999-0.291 0.86523h-12.295c0.10429-0.64652 0.29579-1.2674 0.59765-1.7773l12.178-0.01953zm-13.381 3.8965v4c5.5086 0.1428 10.618-0.6054 12.41-4h-12.41zm0.5 0.5h10.945c-0.8846 1.1081-2.2338 1.8714-3.9766 2.3438-1.9826 0.5371-4.423 0.6861-6.9688 0.6464v-2.9902z" opacity=".3"/>
 <path id="path20" d="m15 2c-6e-4 6.2e-4 -0.0014 0.00133-2e-3 0.00195l-0.0078 2.998h-11.51c-0.26708 0.30402-0.51339 0.63023-0.72461 1h12.234l0.0098-4zm-0.1895 5.6016c-0.0402 0.17894-0.0786 0.35895-0.1289 0.53516-0.0943 0.45735-0.2387 0.87722-0.4257 1.2637h-13.088c-0.07424 0.33371-0.13447 0.67001-0.16016 1h13.248c0.187-0.3865 0.3314-0.80633 0.4257-1.2637 0.143-0.50163 0.2469-1.015 0.3086-1.5352h-0.1797zm-2.0957 4.3984c-2.2062 2.5395-6.7987 3.1274-11.715 3v1c5.5086 0.1428 10.618-0.6054 12.41-4h-0.6954z" fill="#fff" opacity=".2"/>
 <path id="path25" d="m15 1c-0.8738 0.93346-3.6236 0.91026-5.4219 0.93359-3.9095 0.0504-5.6951 1.0931-6.8223 3.0664h0.72461c1.1582-1.3184 2.9207-2.0254 6.0976-2.0664 1.7971-0.02331 4.5442-8e-5 5.4199-0.93164l2e-3 -1.002zm-0.0098 5.6016-13.1 0.02149c-0.53652 0.77478-0.80766 1.8121-0.88281 2.7773h0.16016c0.14291-0.64241 0.36955-1.2674 0.72265-1.7773l12.92-0.02149c0.0745-0.33047 0.1397-0.66253 0.1797-1zm-13.99 4.3984v1h11.715c0.266-0.3061 0.5026-0.6349 0.6954-1h-12.41z" opacity=".3"/>
</svg>
