<?xml version="1.0" encoding="UTF-8"?>
<svg id="svg30" width="16" height="16" version="1.1" xmlns="http://www.w3.org/2000/svg" xmlns:cc="http://creativecommons.org/ns#" xmlns:dc="http://purl.org/dc/elements/1.1/" xmlns:rdf="http://www.w3.org/1999/02/22-rdf-syntax-ns#">
 <metadata id="metadata34">
  <rdf:RDF>
   <cc:Work rdf:about="">
    <dc:format>image/svg+xml</dc:format>
    <dc:type rdf:resource="http://purl.org/dc/dcmitype/StillImage"/>
   </cc:Work>
  </rdf:RDF>
 </metadata>
 <defs id="defs7">
  <radialGradient id="gr0" cx="9" cy="10" r="11" gradientTransform="matrix(1 0 0 .72727 0 2.7273)" gradientUnits="userSpaceOnUse">
   <stop id="stop2" stop-opacity=".23529" offset="0"/>
   <stop id="stop4" stop-opacity=".54902" offset="1"/>
  </radialGradient>
 </defs>
 <path id="path9" d="m9.0742 0a1 1.0001 0 0 0-0.07227 0.0039062l-2.3281 0.22266a1.0001 1.0001 0 0 0-0.9043 0.9961v2.1309c-0.01002 0.00397-0.0193 0.00963-0.0293 0.01367l-1.2949-0.84766c-0.19614-0.12853-0.46045-0.20505-0.72656-0.17773a1.0001 1.0001 0 0 0-0.00391 0c-0.26832 0.02856-0.49256 0.14007-0.67578 0.32422l-0.91211 0.91015a1.0001 1.0001 0 0 0-0.00195 0c-0.36722 0.36818-0.43396 0.92571-0.16406 1.3711a1.0001 1.0001 0 0 0 0 0.00195l0.80664 1.3262c-0.00986 0.02213-0.01973 0.04413-0.0293 0.06641l-1.4688 0.30468c-0.5323 0.10997-0.89062 0.57496-0.89062 1.0957v1.291c0 0.50781 0.34988 0.96314 0.85351 1.0859l1.4121 0.3438c0.02633 0.0712 0.05482 0.141 0.08399 0.2109l-0.82618 1.2598c-0.28768 0.439-0.22265 1.0353 0.14258 1.4023a1.0001 1.0001 0 0 0 0.00196 0.0039l0.91406 0.9102a1.0001 1.0001 0 0 0 0.0039 0.0039c0.35378 0.3501 0.92248 0.4269 1.3594 0.166a1.0001 1.0001 0 0 0 0.00586-0.0039l1.3047-0.791c0.04204 0.0183 0.08435 0.0354 0.12695 0.0527l0.29883 1.4317c0.10656 0.5113 0.57228 0.8906 1.0938 0.8906h1.293c0.50856 0 0.96719-0.3737 1.084-0.8535l0.35937-1.4668c0.05307-0.0213 0.106-0.0416 0.15818-0.0645l1.2657 0.8282c0.4256 0.2807 1.0192 0.2388 1.3984-0.1309a1.0001 1.0001 0 0 0 0.0078-0.0098l0.9141-0.914a1.0001 1.0001 0 0 0 0.0097-0.0098c0.3404-0.3493 0.4196-0.9302 0.1524-1.3652l-0.291-0.4785 1.3925-0.4414a1.0001 1.0001 0 0 0 0.5078-1.5411l-2.7285-3.752 2.7325-3.5195a1.0001 1.0001 0 0 0-0.5645-1.5879l-2.4766-0.56836a1.0001 1.0001 0 0 0-1.0253 0.375l-1.254 1.6777 0.0079-1.1719a1.0001 1.0001 0 0 0-1.0235-1.0059zm0.02344 1-0.02539 4.2109 3.0722-4.1113 2.4766 0.56836-3.1953 4.1133 3.1719 4.3594-2.4278 0.7676-3.0976-4.5332v4.0879l-2.3027 0.3476v-9.5878l2.3281-0.22266zm-5.2774 2.3359c0.0263-0.0027 0.05267 0.00413 0.07617 0.01953l1.7441 1.1426 0.00196 0.00195c0.2152-0.1173 0.44128-0.21683 0.67578-0.29883v0.95508c-1.2881 0.5796-2.1856 1.8746-2.1856 3.3789 0 2.0448 1.6584 3.7011 3.7031 3.7011 1.4393 0 2.6839-0.8205 3.2969-2.0195 0.512 0.75 0.9102 1.3301 0.9102 1.3301 0.017 0.027 0.0491 0.0373 0.0781 0.0273l0.2012-0.0625 0.623 1.0254c0.029 0.047 0.0204 0.1055-0.0176 0.1445l-0.914 0.9141c-0.04 0.039-0.1015 0.0447-0.1485 0.0137l-1.705-1.1172c-0.34784 0.205-0.72399 0.3646-1.1231 0.4726l-0.47656 1.9454c-0.0129 0.053-0.05898 0.0898-0.11328 0.0898h-1.293c-0.0557 0-0.10394-0.0388-0.11524-0.0938l-0.40429-1.9394c-0.3872-0.105-0.7522-0.2591-1.0918-0.4551l-1.7305 1.0488c-0.0469 0.028-0.10613 0.0205-0.14453-0.0175l-0.91406-0.9121c-0.0398-0.04-0.04643-0.1015-0.01563-0.1485l1.1035-1.6836c-0.2082-0.366-0.3651-0.7648-0.4668-1.1855l-1.9062-0.46484c-0.0527-0.0127-0.08984-0.06064-0.08984-0.11524v-1.291c0-0.0561 0.03905-0.10589 0.09375-0.11719l1.9648-0.4082c0.1087-0.3628 0.25952-0.70639 0.44922-1.0254l-1.0703-1.7617c-0.0283-0.0467-0.02083-0.10799 0.01757-0.14649l0.91407-0.91211c0.0198-0.0199 0.04596-0.03215 0.07226-0.03515zm1.9492 3.5469v3.2012c-0.33322-0.44903-0.63672-0.94032-0.63672-1.5488 0-0.64525 0.26424-1.1905 0.63672-1.6524zm4.3028 2.7285 0.1308 0.19336c-0.0312 0.05796-0.0957 0.08725-0.1308 0.14258v-0.33594z" fill="#fff" opacity=".05"/>
 <path id="base" d="m9.0977 1l-2.3282.2227v9.5883l2.3028-.348v-4.088l3.0977 4.533 2.428-.767-3.172-4.3598 3.195-4.1132-2.476-.5684-3.0727 4.1113.0254-4.2109zm-5.2774 2.3359c-.0263.0028-.0525.0153-.0723.0352l-.9140.9121c-.0384.0385-.0459.0998-.0176.1465l1.0703 1.7617c-.1897.3190-.3405.6626-.4492 1.0254l-1.9648.4082c-.0547.0113-.0938.0611-.0938.1172v1.291c0 .0546.0372.1025.0899.1152l1.9062.4649c.1017.4207.2586.8197.4668 1.1857l-1.1035 1.683c-.0308.047-.0242.109.0156.149l.9141.912c.0384.038.0976.046.1445.018l1.7305-1.049c.3396.196.7046.350 1.0918.455l.4043 1.939c.0113.055.0595.094.1152.094h1.293c.0543 0 .1003-.037.1132-.090l.4766-1.945c.3991-.108.7751-.268 1.1229-.473l1.705 1.117c.047.031.109.026.149-.013l.914-.914c.038-.039.046-.098.017-.145l-.623-1.025-.201.062c-.029.009-.061-.002-.078-.027 0 0-.398-.580-.910-1.33-.613 1.199-1.8578 2.019-3.2971 2.019-2.0447 0-3.7031-1.656-3.7031-3.7008 0-1.5043.8975-2.7994 2.1856-3.379v-.9550c-.2345.0820-.4606.1815-.6758.2988l-.0020-.0020-1.7441-1.1425c-.0235-.0154-.0499-.0223-.0762-.0196z" fill="url(#gr0)"/>
 <path id="path15" d="m9.0977 1-2.3281 0.22266v9.5878l2.3027-0.3476v-4.0879l3.0976 4.5332 2.4278-0.7676-3.1719-4.3594 3.1953-4.1133-2.4766-0.56836-3.0722 4.1113 0.02539-4.2109zm-0.50391 0.55078-0.02148 3.6562a0.50005 0.50005 0 0 0 0.90039 0.30274l2.8769-3.8496 1.3965 0.32031-2.7149 3.4941a0.50005 0.50005 0 0 0-0.0097 0.60156l2.7637 3.7969-1.4122 0.44725-2.8886-4.2266a0.50005 0.50005 0 0 0-0.91211 0.28125v3.6582l-1.3027 0.1973v-8.5528l1.3242-0.12695zm-4.7734 1.7852c-0.0263 3e-3 -0.05246 0.01525-0.07226 0.03515l-0.91407 0.91211c-0.0384 0.0385-0.04587 0.09979-0.01757 0.14649l1.0703 1.7617c-0.1897 0.319-0.34052 0.66259-0.44922 1.0254l-1.9648 0.4082c-0.0547 0.0113-0.09375 0.06109-0.09375 0.11719v1.291c0 0.0546 0.03714 0.10254 0.08984 0.11524l1.9062 0.46484c0.1017 0.42072 0.2586 0.81952 0.4668 1.1855l-1.1035 1.6836c-0.0308 0.047-0.02417 0.1085 0.01563 0.1485l0.91406 0.9121c0.0384 0.038 0.09763 0.0455 0.14453 0.0175l1.7305-1.0488c0.3396 0.196 0.7046 0.3501 1.0918 0.4551l0.40429 1.9394c0.0113 0.055 0.05954 0.0938 0.11524 0.0938h1.293c0.0543 0 0.10038-0.0368 0.11328-0.0898l0.47656-1.9454c0.3991-0.108 0.77525-0.2676 1.1231-0.4726l1.705 1.1172c0.047 0.031 0.1085 0.0253 0.1485-0.0137l0.914-0.9141c0.038-0.039 0.0466-0.0975 0.0176-0.1445l-0.623-1.0254-0.2012 0.0625c-0.029 0.01-0.0611-3e-4 -0.0781-0.0273 0 0-0.3982-0.5801-0.9102-1.3301-0.613 1.199-1.8576 2.0195-3.2969 2.0195-2.0447 0-3.7031-1.6563-3.7031-3.7011 0-1.5043 0.89745-2.7993 2.1856-3.3789v-0.95508c-0.2345 0.082-0.46058 0.18153-0.67578 0.29883l-0.00196-0.00195-1.7441-1.1426c-0.0235-0.0154-0.04987-0.02223-0.07617-0.01953zm0.0625 0.60742 1.4414 0.94531-0.00391-0.00586a0.50005 0.50005 0 0 0 0.32227 0.11719c-0.49096 0.30585-0.92979 0.68319-1.2578 1.1582a0.50005 0.50005 0 0 0-0.07032-0.22656l-0.91601-1.5059 0.48437-0.48242zm-0.10937 3.6426c-0.07225 0.30852-0.14063 0.61918-0.14063 0.94922 0 0.28726 0.10871 0.53929 0.16407 0.81054a0.50005 0.50005 0 0 0-0.30274-0.21875l-1.6152-0.39453v-0.67969l1.6602-0.3457a0.50005 0.50005 0 0 0 0.23438-0.12109zm0.56054 3.1289c0.33432 0.5329 0.76806 0.9672 1.2988 1.3047a0.50005 0.50005 0 0 0-0.34961 0.0645l-1.4746 0.8926-0.48242-0.4805 0.9336-1.4238a0.50005 0.50005 0 0 0 0.07421-0.3575zm6.793 0.379c0.1949 0.2848 0.5012 0.7332 0.5019 0.7343l2e-3 2e-3c0.143 0.2082 0.4009 0.2945 0.6386 0.2207l-0.0019 0.0019-0.1699 0.0528 0.2636 0.4355-0.4804 0.4805-1.4473-0.9473a0.50005 0.50005 0 0 0-0.2461-0.082c0.3617-0.2469 0.6708-0.5535 0.9395-0.8984zm-4.2208 1.4531c0.30801 0.0722 0.60018 0.1894 0.92969 0.1894 0.29209 0 0.56626-0.0622 0.84179-0.1191a0.50005 0.50005 0 0 0-0.12695 0.2285l-0.4043 1.6543h-0.68164l-0.33984-1.6348a0.50005 0.50005 0 0 0-0.21875-0.3183z" opacity=".3"/>
 <path id="path20" d="m9.0918 2-0.01953 3.2109 0.00585-0.00782 0.01954-3.2031h-0.00586zm4.8691 0.51758-2.5351 3.2637 0.375 0.51563 2.8203-3.6289-0.6602-0.15039zm-10.814 2.4551-0.3125 0.31054c-0.0384 0.0385-0.04587 0.09979-0.01757 0.14649l0.79492 1.3086c0.08009-0.1888 0.17138-0.37198 0.27539-0.54687l-0.74024-1.2188zm3.1719 0.22851c-0.15929 0.0557-0.30823 0.13118-0.45898 0.20313-0.00123 7.7e-4 -0.00268 0.00117-0.00391 0.00195-1.0347 0.65674-1.7227 1.8126-1.7227 3.1289 0 0.14856 0.0279 0.28962 0.04492 0.43359 0.19346-1.2573 1.0178-2.3072 2.1406-2.8125v-0.95508zm2.7539 1.1738v1l2.0058 2.9336c0.0172-0.0313 0.0384-0.06 0.0547-0.0918 0.512 0.75 0.9102 1.3301 0.9102 1.3301 0.017 0.027 0.0491 0.0373 0.0781 0.0273l0.2012-0.0625 0.1777 0.293 2.0977-0.6641-0.5918-0.8125-1.836 0.5801-3.0976-4.5332zm-7.6934 2.6582v1c0 0.055 0.03714 0.1025 0.08984 0.1152l1.9062 0.4649c0.05021 0.2077 0.11475 0.4097 0.19141 0.6055l0.27539-0.42c-0.2082-0.366-0.3651-0.7648-0.4668-1.1855l-1.9062-0.46484c-0.0527-0.0127-0.08984-0.06064-0.08984-0.11524zm7.6934 1.4297-2.3027 0.3476v1l2.3027-0.3476v-1zm1.0879 2.0293c-0.117 0.0689-0.24216 0.1251-0.36528 0.1836-0.00319 2e-3 -0.00656 0.0039-0.00976 0.0058-0.23747 0.1475-0.49625 0.2625-0.76563 0.3536l-0.45898 1.875c-0.0129 0.053-0.05898 0.0898-0.11328 0.0898h-1.293c-0.0557 0-0.10394-0.0388-0.11524-0.0938l-0.39258-1.8828c-0.1933-0.0658-0.37725-0.1467-0.55468-0.2422-0.18955-0.0781-0.37253-0.1677-0.54883-0.2695l-1.7305 1.0488c-0.0469 0.028-0.10613 0.0205-0.14453-0.0175l-0.58594-0.584-0.34375 0.5234c-0.0308 0.047-0.02417 0.1085 0.01563 0.1485l0.91406 0.9121c0.0384 0.038 0.09763 0.0455 0.14453 0.0175l1.7305-1.0488c0.3396 0.196 0.7046 0.3501 1.0918 0.4551l0.40429 1.9394c0.0113 0.055 0.05954 0.0938 0.11524 0.0938h1.293c0.0543 0 0.10038-0.0368 0.11328-0.0898l0.47656-1.9454c0.3991-0.108 0.77525-0.2676 1.1231-0.4726l1.705 1.1172c0.047 0.031 0.1085 0.0253 0.1485-0.0137l0.914-0.9141c0.038-0.039 0.0466-0.0975 0.0176-0.1445l-0.3301-0.543-0.6015 0.6016c-0.04 0.039-0.1015 0.0447-0.1485 0.0137l-1.705-1.1172z" fill="#fff" opacity=".2"/>
 <path id="path25" d="m9.0977 1-2.3281 0.22266v1l2.3223-0.22266 0.00586-1zm3.0468 0.09961-3.0664 4.1035-0.00585 1.0078 3.0722-4.1113 1.8164 0.41797 0.6602-0.84961-2.4766-0.56836zm-8.3242 2.2363c-0.0263 3e-3 -0.05246 0.01525-0.07226 0.03515l-0.91407 0.91211c-0.0384 0.0385-0.04587 0.09979-0.01757 0.14649l0.33007 0.54297 0.60157-0.60157c0.0198-0.0199 0.04596-0.03215 0.07226-0.03515 0.0263-0.0027 0.05267 0.00413 0.07617 0.01953l1.7441 1.1426 0.00196 0.00195c0.06775-0.03693 0.14306-0.06034 0.21289-0.09375 0.00123-7.8e-4 0.00268-0.00118 0.00391-0.00195 0.1467-0.09288 0.2993-0.1762 0.45898-0.24805v-0.95508c-0.2345 0.082-0.46058 0.18153-0.67578 0.29883l-0.00196-0.00195-1.7441-1.1426c-0.0235-0.0154-0.04987-0.02223-0.07617-0.01953zm7.9805 2.9609-0.375 0.48437 2.5801 3.5468 0.5918-0.1875-2.7969-3.8437zm-8.1895 0.4414c-0.06599 0.15556-0.12473 0.31463-0.17383 0.47852l-1.9648 0.4082c-0.0547 0.0113-0.09375 0.06109-0.09375 0.11719v1c0-0.0561 0.03905-0.10589 0.09375-0.11719l1.9648-0.4082c0.1087-0.3628 0.25952-0.70639 0.44922-1.0254l-0.27539-0.45313zm0.5664 2.2305c-0.02846 0.18502-0.04492 0.37343-0.04492 0.56641 0 1.4106 0.79812 2.6215 1.959 3.246 0.17556 0.0724 0.35678 0.1351 0.54297 0.1856l0.01171 0.0566c0.37526 0.1279 0.77093 0.2129 1.1895 0.2129 0.4152 0 0.81126-0.0753 1.1836-0.2011l0.01758-0.0704c0.26119-0.0706 0.50807-0.1699 0.74805-0.2832 0.0032-0.0019 0.00657-0.0038 0.00976-0.0058 0.56778-0.3549 1.0314-0.8595 1.3379-1.459 0.512 0.75 0.9102 1.3301 0.9102 1.3301 0.017 0.027 0.0491 0.0373 0.0781 0.0273l0.2012-0.0625 0.2929 0.4824 0.3125-0.3125c0.038-0.039 0.0466-0.0975 0.0176-0.1445l-0.4453-0.7324-0.3301 0.1035-1.0918-1.5996c-0.6291 1.1472-1.8411 1.9277-3.2422 1.9277-1.8961 0-3.441-1.4299-3.6582-3.2676zm-0.61132 2.25-0.82813 1.2636c-0.0308 0.047-0.02417 0.1085 0.01563 0.1485l0.32812 0.3281 0.75977-1.1602c-0.1054-0.1853-0.19679-0.3793-0.27539-0.58z" opacity=".3"/>
</svg>
