<?xml version="1.0" encoding="UTF-8"?>
<svg id="svg38" width="22" height="22" version="1.1" xmlns="http://www.w3.org/2000/svg" xmlns:cc="http://creativecommons.org/ns#" xmlns:dc="http://purl.org/dc/elements/1.1/" xmlns:rdf="http://www.w3.org/1999/02/22-rdf-syntax-ns#">
 <metadata id="metadata42">
  <rdf:RDF>
   <cc:Work rdf:about="">
    <dc:format>image/svg+xml</dc:format>
    <dc:type rdf:resource="http://purl.org/dc/dcmitype/StillImage"/>
   </cc:Work>
  </rdf:RDF>
 </metadata>
 <defs id="defs7">
  <radialGradient id="gr0" cx="12" cy="13" r="16" gradientTransform="matrix(1 0 0 .74747 0 4.7475)" gradientUnits="userSpaceOnUse">
   <stop id="stop2" stop-opacity=".23529" offset="0"/>
   <stop id="stop4" stop-opacity=".54902" offset="1"/>
  </radialGradient>
 </defs>
 <path id="path9" d="m11 2c-4.959 0-9 4.041-9 9 0 4.96 4.041 9 9 9 4.96 0 9-4.04 9-9 0-4.959-4.04-9-9-9zm0 1c4.42 0 8 3.582 8 8 0 4.42-3.58 8-8 8-4.418 0-8-3.58-8-8 0-4.418 3.582-8 8-8zm0 2c-3.314 0-6 2.686-6 6 0 3.31 2.686 6 6 6 3.31 0 6-2.69 6-6 0-3.314-2.69-6-6-6zm0 1c0.55 0 1 0.446 1 1v3h3c0.55 0 1 0.45 1 1s-0.45 1-1 1h-4c-0.55 0-1-0.45-1-1v-4c0-0.554 0.45-1 1-1zm-1.725 0.346c-0.09 0.224-0.275 0.401-0.275 0.654v4c0 1.09 0.909 2 2 2h4c0.25 0 0.43-0.19 0.65-0.28-0.7 1.91-2.49 3.28-4.65 3.28-2.773 0-5-2.23-5-5 0-2.16 1.367-3.952 3.275-4.654zm3.445 0c1.37 0.503 2.43 1.562 2.93 2.929-0.22-0.09-0.4-0.275-0.65-0.275h-2v-2c0-0.253-0.19-0.43-0.28-0.654z" fill="#fff" opacity=".05"/>
 <path id="base" d="m11 3c-4.4183 0-8 3.5817-8 8s3.5817 8 8 8 8-3.5817 8-8-3.5817-8-8-8zm0 2c3.3137 0 6 2.6863 6 6s-2.6863 6-6 6-6-2.686-6-6c0-3.3137 2.6863-6 6-6zm0 1c-0.554 0-1 0.446-1 1v4c0 0.554 0.446 1 1 1h4c0.554 0 1-0.446 1-1s-0.446-1-1-1h-3v-3c0-0.554-0.446-1-1-1z" fill="url(#gr0)"/>
 <path id="path17" d="m11 5c-3.315 0-6 2.689-6 6 0 3.31 2.68 6 6 6 3.31 0 6-2.69 6-6h-1c0 0.55-0.45 1-1 1h-4c-0.55 0-1-0.45-1-1v-4c0-0.554 0.45-1 1-1v-1z" opacity=".2"/>
 <path id="path19" d="m11 3c-4.418 0-8 3.582-8 8 0 4.42 3.582 8 8 8 4.42 0 8-3.58 8-8 0-4.418-3.58-8-8-8zm0 0.5c4.15 0 7.5 3.352 7.5 7.5 0 4.15-3.35 7.5-7.5 7.5-4.148 0-7.5-3.35-7.5-7.5 0-4.148 3.352-7.5 7.5-7.5zm0 1c-3.584 0-6.5 2.916-6.5 6.5 0 3.58 2.916 6.5 6.5 6.5 3.58 0 6.5-2.92 6.5-6.5 0-3.584-2.92-6.5-6.5-6.5zm0 0.5c3.31 0 6 2.686 6 6 0 3.31-2.69 6-6 6-3.314 0-6-2.69-6-6 0-3.314 2.686-6 6-6zm0 1c-0.55 0-1 0.446-1 1v4c0 0.55 0.45 1 1 1h4c0.55 0 1-0.45 1-1s-0.45-1-1-1h-3v-3c0-0.554-0.45-1-1-1zm0 0.5c0.29 0 0.5 0.214 0.5 0.5v3a0.5 0.5 0 0 0 0.5 0.5h3c0.29 0 0.5 0.21 0.5 0.5s-0.21 0.5-0.5 0.5h-4c-0.29 0-0.5-0.21-0.5-0.5v-4c0-0.286 0.21-0.5 0.5-0.5z" opacity=".3"/>
 <path id="path26" d="m11 5c-3.314 0-6 2.686-6 6 0 0.17 0.012 0.33 0.025 0.5 0.255-3.079 2.83-5.5 5.975-5.5 3.14 0 5.72 2.421 5.97 5.5 0.02-0.17 0.03-0.33 0.03-0.5 0-3.314-2.69-6-6-6zm-1 6v1c0 0.55 0.45 1 1 1h4c0.55 0 1-0.45 1-1 0-0.19-0.06-0.35-0.15-0.5-0.18 0.29-0.49 0.5-0.85 0.5h-4c-0.55 0-1-0.45-1-1zm-6.975 0.5c-0.01 0.17-0.025 0.33-0.025 0.5 0 4.42 3.582 8 8 8 4.42 0 8-3.58 8-8 0-0.17-0.02-0.33-0.03-0.5-0.25 4.19-3.72 7.5-7.97 7.5-4.249 0-7.715-3.31-7.975-7.5z" fill="#fff" opacity=".2"/>
 <path id="path33" d="m11 3c-4.418 0-8 3.582-8 8 0 0.17 0.015 0.33 0.025 0.5 0.26-4.184 3.726-7.5 7.975-7.5 4.25 0 7.72 3.316 7.97 7.5 0.01-0.17 0.03-0.33 0.03-0.5 0-4.418-3.58-8-8-8zm0 3c-0.55 0-1 0.446-1 1v1c0-0.554 0.45-1 1-1s1 0.446 1 1v-1c0-0.554-0.45-1-1-1zm1 4v1h3c0.36 0 0.67 0.21 0.85 0.5 0.09-0.15 0.15-0.31 0.15-0.5 0-0.55-0.45-1-1-1h-3zm-6.975 1.5c-0.013 0.17-0.025 0.33-0.025 0.5 0 3.31 2.686 6 6 6 3.31 0 6-2.69 6-6 0-0.17-0.01-0.33-0.03-0.5-0.25 3.08-2.83 5.5-5.97 5.5-3.145 0-5.72-2.42-5.975-5.5z" opacity=".3"/>
</svg>
