<?xml version="1.0" encoding="UTF-8"?>
<svg id="svg32" width="22" height="22" version="1.1" xmlns="http://www.w3.org/2000/svg" xmlns:cc="http://creativecommons.org/ns#" xmlns:dc="http://purl.org/dc/elements/1.1/" xmlns:rdf="http://www.w3.org/1999/02/22-rdf-syntax-ns#">
 <metadata id="metadata36">
  <rdf:RDF>
   <cc:Work rdf:about="">
    <dc:format>image/svg+xml</dc:format>
    <dc:type rdf:resource="http://purl.org/dc/dcmitype/StillImage"/>
   </cc:Work>
  </rdf:RDF>
 </metadata>
 <defs id="defs7">
  <radialGradient id="gr0" cx="12" cy="13" r="16" gradientTransform="matrix(1 0 0 .65656 0 5.6566)" gradientUnits="userSpaceOnUse">
   <stop id="stop2" stop-opacity=".23529" offset="0"/>
   <stop id="stop4" stop-opacity=".54902" offset="1"/>
  </radialGradient>
 </defs>
 <path id="path9" d="m7.9707 3a1 1.0001 0 0 0-0.67773 0.29297l-3.707 3.707h-2.0859c-0.8137 0-1.5 0.6863-1.5 1.5v5c-1.0871e-16 0.8137 0.6863 1.5 1.5 1.5h2.0859l3.707 3.707a1.0001 1.0001 0 0 0 1.707-0.707v-3.6211a1.0001 1.0001 0 0 0 0.08398 0.0664l1.75 1.2188a1.0001 1.0001 0 0 0 1.3262-0.1621c1.0988-1.2603 1.7773-2.9145 1.7773-4.7208 0-1.7042-0.6424-3.2604-1.6367-4.498a1.0001 1.0001 0 0 0-0.1719-0.2832 1.0001 1.0001 0 0 0-0.0039-0.00391 1.0001 1.0001 0 0 0-1.3223-0.16015l-1.75 1.2188a1.0001 1.0001 0 0 0-0.05273 0.04101v-3.0957a1.0001 1.0001 0 0 0-1.0293-1zm0.0293 1v14l-4-4h-2.5c-0.277 0-0.5-0.223-0.5-0.5v-5c0-0.277 0.223-0.5 0.5-0.5h2.5l4-4zm3.375 2.6562c0.9659 1.093 1.5625 2.5529 1.5625 4.125 0 1.5573-0.5816 2.9734-1.5313 4.0626l-1.75-1.2188c0.72885-0.7436 1.2188-1.7211 1.2188-2.8438 0-1.139-0.5023-2.16-1.25-2.9062l1.75-1.2188zm-2.375 2.043c0.52547 0.56855 0.875 1.2866 0.875 2.082 0 0.7795-0.35937 1.4409-0.875 2.0098v-4.0918z" fill="#fff" opacity=".05"/>
 <path id="base" d="m8 4-4 4h-2.5c-0.277 0-0.5 0.223-0.5 0.5v5c0 0.277 0.223 0.5 0.5 0.5h2.5l4 4v-14zm3.375 2.6562-1.75 1.2188c0.74774 0.7462 1.25 1.7672 1.25 2.9062 0 1.1226-0.48993 2.1002-1.2188 2.8438l1.75 1.2188c0.94962-1.0891 1.5312-2.5052 1.5312-4.0625 0-1.5721-0.59658-3.032-1.5625-4.125z" fill="url(#gr0)"/>
 <path id="path15" d="m17.75 2.2812-1.688 1.1563c1.88 1.863 3.032 4.4889 3.032 7.3435 0 2.838-1.14 5.421-3 7.281l1.687 1.157c2.087-2.214 3.407-5.157 3.407-8.438 0-3.2958-1.333-6.2826-3.438-8.4998zm-3.188 2.1876-1.687 1.1562-0.031 0.0312c1.325 1.309 2.156 3.1172 2.156 5.1248 0 1.992-0.819 3.756-2.125 5.063l0.031 0.031 1.719 1.156c1.506-1.651 2.437-3.841 2.437-6.25 0-2.4326-0.966-4.6572-2.5-6.3122z" opacity=".2"/>
 <path id="path17" d="m8 4-4 4h-2.5c-0.277 0-0.5 0.223-0.5 0.5v5c0 0.277 0.223 0.5 0.5 0.5h2.5l4 4v-14zm-0.5 1.207v11.586l-3.1465-3.1465a0.50005 0.50005 0 0 0-0.35352-0.1465h-2.5v-5h2.5a0.50005 0.50005 0 0 0 0.35352-0.14648l3.1465-3.1465zm3.875 1.4492-1.75 1.2188c0.7477 0.7462 1.25 1.7672 1.25 2.9062 0 1.1227-0.4899 2.1002-1.2188 2.8438l1.75 1.2188c0.9497-1.0892 1.5313-2.5053 1.5313-4.0626 0-1.572-0.5966-3.032-1.5625-4.125zm-0.1445 0.71094c0.722 0.95786 1.207 2.1268 1.207 3.414 0 1.2724-0.4709 2.4038-1.1777 3.3516l-0.916-0.6387c0.5923-0.7591 1.0312-1.658 1.0312-2.7129 0-1.0731-0.4495-2.0024-1.0625-2.7773l0.918-0.63672z" opacity=".3"/>
 <path id="path22" d="m10.15 8.5098-0.5254 0.36523c0.6351 0.63382 1.0717 1.472 1.1953 2.4062 0.0223-0.1655 0.0547-0.3272 0.0547-0.5 0-0.84395-0.2775-1.6208-0.7246-2.2714zm2.7637 2.7675c-0.1095 1.3607-0.6605 2.5946-1.5079 3.5665l-1.2304-0.8575c-0.1546 0.2276-0.32692 0.4422-0.51955 0.6387l1.75 1.2188c0.9497-1.0892 1.5313-2.5053 1.5313-4.0626 0-0.1695-0.0098-0.3372-0.0234-0.5039zm-11.914 2.2227v1c0 0.277 0.223 0.5 0.5 0.5h2.5l4 4v-1l-4-4h-2.5c-0.277 0-0.5-0.223-0.5-0.5z" fill="#fff" opacity=".2"/>
 <path id="path27" d="m8 4-4 4h-2.5c-0.277 0-0.5 0.223-0.5 0.5v1c0-0.277 0.223-0.5 0.5-0.5h2.5l4-4v-1zm3.375 2.6562-1.75 1.2188c0.19365 0.19326 0.36912 0.40736 0.5254 0.63477l1.2246-0.85352c0.8617 0.97511 1.4266 2.2428 1.5391 3.621 0.0132-0.1641 0.0234-0.3284 0.0234-0.4961 0-1.572-0.5966-3.032-1.5625-4.125zm-0.5547 4.625c-0.1225 0.9104-0.5473 1.7146-1.164 2.3438l0.51955 0.3613c0.4304-0.6335 0.6992-1.3791 0.6992-2.2051 0-0.1715-0.0328-0.3343-0.0547-0.5z" opacity=".3"/>
</svg>
