<?xml version="1.0" encoding="UTF-8"?>
<svg id="svg29" width="22" height="22" version="1.1" xmlns="http://www.w3.org/2000/svg" xmlns:cc="http://creativecommons.org/ns#" xmlns:dc="http://purl.org/dc/elements/1.1/" xmlns:rdf="http://www.w3.org/1999/02/22-rdf-syntax-ns#">
 <metadata id="metadata33">
  <rdf:RDF>
   <cc:Work rdf:about="">
    <dc:format>image/svg+xml</dc:format>
    <dc:type rdf:resource="http://purl.org/dc/dcmitype/StillImage"/>
   </cc:Work>
  </rdf:RDF>
 </metadata>
 <defs id="defs7">
  <radialGradient id="gr0" cx="12" cy="13" r="16" gradientTransform="matrix(1 0 0 .83838 0 3.8384)" gradientUnits="userSpaceOnUse">
   <stop id="stop2" stop-opacity=".23529" offset="0"/>
   <stop id="stop4" stop-opacity=".54902" offset="1"/>
  </radialGradient>
 </defs>
 <path id="path2" d="m11 0.50195c-5.7866 0-10.498 4.7114-10.498 10.498s4.7114 10.498 10.498 10.498 10.498-4.7114 10.498-10.498-4.7114-10.498-10.498-10.498zm0 1c5.2462 0 9.498 4.2519 9.498 9.498 0 5.2462-4.2518 9.498-9.498 9.498-5.2462 0-9.498-4.2518-9.498-9.498 0-5.2462 4.2519-9.498 9.498-9.498zm-4.041 5.4277c-0.7678 0-1.3867 0.33562-1.3867 0.76172v6.6172c0 0.4261 0.61891 0.7617 1.3867 0.7617h1.2969c0.7678 0 1.3867-0.3356 1.3867-0.7617v-6.6172c0-0.4261-0.61892-0.76172-1.3867-0.76172h-1.2969zm6.7832 0c-0.7671 0-1.3848 0.33562-1.3848 0.76172v6.6172c0 0.4261 0.6177 0.7617 1.3848 0.7617h1.3008c0.7667 0 1.3847-0.3356 1.3847-0.7617v-6.6172c0-0.4261-0.618-0.76172-1.3847-0.76172h-1.3008zm-6.7832 1h1.2969c0.18374 0 0.29459 0.04309 0.38672 0.07617v5.9882c-0.09236 0.033-0.20344 0.0762-0.38672 0.0762h-1.2969c-0.18328 0-0.29436-0.0432-0.38671-0.0762v-5.9882c0.09213-0.03308 0.20297-0.07617 0.38671-0.07617zm6.7832 0h1.3008c0.1829 0 0.2926 0.04311 0.3847 0.07617v5.9882c-0.0922 0.0331-0.2015 0.0762-0.3847 0.0762h-1.3008c-0.1826 0-0.2924-0.0413-0.3848-0.0742v-5.9902c0.0921-0.03303 0.2016-0.07617 0.3848-0.07617z" fill="#fff" opacity=".05" stroke-width="1.357"/>
 <path id="base" d="m11 1.501c-5.2462 0-9.499 4.2528-9.499 9.499s4.2528 9.499 9.499 9.499 9.499-4.2528 9.499-9.499-4.2528-9.499-9.499-9.499zm-4.0418 5.428h1.2986c0.76779 0 1.3862 0.33721 1.3862 0.76331v6.6161c0 0.4261-0.61838 0.76263-1.3862 0.76263h-1.2986c-0.76779 0-1.3862-0.33654-1.3862-0.76263v-6.6161c0-0.4261 0.61838-0.76331 1.3862-0.76331zm6.7843 0h1.3c0.7667 0 1.3855 0.33721 1.3855 0.76331v6.6161c0 0.4261-0.61879 0.76263-1.3855 0.76263h-1.3c-0.76711 0-1.3855-0.33654-1.3855-0.76263v-6.6161c0-0.4261 0.61838-0.76331 1.3855-0.76331z" fill="url(#gr0)" stroke-width="1.357"/>
 <path id="path14" d="m11 1.502c-5.2462 0-9.498 4.2519-9.498 9.498 0 5.2462 4.2519 9.498 9.498 9.498 5.2462 0 9.498-4.2518 9.498-9.498 0-5.2462-4.2518-9.498-9.498-9.498zm0 0.5c4.9759 0 8.998 4.0221 8.998 8.998 0 4.9759-4.0221 8.998-8.998 8.998-4.9759 0-8.998-4.0221-8.998-8.998 0-4.9759 4.0221-8.998 8.998-8.998zm-4.041 4.4277c-0.45709 0-0.87714 0.09351-1.2226 0.2832s-0.66406 0.52359-0.66406 0.97852v6.6172c0 0.4549 0.31853 0.789 0.66406 0.9785s0.76571 0.2832 1.2226 0.2832h1.2969c0.45695 0 0.87712-0.0937 1.2227-0.2832 0.34553-0.1895 0.66408-0.5236 0.66408-0.9785v-6.6172c0-0.45493-0.31858-0.78883-0.66408-0.97852-0.34551-0.18969-0.76557-0.2832-1.2227-0.2832h-1.2969zm6.7832 0c-0.4568 0-0.8753 0.0935-1.2207 0.2832s-0.6641 0.52359-0.6641 0.97852v6.6172c0 0.4549 0.3187 0.789 0.6641 0.9785s0.764 0.2832 1.2207 0.2832h1.3008c0.4565 0 0.8752-0.0937 1.2207-0.2832 0.3454-0.1894 0.664-0.5234 0.664-0.9785v-6.6172c0-0.45509-0.3186-0.78886-0.664-0.97852s-0.7641-0.2832-1.2207-0.2832h-1.3008zm-6.7832 0.5h1.2969c0.7678 0 1.3867 0.33562 1.3867 0.76172v6.6172c0 0.4261-0.61892 0.7617-1.3867 0.7617h-1.2969c-0.7678 0-1.3867-0.3356-1.3867-0.7617v-6.6172c0-0.4261 0.61891-0.76172 1.3867-0.76172zm6.7832 0h1.3008c0.7667 0 1.3847 0.33562 1.3847 0.76172v6.6172c0 0.4261-0.618 0.7617-1.3847 0.7617h-1.3008c-0.7671 0-1.3848-0.3356-1.3848-0.7617v-6.6172c0-0.4261 0.6177-0.76172 1.3848-0.76172z" opacity=".3" stroke-width="1.357"/>
 <path id="path19" d="m6.959 6.9297c-0.7678 0-1.3867 0.33562-1.3867 0.76172v1c0-0.4261 0.61891-0.76172 1.3867-0.76172h1.2969c0.7678 0 1.3867 0.33562 1.3867 0.76172v-1c0-0.4261-0.61892-0.76172-1.3867-0.76172h-1.2969zm6.7832 0c-0.7671 0-1.3848 0.33562-1.3848 0.76172v1c0-0.4261 0.6177-0.76172 1.3848-0.76172h1.3008c0.7667 0 1.3847 0.33562 1.3847 0.76172v-1c0-0.4261-0.618-0.76172-1.3847-0.76172h-1.3008zm-12.215 4.5703c-0.0087 0.1667-0.02539 0.3311-0.02539 0.5 0 5.2462 4.2519 9.498 9.498 9.498 5.2462 0 9.498-4.2518 9.498-9.498 0-0.1689-0.0166-0.3333-0.0253-0.5-0.2618 5.0121-4.3954 8.998-9.4727 8.998-5.0773 0-9.2109-3.9859-9.4727-8.998z" fill="#fff" opacity=".2" stroke-width="1.357"/>
 <path id="path24" d="m11 1.502c-5.2462 0-9.498 4.2519-9.498 9.498 0 0.1689 0.01669 0.3333 0.02539 0.5 0.26175-5.0121 4.3954-8.998 9.4727-8.998 5.0773 0 9.2109 3.986 9.4727 8.998 0.0087-0.1667 0.0253-0.3311 0.0253-0.5 0-5.2462-4.2518-9.498-9.498-9.498zm-5.4277 12.807v1c0 0.4261 0.61891 0.7617 1.3867 0.7617h1.2969c0.7678 0 1.3867-0.3356 1.3867-0.7617v-1c0 0.4261-0.61892 0.7617-1.3867 0.7617h-1.2969c-0.7678 0-1.3867-0.3356-1.3867-0.7617zm6.7851 0v1c0 0.4261 0.6177 0.7617 1.3848 0.7617h1.3008c0.7667 0 1.3847-0.3356 1.3847-0.7617v-1c0 0.4261-0.618 0.7617-1.3847 0.7617h-1.3008c-0.7671 0-1.3848-0.3356-1.3848-0.7617z" opacity=".3" stroke-width="1.357"/>
</svg>
