<?xml version="1.0" encoding="UTF-8"?>
<svg id="svg30" width="22" height="22" version="1.1" xmlns="http://www.w3.org/2000/svg" xmlns:cc="http://creativecommons.org/ns#" xmlns:dc="http://purl.org/dc/elements/1.1/" xmlns:rdf="http://www.w3.org/1999/02/22-rdf-syntax-ns#">
 <metadata id="metadata34">
  <rdf:RDF>
   <cc:Work rdf:about="">
    <dc:format>image/svg+xml</dc:format>
    <dc:type rdf:resource="http://purl.org/dc/dcmitype/StillImage"/>
   </cc:Work>
  </rdf:RDF>
 </metadata>
 <defs id="defs7">
  <radialGradient id="gr0" cx="12" cy="13" r="16" gradientTransform="matrix(1 0 0 .74747 0 4.7475)" gradientUnits="userSpaceOnUse">
   <stop id="stop2" stop-opacity=".23529" offset="0"/>
   <stop id="stop4" stop-opacity=".54902" offset="1"/>
  </radialGradient>
 </defs>
 <path id="path9" d="m3.5 2c-1.3677 0-2.5 1.1323-2.5 2.5v13c0 1.3677 1.1323 2.5 2.5 2.5h15c1.3677 0 2.5-1.1323 2.5-2.5v-13c0-1.3677-1.1323-2.5-2.5-2.5h-15zm0 1h15c0.831 0 1.5 0.669 1.5 1.5v13c0 0.831-0.669 1.5-1.5 1.5h-15c-0.831 0-1.5-0.669-1.5-1.5v-13c0-0.831 0.669-1.5 1.5-1.5zm6.6875 2.1562c-0.23042 0-0.40625 0.17189-0.40625 0.40625v0.84375c-0.41201 0.10978-0.8273 0.25926-1.1875 0.46875l-0.5625-0.59375c-0.16572-0.16569-0.43082-0.16293-0.59375 0l-1.1562 1.1562c-0.16294 0.16293-0.16572 0.42803 0 0.59375l0.59375 0.5625c-0.20949 0.3602-0.35897 0.77549-0.46875 1.1875h-0.84375c-0.23436 0-0.40625 0.17583-0.40625 0.40625v1.625c0 0.2304 0.17189 0.4063 0.40625 0.4063h0.84375c0.10978 0.4121 0.25926 0.8272 0.46875 1.1874l-0.59375 0.5626c-0.16571 0.1657-0.16293 0.4308 0 0.5937l1.1562 1.1563c0.16293 0.163 0.42803 0.1658 0.59375 0l0.5625-0.5938c0.3602 0.2095 0.77549 0.359 1.1875 0.4688v0.8437c0 0.2344 0.17583 0.4063 0.40625 0.4063h1.625c0.2304 0 0.4063-0.1719 0.4063-0.4063v-0.8437c0.4121-0.1097 0.8272-0.2593 1.1874-0.4688l0.5626 0.5938c0.1657 0.1657 0.4308 0.163 0.5937 0l1.1563-1.1563c0.082-0.0815 0.1259-0.1739 0.125-0.2813-9e-4 -0.1072-0.042-0.2294-0.125-0.3124l-0.5938-0.5626c0.2095-0.3601 0.359-0.7753 0.4688-1.1874h0.8437c0.2344-1e-4 0.4063-0.1759 0.4063-0.4063v-1.625c0-0.23042-0.1719-0.40625-0.4063-0.40625h-0.8437c-0.1097-0.41201-0.2593-0.8273-0.4688-1.1875l0.5938-0.5625c0.1657-0.16572 0.163-0.43081 0-0.59375l-1.1563-1.1562c-0.1629-0.16295-0.4279-0.16572-0.5937 0l-0.5626 0.59375c-0.3601-0.20949-0.7753-0.35897-1.1874-0.46875v-0.84375c-1e-4 -0.23436-0.1759-0.40625-0.4063-0.40625h-1.625zm0.5937 1h0.4376v0.25a1 1.0001 0 0 0 0.7421 0.9668c0.3554 0.09467 0.6932 0.22169 0.9434 0.36718a1.0001 1.0001 0 0 0 1.2285-0.17773l0.1445-0.15234 0.3125 0.3125-0.1523 0.14453a1.0001 1.0001 0 0 0-0.1777 1.2285c0.1455 0.25016 0.2725 0.58801 0.3672 0.9434a1.0001 1.0001 0 0 0 0.9668 0.7421h0.25v0.4376h-0.25a1.0001 1.0001 0 0 0-0.9668 0.7421c-0.0947 0.3553-0.2217 0.6932-0.3672 0.9434a1.0001 1.0001 0 0 0 0.1777 1.2285l0.1523 0.1445-0.3125 0.3125-0.1445-0.1523a1.0001 1.0001 0 0 0-1.2285-0.1777c-0.2502 0.1455-0.588 0.2725-0.9434 0.3672a1.0001 1.0001 0 0 0-0.7421 0.9668v0.25h-0.4376v-0.25a1.0001 1.0001 0 0 0-0.7421-0.9668c-0.35546-0.0948-0.69326-0.2218-0.9434-0.3672a1.0001 1.0001 0 0 0-1.2285 0.1777l-0.14453 0.1523-0.3125-0.3125 0.15234-0.1445a1.0001 1.0001 0 0 0 0.17773-1.2285c-0.14549-0.2502-0.27251-0.588-0.36718-0.9434a1.0001 1.0001 0 0 0-0.9668-0.7421h-0.25v-0.4376h0.25a1.0001 1.0001 0 0 0 0.9668-0.7421c0.09467-0.35539 0.22169-0.69323 0.36718-0.9434a1.0001 1.0001 0 0 0-0.17773-1.2285l-0.15234-0.14453 0.3125-0.3125 0.14453 0.15234a1.0001 1.0001 0 0 0 1.2285 0.17773c0.25016-0.14549 0.58801-0.27251 0.9434-0.36718a1.0001 1.0001 0 0 0 0.7421-0.9668v-0.25zm0.2188 2.0625c-1.5258 0-2.7812 1.2555-2.7812 2.7812 0 1.5258 1.2555 2.7813 2.7812 2.7812 1.5258 0 2.7812-1.2554 2.7812-2.7812 0-1.5258-1.2554-2.7812-2.7812-2.7812zm0 1c0.9771 0 1.7812 0.80415 1.7812 1.7812s-0.8041 1.7812-1.7812 1.7812-1.7812-0.8041-1.7812-1.7812 0.80415-1.7812 1.7812-1.7812z" fill="#fff" opacity=".05"/>
 <path id="base" d="m3.5 3c-0.831 0-1.5 0.669-1.5 1.5v13c0 0.831 0.669 1.5 1.5 1.5h15c0.831 0 1.5-0.669 1.5-1.5v-13c0-0.831-0.669-1.5-1.5-1.5h-15zm6.6875 2.1562h1.625c0.23042 0 0.40625 0.17189 0.40625 0.40625v0.84375c0.41201 0.10978 0.8273 0.25926 1.1875 0.46875l0.5625-0.59375c0.16572-0.16572 0.43082-0.16295 0.59375 0l1.1562 1.1562c0.16293 0.16294 0.16571 0.42803 0 0.59375l-0.59375 0.5625c0.20949 0.3602 0.35897 0.77549 0.46875 1.1875h0.84375c0.23436 0 0.40625 0.17583 0.40625 0.40625v1.625c0 0.23042-0.17189 0.40625-0.40625 0.40625h-0.84375c-0.10978 0.41201-0.25926 0.8273-0.46875 1.1875l0.59375 0.5625c0.08285 0.08286 0.12409 0.20527 0.125 0.3125 9.2e-4 0.10723-0.043539 0.19978-0.125 0.28125l-1.1562 1.1562c-0.16293 0.16293-0.42803 0.16571-0.59375 0l-0.5625-0.59375c-0.3602 0.20949-0.77549 0.35897-1.1875 0.46875v0.84375c0 0.23436-0.17583 0.40625-0.40625 0.40625h-1.625c-0.23042 0-0.40625-0.17189-0.40625-0.40625v-0.84375c-0.41201-0.1098-0.8273-0.25926-1.1875-0.46875l-0.5625 0.59375c-0.16572 0.16572-0.43082 0.16294-0.59375 0l-1.1562-1.1562c-0.16293-0.16293-0.16571-0.42803 0-0.59375l0.59375-0.5625c-0.20949-0.3602-0.35897-0.77549-0.46875-1.1875h-0.84375c-0.23436 0-0.40625-0.17583-0.40625-0.40625v-1.625c0-0.23042 0.17189-0.40625 0.40625-0.40625h0.84375c0.10978-0.41201 0.25926-0.8273 0.46875-1.1875l-0.59375-0.5625c-0.16572-0.16572-0.16294-0.43082 0-0.59375l1.1562-1.1562c0.16293-0.16293 0.42803-0.16569 0.59375 0l0.5625 0.59375c0.3602-0.20949 0.77549-0.35897 1.1875-0.46875v-0.84375c-2.5e-6 -0.23436 0.17583-0.40625 0.40625-0.40625zm0.8125 4.0625c-0.9771 0-1.7812 0.80415-1.7812 1.7812 0 0.9771 0.80415 1.7812 1.7812 1.7812 0.9771 0 1.7812-0.80415 1.7812-1.7812s-0.80415-1.7812-1.7812-1.7812z" fill="url(#gr0)"/>
 <path id="path15" d="m3.5 3c-0.831 0-1.5 0.669-1.5 1.5v13c0 0.831 0.669 1.5 1.5 1.5h15c0.831 0 1.5-0.669 1.5-1.5v-13c0-0.831-0.669-1.5-1.5-1.5h-15zm0 0.5h15c0.5626 0 1 0.43735 1 1v13c0 0.5626-0.4374 1-1 1h-15c-0.56265 0-1-0.4374-1-1v-13c0-0.56265 0.43735-1 1-1zm6.6875 1.1562c-0.47908 0-0.90626 0.4218-0.90625 0.90625v0.50781c-0.18749 0.06119-0.36961 0.13747-0.55273 0.22071l-0.33399-0.35352a0.50005 0.50005 0 0 0-0.00976-0.00977c-0.35623-0.35617-0.9481-0.35268-1.3008 0l-1.1562 1.1562c-0.35267 0.35267-0.35622 0.94456 0 1.3008a0.50005 0.50005 0 0 0 0.00977 0.00976l0.35352 0.33399c-0.08324 0.18312-0.15952 0.36524-0.22071 0.55273h-0.50781c-0.48444 0-0.90625 0.42717-0.90625 0.90625v1.625c0 0.4791 0.42181 0.9063 0.90625 0.9063h0.50781c0.06119 0.1874 0.13747 0.3696 0.22071 0.5527l-0.35352 0.334a0.50005 0.50005 0 0 0-0.00977 0.0097c-0.35621 0.3563-0.35267 0.9481 0 1.3008l1.1562 1.1563c0.35267 0.3527 0.94457 0.3562 1.3008 0a0.50005 0.50005 0 0 0 0.00976-0.0098l0.33399-0.3535c0.18312 0.0832 0.36525 0.1595 0.55273 0.2207v0.5078c0 0.4844 0.42717 0.9063 0.90625 0.9063h1.625c0.4791-2e-4 0.9063-0.4219 0.9063-0.9063v-0.5078c0.1874-0.0612 0.3696-0.1375 0.5527-0.2207l0.334 0.3535a0.50005 0.50005 0 0 0 0.0097 0.0098c0.3563 0.3562 0.9481 0.3526 1.3008 0l1.1563-1.1563c0.151-0.151 0.2735-0.3908 0.2715-0.6387-0.0021-0.2322-0.0733-0.4638-0.2715-0.6621a0.50005 0.50005 0 0 0-0.0098-0.0097l-0.3535-0.334c0.0832-0.1831 0.1595-0.3653 0.2207-0.5527h0.5078c0.4844 0 0.9063-0.4272 0.9063-0.9063v-1.625c0-0.47908-0.4219-0.90625-0.9063-0.90625h-0.5078c-0.0612-0.18749-0.1375-0.36961-0.2207-0.55273l0.3535-0.33399a0.50005 0.50005 0 0 0 0.0098-0.00976c0.3562-0.35623 0.3526-0.94811 0-1.3008l-1.1563-1.1562c-0.3527-0.35271-0.9446-0.35621-1.3008 0a0.50005 0.50005 0 0 0-0.0097 0.00977l-0.334 0.35352c-0.1831-0.08324-0.3653-0.15952-0.5527-0.22071v-0.50781c0-0.48444-0.4272-0.90625-0.9063-0.90625h-1.625zm0 0.5h1.625c0.2304 0 0.4062 0.17189 0.4063 0.40625v0.84375c0.4121 0.10978 0.8273 0.25926 1.1874 0.46875l0.5626-0.59375c0.1658-0.16572 0.4308-0.16295 0.5937 0l1.1563 1.1562c0.163 0.16294 0.1657 0.42803 0 0.59375l-0.5938 0.5625c0.2095 0.3602 0.3591 0.77549 0.4688 1.1875h0.8437c0.2344 0 0.4063 0.17583 0.4063 0.40625v1.625c0 0.2304-0.1719 0.4062-0.4063 0.4063h-0.8437c-0.1098 0.4121-0.2593 0.8273-0.4688 1.1874l0.5938 0.5626c0.083 0.083 0.1241 0.2052 0.125 0.3124 9e-4 0.1074-0.043 0.1998-0.125 0.2813l-1.1563 1.1563c-0.1629 0.163-0.428 0.1657-0.5937 0l-0.5626-0.5938c-0.3602 0.2095-0.7753 0.3591-1.1874 0.4688v0.8437c0 0.2344-0.1759 0.4063-0.4063 0.4063h-1.625c-0.23042 0-0.40625-0.1719-0.40625-0.4063v-0.8437c-0.41201-0.1098-0.8273-0.2593-1.1875-0.4688l-0.5625 0.5938c-0.16572 0.1658-0.43082 0.163-0.59375 0l-1.1562-1.1563c-0.16293-0.1629-0.16571-0.428 0-0.5937l0.59375-0.5626c-0.20949-0.3602-0.35897-0.7753-0.46875-1.1874h-0.84375c-0.23436 0-0.40625-0.1759-0.40625-0.4063v-1.625c0-0.23042 0.17189-0.40625 0.40625-0.40625h0.84375c0.10978-0.41201 0.25926-0.8273 0.46875-1.1875l-0.59375-0.5625c-0.16572-0.16572-0.16294-0.43082 0-0.59375l1.1562-1.1562c0.16293-0.16293 0.42803-0.16569 0.59375 0l0.5625 0.59375c0.3602-0.20949 0.77549-0.35897 1.1875-0.46875v-0.84375c0-0.23436 0.17583-0.40625 0.40625-0.40625zm0.8125 4.0625c-0.9771 0-1.7812 0.80415-1.7812 1.7812s0.80415 1.7812 1.7812 1.7812 1.7812-0.8041 1.7812-1.7812-0.8041-1.7812-1.7812-1.7812zm0 0.5c0.7028 0 1.2812 0.57845 1.2812 1.2812s-0.5784 1.2812-1.2812 1.2812c-0.7028 1e-4 -1.2812-0.5784-1.2812-1.2812s0.57845-1.2812 1.2812-1.2812z" opacity=".3"/>
 <path id="path20" d="m10.188 5.1562c-0.23042 0-0.40625 0.17189-0.40625 0.40625v0.84375c-0.41201 0.10978-0.8273 0.25926-1.1875 0.46875l-0.5625-0.59375c-0.16572-0.16569-0.43082-0.16293-0.59375 0l-1.1562 1.1562c-0.16294 0.16293-0.16572 0.42803 0 0.59375l0.20898 0.19727 0.94727-0.94727c0.16293-0.16293 0.42803-0.16569 0.59375 0l0.5625 0.59375c0.3602-0.20949 0.77549-0.35897 1.1875-0.46875v-0.84375c0-0.23436 0.17583-0.40625 0.40625-0.40625h1.625c0.2304 0 0.4062 0.17189 0.4063 0.40625v0.84375c0.4121 0.10978 0.8273 0.25926 1.1874 0.46875l0.5626-0.59375c0.1658-0.16572 0.4308-0.16295 0.5937 0l0.9473 0.94727 0.209-0.19727c0.1657-0.16572 0.163-0.43081 0-0.59375l-1.1563-1.1562c-0.1629-0.16295-0.4279-0.16572-0.5937 0l-0.5626 0.59375c-0.3601-0.20949-0.7753-0.35897-1.1874-0.46875v-0.84375c-1e-4 -0.23436-0.1759-0.40625-0.4063-0.40625h-1.625zm-3.625 4.1406c-0.05701 0.16017-0.11289 0.32162-0.15625 0.48437h-0.84375c-0.23436 0-0.40625 0.17583-0.40625 0.40625v1c0-0.2304 0.17189-0.4063 0.40625-0.4063h0.84375c0.10978-0.412 0.25926-0.82725 0.46875-1.1874l-0.3125-0.29687zm8.875 0-0.3125 0.29687c0.2095 0.3602 0.3591 0.77555 0.4688 1.1874h0.8437c0.2344 0 0.4063 0.1759 0.4063 0.4063v-1c0-0.23042-0.1719-0.40625-0.4063-0.40625h-0.8437c-0.0434-0.16275-0.0993-0.3242-0.1563-0.48437zm-6.1367 2.2031c-0.04762 0.1598-0.08203 0.3256-0.08203 0.5 0 0.9771 0.80415 1.7812 1.7812 1.7812s1.7812-0.8041 1.7812-1.7812c0-0.1744-0.0344-0.3402-0.082-0.5-0.2192 0.7355-0.8965 1.2812-1.6992 1.2812s-1.48-0.5457-1.6992-1.2812zm-2.7383 2.2031-0.28125 0.2657c-0.16571 0.1657-0.16293 0.4308 0 0.5937l0.20898 0.209 0.38477-0.3653c-0.12674-0.2179-0.22519-0.4578-0.3125-0.7031zm8.875 0c-0.0873 0.2453-0.1858 0.4852-0.3125 0.7031l0.3848 0.3653 0.209-0.209c0.082-0.0815 0.1259-0.1739 0.125-0.2813-9e-4 -0.1072-0.042-0.2294-0.125-0.3124l-0.2813-0.2657zm-13.438 3.7969v1c0 0.831 0.669 1.5 1.5 1.5h15c0.831 0 1.5-0.669 1.5-1.5v-1c0 0.831-0.669 1.5-1.5 1.5h-15c-0.831 0-1.5-0.669-1.5-1.5z" fill="#fff" opacity=".2"/>
 <path id="path25" d="m3.5 3c-0.831 0-1.5 0.669-1.5 1.5v1c0-0.831 0.669-1.5 1.5-1.5h15c0.831 0 1.5 0.669 1.5 1.5v-1c0-0.831-0.669-1.5-1.5-1.5h-15zm2.9902 5.2285-0.20898 0.20898c-0.16294 0.16293-0.16572 0.42803 0 0.59375l0.28125 0.26563c0.08731-0.24532 0.18576-0.48521 0.3125-0.70313l-0.38477-0.36523zm9.0196 0-0.3848 0.36523c0.1267 0.21792 0.2252 0.45781 0.3125 0.70313l0.2813-0.26563c0.1657-0.16572 0.163-0.43081 0-0.59375l-0.209-0.20898zm-4.5098 0.99023c-0.9771 0-1.7812 0.80415-1.7812 1.7812 0 0.1744 0.03441 0.3402 0.08203 0.5 0.21926-0.7355 0.89652-1.2812 1.6992-1.2812 0.8027-1e-4 1.48 0.5457 1.6992 1.2812 0.0476-0.1598 0.082-0.3256 0.082-0.5 0-0.9771-0.8041-1.7812-1.7812-1.7812zm-5.8438 2.5938v1c0 0.2304 0.17189 0.4063 0.40625 0.4063h0.84375c0.04336 0.1627 0.09924 0.3242 0.15625 0.4843l0.3125-0.2969c-0.20949-0.3602-0.35897-0.7753-0.46875-1.1874h-0.84375c-0.23436 0-0.40625-0.1759-0.40625-0.4063zm11.688 0c0 0.2304-0.1719 0.4062-0.4063 0.4063h-0.8437c-0.1098 0.4121-0.2593 0.8273-0.4688 1.1874l0.3125 0.2969c0.057-0.1601 0.1129-0.3216 0.1563-0.4843h0.8437c0.2344-1e-4 0.4063-0.1759 0.4063-0.4063v-1zm-10.354 2.959-0.20898 0.1973c-0.16571 0.1657-0.16293 0.4308 0 0.5937l1.1562 1.1563c0.16293 0.163 0.42803 0.1658 0.59375 0l0.5625-0.5938c0.3602 0.2095 0.77549 0.359 1.1875 0.4688v0.8437c0 0.2344 0.17583 0.4063 0.40625 0.4063h1.625c0.2304 0 0.4063-0.1719 0.4063-0.4063v-0.8437c0.4121-0.1097 0.8272-0.2593 1.1874-0.4688l0.5626 0.5938c0.1657 0.1658 0.4308 0.163 0.5937 0l1.1563-1.1563c0.082-0.0815 0.1259-0.1739 0.125-0.2813-9e-4 -0.1072-0.042-0.2294-0.125-0.3124l-0.209-0.1973-0.9473 0.9473c-0.1629 0.163-0.428 0.1657-0.5937 0l-0.5626-0.5938c-0.3602 0.2095-0.7753 0.3591-1.1874 0.4688v0.8437c0 0.2344-0.1759 0.4063-0.4063 0.4063h-1.625c-0.23042 0-0.40625-0.1719-0.40625-0.4063v-0.8437c-0.41201-0.1098-0.8273-0.2593-1.1875-0.4688l-0.5625 0.5938c-0.16572 0.1658-0.43082 0.163-0.59375 0l-0.94727-0.9473z" opacity=".3"/>
</svg>
