<?xml version="1.0" encoding="UTF-8"?>
<svg id="svg32" width="22" height="22" version="1.1" xmlns="http://www.w3.org/2000/svg" xmlns:cc="http://creativecommons.org/ns#" xmlns:dc="http://purl.org/dc/elements/1.1/" xmlns:rdf="http://www.w3.org/1999/02/22-rdf-syntax-ns#">
 <metadata id="metadata36">
  <rdf:RDF>
   <cc:Work rdf:about="">
    <dc:format>image/svg+xml</dc:format>
    <dc:type rdf:resource="http://purl.org/dc/dcmitype/StillImage"/>
   </cc:Work>
  </rdf:RDF>
 </metadata>
 <defs id="defs7">
  <radialGradient id="gr0" cx="12" cy="13" r="16" gradientTransform="matrix(1 0 0 .65656 0 5.6566)" gradientUnits="userSpaceOnUse">
   <stop id="stop2" stop-opacity=".23529" offset="0"/>
   <stop id="stop4" stop-opacity=".54902" offset="1"/>
  </radialGradient>
 </defs>
 <path id="path9" d="m17 3c-1.0907 0-2 0.9093-2 2v1.4023c-0.3108-0.18876-0.6198-0.40039-1-0.40039h-0.9297a1 1.0001 0 0 0-0.0703-0.00195c-1.0631 0-2 0.84508-2 1.9375v1.4297c-0.3143-0.17595-0.633-0.36719-1-0.36719h-1c-1.0138 0-2 0.73799-2 1.8438v1.4492c-0.31577-0.156-0.64022-0.293-1-0.293h-1c-0.45732 0-0.89179 0.1138-1.2715 0.373-0.3797 0.2593-0.72852 0.7372-0.72852 1.3145v3.625c0 0.5777 0.34901 1.0554 0.72852 1.3145 0.3795 0.259 0.81397 0.373 1.2715 0.373h1c0.45732 0 0.89179-0.1138 1.2715-0.373 0.11619-0.0794 0.12138-0.2855 0.22266-0.4024 0.38135 0.4519 0.89736 0.7754 1.5059 0.7754h1c0.6092 0 1.1246-0.3247 1.5059-0.7773 0.3735 0.4512 0.8782 0.7773 1.4941 0.7773h1c0.6249 0 1.1309-0.3382 1.5039-0.8008 0.3689 0.4618 0.8698 0.8008 1.4961 0.8008h1c1.0907 0 2-0.9093 2-2v-12c0-1.0907-0.9093-2-2-2h-1zm0 1h1c0.554 0 1 0.446 1 1v12c0 0.554-0.446 1-1 1h-1c-0.554 0-1-0.446-1-1v-12c0-0.554 0.446-1 1-1zm-4 3v0.00195h1c0.554 0 1 0.42165 1 0.93555v9.125c0 0.5144-0.446 0.9375-1 0.9375h-1c-0.554 0-1-0.4225-1-0.9375v-9.125c0-0.51443 0.446-0.9375 1-0.9375zm-4 3h1c0.554 0 1 0.3818 1 0.8438v6.3124c0 0.4618-0.446 0.8438-1 0.8438h-1c-0.554 0-1-0.3818-1-0.8438v-6.3124c0-0.4617 0.446-0.8438 1-0.8438zm-4 3h1c0.554 0 1 0.3005 1 0.6875v3.625c0 0.3878-0.446 0.6875-1 0.6875h-1c-0.554 0-1-0.3005-1-0.6875v-3.625c0-0.3878 0.446-0.6875 1-0.6875z" fill="#fff" opacity=".05"/>
 <path id="base" d="m17 4c-0.554 0-1 0.446-1 1v12c0 0.554 0.446 1 1 1h1c0.554 0 1-0.446 1-1v-12c0-0.554-0.446-1-1-1h-1zm-4 3c-0.554 0-1 0.42307-1 0.9375v9.125c0 0.515 0.446 0.938 1 0.938h1c0.554 0 1-0.42307 1-0.9375v-9.125c0-0.5139-0.446-0.937-1-0.937h-1zm-4 3c-0.554 0-1 0.38208-1 0.84375v6.3125c0 0.462 0.446 0.844 1 0.844h1c0.554 0 1-0.38208 1-0.84375v-6.3125c0-0.462-0.446-0.844-1-0.844h-1zm-4 3c-0.554 0-1 0.2997-1 0.6875v3.625c0 0.387 0.446 0.687 1 0.687h1c0.554 0 1-0.2997 1-0.6875v-3.625c0-0.387-0.446-0.687-1-0.687h-1z" fill="url(#gr0)"/>
 <path id="path15" d="m0 2v1l3 2.5v3.5h1v-3.5l3-2.5v-1zm1 1h2v1.5zm3 0h2l-2 1.5z" opacity=".2"/>
 <path id="path17" d="m17 4c-0.554 0-1 0.446-1 1v12c0 0.554 0.446 1 1 1h1c0.554 0 1-0.446 1-1v-12c0-0.554-0.446-1-1-1h-1zm0 0.5h1c0.2856 0 0.5 0.21435 0.5 0.5v12c0 0.2856-0.2144 0.5-0.5 0.5h-1c-0.2856 0-0.5-0.2144-0.5-0.5v-12c0-0.28565 0.2144-0.5 0.5-0.5zm-4 2.5c-0.554 0-1 0.42307-1 0.9375v9.125c0 0.515 0.446 0.9375 1 0.9375h1c0.554 0 1-0.4231 1-0.9375v-9.125c0-0.5139-0.446-0.93555-1-0.93555h-1v-0.00195zm-0.0039 0.50195a0.50005 0.50005 0 0 0 0.0039 0h1c0.2994 0 0.5 0.21094 0.5 0.43555v9.125c0 0.2254-0.2006 0.4375-0.5 0.4375h-1c-0.2995 0-0.5-0.2112-0.5-0.4375v-9.125c0-0.22417 0.1994-0.43318 0.4961-0.43555zm-3.9961 2.498c-0.554 0-1 0.3821-1 0.8438v6.3124c0 0.462 0.446 0.8438 1 0.8438h1c0.554 0 1-0.382 1-0.8438v-6.3124c0-0.462-0.446-0.8438-1-0.8438h-1zm0 0.5h1c0.3242 0 0.5 0.2035 0.5 0.3438v6.3124c0 0.1398-0.1759 0.3438-0.5 0.3438h-1c-0.32416 0-0.5-0.2034-0.5-0.3438v-6.3124c0-0.1397 0.17589-0.3438 0.5-0.3438zm-4 2.5c-0.554 0-1 0.2997-1 0.6875v3.625c0 0.387 0.446 0.6875 1 0.6875h1c0.554 0 1-0.2997 1-0.6875v-3.625c0-0.387-0.446-0.6875-1-0.6875h-1zm0 0.5h1c0.18675 0 0.34441 0.0558 0.42578 0.1113 0.08137 0.0556 0.07422 0.0748 0.07422 0.0762v3.625c0 0.0022 0.00706 0.0207-0.07422 0.0762-0.08127 0.0555-0.23894 0.1113-0.42578 0.1113h-1c-0.18675 0-0.34441-0.0558-0.42578-0.1113-0.08137-0.0556-0.07422-0.0748-0.07422-0.0762v-3.625c0-0.0022-0.00706-0.0207 0.07422-0.0762 0.08127-0.0555 0.23894-0.1113 0.42578-0.1113z" opacity=".3"/>
 <path id="path22" d="m16 17v1c0 0.554 0.446 1 1 1h1c0.554 0 1-0.446 1-1v-1c0 0.554-0.446 1-1 1h-1c-0.554 0-1-0.446-1-1zm-4 0.0625v1c0 0.515 0.446 0.9375 1 0.9375h1c0.554 0 1-0.4231 1-0.9375v-1c0 0.5144-0.446 0.9375-1 0.9375h-1c-0.554 0-1-0.4225-1-0.9375zm-4 0.0937v1c0 0.462 0.446 0.8438 1 0.8438h1c0.554 0 1-0.382 1-0.8438v-1c0 0.4618-0.446 0.8438-1 0.8438h-1c-0.554 0-1-0.3818-1-0.8438zm-4 0.1563v1c0 0.387 0.446 0.6875 1 0.6875h1c0.554 0 1-0.2997 1-0.6875v-1c0 0.3878-0.446 0.6875-1 0.6875h-1c-0.554 0-1-0.3005-1-0.6875z" fill="#fff" opacity=".2"/>
 <path id="path27" d="m17 4c-0.554 0-1 0.446-1 1v1c0-0.554 0.446-1 1-1h1c0.554 0 1 0.446 1 1v-1c0-0.554-0.446-1-1-1h-1zm-4 3c-0.554 0-1 0.42307-1 0.9375v1c0-0.51443 0.446-0.9375 1-0.9375v0.00195h1c0.554 0 1 0.42165 1 0.93555v-1c0-0.5139-0.446-0.93555-1-0.93555h-1v-0.00195zm-4 3c-0.554 0-1 0.3821-1 0.8438v1c0-0.4616 0.446-0.8438 1-0.8438h1c0.554 0 1 0.3818 1 0.8438v-1c0-0.462-0.446-0.8438-1-0.8438h-1zm-4 3c-0.554 0-1 0.2997-1 0.6875v1c0-0.3878 0.446-0.6875 1-0.6875h1c0.554 0 1 0.3005 1 0.6875v-1c0-0.387-0.446-0.6875-1-0.6875h-1z" opacity=".3"/>
</svg>
