<?xml version="1.0" encoding="UTF-8"?>
<svg id="svg37" width="22" height="22" version="1.1" xmlns="http://www.w3.org/2000/svg" xmlns:cc="http://creativecommons.org/ns#" xmlns:dc="http://purl.org/dc/elements/1.1/" xmlns:rdf="http://www.w3.org/1999/02/22-rdf-syntax-ns#">
 <metadata id="metadata41">
  <rdf:RDF>
   <cc:Work rdf:about="">
    <dc:format>image/svg+xml</dc:format>
    <dc:type rdf:resource="http://purl.org/dc/dcmitype/StillImage"/>
   </cc:Work>
  </rdf:RDF>
 </metadata>
 <defs id="defs12">
  <radialGradient id="a" cx="12" cy="13" r="16" gradientTransform="matrix(1 0 0 .3 0 14.3)" gradientUnits="userSpaceOnUse">
   <stop id="stop2" stop-opacity=".23529" offset="0"/>
   <stop id="stop4" stop-opacity=".54902" offset="1"/>
  </radialGradient>
 </defs>
 <path id="path14" d="m4.088 17.59a1 1 0 0 0-0.088 0.41l0.246-0.25c-0.061-0.05-0.119-0.1-0.158-0.16z" fill="#fff" opacity=".05"/>
 <path id="base" d="m5 18c-0.554 0-1-0.3-1-0.688v-3.625c0-0.387 0.446-0.687 1-0.687h1c0.554 0 1 0.2997 1 0.6875v3.625c0 0.387-0.446 0.687-1 0.687h-1z" fill="url(#a)"/>
 <path id="path20" d="m0 2v1l3 2.5v3.5h1v-3.5l3-2.5v-1zm1 1h2v1.5zm3 0h2l-2 1.5zm13 1c-0.554 0-1 0.446-1 1v12c0 0.554 0.446 1 1 1h1c0.554 0 1-0.446 1-1v-12c0-0.554-0.446-1-1-1zm-4 3c-0.554 0-1 0.4231-1 0.9375v9.125c0 0.515 0.446 0.9375 1 0.9375h1c0.554 0 1-0.4225 1-0.9375v-9.125c0-0.5144-0.446-0.9375-1-0.9375zm-4 3c-0.554 0-1 0.3818-1 0.8438v6.3124c0 0.462 0.446 0.8438 1 0.8438h1c0.554 0 1-0.3818 1-0.8438v-6.3124c0-0.462-0.446-0.8438-1-0.8438z" opacity=".2"/>
 <path id="path27" d="m5 13c-0.554 0-1 0.3-1 0.69v1c0-0.39 0.446-0.69 1-0.69h1c0.554 0 1 0.3 1 0.69v-1c0-0.39-0.446-0.69-1-0.69h-1z" opacity=".3"/>
 <path id="path32" d="m4 17.31v1c0 0.39 0.446 0.69 1 0.69h1c0.554 0 1-0.3 1-0.69v-1c0 0.39-0.446 0.69-1 0.69h-1c-0.554 0-1-0.3-1-0.69z" fill="#fff" opacity=".2"/>
</svg>
