<?xml version="1.0" encoding="UTF-8"?>
<svg id="svg37" width="22" height="22" version="1.1" xmlns="http://www.w3.org/2000/svg" xmlns:cc="http://creativecommons.org/ns#" xmlns:dc="http://purl.org/dc/elements/1.1/" xmlns:rdf="http://www.w3.org/1999/02/22-rdf-syntax-ns#">
 <metadata id="metadata41">
  <rdf:RDF>
   <cc:Work rdf:about="">
    <dc:format>image/svg+xml</dc:format>
    <dc:type rdf:resource="http://purl.org/dc/dcmitype/StillImage"/>
   </cc:Work>
  </rdf:RDF>
 </metadata>
 <defs id="defs12">
  <radialGradient id="a" cx="12" cy="13" r="16" gradientTransform="matrix(1 0 0 .3 0 14.3)" gradientUnits="userSpaceOnUse">
   <stop id="stop2" stop-opacity=".23529" offset="0"/>
   <stop id="stop4" stop-opacity=".54902" offset="1"/>
  </radialGradient>
 </defs>
 <path id="path14" d="m16.5 12c-0.81 0-1.5 0.69-1.5 1.5v1.71c-0.55 0.23-1 0.67-1 1.29v4c0 0.81 0.69 1.5 1.5 1.5h5c0.81 0 1.5-0.69 1.5-1.5v-4c0-0.62-0.45-1.06-1-1.29v-1.71c0-0.81-0.69-1.5-1.5-1.5h-3zm0 1h3c0.28 0 0.5 0.22 0.5 0.5v2.5h0.5c0.28 0 0.5 0.22 0.5 0.5v4c0 0.28-0.22 0.5-0.5 0.5h-5c-0.28 0-0.5-0.22-0.5-0.5v-4c0-0.28 0.22-0.5 0.5-0.5h0.5v-2.5c0-0.28 0.22-0.5 0.5-0.5zm0.5 1v2h2v-2h-2z" fill="#fff" opacity=".05"/>
 <path id="base" d="m16.5 13c-0.277 0-0.5 0.223-0.5 0.5v2.5h-0.5c-0.277 0-0.5 0.223-0.5 0.5v4c0 0.277 0.223 0.5 0.5 0.5h5c0.277 0 0.5-0.223 0.5-0.5v-4c0-0.277-0.223-0.5-0.5-0.5h-0.5v-2.5c0-0.277-0.223-0.5-0.5-0.5h-3zm0.5 1h2v2h-2v-2z" fill="url(#a)"/>
 <path id="path20" d="m0 2v1l3 2.5v3.5h1v-3.5l3-2.5v-1zm1 1h2v1.5zm3 0h2l-2 1.5zm12 1c-0.554 0-1 0.446-1 1v8.5c0-0.814 0.686-1.5 1.5-1.5h1.5v-7c0-0.554-0.446-1-1-1zm-4 3c-0.554 0-1 0.4231-1 0.9375v9.125c0 0.516 0.446 0.9375 1 0.9375h1c0.554 0 1-0.4215 1-0.9375v-9.125c0-0.5139-0.446-0.93555-1-0.93555h-1zm-4 3c-0.554 0-1 0.3818-1 0.8438v6.3124c0 0.462 0.446 0.8438 1 0.8438h1c0.554 0 1-0.3818 1-0.8438v-6.3124c0-0.462-0.446-0.8438-1-0.8438zm-4 3c-0.554 0-1 0.2995-1 0.6875v3.625c0 0.388 0.446 0.6875 1 0.6875h1c0.554 0 1-0.2995 1-0.6875v-3.625c0-0.388-0.446-0.6875-1-0.6875z" opacity=".2"/>
 <path id="path22" d="m16.5 13c-0.28 0-0.5 0.22-0.5 0.5v2.5h-0.5c-0.28 0-0.5 0.22-0.5 0.5v4c0 0.28 0.22 0.5 0.5 0.5h5c0.28 0 0.5-0.22 0.5-0.5v-4c0-0.28-0.22-0.5-0.5-0.5h-0.5v-2.5c0-0.28-0.22-0.5-0.5-0.5h-3zm0 0.5h0.5a0.5 0.5 0 0 0-0.5 0.5v-0.5zm2.5 0h0.5v0.5a0.5 0.5 0 0 0-0.5-0.5zm-2 0.5h2v2h-2v-2zm-0.5 2a0.5 0.5 0 0 0 0.5 0.5h2a0.5 0.5 0 0 0 0.5-0.5 0.5 0.5 0 0 0 0.5 0.5h0.5v4h-5v-4h0.5a0.5 0.5 0 0 0 0.5-0.5z" opacity=".3"/>
 <path id="path27" d="m16.5 13c-0.28 0-0.5 0.22-0.5 0.5v1c0-0.28 0.22-0.5 0.5-0.5h0.5 2 0.5c0.28 0 0.5 0.22 0.5 0.5v-1c0-0.28-0.22-0.5-0.5-0.5h-3zm-1 3c-0.28 0-0.5 0.22-0.5 0.5v1c0-0.28 0.22-0.5 0.5-0.5h0.5v-1h-0.5zm1.5 0v1h2v-1h-2zm3 0v1h0.5c0.28 0 0.5 0.22 0.5 0.5v-1c0-0.28-0.22-0.5-0.5-0.5h-0.5z" opacity=".3"/>
 <path id="path32" d="m17 14v1h2v-1h-2zm-2 6.5v1c0 0.28 0.22 0.5 0.5 0.5h5c0.28 0 0.5-0.22 0.5-0.5v-1c0 0.28-0.22 0.5-0.5 0.5h-5c-0.28 0-0.5-0.22-0.5-0.5z" fill="#fff" opacity=".2"/>
</svg>
