<?xml version="1.0" encoding="UTF-8"?>
<svg width="22" height="22" version="1.1" xmlns="http://www.w3.org/2000/svg">
 <path d="m0 2v1l3 2.5v3.5h1v-3.5l3-2.5v-1zm1 1h2v1.5zm3 0h2l-2 1.5zm13 1c-0.554 0-1 0.446-1 1v12c0 0.554 0.446 1 1 1h1c0.554 0 1-0.446 1-1v-12c0-0.554-0.446-1-1-1zm-4 3c-0.554 0-1 0.4231-1 0.9375v9.125c0 0.515 0.446 0.9375 1 0.9375h1c0.554 0 1-0.4225 1-0.9375v-9.125c0-0.5144-0.446-0.9375-1-0.9375zm-4 3c-0.554 0-1 0.3818-1 0.8438v6.3124c0 0.462 0.446 0.8438 1 0.8438h1c0.554 0 1-0.3818 1-0.8438v-6.3124c0-0.462-0.446-0.8438-1-0.8438zm-4 3c-0.554 0-1 0.2995-1 0.6875v3.625c0 0.388 0.446 0.6875 1 0.6875h1c0.554 0 1-0.2995 1-0.6875v-3.625c0-0.388-0.446-0.6875-1-0.6875z" opacity=".2"/>
</svg>
