<?xml version="1.0" encoding="UTF-8"?>
<svg id="svg30" width="22" height="22" version="1.1" xmlns="http://www.w3.org/2000/svg" xmlns:cc="http://creativecommons.org/ns#" xmlns:dc="http://purl.org/dc/elements/1.1/" xmlns:rdf="http://www.w3.org/1999/02/22-rdf-syntax-ns#">
 <metadata id="metadata34">
  <rdf:RDF>
   <cc:Work rdf:about="">
    <dc:format>image/svg+xml</dc:format>
    <dc:type rdf:resource="http://purl.org/dc/dcmitype/StillImage"/>
   </cc:Work>
  </rdf:RDF>
 </metadata>
 <defs id="defs7">
  <radialGradient id="gr0" cx="12" cy="13" r="16" gradientTransform="matrix(1 0 0 .74747 0 4.7475)" gradientUnits="userSpaceOnUse">
   <stop id="stop2" stop-opacity=".23529" offset="0"/>
   <stop id="stop4" stop-opacity=".54902" offset="1"/>
  </radialGradient>
 </defs>
 <path id="path9" d="m11 2c-4.9587 0-9 4.0413-9 9 0 4.9587 4.0413 9 9 9 4.9587 0 9-4.0413 9-9 0-4.9587-4.0413-9-9-9zm0 1c4.4183 0 8 3.5817 8 8 0 4.4183-3.5817 8-8 8-4.4183 0-8-3.5817-8-8 0-4.4183 3.5817-8 8-8zm-2.1894 4.875c-0.27379-0.0101-0.54431 0.0134-0.8125 0.0625-1.0701 0.19578-2.0925 0.83347-2.625 1.875-0.92808 1.8152-0.09898 4.0196 1.7812 4.875 0.29526 0.1343 0.67699 0.2472 0.9375 0.2813 0.8581 0.112 1.7016-0.0547 2.4062-0.4688 0.2319-0.1363 0.437-0.2739 0.625-0.4375 0.094-0.0818 0.189-0.178 0.25-0.25 0.031-0.036 0.0728-0.0578 0.0938-0.0937 0.021-0.0362 0.0312-0.0893 0.0312-0.1563 0-0.068-0.0192-0.087-0.0312-0.125s-0.0113-0.073-0.0313-0.125c-0.0399-0.1035-0.0962-0.2134-0.1562-0.3437a0.15414 0.15414 0 0 0-0.0313 0l-0.25-0.4688a0.15414 0.15414 0 0 0 0-0.0312 0.15414 0.15414 0 0 0-0.0312-0.0313 0.15414 0.15414 0 0 0-0.0313-0.0293 0.15414 0.15414 0 0 0-0.0312 0 0.15414 0.15414 0 0 0-0.0313 0 0.15414 0.15414 0 0 0-0.0292 0 0.15414 0.15414 0 0 0-0.0313 0 0.15414 0.15414 0 0 0 0 0.0293 0.15414 0.15414 0 0 0-0.0313 0.0313 0.15414 0.15414 0 0 0-0.0312 0.0312l-0.0625 0.1562-0.0313 0.0313c-0.1937 0.278-0.66683 0.6597-0.99995 0.8125-0.32263 0.1475-0.44515 0.1875-1 0.1875-0.57497 0-0.63919-0.0454-1-0.2187-0.47672-0.229-0.91209-0.6195-1.125-1.0626-0.1483-0.3086-0.1875-0.4229-0.1875-1 0-0.6039 0.03712-0.618 0.21875-0.9687 0.20276-0.3915 0.6547-0.84328 1.0312-1.0312 0.39376-0.19655 1.071-0.30545 1.5-0.21875 0.90312 0.18256 1.3846 0.62967 1.8124 1.5937 0.1514 0.3411 0.2005 0.4303 0.3243 0.7051l0.3047 0.1192c0.5356 0.4001 0.0809 0.0328 0.0996 0.0859 0.0049 0.014-0.0976-0.1034 0.0273 0.0215 0.08 0.08-0.0167-0.0084 0.0137 0.0176 0.026 0.0303-0.0624-0.0663 0.0176 0.0136 0.0799 0.08-0.0167-0.0084 0.0136 0.0176a1 1.0001 0 0 0-0.0195-0.0195c0.0078-0.0076 0.1066 0.1213 0.0352 0.043 0.1276 0.2917 0.185 0.4168 0.2734 0.6289-0.0045-0.1923 0.0039-0.4442 0.0039 0.0703 0 0.0483 0.0015 0.0249 2e-3 0.0586-0.0039 0.0335-0.0029 0.0102-0.0079 0.0586l-0.2285 0.0449c0.3847 0.8053 0.6671 1.3329 0.8906 1.5723 0.5057 0.5412 0.9923 0.7187 1.875 0.7187 0.6112 9e-4 0.7762-0.0165 1.1563-0.1875 0.8608-0.3872 1.3225-1.0864 1.3125-2-0.0057-0.5235-0.1399-0.957-0.4688-1.2812s-0.8048-0.5391-1.5624-0.7813c-0.5379-0.172-0.873-0.3118-1.0313-0.4375-0.1585-0.1257-0.1875-0.2385-0.1875-0.46875 0-0.22 0.0697-0.35846 0.1875-0.46875 0.1178-0.1103 0.2851-0.1875 0.5313-0.1875 0.299 0 0.4713 0.05561 0.7187 0.28125 0.0692 0.06295 0.0793 0.11745 0.1563 0.15625 0.0772 0.0392 0.1902 0.05455 0.2812 0.03125 0.143-0.03651 0.3026-0.13015 0.4375-0.21875 0.0675-0.0443 0.1385-0.0803 0.1875-0.125 0.024-0.0223 0.0425-0.06685 0.0625-0.09375s0.0625-0.0509 0.0625-0.125c0-0.07455-0.0355-0.11365-0.0625-0.15625s-0.0557-0.0825-0.0937-0.125c-0.0773-0.08504-0.1713-0.1605-0.2813-0.25-0.2199-0.179-0.452-0.3694-0.6563-0.4375-0.8035-0.26789-1.7363-0.11221-2.2812 0.4375-0.3655 0.36874-0.5319 0.77655-0.5312 1.3125 5e-4 0.4998 0.1525 0.8957 0.5 1.2187 0.3475 0.3232 0.8532 0.6127 1.625 0.875 0.4962 0.1688 0.7913 0.2776 0.9374 0.4063 0.1465 0.1287 0.1876 0.2564 0.1876 0.5-1e-4 0.2669-0.1373 0.4627-0.3438 0.625s-0.4896 0.2813-0.8438 0.2813c-0.4482-1e-4 -0.6331-0.089-0.875-0.3126-0.1113-0.103-0.1916-0.1709-0.3437-0.4687s-0.3399-0.8015-0.7187-1.6563c-0.3628-0.8188-0.5996-1.2956-0.8126-1.6562-0.2128-0.36064-0.4394-0.62094-0.6874-0.84375-0.6537-0.58715-1.4599-0.87605-2.2813-0.90625h-0.00195zm2.8242 3.8164a1.0001 1.0001 0 0 0-0.0684-0.0547c0.4969 0.3712 0.1519 0.1009 0.0938 0.0781a1.0001 1.0001 0 0 0-0.0254-0.0234zm-0.3145-0.0137c0.153 0.3378 0.3072 0.6767 0.4238 0.9219a1.0001 1.0001 0 0 0-0.4238-0.9219z" fill="#fff" opacity=".05"/>
 <path id="base" d="m11 3c-4.4183 0-8 3.5817-8 8s3.5817 8 8 8 8-3.5817 8-8-3.5817-8-8-8zm-2.1875 4.875c0.82138 0.030192 1.6276 0.3191 2.2812 0.90625 0.24806 0.22281 0.47452 0.48311 0.6875 0.84375s0.44971 0.83744 0.8125 1.6562c0.37872 0.85475 0.56669 1.3584 0.71875 1.6562s0.23226 0.36568 0.34375 0.46875c0.24182 0.22356 0.42662 0.3125 0.875 0.3125 0.35406 0 0.6373-0.11892 0.84375-0.28125s0.34375-0.35808 0.34375-0.625c0-0.24364-0.041398-0.37135-0.1875-0.5s-0.4412-0.23747-0.9375-0.40625c-0.77175-0.26246-1.2776-0.55191-1.625-0.875s-0.49942-0.71898-0.5-1.2188c-6.6e-4 -0.53596 0.16574-0.94376 0.53125-1.3125 0.54489-0.54971 1.4777-0.70539 2.2812-0.4375 0.20416 0.068064 0.43634 0.2585 0.65625 0.4375 0.10995 0.089498 0.20412 0.16496 0.28125 0.25 0.038563 0.042521 0.066994 0.082367 0.09375 0.125s0.0625 0.081703 0.0625 0.15625c0 0.074075-0.042204 0.098108-0.0625 0.125s-0.037858 0.071385-0.0625 0.09375c-0.049284 0.044731-0.12004 0.080681-0.1875 0.125-0.13491 0.088637-0.29446 0.18224-0.4375 0.21875-0.091306 0.023313-0.20408 0.0075161-0.28125-0.03125s-0.087281-0.09333-0.15625-0.15625c-0.24741-0.22564-0.4197-0.28125-0.71875-0.28125-0.2462 0-0.41341 0.077214-0.53125 0.1875s-0.1875 0.24875-0.1875 0.46875c0 0.23025 0.029186 0.34302 0.1875 0.46875s0.49326 0.26549 1.0312 0.4375c0.75763 0.24223 1.2336 0.45702 1.5625 0.78125s0.46309 0.75778 0.46875 1.2812c0.009871 0.91356-0.45174 1.6128-1.3125 2-0.38014 0.17102-0.54511 0.18842-1.1562 0.1875-0.88281-0.00129-1.3695-0.17753-1.875-0.71875-0.35905-0.3844-0.68813-1.045-1.75-3.4375-0.42791-0.96413-0.90938-1.4112-1.8125-1.5938-0.42903-0.086728-1.1062 0.02218-1.5 0.21875-0.37655 0.18797-0.82849 0.63972-1.0312 1.0312-0.18163 0.35074-0.21875 0.36466-0.21875 0.96875 0 0.5771 0.039191 0.69139 0.1875 1 0.21291 0.44303 0.64828 0.83348 1.125 1.0625 0.36081 0.17334 0.42503 0.21875 1 0.21875 0.55485 0 0.67737-0.039477 1-0.1875 0.33312-0.15284 0.80616-0.53446 1-0.8125l0.03125-0.03125 0.0625-0.15625a0.15414 0.15414 0 0 1 0.03125-0.03125 0.15414 0.15414 0 0 1 0.03125-0.03125 0.15414 0.15414 0 0 1 0-0.03125 0.15414 0.15414 0 0 1 0.03125 0 0.15414 0.15414 0 0 1 0.03125 0 0.15414 0.15414 0 0 1 0.03125 0 0.15414 0.15414 0 0 1 0.03125 0 0.15414 0.15414 0 0 1 0.03125 0.03125 0.15414 0.15414 0 0 1 0.03125 0.03125 0.15414 0.15414 0 0 1 0 0.03125l0.25 0.46875a0.15414 0.15414 0 0 1 0.03125 0c0.060447 0.13035 0.11632 0.24027 0.15625 0.34375 0.019966 0.05174 0.019093 0.087139 0.03125 0.125s0.03125 0.057329 0.03125 0.125c0 0.066582-0.009716 0.11997-0.03125 0.15625s-0.063033 0.05801-0.09375 0.09375c-0.061434 0.071481-0.15602 0.1682-0.25 0.25-0.18796 0.1636-0.39306 0.30121-0.625 0.4375-0.70464 0.41405-1.5481 0.58079-2.4062 0.46875-0.26051-0.033998-0.64224-0.14693-0.9375-0.28125-1.8802-0.85536-2.7093-3.0598-1.7812-4.875 0.53252-1.0415 1.5549-1.6792 2.625-1.875 0.26819-0.049068 0.53871-0.072564 0.8125-0.0625z" fill="url(#gr0)"/>
 <path id="path15" d="m11 3c-4.4183 0-8 3.5817-8 8 0 4.4183 3.5817 8 8 8 4.4183 0 8-3.5817 8-8 0-4.4183-3.5817-8-8-8zm0 0.5c4.1481 0 7.5 3.3519 7.5 7.5 0 4.1481-3.3519 7.5-7.5 7.5-4.1481 0-7.5-3.3519-7.5-7.5 0-4.1481 3.3519-7.5 7.5-7.5zm-2.1699 3.875c-0.31442-0.01156-0.62098 0.01562-0.91992 0.07031-1.2037 0.22022-2.3675 0.93984-2.9805 2.1387-1.0577 2.0687-0.10501 4.5921 2.0195 5.5586 0.34696 0.1578 0.74083 0.278 1.0801 0.3222 0.96296 0.1258 1.9203-0.0605 2.7246-0.5332 0.2477-0.1455 0.4801-0.3014 0.6992-0.4921 0.1159-0.1009 0.2193-0.206 0.3008-0.3008-0.0491 0.0571 0.0238 0.0393 0.1445-0.1641 0.0037-0.0062 5e-4 -0.0095 0.0039-0.0156 0.1263 0.2024 0.2622 0.4661 0.3887 0.6015 0.5779 0.6187 1.2913 0.8756 2.2402 0.877 0.6208 9e-4 0.9435-0.0444 1.3614-0.2324 1.0051-0.4522 1.6191-1.3762 1.6074-2.461-0.0065-0.6059-0.1781-1.1979-0.6172-1.6308-0.422-0.4161-0.9803-0.6525-1.7617-0.9024-0.5181-0.1656-0.8359-0.32406-0.8691-0.34957 0.0012 0.00125-2e-3 -0.00451-2e-3 -0.08008 0-0.11445-0.0079-0.06873 0.0293-0.10352 0.0305-0.02859 0.0477-0.05273 0.1895-0.05273 0.237 0 0.1886-0.02493 0.3808 0.15039-0.0097-0.00884-0.0177-0.01986 0.0195 0.02734 0.0373 0.04721 0.1352 0.14932 0.25 0.20707 0.2031 0.102 0.3896 0.1294 0.6289 0.0683 0.2552-0.0651 0.4388-0.18585 0.5899-0.28513 0.037-0.02435 0.1211-0.05668 0.248-0.17188 0.1815-0.1647 0.1809-0.23813 0.125-0.16406-0.0942 0.1248 0.1641-0.16179 0.1641-0.42578 0-0.23438-0.1454-0.43257-0.1387-0.42187-0.0369-0.05891-0.0856-0.12824-0.1465-0.19532-0.1143-0.12604-0.2276-0.21461-0.3359-0.30273-0.2189-0.17816-0.4527-0.40284-0.8144-0.52344-0.9689-0.323-2.0824-0.15828-2.795 0.56055-0.2954 0.298-0.4606 0.66882-0.5625 1.0644-0.2064-0.31145-0.4207-0.59298-0.6543-0.80273-0.745-0.66924-1.6712-1.0011-2.5976-1.0352zm-0.01953 0.5h0.00195c0.82138 0.0302 1.6276 0.3191 2.2813 0.90625 0.248 0.22281 0.4746 0.48311 0.6874 0.84375 0.213 0.36064 0.4498 0.8374 0.8126 1.6562 0.3788 0.8548 0.5666 1.3585 0.7187 1.6563s0.2324 0.3657 0.3437 0.4687c0.2419 0.2236 0.4268 0.3125 0.875 0.3126 0.3542 0 0.6373-0.119 0.8438-0.2813s0.3437-0.3581 0.3438-0.625c0-0.2436-0.0411-0.3713-0.1876-0.5-0.1461-0.1287-0.4412-0.2375-0.9374-0.4063-0.7718-0.2623-1.2775-0.5518-1.625-0.875-0.3475-0.323-0.4995-0.7189-0.5-1.2187-7e-4 -0.53595 0.1657-0.94376 0.5312-1.3125 0.5449-0.54971 1.4777-0.70539 2.2812-0.4375 0.2043 0.0681 0.4364 0.2585 0.6563 0.4375 0.11 0.0895 0.204 0.16496 0.2813 0.25 0.038 0.0425 0.0667 0.0824 0.0937 0.125s0.0625 0.0817 0.0625 0.15625c0 0.0741-0.0425 0.0981-0.0625 0.125s-0.0385 0.07145-0.0625 0.09375c-0.049 0.0447-0.12 0.0807-0.1875 0.125-0.1349 0.0886-0.2945 0.18224-0.4375 0.21875-0.091 0.0233-0.204 0.00795-0.2812-0.03125-0.077-0.0388-0.0871-0.0933-0.1563-0.15625-0.2474-0.22564-0.4197-0.28125-0.7187-0.28125-0.2462 0-0.4135 0.0772-0.5313 0.1875-0.1178 0.11029-0.1875 0.24875-0.1875 0.46875 0 0.23025 0.029 0.34305 0.1875 0.46875 0.1583 0.1257 0.4934 0.2655 1.0313 0.4375 0.7576 0.2422 1.2335 0.4571 1.5624 0.7813s0.4631 0.7577 0.4688 1.2812c0.01 0.9136-0.4517 1.6128-1.3125 2-0.3801 0.171-0.5451 0.1884-1.1563 0.1875-0.8827 0-1.3693-0.1775-1.875-0.7187-0.3589-0.3843-0.688-1.0451-1.75-3.4376-0.4278-0.96403-0.90933-1.4111-1.8124-1.5937-0.42903-0.0867-1.1062 0.0222-1.5 0.21875-0.37655 0.18797-0.82849 0.63975-1.0312 1.0312-0.18163 0.3507-0.21875 0.3648-0.21875 0.9687 0 0.5771 0.0392 0.6914 0.1875 1 0.21291 0.4431 0.64828 0.8336 1.125 1.0626 0.36081 0.1733 0.42503 0.2187 1 0.2187 0.55485 0 0.67737-0.04 1-0.1875 0.33312-0.1528 0.80625-0.5345 0.99995-0.8125l0.0313-0.0313 0.0625-0.1562a0.15414 0.15414 0 0 1 0.0312-0.0312 0.15414 0.15414 0 0 1 0.0313-0.0313 0.15414 0.15414 0 0 1 0-0.0293 0.15414 0.15414 0 0 1 0.0313 0 0.15414 0.15414 0 0 1 0.0292 0 0.15414 0.15414 0 0 1 0.0313 0 0.15414 0.15414 0 0 1 0.0312 0 0.15414 0.15414 0 0 1 0.0313 0.0293 0.15414 0.15414 0 0 1 0.0312 0.0313 0.15414 0.15414 0 0 1 0 0.0312l0.25 0.4688a0.15414 0.15414 0 0 1 0.0313 0c0.06 0.1303 0.1163 0.2402 0.1562 0.3437 0.02 0.052 0.0193 0.087 0.0313 0.125s0.0312 0.057 0.0312 0.125c0 0.067-0.0102 0.1201-0.0312 0.1563-0.021 0.0359-0.0628 0.0577-0.0938 0.0937-0.061 0.072-0.156 0.1682-0.25 0.25-0.188 0.1636-0.3931 0.3012-0.625 0.4375-0.70459 0.4141-1.5481 0.5808-2.4062 0.4688-0.26051-0.0341-0.64224-0.147-0.9375-0.2813-1.8802-0.8554-2.7093-3.0598-1.7812-4.875 0.53252-1.0415 1.5549-1.6792 2.625-1.875 0.26819-0.0491 0.53871-0.0726 0.8125-0.0625zm0.18359 1.8027c0.78156 0.15799 1.0604 0.41727 1.4551 1.3067 0.2171 0.4891 0.3057 0.6632 0.4688 1.0234a0.50005 0.50005 0 0 0-0.4141 0.4297l-0.2187-0.123-0.0235 0.0605 0.0137-0.0117a0.50005 0.50005 0 0 0-0.0293 0.039c-0.0983 0.1411-0.58937 0.5465-0.79883 0.6426-0.30965 0.1421-0.25989 0.1426-0.79102 0.1426-0.54864 0-0.41255 0.0081-0.7832-0.1699-0.38389-0.1844-0.7433-0.5216-0.89063-0.8281-0.14233-0.2962-0.13867-0.2288-0.13867-0.7833 0-0.5835-0.02983-0.3676 0.16211-0.7382 0.13545-0.2616 0.57738-0.69809 0.81055-0.81448 0.2548-0.12721 0.92855-0.22616 1.1777-0.17579zm4.3672 2.1172c0.3315 0.1995 0.5881 0.4194 1.0723 0.584 0.4915 0.1671 0.7671 0.3082 0.7676 0.3086 0.0581 0.0512 0.0176-0.062 0.0176 0.125-1e-4 0.0955-0.0148 0.1242-0.1524 0.2324-0.125 0.0983-0.293 0.1739-0.5352 0.1739-0.3822-1e-4 -0.338 0.0025-0.5351-0.1797-0.1189-0.11-0.1046-0.0664-0.2383-0.3282-0.0696-0.1363-0.2603-0.5924-0.3965-0.916z" opacity=".3"/>
 <path id="path20" d="m8.8106 7.875c-0.27379-0.0101-0.54431 0.0134-0.8125 0.0625-1.0701 0.19578-2.0925 0.83347-2.625 1.875-0.35068 0.6859-0.44893 1.4276-0.33594 2.1309 0.05019-0.3827 0.14916-0.7656 0.33594-1.1309 0.53252-1.0415 1.5549-1.6792 2.625-1.875 0.26819-0.0491 0.53871-0.0726 0.8125-0.0625h0.00195c0.82138 0.0302 1.6276 0.3191 2.2813 0.90625 0.248 0.22285 0.4746 0.48315 0.6874 0.84375 0.213 0.3606 0.4498 0.8374 0.8126 1.6562 0.3788 0.8548 0.5666 1.3585 0.7187 1.6563s0.2324 0.3657 0.3437 0.4687c0.2419 0.2236 0.4268 0.3125 0.875 0.3126 0.3542 0 0.6373-0.119 0.8438-0.2813s0.3437-0.3581 0.3438-0.625c0-0.2436-0.0411-0.3713-0.1876-0.5-0.0059-0.0052-0.0208-0.0104-0.0273-0.0156-0.0428 0.0468-0.0757 0.0988-0.1289 0.1406-0.2065 0.1623-0.4896 0.2813-0.8438 0.2813-0.4482-1e-4 -0.6331-0.089-0.875-0.3126-0.1113-0.103-0.1916-0.1709-0.3437-0.4687-0.0934-0.183-0.285-0.6455-0.4414-1.0176-0.2202-0.2445-0.3443-0.5297-0.3828-0.8652-0.2974-0.6598-0.5182-1.11-0.7071-1.4297-0.2128-0.36064-0.4394-0.62094-0.6874-0.84375-0.6537-0.58715-1.4599-0.87605-2.2813-0.90625h-0.00195zm5.8516 0.06641c-0.6269-0.04347-1.2534 0.14631-1.6621 0.55859-0.3655 0.36874-0.5319 0.77655-0.5312 1.3125 2e-4 0.17906 0.0272 0.3403 0.0683 0.4941 0.0774-0.3009 0.223-0.56453 0.4629-0.8066 0.5449-0.54971 1.4777-0.70539 2.2812-0.4375 0.1895 0.06316 0.4021 0.23348 0.6075 0.40039 0.0589-0.03295 0.1201-0.05261 0.1738-0.08789 0.0675-0.0443 0.1385-0.0803 0.1875-0.125 0.024-0.0223 0.0425-0.06685 0.0625-0.09375s0.0625-0.0509 0.0625-0.125c0-0.07455-0.0355-0.11365-0.0625-0.15625s-0.0557-0.0825-0.0937-0.125c-0.0773-0.08504-0.1713-0.1605-0.2813-0.25-0.2199-0.179-0.452-0.3694-0.6563-0.4375-0.2008-0.06697-0.4101-0.10661-0.6191-0.12109zm-0.6699 2.3379c-0.0163 0.0126-0.04 0.0194-0.0547 0.0332-0.1178 0.1103-0.1875 0.2488-0.1875 0.4687 0 0.2303 0.029 0.3431 0.1875 0.4688 0.1583 0.1257 0.4934 0.2655 1.0313 0.4375 0.7576 0.2422 1.2335 0.4571 1.5624 0.7813 0.216 0.2129 0.3414 0.4776 0.4083 0.7792 0.0329-0.1602 0.0624-0.321 0.0605-0.498-0.0057-0.5235-0.1399-0.957-0.4688-1.2812s-0.8048-0.5391-1.5624-0.7813c-0.4987-0.1595-0.8058-0.2897-0.9766-0.4082zm-10.967 1.2207c-0.01029 0.1661-0.02539 0.3313-0.02539 0.5 0 4.4183 3.5817 8 8 8 4.4183 0 8-3.5817 8-8 0-0.1687-0.0151-0.3339-0.0254-0.5-0.2592 4.1843-3.725 7.5-7.9746 7.5-4.2496 0-7.7154-3.3157-7.9746-7.5zm3.3535 0.4395c-0.01917 0.1125-0.03516 0.2229-0.03516 0.4667 0 0.5771 0.0392 0.6914 0.1875 1 0.21291 0.4431 0.64828 0.8336 1.125 1.0626 0.36081 0.1733 0.42503 0.2187 1 0.2187 0.55485 0 0.67737-0.04 1-0.1875 0.33312-0.1528 0.80625-0.5345 0.99995-0.8125l0.0313-0.0313 0.0625-0.1562a0.15414 0.15414 0 0 1 0.0312-0.0312 0.15414 0.15414 0 0 1 0.0313-0.0293 0.15414 0.15414 0 0 1 0-0.0313 0.15414 0.15414 0 0 1 0.0313 0 0.15414 0.15414 0 0 1 0.0292 0 0.15414 0.15414 0 0 1 0.0313 0 0.15414 0.15414 0 0 1 0.0312 0 0.15414 0.15414 0 0 1 0.0313 0.0313 0.15414 0.15414 0 0 1 0.0312 0.0293 0.15414 0.15414 0 0 1 0 0.0312l0.2383 0.4492c0.048-0.0475 0.1034-0.0973 0.1367-0.1367 0.031-0.036 0.0728-0.0578 0.0938-0.0937 0.021-0.0362 0.0312-0.0893 0.0312-0.1563 0-0.068-0.0192-0.087-0.0312-0.125s-0.0113-0.073-0.0313-0.125c-0.0399-0.1035-0.0962-0.2134-0.1562-0.3437a0.15414 0.15414 0 0 0-0.0313 0l-0.25-0.4688a0.15414 0.15414 0 0 0 0-0.0312 0.15414 0.15414 0 0 0-0.0312-0.0313 0.15414 0.15414 0 0 0-0.0313-0.0293 0.15414 0.15414 0 0 0-0.0312 0 0.15414 0.15414 0 0 0-0.0313 0 0.15414 0.15414 0 0 0-0.0292 0 0.15414 0.15414 0 0 0-0.0313 0 0.15414 0.15414 0 0 0 0 0.0293 0.15414 0.15414 0 0 0-0.0313 0.0313 0.15414 0.15414 0 0 0-0.0312 0.0312l-0.0625 0.1562-0.0313 0.0313c-0.1937 0.278-0.66683 0.6597-0.99995 0.8125-0.32263 0.1475-0.44515 0.1875-1 0.1875-0.57497 0-0.63919-0.0454-1-0.2187-0.47672-0.229-0.91209-0.6195-1.125-1.0626-0.08257-0.1718-0.12535-0.302-0.15234-0.4667z" fill="#fff" opacity=".2"/>
 <path id="path25" d="m11 3c-4.4183 0-8 3.5817-8 8 0 0.1687 0.0151 0.3339 0.02539 0.5 0.25926-4.1842 3.725-7.5 7.9746-7.5 4.2496 0 7.7154 3.3158 7.9746 7.5 0.0103-0.1661 0.0254-0.3313 0.0254-0.5 0-4.4183-3.5817-8-8-8zm3.4688 6.125c-0.2462 0-0.4135 0.0772-0.5313 0.1875-0.1178 0.11029-0.1875 0.24875-0.1875 0.46875 0 0.23025 0.029 0.34305 0.1875 0.46875 0.0115 0.0092 0.0413 0.02 0.0547 0.0293 0.1143-0.0889 0.2611-0.1543 0.4766-0.1543 0.299 0 0.4713 0.0556 0.7187 0.2812 0.0692 0.0633 0.0793 0.1173 0.1563 0.1563 0.0772 0.041 0.1902 0.0542 0.2812 0.0313 0.143-0.0366 0.3026-0.1308 0.4375-0.2188 0.0675-0.044 0.1385-0.08 0.1875-0.125 0.024-0.022 0.0425-0.0668 0.0625-0.0938s0.0625-0.051 0.0625-0.125c0-0.07445-0.0355-0.1136-0.0625-0.1562s-0.0557-0.0825-0.0937-0.125c-0.0773-0.08504-0.1713-0.1605-0.2813-0.25-0.0159-0.01297-0.0328-0.02407-0.0488-0.03711-0.0891 0.0498-0.1776 0.10889-0.2637 0.13086-0.091 0.0233-0.204 0.00795-0.2812-0.03125-0.077-0.0388-0.0871-0.0933-0.1563-0.15625-0.2474-0.22564-0.4197-0.28125-0.7187-0.28125zm-5.7344 0.0332c-0.38992 0.00327-0.84531 0.10064-1.1406 0.24805-0.37655 0.18797-0.82849 0.63975-1.0312 1.0312-0.18163 0.3507-0.21875 0.3648-0.21875 0.9687 0 0.2558 0.01367 0.4021 0.03516 0.5333 0.02831-0.1662 0.07529-0.2929 0.18359-0.502 0.20276-0.3915 0.6547-0.8432 1.0312-1.0313 0.39376-0.1967 1.071-0.3057 1.5-0.2187 0.90312 0.1826 1.3846 0.6296 1.8124 1.5937 1.062 2.3925 1.3911 3.0533 1.75 3.4376 0.5057 0.5413 0.9923 0.7187 1.875 0.7187 0.6112 9e-4 0.7762-0.0165 1.1563-0.1875 0.8608-0.3872 1.3225-1.0864 1.3125-2-2e-3 -0.1798-0.0256-0.3442-0.0605-0.502-0.1372 0.6667-0.558 1.1898-1.252 1.502-0.3801 0.171-0.5451 0.1884-1.1563 0.1875-0.8827 0-1.3693-0.1775-1.875-0.7187-0.3589-0.3843-0.688-1.0451-1.75-3.4376-0.4278-0.96403-0.90933-1.4111-1.8124-1.5937-0.10726-0.02168-0.2294-0.03039-0.35937-0.0293zm3.8027 1.1484c-0.0405 0.1575-0.0686 0.3218-0.0683 0.5059 1e-4 0.0851 0.0104 0.1629 0.0195 0.2422 0.038 0.0844 0.0643 0.1337 0.1055 0.2265 0.146 0.3297 0.1791 0.4052 0.2773 0.6387 0.0332 0.0369 0.0599 0.0762 0.0977 0.1113 0.3475 0.3232 0.8532 0.6127 1.625 0.875 0.476 0.162 0.7582 0.2686 0.9101 0.3907 0.1235-0.1352 0.2148-0.2862 0.2149-0.4844 0-0.2436-0.0411-0.3713-0.1876-0.5-0.1461-0.1287-0.4412-0.2375-0.9374-0.4063-0.7718-0.2623-1.2775-0.5518-1.625-0.875-0.223-0.2072-0.3581-0.449-0.4317-0.7246zm-7.5 1.6368c-0.19922 1.5187 0.61535 3.0608 2.1172 3.7441 0.29526 0.1343 0.67699 0.2472 0.9375 0.2813 0.8581 0.112 1.7016-0.0547 2.4062-0.4688 0.2319-0.1363 0.437-0.2739 0.625-0.4375 0.094-0.0818 0.189-0.178 0.25-0.25 0.031-0.036 0.0728-0.0578 0.0938-0.0937 0.021-0.0362 0.0312-0.0893 0.0312-0.1563 0-0.068-0.0192-0.087-0.0312-0.125s-0.0113-0.073-0.0313-0.125c-0.0399-0.1035-0.0962-0.2134-0.1562-0.3437a0.15414 0.15414 0 0 0-0.0313 0l-0.0117-0.0196c-0.0397 0.0394-0.0707 0.0762-0.1133 0.1133-0.188 0.1636-0.3931 0.3012-0.625 0.4375-0.70459 0.4141-1.5481 0.5808-2.4062 0.4688-0.26051-0.0341-0.64224-0.147-0.9375-0.2813-1.1698-0.5322-1.9312-1.5862-2.1172-2.7441z" opacity=".3"/>
</svg>
