<?xml version="1.0" encoding="UTF-8"?>
<svg id="svg37" width="22" height="22" version="1.1" xmlns="http://www.w3.org/2000/svg" xmlns:cc="http://creativecommons.org/ns#" xmlns:dc="http://purl.org/dc/elements/1.1/" xmlns:rdf="http://www.w3.org/1999/02/22-rdf-syntax-ns#">
 <metadata id="metadata41">
  <rdf:RDF>
   <cc:Work rdf:about="">
    <dc:format>image/svg+xml</dc:format>
    <dc:type rdf:resource="http://purl.org/dc/dcmitype/StillImage"/>
   </cc:Work>
  </rdf:RDF>
 </metadata>
 <defs id="defs12">
  <radialGradient id="a" cx="12" cy="13" r="16" gradientTransform="matrix(1 0 0 .3 0 14.3)" gradientUnits="userSpaceOnUse">
   <stop id="stop2" stop-opacity=".23529" offset="0"/>
   <stop id="stop4" stop-opacity=".54902" offset="1"/>
  </radialGradient>
 </defs>
 <path id="path14" d="m16.5 12c-0.81 0-1.5 0.69-1.5 1.5v1.71c-0.55 0.23-1 0.67-1 1.29v1.94c-0.31-0.21-0.62-0.44-1-0.44-0.62 0-1.12 0.37-1.5 0.85-0.38-0.48-0.88-0.85-1.5-0.85-0.616 0-1.124 0.37-1.5 0.85-0.376-0.48-0.884-0.85-1.5-0.85-1.047 0-2 0.95-2 2s0.953 2 2 2c0.616 0 1.124-0.37 1.5-0.85 0.376 0.48 0.884 0.85 1.5 0.85 0.62 0 1.12-0.37 1.5-0.85 0.38 0.48 0.88 0.85 1.5 0.85 0.52 0 1.01-0.24 1.38-0.6 0.28 0.35 0.65 0.6 1.12 0.6h5c0.81 0 1.5-0.69 1.5-1.5v-4c0-0.62-0.45-1.06-1-1.29v-1.71c0-0.81-0.69-1.5-1.5-1.5h-3zm0 1h3c0.28 0 0.5 0.22 0.5 0.5v2.5h0.5c0.28 0 0.5 0.22 0.5 0.5v4c0 0.28-0.22 0.5-0.5 0.5h-5c-0.28 0-0.5-0.22-0.5-0.5v-4c0-0.28 0.22-0.5 0.5-0.5h0.5v-2.5c0-0.28 0.22-0.5 0.5-0.5zm0.5 1v2h2v-2h-2zm-10 5a1 1 0 0 1 1 1 1 1 0 0 1-1 1 1 1 0 0 1-1-1 1 1 0 0 1 1-1zm3 0a1 1 0 0 1 1 1 1 1 0 0 1-1 1 1 1 0 0 1-1-1 1 1 0 0 1 1-1zm3 0a1 1 0 0 1 1 1 1 1 0 0 1-1 1 1 1 0 0 1-1-1 1 1 0 0 1 1-1z" fill="#fff" opacity=".05"/>
 <path id="base" d="m16.5 13c-0.277 0-0.5 0.223-0.5 0.5v2.5h-0.5c-0.277 0-0.5 0.223-0.5 0.5v4c0 0.277 0.223 0.5 0.5 0.5h5c0.277 0 0.5-0.223 0.5-0.5v-4c0-0.277-0.223-0.5-0.5-0.5h-0.5v-2.5c0-0.277-0.223-0.5-0.5-0.5h-3zm0.5 1h2v2h-2v-2zm-10 5a1 1 0 0 0-1 1 1 1 0 0 0 1 1 1 1 0 0 0 1-1 1 1 0 0 0-1-1zm3 0a1 1 0 0 0-1 1 1 1 0 0 0 1 1 1 1 0 0 0 1-1 1 1 0 0 0-1-1zm3 0a1 1 0 0 0-1 1 1 1 0 0 0 1 1 1 1 0 0 0 1-1 1 1 0 0 0-1-1z" fill="url(#a)"/>
 <path id="path20" d="m19.943 1.0137c-0.264 0-0.528 0.0974-0.726 0.2949l-3.783 3.7676h-2.024c-0.377 0.0085-0.749 0.1708-1.012 0.4414l-2.021 2.0156c-0.5192 0.5338-0.5192 1.4838 0 2.0176l2.021 2.0152c0.299 0.311 0.741 0.477 1.17 0.442 0.324-0.046 0.63-0.205 0.854-0.442l2.023-2.0152c0.272-0.2616 0.433-0.6336 0.442-1.0098v-2.0469l3.783-3.7363c0.396-0.395 0.396-1.0542 0-1.4492-0.198-0.1975-0.462-0.2949-0.727-0.2949zm-11.556 9.0043c-0.3233 0.045-0.6297 0.204-0.8535 0.441l-2.0234 2.016c-0.2713 0.261-0.4329 0.633-0.4414 1.009v2.016c-2e-4 0.01-2e-4 0.021 0 0.031l-3.7832 3.737c-0.39627 0.395-0.39627 1.054 0 1.449 0.3961 0.395 1.0569 0.395 1.4531 0l3.7832-3.768h2.0215c0.3773-8e-3 0.7493-0.171 1.0117-0.441l2.0233-2.016c0.519-0.534 0.519-1.484 0-2.017l-2.0233-2.016c-0.2981-0.31-0.7387-0.4779-1.168-0.441z" opacity=".2"/>
 <path id="path22" d="m16.5 13c-0.28 0-0.5 0.22-0.5 0.5v2.5h-0.5c-0.28 0-0.5 0.22-0.5 0.5v4c0 0.28 0.22 0.5 0.5 0.5h5c0.28 0 0.5-0.22 0.5-0.5v-4c0-0.28-0.22-0.5-0.5-0.5h-0.5v-2.5c0-0.28-0.22-0.5-0.5-0.5h-3zm0 0.5h0.5a0.5 0.5 0 0 0-0.5 0.5v-0.5zm2.5 0h0.5v0.5a0.5 0.5 0 0 0-0.5-0.5zm-2 0.5h2v2h-2v-2zm-0.5 2a0.5 0.5 0 0 0 0.5 0.5h2a0.5 0.5 0 0 0 0.5-0.5 0.5 0.5 0 0 0 0.5 0.5h0.5v4h-5v-4h0.5a0.5 0.5 0 0 0 0.5-0.5zm-9.5 3a1 1 0 0 0-1 1 1 1 0 0 0 1 1 1 1 0 0 0 1-1 1 1 0 0 0-1-1zm3 0a1 1 0 0 0-1 1 1 1 0 0 0 1 1 1 1 0 0 0 1-1 1 1 0 0 0-1-1zm3 0a1 1 0 0 0-1 1 1 1 0 0 0 1 1 1 1 0 0 0 1-1 1 1 0 0 0-1-1zm-6 0.5c0.262 0 0.5 0.24 0.5 0.5s-0.238 0.5-0.5 0.5-0.5-0.24-0.5-0.5 0.238-0.5 0.5-0.5zm3 0c0.26 0 0.5 0.24 0.5 0.5s-0.24 0.5-0.5 0.5c-0.262 0-0.5-0.24-0.5-0.5s0.238-0.5 0.5-0.5zm3 0c0.26 0 0.5 0.24 0.5 0.5s-0.24 0.5-0.5 0.5-0.5-0.24-0.5-0.5 0.24-0.5 0.5-0.5z" opacity=".3"/>
 <path id="path27" d="m16.5 13c-0.28 0-0.5 0.22-0.5 0.5v1c0-0.28 0.22-0.5 0.5-0.5h0.5 2 0.5c0.28 0 0.5 0.22 0.5 0.5v-1c0-0.28-0.22-0.5-0.5-0.5h-3zm-1 3c-0.28 0-0.5 0.22-0.5 0.5v1c0-0.28 0.22-0.5 0.5-0.5h0.5v-1h-0.5zm1.5 0v1h2v-1h-2zm3 0v1h0.5c0.28 0 0.5 0.22 0.5 0.5v-1c0-0.28-0.22-0.5-0.5-0.5h-0.5zm-13 3a1 1 0 0 0-1 1 1 1 0 0 0 0.135 0.5 1 1 0 0 1 0.865-0.5 1 1 0 0 1 0.865 0.5 1 1 0 0 0 0.135-0.5 1 1 0 0 0-1-1zm3 0a1 1 0 0 0-1 1 1 1 0 0 0 0.135 0.5 1 1 0 0 1 0.865-0.5 1 1 0 0 1 0.87 0.5 1 1 0 0 0 0.13-0.5 1 1 0 0 0-1-1zm3 0a1 1 0 0 0-1 1 1 1 0 0 0 0.13 0.5 1 1 0 0 1 0.87-0.5 1 1 0 0 1 0.87 0.5 1 1 0 0 0 0.13-0.5 1 1 0 0 0-1-1z" opacity=".3"/>
 <path id="path32" d="m17 14v1h2v-1h-2zm-10.865 6.5a1 1 0 0 0-0.135 0.5 1 1 0 0 0 1 1 1 1 0 0 0 1-1 1 1 0 0 0-0.135-0.5 1 1 0 0 1-0.865 0.5 1 1 0 0 1-0.865-0.5zm3 0a1 1 0 0 0-0.135 0.5 1 1 0 0 0 1 1 1 1 0 0 0 1-1 1 1 0 0 0-0.13-0.5 1 1 0 0 1-0.87 0.5 1 1 0 0 1-0.865-0.5zm2.995 0a1 1 0 0 0-0.13 0.5 1 1 0 0 0 1 1 1 1 0 0 0 1-1 1 1 0 0 0-0.13-0.5 1 1 0 0 1-0.87 0.5 1 1 0 0 1-0.87-0.5zm2.87 0v1c0 0.28 0.22 0.5 0.5 0.5h5c0.28 0 0.5-0.22 0.5-0.5v-1c0 0.28-0.22 0.5-0.5 0.5h-5c-0.28 0-0.5-0.22-0.5-0.5z" fill="#fff" opacity=".2"/>
</svg>
