<?xml version="1.0" encoding="UTF-8"?>
<svg id="svg38" width="22" height="22" version="1.1" xmlns="http://www.w3.org/2000/svg" xmlns:cc="http://creativecommons.org/ns#" xmlns:dc="http://purl.org/dc/elements/1.1/" xmlns:rdf="http://www.w3.org/1999/02/22-rdf-syntax-ns#">
 <metadata id="metadata42">
  <rdf:RDF>
   <cc:Work rdf:about="">
    <dc:format>image/svg+xml</dc:format>
    <dc:type rdf:resource="http://purl.org/dc/dcmitype/StillImage"/>
   </cc:Work>
  </rdf:RDF>
 </metadata>
 <defs id="defs7">
  <radialGradient id="gr0" cx="12" cy="13" r="16" gradientTransform="matrix(1 0 0 .011011 0 11.011)" gradientUnits="userSpaceOnUse">
   <stop id="stop2" stop-opacity=".23529" offset="0"/>
   <stop id="stop4" stop-opacity=".54902" offset="1"/>
  </radialGradient>
 </defs>
 <path id="path9" d="m9 9c-1.014 0-2 0.738-2 1.84v1.45c-0.316-0.15-0.64-0.29-1-0.29h-1c-0.458 0-0.892 0.11-1.271 0.37-0.38 0.26-0.729 0.74-0.729 1.32v3.62c0 0.58 0.349 1.06 0.729 1.32 0.379 0.26 0.813 0.37 1.271 0.37h1c0.458 0 0.892-0.11 1.271-0.37 0.117-0.1 0.122-0.29 0.223-0.41 0.381 0.46 0.897 0.78 1.506 0.78h1c1.01 0 2-0.74 2-1.84v-6.32c0-1.102-0.99-1.84-2-1.84h-1zm0 1h1c0.55 0 1 0.38 1 0.84v6.32c0 0.46-0.45 0.84-1 0.84h-1c-0.554 0-1-0.38-1-0.84v-6.32c0-0.46 0.446-0.84 1-0.84zm-4 3h1c0.554 0 1 0.3 1 0.69v3.62c0 0.39-0.446 0.69-1 0.69h-1c-0.554 0-1-0.3-1-0.69v-3.62c0-0.39 0.446-0.69 1-0.69z" fill="#fff" opacity=".05"/>
 <path id="base" d="m9 10c-0.554 0-1 0.382-1 0.844v6.312c0 0.462 0.446 0.844 1 0.844h1c0.554 0 1-0.382 1-0.844v-6.312c0-0.462-0.446-0.844-1-0.844h-1zm-4 3c-0.554 0-1 0.3-1 0.688v3.624c0 0.388 0.446 0.688 1 0.688h1c0.554 0 1-0.3 1-0.688v-3.624c0-0.388-0.446-0.688-1-0.688h-1z" fill="url(#gr0)"/>
 <path id="path17" d="m17 4c-0.554 0-1 0.446-1 1v12c0 0.554 0.446 1 1 1h1c0.554 0 1-0.446 1-1v-12c0-0.554-0.446-1-1-1h-1zm-4 3c-0.554 0-1 0.4231-1 0.9375v9.1245c0 0.515 0.446 0.938 1 0.938h1c0.554 0 1-0.423 1-0.938v-9.1245c0-0.5144-0.446-0.9375-1-0.9375h-1z" opacity=".2"/>
 <path id="path19" d="m9 10c-0.554 0-1 0.38-1 0.84v6.32c0 0.46 0.446 0.84 1 0.84h1c0.55 0 1-0.38 1-0.84v-6.32c0-0.46-0.45-0.84-1-0.84h-1zm0 0.5h1c0.32 0 0.5 0.2 0.5 0.34v6.32c0 0.14-0.18 0.34-0.5 0.34h-1c-0.324 0-0.5-0.2-0.5-0.34v-6.32c0-0.14 0.176-0.34 0.5-0.34zm-4 2.5c-0.554 0-1 0.3-1 0.69v3.62c0 0.39 0.446 0.69 1 0.69h1c0.554 0 1-0.3 1-0.69v-3.62c0-0.39-0.446-0.69-1-0.69h-1zm0 0.5h1c0.187 0 0.346 0.11 0.426 0.11l0.07 0.1v3.62s0.01 0-0.07 0.1c-0.082 0.01-0.239 0.11-0.426 0.11h-1c-0.187 0-0.346-0.01-0.426-0.11l-0.07-0.1v-3.62s-0.01 0 0.07-0.1c0.082-0.01 0.239-0.11 0.426-0.11z" opacity=".3"/>
 <path id="path26" d="m8 17.16v1c0 0.46 0.446 0.84 1 0.84h1c0.55 0 1-0.38 1-0.84v-1c0 0.46-0.45 0.84-1 0.84h-1c-0.554 0-1-0.38-1-0.84zm-4 0.15v1c0 0.39 0.446 0.69 1 0.69h1c0.554 0 1-0.3 1-0.69v-1c0 0.39-0.446 0.69-1 0.69h-1c-0.554 0-1-0.3-1-0.69z" fill="#fff" opacity=".2"/>
 <path id="path33" d="m9 10c-0.554 0-1 0.38-1 0.84v1c0-0.46 0.446-0.84 1-0.84h1c0.55 0 1 0.38 1 0.84v-1c0-0.46-0.45-0.84-1-0.84h-1zm-4 3c-0.554 0-1 0.3-1 0.69v1c0-0.39 0.446-0.69 1-0.69h1c0.554 0 1 0.3 1 0.69v-1c0-0.39-0.446-0.69-1-0.69h-1z" opacity=".3"/>
</svg>
