<?xml version="1.0" encoding="UTF-8"?>
<svg width="22" height="22" version="1.1" xmlns="http://www.w3.org/2000/svg">
 <path d="m4.5 1.625a1 1 0 0 0-0.46875 0.21875 1 1 0 0 0-0.09375 0.09375c-3.8969 3.8969-3.8969 10.228 0 14.125a1 1 0 0 0 0.5 0.28125 1 1 0 0 0 0.1875 0 1 1 0 0 0 0.21875 0 1 1 0 0 0 0.28125-0.09375 1 1 0 0 0 0.3125-0.28125 1 1 0 0 0 0.1875-0.40625 1 1 0 0 0-0.1875-0.78125 1 1 0 0 0-0.09375-0.125c-3.1326-3.1326-3.1326-8.1799 0-11.312a1 1 0 0 0 0.28125-0.5 1 1 0 0 0 0-0.21875 1 1 0 0 0 0-0.1875 1 1 0 0 0 0-0.1875 1 1 0 0 0-0.09375-0.125 1 1 0 0 0-0.3125-0.28125 1 1 0 0 0-0.375-0.1875 1 1 0 0 0-0.34375-0.03125zm12.719 0a1 1 0 0 0-0.0625 0.03125 1 1 0 0 0-0.375 0.1875 1 1 0 0 0-0.3125 0.28125 1 1 0 0 0-0.09375 0.125 1 1 0 0 0 0 0.1875 1 1 0 0 0 0 0.1875 1 1 0 0 0 0 0.21875 1 1 0 0 0 0.28125 0.5c3.1326 3.1326 3.1326 8.1799 0 11.312a1 1 0 0 0-0.09375 0.125 1 1 0 0 0-0.1875 0.78125 1 1 0 0 0 0.1875 0.40625 1 1 0 0 0 0.3125 0.28125 1 1 0 0 0 0.28125 0.09375 1 1 0 0 0 0.21875 0 1 1 0 0 0 0.1875 0 1 1 0 0 0 0.5-0.28125c3.8969-3.8969 3.8969-10.228 0-14.125a1 1 0 0 0-0.09375-0.09375 1 1 0 0 0-0.75-0.21875zm-9.75 2.7812a1 1 0 0 0-0.71875 0.34375c-2.3348 2.3348-2.3348 6.1652 0 8.5a1.0156 1.0156 0 0 0 1.4375-1.4375c-1.5705-1.5705-1.5705-4.0545 0-5.625a1 1 0 0 0 0.15625-1.2812 1 1 0 0 0-0.875-0.5zm6.9688 0a1 1 0 0 0-0.78125 0.5 1 1 0 0 0 0.15625 1.2812c1.5705 1.5705 1.5705 4.0545 0 5.625a1.0156 1.0156 0 1 0 1.4375 1.4375c2.3348-2.3348 2.3348-6.1652 0-8.5a1 1 0 0 0-0.8125-0.34375zm-3.4375 2.5938c-1.1046 0-2 0.89543-2 2s0.89543 2 2 2 2-0.89543 2-2-0.89543-2-2-2zm0 6c-0.554 0-1 0.446-1 1v5c0 0.554 0.446 1 1 1s1-0.446 1-1v-5c0-0.554-0.446-1-1-1z" opacity=".2"/>
</svg>
