<?xml version="1.0" encoding="UTF-8"?>
<svg id="svg30" width="22" height="22" version="1.1" xmlns="http://www.w3.org/2000/svg" xmlns:cc="http://creativecommons.org/ns#" xmlns:dc="http://purl.org/dc/elements/1.1/" xmlns:rdf="http://www.w3.org/1999/02/22-rdf-syntax-ns#">
 <metadata id="metadata34">
  <rdf:RDF>
   <cc:Work rdf:about="">
    <dc:format>image/svg+xml</dc:format>
    <dc:type rdf:resource="http://purl.org/dc/dcmitype/StillImage"/>
   </cc:Work>
  </rdf:RDF>
 </metadata>
 <defs id="defs7">
  <radialGradient id="gr0" cx="12" cy="13" r="16" gradientTransform="matrix(1 0 0 .74747 0 4.7475)" gradientUnits="userSpaceOnUse">
   <stop id="stop2" stop-opacity=".23529" offset="0"/>
   <stop id="stop4" stop-opacity=".54902" offset="1"/>
  </radialGradient>
 </defs>
 <path id="path9" d="m5 2c-1.0907 0-2 0.9093-2 2v1a1 1.0001 0 0 0 0.16797 0.55664c-0.66087 0.45265-1.168 1.0922-1.168 1.9434v6.5 1.5c0 1.3677 1.1323 2.5 2.5 2.5h2.709c0.26007 1.101 1.1172 2 2.291 2h6c1.1732 0 2.0303-0.8979 2.291-1.998l0.0742-0.0059-0.0742 0.0039c5e-4 -0.0021 0.0015-0.0038 2e-3 -0.0059 0.6548-0.0043 1.3115-0.3116 1.6914-0.8046 0.3825-0.4965 0.5156-1.0925 0.5156-1.6895v-1.5-6.5c0-0.85179-0.5082-1.4908-1.1699-1.9434a1.0001 1.0001 0 0 0 0.1699-0.55664c0-1.0907-0.9093-2-2-2h-6.4199c-0.3573-0.56123-0.87662-1-1.5801-1h-4zm0 1h4c0.554 0 1 0.446 1 1h7c0.554 0 1 0.446 1 1h-14v-1c0-0.554 0.446-1 1-1zm-0.5 3h5 7 1c0.831 0 1.5 0.669 1.5 1.5v6.5 1.5c0 0.879-0.4153 1.5-1.2188 1.5l-0.75 0.0625h-0.0312v0.4375c0 0.831-0.669 1.5-1.5 1.5h-6c-0.831 0-1.5-0.669-1.5-1.5v-0.5h-3.5c-0.831 0-1.5-0.669-1.5-1.5v-1.5-6.5c0-0.831 0.669-1.5 1.5-1.5zm6 3c-0.277 0-0.5 0.223-0.5 0.5v7c0 0.277 0.223 0.5 0.5 0.5h4c0.277 0 0.5-0.223 0.5-0.5v-7c0-0.277-0.223-0.5-0.5-0.5h-4zm0.5 1h3v6h-3v-6z" fill="#fff" opacity=".05"/>
 <path id="base" d="m5 3c-0.554 0-1 0.446-1 1v1h14c0-0.554-0.446-1-1-1h-7c0-0.554-0.446-1-1-1zm-0.5 3c-0.831 0-1.5 0.669-1.5 1.5v6.5 1.5c0 0.831 0.669 1.5 1.5 1.5h3.5v0.5c0 0.831 0.669 1.5 1.5 1.5h6c0.831 0 1.5-0.669 1.5-1.5v-0.4375h0.03125l0.75-0.0625c0.80352 4e-6 1.2188-0.62104 1.2188-1.5v-1.5-6.5c0-0.831-0.669-1.5-1.5-1.5h-1-7zm6 3h4c0.277 0 0.5 0.223 0.5 0.5v7c0 0.277-0.223 0.5-0.5 0.5h-4c-0.277 0-0.5-0.223-0.5-0.5v-7c0-0.277 0.223-0.5 0.5-0.5z" fill="url(#gr0)"/>
 <path id="path15" d="m5 3c-0.554 0-1 0.446-1 1v1h14c0-0.554-0.446-1-1-1h-7c0-0.554-0.446-1-1-1h-4zm0 0.5h4c0.28565 0 0.5 0.21435 0.5 0.5a0.50005 0.50005 0 0 0 0.5 0.5h-5.5v-0.5c0-0.28565 0.21435-0.5 0.5-0.5zm-0.5 2.5c-0.831 0-1.5 0.669-1.5 1.5v6.5 1.5c0 0.831 0.669 1.5 1.5 1.5h3.5v0.5c0 0.831 0.669 1.5 1.5 1.5h6c0.831 0 1.5-0.669 1.5-1.5v-0.4375h0.0312l0.75-0.0625c0.8035 0 1.2188-0.621 1.2188-1.5v-1.5-6.5c0-0.831-0.669-1.5-1.5-1.5h-1-7-5zm0 0.5h5 7 1c0.5626 0 1 0.43735 1 1v6.5 1.5c0 0.3607-0.0899 0.6259-0.2051 0.7754-0.1151 0.1494-0.2406 0.2246-0.5137 0.2246a0.50005 0.50005 0 0 0-0.041 2e-3l-0.7304 0.0605h-0.0098a0.50005 0.50005 0 0 0-0.5 0.5v0.4375c0 0.5626-0.4374 1-1 1h-6c-0.56265 0-1-0.4374-1-1v-0.5a0.50005 0.50005 0 0 0-0.5-0.5h-3.5c-0.56265 0-1-0.4374-1-1v-1.5-6.5c0-0.56265 0.43735-1 1-1zm6 2c-0.54535 0-1 0.45465-1 1v7c0 0.5454 0.45465 1 1 1h4c0.5454 0 1-0.4546 1-1v-7c0-0.54535-0.4546-1-1-1h-4zm0 0.5h4c0.277 0 0.5 0.223 0.5 0.5v7c0 0.277-0.223 0.5-0.5 0.5h-4c-0.277 0-0.5-0.223-0.5-0.5v-7c0-0.277 0.223-0.5 0.5-0.5z" opacity=".3"/>
 <path id="path20" d="m4 5v1h0.5 13 0.5c0-0.554-0.446-1-1-1h-7-6zm6.5 4c-0.277 0-0.5 0.223-0.5 0.5v1c0-0.277 0.223-0.5 0.5-0.5h4c0.277 0 0.5 0.223 0.5 0.5v-1c0-0.277-0.223-0.5-0.5-0.5h-4zm-7.5 6.5v1c0 0.831 0.669 1.5 1.5 1.5h3.5v0.5c0 0.831 0.669 1.5 1.5 1.5h6c0.831 0 1.5-0.669 1.5-1.5v-0.4375h0.0312l0.75-0.0625c0.8035 0 1.2188-0.621 1.2188-1.5v-1c0 0.879-0.4153 1.5-1.2188 1.5l-0.75 0.0625h-0.0312v0.4375c0 0.831-0.669 1.5-1.5 1.5h-6c-0.831 0-1.5-0.669-1.5-1.5v-0.5h-3.5c-0.831 0-1.5-0.669-1.5-1.5z" fill="#fff" opacity=".2"/>
 <path id="path25" d="m5 3c-0.554 0-1 0.446-1 1v1c0-0.554 0.446-1 1-1h4c0.554 0 1 0.446 1 1h7 1c0-0.554-0.446-1-1-1h-7c0-0.554-0.446-1-1-1h-4zm-0.5 3c-0.831 0-1.5 0.669-1.5 1.5v1c0-0.831 0.669-1.5 1.5-1.5h5 7 1c0.831 0 1.5 0.669 1.5 1.5v-1c0-0.831-0.669-1.5-1.5-1.5h-13zm5.5 10.5v1c0 0.277 0.223 0.5 0.5 0.5h4c0.277 0 0.5-0.223 0.5-0.5v-1c0 0.277-0.223 0.5-0.5 0.5h-4c-0.277 0-0.5-0.223-0.5-0.5z" opacity=".3"/>
</svg>
