<?xml version="1.0" encoding="UTF-8"?>
<svg id="svg30" width="22" height="22" version="1.1" xmlns="http://www.w3.org/2000/svg" xmlns:cc="http://creativecommons.org/ns#" xmlns:dc="http://purl.org/dc/elements/1.1/" xmlns:rdf="http://www.w3.org/1999/02/22-rdf-syntax-ns#">
 <metadata id="metadata34">
  <rdf:RDF>
   <cc:Work rdf:about="">
    <dc:format>image/svg+xml</dc:format>
    <dc:type rdf:resource="http://purl.org/dc/dcmitype/StillImage"/>
   </cc:Work>
  </rdf:RDF>
 </metadata>
 <defs id="defs7">
  <radialGradient id="gr0" cx="12" cy="13" r="16" gradientTransform="matrix(1 0 0 .74747 0 4.7475)" gradientUnits="userSpaceOnUse">
   <stop id="stop2" stop-opacity=".23529" offset="0"/>
   <stop id="stop4" stop-opacity=".54902" offset="1"/>
  </radialGradient>
 </defs>
 <path id="path9" d="m10 2c-2.4557 0-4.4203 1.8274-4.832 4.1699-1.7895 0.39643-3.168 1.9272-3.168 3.8301 0 1.9459 1.4396 3.5064 3.2891 3.8555-0.06456 0.1114-0.16652 0.1954-0.20117 0.3242l-0.25977 0.9648a1 1.0001 0 0 0-0.00195 2e-3c-0.10166 0.38-0.02812 0.7674 0.15039 1.0957-0.30821 0.1964-0.56835 0.4637-0.66797 0.8359l-0.25781 0.9649c-0.21101 0.7857 0.27789 1.6253 1.0606 1.8359 0.53342 0.1435 1.0152-0.1044 1.3848-0.4785 0.18231 0.191 0.34833 0.4067 0.61524 0.4785 0.53342 0.1435 1.0152-0.1044 1.3848-0.4785 0.18231 0.191 0.34833 0.4067 0.61524 0.4785 0.53342 0.1435 1.0152-0.1044 1.3848-0.4785 0.1822 0.191 0.3485 0.4068 0.6152 0.4785 0.5329 0.1432 1.0151-0.104 1.3848-0.4785 0.1822 0.1909 0.3466 0.4066 0.6133 0.4785a1.0001 1.0001 0 0 0 0.0019 0c0.5329 0.1432 1.0151-0.104 1.3848-0.4785 0.1822 0.1909 0.3466 0.4066 0.6133 0.4785a1.0001 1.0001 0 0 0 0.0019 0c0.7858 0.2111 1.6271-0.2752 1.836-1.0605l0.2597-0.9629c0.1005-0.3739 0.0246-0.7534-0.1465-1.0782 0.3081-0.195 0.5662-0.4818 0.6661-0.8535a1.0001 1.0001 0 0 0 0-0.0019l0.2578-0.9668a1.0001 1.0001 0 0 0 0-2e-3c0.1033-0.3885 0.0333-0.7886-0.1563-1.1211 1.7916-0.3948 3.1719-1.9276 3.1719-3.832 0-1.9721-1.477-3.5527-3.3633-3.8711-0.407-1.176-1.3299-2.1289-2.6367-2.1289-0.3833 0-0.6398 0.23694-0.9648 0.36914-0.8987-1.3594-2.2967-2.3691-4.0352-2.3691zm0 1c1.681 0 3.1267 1.0307 3.7188 2.5 0.349-0.2981 0.7862-0.5 1.2812-0.5 1.105 0 2 0.8954 2 2 1.657 0 3 1.3431 3 3 0 1.657-1.343 3-3 3h-11c-1.6569 0-3-1.343-3-3 0-1.6569 1.3431-3 3-3 0-2.2091 1.7909-4 4-4zm-3.5332 11.072c0.0643-9e-3 0.13036-0.0044 0.19726 0.0136 0.2675 0.072 0.42522 0.3444 0.35352 0.6114l-0.25781 0.9668c-0.0717 0.268-0.34579 0.4245-0.61329 0.3535-0.2676-0.072-0.42521-0.3453-0.35351-0.6133l0.25976-0.9648c0.0538-0.2 0.22097-0.3402 0.41407-0.3672zm2 0c0.0643-9e-3 0.13036-0.0044 0.19726 0.0136 0.2675 0.072 0.42522 0.3444 0.35352 0.6114l-0.25781 0.9668c-0.0717 0.268-0.34579 0.4245-0.61329 0.3535-0.2676-0.072-0.42521-0.3453-0.35351-0.6133l0.25976-0.9648c0.0538-0.2 0.22097-0.3402 0.41407-0.3672zm2 0c0.064-9e-3 0.1303-0.0044 0.1973 0.0136 0.268 0.072 0.4245 0.3444 0.3535 0.6114l-0.2578 0.9668c-0.072 0.268-0.3453 0.4245-0.6133 0.3535-0.26662-0.072-0.42523-0.3453-0.35353-0.6133l0.25973-0.9648c0.054-0.2 0.2211-0.3402 0.4141-0.3672zm2 0c0.064-9e-3 0.1303-0.0044 0.1973 0.0136 0.268 0.072 0.4245 0.3444 0.3535 0.6114l-0.2578 0.9668c-0.072 0.268-0.3453 0.4245-0.6133 0.3535-0.267-0.072-0.4255-0.3453-0.3535-0.6133l0.2597-0.9648c0.054-0.2 0.2211-0.3402 0.4141-0.3672zm2 0c0.064-9e-3 0.1303-0.0044 0.1973 0.0136 0.268 0.072 0.4245 0.3444 0.3535 0.6114l-0.2578 0.9668c-0.072 0.268-0.3453 0.4245-0.6133 0.3535-0.267-0.072-0.4255-0.3453-0.3535-0.6133l0.2597-0.9648c0.054-0.2 0.2211-0.3402 0.4141-0.3672zm2 0c0.064-9e-3 0.1303-0.0044 0.1973 0.0136 0.268 0.072 0.4245 0.3444 0.3535 0.6114l-0.2578 0.9668c-0.072 0.268-0.3453 0.4245-0.6133 0.3535-0.267-0.072-0.4255-0.3453-0.3535-0.6133l0.2597-0.9648c0.054-0.2 0.2211-0.3402 0.4141-0.3672zm-10.777 2.8984c0.0643-9e-3 0.13232-0.0063 0.19922 0.0117 0.2675 0.072 0.42522 0.3453 0.35352 0.6133l-0.25977 0.9648c-0.0717 0.267-0.34373 0.4256-0.61133 0.3536s-0.42521-0.3444-0.35351-0.6114l0.25781-0.9668c0.0538-0.201 0.22096-0.3392 0.41406-0.3652zm2 0c0.0643-9e-3 0.13232-0.0063 0.19922 0.0117 0.2675 0.072 0.42522 0.3453 0.35352 0.6133l-0.25977 0.9648c-0.0717 0.267-0.34373 0.4256-0.61133 0.3536s-0.42521-0.3444-0.35351-0.6114l0.25781-0.9668c0.0538-0.201 0.22096-0.3392 0.41406-0.3652zm2 0c0.0643-9e-3 0.13232-0.0063 0.19922 0.0117 0.26733 0.072 0.42553 0.3453 0.35353 0.6133l-0.25978 0.9648c-0.0717 0.267-0.34373 0.4256-0.61133 0.3536s-0.42521-0.3444-0.35351-0.6114l0.25781-0.9668c0.0538-0.201 0.22096-0.3392 0.41406-0.3652zm2 0c0.065-9e-3 0.1322-0.0063 0.1992 0.0117 0.267 0.072 0.4255 0.3453 0.3535 0.6133l-0.2598 0.9648c-0.071 0.267-0.3433 0.4256-0.6113 0.3536s-0.4255-0.3444-0.3535-0.6114l0.2578-0.9668c0.054-0.201 0.2211-0.3392 0.4141-0.3652zm2 0c0.065-9e-3 0.1322-0.0063 0.1992 0.0117 0.267 0.072 0.4255 0.3453 0.3535 0.6133l-0.2598 0.9648c-0.071 0.267-0.3433 0.4256-0.6113 0.3536-0.267-0.072-0.4255-0.3444-0.3535-0.6114l0.2578-0.9668c0.054-0.201 0.2211-0.3392 0.4141-0.3652zm2 0c0.065-9e-3 0.1322-0.0063 0.1992 0.0117 0.267 0.072 0.4255 0.3453 0.3535 0.6133l-0.2598 0.9648c-0.071 0.267-0.3433 0.4256-0.6113 0.3536-0.267-0.072-0.4255-0.3444-0.3535-0.6114l0.2578-0.9668c0.054-0.201 0.2211-0.3392 0.4141-0.3652z" fill="#fff" opacity=".05"/>
 <path id="base" d="m10 3c-2.2091 0-4 1.7909-4 4-1.6569 0-3 1.3431-3 3 0 1.657 1.3431 3 3 3h11c1.657 0 3-1.343 3-3 0-1.6569-1.343-3-3-3 0-1.1046-0.895-2-2-2-0.495 0-0.932 0.2019-1.281 0.5-0.592-1.4693-2.038-2.5-3.719-2.5zm-3.5332 11.072c-0.1931 0.027-0.3603 0.167-0.4141 0.367l-0.2597 0.965c-0.0717 0.268 0.0859 0.542 0.3535 0.614 0.2675 0.071 0.5416-0.086 0.6133-0.354l0.2578-0.967c0.0717-0.267-0.086-0.539-0.3535-0.611-0.0669-0.018-0.133-0.023-0.1973-0.014zm2 0c-0.1931 0.027-0.3603 0.167-0.4141 0.367l-0.2597 0.965c-0.0717 0.268 0.0859 0.542 0.3535 0.614 0.2675 0.071 0.5416-0.086 0.6133-0.354l0.2578-0.967c0.0717-0.267-0.086-0.539-0.3535-0.611-0.0669-0.018-0.133-0.023-0.1973-0.014zm2.0002 0c-0.193 0.027-0.36 0.167-0.414 0.367l-0.26 0.965c-0.0717 0.268 0.0864 0.542 0.353 0.614 0.268 0.071 0.542-0.086 0.614-0.354l0.258-0.967c0.071-0.267-0.086-0.539-0.354-0.611-0.067-0.018-0.133-0.023-0.197-0.014zm2 0c-0.193 0.027-0.36 0.167-0.414 0.367l-0.26 0.965c-0.072 0.268 0.086 0.542 0.353 0.614 0.268 0.071 0.542-0.086 0.614-0.354l0.258-0.967c0.071-0.267-0.086-0.539-0.354-0.611-0.067-0.018-0.133-0.023-0.197-0.014zm2 0c-0.193 0.027-0.36 0.167-0.414 0.367l-0.26 0.965c-0.072 0.268 0.086 0.542 0.353 0.614 0.268 0.071 0.542-0.086 0.614-0.354l0.258-0.967c0.071-0.267-0.086-0.539-0.354-0.611-0.067-0.018-0.133-0.023-0.197-0.014zm2 0c-0.193 0.027-0.36 0.167-0.414 0.367l-0.26 0.965c-0.072 0.268 0.086 0.542 0.353 0.614 0.268 0.071 0.542-0.086 0.614-0.354l0.258-0.967c0.071-0.267-0.086-0.539-0.354-0.611-0.067-0.018-0.133-0.023-0.197-0.014zm-10.778 2.899c-0.1931 0.026-0.3603 0.164-0.4141 0.365l-0.2578 0.967c-0.0717 0.267 0.0859 0.539 0.3535 0.611s0.5396-0.086 0.6113-0.353l0.2598-0.965c0.0717-0.268-0.086-0.542-0.3535-0.614-0.0669-0.018-0.1349-0.02-0.1992-0.011zm2 0c-0.1931 0.026-0.3603 0.164-0.4141 0.365l-0.2578 0.967c-0.0717 0.267 0.0859 0.539 0.3535 0.611s0.5396-0.086 0.6113-0.353l0.2598-0.965c0.0717-0.268-0.086-0.542-0.3535-0.614-0.0669-0.018-0.1349-0.02-0.1992-0.011zm2 0c-0.1931 0.026-0.3603 0.164-0.4141 0.365l-0.2578 0.967c-0.0717 0.267 0.0859 0.539 0.3535 0.611s0.5396-0.086 0.6113-0.353l0.2596-0.965c0.072-0.268-0.086-0.542-0.3533-0.614-0.0669-0.018-0.1349-0.02-0.1992-0.011zm1.9995 0c-0.193 0.026-0.36 0.164-0.414 0.365l-0.257 0.967c-0.072 0.267 0.085 0.539 0.353 0.611s0.54-0.086 0.611-0.353l0.26-0.965c0.072-0.268-0.086-0.542-0.353-0.614-0.067-0.018-0.135-0.02-0.2-0.011zm2 0c-0.193 0.026-0.36 0.164-0.414 0.365l-0.257 0.967c-0.072 0.267 0.086 0.539 0.353 0.611 0.268 0.072 0.54-0.086 0.611-0.353l0.26-0.965c0.072-0.268-0.086-0.542-0.353-0.614-0.067-0.018-0.135-0.02-0.2-0.011zm2 0c-0.193 0.026-0.36 0.164-0.414 0.365l-0.257 0.967c-0.072 0.267 0.086 0.539 0.353 0.611 0.268 0.072 0.54-0.086 0.611-0.353l0.26-0.965c0.072-0.268-0.086-0.542-0.353-0.614-0.067-0.018-0.135-0.02-0.2-0.011z" fill="url(#gr0)"/>
 <path id="path15" d="m10 3c-2.2091 0-4 1.7909-4 4-1.6569 0-3 1.3431-3 3 0 1.657 1.3431 3 3 3h11c1.657 0 3-1.343 3-3 0-1.6569-1.343-3-3-3 0-1.1046-0.895-2-2-2-0.495 0-0.9322 0.2019-1.2812 0.5-0.5921-1.4693-2.0378-2.5-3.7188-2.5zm0 0.5c1.4766 0 2.739 0.9048 3.2559 2.1875a0.50005 0.50005 0 0 0 0.7871 0.19336c0.277-0.23664 0.598-0.38086 0.957-0.38086 0.8349 0 1.5 0.66548 1.5 1.5a0.50005 0.50005 0 0 0 0.5 0.5c1.3868 0 2.5 1.1133 2.5 2.5 0 1.3868-1.1132 2.5-2.5 2.5h-11c-1.3867 0-2.5-1.1132-2.5-2.5 0-1.3867 1.1133-2.5 2.5-2.5a0.50005 0.50005 0 0 0 0.5-0.5c0-1.9389 1.5611-3.5 3.5-3.5zm-3.5332 10.572c-0.1931 0.027-0.36027 0.1672-0.41407 0.3672l-0.25976 0.9648c-0.0717 0.268 0.08591 0.5413 0.35351 0.6133 0.2675 0.071 0.54159-0.0855 0.61329-0.3535l0.25781-0.9668c0.0717-0.267-0.08602-0.5394-0.35352-0.6114-0.0669-0.018-0.13296-0.0226-0.19726-0.0136zm2 0c-0.1931 0.027-0.36027 0.1672-0.41407 0.3672l-0.25976 0.9648c-0.0717 0.268 0.08591 0.5413 0.35351 0.6133 0.2675 0.071 0.54159-0.0855 0.61329-0.3535l0.25781-0.9668c0.0717-0.267-0.08602-0.5394-0.35352-0.6114-0.0669-0.018-0.13296-0.0226-0.19726-0.0136zm2 0c-0.193 0.027-0.3601 0.1672-0.4141 0.3672l-0.25973 0.9648c-0.0717 0.268 0.08691 0.5413 0.35353 0.6133 0.268 0.071 0.5413-0.0855 0.6133-0.3535l0.2578-0.9668c0.071-0.267-0.0855-0.5394-0.3535-0.6114-0.067-0.018-0.1333-0.0226-0.1973-0.0136zm2 0c-0.193 0.027-0.3601 0.1672-0.4141 0.3672l-0.2597 0.9648c-0.072 0.268 0.0865 0.5413 0.3535 0.6133 0.268 0.071 0.5413-0.0855 0.6133-0.3535l0.2578-0.9668c0.071-0.267-0.0855-0.5394-0.3535-0.6114-0.067-0.018-0.1333-0.0226-0.1973-0.0136zm2 0c-0.193 0.027-0.3601 0.1672-0.4141 0.3672l-0.2597 0.9648c-0.072 0.268 0.0865 0.5413 0.3535 0.6133 0.268 0.071 0.5413-0.0855 0.6133-0.3535l0.2578-0.9668c0.071-0.267-0.0855-0.5394-0.3535-0.6114-0.067-0.018-0.1333-0.0226-0.1973-0.0136zm2 0c-0.193 0.027-0.3601 0.1672-0.4141 0.3672l-0.2597 0.9648c-0.072 0.268 0.0865 0.5413 0.3535 0.6133 0.268 0.071 0.5413-0.0855 0.6133-0.3535l0.2578-0.9668c0.071-0.267-0.0855-0.5394-0.3535-0.6114-0.067-0.018-0.1333-0.0226-0.1973-0.0136zm-9.9316 0.4961-0.25782 0.9668h-0.00195v-2e-3l0.25977-0.9648zm2 0-0.25782 0.9668-0.00195-2e-3 0.25977-0.9648zm2 0-0.2579 0.9668h-0.0019v-2e-3l0.2598-0.9648zm2 0-0.2579 0.9668h-0.0019v-2e-3l0.2598-0.9648zm2 0-0.2579 0.9668h-0.0019v-2e-3l0.2598-0.9648zm2 0-0.2579 0.9668h-0.0019v-2e-3l0.2598-0.9648zm-10.846 2.4023c-0.1931 0.026-0.36026 0.1642-0.41406 0.3652l-0.25781 0.9668c-0.0717 0.267 0.08591 0.5394 0.35351 0.6114s0.53963-0.0866 0.61133-0.3536l0.25977-0.9648c0.0717-0.268-0.08602-0.5413-0.35352-0.6133-0.0669-0.018-0.13492-0.0207-0.19922-0.0117zm2 0c-0.1931 0.026-0.36026 0.1642-0.41406 0.3652l-0.25781 0.9668c-0.0717 0.267 0.08591 0.5394 0.35351 0.6114s0.53963-0.0866 0.61133-0.3536l0.25977-0.9648c0.0717-0.268-0.08602-0.5413-0.35352-0.6133-0.0669-0.018-0.13492-0.0207-0.19922-0.0117zm2 0c-0.1931 0.026-0.36026 0.1642-0.41406 0.3652l-0.25781 0.9668c-0.0717 0.267 0.08591 0.5394 0.35351 0.6114s0.53963-0.0866 0.61133-0.3536l0.25978-0.9648c0.072-0.268-0.0862-0.5413-0.35353-0.6133-0.0669-0.018-0.13492-0.0207-0.19922-0.0117zm2 0c-0.193 0.026-0.3601 0.1642-0.4141 0.3652l-0.2578 0.9668c-0.072 0.267 0.0855 0.5394 0.3535 0.6114s0.5403-0.0866 0.6113-0.3536l0.2598-0.9648c0.072-0.268-0.0865-0.5413-0.3535-0.6133-0.067-0.018-0.1342-0.0207-0.1992-0.0117zm2 0c-0.193 0.026-0.3601 0.1642-0.4141 0.3652l-0.2578 0.9668c-0.072 0.267 0.0865 0.5394 0.3535 0.6114 0.268 0.072 0.5403-0.0866 0.6113-0.3536l0.2598-0.9648c0.072-0.268-0.0865-0.5413-0.3535-0.6133-0.067-0.018-0.1342-0.0207-0.1992-0.0117zm2 0c-0.193 0.026-0.3601 0.1642-0.4141 0.3652l-0.2578 0.9668c-0.072 0.267 0.0865 0.5394 0.3535 0.6114 0.268 0.072 0.5403-0.0866 0.6113-0.3536l0.2598-0.9648c0.072-0.268-0.0865-0.5413-0.3535-0.6133-0.067-0.018-0.1342-0.0207-0.1992-0.0117zm-9.9317 0.4961h0.00196l-0.25977 0.9648 0.25781-0.9648zm2 0h0.00196l-0.25977 0.9648 0.25781-0.9648z" opacity=".3"/>
 <path id="path20" d="m3.0508 10.5c-0.0275 0.1632-0.05078 0.3289-0.05078 0.5 0 1.657 1.3431 3 3 3h11c1.657 0 3-1.343 3-3 0-0.1711-0.0233-0.3368-0.0508-0.5-0.2388 1.418-1.4633 2.5-2.9492 2.5h-11c-1.4858 0-2.7104-1.082-2.9492-2.5zm3.8281 4.7168-0.11914 0.4473c-0.0717 0.268-0.34579 0.4245-0.61329 0.3535-0.08613-0.0232-0.15548-0.0708-0.21484-0.1289l-0.13867 0.5156c-0.0717 0.268 0.08591 0.5413 0.35351 0.6133 0.2675 0.071 0.54159-0.0855 0.61329-0.3535l0.25781-0.9668c0.04848-0.1806-0.01434-0.3588-0.13867-0.4805zm2 0-0.11914 0.4473c-0.0717 0.268-0.34579 0.4245-0.61329 0.3535-0.08613-0.0232-0.15548-0.0708-0.21484-0.1289l-0.13867 0.5156c-0.0717 0.268 0.08591 0.5413 0.35351 0.6133 0.2675 0.071 0.54159-0.0855 0.61329-0.3535l0.25781-0.9668c0.04848-0.1806-0.01434-0.3588-0.13867-0.4805zm2 0-0.1191 0.4473c-0.072 0.268-0.3453 0.4245-0.6133 0.3535-0.0858-0.0232-0.15557-0.0708-0.21486-0.1289l-0.13867 0.5156c-0.0717 0.268 0.08691 0.5413 0.35353 0.6133 0.268 0.071 0.5413-0.0855 0.6133-0.3535l0.2578-0.9668c0.048-0.1806-0.0144-0.3588-0.1387-0.4805zm2 0-0.1191 0.4473c-0.072 0.268-0.3453 0.4245-0.6133 0.3535-0.086-0.0232-0.1555-0.0708-0.2149-0.1289l-0.1386 0.5156c-0.072 0.268 0.0865 0.5413 0.3535 0.6133 0.268 0.071 0.5413-0.0855 0.6133-0.3535l0.2578-0.9668c0.048-0.1806-0.0144-0.3588-0.1387-0.4805zm2 0-0.1191 0.4473c-0.072 0.268-0.3453 0.4245-0.6133 0.3535-0.086-0.0232-0.1555-0.0708-0.2149-0.1289l-0.1386 0.5156c-0.072 0.268 0.0865 0.5413 0.3535 0.6133 0.268 0.071 0.5413-0.0855 0.6133-0.3535l0.2578-0.9668c0.048-0.1806-0.0144-0.3588-0.1387-0.4805zm2 0-0.1191 0.4473c-0.072 0.268-0.3453 0.4245-0.6133 0.3535-0.086-0.0232-0.1555-0.0708-0.2149-0.1289l-0.1386 0.5156c-0.072 0.268 0.0865 0.5413 0.3535 0.6133 0.268 0.071 0.5413-0.0855 0.6133-0.3535l0.2578-0.9668c0.048-0.1806-0.0144-0.3588-0.1387-0.4805zm-10.775 2.8965-0.1211 0.4472c-0.0717 0.267-0.34373 0.4256-0.61133 0.3536-0.08664-0.0233-0.15531-0.0726-0.21484-0.1309l-0.13867 0.5195c-0.0717 0.267 0.08591 0.5394 0.35351 0.6114s0.53963-0.0866 0.61133-0.3536l0.25977-0.9648c0.04845-0.1811-0.01454-0.36-0.13867-0.4824zm2 0-0.1211 0.4472c-0.0717 0.267-0.34373 0.4256-0.61133 0.3536-0.08664-0.0233-0.15531-0.0726-0.21484-0.1309l-0.13867 0.5195c-0.0717 0.267 0.08591 0.5394 0.35351 0.6114s0.53963-0.0866 0.61133-0.3536l0.25977-0.9648c0.04845-0.1811-0.01454-0.36-0.13867-0.4824zm2 0-0.12108 0.4472c-0.0717 0.267-0.34373 0.4256-0.61133 0.3536-0.08664-0.0233-0.15531-0.0726-0.21484-0.1309l-0.13867 0.5195c-0.0717 0.267 0.08591 0.5394 0.35351 0.6114s0.53963-0.0866 0.61133-0.3536l0.25978-0.9648c0.0486-0.1811-0.0145-0.36-0.1387-0.4824zm2 0-0.1211 0.4472c-0.071 0.267-0.3433 0.4256-0.6113 0.3536-0.0859-0.0231-0.1556-0.0715-0.2149-0.1289l-0.1386 0.5175c-0.072 0.267 0.0855 0.5394 0.3535 0.6114s0.5403-0.0866 0.6113-0.3536l0.2598-0.9648c0.0486-0.1811-0.0146-0.36-0.1387-0.4824zm2 0-0.1211 0.4472c-0.071 0.267-0.3433 0.4256-0.6113 0.3536-0.0865-0.0233-0.1554-0.0726-0.2149-0.1309l-0.1386 0.5195c-0.072 0.267 0.0865 0.5394 0.3535 0.6114 0.268 0.072 0.5403-0.0866 0.6113-0.3536l0.2598-0.9648c0.0486-0.1811-0.0146-0.36-0.1387-0.4824zm2 0-0.1211 0.4472c-0.071 0.267-0.3433 0.4256-0.6113 0.3536-0.0865-0.0233-0.1554-0.0726-0.2149-0.1309l-0.1386 0.5195c-0.072 0.267 0.0865 0.5394 0.3535 0.6114 0.268 0.072 0.5403-0.0866 0.6113-0.3536l0.2598-0.9648c0.0486-0.1811-0.0146-0.36-0.1387-0.4824z" fill="#fff" opacity=".2"/>
 <path id="path25" d="m10 3c-2.2091 0-4 1.7909-4 4-1.6569 0-3 1.3431-3 3 0 0.1711 0.02328 0.3368 0.05078 0.5 0.23886-1.4179 1.4634-2.5 2.9492-2.5 0-2.2091 1.7909-4 4-4 1.681 0 3.1267 1.0307 3.7188 2.5 0.349-0.2981 0.7862-0.5 1.2812-0.5 1.105 0 2 0.8954 2 2 1.4859 0 2.7104 1.0821 2.9492 2.5 0.0275-0.1632 0.0508-0.3289 0.0508-0.5 0-1.6569-1.343-3-3-3 0-1.1046-0.895-2-2-2-0.495 0-0.9322 0.2019-1.2812 0.5-0.5921-1.4693-2.0378-2.5-3.7188-2.5zm-3.5332 11.072c-0.1931 0.027-0.36027 0.1672-0.41407 0.3672l-0.25976 0.9648c-0.04862 0.1817 0.01361 0.362 0.13867 0.4844l0.12109-0.4492c0.0538-0.2 0.22097-0.3402 0.41407-0.3672 0.0643-9e-3 0.13036-0.0044 0.19726 0.0136 0.08661 0.0233 0.15532 0.0726 0.21485 0.1309l0.13867-0.5195c0.0717-0.267-0.08602-0.5394-0.35352-0.6114-0.0669-0.018-0.13296-0.0226-0.19726-0.0136zm2 0c-0.1931 0.027-0.36027 0.1672-0.41407 0.3672l-0.25976 0.9648c-0.04862 0.1817 0.01361 0.362 0.13867 0.4844l0.12109-0.4492c0.0538-0.2 0.22097-0.3402 0.41407-0.3672 0.0643-9e-3 0.13036-0.0044 0.19726 0.0136 0.08661 0.0233 0.15532 0.0726 0.21485 0.1309l0.13867-0.5195c0.0717-0.267-0.08602-0.5394-0.35352-0.6114-0.0669-0.018-0.13296-0.0226-0.19726-0.0136zm2 0c-0.193 0.027-0.3601 0.1672-0.4141 0.3672l-0.25973 0.9648c-0.04862 0.1817 0.01377 0.362 0.13867 0.4844l0.12106-0.4492c0.054-0.2 0.2211-0.3402 0.4141-0.3672 0.064-9e-3 0.1303-0.0044 0.1973 0.0136 0.0867 0.0233 0.1553 0.0726 0.2148 0.1309l0.1387-0.5195c0.071-0.267-0.0855-0.5394-0.3535-0.6114-0.067-0.018-0.1333-0.0226-0.1973-0.0136zm2 0c-0.193 0.027-0.3601 0.1672-0.4141 0.3672l-0.2597 0.9648c-0.0489 0.1817 0.0137 0.362 0.1386 0.4844l0.1211-0.4492c0.054-0.2 0.2211-0.3402 0.4141-0.3672 0.064-9e-3 0.1303-0.0044 0.1973 0.0136 0.0867 0.0233 0.1553 0.0726 0.2148 0.1309l0.1387-0.5195c0.071-0.267-0.0855-0.5394-0.3535-0.6114-0.067-0.018-0.1333-0.0226-0.1973-0.0136zm2 0c-0.193 0.027-0.3601 0.1672-0.4141 0.3672l-0.2597 0.9648c-0.0489 0.1817 0.0137 0.362 0.1386 0.4844l0.1211-0.4492c0.054-0.2 0.2211-0.3402 0.4141-0.3672 0.064-9e-3 0.1303-0.0044 0.1973 0.0136 0.0867 0.0233 0.1553 0.0726 0.2148 0.1309l0.1387-0.5195c0.071-0.267-0.0855-0.5394-0.3535-0.6114-0.067-0.018-0.1333-0.0226-0.1973-0.0136zm2 0c-0.193 0.027-0.3601 0.1672-0.4141 0.3672l-0.2597 0.9648c-0.0489 0.1817 0.0137 0.362 0.1386 0.4844l0.1211-0.4492c0.054-0.2 0.2211-0.3402 0.4141-0.3672 0.064-9e-3 0.1303-0.0044 0.1973 0.0136 0.0867 0.0233 0.1553 0.0726 0.2148 0.1309l0.1387-0.5195c0.071-0.267-0.0855-0.5394-0.3535-0.6114-0.067-0.018-0.1333-0.0226-0.1973-0.0136zm-10.777 2.8984c-0.1931 0.026-0.36026 0.1642-0.41406 0.3652l-0.25781 0.9668c-0.04849 0.1806 0.01434 0.3588 0.13867 0.4805l0.11914-0.4473c0.0538-0.201 0.22096-0.3392 0.41406-0.3652 0.0643-9e-3 0.13232-0.0063 0.19922 0.0117 0.08675 0.0234 0.15527 0.0721 0.21485 0.1309l0.13867-0.5176c0.0717-0.268-0.08602-0.5413-0.35352-0.6133-0.0669-0.018-0.13492-0.0207-0.19922-0.0117zm2 0c-0.1931 0.026-0.36026 0.1642-0.41406 0.3652l-0.25781 0.9668c-0.04849 0.1806 0.01434 0.3588 0.13867 0.4805l0.11914-0.4473c0.0538-0.201 0.22096-0.3392 0.41406-0.3652 0.0643-9e-3 0.13232-0.0063 0.19922 0.0117 0.08675 0.0234 0.15527 0.0721 0.21485 0.1309l0.13867-0.5176c0.0717-0.268-0.08602-0.5413-0.35352-0.6133-0.0669-0.018-0.13492-0.0207-0.19922-0.0117zm2 0c-0.1931 0.026-0.36026 0.1642-0.41406 0.3652l-0.25781 0.9668c-0.04849 0.1806 0.01434 0.3588 0.13867 0.4805l0.11914-0.4473c0.0538-0.201 0.22096-0.3392 0.41406-0.3652 0.0643-9e-3 0.13232-0.0063 0.19922 0.0117 0.08668 0.0234 0.15523 0.0721 0.21483 0.1309l0.1387-0.5176c0.072-0.268-0.0862-0.5413-0.35353-0.6133-0.0669-0.018-0.13492-0.0207-0.19922-0.0117zm2 0c-0.193 0.026-0.3601 0.1642-0.4141 0.3652l-0.2578 0.9668c-0.0489 0.1814 0.0132 0.3607 0.1386 0.4825l0.1192-0.4493c0.054-0.201 0.2211-0.3392 0.4141-0.3652 0.065-9e-3 0.1322-0.0063 0.1992 0.0117 0.0866 0.0234 0.1553 0.0721 0.2148 0.1309l0.1387-0.5176c0.072-0.268-0.0865-0.5413-0.3535-0.6133-0.067-0.018-0.1342-0.0207-0.1992-0.0117zm2 0c-0.193 0.026-0.3601 0.1642-0.4141 0.3652l-0.2578 0.9668c-0.0487 0.1806 0.0144 0.3588 0.1386 0.4805l0.1192-0.4473c0.054-0.201 0.2211-0.3392 0.4141-0.3652 0.065-9e-3 0.1322-0.0063 0.1992 0.0117 0.0866 0.0234 0.1553 0.0721 0.2148 0.1309l0.1387-0.5176c0.072-0.268-0.0865-0.5413-0.3535-0.6133-0.067-0.018-0.1342-0.0207-0.1992-0.0117zm2 0c-0.193 0.026-0.3601 0.1642-0.4141 0.3652l-0.2578 0.9668c-0.0487 0.1806 0.0144 0.3588 0.1386 0.4805l0.1192-0.4473c0.054-0.201 0.2211-0.3392 0.4141-0.3652 0.065-9e-3 0.1322-0.0063 0.1992 0.0117 0.0866 0.0234 0.1553 0.0721 0.2148 0.1309l0.1387-0.5176c0.072-0.268-0.0865-0.5413-0.3535-0.6133-0.067-0.018-0.1342-0.0207-0.1992-0.0117z" opacity=".3"/>
</svg>
