<?xml version="1.0" encoding="UTF-8"?>
<svg id="svg2408" width="96" height="96" version="1.0" xmlns="http://www.w3.org/2000/svg" xmlns:cc="http://creativecommons.org/ns#" xmlns:dc="http://purl.org/dc/elements/1.1/" xmlns:rdf="http://www.w3.org/1999/02/22-rdf-syntax-ns#" xmlns:xlink="http://www.w3.org/1999/xlink">
 <defs id="defs2410">
  <linearGradient id="ButtonShadow" x1="45.448" x2="45.448" y1="92.54" y2="7.0165" gradientTransform="scale(1.0059 .99417)" gradientUnits="userSpaceOnUse">
   <stop id="stop3750" offset="0"/>
   <stop id="stop3752" stop-opacity=".58824" offset="1"/>
  </linearGradient>
  <linearGradient id="linearGradient3706" x1="48" x2="48" y1="90" y2="5.9877" gradientUnits="userSpaceOnUse">
   <stop id="stop3702" stop-color="#e6e6e6" offset="0"/>
   <stop id="stop3704" stop-color="#f5f5f5" offset="1"/>
  </linearGradient>
  <filter id="filter3174" color-interpolation-filters="sRGB">
   <feGaussianBlur id="feGaussianBlur3176" stdDeviation="1.71"/>
  </filter>
  <linearGradient id="ButtonShadow-0" x1="45.448" x2="45.448" y1="92.54" y2="7.0165" gradientTransform="matrix(1.0059 0 0 .99417 100 0)" gradientUnits="userSpaceOnUse">
   <stop id="stop3750-8" offset="0"/>
   <stop id="stop3752-5" stop-opacity=".58824" offset="1"/>
  </linearGradient>
  <linearGradient id="linearGradient3780" x1="32.251" x2="32.251" y1="6.1317" y2="90.239" gradientTransform="matrix(1.0238 0 0 1.0119 -1.1429 -98.071)" gradientUnits="userSpaceOnUse" xlink:href="#ButtonShadow-0"/>
  <linearGradient id="linearGradient3721" x1="32.251" x2="32.251" y1="6.1317" y2="90.239" gradientTransform="translate(0,-97)" gradientUnits="userSpaceOnUse" xlink:href="#ButtonShadow-0"/>
  <radialGradient id="radialGradient2886" cx="48" cy="90.172" r="42" gradientTransform="matrix(1.1573 0 0 .99591 -7.551 .19713)" gradientUnits="userSpaceOnUse">
   <stop id="stop3739-6" stop-color="#fff" offset="0"/>
   <stop id="stop3741-0" stop-color="#fff" stop-opacity="0" offset="1"/>
  </radialGradient>
  <linearGradient id="linearGradient3923" x1="36.357" x2="36.357" y1="6" y2="63.893" gradientUnits="userSpaceOnUse">
   <stop id="stop3739-9" stop-color="#fff" offset="0"/>
   <stop id="stop3741-3" stop-color="#fff" stop-opacity="0" offset="1"/>
  </linearGradient>
  <clipPath id="clipPath3613">
   <rect id="rect3615" x="6" y="6" width="84" height="84" rx="6" ry="6" fill="#fff"/>
  </clipPath>
  <filter id="filter3794" x="-.192" y="-.192" width="1.384" height="1.384" color-interpolation-filters="sRGB">
   <feGaussianBlur id="feGaussianBlur3796" stdDeviation="5.28"/>
  </filter>
  <linearGradient id="linearGradient3868" x1="48" x2="48" y1="20.221" y2="138.66" gradientUnits="userSpaceOnUse">
   <stop id="stop3739-2" stop-color="#fff" offset="0"/>
   <stop id="stop3741-1" stop-color="#fff" stop-opacity="0" offset="1"/>
  </linearGradient>
 </defs>
 <metadata id="metadata2413">
  <rdf:RDF>
   <cc:Work rdf:about="">
    <dc:format>image/svg+xml</dc:format>
    <dc:type rdf:resource="http://purl.org/dc/dcmitype/StillImage"/>
    <dc:title/>
   </cc:Work>
  </rdf:RDF>
 </metadata>
 <g id="layer2" display="none">
  <rect id="rect3745" x="5" y="7" width="86" height="85" rx="6" ry="6" fill="url(#ButtonShadow)" filter="url(#filter3174)" opacity=".9"/>
 </g>
 <g id="layer6">
  <path id="path3786" transform="scale(1,-1)" d="m12-95.031c-5.5111 0-10.031 4.5202-10.031 10.031v71c0 5.5111 4.5202 10.031 10.031 10.031h72c5.5111 0 10.031-4.5202 10.031-10.031v-71c0-5.5111-4.5202-10.031-10.031-10.031h-72z" fill="url(#linearGradient3780)" opacity=".08"/>
  <path id="path3778" transform="scale(1,-1)" d="m12-94.031c-4.9716 0-9.0312 4.0596-9.0312 9.0312v71c0 4.9716 4.0596 9.0312 9.0312 9.0312h72c4.9716 0 9.0312-4.0596 9.0312-9.0312v-71c0-4.9716-4.0596-9.0312-9.0312-9.0312h-72z" fill="url(#linearGradient3780)" opacity=".1"/>
  <path id="path3770" transform="scale(1,-1)" d="m12-93c-4.4091 0-8 3.5909-8 8v71c0 4.4091 3.5909 8 8 8h72c4.4091 0 8-3.5909 8-8v-71c0-4.4091-3.5909-8-8-8h-72z" fill="url(#linearGradient3780)" opacity=".2"/>
  <rect id="rect3723" transform="scale(1,-1)" x="5" y="-92" width="86" height="85" rx="7" ry="7" fill="url(#linearGradient3780)" opacity=".3"/>
  <rect id="rect3716" transform="scale(1,-1)" x="6" y="-91" width="84" height="84" rx="6" ry="6" fill="url(#linearGradient3721)" opacity=".45"/>
 </g>
 <g id="layer1">
  <rect id="rect2419" x="6" y="6" width="84" height="84" rx="6" ry="6" fill="url(#linearGradient3706)"/>
  <path id="rect3728" d="m12 6c-3.324 0-6 2.676-6 6v2 68 2c0 0.33472 0.04135 0.6507 0.09375 0.96875 0.0487 0.2956 0.09704 0.59692 0.1875 0.875 0.0099 0.03038 0.02089 0.0636 0.03125 0.09375 0.09886 0.28777 0.23488 0.54745 0.375 0.8125 0.14459 0.27351 0.31562 0.53562 0.5 0.78125s0.37378 0.47347 0.59375 0.6875c0.43995 0.42806 0.94291 0.81453 1.5 1.0938 0.27854 0.13961 0.57347 0.24695 0.875 0.34375-0.2562-0.10022-0.48671-0.23627-0.71875-0.375-0.0074-0.0044-0.02387 0.0045-0.03125 0-0.03193-0.0193-0.06229-0.04251-0.09375-0.0625-0.1204-0.0767-0.23102-0.16351-0.34375-0.25-0.10617-0.0808-0.21328-0.16111-0.3125-0.25-0.17793-0.16143-0.34746-0.34539-0.5-0.53125-0.10758-0.13026-0.21839-0.26528-0.3125-0.40625-0.02509-0.03838-0.03845-0.08587-0.0625-0.125-0.06476-0.10303-0.13023-0.20452-0.1875-0.3125-0.10101-0.19471-0.20568-0.4157-0.28125-0.625-8e-3 -0.02181-0.02359-0.04055-0.03125-0.0625-0.03183-0.09195-0.0358-0.18683-0.0625-0.28125-0.030332-0.10662-0.070389-0.20303-0.09375-0.3125-0.072879-0.34151-0.125-0.6982-0.125-1.0625v-2-68-2c0-2.7818 2.2182-5 5-5h2 68 2c2.7818 0 5 2.2182 5 5v2 68 2c0 0.3643-0.05212 0.72099-0.125 1.0625-0.04415 0.20689-0.08838 0.39766-0.15625 0.59375-0.0077 0.02195-0.0233 0.04069-0.03125 0.0625-0.06274 0.17374-0.13838 0.36745-0.21875 0.53125-0.04158 0.0828-0.07904 0.16995-0.125 0.25-0.0546 0.09721-0.12677 0.18835-0.1875 0.28125-0.09411 0.14096-0.20492 0.276-0.3125 0.40625-0.14317 0.17445-0.30314 0.347-0.46875 0.5-0.01117 0.0102-0.01998 0.02115-0.03125 0.03125-0.13839 0.12556-0.28509 0.23444-0.4375 0.34375-0.10257 0.07315-0.20432 0.15336-0.3125 0.21875-0.0074 0.0045-0.02384-0.0044-0.03125 0-0.23204 0.13873-0.46255 0.27478-0.71875 0.375 0.30153-0.0968 0.59646-0.20414 0.875-0.34375 0.55709-0.27922 1.0601-0.66569 1.5-1.0938 0.21997-0.21403 0.40937-0.44186 0.59375-0.6875s0.35541-0.50774 0.5-0.78125c0.14012-0.26505 0.27614-0.52473 0.375-0.8125 0.01041-0.03078 0.02133-0.06274 0.03125-0.09375 0.09046-0.27808 0.1388-0.5794 0.1875-0.875 0.0524-0.31805 0.09375-0.63403 0.09375-0.96875v-2-68-2c0-3.324-2.676-6-6-6h-72z" fill="url(#linearGradient3923)" opacity=".5"/>
  <path id="path3615" d="m12 90c-3.324 0-6-2.676-6-6v-2-68-2c0-0.33472 0.04135-0.6507 0.09375-0.96875 0.0487-0.2956 0.09704-0.59692 0.1875-0.875 0.00988-0.03038 0.020892-0.0636 0.03125-0.09375 0.098865-0.28777 0.23488-0.54745 0.375-0.8125 0.14459-0.27351 0.31562-0.53562 0.5-0.78125s0.37378-0.47347 0.59375-0.6875c0.43995-0.42806 0.94291-0.81453 1.5-1.0938 0.27854-0.13961 0.57347-0.24695 0.875-0.34375-0.2562 0.10022-0.48671 0.23627-0.71875 0.375-0.00741 0.0044-0.023866-0.0045-0.03125 0-0.031933 0.0193-0.062293 0.04251-0.09375 0.0625-0.1204 0.0767-0.23102 0.16351-0.34375 0.25-0.10617 0.0808-0.21328 0.16111-0.3125 0.25-0.17793 0.16143-0.34746 0.34539-0.5 0.53125-0.10758 0.13026-0.21839 0.26528-0.3125 0.40625-0.025089 0.03838-0.038446 0.08587-0.0625 0.125-0.064763 0.10303-0.13023 0.20452-0.1875 0.3125-0.10101 0.19471-0.20567 0.4157-0.28125 0.625-0.00796 0.02181-0.023589 0.04055-0.03125 0.0625-0.031825 0.09195-0.035804 0.18683-0.0625 0.28125-0.030332 0.10662-0.070389 0.20303-0.09375 0.3125-0.072879 0.34151-0.125 0.6982-0.125 1.0625v2 68 2c0 2.7818 2.2182 5 5 5h2 68 2c2.7818 0 5-2.2182 5-5v-2-68-2c0-0.3643-0.05212-0.72099-0.125-1.0625-0.04415-0.20689-0.08838-0.39766-0.15625-0.59375-0.0077-0.02195-0.0233-0.04069-0.03125-0.0625-0.06274-0.17374-0.13838-0.36745-0.21875-0.53125-0.04158-0.0828-0.07904-0.16995-0.125-0.25-0.0546-0.09721-0.12677-0.18835-0.1875-0.28125-0.09411-0.14096-0.20492-0.276-0.3125-0.40625-0.14317-0.17445-0.30314-0.347-0.46875-0.5-0.01117-0.0102-0.01998-0.02115-0.03125-0.03125-0.13839-0.12556-0.28509-0.23444-0.4375-0.34375-0.10257-0.07315-0.20432-0.15336-0.3125-0.21875-0.0074-0.0045-0.02384 0.0044-0.03125 0-0.23204-0.13873-0.46255-0.27478-0.71875-0.375 0.30153 0.0968 0.59646 0.20414 0.875 0.34375 0.55709 0.27922 1.0601 0.66569 1.5 1.0938 0.21997 0.21403 0.40937 0.44186 0.59375 0.6875s0.35541 0.50774 0.5 0.78125c0.14012 0.26505 0.27614 0.52473 0.375 0.8125 0.01041 0.03078 0.02133 0.06274 0.03125 0.09375 0.09046 0.27808 0.1388 0.5794 0.1875 0.875 0.0524 0.31805 0.09375 0.63403 0.09375 0.96875v2 68 2c0 3.324-2.676 6-6 6h-72z" fill="url(#radialGradient2886)" opacity=".4"/>
  <rect id="rect3654" x="-94" y="6" width="84" height="84" rx="6" ry="6" fill="#f0f"/>
  <rect id="rect3797" x="112" y="8" width="16" height="16" color="#000000" fill="#fff" stroke="#000" stroke-dashoffset="8.6" stroke-linecap="round" stroke-width=".5"/>
  <text id="text3799" x="131.39261" y="11.969256" fill="#000000" font-family="Liberation Sans" font-size="4px" style="line-height:125%" xml:space="preserve"><tspan id="tspan3801" x="131.39261" y="11.969256">Width: 2px</tspan><tspan id="tspan3803" x="131.39261" y="16.969257">Blur: 12</tspan><tspan id="tspan3807" x="131.39261" y="21.969257">Opacity: 60</tspan></text>
  <path id="path3737" d="m48 102c-14.359 0-26 11.641-26 26s11.641 26 26 26h42v-4h-42c-12.15 0-22-9.8497-22-22s9.8497-22 22-22v-4zm0 6c-11.046 0-20 8.9543-20 20s8.9543 20 20 20h42v-4h-42c-8.8366 0-16-7.1634-16-16s7.1634-16 16-16c2.0902 0 4.0759 0.39606 5.9062 1.125l1.4688-3.7188c-2.3429-0.9272-4.8553-1.4062-7.375-1.4062zm0 6c-7.732 0-14 6.268-14 14s6.268 14 14 14h42v-4h-42c-5.5228 0-10-4.4772-10-10s4.4772-10 10-10c2.7614 0 5.2529 1.1279 7.0625 2.9375l2.8438-2.8438c-2.6255-2.6255-6.1932-4.0938-9.9062-4.0938z" color="#000000" fill="#4ca31c" opacity=".5"/>
  <path id="path3787" d="m48-74c-17.673 0-32 14.327-32 32s14.327 32 32 32h42v-6h-42c-14.359 0-26-11.641-26-26s11.641-26 26-26v-6zm0 8c-13.255 0-24 10.745-24 24s10.745 24 24 24h42v-6h-42c-9.9411 0-18-8.0589-18-18s8.0589-18 18-18c2.4155 0 4.7079 0.48077 6.8125 1.3438l2.2812-5.5625c-2.8877-1.1831-5.9731-1.7812-9.0938-1.7812zm0 8c-8.8366 0-16 7.1634-16 16s7.1634 16 16 16h42v-6h-42c-5.5228 0-10-4.4772-10-10s4.4772-10 10-10c2.7614 0 5.2529 1.1279 7.0625 2.9375l4.25-4.25c-3.0006-3.0006-7.069-4.6875-11.312-4.6875z" color="#000000" fill="#4ca31c" opacity=".5"/>
 </g>
 <g id="layer3">
  <rect id="rect3171" x="15" y="15" width="66" height="66" rx="12" ry="12" clip-path="url(#clipPath3613)" fill="url(#linearGradient3868)" filter="url(#filter3794)" opacity=".5" stroke="#fff" stroke-linecap="round" stroke-width=".5"/>
 </g>
 <g id="layer4">
  <path id="path3764" d="m48 16c-17.673 0-32 14.327-32 32s14.327 32 32 32h42v-6h-42c-14.359 0-26-11.641-26-26s11.641-26 26-26v-6z" color="#000000" fill="#4ca31c" opacity=".5"/>
  <path id="path3760" d="m48 24c-13.255 0-24 10.745-24 24s10.745 24 24 24h42v-6h-42c-9.9411 0-18-8.0589-18-18s8.0589-18 18-18c2.4155 0 4.7079 0.48077 6.8125 1.3438l2.2812-5.5625c-2.8877-1.1831-5.9731-1.7812-9.0938-1.7812z" color="#000000" fill="#4ca31c" opacity=".75"/>
  <path id="path3756" d="m48 32c-8.8366 0-16 7.1634-16 16s7.1634 16 16 16h42v-6h-42c-5.5228 0-10-4.4772-10-10s4.4772-10 10-10c2.7614 0 5.2529 1.1279 7.0625 2.9375l4.25-4.25c-3.0006-3.0006-7.069-4.6875-11.312-4.6875z" color="#000000" fill="#4ca31c"/>
  <path id="path3804" d="m48 16c-17.673 0-32 14.327-32 32s14.327 32 32 32h42v-1h-0.96875v0.03125h-41.031c-17.154 0-31.031-13.877-31.031-31.031 0-16.822 13.369-30.414 30.062-30.938v4.0625c-14.421 0.5213-26 12.328-26 26.875 0 14.878 12.09 26.969 26.969 26.969h41.031v0.03125h0.96875v-1h-42c-14.359 0-26-11.641-26-26s11.641-26 26-26v-6zm0 8c-13.255 0-24 10.745-24 24s10.745 24 24 24h42v-1h-0.96875v0.03125h-41.031c-12.736 0-23.031-10.295-23.031-23.031s10.295-23.031 23.031-23.031c2.6797 0 5.3014 0.49814 7.8125 1.4062l-1.5625 3.8125c-1.9626-0.69051-4.0501-1.1562-6.25-1.1562-10.46 0-18.969 8.5087-18.969 18.969s8.5087 18.969 18.969 18.969h41.031v0.03125h0.96875v-1h-42c-9.9411 0-18-8.0589-18-18s8.0589-18 18-18c2.4155 0 4.7079 0.48077 6.8125 1.3438l2.2812-5.5625c-2.8877-1.1831-5.9731-1.7812-9.0938-1.7812zm0 8c-8.8366 0-16 7.1634-16 16s7.1634 16 16 16h42v-1h-0.96875v0.03125h-41.031c-8.3176 0-15.031-6.7136-15.031-15.031s6.7136-15.031 15.031-15.031c3.6593 0 7.1404 1.383 9.875 3.7812l-2.9375 2.9375c-1.8992-1.5883-4.2692-2.6562-6.9375-2.6562-6.0418 0-10.969 4.927-10.969 10.969s4.927 10.969 10.969 10.969h41.031v0.03125h0.96875v-1h-42c-5.5228 0-10-4.4772-10-10s4.4772-10 10-10c2.7614 0 5.2529 1.1279 7.0625 2.9375l4.25-4.25c-3.0006-3.0006-7.069-4.6875-11.312-4.6875z" color="#000000" fill="#2c5e10" opacity=".15"/>
  <path id="path3794" d="m48 16c-17.673 0-32 14.327-32 32 0 0.16667-0.0025 0.33394 0 0.5 0.26671-17.443 14.494-31.5 32-31.5v-1zm0 8c-13.255 0-24 10.745-24 24 0 0.16558-0.0033 0.33522 0 0.5 0.26384-13.026 10.911-23.5 24-23.5 2.9984 0 5.9608 0.56355 8.75 1.6562l0.34375-0.875c-2.8877-1.1831-5.9731-1.7812-9.0938-1.7812zm0 8c-8.8366 0-16 7.1634-16 16 0 0.16998 0.02599 0.3313 0.03125 0.5 0.2683-8.6015 7.3022-15.5 15.969-15.5 4.0076 0 7.8379 1.5239 10.781 4.2188l0.53125-0.53125c-3.0006-3.0006-7.069-4.6875-11.312-4.6875zm-26 16.5c-0.0031 0.16613 0 0.33312 0 0.5 0 14.359 11.641 26 26 26h42v-1h-42c-14.193 0-25.734-11.371-26-25.5zm8.0312 0c-0.004606 0.16748-0.03125 0.33141-0.03125 0.5 0 9.9411 8.0589 18 18 18h42v-1h-42c-9.7725 0-17.702-7.792-17.969-17.5zm8 0c-0.008129 0.16536-0.03125 0.33262-0.03125 0.5 0 5.5228 4.4772 10 10 10h42v-1h-42c-5.3555 0-9.7087-4.209-9.9688-9.5z" color="#000000" fill="#2b5c10" opacity=".2"/>
  <path id="path3799" d="m48 22c-14.359 0-26 11.641-26 26 0 0.16688-0.0031 0.33387 0 0.5 0.26623-14.129 11.807-25.5 26-25.5v-1zm8.75 4.6562-1.9375 4.6875c-2.1046-0.86298-4.397-1.3438-6.8125-1.3438-9.9411 0-18 8.0589-18 18 0 0.16859 0.02664 0.33252 0.03125 0.5 0.26696-9.708 8.1962-17.5 17.969-17.5 2.4155 0 4.7079 0.48077 6.8125 1.3438l2.2812-5.5625c-0.11316-0.04636-0.23-0.08044-0.34375-0.125zm2.0312 10.562-3.7188 3.7188c-1.8096-1.8096-4.3011-2.9375-7.0625-2.9375-5.5228 0-10 4.4772-10 10 0 0.16738 0.02312 0.33464 0.03125 0.5 0.26009-5.291 4.6133-9.5 9.9688-9.5 2.7614 0 5.2529 1.1279 7.0625 2.9375l4.25-4.25c-0.16676-0.16676-0.35804-0.31017-0.53125-0.46875zm-42.781 11.281c-0.0025 0.16606 0 0.33333 0 0.5 0 17.673 14.327 32 32 32h42v-1h-42c-17.506 0-31.733-14.057-32-31.5zm8 0c-0.0033 0.16478 0 0.33442 0 0.5 0 13.255 10.745 24 24 24h42v-1h-42c-13.089 0-23.736-10.474-24-23.5zm8.0312 0c-0.005262 0.1687-0.03125 0.33002-0.03125 0.5 0 8.8366 7.1634 16 16 16h42v-1h-42c-8.6666 0-15.7-6.8985-15.969-15.5z" color="#000000" fill="#fff" opacity=".6"/>
 </g>
</svg>
