<?xml version="1.0" encoding="UTF-8"?>
<svg id="svg2408" width="96" height="96" version="1.0" xmlns="http://www.w3.org/2000/svg" xmlns:cc="http://creativecommons.org/ns#" xmlns:dc="http://purl.org/dc/elements/1.1/" xmlns:rdf="http://www.w3.org/1999/02/22-rdf-syntax-ns#" xmlns:xlink="http://www.w3.org/1999/xlink">
 <defs id="defs2410">
  <linearGradient id="linearGradient4384">
   <stop id="stop4386" stop-color="#fff" offset="0"/>
   <stop id="stop4388" stop-color="#fff" stop-opacity="0" offset="1"/>
  </linearGradient>
  <linearGradient id="ButtonShadow" x1="45.448" x2="45.448" y1="92.54" y2="7.0165" gradientTransform="scale(1.0059 .99417)" gradientUnits="userSpaceOnUse">
   <stop id="stop3750" offset="0"/>
   <stop id="stop3752" stop-opacity=".58824" offset="1"/>
  </linearGradient>
  <filter id="filter3174">
   <feGaussianBlur id="feGaussianBlur3176" stdDeviation="1.71"/>
  </filter>
  <filter id="filter3794" x="-.192" y="-.192" width="1.384" height="1.384">
   <feGaussianBlur id="feGaussianBlur3796" stdDeviation="5.28"/>
  </filter>
  <linearGradient id="linearGradient3613" x1="48" x2="48" y1="20.221" y2="138.66" gradientUnits="userSpaceOnUse">
   <stop id="stop3739" stop-color="#fff" offset="0"/>
   <stop id="stop3741" stop-color="#fff" stop-opacity="0" offset="1"/>
  </linearGradient>
  <linearGradient id="linearGradient3617" x1="48" x2="48" y1="88" y2="5.9877" gradientUnits="userSpaceOnUse">
   <stop id="stop3201-20" stop-color="#e5a824" offset="0"/>
   <stop id="stop3203-2" stop-color="#ffe680" offset="1"/>
  </linearGradient>
  <linearGradient id="ButtonShadow-0" x1="45.448" x2="45.448" y1="92.54" y2="7.0165" gradientTransform="matrix(1.0059 0 0 .99417 100 0)" gradientUnits="userSpaceOnUse">
   <stop id="stop3750-8" offset="0"/>
   <stop id="stop3752-5" stop-opacity=".58824" offset="1"/>
  </linearGradient>
  <linearGradient id="linearGradient3780" x1="32.251" x2="32.251" y1="6.1317" y2="90.239" gradientTransform="matrix(1.0238 0 0 1.0119 -1.1429 -98.071)" gradientUnits="userSpaceOnUse" xlink:href="#ButtonShadow-0"/>
  <linearGradient id="linearGradient3721" x1="32.251" x2="32.251" y1="6.1317" y2="90.239" gradientTransform="translate(0,-97)" gradientUnits="userSpaceOnUse" xlink:href="#ButtonShadow-0"/>
  <clipPath id="clipPath4355">
   <rect id="rect4357" x="6" y="6" width="84" height="80" rx="6" ry="6" fill="#fff"/>
  </clipPath>
  <radialGradient id="radialGradient4375" cx="48" cy="87.792" r="42" gradientTransform="matrix(1 -6.7115e-8 8.4282e-8 1.2558 110 -24.506)" gradientUnits="userSpaceOnUse">
   <stop id="stop4369" stop-color="#fff" stop-opacity=".71756" offset="0"/>
   <stop id="stop4371" stop-color="#fff" offset="1"/>
  </radialGradient>
  <linearGradient id="linearGradient4390" x1="48" x2="48" y1="88" y2="-40" gradientTransform="matrix(1,0,0,-1,0,92)" gradientUnits="userSpaceOnUse" xlink:href="#linearGradient4384"/>
  <linearGradient id="linearGradient4429" x1="48" x2="112.12" y1="82" y2="82.455" gradientUnits="userSpaceOnUse" spreadMethod="reflect" xlink:href="#linearGradient4384"/>
  <linearGradient id="linearGradient3228" x1="90" x2="48" y1="88" y2="88" gradientUnits="userSpaceOnUse" spreadMethod="reflect">
   <stop id="stop3894" stop-opacity=".58824" offset="0"/>
   <stop id="stop3896" stop-opacity=".47059" offset=".1178"/>
   <stop id="stop3898" stop-opacity=".39216" offset=".2381"/>
   <stop id="stop3900" stop-opacity=".31373" offset="1"/>
  </linearGradient>
  <linearGradient id="linearGradient3435">
   <stop id="stop3437" stop-color="#ededed" offset="0"/>
   <stop id="stop3439" stop-color="#b0b0b0" offset="1"/>
  </linearGradient>
  <linearGradient id="linearGradient3604">
   <stop id="stop3606" stop-color="#2f2f2f" offset="0"/>
   <stop id="stop3608" stop-color="#fff" offset=".43731"/>
   <stop id="stop3610" stop-color="#979797" offset=".62138"/>
   <stop id="stop3612" stop-color="#505050" offset=".77232"/>
   <stop id="stop3614" stop-color="#e6e6e6" offset="1"/>
  </linearGradient>
  <linearGradient id="linearGradient3290">
   <stop id="stop3292" stop-color="#fff" offset="0"/>
   <stop id="stop3304" stop-color="#8c8c8c" offset=".48973"/>
   <stop id="stop3306" stop-color="#cfcfcf" offset=".50045"/>
   <stop id="stop3298" stop-color="#fff" offset=".62277"/>
   <stop id="stop3300" stop-color="#c8c8c8" offset=".81696"/>
   <stop id="stop3294" stop-color="#505050" offset="1"/>
  </linearGradient>
  <linearGradient id="linearGradient3360" x1="69" x2="75" y1="59" y2="59" gradientTransform="translate(-5,8)" gradientUnits="userSpaceOnUse">
   <stop id="stop3356" stop-color="#b4b4b4" offset="0"/>
   <stop id="stop3362" stop-color="#646464" offset=".20467"/>
   <stop id="stop3364" stop-color="#fff" offset=".49568"/>
   <stop id="stop3358" stop-color="#3c3c3c" offset="1"/>
  </linearGradient>
  <linearGradient id="linearGradient4591" x1="69" x2="73" y1="54" y2="54" gradientTransform="translate(-5,-38.5)" gradientUnits="userSpaceOnUse" xlink:href="#linearGradient3290"/>
  <linearGradient id="linearGradient4594" x1="69" x2="73" y1="54" y2="54" gradientTransform="translate(-5,-34.5)" gradientUnits="userSpaceOnUse" xlink:href="#linearGradient3290"/>
  <linearGradient id="linearGradient4597" x1="69" x2="73" y1="54" y2="54" gradientTransform="matrix(-1,0,0,1,139,-32.5)" gradientUnits="userSpaceOnUse" xlink:href="#linearGradient3604"/>
  <linearGradient id="linearGradient4600" x1="69" x2="73" y1="54" y2="54" gradientTransform="translate(-5,-30.5)" gradientUnits="userSpaceOnUse" xlink:href="#linearGradient3290"/>
  <linearGradient id="linearGradient4603" x1="69" x2="73" y1="54" y2="54" gradientTransform="matrix(-1,0,0,1,139,-28.5)" gradientUnits="userSpaceOnUse" xlink:href="#linearGradient3604"/>
  <linearGradient id="linearGradient4606" x1="69" x2="73" y1="54" y2="54" gradientTransform="translate(-5,-26.5)" gradientUnits="userSpaceOnUse" xlink:href="#linearGradient3290"/>
  <linearGradient id="linearGradient4609" x1="69" x2="73" y1="54" y2="54" gradientTransform="matrix(-1,0,0,1,139,-24.5)" gradientUnits="userSpaceOnUse" xlink:href="#linearGradient3604"/>
  <linearGradient id="linearGradient4612" x1="69" x2="73" y1="54" y2="54" gradientTransform="translate(-5,-22.5)" gradientUnits="userSpaceOnUse" xlink:href="#linearGradient3290"/>
  <linearGradient id="linearGradient4615" x1="69" x2="73" y1="54" y2="54" gradientTransform="matrix(-1,0,0,1,139,-20.5)" gradientUnits="userSpaceOnUse" xlink:href="#linearGradient3604"/>
  <linearGradient id="linearGradient4618" x1="69" x2="73" y1="54" y2="54" gradientTransform="translate(-5,-18.5)" gradientUnits="userSpaceOnUse" xlink:href="#linearGradient3290"/>
  <linearGradient id="linearGradient4621" x1="69" x2="73" y1="54" y2="54" gradientTransform="matrix(-1,0,0,1,139,-16.5)" gradientUnits="userSpaceOnUse" xlink:href="#linearGradient3604"/>
  <linearGradient id="linearGradient4624" x1="69" x2="73" y1="54" y2="54" gradientTransform="translate(-5,-14.5)" gradientUnits="userSpaceOnUse" xlink:href="#linearGradient3290"/>
  <linearGradient id="linearGradient4627" x1="69" x2="73" y1="54" y2="54" gradientTransform="matrix(-1,0,0,1,139,-12.5)" gradientUnits="userSpaceOnUse" xlink:href="#linearGradient3604"/>
  <linearGradient id="linearGradient4630" x1="69" x2="73" y1="54" y2="54" gradientTransform="translate(-5,-10.5)" gradientUnits="userSpaceOnUse" xlink:href="#linearGradient3290"/>
  <linearGradient id="linearGradient4633" x1="69" x2="73" y1="54" y2="54" gradientTransform="matrix(-1,0,0,1,139,-8.5)" gradientUnits="userSpaceOnUse" xlink:href="#linearGradient3604"/>
  <linearGradient id="linearGradient4636" x1="69" x2="73" y1="54" y2="54" gradientTransform="translate(-5,-6.5)" gradientUnits="userSpaceOnUse" xlink:href="#linearGradient3290"/>
  <linearGradient id="linearGradient4639" x1="69" x2="73" y1="54" y2="54" gradientTransform="matrix(-1,0,0,1,139,-4.5)" gradientUnits="userSpaceOnUse" xlink:href="#linearGradient3604"/>
  <linearGradient id="linearGradient4642" x1="69" x2="73" y1="54" y2="54" gradientTransform="translate(-5,-2.5)" gradientUnits="userSpaceOnUse" xlink:href="#linearGradient3290"/>
  <linearGradient id="linearGradient4645" x1="69" x2="73" y1="54" y2="54" gradientTransform="matrix(-1 0 0 1 139 -.5)" gradientUnits="userSpaceOnUse" xlink:href="#linearGradient3604"/>
  <linearGradient id="linearGradient4648" x1="69" x2="73" y1="54" y2="54" gradientTransform="translate(-5,1.5)" gradientUnits="userSpaceOnUse" xlink:href="#linearGradient3290"/>
  <linearGradient id="linearGradient4651" x1="69" x2="73" y1="54" y2="54" gradientTransform="matrix(-1,0,0,1,139,3.5)" gradientUnits="userSpaceOnUse" xlink:href="#linearGradient3604"/>
  <linearGradient id="linearGradient4654" x1="69" x2="73" y1="54" y2="54" gradientTransform="translate(-5,5.5)" gradientUnits="userSpaceOnUse" xlink:href="#linearGradient3290"/>
  <linearGradient id="linearGradient4657" x1="69" x2="73" y1="54" y2="54" gradientTransform="matrix(-1,0,0,1,139,7.5)" gradientUnits="userSpaceOnUse" xlink:href="#linearGradient3604"/>
  <linearGradient id="linearGradient4660" x1="69" x2="73" y1="54" y2="54" gradientTransform="translate(-5,9.5)" gradientUnits="userSpaceOnUse" xlink:href="#linearGradient3290"/>
  <linearGradient id="linearGradient4663" x1="69" x2="73" y1="54" y2="54" gradientTransform="matrix(-1,0,0,1,139,11.5)" gradientUnits="userSpaceOnUse" xlink:href="#linearGradient3604"/>
  <linearGradient id="linearGradient4666" x1="69" x2="73" y1="54" y2="54" gradientTransform="translate(-5,13.5)" gradientUnits="userSpaceOnUse" xlink:href="#linearGradient3290"/>
  <linearGradient id="linearGradient4669" x1="69" x2="73" y1="54" y2="54" gradientTransform="matrix(-1,0,0,1,139,15.5)" gradientUnits="userSpaceOnUse" xlink:href="#linearGradient3604"/>
  <linearGradient id="linearGradient4673" x1="69" x2="73" y1="54" y2="54" gradientTransform="matrix(-1,0,0,1,139,-36.5)" gradientUnits="userSpaceOnUse" xlink:href="#linearGradient3604"/>
  <linearGradient id="linearGradient4707" x1="69" x2="75" y1="59" y2="59" gradientTransform="translate(-5,-51)" gradientUnits="userSpaceOnUse" xlink:href="#linearGradient3290"/>
  <linearGradient id="linearGradient4715" x1="69" x2="75" y1="59" y2="59" gradientTransform="translate(-1,-51)" gradientUnits="userSpaceOnUse" xlink:href="#linearGradient3435"/>
  <linearGradient id="linearGradient4725" x1="67" x2="67" y1="7" y2="13" gradientTransform="matrix(1 0 0 .83333 0 2.1667)" gradientUnits="userSpaceOnUse">
   <stop id="stop4721" offset="0"/>
   <stop id="stop4723" stop-opacity="0" offset="1"/>
  </linearGradient>
  <linearGradient id="linearGradient4804" x1="69.005" x2="73.026" y1="20.013" y2="16.021" gradientTransform="matrix(-.99482 0 0 1.0021 137.65 -23.054)" gradientUnits="userSpaceOnUse" xlink:href="#linearGradient3435"/>
  <linearGradient id="linearGradient4806" x1="68" x2="74.031" y1="16.021" y2="20.013" gradientTransform="matrix(.99482 0 0 1.0021 -3.6477 -23.054)" gradientUnits="userSpaceOnUse" xlink:href="#linearGradient3435"/>
  <linearGradient id="linearGradient4810" x1="69.444" x2="71.22" y1="58" y2="62" gradientTransform="matrix(1.1263 0 0 1 -12.213 -48)" gradientUnits="userSpaceOnUse">
   <stop id="stop3252" stop-color="#ededed" offset="0"/>
   <stop id="stop3254" stop-color="#b0b0b0" offset="1"/>
  </linearGradient>
  <linearGradient id="linearGradient4850" x1="63" x2="71" y1="-7" y2="-7" gradientUnits="userSpaceOnUse">
   <stop id="stop4854" stop-color="#f9f9f9" offset="0"/>
   <stop id="stop4856" stop-color="#858585" offset="1"/>
  </linearGradient>
  <clipPath id="clipPath3352">
   <path id="path3354" d="m11.688 64.375c-2.216 0-4 1.784-4 4v33.688c0 2.216 1.784 4 4 4h36.094c2.216 0 4-1.784 4-4v-33.688c0-2.216-1.784-4-4-4h-36.094zm6.875 15.625h7.2812v1.9062c-0.20514 0.35221-0.43386 0.77812-0.71875 1.2812-0.27351 0.49058-0.57577 1.0151-0.90625 1.5938-0.33049 0.57862-0.69783 1.2022-1.0625 1.8438-0.36468 0.64152-0.71769 1.296-1.0938 1.9375-0.36468 0.64151-0.74894 1.2587-1.125 1.875-0.37607 0.61636-0.74048 1.1779-1.0938 1.7188h6.1562v1.8438h-8v-1.9688l5-8.7188c0.15954-0.26414 0.28935-0.49842 0.4375-0.75 0.15954-0.25156 0.32905-0.52966 0.5-0.78125h-5.375v-1.7812zm9.4375 0h1.8125v14h-1.8125v-14zm4 0h4.2188c0.44025 1.4e-5 0.84748 0.0122 1.25 0.0625 0.40251 0.03775 0.78537 0.13032 1.125 0.28125 0.33962 0.15096 0.64209 0.3982 0.90625 0.6875 0.27672 0.28932 0.49881 0.6657 0.6875 1.1562 0.12578 0.31448 0.23092 0.64172 0.28125 0.96875 0.05031 0.31448 0.06249 0.64172 0.0625 0.96875-9e-6 0.52831-0.06782 1.0342-0.21875 1.5625-0.13837 0.51573-0.36046 0.99726-0.6875 1.4375-0.18869 0.26416-0.46679 0.49274-0.78125 0.65625-0.31447 0.16353-0.64781 0.27438-1 0.375-0.35221 0.08806-0.69772 0.14977-1.0625 0.1875-0.35221 0.02516-0.66078 0.06251-0.9375 0.0625h-2.0312v5.5938h-1.8125v-14zm1.8438 1.7812v4.7812h2.0938c0.85534 7e-6 1.5094-0.22248 2-0.625 0.50314-0.41509 0.78124-1.02 0.78125-1.8125-8e-6 -0.22641-0.02477-0.46107-0.0625-0.6875-0.03774-0.23898-0.09946-0.45498-0.1875-0.65625-0.088058-0.20125-0.20539-0.3803-0.34375-0.53125-0.13837-0.16351-0.29875-0.26827-0.5-0.34375-0.16353-0.062881-0.37343-0.093736-0.625-0.09375-0.239-0.01257-0.4489-0.03124-0.625-0.03125h-2.5312z" fill="#fff"/>
  </clipPath>
 </defs>
 <metadata id="metadata2413">
  <rdf:RDF>
   <cc:Work rdf:about="">
    <dc:format>image/svg+xml</dc:format>
    <dc:type rdf:resource="http://purl.org/dc/dcmitype/StillImage"/>
    <dc:title/>
   </cc:Work>
  </rdf:RDF>
 </metadata>
 <g id="layer2" display="none">
  <rect id="rect3745" x="5" y="7" width="86" height="85" rx="6" ry="6" fill="url(#ButtonShadow)" filter="url(#filter3174)" opacity=".9"/>
 </g>
 <g id="layer3">
  <path id="path3786" transform="scale(1,-1)" d="m12-95.031c-5.5111 0-10.031 4.5202-10.031 10.031v71c0 5.5111 4.5202 10.031 10.031 10.031h72c5.5111 0 10.031-4.5202 10.031-10.031v-71c0-5.5111-4.5202-10.031-10.031-10.031h-72z" fill="url(#linearGradient3780)" opacity=".08"/>
  <path id="path3778" transform="scale(1,-1)" d="m12-94.031c-4.9716 0-9.0312 4.0596-9.0312 9.0312v71c0 4.9716 4.0596 9.0312 9.0312 9.0312h72c4.9716 0 9.0312-4.0596 9.0312-9.0312v-71c0-4.9716-4.0596-9.0312-9.0312-9.0312h-72z" fill="url(#linearGradient3780)" opacity=".1"/>
  <path id="path3770" transform="scale(1,-1)" d="m12-93c-4.4091 0-8 3.5909-8 8v71c0 4.4091 3.5909 8 8 8h72c4.4091 0 8-3.5909 8-8v-71c0-4.4091-3.5909-8-8-8h-72z" fill="url(#linearGradient3780)" opacity=".2"/>
  <rect id="rect3723" transform="scale(1,-1)" x="5" y="-92" width="86" height="85" rx="7" ry="7" fill="url(#linearGradient3780)" opacity=".3"/>
  <rect id="rect3716" transform="scale(1,-1)" x="6" y="-91" width="84" height="84" rx="6" ry="6" fill="url(#linearGradient3721)" opacity=".45"/>
 </g>
 <g id="layer1">
  <path id="rect2419" d="m12 6c-3.324 0-6 2.676-6 6v72c0 3.324 2.676 6 6 6h72c3.324 0 6-2.676 6-6v-72c0-3.324-2.676-6-6-6h-12v2h-10v-2z" fill="url(#linearGradient3617)"/>
  <path id="rect4359" d="m120.78 6.125c-2.739 0.55765-4.7812 2.9665-4.7812 5.875v68c0 3.324 2.676 6 6 6h72c3.324 0 6-2.676 6-6v-68c0-2.9085-2.0422-5.3174-4.7812-5.875 2.2051 0.53621 3.8125 2.4908 3.8125 4.875v68c0 2.8049-2.2264 5.0312-5.0312 5.0312h-72c-2.8049 0-5.0312-2.2264-5.0312-5.0312v-68c0-2.3842 1.6074-4.3388 3.8125-4.875z" fill="url(#radialGradient4375)" opacity=".2"/>
  <path id="rect4377" d="m12 6c-3.324 0-6 2.676-6 6v68c0 3.324 2.676 6 6 6h72c3.324 0 6-2.676 6-6v-68c0-3.324-2.676-6-6-6h-12v0.96875h12c2.8049 0 5.0312 2.2264 5.0312 5.0312v68c0 2.8049-2.2264 5.0312-5.0312 5.0312h-72c-2.8049 0-5.0312-2.2264-5.0312-5.0312v-68c0-2.8049 2.2264-5.0312 5.0312-5.0312h50v-0.96875z" fill="url(#linearGradient4390)" opacity=".35"/>
  <path id="rect4414" d="m6 78v2c0 3.324 2.676 6 6 6h72c3.324 0 6-2.676 6-6v-2c0 3.324-2.676 6-6 6h-72c-3.324 0-6-2.676-6-6z" fill="url(#linearGradient4429)" opacity=".1"/>
  <path id="path4412" d="m6 100v1c0 3.324 2.676 6 6 6h72c3.324 0 6-2.676 6-6v-1c0 3.324-2.676 6-6 6h-72c-3.324 0-6-2.676-6-6z" opacity=".15"/>
  <path id="rect4884" d="m61 7v61.5c0 1.385 1.115 2.5 2.5 2.5h7c1.385 0 2.5-1.115 2.5-2.5v-61.5h-12z" color="#000000" fill="#fff" opacity=".25"/>
 </g>
 <g id="layer4">
  <path id="path3888" d="m6 80v4c0 3.324 2.676 6 6 6h72c3.324 0 6-2.676 6-6v-4c0 3.324-2.676 6-6 6h-72c-3.324 0-6-2.676-6-6z" fill="url(#linearGradient3228)"/>
  <path id="rect4345" d="m6 82v2c0 3.324 2.676 6 6 6h72c3.324 0 6-2.676 6-6v-2c0 3.324-2.676 6-6 6h-72c-3.324 0-6-2.676-6-6z" color="#000000" opacity=".1"/>
  <path id="rect4336" d="m6 83v1c0 3.324 2.676 6 6 6h72c3.324 0 6-2.676 6-6v-1c0 3.324-2.676 6-6 6h-72c-3.324 0-6-2.676-6-6z" color="#000000" opacity=".15"/>
 </g>
 <g id="layer5">
  <rect id="rect3171" x="15" y="15" width="66" height="62" rx="12" ry="12" clip-path="url(#clipPath4355)" fill="url(#linearGradient3613)" filter="url(#filter3794)" opacity=".1" stroke="#fff" stroke-linecap="round" stroke-width=".5"/>
 </g>
 <g id="layer6">
  <path id="rect3201" d="m62 6v62c0 1.108 0.892 2 2 2h6c1.108 0 2-0.892 2-2v-62h-3v2h-4v-2z" fill="#252525"/>
  <path id="path4858" d="m62 6v62c0 1.108 0.892 2 2 2h6c1.108 0 2-0.892 2-2v-62h-3v2h-4v-2h-3zm0.90625 0.90625h1.1875v1.0938a0.91905 0.91905 0 0 0 0.90625 0.90625h4a0.91905 0.91905 0 0 0 0.90625-0.90625v-1.0938h1.1875v61.094c0 0.6148-0.47896 1.0938-1.0938 1.0938h-6c-0.6148 0-1.0938-0.47896-1.0938-1.0938v-61.094z" opacity=".5"/>
  <rect id="rect3247" x="65" y="8.0473" width="4" height="56.953" fill="#4d4d4d"/>
  <rect id="rect3211" x="64" y="65" width="6" height="3" rx=".5" ry=".5" fill="url(#linearGradient3360)" stroke="#000" stroke-opacity=".5198" stroke-width=".5"/>
  <g id="g4675" stroke="#000" stroke-opacity=".5198" stroke-width=".5">
   <path id="path4458" d="m68.281 60c-0.02611 0.19028-0.06688 0.36044-0.125 0.5-0.10465 0.25128-0.22833 0.39653-0.375 0.46875-0.29334 0.14443-0.62503 0.02896-0.84375-0.21875-0.13978-0.15832-0.39804-0.27648-0.59375-0.1875-0.09786 0.04449-0.19394 0.14522-0.25 0.28125s-0.09375 0.33172-0.09375 0.65625 0.03769 0.52022 0.09375 0.65625 0.15214 0.23676 0.25 0.28125c0.19571 0.08898 0.45397-0.02918 0.59375-0.1875 0.21872-0.24771 0.55041-0.36318 0.84375-0.21875 0.14667 0.07222 0.27035 0.21747 0.375 0.46875 0.05812 0.13956 0.09889 0.30972 0.125 0.5h1.4688c0.1385 0 0.25-0.1115 0.25-0.25v-2.5c0-0.1385-0.1115-0.25-0.25-0.25h-1.4688z" fill="url(#linearGradient4669)"/>
   <path id="path4453" d="m64.25 62c-0.1385 0-0.25 0.1115-0.25 0.25v2.5c0 0.1385 0.1115 0.25 0.25 0.25h1.5c0.02518-0.20705 0.06401-0.38326 0.125-0.53125 0.10538-0.25571 0.25936-0.40196 0.40625-0.46875 0.29378-0.13357 0.59841 0.0075 0.8125 0.25 0.13516 0.15305 0.39367 0.25476 0.59375 0.15625 0.10004-0.04926 0.19468-0.14843 0.25-0.28125 0.02766-0.06641 0.04558-0.14786 0.0625-0.25v-0.75c-0.01692-0.10214-0.03484-0.18359-0.0625-0.25-0.05532-0.13282-0.14996-0.23199-0.25-0.28125-0.20008-0.09851-0.45859 0.0032-0.59375 0.15625-0.21409 0.24248-0.51872 0.38357-0.8125 0.25-0.1469-0.06679-0.30087-0.21304-0.40625-0.46875-0.060987-0.14798-0.099822-0.3242-0.125-0.53125h-1.5z" fill="url(#linearGradient4666)"/>
   <path id="path4460" d="m68.281 56c-0.02611 0.19028-0.06688 0.36044-0.125 0.5-0.10465 0.25128-0.22833 0.39653-0.375 0.46875-0.29334 0.14443-0.62503 0.02896-0.84375-0.21875-0.13978-0.15832-0.39804-0.27648-0.59375-0.1875-0.09786 0.04449-0.19394 0.14522-0.25 0.28125s-0.09375 0.33172-0.09375 0.65625 0.03769 0.52022 0.09375 0.65625 0.15214 0.23676 0.25 0.28125c0.19571 0.08898 0.45397-0.02918 0.59375-0.1875 0.21872-0.24771 0.55041-0.36318 0.84375-0.21875 0.14667 0.07222 0.27035 0.21747 0.375 0.46875 0.05812 0.13956 0.09889 0.30972 0.125 0.5h1.4688c0.1385 0 0.25-0.1115 0.25-0.25v-2.5c0-0.1385-0.1115-0.25-0.25-0.25h-1.4688z" fill="url(#linearGradient4663)"/>
   <path id="path4462" d="m64.25 58c-0.1385 0-0.25 0.1115-0.25 0.25v2.5c0 0.1385 0.1115 0.25 0.25 0.25h1.5c0.02518-0.20705 0.06401-0.38326 0.125-0.53125 0.10538-0.25571 0.25936-0.40196 0.40625-0.46875 0.29378-0.13357 0.59841 0.0075 0.8125 0.25 0.13516 0.15305 0.39367 0.25476 0.59375 0.15625 0.10004-0.04926 0.19468-0.14843 0.25-0.28125 0.02766-0.06641 0.04558-0.14786 0.0625-0.25v-0.75c-0.01692-0.10214-0.03484-0.18359-0.0625-0.25-0.05532-0.13282-0.14996-0.23199-0.25-0.28125-0.20008-0.09851-0.45859 0.0032-0.59375 0.15625-0.21409 0.24248-0.51872 0.38357-0.8125 0.25-0.1469-0.06679-0.30087-0.21304-0.40625-0.46875-0.060987-0.14798-0.099822-0.3242-0.125-0.53125h-1.5z" fill="url(#linearGradient4660)"/>
   <path id="path4468" d="m68.281 52c-0.02611 0.19028-0.06688 0.36044-0.125 0.5-0.10465 0.25128-0.22833 0.39653-0.375 0.46875-0.29334 0.14443-0.62503 0.02896-0.84375-0.21875-0.13978-0.15832-0.39804-0.27648-0.59375-0.1875-0.09786 0.04449-0.19394 0.14522-0.25 0.28125s-0.09375 0.33172-0.09375 0.65625 0.03769 0.52022 0.09375 0.65625 0.15214 0.23676 0.25 0.28125c0.19571 0.08898 0.45397-0.02918 0.59375-0.1875 0.21872-0.24771 0.55041-0.36318 0.84375-0.21875 0.14667 0.07222 0.27035 0.21747 0.375 0.46875 0.05812 0.13956 0.09889 0.30972 0.125 0.5h1.4688c0.1385 0 0.25-0.1115 0.25-0.25v-2.5c0-0.1385-0.1115-0.25-0.25-0.25h-1.4688z" fill="url(#linearGradient4657)"/>
   <path id="path4470" d="m64.25 54c-0.1385 0-0.25 0.1115-0.25 0.25v2.5c0 0.1385 0.1115 0.25 0.25 0.25h1.5c0.02518-0.20705 0.06401-0.38326 0.125-0.53125 0.10538-0.25571 0.25936-0.40196 0.40625-0.46875 0.29378-0.13357 0.59841 0.0075 0.8125 0.25 0.13516 0.15305 0.39367 0.25476 0.59375 0.15625 0.10004-0.04926 0.19468-0.14843 0.25-0.28125 0.02766-0.06641 0.04558-0.14786 0.0625-0.25v-0.75c-0.01692-0.10214-0.03484-0.18359-0.0625-0.25-0.05532-0.13282-0.14996-0.23199-0.25-0.28125-0.20008-0.09851-0.45859 0.0032-0.59375 0.15625-0.21409 0.24248-0.51872 0.38357-0.8125 0.25-0.1469-0.06679-0.30087-0.21304-0.40625-0.46875-0.060987-0.14798-0.099822-0.3242-0.125-0.53125h-1.5z" fill="url(#linearGradient4654)"/>
   <path id="path4476" d="m68.281 48c-0.02611 0.19028-0.06688 0.36044-0.125 0.5-0.10465 0.25128-0.22833 0.39653-0.375 0.46875-0.29334 0.14443-0.62503 0.02896-0.84375-0.21875-0.13978-0.15832-0.39804-0.27648-0.59375-0.1875-0.09786 0.04449-0.19394 0.14522-0.25 0.28125s-0.09375 0.33172-0.09375 0.65625 0.03769 0.52022 0.09375 0.65625 0.15214 0.23676 0.25 0.28125c0.19571 0.08898 0.45397-0.02918 0.59375-0.1875 0.21872-0.24771 0.55041-0.36318 0.84375-0.21875 0.14667 0.07222 0.27035 0.21747 0.375 0.46875 0.05812 0.13956 0.09889 0.30972 0.125 0.5h1.4688c0.1385 0 0.25-0.1115 0.25-0.25v-2.5c0-0.1385-0.1115-0.25-0.25-0.25h-1.4688z" fill="url(#linearGradient4651)"/>
   <path id="path4478" d="m64.25 50c-0.1385 0-0.25 0.1115-0.25 0.25v2.5c0 0.1385 0.1115 0.25 0.25 0.25h1.5c0.02518-0.20705 0.06401-0.38326 0.125-0.53125 0.10538-0.25571 0.25936-0.40196 0.40625-0.46875 0.29378-0.13357 0.59841 0.0075 0.8125 0.25 0.13516 0.15305 0.39367 0.25476 0.59375 0.15625 0.10004-0.04926 0.19468-0.14843 0.25-0.28125 0.02766-0.06641 0.04558-0.14786 0.0625-0.25v-0.75c-0.01692-0.10214-0.03484-0.18359-0.0625-0.25-0.05532-0.13282-0.14996-0.23199-0.25-0.28125-0.20008-0.09851-0.45859 0.0032-0.59375 0.15625-0.21409 0.24248-0.51872 0.38357-0.8125 0.25-0.1469-0.06679-0.30087-0.21304-0.40625-0.46875-0.060987-0.14798-0.099822-0.3242-0.125-0.53125h-1.5z" fill="url(#linearGradient4648)"/>
   <path id="path4485" d="m68.281 44c-0.02611 0.19028-0.06688 0.36044-0.125 0.5-0.10465 0.25128-0.22833 0.39653-0.375 0.46875-0.29334 0.14443-0.62503 0.02896-0.84375-0.21875-0.13978-0.15832-0.39804-0.27648-0.59375-0.1875-0.09786 0.04449-0.19394 0.14522-0.25 0.28125s-0.09375 0.33172-0.09375 0.65625 0.03769 0.52022 0.09375 0.65625 0.15214 0.23676 0.25 0.28125c0.19571 0.08898 0.45397-0.02918 0.59375-0.1875 0.21872-0.24771 0.55041-0.36318 0.84375-0.21875 0.14667 0.07222 0.27035 0.21747 0.375 0.46875 0.05812 0.13956 0.09889 0.30972 0.125 0.5h1.4688c0.1385 0 0.25-0.1115 0.25-0.25v-2.5c0-0.1385-0.1115-0.25-0.25-0.25h-1.4688z" fill="url(#linearGradient4645)"/>
   <path id="path4487" d="m64.25 46c-0.1385 0-0.25 0.1115-0.25 0.25v2.5c0 0.1385 0.1115 0.25 0.25 0.25h1.5c0.02518-0.20705 0.06401-0.38326 0.125-0.53125 0.10538-0.25571 0.25936-0.40196 0.40625-0.46875 0.29378-0.13357 0.59841 0.0075 0.8125 0.25 0.13516 0.15305 0.39367 0.25476 0.59375 0.15625 0.10004-0.04926 0.19468-0.14843 0.25-0.28125 0.02766-0.06641 0.04558-0.14786 0.0625-0.25v-0.75c-0.01692-0.10214-0.03484-0.18359-0.0625-0.25-0.05532-0.13282-0.14996-0.23199-0.25-0.28125-0.20008-0.09851-0.45859 0.0032-0.59375 0.15625-0.21409 0.24248-0.51872 0.38357-0.8125 0.25-0.1469-0.06679-0.30087-0.21304-0.40625-0.46875-0.060987-0.14798-0.099822-0.3242-0.125-0.53125h-1.5z" fill="url(#linearGradient4642)"/>
   <path id="path4493" d="m68.281 40c-0.02611 0.19028-0.06688 0.36044-0.125 0.5-0.10465 0.25128-0.22833 0.39653-0.375 0.46875-0.29334 0.14443-0.62503 0.02896-0.84375-0.21875-0.13978-0.15832-0.39804-0.27648-0.59375-0.1875-0.09786 0.04449-0.19394 0.14522-0.25 0.28125s-0.09375 0.33172-0.09375 0.65625 0.03769 0.52022 0.09375 0.65625 0.15214 0.23676 0.25 0.28125c0.19571 0.08898 0.45397-0.02918 0.59375-0.1875 0.21872-0.24771 0.55041-0.36318 0.84375-0.21875 0.14667 0.07222 0.27035 0.21747 0.375 0.46875 0.05812 0.13956 0.09889 0.30972 0.125 0.5h1.4688c0.1385 0 0.25-0.1115 0.25-0.25v-2.5c0-0.1385-0.1115-0.25-0.25-0.25h-1.4688z" fill="url(#linearGradient4639)"/>
   <path id="path4495" d="m64.25 42c-0.1385 0-0.25 0.1115-0.25 0.25v2.5c0 0.1385 0.1115 0.25 0.25 0.25h1.5c0.02518-0.20705 0.06401-0.38326 0.125-0.53125 0.10538-0.25571 0.25936-0.40196 0.40625-0.46875 0.29378-0.13357 0.59841 0.0075 0.8125 0.25 0.13516 0.15305 0.39367 0.25476 0.59375 0.15625 0.10004-0.04926 0.19468-0.14843 0.25-0.28125 0.02766-0.06641 0.04558-0.14786 0.0625-0.25v-0.75c-0.01692-0.10214-0.03484-0.18359-0.0625-0.25-0.05532-0.13282-0.14996-0.23199-0.25-0.28125-0.20008-0.09851-0.45859 0.0032-0.59375 0.15625-0.21409 0.24248-0.51872 0.38357-0.8125 0.25-0.1469-0.06679-0.30087-0.21304-0.40625-0.46875-0.060987-0.14798-0.099822-0.3242-0.125-0.53125h-1.5z" fill="url(#linearGradient4636)"/>
   <path id="path4501" d="m68.281 36c-0.02611 0.19028-0.06688 0.36044-0.125 0.5-0.10465 0.25128-0.22833 0.39653-0.375 0.46875-0.29334 0.14443-0.62503 0.02896-0.84375-0.21875-0.13978-0.15832-0.39804-0.27648-0.59375-0.1875-0.09786 0.04449-0.19394 0.14522-0.25 0.28125s-0.09375 0.33172-0.09375 0.65625 0.03769 0.52022 0.09375 0.65625 0.15214 0.23676 0.25 0.28125c0.19571 0.08898 0.45397-0.02918 0.59375-0.1875 0.21872-0.24771 0.55041-0.36318 0.84375-0.21875 0.14667 0.07222 0.27035 0.21747 0.375 0.46875 0.05812 0.13956 0.09889 0.30972 0.125 0.5h1.4688c0.1385 0 0.25-0.1115 0.25-0.25v-2.5c0-0.1385-0.1115-0.25-0.25-0.25h-1.4688z" fill="url(#linearGradient4633)"/>
   <path id="path4503" d="m64.25 38c-0.1385 0-0.25 0.1115-0.25 0.25v2.5c0 0.1385 0.1115 0.25 0.25 0.25h1.5c0.02518-0.20705 0.06401-0.38326 0.125-0.53125 0.10538-0.25571 0.25936-0.40196 0.40625-0.46875 0.29378-0.13357 0.59841 0.0075 0.8125 0.25 0.13516 0.15305 0.39367 0.25476 0.59375 0.15625 0.10004-0.04926 0.19468-0.14843 0.25-0.28125 0.02766-0.06641 0.04558-0.14786 0.0625-0.25v-0.75c-0.01692-0.10214-0.03484-0.18359-0.0625-0.25-0.05532-0.13282-0.14996-0.23199-0.25-0.28125-0.20008-0.09851-0.45859 0.0032-0.59375 0.15625-0.21409 0.24248-0.51872 0.38357-0.8125 0.25-0.1469-0.06679-0.30087-0.21304-0.40625-0.46875-0.060987-0.14798-0.099822-0.3242-0.125-0.53125h-1.5z" fill="url(#linearGradient4630)"/>
   <path id="path4509" d="m68.281 32c-0.02611 0.19028-0.06688 0.36044-0.125 0.5-0.10465 0.25128-0.22833 0.39653-0.375 0.46875-0.29334 0.14443-0.62503 0.02896-0.84375-0.21875-0.13978-0.15832-0.39804-0.27648-0.59375-0.1875-0.09786 0.04449-0.19394 0.14522-0.25 0.28125s-0.09375 0.33172-0.09375 0.65625 0.03769 0.52022 0.09375 0.65625 0.15214 0.23676 0.25 0.28125c0.19571 0.08898 0.45397-0.02918 0.59375-0.1875 0.21872-0.24771 0.55041-0.36318 0.84375-0.21875 0.14667 0.07222 0.27035 0.21747 0.375 0.46875 0.05812 0.13956 0.09889 0.30972 0.125 0.5h1.4688c0.1385 0 0.25-0.1115 0.25-0.25v-2.5c0-0.1385-0.1115-0.25-0.25-0.25h-1.4688z" fill="url(#linearGradient4627)"/>
   <path id="path4511" d="m64.25 34c-0.1385 0-0.25 0.1115-0.25 0.25v2.5c0 0.1385 0.1115 0.25 0.25 0.25h1.5c0.02518-0.20705 0.06401-0.38326 0.125-0.53125 0.10538-0.25571 0.25936-0.40196 0.40625-0.46875 0.29378-0.13357 0.59841 0.0075 0.8125 0.25 0.13516 0.15305 0.39367 0.25476 0.59375 0.15625 0.10004-0.04926 0.19468-0.14843 0.25-0.28125 0.02766-0.06641 0.04558-0.14786 0.0625-0.25v-0.75c-0.01692-0.10214-0.03484-0.18359-0.0625-0.25-0.05532-0.13282-0.14996-0.23199-0.25-0.28125-0.20008-0.09851-0.45859 0.0032-0.59375 0.15625-0.21409 0.24248-0.51872 0.38357-0.8125 0.25-0.1469-0.06679-0.30087-0.21304-0.40625-0.46875-0.060987-0.14798-0.099822-0.3242-0.125-0.53125h-1.5z" fill="url(#linearGradient4624)"/>
   <path id="path4517" d="m68.281 28c-0.02611 0.19028-0.06688 0.36044-0.125 0.5-0.10465 0.25128-0.22833 0.39653-0.375 0.46875-0.29334 0.14443-0.62503 0.02896-0.84375-0.21875-0.13978-0.15832-0.39804-0.27648-0.59375-0.1875-0.09786 0.04449-0.19394 0.14522-0.25 0.28125s-0.09375 0.33172-0.09375 0.65625 0.03769 0.52022 0.09375 0.65625 0.15214 0.23676 0.25 0.28125c0.19571 0.08898 0.45397-0.02918 0.59375-0.1875 0.21872-0.24771 0.55041-0.36318 0.84375-0.21875 0.14667 0.07222 0.27035 0.21747 0.375 0.46875 0.05812 0.13956 0.09889 0.30972 0.125 0.5h1.4688c0.1385 0 0.25-0.1115 0.25-0.25v-2.5c0-0.1385-0.1115-0.25-0.25-0.25h-1.4688z" fill="url(#linearGradient4621)"/>
   <path id="path4519" d="m64.25 30c-0.1385 0-0.25 0.1115-0.25 0.25v2.5c0 0.1385 0.1115 0.25 0.25 0.25h1.5c0.02518-0.20705 0.06401-0.38326 0.125-0.53125 0.10538-0.25571 0.25936-0.40196 0.40625-0.46875 0.29378-0.13357 0.59841 0.0075 0.8125 0.25 0.13516 0.15305 0.39367 0.25476 0.59375 0.15625 0.10004-0.04926 0.19468-0.14843 0.25-0.28125 0.02766-0.06641 0.04558-0.14786 0.0625-0.25v-0.75c-0.01692-0.10214-0.03484-0.18359-0.0625-0.25-0.05532-0.13282-0.14996-0.23199-0.25-0.28125-0.20008-0.09851-0.45859 0.0032-0.59375 0.15625-0.21409 0.24248-0.51872 0.38357-0.8125 0.25-0.1469-0.06679-0.30087-0.21304-0.40625-0.46875-0.060987-0.14798-0.099822-0.3242-0.125-0.53125h-1.5z" fill="url(#linearGradient4618)"/>
   <path id="path4525" d="m68.281 24c-0.02611 0.19028-0.06688 0.36044-0.125 0.5-0.10465 0.25128-0.22833 0.39653-0.375 0.46875-0.29334 0.14443-0.62503 0.02896-0.84375-0.21875-0.13978-0.15832-0.39804-0.27648-0.59375-0.1875-0.09786 0.04449-0.19394 0.14522-0.25 0.28125s-0.09375 0.33172-0.09375 0.65625 0.03769 0.52022 0.09375 0.65625 0.15214 0.23676 0.25 0.28125c0.19571 0.08898 0.45397-0.02918 0.59375-0.1875 0.21872-0.24771 0.55041-0.36318 0.84375-0.21875 0.14667 0.07222 0.27035 0.21747 0.375 0.46875 0.05812 0.13956 0.09889 0.30972 0.125 0.5h1.4688c0.1385 0 0.25-0.1115 0.25-0.25v-2.5c0-0.1385-0.1115-0.25-0.25-0.25h-1.4688z" fill="url(#linearGradient4615)"/>
   <path id="path4527" d="m64.25 26c-0.1385 0-0.25 0.1115-0.25 0.25v2.5c0 0.1385 0.1115 0.25 0.25 0.25h1.5c0.02518-0.20705 0.06401-0.38326 0.125-0.53125 0.10538-0.25571 0.25936-0.40196 0.40625-0.46875 0.29378-0.13357 0.59841 0.0075 0.8125 0.25 0.13516 0.15305 0.39367 0.25476 0.59375 0.15625 0.10004-0.04926 0.19468-0.14843 0.25-0.28125 0.02766-0.06641 0.04558-0.14786 0.0625-0.25v-0.75c-0.01692-0.10214-0.03484-0.18359-0.0625-0.25-0.05532-0.13282-0.14996-0.23199-0.25-0.28125-0.20008-0.09851-0.45859 0.0032-0.59375 0.15625-0.21409 0.24248-0.51872 0.38357-0.8125 0.25-0.1469-0.06679-0.30087-0.21304-0.40625-0.46875-0.060987-0.14798-0.099822-0.3242-0.125-0.53125h-1.5z" fill="url(#linearGradient4612)"/>
   <path id="path4533" d="m68.281 20c-0.02611 0.19028-0.06688 0.36044-0.125 0.5-0.10465 0.25128-0.22833 0.39653-0.375 0.46875-0.29334 0.14443-0.62503 0.02896-0.84375-0.21875-0.13978-0.15832-0.39804-0.27648-0.59375-0.1875-0.09786 0.04449-0.19394 0.14522-0.25 0.28125s-0.09375 0.33172-0.09375 0.65625 0.03769 0.52022 0.09375 0.65625 0.15214 0.23676 0.25 0.28125c0.19571 0.08898 0.45397-0.02918 0.59375-0.1875 0.21872-0.24771 0.55041-0.36318 0.84375-0.21875 0.14667 0.07222 0.27035 0.21747 0.375 0.46875 0.05812 0.13956 0.09889 0.30972 0.125 0.5h1.4688c0.1385 0 0.25-0.1115 0.25-0.25v-2.5c0-0.1385-0.1115-0.25-0.25-0.25h-1.4688z" fill="url(#linearGradient4609)"/>
   <path id="path4535" d="m64.25 22c-0.1385 0-0.25 0.1115-0.25 0.25v2.5c0 0.1385 0.1115 0.25 0.25 0.25h1.5c0.02518-0.20705 0.06401-0.38326 0.125-0.53125 0.10538-0.25571 0.25936-0.40196 0.40625-0.46875 0.29378-0.13357 0.59841 0.0075 0.8125 0.25 0.13516 0.15305 0.39367 0.25476 0.59375 0.15625 0.10004-0.04926 0.19468-0.14843 0.25-0.28125 0.02766-0.06641 0.04558-0.14786 0.0625-0.25v-0.75c-0.01692-0.10214-0.03484-0.18359-0.0625-0.25-0.05532-0.13282-0.14996-0.23199-0.25-0.28125-0.20008-0.09851-0.45859 0.0032-0.59375 0.15625-0.21409 0.24248-0.51872 0.38357-0.8125 0.25-0.1469-0.06679-0.30087-0.21304-0.40625-0.46875-0.060987-0.14798-0.099822-0.3242-0.125-0.53125h-1.5z" fill="url(#linearGradient4606)"/>
   <path id="path4541" d="m68.281 16c-0.02611 0.19028-0.06688 0.36044-0.125 0.5-0.10465 0.25128-0.22833 0.39653-0.375 0.46875-0.29334 0.14443-0.62503 0.02896-0.84375-0.21875-0.13978-0.15832-0.39804-0.27648-0.59375-0.1875-0.09786 0.04449-0.19394 0.14522-0.25 0.28125s-0.09375 0.33172-0.09375 0.65625 0.03769 0.52022 0.09375 0.65625 0.15214 0.23676 0.25 0.28125c0.19571 0.08898 0.45397-0.02918 0.59375-0.1875 0.21872-0.24771 0.55041-0.36318 0.84375-0.21875 0.14667 0.07222 0.27035 0.21747 0.375 0.46875 0.05812 0.13956 0.09889 0.30972 0.125 0.5h1.4688c0.1385 0 0.25-0.1115 0.25-0.25v-2.5c0-0.1385-0.1115-0.25-0.25-0.25h-1.4688z" fill="url(#linearGradient4603)"/>
   <path id="path4543" d="m64.25 18c-0.1385 0-0.25 0.1115-0.25 0.25v2.5c0 0.1385 0.1115 0.25 0.25 0.25h1.5c0.02518-0.20705 0.06401-0.38326 0.125-0.53125 0.10538-0.25571 0.25936-0.40196 0.40625-0.46875 0.29378-0.13357 0.59841 0.0075 0.8125 0.25 0.13516 0.15305 0.39367 0.25476 0.59375 0.15625 0.10004-0.04926 0.19468-0.14843 0.25-0.28125 0.02766-0.06641 0.04558-0.14786 0.0625-0.25v-0.75c-0.01692-0.10214-0.03484-0.18359-0.0625-0.25-0.05532-0.13282-0.14996-0.23199-0.25-0.28125-0.20008-0.09851-0.45859 0.0032-0.59375 0.15625-0.21409 0.24248-0.51872 0.38357-0.8125 0.25-0.1469-0.06679-0.30087-0.21304-0.40625-0.46875-0.060987-0.14798-0.099822-0.3242-0.125-0.53125h-1.5z" fill="url(#linearGradient4600)"/>
   <path id="path4549" d="m68.281 12c-0.02611 0.19028-0.06688 0.36044-0.125 0.5-0.10465 0.25128-0.22833 0.39653-0.375 0.46875-0.29334 0.14443-0.62503 0.02896-0.84375-0.21875-0.13978-0.15832-0.39804-0.27648-0.59375-0.1875-0.09786 0.04449-0.19394 0.14522-0.25 0.28125s-0.09375 0.33172-0.09375 0.65625 0.03769 0.52022 0.09375 0.65625 0.15214 0.23676 0.25 0.28125c0.19571 0.08898 0.45397-0.02918 0.59375-0.1875 0.21872-0.24771 0.55041-0.36318 0.84375-0.21875 0.14667 0.07222 0.27035 0.21747 0.375 0.46875 0.05812 0.13956 0.09889 0.30972 0.125 0.5h1.4688c0.1385 0 0.25-0.1115 0.25-0.25v-2.5c0-0.1385-0.1115-0.25-0.25-0.25h-1.4688z" fill="url(#linearGradient4597)"/>
   <path id="path4551" d="m64.25 14c-0.1385 0-0.25 0.1115-0.25 0.25v2.5c0 0.1385 0.1115 0.25 0.25 0.25h1.5c0.02518-0.20705 0.06401-0.38326 0.125-0.53125 0.10538-0.25571 0.25936-0.40196 0.40625-0.46875 0.29378-0.13357 0.59841 0.0075 0.8125 0.25 0.13516 0.15305 0.39367 0.25476 0.59375 0.15625 0.10004-0.04926 0.19468-0.14843 0.25-0.28125 0.02766-0.06641 0.04558-0.14786 0.0625-0.25v-0.75c-0.01692-0.10214-0.03484-0.18359-0.0625-0.25-0.05532-0.13282-0.14996-0.23199-0.25-0.28125-0.20008-0.09851-0.45859 0.0032-0.59375 0.15625-0.21409 0.24248-0.51872 0.38357-0.8125 0.25-0.1469-0.06679-0.30087-0.21304-0.40625-0.46875-0.060987-0.14798-0.099822-0.3242-0.125-0.53125h-1.5z" fill="url(#linearGradient4594)"/>
   <path id="path4557" d="m64.25 10c-0.1385 0-0.25 0.1115-0.25 0.25v2.5c0 0.1385 0.1115 0.25 0.25 0.25h1.5c0.02518-0.20705 0.06401-0.38326 0.125-0.53125 0.10538-0.25571 0.25936-0.40196 0.40625-0.46875 0.29378-0.13357 0.59841 0.0075 0.8125 0.25 0.13516 0.15305 0.39367 0.25476 0.59375 0.15625 0.10004-0.04926 0.19468-0.14843 0.25-0.28125 0.02766-0.06641 0.04558-0.14786 0.0625-0.25v-0.75c-0.01692-0.10214-0.03484-0.18359-0.0625-0.25-0.05532-0.13282-0.14996-0.23199-0.25-0.28125-0.20008-0.09851-0.45859 0.0032-0.59375 0.15625-0.21409 0.24248-0.51872 0.38357-0.8125 0.25-0.1469-0.06679-0.30087-0.21304-0.40625-0.46875-0.060987-0.14798-0.099822-0.3242-0.125-0.53125h-1.5z" fill="url(#linearGradient4591)"/>
   <path id="path4671" d="m68.281 8c-0.02611 0.19028-0.06688 0.36044-0.125 0.5-0.10465 0.25128-0.22833 0.39653-0.375 0.46875-0.29334 0.14443-0.62503 0.02896-0.84375-0.21875-0.13978-0.15832-0.39804-0.27648-0.59375-0.1875-0.09786 0.04449-0.19394 0.14522-0.25 0.28125s-0.09375 0.33172-0.09375 0.65625 0.03769 0.52022 0.09375 0.65625 0.15214 0.23676 0.25 0.28125c0.19571 0.08898 0.45397-0.02918 0.59375-0.1875 0.21872-0.24771 0.55041-0.36318 0.84375-0.21875 0.14667 0.07222 0.27035 0.21747 0.375 0.46875 0.05812 0.13956 0.09889 0.30972 0.125 0.5h1.4688c0.1385 0 0.25-0.1115 0.25-0.25v-2.5c0-0.1385-0.1115-0.25-0.25-0.25h-1.4688z" fill="url(#linearGradient4673)"/>
  </g>
  <rect id="rect4717" x="64" y="8" width="6" height="5" color="#000000" fill="url(#linearGradient4725)" opacity=".5"/>
  <rect id="rect4705" x="64" y="6" width="2" height="4" rx=".5" ry=".5" fill="url(#linearGradient4707)" stroke="#000" stroke-opacity=".5198" stroke-width=".5"/>
  <rect id="rect4711" x="64" y="64" width="6" height="1" color="#000000" opacity=".5"/>
  <rect id="rect4713" x="68" y="6" width="2" height="4" rx=".5" ry=".5" fill="url(#linearGradient4715)" stroke="#000" stroke-opacity=".5198" stroke-width=".5"/>
  <g id="g4843" transform="translate(0,20)">
   <path id="path4841" d="m67-12.5c-1.16 0-2.3037 0.26123-3.2188 0.71875-0.46154 0.23077-0.83435 0.49886-1.1562 0.84375-0.33496 0.35889-0.625 0.85744-0.625 1.4375v3c-1.9e-5 -8.54e-4 6e-5 0.063352 0 0.0625-6e-5 -8.521e-4 1.01e-4 0.032098 0 0.03125-1.01e-4 -8.482e-4 1.41e-4 0.063343 0 0.0625-1.41e-4 -8.425e-4 0.03143 0.063335 0.03125 0.0625-1.81e-4 -8.348e-4 2.2e-4 0.032075 0 0.03125-2.2e-4 -8.253e-4 2.6e-4 0.063314 0 0.0625-2.6e-4 -8.138e-4 0.03155 0.032051 0.03125 0.03125-2.98e-4 -8.005e-4 0.03159 0.032035 0.03125 0.03125-3.36e-4 -7.854e-4 3.73e-4 0.063269 0 0.0625-3.73e-4 -7.685e-4 0.03166 0.032 0.03125 0.03125-4.09e-4 -7.499e-4 0.03169 0.06323 0.03125 0.0625-4.44e-4 -7.295e-4 4.79e-4 0.031957 0 0.03125-4.79e-4 -7.075e-4 0.03176 0.031934 0.03125 0.03125-5.12e-4 -6.839e-4 0.03179 0.031909 0.03125 0.03125-5.44e-4 -6.588e-4 0.03182 0.031882 0.03125 0.03125-5.75e-4 -6.321e-4 0.03185 0.063104 0.03125 0.0625-6.04e-4 -6.04e-4 0.06313 0.031824 0.0625 0.03125-6.32e-4 -5.745e-4 0.03191 0.031794 0.03125 0.03125-6.59e-4 -5.438e-4 0.03193 0.031762 0.03125 0.03125-6.84e-4 -5.118e-4 0.03196 0.031729 0.03125 0.03125-7.08e-4 -4.786e-4 0.03198 4.443e-4 0.03125 0s0.06325 0.031659 0.0625 0.03125c-7.5e-4 -4.091e-4 0.03202 0.031623 0.03125 0.03125-7.69e-4 -3.729e-4 0.06329 3.358e-4 0.0625 0-7.85e-4 -3.358e-4 0.03205 0.031548 0.03125 0.03125-8.01e-4 -2.98e-4 0.03206 0.03151 0.03125 0.03125-8.14e-4 -2.595e-4 0.06332 2.205e-4 0.0625 0-8.25e-4 -2.205e-4 0.03209 1.809e-4 0.03125 0-8.35e-4 -1.809e-4 0.06334 0.031391 0.0625 0.03125-8.42e-4 -1.409e-4 0.06335 1.006e-4 0.0625 0-8.48e-4 -1.006e-4 0.0321 6.01e-5 0.03125 0-8.52e-4 -6.01e-5 0.06335 1.94e-5 0.0625 0 0.04274 0 0.25062 0.086712 0.53125 0.4375 0.27304 0.3413 0.55562 0.87342 0.78125 1.4375 0.45637 1.1409 0.6875 2.3125 0.6875 2.3125a0.53359 0.53359 0 0 0 0 0.03125c-1.65e-4 -7.387e-4 0.03145 0.031981 0.03125 0.03125-1.96e-4 -7.311e-4 2.27e-4 0.031972 0 0.03125-2.27e-4 -7.221e-4 2.57e-4 0.063212 0 0.0625-2.57e-4 -7.119e-4 0.03154 0.03195 0.03125 0.03125-2.87e-4 -7.004e-4 0.03157 0.031938 0.03125 0.03125-3.17e-4 -6.877e-4 3.45e-4 0.031924 0 0.03125-3.45e-4 -6.737e-4 0.03162 0.063158 0.03125 0.0625-3.73e-4 -6.585e-4 4.01e-4 0.031892 0 0.03125-4.01e-4 -6.4214e-4 0.03168 0.031875 0.03125 0.03125-4.28e-4 -6.2463e-4 0.0317 0.031856 0.03125 0.03125-4.54e-4 -6.0601e-4 0.03173 0.031836 0.03125 0.03125-4.79e-4 -5.8632e-4 0.03175 0.031816 0.03125 0.03125-5.03e-4 -5.6557e-4 0.03178 0.031794 0.03125 0.03125-5.27e-4 -5.4382e-4 0.0318 0.031771 0.03125 0.03125-5.49e-4 -5.2109e-4 0.03182 0.031747 0.03125 0.03125-5.71e-4 -4.9744e-4 0.03184 0.031723 0.03125 0.03125-5.91e-4 -4.729e-4 0.03186 0.031698 0.03125 0.03125-6.11e-4 -4.4751e-4 0.03188 0.031671 0.03125 0.03125-6.29e-4 -4.2133e-4 0.0319 3.9439e-4 0.03125 0-6.46e-4 -3.9439e-4 0.03191 0.031617 0.03125 0.03125-6.62e-4 -3.6675e-4 0.03193 0.031588 0.03125 0.03125-6.77e-4 -3.3846e-4 0.06319 3.0956e-4 0.0625 0-6.91e-4 -3.0956e-4 0.03195 0.03153 0.03125 0.03125-7.03e-4 -2.8011e-4 0.03196 2.5016e-4 0.03125 0-7.14e-4 -2.5016e-4 0.06322 0.03147 0.0625 0.03125-7.24e-4 -2.1976e-4 0.03198 1.8897e-4 0.03125 0-7.33e-4 -1.8897e-4 0.03199 1.5785e-4 0.03125 0s0.06325 0.031376 0.0625 0.03125c-7.46e-4 -1.2644e-4 0.032 9.481e-5 0.03125 0-7.51e-4 -9.481e-5 0.032 6.301e-5 0.03125 0-7.54e-4 -6.301e-5 0.06326 3.109e-5 0.0625 0-7.56e-4 -3.109e-5 0.03201-8.8e-7 0.03125 0h2c-7.57e-4 -8.8e-7 0.03201-3.109e-5 0.03125 0-7.56e-4 3.109e-5 0.06325-6.301e-5 0.0625 0-7.54e-4 6.301e-5 0.032-9.481e-5 0.03125 0-7.51e-4 9.481e-5 0.032-1.2644e-4 0.03125 0-7.46e-4 1.2644e-4 0.06324-0.031408 0.0625-0.03125-7.4e-4 1.5785e-4 0.03198-1.8897e-4 0.03125 0-7.33e-4 1.8897e-4 0.03197-2.1976e-4 0.03125 0-7.24e-4 2.1976e-4 0.06321-0.0315 0.0625-0.03125-7.14e-4 2.5016e-4 0.03195-2.8011e-4 0.03125 0-7.03e-4 2.8011e-4 0.03194-0.03156 0.03125-0.03125-6.91e-4 3.0956e-4 0.06318-3.3846e-4 0.0625 0-6.77e-4 3.3846e-4 0.03191-0.031617 0.03125-0.03125-6.62e-4 3.6675e-4 0.0319-0.031644 0.03125-0.03125-6.46e-4 3.9439e-4 0.03188-4.2133e-4 0.03125 0-6.29e-4 4.2133e-4 0.03186-0.031698 0.03125-0.03125-6.11e-4 4.4751e-4 0.03184-0.031723 0.03125-0.03125-5.91e-4 4.729e-4 0.03182-0.031747 0.03125-0.03125-5.71e-4 4.9744e-4 0.0318-0.031771 0.03125-0.03125-5.49e-4 5.2109e-4 0.03178-0.031794 0.03125-0.03125-5.27e-4 5.4382e-4 0.03175-0.031816 0.03125-0.03125-5.03e-4 5.6557e-4 0.03173-0.031836 0.03125-0.03125-4.79e-4 5.8632e-4 0.0317-0.031856 0.03125-0.03125-4.54e-4 6.0601e-4 0.03168-0.031875 0.03125-0.03125-4.28e-4 6.2463e-4 0.03165-0.031892 0.03125-0.03125-4.01e-4 6.4214e-4 3.73e-4 -0.031908 0-0.03125-3.73e-4 6.5849e-4 0.03159-0.063174 0.03125-0.0625-3.45e-4 6.737e-4 3.17e-4 -0.031938 0-0.03125-3.17e-4 6.877e-4 0.03154-0.03195 0.03125-0.03125-2.87e-4 7.004e-4 0.03151-0.031962 0.03125-0.03125-2.57e-4 7.119e-4 2.27e-4 -0.063222 0-0.0625-2.27e-4 7.221e-4 1.96e-4 -0.031981 0-0.03125-1.96e-4 7.311e-4 0.03141-0.031989 0.03125-0.03125a0.53359 0.53359 0 0 0 0-0.03125s0.23113-1.1716 0.6875-2.3125c0.22563-0.56408 0.50821-1.0962 0.78125-1.4375 0.28063-0.35079 0.48851-0.4375 0.53125-0.4375-8.54e-4 1.94e-5 0.06335-6.01e-5 0.0625 0-8.52e-4 6.01e-5 0.0321-1.006e-4 0.03125 0-8.48e-4 1.006e-4 0.06334-1.409e-4 0.0625 0-8.42e-4 1.409e-4 0.06333-0.031431 0.0625-0.03125-8.35e-4 1.809e-4 0.03208-2.205e-4 0.03125 0-8.25e-4 2.205e-4 0.06331-2.595e-4 0.0625 0-8.14e-4 2.595e-4 0.03205-0.031548 0.03125-0.03125-8.01e-4 2.98e-4 0.03203-0.031586 0.03125-0.03125-7.85e-4 3.358e-4 0.06327-3.729e-4 0.0625 0-7.69e-4 3.729e-4 0.032-0.031659 0.03125-0.03125-7.5e-4 4.091e-4 0.06323-0.031694 0.0625-0.03125-7.3e-4 4.443e-4 0.03196-4.786e-4 0.03125 0-7.08e-4 4.786e-4 0.03193-0.031762 0.03125-0.03125-6.84e-4 5.118e-4 0.03191-0.031794 0.03125-0.03125-6.59e-4 5.438e-4 0.03188-0.031824 0.03125-0.03125-6.32e-4 5.745e-4 0.0631-0.031854 0.0625-0.03125-6.04e-4 6.04e-4 0.03182-0.063132 0.03125-0.0625-5.75e-4 6.321e-4 0.03179-0.031909 0.03125-0.03125-5.44e-4 6.588e-4 0.03176-0.031934 0.03125-0.03125-5.12e-4 6.839e-4 0.03173-0.031957 0.03125-0.03125-4.79e-4 7.075e-4 4.44e-4 -0.03198 0-0.03125-4.44e-4 7.295e-4 0.03166-0.06325 0.03125-0.0625-4.09e-4 7.499e-4 0.03162-0.032019 0.03125-0.03125-3.73e-4 7.685e-4 3.36e-4 -0.063285 0-0.0625-3.36e-4 7.854e-4 0.03155-0.032051 0.03125-0.03125-2.98e-4 8.005e-4 0.03151-0.032064 0.03125-0.03125-2.6e-4 8.138e-4 2.2e-4 -0.063325 0-0.0625-2.2e-4 8.253e-4 1.81e-4 -0.032085 0-0.03125-1.81e-4 8.348e-4 0.03139-0.063343 0.03125-0.0625-1.41e-4 8.425e-4 1.01e-4 -0.063348 0-0.0625-1.01e-4 8.482e-4 6e-5 -0.032102 0-0.03125-6e-5 8.521e-4 1.9e-5 -0.063354 0-0.0625v-3c0-0.58006-0.29004-1.0786-0.625-1.4375-0.3219-0.34489-0.69471-0.61298-1.1562-0.84375-0.91504-0.45752-2.0587-0.71875-3.2188-0.71875z" opacity=".2"/>
   <path id="path4837" d="m67-11.969c-1.08 0-2.1425 0.24311-2.9688 0.65625-0.41314 0.20657-0.75859 0.45787-1.0312 0.75s-0.46875 0.65259-0.46875 1.0625v3a0.47977 0.47977 0 0 0 0.46875 0.46875c0.30011 0 0.61123 0.21716 0.9375 0.625s0.63524 0.99435 0.875 1.5938c0.47952 1.1988 0.71875 2.4062 0.71875 2.4062a0.47977 0.47977 0 0 0 0.46875 0.375h2a0.47977 0.47977 0 0 0 0.46875-0.375s0.23923-1.2074 0.71875-2.4062c0.23976-0.5994 0.54873-1.1859 0.875-1.5938s0.63739-0.625 0.9375-0.625a0.47977 0.47977 0 0 0 0.46875-0.46875v-3c0-0.40991-0.19609-0.77037-0.46875-1.0625s-0.61811-0.54343-1.0312-0.75c-0.82628-0.41314-1.8888-0.65625-2.9688-0.65625z" opacity=".3"/>
   <path id="path4831" d="m67-11.5c-2 0-4 1-4 2v3c2 0 3 5 3 5h2s1-5 3-5v-3c0-1-2-2-4-2z" opacity=".5"/>
   <path id="path4812" d="m67-12c-2 0-4 1-4 2v3c2 0 3 5 3 5h2s1-5 3-5v-3c0-1-2-2-4-2z" fill="url(#linearGradient4850)"/>
   <path id="path4822" d="m67-12c-2 0-4 1-4 2v1c0-1 2-2 4-2s4 1 4 2v-1c0-1-2-2-4-2z" fill="#fff" opacity=".5"/>
  </g>
  <g id="g4797" transform="translate(0,23)">
   <path id="path4784" d="m65.219-11.5c-1.1553 0-2.2188 0.86068-2.2188 2.0625v11.844c4.4e-5 1.196 1.0408 2.0938 2.2188 2.0938h3.5625c1.178 0 2.2188-0.89767 2.2188-2.0938v-11.844c0-1.2018-1.0634-2.0625-2.2188-2.0625h-3.5625zm0.71875 10.969h2.0625v1.125h-2.0625v-1.125z" opacity=".2"/>
   <path id="path4780" d="m65.219-11c-0.91082 0-1.7188 0.66244-1.7188 1.5625v11.844c3.3e-5 0.90004 0.79257 1.5938 1.7188 1.5938h3.5625c0.92618 0 1.7188-0.69369 1.7188-1.5938v-11.844c0-0.90006-0.80794-1.5625-1.7188-1.5625h-3.5625zm0.21875 9.9688h3.0625v2.125h-3.0625v-2.125z" opacity=".3"/>
   <path id="path4774" d="m65.212-10.5c-0.68358 0-1.2124 0.46429-1.2124 1.0647v11.839c2.2e-5 0.60043 0.52886 1.096 1.2124 1.096h3.5751c0.68358 0 1.2124-0.4956 1.2124-1.096v-11.839c0-0.60043-0.52886-1.0647-1.2124-1.0647zm-0.27979 8.9582h4.0725v3.1315h-4.0725z" opacity=".5"/>
   <path id="path4766" d="m68.788-11c0.68358 0 1.2124 0.46429 1.2124 1.0647v11.839c-2.2e-5 0.60043-0.52886 1.096-1.2124 1.096h-3.5751c-0.68358 0-1.2124-0.4956-1.2124-1.096v-11.839c0-0.60043 0.52886-1.0647 1.2124-1.0647zm0.27979 8.9582h-4.0725v3.1315h4.0725z" fill="url(#linearGradient4804)"/>
   <path id="path4786" d="m68.781-11c0.68358 0 1.2188 0.46207 1.2188 1.0625v11.844c0 0.60043-0.53517 1.0938-1.2188 1.0938h-3.5625c-0.68358 0-1.2187-0.49332-1.2188-1.0938v-11.844c0-0.60043 0.53517-1.0625 1.2188-1.0625h3.5625zm0.03125 1h-3.625c-0.1108 0-0.1875 0.0767-0.1875 0.1875v7.7812h-0.0625v3.125h0.0625v0.71875c0 0.1108 0.0767 0.1875 0.1875 0.1875h3.625c0.1108 0 0.1875-0.0767 0.1875-0.1875v-0.71875-3.125-7.7812c0-0.1108-0.0767-0.1875-0.1875-0.1875z" fill="url(#linearGradient4806)"/>
  </g>
  <rect id="rect4808" x="65.5" y="9" width="3" height="6" rx=".56313" ry=".5" fill="url(#linearGradient4810)" stroke="#000" stroke-linecap="square" stroke-opacity=".44059" stroke-width=".5"/>
  <path id="path3783" transform="translate(0,-24)" d="m18.562 80v1.7812h5.375c-0.17095 0.25158-0.34046 0.52969-0.5 0.78125-0.14815 0.25158-0.27796 0.48586-0.4375 0.75l-5 8.7188v1.9688h8v-1.8438h-6.1562c0.35327-0.54088 0.71768-1.1024 1.0938-1.7188 0.37606-0.61635 0.76032-1.2335 1.125-1.875 0.37606-0.6415 0.72907-1.296 1.0938-1.9375 0.36467-0.6415 0.73201-1.2651 1.0625-1.8438 0.33048-0.57861 0.63274-1.1032 0.90625-1.5938 0.28489-0.50314 0.51362-0.92904 0.71875-1.2812v-1.9062h-7.2812zm9.4375 0v14h1.8125v-14h-1.8125zm4 0v14h1.8125v-5.5938h2.0312c0.27672 5e-6 0.58529-0.03734 0.9375-0.0625 0.36478-0.03773 0.71029-0.09944 1.0625-0.1875 0.35219-0.10062 0.68553-0.21147 1-0.375 0.31446-0.16352 0.59256-0.39209 0.78125-0.65625 0.32704-0.44024 0.54913-0.92177 0.6875-1.4375 0.15093-0.52829 0.21874-1.0342 0.21875-1.5625-9e-6 -0.32703-0.01219-0.65428-0.0625-0.96875-0.05033-0.32704-0.15547-0.65427-0.28125-0.96875-0.18869-0.49056-0.41078-0.86693-0.6875-1.1562-0.26416-0.2893-0.56664-0.53654-0.90625-0.6875-0.33963-0.15093-0.72249-0.2435-1.125-0.28125-0.40252-0.0503-0.80975-0.06249-1.25-0.0625h-4.2188zm1.8438 1.7812h2.5312c0.1761 1.3e-5 0.386 0.01868 0.625 0.03125 0.25157 1.4e-5 0.46147 0.03087 0.625 0.09375 0.20125 0.07548 0.36163 0.18024 0.5 0.34375 0.13836 0.15096 0.25569 0.33 0.34375 0.53125 0.08804 0.20127 0.14976 0.41727 0.1875 0.65625 0.03773 0.22643 0.06249 0.46109 0.0625 0.6875-7e-6 0.79246-0.27811 1.3974-0.78125 1.8125-0.49058 0.40252-1.1447 0.62501-2 0.625h-2.0938v-4.7812z" clip-path="url(#clipPath3352)" fill="none" opacity=".05" stroke="#fff" stroke-width="6"/>
  <path id="path3781" transform="translate(0,-24)" d="m18.562 80v1.7812h5.375c-0.17095 0.25158-0.34046 0.52969-0.5 0.78125-0.14815 0.25158-0.27796 0.48586-0.4375 0.75l-5 8.7188v1.9688h8v-1.8438h-6.1562c0.35327-0.54088 0.71768-1.1024 1.0938-1.7188 0.37606-0.61635 0.76032-1.2335 1.125-1.875 0.37606-0.6415 0.72907-1.296 1.0938-1.9375 0.36467-0.6415 0.73201-1.2651 1.0625-1.8438 0.33048-0.57861 0.63274-1.1032 0.90625-1.5938 0.28489-0.50314 0.51362-0.92904 0.71875-1.2812v-1.9062h-7.2812zm9.4375 0v14h1.8125v-14h-1.8125zm4 0v14h1.8125v-5.5938h2.0312c0.27672 5e-6 0.58529-0.03734 0.9375-0.0625 0.36478-0.03773 0.71029-0.09944 1.0625-0.1875 0.35219-0.10062 0.68553-0.21147 1-0.375 0.31446-0.16352 0.59256-0.39209 0.78125-0.65625 0.32704-0.44024 0.54913-0.92177 0.6875-1.4375 0.15093-0.52829 0.21874-1.0342 0.21875-1.5625-9e-6 -0.32703-0.01219-0.65428-0.0625-0.96875-0.05033-0.32704-0.15547-0.65427-0.28125-0.96875-0.18869-0.49056-0.41078-0.86693-0.6875-1.1562-0.26416-0.2893-0.56664-0.53654-0.90625-0.6875-0.33963-0.15093-0.72249-0.2435-1.125-0.28125-0.40252-0.0503-0.80975-0.06249-1.25-0.0625h-4.2188zm1.8438 1.7812h2.5312c0.1761 1.3e-5 0.386 0.01868 0.625 0.03125 0.25157 1.4e-5 0.46147 0.03087 0.625 0.09375 0.20125 0.07548 0.36163 0.18024 0.5 0.34375 0.13836 0.15096 0.25569 0.33 0.34375 0.53125 0.08804 0.20127 0.14976 0.41727 0.1875 0.65625 0.03773 0.22643 0.06249 0.46109 0.0625 0.6875-7e-6 0.79246-0.27811 1.3974-0.78125 1.8125-0.49058 0.40252-1.1447 0.62501-2 0.625h-2.0938v-4.7812z" clip-path="url(#clipPath3352)" fill="none" opacity=".07" stroke="#fff" stroke-width="4"/>
  <path id="path3341" transform="translate(0,-24)" d="m18.562 80v1.7812h5.375c-0.17095 0.25158-0.34046 0.52969-0.5 0.78125-0.14815 0.25158-0.27796 0.48586-0.4375 0.75l-5 8.7188v1.9688h8v-1.8438h-6.1562c0.35327-0.54088 0.71768-1.1024 1.0938-1.7188 0.37606-0.61635 0.76032-1.2335 1.125-1.875 0.37606-0.6415 0.72907-1.296 1.0938-1.9375 0.36467-0.6415 0.73201-1.2651 1.0625-1.8438 0.33048-0.57861 0.63274-1.1032 0.90625-1.5938 0.28489-0.50314 0.51362-0.92904 0.71875-1.2812v-1.9062h-7.2812zm9.4375 0v14h1.8125v-14h-1.8125zm4 0v14h1.8125v-5.5938h2.0312c0.27672 5e-6 0.58529-0.03734 0.9375-0.0625 0.36478-0.03773 0.71029-0.09944 1.0625-0.1875 0.35219-0.10062 0.68553-0.21147 1-0.375 0.31446-0.16352 0.59256-0.39209 0.78125-0.65625 0.32704-0.44024 0.54913-0.92177 0.6875-1.4375 0.15093-0.52829 0.21874-1.0342 0.21875-1.5625-9e-6 -0.32703-0.01219-0.65428-0.0625-0.96875-0.05033-0.32704-0.15547-0.65427-0.28125-0.96875-0.18869-0.49056-0.41078-0.86693-0.6875-1.1562-0.26416-0.2893-0.56664-0.53654-0.90625-0.6875-0.33963-0.15093-0.72249-0.2435-1.125-0.28125-0.40252-0.0503-0.80975-0.06249-1.25-0.0625h-4.2188zm1.8438 1.7812h2.5312c0.1761 1.3e-5 0.386 0.01868 0.625 0.03125 0.25157 1.4e-5 0.46147 0.03087 0.625 0.09375 0.20125 0.07548 0.36163 0.18024 0.5 0.34375 0.13836 0.15096 0.25569 0.33 0.34375 0.53125 0.08804 0.20127 0.14976 0.41727 0.1875 0.65625 0.03773 0.22643 0.06249 0.46109 0.0625 0.6875-7e-6 0.79246-0.27811 1.3974-0.78125 1.8125-0.49058 0.40252-1.1447 0.62501-2 0.625h-2.0938v-4.7812z" clip-path="url(#clipPath3352)" fill="none" opacity=".12" stroke="#fff" stroke-width="2"/>
  <path id="path3312" d="m18.562 56v1.7812h5.375c-0.17095 0.25158-0.34046 0.52969-0.5 0.78125-0.14815 0.25158-0.27796 0.48586-0.4375 0.75l-5 8.7188v1.9688h8v-1.8438h-6.1562c0.35327-0.54088 0.71768-1.1024 1.0938-1.7188 0.37606-0.61635 0.76032-1.2335 1.125-1.875 0.37606-0.6415 0.72907-1.296 1.0938-1.9375 0.36467-0.6415 0.73201-1.2651 1.0625-1.8438 0.33048-0.57861 0.63274-1.1032 0.90625-1.5938 0.28489-0.50314 0.51362-0.92904 0.71875-1.2812v-1.9062h-7.2812zm9.4375 0v14h1.8125v-14h-1.8125zm4 0v14h1.8125v-5.5938h2.0312c0.27672 5e-6 0.58529-0.03734 0.9375-0.0625 0.36478-0.03773 0.71029-0.09944 1.0625-0.1875 0.35219-0.10062 0.68553-0.21147 1-0.375 0.31446-0.16352 0.59256-0.39209 0.78125-0.65625 0.32704-0.44024 0.54913-0.92177 0.6875-1.4375 0.15093-0.52829 0.21874-1.0342 0.21875-1.5625-9e-6 -0.32703-0.01219-0.65428-0.0625-0.96875-0.05033-0.32704-0.15547-0.65427-0.28125-0.96875-0.18869-0.49056-0.41078-0.86693-0.6875-1.1562-0.26416-0.2893-0.56664-0.53654-0.90625-0.6875-0.33963-0.15093-0.72249-0.2435-1.125-0.28125-0.40252-0.0503-0.80975-0.06249-1.25-0.0625h-4.2188zm1.8438 1.7812h2.5312c0.1761 1.3e-5 0.386 0.01868 0.625 0.03125 0.25157 1.4e-5 0.46147 0.03087 0.625 0.09375 0.20125 0.07548 0.36163 0.18024 0.5 0.34375 0.13836 0.15096 0.25569 0.33 0.34375 0.53125 0.08804 0.20127 0.14976 0.41727 0.1875 0.65625 0.03773 0.22643 0.06249 0.46109 0.0625 0.6875-7e-6 0.79246-0.27811 1.3974-0.78125 1.8125-0.49058 0.40252-1.1447 0.62501-2 0.625h-2.0938v-4.7812z" fill="#7a4b21"/>
  <path id="path3336" d="m18.562 56v1h7.2812v-1h-7.2812zm9.4375 0v1h1.8125v-1h-1.8125zm4 0v1h4.2188c0.44025 1.4e-5 0.84748 0.0122 1.25 0.0625 0.40251 0.03775 0.78537 0.13032 1.125 0.28125 0.33962 0.15096 0.64209 0.3982 0.90625 0.6875 0.27672 0.28932 0.49881 0.6657 0.6875 1.1562 0.12578 0.31448 0.23092 0.64172 0.28125 0.96875 0.02111 0.13198 0.02165 0.27073 0.03125 0.40625 0.01096-0.1453 0.03125-0.28967 0.03125-0.4375-9e-6 -0.32703-0.01219-0.65428-0.0625-0.96875-0.05033-0.32704-0.15547-0.65427-0.28125-0.96875-0.18869-0.49056-0.41078-0.86693-0.6875-1.1562-0.26416-0.2893-0.56664-0.53654-0.90625-0.6875-0.33963-0.15093-0.72249-0.2435-1.125-0.28125-0.40252-0.0503-0.80975-0.06249-1.25-0.0625h-4.2188zm-8.6875 2.7812c-0.10048 0.17428-0.19925 0.34375-0.3125 0.53125l-5 8.7188v1l5-8.7188c0.15954-0.26414 0.28935-0.49842 0.4375-0.75 0.15954-0.25156 0.32905-0.52966 0.5-0.78125h-0.625zm15.344 1.7812c-0.08573 0.57887-0.31379 1.0409-0.71875 1.375-0.49058 0.40252-1.1447 0.62501-2 0.625h-2.0938v1h2.0938c0.85534 7e-6 1.5094-0.22248 2-0.625 0.50314-0.41509 0.78124-1.02 0.78125-1.8125-7e-6 -0.18558-0.03572-0.37491-0.0625-0.5625zm-18.188 7.5938c-0.21205 0.33354-0.42052 0.68693-0.625 1h6.1562v-1h-5.5312z" opacity=".4"/>
 </g>
</svg>
