<?xml version="1.0" encoding="UTF-8"?>
<svg id="svg2408" width="96" height="96" version="1.0" xmlns="http://www.w3.org/2000/svg" xmlns:cc="http://creativecommons.org/ns#" xmlns:dc="http://purl.org/dc/elements/1.1/" xmlns:rdf="http://www.w3.org/1999/02/22-rdf-syntax-ns#" xmlns:xlink="http://www.w3.org/1999/xlink">
 <defs id="defs2410">
  <linearGradient id="ButtonShadow" x1="45.448" x2="45.448" y1="92.54" y2="7.0165" gradientTransform="scale(1.0059 .99417)" gradientUnits="userSpaceOnUse">
   <stop id="stop3750" offset="0"/>
   <stop id="stop3752" stop-opacity=".58824" offset="1"/>
  </linearGradient>
  <linearGradient id="linearGradient3706" x1="48" x2="48" y1="90" y2="5.9877" gradientUnits="userSpaceOnUse">
   <stop id="stop3702" stop-color="#e6e6e6" offset="0"/>
   <stop id="stop3704" stop-color="#f5f5f5" offset="1"/>
  </linearGradient>
  <filter id="filter3174" color-interpolation-filters="sRGB">
   <feGaussianBlur id="feGaussianBlur3176" stdDeviation="1.71"/>
  </filter>
  <linearGradient id="ButtonShadow-0" x1="45.448" x2="45.448" y1="92.54" y2="7.0165" gradientTransform="matrix(1.0059 0 0 .99417 100 0)" gradientUnits="userSpaceOnUse">
   <stop id="stop3750-8" offset="0"/>
   <stop id="stop3752-5" stop-opacity=".58824" offset="1"/>
  </linearGradient>
  <linearGradient id="linearGradient3780" x1="32.251" x2="32.251" y1="6.1317" y2="90.239" gradientTransform="matrix(1.0238 0 0 1.0119 -1.1429 -98.071)" gradientUnits="userSpaceOnUse" xlink:href="#ButtonShadow-0"/>
  <linearGradient id="linearGradient3721" x1="32.251" x2="32.251" y1="6.1317" y2="90.239" gradientTransform="translate(0,-97)" gradientUnits="userSpaceOnUse" xlink:href="#ButtonShadow-0"/>
  <radialGradient id="radialGradient2886" cx="48" cy="90.172" r="42" gradientTransform="matrix(1.1573 0 0 .99591 -7.551 .19713)" gradientUnits="userSpaceOnUse">
   <stop id="stop3739-6" stop-color="#fff" offset="0"/>
   <stop id="stop3741-0" stop-color="#fff" stop-opacity="0" offset="1"/>
  </radialGradient>
  <linearGradient id="linearGradient3923" x1="36.357" x2="36.357" y1="6" y2="63.893" gradientUnits="userSpaceOnUse">
   <stop id="stop3739-9" stop-color="#fff" offset="0"/>
   <stop id="stop3741-3" stop-color="#fff" stop-opacity="0" offset="1"/>
  </linearGradient>
  <clipPath id="clipPath4187">
   <path id="path4189" d="m48 102c-19.882 0-36 16.118-36 36s16.118 36 36 36 36-16.118 36-36-16.118-36-36-36zm0 24c6.6274 0 12 5.3726 12 12s-5.3726 12-12 12-12-5.3726-12-12 5.3726-12 12-12z" fill="#bbb1bf"/>
  </clipPath>
  <filter id="filter4195" x="-.18" y="-.18" width="1.36" height="1.36" color-interpolation-filters="sRGB">
   <feGaussianBlur id="feGaussianBlur4197" stdDeviation="5.2159999"/>
  </filter>
  <clipPath id="clipPath4031">
   <path id="path4033" d="m48 32c-19.882 0-36 16.118-36 36s16.118 36 36 36 36-16.118 36-36-16.118-36-36-36zm0 24c6.6274 0 12 5.3726 12 12s-5.3726 12-12 12-12-5.3726-12-12 5.3726-12 12-12z" fill="#bbb1bf"/>
  </clipPath>
  <filter id="filter4035" x="-.19037" y="-.1707" width="1.3807" height="1.3414" color-interpolation-filters="sRGB">
   <feGaussianBlur id="feGaussianBlur4037" stdDeviation="4.9476562"/>
  </filter>
  <radialGradient id="radialGradient4012" cx="59.894" cy="61.922" r="33.714" gradientTransform="matrix(1 0 0 .83754 0 10.06)" gradientUnits="userSpaceOnUse">
   <stop id="stop3344" stop-opacity="0" offset="0"/>
   <stop id="stop3350" stop-opacity="0" offset=".85"/>
   <stop id="stop3346" offset="1"/>
  </radialGradient>
  <linearGradient id="linearGradient4014" x1="26.18" x2="93.608" y1="61.922" y2="61.922" gradientUnits="userSpaceOnUse">
   <stop id="stop3332" stop-color="#fff" stop-opacity=".20312" offset="0"/>
   <stop id="stop3334" stop-color="#fff" stop-opacity=".67969" offset="1"/>
  </linearGradient>
  <linearGradient id="linearGradient4004" x1="25.22" x2="94.568" y1="61.922" y2="61.922" gradientUnits="userSpaceOnUse">
   <stop id="stop3364" stop-color="#4d4d4d" offset="0"/>
   <stop id="stop3366" stop-color="#fff" offset="1"/>
  </linearGradient>
  <clipPath id="clipPath3613">
   <rect id="rect3615" x="6" y="6" width="84" height="84" rx="6" ry="6" fill="#fff"/>
  </clipPath>
  <filter id="filter3794" x="-.192" y="-.192" width="1.384" height="1.384" color-interpolation-filters="sRGB">
   <feGaussianBlur id="feGaussianBlur3796" stdDeviation="5.28"/>
  </filter>
  <linearGradient id="linearGradient3868" x1="48" x2="48" y1="20.221" y2="138.66" gradientUnits="userSpaceOnUse">
   <stop id="stop3739-2" stop-color="#fff" offset="0"/>
   <stop id="stop3741-1" stop-color="#fff" stop-opacity="0" offset="1"/>
  </linearGradient>
 </defs>
 <metadata id="metadata2413">
  <rdf:RDF>
   <cc:Work rdf:about="">
    <dc:format>image/svg+xml</dc:format>
    <dc:type rdf:resource="http://purl.org/dc/dcmitype/StillImage"/>
    <dc:title/>
   </cc:Work>
  </rdf:RDF>
 </metadata>
 <g id="layer2" display="none">
  <rect id="rect3745" x="5" y="7" width="86" height="85" rx="6" ry="6" fill="url(#ButtonShadow)" filter="url(#filter3174)" opacity=".9"/>
 </g>
 <g id="layer6">
  <path id="path3786" transform="scale(1,-1)" d="m12-95.031c-5.5111 0-10.031 4.5202-10.031 10.031v71c0 5.5111 4.5202 10.031 10.031 10.031h72c5.5111 0 10.031-4.5202 10.031-10.031v-71c0-5.5111-4.5202-10.031-10.031-10.031h-72z" fill="url(#linearGradient3780)" opacity=".08"/>
  <path id="path3778" transform="scale(1,-1)" d="m12-94.031c-4.9716 0-9.0312 4.0596-9.0312 9.0312v71c0 4.9716 4.0596 9.0312 9.0312 9.0312h72c4.9716 0 9.0312-4.0596 9.0312-9.0312v-71c0-4.9716-4.0596-9.0312-9.0312-9.0312h-72z" fill="url(#linearGradient3780)" opacity=".1"/>
  <path id="path3770" transform="scale(1,-1)" d="m12-93c-4.4091 0-8 3.5909-8 8v71c0 4.4091 3.5909 8 8 8h72c4.4091 0 8-3.5909 8-8v-71c0-4.4091-3.5909-8-8-8h-72z" fill="url(#linearGradient3780)" opacity=".2"/>
  <rect id="rect3723" transform="scale(1,-1)" x="5" y="-92" width="86" height="85" rx="7" ry="7" fill="url(#linearGradient3780)" opacity=".3"/>
  <rect id="rect3716" transform="scale(1,-1)" x="6" y="-91" width="84" height="84" rx="6" ry="6" fill="url(#linearGradient3721)" opacity=".45"/>
 </g>
 <g id="layer1">
  <rect id="rect2419" x="6" y="6" width="84" height="84" rx="6" ry="6" fill="url(#linearGradient3706)"/>
  <path id="rect3728" d="m12 6c-3.324 0-6 2.676-6 6v2 68 2c0 0.33472 0.04135 0.6507 0.09375 0.96875 0.0487 0.2956 0.09704 0.59692 0.1875 0.875 0.0099 0.03038 0.02089 0.0636 0.03125 0.09375 0.09886 0.28777 0.23488 0.54745 0.375 0.8125 0.14459 0.27351 0.31562 0.53562 0.5 0.78125s0.37378 0.47347 0.59375 0.6875c0.43995 0.42806 0.94291 0.81453 1.5 1.0938 0.27854 0.13961 0.57347 0.24695 0.875 0.34375-0.2562-0.10022-0.48671-0.23627-0.71875-0.375-0.0074-0.0044-0.02387 0.0045-0.03125 0-0.03193-0.0193-0.06229-0.04251-0.09375-0.0625-0.1204-0.0767-0.23102-0.16351-0.34375-0.25-0.10617-0.0808-0.21328-0.16111-0.3125-0.25-0.17793-0.16143-0.34746-0.34539-0.5-0.53125-0.10758-0.13026-0.21839-0.26528-0.3125-0.40625-0.02509-0.03838-0.03845-0.08587-0.0625-0.125-0.06476-0.10303-0.13023-0.20452-0.1875-0.3125-0.10101-0.19471-0.20568-0.4157-0.28125-0.625-8e-3 -0.02181-0.02359-0.04055-0.03125-0.0625-0.03183-0.09195-0.0358-0.18683-0.0625-0.28125-0.030332-0.10662-0.070389-0.20303-0.09375-0.3125-0.072879-0.34151-0.125-0.6982-0.125-1.0625v-2-68-2c0-2.7818 2.2182-5 5-5h2 68 2c2.7818 0 5 2.2182 5 5v2 68 2c0 0.3643-0.05212 0.72099-0.125 1.0625-0.04415 0.20689-0.08838 0.39766-0.15625 0.59375-0.0077 0.02195-0.0233 0.04069-0.03125 0.0625-0.06274 0.17374-0.13838 0.36745-0.21875 0.53125-0.04158 0.0828-0.07904 0.16995-0.125 0.25-0.0546 0.09721-0.12677 0.18835-0.1875 0.28125-0.09411 0.14096-0.20492 0.276-0.3125 0.40625-0.14317 0.17445-0.30314 0.347-0.46875 0.5-0.01117 0.0102-0.01998 0.02115-0.03125 0.03125-0.13839 0.12556-0.28509 0.23444-0.4375 0.34375-0.10257 0.07315-0.20432 0.15336-0.3125 0.21875-0.0074 0.0045-0.02384-0.0044-0.03125 0-0.23204 0.13873-0.46255 0.27478-0.71875 0.375 0.30153-0.0968 0.59646-0.20414 0.875-0.34375 0.55709-0.27922 1.0601-0.66569 1.5-1.0938 0.21997-0.21403 0.40937-0.44186 0.59375-0.6875s0.35541-0.50774 0.5-0.78125c0.14012-0.26505 0.27614-0.52473 0.375-0.8125 0.01041-0.03078 0.02133-0.06274 0.03125-0.09375 0.09046-0.27808 0.1388-0.5794 0.1875-0.875 0.0524-0.31805 0.09375-0.63403 0.09375-0.96875v-2-68-2c0-3.324-2.676-6-6-6h-72z" fill="url(#linearGradient3923)" opacity=".5"/>
  <path id="path3615" d="m12 90c-3.324 0-6-2.676-6-6v-2-68-2c0-0.33472 0.04135-0.6507 0.09375-0.96875 0.0487-0.2956 0.09704-0.59692 0.1875-0.875 0.00988-0.03038 0.020892-0.0636 0.03125-0.09375 0.098865-0.28777 0.23488-0.54745 0.375-0.8125 0.14459-0.27351 0.31562-0.53562 0.5-0.78125s0.37378-0.47347 0.59375-0.6875c0.43995-0.42806 0.94291-0.81453 1.5-1.0938 0.27854-0.13961 0.57347-0.24695 0.875-0.34375-0.2562 0.10022-0.48671 0.23627-0.71875 0.375-0.00741 0.0044-0.023866-0.0045-0.03125 0-0.031933 0.0193-0.062293 0.04251-0.09375 0.0625-0.1204 0.0767-0.23102 0.16351-0.34375 0.25-0.10617 0.0808-0.21328 0.16111-0.3125 0.25-0.17793 0.16143-0.34746 0.34539-0.5 0.53125-0.10758 0.13026-0.21839 0.26528-0.3125 0.40625-0.025089 0.03838-0.038446 0.08587-0.0625 0.125-0.064763 0.10303-0.13023 0.20452-0.1875 0.3125-0.10101 0.19471-0.20567 0.4157-0.28125 0.625-0.00796 0.02181-0.023589 0.04055-0.03125 0.0625-0.031825 0.09195-0.035804 0.18683-0.0625 0.28125-0.030332 0.10662-0.070389 0.20303-0.09375 0.3125-0.072879 0.34151-0.125 0.6982-0.125 1.0625v2 68 2c0 2.7818 2.2182 5 5 5h2 68 2c2.7818 0 5-2.2182 5-5v-2-68-2c0-0.3643-0.05212-0.72099-0.125-1.0625-0.04415-0.20689-0.08838-0.39766-0.15625-0.59375-0.0077-0.02195-0.0233-0.04069-0.03125-0.0625-0.06274-0.17374-0.13838-0.36745-0.21875-0.53125-0.04158-0.0828-0.07904-0.16995-0.125-0.25-0.0546-0.09721-0.12677-0.18835-0.1875-0.28125-0.09411-0.14096-0.20492-0.276-0.3125-0.40625-0.14317-0.17445-0.30314-0.347-0.46875-0.5-0.01117-0.0102-0.01998-0.02115-0.03125-0.03125-0.13839-0.12556-0.28509-0.23444-0.4375-0.34375-0.10257-0.07315-0.20432-0.15336-0.3125-0.21875-0.0074-0.0045-0.02384 0.0044-0.03125 0-0.23204-0.13873-0.46255-0.27478-0.71875-0.375 0.30153 0.0968 0.59646 0.20414 0.875 0.34375 0.55709 0.27922 1.0601 0.66569 1.5 1.0938 0.21997 0.21403 0.40937 0.44186 0.59375 0.6875s0.35541 0.50774 0.5 0.78125c0.14012 0.26505 0.27614 0.52473 0.375 0.8125 0.01041 0.03078 0.02133 0.06274 0.03125 0.09375 0.09046 0.27808 0.1388 0.5794 0.1875 0.875 0.0524 0.31805 0.09375 0.63403 0.09375 0.96875v2 68 2c0 3.324-2.676 6-6 6h-72z" fill="url(#radialGradient2886)" opacity=".4"/>
  <rect id="rect3654" x="-94" y="6" width="84" height="84" rx="6" ry="6" fill="#f0f"/>
  <rect id="rect3797" x="112" y="8" width="16" height="16" color="#000000" fill="#fff" stroke="#000" stroke-dashoffset="8.6" stroke-linecap="round" stroke-width=".5"/>
  <text id="text3799" x="131.39261" y="11.969256" fill="#000000" font-family="Liberation Sans" font-size="4px" style="line-height:125%" xml:space="preserve"><tspan id="tspan3801" x="131.39261" y="11.969256">Width: 2px</tspan><tspan id="tspan3803" x="131.39261" y="16.969257">Blur: 12</tspan><tspan id="tspan3807" x="131.39261" y="21.969257">Opacity: 60</tspan></text>
 </g>
 <g id="layer4">
  <rect id="rect3171" x="15" y="15" width="66" height="66" rx="12" ry="12" clip-path="url(#clipPath3613)" fill="url(#linearGradient3868)" filter="url(#filter3794)" opacity=".5" stroke="#fff" stroke-linecap="round" stroke-width=".5"/>
 </g>
 <g id="layer3">
  <path id="path3736" d="m48 31c-9.926 0-18 8.074-18 18s8.074 18 18 18 18-8.074 18-18-8.074-18-18-18zm0 10c4.4365 0 8 3.5635 8 8s-3.5635 8-8 8-8-3.5635-8-8 3.5635-8 8-8z" color="#000000" opacity=".05"/>
  <path id="path3725" d="m48 33c-8.8366 0-16 7.1634-16 16s7.1634 16 16 16 16-7.1634 16-16-7.1634-16-16-16zm0 6c5.5228 0 10 4.4772 10 10s-4.4772 10-10 10-10-4.4772-10-10 4.4772-10 10-10z" color="#000000" opacity=".3"/>
  <path id="path3732" d="m48 31.969c-9.3975 0-17.031 7.6337-17.031 17.031s7.6337 17.031 17.031 17.031 17.031-7.6337 17.031-17.031-7.6337-17.031-17.031-17.031zm0 8.0625c4.9619 0 8.9688 4.0069 8.9688 8.9688s-4.0069 8.9688-8.9688 8.9688-8.9688-4.0069-8.9688-8.9688 4.0069-8.9688 8.9688-8.9688z" color="#000000" opacity=".1"/>
  <path id="path3978" d="m48 18.085c-16.522 0-29.915 13.394-29.915 29.915s13.394 29.915 29.915 29.915 29.915-13.394 29.915-29.915-13.394-29.915-29.915-29.915zm0 19.944c5.5073 0 9.9718 4.4645 9.9718 9.9718s-4.4645 9.9718-9.9718 9.9718-9.9718-4.4645-9.9718-9.9718 4.4645-9.9718 9.9718-9.9718z" fill="#bbb1bf"/>
  <path id="path3992" d="m48 38.028c-5.5073 0-9.9718 4.4645-9.9718 9.9718s4.4645 9.9718 9.9718 9.9718 9.9718-4.4645 9.9718-9.9718-4.4645-9.9718-9.9718-9.9718zm0 5.8169c2.2947 0 4.1549 1.8602 4.1549 4.1549s-1.8602 4.1549-4.1549 4.1549-4.1549-1.8602-4.1549-4.1549 1.8602-4.1549 4.1549-4.1549z" fill="#fff" opacity=".3"/>
  <path id="path4002" transform="matrix(0 .13983 -.16798 0 58.402 39.625)" d="m92.58 61.922a32.686 27.208 0 1 1-65.371 0 32.686 27.208 0 1 1 65.371 0z" fill="none" opacity=".6" stroke="url(#linearGradient4004)" stroke-linecap="round" stroke-width="6.5249"/>
  <path id="path4010" transform="matrix(0 .24152 -.29014 0 65.966 33.534)" d="m92.58 61.922a32.686 27.208 0 1 1-65.371 0 32.686 27.208 0 1 1 65.371 0z" fill="url(#radialGradient4012)" fill-rule="evenodd" opacity=".5" stroke="url(#linearGradient4014)" stroke-linecap="round" stroke-width="3.7776"/>
  <path id="path4018" transform="matrix(.83099 0 0 .83099 8.1127 -8.507)" d="m57.312 33.219-9.3125 34.781 31.188-18c-4.7739-8.2686-12.653-14.31-21.875-16.781zm-9.3125 34.781-31.188 18c4.7739 8.2686 12.653 14.31 21.875 16.781l9.3125-34.781z" clip-path="url(#clipPath4031)" fill="#fff" filter="url(#filter4035)" opacity=".8"/>
  <g id="g4175" transform="matrix(.83099 0 0 .83099 8.1127 -66.676)" clip-path="url(#clipPath4187)" filter="url(#filter4195)" opacity=".6">
   <path id="path4039" transform="matrix(1.5055 .86922 -.95673 1.6571 27.56 21.5)" d="m60.947 57.784a20.708 18.814 0 0 1-2.6155 2.9059l-14.643-13.304z" fill="#7137c8"/>
   <path id="path4041" transform="matrix(1.6792 .44994 -.49524 1.8483 -1.8956 30.76)" d="m60.779 58.011a20.708 18.814 0 0 1-3.384 3.4788l-13.706-14.103z" fill="#0cf"/>
   <path id="path4043" transform="matrix(1.7384 0 -6.0266e-8 1.9135 -27.951 47.328)" d="m62.724 54.796a20.708 18.814 0 0 1-2.2597 3.6221l-16.775-11.031z" fill="#fc0"/>
   <path id="path4045" transform="matrix(1.6792 -.44994 .49524 1.8483 -48.831 70.075)" d="m61.623 56.793a20.708 18.814 0 0 1-1.6993 2.2728l-16.235-11.68z" fill="#f00"/>
   <path id="path4144" transform="matrix(1.6792 .44994 -.49524 1.8483 -1.8956 30.76)" d="m63.123 53.883a20.708 18.814 0 0 1-2.37 4.1619l-17.064-10.659z" fill="#0f0"/>
   <path id="path4155" transform="matrix(-1.5055 -.86922 .95673 -1.6571 68.44 254.5)" d="m60.947 57.784a20.708 18.814 0 0 1-2.6155 2.9059l-14.643-13.304z" fill="#7137c8"/>
   <path id="path4157" transform="matrix(-1.6792 -.44994 .49524 -1.8483 97.896 245.24)" d="m60.779 58.011a20.708 18.814 0 0 1-3.384 3.4788l-13.706-14.103z" fill="#0cf"/>
   <path id="path4159" transform="matrix(-1.7384 0 6.0266e-8 -1.9135 123.95 228.67)" d="m62.724 54.796a20.708 18.814 0 0 1-2.2597 3.6221l-16.775-11.031z" fill="#fc0"/>
   <path id="path4161" transform="matrix(-1.6792 .44994 -.49524 -1.8483 144.83 205.92)" d="m61.623 56.793a20.708 18.814 0 0 1-1.6993 2.2728l-16.235-11.68z" fill="#f00"/>
   <path id="path4163" transform="matrix(-1.6792 -.44994 .49524 -1.8483 97.896 245.24)" d="m63.123 53.883a20.708 18.814 0 0 1-2.37 4.1619l-17.064-10.659z" fill="#0f0"/>
  </g>
  <path id="path3986" d="m48 35.951c-6.6546 0-12.049 5.3947-12.049 12.049s5.3947 12.049 12.049 12.049 12.049-5.3947 12.049-12.049-5.3947-12.049-12.049-12.049zm0 2.0775c5.5073 0 9.9718 4.4645 9.9718 9.9718s-4.4645 9.9718-9.9718 9.9718-9.9718-4.4645-9.9718-9.9718 4.4645-9.9718 9.9718-9.9718z" opacity=".2"/>
  <path id="path4199" d="m-52 18.085c-16.522 0-29.915 13.394-29.915 29.915 0 0.2801 0.01828 0.55273 0.02593 0.83099 0.44357-16.135 13.648-29.085 29.89-29.085 16.242 0 29.446 12.95 29.89 29.085 0.0076-0.27825 0.02597-0.55089 0.02597-0.83099-2e-6 -16.522-13.394-29.915-29.915-29.915z" fill="#fff" opacity=".4"/>
  <path id="path3738" d="m18 48.5c-0.0028 0.16833 0 0.331 0 0.5 0 16.569 13.431 30 30 30s30-13.431 30-30c0-0.169 0.0028-0.33167 0-0.5-0.27014 16.335-13.6 29.5-30 29.5s-29.73-13.165-30-29.5z" color="#000000" fill="#fff" opacity=".6"/>
  <path id="path3749" d="m48 18c-16.569 0-30 13.431-30 30s13.431 30 30 30 30-13.431 30-30-13.431-30-30-30zm0 3c14.912 0 27 12.088 27 27s-12.088 27-27 27-27-12.088-27-27 12.088-27 27-27z" color="#000000" opacity=".05"/>
  <path id="path3743" d="m48 18c-16.569 0-30 13.431-30 30s13.431 30 30 30 30-13.431 30-30-13.431-30-30-30zm0 2.0312c15.469 0 27.969 12.499 27.969 27.969s-12.499 27.969-27.969 27.969-27.969-12.499-27.969-27.969 12.499-27.969 27.969-27.969z" color="#000000" opacity=".1"/>
  <path id="path3781" d="m48 18c-16.569 0-30 13.431-30 30s13.431 30 30 30 30-13.431 30-30-13.431-30-30-30zm0 1c16.016 0 29 12.984 29 29s-12.984 29-29 29-29-12.984-29-29 12.984-29 29-29z" color="#000000" opacity=".15"/>
  <path id="path3753" d="m48 18c-16.569 0-30 13.431-30 30 0 0.169-0.0028 0.33167 0 0.5 0.27014-16.335 13.6-29.5 30-29.5s29.73 13.165 30 29.5c0.002784-0.16833 0-0.331 0-0.5 0-16.569-13.431-30-30-30z" color="#000000" opacity=".2"/>
 </g>
</svg>
