<?xml version="1.0" encoding="UTF-8"?>
<svg id="svg2408" width="96" height="96" version="1.0" xmlns="http://www.w3.org/2000/svg" xmlns:cc="http://creativecommons.org/ns#" xmlns:dc="http://purl.org/dc/elements/1.1/" xmlns:rdf="http://www.w3.org/1999/02/22-rdf-syntax-ns#" xmlns:xlink="http://www.w3.org/1999/xlink">
 <defs id="defs2410">
  <linearGradient id="ButtonShadow" x1="45.448" x2="45.448" y1="92.54" y2="7.0165" gradientTransform="scale(1.0059 .99417)" gradientUnits="userSpaceOnUse">
   <stop id="stop3750" offset="0"/>
   <stop id="stop3752" stop-opacity=".58824" offset="1"/>
  </linearGradient>
  <linearGradient id="linearGradient3706" x1="48" x2="48" y1="90" y2="5.9877" gradientUnits="userSpaceOnUse">
   <stop id="stop3702" stop-color="#e6e6e6" offset="0"/>
   <stop id="stop3704" stop-color="#f5f5f5" offset="1"/>
  </linearGradient>
  <filter id="filter3174" color-interpolation-filters="sRGB">
   <feGaussianBlur id="feGaussianBlur3176" stdDeviation="1.71"/>
  </filter>
  <linearGradient id="ButtonShadow-0" x1="45.448" x2="45.448" y1="92.54" y2="7.0165" gradientTransform="matrix(1.0059 0 0 .99417 100 0)" gradientUnits="userSpaceOnUse">
   <stop id="stop3750-8" offset="0"/>
   <stop id="stop3752-5" stop-opacity=".58824" offset="1"/>
  </linearGradient>
  <linearGradient id="linearGradient3780" x1="32.251" x2="32.251" y1="6.1317" y2="90.239" gradientTransform="matrix(1.0238 0 0 1.0119 -1.1429 -98.071)" gradientUnits="userSpaceOnUse" xlink:href="#ButtonShadow-0"/>
  <linearGradient id="linearGradient3721" x1="32.251" x2="32.251" y1="6.1317" y2="90.239" gradientTransform="translate(0,-97)" gradientUnits="userSpaceOnUse" xlink:href="#ButtonShadow-0"/>
  <radialGradient id="radialGradient2886" cx="48" cy="90.172" r="42" gradientTransform="matrix(1.1573 0 0 .99591 -7.551 .19713)" gradientUnits="userSpaceOnUse">
   <stop id="stop3739-6" stop-color="#fff" offset="0"/>
   <stop id="stop3741-0" stop-color="#fff" stop-opacity="0" offset="1"/>
  </radialGradient>
  <linearGradient id="linearGradient3923" x1="36.357" x2="36.357" y1="6" y2="63.893" gradientUnits="userSpaceOnUse">
   <stop id="stop3739-9" stop-color="#fff" offset="0"/>
   <stop id="stop3741-3" stop-color="#fff" stop-opacity="0" offset="1"/>
  </linearGradient>
  <radialGradient id="radialGradient10416" cx="59.852" cy="41.704" r="18.183" gradientTransform="matrix(1 0 0 .125 0 36.491)" gradientUnits="userSpaceOnUse">
   <stop id="stop10412" stop-color="#fff" offset="0"/>
   <stop id="stop10414" stop-color="#fff" stop-opacity="0" offset="1"/>
  </radialGradient>
  <linearGradient id="linearGradient10392" x1="58.652" x2="47.451" y1="68.172" y2="57.993" gradientUnits="userSpaceOnUse">
   <stop id="stop10388" stop-color="#fff" offset="0"/>
   <stop id="stop10390" stop-color="#fff" stop-opacity="0" offset="1"/>
  </linearGradient>
  <linearGradient id="linearGradient8183" x1="24.249" x2="13.406" y1="77.502" y2="67.674" gradientTransform="matrix(.72549 -.19431 .19481 .72675 26.254 18.268)" gradientUnits="userSpaceOnUse">
   <stop id="stop6533" stop-color="#c38125" offset="0"/>
   <stop id="stop10377" stop-color="#c68d31" offset=".62963"/>
   <stop id="stop6535" stop-color="#fffce6" offset="1"/>
  </linearGradient>
  <linearGradient id="linearGradient10400" x1="60.899" x2="68.223" y1="35.606" y2="39.534" gradientUnits="userSpaceOnUse">
   <stop id="stop10396" stop-color="#1a1a1a" offset="0"/>
   <stop id="stop10404" stop-color="#636363" offset=".35185"/>
   <stop id="stop10402" stop-color="#c7c7c7" offset=".5"/>
   <stop id="stop10406" stop-color="#636363" offset=".65"/>
   <stop id="stop10398" offset="1"/>
  </linearGradient>
  <linearGradient id="linearGradient10454" x1="43.7" x2="87.732" y1="82.474" y2="6.2082" gradientTransform="matrix(1.0371 .14899 -.15896 .972 11.602 -3.9992)" gradientUnits="userSpaceOnUse" xlink:href="#linearGradient11508"/>
  <linearGradient id="linearGradient11508">
   <stop id="stop11510" offset="0"/>
   <stop id="stop11512" stop-opacity="0" offset="1"/>
  </linearGradient>
  <linearGradient id="linearGradient3719" x1="43.7" x2="77.924" y1="82.474" y2="16.212" gradientTransform="matrix(1.0643 .22253 -.33932 .69796 25.39 15.671)" gradientUnits="userSpaceOnUse" xlink:href="#linearGradient11508"/>
  <linearGradient id="linearGradient3795" x1="39.48" x2="39.48" y1="81.5" y2="6.28" gradientTransform="translate(.75761 1.7678)" gradientUnits="userSpaceOnUse">
   <stop id="stop3717" stop-color="#3767a3" offset="0"/>
   <stop id="stop3719" stop-color="#6593c6" stop-opacity="0" offset="1"/>
  </linearGradient>
  <clipPath id="clipPath3613">
   <rect id="rect3615" x="6" y="6" width="84" height="84" rx="6" ry="6" fill="#fff"/>
  </clipPath>
  <filter id="filter3794" x="-.192" y="-.192" width="1.384" height="1.384" color-interpolation-filters="sRGB">
   <feGaussianBlur id="feGaussianBlur3796" stdDeviation="5.28"/>
  </filter>
  <linearGradient id="linearGradient3845" x1="48" x2="48" y1="20.221" y2="138.66" gradientUnits="userSpaceOnUse">
   <stop id="stop3739-2" stop-color="#fff" offset="0"/>
   <stop id="stop3741-1" stop-color="#fff" stop-opacity="0" offset="1"/>
  </linearGradient>
 </defs>
 <metadata id="metadata2413">
  <rdf:RDF>
   <cc:Work rdf:about="">
    <dc:format>image/svg+xml</dc:format>
    <dc:type rdf:resource="http://purl.org/dc/dcmitype/StillImage"/>
    <dc:title/>
   </cc:Work>
  </rdf:RDF>
 </metadata>
 <g id="layer2" display="none">
  <rect id="rect3745" x="5" y="7" width="86" height="85" rx="6" ry="6" fill="url(#ButtonShadow)" filter="url(#filter3174)" opacity=".9"/>
 </g>
 <g id="layer6">
  <path id="path3786" transform="scale(1,-1)" d="m12-95.031c-5.5111 0-10.031 4.5202-10.031 10.031v71c0 5.5111 4.5202 10.031 10.031 10.031h72c5.5111 0 10.031-4.5202 10.031-10.031v-71c0-5.5111-4.5202-10.031-10.031-10.031h-72z" fill="url(#linearGradient3780)" opacity=".08"/>
  <path id="path3778" transform="scale(1,-1)" d="m12-94.031c-4.9716 0-9.0312 4.0596-9.0312 9.0312v71c0 4.9716 4.0596 9.0312 9.0312 9.0312h72c4.9716 0 9.0312-4.0596 9.0312-9.0312v-71c0-4.9716-4.0596-9.0312-9.0312-9.0312h-72z" fill="url(#linearGradient3780)" opacity=".1"/>
  <path id="path3770" transform="scale(1,-1)" d="m12-93c-4.4091 0-8 3.5909-8 8v71c0 4.4091 3.5909 8 8 8h72c4.4091 0 8-3.5909 8-8v-71c0-4.4091-3.5909-8-8-8h-72z" fill="url(#linearGradient3780)" opacity=".2"/>
  <rect id="rect3723" transform="scale(1,-1)" x="5" y="-92" width="86" height="85" rx="7" ry="7" fill="url(#linearGradient3780)" opacity=".3"/>
  <rect id="rect3716" transform="scale(1,-1)" x="6" y="-91" width="84" height="84" rx="6" ry="6" fill="url(#linearGradient3721)" opacity=".45"/>
 </g>
 <g id="layer1">
  <rect id="rect2419" x="6" y="6" width="84" height="84" rx="6" ry="6" fill="url(#linearGradient3706)"/>
  <path id="rect3728" d="m12 6c-3.324 0-6 2.676-6 6v2 68 2c0 0.33472 0.04135 0.6507 0.09375 0.96875 0.0487 0.2956 0.09704 0.59692 0.1875 0.875 0.0099 0.03038 0.02089 0.0636 0.03125 0.09375 0.09886 0.28777 0.23488 0.54745 0.375 0.8125 0.14459 0.27351 0.31562 0.53562 0.5 0.78125s0.37378 0.47347 0.59375 0.6875c0.43995 0.42806 0.94291 0.81453 1.5 1.0938 0.27854 0.13961 0.57347 0.24695 0.875 0.34375-0.2562-0.10022-0.48671-0.23627-0.71875-0.375-0.0074-0.0044-0.02387 0.0045-0.03125 0-0.03193-0.0193-0.06229-0.04251-0.09375-0.0625-0.1204-0.0767-0.23102-0.16351-0.34375-0.25-0.10617-0.0808-0.21328-0.16111-0.3125-0.25-0.17793-0.16143-0.34746-0.34539-0.5-0.53125-0.10758-0.13026-0.21839-0.26528-0.3125-0.40625-0.02509-0.03838-0.03845-0.08587-0.0625-0.125-0.06476-0.10303-0.13023-0.20452-0.1875-0.3125-0.10101-0.19471-0.20568-0.4157-0.28125-0.625-8e-3 -0.02181-0.02359-0.04055-0.03125-0.0625-0.03183-0.09195-0.0358-0.18683-0.0625-0.28125-0.030332-0.10662-0.070389-0.20303-0.09375-0.3125-0.072879-0.34151-0.125-0.6982-0.125-1.0625v-2-68-2c0-2.7818 2.2182-5 5-5h2 68 2c2.7818 0 5 2.2182 5 5v2 68 2c0 0.3643-0.05212 0.72099-0.125 1.0625-0.04415 0.20689-0.08838 0.39766-0.15625 0.59375-0.0077 0.02195-0.0233 0.04069-0.03125 0.0625-0.06274 0.17374-0.13838 0.36745-0.21875 0.53125-0.04158 0.0828-0.07904 0.16995-0.125 0.25-0.0546 0.09721-0.12677 0.18835-0.1875 0.28125-0.09411 0.14096-0.20492 0.276-0.3125 0.40625-0.14317 0.17445-0.30314 0.347-0.46875 0.5-0.01117 0.0102-0.01998 0.02115-0.03125 0.03125-0.13839 0.12556-0.28509 0.23444-0.4375 0.34375-0.10257 0.07315-0.20432 0.15336-0.3125 0.21875-0.0074 0.0045-0.02384-0.0044-0.03125 0-0.23204 0.13873-0.46255 0.27478-0.71875 0.375 0.30153-0.0968 0.59646-0.20414 0.875-0.34375 0.55709-0.27922 1.0601-0.66569 1.5-1.0938 0.21997-0.21403 0.40937-0.44186 0.59375-0.6875s0.35541-0.50774 0.5-0.78125c0.14012-0.26505 0.27614-0.52473 0.375-0.8125 0.01041-0.03078 0.02133-0.06274 0.03125-0.09375 0.09046-0.27808 0.1388-0.5794 0.1875-0.875 0.0524-0.31805 0.09375-0.63403 0.09375-0.96875v-2-68-2c0-3.324-2.676-6-6-6h-72z" fill="url(#linearGradient3923)" opacity=".5"/>
  <path id="path3615" d="m12 90c-3.324 0-6-2.676-6-6v-2-68-2c0-0.33472 0.04135-0.6507 0.09375-0.96875 0.0487-0.2956 0.09704-0.59692 0.1875-0.875 0.00988-0.03038 0.020892-0.0636 0.03125-0.09375 0.098865-0.28777 0.23488-0.54745 0.375-0.8125 0.14459-0.27351 0.31562-0.53562 0.5-0.78125s0.37378-0.47347 0.59375-0.6875c0.43995-0.42806 0.94291-0.81453 1.5-1.0938 0.27854-0.13961 0.57347-0.24695 0.875-0.34375-0.2562 0.10022-0.48671 0.23627-0.71875 0.375-0.00741 0.0044-0.023866-0.0045-0.03125 0-0.031933 0.0193-0.062293 0.04251-0.09375 0.0625-0.1204 0.0767-0.23102 0.16351-0.34375 0.25-0.10617 0.0808-0.21328 0.16111-0.3125 0.25-0.17793 0.16143-0.34746 0.34539-0.5 0.53125-0.10758 0.13026-0.21839 0.26528-0.3125 0.40625-0.025089 0.03838-0.038446 0.08587-0.0625 0.125-0.064763 0.10303-0.13023 0.20452-0.1875 0.3125-0.10101 0.19471-0.20567 0.4157-0.28125 0.625-0.00796 0.02181-0.023589 0.04055-0.03125 0.0625-0.031825 0.09195-0.035804 0.18683-0.0625 0.28125-0.030332 0.10662-0.070389 0.20303-0.09375 0.3125-0.072879 0.34151-0.125 0.6982-0.125 1.0625v2 68 2c0 2.7818 2.2182 5 5 5h2 68 2c2.7818 0 5-2.2182 5-5v-2-68-2c0-0.3643-0.05212-0.72099-0.125-1.0625-0.04415-0.20689-0.08838-0.39766-0.15625-0.59375-0.0077-0.02195-0.0233-0.04069-0.03125-0.0625-0.06274-0.17374-0.13838-0.36745-0.21875-0.53125-0.04158-0.0828-0.07904-0.16995-0.125-0.25-0.0546-0.09721-0.12677-0.18835-0.1875-0.28125-0.09411-0.14096-0.20492-0.276-0.3125-0.40625-0.14317-0.17445-0.30314-0.347-0.46875-0.5-0.01117-0.0102-0.01998-0.02115-0.03125-0.03125-0.13839-0.12556-0.28509-0.23444-0.4375-0.34375-0.10257-0.07315-0.20432-0.15336-0.3125-0.21875-0.0074-0.0045-0.02384 0.0044-0.03125 0-0.23204-0.13873-0.46255-0.27478-0.71875-0.375 0.30153 0.0968 0.59646 0.20414 0.875 0.34375 0.55709 0.27922 1.0601 0.66569 1.5 1.0938 0.21997 0.21403 0.40937 0.44186 0.59375 0.6875s0.35541 0.50774 0.5 0.78125c0.14012 0.26505 0.27614 0.52473 0.375 0.8125 0.01041 0.03078 0.02133 0.06274 0.03125 0.09375 0.09046 0.27808 0.1388 0.5794 0.1875 0.875 0.0524 0.31805 0.09375 0.63403 0.09375 0.96875v2 68 2c0 3.324-2.676 6-6 6h-72z" fill="url(#radialGradient2886)" opacity=".4"/>
  <rect id="rect3654" x="-94" y="6" width="84" height="84" rx="6" ry="6" fill="#f0f"/>
  <rect id="rect3797" x="112" y="8" width="16" height="16" color="#000000" fill="#fff" stroke="#000" stroke-dashoffset="8.6" stroke-linecap="round" stroke-width=".5"/>
  <text id="text3799" x="131.39261" y="11.969256" fill="#000000" font-family="Liberation Sans" font-size="4px" style="line-height:125%" xml:space="preserve"><tspan id="tspan3801" x="131.39261" y="11.969256">Width: 2px</tspan><tspan id="tspan3803" x="131.39261" y="16.969257">Blur: 12</tspan><tspan id="tspan3807" x="131.39261" y="21.969257">Opacity: 60</tspan></text>
 </g>
 <g id="layer4">
  <rect id="rect3171" x="15" y="15" width="66" height="66" rx="12" ry="12" clip-path="url(#clipPath3613)" fill="url(#linearGradient3845)" filter="url(#filter3794)" opacity=".5" stroke="#fff" stroke-linecap="round" stroke-width=".5"/>
 </g>
 <g id="layer3">
  <path id="path10456" d="m90 46.844c-4.5267 2.4571-8.9467 4.8983-12.938 7.625-5.3609 3.6629-9.1183 7.3305-10.844 10.125-0.0078 0.01278-0.02345 0.01851-0.03125 0.03125-1.0504 0.6297-8.5814 5.1735-12.406 7.8125-4.1757 2.881-11.219 10.25-11.219 10.25l0.8125 0.5c6.9214-3.2272 20.844-6.4375 20.844-6.4375l0.46875-0.125-0.125-0.3125s-0.06096-0.1304 0-0.53125c0.06098-0.40085 0.26727-1.0314 0.78125-1.875 1.1168-1.8332 3.9385-3.7679 5.8438-4.9375 4.3942-1.0847 10.611-3.9776 16.406-7.9375 0.82317-0.56244 1.6129-1.1366 2.4062-1.7188v-12.469z" fill="url(#linearGradient3719)" opacity=".3"/>
  <path id="path10430" d="m90 15.625c-7.1598 8.9315-15.448 16.154-21.812 24.719-4.1558 5.5925-6.8044 10.995-7.7812 14.938-0.0044 0.01801-0.02686 0.04455-0.03125 0.0625-0.8339 0.97909-6.7907 7.976-9.75 12-3.2308 4.3931-8.125 15.125-8.125 15.125l0.875 0.5625c5.7009-5.2289 17.875-11.375 17.875-11.375l0.40625-0.21875-0.15625-0.40625s-0.09207-0.17889-0.125-0.71875c-0.03294-0.53986-0.0072-1.4046 0.28125-2.5938 0.62682-2.5839 2.8373-5.5314 4.3438-7.3438 3.8346-2.0414 8.9448-6.7041 13.438-12.75 3.8618-5.1968 7.0818-10.841 10.562-16.656v-15.344z" fill="url(#linearGradient10454)" opacity=".2"/>
  <path id="path10375" d="m71.441 41.872c-4.9735 10.133-11.992 17.34-14.547 15.967-2.7254-1.4642-1.4078-10.803 3.6954-21.201 5.102-10.395 13.052-19.405 18.277-31.011 0.99577-2.2119 2.9241-5.4797 5.6618-4.0917 2.8377 1.4387 2.0678 4.1309 0.56856 7.1888-5.7898 11.809-8.6824 23.015-13.656 33.148z" fill="url(#linearGradient10400)" stroke="#000"/>
  <path id="path4343" transform="matrix(.63303 -.16955 .23046 .42763 6.3123 29.068)" d="m60.458 78.052a5.4801 7.7782 0 1 1-10.96 0 5.4801 7.7782 0 1 1 10.96 0z" fill="none" stroke="#2e3436" stroke-linecap="round" stroke-width="3.5377"/>
  <path id="path4341" d="m42.944 82.581s2.9568-11.532 5.2581-16.279c2.3013-4.7473 7.7424-14.191 7.7424-14.191s1.5699-2.3482 4.104-1.0992c2.5341 1.249 1.8027 3.6481 1.8027 3.6481s-3.8216 5.7556-4.1396 10.197c-0.18327 2.56 0.41684 3.6061 0.41684 3.6061s-10.525 7.9137-15.184 14.119z" fill="url(#linearGradient8183)" fill-rule="evenodd" stroke="#c17d11"/>
  <path id="path6537" transform="matrix(.49816 .21338 -.22865 .4531 80.994 39.611)" d="m-27.931 71.865a1.2374 3.0052 0 1 1-2.4749 0 1.2374 3.0052 0 1 1 2.4749 0z" fill-opacity=".6" stroke="#c17d11" stroke-linecap="round" stroke-width=".63875"/>
  <path id="path8007" d="m43.003 82.289c2.0864-5.3782 3.5755-9.9079 6.1844-14.875" fill="#c17d11" fill-rule="evenodd" stroke="#c17d11" stroke-width=".34298"/>
  <path id="path10381" d="m59.688 52.656c-0.21887 0.17772-0.36455 0.36252-0.375 0.375-6.1e-5 1.07e-4 -0.03118-1.23e-4 -0.03125 0-0.07544 0.13095-5.41 9.4309-7.625 14-0.7547 1.5568-1.6525 4.0696-2.4688 6.6562 3.3766-3.0393 6.2735-5.2175 7.0625-5.8125-0.15066-0.74086-0.25503-1.7765-0.15625-3.1562 0.18858-2.6341 1.306-5.2903 2.3438-7.375 0.93934-1.8869 1.6789-2.9971 1.8438-3.25 0.011-0.04406 0.05429-0.21114 0-0.53125-0.05032-0.29673-0.10584-0.58654-0.59375-0.90625z" fill="url(#linearGradient10392)" fill-rule="evenodd"/>
  <path id="path10408" transform="matrix(.4631 -.88631 .88631 .4631 .97992 69.377)" d="m78.034 41.704a18.183 2.2728 0 1 1-36.365 0 18.183 2.2728 0 1 1 36.365 0z" fill="url(#radialGradient10416)"/>
  <path id="path10418" d="m66.656 29.344c-0.77115 0-1.5229 0.13397-2.25 0.34375-0.34567 0.57819-0.66489 1.1683-1 1.75 0.4105-0.06213 0.827-0.09375 1.25-0.09375 3.5615 0 6.7571 2.358 8.8438 6.0312 0.43947-1.0278 0.86359-2.0781 1.2812-3.125-2.0657-3.0196-4.9425-4.9062-8.125-4.9062z" fill="#fff" opacity=".6"/>
  <path id="path8185" d="m24.156 6c16.029 21.143-17.583 35.38-13.062 52.25 4.4006 16.423 24.273 15.596 31.438 24.531-4.9451-9.6034-11.708-9.118-14.375-18.125-6.7805-22.903 63.703-34.344 40.812-58.656h-44.812z" fill="url(#linearGradient3795)"/>
 </g>
</svg>
