<?xml version="1.0" encoding="UTF-8"?>
<svg id="svg2408" width="96" height="96" version="1.0" xmlns="http://www.w3.org/2000/svg" xmlns:cc="http://creativecommons.org/ns#" xmlns:dc="http://purl.org/dc/elements/1.1/" xmlns:rdf="http://www.w3.org/1999/02/22-rdf-syntax-ns#" xmlns:xlink="http://www.w3.org/1999/xlink">
 <defs id="defs2410">
  <linearGradient id="linearGradient3866">
   <stop id="stop3868" stop-color="#9c9c9c" stop-opacity=".29008" offset="0"/>
   <stop id="stop3870" stop-color="#fff" offset="1"/>
  </linearGradient>
  <linearGradient id="linearGradient3865">
   <stop id="stop3867" stop-color="#3c3c3c" offset="0"/>
   <stop id="stop3869" stop-color="#131313" offset="1"/>
  </linearGradient>
  <linearGradient id="ButtonShadow" x1="45.448" x2="45.448" y1="92.54" y2="7.0165" gradientTransform="scale(1.0059 .99417)" gradientUnits="userSpaceOnUse">
   <stop id="stop3750" offset="0"/>
   <stop id="stop3752" stop-opacity=".58824" offset="1"/>
  </linearGradient>
  <linearGradient id="linearGradient3706" x1="48" x2="48" y1="90" y2="5.9877" gradientUnits="userSpaceOnUse">
   <stop id="stop3702" stop-color="#e6e6e6" offset="0"/>
   <stop id="stop3704" stop-color="#f5f5f5" offset="1"/>
  </linearGradient>
  <filter id="filter3174" color-interpolation-filters="sRGB">
   <feGaussianBlur id="feGaussianBlur3176" stdDeviation="1.71"/>
  </filter>
  <linearGradient id="ButtonShadow-0" x1="45.448" x2="45.448" y1="92.54" y2="7.0165" gradientTransform="matrix(1.0059 0 0 .99417 100 0)" gradientUnits="userSpaceOnUse">
   <stop id="stop3750-8" offset="0"/>
   <stop id="stop3752-5" stop-opacity=".58824" offset="1"/>
  </linearGradient>
  <linearGradient id="linearGradient3780" x1="32.251" x2="32.251" y1="6.1317" y2="90.239" gradientTransform="matrix(1.0238 0 0 1.0119 -1.1429 -98.071)" gradientUnits="userSpaceOnUse" xlink:href="#ButtonShadow-0"/>
  <linearGradient id="linearGradient3721" x1="32.251" x2="32.251" y1="6.1317" y2="90.239" gradientTransform="translate(0,-97)" gradientUnits="userSpaceOnUse" xlink:href="#ButtonShadow-0"/>
  <radialGradient id="radialGradient2886" cx="48" cy="90.172" r="42" gradientTransform="matrix(1.1573 0 0 .99591 -7.551 .19713)" gradientUnits="userSpaceOnUse">
   <stop id="stop3739-6" stop-color="#fff" offset="0"/>
   <stop id="stop3741-0" stop-color="#fff" stop-opacity="0" offset="1"/>
  </radialGradient>
  <linearGradient id="linearGradient3923" x1="36.357" x2="36.357" y1="6" y2="63.893" gradientUnits="userSpaceOnUse">
   <stop id="stop3739-9" stop-color="#fff" offset="0"/>
   <stop id="stop3741-3" stop-color="#fff" stop-opacity="0" offset="1"/>
  </linearGradient>
  <clipPath id="clipPath3613">
   <rect id="rect3615" x="6" y="6" width="84" height="84" rx="6" ry="6" fill="#fff"/>
  </clipPath>
  <filter id="filter3794" x="-.192" y="-.192" width="1.384" height="1.384" color-interpolation-filters="sRGB">
   <feGaussianBlur id="feGaussianBlur3796" stdDeviation="5.28"/>
  </filter>
  <linearGradient id="linearGradient2890" x1="48" x2="48" y1="20.221" y2="138.66" gradientUnits="userSpaceOnUse">
   <stop id="stop3739-2" stop-color="#fff" offset="0"/>
   <stop id="stop3741-1" stop-color="#fff" stop-opacity="0" offset="1"/>
  </linearGradient>
  <radialGradient id="radialGradient3873" cx="48" cy="55.266" r="10" gradientTransform="matrix(1.6 -8.6671e-8 1.7334e-7 3.2 -108.8 -112.85)" gradientUnits="userSpaceOnUse" xlink:href="#linearGradient3865"/>
  <radialGradient id="radialGradient3932" cx="48" cy="54.164" r="10.007" gradientTransform="matrix(1.5989 7.831e-8 -1.5662e-7 3.1978 -28.748 -109.21)" gradientUnits="userSpaceOnUse" xlink:href="#linearGradient3865"/>
  <linearGradient id="linearGradient4004" x1="43" x2="43" y1="192" y2="33" gradientUnits="userSpaceOnUse" xlink:href="#linearGradient3866"/>
  <linearGradient id="linearGradient3872" x1="49" x2="49" y1="20" y2="59" gradientUnits="userSpaceOnUse" xlink:href="#linearGradient3866"/>
 </defs>
 <metadata id="metadata2413">
  <rdf:RDF>
   <cc:Work rdf:about="">
    <dc:format>image/svg+xml</dc:format>
    <dc:type rdf:resource="http://purl.org/dc/dcmitype/StillImage"/>
    <dc:title/>
   </cc:Work>
  </rdf:RDF>
 </metadata>
 <g id="layer2" display="none">
  <rect id="rect3745" x="5" y="7" width="86" height="85" rx="6" ry="6" fill="url(#ButtonShadow)" filter="url(#filter3174)" opacity=".9"/>
 </g>
 <g id="layer6">
  <path id="path3786" transform="scale(1,-1)" d="m12-95.031c-5.5111 0-10.031 4.5202-10.031 10.031v71c0 5.5111 4.5202 10.031 10.031 10.031h72c5.5111 0 10.031-4.5202 10.031-10.031v-71c0-5.5111-4.5202-10.031-10.031-10.031h-72z" fill="url(#linearGradient3780)" opacity=".08"/>
  <path id="path3778" transform="scale(1,-1)" d="m12-94.031c-4.9716 0-9.0312 4.0596-9.0312 9.0312v71c0 4.9716 4.0596 9.0312 9.0312 9.0312h72c4.9716 0 9.0312-4.0596 9.0312-9.0312v-71c0-4.9716-4.0596-9.0312-9.0312-9.0312h-72z" fill="url(#linearGradient3780)" opacity=".1"/>
  <path id="path3770" transform="scale(1,-1)" d="m12-93c-4.4091 0-8 3.5909-8 8v71c0 4.4091 3.5909 8 8 8h72c4.4091 0 8-3.5909 8-8v-71c0-4.4091-3.5909-8-8-8h-72z" fill="url(#linearGradient3780)" opacity=".2"/>
  <rect id="rect3723" transform="scale(1,-1)" x="5" y="-92" width="86" height="85" rx="7" ry="7" fill="url(#linearGradient3780)" opacity=".3"/>
  <rect id="rect3716" transform="scale(1,-1)" x="6" y="-91" width="84" height="84" rx="6" ry="6" fill="url(#linearGradient3721)" opacity=".45"/>
 </g>
 <g id="layer1">
  <rect id="rect2419" x="6" y="6" width="84" height="84" rx="6" ry="6" fill="url(#linearGradient3706)"/>
  <path id="rect3728" d="m12 6c-3.324 0-6 2.676-6 6v2 68 2c0 0.33472 0.04135 0.6507 0.09375 0.96875 0.0487 0.2956 0.09704 0.59692 0.1875 0.875 0.0099 0.03038 0.02089 0.0636 0.03125 0.09375 0.09886 0.28777 0.23488 0.54745 0.375 0.8125 0.14459 0.27351 0.31562 0.53562 0.5 0.78125s0.37378 0.47347 0.59375 0.6875c0.43995 0.42806 0.94291 0.81453 1.5 1.0938 0.27854 0.13961 0.57347 0.24695 0.875 0.34375-0.2562-0.10022-0.48671-0.23627-0.71875-0.375-0.0074-0.0044-0.02387 0.0045-0.03125 0-0.03193-0.0193-0.06229-0.04251-0.09375-0.0625-0.1204-0.0767-0.23102-0.16351-0.34375-0.25-0.10617-0.0808-0.21328-0.16111-0.3125-0.25-0.17793-0.16143-0.34746-0.34539-0.5-0.53125-0.10758-0.13026-0.21839-0.26528-0.3125-0.40625-0.02509-0.03838-0.03845-0.08587-0.0625-0.125-0.06476-0.10303-0.13023-0.20452-0.1875-0.3125-0.10101-0.19471-0.20568-0.4157-0.28125-0.625-8e-3 -0.02181-0.02359-0.04055-0.03125-0.0625-0.03183-0.09195-0.0358-0.18683-0.0625-0.28125-0.030332-0.10662-0.070389-0.20303-0.09375-0.3125-0.072879-0.34151-0.125-0.6982-0.125-1.0625v-2-68-2c0-2.7818 2.2182-5 5-5h2 68 2c2.7818 0 5 2.2182 5 5v2 68 2c0 0.3643-0.05212 0.72099-0.125 1.0625-0.04415 0.20689-0.08838 0.39766-0.15625 0.59375-0.0077 0.02195-0.0233 0.04069-0.03125 0.0625-0.06274 0.17374-0.13838 0.36745-0.21875 0.53125-0.04158 0.0828-0.07904 0.16995-0.125 0.25-0.0546 0.09721-0.12677 0.18835-0.1875 0.28125-0.09411 0.14096-0.20492 0.276-0.3125 0.40625-0.14317 0.17445-0.30314 0.347-0.46875 0.5-0.01117 0.0102-0.01998 0.02115-0.03125 0.03125-0.13839 0.12556-0.28509 0.23444-0.4375 0.34375-0.10257 0.07315-0.20432 0.15336-0.3125 0.21875-0.0074 0.0045-0.02384-0.0044-0.03125 0-0.23204 0.13873-0.46255 0.27478-0.71875 0.375 0.30153-0.0968 0.59646-0.20414 0.875-0.34375 0.55709-0.27922 1.0601-0.66569 1.5-1.0938 0.21997-0.21403 0.40937-0.44186 0.59375-0.6875s0.35541-0.50774 0.5-0.78125c0.14012-0.26505 0.27614-0.52473 0.375-0.8125 0.01041-0.03078 0.02133-0.06274 0.03125-0.09375 0.09046-0.27808 0.1388-0.5794 0.1875-0.875 0.0524-0.31805 0.09375-0.63403 0.09375-0.96875v-2-68-2c0-3.324-2.676-6-6-6h-72z" fill="url(#linearGradient3923)" opacity=".5"/>
  <path id="path3615" d="m12 90c-3.324 0-6-2.676-6-6v-2-68-2c0-0.33472 0.04135-0.6507 0.09375-0.96875 0.0487-0.2956 0.09704-0.59692 0.1875-0.875 0.00988-0.03038 0.020892-0.0636 0.03125-0.09375 0.098865-0.28777 0.23488-0.54745 0.375-0.8125 0.14459-0.27351 0.31562-0.53562 0.5-0.78125s0.37378-0.47347 0.59375-0.6875c0.43995-0.42806 0.94291-0.81453 1.5-1.0938 0.27854-0.13961 0.57347-0.24695 0.875-0.34375-0.2562 0.10022-0.48671 0.23627-0.71875 0.375-0.00741 0.0044-0.023866-0.0045-0.03125 0-0.031933 0.0193-0.062293 0.04251-0.09375 0.0625-0.1204 0.0767-0.23102 0.16351-0.34375 0.25-0.10617 0.0808-0.21328 0.16111-0.3125 0.25-0.17793 0.16143-0.34746 0.34539-0.5 0.53125-0.10758 0.13026-0.21839 0.26528-0.3125 0.40625-0.025089 0.03838-0.038446 0.08587-0.0625 0.125-0.064763 0.10303-0.13023 0.20452-0.1875 0.3125-0.10101 0.19471-0.20567 0.4157-0.28125 0.625-0.00796 0.02181-0.023589 0.04055-0.03125 0.0625-0.031825 0.09195-0.035804 0.18683-0.0625 0.28125-0.030332 0.10662-0.070389 0.20303-0.09375 0.3125-0.072879 0.34151-0.125 0.6982-0.125 1.0625v2 68 2c0 2.7818 2.2182 5 5 5h2 68 2c2.7818 0 5-2.2182 5-5v-2-68-2c0-0.3643-0.05212-0.72099-0.125-1.0625-0.04415-0.20689-0.08838-0.39766-0.15625-0.59375-0.0077-0.02195-0.0233-0.04069-0.03125-0.0625-0.06274-0.17374-0.13838-0.36745-0.21875-0.53125-0.04158-0.0828-0.07904-0.16995-0.125-0.25-0.0546-0.09721-0.12677-0.18835-0.1875-0.28125-0.09411-0.14096-0.20492-0.276-0.3125-0.40625-0.14317-0.17445-0.30314-0.347-0.46875-0.5-0.01117-0.0102-0.01998-0.02115-0.03125-0.03125-0.13839-0.12556-0.28509-0.23444-0.4375-0.34375-0.10257-0.07315-0.20432-0.15336-0.3125-0.21875-0.0074-0.0045-0.02384 0.0044-0.03125 0-0.23204-0.13873-0.46255-0.27478-0.71875-0.375 0.30153 0.0968 0.59646 0.20414 0.875 0.34375 0.55709 0.27922 1.0601 0.66569 1.5 1.0938 0.21997 0.21403 0.40937 0.44186 0.59375 0.6875s0.35541 0.50774 0.5 0.78125c0.14012 0.26505 0.27614 0.52473 0.375 0.8125 0.01041 0.03078 0.02133 0.06274 0.03125 0.09375 0.09046 0.27808 0.1388 0.5794 0.1875 0.875 0.0524 0.31805 0.09375 0.63403 0.09375 0.96875v2 68 2c0 3.324-2.676 6-6 6h-72z" fill="url(#radialGradient2886)" opacity=".4"/>
  <rect id="rect3654" x="-94" y="6" width="84" height="84" rx="6" ry="6" fill="#f0f"/>
  <rect id="rect3797" x="112" y="8" width="16" height="16" color="#000000" fill="#fff" stroke="#000" stroke-dashoffset="8.6" stroke-linecap="round" stroke-width=".5"/>
  <text id="text3799" x="131.39261" y="11.969256" fill="#000000" font-family="Liberation Sans" font-size="4px" style="line-height:125%" xml:space="preserve"><tspan id="tspan3801" x="131.39261" y="11.969256">Width: 2px</tspan><tspan id="tspan3803" x="131.39261" y="16.969257">Blur: 12</tspan><tspan id="tspan3807" x="131.39261" y="21.969257">Opacity: 60</tspan></text>
 </g>
 <g id="layer3" display="none">
  <rect id="rect3171" x="15" y="15" width="66" height="66" rx="12" ry="12" clip-path="url(#clipPath3613)" fill="url(#linearGradient2890)" filter="url(#filter3794)" opacity=".5" stroke="#fff" stroke-linecap="round" stroke-width=".5"/>
 </g>
 <g id="layer4">
  <path id="path3862" d="m48 19.938c-6.6401 0-12.062 5.4224-12.062 12.062 0 4.2161 2.2294 7.8728 5.5312 10.031l-5.4688 29.188v0.03125c-0.0073 0.05282-0.06265 0.40796-0.0625 0.40625 1.56e-4 -0.0018 4.7e-5 0.4706 0 0.46875-4.7e-5 -0.0019 0.0315 0.43933 0.03125 0.4375-2.5e-4 -0.0018 0.0942 0.4393 0.09375 0.4375-4.5e-4 -0.0018 0.12564 0.43924 0.125 0.4375-6.45e-4 -0.0017 0.18833 0.4079 0.1875 0.40625-8.31e-4 -0.0017 0.21976 0.4078 0.21875 0.40625-1e-3 -0.0016 0.25117 0.34518 0.25 0.34375-0.0012-0.0014 0.31382 0.34504 0.3125 0.34375-0.0013-0.0013 0.34521 0.28239 0.34375 0.28125-0.0015-0.0011 0.34532 0.28222 0.34375 0.28125-0.0016-9.75e-4 0.40792 0.1883 0.40625 0.1875-0.0017-7.97e-4 0.408 0.18811 0.40625 0.1875-0.0017-6.09e-4 0.4393 0.12541 0.4375 0.125-0.0018-4.13e-4 0.43934 0.06271 0.4375 0.0625-0.0018-2.12e-4 0.4706 0.03126 0.46875 0.03125h16c-0.0019 9e-6 0.47059-0.03146 0.46875-0.03125-0.0018 2.12e-4 0.4393-0.06291 0.4375-0.0625-0.0018 4.13e-4 0.43925-0.12561 0.4375-0.125-0.0017 6.09e-4 0.40792-0.1883 0.40625-0.1875-0.0017 7.97e-4 0.40782-0.18848 0.40625-0.1875-0.0016 9.75e-4 0.34521-0.28239 0.34375-0.28125-0.0015 0.0011 0.34507-0.28254 0.34375-0.28125-0.0013 0.0013 0.31367-0.34518 0.3125-0.34375-0.0012 0.0014 0.25101-0.3453 0.25-0.34375-1e-3 0.0016 0.21958-0.4079 0.21875-0.40625-8.31e-4 0.0017 0.18814-0.40798 0.1875-0.40625-6.45e-4 0.0017 0.12545-0.4393 0.125-0.4375-4.5e-4 0.0018 0.094-0.43933 0.09375-0.4375-2.5e-4 0.0018 0.0313-0.43935 0.03125-0.4375-4.7e-5 0.0019-1.56e-4 -0.47059 0-0.46875 1.45e-4 0.0017-0.05517-0.35343-0.0625-0.40625v-0.03125l-5.4688-29.188c3.3019-2.1585 5.5312-5.8152 5.5312-10.031 0-6.6401-5.4224-12.062-12.062-12.062z" color="#000000" fill="url(#linearGradient3872)"/>
  <path id="path3089" d="m-32 26c-5.5228 0-10 4.4772-10 10 0 3.0424 1.3563 5.7596 3.5 7.5938l-3.4375 24.094c-0.17353 1.1117 0.81239 2.2566 1.9375 2.25h16c1.1251 0.0066 2.111-1.1383 1.9375-2.25l-3.4375-24.094c2.1437-1.8341 3.5-4.5513 3.5-7.5938 0-5.5228-4.4772-10-10-10z" color="#000000" fill="url(#radialGradient3873)"/>
  <path id="path3888" d="m-32 26c-5.5228 0-10 4.4772-10 10 0 3.0424 1.3563 5.7596 3.5 7.5938l-3.4375 24.094c-0.17353 1.1117 0.81239 2.2566 1.9375 2.25h16c1.1251 0.0066 2.111-1.1383 1.9375-2.25l-3.4375-24.094c2.1437-1.8341 3.5-4.5513 3.5-7.5938 0-5.5228-4.4772-10-10-10zm0 1.9688c4.4514 0 8.0312 3.5798 8.0312 8.0312 0 2.4532-1.0899 4.6199-2.8125 6.0938a1.9827 1.9827 0 0 0-0.6875 1.7812l3.4375 24.094h-15.938l3.4375-24.094a1.9827 1.9827 0 0 0-0.6875-1.7812c-1.7226-1.4738-2.8125-3.6405-2.8125-6.0938 0-4.4514 3.5798-8.0312 8.0312-8.0312z" color="#000000" opacity=".3"/>
  <path id="path3875" d="m-32 26c-5.5228 0-10 4.4772-10 10 0 3.0424 1.3563 5.7596 3.5 7.5938l-3.4375 24.094c-0.17353 1.1117 0.81239 2.2566 1.9375 2.25h16c1.1251 0.0066 2.111-1.1383 1.9375-2.25l-3.4375-24.094c2.1437-1.8341 3.5-4.5513 3.5-7.5938 0-5.5228-4.4772-10-10-10zm0 0.96875c5.0009 0 9.0312 4.0304 9.0312 9.0312 0 2.7554-1.2177 5.2164-3.1562 6.875a0.96593 0.96593 0 0 0-0.34375 0.84375l3.4375 24.094a0.96593 0.96593 0 0 0 0 0.03125c0.07196 0.46102-0.50215 1.1277-0.96875 1.125h-16c-0.46659 0.0027-1.0407-0.66398-0.96875-1.125a0.96593 0.96593 0 0 0 0-0.03125l3.4375-24.094a0.96593 0.96593 0 0 0-0.34375-0.84375c-1.9385-1.6586-3.1562-4.1196-3.1562-6.875 0-5.0009 4.0304-9.0312 9.0312-9.0312z" color="#000000"/>
  <path id="path3901" d="m-41.969 36.531c-0.007153 0.15519-0.03125 0.31179-0.03125 0.46875 0 2.9791 1.3082 5.6371 3.375 7.4688l0.125-0.875c-2.0171-1.7258-3.3199-4.2377-3.4688-7.0625zm19.938 0c-0.14883 2.8248-1.4516 5.3367-3.4688 7.0625l0.125 0.875c2.0668-1.8317 3.375-4.4896 3.375-7.4688 0-0.15696-0.0241-0.31356-0.03125-0.46875zm-19.875 31.844-0.03125 0.3125c-0.17353 1.1117 0.81239 2.2566 1.9375 2.25h16c1.1251 0.0066 2.111-1.1383 1.9375-2.25l-0.03125-0.3125c-0.21327 0.84659-1.0185 1.5677-1.9062 1.5625h-16c-0.88773 0.0052-1.693-0.71591-1.9062-1.5625z" color="#000000" fill="#fff"/>
  <path id="path3910" d="m-32 25c-5.5228 0-10 4.4772-10 10 0 0.17962 0.02191 0.35401 0.03125 0.53125 0.24455-5.3055 4.6029-9.5312 9.9688-9.5312s9.7242 4.2258 9.9688 9.5312c0.009338-0.17724 0.03125-0.35163 0.03125-0.53125 0-5.5228-4.4772-10-10-10zm-6.625 18.469-3.3125 23.219c-0.03661 0.23454-0.02578 0.46112 0.03125 0.6875l3.4062-23.781c-0.04458-0.03814-0.0811-0.0861-0.125-0.125zm13.25 0c-0.0439 0.0389-0.08042 0.08686-0.125 0.125l3.4062 23.781c0.05703-0.22638 0.06786-0.45296 0.03125-0.6875l-3.3125-23.219z" color="#000000" opacity=".15"/>
  <path id="path3919" d="m48 22c-5.5228 0-10 4.4772-10 10 0 4.009 2.3443 7.468 5.75 9.0625l-5.7188 30.562a2.0167 2.0167 0 0 0 1.9688 2.4062h16a2.0167 2.0167 0 0 0 1.9688-2.4062l-5.7188-30.562c3.4057-1.5945 5.75-5.0535 5.75-9.0625 0-5.5228-4.4772-10-10-10z" color="#000000" fill="url(#radialGradient3932)"/>
  <path id="path3947" d="m48 22c-5.5228 0-10 4.4772-10 10 0 4.009 2.3443 7.468 5.75 9.0625l-5.7188 30.562a2.0167 2.0167 0 0 0 1.9688 2.4062h16a2.0167 2.0167 0 0 0 1.9688-2.4062l-5.7188-30.562c3.4057-1.5945 5.75-5.0535 5.75-9.0625 0-5.5228-4.4772-10-10-10zm0 2.0312c4.424 0 7.9688 3.5448 7.9688 7.9688 0 3.2163-1.8862 5.9511-4.5938 7.2188a2.0335 2.0335 0 0 0-1.125 2.2188l5.7188 30.562h-15.938l5.7188-30.562a2.0335 2.0335 0 0 0-1.125-2.2188c-2.7075-1.2676-4.5938-4.0024-4.5938-7.2188 0-4.424 3.5448-7.9688 7.9688-7.9688z" color="#000000" opacity=".3"/>
  <path id="path3934" d="m48 22c-5.5228 0-10 4.4772-10 10 0 4.009 2.3443 7.468 5.75 9.0625l-5.7188 30.562a2.0167 2.0167 0 0 0 1.9688 2.4062h16a2.0167 2.0167 0 0 0 1.9688-2.4062l-5.7188-30.562c3.4057-1.5945 5.75-5.0535 5.75-9.0625 0-5.5228-4.4772-10-10-10zm0 1c4.9826 0 9 4.0174 9 9 0 3.6193-2.1251 6.7225-5.1875 8.1562a0.99982 0.99982 0 0 0-0.53125 1.0938l5.7188 30.562c0.010683 0.054267-0.007683 0.007728 0 0.0625s-0.00466 0.007389 0 0.0625-0.001623 0.007216 0 0.0625 0.001419-0.02404 0 0.03125 0.004456 0.007372 0 0.0625 0.007481 0.0077 0 0.0625 0.010482 0.008194 0 0.0625-0.017798-0.022397-0.03125 0.03125 0.016381 0.009673 0 0.0625-0.01199 0.010654-0.03125 0.0625 0.022082-0.019459 0 0.03125-0.006414 0.013082-0.03125 0.0625-0.003734 0.014522-0.03125 0.0625-0.001138-0.015142-0.03125 0.03125 0.001367 0.017833-0.03125 0.0625 0.003773-0.011556-0.03125 0.03125 0.006074-0.009566-0.03125 0.03125-0.022989 0.023798-0.0625 0.0625 0.010329-0.005221-0.03125 0.03125 0.012271-0.00288-0.03125 0.03125-0.017168-4.36e-4 -0.0625 0.03125 0.015755 0.002104-0.03125 0.03125-0.013963 0.004733-0.0625 0.03125 0.018671 0.007441-0.03125 0.03125-0.011345 0.010222-0.0625 0.03125-0.010267-0.018184-0.0625 0 0.021904 0.015965-0.03125 0.03125-0.008586-0.012339-0.0625 0-0.007989 0.021894-0.0625 0.03125-0.007557-0.006345-0.0625 0 0.023959-0.003315-0.03125 0-0.007193-2.75e-4 -0.0625 0h-16c-0.055307-2.75e-4 -0.007291 0.003315-0.0625 0s0.023693 0.006345-0.03125 0-0.007989 0.009356-0.0625 0-0.008586-0.018911-0.0625-0.03125-0.009346 0.015285-0.0625 0 0.020983-0.013066-0.03125-0.03125-0.011345 0.021028-0.0625 0-0.012579-0.007441-0.0625-0.03125 0.017287-0.004733-0.03125-0.03125-0.015495-0.002104-0.0625-0.03125 0.014082 4.36e-4 -0.03125-0.03125-0.018979 0.00288-0.0625-0.03125 0.010329 0.005221-0.03125-0.03125 0.008261 0.007452-0.03125-0.03125-0.025176-0.021684-0.0625-0.0625 0.003773 0.011556-0.03125-0.03125 0.001367 0.013417-0.03125-0.03125-0.001138-0.016108-0.03125-0.0625-0.003734 0.016728-0.03125-0.03125-0.006414-0.013082-0.03125-0.0625-0.009168-0.011791-0.03125-0.0625 0.01926 0.020596 0-0.03125-0.014869-0.009673-0.03125-0.0625 0.013452-0.008853 0-0.0625-0.020768 0.023056-0.03125-0.03125 0.007481-0.0077 0-0.0625 0.004456-0.007372 0-0.0625 0.001419-0.00721 0-0.0625-0.001623 0.024034 0-0.03125-0.00466-0.007389 0-0.0625-0.007683-0.007728 0-0.0625-0.010683-0.008233 0-0.0625l5.7188-30.562a0.99982 0.99982 0 0 0-0.53125-1.0938c-3.0624-1.4338-5.1875-4.537-5.1875-8.1562 0-4.9826 4.0174-9 9-9z" color="#000000" opacity=".6"/>
  <path id="path3969" d="m38.031 32.75c-0.00206 0.083509-0.03125 0.166-0.03125 0.25 0 3.9438 2.2778 7.3408 5.5938 8.9688l0.15625-0.90625c-3.1929-1.4949-5.4487-4.6233-5.7188-8.3125zm19.938 0c-0.27002 3.6892-2.5259 6.8176-5.7188 8.3125l0.15625 0.90625c3.316-1.6279 5.5938-5.025 5.5938-8.9688 0-0.084005-0.02919-0.16649-0.03125-0.25zm-19.906 39.75-0.03125 0.125a2.0167 2.0167 0 0 0 1.9688 2.4062h16a2.0167 2.0167 0 0 0 1.9688-2.4062l-0.03125-0.09375a2.0167 2.0167 0 0 1-1.9375 1.5h-16a2.0167 2.0167 0 0 1-1.9375-1.5312z" color="#000000" fill="#fff" opacity=".5"/>
  <path id="path3982" d="m48 19.062c-6.4271-0.13228-12.337 5.2201-12.87 11.62-0.52847 4.5275 1.6861 9.1604 5.4016 11.755-1.821 9.7189-3.6576 19.436-5.4688 29.156-0.30013 2.9373 2.3746 5.649 5.318 5.375 5.3937-0.0205 10.79 0.04122 16.182-0.03125 2.9979-0.25737 5.0767-3.5392 4.1876-6.3737-1.7605-9.3754-3.5209-18.751-5.2814-28.126 4.762-3.2382 6.8031-9.8392 4.5671-15.167-1.866-4.8443-6.8309-8.2723-12.036-8.2077zm0 0.96875c6.0545-0.13102 11.593 5.0092 11.934 11.052 0.39155 4.2894-1.8741 8.6055-5.4962 10.886 1.8229 9.7604 3.6458 19.521 5.4688 29.281 0.57894 2.6399-1.9236 5.1221-4.5405 4.75-5.2674-0.020661-10.538 0.041437-15.803-0.03125-2.5292-0.20394-4.1189-3.0073-3.3523-5.3422 1.7841-9.5526 3.5682-19.105 5.3523-28.658-4.718-2.8797-6.8497-9.2344-4.6975-14.346 1.7252-4.4827 6.3198-7.6522 11.135-7.5919z" color="#000000" fill="url(#linearGradient4004)" opacity=".5"/>
 </g>
</svg>
