<?xml version="1.0" encoding="UTF-8"?>
<svg id="svg2408" width="96" height="96" version="1.0" xmlns="http://www.w3.org/2000/svg" xmlns:cc="http://creativecommons.org/ns#" xmlns:dc="http://purl.org/dc/elements/1.1/" xmlns:rdf="http://www.w3.org/1999/02/22-rdf-syntax-ns#" xmlns:xlink="http://www.w3.org/1999/xlink">
 <defs id="defs2410">
  <linearGradient id="linearGradient3960" x1="483.1" x2="483.1" y1="724.99" y2="836.99" gradientTransform="translate(-400.1 -607.99)" gradientUnits="userSpaceOnUse">
   <stop id="stop3962" stop-color="#D174F0" offset="0"/>
   <stop id="stop3964" stop-color="#8a1cc2" offset="1"/>
  </linearGradient>
  <linearGradient id="ButtonShadow" x1="45.448" x2="45.448" y1="92.54" y2="7.0165" gradientTransform="scale(1.0059 .99417)" gradientUnits="userSpaceOnUse">
   <stop id="stop3750" offset="0"/>
   <stop id="stop3752" stop-opacity=".58824" offset="1"/>
  </linearGradient>
  <filter id="filter3174" color-interpolation-filters="sRGB">
   <feGaussianBlur id="feGaussianBlur3176" stdDeviation="1.71"/>
  </filter>
  <linearGradient id="ButtonShadow-0" x1="45.448" x2="45.448" y1="92.54" y2="7.0165" gradientTransform="matrix(1.0059 0 0 .99417 100 0)" gradientUnits="userSpaceOnUse">
   <stop id="stop3750-8" offset="0"/>
   <stop id="stop3752-5" stop-opacity=".58824" offset="1"/>
  </linearGradient>
  <linearGradient id="linearGradient3780" x1="32.251" x2="32.251" y1="6.1317" y2="90.239" gradientTransform="matrix(1.0238 0 0 1.0119 -1.1429 -98.071)" gradientUnits="userSpaceOnUse" xlink:href="#ButtonShadow-0"/>
  <linearGradient id="linearGradient3721" x1="32.251" x2="32.251" y1="6.1317" y2="90.239" gradientTransform="translate(0,-97)" gradientUnits="userSpaceOnUse" xlink:href="#ButtonShadow-0"/>
  <linearGradient id="linearGradient3923-0" x1="36.357" x2="36.357" y1="6" y2="63.893" gradientUnits="userSpaceOnUse">
   <stop id="stop3739-9-7" stop-color="#fff" offset="0"/>
   <stop id="stop3741-3-7" stop-color="#fff" stop-opacity="0" offset="1"/>
  </linearGradient>
  <radialGradient id="radialGradient2886-8" cx="48" cy="90.172" r="42" gradientTransform="matrix(1.1573 0 0 .99591 -7.551 .19713)" gradientUnits="userSpaceOnUse">
   <stop id="stop3739-6-6" stop-color="#fff" offset="0"/>
   <stop id="stop3741-0-7" stop-color="#fff" stop-opacity="0" offset="1"/>
  </radialGradient>
  <linearGradient id="linearGradient3100" x1="48" x2="48" y1="90" y2="5.9877" gradientUnits="userSpaceOnUse">
   <stop id="stop3702-2" stop-color="#e6e6e6" offset="0"/>
   <stop id="stop3704-9" stop-color="#f5f5f5" offset="1"/>
  </linearGradient>
  <clipPath id="clipPath3613-0">
   <rect id="rect3615-6" x="6" y="6" width="84" height="84" rx="6" ry="6" fill="#fff"/>
  </clipPath>
  <filter id="filter3794" x="-.192" y="-.192" width="1.384" height="1.384" color-interpolation-filters="sRGB">
   <feGaussianBlur id="feGaussianBlur3796" stdDeviation="5.28"/>
  </filter>
  <linearGradient id="linearGradient3121" x1="48" x2="48" y1="20.221" y2="138.66" gradientUnits="userSpaceOnUse">
   <stop id="stop3739-2-0" stop-color="#fff" offset="0"/>
   <stop id="stop3741-1-9" stop-color="#fff" stop-opacity="0" offset="1"/>
  </linearGradient>
  <clipPath id="clipPath3144">
   <path id="path3146" d="m118.5 17c-3.5898 0-6.5 2.0147-6.5 4.5 0.10443 0.9272 0.69059 2.098 1 2.5 1.5 2 1.5 3.25 1.125 4h-12.125c-2.216 0-4 1.784-4 4v10.125c0.75 0.375 2 0.375 4-1.125 0.40197-0.30941 1.5728-0.89557 2.5-1 2.4853 0 4.5 2.9101 4.5 6.5s-2.0147 6.5-4.5 6.5c-0.76276-0.01292-1.9224-0.6951-2.5-1-2-1.5-3.25-1.5-4-1.125v13.125c0 2.216 1.784 4 4 4h16.125c0.375-0.75 0.375-2-1.125-4-0.30941-0.40197-0.89557-1.5728-1-2.5 0-2.4853 2.9102-4.5 6.5-4.5s6.5 2.0147 6.5 4.5c-0.0129 0.76276-0.6951 1.9224-1 2.5-1.5 2-1.5 3.25-1.125 4h7.125c2.216 0 4-1.784 4-4v-11.125c0.75-0.375 2-0.375 4 1.125 0.57763 0.3049 1.7372 0.98708 2.5 1 2.4853 0 4.5-2.9101 4.5-6.5s-2.0147-6.5-4.5-6.5c-0.9272 0.10443-2.098 0.69059-2.5 1-2 1.5-3.25 1.5-4 1.125v-12.125c0-2.216-1.784-4-4-4h-11.125c-0.375-0.75-0.375-2 1.125-4 0.3049-0.57763 0.98708-1.7372 1-2.5 0-2.4853-2.9102-4.5-6.5-4.5z" color="#000000" fill="url(#linearGradient3148)"/>
  </clipPath>
  <linearGradient id="linearGradient3148" x1="40" x2="40" y1="24" y2="64" gradientTransform="translate(70)" gradientUnits="userSpaceOnUse" xlink:href="#linearGradient3960"/>
 </defs>
 <metadata id="metadata2413">
  <rdf:RDF>
   <cc:Work rdf:about="">
    <dc:format>image/svg+xml</dc:format>
    <dc:type rdf:resource="http://purl.org/dc/dcmitype/StillImage"/>
    <dc:title/>
   </cc:Work>
  </rdf:RDF>
 </metadata>
 <g id="layer2" display="none">
  <rect id="rect3745" x="5" y="7" width="86" height="85" rx="6" ry="6" fill="url(#ButtonShadow)" filter="url(#filter3174)" opacity=".9"/>
 </g>
 <g id="layer6">
  <path id="path3786" transform="scale(1,-1)" d="m12-95.031c-5.5111 0-10.031 4.5202-10.031 10.031v71c0 5.5111 4.5202 10.031 10.031 10.031h72c5.5111 0 10.031-4.5202 10.031-10.031v-71c0-5.5111-4.5202-10.031-10.031-10.031h-72z" fill="url(#linearGradient3780)" opacity=".08"/>
  <path id="path3778" transform="scale(1,-1)" d="m12-94.031c-4.9716 0-9.0312 4.0596-9.0312 9.0312v71c0 4.9716 4.0596 9.0312 9.0312 9.0312h72c4.9716 0 9.0312-4.0596 9.0312-9.0312v-71c0-4.9716-4.0596-9.0312-9.0312-9.0312h-72z" fill="url(#linearGradient3780)" opacity=".1"/>
  <path id="path3770" transform="scale(1,-1)" d="m12-93c-4.4091 0-8 3.5909-8 8v71c0 4.4091 3.5909 8 8 8h72c4.4091 0 8-3.5909 8-8v-71c0-4.4091-3.5909-8-8-8h-72z" fill="url(#linearGradient3780)" opacity=".2"/>
  <rect id="rect3723" transform="scale(1,-1)" x="5" y="-92" width="86" height="85" rx="7" ry="7" fill="url(#linearGradient3780)" opacity=".3"/>
  <rect id="rect3716" transform="scale(1,-1)" x="6" y="-91" width="84" height="84" rx="6" ry="6" fill="url(#linearGradient3721)" opacity=".45"/>
 </g>
 <g id="layer1">
  <rect id="rect2419" x="6" y="6" width="84" height="84" rx="6" ry="6" fill="url(#linearGradient3100)"/>
  <path id="rect3728-1" d="m12 6c-3.324 0-6 2.676-6 6v2 68 2c0 0.33472 0.0413 0.6507 0.0937 0.96875 0.0487 0.2956 0.097 0.59692 0.1875 0.875 0.01 0.03038 0.0209 0.0636 0.0312 0.09375 0.0989 0.28777 0.23488 0.54745 0.375 0.8125 0.14459 0.27351 0.31562 0.53562 0.5 0.78125s0.37378 0.47347 0.59375 0.6875c0.43995 0.42806 0.94291 0.81453 1.5 1.0938 0.27854 0.13961 0.57347 0.24695 0.875 0.34375-0.2562-0.10022-0.48671-0.23627-0.71875-0.375-7e-3 -0.0044-0.0239 0.0045-0.0312 0-0.0319-0.0193-0.0623-0.04251-0.0937-0.0625-0.1204-0.0767-0.23102-0.16351-0.34375-0.25-0.10617-0.0808-0.21328-0.16111-0.3125-0.25-0.17793-0.16143-0.34746-0.34539-0.5-0.53125-0.10758-0.13026-0.21839-0.26528-0.3125-0.40625-0.0251-0.03838-0.0384-0.08587-0.0625-0.125-0.0648-0.10303-0.13023-0.20452-0.1875-0.3125-0.10101-0.19471-0.20567-0.4157-0.28125-0.625-8e-3 -0.02181-0.0236-0.04055-0.0312-0.0625-0.0318-0.09195-0.0358-0.18683-0.0625-0.28125-0.0303-0.10662-0.0704-0.20303-0.0937-0.3125-0.07298-0.34151-0.1251-0.6982-0.1251-1.0625v-2-68-2c0-2.7818 2.2182-5 5-5h2 68 2c2.7818 0 5 2.2182 5 5v2 68 2c0 0.3643-0.0521 0.72099-0.125 1.0625-0.0442 0.20689-0.0884 0.39766-0.15625 0.59375-8e-3 0.02195-0.0233 0.04069-0.0312 0.0625-0.0627 0.17374-0.13838 0.36745-0.21875 0.53125-0.0416 0.0828-0.079 0.16995-0.125 0.25-0.0546 0.09721-0.12677 0.18835-0.1875 0.28125-0.0941 0.14096-0.20492 0.276-0.3125 0.40625-0.14317 0.17445-0.30314 0.347-0.46875 0.5-0.0112 0.0102-0.02 0.02115-0.0312 0.03125-0.13839 0.12556-0.28509 0.23444-0.4375 0.34375-0.10257 0.07315-0.20432 0.15336-0.3125 0.21875-7e-3 0.0045-0.0238-0.0044-0.0312 0-0.23204 0.13873-0.46255 0.27478-0.71875 0.375 0.30153-0.0968 0.59645-0.20414 0.875-0.34375 0.55709-0.27922 1.06-0.66569 1.5-1.0938 0.21997-0.21403 0.40937-0.44186 0.59375-0.6875s0.35541-0.50774 0.5-0.78125c0.14012-0.26505 0.27613-0.52473 0.375-0.8125 0.0104-0.03078 0.0213-0.06274 0.0312-0.09375 0.0905-0.27808 0.1388-0.5794 0.1875-0.875 0.0523-0.31805 0.09365-0.63403 0.09365-0.96875v-2-68-2c0-3.324-2.676-6-6-6h-72z" fill="url(#linearGradient3923-0)" opacity=".5"/>
  <path id="path3615-0" d="m12 90c-3.324 0-6-2.676-6-6v-2-68-2c0-0.33472 0.0413-0.6507 0.0937-0.96875 0.0487-0.2956 0.097-0.59692 0.1875-0.875 0.01-0.03038 0.0209-0.0636 0.0312-0.09375 0.0989-0.28777 0.23488-0.54745 0.375-0.8125 0.14459-0.27351 0.31562-0.53562 0.5-0.78125s0.37378-0.47347 0.59375-0.6875c0.43995-0.42806 0.94291-0.81453 1.5-1.0938 0.27854-0.13961 0.57347-0.24695 0.875-0.34375-0.2562 0.10022-0.48671 0.23627-0.71875 0.375-7e-3 0.0044-0.0239-0.0045-0.0312 0-0.0319 0.0193-0.0623 0.04251-0.0937 0.0625-0.1204 0.0767-0.23102 0.16351-0.34375 0.25-0.10617 0.0808-0.21328 0.16111-0.3125 0.25-0.17793 0.16143-0.34746 0.34539-0.5 0.53125-0.10758 0.13026-0.21839 0.26528-0.3125 0.40625-0.0251 0.03838-0.0384 0.08587-0.0625 0.125-0.0648 0.10303-0.13023 0.20452-0.1875 0.3125-0.10101 0.19471-0.20567 0.4157-0.28125 0.625-8e-3 0.02181-0.0236 0.04055-0.0312 0.0625-0.0318 0.09195-0.0358 0.18683-0.0625 0.28125-0.0303 0.10662-0.0704 0.20303-0.0937 0.3125-0.07298 0.34151-0.1251 0.6982-0.1251 1.0625v2 68 2c0 2.7818 2.2182 5 5 5h2 68 2c2.7818 0 5-2.2182 5-5v-2-68-2c0-0.3643-0.0521-0.72099-0.125-1.0625-0.0442-0.20689-0.0884-0.39766-0.15625-0.59375-8e-3 -0.02195-0.0233-0.04069-0.0312-0.0625-0.0627-0.17374-0.13838-0.36745-0.21875-0.53125-0.0416-0.0828-0.079-0.16995-0.125-0.25-0.0546-0.09721-0.12677-0.18835-0.1875-0.28125-0.0941-0.14096-0.20492-0.276-0.3125-0.40625-0.14317-0.17445-0.30314-0.347-0.46875-0.5-0.0112-0.0102-0.02-0.02115-0.0312-0.03125-0.13839-0.12556-0.28509-0.23444-0.4375-0.34375-0.10257-0.07315-0.20432-0.15336-0.3125-0.21875-7e-3 -0.0045-0.0238 0.0044-0.0312 0-0.23204-0.13873-0.46255-0.27478-0.71875-0.375 0.30153 0.0968 0.59645 0.20414 0.875 0.34375 0.55709 0.27922 1.06 0.66569 1.5 1.0938 0.21997 0.21403 0.40937 0.44186 0.59375 0.6875s0.35541 0.50774 0.5 0.78125c0.14012 0.26505 0.27613 0.52473 0.375 0.8125 0.0104 0.03078 0.0213 0.06274 0.0312 0.09375 0.0905 0.27808 0.1388 0.5794 0.1875 0.875 0.0523 0.31805 0.09365 0.63403 0.09365 0.96875v2 68 2c0 3.324-2.676 6-6 6h-72z" fill="url(#radialGradient2886-8)" opacity=".4"/>
  <rect id="rect3654" x="-94" y="6" width="84" height="84" rx="6" ry="6" fill="#f0f"/>
  <rect id="rect3797" x="112" y="8" width="16" height="16" color="#000000" fill="#fff" stroke="#000" stroke-dashoffset="8.6" stroke-linecap="round" stroke-width=".5"/>
  <text id="text3799" x="131.39261" y="11.969256" fill="#000000" font-family="Liberation Sans" font-size="4px" style="line-height:125%" xml:space="preserve"><tspan id="tspan3801" x="131.39261" y="11.969256">Width: 2px</tspan><tspan id="tspan3803" x="131.39261" y="16.969257">Blur: 12</tspan><tspan id="tspan3807" x="131.39261" y="21.969257">Opacity: 60</tspan></text>
 </g>
 <g id="layer3" display="none">
  <rect id="rect3171" x="15" y="15" width="66" height="66" rx="12" ry="12" clip-path="url(#clipPath3613-0)" display="inline" fill="url(#linearGradient3121)" filter="url(#filter3794)" opacity=".5" stroke="#fff" stroke-linecap="round" stroke-width=".5"/>
 </g>
 <g id="layer4">
  <path id="rect4096" transform="translate(-70)" d="m118.5 17c-3.5898 0-6.5 2.0147-6.5 4.5 0.10443 0.9272 0.69059 2.098 1 2.5 1.5 2 1.5 3.25 1.125 4h-12.125c-2.216 0-4 1.784-4 4v10.125c0.75 0.375 2 0.375 4-1.125 0.40197-0.30941 1.5728-0.89557 2.5-1 2.4853 0 4.5 2.9101 4.5 6.5s-2.0147 6.5-4.5 6.5c-0.76276-0.01292-1.9224-0.6951-2.5-1-2-1.5-3.25-1.5-4-1.125v13.125c0 2.216 1.784 4 4 4h16.125c0.375-0.75 0.375-2-1.125-4-0.30941-0.40197-0.89557-1.5728-1-2.5 0-2.4853 2.9102-4.5 6.5-4.5s6.5 2.0147 6.5 4.5c-0.0129 0.76276-0.6951 1.9224-1 2.5-1.5 2-1.5 3.25-1.125 4h7.125c2.216 0 4-1.784 4-4v-11.125c0.75-0.375 2-0.375 4 1.125 0.57763 0.3049 1.7372 0.98708 2.5 1 2.4853 0 4.5-2.9101 4.5-6.5s-2.0147-6.5-4.5-6.5c-0.9272 0.10443-2.098 0.69059-2.5 1-2 1.5-3.25 1.5-4 1.125v-12.125c0-2.216-1.784-4-4-4h-11.125c-0.375-0.75-0.375-2 1.125-4 0.3049-0.57763 0.98708-1.7372 1-2.5 0-2.4853-2.9102-4.5-6.5-4.5z" clip-path="url(#clipPath3144)" color="#000000" fill="url(#linearGradient3148)"/>
  <path id="path4157" d="m48.5 17c-3.5899 0-6.5 2.0147-6.5 4.5 0.10443 0.9272 0.69059 2.098 1 2.5 1.5 2 1.5 3.25 1.125 4h-12.125c-2.216 0-4 1.784-4 4v10.125c0.75 0.375 2 0.375 4-1.125 0.40197-0.30941 1.5728-0.89557 2.5-1 2.4853 0 4.5 2.9101 4.5 6.5s-2.0147 6.5-4.5 6.5c-0.76276-0.01292-1.9224-0.6951-2.5-1-2-1.5-3.25-1.5-4-1.125v13.125c0 2.216 1.784 4 4 4h16.125c0.375-0.75 0.375-2-1.125-4-0.30941-0.40197-0.89557-1.5728-1-2.5 0-2.4853 2.9101-4.5 6.5-4.5s6.5 2.0147 6.5 4.5c-0.01292 0.76276-0.6951 1.9224-1 2.5-1.5 2-1.5 3.25-1.125 4h7.125c2.216 0 4-1.784 4-4v-11.125c0.75-0.375 2-0.375 4 1.125 0.57763 0.3049 1.7372 0.98708 2.5 1 2.4853 0 4.5-2.9101 4.5-6.5s-2.0147-6.5-4.5-6.5c-0.9272 0.10443-2.098 0.69059-2.5 1-2 1.5-3.25 1.5-4 1.125v-12.125c0-2.216-1.784-4-4-4h-11.125c-0.375-0.75-0.375-2 1.125-4 0.3049-0.57763 0.98708-1.7372 1-2.5 0-2.4853-2.9101-4.5-6.5-4.5zm0 1.9375c1.4299 0 2.7056 0.45004 3.5 1 0.77948 0.53964 1.0525 1.0568 1.0625 1.5312 0.0084-0.01462-6.02e-4 4.63e-4 0 0.03125-0.02887 0.06517-0.11088 0.26533-0.21875 0.5-0.16406 0.35691-0.38124 0.75034-0.5625 1.0938h0.03125c-1.5665 2.2157-1.9213 4.3136-1.1875 5.7812a1.9514 1.9514 0 0 0 1.75 1.0625h11.125c1.1688 0 2.0625 0.89371 2.0625 2.0625v12.125a1.9514 1.9514 0 0 0 1.0625 1.75c1.5256 0.76282 3.7191 0.42164 6.0312-1.3125a1.9514 1.9514 0 0 0 0.03125-0.03125c-0.09907 0.07626 1.0458-0.46506 1.4375-0.5625 0.45139 0.0417 0.93223 0.30141 1.4375 1.0312 0.54996 0.79438 1 2.0701 1 3.5s-0.45004 2.7056-1 3.5c-0.53964 0.77948-1.0568 1.0525-1.5312 1.0625 0.0092 1.56e-4 -0.03777 1.28e-4 -0.03125 0-0.06517-0.02887-0.26533-0.11088-0.5-0.21875-0.35691-0.16406-0.75034-0.38124-1.0938-0.5625v0.03125c-2.2157-1.5665-4.3136-1.9213-5.7812-1.1875a1.9514 1.9514 0 0 0-1.0625 1.75v11.125c0 1.1688-0.89371 2.0625-2.0625 2.0625h-4.9688c0.14588-0.27766 0.17685-0.43372 0.53125-0.90625a1.9514 1.9514 0 0 0 0.15625-0.25c0.12363-0.23422 0.39976-0.72326 0.65625-1.2812s0.54648-1.1477 0.5625-2.0938a1.9514 1.9514 0 0 0 0-0.03125c0-2.0042-1.1606-3.7025-2.7188-4.7812s-3.5588-1.6562-5.7188-1.6562-4.1606 0.57752-5.7188 1.6562-2.7188 2.777-2.7188 4.7812a1.9514 1.9514 0 0 0 0 0.21875c0.17273 1.5336 0.68804 2.5368 1.375 3.4375 0.0085 0.01116 0.02268 0.02012 0.03125 0.03125 0.33026 0.44485 0.36005 0.60862 0.5 0.875h-13.969c-1.1688 0-2.0625-0.89371-2.0625-2.0625v-10.969c0.27766 0.14588 0.43372 0.17685 0.90625 0.53125a1.9514 1.9514 0 0 0 0.25 0.15625c0.23422 0.12363 0.72326 0.39976 1.2812 0.65625s1.1477 0.54648 2.0938 0.5625a1.9514 1.9514 0 0 0 0.03125 0c2.0042 0 3.7025-1.1606 4.7812-2.7188s1.6562-3.5588 1.6562-5.7188-0.57752-4.1606-1.6562-5.7188-2.777-2.7188-4.7812-2.7188a1.9514 1.9514 0 0 0-0.21875 0c-1.5336 0.17273-2.5368 0.68804-3.4375 1.375-0.01116 0.0085-0.02012 0.02268-0.03125 0.03125-0.44485 0.33026-0.60862 0.36005-0.875 0.5v-7.9688c0-1.1688 0.89371-2.0625 2.0625-2.0625h12.125a1.9514 1.9514 0 0 0 1.75-1.0625c0.76282-1.5256 0.42164-3.7191-1.3125-6.0312a1.9514 1.9514 0 0 0-0.03125-0.03125c0.07626 0.09907-0.46506-1.0458-0.5625-1.4375 0.0417-0.45139 0.30141-0.93223 1.0312-1.4375 0.79438-0.54996 2.0701-1 3.5-1z" color="#000000" opacity=".08"/>
  <path id="path4144" d="m48.5 17c-3.5899 0-6.5 2.0147-6.5 4.5 0.01239 0.11004 0.0378 0.22854 0.0625 0.34375 0.45592-2.1766 3.1672-3.8438 6.4375-3.8438s5.9816 1.6672 6.4375 3.8438c0.024208-0.1169 0.06073-0.23924 0.0625-0.34375 0-2.4853-2.9101-4.5-6.5-4.5zm-4.2188 10.562c-0.036569 0.15874-0.092125 0.30925-0.15625 0.4375h-12.125c-2.216 0-4 1.784-4 4v1c0-2.216 1.784-4 4-4h12.125c0.17788-0.35577 0.26721-0.83003 0.15625-1.4375zm8.4375 0c-0.11096 0.60747-0.021635 1.0817 0.15625 1.4375h11.125c2.216 0 4 1.784 4 4v-1c0-2.216-1.784-4-4-4h-11.125c-0.06412-0.12825-0.11968-0.27876-0.15625-0.4375zm21.781 14.438c-0.9272 0.10443-2.098 0.69059-2.5 1-2 1.5-3.25 1.5-4 1.125v1c0.75 0.375 2 0.375 4-1.125 0.40197-0.30941 1.5728-0.89557 2.5-1 2.367 0 4.2894 2.6474 4.4688 6 0.008959-0.16752 0.03125-0.32916 0.03125-0.5 0-3.5899-2.0147-6.5-4.5-6.5zm-35.531 5c-0.1793 3.3526-2.1017 6-4.4688 6-0.76276-0.01292-1.9224-0.6951-2.5-1-2-1.5-3.25-1.5-4-1.125v1c0.75-0.375 2-0.375 4 1.125 0.57763 0.3049 1.7372 0.98708 2.5 1 2.4853 0 4.5-2.9101 4.5-6.5 0-0.17084-0.02229-0.33248-0.03125-0.5zm7.0938 14.844c-0.044554 0.2127-0.0625 0.435-0.0625 0.65625 0.10443 0.9272 0.69059 2.098 1 2.5 0.78846 1.0513 1.1583 1.8894 1.2812 2.5625 0.17728-0.76957-0.03775-1.9045-1.2812-3.5625-0.27269-0.35426-0.7541-1.3007-0.9375-2.1562zm12.875 0c-0.15247 0.73624-0.67438 1.6578-0.9375 2.1562-1.2435 1.658-1.4585 2.7929-1.2812 3.5625 0.12295-0.67314 0.49279-1.5112 1.2812-2.5625 0.3049-0.57763 0.98708-1.7372 1-2.5 0-0.22125-0.01795-0.44355-0.0625-0.65625z" color="#000000" opacity=".3"/>
  <path id="path4153" d="m48.5 17c-3.5899 0-6.5 2.0147-6.5 4.5 0.10443 0.9272 0.69059 2.098 1 2.5 1.5 2 1.5 3.25 1.125 4h-12.125c-2.216 0-4 1.784-4 4v10.125c0.75 0.375 2 0.375 4-1.125 0.40197-0.30941 1.5728-0.89557 2.5-1 2.4853 0 4.5 2.9101 4.5 6.5s-2.0147 6.5-4.5 6.5c-0.76276-0.01292-1.9224-0.6951-2.5-1-2-1.5-3.25-1.5-4-1.125v13.125c0 2.216 1.784 4 4 4h16.125c0.375-0.75 0.375-2-1.125-4-0.30941-0.40197-0.89557-1.5728-1-2.5 0-2.4853 2.9101-4.5 6.5-4.5s6.5 2.0147 6.5 4.5c-0.01292 0.76276-0.6951 1.9224-1 2.5-1.5 2-1.5 3.25-1.125 4h7.125c2.216 0 4-1.784 4-4v-11.125c0.75-0.375 2-0.375 4 1.125 0.57763 0.3049 1.7372 0.98708 2.5 1 2.4853 0 4.5-2.9101 4.5-6.5s-2.0147-6.5-4.5-6.5c-0.9272 0.10443-2.098 0.69059-2.5 1-2 1.5-3.25 1.5-4 1.125v-12.125c0-2.216-1.784-4-4-4h-11.125c-0.375-0.75-0.375-2 1.125-4 0.3049-0.57763 0.98708-1.7372 1-2.5 0-2.4853-2.9101-4.5-6.5-4.5zm0 1c1.6093 0 3.0492 0.4451 4.0312 1.125 0.97081 0.6721 1.4575 1.4988 1.4688 2.3438 1.3e-4 0.0098 0 0.02144 0 0.03125-8e-3 0.11043-0.10019 0.51235-0.28125 0.90625-0.18677 0.40633-0.42665 0.80842-0.59375 1.125h0.03125c-1.5235 2.0943-1.7161 3.7865-1.1562 4.9062a0.9923 0.9923 0 0 0 0.875 0.5625h11.125c1.6835 0 3 1.3165 3 3v12.125a0.9923 0.9923 0 0 0 0.5625 0.875c1.1444 0.57221 2.8725 0.40031 5.0312-1.2188 0.13936-0.10728 1.341-0.65046 1.9688-0.75 0.83147 0.02538 1.6505 0.48133 2.3125 1.4375 0.6799 0.98208 1.125 2.4219 1.125 4.0312s-0.4451 3.0492-1.125 4.0312c-0.6721 0.97081-1.4988 1.4575-2.3438 1.4688-0.0029-4.9e-5 -0.02777 2.54e-4 -0.03125 0-0.11043-8e-3 -0.51235-0.10019-0.90625-0.28125-0.40633-0.18677-0.80842-0.42665-1.125-0.59375v0.03125c-2.0943-1.5235-3.7865-1.7161-4.9062-1.1562a0.9923 0.9923 0 0 0-0.5625 0.875v11.125c0 1.6835-1.3165 3-3 3h-6.2812c-0.02466-0.46257 0.09554-1.117 1.0625-2.4062a0.9923 0.9923 0 0 0 0.09375-0.125c0.13779-0.26105 0.39123-0.74142 0.625-1.25s0.48868-1.019 0.5-1.6875a0.9923 0.9923 0 0 0 0-0.03125c0-1.6299-0.97329-3.0512-2.3438-4s-3.1757-1.5-5.1562-1.5-3.7858 0.55122-5.1562 1.5-2.3438 2.3701-2.3438 4a0.9923 0.9923 0 0 0 0 0.125c0.14025 1.2452 0.71074 2.3088 1.2188 2.9688 0.96696 1.2893 1.0872 1.9437 1.0625 2.4062h-15.281c-1.6835 0-3-1.3165-3-3v-12.281c0.46257-0.02466 1.117 0.09554 2.4062 1.0625a0.9923 0.9923 0 0 0 0.125 0.09375c0.26105 0.13779 0.74142 0.39123 1.25 0.625s1.019 0.48868 1.6875 0.5a0.9923 0.9923 0 0 0 0.03125 0c1.6299 0 3.0512-0.97329 4-2.3438s1.5-3.1757 1.5-5.1562-0.55122-3.7858-1.5-5.1562-2.3701-2.3438-4-2.3438a0.9923 0.9923 0 0 0-0.125 0c-1.2452 0.14025-2.3088 0.71074-2.9688 1.2188-1.2893 0.96696-1.9437 1.0872-2.4062 1.0625v-9.2812c0-1.6835 1.3165-3 3-3h12.125a0.9923 0.9923 0 0 0 0.875-0.5625c0.57221-1.1444 0.40031-2.8725-1.2188-5.0312-0.10728-0.13936-0.65046-1.341-0.75-1.9688 0.02538-0.83147 0.48133-1.6505 1.4375-2.3125 0.98208-0.6799 2.4219-1.125 4.0312-1.125z" color="#000000" opacity=".15"/>
  <path id="path4167" d="m42.062 21.844c-0.044554 0.2127-0.0625 0.435-0.0625 0.65625 0.10443 0.9272 0.69059 2.098 1 2.5 0.78846 1.0513 1.1583 1.8894 1.2812 2.5625 0.17728-0.76957-0.03775-1.9045-1.2812-3.5625-0.27269-0.35426-0.7541-1.3007-0.9375-2.1562zm12.875 0c-0.15247 0.73624-0.67438 1.6578-0.9375 2.1562-1.2435 1.658-1.4585 2.7929-1.2812 3.5625 0.12295-0.67314 0.49279-1.5112 1.2812-2.5625 0.3049-0.57763 0.98708-1.7372 1-2.5 0-0.22125-0.01795-0.44355-0.0625-0.65625zm-20.438 18.156c-0.9272 0.10443-2.098 0.69059-2.5 1-2 1.5-3.25 1.5-4 1.125v1c0.75 0.375 2 0.375 4-1.125 0.40197-0.30941 1.5728-0.89557 2.5-1 2.367 0 4.2894 2.6474 4.4688 6 0.008959-0.16752 0.03125-0.32916 0.03125-0.5 0-3.5899-2.0147-6.5-4.5-6.5zm44.469 9c-0.1793 3.3526-2.1017 6-4.4688 6-0.76276-0.012919-1.9224-0.6951-2.5-1-2-1.5-3.25-1.5-4-1.125v1c0.75-0.375 2-0.375 4 1.125 0.57763 0.3049 1.7372 0.98708 2.5 1 2.4853 0 4.5-2.9101 4.5-6.5 0-0.17084-0.02229-0.33248-0.03125-0.5zm-26.469 8c-3.5899 0-6.5 2.0147-6.5 4.5 0.01239 0.11004 0.0378 0.22854 0.0625 0.34375 0.45592-2.1766 3.1672-3.8438 6.4375-3.8438s5.9816 1.6672 6.4375 3.8438c0.024208-0.1169 0.06073-0.23924 0.0625-0.34375 0-2.4853-2.9101-4.5-6.5-4.5zm-24.5 7v1c0 2.216 1.784 4 4 4h16.125c0.17788-0.35577 0.26721-0.83003 0.15625-1.4375-0.036569 0.15874-0.092125 0.30925-0.15625 0.4375h-16.125c-2.216 0-4-1.784-4-4zm40 0c0 2.216-1.784 4-4 4h-7.125c-0.064125-0.12825-0.11968-0.27876-0.15625-0.4375-0.11096 0.60747-0.021635 1.0817 0.15625 1.4375h7.125c2.216 0 4-1.784 4-4v-1z" color="#000000" fill="#fff" opacity=".75"/>
 </g>
</svg>
