<?xml version="1.0" encoding="UTF-8"?>
<svg id="svg2408" width="96" height="96" version="1.0" xmlns="http://www.w3.org/2000/svg" xmlns:cc="http://creativecommons.org/ns#" xmlns:dc="http://purl.org/dc/elements/1.1/" xmlns:rdf="http://www.w3.org/1999/02/22-rdf-syntax-ns#" xmlns:xlink="http://www.w3.org/1999/xlink">
 <defs id="defs2410">
  <linearGradient id="ButtonShadow" x1="45.448" x2="45.448" y1="92.54" y2="7.0165" gradientTransform="scale(1.0059 .99417)" gradientUnits="userSpaceOnUse">
   <stop id="stop3750" offset="0"/>
   <stop id="stop3752" stop-opacity=".58824" offset="1"/>
  </linearGradient>
  <linearGradient id="linearGradient3706" x1="48" x2="48" y1="90" y2="5.9877" gradientUnits="userSpaceOnUse">
   <stop id="stop3702" stop-color="#ebebeb" offset="0"/>
   <stop id="stop3704" stop-color="#fafafa" offset="1"/>
  </linearGradient>
  <filter id="filter3174" color-interpolation-filters="sRGB">
   <feGaussianBlur id="feGaussianBlur3176" stdDeviation="1.71"/>
  </filter>
  <linearGradient id="ButtonShadow-0" x1="45.448" x2="45.448" y1="92.54" y2="7.0165" gradientTransform="matrix(1.0059 0 0 .99417 100 0)" gradientUnits="userSpaceOnUse">
   <stop id="stop3750-8" offset="0"/>
   <stop id="stop3752-5" stop-opacity=".58824" offset="1"/>
  </linearGradient>
  <linearGradient id="linearGradient3780" x1="32.251" x2="32.251" y1="6.1317" y2="90.239" gradientTransform="matrix(1.0238 0 0 1.0119 -1.1429 -98.071)" gradientUnits="userSpaceOnUse" xlink:href="#ButtonShadow-0"/>
  <linearGradient id="linearGradient3721" x1="32.251" x2="32.251" y1="6.1317" y2="90.239" gradientTransform="translate(0,-97)" gradientUnits="userSpaceOnUse" xlink:href="#ButtonShadow-0"/>
  <radialGradient id="radialGradient2886" cx="48" cy="90.172" r="42" gradientTransform="matrix(1.1573 0 0 .99591 -7.551 .19713)" gradientUnits="userSpaceOnUse">
   <stop id="stop3739-6" stop-color="#fff" offset="0"/>
   <stop id="stop3741-0" stop-color="#fff" stop-opacity="0" offset="1"/>
  </radialGradient>
  <linearGradient id="linearGradient3923" x1="36.357" x2="36.357" y1="6" y2="63.893" gradientUnits="userSpaceOnUse">
   <stop id="stop3739-9" stop-color="#fff" offset="0"/>
   <stop id="stop3741-3" stop-color="#fff" stop-opacity="0" offset="1"/>
  </linearGradient>
  <clipPath id="clipPath3948">
   <path id="path3950" d="m-88 6c-3.324 0-6 2.676-6 6v72c0 3.324 2.676 6 6 6h72c3.324 0 6-2.676 6-6v-72c0-3.324-2.676-6-6-6h-72zm31.844 12h8.3125c1.1806 0 2.125 0.98668 2.125 2.1875v4.2188c2.1111 0.56248 4.1231 1.4266 5.9688 2.5l3-3.0312c0.84911-0.84902 2.1964-0.86608 3.0312-0.03125l5.875 5.875c0.83485 0.83485 0.81786 2.1821-0.03125 3.0312l-3.0312 3c1.0734 1.8456 1.9375 3.8577 2.5 5.9688h4.2188c1.2008 0 2.1875 0.94436 2.1875 2.125v8.3125c0 1.1807-0.98667 2.125-2.1875 2.125h-4.2188c-0.56247 2.1111-1.4266 4.1231-2.5 5.9688l3.0312 3c0.84911 0.84911 0.86609 2.1964 0.03125 3.0312l-5.875 5.875c-0.83484 0.83492-2.1821 0.81786-3.0312-0.03125l-3-3.0312c-1.8456 1.0734-3.8577 1.9375-5.9688 2.5v4.2188c0 1.2008-0.94435 2.1875-2.125 2.1875h-8.3125c-1.1806 0-2.125-0.98667-2.125-2.1875v-4.2188c-2.1111-0.56248-4.1231-1.4266-5.9688-2.5l-3 3.0312c-0.84911 0.84902-2.1964 0.86608-3.0312 0.03125l-5.875-5.875c-0.41742-0.41742-0.6298-0.98183-0.625-1.5312 0.0047-0.54942 0.23169-1.0754 0.65625-1.5l3.0312-3c-1.0734-1.8456-1.9375-3.8577-2.5-5.9688h-4.2188c-1.2008 0-2.1875-0.94435-2.1875-2.125v-8.3125c0-1.1806 0.98667-2.125 2.1875-2.125h4.2188c0.56247-2.1111 1.4266-4.1231 2.5-5.9688l-3.0312-3c-0.84911-0.84911-0.86609-2.1964-0.03125-3.0312l5.875-5.875c0.83484-0.83493 2.1821-0.81786 3.0312 0.03125l3 3.0312c1.8456-1.0734 3.8577-1.9375 5.9688-2.5v-4.2188c0-1.2008 0.94436-2.1875 2.125-2.1875zm4.1562 20.938c-5.0065 0-9.0625 4.056-9.0625 9.0625 0 5.0065 4.056 9.0625 9.0625 9.0625 5.0065 0 9.0625-4.056 9.0625-9.0625 0-5.0065-4.056-9.0625-9.0625-9.0625z" fill="#f0f"/>
  </clipPath>
  <filter id="filter3952" x="-.144" y="-.144" width="1.288" height="1.288">
   <feGaussianBlur id="feGaussianBlur3954" stdDeviation="3.6000051"/>
  </filter>
  <clipPath id="clipPath3613">
   <rect id="rect3615" x="6" y="6" width="84" height="84" rx="6" ry="6" fill="#fff"/>
  </clipPath>
  <filter id="filter3794" x="-.192" y="-.192" width="1.384" height="1.384" color-interpolation-filters="sRGB">
   <feGaussianBlur id="feGaussianBlur3796" stdDeviation="5.28"/>
  </filter>
  <linearGradient id="linearGradient4481" x1="48" x2="48" y1="20.221" y2="138.66" gradientUnits="userSpaceOnUse">
   <stop id="stop3739-2" stop-color="#fff" offset="0"/>
   <stop id="stop3741-1" stop-color="#fff" stop-opacity="0" offset="1"/>
  </linearGradient>
  <linearGradient id="linearGradient3921" x1="18" x2="78" y1="48" y2="48" gradientTransform="matrix(0,1,1,0,1.9e-4,-1.9e-4)" gradientUnits="userSpaceOnUse">
   <stop id="stop3973" stop-color="#4a91d6" offset="0"/>
   <stop id="stop3977" stop-color="#225c95" offset="1"/>
  </linearGradient>
 </defs>
 <metadata id="metadata2413">
  <rdf:RDF>
   <cc:Work rdf:about="">
    <dc:format>image/svg+xml</dc:format>
    <dc:type rdf:resource="http://purl.org/dc/dcmitype/StillImage"/>
    <dc:title/>
   </cc:Work>
  </rdf:RDF>
 </metadata>
 <g id="layer2" display="none">
  <rect id="rect3745" x="5" y="7" width="86" height="85" rx="6" ry="6" fill="url(#ButtonShadow)" filter="url(#filter3174)" opacity=".9"/>
 </g>
 <g id="layer6">
  <path id="path3786" transform="scale(1,-1)" d="m12-95.031c-5.5111 0-10.031 4.5202-10.031 10.031v71c0 5.5111 4.5202 10.031 10.031 10.031h72c5.5111 0 10.031-4.5202 10.031-10.031v-71c0-5.5111-4.5202-10.031-10.031-10.031h-72z" fill="url(#linearGradient3780)" opacity=".08"/>
  <path id="path3778" transform="scale(1,-1)" d="m12-94.031c-4.9716 0-9.0312 4.0596-9.0312 9.0312v71c0 4.9716 4.0596 9.0312 9.0312 9.0312h72c4.9716 0 9.0312-4.0596 9.0312-9.0312v-71c0-4.9716-4.0596-9.0312-9.0312-9.0312h-72z" fill="url(#linearGradient3780)" opacity=".1"/>
  <path id="path3770" transform="scale(1,-1)" d="m12-93c-4.4091 0-8 3.5909-8 8v71c0 4.4091 3.5909 8 8 8h72c4.4091 0 8-3.5909 8-8v-71c0-4.4091-3.5909-8-8-8h-72z" fill="url(#linearGradient3780)" opacity=".2"/>
  <rect id="rect3723" transform="scale(1,-1)" x="5" y="-92" width="86" height="85" rx="7" ry="7" fill="url(#linearGradient3780)" opacity=".3"/>
  <rect id="rect3716" transform="scale(1,-1)" x="6" y="-91" width="84" height="84" rx="6" ry="6" fill="url(#linearGradient3721)" opacity=".45"/>
 </g>
 <g id="layer1">
  <rect id="rect2419" x="6" y="6" width="84" height="84" rx="6" ry="6" fill="url(#linearGradient3706)"/>
  <path id="rect3728" d="m12 6c-3.324 0-6 2.676-6 6v2 68 2c0 0.33472 0.04135 0.6507 0.09375 0.96875 0.0487 0.2956 0.09704 0.59692 0.1875 0.875 0.0099 0.03038 0.02089 0.0636 0.03125 0.09375 0.09886 0.28777 0.23488 0.54745 0.375 0.8125 0.14459 0.27351 0.31562 0.53562 0.5 0.78125s0.37378 0.47347 0.59375 0.6875c0.43995 0.42806 0.94291 0.81453 1.5 1.0938 0.27854 0.13961 0.57347 0.24695 0.875 0.34375-0.2562-0.10022-0.48671-0.23627-0.71875-0.375-0.0074-0.0044-0.02387 0.0045-0.03125 0-0.03193-0.0193-0.06229-0.04251-0.09375-0.0625-0.1204-0.0767-0.23102-0.16351-0.34375-0.25-0.10617-0.0808-0.21328-0.16111-0.3125-0.25-0.17793-0.16143-0.34746-0.34539-0.5-0.53125-0.10758-0.13026-0.21839-0.26528-0.3125-0.40625-0.02509-0.03838-0.03845-0.08587-0.0625-0.125-0.06476-0.10303-0.13023-0.20452-0.1875-0.3125-0.10101-0.19471-0.20568-0.4157-0.28125-0.625-8e-3 -0.02181-0.02359-0.04055-0.03125-0.0625-0.03183-0.09195-0.0358-0.18683-0.0625-0.28125-0.030332-0.10662-0.070389-0.20303-0.09375-0.3125-0.072879-0.34151-0.125-0.6982-0.125-1.0625v-2-68-2c0-2.7818 2.2182-5 5-5h2 68 2c2.7818 0 5 2.2182 5 5v2 68 2c0 0.3643-0.05212 0.72099-0.125 1.0625-0.04415 0.20689-0.08838 0.39766-0.15625 0.59375-0.0077 0.02195-0.0233 0.04069-0.03125 0.0625-0.06274 0.17374-0.13838 0.36745-0.21875 0.53125-0.04158 0.0828-0.07904 0.16995-0.125 0.25-0.0546 0.09721-0.12677 0.18835-0.1875 0.28125-0.09411 0.14096-0.20492 0.276-0.3125 0.40625-0.14317 0.17445-0.30314 0.347-0.46875 0.5-0.01117 0.0102-0.01998 0.02115-0.03125 0.03125-0.13839 0.12556-0.28509 0.23444-0.4375 0.34375-0.10257 0.07315-0.20432 0.15336-0.3125 0.21875-0.0074 0.0045-0.02384-0.0044-0.03125 0-0.23204 0.13873-0.46255 0.27478-0.71875 0.375 0.30153-0.0968 0.59646-0.20414 0.875-0.34375 0.55709-0.27922 1.0601-0.66569 1.5-1.0938 0.21997-0.21403 0.40937-0.44186 0.59375-0.6875s0.35541-0.50774 0.5-0.78125c0.14012-0.26505 0.27614-0.52473 0.375-0.8125 0.01041-0.03078 0.02133-0.06274 0.03125-0.09375 0.09046-0.27808 0.1388-0.5794 0.1875-0.875 0.0524-0.31805 0.09375-0.63403 0.09375-0.96875v-2-68-2c0-3.324-2.676-6-6-6h-72z" fill="url(#linearGradient3923)" opacity=".5"/>
  <path id="path3615" d="m12 90c-3.324 0-6-2.676-6-6v-2-68-2c0-0.33472 0.04135-0.6507 0.09375-0.96875 0.0487-0.2956 0.09704-0.59692 0.1875-0.875 0.00988-0.03038 0.020892-0.0636 0.03125-0.09375 0.098865-0.28777 0.23488-0.54745 0.375-0.8125 0.14459-0.27351 0.31562-0.53562 0.5-0.78125s0.37378-0.47347 0.59375-0.6875c0.43995-0.42806 0.94291-0.81453 1.5-1.0938 0.27854-0.13961 0.57347-0.24695 0.875-0.34375-0.2562 0.10022-0.48671 0.23627-0.71875 0.375-0.00741 0.0044-0.023866-0.0045-0.03125 0-0.031933 0.0193-0.062293 0.04251-0.09375 0.0625-0.1204 0.0767-0.23102 0.16351-0.34375 0.25-0.10617 0.0808-0.21328 0.16111-0.3125 0.25-0.17793 0.16143-0.34746 0.34539-0.5 0.53125-0.10758 0.13026-0.21839 0.26528-0.3125 0.40625-0.025089 0.03838-0.038446 0.08587-0.0625 0.125-0.064763 0.10303-0.13023 0.20452-0.1875 0.3125-0.10101 0.19471-0.20567 0.4157-0.28125 0.625-0.00796 0.02181-0.023589 0.04055-0.03125 0.0625-0.031825 0.09195-0.035804 0.18683-0.0625 0.28125-0.030332 0.10662-0.070389 0.20303-0.09375 0.3125-0.072879 0.34151-0.125 0.6982-0.125 1.0625v2 68 2c0 2.7818 2.2182 5 5 5h2 68 2c2.7818 0 5-2.2182 5-5v-2-68-2c0-0.3643-0.05212-0.72099-0.125-1.0625-0.04415-0.20689-0.08838-0.39766-0.15625-0.59375-0.0077-0.02195-0.0233-0.04069-0.03125-0.0625-0.06274-0.17374-0.13838-0.36745-0.21875-0.53125-0.04158-0.0828-0.07904-0.16995-0.125-0.25-0.0546-0.09721-0.12677-0.18835-0.1875-0.28125-0.09411-0.14096-0.20492-0.276-0.3125-0.40625-0.14317-0.17445-0.30314-0.347-0.46875-0.5-0.01117-0.0102-0.01998-0.02115-0.03125-0.03125-0.13839-0.12556-0.28509-0.23444-0.4375-0.34375-0.10257-0.07315-0.20432-0.15336-0.3125-0.21875-0.0074-0.0045-0.02384 0.0044-0.03125 0-0.23204-0.13873-0.46255-0.27478-0.71875-0.375 0.30153 0.0968 0.59646 0.20414 0.875 0.34375 0.55709 0.27922 1.0601 0.66569 1.5 1.0938 0.21997 0.21403 0.40937 0.44186 0.59375 0.6875s0.35541 0.50774 0.5 0.78125c0.14012 0.26505 0.27614 0.52473 0.375 0.8125 0.01041 0.03078 0.02133 0.06274 0.03125 0.09375 0.09046 0.27808 0.1388 0.5794 0.1875 0.875 0.0524 0.31805 0.09375 0.63403 0.09375 0.96875v2 68 2c0 3.324-2.676 6-6 6h-72z" fill="url(#radialGradient2886)" opacity=".4"/>
  <rect id="rect3654" x="-94" y="6" width="84" height="84" rx="6" ry="6" fill="#f0f"/>
  <rect id="rect3797" x="112" y="8" width="16" height="16" color="#000000" fill="#fff" stroke="#000" stroke-dashoffset="8.6" stroke-linecap="round" stroke-width=".5"/>
  <text id="text3799" x="131.39261" y="11.969256" fill="#000000" font-family="Liberation Sans" font-size="4px" style="line-height:125%" xml:space="preserve"><tspan id="tspan3801" x="131.39261" y="11.969256">Width: 2px</tspan><tspan id="tspan3803" x="131.39261" y="16.969257">Blur: 12</tspan><tspan id="tspan3807" x="131.39261" y="21.969257">Opacity: 60</tspan></text>
  <path id="path3939" transform="translate(100)" d="m-82 52.142c0 1.1807 0.9794 2.1366 2.1802 2.1366h4.2296c0.56247 2.1111 1.4121 4.1282 2.4855 5.9738l-3.0087 3.0087c-0.42456 0.42456-0.64941 0.93313-0.65407 1.4826-0.0048 0.54942 0.19304 1.1087 0.61047 1.5262l5.8866 5.8866c0.83484 0.83483 2.1596 0.8055 3.0087-0.04352l3.0087-3.0087c1.8456 1.0734 3.8628 1.923 5.9738 2.4855v4.2296c0 1.2008 0.95598 2.1802 2.1366 2.1802h8.2849c1.1806 0 2.1366-0.97941 2.1366-2.1802v-4.2296c2.1111-0.56248 4.1282-1.4121 5.9738-2.4855l3.0087 3.0087c0.84911 0.84911 2.1739 0.87844 3.0087 0.04352l5.8866-5.8866c0.83484-0.83483 0.80551-2.1596-0.0436-3.0087l-3.0087-3.0087c1.0734-1.8456 1.923-3.8628 2.4855-5.9738h4.2297c1.2008 0 2.1802-0.95598 2.1802-2.1366v-8.2849c0-1.1806-0.9794-2.1366-2.1802-2.1366h-4.2297c-0.56247-2.1111-1.4121-4.1282-2.4855-5.9738l3.0087-3.0087c0.84911-0.84911 0.87845-2.1739 0.0436-3.0087l-5.8866-5.8866c-0.83484-0.83484-2.1596-0.8055-3.0087 0.04352l-3.0087 3.0087c-1.8456-1.0734-3.8628-1.923-5.9738-2.4855v-4.2297c0-1.2008-0.95598-2.1802-2.1366-2.1802h-8.2849c-1.1806 0-2.1366 0.97942-2.1366 2.1802v4.2297c-2.1111 0.56247-4.1282 1.4121-5.9738 2.4855l-3.0087-3.0087c-0.84911-0.84911-2.1739-0.87845-3.0087-0.04352l-5.8866 5.8866c-0.83484 0.83485-0.80551 2.1596 0.0436 3.0087l3.0087 3.0087c-1.0734 1.8456-1.923 3.8628-2.4855 5.9738h-4.2296c-1.2008 0-2.1802 0.95598-2.1802 2.1366v8.2849zm20.93-4.1424c0-5.0065 4.0633-9.0698 9.0698-9.0698 5.0065 0 9.0698 4.0632 9.0698 9.0698 0 5.0065-4.0633 9.0698-9.0698 9.0698-5.0065 0-9.0698-4.0633-9.0698-9.0698z" clip-path="url(#clipPath3948)" display="block" fill="none" filter="url(#filter3952)" opacity=".6" stroke="#fff" stroke-width="2"/>
 </g>
 <g id="layer3">
  <rect id="rect3171" x="15" y="15" width="66" height="66" rx="12" ry="12" clip-path="url(#clipPath3613)" fill="url(#linearGradient4481)" filter="url(#filter3794)" opacity=".5" stroke="#fff" stroke-linecap="round" stroke-width=".5"/>
 </g>
 <g id="layer4">
  <path id="rect3267" d="m18 43.857c0-1.1807 0.9794-2.1366 2.1802-2.1366h4.2296c0.56247-2.1111 1.4121-4.1282 2.4855-5.9738l-3.0087-3.0087c-0.42456-0.42456-0.64941-0.93313-0.65407-1.4826-0.0048-0.54942 0.19304-1.1087 0.61047-1.5262l5.8866-5.8866c0.83484-0.83483 2.1596-0.8055 3.0087 0.04352l3.0087 3.0087c1.8456-1.0734 3.8628-1.923 5.9738-2.4855v-4.2296c0-1.2008 0.95598-2.1802 2.1366-2.1802h8.2849c1.1806 0 2.1366 0.97941 2.1366 2.1802v4.2296c2.1111 0.56248 4.1282 1.4121 5.9738 2.4855l3.0087-3.0087c0.84911-0.84911 2.1739-0.87844 3.0087-0.04352l5.8866 5.8866c0.83484 0.83483 0.80551 2.1596-0.0436 3.0087l-3.0087 3.0087c1.0734 1.8456 1.923 3.8628 2.4855 5.9738h4.2297c1.2008 0 2.1802 0.95598 2.1802 2.1366v8.2849c0 1.1806-0.9794 2.1366-2.1802 2.1366h-4.2297c-0.56247 2.1111-1.4121 4.1282-2.4855 5.9738l3.0087 3.0087c0.84911 0.84911 0.87845 2.1739 0.0436 3.0087l-5.8866 5.8866c-0.83484 0.83484-2.1596 0.8055-3.0087-0.04352l-3.0087-3.0087c-1.8456 1.0734-3.8628 1.923-5.9738 2.4855v4.2297c0 1.2008-0.95598 2.1802-2.1366 2.1802h-8.2849c-1.1806 0-2.1366-0.97942-2.1366-2.1802v-4.2297c-2.1111-0.56247-4.1282-1.4121-5.9738-2.4855l-3.0087 3.0087c-0.84911 0.84911-2.1739 0.87845-3.0087 0.04352l-5.8866-5.8866c-0.83484-0.83485-0.80551-2.1596 0.0436-3.0087l3.0087-3.0087c-1.0734-1.8456-1.923-3.8628-2.4855-5.9738h-4.2296c-1.2008 0-2.1802-0.95598-2.1802-2.1366v-8.2849zm20.93 4.1424c0 5.0065 4.0633 9.0698 9.0698 9.0698 5.0065 0 9.0698-4.0632 9.0698-9.0698 0-5.0065-4.0633-9.0698-9.0698-9.0698-5.0065 0-9.0698 4.0633-9.0698 9.0698z" display="block" fill="url(#linearGradient3921)"/>
  <path id="path3921" d="m43.844 18c-1.1806 0-2.125 0.98668-2.125 2.1875v1c0-1.2008 0.94436-2.1875 2.125-2.1875h8.3125c1.1806 0 2.125 0.98668 2.125 2.1875v-1c0-1.2008-0.94435-2.1875-2.125-2.1875h-8.3125zm-12.625 5.2188c-0.54168-0.0091-1.0826 0.20753-1.5 0.625l-5.875 5.875c-0.54603 0.54604-0.71216 1.305-0.53125 2 0.08476-0.36282 0.24478-0.71353 0.53125-1l5.875-5.875c0.83484-0.83493 2.1821-0.81786 3.0312 0.03125l3 3.0312c1.8456-1.0734 3.8577-1.9375 5.9688-2.5v-1c-2.1111 0.56247-4.1231 1.4266-5.9688 2.5l-3-3.0312c-0.42456-0.42455-0.98956-0.64714-1.5312-0.65625zm33.562 0c-0.54169 0.0091-1.1067 0.23174-1.5312 0.65625l-3 3.0312c-1.8456-1.0734-3.8577-1.9375-5.9688-2.5v1c2.1111 0.56248 4.1231 1.4266 5.9688 2.5l3-3.0312c0.84911-0.84902 2.1964-0.86608 3.0312-0.03125l5.875 5.875c0.28647 0.28647 0.44649 0.63718 0.53125 1 0.18091-0.69503 0.01479-1.454-0.53125-2l-5.875-5.875c-0.41742-0.41742-0.95831-0.63411-1.5-0.625zm-38.219 13.188c-0.90352 1.6672-1.6585 3.4444-2.1562 5.3125h-4.2188c-1.2008 0-2.1875 0.94436-2.1875 2.125v1c0-1.1806 0.98667-2.125 2.1875-2.125h4.2188c0.56247-2.1111 1.4266-4.1231 2.5-5.9688l-0.34375-0.34375zm42.875 0-0.34375 0.34375c1.0734 1.8456 1.9375 3.8577 2.5 5.9688h4.2188c1.2008 0 2.1875 0.94436 2.1875 2.125v-1c0-1.1806-0.98667-2.125-2.1875-2.125h-4.2188c-0.49774-1.8681-1.2527-3.6453-2.1562-5.3125zm-30.469 12.094c-0.0089 0.16483-0.03125 0.33295-0.03125 0.5 0 5.0065 4.056 9.0625 9.0625 9.0625 5.0065 0 9.0625-4.056 9.0625-9.0625 0-0.16705-0.02232-0.33517-0.03125-0.5-0.25874 4.7753-4.1918 8.5625-9.0312 8.5625-4.8395 0-8.7725-3.7872-9.0312-8.5625zm-12.406 12.094-2.6875 2.6562c-0.42456 0.42456-0.65159 0.95058-0.65625 1.5-0.0016 0.1798 0.05132 0.35465 0.09375 0.53125 0.09341-0.36845 0.26266-0.7314 0.5625-1.0312l3.0312-3c-0.12354-0.21242-0.22623-0.4394-0.34375-0.65625zm42.875 0c-0.11752 0.21685-0.22021 0.44383-0.34375 0.65625l3.0312 3c0.29374 0.29375 0.46681 0.66363 0.5625 1.0312 0.16225-0.69455-0.0048-1.4735-0.5625-2.0312l-2.6875-2.6562z" display="block" opacity=".3"/>
  <path id="path3948" d="m43.844 18c-1.1806 0-2.125 0.98667-2.125 2.1875v4.2188c-2.1111 0.56248-4.1231 1.4266-5.9688 2.5l-3-3.0312c-0.84911-0.84902-2.1964-0.86608-3.0312-0.03125l-5.875 5.875c-0.41742 0.41742-0.6298 0.98183-0.625 1.5312 0.004658 0.54942 0.23169 1.0754 0.65625 1.5l3.0312 3c-1.0734 1.8456-1.9375 3.8577-2.5 5.9688h-4.2188c-1.2008 0-2.1875 0.94435-2.1875 2.125v8.3125c0 1.1806 0.98667 2.125 2.1875 2.125h4.2188c0.56247 2.1111 1.4266 4.1231 2.5 5.9688l-3.0312 3c-0.84911 0.84911-0.86609 2.1964-0.03125 3.0312l5.875 5.875c0.83484 0.83493 2.1821 0.81786 3.0312-0.03125l3-3.0312c1.8456 1.0734 3.8577 1.9375 5.9688 2.5v4.2188c0 1.2008 0.94436 2.1875 2.125 2.1875h8.3125c1.1806 0 2.125-0.98668 2.125-2.1875v-4.2188c2.1111-0.56248 4.1231-1.4266 5.9688-2.5l3 3.0312c0.84911 0.84902 2.1964 0.86608 3.0312 0.03125l5.875-5.875c0.83485-0.83485 0.81786-2.1821-0.03125-3.0312l-3.0312-3c1.0734-1.8456 1.9375-3.8577 2.5-5.9688h4.2188c1.2008 0 2.1875-0.94436 2.1875-2.125v-8.3125c0-1.1807-0.98667-2.125-2.1875-2.125h-4.2188c-0.56247-2.1111-1.4266-4.1231-2.5-5.9688l3.0312-3c0.84911-0.84911 0.86609-2.1964 0.03125-3.0312l-5.875-5.875c-0.83484-0.83492-2.1821-0.81786-3.0312 0.03125l-3 3.0312c-1.8456-1.0734-3.8577-1.9375-5.9688-2.5v-4.2188c0-1.2008-0.94435-2.1875-2.125-2.1875h-8.3125zm0 2.0312h8.3125c0.041944 0 0.09375 0.026968 0.09375 0.15625v4.2188a2.0441 2.0441 0 0 0 1.5 1.9688c1.9201 0.51159 3.7691 1.324 5.4688 2.3125a2.0441 2.0441 0 0 0 2.4688-0.34375l3-3.0312c0.094411-0.09441 0.10866-0.078847 0.15625-0.03125l5.875 5.875c0.047577 0.047577 0.063109 0.06189-0.03125 0.15625l-3.0312 3a2.0441 2.0441 0 0 0-0.34375 2.4688c0.98851 1.6997 1.8009 3.5487 2.3125 5.4688a2.0441 2.0441 0 0 0 1.9688 1.5h4.2188c0.12929 0 0.15625 0.051792 0.15625 0.09375v8.3125c0 0.041939-0.026972 0.09375-0.15625 0.09375h-4.2188a2.0441 2.0441 0 0 0-1.9688 1.5c-0.51157 1.92-1.324 3.7691-2.3125 5.4688a2.0441 2.0441 0 0 0 0.34375 2.4688l3.0312 3c0.094367 0.094366 0.078856 0.10864 0.03125 0.15625l-5.875 5.875c-0.047551 0.04755-0.061879 0.063112-0.15625-0.03125l-3-3.0312a2.0441 2.0441 0 0 0-2.4688-0.34375c-1.6997 0.9885-3.5487 1.8009-5.4688 2.3125a2.0441 2.0441 0 0 0-1.5 1.9688v4.2188c0 0.12926-0.051815 0.15625-0.09375 0.15625h-8.3125c-0.041929 0-0.09375-0.02699-0.09375-0.15625v-4.2188a2.0441 2.0441 0 0 0-1.5-1.9688c-1.92-0.51157-3.7691-1.324-5.4688-2.3125a2.0441 2.0441 0 0 0-2.4688 0.34375l-3 3.0312c-0.094419 0.094418-0.10866 0.078844-0.15625 0.03125l-5.875-5.875c-0.047603-0.047603-0.063114-0.061886 0.03125-0.15625l3.0312-3a2.0441 2.0441 0 0 0 0.34375-2.4688c-0.98851-1.6997-1.8009-3.5487-2.3125-5.4688a2.0441 2.0441 0 0 0-1.9688-1.5h-4.2188c-0.12928 0-0.15625-0.051812-0.15625-0.09375v-8.3125c0-0.041958 0.02696-0.09375 0.15625-0.09375h4.2188a2.0441 2.0441 0 0 0 1.9688-1.5c0.51157-1.92 1.324-3.7691 2.3125-5.4688a2.0441 2.0441 0 0 0-0.34375-2.4688l-3.0312-3c-0.085307-0.085308-0.062521-0.096255-0.0625-0.09375-9.2e-5 -0.010546 0.020114-0.051365 0.03125-0.0625l5.875-5.875c0.047549-0.047549 0.061873-0.063116 0.15625 0.03125l3 3.0312a2.0441 2.0441 0 0 0 2.4688 0.34375c1.6997-0.9885 3.5487-1.8009 5.4688-2.3125a2.0441 2.0441 0 0 0 1.5-1.9688v-4.2188c0-0.12928 0.051807-0.15625 0.09375-0.15625zm4.1562 16.875c-6.1104 0-11.094 4.9834-11.094 11.094 0 6.1104 4.9834 11.094 11.094 11.094 6.1104 0 11.094-4.9834 11.094-11.094 0-6.1104-4.9834-11.094-11.094-11.094zm0 2.0312c5.0065 0 9.0625 4.056 9.0625 9.0625 0 5.0065-4.056 9.0625-9.0625 9.0625-5.0065 0-9.0625-4.056-9.0625-9.0625 0-5.0065 4.056-9.0625 9.0625-9.0625z" display="block" opacity=".1"/>
  <path id="path3944" d="m43.844 18c-1.1806 0-2.125 0.98667-2.125 2.1875v4.2188c-2.1111 0.56248-4.1231 1.4266-5.9688 2.5l-3-3.0312c-0.84911-0.84902-2.1964-0.86608-3.0312-0.03125l-5.875 5.875c-0.41742 0.41742-0.6298 0.98183-0.625 1.5312 0.004658 0.54942 0.23169 1.0754 0.65625 1.5l3.0312 3c-1.0734 1.8456-1.9375 3.8577-2.5 5.9688h-4.2188c-1.2008 0-2.1875 0.94435-2.1875 2.125v8.3125c0 1.1806 0.98667 2.125 2.1875 2.125h4.2188c0.56247 2.1111 1.4266 4.1231 2.5 5.9688l-3.0312 3c-0.84911 0.84911-0.86609 2.1964-0.03125 3.0312l5.875 5.875c0.83484 0.83493 2.1821 0.81786 3.0312-0.03125l3-3.0312c1.8456 1.0734 3.8577 1.9375 5.9688 2.5v4.2188c0 1.2008 0.94436 2.1875 2.125 2.1875h8.3125c1.1806 0 2.125-0.98668 2.125-2.1875v-4.2188c2.1111-0.56248 4.1231-1.4266 5.9688-2.5l3 3.0312c0.84911 0.84902 2.1964 0.86608 3.0312 0.03125l5.875-5.875c0.83485-0.83485 0.81786-2.1821-0.03125-3.0312l-3.0312-3c1.0734-1.8456 1.9375-3.8577 2.5-5.9688h4.2188c1.2008 0 2.1875-0.94436 2.1875-2.125v-8.3125c0-1.1807-0.98667-2.125-2.1875-2.125h-4.2188c-0.56247-2.1111-1.4266-4.1231-2.5-5.9688l3.0312-3c0.84911-0.84911 0.86609-2.1964 0.03125-3.0312l-5.875-5.875c-0.83484-0.83492-2.1821-0.81786-3.0312 0.03125l-3 3.0312c-1.8456-1.0734-3.8577-1.9375-5.9688-2.5v-4.2188c0-1.2008-0.94435-2.1875-2.125-2.1875h-8.3125zm0 0.96875h8.3125c0.63841 0 1.1562 0.52818 1.1562 1.2188v4.2188a0.97336 0.97336 0 0 0 0.71875 0.9375c2.0201 0.53825 3.9426 1.3733 5.7188 2.4062a0.97336 0.97336 0 0 0 1.1875-0.15625l3-3.0312c0.48973-0.48973 1.1963-0.49126 1.6562-0.03125l5.875 5.875c0.45996 0.45995 0.45845 1.1665-0.03125 1.6562l-3.0312 3a0.97336 0.97336 0 0 0-0.15625 1.1875c1.033 1.7761 1.868 3.6986 2.4062 5.7188a0.97336 0.97336 0 0 0 0.9375 0.71875h4.2188c0.69057 0 1.2188 0.51783 1.2188 1.1562v8.3125c0 0.6384-0.52818 1.1562-1.2188 1.1562h-4.2188a0.97336 0.97336 0 0 0-0.9375 0.71875c-0.53823 2.0201-1.3733 3.9426-2.4062 5.7188a0.97336 0.97336 0 0 0 0.15625 1.1875l3.0312 3c0.48971 0.48971 0.49122 1.1963 0.03125 1.6562l-5.875 5.875c-0.45994 0.45994-1.1665 0.45841-1.6562-0.03125l-3-3.0312a0.97336 0.97336 0 0 0-1.1875-0.15625c-1.7761 1.033-3.6986 1.868-5.7188 2.4062a0.97336 0.97336 0 0 0-0.71875 0.9375v4.2188c0 0.69055-0.51785 1.2188-1.1562 1.2188h-8.3125c-0.6384 0-1.1562-0.5282-1.1562-1.2188v-4.2188a0.97336 0.97336 0 0 0-0.71875-0.9375c-2.0201-0.53823-3.9426-1.3733-5.7188-2.4062a0.97336 0.97336 0 0 0-1.1875 0.15625l-3 3.0312c-0.48974 0.48973-1.1963 0.49126-1.6562 0.03125l-5.875-5.875c-0.45997-0.45997-0.45846-1.1665 0.03125-1.6562l3.0312-3a0.97336 0.97336 0 0 0 0.15625-1.1875c-1.033-1.7761-1.868-3.6986-2.4062-5.7188a0.97336 0.97336 0 0 0-0.9375-0.71875h-4.2188c-0.69057 0-1.2188-0.51785-1.2188-1.1562v-8.3125c0-0.63842 0.52818-1.1562 1.2188-1.1562h4.2188a0.97336 0.97336 0 0 0 0.9375-0.71875c0.53823-2.0201 1.3733-3.9426 2.4062-5.7188a0.97336 0.97336 0 0 0-0.15625-1.1875l-3.0312-3c-0.26301-0.26301-0.37257-0.5259-0.375-0.8125-0.002558-0.29281 0.1198-0.6198 0.34375-0.84375l5.875-5.875c0.45994-0.45994 1.1665-0.45841 1.6562 0.03125l3 3.0312a0.97336 0.97336 0 0 0 1.1875 0.15625c1.7761-1.033 3.6986-1.868 5.7188-2.4062a0.97336 0.97336 0 0 0 0.71875-0.9375v-4.2188c0-0.69057 0.51784-1.2188 1.1562-1.2188zm4.1562 19c-5.5322 0-10.031 4.4991-10.031 10.031 0 5.5322 4.4991 10.031 10.031 10.031 5.5322 0 10.031-4.4991 10.031-10.031 0-5.5322-4.4991-10.031-10.031-10.031zm0 0.96875c5.0065 0 9.0625 4.056 9.0625 9.0625 0 5.0065-4.056 9.0625-9.0625 9.0625-5.0065 0-9.0625-4.056-9.0625-9.0625 0-5.0065 4.056-9.0625 9.0625-9.0625z" display="block" opacity=".15"/>
  <path id="path3930" d="m23.312 31.719c-0.16225 0.69455 0.0048 1.4735 0.5625 2.0312l2.6875 2.6562c0.11752-0.21685 0.22021-0.44383 0.34375-0.65625l-3.0312-3c-0.29374-0.29375-0.46681-0.66363-0.5625-1.0312zm49.375 0c-0.09569 0.36762-0.26875 0.7375-0.5625 1.0312l-3.0312 3c0.12354 0.21242 0.22623 0.4394 0.34375 0.65625l2.6875-2.6562c0.55775-0.55775 0.72475-1.3367 0.5625-2.0312zm-24.688 7.2188c-5.0065 0-9.0625 4.056-9.0625 9.0625 0 0.16705 0.02232 0.33517 0.03125 0.5 0.25874-4.7753 4.1918-8.5625 9.0312-8.5625 4.8395 0 8.7725 3.7872 9.0312 8.5625 0.0089-0.16483 0.03125-0.33295 0.03125-0.5 0-5.0065-4.056-9.0625-9.0625-9.0625zm-30 13.219v1c0 1.1807 0.98667 2.125 2.1875 2.125h4.2188c0.49774 1.8681 1.2527 3.6453 2.1562 5.3125l0.34375-0.34375c-1.0734-1.8456-1.9375-3.8577-2.5-5.9688h-4.2188c-1.2008 0-2.1875-0.94435-2.1875-2.125zm60 0c0 1.1807-0.98667 2.125-2.1875 2.125h-4.2188c-0.56247 2.1111-1.4266 4.1231-2.5 5.9688l0.34375 0.34375c0.90352-1.6672 1.6585-3.4444 2.1562-5.3125h4.2188c1.2008 0 2.1875-0.94435 2.1875-2.125v-1zm-54.688 13.125c-0.03885 0.15325-0.09238 0.30736-0.09375 0.46875-0.0048 0.54942 0.20758 1.1138 0.625 1.5312l5.875 5.875c0.83484 0.83483 2.1821 0.81777 3.0312-0.03125l3-3.0312c1.8456 1.0734 3.8577 1.9375 5.9688 2.5v-1c-2.1111-0.56248-4.1231-1.4266-5.9688-2.5l-3 3.0312c-0.84911 0.84902-2.1964 0.86608-3.0312 0.03125l-5.875-5.875c-0.28082-0.28082-0.44403-0.63695-0.53125-1zm49.375 0c-0.08476 0.36282-0.24478 0.71354-0.53125 1l-5.875 5.875c-0.83484 0.83492-2.1821 0.81786-3.0312-0.03125l-3-3.0312c-1.8456 1.0734-3.8577 1.9375-5.9688 2.5v1c2.1111-0.56248 4.1231-1.4266 5.9688-2.5l3 3.0312c0.84911 0.84911 2.1964 0.86617 3.0312 0.03125l5.875-5.875c0.54603-0.54603 0.71216-1.305 0.53125-2zm-30.969 10.531v1c0 1.2008 0.94435 2.1875 2.125 2.1875h8.3125c1.1806 0 2.125-0.98667 2.125-2.1875v-1c0 1.2008-0.94435 2.1875-2.125 2.1875h-8.3125c-1.1806 0-2.125-0.98667-2.125-2.1875z" display="block" fill="#fff"/>
 </g>
</svg>
