<?xml version="1.0" encoding="UTF-8"?>
<svg id="svg2408" width="96" height="96" version="1.0" xmlns="http://www.w3.org/2000/svg" xmlns:cc="http://creativecommons.org/ns#" xmlns:dc="http://purl.org/dc/elements/1.1/" xmlns:rdf="http://www.w3.org/1999/02/22-rdf-syntax-ns#" xmlns:xlink="http://www.w3.org/1999/xlink">
 <defs id="defs2410">
  <linearGradient id="ButtonShadow" x1="45.448" x2="45.448" y1="92.54" y2="7.0165" gradientTransform="scale(1.0059 .99417)" gradientUnits="userSpaceOnUse">
   <stop id="stop3750" offset="0"/>
   <stop id="stop3752" stop-opacity=".58824" offset="1"/>
  </linearGradient>
  <linearGradient id="linearGradient3706" x1="48" x2="48" y1="90" y2="5.9877" gradientUnits="userSpaceOnUse">
   <stop id="stop3670" stop-color="#e5e6b5" offset="0"/>
   <stop id="stop3672" stop-color="#f6f6dc" offset="1"/>
  </linearGradient>
  <filter id="filter3174">
   <feGaussianBlur id="feGaussianBlur3176" stdDeviation="1.71"/>
  </filter>
  <linearGradient id="ButtonShadow-0" x1="45.448" x2="45.448" y1="92.54" y2="7.0165" gradientTransform="matrix(1.0059 0 0 .99417 100 0)" gradientUnits="userSpaceOnUse">
   <stop id="stop3750-8" offset="0"/>
   <stop id="stop3752-5" stop-opacity=".58824" offset="1"/>
  </linearGradient>
  <linearGradient id="linearGradient3780" x1="32.251" x2="32.251" y1="6.1317" y2="90.239" gradientTransform="matrix(1.0238 0 0 1.0119 -1.1429 -98.071)" gradientUnits="userSpaceOnUse" xlink:href="#ButtonShadow-0"/>
  <linearGradient id="linearGradient3721" x1="32.251" x2="32.251" y1="6.1317" y2="90.239" gradientTransform="translate(0,-97)" gradientUnits="userSpaceOnUse" xlink:href="#ButtonShadow-0"/>
  <radialGradient id="radialGradient2886" cx="48" cy="90.172" r="42" gradientTransform="matrix(1.1573 0 0 .99591 -7.551 .19713)" gradientUnits="userSpaceOnUse">
   <stop id="stop3739-6" stop-color="#fff" offset="0"/>
   <stop id="stop3741-0" stop-color="#fff" stop-opacity="0" offset="1"/>
  </radialGradient>
  <linearGradient id="linearGradient3746" x1="36.357" x2="36.357" y1="6" y2="63.893" gradientUnits="userSpaceOnUse">
   <stop id="stop3739-3" stop-color="#fff" offset="0"/>
   <stop id="stop3741-8" stop-color="#fff" stop-opacity="0" offset="1"/>
  </linearGradient>
  <linearGradient id="linearGradient3759" x1="62.136" x2="62.136" y1="103.96" y2="24.043" gradientTransform="matrix(.75256 0 0 .80087 1.239 -3.2557)" gradientUnits="userSpaceOnUse">
   <stop id="stop4362" stop-color="#4f821e" offset="0"/>
   <stop id="stop4364" stop-color="#639632" offset="1"/>
  </linearGradient>
  <clipPath id="clipPath3794">
   <path id="path3796" d="m-98 6c-3.324 0-6 2.676-6 6v72c0 3.324 2.676 6 6 6h72c3.324 0 6-2.676 6-6v-72c0-3.324-2.676-6-6-6h-72zm46.031 12.5c2.8049 0.26798 4.1687 1.9943 5.6562 4.375l2.2188 4.2188 3.5-2.3438-6.5625 12.375-14.062 0.03125 4.4062-2.5625c-1.242-3.116-2.8936-6.6821-4.9688-9.7812-1.8579-2.7746-4.1119-5.1997-5.8125-6.2812l15.625-0.03125zm-20.344 1.5c4.134 0.08768 6.7522 3.9378 8.5312 6.5625l-5.4375 11.156-12-8.0312 5.8125-9.0938c1.123-0.4451 2.1398-0.61398 3.0938-0.59375zm33.969 16.156 5.4688 11.844c0.1771 2.9846-4.3458 7.1261-7.1562 7.0938l-4.8125-0.03125-5.5938-11.125 12.094-7.7812zm-40.094 3.0312 7.4688 11.625-3.7812-1.9688-6.0312 12.906c-0.85055 2.4291-0.90889 4.9375 0.0625 7.2812-6.7978-9.441-12.538-14.172-8-23.875l1.4062-2.9688-4.1875-2.2812 13.062-0.71875zm25.656 13.906 0.03125 4.4688 13.562-0.03125c2.4224-0.27324 4.5558-1.3107 6.0938-3.2812-4.9086 10.685-6.3156 18.245-16.5 18.25h-3.1562l-0.03125 5-6.4375-12.125 6.4375-12.281zm-10.156 4-0.09375 15h-12.344c-2.5892-1.1624-4.0619-7.3374-2.7812-10l2.1875-4.5312 13.031-0.46875z" fill="#f0f"/>
  </clipPath>
  <filter id="filter3798">
   <feGaussianBlur id="feGaussianBlur3800" stdDeviation="1.7644507"/>
  </filter>
 </defs>
 <metadata id="metadata2413">
  <rdf:RDF>
   <cc:Work rdf:about="">
    <dc:format>image/svg+xml</dc:format>
    <dc:type rdf:resource="http://purl.org/dc/dcmitype/StillImage"/>
   </cc:Work>
  </rdf:RDF>
 </metadata>
 <g id="layer2" display="none">
  <rect id="rect3745" x="5" y="7" width="86" height="85" rx="6" ry="6" fill="url(#ButtonShadow)" filter="url(#filter3174)" opacity=".9"/>
 </g>
 <g id="layer3">
  <path id="path3786" transform="scale(1,-1)" d="m12-95.031c-5.5111 0-10.031 4.5202-10.031 10.031v71c0 5.5111 4.5202 10.031 10.031 10.031h72c5.5111 0 10.031-4.5202 10.031-10.031v-71c0-5.5111-4.5202-10.031-10.031-10.031h-72z" fill="url(#linearGradient3780)" opacity=".08"/>
  <path id="path3778" transform="scale(1,-1)" d="m12-94.031c-4.9716 0-9.0312 4.0596-9.0312 9.0312v71c0 4.9716 4.0596 9.0312 9.0312 9.0312h72c4.9716 0 9.0312-4.0596 9.0312-9.0312v-71c0-4.9716-4.0596-9.0312-9.0312-9.0312h-72z" fill="url(#linearGradient3780)" opacity=".1"/>
  <path id="path3770" transform="scale(1,-1)" d="m12-93c-4.4091 0-8 3.5909-8 8v71c0 4.4091 3.5909 8 8 8h72c4.4091 0 8-3.5909 8-8v-71c0-4.4091-3.5909-8-8-8h-72z" fill="url(#linearGradient3780)" opacity=".2"/>
  <rect id="rect3723" transform="scale(1,-1)" x="5" y="-92" width="86" height="85" rx="7" ry="7" fill="url(#linearGradient3780)" opacity=".3"/>
  <rect id="rect3716" transform="scale(1,-1)" x="6" y="-91" width="84" height="84" rx="6" ry="6" fill="url(#linearGradient3721)" opacity=".45"/>
 </g>
 <g id="layer1">
  <rect id="rect2419" x="6" y="6" width="84" height="84" rx="6" ry="6" fill="url(#linearGradient3706)"/>
  <path id="path3787" transform="translate(110)" d="m-51.969 18.5-15.625 0.03125c1.7006 1.0815 3.9546 3.5067 5.8125 6.2812 2.0752 3.0991 3.7267 6.6652 4.9688 9.7812l-4.4062 2.5625 14.062-0.03125 6.5625-12.375-3.5 2.3438-2.2188-4.2188c-1.4876-2.3807-2.8513-4.107-5.6562-4.375zm-20.344 1.5c-0.954-0.02023-1.9707 0.14865-3.0938 0.59375l-5.8125 9.0938 12 8.0312 5.4375-11.156c-1.7791-2.6247-4.3973-6.4748-8.5312-6.5625zm33.969 16.156-12.094 7.7812 5.5938 11.125 4.8125 0.03125c2.8105 0.03231 7.3334-4.1092 7.1562-7.0938zm-40.094 3.0312-13.062 0.71875 4.1875 2.2812-1.4062 2.9688c-4.5383 9.7026 1.2022 14.434 8 23.875-0.97139-2.3438-0.91305-4.8521-0.0625-7.2812l6.0312-12.906 3.7812 1.9688zm25.656 13.906-6.4375 12.281 6.4375 12.125 0.03125-5h3.1562c10.184-0.0046 11.591-7.5645 16.5-18.25-1.538 1.9706-3.6714 3.008-6.0938 3.2812l-13.562 0.03125zm-10.156 4-13.031 0.46875-2.1875 4.5312c-1.2806 2.6626 0.19208 8.8376 2.7812 10h12.344z" clip-path="url(#clipPath3794)" fill="none" filter="url(#filter3798)" opacity=".6" stroke="#fff" stroke-width="2"/>
  <path id="path4068" d="m58.031 18.5-15.625 0.03125c1.7006 1.0815 3.9546 3.5067 5.8125 6.2812 2.0752 3.0991 3.7267 6.6652 4.9688 9.7812l-4.4062 2.5625 14.062-0.03125 6.5625-12.375-3.5 2.3438-2.2188-4.2188c-1.4876-2.3807-2.8513-4.107-5.6562-4.375zm-19.344 0.5c-0.954-0.02023-1.9707 0.14865-3.0938 0.59375l-6.8125 10.094 12 8.0312 6.4375-12.156c-1.7791-2.6247-4.3973-6.4748-8.5312-6.5625zm32.969 17.156-12.094 7.7812 5.5938 12.125 4.8125 0.03125c2.8105 0.03231 7.3334-4.1092 7.1562-7.0938zm-40.094 3.0312-13.062 0.71875 4.1875 2.2812-1.4062 2.9688c-4.5383 9.7026 1.2022 14.434 8 23.875-0.97139-2.3438-0.91305-4.8521-0.0625-7.2812l6.0312-12.906 3.7812 1.9688zm25.656 13.906-6.4375 12.281 6.4375 12.125 0.03125-5h3.1562c10.184-0.0046 11.591-7.5645 16.5-18.25-1.538 1.9706-3.6714 3.008-6.0938 3.2812l-13.562 0.03125zm-10.156 4-14.031 0.46875-2.1875 4.5312c-1.2806 2.6626 0.19208 8.8376 2.7812 10h13.344z" fill="url(#linearGradient3759)"/>
  <path id="rect3728" d="m12 6c-3.324 0-6 2.676-6 6v72c0 0.33472 0.04135 0.6507 0.09375 0.96875 0.0487 0.2956 0.09704 0.59692 0.1875 0.875 0.0099 0.03038 0.02089 0.0636 0.03125 0.09375 0.09886 0.28777 0.23488 0.54745 0.375 0.8125 0.14459 0.27351 0.31562 0.53562 0.5 0.78125s0.37378 0.47347 0.59375 0.6875c0.43995 0.42806 0.94291 0.81453 1.5 1.0938 0.27854 0.13961 0.57347 0.24695 0.875 0.34375-0.2562-0.10022-0.48671-0.23627-0.71875-0.375-0.0074-0.0044-0.02387 0.0045-0.03125 0-0.03193-0.0193-0.06229-0.04251-0.09375-0.0625-0.1204-0.0767-0.23102-0.16351-0.34375-0.25-0.10617-0.0808-0.21328-0.16111-0.3125-0.25-0.17793-0.16143-0.34746-0.34539-0.5-0.53125-0.10758-0.13026-0.21839-0.26528-0.3125-0.40625-0.02509-0.03838-0.03845-0.08587-0.0625-0.125-0.06476-0.10303-0.13023-0.20452-0.1875-0.3125-0.10101-0.19471-0.20568-0.4157-0.28125-0.625-8e-3 -0.02181-0.02359-0.04055-0.03125-0.0625-0.03183-0.09195-0.0358-0.18683-0.0625-0.28125-0.030332-0.10662-0.070389-0.20303-0.09375-0.3125-0.072879-0.34151-0.125-0.6982-0.125-1.0625v-72c0-2.7818 2.2182-5 5-5h72c2.7818 0 5 2.2182 5 5v72c0 0.3643-0.05212 0.72099-0.125 1.0625-0.04415 0.20689-0.08838 0.39766-0.15625 0.59375-0.0077 0.02195-0.0233 0.04069-0.03125 0.0625-0.06274 0.17374-0.13838 0.36745-0.21875 0.53125-0.04158 0.0828-0.07904 0.16995-0.125 0.25-0.0546 0.09721-0.12677 0.18835-0.1875 0.28125-0.09411 0.14096-0.20492 0.276-0.3125 0.40625-0.14317 0.17445-0.30314 0.347-0.46875 0.5-0.01117 0.0102-0.01998 0.02115-0.03125 0.03125-0.13839 0.12556-0.28509 0.23444-0.4375 0.34375-0.10257 0.07315-0.20432 0.15336-0.3125 0.21875-0.0074 0.0045-0.02384-0.0044-0.03125 0-0.23204 0.13873-0.46255 0.27478-0.71875 0.375 0.30153-0.0968 0.59646-0.20414 0.875-0.34375 0.55709-0.27922 1.0601-0.66569 1.5-1.0938 0.21997-0.21403 0.40937-0.44186 0.59375-0.6875s0.35541-0.50774 0.5-0.78125c0.14012-0.26505 0.27614-0.52473 0.375-0.8125 0.01041-0.03078 0.02133-0.06274 0.03125-0.09375 0.09046-0.27808 0.1388-0.5794 0.1875-0.875 0.0524-0.31805 0.09375-0.63403 0.09375-0.96875v-72c0-3.324-2.676-6-6-6z" fill="url(#linearGradient3746)" opacity=".5"/>
  <path id="path3615" d="m12 90c-3.324 0-6-2.676-6-6v-72c0-0.33472 0.04135-0.6507 0.09375-0.96875 0.0487-0.2956 0.09704-0.59692 0.1875-0.875 0.00988-0.03038 0.020892-0.0636 0.03125-0.09375 0.098865-0.28777 0.23488-0.54745 0.375-0.8125 0.14459-0.27351 0.31562-0.53562 0.5-0.78125s0.37378-0.47347 0.59375-0.6875c0.43995-0.42806 0.94291-0.81453 1.5-1.0938 0.27854-0.13961 0.57347-0.24695 0.875-0.34375-0.2562 0.10022-0.48671 0.23627-0.71875 0.375-0.00741 0.0044-0.023866-0.0045-0.03125 0-0.031933 0.0193-0.062293 0.04251-0.09375 0.0625-0.1204 0.0767-0.23102 0.16351-0.34375 0.25-0.10617 0.0808-0.21328 0.16111-0.3125 0.25-0.17793 0.16143-0.34746 0.34539-0.5 0.53125-0.10758 0.13026-0.21839 0.26528-0.3125 0.40625-0.025089 0.03838-0.038446 0.08587-0.0625 0.125-0.064763 0.10303-0.13023 0.20452-0.1875 0.3125-0.10101 0.19471-0.20567 0.4157-0.28125 0.625-0.00796 0.02181-0.023589 0.04055-0.03125 0.0625-0.031825 0.09195-0.035805 0.18683-0.0625 0.28125-0.030332 0.10662-0.070389 0.20303-0.09375 0.3125-0.072879 0.34151-0.125 0.6982-0.125 1.0625v72c0 2.7818 2.2182 5 5 5h72c2.7818 0 5-2.2182 5-5v-72c0-0.3643-0.05212-0.72099-0.125-1.0625-0.04415-0.20689-0.08838-0.39766-0.15625-0.59375-0.0077-0.02195-0.0233-0.04069-0.03125-0.0625-0.06274-0.17374-0.13838-0.36745-0.21875-0.53125-0.04158-0.0828-0.07904-0.16995-0.125-0.25-0.0546-0.09721-0.12677-0.18835-0.1875-0.28125-0.09411-0.14096-0.20492-0.276-0.3125-0.40625-0.14317-0.17445-0.30314-0.347-0.46875-0.5-0.01117-0.0102-0.01998-0.02115-0.03125-0.03125-0.13839-0.12556-0.28509-0.23444-0.4375-0.34375-0.10257-0.07315-0.20432-0.15336-0.3125-0.21875-0.0074-0.0045-0.02384 0.0044-0.03125 0-0.23204-0.13873-0.46255-0.27478-0.71875-0.375 0.30153 0.0968 0.59646 0.20414 0.875 0.34375 0.55709 0.27922 1.0601 0.66569 1.5 1.0938 0.21997 0.21403 0.40937 0.44186 0.59375 0.6875s0.35541 0.50774 0.5 0.78125c0.14012 0.26505 0.27614 0.52473 0.375 0.8125 0.01041 0.03078 0.02133 0.06274 0.03125 0.09375 0.09046 0.27808 0.1388 0.5794 0.1875 0.875 0.0524 0.31805 0.09375 0.63403 0.09375 0.96875v72c0 3.324-2.676 6-6 6z" fill="url(#radialGradient2886)" opacity=".2"/>
  <path id="path3802" d="m58.031 18.5-15.625 0.03125c0.39959 0.25413 0.83287 0.6104 1.2812 1l14.344-0.03125c2.8049 0.26798 4.1687 1.9943 5.6562 4.375l2.2188 4.2188 2.6875-1.7812 0.8125-1.5625-3.5 2.3438-2.2188-4.2188c-1.4876-2.3807-2.8513-4.107-5.6562-4.375zm-19.344 0.5c-0.954-0.02023-1.9707 0.14865-3.0938 0.59375l-6.8125 10.094 0.46875 0.3125 6.3438-9.4062c1.123-0.4451 2.1398-0.61398 3.0938-0.59375 3.913 0.08299 6.448 3.5301 8.2188 6.125l0.3125-0.5625c-1.7791-2.6247-4.3973-6.4748-8.5312-6.5625zm14.156 15.781-4.0625 2.375h1.7188l2.6875-1.5625c-0.10512-0.26374-0.23275-0.54287-0.34375-0.8125zm18.812 1.375-12.094 7.7812 0.34375 0.78125 11.75-7.5625 5.375 12.656c0.05421-0.28028 0.10952-0.5468 0.09375-0.8125zm-40.094 3.0312-13.062 0.71875 1.6562 0.90625 11.406-0.625 6.5 10.125 0.96875 0.5zm-9.25 3.7812-1.0312 2.1875c-1.2332 2.6365-1.6935 4.9034-1.5938 7 0.07138-1.8179 0.55372-3.7765 1.5938-6l1.4062-2.9688zm34.906 10.125-6.4375 12.281 0.25 0.5 6.1875-11.781zm19.688 1.1562c-1.538 1.9706-3.6714 3.008-6.0938 3.2812l-13.562 0.03125v1l13.562-0.03125c2.0015-0.22576 3.8159-0.97928 5.25-2.3438 0.28421-0.64654 0.53487-1.2651 0.84375-1.9375zm-29.844 2.8438-14.031 0.46875-2.1875 4.5312c-0.37588 0.7815-0.49463 1.8601-0.4375 3.0312 0.04406-0.77425 0.17307-1.4815 0.4375-2.0312l2.1875-4.5312 14.031-0.46875zm-18.469 8.6562c-0.05822 0.87064 0.0111 1.7391 0.1875 2.5938 0.17225 0.23537 0.32621 0.44614 0.5 0.6875-0.44374-1.0707-0.65087-2.1652-0.6875-3.2812z" opacity=".3"/>
  <path id="path3811" d="m42.406 19.531c1.7006 1.0815 3.9546 3.5067 5.8125 6.2812 1.8995 2.8368 3.4246 6.0527 4.625 8.9688l0.34375-0.1875c-1.242-3.116-2.8936-6.6821-4.9688-9.7812-1.4213-2.1226-3.0714-4.0128-4.5312-5.2812zm27 6.2188-0.8125 0.5625-5.75 10.812-12.344 0.03125-1.7188 1 14.062-0.03125zm-22.5 0.375-6.125 11.594-11.531-7.7188-0.46875 0.6875 12 8.0312 6.4375-12.156c-0.09511-0.14032-0.21249-0.29094-0.3125-0.4375zm-26.75 14.688-1.6562 0.09375 3.8125 2.0625 0.375-0.78125zm39.75 3.9062-0.34375 0.21875 5.5938 12.125 4.8125 0.03125c2.8105 0.03231 7.3334-4.1092 7.1562-7.0938l-0.09375-0.1875c-0.5547 2.868-4.5022 6.3107-7.0625 6.2812l-4.8125-0.03125zm-24.656 4.125-6.0312 12.906c-0.46201 1.3195-0.66855 2.6728-0.625 4 0.06698-1.0016 0.27772-2.0082 0.625-3l6.0312-12.906 3.7812 1.9688-0.96875-1.5zm-15.562 3.3125c-0.24009 6.1147 4.3538 10.598 9.5938 17.875-0.23002-0.555-0.3823-1.1173-0.5-1.6875-4.7346-6.4694-8.8358-10.766-9.0938-16.188zm57.219 3.0938c-0.26723 0.34239-0.54218 0.65057-0.84375 0.9375-4.2323 9.628-6.1127 16.308-15.656 16.312h-3.1562v1h3.1562c10.184-0.0046 11.591-7.5645 16.5-18.25zm-46.5 9.875c-0.16931 2.9754 1.1642 7.0464 3.2188 7.9688h13.344v-1h-13.344c-1.8292-0.82123-3.0812-4.1498-3.2188-6.9688zm20.625 0.75-0.25 0.5 6.4375 12.125v-1z" fill="#fff" opacity=".6"/>
 </g>
</svg>
