<?xml version="1.0" encoding="UTF-8"?>
<svg id="svg2408" width="96" height="96" version="1.0" xmlns="http://www.w3.org/2000/svg" xmlns:cc="http://creativecommons.org/ns#" xmlns:dc="http://purl.org/dc/elements/1.1/" xmlns:rdf="http://www.w3.org/1999/02/22-rdf-syntax-ns#" xmlns:xlink="http://www.w3.org/1999/xlink">
 <defs id="defs2410">
  <linearGradient id="ButtonShadow" x1="45.448" x2="45.448" y1="92.54" y2="7.0165" gradientTransform="scale(1.0059 .99417)" gradientUnits="userSpaceOnUse">
   <stop id="stop3750" offset="0"/>
   <stop id="stop3752" stop-opacity=".58824" offset="1"/>
  </linearGradient>
  <linearGradient id="linearGradient3737">
   <stop id="stop3739" stop-color="#fff" offset="0"/>
   <stop id="stop3741" stop-color="#fff" stop-opacity="0" offset="1"/>
  </linearGradient>
  <linearGradient id="linearGradient3706" x1="48" x2="48" y1="90" y2="5.9877" gradientUnits="userSpaceOnUse">
   <stop id="stop3702" stop-color="#e6e6e6" offset="0"/>
   <stop id="stop3704" stop-color="#f5f5f5" offset="1"/>
  </linearGradient>
  <filter id="filter3174">
   <feGaussianBlur id="feGaussianBlur3176" stdDeviation="1.71"/>
  </filter>
  <linearGradient id="linearGradient3188" x1="36.357" x2="36.357" y1="6" y2="63.893" gradientUnits="userSpaceOnUse" xlink:href="#linearGradient3737"/>
  <linearGradient id="ButtonShadow-0" x1="45.448" x2="45.448" y1="92.54" y2="7.0165" gradientTransform="matrix(1.0059 0 0 .99417 100 0)" gradientUnits="userSpaceOnUse">
   <stop id="stop3750-8" offset="0"/>
   <stop id="stop3752-5" stop-opacity=".58824" offset="1"/>
  </linearGradient>
  <linearGradient id="linearGradient3780" x1="32.251" x2="32.251" y1="6.1317" y2="90.239" gradientTransform="matrix(1.0238 0 0 1.0119 -1.1429 -98.071)" gradientUnits="userSpaceOnUse" xlink:href="#ButtonShadow-0"/>
  <linearGradient id="linearGradient3721" x1="32.251" x2="32.251" y1="6.1317" y2="90.239" gradientTransform="translate(0,-97)" gradientUnits="userSpaceOnUse" xlink:href="#ButtonShadow-0"/>
  <radialGradient id="radialGradient2903" cx="48" cy="90.172" r="42" gradientTransform="matrix(1.1573 0 0 .99591 -7.551 .19713)" gradientUnits="userSpaceOnUse">
   <stop id="stop3739-6" stop-color="#fff" offset="0"/>
   <stop id="stop3741-0" stop-color="#fff" stop-opacity="0" offset="1"/>
  </radialGradient>
  <linearGradient id="linearGradient6017" x1="17.385" x2="17.385" y1="89.637" y2="6.5074" gradientUnits="userSpaceOnUse">
   <stop id="stop6013" stop-color="#7dbb33" offset="0"/>
   <stop id="stop6015" stop-color="#9ed35f" offset="1"/>
  </linearGradient>
  <linearGradient id="linearGradient6089" x1="56" x2="56" y1="80" y2="16" gradientUnits="userSpaceOnUse">
   <stop id="stop6085" stop-color="#d5d5d5" offset="0"/>
   <stop id="stop6087" stop-color="#e3e3e3" offset="1"/>
  </linearGradient>
  <clipPath id="clipPath3876">
   <path id="path3878" d="m12 6c-3.324 0-6 2.676-6 6v72c0 3.324 2.676 6 6 6h12v-84h-12z" fill="#f00"/>
  </clipPath>
  <filter id="filter3794" x="-.192" y="-.192" width="1.384" height="1.384" color-interpolation-filters="sRGB">
   <feGaussianBlur id="feGaussianBlur3796" stdDeviation="5.28"/>
  </filter>
  <linearGradient id="linearGradient3874" x1="48" x2="48" y1="20.221" y2="138.66" gradientUnits="userSpaceOnUse" xlink:href="#linearGradient3737"/>
  <clipPath id="clipPath3870">
   <path id="path3872" d="m24 6v84h60c3.324 0 6-2.676 6-6v-72c0-3.324-2.676-6-6-6h-60z" fill="#f0f"/>
  </clipPath>
 </defs>
 <metadata id="metadata2413">
  <rdf:RDF>
   <cc:Work rdf:about="">
    <dc:format>image/svg+xml</dc:format>
    <dc:type rdf:resource="http://purl.org/dc/dcmitype/StillImage"/>
    <dc:title/>
   </cc:Work>
  </rdf:RDF>
 </metadata>
 <g id="layer2" display="none">
  <rect id="rect3745" x="5" y="7" width="86" height="85" rx="6" ry="6" fill="url(#ButtonShadow)" filter="url(#filter3174)" opacity=".9"/>
 </g>
 <g id="layer5">
  <path id="path3786" transform="scale(1,-1)" d="m12-95.031c-5.5111 0-10.031 4.5202-10.031 10.031v71c0 5.5111 4.5202 10.031 10.031 10.031h72c5.5111 0 10.031-4.5202 10.031-10.031v-71c0-5.5111-4.5202-10.031-10.031-10.031h-72z" fill="url(#linearGradient3780)" opacity=".08"/>
  <path id="path3778" transform="scale(1,-1)" d="m12-94.031c-4.9716 0-9.0312 4.0596-9.0312 9.0312v71c0 4.9716 4.0596 9.0312 9.0312 9.0312h72c4.9716 0 9.0312-4.0596 9.0312-9.0312v-71c0-4.9716-4.0596-9.0312-9.0312-9.0312h-72z" fill="url(#linearGradient3780)" opacity=".1"/>
  <path id="path3770" transform="scale(1,-1)" d="m12-93c-4.4091 0-8 3.5909-8 8v71c0 4.4091 3.5909 8 8 8h72c4.4091 0 8-3.5909 8-8v-71c0-4.4091-3.5909-8-8-8h-72z" fill="url(#linearGradient3780)" opacity=".2"/>
  <rect id="rect3723" transform="scale(1,-1)" x="5" y="-92" width="86" height="85" rx="7" ry="7" fill="url(#linearGradient3780)" opacity=".3"/>
  <rect id="rect3716" transform="scale(1,-1)" x="6" y="-91" width="84" height="84" rx="6" ry="6" fill="url(#linearGradient3721)" opacity=".45"/>
 </g>
 <g id="layer1">
  <path id="rect2419" d="m24 6v84h60c3.324 0 6-2.676 6-6v-72c0-3.324-2.676-6-6-6h-60z" fill="url(#linearGradient3706)"/>
  <path id="path6019" d="m12 6c-3.324 0-6 2.676-6 6v72c0 3.324 2.676 6 6 6h12v-84h-12z" color="#000000" fill="url(#linearGradient6017)"/>
  <rect id="rect6022" x="-94" y="6" width="84" height="84" rx="6" ry="6" fill="#f0f"/>
 </g>
 <g id="layer6" fill="url(#linearGradient3874)" stroke="#fff" stroke-linecap="round" stroke-width=".5">
  <rect id="rect3171" x="15" y="15" width="66" height="66" rx="12" ry="12" clip-path="url(#clipPath3876)" filter="url(#filter3794)" opacity=".2"/>
  <rect id="rect3868" x="15" y="15" width="66" height="66" rx="12" ry="12" clip-path="url(#clipPath3870)" filter="url(#filter3794)" opacity=".5"/>
 </g>
 <g id="layer3">
  <path id="rect6070" d="m33 16v7 57h8v-56h40v-8h-41-7z" color="#000000" fill="url(#linearGradient6089)"/>
  <rect id="rect6051" x="110" y="15" width="1" height="66" color="#000000" fill="#666" opacity=".3"/>
  <rect id="rect6053" transform="matrix(0,-1,-1,0,0,0)" x="-24" y="-152" width="1" height="50" color="#000000" fill="#666" opacity=".3"/>
  <rect id="rect6055" x="130" y="15" width="1" height="66" color="#000000" fill="#666" opacity=".3"/>
  <rect id="rect6057" transform="matrix(0,-1,-1,0,0,0)" x="-32" y="-152" width="1" height="50" color="#000000" fill="#666" opacity=".3"/>
  <rect id="rect6059" transform="matrix(0,-1,-1,0,0,0)" x="-40" y="-152" width="1" height="50" color="#000000" fill="#666" opacity=".3"/>
  <rect id="rect6061" transform="matrix(0,-1,-1,0,0,0)" x="-48" y="-152" width="1" height="50" color="#000000" fill="#666" opacity=".3"/>
  <rect id="rect6063" transform="matrix(0,-1,-1,0,0,0)" x="-56" y="-152" width="1" height="50" color="#000000" fill="#666" opacity=".3"/>
  <rect id="rect6065" transform="matrix(0,-1,-1,0,0,0)" x="-64" y="-152" width="1" height="50" color="#000000" fill="#666" opacity=".3"/>
  <rect id="rect6067" transform="matrix(0,-1,-1,0,0,0)" x="-72" y="-152" width="1" height="50" color="#000000" fill="#666" opacity=".3"/>
  <rect id="rect6091" x="24" y="6" width="1" height="84" color="#000000" fill="#fff" opacity=".5"/>
  <rect id="rect6093" x="23" y="6" width="1" height="84" color="#000000" opacity=".05"/>
  <rect id="rect6095" x="60" y="39" width="21" height="9" color="#000000" fill="#80d818" opacity=".5"/>
  <rect id="rect6097" x="60" y="24" width="21" height="15" color="#000000" fill="#80d818" opacity=".2"/>
  <rect id="rect6099" x="41" y="39" width="19" height="9" color="#000000" fill="#80d818" opacity=".2"/>
  <path id="rect6029" d="m40 15v8h-8v1h8v7h-8v1h8v7h-8v1h8v7h-8v1h8v7h-8v1h8v7h-8v1h8v7h-8v1h8v9h1v-9h19v9h1v-9h21v-1h-21v-7h21v-1h-21v-7h21v-1h-21v-7h21v-1h-21v-7h21v-1h-21v-7h21v-1h-21v-7h21v-1h-21v-8h-1v8h-19v-8h-1zm1 9h19v7h-19v-7zm0 8h19v7h-19v-7zm0 8h19v7h-19v-7zm0 8h19v7h-19v-7zm0 8h19v7h-19v-7zm0 8h19v7h-19v-7z" color="#000000" opacity=".2"/>
  <path id="rect6027" d="m32 15v0.5 65 0.5h0.5 49 0.5v-0.5-65-0.5h-0.5-49-0.5zm1 1h48v64h-48v-64z" color="#000000" fill="#808080" style="block-progression:tb;text-indent:0;text-transform:none"/>
  <rect id="rect6101" x="33" y="39" width="8" height="9" color="#000000" fill="#6e6e6e" opacity=".2"/>
  <rect id="rect6103" x="60" y="15" width="21" height="9" color="#000000" fill="#6e6e6e" opacity=".2"/>
  <g id="text6105" fill="#4d4d4d">
   <path id="path6166" d="m51.213 21-0.24414-0.70312h-1.0488l-0.24414 0.70312h-0.57617l1.0039-2.752h0.67969l1 2.752h-0.57031m-0.64453-1.9277c-0.01563-0.04557-0.03125-0.09114-0.04687-0.13672-0.01432-0.04687-0.02735-0.08919-0.03906-0.12695-0.01042-0.03906-0.01953-0.07096-0.02734-0.0957-0.0065-0.02474-0.01042-0.03841-0.01172-0.04102-0.0013 0.0039-0.0052 0.01823-0.01172 0.04297-0.0065 0.02474-0.01563 0.05599-0.02734 0.09375-0.01042 0.03776-0.02344 0.08008-0.03906 0.12695-0.01432 0.04557-0.0293 0.09115-0.04492 0.13672l-0.27148 0.79102h0.79102l-0.27148-0.79102"/>
  </g>
  <g id="text6109" fill="#4d4d4d">
   <path id="path6163" d="m71.707 20.215c-2e-6 0.13932-0.028 0.25912-0.08398 0.35938-0.05599 0.09896-0.13282 0.18034-0.23047 0.24414-0.09636 0.0625-0.20899 0.10872-0.33789 0.13867-0.12891 0.028646-0.26563 0.042969-0.41016 0.042969h-1.377v-2.752h1.2598c0.16276 3e-6 0.30729 0.01433 0.43359 0.04297 0.1276 0.02735 0.23502 0.06966 0.32227 0.12695 0.08724 0.05729 0.15299 0.12956 0.19727 0.2168 0.04557 0.08594 0.06836 0.1875 0.06836 0.30469-2e-6 0.15625-0.04362 0.28841-0.13086 0.39648-0.08594 0.10677-0.21745 0.17904-0.39453 0.2168 0.22266 0.02604 0.39192 0.09636 0.50781 0.21094 0.11718 0.11328 0.17578 0.26367 0.17578 0.45117m-0.73828-1.1973c-2e-6 -0.1237-0.03972-0.21159-0.11914-0.26367-0.07813-0.05208-0.19466-0.07812-0.34961-0.07813h-0.65625v0.68164h0.66016c0.16276 2e-6 0.2806-0.02799 0.35352-0.08398 0.07422-0.05729 0.11133-0.14258 0.11133-0.25586m0.16016 1.1523c-2e-6 -0.07292-0.01432-0.13411-0.04297-0.18359s-0.06836-0.08919-0.11914-0.11914c-0.04948-0.02995-0.10808-0.05143-0.17578-0.06445-0.06641-0.01302-0.13867-0.01953-0.2168-0.01953h-0.73047v0.78906h0.75195c0.07552 0 0.14583-0.0059 0.21094-0.01758 0.0651-0.01302 0.12109-0.0345 0.16797-0.06445 0.04818-0.03125 0.08594-0.07292 0.11328-0.125 0.02734-0.05208 0.04101-0.11719 0.04102-0.19531"/>
  </g>
  <g id="text6113" fill="#4d4d4d">
   <path id="path6142" d="m35.584 29v-0.4082h0.68164v-1.877l-0.66016 0.41211v-0.43164l0.68945-0.44726h0.51953v2.3438h0.63086v0.4082h-1.8613"/>
  </g>
  <g id="text6117" fill="#4d4d4d">
   <path id="path6145" d="m35.471 37v-0.38086c0.0625-0.13672 0.13867-0.25976 0.22852-0.36914 0.08984-0.11068 0.18359-0.21159 0.28125-0.30273 0.09896-0.09245 0.19661-0.17773 0.29297-0.25586 0.09766-0.07943 0.1849-0.1556 0.26172-0.22852 0.07812-0.07422 0.14128-0.14844 0.18945-0.22266 0.04818-0.07422 0.07227-0.15299 0.07227-0.23633-1e-6 -0.12239-0.0306-0.21289-0.0918-0.27148-0.0612-0.05859-0.15104-0.08789-0.26953-0.08789-0.11719 3e-6 -0.20703 0.0319-0.26953 0.0957-0.0612 0.0625-0.10091 0.1569-0.11914 0.2832l-0.55273-0.03125c0.01302-0.10807 0.03971-0.20963 0.08008-0.30469 0.04036-0.09505 0.09766-0.17838 0.17188-0.25 0.07552-0.07161 0.16927-0.1276 0.28125-0.16797 0.11328-0.04166 0.24805-0.0625 0.4043-0.0625 0.14844 3e-6 0.27995 0.01758 0.39453 0.05273 0.11458 0.03386 0.21094 0.08399 0.28906 0.15039 0.07812 0.06641 0.13737 0.14779 0.17774 0.24414 0.04036 0.09505 0.06054 0.20378 0.06055 0.32617-2e-6 0.12891-0.02539 0.24544-0.07617 0.34961-0.05078 0.10417-0.11589 0.20052-0.19531 0.28906-0.07943 0.08724-0.16797 0.16927-0.26562 0.24609-0.09636 0.07682-0.1901 0.15169-0.28125 0.22461-0.09115 0.07292-0.17448 0.14648-0.25 0.2207-0.07422 0.07422-0.12956 0.15365-0.16602 0.23828h1.2773v0.45117h-1.9258"/>
  </g>
  <g id="text6121" fill="#4d4d4d">
   <path id="path6148" d="m37.412 44.236c-2e-6 0.125-0.02083 0.23763-0.0625 0.33789-0.04037 0.09896-0.10156 0.18359-0.18359 0.25391-0.08203 0.07031-0.18425 0.12435-0.30664 0.16211-0.1211 0.03646-0.26237 0.05469-0.42383 0.05469-0.17969 0-0.33138-0.02279-0.45508-0.06836-0.1224-0.04557-0.22331-0.10547-0.30274-0.17969-0.07813-0.07552-0.13737-0.16081-0.17773-0.25586-0.03906-0.09505-0.06445-0.19141-0.07617-0.28906l0.55859-0.04883c0.0078 0.05859 0.02213 0.11263 0.04297 0.16211 0.02213 0.04818 0.05143 0.08984 0.08789 0.125s0.08073 0.0625 0.13281 0.08203c0.05338 0.01823 0.11588 0.02734 0.1875 0.02734 0.13151 1e-6 0.23372-0.03255 0.30664-0.09766 0.07292-0.0651 0.10937-0.16471 0.10938-0.29883-1e-6 -0.08203-0.01758-0.14779-0.05273-0.19727-0.03386-0.04948-0.07747-0.08724-0.13086-0.11328-0.05208-0.02734-0.10873-0.04557-0.16992-0.05469-0.0612-0.0091-0.11914-0.01367-0.17383-0.01367h-0.19141v-0.44336h0.17969c0.05469 2e-6 0.11002-0.0052 0.16602-0.01563 0.05729-0.01042 0.10872-0.02929 0.1543-0.05664 0.04557-0.02734 0.08268-0.0651 0.11133-0.11328 0.02864-0.04948 0.04297-0.11198 0.04297-0.1875-1e-6 -0.11328-0.0319-0.20182-0.0957-0.26562-0.0625-0.0651-0.1543-0.09765-0.27539-0.09766-0.11328 3e-6 -0.20508 0.03125-0.27539 0.09375-0.06901 0.0625-0.10872 0.15104-0.11914 0.26562l-0.54883-0.03906c0.01563-0.1289 0.05078-0.24088 0.10547-0.33594 0.05599-0.09505 0.12565-0.17382 0.20898-0.23633 0.08463-0.0625 0.18164-0.10872 0.29102-0.13867 0.10937-0.03125 0.22526-0.04687 0.34766-0.04687 0.16146 3e-6 0.30013 0.01953 0.41602 0.05859 0.11588 0.03907 0.21094 0.0918 0.28516 0.1582 0.07422 0.06641 0.1289 0.14388 0.16406 0.23242 0.03515 0.08854 0.05273 0.18294 0.05273 0.2832-2e-6 0.08073-0.01172 0.15625-0.03516 0.22656-0.02344 0.06901-0.05925 0.13151-0.10742 0.1875-0.04688 0.05469-0.10742 0.10222-0.18164 0.14258-0.07422 0.03906-0.16211 0.06836-0.26367 0.08789v0.0078c0.11328 0.01302 0.21159 0.03906 0.29492 0.07813 0.08333 0.03776 0.15169 0.08529 0.20508 0.14258 0.05338 0.05729 0.0931 0.1224 0.11914 0.19531 0.02604 0.07162 0.03906 0.14779 0.03906 0.22852"/>
  </g>
  <g id="text6125" fill="#4d4d4d">
   <path id="path6151" d="m37.168 52.439v0.56055h-0.52344v-0.56055h-1.252v-0.41211l1.1621-1.7793h0.61328v1.7832h0.36719v0.4082h-0.36719m-0.52344-1.3086c-1e-6 -0.02213-1e-6 -0.05078 0-0.08594 0.0013-0.03646 0.0026-0.07357 0.0039-0.11133 0.0026-0.03776 0.0046-0.07357 0.0059-0.10742 0.0026-0.03515 0.0052-0.0625 0.0078-0.08203-0.0065 0.01432-0.01693 0.03516-0.03125 0.0625-0.01432 0.02604-0.0306 0.05469-0.04883 0.08594-0.01693 0.02995-0.03516 0.0599-0.05469 0.08984-0.01823 0.02995-0.03451 0.05599-0.04883 0.07813l-0.63867 0.9707h0.80469v-0.90039"/>
  </g>
  <g id="text6129" fill="#4d4d4d">
   <path id="path6154" d="m37.445 60.084c-2e-6 0.13802-0.02214 0.26563-0.06641 0.38281-0.04297 0.11589-0.10742 0.2168-0.19336 0.30273-0.08594 0.08464-0.19271 0.15104-0.32031 0.19922-0.1263 0.04687-0.27279 0.07031-0.43945 0.07031-0.15365 0-0.28776-0.01823-0.40234-0.05469-0.11458-0.03776-0.21159-0.08919-0.29102-0.1543-0.07813-0.06641-0.13997-0.14388-0.18555-0.23242-0.04427-0.08854-0.07487-0.18359-0.0918-0.28516l0.54883-0.04492c0.01042 0.04297 0.02474 0.08464 0.04297 0.125 0.01953 0.04037 0.04622 0.07617 0.08008 0.10742 0.03385 0.03125 0.07552 0.05664 0.125 0.07617 0.04948 0.01823 0.10937 0.02734 0.17969 0.02734 0.13672 0 0.24544-0.04362 0.32617-0.13086 0.08203-0.08724 0.12305-0.21289 0.12305-0.37695-1e-6 -0.07292-0.01042-0.13867-0.03125-0.19727-0.01953-0.05859-0.04818-0.10872-0.08594-0.15039-0.03646-0.04167-0.08203-0.07357-0.13672-0.0957-0.05339-0.02213-0.11458-0.0332-0.18359-0.0332-0.09115 1e-6 -0.16602 0.01758-0.22461 0.05273-0.05859 0.03386-0.10807 0.07552-0.14844 0.125h-0.53516l0.0957-1.5488h1.6543v0.4082h-1.1562l-0.04492 0.69531c0.05469-0.04818 0.1237-0.08919 0.20703-0.12305 0.08333-0.03515 0.18034-0.05273 0.29102-0.05273 0.13542 2e-6 0.25651 0.02214 0.36328 0.06641 0.10677 0.04427 0.19726 0.10612 0.27148 0.18555 0.07422 0.07943 0.13086 0.17513 0.16992 0.28711 0.03906 0.11068 0.05859 0.23372 0.05859 0.36914"/>
  </g>
  <g id="text6133" fill="#4d4d4d">
   <path id="path6157" d="m37.412 68.1c-2e-6 0.13802-0.01953 0.26498-0.05859 0.38086-0.03907 0.11458-0.09766 0.21354-0.17578 0.29688-0.07682 0.08203-0.17318 0.14648-0.28906 0.19336-0.11589 0.04557-0.25 0.06836-0.40234 0.06836-0.32422 0-0.57357-0.11328-0.74805-0.33984-0.17318-0.22786-0.25977-0.5651-0.25976-1.0117-1e-6 -0.49088 0.08789-0.86002 0.26367-1.1074 0.17708-0.2487 0.42969-0.37304 0.75781-0.37305 0.10937 3e-6 0.20898 0.01172 0.29883 0.03516 0.08984 0.02214 0.16992 0.0586 0.24023 0.10938 0.07031 0.05078 0.13021 0.11654 0.17969 0.19727 0.04948 0.07943 0.08919 0.17644 0.11914 0.29102l-0.51758 0.07227c-0.02604-0.09635-0.06836-0.16536-0.12695-0.20703-0.0586-0.04297-0.12695-0.06445-0.20508-0.06445-0.14714 2e-6 -0.26302 0.07357-0.34766 0.2207-0.08333 0.14714-0.125 0.37044-0.125 0.66992 0.05859-0.09766 0.13997-0.17252 0.24414-0.22461 0.10416-0.05208 0.222-0.07812 0.35352-0.07813 0.12109 1e-6 0.23047 0.02018 0.32812 0.06055 0.09896 0.03906 0.18294 0.09636 0.25195 0.17188 0.07031 0.07422 0.12435 0.16537 0.16211 0.27344 0.03776 0.10807 0.05664 0.22982 0.05664 0.36523m-0.55078 0.01563c-1e-6 -0.07422-0.0085-0.14062-0.02539-0.19922-0.01693-0.05989-0.04297-0.11068-0.07813-0.15234-0.03386-0.04167-0.07617-0.07357-0.12695-0.0957-0.05078-0.02344-0.10938-0.03516-0.17578-0.03516-0.04818 2e-6 -0.09636 0.0078-0.14453 0.02344-0.04818 0.01563-0.09115 0.04102-0.12891 0.07617-0.03776 0.03386-0.06836 0.07748-0.0918 0.13086-0.02344 0.05339-0.03516 0.11784-0.03516 0.19336 0 0.07813 0.0098 0.15104 0.0293 0.21875 0.01953 0.06771 0.04687 0.12695 0.08203 0.17773 0.03646 0.04948 0.08008 0.08854 0.13086 0.11719 0.05078 0.02734 0.10807 0.04102 0.17188 0.04102 0.1237 1e-6 0.22005-0.04362 0.28906-0.13086 0.06901-0.08854 0.10352-0.21029 0.10352-0.36524"/>
  </g>
  <g id="text6137" fill="#4d4d4d">
   <path id="path6160" d="m37.381 74.684c-0.1237 0.19531-0.24089 0.38477-0.35156 0.56836-0.10938 0.1836-0.20508 0.36849-0.28711 0.55469-0.08203 0.1849-0.14714 0.37565-0.19531 0.57226-0.04688 0.19531-0.07031 0.40234-0.07031 0.62109h-0.57226c-1e-6 -0.21745 0.02539-0.42383 0.07617-0.61914 0.05208-0.19661 0.1224-0.38802 0.21094-0.57422 0.08854-0.1862 0.1914-0.36979 0.30859-0.55078 0.11719-0.18229 0.24088-0.36784 0.37109-0.55664h-1.3672v-0.45117h1.877v0.43555"/>
  </g>
  <path id="rect6168" d="m60 39v9h22v-9h-22zm1 1h20v7h-20v-7z" color="#000000" fill="#569110" opacity=".5"/>
 </g>
 <g id="layer4">
  <path id="rect3728" d="m24 6v2h58 2c2.7818 0 5 2.2182 5 5v2 68 2c0 0.3643-0.05212 0.72099-0.125 1.0625-0.04415 0.20689-0.08838 0.39766-0.15625 0.59375-0.0077 0.02195-0.0233 0.04069-0.03125 0.0625-0.06274 0.17374-0.13838 0.36745-0.21875 0.53125-0.04158 0.0828-0.07904 0.16995-0.125 0.25-0.0546 0.09721-0.12677 0.18835-0.1875 0.28125-0.09411 0.14096-0.20492 0.276-0.3125 0.40625-0.14317 0.17445-0.30314 0.347-0.46875 0.5-0.01117 0.0102-0.01998 0.02115-0.03125 0.03125-0.13839 0.12556-0.28509 0.23444-0.4375 0.34375-0.10257 0.07315-0.20432 0.15336-0.3125 0.21875-0.0074 0.0045-0.02384-0.0044-0.03125 0-0.23204 0.13873-0.46255 0.27478-0.71875 0.375 0.30153-0.0968 0.59646-0.20414 0.875-0.34375 0.55709-0.27922 1.0601-0.66569 1.5-1.0938 0.21997-0.21403 0.40937-0.44186 0.59375-0.6875s0.35541-0.50774 0.5-0.78125c0.14012-0.26505 0.27614-0.52473 0.375-0.8125 0.01041-0.03078 0.02133-0.06274 0.03125-0.09375 0.09046-0.27808 0.1388-0.5794 0.1875-0.875 0.0524-0.31805 0.09375-0.63403 0.09375-0.96875v-2-68-2c0-3.324-2.676-6-6-6h-60z" fill="url(#linearGradient3188)" opacity=".5"/>
  <path id="path3615" d="m12 90c-3.324 0-6-2.676-6-6v-2-68-2c0-0.33472 0.04135-0.6507 0.09375-0.96875 0.0487-0.2956 0.09704-0.59692 0.1875-0.875 0.00988-0.03038 0.020892-0.0636 0.03125-0.09375 0.098865-0.28777 0.23488-0.54745 0.375-0.8125 0.14459-0.27351 0.31562-0.53562 0.5-0.78125s0.37378-0.47347 0.59375-0.6875c0.43995-0.42806 0.94291-0.81453 1.5-1.0938 0.27854-0.13961 0.57347-0.24695 0.875-0.34375-0.2562 0.10022-0.48671 0.23627-0.71875 0.375-0.00741 0.0044-0.023866-0.0045-0.03125 0-0.031933 0.0193-0.062293 0.04251-0.09375 0.0625-0.1204 0.0767-0.23102 0.16351-0.34375 0.25-0.10617 0.0808-0.21328 0.16111-0.3125 0.25-0.17793 0.16143-0.34746 0.34539-0.5 0.53125-0.10758 0.13026-0.21839 0.26528-0.3125 0.40625-0.025089 0.03838-0.038446 0.08587-0.0625 0.125-0.064763 0.10303-0.13023 0.20452-0.1875 0.3125-0.10101 0.19471-0.20567 0.4157-0.28125 0.625-0.00796 0.02181-0.023589 0.04055-0.03125 0.0625-0.031825 0.09195-0.035804 0.18683-0.0625 0.28125-0.030332 0.10662-0.070389 0.20303-0.09375 0.3125-0.072879 0.34151-0.125 0.6982-0.125 1.0625v2 68 2c0 2.7818 2.2182 5 5 5h2 68 2c2.7818 0 5-2.2182 5-5v-2-68-2c0-0.3643-0.05212-0.72099-0.125-1.0625-0.04415-0.20689-0.08838-0.39766-0.15625-0.59375-0.0077-0.02195-0.0233-0.04069-0.03125-0.0625-0.06274-0.17374-0.13838-0.36745-0.21875-0.53125-0.04158-0.0828-0.07904-0.16995-0.125-0.25-0.0546-0.09721-0.12677-0.18835-0.1875-0.28125-0.09411-0.14096-0.20492-0.276-0.3125-0.40625-0.14317-0.17445-0.30314-0.347-0.46875-0.5-0.01117-0.0102-0.01998-0.02115-0.03125-0.03125-0.13839-0.12556-0.28509-0.23444-0.4375-0.34375-0.10257-0.07315-0.20432-0.15336-0.3125-0.21875-0.0074-0.0045-0.02384 0.0044-0.03125 0-0.23204-0.13873-0.46255-0.27478-0.71875-0.375 0.30153 0.0968 0.59646 0.20414 0.875 0.34375 0.55709 0.27922 1.0601 0.66569 1.5 1.0938 0.21997 0.21403 0.40937 0.44186 0.59375 0.6875s0.35541 0.50774 0.5 0.78125c0.14012 0.26505 0.27614 0.52473 0.375 0.8125 0.01041 0.03078 0.02133 0.06274 0.03125 0.09375 0.09046 0.27808 0.1388 0.5794 0.1875 0.875 0.0524 0.31805 0.09375 0.63403 0.09375 0.96875v2 68 2c0 3.324-2.676 6-6 6h-72z" fill="url(#radialGradient2903)" opacity=".4"/>
  <path id="path3753" d="m12 6c-3.324 0-6 2.676-6 6v2 68 2c0 0.33472 0.04135 0.6507 0.09375 0.96875 0.033021 0.20043 0.079068 0.39709 0.125 0.59375 0.019951 0.07449 0.039796 0.14545 0.0625 0.21875 0.0058 0.0192-0.00618 0.04351 0 0.0625 0.00988 0.03038 0.020892 0.0636 0.03125 0.09375 0.018567 0.05405 0.041531 0.10396 0.0625 0.15625 0.090684 0.22612 0.1987 0.44098 0.3125 0.65625 0.14459 0.27351 0.31562 0.53562 0.5 0.78125s0.37378 0.47347 0.59375 0.6875c0.43995 0.42806 0.94291 0.81453 1.5 1.0938 0.27854 0.13961 0.57347 0.24695 0.875 0.34375-0.2562-0.10022-0.48671-0.23627-0.71875-0.375-0.00741-0.0044-0.023866 0.0045-0.03125 0-0.031933-0.0193-0.062293-0.04251-0.09375-0.0625-0.1204-0.0767-0.23102-0.16351-0.34375-0.25-0.10617-0.0808-0.21328-0.16111-0.3125-0.25-0.17793-0.16143-0.34746-0.34539-0.5-0.53125-0.10758-0.13026-0.21839-0.26528-0.3125-0.40625-0.025089-0.03838-0.038446-0.08587-0.0625-0.125-0.064763-0.10303-0.13023-0.20452-0.1875-0.3125-0.10101-0.19471-0.20567-0.4157-0.28125-0.625-0.00796-0.02181-0.023589-0.04055-0.03125-0.0625-0.031825-0.09195-0.035804-0.18683-0.0625-0.28125-0.030332-0.10662-0.070389-0.20303-0.09375-0.3125-0.072879-0.34151-0.125-0.6982-0.125-1.0625v-2-68-2c0-2.7818 2.2182-5 5-5h2 10v-2h-12z" fill="url(#linearGradient3188)" opacity=".3"/>
 </g>
</svg>
