<?xml version="1.0" encoding="UTF-8"?>
<svg width="16" height="16" version="1.1" xmlns="http://www.w3.org/2000/svg">
 <defs>
  <linearGradient id="gr0" x1="8" x2="8" y1="1" y2="15" gradientUnits="userSpaceOnUse">
   <stop stop-color="#ebebeb" offset="0"/>
   <stop stop-color="#aaa" offset="1"/>
  </linearGradient>
 </defs>
 <path d="m6 0a1 1 0 0 0-1 1v0.26c-0.322-0.0537-0.646-0.104-0.885-0.156-0.971-0.213-1.71-0.679-1.64-0.6l0.00976 0.0117c-0.265-0.325-0.683-0.518-1.1-0.514-0.529 0.00648-1.04 0.338-1.26 0.82-0.217 0.481-0.127 1.08 0.217 1.48 0.827 0.979 2.02 1.27 3.18 1.53 0.45 0.0986 0.906 0.163 1.32 0.232a1 1 0 0 0 0.17 0.0137 1 1 0 0 0 0.996 0.92 1 1 0 0 0-1 1v0.396a1 1 0 0 0-0.221 0.0254c-0.81 0.184-1.65 0.407-2.43 0.828-1.19 0.643-2.24 1.83-2.34 3.45-0.0514 0.788 0.247 1.53 0.762 2.06a1 1 0 0 0 0 0.0019c0.485 0.495 1.08 0.775 1.68 0.977 0.757 0.256 1.59 0.378 2.43 0.484a1 1 0 0 0 0.152 0.0058 1 1 0 0 0 0.973 0.775 1 1 0 0 0 1 1h1a1 1 0 0 0 1-1 1 1 0 0 0 0.709-0.295 1 1 0 0 0 0.172 0.0371c1.75 0.21 3.3 0.584 3.93 1.01a1 1 0 0 0 0.0234 0.0156c0.605 0.39 1.51 0.206 1.91-0.389 0.406-0.595 0.248-1.5-0.336-1.92a1 1 0 0 0-0.0215-0.0156c-1.47-1-3.37-1.31-5.28-1.51a1 1 0 0 0-0.107-0.0059v-0.924a1 1 0 0 0-1-1 1 1 0 0 0 1-1v-0.73a1 1 0 0 0 0.268-0.0371c0.435-0.121 0.881-0.266 1.31-0.525l2e-3 -0.00195c0.519-0.313 1.04-0.829 1.22-1.57v-0.00196c0.177-0.724 0.0998-1.49-0.26-2.12-0.346-0.61-0.872-1.01-1.4-1.3v0.00195c-0.276-0.149-0.544-0.253-0.795-0.344a1 1 0 0 0-0.342-0.0586v-1.31a1 1 0 0 0-1-1h-3zm-4.61 1a0.398 0.398 0 0 1 0.314 0.146c0.307 0.366 1.13 0.701 2.19 0.934 0.336 0.0735 0.729 0.132 1.1 0.195v0.805c-0.428-0.0717-0.871-0.135-1.27-0.223-1.12-0.244-2.08-0.539-2.63-1.2a0.398 0.398 0 0 1 0.297-0.658zm4.61 0h3v3h-1v2h1v3h-1v2h1v3h-1v1h-1v-1h-1v-3h1v-2h-1v-3h1v-2h-1v-3zm4 2.31c0.234 0.0851 0.461 0.175 0.662 0.283 0.426 0.23 0.785 0.521 1.01 0.914 0.223 0.393 0.283 0.88 0.158 1.39-0.102 0.418-0.402 0.734-0.766 0.953-0.302 0.183-0.666 0.31-1.06 0.42v-0.832c0.257-0.0828 0.489-0.171 0.652-0.27 0.25-0.151 0.36-0.292 0.402-0.461 0.086-0.354 0.0458-0.592-0.0762-0.809-0.123-0.216-0.353-0.421-0.695-0.605-0.082-0.0447-0.189-0.0816-0.283-0.123v-0.861zm-0.645 1.62a1 1 0 0 0 0.242 0.152c0.149 0.0656 0.242 0.105 0.207 0.0859a1 1 0 0 0 0.0039 0.00195c0.187 0.101 0.215 0.149 0.238 0.174-0.0433 0.0202-0.125 0.05-0.221 0.0859a1 1 0 0 0-0.826-0.434 1 1 0 0 0 0.355-0.0664zm0.74 0.496c-0.0023-0.00594 0.0108-0.052-0.0117 0.041v-0.00586c6e-3 -0.0242-0.0026-0.0116 0.0117-0.0352zm-5.1 1.97v0.824c-0.669 0.159-1.3 0.343-1.8 0.611-0.835 0.45-1.34 1.02-1.4 1.98-0.0196 0.302 0.0592 0.49 0.252 0.688s0.522 0.383 0.967 0.533c0.518 0.176 1.22 0.29 1.98 0.389v0.805c-0.826-0.104-1.61-0.226-2.24-0.44-0.514-0.174-0.956-0.398-1.28-0.73-0.325-0.333-0.511-0.794-0.479-1.3 0.0808-1.24 0.833-2.1 1.82-2.63 0.643-0.346 1.4-0.558 2.18-0.734zm0.0352 1.86a1 1 0 0 0 0.957 0.74 1 1 0 0 0-0.992 1v0.404c-0.676-0.0925-1.31-0.199-1.66-0.318a1 1 0 0 0-0.00195 0c-0.32-0.108-0.483-0.228-0.525-0.262 0.0497-0.58 0.215-0.763 0.861-1.11 0.309-0.166 0.822-0.315 1.36-0.453zm4.96 3.66c1.86 0.202 3.63 0.532 4.82 1.35a0.398 0.398 0 0 1-0.449 0.658c-0.945-0.645-2.58-0.963-4.37-1.18v-0.826z" opacity=".25"/>
 <path d="m1.39 1a0.398 0.398 0 0 0-0.297 0.658c0.553 0.66 1.52 0.955 2.63 1.2 0.398 0.0872 0.841 0.151 1.27 0.223v-0.805c-0.371-0.0635-0.764-0.122-1.1-0.195-1.06-0.232-1.89-0.567-2.19-0.934a0.398 0.398 0 0 0-0.314-0.146zm4.61 0v3h1v2h-1v3h1v2h-1v3h1v1h1v-1h1v-3h-1v-2h1v-3h-1v-2h1v-3h-3zm4 2.31v0.861c0.094 0.0414 0.201 0.0784 0.283 0.123 0.342 0.184 0.573 0.389 0.696 0.605 0.122 0.216 0.162 0.454 0.076 0.809-0.042 0.169-0.153 0.31-0.403 0.461-0.163 0.0986-0.395 0.187-0.652 0.27v0.832c0.396-0.11 0.76-0.237 1.06-0.42 0.364-0.219 0.664-0.535 0.766-0.953 0.125-0.511 0.065-0.998-0.158-1.39-0.223-0.393-0.582-0.684-1.01-0.914-0.201-0.109-0.428-0.198-0.662-0.283zm-5 4.09c-0.778 0.176-1.53 0.388-2.18 0.734-0.985 0.531-1.74 1.39-1.82 2.63-0.0328 0.503 0.153 0.964 0.478 1.3 0.325 0.332 0.767 0.556 1.28 0.73 0.628 0.213 1.41 0.336 2.24 0.44v-0.805c-0.758-0.099-1.46-0.213-1.98-0.389-0.444-0.15-0.774-0.336-0.967-0.533s-0.272-0.386-0.252-0.688c0.0627-0.96 0.565-1.53 1.4-1.98 0.498-0.268 1.13-0.452 1.8-0.611v-0.824zm5 5.53v0.826c1.79 0.215 3.43 0.533 4.37 1.18a0.398 0.398 0 0 0 0.449-0.658c-1.19-0.814-2.96-1.14-4.82-1.35z" fill="url(#gr0)"/>
 <path d="m1.39 2a0.398 0.398 0 0 0-0.297 0.658c0.553 0.66 1.52 0.955 2.63 1.2 0.398 0.0872 0.841 0.151 1.27 0.223v-0.805c-0.371-0.0635-0.764-0.122-1.1-0.195-1.04-0.228-1.85-0.554-2.17-0.912-0.0824-0.0488-0.162-0.101-0.236-0.156a0.398 0.398 0 0 0-0.104-0.0117zm4.61 2v1h1v-1h-1zm2 0v1h1v-1h-1zm2 0.309v0.861c0.094 0.0414 0.201 0.0784 0.283 0.123 0.333 0.18 0.556 0.378 0.682 0.588 0.0375-0.0564 0.0745-0.112 0.0899-0.174 0.086-0.354 0.0458-0.592-0.0762-0.809-0.0416-0.0732-0.113-0.143-0.18-0.213-0.0482-0.0289-0.0864-0.0667-0.137-0.0938-0.201-0.109-0.428-0.198-0.662-0.283zm1.83 1.6c-0.104 0.414-0.402 0.727-0.764 0.945-0.0333 0.0202-0.0746 0.0339-0.109 0.0527-0.0651 0.0895-0.154 0.177-0.301 0.266-0.163 0.0986-0.395 0.187-0.652 0.27v0.832c0.396-0.11 0.76-0.237 1.06-0.42 0.364-0.219 0.664-0.535 0.766-0.953 0.0857-0.35 0.0791-0.687-0.0019-0.992zm-6.83 2.49c-0.778 0.176-1.53 0.388-2.18 0.734-0.127 0.0686-0.237 0.159-0.355 0.238-0.384 0.369-0.627 0.819-0.668 1.44-0.0125 0.193 0.0319 0.335 0.104 0.467 0.189-0.646 0.632-1.09 1.3-1.45 0.498-0.268 1.13-0.452 1.8-0.611v-0.824zm1 0.604v1h1v-1h-1zm2 0v1h1v-1h-1zm-6.93 2.31c-0.031 0.145-0.0523 0.296-0.0625 0.453-0.0328 0.503 0.153 0.964 0.479 1.3 0.325 0.332 0.767 0.556 1.28 0.73 0.628 0.213 1.41 0.336 2.24 0.44v-0.805c-0.758-0.099-1.46-0.213-1.98-0.389-0.444-0.15-0.774-0.336-0.967-0.533-0.0115-0.0118-0.0127-0.0254-0.0234-0.0371-0.204-0.116-0.389-0.247-0.545-0.406-0.202-0.207-0.34-0.465-0.416-0.75zm8.93 2.62v0.826c1.79 0.215 3.43 0.533 4.37 1.18a0.398 0.398 0 0 0 0.449-0.658c-1.19-0.814-2.96-1.14-4.82-1.35zm-4 0.0762v1h1v-1h-1zm1 1v1h1v-1h-1zm1 0h1v-1h-1v1z" opacity=".45"/>
 <path d="m1.39 1a0.398 0.398 0 0 0-0.297 0.658c0.113 0.135 0.255 0.246 0.4 0.354a0.398 0.398 0 0 1 0.211 0.135c0.0061 0.00728 0.0189 0.0142 0.0254 0.0215 0.541 0.32 1.23 0.521 2 0.689 0.398 0.0872 0.841 0.151 1.27 0.223v-0.805c-0.371-0.0635-0.764-0.122-1.1-0.195-1.06-0.232-1.89-0.567-2.19-0.934a0.398 0.398 0 0 0-0.314-0.146zm4.61 0v1h3v-1h-3zm4 2.31v0.861c0.094 0.0414 0.201 0.0784 0.283 0.123 0.226 0.122 0.386 0.255 0.516 0.393 0.361 0.216 0.674 0.473 0.871 0.82 0.0702 0.124 0.119 0.258 0.156 0.398 6e-4 -0.00264 0.0013-0.00517 0.0019-0.00782 0.125-0.511 0.0648-0.998-0.158-1.39-0.223-0.393-0.582-0.684-1.01-0.914-0.201-0.109-0.428-0.198-0.662-0.283zm0.965 2.57c-0.0646 0.0972-0.154 0.192-0.312 0.287-0.163 0.0986-0.395 0.187-0.652 0.27v0.832c0.352-0.0976 0.673-0.215 0.953-0.367 0.0459-0.063 0.0842-0.126 0.102-0.195 0.086-0.354 0.0458-0.592-0.0762-0.809-0.0033-0.00585-0.0102-0.0118-0.0137-0.0176zm-4.96 0.119v1h1v-1h-1zm2 0v1h1v-1h-1zm-3 1.4c-0.778 0.176-1.53 0.388-2.18 0.734-0.985 0.531-1.74 1.39-1.82 2.63-0.0124 0.191 0.0163 0.373 0.0625 0.547 0.182-0.851 0.718-1.48 1.4-1.94 0.206-0.198 0.441-0.38 0.732-0.537 0.498-0.268 1.13-0.452 1.8-0.611v-0.824zm1 3.6v1h1v-1h-1zm2 0v1h1v-1h-1zm-6.1 0.279c-0.0486 0.166-0.0907 0.337-0.104 0.533-0.0184 0.284 0.06 0.466 0.229 0.65 0.223 0.126 0.468 0.234 0.736 0.324 0.628 0.213 1.41 0.336 2.24 0.44v-0.805c-0.758-0.099-1.46-0.213-1.98-0.389-0.444-0.15-0.774-0.336-0.967-0.533-0.0698-0.0713-0.108-0.146-0.148-0.221zm8.1 1.64v0.826c1.79 0.215 3.43 0.533 4.37 1.18a0.398 0.398 0 0 0 0.449-0.658c-1.19-0.814-2.96-1.14-4.82-1.35z" fill="#fff" opacity=".6"/>
</svg>
