<?xml version="1.0" encoding="UTF-8"?>
<svg width="16" height="16" version="1.1" xmlns="http://www.w3.org/2000/svg">
 <defs>
  <linearGradient id="gr0" x1="8" x2="8" y1="1" y2="15" gradientUnits="userSpaceOnUse">
   <stop stop-color="#ebebeb" offset="0"/>
   <stop stop-color="#aaa" offset="1"/>
  </linearGradient>
 </defs>
 <path d="m5 0a1 1 0 0 0-1 1v11a1 1 0 0 0 0.225 0.631c-0.092 0.043-0.202 0.0196-0.289 0.08-0.382 0.265-0.66 0.765-0.66 1.24 0 0.955 0.694 1.55 1.54 1.91a1 1 0 0 0 0.107 0.0391c0.68 0.203 1.26 0.0896 1.84-0.043 0.579-0.133 1.09-0.308 1.54-0.58a1 1 0 0 0 0.0274-0.0175c1.51-0.998 2.66-2.31 3.46-3.72a1 1 0 0 0 0.0137-0.0254c0.526-0.993 1.13-2.15 1.2-3.5a1 1 0 0 0 0-0.00977c0.0118-0.281 0.0015-0.637-0.193-1.04-0.0467-0.0978-0.22-0.128-0.297-0.223a1 1 0 0 0 0.498-0.863v-2.72c0-0.936-0.27-1.83-0.949-2.41v-0.00195c-0.677-0.581-1.56-0.748-2.58-0.748-0.384 1.04e-16 -0.766 0.0247-1.15 0.0723-0.376 0.0439-0.751 0.11-1.12 0.197a1 1 0 0 0-0.373 0.174 1 1 0 0 0-0.83-0.443h-1zm0 1h1v11h-1v-11zm4.47 0c0.891 0 1.54 0.17 1.93 0.51 0.397 0.337 0.596 0.888 0.596 1.65v2.72h-1.59v-0.705c-0.212 0.289-0.45 0.5-0.715 0.633-0.265 0.13-0.587 0.195-0.967 0.195-0.512 0-0.927-0.143-1.25-0.43-0.318-0.289-0.477-0.664-0.477-1.12 0-0.558 0.198-0.968 0.596-1.23 0.4-0.261 1.03-0.391 1.88-0.391h0.932v-0.119c1e-4 -0.241-0.0979-0.417-0.295-0.527-0.197-0.113-0.504-0.17-0.922-0.17-0.338 0-0.654 0.0325-0.945 0.0977-0.291 0.0652-0.562 0.163-0.812 0.293v-1.16c0.338-0.0794 0.678-0.138 1.02-0.178 0.341-0.0426 0.682-0.0644 1.02-0.0644zm0.111 2.73c-0.33 0-0.578 0.0524-0.746 0.16-0.165 0.108-0.246 0.267-0.246 0.477 0 0.193 0.0649 0.344 0.197 0.455 0.135 0.108 0.322 0.162 0.561 0.162 0.297 0 0.547-0.103 0.75-0.307 0.203-0.207 0.305-0.464 0.305-0.773v-0.174h-0.82zm1.97 2.3 0.0859 0.0176c-0.022-0.0057-0.0424 0.00477-0.0644 0-0.01-0.00187-0.0115-0.0159-0.0215-0.0176zm-2.03 0.695 0.0293 0.0312c-0.0039-0.00444-0.00974-0.00342-0.0137-0.00781-0.0072-0.00764-0.00832-0.0158-0.0156-0.0234zm0.354 0.0234c-0.0764 0.124-0.00858 0.306-0.0449 0.469-0.0928-0.135-0.136-0.274-0.254-0.404 0.0988-0.0254 0.203-0.0284 0.299-0.0644zm1.19 0.264c0.105-0.0237 0.216-0.0241 0.324 0.0039 0.527 0.088 0.616 0.587 0.602 0.945-0.055 1.06-0.565 2.11-1.08 3.08-0.73 1.28-1.78 2.48-3.14 3.38-0.538 0.331-1.9 0.716-2.57 0.516-1.24-0.528-1.24-1.59 0-1.59 0.445-0.172 1.57 0.661 2.03 0.648 0.752-5e-3 1.29-0.559 1.49-1.09 0.206-0.697 0.0141-1.42-0.113-2.11-0.208-0.904-0.441-1.82-0.988-2.64-0.112-0.318-0.989-0.507-0.477-0.93 0.482-0.359 1.3-0.23 1.67 0.186 0.604 0.629 0.78 1.43 1 2.19 0.165 0.643 0.269 1.3 0.311 1.95 0.488-0.829 1.05-1.72 1.06-2.65 0.013-0.472-0.319-0.872-0.539-1.29-0.137-0.262 0.112-0.532 0.426-0.604zm-4.07 2.29c0.246 0.524 0.474 1.05 0.625 1.71 0.13 0.711 0.22 1.22 0.133 1.57-0.0794 0.176-0.255 0.378-0.479 0.41-0.0264-5e-3 -0.06-0.0098-0.111-0.0313-0.122-0.0508-0.3-0.138-0.492-0.228a1 1 0 0 0 0.324-0.736v-2.7zm-1.8 3.05c-0.0863 0-0.158 0.0594-0.242 0.0664-0.0503 0.014-0.0651-0.0209-0.119 0l0.361-0.0664z" opacity=".25"/>
 <path d="m5 1v11h1v-11h-1zm4.4746 0c-.3413 0-.6822.0219-1.0234.0645-.3413.0396-.6812.0983-1.0196.1777v1.1601c.2501-.1303.5213-.2277.8125-.2929.2913-.0652.6070-.0977.9454-.0977.4177 0 .7247.0566.9215.1699.197.1106.295.2865.295.5274v.1191h-.9314c-.8532 0-1.4788.1299-1.8789.3907-.3972.2607-.5957.6701-.5957 1.2285 0 .4592.1588.8339.4766 1.123.3206.2863.7361.4297 1.248.4297.3795 0 .7020-.0649.9668-.1953.2648-.1332.5026-.3437.7146-.6328v.7051h1.594v-2.7168c0-.7625-.199-1.3131-.596-1.6504-.394-.3402-1.038-.5098-1.9294-.5098zm.1113 2.7344h.8201v.1738c0 .3090-.101.5665-.304.7734-.2034.2041-.4533.3067-.7504.3067-.2383 0-.4252-.0544-.5606-.1621-.1324-.1106-.1972-.2624-.1972-.4551 0-.2098.0813-.3689.2460-.4766.1677-.1077.4166-.1601.7461-.1601zm1.4821 3.2832c-.314.0713-.562.3414-.425.6035.220.4169.552.8176.539 1.2891-.011.9326-.573 1.8218-1.061 2.6508-.042-.655-.1457-1.309-.3105-1.9516-.2221-.7534-.3981-1.5582-1.0019-2.1875-.3655-.4156-1.184-.5450-1.666-.1856-.5122.4224.3646.6122.4765.9297.5472.8176.7808 1.7388.9883 2.643.1274.695.3196 1.416.1133 2.113-.2030.527-.7381 1.081-1.4902 1.086-.4557.013-1.5825-.821-2.0274-.649-1.2381 0-1.2381 1.058 0 1.586.6714 0.2 2.0308-.184 2.5684-.515 1.367-.904 2.4125-2.096 3.1425-3.381.515-.973 1.025-2.0176 1.08-3.0822.015-.3579-.074-.8573-.601-.9453-.108-.0280-.220-.0277-.325-.0039z" fill="url(#gr0)"/>
 <path d="m9.23 2.02c-0.223 0.00675-0.447 0.0161-0.67 0.041-0.108 0.0148-0.216 0.0299-0.318 0.0527-0.291 0.0652-0.562 0.163-0.812 0.293v0.957c0.0528-0.0486 0.101-0.0995 0.164-0.141 0.4-0.261 1.03-0.391 1.88-0.391h0.932v-0.119c1e-4 -0.241-0.0979-0.417-0.295-0.527-0.189-0.109-0.486-0.162-0.879-0.166zm0.242 1.81c-0.184 0-0.353 0.00744-0.516 0.0195-0.038 0.0166-0.0871 0.0263-0.119 0.0469-0.165 0.108-0.246 0.267-0.246 0.477 0 0.193 0.0649 0.344 0.197 0.455 0.0273 0.0217 0.0662 0.0315 0.0976 0.0488 0.166-0.0913 0.394-0.141 0.697-0.141h0.437c0.0246-0.0208 0.0548-0.0293 0.0782-0.0527 0.203-0.207 0.305-0.464 0.305-0.773v-0.0801h-0.932zm-2.4 1.11c-0.046 0.156-0.0781 0.322-0.0781 0.512 0 0.459 0.159 0.834 0.477 1.12 0.321 0.286 0.736 0.43 1.25 0.43 0.38 0 0.702-0.0649 0.967-0.195 0.265-0.133 0.503-0.344 0.715-0.633v0.705h1.59v-1h-1.59v-0.705c-0.0182 0.0249-0.0399 0.0407-0.0585 0.0644-0.048 0.166-0.121 0.318-0.246 0.445-0.203 0.204-0.453 0.307-0.75 0.307-0.0782 0-0.142-0.0156-0.209-0.0273-0.132 0.0204-0.268 0.0391-0.418 0.0391-0.512 0-0.927-0.143-1.25-0.43-0.195-0.178-0.323-0.392-0.398-0.635zm0.451 3.13c-0.14 0.0331-0.273 0.0892-0.387 0.174-0.512 0.422 0.365 0.612 0.477 0.93 0.547 0.818 0.781 1.74 0.988 2.64 0.0532 0.29 0.11 0.587 0.152 0.883 0.111-0.625-0.0389-1.26-0.152-1.88-0.208-0.904-0.441-1.82-0.988-2.64-0.0131-0.0371-0.0593-0.0694-0.0898-0.104zm3.38 0.0195c-0.227 0.112-0.375 0.325-0.264 0.539 0.15 0.284 0.346 0.563 0.455 0.859 0.0436-0.188 0.0817-0.378 0.0839-0.57 0.0082-0.298-0.124-0.565-0.275-0.828zm1.01 0.387c-0.158 0.89-0.57 1.76-1 2.58-0.211 0.522-0.508 1.03-0.793 1.51-0.0064-0.0998-0.0239-0.199-0.0332-0.299-0.39 0.502-0.825 0.981-1.33 1.41-0.014 0.0822-0.0169 0.164-0.041 0.246-0.203 0.527-0.738 1.08-1.49 1.09-0.134 0.0038-0.33-0.071-0.545-0.166-0.537 0.139-1.11 0.214-1.48 0.104-0.286-0.122-0.499-0.273-0.652-0.432-0.513 0.31-0.3 1.03 0.652 1.43 0.671 0.2 2.03-0.185 2.57-0.516 1.37-0.904 2.41-2.1 3.14-3.38 0.515-0.973 1.02-2.02 1.08-3.08 0.0065-0.155-0.0162-0.335-0.0761-0.498zm-6.92 3.53v1h1v-1h-1z" opacity=".45"/>
 <path d="m5 1v1h1v-1h-1zm4.47 0c-0.341 0-0.682 0.0218-1.02 0.0644-0.341 0.0396-0.681 0.0983-1.02 0.178v1c0.338-0.0794 0.678-0.138 1.02-0.178 0.0371-0.00463 0.0742-0.00367 0.111-0.00781 0.2-0.0275 0.407-0.0449 0.627-0.0449 0.0166 0 0.0268 0.00373 0.043 0.0039 0.0807-0.00243 0.161-0.0156 0.242-0.0156 0.891 0 1.54 0.17 1.93 0.51 0.397 0.337 0.596 0.888 0.596 1.65v-1c0-0.762-0.199-1.31-0.596-1.65-0.394-0.34-1.04-0.51-1.93-0.51zm-0.285 2.01c-0.338 0-0.654 0.0325-0.945 0.0977-0.291 0.0652-0.562 0.163-0.812 0.293v-0.043c-0.282 0.259-0.432 0.618-0.432 1.09 0 0.177 0.031 0.337 0.0781 0.488 0.0892-0.301 0.256-0.545 0.518-0.717 0.314-0.205 0.771-0.327 1.36-0.371 0.161-0.0701 0.36-0.113 0.627-0.113h0.82v-0.0254c1e-4 -0.241-0.0979-0.417-0.295-0.527-0.197-0.113-0.504-0.17-0.922-0.17zm0.834 1.72c-0.189 0.16-0.409 0.254-0.672 0.254-0.19 0-0.338-0.0445-0.463-0.113-0.0142 0.00777-0.0357 0.0111-0.0488 0.0195-0.165 0.108-0.246 0.267-0.246 0.477 0 0.193 0.0649 0.344 0.197 0.455 0.0909 0.0723 0.214 0.111 0.352 0.135 0.202-0.0311 0.389-0.0775 0.549-0.156 0.242-0.122 0.458-0.317 0.656-0.568 0.03-0.104 0.0585-0.209 0.0585-0.328v-0.174h-0.383zm1.04 2.28c-0.314 0.0713-0.563 0.341-0.426 0.604 0.0811 0.154 0.175 0.307 0.264 0.461 0.0516-0.0255 0.104-0.0513 0.162-0.0644 0.105-0.0237 0.216-0.0241 0.324 0.0039 0.298 0.0498 0.447 0.234 0.525 0.447 0.0297-0.167 0.0674-0.333 0.0761-0.502 0.015-0.358-0.0745-0.857-0.602-0.945-0.108-0.028-0.219-0.0276-0.324-0.0039zm-3.05 0.0215c-0.311-0.0394-0.636 0.0176-0.877 0.197-0.452 0.373 0.156 0.568 0.387 0.826 0.456-0.107 1 0.0416 1.28 0.359 0.604 0.629 0.78 1.43 1 2.19 0.14 0.545 0.226 1.1 0.277 1.65 0.305-0.392 0.588-0.794 0.826-1.21 0.15-0.372 0.263-0.751 0.268-1.14 0.0042-0.15-0.0329-0.291-0.0839-0.43-0.168 0.726-0.589 1.42-0.977 2.08-0.042-0.655-0.146-1.31-0.311-1.95-0.222-0.753-0.398-1.56-1-2.19-0.183-0.208-0.478-0.343-0.789-0.383zm0.74 5.65c-0.0137 0.077-0.0164 0.154-0.0391 0.23-0.203 0.527-0.738 1.08-1.49 1.09-0.456 0.013-1.58-0.82-2.03-0.648-0.953 0-1.17 0.625-0.652 1.15 0.154-0.0932 0.367-0.154 0.652-0.154 0.315-0.122 0.964 0.253 1.48 0.482 0.434-0.112 0.846-0.264 1.09-0.412 0.352-0.233 0.681-0.486 0.99-0.754 0.0555-0.326 0.0449-0.655-0.00195-0.984z" fill="#fff" opacity=".6"/>
</svg>
