<?xml version="1.0" encoding="UTF-8"?>
<svg width="16" height="16" version="1.1" xmlns="http://www.w3.org/2000/svg">
 <defs>
  <linearGradient id="gr0" x1="8" x2="8" y1="1" y2="15" gradientUnits="userSpaceOnUse">
   <stop stop-color="#f3604d" offset="0"/>
   <stop stop-color="#c81700" offset="1"/>
  </linearGradient>
 </defs>
 <path d="m3 0c-1.64 0-3 1.36-3 3v10c0 1.64 1.36 3 3 3h10c1.64 0 3-1.36 3-3v-10c0-1.64-1.36-3-3-3h-10zm0 1h10c1.11 0 2 0.892 2 2v10c0 1.11-0.892 2-2 2h-10c-1.11 0-2-0.892-2-2v-10c0-1.11 0.892-2 2-2zm2.31 2-2.31 2.31 2.69 2.69-2.69 2.69 2.31 2.31 2.69-2.69 2.69 2.69 2.31-2.31-2.69-2.69 2.69-2.69-2.31-2.31-2.69 2.69-2.69-2.69zm0 1.41 1.98 1.98a1 1 0 0 0 1.41 0l1.98-1.98 0.898 0.898-1.98 1.98a1 1 0 0 0 0 1.41l1.98 1.98-0.898 0.898-1.98-1.98a1 1 0 0 0-1.41 0l-1.98 1.98-0.898-0.898 1.98-1.98a1 1 0 0 0 0-1.41l-1.98-1.98 0.898-0.898z" opacity=".25"/>
 <path class="error" d="m3 1c-1.11 0-2 0.892-2 2v10c0 1.11 0.892 2 2 2h10c1.11 0 2-0.892 2-2v-10c0-1.11-0.892-2-2-2h-10zm2.31 2 2.69 2.69 2.69-2.69 2.31 2.31-2.69 2.69 2.69 2.69-2.31 2.31-2.69-2.69-2.69 2.69-2.31-2.31 2.69-2.69-2.69-2.69 2.31-2.31z" fill="url(#gr0)"/>
 <path d="m5.31 3-2.31 2.31 0.5 0.5 1.81-1.81 2.69 2.69 2.69-2.69 1.81 1.81 0.5-0.5-2.31-2.31-2.69 2.69-2.69-2.69zm-0.125 5.5-2.19 2.19 0.5 0.5 2.19-2.19-0.5-0.5zm5.62 0-0.5 0.5 2.19 2.19 0.5-0.5-2.19-2.19zm-9.81 4.5v1c0 1.11 0.892 2 2 2h10c1.11 0 2-0.892 2-2v-1c0 1.11-0.892 2-2 2h-10c-1.11 0-2-0.892-2-2z" opacity=".55"/>
 <path d="m3 1c-1.11 0-2 0.892-2 2v1c0-1.11 0.892-2 2-2h10c1.11 0 2 0.892 2 2v-1c0-1.11-0.892-2-2-2h-10zm0.5 4.81-0.5 0.5 2.19 2.19 0.5-0.5-2.19-2.19zm9 0-2.19 2.19 0.5 0.5 2.19-2.19-0.5-0.5zm-4.5 4.5-2.69 2.69-1.81-1.81-0.5 0.5 2.31 2.31 2.69-2.69 2.69 2.69 2.31-2.31-0.5-0.5-1.81 1.81-2.69-2.69z" fill="#fff" opacity=".3"/>
</svg>
