<?xml version="1.0" encoding="UTF-8"?>
<svg width="16" height="16" version="1.1" xmlns="http://www.w3.org/2000/svg">
 <defs>
  <linearGradient id="gr0" x1="8" x2="8" y1="1" y2="15" gradientUnits="userSpaceOnUse">
   <stop stop-color="#ebebeb" offset="0"/>
   <stop stop-color="#aaa" offset="1"/>
  </linearGradient>
 </defs>
 <path d="m10 0a1 1 0 0 0-1 1v5.1l0.764-0.938c0.0961-0.0165 0.135-0.0208 0.236-0.0391v-4.12h2v4.13c0.103 0.019 0.142 0.0258 0.24 0.043l0.76 0.936v-5.11a1 1 0 0 0-1-1h-2zm0.992 6c-1.31 0.00213-2.6 0.541-3.53 1.46-0.692 0.692-1.17 1.59-1.36 2.55a5 5 0 0 0-0.0039 0.0312c-0.062 0.313-0.0977 0.632-0.0977 0.951a5 5 0 0 0 0 0.0078c0.00213 1.31 0.541 2.6 1.46 3.53 0.926 0.926 2.23 1.46 3.54 1.46s2.61-0.539 3.54-1.46 1.46-2.23 1.46-3.54-0.539-2.61-1.46-3.54c-0.692-0.692-1.59-1.17-2.55-1.36a5 5 0 0 0-0.0312-0.0039c-0.313-0.062-0.632-0.0977-0.951-0.0977a5 5 0 0 0-0.0078 0zm0.0078 1a4 4 0 0 1 4 4 4 4 0 0 1-4 4 4 4 0 0 1-4-4 4 4 0 0 1 4-4zm-10 2a1 1 0 0 0-1 1v2a1 1 0 0 0 1 1h5.1l-0.938-0.764c-0.0165-0.0961-0.0208-0.135-0.0391-0.236h-4.12v-2h4.13c0.019-0.103 0.0258-0.142 0.043-0.24l0.936-0.76h-5.11z" opacity=".25"/>
 <path d="m15 11a4 4 0 0 0-4-4 4 4 0 0 0-4 4 4 4 0 0 0 4 4 4 4 0 0 0 4-4zm-3-10h-2v5.1a5 5 0 0 1 1-0.102 5 5 0 0 1 1 0.105v-5.11zm-5.89 9h-5.11v2h5.1a5 5 0 0 1-0.102-1 5 5 0 0 1 0.105-1z" fill="url(#gr0)"/>
 <path d="m11 6a5 5 0 0 0-0.992 0.102v1a5 5 0 0 1 0.598-0.082 5 5 0 0 1 0.0039 0 4 4 0 0 1 0.195-0.00976 5 5 0 0 1 0.203-0.00977 4 4 0 0 1 0.367 0.0195 5 5 0 0 1 0.633 0.0859v-1a5 5 0 0 0-1-0.105 5 5 0 0 0-0.0078 0zm-4.99 5a5 5 0 0 0 0.0273 0.514 5 5 0 0 1 0.0781-0.514h-0.105zm8.96 0.494a4 4 0 0 1-3.96 3.51 4 4 0 0 1-3.96-3.49 4 4 0 0 0-0.0352 0.494 4 4 0 0 0 4 4 4 4 0 0 0 4-4 4 4 0 0 0-0.0352-0.506zm-14 0.506v1h5.1a5 5 0 0 1-0.102-1h-5z" opacity=".45"/>
 <path d="m10 1v1h2v-1h-2zm0.992 6a5 5 0 0 0-0.195 0.00977 4 4 0 0 0-0.195 0.00976 5 5 0 0 0-0.0039 0 4 4 0 0 0-3.6 3.98 4 4 0 0 0 0.0352 0.506 4 4 0 0 1 3.96-3.51 4 4 0 0 1 3.96 3.49 4 4 0 0 0 0.0352-0.494 4 4 0 0 0-3.63-3.98 5 5 0 0 0-0.367-0.0195 5 5 0 0 0-0.0078 0zm-9.99 3v1h5a5 5 0 0 1 0.105-1h-5.11zm5.03 1.51a5 5 0 0 0-0.0273 0.486h0.102a5 5 0 0 1-0.0742-0.486z" fill="#fff" opacity=".6"/>
</svg>
