<?xml version="1.0" encoding="UTF-8"?>
<svg width="16" height="16" version="1.1" xmlns="http://www.w3.org/2000/svg">
 <defs>
  <linearGradient id="gr0" x1="8" x2="8" y1="1" y2="15" gradientUnits="userSpaceOnUse">
   <stop stop-color="#ebebeb" offset="0"/>
   <stop stop-color="#aaa" offset="1"/>
  </linearGradient>
 </defs>
 <path d="m10 0c-0.703-9.4e-17 -1.22 0.439-1.58 1h-1.42a1 1 0 0 0-1 1v9.42c-0.309-0.197-0.613-0.42-1-0.42h-3c-1.09 0-2 0.909-2 2v1c-1.46e-16 1.09 0.909 2 2 2h3c0.703 0 1.22-0.439 1.58-1h1.42a1 1 0 0 0 1-1v-9.42c0.309 0.197 0.613 0.42 1 0.42h3c1.09 0 2-0.909 2-2v-1c0-1.09-0.909-2-2-2h-3zm0 1h3c0.554 0 1 0.446 1 1v1c0 0.554-0.446 1-1 1h-3c-0.554 0-1-0.446-1-1h-1v11h-2c0 0.554-0.446 1-1 1h-3c-0.554 0-1-0.446-1-1v-1c0-0.554 0.446-1 1-1h3c0.554 0 1 0.446 1 1h1v-11h2c0-0.554 0.446-1 1-1z" opacity=".25"/>
 <path d="m10 1c-0.554 0-1 0.446-1 1h-2v11h-1c0-0.554-0.446-1-1-1h-3c-0.554 0-1 0.446-1 1v1c0 0.554 0.446 1 1 1h3c0.554 0 1-0.446 1-1h2v-11h1c0 0.554 0.446 1 1 1h3c0.554 0 1-0.446 1-1v-1c0-0.554-0.446-1-1-1h-3z" fill="url(#gr0)"/>
 <path d="m8 3v1h1c0 0.554 0.446 1 1 1h3c0.554 0 1-0.446 1-1v-1c0 0.554-0.446 1-1 1h-3c-0.554 0-1-0.446-1-1h-1zm-7 11v1c0 0.554 0.446 1 1 1h3c0.554 0 1-0.446 1-1h2v-1h-2c0 0.554-0.446 1-1 1h-3c-0.554 0-1-0.446-1-1z" opacity=".45"/>
 <path d="m10 1c-0.554 0-1 0.446-1 1h-2v1h2c0-0.554 0.446-1 1-1h3c0.554 0 1 0.446 1 1v-1c0-0.554-0.446-1-1-1h-3zm-8 11c-0.554 0-1 0.446-1 1v1c0-0.554 0.446-1 1-1h3c0.554 0 1 0.446 1 1h1v-1h-1c0-0.554-0.446-1-1-1h-3z" fill="#fff" opacity=".6"/>
</svg>
