<?xml version="1.0" encoding="UTF-8"?>
<svg width="16" height="16" version="1.1" xmlns="http://www.w3.org/2000/svg">
 <defs>
  <linearGradient id="gr0" x1="8" x2="8" y1="1" y2="15" gradientUnits="userSpaceOnUse">
   <stop stop-color="#ebebeb" offset="0"/>
   <stop stop-color="#aaa" offset="1"/>
  </linearGradient>
 </defs>
 <path d="m2 0a1 1 0 0 0-0.715 0.301c-0.71 0.309-1.29 0.885-1.29 1.7v1c-1.46e-16 1.09 0.909 2 2 2h2a1 1 0 0 0-1 1v4a1 1 0 0 0 1 1h4.28l0.277 0.69c-0.33 0.352-0.561 0.792-0.561 1.31v1c0 1.09 0.909 2 2 2h4c1.09 0 2-0.909 2-2v-1c0-1.09-0.909-2-2-2h-1a1 1 0 0 0 1-1v-4a1 1 0 0 0-1-1h-3.88l-1.12-2.79v-0.209c0-1.09-0.909-2-2-2h-4zm0 1h4c0.554 0 1 0.446 1 1v0.402l1.44 3.6h4.56v4h-2.96l0.801 2h3.16c0.554 0 1 0.446 1 1v1c0 0.554-0.446 1-1 1h-4c-0.554 0-1-0.446-1-1v-1c0-0.476 0.336-0.853 0.779-0.955l-0.818-2.04h-4.96v-4h3.36l-0.861-2.15c-0.149 0.088-0.314 0.152-0.5 0.152h-4c-0.554 0-1-0.446-1-1v-1c0-0.554 0.446-1 1-1zm3 6v2h3.56l-0.799-2h-2.76zm3.84 0 0.799 2h2.36v-2h-3.16z" opacity=".25"/>
 <path d="m2 1c-0.554 0-1 0.446-1 1v1c0 0.554 0.446 1 1 1h4c0.186 0 0.351-0.0643 0.5-0.152l0.861 2.15h-3.36v4h4.96l0.818 2.04c-0.444 0.102-0.779 0.479-0.779 0.955v1c0 0.554 0.446 1 1 1h4c0.554 0 1-0.446 1-1v-1c0-0.554-0.446-1-1-1h-3.16l-0.801-2h2.96v-4h-4.56l-1.44-3.6v-0.402c0-0.554-0.446-1-1-1h-4zm3 6h2.76l0.799 2h-3.56v-2zm3.84 0h3.16v2h-2.36l-0.799-2z" fill="url(#gr0)"/>
 <path d="m1 3v1c0 0.554 0.446 1 1 1h4c0.186 0 0.351-0.0643 0.5-0.152l0.461 1.15h0.4l-0.861-2.15c-0.149 0.088-0.314 0.152-0.5 0.152h-4c-0.554 0-1-0.446-1-1zm4 4v1h2.76l0.398 1h0.4l-0.799-2h-2.76zm3.84 0 0.398 1h2.76v-1h-3.16zm-4.84 3v1h4.96l0.479 1.2c0.103-0.0685 0.215-0.124 0.34-0.152l-0.818-2.04h-4.96zm6.04 0 0.4 1h2.56v-1h-2.96zm-1.04 4v1c0 0.554 0.446 1 1 1h4c0.554 0 1-0.446 1-1v-1c0 0.554-0.446 1-1 1h-4c-0.554 0-1-0.446-1-1z" opacity=".45"/>
 <path d="m2 1c-0.554 0-1 0.446-1 1v1c0-0.554 0.446-1 1-1h4c0.554 0 1 0.446 1 1v0.402l1.44 3.6h4.56v-1h-4.56l-1.44-3.6v-0.402c0-0.554-0.446-1-1-1h-4zm2 5v1h3.36l-0.4-1h-2.96zm4.84 2 0.799 2h2.36v-1h-2.36l-0.4-1h-0.398zm-3.84 1v1h3.56l-0.4-1h-3.16zm5.04 2 0.801 2h3.16c0.554 0 1 0.446 1 1v-1c0-0.554-0.446-1-1-1h-3.16l-0.4-1h-0.4zm-0.6 1.2c-0.262 0.175-0.439 0.461-0.439 0.803v1c0-0.476 0.336-0.853 0.779-0.955l-0.34-0.848z" fill="#fff" opacity=".6"/>
</svg>
