<?xml version="1.0" encoding="UTF-8"?>
<svg width="16" height="16" version="1.1" xmlns="http://www.w3.org/2000/svg">
 <defs>
  <linearGradient id="gr0" x1="8" x2="8" y1="1" y2="15" gradientUnits="userSpaceOnUse">
   <stop stop-color="#ebebeb" offset="0"/>
   <stop stop-color="#aaa" offset="1"/>
  </linearGradient>
 </defs>
 <path d="m8.5 0.00195a1 1 0 0 0-0.338 0.0645c-2.12 0.172-3.85 1.83-3.85 3.94a1 1 0 0 0 0 0.0215c0.00183 0.0808 0.0115 0.196 0.0156 0.297-0.145 0.259-0.215 0.54-0.225 0.771-0.0185 0.441 0.0814 0.854 0.258 1.27 0.0852 0.201 0.216 0.352 0.332 0.521 0.00531 0.0685 0.00214 0.118 0.0488 0.332a1 1 0 0 0 0.0274 0.102c0.0865 0.26 0.289 0.47 0.424 0.705a1 1 0 0 0-0.193-0.0195h-2a1 1 0 0 0-1 1v1h-1a1 1 0 0 0-1 1v2a1 1 0 0 0 1 1h1v1a1 1 0 0 0 1 1h2a1 1 0 0 0 1-1v-1h1a1 1 0 0 0 0.502-0.137 1 1 0 0 0 0.498 0.137h6.81a1 1 0 0 0 0.988-1.15l-0.0625-0.406 0.0117 0.146c-0.0022-0.407-0.191-0.754-0.385-0.978-0.194-0.224-0.401-0.372-0.615-0.504-0.428-0.264-0.903-0.462-1.4-0.662-0.854-0.347-1.63-0.712-2.09-1.01-0.0034-0.11-0.0109-0.221-0.0078-0.332 0.158-0.243 0.322-0.492 0.48-0.752 0.212-0.348 0.398-0.644 0.527-1.03a1 1 0 0 0 0.0234-0.0859c0.0488-0.206 0.0614-0.303 0.0781-0.404 0.0959-0.153 0.204-0.297 0.275-0.465 0.169-0.397 0.266-0.794 0.256-1.21-0.0032-0.129-0.175-0.26-0.209-0.404 0.0166-0.252 0.0265-0.511 0.0332-0.711a1 1 0 0 0 0-0.0332c0-2.24-1.94-4-4.22-4zm0 1h0.00195c1.78 0 3.22 1.34 3.22 3-0.0071 0.201-0.0163 0.455-0.0313 0.688 0.263 0.166 0.277 0.701 0.0313 1.28-0.0873 0.206-0.194 0.388-0.313 0.531-0.038 0.174-0.0457 0.298-0.0937 0.5-0.133 0.398-0.667 1.2-1.06 1.81-0.026 0.405-0.0207 0.808 0.0293 1.22 1.23 1.07 4.46 1.64 4.47 2.56l0.0625 0.408h-6.81v-2a1 1 0 0 0-0.93-0.998 1 1 0 0 0-0.0703-0.0019h-0.281c0.0793-0.492 0.0416-0.94 0-1.38-0.434-0.578-0.881-1.27-1-1.62-0.0427-0.195-0.028-0.267-0.0625-0.438-0.142-0.153-0.273-0.352-0.375-0.594-0.258-0.608-0.242-1.18 0.0625-1.31-0.0168-0.215-0.0272-0.479-0.0312-0.656 0-1.66 1.41-3 3.19-3zm-5.5 8h2v2h2v2h-2v2h-2v-2h-2v-2h2v-2z" opacity=".25"/>
 <path d="m8.5 1c-1.78 0-3.19 1.34-3.19 3 4e-3 0.177 0.0144 0.441 0.0312 0.656-0.304 0.129-0.321 0.704-0.0625 1.31 0.102 0.241 0.233 0.441 0.375 0.594 0.0345 0.171 0.0198 0.242 0.0625 0.438 0.119 0.357 0.566 1.05 1 1.62 0.0416 0.435 0.0793 0.883 0 1.38h0.281a0.986 0.986 0 0 1 1 1v2h6.81l-0.0625-0.406c-5e-3 -0.919-3.23-1.49-4.47-2.56-0.05-0.411-0.0566-0.814-0.0312-1.22 0.395-0.61 0.93-1.41 1.06-1.81 0.0477-0.202 0.0565-0.326 0.0937-0.5 0.118-0.143 0.225-0.326 0.312-0.531 0.245-0.578 0.232-1.12-0.0312-1.28 0.0155-0.233 0.0244-0.486 0.0312-0.688 0-1.66-1.44-3-3.22-3zm-5.5 8v2h-2v2h2v2h2v-2h2v-2h-2v-2h-2z" fill="url(#gr0)"/>
 <path d="m5.22 5.78c-0.167 0.226-0.152 0.689 0.0606 1.19 0.102 0.241 0.233 0.441 0.375 0.594 0.0345 0.171 0.0198 0.242 0.0625 0.438 0.119 0.357 0.566 1.05 1 1.62 0.00569 0.0594 0.00646 0.122 0.0117 0.182 0.0428-0.415 0.0242-0.806-0.0117-1.18-0.434-0.578-0.881-1.27-1-1.62-0.0427-0.195-0.028-0.267-0.0625-0.438-0.142-0.153-0.273-0.352-0.375-0.594-0.0275-0.0648-0.0393-0.126-0.0606-0.189zm6.55 0.0156c-0.0196 0.0579-0.0296 0.113-0.0546 0.172-0.0873 0.206-0.194 0.388-0.313 0.531-0.038 0.174-0.0457 0.298-0.0937 0.5-0.133 0.398-0.667 1.2-1.06 1.81-0.0209 0.326-0.0153 0.652 0.0117 0.98 0.394-0.608 0.919-1.4 1.05-1.79 0.048-0.202 0.0557-0.326 0.0937-0.5 0.118-0.143 0.225-0.326 0.313-0.531 0.21-0.495 0.219-0.945 0.0546-1.17zm-5.03 4.21c0.0218 0.319 0.0315 0.647-0.0254 1h0.281a0.986 0.986 0 0 1 1 1v-1a0.986 0.986 0 0 0-1-1h-0.256zm-5.74 3v1h2v-1h-2zm4 0v1h2v-1h-2zm3 0v1h6.81l-0.0625-0.408c-0.0023-0.213-0.188-0.406-0.471-0.592h-6.28zm-5 2v1h2v-1h-2z" opacity=".45"/>
 <path d="m8.5 1c-1.78 0-3.19 1.34-3.19 3 4e-3 0.177 0.0144 0.441 0.0312 0.656-0.272 0.115-0.301 0.59-0.123 1.12 0.0359-0.0485 0.0692-0.1 0.123-0.123-0.0168-0.215-0.0272-0.479-0.0312-0.656 0-1.66 1.41-3 3.19-3h0.00195c1.78 0 3.22 1.34 3.22 3-0.0071 0.201-0.0163 0.455-0.0313 0.688 0.0377 0.0237 0.0585 0.0695 0.0859 0.107 0.173-0.508 0.15-0.959-0.0859-1.11 0.015-0.233 0.0242-0.486 0.0313-0.688 0-1.66-1.44-3-3.22-3h-0.00195zm-5.5 8v1h2v-1h-2zm7.26 0.791c-0.0039 0.00598-0.0078 0.0136-0.0117 0.0195-0.026 0.405-0.0207 0.808 0.0293 1.22 0.949 0.825 3.06 1.35 4 1.97h0.533l-0.0625-0.408c-0.01-0.919-3.23-1.49-4.47-2.56-0.0097-0.0801-0.011-0.159-0.0176-0.238zm-3.53 0.0156c-0.00674 0.0654-9.4e-4 0.126-0.0117 0.193h0.0254c-0.00443-0.0648-0.00808-0.129-0.0137-0.193zm-5.73 1.19v1h2v-1h-2zm4 0v1h2v-1h-2z" fill="#fff" opacity=".6"/>
</svg>
