<?xml version="1.0" encoding="UTF-8"?>
<svg width="16" height="16" version="1.1" xmlns="http://www.w3.org/2000/svg">
 <defs>
  <linearGradient id="gr0" x1="8" x2="8" y1="1" y2="15" gradientUnits="userSpaceOnUse">
   <stop stop-color="#ebebeb" offset="0"/>
   <stop stop-color="#aaa" offset="1"/>
  </linearGradient>
 </defs>
 <path d="m2 0c-1.09-1.46e-16 -2 0.909-2 2v13a1 1 0 0 0 1 1h14a1 1 0 0 0 1-1v-13c0-1.09-0.909-2-2-2h-12zm0 1h12c0.554 0 1 0.446 1 1v13h-14v-13c0-0.554 0.446-1 1-1zm6 1v1h1v-1h-1zm2 0v1h1v-1h-1zm2 0v1h1v-1h-1zm-9 2v4.49c0.69-2.08 2.71-3.49 5-3.49 2.29 2e-3 4.32 1.42 5 3.51v-4.51h-10zm10 4.51c-0.69 2.08-2.71 3.49-5 3.49-2.29-2e-3 -4.32-1.42-5-3.51v4.51h10v-4.49zm-9-3.51h0.627c-0.223 0.139-0.424 0.294-0.627 0.459v-0.459zm7.36 0h0.637v0.465c-0.206-0.168-0.41-0.324-0.637-0.465zm-3.36 1c-1.83-1e-4 -3.45 1.01-4 2.49 0.547 1.49 2.17 2.5 4 2.51 1.83 0 3.45-1.01 4-2.49-0.533-1.45-2.08-2.45-3.86-2.5 1.05 0.0738 1.86 0.945 1.86 1.99 0 1.1-0.895 2-2 2s-2-0.895-2-2 0.895-2 2-2zm-4 5.54c0.206 0.168 0.41 0.324 0.637 0.465h-0.637v-0.465zm8 0.0058v0.459h-0.627c0.223-0.139 0.424-0.294 0.627-0.459z" opacity=".25"/>
 <path d="m2 1c-0.554 0-1 0.446-1 1v13h14v-13c0-0.554-0.446-1-1-1zm6 1h1v1h-1zm2 0h1v1h-1zm2 0h1v1h-1zm-9 2h10v9h-10v-4.51zm0 4.49c0.684 2.09 2.71 3.51 5 3.51 2.29 0 4.31-1.41 5-3.49-0.684-2.09-2.71-3.51-5-3.51-2.29-1e-4 -4.31 1.41-5 3.49zm5-2.49c-1.1 0-2 0.895-2 2s0.895 2 2 2 2-0.895 2-2c-5e-4 -1.05-0.812-1.92-1.86-1.99 1.78 0.0517 3.33 1.05 3.86 2.5-0.552 1.48-2.17 2.49-4 2.49-1.83-1e-3 -3.45-1.02-4-2.51 0.552-1.48 2.17-2.49 4-2.49z" fill="url(#gr0)"/>
 <path d="m8 2v1h1v-1h-1zm2 0v1h1v-1h-1zm2 0v1h1v-1h-1zm-9 2v1h10v-1h-10zm5 2c-0.24-1e-5 -0.476 0.0244-0.709 0.0547-1.53 0.223-2.81 1.15-3.29 2.44 0.0641 0.175 0.146 0.341 0.238 0.502 0.406-0.703 1.07-1.26 1.87-1.61 0.26-0.804 1-1.39 1.89-1.39zm0.197 0.0156c0.811 0.0806 1.46 0.639 1.7 1.38 0.799 0.347 1.46 0.903 1.86 1.6 0.0917-0.159 0.174-0.323 0.238-0.496-0.501-1.36-1.9-2.32-3.55-2.47-0.0846-0.00708-0.168-0.0164-0.254-0.0195zm-2.13 2.48c-0.0416 0.161-0.0703 0.326-0.0703 0.5 0 1.1 0.895 2 2 2s2-0.895 2-2c-8e-5 -0.173-0.0286-0.339-0.0703-0.5-0.223 0.861-0.999 1.5-1.93 1.5s-1.71-0.639-1.93-1.5zm-2.86 0.494c-0.0755 0.164-0.155 0.325-0.213 0.498 0.684 2.09 2.71 3.51 5 3.51 2.29 0 4.31-1.41 5-3.49-0.0573-0.175-0.138-0.337-0.213-0.502-0.734 1.59-2.28 2.71-4.08 2.94-0.232 0.0339-0.468 0.0547-0.709 0.0547-0.246-1e-4 -0.488-0.0212-0.725-0.0566-1.8-0.241-3.33-1.36-4.06-2.95zm-2.21 6.01v1h14v-1h-14z" opacity=".45"/>
 <path d="m2 1c-0.554 0-1 0.446-1 1v1c0-0.554 0.446-1 1-1h12c0.554 0 1 0.446 1 1v-1c0-0.554-0.446-1-1-1h-12zm6 2v1h1v-1h-1zm2 0v1h1v-1h-1zm2 0v1h1v-1h-1zm-4 2c-2.29-1e-4 -4.31 1.41-5 3.49 0.0573 0.175 0.137 0.337 0.213 0.502 0.734-1.59 2.28-2.71 4.08-2.94 0.232-0.0338 0.468-0.0547 0.709-0.0547 0.067 6e-5 0.131 0.0132 0.197 0.0156-0.0193-0.00192-0.0372-0.00839-0.0566-0.00976 0.106 0.00307 0.207 0.0196 0.311 0.0293 1.91 0.16 3.57 1.3 4.34 2.97 0.0756-0.164 0.155-0.325 0.213-0.498-0.684-2.09-2.71-3.51-5-3.51zm0 2c-0.675-4e-5 -1.32 0.141-1.89 0.389-0.0626 0.194-0.105 0.397-0.105 0.611 0 0.174 0.0287 0.339 0.0703 0.5 0.223-0.861 0.999-1.5 1.93-1.5zm0.141 0.00586c0.874 0.0616 1.58 0.681 1.79 1.49 0.0416-0.161 0.0703-0.326 0.0703-0.5-1e-4 -0.21-0.0409-0.41-0.102-0.602-0.535-0.232-1.13-0.374-1.76-0.393zm-3.9 1.99c-0.0921 0.159-0.174 0.325-0.238 0.498 0.473 1.29 1.75 2.22 3.28 2.45 0.238 0.0319 0.479 0.0564 0.725 0.0566 0.24 0 0.476-0.0244 0.709-0.0547 1.53-0.223 2.81-1.15 3.29-2.44-0.0646-0.175-0.145-0.343-0.238-0.504-0.697 1.21-2.14 2-3.76 2-1.62-9e-4 -3.07-0.794-3.76-2zm-1.24 4v1h10v-1h-10z" fill="#fff" opacity=".6"/>
</svg>
