<?xml version="1.0" encoding="UTF-8"?>
<svg width="16" height="16" version="1.1" xmlns="http://www.w3.org/2000/svg">
 <defs>
  <linearGradient id="gr0" x1="8" x2="8" y1="1" y2="15" gradientUnits="userSpaceOnUse">
   <stop stop-color="#ebebeb" offset="0"/>
   <stop stop-color="#aaa" offset="1"/>
  </linearGradient>
 </defs>
 <path d="m2 0c-1.09-1.46e-16 -2 0.909-2 2v13a1 1 0 0 0 1 1h14a1 1 0 0 0 1-1v-13c0-1.09-0.909-2-2-2h-12zm0 1h12c0.554 0 1 0.446 1 1v13h-14v-13c0-0.554 0.446-1 1-1zm6 1v1h1v-1h-1zm2 0v1h1v-1h-1zm2 0v1h1v-1h-1zm-9 2v4.49l3.32-2.99 0.68 0.752-2.49 2.25 2.46 2.25-0.684 0.746-3.29-3.01v4.51h10v-4.51l-3.29 3.01-0.684-0.746 2.46-2.25-2.49-2.25 0.678-0.752 3.32 2.99v-4.49h-10zm1 1h1.38l-1.38 1.25v-1.25zm3.22 0h1.57l-0.525 0.582a1 1 0 0 0 0.0723 1.41l1.68 1.51-1.65 1.51a1 1 0 0 0-0.0625 1.41l0.523 0.57h-1.63l0.523-0.57a1 1 0 0 0-0.0625-1.41l-1.65-1.51 1.68-1.51a1 1 0 0 0 0.0723-1.41l-0.525-0.582zm3.4 0h1.38v1.25l-1.38-1.25zm-6.62 5.77 1.35 1.23h-1.35v-1.23zm8 0v1.23h-1.35l1.35-1.23z" opacity=".25"/>
 <path d="m2 1c-0.554 0-1 0.446-1 1v13h14v-13c0-0.554-0.446-1-1-1h-12zm6 1h1v1h-1v-1zm2 0h1v1h-1v-1zm2 0h1v1h-1v-1zm-9 2h10v9h-10v-9zm0 4.49 3.29 3.01 0.684-0.746-2.46-2.25 2.49-2.25-0.68-0.752-3.32 2.99zm10 0-3.32-2.99-0.678 0.752 2.49 2.25-2.46 2.25 0.684 0.746 3.29-3.01z" fill="url(#gr0)"/>
 <path d="m8 2v1h1v-1h-1zm2 0v1h1v-1h-1zm2 0v1h1v-1h-1zm-9 2v1h10v-1h-10zm6.5 2.7-0.498 0.553 1.94 1.75 0.551-0.504-2-1.8zm-3 0.00195-2 1.8 0.551 0.504 1.94-1.75-0.498-0.551zm-2.95 2.3-0.551 0.496 3.29 3.01 0.684-0.746-0.498-0.457-0.186 0.203-2.73-2.5zm8.9 0-2.73 2.5-0.186-0.203-0.498 0.457 0.684 0.746 3.29-3.01-0.551-0.496zm-11.4 6v1h14v-1h-14z" opacity=".45"/>
 <path d="m2 1c-0.554 0-1 0.446-1 1v1c0-0.554 0.446-1 1-1h12c0.554 0 1 0.446 1 1v-1c0-0.554-0.446-1-1-1h-12zm6 2v1h1v-1h-1zm2 0v1h1v-1h-1zm2 0v1h1v-1h-1zm-5.68 2.5-3.32 2.99 0.551 0.504 2.77-2.5 0.182 0.201 0.498-0.449-0.68-0.752zm3.36 0-0.678 0.752 0.498 0.447 0.18-0.199 2.77 2.5 0.551-0.504-3.32-2.99zm-4.62 3.5-0.551 0.496 1.96 1.8 0.498-0.543-1.91-1.75zm5.89 0-1.91 1.75 0.498 0.543 1.96-1.8-0.551-0.496zm-7.94 4v1h10v-1h-10z" fill="#fff" opacity=".6"/>
</svg>
