<?xml version="1.0" encoding="UTF-8"?>
<svg width="16" height="16" version="1.1" xmlns="http://www.w3.org/2000/svg">
 <defs>
  <linearGradient id="gr0" x1="8" x2="8" y1="1" y2="15" gradientUnits="userSpaceOnUse">
   <stop stop-color="#ebebeb" offset="0"/>
   <stop stop-color="#aaa" offset="1"/>
  </linearGradient>
 </defs>
 <path d="m2 0c-1.09-1.46e-16 -2 0.909-2 2v13a1 1 0 0 0 1 1h14a1 1 0 0 0 1-1v-13c0-1.09-0.909-2-2-2h-12zm0 1h12c0.554 0 1 0.446 1 1v13h-14v-13c0-0.554 0.446-1 1-1zm6 1v1h1v-1h-1zm2 0v1h1v-1h-1zm2 0v1h1v-1h-1zm-9 2v9h10v-9h-10zm1.5 1h4c0.277 0 0.5 0.223 0.5 0.5v0.5h-1.5c-0.814 0-1.5 0.686-1.5 1.5v2.5h-1.5c-0.277 0-0.5-0.223-0.5-0.5v-4c0-0.277 0.223-0.5 0.5-0.5zm5.29 0h2.21v1.21c-0.171-0.0697-0.307-0.211-0.5-0.211h-1.5v-0.5c0-0.193-0.141-0.329-0.211-0.5zm-2.29 2h4c0.277 0 0.5 0.223 0.5 0.5v4c0 0.277-0.223 0.5-0.5 0.5h-4c-0.277 0-0.5-0.223-0.5-0.5v-4c0-0.277 0.223-0.5 0.5-0.5zm-3.5 3.79c0.171 0.0696 0.307 0.211 0.5 0.211h1.5v0.5c0 0.193 0.141 0.329 0.211 0.5h-2.21v-1.21z" opacity=".25"/>
 <path d="m2 1c-0.554 0-1 0.446-1 1v13h14v-13c0-0.554-0.446-1-1-1h-12zm6 1h1v1h-1v-1zm2 0h1v1h-1v-1zm2 0h1v1h-1v-1zm-9 2h10v9h-10v-9zm1.5 1c-0.277 0-0.5 0.223-0.5 0.5v4c0 0.277 0.223 0.5 0.5 0.5h1.5v-2.5c0-0.814 0.686-1.5 1.5-1.5h1.5v-0.5c0-0.277-0.223-0.5-0.5-0.5h-4zm3 2c-0.277 0-0.5 0.223-0.5 0.5v4c0 0.277 0.223 0.5 0.5 0.5h4c0.277 0 0.5-0.223 0.5-0.5v-4c0-0.277-0.223-0.5-0.5-0.5h-4z" fill="url(#gr0)"/>
 <path d="m8 2v1h1v-1h-1zm2 0v1h1v-1h-1zm2 0v1h1v-1h-1zm-9 2v1h10v-1h-10zm4.5 2c-0.814 0-1.5 0.686-1.5 1.5v1c0-0.814 0.686-1.5 1.5-1.5h1.5v-0.5c0-0.277-0.223-0.5-0.5-0.5h-1zm-3.5 3.5v1c0 0.277 0.223 0.5 0.5 0.5h1.5v-1h-1.5c-0.277 0-0.5-0.223-0.5-0.5zm3 2v1c0 0.277 0.223 0.5 0.5 0.5h4c0.277 0 0.5-0.223 0.5-0.5v-1c0 0.277-0.223 0.5-0.5 0.5h-4c-0.277 0-0.5-0.223-0.5-0.5zm-6 3.5v1h14v-1h-14z" opacity=".45"/>
 <path d="m2 1c-0.554 0-1 0.446-1 1v1c0-0.554 0.446-1 1-1h12c0.554 0 1 0.446 1 1v-1c0-0.554-0.446-1-1-1h-12zm6 2v1h1v-1h-1zm2 0v1h1v-1h-1zm2 0v1h1v-1h-1zm-7.5 2c-0.277 0-0.5 0.223-0.5 0.5v1c0-0.277 0.223-0.5 0.5-0.5h4.5v-0.5c0-0.277-0.223-0.5-0.5-0.5h-4zm3 2c-0.277 0-0.5 0.223-0.5 0.5v1c0-0.277 0.223-0.5 0.5-0.5h4c0.277 0 0.5 0.223 0.5 0.5v-1c0-0.277-0.223-0.5-0.5-0.5h-4zm-4.5 6v1h10v-1h-10z" fill="#fff" opacity=".6"/>
</svg>
