<?xml version="1.0" encoding="UTF-8"?>
<svg width="16" height="16" version="1.1" xmlns="http://www.w3.org/2000/svg">
 <defs>
  <linearGradient id="gr0" x1="8" x2="8" y1="2.74" y2="12" gradientUnits="userSpaceOnUse">
   <stop stop-color="#ebebeb" offset="0"/>
   <stop stop-color="#aaa" offset="1"/>
  </linearGradient>
 </defs>
 <path d="m12 1.74a1 1 0 0 0-0.688 0.291l-4.71 4.69-2.01-1.99a1 1 0 0 0-1.41 0l-1.94 1.94a1 1 0 0 0 0 1.42l4.65 4.63a1 1 0 0 0 0.301 0.203 1 1 0 0 0 0.189 0.0625 1 1 0 0 0 0.084 0.0137 1 1 0 0 0 0.0273 0.0039 1 1 0 0 0 0.0547 0.0058 1 1 0 0 0 0.0547 2e-3 1 1 0 0 0 0.0117 0 1 1 0 0 0 0.0156 0 1 1 0 0 0 0.0762-0.0059 1 1 0 0 0 0.00782 0 1 1 0 0 0 0.0156-0.0019 1 1 0 0 0 0.082-0.0156 1 1 0 0 0 0.0977-0.0254 1 1 0 0 0 0.4-0.242l7.36-7.33a1 1 0 0 0 0-1.42l-1.94-1.94a1 1 0 0 0-0.723-0.291zm0.0176 1 1.94 1.93-7.36 7.33h-0.00781l-4.65-4.63 1.94-1.94 2.71 2.7 5.42-5.39z" opacity=".25"/>
 <path d="m12.1 2.74-5.42 5.39-2.71-2.69-1.94 1.94 4.65 4.63 0.0038-4e-3 0.0037 4e-3 7.36-7.33-1.94-1.94z" fill="url(#gr0)"/>
 <path d="m13.5 5.17-6.86 6.83h-0.00781l-4.15-4.13-0.502 0.5 4.65 4.63h0.00781l7.36-7.33-0.502-0.5z" opacity=".45"/>
 <path d="m12.1 2.74-5.42 5.39-2.71-2.7-1.94 1.94 0.502 0.5 1.44-1.44 2.71 2.7 5.42-5.39 1.44 1.43 0.502-0.5-1.94-1.93z" fill="#fff" opacity=".6"/>
</svg>
