<?xml version="1.0" encoding="UTF-8"?>
<svg width="16" height="16" version="1.1" xmlns="http://www.w3.org/2000/svg">
 <defs>
  <linearGradient id="gr0" x1="8" x2="8" y1="1" y2="15" gradientUnits="userSpaceOnUse">
   <stop stop-color="#ebebeb" offset="0"/>
   <stop stop-color="#aaa" offset="1"/>
  </linearGradient>
 </defs>
 <path d="m4.5 0c-1.37 0-2.5 1.13-2.5 2.5v9c0 0.201 0.0927 0.372 0.139 0.56-0.0516-0.0046-0.0865-0.0605-0.139-0.0605-1.05 0-2 0.953-2 2 1.28e-16 1.05 0.953 2 2 2 0.616 0 1.12-0.369 1.5-0.854 0.376 0.485 0.884 0.854 1.5 0.854 1.05 0 2-0.953 2-2h0.629a1 1 0 0 0 0.758-0.352l2.46 2.11a1 1 0 0 0 1.3 0l3.5-3a1 1 0 0 0-0.65-1.76h-1v-2a1 1 0 0 0-0.135-0.5 1 1 0 0 0 0.135-0.5v-2a1 1 0 0 0-0.135-0.5 1 1 0 0 0 0.135-0.5v-1a1 1 0 0 0-0.135-0.5 1 1 0 0 0 0.135-0.5v-0.5c0-1.37-1.13-2.5-2.5-2.5h-7zm0 1h7c0.831 0 1.5 0.669 1.5 1.5v0.5h-7.5c-0.277 0-0.5 0.223-0.5 0.5v7c0 0.277 0.223 0.5 0.5 0.5h0.791c0.0459-0.087 0.0996-0.19 0.0996-0.19 0 1e-4 0.424-0.422 0.424-0.422-1e-5 0 0.527-0.279 0.527-0.279-2e-5 0 0.588-0.109 0.588-0.109h-1.93v-6h3v1a1 1 0 0 0 0.135 0.5 1 1 0 0 0-0.135 0.5v2a1 1 0 0 0 0.135 0.5 1 1 0 0 0-0.135 0.5v2h-1a1 1 0 0 0-0.0996 0.0059 1 1 0 0 0-0.084 0.0117 1 1 0 0 0-0.0293 0.0058 1 1 0 0 0-0.082 0.0215 1 1 0 0 0-0.0879 0.0313 1 1 0 0 0-0.00781 0.0039 1 1 0 0 0-0.0879 0.0429 1 1 0 0 0-0.0781 0.0469 1 1 0 0 0-0.0117 0.0078 1 1 0 0 0-0.0625 0.0469 1 1 0 0 0-0.0215 0.0176 1 1 0 0 0-0.0645 0.0605 1 1 0 0 0-0.0625 0.0703 1 1 0 0 0-0.00781 0.0118 1 1 0 0 0-0.043 0.0566 1 1 0 0 0-0.0137 0.0234 1 1 0 0 0-0.0879 0.174 1 1 0 0 0-0.0312 0.0937 1 1 0 0 0-0.0195 0.0781 1 1 0 0 0-0.00586 0.0293 1 1 0 0 0-0.00781 0.0743 1 1 0 0 0-0.00196 0.0273 1 1 0 0 0-0.00195 0.0547 1 1 0 0 0 0.00195 0.0547 1 1 0 0 0 0.00391 0.0449 1 1 0 0 0 0.00391 0.041 1 1 0 0 0 0.0137 0.0781 1 1 0 0 0 0.0039 0.0196 1 1 0 0 0 0.0156 0.0566 1 1 0 0 0 0.0176 0.0528 1 1 0 0 0 0.0137 0.0332 1 1 0 0 0 0.0273 0.0605 1 1 0 0 0 0.0117 0.0234 1 1 0 0 0 0.0371 0.0664 1 1 0 0 0 0.0234 0.0332 1 1 0 0 0 0.0215 0.0333 1 1 0 0 0 0.0449 0.0546 1 1 0 0 0 0.0254 0.0313 1 1 0 0 0 0.0274 0.0273 1 1 0 0 0 0.0566 0.0528l0.279 0.24h-0.484l-0.385 0.449c-0.144-0.411-0.339-0.733-0.697-0.986-0.00246-0.0215-0.00811-0.0734-0.0137-0.121-0.311-0.209-0.67-0.342-1.05-0.342-0.553 0-1.01 0.303-1.38 0.715-0.378-0.272-0.625-0.712-0.625-1.21v-9c0-0.831 0.669-1.5 1.5-1.5zm5.5 3h3v1h-3v-1zm0 2h3v2h-3v-2zm0 3h3v3h2l-3.5 3-3.5-3h2v-3zm-8 4a1 1 0 0 1 1 1 1 1 0 0 1-1 1 1 1 0 0 1-1-1 1 1 0 0 1 1-1zm3 0a1 1 0 0 1 1 1 1 1 0 0 1-1 1 1 1 0 0 1-1-1 1 1 0 0 1 1-1z" opacity=".25"/>
 <path d="m4.5 1c-0.831 0-1.5 0.669-1.5 1.5v9c0 0.503 0.247 0.943 0.625 1.22 0.362-0.412 0.822-0.715 1.38-0.715 0.691 0 1.33 0.417 1.7 1h0.934l-0.279-0.24a1 1 0 0 1 0.615-1.76h-2.46c-0.277 0-0.5-0.223-0.5-0.5v-7c0-0.277 0.223-0.5 0.5-0.5h7.5v-0.5c0-0.831-0.669-1.5-1.5-1.5h-7zm5.5 3v1h3v-1h-3zm0 2v2h3v-2h-3zm0 3v3h-2l3.5 3 3.5-3h-2v-3h-3zm-8 4a1 1 0 0 0-1 1 1 1 0 0 0 1 1 1 1 0 0 0 1-1 1 1 0 0 0-1-1zm3 0a1 1 0 0 0-1 1 1 1 0 0 0 1 1 1 1 0 0 0 1-1 1 1 0 0 0-1-1z" fill="url(#gr0)"/>
 <path d="m5.5 3c-0.277 0-0.5 0.223-0.5 0.5v1c0-0.277 0.223-0.5 0.5-0.5h7.5v-0.5c0-0.177-0.0361-0.343-0.0918-0.5h-7.41zm4.5 2v1h3v-1h-3zm0 3v1h3v-1h-3zm-7 3.5v1c0 0.503 0.247 0.943 0.625 1.21 0.302-0.344 0.677-0.601 1.11-0.68a1 1 0 0 1 0.262-0.0352 1 1 0 0 1 0.279 0.041c0.58 0.0951 1.1 0.456 1.42 0.959h0.934l-0.279-0.24a1 1 0 0 1-0.35-0.76h-0.305c-0.362-0.583-1-1-1.7-1-0.553 0-1.01 0.303-1.38 0.715-0.378-0.272-0.625-0.712-0.625-1.21zm4 0.5a1 1 0 0 0 0.135 0.498 1 1 0 0 1 0.83-0.498h-0.965zm1 1 3.5 3 3.5-3h-1.17l-2.33 2-2.33-2h-1.17zm-6.87 1.5a1 1 0 0 0-0.135 0.5 1 1 0 0 0 1 1 1 1 0 0 0 1-1 1 1 0 0 0-0.135-0.5 1 1 0 0 1-0.865 0.5 1 1 0 0 1-0.865-0.5zm3 0a1 1 0 0 0-0.135 0.5 1 1 0 0 0 1 1 1 1 0 0 0 1-1 1 1 0 0 0-0.135-0.5 1 1 0 0 1-0.865 0.5 1 1 0 0 1-0.865-0.5z" opacity=".45"/>
 <path d="m4.5 1c-0.831 0-1.5 0.669-1.5 1.5v1c0-0.831 0.669-1.5 1.5-1.5h7c0.654 0 1.2 0.418 1.41 1h0.0918v-0.5c0-0.831-0.669-1.5-1.5-1.5h-7zm5.5 3v1h3v-1h-3zm0 2v1h3v-1h-3zm0 3v1h3v-1h-3zm-5 1.5v1c0 0.277 0.223 0.5 0.5 0.5h1.5a1 1 0 0 1 0.965-1h-2.46c-0.277 0-0.5-0.223-0.5-0.5zm3 1.5 1.17 1h0.834v-1h-2zm5 0v1h0.834l1.17-1h-2zm-5.87 0.498a1 1 0 0 0-0.135 0.502h0.629l-0.279-0.24a1 1 0 0 1-0.215-0.262zm-5.13 0.502a1 1 0 0 0-1 1 1 1 0 0 0 0.135 0.5 1 1 0 0 1 0.865-0.5 1 1 0 0 1 0.865 0.5 1 1 0 0 0 0.135-0.5 1 1 0 0 0-1-1zm3 0c-0.0912 0-0.176 0.0195-0.262 0.0352a1 1 0 0 0-0.738 0.965 1 1 0 0 0 0.135 0.5 1 1 0 0 1 0.865-0.5 1 1 0 0 1 0.865 0.5 1 1 0 0 0 0.135-0.5 1 1 0 0 0-0.721-0.959c-0.0929-0.0152-0.184-0.041-0.279-0.041z" fill="#fff" opacity=".6"/>
</svg>
