<?xml version="1.0" encoding="UTF-8"?>
<svg width="16" height="16" version="1.1" xmlns="http://www.w3.org/2000/svg">
 <defs>
  <linearGradient id="a" x1="8" x2="8" y1="1" y2="14" gradientUnits="userSpaceOnUse">
   <stop stop-color="#ebebeb" offset="0"/>
   <stop stop-color="#aaa" offset="1"/>
  </linearGradient>
 </defs>
 <path d="m2 0a1 1 0 0 0-1 1v6.5c0 1.37 1.13 2.5 2.5 2.5h0.516v2.5c0 1.37 1.13 2.5 2.5 2.5h7c1.36 0 2.5-1.13 2.5-2.5v-9c0-1.37-1.14-2.5-2.5-2.5h-7c-0.588 0-1.09 0.286-1.52 0.633v-0.633a1 1 0 0 0-1-1h-2zm0 1h2v5.5c0 0.277 0.223 0.5 0.5 0.5h3.5v-2l4.02 3.02-4.02 2.98v-2h-4.5c-0.831 0-1.5-0.669-1.5-1.5v-6.5zm4.52 1h7c0.83 0 1.5 0.669 1.5 1.5v9c0 0.83-0.67 1.5-1.5 1.5h-7c-0.831 0-1.5-0.67-1.5-1.5v-2.5h2v1.5c0 0.28 0.223 0.5 0.5 0.5h5c0.27 0 0.5-0.22 0.5-0.5v-7c0-0.277-0.23-0.5-0.5-0.5h-5c-0.277 0-0.5 0.223-0.5 0.5v1.5h-2v-2.5c0-0.831 0.669-1.5 1.5-1.5zm3.15 3h2.36v1.77l-2.36-1.77zm2.36 4.26v1.74h-2.34l2.34-1.74z" opacity=".25"/>
 <path d="m2 1v6.5c0 0.831 0.669 1.5 1.5 1.5h4.5v2l4.02-2.98-4.02-3.02v2h-3.5c-0.277 0-0.5-0.223-0.5-0.5v-5.5h-2zm4.52 1c-0.831 0-1.5 0.669-1.5 1.5v2.5h2v-1.5c0-0.277 0.223-0.5 0.5-0.5h5c0.277 0 0.5 0.223 0.5 0.5v7c0 0.277-0.223 0.5-0.5 0.5h-5c-0.277 0-0.5-0.223-0.5-0.5v-1.5h-2v2.5c0 0.831 0.669 1.5 1.5 1.5h7c0.831 0 1.5-0.669 1.5-1.5v-9c0-0.831-0.669-1.5-1.5-1.5h-7z" fill="url(#a)"/>
 <path d="m2 1v1h2v-1h-2zm4.52 1c-0.831 0-1.5 0.669-1.5 1.5v1c0-0.831 0.669-1.5 1.5-1.5h7c0.83 0 1.5 0.669 1.5 1.5v-1c0-0.831-0.67-1.5-1.5-1.5h-7zm1.48 3v1l3.35 2.51 0.67-0.498-4.02-3.02zm-4 1.5v1c0 0.277 0.223 0.5 0.5 0.5h3.5v-1h-3.5c-0.277 0-0.5-0.223-0.5-0.5zm1.02 3.5v1h2v-1h-2zm2 1.5v1c0 0.28 0.223 0.5 0.5 0.5h5c0.27 0 0.5-0.22 0.5-0.5v-1c0 0.28-0.23 0.5-0.5 0.5h-5c-0.277 0-0.5-0.22-0.5-0.5z" fill="#fff" opacity=".6"/>
 <path d="m7.52 4c-0.277 0-0.5 0.223-0.5 0.5v1c0-0.277 0.223-0.5 0.5-0.5h5c0.27 0 0.5 0.223 0.5 0.5v-1c0-0.277-0.23-0.5-0.5-0.5h-5zm-2.5 2v1h2v-1h-2zm-3.02 1.5v1c0 0.831 0.669 1.5 1.5 1.5h4.5v-1h-4.5c-0.831 0-1.5-0.669-1.5-1.5zm9.35 1.01-3.35 2.49v1l4.02-2.98-0.67-0.502zm-6.33 3.99v1c0 0.83 0.669 1.5 1.5 1.5h7c0.83 0 1.5-0.67 1.5-1.5v-1c0 0.83-0.67 1.5-1.5 1.5h-7c-0.831 0-1.5-0.67-1.5-1.5z" opacity=".45"/>
</svg>
