<?xml version="1.0" encoding="UTF-8"?>
<svg width="16" height="16" version="1.1" xmlns="http://www.w3.org/2000/svg">
 <defs>
  <linearGradient id="gr0" x1="8" x2="8" y1="1" y2="15" gradientUnits="userSpaceOnUse">
   <stop stop-color="#ebebeb" offset="0"/>
   <stop stop-color="#aaa" offset="1"/>
  </linearGradient>
 </defs>
 <path d="m4.5 0c-1.37 0-2.5 1.13-2.5 2.5v5.5a1 1 0 0 0 0.135 0.5 1 1 0 0 0-0.135 0.5v1h-1a1 1 0 0 0-1 1v2a1 1 0 0 0 1 1h1v1a1 1 0 0 0 1 1h2a1 1 0 0 0 1-1v-1h1a1 1 0 0 0 0.5-0.135 1 1 0 0 0 0.5 0.135h3.5c1.37 0 2.5-1.13 2.5-2.5v-9c0-1.37-1.13-2.5-2.5-2.5h-7zm0 1h7c0.831 0 1.5 0.669 1.5 1.5v9c0 0.831-0.669 1.5-1.5 1.5h-3.5v-2h2.5c0.277 0 0.5-0.223 0.5-0.5v-7c0-0.277-0.223-0.5-0.5-0.5h-5c-0.277 0-0.5 0.223-0.5 0.5v4.5h-2v-5.5c0-0.831 0.669-1.5 1.5-1.5zm1.5 3h4v6h-2a1 1 0 0 0-0.5 0.135 1 1 0 0 0-0.5-0.135h-1v-1a1 1 0 0 0-0.135-0.5 1 1 0 0 0 0.135-0.5v-4zm-3 5h2v2h2v2h-2v2h-2v-2h-2v-2h2v-2z" opacity=".25"/>
 <path d="m4.5 1c-0.831 0-1.5 0.669-1.5 1.5v5.5h2v-4.5c0-0.277 0.223-0.5 0.5-0.5h5c0.277 0 0.5 0.223 0.5 0.5v7c0 0.277-0.223 0.5-0.5 0.5h-2.5v2h3.5c0.831 0 1.5-0.669 1.5-1.5v-9c0-0.831-0.669-1.5-1.5-1.5h-7zm-1.5 8v2h-2v2h2v2h2v-2h2v-2h-2v-2h-2z" fill="url(#gr0)"/>
 <path d="m5.5 3c-0.277 0-0.5 0.223-0.5 0.5v1c0-0.277 0.223-0.5 0.5-0.5h5c0.277 0 0.5 0.223 0.5 0.5v-1c0-0.277-0.223-0.5-0.5-0.5h-5zm-2.5 5v1h2v-1h-2zm10 3.5c0 0.831-0.669 1.5-1.5 1.5h-3.5v1h3.5c0.831 0 1.5-0.669 1.5-1.5v-1zm-12 1.5v1h2v-1h-2zm4 0v1h2v-1h-2zm-2 2v1h2v-1h-2z" opacity=".45"/>
 <path d="m4.5 1c-0.831 0-1.5 0.669-1.5 1.5v1c0-0.831 0.669-1.5 1.5-1.5h7c0.831 0 1.5 0.669 1.5 1.5v-1c0-0.831-0.669-1.5-1.5-1.5h-7zm-1.5 8v1h2v-1h-2zm8 1.5c0 0.277-0.223 0.5-0.5 0.5h-2.5v1h2.5c0.277 0 0.5-0.223 0.5-0.5v-1zm-10 0.5v1h2v-1h-2zm4 0v1h2v-1h-2z" fill="#fff" opacity=".6"/>
</svg>
