<?xml version="1.0" encoding="UTF-8"?>
<svg width="16" height="16" version="1.1" xmlns="http://www.w3.org/2000/svg">
 <defs>
  <linearGradient id="gr0" x1="8" x2="8" y1="5" y2="11" gradientUnits="userSpaceOnUse">
   <stop stop-color="#ebebeb" offset="0"/>
   <stop stop-color="#aaa" offset="1"/>
  </linearGradient>
 </defs>
 <path d="m3 4c-0.503 0-1.01 0.19-1.4 0.562-0.777 0.747-0.778 2.05 0 2.8l0.664 0.639-0.664 0.639c-0.777 0.747-0.776 2.05 0 2.8 0.779 0.747 2.02 0.747 2.8 0l2.12-2.04 0.707-0.678a1 1 0 0 0 0-1.45l-0.709-0.678-2.12-2.04c-0.388-0.373-0.897-0.562-1.4-0.562zm10 0c-0.503 0-1.01 0.191-1.4 0.562l-2.12 2.04-0.709 0.678a1 1 0 0 0 0 1.45l0.707 0.678 2.12 2.04a1 1 0 0 0 2e-3 2e-3c0.778 0.746 2.02 0.746 2.8 0a1 1 0 0 0 2e-3 -2e-3c0.777-0.747 0.778-2.05 0-2.8l-0.664-0.639 0.664-0.639c0.778-0.747 0.778-2.05 0-2.8-0.387-0.372-0.897-0.562-1.4-0.562zm-10 1c0.256 0 0.511 0.095 0.707 0.283l2.83 2.72-2.83 2.72c-0.392 0.376-1.02 0.376-1.41 0-0.392-0.377-0.392-0.981 0-1.36l1.41-1.36-1.41-1.36c-0.392-0.376-0.392-0.981 0-1.36 0.196-0.188 0.451-0.283 0.707-0.283zm10 0c0.256 0 0.511 0.095 0.707 0.283 0.392 0.376 0.392 0.981 0 1.36l-1.41 1.36 1.41 1.36c0.392 0.376 0.392 0.98 0 1.36-0.392 0.376-1.02 0.376-1.41 0l-1.41-1.36-1.42-1.36 2.83-2.72c0.196-0.188 0.451-0.283 0.707-0.283z" opacity=".25"/>
 <path d="m3 5c-0.256 0-0.511 0.095-0.707 0.283-0.392 0.376-0.392 0.981 0 1.36l1.41 1.36-1.41 1.36c-0.392 0.376-0.392 0.981 0 1.36 0.392 0.376 1.02 0.376 1.41 0l2.12-2.04 0.709-0.68-0.709-0.68-2.12-2.04c-0.196-0.188-0.451-0.283-0.707-0.283zm10 0c-0.256 0-0.511 0.095-0.707 0.283l-2.12 2.04-0.709 0.68 0.709 0.68 2.12 2.04c0.392 0.376 1.02 0.376 1.41 0 0.392-0.377 0.392-0.981 0-1.36l-1.41-1.36 1.41-1.36c0.392-0.376 0.392-0.981 0-1.36-0.196-0.188-0.451-0.283-0.707-0.283z" fill="url(#gr0)"/>
 <path d="m2.17 6.46c-0.243 0.371-0.214 0.856 0.123 1.18l0.895 0.859 0.52-0.5-1.41-1.36c-0.0551-0.0529-0.0835-0.119-0.123-0.18zm11.7 0c-0.0396 0.0606-0.068 0.127-0.123 0.18l-1.41 1.36 0.52 0.5 0.894-0.859c0.337-0.324 0.366-0.809 0.123-1.18zm-7.81 2.04-0.895 0.859-1.41 1.36c-0.392 0.376-1.02 0.376-1.41 0-0.0547-0.0526-0.0836-0.118-0.123-0.178-0.242 0.371-0.214 0.854 0.123 1.18 0.392 0.376 1.02 0.376 1.41 0l2.12-2.04 0.709-0.68-0.521-0.5zm3.97 0-0.521 0.5 0.709 0.68 2.12 2.04c0.392 0.376 1.02 0.376 1.41 0 0.337-0.324 0.365-0.807 0.123-1.18-0.0395 0.0602-0.0684 0.125-0.123 0.178-0.392 0.376-1.02 0.376-1.41 0l-1.41-1.36-0.895-0.859z" opacity=".45"/>
 <path d="m3 5c-0.256 0-0.511 0.095-0.707 0.283-0.337 0.324-0.365 0.807-0.123 1.18 0.0394-0.0602 0.0684-0.125 0.123-0.178 0.196-0.188 0.451-0.283 0.707-0.283s0.511 0.095 0.707 0.283l2.31 2.22 0.521-0.5-0.709-0.68-2.12-2.04c-0.196-0.188-0.451-0.283-0.707-0.283zm10 0c-0.256 0-0.511 0.095-0.707 0.283l-2.12 2.04-0.709 0.68 0.521 0.5 2.31-2.22c0.196-0.188 0.451-0.283 0.707-0.283s0.511 0.095 0.707 0.283c0.0547 0.0525 0.0836 0.118 0.123 0.178 0.242-0.371 0.214-0.854-0.123-1.18-0.196-0.188-0.451-0.283-0.707-0.283zm-9.81 3.5-0.895 0.859c-0.337 0.324-0.366 0.808-0.123 1.18 0.0396-0.0607 0.068-0.127 0.123-0.18l1.41-1.36-0.52-0.5zm9.62 0-0.52 0.5 1.41 1.36c0.0551 0.0529 0.0835 0.119 0.123 0.18 0.243-0.371 0.214-0.856-0.123-1.18l-0.894-0.859z" fill="#fff" opacity=".6"/>
</svg>
