<?xml version="1.0" encoding="UTF-8"?>
<svg width="16" height="16" version="1.1" xmlns="http://www.w3.org/2000/svg">
 <defs>
  <linearGradient id="gr0" x1="8" x2="8" y1="2" y2="13" gradientUnits="userSpaceOnUse">
   <stop stop-color="#ebebeb" offset="0"/>
   <stop stop-color="#aaa" offset="1"/>
  </linearGradient>
 </defs>
 <path d="m6 1a1 1 0 0 0-0.74 0.328l-5 5.51a1 1 0 0 0 0.00195 1.35l5 5.49a1 1 0 0 0 0.738 0.326h9a1 1 0 0 0 1-1v-11a1 1 0 0 0-1-1h-9zm0 1h9v11h-9l-5-5.49 5-5.51zm1.41 2.01-1.41 1.41 2.09 2.1-2.09 2.1 1.41 1.41 2.09-2.1 2.09 2.1 1.41-1.41-2.09-2.1 2.09-2.1-1.41-1.41-2.09 2.1-2.09-2.1zm2.74 2.86a1 1 0 0 0-0.0039 1.29 1 1 0 0 0-1.28 0 1 1 0 0 0-0.00391-1.29 1 1 0 0 0 1.29-0.00195z" opacity=".25"/>
 <path d="m6 2-5 5.51 5 5.49h9v-11h-9zm1.41 2 2.09 2.1 2.09-2.1 1.41 1.41-2.09 2.1 2.09 2.1-1.41 1.41-2.09-2.1-2.09 2.1-1.41-1.41 2.09-2.1-2.09-2.1z" fill="url(#gr0)"/>
 <path d="m7.41 4.01-1.41 1.41 0.498 0.5 0.908-0.908 2.09 2.1 2.09-2.1 0.908 0.908 0.498-0.5-1.41-1.41-2.09 2.1-2.09-2.1zm-5.95 4.01-0.455 0.502 5 5.49h9v-1h-9l-4.54-4.99zm6.14 0.00195-1.6 1.6 0.498 0.5 1.6-1.6-0.498-0.5zm3.81 0-0.498 0.5 1.6 1.6 0.498-0.5-1.6-1.6z" opacity=".45"/>
 <path d="m6 2-5 5.51 0.455 0.498 4.54-5.01h9v-1h-9zm0.498 3.91-0.498 0.5 1.6 1.6 0.498-0.5-1.6-1.6zm6 0-1.6 1.6 0.498 0.5 1.6-1.6-0.498-0.5zm-3 3.01-2.09 2.1-0.908-0.91-0.498 0.5 1.41 1.41 2.09-2.1 2.09 2.1 1.41-1.41-0.498-0.5-0.908 0.91-2.09-2.1z" fill="#fff" opacity=".6"/>
</svg>
