<?xml version="1.0" encoding="UTF-8"?>
<svg width="16" height="16" version="1.1" xmlns="http://www.w3.org/2000/svg">
 <defs>
  <linearGradient id="gr0" x1="8" x2="8" y1="1" y2="15" gradientUnits="userSpaceOnUse">
   <stop stop-color="#ebebeb" offset="0"/>
   <stop stop-color="#aaa" offset="1"/>
  </linearGradient>
 </defs>
 <path d="m5 0a1 1 0 0 0-1 1h-0.5c-1.37 0-2.5 1.13-2.5 2.5v8c0 1.37 1.13 2.5 2.5 2.5h0.709c0.26 1.1 1.12 2 2.29 2h6c1.37 0 2.5-1.13 2.5-2.5v-7c0-0.779-0.434-1.39-1-1.85v-1.15c0-1.37-1.13-2.5-2.5-2.5h-0.5a1 1 0 0 0-1-1h-5zm0 1h5v1h1.5c0.831 0 1.5 0.669 1.5 1.5v1.59c0.582 0.206 1 0.754 1 1.41v7c0 0.831-0.669 1.5-1.5 1.5h-6c-0.831 0-1.5-0.669-1.5-1.5v-0.5h-1.5c-0.831 0-1.5-0.669-1.5-1.5v-8c0-0.831 0.669-1.5 1.5-1.5h1.5v-1zm1 1v1h3v-1h-3zm1.5 5c-0.277 0-0.5 0.223-0.5 0.5v5c0 0.277 0.223 0.5 0.5 0.5h4c0.277 0 0.5-0.223 0.5-0.5v-5c0-0.277-0.223-0.5-0.5-0.5h-4zm0.5 1h3v4h-3v-4z" opacity=".25"/>
 <path d="m5 1v1h-1.5c-0.831 0-1.5 0.669-1.5 1.5v8c0 0.831 0.669 1.5 1.5 1.5h1.5v0.5c0 0.831 0.669 1.5 1.5 1.5h6c0.831 0 1.5-0.669 1.5-1.5v-7c0-0.654-0.418-1.2-1-1.41v-1.59c0-0.831-0.669-1.5-1.5-1.5h-1.5v-1h-5zm1 1h3v1h-3v-1zm1.5 5h4c0.277 0 0.5 0.223 0.5 0.5v5c0 0.277-0.223 0.5-0.5 0.5h-4c-0.277 0-0.5-0.223-0.5-0.5v-5c0-0.277 0.223-0.5 0.5-0.5z" fill="url(#gr0)"/>
 <path d="m6 2v1h3v-1h-3zm1.5 5c-0.277 0-0.5 0.223-0.5 0.5v1c0-0.277 0.223-0.5 0.5-0.5h4c0.277 0 0.5 0.223 0.5 0.5v-1c0-0.277-0.223-0.5-0.5-0.5h-4zm-5.5 4.5v1c0 0.831 0.669 1.5 1.5 1.5h1.5v0.5c0 0.831 0.669 1.5 1.5 1.5h6c0.831 0 1.5-0.669 1.5-1.5v-1c0 0.831-0.669 1.5-1.5 1.5h-6c-0.831 0-1.5-0.669-1.5-1.5v-0.5h-1.5c-0.831 0-1.5-0.669-1.5-1.5z" opacity=".45"/>
 <path d="m5 1v1h5v-1h-5zm5 1v1h1.5c0.831 0 1.5 0.669 1.5 1.5v-1c0-0.831-0.669-1.5-1.5-1.5h-1.5zm-5 0h-1.5c-0.831 0-1.5 0.669-1.5 1.5v1c0-0.831 0.669-1.5 1.5-1.5h1.5v-1zm1 1v1h3v-1h-3zm7 2.09v1c0.582 0.206 1 0.754 1 1.41v-1c0-0.654-0.418-1.2-1-1.41zm-6 7.41v1c0 0.277 0.223 0.5 0.5 0.5h4c0.277 0 0.5-0.223 0.5-0.5v-1c0 0.277-0.223 0.5-0.5 0.5h-4c-0.277 0-0.5-0.223-0.5-0.5z" fill="#fff" opacity=".6"/>
</svg>
