<?xml version="1.0" encoding="UTF-8"?>
<svg width="16" height="16" version="1.1" xmlns="http://www.w3.org/2000/svg">
 <defs>
  <linearGradient id="gr0" x1="8" x2="8" y1="2" y2="15" gradientUnits="userSpaceOnUse">
   <stop stop-color="#ebebeb" offset="0"/>
   <stop stop-color="#aaa" offset="1"/>
  </linearGradient>
 </defs>
 <path d="m1 1a1 1 0 0 0-1 1v1a1 1 0 0 0 0.135 0.5 1 1 0 0 0-0.135 0.5v1a1 1 0 0 0 0.135 0.5 1 1 0 0 0-0.135 0.5v1a1 1 0 0 0 0.135 0.5 1 1 0 0 0-0.135 0.5v1a1 1 0 0 0 0.135 0.5 1 1 0 0 0-0.135 0.5v1a1 1 0 0 0 0.135 0.5 1 1 0 0 0-0.135 0.5v1a1 1 0 0 0 0.135 0.5 1 1 0 0 0-0.135 0.5v1a1 1 0 0 0 1 1h1a1 1 0 0 0 0.5-0.135 1 1 0 0 0 0.5 0.135h1a1 1 0 0 0 0.5-0.135 1 1 0 0 0 0.5 0.135h1a1 1 0 0 0 0.5-0.135 1 1 0 0 0 0.5 0.135h1a1 1 0 0 0 0.5-0.135 1 1 0 0 0 0.5 0.135h1a1 1 0 0 0 0.5-0.135 1 1 0 0 0 0.5 0.135h1a1 1 0 0 0 0.5-0.135 1 1 0 0 0 0.5 0.135h1a1 1 0 0 0 1-1v-1a1 1 0 0 0-0.135-0.5 1 1 0 0 0 0.135-0.5v-1a1 1 0 0 0-0.135-0.5 1 1 0 0 0 0.135-0.5v-1a1 1 0 0 0-0.135-0.5 1 1 0 0 0 0.135-0.5v-1a1 1 0 0 0-0.135-0.5 1 1 0 0 0 0.135-0.5v-1a1 1 0 0 0-0.135-0.5 1 1 0 0 0 0.135-0.5v-1a1 1 0 0 0-0.135-0.5 1 1 0 0 0 0.135-0.5v-1a1 1 0 0 0-1-1h-1a1 1 0 0 0-0.5 0.135 1 1 0 0 0-0.5-0.135h-1a1 1 0 0 0-0.5 0.135 1 1 0 0 0-0.5-0.135h-1a1 1 0 0 0-0.5 0.135 1 1 0 0 0-0.5-0.135h-1a1 1 0 0 0-0.5 0.135 1 1 0 0 0-0.5-0.135h-1a1 1 0 0 0-0.5 0.135 1 1 0 0 0-0.5-0.135h-1a1 1 0 0 0-0.5 0.135 1 1 0 0 0-0.5-0.135h-1zm0 1h1v1h-1v-1zm2 0h1v1h-1v-1zm2 0h1v1h-1v-1zm2 0h1v1h-1v-1zm2 0h1v1h-1v-1zm2 0h1v1h-1v-1zm2 0h1v1h-1v-1zm-8.5 1.87a1 1 0 0 0 0.477 0.135h-0.977a1 1 0 0 0-1 1v-1h1a1 1 0 0 0 0.5-0.135zm2 0a1 1 0 0 0 0.477 0.135h-0.977a1 1 0 0 0-0.5 0.135 1 1 0 0 0-0.477-0.135h0.977a1 1 0 0 0 0.5-0.135zm2 0a1 1 0 0 0 0.477 0.135h-0.977a1 1 0 0 0-0.5 0.135 1 1 0 0 0-0.477-0.135h0.977a1 1 0 0 0 0.5-0.135zm2 0a1 1 0 0 0 0.477 0.135h-0.977a1 1 0 0 0-0.5 0.135 1 1 0 0 0-0.477-0.135h0.977a1 1 0 0 0 0.5-0.135zm-9.5 0.135h1v1h-1v-1zm10 0h1v1a1 1 0 0 0 0.135 0.5 1 1 0 0 0-0.135 0.477v-0.977a1 1 0 0 0-1-1zm2 0h1v1h-1v-1zm-9 1h1v1h-1v-1zm2 0h1v1h-1v-1zm2 0h1v1h-1v-1zm2 0h1v1h-1v-1zm-7 0.0234v0.977a1 1 0 0 0 0.135 0.5 1 1 0 0 0-0.135 0.477v-0.977a1 1 0 0 0-0.135-0.5 1 1 0 0 0 0.135-0.477zm-2 0.977h1v1h-1v-1zm12 0h1v1h-1v-1zm-1 0.0234v0.977a1 1 0 0 0 0.135 0.5 1 1 0 0 0-0.135 0.477v-0.977a1 1 0 0 0-0.135-0.5 1 1 0 0 0 0.135-0.477zm-4.5 0.842a1 1 0 0 0 0.5 0.135h1v1a1 1 0 0 0 0.135 0.5 1 1 0 0 0-0.135 0.5v1h-1a1 1 0 0 0-0.5 0.135 1 1 0 0 0-0.5-0.135h-1v-1a1 1 0 0 0-0.135-0.5 1 1 0 0 0 0.135-0.5v-1h1a1 1 0 0 0 0.5-0.135zm-3.5 0.135h1v1h-1v-1zm6 0h1v1h-1v-1zm-7 0.0234v0.977a1 1 0 0 0 0.135 0.5 1 1 0 0 0-0.135 0.477v-0.977a1 1 0 0 0-0.135-0.5 1 1 0 0 0 0.135-0.477zm-2 0.977h1v1h-1v-1zm12 0h1v1h-1v-1zm-1 0.0234v0.977a1 1 0 0 0 0.135 0.5 1 1 0 0 0-0.135 0.477v-0.977a1 1 0 0 0-0.135-0.5 1 1 0 0 0 0.135-0.477zm-8 0.977h1v1h-1v-1zm6 0h1v1h-1v-1zm-7 0.0234v0.977a1 1 0 0 0 0.135 0.5 1 1 0 0 0-0.135 0.477v-0.977a1 1 0 0 0-0.135-0.5 1 1 0 0 0 0.135-0.477zm-2 0.977h1v1h-1v-1zm12 0h1v1h-1v-1zm-1 0.0234v0.977a1 1 0 0 0 0.135 0.5 1 1 0 0 0-0.135 0.477v-0.977a1 1 0 0 0-0.135-0.5 1 1 0 0 0 0.135-0.477zm-8 0.977h1v1h-1v-1zm2 0h1v1h-1v-1zm2 0h1v1h-1v-1zm2 0h1v1h-1v-1zm-7 0.0234v0.977a1 1 0 0 0 1 1h-1v-1a1 1 0 0 0-0.135-0.5 1 1 0 0 0 0.135-0.477zm-2 0.977h1v1h-1v-1zm11 0v1h-1a1 1 0 0 0-0.5 0.135 1 1 0 0 0-0.477-0.135h0.977a1 1 0 0 0 1-1zm1 0h1v1h-1v-1zm-7.5 0.865a1 1 0 0 0 0.477 0.135h-0.977a1 1 0 0 0-0.5 0.135 1 1 0 0 0-0.477-0.135h0.977a1 1 0 0 0 0.5-0.135zm2 0a1 1 0 0 0 0.477 0.135h-0.977a1 1 0 0 0-0.5 0.135 1 1 0 0 0-0.477-0.135h0.977a1 1 0 0 0 0.5-0.135zm2 0a1 1 0 0 0 0.477 0.135h-0.977a1 1 0 0 0-0.5 0.135 1 1 0 0 0-0.477-0.135h0.977a1 1 0 0 0 0.5-0.135zm-8.5 1.13h1v1h-1v-1zm2 0h1v1h-1v-1zm2 0h1v1h-1v-1zm2 0h1v1h-1v-1zm2 0h1v1h-1v-1zm2 0h1v1h-1v-1zm2 0h1v1h-1v-1z" opacity=".25"/>
 <path d="m1 2v1h1v-1h-1zm2 0v1h1v-1h-1zm2 0v1h1v-1h-1zm2 0v1h1v-1h-1zm2 0v1h1v-1h-1zm2 0v1h1v-1h-1zm2 0v1h1v-1h-1zm-12 2v1h1v-1h-1zm12 0v1h1v-1h-1zm-9 1v1h1v-1h-1zm2 0v1h1v-1h-1zm2 0v1h1v-1h-1zm2 0v1h1v-1h-1zm-9 1v1h1v-1h-1zm12 0v1h1v-1h-1zm-9 1v1h1v-1h-1zm6 0v1h1v-1h-1zm-9 1v1h1v-1h-1zm12 0v1h1v-1h-1zm-9 1v1h1v-1h-1zm6 0v1h1v-1h-1zm-9 1v1h1v-1h-1zm12 0v1h1v-1h-1zm-9 1v1h1v-1h-1zm2 0v1h1v-1h-1zm2 0v1h1v-1h-1zm2 0v1h1v-1h-1zm-9 1v1h1v-1h-1zm12 0v1h1v-1h-1zm-12 2v1h1v-1h-1zm2 0v1h1v-1h-1zm2 0v1h1v-1h-1zm2 0v1h1v-1h-1zm2 0v1h1v-1h-1zm2 0v1h1v-1h-1zm2 0v1h1v-1h-1z" fill="url(#gr0)"/>
 <path d="m1 3v1h1v-1h-1zm2 0v1h1v-1h-1zm2 0v1h1v-1h-1zm2 0v1h1v-1h-1zm2 0v1h1v-1h-1zm2 0v1h1v-1h-1zm2 0v1h1v-1h-1zm-12 2v1h1v-1h-1zm12 0v1h1v-1h-1zm-9 1v1h1v-1h-1zm2 0v1h1v-1h-1zm2 0v1h1v-1h-1zm2 0v1h1v-1h-1zm-9 1v1h1v-1h-1zm12 0v1h1v-1h-1zm-9 1v1h1v-1h-1zm6 0v1h1v-1h-1zm-9 1v1h1v-1h-1zm12 0v1h1v-1h-1zm-9 1v1h1v-1h-1zm6 0v1h1v-1h-1zm-9 1v1h1v-1h-1zm12 0v1h1v-1h-1zm-9 1v1h1v-1h-1zm2 0v1h1v-1h-1zm2 0v1h1v-1h-1zm2 0v1h1v-1h-1zm-9 1v1h1v-1h-1zm12 0v1h1v-1h-1zm-12 2v1h1v-1h-1zm2 0v1h1v-1h-1zm2 0v1h1v-1h-1zm2 0v1h1v-1h-1zm2 0v1h1v-1h-1zm2 0v1h1v-1h-1zm2 0v1h1v-1h-1z" opacity=".45"/>
 <path d="m1 2v1h1v-1h-1zm2 0v1h1v-1h-1zm2 0v1h1v-1h-1zm2 0v1h1v-1h-1zm2 0v1h1v-1h-1zm2 0v1h1v-1h-1zm2 0v1h1v-1h-1zm-12 2v1h1v-1h-1zm12 0v1h1v-1h-1zm-9 1v1h1v-1h-1zm2 0v1h1v-1h-1zm2 0v1h1v-1h-1zm2 0v1h1v-1h-1zm-9 1v1h1v-1h-1zm12 0v1h1v-1h-1zm-9 1v1h1v-1h-1zm6 0v1h1v-1h-1zm-9 1v1h1v-1h-1zm12 0v1h1v-1h-1zm-9 1v1h1v-1h-1zm6 0v1h1v-1h-1zm-9 1v1h1v-1h-1zm12 0v1h1v-1h-1zm-9 1v1h1v-1h-1zm2 0v1h1v-1h-1zm2 0v1h1v-1h-1zm2 0v1h1v-1h-1zm-9 1v1h1v-1h-1zm12 0v1h1v-1h-1zm-12 2v1h1v-1h-1zm2 0v1h1v-1h-1zm2 0v1h1v-1h-1zm2 0v1h1v-1h-1zm2 0v1h1v-1h-1zm2 0v1h1v-1h-1zm2 0v1h1v-1h-1z" fill="#fff" opacity=".6"/>
</svg>
