<?xml version="1.0" encoding="UTF-8"?>
<svg width="16" height="16" version="1.1" xmlns="http://www.w3.org/2000/svg">
 <defs>
  <linearGradient id="gr0" x1="8" x2="8" y1="1" y2="15" gradientUnits="userSpaceOnUse">
   <stop stop-color="#ebebeb" offset="0"/>
   <stop stop-color="#aaa" offset="1"/>
  </linearGradient>
 </defs>
 <path d="m3.78 0.00586a1 1 0 0 0-0.131 0.0234c-0.00149 3.59e-4 -0.00242 0.00159-0.0039 0.00195-0.00274 6.69e-4 -0.00509 0.00127-0.00782 0.00195-0.166 0.0418-0.3 0.109-0.439 0.223-0.0713 0.0562-0.135 0.117-0.197 0.199-0.0182 0.022-0.325 0.392-0.602 0.941-0.288 0.571-0.641 1.49-0.152 2.44 0.807 1.57 2.1 3.81 3.1 5.37a1 1 0 0 0 0.58 0.422c-0.0878 0.226-0.158 0.372-0.191 0.434-0.536-0.0858-1.08-0.137-1.56 0.0469-0.693 0.267-1.25 0.766-1.64 1.36-0.389 0.607-0.625 1.34-0.521 2.11 0.102 0.759 0.591 1.6 1.49 2.07 0.908 0.472 1.86 0.412 2.57 0.141 0.693-0.267 1.25-0.766 1.63-1.36 0.209-0.326 0.203-0.694 0.281-1.05 0.0787 0.357 0.0704 0.725 0.279 1.05 0.383 0.598 0.941 1.1 1.63 1.36 0.705 0.271 1.66 0.332 2.57-0.141 0.903-0.47 1.39-1.31 1.5-2.07 0.104-0.774-0.135-1.5-0.524-2.11-0.383-0.598-0.943-1.1-1.64-1.36-0.494-0.19-1.06-0.147-1.61-0.0489a1 1 0 0 0-0.0469-0.0468h-2e-3a1 1 0 0 0-0.0722-0.0586c1.03-1.48 2.67-4.19 3.67-6.12 0.489-0.95 0.134-1.87-0.152-2.44-0.277-0.55-0.585-0.921-0.604-0.943-0.0605-0.0788-0.122-0.138-0.191-0.193-0.145-0.118-0.284-0.189-0.457-0.23a1 1 0 0 0-0.131-0.0234c-0.0111-0.00116-0.0205 8.51e-4 -0.0312 0-0.0112-0.00116-0.0206 8.51e-4 -0.0313 0-0.0845-0.00875-0.152-0.00877-0.236 0l0.0039 0.0312c-0.0118 9.08e-4 -0.0227-0.00129-0.0351 0a1 1 0 0 0-0.5 0.197c-0.0877 0.0662-0.157 0.134-0.232 0.236a1 1 0 0 0-0.0351 0.0508l-3.12 4.83-3.12-4.83a1 1 0 0 0-0.0352-0.0527c-0.0243-0.0329-0.052-0.0492-0.0762-0.0762a1 1 0 0 0-0.688-0.387c-0.0111-0.00115-0.0206 8.48e-4 -0.0312 0-0.0111-0.00115-0.0206 8.48e-4 -0.0312 0-0.0846-0.00876-0.154-0.00876-0.238 0zm-0.143 0.0273a1 1 0 0 0-0.146 0.0488l0.146-0.0488zm8.3 0.184 0.0938 0.785c0.0052 0 0.0106-5e-4 0.0156 0 0.01-1e-3 0.0212-1e-3 0.0312 0 0.01-1e-3 0.0213-1e-3 0.0313 0 0.022 0.0054 0.0425 0.0164 0.0605 0.0312 0.011 0.0087 0.0213 0.0196 0.0313 0.0312 0 0 0.271 0.326 0.5 0.781s0.411 1.04 0.156 1.53c-1.05 2.03-3.01 5.32-3.9 6.5-0.0086 0.0116-0.0198 0.0222-0.0312 0.0312-0.0176 0.0148-0.0403 0.0282-0.0625 0.0332-0.879 0.239-1.29 0.68-1.49 1.16-0.19 0.453-0.177 0.931-0.156 1.28-7e-3 -0.01-5e-3 -7e-4 0 0.0293 5.2e-4 8e-3 -5.4e-4 0.0213 0 0.0313 5e-3 0.011-3e-3 0.0162 0 0.0312 0.0011 0.01 0.0305-0.01 0.0312 0 9.9e-4 0.01 9.9e-4 0.0213 0 0.0313 1e-5 0 4e-5 0.0311 0 0.0312-1e-4 1e-3 -0.0312 0.0623-0.0312 0.0625 0.0228 0.43-0.085 0.879-0.344 1.28-0.287 0.448-0.67 0.783-1.15 0.969-0.48 0.184-1.12 0.231-1.74-0.0938-0.624-0.325-0.904-0.844-0.967-1.31-0.064-0.478 0.0869-0.988 0.375-1.44 0.287-0.448 0.67-0.785 1.15-0.971 0.384-0.148 0.829-0.167 1.31-0.0293 0.0019 1e-4 0.0272-6e-4 0.0312 0 0.0065-4e-4 0.0212 1e-4 0.0312 0 0.0041 2e-4 0.0252 0 0.0312 0 0.219 0.055 0.366-0.019 0.529-0.221 0.163-0.202 0.303-0.532 0.436-0.906 0.264-0.749 0.475-1.69 0.811-2.25l3.94-6.11-0.523-0.506 0.803-0.797zm-8.05 0.783c0.01-1e-3 0.0212-1e-3 0.0312 0 0.0101-1e-3 0.0212-1e-3 0.0312 0 0.0101-1e-3 0.0212-1e-3 0.0312 0 1e-3 0.0102 1e-3 0.021 0 0.0312 0.0101-1e-3 0.0212-1e-3 0.0312 0 0.0115 0.0087 0.0222 0.0196 0.0312 0.0312l3.33 5.16-0.529 0.844c-1.4e-4 0.0102-1.4e-4 0.021 0 0.0312-0.316 0.526-0.5 1.05-0.654 1.56-0.976-1.52-2.27-3.76-3.05-5.29-0.255-0.496-0.0731-1.08 0.156-1.53 0.229-0.456 0.498-0.783 0.498-0.783 0.0086-0.0116 0.0198-0.0222 0.0312-0.0312 0.0176-0.0148 0.0403-0.0262 0.0625-0.0312zm2.23 9.05 0.00977 0.0019c-0.0127-0.0036-0.0244 0.0055-0.0371 2e-3 0.00817 3e-4 0.0203-0.0045 0.0273-0.0039zm3.46 0.633-0.0391 0.0332c0.00989-0.0075 0.0159-0.0198 0.0254-0.0274 0.0042-0.0034 0.00946-0.0023 0.0137-0.0058zm-0.082 0.0781h0.00195c0.0079 0.01 0.0232 0.0213 0.0312 0.0313 0.163 0.202 0.31 0.274 0.529 0.219 6e-3 -9e-4 0.0313 3e-4 0.0313 0 0.01 2e-4 0.0212-4e-4 0.0312 0 4e-3 -6e-4 0.0293 1e-4 0.0293 0 0.48-0.138 0.927-0.116 1.31 0.0313 0.482 0.186 0.865 0.52 1.15 0.969 0.288 0.45 0.437 0.961 0.373 1.44-0.0629 0.47-0.34 0.988-0.965 1.31-0.625 0.325-1.27 0.278-1.75 0.0937-0.482-0.186-0.865-0.52-1.15-0.969-0.259-0.404-0.365-0.853-0.342-1.28-1e-4 -1e-3 -0.0312-0.0623-0.0312-0.0625-5e-5 0-1e-5 -0.0311 0-0.0313-1e-3 -0.01-1e-3 -0.0212 0-0.0312 8e-4 -0.01 0.0302 0.01 0.0312 0 3e-3 -0.015-5e-3 -0.0183 0-0.0293 5.4e-4 -8e-3 -5.3e-4 -0.0213 0-0.0313 6e-3 -0.0301 7e-3 -0.0412 0-0.0312 0.02-0.345 0.0216-0.807-0.156-1.25 0.108-0.0663 0.28-0.12 0.529-0.188 0.138-0.0333 0.232-0.108 0.342-0.188zm-4.24 1.31c-0.306-0.0139-0.642 0.171-0.842 0.502-0.134 0.222-0.187 0.419-0.156 0.625 0.0312 0.206 0.141 0.405 0.312 0.5 0.344 0.19 0.885-0.0267 1.15-0.469 0.135-0.223 0.187-0.428 0.156-0.625-0.0308-0.197-0.139-0.375-0.312-0.471-0.0782-0.043-0.207-0.0605-0.311-0.0605v-2e-3zm5.48 2e-3c-0.104 4e-3 -0.234 0.0195-0.312 0.0625-0.174 0.0959-0.28 0.272-0.311 0.469-0.0308 0.197 0.0197 0.402 0.154 0.625 0.267 0.442 0.811 0.658 1.15 0.469 0.171-0.0946 0.28-0.294 0.311-0.5 0.0311-0.206-0.0224-0.403-0.156-0.625-0.2-0.331-0.534-0.514-0.84-0.5zm-5.82 0.725c0.0432-4e-4 0.0464-0.0223 0.133 0.0254 0.194 0.107 0.189 0.184 0.195 0.225 0.00356 0.0235 0.0131 1e-4 0.00977 0.0176l-0.0469 0.0058c0.0474 0.0022 0.12 0.0758-0.127-0.0605-0.108-0.0599-0.143-0.147-0.164-0.213zm6.15 0c-0.0207 0.0655-0.0557 0.153-0.164 0.213-0.247 0.136-0.172 0.0627-0.125 0.0605l-0.0469-0.0058c-0.0033-0.0176 0.0063 0.0054 0.0098-0.0176 0.0062-0.041-3e-4 -0.118 0.193-0.225 0.0858-0.0474 0.0895-0.0257 0.133-0.0254z" opacity=".25"/>
 <path d="m3.89 1c-0.0222 0.00536-0.0447 0.0165-0.0623 0.0313-0.0115 0.00868-0.0226 0.0197-0.0312 0.0313 0 0-0.269 0.326-0.499 0.782s-0.411 1.04-0.156 1.53c0.786 1.53 2.08 3.77 3.05 5.29 0.154-0.513 0.339-1.04 0.654-1.56-1.47e-4 -0.0102-1.47e-4 -0.0211 0-0.0313l0.53-0.844-3.33-5.16c-0.00858-0.0116-0.0197-0.0226-0.0312-0.0313-0.0101-0.00104-0.0211-0.00104-0.0312 0 0.00103-0.0102 0.00103-0.0211 0-0.0313-0.0101-0.00104-0.0211-0.00104-0.0312 0-0.0101-0.00104-0.0211-0.00104-0.0312 0-0.0101-0.00104-0.0211-0.00104-0.0312 0zm8.13 0c-9.97e-4 0.0102-9.97e-4 0.0211 0 0.0313-0.0101-0.00104-0.0211-0.00104-0.0312 0-0.0115 0.00868-0.0226 0.0196-0.0312 0.0313l-4.24 6.57c-0.336 0.56-0.546 1.5-0.81 2.25-0.132 0.374-0.273 0.705-0.436 0.907-0.163 0.202-0.311 0.274-0.53 0.219-0.00619-9.18e-4 -0.0271 2.59e-4 -0.0312 0-0.0101 1.51e-4 -0.0247-3.65e-4 -0.0312 0-0.00436-6e-4 -0.0293 1.06e-4 -0.0312 0-0.48-0.138-0.925-0.116-1.31 0.0313-0.482 0.186-0.866 0.521-1.15 0.97-0.288 0.45-0.438 0.96-0.374 1.44 0.0629 0.471 0.342 0.989 0.966 1.31 0.625 0.325 1.27 0.278 1.74 0.0938 0.482-0.186 0.866-0.521 1.15-0.97 0.259-0.404 0.366-0.852 0.343-1.28 1.02e-4 -1.2e-4 0.0311-0.0624 0.0312-0.0626 4.7e-5 -1.5e-4 1.3e-5 -0.0311 0-0.0313 9.97e-4 -0.0102 9.97e-4 -0.0211 0-0.0313-7.55e-4 -0.0056-0.0301 0.0051-0.0312 0-0.0033-0.0154 0.0049-0.0203 0-0.0313-5.4e-4 -0.0084 5.28e-4 -0.0226 0-0.0313-0.0055-0.0304-0.0072-0.0415 0-0.0313-0.0204-0.352-0.0346-0.829 0.156-1.28 0.2-0.476 0.617-0.918 1.5-1.16 0.0222-0.00536 0.0447-0.0165 0.0623-0.0313 0.0115-0.00868 0.0226-0.0196 0.0312-0.0313 0.882-1.19 2.85-4.47 3.9-6.5 0.255-0.496 0.073-1.08-0.156-1.53s-0.499-0.782-0.499-0.782c-0.0086-0.0116-0.0197-0.0226-0.0312-0.0313-0.0176-0.0148-0.0401-0.0259-0.0623-0.0313-0.0101-0.00104-0.0211-0.00104-0.0312 0-0.0101-0.00104-0.0211-0.00104-0.0312 0-0.0101-0.00104-0.0211-0.00104-0.0312 0zm-2.52 9.76c-0.11 0.0788-0.205 0.154-0.343 0.188-0.249 0.0678-0.422 0.121-0.53 0.188 0.178 0.445 0.176 0.906 0.156 1.25 0.0072-0.0102 0.0055 9.01e-4 0 0.0313-5.28e-4 0.0086 5.39e-4 0.0228 0 0.0313-0.0049 0.011 0.0033 0.0159 0 0.0313-0.0011 0.0051-0.0304-0.0056-0.0312 0-9.97e-4 0.0102-9.97e-4 0.0211 0 0.0313-1.3e-5 1.84e-4 -4.7e-5 0.0311 0 0.0313 4.6e-5 1.51e-4 0.0311 0.0624 0.0312 0.0626-0.0228 0.43 0.084 0.878 0.343 1.28 0.287 0.448 0.671 0.784 1.15 0.97 0.48 0.185 1.12 0.231 1.74-0.0938 0.624-0.325 0.903-0.843 0.966-1.31 0.064-0.478-0.0858-0.989-0.374-1.44-0.287-0.448-0.671-0.784-1.15-0.97-0.384-0.148-0.829-0.169-1.31-0.0313-0.0019 1.06e-4 -0.0268-6e-4 -0.0312 0-0.0065-3.65e-4 -0.021 1.51e-4 -0.0312 0-0.0041 2.59e-4 -0.025-9.18e-4 -0.0312 0-0.219 0.055-0.366-0.0173-0.53-0.219-0.0081-0.0099-0.0233-0.0207-0.0312-0.0313zm-4.24 1.31c0.104 0.0047 0.233 0.0194 0.312 0.0626 0.174 0.0959 0.281 0.272 0.312 0.469 0.0308 0.197-0.0212 0.403-0.156 0.625-0.267 0.442-0.809 0.659-1.15 0.469-0.171-0.0946-0.28-0.295-0.312-0.5-0.0312-0.206 0.0219-0.404 0.156-0.625 0.2-0.331 0.535-0.514 0.841-0.5zm5.48 0c0.306-0.0139 0.641 0.169 0.841 0.5 0.134 0.222 0.187 0.42 0.156 0.625-0.0312 0.206-0.14 0.406-0.312 0.5-0.344 0.19-0.886-0.027-1.15-0.469-0.135-0.223-0.187-0.429-0.156-0.625 0.0308-0.197 0.138-0.373 0.312-0.469 0.0782-0.0432 0.208-0.0578 0.312-0.0626z" fill="url(#gr0)"/>
 <path d="m3.12 3.3c-0.113 0.355-0.153 0.737 0.0234 1.08 0.786 1.53 2.08 3.77 3.05 5.29 0.154-0.513 0.339-1.04 0.654-1.56-1.4e-4 -0.0102-1.4e-4 -0.021 0-0.0312l0.529-0.844-0.318-0.492-0.211 0.336c-1.4e-4 0.0102-1.4e-4 0.021 0 0.0312-0.316 0.526-0.5 1.05-0.654 1.56-0.976-1.52-2.27-3.76-3.05-5.29-0.0132-0.0258-0.0125-0.0539-0.0234-0.0801zm9.77 0.00195c-0.011 0.0262-0.0102 0.0543-0.0235 0.0801-1.05 2.03-3.01 5.32-3.9 6.5-0.0086 0.0116-0.0198 0.0222-0.0312 0.0312-0.0176 0.0148-0.0403 0.0282-0.0625 0.0332-0.879 0.239-1.29 0.68-1.49 1.16-0.19 0.453-0.177 0.931-0.156 1.28-7e-3 -0.01-5e-3 -7e-4 0 0.0293 5.2e-4 8e-3 -5.4e-4 0.0213 0 0.0313 5e-3 0.011-3e-3 0.0162 0 0.0312 0.0011 0.01 0.0305-0.01 0.0312 0 9.9e-4 0.01 9.9e-4 0.0213 0 0.0313 1e-5 0 4e-5 0.0311 0 0.0312-1e-4 1e-3 -0.0312 0.0623-0.0312 0.0625 0.0228 0.43-0.085 0.879-0.344 1.28-0.287 0.448-0.67 0.783-1.15 0.969-0.48 0.184-1.12 0.231-1.74-0.0938-0.516-0.268-0.787-0.668-0.904-1.06-0.0701 0.251-0.0954 0.504-0.0625 0.75 0.0629 0.471 0.342 0.99 0.967 1.31 0.625 0.325 1.26 0.278 1.74 0.0938 0.482-0.186 0.865-0.521 1.15-0.969 0.259-0.404 0.367-0.853 0.344-1.28 1e-4 -2e-4 0.0312-0.0615 0.0312-0.0625 4e-5 -1e-4 1e-5 -0.0312 0-0.0312 9.9e-4 -0.01 9.9e-4 -0.0213 0-0.0313-7.6e-4 -0.01-0.0302 0.01-0.0312 0-3e-3 -0.015 5e-3 -0.0202 0-0.0312-5.4e-4 -0.01 5.2e-4 -0.0233 0-0.0313-5e-3 -0.03-7e-3 -0.0393 0-0.0293-0.0204-0.352-0.0341-0.83 0.156-1.28 0.2-0.476 0.615-0.917 1.49-1.16 0.0222-0.01 0.0449-0.0173 0.0625-0.0313 0.0115-0.01 0.0226-0.0202 0.0312-0.0312 0.882-1.19 2.85-4.47 3.9-6.51 0.177-0.343 0.136-0.725 0.0235-1.08zm-7.63 8.77c-0.306-0.0139-0.642 0.171-0.842 0.502-0.134 0.222-0.187 0.419-0.156 0.625 0.0205 0.136 0.0862 0.255 0.17 0.357 0.201-0.319 0.528-0.498 0.828-0.484v2e-3c0.104 0 0.232 0.0175 0.311 0.0605 0.0544 0.0301 0.0918 0.079 0.133 0.123 0.00669-0.0103 0.0171-0.0168 0.0234-0.0274 0.135-0.223 0.187-0.428 0.156-0.625-0.0308-0.197-0.139-0.375-0.312-0.471-0.0782-0.043-0.207-0.0605-0.311-0.0605v-2e-3zm5.48 2e-3c-0.104 4e-3 -0.234 0.0195-0.312 0.0625-0.174 0.0959-0.28 0.272-0.311 0.469-0.0308 0.197 0.0197 0.402 0.154 0.625 0.0069 0.0114 0.0182 0.0182 0.0254 0.0293 0.0411-0.0441 0.0763-0.0929 0.131-0.123 0.078-0.043 0.209-0.0585 0.312-0.0625 0.3-0.0138 0.625 0.165 0.826 0.484 0.084-0.102 0.149-0.223 0.17-0.359 0.0311-0.206-0.0224-0.403-0.156-0.625-0.2-0.331-0.534-0.514-0.84-0.5zm-1.96 0.0058c-0.0427 0.0178-0.123 0.0354-0.154 0.0547 0.178 0.445 0.176 0.907 0.156 1.25 7e-3 -0.01 6e-3 0.0011 0 0.0312-5.3e-4 0.01 5.4e-4 0.0233 0 0.0313-5e-3 0.011 3e-3 0.0143 0 0.0293-1e-3 0.01-0.0304-0.01-0.0312 0-1e-3 0.01-1e-3 0.0212 0 0.0312-1e-5 2e-4 -5e-5 0.0313 0 0.0313 5e-5 2e-4 0.0312 0.0615 0.0312 0.0625-0.0228 0.43 0.083 0.879 0.342 1.28 0.287 0.448 0.67 0.783 1.15 0.969 0.48 0.185 1.12 0.232 1.75-0.0937 0.624-0.325 0.902-0.842 0.965-1.31 0.0329-0.246 0.0076-0.501-0.0625-0.752-0.117 0.397-0.386 0.796-0.902 1.06-0.625 0.325-1.27 0.278-1.75 0.0937-0.482-0.186-0.865-0.52-1.15-0.969-0.259-0.404-0.365-0.853-0.342-1.28-1e-4 -1e-3 -0.0312-0.0623-0.0312-0.0625-5e-5 0-1e-5 -0.0311 0-0.0313-1e-3 -0.01-1e-3 -0.0212 0-0.0312 8e-4 -0.01 0.0302 0.01 0.0312 0 3e-3 -0.015-5e-3 -0.0183 0-0.0293 5.4e-4 -8e-3 -5.3e-4 -0.0213 0-0.0313 6e-3 -0.0301 7e-3 -0.0412 0-0.0312 0.0052-0.09-0.00185-0.203-0.00196-0.307z" opacity=".45"/>
 <path d="m3.89 1c-0.0222 5e-3 -0.0449 0.0164-0.0625 0.0312-0.0115 9e-3 -0.0226 0.0196-0.0312 0.0312 0 0-0.269 0.328-0.498 0.783-0.217 0.432-0.379 0.973-0.18 1.45 0.0502-0.158 0.109-0.311 0.18-0.451 0.229-0.456 0.498-0.783 0.498-0.783 0.0086-0.0116 0.0198-0.0222 0.0312-0.0312 0.0176-0.0148 0.0403-0.0262 0.0625-0.0312 0.01-1e-3 0.0212-1e-3 0.0312 0 0.0101-1e-3 0.0212-1e-3 0.0312 0 0.0101-1e-3 0.0212-1e-3 0.0312 0 1e-3 0.0102 1e-3 0.021 0 0.0312 0.0101-1e-3 0.0212-1e-3 0.0312 0 0.0115 0.0087 0.0222 0.0196 0.0312 0.0312l3.02 4.67 0.318-0.508-3.33-5.16c-9e-3 -0.0116-0.0198-0.0226-0.0312-0.0312-0.0101-1e-3 -0.0212-1e-3 -0.0312 0 1e-3 -0.0102 1e-3 -0.021 0-0.0312-0.0101-1e-3 -0.0212-1e-3 -0.0312 0-0.0101-1e-3 -0.0212-1e-3 -0.0312 0-0.01-1e-3 -0.0212-1e-3 -0.0312 0zm8.13 0.00195v0.0293c-0.01-1e-3 -0.0212-1e-3 -0.0312 0-0.011 9e-3 -0.0233 0.0196-0.0313 0.0312l-4.24 6.57c-0.336 0.56-0.546 1.5-0.811 2.25-0.132 0.374-0.272 0.704-0.436 0.906-0.163 0.202-0.31 0.276-0.529 0.221-6e-3 0-0.0272 2e-4 -0.0312 0-0.0101 1e-4 -0.0248-4e-4 -0.0312 0-4e-3 -6e-4 -0.0294 1e-4 -0.0312 0-0.48-0.138-0.925-0.118-1.31 0.0293-0.482 0.186-0.865 0.522-1.15 0.971-0.288 0.45-0.439 0.959-0.375 1.44 0.0109 0.0818 0.0378 0.166 0.0625 0.25 0.066-0.236 0.173-0.469 0.312-0.688 0.287-0.448 0.67-0.785 1.15-0.971 0.384-0.148 0.829-0.167 1.31-0.0293 0.0019 1e-4 0.0272-6e-4 0.0312 0 0.0065-4e-4 0.0212 1e-4 0.0312 0 0.0041 2e-4 0.0252 0 0.0312 0 0.219 0.055 0.366-0.019 0.529-0.221 0.163-0.202 0.303-0.532 0.436-0.906 0.264-0.749 0.475-1.69 0.811-2.25l4.24-6.57c8e-3 -0.0117 0.0203-0.0222 0.0313-0.0312 0.01-1e-3 0.0212-1e-3 0.0312 0v-0.0293c0.01-1e-3 0.0213-1e-3 0.0313 0 0.01-1e-3 0.0212-1e-3 0.0312 0 0.01-1e-3 0.0213-1e-3 0.0313 0 0.022 0.0054 0.0425 0.0164 0.0605 0.0312 0.011 0.0087 0.0213 0.0196 0.0313 0.0312 0 0 0.271 0.328 0.5 0.783 0.0704 0.14 0.13 0.293 0.18 0.451 0.2-0.478 0.0374-1.02-0.18-1.45-0.229-0.456-0.5-0.781-0.5-0.781-0.01-0.0116-0.0203-0.0226-0.0313-0.0312-0.018-0.0148-0.0385-0.0258-0.0605-0.0312-0.01-1e-3 -0.0213-1e-3 -0.0313 0-0.01-1e-3 -0.0212-1e-3 -0.0312 0-0.01-1e-3 -0.0213-1e-3 -0.0313 0zm-2.53 9.76c-0.11 0.079-0.204 0.154-0.342 0.188-0.249 0.068-0.421 0.121-0.529 0.188 0.131 0.329 0.154 0.652 0.154 0.945 0.104-0.0433 0.198-0.0846 0.375-0.133 0.138-0.0333 0.232-0.108 0.342-0.188h0.00195c0.0079 0.01 0.0232 0.0213 0.0312 0.0313 0.163 0.202 0.31 0.274 0.529 0.219 6e-3 -9e-4 0.0313 3e-4 0.0313 0 0.01 2e-4 0.0212-4e-4 0.0312 0 4e-3 -6e-4 0.0293 1e-4 0.0293 0 0.48-0.138 0.927-0.116 1.31 0.0313 0.482 0.186 0.865 0.52 1.15 0.969 0.14 0.218 0.244 0.451 0.311 0.688 0.0246-0.0832 0.0516-0.166 0.0625-0.248 0.064-0.478-0.0852-0.99-0.373-1.44-0.287-0.448-0.67-0.783-1.15-0.969-0.384-0.148-0.831-0.169-1.31-0.0313 0 1e-4 -0.0253-6e-4 -0.0293 0-0.01-4e-4 -0.0212 2e-4 -0.0312 0 0 3e-4 -0.0253-9e-4 -0.0313 0-0.219 0.055-0.366-0.0168-0.529-0.219-8e-3 -0.01-0.0234-0.0213-0.0312-0.0313h-0.00195zm-3.79 2.5c-0.273 0.421-0.793 0.626-1.13 0.441-0.0585-0.0324-0.0992-0.0898-0.143-0.143-0.00407 0.0064-0.00971 0.011-0.0137 0.0176-0.134 0.222-0.187 0.419-0.156 0.625 0.0312 0.206 0.141 0.405 0.312 0.5 0.344 0.19 0.885-0.0267 1.15-0.469 0.135-0.223 0.187-0.428 0.156-0.625-0.0211-0.135-0.0898-0.251-0.18-0.348zm4.6 0.0019c-0.0897 0.0964-0.158 0.211-0.18 0.346-0.0308 0.197 0.0197 0.402 0.154 0.625 0.267 0.442 0.811 0.658 1.15 0.469 0.171-0.0946 0.28-0.294 0.311-0.5 0.0311-0.206-0.0224-0.403-0.156-0.625-0.0037-0.0062-0.0098-0.0096-0.0136-0.0157-0.0433 0.0526-0.0825 0.108-0.141 0.141-0.335 0.185-0.855-0.0201-1.13-0.44z" fill="#fff" opacity=".6"/>
</svg>
