<?xml version="1.0" encoding="UTF-8"?>
<svg width="16" height="16" version="1.1" xmlns="http://www.w3.org/2000/svg">
 <defs>
  <linearGradient id="gr0" x1="8" x2="8" y1="3" y2="14" gradientUnits="userSpaceOnUse">
   <stop stop-color="#ebebeb" offset="0"/>
   <stop stop-color="#aaa" offset="1"/>
  </linearGradient>
 </defs>
 <path d="m2 2a1 1 0 0 0-1 1v2a1 1 0 0 0 1 1 1 1 0 0 0-1 1v2a1 1 0 0 0 1 1 1 1 0 0 0-1 1v2a1 1 0 0 0 1 1h6a1 1 0 0 0 1 1h3a1 1 0 0 0 1-1v-1a1 1 0 0 0-1-1 1 1 0 0 0 1-1v-1h1a1 1 0 0 0 1-1v-2a1 1 0 0 0-1-1 1 1 0 0 0 1-1v-2a1 1 0 0 0-1-1h-12zm0 1h12v2h-12v-2zm0 4h12v2h-12v-2zm7 3h3v1h-1v2h1v1h-3v-1h1v-2h-1v-1zm-7 1h6v2h-6v-2z" opacity=".25"/>
 <path d="m2 3v2h12v-2h-12zm0 4v2h12v-2h-12zm7 3v1h1v2h-1v1h3v-1h-1v-2h1v-1h-3zm-7 1v2h6v-2h-6z" fill="url(#gr0)"/>
 <path d="m2 5v1h12v-1h-12zm0 4v1h12v-1h-12zm7 2v1h1v-1h-1zm2 0v1h1v-1h-1zm-9 2v1h6v-1h-6zm7 1v1h3v-1h-3z" opacity=".45"/>
 <path d="m2 3v1h12v-1h-12zm0 4v1h12v-1h-12zm7 3v1h3v-1h-3zm-7 1v1h6v-1h-6zm7 2v1h1v-1h-1zm2 0v1h1v-1h-1z" fill="#fff" opacity=".6"/>
</svg>
