<?xml version="1.0" encoding="UTF-8"?>
<svg width="16" height="16" version="1.1" xmlns="http://www.w3.org/2000/svg">
 <defs>
  <linearGradient id="gr0" x1="8" x2="8" y1="1" y2="15" gradientUnits="userSpaceOnUse">
   <stop stop-color="#ebebeb" offset="0"/>
   <stop stop-color="#aaa" offset="1"/>
  </linearGradient>
 </defs>
 <path d="m9.98 0a1 1 0 0 0-0.691 0.293l-5 5a1 1 0 0 0-0.293 0.707h-1.5c-1.37 0-2.5 1.13-2.5 2.5v5c0 1.37 1.13 2.5 2.5 2.5h11c1.37 0 2.5-1.13 2.5-2.5v-5c0-0.606-0.286-1.13-0.652-1.56a1 1 0 0 0 0.359-1.64l-5-5a1 1 0 0 0-0.723-0.293zm0.0156 1 5 5h-3v5h-4v-5h-3l5-5zm-7.5 6h4.5v2h-3.5c-0.277 0-0.5 0.223-0.5 0.5v3c0 0.277 0.223 0.5 0.5 0.5h9c0.277 0 0.5-0.223 0.5-0.5v-5.5h0.5c0.831 0 1.5 0.669 1.5 1.5v5c0 0.831-0.669 1.5-1.5 1.5h-11c-0.831 0-1.5-0.669-1.5-1.5v-5c0-0.831 0.669-1.5 1.5-1.5zm1.5 3h3v1a1 1 0 0 0 1 1h-4v-2z" opacity=".25"/>
 <path d="m10 1-5 5h3v5h4v-5h3zm-7.5 6c-.831 0-1.5.669-1.5 1.5v5c0 .831.669 1.5 1.5 1.5h11c.831 0 1.5-.669 1.5-1.5v-5c0-.831-.669-1.5-1.5-1.5h-.5v2.5 1.5 1.5c0 .277-.223.5-.5.5h-9c-.277 0-.5-.223-.5-.5v-3c0-.277.223-.5.5-.5h3.5v-2z" fill="url(#gr0)"/>
 <path d="m6 6-1 1h3v-1h-2zm6 0v1h3l-1-1h-2zm-8.5 3c-0.277 0-0.5 0.223-0.5 0.5v1c0-0.277 0.223-0.5 0.5-0.5h3.5v-1h-3.5zm4.5 2v1h4v-1h-4zm-7 2.5v1c0 0.831 0.669 1.5 1.5 1.5h11c0.831 0 1.5-0.669 1.5-1.5v-1c0 0.831-0.669 1.5-1.5 1.5h-11c-0.831 0-1.5-0.669-1.5-1.5z" opacity=".45"/>
 <path d="m10 1-5 5h1l4-4 4 4h1l-5-5zm-7.5 6c-0.831 0-1.5 0.669-1.5 1.5v1c0-0.831 0.669-1.5 1.5-1.5h4.5v-1h-4.5zm10.5 0v1h0.5c0.831 0 1.5 0.669 1.5 1.5v-1c0-0.831-0.669-1.5-1.5-1.5h-0.5zm-10 5.5v1c0 0.277 0.223 0.5 0.5 0.5h9c0.277 0 0.5-0.223 0.5-0.5v-1c0 0.277-0.223 0.5-0.5 0.5h-9c-0.277 0-0.5-0.223-0.5-0.5z" fill="#fff" opacity=".6"/>
</svg>
