<?xml version="1.0" encoding="UTF-8"?>
<svg width="16" height="16" version="1.1" xmlns="http://www.w3.org/2000/svg">
 <defs>
  <linearGradient id="gr0" x1="8" x2="8" y1="1" y2="15" gradientUnits="userSpaceOnUse">
   <stop stop-color="#ebebeb" offset="0"/>
   <stop stop-color="#aaa" offset="1"/>
  </linearGradient>
 </defs>
 <path d="m3 0c-1.09-1.46e-16 -2 0.909-2 2v1a1 1 0 0 0 0.168 0.557c-0.661 0.453-1.17 1.09-1.17 1.94v4.5a1 1 0 0 0 0.135 0.5 1 1 0 0 0-0.135 0.5v2a1 1 0 0 0 1 1h1v1a1 1 0 0 0 1 1h2a1 1 0 0 0 1-1v-1h1a1 1 0 0 0 0.5-0.135 1 1 0 0 0 0.5 0.135h5.5c1.37 0 2.5-1.13 2.5-2.5v-6c0-0.852-0.508-1.49-1.17-1.94a1 1 0 0 0 0.17-0.557c0-1.09-0.909-2-2-2h-5.42c-0.357-0.561-0.877-1-1.58-1h-3zm0 1h3c0.554 0 1 0.446 1 1h6c0.554 0 1 0.446 1 1h-12v-1c0-0.554 0.446-1 1-1zm-0.5 3h11c0.831 0 1.5 0.669 1.5 1.5v6c0 0.831-0.669 1.5-1.5 1.5h-5.5v-3h-2v-2h-4v2h-1v-4.5c0-0.831 0.669-1.5 1.5-1.5zm0.5 5h2v2h2v2h-2v2h-2v-2h-2v-2h2v-2z" opacity=".25"/>
 <path d="m3 1c-0.554 0-1 0.446-1 1v1h12c0-0.554-0.446-1-1-1h-6c0-0.554-0.446-1-1-1h-3zm-0.5 3c-0.831 0-1.5 0.669-1.5 1.5v4.5h1v-2h4v2h2v3h5.5c0.831 0 1.5-0.669 1.5-1.5v-6c0-0.831-0.669-1.5-1.5-1.5h-11zm0.5 5v2h-2v2h2v2h2v-2h2v-2h-2v-2h-2z" fill="url(#gr0)"/>
 <path d="m2 3v1h12c0-0.554-0.446-1-1-1h-11zm0 5v1h4v-1h-4zm-1 2v1h1v-1h-1zm5 0v1h2v-1h-2zm9 1.5c0 0.831-0.669 1.5-1.5 1.5h-5.5v1h5.5c0.831 0 1.5-0.669 1.5-1.5v-1zm-14 1.5v1h2v-1h-2zm4 0v1h2v-1h-2zm-2 2v1h2v-1h-2z" opacity=".45"/>
 <path d="m3 1c-0.554 0-1 0.446-1 1v1c0-0.554 0.446-1 1-1h3c0.554 0 1 0.446 1 1h7c0-0.554-0.446-1-1-1h-6c0-0.554-0.446-1-1-1h-3zm-0.5 3c-0.831 0-1.5 0.669-1.5 1.5v1c0-0.831 0.669-1.5 1.5-1.5h11c0.831 0 1.5 0.669 1.5 1.5v-1c0-0.831-0.669-1.5-1.5-1.5h-11zm0.5 5v1h2v-1h-2zm-2 2v1h2v-1h-2zm4 0v1h2v-1h-2z" fill="#fff" opacity=".6"/>
</svg>
