<?xml version="1.0" encoding="UTF-8"?>
<svg width="16" height="16" version="1.1" xmlns="http://www.w3.org/2000/svg">
 <defs>
  <linearGradient id="gr0" x1="8" x2="8" y1="1" y2="15" gradientUnits="userSpaceOnUse">
   <stop stop-color="#ebebeb" offset="0"/>
   <stop stop-color="#aaa" offset="1"/>
  </linearGradient>
 </defs>
 <path d="m2 0c-1.09-1.46e-16 -2 0.909-2 2v13a1 1 0 0 0 1 1h14a1 1 0 0 0 1-1v-13c0-1.09-0.909-2-2-2h-12zm0 1h12c0.554 0 1 0.446 1 1v13h-14v-13c0-0.554 0.446-1 1-1zm6 1v1h1v-1h-1zm2 0v1h1v-1h-1zm2 0v1h1v-1h-1zm-9 2v9h10v-9h-10zm1 1h8v3.59c0-1.09-0.308-2.09-1.07-2.74v-0.00195c-0.755-0.649-1.77-0.85-2.96-0.85-0.45 0-0.901 0.0277-1.35 0.084-0.446 0.0522-0.889 0.131-1.33 0.234a1 1 0 0 0-0.771 0.973v1.39a1 1 0 0 0 0.225 0.633c-0.44 0.508-0.744 1.14-0.744 1.82 0 0.698 0.338 1.35 0.803 1.86h-0.803v-7zm3.97 1c1.07 0 1.84 0.203 2.31 0.611 0.477 0.405 0.715 1.07 0.715 1.98v3.41h-1.91v-0.994c-0.254 0.347-0.54 0.599-0.857 0.76-0.318 0.156-0.705 0.234-1.16 0.234-0.614 0-1.11-0.172-1.5-0.516-0.381-0.346-0.572-0.795-0.572-1.35 0-0.67 0.238-1.16 0.715-1.47 0.48-0.313 1.23-0.471 2.26-0.471h1.12v-0.143c0-0.289-0.119-0.5-0.355-0.633-0.236-0.136-0.604-0.203-1.11-0.203-0.406 0-0.783 0.039-1.13 0.117-0.35 0.0783-0.675 0.195-0.975 0.352v-1.39c0.406-0.0952 0.813-0.167 1.22-0.215 0.41-0.0511 0.819-0.0762 1.23-0.0762zm0.133 3.28c-0.395 0-0.693 0.0642-0.895 0.193-0.198 0.129-0.297 0.32-0.297 0.572 0 0.231 0.0794 0.412 0.238 0.545 0.162 0.129 0.386 0.193 0.672 0.193 0.356 0 0.657-0.122 0.9-0.367 0.244-0.248 0.365-0.557 0.365-0.928v-0.209h-0.984z" opacity=".25"/>
 <path d="m2 1c-.554 0-1 .4460-1 1v13h2 12v-13c0-.5540-.446-1-1-1h-12zm6 1h1v1h-1v-1zm2 0h1v1h-1v-1zm2 0h1v1h-1v-1zm-9 2h10v9h-10v-9zm4.9707 2c-.4095 0-.8190.0251-1.2285.0762-.4095.0476-.8167.1196-1.2227.2148v1.3926c.3001-.1564.6251-.2733.9746-.3516.3496-.0782.7269-.1172 1.1329-.1172.5013 0 .8689.0672 1.1054.2032.2366.1326.3555.3436.3555.6328v.1426h-1.1172c-1.0238 0-1.7757.1577-2.2559.4707-.4766.3129-.7148.8045-.7148 1.4749 0 .551.1910.999.5723 1.345.3848.344.8838.516 1.498.516.4555 0 .8425-.078 1.1602-.234.3177-.161.6030-.413.8574-.760v.994h1.9121v-3.4082c0-.9149-.238-1.5757-.715-1.9805-.4729-.4081-1.2446-.6113-2.3143-.6113zm.1328 3.2812h.9844v.2090c0 .3708-.1217.6798-.3652.9278-.2436.245-.5439.367-.9004.367-.2860 0-.5095-.064-.6719-.193-.1589-.133-.2383-.314-.2383-.545 0-.2518.0992-.4432.2969-.5724.2012-.1292.4991-.1934.8945-.1934z" fill="url(#gr0)"/>
 <path d="m8 2v1h1v-1h-1zm2 0v1h1v-1h-1zm2 0v1h1v-1h-1zm-9 2v1h10v-1h-10zm4.63 3.21c-0.406 0-0.783 0.039-1.13 0.117-0.35 0.0783-0.675 0.195-0.975 0.352v1c0.3-0.156 0.625-0.273 0.975-0.352 0.204-0.0457 0.421-0.0748 0.645-0.0938 0.256-0.0277 0.528-0.0449 0.832-0.0449h1.12v-0.143c0-0.289-0.119-0.5-0.355-0.633-0.236-0.136-0.604-0.203-1.11-0.203zm0.477 2.07c-0.395 0-0.693 0.0642-0.895 0.193-0.198 0.129-0.297 0.32-0.297 0.572 0 0.216 0.0754 0.385 0.215 0.516 0.0296-0.0279 0.0458-0.0642 0.082-0.0879 0.201-0.129 0.499-0.193 0.895-0.193h0.73c0.166-0.222 0.254-0.484 0.254-0.791v-0.209h-0.984zm-3.04 1.34c-0.0377 0.16-0.0606 0.331-0.0606 0.52 0 0.551 0.191 1 0.572 1.35 0.385 0.344 0.884 0.516 1.5 0.516 0.456 0 0.842-0.0784 1.16-0.234 0.318-0.161 0.603-0.413 0.857-0.76v0.994h1.91v-1h-1.91v-0.994c-0.0984 0.134-0.205 0.242-0.312 0.348-0.0183 0.0212-0.0328 0.0441-0.0527 0.0645-0.00674 0.0067-0.0147 0.011-0.0215 0.0175-0.0167 0.0151-0.0339 0.0286-0.0508 0.043-0.0739 0.0645-0.153 0.118-0.236 0.162-0.0616 0.04-0.119 0.0925-0.184 0.125-0.318 0.156-0.705 0.234-1.16 0.234-0.614 0-1.11-0.172-1.5-0.516-0.263-0.239-0.43-0.529-0.512-0.865zm-4.06 4.38v1h14v-1h-14z" opacity=".45"/>
 <path d="m2 1c-0.554 0-1 0.446-1 1v1c0-0.554 0.446-1 1-1h12c0.554 0 1 0.446 1 1v-1c0-0.554-0.446-1-1-1h-12zm6 2v1h1v-1h-1zm2 0v1h1v-1h-1zm2 0v1h1v-1h-1zm-4.03 3c-0.41 0-0.819 0.0251-1.23 0.0762-0.41 0.0476-0.817 0.12-1.22 0.215v1c0.406-0.0952 0.813-0.167 1.22-0.215 0.41-0.0511 0.819-0.0762 1.23-0.0762 1.07 0 1.84 0.203 2.31 0.611 0.477 0.405 0.715 1.07 0.715 1.98v-1c0-0.915-0.238-1.58-0.715-1.98-0.473-0.408-1.24-0.611-2.31-0.611zm-0.344 2.21c-0.169 0-0.33 0.00998-0.488 0.0234-0.606 0.0657-1.09 0.206-1.42 0.426-0.477 0.313-0.715 0.804-0.715 1.47 0 0.171 0.0238 0.329 0.0606 0.48 0.0963-0.409 0.312-0.73 0.654-0.955 0.48-0.313 1.23-0.471 2.26-0.471h1.12v-0.143c0-0.289-0.119-0.5-0.355-0.633-0.236-0.136-0.604-0.203-1.11-0.203zm1.21 2.07c-0.0349 0.0467-0.0691 0.0937-0.111 0.137-0.244 0.245-0.544 0.367-0.9 0.367-0.286 0-0.509-0.0644-0.672-0.193-0.01-0.0084-0.014-0.0205-0.0234-0.0293-0.132 0.124-0.215 0.279-0.215 0.484 0 0.231 0.0794 0.412 0.238 0.545 0.162 0.129 0.386 0.193 0.672 0.193 0.219 0 0.415-0.0519 0.592-0.145 0.0795-0.0516 0.161-0.0979 0.236-0.162 0.0168-0.0147 0.0344-0.0272 0.0508-0.043 0.026-0.0235 0.0487-0.0569 0.0742-0.082 0.205-0.237 0.312-0.523 0.312-0.863v-0.209h-0.254zm-5.83 2.72v1h10v-1h-10z" fill="#fff" opacity=".6"/>
</svg>
