<?xml version="1.0" encoding="UTF-8"?>
<svg width="16" height="16" version="1.1" xmlns="http://www.w3.org/2000/svg">
 <defs>
  <linearGradient id="gr0" x1="8" x2="8" y1="1" y2="15" gradientUnits="userSpaceOnUse">
   <stop stop-color="#ebebeb" offset="0"/>
   <stop stop-color="#aaa" offset="1"/>
  </linearGradient>
 </defs>
 <path d="m1 0a1 1 0 0 0-1 1v2a1 1 0 0 0 1 1 1 1 0 0 0-1 1v6a1 1 0 0 0 1 1 1 1 0 0 0-1 1v2a1 1 0 0 0 1 1h9a1 1 0 0 0 1-1v-2a1 1 0 0 0-1-1h3a1 1 0 0 0 1-1v-2a1 1 0 0 0-1-1h2a1 1 0 0 0 1-1v-2a1 1 0 0 0-1-1h-5a1 1 0 0 0 1-1v-2a1 1 0 0 0-1-1h-9zm0 1h9v2h-9v-2zm0.043 3h4.96a1 1 0 0 0-1 1v1.75l-3.4-2.55a1 1 0 0 0-0.557-0.199zm-0.043 1 4 3-4 3v-6zm5 0h9v2h-9v-2zm0 4h7v2h-7v-2zm-1 0.25v1.75a1 1 0 0 0 1 1h-4.97a1 1 0 0 0 0.57-0.199l3.4-2.55zm-4 3.75h9v2h-9v-2z" opacity=".25"/>
 <path d="m1 1v2h9v-2h-9zm0 4v6l4-3-4-3zm5 0v2h9v-2h-9zm0 4v2h7v-2h-7zm-5 4v2h9v-2h-9z" fill="url(#gr0)"/>
 <path d="m1 3v1h9v-1h-9zm5 4v1h9v-1h-9zm-1.67 1.5-3.33 2.5v1l4-3-0.666-0.5zm1.67 2.5v1h7v-1h-7zm-5 4v1h9v-1h-9z" opacity=".45"/>
 <path d="m1 1v1h9v-1h-9zm0 4v1l3.33 2.5 0.666-0.5-4-3zm5 0v1h9v-1h-9zm0 4v1h7v-1h-7zm-5 4v1h9v-1h-9z" fill="#fff" opacity=".6"/>
</svg>
