<?xml version="1.0" encoding="UTF-8"?>
<svg width="16" height="16" version="1.1" xmlns="http://www.w3.org/2000/svg">
 <defs>
  <linearGradient id="gr0" x1="8" x2="8" y1="3" y2="13" gradientUnits="userSpaceOnUse">
   <stop stop-color="#ebebeb" offset="0"/>
   <stop stop-color="#aaa" offset="1"/>
  </linearGradient>
 </defs>
 <path d="m8.96 2a1 1 0 0 0-0.209 0.0215c-0.519 0.0132-1.05 0.0576-1.59 0.168-0.612 0.119-1.24 0.299-1.9 0.533a1 1 0 0 0-0.645 0.746l-0.289 1.45a1 1 0 0 0 1.42 1.09c0.467-0.231 0.929-0.4 1.39-0.512 0.469-0.112 0.933-0.168 1.4-0.168 0.701 0 1.02 0.16 1.16 0.297a1 1 0 0 0 0.0117 0.0117c0.0193 0.019-0.00259 0.0881 0.0137 0.107h-1.16c-1.55 0-2.88 0.292-3.92 0.98a1 1 0 0 0-0.00391 0.00195c-1.04 0.688-1.73 1.78-1.98 3.06a1 1 0 0 0 0 0.00391c-0.22 1.12-0.0405 2.23 0.643 3.04a1 1 0 0 0 0.0039 0.0059c0.689 0.806 1.76 1.17 2.92 1.17 0.859 0 1.66-0.164 2.38-0.482a1 1 0 0 0 0.854 0.48h1.56a1 1 0 0 0 0.978-0.793l1.2-5.68a1 1 0 0 0 2e-3 -0.0117c0.318-1.6 0.232-3-0.555-4.05-0.786-1.04-2.12-1.47-3.67-1.47zm0 1c1.38 0 2.34 0.356 2.88 1.07 0.538 0.714 0.662 1.8 0.373 3.25l-1.2 5.68h-1.56l0.4-1.69c-0.471 0.578-1 1.01-1.59 1.28-0.59 0.272-1.27 0.408-2.04 0.408-0.975 0-1.7-0.272-2.16-0.816-0.465-0.55-0.607-1.28-0.426-2.2 0.215-1.07 0.735-1.88 1.56-2.42 0.828-0.544 1.95-0.816 3.38-0.816h2.2l0.0332-0.154c0.142-0.72 0.0142-1.27-0.383-1.67-0.391-0.397-1.02-0.596-1.87-0.596-0.544 0-1.09 0.0649-1.63 0.195-0.539 0.13-1.07 0.327-1.6 0.588l0.289-1.45c0.618-0.221 1.2-0.386 1.76-0.494 0.561-0.113 1.1-0.17 1.61-0.17zm0 4.97c-1.26 0-2.17 0.144-2.72 0.434-0.544 0.289-0.885 0.781-1.02 1.48-0.113 0.555-0.0192 0.997 0.281 1.33 0.3 0.323 0.765 0.486 1.39 0.486 0.867 0 1.62-0.308 2.27-0.92 0.646-0.618 1.07-1.44 1.28-2.46l0.0762-0.348h-1.56zm0 1h0.0664c-0.174 0.369-0.281 0.82-0.553 1.08-0.484 0.458-0.95 0.644-1.58 0.644-0.453 0-0.591-0.097-0.656-0.166-0.0682-0.0743-0.111-0.103-0.041-0.445a1 1 0 0 0 0.00195-0.0098c0.0925-0.474 0.227-0.636 0.508-0.785 0.271-0.142 1.07-0.318 2.25-0.318z" opacity=".25"/>
 <path d="m8.96 3c-0.51 0-1.05 0.0565-1.61 0.17-0.556 0.108-1.14 0.273-1.76 0.494l-0.289 1.45c0.527-0.261 1.06-0.457 1.6-0.588 0.544-0.13 1.09-0.195 1.63-0.195 0.856 0 1.48 0.199 1.87 0.596 0.397 0.391 0.525 0.946 0.383 1.67l-0.0332 0.154h-2.2c-1.42 0-2.55 0.272-3.38 0.816-0.822 0.544-1.34 1.35-1.56 2.42-0.182 0.919-0.039 1.65 0.426 2.2 0.465 0.544 1.18 0.816 2.16 0.816 0.771 0 1.45-0.136 2.04-0.408 0.59-0.278 1.12-0.705 1.59-1.28l-0.4 1.69h1.56l1.2-5.68c0.289-1.45 0.165-2.54-0.373-3.25-0.539-0.715-1.5-1.07-2.88-1.07zm0 4.97h1.56l-0.0762 0.348c-0.204 1.02-0.631 1.84-1.28 2.46-0.646 0.612-1.4 0.92-2.27 0.92-0.63 0-1.09-0.163-1.4-0.486-0.3-0.329-0.395-0.771-0.281-1.33 0.136-0.697 0.477-1.19 1.02-1.48 0.55-0.289 1.46-0.434 2.72-0.434z" fill="url(#gr0)"/>
 <path d="m8.54 4.33c-0.544 0-1.09 0.0649-1.63 0.195-0.465 0.112-0.923 0.284-1.38 0.494l-0.219 1.09c0.527-0.261 1.06-0.458 1.6-0.588 0.544-0.13 1.09-0.195 1.63-0.195 0.856 0 1.48 0.199 1.87 0.596 0.19 0.187 0.314 0.413 0.381 0.674l2e-3 -0.00781c0.142-0.72 0.0142-1.27-0.383-1.67-0.391-0.397-1.02-0.596-1.87-0.596zm3.8 2.09c-0.0234 0.287-0.0586 0.585-0.123 0.908l-1.2 5.68h-1.33l-0.236 1h1.56l1.2-5.68c0.145-0.729 0.186-1.36 0.123-1.91zm-3.37 1.55c-1.26 0-2.17 0.144-2.72 0.434-0.544 0.289-0.885 0.781-1.02 1.48-0.0694 0.339-0.0524 0.632 0.0332 0.887 0.151-0.634 0.476-1.09 0.988-1.37 0.55-0.289 1.46-0.434 2.72-0.434h1.3c0.0683-0.209 0.13-0.423 0.176-0.652l0.0762-0.348h-1.56zm-5.36 3.26c-0.11 0.802 0.0317 1.46 0.453 1.96 0.465 0.544 1.18 0.816 2.16 0.816 0.771 0 1.45-0.136 2.04-0.408 0.459-0.216 0.881-0.528 1.27-0.926l0.322-1.36c-0.471 0.578-1 1.01-1.59 1.28-0.59 0.272-1.27 0.408-2.04 0.408-0.975 0-1.7-0.272-2.16-0.816-0.231-0.274-0.382-0.594-0.453-0.959z" opacity=".45"/>
 <path d="m8.96 3c-0.51 0-1.05 0.0565-1.61 0.17-0.556 0.108-1.14 0.273-1.76 0.494l-0.289 1.45c0.0724-0.0358 0.146-0.0604 0.219-0.0938l0.0703-0.352c0.618-0.221 1.2-0.386 1.76-0.494 0.561-0.113 1.1-0.17 1.61-0.17 1.38 0 2.34 0.356 2.88 1.07 0.268 0.356 0.434 0.803 0.496 1.34 0.0818-1-0.0775-1.79-0.496-2.34-0.539-0.715-1.5-1.07-2.88-1.07zm1.83 3.6-0.0312 0.146h-2.2c-1.42 0-2.55 0.272-3.38 0.816-0.822 0.544-1.34 1.35-1.56 2.42-0.0911 0.461-0.0993 0.876-0.0274 1.24 0.0113-0.0825 0.0104-0.158 0.0274-0.244 0.215-1.07 0.735-1.88 1.56-2.42 0.828-0.544 1.95-0.816 3.38-0.816h2.2l0.0332-0.154c0.0742-0.376 0.0712-0.706-2e-3 -0.992zm-0.522 2.37c-0.236 0.721-0.6 1.33-1.1 1.8-0.646 0.612-1.4 0.92-2.27 0.92-0.63 0-1.09-0.163-1.39-0.486-0.117-0.128-0.194-0.278-0.248-0.44-0.00936 0.0394-0.0252 0.0725-0.0332 0.113-0.113 0.555-0.0192 0.997 0.281 1.33 0.3 0.323 0.765 0.486 1.39 0.486 0.867 0 1.62-0.308 2.27-0.92 0.646-0.618 1.07-1.44 1.28-2.46l0.0762-0.348h-0.252zm-0.42 3.34c-0.104 0.128-0.212 0.244-0.322 0.357l-0.0781 0.332h0.236l0.164-0.689z" fill="#fff" opacity=".6"/>
</svg>
