<?xml version="1.0" encoding="UTF-8"?>
<svg width="16" height="16" version="1.1" xmlns="http://www.w3.org/2000/svg">
 <defs>
  <linearGradient id="gr0" x1="8" x2="8" y1="3" y2="13" gradientUnits="userSpaceOnUse">
   <stop stop-color="#ebebeb" offset="0"/>
   <stop stop-color="#aaa" offset="1"/>
  </linearGradient>
 </defs>
 <path d="m7.91 2c-0.563 0-1.15 0.0482-1.76 0.176-0.611 0.122-1.21 0.312-1.82 0.547a1 1 0 0 0-0.641 0.934v1.44a1 1 0 0 0 1.48 0.877c0.392-0.214 0.777-0.355 1.23-0.471 0.461-0.116 0.914-0.188 1.35-0.188 0.703 0 1.12 0.159 1.36 0.357a1 1 0 0 0 0.00976 0.00977c0.0179 0.0147 0.0108 0.055 0.0274 0.0703h-0.893c-1.55 0-2.83 0.286-3.79 1.02a1 1 0 0 0-0.00195 0.00196c-0.401 0.306-0.585 0.793-0.832 1.23h-0.625a1 1 0 0 0-1 1v1a1 1 0 0 0 1 1h0.16c0.174 0.724 0.463 1.4 0.99 1.91a1 1 0 0 0 0.00781 0.0078c0.777 0.731 1.84 1.08 3 1.08 0.887 0 1.71-0.151 2.42-0.516a1 1 0 0 0 0.00781-0.0039c0.00122-7e-4 0.00269-0.0013 0.00391-2e-3a1 1 0 0 0 0.877 0.522h1.56a1 1 0 0 0 1-1v-2a1 1 0 0 0 0.969-0.998v-1a1 1 0 0 0-0.969-1v-0.688c0-1.61-0.397-2.98-1.31-3.94-0.918-0.964-2.27-1.37-3.82-1.37zm0 1c1.38 0 2.41 0.348 3.09 1.06s1.03 1.8 1.03 3.25v1.69h0.969v1h-0.969v3h-1.56v-1.69c-0.357 0.579-0.811 1-1.34 1.28-0.533 0.272-1.2 0.406-1.97 0.406-0.975 0-1.73-0.268-2.31-0.812-0.566-0.544-0.868-1.28-0.875-2.19h-0.969v-1h1.09c0.165-0.594 0.492-1.07 0.969-1.44 0.72-0.544 1.76-0.812 3.19-0.812h2.22v-0.156c0-0.72-0.243-1.3-0.719-1.69-0.47-0.397-1.14-0.594-2-0.594-0.544 0-1.08 0.0884-1.59 0.219-0.516 0.13-0.993 0.302-1.47 0.562v-1.44c0.573-0.221 1.12-0.392 1.66-0.5 0.538-0.113 1.05-0.156 1.56-0.156zm1 4.97c-1.26 0-2.14 0.148-2.62 0.438-0.244 0.145-0.436 0.35-0.562 0.594h4.69c0.032-0.222 0.0626-0.443 0.0626-0.688v-0.344h-1.56zm-3.38 2.03c0.0281 0.499 0.227 0.915 0.562 1.22 0.368 0.323 0.871 0.469 1.5 0.469 0.867 0 1.54-0.294 2.06-0.906 0.195-0.228 0.342-0.496 0.469-0.781h-4.59z" opacity=".25"/>
 <path d="m7.91 3c-0.51 0-1.02 0.0429-1.56 0.156-0.539 0.108-1.08 0.279-1.66 0.5v1.44c0.476-0.261 0.953-0.432 1.47-0.563 0.516-0.13 1.05-0.219 1.59-0.219 0.856 0 1.53 0.197 2 0.594 0.476 0.391 0.719 0.968 0.719 1.69v0.156h-2.22c-1.42 0-2.47 0.268-3.19 0.812-0.477 0.364-0.804 0.844-0.969 1.44h-1.09v1h0.969c7e-3 0.904 0.309 1.64 0.875 2.19 0.578 0.544 1.34 0.812 2.31 0.812 0.771 0 1.44-0.134 1.97-0.406 0.533-0.278 0.987-0.703 1.34-1.28v1.69h1.56v-3h0.969v-1h-0.969v-1.69c0-1.45-0.351-2.54-1.03-3.25s-1.72-1.06-3.09-1.06zm1 4.97h1.56v0.344c0 0.244-0.031 0.466-0.063 0.688h-4.69c0.126-0.244 0.319-0.449 0.562-0.594 0.488-0.289 1.36-0.437 2.62-0.437zm-3.38 2.03h4.59c-0.126 0.285-0.274 0.553-0.469 0.781-0.522 0.612-1.2 0.907-2.06 0.907-0.629 0-1.13-0.146-1.5-0.469-0.335-0.304-0.534-0.72-0.563-1.22z" fill="url(#gr0)"/>
 <path d="m7.75 4.31c-0.544 0-1.08 0.0884-1.59 0.219-0.516 0.13-0.993 0.302-1.47 0.562v1c0.476-0.261 0.953-0.432 1.47-0.562 0.516-0.13 1.05-0.219 1.59-0.219 0.856 0 1.53 0.197 2 0.594 0.27 0.222 0.456 0.51 0.574 0.844h0.145v-0.156c0-0.72-0.243-1.3-0.719-1.69-0.47-0.397-1.14-0.594-2-0.594zm1.16 3.66c-1.26 0-2.14 0.148-2.62 0.438-0.244 0.145-0.436 0.35-0.562 0.594h2.28c0.278-0.0202 0.579-0.0312 0.91-0.0312h1.5c0.0304-0.212 0.0606-0.423 0.0606-0.656v-0.344h-1.56zm-5.91 2.03v1h0.969c7e-3 0.904 0.309 1.64 0.875 2.19 0.578 0.544 1.34 0.812 2.31 0.812 0.771 0 1.44-0.134 1.97-0.406 0.533-0.278 0.987-0.702 1.34-1.28v-1c-0.357 0.579-0.811 1-1.34 1.28-0.533 0.272-1.2 0.406-1.97 0.406-0.975 0-1.73-0.268-2.31-0.812-0.566-0.544-0.868-1.28-0.875-2.19h-0.969zm2.53 0c0.0219 0.389 0.152 0.726 0.365 1h3.53c0.0768-0.0717 0.157-0.135 0.229-0.219 0.195-0.228 0.342-0.496 0.469-0.781h-4.59zm6.5 0v1h0.969v-1h-0.969zm-1.56 3v1h1.56v-1h-1.56z" opacity=".45"/>
 <path d="m7.91 3c-0.51 0-1.02 0.043-1.56 0.156-0.539 0.108-1.08 0.279-1.66 0.5v1c0.573-0.221 1.12-0.392 1.66-0.5 0.538-0.113 1.05-0.156 1.56-0.156 1.38 0 2.41 0.348 3.09 1.06s1.03 1.8 1.03 3.25v-1c0-1.45-0.351-2.54-1.03-3.25s-1.72-1.06-3.09-1.06zm0.344 3.75c-1.42 0-2.47 0.268-3.19 0.812-0.477 0.364-0.804 0.844-0.969 1.44h-1.09v1h1.09c0.165-0.594 0.492-1.07 0.969-1.44 0.72-0.544 1.76-0.812 3.19-0.812h2.22v-0.156c0-0.311-0.0545-0.589-0.145-0.844h-2.07zm2.16 2.22c-0.0014 0.0101-5e-4 0.0212-2e-3 0.0312h-2.41c-0.782 0.057-1.36 0.193-1.71 0.406-0.244 0.145-0.436 0.35-0.562 0.594h4.69c0.032-0.222 0.0626-0.443 0.0626-0.688v-0.344h-0.0606zm1.62 0.0312v1h0.969v-1h-0.969zm-6.5 2c0.0281 0.499 0.227 0.915 0.562 1.22 0.368 0.323 0.871 0.469 1.5 0.469 0.867 0 1.54-0.294 2.06-0.906 0.195-0.228 0.342-0.496 0.469-0.781h-0.697c-0.487 0.454-1.08 0.688-1.83 0.688-0.629 0-1.13-0.146-1.5-0.469-0.0737-0.0669-0.137-0.141-0.197-0.219h-0.365z" fill="#fff" opacity=".6"/>
</svg>
