<?xml version="1.0" encoding="UTF-8"?>
<svg width="16" height="16" version="1.1" xmlns="http://www.w3.org/2000/svg">
 <defs>
  <linearGradient id="gr0" x1="8" x2="8" y1="2" y2="14" gradientUnits="userSpaceOnUse">
   <stop stop-color="#ebebeb" offset="0"/>
   <stop stop-color="#aaa" offset="1"/>
  </linearGradient>
 </defs>
 <path d="m6 1a1 1 0 0 0-1 1v3h-2a1 1 0 0 0-0.848 1.53l5 8a1 1 0 0 0 1.7 0l5-8a1 1 0 0 0-0.848-1.53h-2v-3a1 1 0 0 0-1-1h-4zm0 1h4v4h3l-5 8-5-8h3v-4z" opacity=".25"/>
 <path d="m6 2v4h-3l5 8 5-8h-3v-4z" fill="url(#gr0)"/>
 <path d="m3 7 5 8 5-8h-0.625l-4.38 7-4.38-7h-0.625z" opacity=".45"/>
 <path d="m6 2v1h4v-1h-4zm-3 4 0.625 1h2.38v-1h-3zm7 0v1h2.38l0.625-1h-3z" fill="#fff" opacity=".6"/>
</svg>
