<?xml version="1.0" encoding="UTF-8"?>
<svg width="16" height="16" version="1.1" xmlns="http://www.w3.org/2000/svg">
 <defs>
  <linearGradient id="gr0" x1="8" x2="8" y1="1" y2="15" gradientUnits="userSpaceOnUse">
   <stop stop-color="#ebebeb" offset="0"/>
   <stop stop-color="#aaa" offset="1"/>
  </linearGradient>
 </defs>
 <path d="m3.5 0c-0.916 1.68e-16 -1.83 0.377-2.47 1.03-0.648 0.648-1.03 1.56-1.03 2.47 1.12e-16 0.916 0.377 1.83 1.03 2.47 0.648 0.648 1.56 1.03 2.47 1.03s1.83-0.377 2.47-1.03c0.295-0.295 0.515-0.656 0.688-1.04a1 1 0 0 0 0.338 0.0606h2a1 1 0 0 0-0.707 1.71l2.29 2.29h-1.59a1 1 0 0 0-1 1v5a1 1 0 0 0 1 1h6a1 1 0 0 0 1-1v-5a1 1 0 0 0-1-1h-1.59l2.29-2.29a1 1 0 0 0-0.707-1.71h-1v-3a1 1 0 0 0-1-1h-6a1 1 0 0 0-0.787 0.385c-0.0884-0.114-0.136-0.257-0.238-0.359-0.648-0.648-1.56-1.03-2.47-1.03zm0 1a2.5 2.5 0 0 1 2.5 2.5 2.5 2.5 0 0 1-2.5 2.5 2.5 2.5 0 0 1-2.5-2.5 2.5 2.5 0 0 1 2.5-2.5zm3.5 1h6v4h2l-3 3-3-3h2v-2h-4v-2zm2 8h6v5h-6v-5z" opacity=".25"/>
 <path d="m3.5 1a2.5 2.5 0 0 0-2.5 2.5 2.5 2.5 0 0 0 2.5 2.5 2.5 2.5 0 0 0 2.5-2.5 2.5 2.5 0 0 0-2.5-2.5zm3.5 1v2h4v2h-2l3 3 3-3h-2v-4h-6zm2 8v5h6v-5h-6z" fill="url(#gr0)"/>
 <path d="m5.95 4a2.5 2.5 0 0 1-2.45 2 2.5 2.5 0 0 1-2.45-2 2.5 2.5 0 0 0-0.0527 0.496 2.5 2.5 0 0 0 2.5 2.5 2.5 2.5 0 0 0 2.5-2.5 2.5 2.5 0 0 0-0.0527-0.504zm1.05 0.00391v1h4v-1h-4zm2 3 3 3 3-3h-1l-2 2-2-2h-1zm0 8v1h6v-1h-6z" opacity=".45"/>
 <path d="m3.5 1a2.5 2.5 0 0 0-2.5 2.5 2.5 2.5 0 0 0 0.0527 0.504 2.5 2.5 0 0 1 2.45-2 2.5 2.5 0 0 1 2.45 2 2.5 2.5 0 0 0 0.0527-0.496 2.5 2.5 0 0 0-2.5-2.5zm3.5 1v1h6v-1h-6zm2 4 1 1h1v-1h-2zm4 0v1h1l1-1h-2zm-4 4v1h6v-1h-6z" fill="#fff" opacity=".6"/>
</svg>
