<?xml version="1.0" encoding="UTF-8"?>
<svg width="16" height="16" version="1.1" xmlns="http://www.w3.org/2000/svg">
 <defs>
  <linearGradient id="gr0" x1="8" x2="8" y1="4" y2="15" gradientUnits="userSpaceOnUse">
   <stop stop-color="#ebebeb" offset="0"/>
   <stop stop-color="#aaa" offset="1"/>
  </linearGradient>
 </defs>
 <path d="m2.5 3c-1.37 0-2.5 1.13-2.5 2.5v3c0 1.37 1.13 2.5 2.5 2.5h2.5a1 1 0 0 0 0.938-0.656c0.436 0.37 0.961 0.656 1.57 0.656h-2.51a1 1 0 0 0-0.707 1.71l3 3a1 1 0 0 0 1.41 0l3-3a1 1 0 0 0-0.707-1.71h2.5c1.37 0 2.5-1.13 2.5-2.5v-3c0-1.37-1.13-2.5-2.5-2.5h-1.5a1 1 0 0 0-0.936 0.652c-0.436-0.367-0.958-0.652-1.56-0.652h-7zm0 1h7c0.831 0 1.5 0.669 1.5 1.5v1.5h-2v-0.5c0-0.277-0.223-0.5-0.5-0.5h-5c-0.277 0-0.5 0.223-0.5 0.5v1c0 0.277 0.223 0.5 0.5 0.5h1.5v2h-2.5c-0.831 0-1.5-0.669-1.5-1.5v-3c0-0.831 0.669-1.5 1.5-1.5zm9.5 0h1.5c0.831 0 1.5 0.669 1.5 1.5v3c0 0.831-0.669 1.5-1.5 1.5h-5.99c-0.831 0-1.5-0.669-1.5-1.5v-1.5h2v0.5c0 0.277 0.223 0.5 0.5 0.5h3.99c0.277 0 0.5-0.223 0.5-0.5v-1c0-0.277-0.223-0.5-0.5-0.5h-0.5v-2zm-7 8h6l-3 3-3-3z" opacity=".25"/>
 <path d="m2.5 4c-0.831 0-1.5 0.669-1.5 1.5v3c0 0.831 0.669 1.5 1.5 1.5h2.5v-2h-1.5c-0.277 0-0.5-0.223-0.5-0.5v-1c0-0.277 0.223-0.5 0.5-0.5h5c0.277 0 0.5 0.223 0.5 0.5v0.5h2v-1.5c0-0.831-0.669-1.5-1.5-1.5h-7zm9.5 0v2h0.5c0.277 0 0.5 0.223 0.5 0.5v1c0 0.277-0.223 0.5-0.5 0.5h-3.99c-0.277 0-0.5-0.223-0.5-0.5v-0.5h-2v1.5c0 0.831 0.669 1.5 1.5 1.5h5.99c0.831 0 1.5-0.669 1.5-1.5v-3c0-0.831-0.669-1.5-1.5-1.5h-1.5zm-7 8 3 3 3-3h-6z" fill="url(#gr0)"/>
 <path d="m3.5 6c-0.277 0-0.5 0.223-0.5 0.5v1c0-0.277 0.223-0.5 0.5-0.5h5c0.277 0 0.5 0.223 0.5 0.5v0.5h2v-1h-2v-0.5c0-0.277-0.223-0.5-0.5-0.5h-5zm8.5 0v1h0.5c0.277 0 0.5 0.223 0.5 0.5v-1c0-0.277-0.223-0.5-0.5-0.5h-0.5zm-11 2.5v1c0 0.831 0.669 1.5 1.5 1.5h2.5v-1h-2.5c-0.831 0-1.5-0.669-1.5-1.5zm5.01 0v1c0 0.831 0.669 1.5 1.5 1.5h5.99c0.831 0 1.5-0.669 1.5-1.5v-1c0 0.831-0.669 1.5-1.5 1.5h-5.99c-0.831 0-1.5-0.669-1.5-1.5zm-1.01 4.5 3 3 3-3h-1l-2 2-2-2h-1z" opacity=".45"/>
 <path d="m2.5 4c-0.831 0-1.5 0.669-1.5 1.5v1c0-0.831 0.669-1.5 1.5-1.5h7c0.831 0 1.5 0.669 1.5 1.5v-1c0-0.831-0.669-1.5-1.5-1.5h-7zm9.5 0v1h1.5c0.831 0 1.5 0.669 1.5 1.5v-1c0-0.831-0.669-1.5-1.5-1.5h-1.5zm-5.99 3v1h2v0.5c0 0.277 0.223 0.5 0.5 0.5h3.99c0.277 0 0.5-0.223 0.5-0.5v-1c0 0.277-0.223 0.5-0.5 0.5h-3.99c-0.277 0-0.5-0.223-0.5-0.5v-0.5h-2zm-3.01 0.5v1c0 0.277 0.223 0.5 0.5 0.5h1.5v-1h-1.5c-0.277 0-0.5-0.223-0.5-0.5zm2 4.5 1 1h4l1-1h-6z" fill="#fff" opacity=".6"/>
</svg>
