<?xml version="1.0" encoding="UTF-8"?>
<svg width="16" height="16" version="1.1" xmlns="http://www.w3.org/2000/svg">
 <defs>
  <linearGradient id="gr0" x1="8" x2="8" y1="1" y2="15" gradientUnits="userSpaceOnUse">
   <stop stop-color="#ebebeb" offset="0"/>
   <stop stop-color="#aaa" offset="1"/>
  </linearGradient>
 </defs>
 <path d="m4.5 0c-1.37 0-2.5 1.13-2.5 2.5v7c0 1.18 0.909 2.05 2.02 2.3a1 1 0 0 0 0.271 0.906l3 3a1 1 0 0 0 1.41 0l3-3a1 1 0 0 0 0.272-0.906c1.11-0.251 2.02-1.12 2.02-2.3v-7c0-1.37-1.13-2.5-2.5-2.5h-7zm0 1h7c0.831 0 1.5 0.669 1.5 1.5v7c0 0.831-0.669 1.5-1.5 1.5h-7c-0.831 0-1.5-0.669-1.5-1.5v-7c0-0.831 0.669-1.5 1.5-1.5zm1 2c-0.277 0-0.5 0.223-0.5 0.5v5c0 0.277 0.223 0.5 0.5 0.5h5c0.277 0 0.5-0.223 0.5-0.5v-5c0-0.277-0.223-0.5-0.5-0.5h-5zm0.5 1h4v4h-4v-4zm-1 8h6l-3 3-3-3z" opacity=".25"/>
 <path d="m4.5 1c-0.831 0-1.5 0.669-1.5 1.5v7c0 0.831 0.669 1.5 1.5 1.5h7c0.831 0 1.5-0.669 1.5-1.5v-7c0-0.831-0.669-1.5-1.5-1.5h-7zm1 2h5c0.277 0 0.5 0.223 0.5 0.5v5c0 0.277-0.223 0.5-0.5 0.5h-5c-0.277 0-0.5-0.223-0.5-0.5v-5c0-0.277 0.223-0.5 0.5-0.5zm-0.5 9 3 3 3-3h-6z" fill="url(#gr0)"/>
 <path d="m5.5 3c-0.277 0-0.5 0.223-0.5 0.5v1c0-0.277 0.223-0.5 0.5-0.5h5c0.277 0 0.5 0.223 0.5 0.5v-1c0-0.277-0.223-0.5-0.5-0.5h-5zm-2.5 6.5v1c0 0.831 0.669 1.5 1.5 1.5h7c0.831 0 1.5-0.669 1.5-1.5v-1c0 0.831-0.669 1.5-1.5 1.5h-7c-0.831 0-1.5-0.669-1.5-1.5zm2 3.5 3 3 3-3h-1l-2 2-2-2h-1z" opacity=".45"/>
 <path d="m4.5 1c-0.831 0-1.5 0.669-1.5 1.5v1c0-0.831 0.669-1.5 1.5-1.5h7c0.831 0 1.5 0.669 1.5 1.5v-1c0-0.831-0.669-1.5-1.5-1.5h-7zm0.5 7.5v1c0 0.277 0.223 0.5 0.5 0.5h5c0.277 0 0.5-0.223 0.5-0.5v-1c0 0.277-0.223 0.5-0.5 0.5h-5c-0.277 0-0.5-0.223-0.5-0.5zm0 3.5 1 1h4l1-1h-6z" fill="#fff" opacity=".6"/>
</svg>
