<?xml version="1.0" encoding="UTF-8"?>
<svg width="16" height="16" version="1.1" xmlns="http://www.w3.org/2000/svg">
 <defs>
  <linearGradient id="gr0" x1="8" x2="8" y1="1" y2="15" gradientUnits="userSpaceOnUse">
   <stop stop-color="#ebebeb" offset="0"/>
   <stop stop-color="#aaa" offset="1"/>
  </linearGradient>
 </defs>
 <path d="m4 0a1 1 0 0 0-0.707 0.293l-3 3a1 1 0 0 0 0.707 1.71h1.59l-2.29 2.29a1 1 0 0 0 0.707 1.71h3a1 1 0 0 0 0.293 0.711l1.29 1.29h-1.58a1 1 0 0 0-0.707 0.293l-3 3a1 1 0 0 0 0.707 1.71h11a1 1 0 0 0 0.707-0.293l3-3a1 1 0 0 0-0.707-1.71h-4.58l1.29-1.29a1 1 0 0 0 0.293-0.711 1 1 0 0 0 0.707-0.293l3-3a1 1 0 0 0-0.707-1.71h-1.59l2.29-2.29a1 1 0 0 0-0.707-1.71h-11zm0 1h11l-3 3h-11l3-3zm0 4h11l-3 3h-2v-2h-4v2h-5l3-3zm3 2h2v2h2l-3 3-3-3h2v-2zm-3 5h2.59l0.707 0.707a1 1 0 0 0 0.121 0.102 1 1 0 0 0 0.0332 0.0254 1 1 0 0 0 0.00195 0 1 1 0 0 0 0.084 0.0508 1 1 0 0 0 0.00196 0 1 1 0 0 0 0.0273 0.0136 1 1 0 0 0 0.156 0.0606 1 1 0 0 0 0.297 0.041 1 1 0 0 0 0.0723-0.0039 1 1 0 0 0 0.0801-0.0117 1 1 0 0 0 0.0254-0.0039 1 1 0 0 0 0.0195-0.0039 1 1 0 0 0 0.0684-0.0176 1 1 0 0 0 0.00195 0 1 1 0 0 0 0.0781-0.0293 1 1 0 0 0 0.0293-0.0117 1 1 0 0 0 0.0117-0.0039 1 1 0 0 0 0.0156-0.0079 1 1 0 0 0 0.0625-0.0292 1 1 0 0 0 0.0117-0.0059 1 1 0 0 0 0.0215-0.0137 1 1 0 0 0 0.0606-0.041 1 1 0 0 0 0.00195 0 1 1 0 0 0 0.0566-0.043 1 1 0 0 0 0.0742-0.0664l0.707-0.707h5.59l-3 3h-11l3-3z" opacity=".25"/>
 <path d="m4 1-3 3h11l3-3h-11zm0 4-3 3h5v-2h4v2h2l3-3h-11zm3 2v2h-2l3 3 3-3h-2v-2h-2zm-3 5-3 3h11l3-3h-5.59l-0.707 0.707a1 1 0 0 1-0.691 0.293 1 1 0 0 1-0.723-0.293l-0.707-0.707h-2.59z" fill="url(#gr0)"/>
 <path d="m14 2-2 2h-10l-1 1h11l3-3h-1zm-8 4v1h4v-1h-4zm8 0-2 2h-2v1h2l3-3h-1zm-12 2-1 1h5v-1h-4zm3 2 3 3 3-3h-1l-2 2-2-2h-1zm9 3-2 2h-10l-1 1h11l3-3h-1z" opacity=".45"/>
 <path d="m4 1-3 3h1l2-2h10l1-1h-11zm0 4-3 3h1l2-2h10l1-1h-11zm3 2v1h2v-1h-2zm-2 2 1 1h0.998v-1h-2zm4 0v1h0.998l1-1h-2zm-5 3-3 3h1l2-2h2.59l0.707 0.707a1 1 0 0 0 0.723 0.293 1 1 0 0 0 0.691-0.293l0.707-0.707h4.59l1-1h-5.59l-0.707 0.707a1 1 0 0 1-0.691 0.293 1 1 0 0 1-0.0156 0 1 1 0 0 1-0.707-0.293l-0.707-0.707h-2.59z" fill="#fff" opacity=".6"/>
</svg>
