<?xml version="1.0" encoding="UTF-8"?>
<svg width="16" height="16" version="1.1" xmlns="http://www.w3.org/2000/svg">
 <defs>
  <linearGradient id="gr0" x1="8" x2="8" y1="1" y2="15" gradientUnits="userSpaceOnUse">
   <stop stop-color="#ebebeb" offset="0"/>
   <stop stop-color="#aaa" offset="1"/>
  </linearGradient>
 </defs>
 <path d="m4 0a1 1 0 0 0-0.707 0.293l-3 3a1 1 0 0 0 0.707 1.71h4.58l-1.29 1.29a1 1 0 0 0-0.293 0.711 1 1 0 0 0-0.707 0.293l-3 3a1 1 0 0 0 0.707 1.71h1.59l-2.29 2.29a1 1 0 0 0 0.707 1.71h11a1 1 0 0 0 0.707-0.293l3-3a1 1 0 0 0-0.707-1.71h-1.59l2.29-2.29a1 1 0 0 0-0.707-1.71h-3a1 1 0 0 0-0.293-0.711l-1.29-1.29h1.58a1 1 0 0 0 0.707-0.293l3-3a1 1 0 0 0-0.707-1.71h-11zm0 1h11l-3 3h-2.59l-0.707-0.707a1 1 0 0 0-0.121-0.102 1 1 0 0 0-0.0332-0.0254 1 1 0 0 1-0.00195 0 1 1 0 0 0-0.084-0.0508 1 1 0 0 1-0.00196 0 1 1 0 0 0-0.0273-0.0137 1 1 0 0 0-0.156-0.0605 1 1 0 0 0-0.0977-0.0234 1 1 0 0 0-0.0976-0.0137 1 1 0 0 0-0.102-0.00391 1 1 0 0 0-0.0703 0.00391 1 1 0 0 1-0.00195 0 1 1 0 0 0-0.0859 0.0117 1 1 0 0 0-0.0156 0.00391 1 1 0 0 0-0.0898 0.0215 1 1 0 0 1-0.00195 0 1 1 0 0 0-0.0898 0.0312 1 1 0 0 0-0.00586 0.0039 1 1 0 0 0-0.0488 0.0215 1 1 0 0 0-0.0664 0.0332 1 1 0 0 0-0.0742 0.0449 1 1 0 0 0-0.0488 0.0371 1 1 0 0 0-0.0254 0.0215 1 1 0 0 0-0.0664 0.0586l-0.707 0.707h-5.59l3-3zm4 3 3 3h-2v6h-2v-6h-2l3-3zm-4 4h2v3h-5l3-3zm6 0h5l-3 3h-2v-3zm-6 4h2v1a1 1 0 0 0 1 1h2a1 1 0 0 0 1-1v-1h5l-3 3h-11l3-3z" opacity=".25"/>
 <path d="m4 1-3 3h5.59l0.707-0.707a1 1 0 0 1 0.0664-0.0586 1 1 0 0 1 0.0254-0.0215 1 1 0 0 1 0.0488-0.0371 1 1 0 0 1 0.0742-0.0449 1 1 0 0 1 0.0664-0.0332 1 1 0 0 1 0.0488-0.0215 1 1 0 0 1 0.0059-0.0039 1 1 0 0 1 0.0899-0.0313 1 1 0 0 1 0.0019 0 1 1 0 0 1 0.0898-0.0215 1 1 0 0 1 0.0157-0.0039 1 1 0 0 1 0.0859-0.0117 1 1 0 0 1 2e-3 0 1 1 0 0 1 0.0703-0.0039 1 1 0 0 1 0.102 0.0039 1 1 0 0 1 0.0977 0.0137 1 1 0 0 1 0.0976 0.0234 1 1 0 0 1 0.156 0.0606 1 1 0 0 1 0.0273 0.0136 1 1 0 0 1 2e-3 0 1 1 0 0 1 0.084 0.0508 1 1 0 0 1 0.0019 0 1 1 0 0 1 0.0332 0.0254 1 1 0 0 1 0.121 0.102l0.707 0.707h2.59l3-3h-11zm4 3-3 3h2v6h2v-6h2l-3-3zm-4 4-3 3h5v-3h-2zm6 0v3h2l3-3h-5zm-6 4-3 3h11l3-3h-5v1a1 1 0 0 1-1 1h-2a1 1 0 0 1-1-1v-1h-2z" fill="url(#gr0)"/>
 <path d="m14 2-2 2h-2.59l-0.707-0.707a1 1 0 0 0-0.121-0.102 1 1 0 0 0-0.0332-0.0254 1 1 0 0 1-0.00195 0 1 1 0 0 0-0.084-0.0508 1 1 0 0 1-0.00196 0 1 1 0 0 0-0.0273-0.0137 1 1 0 0 0-0.156-0.0605 1 1 0 0 0-0.0977-0.0234 1 1 0 0 0-0.0976-0.0137 1 1 0 0 0-0.102-0.00391 1 1 0 0 0-0.0703 0.00391 1 1 0 0 1-0.00195 0 1 1 0 0 0-0.0859 0.0117 1 1 0 0 0-0.0156 0.00391 1 1 0 0 0-0.0898 0.0215 1 1 0 0 1-0.00195 0 1 1 0 0 0-0.0898 0.0312 1 1 0 0 0-0.00586 0.0039 1 1 0 0 0-0.0488 0.0215 1 1 0 0 0-0.0664 0.0332 1 1 0 0 0-0.0742 0.0449 1 1 0 0 0-0.0488 0.0371 1 1 0 0 0-0.0254 0.0215 1 1 0 0 0-0.0664 0.0586l-0.707 0.707h-4.59l-1 1h5.59l0.707-0.707a1 1 0 0 1 0.0664-0.0586 1 1 0 0 1 0.0254-0.0215 1 1 0 0 1 0.0488-0.0371 1 1 0 0 1 0.0742-0.0449 1 1 0 0 1 0.0664-0.0332 1 1 0 0 1 0.0488-0.0215 1 1 0 0 1 0.00586-0.0039 1 1 0 0 1 0.0898-0.0312 1 1 0 0 1 0.00195 0 1 1 0 0 1 0.0898-0.0215 1 1 0 0 1 0.0156-0.00391 1 1 0 0 1 0.0859-0.0117 1 1 0 0 1 0.00195 0 1 1 0 0 1 0.0703-0.00391 1 1 0 0 1 0.0156 0 1 1 0 0 1 0.0859 0.00391 1 1 0 0 1 0.0976 0.0137 1 1 0 0 1 0.0977 0.0234 1 1 0 0 1 0.156 0.0605 1 1 0 0 1 0.0273 0.0137 1 1 0 0 1 0.00196 0 1 1 0 0 1 0.084 0.0508 1 1 0 0 1 0.00195 0 1 1 0 0 1 0.0332 0.0254 1 1 0 0 1 0.121 0.102l0.707 0.707h2.59l3-3h-1zm-8 5-1 1h2v-1h-0.998zm3 0v1h2l-1-1h-0.998zm5 2-2 2h-2v1h2l3-3h-1zm-12 2-1 1h5v-1h-4zm5 2v1h2v-1h-2zm7 0-2 2h-10l-1 1h11l3-3h-1z" opacity=".45"/>
 <path d="m4 1-3 3h1l2-2h10l1-1h-11zm4 3-3 3h1l2-2 2 2h1l-3-3zm-4 4-3 3h1l2-2h2v-1h-2zm6 0v1h4l1-1h-5zm-6 4-3 3h1l2-2h2v-1h-2zm2 1v1a1 1 0 0 0 1 1h2a1 1 0 0 0 1-1v-1a1 1 0 0 1-1 1h-2a1 1 0 0 1-1-1zm4 0h4l1-1h-5v1z" fill="#fff" opacity=".6"/>
</svg>
