<?xml version="1.0" encoding="UTF-8"?>
<svg width="16" height="16" version="1.1" xmlns="http://www.w3.org/2000/svg">
 <defs>
  <linearGradient id="gr0" x1="8" x2="8" y1="1" y2="14" gradientUnits="userSpaceOnUse">
   <stop stop-color="#ebebeb" offset="0"/>
   <stop stop-color="#aaa" offset="1"/>
  </linearGradient>
 </defs>
 <path d="m2 0a1 1 0 0 0-1 1v1a1 1 0 0 0 1 1v4a1 1 0 0 0-1 1v1a1 1 0 0 0 1 1h2a1 1 0 0 0-0.707 0.293l-3 3a1 1 0 0 0 0.707 1.71h11a1 1 0 0 0 0.707-0.293l3-3a1 1 0 0 0-0.707-1.71h-10a1 1 0 0 0 1-1v-0.609c0.357 0.278 0.698 0.609 1.19 0.609h2.81a1 1 0 0 0 0.5-0.135 1 1 0 0 0 0.5 0.135h2.74c0.835 0.0341 1.54-0.548 1.86-1.14 0.317-0.594 0.42-1.25 0.412-1.89-0.0085-0.647-0.129-1.29-0.457-1.87-0.328-0.583-1.04-1.15-1.88-1.09l0.043-0.00195h-0.719v-1a1 1 0 0 0-1-1h-1a1 1 0 0 0-1 1v0.58c-0.317-0.249-0.616-0.529-1.06-0.574a1 1 0 0 0-0.102-0.00586h-1.85a1 1 0 0 0-1 1l0.00391 1a1 1 0 0 0 0.166 0.547c-0.215 0.152-0.531 0.18-0.668 0.377-0.338 0.485-0.481 1.03-0.49 1.58-0.00301 0.171 0.119 0.33 0.145 0.502a1 1 0 0 0-0.152-0.0117v-4a1 1 0 0 0 1-1v-1a1 1 0 0 0-1-1h-3zm0 1h3v1h-1v6h1v1h-3v-1h1v-6h-1v-1zm9 1h1v2h1.72c0.011-1e-3 0.0192 9e-4 0.0312 0 1.64-0.125 1.71 4.07 0.0312 4h-2.78v-6zm-4 1h1.85c0.315 0.0321 0.635 0.216 0.846 0.469 0.211 0.253 0.312 0.598 0.312 0.969v3.56h-2.81c-1.62 0-1.52-2.93 0-3h1.81c0.022-0.0571 0.212-0.991-0.596-1h-1.4l-0.00391-1zm5 2c0 0.147-0.01 1.52 0 2h1.88c0.435 0.0178 0.368-2.04 0-2h-1.88zm-4.63 1c-0.402-0.0403-0.436 0.987-0.0606 1h1.69v-1h-1.63zm-3.37 5h11l-3 3h-11l3-3z" opacity=".25"/>
 <path d="m2 1v1h1v6h-1v1h3v-1h-1v-6h1v-1h-2zm9 1v6h2.78c1.68 0.0687 1.6-4.13-0.031-4-0.012 9e-4 -0.02-1e-3 -0.031 0h-1.72v-2zm-4 1 0.0039 1h1.4c0.808 9e-3 0.618 0.943 0.596 1h-1.81c-1.52 0.0706-1.62 3 0 3h2.81v-3.56c0-0.37-0.102-0.716-0.312-0.969-0.211-0.253-0.53-0.437-0.846-0.469h-1.84zm5 2h1.88c0.368-0.0382 0.435 2.02 0 2h-1.88c-6e-3 -0.476 4e-3 -1.85 0-2zm-4.63 1h1.63v1h-1.69c-0.375-0.0127-0.342-1.04 0.0606-1zm-3.37 5-3 3h11l3-3z" fill="url(#gr0)"/>
 <path d="m2 2v1h1v-1h-1zm2 0v1h1v-1h-1zm3 2 0.00391 1h2c0.022-0.0571 0.212-0.991-0.596-1h-1.41zm5 1c0 0.0735 0.0013 0.578 0 1h1.88c0.126-0.013 0.201 0.243 0.248 0.553 0.104-0.577 0.0142-1.5-0.226-1.54-0.0487-0.00443-0.0947-0.0176-0.146-0.0137h-1.75zm-4.63 1c-0.402-0.0403-0.436 0.987-0.0606 1h1.69v-1h-1.63zm7.59 0.543c-0.109 0.755-0.452 1.39-1.06 1.44-0.0086 0.00139-0.0143 0.014-0.0234 0.0137h-2.88v1h2.78c0.963 0.0393 1.33-1.31 1.18-2.46zm-8.88 0.537c-0.207 0.861 0.133 1.92 1.11 1.92h2.81v-1h-2.81c-0.605 0-0.97-0.406-1.11-0.92zm-4.08 1.92v1h3v-1h-3zm12 3-2 2h-10l-1 1h11l3-3h-1z" opacity=".45"/>
 <path d="m2 1v1h3v-1h-3zm9 1v1h1v-1h-1zm-4 1 0.00391 1h1.84c0.315 0.0321 0.635 0.216 0.846 0.469 0.211 0.253 0.312 0.598 0.312 0.969v-1c0-0.37-0.102-0.716-0.312-0.969-0.211-0.253-0.53-0.437-0.846-0.469h-1.85zm5 1v1h1.88c0.0081-8.4e-4 0.0137 0.0125 0.0215 0.0137 0.608 0.0554 0.957 0.738 1.06 1.53 0.169-1.17-0.238-2.62-1.21-2.54-0.012 9e-4 -0.0202-1e-3 -0.0312 0h-1.72zm-4.81 1c-0.954 0.0443-1.35 1.21-1.11 2.08 0.137-0.568 0.507-1.05 1.11-1.08h1.81c0.022-0.0571 0.212-0.991-0.596-1h-1.22zm6.94 1.55c-0.0456 0.254-0.118 0.453-0.248 0.447h-1.88c-0.0013 0.422-5e-3 0.762 0 1h1.78c0.0418 0.00171 0.0777-0.0102 0.117-0.0137 0.264-0.0426 0.313-0.856 0.225-1.43zm-6.75 0.447c-0.402-0.0403-0.436 0.987-0.0606 1h1.69v-1h-1.63zm-5.37 1v1h1v-1h-1zm2 0v1h1v-1h-1zm0 3-3 3h1l2-2h10l1-1h-11z" fill="#fff" opacity=".6"/>
</svg>
