<?xml version="1.0" encoding="UTF-8"?>
<svg width="16" height="16" version="1.0" xmlns="http://www.w3.org/2000/svg" xmlns:xlink="http://www.w3.org/1999/xlink">
 <defs>
  <linearGradient id="linearGradient2908">
   <stop stop-color="#1e1e1e" offset="0"/>
   <stop stop-color="#1e1e1e" stop-opacity="0" offset="1"/>
  </linearGradient>
  <linearGradient id="linearGradient3654" x1="11" x2="11" y1="13.1" y2="7.12" gradientTransform="matrix(1 0 0 -1 -3 21.1)" gradientUnits="userSpaceOnUse" xlink:href="#linearGradient2908"/>
  <linearGradient id="linearGradient3656" x1="11" x2="11" y1="15" y2="8" gradientTransform="translate(-3,-5)" gradientUnits="userSpaceOnUse" xlink:href="#linearGradient2908"/>
  <linearGradient id="linearGradient3759" x1="1" x2="15" y1="9" y2="9" gradientTransform="translate(-17,-2)" gradientUnits="userSpaceOnUse">
   <stop stop-color="#dcdcdc" offset="0"/>
   <stop stop-color="#f0f0f0" offset="1"/>
  </linearGradient>
  <linearGradient id="linearGradient3766" x1="9.06" x2="9.06" y1="10.2" y2="-12.2" gradientTransform="translate(-.5 5.3)" gradientUnits="userSpaceOnUse">
   <stop offset="0"/>
   <stop stop-opacity="0" offset="1"/>
  </linearGradient>
  <linearGradient id="linearGradient3012" x1="19.1" x2="9.41" y1="13.1" y2="13.1" gradientUnits="userSpaceOnUse">
   <stop stop-color="#b1e134" offset="0"/>
   <stop stop-color="#6ab717" offset="1"/>
  </linearGradient>
 </defs>
 <rect transform="rotate(-90)" x="-16" width="16" height="16" rx="2" ry="2" fill="url(#linearGradient3759)"/>
 <path d="m1.09 2.41c-0.0583 0.188-0.0938 0.386-0.0938 0.594v0.688l6.66 6.66 0.344 0.375 0.344-0.375 6.66-6.66v-0.688c0-0.208-0.0355-0.406-0.0938-0.594l-6.91 6.91-6.91-6.91z" color="#000000" fill="url(#linearGradient3656)" opacity=".5" style="block-progression:tb;text-indent:0;text-transform:none"/>
 <path d="m5.38 8.06-4.38 4.38v0.688c0 0.208 0.0355 0.406 0.0938 0.594l4.97-4.97-0.688-0.688zm5.25 0-0.688 0.688 4.97 4.97c0.0583-0.188 0.0938-0.386 0.0938-0.594v-0.688l-4.38-4.38z" color="#000000" fill="url(#linearGradient3654)" opacity=".5" style="block-progression:tb;text-indent:0;text-transform:none"/>
 <path d="m2 0c-1.11 0-2 0.892-2 2v12c0 1.11 0.892 2 2 2h12c1.11 0 2-0.892 2-2v-12c0-1.11-0.892-2-2-2h-12zm0.5 1h11c0.831 0 1.5 0.669 1.5 1.5v11c0 0.831-0.669 1.5-1.5 1.5h-11c-0.831 0-1.5-0.669-1.5-1.5v-11c0-0.831 0.669-1.5 1.5-1.5z" fill="url(#linearGradient3766)" opacity=".4"/>
 <rect x="-19" y="1" width="14" height="14" rx="1.5" ry="1.5" opacity=".2"/>
 <path d="m2.5 1c-0.831 0-1.5 0.669-1.5 1.5v1c0-0.831 0.669-1.5 1.5-1.5h11c0.831 0 1.5 0.669 1.5 1.5v-1c0-0.831-0.669-1.5-1.5-1.5h-11z" fill="#fff" opacity=".6"/>
 <path transform="matrix(0 -1.02 1 0 -4.67 25)" d="m16.8 19.6-1.76-0.923-1.33 1.47-0.751-1.84-1.96 0.267 0.604-1.89-1.68-1.06 1.68-1.06-0.604-1.89 1.96 0.267 0.751-1.84 1.33 1.47 1.76-0.923 0.0784 1.98 1.94 0.421-1.21 1.57 1.21 1.57-1.94 0.421z" opacity=".6" stroke="#000" stroke-dashoffset="8.6" stroke-linecap="round" stroke-linejoin="round" stroke-width=".991"/>
 <path transform="matrix(0 -1.02 1 0 -4.67 24.5)" d="m16.8 19.6-1.76-0.923-1.33 1.47-0.751-1.84-1.96 0.267 0.604-1.89-1.68-1.06 1.68-1.06-0.604-1.89 1.96 0.267 0.751-1.84 1.33 1.47 1.76-0.923 0.0784 1.98 1.94 0.421-1.21 1.57 1.21 1.57-1.94 0.421z" fill="url(#linearGradient3012)" stroke="#669d00" stroke-dashoffset="8.6" stroke-linecap="round" stroke-linejoin="round" stroke-width=".991"/>
 <path d="m8.51 10.1 0.986-0.986 0.986 0.986 1.97-1.97 0.986 0.986-2.96 2.96-1.97-1.97z" fill="#fff"/>
</svg>
