<?xml version="1.0" encoding="UTF-8"?>
<svg width="16" height="16" version="1.1" xmlns="http://www.w3.org/2000/svg">
 <defs>
  <linearGradient id="gr0" x1="8" x2="8" y1="2" y2="14" gradientUnits="userSpaceOnUse">
   <stop stop-color="#f3604d" offset="0"/>
   <stop stop-color="#c81700" offset="1"/>
  </linearGradient>
 </defs>
 <path d="m8 1c-3.85 0-7 3.15-7 7 0 3.85 3.15 7 7 7 3.85 0 7-3.15 7-7 0-3.85-3.15-7-7-7zm0 1c3.31 0 6 2.69 6 6s-2.69 6-6 6-6-2.69-6-6 2.69-6 6-6z" opacity=".25"/>
 <path d="m8 2c-3.31 0-6 2.69-6 6s2.69 6 6 6 6-2.69 6-6-2.69-6-6-6z" fill="url(#gr0)"/>
 <path d="m2.02 8.5c-0.013 0.165-0.025 0.331-0.025 0.5 0 3.31 2.69 6 6 6s6-2.69 6-6c0-0.169-0.01-0.335-0.03-0.5-0.25 3.08-2.83 5.5-5.97 5.5-3.14 0-5.72-2.42-5.98-5.5z" opacity=".55"/>
 <path d="m8 2c-3.31 0-6 2.69-6 6 0 0.169 0.012 0.335 0.025 0.5 0.255-3.08 2.83-5.5 5.98-5.5 3.14 0 5.72 2.42 5.97 5.5 0.02-0.165 0.03-0.331 0.03-0.5 0-3.31-2.69-6-6-6z" fill="#fff" opacity=".3"/>
</svg>
