<?xml version="1.0" encoding="UTF-8"?>
<svg width="16" height="16" version="1.1" xmlns="http://www.w3.org/2000/svg">
 <defs>
  <linearGradient id="a" x1="8" x2="8" y1="1.02" y2="15" gradientUnits="userSpaceOnUse">
   <stop stop-color="#ebebeb" offset="0"/>
   <stop stop-color="#aaa" offset="1"/>
  </linearGradient>
 </defs>
 <path d="m2 0.0176a1 1 0 0 0-1 1c-0.0422 1e-3 -0.0378-5e-3 -0.148 0.011a1 1 0 0 0-0.852 0.989v1a1 1 0 0 0 1 1v1.98a1 1 0 0 0-1 1v4.5c0 1.37 1.13 2.5 2.5 2.5h2.5a1 1 0 0 0 0.988-0.84l4.5 2.7a1 1 0 0 0 1.51-0.86v-1h1.5c1.37 0 2.5-1.13 2.5-2.5v-7c0-1.37-1.13-2.5-2.5-2.5h-8.5v-0.982a1 1 0 0 0-1-1h-2zm0 1h2v4.98h-2v-2.98h-1v-1c0.221-0.033 1.08 0.076 1-1zm3 1.98h8.5c0.83 0 1.5 0.669 1.5 1.5v7c0 0.83-0.67 1.5-1.5 1.5h-2.5v2l-5-3 5-3v2h1.5c0.28 0 0.5-0.22 0.5-0.5v-5c0-0.277-0.22-0.5-0.5-0.5h-7.5v-2zm0 3h7v3a1 1 0 0 0-1.51-0.857l-4.5 2.7a1 1 0 0 0-0.986-0.84h-1v-3a1 1 0 0 0 1-1zm-4 1h2v3.5c0 0.28 0.223 0.5 0.5 0.5h1.5v2h-2.5c-0.831 0-1.5-0.67-1.5-1.5v-4.5z" opacity=".25"/>
 <path d="m2 1.0176c.0771 1.0764-.779.9669-1 1v1h1v2.9824h2v-4.9824h-2zm3 1.9824v2h7.5c.277 0 .5.223.5.5v5c0 .277-.223.5-.5.5h-1.5v-2l-5 3 5 3v-2h2.5c.831 0 1.5-.669 1.5-1.5v-7c0-.831-.669-1.5-1.5-1.5h-8.5zm-4 4v2 2.5c0 .831.669 1.5 1.5 1.5h2.5v-2h-1.5c-.277 0-.5-.223-.5-.5v-1.5-2h-2z" fill="url(#a)"/>
 <path d="m2 1.02c0.08 1.08-0.779 0.967-1 1v1c0.221-0.033 1.08 0.076 1-1h2v-1h-2zm3 1.98v1h8.5c0.83 0 1.5 0.669 1.5 1.5v-1c0-0.831-0.67-1.5-1.5-1.5h-8.5zm-4 4v1h2v-1h-2zm10 2-5 3 0.834 0.5 4.17-2.5v-1zm-8 1.5v1c0 0.28 0.223 0.5 0.5 0.5h1.5v-1h-1.5c-0.277 0-0.5-0.22-0.5-0.5zm10 0c0 0.28-0.22 0.5-0.5 0.5h-1.5v1h1.5c0.28 0 0.5-0.22 0.5-0.5v-1z" fill="#fff" opacity=".6"/>
 <path d="m1 3.02v1h1v-1h-1zm4 1.98v1h7.5c0.28 0 0.5 0.223 0.5 0.5v-1c0-0.277-0.22-0.5-0.5-0.5h-7.5zm-3 1v1h2v-1h-2zm-1 5.5v1c0 0.83 0.669 1.5 1.5 1.5h2.5v-1h-2.5c-0.831 0-1.5-0.67-1.5-1.5zm14 0c0 0.83-0.67 1.5-1.5 1.5h-2.5v1h2.5c0.83 0 1.5-0.67 1.5-1.5v-1zm-8.17 1-0.834 0.5 5 3v-1l-4.17-2.5z" opacity=".45"/>
</svg>
