<?xml version="1.0" encoding="UTF-8"?>
<svg width="16" height="16" version="1.1" xmlns="http://www.w3.org/2000/svg">
 <defs>
  <linearGradient id="gr0" x1="8" x2="8" y1="2" y2="13" gradientUnits="userSpaceOnUse">
   <stop stop-color="#ebebeb" offset="0"/>
   <stop stop-color="#aaa" offset="1"/>
  </linearGradient>
 </defs>
 <path d="m3.95 1a1 1 0 0 0-0.949 0.998v11a1 1 0 0 0 1.52 0.854l9-5.5a1 1 0 0 0 0-1.71l-9-5.5a1 1 0 0 0-0.572-0.145zm0.0508 0.998 9 5.5-9 5.5v-11z" opacity=".25"/>
 <path d="m4 2v11l9-5.5-9-5.5z" fill="url(#gr0)"/>
 <path d="m12.2 8-8.18 5v1l9-5.5-0.818-0.5z" opacity=".45"/>
 <path d="m4 2v1l8.18 5 0.818-0.5-9-5.5z" fill="#fff" opacity=".6"/>
</svg>
