<?xml version="1.0" encoding="UTF-8"?>
<svg width="16" height="16" version="1.1" xmlns="http://www.w3.org/2000/svg">
 <defs>
  <linearGradient id="gr0" x1="8" x2="8" y1=".989" y2="15" gradientUnits="userSpaceOnUse">
   <stop stop-color="#ebebeb" offset="0"/>
   <stop stop-color="#aaa" offset="1"/>
  </linearGradient>
 </defs>
 <path d="m8.13-0.0117c-4.24 0-7.69 3.2-8.12 7.21a1 1 0 0 0 0.375 0.893c-0.164 0.288-0.381 0.554-0.381 0.904v5.01c0 1.09 0.904 2 2 2h3.93c0.365 0 0.645-0.22 0.941-0.39a1 1 0 0 0 0.777 0.37h0.35c4.41 0 8-3.59 8-8 0-4.4-3.57-8-7.87-8zm0 1v0.0019c3.74 0 6.87 3.13 6.87 7 0 3.87-3.13 7-7 7h-0.35c0.17-0.29 0.25-0.62 0.25-0.98v-4c1.07 0.05 2.1-0.775 2.1-2 0.06-1.15-0.885-2-2-2-0.756 0-1.41 0.4-1.76 1.02-0.103-0.03-0.205-0.029-0.312-0.029h-3.93c-0.315 0.018-0.688 0.091-1 0.311 0.375-3.51 3.39-6.32 7.13-6.32zm-0.127 6.02c0.606 0 1.03 0.37 1 0.947a1 1 0 0 0 0 0.051c0 0.662-0.525 1.02-1.05 1a1 1 0 0 0-0.01 0v-0.012c0-0.625-0.335-1.12-0.794-1.49 0.172-0.295 0.468-0.491 0.855-0.494zm-6 0.99h3.93c0.554 0 1 0.446 1 1v5.01c0 0.55-0.446 1-1 1h-3.93c-0.554 0-1-0.45-1-1v-5.01c0-0.554 0.446-1 1-1zm0 1.01v5h3.93v-5h-3.93zm1 1h2v1h-2v-1zm0 2h2v1h-2v-1z" opacity=".25"/>
 <path d="m2 7h3.93c0.107 0 0.209 0.01 0.312 0.03 0.345-0.617 1-1.02 1.76-1.02 1.12 0 2.06 0.851 2 2 0 1.22-1.03 2.05-2.1 2v4c0 0.36-0.08 0.69-0.25 0.98h0.35c3.87 0 7-3.13 7-7 0-3.87-3.13-7-6.87-7-3.74 0-6.75 2.81-7.13 6.32 0.312-0.22 0.685-0.292 1-0.31zm0 1c-0.554 0-1 0.446-1 1v5.01c0 0.55 0.446 1 1 1h3.93c0.554 0 1-0.45 1-1v-5.01c0-0.554-0.446-1-1-1zm0 1.01h3.93v5h-3.93zm1 1v1h2v-1zm0 2v1h2v-1z" fill="url(#gr0)"/>
 <path d="m8 6.01c-0.756 0-1.41 0.4-1.76 1.02-0.103-0.03-0.205-0.029-0.312-0.029h-3.93c-0.244 0.014-0.521 0.063-0.779 0.186-0.102 0.365-0.18 0.739-0.221 1.12 0.312-0.22 0.685-0.293 1-0.311h3.93c0.107 0 0.209-1e-3 0.312 0.029 0.345-0.617 1-1.02 1.76-1.02 0.933 0 1.74 0.599 1.94 1.47 0.035-0.149 0.057-0.303 0.057-0.467 0.06-1.15-0.885-2-2-2zm6.97 2.48c-0.25 3.63-3.27 6.5-6.97 6.5h-0.1v0.02c0 0.36-0.08 0.69-0.25 0.98h0.35c3.87 0 7-3.13 7-7 0-0.169-0.01-0.334-0.03-0.5zm-13 0.522v1h3.93v-1h-3.93zm1 2v1h2v-1h-2zm0 2v1h2v-1h-2zm-2 1v1c0 0.55 0.446 1 1 1h3.93c0.554 0 1-0.45 1-1v-1c0 0.55-0.446 1-1 1h-3.93c-0.554 0-1-0.45-1-1z" opacity=".45"/>
 <path d="m8.13 0.988c-3.74 0-6.75 2.81-7.13 6.32 0.07-0.05 0.145-0.09 0.221-0.125 0.828-2.97 3.58-5.2 6.91-5.2 3.58 0 6.59 2.87 6.84 6.5 0.02-0.165 0.03-0.331 0.03-0.5 0-3.87-3.13-7-6.87-7zm-6.13 7.01c-0.554 0-1 0.446-1 1v1c0-0.554 0.446-1 1-1h3.93c0.554 0 1 0.446 1 1v-1c0-0.554-0.446-1-1-1h-3.93zm7.94 0.477c-0.223 0.959-1.12 1.57-2.04 1.53v1c1.07 0.05 2.1-0.78 2.1-2 0.01-0.188-0.016-0.364-0.057-0.533zm-6.94 1.53v1h2v-1h-2zm0 2v1h2v-1h-2zm-1 2v1h3.93v-1h-3.93zm5.9 0c0 0.36-0.08 0.69-0.25 0.98h0.25v-0.98z" fill="#fff" opacity=".6"/>
</svg>
