<?xml version="1.0" encoding="UTF-8"?>
<svg width="16" height="16" version="1.1" xmlns="http://www.w3.org/2000/svg">
 <defs>
  <linearGradient id="gr0" x1="8" x2="8" y1="1" y2="15" gradientUnits="userSpaceOnUse">
   <stop stop-color="#ebebeb" offset="0"/>
   <stop stop-color="#aaa" offset="1"/>
  </linearGradient>
 </defs>
 <path d="m1 0a1 1 0 0 0-1 1v3a1 1 0 0 0 1 1h0.898c0.0273 0.187 0.122 0.45 0.105 0.58-0.0578 0.454-0.328 0.934-0.762 1.62-0.433 0.68-1.05 1.59-1.21 2.85-0.0558 0.439 0.0792 0.911 0.154 1.37a1 1 0 0 0-0.191 0.586v3a1 1 0 0 0 1 1h3a1 1 0 0 0 1-1v-0.898c0.187-0.0273 0.45-0.122 0.58-0.106 0.454 0.0578 0.934 0.328 1.62 0.762 0.68 0.433 1.59 1.05 2.85 1.21 0.439 0.0558 0.911-0.0792 1.37-0.154a1 1 0 0 0 0.586 0.191h3a1 1 0 0 0 1-1v-3a1 1 0 0 0-1-1h-0.898c-0.0273-0.187-0.122-0.45-0.106-0.58 0.0578-0.454 0.328-0.934 0.762-1.62 0.433-0.68 1.05-1.59 1.21-2.85 0.0558-0.439-0.0792-0.911-0.154-1.37a1 1 0 0 0 0.191-0.586v-3a1 1 0 0 0-1-1h-3a1 1 0 0 0-1 1v0.898c-0.187 0.0273-0.45 0.122-0.58 0.105-0.454-0.0578-0.934-0.328-1.62-0.762-0.68-0.433-1.59-1.05-2.85-1.21-0.439-0.0558-0.911 0.0792-1.37 0.154a1 1 0 0 0-0.586-0.191h-3zm0 1h3v0.244c0.672-0.215 1.28-0.285 1.83-0.215 0.99 0.126 1.75 0.62 2.44 1.06 0.687 0.437 1.3 0.818 2.03 0.91 0.47 0.0598 1.03-0.0124 1.71-0.281v-1.71h3v3h-0.244c0.215 0.672 0.285 1.28 0.215 1.83-0.126 0.99-0.62 1.75-1.06 2.44s-0.818 1.3-0.91 2.03c-0.0598 0.47 0.0124 1.03 0.281 1.71h1.71v3h-3v-0.244c-0.672 0.215-1.28 0.285-1.83 0.215-0.991-0.126-1.75-0.62-2.44-1.06s-1.3-0.818-2.03-0.91c-0.47-0.0598-1.03 0.0124-1.71 0.281v1.71h-3v-3h0.244c-0.215-0.672-0.285-1.28-0.215-1.83 0.126-0.991 0.62-1.75 1.06-2.44 0.437-0.687 0.818-1.3 0.91-2.03 0.0598-0.47-0.0124-1.03-0.281-1.71h-1.71v-3zm4.19 1.01c-0.348 0.0316-0.745 0.14-1.19 0.324v1.66h-0.279c0.233 0.673 0.335 1.29 0.266 1.83-0.126 0.99-0.62 1.75-1.06 2.44-0.437 0.687-0.818 1.3-0.91 2.03-0.059 0.464 0.0367 1.03 0.318 1.71h1.66v0.279c0.673-0.234 1.29-0.335 1.83-0.266 0.99 0.126 1.75 0.62 2.44 1.06s1.3 0.818 2.03 0.91c0.464 0.059 1.03-0.0367 1.71-0.318v-1.66h0.279c-0.234-0.673-0.335-1.29-0.266-1.83 0.126-0.99 0.62-1.75 1.06-2.44s0.818-1.3 0.91-2.03c0.0591-0.464-0.0367-1.03-0.318-1.71h-1.66v-0.279c-0.673 0.233-1.29 0.335-1.83 0.266-0.991-0.126-1.75-0.62-2.44-1.06-0.687-0.437-1.3-0.818-2.03-0.91-0.16-0.0206-0.333-0.0226-0.518-0.00586zm0.0898 0.996c0.121-0.0109 0.221-0.00822 0.301 0.00195 0.454 0.0578 0.934 0.328 1.62 0.762 0.68 0.433 1.59 1.05 2.85 1.21 0.448 0.057 0.901-0.0992 1.35-0.186a1 1 0 0 0 0.607 0.207h0.867c0.0334 0.19 0.135 0.469 0.121 0.58-0.0578 0.454-0.328 0.934-0.762 1.62-0.433 0.68-1.05 1.59-1.21 2.85-0.057 0.448 0.0992 0.901 0.186 1.35a1 1 0 0 0-0.207 0.607v0.867c-0.19 0.0334-0.469 0.135-0.58 0.121-0.454-0.0578-0.934-0.328-1.62-0.762-0.68-0.433-1.59-1.05-2.85-1.21-0.448-0.057-0.901 0.0992-1.35 0.186a1 1 0 0 0-0.607-0.207h-0.867c-0.0334-0.19-0.135-0.469-0.121-0.58 0.0578-0.454 0.328-0.934 0.762-1.62 0.433-0.68 1.05-1.59 1.21-2.85 0.057-0.448-0.0992-0.901-0.186-1.35a1 1 0 0 0 0.207-0.607v-0.912c0.0836-0.0177 0.214-0.0722 0.279-0.0781z" opacity=".25"/>
 <path d="m1 1v3h1.71c0.269 0.679 0.341 1.24 0.281 1.71-0.0924 0.726-0.473 1.34-0.91 2.03-0.437 0.687-0.931 1.44-1.06 2.44-0.0699 0.549-6.39e-4 1.16 0.215 1.83h-0.244v3h3v-1.71c0.679-0.269 1.24-0.341 1.71-0.281 0.726 0.0924 1.34 0.473 2.03 0.91 0.687 0.437 1.44 0.931 2.44 1.06 0.549 0.0699 1.16 6.39e-4 1.83-0.215v0.244h3v-3h-1.71c-0.269-0.679-0.341-1.24-0.281-1.71 0.0924-0.726 0.473-1.34 0.91-2.03 0.437-0.687 0.931-1.44 1.06-2.44 0.0699-0.549 6.39e-4 -1.16-0.215-1.83h0.244v-3h-3v1.71c-0.679 0.269-1.24 0.341-1.71 0.281-0.726-0.0924-1.34-0.473-2.03-0.91-0.687-0.437-1.44-0.931-2.44-1.06-0.549-0.0699-1.16-6.39e-4 -1.83 0.215v-0.244h-3zm4.19 1.01c0.184-0.0167 0.357-0.0146 0.518 0.00586 0.726 0.0924 1.34 0.473 2.03 0.91 0.687 0.437 1.44 0.931 2.44 1.06 0.542 0.069 1.16-0.0322 1.83-0.266v0.279h1.66c0.282 0.68 0.377 1.24 0.318 1.71-0.0924 0.726-0.473 1.34-0.91 2.03-0.437 0.687-0.931 1.44-1.06 2.44-0.069 0.542 0.0322 1.16 0.266 1.83h-0.279v1.66c-0.68 0.282-1.24 0.377-1.71 0.318-0.726-0.0924-1.34-0.473-2.03-0.91-0.687-0.437-1.44-0.931-2.44-1.06-0.542-0.069-1.16 0.0322-1.83 0.266v-0.279h-1.66c-0.282-0.68-0.377-1.24-0.318-1.71 0.0924-0.726 0.473-1.34 0.91-2.03 0.437-0.687 0.931-1.44 1.06-2.44 0.069-0.542-0.0322-1.16-0.266-1.83h0.279v-1.66c0.445-0.184 0.841-0.293 1.19-0.324z" fill="url(#gr0)"/>
 <path d="m5 2.04c-0.302 0.0457-0.631 0.133-1 0.285v0.674h1zm0 0.959v1h1v-1zm1 0h1v-0.506c-0.325-0.18-0.655-0.333-1-0.416zm1 0v1h1v-0.91c-0.0476-0.0299-0.0957-0.0601-0.143-0.0898zm1 1v1h1v-1zm1 0h1v-0.0586c-0.361-0.0636-0.693-0.169-1-0.307zm1 0v1h1v-1zm1 0h1v-0.283c-0.35 0.121-0.685 0.207-1 0.246zm1 0v1h1v-1zm1 0m0 1v1h0.922c0.0238-0.0983 0.0534-0.195 0.0664-0.297 0.0269-0.211 0.00905-0.45-0.0293-0.703zm0 1h-1v1h1zm0 1v0.857c0.026-0.041 0.0524-0.0846 0.0781-0.125 0.16-0.252 0.294-0.491 0.428-0.732zm-1 0h-1v1h1zm0 1v1h0.365c0.161-0.359 0.35-0.69 0.545-1zm0 1h-1v1h1zm0 1v1h0.0371c-0.0362-0.29-0.0506-0.569-0.0176-0.828 0.0077-0.0607 0.0287-0.113 0.0391-0.172zm0 1h-1v1h1zm0 1v1zm0 1h-1v0.959c0.302-0.0457 0.631-0.133 1-0.285zm-1 0v-1h-1v1zm-1 0h-1v0.506c0.325 0.18 0.655 0.333 1 0.416zm-1 0v-1h-1v0.91c0.0476 0.0299 0.0957 0.0601 0.143 0.0898zm-1-1v-1h-1v1zm-1 0h-1v0.0586c0.361 0.0636 0.693 0.169 1 0.307zm-1 0v-1h-1v1zm-1 0h-1v0.283c0.35-0.121 0.685-0.207 1-0.246zm-1 0v-1h-1v1zm-1-1v-1h-0.922c-0.0238 0.0983-0.0534 0.195-0.0664 0.297-0.0269 0.211-0.00905 0.45 0.0293 0.703zm0-1h1v-1h-1zm0-1v-0.857c-0.026 0.041-0.0524 0.0846-0.0781 0.125-0.16 0.252-0.294 0.491-0.428 0.732zm1 0h1v-1h-1zm0-1v-1h-0.365c-0.161 0.359-0.35 0.69-0.545 1zm0-1h1v-1h-1zm0-1v-1h-0.0371c0.0363 0.29 0.0506 0.569 0.0176 0.828-0.00772 0.0607-0.0287 0.113-0.0391 0.172zm0-1h1v-1h-1zm0-1v-1zm1 1v1h1v-1zm1 0h1v-1h-1zm1 0v1h1v-1zm1 1v1h1v-1zm1 0h1v-1h-1zm1 0v1h1v-1zm1 0h1v-1h-1zm-1 1h-1v1h1zm0 1v1h1v-1zm0 1h-1v1h1zm0 1v1h1v-1zm0 1h-1v1h1zm-1 0v-1h-1v1zm-1-1v-1h-1v1zm-1 0h-1v1h1zm-1 0v-1h-1v1zm-1 0h-1v1h1zm1-1h1v-1h-1zm0-1v-1h-1v1zm0-1h1v-1h-1zm1 0v1h1v-1zm1 1v1h1v-1z" fill="#fff" opacity=".4"/>
 <path d="m5.23 2.01c-0.0201 9.8e-4 -0.0403 0.00261-0.0606 0.00391-0.343 0.0339-0.732 0.14-1.17 0.32v1c0.445-0.184 0.841-0.293 1.19-0.324 0.184-0.0167 0.357-0.0147 0.518 0.00586 0.726 0.0924 1.34 0.473 2.03 0.91 0.687 0.437 1.44 0.931 2.44 1.06 0.542 0.069 1.16-0.0322 1.83-0.266v0.279h1.66c0.134 0.324 0.224 0.62 0.277 0.893 0.0124-0.0624 0.0329-0.122 0.041-0.186 0.0591-0.464-0.0367-1.03-0.318-1.71h-1.66v-0.279c-0.0238 0.00828-0.0447 0.00964-0.0684 0.0176-0.647 0.246-1.18 0.316-1.64 0.258-0.0067-8.5e-4 -0.0129-3e-3 -0.0196-0.0039-0.0346-3e-3 -0.0714-0.00153-0.105-0.00586-0.991-0.126-1.75-0.62-2.44-1.06-0.682-0.434-1.29-0.811-2.01-0.906-0.0199-0.00185-0.0405-0.00242-0.0605-0.00391-0.136-0.0144-0.279-0.0174-0.432-0.00586zm-4.23 1.99v1h1.71c0.123 0.311 0.201 0.594 0.248 0.857 0.00947-0.0508 0.0266-0.0985 0.0332-0.15 0.0598-0.47-0.0124-1.03-0.281-1.71h-1.71zm2.72 0c0.121 0.35 0.205 0.683 0.25 1h0.0293v-1h-0.279zm11 0c0.112 0.35 0.183 0.683 0.217 1h0.0273v-1h-0.244zm0.201 1.9c-0.14 0.957-0.616 1.7-1.04 2.37-0.437 0.687-0.818 1.3-0.91 2.03-0.0324 0.255-0.0222 0.538 0.0332 0.85 0.123-0.66 0.471-1.24 0.877-1.88 0.437-0.687 0.931-1.44 1.06-2.44 0.0373-0.293 0.0293-0.606-0.0137-0.934zm-11 0.0449c-0.148 0.934-0.612 1.66-1.03 2.32-0.437 0.687-0.818 1.3-0.91 2.03-0.0309 0.243-0.0175 0.514 0.041 0.814 0.129-0.645 0.471-1.21 0.869-1.84 0.437-0.687 0.931-1.44 1.06-2.44 0.0353-0.277 0.0232-0.575-0.0254-0.889zm8.08 5.11c-0.0062 0.0387-0.0204 0.072-0.0254 0.111-0.0332 0.26-0.0256 0.539 0.0156 0.832h0.25c-0.114-0.329-0.194-0.643-0.24-0.943zm-11 0.045c-0.00338 0.0231-0.0107 0.043-0.0137 0.0664-0.0335 0.263-0.0331 0.541-0.00196 0.832h0.217c-0.101-0.314-0.164-0.612-0.201-0.898zm4.37 1.89c-0.413 0.0098-0.866 0.107-1.34 0.268-0.0236 9e-3 -0.0445 0.014-0.0684 0.0235v1c0.679-0.269 1.24-0.341 1.71-0.281 0.726 0.092 1.34 0.473 2.03 0.91 0.687 0.437 1.44 0.931 2.44 1.06 0.549 0.07 1.16 6e-4 1.83-0.215v0.244h3v-1h-3v-0.244c-0.453 0.145-0.876 0.218-1.27 0.232-0.0354 0.0023-0.0711 0.0051-0.106 0.0058-0.0672 6e-4 -0.132-0.0046-0.197-0.0078-0.0429-0.0028-0.0895-6e-4 -0.131-0.0058-0.0048-6e-4 -0.0089-0.0033-0.0137-0.0039-0.0366-0.0034-0.0753-0.0013-0.111-0.0059-0.991-0.126-1.75-0.62-2.44-1.06-0.68-0.432-1.29-0.807-2-0.904-0.104-0.0091-0.207-0.0182-0.316-0.0157zm-4.41 2.01v1h3v-1h-3z" opacity=".45"/>
 <path d="m1 1v1h3v0.244c0.414-0.133 0.801-0.203 1.17-0.227 0.00672-6.6e-4 0.0148-0.0033 0.0215-0.00391 0.0139-0.00126 0.0253 0.00105 0.0391 0 0.148-0.00714 0.292-0.00452 0.432 0.00586 0.0147 0.00156 0.0323-0.00186 0.0469 0 0.00478 6.1e-4 0.0089 0.00327 0.0137 0.00391 0.0366 0.00338 0.0753 0.00127 0.111 0.00586 0.99 0.126 1.75 0.62 2.44 1.06 0.68 0.433 1.29 0.809 2.01 0.906 0.497 0.0431 1.06-0.0519 1.66-0.254 0.0235-0.00894 0.0446-0.014 0.0684-0.0234v-1c-0.679 0.269-1.24 0.341-1.71 0.281-0.726-0.0924-1.34-0.473-2.03-0.91-0.687-0.437-1.44-0.931-2.44-1.06-0.549-0.0699-1.16-6.4e-4 -1.83 0.215v-0.244h-3zm11 0v1h3v-1h-3zm-8.28 4c0.114 0.329 0.194 0.643 0.24 0.943 0.00614-0.0386 0.0204-0.072 0.0254-0.111 0.0331-0.26 0.0256-0.539-0.0156-0.832h-0.25zm11 0c0.1 0.314 0.164 0.612 0.201 0.898 0.0034-0.0231 0.0107-0.043 0.0137-0.0664 0.0335-0.263 0.0332-0.541 2e-3 -0.832h-0.217zm-11.8 0.857c-0.123 0.66-0.471 1.24-0.877 1.88-0.437 0.687-0.931 1.44-1.06 2.44-0.0373 0.293-0.0293 0.606 0.0137 0.934 0.14-0.957 0.616-1.7 1.04-2.37 0.437-0.687 0.818-1.3 0.91-2.03 0.0324-0.255 0.0221-0.538-0.0332-0.85zm11 0.0352c-0.129 0.645-0.471 1.21-0.869 1.84-0.437 0.687-0.931 1.45-1.06 2.44-0.0353 0.277-0.0232 0.575 0.0254 0.889 0.148-0.934 0.612-1.66 1.03-2.32 0.437-0.687 0.818-1.3 0.91-2.03 0.0309-0.243 0.0175-0.514-0.041-0.814zm-11.9 5.21c-0.0125 0.0624-0.0329 0.122-0.041 0.186-0.059 0.464 0.0367 1.03 0.318 1.71h1.66v0.279c0.0238-0.0083 0.0446-0.0096 0.0684-0.0176 0.647-0.246 1.18-0.316 1.64-0.258 0.0075 1e-3 0.014 0.0049 0.0215 0.0059 0.034 0.0029 0.0701-4e-4 0.104 0.0039 0.99 0.126 1.75 0.62 2.44 1.06 0.682 0.434 1.29 0.811 2.01 0.906 0.0475 0.0044 0.0961 0.0074 0.144 0.0097 0.0647 0.0042 0.129 0.0094 0.197 0.0078 0.0344-2e-4 0.0706-0.0045 0.106-0.0058 0.371-0.0239 0.791-0.126 1.27-0.326v-1c-0.68 0.282-1.24 0.377-1.71 0.318-0.726-0.092-1.34-0.473-2.03-0.91-0.687-0.437-1.44-0.931-2.44-1.06-0.542-0.069-1.16 0.032-1.83 0.266v-0.279h-1.66c-0.134-0.324-0.224-0.62-0.277-0.893zm11 0.0352c-0.0094 0.0508-0.0266 0.0985-0.0332 0.15-0.0598 0.47 0.0124 1.03 0.281 1.71h1.71v-1h-1.71c-0.123-0.311-0.201-0.594-0.248-0.857zm-12 0.857v1h0.244c-0.112-0.35-0.183-0.683-0.217-1h-0.0273zm11 0v1h0.279c-0.121-0.35-0.206-0.683-0.25-1h-0.0293z" fill="#fff" opacity=".6"/>
</svg>
