<?xml version="1.0" encoding="UTF-8"?>
<svg width="16" height="16" version="1.1" xmlns="http://www.w3.org/2000/svg">
 <defs>
  <linearGradient id="gr0" x1="8" x2="8" y1="4" y2="15" gradientUnits="userSpaceOnUse">
   <stop stop-color="#ebebeb" offset="0"/>
   <stop stop-color="#aaa" offset="1"/>
  </linearGradient>
 </defs>
 <path d="m4 3a1 1 0 0 0-1 1v2a1 1 0 0 0 1 1h8a1 1 0 0 0 1-1v-2a1 1 0 0 0-1-1h-8zm0 1h8v2h-8v-2zm1 5a1 1 0 0 0-1 1v1h-2.52l0.105 0.0058c-0.0935-0.0099-0.188-0.0091-0.281 0-0.43 0.0403-0.853 0.311-1.06 0.635-0.213 0.325-0.269 0.664-0.242 0.986s0.137 0.653 0.412 0.941c0.275 0.288 0.761 0.473 1.19 0.42l-0.121 0.0078h2.52v1a1 1 0 0 0 1 1h6a1 1 0 0 0 1-1v-1h2.55a1 1 0 0 0 0.0156 0c0.426-0.0068 0.864-0.243 1.1-0.547s0.318-0.633 0.318-0.951-0.0833-0.648-0.318-0.951-0.673-0.54-1.1-0.547a1 1 0 0 0-0.0156 0h-2.55v-1a1 1 0 0 0-1-1h-6zm0 1h6v2h3.55c0.577 0.0093 0.577 0.986 0 0.996h-3.55v2h-6v-2h-3.52c-0.592 0.0725-0.676-0.943-0.082-0.996h3.6v-2z" opacity=".25"/>
 <path d="m4 4v2h8v-2zm1 6v2h-3.52c-0.0273-0.0029-0.0547-0.0029-0.082 0-0.594 0.0534-0.51 1.07 0.082 0.996h3.52v2h6v-2h3.56c0.577-0.0093 0.577-0.987 0-0.996h-3.56v-2z" fill="url(#gr0)"/>
 <path d="m4 6v1h8v-1h-8zm-2.6 7c-0.594 0.053-0.51 1.07 0.082 0.996h3.52v-0.996h-3.6zm9.6 0v0.996h3.55c0.577-0.01 0.577-0.987 0-0.996h-3.55zm-6 2v1h6v-1h-6z" opacity=".45"/>
 <path d="m4 4v1h8v-1h-8zm1 6v1h6v-1h-6zm-3.6 2c-0.594 0.053-0.51 1.07 0.082 0.996h3.52v-0.996h-3.6zm9.6 0v0.996h3.55c0.577-0.01 0.577-0.987 0-0.996h-3.55z" fill="#fff" opacity=".6"/>
</svg>
