<?xml version="1.0" encoding="UTF-8"?>
<svg width="16" height="16" version="1.1" xmlns="http://www.w3.org/2000/svg">
 <defs>
  <linearGradient id="gr0" x1="8" x2="8" y1="1" y2="15" gradientUnits="userSpaceOnUse">
   <stop stop-color="#ebebeb" offset="0"/>
   <stop stop-color="#aaa" offset="1"/>
  </linearGradient>
 </defs>
 <path d="m6 0a1 1 0 0 0-1 1v1h-3.51l0.109 0.00586c-0.094-0.0103-0.189-0.00918-0.283 0-0.431 0.0401-0.854 0.311-1.07 0.635-0.213 0.325-0.269 0.664-0.242 0.986 0.0265 0.322 0.137 0.653 0.412 0.941 0.275 0.288 0.763 0.473 1.19 0.42l-0.123 0.00782h3.51v0.00195a1 1 0 0 0 0.994 1 1 1 0 0 0 0 0.00195l0.00391 2.01h-0.998a1 1 0 0 0-0.705 1.71l1.29 1.28h-2.58a1 1 0 0 0-1 1h-1a1 1 0 0 0-1 1v1a1 1 0 0 0 1 1h1a1 1 0 0 0 1 1h3a1 1 0 0 0 1-1v-2.58l0.295 0.293a1 1 0 0 0 1.41 0l0.295-0.293v2.58a1 1 0 0 0 1 1h3a1 1 0 0 0 1-1h1a1 1 0 0 0 1-1v-1a1 1 0 0 0-1-1h-1a1 1 0 0 0-1-1h-2.58l1.29-1.28a1 1 0 0 0-0.705-1.71h-1l-0.00391-2.01h0.00586a1 1 0 0 0 1-1v-0.00195h3.56a1 1 0 0 0 0.0156 0c0.427-0.00666 0.864-0.241 1.1-0.545 0.235-0.304 0.316-0.635 0.316-0.953s-0.0811-0.649-0.316-0.953c-0.235-0.304-0.673-0.538-1.1-0.545a1 1 0 0 0-0.0156 0h-3.56v-1a1 1 0 0 0-1-1h-4zm0 1h4v2h4.56c0.577 9e-3 0.577 0.987 0 0.996h-4.56v1h-4v-1h-4.51c-0.593 0.073-0.676-0.943-0.082-0.996 0.0272-3e-3 0.0547-3e-3 0.082 0h4.51v-2zm0.994 5h2l0.00586 3.01h2l-3 2.99-3-2.99h2l-0.00586-3.01zm-3.99 6h3v3h-3v-1h-2v-1h2v-1zm7 0h3v1h2v1h-2v1h-3v-3z" opacity=".25"/>
 <path d="m6 1v2h-4.51c-0.0273-3e-3 -0.0548-3e-3 -0.082 0-0.594 0.053-0.511 1.07 0.082 0.996h4.51v1h4v-1h4.56c0.577-9e-3 0.577-0.987 0-0.996h-4.56v-2h-4zm0.994 5 0.0059 3.01h-2l3 2.99 3-2.99h-2l-0.0059-3.01h-2zm-3.99 6v1h-2v1h2v1h3v-3h-3zm7 0v3h3v-1h2v-1h-2v-1h-3z" fill="url(#gr0)"/>
 <path d="m1.41 4c-0.594 0.053-0.51 1.07 0.082 0.996h4.51v-0.996h-4.51c-0.0273-3e-3 -0.0548-3e-3 -0.082 0zm8.59 0v0.996h4.56c0.577-9e-3 0.577-0.987 0-0.996h-4.56zm-4 0.998v1h4v-1h-4zm0.994 2 0.00391 2.01h0.00195l-0.00391-2.01h-0.00195zm-1.99 3.01 3 2.99 3-2.99h-1l-2 1.99-2-1.99h-1zm-4 3.99v1h2v-1h-2zm2 1v1h3v-1h-3zm10-1v1h2v-1h-2zm0 1h-3v1h3v-1z" opacity=".45"/>
 <path d="m6 1v1h4v-1h-4zm-4.59 2c-0.594 0.053-0.51 1.07 0.082 0.996h4.51v-0.996h-4.51c-0.0273-3e-3 -0.0548-3e-3 -0.082 0zm8.59 0v0.996h4.56c0.577-9e-3 0.577-0.987 0-0.996h-4.56zm-3.01 3 0.00195 1h2l0.00586 3.01h0.996l1-1h-2l-0.00586-3.01h-2zm-1.99 3.01 1 1h0.996l-0.00195-1h-2zm-2 2.99v1h3v-1h-3zm0 1h-2v1h2v-1zm7-1v1h3v-1h-3zm3 1v1h2v-1h-2z" fill="#fff" opacity=".6"/>
</svg>
