<?xml version="1.0" encoding="UTF-8"?>
<svg width="16" height="16" version="1.1" xmlns="http://www.w3.org/2000/svg">
 <defs>
  <linearGradient id="gr0" x1="8" x2="8" y1="2" y2="14" gradientUnits="userSpaceOnUse">
   <stop stop-color="#ebebeb" offset="0"/>
   <stop stop-color="#aaa" offset="1"/>
  </linearGradient>
 </defs>
 <path d="m3.5 1c-0.814 0-1.5 0.686-1.5 1.5v11c0 0.814 0.686 1.5 1.5 1.5h1c0.814 0 1.5-0.686 1.5-1.5 0 0.814 0.686 1.5 1.5 1.5h1c0.814 0 1.5-0.686 1.5-1.5 0 0.814 0.686 1.5 1.5 1.5h1c0.814 0 1.5-0.686 1.5-1.5v-11c0-0.814-0.686-1.5-1.5-1.5h-1c-0.814 0-1.5 0.686-1.5 1.5 0-0.814-0.686-1.5-1.5-1.5h-1c-0.814 0-1.5 0.686-1.5 1.5 0-0.814-0.686-1.5-1.5-1.5h-1zm0 1h1c0.277 0 0.5 0.223 0.5 0.5v11c0 0.277-0.223 0.5-0.5 0.5h-1c-0.277 0-0.5-0.223-0.5-0.5v-11c0-0.277 0.223-0.5 0.5-0.5zm4 0h1c0.277 0 0.5 0.223 0.5 0.5v11c0 0.277-0.223 0.5-0.5 0.5h-1c-0.277 0-0.5-0.223-0.5-0.5v-11c0-0.277 0.223-0.5 0.5-0.5zm4 0h1c0.277 0 0.5 0.223 0.5 0.5v11c0 0.277-0.223 0.5-0.5 0.5h-1c-0.277 0-0.5-0.223-0.5-0.5v-11c0-0.277 0.223-0.5 0.5-0.5z" opacity=".25"/>
 <path d="m3.5 2c-0.277 0-0.5 0.223-0.5 0.5v11c0 0.277 0.223 0.5 0.5 0.5h1c0.277 0 0.5-0.223 0.5-0.5v-11c0-0.277-0.223-0.5-0.5-0.5h-1zm4 0c-0.277 0-0.5 0.223-0.5 0.5v11c0 0.277 0.223 0.5 0.5 0.5h1c0.277 0 0.5-0.223 0.5-0.5v-11c0-0.277-0.223-0.5-0.5-0.5h-1zm4 0c-0.277 0-0.5 0.223-0.5 0.5v11c0 0.277 0.223 0.5 0.5 0.5h1c0.277 0 0.5-0.223 0.5-0.5v-11c0-0.277-0.223-0.5-0.5-0.5h-1z" fill="url(#gr0)"/>
 <path d="m3 13.5v1c0 0.277 0.223 0.5 0.5 0.5h1c0.277 0 0.5-0.223 0.5-0.5v-1c0 0.277-0.223 0.5-0.5 0.5h-1c-0.277 0-0.5-0.223-0.5-0.5zm4 0v1c0 0.277 0.223 0.5 0.5 0.5h1c0.277 0 0.5-0.223 0.5-0.5v-1c0 0.277-0.223 0.5-0.5 0.5h-1c-0.277 0-0.5-0.223-0.5-0.5zm4 0v1c0 0.277 0.223 0.5 0.5 0.5h1c0.277 0 0.5-0.223 0.5-0.5v-1c0 0.277-0.223 0.5-0.5 0.5h-1c-0.277 0-0.5-0.223-0.5-0.5z" opacity=".45"/>
 <path d="m3.5 2c-0.277 0-0.5 0.223-0.5 0.5v1c0-0.277 0.223-0.5 0.5-0.5h1c0.277 0 0.5 0.223 0.5 0.5v-1c0-0.277-0.223-0.5-0.5-0.5h-1zm4 0c-0.277 0-0.5 0.223-0.5 0.5v1c0-0.277 0.223-0.5 0.5-0.5h1c0.277 0 0.5 0.223 0.5 0.5v-1c0-0.277-0.223-0.5-0.5-0.5h-1zm4 0c-0.277 0-0.5 0.223-0.5 0.5v1c0-0.277 0.223-0.5 0.5-0.5h1c0.277 0 0.5 0.223 0.5 0.5v-1c0-0.277-0.223-0.5-0.5-0.5h-1z" fill="#fff" opacity=".6"/>
</svg>
