<?xml version="1.0" encoding="UTF-8"?>
<svg width="16" height="16" version="1.0" xmlns="http://www.w3.org/2000/svg">
 <defs>
  <linearGradient id="linearGradient3204" x1="1" x2="15" y1="9" y2="9" gradientTransform="translate(-17,-2)" gradientUnits="userSpaceOnUse">
   <stop stop-color="#d45500" offset="0"/>
   <stop stop-color="#ffb149" offset="1"/>
  </linearGradient>
  <linearGradient id="linearGradient3629" x2="29" y1="8" y2="8" gradientTransform="matrix(0,-1,1,0,0,16)" gradientUnits="userSpaceOnUse">
   <stop offset="0"/>
   <stop stop-opacity="0" offset="1"/>
  </linearGradient>
  <linearGradient id="linearGradient2868" x1="5" x2="5" y1="2.94" y2="12" gradientTransform="matrix(1,0,0,-1,0,16)" gradientUnits="userSpaceOnUse">
   <stop stop-color="#ad4405" offset="0"/>
   <stop stop-color="#e28416" offset="1"/>
  </linearGradient>
 </defs>
 <rect transform="rotate(-90)" x="-16" width="16" height="16" rx="2" ry="2" fill="url(#linearGradient3204)"/>
 <path d="m0 14c0 1.11 0.892 2 2 2h12c1.11 0 2-0.892 2-2v-12c0-1.11-0.892-2-2-2h-12c-1.11 0-2 0.892-2 2v12zm0.969 0v-12c0-0.583 0.448-1.03 1.03-1.03h12c0.583 0 1.03 0.448 1.03 1.03v12c0 0.583-0.448 1.03-1.03 1.03h-12c-0.583 0-1.03-0.448-1.03-1.03z" fill="url(#linearGradient3629)" opacity=".4"/>
 <path d="m2 0.969c-0.583 0-1.03 0.448-1.03 1.03v1c0-0.583 0.448-1.03 1.03-1.03h12c0.583 0 1.03 0.448 1.03 1.03v-1c0-0.583-0.448-1.03-1.03-1.03h-12z" fill="#fff" opacity=".3"/>
 <path d="m8 13-4-4h2v-5h4v5h2l-4 4z" fill="url(#linearGradient2868)"/>
 <path d="m6 4v1h4v-1h-4zm-2 5 1 1h1v-1h-2zm6 0v1h1l1-1h-2z" opacity=".2"/>
 <path d="m4 10 4 4 4-4h-1l-3 3-3-3h-1z" fill="#fff" opacity=".3"/>
</svg>
