<?xml version="1.0" encoding="UTF-8"?>
<svg width="16" height="16" version="1.1" xmlns="http://www.w3.org/2000/svg">
 <defs>
  <linearGradient id="gr0" x1="8" x2="8" y1="1" y2="15" gradientUnits="userSpaceOnUse">
   <stop stop-color="#ebebeb" offset="0"/>
   <stop stop-color="#aaa" offset="1"/>
  </linearGradient>
 </defs>
 <path d="m7 0c-1.83 3.37e-16 -3.65 0.755-4.95 2.05-1.3 1.3-2.05 3.12-2.05 4.95 2.24e-16 1.83 0.755 3.65 2.05 4.95 0.823 0.823 1.88 1.33 3 1.66a1 1 0 0 0-0.0488 0.309v1.08a1 1 0 0 0 1 1h9a1 1 0 0 0 1-1v-9a1 1 0 0 0-1-1h-1.08l0.414 1h0.67v9h-9v-1.08c0.331 0.049 0.665 0.084 1 0.084 1.83 0 3.65-0.755 4.95-2.05s2.05-3.12 2.05-4.95c0-0.172-0.0273-0.343-0.043-0.514l-0.0644-0.0215c-0.134-1.64-0.777-3.25-1.94-4.41-1.3-1.3-3.12-2.05-4.95-2.05zm0 1a6 6 0 0 1 6 6 6 6 0 0 1-6 6 6 6 0 0 1-6-6 6 6 0 0 1 6-6z" opacity=".25"/>
 <path d="m7 1a6 6 0 0 0-6 6 6 6 0 0 0 6 6 6 6 0 0 0 6-6 6 6 0 0 0-6-6zm6.92 5c0.0493 0.331 0.084 0.665 0.084 1 0 1.83-0.755 3.65-2.05 4.95-1.3 1.3-3.12 2.05-4.95 2.05-0.335 0-0.669-0.0347-1-0.084v1.08h9v-9h-1.08z" fill="url(#gr0)"/>
 <path d="m13.3 4c8.76e-4 0.00185 0.0011 0.00401 2e-3 0.00586 0.152 0.322 0.288 0.653 0.391 0.994h1.3v-1zm-9.31 9.31v1.69h1v-1.3c-0.341-0.103-0.672-0.238-0.994-0.391-0.0019-8.81e-4 -4e-3 -0.0011-0.0059-2e-3z" fill="#fff" opacity=".4"/>
 <path d="m13.9 7c0.0305 0.206 0.0381 0.414 0.0528 0.621 0.019-0.206 0.0312-0.414 0.0312-0.621h-0.084zm-0.941 0.498a6 6 0 0 1-5.97 5.5 6 6 0 0 1-5.97-5.5 6 6 0 0 0-0.0254 0.498 6 6 0 0 0 5.04 5.92c0.318 0.0459 0.637 0.0801 0.959 0.0801 0.205 0 0.409-0.0127 0.613-0.0312a6 6 0 0 0 5.39-5.97 6 6 0 0 0-0.0254-0.502zm-6.97 7.5v1h9v-1h-9z" opacity=".45"/>
 <path d="m7 1a6 6 0 0 0-6 6 6 6 0 0 0 0.0254 0.502 6 6 0 0 1 5.97-5.5 6 6 0 0 1 5.97 5.5 6 6 0 0 0 0.0254-0.498 6 6 0 0 0-6-6zm6.92 5c0.049 0.331 0.084 0.665 0.084 1h1v-1h-1.08zm0.0528 1.62c-0.149 1.62-0.87 3.18-2.02 4.33-1.15 1.15-2.72 1.87-4.34 2.02a6 6 0 0 1-0.613 0.0312 6 6 0 0 1-0.959-0.0801c-0.0136-0.0019-0.0274-0.0019-0.041-0.0039v1c0.331 0.049 0.665 0.084 1 0.084 1.83 0 3.65-0.755 4.95-2.05s2.05-3.12 2.05-4.95c0-0.127-0.0223-0.252-0.0312-0.379z" fill="#fff" opacity=".6"/>
</svg>
