<?xml version="1.0" encoding="UTF-8"?>
<svg width="16" height="16" version="1.1" xmlns="http://www.w3.org/2000/svg">
 <defs>
  <linearGradient id="gr0" x1="8" x2="8" y1="1" y2="15" gradientUnits="userSpaceOnUse">
   <stop stop-color="#ebebeb" offset="0"/>
   <stop stop-color="#aaa" offset="1"/>
  </linearGradient>
 </defs>
 <path d="m6 0c-1.57 2.89e-16 -3.13 0.647-4.24 1.76-1.11 1.11-1.76 2.67-1.76 4.24 0.00109 1.37 0.487 2.73 1.35 3.79 0.684 0.837 1.63 1.4 2.65 1.77v3.44a1 1 0 0 0 1 1h10a1 1 0 0 0 1-1v-10a1 1 0 0 0-1-1h-3.44c-0.368-1.02-0.93-1.96-1.77-2.65-1.06-0.866-2.43-1.35-3.79-1.35zm0 1a5 5 0 0 1 0.385 0.0156c-0.0095-0.00113 0.0479 0.00367 0.0273 0.00196-0.309-0.0258 0.714 0.102 0.408 0.0508-0.012-2e-3 0.0237 0.00514 0.0156 0.00391a5 5 0 0 1 0.00586 0c-0.022-0.00315 0.0404 0.00849 0.0508 0.0117 0.0674 0.0209 0.577 0.131 0.33 0.0684-0.0371-0.00938 0.0516 0.0132 0.0488 0.0137a5 5 0 0 1 0.184 0.0547c0.134 0.0389 0.283 0.0902 0.162 0.0488-0.0773-0.0265 0.0503 0.0173 0.102 0.0391a5 5 0 0 1 0.178 0.0703c0.0578 0.0209 0.183 0.0751 0.105 0.041-0.102-0.0448 0.034 0.0149 0.133 0.0645a5 5 0 0 1 0.189 0.0918c-7.8e-4 -0.00174 0.0817 0.0423 0.0469 0.0234-0.125-0.0674 0.0225 0.012 0.162 0.0957a5 5 0 0 1 0.191 0.115c-0.0548-0.0357 0.0478 0.0329 0.0703 0.0508 0.0843 0.0669 0.459 0.338 0.266 0.188-0.0107-0.00832 0.0206 0.0169 0.0137 0.0117a5 5 0 0 1 0.16 0.135c0.121 0.102 0.243 0.213 0.141 0.119-0.0231-0.0212 0.0348 0.0333 0.0293 0.0293a5 5 0 0 1 0.186 0.184c0.0401 0.0376 0.132 0.136 0.0762 0.0762-0.0488-0.0527 0.0386 0.0417 0.0625 0.0723a5 5 0 0 1 0.154 0.184c0.0133 0.0133 0.0867 0.104 0.0508 0.0586-0.0761-0.0972 0.0192 0.0247 0.0957 0.133a5 5 0 0 1 0.121 0.168c-0.0033-0.00631 0.0403 0.0588 0.0234 0.0332-0.116-0.177 0.0446 0.083 0.143 0.24a5 5 0 0 1 0.0664 0.105c-0.0019-0.00352 0.0042 0.00986 2e-3 0.00586-0.149-0.272 0.307 0.653 0.182 0.369a5 5 0 0 1 0.0039 0.0117 5 5 0 0 1 0.0977 0.242c0.0371 0.0898 0.085 0.227 0.0508 0.129-0.0157-0.0448 0.0172 0.0546 0.0175 0.0606a5 5 0 0 1 0.0723 0.238 5 5 0 0 1 0.0898 0.346h4.1v10h-10v-4.11a5 5 0 0 1-0.268-0.0644 5 5 0 0 1-0.217-0.0645c-0.121-0.0358-0.279-0.0903-0.16-0.0488 0.0495 0.0172-0.0546-0.0199-0.0644-0.0254a5 5 0 0 1-0.238-0.0957c-0.0248-0.0082-0.136-0.0571-0.0781-0.0312 0.0735 0.0325-0.0488-0.022-0.0957-0.0469a5 5 0 0 1-0.217-0.107c-0.00574-0.0013-0.0983-0.0501-0.0566-0.0274 0.143 0.0778-0.024-0.0131-0.186-0.109a5 5 0 0 1-0.143-0.0859c0.00765 0.0055-0.0442-0.028-0.0254-0.0156 0.191 0.126-0.118-0.0914-0.246-0.178a5 5 0 0 1-0.0879-0.0625 5 5 0 0 1-0.209-0.18c-0.072-0.0596-0.179-0.157-0.104-0.0879 0.0168 0.0156-0.0286-0.0276-0.0215-0.0215a5 5 0 0 1-0.178-0.178c-0.0611-0.0591-0.158-0.164-0.0918-0.0918 0.0431 0.047-0.0389-0.0434-0.0547-0.0645a5 5 0 0 1-0.154-0.182c-0.0212-0.0227-0.0977-0.121-0.0566-0.0684 0.0701 0.0904-0.0218-0.0281-0.0879-0.123a5 5 0 0 1-0.119-0.166c-0.00101 7.6e-4 -0.0538-0.0796-0.0312-0.0449 0.09 0.138-0.0141-0.0242-0.111-0.188a5 5 0 0 1-0.0977-0.166c0.0312 0.0577-0.0276-0.0513-0.0391-0.0781-0.0426-0.1-0.241-0.517-0.143-0.293 0.00694 0.0158-0.0118-0.03-0.00781-0.0215a5 5 0 0 1-0.0644-0.164c-0.0669-0.173-0.128-0.348-0.0762-0.197 0.017 0.0494-0.0178-0.0555-0.0195-0.0664a5 5 0 0 1-0.0625-0.209c-0.0234-0.0735-0.0582-0.21-0.0352-0.119 0.0189 0.0745-0.0132-0.0533-0.0215-0.0996a5 5 0 0 1-0.0469-0.221c-0.00686-0.0247-0.028-0.144-0.0176-0.082 0.025 0.149-0.00373-0.0246-0.0254-0.199a5 5 0 0 1-0.0195-0.164c-4.3e-4 0.00529-0.00872-0.079-0.00586-0.0449 0.026 0.309-0.018-0.721-0.0176-0.41v-0.00195a5 5 0 0 1 0.0195-0.424c-0.00126-0.00381 0.00782-0.106 0.00391-0.0664-0.011 0.111 0.00639-0.0519 0.0273-0.184a5 5 0 0 1 0.0352-0.24c-0.00121-1e-3 0.017-0.0967 0.00976-0.0606-0.0212 0.106 0.0108-0.0528 0.043-0.176a5 5 0 0 1 0.0625-0.246c-0.00166 0.00136 0.0235-0.087 0.0137-0.0547-0.0332 0.109 0.0163-0.0491 0.0645-0.18a5 5 0 0 1 0.084-0.232c-0.00213 0.00233 0.0299-0.0805 0.0176-0.0508-0.0581 0.14 0.0215-0.046 0.107-0.229a5 5 0 0 1 0.0703-0.15c0.00165-0.00704 0.0515-0.102 0.0312-0.0644-0.0767 0.144 0.0302-0.0498 0.139-0.232a5 5 0 0 1 0.084-0.139c-0.00183 5.6e-4 0.0483-0.0773 0.0293-0.0488-0.0907 0.136 0.0358-0.0471 0.162-0.219a5 5 0 0 1 0.0996-0.133c-0.00286 0.00181 0.0514-0.0676 0.0312-0.043-0.0884 0.108 0.0318-0.0353 0.156-0.172a5 5 0 0 1 0.152-0.168c-0.00616 0.00559 0.035-0.0369 0.0215-0.0234-0.0927 0.0927 0.035-0.032 0.162-0.146a5 5 0 0 1 0.176-0.16c-0.00656 0.00476 0.0414-0.0366 0.0254-0.0234-0.131 0.107 0.0532-0.0378 0.227-0.168a5 5 0 0 1 0.139-0.104c-0.00684 0.00394 0.0474-0.0336 0.0293-0.0215-0.145 0.0966 0.0618-0.0349 0.248-0.148a5 5 0 0 1 0.15-0.0898c-0.00743 0.00366 0.035-0.0209 0.0215-0.0137-0.138 0.0735 0.048-0.0228 0.234-0.111a5 5 0 0 1 0.195-0.0918c-0.00603 0.0024 0.0219-0.00928 0.0137-0.00586-0.11 0.0456 0.047-0.0173 0.188-0.0664a5 5 0 0 1 0.268-0.0957c-0.00418 0.00123 0.0128-0.00541 0.00781-0.00391-0.127 0.0386 0.0456-0.013 0.215-0.0547a5 5 0 0 1 0.252-0.0625c-0.00477 9e-4 0.0156-0.00312 0.00977-0.00196-0.283 0.0563 0.709-0.0913 0.475-0.0703-0.00485 4.4e-4 0.0157-0.00254 0.00977-0.00195-0.293 0.0289 0.785-0.0234 0.49-0.0234zm-1 3a1 1 0 0 0-1 1v4.45a4 4 0 0 0 1 0.414v-4.87h4.87a4 4 0 0 0-0.416-1h-4.45zm1 2v4a4 4 0 0 0 1-0.131v-2.87h2.87a4 4 0 0 0 0.133-1h-4zm5 0a5 5 0 0 1-0.0039 0.0898 5 5 0 0 1-0.0156 0.332c0.0012-0.00129-8e-3 0.109-0.0039 0.0684 0.0109-0.111-0.0064 0.0519-0.0274 0.184a5 5 0 0 1-0.0351 0.24c0.0012 1e-3 -0.017 0.0967-0.0098 0.0606 0.0212-0.106-0.0108 0.0528-0.043 0.176a5 5 0 0 1-0.0625 0.246c0.0017-0.00136-0.0235 0.087-0.0136 0.0547 0.0331-0.109-0.0163 0.0491-0.0645 0.18a5 5 0 0 1-0.084 0.232c0.0022-0.00233-0.0299 0.0805-0.0176 0.0508 0.0582-0.14-0.0215 0.046-0.107 0.229a5 5 0 0 1-0.0703 0.15c-0.0016 0.00704-0.0515 0.102-0.0312 0.0644 0.0767-0.144-0.0302 0.0498-0.139 0.232a5 5 0 0 1-0.084 0.139c0.0018-5.6e-4 -0.0483 0.0773-0.0293 0.0488 0.0906-0.136-0.0358 0.0471-0.162 0.219a5 5 0 0 1-0.0996 0.133c0.00286-0.00181-0.0514 0.0676-0.0312 0.043 0.0884-0.108-0.0318 0.0353-0.156 0.172a5 5 0 0 1-0.152 0.168c0.00616-0.00559-0.035 0.0369-0.0215 0.0234 0.0927-0.0927-0.035 0.032-0.162 0.146a5 5 0 0 1-0.176 0.16c0.00656-0.00476-0.0414 0.0366-0.0254 0.0234 0.131-0.107-0.0532 0.0378-0.227 0.168a5 5 0 0 1-0.139 0.104c0.00684-0.0039-0.0474 0.0336-0.0293 0.0215 0.145-0.0966-0.0618 0.0349-0.248 0.148a5 5 0 0 1-0.15 0.0899c0.00743-0.0037-0.035 0.0209-0.0215 0.0137 0.138-0.0736-0.048 0.0228-0.234 0.111a5 5 0 0 1-0.195 0.0918c0.00603-0.0024-0.0219 0.0093-0.0137 0.0058 0.11-0.0455-0.047 0.0173-0.188 0.0664a5 5 0 0 1-0.268 0.0957c0.00418-0.0012-0.0128 0.0055-0.00781 4e-3a5 5 0 0 1-0.457 0.115c0.00749-0.0013-0.0312 0.0062-0.0195 0.0039a5 5 0 0 1-0.475 0.0703c0.00485-4e-4 -0.0157 0.0025-0.00977 2e-3 0.293-0.0289-0.785 0.0234-0.49 0.0234v3h8v-8h-3zm0.799 1h1.2v6h-6v-1.2c1.21-0.214 2.37-0.688 3.24-1.56 0.868-0.869 1.34-2.03 1.56-3.24z" opacity=".25"/>
 <path d="m6 1a5 5 0 0 0-5 5 5 5 0 0 0 4 4.9v4.1h10v-10h-4.1a5 5 0 0 0-4.9-4zm0 1a4 4 0 0 1 3.87 3h-4.87v4.87a4 4 0 0 1-3-3.87 4 4 0 0 1 4-4zm0 4h4a4 4 0 0 1-4 4v-4zm5 0h3v8h-8v-3a5 5 0 0 0 5-5z" fill="url(#gr0)"/>
 <path d="m6 2a5 5 0 0 0-0.348 0.0176 4 4 0 0 0-3.65 3.98 4 4 0 0 0 0.0352 0.506 4 4 0 0 1 3.96-3.51 4 4 0 0 1 3.45 2h0.416a4 4 0 0 0-3.87-3zm0 4v1h3.87a4 4 0 0 0 0.133-1h-4zm5 0a5 5 0 0 1-4.65 4.98 4 4 0 0 1-0.348 0.0176v1a5 5 0 0 0 5-5h3v-1h-3zm-9.97 0.516a5 5 0 0 0-0.0273 0.484 5 5 0 0 0 4 4.89v-1a5 5 0 0 1-3.97-4.38zm3.97 8.48v1h10v-1h-10z" opacity=".45"/>
 <path d="m6 1a5 5 0 0 0-5 5 5 5 0 0 0 0.0273 0.516 5 5 0 0 1 4.62-4.5 4 4 0 0 1 0.348-0.0176 5 5 0 0 1 4.9 4h4.1v-1h-4.1a5 5 0 0 0-4.9-4zm-1 4v1h4.87a4 4 0 0 0-0.416-1h-4.45zm-2.96 1.51a4 4 0 0 0-0.0352 0.494 4 4 0 0 0 3 3.87v-1a4 4 0 0 1-2.96-3.36zm7.83 0.494a4 4 0 0 1-3.87 3v1a5 5 0 0 0 0.348-0.0176 4 4 0 0 0 3.65-3.98h-0.133zm-3.87 7v1h8v-1h-8z" fill="#fff" opacity=".6"/>
</svg>
