<?xml version="1.0" encoding="UTF-8"?>
<svg width="16" height="16" version="1.1" xmlns="http://www.w3.org/2000/svg">
 <defs>
  <linearGradient id="gr0" x1="8" x2="8" y1="4" y2="12" gradientUnits="userSpaceOnUse">
   <stop stop-color="#ebebeb" offset="0"/>
   <stop stop-color="#aaa" offset="1"/>
  </linearGradient>
 </defs>
 <path d="m8 3c-1.15 0-2.45 0.391-4.11 1.88-1.23 1.11-2.88 1.12-2.88 1.12a1 1 0 0 0-1.01 1v5a1 1 0 0 0 0.988 1s2.36 0.0587 4.24-1.63c1.46-1.31 1.92-1.37 2.77-1.37 0.85 0 1.31 0.0595 2.77 1.37 1.88 1.69 4.24 1.63 4.24 1.63a1 1 0 0 0 0.988-1v-5a1 1 0 0 0-1.01-1s-1.65-0.00942-2.88-1.12c-1.66-1.49-2.96-1.88-4.11-1.88zm0 1c1 0 1.88 0.225 3.44 1.62s3.56 1.38 3.56 1.38v5s-2.01 0.0247-3.56-1.38-2.44-1.62-3.44-1.62-1.88 0.225-3.44 1.62c-1.56 1.4-3.56 1.38-3.56 1.38v-5s2.01 0.0247 3.56-1.38 2.44-1.62 3.44-1.62z" opacity=".25"/>
 <path d="m8 4c-1 0-1.88 0.225-3.44 1.62s-3.56 1.38-3.56 1.38v5s2.01 0.0247 3.56-1.38c1.56-1.4 2.44-1.62 3.44-1.62s1.88 0.225 3.44 1.62c1.56 1.4 3.56 1.38 3.56 1.38v-5s-2.01 0.0247-3.56-1.38c-1.56-1.4-2.44-1.62-3.44-1.62z" fill="url(#gr0)"/>
 <path d="m8 9c-1 0-1.88 0.225-3.44 1.62-1.56 1.4-3.56 1.38-3.56 1.38v1s2.01 0.025 3.56-1.38c1.56-1.4 2.44-1.62 3.44-1.62s1.88 0.225 3.44 1.62 3.56 1.38 3.56 1.38v-1s-2.01 0.0247-3.56-1.38-2.44-1.62-3.44-1.62z" opacity=".45"/>
 <path d="m8 4c-1 0-1.88 0.225-3.44 1.62s-3.56 1.38-3.56 1.38v1s2.01 0.0247 3.56-1.38 2.44-1.62 3.44-1.62 1.88 0.225 3.44 1.62 3.56 1.38 3.56 1.38v-1s-2.01 0.0247-3.56-1.38-2.44-1.62-3.44-1.62z" fill="#fff" opacity=".6"/>
</svg>
