<?xml version="1.0" encoding="UTF-8"?>
<svg width="16" height="16" version="1.1" xmlns="http://www.w3.org/2000/svg">
 <defs>
  <linearGradient id="gr0" x1="8" x2="8" y1="1" y2="15" gradientUnits="userSpaceOnUse">
   <stop stop-color="#ebebeb" offset="0"/>
   <stop stop-color="#aaa" offset="1"/>
  </linearGradient>
 </defs>
 <path d="m4.94 0c-1.41-0.0117-2.86 0.664-4.23 1.96-0.794 0.64-0.91 1.93-0.242 2.7 0.673 0.772 2.07 0.763 2.73-0.0195l-0.0684 0.0723c1.1-1.06 1.48-1.06 1.93-0.992 0.36 0.052 1.06 0.451 1.89 1.09 0.831 0.641 1.85 1.53 3.29 1.97 1.5 0.456 3.31 0.193 5-1.04a1 1 0 0 0-0.588-0.809c-1.48 1.08-2.93 1.25-4.12 0.889-1.19-0.364-2.11-1.14-2.97-1.8-0.858-0.662-1.63-1.19-2.36-1.29s-1.55 0.0857-2.77 1.26a0.82 0.861 0 1 1-1.1-1.26c1.26-1.22 2.48-1.74 3.6-1.73 0.16 0.0013 0.317 0.0127 0.473 0.0352 1.25 0.18 2.22 0.909 3.1 1.59s1.71 1.32 2.48 1.56c0.779 0.238 1.53 0.186 2.71-0.674a0.828 0.87 0 0 1 0.947 1.43 1.36 1.36 0 1 0-1.54-2.24c-1.03 0.752-1.27 0.699-1.84 0.525-0.485-0.148-1.28-0.713-2.16-1.4-0.891-0.686-2.02-1.56-3.57-1.79-0.203-0.0293-0.405-0.0433-0.607-0.0449zm0.0644 7a1 1 0 0 0-0.707 1.71l3 3a1 1 0 0 0 0.723 0.293 1 1 0 0 0 0.691-0.293l3-3a1 1 0 0 0-0.707-1.71h-6zm3.02 5h-6.15l0.0566 2e-3c-0.0595-0.0034-0.12-0.0031-0.18 0-1.07 0.0513-1.78 1.12-1.74 2.08 0.0182 0.479 0.191 0.959 0.527 1.33s0.865 0.619 1.4 0.584l-0.0644 2e-3h12.3c1.08 0.0186 1.85-1.04 1.85-2s-0.772-2.02-1.85-2h-6.13zm-3.02-4h6l-3 3-3-3zm-3.21 5a0.821 1 0 0 1 0.0762 0h12.3a0.821 1 0 1 1 0 2h-12.3a0.821 1 0 1 1-0.0762-2z" opacity=".25"/>
 <path d="m4.93 1c-1.12-0.00923-2.34 0.513-3.6 1.73a0.82 0.861 0 1 0 1.1 1.26c1.22-1.18 2.04-1.37 2.77-1.26s1.5 0.629 2.36 1.29c0.858 0.662 1.78 1.44 2.97 1.8 1.2 0.364 2.64 0.19 4.12-0.889a0.828 0.87 0 0 0-0.947-1.43c-1.18 0.86-1.94 0.911-2.72 0.674-0.778-0.237-1.6-0.88-2.48-1.56s-1.85-1.41-3.1-1.59c-0.156-0.0225-0.313-0.0339-0.473-0.0352zm0.0723 7 3 3 3-3h-6zm-3.21 5a0.821 1 0 1 0 0.0761 2h12.3a0.821 1 0 1 0 0-2h-12.3a0.821 1 0 0 0-0.0758 0z" fill="url(#gr0)"/>
 <path d="m4.63 2.72c-0.594 0.0646-1.28 0.392-2.2 1.28a0.82 0.861 0 0 1-1.28-0.0723 0.82 0.861 0 0 0 1.28 1.07c1.22-1.18 2.04-1.37 2.77-1.26s1.5 0.629 2.36 1.29c0.858 0.662 1.78 1.44 2.97 1.8 1.2 0.364 2.64 0.19 4.12-0.889a0.828 0.87 0 0 0 0.203-1.21 0.828 0.87 0 0 1-0.203 0.215c-1.48 1.08-2.93 1.25-4.12 0.889-1.19-0.364-2.11-1.14-2.97-1.8-0.858-0.662-1.63-1.19-2.36-1.29-0.182-0.0262-0.368-0.0332-0.566-0.0117zm0.371 6.28 3 3 3-3h-1l-2 2-2-2h-1zm-3.89 5.5a0.821 1 0 0 0 0.756 1.5h12.3a0.821 1 0 0 0 0.723-1.5 0.821 1 0 0 1-0.723 0.5h-12.3a0.821 1 0 0 1-0.756-0.5z" opacity=".45"/>
 <path d="m4.93 1c-1.12-0.0092-2.34 0.513-3.6 1.73a0.82 0.861 0 0 0-0.176 1.19 0.82 0.861 0 0 1 0.176-0.191c1.26-1.22 2.48-1.74 3.6-1.73 0.16 0.0013 0.317 0.0127 0.473 0.0352 1.25 0.18 2.22 0.909 3.1 1.59s1.71 1.32 2.48 1.56c0.779 0.238 1.53 0.186 2.71-0.674a0.828 0.87 0 0 1 1.15 0.213 0.828 0.87 0 0 0-1.15-1.21c-1.18 0.86-1.94 0.911-2.71 0.674-0.778-0.237-1.6-0.88-2.48-1.56s-1.85-1.41-3.1-1.59c-0.156-0.0225-0.313-0.0339-0.473-0.0352zm0.0723 7 1 1h4l1-1h-6zm-3.21 5a0.821 1 0 0 0-0.68 1.5 0.821 1 0 0 1 0.68-0.5 0.821 1 0 0 1 0.0762 0h12.3a0.821 1 0 0 1 0.723 0.5 0.821 1 0 0 0-0.723-1.5h-12.3a0.821 1 0 0 0-0.0762 0z" fill="#fff" opacity=".6"/>
</svg>
