<?xml version="1.0" encoding="UTF-8"?>
<svg width="16" height="16" version="1.1" xmlns="http://www.w3.org/2000/svg">
 <defs>
  <linearGradient id="gr0" x1="8" x2="8" y1="1" y2="14" gradientUnits="userSpaceOnUse">
   <stop stop-color="#ebebeb" offset="0"/>
   <stop stop-color="#aaa" offset="1"/>
  </linearGradient>
 </defs>
 <path d="m6 0c-1.57 2.89e-16 -3.13 0.647-4.24 1.76-1.11 1.11-1.76 2.67-1.76 4.24 1.92e-16 1.57 0.647 3.13 1.76 4.24 0.93 0.93 2.18 1.53 3.48 1.7a6 6 0 0 0 0.762 0.0566c0.167 0 0.334-0.011 0.5-0.0254a6 6 0 0 0 0.277-0.0332c0.12-0.0161 0.241-0.0313 0.359-0.0547a6 6 0 0 0 0.111-0.0254c0.166-0.0359 0.33-0.0754 0.492-0.125 0.375-0.115 0.739-0.265 1.09-0.449 0.168-0.0893 0.332-0.186 0.49-0.291a6 6 0 0 0 0.0938-0.0664c0.129-0.0883 0.254-0.181 0.375-0.279a6 6 0 0 0 0.133-0.117c0.101-0.0871 0.204-0.174 0.299-0.268a6 6 0 0 0 0.144-0.156c0.0918-0.0977 0.185-0.195 0.27-0.299a6 6 0 0 0 0.0058-0.00586c0.0139-0.017 0.0254-0.0356 0.0391-0.0527 0.108-0.136 0.213-0.274 0.309-0.418a6 6 0 0 0 0.0019-0.00195c0.0037-0.00558 0.0061-0.012 0.0098-0.0176 0.536-0.814 0.876-1.76 0.975-2.73 0.0199-0.195 0.0293-0.392 0.0293-0.588 0-0.165-0.0113-0.33-0.0254-0.494a6 6 0 0 0-0.0351-0.295c-0.177-1.29-0.773-2.53-1.7-3.45-1.11-1.11-2.67-1.76-4.24-1.76zm0 1a5 5 0 0 1 5 5 5 5 0 0 1-5 5 5 5 0 0 1-5-5 5 5 0 0 1 5-5zm5.91 3 0.943 0.795c0.0125 0.0858 0.016 0.116 0.0293 0.205h1.11v9h-9v-1.12c-0.0906-0.014-0.122-0.0163-0.209-0.0293l-0.791-0.941v2.09a1 1 0 0 0 1 1h9a1 1 0 0 0 1-1v-9a1 1 0 0 0-1-1h-2.09z" opacity=".25"/>
 <path d="m6 1a5 5 0 0 0-5 5 5 5 0 0 0 5 5 5 5 0 0 0 5-5 5 5 0 0 0-5-5zm5.91 4a6 6 0 0 1 0.086 1 6 6 0 0 1-6 6 6 6 0 0 1-1-0.09v2.09h9v-9h-2.09z" fill="url(#gr0)"/>
 <path d="m11.9 6a6 6 0 0 1 0.0605 0.506 6 6 0 0 0 0.0254-0.506h-0.0859zm-0.941 0.484a5 5 0 0 1-4.97 4.52 5 5 0 0 1-4.97-4.48 5 5 0 0 0-0.0273 0.484 5 5 0 0 0 4.53 4.97 6 6 0 0 0 0.471 0.0254 5 5 0 0 0 0.5-0.0254 5 5 0 0 0 4.5-4.97 5 5 0 0 0-0.0273-0.516zm-5.97 7.52v1h9v-1h-9z" opacity=".45"/>
 <path d="m6 1a5 5 0 0 0-5 5 5 5 0 0 0 0.0273 0.516 5 5 0 0 1 4.97-4.52 5 5 0 0 1 4.97 4.48 5 5 0 0 0 0.0273-0.484 5 5 0 0 0-5-5zm5.91 4a6 6 0 0 1 0.0859 1h2v-1h-2.09zm0.0605 1.51a6 6 0 0 1-5.47 5.47 6 6 0 0 1-0.5 0.0254 5 5 0 0 1-0.471-0.0254 6 6 0 0 1-0.529-0.0644v1a6 6 0 0 0 1 0.0898 6 6 0 0 0 6-6 6 6 0 0 0-0.0254-0.494z" fill="#fff" opacity=".6"/>
</svg>
