<?xml version="1.0" encoding="UTF-8"?>
<svg width="16" height="16" version="1.1" xmlns="http://www.w3.org/2000/svg">
 <defs>
  <linearGradient id="gr0" x1="8" x2="8" y1="6" y2="16" gradientUnits="userSpaceOnUse">
   <stop stop-color="#ebebeb" offset="0"/>
   <stop stop-color="#aaa" offset="1"/>
  </linearGradient>
 </defs>
 <path d="m8 5c-1.64 0-3 1.36-3 3 0 0.526 0.322 0.922 0.564 1.35-0.184 0.0561-0.363 0.0693-0.547 0.162-0.444 0.224-1.02 0.742-1.02 1.48 0 1.4 0.575 2.73 1.11 3.77 0.534 1.04 1.07 1.81 1.07 1.81a1 1 0 0 0 0.816 0.422h2a1 1 0 0 0 0.84-0.459s0.529-0.82 1.06-1.89 1.1-2.35 1.1-3.65c0-0.378-0.17-0.746-0.375-0.98-0.205-0.235-0.432-0.374-0.65-0.482-0.183-0.0906-0.364-0.106-0.547-0.162 0.249-0.436 0.572-0.841 0.572-1.38 0-1.64-1.36-3-3-3zm0 1c1.1 0 2 0.895 2 2s-0.895 2-2 2c0 0 3 0.026 3 1 0 1.9-2 5-2 5h-2s-2-2.82-2-5c0-1.03 3-1 3-1-1.1 0-2-0.895-2-2s0.895-2 2-2z" opacity=".25"/>
 <path d="m8 6c-1.1 0-2 0.895-2 2s0.895 2 2 2 2-0.895 2-2-0.895-2-2-2zm0 4s-3-0.0315-3 1c0 2.18 2 5 2 5h2s2-3.1 2-5c0-0.974-3-1-3-1z" fill="url(#gr0)"/>
 <path d="m8 0c-4.42 0-8 3.58-8 8 0 3.58 2.36 6.61 5.6 7.63-0.159-0.268-0.314-0.514-0.492-0.862-0.0838-0.163-0.167-0.346-0.25-0.523-2.29-1.15-3.86-3.51-3.86-6.25 0-3.87 3.13-7 7-7s7 3.13 7 7c0 2.76-1.6 5.14-3.93 6.28-0.058 0.123-0.115 0.252-0.174 0.369-0.194 0.395-0.368 0.695-0.537 0.993 3.27-1.01 5.64-4.05 5.64-7.64 0-4.42-3.58-8-8-8zm0 2c-3.31 0-6 2.69-6 6 0 1.9 0.888 3.6 2.27 4.7-0.156-0.545-0.27-1.11-0.27-1.7 0-9e-3 0.0018-0.017 2e-3 -0.025-0.621-0.834-1-1.86-1-2.98 0-2.76 2.24-5 5-5 2.76 0 5 2.24 5 5 0 1.12-0.381 2.14-1 2.98 0 8e-3 2e-3 0.016 2e-3 0.025 0 0.583-0.125 1.16-0.301 1.72 1.4-1.1 2.3-2.8 2.3-4.72 0-3.31-2.69-6-6-6zm0 2c-2.21 0-4 1.79-4 4 0 0.694 0.193 1.34 0.504 1.9 0.167-0.164 0.346-0.304 0.514-0.389 0.116-0.0587 0.231-0.0873 0.346-0.113-0.224-0.42-0.363-0.893-0.363-1.4 0-0.206 0.0211-0.407 0.0605-0.602 3e-4 -0.0012-2e-4 -0.0026 0-0.0039 0.24-1.17 1.16-2.09 2.33-2.33 0.195-0.0399 0.398-0.0605 0.606-0.0605 0.206 0 0.407 0.0203 0.602 0.0605 0.0012 3e-4 0.0026-2e-4 0.0039 0 1.17 0.24 2.09 1.16 2.33 2.33 0.041 0.196 0.061 0.399 0.061 0.606 0 0.518-0.144 0.998-0.375 1.42 0.116 0.0268 0.233 0.0554 0.35 0.113 0.174 0.0866 0.351 0.208 0.521 0.367 0.311-0.569 0.504-1.21 0.504-1.9 0-2.21-1.79-4-4-4z" fill="#fff" opacity=".4"/>
 <path d="m6.07 8.5c-0.0416 0.161-0.0703 0.326-0.0703 0.5 0 0.425 0.135 0.818 0.361 1.14 0.794-0.147 1.64-0.143 1.64-0.143-0.931 0-1.71-0.639-1.93-1.5zm1.93 1.5s0.834 0.0119 1.62 0.162c0.235-0.328 0.377-0.728 0.377-1.16 0-0.174-0.0287-0.339-0.0703-0.5-0.223 0.861-0.999 1.5-1.93 1.5zm-2.92 1.75c-0.0451 0.077-0.0762 0.16-0.0762 0.254 0 2.18 2 5 2 5h2s2-3.1 2-5c0-0.0933-0.0342-0.175-0.084-0.252-0.378 1.87-1.92 4.25-1.92 4.25h-2s-1.57-2.23-1.92-4.25z" opacity=".45"/>
 <path d="m8 6c-1.1 0-2 0.895-2 2 0 0.174 0.0287 0.339 0.0703 0.5 0.223-0.861 0.999-1.5 1.93-1.5s1.71 0.639 1.93 1.5c0.0416-0.161 0.0703-0.326 0.0703-0.5 0-1.1-0.895-2-2-2zm-1.64 4.14c-0.7 0.129-1.36 0.374-1.36 0.857 0 0.242 0.0323 0.493 0.0762 0.746 0.451-0.77 2.92-0.746 2.92-0.746-0.679 0-1.28-0.34-1.64-0.857zm1.64 0.857s2.45 0.0238 2.92 0.748c0.0531-0.262 0.084-0.515 0.084-0.748 0-0.46-0.671-0.704-1.38-0.838-0.363 0.506-0.953 0.838-1.62 0.838z" fill="#fff" opacity=".6"/>
</svg>
