<?xml version="1.0" encoding="UTF-8"?>
<svg width="16" height="16" version="1.1" xmlns="http://www.w3.org/2000/svg">
 <defs>
  <linearGradient id="gr0" x1="8" x2="8" y1="1" y2="14" gradientUnits="userSpaceOnUse">
   <stop stop-color="#ebebeb" offset="0"/>
   <stop stop-color="#aaa" offset="1"/>
  </linearGradient>
 </defs>
 <path d="m3.5 0c-1.31 2.4e-16 -2.5 1.19-2.5 2.5 4e-4 0.74 0.435 1.37 1 1.84v4.66h-0.00195a1 1 0 0 0-1 1v4a1 1 0 0 0 1 1h4a1 1 0 0 0 1-1v-4a1 1 0 0 0-0.143-0.512c0.377-0.495 0.696-1.01 1.18-1.45 1.71-1.57 4-2.7 5.56-2.94l-0.254 0.00586c0.979 0.0993 1.82-0.885 1.71-1.8-0.0547-0.459-0.311-0.901-0.715-1.17-0.394-0.258-0.925-0.307-1.37-0.145-2.36 0.407-4.9 1.69-7 3.61-0.386 0.354-0.619 0.85-0.969 1.25v-2.5c0.567-0.472 1-1.1 1-1.84 0-1.31-1.19-2.5-2.5-2.5zm0 1a1.5 1.5 0 0 1 1.5 1.5 1.5 1.5 0 0 1-1 1.41v5.82c0.649-1.27 1.58-2.43 2.64-3.4 2.01-1.84 4.5-3.09 6.65-3.42a0.573 0.616 0 1 1 0.143 1.19c-1.86 0.285-4.23 1.5-6.08 3.19-0.881 0.807-1.63 1.73-2.18 2.7h0.822v4h-4v-4h1v-6.09a1.5 1.5 0 0 1-1-1.41 1.5 1.5 0 0 1 1.5-1.5z" opacity=".25"/>
 <path d="m3.5 1a1.5 1.5 0 0 0-1.5 1.5 1.5 1.5 0 0 0 1 1.41v6.09h-1v4h4v-4h-0.822c0.55-0.977 1.3-1.9 2.18-2.7 1.85-1.7 4.23-2.91 6.08-3.19a0.573 0.616 0 1 0-0.142-1.19c-2.15 0.33-4.64 1.58-6.65 3.42-1.06 0.975-2 2.13-2.64 3.4v-5.82a1.5 1.5 0 0 0 1-1.41 1.5 1.5 0 0 0-1.5-1.5z" fill="url(#gr0)"/>
 <path d="m2.09 3a1.5 1.5 0 0 0-0.0879 0.5 1.5 1.5 0 0 0 1 1.41v-1a1.5 1.5 0 0 1-0.914-0.914zm2.82 0.00195a1.5 1.5 0 0 1-0.914 0.912v1a1.5 1.5 0 0 0 1-1.41 1.5 1.5 0 0 0-0.0879-0.498zm8.91 0.988a0.573 0.616 0 0 1-0.385 0.113c-1.86 0.285-4.23 1.5-6.08 3.19-0.881 0.807-1.63 1.73-2.18 2.7h0.656c0.442-0.604 0.951-1.18 1.52-1.7 1.85-1.7 4.23-2.91 6.08-3.19a0.573 0.616 0 0 0 0.385-1.11zm-11.8 10v1h4v-1h-4z" opacity=".45"/>
 <path d="m3.5 1a1.5 1.5 0 0 0-1.5 1.5 1.5 1.5 0 0 0 0.0879 0.5 1.5 1.5 0 0 1 1.41-1 1.5 1.5 0 0 1 1.41 1 1.5 1.5 0 0 0 0.0879-0.502 1.5 1.5 0 0 0-1.5-1.5zm10 1.88a0.573 0.616 0 0 0-0.217 0.0371c-2.15 0.33-4.64 1.58-6.65 3.42-1.06 0.975-2 2.13-2.64 3.4v1c0.649-1.27 1.58-2.43 2.64-3.4 2.01-1.84 4.5-3.09 6.65-3.42a0.573 0.616 0 0 1 0.527 0.0781 0.573 0.616 0 0 0-0.31-1.12zm-11.5 7.12v1h1v-1h-1zm3.83 0c-0.239 0.326-0.463 0.658-0.656 1h0.822v-1h-0.166z" fill="#fff" opacity=".6"/>
</svg>
