<?xml version="1.0" encoding="UTF-8"?>
<svg width="16" height="16" version="1.1" xmlns="http://www.w3.org/2000/svg">
 <defs>
  <linearGradient id="gr0" x1="8" x2="8" y1="1.01" y2="15" gradientUnits="userSpaceOnUse">
   <stop stop-color="#ebebeb" offset="0"/>
   <stop stop-color="#aaa" offset="1"/>
  </linearGradient>
 </defs>
 <path d="m7.93 0.00977a1 1 0 0 0-0.941 0.664l-3.69 10.3h-2.3a1 1 0 0 0-1 1v3a1 1 0 0 0 1 1h3a1 1 0 0 0 1-1h3a1 1 0 0 0 0.5-0.137 1 1 0 0 0 0.5 0.137h2a1 1 0 0 0 0.5-0.137 1 1 0 0 0 0.5 0.137h3a1 1 0 0 0 1-1v-1a1 1 0 0 0-0.133-0.496 1 1 0 0 0 0.0742-0.83l-3.93-11a1 1 0 0 0-0.941-0.664h-3.14zm0 1h3.14l3.93 11h-2.36l-1.24-3.41h-3.91l-1.13 3.41h-2.36v2.99h-3v-3h3v0.0098l3.93-11zm1.57 2.36-1.55 3.93h3.14l-1.59-3.93zm0.00977 2.69 0.0938 0.234h-0.188l0.0938-0.234zm-1.3 3.54h2.49l0.902 2.48a1 1 0 0 0-0.106 0.0528 1 1 0 0 0-0.5-0.135h-2a1 1 0 0 0-0.5 0.135 1 1 0 0 0-0.5-0.135h-0.586l0.797-2.4zm-3.21 3.4h3v1h-3v-1zm4 0h2v1h-2v-1zm3 0h3v1h-3v-1z" opacity=".25"/>
 <path d="m7.93 1.01-3.93 11h2.36l1.13-3.41h3.91l1.24 3.41h2.36l-3.93-11-3.14-2e-4zm-3.93 11v-0.01h-3v3h3v-2.99zm5.5-8.64 1.59 3.93h-3.14l1.55-3.93zm-4.5 9.63v1h3v-1h-3zm4 0v1h2v-1h-2zm3 0v1h3v-1h-3z" fill="url(#gr0)"/>
 <path d="m9.5 3.37-1.55 3.93h0.396l1.16-2.93 1.18 2.93h0.404l-1.59-3.93zm-2.01 5.24-1.13 3.41h-2l-0.357 1h1v-0.0098h1.36l1.13-3.4h3.91l1.23 3.4h2.36l-0.354-0.99h-2l-1.24-3.41h-3.91zm-2.49 5.4v1h3v-1h-3zm4 0v1h2v-1h-2zm3 0v1h3v-1h-3zm-11 1v1h3v-1h-3z" opacity=".45"/>
 <path d="m7.93 1.01-3.93 11h0.357l3.57-10h3.14l3.57 10h0.357l-3.93-11h-3.14zm-3.93 11v-0.0098h-3v1h3v-0.99zm4.34-4.71-0.396 1h3.14l-0.404-1h-2.34zm-1.98 5.71-0.00391 0.0098h-1.36v0.99h3v-1h-1.64zm2.64 0v1h2v-1h-2zm3 0v1h3v-0.99h-2.36l-0.0039-0.0098h-0.639zm3 0.0098v-0.0098h-0.0039l0.0039 0.0098z" fill="#fff" opacity=".6"/>
</svg>
