<?xml version="1.0" encoding="UTF-8"?>
<svg width="16" height="16" version="1.1" xmlns="http://www.w3.org/2000/svg">
 <defs>
  <linearGradient id="gr0" x1="8" x2="8" y1="1" y2="15" gradientUnits="userSpaceOnUse">
   <stop stop-color="#ebebeb" offset="0"/>
   <stop stop-color="#aaa" offset="1"/>
  </linearGradient>
 </defs>
 <path d="m13 0a1 1 0 0 0-1 1v3a1 1 0 0 0 0.135 0.5 1 1 0 0 0-0.135 0.5v2a1 1 0 0 0 0.135 0.5 1 1 0 0 0-0.135 0.5v2h-1a1 1 0 0 0-1 1v1h-2a1 1 0 0 0-0.5 0.135 1 1 0 0 0-0.5-0.135h-2a1 1 0 0 0-0.5 0.135 1 1 0 0 0-0.5-0.135h-3a1 1 0 0 0-1 1v1a1 1 0 0 0 1 1h3a1 1 0 0 0 0.5-0.135 1 1 0 0 0 0.5 0.135h2a1 1 0 0 0 0.5-0.135 1 1 0 0 0 0.5 0.135h2a1 1 0 0 0 1 1h4a1 1 0 0 0 1-1v-4a1 1 0 0 0-1-1v-2a1 1 0 0 0-0.135-0.5 1 1 0 0 0 0.135-0.5v-2a1 1 0 0 0-0.135-0.5 1 1 0 0 0 0.135-0.5v-3a1 1 0 0 0-1-1h-1zm0 1h1v3h-1v-3zm0 4h1v2h-1v-2zm0 3h1v2h-1v-2zm-2 3h4v4h-4v-4zm-10 2h3v1h-3v-1zm4 0h2v1h-2v-1zm3 0h2v1h-2v-1z" opacity=".25"/>
 <path d="m13 1v3h1v-3h-1zm0 4v2h1v-2h-1zm0 3v2h1v-2h-1zm-2 3v4h4v-4h-4zm-10 2v1h3v-1h-3zm4 0v1h2v-1h-2zm3 0v1h2v-1h-2z" fill="url(#gr0)"/>
 <path d="m13 4v1h1v-1h-1zm0 3v1h1v-1h-1zm0 3v1h1v-1h-1zm-12 4v1h3v-1h-3zm4 0v1h2v-1h-2zm3 0v1h2v-1h-2zm3 1v1h4v-1h-4z" opacity=".45"/>
 <path d="m13 1v1h1v-1h-1zm0 4v1h1v-1h-1zm0 3v1h1v-1h-1zm-2 3v1h4v-1h-4zm-10 2v1h3v-1h-3zm4 0v1h2v-1h-2zm3 0v1h2v-1h-2z" fill="#fff" opacity=".6"/>
</svg>
