<?xml version="1.0" encoding="UTF-8"?>
<svg width="16" height="16" version="1.1" xmlns="http://www.w3.org/2000/svg">
 <defs>
  <linearGradient id="gr0" x1="8" x2="8" y1=".996" y2="15" gradientUnits="userSpaceOnUse">
   <stop stop-color="#ebebeb" offset="0"/>
   <stop stop-color="#aaa" offset="1"/>
  </linearGradient>
 </defs>
 <path d="m14.5-0.00391c-0.384 0.011-0.761 0.176-1.03 0.451l-4.4 4.4 1.25-0.102c-0.164-0.133-0.264-0.221 0.0391-0.00391l-0.0391 0.00391c0.0521 0.0422 0.084 0.0704 0.146 0.119l0.0156-0.0156c-0.0249-0.0254 0.0033-9.8e-4 0.0039-0.0039l3.7-3.7a0.5 0.5 0 0 1 0.344-0.15 0.5 0.5 0 0 1 0.363 0.857l-3.93 3.93 0.316 0.111-0.0293 0.334 3.11-1.2a0.5 0.5 0 0 1 0.18-0.0352 0.5 0.5 0 0 1 0.18 0.969l-2.8 1.08c-0.0027 6e-4 0.0078 0.0385-0.0059 0.00391l-0.0195 0.00586c0.0196 0.0791 0.0311 0.121 0.0488 0.188l0.0196-0.0352c0.0739 0.364 0.0344 0.237-0.0196 0.0352l-0.602 1.1 3.73-1.44c0.656-0.243 1.08-0.992 0.953-1.68-0.128-0.687-0.792-1.23-1.49-1.23h-0.0019c-0.155 0.00175-0.308 0.0408-0.455 0.0898l1.52-1.52c0.428-0.419 0.566-1.11 0.332-1.66-0.234-0.551-0.824-0.93-1.42-0.914h-2e-3zm-6.46 5c-1.57 0-3 1.43-3 3s1.43 3 3 3 3-1.43 3-3-1.43-3-3-3zm0 1a2 2 0 0 1 2 2 2 2 0 0 1-2 2 2 2 0 0 1-2-2 2 2 0 0 1 2-2zm-3.3 1.66-3.74 1.44a1 1 0 0 0 0.359 0.934l2.8-1.08c0.0026-7.7e-4 -0.00787-0.0389 0.00586-0.00391l0.0215-0.00781c-0.0195-0.0788-0.0331-0.119-0.0508-0.186l-0.0195 0.0352c-0.0738-0.364-0.0345-0.238 0.0195-0.0352l0.602-1.1zm0.0859 2.11-3.11 1.2a0.5 0.5 0 0 1-0.408-0.912 1 1 0 0 0 0.68 1.87l-1.51 1.51a1 1 0 0 0 0.707 0.707l3.93-3.93-0.316-0.111 0.0293-0.334zm0.785 1.36-0.0156 0.0156c0.0249 0.0254-0.00333 1e-3 -0.0039 0.0039l-3.7 3.7a0.5 0.5 0 0 1-0.746-0.662 1 1 0 0 0 1.45 1.37l4.41-4.41-1.25 0.102c0.164 0.132 0.264 0.22-0.0391 0.0039l0.0391-0.0039c-0.0521-0.0422-0.084-0.0704-0.146-0.119z" fill-rule="evenodd" opacity=".25"/>
 <path d="m14.5 0.996a0.5 0.5 0 0 0-0.344 0.15l-4.41 4.41a3 3 0 0 1 0.705 0.709l4.41-4.41a0.5 0.5 0 0 0-0.364-0.857zm0.01 4a0.5 0.5 0 0 0-0.18 0.0352l-3.74 1.44a3 3 0 0 1 0.36 0.934l3.74-1.44a0.5 0.5 0 0 0-0.18-0.969zm-6.5 1a2 2 0 0 0-2 2 2 2 0 0 0 2 2 2 2 0 0 0 2-2 2 2 0 0 0-2-2zm-2.94 2.59-3.74 1.44a0.5 0.5 0 1 0 0.359 0.934l3.74-1.44a3 3 0 0 1-0.359-0.934zm0.496 1.14-4.41 4.41a0.5 0.5 0 1 0 0.707 0.708l4.41-4.41a3 3 0 0 1-0.705-0.709z" fill="url(#gr0)" fill-rule="evenodd"/>
 <path d="m14.7 2.03-4.24 4.24a3 3 0 0 0-0.186-0.229l-0.52 0.52a3 3 0 0 1 0.705 0.709l0.35-0.35a3 3 0 0 0-0.213-0.443l1.07-0.41 3.21-3.21a0.5 0.5 0 0 0-0.174-0.826zm-0.0977 3.98-3.64 1.4a3 3 0 0 0-0.0137-0.0664l-0.346 0.133a3 3 0 0 1 0.359 0.934l3.74-1.44a0.5 0.5 0 0 0-0.0977-0.963zm-8.52 2.49a2 2 0 0 0-0.0644 0.504 2 2 0 0 0 2 2 2 2 0 0 0 2-2 2 2 0 0 0-0.0644-0.496 2 2 0 0 1-1.94 1.5 2 2 0 0 1-1.94-1.5zm-0.986 1.16-3.4 1.31a0.5 0.5 0 0 1-0.258 0.0273l-0.102 0.0391a0.5 0.5 0 1 0 0.359 0.934l2.68-1.03 0.854-0.854a3 3 0 0 1-0.131-0.424zm0.666 1.3-3.89 3.89a0.5 0.5 0 0 1-0.527 0.115 0.5 0.5 0 0 1-0.00195 0l-0.178 0.178a0.5 0.5 0 1 0 0.707 0.707l4.41-4.41a3 3 0 0 1-0.52-0.48z" fill-rule="evenodd" opacity=".45"/>
 <path d="m14.5 0.996a0.5 0.5 0 0 0-0.344 0.15l-4.41 4.41a3 3 0 0 1 0.52 0.48l3.89-3.89a0.5 0.5 0 0 1 0.344-0.15 0.5 0.5 0 0 1 0.19 0.0312l0.174-0.174a0.5 0.5 0 0 0-0.363-0.857zm0.0098 4a0.5 0.5 0 0 0-0.18 0.0352l-2.68 1.03-0.854 0.854a3 3 0 0 1 0.133 0.424l3.4-1.31a0.5 0.5 0 0 1 0.18-0.0352 0.5 0.5 0 0 1 0.082 0.00586l0.0977-0.0371a0.5 0.5 0 0 0-0.18-0.969zm-6.5 1a2 2 0 0 0-2 2 2 2 0 0 0 0.0644 0.496 2 2 0 0 1 1.94-1.5 2 2 0 0 1 1.94 1.5 2 2 0 0 0 0.0644-0.504 2 2 0 0 0-2-2zm-2.94 2.59-3.74 1.44a0.5 0.5 0 0 0 0.102 0.961l3.64-1.4a3 3 0 0 0 0.0156 0.0664l0.344-0.133a3 3 0 0 1-0.359-0.934zm0.496 1.14-0.35 0.35a3 3 0 0 0 0.213 0.443l-1.07 0.41-3.21 3.21a0.5 0.5 0 0 0 0.178 0.822 0.5 0.5 0 0 0 0.00195 0l4.23-4.23a3 3 0 0 0 0.186 0.228l0.52-0.52a3 3 0 0 1-0.705-0.709z" fill="#fff" fill-rule="evenodd" opacity=".6"/>
</svg>
