<?xml version="1.0" encoding="UTF-8"?>
<svg width="16" height="16" version="1.1" xmlns="http://www.w3.org/2000/svg">
 <defs>
  <linearGradient id="gr0" x1="8" x2="8" y1="2" y2="14" gradientUnits="userSpaceOnUse">
   <stop stop-color="#ebebeb" offset="0"/>
   <stop stop-color="#aaa" offset="1"/>
  </linearGradient>
 </defs>
 <path d="m1.25 1c-0.675 0-1.25 0.575-1.25 1.25v11.5c0 0.675 0.575 1.25 1.25 1.25h1.5c0.675 0 1.25-0.575 1.25-1.25v-4.34l2.29 2.29a1 1 0 0 0 1.71-0.707 1 1 0 0 0 1.71 0.707l2.29-2.29v4.34c0 0.675 0.575 1.25 1.25 1.25h1.5c0.675 0 1.25-0.575 1.25-1.25v-11.5c0-0.675-0.575-1.25-1.25-1.25h-1.5c-0.675 0-1.25 0.575-1.25 1.25v4.34l-2.29-2.29a1 1 0 0 0-1.71 0.707 1 1 0 0 0-1.71-0.707l-2.29 2.29v-4.34c0-0.675-0.575-1.25-1.25-1.25h-1.5zm0 1h1.5c0.138 0 0.25 0.112 0.25 0.25v11.5c0 0.138-0.112 0.25-0.25 0.25h-1.5c-0.138 0-0.25-0.112-0.25-0.25v-11.5c0-0.138 0.112-0.25 0.25-0.25zm12 0h1.5c0.138 0 0.25 0.112 0.25 0.25v11.5c0 0.138-0.112 0.25-0.25 0.25h-1.5c-0.138 0-0.25-0.112-0.25-0.25v-11.5c0-0.138 0.112-0.25 0.25-0.25zm-6.25 3v2h2v-2l3 3-3 3v-2h-2v2l-3-3 3-3z" opacity=".25"/>
 <path d="m1.25 2c-0.138 0-0.25 0.112-0.25 0.25v11.5c0 0.138 0.112 0.25 0.25 0.25h1.5c0.138 0 0.25-0.112 0.25-0.25v-11.5c0-0.138-0.112-0.25-0.25-0.25h-1.5zm12 0c-0.138 0-0.25 0.112-0.25 0.25v11.5c0 0.138 0.112 0.25 0.25 0.25h1.5c0.138 0 0.25-0.112 0.25-0.25v-11.5c0-0.138-0.112-0.25-0.25-0.25h-1.5zm-6.25 3-3 3 3 3v-2h2v2l3-3-3-3v2h-2v-2z" fill="url(#gr0)"/>
 <path d="m4.5 8.5-0.5 0.5 3 3v-1l-2.5-2.5zm7 0-2.5 2.5v1l3-3-0.5-0.5zm-4.5 0.5v1h2v-1h-2zm-6 4.75v1c0 0.138 0.112 0.25 0.25 0.25h1.5c0.138 0 0.25-0.112 0.25-0.25v-1c0 0.138-0.112 0.25-0.25 0.25h-1.5c-0.138 0-0.25-0.112-0.25-0.25zm12 0v1c0 0.138 0.112 0.25 0.25 0.25h1.5c0.138 0 0.25-0.112 0.25-0.25v-1c0 0.138-0.112 0.25-0.25 0.25h-1.5c-0.138 0-0.25-0.112-0.25-0.25z" opacity=".45"/>
 <path d="m1.25 2c-0.138 0-0.25 0.112-0.25 0.25v1c0-0.138 0.112-0.25 0.25-0.25h1.5c0.138 0 0.25 0.112 0.25 0.25v-1c0-0.138-0.112-0.25-0.25-0.25h-1.5zm12 0c-0.138 0-0.25 0.112-0.25 0.25v1c0-0.138 0.112-0.25 0.25-0.25h1.5c0.138 0 0.25 0.112 0.25 0.25v-1c0-0.138-0.112-0.25-0.25-0.25h-1.5zm-6.25 3-3 3 0.5 0.5 2.5-2.5v-1zm2 0v1l2.5 2.5 0.5-0.5-3-3zm-2 2v1h2v-1h-2z" fill="#fff" opacity=".6"/>
</svg>
