<?xml version="1.0" encoding="UTF-8"?>
<svg width="16" height="16" version="1.1" xmlns="http://www.w3.org/2000/svg">
 <defs>
  <linearGradient id="gr0" x1="8" x2="8" y1="2" y2="15" gradientUnits="userSpaceOnUse">
   <stop stop-color="#ebebeb" offset="0"/>
   <stop stop-color="#aaa" offset="1"/>
  </linearGradient>
 </defs>
 <path d="m2 1a1 1 0 0 0-1 1v13a1 1 0 0 0 1 1h3a1 1 0 0 0 1-1v-1a1 1 0 0 0 1 1h2a1 1 0 0 0 1-1v1a1 1 0 0 0 1 1h3a1 1 0 0 0 1-1v-13a1 1 0 0 0-1-1h-12zm0 1h12v13h-3v-10h-6v10h-3v-13zm4 4h1a1 1 0 0 0-1 1v-1zm3 0h1v1a1 1 0 0 0-1-1zm-2 1h2v1h-2v-1zm-1 1a1 1 0 0 0 0.135 0.5 1 1 0 0 0-0.135 0.477v-0.977zm4 0.0234v0.977a1 1 0 0 0-0.135-0.5 1 1 0 0 0 0.135-0.477zm-3 0.977h2v1h-2v-1zm-1 1a1 1 0 0 0 0.135 0.5 1 1 0 0 0-0.135 0.477v-0.977zm4 0.0234v0.977a1 1 0 0 0-0.135-0.5 1 1 0 0 0 0.135-0.477zm-3 0.977h2v1h-2v-1zm-1 1a1 1 0 0 0 0.135 0.5 1 1 0 0 0-0.135 0.477v-0.977zm4 0.0234v0.977a1 1 0 0 0-0.135-0.5 1 1 0 0 0 0.135-0.477zm-3 0.977h2v1h-2v-1z" opacity=".25"/>
 <path d="m2 2v13h3v-10h6v10h3v-13h-12zm5 5v1h2v-1h-2zm0 2v1h2v-1h-2zm0 2v1h2v-1h-2zm0 2v1h2v-1h-2z" fill="url(#gr0)"/>
 <path d="m5 5v1h6v-1h-6zm2 3v1h2v-1h-2zm0 2v1h2v-1h-2zm0 2v1h2v-1h-2zm0 2v1h2v-1h-2zm-5 1v1h3v-1h-3zm9 0v1h3v-1h-3z" opacity=".45"/>
 <path d="m2 2v1h12v-1h-12zm5 5v1h2v-1h-2zm0 2v1h2v-1h-2zm0 2v1h2v-1h-2zm0 2v1h2v-1h-2z" fill="#fff" opacity=".6"/>
</svg>
