<?xml version="1.0" encoding="UTF-8"?>
<svg width="16" height="16" version="1.1" xmlns="http://www.w3.org/2000/svg">
 <defs>
  <linearGradient id="gr0" x1="8" x2="8" y1="4" y2="14" gradientUnits="userSpaceOnUse">
   <stop stop-color="#ebebeb" offset="0"/>
   <stop stop-color="#aaa" offset="1"/>
  </linearGradient>
 </defs>
 <path d="m1 3a1 1 0 0 0-0.793 1.61l2.22 2.89-2.22 2.89a1 1 0 0 0 0.793 1.61h2.66a1 1 0 0 0 0.793-0.391l0.551-0.717 0.551 0.717a1 1 0 0 0 0.793 0.391h2.66v1c0 1.09 0.909 2 2 2h2c1.09 0 2-0.909 2-2v-5a1 1 0 0 0-1-1h-1a1 1 0 0 0-1 1 1 1 0 0 0-1-1h-1a1 1 0 0 0-1 1v1.36l-1.43-1.86 2.22-2.89a1 1 0 0 0-0.793-1.61h-2.66a1 1 0 0 0-0.793 0.391l-0.551 0.717-0.551-0.717a1 1 0 0 0-0.793-0.391h-2.66zm0 1h2.66l1.34 1.75 1.34-1.75h2.66l-2.69 3.5 2.69 3.5h-2.66l-1.34-1.75-1.34 1.75h-2.66l2.69-3.5-2.69-3.5zm9 4h1v1.5c0 0.277 0.223 0.5 0.5 0.5h1c0.277 0 0.5-0.223 0.5-0.5v-1.5h1v5c0 0.554-0.446 1-1 1h-2c-0.554 0-1-0.446-1-1v-1h1v0.5c0 0.277 0.223 0.5 0.5 0.5h1c0.277 0 0.5-0.223 0.5-0.5v-1.5h-2c-0.554 0-1-0.446-1-1v-2z" opacity=".25"/>
 <path d="m1 4 2.69 3.5-2.69 3.5h2.66l1.34-1.75 1.34 1.75h2.66l-2.69-3.5 2.69-3.5h-2.66l-1.34 1.75-1.34-1.75h-2.66zm9 4v2c0 0.554 0.446 1 1 1h2v1.5c0 0.277-0.223 0.5-0.5 0.5h-1c-0.277 0-0.5-0.223-0.5-0.5v-0.5h-1v1c0 0.554 0.446 1 1 1h2c0.554 0 1-0.446 1-1v-5h-1v1.5c0 0.277-0.223 0.5-0.5 0.5h-1c-0.277 0-0.5-0.223-0.5-0.5v-1.5h-1z" fill="url(#gr0)"/>
 <path d="m1 5 2.3 3 0.385-0.5-1.92-2.5h-0.768zm7.23 0-1.92 2.5 0.385 0.5 2.3-3h-0.768zm-3.23 4.25-1.34 1.75h-1.89l-0.768 1h2.66l1.34-1.75 1.34 1.75h2.66l-0.768-1h-1.89l-1.34-1.75zm5 0.75v1c0 0.554 0.446 1 1 1h2v-1h-2c-0.554 0-1-0.446-1-1zm0 3v1c0 0.554 0.446 1 1 1h2c0.554 0 1-0.446 1-1v-1c0 0.554-0.446 1-1 1h-2c-0.554 0-1-0.446-1-1z" opacity=".45"/>
 <path d="m1 4 0.768 1h1.89l1.34 1.75 1.34-1.75h1.89l0.768-1h-2.66l-1.34 1.75-1.34-1.75h-2.66zm2.3 4-2.3 3h0.768l1.92-2.5-0.385-0.5zm3.39 0-0.385 0.5 1.92 2.5h0.768l-2.3-3zm3.3 0v1h1v-1h-1zm3 0v1h1v-1h-1zm-2 1.5v1c0 0.277 0.223 0.5 0.5 0.5h1c0.277 0 0.5-0.223 0.5-0.5v-1c0 0.277-0.223 0.5-0.5 0.5h-1c-0.277 0-0.5-0.223-0.5-0.5zm-1 2.5v1h1v0.5c0 0.277 0.223 0.5 0.5 0.5h1c0.277 0 0.5-0.223 0.5-0.5v-1c0 0.277-0.223 0.5-0.5 0.5h-1c-0.277 0-0.5-0.223-0.5-0.5v-0.5h-1z" fill="#fff" opacity=".6"/>
</svg>
