<?xml version="1.0" encoding="UTF-8"?>
<svg width="16" height="16" version="1.1" xmlns="http://www.w3.org/2000/svg">
 <defs>
  <linearGradient id="gr0" x1="8" x2="8" y1="1" y2="15" gradientUnits="userSpaceOnUse">
   <stop stop-color="#ebebeb" offset="0"/>
   <stop stop-color="#aaa" offset="1"/>
  </linearGradient>
  <linearGradient id="gr1" x1="8" x2="8" y1="9" y2="15" gradientUnits="userSpaceOnUse">
   <stop stop-color="#f3604d" offset="0"/>
   <stop stop-color="#c81700" offset="1"/>
  </linearGradient>
 </defs>
 <path d="m2.5 0a1 1 0 0 0-0.711 0.297c-0.987 0.335-1.79 1.11-1.79 2.2v6.59a1 1 0 0 0 0.293 0.707 1 1 0 0 0 0 1.42l0.793 0.79-0.793 0.79a1 1 0 0 0 0 1.42l1.5 1.5a1 1 0 0 0 1.41 0l0.793-0.8 0.793 0.8a1 1 0 0 0 1.41 0 1 1 0 0 0 0.705 0.29h6.59c1.37 0 2.5-1.13 2.5-2.5v-11c0-1.37-1.13-2.5-2.5-2.5h-11zm0 1h11c0.83 0 1.5 0.669 1.5 1.5v11c0 0.83-0.67 1.5-1.5 1.5h-6.59l0.793-0.79c0.32-0.32 0.385-0.82 0.158-1.21h4.64c0.28 0 0.5-0.22 0.5-0.5v-9c0-0.277-0.22-0.5-0.5-0.5h-9c-0.277 0-0.5 0.223-0.5 0.5v4.64c-0.156-0.097-0.335-0.137-0.516-0.137-0.26 4e-3 -0.509 0.109-0.693 0.293l-0.791 0.793v-6.59c0-0.831 0.669-1.5 1.5-1.5zm1.5 3h1.56a1 1 0 0 0-0.041 0.291v1.39a1 1 0 0 0 0.227 0.63c-0.439 0.506-0.745 1.13-0.746 1.82a1 1 0 0 0-0.207 0.16l-0.793 0.793-0.27-0.27a1 1 0 0 0 0.27-0.679l-4e-3 -4.14zm4.97 0v0.094c1.07 0 1.84 0.203 2.32 0.611 0.47 0.405 0.71 1.07 0.71 1.98v3.32h-2v-0.916c-0.25 0.347-0.452 0.599-0.77 0.76-0.318 0.07-0.704 0.146-1.16 0.146-0.075 0-0.145-0.016-0.215-0.016-0.041-0.069-0.088-0.131-0.148-0.191l-1.5-1.5c-0.061-0.066-0.125-0.116-0.205-0.156 0-0.67 0.239-1.16 0.715-1.47 0.48-0.313 1.23-0.471 2.26-0.471h1.03v-0.142c0-0.289-0.031-0.5-0.268-0.633-0.236-0.133-0.604-0.203-1.1-0.203-0.406 0-0.783 0.037-1.13 0.117-0.349 0.078-0.674 0.195-0.974 0.352v-1.39c0.774-0.147 1.6-0.301 2.45-0.291zm0.133 3.28c-0.395 0-0.694 0.064-0.895 0.194-0.197 0.129-0.297 0.32-0.297 0.572 0 0.231 0.079 0.412 0.238 0.545 0.163 0.133 0.386 0.193 0.672 0.193 0.357 0 0.657-0.122 0.901-0.367 0.247-0.248 0.277-0.557 0.277-0.928v-0.209h-0.896zm-6.6 1.72 1.5 1.5 1.5-1.5 1.5 1.5-1.5 1.5 1.5 1.5-1.5 1.5-1.5-1.5-1.5 1.5-1.5-1.5 1.5-1.5-1.5-1.5 1.5-1.5zm6.82 1.73v0.02a1 1 0 0 0 0.678 0.26h2v0.99h-4.14a1 1 0 0 0-0.679 0.27l-0.272-0.27 0.793-0.79a1 1 0 0 0 0.17-0.23h0.193c0.452 0 0.857-0.12 1.25-0.25z" opacity=".25"/>
 <path d="m2.5 1c-0.831 0-1.5 0.669-1.5 1.5v6.59l0.791-0.793c0.184-0.184 0.433-0.289 0.693-0.293 0.181 0 0.36 0.04 0.516 0.137v-4.64c0-0.277 0.223-0.5 0.5-0.5h9c0.28 0 0.5 0.223 0.5 0.5v9c0 0.28-0.22 0.5-0.5 0.5h-4.64c0.227 0.39 0.162 0.89-0.158 1.21l-0.793 0.79h6.59c0.83 0 1.5-0.67 1.5-1.5v-11c0-0.831-0.67-1.5-1.5-1.5h-11zm6.47 3c-0.855-0.01-1.68 0.144-2.45 0.291v1.39c0.3-0.157 0.625-0.274 0.974-0.352 0.35-0.08 0.727-0.117 1.13-0.117 0.501 0 0.869 0.07 1.1 0.203 0.237 0.133 0.268 0.344 0.268 0.633v0.142h-1.03c-1.02 0-1.78 0.158-2.26 0.471-0.476 0.313-0.715 0.803-0.715 1.47 0.08 0.04 0.144 0.09 0.205 0.156l1.5 1.5c0.06 0.06 0.107 0.122 0.148 0.191 0.07 0 0.14 0.02 0.215 0.02 0.456 0 0.843-0.08 1.16-0.23 0.318-0.161 0.519-0.413 0.769-0.76v1h2v-3.41c0-0.915-0.24-1.58-0.71-1.98-0.48-0.408-1.25-0.611-2.32-0.611zm0.133 3.28h0.896v0.209c0 0.371-0.03 0.68-0.277 0.928-0.244 0.245-0.544 0.367-0.901 0.367-0.286 0-0.509-0.06-0.672-0.193-0.159-0.133-0.238-0.314-0.238-0.545 0-0.252 0.1-0.443 0.297-0.572 0.201-0.13 0.5-0.194 0.895-0.194z" fill="url(#gr0)"/>
 <path d="m2.5 9-1.5 1.5 1.5 1.5-1.5 1.5 1.5 1.5 1.5-1.5 1.5 1.5 1.5-1.5-1.5-1.5 1.5-1.5-1.5-1.5-1.5 1.5z" fill="url(#gr1)"/>
 <path d="m3.5 3c-0.277 0-0.5 0.223-0.5 0.5v1c0-0.277 0.223-0.5 0.5-0.5h9c0.28 0 0.5 0.223 0.5 0.5v-1c0-0.277-0.22-0.5-0.5-0.5h-9zm5.13 2.22c-0.406 0-0.783 0.037-1.13 0.117-0.349 0.078-0.674 0.195-0.974 0.352v1c0.3-0.157 0.625-0.274 0.974-0.352 0.205-0.047 0.421-0.075 0.645-0.094 0.256-0.027 0.528-0.045 0.832-0.045h1.03v-0.142c0-0.289-0.031-0.5-0.268-0.633-0.236-0.133-0.604-0.203-1.1-0.203zm0.477 2.07c-0.395 0-0.694 0.064-0.895 0.194-0.197 0.129-0.297 0.32-0.297 0.572 0 0.216 0.075 0.385 0.215 0.515 0.03-0.027 0.046-0.064 0.082-0.087 0.201-0.13 0.5-0.194 0.895-0.194h0.722c0.147-0.222 0.174-0.484 0.174-0.791v-0.209h-0.896zm-6.62 0.719c-0.26 4e-3 -0.509 0.109-0.693 0.293l-0.791 0.793v1l0.791-0.797c0.184-0.184 0.433-0.289 0.693-0.293 5e-3 0 9e-3 2e-3 0.014 2e-3l2e-3 -2e-3 2e-3 2e-3c0.175 3e-3 0.347 0.041 0.498 0.135v-1c-0.156-0.097-0.335-0.137-0.516-0.137zm3.69 0.271c-0.118 0.245-0.178 0.532-0.178 0.866 0.08 0.04 0.144 0.09 0.205 0.156l1.5 1.5c0.06 0.1 0.107 0.13 0.148 0.19h0.215c0.456 0 0.842-0.1 1.16-0.2 0.318-0.16 0.52-0.41 0.77-0.76v0.97h2v-0.98h-2v-0.916c-0.25 0.347-0.452 0.599-0.77 0.76-0.318 0.07-0.704 0.146-1.16 0.146-0.075 0-0.145-0.016-0.215-0.016-0.041-0.069-0.088-0.131-0.148-0.191l-1.5-1.5c-8e-3 -9e-3 -0.019-0.013-0.027-0.022zm-4.68 2.73-0.5 0.5 1 1 0.5-0.5-1-1zm5 0-1 1 0.5 0.5 1-1-0.5-0.5zm-2.5 2.5-1.5 1.5-1-1-0.5 0.5 1.5 1.5 1.5-1.5 1.5 1.5 1.5-1.5-0.5-0.5-1 1-1.5-1.5zm11 0c0 0.83-0.67 1.5-1.5 1.5h-5.64c-0.042 0.07-0.087 0.15-0.15 0.21l-0.793 0.79h6.59c0.83 0 1.5-0.67 1.5-1.5v-1z" opacity=".45"/>
 <path d="m2.5 1c-0.831 0-1.5 0.669-1.5 1.5v1c0-0.831 0.669-1.5 1.5-1.5h11c0.83 0 1.5 0.669 1.5 1.5v-1c0-0.831-0.67-1.5-1.5-1.5h-11zm6.47 3c-0.855-0.01-1.68 0.144-2.45 0.291v1c0.774-0.147 1.6-0.301 2.45-0.291v6e-3c1.07 0 1.84 0.203 2.32 0.611 0.47 0.405 0.71 1.07 0.71 1.98v-0.977c0-0.915-0.24-1.58-0.71-1.98-0.48-0.408-1.25-0.612-2.32-0.612v-0.029zm-0.344 2.22c-0.169 0-0.33 0.01-0.488 0.023-0.607 0.066-1.09 0.206-1.42 0.426-0.476 0.313-0.715 0.803-0.715 1.47 0.069 0.034 0.124 0.081 0.178 0.134 0.119-0.247 0.298-0.45 0.537-0.607 0.48-0.313 1.23-0.471 2.26-0.471h1.03v-0.142c0-0.289-0.031-0.5-0.268-0.633-0.236-0.133-0.604-0.203-1.1-0.203zm1.2 2.07c-0.031 0.047-0.06 0.094-0.103 0.137-0.244 0.245-0.544 0.367-0.901 0.367-0.286 0-0.509-0.06-0.672-0.193-0.01-9e-3 -0.014-0.021-0.023-0.03-0.132 0.124-0.215 0.279-0.215 0.485 0 0.231 0.079 0.412 0.238 0.545 0.163 0.133 0.386 0.193 0.672 0.193 0.327 0 0.598-0.115 0.83-0.32 0.081-0.086 0.161-0.195 0.241-0.301 0.088-0.196 0.107-0.419 0.107-0.674v-0.209h-0.174zm3.17 4.22c0 0.28-0.22 0.5-0.5 0.5h-4.64c0.227 0.39 0.162 0.89-0.158 1.21l-0.793 0.79h0.943c0.176-0.31 0.191-0.69 8e-3 -1h4.64c0.28 0 0.5-0.22 0.5-0.5v-1z" fill="#fff" opacity=".6"/>
 <path d="m2.5 9-1.5 1.5 0.5 0.5 1-1 1.5 1.5 1.5-1.5 1 1 0.5-0.5-1.5-1.5-1.5 1.5-1.5-1.5zm-0.5 3.5-1 1 0.5 0.5 1-1-0.5-0.5zm4 0-0.5 0.5 1 1 0.5-0.5-1-1z" fill="#fff" opacity=".3"/>
</svg>
