<?xml version="1.0" encoding="UTF-8"?>
<svg width="16" height="16" version="1.1" xmlns="http://www.w3.org/2000/svg">
 <defs>
  <linearGradient id="gr0" x1="8" x2="8" y1="1" y2="15" gradientUnits="userSpaceOnUse">
   <stop stop-color="#ebebeb" offset="0"/>
   <stop stop-color="#aaa" offset="1"/>
  </linearGradient>
 </defs>
 <path d="m9 0a1 1 0 0 0-1 1v6c-0.00279 0-0.00502 0.00195-0.00781 0.00195a1 1 0 0 0 0-0.00195v-3.56c0-0.553-0.148-1.13-0.545-1.61-0.376-0.451-0.881-0.758-1.51-0.822a1 1 0 0 0-0.102-0.00586h-1.85a1 1 0 0 0-1 1l0.00391 1a1 1 0 0 0 0.166 0.547c-0.215 0.152-0.532 0.179-0.67 0.377-0.338 0.485-0.479 1.03-0.488 1.58-0.00965 0.547 0.111 1.11 0.463 1.61s1.01 0.881 1.72 0.881h0.164c-2.55 1.34-4.34 3.93-4.34 7a1 1 0 0 0 1 1h1a1 1 0 0 0 1-1c0-2.77 2.23-5 5-5 2.77 0 5 2.23 5 5a1 1 0 0 0 1 1h1a1 1 0 0 0 1-1c0-3.07-1.8-5.66-4.34-7h0.084c0.835 0.0341 1.54-0.548 1.86-1.14 0.317-0.594 0.42-1.25 0.412-1.89-0.0085-0.647-0.129-1.29-0.457-1.87-0.328-0.583-1.04-1.15-1.88-1.09l0.043-0.00195h-0.719v-1a1 1 0 0 0-1-1h-1zm0 1h1v2h1.72c0.011-1e-3 0.0192 9e-4 0.0312 0 1.64-0.125 1.71 4.07 0.0312 4h-2.78v-6zm-5.01 1h1.85c0.315 0.0321 0.635 0.216 0.846 0.469 0.211 0.253 0.312 0.598 0.312 0.969v3.56h-2.81c-1.62 0-1.52-2.93 0-3h1.81c0.022-0.0571 0.212-0.991-0.596-1h-1.4l-0.00391-1zm6.01 2c0 0.147-6e-3 1.52 0 2h1.88c0.435 0.0178 0.368-2.04 0-2h-1.88zm-5.64 1c-0.402-0.0403-0.436 0.987-0.0606 1h1.69v-1h-1.63zm3.64 3c3.87 0 7 3.13 7 7h-1c0-3.31-2.69-6-6-6-3.31 0-6 2.69-6 6h-1c0-3.87 3.13-7 7-7z" opacity=".25"/>
 <path d="m9 1v6h2.78c1.68 0.0687 1.6-4.13-0.031-4-0.012 9e-4 -0.02-1e-3 -0.031 0h-1.72v-2h-1zm-5.01 1 0.0039 1h1.4c0.808 9e-3 0.618 0.943 0.596 1h-1.81c-1.52 0.0706-1.62 3 0 3h2.81v-3.56c0-0.37-0.102-0.716-0.312-0.969-0.211-0.253-0.53-0.437-0.846-0.469h-1.85zm6.01 2h1.88c0.368-0.0382 0.435 2.02 0 2h-1.88c-6e-3 -0.476 4e-3 -1.85 0-2zm-5.64 1h1.63v1h-1.69c-0.375-0.0127-0.342-1.04 0.0605-1zm3.64 3c-3.87 0-7 3.13-7 7h1c0-3.31 2.69-6 6-6 3.31 0 6 2.69 6 6h1c0-3.87-3.13-7-7-7z" fill="url(#gr0)"/>
 <path d="m3.99 3 0.00391 1h2c0.022-0.0571 0.212-0.991-0.596-1h-1.41zm6.01 1c0 0.0735 8e-4 0.578 0 1h1.88c0.126-0.013 0.201 0.243 0.248 0.553 0.104-0.577 0.0143-1.5-0.226-1.54-0.0487-0.00443-0.0947-0.0176-0.146-0.0137h-1.75zm-5.64 1c-0.402-0.0403-0.436 0.987-0.0606 1h1.69v-1h-1.63zm8.6 0.543c-0.109 0.755-0.452 1.39-1.06 1.44-0.0086 0.00139-0.0143 0.014-0.0234 0.0137h-2.88v1h2.78c0.963 0.0393 1.33-1.31 1.18-2.46zm-9.89 0.537c-0.207 0.861 0.133 1.92 1.11 1.92h2.81v-1h-2.81c-0.605 0-0.97-0.406-1.11-0.92zm4.93 2.92c-0.207 0-0.412 0.0108-0.613 0.0312-0.00193 1.7e-4 -0.00393-1.7e-4 -0.00586 0-3.02 0.31-5.38 2.86-5.38 5.97h-0.92c-0.047 0.328-0.0801 0.659-0.0801 1h1c0-3.31 2.69-6 6-6 3.31 0 6 2.69 6 6h1c0-0.341-0.033-0.672-0.0801-1h-0.92c0-3.1-2.36-5.66-5.38-5.97-0.00194-2e-4 -0.00392 2e-4 -0.00586 0-0.203-0.0176-0.406-0.0312-0.613-0.0312z" opacity=".45"/>
 <path d="m9 1v1h1v-1h-1zm-5.01 1 0.00391 1h1.84c0.315 0.0321 0.635 0.216 0.846 0.469 0.211 0.253 0.312 0.598 0.312 0.969v-1c0-0.37-0.102-0.716-0.312-0.969-0.211-0.253-0.53-0.437-0.846-0.469h-1.85zm6.01 1v1h1.88c0.0081-8.4e-4 0.0137 0.0125 0.0215 0.0137 0.608 0.0554 0.957 0.738 1.06 1.53 0.169-1.17-0.238-2.62-1.21-2.54-0.012 9e-4 -0.0202-1e-3 -0.0312 0h-1.72zm-5.82 1c-0.954 0.0443-1.35 1.21-1.11 2.08 0.137-0.568 0.506-1.05 1.11-1.08h1.81c0.022-0.0571 0.212-0.991-0.596-1h-1.22zm7.94 1.55c-0.0456 0.254-0.118 0.453-0.248 0.447h-1.88c-7.5e-4 0.422-3e-3 0.762 0 1h1.78c0.0418 0.00171 0.0777-0.0102 0.117-0.0137 0.264-0.0426 0.313-0.856 0.225-1.43zm-7.76 0.447c-0.402-0.0403-0.436 0.987-0.0606 1h1.69v-1h-1.63zm3.64 2c-3.87 0-7 3.13-7 7h0.0801c0.458-3.19 3.06-5.68 6.3-5.97 0.00193-1.7e-4 0.00393 1.7e-4 0.00586 0 0.202-0.0205 0.406-0.0312 0.613-0.0312 0.207 0 0.411 0.0136 0.613 0.0312 0.00194 2e-4 0.00392-2e-4 0.00586 0 3.24 0.285 5.84 2.78 6.3 5.97h0.0801c0-3.87-3.13-7-7-7z" fill="#fff" opacity=".6"/>
</svg>
