<?xml version="1.0" encoding="UTF-8"?>
<svg width="16" height="16" version="1.1" xmlns="http://www.w3.org/2000/svg">
 <defs>
  <linearGradient id="gr0" x1="8" x2="8" y1="3" y2="13" gradientUnits="userSpaceOnUse">
   <stop stop-color="#ebebeb" offset="0"/>
   <stop stop-color="#aaa" offset="1"/>
  </linearGradient>
  <linearGradient id="gr1" x1="8" x2="8" y1="4.43" y2="10.1" gradientUnits="userSpaceOnUse">
   <stop stop-color="#f3604d" offset="0"/>
   <stop stop-color="#c81700" offset="1"/>
  </linearGradient>
 </defs>
 <path d="m8 2c-3.62 0-6.85 2.3-7.95 5.69a1 1 0 0 0 0 0.616c1.09 3.4 4.32 5.69 7.95 5.69 3.62 0 6.84-2.3 7.95-5.69a1 1 0 0 0 0-0.618c-1.09-3.4-4.32-5.69-7.95-5.69zm0 1c3.21 3e-3 6.04 2.02 7 5-0.97 2.97-3.8 5-7 5-3.21 0-6.04-2.02-7-5 0.966-2.97 3.8-5 7-5zm-0.09 1.44c-2.49-5e-3 -4.75 1.47-5.51 3.56 0.766 2.13 3.03 3.56 5.6 3.56 2.57 0 4.83-1.44 5.6-3.56-0.65-1.95-2.85-3.45-5.31-3.55 1.42 0.151 2.51 1.37 2.51 2.84 0 1.58-1.26 2.85-2.8 2.85s-2.8-1.27-2.8-2.85c0-1.55 1.21-2.8 2.72-2.85zm-3.7 2.7h4e-3c0 0.05-0.02 0.1-0.02 0.148 0 0.851 0.289 1.63 0.758 2.28-0.569-0.426-1.03-0.959-1.33-1.56 0.156-0.306 0.36-0.592 0.59-0.861zm7.59 5e-3c0.23 0.269 0.43 0.554 0.58 0.848-0.3 0.602-0.76 1.14-1.33 1.56 0.46-0.641 0.75-1.42 0.75-2.27v-0.143z" opacity=".25"/>
 <path d="m8 3c-3.2 0-6.03 2.03-7 5 0.957 2.98 3.79 5 7 5 3.2 0 6.03-2.03 7-5-0.96-2.98-3.79-5-7-5zm5.6 5c-0.77 2.12-3.03 3.56-5.6 3.56-2.57 0-4.83-1.43-5.6-3.56 0.773-2.12 3.07-3.61 5.6-3.57 2.58-0.02 4.92 1.54 5.6 3.57z" fill="url(#gr0)"/>
 <path d="m8 4.43c-1.55 0-2.8 1.29-2.8 2.86s1.25 2.85 2.8 2.85 2.8-1.27 2.8-2.85c0-1.5-1.13-2.75-2.6-2.86z" fill="url(#gr1)"/>
 <path d="m7.91 4.44c-2.49-5e-3 -4.75 1.47-5.51 3.56 0.063 0.175 0.15 0.337 0.233 0.502 0.587-1.17 1.64-2.09 2.93-2.6 0.468-0.845 1.34-1.43 2.35-1.46zm0.377 0.013c0.942 0.1 1.73 0.677 2.16 1.48 1.31 0.525 2.37 1.44 2.92 2.56 0.08-0.16 0.17-0.317 0.23-0.486-0.65-1.95-2.85-3.45-5.31-3.55zm2.46 3.32c-0.22 1.35-1.37 2.37-2.75 2.37-1.38 0-2.52-1.02-2.75-2.36-0.029 0.164-0.049 0.331-0.049 0.504 0 1.58 1.26 2.85 2.8 2.85s2.8-1.27 2.8-2.85c0-0.177-0.02-0.349-0.05-0.518zm4.04 0.727c-1.11 2.69-3.78 4.5-6.79 4.5-3.02 0-5.69-1.8-6.79-4.5-0.069 0.166-0.153 0.325-0.209 0.498 0.957 2.98 3.79 5 7 5 3.2 0 6.03-2.03 7-5-0.06-0.175-0.14-0.334-0.21-0.502z" opacity=".45"/>
 <path d="m8 3c-3.2 0-6.03 2.03-7 5 0.056 0.175 0.14 0.334 0.209 0.502 1.11-2.69 3.78-4.5 6.79-4.5 3.02 3e-3 5.69 1.8 6.79 4.5 0.07-0.166 0.15-0.325 0.21-0.498-0.96-2.98-3.79-5-7-5zm5.37 5.49c-0.92 1.84-3.01 3.07-5.37 3.07-2.36 0-4.44-1.21-5.36-3.06-0.083 0.164-0.172 0.325-0.235 0.498 0.766 2.13 3.03 3.56 5.6 3.56 2.57 0 4.83-1.44 5.6-3.56-0.06-0.175-0.15-0.342-0.23-0.51z" fill="#fff" opacity=".6"/>
 <path d="m8 4.43c-1.55 0-2.8 1.28-2.8 2.86 0 0.171 0.023 0.337 0.051 0.5 0.233-1.34 1.37-2.36 2.75-2.36l0.199 8e-3c1.3 0.092 2.33 1.08 2.55 2.34 0.03-0.158 0.05-0.319 0.05-0.486 0-1.5-1.14-2.75-2.6-2.86l-0.199-8e-3z" fill="#fff" opacity=".3"/>
</svg>
