<?xml version="1.0" encoding="UTF-8"?>
<svg width="16" height="16" version="1.1" xmlns="http://www.w3.org/2000/svg">
 <defs>
  <linearGradient id="gr0" x1="8" x2="8" y1="1" y2="15" gradientUnits="userSpaceOnUse">
   <stop stop-color="#ebebeb" offset="0"/>
   <stop stop-color="#aaa" offset="1"/>
  </linearGradient>
 </defs>
 <path d="m2.5 0c-1.37 0-2.5 1.13-2.5 2.5v11c0 1.37 1.13 2.5 2.5 2.5h11c1.37 0 2.5-1.13 2.5-2.5v-11c0-1.37-1.13-2.5-2.5-2.5h-11zm0 1h11c0.831 0 1.5 0.669 1.5 1.5v11c0 0.831-0.669 1.5-1.5 1.5h-11c-0.831 0-1.5-0.669-1.5-1.5v-11c0-0.831 0.669-1.5 1.5-1.5zm10.5 2-2.17 2.17a4 4 0 0 1 1.17 2.83 4 4 0 0 1-4 4 4 4 0 0 1-2.83-1.17l-2.17 2.17h10v-10zm-7.83 7.83 5.65-5.65a4 4 0 0 0-0.799-0.615l-5.47 5.47a4 4 0 0 0 0.615 0.799zm6.83 0.0097v1.16h-1.16c0.23-0.162 0.5-0.266 0.699-0.465 0.199-0.199 0.303-0.469 0.465-0.699z" opacity=".25" stroke-dasharray="1, 1"/>
 <path d="m2.5 1c-0.831 0-1.5 0.669-1.5 1.5v11c0 0.831 0.669 1.5 1.5 1.5h11c0.831 0 1.5-0.669 1.5-1.5v-11c0-0.831-0.669-1.5-1.5-1.5h-11zm10.5 2v10h-10l2.17-2.17a4 4 0 0 1-1.17-2.83 4 4 0 0 1 4-4 4 4 0 0 1 2.83 1.17l2.17-2.17zm-2.17 2.17-5.65 5.65a4 4 0 0 0 2.83 1.17 4 4 0 0 0 4-4 4 4 0 0 0-1.17-2.83z" fill="url(#gr0)" stroke-dasharray="1, 1"/>
 <path d="m13 3-2.17 2.17a4 4 0 0 1 0.455 0.545l1.72-1.72v-1zm-2.17 2.17a4 4 0 0 0-2.83-1.17 4 4 0 0 0-4 4 4 4 0 0 0 0.0352 0.494 4 4 0 0 1 3.96-3.49 4 4 0 0 1 2.28 0.719l0.545-0.545zm1.14 3.32a4 4 0 0 1-3.96 3.51 4 4 0 0 1-2.28-0.721l-0.547 0.547a4 4 0 0 0 2.83 1.17 4 4 0 0 0 4-4 4 4 0 0 0-0.0352-0.506zm-6.79 3.33a4 4 0 0 1-0.453-0.547l-1.72 1.72h1l1.17-1.17zm-4.17 1.67v1c0 0.831 0.669 1.5 1.5 1.5h11c0.831 0 1.5-0.669 1.5-1.5v-1c0 0.831-0.669 1.5-1.5 1.5h-11c-0.831 0-1.5-0.669-1.5-1.5z" opacity=".45" stroke-dasharray="1, 1"/>
 <path d="m2.5 1c-0.831 0-1.5 0.669-1.5 1.5v1c0-0.831 0.669-1.5 1.5-1.5h11c0.831 0 1.5 0.669 1.5 1.5v-1c0-0.831-0.669-1.5-1.5-1.5h-11zm7.78 4.72-5.11 5.11a4 4 0 0 0 0.547 0.453l5.11-5.11a4 4 0 0 0-0.545-0.455zm0.545 0.455a4 4 0 0 1 1.14 2.32 4 4 0 0 0 0.0352-0.494 4 4 0 0 0-0.719-2.28l-0.455 0.455zm-5.65 4.65a4 4 0 0 1-1.14-2.33 4 4 0 0 0-0.0352 0.506 4 4 0 0 0 0.721 2.28l0.453-0.453zm-1.17 2.17-1 1h10v-1h-9z" fill="#fff" opacity=".6" stroke-dasharray="1, 1"/>
</svg>
