<?xml version="1.0" encoding="UTF-8"?>
<svg width="16" height="16" version="1.1" xmlns="http://www.w3.org/2000/svg">
 <defs>
  <linearGradient id="gr0" x1="8" x2="8" y1="1" y2="15" gradientUnits="userSpaceOnUse">
   <stop stop-color="#ebebeb" offset="0"/>
   <stop stop-color="#aaa" offset="1"/>
  </linearGradient>
 </defs>
 <path d="m12 0a1 1 0 0 0-1 1v0.135c-1.54 0.192-2.86 0.544-4 1.02v-0.152a1 1 0 0 0-1-1h-4a1 1 0 0 0-1 1v4a1 1 0 0 0 0.9 0.994c-0.48 1.02-0.785 2.32-0.871 4.01h-0.0293a1 1 0 0 0-1 1v3a1 1 0 0 0 1 1h3a1 1 0 0 0 1-1v-3a1 1 0 0 0-1-1h-0.141c0.0978-1.73 0.369-2.98 1.32-4h0.168l3.74 8.41a1 1 0 0 0 1.54 0.375l5-4a1 1 0 0 0-0.139-1.66l-8.49-4.71v-0.0645c0.789-0.579 2.02-1.02 4-1.27a1 1 0 0 0 0.996 0.926h3a1 1 0 0 0 1-1v-3a1 1 0 0 0-1-1h-3zm0 1h3v3h-3v-1.11c-3.29 0.229-4.87 0.948-6 1.88v1.22l9 5-5 4-4-9h-1.27c-0.0777 0.082-0.153 0.161-0.232 0.244-1.42 1.49-1.7 3.22-1.73 5.76h1.24v3h-3v-3h0.918c0.0147-3.27 0.436-4.48 1.6-6h-1.52v-4h4v1.65c1.43-0.862 3.42-1.48 6-1.68v-0.971z" fill-rule="evenodd" opacity=".25"/>
 <path d="m12 1v0.971c-2.58 0.2-4.57 0.82-6 1.68v-1.65h-4v4h1.52c-1.17 1.52-1.59 2.73-1.6 6h-0.918v3h3v-3h-1.24c0.0352-2.54 0.308-4.27 1.73-5.76 0.0796-0.0829 0.155-0.162 0.232-0.244h1.27v-1.22c1.13-0.935 2.71-1.65 6-1.88v1.11h3v-3h-3zm-6 5 4 9 5-4-9-5z" fill="url(#gr0)" fill-rule="evenodd"/>
 <path d="m12 2.97c-2.29 0.177-4.09 0.698-5.47 1.41-0.188 0.126-0.366 0.256-0.531 0.393v1c1.13-0.935 2.71-1.65 6-1.88v-0.922zm0 1.03v1h3v-1h-3zm-10 2v1h0.852c0.19-0.335 0.408-0.66 0.668-1h-1.52zm2.73 0c-0.0777 0.082-0.153 0.161-0.232 0.244-1.42 1.49-1.7 3.22-1.73 5.76h0.0488c0.104-1.99 0.461-3.48 1.68-4.76 0.0796-0.0829 0.155-0.162 0.232-0.244h1.27v-1h-1.27zm1.27 1 4 9 5-4-0.738-0.41-4.26 3.41-3.41-7.67-0.59-0.328zm-5 8v1h3v-1h-3z" fill-rule="evenodd" opacity=".45"/>
 <path d="m12 1v0.971c-2.58 0.2-4.57 0.82-6 1.68v1c0.161-0.0972 0.356-0.179 0.531-0.27 1.1-0.74 2.66-1.29 5.47-1.49v-0.893h3v-1h-3zm-10 1v1h4v-1h-4zm4 4 0.59 1.33 7.67 4.26 0.738-0.59-9-5zm-3.15 1c-0.661 1.17-0.922 2.46-0.934 5h-0.918v1h0.918c0.0147-3.27 0.436-4.48 1.6-6h-0.668zm-0.041 5c-0.0172 0.329-0.0438 0.64-0.0488 1h1.24v-1h-1.19z" fill="#fff" fill-rule="evenodd" opacity=".6"/>
</svg>
