<?xml version="1.0" encoding="UTF-8"?>
<svg width="16" height="16" version="1.1" xmlns="http://www.w3.org/2000/svg">
 <defs>
  <linearGradient id="gr0" x1="8" x2="8" y1="3" y2="13" gradientUnits="userSpaceOnUse">
   <stop stop-color="#ebebeb" offset="0"/>
   <stop stop-color="#aaa" offset="1"/>
  </linearGradient>
 </defs>
 <path d="m2 2a1 1 0 0 0-1 1v2a1 1 0 0 0 1 1 1 1 0 0 0-1 1v2a1 1 0 0 0 1 1 1 1 0 0 0-1 1v2a1 1 0 0 0 1 1h12a1 1 0 0 0 1-1v-2a1 1 0 0 0-1-1 1 1 0 0 0 1-1v-2a1 1 0 0 0-1-1 1 1 0 0 0 1-1v-2a1 1 0 0 0-1-1h-12zm0 1h12v2h-12v-2zm0 4h12v2h-12v-2zm0 4h12v2h-12v-2z" opacity=".25"/>
 <path d="m2 3v2h12v-2h-12zm0 4v2h12v-2h-12zm0 4v2h12v-2h-12z" fill="url(#gr0)"/>
 <path d="m2 5v1h12v-1h-12zm0 4v1h12v-1h-12zm0 4v1h12v-1h-12z" opacity=".45"/>
 <path d="m2 3v1h12v-1h-12zm0 4v1h12v-1h-12zm0 4v1h12v-1h-12z" fill="#fff" opacity=".6"/>
</svg>
