<?xml version="1.0" encoding="UTF-8"?>
<svg width="16" height="16" version="1.1" xmlns="http://www.w3.org/2000/svg">
 <defs>
  <linearGradient id="gr0" x1="8" x2="8" y1="2" y2="15" gradientUnits="userSpaceOnUse">
   <stop stop-color="#ebebeb" offset="0"/>
   <stop stop-color="#aaa" offset="1"/>
  </linearGradient>
 </defs>
 <path d="m2.5 1c-1.37 0-2.5 1.13-2.5 2.5s1.13 2.5 2.5 2.5 2.5-1.13 2.5-2.5-1.13-2.5-2.5-2.5zm0 5c-1.37 0-2.5 1.13-2.5 2.5s1.13 2.5 2.5 2.5 2.5-1.13 2.5-2.5-1.13-2.5-2.5-2.5zm0 5c-1.37 0-2.5 1.13-2.5 2.5s1.13 2.5 2.5 2.5 2.5-1.13 2.5-2.5-1.13-2.5-2.5-2.5zm5.5-10a1 1 0 0 0-1 1v4h-1a1 1 0 0 0-0.832 1.55l4 6a1 1 0 0 0 1.66 0l4-6a1 1 0 0 0-0.832-1.55h-1v-4a1 1 0 0 0-1-1h-4zm-5.5 1c0.831 0 1.5 0.669 1.5 1.5s-0.669 1.5-1.5 1.5-1.5-0.669-1.5-1.5 0.669-1.5 1.5-1.5zm5.5 0h4v5h2l-4 6-4-6h2v-5zm-5.5 5c0.831 0 1.5 0.669 1.5 1.5s-0.669 1.5-1.5 1.5-1.5-0.669-1.5-1.5 0.669-1.5 1.5-1.5zm0 5c0.831 0 1.5 0.669 1.5 1.5s-0.669 1.5-1.5 1.5-1.5-0.669-1.5-1.5 0.669-1.5 1.5-1.5z" opacity=".25"/>
 <path d="m2.5 2c-0.831 0-1.5 0.669-1.5 1.5s0.669 1.5 1.5 1.5 1.5-0.669 1.5-1.5-0.669-1.5-1.5-1.5zm5.5 0v5h-2l4 6 4-6h-2v-5h-4zm-5.5 5c-0.831 0-1.5 0.669-1.5 1.5s0.669 1.5 1.5 1.5 1.5-0.669 1.5-1.5-0.669-1.5-1.5-1.5zm0 5c-0.831 0-1.5 0.669-1.5 1.5s0.669 1.5 1.5 1.5 1.5-0.669 1.5-1.5-0.669-1.5-1.5-1.5z" fill="url(#gr0)"/>
 <path d="m1.09 4c-0.0557 0.157-0.0918 0.323-0.0918 0.5 0 0.831 0.669 1.5 1.5 1.5s1.5-0.669 1.5-1.5c0-0.177-0.0361-0.343-0.0918-0.5-0.206 0.582-0.754 1-1.41 1s-1.2-0.418-1.41-1zm4.91 4 4 6 4-6h-0.666l-3.33 5-3.33-5h-0.666zm-4.91 1c-0.0557 0.157-0.0918 0.323-0.0918 0.5 0 0.831 0.669 1.5 1.5 1.5s1.5-0.669 1.5-1.5c0-0.177-0.0361-0.343-0.0918-0.5-0.206 0.582-0.754 1-1.41 1s-1.2-0.418-1.41-1zm0 5c-0.0557 0.157-0.0918 0.323-0.0918 0.5 0 0.831 0.669 1.5 1.5 1.5s1.5-0.669 1.5-1.5c0-0.177-0.0361-0.343-0.0918-0.5-0.206 0.582-0.754 1-1.41 1s-1.2-0.418-1.41-1z" opacity=".45"/>
 <path d="m2.5 2c-0.831 0-1.5 0.669-1.5 1.5 0 0.177 0.0361 0.343 0.0918 0.5 0.206-0.582 0.754-1 1.41-1s1.2 0.418 1.41 1c0.0557-0.157 0.0918-0.323 0.0918-0.5 0-0.831-0.669-1.5-1.5-1.5zm5.5 0v1h4v-1h-4zm-5.5 5c-0.831 0-1.5 0.669-1.5 1.5 0 0.177 0.0361 0.343 0.0918 0.5 0.206-0.582 0.754-1 1.41-1s1.2 0.418 1.41 1c0.0557-0.157 0.0918-0.323 0.0918-0.5 0-0.831-0.669-1.5-1.5-1.5zm3.5 0 0.666 1h1.33v-1h-2zm6 0v1h1.33l0.666-1h-2zm-9.5 5c-0.831 0-1.5 0.669-1.5 1.5 0 0.177 0.0361 0.343 0.0918 0.5 0.206-0.582 0.754-1 1.41-1s1.2 0.418 1.41 1c0.0557-0.157 0.0918-0.323 0.0918-0.5 0-0.831-0.669-1.5-1.5-1.5z" fill="#fff" opacity=".6"/>
</svg>
