<?xml version="1.0" encoding="UTF-8"?>
<svg width="16" height="16" version="1.1" xmlns="http://www.w3.org/2000/svg">
 <defs>
  <linearGradient id="gr0" x1="8" x2="8" y1="6" y2="10" gradientUnits="userSpaceOnUse">
   <stop stop-color="#ebebeb" offset="0"/>
   <stop stop-color="#aaa" offset="1"/>
  </linearGradient>
 </defs>
 <path d="m2 5c-1.09 0-2 0.909-2 2v2c-1.46e-16 1.09 0.909 2 2 2h2c0.63 0 1.13-0.344 1.5-0.81 0.369 0.466 0.87 0.81 1.5 0.81h2c0.63 0 1.13-0.344 1.5-0.81 0.369 0.466 0.87 0.81 1.5 0.81h2c1.09 0 2-0.909 2-2v-2c0-1.09-0.909-2-2-2h-2c-0.63 0-1.13 0.344-1.5 0.811-0.369-0.467-0.87-0.811-1.5-0.811h-2c-0.63 0-1.13 0.344-1.5 0.811-0.369-0.467-0.87-0.811-1.5-0.811h-2zm0 1h2c0.554 0 1 0.446 1 1v2c0 0.554-0.446 1-1 1h-2c-0.554 0-1-0.446-1-1v-2c0-0.554 0.446-1 1-1zm5 0h2c0.554 0 1 0.446 1 1v2c0 0.554-0.446 1-1 1h-2c-0.554 0-1-0.446-1-1v-2c0-0.554 0.446-1 1-1zm5 0h2c0.554 0 1 0.446 1 1v2c0 0.554-0.446 1-1 1h-2c-0.554 0-1-0.446-1-1v-2c0-0.554 0.446-1 1-1z" fill-rule="evenodd" opacity=".25"/>
 <path d="m15 7c0-.554-.446-1-1-1h-2c-.554 0-1 .446-1 1v2c0 .554.446 1 1 1h2c.554 0 1-.446 1-1v-2zm-5 0c0-.554-.446-1-1-1h-2c-.554 0-1 .446-1 1v2c0 .554.446 1 1 1h2c.554 0 1-.446 1-1v-2zm-5 0c0-.554-.446-1-1-1h-2c-.554 0-1 .446-1 1v2c0 .554.446 1 1 1h2c.554 0 1-.446 1-1v-2z" fill="url(#gr0)" fill-rule="evenodd"/>
 <path d="m1 9v1c0 0.554 0.446 1 1 1h2c0.554 0 1-0.446 1-1v-1c0 0.554-0.446 1-1 1h-2c-0.554 0-1-0.446-1-1zm5 0v1c0 0.554 0.446 1 1 1h2c0.554 0 1-0.446 1-1v-1c0 0.554-0.446 1-1 1h-2c-0.554 0-1-0.446-1-1zm5 0v1c0 0.554 0.446 1 1 1h2c0.554 0 1-0.446 1-1v-1c0 0.554-0.446 1-1 1h-2c-0.554 0-1-0.446-1-1z" fill-rule="evenodd" opacity=".45"/>
 <path d="m2 6c-0.554 0-1 0.446-1 1v1c0-0.554 0.446-1 1-1h2c0.554 0 1 0.446 1 1v-1c0-0.554-0.446-1-1-1h-2zm5 0c-0.554 0-1 0.446-1 1v1c0-0.554 0.446-1 1-1h2c0.554 0 1 0.446 1 1v-1c0-0.554-0.446-1-1-1h-2zm5 0c-0.554 0-1 0.446-1 1v1c0-0.554 0.446-1 1-1h2c0.554 0 1 0.446 1 1v-1c0-0.554-0.446-1-1-1h-2z" fill="#fff" fill-rule="evenodd" opacity=".6"/>
</svg>
