<?xml version="1.0" encoding="UTF-8"?>
<svg width="16" height="16" version="1.1" xmlns="http://www.w3.org/2000/svg">
 <defs>
  <linearGradient id="gr0" x1="8" x2="8" y1="1" y2="15" gradientUnits="userSpaceOnUse">
   <stop stop-color="#ebebeb" offset="0"/>
   <stop stop-color="#aaa" offset="1"/>
  </linearGradient>
 </defs>
 <path d="m10 0a1 1 0 0 0-1 1h-8a1 1 0 0 0-1 1v2a1 1 0 0 0 1 1h3a1 1 0 0 0-1 1h-2a1 1 0 0 0-1 1v2a1 1 0 0 0 1 1h2a1 1 0 0 0 1 1h-3a1 1 0 0 0-1 1v2a1 1 0 0 0 1 1h6a1 1 0 0 0 1 1h2a1 1 0 0 0 1-1h4a1 1 0 0 0 1-1v-2a1 1 0 0 0-1-1h-4a1 1 0 0 0-1-1h5a1 1 0 0 0 1-1v-2a1 1 0 0 0-1-1h-3a1 1 0 0 0 1-1h2a1 1 0 0 0 1-1v-2a1 1 0 0 0-1-1h-2a1 1 0 0 0-1-1h-2zm0 1h2v4h-2v-1h-9v-2h9v-1zm3 1h2v2h-2v-2zm-7 3h3a1 1 0 0 0 1 1h-3a1 1 0 0 0-1-1zm-2 1h2v4h-2v-1h-3v-2h3v-1zm3 1h8v2h-8v-2zm0 3h1a1 1 0 0 0-1 1h-1a1 1 0 0 0 1-1zm1 1h2v4h-2v-1h-7v-2h7v-1zm3 1h4v2h-4v-2z" opacity=".25"/>
 <path d="m10 1v1h-9v2h9v1h2v-4h-2zm3 1v2h2v-2h-2zm-9 4v1h-3v2h3v1h2v-4h-2zm3 1v2h8v-2h-8zm1 4v1h-7v2h7v1h2v-4h-2zm3 1v2h4v-2h-4z" fill="url(#gr0)"/>
 <path d="m1 4v1h9v-1h-9zm9 1v1h2v-1h-2zm3-1v1h2v-1h-2zm-12 5v1h3v-1h-3zm3 1v1h2v-1h-2zm3-1v1h8v-1h-8zm-6 5v1h7v-1h-7zm7 1v1h2v-1h-2zm3-1v1h4v-1h-4z" opacity=".45"/>
 <path d="m10 1v1h2v-1h-2zm0 1h-9v1h9v-1zm3 0v1h2v-1h-2zm-9 4v1h2v-1h-2zm0 1h-3v1h3v-1zm3 0v1h8v-1h-8zm1 4v1h2v-1h-2zm0 1h-7v1h7v-1zm3 0v1h4v-1h-4z" fill="#fff" opacity=".6"/>
</svg>
