<?xml version="1.0" encoding="UTF-8"?>
<svg width="16" height="16" version="1.1" xmlns="http://www.w3.org/2000/svg">
 <defs>
  <linearGradient id="gr0" x1="8" x2="8" y1=".998" y2="15" gradientUnits="userSpaceOnUse">
   <stop stop-color="#ebebeb" offset="0"/>
   <stop stop-color="#aaa" offset="1"/>
  </linearGradient>
 </defs>
 <path d="m6.04-0.00195a1 1 0 0 0-0.396 0.082c-1.42 0.0993-2.81 0.651-3.88 1.72-2.34 2.34-2.34 6.16 0 8.5 1.85 1.85 4.62 2.25 6.86 1.17 0.152-0.0723 0.137-0.0736 0.131-0.0762 0.0913-0.0325 0.254-0.08 0.365-0.0879 0.00693-5e-4 0.00222-0.0015 0.00781-0.0019-0.00521-0.0022-0.0286-0.0474 0.0195 0.0879 0.0826 0.232 0.265 0.653 0.623 1.01a1 1 0 0 0 0.00195 0.0039l3.07 3.04a1 1 0 0 0 0.0605 0.0527 1 1 0 0 0 0.0157 0.0137c0.0027 0.0024 0.0028 0.0033 0.0058 0.0059 0.0072 0.0062 0.0227 0.0162 0.0313 0.0234 1e-4 1e-4 -0.013-0.0117-0.0254-0.0215a1 1 0 0 0 0.043 0.0332c-0.0045-0.0027-0.0177-0.0117-0.0176-0.0117 0.0309 0.0258 0.062 0.0538 0.109 0.0879 0.121 0.0873 0.293 0.194 0.531 0.275 0.476 0.162 1.31 0.069 1.85-0.465h2e-3c0.528-0.53 0.629-1.36 0.469-1.84-0.16-0.48-0.4-0.686-0.404-0.691a1 1 0 0 0-0.0625-0.0704l-3.03-3.07a1 1 0 0 0-2e-3 -0.00196c-0.349-0.351-0.756-0.537-0.98-0.621-0.115-0.0432-0.0658-0.0187-0.0762-0.0215 0.0012-0.0207 4e-4 -0.0282 0.0098-0.0801 0.0313-0.174 0.108-0.356 0.119-0.381l-0.0078 0.0156c1.08-2.25 0.69-5.02-1.16-6.88-1.17-1.17-2.72-1.8-4.28-1.8zm0 1c1.28 0 2.59 0.524 3.57 1.51 1.55 1.55 1.87 3.87 0.969 5.74-0.029 0.063-0.492 1.07 0 1.57 0.299 0.299 0.67 0.201 1.13 0.66l3.03 3.07c0.01 0.011 0.6 0.59 0 1.19-0.597 0.6-1.19 0-1.19 0l-3.07-3.04c-0.458-0.458-0.358-0.86-0.656-1.16-0.403-0.404-1.17-0.182-1.47-0.0625-0.0485 0.025-0.107 0.0708-0.156 0.0938-1.87 0.907-4.17 0.581-5.72-0.973-1.96-1.96-1.96-5.12 0-7.09 0.979-0.982 2.28-1.51 3.57-1.51v-0.00195zm0 1.29c-2.08 0-3.75 1.68-3.75 3.76 0 2.08 1.68 3.76 3.75 3.76s3.75-1.68 3.75-3.76-1.68-3.76-3.75-3.76zm0 1c0.301 0 0.494 0.228 0.764 0.314l-0.799 0.531v-0.131a1 1 0 0 0-0.211-0.613c0.0941-0.00946 0.149-0.102 0.246-0.102zm-2.04 0.715h1v2l3-2v4l-3-2v2h-1v-4zm2 3.87 0.889 0.592c-0.296 0.107-0.518 0.35-0.854 0.35-0.121 0-0.19-0.112-0.307-0.127a1 1 0 0 0 0.271-0.684v-0.131z" opacity=".25"/>
 <path d="m6.04 0.998v0.00195c-1.28 0-2.59 0.524-3.57 1.51-1.96 1.96-1.96 5.12 0 7.09 1.55 1.55 3.86 1.88 5.72 0.973 0.0491-0.023 0.108-0.0688 0.156-0.0938 0.303-0.12 1.07-0.342 1.47 0.0625 0.299 0.3 0.198 0.702 0.656 1.16l3.07 3.04c3e-3 -3e-3 0.59 0.6 1.19 0 0.6-0.601 9e-3 -1.18 0-1.19l-3.03-3.07c-0.457-0.459-0.828-0.361-1.13-0.66-0.492-0.494-0.029-1.5 0-1.57 0.904-1.87 0.582-4.19-0.969-5.74-0.979-0.982-2.28-1.51-3.57-1.51zm0 1.29c2.08 0 3.75 1.68 3.75 3.76s-1.68 3.76-3.75 3.76-3.75-1.68-3.75-3.76c2e-4 -2.08 1.68-3.76 3.75-3.76zm-2.04 1.71v4h1v-4h-1zm1 2 3 2v-4l-3 2z" fill="url(#gr0)"/>
 <path d="m6.04 2.29c-2.08 0-3.75 1.68-3.75 3.76 0 0.171 0.0288 0.335 0.0508 0.5 0.245-1.84 1.8-3.26 3.7-3.26s3.46 1.42 3.7 3.26c0.022-0.165 0.0508-0.329 0.0508-0.5 0-2.08-1.68-3.76-3.75-3.76zm-0.285 4.21-0.75 0.5 3 2v-1l-2.25-1.5zm-4.7 0.0488c-0.145 1.44 0.313 2.93 1.42 4.04 1.55 1.55 3.86 1.88 5.72 0.973 0.0491-0.023 0.108-0.0688 0.156-0.0938 0.303-0.12 1.07-0.341 1.47 0.0625 0.299 0.3 0.198 0.702 0.656 1.16l3.07 3.04s0.59 0.6 1.19 0c0.47-0.47 0.216-0.918 0.0761-1.1-0.0262 0.033-0.0429 0.0663-0.0761 0.0996-0.597 0.6-1.19 0-1.19 0l-3.07-3.04c-0.458-0.458-0.358-0.86-0.656-1.16-0.403-0.404-1.17-0.182-1.47-0.0625-0.0485 0.025-0.107 0.0708-0.156 0.0938-1.87 0.907-4.17 0.581-5.72-0.973-0.851-0.853-1.31-1.93-1.42-3.04zm9.98 0.0156c-0.0586 0.576-0.204 1.15-0.461 1.68-0.0257 0.0559-0.389 0.854-0.129 1.38 0.0576-0.196 0.119-0.356 0.129-0.379 0.406-0.842 0.55-1.77 0.461-2.68zm-7.03 1.44v1h1v-1h-1z" opacity=".45"/>
 <path d="m6.04 0.998v0.00195c-1.28 0-2.59 0.524-3.57 1.51-1.11 1.11-1.56 2.6-1.42 4.04 0.111-1.11 0.569-2.19 1.42-3.04 0.979-0.982 2.28-1.51 3.57-1.51v-0.00195c1.28 0 2.59 0.524 3.57 1.51 0.854 0.856 1.32 1.94 1.43 3.06 0.148-1.45-0.32-2.95-1.43-4.06-0.979-0.982-2.28-1.51-3.57-1.51zm-2.04 3v1h1v-1h-1zm4 0-3 2 0.75 0.5 2.25-1.5v-1zm-5.67 2.55c-0.022 0.165-0.0508 0.329-0.0508 0.5 0 2.08 1.68 3.76 3.75 3.76s3.75-1.68 3.75-3.76c0-0.171-0.0288-0.335-0.0508-0.5-0.245 1.84-1.8 3.26-3.7 3.26s-3.46-1.42-3.7-3.26zm8.11 3.07c-0.104 0.355-0.188 0.869 0.129 1.19 0.299 0.3 0.67 0.201 1.13 0.66l3.03 3.07c0.0021 0.0024 0.0374 0.0413 0.0761 0.0918 0.447-0.564-0.0667-1.08-0.0761-1.09l-3.03-3.07c-0.457-0.459-0.828-0.361-1.13-0.66-0.0557-0.0559-0.0957-0.121-0.129-0.188z" fill="#fff" opacity=".6"/>
</svg>
