<?xml version="1.0" encoding="UTF-8"?>
<svg width="16" height="16" version="1.1" xmlns="http://www.w3.org/2000/svg">
 <defs>
  <linearGradient id="gr0" x1="8" x2="8" y1=".998" y2="15" gradientUnits="userSpaceOnUse">
   <stop stop-color="#ebebeb" offset="0"/>
   <stop stop-color="#aaa" offset="1"/>
  </linearGradient>
 </defs>
 <path d="m6.04-0.00195v0.00195l1 0.998h-1c1.28 0 2.59 0.524 3.57 1.51 1.55 1.55 1.87 3.87 0.969 5.74-0.0103 0.0225-0.0731 0.184-0.131 0.381 0.0457 0.0685 0.408 0.609 0.408 0.609-1e-4 -2e-5 0.0411 0.209 0.082 0.414a1 1 0 0 0-0.562-0.562c-0.0163 0.263 0.0112 0.532 0.203 0.725 0.299 0.299 0.67 0.201 1.13 0.66l3.03 3.07c0.01 0.0111 0.6 0.59 0 1.19-0.597 0.6-1.19 0-1.19 0l-3.07-3.04c-0.327-0.326-0.371-0.622-0.477-0.875v-0.818a1 1 0 0 0-1-1h-0.658c0.876-0.688 1.45-1.75 1.45-2.95 0-2.08-1.68-3.76-3.75-3.76s-3.75 1.68-3.75 3.76c0 1.2 0.571 2.26 1.45 2.95h-1.76c-1.44-1.96-1.27-4.72 0.498-6.49 0.979-0.982 2.28-1.51 3.57-1.51v-0.00195h-0.998l0.998-0.998c-1.56 0-3.11 0.629-4.27 1.8-1.95 1.96-2.2 4.91-0.881 7.21a1 1 0 0 0-0.881 0.992v1a1 1 0 0 0 0.135 0.5 1 1 0 0 0-0.135 0.5v3a1 1 0 0 0 1 1h3a1 1 0 0 0 1-1h1a1 1 0 0 0 1-1v1a1 1 0 0 0 1 1h1a1 1 0 0 0 1-1v-2.37l2.84 2.82a1 1 0 0 0 0.0469 0.0429 1 1 0 0 0 0.0254 0.0235 1 1 0 0 0 0.0039 0.0019c0.0019 0.0017 0.0018 0.0022 0.0039 0.0039a1 1 0 0 0 0.0332 0.0254c0.0307 0.0256 0.0627 0.0543 0.109 0.0879 0.121 0.0873 0.293 0.194 0.531 0.275 0.476 0.162 1.31 0.0689 1.85-0.465h2e-3c0.528-0.53 0.627-1.36 0.467-1.84-0.16-0.48-0.398-0.684-0.402-0.689a1 1 0 0 0-0.0625-0.0704l-3.03-3.07a1 1 0 0 0-2e-3 -0.00196c-0.349-0.351-0.757-0.537-0.98-0.621-0.115-0.0432-0.0658-0.0187-0.0762-0.0215 0.0012-0.0207 4e-4 -0.0282 0.0098-0.0801 0.0313-0.174 0.108-0.356 0.119-0.381l-0.0078 0.0156c1.08-2.25 0.69-5.02-1.16-6.88-1.17-1.17-2.72-1.8-4.27-1.8zm0 3.29c1.54 0 2.75 1.22 2.75 2.76 0 0.888-0.415 1.65-1.06 2.16a1 1 0 0 0-0.355 1.01 1 1 0 0 0-0.305 0.426 1 1 0 0 0-0.0195 0.0566 1 1 0 0 0-0.0234 0.0938 1 1 0 0 0-0.0156 0.0996 1 1 0 0 0-0.00586 0.0996c-0.0422 1e-3 -0.0378-0.00518-0.148 0.0117a1 1 0 0 0-0.0879 0.0176 1 1 0 0 0-0.0508 0.0137 1 1 0 0 0-0.0371 0.0117 1 1 0 0 0-0.0859 0.0351 1 1 0 0 0-0.0898 0.045 1 1 0 0 0-0.0898-0.045 1 1 0 0 0-0.0215-0.0097 1 1 0 0 0-0.0703-0.0274 1 1 0 0 0-0.0234-0.0078 1 1 0 0 0-0.0723-0.0195 1 1 0 0 0-0.00391 0 1 1 0 0 0-0.0625-0.0117 1 1 0 0 0-0.0547-0.0078 1 1 0 0 0-0.00195 0 1 1 0 0 0-0.00586 0 1 1 0 0 0-0.0898-0.0059 1 1 0 0 0-0.00391 0h-1a1 1 0 0 0-0.00391-0.084 1 1 0 0 0-0.00195-0.0156 1 1 0 0 0-0.0117-0.084 1 1 0 0 0-0.00976-0.0488 1 1 0 0 0-0.0176-0.0625 1 1 0 0 0-0.0274-0.0801 1 1 0 0 0-0.238-0.35 1 1 0 0 0-0.344-1.06c-0.65-0.511-1.06-1.28-1.06-2.16 1.5e-4 -1.54 1.22-2.76 2.75-2.76zm-0.811 5.38 0.631 0.582c-5e-5 -1.3e-4 0.0661 0.34 0.107 0.553 0.0246 6.1e-4 0.0475 0.00586 0.0723 0.00586 0.037-0.2 0.0938-0.514 0.0938-0.514l0.127-0.117c0.0424-0.0148 0.046-0.0152 0.0918-0.0312a1 1 0 0 0-0.0723 0.0137l0.0938-0.0859a1 1 0 0 0-0.141-0.0469c0.0818 0.0109 0.105 0.0153 0.166 0.0234l0.395-0.363c-0.273 0.0779-0.517 0.121-0.754 0.121-0.258 0-0.52-0.0506-0.811-0.141zm1.55 0.504c0.115 0.0478 0.231 0.0957 0.23 0.0957a1 1 0 0 0-0.23-0.0957zm-0.0176 0.188 0.0527 0.348c0.0417-0.00959 0.0837-0.0186 0.125-0.0293a1 1 0 0 0-0.178-0.318zm-5.75 0.639h3v3h-2v1h2v1h-3v-3h2v-1h-2v-1zm7 0h1v5h-1v-3h-1v-1c0.221-0.0329 1.08 0.0761 1-1zm-1.09 0.385 0.0527 0.34a1 1 0 0 0-0.104-0.234 1 1 0 0 0 0.0508-0.105zm-1.91 0.615h1v1h-1v-1zm0 2h1v1h-1v-1z" opacity=".25"/>
 <path d="m6.04 0.998v0.00195c-1.28 0-2.59 0.524-3.57 1.51-1.77 1.78-1.93 4.53-0.498 6.49h1.76c-0.876-0.688-1.45-1.75-1.45-2.95 2e-4 -2.08 1.68-3.76 3.75-3.76s3.75 1.68 3.75 3.76c0 1.2-0.572 2.26-1.45 2.95h0.658a1 1 0 0 1 1 1v0.818c0.106 0.253 0.15 0.549 0.477 0.875l3.07 3.04c3e-3 -3e-3 0.59 0.6 1.19 0 0.6-0.601 9e-3 -1.18 0-1.19l-3.03-3.07c-0.457-0.459-0.828-0.361-1.13-0.66-0.492-0.494-0.029-1.5 0-1.57 0.904-1.87 0.582-4.19-0.968-5.74-0.979-0.981-2.28-1.51-3.57-1.51zm-1.11 8.63a1 1 0 0 1 0.0723 0.375h1a1 1 0 0 1 0.5 0.135 1 1 0 0 1 0.352-0.123c0.111-0.0169 0.106-0.011 0.148-0.012a1 1 0 0 1 0.0645-0.35c-0.329 0.094-0.67 0.16-1.03 0.16-0.388 0-0.755-0.0763-1.11-0.186zm-3.93 0.375v1h2v1h-2v3h3v-1h-2v-1h2v-3h-3zm7 0c0.0771 1.08-0.779 0.967-1 1v1h1v3h1v-5h-1zm-3 1v1h1v-1h-1zm0 2v1h1v-1h-1z" fill="url(#gr0)"/>
 <path d="m6.04 2.29c-2.08 0-3.75 1.68-3.75 3.76 0 0.188 0.018 0.372 0.0449 0.553 0.222-1.87 1.78-3.32 3.71-3.32s3.49 1.45 3.71 3.32c0.0269-0.18 0.0449-0.364 0.0449-0.553 0-2.08-1.68-3.76-3.75-3.76zm5 4.28c-0.0586 0.577-0.204 1.15-0.461 1.68-0.0257 0.0559-0.389 0.854-0.129 1.38 0.0576-0.196 0.119-0.356 0.129-0.379 0.406-0.842 0.55-1.77 0.461-2.68zm-10 0.00782c-0.112 1.19 0.196 2.41 0.938 3.43h1.76c-0.35-0.275-0.633-0.621-0.869-1h-0.889c-0.534-0.73-0.846-1.57-0.938-2.43zm8.16 2.45c-0.234 0.37-0.512 0.711-0.855 0.98h0.658a1 1 0 0 1 1 1v0.818c0.106 0.253 0.15 0.549 0.477 0.875l3.07 3.04s0.59 0.6 1.19 0c0.47-0.47 0.216-0.918 0.0761-1.1-0.0263 0.0332-0.0427 0.0661-0.0761 0.0996-0.597 0.6-1.19 0-1.19 0l-3.07-3.04c-0.327-0.326-0.371-0.622-0.477-0.875v-0.818a1 1 0 0 0-0.801-0.98 1 1 0 0 0-0.00195 0zm-4.27 1.61a1 1 0 0 1 0.0723 0.375h1a1 1 0 0 1 0.5 0.135 1 1 0 0 1 0.352-0.123c0.111-0.017 0.106-0.0107 0.148-0.0117a1 1 0 0 1 0.0644-0.35c-0.329 0.094-0.67 0.16-1.03 0.16-0.388 0-0.755-0.076-1.11-0.186zm-3.93 0.375v1h2v-1h-2zm4 1v1h1v-1h-1zm2 0v1h1v-1h-1zm-5 1v1h2v-1h-2zm3 1v1h1v-1h-1zm-4 1v1h3v-1h-3zm7 0v1h1v-1h-1z" opacity=".45"/>
 <path d="m6.04 0.998v0.00195c-1.28 0-2.59 0.524-3.57 1.51-1.11 1.12-1.59 2.62-1.44 4.07 0.105-1.12 0.578-2.21 1.44-3.07 0.979-0.982 2.28-1.51 3.57-1.51v-0.00195c1.28 0 2.59 0.524 3.57 1.51 0.854 0.856 1.32 1.94 1.43 3.06 0.147-1.45-0.32-2.95-1.43-4.06-0.979-0.981-2.28-1.51-3.57-1.51zm-3.71 5.6c-0.0177 0.148-0.0449 0.294-0.0449 0.447 0 0.724 0.224 1.38 0.578 1.95h0.869c-0.739-0.58-1.26-1.43-1.4-2.4zm7.42 0c-0.145 0.973-0.664 1.82-1.4 2.4h0.658a1 1 0 0 1 0.197 0.0195 1 1 0 0 1 0.00195 0c0.362-0.574 0.59-1.24 0.59-1.97 0-0.153-0.0273-0.299-0.0449-0.447zm0.697 3.02c-0.104 0.355-0.188 0.869 0.129 1.19 0.299 0.3 0.67 0.201 1.13 0.66l3.03 3.07c0.0021 0.0024 0.0374 0.0414 0.0761 0.0918 0.447-0.564-0.0667-1.08-0.0761-1.09l-3.03-3.07c-0.457-0.459-0.828-0.361-1.13-0.66-0.0557-0.0559-0.0957-0.121-0.129-0.188zm-5.51 0.00195a1 1 0 0 1 0.0723 0.375h1a1 1 0 0 1 0.5 0.135 1 1 0 0 1 0.352-0.123c0.111-0.0169 0.106-0.0107 0.148-0.0117a1 1 0 0 1 0.0644-0.35c-0.329 0.094-0.67 0.16-1.03 0.16-0.388 0-0.755-0.0764-1.11-0.186zm-3.93 0.375v1h3v-1h-3zm7 0c0.0771 1.08-0.779 0.967-1 1v1c0.221-0.0329 1.08 0.0761 1-1h1v-1h-1zm-3 1v1h1v-1h-1zm-4 1v1h2v-1h-2zm4 1v1h1v-1h-1zm-3 1v1h2v-1h-2z" fill="#fff" opacity=".6"/>
</svg>
