<?xml version="1.0" encoding="UTF-8"?>
<svg width="22" height="22" version="1.1" xmlns="http://www.w3.org/2000/svg">
 <path d="m11 3a8 8 0 0 0-8 8 8 8 0 0 0 0.0195 0.545c1.63-1.56 3.29-2.34 4.89-2.51 1.86-0.193 3.55 0.432 4.98 1.3 1.43 0.873 2.63 2 3.6 2.96 0.676 0.666 1.2 1.15 1.56 1.47a8 8 0 0 0 0.943-3.76 8 8 0 0 0-8-8zm3 3a2 2 0 0 1 2 2 2 2 0 0 1-2 2 2 2 0 0 1-2-2 2 2 0 0 1 2-2zm-5.4 5c-0.16-2.84e-4 -0.322 0.00861-0.484 0.0254-1.3 0.134-2.74 0.82-4.38 2.64l-0.203 0.227a8 8 0 0 0 7.46 5.11 8 8 0 0 0 5.85-2.56c-0.571-0.453-1.08-1.05-1.76-1.71-0.937-0.923-2.05-1.95-3.24-2.68-1.05-0.638-2.13-1.05-3.25-1.05z" fill="#bebebe"/>
</svg>
