<?xml version="1.0" encoding="UTF-8"?>
<svg width="22" height="22" version="1.1" xmlns="http://www.w3.org/2000/svg">
 <path d="m11 7c-1.1 0-2 0.895-2 2 0 1.1 0.895 2 2 2 1.1 0 2-0.895 2-2 0-1.1-0.895-2-2-2zm0 6c-0.554 0-1 0.446-1 1v5c0 0.554 0.446 1 1 1s1-0.446 1-1v-5c0-0.554-0.446-1-1-1z" fill="#bebebe"/>
 <path d="m4.69 1.63a1 1 0 0 0-0.652 0.213 1 1 0 0 0-0.2 0.2c-3.9 3.9-3.9 10.2 0 14.1a1 1 0 0 0 0.5 0.295 1 1 0 0 0 0.2 0 1 1 0 0 0 0.2 0 1 1 0 0 0 0.3-0.1 1 1 0 0 0 0.3-0.3 1 1 0 0 0 0.2-0.4 1 1 0 0 0-0.2-0.8 1 1 0 0 0-0.1-0.1c-3.13-3.13-3.13-8.2 0-11.3a1 1 0 0 0 0.3-0.5 1 1 0 0 0 0-0.2 1 1 0 0 0 0-0.2 1 1 0 0 0 0-0.2 1 1 0 0 0-0.1-0.1 1 1 0 0 0-0.3-0.3 1 1 0 0 0-0.4-0.2 1 1 0 0 0-0.143-0.0156zm12.6 0a1 1 0 0 0-0.143 0.0156 1 1 0 0 0-0.4 0.2 1 1 0 0 0-0.3 0.3 1 1 0 0 0-0.1 0.1 1 1 0 0 0 0 0.2 1 1 0 0 0 0 0.2 1 1 0 0 0 0 0.2 1 1 0 0 0 0.3 0.5c3.13 3.13 3.13 8.2 0 11.3a1 1 0 0 0-0.1 0.1 1 1 0 0 0-0.2 0.8 1 1 0 0 0 0.2 0.4 1 1 0 0 0 0.3 0.3 1 1 0 0 0 0.3 0.1 1 1 0 0 0 0.2 0 1 1 0 0 0 0.2 0 1 1 0 0 0 0.5-0.3c3.9-3.9 3.9-10.2 0-14.1a1 1 0 0 0-0.1-0.1 1 1 0 0 0-0.652-0.213zm-9.86 2.8a1 1 0 0 0-0.707 0.326c-2.33 2.33-2.33 6.17 0 8.51a1.02 1.02 0 0 0 1.44-1.44c-1.57-1.57-1.57-4.06 0-5.63a1 1 0 0 0 0.164-1.27 1 1 0 0 0-0.895-0.492zm7.09 0a1 1 0 0 0-0.895 0.492 1 1 0 0 0 0.164 1.27c1.57 1.57 1.57 4.06 0 5.63a1.02 1.02 0 1 0 1.44 1.44c2.34-2.34 2.34-6.17 0-8.51a1 1 0 0 0-0.707-0.326z" fill="#bebebe" opacity=".45"/>
</svg>
