<?xml version="1.0" encoding="UTF-8"?>
<svg id="svg25" width="16" height="16" version="1.1" xmlns="http://www.w3.org/2000/svg" xmlns:cc="http://creativecommons.org/ns#" xmlns:dc="http://purl.org/dc/elements/1.1/" xmlns:rdf="http://www.w3.org/1999/02/22-rdf-syntax-ns#">
 <metadata id="metadata29">
  <rdf:RDF>
   <cc:Work rdf:about="">
    <dc:format>image/svg+xml</dc:format>
    <dc:type rdf:resource="http://purl.org/dc/dcmitype/StillImage"/>
   </cc:Work>
  </rdf:RDF>
 </metadata>
 <defs id="defs7">
  <linearGradient id="gr0" x1="8" x2="8" y1="1" y2="14" gradientUnits="userSpaceOnUse">
   <stop id="stop2" stop-color="#ebebeb" offset="0"/>
   <stop id="stop4" stop-color="#aaa" offset="1"/>
  </linearGradient>
 </defs>
 <path id="path9" d="m8.5 0c-1.8668 6.4354e-4 -3.7241 0.72956-5.0938 1.998-1.134 1.0503-1.809 2.4908-2.1289 4.002h-1.2773a1 1.0001 0 0 0-0.85742 1.5137l3 5a1.0001 1.0001 0 0 0 1.7148 0l2.375-3.959c0.2647 0.79634 0.89221 1.4453 1.7676 1.4453h2c1.0891 0 2-0.90737 2-1.998s-0.9086-2-2-2v-1.0039c0-1.0366-0.82522-1.8986-1.8418-1.9824a4.5 4.5 0 0 0-1.0644 0.2168c-0.64186 0.33532-1.0938 1.0018-1.0938 1.7656v1.002h-1.7344a4.5 4.5 0 0 0-0.23437 1h1.9688l-3 5-3-5h2.0215a6.5 6.5 0 0 1 6.4785-6 6.5 6.5 0 0 1 6.5 6.5 6.5 6.5 0 0 1-6.5 6.5 6.5 6.5 0 0 1-0.5-0.0215v-1.0156c-0.04385-0.0018-0.0845-0.0027-0.11914-0.0039l-0.88086-0.9902v2.0097a1.0001 1.0001 0 0 0 0.91992 0.9981c0.1919 0.0154 0.38365 0.0227 0.57617 0.0234a1.0001 1.0001 0 0 0 0.00391 0c1.9635 0 3.9143-0.8089 5.3027-2.1973s2.1973-3.3392 2.1973-5.3027-0.8089-3.9143-2.1973-5.3027c-1.3884-1.3884-3.3392-2.1973-5.3027-2.1973zm-0.5 4c0.554 0 1 0.44475 1 0.99805v2.0039h1c0.554 0 1 0.4466 1 1 0 0.5533-0.446 0.99805-1 0.99805h-2c-0.554 0-1-0.44475-1-0.99805v-3.0039c0-0.5533 0.446-0.99805 1-0.99805z" opacity=".25"/>
 <path id="base" d="m8.5 1a6.5 6.5 0 0 0-6.4785 6h-2.0215l3 5 3-5h-1.9688a4.5 4.5 0 0 1 4.4688-4 4.5 4.5 0 0 1 4.5 4.5 4.5 4.5 0 0 1-4.5 4.5 4.5 4.5 0 0 1-0.5-0.031v2.01a6.5 6.5 0 0 0 0.5 0.021 6.5 6.5 0 0 0 6.5-6.5 6.5 6.5 0 0 0-6.5-6.5zm-0.5 3c-0.554 0-1 0.4447-1 0.998v3.004c0 0.5533 0.446 0.998 1 0.998h2c0.554 0 1-0.4447 1-0.998 0-0.5534-0.446-1-1-1h-1v-2.004c0-0.5533-0.446-0.998-1-0.998z" fill="url(#gr0)"/>
 <path id="path15" d="m8.5 3a4.5 4.5 0 0 0-4.4688 4h0.23437a4.5 4.5 0 0 1 3.3066-2.8965c0.13058-0.06214 0.2729-0.10352 0.42773-0.10352 0.03875 0 0.07179 0.01725 0.10938 0.02148a4.5 4.5 0 0 1 0.39062-0.02148 4.5 4.5 0 0 1 4.4668 4.0117 4.5 4.5 0 0 0 0.0332-0.51172 4.5 4.5 0 0 0-4.5-4.5zm-8.5 5 3 5 3-5h-0.59961l-2.4004 4-2.4004-4h-0.59961zm7 0.00195v1c0 0.5533 0.446 0.99805 1 0.99805h2c0.554 0 1-0.44475 1-0.99805 0-0.18616-0.0643-0.35094-0.1523-0.5-0.1739 0.29294-0.4804 0.49805-0.8477 0.49805h-2c-0.554 0-1-0.44475-1-0.99805zm7.9766 0.02735a6.5 6.5 0 0 1-6.4766 5.9707 6.5 6.5 0 0 1-0.5-0.0215v1a6.5 6.5 0 0 0 0.5 0.0215 6.5 6.5 0 0 0 6.5-6.5 6.5 6.5 0 0 0-0.0234-0.4707z" opacity=".45"/>
 <path id="path20" d="m8.5 1a6.5 6.5 0 0 0-6.4785 6h-2.0215l0.59961 1h1.4219a6.5 6.5 0 0 1 6.4785-6 6.5 6.5 0 0 1 6.4766 6.0293 6.5 6.5 0 0 0 0.0234-0.5293 6.5 6.5 0 0 0-6.5-6.5zm-0.39062 3.0215a4.5 4.5 0 0 0-0.53711 0.08204c-0.33666 0.16018-0.57227 0.49586-0.57227 0.89453v1c0-0.5533 0.446-0.99805 1-0.99805s1 0.44475 1 0.99805v-1c0-0.5146-0.39097-0.92023-0.89062-0.97657zm-3.8438 2.9785a4.5 4.5 0 0 0-0.23437 1h1.3691l0.59961-1h-1.7344zm4.7344 0.00195v1h1c0.3676 0 0.6739 0.20597 0.8477 0.5 0.0884-0.14896 0.1523-0.31348 0.1523-0.5 0-0.5534-0.446-1-1-1h-1zm3.9668 1.0098a4.5 4.5 0 0 1-4.4668 3.9883 4.5 4.5 0 0 1-0.5-0.0312v1a4.5 4.5 0 0 0 0.5 0.0312 4.5 4.5 0 0 0 4.5-4.5 4.5 4.5 0 0 0-0.0332-0.48828z" fill="#fff" opacity=".6"/>
</svg>
