<?xml version="1.0" encoding="UTF-8"?>
<svg id="svg49" width="16" height="16" version="1.1" xmlns="http://www.w3.org/2000/svg" xmlns:cc="http://creativecommons.org/ns#" xmlns:dc="http://purl.org/dc/elements/1.1/" xmlns:rdf="http://www.w3.org/1999/02/22-rdf-syntax-ns#">
 <metadata id="metadata53">
  <rdf:RDF>
   <cc:Work rdf:about="">
    <dc:format>image/svg+xml</dc:format>
    <dc:type rdf:resource="http://purl.org/dc/dcmitype/StillImage"/>
   </cc:Work>
  </rdf:RDF>
 </metadata>
 <defs id="defs12">
  <linearGradient id="gr0" x1="8" x2="8" y1="3" y2="13" gradientUnits="userSpaceOnUse">
   <stop id="stop2" stop-color="#ebebeb" offset="0"/>
   <stop id="stop4" stop-color="#aaa" offset="1"/>
  </linearGradient>
  <linearGradient id="gr1" x1="8" x2="8" y1="7" y2="15" gradientUnits="userSpaceOnUse">
   <stop id="stop7" stop-color="#f3604d" offset="0"/>
   <stop id="stop9" stop-color="#c81700" offset="1"/>
  </linearGradient>
 </defs>
 <path id="path14" d="m13.98 1.98-11.98 0.02c-1.0907 0-2 0.909-2 2v4.74a1 1 0 0 0 0.5977 0.914c-0.3812 0.766-0.5977 1.576-0.5977 2.346 0 2.03 1.525 3.71 3.477 3.95a1 1 0 0 0 0.177 0 1 1 0 0 0 0.276 0c1.693 0 2.976-0.89 3.621-2.07a1 1 0 0 0 0.353 0.1h6.076c1.1 0 2-0.92 2-2v-8c0-1.083-0.9-2-2-2zm-11.98 1.02h12c0.56 0 1 0.446 1 1v8c0 0.55-0.44 1-1 1h-6.088c0.127-0.59 0.07-1.19-0.117-1.66-0.22-0.55-0.54-0.95-0.82-1.34-0.333-0.471-0.627-0.934-0.823-1.529l1.846 1.529 6.002-5v-1l-6.002 5-2.037-1.699c-0.01-0.103-0.031-0.189-0.031-0.301 0-0.564-0.466-1.02-1.03-1-0.185 0.02-0.258 0.06-0.4 0.1l-2.5-2.1v1l1.76 1.461c-0.933 0.513-2.029 1.475-2.76 2.279v-4.74c0-0.554 0.446-1 1-1zm2.914 4h0.01c-3e-3 1e-3 -7e-3 3e-3 -0.01 4e-3v0.016c1e-3 -1e-3 9e-3 -2e-3 0.01-2e-3l8e-3 -2e-3c0 0.214 0.031 0.354 0.031 0.38a1 1 0 0 0 0.139 0.422l-0.112 0.114c0.412 2.678 2.495 3.268 1.889 5.068-0.383 1.14-1.322 2-2.949 2 0.805-0.01 1.27-0.43 1.461-1 0.336-1-0.983-1.25-0.983-3-1.227 0.5-1.963 1.67-1.963 2.5 0 0.72 0.494 1.31 1.153 1.46-1.461-0.18-2.598-1.42-2.598-2.96 0-1.62 1.405-3.872 3.746-4.912l-4e-3 -0.02a1 1 0 0 0 0.022 0c0.053-0.014 0.035-0.011 0.056-0.017 0.033-0.014 0.061-0.034 0.094-0.047v-4e-3zm6.526 1.873-0.6 0.5 3.16 2.627v-1l-2.56-2.127zm-7.594 3.837c0.125 0.24 0.256 0.5 0.363 0.65 0.137 0.19 0.199 0.29 0.219 0.33-0.08 0.23-0.06 0.3-0.51 0.31a1 1 0 0 0-0.039 0 1 1 0 0 0-0.061 0c-0.211 0-0.375-0.22-0.375-0.48 0-0.13 0.149-0.45 0.401-0.79l2e-3 -0.02z" opacity=".25"/>
 <path id="base" d="m2 3c-0.554 0-1 0.446-1 1v4.74c0.731-0.804 1.827-1.767 2.76-2.28l-1.76-1.46v-1l2.5 2.1c0.142-0.04 0.215-0.08 0.4-0.1 0.564-0.02 1.03 0.436 1.03 1 0 0.112 0.02 0.197 0.03 0.3l2.04 1.7 6-5v1l-6 5-1.845-1.53c0.196 0.595 0.487 1.059 0.82 1.53 0.28 0.39 0.6 0.79 0.82 1.34 0.187 0.47 0.247 1.07 0.12 1.66h6.08c0.56 0 1-0.45 1-1v-8c0-0.554-0.44-1-1-1zm9.44 5.875 2.56 2.125v1l-3.16-2.625z" fill="url(#gr0)"/>
 <path id="path26" d="m4.928 7c-2.454 1-3.928 3.34-3.928 5 0 1.54 1.137 2.78 2.598 2.96-0.659-0.15-1.153-0.74-1.153-1.46 0-0.83 0.736-2 1.963-2.5 0 1.75 1.319 2 0.983 3-0.191 0.57-0.656 0.99-1.461 1h0.01c1.627 0 2.563-0.86 2.946-2 0.671-1.99-1.963-2.5-1.963-6z" fill="url(#gr1)"/>
 <path id="path28" d="m2 4v1l1.76 1.461c-4e-3 2e-3 -8e-3 6e-3 -0.012 8e-3l0.752 0.631c0.142-0.04 0.215-0.08 0.4-0.1 5e-3 0 9e-3 2e-3 0.014 2e-3v-2e-3h0.01c-3e-3 1e-3 -5e-3 1e-3 -8e-3 2e-3 0.557-0.011 1.014 0.439 1.014 0.998 0 0.112 0.021 0.198 0.031 0.301l2.037 1.699 6.002-5v-1l-6.002 5-2.037-1.699c-0.01-0.103-0.031-0.189-0.031-0.301 0-0.564-0.466-1.02-1.03-1-0.185 0.02-0.258 0.06-0.4 0.1l-2.5-2.1zm1.078 2.895c-0.749 0.528-1.519 1.231-2.078 1.845v1c0.731-0.804 1.827-1.766 2.76-2.279l-0.682-0.566zm8.362 1.978-0.6 0.5 0.6 0.5 2.56 2.127v-1l-2.56-2.127zm-5.288 0.598c0.196 0.599 0.49 1.059 0.823 1.529 0.28 0.39 0.6 0.79 0.82 1.34 0.063 0.16 0.105 0.34 0.137 0.52 0.09-0.54 0.035-1.09-0.137-1.52-0.154-0.38-0.357-0.69-0.561-0.97l-1.082-0.899zm-1.744 1.529c-1.227 0.5-1.963 1.67-1.963 2.5 0 0.18 0.032 0.34 0.086 0.5 0.219-0.75 0.882-1.59 1.877-2 0 1.19 0.6 1.69 0.885 2.2 0.032-0.07 0.074-0.13 0.098-0.2 0.336-1-0.983-1.25-0.983-3zm10.592 1c0 0.55-0.44 1-1 1h-6.047c0.039 0.32 0.032 0.66-0.041 1h6.088c0.56 0 1-0.45 1-1v-1zm-13.951 0.54c-0.023 0.15-0.049 0.31-0.049 0.46 0 1.54 1.137 2.78 2.598 2.96-0.64-0.14-1.115-0.71-1.143-1.4-0.722-0.43-1.251-1.15-1.406-2.02zm5.859 0.34c-0.011 0.04-0.016 0.08-0.029 0.12-0.243 0.72-0.713 1.33-1.438 1.68 1e-3 0.1-0.011 0.2-0.05 0.32-0.191 0.57-0.656 0.99-1.461 1 1.627 0 2.566-0.86 2.949-2 0.143-0.43 0.13-0.78 0.029-1.12z" opacity=".45"/>
 <path id="path39" d="m2 3c-0.554 0-1 0.446-1 1v1c0-0.554 0.446-1 1-1h12c0.56 0 1 0.446 1 1v-1c0-0.554-0.44-1-1-1h-12zm0 2v1l1.078 0.895c0.227-0.161 0.453-0.306 0.67-0.426l-1.748-1.469zm12 0-6 5-1.846-1.529c0.196 0.595 0.488 1.058 0.821 1.529 0.084 0.12 0.172 0.24 0.259 0.37l0.766 0.63 6-5v-1zm-2.56 4.875-0.6 0.505 3.16 2.62v-1l-2.56-2.125zm-3.506 2.995c-8e-3 0.04-0.01 0.08-0.02 0.13h0.039c-6e-3 -0.05-0.012-0.09-0.019-0.13z" fill="#fff" opacity=".6"/>
 <path id="path44" d="m4.924 7v2e-3c1e-3 -1e-3 2e-3 -1e-3 4e-3 -2e-3h-4e-3zm0 2e-3c-2.452 1.001-3.924 3.338-3.924 4.998 0 0.18 0.018 0.36 0.049 0.54 0.235-1.61 1.642-3.626 3.875-4.538v-2e-3h4e-3c-2e-3 1e-3 -3e-3 1e-3 -4e-3 2e-3 1e-3 2.748 1.622 3.658 1.992 4.878 0.529-1.89-1.991-2.45-1.992-5.878zm-2.393 6.998c-0.051 0.17-0.086 0.34-0.086 0.5 0 0.02 9e-3 0.04 0.01 0.06 0.344 0.21 0.728 0.35 1.143 0.4-0.499-0.11-0.9-0.48-1.067-0.96zm2.762 0.2c-0.228 0.46-0.658 0.79-1.363 0.8h9e-3c0.59 0 1.088-0.12 1.502-0.31 0-0.18-0.061-0.34-0.148-0.49z" fill="#fff" opacity=".3"/>
</svg>
