<?xml version="1.0" encoding="UTF-8"?>
<svg id="svg25" width="16" height="16" version="1.1" xmlns="http://www.w3.org/2000/svg" xmlns:cc="http://creativecommons.org/ns#" xmlns:dc="http://purl.org/dc/elements/1.1/" xmlns:rdf="http://www.w3.org/1999/02/22-rdf-syntax-ns#">
 <metadata id="metadata29">
  <rdf:RDF>
   <cc:Work rdf:about="">
    <dc:format>image/svg+xml</dc:format>
    <dc:type rdf:resource="http://purl.org/dc/dcmitype/StillImage"/>
   </cc:Work>
  </rdf:RDF>
 </metadata>
 <defs id="defs7">
  <linearGradient id="a" x1="8" x2="8" y1=".9992" y2="14.999" gradientUnits="userSpaceOnUse">
   <stop id="stop2" stop-color="#ebebeb" offset="0"/>
   <stop id="stop4" stop-color="#aaa" offset="1"/>
  </linearGradient>
 </defs>
 <path id="path9" d="m2.543 0.005859c-1.511-0.059789-2.6639 1.2611-2.5332 2.7151l-0.003907-0.088c0.003695 2.983-0.013094 4.973 0 7.967a1 1 0 0 0 0.001953 0.04c0.059038 1.32 1.1642 2.14 2.3832 2.24l-0.836 0.58a1 1 0 0 0-0.135 0.11c-0.4555 0.46-0.4625 1.08-0.291 1.52 0.171 0.43 0.598 0.89 1.242 0.91a1 1 0 0 0 0.037 0h11.172a1 1 0 0 0 0.04 0c0.64-0.02 1.07-0.48 1.25-0.91 0.17-0.44 0.16-1.06-0.3-1.52a1 1 0 0 0-0.13-0.11l-0.7-0.48c1.47-0.11 2.41-1.46 2.24-2.82l0.01 0.12c0-2.96 0.01-4.935 0-7.903a1 1 0 0 0 0-0.033c-0.06-1.4879-1.42-2.4632-2.78-2.3342l0.09-0.003907h-10.757zm-0.039 1.0001h2e-3 10.794c0.82-0.0775 1.69 0.524 1.69 1.375v7.899c0.1 0.82-0.49 1.72-1.34 1.72h-3.654v1h1.934c0.1 0.01 0.18 0.03 0.28 0.13l1.66 1.15c0.23 0.23 0.04 0.72-0.29 0.72h-11.17c-0.321-0.01-0.511-0.49-0.281-0.72l1.656-1.15c0.058-0.03 0.137-0.13 0.217-0.13h0.06 1.936v-1h-3.307c-0.823 0.07-1.645-0.56-1.685-1.4-0.0131-2.992 0-4.982 0-7.969-0.0764-0.848 0.631-1.6591 1.498-1.625zm1.486 1.994c-0.554 0-1 0.446-1 1v5c0 0.554 0.446 1 1 1h7.91 0.1c0.55 0 1-0.446 1-1v-5c0-0.554-0.45-1-1-1h-8-0.01zm0.01 1h1.42c-0.196 0.309-0.418 0.614-0.418 1v0.418c-0.563 0.357-1.002 0.876-1.002 1.582v-3zm3 0h2c0.554 0 1 0.446 1 1v1c0.56 0 1 0.446 1 1v1.002c0 0.554-0.44 0.998-1 0.998h-3.998c-0.554 0-1.002-0.444-1.002-0.998v-1.002c0-0.554 0.448-1 1.002-1v-1c0-0.554 0.444-1 0.998-1zm3.58 0h1.42v3c0-0.702-0.44-1.222-1-1.58v-0.42c0-0.388-0.22-0.691-0.42-1zm-3.08 1c-0.277 0-0.5 0.221-0.5 0.498v0.502h2v-0.502c0-0.277-0.223-0.498-0.5-0.498h-1zm-3.5 3.002c0 0.387 0.223 0.69 0.42 0.998h-0.42v-0.998zm8 0v0.998h-0.08-0.01-0.33c0.2-0.309 0.42-0.612 0.42-0.998z" opacity=".25"/>
 <path id="base" d="m2.5039 1.0059c-.8673-.03431-1.5742.7775-1.498 1.625.0037 2.9874-.01307 4.9771 0 7.9651.0378.846.8626 1.475 1.6855 1.406 1.6592-.002 1.9446-.002 3.3066 0v1h-1.9355c-.0208-.002-.0417-.002-.0625 0-.0832.018-.1589.062-.2168.125l-1.6562 1.154c-.2304.230-.0438.707.2812.719h11.176c.325-.012.512-.489.281-.719l-1.654-1.154c-.074-.075-.177-.120-.281-.125h-1.9359v-1c1.4589.001 1.8609.007 3.6519 0 .853-.044 1.445-.905 1.342-1.719-.003-2.9634.010-4.9383 0-7.9021-.031-.8510-.867-1.4523-1.685-1.375h-10.799zm1.4961 1.9941h8c.554 0 1 .446 1 1v5c0 .554-.446 1-1 1h-.082-.004-7.914c-.554 0-1-.446-1-1v-5c0-.554.446-1 1-1zm3 1c-.5540 0-.9980.4459-.9980 1v1c-.5540 0-1.002.4459-1.002 1v1.002c0 .5540.4480.9980 1.002.9980h4c.554 0 .998-.4440.998-.9980v-1.002c0-.5541-.444-1-.998-1v-1c0-.5541-.4480-1-1.002-1h-2zm.5 1h1c.2770 0 .5.2210.5.4980v.5020h-2v-.5020c0-.2770.2230-.4980.5-.4980z" fill="url(#a)"/>
 <path id="path15" d="m2.504 1.006c-0.867-0.0341-1.5744 0.777-1.498 1.625v1c-0.0764-0.848 0.631-1.655 1.498-1.625h2e-3 10.794c0.82-0.077 1.69 0.524 1.69 1.375v-1c0-0.851-0.87-1.4525-1.69-1.375h-10.794-2e-3zm4.496 2.994c-0.554 0-0.998 0.446-0.998 1v1c0-0.554 0.444-1 0.998-1h0.5 1 0.5c0.554 0 1 0.446 1 1v-1c0-0.554-0.446-1-1-1h-2zm3 2v1c0.56 0 1 0.446 1 1v-1c0-0.554-0.44-1-1-1zm-3.998 0c-0.554 0-1.002 0.446-1.002 1v1c0-0.554 0.448-1 1.002-1v-1zm1.498 0c-0.277 0-0.5 0.221-0.5 0.498v0.502h2v-0.502c0-0.277-0.223-0.498-0.5-0.498h-1zm-4.51 3v1c0 0.55 0.446 1 1 1h7.91 0.1c0.55 0 1-0.45 1-1v-1c0 0.554-0.45 1-1 1h-0.1-1.9-3.998-2.012c-0.554 0-1-0.446-1-1zm12 1.28v0.34c0.01-0.11 0.01-0.23 0-0.34zm-10.988 2.72c-0.08 0-0.159 0.1-0.217 0.13l-1.656 1.15c-0.23 0.23-0.04 0.71 0.281 0.72h0.121l1.254-0.87c0.058-0.03 0.137-0.13 0.217-0.13h0.06 1.936v-1h-1.996zm5.994 0v1h1.934c0.1 0.01 0.18 0.03 0.28 0.13l1.26 0.87h0.11c0.33 0 0.52-0.49 0.29-0.72l-1.66-1.15c-0.1-0.1-0.18-0.12-0.28-0.13h-1.934z" fill="#fff" opacity=".6"/>
 <path id="path20" d="m3.99 3c-0.554 0-1 0.446-1 1v1c0-0.554 0.446-1 1-1h0.01 3 2 3c0.55 0 1 0.446 1 1v-1c0-0.554-0.45-1-1-1h-8-0.01zm3.51 2c-0.277 0-0.5 0.221-0.5 0.498v0.502h0.5 1 0.5v-0.502c0-0.277-0.223-0.498-0.5-0.498h-1zm-2.5 3.002v1c0 0.554 0.448 0.998 1.002 0.998h3.998c0.56 0 1-0.444 1-0.998v-1c0 0.554-0.44 0.998-1 0.998h-3.998c-0.554 0-1.002-0.444-1.002-0.998zm-3.994 2.598c1e-3 0.35-2e-3 0.62 0 1 0.04 0.84 0.862 1.47 1.685 1.4h1.311 1.996v-1h-3.307c-0.823 0.07-1.645-0.56-1.685-1.4zm13.984 0.02c-0.07 0.71-0.61 1.38-1.34 1.38h-3.654v1h1.934 1.72c0.85 0 1.44-0.9 1.34-1.72v-0.66zm-12.459 4.38-0.402 0.28c-0.23 0.23-0.04 0.71 0.281 0.72h11.17c0.33 0 0.52-0.49 0.29-0.72l-0.4-0.28h-10.939z" opacity=".45"/>
</svg>
