<?xml version="1.0" encoding="UTF-8"?>
<svg id="svg36" width="16" height="16" version="1.1" xmlns="http://www.w3.org/2000/svg" xmlns:cc="http://creativecommons.org/ns#" xmlns:dc="http://purl.org/dc/elements/1.1/" xmlns:rdf="http://www.w3.org/1999/02/22-rdf-syntax-ns#">
 <metadata id="metadata40">
  <rdf:RDF>
   <cc:Work rdf:about="">
    <dc:format>image/svg+xml</dc:format>
    <dc:type rdf:resource="http://purl.org/dc/dcmitype/StillImage"/>
   </cc:Work>
  </rdf:RDF>
 </metadata>
 <defs id="defs7">
  <radialGradient id="gr0" cx="9" cy="10" r="11" gradientTransform="matrix(1 0 0 .72727 0 2.7273)" gradientUnits="userSpaceOnUse">
   <stop id="stop2" stop-opacity=".23529" offset="0"/>
   <stop id="stop4" stop-opacity=".54902" offset="1"/>
  </radialGradient>
 </defs>
 <path id="path9" d="m2.508 0a1 1 0 0 0-0.903 0.5527l-1.4995 3.0003a1 1 0 0 0 0.0293 0.947 1 1 0 0 0-0.1348 0.5v7a1 1 0 0 0 0.1348 0.5 1 1 0 0 0-0.1348 0.5v1.5c0 0.81 0.686 1.5 1.5 1.5h2c0.46 0 0.836-0.24 1.113-0.58 0.362 0.35 0.85 0.58 1.387 0.58h8c1.09 0 2-0.91 2-2v-11c0-1.091-0.91-2-2-2h-8c-0.83 0-1.418 0.595-1.717 1.328l-0.888-1.7753a1 1 0 0 0-0.887-0.5527zm-8e-3 1 1.5 3h-3l1.5-3zm3.5 1h8c0.55 0 1 0.446 1 1v11c0 0.55-0.45 1-1 1h-8c-0.554 0-1-0.45-1-1v-11c0-0.554 0.446-1 1-1zm0.5 1c-0.277 0-0.5 0.223-0.5 0.5v1c0 0.277 0.223 0.5 0.5 0.5h7c0.28 0 0.5-0.223 0.5-0.5v-1c0-0.277-0.22-0.5-0.5-0.5h-7zm-5.5 2h3v7h-3v-7zm5.5 1c-0.277 0-0.5 0.223-0.5 0.5v1c0 0.277 0.223 0.5 0.5 0.5h1c0.277 0 0.5-0.223 0.5-0.5v-1c0-0.277-0.223-0.5-0.5-0.5h-1zm3 0c-0.277 0-0.5 0.223-0.5 0.5v1c0 0.277 0.223 0.5 0.5 0.5h1c0.28 0 0.5-0.223 0.5-0.5v-1c0-0.277-0.22-0.5-0.5-0.5h-1zm3 0c-0.28 0-0.5 0.223-0.5 0.5v1c0 0.277 0.22 0.5 0.5 0.5h1c0.28 0 0.5-0.223 0.5-0.5v-1c0-0.277-0.22-0.5-0.5-0.5h-1zm-6 3c-0.277 0-0.5 0.223-0.5 0.5v1c0 0.28 0.223 0.5 0.5 0.5h1c0.277 0 0.5-0.22 0.5-0.5v-1c0-0.277-0.223-0.5-0.5-0.5h-1zm3 0c-0.277 0-0.5 0.223-0.5 0.5v1c0 0.28 0.223 0.5 0.5 0.5h1c0.28 0 0.5-0.22 0.5-0.5v-1c0-0.277-0.22-0.5-0.5-0.5h-1zm3 0c-0.28 0-0.5 0.223-0.5 0.5v1c0 0.28 0.22 0.5 0.5 0.5h1c0.28 0 0.5-0.22 0.5-0.5v-1c0-0.277-0.22-0.5-0.5-0.5h-1zm-6 3c-0.277 0-0.5 0.22-0.5 0.5v1c0 0.28 0.223 0.5 0.5 0.5h1c0.277 0 0.5-0.22 0.5-0.5v-1c0-0.28-0.223-0.5-0.5-0.5h-1zm3 0c-0.277 0-0.5 0.22-0.5 0.5v1c0 0.28 0.223 0.5 0.5 0.5h1c0.28 0 0.5-0.22 0.5-0.5v-1c0-0.28-0.22-0.5-0.5-0.5h-1zm3 0c-0.28 0-0.5 0.22-0.5 0.5v1c0 0.28 0.22 0.5 0.5 0.5h1c0.28 0 0.5-0.22 0.5-0.5v-1c0-0.28-0.22-0.5-0.5-0.5h-1zm-11.5 1h3v1.5c0 0.28-0.223 0.5-0.5 0.5h-2c-0.277 0-0.5-0.22-0.5-0.5v-1.5z" fill="#fff" opacity=".05"/>
 <path id="base" d="m2.5 1-1.5 3h3l-1.5-3zm3.5 1c-0.554 0-1 0.446-1 1v11c0 0.554 0.446 1 1 1h8c0.554 0 1-0.446 1-1v-11c0-0.554-0.446-1-1-1h-8zm0.5 1h7c0.277 0 0.5 0.223 0.5 0.5v1c0 0.277-0.223 0.5-0.5 0.5h-7c-0.277 0-0.5-0.223-0.5-0.5v-1c0-0.277 0.223-0.5 0.5-0.5zm-5.5 2v7h3v-7h-3zm5.5 1h1c0.277 0 0.5 0.223 0.5 0.5v1c0 0.277-0.223 0.5-0.5 0.5h-1c-0.277 0-0.5-0.223-0.5-0.5v-1c0-0.277 0.223-0.5 0.5-0.5zm3 0h1c0.277 0 0.5 0.223 0.5 0.5v1c0 0.277-0.223 0.5-0.5 0.5h-1c-0.277 0-0.5-0.223-0.5-0.5v-1c0-0.277 0.223-0.5 0.5-0.5zm3 0h1c0.277 0 0.5 0.223 0.5 0.5v1c0 0.277-0.223 0.5-0.5 0.5h-1c-0.277 0-0.5-0.223-0.5-0.5v-1c0-0.277 0.223-0.5 0.5-0.5zm-6 3h1c0.277 0 0.5 0.223 0.5 0.5v1c0 0.277-0.223 0.5-0.5 0.5h-1c-0.277 0-0.5-0.223-0.5-0.5v-1c0-0.277 0.223-0.5 0.5-0.5zm3 0h1c0.277 0 0.5 0.223 0.5 0.5v1c0 0.277-0.223 0.5-0.5 0.5h-1c-0.277 0-0.5-0.223-0.5-0.5v-1c0-0.277 0.223-0.5 0.5-0.5zm3 0h1c0.277 0 0.5 0.223 0.5 0.5v1c0 0.277-0.223 0.5-0.5 0.5h-1c-0.277 0-0.5-0.223-0.5-0.5v-1c0-0.277 0.223-0.5 0.5-0.5zm-6 3h1c0.277 0 0.5 0.223 0.5 0.5v1c0 0.277-0.223 0.5-0.5 0.5h-1c-0.277 0-0.5-0.223-0.5-0.5v-1c0-0.277 0.223-0.5 0.5-0.5zm3 0h1c0.277 0 0.5 0.223 0.5 0.5v1c0 0.277-0.223 0.5-0.5 0.5h-1c-0.277 0-0.5-0.223-0.5-0.5v-1c0-0.277 0.223-0.5 0.5-0.5zm3 0h1c0.277 0 0.5 0.223 0.5 0.5v1c0 0.277-0.223 0.5-0.5 0.5h-1c-0.277 0-0.5-0.223-0.5-0.5v-1c0-0.277 0.223-0.5 0.5-0.5zm-11.5 1v1.5c0 0.277 0.223 0.5 0.5 0.5h2c0.277 0 0.5-0.223 0.5-0.5v-1.5h-3z" fill="url(#gr0)"/>
 <path id="path17" d="m2.5 1-1.5 3h3l-1.5-3zm3.5 1c-0.554 0-1 0.446-1 1v11c0 0.55 0.446 1 1 1h8c0.55 0 1-0.45 1-1v-11c0-0.554-0.45-1-1-1h-8zm-3.5 0.117 0.691 1.383h-1.382l0.691-1.383zm3.5 0.383h0.5c-0.545 0-1 0.455-1 1v-0.5c0-0.286 0.214-0.5 0.5-0.5zm7.5 0h0.5c0.29 0 0.5 0.214 0.5 0.5v0.5c0-0.545-0.45-1-1-1zm-7 0.5h7c0.28 0 0.5 0.223 0.5 0.5v1c0 0.277-0.22 0.5-0.5 0.5h-7c-0.277 0-0.5-0.223-0.5-0.5v-1c0-0.277 0.223-0.5 0.5-0.5zm-1 1.5c0 0.545 0.455 1 1 1-0.545 0-1 0.455-1 1v-2zm9 0v2c0-0.545-0.45-1-1-1 0.55 0 1-0.455 1-1zm-13.5 0.5v7h3v-7h-3zm0.5 0.5h2v6h-2v-6zm6 0h2c-0.545 0-1 0.455-1 1 0-0.545-0.455-1-1-1zm3 0h2c-0.55 0-1 0.455-1 1 0-0.545-0.45-1-1-1zm-4 0.5h1c0.277 0 0.5 0.223 0.5 0.5v1c0 0.277-0.223 0.5-0.5 0.5h-1c-0.277 0-0.5-0.223-0.5-0.5v-1c0-0.277 0.223-0.5 0.5-0.5zm3 0h1c0.28 0 0.5 0.223 0.5 0.5v1c0 0.277-0.22 0.5-0.5 0.5h-1c-0.277 0-0.5-0.223-0.5-0.5v-1c0-0.277 0.223-0.5 0.5-0.5zm3 0h1c0.28 0 0.5 0.223 0.5 0.5v1c0 0.277-0.22 0.5-0.5 0.5h-1c-0.28 0-0.5-0.223-0.5-0.5v-1c0-0.277 0.22-0.5 0.5-0.5zm-7 1.5c0 0.545 0.455 1 1 1-0.545 0-1 0.455-1 1v-2zm3 0c0 0.545 0.455 1 1 1-0.545 0-1 0.455-1 1 0-0.545-0.455-1-1-1 0.545 0 1-0.455 1-1zm3 0c0 0.545 0.45 1 1 1-0.55 0-1 0.455-1 1 0-0.545-0.45-1-1-1 0.55 0 1-0.455 1-1zm3 0v2c0-0.545-0.45-1-1-1 0.55 0 1-0.455 1-1zm-8 1.5h1c0.277 0 0.5 0.223 0.5 0.5v1c0 0.28-0.223 0.5-0.5 0.5h-1c-0.277 0-0.5-0.22-0.5-0.5v-1c0-0.277 0.223-0.5 0.5-0.5zm3 0h1c0.28 0 0.5 0.223 0.5 0.5v1c0 0.28-0.22 0.5-0.5 0.5h-1c-0.277 0-0.5-0.22-0.5-0.5v-1c0-0.277 0.223-0.5 0.5-0.5zm3 0h1c0.28 0 0.5 0.223 0.5 0.5v1c0 0.28-0.22 0.5-0.5 0.5h-1c-0.28 0-0.5-0.22-0.5-0.5v-1c0-0.277 0.22-0.5 0.5-0.5zm-7 1.5c0 0.55 0.455 1 1 1-0.545 0-1 0.45-1 1v-2zm3 0c0 0.55 0.455 1 1 1-0.545 0-1 0.45-1 1 0-0.55-0.455-1-1-1 0.545 0 1-0.45 1-1zm3 0c0 0.55 0.45 1 1 1-0.55 0-1 0.45-1 1 0-0.55-0.45-1-1-1 0.55 0 1-0.45 1-1zm3 0v2c0-0.55-0.45-1-1-1 0.55 0 1-0.45 1-1zm-8 1.5h1c0.277 0 0.5 0.22 0.5 0.5v1c0 0.28-0.223 0.5-0.5 0.5h-1c-0.277 0-0.5-0.22-0.5-0.5v-1c0-0.28 0.223-0.5 0.5-0.5zm3 0h1c0.28 0 0.5 0.22 0.5 0.5v1c0 0.28-0.22 0.5-0.5 0.5h-1c-0.277 0-0.5-0.22-0.5-0.5v-1c0-0.28 0.223-0.5 0.5-0.5zm3 0h1c0.28 0 0.5 0.22 0.5 0.5v1c0 0.28-0.22 0.5-0.5 0.5h-1c-0.28 0-0.5-0.22-0.5-0.5v-1c0-0.28 0.22-0.5 0.5-0.5zm-11.5 1v1.5c0 0.28 0.223 0.5 0.5 0.5h2c0.277 0 0.5-0.22 0.5-0.5v-1.5h-3zm0.5 0.5h2v1h-2v-1zm4 0c0 0.55 0.455 1 1 1h-0.5c-0.286 0-0.5-0.21-0.5-0.5v-0.5zm3 0c0 0.55 0.455 1 1 1h-2c0.545 0 1-0.45 1-1zm3 0c0 0.55 0.45 1 1 1h-2c0.55 0 1-0.45 1-1zm3 0v0.5c0 0.29-0.21 0.5-0.5 0.5h-0.5c0.55 0 1-0.45 1-1z" opacity=".3"/>
 <path id="path24" d="m6.5 3c-0.277 0-0.5 0.223-0.5 0.5v1c0-0.277 0.223-0.5 0.5-0.5h7c0.28 0 0.5 0.223 0.5 0.5v-1c0-0.277-0.22-0.5-0.5-0.5h-7zm-5 1-0.5 1h3l-0.5-1h-2zm5 2c-0.277 0-0.5 0.223-0.5 0.5v1c0-0.277 0.223-0.5 0.5-0.5h1c0.277 0 0.5 0.223 0.5 0.5v-1c0-0.277-0.223-0.5-0.5-0.5h-1zm3 0c-0.277 0-0.5 0.223-0.5 0.5v1c0-0.277 0.223-0.5 0.5-0.5h1c0.28 0 0.5 0.223 0.5 0.5v-1c0-0.277-0.22-0.5-0.5-0.5h-1zm3 0c-0.28 0-0.5 0.223-0.5 0.5v1c0-0.277 0.22-0.5 0.5-0.5h1c0.28 0 0.5 0.223 0.5 0.5v-1c0-0.277-0.22-0.5-0.5-0.5h-1zm-6 3c-0.277 0-0.5 0.223-0.5 0.5v1c0-0.28 0.223-0.5 0.5-0.5h1c0.277 0 0.5 0.22 0.5 0.5v-1c0-0.277-0.223-0.5-0.5-0.5h-1zm3 0c-0.277 0-0.5 0.223-0.5 0.5v1c0-0.28 0.223-0.5 0.5-0.5h1c0.28 0 0.5 0.22 0.5 0.5v-1c0-0.277-0.22-0.5-0.5-0.5h-1zm3 0c-0.28 0-0.5 0.223-0.5 0.5v1c0-0.28 0.22-0.5 0.5-0.5h1c0.28 0 0.5 0.22 0.5 0.5v-1c0-0.277-0.22-0.5-0.5-0.5h-1zm-11.5 3v1h3v-1h-3zm5.5 0c-0.277 0-0.5 0.22-0.5 0.5v1c0-0.28 0.223-0.5 0.5-0.5h1c0.277 0 0.5 0.22 0.5 0.5v-1c0-0.28-0.223-0.5-0.5-0.5h-1zm3 0c-0.277 0-0.5 0.22-0.5 0.5v1c0-0.28 0.223-0.5 0.5-0.5h1c0.28 0 0.5 0.22 0.5 0.5v-1c0-0.28-0.22-0.5-0.5-0.5h-1zm3 0c-0.28 0-0.5 0.22-0.5 0.5v1c0-0.28 0.22-0.5 0.5-0.5h1c0.28 0 0.5 0.22 0.5 0.5v-1c0-0.28-0.22-0.5-0.5-0.5h-1zm-7.5 2v1c0 0.55 0.446 1 1 1h8c0.55 0 1-0.45 1-1v-1c0 0.55-0.45 1-1 1h-0.5-1-2-1-2-1-0.5c-0.554 0-1-0.45-1-1zm-4 0.5v1c0 0.28 0.223 0.5 0.5 0.5h2c0.277 0 0.5-0.22 0.5-0.5v-1c0 0.28-0.223 0.5-0.5 0.5h-2c-0.277 0-0.5-0.22-0.5-0.5z" fill="#fff" opacity=".2"/>
 <path id="path31" d="m2.5 1-1.5 3h0.5l1-2 1 2h0.5l-1.5-3zm3.5 1c-0.554 0-1 0.446-1 1v1c0-0.554 0.446-1 1-1h0.5 7 0.5c0.55 0 1 0.446 1 1v-1c0-0.554-0.45-1-1-1h-8zm0 2.5v1c0 0.277 0.223 0.5 0.5 0.5h1 2 1 2 1c0.28 0 0.5-0.223 0.5-0.5v-1c0 0.277-0.22 0.5-0.5 0.5h-7c-0.277 0-0.5-0.223-0.5-0.5zm-5 0.5v1h3v-1h-3zm5 2.5v1c0 0.277 0.223 0.5 0.5 0.5h1c0.277 0 0.5-0.223 0.5-0.5v-1c0 0.277-0.223 0.5-0.5 0.5h-1c-0.277 0-0.5-0.223-0.5-0.5zm3 0v1c0 0.277 0.223 0.5 0.5 0.5h1c0.28 0 0.5-0.223 0.5-0.5v-1c0 0.277-0.22 0.5-0.5 0.5h-1c-0.277 0-0.5-0.223-0.5-0.5zm3 0v1c0 0.277 0.22 0.5 0.5 0.5h1c0.28 0 0.5-0.223 0.5-0.5v-1c0 0.277-0.22 0.5-0.5 0.5h-1c-0.28 0-0.5-0.223-0.5-0.5zm-6 3v1c0 0.28 0.223 0.5 0.5 0.5h1c0.277 0 0.5-0.22 0.5-0.5v-1c0 0.28-0.223 0.5-0.5 0.5h-1c-0.277 0-0.5-0.22-0.5-0.5zm3 0v1c0 0.28 0.223 0.5 0.5 0.5h1c0.28 0 0.5-0.22 0.5-0.5v-1c0 0.28-0.22 0.5-0.5 0.5h-1c-0.277 0-0.5-0.22-0.5-0.5zm3 0v1c0 0.28 0.22 0.5 0.5 0.5h1c0.28 0 0.5-0.22 0.5-0.5v-1c0 0.28-0.22 0.5-0.5 0.5h-1c-0.28 0-0.5-0.22-0.5-0.5zm-11 2.5v1h3v-1h-3zm5 0.5v1c0 0.28 0.223 0.5 0.5 0.5h1c0.277 0 0.5-0.22 0.5-0.5v-1c0 0.28-0.223 0.5-0.5 0.5h-1c-0.277 0-0.5-0.22-0.5-0.5zm3 0v1c0 0.28 0.223 0.5 0.5 0.5h1c0.28 0 0.5-0.22 0.5-0.5v-1c0 0.28-0.22 0.5-0.5 0.5h-1c-0.277 0-0.5-0.22-0.5-0.5zm3 0v1c0 0.28 0.22 0.5 0.5 0.5h1c0.28 0 0.5-0.22 0.5-0.5v-1c0 0.28-0.22 0.5-0.5 0.5h-1c-0.28 0-0.5-0.22-0.5-0.5z" opacity=".3"/>
</svg>
