<?xml version="1.0" encoding="UTF-8"?>
<svg id="svg36" width="16" height="16" version="1.1" xmlns="http://www.w3.org/2000/svg" xmlns:cc="http://creativecommons.org/ns#" xmlns:dc="http://purl.org/dc/elements/1.1/" xmlns:rdf="http://www.w3.org/1999/02/22-rdf-syntax-ns#">
 <metadata id="metadata40">
  <rdf:RDF>
   <cc:Work rdf:about="">
    <dc:format>image/svg+xml</dc:format>
    <dc:type rdf:resource="http://purl.org/dc/dcmitype/StillImage"/>
   </cc:Work>
  </rdf:RDF>
 </metadata>
 <defs id="defs7">
  <radialGradient id="gr0" cx="9" cy="10" r="11" gradientTransform="matrix(1 0 0 .72727 0 2.7273)" gradientUnits="userSpaceOnUse">
   <stop id="stop2" stop-opacity=".23529" offset="0"/>
   <stop id="stop4" stop-opacity=".54902" offset="1"/>
  </radialGradient>
 </defs>
 <path id="path9" d="m2 0c-1.0907 0-2 0.9093-2 2v8c0 1.09 0.9093 2 2 2a1 1 0 0 0 0.5-0.13 1 1 0 0 0 0.5 0.13h1a1 1 0 0 0 1-1v-1h3v1c-0.72 0-1.442 0.21-2.014 0.64-0.571 0.43-0.986 1.12-0.986 1.86s0.415 1.43 0.986 1.86c0.572 0.43 1.294 0.64 2.014 0.64s1.442-0.21 2.01-0.64c0.2-0.15 0.34-0.36 0.49-0.56 0.15 0.2 0.29 0.41 0.49 0.56 0.57 0.43 1.29 0.64 2.01 0.64s1.44-0.21 2.01-0.64 0.99-1.12 0.99-1.86v-4.5-1a1 1 0 0 0-1-1h-1v-5c0-1.0907-0.91-2-2-2h-2a1 1 0 0 0-1 1v1h-4v-1a1 1 0 0 0-1-1h-2zm0 1h2v1.5c0 0.277 0.223 0.5 0.5 0.5h5c0.277 0 0.5-0.223 0.5-0.5v-1.5h2c0.55 0 1 0.446 1 1v5h-1v-1h-1v1h-1v-2.5c0-0.277-0.223-0.5-0.5-0.5h-5c-0.277 0-0.5 0.223-0.5 0.5v3c0 0.277 0.223 0.5 0.5 0.5h3.5v1h-3.5c-0.277 0-0.5 0.223-0.5 0.5v1.5h-1v-1h-1v1c-0.554 0-1-0.45-1-1v-8c0-0.554 0.446-1 1-1zm0 1v1h1v-1h-1zm9 0v1h1v-1h-1zm-9 2v1h1v-1h-1zm9 0v1h1v-1h-1zm-6 1h4v2a1 1 0 0 0-0.5 0.135 1 1 0 0 0-0.5-0.135h-3v-2zm-3 1v1h1v-1h-1zm0 2v1h1v-1h-1zm7 0h1 4 1v1 4.5a2 1.5 0 0 1-2 1.5 2 1.5 0 0 1-2-1.5 2 1.5 0 0 1 2-1.5 2 1.5 0 0 1 1 0.2v-3.2h-4v4.5a2 1.5 0 0 1-2 1.5 2 1.5 0 0 1-2-1.5 2 1.5 0 0 1 2-1.5 2 1.5 0 0 1 1 0.2v-3.2-1zm2 2h2c0 0.55-0.45 1-1 1h-1v-1z" fill="#fff" opacity=".05"/>
 <path id="base" d="m2 1c-0.554 0-1 0.446-1 1v8c0 0.554 0.446 1 1 1v-1h1v1h1v-1.5c0-0.277 0.223-0.5 0.5-0.5h3.5v-1h-3.5c-0.277 0-0.5-0.223-0.5-0.5v-3c0-0.277 0.223-0.5 0.5-0.5h5c0.277 0 0.5 0.223 0.5 0.5v2.5h1v-1h1v1h1v-5c0-0.554-0.446-1-1-1h-2v1.5c0 0.277-0.223 0.5-0.5 0.5h-5c-0.277 0-0.5-0.223-0.5-0.5v-1.5h-2zm0 1h1v1h-1v-1zm9 0h1v1h-1v-1zm-9 2h1v1h-1v-1zm9 0h1v1h-1v-1zm-9 2h1v1h-1v-1zm0 2h1v1h-1v-1zm7 0v4.2031a2 1.5 0 0 0-1-0.20312 2 1.5 0 0 0-2 1.5 2 1.5 0 0 0 2 1.5 2 1.5 0 0 0 2-1.5v-4.5h4v3.2031a2 1.5 0 0 0-1-0.20312 2 1.5 0 0 0-2 1.5 2 1.5 0 0 0 2 1.5 2 1.5 0 0 0 2-1.5v-5.5h-6zm2 2v1h1c0.554 0 1-0.446 1-1h-2z" fill="url(#gr0)"/>
 <path id="path17" d="m2 1c-0.554 0-1 0.446-1 1v8c0 0.55 0.446 1 1 1v-1h1v1h1v-1.5c0-0.277 0.223-0.5 0.5-0.5h3.5v-1h-3.5c-0.277 0-0.5-0.223-0.5-0.5v-3c0-0.277 0.223-0.5 0.5-0.5h5c0.277 0 0.5 0.223 0.5 0.5v2.5h1v-1h1v1h1v-5c0-0.554-0.45-1-1-1h-2v1.5c0 0.277-0.223 0.5-0.5 0.5h-5c-0.277 0-0.5-0.223-0.5-0.5v-1.5h-2zm1 0.5h0.5v0.5a0.5 0.5 0 0 0-0.5-0.5zm7.5 0h0.5a0.5 0.5 0 0 0-0.5 0.5v-0.5zm-8.5 0.5h1v1h-1v-1zm9 0h1v1h-1v-1zm-7.5 0.5c0 0.545 0.455 1 1 1-0.545 0-1 0.455-1 1v-0.5a0.5 0.5 0 0 0-0.5-0.5 0.5 0.5 0 0 0 0.5-0.5v-0.5zm7 0v0.5a0.5 0.5 0 0 0 0.5 0.5 0.5 0.5 0 0 0-0.5 0.5v0.5c0-0.545-0.45-1-1-1 0.55 0 1-0.455 1-1zm-9 0.5a0.5 0.5 0 0 0 0.5 0.5 0.5 0.5 0 0 0-0.5 0.5v-1zm11 0v1a0.5 0.5 0 0 0-0.5-0.5 0.5 0.5 0 0 0 0.5-0.5zm-10.5 1h1v1h-1v-1zm9 0h1v1h-1v-1zm-9.5 1a0.5 0.5 0 0 0 0.5 0.5 0.5 0.5 0 0 0-0.5 0.5v-1zm2 0v1a0.5 0.5 0 0 0-0.5-0.5 0.5 0.5 0 0 0 0.5-0.5zm7 0a0.5 0.5 0 0 0 0.5 0.5 0.5 0.5 0 0 0-0.5 0.5v-1zm2 0v1a0.5 0.5 0 0 0-0.5-0.5 0.5 0.5 0 0 0 0.5-0.5zm-10.5 1h1v1h-1v-1zm-0.5 1a0.5 0.5 0 0 0 0.5 0.5 0.5 0.5 0 0 0-0.5 0.5v-1zm2 0v0.5c0 0.545 0.455 1 1 1-0.545 0-1 0.455-1 1v0.5a0.5 0.5 0 0 0-0.5-0.5 0.5 0.5 0 0 0 0.5-0.5v-1a0.5 0.5 0 0 0-0.5-0.5 0.5 0.5 0 0 0 0.5-0.5zm-1.5 1h1v1h-1v-1zm7 0v1 3.2a2 1.5 0 0 0-1-0.2 2 1.5 0 0 0-2 1.5 2 1.5 0 0 0 2 1.5 2 1.5 0 0 0 2-1.5v-4.5h4v3.2a2 1.5 0 0 0-1-0.2 2 1.5 0 0 0-2 1.5 2 1.5 0 0 0 2 1.5 2 1.5 0 0 0 2-1.5v-4.5-1h-1-4-1zm0.5 0.5h0.5a0.5 0.5 0 0 0-0.5 0.5v-0.5zm4.5 0h0.5v0.5a0.5 0.5 0 0 0-0.5-0.5zm-12.5 0.5a0.5 0.5 0 0 0 0.5 0.5 0.5 0.5 0 0 0-0.5 0.5v-1zm9.5 1v1h1c0.55 0 1-0.45 1-1h-2zm-1.5 2.2v1.3c0 0.22-0.117 0.46-0.387 0.66-0.269 0.2-0.688 0.34-1.113 0.34s-0.844-0.14-1.113-0.34c-0.27-0.2-0.387-0.44-0.387-0.66s0.117-0.46 0.387-0.66c0.269-0.2 0.688-0.34 1.113-0.34 0.284 0 0.566 0.06 0.801 0.16a0.5 0.5 0 0 0 0.699-0.46zm5 0v1.3c0 0.22-0.12 0.46-0.39 0.66s-0.68 0.34-1.11 0.34-0.84-0.14-1.11-0.34-0.39-0.44-0.39-0.66 0.12-0.46 0.39-0.66 0.68-0.34 1.11-0.34c0.28 0 0.57 0.06 0.8 0.16a0.5 0.5 0 0 0 0.7-0.46z" opacity=".3"/>
 <path id="path24" d="m2 2v1h1v-1h-1zm9 0v1h1v-1h-1zm-9 2v1h1v-1h-1zm2.5 0c-0.277 0-0.5 0.223-0.5 0.5v1c0-0.277 0.223-0.5 0.5-0.5h5c0.277 0 0.5 0.223 0.5 0.5v-1c0-0.277-0.223-0.5-0.5-0.5h-5zm6.5 0v1h1v-1h-1zm-9 2v1h1v-1h-1zm9 0v1h1v-1h-1zm1 1v1h1v-1h-1zm-1 0h-1v1h1v-1zm-9 1v1h1v-1h-1zm2.5 1c-0.277 0-0.5 0.223-0.5 0.5v1c0-0.28 0.223-0.5 0.5-0.5h3.5v-1h-3.5zm5.5 0v1h1 2 1v-1h-4zm-9 1v1c0 0.55 0.446 1 1 1v-1c-0.554 0-1-0.45-1-1zm1 1h1v-1h-1v1zm1 0v1h1v-1h-1zm8 0v1h1c0.55 0 1-0.45 1-1h-1-1zm-1 2.5a2 1.5 0 0 1-2 1.5 2 1.5 0 0 1-1.883-1 2 1.5 0 0 0-0.117 0.5 2 1.5 0 0 0 2 1.5 2 1.5 0 0 0 2-1.5v-1zm5 0a2 1.5 0 0 1-2 1.5 2 1.5 0 0 1-1.88-1 2 1.5 0 0 0-0.12 0.5 2 1.5 0 0 0 2 1.5 2 1.5 0 0 0 2-1.5v-1z" fill="#fff" opacity=".2"/>
 <path id="path31" d="m2 1c-0.554 0-1 0.446-1 1v1c0-0.554 0.446-1 1-1h1 1v-1h-2zm8 0v1h1 1c0.55 0 1 0.446 1 1v-1c0-0.554-0.45-1-1-1h-2zm-6 1.5v1c0 0.277 0.223 0.5 0.5 0.5h5c0.277 0 0.5-0.223 0.5-0.5v-1c0 0.277-0.223 0.5-0.5 0.5h-5c-0.277 0-0.5-0.223-0.5-0.5zm-2 0.5v1h1v-1h-1zm9 0v1h1v-1h-1zm-9 2v1h1v-1h-1zm9 0v1h1v-1h-1zm-9 2v1h1v-1h-1zm2 0.5v1c0 0.277 0.223 0.5 0.5 0.5h3.5v-1h-3.5c-0.277 0-0.5-0.223-0.5-0.5zm5 0.5v1h1 4 1v-1h-1-1-1-1-1-1zm-7 1v1h1v-1h-1zm9 1v1h1c0.55 0 1-0.45 1-1h-2zm-3 2a2 1.5 0 0 0-2 1.5 2 1.5 0 0 0 0.117 0.5 2 1.5 0 0 1 1.883-1 2 1.5 0 0 1 1 0.2v-1a2 1.5 0 0 0-1-0.2zm5 0a2 1.5 0 0 0-2 1.5 2 1.5 0 0 0 0.12 0.5 2 1.5 0 0 1 1.88-1 2 1.5 0 0 1 1 0.2v-1a2 1.5 0 0 0-1-0.2z" opacity=".3"/>
</svg>
