<?xml version="1.0" encoding="UTF-8"?>
<svg id="svg36" width="16" height="16" version="1.1" xmlns="http://www.w3.org/2000/svg" xmlns:cc="http://creativecommons.org/ns#" xmlns:dc="http://purl.org/dc/elements/1.1/" xmlns:rdf="http://www.w3.org/1999/02/22-rdf-syntax-ns#">
 <metadata id="metadata40">
  <rdf:RDF>
   <cc:Work rdf:about="">
    <dc:format>image/svg+xml</dc:format>
    <dc:type rdf:resource="http://purl.org/dc/dcmitype/StillImage"/>
   </cc:Work>
  </rdf:RDF>
 </metadata>
 <defs id="defs7">
  <radialGradient id="gr0" cx="9" cy="10" r="11" gradientTransform="matrix(1 0 0 .72727 0 2.7273)" gradientUnits="userSpaceOnUse">
   <stop id="stop2" stop-opacity=".23529" offset="0"/>
   <stop id="stop4" stop-opacity=".54902" offset="1"/>
  </radialGradient>
 </defs>
 <path id="path9" d="m2.5 0a1 1 0 0 0-0.686 0.2852c-0.9996 0.3271-1.814 1.1128-1.814 2.2148v2 7 2c0 1.37 1.132 2.5 2.5 2.5h11c1.37 0 2.5-1.13 2.5-2.5v-9c0-0.84-0.56-1.496-1.25-1.955a1 1 0 0 0 0.1-0.879c-0.34-0.9657-1.27-1.666-2.35-1.666h-9.986a1 1 0 0 0-0.01 0h-4e-3zm0 1h10c0.65 0 1.2 0.418 1.41 1h-11.41c-0.277 0-0.5 0.223-0.5 0.5s0.223 0.5 0.5 0.5h11a1.5 1.5 0 0 1 1.5 1.5v9c0 0.83-0.67 1.5-1.5 1.5h-11c-0.831 0-1.5-0.67-1.5-1.5v-2-7-2c0-0.831 0.669-1.5 1.5-1.5zm5.5 3c-2.761 0-5 2.239-5 5 0 2.76 2.239 5 5 5 2.76 0 5-2.24 5-5 0-2.761-2.24-5-5-5zm0 1c0.621 0 1.234 0.146 1.789 0.424l-0.894 1.789c-0.278-0.143-0.584-0.213-0.895-0.213s-0.617 0.072-0.895 0.211l-0.892-1.785c0.554-0.279 1.166-0.426 1.787-0.426zm-2.609 1.018 0.373 0.746-0.34-0.17v0.617a1 1 0 0 0-0.414-0.809c0.12-0.139 0.242-0.263 0.381-0.384zm5.219 0c0.13 0.118 0.25 0.238 0.37 0.373l-0.74 0.373 0.37-0.746zm-6.186 1.193 1.789 0.894c-0.143 0.278-0.213 0.584-0.213 0.895 0 0.31 0.072 0.617 0.211 0.895l-1.785 0.895c-0.279-0.56-0.426-1.169-0.426-1.79s0.146-1.234 0.424-1.789zm7.146 0c0.28 0.554 0.43 1.166 0.43 1.787s-0.15 1.232-0.42 1.792l-1.793-0.897c0.143-0.277 0.212-0.584 0.213-0.895 0-0.311-0.072-0.616-0.211-0.894l1.781-0.893zm-3.57 0.787c0.552 0 1 0.448 1 1s-0.448 1-1 1-1-0.448-1-1 0.448-1 1-1zm-0.895 2.792c0.277 0.11 0.584 0.21 0.895 0.21s0.617-0.07 0.895-0.21l0.892 1.78c-0.554 0.28-1.166 0.43-1.787 0.43s-1.234-0.15-1.789-0.42l0.894-1.79zm-1.343 0.45-0.371 0.74c-0.135-0.12-0.255-0.24-0.373-0.37l0.744-0.37zm4.478 0 0.74 0.37c-0.12 0.13-0.24 0.25-0.37 0.37l-0.37-0.74z" fill="#fff" opacity=".05"/>
 <path id="base" d="m2.5 1c-0.831 0-1.5 0.669-1.5 1.5v11c0 0.831 0.669 1.5 1.5 1.5h11c0.831 0 1.5-0.669 1.5-1.5v-9a1.5 1.5 0 0 0-1.5-1.5h-11c-0.277 0-0.5-0.223-0.5-0.5s0.223-0.5 0.5-0.5h11.408c-0.20601-0.58192-0.75396-1-1.4082-1h-10zm5.5 3c2.7614 0 5 2.2386 5 5s-2.2386 5-5 5-5-2.2386-5-5 2.2386-5 5-5zm0 1c-0.62067 0.0013541-1.2325 0.14713-1.7871 0.42578l0.89258 1.7852c0.27776-0.1388 0.58402-0.21102 0.89453-0.21094 0.31066 5.255e-4 0.61694 0.073415 0.89453 0.21289l0.89453-1.7891c-0.55536-0.27827-1.1679-0.42338-1.7891-0.42383zm-3.5762 2.2109c-0.27827 0.55536-0.42338 1.1679-0.42383 1.7891 0.00135 0.62067 0.14713 1.2325 0.42578 1.7871l1.7852-0.89258c-0.1388-0.27776-0.21102-0.58402-0.21094-0.89453 5.255e-4 -0.31066 0.073415-0.61694 0.21289-0.89453l-1.7891-0.89453zm7.1504 0.0019531-1.7852 0.89258c0.1388 0.27776 0.21102 0.58402 0.21094 0.89453-5.255e-4 0.31066-0.073415 0.61694-0.21289 0.89453l1.7891 0.89453c0.27827-0.55535 0.42338-1.1679 0.42383-1.7891-0.001354-0.62067-0.14712-1.2325-0.42578-1.7871zm-3.5742 0.78711c-0.55228 0-1 0.44772-1 1s0.44772 1 1 1 1-0.44772 1-1-0.44772-1-1-1zm-0.89453 2.7871-0.89453 1.7891c0.55536 0.27827 1.1679 0.42338 1.7891 0.42383 0.62067-0.001354 1.2325-0.14712 1.7871-0.42578l-0.89258-1.7852c-0.27776 0.1388-0.58402 0.21102-0.89453 0.21094-0.31066-5.26e-4 -0.61694-0.073416-0.89453-0.21289z" fill="url(#gr0)"/>
 <path id="path17" d="m2.5 1c-0.831 0-1.5 0.669-1.5 1.5v2 7 2c0 0.83 0.669 1.5 1.5 1.5h11c0.83 0 1.5-0.67 1.5-1.5v-9a1.5 1.5 0 0 0-1.5-1.5h-11c-0.277 0-0.5-0.223-0.5-0.5s0.223-0.5 0.5-0.5h11.41c-0.21-0.582-0.76-1-1.41-1h-10zm0 0.5c-0.545 0-1 0.455-1 1s0.455 1 1 1h5.5 5.5c0.52 0 1 0.476 1 1v9c0 0.56-0.44 1-1 1h-5.5-5.5c-0.563 0-1-0.44-1-1v-2-7-2c0-0.563 0.437-1 1-1zm5.5 13c3.03 0 5.5-2.47 5.5-5.5 0-3.032-2.47-5.5-5.5-5.5-3.032 0-5.5 2.468-5.5 5.5 0 3.03 2.468 5.5 5.5 5.5zm0-10.5c2.76 0 5 2.239 5 5 0 2.76-2.24 5-5 5-2.761 0-5-2.24-5-5 0-2.761 2.239-5 5-5zm0 1c-0.621 0-1.233 0.147-1.787 0.426l0.892 1.785c0.278-0.139 0.584-0.211 0.895-0.211s0.617 0.07 0.895 0.213l0.894-1.789c-0.555-0.278-1.168-0.424-1.789-0.424zm0 0.5h2e-3c0.37 0 0.715 0.137 1.064 0.252l-0.447 0.894c-0.206-0.056-0.404-0.146-0.619-0.146s-0.412 0.096-0.619 0.146l-0.445-0.892c0.349-0.115 0.694-0.254 1.064-0.254zm-3.576 1.711c-0.278 0.555-0.424 1.168-0.424 1.789s0.147 1.23 0.426 1.79l1.785-0.895c-0.139-0.278-0.211-0.585-0.211-0.895 0-0.311 0.07-0.617 0.213-0.895l-1.789-0.894zm7.146 0-1.781 0.893c0.139 0.278 0.211 0.583 0.211 0.894-1e-3 0.311-0.07 0.618-0.213 0.895l1.793 0.897c0.27-0.56 0.42-1.171 0.42-1.792s-0.15-1.233-0.43-1.787zm-6.818 0.723 0.894 0.445c-0.056 0.206-0.146 0.404-0.146 0.619s0.096 0.412 0.146 0.619l-0.892 0.443c-0.115-0.345-0.254-0.692-0.254-1.062s0.137-0.715 0.252-1.064zm6.498 0c0.11 0.349 0.25 0.696 0.25 1.066s-0.14 0.715-0.25 1.07l-0.9-0.453c0.05-0.206 0.15-0.404 0.15-0.619s-0.05-0.412-0.15-0.619l0.9-0.445zm-3.25 0.064c-0.552 0-1 0.448-1 1s0.448 1 1 1 1-0.448 1-1-0.448-1-1-1zm0 0.5c0.282 0 0.5 0.218 0.5 0.5s-0.218 0.5-0.5 0.5-0.5-0.218-0.5-0.5 0.218-0.5 0.5-0.5zm-0.895 2.292-0.894 1.79c0.555 0.27 1.168 0.42 1.789 0.42s1.233-0.15 1.787-0.43l-0.892-1.78c-0.278 0.14-0.584 0.21-0.895 0.21s-0.618-0.1-0.895-0.21zm0.276 0.56c0.206 0.05 0.404 0.15 0.619 0.15s0.412-0.05 0.619-0.15l0.445 0.9c-0.349 0.11-0.694 0.25-1.064 0.25s-0.716-0.14-1.066-0.25l0.447-0.9z" opacity=".3"/>
 <path id="path24" d="m2.5 2c-0.277 0-0.5 0.223-0.5 0.5s0.223 0.5 0.5 0.5h11 0.41c-0.21-0.582-0.76-1-1.41-1h-10zm5.5 2c-2.761 0-5 2.239-5 5 0 0.169 9e-3 0.336 0.025 0.5 0.251-2.527 2.383-4.5 4.975-4.5 2.59 0 4.72 1.973 4.97 4.5 0.02-0.164 0.03-0.331 0.03-0.5 0-2.761-2.24-5-5-5zm1.377 2.246-0.482 0.967c-0.278-0.143-0.584-0.213-0.895-0.213s-0.617 0.072-0.895 0.211l-0.48-0.963c-0.14 0.052-0.278 0.11-0.412 0.178l0.892 1.785c0.271-0.136 0.569-0.205 0.872-0.209 8e-3 0 0.015-4e-3 0.023-4e-3s0.015 4e-3 0.023 4e-3c0.303 3e-3 0.601 0.072 0.872 0.211l0.894-1.789c-0.134-0.067-0.272-0.126-0.412-0.178zm0.623 2.752-0.211 0.106c0.063 0.125 0.108 0.259 0.143 0.394 0.042-0.163 0.067-0.33 0.068-0.5zm-4 2e-3c0 0.17 0.026 0.336 0.068 0.5 0.035-0.135 0.08-0.269 0.145-0.395l-0.213-0.105zm1.152 0.498c-0.088 0.149-0.152 0.314-0.152 0.5 0 0.552 0.448 1.002 1 1.002s1-0.45 1-1.002c0-0.186-0.064-0.351-0.152-0.5-0.175 0.294-0.482 0.5-0.848 0.5s-0.673-0.206-0.848-0.5zm4.818 0c-0.06 0.447-0.19 0.882-0.39 1.292l-1.58-0.792c-1e-3 0.312-0.07 0.612-0.213 0.892l1.793 0.9c0.27-0.56 0.42-1.17 0.42-1.792 0-0.168-0.01-0.334-0.03-0.5zm-7.937 2e-3c-0.021 0.166-0.033 0.332-0.033 0.5 0 0.62 0.147 1.23 0.426 1.79l1.785-0.89c-0.139-0.28-0.211-0.59-0.211-0.9l-1.574 0.79c-0.204-0.41-0.336-0.844-0.393-1.29zm5.342 3.25c-0.439 0.16-0.904 0.25-1.375 0.25s-0.937-0.09-1.377-0.25l-0.412 0.83c0.555 0.27 1.168 0.42 1.789 0.42s1.233-0.15 1.787-0.43l-0.412-0.82zm-8.375 0.75v1c0 0.83 0.669 1.5 1.5 1.5h11c0.83 0 1.5-0.67 1.5-1.5v-1c0 0.83-0.67 1.5-1.5 1.5h-5.5-5.5c-0.831 0-1.5-0.67-1.5-1.5z" fill="#fff" opacity=".2"/>
 <path id="path31" d="m2.5 1c-0.831 0-1.5 0.669-1.5 1.5v1c0-0.831 0.669-1.5 1.5-1.5h10 1.41c-0.21-0.582-0.76-1-1.41-1h-10zm0 2c-0.277 0-0.5 0.223-0.5 0.5s0.223 0.5 0.5 0.5h5.5 5.5a1.5 1.5 0 0 1 1.5 1.5v-1a1.5 1.5 0 0 0-1.5-1.5h-11zm5.5 2c-0.621 0-1.233 0.147-1.787 0.426l0.412 0.822c0.439-0.162 0.904-0.248 1.375-0.248s0.937 0.084 1.377 0.246l0.412-0.822c-0.555-0.278-1.168-0.424-1.789-0.424zm-3.576 2.211c-0.278 0.555-0.424 1.168-0.424 1.789 0 0.168 0.012 0.335 0.033 0.5 0.057-0.447 0.188-0.884 0.391-1.289l1.576 0.789c0-0.311 0.07-0.617 0.213-0.895l-1.789-0.894zm7.146 0-1.781 0.893c0.139 0.278 0.211 0.583 0.211 0.894l1.57-0.787c0.2 0.404 0.34 0.84 0.4 1.287 0.02-0.166 0.03-0.332 0.03-0.5 0-0.621-0.15-1.233-0.43-1.787zm-3.57 0.789c-8e-3 0-0.016 2e-3 -0.023 2e-3 -0.541 0.013-0.977 0.452-0.977 0.996 0 0.186 0.064 0.351 0.152 0.5 0.175-0.293 0.482-0.5 0.848-0.5s0.673 0.207 0.848 0.5c0.088-0.149 0.152-0.314 0.152-0.5 0-0.544-0.436-0.983-0.977-0.996-7e-3 0-0.015-2e-3 -0.023-2e-3zm1.932 1.498c-0.035 0.135-0.08 0.269-0.145 0.395l0.213 0.105c0-0.17-0.026-0.336-0.068-0.5zm-6.907 2e-3c-0.016 0.164-0.025 0.331-0.025 0.5 0 2.76 2.239 5 5 5 2.76 0 5-2.24 5-5 0-0.169-0.01-0.336-0.03-0.5-0.25 2.53-2.38 4.5-4.97 4.5-2.592 0-4.724-1.97-4.975-4.5zm3.043 0c-0.042 0.163-0.068 0.33-0.068 0.5l0.211-0.105c-0.063-0.126-0.108-0.26-0.143-0.395zm1.037 1.29-0.894 1.79c0.134 0.07 0.272 0.12 0.412 0.17l0.482-0.96c0.277 0.11 0.584 0.21 0.895 0.21s0.617-0.07 0.895-0.21l0.48 0.96c0.14-0.05 0.278-0.11 0.412-0.18l-0.892-1.78c-0.278 0.14-0.584 0.21-0.895 0.21s-0.618-0.1-0.895-0.21z" opacity=".3"/>
</svg>
