<?xml version="1.0" encoding="UTF-8"?>
<svg id="svg2408" width="96" height="96" version="1.0" xmlns="http://www.w3.org/2000/svg" xmlns:cc="http://creativecommons.org/ns#" xmlns:dc="http://purl.org/dc/elements/1.1/" xmlns:rdf="http://www.w3.org/1999/02/22-rdf-syntax-ns#" xmlns:xlink="http://www.w3.org/1999/xlink">
 <defs id="defs2410">
  <linearGradient id="ButtonShadow" x1="45.448" x2="45.448" y1="92.54" y2="7.0165" gradientTransform="scale(1.0059 .99417)" gradientUnits="userSpaceOnUse">
   <stop id="stop3750" offset="0"/>
   <stop id="stop3752" stop-opacity=".58824" offset="1"/>
  </linearGradient>
  <filter id="filter3174">
   <feGaussianBlur id="feGaussianBlur3176" stdDeviation="1.71"/>
  </filter>
  <filter id="filter3794" x="-.192" y="-.192" width="1.384" height="1.384">
   <feGaussianBlur id="feGaussianBlur3796" stdDeviation="5.28"/>
  </filter>
  <linearGradient id="linearGradient3613" x1="48" x2="48" y1="20.221" y2="138.66" gradientUnits="userSpaceOnUse">
   <stop id="stop3739" stop-color="#fff" offset="0"/>
   <stop id="stop3741" stop-color="#fff" stop-opacity="0" offset="1"/>
  </linearGradient>
  <clipPath id="clipPath3613">
   <rect id="rect3615" x="6" y="6" width="84" height="84" rx="6" ry="6" fill="#fff"/>
  </clipPath>
  <linearGradient id="linearGradient3617" x1="48" x2="48" y1="90" y2="5.9877" gradientUnits="userSpaceOnUse">
   <stop id="stop3189" stop-color="#bf8445" offset="0"/>
   <stop id="stop3191" stop-color="#e8bd81" offset="1"/>
  </linearGradient>
  <linearGradient id="linearGradient3795" x1="4.1768" x2="18" y1="11" y2="11" gradientTransform="matrix(4.2857 0 0 4.2857 -95.143 .85714)" gradientUnits="userSpaceOnUse">
   <stop id="stop3439" stop-color="#275a39" offset="0"/>
   <stop id="stop5117" stop-color="#448459" offset="1"/>
  </linearGradient>
  <linearGradient id="linearGradient3843" x1="16" x2="80" y1="48" y2="48" gradientTransform="matrix(0,1,-1,0,96,0)" gradientUnits="userSpaceOnUse">
   <stop id="stop3467" stop-color="#a17135" offset="0"/>
   <stop id="stop3469" stop-color="#d8b279" offset="1"/>
  </linearGradient>
  <linearGradient id="linearGradient5149-7">
   <stop id="stop5151-5" stop-color="#d8e8c2" offset="0"/>
   <stop id="stop5153-1" stop-color="#d8e8c2" stop-opacity="0" offset="1"/>
  </linearGradient>
  <linearGradient id="linearGradient5169-4" x1="77" x2="81.5" y1="92.867" y2="45.617" gradientTransform="translate(-5.25 -43.25)" gradientUnits="userSpaceOnUse" xlink:href="#linearGradient5149-7"/>
  <linearGradient id="linearGradient3950" x1="27.5" x2="99.467" y1="62.086" y2="62.086" gradientTransform="translate(-1.75 -32.75)" gradientUnits="userSpaceOnUse" xlink:href="#linearGradient5149-7"/>
  <filter id="filter4005">
   <feGaussianBlur id="feGaussianBlur4007" stdDeviation="1.2531246"/>
  </filter>
  <filter id="filter4009">
   <feGaussianBlur id="feGaussianBlur4011" stdDeviation="1.2531246"/>
  </filter>
  <linearGradient id="ButtonShadow-0" x1="45.448" x2="45.448" y1="92.54" y2="7.0165" gradientTransform="matrix(1.0059 0 0 .99417 100 0)" gradientUnits="userSpaceOnUse">
   <stop id="stop3750-8" offset="0"/>
   <stop id="stop3752-5" stop-opacity=".58824" offset="1"/>
  </linearGradient>
  <linearGradient id="linearGradient3780" x1="32.251" x2="32.251" y1="6.1317" y2="90.239" gradientTransform="matrix(1.0238 0 0 1.0119 -1.1429 -98.071)" gradientUnits="userSpaceOnUse" xlink:href="#ButtonShadow-0"/>
  <linearGradient id="linearGradient3721" x1="32.251" x2="32.251" y1="6.1317" y2="90.239" gradientTransform="translate(0,-97)" gradientUnits="userSpaceOnUse" xlink:href="#ButtonShadow-0"/>
  <linearGradient id="linearGradient4390" x1="48" x2="48" y1="88" y2="-40" gradientTransform="matrix(1,0,0,-1,0,92)" gradientUnits="userSpaceOnUse">
   <stop id="stop4386" stop-color="#fff" offset="0"/>
   <stop id="stop4388" stop-color="#fff" stop-opacity="0" offset="1"/>
  </linearGradient>
 </defs>
 <metadata id="metadata2413">
  <rdf:RDF>
   <cc:Work rdf:about="">
    <dc:format>image/svg+xml</dc:format>
    <dc:type rdf:resource="http://purl.org/dc/dcmitype/StillImage"/>
   </cc:Work>
  </rdf:RDF>
 </metadata>
 <g id="layer2" display="none">
  <rect id="rect3745" x="5" y="7" width="86" height="85" rx="6" ry="6" fill="url(#ButtonShadow)" filter="url(#filter3174)" opacity=".9"/>
 </g>
 <g id="layer4">
  <path id="path3786" transform="scale(1,-1)" d="m12-95.031c-5.5111 0-10.031 4.5202-10.031 10.031v71c0 5.5111 4.5202 10.031 10.031 10.031h72c5.5111 0 10.031-4.5202 10.031-10.031v-71c0-5.5111-4.5202-10.031-10.031-10.031h-72z" fill="url(#linearGradient3780)" opacity=".08"/>
  <path id="path3778" transform="scale(1,-1)" d="m12-94.031c-4.9716 0-9.0312 4.0596-9.0312 9.0312v71c0 4.9716 4.0596 9.0312 9.0312 9.0312h72c4.9716 0 9.0312-4.0596 9.0312-9.0312v-71c0-4.9716-4.0596-9.0312-9.0312-9.0312h-72z" fill="url(#linearGradient3780)" opacity=".1"/>
  <path id="path3770" transform="scale(1,-1)" d="m12-93c-4.4091 0-8 3.5909-8 8v71c0 4.4091 3.5909 8 8 8h72c4.4091 0 8-3.5909 8-8v-71c0-4.4091-3.5909-8-8-8h-72z" fill="url(#linearGradient3780)" opacity=".2"/>
  <rect id="rect3723" transform="scale(1,-1)" x="5" y="-92" width="86" height="85" rx="7" ry="7" fill="url(#linearGradient3780)" opacity=".3"/>
  <rect id="rect3716" transform="scale(1,-1)" x="6" y="-91" width="84" height="84" rx="6" ry="6" fill="url(#linearGradient3721)" opacity=".45"/>
 </g>
 <g id="layer1">
  <rect id="rect2419" x="6" y="6" width="84" height="84" rx="6" ry="6" fill="url(#linearGradient3617)"/>
  <path id="path3832" d="m80 22.938c0-3.7977-3.1398-6.9375-6.9375-6.9375h-50.125c-3.7977 0-6.9375 3.1398-6.9375 6.9375v50.125c0 3.7977 3.1398 6.9375 6.9375 6.9375h50.125c3.7977 0 6.9375-3.1398 6.9375-6.9375zm-2 0.0625v50c0 2.77-2.23 5-5 5h-50c-2.77 0-5-2.23-5-5v-50c0-2.77 2.23-5 5-5h50c2.77 0 5 2.23 5 5z" fill="url(#linearGradient3843)" fill-rule="evenodd"/>
  <path id="path3313-8" d="m84 6c-3.6854 0.15435-7.3767 0.26872-11.062 0.4375-3.1605 0.18393-6.3102 0.3448-9.4688 0.5625 1.0703-4e-3 2.1172 5e-3 3.1875 0 1.9543-0.0625 3.9508-0.12025 5.9062-0.125 1.8502-0.0113 3.6816-0.0032 5.5312 0.03125-1.5075 0.0358-2.9543 0.0449-5.3438 0.0625-2.02 0.0149-4.0737 0.02195-6.0938 0.03125-0.32433 0.0104-0.61323 0.01935-0.9375 0.03125 2.3317-0.01 4.6371-0.01405 6.9688-0.03125 1.8047-0.0133 3.6327-0.03985 5.4375-0.03125-2.2993 0.03773-4.6061 0.08602-6.9062 0.09375h10.594c0.3094 0 0.59683-2e-3 0.90625 0 0.18784 8e-3 0.40593 0.02235 0.59375 0.03125-0.50571 4e-3 -1.0256 0.03125-1.5312 0.03125-1.9593 1e-5 -3.9157 0-5.875 0h-2.3125c4.2164 0.0306 8.4425 0.11297 12.656 0.28125 0.47511 0.021 0.93027 0.0369 1.4062 0.0625-0.03621-0.0302-0.05688-0.06435-0.09375-0.09375-0.10642-0.03-0.20886-0.0566-0.3125-0.0625-0.61955-0.036-1.2552-0.06175-1.875-0.09375-0.73927-0.0371-1.1889-0.06526-1.75-0.09375 1.2533 0.0772 2.5269 0.12263 3.7812 0.15625-0.05835-0.0438-0.12764-0.11441-0.1875-0.15625-0.09047-4e-3 -0.19046 0.0023-0.28125 0-0.85253-0.0216-1.6784-0.03665-2.5312-0.03125 0.86039 5e-3 1.7024-0.01005 2.5625-0.03125 0.04498-7.1e-4 0.07981 2e-3 0.125 0-0.14634-0.0981-0.28301-0.195-0.4375-0.28125-2.2468 0.0842-4.5026 0.14146-6.75 0.1875-0.53826-0.0152-1.0554-0.052-1.5938-0.0625 1.2433-0.0325 2.5219-0.06089 4.4062-0.1875 1.0758-0.0723 2.1453-0.18135 3.2188-0.28125-0.5406-0.21842-1.1166-0.3719-1.7188-0.4375-0.02086-0.0023-0.04157 0.0021-0.0625 0-0.02218 7.1e-4 -0.04031-7.2e-4 -0.0625 0-0.02079 8.74e-4 -0.04171-8.7e-4 -0.0625 0-0.01035-5e-5 -0.02089 0-0.03125 0zm-18.281 1.0312c-0.92063 4e-3 -1.8606-0.0032-2.7812 0-3.784 0.26603-7.5745 0.60721-11.344 1.0625-0.38716 0.0452-4.6826 0.55114-6.6875 0.78125 0.11324 7.1e-4 0.23051-7.1e-4 0.34375 0 2.1767-0.25093 5.9726-0.70662 6.3438-0.75 4.6964-0.56336 9.4022-0.91843 14.125-1.0938zm-20.469 1.8438c-0.52114 0.0601-1.3564 0.16853-1.5312 0.1875 4.9902-0.0464 9.9781-0.09405 14.969-0.09375 7.2448-0.016 14.508-0.03401 21.75 0.1875 2.9341 0.0372 5.849 0.11394 8.7812 0.21875-0.15541-0.28694-0.33608-0.58505-0.53125-0.84375-2.6306 0.0816-5.2747 0.15475-7.9062 0.1875-7.357 0.21416-14.703 0.23898-22.062 0.21875-4.4929-2.8e-4 -8.9764-0.0231-13.469-0.0625zm-0.34375 0c-2.9446-0.0267-5.8992-0.072011-8.8438-0.125-5.7893-0.0507-11.586-0.12023-17.375-0.0625-3.2152 0.058-6.4104 0.20076-9.625 0.28125-0.68707 0.0172-1.3754 0.01815-2.0625 0.03125-0.0088 0.014-0.02264 0.0485-0.03125 0.0625 0.67241-6e-3 1.3272-0.03295 2-0.03125 3.1107 8e-3 6.2331 0.08685 9.3438 0.125 5.8103 0.0415 11.627 0.01225 17.438-0.03125 2.5026-0.0412 4.9974-0.0384 7.5-0.0625 0.06037-6e-3 0.15839-0.02535 0.21875-0.03125 0.08286-8e-3 1.0043-0.10653 1.4375-0.15625zm18.031-1.8438c0.1736-0.0122 0.35764-0.01935 0.53125-0.03125-3.5125 0.0128-7.05 0.02265-10.562 0.03125 0.46796 2e-3 0.93829 0.02955 1.4062 0.03125-8.7101 1e-5 -17.415 0-26.125 0 0.52788 0.0183 1.0345 0.0482 1.5625 0.0625h0.3125c7.6036-1e-3 15.24-0.01705 22.844-0.03125 3.3505-8e-3 6.6808-0.0508 10.031-0.0625zm-32.875 0.09375c4.0952 0.10526 8.2155 0.12136 12.312 0.09375 3.9418-0.0545 7.8705-0.08347 11.812-0.09375zm-1.875-0.0625c7.7771-7.1e-4 15.535-0.01805 23.312-0.03125-2.9735-0.0197-5.9331-0.03156-8.9062-0.09375-6.349-0.10931-12.712-0.21889-19.062-0.1875-2.3228-0.03013-4.6529-0.05381-6.9688-0.09375 2.2905 0.03987 4.5813 0.11009 6.875 0.1875 1.5749 0.097 3.1741 0.16411 4.75 0.21875zm-11.625-0.40625c-1.9195-0.0331-3.8246-0.08477-5.75-0.09375-0.34162-1e-3 -0.68951-4.9e-4 -1.0312 0-0.0299 0.0138-0.06407 0.01705-0.09375 0.03125 2.2943 0.0131 4.5845 0.02263 6.875 0.0625zm-7.5625 0.3125c-0.04492 0.0287-0.08087 0.06405-0.125 0.09375 3.3286-4e-3 6.6401 5.7e-4 9.9688 0-3.2884 9e-3 -6.5568-0.04265-9.8438-0.09375zm-0.1875 0.15625c-0.03844 0.0266-0.08718 0.0351-0.125 0.0625 1.6918-0.02475 3.3725-0.04526 5.0625-0.0625-1.6462 5.5e-4 -3.2917 2e-3 -4.9375 0zm21.125 2.7188c-1.4011 0.03129-2.8161 0.04932-4.2188 0.0625-3.2569 0.0744-6.5231 0.20688-9.7812 0.3125 3.2392-0.10817 6.4768-0.20716 9.7188-0.28125 1.4281-0.01343 2.8478-0.0536 4.2812-0.09375zm-14 0.375c-1.7736 0.0575-3.5405 0.08258-5.3125 0.15625-3.3801 0.14055-3.8352 0.18727-4.3438 0.21875 3.2246-0.15634 6.4318-0.2673 9.6562-0.375zm73.688 0.0625c-4.9995 0.50818-10.043 0.66148-15.062 0.8125-1.8915 0.0494-3.7957 0.09956-5.6875 0.125 1.8864-0.0291 3.7705-0.0193 5.6562-0.0625 5.0557-0.15206 10.136-0.35705 15.188-0.625-0.02598-0.083-0.0646-0.1685-0.09375-0.25zm-20.906 0.9375c-5.7348 0.0752-11.484 0.06205-17.219 0.03125-7.1481-0.0578-14.289 0.0085-21.438 0.03125-3.0019 0.02136-6.0008 0.05486-9 0.0625 2.9645 0.0072 5.9405 0.0075 8.9062 0.03125 7.1366 0.0293 14.27 0.09145 21.406 0.03125 5.7772-0.0432 11.566-0.09934 17.344-0.1875zm-47.656 0.125c-1.9997-0.0048-4.0003-0.03506-6-0.03125 1.9995 0.0032 4.0005 0.03634 6 0.03125zm-6-0.03125c-2.9784-0.0048-5.9565-0.0029-8.9375-0.03125-0.0064 0.0362 0.0064 0.05736 0 0.09375 2.984-0.02736 5.9548-0.05682 8.9375-0.0625zm-9 0.3125c-0.0021 0.0147 0.0021 0.0478 0 0.0625 8.3189 0.32574 16.676 0.41197 25 0.46875 9.7809 0.0153 19.533 0.24129 29.312 0.375 7.9668 0.0912 15.939 0.11544 23.906 0.1875 1.1107 0.0127 2.2326 0.0433 3.3438 0.0625 0.7912-0.0251 1.5842-0.08941 2.375-0.125v-0.1875c-1.8666 0.0557-3.726 0.09404-5.5938 0.09375-7.9967 0.0491-16.004 0.01385-24-0.09375-9.7797-0.13368-19.563-0.35969-29.344-0.375-8.3314-0.0568-16.674-0.14232-25-0.46875zm81.562 1.1562c-3.24 0.1029-6.4764 0.12242-9.7188 0.125 4.0273-3e-3 8.0445 0.0356 12.062 0.28125 0.0075-5.4e-4 0.02379 5.4e-4 0.03125 0v-0.34375c-0.79032-0.0234-1.5844-0.0489-2.375-0.0625zm-50.281-0.0625c-3.2296 7e-3 -6.4592 0.0353-9.6875 0.0625-7.1935 0.0637-14.4 0.06295-21.594 0.03125-0.02264-2.5e-4 -0.03993 2.5e-4 -0.0625 0v0.03125c0.05339-1.3e-4 0.10287 4.3e-4 0.15625 0 1.3468-0.0339 2.6924 0.0348 4.0312 0.15625 5.7554-0.0167 11.495-0.02005 17.25 0.03125 6.4629 0.0551 12.944 0.07925 19.406-0.03125 4.2302-0.06864 8.4626-0.08884 12.688-0.09375-4.168-0.01045-8.3275-0.05632-12.5-0.125-3.2282-0.05517-6.4579-0.06949-9.6875-0.0625zm-27.156 0.28125c-1.3955 4e-3 -2.792-6e-3 -4.1875 0v0.4375c2.7877 0.0208 5.5876 0.04186 8.375 0.09375 0.82967 9e-3 1.6391 0.02255 2.4688 0.03125-1.4512-0.0894-1.8756-0.10248-3.8125-0.28125-0.94665-0.0874-1.8965-0.19533-2.8438-0.28125zm6.6562 0.5625c0.14427 9e-3 0.23483 0.02055 0.40625 0.03125 0.27912-4e-3 0.56464 4e-3 0.84375 0-0.40734-4e-3 -0.84266-0.02705-1.25-0.03125zm1.25 0.03125c6.0492 0.0622 12.076 0.10387 18.125 0.09375 9.1046 1e-3 18.239 0.0072 27.344-0.03125 2.1221-0.0118 4.2217-0.01585 6.3438-0.03125-3.5245 6e-3 -7.0381 9.5e-4 -10.562-0.03125-6.4784-0.0449-12.959-0.03555-19.438-0.09375-5.8154-0.0398-11.622-0.03585-17.438 0.03125-1.4563 0.0223-2.9188 0.0404-4.375 0.0625zm51.812 0.03125c-2.1224 0.0098-4.2499 0.05075-6.375 0.0625-9.1045 0.0391-18.208 0.03265-27.312 0.03125-4.8418-0.0105-9.6896 0.0217-14.531 0.0625 1.3192 0.0446 2.6491 0.09722 3.9688 0.125-1.1679-8e-3 -2.3634-0.01805-3.5312-0.03125-1.5615-0.0231-3.0948-0.0414-4.6562-0.0625-1.1086 0.011-2.2352 0.01955-3.3438 0.03125-1.7031 0.0305-3.4218 0.044-5.125 0.0625 1.5838 0.0742 3.1659 0.15063 4.75 0.21875 2.098 0.0281 4.2462 0.05996 6.3438 0.125 1.765 0.0449 3.5163 0.11159 5.2812 0.15625 0.07418 2e-3 0.14457-2e-3 0.21875 0 2.7046 0.0169 5.3893 0.04115 8.0938 0.03125 6.9276-0.0719 13.885-0.11788 20.812-0.125 6.2017-4e-4 12.393 0.09465 18.594 0.15625 4.0056-1e-3 7.9953 0.19973 12 0.03125 0.75775-0.0318 1.5555-0.07865 2.3125-0.125 0.71001-0.039 1.4161-0.10271 2.125-0.15625-0.73641 0.1068-1.4596 0.18454-2.0938 0.25-1.5523 0.16024-3.1309 0.20521-4.6875 0.3125-1.7409 0.0818-3.446 0.18153-5.1875 0.25-4.0492 0.15924-7.3163 0.25091-11.375 0.25-5.6132-1e-3 -11.233-0.20293-16.844-0.34375-7.9205-0.15959-15.831-0.33097-23.75-0.53125 7.9056 0.2026 15.812 0.43446 23.719 0.59375 5.611 0.14082 11.23 0.31119 16.844 0.3125 4.0592 7.1e-4 7.2941-0.09078 11.344-0.25 1.7415-0.0685 3.4778-0.13693 5.2188-0.21875 1.5538-0.10376 3.133-0.22046 4.6875-0.3125 1.4544-0.0861 1.9729-0.09871 2.5938-0.125v-0.5625c-1.8549 4e-3 -3.7076 0.01-5.5625 0-3.631 0.11447-7.2755-0.0047-10.906 0.125-6.2969 0.0627-12.609 0.1518-18.906 0.15625-6.8664-3e-3 -13.728-0.01772-20.594-0.125-2.745-0.0338-5.4739-0.03716-8.2188-0.09375 4.5812 0.0308 9.1687 0.0295 13.75 0 6.527-0.0561 13.067-0.04925 19.594-0.09375 7.0411-0.0633 14.053-0.01385 21.094 0.03125 1.3946 9e-3 2.7925-0.0075 4.1875 0 0.41527-0.0131 0.83495-0.01035 1.25-0.03125 0.76263-0.0385 1.5195-0.1024 2.2812-0.15625 0.67726-0.0427 1.3551-0.09914 2.0312-0.15625v-0.125c-0.5717-1e-3 -1.1471-6e-3 -1.7188 0-0.46978 5e-3 -0.9365-0.0075-1.4062 0-2.1333 0.10632-4.2735 0.17056-6.4062 0.1875-0.51318 4e-3 -1.0181-3e-3 -1.5312 0 1.5608-0.0231 3.1269-0.09096 4.6875-0.125-1.7979 0.0372-3.5732 0.07775-4.6562 0.09375-2.3115 0.0342-4.6572 0.07415-6.9688 0.09375-0.69705 0.0041-1.3967-0.0032-2.0938 0zm13.719-0.1875c1.0909-0.0238 2.159-0.0451 3.25-0.0625 0.49-0.0244 0.9792-0.0311 1.4688-0.0625-1.1249 0.0548-2.9208 0.08786-4.7188 0.125zm-69.875 0.6875c-0.98112-0.01311-1.9567 0.0048-2.9375 0 1.6047 0.01424 3.2056 0.0288 4.8125 0.0625-0.62596-0.0246-1.2492-0.0357-1.875-0.0625zm1.875 0.0625c0.4603 0.0181 0.91461 0.0461 1.375 0.0625 1.0026 0.03246 2.0224 0.04269 3.0312 0.0625-1.4632-0.0292-2.9426-0.09422-4.4062-0.125zm-4.8125-0.0625c-1.6069-0.0079-3.205-0.04125-4.8125-0.03125v0.03125c1.6069-0.02395 3.2078-0.01424 4.8125 0zm-1.8125-0.21875c-1.0029-0.047-1.997-0.07966-3-0.125v0.15625c1.0024-8e-3 1.9976-0.02035 3-0.03125zm8.4688-0.09375c1.3498-0.0133 2.6814-0.01985 4.0312-0.03125-1.3117-0.0453-2.6266-0.0867-3.9375-0.15625-0.16328-0.0103-0.17122-0.02255-0.3125-0.03125-3.7465 0.0565-7.5032 0.09845-11.25 0.125 3.8202-4e-3 7.6488 0.04225 11.469 0.09375zm42.156-0.90625c4.1936-0.0046 8.3944 0.03194 12.594 0.03125 1.8082 1e-5 3.6276-0.02935 5.4375-0.03125-1.8021 7.1e-4 -3.636 1e-5 -5.4375 0-4.2042-1e-3 -8.3946 0.01027-12.594 0zm30.375 3.0625c-5.9494 0.5182-11.943 0.74652-17.906 0.9375-3.3289 0.11893-6.6398 0.20277-9.9688 0.3125 0.18851 5e-4 0.37399 0.03045 0.5625 0.03125 3.1276-0.10273 6.2476-0.20076 9.375-0.3125 4.9887-0.15973 9.9889-0.3282 14.969-0.6875 1.3016-0.0939 2.0728-0.1728 2.9688-0.25zm-27.312 1.2812c-3.6062 0.11845-7.2073 0.26021-10.812 0.40625-0.18863 0.0076-0.37387-8e-3 -0.5625 0-0.53576 0.0221-1.0893 0.0393-1.625 0.0625 0.53509 4e-3 1.0899 0.02755 1.625 0.03125-0.15858 4e-3 -0.34142 0.02695-0.5 0.03125 7.8752 0.0558 15.75 0.1109 23.625 0.1875 1.7725 0.0105 3.6835 0.02365 5.5938 0.03125-1.8563-0.0137-3.7109-0.0516-5.5625-0.0625-7.6641-0.0745-15.305-0.13226-22.969-0.1875 1.4342-0.0373 2.8468-0.06695 4.2812-0.09375 3.0976 0.01 6.2143 0.0132 9.3125 0-2.1767-6.3e-4 -4.3871-0.02405-6.5625-0.03125 0.45296-8e-3 0.92204-0.02375 1.375-0.03125 4.7221-0.0718 9.4336-0.13354 14.156-0.15625 0.33921-1e-3 0.69202-7.1e-4 1.0312 0 0.95122-0.036 1.8925-0.05876 2.8438-0.09375-5.0807 0.0681-10.169-0.07045-15.25-0.09375zm12.406 0.1875c-1.1623 0.044-2.3373 0.09529-3.5 0.125-1.0874 0.0278-2.1644 0.05269-3.25 0.0625 3.4613-0.0175 6.9107-0.04023 10.375-0.09375 3.7571-0.0811 7.5241-0.15997 11.281-0.15625v-0.34375c-2.2497 0.0535-4.5001 0.10468-6.75 0.15625-0.51925 0.0303-1.0427 0.07015-1.5625 0.09375-1.2812 0.0461-2.562 0.1002-3.8438 0.125-0.91953 0.0178-1.8303 0.03365-2.75 0.03125zm8.1562-0.25c0.87538-0.0511 1.7524-0.11918 2.625-0.1875-1.3726 0.10549-2.7156 0.1737-4.0938 0.21875 0.4909-0.01188 0.97613-0.01997 1.4688-0.03125zm-32.438 0.59375c-0.52755-4e-3 -1.0349-0.02775-1.5625-0.03125-1.1471 0.0506-2.2906 0.09895-3.4375 0.15625-0.44796 0.03162-0.89551 0.06817-1.3438 0.09375 2.1169-0.09961 4.2218-0.16032 6.3438-0.21875zm-1.5625-0.03125c0.15096-6e-3 0.28654-0.02475 0.4375-0.03125-0.28636-2e-3 -0.55739 2e-3 -0.84375 0-0.14342 6e-3 -0.29408 0.02475-0.4375 0.03125 0.27882 2e-3 0.56493-2e-3 0.84375 0zm-0.84375 0c-2.0498-0.0135-4.1064-0.02075-6.1562-0.03125-0.2941 1e-3 -0.58091-7.1e-4 -0.875 0-1.2587 0.10033-2.5202 0.18665-3.7812 0.28125h6.125c0.69488-0.03727 1.3895-0.07149 2.0938-0.125 0.86006-0.043 1.7336-0.08591 2.5938-0.125zm-7.0312-0.03125c0.29459-0.0235 0.58037-0.0397 0.875-0.0625-3.2053 3e-3 -6.4197-0.0089-9.625 0 0.81424 7e-3 1.6232 0.02675 2.4375 0.03125 2.098 0.0128 4.213 0.03785 6.3125 0.03125zm-8.75-0.0625c-2.7179-0.02305-5.4386-0.04737-8.1562-0.09375 1.6075 0.02966 3.2067 0.0744 4.8125 0.09375-4.2197 0.0157-8.4366 0.0268-12.656 0.0625-7.7905 0.0891-5.0786 0.05575-10.625 0.15625v0.03125c3.0912-0.0724 8.0307-0.09531 10.625-0.125 5.6614-0.0479 11.307-0.07935 16.969-0.09375-1.2711-9e-3 -2.5415-0.01705-3.8125-0.03125 0.95111-4e-3 1.8926 3e-3 2.8438 0zm9.625 0c2.6748-0.0028 5.3575 4.7e-5 8.0312 0 0.19767-3e-6 0.396 3.9e-5 0.59375 0 3.7432-0.1566 7.5056-0.31406 11.25-0.4375-0.6408-1e-3 -1.2968-4e-3 -1.9375 0-5.689-0.0144-11.382-0.0054-17.062 0.34375-0.29468 0.0219-0.58037 0.07095-0.875 0.09375zm8.0312 0c-2.669 5.8e-4 -5.331 0.02895-8 0.03125 2.1855 0.0113 4.377 0.01665 6.5625 0.03125 0.48298-0.0216 0.95448-0.0419 1.4375-0.0625zm39.719-1.0625c-0.68412 0.0756-1.3461 0.15364-2.0312 0.21875 0.6837-0.0617 1.347-0.12004 2.0312-0.1875zm-84 0.3125v0.21875c2.5778 0.045 5.1725 0.12701 7.75 0.21875-2.5809-0.10564-5.174-0.28368-7.75-0.4375zm84 0.96875c-0.70833 0.0271-1.416 0.0461-2.125 0.0625 0.7068-0.0179 1.4181-0.01935 2.125-0.03125zm-2.5 0.0625c-1.0335 0.0216-2.0596 0.0575-3.0938 0.0625 0.40755-3e-3 0.82301 4e-3 1.2188 0 0.61675-7e-3 1.2584-0.0474 1.875-0.0625zm-81.5 0.375v0.03125c1.7088 0.053 3.409 0.09404 5.6875 0.15625 2.9478 0.06425 5.8956 0.12146 8.8438 0.15625 0.02083 2.46e-4 0.04167-2.44e-4 0.0625 0 0.03223-0.01781 0.06109-0.04538 0.09375-0.0625-2.9897-0.02999-5.9795-0.0598-8.9688-0.125-1.9081-0.0521-3.811-0.09525-5.7188-0.15625zm14.531 0.34375c-4.841 0.07486-9.6912 0.1526-14.531 0.21875v0.03125c4.8478-0.06627 9.6847-0.17266 14.531-0.25zm-14.531 0.3125v0.5625c2.8387-0.0289 5.6927-0.04695 8.5312-0.09375 1.7422-0.08226 3.4559-0.14051 5.1875-0.1875 0.11216-0.09808 0.22303-0.1934 0.34375-0.28125-4.5726 0.0355-9.1502 0.03543-13.719 0-0.12077 3e-5 -0.22298 1.7e-4 -0.34375 0zm8.5312 0.46875c-1.1325 0.0535-2.2741 0.10326-3.4062 0.15625-1.6995 0.0805-3.4246 0.13929-5.125 0.1875v0.4375c1.6059-0.0719 3.2078-0.14805 4.8125-0.25 2.8859-0.17481 5.768-0.36885 8.6562-0.5 0.05788-0.05788 0.12683-0.10126 0.1875-0.15625-1.7011 0.05353-3.4139 0.0968-5.125 0.125zm61.531-0.375c0.17628 0.13696 0.3438 0.27851 0.5 0.4375 3.6694 0.03259 7.3335 0.05514 11 0.21875 0.98521 0.0501 1.6956 0.11785 2.4375 0.15625v-0.28125c-0.72483-0.0498-1.4625-0.10835-2.1875-0.15625-3.9162-0.23051-7.8327-0.32056-11.75-0.375zm0.5 0.4375c0.047 0.04784 0.07995 0.10654 0.125 0.15625 4.4439 0.41832 8.8747 0.91486 13.312 1.4062v-0.1875c-0.9412-0.0753-1.8725-0.12945-2.8125-0.21875-3.5475-0.33701-7.0801-0.78472-10.625-1.1562zm-70.562 1.0938v0.4375c0.18118-2e-3 0.35008 2e-3 0.53125 0 3.9666-0.03605 7.9367-0.04828 11.906-0.0625 0.04895-0.11004 0.13102-0.20687 0.1875-0.3125-3.8956-0.01506-7.7912-0.02943-11.688-0.0625-0.30962-4e-3 -0.62786 3e-3 -0.9375 0zm78.594 0.6875c-0.06574-5.7e-4 -0.30715 0.0526-0.40625 0.0625-0.43069 0.0435-0.8494 0.12761-1.2812 0.15625-0.9276 0.0615-1.8838 0.11081-2.8125 0.15625 1.042-6e-3 2.1147-0.0302 3.1562-0.0625 0.09858-0.0174 0.18273-0.01325 0.28125-0.03125-0.0031 0.0147 0.0031 0.01655 0 0.03125 0.24476-9e-3 0.50536 0.0121 0.75 0 0.10742-0.0831 0.20895-0.19288 0.3125-0.28125 0.0064-6e-3 -0.0029-0.02745 0-0.03125zm-0.3125 0.3125c-0.27549 0.21317-0.58644 0.36707-0.875 0.5625 0.03667-0.19098 0.08561-0.37225 0.125-0.5625-0.02963 1e-3 -0.06412-7.2e-4 -0.09375 0-0.0679 2e-3 -0.11959-2e-3 -0.1875 0-1.1164 0.19741-2.2518 0.36567-3.375 0.5 0.31748 0.0145 0.65118 0.01765 0.96875 0.03125 0.84681 0.0363 1.6841 0.06695 2.5312 0.09375-0.01371 9e-3 -0.04879 0.02205-0.0625 0.03125 0.02168 7.1e-4 0.07221-7.2e-4 0.09375 0 0.0015-7e-3 -0.0015-0.02375 0-0.03125 0.06069 2e-3 0.09556 0.02945 0.15625 0.03125 0.34736-0.18358 0.71044-0.38568 1.0625-0.28125 0.12349 0.0366 0.09568 0.19192 0.03125 0.3125 0.10507 3e-3 0.20743-2e-3 0.3125 0 0.20921-0.19393 0.43693-0.41633 0.65625-0.59375-0.06068-0.0563-0.10688-0.14318-0.1875-0.15625-0.24388-0.0395-0.47205 0.02185-0.71875 0.03125-0.14103 6e-3 -0.29653 0.02425-0.4375 0.03125zm0.6875 0.6875c-0.01573 0.0146-0.01552 0.01665-0.03125 0.03125 0.02362 5.5e-4 0.07049-5.3e-4 0.09375 0 1.5471 0.0352 3.0777 0.0342 4.625 0.0625 0.11303 2e-3 0.23072-2e-3 0.34375 0v-0.09375c-1.672 0.0395-3.3569 0.0363-5.0312 0zm-0.03125 0.03125c-0.06936-9.01e-4 -0.20045-0.02669-0.28125-0.03125-0.01031-2.57e-4 -0.02093 2.46e-4 -0.03125 0-0.09705 0.16585-0.23837 0.34772-0.375 0.53125 0.01293 8e-3 0.05271 0.02245 0.0625 0.03125 0.21698-0.17436 0.41846-0.33985 0.625-0.53125zm-0.625 0.53125c-0.04242 0.0341-0.113 0.06105-0.15625 0.09375 0.02236-0.0365 0.0642-0.08531 0.09375-0.125-0.17534-0.11289-0.55412-0.15018-0.9375-0.1875-0.0062 0.0237-0.02468 0.039-0.03125 0.0625 0.0019-0.0215 1.66e-4 -0.0407 0-0.0625-0.20953-0.0197-0.33352-0.02565-0.4375-0.03125-0.10583 0.0726-0.23943 0.14407-0.34375 0.21875-0.14452-0.0105-0.2617-0.02175-0.40625-0.03125-0.72885 0.18575-1.4813 0.35572-2.2188 0.5-0.61948 0.1212-1.2503 0.2362-1.875 0.34375v0.25c1.15-0.06935 1.9182-0.10089 4.0312-0.34375 0.52514-0.0603 1.0893 0.02357 1.5625-0.21875 0.19085-0.0977 0.3905-0.21523 0.5625-0.34375-7e-3 0.0123-0.0254 0.0508-0.03125 0.0625 0.0621-0.0509 0.24718-0.13361 0.1875-0.1875zm-2.2188-0.0625c0.22867-0.0583 0.4285-0.12572 0.65625-0.1875-0.05204-6e-3 -0.12171-0.03102-0.125-0.03125-1.4905-0.12434-2.9757-0.19551-4.4688-0.28125-0.07289 7e-3 -0.14586 0.02448-0.21875 0.03125 0.01597 0.11461 0.02313 0.22674 0.03125 0.34375 1.3783 0.01257 2.7476 0.03445 4.125 0.125zm-3.9375-0.5c0.41804-0.0402 0.86391-0.10911 1.2812-0.15625-0.50895-0.01524-1.0198-0.02705-1.5312-0.03125 0.0095 0.05176 0.0233 0.10394 0.03125 0.15625 0.07319 0.0052 0.14622 0.0271 0.21875 0.03125zm1.2812-0.15625c0.08211 0.0025 0.16785-0.0034 0.25 0 0.0598-7e-3 0.12772-0.02415 0.1875-0.03125-0.65817-0.03006-1.313-0.06149-1.9688-0.09375 0.0041 0.02007-0.0038 0.04235 0 0.0625 0.53681 0.02775 0.95987 0.03613 1.5312 0.0625zm0.25 0c0.84614 0.03483 1.6902 0.12558 2.5312 0.21875 0.28497 0.0315 0.5685 0.01486 0.84375 0.09375 0.09265-0.0627 0.15729-0.12493 0.25-0.1875-0.79562-0.0278-1.5567-0.08551-2.4688-0.125-0.41474-0.018-0.73724 0.0192-1.1562 0zm3.375 0.3125c-0.05829 0.0394-0.12942 0.08532-0.1875 0.125 0.08147-0.0287 0.16914-0.05515 0.25-0.09375-0.02245-7e-3 -0.03977-0.02475-0.0625-0.03125zm0.0625 0.03125c0.03823 0.0127 0.08772 0.01555 0.125 0.03125 0.02756 0.0117 0.03086 0.07401 0.03125 0.125 0.01092 7.1e-4 0.0202-7.1e-4 0.03125 0 0.02451-0.0937 0.04251-0.15511 0.0625-0.25-0.08235 0.0442-0.16721 0.05416-0.25 0.09375zm0.25-0.09375c0.05454-0.0293 0.10183-0.06465 0.15625-0.09375-0.04275-1e-3 -0.08169-0.02985-0.125-0.03125-0.0078 0.0392-0.02301 0.08591-0.03125 0.125zm0.15625-0.09375c0.34736 0.0118 0.79047-8e-3 1.0938 0-0.35119-0.0084-0.71166-0.02056-1.0625-0.03125-0.01508 8e-3 -0.01617 0.02325-0.03125 0.03125zm-3.4375-0.625c-0.77708 0.0051-1.5402 0.0011-2.3125 0 0.0089 0.03169 0.02293 0.0618 0.03125 0.09375 0.75908-0.03364 1.5185-0.05643 2.2812-0.09375zm-74.094-0.0625v0.0625c4.0747-4.12e-4 8.1466-0.02267 12.219-0.03125 0.0027-0.0095-0.0028-0.02179 0-0.03125-4.0736-1.78e-4 -8.1474-4.05e-4 -12.219 0zm0 0.78125v0.5c0.84547 0.14266 1.6866 0.28987 2.5312 0.4375 0.88188-6e-3 1.7744-0.0076 2.6562-0.03125-1.728-0.30512-3.4597-0.60021-5.1875-0.90625zm5.1875 0.90625c0.68701 0.12131 1.3758 0.22108 2.0625 0.34375 1.5829-0.05065 3.1667-0.10597 4.75-0.15625v-0.375c-1.4141-0.0981-2.84-0.18855-4.25-0.3125 1.3686 0.11955 2.723 0.24836 4.0938 0.34375-1.6516 0.0339-3.286 0.04676-4.9375 0.09375-0.57277 0.0251-1.1459 0.0472-1.7188 0.0625zm2.0625 0.34375c-0.22629 7e-3 -0.46123 0.02445-0.6875 0.03125-0.62371 0.0144-1.2514 0.01485-1.875 0.03125 0.9354 0.16961 1.8786 0.35213 2.8125 0.53125 1.0633 3e-3 2.1242-2e-3 3.1875 0-0.32499-0.0565-0.67507-0.09975-1-0.15625-0.82178-0.15021-1.6151-0.2906-2.4375-0.4375zm3.4375 0.59375c0.09939 0.0173 0.18187 0.0453 0.28125 0.0625 0.34354-4.85e-4 0.68764 3.81e-4 1.0312 0v-0.0625c-0.43763-5.63e-4 -0.87479 7.48e-4 -1.3125 0zm0.28125 0.0625c-1.056 1e-3 -2.1002-3e-3 -3.1562 0 0.48918 0.0945 0.98007 0.1837 1.4688 0.28125 0.90538 0.16697 1.8127 0.33107 2.7188 0.5v-0.59375c-0.34403-0.05985-0.68822-0.12784-1.0312-0.1875zm-3.1562 0c-0.10593-0.0204-0.20655-0.0422-0.3125-0.0625-0.95015-3e-3 -1.8936 4e-3 -2.8438 0-2.3882-0.0441-3.4507-0.05955-4.6562-0.09375v0.25c1.5298-0.0323 3.0645-0.06855 4.5938-0.09375 1.0787-4e-3 2.1401 3e-3 3.2188 0zm-3.125-0.59375c-0.71695-0.13-1.4386-0.24956-2.1562-0.375-0.84421 6e-3 -1.687 0.03575-2.5312 0.03125v0.5c1.5606-0.0626 3.1258-0.11509 4.6875-0.15625zm79.312 0.15625c-2.969 0.0405-5.937 0.08391-8.9062 0.125-1.0285 0.01322-2.0613 0.0196-3.0938 0.03125v0.5c0.87528 0.01023 1.7515 0.01979 2.625 0.03125 3.1334 0.0455 6.242 0.07552 9.375 0.125zm0 1.7812c-0.15723 0.0244-0.31174 0.037-0.46875 0.0625-1.9674 0.2726-3.9305 0.50698-5.9062 0.6875 2.1398-0.13514 4.2579-0.3408 6.375-0.65625zm-6.375 0.75c-1.8717 0.1182-3.7493 0.19441-5.625 0.25v0.03125c0.88648-0.0065 1.7729-0.01517 2.6562-0.03125 0.9877-0.0791 1.9822-0.15985 2.9688-0.25zm-2.9688 0.25c-0.88073 0.07054-1.7698 0.12374-2.6562 0.1875v0.6875c2.2329-0.14161 4.4598-0.25901 6.6875-0.5 1.3982-0.15125 2.7894-0.34716 4.1875-0.5 0.37457-0.037 0.75026-0.05735 1.125-0.09375v-0.03125c-3.1147 0.10959-6.2273 0.19325-9.3438 0.25zm-74.656 0v0.0625c0.56705 0.0445 0.93947 0.0945 1.7188 0.15625 3.4212 0.27828 6.8518 0.47126 10.281 0.59375v-0.3125c-3.407-0.04856-6.8159-0.14687-10.219-0.34375-0.59727-0.0406-1.1843-0.11351-1.7812-0.15625zm84 1.3125c-0.79804 0.02-1.6082 0.041-2.4062 0.0625-3.2038 0.09792-6.3924 0.21642-9.5938 0.3125v0.46875c3.0273-0.07556 6.0678-0.12844 9.0938-0.15625 0.96574-9e-3 1.9406-4e-4 2.9062 0zm-72 0.8125c-4.0001 0.0117-8.0003 0.02047-12 0.03125 0.08977 0.0115 0.19146 0.01995 0.28125 0.03125 3.9059-0.01034 7.8123 0.0047 11.719 0zm-11.719 0.0625c-0.09049 2.4e-4 -0.19076-2.4e-4 -0.28125 0v0.59375c3.273 0.42617 6.5633 0.68135 9.875 0.5625 0.70879-0.01083 1.4165-0.02199 2.125-0.03125v-0.28125c-0.61445-0.0084-1.2294-0.02162-1.8438-0.03125-3.3138-0.0601-6.5889-0.39651-9.875-0.8125zm0.96875 1.875c-0.41595-7.2e-4 -0.83425 0.02455-1.25 0.03125v1.3438c0.03773-2.8e-4 0.08728 3.2e-4 0.125 0 1.3334-6e-3 2.6666-0.02495 4-0.03125 2.3948-0.0859 4.7916-0.09258 7.1875-0.125 0.2296 0.0019 0.45808-0.0012 0.6875 0v-1.0312c-2.2628-0.03164-4.5194-0.0675-6.7812-0.15625-1.3217-9e-3 -2.647-0.02635-3.9688-0.03125zm82.75 0.4375c-4.0056 0.01306-7.9948 0.02876-12 0.0625v0.375c3.9974 0.03509 8.0032 0.08127 12 0.09375zm0 0.96875c-2.5342 0.26507-5.0821 0.52901-7.625 0.71875 1.7814-0.12826 3.619-0.27415 6.25-0.53125 0.4734-0.0463 0.91315-0.07715 1.375-0.125zm-7.625 0.71875c-0.44558 0.0333-0.89795 0.0326-1.3438 0.0625 0.18072 7.1e-4 0.38178-7.1e-4 0.5625 0 0.25041-0.01691 0.52943-0.04437 0.78125-0.0625zm-0.78125 0.0625c-1.031 0.0696-2.3637 0.14716-3.5938 0.21875v0.53125c3.5511-0.0136 7.1141-0.04467 10.656-0.0625 0.45287-0.0541 0.89154-0.09765 1.3438-0.15625v-0.53125c-0.13522 1e-3 -0.27105-1e-3 -0.40625 0-2.6731 0.0119-5.3269 0.0125-8 0zm7.0625 0.6875c-0.30222 0.0361-0.63498 0.05966-0.9375 0.09375-1.2732 0.11783-2.5378 0.27579-3.8125 0.375 1.0675-0.08309 2.1235-0.15294 3.75-0.28125 0.74013-0.0683 1.4786-0.11955 2.2188-0.1875-0.2795 7.1e-4 -0.56427-7.1e-4 -0.84375 0-0.13559 6.9e-4 -0.23941-6.9e-4 -0.375 0zm-4.75 0.46875c-1.9719 0.15348-3.933 0.27686-5.9062 0.375v0.03125c0.57413-0.02887 1.1445-0.0614 1.7188-0.09375 1.8337-0.10329 3.0125-0.22104 4.1875-0.3125zm-2.875-1.1562c-1.0139-0.0051-2.0222-0.0019-3.0312 0v0.1875c1.0108-0.0593 2.0216-0.11977 3.0312-0.1875zm-74.594 0.9375c1.7061 0.0929 3.4178 0.18323 5.125 0.15625 2.145 0.0246 4.2917 0.05242 6.4375 0.0625v-0.1875c-1.4163 0.01413-2.8354 0.01882-4.25 0.03125-2.4307 0.056-4.8814-0.13773-7.3125-0.0625zm11.562 0.21875c-2.1768 0.0027-4.3618 0.01227-6.5312 0.03125-1.8247 0.0626-3.6414 0.10761-5.4688 0.15625v0.6875c2.4157-0.21849 4.8573-0.32806 7.2812-0.40625 1.5799-0.04759 3.1433-0.12829 4.7188-0.1875zm-12 1.25v0.15625c2.4731-0.0373 4.9643-0.09665 7.4375-0.09375 1.5222 7.87e-4 3.0414-4.26e-4 4.5625 0v-0.03125c-1.5208-4.26e-4 -3.0419 7.86e-4 -4.5625 0-2.4853-3e-3 -4.9556 0.02365-7.4375-0.03125zm72 0v0.09375c3.2382-0.01844 6.4762-0.02585 9.7188-0.03125 0.75354 2e-3 1.5276-2.1e-4 2.2812 0v-0.03125c-0.74665-2e-3 -1.5033 6e-3 -2.25 0-3.2523-0.0055-6.5011-0.01258-9.75-0.03125zm12 0.96875c-3.9603-7e-3 -7.9147 0.01705-11.875 0.03125-0.04164 1.6e-4 -0.08336-1.58e-4 -0.125 0v0.25c4 0.01407 8 0.0079 12 0zm-84 0.09375v0.09375c3.794-0.0374 7.5806-0.061 11.375-0.0625-3.7928-1e-3 -7.5826 0.0063-11.375-0.03125zm12 0.59375c-3.7151 0.12499-7.4177 0.28627-11.125 0.5625 0.16641-5.6e-4 0.33359-3e-5 0.5 0 3.5387-0.2553 7.0753-0.41087 10.625-0.53125zm-10.625 0.5625c-0.20401 0.0147-0.38977 0.01595-0.59375 0.03125-0.2549 0.0246-0.52619 0.0397-0.78125 0.0625v0.375c2.1134-0.0402 4.23-0.05645 6.3438-0.09375 1.8898-0.0303 3.7685-0.04259 5.6562-0.0625v-0.1875c-1.802-0.01929-3.6038-0.03258-5.4062-0.0625-1.7397-0.0305-3.4788-0.0623-5.2188-0.0625zm82.625-0.125c-3.9985 0.02801-7.9994 0.02291-12 0.03125v0.03125c3.9996-0.01739 7.9991-0.03435 12-0.0625zm-83.219 0.125c-0.25522 7.1e-4 -0.52605 0.02875-0.78125 0.03125v0.03125c0.25621-0.0249 0.52514-0.0379 0.78125-0.0625zm83.219 0.125c-3.9994 0.04043-7.9998 0.05003-12 0.0625v0.03125c3.9984-0.01242 7.9969-0.0219 12-0.0625zm-72 1.3125c-1.4986 0.0213-3.0005 0.04075-4.5 0.0625-2.5014 7e-3 -5.0165 0.16646-7.5 0.40625v0.3125c2.448-0.27533 4.9094-0.47177 7.375-0.5625 1.5451-0.05722 3.0795-0.08553 4.625-0.125zm-12 1.125v0.03125c0.29439 4e-3 0.58061-3e-3 0.875 0-0.29395-0.0142-0.58105-0.01645-0.875-0.03125zm0.875 0.03125c0.42932 0.0208 0.88319 0.0438 1.3125 0.0625 3.2732 0.03344 6.5428 0.04611 9.8125 0.0625v-0.03125c-3.709-0.02242-7.4182-0.0539-11.125-0.09375zm1.3125 0.0625c-0.72419-7e-3 -1.4633-0.02335-2.1875-0.03125v0.3125c1.2531 0.0503 2.4962 0.11441 3.75 0.125 3.2661 0.0276 3.4162-0.0807 6.75-0.15625 0.49967-0.01134 0.99992 2e-3 1.5 0v-0.09375c-2.6588-0.0079-5.3117-0.0066-7.9688-0.09375-0.61796-0.0203-1.2258-0.0357-1.8438-0.0625zm81.812 0.0625c-3.9913 0.04568-8.0064 0.07376-12 0.09375v0.125c1.3878 0.02925 2.7711 0.05971 4.1562 0.125-1.3466-0.07041-2.6916-0.14972-4.0312-0.1875 3.9586 0.0216 7.9174 0.04635 11.875 0.09375zm0 0.25c-1.0486 0.12137-2.0745 0.24148-3.125 0.34375 1.0483 0.0605 2.077 0.12137 3.125 0.1875zm-3.125 0.34375c-1.5654-0.09037-3.1429-0.16761-4.7188-0.25 1.3852 0.06529 2.7723 0.16539 4.1562 0.28125 0.18098-0.0172 0.38155-0.01365 0.5625-0.03125zm-0.5625 0.03125c-0.40838 0.0389-0.81029 0.11891-1.2188 0.15625-2.8376 0.22877-3.3861 0.28456-6.3125 0.40625-0.25974 0.0108-0.52148 0.0217-0.78125 0.03125v0.1875c2.2418-0.0599 4.4737-0.11619 6.7188-0.1875 1.7561-0.10346 3.5228-0.11579 5.2812-0.125v-0.0625c-1.2282-0.14371-2.4554-0.30311-3.6875-0.40625zm-68.312 0.84375c-4.0021 0.01943-7.9976 0.05214-12 0.09375v0.0625c3.9941-0.0415 7.9745-0.07455 11.969-0.09375-1.974 0.2065-3.9265 0.36744-5.9062 0.5 1.241 0.0217 2.5248 0.0905 4.4688 0.15625 0.18105 7e-3 0.35019 0.02475 0.53125 0.03125 0.31292 0.01841 0.62449 0.04323 0.9375 0.0625v-0.0625c-0.29135-0.01061-0.58361-0.01999-0.875-0.03125-0.12026-4e-3 -0.16776 4e-3 -0.28125 0 0.3835-0.04126 0.76989-0.10952 1.1562-0.15625v-0.5zm-1.4688 0.71875c-1.1237-0.0447-2.2508-0.06765-3.375-0.09375-0.58918-0.0137-1.0856-0.02435-1.625-0.03125-1.5723 0.10098-3.1129 0.1844-4.6875 0.25-0.27767 0.0127-0.56605 0.02175-0.84375 0.03125v0.59375c0.10559-2e-3 0.20691 2e-3 0.3125 0 3.4109-0.13658 6.8253-0.39341 10.219-0.75zm-5-0.125c0.16606-0.0107 0.36523-0.02015 0.53125-0.03125-0.81554-0.0142-1.5467 3e-3 -3 0-1.0167-1e-3 -2.0457-9e-3 -3.0625 0v0.03125c1.9011-0.0171 3.6701-0.0239 5.5312 0zm78.469 0.96875c-1.5953 0.0876-3.2143 0.14572-4.8125 0.1875 1.5981-0.0339 3.2144-0.0439 4.8125-0.0625zm-9.0312 0.28125c-0.98772 0.01416-1.9783 0.01898-2.9688 0.03125v0.03125c0.99042-0.01857 1.981-0.04017 2.9688-0.0625zm-2.9688 0.1875v0.09375c0.91666 0.0016 1.8334 1.8e-4 2.75 0-0.63391-8e-3 -1.2691-0.02345-1.9062-0.03125 0.65602-2.8e-4 1.3127-2.7e-4 1.9688 0-0.93805-0.01292-1.8756-0.04614-2.8125-0.0625zm-72 0.03125v0.0625c1.7141-0.0157 3.4351-0.0064 5.1562 0-1.7187-0.01132-3.4373-0.0479-5.1562-0.0625zm5.1562 0.0625c1.7211 0.0064 3.4423 0.01 5.1562 0 0.56304 1.6e-4 1.1247-1.2e-4 1.6875 0v-0.03125c-0.56257-1.2e-4 -1.1249 1.3e-4 -1.6875 0-1.7187 0.0287-3.4375 0.04257-5.1562 0.03125zm71.094 0c2.5751 8e-3 5.1753 0.0277 7.75 0.0625v-0.0625c-2.582-0.0148-5.1704 0-7.75 0zm-4.25 0.09375v0.28125c1.2395 0.04115 2.4781 0.087 3.7188 0.125 1.6059-0.046 3.2065-0.05485 4.8125-0.09375 1.1554-0.0263 2.3121-0.02025 3.4688-0.03125v-0.15625c-1.7859 5e-3 -3.5887 0.0059-5.375-0.03125-2.211-0.02091-4.4178-0.06343-6.625-0.09375zm3.7188 0.40625c-1.239 0.03547-2.479 0.08001-3.7188 0.125v0.5c1.1312-0.0065 2.2767-0.0033 3.4062 0 0.19755-3e-3 0.39622 3e-3 0.59375 0 1.1159-0.0151 2.2278-0.0429 3.3438-0.0625 1.5902-0.028 3.1161-0.05115 4.6562-0.09375v-0.25c-1.8999-0.038-3.7868-0.07655-5.6875-0.09375-0.8589-0.022-1.735-0.0987-2.5938-0.125zm-66.562 0.4375c-2.5054 0.18277-5.0017 0.39423-7.5 0.65625 2.4949-0.2611 4.9971-0.47949 7.5-0.65625zm-7.5 0.65625c-0.05138 5e-3 -0.10488-5e-3 -0.15625 0-0.50421 0.0492-0.99619 0.0991-1.5 0.15625v0.09375c1.0774-3e-3 2.1726 3e-3 3.25 0-0.77919-0.12698-1.1766-0.1865-1.5938-0.25zm-0.15625 0c-0.38216-0.0575-1.0114-0.18141-1.5-0.25v0.375c0.50532-0.0574 0.99434-0.0716 1.5-0.125zm82.5-0.59375c-1.5059 0.0324-3.0019 0.06415-4.6875 0.09375-0.69362 0.0122-1.3689 0.02085-2.0625 0.03125 0.89617 6e-3 1.7914-9e-3 2.6875 0 1.3558 0.0298 2.7031 0.02465 4.0625 0.03125zm0 0.40625c-0.39558 0.0828-0.79044 0.14385-1.1875 0.21875-3.4181 0.64479-5.1892 0.87835-7.6562 1.1875 0.113-5e-3 0.262-0.02635 0.375-0.03125 0.8511-0.10879 1.6808-0.19873 2.5312-0.3125 1.5304-0.2047 3.0608-0.44198 4.5938-0.625 0.44417-0.053 0.89849-0.1132 1.3438-0.15625zm-8.4688 1.375c-1.0328 0.13201-2.0923 0.3045-3.125 0.4375-0.13616 0.01618-0.27128 0.01807-0.40625 0.03125v0.125c2.3764-0.03024 4.7435-0.05384 7.125-0.0625 1.6169 7e-3 3.2582 0.0478 4.875 0.0625v-0.90625c-1.4275 0.0421-2.8547 0.0905-4.2812 0.15625-1.3997 0.0546-2.7879 0.0957-4.1875 0.15625zm-0.375 0.03125c-1.0537 0.04561-2.1047 0.08157-3.1562 0.125v0.28125c0.14631-0.01638 0.29155-0.04516 0.4375-0.0625 1.2601-0.16229 1.8585-0.23595 2.7188-0.34375zm-63.156-1c-2.9073 0.0072-5.8193 0.02392-8.7188 0.03125 0.06983 0.0115 0.12199 0.02005 0.1875 0.03125 2.8466-0.0067 5.6879-0.02384 8.5312-0.03125zm-8.5312 0.0625c-1.1543 3e-3 -2.3145-4e-3 -3.4688 0v0.375c0.60009 0.13596 1.1213 0.23897 2.3438 0.625 0.41208 0.13012 0.80965 0.29775 1.2188 0.4375 0.08333 0.0285 0.16762 0.06185 0.25 0.09375 2.3061-0.0793 4.5995-0.13352 6.9062-0.1875 0.42944-0.0392 0.85188-0.0825 1.2812-0.125v-0.71875c-1.8199-0.05749-3.6522-0.09728-5.4688-0.15625-0.33233-0.0453-0.6672-0.0366-1-0.0625-0.78522-0.061-1.3029-0.15184-2.0625-0.28125zm7.25 1.3438c-1.7707 0.16147-3.5352 0.27957-5.3125 0.34375-0.06834 2e-3 -0.94591 0.04915-1.0312 0.03125-0.19294-0.0405-0.3777-0.11557-0.5625-0.1875-1.1001 0.0378-2.2127 0.07451-3.3125 0.125-0.16594 0.01-0.33408 0.02135-0.5 0.03125v0.4375c0.04506-3e-3 0.07994 3e-3 0.125 0 3.9415-0.23614 7.9141-0.34738 11.875-0.34375v-0.46875c-0.42702 0.0093-0.85556 0.02129-1.2812 0.03125zm61.281 2.1875v0.75c0.66534-0.0031 1.3335 0.0065 2 0 3.3228-0.056 6.677-0.0729 10-0.0625v-0.65625c-3.1138 0.0105-6.2301 0.02205-9.3438-0.03125-0.88371-9e-3 -1.773 0.0044-2.6562 0zm-72 0.53125v0.15625c0.95839-0.0256 1.9165-0.06975 2.875-0.09375-0.95495-0.0115-1.9202-0.0456-2.875-0.0625zm12 0.4375c-2.4765 0.0719-4.9625 0.0942-7.4375 0.15625-1.5148 0.0217-3.0474 0.0444-4.5625 0.0625v0.0312c1.4793 9.3e-4 2.9589 0.0233 4.4375 0.0312 2.5205-0.0193 5.0483 0.0472 7.5625 0.125v-0.40625zm72 0.1875c-4.0026 0.21685-7.9971 0.32115-12 0.40625v0.0312c4.0017-0.0856 7.9985-0.19188 12-0.40625zm-84 0.5v0.0937c4.0001-0.0377 7.9999-0.0378 12-0.0312v-0.0312c-4.0025 6e-3 -7.9962 8e-3 -12-0.0312zm72 0.15625v0.4062c0.66742-1e-3 1.3318 2e-3 2 0-0.45258-5e-3 -0.89116-0.026-1.3438-0.0312 2.6601-7e-3 5.3399-0.0169 8-0.0312 1.2842-0.01 2.2837 8e-3 3.3438 0v-0.15625c-3.7428-5e-3 -7.4775-0.0224-11.219-0.15625-0.25944-8e-3 -0.52099-0.023-0.78125-0.0312zm12 0.34375c-1.13 0.0126-2.2762 0.0229-3.4062 0.0312-2.1964 0.0122-4.3974 0.0246-6.5938 0.0312 3.3263 0.0397 6.6738 0.10897 10 0.15625v-0.21875zm-84-0.15625v0.46875c2.96-0.0141 5.9461-0.0387 8.9062-0.0312 1.0355 5e-3 2.0643-1e-3 3.0938 0v-0.4375c-0.92737 1e-3 -1.8567-5e-3 -2.7812 0-3.0823 8e-3 -6.1366 0.0163-9.2188 0zm12 0.84375c-2.3715 0.19747-4.7369 0.36659-7.125 0.375-1.6206 0.0247-3.2537 0.0156-4.875 0.0312v0.0625c1.5825 0.0144 3.1681 7e-3 4.75 0.0312 2.4111 0.1293 4.8362 0.15382 7.25 0.0625v-0.5625zm-6.625 0.6875c-1.7973 5e-3 -3.5791 0.0144-5.375 0.0312v0.53125c0.0075 1.9e-4 0.0237-2e-4 0.03125 0 2.2169 2e-3 4.4393 2e-3 6.6562 0 0.3286-3e-3 0.5057-0.0272 0.9375-0.0312 0.91959-9e-3 1.8304-0.0238 2.75-0.0312 0.54073-6e-3 1.0838 4e-3 1.625 0v-0.46875c-0.40726-4e-3 -0.81129 4e-3 -1.2188 0-1.796-0.0388-3.6089-0.0367-5.4062-0.0312zm1.3125 0.5625c-1.0605 8e-3 -2.0446 0.0173-3.0625 0.0625 2.7915-0.0269 5.5834-0.0212 8.375-0.0312v-0.0312c-1.7702-6e-4 -3.5403-1e-3 -5.3125 0zm-3.0625 0.0625c-1.2082 0.0117-2.4168 0.0145-3.625 0.0312v0.1875c0.85525-0.0753 1.7364-0.13958 2.5938-0.1875 0.46768-0.0261 0.68268-0.0159 1.0312-0.0312zm78.562-0.4375c-3.3982 0.0208-6.7926 0.0556-10.188 0.0937v0.15625c0.5311 5e-3 1.0631 0.0262 1.5938 0.0312 3.4721 0.0428 6.934 0.0651 10.406 0v-0.28125c-0.60337 4e-3 -1.2092-9e-3 -1.8125 0zm-10.188 0.375v0.21875c3.2064 0.0363 6.412 0.0738 9.625 0.0937 0.79021 0.012 1.5847 0.0272 2.375 0.0312v-0.21875c-3.5038 0.0293-7.0269-0.0384-10.531-0.0937-0.48995-0.0123-0.97898-0.0204-1.4688-0.0312zm-72 0.84375v0.375c2.0211-0.0241 4.0417-0.0253 6.0625-0.0625 1.9823-0.0231 3.9557-0.0437 5.9375-0.0625v-0.125c-1.9061-0.0147-3.8113-0.0405-5.7188-0.0625-2.0875-0.0385-4.1934-0.039-6.2812-0.0625zm12 0.4375c-2.3436 8e-3 -4.6865 0.0168-7.0312 0.0312-1.6525 0.013-3.3162 0.0458-4.9688 0.0625 1.645-0.0106 3.295 0.0133 4.9375 0 2.3552-0.0145 4.7056-0.0228 7.0625-0.0312zm70.094 0.46875c-1.7266 0.0426-3.4295 0.0576-5.1562 0.0937-1.6058 0.0336-3.0083 0.0445-4.4062 0.0625 0.07553 7e-3 0.14323 0.0238 0.21875 0.0312 1.3218-0.0181 2.6413 4e-4 4.1562-0.0312 1.7267-0.0361 3.4609-0.1136 5.1875-0.15625zm-9.3438 0.1875c-0.24883 3e-3 -0.5015-3e-3 -0.75 0v0.46875c3.9346 0.33066 7.847 0.91394 11.719 1.6875 0.09797-2e-3 0.18328 2e-3 0.28125 0v-0.8125c-3.7448-0.46388-7.4955-0.97457-11.25-1.3438zm10.969 2.1562c-2.8571 0.0501-5.7332 0.0846-8.5938 0.0937 2.9659 6e-3 5.9165 0.0327 8.875 0.0937v-0.125c-0.09905-0.02-0.18216-0.0427-0.28125-0.0625zm-11.188-2.1875c-0.17416-0.01689-0.35318-0.01877-0.53125-0.03125v0.0312c0.17602-2e-3 0.35509 2e-3 0.53125 0zm-60.531 2.1562c-1.4184 0.0681-2.8293 0.13586-4.25 0.1875-2.5826 0.0957-5.1744 0.25995-7.75 0.46875v0.4375c2.4712-0.261 4.9535-0.41227 7.4375-0.53125 1.5217-0.0717 3.0421-0.16158 4.5625-0.25zm60 0.625c7.82e-4 6e-5 -7.82e-4 0.0312 0 0.0312 0.89582 0.0683 1.7928 0.11561 2.6875 0.1875 3.1057 0.25847 6.2082 0.52349 9.3125 0.8125v-0.0312c-3.781-0.36574-4.0422-0.37646-9.2812-0.8125-0.90675-0.07465-1.8134-0.12789-2.7188-0.1875zm-60 0.4375c-0.41831 0.0177-0.83156 0.043-1.25 0.0625-3.5818 0.14468-7.1682 0.29232-10.75 0.4375v0.15625c3.5543-0.23758 7.126-0.39911 10.688-0.5 0.43718-8e-3 0.87522 6e-3 1.3125 0zm66.75 1.5c-1.3833 0.0266-2.7722 0.12996-4.1562 0.0937-0.86184-0.01926-1.7331-0.04908-2.5938-0.0312v1.3438c0.50908-0.0128 1.018-0.019 1.5312-0.0312 1.3438-0.0383 2.6884 0.0315 4.0312 0.0625 1.7245 0.0383 3.4418 0.17536 5.1562 0.375-1.4806 0.16288-2.9557 0.3245-4.4375 0.4375 1.4781-0.1074 2.9608-0.24383 4.4375-0.40625 0.03536-4e-3 0.05815-0.0273 0.09375-0.0312 0.38852-0.0512 0.79849-0.1085 1.1875-0.15625v-0.125c-0.80211-0.0111-1.5737-0.028-2.9062-0.0625-0.17705-5e-3 -0.35429-0.0259-0.53125-0.0312 1.1459 0.0283 2.2917 0.0472 3.4375 0.0625v-0.65625c-0.05217-0.0117-0.1041-0.0195-0.15625-0.0312-1.1-0.21695-2.2044-0.42824-3.3125-0.59375-0.43111-0.0644-0.87853-0.14851-1.3125-0.1875-0.16194-0.0146-0.30619-0.0306-0.46875-0.0312zm4.0625 1.8125c0.03813 5e-3 0.08687 0.0268 0.125 0.0312 0.35365 0.0584 0.70833 0.13287 1.0625 0.1875v-0.34375c-0.38802 0.0428-0.82067 0.0839-1.1875 0.125zm-70.812-1.4688c-3.998 0.28522-7.9934 0.55142-12 0.6875v0.03125c4.0029-0.13661 8.0055-0.40211 12-0.6875v-0.0312zm-12 0.84375v0.1875c4.0032-0.01 8.0005-0.0254 12-0.0312v-0.15625c-4.0008 5e-3 -8.0042 0.0144-12 0zm0 0.1875v0.3125c3.9969-0.026 7.9986-0.0585 12-0.0937v-0.125c-3.9985-0.0286-7.9967-0.0712-12-0.0937zm73.469 1.125c-0.48947 0.02279-0.97925 0.04326-1.4688 0.0625v0.0312c0.54306-0.0217 1.0821-0.0367 1.625-0.0625-0.05281-4e-3 -0.10343-0.0272-0.15625-0.0312zm0.15625 0.0312c0.7055 0.0554 1.4511 0.0937 2.1562 0.15625 2.7491 0.24653 5.4702 0.54605 8.2188 0.8125v-0.0937c-4.1174-0.39846-0.61372-0.0679-8.2188-0.75-0.64959-0.0576-1.2876-0.10473-1.9375-0.15625-0.06823 3e-3 -0.15051 0.028-0.21875 0.0312zm-73.625 0.0313v0.0625c4.0024-0.0268 8.0012-0.0109 12 0v-0.0625c-4.0039 0.0159-7.9939 0.0308-12 0zm0 0.25v0.53125c1.3099 0.11391 2.6259 0.23617 3.9375 0.3125 0.14375 8e-3 0.29373-8e-3 0.4375 0 0.10398-1.3e-4 0.20852 9e-5 0.3125 0 2.4313 0.12935 4.8738 0.18675 7.3125 0.21875v-0.65625c-3.9998-0.1009-8.0057-0.20709-12-0.40625zm3.9375 0.84375c-1.312 2e-3 -2.6255-3e-3 -3.9375 0v0.0312c1.3097-3e-3 2.6287-0.0269 3.9375-0.0312zm80.062 0.15625c-0.39179 0.067-0.79519 0.15499-1.1875 0.21875-1.172 0.18424-2.3253 0.36649-3.5 0.53125 0.7102-9e-3 1.4148-0.0242 2.125-0.0312 0.66418-0.0187 1.3366-0.0213 2 0 0.18808-0.0189 0.37429-0.0134 0.5625-0.0312v-0.6875zm-0.5625 0.71875c-0.36192 0.0363-0.73259 0.0831-1.0938 0.125-2.1169 0.21759-4.2269 0.43537-6.3438 0.65625 0.588 0.0717 1.1621 0.11481 1.75 0.1875 0.837 0.13599 1.6634 0.33009 2.5 0.46875-1.256-0.015-2.501-0.10844-3.75-0.25-0.72609-0.0781-1.4305-0.16853-2.1562-0.25-0.60359 0.0607-1.2086 0.13041-1.8125 0.1875 1.5119 0.22903 3.0509 0.45603 4.5625 0.6875-0.80365 0.0644-1.6012 0.13601-2.4062 0.1875 0.14343 7e-3 0.26282 0.0243 0.40625 0.0312 0.66322 0.0361 0.8287 0.0332 1.375 0.0625 0.72335-0.0189 1.433-9e-3 2.1562-0.0312-0.46906-0.0748-0.90648-0.17142-1.375-0.25 1.139-0.094 2.2721-0.20359 3.4062-0.34375-0.10503-0.0174-0.20747-0.0139-0.3125-0.0312 0.25588 4e-3 0.49426 3e-3 0.75 0 0.96723-0.12619 1.9467-0.29301 2.9062-0.46875v-0.93755c-0.18851-7e-3 -0.37398-0.0252-0.5625-0.0312zm-2.3438 1.4375c-0.1504 0.0196-0.28696 0.0126-0.4375 0.0312 0.7987 0.13272 1.5766 0.27173 2.375 0.40625 0.31615-0.0162 0.65269-0.0443 0.96875-0.0625v-0.5c-0.0103 4e-5 -0.02072-3e-5 -0.03125 0-0.95523 0.0232-1.9196 0.11414-2.875 0.125zm1.9375 0.4375c-1.4756 0.0757-2.9294 0.14187-4.4062 0.1875 0.55254 0.0881 1.1031 0.19719 1.6562 0.28125-1.0155-0.0563-2.273-0.16739-3.8125-0.25-0.12068 3e-3 -0.25432 0.0282-0.375 0.0312 1.5987 0.0888 3.215 0.18366 4.8125 0.28125-0.18122-0.0272-0.38132-0.035-0.5625-0.0625 0.96776 0.0537 2.6237 0.15232 3.6562 0.21875v-0.5312c-0.31617-0.0535-0.65255-0.10298-0.96875-0.15625zm-2.125 0.53125c1.0368 0.1554 2.0563 0.28734 3.0938 0.4375v-0.25c-1.0326-0.0667-2.0608-0.12441-3.0938-0.1875zm-4.8125-0.28125c-0.33954-0.0189-0.66039-0.044-1-0.0625-0.20369-0.01-0.4213-0.0217-0.625-0.0312-0.12891 8e-3 -0.24613 0.0234-0.375 0.0312-0.70118 0.0429-1.3903 0.091-2.0938 0.125v0.0312c0.65559-0.0178 1.3116-0.0149 1.9688-0.0312 0.70819-0.0176 1.4167-0.0443 2.125-0.0625zm-1.625-0.0937c0.06849-4e-3 0.15026-0.0269 0.21875-0.0312-0.89606-0.0424-1.792-0.0576-2.6875-0.0937v0.0312c0.82258 0.0357 1.6447 0.055 2.4688 0.0937zm-1.9375-0.90625c-0.1756-0.02665-0.35271-0.06495-0.53125-0.0938v0.15625c0.1782-0.0165 0.353-0.0456 0.53125-0.0625zm1.8125-0.1875c0.5497-0.0553 1.1067-0.0989 1.6562-0.15625-0.45237-0.0551-0.9226-0.10142-1.375-0.15625-0.53457 0.0614-1.0587 0.13109-1.5938 0.1875 0.43788 0.0495 0.87458 0.0759 1.3125 0.125zm-1.3125-0.125c-0.34286-0.0388-0.68762-0.0862-1.0312-0.125v0.1875c0.34484-0.0213 0.69128-0.0267 1.0312-0.0625zm1.5938-0.1875c1.5617-0.17939 3.1304-0.37536 4.6875-0.59375-0.61199 8e-3 -1.2317 3e-3 -1.8438 0-1.8276-0.0159-3.6464-0.0662-5.4688-0.15625v0.40625c0.87604 0.10727 1.7502 0.23774 2.625 0.34375zm-74.625-0.93755v0.46875c4.0021-0.0166 7.9994-5.2e-4 12 0.0312v-0.21875c-3.9971-0.13706-8.0025-0.21991-12-0.28125zm0 1.375v0.3125c2.2777-0.0392 4.5662-0.0979 6.8438-0.15625 1.7213-1e-3 3.4356-0.0288 5.1562-0.0312-1.7186 8.5e-4 -3.4386-1e-3 -5.1562 0-2.287-0.0565-4.5566-0.0888-6.8438-0.125zm7.0312 1.1875c-1.0172-1e-3 -2.0186 0.0139-3.0312 0.0312-1.3354 4e-3 -2.6645-5e-3 -4 0v0.0312c0.08032 6e-3 0.10377 0.0255 0.1875 0.0312-0.06037 2.1e-4 -0.12714-2.1e-4 -0.1875 0v0.125c0.07628 6e-3 0.01377-6e-3 0.09375 0 2.8808 0.2385 5.7699 0.42369 8.6562 0.53125 1.0801-0.0407 2.1661-0.0795 3.25-0.125v-0.0937c-3.9282-0.0739-7.8604-0.19908-11.781-0.4375 1.2525-4e-3 2.4975-0.0272 3.75-0.0312 2.0326-0.0309 4.0931-0.0491 6.125-0.0312-1.0124-0.0114-2.0453-0.0298-3.0625-0.0312zm1.7188 0.75c-1.0477 0.0395-2.1089 0.0453-3.1562 0.0937 0.72179 4e-3 1.4655 0.0251 2.1875 0.0312-0.9052-5e-3 -1.8135 5e-3 -2.7188 0-1.6904 0.0817-3.3746 0.18272-5.0625 0.3125v0.1875c1.0798 1e-3 2.1703 0.0194 3.25 0.0312 2.9148-0.14506 5.8323-0.21129 8.75-0.21875v-0.34375c-1.0853-0.0297-2.1709-0.0535-3.25-0.0937zm-5.5 0.65625c-0.53571 0.0267-1.0895 0.062-1.625 0.0937 0.88555 0.0235 1.7703 0.0537 2.6562 0.0937 0.81578 0.0369 5.5962 0.32223 6.4688 0.375 0.4187 0.0305 0.83134 0.0663 1.25 0.0937v-0.375c-0.33283-0.0137-0.66737-0.0167-1-0.0312-2.3677-0.095-4.1836-0.18226-6.5625-0.21875-0.4002-6e-3 -0.78728-0.0268-1.1875-0.0312zm-1.625 0.0937c-0.54398-0.0144-1.0811 9e-3 -1.625 0v0.125c0.54142-0.0375 1.0833-0.0929 1.625-0.125zm3.4375-0.625c0.18147-9e-3 0.34977-0.0229 0.53125-0.0312-1.8717-0.0119-3.722-0.02615-5.5938-0.03125v0.0625c1.6898 7e-3 3.3727-9e-3 5.0625 0zm75.719-0.15625c-0.14011 0.0162-0.30906 0.0854-0.46875 0.15625 0.271-0.0144 0.54152-0.0162 0.8125-0.0312-0.09238-0.10465-0.20364-0.14125-0.34375-0.125zm0.34375 0.125c0.0078 9e-3 0.02393 0.0213 0.03125 0.0312 0.03198 0.0434 0.02547 0.0892 0.03125 0.15625 0.0906 9e-5 0.19066-1.1e-4 0.28125 0 0.07178-0.0856 0.14983-0.13247 0.21875-0.21875 0.11022-0.13799-0.32761 0.0121-0.5 0.0312-0.01501 8.6e-4 -0.04749-8.5e-4 -0.0625 0zm0.34375 0.1875c-0.02046 0.0244-0.04179 0.0696-0.0625 0.0937 0.60746 6e-3 1.2321-0.0115 1.7812 0 0.2636 5e-3 0.54892 0.0246 0.8125 0.0312v-0.125c-0.84552-2e-3 -1.6857 1e-3 -2.5312 0zm-0.0625 0.0937c-0.06833-6.5e-4 -0.14994 5.9e-4 -0.21875 0-0.0019 0.0854-0.0019 0.15083-0.03125 0.25 0.08544-0.0912 0.16891-0.15512 0.25-0.25zm-0.25 0.25c-0.02636 0.0281-0.03568 0.0974-0.0625 0.125 0.01492 1e-3 0.01632-1e-3 0.03125 0 0.01032-0.0288 0.0228-0.0965 0.03125-0.125zm-0.03125 0.125c-0.03107 0.0868-0.04891 0.16734-0.09375 0.25 0.87347 0.0658 1.7525 0.10552 2.625 0.1875 0.15579 0.0146 0.19906 0.0173 0.34375 0.0312v-0.25c-0.95395-0.0856-1.919-0.15168-2.875-0.21875zm-0.09375 0.25c-0.06047-5e-3 -0.12704-0.0268-0.1875-0.0312-0.16468 0.14984-0.34698 0.28802-0.53125 0.40625 0.2104 0.22918 0.52563-0.0189 0.71875-0.375zm-0.71875 0.375c-0.03348-0.0365-0.06551-0.0929-0.09375-0.15625-0.3496-0.0656-0.70917-0.14857-1.0625-0.1875-0.76765-0.0846-3.486-0.16721-4.0625-0.1875-0.08264-3e-3 -0.16736 3e-3 -0.25 0 0.54507-0.0316 1.0807-0.11517 1.625-0.15625-1.4874-0.0768-2.9793-0.13116-4.4688-0.1875v0.28125c0.92738 0.0252 1.8565 0.0315 2.7812 0.0625-0.92036 0.0527-1.851 0.0649-2.7812 0.0937v0.21875c1.4624 0.0368 2.7843 0.0673 4.625 0.15625 0.71636 0.0346 1.4406 0.077 2.1562 0.125 0.40864 0.0274 0.8484 0.30516 1.2188 0.125 0.1061-0.0516 0.21297-0.12364 0.3125-0.1875zm-3.8438-0.6875c1.4555 0.0751 2.9215 0.17339 4.375 0.28125 0.08468-0.077 0.16974-0.13604 0.25-0.21875-0.20253-0.0141-0.42236-0.0493-0.625-0.0625-0.64443-0.0419-1.5588-0.11283-2.4375-0.15625-0.52012 0.0513-1.0412 0.11691-1.5625 0.15625zm1.5625-0.15615c0.54247-0.0535 1.0843-0.0862 1.625-0.15625 0.03541-5e-3 0.08792-0.0219 0.125-0.0312-1.32-5e-3 -2.5939 4.1e-4 -3.7812 0 0.32393-0.0124 0.64486-0.0489 0.96875-0.0625-1.359 1e-3 -2.7034 0.0289-4.0625 0.0312 0.21922 9e-3 0.40578 0.022 0.625 0.0312 0.64676 9.3e-4 1.322-6.5e-4 1.9688 0-0.29274 9e-3 -0.58258 0.0217-0.875 0.0312 1.0839 0.0466 2.178 0.0955 3.4062 0.15625zm-3.4062-0.15625c-0.33735-0.0145-0.81496-0.0195-1.0938-0.0312-0.50736-7.1e-4 -1.0201-1.7e-4 -1.5312 0v0.0937c0.87502-0.0207 1.7527-0.0339 2.625-0.0625zm-1.7188-0.0625c-0.3012-0.01252-0.60388-0.02201-0.90625-0.03125v0.0312c0.30372 2.2e-4 0.6081 5.2e-4 0.90625 0zm6.875 0.0312c0.49542 2e-3 0.92447 0.0272 1.4062 0.0312 5.28e-4 -0.0232 0.0019-0.0724 0-0.0937-0.43032-4.5e-4 -0.85092 1.6e-4 -1.2812 0-0.04532 0.0162-0.08137 0.0514-0.125 0.0625zm0.125-0.0625c0.13551-0.0485 0.26726-0.0946 0.40625-0.15625-1.0086 0.0536-2.0224 0.11258-3.0312 0.15625 0.87576-6.3e-4 1.7493-3.3e-4 2.625 0zm-67.906 2.5c-0.17685 0.0144-0.35433 0.0166-0.53125 0.0312-1.006 0.0689-1.354 0.073-2.0938 0.125 0.13562 8e-5 0.30188-4e-5 0.4375 0 0.6224-0.0436 0.82901-0.0393 1.625-0.0937 0.18728-0.0155 0.3753-0.016 0.5625-0.0312v-0.0312zm-2.1875 0.15625c-0.12102 8e-3 -0.22809 0.0232-0.34375 0.0312 0.84396-4.9e-4 1.6875-5.8e-4 2.5312 0v-0.0312c-0.72948 5.5e-4 -1.4571 1.4e-4 -2.1875 0zm-0.34375 0.0312c-0.14313 8e-5 -0.26311-1.4e-4 -0.40625 0-3.156 0.2219-5.0703 0.34689-9.0625 0.5v0.0312c4.1681-0.16 5.951-0.28422 9.4688-0.53125zm-0.40625 0c0.1164-8e-3 0.19055-0.0228 0.3125-0.0312-3.0817-2e-3 -6.1686 0.0126-9.25-0.0312-0.04527-1e-3 -0.07972 1e-3 -0.125 0v0.125c0.0075-1.7e-4 0.0237 1.6e-4 0.03125 0 3.0056-0.042 6.0254-0.0596 9.0312-0.0625zm62.938 0.0312v0.0625c1.0088 7e-3 2.016 0.0248 3.0312 0.0312 2.9864 0.0279 5.9825 0.0589 8.9688 0.0937v-0.0312c-2.9788-0.0348-5.9586-0.0972-8.9375-0.125-1.0203-0.0112-2.0414-0.0262-3.0625-0.0312zm0 0.375v0.4375c0.07291 0.0107 0.14452 0.0194 0.21875 0.0312 0.77167-6e-3 1.5409 0.0117 2.3125 0-0.84262-0.15769-1.6879-0.31213-2.5312-0.4686zm2.5312 0.46875c0.78172 0.14644 1.5927 0.26228 2.375 0.40625 1.6582 0.041 3.311 0.12002 4.9688 0.1875 0.70938 0.0187 1.4156 0.0242 2.125 0.0312v-0.875c-0.48228 7e-3 -0.95523 0.019-1.4375 0.0312-2.6654 0.10163-5.3649 0.1784-8.0312 0.21875zm2.375 0.40625c-0.75363-0.0186-1.5275 0.0128-2.2812 0 0.64723 0.10165 1.2901 0.18093 1.9375 0.28125 0.62225 6e-5 1.1889-5e-5 1.8125 0-0.49046-0.0884-0.97861-0.19105-1.4688-0.28125zm1.4688 0.28135c0.08296 0.0149 0.16703 0.0164 0.25 0.0312 1.6545 1.4e-4 3.3153-1e-5 4.75 0 0.21145 0 0.41353 5e-5 0.625 0v-0.0312c-0.20364 2e-5 -0.39013 0-0.59375 0-1.5166-1e-5 -3.2787 1.5e-4 -5.0312 0zm0.25 0.0312c-0.60666-5e-5 -1.1421 6e-5 -1.75 0 0.46747 0.0723 0.9387 0.17819 1.4062 0.25 0.51307-4.7e-4 1.0182-0.0307 1.5312-0.0312-0.3992-0.0699-0.78856-0.14715-1.1875-0.21875zm1.1875 0.21875c0.06853 0.012 0.15021 0.0505 0.21875 0.0625 1.3259-2e-3 2.6429 2e-3 3.9688 0v-0.0625c-1.3958 3e-3 -2.7917-2e-3 -4.1875 0zm0.21875 0.0625c-0.51227 5.8e-4 -1.0502-4.7e-4 -1.5625 0 0.31586 0.0485 0.65287 0.0767 0.96875 0.125 0.45147-6e-3 0.89231-0.0225 1.3438-0.0312-0.25601-0.0438-0.49411-0.0491-0.75-0.0937zm0.75 0.0937c1.073 0.1836 2.1432 0.39744 3.2188 0.5625v-0.5625c-0.19694-5e-3 -0.39691-0.0259-0.59375-0.0312-0.87579 0.0319-1.7491 0.014-2.625 0.0312zm-1.3438 0.0312c-2.4805 0.0321-4.9579 0.0297-7.4375 0.0312v0.53145c0 0.0539 0.0017 0.10278 0 0.15625 3.5518-2.5e-4 7.1115-0.0126 10.656 0.125 0.44898 0.0351 0.89314 0.0592 1.3438 0.0937v-0.21875c-1.5243-0.2318-3.0384-0.48573-4.5625-0.71875zm-0.96875-0.125c-0.06736-0.0103-0.12014-0.0209-0.1875-0.0312-1.9919 2e-3 -3.9769-1e-3 -5.9688 0-0.10406 2e-5 -0.20843-2e-5 -0.3125 0v0.0312c0.08339-2e-5 0.16661 2e-5 0.25 0 2.0716-1e-3 4.1471 2e-3 6.2188 0zm-1.5938-0.2811c-0.09791-0.0151-0.21459-0.0161-0.3125-0.0312-1.5993-1.5e-4 -3.1652 1.1e-4 -4.5625 0v0.0312c1.4878 1.1e-4 3.1721-1.5e-4 4.875 0zm-2.25-0.3125c-0.79885-0.12546-1.6078-0.27818-2.4062-0.40625-0.07324 5.3e-4 -0.14557-4.7e-4 -0.21875 0v0.375c0.87404 0.0103 1.7463 0.0163 2.625 0.0312zm-62.625-0.28125c-0.38634 0.0139-0.77077 0.0202-1.1562 0.0312-1.6877 0.0483-3.3453 0.0558-5.0312 0.0625 1.6561-0.0106 3.314-5e-3 4.9688 0.0312 0.40754 9e-3 0.8123 0.0194 1.2188 0.0312v-0.15625zm-12 0.0625v0.0625c0.14343-2e-3 0.29407 1e-3 0.4375 0-0.14317-0.0119-0.29434-0.0505-0.4375-0.0625zm0.4375 0.0625c0.13572 0.0113 0.27053 0.0202 0.40625 0.0312 1.6029-0.0164 3.2083-0.0515 4.8125-0.0625-1.738 6e-3 -3.4785 0.0151-5.2188 0.0312zm0.40625 0.0312c-0.1511 2e-3 -0.31764-1e-3 -0.46875 0 3.2079 0.26592 6.4429 0.51032 9.6562 0.6875h0.65625c-3.295-0.17223-6.5544-0.41697-9.8438-0.6875zm9.8438 0.6875c0.15879 8e-3 0.34121 0.0233 0.5 0.0312 0.27102 1e-5 0.54151 0 0.8125 0v-0.0312c-0.43728 0-0.8753 1e-5 -1.3125 0zm0.5 0.0312h-0.71875c0.5105 0.0272 1.021 0.0389 1.5312 0.0625v-0.0312c-0.27061-0.0126-0.54198-0.0177-0.8125-0.0312zm-0.71875 0c-0.14363-8e-3 -0.29387-0.0233-0.4375-0.0312-0.67132-1e-5 -1.3599 1e-5 -2.0312 0-2.6716-0.0234-5.3279-0.0116-8 0v0.0312c2.6665 0.0109 5.334 0.022 8 0 0.82218 2e-5 1.6466-1e-5 2.4688 0zm-10.094-0.71865-0.375-0.03125v0.0312c0.12844-1e-3 0.24656 1e-3 0.375 0zm-0.375 1.1875v0.0312c0.94523 2.9e-4 1.8678-5e-4 2.8125 0 3.0592 1e-3 6.124 4e-5 9.1875 0v-0.0312c-3.0531 3e-5 -6.1075 1e-3 -9.1562 0-0.95302-5.1e-4 -1.89-2.5e-4 -2.8438 0zm84 0.9375c-2.2929 0.25017-4.5979 0.39588-6.9062 0.53125-1.7712 0.0519-3.5403 0.0859-5.3125 0.125-0.0027 9e-3 0.0028 0.0218 0 0.0312 1.7722-0.0391 3.5413-0.0731 5.3125-0.125 5.3149-0.0891 3.5158-0.0517 6.9062-0.0625v-0.5zm-84 0.6875v0.0312c0.26411 0.032 0.54823 0.0947 0.8125 0.125 2.6629 0.30583 2.8611 0.31793 3.375 0.375 0.12065-4.9e-4 0.25436 5.5e-4 0.375 0-1.5099-0.16822-3.0531-0.35878-4.5625-0.5312zm4.5625 0.53125c0.68723 0.0766 1.3445 0.16897 2.0312 0.25 1.9577-0.0479 3.9163-0.10633 5.875-0.15625-0.02841-0.0634-0.06793-0.12273-0.09375-0.1875-2.6053 0.0389-5.2102 0.0819-7.8125 0.0937zm2.0312 0.25c-0.11314 3e-3 -0.19936-3e-3 -0.3125 0 0.28376 0.0347 1.3027 0.17829 2.125 0.28125 0.13607-3.7e-4 0.30145-0.031 0.4375-0.0312-0.74155-0.0968-1.5074-0.16239-2.25-0.25zm2.25 0.25c0.06905 9e-3 0.11844 0.0534 0.1875 0.0625 0.70728 2e-3 1.4177 8e-5 2.125 0 0.51082-6e-5 1.0206 3e-5 1.5312 0-0.01151-0.0199-0.02001-0.0424-0.03125-0.0625-0.48932 3e-5 -0.97964-6e-5 -1.4688 0-0.78591 1e-4 -1.5578-2e-3 -2.3438 0zm0.1875 0.0625c-0.14296-3e-4 -0.29454 3.5e-4 -0.4375 0 0.65735 0.0823 0.35402 2e-3 1.5938 0.15625 1.0784 0.13581 1.9246 0.23239 2.8125 0.34375-0.0089-0.0119-0.02247-0.0193-0.03125-0.0312-0.86512-0.10249-1.6947-0.21085-2.75-0.34375-0.39344-0.0556-0.79365-0.073-1.1875-0.125zm-2.75-0.3125c-0.28318-0.0347-1.7855-0.21578-2.0938-0.25-1.0557 4e-3 -2.1005 0.0312-3.1562 0.0312-0.33891 1e-3 -0.6924 2e-3 -1.0312 0v0.34375c0.24032-4e-3 0.47841 4e-3 0.71875 0 1.8491-0.0419 3.7135-0.0799 5.5625-0.125zm77.719-0.15625c-2.4546 0.0135-4.9204 0.043-7.375 0.0937-1.7295 0.0513-3.4587 0.0585-5.1875 0.0937-0.08044 0.16105-0.12202 0.34953-0.21875 0.5 1.6275 0.0347 3.2472 0.043 4.875 0.0937 2.6388 0.0577 5.2673 0.0549 7.9062 0.0625v-0.84375zm-84 0.40625v0.0625c0.24152-3e-3 0.47722 2e-3 0.71875 0 1.7381-0.0133 3.4806-0.0348 5.2188-0.0312-1.7231 4e-3 -3.4645-0.0165-5.1875-0.0312-0.24968-2e-3 -0.50034 4e-3 -0.75 0zm0 0.53125c2.3386 3e-4 4.661 0.0296 7 0.0625 2.0352 0.0186 4.0603 0.0388 6.0938 0.0625-0.0092-0.0116-0.02216-0.0195-0.03125-0.0312-2.0115-0.024-4.0193-0.0441-6.0312-0.0625-2.3451-0.0031-4.6866-0.0168-7.0312-0.0313zm84 1.4062c-2.2153 0.16182-4.4456 0.30129-6.6562 0.4375-4.4715 0.20617-6.929 0.37409-11.438 0.3125-1.0858-0.0148-2.3527-0.0702-3.6562-0.125h-1.1562c1.7093 0.0859 3.3857 0.16841 4.7812 0.1875 4.5088 0.0617 6.9657-0.10635 11.438-0.3125 1.7773-0.1095 3.5674-0.24981 5.3438-0.375 0.62808-0.0443 0.85012-0.0559 1.3438-0.0937v-0.0312zm-69.062 0.15625c-4.3198 0.26958-8.6537 0.4818-12.969 0.78125-0.65149 0.0504-1.3189 0.12196-1.9688 0.1875v0.3125c0.51207-0.0126 1.0191-0.0222 1.5312-0.0312-0.51653 0.0575-1.0161 0.11993-1.5312 0.1875 0.1657 0.0118 0.3343 0.0507 0.5 0.0625 2.8188-0.14912 5.6504-0.23958 8.4688-0.3125 8.408-0.10808 16.81-0.0958 25.219-0.0937 2.9562 4e-3 5.9188 0.0173 8.875 0.0312-0.39267-0.0281-0.79479-0.0349-1.1875-0.0625-2.5575 8e-3 -5.0987-1.4e-4 -7.6562 0-8.4085-2e-3 -16.811-0.0143-25.219 0.0937-2.4759 0.0237-4.9592 0.0497-7.4375 0.0937 4.6354-0.42739 9.2901-0.69359 13.938-1.0312-0.19164-0.0606-0.38175-0.13652-0.5625-0.21875zm26.938 1.0625c0.12071-4e-4 0.25429 4e-4 0.375 0-2.3644-0.16656-4.7287-0.33204-7.0938-0.5 2.2396 0.16511 4.4767 0.34274 6.7188 0.5zm0.375 0c0.40692 0.0286 0.81189 0.0333 1.2188 0.0625 4.3815 0.0209 8.7747 0.0544 13.156 0.0625 6.49 0.0291 12.979 0.0789 19.469 0.0937 2.1495-7e-3 4.2901 0.0417 6.4375 0.125 0.4929-0.0396 0.97635-0.0799 1.4688-0.125v-0.5625c-2.5311 0.0992-5.0603 0.19249-7.5938 0.1875-6.5454 0.0147-13.111 0.0685-19.656 0.0937-4.8359 6e-3 -9.6641 0.0462-14.5 0.0625zm40.281 0.34375c-2.9636 0.2379-5.9369 0.36743-8.9062 0.5-4.7139 0.0869-9.4147 0.14162-14.125 0.0625 4.6923 0.0922 9.3996 0.0752 14.094 0 0.89043-6e-3 6.2583-0.0507 7.3125-0.0625 1.0329-0.0115 2.0607-0.0376 3.0938-0.0625v-0.375c-0.49142-0.0215-0.97726-0.0435-1.4688-0.0625zm-39.062-0.28125c-0.13574-6.6e-4 -0.27051 6.4e-4 -0.40625 0 0.26393 0.0188 0.51734 0.0434 0.78125 0.0625 2.0644 0.1436 3.7735 0.2669 5.4688 0.375-1.6739-0.11554-3.3591-0.26386-5.4062-0.40625-0.14294-0.0103-0.29456-0.0211-0.4375-0.0312zm-42.969 0.375c-0.06086 3e-3 -0.12665 0.0281-0.1875 0.0312 1.5552 0.11055 3.1026 0.21307 4.6562 0.34375 2.2433 0.18867 4.2901 0.35628 6.3125 0.5625-2.0124-0.20497-4.0177-0.40598-6.25-0.59375-1.5031-0.12639-3.0267-0.23695-4.5312-0.3437zm-0.1875 0.0312c-0.10563-0.0079-0.20687-0.0237-0.3125-0.0312v0.0312c0.10617-6e-3 0.20632 6e-3 0.3125 0zm-0.3125 1.5626v0.0312c0.97619 0.11828 1.9276 0.24491 2.9062 0.34375 3.2107 0.32431 4.5771 0.41377 7.4062 0.59375 0.15109-6e-3 0.31766-0.0248 0.46875-0.0312-3.594-0.23712-7.2028-0.52603-10.781-0.9375zm10.781 0.9375c0.11301 8e-3 0.23074 0.024 0.34375 0.0312-0.15103 6e-3 -0.31772-6e-3 -0.46875 0 0.174 0.0112 0.25047 0.0191 0.4375 0.0312 0.95609 0.0469 1.9186 0.0858 2.875 0.125-0.9505-0.041-1.8624-0.10028-2.8125-0.15625 0.89836-0.0352 1.7887-0.0928 2.6875-0.125 1.3888-0.0432 2.7708-0.0692 4.1562-0.0937-1.3824 0.0205-2.7745 0.0276-4.1562 0.0625-1.0274 0.0368-2.0353 0.0813-3.0625 0.125zm-0.125 0.0312c-0.13748-9e-3 -0.21358 8e-3 -0.34375 0-1.5585 0.068-3.0993 0.16556-4.6562 0.25 1.6671-0.087 3.3318-0.18315 5-0.25zm35.594-0.93745c-0.34298 6e-3 -0.71243 0.0514-1.0625 0.0625 0.85296-0.0286 1.7077-0.0558 2.5625-0.0625-0.50138 1e-3 -0.99829-9e-3 -1.5 0zm1.5 0c1.1397-9e-3 2.2965-7e-3 3.4375 0.0312 1.7628 0.0568 3.5192 0.0775 5.2812 0.15625-1.7517-0.0779-3.4976-0.13095-5.25-0.1875-1.1512-4e-3 -2.3185-3e-3 -3.4688 0zm-30.156 0.0312c1.4469 0.18004 2.8991 0.42839 4.3438 0.625 0.07503 0.0102 0.14372-0.0102 0.21875 0-1.5153-0.20637-3.0455-0.43682-4.5625-0.625zm25.062 0.125c-1.7414 0.0943-3.492 0.20203-5.1562 0.3125-0.13588 9e-3 -0.27038 0.0223-0.40625 0.0312 0.12827-7.1e-4 0.24673 7.1e-4 0.375 0-0.76066 0.0529-1.5208 0.0996-2.2812 0.15625 0.72954 5e-3 1.4892-6e-3 2.2188 0 6.9689 0.0232 13.906 0.0796 20.875 0.0625 2.4405-0.0445 4.8744-9e-3 7.3125 0.0625-1.1922-0.0881-2.3695-0.17314-3.5625-0.25-1.1915-0.0189-2.3704-0.0389-3.5625-0.0312-6.9765-0.0267-13.961-0.0113-20.938 0 1.7067-0.11855 3.4208-0.25433 5.125-0.34375zm19.375 0.375c0.30155 5e-3 0.60473-6e-3 0.90625 0-2.1399-0.14337-4.2945-0.24791-6.4375-0.34375 1.8386 0.0828 3.695 0.22545 5.5312 0.34375zm0.90625 0c1.1788 0.079 2.3531 0.16072 3.5312 0.25 2.7244 0.0918 5.4342 0.24679 8.1562 0.40625 1.6688-7e-3 3.3312-0.0197 5-0.0312-5.5641-0.16207-11.123-0.51138-16.688-0.625zm11.688 0.65625c-1.0956 5e-3 -2.1856-3.5e-4 -3.2812 0 1.6812 0.14091 3.3817 0.29115 5.0625 0.4375 2.3438 0.0139 4.6874 0.0168 7.0312 0.0312-0.36855-0.0152-0.65482-0.0108-1.0938-0.0312-0.99396-0.0464-2.0063-0.10475-3-0.15625-1.5737-0.0954-3.1444-0.18904-4.7188-0.28125zm8.8125 0.46875c0.19194 8e-3 0.38271 0.0242 0.5625 0.0312v-0.0312c-0.1884-1e-3 -0.3741 1e-3 -0.5625 0zm-7.0312-0.0312c-0.09797-5.8e-4 -0.21453 5.7e-4 -0.3125 0 2.63 0.22891 5.2755 0.43967 7.9062 0.65625-2.5328-0.20856-5.0616-0.43576-7.5938-0.65625zm-0.3125 0c-1.6733-0.14564-3.3575-0.29771-5.0312-0.4375-0.32491-2e-5 -0.64384 5.2e-4 -0.96875 0-5.6808-0.0281-11.382-0.0728-17.062 0-6.368 0.0452-12.726 0.11833-19.094 0.15625-1.7212 1e-3 -3.4348-6.6e-4 -5.1562 0-0.25307 0.034-0.5099 0.0571-0.78125 0.0937 0.01605 2e-3 0.01534 0.0276 0.03125 0.0312 0.0217 5e-3 0.0406-3e-3 0.0625 0 0.59761 0.082 1.214 0.17501 1.8125 0.25 1.9584 0.24541 3.9137 0.43681 5.875 0.65625 2.5112 0.22778 4.043 0.37287 5.5938 0.5-1.5423-0.12671-3.0963-0.30475-5.5938-0.53125-1.9613-0.21943-3.9166-0.41088-5.875-0.65625-0.56029-0.0702-1.0967-0.14229-1.6562-0.21875 1.8465 0.0225 3.6849 0.0203 5.5312 0.0312 6.2992 0.0478 12.607 0.0952 18.906 0.125 5.6874 0.0598 11.375-2e-3 17.062-0.0312 2.1178-4e-3 4.226 0.0191 6.3438 0.0312zm-48.062-0.15625c-0.05298-7e-3 -0.10328-0.024-0.15625-0.0312-0.03951 6e-3 -0.08499 0.0258-0.125 0.0312 0.09078 1e-3 0.19047-1e-3 0.28125 0zm-0.28125 0c-0.87775-0.0113-1.7473-0.0477-2.625-0.0625-3.7065 0.33973-7.395 0.66735-11.094 1.0938-4.2932 0.57077-8.6142 0.75063-12.938 0.875-0.34758 6e-3 -0.71494 0.0561-1.0625 0.0625 0.0096 0.10603 0.04791 0.20803 0.0625 0.3125 1.5843 0.0113 3.1657 2e-3 4.75 0 2.5669-0.10516 5.1214-0.2647 7.6875-0.40625 0.21094-3e-3 0.41407 2e-3 0.625 0-1.1475 0.15633-2.2846 0.28877-3.4375 0.375 2.2021-0.0204 4.4231-0.0543 6.625-0.0937 3.5113-0.0925 7.0508-0.11069 10.562-0.125-4.5204-0.0659-9.0728-0.20222-13.594-0.15625 4.5026-0.59368 9.0425-1.0745 13.531-1.7812 0.36555-0.0489 0.58136-0.0498 0.90625-0.0937zm-0.84375 2.0312c2.177 0.0318 4.3539 0.0416 6.5312 0.0312-0.42814-6e-3 -0.85234-0.025-1.2812-0.0312-1.7485-0.0123-3.5017-7e-3 -5.25 0zm-17.188 0.21875c-1.629 0.0152-3.246 0.0291-4.875 0.0312-0.73759 0.0302-1.481 0.0349-2.2188 0.0625 1.8564-4e-3 3.7062-0.0132 5.5625 0 0.51367-0.0279 1.0183-0.0555 1.5312-0.0937zm-1.5312 0.0937c-0.53478 0.0291-1.0584 0.0425-1.5938 0.0625 0.21111 4e-3 0.4139 0.0276 0.625 0.0312-0.21-5e-3 -0.4131 2e-3 -0.625 0-0.03018 1e-3 -0.06357-1e-3 -0.09375 0-1.9735 0.0724-3.9332 0.097-5.9062 0.125-0.15229 1e-3 -0.31664-1.7e-4 -0.46875 0 0.03823 0.20619 0.09922 0.39498 0.15625 0.59375 0.06813 4e-3 0.11942 0.0268 0.1875 0.0312 2.7771-0.22192 5.5648-0.49127 8.3438-0.6875 0.0754 2e-3 0.14336-2e-3 0.21875 0 0.65507-0.0453 1.313-0.12062 1.9688-0.15625-0.93671-0.0108-1.8758 6e-3 -2.8125 0zm2.8125 0c1.7015 0.0194 3.3924 0.0624 5.0938 0.0937 5.1751 0.14249 10.355 0.19208 15.531 0.15625 6.6326-0.0941 13.273-0.16716 19.906-0.25 0.79202-2e-3 1.583 2e-3 2.375 0-6.8369-0.11849-13.693-0.20312-20.531-0.25-7.0616-0.0288-14.128-8e-3 -21.188 0.1875-0.39945 0.0172-0.78835 0.0408-1.1875 0.0625zm42.906 0c4.1626 0.0721 8.3381 0.13681 12.5 0.25 0.83008 0.0216 4.6803 0.13163 8.0625 0.21875 2.5272 0.13068 5.0347 0.26979 7.5625 0.375 0.08985-0.0108 0.19108-0.0202 0.28125-0.0312-1.2392-0.052-2.4801-0.12674-3.7188-0.1875-2.4777-0.12155-1.7126-0.0582-2.4062-0.0937 0.90919 0.0231 2.4044 0.0564 2.6875 0.0625 1.3067 0.0283 2.9564 0.0377 4.5312 0.0625 0.05249-8e-3 0.10353-0.0237 0.15625-0.0312-1.6252-0.0251-3.3096-0.0647-4.6562-0.0937-0.50337-0.0109-2.7307-0.041-4.7812-0.0937-0.02106-4e-3 0.29009-0.02-6.0312-0.3125-1.1378-0.0622-2.2991-0.082-3.4375-0.125-0.18103 3e-5 -0.35022-4e-5 -0.53125 0 1.31 0.0469 2.6283 0.0847 3.9375 0.15625 1.4976 0.0693 2.9711 0.14173 4.4688 0.21875-2.7485-0.0714-5.46-0.13971-6.0938-0.15625-3.5954-0.0978-7.2166-0.15215-10.812-0.21875-0.57327 1e-3 -1.1455-1e-3 -1.7188 0zm1.7188 0c2.8362-6e-3 5.6638 6.9e-4 8.5 0-0.37138-0.0133-0.72232-0.0507-1.0938-0.0625-0.07285-2e-3 -0.1459 2e-3 -0.21875 0-3.4995-1e-3 -7.0005 0.01-10.5 0 1.1106 0.018 2.202 0.042 3.3125 0.0625zm9.0312 0c4.8653-7.1e-4 9.7285-0.0312 14.594-0.0312 1.9856 0.0669 3.0667 0.0791 4.625 0.1875 0.02367-0.13261 0.04693-0.23969 0.0625-0.375-1.5471 0.0879-3.1066 0.13518-4.6562 0.15625-5.2417 0-10.477 2e-3 -15.719 0 0.36982 0.0125 0.72398 0.0485 1.0938 0.0625zm18.906 0.625c0.07925 1e-3 0.1451 5.4e-4 0.21875 0 0.0041-0.0157 0.02732-0.0154 0.03125-0.0312-0.0829 0.0157-0.16665 0.019-0.25 0.0312zm-0.15625 0.0312c-0.3637 0.0524-0.73826 0.11192-1.0938 0.15625 0.4766 0.0199 0.92994 0.0163 1.4062 0.0312 0.01932-0.0657 0.0452-0.12097 0.0625-0.1875-0.12739 3.6e-4 -0.2405 2e-3 -0.375 0zm-1.375 0.1875c-1.5305 0.18386-3.0346 0.31063-4.6875 0.4375-2.054 0.15767-4.1031 0.27989-6.1562 0.375 2.0209-0.0932 4.0384-0.17828 6.0625-0.25 2.1128-0.0748 4.2308-0.0889 6.3438-0.15625 0.0406-0.11191 0.09042-0.22904 0.125-0.34375-0.04547 1e-3 -0.06174 4e-3 -0.15625 0-0.5058-0.019-1.0255-0.0415-1.5312-0.0625zm-10.844 0.8126c-2.0531 0.0951-4.0986 0.16488-6.1562 0.25-6.1826 0.19155-12.41 0.33352-18.594 0.46875 1.5997-3e-3 3.2129-0.0264 4.8125-0.0312 4.576-0.15055 9.1727-0.28762 13.75-0.40625 2.0658-0.0854 4.1246-0.18606 6.1875-0.28125zm-19.938 0.6875c-1.5154 0.0499-3.016 0.10285-4.5312 0.15625 0.76208 0.0732 1.5192 0.14569 2.2812 0.21875 5.2408-0.019 10.48-0.0407 15.719-0.1875 1.8503-0.0174 3.7136-0.13947 5.5625-0.21875-5.1452-9e-3 -10.292-8e-3 -15.438 0.0312-1.1922 8e-3 -2.4016-4e-3 -3.5938 0zm-2.25 0.375c-0.08294 3.1e-4 -0.16706-2.9e-4 -0.25 0 0.35472 0.034 0.70776 0.0912 1.0625 0.125 0.09806 3.8e-4 0.18319-3.8e-4 0.28125 0-0.36857-0.035-0.72521-0.0897-1.0938-0.125zm1.0938 0.125c0.65501 0.0623 1.3136 0.12692 1.9688 0.1875 4.0291 0.0424 8.0659 0.0767 12.094 0.1875 2.5328 0.0244 5.0609 0.27499 7.5938 0.25 0.1043-2e-3 0.20821 2e-3 0.3125 0 1.4995-0.014 3.0004-0.0368 4.5-0.0312 1.8495 6e-3 3.7123 0.0743 5.5625 0.125 0.01878-0.0192 0.04396-0.0431 0.0625-0.0625-1.0819-0.0301-2.1676-0.0423-3.25-0.0625-1.7518-0.0407-3.4982-0.0635-5.25-0.0312 0.99469-0.02 1.975-0.0465 2.9688-0.0937 1.3666-0.065 4.2123-0.24526 6.0625-0.4375 0.07453-0.1019 0.18138-0.20621 0.25-0.3125-4.3413 0.14677-8.687 0.32962-13.031 0.34375-5.1741 9e-3 -10.357 0.0132-15.531-0.0312-1.4407-0.0106-2.8717-0.0256-4.3125-0.0312zm1.9688 0.1875c-0.10542-1e-3 -0.20708 1e-3 -0.3125 0 1.0726 0.0997 2.1455 0.18913 3.2188 0.28125 1.1389 0.0978 2.2977 0.19509 3.4375 0.28125 0.15074-1e-3 0.28676 7.1e-4 0.4375 0-1.2757-0.0959-2.5691-0.20311-3.8438-0.3125-0.97954-0.0841-1.9585-0.15949-2.9375-0.25zm6.7812 0.5625c0.11314 8e-3 0.23061 0.0229 0.34375 0.0312 1.4502-9e-3 2.8966-0.0474 4.3438-0.0625-1.565 0.0108-3.1178 0.0203-4.6875 0.0312zm0.34375 0.0312c-0.15132 7.2e-4 -0.31743-7.1e-4 -0.46875 0 1.0642 0.0801 2.1235 0.16745 3.1875 0.25 2.1732 0.0921 4.357 0.19066 6.5312 0.25 4.3013 0.11739 8.6343 0.023 12.938 0.125 0.05037-0.0375 0.10702-0.0861 0.15625-0.125-2.3709 0.0514-4.7554 0.0451-7.125 0.0312-1.979-0.0114-3.9592-9e-3 -5.9375-0.0625-2.1743-0.0593-4.3268-0.18914-6.5-0.28125-0.92804-0.072-1.853-0.11794-2.7812-0.1875zm-0.46875 0c-0.11311-9e-3 -0.19939-0.0228-0.3125-0.0312-1.4744 0.0111-2.9612 0.0407-4.4375 0.0625 1.5859-0.0228 3.1609-0.02 4.75-0.0312zm-6.9688-0.5937c-0.64971-0.0604-1.2879-0.1256-1.9375-0.1875-3.6284-0.0138-7.2466-0.0413-10.875-0.0625 2.62 0.0605 5.2555 0.11351 7.875 0.15625 1.6491 0.0255 3.2882 0.0763 4.9375 0.0937zm-12.812-0.25c0.61232-0.0172 1.2003-0.041 1.8125-0.0625-2.4068-0.0185-4.8127-0.071-7.2188-0.125-0.32357 6e-3 -0.64522 0.0239-0.96875 0.0312 1.6829 0.0531 3.3793 0.11414 5.0625 0.15625-0.22629-1e-3 -0.46121 1e-3 -0.6875 0-2.6714-0.0114-5.3596-0.013-8.0312 0 1.1125-0.0602 2.2304-0.12847 3.3438-0.15625-1.4567-0.0466-2.9187-0.0997-4.375-0.15625-3.4136 0.0279-6.8377 0.0441-10.25 0.15625-1.8659 0.0752-5.1547 0.21729-7 0.3125-2.9379 0.15158-5.8773 0.33219-8.8125 0.53125 0.022 0.0233 0.04015 0.071 0.0625 0.0937 5.1867-0.31022 10.368-0.53967 15.562-0.65625 3.7287-0.0744 7.458-0.10741 11.188-0.125-1.8678 0.10854-4.9341 0.35723-6.6875 0.5-6.2614 0.65096-12.524 1.0735-18.812 1.2812 0.11032 0.0675 0.19794 0.15776 0.3125 0.21875 0.02898-1.6e-4 0.03342 1.6e-4 0.0625 0 1.5992-9e-3 3.3555-0.0308 3.4375-0.0312-0.17263 9e-3 -0.32734 0.0223-0.5 0.0312 0.13357-7e-4 0.4966 5.4e-4 0.59375 0 6.2754-0.0339 12.568-0.0524 18.844-0.0625-6.2653 0.01-12.547-3e-3 -18.812 0.0312 1.5468-0.084 3.0804-0.16093 4.625-0.28125 2.5904-0.20178 4.0275-0.36817 6.625-0.625 1.1545-0.11416 2.314-0.26343 3.4688-0.375 1.5129-0.11769 5.4129-0.40255 6.9375-0.46875 1.1335-0.0492 2.2719-0.0419 3.4062-0.0625 2.1101-0.0383 4.2028-0.1 6.3125-0.15625 0.15887-4e-3 0.34114 4e-3 0.5 0zm-32.5 2c-0.63709 4e-3 -1.819-0.0135-2.9375 0 0.0788 0.0409 0.16935 0.0873 0.25 0.125 0.88969-0.0491 1.8024-0.0788 2.6875-0.125zm21.438-2.3125c0.19635-1e-3 0.3974 1e-3 0.59375 0-1.7856-0.0659-3.559-0.15048-5.3438-0.25-5.4108-0.28767-10.843-0.62135-16.25-0.96875 2.2164 0.14254 4.4427 0.29694 6.6562 0.4375 5.1496 0.327 4.4301 0.28961 9.5625 0.5625 1.5991 0.0757 3.1817 0.15669 4.7812 0.21875zm-21-1.2188c-2.1344-0.13713-4.2719-0.26776-6.4062-0.40625-0.06827 6e-3 -0.11948-4e-3 -0.1875 0 0.0064 0.0224-0.0068 0.0714 0 0.0937 2.2025 0.0599 4.3922 0.17091 6.5938 0.3125zm21.594 1.2188c1.6931 0.0625 3.3688 0.087 5.0625 0.125 2.9118-0.0521 5.8393-0.0333 8.75-0.125 0.97406-0.0225 1.9322-0.041 2.9062-0.0625-0.07534-7e-3 -0.1434-0.0241-0.21875-0.0312-2.5815 5e-3 -5.1998 9e-3 -7.7812 0.0312-2.9151 0.0202-5.8036 0.0407-8.7188 0.0625zm16.5-0.0937c0.09031-1.8e-4 0.15969 1.8e-4 0.25 0-1.4878-0.14154-2.9487-0.30763-4.4375-0.4375-6.5218-0.56898-13.059-0.97314-19.594-1.3438-4.05-0.2447-8.1016-0.3554-12.156-0.4375 4.0458 0.11484 8.0828 0.29044 12.125 0.46875 6.5346 0.37057 13.041 0.80605 19.562 1.375 1.4087 0.12288 2.8422 0.2414 4.25 0.375zm0.25 0c0.0606 6e-3 0.15815 0.0256 0.21875 0.0312 0.20394-4e-3 0.38981-0.0268 0.59375-0.0312-0.26341 4.8e-4 -0.54909-5.2e-4 -0.8125 0zm0.21875 0.0312c-0.07547 1e-3 -0.17453-1e-3 -0.25 0 0.43644 0.0415 0.87609 0.0519 1.3125 0.0937-0.35707-0.0314-0.70526-0.0598-1.0625-0.0937zm1.0625 0.0937c-1.4701 0.052-2.9362 0.10093-4.4062 0.15625-0.36294 0.015-0.73077 0.0493-1.0938 0.0625 1.9902 0.0145 3.9784-7.1e-4 5.9688 0 0.58814-2e-3 1.1931 2e-3 1.7812 0-0.74684-0.0717-1.5032-0.14705-2.25-0.21875zm-40-2.4062c-1.2939-0.022-2.5818-0.0744-3.875-0.0937-0.16678-2e-3 -0.3331 3e-3 -0.5 0-0.1281 5e-3 -0.27814 0.0267-0.40625 0.0312 1.5929 0.0172 3.1885 0.026 4.7812 0.0625zm-4.7812-0.06245c-0.49072-5e-3 -0.97802-0.0282-1.4688-0.0312-0.05268-9.7e-4 -0.10358 9.2e-4 -0.15625 0 0.0057 0.0376 0.02499 0.0564 0.03125 0.0937 0.53545-0.0189 1.0586-0.0433 1.5938-0.0625zm23.406-2.4375c0.35394-0.0324 0.73986-0.0293 1.0938-0.0625-3.0579-8e-3 -6.1271-0.0696-9.1875-0.15625 2.7091 0.0924 5.3842 0.17293 8.0938 0.21875zm1.0938-0.0625c0.26426 7e-4 0.51699-3.9e-4 0.78125 0-0.11283-0.016-0.23093-0.0465-0.34375-0.0625-0.15078 0.0143-0.28671 0.0483-0.4375 0.0625zm0.4375-0.0625c0.0455-4e-3 0.0795-0.0271 0.125-0.0312-0.98176-0.13915-1.9553-0.27044-2.9375-0.40625-0.45998-0.0613-0.91517-0.12507-1.375-0.1875-0.07508-0.0102-0.14367 0.0102-0.21875 0 0.51929 0.0707 1.0425 0.14954 1.5625 0.21875 0.94554 0.13076 1.8986 0.2721 2.8438 0.40625zm-4.1875-0.625c4.0276-0.0377 8.0659-0.0256 12.094 0 0.84579-0.0586 1.685-0.0999 2.5312-0.15625-4.8795 0.0376-9.7463 0.0898-14.625 0.15625zm12.094 0c-2.4758 0.17149-4.9648 0.36646-7.4375 0.59375-0.11274 0.0108-0.231-0.0108-0.34375 0 0.13657 0.0194 0.30091 0.0746 0.4375 0.0937 0.52852 6.5e-4 1.034 2e-4 1.5625 0 1.5157-0.2035 2.8981-0.38791 4.8125-0.5625 0.5335-0.0486 1.0596-0.0852 1.5938-0.125-0.21059-1e-3 -0.41441 1e-3 -0.625 0zm-7.3438 0.6875c-0.06796-9e-5 -0.1508 1.1e-4 -0.21875 0 0.29445 0.0416 0.58045 0.0531 0.875 0.0937-0.21953-0.031-0.43324-0.0625-0.65625-0.0937zm43.844-0.15625c0.09067 0 0.19058 2e-5 0.28125 0-1.6307-0.13668-3.2434-0.28261-4.875-0.40625-0.28765-0.01-0.58732 8e-3 -0.875 0 1.8282 0.13514 3.6417 0.25364 5.4688 0.40625zm12.938-0.0625c-1.3112 8e-3 -2.6264 0.0222-3.9375 0.0312 0.87195 0.0217 1.7217 0.0436 2.5938 0.0625 0.57761 0.0125 0.91073 0.0239 1.3438 0.0312v-0.125zm-83.344 0.375c-0.21873 0.0149-0.43783 0.01405-0.65625 0.03125v0.0312c0.22456-0.0187 0.42758-0.0441 0.65625-0.0625zm40.75 1.375c1.5421 0.12617 3.0788 0.24402 5.5625 0.375 1.3169 0.0695 2.6509 0.11021 3.9688 0.15625-1.3065-0.0456-2.6308-0.11861-3.9375-0.1875-2.4977-0.13169-4.043-0.2166-5.5938-0.34375zm41.844 3.0312c-3.063 0.079-6.1558 0.14271-9.2188 0.1875 1.9586 0.052 3.9475 0.0438 5.9062 0 1.0838-0.0194 2.1678-0.0649 3.25-0.0937 0.02101-0.0377 0.04222-0.0557 0.0625-0.0937zm-9.2188 0.1875c-0.4218-0.0112-0.82831-0.0121-1.25-0.0312-0.78556-7e-3 -1.5588 0.0305-2.3438 0.0625 1.2066 4e-3 2.3874-0.0134 3.5938-0.0312zm-20.219 1.375c-1.5283 0.0232-3.068 0.0423-4.5938 0.0937-3.4742 0.11701-7.3894 0.31687-10.875 0.5-1.2444 0.0669-2.4698 0.183-3.7188 0.25 1.2379-0.0707 2.483-0.16207 3.7188-0.21875 3.4846-0.1831 7.4019-0.383 10.875-0.5 1.5364-0.0518 3.06-0.1023 4.5938-0.125zm27.25 0.8125c-4.9793 0.0961-9.9561 0.22026-14.938 0.25 4.6814 0.031 9.3837 0.12308 14.062 0.21875 0.30917-0.14 0.5941-0.28417 0.875-0.46875zm-47.375 0.0625c-1.0961 0.0577-2.1553 0.13713-3.25 0.1875 0.15806-9e-3 0.31069 9e-3 0.46875 0 0.93006-0.0547 1.8491-0.13302 2.7812-0.1875zm-2.7812 0.1875c9.9997-8e-3 19.969-1e-3 29.969 0 1.702-0.0185 3.4233-0.0107 5.125 0-1.6921 0.01-3.4014-0.0134-5.0938-0.0312-10.006-1e-3 -19.994 0.0234-30 0.0312zm-0.46875 0c-0.09778-3e-5 -0.18504-8e-5 -0.28125 0-0.16498-5e-5 -0.33098-1.4e-4 -0.5 0-4.1729 0.16711-8.3872 0.16922-12.562 0.21875-4.4026 0.0305-8.7839 0.0405-13.188 0.0312 0.76574 0.33687 1.5802 0.54468 2.4688 0.5625 0.04456-1.9e-4 0.11168 1.9e-4 0.15625 0 3.4022-0.0145 6.786-0.043 10.188-0.125 4.5767-0.12972 9.1485-0.41806 13.719-0.6875z" fill="#593a19" fill-rule="evenodd" opacity=".5"/>
  <path id="rect4377" d="m12 6c-3.324 0-6 2.676-6 6v72c0 3.324 2.676 6 6 6h72c3.324 0 6-2.676 6-6v-72c0-3.324-2.676-6-6-6zm0 2h72c2.805 0 5 2.195 5 5v70c0 2.805-2.195 5-5 5h-72c-2.805 0-5-2.195-5-5v-70c0-2.805 2.195-5 5-5z" fill="url(#linearGradient4390)" opacity=".3"/>
  <rect id="rect3427" transform="rotate(-90)" x="-78" y="18" width="60" height="60" rx="5" ry="5" fill="url(#linearGradient3795)" fill-rule="evenodd"/>
  <path id="rect3734" d="m23 18c-2.77 0-5 2.23-5 5v50c0 2.77 2.23 5 5 5h50c2.77 0 5-2.23 5-5v-50c0-2.77-2.23-5-5-5zm0 2.0625h50c1.6612 0 2.9375 1.2763 2.9375 2.9375v50c0 1.6612-1.2763 2.9375-2.9375 2.9375h-50c-1.6612 0-2.9375-1.2763-2.9375-2.9375v-50c0-1.6612 1.2763-2.9375 2.9375-2.9375z" fill-rule="evenodd" opacity=".1"/>
  <path id="rect2955" d="m23 18c-2.77 0-5 2.23-5 5v50c0 2.77 2.23 5 5 5h50c2.77 0 5-2.23 5-5v-50c0-2.77-2.23-5-5-5zm0 1.0625h50c2.1915 0 3.9375 1.746 3.9375 3.9375v50c0 2.1915-1.746 3.9375-3.9375 3.9375h-50c-2.1915 0-3.9375-1.746-3.9375-3.9375v-50c0-2.1915 1.746-3.9375 3.9375-3.9375z" fill-rule="evenodd" opacity=".2"/>
 </g>
 <g id="layer5">
  <rect id="rect3171" x="15" y="15" width="66" height="66" rx="12" ry="12" clip-path="url(#clipPath3613)" fill="url(#linearGradient3613)" filter="url(#filter3794)" opacity=".1" stroke="#fff" stroke-linecap="round" stroke-width=".5"/>
 </g>
 <g id="layer3">
  <path id="text5124" d="m33.872 41.136-0.19231 3.077c-0.45586 9e-6 -1.2251 7e-3 -2.3078 0.02136-1.0114 0.0285-1.7807 0.04275-2.3078 0.04274-0.85473 9e-6 -1.624-0.02849-2.3078-0.08548l-0.0641 1.4958c1.7949-0.08547 3.0984-0.32051 3.9104-0.70514l0.36326 2.9274c-0.95445 0.47011-2.493 0.75502-4.6155 0.85473l-0.25642 1.1325h0.81199c2.1226 3e-6 4.3163 0.05698 6.5814 0.17094l-0.25642 3.077c-2.1511-0.11396-4.7793-0.17094-7.8848-0.17094-0.89746 0-1.3462-0.55557-1.3462-1.6667 0-0.28491 0.1567-1.2322 0.4701-2.842 0.14245-0.64104 0.23505-1.4744 0.27778-2.5001 0.05698-1.51 0.0926-2.3434 0.10684-2.5001 0.07122-0.7265 0.1567-1.2251 0.25642-1.4958 0.19943-0.54131 0.56269-0.81197 1.0898-0.81199 0.24217 1.2e-5 0.61255 0.03562 1.1111 0.10684 0.49858 0.07123 0.86896 0.10685 1.1111 0.10684 0.61255 1e-5 1.5243-0.03561 2.7351-0.10684 1.2251-0.08546 2.1297-0.1282 2.7137-0.12821m7.4341 2.4573-0.36326 3.077c-1.1824-0.11395-2.8989-0.27065-5.1497-0.47009l0.29915-3.077c1.1824 0.08548 2.9203 0.24218 5.2138 0.4701m0.17094 3.889-0.27779 3.077c-1.4815-0.11396-2.4787-0.17094-2.9915-0.17094-1.0827 2e-6 -2.0371 0.11396-2.8633 0.34189l-0.12821-3.0343c0.9117-0.25641 1.9659-0.38462 3.1625-0.38463 0.61255 6e-6 1.6453 0.05698 3.0984 0.17094m11.328 1.3462c-1.2e-5 0.59831-0.04275 1.3604-0.12821 2.2864-0.11397 1.2678-0.17808 2.0228-0.19231 2.265h-1.8804c0.01423-0.1567 0.09259-0.80486 0.23505-1.9445 0.09971-0.79774 0.14957-1.453 0.14958-1.9659-9e-6 -1.567-0.42737-2.3505-1.2821-2.3505-0.39888 7e-6 -0.89034 0.16383-1.4744 0.49147 0.11396 0.72652 0.17094 1.5314 0.17094 2.4146-7e-6 0.56982-0.05698 1.7736-0.17094 3.6112h-1.8804c0.11396-1.7664 0.17094-2.9061 0.17094-3.4189-4e-6 -1.1396-0.10684-1.9374-0.32052-2.3932-0.14246-0.05697-0.28491-0.08547-0.42736-0.08548-0.54132 6e-6 -0.99006 0.27779-1.3462 0.83336-0.05698 1.7094-0.29916 3.5186-0.72651 5.4275l-1.7308-0.76925c0.24217-1.1539 0.42024-2.5286 0.5342-4.124 0.07122-1.3818 0.14958-2.7636 0.23505-4.1454h1.8804l-0.02136 0.12821c0.51283-0.25641 1.0043-0.38462 1.4744-0.38463 0.4701 9e-6 0.85472 0.13534 1.1539 0.40599 0.79774-0.68377 1.7308-1.0257 2.7992-1.0257 1.8519 9e-6 2.7778 1.5812 2.7778 4.7437m12.241-3.9745-0.44873 3.0343c-1.6667-0.39886-4.0243-0.5983-7.0728-0.59831-1.0257 6e-6 -1.51 0.61256-1.453 1.8377l0.04274 0.68378c1.3676 0.44161 2.6781 0.66241 3.9317 0.66241 0.52707 3e-6 1.7878-0.09259 3.7821-0.27778l-0.12821 3.077c-2.6781 0.1567-4.3733 0.23505-5.0856 0.23505-1.4103 0-2.4645-0.23505-3.1625-0.70515-0.84048-0.58406-1.2607-1.5456-1.2607-2.8847 0-1.51 0.2208-2.7494 0.66241-3.718 0.5983-1.3248 1.5527-1.9872 2.8633-1.9872 3.0912 9e-6 5.5343 0.21369 7.3292 0.64104m6.9536-1.9399c-6e-6 1.3004-0.38005 2.1063-1.1401 2.4176-0.11906 0.04579-0.88373 0.11906-2.294 0.21979-0.91578 0.0641-1.4881 0.44415-1.7171 1.1401 0.32968-0.0092 0.87456-0.04579 1.6347-0.10989 0.69599-0.0641 1.2409-0.09616 1.6347-0.09616 0.63188 2e-6 1.1951 0.06868 1.6896 0.20605l-0.28847 1.9643c-0.41211-0.09158-0.91578-0.13737-1.511-0.13737-0.39379 0-0.97988 0.02748-1.7583 0.08243-0.76925 0.05495-1.3508 0.08242-1.7446 0.08242-0.35715 0-0.61815-0.2381-0.78299-0.7143-0.11905-0.33884-0.17857-0.7372-0.17858-1.1951 1e-6 -1.218 0.3251-2.0468 0.9753-2.4863 0.4121-0.27473 1.1218-0.43957 2.1292-0.49452 1.0531-0.05494 1.7583-0.18315 2.1154-0.38463 0.04578-0.49451-0.42126-0.74177-1.4011-0.74178-0.46705 6e-6 -1.0531 0.06411-1.7583 0.19231-0.76009 0.13737-1.3279 0.29763-1.7033 0.48078l-0.23352-1.8957c1.0715-0.52198 2.2299-0.78298 3.4754-0.78299 0.83335 7e-6 1.4973 0.16027 1.9918 0.48078 0.57693 0.38463 0.8654 0.97531 0.86541 1.772" fill="#c2dca8"/>
  <path id="path5141" transform="matrix(.67476 0 0 .67476 5.0011 25.724)" d="m30.75 40.762c3.5655-4.6349 7.2759-9.1691 11.032-13.637 1.4523-2.114 3.2524-7.7616 5.3496-6.723-0.30667 3.9345-2.2219 7.5344-2.567 11.478-0.78049 4.2207-1.4708 8.4667-1.7736 12.752 1.6566 4.2423 5.7142-0.80578 6.5531-3.1802 4.2349-7.1338 5.1719-15.981 10.799-22.326 3.8254-5.7756 6.7818-12.114 11.072-17.582 2.6489 3.8253-1.2624 7.941-0.79292 11.979-2.1394 13.456-3.8054 27.038-7.4613 40.193-0.77378 4.3024 4.9334 4.5126 5.8106 0.78048 9.8435-11.151 14.794-25.452 19.638-39.246 1.2771-2.8564 0.71591-6.6945 3.4738-8.7559 1.5193 4.5401 0.50056 9.4008 0.49291 14.073-0.72953 6.871-2.9793 13.459-4.112 20.261-0.1552 0.64871-0.32439 1.2942-0.51365 1.9338" fill="none" filter="url(#filter4005)" stroke="url(#linearGradient3950)" stroke-linecap="round" stroke-linejoin="round" stroke-opacity=".29091" stroke-width="11.856"/>
  <path id="path5161" transform="matrix(.67476 0 0 .67476 5.0011 25.724)" d="m43.75 46.75v0c0 12.264 1.3737-7.7396 2-12.75 1.4665-11.732 4.5675-30.567 12.75-38.75 1.6274-1.6274 0.5108 7.946-1 15.5-0.15104 0.75521-10.947 53.376-2 32.5 5.8045-13.544 14.533-25.066 21-38 0.48448-0.96896 0 2.1667 0 3.25 0 12.619-0.64114 27.665 0.25 39.25 0.24277 3.156 1.1487-5.7974 3.5-10.5 0.30551-0.61102 13.75-32.194 13.75-18v27" fill="none" filter="url(#filter4009)" opacity=".2" stroke="url(#linearGradient5169-4)" stroke-linecap="round" stroke-linejoin="round" stroke-width="11.856"/>
 </g>
</svg>
