<?xml version="1.0" encoding="UTF-8"?>
<svg id="svg2408" width="96" height="96" version="1.0" xmlns="http://www.w3.org/2000/svg" xmlns:cc="http://creativecommons.org/ns#" xmlns:dc="http://purl.org/dc/elements/1.1/" xmlns:rdf="http://www.w3.org/1999/02/22-rdf-syntax-ns#" xmlns:xlink="http://www.w3.org/1999/xlink">
 <defs id="defs2410">
  <linearGradient id="linearGradient4414">
   <stop id="stop4416" stop-color="#dac3a2" offset="0"/>
   <stop id="stop4418" stop-color="#dac3a2" stop-opacity="0" offset="1"/>
  </linearGradient>
  <linearGradient id="linearGradient4370">
   <stop id="stop4372" stop-color="#8a5b30" offset="0"/>
   <stop id="stop4374" stop-color="#8a5b30" stop-opacity="0" offset="1"/>
  </linearGradient>
  <linearGradient id="linearGradient4295">
   <stop id="stop4297" stop-color="#b88f56" offset="0"/>
   <stop id="stop4299" stop-color="#d9bd98" offset="1"/>
  </linearGradient>
  <linearGradient id="ButtonShadow" x1="45.448" x2="45.448" y1="92.54" y2="7.0165" gradientTransform="scale(1.0059 .99417)" gradientUnits="userSpaceOnUse">
   <stop id="stop3750" offset="0"/>
   <stop id="stop3752" stop-opacity=".58824" offset="1"/>
  </linearGradient>
  <linearGradient id="linearGradient3737">
   <stop id="stop3739" stop-color="#fff" offset="0"/>
   <stop id="stop3741" stop-color="#fff" stop-opacity="0" offset="1"/>
  </linearGradient>
  <linearGradient id="linearGradient3706" x1="54.187" x2="54.187" y1="90" y2="39.853" gradientUnits="userSpaceOnUse">
   <stop id="stop4291" stop-color="#996c3b" offset="0"/>
   <stop id="stop4293" stop-color="#c19e6d" offset="1"/>
  </linearGradient>
  <filter id="filter3174" color-interpolation-filters="sRGB">
   <feGaussianBlur id="feGaussianBlur3176" stdDeviation="1.71"/>
  </filter>
  <filter id="filter4362" x="-.31156" y="-.42628" width="1.6231" height="1.8526" color-interpolation-filters="sRGB">
   <feGaussianBlur id="feGaussianBlur4364" stdDeviation="6.2124381"/>
  </filter>
  <linearGradient id="linearGradient5100" x1="47.079" x2="6.5963" y1="32.783" y2="9.4099" gradientUnits="userSpaceOnUse">
   <stop id="stop5094" stop-color="#be9f6a" offset="0"/>
   <stop id="stop5096" stop-color="#e5d2b2" offset="1"/>
  </linearGradient>
  <linearGradient id="linearGradient2489" x1="48" x2="6.7813" y1="42" y2="18.202" gradientUnits="userSpaceOnUse" xlink:href="#linearGradient4295"/>
  <linearGradient id="linearGradient3264" x1="47.227" x2="6.3304" y1="29.04" y2="18.082" gradientTransform="matrix(-1,0,0,1,96,0)" gradientUnits="userSpaceOnUse" xlink:href="#linearGradient4295"/>
  <linearGradient id="linearGradient3285" x1="23.143" x2="66.964" y1="42" y2="6" gradientUnits="userSpaceOnUse" xlink:href="#linearGradient3737"/>
  <linearGradient id="linearGradient4376" x1="8" x2="8" y1="38.127" y2="71.877" gradientUnits="userSpaceOnUse" xlink:href="#linearGradient4370"/>
  <linearGradient id="linearGradient4394" x1="10" x2="10" y1="40.263" y2="89.666" gradientUnits="userSpaceOnUse" xlink:href="#linearGradient3737"/>
  <linearGradient id="linearGradient4400" x1="8" x2="8" y1="38.127" y2="87.03" gradientTransform="matrix(-1,0,0,1,96,0)" gradientUnits="userSpaceOnUse" xlink:href="#linearGradient4370"/>
  <linearGradient id="linearGradient4402" x1="10" x2="10" y1="40.263" y2="89.666" gradientTransform="matrix(-1,0,0,1,96,0)" gradientUnits="userSpaceOnUse" xlink:href="#linearGradient3737"/>
  <linearGradient id="linearGradient4420" x1="8.9651" x2="8.9651" y1="44.04" y2="52.263" gradientUnits="userSpaceOnUse" xlink:href="#linearGradient4414"/>
  <linearGradient id="linearGradient4424" x1="8.9651" x2="8.9651" y1="44.04" y2="52.263" gradientTransform="matrix(-1 0 0 1 96.087 0)" gradientUnits="userSpaceOnUse" xlink:href="#linearGradient4414"/>
  <radialGradient id="radialGradient4432" cx="48" cy="73.146" r="42" gradientTransform="matrix(.86776 0 0 .095238 6.3473 36.19)" gradientUnits="userSpaceOnUse">
   <stop id="stop4428" stop-color="#71461e" offset="0"/>
   <stop id="stop4430" stop-color="#71461e" stop-opacity="0" offset="1"/>
  </radialGradient>
  <linearGradient id="linearGradient3832" x1="65.263" x2="65.263" y1="64.205" y2="50.069" gradientTransform="matrix(.625 0 0 .625 28.5 31.25)" gradientUnits="userSpaceOnUse" xlink:href="#linearGradient3737"/>
  <radialGradient id="radialGradient2858" cx="48" cy="90.172" r="42" gradientTransform="matrix(1.1573 0 0 .99591 -7.551 .19713)" gradientUnits="userSpaceOnUse">
   <stop id="stop3739-1" stop-color="#fff" offset="0"/>
   <stop id="stop3741-8" stop-color="#fff" stop-opacity="0" offset="1"/>
  </radialGradient>
  <linearGradient id="linearGradient3773" x1="56" x2="88" y1="72" y2="72" gradientTransform="matrix(.9375 0 0 .9375 -140.5 3.5)" gradientUnits="userSpaceOnUse">
   <stop id="stop3780" stop-color="#499119" offset="0"/>
   <stop id="stop3782" stop-color="#8fd625" offset="1"/>
  </linearGradient>
  <linearGradient id="linearGradient3788" x1="70" x2="70" y1="54" y2="75.095" gradientTransform="translate(0,4)" gradientUnits="userSpaceOnUse" xlink:href="#linearGradient3737"/>
  <filter id="filter3806" color-interpolation-filters="sRGB">
   <feGaussianBlur id="feGaussianBlur3808" stdDeviation="1.2"/>
  </filter>
  <linearGradient id="linearGradient3812" x1="65.263" x2="65.263" y1="64.205" y2="50.069" gradientTransform="matrix(.625 0 0 .625 78.5 32.25)" gradientUnits="userSpaceOnUse">
   <stop id="stop5012" offset="0"/>
   <stop id="stop5014" stop-opacity="0" offset="1"/>
  </linearGradient>
  <clipPath id="clipPath3823">
   <path id="path3825" d="m108.81 58c-1.5581 0-2.8125 1.2544-2.8125 2.8125v24.375c0 1.5581 1.2544 2.8125 2.8125 2.8125h24.375c1.5581 0 2.8125-1.2544 2.8125-2.8125v-24.375c0-1.5581-1.2544-2.8125-2.8125-2.8125h-24.375zm7.1875 4.5h10v8.75h5l-10 13.75-10-13.75h5v-8.75z" fill="#fff"/>
  </clipPath>
  <filter id="filter3831" color-interpolation-filters="sRGB">
   <feGaussianBlur id="feGaussianBlur3833" stdDeviation="0.6375"/>
  </filter>
  <linearGradient id="linearGradient3277-5" x1="50.499" x2="50.499" y1="19.882" y2="47.295" gradientTransform="matrix(1.0201 0 0 1.0201 -5.2982 5.7562)" gradientUnits="userSpaceOnUse">
   <stop id="stop4311-3" stop-color="#d8cab2" offset="0"/>
   <stop id="stop4321-4" stop-color="#d2b98c" offset=".45711"/>
   <stop id="stop4323-7" stop-color="#F9F7EF" offset=".4859"/>
   <stop id="stop4325-1" stop-color="#fff" offset=".4911"/>
   <stop id="stop4327-9" stop-color="#FBF9F4" offset=".4918"/>
   <stop id="stop4329-7" stop-color="#EFE7D0" offset=".4946"/>
   <stop id="stop4331-9" stop-color="#E4D6B0" offset=".4977"/>
   <stop id="stop4333-5" stop-color="#DAC894" offset=".5011"/>
   <stop id="stop4335-2" stop-color="#c7a572" offset=".5049"/>
   <stop id="stop4347-5" stop-color="#d7c198" offset="1"/>
  </linearGradient>
  <linearGradient id="linearGradient3942" x1="46.796" x2="46.796" y1="60.307" y2="6.0179" gradientUnits="userSpaceOnUse" xlink:href="#linearGradient3928"/>
  <linearGradient id="linearGradient3928">
   <stop id="stop3930" stop-color="#3a240f" offset="0"/>
   <stop id="stop3932" stop-color="#3a240f" stop-opacity="0" offset="1"/>
  </linearGradient>
  <linearGradient id="linearGradient3934" x1="48.401" x2="48.401" y1="61.991" y2="4.6666" gradientUnits="userSpaceOnUse" xlink:href="#linearGradient3928"/>
  <linearGradient id="ButtonShadow-0" x1="45.448" x2="45.448" y1="92.54" y2="7.0165" gradientTransform="matrix(1.0059 0 0 .99417 100 0)" gradientUnits="userSpaceOnUse">
   <stop id="stop3750-8" offset="0"/>
   <stop id="stop3752-5" stop-opacity=".58824" offset="1"/>
  </linearGradient>
  <linearGradient id="linearGradient3780" x1="32.251" x2="32.251" y1="6.1317" y2="90.239" gradientTransform="matrix(1.0238 0 0 1.0119 -1.1429 -98.071)" gradientUnits="userSpaceOnUse" xlink:href="#ButtonShadow-0"/>
  <linearGradient id="linearGradient3721" x1="32.251" x2="32.251" y1="6.1317" y2="90.239" gradientTransform="translate(0,-97)" gradientUnits="userSpaceOnUse" xlink:href="#ButtonShadow-0"/>
  <linearGradient id="linearGradient4071-3">
   <stop id="stop4073-8" offset="0"/>
   <stop id="stop4075-4" stop-opacity="0" offset="1"/>
  </linearGradient>
  <linearGradient id="linearGradient3309" x1="64" x2="64" y1="3.1001" y2="122.9" gradientUnits="userSpaceOnUse">
   <stop id="stop3311" stop-color="#f0f0f0" offset="0"/>
   <stop id="stop3313" stop-color="#aaa" offset="1"/>
  </linearGradient>
  <clipPath id="clipPath3770">
   <path id="path3772" d="m30.916 135.97c-0.93726 0.54113-1.2283 1.7475-0.67792 2.7008l1.9375 3.3558c-1.4181 1.4141-2.6223 3.012-3.5955 4.71l-3.7836-0.99094c-0.53163-0.14245-1.0379-0.11751-1.4762 0.13061-0.43816 0.24835-0.79654 0.66758-0.9366 1.1903l-1.9788 7.3851c-0.2801 1.0454 0.36595 2.0654 1.4291 2.3503l3.7722 1.0336c-0.0062 1.9571 0.23771 3.943 0.75875 5.8767l-3.3558 1.9375c-0.95328 0.55038-1.3044 1.7407-0.7633 2.6779l3.8125 6.6034c0.54113 0.93726 1.7475 1.2283 2.7008 0.67792l3.3558-1.9375c1.4141 1.4181 3.012 2.6223 4.71 3.5954l-0.99094 3.7836c-0.2849 1.0632 0.27544 2.1327 1.3209 2.4128l7.3851 1.9788c1.0454 0.28012 2.0654-0.36588 2.3503-1.4291l1.0336-3.7722c1.9571 6e-3 3.943-0.2377 5.8767-0.75875l1.9375 3.3558c0.55038 0.95327 1.7407 1.3044 2.6779 0.7633l6.6034-3.8125c0.93726-0.54113 1.2283-1.7475 0.67792-2.7008l-1.9375-3.3558c1.4181-1.4141 2.6223-3.012 3.5955-4.71l3.7836 0.99095c1.0632 0.28489 2.1327-0.2755 2.4128-1.3209l1.9788-7.3851c0.2801-1.0454-0.36595-2.0654-1.4291-2.3503l-3.7722-1.0336c0.0062-1.9571-0.2377-3.943-0.75876-5.8767l3.3558-1.9375c0.95327-0.55037 1.3044-1.7407 0.7633-2.6779l-3.8125-6.6034c-0.54113-0.93727-1.7475-1.2283-2.7008-0.67793l-3.3558 1.9375c-1.4141-1.4181-3.012-2.6223-4.71-3.5954l0.99094-3.7836c0.2849-1.0632-0.27542-2.1328-1.3209-2.4128l-7.3851-1.9788c-1.0454-0.28011-2.0654 0.36588-2.3503 1.4291l-1.0336 3.7722c-1.9571-6e-3 -3.943 0.23771-5.8767 0.75876l-1.9375-3.3558c-0.55038-0.95329-1.7407-1.3044-2.6779-0.7633l-6.6034 3.8125zm13.052 14.981c3.8263-2.2091 8.7191-0.89814 10.928 2.9282 2.2091 3.8263 0.89814 8.7191-2.9282 10.928s-8.7191 0.89814-10.928-2.9282c-2.2091-3.8264-0.89814-8.7191 2.9282-10.928z" display="block" fill="url(#linearGradient3774)"/>
  </clipPath>
  <linearGradient id="linearGradient3774" x1="20.759" x2="20.759" y1="1" y2="45.017" gradientTransform="matrix(1.1077 -.63953 .63953 1.1077 6.6738 147.75)" gradientUnits="userSpaceOnUse" xlink:href="#linearGradient3309"/>
  <linearGradient id="linearGradient4615" x1="20.759" x2="20.759" y1="1" y2="45.017" gradientTransform="matrix(.83721 0 0 .83721 107.91 38.744)" gradientUnits="userSpaceOnUse" xlink:href="#linearGradient3309"/>
  <linearGradient id="linearGradient4617" x1="48.234" x2="126.14" y1="48.047" y2="66.233" gradientUnits="userSpaceOnUse" xlink:href="#linearGradient4071-3"/>
  <linearGradient id="linearGradient4619" x1="48.055" x2="126.67" y1="48.032" y2="62.839" gradientUnits="userSpaceOnUse" xlink:href="#linearGradient4071-3"/>
  <linearGradient id="linearGradient4621" x1="47.997" x2="127.05" y1="48.029" y2="60.29" gradientUnits="userSpaceOnUse" xlink:href="#linearGradient4071-3"/>
  <linearGradient id="linearGradient4623" x1="47.998" x2="127.42" y1="48.029" y2="57.665" gradientUnits="userSpaceOnUse" xlink:href="#linearGradient4071-3"/>
  <linearGradient id="linearGradient4625" x1="48.234" x2="126.14" y1="48.047" y2="66.233" gradientUnits="userSpaceOnUse" xlink:href="#linearGradient3737"/>
  <linearGradient id="linearGradient4627" x1="48.055" x2="126.67" y1="48.032" y2="62.839" gradientUnits="userSpaceOnUse" xlink:href="#linearGradient3737"/>
  <linearGradient id="linearGradient4629" x1="47.997" x2="127.05" y1="48.029" y2="60.29" gradientUnits="userSpaceOnUse" xlink:href="#linearGradient3737"/>
  <linearGradient id="linearGradient4631" x1="47.998" x2="127.42" y1="48.029" y2="57.665" gradientUnits="userSpaceOnUse" xlink:href="#linearGradient3737"/>
 </defs>
 <metadata id="metadata2413">
  <rdf:RDF>
   <cc:Work rdf:about="">
    <dc:format>image/svg+xml</dc:format>
    <dc:type rdf:resource="http://purl.org/dc/dcmitype/StillImage"/>
    <dc:title/>
   </cc:Work>
  </rdf:RDF>
 </metadata>
 <g id="layer2" display="none">
  <path id="rect3745" d="m11 7 37-2 37 2c3.324 0 6 2.676 6 6v73c0 3.324-2.676 6-6 6h-74c-3.324 0-6-2.676-6-6v-73c0-3.324 2.676-6 6-6z" fill="url(#ButtonShadow)" filter="url(#filter3174)" opacity=".9"/>
 </g>
 <g id="layer3">
  <path id="path3786" transform="scale(1,-1)" d="m12-95.021c-5.5111 0-10.021 4.5104-10.021 10.021v71c0 5.5111 4.5104 10.021 10.021 10.021h72c5.5111 0 10.021-4.5104 10.021-10.021v-71c0-5.5111-4.5104-10.021-10.021-10.021z" fill="url(#linearGradient3780)" opacity=".08"/>
  <path id="path3778" transform="scale(1,-1)" d="m12-94.035c-4.9716 0-9.0352 4.0635-9.0352 9.0352v71c0 4.9716 4.0635 9.0352 9.0352 9.0352h72c4.9716 0 9.0352-4.0635 9.0352-9.0352v-71c0-4.9716-4.0635-9.0352-9.0352-9.0352z" fill="url(#linearGradient3780)" opacity=".1"/>
  <path id="path3770" transform="scale(1,-1)" d="m12-92.99c-4.4091 0-7.9902 3.5811-7.9902 7.9902v71c0 4.4091 3.5811 7.9902 7.9902 7.9902h72c4.4091 0 7.9902-3.5811 7.9902-7.9902v-71c0-4.4091-3.5811-7.9902-7.9902-7.9902z" fill="url(#linearGradient3780)" opacity=".2"/>
  <rect id="rect3723" transform="scale(1,-1)" x="5" y="-92" width="86" height="85" rx="7" ry="7" fill="url(#linearGradient3780)" opacity=".3"/>
  <rect id="rect3716" transform="scale(1,-1)" x="6" y="-91" width="84" height="84" rx="6" ry="6" fill="url(#linearGradient3721)" opacity=".45"/>
 </g>
 <g id="layer1">
  <path id="rect5138" d="m6 36v48c0 1.7818 0.77457 3.3717 2 4.4688v-52.469z" fill="url(#linearGradient4376)"/>
  <rect id="rect2419" x="6" y="6" width="84" height="84" rx="6" ry="6" fill="url(#linearGradient3706)"/>
  <path id="path3287" d="m6 36v2c0 3.324 2.676 6 6 6h72c3.324 0 6-2.676 6-6v-2c0 3.324-2.676 6-6 6h-72c-3.324 0-6-2.676-6-6z" fill="url(#radialGradient4432)"/>
  <path id="path4396" d="m90 36v48c0 1.7818-0.77457 3.3717-2 4.4688v-52.469z" fill="url(#linearGradient4400)"/>
  <rect id="rect2483" x="6" y="18" width="84" height="24" rx="6" ry="6" fill="#3c2510"/>
  <path id="path4398" d="m88 36v52.469c-0.57686 0.51642-1.2549 0.92309-2 1.1875v-53.656z" fill="url(#linearGradient4402)" opacity=".3"/>
  <path id="path4378" d="m8 36v52.469c0.57686 0.51642 1.2549 0.92309 2 1.1875v-53.656z" fill="url(#linearGradient4394)" opacity=".3"/>
  <path id="path5055" d="m12 6c-3.2266 0-6 2.2593-6 7v22.656l42 0.03442v-29.691h-34z" fill="url(#linearGradient5100)"/>
  <rect id="rect4356" transform="matrix(1 0 0 .8556 10 8.5841)" x="12.753" y="41.957" width="47.856" height="34.977" rx="6" ry="6" fill="#dac7a8" filter="url(#filter4362)" opacity=".3"/>
  <path id="rect2481" d="m12 6c-3.324 0-6 2.676-6 6v24c0 3.324 2.676 6 6 6l36-2v-36z" fill="url(#linearGradient2489)"/>
  <path id="path3262" d="m84 6c3.324 0 6 2.676 6 6v24c0 3.324-2.676 6-6 6l-36-2v-36z" fill="url(#linearGradient3264)"/>
  <path id="rect3266" d="m12 6c-3.324 0-6 2.676-6 6v24c0 3.324 2.676 6 6 6l36-2 36 2c3.324 0 6-2.676 6-6v-24c0-3.324-2.676-6-6-6l-36-2zm0 2 36-2 36 2c2.2458 0 4 1.7542 4 4v24c0 2.2458-1.7542 4-4 4l-36-2-36 2c-2.2458 0-4-1.7542-4-4v-24c0-2.2458 1.7542-4 4-4z" fill="url(#linearGradient3285)" opacity=".3"/>
  <path id="path4404" d="m6.1872 37.285c2.3991 5.5558 1.894 16.036 1.894 16.036l1.8309-0.25254c-0.25254-8.2075 0.44194-11.238 4.9876-11.364-7.169-1.1948-8.7126-4.4194-8.7126-4.4194z" fill="url(#linearGradient4420)" fill-rule="evenodd"/>
  <path id="path4422" d="m89.9 37.285c-2.3991 5.5558-1.894 16.036-1.894 16.036l-1.8309-0.25254c0.25254-8.2075-0.44194-11.238-4.9876-11.364 7.169-1.1948 8.7126-4.4194 8.7126-4.4194z" fill="url(#linearGradient4424)" fill-rule="evenodd"/>
  <path id="path3615" d="m12 90c-3.324 0-6-2.676-6-6v-70-2c0-0.33472 0.04135-0.6507 0.09375-0.96875 0.038404-0.35681 0.14639-0.66281 0.21875-0.96875 0.098865-0.28777 0.23488-0.54745 0.375-0.8125 0.14459-0.27351 0.31562-0.53562 0.5-0.78125s0.37378-0.47347 0.59375-0.6875c0.43995-0.42806 0.94291-0.81453 1.5-1.0938 0.27854-0.13961 0.57347-0.24695 0.875-0.34375-0.26755 0.11773-0.53366 0.26477-0.75 0.375-0.15382 0.094255-0.30651 0.21893-0.4375 0.3125-0.10617 0.0808-0.21328 0.16111-0.3125 0.25-0.17793 0.16143-0.34746 0.34539-0.5 0.53125-0.17273 0.16418-0.25452 0.36057-0.375 0.53125-0.064763 0.10303-0.13023 0.20452-0.1875 0.3125-0.12537 0.23666-0.21459 0.47209-0.3125 0.6875-0.037232 0.20774-0.10711 0.40701-0.15625 0.59375-0.072879 0.34151-0.125 0.6982-0.125 1.0625v2 70c0 2.7818 2.2182 5 5 5h72c2.7818 0 5-2.2182 5-5v-70-2c0-0.3643-0.05212-0.72099-0.125-1.0625-0.0708-0.43126-0.25992-0.8065-0.40625-1.1875-0.15528-0.36052-0.40995-0.64663-0.625-0.9375-0.15883-0.20419-0.34593-0.36755-0.5-0.53125-0.13839-0.12556-0.28509-0.23444-0.4375-0.34375-0.1019-0.10128-0.24953-0.15879-0.34375-0.21875-0.23204-0.13873-0.46255-0.27478-0.71875-0.375 0.30153 0.0968 0.59646 0.20414 0.875 0.34375 0.55709 0.27922 1.0601 0.66569 1.5 1.0938 0.21997 0.21403 0.40937 0.44186 0.59375 0.6875s0.35541 0.50774 0.5 0.78125c0.14012 0.26505 0.27614 0.52473 0.375 0.8125 0.1175 0.31653 0.15967 0.68012 0.21875 0.96875 0.0524 0.31805 0.09375 0.63403 0.09375 0.96875v2 70c0 3.324-2.676 6-6 6z" fill="url(#radialGradient2858)" opacity=".2"/>
  <path id="path5008" d="m54.12 7h-12.12l0.06018 24.062 0.13465 28.938 5.6868-0.49473 6.0439-0.52533 0.03264-5.5512 0.10201-22.367 0.06018-24.062z" fill="#3a240f" opacity=".5"/>
  <path id="path3926" d="m42 5.1191 0.0918 0.00391c-0.11254-0.010242-0.2273-0.010242-0.33984 0a1.0058 1.0058 0 0 0-0.07422 0.00977c-0.87992 0.14789-1.5844 1.0046-1.5586 1.8965l0.0625 24.035a1.0058 1.0058 0 0 0 0 2e-3l0.125 28.938a1.0058 1.0058 0 0 0 0 0.01367c0.01767 1.0217 1.0133 1.9178 2.0312 1.8281l5.6875-0.5 6.0312-0.5293c0.9286-0.05322 1.7436-0.89818 1.7617-1.8281a1.0058 1.0058 0 0 0 0-0.01367l0.03125-5.5312a1.0058 1.0058 0 0 0 0-2e-3l0.09375-22.375a1.0058 1.0058 0 0 0 0-2e-3l0.0625-24.049c0.01517-0.99674-0.89974-1.9117-1.8965-1.8965z" fill="url(#linearGradient3934)" opacity=".1"/>
  <path id="path3922" d="m42 6.1387a0.86198 0.86198 0 0 0-0.86133 0.86328l0.0625 24.062a0.86198 0.86198 0 0 0 0 2e-3l0.125 28.938a0.86198 0.86198 0 0 0 0.9375 0.85547l5.6875-0.5 6.0625-0.53125a0.86198 0.86198 0 0 0 0.78516-0.85547l0.03125-5.5312 0.09375-22.375a0.86198 0.86198 0 0 0 0-2e-3l0.0625-24.062a0.86198 0.86198 0 0 0-0.86133-0.86328z" fill="url(#linearGradient3942)" opacity=".2"/>
  <path id="polygon120" d="m54.06 4.3687-6.0602-0.44194-6.0602 0.44194 0.06018 25.694 0.13465 28.938 5.6868-0.49473 6.0439-0.52533 0.03264-5.5512 0.10201-22.367 0.06018-25.694z" fill="url(#linearGradient3277-5)"/>
  <rect id="rect4363" x="47" y="4.125" width="1" height="35.714" fill="#8d6137" opacity=".2"/>
  <rect id="rect4365" x="48" y="4.125" width="1" height="35.714" fill="#fff" opacity=".2"/>
 </g>
 <g id="layer5">
  <g id="g3745" transform="translate(0,-2)">
   <rect id="rect3739" x="15.5" y="49.5" width="14" height="19" rx="1.8667" ry="2" fill="none" stroke="#825023"/>
   <path id="path3741" d="m18.25 66v-9.25h-1.25l2.5-4.75 2.5 4.75h-1.25v9.25z" fill="#825023"/>
   <path id="path3743" d="m24.25 66v-9.25h-1.25l2.5-4.75 2.5 4.75h-1.25v9.25z" fill="#825023"/>
  </g>
  <g id="text3750" fill="#553417">
   <path id="path3137" d="m15.148 74.082h1.0937v0.30762h-0.64941v0.25h0.55469v0.28906h-0.55469v0.58496h-0.44434v-1.4316"/>
   <path id="path3139" d="m17.176 75.278h-0.50391l-0.06934 0.23633h-0.45215l0.53809-1.4316h0.48242l0.53809 1.4316h-0.46289l-0.07031-0.23633m-0.09277-0.30957-0.1582-0.51465-0.15723 0.51465h0.31543"/>
   <path id="path3141" d="m17.849 74.082h1.1855v0.30566h-0.74219v0.22754h0.68848v0.29199h-0.68848v0.28223h0.76367v0.32422h-1.207v-1.4316"/>
   <path id="path3143" d="m19.298 74.082h0.41308l0.53906 0.79199v-0.79199h0.41699v1.4316h-0.41699l-0.53613-0.78613v0.78613h-0.41602v-1.4316"/>
   <path id="path3145" d="m20.927 74.082h1.252v0.28613l-0.80273 0.83789h0.83203v0.30762h-1.3584v-0.29688l0.79395-0.8291h-0.7168v-0.30566"/>
   <path id="path3147" d="m23.289 75.278h-0.50391l-0.06934 0.23633h-0.45215l0.53809-1.4316h0.48242l0.53809 1.4316h-0.46289l-0.07031-0.23633m-0.09277-0.30957-0.1582-0.51465-0.15723 0.51465h0.31543"/>
  </g>
  <g id="text3754" fill="#553417">
   <path id="path3037" d="m15.11 81.514v-1.0737h0.14209v0.53247l0.5332-0.53247h0.19263l-0.45044 0.43506 0.47022 0.63867h-0.1875l-0.38232-0.54346-0.17578 0.17139v0.37207h-0.14209"/>
   <path id="path3039" d="m16.633 81.263 0.13623 0.01685c-0.02149 0.07959-0.06128 0.14136-0.11938 0.1853-0.05811 0.04395-0.13232 0.06592-0.22266 0.06592-0.11377 0-0.2041-0.03491-0.271-0.10474-0.06641-0.07031-0.09961-0.1687-0.09961-0.29517 0-0.13086 0.03369-0.23242 0.10107-0.30469 0.06738-0.07226 0.15478-0.1084 0.26221-0.1084 0.104 1e-6 0.18896 0.0354 0.25488 0.1062 0.06592 0.0708 0.09888 0.17041 0.09888 0.29883-1e-6 0.0078-2.45e-4 0.01953-7.33e-4 0.03516h-0.58008c0.0049 0.08545 0.02905 0.15088 0.07251 0.19629s0.09766 0.06812 0.1626 0.06812c0.04834 0 0.0896-0.0127 0.12378-0.03809 0.03418-0.02539 0.06128-0.06592 0.0813-0.12158m-0.43286-0.21314h0.43433c-0.0059-0.06543-0.02246-0.1145-0.0498-0.14722-0.04199-0.05078-0.09644-0.07617-0.16333-0.07617-0.06055 1e-6 -0.11157 0.02026-0.15308 0.06079-0.04102 0.04053-0.06372 0.09473-0.06812 0.1626"/>
   <path id="path3041" d="m17.468 81.263 0.13623 0.01685c-0.02149 0.07959-0.06128 0.14136-0.11938 0.1853-0.05811 0.04395-0.13232 0.06592-0.22266 0.06592-0.11377 0-0.2041-0.03491-0.271-0.10474-0.06641-0.07031-0.09961-0.1687-0.09961-0.29517 0-0.13086 0.03369-0.23242 0.10107-0.30469 0.06738-0.07226 0.15478-0.1084 0.26221-0.1084 0.104 1e-6 0.18896 0.0354 0.25488 0.1062 0.06592 0.0708 0.09888 0.17041 0.09888 0.29883-1e-6 0.0078-2.45e-4 0.01953-7.33e-4 0.03516h-0.58008c0.0049 0.08545 0.02905 0.15088 0.07251 0.19629s0.09766 0.06812 0.1626 0.06812c0.04834 0 0.0896-0.0127 0.12378-0.03809 0.03418-0.02539 0.06128-0.06592 0.0813-0.12158m-0.43286-0.21314h0.43433c-0.0059-0.06543-0.02246-0.1145-0.0498-0.14722-0.04199-0.05078-0.09644-0.07617-0.16333-0.07617-0.06055 1e-6 -0.11157 0.02026-0.15308 0.06079-0.04102 0.04053-0.06372 0.09473-0.06812 0.1626"/>
   <path id="path3043" d="m17.771 81.812v-1.0759h0.12012v0.10107c0.02832-0.03955 0.0603-0.06909 0.09595-0.08862 0.03564-0.02002 0.07886-0.03003 0.12964-0.03003 0.06641 1e-6 0.125 0.01709 0.17578 0.05127 0.05078 0.03418 0.08911 0.08252 0.11499 0.14502 0.02588 0.06201 0.03882 0.13013 0.03882 0.20435-1e-6 0.07959-0.01441 0.15137-0.04321 0.21533-0.02832 0.06348-0.06983 0.1123-0.12451 0.14648-0.0542 0.03369-0.11133 0.05054-0.17139 0.05054-0.04395 0-0.0835-0.0093-0.11865-0.02783-0.03467-0.01855-0.06323-0.04199-0.08569-0.07031v0.37866h-0.13184m0.11938-0.68262c0 0.1001 0.02026 0.17407 0.06079 0.22192 0.04053 0.04785 0.0896 0.07178 0.14722 0.07178 0.05859 0 0.10864-0.02466 0.15015-0.07398 0.04199-0.0498 0.06299-0.12671 0.06299-0.23071 0-0.09912-0.02051-0.17334-0.06152-0.22266-0.04053-0.04932-0.08911-0.07397-0.14575-0.07398-0.05615 1e-6 -0.10596 0.02637-0.14941 0.0791-0.04297 0.05225-0.06445 0.12842-0.06445 0.22852"/>
   <path id="path3045" d="m19.022 80.592v-0.15161h0.13184v0.15161h-0.13184m0 0.92212v-0.77783h0.13184v0.77783h-0.13184"/>
   <path id="path3047" d="m19.356 81.514v-0.77783h0.11865v0.1106c0.05713-0.08545 0.13965-0.12817 0.24756-0.12817 0.04687 1e-6 0.08984 0.0085 0.12891 0.02564 0.03955 0.0166 0.06909 0.03857 0.08862 0.06592 0.01953 0.02734 0.0332 0.05982 0.04102 0.09741 0.0049 0.02441 0.0073 0.06714 0.0073 0.12817v0.47827h-0.13184v-0.47314c-1e-6 -0.05371-0.0051-0.09375-0.01538-0.12012-0.01025-0.02685-0.02857-0.0481-0.05493-0.06372-0.02588-0.01611-0.0564-0.02417-0.09155-0.02417-0.05615 0-0.10474 0.01782-0.14575 0.05347-0.04053 0.03565-0.06079 0.10327-0.06079 0.20288v0.4248h-0.13184"/>
   <path id="path3049" d="m21.114 81.418c-0.04883 0.0415-0.09595 0.0708-0.14136 0.08789-0.04492 0.01709-0.09326 0.02563-0.14502 0.02563-0.08545 0-0.15112-0.02075-0.19702-0.06226-0.0459-0.04199-0.06885-0.09546-0.06885-0.1604 0-0.03809 0.0085-0.07275 0.02563-0.104 0.01758-0.03174 0.04028-0.05713 0.06812-0.07617 0.02832-0.01904 0.06006-0.03345 0.09521-0.04321 0.02588-0.0068 0.06494-0.01343 0.11719-0.01977 0.10644-0.0127 0.18481-0.02783 0.23511-0.04541 4.88e-4 -0.01807 7.32e-4 -0.02954 7.33e-4 -0.03442-1e-6 -0.05371-0.01245-0.09155-0.03735-0.11352-0.03369-0.02979-0.08374-0.04468-0.15015-0.04468-0.06201 1e-6 -0.10791 0.01099-0.1377 0.03296-0.0293 0.02148-0.05103 0.05982-0.06519 0.11499l-0.12891-0.01758c0.01172-0.05517 0.03101-0.09961 0.05786-0.1333 0.02686-0.03418 0.06567-0.0603 0.11646-0.07837 0.05078-0.01855 0.10962-0.02783 0.17651-0.02783 0.06641 1e-6 0.12036 0.0078 0.16186 0.02344 0.0415 0.01563 0.07202 0.0354 0.09155 0.05933 0.01953 0.02344 0.0332 0.05322 0.04102 0.08935 0.0044 0.02246 0.0066 0.06299 0.0066 0.12158v0.17578c0 0.12256 0.0027 0.2002 0.0081 0.23291 0.0059 0.03223 0.01709 0.06323 0.03369 0.09302h-0.1377c-0.01367-0.02734-0.02246-0.05933-0.02637-0.09595m-0.01099-0.29443c-0.04785 0.01953-0.11963 0.03613-0.21533 0.04981-0.0542 0.0078-0.09253 0.0166-0.11499 0.02637-0.02246 0.0098-0.0398 0.02417-0.052 0.04321-0.01221 0.01855-0.01831 0.03931-0.01831 0.06226 0 0.03516 0.01318 0.06445 0.03955 0.08789 0.02686 0.02344 0.06592 0.03516 0.11719 0.03516 0.05078 0 0.09595-0.01099 0.1355-0.03296 0.03955-0.02246 0.0686-0.05298 0.08716-0.09155 0.01416-0.02978 0.02124-0.07373 0.02124-0.13184v-0.04834"/>
   <path id="path3051" d="m21.805 81.282 0.13037-0.02051c0.0073 0.05225 0.02759 0.09229 0.06079 0.12012 0.03369 0.02783 0.08057 0.04175 0.14062 0.04175 0.06055 0 0.10547-0.01221 0.13476-0.03662 0.0293-0.0249 0.04395-0.05395 0.04395-0.08716-1e-6 -0.02979-0.01294-0.05322-0.03882-0.07031-0.01807-0.01172-0.06299-0.02661-0.13476-0.04468-0.09668-0.02441-0.16382-0.04541-0.20142-0.06299-0.03711-0.01807-0.06543-0.04272-0.08496-0.07398-0.01904-0.03174-0.02857-0.06665-0.02857-0.10474 0-0.03467 0.0078-0.06665 0.02344-0.09595 0.01611-0.02978 0.03784-0.05444 0.06518-0.07397 0.02051-0.01514 0.04834-0.02783 0.0835-0.03809 0.03564-0.01074 0.07373-0.01611 0.11426-0.01611 0.06104 1e-6 0.1145 0.0088 0.1604 0.02637 0.04639 0.01758 0.08057 0.04151 0.10254 0.07178 0.02197 0.02979 0.03711 0.06982 0.04541 0.12012l-0.12891 0.01758c-0.0059-0.04004-0.02295-0.07129-0.05127-0.09375-0.02783-0.02246-0.06738-0.03369-0.11865-0.03369-0.06055 1e-6 -0.10376 0.01001-0.12964 0.03003-0.02588 0.02002-0.03882 0.04346-0.03882 0.07031 0 0.01709 0.0054 0.03247 0.01611 0.04614 0.01074 0.01416 0.02759 0.02588 0.05054 0.03516 0.01318 0.0049 0.052 0.01611 0.11646 0.03369 0.09326 0.0249 0.1582 0.04541 0.19482 0.06152 0.03711 0.01563 0.06616 0.03858 0.08716 0.06885s0.03149 0.06787 0.03149 0.11279c-1e-6 0.04395-0.01294 0.08545-0.03882 0.12451-0.02539 0.03858-0.06226 0.0686-0.1106 0.09009-0.04834 0.021-0.10303 0.03149-0.16406 0.03149-0.10107 0-0.17822-0.021-0.23144-0.06299-0.05274-0.04199-0.08643-0.10425-0.10107-0.18677"/>
   <path id="path3053" d="m23.115 81.418c-0.04883 0.0415-0.09595 0.0708-0.14136 0.08789-0.04492 0.01709-0.09326 0.02563-0.14502 0.02563-0.08545 0-0.15112-0.02075-0.19702-0.06226-0.0459-0.04199-0.06885-0.09546-0.06885-0.1604 0-0.03809 0.0085-0.07275 0.02563-0.104 0.01758-0.03174 0.04028-0.05713 0.06812-0.07617 0.02832-0.01904 0.06006-0.03345 0.09521-0.04321 0.02588-0.0068 0.06494-0.01343 0.11719-0.01977 0.10644-0.0127 0.18481-0.02783 0.23511-0.04541 4.88e-4 -0.01807 7.32e-4 -0.02954 7.32e-4 -0.03442 0-0.05371-0.01245-0.09155-0.03735-0.11352-0.03369-0.02979-0.08374-0.04468-0.15015-0.04468-0.06201 1e-6 -0.10791 0.01099-0.1377 0.03296-0.0293 0.02148-0.05102 0.05982-0.06518 0.11499l-0.12891-0.01758c0.01172-0.05517 0.03101-0.09961 0.05786-0.1333 0.02686-0.03418 0.06567-0.0603 0.11646-0.07837 0.05078-0.01855 0.10962-0.02783 0.17651-0.02783 0.06641 1e-6 0.12036 0.0078 0.16187 0.02344 0.0415 0.01563 0.07202 0.0354 0.09155 0.05933 0.01953 0.02344 0.0332 0.05322 0.04102 0.08935 0.0044 0.02246 0.0066 0.06299 0.0066 0.12158v0.17578c-1e-6 0.12256 0.0027 0.2002 0.0081 0.23291 0.0059 0.03223 0.01709 0.06323 0.03369 0.09302h-0.1377c-0.01367-0.02734-0.02246-0.05933-0.02637-0.09595m-0.01099-0.29443c-0.04785 0.01953-0.11963 0.03613-0.21533 0.04981-0.0542 0.0078-0.09253 0.0166-0.11499 0.02637-0.02246 0.0098-0.03979 0.02417-0.052 0.04321-0.01221 0.01855-0.01831 0.03931-0.01831 0.06226 0 0.03516 0.01318 0.06445 0.03955 0.08789 0.02686 0.02344 0.06592 0.03516 0.11719 0.03516 0.05078 0 0.09595-0.01099 0.1355-0.03296 0.03955-0.02246 0.0686-0.05298 0.08716-0.09155 0.01416-0.02978 0.02124-0.07373 0.02124-0.13184v-0.04834"/>
   <path id="path3055" d="m23.474 81.514v-0.67529h-0.11646v-0.10254h0.11646v-0.08276c0-0.05224 0.0046-0.09106 0.01392-0.11646 0.0127-0.03418 0.03491-0.06177 0.06665-0.08276 0.03223-0.02148 0.07715-0.03223 0.13477-0.03223 0.03711 1e-6 0.07813 0.0044 0.12305 0.01318l-0.01977 0.11499c-0.02735-0.0049-0.05322-0.0073-0.07764-0.0073-0.04004 1e-6 -0.06836 0.0085-0.08496 0.02564-0.0166 0.01709-0.0249 0.04907-0.0249 0.09595v0.07178h0.15161v0.10254h-0.15161v0.67529h-0.1311"/>
   <path id="path3057" d="m24.391 81.263 0.13623 0.01685c-0.02148 0.07959-0.06128 0.14136-0.11938 0.1853-0.05811 0.04395-0.13232 0.06592-0.22266 0.06592-0.11377 0-0.2041-0.03491-0.271-0.10474-0.06641-0.07031-0.09961-0.1687-0.09961-0.29517 0-0.13086 0.03369-0.23242 0.10107-0.30469 0.06738-0.07226 0.15478-0.1084 0.26221-0.1084 0.104 1e-6 0.18896 0.0354 0.25488 0.1062 0.06592 0.0708 0.09888 0.17041 0.09888 0.29883 0 0.0078-2.45e-4 0.01953-7.32e-4 0.03516h-0.58008c0.0049 0.08545 0.02905 0.15088 0.07251 0.19629s0.09766 0.06812 0.1626 0.06812c0.04834 0 0.0896-0.0127 0.12378-0.03809 0.03418-0.02539 0.06128-0.06592 0.0813-0.12158m-0.43286-0.21314h0.43433c-0.0059-0.06543-0.02246-0.1145-0.0498-0.14722-0.04199-0.05078-0.09644-0.07617-0.16333-0.07617-0.06055 1e-6 -0.11157 0.02026-0.15308 0.06079-0.04102 0.04053-0.06372 0.09473-0.06811 0.1626"/>
   <path id="path3059" d="m25.11 81.812v-1.0759h0.12012v0.10107c0.02832-0.03955 0.0603-0.06909 0.09595-0.08862 0.03564-0.02002 0.07886-0.03003 0.12964-0.03003 0.06641 1e-6 0.125 0.01709 0.17578 0.05127 0.05078 0.03418 0.08911 0.08252 0.11499 0.14502 0.02588 0.06201 0.03882 0.13013 0.03882 0.20435-1e-6 0.07959-0.01441 0.15137-0.04321 0.21533-0.02832 0.06348-0.06983 0.1123-0.12451 0.14648-0.0542 0.03369-0.11133 0.05054-0.17139 0.05054-0.04395 0-0.0835-0.0093-0.11865-0.02783-0.03467-0.01855-0.06323-0.04199-0.08569-0.07031v0.37866h-0.13184m0.11938-0.68262c0 0.1001 0.02026 0.17407 0.06079 0.22192 0.04053 0.04785 0.0896 0.07178 0.14722 0.07178 0.05859 0 0.10864-0.02466 0.15015-0.07398 0.04199-0.0498 0.06299-0.12671 0.06299-0.23071 0-0.09912-0.02051-0.17334-0.06152-0.22266-0.04053-0.04932-0.08911-0.07397-0.14575-0.07398-0.05615 1e-6 -0.10596 0.02637-0.14941 0.0791-0.04297 0.05225-0.06445 0.12842-0.06445 0.22852"/>
   <path id="path3061" d="m25.942 81.514v-1.0737h0.13184v1.0737h-0.13184"/>
   <path id="path3063" d="m26.786 81.418c-0.04883 0.0415-0.09595 0.0708-0.14136 0.08789-0.04492 0.01709-0.09326 0.02563-0.14502 0.02563-0.08545 0-0.15112-0.02075-0.19702-0.06226-0.0459-0.04199-0.06885-0.09546-0.06885-0.1604 0-0.03809 0.0085-0.07275 0.02563-0.104 0.01758-0.03174 0.04028-0.05713 0.06812-0.07617 0.02832-0.01904 0.06006-0.03345 0.09521-0.04321 0.02588-0.0068 0.06494-0.01343 0.11719-0.01977 0.10644-0.0127 0.18481-0.02783 0.23511-0.04541 4.88e-4 -0.01807 7.32e-4 -0.02954 7.33e-4 -0.03442-1e-6 -0.05371-0.01245-0.09155-0.03735-0.11352-0.03369-0.02979-0.08374-0.04468-0.15015-0.04468-0.06201 1e-6 -0.10791 0.01099-0.1377 0.03296-0.0293 0.02148-0.05103 0.05982-0.06519 0.11499l-0.12891-0.01758c0.01172-0.05517 0.03101-0.09961 0.05786-0.1333 0.02686-0.03418 0.06567-0.0603 0.11646-0.07837 0.05078-0.01855 0.10962-0.02783 0.17651-0.02783 0.06641 1e-6 0.12036 0.0078 0.16186 0.02344 0.0415 0.01563 0.07202 0.0354 0.09155 0.05933 0.01953 0.02344 0.0332 0.05322 0.04102 0.08935 0.0044 0.02246 0.0066 0.06299 0.0066 0.12158v0.17578c0 0.12256 0.0027 0.2002 0.0081 0.23291 0.0059 0.03223 0.01709 0.06323 0.03369 0.09302h-0.1377c-0.01367-0.02734-0.02246-0.05933-0.02637-0.09595m-0.01099-0.29443c-0.04785 0.01953-0.11963 0.03613-0.21533 0.04981-0.0542 0.0078-0.09253 0.0166-0.11499 0.02637-0.02246 0.0098-0.0398 0.02417-0.052 0.04321-0.01221 0.01855-0.01831 0.03931-0.01831 0.06226 0 0.03516 0.01318 0.06445 0.03955 0.08789 0.02686 0.02344 0.06592 0.03516 0.11719 0.03516 0.05078 0 0.09595-0.01099 0.1355-0.03296 0.03955-0.02246 0.0686-0.05298 0.08716-0.09155 0.01416-0.02978 0.02124-0.07373 0.02124-0.13184v-0.04834"/>
   <path id="path3065" d="m27.621 81.229 0.12964 0.01685c-0.01416 0.08936-0.05054 0.15942-0.10913 0.2102-0.05811 0.05029-0.12964 0.07544-0.2146 0.07544-0.10645 0-0.19214-0.03467-0.25708-0.104-0.06445-0.06982-0.09668-0.16968-0.09668-0.29956 0-0.08398 0.01392-0.15747 0.04175-0.22046 0.02783-0.06299 0.07007-0.11011 0.12671-0.14136 0.05713-0.03174 0.11914-0.04761 0.18604-0.04761 0.08447 1e-6 0.15356 0.02149 0.20728 0.06445 0.05371 0.04248 0.08813 0.10303 0.10327 0.18164l-0.12817 0.01978c-0.01221-0.05224-0.03394-0.09155-0.06518-0.11792-0.03076-0.02637-0.06812-0.03955-0.11206-0.03955-0.06641 1e-6 -0.12036 0.02393-0.16186 0.07178-0.0415 0.04736-0.06226 0.12256-0.06226 0.22559 0 0.10449 0.02002 0.18042 0.06006 0.22778 0.04004 0.04736 0.09229 0.07104 0.15674 0.07104 0.05176 0 0.09497-0.01587 0.12964-0.04761 0.03467-0.03174 0.05664-0.08057 0.06592-0.14648"/>
   <path id="path3067" d="m28.396 81.263 0.13623 0.01685c-0.02149 0.07959-0.06128 0.14136-0.11938 0.1853-0.05811 0.04395-0.13232 0.06592-0.22266 0.06592-0.11377 0-0.2041-0.03491-0.271-0.10474-0.06641-0.07031-0.09961-0.1687-0.09961-0.29517 0-0.13086 0.03369-0.23242 0.10107-0.30469 0.06738-0.07226 0.15478-0.1084 0.26221-0.1084 0.104 1e-6 0.18896 0.0354 0.25488 0.1062 0.06592 0.0708 0.09888 0.17041 0.09888 0.29883-1e-6 0.0078-2.45e-4 0.01953-7.32e-4 0.03516h-0.58008c0.0049 0.08545 0.02905 0.15088 0.07251 0.19629s0.09766 0.06812 0.1626 0.06812c0.04834 0 0.0896-0.0127 0.12378-0.03809 0.03418-0.02539 0.06128-0.06592 0.0813-0.12158m-0.43286-0.21314h0.43433c-0.0059-0.06543-0.02246-0.1145-0.0498-0.14722-0.04199-0.05078-0.09644-0.07617-0.16333-0.07617-0.06055 1e-6 -0.11157 0.02026-0.15308 0.06079-0.04102 0.04053-0.06372 0.09473-0.06811 0.1626"/>
   <path id="path3069" d="m16.077 83.389h-0.23584l-0.09375-0.2439h-0.4292l-0.08862 0.2439h-0.22998l0.41821-1.0737h0.22925l0.42993 1.0737m-0.39917-0.4248-0.14795-0.39844-0.14502 0.39844h0.29297" fill="#553417"/>
   <path id="path3071" d="m16.905 83.389h-0.19116v-0.11426c-0.03174 0.04443-0.06934 0.07764-0.11279 0.09961-0.04297 0.02148-0.08643 0.03223-0.13037 0.03223-0.08936 0-0.16602-0.03589-0.22998-0.10767-0.06348-0.07227-0.09521-0.17285-0.09521-0.30176 0-0.13184 0.03101-0.23193 0.09302-0.30029 0.06201-0.06885 0.14038-0.10327 0.23511-0.10327 0.08691 1e-6 0.16211 0.03613 0.22559 0.1084v-0.38672h0.20581v1.0737m-0.54932-0.40576c0 0.08301 0.01147 0.14307 0.03442 0.18018 0.0332 0.05371 0.07959 0.08057 0.13916 0.08057 0.04736 0 0.08765-0.02002 0.12085-0.06006 0.0332-0.04053 0.0498-0.10083 0.0498-0.18091 0-0.08935-0.01611-0.15356-0.04834-0.19263-0.03223-0.03955-0.07349-0.05933-0.12378-0.05933-0.04883 0-0.08984 0.01953-0.12305 0.05859-0.03271 0.03858-0.04907 0.09644-0.04907 0.17358" fill="#553417"/>
   <path id="path3073" d="m17.093 82.611h0.1897v0.1062c0.06787-0.08252 0.14868-0.12378 0.24243-0.12378 0.0498 1e-6 0.09302 0.01026 0.12964 0.03076 0.03662 0.02051 0.06665 0.05151 0.09009 0.09302 0.03418-0.0415 0.07104-0.07251 0.1106-0.09302 0.03955-0.02051 0.08179-0.03076 0.12671-0.03076 0.05713 1e-6 0.10547 0.01172 0.14502 0.03516 0.03955 0.02295 0.06909 0.05689 0.08862 0.10181 0.01416 0.0332 0.02124 0.08691 0.02124 0.16113v0.49731h-0.20581v-0.44458c-1e-6 -0.07715-0.0071-0.12695-0.02124-0.14941-0.01904-0.0293-0.04834-0.04395-0.08789-0.04395-0.02881 0-0.05591 0.0088-0.0813 0.02637-0.02539 0.01758-0.0437 0.04346-0.05493 0.07764-0.01123 0.03369-0.01685 0.08716-0.01685 0.1604v0.37354h-0.20581v-0.42627c-1e-6 -0.07568-0.0037-0.12451-0.01099-0.14648-0.0073-0.02197-0.0188-0.03833-0.03442-0.04907-0.01514-0.01074-0.03589-0.01611-0.06226-0.01611-0.03174 0-0.0603 0.0085-0.08569 0.02563-0.02539 0.01709-0.0437 0.04175-0.05493 0.07397-0.01074 0.03223-0.01611 0.08569-0.01611 0.1604v0.37793h-0.20581v-0.77783" fill="#553417"/>
   <path id="path3075" d="m18.442 82.506v-0.19043h0.20581v0.19043h-0.20581m0 0.8833v-0.77783h0.20581v0.77783h-0.20581" fill="#553417"/>
   <path id="path3077" d="m19.565 83.389h-0.20581v-0.39697c-1e-6 -0.08398-0.0044-0.13818-0.01318-0.1626-0.0088-0.0249-0.02319-0.04419-0.04321-0.05786-0.01953-0.01367-0.04321-0.02051-0.07105-0.02051-0.03564 0-0.06763 0.0098-0.09595 0.0293-0.02832 0.01953-0.04785 0.04541-0.05859 0.07764-0.01026 0.03223-0.01538 0.0918-0.01538 0.17871v0.3523h-0.20581v-0.77783h0.19116v0.11426c0.06787-0.08789 0.15332-0.13184 0.25635-0.13184 0.04541 1e-6 0.08691 0.0083 0.12451 0.0249 0.0376 0.01611 0.06592 0.03687 0.08496 0.06226 0.01953 0.02539 0.03296 0.0542 0.04028 0.08643 0.0078 0.03223 0.01172 0.07837 0.01172 0.13843v0.4834" fill="#553417"/>
   <path id="path3079" d="m19.775 82.506v-0.19043h0.20581v0.19043h-0.20581m0 0.8833v-0.77783h0.20581v0.77783h-0.20581" fill="#553417"/>
   <path id="path3081" d="m20.118 83.167 0.20654-0.03149c0.0088 0.04004 0.02661 0.07056 0.05347 0.09155 0.02685 0.02051 0.06445 0.03076 0.11279 0.03076 0.05322 0 0.09326-0.0098 0.12012-0.0293 0.01807-0.01367 0.0271-0.03198 0.0271-0.05493-1e-6 -0.01563-0.0049-0.02856-0.01465-0.03882-0.01025-0.0098-0.0332-0.0188-0.06885-0.0271-0.16602-0.03662-0.27124-0.07007-0.31567-0.10034-0.06152-0.04199-0.09229-0.10034-0.09229-0.17505-1e-6 -0.06738 0.02661-0.12402 0.07983-0.16992 0.05322-0.0459 0.13574-0.06885 0.24756-0.06885 0.10644 1e-6 0.18555 0.01734 0.2373 0.052 0.05176 0.03467 0.0874 0.08594 0.10693 0.15381l-0.19409 0.03589c-0.0083-0.03027-0.02417-0.05347-0.04761-0.06958-0.02295-0.01611-0.05591-0.02417-0.09888-0.02417-0.0542 1e-6 -0.09302 0.0076-0.11646 0.0227-0.01563 0.01074-0.02344 0.02466-0.02344 0.04175-1e-6 0.01465 0.0068 0.0271 0.02051 0.03735 0.01855 0.01367 0.08252 0.03296 0.1919 0.05786 0.10986 0.0249 0.18652 0.05542 0.22998 0.09155 0.04297 0.03662 0.06445 0.08765 0.06445 0.15308-1e-6 0.07129-0.02979 0.13257-0.08936 0.18384-0.05957 0.05127-0.14771 0.0769-0.2644 0.0769-0.10596 0-0.18994-0.02148-0.25195-0.06445-0.06152-0.04297-0.10181-0.10132-0.12085-0.17505" fill="#553417"/>
   <path id="path3083" d="m21.382 82.611v0.16406h-0.14062v0.31348c0 0.06348 0.0012 0.10059 0.0037 0.11133 0.0029 0.01025 9e-3 0.0188 0.01831 0.02563 0.0098 0.0068 0.02148 0.01025 0.03516 0.01025 0.01904 0 0.04663-0.0066 0.08276-0.01977l0.01758 0.15967c-0.04785 0.02051-0.10205 0.03076-0.1626 0.03076-0.03711 0-0.07056-0.0061-0.10034-0.01831-0.02979-0.0127-0.05176-0.02881-0.06592-0.04834-0.01367-0.02002-0.02319-0.04687-0.02856-0.08057-0.0044-0.02393-0.0066-0.07227-0.0066-0.14502v-0.33911h-0.09448v-0.16406h0.09448v-0.15454l0.20654-0.12012v0.27466h0.14062" fill="#553417"/>
   <path id="path3085" d="m21.724 83.389h-0.20581v-0.77783h0.19116v0.1106c0.03271-0.05225 0.06201-0.08667 0.08789-0.10327 0.02637-0.0166 0.05615-0.0249 0.08936-0.0249 0.04687 1e-6 0.09204 0.01294 0.1355 0.03882l-0.06372 0.17944c-0.03467-0.02246-0.06689-0.03369-0.09668-0.03369-0.02881 1e-6 -0.05322 0.0081-0.07324 0.02417-0.02002 0.01563-0.03589 0.04419-0.04761 0.08569-0.01123 0.0415-0.01685 0.12842-0.01685 0.26074v0.24023" fill="#553417"/>
   <path id="path3087" d="m22.263 82.848-0.18677-0.03369c0.021-0.07519 0.05713-0.13086 0.1084-0.16699 0.05127-0.03613 0.12744-0.0542 0.22852-0.0542 0.0918 1e-6 0.16016 0.01099 0.20508 0.03296 0.04492 0.02148 0.07642 0.04907 0.09448 0.08276 0.01855 0.0332 0.02783 0.09448 0.02783 0.18384l-0.0022 0.24023c-1e-6 0.06836 0.0032 0.1189 0.0095 0.15161 0.0068 0.03223 0.01929 0.0669 0.03735 0.104h-0.20361c-0.0054-0.01367-0.01196-0.03393-0.01977-0.06079-0.0034-0.01221-0.0059-0.02026-0.0073-0.02417-0.03516 0.03418-0.07276 0.05982-0.11279 0.0769-0.04004 0.01709-0.08276 0.02563-0.12817 0.02563-0.08008 0-0.14331-0.02173-0.1897-0.06518-0.0459-0.04346-0.06885-0.09839-0.06885-0.1648 0-0.04395 0.0105-0.08301 0.03149-0.11719 0.021-0.03467 0.05029-0.06103 0.08789-0.0791 0.03809-0.01855 0.09277-0.03467 0.16406-0.04834 0.09619-0.01807 0.16284-0.03491 0.19995-0.05054v-0.02051c0-0.03955-0.0098-0.06763-0.0293-0.08423-0.01953-0.01709-0.0564-0.02563-0.1106-0.02563-0.03662 0-0.06519 0.0073-0.08569 0.02197-0.02051 0.01416-0.03711 0.03931-0.0498 0.07544m0.27539 0.16699c-0.02637 0.0088-0.06811 0.01929-0.12524 0.03149-0.05713 0.01221-0.09448 0.02417-0.11206 0.03589-0.02686 0.01904-0.04028 0.04321-0.04028 0.07251 0 0.02881 0.01074 0.05371 0.03223 0.07471 0.02148 0.021 0.04883 0.03149 0.08203 0.03149 0.03711 0 0.07251-0.01221 0.1062-0.03662 0.0249-0.01855 0.04126-0.04126 0.04907-0.06812 0.0054-0.01758 0.0081-0.05102 0.0081-0.10034v-0.04102" fill="#553417"/>
   <path id="path3089" d="m23.301 82.611v0.16406h-0.14062v0.31348c-1e-6 0.06348 0.0012 0.10059 0.0037 0.11133 0.0029 0.01025 9e-3 0.0188 0.01831 0.02563 0.0098 0.0068 0.02148 0.01025 0.03516 0.01025 0.01904 0 0.04663-0.0066 0.08276-0.01977l0.01758 0.15967c-0.04785 0.02051-0.10205 0.03076-0.1626 0.03076-0.03711 0-0.07056-0.0061-0.10034-0.01831-0.02979-0.0127-0.05176-0.02881-0.06592-0.04834-0.01367-0.02002-0.02319-0.04687-0.02857-0.08057-0.0044-0.02393-0.0066-0.07227-0.0066-0.14502v-0.33911h-0.09448v-0.16406h0.09448v-0.15454l0.20654-0.12012v0.27466h0.14062" fill="#553417"/>
   <path id="path3091" d="m23.398 82.989c0-0.06836 0.01685-0.13452 0.05054-0.19849 0.03369-0.06396 0.0813-0.11279 0.14282-0.14648 0.06201-0.03369 0.1311-0.05054 0.20728-0.05054 0.11768 1e-6 0.21411 0.03833 0.28931 0.11499 0.07519 0.07617 0.11279 0.17261 0.11279 0.28931-1e-6 0.11768-0.03809 0.21533-0.11426 0.29297-0.07568 0.07715-0.17114 0.11572-0.28638 0.11572-0.07129 0-0.1394-0.01611-0.20435-0.04834-0.06445-0.03223-0.11352-0.07935-0.14722-0.14136-0.03369-0.0625-0.05054-0.13843-0.05054-0.22778m0.21094 0.01099c-1e-6 0.07715 0.01831 0.13623 0.05493 0.17725 0.03662 0.04102 0.08179 0.06152 0.1355 0.06152 0.05371 0 0.09863-0.02051 0.13477-0.06152 0.03662-0.04102 0.05493-0.10058 0.05493-0.17871-1e-6 -0.07617-0.01831-0.13476-0.05493-0.17578-0.03613-0.04102-0.08105-0.06152-0.13477-0.06152-0.05371 0-0.09888 0.02051-0.1355 0.06152-0.03662 0.04102-0.05493 0.1001-0.05493 0.17725" fill="#553417"/>
   <path id="path3093" d="m24.56 83.389h-0.20581v-0.77783h0.19116v0.1106c0.03271-0.05225 0.06201-0.08667 0.08789-0.10327 0.02637-0.0166 0.05615-0.0249 0.08936-0.0249 0.04687 1e-6 0.09204 0.01294 0.1355 0.03882l-0.06372 0.17944c-0.03467-0.02246-0.0669-0.03369-0.09668-0.03369-0.02881 1e-6 -0.05322 0.0081-0.07324 0.02417-0.02002 0.01563-0.03589 0.04419-0.04761 0.08569-0.01123 0.0415-0.01685 0.12842-0.01685 0.26074v0.24023" fill="#553417"/>
   <path id="path3095" d="m24.873 83.167 0.20654-0.03149c0.0088 0.04004 0.02661 0.07056 0.05347 0.09155 0.02685 0.02051 0.06445 0.03076 0.11279 0.03076 0.05322 0 0.09326-0.0098 0.12012-0.0293 0.01807-0.01367 0.0271-0.03198 0.0271-0.05493 0-0.01563-0.0049-0.02856-0.01465-0.03882-0.01025-0.0098-0.0332-0.0188-0.06885-0.0271-0.16602-0.03662-0.27124-0.07007-0.31567-0.10034-0.06152-0.04199-0.09229-0.10034-0.09229-0.17505 0-0.06738 0.02661-0.12402 0.07983-0.16992 0.05322-0.0459 0.13574-0.06885 0.24756-0.06885 0.10644 1e-6 0.18555 0.01734 0.2373 0.052 0.05176 0.03467 0.0874 0.08594 0.10693 0.15381l-0.19409 0.03589c-0.0083-0.03027-0.02417-0.05347-0.04761-0.06958-0.02295-0.01611-0.05591-0.02417-0.09888-0.02417-0.0542 1e-6 -0.09302 0.0076-0.11646 0.0227-0.01563 0.01074-0.02344 0.02466-0.02344 0.04175 0 0.01465 0.0068 0.0271 0.02051 0.03735 0.01855 0.01367 0.08252 0.03296 0.1919 0.05786 0.10986 0.0249 0.18652 0.05542 0.22998 0.09155 0.04297 0.03662 0.06445 0.08765 0.06445 0.15308 0 0.07129-0.02979 0.13257-0.08936 0.18384-0.05957 0.05127-0.14771 0.0769-0.2644 0.0769-0.10596 0-0.18994-0.02148-0.25195-0.06445-0.06152-0.04297-0.10181-0.10132-0.12085-0.17505" fill="#553417"/>
   <path id="path3097" d="m26.149 82.989c0-0.06836 0.01685-0.13452 0.05054-0.19849 0.03369-0.06396 0.0813-0.11279 0.14282-0.14648 0.06201-0.03369 0.1311-0.05054 0.20728-0.05054 0.11768 1e-6 0.21411 0.03833 0.28931 0.11499 0.0752 0.07617 0.11279 0.17261 0.11279 0.28931-1e-6 0.11768-0.03809 0.21533-0.11426 0.29297-0.07568 0.07715-0.17114 0.11572-0.28638 0.11572-0.07129 0-0.1394-0.01611-0.20434-0.04834-0.06445-0.03223-0.11353-0.07935-0.14722-0.14136-0.03369-0.0625-0.05054-0.13843-0.05054-0.22778m0.21094 0.01099c0 0.07715 0.01831 0.13623 0.05493 0.17725 0.03662 0.04102 0.08179 0.06152 0.1355 0.06152 0.05371 0 0.09863-0.02051 0.13477-0.06152 0.03662-0.04102 0.05493-0.10058 0.05493-0.17871 0-0.07617-0.01831-0.13476-0.05493-0.17578-0.03613-0.04102-0.08106-0.06152-0.13477-0.06152-0.05371 0-0.09888 0.02051-0.1355 0.06152-0.03662 0.04102-0.05493 0.1001-0.05493 0.17725" fill="#553417"/>
   <path id="path3099" d="m27.821 83.389h-0.20581v-0.39697c0-0.08398-0.0044-0.13818-0.01318-0.1626-0.0088-0.0249-0.02319-0.04419-0.04321-0.05786-0.01953-0.01367-0.04321-0.02051-0.07105-0.02051-0.03564 0-0.06763 0.0098-0.09595 0.0293-0.02832 0.01953-0.04785 0.04541-0.05859 0.07764-0.01025 0.03223-0.01538 0.0918-0.01538 0.17871v0.3523h-0.20581v-0.77783h0.19116v0.11426c0.06787-0.08789 0.15332-0.13184 0.25635-0.13184 0.04541 1e-6 0.08691 0.0083 0.12451 0.0249 0.0376 0.01611 0.06592 0.03687 0.08496 0.06226 0.01953 0.02539 0.03296 0.0542 0.04028 0.08643 0.0078 0.03223 0.01172 0.07837 0.01172 0.13843v0.4834" fill="#553417"/>
   <path id="path3101" d="m28.031 83.389v-1.0737h0.20581v1.0737h-0.20581" fill="#553417"/>
   <path id="path3103" d="m28.349 82.611h0.21899l0.18604 0.55225 0.18164-0.55225h0.21314l-0.27466 0.74854-0.04907 0.1355c-0.01807 0.04541-0.0354 0.08008-0.052 0.104-0.01611 0.02393-0.03491 0.04321-0.0564 0.05786-0.021 0.01514-0.04712 0.02685-0.07837 0.03516-0.03076 0.0083-0.06567 0.01245-0.10474 0.01245-0.03955 0-0.07837-0.0042-0.11646-0.01245l-0.01831-0.16113c0.03223 0.0063 0.06128 0.0095 0.08716 0.0095 0.04785 0 0.08325-0.01416 0.1062-0.04248 0.02295-0.02783 0.04053-0.06348 0.05273-0.10693l-0.2959-0.78003" fill="#553417"/>
  </g>
  <g id="text3762" fill="#553417">
   <path id="path3106" d="m15.052 78.159 0.31567-0.01978c0.0068 0.05127 0.02075 0.09033 0.04175 0.11719 0.03418 0.04346 0.08301 0.06518 0.14648 0.06518 0.04736 0 0.08374-0.01099 0.10913-0.03296 0.02588-0.02246 0.03882-0.04834 0.03882-0.07764 0-0.02783-0.01221-0.05273-0.03662-0.07471-0.02441-0.02197-0.08106-0.04272-0.16992-0.06226-0.14551-0.03271-0.24927-0.07617-0.31128-0.13037-0.0625-0.0542-0.09375-0.12329-0.09375-0.20728 0-0.05517 0.01587-0.10718 0.04761-0.15601 0.03223-0.04932 0.08032-0.08789 0.14429-0.11572 0.06445-0.02832 0.15259-0.04248 0.2644-0.04248 0.13721 1e-6 0.2417 0.02564 0.31348 0.0769 0.07226 0.05078 0.11523 0.13184 0.12891 0.24316l-0.31274 0.01831c-0.0083-0.04834-0.02588-0.0835-0.05273-0.10547-0.02637-0.02197-0.06299-0.03296-0.10986-0.03296-0.03857 1e-6 -0.06763 0.0083-0.08716 0.0249-0.01953 0.01611-0.0293 0.03589-0.0293 0.05933 0 0.01709 0.0081 0.03247 0.02417 0.04614 0.01562 0.01416 0.05273 0.02734 0.11133 0.03955 0.14502 0.03125 0.24878 0.06299 0.31128 0.09521 0.06299 0.03174 0.10864 0.07129 0.13696 0.11865 0.02881 0.04736 0.04321 0.10034 0.04321 0.15894-1e-6 0.06885-0.01904 0.13232-0.05713 0.19043-0.03809 0.0581-0.09131 0.1023-0.15967 0.13257-0.06836 0.02978-0.15454 0.04468-0.25854 0.04468-0.18262 0-0.30908-0.03516-0.37939-0.10547-0.07031-0.07031-0.11011-0.15967-0.11938-0.26807"/>
   <path id="path3108" d="m16.137 78.127c0-0.11865 0.04004-0.21631 0.12012-0.29297 0.08008-0.07715 0.18823-0.11572 0.32446-0.11572 0.15576 1e-6 0.27344 0.04517 0.35303 0.1355 0.06396 0.07275 0.09595 0.16235 0.09595 0.2688-1e-6 0.11963-0.0398 0.21777-0.11938 0.29443-0.0791 0.07617-0.18872 0.11426-0.32886 0.11426-0.125 0-0.22608-0.03174-0.30322-0.09521-0.09473-0.07861-0.14209-0.18164-0.14209-0.30908m0.29883-7.32e-4c0 0.06934 0.01392 0.12061 0.04175 0.15381 0.02832 0.0332 0.06372 0.0498 0.1062 0.0498 0.04297 0 0.07812-0.01636 0.10547-0.04907 0.02783-0.03271 0.04175-0.0852 0.04175-0.15747 0-0.06738-0.01392-0.11743-0.04175-0.15015-0.02783-0.0332-0.06226-0.0498-0.10327-0.04981-0.04346 1e-6 -0.07935 0.01685-0.10767 0.05054-0.02832 0.0332-0.04248 0.08398-0.04248 0.15234"/>
   <path id="path3110" d="m17.508 77.736h0.14209v0.21826h-0.14209v0.55957h-0.29883v-0.55957h-0.11133v-0.21826h0.11133v-0.03516c0-0.03174 0.0034-0.06665 0.01025-0.10474 0.0068-0.03809 0.01953-0.06909 0.03809-0.09302 0.01904-0.02441 0.04541-0.04394 0.0791-0.05859 0.03418-0.01514 0.08398-0.0227 0.14941-0.02271 0.05224 1e-6 0.12817 0.0061 0.22778 0.01831l-0.03296 0.18018c-0.03564-0.0059-0.06445-0.0088-0.08643-0.0088-0.02686 1e-6 -0.04614 0.0046-0.05786 0.01392-0.01172 0.0088-0.02002 0.02295-0.0249 0.04248-0.0024 0.01074-0.0037 0.03345-0.0037 0.06811"/>
   <path id="path3112" d="m18.119 77.44v0.2959h0.16406v0.21753h-0.16406v0.27612c0 0.0332 0.0032 0.05518 0.0095 0.06592 0.0098 0.0166 0.02685 0.0249 0.05127 0.0249 0.02197 0 0.05273-0.0063 0.09229-0.01904l0.02197 0.20581c-0.07373 0.01611-0.14258 0.02417-0.20654 0.02417-0.07422 0-0.12891-0.0095-0.16406-0.02856-0.03516-0.01904-0.06128-0.04785-0.07837-0.08643-0.0166-0.03906-0.0249-0.10205-0.0249-0.18896v-0.27393h-0.10986v-0.21753h0.10986v-0.14282l0.29883-0.15308"/>
   <path id="path3114" d="m18.336 77.736h0.28857l0.12524 0.48999 0.1582-0.48999h0.2688l0.16406 0.48999 0.12524-0.48999h0.28638l-0.28638 0.77783h-0.26514l-0.15747-0.46802-0.15234 0.46802h-0.2666l-0.28857-0.77783"/>
   <path id="path3116" d="m20.093 77.988-0.28491-0.03003c0.01074-0.0498 0.02612-0.08887 0.04614-0.11719 0.02051-0.02881 0.0498-0.05371 0.08789-0.07471 0.02734-0.01514 0.06494-0.02685 0.11279-0.03516 0.04785-0.0083 0.09961-0.01245 0.15527-0.01245 0.08936 1e-6 0.16113 0.0051 0.21533 0.01538 0.0542 0.0098 0.09936 0.03052 0.1355 0.06226 0.02539 0.02197 0.04541 0.05322 0.06006 0.09375 0.01465 0.04004 0.02197 0.07837 0.02197 0.11499v0.34351c-1e-6 0.03662 0.0022 0.06543 0.0066 0.08643 0.0049 0.02051 0.01514 0.04687 0.03076 0.0791h-0.27978c-0.01123-0.02002-0.01855-0.03516-0.02197-0.04541-0.0034-0.01074-0.0068-0.02734-0.01025-0.0498-0.03906 0.0376-0.07788 0.06445-0.11646 0.08057-0.05273 0.02148-0.11401 0.03223-0.18384 0.03223-0.09277 0-0.16333-0.02148-0.21167-0.06445-0.04785-0.04297-0.07178-0.09595-0.07178-0.15894 0-0.05908 0.01733-0.10767 0.052-0.14575 0.03467-0.03809 0.09863-0.06641 0.1919-0.08496 0.11182-0.02246 0.18432-0.03809 0.21753-0.04687 0.0332-0.0093 0.06836-0.02124 0.10547-0.03589-1e-6 -0.03662-0.0076-0.06226-0.02271-0.0769-0.01514-0.01465-0.04175-0.02197-0.07983-0.02197-0.04883 1e-6 -0.08545 0.0078-0.10986 0.02344-0.01904 0.01221-0.03442 0.03516-0.04614 0.06885m0.25854 0.15674c-0.04102 0.01465-0.08374 0.02759-0.12817 0.03882-0.06055 0.01611-0.09888 0.03198-0.11499 0.04761-0.0166 0.01611-0.0249 0.03442-0.0249 0.05493 0 0.02344 0.0081 0.04273 0.02417 0.05786 0.0166 0.01465 0.04077 0.02197 0.07251 0.02197 0.0332 0 0.06396-0.0081 0.09228-0.02417 0.02881-0.01611 0.04907-0.03564 0.06079-0.05859 0.01221-0.02344 0.01831-0.05371 0.01831-0.09082v-0.04761"/>
   <path id="path3118" d="m20.826 77.736h0.27905v0.12744c0.02686-0.05518 0.05444-0.09302 0.08276-0.11353 0.02881-0.02099 0.06421-0.03149 0.1062-0.03149 0.04394 1e-6 0.09204 0.01367 0.14429 0.04102l-0.09229 0.2124c-0.03516-0.01465-0.06299-0.02197-0.0835-0.02197-0.03906 1e-6 -0.06934 0.01611-0.09082 0.04834-0.03076 0.04541-0.04614 0.13037-0.04614 0.25488v0.26074h-0.29956v-0.77783"/>
   <path id="path3120" d="m22.375 78.199h-0.59766c0.0054 0.04785 0.01831 0.0835 0.03882 0.10693 0.02881 0.03369 0.06641 0.05054 0.11279 0.05054 0.0293 1e-6 0.05713-0.0073 0.0835-0.02197 0.01611-0.0093 0.03345-0.02564 0.052-0.04907l0.2937 0.0271c-0.04492 0.07813-0.09912 0.13428-0.1626 0.16846-0.06348 0.03369-0.15454 0.05054-0.27319 0.05054-0.10303 0-0.18408-0.0144-0.24316-0.04321-0.05908-0.0293-0.10815-0.07544-0.14722-0.13843-0.03858-0.06348-0.05786-0.13794-0.05786-0.22339 0-0.12158 0.03882-0.21997 0.11646-0.29517 0.07813-0.0752 0.18579-0.11279 0.323-0.11279 0.11133 1e-6 0.19922 0.01685 0.26367 0.05054 0.06445 0.03369 0.11352 0.08252 0.14722 0.14648 0.03369 0.06397 0.05054 0.14722 0.05054 0.24976v0.03369m-0.30323-0.14284c-0.0059-0.05762-0.02148-0.09888-0.04687-0.12378-0.0249-0.0249-0.05786-0.03735-0.09888-0.03735-0.04736 0-0.08521 0.0188-0.11353 0.0564-0.01807 0.02344-0.02954 0.05835-0.03442 0.10474h0.2937"/>
   <path id="path3122" d="m23.017 77.736h0.27832v0.11353c0.04004-0.04736 0.08032-0.08105 0.12085-0.10108 0.04101-0.02002 0.09033-0.03003 0.14795-0.03003 0.06201 1e-6 0.11108 0.01099 0.14722 0.03296 0.03613 0.02197 0.06567 0.05469 0.08862 0.09815 0.04687-0.05078 0.0896-0.08521 0.12817-0.10327 0.03857-0.01855 0.08618-0.02783 0.14282-0.02783 0.08349 1e-6 0.14868 0.0249 0.19556 0.07471 0.04687 0.04932 0.07031 0.12671 0.07031 0.23218v0.48852h-0.29883v-0.44312c-1e-6 -0.03516-0.0068-0.06128-0.02051-0.07837-0.02002-0.02685-0.04492-0.04028-0.07471-0.04028-0.03516 0-0.06348 0.0127-0.08496 0.03809-0.02149 0.02539-0.03223 0.06616-0.03223 0.12231v0.40137h-0.29883v-0.42847c0-0.03418-2e-3 -0.05737-0.0059-0.06958-0.0063-0.01953-0.01733-0.03516-0.03296-0.04687-0.01563-0.01221-0.03394-0.01831-0.05493-0.01831-0.03418 0-0.06226 0.01294-0.08423 0.03882s-0.03296 0.06836-0.03296 0.12744v0.39697h-0.29883v-0.77783"/>
   <path id="path3124" d="m24.787 77.988-0.28491-0.03003c0.01074-0.0498 0.02612-0.08887 0.04614-0.11719 0.02051-0.02881 0.0498-0.05371 0.08789-0.07471 0.02734-0.01514 0.06494-0.02685 0.11279-0.03516 0.04785-0.0083 0.09961-0.01245 0.15527-0.01245 0.08935 1e-6 0.16113 0.0051 0.21533 0.01538 0.0542 0.0098 0.09936 0.03052 0.1355 0.06226 0.02539 0.02197 0.04541 0.05322 0.06006 0.09375 0.01465 0.04004 0.02197 0.07837 0.02197 0.11499v0.34351c-1e-6 0.03662 0.0022 0.06543 0.0066 0.08643 0.0049 0.02051 0.01514 0.04687 0.03076 0.0791h-0.27978c-0.01123-0.02002-0.01855-0.03516-0.02197-0.04541-0.0034-0.01074-0.0068-0.02734-0.01025-0.0498-0.03906 0.0376-0.07788 0.06445-0.11646 0.08057-0.05274 0.02148-0.11401 0.03223-0.18384 0.03223-0.09277 0-0.16333-0.02148-0.21167-0.06445-0.04785-0.04297-0.07178-0.09595-0.07178-0.15894 0-0.05908 0.01733-0.10767 0.052-0.14575 0.03467-0.03809 0.09863-0.06641 0.1919-0.08496 0.11182-0.02246 0.18433-0.03809 0.21753-0.04687 0.0332-0.0093 0.06836-0.02124 0.10547-0.03589-1e-6 -0.03662-0.0076-0.06226-0.0227-0.0769-0.01514-0.01465-0.04175-0.02197-0.07983-0.02197-0.04883 1e-6 -0.08545 0.0078-0.10986 0.02344-0.01904 0.01221-0.03443 0.03516-0.04614 0.06885m0.25854 0.15674c-0.04102 0.01465-0.08374 0.02759-0.12817 0.03882-0.06055 0.01611-0.09888 0.03198-0.11499 0.04761-0.0166 0.01611-0.0249 0.03442-0.0249 0.05493-1e-6 0.02344 0.0081 0.04273 0.02417 0.05786 0.0166 0.01465 0.04077 0.02197 0.07251 0.02197 0.0332 0 0.06396-0.0081 0.09229-0.02417 0.02881-0.01611 0.04907-0.03564 0.06079-0.05859 0.01221-0.02344 0.01831-0.05371 0.01831-0.09082v-0.04761"/>
   <path id="path3126" d="m25.517 77.736h0.27759v0.12671c0.0415-0.05176 0.0835-0.08862 0.12598-0.1106 0.04248-0.02246 0.09424-0.03369 0.15527-0.03369 0.08252 1e-6 0.14697 0.02466 0.19336 0.07398 0.04687 0.04883 0.07031 0.12451 0.07031 0.22705v0.49438h-0.29956v-0.42773c-1e-6 -0.04883-9e-3 -0.08325-0.0271-0.10327-0.01807-0.02051-0.04346-0.03076-0.07617-0.03076-0.03613 0-0.06543 0.01367-0.08789 0.04102-0.02246 0.02734-0.03369 0.07642-0.03369 0.14722v0.37354h-0.2981v-0.77783"/>
   <path id="path3128" d="m26.791 77.988-0.28491-0.03003c0.01074-0.0498 0.02612-0.08887 0.04614-0.11719 0.02051-0.02881 0.0498-0.05371 0.08789-0.07471 0.02734-0.01514 0.06494-0.02685 0.11279-0.03516 0.04785-0.0083 0.09961-0.01245 0.15527-0.01245 0.08936 1e-6 0.16113 0.0051 0.21533 0.01538 0.0542 0.0098 0.09936 0.03052 0.1355 0.06226 0.02539 0.02197 0.04541 0.05322 0.06006 0.09375 0.01465 0.04004 0.02197 0.07837 0.02197 0.11499v0.34351c-1e-6 0.03662 0.0022 0.06543 0.0066 0.08643 0.0049 0.02051 0.01514 0.04687 0.03076 0.0791h-0.27978c-0.01123-0.02002-0.01856-0.03516-0.02197-0.04541-0.0034-0.01074-0.0068-0.02734-0.01025-0.0498-0.03906 0.0376-0.07788 0.06445-0.11646 0.08057-0.05274 0.02148-0.11401 0.03223-0.18384 0.03223-0.09277 0-0.16333-0.02148-0.21167-0.06445-0.04785-0.04297-0.07178-0.09595-0.07178-0.15894 0-0.05908 0.01733-0.10767 0.052-0.14575 0.03467-0.03809 0.09863-0.06641 0.19189-0.08496 0.11182-0.02246 0.18433-0.03809 0.21753-0.04687 0.0332-0.0093 0.06836-0.02124 0.10547-0.03589 0-0.03662-0.0076-0.06226-0.0227-0.0769-0.01514-0.01465-0.04175-0.02197-0.07983-0.02197-0.04883 1e-6 -0.08545 0.0078-0.10986 0.02344-0.01904 0.01221-0.03442 0.03516-0.04614 0.06885m0.25854 0.15674c-0.04102 0.01465-0.08374 0.02759-0.12817 0.03882-0.06055 0.01611-0.09888 0.03198-0.11499 0.04761-0.0166 0.01611-0.0249 0.03442-0.0249 0.05493 0 0.02344 0.0081 0.04273 0.02417 0.05786 0.0166 0.01465 0.04077 0.02197 0.07251 0.02197 0.0332 0 0.06396-0.0081 0.09229-0.02417 0.02881-0.01611 0.04907-0.03564 0.06079-0.05859 0.01221-0.02344 0.01831-0.05371 0.01831-0.09082v-0.04761"/>
   <path id="path3130" d="m28.085 77.736h0.27905v0.73462l7.32e-4 0.03442c-1e-6 0.04883-0.0105 0.09521-0.03149 0.13916-0.02051 0.04443-0.0481 0.08032-0.08276 0.10767-0.03418 0.02734-0.07788 0.04712-0.1311 0.05933-0.05273 0.01221-0.11328 0.01831-0.18164 0.01831-0.15625 0-0.26367-0.02344-0.32226-0.07031-0.05811-0.04687-0.08716-0.10962-0.08716-0.18823 0-0.0098 4.88e-4 -0.02295 0.0015-0.03955l0.28931 0.03296c0.0073 0.02686 0.01855 0.04541 0.03369 0.05566 0.02197 0.01514 0.04956 0.02271 0.08276 0.02271 0.04297 0 0.07495-0.01147 0.09595-0.03442 0.02148-0.02295 0.03223-0.06299 0.03223-0.12012v-0.11792c-0.0293 0.03467-0.05859 0.05982-0.08789 0.07544-0.0459 0.02441-0.09546 0.03662-0.14868 0.03662-0.104 0-0.18799-0.04541-0.25195-0.13623-0.04541-0.06445-0.06812-0.14966-0.06812-0.25562 0-0.12109 0.0293-0.21338 0.08789-0.27686 0.05859-0.06348 0.13525-0.09521 0.22998-0.09522 0.06055 1e-6 0.11035 0.01026 0.14942 0.03076 0.03955 0.02051 0.07642 0.05444 0.1106 0.10181v-0.11499m-0.28052 0.3772c-1e-6 0.05615 0.01196 0.0979 0.03589 0.12524 0.02393 0.02685 0.05542 0.04028 0.09448 0.04028 0.03711 0 0.06811-0.01392 0.09302-0.04175 0.02539-0.02832 0.03809-0.0708 0.03809-0.12744 0-0.05664-0.01318-0.09985-0.03955-0.12964-0.02637-0.03027-0.05859-0.04541-0.09668-0.04541-0.03809 1e-6 -0.0686 0.01392-0.09155 0.04175-0.02246 0.02734-0.03369 0.073-0.03369 0.13696"/>
   <path id="path3132" d="m29.41 78.199h-0.59766c0.0054 0.04785 0.01831 0.0835 0.03882 0.10693 0.02881 0.03369 0.06641 0.05054 0.11279 0.05054 0.0293 1e-6 0.05713-0.0073 0.0835-0.02197 0.01611-0.0093 0.03345-0.02564 0.052-0.04907l0.2937 0.0271c-0.04492 0.07813-0.09912 0.13428-0.1626 0.16846-0.06348 0.03369-0.15454 0.05054-0.27319 0.05054-0.10303 0-0.18408-0.0144-0.24316-0.04321-0.05908-0.0293-0.10815-0.07544-0.14722-0.13843-0.03857-0.06348-0.05786-0.13794-0.05786-0.22339 0-0.12158 0.03882-0.21997 0.11646-0.29517 0.07813-0.0752 0.18579-0.11279 0.323-0.11279 0.11133 1e-6 0.19922 0.01685 0.26367 0.05054 0.06445 0.03369 0.11352 0.08252 0.14722 0.14648 0.03369 0.06397 0.05054 0.14722 0.05054 0.24976v0.03369m-0.30323-0.14284c-0.0059-0.05762-0.02149-0.09888-0.04687-0.12378-0.0249-0.0249-0.05786-0.03735-0.09888-0.03735-0.04736 0-0.0852 0.0188-0.11352 0.0564-0.01807 0.02344-0.02954 0.05835-0.03442 0.10474h0.2937"/>
   <path id="path3134" d="m29.551 77.736h0.27905v0.12744c0.02686-0.05518 0.05444-0.09302 0.08276-0.11353 0.02881-0.02099 0.06421-0.03149 0.1062-0.03149 0.04395 1e-6 0.09204 0.01367 0.14429 0.04102l-0.09228 0.2124c-0.03516-0.01465-0.06299-0.02197-0.0835-0.02197-0.03906 1e-6 -0.06934 0.01611-0.09082 0.04834-0.03076 0.04541-0.04614 0.13037-0.04614 0.25488v0.26074h-0.29956v-0.77783"/>
  </g>
 </g>
 <g id="layer4" display="none">
  <rect id="rect3790" transform="rotate(-90,2,2)" x="-86" y="56" width="30" height="30" rx="2.8125" ry="2.8125" filter="url(#filter3806)" opacity=".6"/>
  <rect id="rect2993" transform="rotate(-90)" x="-88" y="56" width="30" height="30" rx="2.8125" ry="2.8125" fill="url(#linearGradient3773)"/>
  <path id="rect3775" d="m58.812 58c-1.5581 0-2.8125 1.2544-2.8125 2.8125v24.375c0 0.87307 0.41082 1.6412 1.0312 2.1562-0.0028-0.05384-0.03125-0.10162-0.03125-0.15625v-24.375c0-1.5581 1.1708-2.8125 2.625-2.8125h22.75c1.4542 0 2.625 1.2544 2.625 2.8125v24.375c0 0.05463-0.02841 0.10241-0.03125 0.15625 0.62043-0.51509 1.0312-1.2832 1.0312-2.1562v-24.375c0-1.5581-1.2544-2.8125-2.8125-2.8125z" fill="url(#linearGradient3788)" opacity=".5"/>
  <path id="path3810" transform="translate(-50)" d="m116 63.5v8.75h-5l10 13.75 10-13.75h-5v-8.75z" clip-path="url(#clipPath3823)" display="inline" fill="url(#linearGradient3812)" filter="url(#filter3831)" opacity=".6"/>
  <path id="path4278" d="m66 62.5v8.75h-5l10 13.75 10-13.75h-5v-8.75z" display="inline" fill="url(#linearGradient3832)"/>
 </g>
 <g id="layer6">
  <g id="g4581" transform="translate(-60,16)">
   <path id="path4566" transform="translate(-.5 .5)" d="m126 38.469c-1.8584 0-3.2812 1.5681-3.2812 3.3438v1.1895c-0.36151 0.13467-0.71704 0.28207-1.0684 0.44141l-0.85937-0.85938c-0.5657-0.56571-1.3688-0.98222-2.3145-0.99023-0.82394-7e-3 -1.7166 0.28299-2.3926 0.95898l-3.5312 3.5312c-1.3106 1.3106-1.2411 3.4345 0.0312 4.707l0.85938 0.85938c-0.15934 0.35132-0.30674 0.70685-0.44141 1.0684h-1.1894c-1.7756 0-3.3438 1.4228-3.3438 3.2812v5c0 1.8584 1.5681 3.2812 3.3438 3.2812h1.1894c0.13467 0.36151 0.28207 0.71704 0.44141 1.0684l-0.85938 0.85938c-1.2725 1.2725-1.3419 3.3965-0.0312 4.707l3.5312 3.5312c1.3105 1.3105 3.4345 1.2413 4.707-0.03125l0.85937-0.85938c0.35132 0.15934 0.70685 0.30674 1.0684 0.44141v1.1895c0 1.7756 1.4228 3.3438 3.2812 3.3438h5c1.8584 0 3.2812-1.5681 3.2812-3.3438v-1.1895c0.36151-0.13467 0.71704-0.28207 1.0684-0.44141l0.85937 0.85938c1.2726 1.2725 3.3965 1.3418 4.707 0.03125l3.5312-3.5312c1.3106-1.3106 1.2411-3.4345-0.0312-4.707l-0.85938-0.85938c0.15934-0.35132 0.30674-0.70685 0.44141-1.0684h1.1894c1.7756 0 3.3438-1.4228 3.3438-3.2812v-5c0-1.8584-1.5681-3.2812-3.3438-3.2812h-1.1894c-0.13467-0.36151-0.28207-0.71704-0.44141-1.0684l0.85938-0.85938c1.2725-1.2725 1.342-3.3965 0.0312-4.707l-3.5312-3.5312c-1.3105-1.3105-3.4345-1.2413-4.707 0.03125l-0.85937 0.85938c-0.35132-0.15934-0.70685-0.30674-1.0684-0.44141v-1.1895c0-1.7756-1.4228-3.3438-3.2812-3.3438zm2.5 16.812c1.7874 0 3.2188 1.4313 3.2188 3.2188s-1.4313 3.2188-3.2188 3.2188c-1.7874 0-3.2188-1.4313-3.2188-3.2188s1.4313-3.2188 3.2188-3.2188z" display="block" opacity=".05"/>
   <path id="path4562" transform="translate(-.5 .5)" d="m126 39.494c-1.2683 0-2.2559 1.0942-2.2559 2.3184v1.873c-0.81431 0.26518-1.5974 0.59203-2.3457 0.97852l-1.3438-1.3438c-0.38668-0.38668-0.95127-0.6939-1.5781-0.69922-0.5946-0.0051-1.1882 0.19995-1.6562 0.66797l-3.5312 3.5312c-0.89095 0.89096-0.84049 2.3625 0.0312 3.2344l1.3438 1.3438c-0.38648 0.7483-0.71334 1.5314-0.97851 2.3457h-1.873c-1.2241 0-2.3184 0.98759-2.3184 2.2559v5c0 1.2683 1.0943 2.2559 2.3184 2.2559h1.873c0.26517 0.81431 0.59203 1.5974 0.97851 2.3457l-1.3438 1.3438c-0.87182 0.87182-0.92228 2.3434-0.0312 3.2344l3.5312 3.5312c0.89094 0.89094 2.3625 0.8406 3.2344-0.03125l1.3438-1.3438c0.7483 0.38648 1.5314 0.71334 2.3457 0.97852v1.873c0 1.2241 0.9876 2.3184 2.2559 2.3184h5c1.2683 0 2.2559-1.0942 2.2559-2.3184v-1.873c0.81431-0.26518 1.5974-0.59203 2.3457-0.97852l1.3438 1.3438c0.87185 0.87184 2.3434 0.92218 3.2344 0.03125l3.5312-3.5312c0.89095-0.89096 0.84047-2.3625-0.0312-3.2344l-1.3438-1.3438c0.38648-0.7483 0.71334-1.5314 0.97851-2.3457h1.873c1.2241 0 2.3184-0.98758 2.3184-2.2559v-5c0-1.2683-1.0943-2.2559-2.3184-2.2559h-1.873c-0.26517-0.81431-0.59203-1.5974-0.97851-2.3457l1.3438-1.3438c0.87182-0.87181 0.9223-2.3434 0.0312-3.2344l-3.5312-3.5312c-0.89093-0.89093-2.3625-0.84059-3.2344 0.03125l-1.3438 1.3438c-0.7483-0.38648-1.5314-0.71334-2.3457-0.97852v-1.873c0-1.2241-0.9876-2.3184-2.2559-2.3184zm2.5 14.762c2.3457 0 4.2441 1.8984 4.2441 4.2441s-1.8984 4.2441-4.2441 4.2441c-2.3457 0-4.2441-1.8984-4.2441-4.2441s1.8984-4.2441 4.2441-4.2441z" display="block" opacity=".15"/>
   <path id="path4556" d="m125.5 41c-0.70838 0-1.2682 0.5886-1.2682 1.3091v2.5364c-1.2666 0.33748-2.4722 0.84915-3.5795 1.4932l-1.8205-1.8c-0.25473-0.25473-0.54989-0.4063-0.87954-0.40909-0.32965-0.0028-0.67001 0.11773-0.92046 0.36818l-3.5386 3.5386c-0.5009 0.5009-0.46851 1.2905 0.0409 1.8l1.8 1.8205c-0.64403 1.1074-1.1557 2.3129-1.4932 3.5795h-2.5364c-0.72049 0-1.3091 0.5598-1.3091 1.2682v4.9909c0 0.70838 0.5886 1.2682 1.3091 1.2682h2.5364c0.33749 1.2666 0.84916 2.4722 1.4932 3.5795l-1.8 1.8205c-0.50947 0.50946-0.54186 1.2991-0.0409 1.8l3.5386 3.5386c0.5009 0.5009 1.2905 0.46856 1.8-0.04091l1.8205-1.8c1.1074 0.64403 2.3129 1.1557 3.5795 1.4932v2.5364c0 0.72049 0.5598 1.3091 1.2682 1.3091h4.9909c0.70838 0 1.2682-0.5886 1.2682-1.3091v-2.5364c1.2666-0.33748 2.4722-0.84915 3.5796-1.4932l1.8204 1.8c0.50947 0.50947 1.2991 0.54181 1.8 0.04091l3.5386-3.5386c0.5009-0.5009 0.4685-1.2905-0.0409-1.8l-1.8-1.8205c0.64403-1.1074 1.1557-2.3129 1.4932-3.5795h2.5364c0.72048 0 1.3091-0.5598 1.3091-1.2682v-4.9909c0-0.70838-0.58861-1.2682-1.3091-1.2682h-2.5364c-0.33748-1.2666-0.84915-2.4722-1.4932-3.5795l1.8-1.8205c0.50947-0.50947 0.54187-1.2991 0.0409-1.8l-3.5386-3.5386c-0.5009-0.5009-1.2905-0.46856-1.8 0.04091l-1.8204 1.8c-1.1074-0.64403-2.3129-1.1557-3.5796-1.4932v-2.5364c0-0.72049-0.5598-1.3091-1.2682-1.3091zm2.4955 12.764c2.892 0 5.2364 2.3444 5.2364 5.2364s-2.3444 5.2364-5.2364 5.2364c-2.892 0-5.2364-2.3444-5.2364-5.2364s2.3444-5.2364 5.2364-5.2364z" display="block" opacity=".3"/>
   <path id="rect3267" d="m125.5 40c-0.70838 0-1.2682 0.5886-1.2682 1.3091v2.5364c-1.2666 0.33748-2.4722 0.84915-3.5795 1.4932l-1.8205-1.8c-0.25473-0.25473-0.54989-0.4063-0.87954-0.40909-0.32965-0.0028-0.67001 0.11773-0.92046 0.36818l-3.5386 3.5386c-0.5009 0.5009-0.46851 1.2905 0.0409 1.8l1.8 1.8205c-0.64403 1.1074-1.1557 2.3129-1.4932 3.5795h-2.5364c-0.72049 0-1.3091 0.5598-1.3091 1.2682v4.9909c0 0.70838 0.5886 1.2682 1.3091 1.2682h2.5364c0.33749 1.2666 0.84916 2.4722 1.4932 3.5795l-1.8 1.8205c-0.50947 0.50946-0.54186 1.2991-0.0409 1.8l3.5386 3.5386c0.5009 0.5009 1.2905 0.46856 1.8-0.04091l1.8205-1.8c1.1074 0.64403 2.3129 1.1557 3.5795 1.4932v2.5364c0 0.72049 0.5598 1.3091 1.2682 1.3091h4.9909c0.70838 0 1.2682-0.5886 1.2682-1.3091v-2.5364c1.2666-0.33748 2.4722-0.84915 3.5796-1.4932l1.8204 1.8c0.50947 0.50947 1.2991 0.54181 1.8 0.04091l3.5386-3.5386c0.5009-0.5009 0.4685-1.2905-0.0409-1.8l-1.8-1.8205c0.64403-1.1074 1.1557-2.3129 1.4932-3.5795h2.5364c0.72048 0 1.3091-0.5598 1.3091-1.2682v-4.9909c0-0.70838-0.58861-1.2682-1.3091-1.2682h-2.5364c-0.33748-1.2666-0.84915-2.4722-1.4932-3.5795l1.8-1.8205c0.50947-0.50947 0.54187-1.2991 0.0409-1.8l-3.5386-3.5386c-0.5009-0.5009-1.2905-0.46856-1.8 0.04091l-1.8204 1.8c-1.1074-0.64403-2.3129-1.1557-3.5796-1.4932v-2.5364c0-0.72049-0.5598-1.3091-1.2682-1.3091zm2.4955 12.764c2.892 0 5.2364 2.3444 5.2364 5.2364s-2.3444 5.2364-5.2364 5.2364c-2.892 0-5.2364-2.3444-5.2364-5.2364s2.3444-5.2364 5.2364-5.2364z" display="block" fill="url(#linearGradient4615)"/>
   <g id="g4176" transform="matrix(.56685 .32727 -.32727 .56685 152.48 -47.194)" clip-path="url(#clipPath3770)">
    <g id="g4011" transform="matrix(.14137 .99272 -1.1652 .12045 96.937 104.81)" opacity=".9">
     <path id="path4009" transform="rotate(-6.2214 47.948 50.203)" d="m108.9 48a60.896 60.896 0 0 1-6.5462 27.467l-54.35-27.467z" color="#000000" fill="url(#linearGradient4617)" opacity=".05"/>
     <path id="path4007" transform="rotate(-3.7483 47.985 48.898)" d="m108.9 48a60.896 60.896 0 0 1-4.4572 22.869l-56.439-22.869z" color="#000000" fill="url(#linearGradient4619)" opacity=".07"/>
     <path id="path4005" transform="rotate(-1.898 48 48)" d="m108.9 48a60.896 60.896 0 0 1-3.1299 19.272l-57.766-19.272z" color="#000000" fill="url(#linearGradient4621)" opacity=".1"/>
     <path id="path4003" d="m108.9 48a60.896 60.896 0 0 1-2.075 15.761l-58.821-15.761z" color="#000000" fill="url(#linearGradient4623)" opacity=".05"/>
    </g>
    <g id="g4027" transform="matrix(1.0628 -.13088 -.7401 3.2275 32.525 9.3323)" opacity=".9">
     <path id="path4029" transform="rotate(-6.2214 47.948 50.203)" d="m108.9 48a60.896 60.896 0 0 1-6.5462 27.467l-54.35-27.467z" color="#000000" fill="url(#linearGradient4625)" opacity=".2"/>
     <path id="path4031" transform="rotate(-3.7483 47.985 48.898)" d="m108.9 48a60.896 60.896 0 0 1-4.4572 22.869l-56.439-22.869z" color="#000000" fill="url(#linearGradient4627)" opacity=".4"/>
     <path id="path4033" transform="rotate(-1.898 48 48)" d="m108.9 48a60.896 60.896 0 0 1-3.1299 19.272l-57.766-19.272z" color="#000000" fill="url(#linearGradient4629)" opacity=".6"/>
     <path id="path4035" d="m108.9 48a60.896 60.896 0 0 1-2.075 15.761l-58.821-15.761z" color="#000000" fill="url(#linearGradient4631)" opacity=".8"/>
    </g>
    <g id="g4079" transform="rotate(128.08 20.984 103)" opacity=".5">
     <path id="path4081" transform="rotate(-6.2214 47.948 50.203)" d="m108.9 48a60.896 60.896 0 0 1-6.5462 27.467l-54.35-27.467z" color="#000000" fill="url(#linearGradient4617)" opacity=".05"/>
     <path id="path4083" transform="rotate(-3.7483 47.985 48.898)" d="m108.9 48a60.896 60.896 0 0 1-4.4572 22.869l-56.439-22.869z" color="#000000" fill="url(#linearGradient4619)" opacity=".07"/>
     <path id="path4085" transform="rotate(-1.898 48 48)" d="m108.9 48a60.896 60.896 0 0 1-3.1299 19.272l-57.766-19.272z" color="#000000" fill="url(#linearGradient4621)" opacity=".1"/>
     <path id="path4087" d="m108.9 48a60.896 60.896 0 0 1-2.075 15.761l-58.821-15.761z" color="#000000" fill="url(#linearGradient4623)" opacity=".1"/>
    </g>
    <g id="g4097" transform="matrix(-.068172 -1.046 2.7107 .60163 -79.095 179.08)" opacity=".8">
     <path id="path4099" transform="rotate(-6.2214 47.948 50.203)" d="m108.9 48a60.896 60.896 0 0 1-6.5462 27.467l-54.35-27.467z" color="#000000" fill="url(#linearGradient4617)" opacity=".05"/>
     <path id="path4101" transform="rotate(-3.7483 47.985 48.898)" d="m108.9 48a60.896 60.896 0 0 1-4.4572 22.869l-56.439-22.869z" color="#000000" fill="url(#linearGradient4619)" opacity=".07"/>
     <path id="path4103" transform="rotate(-1.898 48 48)" d="m108.9 48a60.896 60.896 0 0 1-3.1299 19.272l-57.766-19.272z" color="#000000" fill="url(#linearGradient4621)" opacity=".1"/>
     <path id="path4105" d="m108.9 48a60.896 60.896 0 0 1-2.075 15.761l-58.821-15.761z" color="#000000" fill="url(#linearGradient4623)" opacity=".1"/>
    </g>
    <g id="g4147" transform="matrix(-1.0628 .13088 .7401 -3.2275 62.997 306.67)" opacity=".9">
     <path id="path4149" transform="rotate(-6.2214 47.948 50.203)" d="m108.9 48a60.896 60.896 0 0 1-6.5462 27.467l-54.35-27.467z" color="#000000" fill="url(#linearGradient4625)" opacity=".2"/>
     <path id="path4151" transform="rotate(-3.7483 47.985 48.898)" d="m108.9 48a60.896 60.896 0 0 1-4.4572 22.869l-56.439-22.869z" color="#000000" fill="url(#linearGradient4627)" opacity=".4"/>
     <path id="path4153" transform="rotate(-1.898 48 48)" d="m108.9 48a60.896 60.896 0 0 1-3.1299 19.272l-57.766-19.272z" color="#000000" fill="url(#linearGradient4629)" opacity=".6"/>
     <path id="path4155" d="m108.9 48a60.896 60.896 0 0 1-2.075 15.761l-58.821-15.761z" color="#000000" fill="url(#linearGradient4631)" opacity=".8"/>
    </g>
   </g>
   <path id="path4405" d="m125.5 40c-0.70838-1e-6 -1.2682 0.5886-1.2682 1.3091v2.5364c-1.2666 0.33748-2.4722 0.84915-3.5795 1.4932l-1.8205-1.8c-0.25473-0.25474-0.54989-0.4063-0.87954-0.40909-0.32965-0.0026-0.67 0.11773-0.92046 0.36818l-3.5386 3.5386c-0.5009 0.50091-0.4685 1.2905 0.0409 1.8l1.8 1.8205c-0.64403 1.1074-1.1557 2.3129-1.4932 3.5796h-2.5364c-0.72049-4e-6 -1.3091 0.55979-1.3091 1.2682v4.9909c0 0.70839 0.5886 1.2682 1.3091 1.2682h2.5364c0.33749 1.2666 0.84916 2.4722 1.4932 3.5795l-1.8 1.8205c-0.50947 0.50947-0.54186 1.2991-0.0409 1.8l3.5386 3.5386c0.5009 0.5009 1.2905 0.46856 1.8-0.04091l1.8205-1.8c1.1074 0.64391 2.3129 1.1557 3.5795 1.4932v2.5364c0 0.72049 0.5598 1.3091 1.2682 1.3091l4.9909 1e-6c0.70839-3e-6 1.2682-0.5886 1.2682-1.3091v-2.5364c1.2666-0.33749 2.4722-0.84915 3.5796-1.4932l1.8204 1.8c0.50947 0.50947 1.2991 0.54182 1.8 0.04091l3.5386-3.5386c0.5009-0.5009 0.4685-1.2905-0.0409-1.8l-1.8-1.8205c0.64403-1.1074 1.1557-2.3129 1.4932-3.5795h2.5364c0.72048 1e-6 1.3091-0.55979 1.3091-1.2682v-4.9909c0-0.70838-0.5886-1.2682-1.3091-1.2682h-2.5364c-0.33747-1.2666-0.84915-2.4722-1.4932-3.5796l1.8-1.8205c0.50947-0.50946 0.54187-1.2991 0.0409-1.8l-3.5386-3.5386c-0.5009-0.50091-1.2905-0.46856-1.8 0.0409l-1.8204 1.8c-1.1074-0.64391-2.3129-1.1557-3.5796-1.4932v-2.5364c0-0.72049-0.5598-1.3091-1.2682-1.3091h-4.9909zm2.4955 8.8364c5.0609-4e-6 9.1636 4.1027 9.1636 9.1636s-4.1027 9.1636-9.1636 9.1636c-5.0609-1e-6 -9.1636-4.1027-9.1636-9.1636 0-5.0609 4.1027-9.1636 9.1636-9.1636z" display="block" fill="url(#linearGradient4407)"/>
   <path id="path3779" d="m125.5 40c-0.70838 0-1.25 0.59201-1.25 1.3125v0.71875c0.11683-0.59534 0.63017-1.0312 1.25-1.0312h5c0.61983 0 1.1332 0.43591 1.25 1.0312v-0.71875c0-0.72049-0.54162-1.3125-1.25-1.3125zm-7.5312 3.125c-0.32965-0.0028-0.68705 0.12455-0.9375 0.375l-3.5312 3.5312c-0.37568 0.37568-0.45054 0.91451-0.25 1.375 0.059-0.12899 0.14211-0.26711 0.25-0.375l3.5312-3.5312c0.25045-0.25045 0.60785-0.3778 0.9375-0.375s0.62027 0.15152 0.875 0.40625l1.8125 1.8125c1.1074-0.64403 2.3271-1.1625 3.5938-1.5v-1c-1.2666 0.33748-2.4864 0.85597-3.5938 1.5l-1.8125-1.8125c-0.25473-0.25473-0.54535-0.40346-0.875-0.40625zm20.094 0c-0.3237 0.0092-0.65151 0.15152-0.90625 0.40625l-1.8125 1.8125c-1.1074-0.64403-2.3271-1.1625-3.5938-1.5v1c1.2666 0.33748 2.4864 0.85597 3.5938 1.5l1.8125-1.8125c0.50947-0.50947 1.3116-0.53215 1.8125-0.03125l3.5312 3.5312c0.1079 0.10789 0.19102 0.24601 0.25 0.375 0.20056-0.46049 0.12573-0.99932-0.25-1.375l-3.5312-3.5312c-0.25045-0.25045-0.58255-0.38416-0.90625-0.375zm-23.062 8.1875c-0.47821 0.92428-0.8835 1.9138-1.1562 2.9375h-2.5312c-0.72049 0-1.3125 0.54161-1.3125 1.25v1c0-0.70839 0.59201-1.25 1.3125-1.25h2.5312c0.33749-1.2666 0.85597-2.4864 1.5-3.5938zm26 0-0.34375 0.34375c0.64403 1.1074 1.1625 2.3271 1.5 3.5938h2.5312c0.72048 0 1.3125 0.54162 1.3125 1.25v-1c0-0.70838-0.59202-1.25-1.3125-1.25h-2.5312c-0.27274-1.0237-0.67804-2.0132-1.1562-2.9375zm-18.219 7.2188c-0.014 0.15592-0.0313 0.30919-0.0313 0.46875 0 2.892 2.358 5.25 5.25 5.25 2.892 0 5.25-2.358 5.25-5.25 0-0.15956-0.0173-0.31283-0.0313-0.46875-0.26805 2.6405-2.5074 4.7188-5.2186 4.7188-2.7112 0-4.9506-2.0783-5.2188-4.7188zm-7.7812 7.1562-1.4688 1.4688c-0.39974 0.39973-0.49609 0.9676-0.28125 1.4375 0.0669-0.1535 0.15388-0.31013 0.28125-0.4375l1.8125-1.8125c-0.12354-0.21242-0.23025-0.43687-0.34375-0.65625zm26 0c-0.1135 0.21938-0.22021 0.44383-0.34375 0.65625l1.8125 1.8125c0.12735 0.12737 0.2144 0.284 0.28125 0.4375 0.21481-0.4699 0.11843-1.0378-0.28125-1.4375z" display="block" fill="#fff" opacity=".7"/>
  </g>
 </g>
</svg>
