<?xml version="1.0" encoding="UTF-8"?>
<svg id="svg2" width="16" height="16" version="1.0" xmlns="http://www.w3.org/2000/svg" xmlns:cc="http://creativecommons.org/ns#" xmlns:dc="http://purl.org/dc/elements/1.1/" xmlns:rdf="http://www.w3.org/1999/02/22-rdf-syntax-ns#" xmlns:xlink="http://www.w3.org/1999/xlink">
 <defs id="defs4">
  <linearGradient id="linearGradient3629" x2="29.017" y1="8" y2="8" gradientTransform="matrix(0,-1,1,0,0,16)" gradientUnits="userSpaceOnUse">
   <stop id="stop3330" offset="0"/>
   <stop id="stop3333" stop-opacity="0" offset="1"/>
  </linearGradient>
  <clipPath id="clipPath3836">
   <rect id="rect3838" transform="rotate(-90)" x="-90" y="6" width="84" height="84" rx="10.5" ry="10.5" fill="url(#linearGradient3840)"/>
  </clipPath>
  <linearGradient id="linearGradient3840" x1="1" x2="15" y1="9" y2="9" gradientTransform="matrix(5.25 0 0 5.25 -95.25 -4.5)" gradientUnits="userSpaceOnUse">
   <stop id="stop3189" stop-color="#29669f" offset="0"/>
   <stop id="stop3191" stop-color="#88b6e0" offset="1"/>
  </linearGradient>
 </defs>
 <metadata id="metadata7">
  <rdf:RDF>
   <cc:Work rdf:about="">
    <dc:format>image/svg+xml</dc:format>
    <dc:type rdf:resource="http://purl.org/dc/dcmitype/StillImage"/>
    <dc:title/>
   </cc:Work>
  </rdf:RDF>
 </metadata>
 <g id="layer1">
  <rect id="rect3196" transform="rotate(-90)" x="-16" width="16" height="16" rx="2" ry="2"/>
  <g id="g3699" transform="matrix(.19048 0 0 .19048 -1.1429 -1.1429)" clip-path="url(#clipPath3836)">
   <path id="path4500" d="m48.166 48c-11.12 19.261-10.362 42.12 0 60.091 10.944 0 21.208-2.963 30.046-8.0748-17.959-10.391-30.046-29.776-30.046-52.016z" fill="#00df16"/>
   <path id="path4516" d="m48.144 48.083c-19.261 11.12-30.034 31.296-30.046 52.04 9.4777 5.4719 19.848 8.0378 30.058 8.0298-10.358-17.978-11.132-40.809-0.012015-60.07z" fill="#04abcf"/>
   <path id="path4518" d="m48.083 48.144c-22.24 0-41.658 12.087-52.04 30.046 5.4719 9.4777 13.17 16.885 22.016 21.983 0.01895-20.748 10.764-40.908 30.025-52.028z" fill="#1a36d8"/>
   <path id="path4520" d="m48 48.166c-19.261-11.12-42.12-10.362-60.091 0 0 10.944 2.963 21.208 8.0747 30.046 10.391-17.959 29.776-30.046 52.016-30.046z" fill="#370099"/>
   <path id="path4522" d="m47.917 48.144c-11.12-19.261-31.296-30.034-52.04-30.046-5.4719 9.4777-8.0378 19.848-8.0298 30.058 17.978-10.358 40.809-11.132 60.07-0.011996z" fill="#650199"/>
   <path id="path4524" d="m47.856 48.083c0-22.24-12.087-41.658-30.046-52.04-9.4777 5.472-16.885 13.17-21.983 22.016 20.748 0.018946 40.908 10.764 52.028 30.025z" fill="#9c009b"/>
   <path id="path4526" d="m47.834 48c11.12-19.261 10.362-42.12 1.2e-5 -60.091-10.944 1.3e-5 -21.208 2.9631-30.046 8.0747 17.959 10.391 30.046 29.776 30.046 52.016z" fill="#d10737"/>
   <path id="path4528" d="m47.856 47.917c19.261-11.12 30.034-31.296 30.046-52.04-9.4777-5.4719-19.848-8.0377-30.058-8.0298 10.358 17.978 11.132 40.809 0.012015 60.07z" fill="#fd0005"/>
   <path id="path4530" d="m47.917 47.856c22.24-1e-5 41.658-12.087 52.04-30.046-5.472-9.4777-13.17-16.885-22.016-21.983-0.018994 20.748-10.764 40.908-30.025 52.028z" fill="#ff6500"/>
   <path id="path4532" d="m48 47.834c19.261 11.12 42.12 10.362 60.091 0-3e-5 -10.944-2.9631-21.208-8.0748-30.046-10.391 17.959-29.776 30.046-52.016 30.046z" fill="#fdad00"/>
   <path id="path4534" d="m48.083 47.856c11.12 19.261 31.296 30.034 52.04 30.046 5.4719-9.4777 8.0377-19.848 8.0298-30.058-17.978 10.358-40.809 11.132-60.07 0.012z" fill="#fffd01"/>
   <path id="path4536" d="m48.144 47.917c0 22.24 12.087 41.658 30.046 52.04 9.4777-5.472 16.885-13.17 21.983-22.016-20.748-0.018946-40.908-10.764-52.028-30.025z" fill="#b6fd00"/>
  </g>
  <path id="rect2835" d="m0 14c0 1.108 0.892 2 2 2h12c1.108 0 2-0.892 2-2v-12c0-1.108-0.892-2-2-2h-12c-1.108 0-2 0.892-2 2v12zm0.96875 0v-12c0-0.5832 0.44805-1.0312 1.0312-1.0312h12c0.5832 0 1.0312 0.44805 1.0312 1.0312v12c0 0.5832-0.44805 1.0312-1.0312 1.0312h-12c-0.5832 0-1.0312-0.44805-1.0312-1.0312z" fill="url(#linearGradient3629)" opacity=".4"/>
  <path id="path2843" d="m2 0.96875c-0.5832 0-1.0312 0.44805-1.0312 1.0312v1c0-0.5832 0.44805-1.0312 1.0312-1.0312h12c0.5832 0 1.0312 0.44805 1.0312 1.0312v-1c0-0.5832-0.44805-1.0312-1.0312-1.0312h-12z" fill="#fff" opacity=".35"/>
 </g>
</svg>
