<?xml version="1.0" encoding="UTF-8"?>
<svg id="svg2" width="22" height="22" version="1.0" xmlns="http://www.w3.org/2000/svg" xmlns:cc="http://creativecommons.org/ns#" xmlns:dc="http://purl.org/dc/elements/1.1/" xmlns:rdf="http://www.w3.org/1999/02/22-rdf-syntax-ns#" xmlns:xlink="http://www.w3.org/1999/xlink">
 <defs id="defs4">
  <linearGradient id="linearGradient3335" x1="11.375" x2="11.375" y1="22" y2="-9.8173" gradientUnits="userSpaceOnUse">
   <stop id="stop3330" offset="0"/>
   <stop id="stop3333" stop-opacity="0" offset="1"/>
  </linearGradient>
  <filter id="filter3386">
   <feGaussianBlur id="feGaussianBlur3388" stdDeviation="0.3196875"/>
  </filter>
  <linearGradient id="linearGradient3845" x1="11" x2="21" y1="19.5" y2="19.5" gradientUnits="userSpaceOnUse" spreadMethod="reflect">
   <stop id="stop3833" stop-color="#fff" offset="0"/>
   <stop id="stop3821" stop-color="#fff" stop-opacity=".49804" offset=".75"/>
   <stop id="stop3835" stop-color="#fff" stop-opacity="0" offset="1"/>
  </linearGradient>
  <linearGradient id="linearGradient3078" x1="10" x2="10" y1="1" y2="16" gradientUnits="userSpaceOnUse">
   <stop id="stop3825" stop-color="#fff" offset="0"/>
   <stop id="stop3829" stop-color="#fff" stop-opacity="0" offset="1"/>
  </linearGradient>
  <linearGradient id="linearGradient3853" x1="1" x2="21" y1="11" y2="11" gradientTransform="translate(-22)" gradientUnits="userSpaceOnUse">
   <stop id="stop4059" stop-color="#dd481f" stop-opacity=".94118" offset="0"/>
   <stop id="stop4061" stop-color="#ec6829" stop-opacity=".94118" offset="1"/>
  </linearGradient>
 </defs>
 <metadata id="metadata7">
  <rdf:RDF>
   <cc:Work rdf:about="">
    <dc:format>image/svg+xml</dc:format>
    <dc:type rdf:resource="http://purl.org/dc/dcmitype/StillImage"/>
   </cc:Work>
  </rdf:RDF>
 </metadata>
 <g id="layer1">
  <g id="g3337">
   <rect id="rect3371" x=".5" y=".5" width="21" height="21.5" rx="2.5" ry="2.5" fill="url(#linearGradient3335)" opacity=".3"/>
   <rect id="rect2553" x="1" y="2" width="20" height="20" rx="2.381" ry="2.3256" opacity=".5"/>
  </g>
  <rect id="rect3845" transform="rotate(-90)" x="-21" y="1" width="20" height="20" rx="2" ry="2" color="#000000" fill="url(#linearGradient3853)"/>
  <path id="rect3050" d="m3 1c-1.108 0-2 0.892-2 2v16c0 1.108 0.892 2 2 2h16c1.108 0 2-0.892 2-2v-16c0-1.108-0.892-2-2-2h-16zm0 1.0312h16c0.5497 0 0.96875 0.41905 0.96875 0.96875v16c0 0.5497-0.41905 0.96875-0.96875 0.96875h-16c-0.5497 0-0.96875-0.41905-0.96875-0.96875v-16c0-0.5497 0.41905-0.96875 0.96875-0.96875z" fill="url(#linearGradient3078)" fill-rule="evenodd" opacity=".25"/>
  <path id="path3235" d="m3 21c-1.108 0-2-0.892-2-2v-1c0 1.108 0.892 2 2 2h16c1.108 0 2-0.892 2-2v1c0 1.108-0.892 2-2 2h-16z" fill="url(#linearGradient3845)" fill-rule="evenodd" opacity=".15"/>
 </g>
 <g id="layer3" fill-rule="evenodd">
  <path id="path3380" d="m11.5 5c-0.9867 0-1.912 0.23106-2.75 0.625l1.5 2.625c0.38666-0.14725 0.81185-0.25 1.25-0.25 1.7644-1e-7 3.2285 1.3016 3.4688 3h3c-0.10811-1.3962-0.65047-2.6758-1.5-3.6875-0.29906 0.12656-0.62375 0.1875-0.96875 0.1875-1.315 0-2.37-1.0227-2.4688-2.3125-0.49051-0.119-1.004-0.1875-1.5312-0.1875zm-3.625 1.125c-1.1347 0.76681-1.9954 1.8816-2.4688 3.1875 0.66029 0.50245 1.0938 1.2944 1.0938 2.1875-1e-7 0.90164-0.45395 1.6859-1.125 2.1875 0.46611 1.2746 1.3374 2.3598 2.4375 3.125l1.5-2.5938c-0.79783-0.64168-1.3125-1.616-1.3125-2.7188-1e-7 -1.1348 0.53701-2.1416 1.375-2.7812l-1.5-2.5938zm7.0938 5.875c-0.24023 1.6984-1.7044 3-3.4688 3-0.45885 0-0.91084-0.08924-1.3125-0.25l-1.5312 2.5938c0.86037 0.42052 1.8222 0.65625 2.8438 0.65625 0.52727 0 1.0407-0.0685 1.5312-0.1875 0.098747-1.2898 1.1538-2.3125 2.4688-2.3125 0.345 0 0.66969 0.06094 0.96875 0.1875 0.84953-1.0117 1.3919-2.2913 1.5-3.6875h-3zm2.0312-7c0 0.828-0.672 1.5-1.5 1.5s-1.5-0.672-1.5-1.5c0-0.828 0.672-1.5 1.5-1.5s1.5 0.672 1.5 1.5zm0 13c0 0.828-0.672 1.5-1.5 1.5s-1.5-0.672-1.5-1.5c0-0.828 0.672-1.5 1.5-1.5s1.5 0.672 1.5 1.5zm-11.5-6.5c0 0.966-0.784 1.75-1.75 1.75-0.966 0-1.75-0.784-1.75-1.75s0.784-1.75 1.75-1.75c0.966 0 1.75 0.784 1.75 1.75z" filter="url(#filter3386)" opacity=".6"/>
  <path id="path3342" d="m11.5 4.5c-0.9867 0-1.912 0.23106-2.75 0.625l1.5 2.625c0.38666-0.14725 0.81185-0.25 1.25-0.25 1.7644-1e-7 3.2285 1.3016 3.4688 3h3c-0.10811-1.3962-0.65047-2.6758-1.5-3.6875-0.29906 0.12656-0.62375 0.1875-0.96875 0.1875-1.315 0-2.37-1.0227-2.4688-2.3125-0.49051-0.119-1.004-0.1875-1.5312-0.1875zm-3.625 1.125c-1.1347 0.76681-1.9954 1.8816-2.4688 3.1875 0.66029 0.50245 1.0938 1.2944 1.0938 2.1875-1e-7 0.90164-0.45395 1.6859-1.125 2.1875 0.46611 1.2746 1.3374 2.3598 2.4375 3.125l1.5-2.5938c-0.79783-0.64168-1.3125-1.616-1.3125-2.7188-1e-7 -1.1348 0.53701-2.1416 1.375-2.7812l-1.5-2.5938zm7.0938 5.875c-0.24023 1.6984-1.7044 3-3.4688 3-0.45885 0-0.91084-0.08924-1.3125-0.25l-1.5312 2.5938c0.86037 0.42052 1.8222 0.65625 2.8438 0.65625 0.52727 0 1.0407-0.0685 1.5312-0.1875 0.098747-1.2898 1.1538-2.3125 2.4688-2.3125 0.345 0 0.66969 0.06094 0.96875 0.1875 0.84953-1.0117 1.3919-2.2913 1.5-3.6875h-3zm2.0312-7c0 0.828-0.672 1.5-1.5 1.5s-1.5-0.672-1.5-1.5c0-0.828 0.672-1.5 1.5-1.5s1.5 0.672 1.5 1.5zm0 13c0 0.828-0.672 1.5-1.5 1.5s-1.5-0.672-1.5-1.5c0-0.828 0.672-1.5 1.5-1.5s1.5 0.672 1.5 1.5zm-11.5-6.5c0 0.966-0.784 1.75-1.75 1.75-0.966 0-1.75-0.784-1.75-1.75s0.784-1.75 1.75-1.75c0.966 0 1.75 0.784 1.75 1.75z" fill="#fff"/>
 </g>
</svg>
