<?xml version="1.0" encoding="UTF-8"?>
<svg id="svg2" width="24" height="24" version="1.0" xmlns="http://www.w3.org/2000/svg" xmlns:cc="http://creativecommons.org/ns#" xmlns:dc="http://purl.org/dc/elements/1.1/" xmlns:rdf="http://www.w3.org/1999/02/22-rdf-syntax-ns#" xmlns:xlink="http://www.w3.org/1999/xlink">
 <defs id="defs4">
  <linearGradient id="linearGradient3335" x1="11.375" x2="11.375" y1="22" y2="-9.8173" gradientUnits="userSpaceOnUse">
   <stop id="stop3330" offset="0"/>
   <stop id="stop3333" stop-opacity="0" offset="1"/>
  </linearGradient>
  <linearGradient id="linearGradient3181" x1="-3.0608" x2="-3.0608" y1="27.258" y2="7.2537" gradientTransform="translate(12.119 -7.2582)" gradientUnits="userSpaceOnUse">
   <stop id="stop3702" stop-color="#d70751" offset="0"/>
   <stop id="stop3704" stop-color="#e7466b" offset="1"/>
  </linearGradient>
  <filter id="filter3194" x="-.18" y="-.18" width="1.36" height="1.36" color-interpolation-filters="sRGB">
   <feGaussianBlur id="feGaussianBlur3196" stdDeviation="1.2"/>
  </filter>
  <clipPath id="clipPath2849">
   <rect id="rect2851" x="1" y="1" width="20" height="20" rx="2" ry="2" fill="#fff" fill-rule="evenodd"/>
  </clipPath>
  <linearGradient id="linearGradient3845" x1="11" x2="21" y1="19.5" y2="19.5" gradientTransform="translate(1,-1)" gradientUnits="userSpaceOnUse" spreadMethod="reflect">
   <stop id="stop3833" stop-color="#fff" offset="0"/>
   <stop id="stop3821" stop-color="#fff" stop-opacity=".49804" offset=".75"/>
   <stop id="stop3835" stop-color="#fff" stop-opacity="0" offset="1"/>
  </linearGradient>
  <linearGradient id="linearGradient3078" x1="10" x2="10" y1="1" y2="16" gradientTransform="translate(1,-1)" gradientUnits="userSpaceOnUse">
   <stop id="stop3825" stop-color="#fff" offset="0"/>
   <stop id="stop3829" stop-color="#fff" stop-opacity="0" offset="1"/>
  </linearGradient>
 </defs>
 <metadata id="metadata7">
  <rdf:RDF>
   <cc:Work rdf:about="">
    <dc:format>image/svg+xml</dc:format>
    <dc:type rdf:resource="http://purl.org/dc/dcmitype/StillImage"/>
   </cc:Work>
  </rdf:RDF>
 </metadata>
 <g id="layer1" transform="translate(0,2)">
  <g id="g3337" transform="translate(1,-1)">
   <rect id="rect3371" x=".5" y=".5" width="21" height="21.5" rx="2.5" ry="2.5" fill="url(#linearGradient3335)" opacity=".3"/>
   <rect id="rect2553" x="1" y="2" width="20" height="20" rx="2.381" ry="2.3256" opacity=".5"/>
  </g>
  <rect id="rect3173" x="2" width="20" height="20" rx="2" ry="2" fill="url(#linearGradient3181)" fill-rule="evenodd"/>
  <path id="rect3050" d="m4 0c-1.108 0-2 0.892-2 2v16c0 1.108 0.892 2 2 2h16c1.108 0 2-0.892 2-2v-16c0-1.108-0.892-2-2-2h-16zm0 1.0312h16c0.5497 0 0.96875 0.41905 0.96875 0.96875v16c0 0.5497-0.41905 0.96875-0.96875 0.96875h-16c-0.5497 0-0.96875-0.41905-0.96875-0.96875v-16c0-0.5497 0.41905-0.96875 0.96875-0.96875z" fill="url(#linearGradient3078)" fill-rule="evenodd" opacity=".3"/>
  <path id="path3235" d="m4 20c-1.108 0-2-0.892-2-2v-1c0 1.108 0.892 2 2 2h16c1.108 0 2-0.892 2-2v1c0 1.108-0.892 2-2 2h-16z" fill="url(#linearGradient3845)" fill-rule="evenodd" opacity=".2"/>
 </g>
 <g id="layer2" transform="translate(0,2)">
  <rect id="rect2410" transform="translate(1,-1)" x="3" y="3" width="16" height="16" rx="2" ry="2" clip-path="url(#clipPath2849)" fill="#fff" filter="url(#filter3194)" opacity=".15"/>
 </g>
 <g id="layer3" transform="translate(0,2)">
  <path id="path2536" d="m17.242 9.2761c0.01709 0.45872-0.13386 0.68162-0.27037 1.0758l-0.2455 0.12208c-0.20069 0.38999 0.01993 0.24759-0.1238 0.55764-0.31366 0.27854-0.95048 0.8713-1.1544 0.92561-0.14905-0.0032 0.10082-0.17582 0.13348-0.24322-0.41942 0.28784-0.33664 0.43214-0.9782 0.60739l-0.01861-0.04196c-1.5816 0.74428-3.7788-0.73042-3.7499-2.7423-0.0167 0.12759-0.04804 0.095694-0.08297 0.14696-0.08164-1.035 0.47809-2.0745 1.4221-2.4996 0.92333-0.45682 2.0058-0.26961 2.6667 0.34727-0.36303-0.47581-1.0862-0.98029-1.9427-0.93358-0.83941 0.013675-1.6249 0.54701-1.8869 1.1263-0.42986 0.27056-0.47999 1.0435-0.6672 1.1852-0.25233 1.8531 0.4741 2.6534 1.7031 3.5953 0.19291 0.13025 0.0543 0.15018 0.08012 0.2493-0.40822-0.19101-0.78188-0.4796-1.0895-0.83295 0.16329 0.23866 0.33929 0.47068 0.56695 0.65296-0.38524-0.13006-0.8996-0.93282-1.0494-0.96548 0.66359 1.1882 2.6919 2.0838 3.7546 1.6393-0.49176 0.01822-1.1162 0.01009-1.6684-0.19404-0.23259-0.11943-0.54758-0.36644-0.49119-0.41258 1.4498 0.54131 2.9471 0.40974 4.2014-0.59562 0.31936-0.24873 0.66796-0.67156 0.76878-0.67726-0.1517 0.22822 0.02601 0.10974-0.09057 0.31119 0.31746-0.51283-0.13841-0.20886 0.32847-0.88554l0.1724 0.23734c-0.06456-0.42606 0.52878-0.94288 0.4684-1.6162 0.13614-0.20582 0.1517 0.22176 0.0073 0.6953 0.20031-0.52537 0.05298-0.60986 0.10424-1.0435 0.05525 0.14582 0.12873 0.30056 0.16613 0.45454-0.13063-0.5079 0.13348-0.85498 0.19917-1.1502-0.06494-0.028485-0.20145 0.22442-0.23297-0.37518 0.0047-0.2605 0.07272-0.13651 0.09873-0.20069-0.05088-0.029429-0.18512-0.22917-0.26658-0.61213 0.05867-0.090185 0.15797 0.23335 0.23847 0.24645-0.05183-0.30436-0.14088-0.53657-0.14468-0.77029-0.23544-0.49176-0.08334 0.065695-0.27398-0.21113-0.25062-0.78112 0.20772-0.18132 0.23886-0.536 0.37936 0.54967 0.59562 1.4022 0.6953 1.7551-0.07594-0.43043-0.19841-0.84757-0.34822-1.251 0.11563 0.0488-0.18588-0.88535 0.15019-0.26676-0.35858-1.3186-1.5337-2.5509-2.615-3.1288 0.13196 0.12095 0.29885 0.27284 0.23923 0.29676-0.53809-0.31993-0.44353-0.34518-0.52062-0.48037-0.43765-0.17829-0.46689 0.01462-0.75644 3.892e-4 -0.82592-0.43822-0.98504-0.3917-1.7451-0.66587l0.03455 0.16177c-0.54701-0.18227-0.63738 0.068736-1.2284 3.891e-4 -0.035891-0.027909 0.18949-0.10177 0.37518-0.12854-0.52897 0.06987-0.50429-0.10443-1.0219 0.019181 0.1274-0.08943 0.26259-0.14886 0.39853-0.2248-0.43119 0.026199-1.0298 0.251-0.8451 0.046325-0.70346 0.31404-1.953 0.75472-2.6542 1.4122l-0.022024-0.14734c-0.32126 0.38562-1.401 1.1517-1.487 1.6517l-0.086011 0.019937c-0.16689 0.28308-0.27531 0.60377-0.40784 0.89484-0.21854 0.37271-0.3205 0.14354-0.28936 0.20202-0.43005 0.87187-0.64403 1.6044-0.82839 2.2055 0.13139 0.19651 0.00321 1.1833 0.052785 1.9729-0.21569 3.9006 2.7375 7.6876 5.9656 8.5617 0.47315 0.16955 1.1766 0.16348 1.7751 0.18018-0.70593-0.20202-0.79706-0.1069-1.4851-0.3467-0.49612-0.23392-0.60473-0.50068-0.95636-0.8058l0.13917 0.24588c-0.68922-0.24399-0.40081-0.3019-0.96168-0.47943l0.14867-0.19385c-0.22348-0.01709-0.59182-0.37632-0.69245-0.57587l-0.24455 0.0097c-0.29354-0.3619-0.45018-0.62335-0.43859-0.82594l-0.078984 0.14088c-0.089429-0.1536-1.0805-1.3591-0.56638-1.0784-0.095503-0.086964-0.22253-0.14183-0.36018-0.39227l0.10462-0.11943c-0.24702-0.31841-0.4553-0.72644-0.43935-0.86238 0.13196 0.1781 0.22347 0.21151 0.31423 0.24208-0.62485-1.5501-0.65998-0.085244-1.1329-1.5778l0.099871-8e-3c-0.076519-0.11594-0.12341-0.24107-0.18493-0.36429l0.043671-0.43385c-0.44961-0.51948-0.12569-2.211-0.060567-3.1385 0.044616-0.37708 0.37537-0.77865 0.62656-1.4084l-0.15303-0.026199c0.29278-0.51036 1.6712-2.0504 2.3099-1.9714 0.30929-0.38847-0.061521-0.0015111-0.12209-0.099111 0.67954-0.70308 0.89314-0.49669 1.3517-0.62334 0.49423-0.29335-0.42436 0.11468-0.19006-0.11183 0.85498-0.21816 0.60568-0.49632 1.7208-0.60701 0.11772 0.066829-0.27284 0.10329-0.37081 0.19006 0.712-0.3486 2.2535-0.26904 3.2553 0.19329 1.1614 0.54321 2.4671 2.1482 2.5188 3.6582l0.05867 0.015763c-0.02962 0.60036 0.0919 1.2947-0.11905 1.9323l0.14259-0.30208" fill="#fff"/>
 </g>
</svg>
