<?xml version="1.0" encoding="UTF-8"?>
<svg id="svg2" width="24" height="24" version="1.0" xmlns="http://www.w3.org/2000/svg" xmlns:cc="http://creativecommons.org/ns#" xmlns:dc="http://purl.org/dc/elements/1.1/" xmlns:rdf="http://www.w3.org/1999/02/22-rdf-syntax-ns#" xmlns:xlink="http://www.w3.org/1999/xlink">
 <defs id="defs4">
  <linearGradient id="linearGradient3335" x1="11.375" x2="11.375" y1="22" y2="-9.8173" gradientUnits="userSpaceOnUse">
   <stop id="stop3330" offset="0"/>
   <stop id="stop3333" stop-opacity="0" offset="1"/>
  </linearGradient>
  <linearGradient id="linearGradient3181" x1="-3.0608" x2="-3.0608" y1="27.258" y2="7.2537" gradientTransform="translate(12.119 -7.2582)" gradientUnits="userSpaceOnUse">
   <stop id="stop4110" stop-color="#8983ac" offset="0"/>
   <stop id="stop4112" stop-color="#ceccdd" offset="1"/>
  </linearGradient>
  <filter id="filter3194" x="-.18" y="-.18" width="1.36" height="1.36" color-interpolation-filters="sRGB">
   <feGaussianBlur id="feGaussianBlur3196" stdDeviation="1.2"/>
  </filter>
  <clipPath id="clipPath2849">
   <rect id="rect2851" x="1" y="1" width="20" height="20" rx="2" ry="2" fill="#fff" fill-rule="evenodd"/>
  </clipPath>
  <linearGradient id="linearGradient3845" x1="11" x2="21" y1="19.5" y2="19.5" gradientTransform="translate(1,-1)" gradientUnits="userSpaceOnUse" spreadMethod="reflect">
   <stop id="stop3833" stop-color="#fff" offset="0"/>
   <stop id="stop3821" stop-color="#fff" stop-opacity=".49804" offset=".75"/>
   <stop id="stop3835" stop-color="#fff" stop-opacity="0" offset="1"/>
  </linearGradient>
  <linearGradient id="linearGradient3961" x1="10" x2="10" y1="1" y2="16" gradientTransform="translate(1,-1)" gradientUnits="userSpaceOnUse">
   <stop id="stop3825" stop-color="#fff" offset="0"/>
   <stop id="stop3829" stop-color="#fff" stop-opacity="0" offset="1"/>
  </linearGradient>
  <linearGradient id="linearGradient2994" x1="783.86" x2="1099.7" y1="-313.52" y2="1340.6" gradientTransform="matrix(1.2371 0 0 1.2371 -1037.4 -1010.4)" gradientUnits="userSpaceOnUse" xlink:href="#linearGradient3004"/>
  <linearGradient id="linearGradient3004">
   <stop id="stop3006" stop-color="#fff" offset="0"/>
   <stop id="stop7609" stop-color="#fff" offset=".34214"/>
   <stop id="stop7599" stop-color="#bebdf3" offset=".51998"/>
   <stop id="stop7611" stop-color="#8f82f9" offset=".75409"/>
   <stop id="stop7613" stop-color="#9f99c7" offset=".87114"/>
   <stop id="stop3008" stop-color="#524c76" offset="1"/>
  </linearGradient>
  <linearGradient id="linearGradient2986" x1="464.02" x2="368.62" y1="697.44" y2="269.71" gradientTransform="matrix(1.2371 0 0 1.2371 -161.09 -377.34)" gradientUnits="userSpaceOnUse" xlink:href="#linearGradient3004"/>
  <radialGradient id="radialGradient5851" cx="49.53" cy="320.09" r="31.949" gradientTransform="matrix(3.2874 0 0 2.5197 111.69 -642.72)" gradientUnits="userSpaceOnUse" xlink:href="#linearGradient3004"/>
  <radialGradient id="radialGradient3228" cx="332.72" cy="590.59" r="218.02" gradientTransform="matrix(-.06604 4.1903 -3.5738 -.056268 2168.2 -1171.4)" gradientUnits="userSpaceOnUse" xlink:href="#linearGradient3004"/>
 </defs>
 <metadata id="metadata7">
  <rdf:RDF>
   <cc:Work rdf:about="">
    <dc:format>image/svg+xml</dc:format>
    <dc:type rdf:resource="http://purl.org/dc/dcmitype/StillImage"/>
    <dc:title/>
   </cc:Work>
  </rdf:RDF>
 </metadata>
 <g id="layer1" transform="translate(0,2)">
  <g id="g3337" transform="translate(1,-1)">
   <rect id="rect3371" x=".5" y=".5" width="21" height="21.5" rx="2.5" ry="2.5" fill="url(#linearGradient3335)" opacity=".3"/>
   <rect id="rect2553" x="1" y="2" width="20" height="20" rx="2.381" ry="2.3256" opacity=".5"/>
  </g>
  <rect id="rect3173" x="2" width="20" height="20" rx="2" ry="2" fill="url(#linearGradient3181)" fill-rule="evenodd"/>
  <path id="path3018" d="m-26-1.8e-7c-1.108 0-2 0.892-2 2v1c0-1.108 0.892-2 2-2h16c1.108 0 2 0.892 2 2v-1c0-1.108-0.892-2-2-2h-16z" fill="#fff" fill-rule="evenodd" opacity=".25"/>
  <path id="path3020" d="m-26 20c-1.108 0-2-0.892-2-2v-1c0 1.108 0.892 2 2 2h16c1.108 0 2-0.892 2-2v1c0 1.108-0.892 2-2 2h-16z" fill-rule="evenodd" opacity=".15"/>
  <path id="rect3050" d="m4 0c-1.108 0-2 0.892-2 2v16c0 1.108 0.892 2 2 2h16c1.108 0 2-0.892 2-2v-16c0-1.108-0.892-2-2-2h-16zm0 1.0312h16c0.5497 0 0.96875 0.41905 0.96875 0.96875v16c0 0.5497-0.41905 0.96875-0.96875 0.96875h-16c-0.5497 0-0.96875-0.41905-0.96875-0.96875v-16c0-0.5497 0.41905-0.96875 0.96875-0.96875z" fill="url(#linearGradient3961)" fill-rule="evenodd" opacity=".35"/>
  <path id="path3235" d="m4 20c-1.108 0-2-0.892-2-2v-1c0 1.108 0.892 2 2 2h16c1.108 0 2-0.892 2-2v1c0 1.108-0.892 2-2 2h-16z" fill="url(#linearGradient3845)" fill-rule="evenodd" opacity=".2"/>
 </g>
 <g id="layer2" transform="translate(0,2)">
  <rect id="rect2410" transform="translate(1,-1)" x="3" y="3" width="16" height="16" rx="2" ry="2" clip-path="url(#clipPath2849)" fill="#fff" filter="url(#filter3194)" opacity=".15"/>
 </g>
 <g id="layer3" transform="translate(0,2)">
  <path id="path4106" d="m10.531 1.5312c-0.29619 0.0075465-0.63264 0.037998-0.9375 0.09375-1.6687 0.30516-3.0802 1.1631-4.0938 2.1875-1.0102 1.021-1.6308 2.1721-1.75 3.3125-0.12433 1.1893 0.4585 2.0754 0.8125 2.4688 0.53549 0.59495 1.2092 0.95354 1.8438 1.2812-0.50979 0.43991-1.028 0.88557-1.375 1.25-0.89492 0.93974-1.622 1.9678-1.625 3.125-3.364e-4 0.11863 0.00843 0.36827 0.03125 0.6875 0.023352 0.32671 0.078084 0.76513 0.3125 1.2188 0.080002 0.15481 0.56486 1.1614 1.7188 1.8125 0.82459 0.46527 1.8233 0.57868 2.8125 0.4375 2.9175-0.41637 6.2741-2.6412 8.75-4.6875 1.5826-1.308 2.7294-2.4611 3.2188-3.375 0.44167-0.82491 0.47294-1.817 0.25-2.625-0.33699-1.2214-1.4426-2.3926-2.7812-3.5938-1.3477-1.2092-2.9688-2.3601-4.5312-3.0625-0.82346-0.37021-1.7448-0.55448-2.6562-0.53125z" fill-rule="evenodd" opacity=".05"/>
  <path id="path4102" d="m10.531 2.0312c-0.26005 0.0066257-0.56127 0.042091-0.84375 0.09375-1.5546 0.28431-2.8655 1.0741-3.8125 2.0312s-1.5221 2.0469-1.625 3.0312c-0.10394 0.9942 0.40017 1.7433 0.6875 2.0625 0.62287 0.69202 1.5665 1.1373 2.3438 1.5312-0.76892 0.66313-1.4298 1.2201-1.875 1.6875-0.85806 0.90104-1.4976 1.8575-1.5 2.7812-1.871e-4 0.06598 0.00927 0.34877 0.03125 0.65625 0.021978 0.30748 0.065834 0.67487 0.25 1.0312 0.091118 0.17632 0.50977 1.0174 1.5312 1.5938 0.69696 0.39325 1.5978 0.50376 2.5 0.375 2.7099-0.38674 6.0608-2.5779 8.5-4.5938 1.559-1.2885 2.6862-2.4576 3.0938-3.2188 0.35635-0.66555 0.37792-1.5599 0.1875-2.25-0.27765-1.0063-1.3109-2.1646-2.625-3.3438s-2.9125-2.2972-4.4062-2.9688c-0.75457-0.33924-1.6092-0.52111-2.4375-0.5z" fill-rule="evenodd" opacity=".15"/>
  <path id="path4050" d="m10.531 2.4898c-0.25354 0.00646-0.50901 0.018429-0.75 0.0625-2.8971 0.52981-4.9211 3.0362-5.0938 4.6875-0.0847 0.8102 0.35283 1.4198 0.59375 1.6875 0.65112 0.72341 1.9469 1.2922 2.7812 1.75-1.2062 1.0285-1.7677 1.5216-2.3125 2.0938-0.81528 0.85612-1.3732 1.7938-1.375 2.4688-6.164e-4 0.21741-0.064062 0.92148 0.21875 1.4688 0.10635 0.2058 0.43231 0.89196 1.3438 1.4062 0.58254 0.32869 1.4063 0.4597 2.2188 0.34375 2.5145-0.35886 5.8781-2.5139 8.2812-4.5 1.5316-1.2658 2.6454-2.4898 2.9688-3.0938 0.26092-0.48731 0.3076-1.3577 0.15625-1.9063-0.42998-1.5584-3.9236-4.7465-6.7812-6.0312-0.68316-0.30713-1.4894-0.45689-2.25-0.4375zm0.84375 5.0312c0.43071-0.040086 1.2586 0.2102 1.1875 0.4375-0.23106 0.11869-0.9532-0.00562-1.4062-0.34375 0.03802-0.054473 0.11107-0.083729 0.21875-0.09375z" fill-rule="evenodd" opacity=".3"/>
  <g id="g3143" transform="matrix(.025703 0 0 .025703 4.3578 2)">
   <g id="layer2-3" transform="translate(-25.691 -25.521)">
    <path id="path2973" d="m25.757 521.91c0.06818-26.26 22.392-62.924 54.112-96.233 21.198-22.26 42.727-41.799 89.657-81.813-32.462-17.812-82.951-39.304-108.28-67.449-9.3735-10.414-26.363-34.008-23.068-65.53 6.7164-64.246 86.015-161.75 198.73-182.36 37.504-6.8587 80.564-1.9078 116 14.025 111.18 49.984 247.15 174.16 263.88 234.79 5.8884 21.342 4.7566 55.36-5.3948 74.32-12.581 23.498-56.136 71.225-115.72 120.47-93.499 77.274-224.52 160.25-322.35 174.21-31.611 4.5114-63.908-0.19399-86.572-12.983-35.461-20.009-47.232-46.723-51.37-54.73-11.003-21.292-9.6375-48.267-9.6135-56.726zm263.14-295.04c1.2074-14.889 59.593-0.0658 55.904 11.725-3.892 12.44-57.289 5.3554-55.904-11.725z" fill="url(#linearGradient2994)" fill-rule="evenodd"/>
   </g>
   <g id="layer4-8" transform="translate(-25.691 -25.521)" fill-rule="evenodd">
    <path id="path2975" d="m201.13 319.26c-30.724 25.941-51.152 43.432-76.763 66.84-61.676 56.371-103.58 99.279-81.977 157.93 24.923 67.661 79.556 64.23 143.62 51.654 165.14-32.57 436.59-241.26 422.76-318.34-11.195-62.371-162.85-186.37-252.65-230.5-28.052-13.785-60.382-20.915-92.809-19.389-123.47 5.8276-219.89 118.24-214.97 179.15 4.792 59.256 154.56 110.89 152.79 112.65zm-18.534-206.86c-37.153 41.336-13.399 121.31 48.215 164.9 72.095 51.007 188.84 60.243 212.08 20.906 43.335-73.373-3.9803-150.96-74.611-185.56-69.795-34.199-162.52-26.012-185.68-0.24497z" fill="url(#linearGradient2986)"/>
    <path id="path4976" d="m309.3 275.57c52.159 7.2499 97.117-13.639 104.15-65.143 5.3554-39.234-54.689-82.1-90.79-91.987-30.146-8.2561-95.595 2.3603-100.01 59.378-4.5868 59.272 56.237 93.525 86.65 97.752zm-25.543-98.581c-34.279 53.104 49.77 69.43 62.638 59.746 55.477-41.753-47.536-83.142-62.638-59.746z" fill="url(#radialGradient5851)"/>
   </g>
   <g id="layer5-1" transform="translate(-25.691 -25.521)">
    <path id="path2977" d="m253.35 41.57c-60.634 6.3898-72.246 14.194-127.18 55.753-18.41 13.929-52.293 47.819-60.975 88.026-3.3065 15.313 0.60194 28.533 11.63 37.804 35.313 29.688 94.416 53.774 142.9 77.057 14.202 6.8196 4.7987 19.185-18.104 39.013-57.792 50.032-135.93 110.93-141.38 157.34-2.5704 21.868 4.9161 51.583 31.459 66.79 31.007 17.764 95.372 6.1696 138.35-9.835 62.806-23.388 145.31-75.004 210.81-125.74 68.11-52.76 131.44-119.77 134.57-130.7 3.8467-13.421 3.4632-25.818-3.9604-40.071-11.658-22.382-27.243-39.013-43.978-57.628-44.903-47.339-92.412-88.934-149.25-120.81-41.048-23.018-77.163-42.026-124.89-36.996zm89.068 106.13c43.805 21.179 88.79 76.807-0.39035 108.82-24.25 8.7064-101.16-21.382-98.804-62.444 3.4332-60.656 45.707-72.24 99.194-46.381z" fill="url(#radialGradient3228)" fill-rule="evenodd"/>
   </g>
  </g>
 </g>
</svg>
