<?xml version="1.0" encoding="UTF-8"?>
<svg id="svg2" width="24" height="24" version="1.0" xmlns="http://www.w3.org/2000/svg" xmlns:cc="http://creativecommons.org/ns#" xmlns:dc="http://purl.org/dc/elements/1.1/" xmlns:rdf="http://www.w3.org/1999/02/22-rdf-syntax-ns#" xmlns:xlink="http://www.w3.org/1999/xlink">
 <defs id="defs4">
  <linearGradient id="linearGradient3845-9" x1="11" x2="21" y1="19.5" y2="19.5" gradientTransform="translate(1,-1)" gradientUnits="userSpaceOnUse" spreadMethod="reflect">
   <stop id="stop3833-2" stop-color="#fff" offset="0"/>
   <stop id="stop3821-4" stop-color="#fff" stop-opacity=".49804" offset=".75"/>
   <stop id="stop3835-9" stop-color="#fff" stop-opacity="0" offset="1"/>
  </linearGradient>
  <linearGradient id="linearGradient3078-0" x1="10" x2="10" y1="5" y2="16" gradientTransform="translate(1,-1)" gradientUnits="userSpaceOnUse">
   <stop id="stop3825-4" stop-color="#fff" offset="0"/>
   <stop id="stop3829-4" stop-color="#fff" stop-opacity="0" offset="1"/>
  </linearGradient>
  <linearGradient id="linearGradient3668-3" x1="10.872" x2="10.872" y1="24.123" y2="6.123" gradientTransform="translate(-.74004 -4.123)" gradientUnits="userSpaceOnUse">
   <stop id="stop3189-5" stop-color="#c29656" offset="0"/>
   <stop id="stop3191-1" stop-color="#ddbf8b" offset="1"/>
  </linearGradient>
  <linearGradient id="linearGradient3861" x1="48.036" x2="48.036" y1="25.911" y2="85.821" gradientTransform="matrix(.21953 0 0 .21953 1.3371 .17761)" gradientUnits="userSpaceOnUse">
   <stop id="stop3319-8" stop-color="#c6953a" offset="0"/>
   <stop id="stop3321-0" stop-color="#ab7a1f" offset="1"/>
  </linearGradient>
  <linearGradient id="linearGradient3842" x1="11.375" x2="11.375" y1="20" y2="-11" gradientTransform="translate(1,3)" gradientUnits="userSpaceOnUse">
   <stop id="stop3330" offset="0"/>
   <stop id="stop3333" stop-opacity="0" offset="1"/>
  </linearGradient>
 </defs>
 <metadata id="metadata7">
  <rdf:RDF>
   <cc:Work rdf:about="">
    <dc:format>image/svg+xml</dc:format>
    <dc:type rdf:resource="http://purl.org/dc/dcmitype/StillImage"/>
   </cc:Work>
  </rdf:RDF>
 </metadata>
 <g id="layer2" transform="translate(0,2)">
  <path id="rect3371" transform="translate(0,-2)" d="m4.5 1.5c-1.097 0-2 0.903-2 2v0.5c-0.61148 0.45491-1 1.1759-1 2v14.5c0 1.385 1.115 2.5 2.5 2.5h16c1.385 0 2.5-1.115 2.5-2.5v-14.5c0-0.86562-0.42896-1.6141-1.0938-2.0625-0.2459-0.82631-1.0047-1.4375-1.9062-1.4375h-7.375c-0.34968-0.56782-0.91215-1-1.625-1h-6z" fill="url(#linearGradient3842)" opacity=".3"/>
  <rect id="rect5478" x="2" y="5" width="20" height="16" rx="2" ry="2" opacity=".4"/>
  <rect id="rect3352" x="3.6499" y="5.2581" width="16.464" height="13.76" rx="1.3172" ry="1.3172" fill="url(#linearGradient3861)"/>
  <path id="rect3043" d="m4.5 0c-0.831 0-1.5 0.669-1.5 1.5v1 1 2c0 0.831 0.669 1.5 1.5 1.5h15c0.831 0 1.5-0.669 1.5-1.5v-3c0-0.831-0.669-1.5-1.5-1.5h-7.5938c-0.20326-0.58702-0.74838-1-1.4062-1h-6z" color="#000000" fill="#c4995a"/>
  <path id="path3050" d="m4 1c-0.3511 0-0.68254 0.092374-0.96875 0.25-0.012936 0.079539-0.03125 0.16669-0.03125 0.25v1 1 2c0 0.831 0.669 1.5 1.5 1.5h15c0.831 0 1.5-0.669 1.5-1.5v-3c0-0.831-0.669-1.5-1.5-1.5h-7.5938-7.9062z" color="#000000" opacity=".1"/>
  <rect id="rect3660" x="2" y="2" width="20" height="18" rx="2" ry="2" fill="url(#linearGradient3668-3)"/>
  <path id="rect3050" d="m4 2c-1.108 0-2 0.892-2 2v14c0 1.108 0.892 2 2 2h16c1.108 0 2-0.892 2-2v-14c0-1.108-0.892-2-2-2zm0 1.0312h16c0.5497 0 0.96875 0.41905 0.96875 0.96875v14c0 0.5497-0.41905 0.96875-0.96875 0.96875h-16c-0.5497 0-0.96875-0.41905-0.96875-0.96875v-14c0-0.5497 0.41905-0.96875 0.96875-0.96875z" fill="url(#linearGradient3078-0)" fill-rule="evenodd" opacity=".2"/>
  <path id="path3235" d="m4 20c-1.108 0-2-0.892-2-2v-1c0 1.108 0.892 2 2 2h16c1.108 0 2-0.892 2-2v1c0 1.108-0.892 2-2 2z" fill="url(#linearGradient3845-9)" fill-rule="evenodd" opacity=".2"/>
  <rect id="rect3884" x="32" y="-2" width="8" height="8" color="#000000" fill="#bd8e48"/>
 </g>
</svg>
