<?xml version="1.0" encoding="UTF-8"?>
<svg id="svg2" width="24" height="24" version="1.0" xmlns="http://www.w3.org/2000/svg" xmlns:cc="http://creativecommons.org/ns#" xmlns:dc="http://purl.org/dc/elements/1.1/" xmlns:rdf="http://www.w3.org/1999/02/22-rdf-syntax-ns#" xmlns:xlink="http://www.w3.org/1999/xlink">
 <defs id="defs4">
  <linearGradient id="linearGradient3845-9" x1="11" x2="21" y1="19.5" y2="19.5" gradientTransform="translate(1,-1)" gradientUnits="userSpaceOnUse" spreadMethod="reflect">
   <stop id="stop3833-2" stop-color="#fff" offset="0"/>
   <stop id="stop3821-4" stop-color="#fff" stop-opacity=".49804" offset=".75"/>
   <stop id="stop3835-9" stop-color="#fff" stop-opacity="0" offset="1"/>
  </linearGradient>
  <linearGradient id="linearGradient3078-0" x1="10" x2="10" y1="5" y2="16" gradientTransform="translate(1,-1)" gradientUnits="userSpaceOnUse">
   <stop id="stop3825-4" stop-color="#fff" offset="0"/>
   <stop id="stop3829-4" stop-color="#fff" stop-opacity="0" offset="1"/>
  </linearGradient>
  <linearGradient id="linearGradient3668-3" x1="10.872" x2="10.872" y1="24.123" y2="6.123" gradientTransform="translate(-.74004 -4.123)" gradientUnits="userSpaceOnUse">
   <stop id="stop3189-5" stop-color="#c29656" offset="0"/>
   <stop id="stop3191-1" stop-color="#ddbf8b" offset="1"/>
  </linearGradient>
  <linearGradient id="linearGradient3861" x1="48.036" x2="48.036" y1="25.911" y2="85.821" gradientTransform="matrix(.21953 0 0 .21953 1.3371 .17761)" gradientUnits="userSpaceOnUse">
   <stop id="stop3319-8" stop-color="#c6953a" offset="0"/>
   <stop id="stop3321-0" stop-color="#ab7a1f" offset="1"/>
  </linearGradient>
  <linearGradient id="linearGradient3842" x1="11.375" x2="11.375" y1="20" y2="-11" gradientTransform="translate(1,3)" gradientUnits="userSpaceOnUse">
   <stop id="stop3330" offset="0"/>
   <stop id="stop3333" stop-opacity="0" offset="1"/>
  </linearGradient>
 </defs>
 <metadata id="metadata7">
  <rdf:RDF>
   <cc:Work rdf:about="">
    <dc:format>image/svg+xml</dc:format>
    <dc:type rdf:resource="http://purl.org/dc/dcmitype/StillImage"/>
    <dc:title/>
   </cc:Work>
  </rdf:RDF>
 </metadata>
 <g id="layer2" transform="translate(0,2)">
  <path id="rect3371" transform="translate(0,-2)" d="m4.5 1.5c-1.097 0-2 0.903-2 2v0.5c-0.61148 0.45491-1 1.1759-1 2v14.5c0 1.385 1.115 2.5 2.5 2.5h16c1.385 0 2.5-1.115 2.5-2.5v-14.5c0-0.86562-0.42896-1.6141-1.0938-2.0625-0.2459-0.82631-1.0047-1.4375-1.9062-1.4375h-7.375c-0.34968-0.56782-0.91215-1-1.625-1h-6z" fill="url(#linearGradient3842)" opacity=".3"/>
  <rect id="rect5478" x="2" y="5" width="20" height="16" rx="2" ry="2" opacity=".4"/>
  <rect id="rect3352" x="3.6499" y="5.2581" width="16.464" height="13.76" rx="1.3172" ry="1.3172" fill="url(#linearGradient3861)"/>
  <path id="rect3043" d="m4.5 0c-0.831 0-1.5 0.669-1.5 1.5v1 1 2c0 0.831 0.669 1.5 1.5 1.5h15c0.831 0 1.5-0.669 1.5-1.5v-3c0-0.831-0.669-1.5-1.5-1.5h-7.5938c-0.20326-0.58702-0.74838-1-1.4062-1h-6z" color="#000000" fill="#c4995a"/>
  <path id="path3050" d="m4 1c-0.3511 0-0.68254 0.092374-0.96875 0.25-0.012936 0.079539-0.03125 0.16669-0.03125 0.25v1 1 2c0 0.831 0.669 1.5 1.5 1.5h15c0.831 0 1.5-0.669 1.5-1.5v-3c0-0.831-0.669-1.5-1.5-1.5h-7.5938-7.9062z" color="#000000" opacity=".1"/>
  <rect id="rect3660" x="2" y="2" width="20" height="18" rx="2" ry="2" fill="url(#linearGradient3668-3)"/>
  <path id="rect3050" d="m4 2c-1.108 0-2 0.892-2 2v14c0 1.108 0.892 2 2 2h16c1.108 0 2-0.892 2-2v-14c0-1.108-0.892-2-2-2zm0 1.0312h16c0.5497 0 0.96875 0.41905 0.96875 0.96875v14c0 0.5497-0.41905 0.96875-0.96875 0.96875h-16c-0.5497 0-0.96875-0.41905-0.96875-0.96875v-14c0-0.5497 0.41905-0.96875 0.96875-0.96875z" fill="url(#linearGradient3078-0)" fill-rule="evenodd" opacity=".2"/>
  <path id="path3235" d="m4 20c-1.108 0-2-0.892-2-2v-1c0 1.108 0.892 2 2 2h16c1.108 0 2-0.892 2-2v1c0 1.108-0.892 2-2 2z" fill="url(#linearGradient3845-9)" fill-rule="evenodd" opacity=".2"/>
  <rect id="rect3884" transform="translate(0,-2)" x="32" width="8" height="8" color="#000000" fill="#bd8e48"/>
 </g>
 <g id="layer4" transform="translate(0,2)">
  <path id="path3716" d="m9 5c-2.1989 0-4 1.8011-4 4 0 1.4184 0.85703 2.5167 1.9688 3.2188v2.8125c0 1.0923 0.90769 2 2 2h6c0.83686 0 1.423-0.60253 1.7188-1.3438a1.0031 1.0031 0 0 0 0.03125 0.03125c-0.0077-0.0058 0.07095 0.037 0.0625 0.03125-0.0084-0.0057 0.07175 0.03685 0.0625 0.03125-0.0093-0.0056 0.07255 0.03661 0.0625 0.03125-0.01005-0.0054 0.07333 0.06751 0.0625 0.0625-0.01083-5e-3 0.07407 0.03582 0.0625 0.03125-0.01157-0.0046 0.106 4e-3 0.09375 0-0.01225-4e-3 0.07534 0.03464 0.0625 0.03125-0.01284-0.0034 0.10708 0.03392 0.09375 0.03125-0.01333-0.0027 0.07621 0.0019 0.0625 0s0.1077 1e-3 0.09375 0c-0.01395-1e-3 0.07655 0.03142 0.0625 0.03125-0.01405-1.72e-4 0.10776-6.99e-4 0.09375 0s0.10757-0.0328 0.09375-0.03125c-0.01382 0.0016 0.076-0.0024 0.0625 0s0.1068-0.03436 0.09375-0.03125c-0.0065 0.0016 0.0086 0.0061 0.03125 0-0.0051 0.0013 0.01453 0.0048 0.03125 0 0.02508-0.0072 0.03852-0.03354 0.03125-0.03125-0.01211 0.0038 0.10523-0.0044 0.09375 0s0.07328-0.03606 0.0625-0.03125c-0.01078 0.0048 0.07255-0.03642 0.0625-0.03125-0.01005 0.0052 0.07178-0.06792 0.0625-0.0625-0.0093 0.0054 0.07101-0.03684 0.0625-0.03125-0.0085 0.0056 0.07025-0.03693 0.0625-0.03125-0.0077 0.0057 0.0695-0.06818 0.0625-0.0625-7e-3 0.0057 0.06878-0.03687 0.0625-0.03125-0.0063 0.0056 0.03685-0.03675 0.03125-0.03125-0.0112 0.01101 0.10247-0.13526 0.09375-0.125-0.0087 0.01026 0.10035-0.103 0.09375-0.09375-0.0066 0.0092 0.06736-0.10185 0.0625-0.09375-0.0049 0.0081 0.06597-0.13193 0.0625-0.125-0.0035 0.0069 0.0649-0.13079 0.0625-0.125-0.0024 0.0058 0.03285-0.09851 0.03125-0.09375-0.0016 0.0048 0.03227-0.12886 0.03125-0.125-1e-3 0.0039 0.03186-0.12814 0.03125-0.125-6.11e-4 0.0031 0.03159-0.09635 0.03125-0.09375-3.38e-4 0.0026 1.52e-4 -0.12726 0-0.125-1.52e-4 0.0023 1.1e-5 -0.12714 0-0.125v-2.75c-4.3e-5 0.0033-2.91e-4 -0.15981 0-0.15625 2.91e-4 0.0036-0.03207-0.19208-0.03125-0.1875 4.11e-4 0.0023-6.18e-4 -0.09643 0-0.09375 6.18e-4 0.0027-0.03214-0.0969-0.03125-0.09375 8.95e-4 0.0031-0.03251-0.09744-0.03125-0.09375 0.0013 0.0037-0.03297-0.0668-0.03125-0.0625 0.0017 0.0043-0.03355-0.0987-0.03125-0.09375 0.0023 5e-3 -0.06552-0.09938-0.0625-0.09375 3e-3 0.0056-0.03513-0.10008-0.03125-0.09375 0.0039 0.0063-0.06741-0.0695-0.0625-0.0625 0.0049 7e-3 -0.0686-0.10136-0.0625-0.09375 0.0061 0.0076-0.06996-0.07064-0.0625-0.0625 0.0075 0.0081-0.07148-0.10227-0.0625-0.09375 9e-3 0.0085-0.1044-0.07121-0.09375-0.0625 0.01065 0.0087-0.10616-0.07116-0.09375-0.0625 0.01241 0.0087-0.10797-0.07082-0.09375-0.0625 0.01422 0.0083-0.10975-0.07015-0.09375-0.0625 0.016 0.0077-0.1114-0.0379-0.09375-0.03125 0.01765 0.0066-0.14408-0.03656-0.125-0.03125 0.01908 0.0053-0.14519-0.03493-0.125-0.03125 0.083551-0.31907 0.21875-0.6241 0.21875-0.96875 0-2.1989-1.8011-4-4-4-0.96683 0-1.7981 0.4215-2.5 1-0.70191-0.5785-1.5332-1-2.5-1zm0 1c1.0355 0 1.9609 0.51449 2.5 1.3125 0.53912-0.79801 1.4645-1.3125 2.5-1.3125 1.6569 0 3 1.3431 3 3 0 0.9003-0.40325 1.7001-1.0312 2.25v0.90625l1.3438-1.125a0.4555 0.6399 0 0 1 0.6875 0.5625v2.75a0.4555 0.6399 0 0 1-0.375 0.625 0.4555 0.6399 0 0 1-0.3125-0.0625l-1.3438-1.0938v1.2188c0 0.554-0.446 1-1 1h-6c-0.554 0-1-0.446-1-1v-3.25c-1.1391-0.42558-1.9688-1.4937-1.9688-2.7812 0-1.6569 1.3431-3 3-3zm0 2c-0.55228 0-1 0.44772-1 1 0 0.54146 0.43144 0.98292 0.96875 1 0.010746 3.42e-4 0.020421 0 0.03125 0 0.55228 0 1-0.44772 1-1s-0.44772-1-1-1zm5 0c-0.55228 0-1 0.44772-1 1s0.44772 1 1 1 1-0.44772 1-1-0.44772-1-1-1z" fill="#fff" opacity=".15"/>
  <path id="rect2880" d="m9 6c-1.6569 0-3 1.3431-3 3 0 1.2875 0.82967 2.3557 1.9688 2.7812v3.25c0 0.554 0.446 1 1 1h6c0.554 0 1-0.446 1-1v-1.2188l1.3438 1.0938a0.4555 0.6399 0 0 0 0.3125 0.0625 0.4555 0.6399 0 0 0 0.375-0.625v-2.75a0.4555 0.6399 0 0 0-0.6875-0.5625l-1.3438 1.125v-0.90625c0.628-0.54989 1.0312-1.3497 1.0312-2.25 0-1.6569-1.3431-3-3-3-1.0355 0-1.9609 0.51449-2.5 1.3125-0.53912-0.79801-1.4645-1.3125-2.5-1.3125zm0 2c0.55228 0 1 0.44772 1 1s-0.44772 1-1 1c-0.010829 0-0.020504 3.42e-4 -0.03125 0-0.53731-0.017084-0.96875-0.45854-0.96875-1 0-0.55228 0.44772-1 1-1zm5 0c0.55228 0 1 0.44772 1 1s-0.44772 1-1 1-1-0.44772-1-1 0.44772-1 1-1z" fill="#bd8e48"/>
  <path id="path3697" d="m9 6c-1.6569 0-3 1.3431-3 3 0 1.2875 0.82967 2.3557 1.9688 2.7812v3.25c0 0.554 0.446 1 1 1h6c0.554 0 1-0.446 1-1v-1.2188l1.3438 1.0938a0.4555 0.6399 0 0 0 0.3125 0.0625 0.4555 0.6399 0 0 0 0.375-0.625v-2.75a0.4555 0.6399 0 0 0-0.6875-0.5625l-1.3438 1.125v-0.90625c0.628-0.54989 1.0312-1.3497 1.0312-2.25 0-1.6569-1.3431-3-3-3-1.0355 0-1.9609 0.51449-2.5 1.3125-0.53912-0.79801-1.4645-1.3125-2.5-1.3125zm0 0.46875c0.88364 0 1.671 0.42168 2.125 1.0938a0.45863 0.45863 0 0 0 0.75 0c0.45404-0.67207 1.2414-1.0938 2.125-1.0938 1.409 0 2.5312 1.1222 2.5312 2.5312 0 0.76337-0.33961 1.4375-0.875 1.9062a0.45863 0.45863 0 0 0-0.15625 0.34375v0.90625a0.45863 0.45863 0 0 0 0.75 0.34375l1.25-1.0625h0.03125c8e-3 0.01995-0.0069 0.01095 0 0.03125 0.0059 0.0206-0.0048 0.0104 0 0.03125 0.0038 0.02105-0.0028 0.01004 0 0.03125 0.0017 0.02131-7.28e-4 0.0099 0 0.03125 7.28e-4 0.02137 2.83e-4 0.0099 0 0.03125v2.75c-1.5e-4 0.0279 0.0019 0.0034 0 0.03125-0.0019 0.02783 0.0036 0.0036 0 0.03125-0.0053 0.02739 0.0071 0.0042 0 0.03125-0.0036 0.01351 4e-3 0.01786 0 0.03125-0.0049 0.01312-0.02588 0.01829-0.03125 0.03125l-1.25-1.0312a0.45863 0.45863 0 0 0-0.75 0.34375v1.2188c0 0.30788-0.22337 0.53125-0.53125 0.53125h-6c-0.30788 0-0.53125-0.22337-0.53125-0.53125v-3.25a0.45863 0.45863 0 0 0-0.3125-0.4375c-0.97181-0.36309-1.6562-1.2532-1.6562-2.3438 0-1.409 1.1222-2.5312 2.5312-2.5312zm0 1.0625c-0.80012 0-1.4688 0.66863-1.4688 1.4688 0 0.78506 0.65718 1.4439 1.4375 1.4688 0.029208 9.3e-4 0.030076 0 0.03125 0 0.80012 0 1.4688-0.66863 1.4688-1.4688s-0.66863-1.4688-1.4688-1.4688zm5 0c-0.80012 0-1.4688 0.66863-1.4688 1.4688s0.66863 1.4688 1.4688 1.4688 1.4688-0.66863 1.4688-1.4688-0.66863-1.4688-1.4688-1.4688zm-5 0.46875c0.55228 0 1 0.44772 1 1s-0.44772 1-1 1c-0.010829 0-0.020504 3.42e-4 -0.03125 0-0.53731-0.017084-0.96875-0.45854-0.96875-1 0-0.55228 0.44772-1 1-1zm5 0c0.55228 0 1 0.44772 1 1s-0.44772 1-1 1-1-0.44772-1-1 0.44772-1 1-1z" opacity=".2"/>
  <path id="path3688" d="m9 6c-1.6569 0-3 1.3431-3 3 0 0.18523 0.029704 0.35636 0.0625 0.53125 0.23047-1.4278 1.4446-2.5312 2.9375-2.5312 1.0355 0 1.9609 0.51449 2.5 1.3125 0.53912-0.79801 1.4645-1.3125 2.5-1.3125 1.4929 0 2.707 1.1034 2.9375 2.5312 0.031683-0.17308 0.0625-0.34866 0.0625-0.53125 0-1.6569-1.3431-3-3-3-1.0355 0-1.9609 0.51449-2.5 1.3125-0.53912-0.79801-1.4645-1.3125-2.5-1.3125zm-0.84375 3.5c-0.08962 0.14987-0.15625 0.31268-0.15625 0.5 0 0.54146 0.43144 0.98292 0.96875 1 0.010746 3.42e-4 0.020421 0 0.03125 0 0.55228 0 1-0.44772 1-1 0-0.18732-0.06663-0.35013-0.15625-0.5-0.17461 0.292-0.47878 0.5-0.84375 0.5-0.010829 0-0.020504 3.42e-4 -0.03125 0-0.34799-0.01106-0.64177-0.22105-0.8125-0.5zm5 0c-0.089619 0.14987-0.15625 0.31268-0.15625 0.5 0 0.55228 0.44772 1 1 1s1-0.44772 1-1c0-0.18732-0.06663-0.35013-0.15625-0.5-0.17461 0.292-0.47878 0.5-0.84375 0.5s-0.66914-0.208-0.84375-0.5zm4.3438 1.4375a0.4555 0.6399 0 0 0-0.1875 0.09375l-0.90625 0.75c-0.0087 0.01146-0.0224 0.01992-0.03125 0.03125-0.11958 0.1532-0.26006 0.3095-0.40625 0.4375v0.90625l1.3438-1.125a0.4555 0.6399 0 0 1 0.6875 0.4375v-0.875a0.4555 0.6399 0 0 0-0.5-0.65625z" opacity=".2"/>
  <path id="path4338" transform="translate(0,-2)" d="m9 10c-0.55228 0-1 0.44772-1 1 0 0.19078 0.063365 0.34824 0.15625 0.5 0.17461-0.292 0.47878-0.5 0.84375-0.5s0.66914 0.208 0.84375 0.5c0.08962-0.14987 0.15625-0.31268 0.15625-0.5 0-0.55228-0.44772-1-1-1zm5 0c-0.55228 0-1 0.44772-1 1 0 0.18732 0.066631 0.35013 0.15625 0.5 0.17461-0.292 0.47878-0.5 0.84375-0.5s0.66914 0.208 0.84375 0.5c0.089619-0.14987 0.15625-0.31268 0.15625-0.5 0-0.55228-0.44772-1-1-1zm-7.9375 1.5312c-0.025316 0.15684-0.0625 0.30477-0.0625 0.46875 0 1.2875 0.82967 2.3557 1.9688 2.7812v-1c-0.9752-0.36435-1.7111-1.2093-1.9062-2.25zm10.875 0c-0.12454 0.68032-0.46811 1.2804-0.96875 1.7188v0.90625l0.40625-0.34375c0.008846-0.011334 0.022563-0.019789 0.03125-0.03125 0.37835-0.49913 0.59375-1.106 0.59375-1.7812 0-0.16398-0.037184-0.31191-0.0625-0.46875zm-0.96875 4.2812v1l1.3438 1.0938a0.4555 0.6399 0 0 0 0.3125 0.0625 0.4555 0.6399 0 0 0 0.375-0.625v-0.875a0.4555 0.6399 0 0 1-0.375 0.5 0.4555 0.6399 0 0 1-0.3125-0.0625l-1.3438-1.0938zm-8 1.2188v1c0 0.554 0.446 1 1 1h6c0.554 0 1-0.446 1-1v-1c0 0.554-0.446 1-1 1h-6c-0.554 0-1-0.446-1-1z" fill="#fff" opacity=".15"/>
 </g>
</svg>
