<?xml version="1.0" encoding="UTF-8"?>
<svg id="svg29" width="22" height="22" version="1.1" xmlns="http://www.w3.org/2000/svg" xmlns:cc="http://creativecommons.org/ns#" xmlns:dc="http://purl.org/dc/elements/1.1/" xmlns:rdf="http://www.w3.org/1999/02/22-rdf-syntax-ns#">
 <metadata id="metadata33">
  <rdf:RDF>
   <cc:Work rdf:about="">
    <dc:format>image/svg+xml</dc:format>
    <dc:type rdf:resource="http://purl.org/dc/dcmitype/StillImage"/>
   </cc:Work>
  </rdf:RDF>
 </metadata>
 <defs id="defs7">
  <linearGradient id="gr0" x1="11" x2="11" y1="1.99" y2="20" gradientUnits="userSpaceOnUse">
   <stop id="stop2" stop-color="#ebebeb" offset="0"/>
   <stop id="stop4" stop-color="#aaa" offset="1"/>
  </linearGradient>
 </defs>
 <path id="path9" d="m10.91 0.9512a1 1 0 0 0-0.01 0.0019l0.06 0.0391a1 1 0 0 0-0.92 0.7068c-0.782 1.924-1.259 3.183-2.124 5.031a1 1 0 0 0-0.09 0.336 1 1 0 0 0-0.25 0.325c-1.128 2.357-2.825 5.609-6.451 12.119a1 1 0 0 0 1.373 1.36c2.812-1.63 4.935-2.58 6.813-2.94a1 1 0 0 0 0.789-1.21c-0.102-0.3-0.115-0.63-0.112-0.98v-0.1c0.022-0.74 0.232-1.38 0.482-1.75s0.43-0.42 0.56-0.41c0.12 0 0.38 0.14 0.63 0.58s0.43 1.13 0.41 1.87c0 0.35 0 0.56-0.1 0.64a1 1 0 0 0 0.74 1.32c1.86 0.37 3.97 1.33 6.74 2.93a1 1 0 0 0 1.38-1.34c-0.55-1.03-1.05-1.95-1.52-2.82a1 1 0 0 0-0.27-0.32c-0.1-0.1-0.27-0.18-0.35-0.24a1 1 0 0 0-0.1-0.71c-4.8-8.939-5.08-9.941-6.73-13.831a1 1 0 0 0-0.95-0.6078zm0.09 1.0388c1.65 3.87 1.96 4.96 6.77 13.91-0.61-0.36-1.31-0.59-2.4-0.87 1.58 0.81 2.36 1.56 3.11 2.14 0.47 0.88 0.97 1.8 1.52 2.82-2.81-1.62-5-2.64-7.04-3.04 0.11-0.3 0.11-0.63 0.11-0.98 0.05-1.83-0.83-3.38-1.95-3.48-1.135-0.1-2.09 1.31-2.13 3.14v0.1c-4e-3 0.43 0.047 0.84 0.137 1.22-2.061 0.39-4.274 1.4-7.127 3.05 3.63-6.52 5.338-9.79 6.48-12.178 0.598 0.503 1.48 0.868 2.65 1.35-1.09-0.762-1.761-1.438-2.308-2.018 0.892-1.906 1.378-3.19 2.178-5.154v-0.01z" opacity=".25"/>
 <path id="base" d="m11 2c-0.8 1.964-1.286 3.249-2.178 5.155 0.547 0.58 1.218 1.255 2.308 2.017-1.172-0.482-2.051-0.846-2.649-1.349-1.142 2.387-2.851 5.657-6.481 12.177 2.853-1.65 5.065-2.66 7.126-3.05-0.09-0.38-0.139-0.79-0.135-1.22v-0.1c0.04-1.83 0.996-3.24 2.126-3.14 1.12 0.1 2 1.65 1.95 3.48 0 0.35-0 0.68-0.11 0.98 2.04 0.4 4.23 1.42 7.04 3.04-0.55-1.02-1.05-1.94-1.52-2.82-0.75-0.58-1.53-1.33-3.11-2.14 1.09 0.28 1.79 0.51 2.4 0.87-4.81-8.95-5.12-10.04-6.77-13.91z" fill="url(#gr0)"/>
 <path id="path17" d="m9.129 7.457c-0.098 0.217-0.169 0.396-0.277 0.629 0.572 0.375 1.328 0.693 2.278 1.086-0.91-0.639-1.502-1.203-2.001-1.715zm1.991 5.033c-1.135-0.1-2.09 1.31-2.13 3.14v0.1c-2e-3 0.19 0.011 0.37 0.03 0.56 0.145-1.66 1.04-2.89 2.1-2.8 1.02 0.09 1.83 1.39 1.93 3 0.02-0.16 0.02-0.34 0.02-0.52 0.05-1.83-0.83-3.38-1.95-3.48zm4.25 2.54c0.96 0.49 1.59 0.94 2.13 1.37-0.17-0.34-0.27-0.53-0.44-0.84-0.46-0.19-0.99-0.35-1.69-0.53zm-2.3 1.94c0 0.35 0 0.68-0.11 0.98 2.04 0.4 4.23 1.42 7.04 3.04-0.28-0.51-0.51-0.95-0.77-1.42-2.39-1.34-4.35-2.22-6.16-2.6zm-4.066 0.01c-1.827 0.36-3.806 1.24-6.223 2.59-0.307 0.55-0.441 0.82-0.781 1.43 2.853-1.65 5.066-2.66 7.127-3.05-0.072-0.31-0.109-0.63-0.123-0.97z" opacity=".45"/>
 <path id="path24" d="m11 1.99v0.01c-0.8 1.964-1.286 3.248-2.178 5.154 0.088 0.094 0.211 0.205 0.307 0.303 0.686-1.52 1.181-2.761 1.871-4.457v-0.01c1.55 3.631 2.05 5.05 6.06 12.57 0.26 0.1 0.49 0.21 0.71 0.34-4.81-8.95-5.12-10.04-6.77-13.91zm-2.52 5.832c-1.142 2.388-2.85 5.658-6.48 12.178 0.275-0.16 0.518-0.28 0.781-0.43 2.975-5.38 4.664-8.58 5.699-10.748 0.598 0.503 1.479 0.868 2.65 1.348-1.09-0.76-1.761-1.436-2.308-2.016 0.012-0.025 0.018-0.043 0.03-0.068-0.13-0.085-0.261-0.171-0.372-0.264zm6.89 8.208c1.58 0.81 2.36 1.56 3.11 2.14 0.23 0.44 0.5 0.93 0.75 1.4 0.26 0.14 0.5 0.27 0.77 0.42-0.55-1.02-1.05-1.94-1.52-2.82-0.29-0.23-0.63-0.5-0.98-0.77 0.11 0.2 0.16 0.29 0.27 0.5-0.61-0.36-1.31-0.59-2.4-0.87zm-6.35 0.26c-0.011 0.11-0.027 0.22-0.03 0.34v0.1c-1e-3 0.08 0.011 0.16 0.014 0.25l0.123-0.03c-0.05-0.21-0.085-0.44-0.107-0.66zm4.03 0.2c-0.01 0.16-0.04 0.31-0.09 0.46 0.04 0.01 0.07 0.02 0.11 0.02 0-0.16-0.01-0.32-0.02-0.48z" fill="#fff" opacity=".6"/>
</svg>
