<?xml version="1.0" encoding="UTF-8"?>
<svg id="svg29" width="22" height="22" version="1.1" xmlns="http://www.w3.org/2000/svg" xmlns:cc="http://creativecommons.org/ns#" xmlns:dc="http://purl.org/dc/elements/1.1/" xmlns:rdf="http://www.w3.org/1999/02/22-rdf-syntax-ns#">
 <metadata id="metadata33">
  <rdf:RDF>
   <cc:Work rdf:about="">
    <dc:format>image/svg+xml</dc:format>
    <dc:type rdf:resource="http://purl.org/dc/dcmitype/StillImage"/>
   </cc:Work>
  </rdf:RDF>
 </metadata>
 <defs id="defs7">
  <linearGradient id="gr0" x1="11" x2="11" y1="1.991" y2="18.911" gradientUnits="userSpaceOnUse">
   <stop id="stop2" stop-color="#ebebeb" offset="0"/>
   <stop id="stop4" stop-color="#aaa" offset="1"/>
  </linearGradient>
 </defs>
 <path id="path9" d="m10.2 0.9902v0.0078c-2.104 0.099-3.921 1.082-5.214 2.287s-2.183 2.58-2.064 4.049c0.07 0.842 0.571 1.435 1.099 1.91 0.529 0.475 1.147 0.856 1.745 1.186 0.316 0.17 0.56 0.27 0.845 0.41-0.351 0.31-0.74 0.63-1.111 0.97-0.914 0.83-1.739 1.58-2.309 2.48-0.569 0.9-0.807 2.08-0.39 3.21 0.45 1.22 1.37 2.02 2.375 2.28 1.004 0.25 1.995 0.1 2.976-0.11 2.728-0.54 5.968-2.37 8.608-4.38 1.32-1 2.48-2.05 3.32-3.04 0.84-1 1.52-1.91 1.3-3.109-0.14-0.788-0.58-1.423-1.14-2.104-0.55-0.682-1.26-1.377-2.03-2.053-1.55-1.351-3.35-2.609-4.8-3.322-0.98-0.475-2.08-0.7253-3.21-0.6718zm0.05 1.0058c0.95-0.045 1.89 0.167 2.72 0.572 2.64 1.298 7.1 4.925 7.43 6.76 0.41 2.262-7.58 8.412-12.439 9.372-1.884 0.37-3.488 0.45-4.221-1.54-0.635-1.73 0.618-2.96 2.432-4.61 0.753-0.69 1.35-1.21 2.254-1.97 0.052-0.05-4.365-1.584-4.506-3.326-0.145-1.792 2.697-5.087 6.33-5.258zm1.1 3.147v2e-3c-0.12-0.01-0.24-0.01-0.35 0-0.76 0.071-1.299 0.636-1.359 1.751-0.07 1.208 2.219 2.081 2.929 1.825 2.63-0.942 1.29-2.596 0-3.219-0.44-0.215-0.85-0.329-1.22-0.359zm-0.26 0.998c0.22-0.02 0.58 0.03 1.04 0.259 0.46 0.22 0.91 0.736 0.95 0.854v0.051c-0.1 0.07-0.28 0.263-0.78 0.451 0 0-0.12-2e-3 -0.27-0.022-0.22-0.04-0.5-0.138-0.74-0.263-0.24-0.126-0.45-0.286-0.55-0.401s-0.1-0.136-0.1-0.117c0-0.406 0.12-0.603 0.19-0.685 0.1-0.08 0.11-0.108 0.26-0.122v-5e-3z" opacity=".25"/>
 <path id="base" d="m10.25 1.997c-3.633 0.171-6.476 3.465-6.331 5.257 0.141 1.742 4.558 3.276 4.506 3.326-0.904 0.76-1.5 1.28-2.253 1.97-1.814 1.65-3.067 2.88-2.432 4.61 0.733 1.99 2.336 1.91 4.22 1.54 4.86-0.96 12.85-7.11 12.44-9.372-0.33-1.835-4.79-5.461-7.43-6.759-0.83-0.405-1.77-0.617-2.72-0.572zm0.75 3.147c0.45-0.04 0.98 0.07 1.57 0.357 1.29 0.623 2.63 2.277 0 3.219-0.71 0.256-2.999-0.616-2.929-1.824 0.06-1.115 0.599-1.681 1.359-1.752z" fill="url(#gr0)"/>
 <path id="path17" d="m11.35 5.143v2e-3c-0.12-0.01-0.24-0.01-0.35 0-0.76 0.071-1.299 0.636-1.359 1.751-9e-3 0.157 0.022 0.307 0.084 0.45 0.185-0.749 0.655-1.143 1.275-1.201 0.11-0.01 0.23-0.01 0.35 0v-2e-3c0.37 0.03 0.78 0.144 1.22 0.359 0.57 0.274 1.12 0.751 1.37 1.275 0.49-0.861-0.45-1.83-1.37-2.275-0.44-0.215-0.85-0.329-1.22-0.359zm-7.358 2.427c-0.061 0.244-0.089 0.474-0.072 0.684 0.103 1.28 2.498 2.436 3.75 2.986 0.251-0.22 0.453-0.41 0.756-0.66 0.049-0.05-3.842-1.402-4.434-3.01zm16.308 2.44c-0.87 2.62-7.9 7.81-12.339 8.69-1.884 0.37-3.488 0.45-4.221-1.54-0.049-0.14-0.068-0.26-0.095-0.39-0.1 0.44-0.088 0.89 0.095 1.39 0.733 1.99 2.337 1.91 4.221 1.54 4.859-0.96 12.849-7.11 12.439-9.37-0.02-0.1-0.05-0.21-0.1-0.32z" opacity=".45"/>
 <path id="path24" d="m10.25 1.996c-3.633 0.171-6.475 3.466-6.33 5.258 8e-3 0.105 0.035 0.209 0.072 0.312 0.466-1.836 3.052-4.419 6.258-4.57 0.95-0.045 1.89 0.167 2.72 0.572 2.49 1.226 6.61 4.527 7.33 6.442 0.09-0.253 0.14-0.486 0.1-0.682-0.33-1.835-4.79-5.462-7.43-6.76-0.83-0.405-1.77-0.617-2.72-0.572zm-0.525 5.35c-0.042 0.167-0.073 0.347-0.084 0.55-0.07 1.208 2.219 2.081 2.929 1.825 1.47-0.528 1.68-1.276 1.37-1.944-0.2 0.346-0.62 0.674-1.37 0.944-0.62 0.223-2.43-0.41-2.845-1.375zm-2.055 3.894c-0.499 0.43-0.998 0.85-1.498 1.31-1.672 1.52-2.848 2.69-2.527 4.22 0.244-1.08 1.236-2.05 2.527-3.22 0.753-0.69 1.35-1.21 2.254-1.97 0.014-0.01-0.304-0.14-0.756-0.34z" fill="#fff" opacity=".6"/>
</svg>
