<?xml version="1.0" encoding="UTF-8"?>
<svg id="svg25" width="22" height="22" version="1.1" xmlns="http://www.w3.org/2000/svg" xmlns:cc="http://creativecommons.org/ns#" xmlns:dc="http://purl.org/dc/elements/1.1/" xmlns:rdf="http://www.w3.org/1999/02/22-rdf-syntax-ns#">
 <metadata id="metadata29">
  <rdf:RDF>
   <cc:Work rdf:about="">
    <dc:format>image/svg+xml</dc:format>
    <dc:type rdf:resource="http://purl.org/dc/dcmitype/StillImage"/>
   </cc:Work>
  </rdf:RDF>
 </metadata>
 <defs id="defs7">
  <linearGradient id="gr0" x1="11" x2="11" y1="4" y2="18" gradientUnits="userSpaceOnUse">
   <stop id="stop2" stop-color="#ebebeb" offset="0"/>
   <stop id="stop4" stop-color="#aaa" offset="1"/>
  </linearGradient>
 </defs>
 <path id="path9" d="m3 3a1.0001 1.0001 0 0 0-1 1v4a1.0001 1.0001 0 0 0 1 1h1v5c0 2.7527 2.2473 5 5 5h10a1.0001 1.0001 0 0 0 1-1v-10c0-2.7527-2.2473-5-5-5h-12zm0 1h12c2.216 0 4 1.784 4 4v10h-10c-2.216 0-4-1.784-4-4v-5c0-0.554-0.446-1-1-1h-1v-4zm4 2v8c0 1.108 0.892 2 2 2h6c1.108 0 2-0.892 2-2v-4c0-1.1046-0.8954-2-2-2-0.6008 0-1.1334 0.27006-1.5 0.68945-0.3666-0.41939-0.8992-0.68945-1.5-0.68945-1.1046 0-2 0.8954-2 2v3h1v-3c0-0.55228 0.4477-1 1-1s1 0.44772 1 1v3h1v-3c0-0.55228 0.4477-1 1-1s1 0.44772 1 1v4c0 0.554-0.446 1-1 1h-6c-0.554 0-1-0.446-1-1v-8h-1z" opacity=".25"/>
 <path id="base" d="m3 4v4h1c0.554 0 1 0.446 1 1v5c0 2.216 1.784 4 4 4h10v-10c0-2.216-1.784-4-4-4h-12zm4 2h1v8c0 0.554 0.446 1 1 1h6c0.554 0 1-0.446 1-1v-4c0-0.55228-0.44772-1-1-1s-1 0.44772-1 1v3h-1v-3c0-0.55228-0.44772-1-1-1s-1 0.44772-1 1v3h-1v-3c0-1.1046 0.89543-2 2-2 0.6008 0 1.1334 0.27006 1.5 0.68945 0.36661-0.41939 0.8992-0.68945 1.5-0.68945 1.1046 0 2 0.89543 2 2v4c0 1.108-0.892 2-2 2h-6c-1.108 0-2-0.892-2-2v-8z" fill="url(#gr0)"/>
 <path id="path15" d="m7 6v1h1v-1h-1zm-4 2v1h1c0.554 0 1 0.446 1 1v-1c0-0.554-0.446-1-1-1h-1zm9 0c-1.1046 0-2 0.8954-2 2v1c0-1.1046 0.8954-2 2-2 0.6008 0 1.1334 0.27006 1.5 0.68945 0.3666-0.41939 0.8992-0.68945 1.5-0.68945 1.1046 0 2 0.89543 2 2v-1c0-1.1046-0.8954-2-2-2-0.6008 0-1.1334 0.27006-1.5 0.68945-0.3666-0.41939-0.8992-0.68945-1.5-0.68945zm-7 6v1c0 2.216 1.784 4 4 4h10v-1h-10c-2.216 0-4-1.784-4-4zm3 0v1c0 0.554 0.446 1 1 1h6c0.554 0 1-0.446 1-1v-1c0 0.554-0.446 1-1 1h-6c-0.554 0-1-0.446-1-1z" opacity=".45"/>
 <path id="path20" d="m3 4v1h12c2.216 0 4 1.784 4 4v-1c0-2.216-1.784-4-4-4h-12zm9 5c-0.5523 0-1 0.44772-1 1v1c0-0.5523 0.4477-1 1-1s1 0.4477 1 1v-1c0-0.55228-0.4477-1-1-1zm3 0c-0.5523 0-1 0.44772-1 1v1c0-0.5523 0.4477-1 1-1s1 0.4477 1 1v-1c0-0.55228-0.4477-1-1-1zm-5 4v1h1v-1h-1zm3 0v1h1v-1h-1zm-6 1v1c0 1.108 0.892 2 2 2h6c1.108 0 2-0.892 2-2v-1c0 1.108-0.892 2-2 2h-6c-1.108 0-2-0.892-2-2z" fill="#fff" opacity=".6"/>
</svg>
