<?xml version="1.0" encoding="UTF-8"?>
<svg id="svg2" width="24" height="24" version="1.0" xmlns="http://www.w3.org/2000/svg" xmlns:cc="http://creativecommons.org/ns#" xmlns:dc="http://purl.org/dc/elements/1.1/" xmlns:rdf="http://www.w3.org/1999/02/22-rdf-syntax-ns#" xmlns:xlink="http://www.w3.org/1999/xlink">
 <defs id="defs4">
  <linearGradient id="linearGradient7175">
   <stop id="stop7177" offset="0"/>
   <stop id="stop7179" stop-opacity="0" offset="1"/>
  </linearGradient>
  <linearGradient id="linearGradient7155">
   <stop id="stop7157" stop-color="#fff" offset="0"/>
   <stop id="stop7159" stop-color="#fff" stop-opacity="0" offset="1"/>
  </linearGradient>
  <linearGradient id="linearGradient3335" x1="11.375" x2="11.375" y1="22" y2="-9.8173" gradientUnits="userSpaceOnUse">
   <stop id="stop3330" offset="0"/>
   <stop id="stop3333" stop-opacity="0" offset="1"/>
  </linearGradient>
  <linearGradient id="linearGradient3181" x1="-3.0608" x2="-3.0608" y1="27.258" y2="7.2537" gradientTransform="matrix(0 1 -1 0 29.258 10.119)" gradientUnits="userSpaceOnUse">
   <stop id="stop3174" stop-color="#a0a0a0" offset="0"/>
   <stop id="stop3188" stop-color="#dcdcdc" offset=".13621"/>
   <stop id="stop3180" stop-color="#f5f5f5" offset=".30236"/>
   <stop id="stop3190" stop-color="#dcdcdc" offset=".61225"/>
   <stop id="stop3176" stop-color="#b4b4b4" offset="1"/>
  </linearGradient>
  <linearGradient id="linearGradient4303" x1="-3.0608" x2="-3.0608" y1="27.258" y2="7.2537" gradientTransform="translate(12.119 -7.2582)" gradientUnits="userSpaceOnUse">
   <stop id="stop3189" stop-opacity=".15294" offset="0"/>
   <stop id="stop3191" stop-color="#fff" stop-opacity="0" offset="1"/>
  </linearGradient>
  <linearGradient id="linearGradient3845" x1="11" x2="21" y1="19.5" y2="19.5" gradientTransform="translate(1,-1)" gradientUnits="userSpaceOnUse" spreadMethod="reflect">
   <stop id="stop3833" stop-color="#fff" offset="0"/>
   <stop id="stop3821" stop-color="#fff" stop-opacity=".49804" offset=".75"/>
   <stop id="stop3835" stop-color="#fff" stop-opacity="0" offset="1"/>
  </linearGradient>
  <linearGradient id="linearGradient3101" x1="10" x2="10" y1="1" y2="16" gradientTransform="translate(1,-1)" gradientUnits="userSpaceOnUse">
   <stop id="stop3825" stop-color="#fff" offset="0"/>
   <stop id="stop3829" stop-color="#fff" stop-opacity="0" offset="1"/>
  </linearGradient>
  <linearGradient id="linearGradient3159" x1="26.985" x2="26.985" y1="5" y2="110.74" gradientTransform="matrix(.16899 0 0 .16899 40.851 .15508)" gradientUnits="userSpaceOnUse" xlink:href="#linearGradient7155"/>
  <linearGradient id="linearGradient3161" x1="26.985" x2="26.985" y1="54.295" y2="96.04" gradientTransform="matrix(.068362 0 0 -.16899 37.834 21.785)" gradientUnits="userSpaceOnUse" spreadMethod="reflect" xlink:href="#linearGradient7155"/>
  <linearGradient id="linearGradient3163" x1="26.985" x2="26.985" y1="5" y2="68.695" gradientTransform="matrix(.084084 0 0 -.16899 31.7 21.785)" gradientUnits="userSpaceOnUse" xlink:href="#linearGradient7155"/>
  <linearGradient id="linearGradient3165" x1="26.985" x2="26.985" y1="5" y2="70.167" gradientTransform="matrix(.22873 0 0 -.16899 30.73 21.785)" gradientUnits="userSpaceOnUse" xlink:href="#linearGradient7175"/>
  <linearGradient id="linearGradient3167" x1="26.985" x2="26.985" y1="5" y2="120.64" gradientTransform="matrix(.18471 0 0 -.16899 37.053 21.845)" gradientUnits="userSpaceOnUse" xlink:href="#linearGradient7175"/>
  <linearGradient id="linearGradient3169" x1="26.985" x2="26.985" y1="5" y2="68.695" gradientTransform="matrix(.033772 0 0 .16899 47.747 .15508)" gradientUnits="userSpaceOnUse" xlink:href="#linearGradient7155"/>
  <linearGradient id="linearGradient3171" x1="26.985" x2="26.985" y1="5" y2="176.65" gradientTransform="matrix(.066863 0 0 .16899 45.831 .21479)" gradientUnits="userSpaceOnUse" xlink:href="#linearGradient7175"/>
  <linearGradient id="linearGradient3173" x1="26.985" x2="26.985" y1="5" y2="110.67" gradientTransform="matrix(.021194 0 0 .16899 31.983 .15508)" gradientUnits="userSpaceOnUse" xlink:href="#linearGradient7155"/>
  <linearGradient id="linearGradient3957" x1="11" x2="22" y1="5.5" y2="5.5" gradientUnits="userSpaceOnUse" spreadMethod="reflect" xlink:href="#linearGradient7155"/>
  <linearGradient id="linearGradient3961" x1="11" x2="22" y1="5.5" y2="5.5" gradientTransform="translate(0,-2)" gradientUnits="userSpaceOnUse" spreadMethod="reflect" xlink:href="#linearGradient7155"/>
  <radialGradient id="radialGradient3212" cx="63.998" cy="82.091" r="28.998" gradientTransform="matrix(.31068 -1.5299e-8 0 .24855 -8.0244 -9.1501)" gradientUnits="userSpaceOnUse">
   <stop id="stop3537" stop-color="#828282" offset="0"/>
   <stop id="stop3539" stop-color="#5a5a5a" offset="1"/>
  </radialGradient>
 </defs>
 <metadata id="metadata7">
  <rdf:RDF>
   <cc:Work rdf:about="">
    <dc:format>image/svg+xml</dc:format>
    <dc:type rdf:resource="http://purl.org/dc/dcmitype/StillImage"/>
    <dc:title/>
   </cc:Work>
  </rdf:RDF>
 </metadata>
 <g id="layer2" transform="translate(0,2)">
  <g id="g3337" transform="translate(1,-1)">
   <rect id="rect3371" x=".5" y=".5" width="21" height="21.5" rx="2.5" ry="2.5" fill="url(#linearGradient3335)" opacity=".3"/>
   <rect id="rect2553" x="1" y="2" width="20" height="20" rx="2.381" ry="2.3256" opacity=".5"/>
  </g>
 </g>
 <g id="layer1" transform="translate(0,2)">
  <path id="rect3173" d="m4 0c-1.108 0-2 0.892-2 2v16c0 1.108 0.892 2 2 2h16c1.108 0 2-0.892 2-2v-16c0-1.108-0.892-2-2-2z" fill="url(#linearGradient3181)" fill-rule="evenodd"/>
  <path id="rect4237" d="m4 0c-1.108 0-2 0.892-2 2v16c0 1.108 0.892 2 2 2h16c1.108 0 2-0.892 2-2v-16c0-1.108-0.892-2-2-2z" fill="url(#linearGradient4303)" fill-rule="evenodd"/>
  <path id="path3235" d="m4 20c-1.108 0-2-0.892-2-2v-1c0 1.108 0.892 2 2 2h16c1.108 0 2-0.892 2-2v1c0 1.108-0.892 2-2 2h-16z" fill="url(#linearGradient3845)" fill-rule="evenodd" opacity=".3"/>
  <rect id="rect3175" x="2" y="4" width="20" height="1" color="#000000" fill="#7c7c7c"/>
  <rect id="rect3949" x="2" y="5" width="20" height="1" color="#000000" fill="url(#linearGradient3957)" opacity=".8"/>
  <rect id="rect3959" x="2" y="3" width="20" height="1" color="#000000" fill="url(#linearGradient3961)" opacity=".6"/>
  <g id="g3149" transform="translate(-29,-1)" fill-rule="evenodd">
   <path id="rect7153" d="m43.812 1v1.75 5.875 4.6875 5.875 1.75h3.2188v-2.75-3.625-7.1875-3.625-2.75h-3.2188z" fill="url(#linearGradient3159)" opacity=".6"/>
   <path id="rect7163" d="m39.031 1v1.625 6.25 4.1875 6.25 1.625h1.3125v-1.5312-6.4062-4.0625-6.4062-1.5312h-1.3125z" fill="url(#linearGradient3161)" opacity=".3"/>
   <path id="rect7167" d="m33.188 1v4.375 0.78125 9.625 0.78125 4.375h1.5625v-2.75-4-6.4375-4-2.75h-1.5625z" fill="url(#linearGradient3163)" opacity=".4"/>
   <path id="rect7171" d="m34.719 1v2.875 3.25 7.6875 3.25 2.875h4.3438v-1.625-5.75-5.1875-5.75-1.625h-4.3438z" fill="url(#linearGradient3165)" opacity=".15"/>
   <path id="rect7185" d="m40.281 1.0625v1.4688 5.9375 5.125 5.9375 1.4688h3.5v-1.6562-5.5625-5.5-5.5625-1.6562h-3.5z" fill="url(#linearGradient3167)" opacity=".1"/>
   <path id="rect7189" d="m48.344 1v19.938h0.625v-19.938h-0.625z" fill="url(#linearGradient3169)" opacity=".4"/>
   <path id="rect7193" d="m47 1.0625v2.6562 3.5625 7.5 3.5625 2.6562h1.2812v-3.75-1.375-9.6875-1.375-3.75h-1.2812z" fill="url(#linearGradient3171)" opacity=".1"/>
   <rect id="rect7197" x="32.354" y="1" width=".40247" height="19.94" fill="url(#linearGradient3173)" opacity=".4"/>
  </g>
  <path id="rect3050" d="m4 0c-1.108 0-2 0.892-2 2v16c0 1.108 0.892 2 2 2h16c1.108 0 2-0.892 2-2v-16c0-1.108-0.892-2-2-2h-16zm0 1.0312h16c0.5497 0 0.96875 0.41905 0.96875 0.96875v16c0 0.5497-0.41905 0.96875-0.96875 0.96875h-16c-0.5497 0-0.96875-0.41905-0.96875-0.96875v-16c0-0.5497 0.41905-0.96875 0.96875-0.96875z" fill="url(#linearGradient3101)" fill-rule="evenodd" opacity=".5"/>
 </g>
 <g id="layer4" transform="translate(0,2)">
  <path id="path3984" transform="translate(0,-2)" d="m10.562 8a1.017 1.017 0 0 0-0.5625 0.25c-0.10854-0.015798-0.16434-0.09142-0.28125-0.09375-0.34735-0.007033-0.70521 0.085698-1.0625 0.21875a1.017 1.017 0 0 0-0.5 0.375l-1.3438 2a1.017 1.017 0 0 0 0.3125 1.4375l0.21875 0.15625-1.9688 0.09375a1.017 1.017 0 0 0-0.375 1.9062l0.03125 0.03125c-0.42867 1.0935-0.40398 2.219 0.03125 3.0625 0.48119 0.93257 1.2005 1.6417 1.9062 2.5625a1.017 1.017 0 0 0 0.6875 0.375 1.017 1.017 0 0 0 0.09375 0.03125c0.16837 0.19231 0.32324 0.40396 0.625 0.53125a1.017 1.017 0 0 0 0.40625 0.09375h2.8438a1.017 1.017 0 0 0 0.8125-0.4375l0.5625 1.0312a1.017 1.017 0 0 0 1.9062-0.5v-0.09375c1.1683-0.10596 2.1568-0.60922 2.7188-1.375 0.62238-0.84814 0.92762-1.8322 1.4375-2.875a1.017 1.017 0 0 0 0.03125-0.8125c0.11059-0.24645 0.20965-0.49304 0.1875-0.84375a1.017 1.017 0 0 0-0.09375-0.40625l-1.2812-2.5312a1.017 1.017 0 0 0-0.96875-0.53125l0.46875-0.84375a1.017 1.017 0 0 0-1.2812-1.4375c-0.36288-0.54562-1.021-1.2559-2-1.3438a1.017 1.017 0 0 0-0.09375-0.03125h-3.375a1.017 1.017 0 0 0-0.09375 0zm0.09375 1.0312h3.375c0.61157 0.054895 0.92566 0.41858 1.25 0.90625l0.46875 0.84375 0.78125-0.46875-1.4375 2.5312h-3.0625l0.96875-0.5c-0.2708-0.63832-0.64129-1.3964-1.0938-2.0312-0.40508-0.56837-0.87922-1.0597-1.25-1.2812zm-0.96875 0.15625c0.90135 0.017962 1.4871 0.80607 1.875 1.3438l-1.2812 2.4375-2.625-1.6562 1.3438-2c0.24485-0.091181 0.4795-0.12921 0.6875-0.125zm7.3125 3.4688 1.2812 2.5312c0.038617 0.61139-0.94971 1.4754-1.5625 1.4688h-1.0312l-1.3125-2.4062 2.625-1.5938zm-8.7188 0.625 1.625 2.375-0.8125-0.40625-1.3438 2.6562c-0.18545 0.4976-0.18055 0.98863 0.03125 1.4688-1.4822-1.934-2.7395-2.8874-1.75-4.875l0.3125-0.625-0.90625-0.4375 2.8438-0.15625zm2.9062 0.15625a1.017 1.017 0 0 0 0.84375 0.4375h1.4062a1.017 1.017 0 0 0 0.03125 0.875l0.1875 0.375a1.017 1.017 0 0 0-0.65625 0.5l-0.46875 0.8125a1.017 1.017 0 0 0-0.90625-0.53125l-0.71875 0.03125a1.017 1.017 0 0 0-0.15625-0.84375l-0.8125-1.1875a1.017 1.017 0 0 0 1.25-0.46875zm2.6875 2.6875v0.90625h2.9688c0.52816-0.055974 0.97716-0.28383 1.3125-0.6875-1.0702 2.1889-1.3732 3.7491-3.5938 3.75h-0.6875v1.0312l-1.4062-2.5 1.4062-2.5zm-2.2188 0.8125-0.03125 3.0625h-2.8438c-0.56453-0.23813-0.90422-1.4858-0.625-2.0312l0.5-0.9375 3-0.09375z" fill="#fff" opacity=".2"/>
  <path id="path3292-0" d="m14.041 7.0303-3.3995 0.00702c0.37078 0.22155 0.85479 0.71965 1.2599 1.288 0.45246 0.63485 0.82014 1.3676 1.0909 2.0059l-0.96426 0.52084 3.0687-7e-3 1.4288-2.5339-0.76014 0.47861-0.48565-0.85868c-0.32434-0.48767-0.62718-0.84601-1.2388-0.9009zm-4.3497 0.15484c-0.208-0.0042116-0.43083 0.02847-0.67568 0.11965l-1.3443 2.02 2.6183 1.6399 1.2669-2.4353c-0.38791-0.53768-0.96382-1.3264-1.8652-1.3443zm7.3199 3.4629-2.6324 1.5977 1.3021 2.4001 1.0487 0.01408c0.61279 0.0066 1.6011-0.84555 1.5625-1.4569l-1.281-2.5549zm-8.7346 0.61938-2.8505 0.15484 0.91499 0.4575-0.30265 0.61234c-0.98952 1.9876 0.25633 2.9577 1.7385 4.8917-0.2118-0.48012-0.19953-0.99453-0.014075-1.4921l1.3162-2.6464 0.82349 0.40822-1.6259-2.386zm5.5955 2.8505-1.4077 2.5197 1.4077 2.4775 7e-3 -1.0206h0.68272c2.2206-9.32e-4 2.5264-1.5485 3.5966-3.7374-0.33534 0.40367-0.79505 0.61971-1.3232 0.67568l-2.9561 7e-3 -7e-3 -0.92203zm-2.2171 0.82349-3.0054 0.0915-0.47861 0.92906c-0.27922 0.54542 0.047809 1.81 0.61234 2.0482h2.8505l0.02112-3.0687z" fill="url(#radialGradient3212)" opacity=".8"/>
 </g>
</svg>
