<?xml version="1.0" encoding="UTF-8"?>
<svg id="svg30" width="22" height="22" version="1.1" xmlns="http://www.w3.org/2000/svg" xmlns:cc="http://creativecommons.org/ns#" xmlns:dc="http://purl.org/dc/elements/1.1/" xmlns:rdf="http://www.w3.org/1999/02/22-rdf-syntax-ns#">
 <metadata id="metadata34">
  <rdf:RDF>
   <cc:Work rdf:about="">
    <dc:format>image/svg+xml</dc:format>
    <dc:type rdf:resource="http://purl.org/dc/dcmitype/StillImage"/>
   </cc:Work>
  </rdf:RDF>
 </metadata>
 <defs id="defs7">
  <radialGradient id="gr0" cx="12" cy="13" r="16" gradientTransform="matrix(1 0 0 .29292 0 9.2921)" gradientUnits="userSpaceOnUse">
   <stop id="stop2" stop-color="#e64b36" offset="0"/>
   <stop id="stop4" stop-color="#a31414" offset="1"/>
  </radialGradient>
 </defs>
 <path id="path9" d="m10.965 7.0371c-0.33 0.01179-0.6596 0.0099-1.1386 0.04492-2.5312 0.18506-4.7137 0.7383-6.5898 1.7031-0.83459 0.42935-1.3168 0.78467-1.8262 1.3554-1.1682 1.3071-1.7651 3.1164-1.2461 4.711 0.061306 0.1883 0.1796 0.4573 0.34375 0.6699 0.16415 0.2126 0.33345 0.373 0.59375 0.6211 0.33784 0.3219 0.55422 0.5648 1 0.7461 0.44579 0.1812 0.99318 0.0676 1.2774-0.0449 0.45314-0.1798 1.2675-0.5718 2.0566-0.9629 0.39457-0.1956 0.77044-0.3873 1.0625-0.5411 0.14603-0.0768 0.2695-0.144 0.37304-0.2031 0.05177-0.0295 0.09828-0.0557 0.14844-0.0879 0.05016-0.0321 0.06006 0.0069 0.25586-0.2129 0.43786-0.491 0.39843-0.7747 0.4668-1.1679s0.1021-0.833 0.09375-1.2813c-0.0015-0.0808 0.00137-0.0774 0.0039-0.125 0.06113-0.0247 0.08631-0.0397 0.20508-0.0742 1.0016-0.2911 1.9726-0.4209 2.9551-0.4258 0.9826 0.0056 1.9544 0.1351 2.9551 0.4258 0.1187 0.0345 0.144 0.0495 0.2051 0.0742 0.0025 0.048 0.0054 0.0449 0.0039 0.127-0.0084 0.4481 0.0253 0.8861 0.0937 1.2793 0.0684 0.3931 0.0297 0.6773 0.4668 1.1679 0.1957 0.2197 0.2057 0.1808 0.2559 0.2129 0.0501 0.0322 0.0966 0.0584 0.1484 0.0879 0.1036 0.0591 0.227 0.1263 0.3731 0.2031 0.292 0.1538 0.6679 0.3455 1.0625 0.5411 0.7891 0.3911 1.6034 0.7831 2.0566 0.9629 0.2841 0.1125 0.8316 0.2261 1.2773 0.0449 0.4458-0.1813 0.6622-0.4242 1-0.7461 0.2603-0.2481 0.4296-0.4066 0.5938-0.6192 0.1641-0.2126 0.2824-0.4816 0.3437-0.6699 0.5191-1.5946-0.0776-3.4058-1.2461-4.7129-0.509-0.56983-0.9912-0.92607-1.8261-1.3554-1.8762-0.96516-4.0587-1.5181-6.5899-1.7031-0.4794-0.03506-0.8092-0.0331-1.1386-0.04492l-4e-3 1.002c0.3414 0.01156 0.6399 0.00954 1.0704 0.04102 2.429 0.1776 4.471 0.70175 6.205 1.5938 0.7992 0.41097 1.0722 0.61237 1.5372 1.1328 0.9287 1.0389 1.3854 2.6783 1.041 3.7364-0.0977 0.3002-0.1671 0.3903-0.6758 0.875-0.6472 0.6167-0.7799 0.6701-1.2188 0.4961-0.701-0.2779-3.4092-1.6205-3.5195-1.7442-0.1819-0.2042-0.3206-1.0019-0.3066-1.7637 0.0157-0.8458-0.044-0.9223-0.9297-1.1796-1.0942-0.3178-2.1652-0.4549-3.2344-0.4649-1.0692 5e-3 -2.1402 0.1469-3.2344 0.4649-0.8857 0.257-0.94538 0.3336-0.92968 1.1796 0.0142 0.7621-0.12474 1.5597-0.30664 1.7637-0.1102 0.1237-2.8185 1.4662-3.5195 1.7442-0.43898 0.1739-0.57161 0.1205-1.2188-0.4961-0.50868-0.4848-0.57809-0.5749-0.67579-0.875-0.3444-1.058 0.11242-2.6974 1.041-3.7364 0.4649-0.521 0.73801-0.7217 1.5371-1.1328 1.734-0.89173 3.7761-1.4162 6.2051-1.5938 0.44196-0.03234 0.74606-0.03035 1.0996-0.04297l-0.0332-1z" fill="#fff" opacity=".05"/>
 <path id="base" class="error" d="m11 8.0371c-0.35434 0.012659-0.6589 0.010605-1.1016 0.042969-2.429 0.17759-4.4711 0.70207-6.2051 1.5938-0.7991 0.4111-1.0722 0.6121-1.5371 1.1331-0.9286 1.039-1.3854 2.678-1.041 3.736 0.097715 0.30017 0.1671 0.39028 0.67578 0.875 0.64714 0.61666 0.77982 0.67008 1.2188 0.49609 0.70106-0.27796 3.4093-1.6204 3.5195-1.7441 0.1819-0.204 0.3208-1.002 0.3066-1.764-0.0157-0.846 0.044-0.922 0.9297-1.179 1.0942-0.318 2.1652-0.46 3.2344-0.465 1.0692 0.0056 2.1402 0.14702 3.2344 0.46484 0.88573 0.25732 0.94546 0.33391 0.92969 1.1797-0.0142 0.76185 0.1247 1.5595 0.30664 1.7637 0.11024 0.12372 2.8185 1.4662 3.5195 1.7441 0.43893 0.17399 0.57161 0.12057 1.2188-0.49609 0.50868-0.48472 0.57807-0.57483 0.67578-0.875 0.34444-1.0581-0.11232-2.6974-1.041-3.7363-0.46487-0.5204-0.73793-0.72183-1.5371-1.1328-1.734-0.892-3.776-1.4164-6.205-1.594-0.443-0.0324-0.748-0.0303-1.102-0.043z" fill="url(#gr0)"/>
 <path id="path15" d="m11 8.0371c-0.3543 0.0127-0.6589 0.01057-1.1016 0.04297-2.429 0.17759-4.4711 0.70202-6.2051 1.5938-0.7991 0.41107-1.0722 0.61177-1.5371 1.1328-0.9286 1.039-1.3854 2.6784-1.041 3.7364 0.0977 0.3001 0.16711 0.3902 0.67579 0.875 0.64714 0.6166 0.77977 0.67 1.2188 0.4961 0.70106-0.278 3.4093-1.6205 3.5195-1.7442 0.1819-0.204 0.32084-1.0016 0.30664-1.7637-0.0157-0.846 0.04398-0.9226 0.92968-1.1796 1.0942-0.318 2.1652-0.4599 3.2344-0.4649 1.0692 0.01 2.1402 0.1471 3.2344 0.4649 0.8857 0.2573 0.9454 0.3338 0.9297 1.1796-0.014 0.7618 0.1247 1.5595 0.3066 1.7637 0.1103 0.1237 2.8185 1.4663 3.5195 1.7442 0.4389 0.174 0.5716 0.1206 1.2188-0.4961 0.5087-0.4847 0.5781-0.5748 0.6758-0.875 0.3444-1.0581-0.1123-2.6975-1.041-3.7364-0.465-0.5204-0.738-0.7218-1.5372-1.1328-1.734-0.892-3.776-1.4162-6.205-1.5938-0.443-0.0324-0.7476-0.03027-1.1016-0.04297zm0 0.5c0.358 0.01245 0.6466 0.01046 1.0645 0.04101 2.3779 0.17388 4.3507 0.68564 6.0136 1.541 0.7813 0.4018 0.9498 0.5259 1.3926 1.0215 0.8088 0.9048 1.1966 2.4582 0.9395 3.2481-0.0427 0.1309-0.0479 0.1421-0.1055 0.2168-0.0577 0.0746-0.1901 0.2116-0.4414 0.4511-0.3165 0.3016-0.4988 0.431-0.5293 0.4434s0.027 0.0234-0.1602-0.0508c-0.2991-0.1186-1.1702-0.5289-1.9433-0.9121-0.3866-0.1916-0.7548-0.3789-1.0293-0.5234-0.1373-0.0723-0.251-0.1337-0.3282-0.1778-0.0164-0.0094-0.0224-0.0139-0.0351-0.0214 0.0553 0.0539-0.0549-0.1343-0.1016-0.4024-0.0493-0.2837-0.0787-0.6488-0.0722-0.9961 0.0081-0.4349 0.0276-0.7963-0.2344-1.1289s-0.6039-0.4095-1.0567-0.541c-1.1399-0.3311-2.2595-0.4786-3.371-0.4844a0.50005 0.50005 0 0 0-4e-3 0c-1.1118 0.0052-2.2312 0.1531-3.371 0.4844-0.45263 0.1313-0.79446 0.2065-1.0566 0.5391-0.26217 0.3325-0.24245 0.6958-0.23437 1.1308 0.00647 0.3474-0.02292 0.7123-0.07227 0.9961-0.04642 0.267-0.15531 0.4519-0.10156 0.4004-0.01281 0.0076-0.0185 0.012-0.03516 0.0215-0.07718 0.0441-0.19087 0.1074-0.32812 0.1797-0.2745 0.1445-0.64273 0.3318-1.0293 0.5234-0.77313 0.3832-1.6441 0.7935-1.9434 0.9121-0.18715 0.0742-0.12964 0.0632-0.16015 0.0508-0.03052-0.0124-0.21287-0.1418-0.5293-0.4434-0.25136-0.2395-0.38377-0.3765-0.44141-0.4511-0.05764-0.0747-0.06283-0.0859-0.10547-0.2168-0.25707-0.7898 0.13067-2.3431 0.93946-3.2481 0.44267-0.4961 0.61122-0.6195 1.3926-1.0215 1.6629-0.8551 3.6357-1.3671 6.0137-1.541 0.41765-0.03052 0.70625-0.0286 1.0644-0.04101z" opacity=".3"/>
 <path id="path20" d="m11 10.762c-1.0692 5e-3 -2.1402 0.1469-3.2344 0.4649-0.8857 0.257-0.94538 0.3336-0.92968 1.1796 0.0142 0.7621-0.12474 1.5597-0.30664 1.7637-0.1102 0.1237-2.8185 1.4662-3.5195 1.7442-0.43898 0.1739-0.57161 0.1205-1.2188-0.4961-0.50868-0.4848-0.57809-0.5749-0.67579-0.875-0.03327-0.1022-0.05169-0.2142-0.07031-0.3262-0.070382 0.4807-0.054708 0.9421 0.07031 1.3262 0.0977 0.3001 0.16711 0.3902 0.67579 0.875 0.64714 0.6166 0.77977 0.67 1.2188 0.4961 0.70106-0.278 3.4093-1.6205 3.5195-1.7442 0.1819-0.204 0.32084-1.0017 0.30664-1.7637-0.0157-0.846 0.04398-0.9226 0.92968-1.1796 1.0942-0.318 2.1652-0.4599 3.2344-0.4649 1.0692 0.01 2.1402 0.1471 3.2344 0.4649 0.8857 0.2573 0.9454 0.3339 0.9297 1.1796-0.014 0.7618 0.1247 1.5595 0.3066 1.7637 0.1103 0.1237 2.8185 1.4663 3.5195 1.7442 0.4389 0.174 0.5716 0.1206 1.2188-0.4961 0.5087-0.4847 0.5781-0.5748 0.6758-0.875 0.125-0.3841 0.1406-0.8454 0.0703-1.3262-0.0186 0.112-0.0371 0.224-0.0703 0.3262-0.0977 0.3002-0.1671 0.3903-0.6758 0.875-0.6472 0.6167-0.7799 0.6701-1.2188 0.4961-0.701-0.2779-3.4092-1.6205-3.5195-1.7442-0.1819-0.2042-0.3206-1.0019-0.3066-1.7637 0.0157-0.8458-0.044-0.9223-0.9297-1.1796-1.0942-0.3178-2.1652-0.4549-3.2344-0.4649z" fill="#fff" opacity=".2"/>
 <path id="path25" d="m11 8.0371c-0.3543 0.0127-0.6589 0.01057-1.1016 0.04297-2.429 0.17759-4.4711 0.70202-6.2051 1.5938-0.7991 0.41107-1.0722 0.61177-1.5371 1.1328-0.83889 0.9387-1.2854 2.363-1.1113 3.4102 0.1235-0.8435 0.51983-1.7483 1.1113-2.4102 0.4649-0.521 0.73801-0.7217 1.5371-1.1328 1.734-0.8917 3.7761-1.4161 6.2051-1.5937 0.44266-0.0324 0.74726-0.03027 1.1016-0.04297 0.354 0.0127 0.6586 0.01057 1.1016 0.04297 2.429 0.1776 4.471 0.70179 6.205 1.5937 0.7992 0.411 1.0722 0.6124 1.5372 1.1328 0.5915 0.6618 0.9878 1.5666 1.1113 2.4102 0.1741-1.0474-0.2724-2.4716-1.1113-3.4102-0.465-0.5204-0.738-0.7218-1.5372-1.1328-1.734-0.892-3.776-1.4162-6.205-1.5938-0.443-0.0324-0.7476-0.03027-1.1016-0.04297z" opacity=".3"/>
</svg>
