<?xml version="1.0" encoding="UTF-8"?>
<svg id="svg30" width="22" height="22" version="1.1" xmlns="http://www.w3.org/2000/svg" xmlns:cc="http://creativecommons.org/ns#" xmlns:dc="http://purl.org/dc/elements/1.1/" xmlns:rdf="http://www.w3.org/1999/02/22-rdf-syntax-ns#">
 <metadata id="metadata34">
  <rdf:RDF>
   <cc:Work rdf:about="">
    <dc:format>image/svg+xml</dc:format>
    <dc:type rdf:resource="http://purl.org/dc/dcmitype/StillImage"/>
   </cc:Work>
  </rdf:RDF>
 </metadata>
 <defs id="defs7">
  <radialGradient id="gr0" cx="12" cy="13" r="16" gradientTransform="matrix(1 0 0 .65656 0 5.6566)" gradientUnits="userSpaceOnUse">
   <stop id="stop2" stop-opacity=".23529" offset="0"/>
   <stop id="stop4" stop-opacity=".54902" offset="1"/>
  </radialGradient>
 </defs>
 <path id="path9" d="m10.5 3c-1.3677 0-2.5 1.1323-2.5 2.5v2.5a1 1.0001 0 0 0-1-1h-3a1.0001 1.0001 0 0 0-1 1v1a1.0001 1.0001 0 0 0 1 1h-3a1.0001 1.0001 0 0 0-1 1v1a1.0001 1.0001 0 0 0 1 1h2a1.0001 1.0001 0 0 0-1 1v1a1.0001 1.0001 0 0 0 1 1h4a1.0001 1.0001 0 0 0 1-1v1.5c0 1.3677 1.1323 2.5 2.5 2.5h5.5 3.5c1.3677 0 2.5-1.1323 2.5-2.5v-5.5-5.5c0-1.3677-1.1323-2.5-2.5-2.5h-5.5-3.5zm0 1h3.5 5.5c0.831 0 1.5 0.669 1.5 1.5v5.5 5.5c0 0.831-0.669 1.5-1.5 1.5h-3.5-5.5c-0.831 0-1.5-0.669-1.5-1.5v-5.5-5.5c0-0.831 0.669-1.5 1.5-1.5zm1 2c-0.277 0-0.5 0.223-0.5 0.5v4.5 4.5c0 0.277 0.223 0.5 0.5 0.5h4.5 2.5c0.277 0 0.5-0.223 0.5-0.5v-4.5-4.5c0-0.277-0.223-0.5-0.5-0.5h-4.5-2.5zm0.5 1h2 4v4 4h-2-4v-4-4zm-8 1h3v1h-3v-1zm4 1v2a1.0001 1.0001 0 0 0-1-1 1.0001 1.0001 0 0 0 1-1zm-7 2h6v1h-6v-1zm7 1v2a1.0001 1.0001 0 0 0-1-1 1.0001 1.0001 0 0 0 1-1zm-5 2h4v1h-4v-1z" fill="#fff" opacity=".05"/>
 <path id="base" d="m10.5 4c-0.831 0-1.5 0.669-1.5 1.5v5.5 5.5c0 0.831 0.669 1.5 1.5 1.5h5.5 3.5c0.831 0 1.5-0.669 1.5-1.5v-5.5-5.5c0-0.831-0.669-1.5-1.5-1.5h-5.5-3.5zm1 2h2.5 4.5c0.277 0 0.5 0.223 0.5 0.5v4.5 4.5c0 0.277-0.223 0.5-0.5 0.5h-2.5-4.5c-0.277 0-0.5-0.223-0.5-0.5v-4.5-4.5c0-0.277 0.223-0.5 0.5-0.5zm-7.5 2v1h3v-1h-3zm-3 3v1h6v-1h-6zm2 3v1h4v-1h-4z" fill="url(#gr0)"/>
 <path id="path15" d="m10.5 4c-0.831 0-1.5 0.669-1.5 1.5v5.5 5.5c0 0.831 0.669 1.5 1.5 1.5h5.5 3.5c0.831 0 1.5-0.669 1.5-1.5v-5.5-5.5c0-0.831-0.669-1.5-1.5-1.5h-5.5-3.5zm0 0.5h3.5 5.5c0.5626 0 1 0.43735 1 1v5.5 5.5c0 0.5626-0.4374 1-1 1h-3.5-5.5c-0.56265 0-1-0.4374-1-1v-5.5-5.5c0-0.56265 0.43735-1 1-1zm1 1c-0.5454 0-1 0.45465-1 1v4.5 4.5c0 0.5454 0.4546 1 1 1h4.5 2.5c0.5454 0 1-0.4546 1-1v-4.5-4.5c0-0.54535-0.4546-1-1-1h-4.5-2.5zm0 0.5h2.5 4.5c0.277 0 0.5 0.223 0.5 0.5v4.5 4.5c0 0.277-0.223 0.5-0.5 0.5h-2.5-4.5c-0.277 0-0.5-0.223-0.5-0.5v-4.5-4.5c0-0.277 0.223-0.5 0.5-0.5zm-7.5 2v1h3v-1h-3zm-3 3v1h6v-1h-6zm2 3v1h4v-1h-4z" opacity=".3"/>
 <path id="path20" d="m11.5 6c-0.277 0-0.5 0.223-0.5 0.5v1c0-0.277 0.223-0.5 0.5-0.5h2.5 4.5c0.277 0 0.5 0.223 0.5 0.5v-1c0-0.277-0.223-0.5-0.5-0.5h-4.5-2.5zm-7.5 3v1h3v-1h-3zm-3 3v1h6v-1h-6zm2 3v1h4v-1h-4zm6 1.5v1c0 0.831 0.669 1.5 1.5 1.5h5.5 3.5c0.831 0 1.5-0.669 1.5-1.5v-1c0 0.831-0.669 1.5-1.5 1.5h-3.5-5.5c-0.831 0-1.5-0.669-1.5-1.5z" fill="#fff" opacity=".2"/>
 <path id="path25" d="m10.5 4c-0.831 0-1.5 0.669-1.5 1.5v1c0-0.831 0.669-1.5 1.5-1.5h3.5 5.5c0.831 0 1.5 0.669 1.5 1.5v-1c0-0.831-0.669-1.5-1.5-1.5h-5.5-3.5zm-6.5 4v1h3v-1h-3zm-3 3v1h6v-1h-6zm2 3v1h4v-1h-4zm8 1.5v1c0 0.277 0.223 0.5 0.5 0.5h4.5 2.5c0.277 0 0.5-0.223 0.5-0.5v-1c0 0.277-0.223 0.5-0.5 0.5h-2.5-4.5c-0.277 0-0.5-0.223-0.5-0.5z" opacity=".3"/>
</svg>
