<?xml version="1.0" encoding="UTF-8"?>
<svg id="svg30" width="22" height="22" version="1.1" xmlns="http://www.w3.org/2000/svg" xmlns:cc="http://creativecommons.org/ns#" xmlns:dc="http://purl.org/dc/elements/1.1/" xmlns:rdf="http://www.w3.org/1999/02/22-rdf-syntax-ns#">
 <metadata id="metadata34">
  <rdf:RDF>
   <cc:Work rdf:about="">
    <dc:format>image/svg+xml</dc:format>
    <dc:type rdf:resource="http://purl.org/dc/dcmitype/StillImage"/>
   </cc:Work>
  </rdf:RDF>
 </metadata>
 <defs id="defs7">
  <radialGradient id="gr0" cx="12" cy="13" r="16" gradientTransform="matrix(1 0 0 .38383 0 8.3839)" gradientUnits="userSpaceOnUse">
   <stop id="stop2" stop-opacity=".23529" offset="0"/>
   <stop id="stop4" stop-opacity=".54902" offset="1"/>
  </radialGradient>
 </defs>
 <path id="path9" d="m11.91 6.0879c-1.9461-0.00865-3.8351 0.73249-5.4571 1.957l-1.3672-1.3633a1 1.0001 0 0 0-1.6895 0.5293l-1.3887 7.6055a1.0001 1.0001 0 0 0 1.1621 1.1641l7.6328-1.3828a1.0001 1.0001 0 0 0 0.5293-1.6934l-1.1601-1.1543c1.407-0.7094 3.14-0.5295 4.3183 0.6445 0.4194 0.4178 0.7149 0.9023 0.8926 1.418a1.0001 1.0001 0 0 0 1.2031 0.6406l3.1036-0.8261a1.0001 1.0001 0 0 0 0.6992-1.2579c-0.4135-1.352-1.1572-2.6337-2.2285-3.7011-1.721-1.7147-3.9809-2.57-6.25-2.5801zm-0.0098 0.99805c2.0167 0.00825 4.0263 0.76819 5.5547 2.291 0.9522 0.94875 1.6113 2.0824 1.9785 3.2832l-3.1055 0.8261c-0.2269-0.6583-0.6059-1.2757-1.1328-1.8008-1.817-1.8102-4.7449-1.8446-6.6074-0.1015l2.0371 2.0293-7.6328 1.3828 1.3887-7.6055 1.918 1.9121c1.5606-1.482 3.5849-2.225 5.6016-2.2168z" fill="#fff" opacity=".05"/>
 <path id="base" d="m4.3808 7.3909-1.3889 7.6058 7.6335-1.3839-2.0371-2.0297c1.8624-1.7431 4.7906-1.707 6.6075 0.10333 0.52697 0.52506 0.90648 1.1426 1.1334 1.8009l3.1038-0.82664c-0.36719-1.2008-1.0256-2.3357-1.9778-3.2844-3.0567-3.0456-8.0346-3.0378-11.156-0.073805l-1.9186-1.9116z" fill="url(#gr0)"/>
 <path id="path15" d="m11.9 7.0859c-2.0167-0.00825-4.041 0.73477-5.6016 2.2168l-1.918-1.9121-1.3887 7.6055 7.6328-1.3828-2.0371-2.0293c1.8625-1.7431 4.7904-1.7087 6.6074 0.1015 0.5269 0.5251 0.9059 1.1425 1.1328 1.8008l3.1055-0.8261c-0.3672-1.2008-1.0263-2.3345-1.9785-3.2832-1.5284-1.5228-3.538-2.2828-5.5547-2.291zm-0.0039 0.49804c1.8905 0.00734 3.773 0.71961 5.2051 2.1465 0.7612 0.75843 1.2788 1.6559 1.6406 2.5976l-2.1426 0.5703c-0.255-0.5654-0.5874-1.1046-1.0508-1.5664-2.0048-1.9975-5.2468-2.0374-7.3027-0.1132a0.50005 0.50005 0 0 0-0.01171 0.7187l1.3594 1.3535-5.9805 1.084 1.0898-5.959 1.2442 1.2402a0.50005 0.50005 0 0 0 0.69726 0.00781c1.4645-1.3908 3.3615-2.0874 5.252-2.0801z" opacity=".3"/>
 <path id="path20" d="m11.908 10.303c-1.192-0.0174-2.3891 0.4097-3.3203 1.2813l0.56641 0.5644c1.8509-1.2704 4.3971-1.1007 6.041 0.5371 0.5269 0.5251 0.9059 1.1425 1.1328 1.8008l3.1055-0.8261c-0.0942-0.3079-0.2093-0.6111-0.3418-0.9082l-2.7637 0.7343c-0.2269-0.6583-0.6059-1.2757-1.1328-1.8008-0.9085-0.9051-2.0951-1.3653-3.2871-1.3828zm-2.1328 3.4649-6.5938 1.1933-0.18945 1.0352 7.6328-1.3828-0.84961-0.8457z" fill="#fff" opacity=".2"/>
 <path id="path25" d="m11.9 7.0859c-2.0167-0.00825-4.041 0.73477-5.6016 2.2168l-1.918-1.9121-1.3887 7.6055 0.18945-0.0352 1.1992-6.5703 1.918 1.9121c3.1212-2.9638 8.0996-2.9714 11.156 0.0743 0.708 0.7054 1.2525 1.513 1.6367 2.375l0.3418-0.0918c-0.3672-1.2008-1.0263-2.3345-1.9785-3.2832-1.5284-1.5228-3.538-2.2828-5.5547-2.291zm-2.7461 5.0625c-0.19488 0.1338-0.38899 0.2695-0.56641 0.4356l1.1875 1.1836 0.84961-0.1543-1.4707-1.4649z" opacity=".3"/>
</svg>
