<?xml version="1.0" encoding="UTF-8"?>
<svg id="svg30" width="22" height="22" version="1.1" xmlns="http://www.w3.org/2000/svg" xmlns:cc="http://creativecommons.org/ns#" xmlns:dc="http://purl.org/dc/elements/1.1/" xmlns:rdf="http://www.w3.org/1999/02/22-rdf-syntax-ns#">
 <metadata id="metadata34">
  <rdf:RDF>
   <cc:Work rdf:about="">
    <dc:format>image/svg+xml</dc:format>
    <dc:type rdf:resource="http://purl.org/dc/dcmitype/StillImage"/>
   </cc:Work>
  </rdf:RDF>
 </metadata>
 <defs id="defs7">
  <radialGradient id="gr0" cx="12" cy="13" r="16" gradientTransform="matrix(1 0 0 .83838 0 3.8384)" gradientUnits="userSpaceOnUse">
   <stop id="stop2" stop-opacity=".23529" offset="0"/>
   <stop id="stop4" stop-opacity=".54902" offset="1"/>
  </radialGradient>
 </defs>
 <path id="path9" d="m9 1c-1.7893 0-3.5908 0.68172-4.9551 2.041-2.7271 2.7171-2.7271 7.1696 0 9.8867 2.2629 2.2546 5.6889 2.5826 8.3594 1.0918 0.09 0.0081 0.1753 0.0158 0.2559 0.0293 2e-4 0.0388-7e-4 0.0402 0 0.086 0.0057 0.3867 0.0988 1.1259 0.6718 1.6406l-0.0429-0.0391 3.6875 3.7188-0.0254-0.0293s0.4064 0.4363 1.0371 0.5488 1.4631-0.1395 2.1543-0.8281c0.692-0.6895 0.9474-1.5266 0.834-2.1582-0.1135-0.6316-0.5489-1.0371-0.5489-1.0371l0.0332 0.0312-3.6562-3.6855c-0.5153-0.5695-1.2526-0.6617-1.6387-0.668-0.0456-7e-4 -0.0472 3e-4 -0.0859 0-0.0134-0.08-0.0213-0.1644-0.0293-0.2539 1.495-2.6615 1.1662-6.0803-1.0957-8.334-1.3643-1.3593-3.1658-2.041-4.9551-2.041zm0 1c1.5363 0 3.0787 0.58299 4.25 1.75 2.0422 2.0348 2.2998 5.1818 0.7812 7.5 0.02 0.3941 0.0867 1.0242 0.3438 1.25 0.3501 0.3074 1.154-0.1209 1.6875 0.4688l3.6875 3.7187s0.7509 0.6905-0.3125 1.75-1.75 0.3125-1.75 0.3125l-3.6875-3.7188c-0.5918-0.5315-0.1601-1.3386-0.4688-1.6874-0.2265-0.2557-0.8544-0.3238-1.25-0.3438-2.3267 1.5129-5.489 1.2536-7.5312-0.7812-2.3426-2.334-2.3426-6.1348 0-8.4688 1.1713-1.167 2.7137-1.75 4.25-1.75zm0.03125 2c-1.1043 0-2.1195 0.40344-2.8438 1.125s-1.1562 1.7435-1.1562 2.8438c0 2.2006 1.7914 4 4 4 2.2088-1e-4 4-1.7995 4-4 0-2.2005-1.7912-3.9688-4-3.9688zm0 1c1.675 0 3 1.3109 3 2.9688 0 1.6578-1.3345 3-3 3-1.6655 0-3-1.3422-3-3 0-0.83849 0.33068-1.6061 0.86133-2.1348 0.52522-0.52329 1.2779-0.83398 2.1387-0.83398zm-5.0312 11c-1.0931 0-2 0.9069-2 2s0.90694 2 2 2c0.62979 0 1.1317-0.3404 1.5-0.8047 0.36834 0.4643 0.8702 0.8047 1.5 0.8047 0.62979 0 1.1317-0.3404 1.5-0.8047 0.36834 0.4643 0.8702 0.8047 1.5 0.8047 1.0931 0 2-0.9069 2-2s-0.9069-2-2-2c-0.6298 0-1.1317 0.3404-1.5 0.8047-0.36834-0.4643-0.87021-0.8047-1.5-0.8047-0.6298 0-1.1317 0.3404-1.5 0.8047-0.36834-0.4643-0.87021-0.8047-1.5-0.8047zm0 1c0.552 0 1 0.448 1 1s-0.448 1-1 1-1-0.448-1-1 0.448-1 1-1zm3 0c0.552 0 1 0.448 1 1s-0.448 1-1 1-1-0.448-1-1 0.448-1 1-1zm3 0c0.5519 0 1 0.448 1 1s-0.4481 1-1 1c-0.552 0-1-0.448-1-1s0.448-1 1-1z" fill="#fff" opacity=".05"/>
 <path id="base" d="m9 2c-1.5363 0-3.0787 0.58299-4.25 1.75-2.3426 2.334-2.3426 6.1347 0 8.4688 2.0422 2.0348 5.2045 2.2942 7.5312 0.78125 0.3955 0.019765 1.0234 0.087593 1.25 0.34375 0.30858 0.34878-0.12305 1.1559 0.46875 1.6875l3.6875 3.7188c1e-6 0 0.68659 0.74702 1.75-0.3125 1.0634-1.0595 0.3125-1.75 0.3125-1.75l-3.6875-3.7188c-0.53353-0.58963-1.3374-0.1613-1.6875-0.46875-0.2571-0.2258-0.32391-0.85595-0.34375-1.25 1.5185-2.3182 1.261-5.4652-0.78125-7.5-1.1713-1.167-2.7137-1.75-4.25-1.75zm0.03125 2c2.2086 0 4 1.7682 4 3.9688 0 2.2005-1.7914 4-4 4-2.2086 1e-6 -4-1.7995-4-4 2e-7 -1.1003 0.43204-2.1222 1.1562-2.8438 0.72421-0.72156 1.7394-1.125 2.8438-1.125zm-5.0312 13c-0.552 0-1 0.448-1 1 0 0.552 0.448 1 1 1 0.552 0 1-0.448 1-1 0-0.552-0.448-1-1-1zm3 0c-0.552 0-1 0.448-1 1 0 0.552 0.448 1 1 1 0.552 0 1-0.448 1-1 0-0.552-0.448-1-1-1zm3 0c-0.552 0-1 0.448-1 1 0 0.552 0.448 1 1 1 0.552 0 1-0.448 1-1 0-0.552-0.448-1-1-1z" fill="url(#gr0)"/>
 <path id="path15" d="m9 2c-1.5363 0-3.0787 0.58299-4.25 1.75-2.3426 2.334-2.3426 6.1348 0 8.4688 2.0422 2.0348 5.2045 2.2941 7.5312 0.7812 0.3956 0.02 1.0235 0.0881 1.25 0.3438 0.3087 0.3488-0.123 1.1559 0.4688 1.6874l3.6875 3.7188s0.6866 0.747 1.75-0.3125 0.3125-1.75 0.3125-1.75l-3.6875-3.7187c-0.5335-0.5897-1.3374-0.1614-1.6875-0.4688-0.2571-0.2258-0.3238-0.8559-0.3438-1.25 1.5186-2.3182 1.261-5.4652-0.7812-7.5-1.1713-1.167-2.7137-1.75-4.25-1.75zm0 0.5c1.4098 0 2.8217 0.53264 3.8965 1.6035 1.8745 1.8676 2.1074 4.7499 0.7168 6.8731a0.50005 0.50005 0 0 0-0.0821 0.2988c0.0107 0.2118 0.0326 0.4892 0.0938 0.7695s0.1342 0.5792 0.4199 0.8301c0.2021 0.1775 0.4383 0.2253 0.6211 0.2422 0.1829 0.0169 0.3395 0.0095 0.4766 0.0117 0.2741 0.0045 0.4063 0.0183 0.5488 0.1758a0.50005 0.50005 0 0 0 0.0156 0.0156l3.6875 3.7188a0.50005 0.50005 0 0 0 0.0176 0.0156s0.0624 0.0574 0.0879 0.1992 0.0355 0.3802-0.416 0.8301c-0.452 0.4503-0.6905 0.4393-0.832 0.414-0.1416-0.0252-0.1973-0.0859-0.1973-0.0859a0.50005 0.50005 0 0 0-0.0117-0.0137l-3.6875-3.7187a0.50005 0.50005 0 0 0-0.0215-0.0195c-0.1574-0.1414-0.1698-0.2745-0.1738-0.5489-0.0021-0.1372 5e-3 -0.2933-0.0118-0.4765-0.0167-0.1832-0.0632-0.4209-0.2422-0.6231-0.2506-0.2833-0.5501-0.3546-0.83-0.416-0.28-0.0614-0.5565-0.0851-0.7696-0.0957a0.50005 0.50005 0 0 0-0.2988 0.0801c-2.1313 1.3858-5.0298 1.1527-6.9043-0.7149-2.1504-2.1424-2.1504-5.6192 0-7.7617 1.0748-1.0709 2.4867-1.6035 3.8965-1.6035zm0.03125 1c-1.2261 0-2.3736 0.4508-3.1973 1.2715-0.82098 0.81799-1.3027 1.9661-1.3027 3.1973 0 2.4718 2.0198 4.5 4.5 4.5 2.4802 0 4.5-2.0282 4.5-4.5 1e-4 -2.4719-2.0245-4.4688-4.5-4.4688zm0 0.5c2.2088 0 4 1.7682 4 3.9688 0 2.2006-1.7912 4-4 4-2.2086 0-4-1.7995-4-4 0-1.1003 0.43204-2.1222 1.1562-2.8438s1.7394-1.125 2.8438-1.125zm-5.0312 13c-0.552 0-1 0.448-1 1s0.448 1 1 1 1-0.448 1-1-0.448-1-1-1zm3 0c-0.552 0-1 0.448-1 1s0.448 1 1 1 1-0.448 1-1-0.448-1-1-1zm3 0c-0.552 0-1 0.448-1 1s0.448 1 1 1c0.5519 0 1-0.448 1-1s-0.4481-1-1-1zm-6 0.5c0.28147 0 0.5 0.2185 0.5 0.5s-0.21853 0.5-0.5 0.5-0.5-0.2185-0.5-0.5 0.21853-0.5 0.5-0.5zm3 0c0.28147 0 0.5 0.2185 0.5 0.5s-0.21853 0.5-0.5 0.5-0.5-0.2185-0.5-0.5 0.21853-0.5 0.5-0.5zm3 0c0.2815 0 0.5 0.2185 0.5 0.5s-0.2185 0.5-0.5 0.5c-0.28147 0-0.5-0.2185-0.5-0.5s0.21853-0.5 0.5-0.5z" opacity=".3"/>
 <path id="path20" d="m9.0312 4c-1.1043 0-2.1195 0.40344-2.8438 1.125s-1.1562 1.7435-1.1562 2.8438c0 0.16662 0.02888 0.32492 0.04883 0.48633 0.11266-0.89944 0.49849-1.7234 1.1074-2.3301 0.72421-0.72156 1.7394-1.125 2.8438-1.125 2.0368 0 3.6996 1.5091 3.9492 3.4688 0.021-0.1658 0.0507-0.32868 0.0507-0.5 0-2.2005-1.7912-3.9688-4-3.9688zm5.9472 4.4766c-0.0809 0.97172-0.3934 1.928-0.9473 2.7734 0.0115 0.2275 0.043 0.5274 0.1133 0.7891 0.6518-1.0893 0.9368-2.3353 0.834-3.5625zm-11.963 0.00782c-0.14135 1.6958 0.43559 3.4403 1.7344 4.7344 2.0422 2.0348 5.2045 2.2941 7.5312 0.7812 0.3956 0.02 1.0235 0.0881 1.25 0.3438 0.3087 0.3488-0.123 1.156 0.4688 1.6874l3.6875 3.7188s0.6866 0.747 1.75-0.3125c0.7699-0.7671 0.5864-1.3297 0.4277-1.5879-0.0879 0.1808-0.2136 0.3746-0.4277 0.5879-1.0634 1.0595-1.75 0.3125-1.75 0.3125l-3.6875-3.7188c-0.5918-0.5315-0.1601-1.3386-0.4688-1.6874-0.2265-0.2557-0.8544-0.3238-1.25-0.3438-2.3267 1.5129-5.489 1.2536-7.5312-0.7812-1.0438-1.04-1.6208-2.3716-1.7344-3.7344zm0.13672 10.016c-0.08863 0.1493-0.15234 0.3139-0.15234 0.5 0 0.552 0.448 1 1 1s1-0.448 1-1c0-0.1861-0.06371-0.3507-0.15234-0.5-0.17431 0.2935-0.48173 0.5-0.84766 0.5s-0.67335-0.2065-0.84766-0.5zm3 0c-0.08863 0.1493-0.15234 0.3139-0.15234 0.5 0 0.552 0.448 1 1 1s1-0.448 1-1c0-0.1861-0.06371-0.3507-0.15234-0.5-0.17431 0.2935-0.48173 0.5-0.84766 0.5s-0.67335-0.2065-0.84766-0.5zm3 0c-0.08863 0.1493-0.15234 0.3139-0.15234 0.5 0 0.552 0.448 1 1 1 0.5519 0 1-0.448 1-1 0-0.1861-0.0637-0.3507-0.1523-0.5-0.1744 0.2935-0.4818 0.5-0.8477 0.5-0.36593 0-0.67335-0.2065-0.84766-0.5z" fill="#fff" opacity=".2"/>
 <path id="path25" d="m9 2c-1.5363 0-3.0787 0.58299-4.25 1.75-1.2988 1.294-1.8757 3.0386-1.7344 4.7344 0.11361-1.3629 0.69056-2.6944 1.7344-3.7344 1.1713-1.167 2.7137-1.75 4.25-1.75 1.5363 0 3.0787 0.58299 4.25 1.75 1.042 1.0382 1.6146 2.367 1.7285 3.7266 0.141-1.6928-0.4311-3.4338-1.7285-4.7266-1.1713-1.167-2.7137-1.75-4.25-1.75zm-3.9199 6.4551c-0.02133 0.17027-0.04883 0.33854-0.04883 0.51367 0 2.2006 1.7914 4 4 4 2.2088-1e-4 4-1.7995 4-4 0-0.17132-0.0297-0.33455-0.0507-0.5-0.2496 1.9638-1.9125 3.5-3.9492 3.5-2.0414 0-3.7077-1.5433-3.9512-3.5137zm9.0644 3.584c-0.0412 0.0689-0.069 0.1433-0.1133 0.2109 0.02 0.3941 0.0867 1.0242 0.3438 1.25 0.3501 0.3074 1.154-0.1209 1.6875 0.4688l3.6875 3.7187s0.0548 0.0637 0.1152 0.1621c0.3489-0.7171-0.1152-1.1621-0.1152-1.1621l-3.6875-3.7187c-0.5335-0.5897-1.3374-0.1614-1.6875-0.4688-0.1087-0.0954-0.179-0.2694-0.2305-0.4609zm-10.144 4.9609c-0.552 0-1 0.448-1 1 0 0.1861 0.06371 0.3507 0.15234 0.5 0.17431-0.2935 0.48173-0.5 0.84766-0.5s0.67335 0.2065 0.84766 0.5c0.08863-0.1493 0.15234-0.3139 0.15234-0.5 0-0.552-0.448-1-1-1zm3 0c-0.552 0-1 0.448-1 1 0 0.1861 0.06371 0.3507 0.15234 0.5 0.17431-0.2935 0.48173-0.5 0.84766-0.5s0.67335 0.2065 0.84766 0.5c0.08863-0.1493 0.15234-0.3139 0.15234-0.5 0-0.552-0.448-1-1-1zm3 0c-0.552 0-1 0.448-1 1 0 0.1861 0.06371 0.3507 0.15234 0.5 0.17431-0.2935 0.48173-0.5 0.84766-0.5 0.3659 0 0.6733 0.2065 0.8477 0.5 0.0886-0.1493 0.1523-0.3139 0.1523-0.5 0-0.552-0.4481-1-1-1z" opacity=".3"/>
</svg>
