<?xml version="1.0" encoding="UTF-8"?>
<svg id="svg32" width="22" height="22" version="1.1" xmlns="http://www.w3.org/2000/svg" xmlns:cc="http://creativecommons.org/ns#" xmlns:dc="http://purl.org/dc/elements/1.1/" xmlns:rdf="http://www.w3.org/1999/02/22-rdf-syntax-ns#">
 <metadata id="metadata36">
  <rdf:RDF>
   <cc:Work rdf:about="">
    <dc:format>image/svg+xml</dc:format>
    <dc:type rdf:resource="http://purl.org/dc/dcmitype/StillImage"/>
   </cc:Work>
  </rdf:RDF>
 </metadata>
 <defs id="defs7">
  <radialGradient id="gr0" cx="12" cy="13" r="16" gradientTransform="matrix(1 0 0 .29292 0 9.2921)" gradientUnits="userSpaceOnUse">
   <stop id="stop2" stop-opacity=".23529" offset="0"/>
   <stop id="stop4" stop-opacity=".54902" offset="1"/>
  </radialGradient>
 </defs>
 <path id="path9" d="m10 7c-1.0907 0-2 0.9093-2 2v1a1 1.0001 0 0 0 0.16797 0.5566c-0.66087 0.4527-1.168 1.0923-1.168 1.9434v4.5 1.5c0 1.3677 1.1323 2.5 2.5 2.5h6.5 3.5c1.3677 0 2.5-1.1323 2.5-2.5v-1.5-4.5c0-0.8518-0.5082-1.4908-1.1699-1.9434a1.0001 1.0001 0 0 0 0.1699-0.5566c0-1.0907-0.9093-2-2-2h-4.4199c-0.3573-0.56123-0.8766-1-1.5801-1h-3zm0 1h3c0.554 0 1 0.446 1 1h5c0.554 0 1 0.446 1 1h-11v-1c0-0.554 0.446-1 1-1zm-0.5 3h10c0.831 0 1.5 0.669 1.5 1.5v4.5 1.5c0 0.831-0.669 1.5-1.5 1.5h-3.5-6.5c-0.831 0-1.5-0.669-1.5-1.5v-1.5-4.5c0-0.831 0.669-1.5 1.5-1.5z" fill="#fff" opacity=".05"/>
 <path id="base" d="m10 8c-0.554 0-1 0.446-1 1v1h11c0-0.554-0.446-1-1-1h-5c0-0.554-0.446-1-1-1h-3zm-0.5 3c-0.831 0-1.5 0.669-1.5 1.5v4.5 1.5c0 0.831 0.669 1.5 1.5 1.5h6.5 3.5c0.831 0 1.5-0.669 1.5-1.5v-1.5-4.5c0-0.831-0.669-1.5-1.5-1.5h-10z" fill="url(#gr0)"/>
 <path id="path15" d="m3 1c-0.554 0-1 0.446-1 1v1h11c0-0.554-0.446-1-1-1h-5c0-0.554-0.446-1-1-1h-3zm-0.5 3c-0.831 0-1.5 0.669-1.5 1.5v4.5 1.5c0 0.831 0.669 1.5 1.5 1.5h4.5312v-0.5c0-0.84589 0.49717-1.4912 1.1562-1.9375a0.97032 0.97032 0 0 1-0.15625-0.5625v-1c0-1.0747 0.89403-1.9688 1.9688-1.9688h3c0.38896 0 0.72171 0.12567 1 0.34375v-1.875c0-0.831-0.669-1.5-1.5-1.5h-10z" opacity=".2"/>
 <path id="path17" d="m10 8c-0.554 0-1 0.446-1 1v1h11c0-0.554-0.446-1-1-1h-5c0-0.554-0.446-1-1-1h-3zm0 0.5h3c0.2856 0 0.5 0.21435 0.5 0.5a0.50005 0.50005 0 0 0 0.5 0.5h-4.5v-0.5c0-0.28565 0.21435-0.5 0.5-0.5zm-0.5 2.5c-0.831 0-1.5 0.669-1.5 1.5v4.5 1.5c0 0.831 0.669 1.5 1.5 1.5h6.5 3.5c0.831 0 1.5-0.669 1.5-1.5v-1.5-4.5c0-0.831-0.669-1.5-1.5-1.5h-10zm0 0.5h10c0.5626 0 1 0.4374 1 1v4.5 1.5c0 0.5626-0.4374 1-1 1h-3.5-6.5c-0.56265 0-1-0.4374-1-1v-1.5-4.5c0-0.5626 0.43735-1 1-1z" opacity=".3"/>
 <path id="path22" d="m9 10v1h0.5 10 0.5c0-0.554-0.446-1-1-1h-5-5zm-1 8.5v1c0 0.831 0.669 1.5 1.5 1.5h6.5 3.5c0.831 0 1.5-0.669 1.5-1.5v-1c0 0.831-0.669 1.5-1.5 1.5h-3.5-6.5c-0.831 0-1.5-0.669-1.5-1.5z" fill="#fff" opacity=".2"/>
 <path id="path27" d="m10 8c-0.554 0-1 0.446-1 1v1c0-0.554 0.446-1 1-1h3c0.554 0 1 0.446 1 1h5 1c0-0.554-0.446-1-1-1h-5c0-0.554-0.446-1-1-1h-3zm-0.5 3c-0.831 0-1.5 0.669-1.5 1.5v1c0-0.831 0.669-1.5 1.5-1.5h10c0.831 0 1.5 0.669 1.5 1.5v-1c0-0.831-0.669-1.5-1.5-1.5h-10z" opacity=".3"/>
</svg>
