<?xml version="1.0" encoding="UTF-8"?>
<svg id="svg36" width="22" height="22" version="1.1" xmlns="http://www.w3.org/2000/svg" xmlns:cc="http://creativecommons.org/ns#" xmlns:dc="http://purl.org/dc/elements/1.1/" xmlns:rdf="http://www.w3.org/1999/02/22-rdf-syntax-ns#">
 <metadata id="metadata40">
  <rdf:RDF>
   <cc:Work rdf:about="">
    <dc:format>image/svg+xml</dc:format>
    <dc:type rdf:resource="http://purl.org/dc/dcmitype/StillImage"/>
   </cc:Work>
  </rdf:RDF>
 </metadata>
 <defs id="defs7">
  <radialGradient id="gr0" cx="12" cy="13" r="16" gradientTransform="matrix(1 0 0 .56565 0 6.5657)" gradientUnits="userSpaceOnUse">
   <stop id="stop2" stop-opacity=".23529" offset="0"/>
   <stop id="stop4" stop-opacity=".54902" offset="1"/>
  </radialGradient>
 </defs>
 <path id="path9" d="m10.9 4c-0.72 1e-3 -1.446 0.091-2.166 0.24-0.7 0.136-1.436 0.316-2.209 0.604a1 1 0 0 0-0.65 0.937v1.75a1 1 0 0 0 1.467 0.885c0.534-0.282 1.067-0.499 1.613-0.633 0.549-0.133 1.115-0.189 1.735-0.189 0.91 0 1.47 0.2 1.84 0.496 0.12 0.1 0.1 0.295 0.17 0.406h-1.4c-1.883 0-3.411 0.325-4.556 1.162-1.139 0.842-1.754 2.202-1.754 3.722 0 1.31 0.462 2.53 1.381 3.38a1 1 0 0 0 0.01 0c0.931 0.84 2.19 1.23 3.578 1.23 1.081 0 2.051-0.19 2.881-0.6 0.1 0 0.13-0.15 0.22-0.2a1 1 0 0 0 0.98 0.81h-4.091-3.969a1 1 0 0 0-1 1v2a1 1 0 0 0 1 1h10a1 1 0 0 0 1-1v-2a1 1 0 0 0-1-1 1 1 0 0 0 1-1v-6.81c0-1.919-0.49-3.518-1.57-4.614-1.08-1.086-2.63-1.574-4.51-1.576zm0.01 1c1.71 0 2.96 0.424 3.81 1.281 0.84 0.857 1.28 2.163 1.28 3.909v6.81h-1.94v-2.03c-0.44 0.69-0.99 1.2-1.65 1.53-0.67 0.33-1.48 0.5-2.441 0.5-1.212 0-2.187-0.32-2.907-0.97-0.71-0.66-1.062-1.55-1.062-2.65 0-1.29 0.456-2.26 1.344-2.91 0.895-0.652 2.202-0.97 3.966-0.97h2.75v-0.188c0-0.864-0.31-1.53-0.9-2-0.59-0.475-1.41-0.718-2.47-0.718-0.68 0-1.33 0.063-1.971 0.218-0.642 0.159-1.252 0.406-1.844 0.719v-1.75c0.712-0.265 1.393-0.433 2.063-0.562 0.668-0.139 1.332-0.219 1.972-0.219zm1.22 5.97c-1.58 0-2.68 0.15-3.286 0.5s-0.906 0.94-0.906 1.78c-1e-3 0.67 0.236 1.2 0.687 1.59 0.458 0.39 1.064 0.6 1.845 0.6 1.08 0 1.94-0.39 2.59-1.13 0.66-0.74 1-1.71 1-2.93v-0.41h-1.93zm0 0.99v0.01h0.74c-0.1 0.64-0.2 1.27-0.56 1.67-0.48 0.54-1 0.79-1.84 0.79-0.599 0-0.931-0.14-1.193-0.36-0.24-0.21-0.339-0.4-0.339-0.83 0-0.6 0.1-0.74 0.406-0.91 0.259-0.15 1.266-0.37 2.786-0.37zm-6.13 7.04h10v2h-10v-2z" fill="#fff" opacity=".05"/>
 <path id="base" d="m10.91 5c-0.64 0-1.303 0.08-1.972 0.219-0.67 0.129-1.351 0.297-2.063 0.562v1.75c0.592-0.313 1.202-0.562 1.844-0.719 0.641-0.156 1.291-0.218 1.971-0.218 1.06 0 1.88 0.242 2.47 0.718 0.59 0.47 0.9 1.137 0.9 2.001v0.187h-2.75c-1.766 0-3.071 0.316-3.966 0.97-0.888 0.65-1.344 1.62-1.344 2.91 0 1.1 0.351 1.99 1.062 2.65 0.719 0.65 1.695 0.97 2.907 0.97 0.961 0 1.771-0.17 2.441-0.5 0.66-0.33 1.21-0.84 1.65-1.53v2.03h1.94v-6.81c0-1.744-0.44-3.052-1.28-3.909-0.85-0.857-2.1-1.281-3.81-1.281zm1.22 5.97h1.93v0.41c0 1.22-0.34 2.19-1 2.93-0.65 0.74-1.51 1.13-2.59 1.13-0.783 0-1.387-0.21-1.845-0.6-0.451-0.39-0.688-0.92-0.688-1.59 0-0.84 0.301-1.43 0.907-1.78s1.706-0.5 3.286-0.5zm-6.13 8.03v2h10v-2z" fill="url(#gr0)"/>
 <path id="path17" d="m10.91 5c-0.64 0-1.304 0.08-1.972 0.219-0.67 0.129-1.351 0.297-2.063 0.562v1.75c0.592-0.313 1.202-0.56 1.844-0.719 0.641-0.155 1.291-0.218 1.971-0.218 1.06 0 1.88 0.243 2.47 0.718 0.59 0.47 0.9 1.136 0.9 2v0.188h-2.75c-1.764 0-3.071 0.318-3.966 0.97-0.888 0.65-1.344 1.62-1.344 2.91 0 1.1 0.352 1.99 1.062 2.65 0.72 0.65 1.695 0.97 2.907 0.97 0.961 0 1.771-0.17 2.441-0.5 0.66-0.33 1.21-0.84 1.65-1.53v2.03h1.94v-6.81c0-1.746-0.44-3.052-1.28-3.909-0.85-0.857-2.1-1.281-3.81-1.281zm0 0.498c1.63 0 2.72 0.391 3.46 1.133 0.72 0.738 1.13 1.896 1.13 3.559v6.31h-0.94v-1.53a0.5 0.5 0 0 0-0.92-0.27c-0.4 0.62-0.88 1.06-1.45 1.35-0.59 0.29-1.32 0.45-2.217 0.45-1.122 0-1.956-0.29-2.569-0.84-0.604-0.56-0.9-1.29-0.9-2.28 0-1.17 0.376-1.95 1.139-2.51 0.77-0.56 1.967-0.872 3.667-0.872h2.75a0.5 0.5 0 0 0 0.5-0.5v-0.187c0-0.982-0.39-1.831-1.09-2.391-0.7-0.564-1.65-0.828-2.78-0.828-0.709 0-1.399 0.065-2.085 0.232-0.431 0.106-0.822 0.304-1.224 0.477v-0.641c0.561-0.187 1.113-0.346 1.658-0.451 0.642-0.129 1.271-0.209 1.871-0.209v-2e-3zm1.22 4.972c-1.61 0-2.755 0.12-3.534 0.57-0.755 0.43-1.157 1.25-1.157 2.21-1e-3 0.79 0.307 1.49 0.862 1.97 0.556 0.47 1.299 0.72 2.169 0.72 1.2 0 2.23-0.46 2.96-1.3 0.75-0.84 1.13-1.95 1.13-3.26v-0.41a0.5 0.5 0 0 0-0.5-0.5h-1.93zm0 0.5h1.93v0.41c0 1.22-0.34 2.19-1 2.93-0.65 0.74-1.51 1.13-2.59 1.13-0.781 0-1.387-0.21-1.845-0.6-0.451-0.39-0.688-0.92-0.687-1.59 0-0.84 0.3-1.43 0.906-1.78s1.706-0.5 3.286-0.5zm-6.13 8.03v2h10v-2h-10zm0.5 0.5h9v1h-9v-1z" opacity=".3"/>
 <path id="path24" d="m10.69 6.594c-0.68 0-1.33 0.063-1.971 0.218-0.642 0.159-1.252 0.406-1.844 0.719v1c0.592-0.313 1.202-0.56 1.844-0.719 0.641-0.155 1.291-0.218 1.971-0.218 1.06 0 1.88 0.242 2.47 0.718 0.39 0.309 0.64 0.711 0.78 1.188h0.12v-0.188c0-0.864-0.31-1.53-0.9-2-0.59-0.475-1.41-0.718-2.47-0.718zm1.44 4.376c-1.58 0-2.68 0.15-3.286 0.5s-0.906 0.94-0.906 1.78c0 0.17 0.017 0.34 0.048 0.49 0.103-0.57 0.384-1 0.858-1.27 0.606-0.35 1.706-0.5 3.286-0.5h1.89c0.02-0.19 0.04-0.38 0.04-0.59v-0.41h-1.93zm-6.085 2.94c-0.015 0.16-0.045 0.3-0.045 0.47 0 1.1 0.352 1.99 1.062 2.65 0.72 0.65 1.695 0.97 2.907 0.97 0.961 0 1.771-0.17 2.441-0.5 0.66-0.33 1.21-0.84 1.65-1.53v-1c-0.44 0.69-0.99 1.2-1.65 1.53-0.67 0.33-1.48 0.5-2.441 0.5-1.212 0-2.187-0.32-2.907-0.97-0.59-0.55-0.919-1.27-1.017-2.12zm8.015 3.09v1h1.94v-1h-1.94zm-8.06 4v1h10v-1h-10z" fill="#fff" opacity=".2"/>
 <path id="path31" d="m10.91 5c-0.64 0-1.304 0.08-1.972 0.219-0.67 0.129-1.351 0.297-2.063 0.562v1c0.712-0.265 1.393-0.433 2.063-0.562 0.668-0.139 1.332-0.219 1.972-0.219 1.71 0 2.96 0.424 3.81 1.281 0.84 0.857 1.28 2.164 1.28 3.909v-1c0-1.745-0.44-3.052-1.28-3.909-0.85-0.857-2.1-1.281-3.81-1.281zm0.4 4.5c-1.765 0-3.071 0.317-3.966 0.97-0.888 0.65-1.344 1.62-1.344 2.91 0 0.19 0.025 0.36 0.045 0.53 0.103-1.05 0.526-1.87 1.299-2.44 0.895-0.65 2.201-0.97 3.966-0.97h2.75v-0.19c0-0.3-0.05-0.56-0.12-0.81h-2.63zm2.71 2.47c-0.1 0.94-0.41 1.73-0.96 2.34-0.65 0.74-1.51 1.13-2.59 1.13-0.782 0-1.387-0.21-1.845-0.6-0.333-0.29-0.548-0.65-0.639-1.09-0.028 0.15-0.048 0.32-0.048 0.5 0 0.67 0.236 1.2 0.687 1.59 0.458 0.39 1.063 0.6 1.845 0.6 1.08 0 1.94-0.39 2.59-1.13 0.66-0.74 1-1.71 1-2.93v-0.41h-0.04zm-8.02 7.03v1h10v-1h-10z" opacity=".3"/>
</svg>
