<?xml version="1.0" encoding="UTF-8"?>
<svg id="svg30" width="22" height="22" version="1.1" xmlns="http://www.w3.org/2000/svg" xmlns:cc="http://creativecommons.org/ns#" xmlns:dc="http://purl.org/dc/elements/1.1/" xmlns:rdf="http://www.w3.org/1999/02/22-rdf-syntax-ns#">
 <metadata id="metadata34">
  <rdf:RDF>
   <cc:Work rdf:about="">
    <dc:format>image/svg+xml</dc:format>
    <dc:type rdf:resource="http://purl.org/dc/dcmitype/StillImage"/>
   </cc:Work>
  </rdf:RDF>
 </metadata>
 <defs id="defs7">
  <radialGradient id="gr0" cx="12" cy="13" r="16" gradientTransform="matrix(1 0 0 .56565 0 6.5657)" gradientUnits="userSpaceOnUse">
   <stop id="stop2" stop-opacity=".23529" offset="0"/>
   <stop id="stop4" stop-opacity=".54902" offset="1"/>
  </radialGradient>
 </defs>
 <path id="path9" d="m12.947 4a1 1.0001 0 0 0-0.5254 0.16797l-8.9766 5.998a1.0001 1.0001 0 0 0-0.00195 1.6641l8.9785 6.0019a1.0001 1.0001 0 0 0 1.5547-0.832v-1.9375h4.0234a1.0001 1.0001 0 0 0 1-1v-6.0449a1.0001 1.0001 0 0 0-1.002-1l-4.0214 0.00976v-2.0273a1.0001 1.0001 0 0 0-1.0293-1zm0.0293 1v3.0293l5.0234-0.01172v6.0449h-5.0234v2.9375l-8.9766-6.002 8.9766-5.998z" fill="#fff" opacity=".05"/>
 <path id="base" d="m12.977 5-8.977 5.998 8.977 6.002v-2.9375h5.0229v-6.0448l-5.0229 0.010699v-3.0284z" fill="url(#gr0)"/>
 <path id="path15" d="m12.977 5-8.9766 5.998 8.9766 6.002v-2.9375h5.0234v-6.0449l-5.0234 0.01172v-3.0293zm-0.5 0.93555v2.0938a0.50005 0.50005 0 0 0 0.5019 0.5l4.5215-0.00977v5.043h-4.5234a0.50005 0.50005 0 0 0-0.5 0.5v2l-7.5762-5.0645 7.5762-5.0624z" opacity=".3"/>
 <path id="path20" d="m4.748 11.498-0.74805 0.5 8.9766 6.002v-1l-8.2286-5.502zm8.2286 2.5645v1h5.0234v-1h-5.0234z" fill="#fff" opacity=".2"/>
 <path id="path25" d="m12.977 5-8.9766 5.998 0.74805 0.5 8.2286-5.498v-1zm5.0234 3.0176-5.0234 0.01172v1l5.0234-0.01172v-1z" opacity=".3"/>
</svg>
