<?xml version="1.0" encoding="UTF-8"?>
<svg id="svg30" width="22" height="22" version="1.1" xmlns="http://www.w3.org/2000/svg" xmlns:cc="http://creativecommons.org/ns#" xmlns:dc="http://purl.org/dc/elements/1.1/" xmlns:rdf="http://www.w3.org/1999/02/22-rdf-syntax-ns#">
 <metadata id="metadata34">
  <rdf:RDF>
   <cc:Work rdf:about="">
    <dc:format>image/svg+xml</dc:format>
    <dc:type rdf:resource="http://purl.org/dc/dcmitype/StillImage"/>
   </cc:Work>
  </rdf:RDF>
 </metadata>
 <defs id="defs7">
  <radialGradient id="gr0" cx="12" cy="13" r="16" gradientTransform="matrix(1 0 0 .29292 0 9.2921)" gradientUnits="userSpaceOnUse">
   <stop id="stop2" stop-opacity=".23529" offset="0"/>
   <stop id="stop4" stop-opacity=".54902" offset="1"/>
  </radialGradient>
 </defs>
 <path id="path9" d="m7 7c-1.1738 0-2.031 0.89896-2.291 2h-3.209a1 1.0001 0 0 0-1 1v2a1.0001 1.0001 0 0 0 1 1h3.209c0.26007 1.101 1.1172 2 2.291 2h3.5a1.0001 1.0001 0 0 0 0.5-0.1348 1.0001 1.0001 0 0 0 0.5 0.1348h3.5c1.1738 0 2.0309-0.899 2.291-2h3.209a1.0001 1.0001 0 0 0 1-1v-2a1.0001 1.0001 0 0 0-1-1h-3.209c-0.2601-1.101-1.1172-2-2.291-2h-3.5a1.0001 1.0001 0 0 0-0.5 0.13477 1.0001 1.0001 0 0 0-0.5-0.13477h-3.5zm0 1h3.5v6h-3.5c-0.831 0-1.5-0.669-1.5-1.5v-0.5h-4v-2h4v-0.5c0-0.831 0.669-1.5 1.5-1.5zm4.5 0h3.5c0.831 0 1.5 0.669 1.5 1.5v0.5h4v2h-4v0.5c0 0.831-0.669 1.5-1.5 1.5h-3.5v-6z" fill="#fff" opacity=".05"/>
 <path id="base" d="m7 8c-0.831 0-1.5 0.669-1.5 1.5v0.5h-4v2h4v0.5c0 0.831 0.669 1.5 1.5 1.5h3.5v-6zm4.5 0v6h3.5c0.831 0 1.5-0.669 1.5-1.5v-0.5h4v-2h-4v-0.5c0-0.831-0.669-1.5-1.5-1.5z" fill="url(#gr0)"/>
 <path id="path15" d="m7 8c-0.831 0-1.5 0.669-1.5 1.5v0.5h-4v2h4v0.5c0 0.831 0.669 1.5 1.5 1.5h3.5v-6h-3.5zm4.5 0v6h3.5c0.831 0 1.5-0.669 1.5-1.5v-0.5h4v-2h-4v-0.5c0-0.831-0.669-1.5-1.5-1.5h-3.5zm-4.5 0.5h3v5h-3c-0.56265 0-1-0.4374-1-1v-0.5a0.50005 0.50005 0 0 0-0.5-0.5h-3.5v-1h3.5a0.50005 0.50005 0 0 0 0.5-0.5v-0.5c0-0.56265 0.43735-1 1-1zm5 0h3c0.5626 0 1 0.43735 1 1v0.5a0.50005 0.50005 0 0 0 0.5 0.5h3.5v1h-3.5a0.50005 0.50005 0 0 0-0.5 0.5v0.5c0 0.5626-0.4374 1-1 1h-3v-5z" opacity=".3"/>
 <path id="path20" d="m1.5 12v1h4v0.5c0 0.831 0.669 1.5 1.5 1.5h3.5v-1h-3.5c-0.831 0-1.5-0.669-1.5-1.5v-0.5h-4zm15 0v0.5c0 0.831-0.669 1.5-1.5 1.5h-3.5v1h3.5c0.831 0 1.5-0.669 1.5-1.5v-0.5h4v-1h-4z" fill="#fff" opacity=".2"/>
 <path id="path25" d="m7 8c-0.831 0-1.5 0.669-1.5 1.5v0.5h-4v1h4v-0.5c0-0.831 0.669-1.5 1.5-1.5h3.5v-1h-3.5zm4.5 0v1h3.5c0.831 0 1.5 0.669 1.5 1.5v0.5h4v-1h-4v-0.5c0-0.831-0.669-1.5-1.5-1.5h-3.5z" opacity=".3"/>
</svg>
