<?xml version="1.0" encoding="UTF-8"?>
<svg id="svg30" width="22" height="22" version="1.1" xmlns="http://www.w3.org/2000/svg" xmlns:cc="http://creativecommons.org/ns#" xmlns:dc="http://purl.org/dc/elements/1.1/" xmlns:rdf="http://www.w3.org/1999/02/22-rdf-syntax-ns#">
 <metadata id="metadata34">
  <rdf:RDF>
   <cc:Work rdf:about="">
    <dc:format>image/svg+xml</dc:format>
    <dc:type rdf:resource="http://purl.org/dc/dcmitype/StillImage"/>
   </cc:Work>
  </rdf:RDF>
 </metadata>
 <defs id="defs7">
  <radialGradient id="gr0" cx="12" cy="13" r="16" gradientTransform="matrix(1 0 0 .74747 0 4.7475)" gradientUnits="userSpaceOnUse">
   <stop id="stop2" stop-opacity=".23529" offset="0"/>
   <stop id="stop4" stop-opacity=".54902" offset="1"/>
  </radialGradient>
 </defs>
 <path id="path9" d="m5.9844 2a1 1.0001 0 0 0-0.69141 0.29297l-3 3a1.0001 1.0001 0 0 0 0 1.4141l11 11a1.0001 1.0001 0 0 0 0.3359 0.2207l5 2a1.0001 1.0001 0 0 0 1.2988-1.2988l-2-5a1.0001 1.0001 0 0 0-0.2207-0.3359l-11-11a1.0001 1.0001 0 0 0-0.72265-0.29297zm0.01562 1 11 11 2 5-5-2-11-11 3-3zm9.0254 10.971-1.041 1.0625 0.9824 1.0195 2.0332 0.9473-0.9609-1.9941-1.0137-1.0352zm-11.025 3.0293c-1.0931 0-2 0.9069-2 2s0.90694 2 2 2c0.62979 0 1.1317-0.3404 1.5-0.8047 0.36834 0.4643 0.87021 0.8047 1.5 0.8047s1.1317-0.3404 1.5-0.8047c0.36834 0.4643 0.87021 0.8047 1.5 0.8047 1.0931 0 2-0.9069 2-2s-0.9069-2-2-2c-0.62979 0-1.1317 0.3404-1.5 0.8047-0.36834-0.4643-0.87021-0.8047-1.5-0.8047s-1.1317 0.3404-1.5 0.8047c-0.36834-0.4643-0.87021-0.8047-1.5-0.8047zm0 1c0.552 0 1 0.448 1 1s-0.448 1-1 1-1-0.448-1-1 0.448-1 1-1zm3 0c0.552 0 1 0.448 1 1s-0.448 1-1 1-1-0.448-1-1 0.448-1 1-1zm3 0c0.552 0 1 0.448 1 1s-0.448 1-1 1-1-0.448-1-1 0.448-1 1-1z" fill="#fff" opacity=".05"/>
 <path id="base" d="m6 3-3 3 11 11 5 2-2-5zm9.0257 10.971 1.0143 1.0345 0.96 1.994-2.033-0.947-0.982-1.02zm-11.026 4.029c-0.552 0-1 0.448-1 1s0.448 1 1 1 1-0.448 1-1-0.448-1-1-1zm3 0c-0.552 0-1 0.448-1 1s0.448 1 1 1 1-0.448 1-1-0.448-1-1-1zm3 0c-0.552 0-1 0.448-1 1s0.448 1 1 1 1-0.448 1-1-0.448-1-1-1z" fill="url(#gr0)"/>
 <path id="path15" d="m6 3-3 3 11 11 5 2-2-5-11-11zm0 0.70703 10.574 10.574 1.5274 3.8204-3.8204-1.5274-10.574-10.574 2.293-2.293zm9.0273 9.7637a0.50005 0.50005 0 0 0-0.3593 0.1504l-1.0391 1.0605a0.50005 0.50005 0 0 0-0.0039 0.6973l0.9824 1.0195a0.50005 0.50005 0 0 0 0.1485 0.1075l2.0332 0.9472a0.50005 0.50005 0 0 0 0.6621-0.6699l-0.961-1.9941a0.50005 0.50005 0 0 0-0.0937-0.1329l-1.0137-1.0351a0.50005 0.50005 0 0 0-0.3555-0.1504zm-0.0019 0.5 1.0137 1.0352 0.9609 1.9941-2.0332-0.9473-0.9824-1.0195 1.041-1.0625zm-11.025 4.0293c-0.552 0-1 0.448-1 1s0.448 1 1 1 1-0.448 1-1-0.448-1-1-1zm3 0c-0.552 0-1 0.448-1 1s0.448 1 1 1 1-0.448 1-1-0.448-1-1-1zm3 0c-0.552 0-1 0.448-1 1s0.448 1 1 1 1-0.448 1-1-0.448-1-1-1zm-6 0.5c0.28147 0 0.5 0.2185 0.5 0.5s-0.21853 0.5-0.5 0.5-0.5-0.2185-0.5-0.5 0.21853-0.5 0.5-0.5zm3 0c0.28147 0 0.5 0.2185 0.5 0.5s-0.21853 0.5-0.5 0.5-0.5-0.2185-0.5-0.5 0.21853-0.5 0.5-0.5zm3 0c0.2815 0 0.5 0.2185 0.5 0.5s-0.2185 0.5-0.5 0.5c-0.28147 0-0.5-0.2185-0.5-0.5s0.21853-0.5 0.5-0.5z" opacity=".3"/>
 <path id="path20" d="m3.5 6.5-0.5 0.5 11 11 5 2-0.4766-1.1914-4.5234-1.8086-10.5-10.5zm11.525 7.4707-1.041 1.0625 0.4863 0.5039 0.5547-0.5664 1.0137 1.0352 0.3398 0.705 0.6211 0.2891-0.9609-1.9941-1.0137-1.0352zm-11.873 5.5293c-0.08863 0.1493-0.15234 0.3139-0.15234 0.5 0 0.552 0.448 1 1 1s1-0.448 1-1c0-0.1861-0.06371-0.3507-0.15234-0.5-0.17431 0.2935-0.48173 0.5-0.84766 0.5s-0.67335-0.2065-0.84766-0.5zm3 0c-0.08863 0.1493-0.15234 0.3139-0.15234 0.5 0 0.552 0.448 1 1 1s1-0.448 1-1c0-0.1861-0.06371-0.3507-0.15234-0.5-0.17431 0.2935-0.48173 0.5-0.84766 0.5s-0.67335-0.2065-0.84766-0.5zm3 0c-0.08863 0.1493-0.15234 0.3139-0.15234 0.5 0 0.552 0.448 1 1 1s1-0.448 1-1c0-0.1861-0.0637-0.3507-0.1523-0.5-0.1744 0.2935-0.4818 0.5-0.8477 0.5-0.36593 0-0.67335-0.2065-0.84766-0.5z" fill="#fff" opacity=".2"/>
 <path id="path25" d="m6 3-3 3 0.5 0.5 2.5-2.5 11 11 1.5234 3.8086 0.4766 0.1914-2-5-11-11zm8.4707 12.537-0.4863 0.4961 0.9824 1.0195 2.0332 0.9473-0.6211-1.2891-1.4121-0.6582-0.4961-0.5156zm-10.471 2.4629c-0.552 0-1 0.448-1 1 0 0.1861 0.06371 0.3507 0.15234 0.5 0.17431-0.2935 0.48173-0.5 0.84766-0.5s0.67335 0.2065 0.84766 0.5c0.08863-0.1493 0.15234-0.3139 0.15234-0.5 0-0.552-0.448-1-1-1zm3 0c-0.552 0-1 0.448-1 1 0 0.1861 0.06371 0.3507 0.15234 0.5 0.17431-0.2935 0.48173-0.5 0.84766-0.5s0.67335 0.2065 0.84766 0.5c0.08863-0.1493 0.15234-0.3139 0.15234-0.5 0-0.552-0.448-1-1-1zm3 0c-0.552 0-1 0.448-1 1 0 0.1861 0.06371 0.3507 0.15234 0.5 0.17431-0.2935 0.48173-0.5 0.84766-0.5 0.3659 0 0.6733 0.2065 0.8477 0.5 0.0886-0.1493 0.1523-0.3139 0.1523-0.5 0-0.552-0.448-1-1-1z" opacity=".3"/>
</svg>
