<?xml version="1.0" encoding="UTF-8"?>
<svg id="svg30" width="22" height="22" version="1.1" xmlns="http://www.w3.org/2000/svg" xmlns:cc="http://creativecommons.org/ns#" xmlns:dc="http://purl.org/dc/elements/1.1/" xmlns:rdf="http://www.w3.org/1999/02/22-rdf-syntax-ns#">
 <metadata id="metadata34">
  <rdf:RDF>
   <cc:Work rdf:about="">
    <dc:format>image/svg+xml</dc:format>
    <dc:type rdf:resource="http://purl.org/dc/dcmitype/StillImage"/>
   </cc:Work>
  </rdf:RDF>
 </metadata>
 <defs id="defs7">
  <radialGradient id="gr0" cx="12" cy="13" r="16" gradientTransform="matrix(1 0 0 .47474 0 7.4748)" gradientUnits="userSpaceOnUse">
   <stop id="stop2" stop-opacity=".23529" offset="0"/>
   <stop id="stop4" stop-opacity=".54902" offset="1"/>
  </radialGradient>
 </defs>
 <path id="path9" d="m3 5c-1.6447 0-3 1.3553-3 3v4c0 1.6447 1.3553 3 3 3h4a1 1.0001 0 0 0-0.70703 1.707l4 4a1.0001 1.0001 0 0 0 1.414 0l4-4a1.0001 1.0001 0 0 0-0.707-1.707h4c1.6447 0 3-1.3553 3-3v-4c0-1.6447-1.3553-3-3-3h-5c-1.6447 0-3 1.3553-3 3 0-1.6447-1.3553-3-3-3h-5zm0 1h5c1.108 0 2 0.892 2 2h-2.5-1.5-2.5c-0.277 0-0.5 0.223-0.5 0.5v3c0 0.277 0.223 0.5 0.5 0.5h2.5 1.5 2.5c0 1.108-0.892 2-2 2h-5c-1.108 0-2-0.892-2-2v-4c0-1.108 0.892-2 2-2zm11 0h5c1.108 0 2 0.892 2 2v4c0 1.108-0.892 2-2 2h-5c-1.108 0-2-0.892-2-2h2.5 1.5 2.5c0.277 0 0.5-0.223 0.5-0.5v-3c0-0.277-0.223-0.5-0.5-0.5h-2.5-1.5-2.5c0-1.108 0.892-2 2-2zm-10 3h1.4199c-0.19664 0.30892-0.41992 0.61278-0.41992 1 0 0.3872 0.22328 0.6911 0.41992 1h-1.4199v-2zm3 0h8c0.554 0 1 0.446 1 1s-0.446 1-1 1h-8c-0.554 0-1-0.446-1-1s0.446-1 1-1zm9.5801 0h1.4199v2h-1.4199c0.1966-0.3089 0.4199-0.6128 0.4199-1 0-0.38722-0.2233-0.69108-0.4199-1zm-5.5801 3c0 1.6447 1.3553 3 3 3h-6c1.6447 0 3-1.3553 3-3zm-4 4h8l-4 4-4-4z" fill="#fff" opacity=".05"/>
 <path id="base" d="m3 6c-1.108 0-2 0.892-2 2v4c0 1.108 0.892 2 2 2h5c1.108 0 2-0.892 2-2h-2.5-1.5-2.5c-0.277 0-0.5-0.223-0.5-0.5v-3c0-0.277 0.223-0.5 0.5-0.5h2.5 1.5 2.5c0-1.108-0.892-2-2-2h-5zm11 0c-1.108 0-2 0.892-2 2h2.5 1.5 2.5c0.277 0 0.5 0.223 0.5 0.5v3c0 0.277-0.223 0.5-0.5 0.5h-2.5-1.5-2.5c0 1.108 0.892 2 2 2h5c1.108 0 2-0.892 2-2v-4c0-1.108-0.892-2-2-2h-5zm-7 3c-0.554 0-1 0.446-1 1s0.446 1 1 1h8c0.554 0 1-0.446 1-1s-0.446-1-1-1h-8zm0 7 4 4 4-4h-8z" fill="url(#gr0)"/>
 <path id="path15" d="m3 6c-1.108 0-2 0.892-2 2v4c0 1.108 0.892 2 2 2h5c1.108 0 2-0.892 2-2h-2.5-1.5-2.5c-0.277 0-0.5-0.223-0.5-0.5v-3c0-0.277 0.223-0.5 0.5-0.5h2.5 1.5 2.5c0-1.108-0.892-2-2-2h-5zm11 0c-1.108 0-2 0.892-2 2h2.5 1.5 2.5c0.277 0 0.5 0.223 0.5 0.5v3c0 0.277-0.223 0.5-0.5 0.5h-2.5-1.5-2.5c0 1.108 0.892 2 2 2h5c1.108 0 2-0.892 2-2v-4c0-1.108-0.892-2-2-2h-5zm-11 0.5h5c0.64238 0 1.0778 0.44239 1.2949 1h-1.7949-1.5-2.5c-0.54535 0-1 0.45465-1 1v3c0 0.5454 0.45465 1 1 1h2.5 1.5 1.7949c-0.21707 0.5576-0.65254 1-1.2949 1h-5c-0.83965 0-1.5-0.6604-1.5-1.5v-4c0-0.83965 0.66035-1.5 1.5-1.5zm11 0h5c0.8396 0 1.5 0.66035 1.5 1.5v4c0 0.8396-0.6604 1.5-1.5 1.5h-5c-0.6424 0-1.0778-0.4424-1.2949-1h1.7949 1.5 2.5c0.5454 0 1-0.4546 1-1v-3c0-0.54535-0.4546-1-1-1h-2.5-1.5-1.7949c0.2171-0.55761 0.6525-1 1.2949-1zm-7 2.5c-0.554 0-1 0.446-1 1s0.446 1 1 1h8c0.554 0 1-0.446 1-1s-0.446-1-1-1h-8zm0 0.5h8c0.2856 0 0.5 0.21435 0.5 0.5 0 0.2856-0.2144 0.5-0.5 0.5h-8c-0.28565 0-0.5-0.2144-0.5-0.5 0-0.28565 0.21435-0.5 0.5-0.5zm0 6.5 4 4 4-4h-8zm1.207 0.5h5.586l-2.793 2.793-2.793-2.793z" opacity=".3"/>
 <path id="path20" d="m3.5 8c-0.277 0-0.5 0.223-0.5 0.5v1c0-0.277 0.223-0.5 0.5-0.5h2.5 1 0.5 2.5c0-0.36693-0.10429-0.705-0.27539-1h-2.2246-1.5-2.5zm8.7754 0c-0.1711 0.295-0.2754 0.63307-0.2754 1h3 1 2.5c0.277 0 0.5 0.223 0.5 0.5v-1c0-0.277-0.223-0.5-0.5-0.5h-2.5-1.5-2.2246zm-6.1231 2.5c-0.08807 0.1491-0.15234 0.3136-0.15234 0.5 0 0.554 0.446 1 1 1h0.5 2.5 2 3c0.554 0 1-0.446 1-1 0-0.1864-0.0643-0.3509-0.1523-0.5-0.1738 0.294-0.4801 0.5-0.8477 0.5h-8c-0.36763 0-0.67391-0.206-0.84766-0.5zm-5.1523 1.5v1c0 1.108 0.892 2 2 2h5c1.108 0 2-0.892 2-2h-0.27539c-0.34556 0.5958-0.98354 1-1.7246 1h-5c-1.108 0-2-0.892-2-2zm20 0c0 1.108-0.892 2-2 2h-5c-0.7411 0-1.379-0.4042-1.7246-1h-0.2754c0 1.108 0.892 2 2 2h5c1.108 0 2-0.892 2-2v-1zm-14 5 4 4 4-4h-1l-3 3-3-3h-1z" fill="#fff" opacity=".2"/>
 <path id="path25" d="m3 6c-1.108 0-2 0.892-2 2v1c0-1.108 0.892-2 2-2h5c0.74107 0 1.379 0.4042 1.7246 1h0.27539c0-1.108-0.892-2-2-2h-5zm11 0c-1.108 0-2 0.892-2 2h0.2754c0.3456-0.5958 0.9835-1 1.7246-1h5c1.108 0 2 0.892 2 2v-1c0-1.108-0.892-2-2-2h-5zm-7 3c-0.554 0-1 0.446-1 1 0 0.1864 0.06427 0.3509 0.15234 0.5 0.17375-0.294 0.48003-0.5 0.84766-0.5h8c0.3676 0 0.6739 0.206 0.8477 0.5 0.088-0.1491 0.1523-0.3136 0.1523-0.5 0-0.554-0.446-1-1-1h-3-2-2.5-0.5zm-4 2.5v1c0 0.277 0.223 0.5 0.5 0.5h2.5 1.5 2.2246c0.1711-0.295 0.27539-0.6331 0.27539-1h-2.5-0.5-1-2.5c-0.277 0-0.5-0.223-0.5-0.5zm16 0c0 0.277-0.223 0.5-0.5 0.5h-2.5-1-3c0 0.3669 0.1043 0.705 0.2754 1h2.2246 1.5 2.5c0.277 0 0.5-0.223 0.5-0.5v-1zm-12 4.5 1 1h6l1-1h-8z" opacity=".3"/>
</svg>
