<?xml version="1.0" encoding="UTF-8"?>
<svg id="svg30" width="22" height="22" version="1.1" xmlns="http://www.w3.org/2000/svg" xmlns:cc="http://creativecommons.org/ns#" xmlns:dc="http://purl.org/dc/elements/1.1/" xmlns:rdf="http://www.w3.org/1999/02/22-rdf-syntax-ns#">
 <metadata id="metadata34">
  <rdf:RDF>
   <cc:Work rdf:about="">
    <dc:format>image/svg+xml</dc:format>
    <dc:type rdf:resource="http://purl.org/dc/dcmitype/StillImage"/>
   </cc:Work>
  </rdf:RDF>
 </metadata>
 <defs id="defs7">
  <radialGradient id="gr0" cx="12" cy="13" r="16" gradientTransform="matrix(1 0 0 .56565 0 6.5657)" gradientUnits="userSpaceOnUse">
   <stop id="stop2" stop-opacity=".23529" offset="0"/>
   <stop id="stop4" stop-opacity=".54902" offset="1"/>
  </radialGradient>
 </defs>
 <path id="path9" d="m12.656 3.9688a1 1.0001 0 0 0-1 1v6.4356l-2.5332-6.7559a1.0001 1.0001 0 0 0-0.93555-0.64844h-2.7812a1.0001 1.0001 0 0 0-0.93555 0.64844l-3.375 9a1.0001 1.0001 0 0 0 0.93555 1.3516h2.3438a1.0001 1.0001 0 0 0 0.94141-0.6621l0.35547-0.9941h2.2363l0.33203 0.9785a1.0001 1.0001 0 0 0 0.9043 0.6777h-2.1445a1.0001 1.0001 0 0 0-0.70703 1.707l4 4a1.0001 1.0001 0 0 0 1.414 0l4-4a1.0001 1.0001 0 0 0-0.707-1.707h-0.1562a1.0001 1.0001 0 0 0 0.621-0.2168c0.4939 0.2368 1.0448 0.373 1.629 0.373 1.0853 0 2.1315-0.4752 2.8359-1.3359a1.0001 1.0001 0 0 0 0.0019-0.0019c0.7018-0.8627 1.037-1.9777 1.0372-3.1934-2e-4 -1.2147-0.3328-2.3316-1.0372-3.1934l-0.0019-0.00195c-0.6957-0.85396-1.7298-1.3672-2.8359-1.3672-0.4421 1e-5 -0.8467 0.14626-1.25 0.28711v-1.3809a1.0001 1.0001 0 0 0-1-1h-2.1876zm0 1h2.1876v3.25c0.3-0.39379 0.635-0.69015 1-0.875 0.3649-0.18885 0.7755-0.28124 1.25-0.28125 0.8394 1e-5 1.523 0.33698 2.0624 1 0.5394 0.65901 0.8125 1.5218 0.8126 2.5625-1e-4 1.0407-0.2732 1.8995-0.8126 2.5625-0.5394 0.659-1.223 0.9687-2.0624 0.9687-0.4746 0-0.885-0.0964-1.25-0.2812-0.3649-0.1889-0.6999-0.4812-1-0.875v1h-2.1876v-9.0312zm-7.25 0.03125h2.7812l3.375 9h-2.375l-0.5625-1.6562h-3.6562l-0.59375 1.6562h-2.3438l3.375-9zm1.4062 2.0938-1.25 3.5938h2.4688l-1.2188-3.5938zm9.4687 1.5625c-0.4663 1e-5 -0.8109 0.15845-1.0624 0.5-0.2473 0.33754-0.375 0.82979-0.375 1.4688 0 0.6388 0.1277 1.1273 0.375 1.4688 0.2514 0.3376 0.596 0.5 1.0624 0.5s0.8191-0.1624 1.0626-0.5c0.2472-0.3377 0.3749-0.826 0.375-1.4688-1e-4 -0.64298-0.1278-1.1312-0.375-1.4688-0.2435-0.33753-0.5962-0.49999-1.0626-0.5zm0 1c0.2343 0 0.1878-0.00504 0.252 0.08398a1.0001 1.0001 0 0 0 0.0039 0.00782c0.0725 0.09895 0.1816 0.36635 0.1817 0.87695-2e-4 0.5106-0.1092 0.778-0.1817 0.877a1.0001 1.0001 0 0 0-0.0039 0.0078c-0.0642 0.089-0.0177 0.084-0.252 0.084-0.2288 0-0.1798 0.0062-0.2539-0.0958-0.0774-0.1095-0.1836-0.3728-0.1835-0.873-1e-4 -0.5047 0.1113-0.77854 0.1816-0.875v-0.00195c0.077-0.10578 0.0182-0.0918 0.2558-0.0918zm-4.1718 5.1816a1.0001 1.0001 0 0 0 0.5468 0.1621h-1.0937a1.0001 1.0001 0 0 0 0.5469-0.1621zm-5.1094 1.1621h8l-4 4-4-4z" fill="#fff" opacity=".05"/>
 <path id="base" d="m12.656 4.9688v9.0312h2.1875v-1c0.30009 0.3938 0.63502 0.68614 1 0.875 0.36497 0.18483 0.77553 0.28125 1.25 0.28125 0.83944 0 1.5231-0.30975 2.0625-0.96875 0.53934-0.66302 0.81249-1.5218 0.8125-2.5625-8e-6 -1.0407-0.27316-1.9035-0.8125-2.5625-0.53936-0.66302-1.2231-0.99999-2.0625-1-0.47447 7e-6 -0.88503 0.092396-1.25 0.28125-0.36498 0.18485-0.69991 0.48121-1 0.875v-3.25zm-7.25 0.03125-3.375 9h2.3438l0.59375-1.6562h3.6562l0.5625 1.6562h2.375l-3.375-9zm1.4062 2.0938 1.2188 3.5938h-2.4688zm9.4688 1.5625c0.46635 5.4e-6 0.81918 0.16247 1.0625 0.5 0.24736 0.33754 0.37499 0.82582 0.375 1.4688-6e-6 0.64293-0.12764 1.1312-0.375 1.4688-0.24332 0.33754-0.59615 0.5-1.0625 0.5-0.46636 1e-6 -0.81108-0.16246-1.0625-0.5-0.24738-0.34155-0.375-0.82984-0.375-1.4688-3e-6 -0.63891 0.12762-1.1312 0.375-1.4688 0.25142-0.34155 0.59614-0.49999 1.0625-0.5zm-9.2812 7.3438 4 4 4-4z" fill="url(#gr0)"/>
 <path id="path15" d="m12.656 4.9688v9.0312h2.1876v-1c0.3001 0.3938 0.6351 0.6861 1 0.875 0.365 0.1848 0.7754 0.2812 1.25 0.2812 0.8394 0 1.523-0.3097 2.0624-0.9687 0.5394-0.663 0.8125-1.5218 0.8126-2.5625-1e-4 -1.0407-0.2732-1.9035-0.8126-2.5625-0.5394-0.66302-1.223-0.99999-2.0624-1-0.4745 1e-5 -0.8851 0.0924-1.25 0.28125-0.365 0.18485-0.7 0.48121-1 0.875v-3.25h-2.1876zm-7.25 0.03125-3.375 9h2.3438l0.59375-1.6562h3.6562l0.5625 1.6562h2.375l-3.375-9h-2.7812zm7.75 0.46875h1.1876v2.75a0.50005 0.50005 0 0 0 0.6933 0.46094c-0.0696 0.06603-0.1627 0.10094-0.2207 0.17969a0.50005 0.50005 0 0 1 0 0.00195c-0.3359 0.45837-0.4727 1.0582-0.4726 1.7637-1e-4 0.7055 0.1384 1.303 0.4707 1.7617a0.50005 0.50005 0 0 0 0.0039 0.0059c0.0405 0.0544 0.1079 0.0765 0.1543 0.125a0.50005 0.50005 0 0 0-0.6289 0.4824v0.5h-1.1876v-8.0312zm-7.4023 0.03125h2.0879l2.998 8h-1.2949l-0.44726-1.3164a0.50005 0.50005 0 0 0-0.47266-0.3398h-3.6562a0.50005 0.50005 0 0 0-0.4707 0.332l-0.47461 1.3242h-1.2695l3-8zm1.0391 1.0938a0.50005 0.50005 0 0 0-0.45313 0.33594l-1.25 3.5937a0.50005 0.50005 0 0 0 0.47266 0.6641h2.4688a0.50005 0.50005 0 0 0 0.47266-0.6602l-1.2188-3.5937a0.50005 0.50005 0 0 0-0.49024-0.33984 0.50005 0.50005 0 0 1-0.00195 0zm0.01953 0.5 1.2188 3.5938h-2.4688l1.25-3.5938zm10.281 0.46875c0.7055 1e-5 1.2126 0.24952 1.6738 0.81641a0.50005 0.50005 0 0 1 0.0019 0c0.4563 0.55752 0.6991 1.2928 0.6993 2.2461-2e-4 0.9533-0.2431 1.6829-0.7012 2.2461-0.4566 0.5572-0.9581 0.7851-1.6738 0.7851-0.4052 0-0.7278-0.0775-1.0196-0.2246l-0.0019-0.0019h-2e-3c-0.2002-0.1041-0.3871-0.3139-0.5762-0.5098 0.2424 0.1087 0.5091 0.1739 0.7871 0.1739 0.5811-1e-4 1.1317-0.2456 1.4649-0.7051 0.3348-0.4569 0.4725-1.0546 0.4727-1.7637-2e-4 -0.70909-0.1379-1.3068-0.4727-1.7637-0.3332-0.4595-0.8838-0.70507-1.4649-0.70508-0.3198 0-0.6199 0.09028-0.8906 0.23437 0.2217-0.25422 0.4475-0.48396 0.6797-0.60156a0.50005 0.50005 0 0 0 0.0039-0.00195c0.2882-0.14911 0.6099-0.2246 1.0196-0.22461zm-0.8126 1.0938c0.4664 1e-5 0.8191 0.16247 1.0626 0.5 0.2472 0.33754 0.3749 0.82577 0.375 1.4688-1e-4 0.6428-0.1278 1.1311-0.375 1.4688-0.2435 0.3376-0.5962 0.5-1.0626 0.5s-0.811-0.1624-1.0624-0.5c-0.2473-0.3415-0.375-0.83-0.375-1.4688 0-0.63896 0.1277-1.1312 0.375-1.4688 0.2515-0.34155 0.5961-0.49999 1.0624-0.5zm-9.2812 7.3438 4 4 4-4h-8zm1.207 0.5h5.586l-2.793 2.793-2.793-2.793z" opacity=".3"/>
 <path id="path20" d="m6.8125 7.0938-1.25 3.5938h0.34766l0.90234-2.5938 0.87891 2.5938h0.33984l-1.2188-3.5938zm9.4687 1.5625c-0.4663 1e-5 -0.8109 0.15845-1.0624 0.5-0.2473 0.33754-0.375 0.82979-0.375 1.4688 0 0.1794 0.0112 0.3442 0.0312 0.5 0.0511-0.3999 0.1659-0.726 0.3438-0.9688 0.2515-0.3415 0.5961-0.49994 1.0624-0.49995 0.4664 1e-5 0.8191 0.16247 1.0626 0.49995 0.1781 0.2432 0.2927 0.5676 0.3437 0.9688 0.0198-0.1556 0.0312-0.3204 0.0313-0.5-1e-4 -0.64298-0.1278-1.1312-0.375-1.4688-0.2435-0.33753-0.5962-0.49999-1.0626-0.5zm3.6543 2.4688c-0.076 0.8153-0.3303 1.5106-0.7793 2.0625-0.5394 0.659-1.223 0.9687-2.0624 0.9687-0.4746 0-0.885-0.0964-1.25-0.2812-0.3649-0.1889-0.6999-0.4812-1-0.875v1c0.3001 0.3938 0.6351 0.6861 1 0.875 0.365 0.1848 0.7754 0.2812 1.25 0.2812 0.8394 0 1.523-0.3097 2.0624-0.9687 0.5394-0.663 0.8125-1.5218 0.8126-2.5625-1e-4 -0.1743-0.0179-0.3358-0.0333-0.5zm-5.0917 2.875h-2.1876v1h2.1876v-1zm-9.875-1.6562-0.59375 1.6562h-1.9688l-0.375 1h2.3438l0.59375-1.6562h3.6562l0.5625 1.6562h2.375l-0.375-1h-2l-0.5625-1.6562h-3.6562zm2.0312 4.6562 4 4 4-4h-1l-3 3-3-3h-1z" fill="#fff" opacity=".2"/>
 <path id="path25" d="m12.656 4.9688v1h2.1876v-1h-2.1876zm-7.25 0.03125-3.375 9h0.375l3-8h2.7812l3 8h0.375l-3.375-9h-2.7812zm11.688 2.0625c-0.4745 1e-5 -0.8851 0.0924-1.25 0.28125-0.365 0.18485-0.7 0.48121-1 0.875v1c0.3-0.39379 0.635-0.69015 1-0.875 0.3649-0.18885 0.7755-0.28124 1.25-0.28125 0.8394 1e-5 1.523 0.33698 2.0624 1 0.449 0.54861 0.7033 1.2464 0.7793 2.0625 0.0154-0.1641 0.0332-0.3257 0.0333-0.5-1e-4 -1.0407-0.2732-1.9035-0.8126-2.5625-0.5394-0.66302-1.223-0.99999-2.0624-1zm-11.184 3.625-0.34766 1h2.4688l-0.33984-1h-1.7812zm8.9648 0.4375c-0.0199 0.1561-0.0312 0.3206-0.0312 0.5 0 0.6388 0.1277 1.1273 0.375 1.4688 0.2514 0.3376 0.596 0.5 1.0624 0.5s0.8191-0.1624 1.0626-0.5c0.2472-0.3377 0.3749-0.826 0.375-1.4688-1e-4 -0.1797-0.0115-0.3444-0.0313-0.5-0.051 0.4011-0.1656 0.7255-0.3437 0.9688-0.2435 0.3376-0.5962 0.5-1.0626 0.5s-0.811-0.1624-1.0624-0.5c-0.1779-0.2456-0.2927-0.57-0.3438-0.9688zm-7.875 4.875 1 1h6l1-1h-8z" opacity=".3"/>
</svg>
