<?xml version="1.0" encoding="UTF-8"?>
<svg id="svg30" width="22" height="22" version="1.1" xmlns="http://www.w3.org/2000/svg" xmlns:cc="http://creativecommons.org/ns#" xmlns:dc="http://purl.org/dc/elements/1.1/" xmlns:rdf="http://www.w3.org/1999/02/22-rdf-syntax-ns#">
 <metadata id="metadata34">
  <rdf:RDF>
   <cc:Work rdf:about="">
    <dc:format>image/svg+xml</dc:format>
    <dc:type rdf:resource="http://purl.org/dc/dcmitype/StillImage"/>
   </cc:Work>
  </rdf:RDF>
 </metadata>
 <defs id="defs7">
  <radialGradient id="gr0" cx="12" cy="13" r="16" gradientTransform="matrix(1 0 0 .47474 0 7.4748)" gradientUnits="userSpaceOnUse">
   <stop id="stop2" stop-opacity=".23529" offset="0"/>
   <stop id="stop4" stop-opacity=".54902" offset="1"/>
  </radialGradient>
 </defs>
 <path id="path9" d="m3.0117 5a1 1.0001 0 0 0-1.0117 1v9a1.0001 1.0001 0 0 0 1.4902 0.8711l5.5098-3.0996v2.2285a1.0001 1.0001 0 0 0 1.4902 0.8711l5.5098-3.0996v2.2285a1.0001 1.0001 0 0 0 1 1h2a1.0001 1.0001 0 0 0 1-1v-9a1.0001 1.0001 0 0 0-1-1h-2a1.0001 1.0001 0 0 0-1 1v2.2285l-5.5098-3.0996a1.0001 1.0001 0 0 0-1.4902 0.87109v2.2285l-5.5098-3.0996a1.0001 1.0001 0 0 0-0.47851-0.12891zm-0.01172 1 7 3.9375v-3.9375l7 3.9375v-3.9375h2v9h-2v-3.9375l-7 3.9375v-3.9375l-7 3.9375v-9z" fill="#fff" opacity=".05"/>
 <path id="base" d="m3 6v9l7-3.938v3.938l7-3.938v3.938h2v-9h-2v3.9375l-7-3.9375v3.9375l-7-3.9375z" fill="url(#gr0)"/>
 <path id="path15" d="m3 6v9l7-3.9375v3.9375l7-3.9375v3.9375h2v-9h-2v3.9375l-7-3.9375v3.9375l-7-3.9375zm14.5 0.5h1v8h-1v-3.4375a0.50005 0.50005 0 0 0-0.7461-0.4355l-6.2539 3.5175v-3.082a0.50005 0.50005 0 0 0-0.74609-0.4355l-6.2539 3.5175v-7.289l6.2539 3.5175a0.50005 0.50005 0 0 0 0.74609-0.4355v-3.082l6.2539 3.5175a0.50005 0.50005 0 0 0 0.7461-0.4355v-3.4375z" opacity=".3"/>
 <path id="path20" d="m10 11.062-7 3.9375v1l7-3.9375v-1zm7 0-7 3.9375v1l7-3.9375v-1zm0 3.9375v1h2v-1h-2z" fill="#fff" opacity=".2"/>
 <path id="path25" d="m3 6v1l7 3.9375v-1l-7-3.9375zm7 0v1l7 3.9375v-1l-7-3.9375zm7 0v1h2v-1h-2z" opacity=".3"/>
</svg>
