<?xml version="1.0" encoding="UTF-8"?>
<svg id="svg30" width="22" height="22" version="1.1" xmlns="http://www.w3.org/2000/svg" xmlns:cc="http://creativecommons.org/ns#" xmlns:dc="http://purl.org/dc/elements/1.1/" xmlns:rdf="http://www.w3.org/1999/02/22-rdf-syntax-ns#">
 <metadata id="metadata34">
  <rdf:RDF>
   <cc:Work rdf:about="">
    <dc:format>image/svg+xml</dc:format>
    <dc:type rdf:resource="http://purl.org/dc/dcmitype/StillImage"/>
   </cc:Work>
  </rdf:RDF>
 </metadata>
 <defs id="defs7">
  <radialGradient id="gr0" cx="12" cy="13" r="16" gradientTransform="matrix(1 0 0 .56565 0 6.5657)" gradientUnits="userSpaceOnUse">
   <stop id="stop2" stop-opacity=".23529" offset="0"/>
   <stop id="stop4" stop-opacity=".54902" offset="1"/>
  </radialGradient>
 </defs>
 <path id="path9" d="m5 4a1 1.0001 0 0 0-1 1v12a1.0001 1.0001 0 0 0 1 1h3.5996 1.2012 2.3984 1.2012 3.5996a1.0001 1.0001 0 0 0 1-1v-12a1.0001 1.0001 0 0 0-1-1h-3.5996-1.2012-2.3984-1.2012-3.5996zm0 1h3.5996 1.2012 2.3984 1.2012 3.5996v12h-3.5996-1.2012-2.3984-1.2012-3.5996v-12z" fill="#fff" opacity=".05"/>
 <path id="base" d="m5 5v12h12v-12h-12z" fill="url(#gr0)"/>
 <path id="path15" d="m5 5v12h3.5996 1.2012 2.3984 1.2012 3.5996v-12h-3.5996-1.2012-2.3984-1.2012-3.5996zm0.5 0.5h3.0996 1.2012 2.3984 1.2012 3.0996v11h-3.0996-1.2012-2.3984-1.2012-3.0996v-11z" opacity=".3"/>
 <path id="path20" d="m5 17v1h3.5996 1.2012 2.3984 1.2012 3.5996v-1h-3.5996-1.2012-2.3984-1.2012-3.5996z" fill="#fff" opacity=".2"/>
 <path id="path25" d="m5 5v1h3.5996 1.2012 2.3984 1.2012 3.5996v-1h-3.5996-1.2012-2.3984-1.2012-3.5996z" opacity=".3"/>
</svg>
