<?xml version="1.0" encoding="UTF-8"?>
<svg id="svg30" width="22" height="22" version="1.1" xmlns="http://www.w3.org/2000/svg" xmlns:cc="http://creativecommons.org/ns#" xmlns:dc="http://purl.org/dc/elements/1.1/" xmlns:rdf="http://www.w3.org/1999/02/22-rdf-syntax-ns#">
 <metadata id="metadata34">
  <rdf:RDF>
   <cc:Work rdf:about="">
    <dc:format>image/svg+xml</dc:format>
    <dc:type rdf:resource="http://purl.org/dc/dcmitype/StillImage"/>
   </cc:Work>
  </rdf:RDF>
 </metadata>
 <defs id="defs7">
  <radialGradient id="gr0" cx="12" cy="13" r="16" gradientTransform="matrix(1 0 0 .74747 0 4.7475)" gradientUnits="userSpaceOnUse">
   <stop id="stop2" stop-opacity=".23529" offset="0"/>
   <stop id="stop4" stop-opacity=".54902" offset="1"/>
  </radialGradient>
 </defs>
 <path id="path9" d="m3 2a1 1.0001 0 0 0-1 1v4a1.0001 1.0001 0 0 0 1 1 1.0001 1.0001 0 0 0-1 1v4a1.0001 1.0001 0 0 0 1 1 1.0001 1.0001 0 0 0-1 1v4a1.0001 1.0001 0 0 0 1 1h4a1.0001 1.0001 0 0 0 1-1v-1a1.0001 1.0001 0 0 0 1 1h10a1.0001 1.0001 0 0 0 1-1v-2a1.0001 1.0001 0 0 0-1-1h-10a1.0001 1.0001 0 0 0-1 1v-1a1.0001 1.0001 0 0 0-1-1 1.0001 1.0001 0 0 0 1-1v-1a1.0001 1.0001 0 0 0 1 1h10a1.0001 1.0001 0 0 0 1-1v-2a1.0001 1.0001 0 0 0-1-1h-10a1.0001 1.0001 0 0 0-1 1v-1a1.0001 1.0001 0 0 0-1-1 1.0001 1.0001 0 0 0 1-1v-1a1.0001 1.0001 0 0 0 1 1h10a1.0001 1.0001 0 0 0 1-1v-2a1.0001 1.0001 0 0 0-1-1h-10a1.0001 1.0001 0 0 0-1 1v-1a1.0001 1.0001 0 0 0-1-1h-4zm0 1h4v4h-4v-4zm6 1h10v2h-10v-2zm-6 5h4v4h-4v-4zm6 1h10v2h-10v-2zm-6 5h4v4h-4v-4zm6 1h10v2h-10v-2z" fill="#fff" opacity=".05"/>
 <path id="base" d="m3 3v4h4v-4h-4zm6 1v2h10v-2h-10zm-6 5v4h4v-4h-4zm6 1v2h10v-2h-10zm-6 5v4h4v-4h-4zm6 1v2h10v-2h-10z" fill="url(#gr0)"/>
 <path id="path15" d="m3 3v4h4v-4h-4zm0.5 0.5h3v3h-3v-3zm5.5 0.5v2h10v-2h-10zm0.5 0.5h9v1h-9v-1zm-6.5 4.5v4h4v-4h-4zm0.5 0.5h3v3h-3v-3zm5.5 0.5v2h10v-2h-10zm0.5 0.5h9v1h-9v-1zm-6.5 4.5v4h4v-4h-4zm0.5 0.5h3v3h-3v-3zm5.5 0.5v2h10v-2h-10zm0.5 0.5h9v1h-9v-1z" opacity=".3"/>
 <path id="path20" d="m9 6v1h10v-1h-10zm-6 1v1h4v-1h-4zm6 5v1h10v-1h-10zm-6 1v1h4v-1h-4zm6 5v1h10v-1h-10zm-6 1v1h4v-1h-4z" fill="#fff" opacity=".2"/>
 <path id="path25" d="m3 3v1h4v-1h-4zm6 1v1h10v-1h-10zm-6 5v1h4v-1h-4zm6 1v1h10v-1h-10zm-6 5v1h4v-1h-4zm6 1v1h10v-1h-10z" opacity=".3"/>
</svg>
