<?xml version="1.0" encoding="UTF-8"?>
<svg id="svg30" width="22" height="22" version="1.1" xmlns="http://www.w3.org/2000/svg" xmlns:cc="http://creativecommons.org/ns#" xmlns:dc="http://purl.org/dc/elements/1.1/" xmlns:rdf="http://www.w3.org/1999/02/22-rdf-syntax-ns#">
 <metadata id="metadata34">
  <rdf:RDF>
   <cc:Work rdf:about="">
    <dc:format>image/svg+xml</dc:format>
    <dc:type rdf:resource="http://purl.org/dc/dcmitype/StillImage"/>
   </cc:Work>
  </rdf:RDF>
 </metadata>
 <defs id="defs7">
  <radialGradient id="gr0" cx="12" cy="13" r="16" gradientTransform="matrix(1 0 0 .83838 0 3.8384)" gradientUnits="userSpaceOnUse">
   <stop id="stop2" stop-opacity=".23529" offset="0"/>
   <stop id="stop4" stop-opacity=".54902" offset="1"/>
  </radialGradient>
 </defs>
 <path id="path9" d="m5.5 1c-1.3689 0-2.5 1.1311-2.5 2.5s1.1311 2.5 2.5 2.5 2.5-1.1311 2.5-2.5-1.1311-2.5-2.5-2.5zm0 5c-1.3689 0-2.5 1.1311-2.5 2.5s1.1311 2.5 2.5 2.5 2.5-1.1311 2.5-2.5-1.1311-2.5-2.5-2.5zm0 5c-1.3689 0-2.5 1.1311-2.5 2.5s1.1311 2.5 2.5 2.5 2.5-1.1311 2.5-2.5-1.1311-2.5-2.5-2.5zm0 5c-1.3689 0-2.5 1.1311-2.5 2.5s1.1311 2.5 2.5 2.5 2.5-1.1311 2.5-2.5-1.1311-2.5-2.5-2.5zm7.4688-15a1 1.0001 0 0 0-1 1v3.9375h-1.9688a1.0001 1.0001 0 0 0-0.79883 1.6016l4.5625 6.0625a1.0001 1.0001 0 0 0 1.6054-0.0118l4.4375-6.0625a1.0001 1.0001 0 0 0-0.8066-1.5898h-2v-3.9375a1.0001 1.0001 0 0 0-1-1h-3.0312zm-7.4688 1c0.82843 0 1.5 0.67157 1.5 1.5s-0.67157 1.5-1.5 1.5-1.5-0.67157-1.5-1.5 0.67157-1.5 1.5-1.5zm7.4688 0h3.0312v4.9375h3l-4.4375 6.0625-4.5625-6.0625h2.9688v-4.9375zm-7.4688 5c0.82843 0 1.5 0.67157 1.5 1.5s-0.67157 1.5-1.5 1.5-1.5-0.67157-1.5-1.5 0.67157-1.5 1.5-1.5zm0 5c0.82843 0 1.5 0.6716 1.5 1.5s-0.67157 1.5-1.5 1.5-1.5-0.6716-1.5-1.5 0.67157-1.5 1.5-1.5zm0 5c0.82843 0 1.5 0.6716 1.5 1.5s-0.67157 1.5-1.5 1.5-1.5-0.6716-1.5-1.5 0.67157-1.5 1.5-1.5z" fill="#fff" opacity=".05"/>
 <path id="base" d="m5.5 2c-0.82843 0-1.5 0.67157-1.5 1.5s0.67157 1.5 1.5 1.5 1.5-0.67157 1.5-1.5-0.67157-1.5-1.5-1.5zm7.4688 0v4.9375h-2.9688l4.5625 6.0625 4.4375-6.0625h-3v-4.9375h-3.0312zm-7.4688 5c-0.82843 0-1.5 0.67157-1.5 1.5s0.67157 1.5 1.5 1.5 1.5-0.67157 1.5-1.5-0.67157-1.5-1.5-1.5zm0 5c-0.82843 0-1.5 0.67157-1.5 1.5s0.67157 1.5 1.5 1.5 1.5-0.67157 1.5-1.5-0.67157-1.5-1.5-1.5zm0 5c-0.82843 0-1.5 0.67157-1.5 1.5s0.67157 1.5 1.5 1.5 1.5-0.67157 1.5-1.5-0.67157-1.5-1.5-1.5z" fill="url(#gr0)"/>
 <path id="path15" d="m5.5 2c-0.82843 0-1.5 0.67157-1.5 1.5s0.67157 1.5 1.5 1.5 1.5-0.67157 1.5-1.5-0.67157-1.5-1.5-1.5zm7.4688 0v4.9375h-2.9688l4.5625 6.0625 4.4375-6.0625h-3v-4.9375h-3.0312zm-7.4688 0.5c0.55821 0 1 0.44179 1 1s-0.44179 1-1 1-1-0.44179-1-1 0.44179-1 1-1zm7.9688 0h2.0312v4.4375a0.50005 0.50005 0 0 0 0.5 0.5h2.0137l-3.4571 4.7227-3.5527-4.7227h1.9649a0.50005 0.50005 0 0 0 0.5-0.5v-4.4375zm-7.9688 4.5c-0.82843 0-1.5 0.67157-1.5 1.5s0.67157 1.5 1.5 1.5 1.5-0.67157 1.5-1.5-0.67157-1.5-1.5-1.5zm0 0.5c0.55821 0 1 0.44179 1 1s-0.44179 1-1 1-1-0.44179-1-1 0.44179-1 1-1zm0 4.5c-0.82843 0-1.5 0.6716-1.5 1.5s0.67157 1.5 1.5 1.5 1.5-0.6716 1.5-1.5-0.67157-1.5-1.5-1.5zm0 0.5c0.55821 0 1 0.4418 1 1s-0.44179 1-1 1-1-0.4418-1-1 0.44179-1 1-1zm0 4.5c-0.82843 0-1.5 0.6716-1.5 1.5s0.67157 1.5 1.5 1.5 1.5-0.6716 1.5-1.5-0.67157-1.5-1.5-1.5zm0 0.5c0.55821 0 1 0.4418 1 1s-0.44179 1-1 1-1-0.4418-1-1 0.44179-1 1-1z" opacity=".3"/>
 <path id="path20" d="m4.0918 4c-0.05582 0.15707-0.0918 0.32379-0.0918 0.5 0 0.82843 0.67157 1.5 1.5 1.5s1.5-0.67157 1.5-1.5c0-0.17621-0.03598-0.34293-0.0918-0.5-0.20659 0.58135-0.75598 1-1.4082 1s-1.2016-0.41865-1.4082-1zm5.9082 3.9375 4.5625 6.0625 4.4375-6.0625h-0.7324l-3.7051 5.0625-3.8105-5.0625h-0.752zm-5.9082 1.0625c-0.05582 0.15707-0.0918 0.32379-0.0918 0.5 0 0.8284 0.67157 1.5 1.5 1.5s1.5-0.6716 1.5-1.5c0-0.17621-0.03598-0.34293-0.0918-0.5-0.20659 0.58135-0.75598 1-1.4082 1s-1.2016-0.41865-1.4082-1zm0 5c-0.05582 0.1571-0.0918 0.3238-0.0918 0.5 0 0.8284 0.67157 1.5 1.5 1.5s1.5-0.6716 1.5-1.5c0-0.1762-0.03598-0.3429-0.0918-0.5-0.20659 0.5813-0.75598 1-1.4082 1s-1.2016-0.4187-1.4082-1zm0 5c-0.05582 0.1571-0.0918 0.3238-0.0918 0.5 0 0.8284 0.67157 1.5 1.5 1.5s1.5-0.6716 1.5-1.5c0-0.1762-0.03598-0.3429-0.0918-0.5-0.20659 0.5813-0.75598 1-1.4082 1s-1.2016-0.4187-1.4082-1z" fill="#fff" opacity=".2"/>
 <path id="path25" d="m5.5 2c-0.82843 0-1.5 0.67157-1.5 1.5 0 0.17621 0.03598 0.34293 0.0918 0.5 0.20659-0.58135 0.75598-1 1.4082-1s1.2016 0.41865 1.4082 1c0.05582-0.15707 0.0918-0.32379 0.0918-0.5 0-0.82843-0.67157-1.5-1.5-1.5zm7.4688 0v1h3.0312v-1h-3.0312zm-2.9688 4.9375 0.752 1h2.2168v-1h-2.9688zm6 0v1h2.2676l0.7324-1h-3zm-10.5 0.0625c-0.82843 0-1.5 0.67157-1.5 1.5 0 0.17621 0.03598 0.34293 0.0918 0.5 0.20659-0.58135 0.75598-1 1.4082-1s1.2016 0.41865 1.4082 1c0.05582-0.15707 0.0918-0.32379 0.0918-0.5 0-0.82843-0.67157-1.5-1.5-1.5zm0 5c-0.82843 0-1.5 0.6716-1.5 1.5 0 0.1762 0.03598 0.3429 0.0918 0.5 0.20659-0.5813 0.75598-1 1.4082-1s1.2016 0.4187 1.4082 1c0.05582-0.1571 0.0918-0.3238 0.0918-0.5 0-0.8284-0.67157-1.5-1.5-1.5zm0 5c-0.82843 0-1.5 0.6716-1.5 1.5 0 0.1762 0.03598 0.3429 0.0918 0.5 0.20659-0.5813 0.75598-1 1.4082-1s1.2016 0.4187 1.4082 1c0.05582-0.1571 0.0918-0.3238 0.0918-0.5 0-0.8284-0.67157-1.5-1.5-1.5z" opacity=".3"/>
</svg>
