<?xml version="1.0" encoding="UTF-8"?>
<!-- Created with Inkscape (http://www.inkscape.org/) -->
<svg id="svg2" width="24" height="24" version="1.1" xmlns="http://www.w3.org/2000/svg" xmlns:cc="http://creativecommons.org/ns#" xmlns:dc="http://purl.org/dc/elements/1.1/" xmlns:rdf="http://www.w3.org/1999/02/22-rdf-syntax-ns#" xmlns:xlink="http://www.w3.org/1999/xlink">
 <defs id="defs4">
  <linearGradient id="linearGradient3335" x1="11.375" x2="11.375" y1="22" y2="-9.8173" gradientUnits="userSpaceOnUse">
   <stop id="stop3330" offset="0"/>
   <stop id="stop3333" stop-opacity="0" offset="1"/>
  </linearGradient>
  <linearGradient id="linearGradient3181" x1="-3.0608" x2="-3.0608" y1="27.258" y2="7.2537" gradientTransform="translate(12.119 -27.258)" gradientUnits="userSpaceOnUse">
   <stop id="stop7670" stop-color="#94b6db" offset="0"/>
   <stop id="stop7672" stop-color="#3465a4" offset="1"/>
  </linearGradient>
  <filter id="filter3194" x="-.18" y="-.18" width="1.36" height="1.36" color-interpolation-filters="sRGB">
   <feGaussianBlur id="feGaussianBlur3196" stdDeviation="1.2"/>
  </filter>
  <clipPath id="clipPath2849">
   <rect id="rect2851" x="1" y="1" width="20" height="20" rx="2" ry="2" fill="#fff" fill-rule="evenodd"/>
  </clipPath>
  <linearGradient id="linearGradient3899" x1="25.071" x2="35.095" y1="4.7143" y2="44.5" gradientTransform="matrix(.40072 0 0 .40438 2.1682 .20716)" gradientUnits="userSpaceOnUse">
   <stop id="stop3721" stop-color="#fdfdfd" offset="0"/>
   <stop id="stop3723" stop-color="#d4dce6" offset="1"/>
  </linearGradient>
  <linearGradient id="linearGradient3706" x1="11.455" x2="24.265" y1="17.427" y2="8.0573" gradientTransform="matrix(.75876 .36649 -.36649 .75876 12.163 .78584)" gradientUnits="userSpaceOnUse" xlink:href="#linearGradient3696"/>
  <linearGradient id="linearGradient3696">
   <stop id="stop3698" offset="0"/>
   <stop id="stop3700" stop-opacity="0" offset="1"/>
  </linearGradient>
  <radialGradient id="radialGradient10416" cx="59.852" cy="41.704" r="18.183" gradientTransform="matrix(1 0 0 .125 0 36.491)" gradientUnits="userSpaceOnUse">
   <stop id="stop10412" stop-color="#fff" offset="0"/>
   <stop id="stop10414" stop-color="#fff" stop-opacity="0" offset="1"/>
  </radialGradient>
  <linearGradient id="linearGradient10392" x1="58.652" x2="47.451" y1="68.172" y2="57.993" gradientTransform="matrix(.19401 0 0 .19406 4.8705 2.8787)" gradientUnits="userSpaceOnUse">
   <stop id="stop10388" stop-color="#fff" offset="0"/>
   <stop id="stop10390" stop-color="#fff" stop-opacity="0" offset="1"/>
  </linearGradient>
  <linearGradient id="linearGradient8183" x1="24.249" x2="13.406" y1="77.502" y2="67.674" gradientTransform="matrix(.14075 -.037709 .037796 .14103 9.964 6.4238)" gradientUnits="userSpaceOnUse">
   <stop id="stop6533" stop-color="#c38125" offset="0"/>
   <stop id="stop10377" stop-color="#c68d31" offset=".62963"/>
   <stop id="stop6535" stop-color="#fffce6" offset="1"/>
  </linearGradient>
  <linearGradient id="linearGradient10400" x1="60.899" x2="68.223" y1="35.606" y2="39.534" gradientTransform="matrix(.19401 0 0 .19406 4.8705 2.8787)" gradientUnits="userSpaceOnUse">
   <stop id="stop10396" stop-color="#1a1a1a" offset="0"/>
   <stop id="stop10404" stop-color="#636363" offset=".35185"/>
   <stop id="stop10402" stop-color="#c7c7c7" offset=".5"/>
   <stop id="stop10406" stop-color="#636363" offset=".65"/>
   <stop id="stop10398" offset="1"/>
  </linearGradient>
  <linearGradient id="linearGradient2953" x1="11.455" x2="24.265" y1="17.427" y2="8.0573" gradientTransform="matrix(.84263 0 0 .84263 4.3525 2.9998)" gradientUnits="userSpaceOnUse" xlink:href="#linearGradient3696"/>
  <linearGradient id="linearGradient3845" x1="11" x2="21" y1="19.5" y2="19.5" gradientTransform="translate(1,-1)" gradientUnits="userSpaceOnUse" spreadMethod="reflect">
   <stop id="stop3833" stop-color="#fff" offset="0"/>
   <stop id="stop3821" stop-color="#fff" stop-opacity=".49804" offset=".75"/>
   <stop id="stop3835" stop-color="#fff" stop-opacity="0" offset="1"/>
  </linearGradient>
  <linearGradient id="linearGradient3078" x1="10" x2="10" y1="1" y2="16" gradientTransform="translate(1,-1)" gradientUnits="userSpaceOnUse">
   <stop id="stop3825" stop-color="#fff" offset="0"/>
   <stop id="stop3829" stop-color="#fff" stop-opacity="0" offset="1"/>
  </linearGradient>
 </defs>
 <metadata id="metadata7">
  <rdf:RDF>
   <cc:Work rdf:about="">
    <dc:format>image/svg+xml</dc:format>
    <dc:type rdf:resource="http://purl.org/dc/dcmitype/StillImage"/>
    <dc:title/>
   </cc:Work>
  </rdf:RDF>
 </metadata>
 <g id="layer1" transform="translate(0,2)">
  <g id="g3337" transform="translate(1,-1)">
   <rect id="rect3371" x=".5" y=".5" width="21" height="21.5" rx="2.5" ry="2.5" fill="url(#linearGradient3335)" opacity=".3"/>
   <rect id="rect2553" x="1" y="2" width="20" height="20" rx="2.381" ry="2.3256" opacity=".5"/>
  </g>
  <rect id="rect3173" transform="scale(1,-1)" x="2" y="-20" width="20" height="20" rx="2" ry="2" fill="url(#linearGradient3181)" fill-rule="evenodd"/>
  <path id="rect3050" d="m4 0c-1.108 0-2 0.892-2 2v16c0 1.108 0.892 2 2 2h16c1.108 0 2-0.892 2-2v-16c0-1.108-0.892-2-2-2h-16zm0 1.0312h16c0.5497 0 0.96875 0.41905 0.96875 0.96875v16c0 0.5497-0.41905 0.96875-0.96875 0.96875h-16c-0.5497 0-0.96875-0.41905-0.96875-0.96875v-16c0-0.5497 0.41905-0.96875 0.96875-0.96875z" fill="url(#linearGradient3078)" fill-rule="evenodd" opacity=".25"/>
  <path id="path3235" d="m4 20c-1.108 0-2-0.892-2-2v-1c0 1.108 0.892 2 2 2h16c1.108 0 2-0.892 2-2v1c0 1.108-0.892 2-2 2h-16z" fill="url(#linearGradient3845)" fill-rule="evenodd" opacity=".15"/>
 </g>
 <g id="layer2" transform="translate(0,2)">
  <rect id="rect2410" transform="translate(1,-1)" x="3" y="3" width="16" height="16" rx="2" ry="2" clip-path="url(#clipPath2849)" fill="#fff" filter="url(#filter3194)" opacity=".15"/>
 </g>
 <g id="layer3" transform="translate(0,2)">
  <path id="path3688" d="m12.125 1.4375c-0.70166 0.015794-1.2912 0.36201-1.7812 0.75-0.48832 0.38661-0.95818 0.86845-1.4375 1.4688-0.95453 1.1955-1.9048 2.7681-2.7812 4.4375-0.87706 1.6706-1.6687 3.4533-2.25 5.0938-0.57491 1.6224-0.96567 3.068-0.96875 4.2812-2.39e-5 0.0094-2.32e-5 0.02188 0 0.03125 1.53e-5 0.02095 4.58e-5 0.06396 0 0.0625 0.054183 0.9478 0.71443 1.6033 1.4062 1.8438 0.59043 0.20518 1.1067 0.18083 1.4062 0.1875 0.00654 1.46e-4 0.024952-1.77e-4 0.03125 0 0.013348 9.44e-4 0.032072 3.9e-5 0.03125 0-0.00164-7.7e-5 0.032896 0 0.03125 0-0.00165 0 0.064144-7.7e-5 0.0625 0-0.00164 7.7e-5 0.064139-1.55e-4 0.0625 0a0.60366 0.60366 0 0 0 0.0625 0c2.4844-0.51509 5.1866-1.8177 7.3438-3 1.076-0.58975 2.0216-1.1416 2.7188-1.5938 0.31577-0.20479 0.55877-0.37282 0.78125-0.53125 1.0557 1.9202 2.1875 4.0312 2.1875 4.0312-6.77e-4 -0.0013 0.03198 0.03248 0.03125 0.03125-7.27e-4 -0.0012 7.77e-4 0.0637 0 0.0625s0.03207 0.03242 0.03125 0.03125c-8.25e-4 -0.0012 0.03212 0.03238 0.03125 0.03125-8.72e-4 -0.0011 0.03217 0.03234 0.03125 0.03125-9.17e-4 -0.0011 0.03221 0.03231 0.03125 0.03125-9.61e-4 -0.0011 0.03225 0.03226 0.03125 0.03125-1e-3 -1e-3 0.03229 0.03222 0.03125 0.03125-1e-3 -9.74e-4 0.03233 0.03218 0.03125 0.03125-0.0011-9.3e-4 0.03237 0.03214 0.03125 0.03125-0.0011-8.85e-4 0.03241 0.03209 0.03125 0.03125-0.0012-8.39e-4 0.06369 0.03204 0.0625 0.03125-0.0012-7.91e-4 0.03247 0.03199 0.03125 0.03125-0.0012-7.42e-4 0.0325 6.91e-4 0.03125 0-0.0012-6.91e-4 0.03253 0.03189 0.03125 0.03125-0.0013-6.4e-4 0.0638 0.03184 0.0625 0.03125-0.0013-5.87e-4 0.03257 5.34e-4 0.03125 0-0.0013-5.34e-4 0.0326 0.03173 0.03125 0.03125-0.0013-4.79e-4 0.06386 4.24e-4 0.0625 0-0.0014-4.24e-4 0.03263 0.03162 0.03125 0.03125-0.0014-3.68e-4 0.03264 3.11e-4 0.03125 0-0.0014-3.11e-4 0.0639 2.54e-4 0.0625 0s0.03266 1.97e-4 0.03125 0c-0.0014-1.97e-4 0.06392 0.03139 0.0625 0.03125-0.0014-1.39e-4 0.03268 8.1e-5 0.03125 0-0.0014-8.1e-5 0.03268 2.2e-5 0.03125 0-0.0014-2.2e-5 0.06393-3.6e-5 0.0625 0-0.0014 3.6e-5 0.03268-9.4e-5 0.03125 0-0.0014 9.4e-5 0.06392-1.52e-4 0.0625 0-0.0014 1.52e-4 0.03266-0.03146 0.03125-0.03125-0.0014 2.1e-4 0.0639-2.67e-4 0.0625 0s0.03264-3.24e-4 0.03125 0c-0.0014 3.24e-4 0.03263-0.03163 0.03125-0.03125-0.0014 3.81e-4 0.06386-4.37e-4 0.0625 0-0.0014 4.37e-4 0.03259-4.92e-4 0.03125 0-0.0013 4.92e-4 0.06382-0.0318 0.0625-0.03125-0.0013 5.46e-4 0.03255-0.03185 0.03125-0.03125-0.0013 5.99e-4 0.03252-6.52e-4 0.03125 0-0.0013 6.52e-4 0.03249-0.03195 0.03125-0.03125-0.0012 7.03e-4 0.06371-0.032 0.0625-0.03125-0.0012 7.53e-4 0.03243-8.02e-4 0.03125 0-0.0012 8.02e-4 0.0324-0.0321 0.03125-0.03125-0.0011 8.5e-4 0.03236-0.03215 0.03125-0.03125-0.0011 8.96e-4 0.03232-0.03219 0.03125-0.03125-0.0011 9.4e-4 0.03229-0.03223 0.03125-0.03125-1e-3 9.83e-4 0.03224-0.03227 0.03125-0.03125-9.94e-4 1e-3 0.0322-0.03232 0.03125-0.03125-9.51e-4 0.0011 0.03216-0.03235 0.03125-0.03125-9.07e-4 0.0011 0.03211-0.03239 0.03125-0.03125-8.61e-4 0.0011 0.03206-0.03242 0.03125-0.03125-8.14e-4 0.0012 0.03202-0.0637 0.03125-0.0625-7.66e-4 0.0012 0.03197-0.03249 0.03125-0.03125-7.16e-4 0.0012 6.65e-4 -0.03251 0-0.03125-6.65e-4 0.0013 0.03186-0.03254 0.03125-0.03125-6.13e-4 0.0013 0.03181-0.06381 0.03125-0.0625-5.59e-4 0.0013 5.05e-4 -0.03259 0-0.03125-5.05e-4 0.0013 0.0317-0.03261 0.03125-0.03125-4.5e-4 0.0014 3.95e-4 -0.06387 0-0.0625-3.95e-4 0.0014 3.38e-4 -0.03264 0-0.03125-3.38e-4 0.0014 0.03153-0.0639 0.03125-0.0625-2.82e-4 0.0014 2.24e-4 -0.03266 0-0.03125-2.24e-4 0.0014 1.67e-4 -0.03267 0-0.03125-1.67e-4 0.0014 1.09e-4 -0.06392 0-0.0625-1.09e-4 0.0014 5e-5 -0.03268 0-0.03125a0.60366 0.60366 0 0 0 0-0.03125c-0.06884-3.153-1.4403-7.0991-3.125-10.375-0.84295-1.6391-1.7523-3.0851-2.6875-4.1875-0.9179-1.082-1.8679-2.029-3.1562-2zm0.0625 5.625c0.23933 0.25152 0.57719 0.72362 0.96875 1.2812 0.7532 1.0726 1.6483 2.5581 2.5 4.0312-0.47976 0.151-2.0116 0.63595-4.0625 1.1875-1.1721 0.31522-2.3501 0.60934-3.2188 0.75-0.12587 0.02038-0.16802 0.01534-0.28125 0.03125 0.059097-0.17204 0.073517-0.28039 0.15625-0.5 0.33223-0.8819 0.85266-2.0248 1.4375-3.125 0.58614-1.1027 1.2218-2.1647 1.7812-2.9062 0.25942-0.34384 0.54018-0.58774 0.71875-0.75z" fill-rule="evenodd" opacity=".05"/>
  <path id="path3684" d="m12.125 2.0312c-0.49906 0.011234-0.96177 0.2731-1.4062 0.625s-0.88649 0.80232-1.3438 1.375c-0.91453 1.1454-1.8534 2.6955-2.7188 4.3438-0.8653 1.6482-1.6497 3.3943-2.2188 5s-0.94017 3.046-0.9375 4.125a0.49868 0.49868 0 0 0 0 0.03125c0.038426 0.67217 0.52833 1.1486 1 1.3125s0.94979 0.14696 1.2812 0.15625a0.49868 0.49868 0 0 0 0.09375 0c2.3695-0.49127 5.0551-1.7687 7.1875-2.9375 1.0662-0.58439 1.9777-1.1224 2.6562-1.5625 0.33929-0.22004 0.63947-0.41423 0.84375-0.5625 0.10214-0.07413 0.1811-0.13088 0.25-0.1875 0.0689-0.05662 0.08556-0.06198 0.1875-0.21875 1.2321 2.2278 2.5625 4.6875 2.5625 4.6875a0.49868 0.49868 0 0 0 0.9375-0.21875c-0.065142-2.9835-1.4076-6.8759-3.0625-10.094-0.82766-1.6093-1.7346-3.0441-2.625-4.0938s-1.7201-1.803-2.6875-1.7812zm0.0625 4.25c-0.12541-0.0029 0.14705 0.069755 0.4375 0.375 0.29045 0.30525 0.6365 0.78158 1.0312 1.3438 0.7895 1.1243 1.7186 2.638 2.5938 4.1562 0.16997 0.29488 0.14738 0.30163 0.3125 0.59375a0.49868 0.49868 0 0 0-0.125 0.03125s-2.3217 0.73875-4.6875 1.375c-1.1829 0.31812-2.3733 0.60298-3.2812 0.75-0.45398 0.07351-0.84788 0.13064-1.0938 0.125-0.071302-0.001636-0.082538-0.024962-0.125-0.03125 0.012692-0.01523 0.016084-0.03724 0.0625-0.25 0.063065-0.28908 0.20248-0.66706 0.375-1.125 0.34503-0.91588 0.8729-2.0666 1.4688-3.1875 0.59585-1.1209 1.2509-2.2142 1.8438-3 0.29643-0.39289 0.58591-0.70833 0.8125-0.90625s0.40474-0.24932 0.375-0.25z" fill-rule="evenodd" opacity=".15"/>
  <path id="path3678" d="m4 17.489c-0.0095-3.832 5.5439-14.904 8.1288-14.962 1.2927-0.0291 3.2295 2.4213 4.8586 5.589 1.6291 3.1677 2.9506 7.0528 3.0126 9.8931 0 0-6.254-12.196-7.8139-12.233-1.5886-0.03611-5.9003 8.593-5.3874 9.5542 0.50089 0.93875 9.7952-2.0875 9.7952-2.0875-0.20036 0.3081-6.2683 4.3134-10.819 5.257-0.68694-0.01926-1.7174-0.0096-1.7746-1.011z" fill-rule="evenodd" opacity=".3"/>
  <path id="path5556" d="m4 16.989c-0.0095-3.832 5.5439-14.904 8.1288-14.962 1.2927-0.0291 3.2295 2.4213 4.8586 5.589 1.6291 3.1677 2.9506 7.0528 3.0126 9.8931 0 0-6.254-12.196-7.8139-12.233-1.5886-0.03611-5.9003 8.593-5.3874 9.5542 0.50089 0.93875 9.7952-2.0875 9.7952-2.0875-0.20036 0.3081-6.2683 4.3134-10.819 5.257-0.68694-0.01926-1.7174-0.0096-1.7746-1.011z" fill="url(#linearGradient3899)" fill-rule="evenodd"/>
  <path id="path2893" d="m22.048 6.502c-1.2988 1.5115-2.7329 2.7679-3.8708 4.2658-0.56677 0.74605-0.98274 1.4941-1.2639 2.1329-0.303 0.057-0.51676 0.1884-0.63197 0.36865-0.13344 0.20876-0.18603 0.47704-0.10533 0.7373 0.01091 0.0352 0.06469 0.07112 0.079 0.10533-0.45258 0.53049-1.1046 1.2812-1.5273 1.8433-0.63428 0.84341-1.6063 2.9229-1.6063 2.9229l0.158 0.10532c0.01021-0.0092 0.01591 0.0092 0.02633 0 1.1059-0.97883 3.3705-2.0802 3.3705-2.0802l0.079-0.05266-0.02633-0.079s0.0023-0.02686 0-0.13166c-0.0023-0.1048-0.01013-0.26886 0.05266-0.50031 0.10611-0.39107 0.3985-0.84764 0.65831-1.185 0.08429 0.0093 0.17648 0.03228 0.26332 0.02633 0.38176-0.0261 0.65653-0.21255 0.78997-0.42132 0.10008-0.15657 0.1263-0.33709 0.10533-0.52664 0.53088-0.4424 1.1275-1.012 1.6589-1.7116 0.66804-0.87936 1.2052-1.8576 1.7906-2.8439v-2.9755z" fill="url(#linearGradient2953)" opacity=".4"/>
  <path id="path10375" d="m18.731 11.005c-0.96491 1.9665-2.3265 3.365-2.8222 3.0986-0.52876-0.28416-0.27313-2.0965 0.71694-4.1143 0.98984-2.0173 2.4716-3.794 3.5459-6.0181 0.26178-0.54197 0.55344-1.0591 1.0985-0.79405 0.53585 0.26057 0.4394 0.79282 0.11031 1.3951-1.2238 2.2396-1.6845 4.4662-2.6494 6.4328z" fill="url(#linearGradient10400)" stroke="#000" stroke-width=".25"/>
  <path id="path4343" transform="matrix(.12281 -.032903 .044712 .082986 6.0951 8.5196)" d="m60.458 78.052c0 4.2958-2.4535 7.7782-5.4801 7.7782-3.0266 0-5.4801-3.4824-5.4801-7.7782s2.4535-7.7782 5.4801-7.7782c3.0266 0 5.4801 3.4824 5.4801 7.7782z" fill="none" stroke="#2e3436" stroke-linecap="round" stroke-width="9.2596"/>
  <path id="path4341" d="m13.202 18.905s0.57365-2.238 1.0201-3.1592c0.44648-0.92127 1.5021-2.7539 1.5021-2.7539s0.30457-0.4557 0.79622-0.21332c0.49165 0.24238 0.34973 0.70795 0.34973 0.70795s-0.74143 1.117-0.80312 1.9788c-0.03555 0.49679 0.08087 0.69982 0.08087 0.69982s-2.0419 1.5357-2.9459 2.7399z" fill="url(#linearGradient8183)" fill-rule="evenodd" stroke="#c17d11" stroke-width=".25"/>
  <path id="path6537" transform="matrix(.096649 .041409 -.04436 .08793 20.584 10.566)" d="m-27.931 71.865c0 1.6597-0.55402 3.0052-1.2374 3.0052-0.68342 0-1.2374-1.3455-1.2374-3.0052s0.55402-3.0052 1.2374-3.0052c0.68342 0 1.2374 1.3455 1.2374 3.0052z" fill-opacity=".6" stroke="#c17d11" stroke-linecap="round" stroke-width="3.2919"/>
  <path id="path8007" d="m13.214 18.848c0.40478-1.0437 0.69368-1.9227 1.1998-2.8867" fill="#c17d11" fill-rule="evenodd" stroke="#c17d11" stroke-width=".34298"/>
  <path id="path10381" d="m16.45 13.097c-0.04246 0.03449-0.07072 0.07036-0.07276 0.07278-1.2e-5 2e-5 -0.0061-2.5e-5 -0.0061 0-0.01464 0.02541-1.0496 1.8302-1.4793 2.7169-0.14642 0.30212-0.32059 0.78976-0.47896 1.2917 0.6551-0.58982 1.2171-1.0125 1.3702-1.128-0.02923-0.14377-0.04948-0.34474-0.03032-0.61251 0.03658-0.51118 0.25338-1.0267 0.45471-1.4312 0.18224-0.36619 0.32573-0.58162 0.35771-0.6307 0.0022-0.0086 0.01052-0.04098 0-0.1031-0.0098-0.05759-0.02054-0.11383-0.11519-0.17587z" fill="url(#linearGradient10392)" fill-rule="evenodd"/>
  <path id="path10408" transform="matrix(.089846 -.172 .17195 .08987 5.0606 16.342)" d="m78.034 41.704c0 1.2553-8.1407 2.2728-18.183 2.2728-10.042 0-18.183-1.0176-18.183-2.2728s8.1407-2.2728 18.183-2.2728c10.042 0 18.183 1.0176 18.183 2.2728z" fill="url(#radialGradient10416)"/>
  <path id="path3704" d="m22.048 13.427c-0.27743 0.12229-0.54689 0.23141-0.8163 0.36865-0.83484 0.42528-1.5228 0.91633-2.0539 1.3693-0.29763-0.08046-0.55517-0.05953-0.7373 0.05267-0.21095 0.12995-0.38078 0.36252-0.42132 0.63197-0.0055 0.03644 0.02833 0.0683 0.02633 0.10533-0.63826 0.28084-1.5342 0.67837-2.1592 1.0006-0.93797 0.48359-2.7386 1.9486-2.7386 1.9486l0.10532 0.158c0.0132-0.0039 0.01294 0.0038 0.02633 0 1.4215-0.40041 3.9235-0.42132 3.9235-0.42132l0.10533 0.02633v-0.10533s0.0091-0.0363 0.05267-0.13166c0.04353-0.09536 0.13244-0.21388 0.28965-0.39498 0.26564-0.30598 0.7253-0.59923 1.106-0.78997 0.07185 0.04504 0.15621 0.09925 0.23699 0.13166 0.35511 0.14254 0.65801 0.10361 0.86896-0.02633 0.15822-0.09746 0.27876-0.26784 0.34232-0.44765 0.56392-0.14085 1.1879-0.35887 1.8433-0.65831v-2.8176z" fill="url(#linearGradient3706)" opacity=".2"/>
 </g>
</svg>
