<?xml version="1.0" encoding="UTF-8"?>
<svg id="svg2" width="24" height="24" version="1.1" xmlns="http://www.w3.org/2000/svg" xmlns:cc="http://creativecommons.org/ns#" xmlns:dc="http://purl.org/dc/elements/1.1/" xmlns:rdf="http://www.w3.org/1999/02/22-rdf-syntax-ns#">
 <metadata id="metadata49">
  <rdf:RDF>
   <cc:Work rdf:about="">
    <dc:format>image/svg+xml</dc:format>
    <dc:type rdf:resource="http://purl.org/dc/dcmitype/StillImage"/>
   </cc:Work>
  </rdf:RDF>
 </metadata>
 <defs id="defs4">
  <linearGradient id="linearGradient3335" x1="11.375" x2="11.375" y1="22" y2="-9.8173" gradientUnits="userSpaceOnUse">
   <stop id="stop3330" offset="0"/>
   <stop id="stop3333" stop-opacity="0" offset="1"/>
  </linearGradient>
  <linearGradient id="linearGradient3181" x1="-3.0608" x2="-3.0608" y1="27.258" y2="7.2537" gradientTransform="translate(12.119 -7.2582)" gradientUnits="userSpaceOnUse">
   <stop id="stop3189" stop-color="#440a3e" offset="0"/>
   <stop id="stop3191" stop-color="#f50ddc" offset="1"/>
  </linearGradient>
  <filter id="filter3194" x="-.18" y="-.18" width="1.36" height="1.36" color-interpolation-filters="sRGB">
   <feGaussianBlur id="feGaussianBlur3196" stdDeviation="1.2"/>
  </filter>
  <clipPath id="clipPath2849">
   <rect id="rect2851" x="1" y="1" width="20" height="20" rx="2" ry="2" fill="#fff" fill-rule="evenodd"/>
  </clipPath>
  <linearGradient id="linearGradient3845" x1="11" x2="21" y1="19.5" y2="19.5" gradientTransform="translate(1,-1)" gradientUnits="userSpaceOnUse" spreadMethod="reflect">
   <stop id="stop3833" stop-color="#fff" offset="0"/>
   <stop id="stop3821" stop-color="#fff" stop-opacity=".49804" offset=".75"/>
   <stop id="stop3835" stop-color="#fff" stop-opacity="0" offset="1"/>
  </linearGradient>
  <linearGradient id="linearGradient3961" x1="10" x2="10" y1="1" y2="16" gradientTransform="translate(1,-1)" gradientUnits="userSpaceOnUse">
   <stop id="stop3825" stop-color="#fff" offset="0"/>
   <stop id="stop3829" stop-color="#fff" stop-opacity="0" offset="1"/>
  </linearGradient>
 </defs>
 <g id="layer1" transform="translate(0,2)">
  <g id="g3337" transform="translate(1,-1)">
   <rect id="rect3371" x=".5" y=".5" width="21" height="21.5" rx="2.5" ry="2.5" fill="url(#linearGradient3335)" opacity=".3"/>
   <rect id="rect2553" x="1" y="2" width="20" height="20" rx="2.381" ry="2.3256" opacity=".5"/>
  </g>
  <rect id="rect3173" x="2" width="20" height="20" rx="2" ry="2" fill="url(#linearGradient3181)" fill-rule="evenodd"/>
  <path id="rect3050" d="m4 0c-1.108 0-2 0.892-2 2v16c0 1.108 0.892 2 2 2h16c1.108 0 2-0.892 2-2v-16c0-1.108-0.892-2-2-2h-16zm0 1.0312h16c0.5497 0 0.96875 0.41905 0.96875 0.96875v16c0 0.5497-0.41905 0.96875-0.96875 0.96875h-16c-0.5497 0-0.96875-0.41905-0.96875-0.96875v-16c0-0.5497 0.41905-0.96875 0.96875-0.96875z" fill="url(#linearGradient3961)" fill-rule="evenodd" opacity=".35"/>
  <path id="path3235" d="m4 20c-1.108 0-2-0.892-2-2v-1c0 1.108 0.892 2 2 2h16c1.108 0 2-0.892 2-2v1c0 1.108-0.892 2-2 2h-16z" fill="url(#linearGradient3845)" fill-rule="evenodd" opacity=".2"/>
 </g>
 <g id="layer2" transform="translate(0,2)">
  <rect id="rect2410" transform="translate(1,-1)" x="3" y="3" width="16" height="16" rx="2" ry="2" clip-path="url(#clipPath2849)" fill="#fff" filter="url(#filter3194)" opacity=".15"/>
 </g>
 <g id="main">
  <path id="path39" d="m12 9c-1.6568 0-3 1.3432-3 3 0 0.17106 0.02328 0.33676 0.050781 0.5 0.21674-1.2865 1.247-2.2832 2.5469-2.459 0.1302-0.026642 0.26427-0.041016 0.40234-0.041016 0.13807 0 0.27215 0.014374 0.40234 0.041016 1.2999 0.17582 2.3301 1.1725 2.5469 2.459 0.027501-0.16324 0.050781-0.32894 0.050781-0.5 0-1.6568-1.3432-3-3-3zm0 2c-0.55228 0-1 0.44772-1 1 0 0.18617 0.063739 0.35074 0.15234 0.5 0.17425-0.29353 0.48154-0.5 0.84766-0.5s0.67341 0.20647 0.84766 0.5c0.088605-0.14926 0.15234-0.31383 0.15234-0.5 0-0.55228-0.44772-1-1-1zm-6.9746 1.5c-0.011674 0.166-0.025391 0.33093-0.025391 0.5 0 3.8778 3.1222 7 7 7s7-3.1222 7-7c0-0.16907-0.013716-0.334-0.025391-0.5-0.25608 3.6414-3.2659 6.5-6.9746 6.5-3.7087 0-6.7185-2.8586-6.9746-6.5zm5.0449 0c-0.041655 0.16076-0.070312 0.32622-0.070312 0.5 0 0.9665 0.68629 1.7725 1.5977 1.959 0.13273 0.017951 0.2647 0.041016 0.40234 0.041016s0.26962-0.023065 0.40234-0.041016c0.91138-0.18649 1.5977-0.99248 1.5977-1.959 0-0.17378-0.028656-0.33924-0.070312-0.5-0.22311 0.86102-0.99888 1.5-1.9297 1.5-0.93079 0-1.7066-0.63898-1.9297-1.5z" opacity=".3"/>
  <path id="base" transform="translate(4,4)" d="m8 1c-3.8778 0-7 3.1222-7 7s3.1222 7 7 7 7-3.1222 7-7-3.1222-7-7-7zm0 4c1.6568 0 3 1.3432 3 3 0 1.6569-1.3432 3-3 3s-3-1.3431-3-3c0-1.6568 1.3432-3 3-3zm0 1c-1.1046 0-2 0.89543-2 2s0.89543 2 2 2c1.1046 0 2-0.89543 2-2s-0.89543-2-2-2zm0 1c0.55228 0 1 0.44772 1 1s-0.44772 1-1 1-1-0.44772-1-1 0.44772-1 1-1z" fill="#fff"/>
 </g>
</svg>
