<?xml version="1.0" encoding="UTF-8"?>
<!-- Created with Inkscape (http://www.inkscape.org/) -->
<svg id="svg2" width="24" height="24" version="1.1" xmlns="http://www.w3.org/2000/svg" xmlns:cc="http://creativecommons.org/ns#" xmlns:dc="http://purl.org/dc/elements/1.1/" xmlns:rdf="http://www.w3.org/1999/02/22-rdf-syntax-ns#" xmlns:xlink="http://www.w3.org/1999/xlink">
 <defs id="defs4">
  <linearGradient id="linearGradient3335" x1="11.375" x2="11.375" y1="22" y2="-9.8173" gradientUnits="userSpaceOnUse">
   <stop id="stop3330" offset="0"/>
   <stop id="stop3333" stop-opacity="0" offset="1"/>
  </linearGradient>
  <filter id="filter3194" x="-.18" y="-.18" width="1.36" height="1.36" color-interpolation-filters="sRGB">
   <feGaussianBlur id="feGaussianBlur3196" stdDeviation="1.2"/>
  </filter>
  <clipPath id="clipPath2849">
   <rect id="rect2851" x="1" y="1" width="20" height="20" rx="2" ry="2" fill="#fff" fill-rule="evenodd"/>
  </clipPath>
  <linearGradient id="linearGradient3646" x1="2" x2="22" y1="10" y2="10" gradientTransform="translate(-22,2)" gradientUnits="userSpaceOnUse">
   <stop id="stop3807" stop-color="#d2d2d2" offset="0"/>
   <stop id="stop3809" stop-color="#f5f5f5" offset="1"/>
  </linearGradient>
  <linearGradient id="linearGradient3845" x1="11" x2="21" y1="19.5" y2="19.5" gradientTransform="translate(1,-1)" gradientUnits="userSpaceOnUse" spreadMethod="reflect">
   <stop id="stop3833" stop-color="#fff" offset="0"/>
   <stop id="stop3821" stop-color="#fff" stop-opacity=".49804" offset=".75"/>
   <stop id="stop3835" stop-color="#fff" stop-opacity="0" offset="1"/>
  </linearGradient>
  <linearGradient id="linearGradient3888" x1="10" x2="10" y1="1" y2="16" gradientTransform="translate(1,-1)" gradientUnits="userSpaceOnUse">
   <stop id="stop3825" stop-color="#fff" offset="0"/>
   <stop id="stop3829" stop-color="#fff" stop-opacity="0" offset="1"/>
  </linearGradient>
 </defs>
 <metadata id="metadata7">
  <rdf:RDF>
   <cc:Work rdf:about="">
    <dc:format>image/svg+xml</dc:format>
    <dc:type rdf:resource="http://purl.org/dc/dcmitype/StillImage"/>
    <dc:title/>
   </cc:Work>
  </rdf:RDF>
 </metadata>
 <g id="layer1" transform="translate(0,2)">
  <g id="g3337" transform="translate(1,-1)">
   <rect id="rect3371" x=".5" y=".5" width="21" height="21.5" rx="2.5" ry="2.5" fill="url(#linearGradient3335)" opacity=".3"/>
   <rect id="rect2553" x="1" y="2" width="20" height="20" rx="2.381" ry="2.3256" opacity=".5"/>
  </g>
  <rect id="rect3173" transform="rotate(-90)" x="-20" y="2" width="20" height="20" rx="2" ry="2" fill="url(#linearGradient3646)" fill-rule="evenodd"/>
  <path id="rect3050" d="m4 0c-1.108 0-2 0.892-2 2v16c0 1.108 0.892 2 2 2h16c1.108 0 2-0.892 2-2v-16c0-1.108-0.892-2-2-2h-16zm0 1.0312h16c0.5497 0 0.96875 0.41905 0.96875 0.96875v16c0 0.5497-0.41905 0.96875-0.96875 0.96875h-16c-0.5497 0-0.96875-0.41905-0.96875-0.96875v-16c0-0.5497 0.41905-0.96875 0.96875-0.96875z" fill="url(#linearGradient3888)" fill-rule="evenodd" opacity=".6"/>
  <path id="path3235" d="m4 20c-1.108 0-2-0.892-2-2v-1c0 1.108 0.892 2 2 2h16c1.108 0 2-0.892 2-2v1c0 1.108-0.892 2-2 2h-16z" fill="url(#linearGradient3845)" fill-rule="evenodd" opacity=".3"/>
 </g>
 <g id="layer2" transform="translate(0,2)">
  <rect id="rect2410" transform="translate(1,-1)" x="3" y="3" width="16" height="16" rx="2" ry="2" clip-path="url(#clipPath2849)" fill="#fff" filter="url(#filter3194)" opacity=".1"/>
 </g>
 <g id="layer3" transform="translate(0,2)" fill-rule="evenodd">
  <path id="path3651" d="m18.469 14.135c-0.53116 0.0073-1.1494 0.13471-1.625 0.46875-0.14615 0.10346-0.13137 0.23746 0.03125 0.21875 0.53504-0.0646 1.7253-0.20934 1.9375 0.0625 0.21299 0.272-0.23714 1.4048-0.4375 1.9062-0.0606 0.15175 0.08171 0.20888 0.21875 0.09375 0.89146-0.74499 1.12-2.305 0.9375-2.5312-0.09067-0.11169-0.53134-0.22601-1.0625-0.21875zm-13.938 0.3125c-0.11048 0.01458-0.17907 0.14446-0.0625 0.25 1.981 1.7885 4.6247 2.8438 7.5312 2.8438 2.0746 0 4.4638-0.64918 6.125-1.875 0.27503-0.20276 0.03095-0.49381-0.25-0.375-1.8627 0.79024-3.877 1.1562-5.7188 1.1562-2.7299 0-5.3623-0.7247-7.5-1.9688-0.046652-0.0273-0.088175-0.03611-0.125-0.03125z" fill="#ff9201" stroke="#ff9201" stroke-width=".3"/>
  <path id="path3673" d="m13.403 9.228c0 0.71561 0.01722 1.3118-0.34338 1.9488-0.29195 0.51788-0.75609 0.83505-1.2716 0.83505-0.70367 0-1.1167-0.53746-1.1167-1.332 0-1.5639 1.404-1.8483 2.7314-1.8483v0.39646zm1.8509 4.4775c-0.1211 0.11015-0.29726 0.11679-0.43361 0.04379-0.60978-0.50693-0.71893-0.74016-1.053-1.2242-1.0069 1.0265-1.7212 1.3347-3.0267 1.3347-1.547 0-2.7483-0.95415-2.7483-2.8628 0-1.4896 0.80718-2.5028 1.9571-3.0008 0.99695-0.43692 2.3894-0.51622 3.4537-0.63499v-0.23986c0-0.4356 0.0345-0.95382-0.22261-1.331-0.22361-0.33873-0.65291-0.47674-1.0305-0.47674-0.70035 0-1.3237 0.35764-1.4763 1.1018-0.03218 0.16521-0.15262 0.32878-0.31916 0.3374l-1.7796-0.19275c-0.15129-0.03384-0.31783-0.1536-0.2747-0.38319 0.40906-2.1601 2.3585-2.8117 4.1066-2.8117 0.89344 0 2.0619 0.23854 2.7652 0.91467 0.89344 0.83438 0.80685 1.9471 0.80685 3.1597v2.8608c0 0.86126 0.35864 1.2381 0.69372 1.7013 0.11745 0.16687 0.14399 0.36593-6e-3 0.48869-0.37522 0.31484-1.0414 0.89344-1.408 1.2196l-0.0045-0.0044z" fill="#1a1a1a"/>
  <g id="g3717" transform="translate(56.165 -15)" fill="#ff9201">
   <path id="path3719" d="m-8.0352 30.041c-1.6612 1.2258-4.0702 1.8779-6.1448 1.8779-2.9066 0-5.5247-1.0742-7.5057-2.8627-0.15543-0.14071-0.01663-0.33292 0.16998-0.2237 2.1377 1.244 4.7808 1.9927 7.5107 1.9927 1.8418 0 3.8658-0.38201 5.7285-1.1723 0.28095-0.11881 0.51633 0.18533 0.24129 0.38809z"/>
   <path id="path3721" d="m-7.344 29.252c-0.21219-0.27184-1.4049-0.12888-1.9399-0.06428-0.16262 0.01871-0.18757-0.12233-0.041415-0.22578 0.9511-0.66808 2.5095-0.47475 2.6909-0.25137 0.18245 0.22626-0.047811 1.7885-0.93927 2.5335-0.13704 0.11513-0.26752 0.05453-0.20691-0.09722 0.20036-0.50146 0.64969-1.6229 0.4367-1.8949z"/>
  </g>
 </g>
</svg>
