<?xml version="1.0" encoding="UTF-8"?>
<svg id="svg2" width="24" height="24" version="1.1" xmlns="http://www.w3.org/2000/svg" xmlns:cc="http://creativecommons.org/ns#" xmlns:dc="http://purl.org/dc/elements/1.1/" xmlns:rdf="http://www.w3.org/1999/02/22-rdf-syntax-ns#">
 <metadata id="metadata49">
  <rdf:RDF>
   <cc:Work rdf:about="">
    <dc:format>image/svg+xml</dc:format>
    <dc:type rdf:resource="http://purl.org/dc/dcmitype/StillImage"/>
   </cc:Work>
  </rdf:RDF>
 </metadata>
 <defs id="defs4">
  <linearGradient id="linearGradient3335" x1="11.375" x2="11.375" y1="22" y2="-9.8173" gradientUnits="userSpaceOnUse">
   <stop id="stop3330" offset="0"/>
   <stop id="stop3333" stop-opacity="0" offset="1"/>
  </linearGradient>
  <linearGradient id="linearGradient3181" x1="-3.0608" x2="-3.0608" y1="27.258" y2="7.2537" gradientTransform="translate(12.119 -7.2582)" gradientUnits="userSpaceOnUse">
   <stop id="stop3189" stop-color="#9B0717" offset="0"/>
   <stop id="stop3191" stop-color="#E21A1D" offset="1"/>
  </linearGradient>
  <filter id="filter3194" x="-.18" y="-.18" width="1.36" height="1.36" color-interpolation-filters="sRGB">
   <feGaussianBlur id="feGaussianBlur3196" stdDeviation="1.2"/>
  </filter>
  <clipPath id="clipPath2849">
   <rect id="rect2851" x="1" y="1" width="20" height="20" rx="2" ry="2" fill="#fff" fill-rule="evenodd"/>
  </clipPath>
  <linearGradient id="linearGradient3845" x1="11" x2="21" y1="19.5" y2="19.5" gradientTransform="translate(1,-1)" gradientUnits="userSpaceOnUse" spreadMethod="reflect">
   <stop id="stop3833" stop-color="#fff" offset="0"/>
   <stop id="stop3821" stop-color="#fff" stop-opacity=".49804" offset=".75"/>
   <stop id="stop3835" stop-color="#fff" stop-opacity="0" offset="1"/>
  </linearGradient>
  <linearGradient id="linearGradient3961" x1="10" x2="10" y1="1" y2="16" gradientTransform="translate(1,-1)" gradientUnits="userSpaceOnUse">
   <stop id="stop3825" stop-color="#fff" offset="0"/>
   <stop id="stop3829" stop-color="#fff" stop-opacity="0" offset="1"/>
  </linearGradient>
 </defs>
 <g id="layer1" transform="translate(0,2)">
  <g id="g3337" transform="translate(1,-1)">
   <rect id="rect3371" x=".5" y=".5" width="21" height="21.5" rx="2.5" ry="2.5" fill="url(#linearGradient3335)" opacity=".3"/>
   <rect id="rect2553" x="1" y="2" width="20" height="20" rx="2.381" ry="2.3256" opacity=".5"/>
  </g>
  <rect id="rect3173" x="2" width="20" height="20" rx="2" ry="2" fill="url(#linearGradient3181)" fill-rule="evenodd"/>
  <path id="rect3050" d="m4 0c-1.108 0-2 0.892-2 2v16c0 1.108 0.892 2 2 2h16c1.108 0 2-0.892 2-2v-16c0-1.108-0.892-2-2-2h-16zm0 1.0312h16c0.5497 0 0.96875 0.41905 0.96875 0.96875v16c0 0.5497-0.41905 0.96875-0.96875 0.96875h-16c-0.5497 0-0.96875-0.41905-0.96875-0.96875v-16c0-0.5497 0.41905-0.96875 0.96875-0.96875z" fill="url(#linearGradient3961)" fill-rule="evenodd" opacity=".35"/>
  <path id="path3235" d="m4 20c-1.108 0-2-0.892-2-2v-1c0 1.108 0.892 2 2 2h16c1.108 0 2-0.892 2-2v1c0 1.108-0.892 2-2 2h-16z" fill="url(#linearGradient3845)" fill-rule="evenodd" opacity=".2"/>
 </g>
 <g id="layer2" transform="translate(0,2)">
  <rect id="rect2410" transform="translate(1,-1)" x="3" y="3" width="16" height="16" rx="2" ry="2" clip-path="url(#clipPath2849)" fill="#fff" filter="url(#filter3194)" opacity=".15"/>
 </g>
 <g id="main">
  <path id="path39" d="m10.344 14c-0.11356 0-0.23205 0.01285-0.34375 0.03125v1c0.1117-0.0184 0.23019-0.03125 0.34375-0.03125 0.21814 0 0.43243 0.0604 0.65625 0.125v-1c-0.22382-0.0646-0.43811-0.125-0.65625-0.125zm-1.3438 0.4375c-0.3395 0.20487-0.68602 0.4571-1 0.75v1c0.31398-0.2929 0.6605-0.54513 1-0.75v-1zm3 0.125v1c0.32766 0.19153 0.66326 0.4076 1 0.65625v-1c-0.33674-0.24865-0.67234-0.46472-1-0.65625zm2 1.4375v1c0.32203 0.25 0.67213 0.51562 1 0.75v-1c-0.32787-0.23438-0.67797-0.5-1-0.75zm-7 0.25c-0.35351 0.39802-0.99609 1.0977-0.99609 1.0977l-0.0039062 0.65234h-0.4082l-0.5918 1h1l0.0039062-0.65234s0.64258-0.69964 0.99609-1.0977v-1zm3 0.75c-0.34835 0.0065-0.69185 0.0302-1 0.0625v1c0.30815-0.0323 0.65165-0.056 1-0.0625v-1zm1 0.03125v1c0.36815 0.0292 0.69964 0.0648 1 0.125v-1c-0.30036-0.0602-0.63185-0.0958-1-0.125zm-3 0.1875c-0.36253 0.07229-0.70127 0.1642-1 0.25v1c0.29873-0.0858 0.63747-0.17771 1-0.25v-1zm8 0.15625v0.5625c-0.36416-0.0283-0.7039-0.0844-1-0.125v1c0.2961 0.0406 0.63584 0.0967 1 0.125v-0.5625c0.32733 0.18286 0.65317 0.35319 0.99023 0.44922l0.009766 0.17578h1l-0.5918-1h-0.4082l-0.009766-0.17578c-0.33706-0.09603-0.6629-0.26636-0.99023-0.44922zm-3 0.03125v1c0.30502 0.0801 0.63407 0.17201 1 0.25v-1c-0.36593-0.07799-0.69498-0.1699-1-0.25z" opacity=".3"/>
  <path id="base" transform="translate(4,4)" d="m7.5 3-6.5 11h1l3e-3 -0.65309s0.64331-0.69888 0.99682-1.0969v1.2188c0.29873-0.0858 0.63747-0.17771 1-0.25v-2.0312c0.31398-0.2929 0.6605-0.54513 1-0.75v2.625c0.30815-0.0323 0.65165-0.056 1-0.0625v-2.9688c0.1117-0.0184 0.23019-0.0312 0.34375-0.0312 0.21814 0 0.43243 0.0604 0.65625 0.125v2.9062c0.36815 0.0292 0.69964 0.0648 1 0.125v-2.5938c0.32766 0.19153 0.66326 0.4076 1 0.65625v2.1875c0.30502 0.0801 0.63407 0.17201 1 0.25l1.8e-4 -1.6564c0.32203 0.25 0.67213 0.51562 1 0.75v1.0625c0.2961 0.0406 0.63584 0.0967 1 0.125v-0.5625c0.32733 0.18286 0.654 0.35283 0.99106 0.44886l9e-3 0.17614h1z" fill="#fff"/>
 </g>
</svg>
