<?xml version="1.0" encoding="UTF-8"?>
<!-- Created with Inkscape (http://www.inkscape.org/) -->
<svg id="svg2" width="24" height="24" version="1.1" xmlns="http://www.w3.org/2000/svg" xmlns:cc="http://creativecommons.org/ns#" xmlns:dc="http://purl.org/dc/elements/1.1/" xmlns:rdf="http://www.w3.org/1999/02/22-rdf-syntax-ns#" xmlns:xlink="http://www.w3.org/1999/xlink">
 <defs id="defs4">
  <linearGradient id="linearGradient3335" x1="11.375" x2="11.375" y1="22" y2="-9.8173" gradientUnits="userSpaceOnUse">
   <stop id="stop3330" offset="0"/>
   <stop id="stop3333" stop-opacity="0" offset="1"/>
  </linearGradient>
  <filter id="filter3194" x="-.18" y="-.18" width="1.36" height="1.36" color-interpolation-filters="sRGB">
   <feGaussianBlur id="feGaussianBlur3196" stdDeviation="1.2"/>
  </filter>
  <clipPath id="clipPath2849">
   <rect id="rect2851" x="1" y="1" width="20" height="20" rx="2" ry="2" fill="#fff" fill-rule="evenodd"/>
  </clipPath>
  <radialGradient id="radialGradient3691" cx="28.125" cy="75.058" r="12.054" gradientTransform="matrix(1.5148 -8.9896e-8 6.7407e-8 1.1025 -14.479 -7.7949)" gradientUnits="userSpaceOnUse">
   <stop id="stop3657" stop-color="#d40000" offset="0"/>
   <stop id="stop3659" stop-color="#9c0000" offset="1"/>
  </radialGradient>
  <filter id="filter3695" x="-.11911" y="-.1209" width="1.2382" height="1.2418" color-interpolation-filters="sRGB">
   <feGaussianBlur id="feGaussianBlur3697" stdDeviation="1.1963953"/>
  </filter>
  <linearGradient id="linearGradient3698" x1="16.071" x2="40.179" y1="68.054" y2="68.054" gradientUnits="userSpaceOnUse">
   <stop id="stop3675" stop-color="#fea" offset="0"/>
   <stop id="stop3677" stop-color="#fea" stop-opacity="0" offset="1"/>
  </linearGradient>
  <linearGradient id="linearGradient4084" x1="12" x2="12" y1="3" y2="20.029" gradientTransform="translate(30,-1)" gradientUnits="userSpaceOnUse">
   <stop id="stop3640" stop-color="#dadada" offset="0"/>
   <stop id="stop3642" stop-color="#fff" offset="1"/>
  </linearGradient>
  <filter id="filter4099" x="-.1248" y="-.078" width="1.2496" height="1.156" color-interpolation-filters="sRGB">
   <feGaussianBlur id="feGaussianBlur4101" stdDeviation="0.52"/>
  </filter>
  <filter id="filter3762" x="-.12873" y="-.11238" width="1.2575" height="1.2248" color-interpolation-filters="sRGB">
   <feGaussianBlur id="feGaussianBlur3764" stdDeviation="6.1692057"/>
  </filter>
  <linearGradient id="linearGradient3840" x1="1" x2="21" y1="11" y2="11" gradientTransform="translate(1,-1)" gradientUnits="userSpaceOnUse">
   <stop id="stop3660" stop-color="#373795" offset="0"/>
   <stop id="stop3662" stop-color="#7343bc" offset=".5"/>
   <stop id="stop3664" stop-color="#c83737" offset="1"/>
  </linearGradient>
  <clipPath id="clipPath3848">
   <rect id="rect3850" x="6" y="6" width="84" height="84" rx="8.4" ry="8.4" fill="#f00" fill-rule="evenodd"/>
  </clipPath>
  <clipPath id="clipPath3866">
   <rect id="rect3868" x="1" y="1" width="20" height="20" rx="2" ry="2" fill-rule="evenodd"/>
  </clipPath>
  <filter id="filter3787">
   <feGaussianBlur id="feGaussianBlur3789" stdDeviation="0.28"/>
  </filter>
  <linearGradient id="linearGradient3845-9" x1="11" x2="21" y1="19.5" y2="19.5" gradientTransform="translate(1,-1)" gradientUnits="userSpaceOnUse" spreadMethod="reflect">
   <stop id="stop3833" stop-color="#fff" offset="0"/>
   <stop id="stop3821" stop-color="#fff" stop-opacity=".49804" offset=".75"/>
   <stop id="stop3835" stop-color="#fff" stop-opacity="0" offset="1"/>
  </linearGradient>
  <linearGradient id="linearGradient3869" x1="10" x2="10" y1="1" y2="16" gradientTransform="translate(1,-1)" gradientUnits="userSpaceOnUse">
   <stop id="stop3825" stop-color="#fff" offset="0"/>
   <stop id="stop3829" stop-color="#fff" stop-opacity="0" offset="1"/>
  </linearGradient>
 </defs>
 <metadata id="metadata7">
  <rdf:RDF>
   <cc:Work rdf:about="">
    <dc:format>image/svg+xml</dc:format>
    <dc:type rdf:resource="http://purl.org/dc/dcmitype/StillImage"/>
   </cc:Work>
  </rdf:RDF>
 </metadata>
 <g id="layer1" transform="translate(0,2)">
  <g id="g3337" transform="translate(1,-1)">
   <rect id="rect3371" x=".5" y=".5" width="21" height="21.5" rx="2.5" ry="2.5" fill="url(#linearGradient3335)" opacity=".3"/>
   <rect id="rect2553" x="1" y="2" width="20" height="20" rx="2.381" ry="2.3256" opacity=".5"/>
  </g>
  <rect id="rect3173" x="2" width="20" height="20" rx="2" ry="2" fill="url(#linearGradient3840)" fill-rule="evenodd"/>
  <path id="path3693" transform="matrix(.2381 0 0 .2381 .57143 -1.4286)" d="m34.844-16.156c-16.61-0.06639-33.2 0.59924-43.719 1.9688-10.017 1.9495 1.4298 23.064 1.5938 33.406-0.091929 2.1668 0.14195 4.3797 0.84375 6.4375 6.7214-7.9436 17.426-11.1 27.5-11.562 5.3971 0.70456 6.9694 7.3474 11.938 8.7812 5.4645 0.65213 9.4242-3.8972 13.906-6.1875 4.0473-2.4622 9.3658-4.7673 13.938-2.3438 3.5869 2.5738 5.3298 8.1936 10.406 8.25 5.5779 0.4894 11.188-0.03861 16.719-0.78125 7.6819-3.6667 18.125-28.176 12.438-33.906-4.5459-3.8547-16.268-0.55558-21.781-1.75-10.557-1.4602-27.171-2.2461-43.781-2.3125zm36.531 89.062c-3.2209-0.03402-6.2995 2.1525-7.9375 5.25-2.9105 5.0497-9.4865 2.795-12.875-0.4375-3.3038-3.9647-9.7941-3.376-13.188 0.15625-4.4511 1.9415-8.9885-0.74066-13.156-2.1562-5.1245-2.3278-10.504 0.58941-14.625 3.5938-5.5905 3.0543-10.562 7.1241-15.312 11.344-0.54863 1.0164-0.50096 22.968-1.7812 24.938 34.069-7.6564 65.304-4.8722 101.5-2.8125 7.4838-3.4108 4.3099-27.849-4.2812-31.875-4.98-1.4107-9.5338-3.8511-13.969-6.4688-1.3936-1.0462-2.9109-1.5158-4.375-1.5312z" clip-path="url(#clipPath3848)" filter="url(#filter3762)" opacity=".6"/>
  <rect id="rect4028" x="-29" y="1" width="20" height="20" rx="2" ry="2" fill-rule="evenodd"/>
  <path id="rect3050" d="m4 0c-1.108 0-2 0.892-2 2v16c0 1.108 0.892 2 2 2h16c1.108 0 2-0.892 2-2v-16c0-1.108-0.892-2-2-2h-16zm0 1.0312h16c0.5497 0 0.96875 0.41905 0.96875 0.96875v16c0 0.5497-0.41905 0.96875-0.96875 0.96875h-16c-0.5497 0-0.96875-0.41905-0.96875-0.96875v-16c0-0.5497 0.41905-0.96875 0.96875-0.96875z" fill="url(#linearGradient3869)" fill-rule="evenodd" opacity=".25"/>
  <path id="path3235" d="m4 20c-1.108 0-2-0.892-2-2v-1c0 1.108 0.892 2 2 2h16c1.108 0 2-0.892 2-2v1c0 1.108-0.892 2-2 2h-16z" fill="url(#linearGradient3845-9)" fill-rule="evenodd" opacity=".15"/>
 </g>
 <g id="layer2" transform="translate(0,2)">
  <rect id="rect2410" transform="translate(1,-1)" x="3" y="3" width="16" height="16" rx="2" ry="2" clip-path="url(#clipPath2849)" fill="#fff" filter="url(#filter3194)" opacity=".1"/>
 </g>
 <g id="layer4" transform="translate(0,2)">
  <path id="path2909" transform="translate(1,20)" d="m-0.88646 4.3086c-0.21411 0-0.37039 0.044867-0.45585 0.080712-0.08545 0.035834-0.14329 0.073001-0.19194 0.11739-0.0973 0.088779-0.17384 0.19992-0.23992 0.34484-0.13215 0.28984-0.21623 0.69529-0.28791 1.1813-0.14334 0.97194-0.19286 2.2671-0.23992 3.5584-0.04706 1.2914-0.08673 2.5785-0.21593 3.5438-0.0646 0.48265-0.14794 0.89102-0.26391 1.1666-0.04656 0.11062-0.09166 0.17796-0.14395 0.24212-0.02528-0.02191-0.0475-0.0301-0.07198-0.05869-0.12143-0.14186-0.23234-0.35526-0.3119-0.61631-0.15911-0.5221-0.22106-1.2256-0.2879-1.9296-0.06684-0.70402-0.14147-1.4113-0.26391-1.9443-0.06122-0.26649-0.13105-0.4888-0.23992-0.65299-0.05443-0.0821-0.10175-0.14812-0.19194-0.20544-0.04509-0.02866-0.10578-0.05544-0.19194-0.08071-0.08616-0.02526-0.22977-0.05136-0.38387-0.05136-0.18686 0-0.3311 0.03648-0.40786 0.06603-0.07677 0.02956-0.129 0.05527-0.16795 0.08805-0.07789 0.06555-0.11873 0.14919-0.16795 0.24946-0.09843 0.20054-0.16239 0.47513-0.21593 0.80707-0.10708 0.66388-0.15569 1.5486-0.21593 2.4285-0.06024 0.87999-0.14078 1.759-0.3119 2.4139-0.08556 0.32742-0.20005 0.59613-0.33589 0.77772-0.04302 0.05751-0.09971 0.08794-0.14395 0.12473-0.0546-0.05603-0.11896-0.11553-0.16795-0.21277-0.12506-0.24825-0.20061-0.6183-0.26391-1.0565-0.1266-0.87645-0.16804-2.047-0.19194-3.2209-0.0239-1.174-0.03364-2.351-0.16794-3.2356-0.06715-0.44229-0.17306-0.80562-0.3119-1.0712-0.06942-0.13279-0.13168-0.23914-0.23992-0.32283-0.05412-0.041844-0.11992-0.083656-0.21593-0.11739-0.096-0.033734-0.26429-0.066045-0.45585-0.066045-0.24932 0-0.46441 0.043956-0.5998 0.095379-0.1354 0.051434-0.23072 0.1117-0.3119 0.18342-0.16235 0.14344-0.27004 0.33341-0.35988 0.55761-0.17969 0.4484-0.27245 1.0411-0.33589 1.6288-0.06344 0.5877-0.08895 1.1716-0.19194 1.6068-0.0515 0.21758-0.1326 0.39622-0.21593 0.51359-0.04166 0.05869-0.08985 0.09982-0.11996 0.11739-0.01508 0.0088-0.01859 0.01231 0 0.0073 0.01859-5e-3 0.07861-0.01467 0.14395-0.01467v0.23478c0.14008 0 0.27474-0.02129 0.35988-0.04402 0.08514-0.02273 0.14804-0.04776 0.19194-0.07337 0.08779-0.05121 0.11845-0.10638 0.16795-0.17609 0.09899-0.13943 0.18723-0.32764 0.23992-0.55028 0.10538-0.44527 0.12866-1.0279 0.19194-1.6141 0.06328-0.58623 0.16276-1.1748 0.33589-1.6068 0.08656-0.21602 0.1836-0.3929 0.3119-0.50625 0.04811-0.04251 0.10181-0.06688 0.14395-0.08804 0.06828 0.05456 0.15272 0.15055 0.21593 0.27147 0.12965 0.24801 0.22138 0.61104 0.2879 1.0492 0.13306 0.8763 0.14405 2.0471 0.16795 3.2209 0.0239 1.1739 0.06418 2.3512 0.19194 3.2356 0.06387 0.44222 0.15423 0.80586 0.2879 1.0712 0.06684 0.13267 0.13544 0.23938 0.23992 0.32283 0.05224 0.04172 0.09839 0.0835 0.19194 0.11739 0.09355 0.03389 0.26198 0.06603 0.45585 0.06603 0.15929 0 0.30657-0.02441 0.40786-0.05136 0.1013-0.02695 0.18042-0.05401 0.23992-0.08805 0.11901-0.06806 0.18776-0.155 0.26391-0.2568 0.1523-0.2036 0.27289-0.48149 0.35988-0.81441 0.17399-0.66583 0.2516-1.5477 0.3119-2.4285 0.0603-0.88089 0.11-1.7571 0.21593-2.4139 0.05296-0.32839 0.1013-0.60041 0.19194-0.78506 0.0096-0.01959 0.01384-0.02647 0.024-0.04402 0.09241 0.14394 0.15719 0.35329 0.21592 0.60897 0.12028 0.52355 0.19701 1.2323 0.26391 1.937 0.0669 0.70469 0.12504 1.4099 0.2879 1.9443 0.08144 0.26722 0.19355 0.4867 0.33589 0.65299 0.07117 0.08316 0.14771 0.15448 0.26391 0.21277 0.1162 0.05829 0.31637 0.11739 0.5998 0.11739 0.22176 0 0.37597-0.04483 0.45585-0.08071 0.07988-0.03588 0.12299-0.07329 0.16795-0.11739 0.08992-0.0882 0.15503-0.20015 0.21593-0.34484 0.12179-0.28938 0.22288-0.69543 0.28791-1.1813 0.13004-0.97166 0.16887-2.2672 0.21593-3.5584 0.04706-1.2913 0.0976-2.5787 0.23992-3.5438 0.07116-0.48252 0.16247-0.88414 0.2879-1.1592 0.03884-0.085179 0.0768-0.13241 0.11996-0.19076 0.03793 0.049389 0.08498 0.085256 0.11996 0.15408 0.12658 0.24899 0.2098 0.61083 0.28791 1.0492 0.1562 0.87673 0.24833 2.0472 0.3119 3.2209 0.06356 1.1738 0.11566 2.3522 0.23992 3.2356 0.06212 0.44171 0.13144 0.80785 0.23992 1.0712 0.05424 0.13168 0.11268 0.23467 0.19194 0.31549 0.03964 0.04041 0.09567 0.07609 0.16795 0.11006 0.07227 0.03396 0.20781 0.08071 0.43186 0.08071 0.23646 0 0.43789-0.04168 0.55182-0.08804s0.17432-0.09975 0.23992-0.16142c0.1312-0.12333 0.23697-0.28613 0.3119-0.4769 0.14984-0.38154 0.21111-0.88036 0.2879-1.3794 0.07679-0.49899 0.15019-0.99752 0.2879-1.3647 0.06886-0.18358 0.16682-0.33754 0.26391-0.43288 0.03235 0.03704 0.06586 0.06264 0.09597 0.11739 0.10184 0.18517 0.18126 0.46208 0.23992 0.7924 0.11731 0.66062 0.16227 1.5443 0.21593 2.4285 0.05366 0.8842 0.10492 1.7655 0.26391 2.4285 0.07949 0.33153 0.19135 0.60711 0.33589 0.80707 0.07227 0.09998 0.14605 0.18285 0.26391 0.24946 0.05893 0.03331 0.13208 0.06176 0.23992 0.08804 0.10785 0.0263 0.27254 0.04919 0.43186 0.04402 0.19856-0.0064 0.34372-0.04516 0.43186-0.08071 0.08814-0.03554 0.1382-0.07248 0.19194-0.11739 0.10746-0.08983 0.19003-0.2085 0.26391-0.35218 0.14776-0.28736 0.25424-0.68378 0.33589-1.1592 0.16331-0.95094 0.21685-2.2063 0.26391-3.4631 0.04706-1.2567 0.08246-2.5154 0.19194-3.4557 0.05474-0.47017 0.13826-0.85969 0.23992-1.1299 0.0096-0.02556 0.01382-0.03534 0.024-0.05869 0.01277 0.02938 0.03608 0.04046 0.04799 0.07337 0.10406 0.28777 0.18596 0.7053 0.23992 1.2106 0.10791 1.0106 0.12744 2.366 0.16795 3.7199 0.04051 1.3539 0.10235 2.7099 0.26391 3.7272 0.08078 0.50863 0.18604 0.93051 0.33589 1.2326 0.07493 0.15105 0.15317 0.27473 0.26391 0.36685 0.05538 0.04606 0.11875 0.08099 0.21593 0.11739 0.09717 0.0364 0.27082 0.07658 0.47984 0.07337 0.17427-0.0026 0.33181-0.02748 0.43186-0.05869 0.10005-0.03121 0.15642-0.0706 0.21593-0.11006 0.11901-0.07891 0.21133-0.17925 0.28791-0.30082 0.15316-0.24314 0.2578-0.57646 0.33589-0.97582 0.15617-0.79871 0.18538-1.8505 0.21593-2.9055 0.03053-1.0549 0.05949-2.1119 0.16795-2.8981 0.05423-0.39313 0.13182-0.71715 0.23992-0.93914 0.04242-0.0871 0.07305-0.14127 0.11996-0.19076 0.02349 0.01709 0.04872 0.02104 0.07198 0.04402 0.11485 0.11349 0.21282 0.29094 0.28791 0.50625 0.15016 0.43063 0.22767 1.0146 0.2879 1.5995 0.06024 0.5849 0.11185 1.1738 0.23992 1.6215 0.06403 0.22384 0.1442 0.40764 0.26391 0.55028 0.05985 0.07132 0.11345 0.13106 0.21593 0.18342s0.29056 0.11208 0.55182 0.11739c0.18814 0.0039 0.34314-0.02793 0.43186-0.05869 0.08872-0.03076 0.1452-0.06686 0.19194-0.10271 0.09347-0.07172 0.15375-0.15915 0.21593-0.27147 0.12436-0.22463 0.23679-0.53434 0.3119-0.90979 0.15022-0.75091 0.21442-1.7516 0.2879-2.7514 0.07348-0.99977 0.15232-1.9969 0.2879-2.744 0.0678-0.37358 0.15793-0.69104 0.26391-0.90245 0.0085-0.016956 0.01516-0.021022 0.024-0.036689 0.01638 0.029045 0.0326 0.039689 0.04798 0.073367 0.10754 0.23576 0.19883 0.58284 0.26391 0.99783 0.13017 0.82999 0.17614 1.9394 0.23992 3.0522 0.06377 1.1128 0.13713 2.2322 0.28791 3.0742 0.07538 0.42101 0.1586 0.77276 0.2879 1.0272 0.06466 0.12721 0.14571 0.22781 0.23992 0.30815 0.04711 0.04017 0.08707 0.07696 0.16795 0.11006 0.08087 0.0331 0.23528 0.06833 0.43186 0.07337 0.25722 0.0066 0.47443-0.04258 0.5998-0.09538 0.12537-0.0528 0.21966-0.11802 0.28789-0.19076 0.13644-0.1455 0.22204-0.33285 0.2879-0.56495 0.13174-0.46421 0.15209-1.0785 0.19193-1.6948 0.03984-0.61633 0.07898-1.2346 0.21593-1.6948 0.06848-0.2301 0.17094-0.42539 0.2879-0.55028 0.05846-0.06244 0.12064-0.10326 0.16796-0.12473 0.04732-0.02148 0.04362-0.0157 0-0.01467 0.02271-5.4e-4 0.02433 0.0018 0.04796 0.0073 0.02431 0.0054 0.06996 0.02149 0.11997 0.05136 0.1 0.05973 0.1957 0.16492 0.2639 0.30082 0.13638 0.2718 0.18076 0.65067 0.21593 1.0345 0.03521 0.38385 0.06338 0.77094 0.19194 1.0712 0.06427 0.15013 0.13978 0.27798 0.2879 0.38152 0.07409 0.05177 0.17626 0.1009 0.3119 0.1394 0.13565 0.03851 0.32665 0.06605 0.52782 0.06605 0.15108 0 0.28844-0.01871 0.38387-0.04402 0.09539-0.02531 0.16271-0.05727 0.21593-0.08804 0.1064-0.06155 0.17612-0.13107 0.23993-0.22011 0.12762-0.17808 0.22128-0.42286 0.2879-0.71169 0.13332-0.57765 0.16675-1.3427 0.21593-2.1057 0.04917-0.76298 0.09991-1.5244 0.23993-2.091 0.07001-0.2833 0.1701-0.51971 0.2879-0.675 0.02432-0.03146 0.04682-0.04176 0.07197-0.06604 0.04723 0.05596 0.10087 0.10705 0.14396 0.1981 0.11796 0.24924 0.19523 0.61807 0.2639 1.0565 0.13737 0.87692 0.21001 2.047 0.2639 3.221 0.05386 1.1739 0.10144 2.3517 0.23993 3.2356 0.06924 0.44198 0.16285 0.80686 0.2879 1.0712 0.06256 0.13217 0.12298 0.24068 0.21593 0.32283 0.04646 0.04107 0.08434 0.07606 0.16797 0.11006 0.08354 0.034 0.24969 0.07337 0.45585 0.07337 0.24073 0 0.40077-0.04961 0.47984-0.08805 0.07906-0.03843 0.12087-0.08284 0.16797-0.13206 0.09414-0.09845 0.17235-0.22369 0.23993-0.38886 0.13509-0.33034 0.2319-0.80095 0.3119-1.3573 0.16004-1.1128 0.22419-2.5897 0.2879-4.0647 0.0637-1.475 0.11901-2.9427 0.23993-4.0354 0.06046-0.54632 0.13809-0.99858 0.23993-1.306 0.0032-0.00956-0.0032-0.012689 0-0.022011 0.02048 0.049356 0.05302 0.074379 0.07197 0.13207 0.11542 0.35148 0.21376 0.85501 0.2879 1.4527 0.14832 1.1954 0.23456 2.7787 0.3119 4.3582 0.07731 1.5795 0.14866 3.1498 0.2879 4.3288 0.06964 0.58953 0.1525 1.0851 0.2639 1.4307 0.05571 0.17281 0.11643 0.30376 0.19194 0.40354 0.03776 0.04989 0.07968 0.09358 0.14396 0.13207 0.03201 0.01923 0.06944 0.03833 0.14396 0.05869 0.07452 0.02036 0.21779 0.04115 0.35988 0.03669 0.19439-0.0061 0.31107-0.04233 0.38388-0.07337 0.07283-0.03103 0.1264-0.06634 0.16797-0.10271 0.08311-0.07276 0.13412-0.16504 0.19194-0.27881 0.11563-0.22752 0.2151-0.54174 0.2879-0.91713 0.1456-0.75076 0.20601-1.744 0.2879-2.7367 0.0819-0.99273 0.16765-1.9859 0.3119-2.7294 0.07218-0.37172 0.1798-0.67526 0.2879-0.88779 0.02783-0.055 0.06607-0.08402 0.09596-0.12473 0.09027 0.11282 0.15795 0.27362 0.21593 0.4769 0.1233 0.43198 0.18138 1.017 0.23993 1.6068 0.05856 0.58986 0.13232 1.1853 0.2879 1.6362 0.07784 0.22542 0.16723 0.41398 0.3119 0.55761 0.07235 0.07181 0.16402 0.13131 0.2879 0.18342 0.12387 0.05211 0.32206 0.10272 0.5758 0.10272 0.29363 0 0.50605-0.06276 0.6238-0.12473 0.11772-0.06197 0.19327-0.13794 0.2639-0.22744 0.14124-0.179 0.23868-0.42256 0.3119-0.71169 0.14643-0.57826 0.19539-1.3425 0.23993-2.1057 0.04451-0.7632 0.09084-1.5241 0.21593-2.0911 0.06256-0.28348 0.1301-0.51926 0.23993-0.675 0.02688-0.03842 0.04334-0.05315 0.07197-0.08071 0.04227 0.04267 0.0807 0.07902 0.11996 0.14674 0.11734 0.20242 0.22342 0.50481 0.2879 0.86577 0.12896 0.72192 0.15208 1.6875 0.19194 2.656 0.03987 0.96854 0.09993 1.9396 0.23993 2.6707 0.06998 0.36553 0.15207 0.67342 0.2879 0.89511 0.06795 0.11085 0.15589 0.19886 0.2639 0.27147 0.05402 0.03631 0.09532 0.06566 0.19194 0.09538 0.0966 0.02973 0.25993 0.05869 0.43186 0.05869 0.18307 0 0.33514-0.0267 0.43185-0.05869 0.09669-0.032 0.16137-0.07059 0.21593-0.11006 0.10911-0.07894 0.19385-0.17744 0.2639-0.30082 0.14013-0.24676 0.24028-0.58843 0.3119-0.99783 0.14322-0.8188 0.18086-1.9075 0.21593-2.9935 0.03521-1.086 0.06854-2.1684 0.19194-2.9788 0.06169-0.40523 0.14722-0.7468 0.2639-0.97582 0.03932-0.07716 0.07651-0.11943 0.11996-0.16875 0.0301 0.02973 0.06733 0.04736 0.09596 0.08805 0.11891 0.16885 0.21779 0.42085 0.2879 0.72636 0.14019 0.61102 0.19074 1.4308 0.23993 2.2525 0.04919 0.82168 0.08274 1.6458 0.21593 2.2671 0.0666 0.31065 0.16134 0.57283 0.2879 0.76305 0.0633 0.09511 0.13635 0.17028 0.2399 0.23478 0.05181 0.03226 0.09786 0.06116 0.19194 0.08805 0.09411 0.02689 0.24892 0.05136 0.40786 0.05136 0.23337 0 0.43169-0.04174 0.55181-0.08804 0.12014-0.04629 0.19459-0.09944 0.2639-0.16141 0.13866-0.12395 0.23433-0.28589 0.3119-0.4769 0.1551-0.38203 0.23932-0.88022 0.3119-1.3794 0.07256-0.49914 0.13312-0.9974 0.2639-1.3647 0.06542-0.18364 0.14544-0.33747 0.23993-0.43288 0.0102-0.01044 0.01339-0.01301 0.02367-0.02201 0.02751 0.02284 0.06909 0.03304 0.09596 0.06605 0.10556 0.12954 0.19347 0.3257 0.2639 0.56496 0.14096 0.4785 0.21536 1.1299 0.2879 1.7756 0.07254 0.64566 0.14362 1.2856 0.2879 1.7756 0.07213 0.24499 0.1393 0.45603 0.2639 0.60897 0.06231 0.07647 0.13619 0.13608 0.23993 0.19076 0.10371 0.05468 0.29612 0.11739 0.57581 0.11739 0.16215 0 0.31676-0.02431 0.40786-0.05136 0.0911-0.02704 0.14188-0.05606 0.19194-0.08804 0.10006-0.06396 0.17652-0.13992 0.23993-0.23478 0.12688-0.18973 0.21427-0.45249 0.2879-0.76305 0.14727-0.62111 0.22003-1.4453 0.2879-2.2671 0.06787-0.82181 0.12821-1.6407 0.2639-2.2525 0.06786-0.3059 0.15672-0.55613 0.2639-0.72636 0.0084-0.01351 0.01498-0.01691 0.02433-0.02936 0.0256 0.03939 0.04876 0.05943 0.07197 0.11006 0.10524 0.22979 0.1846 0.57037 0.23993 0.97582 0.11058 0.8109 0.15207 1.8927 0.19194 2.9788 0.03984 1.0861 0.08125 2.1744 0.23993 2.9935 0.07932 0.40953 0.18626 0.75072 0.33589 0.99783 0.07482 0.12356 0.14867 0.22162 0.2639 0.30082 0.05762 0.0396 0.13981 0.07842 0.23993 0.11006 0.1001 0.03163 0.25158 0.05869 0.43186 0.05869 0.2007 0 0.35795-0.03775 0.45585-0.07337 0.09789-0.03563 0.159-0.07218 0.21593-0.11739 0.11383-0.09043 0.21219-0.20615 0.2879-0.35218 0.15141-0.29205 0.25785-0.70061 0.33589-1.1886 0.1561-0.97597 0.18544-2.2715 0.21593-3.5658 0.0301-1.2943 0.05955-2.5878 0.16797-3.5511 0.05421-0.48165 0.13076-0.87949 0.23993-1.1519 0.03869-0.096557 0.09969-0.15231 0.14396-0.21277 0.01179 0.011945 0.01259 0.015956 0.02432 0.029356 0.11373 0.1324 0.21033 0.33221 0.2879 0.57229 0.15514 0.48015 0.23526 1.1254 0.3119 1.7682 0.07667 0.64279 0.13234 1.2822 0.2639 1.7682 0.06579 0.24304 0.1524 0.45071 0.2639 0.60164 0.05574 0.07546 0.12323 0.13686 0.21593 0.19076 0.04637 0.02696 0.10512 0.04989 0.19194 0.07337 0.08681 0.02348 0.21472 0.04402 0.35988 0.04402v-0.23478c0.05263 0 0.09473 0.0026 0.11996 0.0073-0.03639-0.02116-0.09612-0.06736-0.14396-0.13206-0.09562-0.12942-0.17554-0.32702-0.23993-0.56495-0.12876-0.47586-0.18725-1.1176-0.26391-1.7609-0.076672-0.64328-0.15282-1.2906-0.3119-1.7829-0.079525-0.24613-0.17807-0.45317-0.3119-0.60897-0.066916-0.077901-0.15725-0.14245-0.2639-0.1981-0.10666-0.055645-0.28009-0.11706-0.55182-0.12473-0.21974-0.00622-0.39556 0.037411-0.47984 0.073367-0.08432 0.035967-0.12358 0.07399-0.16797 0.11739-0.08866 0.086801-0.15852 0.20158-0.21593 0.34484-0.11485 0.28651-0.18538 0.68914-0.2399 1.1739-0.10909 0.96955-0.1374 2.2646-0.16797 3.5585-0.0301 1.2938-0.06111 2.5832-0.21593 3.5511-0.07741 0.48394-0.19326 0.89145-0.33589 1.1666-0.06269 0.12086-0.12291 0.2007-0.19194 0.26413-0.05824-0.05058-0.13707-0.10753-0.19194-0.1981-0.13807-0.22796-0.23347-0.5636-0.3119-0.96848-0.15687-0.80976-0.2001-1.8932-0.23993-2.9788-0.03987-1.0856-0.08039-2.1756-0.19194-2.9935-0.05577-0.40896-0.12754-0.74521-0.23993-0.9905-0.05619-0.12264-0.12819-0.22346-0.21593-0.30082-0.04387-0.03868-0.0859-0.06987-0.16797-0.10271-0.08208-0.03285-0.23251-0.07337-0.43186-0.07337-0.16596 0-0.32014 0.02389-0.40786 0.05136-0.08772 0.02747-0.14486 0.06357-0.19194 0.09538-0.09411 0.06361-0.15636 0.14015-0.21593 0.23478-0.11917 0.18928-0.19503 0.4453-0.2639 0.75571-0.13779 0.62081-0.19606 1.4455-0.2639 2.2671-0.06786 0.82168-0.14294 1.641-0.2879 2.2525-0.07251 0.30576-0.17436 0.55658-0.2879 0.72636-0.03167 0.04761-0.06284 0.07008-0.09596 0.10272-0.01793-0.01719-0.03073-0.02285-0.04796-0.04402-0.10556-0.12954-0.19347-0.3257-0.2639-0.56495-0.1409-0.4785-0.21536-1.1226-0.2879-1.7682-0.07254-0.64566-0.14362-1.2929-0.2879-1.7829-0.07213-0.24499-0.1393-0.45603-0.2639-0.60897-0.06231-0.07647-0.13619-0.13608-0.23993-0.19076-0.10371-0.05468-0.29616-0.11739-0.5758-0.11739-0.23974 0-0.42 0.04881-0.52783 0.09538-0.10782 0.04657-0.17907 0.09998-0.23993 0.16141-0.12167 0.12287-0.22006 0.27902-0.2879 0.46957-0.13571 0.38109-0.19138 0.88067-0.2639 1.3794-0.07251 0.49869-0.16317 0.99833-0.3119 1.3647-0.07436 0.18318-0.1584 0.33856-0.2639 0.43288-0.02271 0.02044-0.04973 0.02224-0.07197 0.03669-0.04309-0.03537-0.07736-0.07534-0.11996-0.1394-0.11263-0.16929-0.1984-0.4207-0.2639-0.72636-0.13096-0.61132-0.16675-1.4306-0.21593-2.2525-0.049175-0.82181-0.097282-1.6455-0.23993-2.2671-0.071332-0.3108-0.17759-0.57239-0.3119-0.76305-0.067172-0.09533-0.13042-0.17001-0.23993-0.23478-0.054723-0.032389-0.11882-0.061645-0.2159-0.088045-0.097115-0.026411-0.25164-0.051356-0.40787-0.051356-0.18995 0-0.34211 0.033511-0.43186 0.066045-0.08973 0.032523-0.14284 0.070945-0.19194 0.11006-0.09821 0.07823-0.17723 0.17046-0.23993 0.29348-0.12537 0.24604-0.20163 0.58865-0.2639 0.99783-0.12462 0.81836-0.15685 1.9077-0.19194 2.9935-0.03521 1.0858-0.07423 2.1688-0.21593 2.9788-0.07085 0.405-0.18228 0.74018-0.3119 0.96848-0.0482 0.08485-0.09177 0.14048-0.14394 0.19076-0.04414-0.04241-0.10269-0.0794-0.14396-0.14674-0.12379-0.20202-0.19481-0.50493-0.2639-0.86577-0.1382-0.72167-0.20006-1.6876-0.23993-2.656s-0.0614-1.9399-0.19194-2.6707c-0.06527-0.3654-0.15962-0.66648-0.2879-0.88778-0.06416-0.11065-0.13759-0.19918-0.23993-0.27147-0.05117-0.03614-0.09868-0.07263-0.19194-0.10271-0.09331-0.03008-0.25683-0.05869-0.43185-0.05869-0.15106 0-0.28851 0.01864-0.38387 0.04402-0.09537 0.02539-0.16305 0.05723-0.21593 0.08803-0.10578 0.06161-0.17711 0.13106-0.23993 0.22011-0.12559 0.17809-0.20019 0.42288-0.2639 0.71169-0.12742 0.57762-0.17142 1.3428-0.21593 2.1057-0.0445 0.7629-0.09652 1.5247-0.23993 2.091-0.07171 0.28316-0.16572 0.52018-0.2879 0.675-0.05039 0.06386-0.12019 0.10101-0.16797 0.13206-0.0377-0.02157-0.05393-0.03896-0.09596-0.08071-0.11612-0.1153-0.23657-0.29552-0.3119-0.51359-0.15059-0.43615-0.2054-1.0322-0.2639-1.6215-0.05852-0.5893-0.11306-1.1769-0.23993-1.6215-0.06343-0.22227-0.1429-0.4041-0.2639-0.54294-0.06051-0.06941-0.12916-0.13229-0.23993-0.18342-0.11078-0.05113-0.33962-0.10311-0.5998-0.09538-0.19459 0.0058-0.31081 0.04234-0.38387 0.07337-0.07305 0.03103-0.12632 0.06638-0.16793 0.10271-0.08321 0.07268-0.13412 0.16514-0.19194 0.27881-0.11569 0.22733-0.21507 0.54188-0.2879 0.91713-0.14563 0.75049-0.20604 1.744-0.2879 2.7367-0.0819 0.99273-0.16767 1.9783-0.3119 2.722-0.0698 0.35978-0.18455 0.65384-0.2879 0.86577-0.02048-0.04923-0.02912-0.07305-0.04796-0.13207-0.10823-0.33562-0.19455-0.82877-0.2639-1.416-0.13876-1.1746-0.21056-2.7493-0.2879-4.3288-0.07734-1.5796-0.16301-3.1654-0.3119-4.3655-0.07442-0.60005-0.16928-1.0989-0.2879-1.4601-0.0593-0.1805-0.11332-0.32501-0.19194-0.43278-0.03934-0.053889-0.08604-0.099568-0.14396-0.1394-0.05793-0.039845-0.13213-0.087612-0.38388-0.11006-0.12336-0.011-0.26643-0.00389-0.35988 0.014667-0.09342 0.018589-0.15494 0.039823-0.19194 0.058689-0.07395 0.037745-0.10621 0.071578-0.14396 0.11739-0.07551 0.091634-0.13916 0.22233-0.19194 0.38152-0.10552 0.3184-0.17919 0.77197-0.23993 1.3207-0.12146 1.0974-0.17618 2.568-0.23993 4.0427-0.0637 1.4746-0.1288 2.9506-0.2879 4.0574-0.07957 0.5534-0.18198 1.0177-0.3119 1.3353-0.04066 0.09949-0.09891 0.15146-0.14396 0.22011-0.02751-0.04214-0.04662-0.06382-0.07197-0.11739-0.11781-0.24924-0.19512-0.61807-0.26377-1.0565-0.1374-0.87692-0.21003-2.047-0.26392-3.2209-0.05386-1.1739-0.10144-2.3517-0.23993-3.2356-0.06924-0.44198-0.16285-0.80686-0.2879-1.0712-0.06252-0.13217-0.12298-0.24068-0.21593-0.32283-0.04647-0.041078-0.08434-0.076056-0.16797-0.11006-0.08354-0.034-0.24969-0.073367-0.45584-0.073367-0.29747 0-0.48741 0.070323-0.5998 0.13207-0.11238 0.061745-0.19618 0.13084-0.2639 0.22011-0.13543 0.17854-0.24051 0.4227-0.3119 0.71169-0.14284 0.57797-0.19072 1.3426-0.23993 2.1057-0.04917 0.76312-0.08509 1.5241-0.21593 2.091-0.06537 0.28346-0.15229 0.51925-0.2639 0.675-0.04812 0.06721-0.09868 0.10834-0.14396 0.1394-0.02176-0.01-0.04723-0.01206-0.07197-0.02936-0.09373-0.0655-0.18032-0.18354-0.23993-0.32283-0.11926-0.27858-0.15672-0.66475-0.19194-1.0492-0.03521-0.38444-0.06712-0.76731-0.21593-1.0639-0.07443-0.14828-0.19005-0.27273-0.35988-0.37419-0.08496-0.05073-0.18387-0.09689-0.33589-0.13207-0.15203-0.03518-0.35136-0.05607-0.55182-0.05136-0.25737 0.0061-0.45428 0.06223-0.57581 0.11739-0.12154 0.05516-0.21654 0.11458-0.2879 0.19076-0.14269 0.15237-0.21728 0.35701-0.2879 0.5943-0.14122 0.47457-0.20007 1.093-0.23992 1.7095-0.03986 0.6165-0.06421 1.2301-0.19194 1.6802-0.06387 0.22502-0.15476 0.4119-0.26391 0.52826-0.01773 0.0189-0.02963 0.02179-0.04798 0.03669-0.05436-0.0556-0.11722-0.12031-0.16795-0.22011-0.12164-0.23888-0.21337-0.5878-0.28809-1.0051-0.14944-0.83457-0.22414-1.9469-0.28791-3.0595-0.06376-1.1126-0.1327-2.2229-0.26391-3.0595-0.0656-0.4183-0.12583-0.76972-0.23992-1.0198-0.05704-0.12506-0.13163-0.22287-0.21593-0.30082-0.04215-0.038967-0.09054-0.077012-0.16795-0.11006-0.0774-0.033045-0.2225-0.073367-0.43186-0.073367-0.19734 0-0.35336 0.034811-0.43186 0.066045-0.0785 0.031223-0.12582 0.066667-0.16795 0.10271-0.08425 0.07209-0.13512 0.16548-0.19194 0.27881-0.11363 0.22665-0.19548 0.54001-0.26391 0.91713-0.13687 0.75423-0.21444 1.7518-0.28791 2.7514-0.07347 0.9996-0.13925 2.001-0.28791 2.744-0.07432 0.37153-0.17284 0.67991-0.2879 0.88778-0.03139 0.05668-0.06265 0.08463-0.09597 0.12473-0.0063-0.0068-0.01789-0.0074-0.024-0.01467-0.09908-0.11806-0.17764-0.29586-0.23992-0.51359-0.12457-0.43545-0.17963-1.0214-0.23992-1.6068-0.06029-0.58545-0.13261-1.1688-0.2879-1.6141-0.07765-0.22267-0.16834-0.40842-0.3119-0.55028-0.07177-0.07093-0.16487-0.13183-0.28791-0.18342-0.12303-0.05159-0.32372-0.10272-0.57581-0.10272-0.18982 0-0.34493 0.03385-0.43186 0.06605s-0.14544 0.06461-0.19194 0.10271c-0.09299 0.07622-0.1578 0.17411-0.21593 0.29348-0.11626 0.23874-0.18517 0.57154-0.23992 0.96848-0.10951 0.7939-0.1374 1.8437-0.16795 2.8981-0.03053 1.0544-0.06168 2.1093-0.21593 2.8981-0.07716 0.39443-0.19537 0.72333-0.33592 0.94647-0.05573 0.08848-0.10831 0.14822-0.16795 0.1981-0.0674-0.06583-0.15452-0.15501-0.21592-0.27881-0.14193-0.2861-0.23175-0.70578-0.31192-1.2106-0.16036-1.0097-0.22342-2.3591-0.26391-3.7125-0.04049-1.3534-0.05944-2.7111-0.16795-3.7272-0.05425-0.50807-0.13135-0.92502-0.23992-1.2253-0.05429-0.15013-0.13454-0.26974-0.21593-0.35951-0.04069-0.04489-0.06896-0.088057-0.14395-0.12473-0.07499-0.036678-0.24112-0.085567-0.47984-0.080712-0.22956 0.00456-0.36247 0.052745-0.43186 0.088034-0.06938 0.035289-0.10448 0.074223-0.14395 0.11739-0.07895 0.08635-0.13874 0.1961-0.19194 0.3375-0.10639 0.2828-0.18485 0.6789-0.23992 1.1519-0.11014 0.94603-0.14489 2.1995-0.19194 3.4557-0.04705 1.2562-0.10195 2.5126-0.26391 3.4557-0.08098 0.47155-0.19634 0.86584-0.33589 1.1372-0.06308 0.12268-0.12283 0.21433-0.19194 0.27881-0.04182-0.03503-0.07897-0.06069-0.11996-0.11739-0.12837-0.17759-0.23368-0.45154-0.3119-0.77772-0.15643-0.65237-0.21029-1.5302-0.26391-2.4139-0.05363-0.88366-0.09717-1.7745-0.21593-2.4432-0.05938-0.33438-0.15235-0.61154-0.26391-0.81441-0.05579-0.10144-0.1028-0.18252-0.19194-0.24946-0.04457-0.03347-0.107-0.06619-0.19194-0.09538-0.08494-0.0292-0.23172-0.05869-0.40786-0.05869-0.23898 0-0.44229 0.04894-0.55182 0.09538-0.10952 0.04645-0.17732 0.09995-0.23992 0.16141-0.1252 0.12294-0.19242 0.27896-0.26391 0.46957-0.14299 0.38121-0.23513 0.88052-0.3119 1.3794s-0.14384 0.99785-0.2879 1.3647c-0.06709 0.17084-0.14715 0.30798-0.23992 0.40354-0.03752-0.05465-0.08592-0.10089-0.11992-0.18343-0.10313-0.25024-0.17827-0.6178-0.23998-1.0565-0.12342-0.87746-0.17634-2.0469-0.23992-3.2209-0.06358-1.1741-0.15437-2.3515-0.3119-3.2356-0.07876-0.44208-0.17738-0.8066-0.3119-1.0712-0.06725-0.1323-0.14182-0.24044-0.23992-0.32283-0.04905-0.041189-0.08128-0.076256-0.16794-0.11006-0.08666-0.0338-0.2533-0.073367-0.45585-0.073367z" clip-path="url(#clipPath3866)" color="#000000" fill="#f00" fill-opacity=".4375" style="block-progression:tb;text-indent:0;text-transform:none"/>
  <path id="path6333" transform="translate(0,-2)" d="m10.281 7.6875c-0.16356 0-0.32526 0.05458-0.4375 0.15625-0.11224 0.10167-0.18544 0.23445-0.25 0.375-0.12911 0.28111-0.21976 0.64859-0.28125 1.0625-0.12298 0.82782-0.14834 1.8708-0.1875 2.9375s-0.083216 2.1328-0.1875 2.9062c-0.052142 0.38674-0.10834 0.71954-0.1875 0.90625-0.03958 0.09336-0.10313 0.13495-0.125 0.15625-0.021874 0.0213-8.655e-4 0.03125 0 0.03125-0.081295 0-0.12035-0.01587-0.1875-0.09375-0.067153-0.077877-0.1276-0.24239-0.1875-0.4375-0.1198-0.39022-0.19465-0.9525-0.25-1.5312s-0.10925-1.1519-0.21875-1.625c-0.054749-0.23657-0.13028-0.47703-0.25-0.65625s-0.31982-0.3125-0.5625-0.3125c-0.13492 0-0.27936 0.0451-0.375 0.125-0.095636 0.0799-0.13587 0.17684-0.1875 0.28125-0.10325 0.20883-0.17212 0.46299-0.21875 0.75-0.093264 0.57402-0.13763 1.3081-0.1875 2.0312s-0.11762 1.4346-0.25 1.9375c-0.06619 0.25145-0.13731 0.45442-0.21875 0.5625-0.08144 0.10808-0.13295 0.125-0.21875 0.125-0.053086 0-0.075474 0.0029-0.15625-0.15625-0.080776-0.15918-0.16824-0.46537-0.21875-0.8125-0.10102-0.69426-0.10512-1.6555-0.125-2.625s-0.039897-1.9268-0.15625-2.6875c-0.058176-0.38034-0.14158-0.70353-0.28125-0.96875s-0.40126-0.5-0.71875-0.5c-0.25008 0-0.48632 0.06971-0.65625 0.21875s-0.29031 0.3527-0.375 0.5625c-0.16938 0.41959-0.22789 0.91554-0.28125 1.4062s-0.078997 0.98847-0.15625 1.3125c-0.038626 0.16202-0.087476 0.29128-0.125 0.34375s-0.035669 0.03125-0.0625 0.03125v0.59375c0.22177 0 0.41714-0.1217 0.53125-0.28125s0.17072-0.36105 0.21875-0.5625c0.096056-0.4029 0.13547-0.89647 0.1875-1.375 0.052033-0.47853 0.12593-0.94266 0.25-1.25 0.062034-0.15367 0.14694-0.24952 0.21875-0.3125 0.071808-0.06298 0.13134-0.09375 0.25-0.09375 0.062242 0 0.10386 0.02868 0.1875 0.1875 0.083636 0.15882 0.16574 0.43466 0.21875 0.78125 0.10603 0.69317 0.10513 1.656 0.125 2.625 0.019867 0.96896 0.045719 1.9279 0.15625 2.6875 0.055266 0.3798 0.14684 0.70388 0.28125 0.96875s0.37168 0.5 0.6875 0.5c0.28294 0 0.52929-0.16504 0.6875-0.375s0.26643-0.45625 0.34375-0.75c0.15465-0.5875 0.19961-1.3318 0.25-2.0625 0.050386-0.73068 0.1036-1.4524 0.1875-1.9688 0.041949-0.25818 0.10226-0.4533 0.15625-0.5625 0.020767-0.042 0.05168-0.05037 0.0625-0.0625 0.00946 0.0072 0.00613-0.0064 0.03125 0.03125 0.050235 0.0752 0.11006 0.23791 0.15625 0.4375 0.092383 0.39918 0.16286 0.97816 0.21875 1.5625 0.055888 0.58434 0.102 1.1742 0.25 1.6562 0.074002 0.24105 0.19151 0.44845 0.34375 0.625s0.37051 0.3125 0.625 0.3125c0.16326 0 0.33105-0.08386 0.4375-0.1875 0.10645-0.10364 0.15945-0.23513 0.21875-0.375 0.1186-0.27974 0.19433-0.61837 0.25-1.0312 0.11133-0.82576 0.14838-1.9031 0.1875-2.9688 0.039122-1.0656 0.072896-2.1348 0.1875-2.9062 0.057302-0.38571 0.13362-0.68966 0.21875-0.875 0.04256-0.092671 0.09931-0.13298 0.125-0.15625 0.02569-0.023271 0.02142-0.03125 0.03125-0.03125 0.02356 0 0.07226-0.00775 0.15625 0.15625 0.08399 0.164 0.1562 0.46402 0.21875 0.8125 0.12509 0.69697 0.1972 1.6572 0.25 2.625 0.0528 0.96783 0.08104 1.9362 0.1875 2.6875 0.05323 0.37566 0.11228 0.68093 0.21875 0.9375 0.05323 0.12829 0.12164 0.24545 0.21875 0.34375 0.09711 0.0983 0.24976 0.1875 0.40625 0.1875 0.21649 0 0.41866-0.08453 0.5625-0.21875 0.14384-0.13422 0.24132-0.28884 0.3125-0.46875 0.14235-0.35982 0.21729-0.80618 0.28125-1.2188s0.12067-0.80292 0.21875-1.0625c0.04904-0.12979 0.11037-0.23653 0.15625-0.28125 0.04588-0.04472 0.05791-0.03125 0.125-0.03125 0.02038 0 0.03381-0.01445 0.09375 0.09375 0.05994 0.1082 0.1101 0.30451 0.15625 0.5625 0.0923 0.51597 0.14275 1.2367 0.1875 1.9688 0.04475 0.73209 0.07753 1.4778 0.21875 2.0625 0.07061 0.29233 0.1601 0.54071 0.3125 0.75s0.40689 0.38404 0.6875 0.375c0.3262-0.01051 0.574-0.25178 0.71875-0.53125s0.24212-0.62446 0.3125-1.0312c0.14075-0.81359 0.17953-1.8667 0.21875-2.9062 0.03922-1.0395 0.06768-2.0885 0.15625-2.8438 0.04429-0.37761 0.11772-0.69089 0.1875-0.875 0.02155-0.05686 0.04429-0.06404 0.0625-0.09375 0.01966 0.03162 0.03842 0.05888 0.0625 0.125 0.07225 0.19835 0.14373 0.53061 0.1875 0.9375 0.08753 0.81377 0.12251 1.9116 0.15625 3.0312 0.03374 1.1196 0.07994 2.2574 0.21875 3.125 0.06941 0.43382 0.13496 0.80098 0.28125 1.0938 0.07314 0.14638 0.15819 0.27338 0.28125 0.375s0.29954 0.15883 0.46875 0.15625c0.30931-0.0047 0.56265-0.19148 0.71875-0.4375s0.27532-0.55886 0.34375-0.90625c0.13685-0.69477 0.16203-1.5645 0.1875-2.4375 0.02547-0.87299 0.03871-1.7227 0.125-2.3438 0.04314-0.31051 0.12006-0.58126 0.1875-0.71875 0.06744-0.13749 0.06517-0.125 0.09375-0.125 0.09617 0 0.12798 0.03536 0.1875 0.09375 0.05952 0.05839 0.13327 0.15813 0.1875 0.3125 0.10845 0.30874 0.16886 0.76912 0.21875 1.25 0.04989 0.48088 0.10039 0.96428 0.21875 1.375 0.05918 0.20536 0.11616 0.40418 0.25 0.5625s0.36499 0.27663 0.59375 0.28125c0.04858 9.8e-4 0.08085-0.0206 0.125-0.03125v-0.6875c-0.07221 0.12949-0.10976 0.12531-0.125 0.125-0.06309-0.0013-0.07687-0.0056-0.125-0.0625-0.04813-0.05693-0.11037-0.18454-0.15625-0.34375-0.09176-0.31842-0.13714-0.79584-0.1875-1.2812-0.05036-0.48541-0.1044-0.9605-0.25-1.375-0.0728-0.20725-0.1571-0.41006-0.3125-0.5625s-0.38538-0.25-0.625-0.25c-0.29621 0-0.53709 0.22584-0.65625 0.46875s-0.17125 0.53318-0.21875 0.875c-0.09499 0.68364-0.09966 1.5377-0.125 2.4062s-0.06616 1.759-0.1875 2.375c-0.06067 0.308-0.16182 0.54853-0.25 0.6875-0.08818 0.13897-0.12635 0.15484-0.21875 0.15625-0.02607 3.97e-4 -0.0297-0.0042-0.0625-0.03125-0.0328-0.02708-0.07681-0.09107-0.125-0.1875-0.09637-0.19287-0.18553-0.5033-0.25-0.90625-0.12893-0.80589-0.18513-1.9156-0.21875-3.0312s-0.063786-2.2342-0.15625-3.0938c-0.046232-0.4298-0.11415-0.80659-0.21875-1.0938-0.0523-0.14358-0.087675-0.2657-0.1875-0.375s-0.26957-0.19089-0.4375-0.1875c-0.16161 0.0032657-0.30973 0.08272-0.40625 0.1875s-0.16712 0.23876-0.21875 0.375c-0.10327 0.27247-0.17171 0.59888-0.21875 1-0.09409 0.80224-0.11719 1.8397-0.15625 2.875-0.03906 1.0353-0.08896 2.0623-0.21875 2.8125-0.06489 0.37511-0.1558 0.69313-0.25 0.875-0.0942 0.18187-0.13397 0.21702-0.1875 0.21875-0.07722 0.0025-0.11291-0.02256-0.1875-0.125-0.07459-0.10244-0.15819-0.3118-0.21875-0.5625-0.12111-0.5014-0.17427-1.21-0.21875-1.9375-0.04448-0.72754-0.08346-1.4496-0.1875-2.0312-0.05202-0.29082-0.1012-0.56907-0.21875-0.78125s-0.35355-0.40625-0.625-0.40625c-0.21376 0-0.42349 0.1145-0.5625 0.25s-0.21356 0.28959-0.28125 0.46875c-0.13539 0.35831-0.18624 0.77622-0.25 1.1875-0.06376 0.41128-0.1479 0.80443-0.25 1.0625-0.05105 0.12904-0.10696 0.23525-0.15625 0.28125-0.04079 0.03807-0.07378 0.05784-0.125 0.0625-0.0151-0.01528-0.059-0.07251-0.09375-0.15625-0.06949-0.16747-0.13773-0.46123-0.1875-0.8125-0.099545-0.70254-0.13455-1.6543-0.1875-2.625s-0.11416-1.9619-0.25-2.7188c-0.067923-0.37845-0.14808-0.67746-0.28125-0.9375s-0.37528-0.5-0.6875-0.5z" color="#000000" fill="#fff" opacity=".35" style="block-progression:tb;text-indent:0;text-transform:none"/>
 </g>
 <g id="layer3" transform="translate(0,2)">
  <path id="path3013" d="m11.925 2.5003c-0.52564 0.00525-1.0621 0.073264-1.5933 0.21531-3.3998 0.9091-5.417 4.3998-4.506 7.7926l1.0373-0.27328c-0.11844-0.43975-0.19086-0.89761-0.19086-1.3747 0-2.9271 2.3778-5.3 5.3109-5.3 2.9331 0 5.3109 2.3729 5.3109 5.3 0 0.47707-0.07242 0.93492-0.19086 1.3747l1.0373 0.27328c0.28954-1.0784 0.28954-2.2175 0-3.2959-0.76864-2.8627-3.377-4.7402-6.2154-4.712zm-4.6554 8.4882-1.2862 0.34781c-0.7105 0.18998-1.1281 0.91408-0.93771 1.6231l0.68876 2.5589c0.19038 0.70903 0.91597 1.1258 1.6265 0.93577l1.2779-0.33953-1.3692-5.126zm9.4601 0-1.3692 5.126 1.2779 0.33953c0.7105 0.18998 1.4361-0.22674 1.6265-0.93577l0.68876-2.5589c0.19038-0.70903-0.22721-1.4331-0.93771-1.6231l-1.2862-0.34781z" color="#000000" filter="url(#filter3787)" opacity=".8"/>
  <path id="path4091" d="m41 3.5c-1.108 0-2 0.892-2 2v7c0 1.108 0.892 2 2 2s2-0.892 2-2v-7c0-1.108-0.892-2-2-2zm-5 7v1h1.0312v1c0 1.812 1.284 3.3549 2.9688 3.8125v0.09375 1.0938 1h-1v1h4v-1h-1v-1-1.0938-0.09375c1.6847-0.45764 2.9688-2.0005 2.9688-3.8125v-1h1.0312v-1h-1.0312-0.96875v1 1c0 1.6214-1.3786 3-3 3s-3-1.3786-3-3v-2h-2z" filter="url(#filter4099)"/>
  <path id="path3689" transform="matrix(.24889 0 0 .25263 -22 -.19248)" d="m40.179 68.054c0 6.5584-5.3966 11.875-12.054 11.875s-12.054-5.3166-12.054-11.875c0-6.5584 5.3966-11.875 12.054-11.875s12.054 5.3166 12.054 11.875z" filter="url(#filter3695)"/>
  <path id="path3653" transform="matrix(.24889 0 0 -.25263 -22 34.192)" d="m40.179 68.054c0 6.5584-5.3966 11.875-12.054 11.875s-12.054-5.3166-12.054-11.875c0-6.5584 5.3966-11.875 12.054-11.875s12.054 5.3166 12.054 11.875z" fill="url(#radialGradient3691)"/>
  <path id="path3671" transform="matrix(0 .24889 .25263 0 -32.192 10)" d="m40.179 68.054c0 6.5584-5.3966 11.875-12.054 11.875s-12.054-5.3166-12.054-11.875c0-6.5584 5.3966-11.875 12.054-11.875s12.054 5.3166 12.054 11.875z" fill="url(#linearGradient3698)" opacity=".3"/>
  <path id="path3684" d="m-17.938 17.5c-0.028679-0.16658-0.0625-0.32524-0.0625-0.5 0-1.6569 1.3431-3 3-3s3 1.3431 3 3c0 0.17476-0.03382 0.33342-0.0625 0.5-0.24322-1.4126-1.4554-2.5-2.9375-2.5s-2.6943 1.0874-2.9375 2.5z" fill="#ffe680" opacity=".3"/>
  <path id="path4042" d="m41 3c-1.108 0-2 0.892-2 2v7c0 1.108 0.892 2 2 2s2-0.892 2-2v-7c0-1.108-0.892-2-2-2zm-5 7v1h1.0312v1c0 1.812 1.284 3.3549 2.9688 3.8125v0.09375 1.0938 1h-1v1h4v-1h-1v-1-1.0938-0.09375c1.6847-0.45764 2.9688-2.0005 2.9688-3.8125v-1h1.0312v-1h-1.0312-0.96875v1 1c0 1.6214-1.3786 3-3 3s-3-1.3786-3-3v-2h-2z" fill="url(#linearGradient4084)"/>
  <path id="path4086" d="m41 3c-1.108 0-2 0.892-2 2v1c0-1.108 0.892-2 2-2s2 0.892 2 2v-1c0-1.108-0.892-2-2-2zm-5 7v1h1.0312 0.96875v-1h-2zm8 0v1h0.96875 1.0312v-1h-1.0312-0.96875zm-6 2v1c0 1.2161 0.77199 2.2863 1.8438 2.75 0.05263 0.01668 0.10278 0.04798 0.15625 0.0625 0.31434 0.11574 0.65207 0.1875 1 0.1875s0.68566-0.07176 1-0.1875c0.05188-0.0191 0.10564-0.0406 0.15625-0.0625 1.0718-0.46373 1.8438-1.5339 1.8438-2.75v-1c0 1.4609-1.1237 2.7016-2.5312 2.9375-0.0214 0.0036-0.04097 0.02814-0.0625 0.03125-0.13043 0.026555-0.26775 0.03125-0.40625 0.03125-0.16274 0-0.31747-0.026157-0.46875-0.0625-1.4076-0.23585-2.5312-1.4766-2.5312-2.9375zm1 6v1h1v-1h-1zm3 0v1h1v-1h-1z" fill="#fff"/>
  <path id="path3748" d="m11.925 2.0003c-0.52564 0.00525-1.0621 0.073264-1.5933 0.21531-3.3998 0.9091-5.417 4.3998-4.506 7.7926l1.0373-0.27328c-0.11844-0.43975-0.19086-0.89761-0.19086-1.3747 0-2.9271 2.3778-5.3 5.3109-5.3 2.9331 0 5.3109 2.3729 5.3109 5.3 0 0.47707-0.07242 0.93492-0.19086 1.3747l1.0373 0.27328c0.28954-1.0784 0.28954-2.2175 0-3.2959-0.76864-2.8627-3.377-4.7402-6.2154-4.712zm-4.6554 8.4882-1.2862 0.34781c-0.7105 0.18998-1.1281 0.91408-0.93771 1.6231l0.68876 2.5589c0.19038 0.70903 0.91597 1.1258 1.6265 0.93577l1.2779-0.33953-1.3692-5.126zm9.4601 0-1.3692 5.126 1.2779 0.33953c0.7105 0.18998 1.4361-0.22674 1.6265-0.93577l0.68876-2.5589c0.19038-0.70903-0.22721-1.4331-0.93771-1.6231l-1.2862-0.34781z" color="#000000" fill="#fff"/>
 </g>
</svg>
