<?xml version="1.0" encoding="UTF-8"?>
<!-- Created with Inkscape (http://www.inkscape.org/) -->
<svg id="svg2" width="24" height="24" version="1.1" xmlns="http://www.w3.org/2000/svg" xmlns:cc="http://creativecommons.org/ns#" xmlns:dc="http://purl.org/dc/elements/1.1/" xmlns:rdf="http://www.w3.org/1999/02/22-rdf-syntax-ns#" xmlns:xlink="http://www.w3.org/1999/xlink">
 <defs id="defs4">
  <linearGradient id="linearGradient3845-9" x1="11" x2="21" y1="19.5" y2="19.5" gradientTransform="translate(1,-1)" gradientUnits="userSpaceOnUse" spreadMethod="reflect">
   <stop id="stop3833-2" stop-color="#fff" offset="0"/>
   <stop id="stop3821-4" stop-color="#fff" stop-opacity=".49804" offset=".75"/>
   <stop id="stop3835-9" stop-color="#fff" stop-opacity="0" offset="1"/>
  </linearGradient>
  <linearGradient id="linearGradient3078-0" x1="10" x2="10" y1="5" y2="16" gradientTransform="translate(1,-1)" gradientUnits="userSpaceOnUse">
   <stop id="stop3825-4" stop-color="#fff" offset="0"/>
   <stop id="stop3829-4" stop-color="#fff" stop-opacity="0" offset="1"/>
  </linearGradient>
  <linearGradient id="linearGradient3668-3" x1="10.872" x2="10.872" y1="24.123" y2="6.123" gradientTransform="translate(-.74004 -4.123)" gradientUnits="userSpaceOnUse">
   <stop id="stop3189-5" stop-color="#c29656" offset="0"/>
   <stop id="stop3191-1" stop-color="#ddbf8b" offset="1"/>
  </linearGradient>
  <linearGradient id="linearGradient3861" x1="48.036" x2="48.036" y1="25.911" y2="85.821" gradientTransform="matrix(.21953 0 0 .21953 1.3371 .17761)" gradientUnits="userSpaceOnUse">
   <stop id="stop3319-8" stop-color="#c6953a" offset="0"/>
   <stop id="stop3321-0" stop-color="#ab7a1f" offset="1"/>
  </linearGradient>
  <linearGradient id="linearGradient3842" x1="11.375" x2="11.375" y1="20" y2="-11" gradientTransform="translate(1,3)" gradientUnits="userSpaceOnUse">
   <stop id="stop3330" offset="0"/>
   <stop id="stop3333" stop-opacity="0" offset="1"/>
  </linearGradient>
  <linearGradient id="linearGradient3971-4" x1="-17.863" x2="-20.822" y1="30.828" y2="25.015" gradientTransform="matrix(.58203 0 0 .58203 24.847 -2.0895)" gradientUnits="userSpaceOnUse">
   <stop id="stop6721-4-9" stop-color="#8cab2a" offset="0"/>
   <stop id="stop6723-4-1" stop-color="#d7e866" offset="1"/>
  </linearGradient>
  <linearGradient id="linearGradient3973-2" x1="-16.387" x2="-9.7353" y1="24.454" y2="28.196" gradientTransform="matrix(.58203 0 0 .58203 24.847 -2.0895)" gradientUnits="userSpaceOnUse">
   <stop id="stop6713-9-9" stop-color="#8badea" offset="0"/>
   <stop id="stop6715-2-6" stop-color="#3b7caf" offset="1"/>
  </linearGradient>
  <linearGradient id="linearGradient3975-0" x1="-28.946" x2="-16.919" y1="13.899" y2="29.362" gradientTransform="matrix(.58203 0 0 .58203 24.847 -2.0895)" gradientUnits="userSpaceOnUse">
   <stop id="stop6701-7-4" stop-color="#f7a164" offset="0"/>
   <stop id="stop6295-0" stop-color="#e11c26" offset="1"/>
  </linearGradient>
 </defs>
 <metadata id="metadata7">
  <rdf:RDF>
   <cc:Work rdf:about="">
    <dc:format>image/svg+xml</dc:format>
    <dc:type rdf:resource="http://purl.org/dc/dcmitype/StillImage"/>
    <dc:title/>
   </cc:Work>
  </rdf:RDF>
 </metadata>
 <g id="layer2" transform="translate(0,2)">
  <path id="rect3371" transform="translate(0,-2)" d="m4.5 1.5c-1.097 0-2 0.903-2 2v0.5c-0.61148 0.45491-1 1.1759-1 2v14.5c0 1.385 1.115 2.5 2.5 2.5h16c1.385 0 2.5-1.115 2.5-2.5v-14.5c0-0.86562-0.42896-1.6141-1.0938-2.0625-0.2459-0.82631-1.0047-1.4375-1.9062-1.4375h-7.375c-0.34968-0.56782-0.91215-1-1.625-1h-6z" fill="url(#linearGradient3842)" opacity=".3"/>
  <rect id="rect5478" x="2" y="5" width="20" height="16" rx="2" ry="2" opacity=".4"/>
  <rect id="rect3352" x="3.6499" y="5.2581" width="16.464" height="13.76" rx="1.3172" ry="1.3172" fill="url(#linearGradient3861)"/>
  <path id="rect3043" d="m4.5 0c-0.831 0-1.5 0.669-1.5 1.5v1 1 2c0 0.831 0.669 1.5 1.5 1.5h15c0.831 0 1.5-0.669 1.5-1.5v-3c0-0.831-0.669-1.5-1.5-1.5h-7.5938c-0.20326-0.58702-0.74838-1-1.4062-1h-6z" color="#000000" fill="#c4995a"/>
  <path id="path3050" d="m4 1c-0.3511 0-0.68254 0.092374-0.96875 0.25-0.012936 0.079539-0.03125 0.16669-0.03125 0.25v1 1 2c0 0.831 0.669 1.5 1.5 1.5h15c0.831 0 1.5-0.669 1.5-1.5v-3c0-0.831-0.669-1.5-1.5-1.5h-7.5938-7.9062z" color="#000000" opacity=".1"/>
  <rect id="rect3660" x="2" y="2" width="20" height="18" rx="2" ry="2" fill="url(#linearGradient3668-3)"/>
  <path id="rect3050" d="m4 2c-1.108 0-2 0.892-2 2v14c0 1.108 0.892 2 2 2h16c1.108 0 2-0.892 2-2v-14c0-1.108-0.892-2-2-2zm0 1.0312h16c0.5497 0 0.96875 0.41905 0.96875 0.96875v14c0 0.5497-0.41905 0.96875-0.96875 0.96875h-16c-0.5497 0-0.96875-0.41905-0.96875-0.96875v-14c0-0.5497 0.41905-0.96875 0.96875-0.96875z" fill="url(#linearGradient3078-0)" fill-rule="evenodd" opacity=".2"/>
  <path id="path3235" d="m4 20c-1.108 0-2-0.892-2-2v-1c0 1.108 0.892 2 2 2h16c1.108 0 2-0.892 2-2v1c0 1.108-0.892 2-2 2z" fill="url(#linearGradient3845-9)" fill-rule="evenodd" opacity=".2"/>
  <rect id="rect3884" x="32" y="-2" width="8" height="8" color="#000000" fill="#bd8e48"/>
 </g>
 <g id="layer4" transform="translate(0,2)">
  <path id="path4058" d="m14 6.9688c-2.0165 0-3.8731 0.52469-5.3125 1.4062-1.4418 0.88307-2.5042 2.1908-2.6875 3.7812-0.012617 0.10945-0.0625 0.29169-0.0625 0.5v1.1875c0 1.4924 0.81882 2.8055 2 3.75 1.1745 0.93921 2.7598 1.5408 4.5 1.7812 0.0092 0.0017 0.02198-0.0016 0.03125 0 1.2128 0.21359 2.8384 0.22882 4.1562-0.1875 0.0166-0.0025 0.01119 0.0049 0.03125 0 0.3016-0.07302 0.60822-0.13476 0.9375-0.25 0.25655-0.08872 0.48477-0.21031 0.71875-0.3125 0.0093-0.0035 0.01465 0.0064 0.03125 0 0.02655-0.01023 0.05653-0.04665 0.09375-0.0625 0.0093-4e-3 0.02153 0.0043 0.03125 0a0.48684 0.48684 0 0 0 0.03125 0c0.0183-0.0068 0.01081 0.0096 0.03125 0 0.37184-0.1741 0.68133-0.37675 0.96875-0.5625a0.48684 0.48684 0 0 0 0.03125 0c0.18048-0.11928 0.37921-0.26135 0.59375-0.4375 0.15497-0.12728 0.2868-0.25728 0.40625-0.375 0.0604-0.0591 0.18362-0.16619 0.3125-0.3125 0.09389-0.10752 0.12476-0.15595 0.125-0.15625 0.18768-0.22836 0.30074-0.44951 0.40625-0.625 0.03452-0.05948 0.15627-0.2056 0.25-0.40625 0.0161-0.03446-8e-3 -0.03291 0-0.0625 0.03267-0.07719 0.07853-0.1365 0.09375-0.1875 0.0038-0.01275-0.0031-0.01985 0-0.03125s-3e-3 -0.01767 0-0.03125c0.0016-5.65e-4 0.01799-0.06874 0.03125-0.09375 0.02807-0.05296 0.05577-0.0638 0.09375-0.1875 0.08079-0.26098 0.19461-0.60474 0.21875-1a0.48684 0.48684 0 0 0 0-0.03125c3.4e-5 -0.0012 3.4e-5 -0.03003 0-0.03125v-0.1875-1.0312-0.03125c1e-3 -0.0609 0-0.11458 0-0.125 0-0.24217-0.0692-0.45455-0.09375-0.625-0.22474-1.5606-1.284-2.8282-2.7188-3.6875-1.4323-0.85785-3.2582-1.375-5.25-1.375z" opacity=".05"/>
  <path id="path4054" d="m14 7.4688c-1.935 0-3.7131 0.48602-5.0625 1.3125-1.3494 0.82648-2.3068 2.0323-2.4688 3.4375-0.012908 0.11198-0.03125 0.26337-0.03125 0.4375v1.1875c0 1.3154 0.71747 2.4994 1.8125 3.375 1.0882 0.8702 2.5817 1.457 4.25 1.6875 0.01039 0.0014 0.02084-0.0014 0.03125 0 1.1456 0.20584 2.7544 0.20297 3.9688-0.1875 0.0097-0.0023 0.02152 0.0024 0.03125 0 0.30309-0.07338 0.60856-0.14582 0.90625-0.25 0.23035-0.07966 0.45149-0.17817 0.6875-0.28125 0.0062-0.0028 0.07993-0.02885 0.15625-0.0625 0.0087-4e-3 0.02256 0.0041 0.03125 0 0.34162-0.15995 0.65962-0.35167 0.9375-0.53125 0.17674-0.11681 0.36911-0.24746 0.5625-0.40625 0.13668-0.11226 0.25896-0.22939 0.375-0.34375 0.07667-0.07501 0.17541-0.1611 0.28125-0.28125 0.0785-0.08989 0.12476-0.15595 0.125-0.15625 0.15734-0.19144 0.26583-0.38091 0.375-0.5625 0.05672-0.09772 0.14988-0.22757 0.21875-0.375 0.0044-0.0093-0.0043-0.02168 0-0.03125 0.04962-0.11724 0.06841-0.20223 0.0625-0.1875a0.55113 0.55113 0 0 0 0-0.03125c0.02732-0.07023 0.08688-0.15707 0.125-0.28125 0.08-0.25844 0.16758-0.54885 0.1875-0.875a0.55113 0.55113 0 0 0 0-0.03125v-0.1875-1.0312-0.03125c8.41e-4 -0.04949 0-0.10247 0-0.125 0-0.1748-0.03629-0.38054-0.0625-0.5625-0.19886-1.3808-1.1543-2.5378-2.5-3.3438s-3.0889-1.2812-5-1.2812z" opacity=".15"/>
  <path id="path3956" d="m14 8.0378c-3.6843 0-6.6934 1.861-6.9688 4.25-0.013562 0.11765-0.03125 0.25505-0.03125 0.375v1.1875c0 2.2358 2.404 4.0999 5.5938 4.5312 1.0439 0.19208 2.7067 0.16497 3.7812-0.1875 0.30335-0.07289 0.59288-0.15127 0.875-0.25 0.22552-0.07799 0.44146-0.15619 0.65625-0.25 0.05297-0.02365 0.10432-0.03792 0.15625-0.0625 0.3133-0.14451 0.59591-0.31964 0.875-0.5 0.17854-0.118 0.37276-0.24486 0.53125-0.375 0.11889-0.09765 0.23604-0.20635 0.34375-0.3125 0.08734-0.08545 0.17127-0.16062 0.25-0.25 0.03548-0.04063 0.05994-0.08324 0.09375-0.125 0.13179-0.16035 0.24089-0.3289 0.34375-0.5 0.06429-0.11077 0.13453-0.2263 0.1875-0.34375 0.02899-0.06162 0.03734-0.12481 0.0625-0.1875 0.0323-0.08304 0.06727-0.16375 0.09375-0.25 0.07467-0.24121 0.14078-0.49671 0.15625-0.75v-0.1875-1.0625c0.0017-0.04239 0-0.08223 0-0.125 0-0.14978-0.0102-0.32262-0.03125-0.46875-0.33803-2.3472-3.3292-4.1562-6.9688-4.1562z" opacity=".3"/>
  <path id="path3933" d="m20.759 12.143c-0.80238-1.9711-3.5231-3.4224-6.7588-3.4224-3.2357 0-5.9564 1.4513-6.7588 3.4224h-0.24142v1.2048c0 2.5552 3.1344 4.6264 7.0002 4.6264 3.8662 0 6.9998-2.0712 6.9998-4.6264v-1.2048h-0.24105z" fill="#b82525"/>
  <path id="path3935" d="m21 12.143c0 2.5556-3.1337 4.6268-6.9998 4.6268s-7.0002-2.0712-7.0002-4.6268c0-2.5556 3.1344-4.6268 7.0002-4.6268 3.8662 0 6.9998 2.0712 6.9998 4.6268z" fill="url(#linearGradient3975-0)"/>
  <path id="path3937" d="m21 13.528-9e-3 -1.2609c-0.75903 2.6196-2.4658 3.7294-4.6117 4.2727v1.1608c2.3227-0.58414 4.4013-1.9142 4.6207-4.1726z" fill="#39619a"/>
  <path id="path3939" d="m21 12.143c-0.16033 2.9564-3.8168 4.3045-4.6338 4.3559l-2.3664-4.3559h6.9998 3.79e-4z" fill="url(#linearGradient3973-2)"/>
  <path id="path3941" d="m12.535 17.873v-1.2044c1.3174 0.17155 2.526 0.20178 3.8314-0.12444l0.01308 1.1569c-1.0939 0.35881-2.8052 0.37569-3.8445 0.17234v-3.79e-4z" fill="#70851f"/>
  <path id="path3943" d="m14 12.144 2.3664 4.3555c-1.4489 0.55234-3.8314 0.16959-3.8314 0.16959l1.465-4.5251z" fill="url(#linearGradient3971-4)"/>
  <path id="path3940" d="m20.969 11.688c-0.08934 0.8245-0.49131 1.5682-1.1562 2.2188-0.03668 0.03686-0.08739 0.05807-0.125 0.09375-0.22456 0.20741-0.47784 0.41386-0.75 0.59375-1.0363 0.713-2.154 1.068-2.5625 1.0938-0.67921 0.25892-1.5646 0.29754-2.3125 0.28125-0.02134 1.26e-4 -0.04112 0-0.0625 0-0.0296-7.96e-4 -0.06464 9.99e-4 -0.09375 0-0.36378-0.0032-0.71414-0.02392-1.0625-0.0625-0.10558-0.01169-0.20858-0.04772-0.3125-0.0625-2.9583-0.42067-5.2274-2.0304-5.5-4.0625-0.015404 0.12529-0.03125 0.24708-0.03125 0.375 0 2.2201 2.3757 4.0513 5.5312 4.5 0.10392 0.01478 0.20692 0.05081 0.3125 0.0625 0.34836 0.03858 0.69872 0.05927 1.0625 0.0625 0.02911 9.99e-4 0.06415-7.96e-4 0.09375 0 0.02138 0 0.04116 1.26e-4 0.0625 0 0.74792 0.01629 1.6333-0.02233 2.3125-0.28125 0.40848-0.02571 1.5262-0.38075 2.5625-1.0938 0.27216-0.17989 0.52544-0.38634 0.75-0.59375 0.03761-0.03568 0.08832-0.05689 0.125-0.09375 0.75472-0.73843 1.1875-1.6041 1.1875-2.5625 0-0.15973-0.0074-0.31321-0.03125-0.46875z" fill="#fff" opacity=".3"/>
 </g>
</svg>
