<?xml version="1.0" encoding="UTF-8"?>
<svg id="svg2" width="24" height="24" version="1.1" xmlns="http://www.w3.org/2000/svg" xmlns:cc="http://creativecommons.org/ns#" xmlns:dc="http://purl.org/dc/elements/1.1/" xmlns:rdf="http://www.w3.org/1999/02/22-rdf-syntax-ns#">
 <metadata id="metadata49">
  <rdf:RDF>
   <cc:Work rdf:about="">
    <dc:format>image/svg+xml</dc:format>
    <dc:type rdf:resource="http://purl.org/dc/dcmitype/StillImage"/>
   </cc:Work>
  </rdf:RDF>
 </metadata>
 <defs id="defs4">
  <linearGradient id="linearGradient3335" x1="11.375" x2="11.375" y1="22" y2="-9.8173" gradientUnits="userSpaceOnUse">
   <stop id="stop3330" offset="0"/>
   <stop id="stop3333" stop-opacity="0" offset="1"/>
  </linearGradient>
  <linearGradient id="linearGradient3181" x1="-3.0608" x2="-3.0608" y1="27.258" y2="7.2537" gradientTransform="translate(12.119 -7.2582)" gradientUnits="userSpaceOnUse">
   <stop id="stop3189" stop-color="#4e4e4e" offset="0"/>
   <stop id="stop3191" stop-color="#828282" offset="1"/>
  </linearGradient>
  <filter id="filter3194" x="-.18" y="-.18" width="1.36" height="1.36" color-interpolation-filters="sRGB">
   <feGaussianBlur id="feGaussianBlur3196" stdDeviation="1.2"/>
  </filter>
  <clipPath id="clipPath2849">
   <rect id="rect2851" x="1" y="1" width="20" height="20" rx="2" ry="2" fill="#fff" fill-rule="evenodd"/>
  </clipPath>
  <linearGradient id="linearGradient3845" x1="11" x2="21" y1="19.5" y2="19.5" gradientTransform="translate(1,-1)" gradientUnits="userSpaceOnUse" spreadMethod="reflect">
   <stop id="stop3833" stop-color="#fff" offset="0"/>
   <stop id="stop3821" stop-color="#fff" stop-opacity=".49804" offset=".75"/>
   <stop id="stop3835" stop-color="#fff" stop-opacity="0" offset="1"/>
  </linearGradient>
  <linearGradient id="linearGradient3961" x1="10" x2="10" y1="1" y2="16" gradientTransform="translate(1,-1)" gradientUnits="userSpaceOnUse">
   <stop id="stop3825" stop-color="#fff" offset="0"/>
   <stop id="stop3829" stop-color="#fff" stop-opacity="0" offset="1"/>
  </linearGradient>
 </defs>
 <g id="layer1" transform="translate(0,2)">
  <g id="g3337" transform="translate(1,-1)">
   <rect id="rect3371" x=".5" y=".5" width="21" height="21.5" rx="2.5" ry="2.5" fill="url(#linearGradient3335)" opacity=".3"/>
   <rect id="rect2553" x="1" y="2" width="20" height="20" rx="2.381" ry="2.3256" opacity=".5"/>
  </g>
  <rect id="rect3173" x="2" width="20" height="20" rx="2" ry="2" fill="url(#linearGradient3181)" fill-rule="evenodd"/>
  <path id="rect3050" d="m4 0c-1.108 0-2 0.892-2 2v16c0 1.108 0.892 2 2 2h16c1.108 0 2-0.892 2-2v-16c0-1.108-0.892-2-2-2h-16zm0 1.0312h16c0.5497 0 0.96875 0.41905 0.96875 0.96875v16c0 0.5497-0.41905 0.96875-0.96875 0.96875h-16c-0.5497 0-0.96875-0.41905-0.96875-0.96875v-16c0-0.5497 0.41905-0.96875 0.96875-0.96875z" fill="url(#linearGradient3961)" fill-rule="evenodd" opacity=".35"/>
  <path id="path3235" d="m4 20c-1.108 0-2-0.892-2-2v-1c0 1.108 0.892 2 2 2h16c1.108 0 2-0.892 2-2v1c0 1.108-0.892 2-2 2h-16z" fill="url(#linearGradient3845)" fill-rule="evenodd" opacity=".2"/>
 </g>
 <g id="layer2" transform="translate(0,2)">
  <rect id="rect2410" transform="translate(1,-1)" x="3" y="3" width="16" height="16" rx="2" ry="2" clip-path="url(#clipPath2849)" fill="#fff" filter="url(#filter3194)" opacity=".15"/>
 </g>
 <g id="main">
  <path id="path39" d="m12.016 6.4941v0.82422c-1e-5 -0.10806 0.05789-0.21039 0.17578-0.30859 0.11786-0.10806 0.17772-0.19682 0.17774-0.26562-1.8e-5 -0.095574-0.13058-0.1776-0.35352-0.25zm4.7207 2.5078c-0.065603 0.063667-0.14514 0.1582-0.24219 0.29102-0.17686 0.25544-0.34862 0.38478-0.51562 0.38477h-3.7051c0.046733 0.087378 0.14561 0.22172 0.20898 0.32422h5.1035c0.23577 0 0.35348-0.069481 0.35352-0.20703-4e-5 -0.06877-0.15829-0.23088-0.47266-0.48633-0.16924-0.14279-0.29795-0.24057-0.39844-0.30664h-0.33203zm-11.354 0.67383c-0.15719 1e-5 -0.23634 0.044412-0.23633 0.13281-1e-5 0.12768 0.079118 0.19142 0.23633 0.19141h5.0898c0.047472-0.10823 0.10847-0.22811 0.14062-0.32422h-5.2305zm6.6328 0.66602v1c0.6288 1.0808 1.1827 1.9415 1.6641 2.5801 0.5207 0.6877 1.2136 1.4867 2.0781 2.4004 0.87434 0.91366 1.4939 1.3711 1.8574 1.3711 0.0491 0 0.08769-0.009597 0.11719-0.029297 0.02946-0.019659 0.064219-0.05431 0.10352-0.10352 0.0393-0.0491 0.064218-0.077891 0.074218-0.087891 0.11786-0.10808 0.30312-0.2258 0.55859-0.35352 0.2554-0.13755 0.43305-0.24562 0.53125-0.32422-0.11628-0.03875-0.56422-0.24731-0.93945-0.41797-0.041639 0.030553-0.11861 0.066559-0.15039 0.095703-0.01 0.01-0.034918 0.038791-0.074218 0.087891-0.039297 0.049205-0.074056 0.083856-0.10352 0.10352-0.029498 0.0197-0.068088 0.029297-0.11719 0.029297-0.36351 0-0.98308-0.45743-1.8574-1.3711-0.86457-0.91368-1.5574-1.7127-2.0781-2.4004-0.48141-0.63859-1.0353-1.4993-1.6641-2.5801zm-0.92969 0.73633c-0.10807 0.19649-0.43232 0.66354-0.97266 1.4004-0.8591 1.1958-1.8079 2.2156-2.8418 3.0684-0.28128 0.33958-0.57056 0.69623-0.82812 0.98242l-0.76562 0.83984c-0.02948 0.02947-0.13176 0.12791-0.30859 0.29492-0.16704 0.17684-0.29054 0.31391-0.36914 0.41211 1.9551-1.0414 3.6593-2.5739 5.1133-4.5977 0.54034-0.73685 0.86459-1.2039 0.97266-1.4004l0.015624 7.1328c-9e-6 0.30456 0.098411 0.45703 0.29492 0.45703 0.15718 0 0.28461-0.04441 0.38281-0.13281 0.09828-0.08842 0.16191-0.22544 0.19141-0.41211 0.0295-0.17684 0.048594-0.32932 0.058594-0.45703 0.01-0.12772 0.01-0.30529 0-0.53125-0.009401-0.21675-0.013374-0.33124-0.013672-0.36719-0.010971 0.10786-0.021983 0.21796-0.044922 0.35547-0.0295 0.18667-0.093126 0.32369-0.19141 0.41211-0.0982 0.088403-0.22563 0.13281-0.38281 0.13281-0.19651 0-0.29493-0.15247-0.29492-0.45703l-0.015624-7.1328z" opacity=".3"/>
  <path id="base" transform="translate(4,4)" d="m7.3066 1.332c-0.13753 1e-5 -0.20508 0.057891-0.20508 0.17578v3.168h-5.7188c-0.15719 1e-5 -0.23634 0.044412-0.23633 0.13281-1e-5 0.12768 0.079118 0.19142 0.23633 0.19141h5.1875c0.09818 1e-5 0.14646 0.050238 0.14648 0.14844 0 0.5797-0.51528 1.5678-1.5469 2.9629-1.0218 1.3951-1.9308 2.5338-2.7266 3.418l-0.76562 0.83984c-0.02948 0.02947-0.13176 0.12791-0.30859 0.29492-0.16704 0.17684-0.29054 0.31391-0.36914 0.41211 1.9551-1.0414 3.6593-2.5739 5.1133-4.5977 0.54034-0.73685 0.86459-1.2039 0.97266-1.4004l0.015625 7.1328c-1e-5 0.30456 0.098412 0.45703 0.29492 0.45703 0.15718 0 0.28461-0.044413 0.38281-0.13281 0.09828-0.08842 0.16191-0.22544 0.19141-0.41211 0.0295-0.17684 0.048594-0.32932 0.058594-0.45703 0.01-0.12772 0.01-0.30529 0-0.53125-0.0098-0.22596-0.013682-0.35331-0.013672-0.38281v-6.4102c0.6288 1.0808 1.1827 1.9415 1.6641 2.5801 0.5207 0.6877 1.2136 1.4867 2.0781 2.4004 0.87434 0.91366 1.4939 1.3711 1.8574 1.3711 0.0491 0 0.087688-0.009596 0.11719-0.029297 0.02946-0.019659 0.064215-0.054315 0.10352-0.10352 0.039299-0.0491 0.064218-0.077891 0.074218-0.087891 0.11786-0.10808 0.30312-0.2258 0.55859-0.35352 0.2554-0.13755 0.43305-0.24562 0.53125-0.32422-0.1769-0.05895-0.65357-0.27127-1.4297-0.63477-0.51085-0.24561-0.98178-0.52546-1.4141-0.83984-0.43227-0.31435-0.85112-0.69266-1.2539-1.1348-0.40282-0.45191-0.7367-0.83984-1.002-1.1641-0.25541-0.334-0.59318-0.79914-1.0156-1.3984-0.54036-0.7467-0.81055-1.2485-0.81055-1.5039-1e-7 -0.07858 0.054049-0.11719 0.16211-0.11719h5.3496c0.23577 0 0.35348-0.069481 0.35352-0.20703-4e-5 -0.06877-0.15829-0.23088-0.47266-0.48633-0.31439-0.26525-0.50929-0.39843-0.58789-0.39844-0.06877 1.01e-5 -0.19812 0.12737-0.38476 0.38281-0.17686 0.25544-0.34862 0.38478-0.51562 0.38477h-3.9629v-2.3594c-1e-5 -0.10806 0.057891-0.21039 0.17578-0.30859 0.11786-0.10806 0.17771-0.19682 0.17773-0.26562-2e-5 -0.10806-0.14283-0.2007-0.42773-0.2793-0.2751-0.08843-0.48742-0.1328-0.63477-0.13281z" fill="#fff"/>
 </g>
</svg>
