<?xml version="1.0" encoding="UTF-8"?>
<svg id="svg2" width="24" height="24" version="1.1" xmlns="http://www.w3.org/2000/svg" xmlns:cc="http://creativecommons.org/ns#" xmlns:dc="http://purl.org/dc/elements/1.1/" xmlns:rdf="http://www.w3.org/1999/02/22-rdf-syntax-ns#">
 <metadata id="metadata49">
  <rdf:RDF>
   <cc:Work rdf:about="">
    <dc:format>image/svg+xml</dc:format>
    <dc:type rdf:resource="http://purl.org/dc/dcmitype/StillImage"/>
   </cc:Work>
  </rdf:RDF>
 </metadata>
 <defs id="defs4">
  <linearGradient id="linearGradient3335" x1="11.375" x2="11.375" y1="22" y2="-9.8173" gradientUnits="userSpaceOnUse">
   <stop id="stop3330" offset="0"/>
   <stop id="stop3333" stop-opacity="0" offset="1"/>
  </linearGradient>
  <linearGradient id="linearGradient3181" x1="-3.0608" x2="-3.0608" y1="27.258" y2="7.2537" gradientTransform="translate(12.119 -7.2582)" gradientUnits="userSpaceOnUse">
   <stop id="stop3189" stop-color="#e02051" offset="0"/>
   <stop id="stop3191" stop-color="#e43964" offset="1"/>
  </linearGradient>
  <filter id="filter3194" x="-.18" y="-.18" width="1.36" height="1.36" color-interpolation-filters="sRGB">
   <feGaussianBlur id="feGaussianBlur3196" stdDeviation="1.2"/>
  </filter>
  <clipPath id="clipPath2849">
   <rect id="rect2851" x="1" y="1" width="20" height="20" rx="2" ry="2" fill="#fff" fill-rule="evenodd"/>
  </clipPath>
  <linearGradient id="linearGradient3845" x1="11" x2="21" y1="19.5" y2="19.5" gradientTransform="translate(1,-1)" gradientUnits="userSpaceOnUse" spreadMethod="reflect">
   <stop id="stop3833" stop-color="#fff" offset="0"/>
   <stop id="stop3821" stop-color="#fff" stop-opacity=".49804" offset=".75"/>
   <stop id="stop3835" stop-color="#fff" stop-opacity="0" offset="1"/>
  </linearGradient>
  <linearGradient id="linearGradient3961" x1="10" x2="10" y1="1" y2="16" gradientTransform="translate(1,-1)" gradientUnits="userSpaceOnUse">
   <stop id="stop3825" stop-color="#fff" offset="0"/>
   <stop id="stop3829" stop-color="#fff" stop-opacity="0" offset="1"/>
  </linearGradient>
 </defs>
 <g id="layer1" transform="translate(0,2)">
  <g id="g3337" transform="translate(1,-1)">
   <rect id="rect3371" x=".5" y=".5" width="21" height="21.5" rx="2.5" ry="2.5" fill="url(#linearGradient3335)" opacity=".3"/>
   <rect id="rect2553" x="1" y="2" width="20" height="20" rx="2.381" ry="2.3256" opacity=".5"/>
  </g>
  <rect id="rect3173" x="2" width="20" height="20" rx="2" ry="2" fill="url(#linearGradient3181)" fill-rule="evenodd"/>
  <path id="rect3050" d="m4 0c-1.108 0-2 0.892-2 2v16c0 1.108 0.892 2 2 2h16c1.108 0 2-0.892 2-2v-16c0-1.108-0.892-2-2-2h-16zm0 1.0312h16c0.5497 0 0.96875 0.41905 0.96875 0.96875v16c0 0.5497-0.41905 0.96875-0.96875 0.96875h-16c-0.5497 0-0.96875-0.41905-0.96875-0.96875v-16c0-0.5497 0.41905-0.96875 0.96875-0.96875z" fill="url(#linearGradient3961)" fill-rule="evenodd" opacity=".35"/>
  <path id="path3235" d="m4 20c-1.108 0-2-0.892-2-2v-1c0 1.108 0.892 2 2 2h16c1.108 0 2-0.892 2-2v1c0 1.108-0.892 2-2 2h-16z" fill="url(#linearGradient3845)" fill-rule="evenodd" opacity=".2"/>
 </g>
 <g id="layer2" transform="translate(0,2)">
  <rect id="rect2410" transform="translate(1,-1)" x="3" y="3" width="16" height="16" rx="2" ry="2" clip-path="url(#clipPath2849)" fill="#fff" filter="url(#filter3194)" opacity=".15"/>
 </g>
 <g id="main">
  <path id="path39" d="m11.318 9c-0.17979 0.0131-0.31874 0.16058-0.31836 0.33789v1c-3.84e-4 -0.17731 0.13857-0.32479 0.31836-0.33789 0.0098-4.095e-4 0.019537-4.095e-4 0.029297 0 0.05765 0.0012 0.11407 0.016652 0.16406 0.044922l4.4414 2.4551 0.37109-0.20508c0.23423-0.12913 0.23423-0.46071 0-0.58984l-4.8125-2.6602c-0.04999-0.028272-0.10641-0.043722-0.16406-0.044922-0.00976-4.095e-4 -0.019497-4.095e-4 -0.029297 0zm7.6562 3.5c-0.25763 3.6314-3.2776 6.5-6.9746 6.5-3.6818 0-6.6935-2.8449-6.9727-6.4551-0.0099799 0.15176-0.02729 0.30181-0.027344 0.45508 0 3.866 3.134 7 7 7s7-3.134 7-7c0-0.169-0.013614-0.334-0.025391-0.5z" opacity=".3"/>
  <path id="base" transform="translate(4,4)" d="m8 1c-0.67771 0.0029149-1.3514 0.10423-2 0.30078v8.6992c0 0.554-0.446 1-1 1s-1-0.446-1-1v-7.7422c-1.8789 1.3083-2.9992 3.4527-3 5.7422 0 3.866 3.134 7 7 7s7-3.134 7-7-3.134-7-7-7zm-0.68164 4c0.00976-4.095e-4 0.019536-4.095e-4 0.029297 0 0.057653 0.0012 0.11407 0.01665 0.16406 0.044922l4.8125 2.6602c0.23423 0.12913 0.23423 0.46071 0 0.58984l-2.4063 1.332-2.4062 1.3301c-0.22911 0.1262-0.51167-0.036647-0.51172-0.29492v-5.3242c-3.842e-4 -0.17731 0.13857-0.32479 0.31836-0.33789z" fill="#fff"/>
 </g>
</svg>
