<?xml version="1.0" encoding="UTF-8"?>
<!-- Created with Inkscape (http://www.inkscape.org/) -->
<svg id="svg2" width="22" height="22" version="1.1" xmlns="http://www.w3.org/2000/svg" xmlns:cc="http://creativecommons.org/ns#" xmlns:dc="http://purl.org/dc/elements/1.1/" xmlns:rdf="http://www.w3.org/1999/02/22-rdf-syntax-ns#" xmlns:xlink="http://www.w3.org/1999/xlink">
 <defs id="defs4">
  <linearGradient id="linearGradient3335" x1="11.375" x2="11.375" y1="22" y2="-9.8173" gradientUnits="userSpaceOnUse">
   <stop id="stop3330" offset="0"/>
   <stop id="stop3333" stop-opacity="0" offset="1"/>
  </linearGradient>
  <linearGradient id="linearGradient3181" x1="-3.0608" x2="-3.0608" y1="27.258" y2="7.2537" gradientTransform="translate(11.119 -6.2582)" gradientUnits="userSpaceOnUse">
   <stop id="stop3702" stop-color="#da8714" offset="0"/>
   <stop id="stop3704" stop-color="#f4d468" offset="1"/>
  </linearGradient>
  <filter id="filter3194" x="-.18" y="-.18" width="1.36" height="1.36">
   <feGaussianBlur id="feGaussianBlur3196" stdDeviation="1.2"/>
  </filter>
  <clipPath id="clipPath2849">
   <rect id="rect2851" x="1" y="1" width="20" height="20" rx="2" ry="2" fill="#fff" fill-rule="evenodd"/>
  </clipPath>
  <linearGradient id="linearGradient3859" x1="48" x2="48" y1="27" y2="69" gradientTransform="matrix(.27586 0 0 .27381 -2.2414 18.107)" gradientUnits="userSpaceOnUse" xlink:href="#linearGradient3853"/>
  <linearGradient id="linearGradient3853">
   <stop id="stop3855" offset="0"/>
   <stop id="stop3857" stop-color="#313131" offset="1"/>
  </linearGradient>
  <linearGradient id="linearGradient3845" x1="11" x2="21" y1="19.5" y2="19.5" gradientUnits="userSpaceOnUse" spreadMethod="reflect">
   <stop id="stop3833" stop-color="#fff" offset="0"/>
   <stop id="stop3821" stop-color="#fff" stop-opacity=".49804" offset=".75"/>
   <stop id="stop3835" stop-color="#fff" stop-opacity="0" offset="1"/>
  </linearGradient>
  <linearGradient id="linearGradient3892" x1="10" x2="10" y1="1" y2="16" gradientUnits="userSpaceOnUse">
   <stop id="stop3825" stop-color="#fff" offset="0"/>
   <stop id="stop3829" stop-color="#fff" stop-opacity="0" offset="1"/>
  </linearGradient>
  <linearGradient id="linearGradient3846" x1="8" x2="8" y1="8" y2="16" gradientTransform="translate(-30)" gradientUnits="userSpaceOnUse" xlink:href="#linearGradient3853"/>
  <linearGradient id="linearGradient3848" x1="11" x2="11" y1="6" y2="17" gradientTransform="translate(-30)" gradientUnits="userSpaceOnUse" xlink:href="#linearGradient3853"/>
  <linearGradient id="linearGradient3824" x1="56" x2="56" y1="16" y2="64.435" gradientTransform="matrix(.21425 0 0 .2069 .71594 2.6683)" gradientUnits="userSpaceOnUse" xlink:href="#linearGradient3853"/>
  <linearGradient id="linearGradient3936" x1="56" x2="56" y1="16" y2="80" gradientTransform="matrix(.12855 0 0 .12414 .54385 8.001)" gradientUnits="userSpaceOnUse" xlink:href="#linearGradient3853"/>
  <linearGradient id="linearGradient3938" x1="56" x2="56" y1="16" y2="80" gradientTransform="matrix(.12855 0 0 .12414 -.45615 8.001)" gradientUnits="userSpaceOnUse" xlink:href="#linearGradient3853"/>
 </defs>
 <metadata id="metadata7">
  <rdf:RDF>
   <cc:Work rdf:about="">
    <dc:format>image/svg+xml</dc:format>
    <dc:type rdf:resource="http://purl.org/dc/dcmitype/StillImage"/>
    <dc:title/>
   </cc:Work>
  </rdf:RDF>
 </metadata>
 <g id="layer1">
  <g id="g3337">
   <rect id="rect3371" x=".5" y=".5" width="21" height="21.5" rx="2.5" ry="2.5" fill="url(#linearGradient3335)" opacity=".3"/>
   <rect id="rect2553" x="1" y="2" width="20" height="20" rx="2.381" ry="2.3256" opacity=".5"/>
  </g>
  <rect id="rect3173" x="1" y="1" width="20" height="20" rx="2" ry="2" fill="url(#linearGradient3181)" fill-rule="evenodd"/>
  <path id="rect3050" d="m3 1c-1.108 0-2 0.892-2 2v16c0 1.108 0.892 2 2 2h16c1.108 0 2-0.892 2-2v-16c0-1.108-0.892-2-2-2h-16zm0 1.0312h16c0.5497 0 0.96875 0.41905 0.96875 0.96875v16c0 0.5497-0.41905 0.96875-0.96875 0.96875h-16c-0.5497 0-0.96875-0.41905-0.96875-0.96875v-16c0-0.5497 0.41905-0.96875 0.96875-0.96875z" fill="url(#linearGradient3892)" fill-rule="evenodd" opacity=".4"/>
  <path id="path3235" d="m3 21c-1.108 0-2-0.892-2-2v-1c0 1.108 0.892 2 2 2h16c1.108 0 2-0.892 2-2v1c0 1.108-0.892 2-2 2h-16z" fill="url(#linearGradient3845)" fill-rule="evenodd" opacity=".25"/>
 </g>
 <g id="layer2">
  <rect id="rect2410" x="3" y="3" width="16" height="16" rx="2" ry="2" clip-path="url(#clipPath2849)" fill="#fff" filter="url(#filter3194)" opacity=".15"/>
 </g>
 <g id="layer3">
  <path id="path3960" d="m11 5.0625c-1.939 0-3.6562 1.4401-3.6562 3.3438a0.92989 0.92989 0 0 0 0 0.03125c0.0017829 0.075444-0.0044238 0.16776 0 0.25-0.10315 0.21907-0.15171 0.43702-0.15625 0.625-0.0029645 0.12265 0.077105 0.22676 0.09375 0.34375-0.44745-0.33052-0.97747-0.59375-1.5625-0.59375-1.3366 0-2.5625 1.0106-2.5625 2.375a0.92989 0.92989 0 0 0 0 0.03125c-1.378e-4 -0.005835-0.0077437 0.14545 0 0.3125-0.0070306 0.05239-0.09148 0.11032-0.09375 0.15625-0.014823 0.29996 0.038492 0.57816 0.15625 0.84375 0.047285 0.10665 0.10078 0.1665 0.15625 0.25 0.0068899 0.018745 0.031904 0.096616 0.03125 0.09375a0.92989 0.92989 0 0 0 0.03125 0.09375c0.1024 0.29406 0.19663 0.39827 0.3125 0.5625 0.0084786 0.012017 0.02268 0.019274 0.03125 0.03125-0.21732 0.095894-0.34553 0.1624-0.65625 0.28125-0.25894 0.099038-0.54066 0.20277-0.8125 0.375-0.24181 0.15321-0.54976 0.4736-0.625 0.96875h-0.03125l-0.03125 0.125c-2.621e-4 0.011721-5.56e-5 0.019328 0 0.03125l-0.03125 0.25a0.92989 0.92989 0 0 0 0.90625 1.0938h3.1562 3.2812 4.0625 3.3438 3.0938a0.92989 0.92989 0 0 0 0.90625-1.0938l-0.03125-0.25v-0.03125l-0.03125-0.125h-0.03125c-0.04879-0.25223-0.13399-0.49757-0.25-0.625-0.14502-0.15929-0.30706-0.26684-0.4375-0.34375-0.26089-0.15383-0.49327-0.24346-0.75-0.34375-0.29775-0.11631-0.43896-0.18041-0.65625-0.28125 0.008691-0.012975 0.022608-0.018211 0.03125-0.03125 0.11234-0.16951 0.21236-0.30616 0.3125-0.59375a0.92989 0.92989 0 0 0 0.03125-0.09375c0.015779-0.063856 0.020249-0.1052 0.03125-0.15625 0.052145-0.072589 0.077436-0.080228 0.125-0.1875 0.11692-0.26371 0.1757-0.52474 0.15625-0.8125-0.003331-0.049287-0.085622-0.10318-0.09375-0.15625 0.006759-0.069106 0.025039-0.16897 0.03125-0.34375a0.92989 0.92989 0 0 0 0-0.03125c-9e-6 -1.3644-1.2259-2.375-2.5625-2.375-0.56462 0-1.0605 0.28414-1.5 0.59375 0.012066-0.10616 0.06685-0.20394 0.0625-0.3125-0.003998-0.09976-0.13341-0.20407-0.15625-0.3125 0.015055-0.2071 0.024762-0.41128 0.03125-0.59375a0.92989 0.92989 0 0 0 0-0.03125c9e-6 -1.9036-1.7172-3.3438-3.6562-3.3438zm-5.2812 4.9375c0.89722 0 1.625 0.63592 1.625 1.4375-0.003578 0.10074-0.02268 0.22588-0.03125 0.34375 0.12259 0.088077 0.15153 0.35373 0.03125 0.625-0.043413 0.097911-0.097442 0.14995-0.15625 0.21875-0.019031 0.0851-0.038009 0.18214-0.0625 0.28125-0.066639 0.19137-0.3321 0.54969-0.53125 0.84375-0.012835 0.19557-0.025216 0.39519 0 0.59375 0.62274 0.51836 2.2787 0.80636 2.2812 1.25l0.0625 0.40625h-6.4375l0.0625-0.40625c-0.0024166-0.51836 1.6195-0.74929 2.25-1.25 0.043941-0.24527 0.053099-0.44062 0.03125-0.65625-0.21904-0.27952-0.47106-0.60839-0.53125-0.78125-0.019432-0.085133-0.046431-0.14327-0.0625-0.21875-0.067311-0.072486-0.13866-0.1711-0.1875-0.28125-0.12666-0.28566-0.11074-0.58379 0.03125-0.65625-0.00998-0.11426 0.00217-0.22064 0-0.3125 0-0.80158 0.72779-1.4375 1.625-1.4375zm10.5 0c0.89722 0 1.625 0.63592 1.625 1.4375-0.00358 0.10074-0.02265 0.22588-0.03125 0.34375 0.12258 0.088077 0.15153 0.35373 0.03125 0.625-0.043413 0.097911-0.09744 0.14995-0.15625 0.21875-0.01903 0.0851-0.03801 0.18214-0.0625 0.28125-0.066639 0.19137-0.3321 0.54969-0.53125 0.84375-0.01284 0.19557-0.02522 0.39519 0 0.59375 0.62274 0.51836 2.2786 0.80636 2.2812 1.25l0.0625 0.40625h-6.4375l0.0625-0.40625c-0.002417-0.51836 1.6195-0.74929 2.25-1.25 0.04394-0.24527 0.0531-0.44062 0.03125-0.65625-0.21904-0.27952-0.47105-0.60839-0.53125-0.78125-0.01944-0.085133-0.04643-0.14327-0.0625-0.21875-0.067311-0.072486-0.13866-0.1711-0.1875-0.28125-0.12665-0.28566-0.11074-0.58379 0.03125-0.65625-0.01-0.11426 0.0022-0.22064 0-0.3125 0-0.80158 0.72779-1.4375 1.625-1.4375zm-7.9062 2.0625c0.086201 0.12158 0.191 0.22463 0.28125 0.34375 0.0050263 0.082477 0.0013393 0.17008 0 0.25-0.10282 0.058304-0.32097 0.15249-0.46875 0.21875 0.026858-0.045536 0.038717-0.040111 0.0625-0.09375 0.10308-0.23248 0.12664-0.46876 0.125-0.71875zm5.3125 0.15625c0.022491 0.18646 0.015507 0.38603 0.09375 0.5625-0.099193-0.039923-0.24773-0.055696-0.3125-0.09375-8.43e-4 -0.041314-4.94e-4 -0.083571 0-0.125 0.074204-0.1114 0.14344-0.22624 0.21875-0.34375z" enable-background="new" fill="#fff" opacity=".15"/>
  <path id="path3933" d="m5.7188 10c-0.89721 0-1.625 0.63592-1.625 1.4375 0.00217 0.09186-0.00998 0.19824 0 0.3125-0.14199 0.07246-0.1579 0.3706-0.03125 0.65625 0.048838 0.11015 0.12019 0.20876 0.1875 0.28125 0.016069 0.07548 0.043068 0.13362 0.0625 0.21875 0.060195 0.17286 0.31221 0.50173 0.53125 0.78125 0.021849 0.21563 0.012691 0.41098-0.03125 0.65625-0.63047 0.50071-2.2524 0.73164-2.25 1.25l-0.0625 0.40625h6.4375l-0.0625-0.40625c-0.00256-0.44364-1.6585-0.73164-2.2812-1.25-0.025216-0.19856-0.012835-0.39818 0-0.59375 0.19915-0.29406 0.46461-0.65238 0.53125-0.84375 0.024491-0.09911 0.043469-0.19615 0.0625-0.28125 0.058808-0.0688 0.11284-0.12084 0.15625-0.21875 0.12028-0.27127 0.091336-0.53692-0.03125-0.625 0.00857-0.11787 0.027672-0.24301 0.03125-0.34375-8e-7 -0.80158-0.72778-1.4375-1.625-1.4375z" enable-background="new" fill="url(#linearGradient3938)" opacity=".4"/>
  <path id="path3847" d="m16.219 10c-0.89721 0-1.625 0.63592-1.625 1.4375 0.0022 0.09186-0.01 0.19824 0 0.3125-0.14199 0.07246-0.1579 0.3706-0.03125 0.65625 0.04884 0.11015 0.12019 0.20876 0.1875 0.28125 0.01607 0.07548 0.04306 0.13362 0.0625 0.21875 0.0602 0.17286 0.31221 0.50173 0.53125 0.78125 0.02185 0.21563 0.01269 0.41098-0.03125 0.65625-0.63047 0.50071-2.2524 0.73164-2.25 1.25l-0.0625 0.40625h6.4375l-0.0625-0.40625c-0.0026-0.44364-1.6585-0.73164-2.2812-1.25-0.02522-0.19856-0.01284-0.39818 0-0.59375 0.19915-0.29406 0.46461-0.65238 0.53125-0.84375 0.02449-0.09911 0.04347-0.19615 0.0625-0.28125 0.05881-0.0688 0.11284-0.12084 0.15625-0.21875 0.12028-0.27127 0.09133-0.53692-0.03125-0.625 0.0086-0.11787 0.02767-0.24301 0.03125-0.34375-5e-6 -0.80158-0.72778-1.4375-1.625-1.4375z" enable-background="new" fill="url(#linearGradient3936)" opacity=".4"/>
  <path id="path3920" d="m5.7188 10c-0.89721 0-1.625 0.63592-1.625 1.4375 0.00217 0.09186-0.00998 0.19824 0 0.3125-0.14199 0.07246-0.1579 0.3706-0.03125 0.65625 0.048838 0.11015 0.12019 0.20876 0.1875 0.28125 0.016069 0.07548 0.043068 0.13362 0.0625 0.21875 0.060195 0.17286 0.31221 0.50173 0.53125 0.78125 0.021849 0.21563 0.012691 0.41098-0.03125 0.65625-0.63047 0.50071-2.2524 0.73164-2.25 1.25l-0.0625 0.40625h6.4375l-0.0625-0.40625c-0.00256-0.44364-1.6585-0.73164-2.2812-1.25-0.025216-0.19856-0.012835-0.39818 0-0.59375 0.19915-0.29406 0.46461-0.65238 0.53125-0.84375 0.024491-0.09911 0.043469-0.19615 0.0625-0.28125 0.058808-0.0688 0.11284-0.12084 0.15625-0.21875 0.12028-0.27127 0.091336-0.53692-0.03125-0.625 0.00857-0.11787 0.027672-0.24301 0.03125-0.34375-8e-7 -0.80158-0.72778-1.4375-1.625-1.4375zm0 0.5c0.64575 0 1.1075 0.42244 1.125 0.90625 3.456e-4 0.0096 0 0.02163 0 0.03125-0.00412 0.05908-0.021577 0.17946-0.03125 0.3125a0.50518 0.50518 0 0 0 0.09375 0.34375c-0.00215 0.02647-0.00885 0.04323-0.03125 0.09375-0.00735 0.01657 0.013854 0.0044-0.0625 0.09375a0.50518 0.50518 0 0 0-0.125 0.21875c-0.021271 0.095115-0.041851 0.19769-0.0625 0.28125-0.014799 0.02686-0.045876 0.099368-0.125 0.21875-0.092659 0.1398-0.20791 0.31431-0.3125 0.46875a0.50518 0.50518 0 0 0-0.09375 0.25c-0.012916 0.1968-0.03315 0.42647 0 0.6875a0.50518 0.50518 0 0 0 0.1875 0.3125c0.44522 0.37059 1.0194 0.56227 1.5 0.75 0.027249 0.01064 0.03609 0.0207 0.0625 0.03125h-4.3438c0.050922-0.02089 0.069604-0.04131 0.125-0.0625 0.46559-0.17808 1.0492-0.32947 1.5-0.6875a0.50518 0.50518 0 0 0 0.1875-0.3125c0.050002-0.27911 0.057611-0.55234 0.03125-0.8125a0.50518 0.50518 0 0 0-0.09375-0.25c-0.10821-0.13808-0.22435-0.28132-0.3125-0.40625-0.073853-0.10467-0.11416-0.17135-0.125-0.1875-0.0061837-0.027091-0.025545-0.009852-0.03125-0.03125-0.022818-0.085592-0.028791-0.1447-0.03125-0.15625a0.50518 0.50518 0 0 0-0.125-0.25c-0.032983-0.03552-0.073523-0.11063-0.09375-0.15625-0.027937-0.06301-0.059979-0.09198-0.0625-0.125a0.50518 0.50518 0 0 0 0.125-0.34375c-0.00452-0.05179 0.00344-0.13568 0-0.28125 0-0.49583 0.46647-0.9375 1.125-0.9375z" enable-background="new" opacity=".2"/>
  <path id="path3918" d="m16.219 10c-0.89721 0-1.625 0.63592-1.625 1.4375 0.0022 0.09186-0.01 0.19824 0 0.3125-0.14199 0.07246-0.1579 0.3706-0.03125 0.65625 0.04884 0.11015 0.12019 0.20876 0.1875 0.28125 0.01607 0.07548 0.04306 0.13362 0.0625 0.21875 0.0602 0.17286 0.31221 0.50173 0.53125 0.78125 0.02185 0.21563 0.01269 0.41098-0.03125 0.65625-0.63047 0.50071-2.2524 0.73164-2.25 1.25l-0.0625 0.40625h6.4375l-0.0625-0.40625c-0.0026-0.44364-1.6585-0.73164-2.2812-1.25-0.02522-0.19856-0.01284-0.39818 0-0.59375 0.19915-0.29406 0.46461-0.65238 0.53125-0.84375 0.02449-0.09911 0.04347-0.19615 0.0625-0.28125 0.05881-0.0688 0.11284-0.12084 0.15625-0.21875 0.12028-0.27127 0.09133-0.53692-0.03125-0.625 0.0086-0.11787 0.02767-0.24301 0.03125-0.34375-5e-6 -0.80158-0.72778-1.4375-1.625-1.4375zm0 0.5c0.64575 0 1.1075 0.42243 1.125 0.90625 3.46e-4 0.0096 0 0.02163 0 0.03125-0.0041 0.05916-0.02155 0.17963-0.03125 0.3125a0.50518 0.50518 0 0 0 0.09375 0.34375c-0.0021 0.02647-0.0089 0.04324-0.03125 0.09375-0.0074 0.01658 0.01385 0.0044-0.0625 0.09375a0.50518 0.50518 0 0 0-0.125 0.21875c-0.02127 0.0951-0.04185 0.19768-0.0625 0.28125-0.0148 0.02686-0.04588 0.09937-0.125 0.21875-0.09266 0.1398-0.20791 0.31431-0.3125 0.46875a0.50518 0.50518 0 0 0-0.09375 0.25c-0.01292 0.19681-0.03316 0.42646 0 0.6875a0.50518 0.50518 0 0 0 0.1875 0.3125c0.44522 0.37059 1.0194 0.56227 1.5 0.75 0.02725 0.01064 0.03609 0.0207 0.0625 0.03125h-4.3438c0.05092-0.02089 0.0696-0.04131 0.125-0.0625 0.46559-0.17808 1.0492-0.32947 1.5-0.6875a0.50518 0.50518 0 0 0 0.1875-0.3125c0.05-0.2791 0.05761-0.55234 0.03125-0.8125a0.50518 0.50518 0 0 0-0.09375-0.25c-0.10821-0.13808-0.22435-0.28132-0.3125-0.40625-0.07385-0.10467-0.11416-0.17134-0.125-0.1875-0.0062-0.02708-0.02555-0.0099-0.03125-0.03125-0.02281-0.08556-0.02878-0.14466-0.03125-0.15625a0.50518 0.50518 0 0 0-0.125-0.25c-0.03298-0.03552-0.07352-0.11062-0.09375-0.15625-0.02794-0.06301-0.05998-0.09198-0.0625-0.125a0.50518 0.50518 0 0 0 0.125-0.34375c-0.0045-0.05159 0.0035-0.13537 0-0.28125 0-0.49583 0.46647-0.9375 1.125-0.9375z" enable-background="new" opacity=".2"/>
  <path id="path3813" d="m11 25.5c-1.1795 0-2.1379 0.88303-2.1379 1.9766 0.00282 0.12532 0.00416 0.27195 0.017243 0.42783-0.18667 0.09885-0.20961 0.48308-0.043107 0.87277 0.06421 0.15027 0.15289 0.2776 0.24138 0.37649 3e-3 0.0033 0.0057 0.0053 0.0086 0.0086 0.02113 0.10296 0.0348 0.18334 0.06034 0.29948 0.07914 0.23582 0.41032 0.67969 0.69828 1.061 0.02872 0.29416 0.03192 0.58095-0.02586 0.91555-0.4666 0.38453-1.3328 0.65659-2.0086 0.94122-0.24308-0.11094-0.46346-0.23212-0.62069-0.36793-0.02486-0.20316-0.021283-0.40742-0.00862-0.60752 0.19636-0.30087 0.45153-0.68552 0.51724-0.88133 0.024154-0.1014 0.032972-0.16962 0.051729-0.2567 0.057981-0.0704 0.11237-0.15652 0.15517-0.2567 0.11859-0.27756 0.10363-0.54307-0.017235-0.63318 0.00844-0.1206 0.022334-0.23063 0.025864-0.33371 0-0.82015-0.71881-1.4888-1.6034-1.4888-0.88464 0-1.6034 0.66869-1.6034 1.4888 0.0022 0.09399 0.00737 0.19968 0.017235 0.31659-0.14 0.07414-0.15936 0.35802-0.034478 0.6503 0.048152 0.1127 0.11467 0.2082 0.18103 0.28237 0.0022 0.0025 0.00635 0.0061 0.00863 0.0085 0.015839 0.07722 0.023942 0.13537 0.043107 0.22247 0.059354 0.17686 0.30127 0.50976 0.51724 0.79576 0.021534 0.22062 0.026092 0.44213-0.017243 0.69308-0.62164 0.5123-2.2093 0.73601-2.2069 1.2664l-0.2155 1.3862c0 0.28252 0.4271 0.5354 1.1034 0.71019l0.094828 0.37649a0.2326 0.23105 0 0 0 0.14655 0.15402c0.030022 0.01154 0.047038 0.03617 0.12931 0.0599 0.4334 0.12498 1.0942 0.21391 1.8362 0.21391 0.69921 0 1.3254-0.0833 1.7586-0.1968l0.11207 0.4535a0.31013 0.30806 0 0 0 0.18965 0.20536c0.040032 0.01539 0.071333 0.04537 0.18104 0.07701 0.57787 0.16664 1.4589 0.28236 2.4483 0.28236 0.98938 0 1.879-0.11572 2.4569-0.28236 0.1097-0.03164 0.14101-0.06164 0.18103-0.07701a0.31013 0.30806 0 0 0 0.18103-0.19677l0.12931-0.4535c0.43214 0.11188 1.0483 0.18824 1.7414 0.18824 0.74204 0 1.4114-0.08893 1.8448-0.21391 0.08227-0.02373 0.09929-0.04836 0.12931-0.0599a0.2326 0.23105 0 0 0 0.13793-0.14546l0.12069-0.3936c0.65982-0.17451 1.0776-0.42309 1.0776-0.70163l-0.21552-1.3862c-0.0026-0.45392-1.6015-0.73601-2.2155-1.2664-0.02486-0.20316-0.02128-0.40742-0.0086-0.60752 0.19636-0.30087 0.45154-0.68552 0.51724-0.88132 0.02415-0.1014 0.03297-0.16962 0.05173-0.2567 0.05798-0.0704 0.11237-0.15652 0.15517-0.2567 0.11859-0.27756 0.10363-0.54307-0.01723-0.63318 0.0084-0.1206 0.02233-0.23063 0.02586-0.33371 0-0.82015-0.71881-1.4888-1.6034-1.4888-0.88464 0-1.6034 0.66869-1.6034 1.4888 0.0022 0.09399 0.0074 0.19968 0.01723 0.31659-0.14 0.07414-0.15936 0.35802-0.03449 0.6503 0.04815 0.1127 0.11467 0.2082 0.18104 0.28237 0.0022 0.0025 0.0063 0.0061 0.0086 0.0085 0.01585 0.07722 0.02395 0.13537 0.04311 0.22247 0.05935 0.17686 0.30127 0.50976 0.51724 0.79576 0.02153 0.22062 0.02609 0.44213-0.01724 0.69308-0.17748 0.14626-0.43117 0.26267-0.7069 0.37649-0.66508-0.27855-1.4816-0.56906-1.9224-0.94978-0.03315-0.27088-0.03412-0.53752-0.01723-0.80432 0.26181-0.40116 0.61067-0.91118 0.69828-1.1722 0.0322-0.1352 0.04395-0.22617 0.06896-0.34226 0.07731-0.09387 0.14983-0.20869 0.2069-0.34226 0.15812-0.37007 0.14392-0.72694-0.01723-0.8471 0.01126-0.1608 0.02116-0.31607 0.02586-0.4535 0-1.0935-0.95841-1.9765-2.1379-1.9765z" fill="url(#linearGradient3859)"/>
  <path id="path2864" d="m13.125 28.406c-0.05707 0.13938-0.11019 0.27705-0.1875 0.375-0.02501 0.12114-0.06155 0.20267-0.09375 0.34375-0.08761 0.27242-0.42569 0.80015-0.6875 1.2188-0.01689 0.2784-0.0019 0.56109 0.03125 0.84375 0.01028 0.0093 0.02056 0.02208 0.03125 0.03125 0.24991-0.39674 0.54529-0.84589 0.625-1.0938 0.0322-0.14108 0.06874-0.22261 0.09375-0.34375 0.07731-0.09795 0.13043-0.23562 0.1875-0.375 0.15812-0.38616 0.16115-0.74962 0-0.875 3e-3 -0.04474-0.0027-0.08132 0-0.125zm-4.25 0.09375c-0.18667 0.10315-0.19775 0.49961-0.03125 0.90625 0.06421 0.1568 0.13026 0.30306 0.21875 0.40625 3e-3 0.0035 0.02835-0.0034 0.03125 0 0.02113 0.10744 0.03696 0.19131 0.0625 0.3125 0.075555 0.23493 0.37817 0.67753 0.65625 1.0625 0.05778-0.34915 0.05997-0.63055 0.03125-0.9375-0.28796-0.3979-0.60836-0.87892-0.6875-1.125-0.02554-0.12119-0.04137-0.20506-0.0625-0.3125-0.0029-0.0034-0.02825 0.0035-0.03125 0-0.069817-0.081415-0.12956-0.19696-0.1875-0.3125zm-0.96875 1.2188c-0.042804 0.10453-0.098269 0.17654-0.15625 0.25-0.018757 0.09086-0.038346 0.17544-0.0625 0.28125-0.065707 0.20432-0.30364 0.5923-0.5 0.90625-0.012663 0.2088-0.02486 0.41301 0 0.625 0.044144 0.03979 0.10304 0.08752 0.15625 0.125 0.15769-0.25491 0.29447-0.50301 0.34375-0.65625 0.024154-0.10581 0.043743-0.19039 0.0625-0.28125 0.057981-0.07346 0.11345-0.14547 0.15625-0.25 0.11859-0.28962 0.089612-0.59347-0.03125-0.6875 0.00768-0.1145 0.026455-0.21342 0.03125-0.3125zm9.375 0c-0.0428 0.10453-0.09827 0.17654-0.15625 0.25-0.01876 0.09086-0.03835 0.17544-0.0625 0.28125-0.06571 0.20431-0.30364 0.5923-0.5 0.90625-0.01268 0.2088-0.02486 0.41301 0 0.625 0.0431 0.03885 0.10434 0.08855 0.15625 0.125 0.15769-0.25491 0.29447-0.50301 0.34375-0.65625 0.02415-0.10581 0.04374-0.19039 0.0625-0.28125 0.05798-0.07346 0.11345-0.14547 0.15625-0.25 0.11859-0.28962 0.12086-0.59347 0-0.6875 0.0076-0.1144-0.0048-0.21349 0-0.3125zm-12.562 0.03125c0.00273 0.08386-0.00807 0.18144 0 0.28125-0.14 0.07736-0.15613 0.38252-0.03125 0.6875 0.048152 0.1176 0.12113 0.20386 0.1875 0.28125 0.015839 0.08058 0.043335 0.15911 0.0625 0.25 0.046922 0.1459 0.20291 0.38022 0.375 0.625 0.041803-0.02896 0.089136-0.06291 0.125-0.09375 0.043335-0.26186 0.021534-0.48854 0-0.71875-0.21597-0.29843-0.44065-0.62795-0.5-0.8125-0.019165-0.090892-0.046661-0.16942-0.0625-0.25-0.057858-0.067469-0.11043-0.15155-0.15625-0.25zm9.375 0c0.0027 0.08386-8e-3 0.18144 0 0.28125-0.14 0.07736-0.15612 0.38252-0.03125 0.6875 0.04815 0.1176 0.12113 0.20386 0.1875 0.28125 0.01585 0.08058 0.04334 0.15911 0.0625 0.25 0.04692 0.1459 0.2029 0.38022 0.375 0.625 0.04225-0.02887 0.08867-0.06251 0.125-0.09375 0.04333-0.26187 0.02153-0.48854 0-0.71875-0.21597-0.29843-0.44065-0.62794-0.5-0.8125-0.01916-0.090891-0.04665-0.16942-0.0625-0.25-0.057859-0.06747-0.11043-0.15155-0.15625-0.25zm-10.969 5.0625-0.125 0.75c0 0.2948 0.41741 0.56761 1.0938 0.75l0.09375 0.375a0.2326 0.24109 0 0 0 0.03125 0.0625 0.2326 0.24109 0 0 0 0.125 0.09375c0.030022 0.01204 0.042727 0.03774 0.125 0.0625 0.4334 0.13042 1.1017 0.25 1.8438 0.25 0.69921 0 1.3167-0.10031 1.75-0.21875l0.125 0.46875a0.31013 0.32146 0 0 0 0.1875 0.21875c0.040032 0.01606 0.077798 0.06073 0.1875 0.09375 0.57787 0.17389 1.4481 0.28125 2.4375 0.28125 0.98938 0 1.8909-0.10736 2.4688-0.28125 0.1097-0.03301 0.11622-0.07771 0.15625-0.09375a0.31013 0.32146 0 0 0 0.1875-0.21875l0.125-0.46875c0.43214 0.11674 1.0569 0.21875 1.75 0.21875 0.74204 0 1.4103-0.11959 1.8438-0.25 0.08227-0.02476 0.09498-0.05046 0.125-0.0625a0.2326 0.24109 0 0 0 0.15625-0.125l0.125-0.4375c0.65982-0.1821 1.0625-0.4281 1.0625-0.71875l-0.125-0.75c-0.16676 0.18451-0.48145 0.34289-0.9375 0.46875l-0.125 0.4375a0.2326 0.24109 0 0 1-0.15625 0.125c-0.03002 0.01204-0.04273 0.03774-0.125 0.0625-0.4334 0.13041-1.1017 0.25-1.8438 0.25-0.69307 0-1.3179-0.10201-1.75-0.21875l-0.125 0.46875a0.31013 0.32146 0 0 1-0.1875 0.21875c-0.04003 0.01604-0.04655 0.06074-0.15625 0.09375-0.57787 0.17389-1.4794 0.28125-2.4688 0.28125-0.98938 0-1.8596-0.10736-2.4375-0.28125-0.1097-0.03302-0.14747-0.07769-0.1875-0.09375a0.31013 0.32146 0 0 1-0.1875-0.21875l-0.125-0.46875c-0.43326 0.11844-1.0508 0.21875-1.75 0.21875-0.74204 0-1.4103-0.11958-1.8438-0.25-0.082273-0.02476-0.094978-0.05046-0.125-0.0625a0.2326 0.24109 0 0 1-0.125-0.09375 0.2326 0.24109 0 0 1-0.03125-0.0625l-0.09375-0.375c-0.47006-0.12676-0.79918-0.31149-0.96875-0.5z" fill="#fff" opacity=".3"/>
  <path id="path2866" d="m11 25.5c-1.1795 0-2.125 0.88303-2.125 1.9766 0.00282 0.12532-0.013083 0.2634 0 0.41927-0.18667 0.09885-0.19775 0.4788-0.03125 0.86849 0.06421 0.15027 0.13026 0.29043 0.21875 0.38932 3e-3 0.0033 0.02835-0.0033 0.03125 0 0.02113 0.10296 0.03696 0.18334 0.0625 0.29948 0.07914 0.23582 0.39954 0.6968 0.6875 1.0781 0.02872 0.29416 0.02653 0.56383-0.03125 0.89844-0.4666 0.38453-1.3242 0.6737-2 0.95833-0.24308-0.11094-0.46777-0.25352-0.625-0.38932-0.02486-0.20316-0.012663-0.39886 0-0.59896 0.19636-0.30087 0.43429-0.67269 0.5-0.86849 0.024154-0.1014 0.043743-0.18246 0.0625-0.26953 0.057981-0.0704 0.11345-0.13941 0.15625-0.23958 0.11859-0.27756 0.089612-0.56874-0.03125-0.65885 0.00844-0.1206 0.02772-0.22635 0.03125-0.32943 0-0.82015-0.70911-1.4674-1.5938-1.4674-0.88464 0-1.5938 0.6473-1.5938 1.4674 0.0022 0.09399-0.00986 0.21252 0 0.32943-0.14 0.07414-0.15613 0.36658-0.03125 0.65885 0.048152 0.1127 0.12113 0.19536 0.1875 0.26953 0.015839 0.07722 0.043335 0.15248 0.0625 0.23958 0.059354 0.17686 0.28403 0.49265 0.5 0.77865 0.021534 0.22062 0.043335 0.43785 0 0.6888-0.62164 0.5123-2.2211 0.7574-2.2188 1.2878l-0.21875 1.3776c0 0.28252 0.41741 0.54396 1.0938 0.71875l0.09375 0.35938a0.2326 0.23105 0 0 0 0.03125 0.05989 0.2326 0.23105 0 0 0 0.125 0.08984c0.030022 0.01154 0.042727 0.03617 0.125 0.0599 0.4334 0.12498 1.1017 0.23958 1.8438 0.23958 0.69921 0 1.3167-0.09613 1.75-0.20964l0.125 0.44922a0.31013 0.30806 0 0 0 0.1875 0.20964c0.040032 0.01539 0.077798 0.0582 0.1875 0.08984 0.57787 0.16665 1.4481 0.26954 2.4375 0.26954 0.98938 0 1.8909-0.10288 2.4688-0.26953 0.1097-0.03163 0.11622-0.07447 0.15625-0.08984a0.31013 0.30806 0 0 0 0.1875-0.20964l0.125-0.44922c0.43214 0.11188 1.0569 0.20964 1.75 0.20964 0.74204 0 1.4103-0.1146 1.8438-0.23958 0.08227-0.02373 0.09498-0.04836 0.125-0.0599a0.2326 0.23105 0 0 0 0.15625-0.11979l0.125-0.41927c0.65982-0.17451 1.0625-0.41026 1.0625-0.6888l-0.21875-1.3776c-0.0026-0.45392-1.6047-0.7574-2.2188-1.2878-0.02486-0.20316-0.01268-0.39886 0-0.59896 0.19636-0.30087 0.43429-0.67269 0.5-0.86849 0.02415-0.1014 0.04374-0.18246 0.0625-0.26953 0.05798-0.0704 0.11345-0.1394 0.15625-0.23958 0.11859-0.27756 0.12086-0.56874 0-0.65885 0.0084-0.1206-0.0035-0.22635 0-0.32943 0-0.82015-0.70911-1.4674-1.5938-1.4674-0.88464 0-1.5938 0.6473-1.5938 1.4674 0.0022 0.09399-0.0098 0.21252 0 0.32943-0.14 0.07414-0.15612 0.36658-0.03125 0.65885 0.04815 0.1127 0.12113 0.19536 0.1875 0.26953 0.01585 0.07722 0.04334 0.15248 0.0625 0.23958 0.05935 0.17686 0.28403 0.49265 0.5 0.77865 0.02153 0.22062 0.04333 0.43785 0 0.6888-0.17748 0.14626-0.44302 0.2755-0.71875 0.38932-0.66508-0.27855-1.4655-0.57761-1.9062-0.95833-0.03315-0.27088-0.04814-0.54179-0.03125-0.80859 0.26181-0.40116 0.59989-0.9069 0.6875-1.168 0.0322-0.1352 0.06874-0.21333 0.09375-0.32943 0.07731-0.09387 0.13043-0.2258 0.1875-0.35938 0.15812-0.37007 0.16115-0.71839 0-0.83854 0.01126-0.1608-0.0047-0.31179 0-0.44922 0-1.0935-0.94548-1.9766-2.125-1.9766zm0 0.7487c0.75736 0 1.3274 0.53585 1.3438 1.1979-5.17e-4 0.01511 3.12e-4 0.01566 0 0.02995-0.0041 0.1858 0.0053 0.31352 0 0.38932a0.78895 0.75608 0 0 0 0.09375 0.44922c-0.0071 0.04277 0.0015 0.07321-0.03125 0.14974-0.06105 0.14289-0.13028 0.22405-0.09375 0.17969a0.78895 0.75608 0 0 0-0.15625 0.32943c-0.0066 0.03083-0.03012 0.12152-0.0625 0.23958-0.0087 0.03157-0.02147 0.01884-0.03125 0.0599-0.03355 0.0559-0.31208 0.57463-0.5625 0.95833a0.78895 0.75608 0 0 0-0.125 0.32943c-0.02055 0.32467-0.0058 0.65572 0.03125 0.95833a0.78895 0.75608 0 0 0 0.25 0.47917c0.64096 0.55363 1.4829 0.80919 2.125 1.0781a0.78895 0.75608 0 0 0 0.625 0c0.30598-0.12631 0.60801-0.26333 0.90625-0.50912a0.78895 0.75608 0 0 0 0.28125-0.44922c0.06226-0.36057 0.0214-0.64917 0-0.86849a0.78895 0.75608 0 0 0-0.15625-0.38933c-0.19885-0.26332-0.39042-0.60274-0.375-0.53906 6.03e-4 0.0025-0.0013-0.03382 0-0.02995-0.01558-0.05767-0.03048-0.14599-0.03125-0.14974a0.78895 0.75608 0 0 0-0.1875-0.32942c-0.04912-0.05489-0.06314-0.0618-0.0625-0.0599a0.78895 0.75608 0 0 0 0-0.02995 0.78895 0.75608 0 0 0 0.09375-0.41927c-2e-3 -0.02422 0.0015-0.13098 0-0.26953-1.7e-4 -0.0154 3.98e-4 -0.01295 0-0.02995 0.01568-0.38769 0.34156-0.6888 0.8125-0.6888 0.47094 0 0.79682 0.30111 0.8125 0.6888-6.02e-4 0.01758 3.04e-4 0.01415 0 0.02995-0.0027 0.14222 0.0027 0.23008 0 0.26953a0.78895 0.75608 0 0 0 0.0625 0.35938 0.78895 0.75608 0 0 0 0 0.02995c-0.0044 0.01591 7e-3 0.01358 0 0.02995-3.82e-4 8.95e-4 -0.0082-6e-3 -0.0625 0.0599a0.78895 0.75608 0 0 0-0.15625 0.32943c-0.01204 0.05588-0.01548 0.11334-0.03125 0.17969-0.0057 0.02388-0.02478 0.03272-0.03125 0.0599-0.02257 0.02879-0.19749 0.38686-0.375 0.65885a0.78895 0.75608 0 0 0-0.125 0.32943c-0.01271 0.20063-0.03516 0.46139 0 0.7487a0.78895 0.75608 0 0 0 0.25 0.47917c0.50488 0.4361 1.1046 0.61791 1.5625 0.80859 0.19966 0.08315 0.34472 0.12794 0.4375 0.17969l0.125 0.89844c-0.09756 0.04772-0.21541 0.12095-0.4375 0.17969a0.78895 0.75608 0 0 0-0.53125 0.50911l-0.03125 0.11979c-0.35766 0.0906-0.87522 0.17969-1.4688 0.17969-0.61566 0-1.1722-0.08674-1.5312-0.17969a0.78895 0.75608 0 0 0-0.96875 0.50911l-0.0625 0.23958c-0.46446 0.11944-1.2438 0.23958-2.125 0.23958-0.89342 0-1.6605-0.11612-2.125-0.23958l-0.0625-0.23959a0.78895 0.75608 0 0 0-0.96875-0.50911c-0.35863 0.09395-0.9075 0.17969-1.5312 0.17969-0.59354 0-1.1111-0.08908-1.4688-0.17969v-0.0599a0.78895 0.75608 0 0 0-0.53125-0.53906c-0.23702-0.061254-0.37116-0.15782-0.46875-0.20964l0.125-0.92838c0.07747-0.04651 0.23195-0.09717 0.4375-0.17969 0.44699-0.17945 1.014-0.35235 1.5312-0.77865a0.78895 0.75608 0 0 0 0.28125-0.44922c0.062265-0.36058 0.021408-0.64916 0-0.86849a0.78895 0.75608 0 0 0-0.15625-0.38932c-0.19884-0.26331-0.39042-0.60272-0.375-0.53906 6.027e-4 0.0025-0.0013-0.03382 0-0.02995-0.01558-0.05765-0.030495-0.14606-0.03125-0.14974a0.78895 0.75608 0 0 0-0.1875-0.32942c-0.049112-0.05488-0.063132-0.06179-0.0625-0.0599a0.78895 0.75608 0 0 0 0-0.02995 0.78895 0.75608 0 0 0 0.09375-0.41926c-0.00202-0.02397 0.00153-0.13087 0-0.26953 0-0.01012-4.045e-4 -0.01995 0-0.02995 0.015679-0.38769 0.34156-0.6888 0.8125-0.6888 0.47094 0 0.79682 0.30111 0.8125 0.6888 4.045e-4 0.01 0 0.01983 0 0.02995-0.00361 0.04032-0.020666 0.1183-0.03125 0.26953a0.78895 0.75608 0 0 0 0.09375 0.41927c-3.833e-4 8.97e-4 -0.00825-6e-3 -0.0625 0.0599a0.78895 0.75608 0 0 0-0.15625 0.32943c-0.012036 0.05588-0.015481 0.11336-0.03125 0.17969-0.00568 0.02388-0.024779 0.03273-0.03125 0.0599-0.02257 0.02879-0.19749 0.38686-0.375 0.65885a0.78895 0.75608 0 0 0-0.125 0.32943c-0.012691 0.20055-0.035162 0.46135 0 0.7487a0.78895 0.75608 0 0 0 0.25 0.47917c0.2309 0.19945 0.50291 0.36782 0.8125 0.50912a0.78895 0.75608 0 0 0 0.65625 0c0.63088-0.26572 1.5068-0.51716 2.1875-1.0781a0.78895 0.75608 0 0 0 0.28125-0.44922c0.0684-0.39612 0.06448-0.73774 0.03125-1.0781a0.78895 0.75608 0 0 0-0.15625-0.38933c-0.13693-0.18133-0.26319-0.36833-0.375-0.53906-0.08403-0.12832-0.13256-0.19553-0.15625-0.23958-0.00461-0.02095 0.00404-0.04102 0-0.0599-9.998e-4 -0.0014-0.032285-0.03303-0.03125-0.02995-0.013704-0.0651-0.016202-0.13631-0.03125-0.20964a0.78895 0.75608 0 0 0-0.1875-0.32942c-9.1e-6 -1e-5 -0.028196 0.0026-0.03125 0 0.00733 0.0082-0.026779-0.05124-0.03125-0.0599-0.010784-0.02087-0.021849-0.0546-0.0625-0.14974-0.026523-0.06208-0.022993-0.07553-0.03125-0.11979a0.78895 0.75608 0 0 0 0.125-0.50912c-0.00554-0.06601 0.00187-0.18908 0-0.35938-1.554e-4 -0.01419 3.437e-4 -0.01468 0-0.02995 0.016382-0.66208 0.58638-1.1979 1.3438-1.1979zm-6.4375 8.9245c-0.02817-0.0083 0.089742 0.01058 0.0625 0-0.013621-0.0053-0.017695 0.0222 0 0.02995a0.78895 0.75608 0 0 0-0.0625-0.02995zm8.6562 0.80859c-0.01776 0.01228 0.04978-0.01126 0.03125 0-0.0067 0.0041 0.0061 0.02604 0 0.02995-0.0061 0.0018-0.02496-0.0018-0.03125 0-0.01692 0.01324 0.01776-0.04223 0-0.02995z"/>
  <path id="path3132" d="m-23.688 7.4688c-0.88464 0-1.5938 0.6737-1.5938 1.5 0.0022 0.09469-0.0099 0.22596 0 0.34375-0.14 0.07469-0.15613 0.36179-0.03125 0.65625 0.04816 0.11354 0.12113 0.20653 0.1875 0.28125 0.01584 0.0778 0.04334 0.13099 0.0625 0.21875 0.05935 0.17819 0.28403 0.52436 0.5 0.8125 0.02154 0.22228 0.04334 0.43466 0 0.6875-0.62164 0.51614-2.2211 0.74691-2.2188 1.2812l-0.21875 1.4062c0 0.28464 0.41741 0.54265 1.0938 0.71875l0.09375 0.375a0.2326 0.23278 0 0 0 0.15625 0.15625c0.03002 0.01161 0.04273 0.0386 0.125 0.0625 0.4334 0.12592 1.1017 0.21875 1.8438 0.21875 0.74204 0 1.4103-0.09283 1.8438-0.21875 0.08228-0.02392 0.09498-0.05088 0.125-0.0625a0.2326 0.23278 0 0 0 0.03125-0.03125 0.2326 0.23278 0 0 0 0.0625-0.03125 0.2326 0.23278 0 0 0 0.03125-0.0625 0.2326 0.23278 0 0 0 0.03125-0.03125l0.09375-0.40625c0.65982-0.17582 1.0938-0.40687 1.0938-0.6875l-0.21875-1.4062c-0.0025-0.45732-1.6047-0.74691-2.2188-1.2812-0.02486-0.20468-0.01266-0.39215 0-0.59375 0.19636-0.30313 0.4343-0.70898 0.5-0.90625 0.02414-0.10216 0.04375-0.16228 0.0625-0.25 0.05799-0.07093 0.11345-0.14907 0.15625-0.25 0.11859-0.27964 0.12087-0.56546 0-0.65625 0.0084-0.1215-0.0035-0.2399 0-0.34375 0-0.8263-0.70911-1.5-1.5938-1.5zm9.375 0c-0.88464 0-1.5938 0.6737-1.5938 1.5 0.0022 0.09469-0.0099 0.22596 0 0.34375-0.14 0.07469-0.15613 0.36179-0.03125 0.65625 0.04815 0.11354 0.12113 0.20653 0.1875 0.28125 0.01583 0.0778 0.04334 0.13099 0.0625 0.21875 0.05935 0.17819 0.28403 0.52436 0.5 0.8125 0.02154 0.22228 0.04334 0.43466 0 0.6875-0.62164 0.51614-2.2211 0.74691-2.2188 1.2812l-0.21875 1.4062c0 0.28464 0.4174 0.54265 1.0938 0.71875l0.09375 0.375a0.2326 0.23278 0 0 0 0.03125 0.03125 0.2326 0.23278 0 0 0 0.125 0.125c0.03002 0.01161 0.04273 0.0386 0.125 0.0625 0.4334 0.12592 1.1017 0.21875 1.8438 0.21875s1.4103-0.09283 1.8438-0.21875c0.08228-0.02392 0.09498-0.05088 0.125-0.0625a0.2326 0.23278 0 0 0 0.0625-0.03125 0.2326 0.23278 0 0 0 0.03125-0.03125 0.2326 0.23278 0 0 0 0.03125-0.0625 0.2326 0.23278 0 0 0 0.03125-0.03125l0.09375-0.40625c0.65982-0.17582 1.0938-0.40687 1.0938-0.6875l-0.21875-1.4062c-0.0025-0.45732-1.6047-0.74691-2.2188-1.2812-0.02485-0.20468-0.01266-0.39215 0-0.59375 0.19636-0.30313 0.43429-0.70898 0.5-0.90625 0.02414-0.10216 0.04375-0.16228 0.0625-0.25 0.05799-0.07093 0.11344-0.14907 0.15625-0.25 0.11859-0.27964 0.12087-0.56546 0-0.65625 0.0084-0.1215-0.0035-0.2399 0-0.34375 0-0.8263-0.70911-1.5-1.5938-1.5z" fill="url(#linearGradient3846)" opacity=".6"/>
  <path id="path3886" d="m-23.688 7.4688c-0.88464 0-1.5938 0.6737-1.5938 1.5 0.0022 0.09469-0.0099 0.22596 0 0.34375-0.14 0.07469-0.15613 0.36179-0.03125 0.65625 0.04816 0.11354 0.12113 0.20653 0.1875 0.28125 0.01584 0.0778 0.04334 0.13099 0.0625 0.21875 0.05935 0.17819 0.28403 0.52436 0.5 0.8125 0.02154 0.22228 0.04334 0.43466 0 0.6875-0.62164 0.51614-2.2211 0.74691-2.2188 1.2812l-0.21875 1.4062c0 0.28464 0.41741 0.54265 1.0938 0.71875l0.09375 0.375a0.2326 0.23278 0 0 0 0.15625 0.15625c0.03002 0.01161 0.04273 0.0386 0.125 0.0625 0.4334 0.12592 1.1017 0.21875 1.8438 0.21875 0.74204 0 1.4103-0.09283 1.8438-0.21875 0.08228-0.02392 0.09498-0.05088 0.125-0.0625a0.2326 0.23278 0 0 0 0.03125-0.03125 0.2326 0.23278 0 0 0 0.0625-0.03125 0.2326 0.23278 0 0 0 0.03125-0.0625 0.2326 0.23278 0 0 0 0.03125-0.03125l0.09375-0.40625c0.65982-0.17582 1.0938-0.40687 1.0938-0.6875l-0.21875-1.4062c-0.0025-0.45732-1.6047-0.74691-2.2188-1.2812-0.02486-0.20468-0.01266-0.39215 0-0.59375 0.19636-0.30313 0.4343-0.70898 0.5-0.90625 0.02414-0.10216 0.04375-0.16228 0.0625-0.25 0.05799-0.07093 0.11345-0.14907 0.15625-0.25 0.11859-0.27964 0.12087-0.56546 0-0.65625 0.0084-0.1215-0.0035-0.2399 0-0.34375 0-0.8263-0.70911-1.5-1.5938-1.5zm9.375 0c-0.88464 0-1.5938 0.6737-1.5938 1.5 0.0022 0.09469-0.0099 0.22596 0 0.34375-0.14 0.07469-0.15613 0.36179-0.03125 0.65625 0.04815 0.11354 0.12113 0.20653 0.1875 0.28125 0.01583 0.0778 0.04334 0.13099 0.0625 0.21875 0.05935 0.17819 0.28403 0.52436 0.5 0.8125 0.02154 0.22228 0.04334 0.43466 0 0.6875-0.62164 0.51614-2.2211 0.74691-2.2188 1.2812l-0.21875 1.4062c0 0.28464 0.4174 0.54265 1.0938 0.71875l0.09375 0.375a0.2326 0.23278 0 0 0 0.03125 0.03125 0.2326 0.23278 0 0 0 0.125 0.125c0.03002 0.01161 0.04273 0.0386 0.125 0.0625 0.4334 0.12592 1.1017 0.21875 1.8438 0.21875s1.4103-0.09283 1.8438-0.21875c0.08228-0.02392 0.09498-0.05088 0.125-0.0625a0.2326 0.23278 0 0 0 0.0625-0.03125 0.2326 0.23278 0 0 0 0.03125-0.03125 0.2326 0.23278 0 0 0 0.03125-0.0625 0.2326 0.23278 0 0 0 0.03125-0.03125l0.09375-0.40625c0.65982-0.17582 1.0938-0.40687 1.0938-0.6875l-0.21875-1.4062c-0.0025-0.45732-1.6047-0.74691-2.2188-1.2812-0.02485-0.20468-0.01266-0.39215 0-0.59375 0.19636-0.30313 0.43429-0.70898 0.5-0.90625 0.02414-0.10216 0.04375-0.16228 0.0625-0.25 0.05799-0.07093 0.11344-0.14907 0.15625-0.25 0.11859-0.27964 0.12087-0.56546 0-0.65625 0.0084-0.1215-0.0035-0.2399 0-0.34375 0-0.8263-0.70911-1.5-1.5938-1.5zm-9.375 0.6875c0.51801 0 0.88979 0.36666 0.90625 0.78125-5.96e-4 0.017521 3e-4 0.01523 0 0.03125-0.0027 0.14418 0.0028 0.24073 0 0.28125a0.69797 0.69797 0 0 0 0.0625 0.34375 0.69797 0.69797 0 0 0 0 0.03125c-0.0053 0.024244-0.01797 0.031195-0.03125 0.0625-0.0088 0.020649 0.0058 0.048475-0.03125 0.09375a0.69797 0.69797 0 0 0-0.15625 0.28125c-0.0085 0.03984-0.01374 0.11895-0.03125 0.1875-0.0063 0.02468-0.02344 0.02945-0.03125 0.0625-0.03187 0.05886-0.23916 0.42955-0.40625 0.6875a0.69797 0.69797 0 0 0-0.09375 0.34375c-0.0126 0.20062-0.0343 0.4363 0 0.71875a0.69797 0.69797 0 0 0 0.21875 0.4375c0.48668 0.42352 1.0704 0.5918 1.5312 0.78125 0.21409 0.08802 0.40492 0.16357 0.5 0.21875l0.15625 0.96875c-0.10891 0.0573-0.3 0.11755-0.5625 0.1875a0.69797 0.69797 0 0 0-0.5 0.53125l-0.03125 0.15625c-0.3532 0.08705-0.88131 0.15625-1.5 0.15625-0.61869 0-1.1468-0.0692-1.5-0.15625l-0.03125-0.125a0.69797 0.69797 0 0 0-0.5-0.53125c-0.27811-0.07241-0.46614-0.16043-0.5625-0.21875l0.15625-1c0.0757-0.04981 0.2431-0.12939 0.46875-0.21875 0.4513-0.17871 1.0334-0.33666 1.5312-0.75a0.69797 0.69797 0 0 0 0.25-0.40625c0.06092-0.3554 0.0213-0.65524 0-0.875a0.69797 0.69797 0 0 0-0.125-0.34375c-0.17629-0.2352-0.35551-0.545-0.375-0.5625-2e-3 -0.0018-0.03329-0.06862-0.03125-0.0625-0.01782-0.06179-0.03337-0.1354-0.03125-0.125a0.69797 0.69797 0 0 0-0.15625-0.34375c-0.04414-0.049702-0.05982-0.08742-0.0625-0.09375-0.01056-0.024893-0.02703-0.012192-0.03125-0.03125a0.69797 0.69797 0 0 0 0-0.03125 0.69797 0.69797 0 0 0 0.09375-0.375c-0.0021-0.02499 0.0015-0.14088 0-0.28125-1.67e-4 -0.015596 3.92e-4 -0.014367 0-0.03125 0.01646-0.41458 0.38824-0.78125 0.90625-0.78125zm9.375 0c0.51801 0 0.88979 0.36666 0.90625 0.78125-5.9e-4 0.017492 2.96e-4 0.015253 0 0.03125-0.0027 0.14397 0.0028 0.24063 0 0.28125a0.69797 0.69797 0 0 0 0.0625 0.34375 0.69797 0.69797 0 0 0 0 0.03125c-0.0053 0.024245-0.01797 0.031194-0.03125 0.0625-0.0088 0.020671 0.0058 0.048484-0.03125 0.09375a0.69797 0.69797 0 0 0-0.15625 0.28125c-0.0085 0.03984-0.01374 0.11895-0.03125 0.1875-0.0063 0.02468-0.02344 0.02945-0.03125 0.0625-0.03187 0.05888-0.23916 0.42955-0.40625 0.6875a0.69797 0.69797 0 0 0-0.09375 0.34375c-0.0126 0.20064-0.03429 0.43635 0 0.71875a0.69797 0.69797 0 0 0 0.21875 0.4375c0.48668 0.42352 1.0704 0.5918 1.5312 0.78125 0.21409 0.08802 0.40492 0.16357 0.5 0.21875l0.15625 0.96875c-0.10891 0.0573-0.3 0.11755-0.5625 0.1875a0.69797 0.69797 0 0 0-0.5 0.53125l-0.03125 0.15625c-0.3532 0.08705-0.88131 0.15625-1.5 0.15625-0.61869 0-1.1468-0.0692-1.5-0.15625l-0.03125-0.125a0.69797 0.69797 0 0 0-0.5-0.53125c-0.27811-0.07241-0.46614-0.16043-0.5625-0.21875l0.15625-1c0.0757-0.04981 0.2431-0.12939 0.46875-0.21875 0.4513-0.17871 1.0334-0.33666 1.5312-0.75a0.69797 0.69797 0 0 0 0.25-0.40625c0.06092-0.3554 0.0213-0.65524 0-0.875a0.69797 0.69797 0 0 0-0.125-0.34375c-0.17629-0.2352-0.35551-0.545-0.375-0.5625-2e-3 -0.0018-0.03329-0.06862-0.03125-0.0625-0.01782-0.06179-0.03338-0.13547-0.03125-0.125a0.69797 0.69797 0 0 0-0.15625-0.34375c-0.04415-0.049712-0.05984-0.087478-0.0625-0.09375-0.01056-0.024893-0.02703-0.012192-0.03125-0.03125a0.69797 0.69797 0 0 0 0-0.03125 0.69797 0.69797 0 0 0 0.09375-0.375c-0.0021-0.024626 0.0015-0.14073 0-0.28125-1.68e-4 -0.015613 3.93e-4 -0.014343 0-0.03125 0.01646-0.41458 0.38824-0.78125 0.90625-0.78125zm-1.6562 7.125c-0.01331-0.0072 0.0442 0.0078 0.03125 0s0.01255 0.03966 0 0.03125c-0.0065-0.0018-0.02497 0.0018-0.03125 0 0.0086 0.0025-0.01927-0.03696 0-0.03125z" opacity=".2"/>
  <path id="path3130" d="m-19 5.4138c-1.1795 0-2.1357 0.89313-2.1357 1.9949 0.0029 0.12626 0.0047 0.27042 0.01779 0.42747-0.18667 0.09959-0.211 0.48904-0.04449 0.88166 0.06421 0.1514 0.15178 0.27441 0.24027 0.37404 3e-3 0.0033 0.0059 0.0057 0.0089 0.0089 0.02113 0.10373 0.03675 0.18578 0.06229 0.30279 0.07913 0.23759 0.40614 0.68449 0.6941 1.0687 0.02872 0.29637 0.03108 0.58907-0.0267 0.92618-0.82885 0.68819-2.9487 0.99743-2.9455 1.7099l-0.28476 1.8524c0 0.37952 0.56651 0.727 1.4683 0.9618l0.12458 0.50762a0.31013 0.31037 0 0 0 0.19577 0.20483c0.04003 0.0155 0.06828 0.04828 0.17798 0.08015 0.57788 0.16791 1.4578 0.28499 2.4472 0.28499s1.8782-0.11708 2.4561-0.28498c0.1097-0.03187 0.13795-0.06466 0.17798-0.08015a0.31013 0.31037 0 0 0 0.18687-0.19592l0.15128-0.53434c0.87976-0.23443 1.4416-0.56982 1.4416-0.944l-0.28476-1.8524c-0.0034-0.60976-2.1357-0.99743-2.9544-1.7099-0.03315-0.27291-0.03468-0.54161-0.01779-0.81041 0.26181-0.40417 0.6065-0.92142 0.6941-1.1844 0.0322-0.13622 0.04619-0.23035 0.07119-0.34732 0.07731-0.09457 0.1476-0.20384 0.20467-0.33841 0.15812-0.37284 0.14336-0.73388-0.01779-0.85494 0.01126-0.16201 0.02199-0.31573 0.0267-0.45419 0-1.1017-0.95619-1.9949-2.1357-1.9949z" fill="url(#linearGradient3848)"/>
  <path id="path3859" d="m-16.906 8.75c-0.05042 0.11614-0.08731 0.22817-0.15625 0.3125-0.025 0.11697-0.06155 0.20754-0.09375 0.34375-0.08761 0.26303-0.42569 0.78333-0.6875 1.1875-0.01689 0.2688-0.0019 0.53959 0.03125 0.8125 0.01565 0.01362 0.04596 0.01793 0.0625 0.03125 0.24277-0.37606 0.51648-0.79927 0.59375-1.0312 0.0322-0.13622 0.06875-0.22678 0.09375-0.34375 0.07731-0.09457 0.13043-0.20918 0.1875-0.34375 0.15812-0.37284 0.1299-0.72269-0.03125-0.84375 3e-3 -0.04301-0.0033-0.08178 0-0.125zm-4.2188 0.03125c8.23e-4 0.022246-0.0019 0.040065 0 0.0625-0.18667 0.09959-0.19776 0.48238-0.03125 0.875 0.06421 0.1514 0.13026 0.27537 0.21875 0.375 3e-3 0.0033 0.02825-0.0032 0.03125 0 0.02113 0.10373 0.03696 0.19549 0.0625 0.3125 0.07544 0.2265 0.37941 0.62926 0.65625 1 0.05778-0.33711 0.05997-0.64113 0.03125-0.9375-0.28796-0.38418-0.60837-0.82491-0.6875-1.0625-0.02554-0.11701-0.04137-0.20877-0.0625-0.3125-3e-3 -0.0032-0.02825 0.0033-0.03125 0-0.07428-0.083627-0.13266-0.19275-0.1875-0.3125zm-0.96875 1.1875c-0.0428 0.10093-0.09826 0.17907-0.15625 0.25-0.01875 0.08772-0.03836 0.14784-0.0625 0.25-0.0657 0.19727-0.30364 0.60312-0.5 0.90625-0.01266 0.2016-0.02486 0.38907 0 0.59375 0.05117 0.04453 0.12582 0.0816 0.1875 0.125 0.14458-0.24004 0.26562-0.48425 0.3125-0.625 0.02414-0.10216 0.04375-0.16228 0.0625-0.25 0.05799-0.07093 0.11345-0.14907 0.15625-0.25 0.11859-0.27964 0.12087-0.56546 0-0.65625 0.0084-0.1215-0.0035-0.2399 0-0.34375zm9.375 0c-0.04281 0.10093-0.09826 0.17907-0.15625 0.25-0.01875 0.08772-0.03836 0.14784-0.0625 0.25-0.06571 0.19727-0.30364 0.60312-0.5 0.90625-0.01266 0.2016-0.02485 0.38907 0 0.59375 0.05117 0.04453 0.1241 0.08363 0.1875 0.125 0.14457-0.24004 0.26562-0.48425 0.3125-0.625 0.02414-0.10216 0.04375-0.16228 0.0625-0.25 0.05799-0.07093 0.11344-0.14907 0.15625-0.25 0.11859-0.27964 0.12087-0.56546 0-0.65625 0.0084-0.1215-0.0035-0.2399 0-0.34375zm-12.562 0.03125c-8.4e-5 0.09175-9e-3 0.20542 0 0.3125-0.14 0.07469-0.15613 0.36179-0.03125 0.65625 0.04816 0.11354 0.12113 0.20653 0.1875 0.28125 0.01584 0.0778 0.04334 0.13099 0.0625 0.21875 0.04451 0.13364 0.18666 0.36648 0.34375 0.59375 0.04991-0.03233 0.11441-0.05901 0.15625-0.09375 0.04334-0.25284 0.02154-0.46522 0-0.6875-0.21597-0.28814-0.44065-0.63431-0.5-0.8125-0.01916-0.08776-0.04666-0.14095-0.0625-0.21875-0.05786-0.06514-0.10917-0.15558-0.15625-0.25zm9.375 0c-9.1e-5 0.09175-9e-3 0.20542 0 0.3125-0.14 0.07469-0.15613 0.36179-0.03125 0.65625 0.04815 0.11354 0.12113 0.20653 0.1875 0.28125 0.01583 0.0778 0.04334 0.13099 0.0625 0.21875 0.04451 0.13364 0.18666 0.36648 0.34375 0.59375 0.05141-0.03312 0.11261-0.05751 0.15625-0.09375 0.04334-0.25284 0.02154-0.46522 0-0.6875-0.21597-0.28814-0.44065-0.63431-0.5-0.8125-0.01916-0.08776-0.04667-0.14095-0.0625-0.21875-0.05786-0.06514-0.10917-0.15558-0.15625-0.25zm4.7812 4.875c-0.17052 0.17365-0.51018 0.34655-0.96875 0.46875l-0.09375 0.40625a0.2326 0.23278 0 0 1-0.03125 0.03125 0.2326 0.23278 0 0 1-0.03125 0.0625 0.2326 0.23278 0 0 1-0.03125 0.03125 0.2326 0.23278 0 0 1-0.0625 0.03125c-0.03002 0.01162-0.04272 0.03858-0.125 0.0625-0.4334 0.12592-1.1017 0.21875-1.8438 0.21875-0.69811 0-1.3166-0.07292-1.75-0.1875l-0.125 0.4375a0.31013 0.31037 0 0 1 0 0.03125 0.31013 0.31037 0 0 1-0.0625 0.09375 0.31013 0.31037 0 0 1-0.125 0.0625c-0.04003 0.01549-0.04655 0.06188-0.15625 0.09375-0.57787 0.1679-1.4794 0.28125-2.4688 0.28125s-1.8596-0.11334-2.4375-0.28125c-0.1097-0.03187-0.14747-0.07825-0.1875-0.09375a0.31013 0.31037 0 0 1-0.0625-0.03125 0.31013 0.31037 0 0 1-0.125-0.15625l-0.125-0.4375c-0.43338 0.11459-1.0519 0.1875-1.75 0.1875-0.74204 0-1.4103-0.09283-1.8438-0.21875-0.08227-0.0239-0.09498-0.05089-0.125-0.0625a0.2326 0.23278 0 0 1-0.15625-0.15625l-0.09375-0.375c-0.46747-0.12172-0.801-0.28703-0.96875-0.46875l-0.125 0.75c0 0.28464 0.41741 0.54265 1.0938 0.71875l0.09375 0.375a0.2326 0.23278 0 0 0 0.15625 0.15625c0.03002 0.01161 0.04273 0.0386 0.125 0.0625 0.4334 0.12592 1.1017 0.21875 1.8438 0.21875 0.69811 0 1.3166-0.07291 1.75-0.1875l0.125 0.4375a0.31013 0.31037 0 0 0 0.125 0.15625 0.31013 0.31037 0 0 0 0.0625 0.03125c0.04003 0.0155 0.0778 0.06188 0.1875 0.09375 0.57788 0.16791 1.4481 0.28125 2.4375 0.28125s1.8909-0.11335 2.4688-0.28125c0.1097-0.03187 0.11622-0.07826 0.15625-0.09375a0.31013 0.31037 0 0 0 0.125-0.0625 0.31013 0.31037 0 0 0 0.0625-0.09375 0.31013 0.31037 0 0 0 0-0.03125l0.125-0.4375c0.43338 0.11458 1.0519 0.1875 1.75 0.1875 0.74204 0 1.4103-0.09283 1.8438-0.21875 0.08228-0.02392 0.09498-0.05088 0.125-0.0625a0.2326 0.23278 0 0 0 0.0625-0.03125 0.2326 0.23278 0 0 0 0.03125-0.03125 0.2326 0.23278 0 0 0 0.03125-0.0625 0.2326 0.23278 0 0 0 0.03125-0.03125l0.09375-0.40625c0.65982-0.17582 1.0938-0.40687 1.0938-0.6875l-0.125-0.78125z" fill="#fff" opacity=".3"/>
  <path id="path3873" d="m-19 5.4062c-1.1795 0-2.125 0.89827-2.125 2 0.0029 0.12626-0.01309 0.28046 0 0.4375-0.18667 0.09959-0.19776 0.48238-0.03125 0.875 0.06421 0.1514 0.13026 0.27537 0.21875 0.375 3e-3 0.0033 0.02825-0.0032 0.03125 0 0.02113 0.10373 0.03696 0.19549 0.0625 0.3125 0.07913 0.23759 0.39954 0.67832 0.6875 1.0625 0.02872 0.29637 0.02653 0.60039-0.03125 0.9375-0.82885 0.68819-2.9407 0.97505-2.9375 1.6875l-0.28125 1.875c0 0.37952 0.56696 0.73395 1.4688 0.96875l0.125 0.5a0.31013 0.31037 0 0 0 0.1875 0.1875c0.04003 0.0155 0.0778 0.06188 0.1875 0.09375 0.57788 0.16791 1.4481 0.28125 2.4375 0.28125s1.8909-0.11335 2.4688-0.28125c0.1097-0.03187 0.11622-0.07826 0.15625-0.09375a0.31013 0.31037 0 0 0 0.125-0.0625 0.31013 0.31037 0 0 0 0.0625-0.125l0.15625-0.53125c0.87976-0.23443 1.4375-0.56333 1.4375-0.9375l-0.28125-1.875c-0.0034-0.60976-2.1188-0.97505-2.9375-1.6875-0.03315-0.27291-0.04814-0.5437-0.03125-0.8125 0.26181-0.40417 0.59989-0.92447 0.6875-1.1875 0.0322-0.13622 0.06875-0.22678 0.09375-0.34375 0.07731-0.09457 0.13043-0.20918 0.1875-0.34375 0.15812-0.37284 0.1299-0.72269-0.03125-0.84375 0.01126-0.16201 0.02654-0.33029 0.03125-0.46875 0-1.1017-0.94548-2-2.125-2zm0 0.96875c0.66917 0 1.1403 0.47163 1.1562 1 2.88e-4 0.00952 0 0.021693 0 0.03125-0.0043 0.095835-0.01986 0.24241-0.03125 0.40625a0.98157 0.98157 0 0 0 0.09375 0.53125c-0.0498 0.11743-0.06043 0.12945-0.03125 0.09375a0.98157 0.98157 0 0 0-0.21875 0.40625c-0.0042 0.019542-0.0338 0.14478-0.0625 0.25-0.01099 0.040297-0.01795 0.037467-0.03125 0.09375-0.02966 0.029532-0.29147 0.50484-0.53125 0.875a0.98157 0.98157 0 0 0-0.15625 0.46875c-0.02176 0.34625-7e-3 0.6851 0.03125 1a0.98157 0.98157 0 0 0 0.3125 0.625c0.66247 0.5765 1.4544 0.78421 2.0625 1.0312 0.27482 0.11165 0.47124 0.2123 0.59375 0.28125l0.1875 1.25c-0.1391 0.07222-0.33965 0.16564-0.65625 0.25a0.98157 0.98157 0 0 0-0.6875 0.65625l-0.0625 0.1875c-0.45892 0.10986-1.1461 0.21875-1.9688 0.21875-0.83445 0-1.5114-0.10529-1.9688-0.21875l-0.03125-0.125a0.98157 0.98157 0 0 0-0.6875-0.6875c-0.33801-0.08801-0.55079-0.20476-0.6875-0.28125l0.1875-1.3125c0.10949-0.06353 0.2955-0.1456 0.5625-0.25 0.59457-0.23248 1.3844-0.43702 2.0625-1a0.98157 0.98157 0 0 0 0.34375-0.59375c0.07368-0.42988 0.06665-0.82222 0.03125-1.1875a0.98157 0.98157 0 0 0-0.1875-0.5c-0.14073-0.18776-0.2675-0.37092-0.375-0.53125-0.0918-0.13691-0.12576-0.23387-0.125-0.21875-0.0024-0.011946-0.02888-0.019244-0.03125-0.03125-0.01206-0.06112-0.01505-0.10797-0.03125-0.1875a0.98157 0.98157 0 0 0-0.25-0.46875c-8e-6 -8.2e-6 -0.02862 0.00212-0.03125 0 8e-6 8.6e-6 0.0026-0.029056 0-0.03125-0.0031-0.00578 2.1e-4 0.011676-0.03125-0.0625-0.0083-0.019657 0.0051-0.01348 0-0.03125a0.98157 0.98157 0 0 0 0.09375-0.5625c-0.0029-0.03494 0.0024-0.15253 0-0.34375 0-0.00956-2.88e-4 -0.021733 0-0.03125 0.01599-0.52838 0.48708-1 1.1562-1z" opacity=".4"/>
  <path id="path3798" d="m11 6c-1.4954 0-2.7062 1.064-2.7062 2.4 0.0036182 0.1531 0.010989 0.3429 0.027616 0.53333-0.23665 0.12076-0.26632 0.59058-0.055231 1.0667 0.081397 0.18358 0.19157 0.33252 0.30376 0.45333 0.026782 0.12579 0.050456 0.23144 0.082843 0.37333 0.10033 0.2881 0.51858 0.8408 0.88365 1.3067 0.036414 0.35938 0.045622 0.71121-0.027615 1.12-1.0508 0.83451-3.7595 1.1894-3.7555 2.0533l-0.11046 0.69333h10.714l-0.11046-0.69333c-0.0043-0.7394-2.7176-1.1894-3.7555-2.0533-0.04203-0.33093-0.04901-0.66072-0.02762-0.98667 0.33192-0.4901 0.77259-1.1211 0.88365-1.44 0.04082-0.16517 0.05113-0.28483 0.08284-0.42667 0.09801-0.11468 0.20379-0.23682 0.27614-0.4 0.20046-0.45212 0.17669-0.8932-0.02762-1.04 0.01428-0.19645 0.02165-0.3921 0.02762-0.56 6e-6 -1.336-1.2108-2.4-2.7062-2.4z" enable-background="new" fill="url(#linearGradient3824)"/>
  <path id="path3879" d="m11 6c-1.4954 0-2.7188 1.0703-2.7188 2.4062 0.0036182 0.1531 0.014623 0.34081 0.03125 0.53125-0.23665 0.12076-0.24234 0.58641-0.03125 1.0625 0.081397 0.18358 0.16907 0.34794 0.28125 0.46875 0.026782 0.12579 0.061363 0.20186 0.09375 0.34375 0.10033 0.2881 0.50993 0.84664 0.875 1.3125 0.036414 0.35938 0.041987 0.71621-0.03125 1.125-1.0508 0.83451-3.754 1.1986-3.75 2.0625l-0.09375 0.6875h10.688l-0.09375-0.6875c-0.0043-0.7394-2.7121-1.1986-3.75-2.0625-0.04203-0.33093-0.05264-0.6428-0.03125-0.96875 0.33192-0.4901 0.76394-1.1498 0.875-1.4688 0.04082-0.16517 0.06204-0.26442 0.09375-0.40625 0.09801-0.11468 0.2089-0.24306 0.28125-0.40625 0.20046-0.45212 0.17306-0.88446-0.03125-1.0312 0.01428-0.19645 0.02528-0.3946 0.03125-0.5625 6e-6 -1.336-1.2234-2.4062-2.7188-2.4062zm0 0.78125c1.1045 0 1.9198 0.75346 1.9375 1.5938 1.99e-4 0.0094415 0 0.021785 0 0.03125-0.005748 0.15008-0.018429 0.32362-0.03125 0.5a0.79311 0.79311 0 0 0 0.15625 0.53125c-0.001869 0.04429-0.011679 0.13538-0.0625 0.25-0.013136 0.029627-0.056242 0.10174-0.15625 0.21875a0.79311 0.79311 0 0 0-0.1875 0.3125c-0.027171 0.12153-0.034945 0.22915-0.0625 0.34375-0.005363 0.022304-0.024989 0.037167-0.03125 0.0625-0.02933 0.062433-0.1161 0.21944-0.25 0.4375-0.15245 0.24826-0.3371 0.54072-0.5 0.78125a0.79311 0.79311 0 0 0-0.125 0.375c-0.024677 0.37603-0.016524 0.74884 0.03125 1.125a0.79311 0.79311 0 0 0 0.28125 0.53125c0.72648 0.60471 1.68 0.8795 2.4688 1.1875 0.15679 0.061225 0.24017 0.098509 0.375 0.15625h-7.8438c0.1642-0.074481 0.28623-0.13837 0.5-0.21875 0.77803-0.29256 1.7592-0.5367 2.5-1.125a0.79311 0.79311 0 0 0 0.28125-0.5c0.088595-0.49452 0.072153-0.94006 0.03125-1.3438a0.79311 0.79311 0 0 0-0.15625-0.40625c-0.17645-0.22516-0.35494-0.44496-0.5-0.65625-0.1239-0.18046-0.19842-0.30851-0.21875-0.34375-0.0034742-0.006021-0.032377-0.065737-0.03125-0.0625-0.031879-0.12115-0.053514-0.2078-0.0625-0.25a0.79311 0.79311 0 0 0-0.1875-0.375c-0.0083214-0.0089612-0.089286-0.098969-0.15625-0.25-0.047466-0.10705-0.053487-0.18793-0.0625-0.25a0.79311 0.79311 0 0 0 0.15625-0.5625c-0.014382-0.16472-0.027552-0.3414-0.03125-0.46875-2.455e-4 -0.008455 1.919e-4 -0.023129 0-0.03125 0.017712-0.8403 0.83295-1.5938 1.9375-1.5938z" enable-background="new" opacity=".4"/>
  <path id="path3940" d="m8.2812 10c-0.1839 0.16268-0.19307 0.56455 0 1 0.081397 0.18358 0.16907 0.34794 0.28125 0.46875 0.026782 0.12579 0.061363 0.20186 0.09375 0.34375 0.098915 0.28406 0.51366 0.8196 0.875 1.2812 0.044018-0.33881 0.031307-0.65977 0-0.96875-0.36507-0.46586-0.77467-1.0244-0.875-1.3125-0.032387-0.14189-0.066968-0.21796-0.09375-0.34375-0.11218-0.12081-0.19985-0.28517-0.28125-0.46875zm5.4375 0c-0.072354 0.16318-0.18324 0.29158-0.28125 0.40625-0.03171 0.14183-0.05293 0.24108-0.09375 0.40625-0.11106 0.31895-0.54308 0.97865-0.875 1.4688-0.020701 0.31544-0.007246 0.61731 0.03125 0.9375 0.32701-0.48173 0.73666-1.0987 0.84375-1.4062 0.04082-0.16517 0.06204-0.26442 0.09375-0.40625 0.09801-0.11468 0.2089-0.24306 0.28125-0.40625 0.18946-0.42731 0.17425-0.83154 0-1zm-7.8438 6c-0.075734 0.094015-0.1255 0.20451-0.125 0.3125l-0.09375 0.6875h10.688l-0.09375-0.6875c-5.96e-4 -0.10257-0.063098-0.21919-0.15625-0.3125h-10.219z" enable-background="new" fill="#fff" opacity=".3"/>
 </g>
</svg>
