<?xml version="1.0" encoding="UTF-8"?>
<!-- Created with Inkscape (http://www.inkscape.org/) -->
<svg id="svg2" width="24" height="24" version="1.1" xmlns="http://www.w3.org/2000/svg" xmlns:cc="http://creativecommons.org/ns#" xmlns:dc="http://purl.org/dc/elements/1.1/" xmlns:rdf="http://www.w3.org/1999/02/22-rdf-syntax-ns#" xmlns:xlink="http://www.w3.org/1999/xlink">
 <defs id="defs4">
  <linearGradient id="linearGradient3335" x1="11.375" x2="11.375" y1="22" y2="-9.8173" gradientUnits="userSpaceOnUse">
   <stop id="stop3330" offset="0"/>
   <stop id="stop3333" stop-opacity="0" offset="1"/>
  </linearGradient>
  <linearGradient id="linearGradient3181" x1="-3.0608" x2="-3.0608" y1="27.258" y2="7.2537" gradientTransform="translate(12.119 -7.2582)" gradientUnits="userSpaceOnUse">
   <stop id="stop3702" stop-color="#2d2d2d" offset="0"/>
   <stop id="stop3704" stop-color="#6b6b6b" offset="1"/>
  </linearGradient>
  <filter id="filter3194" x="-.18" y="-.18" width="1.36" height="1.36" color-interpolation-filters="sRGB">
   <feGaussianBlur id="feGaussianBlur3196" stdDeviation="1.2"/>
  </filter>
  <clipPath id="clipPath2849">
   <rect id="rect2851" x="1" y="1" width="20" height="20" rx="2" ry="2" fill="#fff" fill-rule="evenodd"/>
  </clipPath>
  <radialGradient id="radialGradient3732" cx="47.746" cy="48.001" r="16.254" gradientUnits="userSpaceOnUse">
   <stop id="stop3718" stop-color="#ee8a0c" offset="0"/>
   <stop id="stop3751" stop-color="#ca0005" offset=".33021"/>
   <stop id="stop3748" stop-color="#530111" offset=".77064"/>
   <stop id="stop3720" offset="1"/>
  </radialGradient>
  <linearGradient id="linearGradient3756" x1="3" x2="14" y1="8" y2="8" gradientUnits="userSpaceOnUse">
   <stop id="stop3752" stop-color="#fff" offset="0"/>
   <stop id="stop3754" stop-color="#fff" stop-opacity="0" offset="1"/>
  </linearGradient>
  <radialGradient id="radialGradient3760" cx="48" cy="13.64" r="27.25" gradientTransform="matrix(.39144 0 0 .23486 -6.789 .39659)" gradientUnits="userSpaceOnUse">
   <stop id="stop3804" stop-color="#fff" offset="0"/>
   <stop id="stop3810" stop-color="#fff" stop-opacity=".35659" offset=".5"/>
   <stop id="stop3806" stop-color="#fff" stop-opacity="0" offset="1"/>
  </radialGradient>
  <radialGradient id="radialGradient3765" cx="48" cy="47.876" r="26" gradientTransform="matrix(.25806 0 0 .23821 -.3871 -1.4047)" gradientUnits="userSpaceOnUse">
   <stop id="stop3755" stop-color="#fff814" offset="0"/>
   <stop id="stop3763" stop-color="#ffc516" offset=".5"/>
   <stop id="stop3757" stop-color="#da8600" offset="1"/>
  </radialGradient>
  <linearGradient id="linearGradient3845" x1="11" x2="21" y1="19.5" y2="19.5" gradientTransform="translate(1,-1)" gradientUnits="userSpaceOnUse" spreadMethod="reflect">
   <stop id="stop3833" stop-color="#fff" offset="0"/>
   <stop id="stop3821" stop-color="#fff" stop-opacity=".49804" offset=".75"/>
   <stop id="stop3835" stop-color="#fff" stop-opacity="0" offset="1"/>
  </linearGradient>
  <linearGradient id="linearGradient3892" x1="10" x2="10" y1="1" y2="16" gradientTransform="translate(1,-1)" gradientUnits="userSpaceOnUse">
   <stop id="stop3825" stop-color="#fff" offset="0"/>
   <stop id="stop3829" stop-color="#fff" stop-opacity="0" offset="1"/>
  </linearGradient>
 </defs>
 <metadata id="metadata7">
  <rdf:RDF>
   <cc:Work rdf:about="">
    <dc:format>image/svg+xml</dc:format>
    <dc:type rdf:resource="http://purl.org/dc/dcmitype/StillImage"/>
    <dc:title/>
   </cc:Work>
  </rdf:RDF>
 </metadata>
 <g id="layer1" transform="translate(0,2)">
  <g id="g3337" transform="translate(1,-1)">
   <rect id="rect3371" x=".5" y=".5" width="21" height="21.5" rx="2.5" ry="2.5" fill="url(#linearGradient3335)" opacity=".3"/>
   <rect id="rect2553" x="1" y="2" width="20" height="20" rx="2.381" ry="2.3256" opacity=".5"/>
  </g>
  <rect id="rect3173" x="2" width="20" height="20" rx="2" ry="2" fill="url(#linearGradient3181)" fill-rule="evenodd"/>
  <path id="path3740" transform="translate(0,-2)" d="m20 12a8 8 0 1 1-16 0 8 8 0 1 1 16 0z" color="#000000" fill="#a00" opacity=".3"/>
  <path id="path3744" transform="matrix(0 -1.6364 1.8 0 -2.4 23.909)" d="m14 8a5.5 5 0 1 1-11 0 5.5 5 0 1 1 11 0z" color="#000000" fill="url(#linearGradient3756)" opacity=".2"/>
  <path id="rect3050" d="m4 0c-1.108 0-2 0.892-2 2v16c0 1.108 0.892 2 2 2h16c1.108 0 2-0.892 2-2v-16c0-1.108-0.892-2-2-2h-16zm0 1.0312h16c0.5497 0 0.96875 0.41905 0.96875 0.96875v16c0 0.5497-0.41905 0.96875-0.96875 0.96875h-16c-0.5497 0-0.96875-0.41905-0.96875-0.96875v-16c0-0.5497 0.41905-0.96875 0.96875-0.96875z" fill="url(#linearGradient3892)" fill-rule="evenodd" opacity=".2"/>
  <path id="path3235" d="m4 20c-1.108 0-2-0.892-2-2v-1c0 1.108 0.892 2 2 2h16c1.108 0 2-0.892 2-2v1c0 1.108-0.892 2-2 2h-16z" fill="url(#linearGradient3845)" fill-rule="evenodd" opacity=".15"/>
 </g>
 <g id="layer2" transform="translate(0,2)">
  <rect id="rect2410" transform="translate(1,-1)" x="3" y="3" width="16" height="16" rx="2" ry="2" clip-path="url(#clipPath2849)" fill="#a00" filter="url(#filter3194)" opacity=".15"/>
 </g>
 <g id="layer3" transform="translate(0,2)">
  <path id="path3685" transform="matrix(.49218 0 0 .49218 -11.499 -13.625)" d="m64 48.001a16.254 16.254 0 1 1-32.509 0 16.254 16.254 0 1 1 32.509 0z" color="#000000" fill="url(#radialGradient3732)"/>
  <path id="path3689" d="m8.6452 4.1855c-2.076 1.1986-3.3548 3.4174-3.3548 5.8145h4.6452c0-0.76309 0.4166-1.4249 1.0323-1.7823l-2.3226-4.0323zm6.7097 0-2.3226 4.0323c0.61566 0.35733 1.0323 1.0192 1.0323 1.7823h4.6452c0-2.3971-1.2789-4.6159-3.3548-5.8145zm-3.3548 4.5242c-0.71263 0-1.2903 0.5777-1.2903 1.2903 0 0.71263 0.5777 1.2903 1.2903 1.2903s1.2903-0.5777 1.2903-1.2903c0-0.71263-0.5777-1.2903-1.2903-1.2903zm-1.0323 3.0726-2.3226 4.0323c2.076 1.1986 4.6337 1.1986 6.7097 0l-2.3226-4.0323c-0.30425 0.17659-0.65515 0.28226-1.0323 0.28226s-0.72801-0.10567-1.0323-0.28226z" color="#000000" fill="url(#radialGradient3765)"/>
  <path id="path3795" d="m12 2.5333c-3.5275 0-6.4856 2.4447-7.2667 5.7333 1.9045-1.2408 4.4597-2 7.2667-2 2.807 0 5.3621 0.75924 7.2667 2-0.78106-3.2886-3.7391-5.7333-7.2667-5.7333z" color="#000000" fill="url(#radialGradient3760)" opacity=".8"/>
 </g>
</svg>
