<?xml version="1.0" encoding="UTF-8"?>
<!-- Created with Inkscape (http://www.inkscape.org/) -->
<svg id="svg2" width="24" height="24" version="1.1" xmlns="http://www.w3.org/2000/svg" xmlns:cc="http://creativecommons.org/ns#" xmlns:dc="http://purl.org/dc/elements/1.1/" xmlns:rdf="http://www.w3.org/1999/02/22-rdf-syntax-ns#" xmlns:xlink="http://www.w3.org/1999/xlink">
 <defs id="defs4">
  <linearGradient id="linearGradient3335" x1="11.375" x2="11.375" y1="22" y2="-9.8173" gradientUnits="userSpaceOnUse">
   <stop id="stop3330" offset="0"/>
   <stop id="stop3333" stop-opacity="0" offset="1"/>
  </linearGradient>
  <linearGradient id="linearGradient3181" x1="-3.0608" x2="-3.0608" y1="27.258" y2="7.2537" gradientTransform="translate(12.119 -27.258)" gradientUnits="userSpaceOnUse">
   <stop id="stop3803" stop-color="#9491c7" offset="0"/>
   <stop id="stop3805" stop-color="#4b46a7" stop-opacity=".99216" offset="1"/>
  </linearGradient>
  <filter id="filter3194" x="-.18" y="-.18" width="1.36" height="1.36" color-interpolation-filters="sRGB">
   <feGaussianBlur id="feGaussianBlur3196" stdDeviation="1.2"/>
  </filter>
  <clipPath id="clipPath2849">
   <rect id="rect2851" x="1" y="1" width="20" height="20" rx="2" ry="2" fill="#fff" fill-rule="evenodd"/>
  </clipPath>
  <radialGradient id="radialGradient3854" cx="299.7" cy="371.76" r="76.696" gradientTransform="matrix(.06882 0 0 .043012 11.893 -.2912)" gradientUnits="userSpaceOnUse" xlink:href="#linearGradient4966"/>
  <linearGradient id="linearGradient4966">
   <stop id="stop4968" stop-color="#b6b3d8" offset="0"/>
   <stop id="stop4970" stop-color="#b6b3d8" stop-opacity="0" offset="1"/>
  </linearGradient>
  <radialGradient id="radialGradient3993" cx="299.7" cy="371.76" r="76.696" gradientTransform="matrix(.088075 0 0 .055047 6.1222 -12.286)" gradientUnits="userSpaceOnUse" xlink:href="#linearGradient4966"/>
  <linearGradient id="linearGradient3936">
   <stop id="stop3938" offset="0"/>
   <stop id="stop3940" stop-opacity="0" offset="1"/>
  </linearGradient>
  <radialGradient id="radialGradient3890" cx="425.51" cy="356.62" r="143.34" gradientTransform="matrix(-.021224 -.017025 .22621 -.282 -136.43 244.92)" gradientUnits="userSpaceOnUse">
   <stop id="stop3296" stop-color="#6376e6" offset="0"/>
   <stop id="stop3302" stop-color="#222989" offset=".50094"/>
   <stop id="stop3298" stop-color="#00003d" offset="1"/>
  </radialGradient>
  <radialGradient id="radialGradient3892" cx="289.44" cy="390.45" r="17.677" gradientTransform="matrix(.087305 .069485 -.1065 .13382 -66.303 90.119)" gradientUnits="userSpaceOnUse" xlink:href="#linearGradient3202"/>
  <linearGradient id="linearGradient3202">
   <stop id="stop3204" stop-color="#2b2b2b" offset="0"/>
   <stop id="stop3250" stop-color="#828383" offset=".5"/>
   <stop id="stop3206" stop-color="#dadbdb" offset="1"/>
  </linearGradient>
  <radialGradient id="radialGradient3894" cx="283.51" cy="382.15" r="17.677" gradientTransform="matrix(.087305 .069485 -.1065 .13382 -44.944 65.935)" gradientUnits="userSpaceOnUse" xlink:href="#linearGradient3202"/>
  <radialGradient id="radialGradient3896" cx="418.46" cy="181.19" r="63.069" gradientTransform="matrix(-.013803 -.012573 .35517 -.38992 -103.15 193.49)" gradientUnits="userSpaceOnUse">
   <stop id="stop3244" stop-color="#282828" offset="0"/>
   <stop id="stop3252" stop-color="#969696" offset=".39253"/>
   <stop id="stop3246" stop-color="#e3e3e3" offset="1"/>
  </radialGradient>
  <linearGradient id="linearGradient3946" x1="103.95" x2="134.49" y1="79.295" y2="41.356" gradientTransform="matrix(.21286 .13295 -.13295 .21286 -1.5337 -9.4668)" gradientUnits="userSpaceOnUse" xlink:href="#linearGradient3936"/>
  <linearGradient id="linearGradient4051" x1="102.76" x2="142.17" y1="78.68" y2="30.336" gradientTransform="matrix(.24737 .042358 -.042358 .24737 -12.288 -3.0859)" gradientUnits="userSpaceOnUse" xlink:href="#linearGradient3936"/>
  <linearGradient id="linearGradient3845" x1="11" x2="21" y1="19.5" y2="19.5" gradientTransform="translate(1,-1)" gradientUnits="userSpaceOnUse" spreadMethod="reflect">
   <stop id="stop3833" stop-color="#fff" offset="0"/>
   <stop id="stop3821" stop-color="#fff" stop-opacity=".49804" offset=".75"/>
   <stop id="stop3835" stop-color="#fff" stop-opacity="0" offset="1"/>
  </linearGradient>
  <linearGradient id="linearGradient3892" x1="10" x2="10" y1="1" y2="16" gradientTransform="translate(1,-1)" gradientUnits="userSpaceOnUse">
   <stop id="stop3825" stop-color="#fff" offset="0"/>
   <stop id="stop3829" stop-color="#fff" stop-opacity="0" offset="1"/>
  </linearGradient>
 </defs>
 <metadata id="metadata7">
  <rdf:RDF>
   <cc:Work rdf:about="">
    <dc:format>image/svg+xml</dc:format>
    <dc:type rdf:resource="http://purl.org/dc/dcmitype/StillImage"/>
    <dc:title/>
   </cc:Work>
  </rdf:RDF>
 </metadata>
 <g id="layer1" transform="translate(0,2)">
  <g id="g3337" transform="translate(1,-1)">
   <rect id="rect3371" x=".5" y=".5" width="21" height="21.5" rx="2.5" ry="2.5" fill="url(#linearGradient3335)" opacity=".3"/>
   <rect id="rect2553" x="1" y="2" width="20" height="20" rx="2.381" ry="2.3256" opacity=".5"/>
  </g>
  <rect id="rect3173" transform="scale(1,-1)" x="2" y="-20" width="20" height="20" rx="2" ry="2" fill="url(#linearGradient3181)" fill-rule="evenodd"/>
  <path id="rect3050" d="m4 0c-1.108 0-2 0.892-2 2v16c0 1.108 0.892 2 2 2h16c1.108 0 2-0.892 2-2v-16c0-1.108-0.892-2-2-2h-16zm0 1.0312h16c0.5497 0 0.96875 0.41905 0.96875 0.96875v16c0 0.5497-0.41905 0.96875-0.96875 0.96875h-16c-0.5497 0-0.96875-0.41905-0.96875-0.96875v-16c0-0.5497 0.41905-0.96875 0.96875-0.96875z" fill="url(#linearGradient3892)" fill-rule="evenodd" opacity=".25"/>
  <path id="path3235" d="m4 20c-1.108 0-2-0.892-2-2v-1c0 1.108 0.892 2 2 2h16c1.108 0 2-0.892 2-2v1c0 1.108-0.892 2-2 2h-16z" fill="url(#linearGradient3845)" fill-rule="evenodd" opacity=".15"/>
 </g>
 <g id="layer2" transform="translate(0,2)">
  <rect id="rect2410" transform="translate(1,-1)" x="3" y="3" width="16" height="16" rx="2" ry="2" clip-path="url(#clipPath2849)" fill="#fff" filter="url(#filter3194)" opacity=".15"/>
 </g>
 <g id="layer3" transform="translate(0,2)" stroke-width="0">
  <path id="path3856" d="m39.273 8.1784a6.755 4.2219 0 1 1-13.51 0 6.755 4.2219 0 1 1 13.51 0z" fill="url(#radialGradient3993)"/>
  <path id="path3846" d="m37.797 15.699a5.2782 3.2989 0 1 1-10.556 0 5.2782 3.2989 0 1 1 10.556 0z" fill="url(#radialGradient3854)" opacity=".6"/>
  <path id="path3848" d="m7.3786 17.282s0.89137 0.25882 2.0779 0.40678c0.48051 0.05992 2.3088 0.26936 3.7105 0.26386 0 0 1.7072 2e-3 2.6496-0.13193 0.98605-0.14007 1.5447-0.31883 1.8556-0.67557 0.0081-0.08506 0.15006-0.36232-0.23322-0.6297-0.9799-0.68358-2.2467-0.8707-4.7073-1.4551-2.721-0.6841-3.5341-1.3392-3.9403-1.8133-0.38514-0.47514 0.072294-1.4619 2.2648-1.946 1.1101-0.27014 5.2446-0.31977 5.2446-0.31977-1.1862-0.94174-3.413-2.6278-3.8682-2.9863-0.39922-0.31447-1.0425-0.79705-1.1117-1.2283-0.09329-0.4198 0.56751-0.62193 0.91734-0.64525 1.1272-0.077741 2.6665 0.054418 4.0347 0.32651 0.68775 0.13677 0.8085 0.11661 0.8085 0.11661 0.97953 0.046644 1.7414-0.46644 1.7025-1.547-0.0077-1.0961-1.1037-1.9751-2.3167-2.0135-1.1422-0.036155-3.957 0.16326-3.957 0.16326 3.2807 0.67634 3.817 0.84894 3.9881 1.2439 0.10106 0.23322-0.16882 0.4651-1.0728 0.4198-0.98418-0.049323-3.0008-0.28764-3.0008-0.28764-1.9202-0.29541-3.2573-0.57528-3.8404 0.18658-0.38092 0.49773 0.054417 1.1039 0.22545 1.4615 0.76186 1.3294 2.0793 2.2414 2.9153 2.8842 0.31456 0.24185 1.2749 0.77741 1.2749 0.77741-2.9852-0.81628-5.3641-0.35761-6.8723 0.43535-1.7336 1.0262-1.4371 2.7579 1.3138 4.3768 1.6248 0.95621 2.4338 1.4156 5.094 1.7422 1.555 0.24794 1.7867 0.34939 1.7748 0.47882-0.01664 0.18222-1.8405 0.25128-2.3418 0.28585-1.2753 0.08796-4.5736 0.10994-4.5901 0.10994z" fill="#fff" fill-rule="evenodd"/>
 </g>
 <g id="layer4">
  <path id="path3902" d="m24.882 7.679s-0.06301 0.051171-0.06471 0.052577c-0.55713-0.012195-2.0194 0.52836-5.8332 3.8151-0.0044-0.0041-0.03468-0.02981-0.03468-0.02981l-0.15016 0.13343c0.02128 0.01934 0.04064 0.03885 0.06163 0.0583-2.5564 2.0982-5.2891 4.5502-5.5073 4.7462-2.01e-4 -3.02e-4 -0.0064-9e-3 -0.0064-9e-3l-0.0051-0.01678-0.01037 0.01414c-1.92e-4 -3.51e-4 -0.0064-9e-3 -0.0064-9e-3l-0.19808 0.18092c0.0021 0.0029 0.0044 0.0061 0.0064 9e-3l-9e-3 0.0064 0.0064 9e-3c1.1e-5 1.4e-5 0.01198 0.01685 0.01282 0.01811-2.3386 2.3831-3.7951 4.179-3.7354 4.3892 0.080216 0.28266 4.7092-2.9456 4.9005-3.1075 8e-3 0.0065 0.0488 0.04016 0.04882 0.04019l0.0077 0.0013 0.21751-0.20146-0.0064-9e-3c-3.8e-5 -2.8e-5 -0.01879-0.01811-0.02053-0.01942 0.46249-0.3544 2.9889-2.3024 5.6368-4.5728 0.04287 0.05665 0.08328 0.1177 0.08328 0.1177l0.15016-0.13343c-0.0057-0.0085-0.01329-0.01847-0.01921-0.02716 0.19832-0.15494 4.3808-3.4295 4.8511-4.771 0.05357-0.039522 0.07542-0.058556 0.12808-0.097423 0 0-0.0079-0.45873-0.50411-0.58761z" fill="url(#linearGradient4051)" opacity=".25"/>
  <g id="g3861" transform="matrix(.22446 0 0 .22446 31.839 -19.824)">
   <g id="g4820" transform="matrix(.21052 0 0 .21052 -139.34 79.703)">
    <path id="path4824" d="m279.48 404.24c-7e-3 -4e-3 -7.446-4.112-16.804-11.401-8.082-6.285-13.538-12.214-13.544-12.22l-0.122-0.133 3.646-4.669 0.157-0.205 0.169 0.197c0.017 0.01 5.4 6.295 13.725 12.78 7.913 6.157 16.594 10.586 16.612 10.595l0.229 0.117-3.911 5.026-0.157-0.087zm-16.542-11.737c8.545 6.656 15.469 10.644 16.589 11.275l3.372-4.334c-1.423-0.743-9.253-4.919-16.453-10.521-7.504-5.845-12.637-11.533-13.614-12.645l-3.264 4.184c0.849 0.905 6.01 6.32 13.37 12.041z" fill="#4d4d4d"/>
   </g>
   <path id="path3254" d="m-80.52 164.42s11.205-12.022 22.174-25.259l0.47909 0.14793s22.747-24.929 17.183-26.947c0 0-2.782-5.5094-24.601 21.001l-0.04196 0.39783c-10.067 11.61-21.253 25.766-21.253 25.766-8.64 12.42-13.77 21.6-13.346 22.487 0.57673 1.2059 19.44-17.473 19.407-17.594z" fill="url(#radialGradient3890)" fill-rule="evenodd"/>
   <path id="path2430" d="m-86.948 159.76c2.4493 2.5072 6.4415 5.0529 6.4415 5.0529l0.79072-1.0029c-2.709-1.4158-6.48-5.0143-6.48-5.0143l-0.75215 0.96428z" fill="url(#radialGradient3892)" fill-rule="evenodd"/>
   <path id="path3236" d="m-65.762 133.69c4.32 2.7579 7.7143 6.0943 7.7143 6.0943l0.57857-0.675c-2.304-2.4379-7.7233-6.1263-7.7233-6.1263l-0.56961 0.70696z" fill="url(#radialGradient3894)" fill-rule="evenodd"/>
   <path id="path3240" d="m-42.031 111.66c2.2757 0.19285 2.6614 2.1986 2.6614 2.1986-10.376 10.8-25.573 26.499-25.573 26.499l-0.77143-0.65572c13.384-16.046 23.683-28.042 23.683-28.042" fill="url(#radialGradient3896)" fill-rule="evenodd"/>
  </g>
  <path id="path3944" d="m28.783 14.582s-0.0777 0.02348-0.0798 0.02413c-0.51095-0.22244-2.0689-0.27637-6.844 1.3197-0.0024-0.0055-0.02079-0.04073-0.02079-0.04073l-0.18952 0.06656c0.01236 0.02597 0.02289 0.05135 0.03494 0.07731-3.1609 0.97278-6.619 2.2062-6.8952 2.3049-6.8e-5 -3.52e-4 -0.0025-0.0108-0.0025-0.0108l0.0017-0.01745-0.01496 0.0091c-4e-5 -4.01e-4 -0.0025-0.0108-0.0025-0.0108l-0.25187 0.09236c7.78e-4 0.0035 0.0018 0.0073 0.0025 0.0108l-0.0108 0.0025 0.0025 0.0108c4e-6 1.8e-5 0.0047 0.02014 5e-3 0.02161-3.0673 1.319-5.0958 2.429-5.1202 2.646-0.032896 0.29198 5.4743-0.94108 5.7126-1.0184 0.0049 9e-3 0.02993 0.05565 0.02994 0.05569l0.0066 0.0041 0.27764-0.104-0.0025-0.01081c-2.5e-5 -4e-5 -0.01053-0.02388-0.01164-0.02576 0.56231-0.15268 3.6385-0.99786 6.9493-2.0954 0.0182 0.06868 0.03246 0.14048 0.03246 0.14048l0.18952-0.06656c-0.0021-0.01006-0.0053-0.02213-0.0075-0.03241 0.24224-0.06822 5.3538-1.5134 6.2974-2.5765 0.06455-0.01627 0.09198-0.02561 0.15545-0.04161 0 0 0.16651-0.42751-0.2438-0.73483z" fill="url(#linearGradient3946)" opacity=".4"/>
 </g>
</svg>
