<?xml version="1.0" encoding="UTF-8"?>
<!-- Created with Inkscape (http://www.inkscape.org/) -->
<svg id="svg2" width="24" height="24" version="1.1" xmlns="http://www.w3.org/2000/svg" xmlns:cc="http://creativecommons.org/ns#" xmlns:dc="http://purl.org/dc/elements/1.1/" xmlns:rdf="http://www.w3.org/1999/02/22-rdf-syntax-ns#" xmlns:xlink="http://www.w3.org/1999/xlink">
 <defs id="defs4">
  <linearGradient id="linearGradient3335" x1="11.375" x2="11.375" y1="22" y2="-9.8173" gradientUnits="userSpaceOnUse">
   <stop id="stop3330" offset="0"/>
   <stop id="stop3333" stop-opacity="0" offset="1"/>
  </linearGradient>
  <linearGradient id="linearGradient3181" x1="-3.0608" x2="-3.0608" y1="27.258" y2="7.2537" gradientTransform="translate(12.119 -27.258)" gradientUnits="userSpaceOnUse">
   <stop id="stop4600" stop-color="#e6eef7" offset="0"/>
   <stop id="stop4602" stop-color="#8ab0d8" offset="1"/>
  </linearGradient>
  <filter id="filter3194" x="-.18" y="-.18" width="1.36" height="1.36" color-interpolation-filters="sRGB">
   <feGaussianBlur id="feGaussianBlur3196" stdDeviation="1.2"/>
  </filter>
  <clipPath id="clipPath2849">
   <rect id="rect2851" x="1" y="1" width="20" height="20" rx="2" ry="2" fill="#fff" fill-rule="evenodd"/>
  </clipPath>
  <linearGradient id="linearGradient3650" x1="24.689" x2="53.568" y1="24.109" y2="24.109" gradientTransform="matrix(.5441 0 0 .5483 -1.4334 -3.1542)" gradientUnits="userSpaceOnUse">
   <stop id="stop4592" stop-color="#c00" offset="0"/>
   <stop id="stop4594" stop-color="#ffa2a2" offset="1"/>
  </linearGradient>
  <linearGradient id="linearGradient3845" x1="11" x2="21" y1="19.5" y2="19.5" gradientTransform="translate(1,-1)" gradientUnits="userSpaceOnUse" spreadMethod="reflect">
   <stop id="stop3833" stop-color="#fff" offset="0"/>
   <stop id="stop3821" stop-color="#fff" stop-opacity=".49804" offset=".75"/>
   <stop id="stop3835" stop-color="#fff" stop-opacity="0" offset="1"/>
  </linearGradient>
  <linearGradient id="linearGradient3915" x1="10" x2="10" y1="1" y2="16" gradientTransform="translate(1,-1)" gradientUnits="userSpaceOnUse">
   <stop id="stop3825" stop-color="#fff" offset="0"/>
   <stop id="stop3829" stop-color="#fff" stop-opacity="0" offset="1"/>
  </linearGradient>
 </defs>
 <metadata id="metadata7">
  <rdf:RDF>
   <cc:Work rdf:about="">
    <dc:format>image/svg+xml</dc:format>
    <dc:type rdf:resource="http://purl.org/dc/dcmitype/StillImage"/>
   </cc:Work>
  </rdf:RDF>
 </metadata>
 <g id="layer1" transform="translate(0,2)">
  <g id="g3337" transform="translate(1,-1)">
   <rect id="rect3371" x=".5" y=".5" width="21" height="21.5" rx="2.5" ry="2.5" fill="url(#linearGradient3335)" opacity=".3"/>
   <rect id="rect2553" x="1" y="2" width="20" height="20" rx="2.381" ry="2.3256" opacity=".5"/>
  </g>
  <rect id="rect3173" transform="scale(1,-1)" x="2" y="-20" width="20" height="20" rx="2" ry="2" fill="url(#linearGradient3181)" fill-rule="evenodd"/>
  <path id="rect3050" d="m4 0c-1.108 0-2 0.892-2 2v16c0 1.108 0.892 2 2 2h16c1.108 0 2-0.892 2-2v-16c0-1.108-0.892-2-2-2h-16zm0 1.0312h16c0.5497 0 0.96875 0.41905 0.96875 0.96875v16c0 0.5497-0.41905 0.96875-0.96875 0.96875h-16c-0.5497 0-0.96875-0.41905-0.96875-0.96875v-16c0-0.5497 0.41905-0.96875 0.96875-0.96875z" fill="url(#linearGradient3915)" fill-rule="evenodd" opacity=".5"/>
  <path id="path3235" d="m4 20c-1.108 0-2-0.892-2-2v-1c0 1.108 0.892 2 2 2h16c1.108 0 2-0.892 2-2v1c0 1.108-0.892 2-2 2h-16z" fill="url(#linearGradient3845)" fill-rule="evenodd" opacity=".25"/>
 </g>
 <g id="layer2" transform="translate(0,2)">
  <rect id="rect2410" transform="translate(1,-1)" x="3" y="3" width="16" height="16" rx="2" ry="2" clip-path="url(#clipPath2849)" fill="#fff" filter="url(#filter3194)" opacity=".15"/>
 </g>
 <g id="layer3" transform="translate(0,2)">
  <path id="path3792" d="m2 17.188c2.5245-2.2236 13.413-12.361 10.67-12.584-1.4232-0.11603-4.7571 0.80797-6.2445 3.6131-2.7849 5.2523 3.4934 6.0226 6.1002 5.7046 4.2711-0.67053 9.4744-3.4656 9.4744-3.4656l-3e-3 2.8521c-9.1541 2.6089-14.971 2.262-18.161-0.86175-3.1035-3.039 4.309-9.898 10.316-9.2669 6.2017 0.65158-12.151 14.009-12.151 14.009z" color="#000000" fill="url(#linearGradient3650)"/>
  <path id="path3652" transform="translate(0,-2)" d="m12.656 6.5938c-1.4232-0.11603-4.7314 0.81987-6.2188 3.625-0.58921 1.1112-0.75782 2.0079-0.65625 2.75 0.089762-0.5231 0.30813-1.0935 0.65625-1.75 1.4874-2.8051 4.7955-3.741 6.2188-3.625 0.09833 0.00802 0.18569 0.029829 0.25 0.0625 0.29915-0.62145 0.26434-1.0206-0.25-1.0625zm2.6562 0.1875c-0.67439 1.8704-4.0838 5.0244-7.2812 7.6875-0.21499 0.21743-0.43974 0.40961-0.65625 0.625 0.22212 0.12282 0.44005 0.24981 0.6875 0.34375 3.8783-3.2329 8.0284-7.1644 7.25-8.6562zm-12.156 6.4375c-0.13461 0.83431 0.059338 1.6036 0.6875 2.2188 0.36212 0.35459 0.75664 0.68598 1.1875 0.96875 0.21645-0.2052 0.43113-0.40896 0.65625-0.625-0.69284-0.36849-1.3045-0.81569-1.8438-1.3438-0.37087-0.36316-0.59663-0.76579-0.6875-1.2188zm18.844 2.0938c-7.2856 2.0764-12.459 2.2655-15.875 0.6875-0.25795 0.20564-0.50632 0.43357-0.75 0.625 0.10131 0.05946 0.20761 0.10046 0.3125 0.15625-1.5566 1.4938-2.9727 2.7766-3.6875 3.4062 0 0 1.8462-1.3709 4.125-3.1875 3.4161 1.578 8.5894 1.3889 15.875-0.6875v-1z" color="#000000" fill="#fff" opacity=".5"/>
  <path id="path3661" transform="translate(0,-2)" d="m13 4.1562c-4.9853 0.21207-10.381 4.8985-9.8438 8 0.5888-3.2794 6.2381-7.4691 11-6.9688 0.64335 0.067593 0.99348 0.2818 1.1562 0.59375 0.31657-0.87798 0.034974-1.4686-1.1562-1.5938-0.37541-0.039442-0.77277-0.047563-1.1562-0.03125zm-0.09375 2.5c-0.7403 1.5379-3.4881 4.4761-6.125 7.0625-0.53065-0.42432-0.88696-0.97906-1-1.6875-0.18697 1.2082 0.24321 2.0824 1 2.6875 0.20856-0.20457 0.38439-0.41673 0.59375-0.625-0.020051-0.01109-0.0427-0.01992-0.0625-0.03125 0.23846-0.19519 0.47663-0.39209 0.71875-0.59375 3.0646-3.0993 5.8456-6.3194 4.875-6.8125zm9.0938 4.8125s-5.1976 2.767-9.4688 3.4375c-1.1405 0.13912-2.9892 0.09293-4.4688-0.46875-0.25339 0.21122-0.50056 0.42082-0.75 0.625 1.5506 0.88762 3.8703 1.0082 5.2188 0.84375 4.2711-0.67053 9.4688-3.4375 9.4688-3.4375v-1zm-16.969 3.9375c-1.2802 1.2137-2.4198 2.2427-3.0312 2.7812 0 0 1.466-1.0628 3.375-2.5625-0.1185-0.06956-0.23012-0.14418-0.34375-0.21875z" color="#000000" opacity=".2"/>
 </g>
</svg>
