<?xml version="1.0" encoding="UTF-8"?>
<!-- Created with Inkscape (http://www.inkscape.org/) -->
<svg id="svg2" width="22" height="22" version="1.1" xmlns="http://www.w3.org/2000/svg" xmlns:cc="http://creativecommons.org/ns#" xmlns:dc="http://purl.org/dc/elements/1.1/" xmlns:rdf="http://www.w3.org/1999/02/22-rdf-syntax-ns#" xmlns:xlink="http://www.w3.org/1999/xlink">
 <defs id="defs4">
  <linearGradient id="linearGradient3181" x1="-3.0608" x2="-3.0608" y1="27.258" y2="7.2537" gradientTransform="translate(11.119 -6.2582)" gradientUnits="userSpaceOnUse" xlink:href="#ButtonColor"/>
  <filter id="filter8716" x="-.26984" y="-.54066" width="1.5397" height="2.0813">
   <feGaussianBlur id="feGaussianBlur8718" stdDeviation="2.0210388"/>
  </filter>
  <linearGradient id="ButtonColor" x1="10.32" x2="10.32" y1="21" y2=".9993" gradientUnits="userSpaceOnUse">
   <stop id="stop3189" stop-color="#dcdcdc" offset="0"/>
   <stop id="stop3191" stop-color="#f0f0f0" offset="1"/>
  </linearGradient>
  <linearGradient id="linearGradient4114" x1="10.212" x2="19" y1="10.212" y2="19" gradientTransform="translate(-30)" gradientUnits="userSpaceOnUse">
   <stop id="stop3226" stop-color="#fff" stop-opacity="0" offset="0"/>
   <stop id="stop3228" stop-color="#c1c1c1" offset=".78712"/>
   <stop id="stop3230" stop-color="#fff" offset="1"/>
  </linearGradient>
  <filter id="filter4131">
   <feGaussianBlur id="feGaussianBlur4133" stdDeviation="0.36030058"/>
  </filter>
  <clipPath id="clipPath2873">
   <rect id="rect2875" x=".86592" y="-.38933" width="22.682" height="22.682" rx="2.2682" ry="2.2682" fill="url(#linearGradient2877)" fill-rule="evenodd"/>
  </clipPath>
  <linearGradient id="linearGradient2877" x1="-3.0608" x2="-3.0608" y1="27.258" y2="7.2537" gradientTransform="matrix(1.1341 0 0 1.1341 12.342 -8.6207)" gradientUnits="userSpaceOnUse" xlink:href="#ButtonColor"/>
  <linearGradient id="linearGradient3684" x1="11.375" x2="11.375" y1="22" y2="-9.8173" gradientUnits="userSpaceOnUse">
   <stop id="stop3330" offset="0"/>
   <stop id="stop3333" stop-opacity="0" offset="1"/>
  </linearGradient>
  <linearGradient id="linearGradient3705" x1="9.4364" x2="9.4364" y1="7.914" y2="1.0162" gradientUnits="userSpaceOnUse">
   <stop id="stop3701" stop-color="#c83737" offset="0"/>
   <stop id="stop3703" stop-color="#d42b2b" offset="1"/>
  </linearGradient>
  <linearGradient id="linearGradient3823">
   <stop id="stop3825" stop-color="#fff" offset="0"/>
   <stop id="stop3829" stop-color="#fff" stop-opacity="0" offset="1"/>
  </linearGradient>
  <linearGradient id="linearGradient3845" x1="11" x2="21" y1="19.5" y2="19.5" gradientUnits="userSpaceOnUse" spreadMethod="reflect">
   <stop id="stop3833" stop-color="#fff" offset="0"/>
   <stop id="stop3821" stop-color="#fff" stop-opacity=".49804" offset=".75"/>
   <stop id="stop3835" stop-color="#fff" stop-opacity="0" offset="1"/>
  </linearGradient>
  <linearGradient id="linearGradient3859" x1="10" x2="10" y1="1" y2="16" gradientTransform="translate(-30)" gradientUnits="userSpaceOnUse" xlink:href="#linearGradient3823"/>
  <linearGradient id="linearGradient3856" x1="9.3317" x2="9.3317" y1="1.198" y2="15.185" gradientUnits="userSpaceOnUse" xlink:href="#linearGradient3823"/>
 </defs>
 <metadata id="metadata7">
  <rdf:RDF>
   <cc:Work rdf:about="">
    <dc:format>image/svg+xml</dc:format>
    <dc:type rdf:resource="http://purl.org/dc/dcmitype/StillImage"/>
   </cc:Work>
  </rdf:RDF>
 </metadata>
 <g id="layer1">
  <rect id="rect3371" x=".5" y=".5" width="21" height="21.5" rx="2.5" ry="2.5" fill="url(#linearGradient3684)" opacity=".3"/>
  <path id="rect2553" d="m3.375 2c-1.319 0-2.375 1.0241-2.375 2.3125v15.375c0 1.2884 1.056 2.3125 2.375 2.3125h15.25c1.319 0 2.375-1.0241 2.375-2.3125v-15.375c0-1.2884-1.056-2.3125-2.375-2.3125h-0.625c0 0.82843-0.67157 1.5-1.5 1.5s-1.5-0.67157-1.5-1.5h-8c0 0.82843-0.67157 1.5-1.5 1.5s-1.5-0.67157-1.5-1.5h-0.625z" opacity=".5"/>
  <path id="rect3173" d="m3 1c-1.108 0-2 0.892-2 2v16c0 1.108 0.892 2 2 2h16c1.108 0 2-0.892 2-2v-16c0-1.108-0.892-2-2-2h-2.5c0.82843 0 1.5 0.67157 1.5 1.5s-0.67157 1.5-1.5 1.5-1.5-0.67157-1.5-1.5 0.67157-1.5 1.5-1.5h-11c0.82843 0 1.5 0.67157 1.5 1.5s-0.67157 1.5-1.5 1.5-1.5-0.67157-1.5-1.5 0.67157-1.5 1.5-1.5h-2.5z" fill="url(#linearGradient3181)" fill-rule="evenodd"/>
  <path id="path4120" d="m-9 3c0 5.4683 0.06708 11.881-1.9375 16.062-3.623 1.3118-10.377 1.9375-16.062 1.9375 5.6857 0 13.315 0.24941 17.062-0.8125 1.063-3.9317 0.9375-11.719 0.9375-17.188z" fill="#606060" fill-rule="evenodd" filter="url(#filter4131)" opacity=".8"/>
  <path id="rect4105" d="m-27 1h16c1.108 0 2 0.892 2 2 0 5.4683 0.06704 11.882-1.9375 16.064-3.623 1.3118-10.377 1.9364-16.062 1.9364-1.1072-0.04174-2-0.892-2-2v-16c0-1.108 0.892-2 2-2z" fill="url(#linearGradient4114)" fill-rule="evenodd"/>
  <path id="path3199" d="m3 1c-1.108 0-2 0.892-2 2v4.9375h19.969c0.022069-1.3817 0.03125-3.6211 0.03125-4.9375 0-1.108-0.892-2-2-2h-2.5c0.82843 0 1.5 0.67157 1.5 1.5s-0.67157 1.5-1.5 1.5-1.5-0.67157-1.5-1.5 0.67157-1.5 1.5-1.5h-11c0.82843 0 1.5 0.67157 1.5 1.5s-0.67157 1.5-1.5 1.5-1.5-0.67157-1.5-1.5 0.67157-1.5 1.5-1.5h-2.5z" fill="url(#linearGradient3705)" fill-rule="evenodd"/>
  <rect id="rect3200" transform="matrix(.88177 0 0 .88177 .23645 1.3433)" x="2" y="1.98" width="17.976" height="8.9714" rx="2" ry="2" clip-path="url(#clipPath2873)" fill="#fff" filter="url(#filter8716)" opacity=".2"/>
  <path id="path3666" d="m10.784 13.991c-8e-6 0.74458-0.0856 1.373-0.25678 1.8854-0.17119 0.50867-0.40946 0.9215-0.71481 1.2385-0.30074 0.31331-0.6593 0.54-1.0757 0.68007-0.41177 0.13638-0.86287 0.20457-1.3533 0.20457-0.49042 0-0.94152-0.068191-1.3533-0.20457-0.41177-0.13638-0.76571-0.36123-1.0618-0.67454-0.2961-0.317-0.52744-0.72983-0.69399-1.2385-0.16656-0.51235-0.24984-1.1427-0.24984-1.8909-5e-7 -0.78511 0.080966-1.4338 0.2429-1.9462 0.16656-0.51603 0.4002-0.92702 0.70093-1.233 0.30073-0.30593 0.65929-0.51972 1.0757-0.64136 0.42102-0.12532 0.88599-0.18798 1.3949-0.18799 0.47654 7.9e-6 0.91838 0.06267 1.3255 0.18799 0.41176 0.12165 0.7657 0.33543 1.0618 0.64136 0.30072 0.30594 0.53437 0.71693 0.70093 1.233 0.17118 0.51236 0.25677 1.1611 0.25678 1.9462m-1.9571 0c-5.4e-6 -0.54921-0.025451-1.0026-0.076339-1.3601-0.050898-0.36122-0.13186-0.64689-0.2429-0.857-0.11104-0.21378-0.25678-0.36306-0.43722-0.44785-0.17582-0.084772-0.39095-0.12716-0.64541-0.12717-0.27297 7e-6 -0.50199 0.04424-0.68705 0.1327-0.18507 0.08478-0.33543 0.23407-0.4511 0.44785-0.11104 0.21379-0.19201 0.5013-0.2429 0.86252-0.046268 0.35755-0.069401 0.80724-0.069399 1.3491-2.5e-6 0.53447 0.025444 0.98048 0.076339 1.338 0.05089 0.35754 0.13186 0.64505 0.2429 0.86252 0.11104 0.21379 0.25677 0.36492 0.43722 0.45338 0.18043 0.08847 0.40251 0.1327 0.66623 0.1327 0.25446 1e-6 0.47191-0.04423 0.65235-0.1327 0.18043-0.08846 0.32848-0.23959 0.44416-0.45338 0.11566-0.21747 0.19894-0.50498 0.24984-0.86252 0.055515-0.35754 0.083274-0.80354 0.083279-1.338" opacity=".7"/>
  <path id="path3668" d="m12.091 18.066v-1.5682h1.9069v-4.5473l-1.8688 0.63658v-1.2219l1.9517-1.3545h1.9704v6.4871h1.9032v1.5682h-5.8635" opacity=".7"/>
  <path id="path3656" d="m26.344 3.0625v0.65625h0.78125v2.0312c-2e-6 0.20414-0.03964 0.35926-0.125 0.46875-0.08351 0.10949-0.21169 0.1875-0.375 0.1875-0.07238 1e-6 -0.15751-0.010836-0.21875-0.03125-0.061242-0.022268-0.108-0.078605-0.15625-0.125-0.046396-0.04825-0.091597-0.082018-0.125-0.15625-0.033405-0.076086-0.043943-0.17176-0.0625-0.28125l-0.8125 0.09375c0.03712 0.20228 0.08388 0.38836 0.15625 0.53125 0.07423 0.14104 0.16805 0.25467 0.28125 0.34375 0.1132 0.089077 0.25222 0.14667 0.40625 0.1875 0.15403 0.040827 0.33454 0.0625 0.53125 0.0625 0.21341-1e-7 0.39919-0.034365 0.5625-0.09375 0.16516-0.061241 0.2949-0.13865 0.40625-0.25 0.1132-0.1132 0.19247-0.24665 0.25-0.40625 0.05753-0.16145 0.09375-0.33268 0.09375-0.53125v-2.6875h-1.5938zm3.9062 0-1.4375 3.9062h0.84375l0.34375-1h1.4688l0.375 1h0.8125l-1.4375-3.9062h-0.96875zm3.3125 0v3.9062h0.71875v-2.3125c-1e-4 -0.074229 0.0056-0.13709 0-0.21875-0.00371-0.081652-0.02385-0.14823-0.03125-0.21875-0.0074-0.081651-0.02195-0.16834-0.03125-0.25l1.7188 3h0.96875v-3.9062h-0.75v2.2812c0 0.09279 0.02755 0.19032 0.03125 0.28125 0.0056 0.090934-0.0074 0.17763 0 0.25 0.0074 0.085367 0.02195 0.14081 0.03125 0.21875l-1.7188-3.0312h-0.9375zm-2.8125 0.59375c0.0019 0.00372-0.0093 0.027243 0 0.0625 0.01113 0.035263 0.0164 0.10058 0.03125 0.15625 0.0167 0.053821 0.04208 0.089445 0.0625 0.15625l0.0625 0.21875 0.40625 1.125h-1.125l0.375-1.125c0.02226-0.064949 0.04209-0.1538 0.0625-0.21875 0.02226-0.066805 0.04765-0.10243 0.0625-0.15625 0.0167-0.053814 0.02195-0.12099 0.03125-0.15625 0.0093-0.035257 0.02935-0.05693 0.03125-0.0625z" fill="#008080"/>
  <path id="path3655" d="m5.5-9c-0.82843 0-1.5 0.67157-1.5 1.5s0.67157 1.5 1.5 1.5 1.5-0.67157 1.5-1.5-0.67157-1.5-1.5-1.5zm11 0c-0.82843 0-1.5 0.67157-1.5 1.5s0.67157 1.5 1.5 1.5 1.5-0.67157 1.5-1.5-0.67157-1.5-1.5-1.5z" fill="#ff0"/>
  <path id="rect3050" d="m-27 1c-1.108 0-2 0.892-2 2v16c0 1.108 0.892 2 2 2h16c1.108 0 2-0.892 2-2v-16c0-1.108-0.892-2-2-2h-16zm0 1.0312h16c0.5497 0 0.96875 0.41905 0.96875 0.96875v16c0 0.5497-0.41905 0.96875-0.96875 0.96875h-16c-0.5497 0-0.96875-0.41905-0.96875-0.96875v-16c0-0.5497 0.41905-0.96875 0.96875-0.96875z" fill="url(#linearGradient3859)" fill-rule="evenodd" opacity=".6"/>
  <path id="path3235" d="m3 21c-1.108 0-2-0.892-2-2v-1c0 1.108 0.892 2 2 2h16c1.108 0 2-0.892 2-2v1c0 1.108-0.892 2-2 2h-16z" fill="url(#linearGradient3845)" fill-rule="evenodd" opacity=".35"/>
  <path id="path3843" d="m3 1c-1.108 0-2 0.892-2 2v16c0 1.108 0.892 2 2 2h16c1.108 0 2-0.892 2-2v-16c0-1.108-0.892-2-2-2h-2.5c0.82843 0 1.5 0.67157 1.5 1.5s-0.67157 1.5-1.5 1.5-1.5-0.67157-1.5-1.5 0.67157-1.5 1.5-1.5h-11c0.82843 0 1.5 0.67157 1.5 1.5s-0.67157 1.5-1.5 1.5-1.5-0.67157-1.5-1.5 0.67157-1.5 1.5-1.5h-2.5zm0 1h0.21875c-0.043659 0.18306-0.21875 0.30459-0.21875 0.5 0 1.3634 1.1366 2.5 2.5 2.5s2.5-1.1366 2.5-2.5c0-0.19541-0.17509-0.31694-0.21875-0.5h6.4375c-0.043659 0.18306-0.21875 0.30459-0.21875 0.5 0 1.3634 1.1366 2.5 2.5 2.5s2.5-1.1366 2.5-2.5c0-0.19541-0.17509-0.31694-0.21875-0.5h0.21875c0.57668 0 1 0.42332 1 1v16c0 0.57668-0.42332 1-1 1h-16c-0.57668 0-1-0.42332-1-1v-16c0-0.57668 0.42332-1 1-1z" fill="url(#linearGradient3856)" fill-rule="evenodd" opacity=".25"/>
 </g>
</svg>
