<?xml version="1.0" encoding="UTF-8"?>
<!-- Created with Inkscape (http://www.inkscape.org/) -->
<svg id="svg2" width="24" height="24" version="1.1" xmlns="http://www.w3.org/2000/svg" xmlns:cc="http://creativecommons.org/ns#" xmlns:dc="http://purl.org/dc/elements/1.1/" xmlns:rdf="http://www.w3.org/1999/02/22-rdf-syntax-ns#" xmlns:xlink="http://www.w3.org/1999/xlink">
 <defs id="defs4">
  <linearGradient id="linearGradient3181" x1="-3.0608" x2="-3.0608" y1="27.258" y2="7.2537" gradientTransform="translate(12.119 -7.2582)" gradientUnits="userSpaceOnUse">
   <stop id="stop3189" stop-color="#5a9b0f" offset="0"/>
   <stop id="stop3191" stop-color="#8fe02f" offset="1"/>
  </linearGradient>
  <linearGradient id="linearGradient4025" x1="11.375" x2="11.375" y1="22" y2="-9.8173" gradientTransform="translate(1,-1)" gradientUnits="userSpaceOnUse">
   <stop id="stop3330" offset="0"/>
   <stop id="stop3333" stop-opacity="0" offset="1"/>
  </linearGradient>
  <linearGradient id="linearGradient4391">
   <stop id="stop4393" stop-color="#fff" offset="0"/>
   <stop id="stop4395" stop-color="#fff" stop-opacity="0" offset="1"/>
  </linearGradient>
  <radialGradient id="radialGradient4438" cx="36.155" cy="38.149" r="11.341" gradientTransform="matrix(-1.1448 0 0 -1.474 75.162 95.096)" gradientUnits="userSpaceOnUse" xlink:href="#linearGradient4391"/>
  <radialGradient id="radialGradient4456" cx="56.271" cy="42.187" r="9.7675" gradientTransform="matrix(1.2075e-7 2.2032 -2.009 1.2802e-7 141.02 -84.464)" gradientUnits="userSpaceOnUse" xlink:href="#linearGradient4391"/>
  <linearGradient id="linearGradient3892" x1="10" x2="10" y1="1" y2="15.101" gradientTransform="translate(1,-1)" gradientUnits="userSpaceOnUse" xlink:href="#linearGradient4391"/>
  <linearGradient id="linearGradient5235" x1=".88063" x2="9.8086" y1="23.301" y2="23.301" gradientTransform="translate(12.119 -7.2582)" gradientUnits="userSpaceOnUse" xlink:href="#linearGradient4391" spreadMethod="reflect"/>
  <radialGradient id="radialGradient4009" cx="7.5" cy="8.5" r="4.5" gradientUnits="userSpaceOnUse">
   <stop id="stop4287" stop-color="#fff" offset="0"/>
   <stop id="stop5732" stop-color="#fff" stop-opacity=".70866" offset=".5"/>
   <stop id="stop4289" stop-color="#fff" stop-opacity="0" offset="1"/>
  </radialGradient>
  <linearGradient id="linearGradient4239">
   <stop id="stop5734" stop-color="#e2f39e" stop-opacity="0" offset="0"/>
   <stop id="stop5736" stop-color="#e0f298" stop-opacity=".41732" offset=".3"/>
   <stop id="stop4243" stop-color="#e0f297" stop-opacity=".25197" offset="1"/>
  </linearGradient>
  <linearGradient id="linearGradient4111" x1="11.469" x2="8" y1="16.422" gradientTransform="matrix(.24194 0 0 .24194 .29423 -1.8326)" gradientUnits="userSpaceOnUse" xlink:href="#linearGradient4239"/>
  <linearGradient id="linearGradient4113" x1="32" x2="39" y1="16" y2="6" gradientTransform="matrix(.24194 0 0 .24194 .29423 -1.8326)" gradientUnits="userSpaceOnUse" xlink:href="#linearGradient4239"/>
  <linearGradient id="linearGradient4115" x1="42" x2="70" y1="23" y2="1" gradientTransform="matrix(.24194 0 0 .24194 .29423 -1.8326)" gradientUnits="userSpaceOnUse" xlink:href="#linearGradient4239"/>
  <linearGradient id="linearGradient4117" x1="44" x2="96" y1="36" y2="24" gradientTransform="matrix(.24194 0 0 .24194 .29423 -1.8326)" gradientUnits="userSpaceOnUse" xlink:href="#linearGradient4239"/>
  <linearGradient id="linearGradient4119" x1="42" x2="96" y1="45" y2="48" gradientTransform="matrix(.24194 0 0 .24194 .29423 -1.8326)" gradientUnits="userSpaceOnUse" xlink:href="#linearGradient4239"/>
  <linearGradient id="linearGradient4121" x1="36" x2="82" y1="51" y2="76" gradientTransform="matrix(.24194 0 0 .24194 .29423 -1.8326)" gradientUnits="userSpaceOnUse" xlink:href="#linearGradient4239"/>
  <linearGradient id="linearGradient4123" x1="32" x2="48" y1="56" y2="72" gradientTransform="matrix(.24194 0 0 .24194 .29423 -1.8326)" gradientUnits="userSpaceOnUse" xlink:href="#linearGradient4239"/>
  <clipPath id="clipPath4159">
   <path id="path4161" d="m4 0c-1.108 0-2 0.892-2 2v12c0 1.108 0.892 2 2 2h3.0625l-1.0625 4.125 6.8125-4.125h7.1875c1.108 0 2-0.892 2-2v-12c0-1.108-0.892-2-2-2h-16z" fill="#f0f" fill-rule="evenodd"/>
  </clipPath>
 </defs>
 <metadata id="metadata7">
  <rdf:RDF>
   <cc:Work rdf:about="">
    <dc:format>image/svg+xml</dc:format>
    <dc:type rdf:resource="http://purl.org/dc/dcmitype/StillImage"/>
    <dc:title/>
   </cc:Work>
  </rdf:RDF>
 </metadata>
 <g id="layer1" transform="translate(0,2)">
  <path id="rect3371" d="m4-0.5c-1.385 0-2.5 1.115-2.5 2.5v12.5c0 1.385 1.115 2.5 2.5 2.5h2.2188l-1.1562 4 6.6562-4h8.2812c1.385 0 2.5-1.115 2.5-2.5v-12.5c0-1.385-1.115-2.5-2.5-2.5h-16z" fill="url(#linearGradient4025)" opacity=".3"/>
  <path id="rect2553" d="m4.375 1c-1.319 0-2.375 1.0241-2.375 2.3125v11.375c0 1.2884 1.056 2.3125 2.375 2.3125h2.1562l-1.0625 3.5938 6-3.5938h8.1562c1.319 0 2.375-1.0241 2.375-2.3125v-11.375c0-1.2884-1.056-2.3125-2.375-2.3125h-15.25z" opacity=".5"/>
  <path id="rect3173" d="m4 0c-1.108 0-2 0.892-2 2v12c0 1.108 0.892 2 2 2h3.0625l-1.0625 4.125 6.8125-4.125h7.1875c1.108 0 2-0.892 2-2v-12c0-1.108-0.892-2-2-2h-16z" fill="url(#linearGradient3181)" fill-rule="evenodd"/>
  <path id="rect3050" d="m4 0c-1.108 0-2 0.892-2 2v12c0 1.108 0.892 2 2 2h16c1.108 0 2-0.892 2-2v-12c0-1.108-0.892-2-2-2zm0 1.0312h16c0.5497 0 0.96875 0.41905 0.96875 0.96875v12c0 0.5497-0.41905 0.96875-0.96875 0.96875h-16c-0.5497 0-0.96875-0.41905-0.96875-0.96875v-12c0-0.5497 0.41905-0.96875 0.96875-0.96875z" fill="url(#linearGradient3892)" fill-rule="evenodd" opacity=".3"/>
  <path id="path4718" d="m2 13v1c0 1.108 0.892 2 2 2h2.8125l0.25-1h-3.0625c-1.108 0-2-0.892-2-2zm20 0c0 1.108-0.892 2-2 2h-7.1875l-6.5 3.9375-0.3125 1.1875 6.8125-4.125h7.1875c1.108 0 2-0.892 2-2v-1z" fill="url(#linearGradient5235)" fill-rule="evenodd" opacity=".15"/>
 </g>
 <g id="layer2" transform="translate(0,2)">
  <g id="g4102" clip-path="url(#clipPath4159)">
   <path id="path5768" d="m3.1975-0.38098c-0.04274 0-0.086745 0.00399-0.12853 0.0076 0.53474 2.146 1.2248 4.9423 1.2248 5.0354l0.65022-5.043h-1.7465z" fill="url(#linearGradient4111)" opacity=".3"/>
   <path id="path5766" d="m7.8171-0.38098-2.2909 7.3339 4.9144-7.3339h-2.6236z" fill="url(#linearGradient4113)" opacity=".4"/>
   <path id="path5764" d="m14.047-0.38098-6.9785 7.47 11.356-7.47h-4.3776z" fill="url(#linearGradient4115)" opacity=".5"/>
   <path id="path5762" d="m22.069 1.8192-14.388 5.8898 14.388-2.2228v-3.6669z" fill="url(#linearGradient4117)" opacity=".5"/>
   <path id="path5760" d="m7.9608 8.7674 14.108 2.805v-2.7748l-14.108-0.030239z" fill="url(#linearGradient4119)" opacity=".5"/>
   <path id="path5758" d="m7.0308 9.4555 9.9877 6.6156h3.5989c0.63416 0 1.1699-0.40319 1.3685-0.96777l-14.955-5.6478z" fill="url(#linearGradient4121)" opacity=".4"/>
   <path id="path4224" d="m7.0686 10.34 3.8333 5.7537 0.0378-0.02269h1.7238l-5.5949-5.731z" fill="url(#linearGradient4123)" opacity=".3"/>
  </g>
  <path id="path3982" transform="matrix(1.1111 0 0 1.1111 -1.3333 -3.4444)" d="m12 8.5a4.5 4.5 0 1 1-9 0 4.5 4.5 0 1 1 9 0z" color="#000000" fill="url(#radialGradient4009)" opacity=".3"/>
  <path id="path4379" transform="matrix(.27078 0 0 .27078 -11.123 48.523)" d="m35.375 36.438c-0.80853 0.01273-1.5355 0.12047-1.9375 0.28125-0.0573 0.02657-2.1942 1.0002-4.2812 3.4375-2.0539 2.3987-3.9853 6.1992-3.7188 11.781l0.375 0.03125c0.02641-0.46083 0.08152-1.8732 0.4375-3.9375 0.20481-1.1877 0.51154-2.4149 0.90625-3.5s0.88062-2.0462 1.6562-2.5938a0.56322 0.56322 0 0 1 0.375-0.09375c0.4068 0.03698 0.73162 0.36193 0.875 0.6875s0.192 0.67959 0.21875 1.0938c0.0535 0.82833-0.01074 1.9055-0.0625 3.1562-0.10029 2.4233-0.14461 5.4936 0.65625 8.3438 0.24315 0.13711 2.4454 1.3088 5.6562 0.625-0.05386-4.1238 0.38124-7.0866 1.1562-9.1562 0.81067-2.1649 1.9683-3.4286 3.1875-4.0625 2.0671-1.0747 3.8516-0.42405 4.4375-0.1875l1.4062-1.6875c-0.33969-0.26252-1.0875-0.8463-2.2812-1.6875-0.71913-0.50676-1.4661-1.0048-2.0938-1.375-0.31381-0.18509-0.59216-0.33949-0.8125-0.4375-0.22034-0.09801-0.4034-0.125-0.375-0.125a0.56322 0.56322 0 0 1-0.09375 0s-3.2637-0.63192-5.6875-0.59375z" fill="url(#radialGradient4438)" opacity=".3"/>
  <path id="path4381" transform="matrix(.27078 0 0 .27078 -11.123 48.523)" d="m35.406 37.781c-0.69793 0.01099-1.2726 0.14485-1.4062 0.1875-0.0011 5.01e-4 -0.06007-0.0011-0.0625 0-0.12032 0.05632-1.81 0.91084-3.625 2.9688 0.46399 0.31056 0.84327 0.70664 1 1.0625 0.2604 0.59126 0.28083 1.0409 0.3125 1.5312 0.06334 0.98062-0.01123 2.0736-0.0625 3.3125-0.09254 2.236-0.02075 4.8897 0.5625 7.3438 0.59052 0.25404 1.5066 0.49924 3.0938 0.375 0.04962-3.5639 0.42026-6.4199 1.1875-8.4688 0.89865-2.3998 2.3023-3.9485 3.8438-4.75s3.0779-0.8333 4.2188-0.65625c-0.37011-0.27314-0.38826-0.2948-0.8125-0.59375-0.70222-0.49485-1.4278-1.0063-2-1.3438-0.28609-0.16874-0.54243-0.27922-0.6875-0.34375s-0.24902-0.03125 0.1875-0.03125a1.9168 1.9168 0 0 1-0.375-0.03125s-3.1957-0.59682-5.375-0.5625z" fill="url(#radialGradient4438)" opacity=".3"/>
  <path id="path4412" d="m56.562 37.469c-1.588-0.09552-3.4039 0.05355-5 0.34375a0.78178 0.78178 0 0 1-0.03125 0c-0.27762 0.0347-0.60757 0.26322-0.96875 0.875s-0.698 1.5473-0.96875 2.6875c-0.54151 2.2803-0.82163 5.348-0.96875 8.4062-0.27373 5.6901-0.06644 10.897-0.03125 11.656 1.6401 0.77521 2.7913 0.88513 3.4688 0.75 0.36792-0.07339 0.59643-0.18799 0.75-0.28125 0.15357-0.09326 0.1875-0.125 0.1875-0.125a0.78178 0.78178 0 0 1 0.03125-0.0625c-0.10486 0.09321 0.21173-0.33376 0.375-1.0312s0.29371-1.6754 0.4375-2.7812c0.28758-2.2117 0.56518-5.0039 0.875-7.7188s0.65705-5.3263 1.1875-7.2188c0.26523-0.94623 0.56581-1.7332 1.0312-2.3125 0.23272-0.28964 0.50815-0.5418 0.90625-0.65625 0.25493-0.07329 0.52176 0.03006 0.78125 0.09375v-0.03125c0.79167-0.07917 1.491 0.32121 2.0312 0.875s0.97339 1.2969 1.375 2.1562c0.80322 1.7186 1.4513 3.9431 1.9688 6.1875 0.96674 4.1934 1.4046 7.8698 1.4688 8.4062 0.08846-0.0042 0.26106 0.05634 0.3125 0.03125 0.11817-0.05764 0.26566-0.2072 0.375-0.4375 0.21868-0.4606 0.25-1.125 0.25-1.125a0.78178 0.78178 0 0 1 0-0.03125s0.26111-3.501-0.40625-7.5-2.2755-8.3535-5.6875-10.219a0.78178 0.78178 0 0 1-0.0625-0.03125c-0.68124-0.45416-2.0945-0.81043-3.6875-0.90625z" fill="url(#radialGradient4456)" opacity=".3"/>
  <path id="path4414" d="m56.531 38.344c-1.4998-0.09022-3.2817 0.03417-4.8125 0.3125a1.6504 1.6504 0 0 1-0.0625 0c0.08255-0.01032-0.0561-0.01848-0.34375 0.46875-0.28765 0.48722-0.61595 1.3466-0.875 2.4375-0.5181 2.1817-0.82297 5.2197-0.96875 8.25-0.26594 5.5282-0.01053 10.106 0.03125 11.031 1.149 0.44637 1.9614 0.55124 2.375 0.46875 0.21181-0.04225 0.31947-0.07881 0.40625-0.125 0.06118-0.12291 0.20581-0.39646 0.28125-0.71875 0.15088-0.64457 0.29552-1.5644 0.4375-2.6562 0.28396-2.1838 0.53235-5.0213 0.84375-7.75s0.65888-5.3463 1.2188-7.3438c0.27994-0.99871 0.57631-1.8331 1.1875-2.5938 0.3056-0.38035 0.74776-0.78843 1.375-0.96875 0.3084-0.08866 0.58812 0.08295 0.90625 0.125v-0.09375c1.1141-0.11141 2.0994 0.4893 2.75 1.1562s1.1053 1.4635 1.5312 2.375c0.85198 1.823 1.5067 4.0996 2.0312 6.375 0.44686 1.9384 0.39974 2.2894 0.65625 3.875-0.04522-1.2342-0.10869-2.5917-0.375-4.1875-0.64805-3.8833-2.1946-7.9718-5.2188-9.625a1.6504 1.6504 0 0 1-0.125-0.0625c-0.43523-0.29015-1.7397-0.65916-3.25-0.75z" fill="url(#radialGradient4456)" opacity=".3"/>
  <path id="path3980" transform="matrix(.97621 0 0 .97621 .10392 .11567)" d="m6.3438 0.90625c-0.11619-0.003765-0.24279 0.022148-0.3125 0.03125-0.23785 0.031261-0.4768 0.020301-0.75 0.0625-0.50403 0.077839-0.97324 0.25176-1.4375 0.4375-0.16922 0.067695-0.33425 0.13853-0.5 0.21875-0.035486 0.017174-0.1254 0.034845-0.21875 0.125-0.060703 0.058749-0.056144 0.0892-0.0625 0.125-0.0063558 0.0358-0.030201 0.082584-0.03125 0.09375-0.0080211 0.086411-0.021932 0.185-0.03125 0.28125-0.034691 0.35821-0.053252 0.72221 0 1.0938 0.00825 0.057502 0.025926 0.12641 0.0625 0.21875 0.036574 0.09234 0.10996 0.22814 0.25 0.25 0.1717 0.02687 0.31319-0.060008 0.40625-0.15625s0.17138-0.21566 0.21875-0.28125c0.24074-0.33337 0.5123-0.64435 0.875-0.78125 0.45276-0.17089 0.96983-0.21578 1.4688-0.25 1.3891-0.095207 2.9064 0.15655 3.9062 1.1562 0.14618 0.14616 0.2638 0.30763 0.375 0.46875 0.45148 0.65374 0.69614 1.3974 0.8125 2.1875 0.05484 0.37188 0.07962 0.74621 0 1.0938-0.14147 0.61745-0.52721 1.1823-0.96875 1.6562-0.30104 0.32314-0.6095 0.57322-0.96875 0.84375-0.19602 0.14758-0.42273 0.2917-0.625 0.46875-0.23622 0.20678-0.41766 0.48239-0.5625 0.75-0.39061 0.72211-0.52002 1.5768-0.40625 2.375 0.023645 0.16593 0.057994 0.31312 0.09375 0.46875-0.00225-0.0098-0.00323 0.01933 0 0.0625s0.00167 0.11068 0.0625 0.1875c0.061543 0.07769 0.15014 0.10667 0.21875 0.125 0.068613 0.01833 0.13764 0.02884 0.1875 0.03125 0.091415 0.0044 0.16301-0.04372 0.21875-0.09375 0.055736-0.05003 0.10578-0.11718 0.125-0.1875 0.046797-0.17133 0.022316-0.32686 0-0.46875-0.045465-0.28896-0.10528-0.58128-0.09375-0.84375 0.021871-0.49886 0.18694-0.95248 0.53125-1.3125 0.34744-0.3633 0.86517-0.56145 1.3125-0.90625 0.87696-0.67594 1.6917-1.6099 2-2.7188 0.11089-0.39915 0.14473-0.83639 0.09375-1.25-0.063842-0.51843-0.23556-1.0022-0.40625-1.4688-0.52902-1.4462-1.4697-2.8262-2.9375-3.5-0.58125-0.2668-1.1649-0.41417-1.7812-0.5-0.29652-0.041282-0.61973-0.049937-0.90625-0.0625-0.051603-0.002261-0.10752-0.027646-0.21875-0.03125zm-0.90625 5.9062c-0.1515 0.014637-0.27064 0.092737-0.375 0.15625a0.15026 0.15026 0 0 0-0.03125 0c-0.2244 0.13666-0.34316 0.3741-0.40625 0.59375-0.12433 0.43296-0.04805 0.88471 0.03125 1.2812 0.026237 0.13131 0.058106 0.25028 0.09375 0.375-2.107e-4 -7.366e-4 0.02739 0.031505 0.03125 0.0625s-0.00628 0.076989 0.03125 0.125c0.05239 0.067126 0.12155 0.10109 0.1875 0.125 0.065953 0.023911 0.14094 0.044348 0.21875 0.03125 0.099857-0.016782 0.17616-0.081911 0.21875-0.15625 0.04259-0.074339 0.05544-0.17583 0.0625-0.25 0.01412-0.14834 0.00319-0.27813 0-0.34375-0.018933-0.38931-0.092578-0.73996 0-1.0625 0.038928-0.13555 0.088022-0.23847 0.1875-0.28125 0.041013-0.017658 0.072158-0.00761 0.09375 0s0.049059 0.029343 0.0625 0.0625c0.070773 0.17457 0.027538 0.44783 0.09375 0.71875 0.016967 0.06945 0.046304 0.15194 0.09375 0.25 0.00585 0.012076 0.00671 0.03165 0.03125 0.0625 0.024536 0.03085 0.065965 0.10182 0.15625 0.09375 0.12257-0.011225 0.17388-0.07817 0.21875-0.125 0.044869-0.04683 0.091694-0.092052 0.09375-0.09375 0.1776-0.14677 0.34592-0.30781 0.53125-0.40625 0.03751-0.019924 0.1105-0.023168 0.15625-0.03125 0.045749-0.00808 0.062226-2.42e-4 0.0625 0 0.033323 0.029483 0.029355 0.028286 0.03125 0.03125 0.033381 0.052291 0.019657 0.069101 0 0.125-0.019657 0.055899-0.04948 0.11731-0.09375 0.21875-0.094397 0.21623-0.21069 0.40577-0.34375 0.59375-0.113 0.15969-0.26532 0.35058-0.375 0.5625-0.072929 0.14095-0.12592 0.29909-0.09375 0.46875 0.016379 0.08616 0.083907 0.16451 0.15625 0.21875 0.072343 0.05424 0.15589 0.08414 0.25 0.0625 0.14785-0.034 0.23059-0.14847 0.28125-0.21875 0.091291-0.12675 0.17145-0.26482 0.25-0.375 0.15539-0.21788 0.35033-0.45048 0.5-0.71875 0.1784-0.3198 0.28145-0.66788 0.28125-1.0312-6.04e-5 -0.1591-0.043098-0.35858-0.125-0.53125s-0.21795-0.33549-0.4375-0.375c-0.079979-0.01432-0.17185-0.013632-0.25 0-0.07895 0.013742-0.16007 0.050228-0.25 0.09375-0.2085 0.10087-0.38867 0.24863-0.53125 0.40625-0.010832 0.011961-0.02027 0.019116-0.03125 0.03125-0.027722-0.11598-0.084145-0.23967-0.15625-0.34375-0.1787-0.25788-0.48093-0.39534-0.78125-0.40625-0.037196-0.00135-0.068766-0.0055-0.125 0zm-1.5938 3.3125c-0.17298 0.02476-0.30164 0.11959-0.375 0.25s-0.09304 0.28802-0.0625 0.4375c0.076978 0.37654 0.36019 0.67088 0.625 0.875 0.66649 0.51372 1.5029 0.78681 2.3438 0.75 0.33149-0.01451 0.71791-0.10514 1.0312-0.25 0.12257-0.05664 0.20349-0.14866 0.25-0.28125 0.023256-0.06629 0.056893-0.13942 0.03125-0.21875-0.025643-0.079328-0.10723-0.1455-0.1875-0.1875-0.059792-0.031276-0.10212-0.034927-0.125-0.03125-0.13171-0.021547-0.24845 0.003886-0.34375 0.03125-0.15946 0.045784-0.32934 0.10263-0.46875 0.125-0.43285 0.069522-0.8949-0.027127-1.25-0.28125-0.29308-0.20981-0.54043-0.5115-0.78125-0.8125-0.061013-0.076258-0.13568-0.17159-0.21875-0.25s-0.20276-0.1454-0.34375-0.15625c-0.029504-0.0023-0.071814-0.0075-0.125 0zm-0.375 1.5625c-0.066585 0.0088-0.17243 0.01386-0.28125 0.09375-0.060652 0.04452-0.088536 0.11818-0.09375 0.1875-0.00521 0.06932 0.00906 0.14156 0.03125 0.1875 0.044385 0.09188 0.096879 0.15173 0.125 0.1875 0.20476 0.26018 0.46041 0.47345 0.71875 0.65625 0.7225 0.51106 1.5554 0.81452 2.4375 0.875 0.25608 0.01755 0.52399 0.01159 0.78125-0.03125 0.079034-0.013196 0.1921-0.037521 0.3125-0.09375 0.18748-0.087676 0.26445-0.29643 0.25-0.46875s-0.10738-0.32444-0.28125-0.40625c-0.087809-0.04129-0.17623-0.03557-0.25-0.03125-0.073767 0.0043-0.1438-0.0061-0.1875 0-0.21269 0.029654-0.43528 0.036639-0.65625 0.03125-0.56654-0.013867-1.1628-0.16227-1.6562-0.4375-0.19093-0.10658-0.36285-0.25802-0.53125-0.40625-0.036204-0.031866-0.095124-0.089563-0.15625-0.15625s-0.10758-0.14937-0.21875-0.1875c-0.10652-0.03655-0.16968-1.88e-4 -0.1875 0-0.028951 2.99e-4 -0.089428-0.0088-0.15625 0zm0.15625 1.3125c-0.16035 0.01796-0.26723 0.13242-0.34375 0.21875-0.03253 0.03669-0.080351 0.07691-0.125 0.1875-0.094921 0.23479-0.034293 0.48666 0.09375 0.65625 0.12804 0.16959 0.29615 0.28532 0.4375 0.375 0.30545 0.19375 0.66169 0.37961 1 0.5 0.75446 0.26851 1.6228 0.43711 2.4375 0.1875 0.25182-0.07709 0.50002-0.24242 0.6875-0.4375 0.059539-0.06196 0.13757-0.13837 0.15625-0.25 0.00934-0.05581 0.00582-0.12796-0.03125-0.1875-0.037068-0.059544-0.091412-0.10144-0.15625-0.125-0.10677-0.038753-0.21334 0.001774-0.28125 0.03125s-0.13003 0.083192-0.15625 0.09375c-0.20852 0.084095-0.44104 0.13022-0.65625 0.15625-0.27859 0.033778-0.51981-0.020515-0.8125-0.09375-0.25248-0.063127-0.48425-0.13133-0.71875-0.21875-0.19677-0.073364-0.3912-0.16005-0.5625-0.28125-0.080822-0.057178-0.15302-0.090123-0.15625-0.09375-0.13352-0.15022-0.26357-0.32642-0.4375-0.5-0.028163-0.028112-0.067913-0.080454-0.125-0.125s-0.14647-0.1053-0.25-0.09375z" fill="#fff"/>
 </g>
</svg>
