<?xml version="1.0" encoding="UTF-8"?>
<svg id="svg2" width="24" height="24" version="1.1" xmlns="http://www.w3.org/2000/svg" xmlns:cc="http://creativecommons.org/ns#" xmlns:dc="http://purl.org/dc/elements/1.1/" xmlns:rdf="http://www.w3.org/1999/02/22-rdf-syntax-ns#">
 <metadata id="metadata49">
  <rdf:RDF>
   <cc:Work rdf:about="">
    <dc:format>image/svg+xml</dc:format>
    <dc:type rdf:resource="http://purl.org/dc/dcmitype/StillImage"/>
   </cc:Work>
  </rdf:RDF>
 </metadata>
 <defs id="defs4">
  <linearGradient id="linearGradient3335" x1="11.375" x2="11.375" y1="22" y2="-9.8173" gradientUnits="userSpaceOnUse">
   <stop id="stop3330" offset="0"/>
   <stop id="stop3333" stop-opacity="0" offset="1"/>
  </linearGradient>
  <linearGradient id="linearGradient3181" x1="-3.0608" x2="-3.0608" y1="27.258" y2="7.2537" gradientTransform="translate(12.119 -7.2582)" gradientUnits="userSpaceOnUse">
   <stop id="stop3189" stop-color="#99f" offset="0"/>
   <stop id="stop3191" stop-color="#bfbfff" offset="1"/>
  </linearGradient>
  <filter id="filter3194" x="-.18" y="-.18" width="1.36" height="1.36" color-interpolation-filters="sRGB">
   <feGaussianBlur id="feGaussianBlur3196" stdDeviation="1.2"/>
  </filter>
  <clipPath id="clipPath2849">
   <rect id="rect2851" x="1" y="1" width="20" height="20" rx="2" ry="2" fill="#fff" fill-rule="evenodd"/>
  </clipPath>
  <linearGradient id="linearGradient3845" x1="11" x2="21" y1="19.5" y2="19.5" gradientTransform="translate(1,-1)" gradientUnits="userSpaceOnUse" spreadMethod="reflect">
   <stop id="stop3833" stop-color="#fff" offset="0"/>
   <stop id="stop3821" stop-color="#fff" stop-opacity=".49804" offset=".75"/>
   <stop id="stop3835" stop-color="#fff" stop-opacity="0" offset="1"/>
  </linearGradient>
  <linearGradient id="linearGradient3961" x1="10" x2="10" y1="1" y2="16" gradientTransform="translate(1,-1)" gradientUnits="userSpaceOnUse">
   <stop id="stop3825" stop-color="#fff" offset="0"/>
   <stop id="stop3829" stop-color="#fff" stop-opacity="0" offset="1"/>
  </linearGradient>
 </defs>
 <g id="layer1" transform="translate(0,2)">
  <g id="g3337" transform="translate(1,-1)">
   <rect id="rect3371" x=".5" y=".5" width="21" height="21.5" rx="2.5" ry="2.5" fill="url(#linearGradient3335)" opacity=".3"/>
   <rect id="rect2553" x="1" y="2" width="20" height="20" rx="2.381" ry="2.3256" opacity=".5"/>
  </g>
  <rect id="rect3173" x="2" width="20" height="20" rx="2" ry="2" fill="url(#linearGradient3181)" fill-rule="evenodd"/>
  <path id="rect3050" d="m4 0c-1.108 0-2 0.892-2 2v16c0 1.108 0.892 2 2 2h16c1.108 0 2-0.892 2-2v-16c0-1.108-0.892-2-2-2h-16zm0 1.0312h16c0.5497 0 0.96875 0.41905 0.96875 0.96875v16c0 0.5497-0.41905 0.96875-0.96875 0.96875h-16c-0.5497 0-0.96875-0.41905-0.96875-0.96875v-16c0-0.5497 0.41905-0.96875 0.96875-0.96875z" fill="url(#linearGradient3961)" fill-rule="evenodd" opacity=".35"/>
  <path id="path3235" d="m4 20c-1.108 0-2-0.892-2-2v-1c0 1.108 0.892 2 2 2h16c1.108 0 2-0.892 2-2v1c0 1.108-0.892 2-2 2h-16z" fill="url(#linearGradient3845)" fill-rule="evenodd" opacity=".2"/>
 </g>
 <g id="layer2" transform="translate(0,2)">
  <rect id="rect2410" transform="translate(1,-1)" x="3" y="3" width="16" height="16" rx="2" ry="2" clip-path="url(#clipPath2849)" fill="#fff" filter="url(#filter3194)" opacity=".15"/>
 </g>
 <g id="main">
  <path id="path39" d="m13.123 6.8789c-0.16636 0.62924-0.70526 1.0977-1.3613 1.0977-0.61606 0-1.1364-0.4098-1.3359-0.98047-0.007973 0.023503-0.024392 0.042377-0.03125 0.066406-0.45962 0.12778-0.89369 0.30959-1.3047 0.52539-0.99258 0.62348-1.7542 1.5279-2.1387 2.5879 0.1349 0.055843 0.25803 0.13486 0.36914 0.22852 0.65214-1.1267 1.7484-2.0112 3.0918-2.4336 0.19203 0.58521 0.72358 1.0059 1.3496 1.0059 0.69575 0 1.2745-0.51945 1.4004-1.207 1.1992 0.18647 2.2596 0.72442 3.0605 1.4883-0.044714-0.14421-0.076172-0.29529-0.076172-0.45508 0-0.18715 0.035203-0.36432 0.095704-0.5293-0.24682-0.2376-0.52706-0.44428-0.82031-0.63477-0.6981-0.37932-1.4692-0.64971-2.2988-0.75977zm5.7871 2.416c-0.10641 0.31287-0.30303 0.5807-0.56641 0.75781 0.086521 0.26817 0.1535 0.545 0.19922 0.82812 0.27761-0.2712 0.45703-0.64996 0.45703-1.0781 0-0.17953-0.034005-0.34845-0.089844-0.50781zm-2.6738 0.0097656c-0.05391 0.1567-0.089844 0.32196-0.089844 0.49805 0 0.80614 0.61596 1.4614 1.3828 1.4863 0.10744 0.32159 0.16708 0.65991 0.20312 1.0039 0.024655-0.17152 0.039062-0.34544 0.039062-0.51953 0-0.51544-0.084887-1.0135-0.24219-1.4844-0.59842-0.019431-1.0996-0.425-1.293-0.98437zm-11.148 2.748c-0.054982 0.15832-0.087891 0.32776-0.087891 0.50586 0 0.63475 0.38163 1.1767 0.91797 1.3906 0.24528 1.5584 0.98319 2.9295 2.1211 3.8398-0.016222-0.089825-0.027344-0.1826-0.027344-0.27734 0-0.22577 0.046612-0.44111 0.13281-0.63281-1.2004-0.9084-1.9735-2.3218-2.2266-3.9297-0.38898-0.15513-0.69043-0.48616-0.83008-0.89648zm2.6777 0.011719c-0.15879 0.45895-0.52462 0.81266-0.98242 0.93555 0.05744 0.3055 0.1415 0.60091 0.24219 0.88672 0.48325-0.23838 0.82812-0.73341 0.82812-1.3281 0-0.17495-0.034656-0.3383-0.087891-0.49414zm10.811 0.22852c-0.08146 0.70457-0.31529 1.3828-0.68164 2.0078 0.09909 0.20262 0.1543 0.43274 0.1543 0.67578 0 0.009377-0.001787 0.018009-0.001953 0.027344 0.35667-0.69767 0.56836-1.4497 0.56836-2.2305 0-0.16354-0.025189-0.32047-0.039062-0.48047zm-3.2891 3.1777c-0.042305 0.12166-0.069579 0.25069-0.080078 0.38477 0.061846-0.04111 0.13108-0.072401 0.19141-0.11524-0.047691-0.083124-0.079769-0.17693-0.11133-0.26953zm2.6719 0.013672c-0.19945 0.57089-0.71975 0.98047-1.3359 0.98047-0.20576 0-0.40144-0.045153-0.57812-0.12695-0.37254 0.28057-0.77769 0.5197-1.1973 0.73438-1.0339 0.60492-2.2248 0.98438-3.4062 0.98438-0.22718 0-0.44642-0.013083-0.6582-0.039063-0.002381-0.00705-0.007286-0.01253-0.009765-0.019531-0.1946 0.58032-0.71327 1.002-1.3359 1.002-0.61842 0-1.1401-0.41216-1.3379-0.98633-0.05342 0.15669-0.087891 0.3223-0.087891 0.49805 0 0.8219 0.63801 1.4883 1.4258 1.4883 0.65576 0 1.2083-0.46105 1.375-1.0898 0.20411 0.02087 0.41421 0.03125 0.62891 0.03125 1.6255 0 3.2886-0.6132 4.6035-1.6035 0.17669 0.0818 0.37236 0.12695 0.57812 0.12695 0.78779 0 1.4258-0.66637 1.4258-1.4883 0-0.17382-0.037249-0.33709-0.089844-0.49219z" opacity=".3"/>
  <path id="base" transform="translate(4,4)" d="m7.7623 1c-0.6461 0-1.1916 0.44813-1.367 1.0627-2.0693 0.57527-3.7142 2.1009-4.3189 4.0529-0.61862 0.16277-1.0764 0.74746-1.0764 1.4434 0 0.63475 0.38158 1.1761 0.91792 1.39 0.25307 1.6079 1.0267 3.0222 2.2271 3.9306-0.0862 0.1917-0.13372 0.40637-0.13372 0.63214 0 0.8219 0.63863 1.4882 1.4264 1.4882 0.65576 0 1.2085-0.46151 1.3752-1.0903 0.20411 0.02087 0.41431 0.03109 0.62901 0.03109 1.6255 0 3.2879-0.61329 4.6028-1.6036 0.17669 0.0818 0.37207 0.12746 0.57783 0.12746 0.78779 0 1.4264-0.66629 1.4264-1.4882 0-0.24304-0.0561-0.47258-0.15519-0.6752 0.45576-0.77756 0.72146-1.6351 0.72146-2.5268 0-0.59956-0.0953-1.1769-0.27075-1.7207 0.39389-0.26488 0.65542-0.72526 0.65542-1.2505 0-0.82191-0.63862-1.4882-1.4264-1.4882-0.30181 0-0.58175 0.098384-0.81226 0.26526-0.97676-0.91756-2.2685-1.5396-3.7031-1.7156-0.22601-0.51064-0.72148-0.86466-1.296-0.86466zm1.4 1.7689c1.2082 0.18786 2.276 0.7307 3.079 1.5037-0.0605 0.16498-0.0941 0.34336-0.0941 0.53051 0 0.80614 0.61495 1.4616 1.3818 1.4865 0.1573 0.47083 0.24269 0.96936 0.24269 1.4848 0 0.65119-0.17855 1.2886-0.49033 1.8809-0.19694-0.10709-0.42128-0.16709-0.65873-0.16709-0.78779 0-1.4264 0.66629-1.4264 1.4882 0 0.27894 0.0734 0.53991 0.20141 0.76303-1.1415 0.81045-2.5623 1.3177-3.9557 1.3177-0.22718 0-0.44695-0.01356-0.65873-0.03954-0.19544-0.57873-0.72394-0.99384-1.3455-0.99384-0.2631 0-0.50986 0.07366-0.72146 0.20325-1.0306-0.7396-1.6852-1.9071-1.9332-3.2261 0.61528-0.16516 1.0698-0.7482 1.0698-1.4417 0-0.6282-0.37382-1.1647-0.90141-1.3831 0.54171-1.4935 1.822-2.6903 3.4604-3.2055 0.19203 0.58521 0.72447 1.0059 1.3505 1.0059 0.69575 0 1.2741-0.51982 1.4-1.2074z" fill="#fff"/>
 </g>
</svg>
