<?xml version="1.0" encoding="UTF-8"?>
<!-- Created with Inkscape (http://www.inkscape.org/) -->
<svg id="svg2" width="24" height="24" version="1.1" xmlns="http://www.w3.org/2000/svg" xmlns:cc="http://creativecommons.org/ns#" xmlns:dc="http://purl.org/dc/elements/1.1/" xmlns:rdf="http://www.w3.org/1999/02/22-rdf-syntax-ns#" xmlns:xlink="http://www.w3.org/1999/xlink">
 <defs id="defs4">
  <linearGradient id="linearGradient3335" x1="11.375" x2="11.375" y1="22" y2="-9.8173" gradientUnits="userSpaceOnUse">
   <stop id="stop3330" offset="0"/>
   <stop id="stop3333" stop-opacity="0" offset="1"/>
  </linearGradient>
  <linearGradient id="linearGradient3181" x1="-3.0608" x2="-3.0608" y1="27.258" y2="7.2537" gradientTransform="translate(12.119 -7.2582)" gradientUnits="userSpaceOnUse">
   <stop id="stop3702" stop-color="#c8c8c8" offset="0"/>
   <stop id="stop3704" stop-color="#e6e6e6" offset="1"/>
  </linearGradient>
  <filter id="filter3194" x="-.18" y="-.18" width="1.36" height="1.36" color-interpolation-filters="sRGB">
   <feGaussianBlur id="feGaussianBlur3196" stdDeviation="1.2"/>
  </filter>
  <clipPath id="clipPath2849">
   <rect id="rect2851" x="1" y="1" width="20" height="20" rx="2" ry="2" fill="#fff" fill-rule="evenodd"/>
  </clipPath>
  <linearGradient id="linearGradient3796" x1="9.9062" x2="14.094" y1="9" y2="9" gradientUnits="userSpaceOnUse">
   <stop id="stop3730" stop-color="#fff" offset="0"/>
   <stop id="stop3726" stop-color="#d1b3b3" offset="1"/>
  </linearGradient>
  <linearGradient id="linearGradient3804" x1="9.8948" x2="14.105" y1="10.75" y2="10.75" gradientUnits="userSpaceOnUse">
   <stop id="stop3710" stop-color="#d40000" offset="0"/>
   <stop id="stop3720" stop-color="#e10000" offset=".5338"/>
   <stop id="stop3712" stop-color="#820000" offset="1"/>
  </linearGradient>
  <linearGradient id="linearGradient3804-0" x1="75.573" x2="75.573" y1="39.726" y2="62.845" gradientTransform="matrix(.2381 0 0 .2381 .57143 .57139)" gradientUnits="userSpaceOnUse" xlink:href="#linearGradient3798"/>
  <linearGradient id="linearGradient3798">
   <stop id="stop3800" stop-color="#333" offset="0"/>
   <stop id="stop3802" stop-color="#333" stop-opacity="0" offset="1"/>
  </linearGradient>
  <linearGradient id="linearGradient2988" x1="34.267" x2="34.267" y1="51.416" y2="81.919" gradientTransform="matrix(.2381 0 0 .2381 .57143 .57139)" gradientUnits="userSpaceOnUse" xlink:href="#linearGradient3798"/>
  <linearGradient id="linearGradient2990" x1="52.477" x2="52.477" y1="61.188" y2="81.965" gradientTransform="matrix(.2381 0 0 .2381 .57143 .57139)" gradientUnits="userSpaceOnUse" xlink:href="#linearGradient3798"/>
  <linearGradient id="linearGradient2992" x1="21.103" x2="21.103" y1="35.764" y2="57.411" gradientTransform="matrix(.2381 0 0 .2381 .57143 .57139)" gradientUnits="userSpaceOnUse" xlink:href="#linearGradient3798"/>
  <linearGradient id="linearGradient3845" x1="11" x2="21" y1="19.5" y2="19.5" gradientTransform="translate(1,-1)" gradientUnits="userSpaceOnUse" spreadMethod="reflect">
   <stop id="stop3833" stop-color="#fff" offset="0"/>
   <stop id="stop3821" stop-color="#fff" stop-opacity=".49804" offset=".75"/>
   <stop id="stop3835" stop-color="#fff" stop-opacity="0" offset="1"/>
  </linearGradient>
  <linearGradient id="linearGradient3961-5" x1="10" x2="10" y1="1" y2="16" gradientTransform="translate(1,-1)" gradientUnits="userSpaceOnUse">
   <stop id="stop3825" stop-color="#fff" offset="0"/>
   <stop id="stop3829" stop-color="#fff" stop-opacity="0" offset="1"/>
  </linearGradient>
 </defs>
 <metadata id="metadata7">
  <rdf:RDF>
   <cc:Work rdf:about="">
    <dc:format>image/svg+xml</dc:format>
    <dc:type rdf:resource="http://purl.org/dc/dcmitype/StillImage"/>
    <dc:title/>
   </cc:Work>
  </rdf:RDF>
 </metadata>
 <g id="layer1" transform="translate(0,2)">
  <g id="g3337" transform="translate(1,-1)">
   <rect id="rect3371" x=".5" y=".5" width="21" height="21.5" rx="2.5" ry="2.5" fill="url(#linearGradient3335)" opacity=".3"/>
   <rect id="rect2553" x="1" y="2" width="20" height="20" rx="2.381" ry="2.3256" opacity=".5"/>
  </g>
  <rect id="rect3173" x="2" width="20" height="20" rx="2" ry="2" fill="url(#linearGradient3181)" fill-rule="evenodd"/>
  <path id="path3672" d="m-8 2s-2.9464 4-1.875 10l0.625 3.5h2.5l0.625-3.5c1.0714-6-1.875-10-1.875-10z" fill="#1a1a1a" opacity=".94"/>
  <path id="path3674" d="m-9.75 12s-2.2232 1.9721-2.25 5c0 0.55228 0.44772 1 1 1s1-0.44772 1-1c-0.37514-3.5102 0.75-3.5 0.75-3.5l-0.5-1.5z" color="#000000" fill="#1a1a1a" opacity=".3"/>
  <path id="path3676" d="m-6.25 12-0.5 1.5s1.1251-0.01021 0.75 3.5c0 0.55228 0.44772 1 1 1s1-0.44772 1-1c-0.0268-3.0279-2.25-5-2.25-5z" fill="#999" opacity=".94"/>
  <path id="path3689" d="m-11 6v2h2v-2h-2zm2 2v2h2v-2h-2zm2 0h2v-2h-2v2zm0 2v2h2v-2h-2zm-2 0h-2v2h2v-2z" color="#000000" fill="#b40000" opacity=".4"/>
  <path id="rect3050" d="m4 0c-1.108 0-2 0.892-2 2v16c0 1.108 0.892 2 2 2h16c1.108 0 2-0.892 2-2v-16c0-1.108-0.892-2-2-2h-16zm0 1.0312h16c0.5497 0 0.96875 0.41905 0.96875 0.96875v16c0 0.5497-0.41905 0.96875-0.96875 0.96875h-16c-0.5497 0-0.96875-0.41905-0.96875-0.96875v-16c0-0.5497 0.41905-0.96875 0.96875-0.96875z" fill="url(#linearGradient3961-5)" fill-rule="evenodd" opacity=".5"/>
  <path id="path3235" d="m4 20c-1.108 0-2-0.892-2-2v-1c0 1.108 0.892 2 2 2h16c1.108 0 2-0.892 2-2v1c0 1.108-0.892 2-2 2h-16z" fill="url(#linearGradient3845)" fill-rule="evenodd" opacity=".3"/>
 </g>
 <g id="layer2" transform="translate(0,2)">
  <rect id="rect2410" transform="translate(1,-1)" x="3" y="3" width="16" height="16" rx="2" ry="2" clip-path="url(#clipPath2849)" fill="#fff" filter="url(#filter3194)" opacity=".15"/>
 </g>
 <g id="layer4">
  <path id="path2936" d="m4.381 10.095c-1.052 0-1.9048 0.85279-1.9048 1.9048 0 0.72323 0.40326 1.3516 0.99702 1.6741-0.0736 0.07975-0.14354 0.16021-0.20089 0.25298-0.46132 0.06078-0.89108 0.21622-1.2723 0.44643v5.6622c0.49754 0.30116 1.0799 0.47619 1.7039 0.47619 1.0538 0 1.9913-0.49696 2.5967-1.2649 0.23324 0.12079 0.49302 0.18601 0.77381 0.18601 0.14388 0 0.28326-0.01836 0.41667-0.05208-0.0046 0.05338-0.0074 0.10912-0.0074 0.16369 0 1.0316 0.836 1.8676 1.8676 1.8676 0.97996 0 1.7822-0.75888 1.8601-1.7188 0.0025 2.3e-5 0.0049 0 0.0074 0 0.45056 0 0.81845-0.36789 0.81845-0.81845s-0.36789-0.81101-0.81845-0.81101c-0.19712 0-0.37237 0.06963-0.51339 0.18601-0.01211-0.01266-0.02475-0.02489-0.0372-0.0372 0.1817-0.18907 0.29762-0.44623 0.29762-0.72917 0-0.58099-0.47556-1.0565-1.0565-1.0565s-1.0491 0.47556-1.0491 1.0565c0 0.08892 0.01643 0.1705 0.0372 0.25298-0.04106 0.01032-0.08655 0.01678-0.12649 0.02976 1.64e-4 -0.0097 0-0.02002 0-0.02976 0-0.70252-0.42549-1.305-1.0342-1.5625-0.06684-0.57356-0.47051-1.0474-1.0045-1.2202 0.54954-0.09095 0.96726-0.57051 0.96726-1.1458 0-0.64028-0.52044-1.1533-1.1607-1.1533-0.13902 0-0.27083 0.02954-0.39434 0.0744 0.09243-0.22386 0.14137-0.47193 0.14137-0.72917 0-1.052-0.85279-1.9048-1.9048-1.9048zm15.618 4.0179c-0.53057 0-0.98468 0.31273-1.1905 0.76637-0.23874-0.07942-0.49351-0.12649-0.75893-0.12649-0.36448 0-0.70981 0.08552-1.0193 0.23066-0.08556-0.28199-0.34482-0.48363-0.65476-0.48363-0.37942 0-0.69196 0.3051-0.69196 0.68452 0 0.26915 0.1615 0.49742 0.3869 0.61012-0.19994 0.2889-0.33671 0.62043-0.39435 0.98214-0.602 0.0087-1.1352 0.27701-1.503 0.6994-0.07371-0.0098-0.14682-0.01488-0.22321-0.01488-0.9367 0-1.6964 0.75973-1.6964 1.6964s0.75973 1.6964 1.6964 1.6964c0.30462 0 0.58624-0.08262 0.83333-0.22322 0.23859 0.12209 0.49975 0.19642 0.78125 0.21577-0.17748 0.35204-0.29484 0.74279-0.33482 1.1533h5.3423c0.79143 0 1.4286-0.63714 1.4286-1.4286v-5.5208c-0.16158-0.07954-0.34353-0.12649-0.53571-0.12649-0.08207 0-0.16799 0.01436-0.24554 0.02976-0.18781-0.49325-0.66106-0.84077-1.2202-0.84077zm-11.89 0.55804c-0.29642 0-0.53571 0.23929-0.53571 0.53571s0.23929 0.53572 0.53571 0.53572 0.53571-0.23929 0.53571-0.53572-0.23929-0.53571-0.53571-0.53571z" color="#000000" fill="url(#linearGradient2988)" opacity=".15"/>
  <path id="path2973" d="m3.5327 15.013c-0.30828 0-0.55804 0.24976-0.55804 0.55804 0 0.30828 0.24976 0.55804 0.55804 0.55804s0.55804-0.24976 0.55804-0.55804c0-0.30828-0.24976-0.55804-0.55804-0.55804zm2.061 0.55804c-0.166 0-0.29762 0.13162-0.29762 0.29762 0 0.166 0.13162 0.30506 0.29762 0.30506s0.30506-0.13906 0.30506-0.30506c0-0.166-0.13906-0.29762-0.30506-0.29762zm12.902 0.34226c-0.46242 0-0.83333 0.37835-0.83333 0.84077 0 0.08258 0.01493 0.1553 0.0372 0.23066-0.49351 0.11851-0.88554 0.49478-1.0193 0.98214-0.19608-0.07663-0.40922-0.11905-0.63244-0.11905-0.92036 0-1.665 0.71719-1.7262 1.622-0.09725-0.3418-0.40826-0.59524-0.78125-0.59524-0.11264 0-0.22234 0.02568-0.31994 0.06696-0.15365-0.14438-0.35288-0.2381-0.58036-0.2381-0.38666 0-0.71084 0.25871-0.81845 0.61012-0.10162-0.28087-0.36859-0.47619-0.68452-0.47619-0.29861 0-0.55659 0.17472-0.66964 0.43155-0.21533-0.28793-0.55774-0.47619-0.94494-0.47619-0.16662 0-0.32501 0.03446-0.46875 0.09673 0.01299-0.08122 0.02232-0.16066 0.02232-0.24554 0-0.86556-0.70438-1.5699-1.5699-1.5699-0.14163 0-0.27873 0.01687-0.40923 0.05208 2.3e-5 -0.0026 0-0.0049 0-0.0074 0-0.47428-0.38138-0.8631-0.85566-0.8631-0.36689 0-0.68057 0.23428-0.80357 0.55804-0.22842-0.36006-0.62835-0.60268-1.0863-0.60268-0.71142 0-1.2872 0.58322-1.2872 1.2946 0 0.07917 0.0086 0.15543 0.02232 0.23066-0.51224 0.46356-0.84077 1.1223-0.84077 1.8676 0 1.1068 0.71359 2.0499 1.7039 2.3958h1.6667c0.8108-0.2831 1.4317-0.96725 1.6295-1.8155 0.0852 0.01434 0.17114 0.02232 0.26042 0.02232 0.30963 0 0.5977-0.09057 0.84077-0.24554-1.6e-5 0.0025 0 0.0049 0 0.0074 0 0.65213 0.52346 1.183 1.1756 1.183 0.595 0 1.0865-0.43948 1.1682-1.0119 0.12335 0.09536 0.27846 0.15625 0.44643 0.15625 0.31593 0 0.58291-0.20276 0.68452-0.48363 0.10658 0.3531 0.43059 0.61012 0.81845 0.61012 0.14034 0 0.26992-0.03703 0.3869-0.09673 0.13982 0.11244 0.32001 0.18601 0.51339 0.18601 0.39176 0 0.71738-0.27906 0.79613-0.64732 0.13367 0.82757 0.84601 1.4583 1.7113 1.4583 0.49142 0 0.94118-0.20054 1.2574-0.52827 0.08489 0.49132 0.35516 0.91623 0.73661 1.2054h2.3363c0.32988-0.25172 0.57816-0.60762 0.69196-1.0193 0.0076 8e-5 0.01466 0 0.02232 0 0.31956 0 0.61997-0.07611 0.89286-0.20089 0.00969-0.067414 0.014886-0.13814 0.014886-0.20832v-3.683c-0.21466-0.10072-0.44577-0.16929-0.69196-0.19345 6.9e-4 -0.01013 0-0.01946 0-0.02976 0-0.249-0.19743-0.45387-0.44643-0.45387s-0.45387 0.20487-0.45387 0.45387c0 0.04669 0.0092 0.09158 0.02232 0.13393-0.4852 0.15909-0.89696 0.48114-1.1607 0.90774-0.06046-0.11803-0.14054-0.22437-0.23066-0.31994 0.1803-0.15358 0.29762-0.37704 0.29762-0.63244 0-0.46242-0.37835-0.84077-0.84077-0.84077z" color="#000000" fill="url(#linearGradient2990)" opacity=".3"/>
  <path id="path3006" d="m6.9702 9.0461c-0.42685 0-0.77381 0.34696-0.77381 0.77381 0 0.31019 0.18274 0.56891 0.44643 0.69196-0.40047 0.27468-0.6622 0.73514-0.6622 1.2574 0 0.14422 0.0221 0.28444 0.05952 0.41667-0.12742-0.05301-0.26431-0.08984-0.40923-0.09673 0.0014-0.01982 0.0074-0.03935 0.0074-0.05952 0-0.46242-0.37835-0.84077-0.84077-0.84077s-0.83333 0.37835-0.83333 0.84077c0 0.34322 0.21041 0.63709 0.50595 0.76637-0.07484 0.15838-0.11905 0.33404-0.11905 0.52083 0 0.67585 0.54439 1.2202 1.2202 1.2202 0.67585 0 1.2277-0.54439 1.2277-1.2202 0-0.07125-0.01064-0.14042-0.02232-0.20833 0.21598 0.11733 0.46609 0.18601 0.72917 0.18601 0.84184 0 1.5253-0.68345 1.5253-1.5253 0-0.80673-0.62802-1.4642-1.4211-1.5179 0.08334-0.12335 0.13393-0.27148 0.13393-0.43155 0-0.42685-0.34696-0.77381-0.77381-0.77381z" color="#000000" fill="url(#linearGradient2992)" opacity=".2"/>
  <path id="path3015" d="m17.722 10.028c-0.249 0-0.44643 0.20487-0.44643 0.45387s0.19743 0.45387 0.44643 0.45387 0.45387-0.20487 0.45387-0.45387-0.20487-0.45387-0.45387-0.45387zm-0.85566 1.4658c-0.58099 0-1.0491 0.46812-1.0491 1.0491 0 0.58099 0.46812 1.0491 1.0491 1.0491 0.01495 0 0.02984 6.19e-4 0.04464 0-0.09716 0.23202-0.14881 0.48421-0.14881 0.75149 0 1.079 0.87042 1.9568 1.9494 1.9568 0.92327 0 1.6932-0.6421 1.8973-1.503 0.6025-0.01612 1.0863-0.50968 1.0863-1.1161 0-0.61656-0.49951-1.1161-1.1161-1.1161-0.07707 0-0.15054 0.0074-0.22321 0.02232 0.03368-0.08673 0.05208-0.1841 0.05208-0.28274 0-0.42685-0.34696-0.77381-0.77381-0.77381-0.42685 0-0.77381 0.34696-0.77381 0.77381 0 0.03297 0.0034 0.06484 0.0074 0.09673-0.05143-0.0041-0.10378-0.0074-0.15625-0.0074-0.2851 0-0.55192 0.0688-0.79613 0.17857 2.86e-4 -0.0099 0-0.01979 0-0.02976 0-0.58099-0.46812-1.0491-1.0491-1.0491z" color="#000000" fill="url(#linearGradient3804-0)" opacity=".2"/>
 </g>
 <g id="layer3" transform="translate(0,2)">
  <path id="path3827" d="m11.812 1.4375c-0.36733 0.06313-0.61273 0.34805-0.77787 0.63392-1.8672 3.0262-2.5116 6.7417-1.9721 10.241-1.4219 1.4656-2.2747 3.5496-2.0826 5.5994 0.22281 1.2611 1.7565 2.0514 2.9009 1.4486 0.80985-0.37211 1.2795-1.2861 1.1757-2.161 0.02893-0.27782 0.5176-0.07529 0.75342-0.13694h1.1276c-0.07052 0.7815 0.17117 1.6276 0.84382 2.0934 0.97681 0.78467 2.5707 0.36786 3.0755-0.76749 0.39697-0.8804 0.14329-1.8863-0.04669-2.7882-0.32488-1.2344-0.98642-2.3718-1.8727-3.2877 0.56272-3.6144-0.17252-7.4461-2.1562-10.531-0.27844-0.23663-0.592-0.38974-0.96875-0.34375z" fill="#800000" opacity=".05"/>
  <path id="path3823" d="m11.906 2a0.49868 0.49868 0 0 0-0.3125 0.21875s-3.0095 4.1276-1.9688 10.25c-0.49972 0.49513-2.1002 2.2233-2.125 5.0312 0 0.82177 0.67823 1.5 1.5 1.5s1.5-0.67823 1.5-1.5a0.49868 0.49868 0 0 0 0-0.0625c-0.05244-0.49071-8.55e-4 -0.65694 0-1a0.49868 0.49868 0 0 0 0.25 0.0625h2.5a0.49868 0.49868 0 0 0 0.25-0.0625c8.55e-4 0.34306 0.05244 0.50929 0 1a0.49868 0.49868 0 0 0 0 0.0625c0 0.82177 0.67823 1.5 1.5 1.5s1.5-0.67823 1.5-1.5c-0.02485-2.8079-1.6253-4.5361-2.125-5.0312 1.0408-6.1224-1.9688-10.25-1.9688-10.25a0.49868 0.49868 0 0 0-0.5-0.21875z" fill="#800000" opacity=".15"/>
  <path id="path3814" d="m12 2.5s-2.9464 4-1.875 10l0.03125 0.09375c-0.26335 0.24662-2.1313 2.0848-2.1562 4.9062 0 0.55228 0.44772 1 1 1s1-0.44772 1-1c-0.23987-2.2445 0.13694-3.0237 0.4375-3.3125l0.3125 1.8125h2.5l0.3125-1.8125c0.30056 0.28881 0.67737 1.068 0.4375 3.3125 0 0.55228 0.44772 1 1 1s1-0.44772 1-1c-0.02497-2.8214-1.8929-4.6596-2.1562-4.9062l0.03125-0.09375c1.0714-6-1.875-10-1.875-10z" fill="#800000" opacity=".3"/>
  <path id="path3749" d="m13.75 12-0.5 1.5s1.1251-0.01021 0.75 3.5c0 0.55228 0.44772 1 1 1s1-0.44772 1-1c-0.0268-3.0279-2.25-5-2.25-5z" fill="#940000" opacity=".94"/>
  <path id="path3745" transform="translate(0,-2)" d="m12 4s-1.0747 1.4886-1.6875 4h0.6875v2h2v-2h0.6875c-0.61284-2.5114-1.6875-4-1.6875-4zm1 6v2h1.0938c0.02994-0.70491-0.0019-1.3723-0.0625-2h-1.0312zm0 2h-2v2h-0.875l0.625 3.5h2.5l0.625-3.5h-0.875v-2zm-2 0v-2h-1.0312c-0.060595 0.62766-0.09244 1.2951-0.0625 2h1.0938z" fill="url(#linearGradient3804)"/>
  <path id="path3747" d="m10.25 12s-2.2232 1.9721-2.25 5c0 0.55228 0.44772 1 1 1s1-0.44772 1-1c-0.37514-3.5102 0.75-3.5 0.75-3.5l-0.5-1.5z" color="#000000" fill="#d40000"/>
  <path id="path3754" d="m10.312 6c-0.1488 0.60979-0.27378 1.2752-0.34375 2h1.0312v-2h-0.6875zm0.6875 2v2h2v-2h-2zm2 0h1.0312c-0.069975-0.72483-0.19495-1.3902-0.34375-2h-0.6875v2zm0 2v2h0.875c0.12412-0.69504 0.19164-1.3617 0.21875-2h-1.0938zm-2 0h-1.0938c0.027109 0.63826 0.094635 1.305 0.21875 2h0.875v-2z" color="#000000" fill="url(#linearGradient3796)"/>
 </g>
</svg>
