<?xml version="1.0" encoding="UTF-8"?>
<!-- Created with Inkscape (http://www.inkscape.org/) -->
<svg id="svg2" width="24" height="24" version="1.1" xmlns="http://www.w3.org/2000/svg" xmlns:cc="http://creativecommons.org/ns#" xmlns:dc="http://purl.org/dc/elements/1.1/" xmlns:rdf="http://www.w3.org/1999/02/22-rdf-syntax-ns#" xmlns:xlink="http://www.w3.org/1999/xlink">
 <defs id="defs4">
  <linearGradient id="linearGradient3335" x1="11.375" x2="11.375" y1="22" y2="-9.8173" gradientUnits="userSpaceOnUse">
   <stop id="stop3330" offset="0"/>
   <stop id="stop3333" stop-opacity="0" offset="1"/>
  </linearGradient>
  <linearGradient id="linearGradient3181" x1="-3.0608" x2="-3.0608" y1="27.258" y2="7.2537" gradientTransform="translate(12.119 -7.2582)" gradientUnits="userSpaceOnUse">
   <stop id="stop3189" stop-color="#e6e6e6" offset="0"/>
   <stop id="stop3191" stop-color="#f5f5f5" offset="1"/>
  </linearGradient>
  <linearGradient id="linearGradient3845" x1="11" x2="21" y1="19.5" y2="19.5" gradientTransform="translate(1,-1)" gradientUnits="userSpaceOnUse" spreadMethod="reflect">
   <stop id="stop3833" stop-color="#fff" offset="0"/>
   <stop id="stop3821" stop-color="#fff" stop-opacity=".49804" offset=".75"/>
   <stop id="stop3835" stop-color="#fff" stop-opacity="0" offset="1"/>
  </linearGradient>
  <linearGradient id="linearGradient3078" x1="10" x2="10" y1="1" y2="16" gradientTransform="translate(1,-1)" gradientUnits="userSpaceOnUse">
   <stop id="stop3825" stop-color="#fff" offset="0"/>
   <stop id="stop3829" stop-color="#fff" stop-opacity="0" offset="1"/>
  </linearGradient>
  <linearGradient id="linearGradient3831-8">
   <stop id="stop3833-5" stop-color="#fff" offset="0"/>
   <stop id="stop3821-7" stop-color="#fff" stop-opacity=".49804" offset=".75"/>
   <stop id="stop3835-4" stop-color="#fff" stop-opacity="0" offset="1"/>
  </linearGradient>
  <linearGradient id="linearGradient3823-8">
   <stop id="stop3825-5" stop-color="#fff" offset="0"/>
   <stop id="stop3829-9" stop-color="#fff" stop-opacity="0" offset="1"/>
  </linearGradient>
  <linearGradient id="ButtonColor-5" x1="10.32" x2="10.32" y1="21" y2=".9993" gradientUnits="userSpaceOnUse">
   <stop id="stop3189-3" stop-color="#e6e6e6" offset="0"/>
   <stop id="stop3191-8" stop-color="#f5f5f5" offset="1"/>
  </linearGradient>
  <linearGradient id="linearGradient3327-3">
   <stop id="stop3330-1" offset="0"/>
   <stop id="stop3333-8" stop-opacity="0" offset="1"/>
  </linearGradient>
  <linearGradient id="linearGradient3156" x1="11" x2="21" y1="19.5" y2="19.5" gradientTransform="matrix(.74872 -.098571 .098571 .74872 1.102 .79418)" gradientUnits="userSpaceOnUse" spreadMethod="reflect" xlink:href="#linearGradient3831-8"/>
  <linearGradient id="linearGradient3159" x1="10" x2="10" y1="1" y2="16" gradientTransform="matrix(.74872 -.098571 .098571 .74872 1.102 .79418)" gradientUnits="userSpaceOnUse" xlink:href="#linearGradient3823-8"/>
  <linearGradient id="linearGradient3162" x1="-3.0608" x2="-3.0608" y1="27.258" y2="7.2537" gradientTransform="matrix(.75518 0 0 .75518 9.386 -3.7949)" gradientUnits="userSpaceOnUse" xlink:href="#ButtonColor-5"/>
  <linearGradient id="linearGradient3971-4" x1="-17.863" x2="-20.822" y1="30.828" y2="25.015" gradientTransform="matrix(.45018 -.14314 .14314 .45018 15.092 -5.4478)" gradientUnits="userSpaceOnUse">
   <stop id="stop6721-4-9" stop-color="#8cab2a" offset="0"/>
   <stop id="stop6723-4-1" stop-color="#d7e866" offset="1"/>
  </linearGradient>
  <linearGradient id="linearGradient3973-2" x1="-16.387" x2="-9.7353" y1="24.454" y2="28.196" gradientTransform="matrix(.45018 -.14314 .14314 .45018 15.092 -5.4478)" gradientUnits="userSpaceOnUse">
   <stop id="stop6713-9-9" stop-color="#8badea" offset="0"/>
   <stop id="stop6715-2-6" stop-color="#3b7caf" offset="1"/>
  </linearGradient>
  <linearGradient id="linearGradient3975-0" x1="-28.946" x2="-16.919" y1="13.899" y2="29.362" gradientTransform="matrix(.45018 -.14314 .14314 .45018 15.092 -5.4478)" gradientUnits="userSpaceOnUse">
   <stop id="stop6701-7-4" stop-color="#f7a164" offset="0"/>
   <stop id="stop6295-0" stop-color="#e11c26" offset="1"/>
  </linearGradient>
  <linearGradient id="linearGradient3992" x1="11.375" x2="11.375" y1="22" y2="-9.8173" gradientTransform="matrix(.80783 0 0 .80783 .89422 1.4503)" gradientUnits="userSpaceOnUse" xlink:href="#linearGradient3327-3"/>
  <linearGradient id="linearGradient4047" x1="-3.0608" x2="-3.0608" y1="27.258" y2="7.2537" gradientTransform="matrix(.77735 0 0 .77735 -29.575 -6.1771)" gradientUnits="userSpaceOnUse" xlink:href="#ButtonColor-5"/>
  <linearGradient id="linearGradient4049" x1="10" x2="10" y1="1" y2="16" gradientTransform="matrix(.77651 -.036084 .036084 .77651 -38.238 .46319)" gradientUnits="userSpaceOnUse" xlink:href="#linearGradient3823-8"/>
  <linearGradient id="linearGradient4051" x1="11" x2="21" y1="19.5" y2="19.5" gradientTransform="matrix(.77651 -.036084 .036084 .77651 -38.238 .46319)" gradientUnits="userSpaceOnUse" spreadMethod="reflect" xlink:href="#linearGradient3831-8"/>
  <linearGradient id="linearGradient4126" x1="22" x2="22" y1="22" y2="2" gradientTransform="matrix(.48706 0 0 .48706 -3.2801 .056319)" gradientUnits="userSpaceOnUse">
   <stop id="stop6741-4" stop-color="#ebebeb" offset="0"/>
   <stop id="stop6743-5" stop-color="#fafafa" offset="1"/>
  </linearGradient>
 </defs>
 <metadata id="metadata7">
  <rdf:RDF>
   <cc:Work rdf:about="">
    <dc:format>image/svg+xml</dc:format>
    <dc:type rdf:resource="http://purl.org/dc/dcmitype/StillImage"/>
    <dc:title/>
   </cc:Work>
  </rdf:RDF>
 </metadata>
 <g id="layer1" transform="translate(0,2)">
  <g id="g3337" transform="translate(1,-1)">
   <rect id="rect3371" x=".5" y=".5" width="21" height="21.5" rx="2.5" ry="2.5" fill="url(#linearGradient3335)" opacity=".3"/>
   <rect id="rect2553" x="1" y="2" width="20" height="20" rx="2.381" ry="2.3256" opacity=".5"/>
  </g>
  <rect id="rect3173" x="2" width="20" height="20" rx="2" ry="2" fill="url(#linearGradient3181)" fill-rule="evenodd"/>
  <path id="rect3050" d="m4 0c-1.108 0-2 0.892-2 2v16c0 1.108 0.892 2 2 2h16c1.108 0 2-0.892 2-2v-16c0-1.108-0.892-2-2-2h-16zm0 1.0312h16c0.5497 0 0.96875 0.41905 0.96875 0.96875v16c0 0.5497-0.41905 0.96875-0.96875 0.96875h-16c-0.5497 0-0.96875-0.41905-0.96875-0.96875v-16c0-0.5497 0.41905-0.96875 0.96875-0.96875z" fill="url(#linearGradient3078)" fill-rule="evenodd" opacity=".6"/>
  <path id="path3235" d="m4 20c-1.108 0-2-0.892-2-2v-1c0 1.108 0.892 2 2 2h16c1.108 0 2-0.892 2-2v1c0 1.108-0.892 2-2 2h-16z" fill="url(#linearGradient3845)" fill-rule="evenodd" opacity=".35"/>
 </g>
 <g id="layer3" transform="translate(0,2)">
  <g id="g4038" transform="translate(42,1)">
   <path id="path3994" transform="matrix(.96123 -.044667 .044667 .96123 -39.162 -.89092)" d="m3.3125 1.5312c-1.2966 0-2.3125 1.0532-2.3125 2.3438v13.312c0 1.2906 1.0159 2.3438 2.3125 2.3438h12.938c1.2966 0 2.3125-1.0532 2.3125-2.3438v-13.312c0-1.2906-1.0159-2.3438-2.3125-2.3438h-12.938z" fill="url(#linearGradient3992)" opacity=".2"/>
   <rect id="rect3996" transform="matrix(.99892 -.046419 .046419 .99892 0 0)" x="-37.441" y=".24243" width="15.547" height="15.547" rx="1.8508" ry="1.8078" opacity=".3"/>
   <rect id="rect3998" transform="matrix(.99892 -.046419 .046419 .99892 0 0)" x="-37.441" y="-.53492" width="15.547" height="15.547" rx="1.5547" ry="1.5547" fill="url(#linearGradient4047)" fill-rule="evenodd"/>
   <path id="path4000" d="m-35.872 1.1315c-0.86037 0.039981-1.5208 0.76482-1.4809 1.6252l0.57734 12.424c0.03998 0.86037 0.76481 1.5208 1.6252 1.4809l12.424-0.57734c0.86038-0.03998 1.5208-0.76482 1.4809-1.6252l-0.57734-12.424c-0.03998-0.86037-0.76482-1.5208-1.6252-1.4809l-12.424 0.57734zm0.03721 0.80078 12.424-0.57734c0.42685-0.019835 0.76737 0.29044 0.7872 0.71729l0.57734 12.424c0.01983 0.42685-0.29044 0.76737-0.71729 0.7872l-12.424 0.57734c-0.42685 0.01984-0.76737-0.29044-0.7872-0.71729l-0.57734-12.424c-0.01984-0.42685 0.29044-0.76737 0.71729-0.7872z" fill="url(#linearGradient4049)" fill-rule="evenodd" opacity=".6"/>
   <path id="path4002" d="m-35.151 16.662c-0.86038 0.03998-1.5852-0.62048-1.6252-1.4809l-0.03608-0.77651c0.03998 0.86037 0.76482 1.5208 1.6252 1.4809l12.424-0.57734c0.86037-0.03998 1.5208-0.76481 1.4809-1.6252l0.03608 0.77651c0.03998 0.86038-0.62048 1.5852-1.4809 1.6252l-12.424 0.57734z" fill="url(#linearGradient4051)" fill-rule="evenodd" opacity=".35"/>
  </g>
  <path id="path3990" transform="matrix(.92683 -.12202 .12202 .92683 .09622 -.44087)" d="m3.3125 1.5312c-1.2966 0-2.3125 1.0532-2.3125 2.3438v13.312c0 1.2906 1.0159 2.3438 2.3125 2.3438h12.938c1.2966 0 2.3125-1.0532 2.3125-2.3438v-13.312c0-1.2906-1.0159-2.3438-2.3125-2.3438h-12.938z" fill="url(#linearGradient3992)" opacity=".2"/>
  <rect id="rect2553-4" transform="matrix(.99144 -.13053 .13053 .99144 0 0)" x="1.7441" y="2.4416" width="15.104" height="15.104" rx="1.7981" ry="1.7562" opacity=".3"/>
  <rect id="rect3173-3" transform="matrix(.99144 -.13053 .13053 .99144 0 0)" x="1.7441" y="1.6864" width="15.104" height="15.104" rx="1.5104" ry="1.5104" fill="url(#linearGradient3162)" fill-rule="evenodd"/>
  <path id="rect3050-3" d="m3.4467 1.2472c-0.82958 0.10922-1.4095 0.865-1.3003 1.6946l1.5771 11.98c0.10922 0.82958 0.865 1.4095 1.6946 1.3003l11.98-1.5771c0.82958-0.10922 1.4095-0.865 1.3003-1.6946l-1.5771-11.98c-0.10922-0.82958-0.865-1.4095-1.6946-1.3003l-11.98 1.5771zm0.10165 0.77212 11.98-1.5771c0.41157-0.054184 0.76663 0.21826 0.82081 0.62983l1.5771 11.98c0.05418 0.41157-0.21826 0.76663-0.62983 0.82081l-11.98 1.5771c-0.41157 0.054184-0.76663-0.21826-0.82081-0.62983l-1.5771-11.98c-0.054184-0.41157 0.21826-0.76663 0.62983-0.82081z" fill="url(#linearGradient3159)" fill-rule="evenodd" opacity=".6"/>
  <path id="path3235-3" d="m5.4181 16.222c-0.82958 0.10922-1.5854-0.47072-1.6946-1.3003l-0.098571-0.74872c0.10922 0.82958 0.865 1.4095 1.6946 1.3003l11.98-1.5771c0.82958-0.10922 1.4095-0.865 1.3003-1.6946l0.09857 0.74872c0.10922 0.82958-0.47072 1.5854-1.3003 1.6946l-11.98 1.5771z" fill="url(#linearGradient3156)" fill-rule="evenodd" opacity=".35"/>
  <path id="path4058" transform="matrix(.77346 -.24592 .24592 .77346 -3.6125 2.2789)" d="m14 6.9688c-2.0165 0-3.8731 0.52469-5.3125 1.4062-1.4418 0.88307-2.5042 2.1908-2.6875 3.7812-0.012617 0.10945-0.0625 0.29169-0.0625 0.5v1.1875c0 1.4924 0.81882 2.8055 2 3.75 1.1745 0.93921 2.7598 1.5408 4.5 1.7812 0.0092 0.0017 0.02198-0.0016 0.03125 0 1.2128 0.21359 2.8384 0.22882 4.1562-0.1875 0.0166-0.0025 0.01119 0.0049 0.03125 0 0.3016-0.07302 0.60822-0.13476 0.9375-0.25 0.25655-0.08872 0.48477-0.21031 0.71875-0.3125 0.0093-0.0035 0.01465 0.0064 0.03125 0 0.02655-0.01023 0.05653-0.04665 0.09375-0.0625 0.0093-4e-3 0.02153 0.0043 0.03125 0a0.48684 0.48684 0 0 0 0.03125 0c0.0183-0.0068 0.01081 0.0096 0.03125 0 0.37184-0.1741 0.68133-0.37675 0.96875-0.5625a0.48684 0.48684 0 0 0 0.03125 0c0.18048-0.11928 0.37921-0.26135 0.59375-0.4375 0.15497-0.12728 0.2868-0.25728 0.40625-0.375 0.0604-0.0591 0.18362-0.16619 0.3125-0.3125 0.09389-0.10752 0.12476-0.15595 0.125-0.15625 0.18768-0.22836 0.30074-0.44951 0.40625-0.625 0.03452-0.05948 0.15627-0.2056 0.25-0.40625 0.0161-0.03446-8e-3 -0.03291 0-0.0625 0.03267-0.07719 0.07853-0.1365 0.09375-0.1875 0.0038-0.01275-0.0031-0.01985 0-0.03125s-3e-3 -0.01767 0-0.03125c0.0016-5.65e-4 0.01799-0.06874 0.03125-0.09375 0.02807-0.05296 0.05577-0.0638 0.09375-0.1875 0.08079-0.26098 0.19461-0.60474 0.21875-1a0.48684 0.48684 0 0 0 0-0.03125c3.4e-5 -0.0012 3.4e-5 -0.03003 0-0.03125v-0.1875-1.0312-0.03125c1e-3 -0.0609 0-0.11458 0-0.125 0-0.24217-0.0692-0.45455-0.09375-0.625-0.22474-1.5606-1.284-2.8282-2.7188-3.6875-1.4323-0.85785-3.2582-1.375-5.25-1.375z" opacity=".05"/>
  <path id="path4054" transform="matrix(.77346 -.24592 .24592 .77346 -3.6125 2.2789)" d="m14 7.4688c-1.935 0-3.7131 0.48602-5.0625 1.3125-1.3494 0.82648-2.3068 2.0323-2.4688 3.4375-0.012908 0.11198-0.03125 0.26337-0.03125 0.4375v1.1875c0 1.3154 0.71747 2.4994 1.8125 3.375 1.0882 0.8702 2.5817 1.457 4.25 1.6875 0.01039 0.0014 0.02084-0.0014 0.03125 0 1.1456 0.20584 2.7544 0.20297 3.9688-0.1875 0.0097-0.0023 0.02152 0.0024 0.03125 0 0.30309-0.07338 0.60856-0.14582 0.90625-0.25 0.23035-0.07966 0.45149-0.17817 0.6875-0.28125 0.0062-0.0028 0.07993-0.02885 0.15625-0.0625 0.0087-4e-3 0.02256 0.0041 0.03125 0 0.34162-0.15995 0.65962-0.35167 0.9375-0.53125 0.17674-0.11681 0.36911-0.24746 0.5625-0.40625 0.13668-0.11226 0.25896-0.22939 0.375-0.34375 0.07667-0.07501 0.17541-0.1611 0.28125-0.28125 0.0785-0.08989 0.12476-0.15595 0.125-0.15625 0.15734-0.19144 0.26583-0.38091 0.375-0.5625 0.05672-0.09772 0.14988-0.22757 0.21875-0.375 0.0044-0.0093-0.0043-0.02168 0-0.03125 0.04962-0.11724 0.06841-0.20223 0.0625-0.1875a0.55113 0.55113 0 0 0 0-0.03125c0.02732-0.07023 0.08688-0.15707 0.125-0.28125 0.08-0.25844 0.16758-0.54885 0.1875-0.875a0.55113 0.55113 0 0 0 0-0.03125v-0.1875-1.0312-0.03125c8.41e-4 -0.04949 0-0.10247 0-0.125 0-0.1748-0.03629-0.38054-0.0625-0.5625-0.19886-1.3808-1.1543-2.5378-2.5-3.3438s-3.0889-1.2812-5-1.2812z" opacity=".15"/>
  <path id="path3956" d="m9.1926 5.0529c-2.8497 0.90607-4.7194 3.0855-4.3449 5.001 0.018441 0.09434 0.038552 0.20496 0.068049 0.29773l0.29204 0.91848c0.54984 1.7293 2.8677 2.5799 5.4409 2.1291 0.85464-0.10814 2.1341-0.53804 2.8785-1.0749 0.2167-0.13097 0.42137-0.2628 0.6153-0.40855 0.15525-0.11578 0.30304-0.22937 0.4461-0.35475 0.03515-0.03131 0.07137-0.05498 0.10548-0.08676 0.20679-0.18882 0.38231-0.39378 0.55382-0.60192 0.10907-0.13518 0.2281-0.28106 0.31868-0.4207 0.06794-0.10477 0.13182-0.21765 0.18902-0.32624 0.04653-0.08757 0.09297-0.16635 0.13188-0.25485 0.01746-0.040142 0.02589-0.079127 0.04176-0.11974 0.0625-0.15644 0.10543-0.31363 0.14292-0.47127 0.02247-0.10148 0.04841-0.20812 0.06048-0.31199 0.0073-0.054791-0.0017-0.10572 0.0022-0.16039 0.0046-0.072173 0.01176-0.1432 0.01103-0.21642-0.0015-0.20493-0.01326-0.41881-0.06358-0.61852l-0.046076-0.14502-0.26129-0.8218c-0.0091-0.033187-0.02022-0.063604-0.03074-0.096684-0.036838-0.11585-0.087192-0.24704-0.13945-0.35487-0.8387-1.7324-3.5971-2.396-6.4122-1.5009z" opacity=".3"/>
  <path id="path3933" d="m15.43 6.5662c-1.1053-1.3272-3.5666-1.7807-6.0693-0.98495-2.5027 0.79574-4.2501 2.5874-4.386 4.3092l-0.18673 0.059367 0.29629 0.93186c0.62839 1.9764 3.5621 2.8075 6.5521 1.8568 2.9903-0.95078 4.9047-3.3234 4.2763-5.2998l-0.29629-0.93186-0.18644 0.059283z" fill="#b82525"/>
  <path id="path3935" d="m15.616 6.5069c0.62849 1.9767-1.2859 4.3493-4.2762 5.3001-2.9903 0.95078-5.9237 0.11954-6.5522-1.8571-0.62849-1.9767 1.2865-4.3495 4.2765-5.3002 2.9903-0.95078 5.9234-0.11945 6.5519 1.8572z" fill="url(#linearGradient3975-0)"/>
  <path id="path3937" d="m15.957 7.5781-0.31702-0.97307c0.05714 2.2128-0.99007 3.4909-2.5162 4.4389l0.28547 0.89785c1.6529-1.023 2.9335-2.5629 2.5478-4.3637z" fill="#39619a"/>
  <path id="path3939" d="m15.616 6.5069c0.60305 2.3261-1.8936 4.268-2.5128 4.5087l-2.9016-2.7872 5.4141-1.7214 2.91e-4 -9.26e-5z" fill="url(#linearGradient3973-2)"/>
  <path id="path3941" d="m10.478 13.021-0.29619-0.93155c1.0611-0.19128 2.0034-0.46514 2.9328-1.0385l0.29462 0.8916c-0.75784 0.54654-2.0773 0.98044-2.9312 1.0787l-9.4e-5 -2.93e-4z" fill="#70851f"/>
  <path id="path3943" d="m10.202 8.2287 2.9015 2.7869c-0.98485 0.78354-2.9217 1.0734-2.9217 1.0734l0.02027-3.8603z" fill="url(#linearGradient3971-4)"/>
  <path id="path3940" d="m15.48 6.162c0.13366 0.65969 0.0056 1.3337-0.34867 2.0005-0.0193 0.037528-0.05331 0.066407-0.07364 0.10325-0.12268 0.21565-0.26782 0.43762-0.43408 0.64369-0.62618 0.80633-1.4034 1.3558-1.713 1.4762-0.46167 0.3673-1.137 0.61491-1.7195 0.78624-0.01647 0.0053-0.03181 0.01009-0.04835 0.01537-0.02309 0.0067-0.04974 0.01667-0.07251 0.02306-0.28216 0.087-0.55824 0.15712-0.83717 0.21296-0.08453 0.01696-0.17306 0.01442-0.25708 0.02853-2.3916 0.40215-4.5426-0.28488-5.2531-1.7896 0.018892 0.10069 0.036592 0.19879 0.068051 0.29773 0.54597 1.7171 2.8338 2.5493 5.3849 2.1203 0.08401-0.01412 0.17254-0.01157 0.25707-0.02853 0.27893-0.05583 0.55501-0.12598 0.83717-0.21296 0.02275-0.0064 0.04941-0.0164 0.0725-0.02306 0.01653-0.0052 0.03187-0.01002 0.04835-0.01537 0.58249-0.17133 1.2578-0.41893 1.7195-0.78624 0.30962-0.12034 1.0868-0.66983 1.713-1.4762 0.16626-0.20606 0.3114-0.42803 0.43408-0.64369 0.02032-0.036843 0.05433-0.065721 0.07364-0.10325 0.40214-0.75675 0.52399-1.5328 0.2883-2.274-0.039277-0.12354-0.08278-0.24043-0.13945-0.35487z" fill="#fff" opacity=".3"/>
 </g>
 <g id="layer2">
  <path id="path4107" d="m5.4871 1.5c-0.26498 3.06e-4 -0.48676 0.22798-0.48706 0.50228v0.50228h2.9941l-0.01522 6.2907-0.45662 0.48706-0.48706-0.50228v-3.7184c0.0026-0.17913-0.07894-0.33604-0.22831-0.42618-0.14937-0.09014-0.33751-0.07522-0.48706 0.01522-0.14955 0.09046-0.24583 0.24703-0.24353 0.42618v3.9163c-0.0031 0.1329 0.03255 0.26988 0.12176 0.3653l0.9589 0.98935c0.09028 0.09665 0.22006 0.15235 0.35008 0.15221 0.13001-1.37e-4 0.25957-0.05539 0.35008-0.15221l0.94368-0.97412c0.08938-0.09564 0.13983-0.23241 0.13699-0.3653v-7.0061c2.391e-4 -0.27428-0.22208-0.50254-0.48706-0.50228z" opacity=".3"/>
  <path id="path4113" d="m5.5 1c-0.55673 6.429e-4 -0.99938 0.43216-1 1v0.03125h1.5v0.96875h1.5v1.8438c-0.050393-0.25439-0.15284-0.50332-0.40625-0.65625-0.36911-0.22274-0.78253-0.13806-1.0625 0.03125-0.25671 0.15528-0.47361 0.46434-0.46875 0.84375v3.9375c-0.0056 0.24024 0.070244 0.49524 0.25 0.6875l0.96875 1c0.1779 0.19045 0.43058 0.31282 0.71875 0.3125 0.27582-2.91e-4 0.5105-0.13333 0.6875-0.3125h0.03125l0.96875-0.9375a0.51515 0.51515 0 0 0 0-0.03125c0.21818-0.23346 0.25514-0.47844 0.25-0.71875v-7c4.961e-4 -0.56907-0.44187-1.0005-1-1h-2.9375z" opacity=".4"/>
  <path id="Symbol" d="m5.4871 1c-0.26498 3.06e-4 -0.48676 0.22798-0.48706 0.50228v0.50228h2.9941l-0.01522 6.2907-0.45662 0.48706-0.48706-0.50228v-3.7184c0.0026-0.17913-0.07894-0.33604-0.22831-0.42618-0.14937-0.09014-0.33751-0.07522-0.48706 0.01522-0.14955 0.09046-0.24583 0.24703-0.24353 0.42618v3.9163c-0.0031 0.1329 0.03255 0.26988 0.12176 0.3653l0.9589 0.98935c0.09028 0.09665 0.22006 0.15235 0.35008 0.15221 0.13001-1.37e-4 0.25957-0.05539 0.35008-0.15221l0.94368-0.97412c0.08938-0.09564 0.13983-0.23241 0.13699-0.3653v-7.0061c2.391e-4 -0.27428-0.22208-0.50254-0.48706-0.50228z" fill="url(#linearGradient4126)"/>
 </g>
</svg>
