<?xml version="1.0" encoding="UTF-8"?>
<!-- Created with Inkscape (http://www.inkscape.org/) -->
<svg id="svg2" width="22" height="22" version="1.1" xmlns="http://www.w3.org/2000/svg" xmlns:cc="http://creativecommons.org/ns#" xmlns:dc="http://purl.org/dc/elements/1.1/" xmlns:rdf="http://www.w3.org/1999/02/22-rdf-syntax-ns#" xmlns:xlink="http://www.w3.org/1999/xlink">
 <defs id="defs4">
  <linearGradient id="linearGradient3335" x1="11.375" x2="11.375" y1="22" y2="-9.8173" gradientUnits="userSpaceOnUse">
   <stop id="stop3330" offset="0"/>
   <stop id="stop3333" stop-opacity="0" offset="1"/>
  </linearGradient>
  <linearGradient id="linearGradient3181" x1="-3.0608" x2="-3.0608" y1="27.258" y2="7.2537" gradientTransform="translate(11.119 -6.2582)" gradientUnits="userSpaceOnUse">
   <stop id="stop3643" stop-color="#bdb8c4" offset="0"/>
   <stop id="stop3645" stop-color="#dbd9df" offset="1"/>
  </linearGradient>
  <filter id="filter3194" x="-.18" y="-.18" width="1.36" height="1.36" color-interpolation-filters="sRGB">
   <feGaussianBlur id="feGaussianBlur3196" stdDeviation="1.2"/>
  </filter>
  <clipPath id="clipPath2849">
   <rect id="rect2851" x="1" y="1" width="20" height="20" rx="2" ry="2" fill="#fff" fill-rule="evenodd"/>
  </clipPath>
  <radialGradient id="radialGradient3738" cx="48" cy="48.001" r="27.002" gradientTransform="matrix(.26667 0 0 .26666 -1.8 -1.7995)" gradientUnits="userSpaceOnUse">
   <stop id="stop3734" stop-opacity="0" offset="0"/>
   <stop id="stop3740" stop-opacity="0" offset=".95"/>
   <stop id="stop3736" offset="1"/>
  </radialGradient>
  <linearGradient id="linearGradient3707" x1="16.162" x2="76.772" y1="44.482" y2="44.482" gradientUnits="userSpaceOnUse">
   <stop id="stop3709" stop-color="#141414" offset="0"/>
   <stop id="stop3654" stop-color="#616161" offset="1"/>
  </linearGradient>
  <linearGradient id="linearGradient3674" x1="16.162" x2="76.772" y1="44.482" y2="44.482" gradientUnits="userSpaceOnUse">
   <stop id="stop3721" stop-color="#4b4b4b" offset="0"/>
   <stop id="stop3723" stop-color="#232323" offset=".37373"/>
   <stop id="stop3725" stop-color="#5c5c5c" offset="1"/>
  </linearGradient>
  <linearGradient id="linearGradient3761">
   <stop id="stop3763" stop-color="#fff" offset="0"/>
   <stop id="stop3765" stop-color="#fff" stop-opacity="0" offset="1"/>
  </linearGradient>
  <linearGradient id="linearGradient3771" x1="40.068" x2="40.068" y1="58.176" y2="41.697" gradientUnits="userSpaceOnUse" xlink:href="#linearGradient3761"/>
  <linearGradient id="linearGradient3767" x1="40.068" x2="31.794" y1="58.176" y2="49.665" gradientUnits="userSpaceOnUse" xlink:href="#linearGradient3761"/>
  <linearGradient id="linearGradient3733" x1="33.199" x2="67.957" y1="45.997" y2="45.997" gradientUnits="userSpaceOnUse">
   <stop id="stop3729" stop-color="#fff" offset="0"/>
   <stop id="stop3731" stop-color="#fff" stop-opacity="0" offset="1"/>
  </linearGradient>
  <filter id="filter3774" color-interpolation-filters="sRGB">
   <feGaussianBlur id="feGaussianBlur3776" stdDeviation="0.27274118"/>
  </filter>
  <radialGradient id="radialGradient3687" cx="47.73" cy="45.997" r="13.637" gradientUnits="userSpaceOnUse">
   <stop id="stop3683" stop-color="#fff" stop-opacity=".18548" offset="0"/>
   <stop id="stop3689" stop-color="#fff" stop-opacity=".10887" offset=".30867"/>
   <stop id="stop3691" stop-opacity="0" offset=".43622"/>
   <stop id="stop3693" stop-opacity="0" offset=".54464"/>
   <stop id="stop3695" stop-color="#fff" stop-opacity="0" offset=".58291"/>
   <stop id="stop3697" stop-opacity=".18145" offset=".6148"/>
   <stop id="stop3699" stop-opacity=".43145" offset=".69133"/>
   <stop id="stop3701" stop-color="#fff" stop-opacity=".080645" offset=".78061"/>
   <stop id="stop3703" stop-opacity="0" offset=".87628"/>
   <stop id="stop3685" stop-color="#fff" stop-opacity="0" offset="1"/>
  </radialGradient>
  <radialGradient id="radialGradient3803" cx="41" cy="52" r="9.7082" gradientTransform="matrix(1 0 0 .61803 0 19.862)" gradientUnits="userSpaceOnUse">
   <stop id="stop3799" stop-color="#fff" offset="0"/>
   <stop id="stop3805" stop-color="#fff" offset=".5"/>
   <stop id="stop3801" stop-color="#fff" stop-opacity="0" offset="1"/>
  </radialGradient>
  <linearGradient id="linearGradient3967" x1="53.511" x2="61.491" y1="59.608" y2="39.929" gradientTransform="matrix(1.0266 0 0 1.0266 -1 50.778)" gradientUnits="userSpaceOnUse">
   <stop id="stop3883" stop-color="#d40000" stop-opacity="0" offset="0"/>
   <stop id="stop3889" stop-color="#d40000" offset=".5"/>
   <stop id="stop3885" stop-color="#d40000" stop-opacity="0" offset="1"/>
  </linearGradient>
  <linearGradient id="linearGradient3969" x1="53.731" x2="62.586" y1="60.139" y2="38.831" gradientTransform="matrix(.72593 .72593 -.72593 .72593 46.743 29.961)" gradientUnits="userSpaceOnUse">
   <stop id="stop3893" stop-color="#d42aff" stop-opacity="0" offset="0"/>
   <stop id="stop3899" stop-color="#d42aff" offset=".5"/>
   <stop id="stop3895" stop-color="#d42aff" stop-opacity="0" offset="1"/>
  </linearGradient>
  <linearGradient id="linearGradient3971" x1="53.388" x2="61.983" y1="60.346" y2="39.437" gradientTransform="matrix(0 1.0266 -1.0266 0 95.222 49)" gradientUnits="userSpaceOnUse">
   <stop id="stop3903" stop-color="#60f" stop-opacity="0" offset="0"/>
   <stop id="stop3909" stop-color="#60f" offset=".5"/>
   <stop id="stop3905" stop-color="#60f" stop-opacity="0" offset="1"/>
  </linearGradient>
  <linearGradient id="linearGradient3973" x1="53.296" x2="61.89" y1="59.183" y2="40.223" gradientTransform="matrix(-.72593 .72593 -.72593 -.72593 116.04 96.743)" gradientUnits="userSpaceOnUse">
   <stop id="stop3913" stop-color="#2a7fff" stop-opacity="0" offset="0"/>
   <stop id="stop3919" stop-color="#2a7fff" offset=".5"/>
   <stop id="stop3915" stop-color="#2a7fff" stop-opacity="0" offset="1"/>
  </linearGradient>
  <linearGradient id="linearGradient3975" x1="53.879" x2="60.999" y1="61.33" y2="39.683" gradientTransform="matrix(-1.0266 0 0 -1.0266 97 145.22)" gradientUnits="userSpaceOnUse">
   <stop id="stop3923" stop-color="#5fd3bc" stop-opacity="0" offset="0"/>
   <stop id="stop3929" stop-color="#5fd3bc" offset=".5"/>
   <stop id="stop3925" stop-color="#5fd3bc" stop-opacity="0" offset="1"/>
  </linearGradient>
  <linearGradient id="linearGradient3977" x1="53.47" x2="60.324" y1="59.878" y2="39.701" gradientTransform="matrix(-.72593 -.72593 .72593 -.72593 49.257 166.04)" gradientUnits="userSpaceOnUse">
   <stop id="stop3853" stop-color="#55d400" stop-opacity="0" offset="0"/>
   <stop id="stop3859" stop-color="#55d400" offset=".5"/>
   <stop id="stop3855" stop-color="#55d400" stop-opacity="0" offset="1"/>
  </linearGradient>
  <linearGradient id="linearGradient3979" x1="61.628" x2="52.881" y1="39.683" y2="60.715" gradientTransform="matrix(0 -1.0266 1.0266 0 .77836 147)" gradientUnits="userSpaceOnUse">
   <stop id="stop3863" stop-color="#fc0" stop-opacity="0" offset="0"/>
   <stop id="stop3869" stop-color="#fc0" offset=".5"/>
   <stop id="stop3865" stop-color="#fc0" stop-opacity="0" offset="1"/>
  </linearGradient>
  <linearGradient id="linearGradient3981" x1="53.035" x2="61.803" y1="61.183" y2="40.484" gradientTransform="matrix(.72593 -.72593 .72593 .72593 -20.039 99.257)" gradientUnits="userSpaceOnUse">
   <stop id="stop3873" stop-color="#f60" stop-opacity="0" offset="0"/>
   <stop id="stop3879" stop-color="#f60" offset=".5"/>
   <stop id="stop3875" stop-color="#f60" stop-opacity="0" offset="1"/>
  </linearGradient>
  <clipPath id="clipPath3798">
   <path id="path3800" transform="matrix(1.0266 0 0 1.0266 -1 .77836)" d="m61.367 45.997a13.637 13.637 0 1 1-27.274 0 13.637 13.637 0 1 1 27.274 0z" fill="#f0f"/>
  </clipPath>
  <filter id="filter3833" x="-.24" y="-.24" width="1.48" height="1.48" color-interpolation-filters="sRGB">
   <feGaussianBlur id="feGaussianBlur3835" stdDeviation="2.8000002"/>
  </filter>
  <filter id="filter3986" color-interpolation-filters="sRGB">
   <feGaussianBlur id="feGaussianBlur3988" stdDeviation="0.42020394"/>
  </filter>
  <linearGradient id="linearGradient3845" x1="11" x2="21" y1="19.5" y2="19.5" gradientUnits="userSpaceOnUse" spreadMethod="reflect">
   <stop id="stop3833" stop-color="#fff" offset="0"/>
   <stop id="stop3821" stop-color="#fff" stop-opacity=".49804" offset=".75"/>
   <stop id="stop3835" stop-color="#fff" stop-opacity="0" offset="1"/>
  </linearGradient>
  <linearGradient id="linearGradient3961" x1="10" x2="10" y1="1" y2="16" gradientUnits="userSpaceOnUse">
   <stop id="stop3825" stop-color="#fff" offset="0"/>
   <stop id="stop3829" stop-color="#fff" stop-opacity="0" offset="1"/>
  </linearGradient>
 </defs>
 <metadata id="metadata7">
  <rdf:RDF>
   <cc:Work rdf:about="">
    <dc:format>image/svg+xml</dc:format>
    <dc:type rdf:resource="http://purl.org/dc/dcmitype/StillImage"/>
   </cc:Work>
  </rdf:RDF>
 </metadata>
 <g id="layer1">
  <g id="g3337">
   <rect id="rect3371" x=".5" y=".5" width="21" height="21.5" rx="2.5" ry="2.5" fill="url(#linearGradient3335)" opacity=".3"/>
   <rect id="rect2553" x="1" y="2" width="20" height="20" rx="2.381" ry="2.3256" opacity=".5"/>
  </g>
  <rect id="rect3173" x="1" y="1" width="20" height="20" rx="2" ry="2" fill="url(#linearGradient3181)" fill-rule="evenodd"/>
  <path id="rect3050" d="m3 1c-1.108 0-2 0.892-2 2v16c0 1.108 0.892 2 2 2h16c1.108 0 2-0.892 2-2v-16c0-1.108-0.892-2-2-2h-16zm0 1.0312h16c0.5497 0 0.96875 0.41905 0.96875 0.96875v16c0 0.5497-0.41905 0.96875-0.96875 0.96875h-16c-0.5497 0-0.96875-0.41905-0.96875-0.96875v-16c0-0.5497 0.41905-0.96875 0.96875-0.96875z" fill="url(#linearGradient3961)" fill-rule="evenodd" opacity=".5"/>
  <path id="path3235" d="m3 21c-1.108 0-2-0.892-2-2v-1c0 1.108 0.892 2 2 2h16c1.108 0 2-0.892 2-2v1c0 1.108-0.892 2-2 2h-16z" fill="url(#linearGradient3845)" fill-rule="evenodd" opacity=".3"/>
 </g>
 <g id="layer2">
  <rect id="rect2410" x="3" y="3" width="16" height="16" rx="2" ry="2" clip-path="url(#clipPath2849)" fill="#fff" filter="url(#filter3194)" opacity=".5"/>
 </g>
 <g id="layer3">
  <path id="path3648" transform="matrix(.18667 .18667 -.18667 .18667 10.629 -5.9771)" d="m76.772 44.482c0 16.737-13.568 30.305-30.305 30.305s-30.305-13.568-30.305-30.305c0-16.737 13.568-30.305 30.305-30.305s30.305 13.568 30.305 30.305z" fill="url(#linearGradient3674)"/>
  <path id="path3697" transform="matrix(0 .23759 -.23759 0 21.568 -.03992)" d="m76.772 44.482c0 16.737-13.568 30.305-30.305 30.305s-30.305-13.568-30.305-30.305c0-16.737 13.568-30.305 30.305-30.305s30.305 13.568 30.305 30.305z" fill="url(#linearGradient3707)"/>
  <path id="path3727" d="m11 3.8001c-1.8426 0-3.6858 0.70244-5.0916 2.1083-2.8118 2.8118-2.8118 7.3715 0 10.183 2.8118 2.8118 7.3715 2.8118 10.183 0 2.8118-2.8118 2.8118-7.3715 0-10.183-1.4059-1.4059-3.249-2.1083-5.0916-2.1083zm0 0.66666c1.672 0 3.3409 0.64095 4.6166 1.9167 2.5514 2.5514 2.5514 6.6819 0 9.2333-2.5514 2.5514-6.6819 2.5514-9.2333 0-2.5514-2.5514-2.5514-6.6819 0-9.2333 1.2757-1.2757 2.9446-1.9167 4.6166-1.9167z" fill="url(#radialGradient3738)" opacity=".6"/>
  <path id="path3742" transform="matrix(0 .17309 -.17309 0 18.699 2.9572)" d="m76.772 44.482c0 16.737-13.568 30.305-30.305 30.305s-30.305-13.568-30.305-30.305c0-16.737 13.568-30.305 30.305-30.305s30.305 13.568 30.305 30.305z" fill="#1a1a1a" stroke="#1a1a1a" stroke-width="3.8129"/>
  <path id="path3715" transform="translate(0,-2)" d="m3.0312 13.5c-0.13509 2.2079 0.62533 4.4691 2.3125 6.1562 3.1242 3.1242 8.1883 3.1242 11.312 0 1.6872-1.6872 2.4476-3.9483 2.3125-6.1562-0.11506 1.8806-0.87549 3.7192-2.3125 5.1562-3.1242 3.1242-8.1883 3.1242-11.312 0-1.437-1.437-2.1974-3.2757-2.3125-5.1562z" fill="#fff" opacity=".4"/>
 </g>
 <g id="layer4" transform="translate(0,-2)">
  <path id="path3757" transform="matrix(.32509 0 0 .32509 -4.5166 -1.9533)" d="m61.367 45.997c0 7.5315-6.1055 13.637-13.637 13.637s-13.637-6.1055-13.637-13.637 6.1055-13.637 13.637-13.637 13.637 6.1055 13.637 13.637z"/>
  <path id="path3760" d="m10.842 8.2501c-2.5359 0-4.5916 2.0557-4.5916 4.5916 0 2.5359 2.0557 4.5916 4.5916 4.5916 0.02693 0 0.05234 4.75e-4 0.07917 0-2.4118-0.04241-4.3541-2.0114-4.3541-4.4333 0-2.4484 1.9849-4.4333 4.4333-4.4333 2.4219 0 4.3909 1.9424 4.4333 4.3541 4.76e-4 -0.02682 0-0.05224 0-0.07917 0-2.5359-2.0557-4.5916-4.5916-4.5916z" opacity=".6"/>
  <path id="path2907" transform="matrix(.32509 0 0 .32509 -4.5166 -1.9533)" d="m61.367 45.997c0 7.5315-6.1055 13.637-13.637 13.637s-13.637-6.1055-13.637-13.637 6.1055-13.637 13.637-13.637 13.637 6.1055 13.637 13.637z" fill="url(#radialGradient3687)"/>
  <path id="path3705" transform="matrix(0 .30768 -.30768 0 25.152 -1.6853)" d="m61.367 45.997c0 7.5315-6.1055 13.637-13.637 13.637s-13.637-6.1055-13.637-13.637 6.1055-13.637 13.637-13.637 13.637 6.1055 13.637 13.637z" fill="none" filter="url(#filter3774)" stroke="url(#linearGradient3733)" stroke-width="1.3001"/>
  <path id="path3735" d="m10.562 9.2812c-0.91716 0.10631-1.723 0.5156-2.3125 1.1562l1.1875 1.1875c0.33542-0.37898 0.78302-0.65705 1.3125-0.71875l-0.1875-1.625zm-2.9375 2.0625c-0.19126 0.39364-0.33128 0.85634-0.375 1.3125l1.6562 0.15625c0.022429-0.24298 0.089868-0.47537 0.1875-0.6875l-1.4688-0.78125z" fill="#fff" opacity=".8"/>
  <path id="path3759" transform="matrix(.18452 -.18452 .18452 .18452 -4.4354 12.663)" d="m50.708 52c0 3.3137-4.3465 6-9.7082 6s-9.7082-2.6863-9.7082-6 4.3465-6 9.7082-6 9.7082 2.6863 9.7082 6z" fill="url(#linearGradient3767)" opacity=".43145"/>
  <path id="path3769" transform="matrix(.047743 -.047743 .047743 .047743 7.6394 13.522)" d="m50.708 52c0 3.3137-4.3465 6-9.7082 6s-9.7082-2.6863-9.7082-6 4.3465-6 9.7082-6 9.7082 2.6863 9.7082 6z" fill="url(#linearGradient3771)" opacity=".3"/>
 </g>
 <g id="layer5" transform="translate(0,-2)">
  <g id="g3786" transform="matrix(.33907 0 0 .33917 -5.2756 -3.2813)" clip-path="url(#clipPath3798)" filter="url(#filter3833)" opacity=".4">
   <path id="path3756" transform="matrix(1.0266 0 0 1.0266 -1 .77836)" d="m61.367 45.997c0 3.6168-1.4368 7.0854-3.9942 9.6429l-9.6429-9.6429z" fill="#d40000"/>
   <path id="path3772" transform="matrix(.72593 .72593 -.72593 .72593 46.743 -20.039)" d="m61.367 45.997c0 3.6168-1.4368 7.0854-3.9942 9.6429l-9.6429-9.6429z" fill="#d42aff"/>
   <path id="path3774" transform="matrix(0 1.0266 -1.0266 0 95.222 -1)" d="m61.367 45.997c0 3.6168-1.4368 7.0854-3.9942 9.6429l-9.6429-9.6429z" fill="#60f"/>
   <path id="path3776" transform="matrix(-.72593 .72593 -.72593 -.72593 116.04 46.743)" d="m61.367 45.997c0 3.6168-1.4368 7.0854-3.9942 9.6429l-9.6429-9.6429z" fill="#2a7fff"/>
   <path id="path3778" transform="matrix(-1.0266 0 0 -1.0266 97 95.222)" d="m61.367 45.997c0 3.6168-1.4368 7.0854-3.9942 9.6429l-9.6429-9.6429z" fill="#5fd3bc"/>
   <path id="path3780" transform="matrix(-.72593 -.72593 .72593 -.72593 49.257 116.04)" d="m61.367 45.997c0 3.6168-1.4368 7.0854-3.9942 9.6429l-9.6429-9.6429z" fill="#55d400"/>
   <path id="path3782" transform="matrix(0 -1.0266 1.0266 0 .77836 97)" d="m61.367 45.997c0 3.6168-1.4368 7.0854-3.9942 9.6429l-9.6429-9.6429z" fill="#fc0"/>
   <path id="path3784" transform="matrix(.72593 -.72593 .72593 .72593 -20.039 49.257)" d="m61.367 45.997c0 3.6168-1.4368 7.0854-3.9942 9.6429l-9.6429-9.6429z" fill="#f60"/>
  </g>
  <g id="g3957" transform="matrix(.31614 0 0 .31623 -4.1749 -17.992)" filter="url(#filter3986)" opacity=".8">
   <path id="path3726" d="m61.531 94.375-0.96875 0.25c0.28742 1.0743 0.4375 2.21 0.4375 3.375 0 4.8078-2.6196 9.0009-6.5 11.25l0.5 0.875c5.4876-3.1682 8.1713-9.6294 6.5312-15.75z" fill="url(#linearGradient3967)" opacity=".8"/>
   <path id="path3728" d="m59.25 104.5c-2.2491 3.8804-6.4422 6.5-11.25 6.5-1.165 0-2.3007-0.15008-3.375-0.4375l-0.25 0.96875c6.1206 1.64 12.582-1.0437 15.75-6.5312l-0.875-0.5z" fill="url(#linearGradient3969)" opacity=".8"/>
   <path id="path3730" d="m36.75 104.5-0.875 0.5c3.1682 5.4876 9.6294 8.1712 15.75 6.5312l-0.25-0.96875c-1.0743 0.28742-2.21 0.4375-3.375 0.4375-4.8078 0-9.0009-2.6196-11.25-6.5z" fill="url(#linearGradient3971)"/>
   <path id="path3732" d="m34.469 94.375c-1.64 6.1206 1.0437 12.582 6.5312 15.75l0.5-0.875c-3.8804-2.2491-6.5-6.4422-6.5-11.25 0-1.165 0.15008-2.3007 0.4375-3.375l-0.96875-0.25z" fill="url(#linearGradient3973)" opacity=".9"/>
   <path id="path3734" d="m41 85.875c-5.4876 3.1682-8.1713 9.6294-6.5312 15.75l0.96875-0.25c-0.28742-1.0743-0.4375-2.21-0.4375-3.375 0-4.8078 2.6196-9.0009 6.5-11.25l-0.5-0.875z" fill="url(#linearGradient3975)"/>
   <path id="path3736" d="m48.156 84c-4.9724-0.06059-9.7071 2.5414-12.281 7l0.875 0.5c2.2491-3.8804 6.4422-6.5 11.25-6.5 1.165 0 2.3007 0.15008 3.375 0.4375l0.25-0.96875c-1.1476-0.3075-2.3213-0.45477-3.4688-0.46875z" fill="url(#linearGradient3977)"/>
   <path id="path3738" d="m47.844 84c-1.1475 0.01398-2.3211 0.16125-3.4688 0.46875l0.25 0.96875c1.0743-0.28742 2.21-0.4375 3.375-0.4375 4.8078 0 9.0009 2.6196 11.25 6.5l0.875-0.5c-2.5742-4.4586-7.3088-7.0606-12.281-7z" fill="url(#linearGradient3979)"/>
   <path id="path3740" d="m55 85.875-0.5 0.875c3.8804 2.2491 6.5 6.4422 6.5 11.25 0 1.165-0.15008 2.3007-0.4375 3.375l0.96875 0.25c1.64-6.1206-1.0437-12.582-6.5312-15.75z" fill="url(#linearGradient3981)" opacity=".9"/>
  </g>
  <path id="path3793" transform="matrix(.093109 -.093135 .093109 .093135 4.5629 14.194)" d="m50.708 52c0 3.3137-4.3465 6-9.7082 6s-9.7082-2.6863-9.7082-6 4.3465-6 9.7082-6 9.7082 2.6863 9.7082 6z" fill="url(#radialGradient3803)" opacity=".8"/>
 </g>
</svg>
