<?xml version="1.0" encoding="UTF-8"?>
<!-- Created with Inkscape (http://www.inkscape.org/) -->
<svg id="svg2" width="22" height="22" version="1.1" xmlns="http://www.w3.org/2000/svg" xmlns:cc="http://creativecommons.org/ns#" xmlns:dc="http://purl.org/dc/elements/1.1/" xmlns:rdf="http://www.w3.org/1999/02/22-rdf-syntax-ns#" xmlns:xlink="http://www.w3.org/1999/xlink">
 <defs id="defs4">
  <linearGradient id="linearGradient3335" x1="11.375" x2="11.375" y1="22" y2="-9.8173" gradientUnits="userSpaceOnUse">
   <stop id="stop3330" offset="0"/>
   <stop id="stop3333" stop-opacity="0" offset="1"/>
  </linearGradient>
  <linearGradient id="linearGradient3181" x1="-3.0608" x2="-3.0608" y1="27.258" y2="7.2537" gradientTransform="translate(11.119 -6.2582)" gradientUnits="userSpaceOnUse">
   <stop id="stop4086-9" stop-color="#61537d" offset="0"/>
   <stop id="stop4088-0" stop-color="#a192bb" offset="1"/>
  </linearGradient>
  <filter id="filter3194" x="-.18" y="-.18" width="1.36" height="1.36">
   <feGaussianBlur id="feGaussianBlur3196" stdDeviation="1.2"/>
  </filter>
  <clipPath id="clipPath2849">
   <rect id="rect2851" x="1" y="1" width="20" height="20" rx="2" ry="2" fill="#fff" fill-rule="evenodd"/>
  </clipPath>
  <linearGradient id="linearGradient4152" x1="48" x2="48" y1="6" y2="109.11" gradientTransform="matrix(.2381 0 0 .2381 -.42857 -.42857)" gradientUnits="userSpaceOnUse">
   <stop id="stop3739" stop-color="#fff" offset="0"/>
   <stop id="stop3741" stop-color="#fff" stop-opacity="0" offset="1"/>
  </linearGradient>
  <linearGradient id="linearGradient8687">
   <stop id="stop8689" stop-color="#a40000" offset="0"/>
   <stop id="stop8691" stop-color="#a40000" stop-opacity="0" offset="1"/>
  </linearGradient>
  <linearGradient id="linearGradient9586">
   <stop id="stop9588" stop-color="#c00" offset="0"/>
   <stop id="stop9590" stop-color="#c00" stop-opacity="0" offset="1"/>
  </linearGradient>
  <linearGradient id="linearGradient3977">
   <stop id="stop3979" stop-color="#ddd" offset="0"/>
   <stop id="stop3981" stop-color="#9a9a9a" offset=".34865"/>
   <stop id="stop3987" stop-color="#696969" offset=".67432"/>
   <stop id="stop3983" stop-color="#333" offset="1"/>
  </linearGradient>
  <linearGradient id="linearGradient4055">
   <stop id="stop4057" stop-color="#ed1414" offset="0"/>
   <stop id="stop4059" stop-color="#ef2929" stop-opacity="0" offset="1"/>
  </linearGradient>
  <linearGradient id="linearGradient9598">
   <stop id="stop9600" stop-color="#efaa29" offset="0"/>
   <stop id="stop9602" stop-color="#ef2929" stop-opacity="0" offset="1"/>
  </linearGradient>
  <radialGradient id="radialGradient3918" cx="18.685" cy="25.668" r="5.05" gradientTransform="matrix(1.8427 0 0 1.8146 -5.3758 -26.631)" gradientUnits="userSpaceOnUse" xlink:href="#linearGradient8687"/>
  <radialGradient id="radialGradient3920" cx="18.685" cy="25.668" r="5.05" gradientTransform="matrix(1.3162 0 0 1.2961 4.4614 -13.246)" gradientUnits="userSpaceOnUse" xlink:href="#linearGradient9586"/>
  <radialGradient id="radialGradient3922" cx="18.685" cy="25.668" r="5.05" gradientTransform="matrix(1.8427 0 0 1.8146 -17.008 -26.631)" gradientUnits="userSpaceOnUse" xlink:href="#linearGradient8687"/>
  <radialGradient id="radialGradient3924" cx="18.685" cy="25.668" r="5.05" gradientTransform="matrix(1.3162 0 0 1.2961 -7.1705 -13.246)" gradientUnits="userSpaceOnUse" xlink:href="#linearGradient9586"/>
  <radialGradient id="radialGradient3926" cx="18.685" cy="25.668" r="5.05" gradientTransform="matrix(1.8427 0 0 1.8146 6.256 -26.631)" gradientUnits="userSpaceOnUse" xlink:href="#linearGradient8687"/>
  <radialGradient id="radialGradient3928" cx="18.685" cy="25.668" r="5.05" gradientTransform="matrix(1.3162 0 0 1.2961 16.093 -13.246)" gradientUnits="userSpaceOnUse" xlink:href="#linearGradient9586"/>
  <radialGradient id="radialGradient3930" cx="13.199" cy="12.464" r="21.009" gradientTransform="matrix(-5.5599e-8 1.774 -1.7379 -.034892 38.152 -16.249)" gradientUnits="userSpaceOnUse" xlink:href="#linearGradient3977"/>
  <radialGradient id="radialGradient3934" cx="18.685" cy="25.668" r="5.05" gradientTransform="matrix(2.4906 0 0 2.4526 -29.114 -42.931)" gradientUnits="userSpaceOnUse" xlink:href="#linearGradient4055"/>
  <radialGradient id="radialGradient3936" cx="18.685" cy="25.668" r="5.05" gradientTransform="matrix(2.4906 0 0 2.4526 -17.114 -42.931)" gradientUnits="userSpaceOnUse" xlink:href="#linearGradient4055"/>
  <radialGradient id="radialGradient3938" cx="18.685" cy="25.668" r="5.05" gradientTransform="matrix(2.4906 0 0 2.4526 -5.1138 -42.931)" gradientUnits="userSpaceOnUse" xlink:href="#linearGradient4055"/>
  <radialGradient id="radialGradient3940" cx="18.685" cy="25.668" r="5.05" gradientTransform="matrix(.78972 0 0 .77769 14.299 .061177)" gradientUnits="userSpaceOnUse" xlink:href="#linearGradient9598"/>
  <radialGradient id="radialGradient3942" cx="18.685" cy="25.668" r="5.05" gradientTransform="matrix(.78972 0 0 .77769 2.6668 .061166)" gradientUnits="userSpaceOnUse" xlink:href="#linearGradient9598"/>
  <radialGradient id="radialGradient3944" cx="18.685" cy="25.668" r="5.05" gradientTransform="matrix(.78972 0 0 .77769 25.931 .061177)" gradientUnits="userSpaceOnUse" xlink:href="#linearGradient9598"/>
  <radialGradient id="radialGradient4158" cx="13.199" cy="12.464" r="21.009" gradientTransform="matrix(-1.5835e-8 .52844 -.49497 -.010393 -16.514 .20254)" gradientUnits="userSpaceOnUse" xlink:href="#linearGradient3977"/>
  <linearGradient id="linearGradient4173" x1="4.3019" x2="13.738" y1="4.033" y2="13.469" gradientUnits="userSpaceOnUse">
   <stop id="stop4002" stop-color="#eeeeec" offset="0"/>
   <stop id="stop4004" stop-color="#eeeeec" stop-opacity="0" offset="1"/>
  </linearGradient>
  <linearGradient id="linearGradient4188" x1="17.612" x2="6.3504" y1="17.967" y2="4.543" gradientUnits="userSpaceOnUse">
   <stop id="stop4184" offset="0"/>
   <stop id="stop4186" stop-opacity="0" offset="1"/>
  </linearGradient>
  <linearGradient id="linearGradient3845" x1="11" x2="21" y1="19.5" y2="19.5" gradientUnits="userSpaceOnUse" spreadMethod="reflect">
   <stop id="stop3833" stop-color="#fff" offset="0"/>
   <stop id="stop3821" stop-color="#fff" stop-opacity=".49804" offset=".75"/>
   <stop id="stop3835" stop-color="#fff" stop-opacity="0" offset="1"/>
  </linearGradient>
  <linearGradient id="linearGradient3961" x1="10" x2="10" y1="1" y2="16" gradientUnits="userSpaceOnUse">
   <stop id="stop3825" stop-color="#fff" offset="0"/>
   <stop id="stop3829" stop-color="#fff" stop-opacity="0" offset="1"/>
  </linearGradient>
 </defs>
 <metadata id="metadata7">
  <rdf:RDF>
   <cc:Work rdf:about="">
    <dc:format>image/svg+xml</dc:format>
    <dc:type rdf:resource="http://purl.org/dc/dcmitype/StillImage"/>
   </cc:Work>
  </rdf:RDF>
 </metadata>
 <g id="layer1">
  <g id="g3337">
   <rect id="rect3371" x=".5" y=".5" width="21" height="21.5" rx="2.5" ry="2.5" fill="url(#linearGradient3335)" opacity=".3"/>
   <rect id="rect2553" x="1" y="2" width="20" height="20" rx="2.381" ry="2.3256" opacity=".5"/>
  </g>
  <rect id="rect3173" x="1" y="1" width="20" height="20" rx="2" ry="2" fill="url(#linearGradient3181)" fill-rule="evenodd"/>
  <path id="path4141" d="m4.5417 1 6.1384 9.6801-9.6801-6.2277v4.4048l9.5759 2.1429-9.5759 2.0833v4.375l9.6801-6.1384-6.2277 9.6801h4.4048l2.1429-9.5759 2.0833 9.5759h4.375l-6.1384-9.6801 9.6801 6.2277v-4.4048l-9.5759-2.1429 9.5759-2.0833v-4.375l-9.6801 6.1384 6.2277-9.6801h-4.4048l-2.1429 9.5759-2.0833-9.5759h-4.375z" fill="url(#linearGradient4152)" opacity=".2"/>
  <path id="rect3050" d="m3 1c-1.108 0-2 0.892-2 2v16c0 1.108 0.892 2 2 2h16c1.108 0 2-0.892 2-2v-16c0-1.108-0.892-2-2-2h-16zm0 1.0312h16c0.5497 0 0.96875 0.41905 0.96875 0.96875v16c0 0.5497-0.41905 0.96875-0.96875 0.96875h-16c-0.5497 0-0.96875-0.41905-0.96875-0.96875v-16c0-0.5497 0.41905-0.96875 0.96875-0.96875z" fill="url(#linearGradient3961)" fill-rule="evenodd" opacity=".3"/>
  <path id="path3235" d="m3 21c-1.108 0-2-0.892-2-2v-1c0 1.108 0.892 2 2 2h16c1.108 0 2-0.892 2-2v1c0 1.108-0.892 2-2 2h-16z" fill="url(#linearGradient3845)" fill-rule="evenodd" opacity=".2"/>
 </g>
 <g id="layer2">
  <rect id="rect2410" x="3" y="3" width="16" height="16" rx="2" ry="2" clip-path="url(#clipPath2849)" fill="#fff" filter="url(#filter3194)" opacity=".15"/>
 </g>
 <g id="layer3">
  <path id="path4054" d="m10.875 3.4375c-3.2449-0.049322-6.2855 2.2195-7.3282 5.2641-0.14652 0.62239-0.53413 1.3021-0.32808 1.9234 0.11514 0.48459 0.61802 0.76507 1.1027 0.71875 0.23693 0.26072-0.14226 0.38096-0.4152 0.34375-0.50432 0.14022-0.81718 0.66622-0.75 1.1875 0.43677 2.4267 1.9824 4.6927 4.2092 5.8277 2.7611 1.4927 6.4022 0.99104 8.6783-1.1622 1.3693-1.2457 2.3022-3.0041 2.5501-4.8217 0.02047-0.48387-0.34778-0.98953-0.84375-1.0312-0.42648 0.09848-0.42209-0.47166 0-0.375 0.53211-0.04764 0.89904-0.60625 0.84375-1.125-0.44332-2.852-2.5211-5.4571-5.3049-6.358-0.77633-0.26053-1.5951-0.39246-2.4139-0.39202z" opacity=".1"/>
  <path id="path4049" d="m10.875 4c-3.5919 0-6.5637 2.676-7.1562 6.1875a0.48466 0.48466 0 0 0 0.46875 0.59375h0.75v1.4375h-0.75a0.48466 0.48466 0 0 0-0.46875 0.59375c0.59779 3.505 3.5677 6.1875 7.1562 6.1875 3.5888 0 6.5589-2.6819 7.1562-6.1875a0.48466 0.48466 0 0 0-0.46875-0.59375h-0.6875v-1.4375h0.6875a0.48466 0.48466 0 0 0 0.46875-0.59375c-0.5929-3.5111-3.5646-6.1875-7.1562-6.1875z" opacity=".15"/>
  <path id="path3948" d="m10.875 4.5c-3.3517 0-6.1324 2.492-6.6875 5.7812h1.25v2.4375h-1.25c0.55994 3.2832 3.34 5.7812 6.6875 5.7812 3.3478 0 6.128-2.4976 6.6875-5.7812h-1.1875v-2.4375h1.1875c-0.55537-3.2889-3.3361-5.7812-6.6875-5.7812z" opacity=".3"/>
  <g id="g3901" transform="matrix(.28481 0 0 .29787 2.62 5.0426)">
   <path id="rect4902" d="m9.8775 13.594h38.383v13.491h-38.383v-13.491z" fill="#2e3436"/>
   <path id="path4962" d="m38.36 19.946c0 5.061-4.1662 9.1638-9.3055 9.1638-5.1393 0-9.3055-4.1028-9.3055-9.1638s4.1662-9.1638 9.3055-9.1638c5.1393 0 9.3055 4.1028 9.3055 9.1638z" fill="url(#radialGradient3918)" opacity=".75"/>
   <path id="path4964" d="m35.701 20.023c0 3.615-2.9759 6.5455-6.6468 6.5455s-6.6468-2.9305-6.6468-6.5455 2.9759-6.5455 6.6468-6.5455 6.6468 2.9305 6.6468 6.5455z" fill="url(#radialGradient3920)" opacity=".75"/>
   <path id="path4905" d="m26.728 19.946c0 5.061-4.1662 9.1638-9.3055 9.1638-5.1393 0-9.3055-4.1028-9.3055-9.1638 0-5.061 4.1662-9.1638 9.3055-9.1638 5.1393 0 9.3055 4.1028 9.3055 9.1638z" fill="url(#radialGradient3922)"/>
   <path id="path4907" d="m24.069 20.023c0 3.615-2.9759 6.5455-6.6468 6.5455s-6.6468-2.9305-6.6468-6.5455 2.9759-6.5455 6.6468-6.5455 6.6468 2.9305 6.6468 6.5455z" fill="url(#radialGradient3924)"/>
   <path id="path1382" d="m49.992 19.946c0 5.061-4.1662 9.1638-9.3055 9.1638-5.1393 0-9.3055-4.1028-9.3055-9.1638s4.1662-9.1638 9.3055-9.1638c5.1393 0 9.3055 4.1028 9.3055 9.1638z" fill="url(#radialGradient3926)" opacity=".5"/>
   <path id="path1384" d="m47.333 20.023c0 3.615-2.9759 6.5455-6.6468 6.5455s-6.6468-2.9305-6.6468-6.5455 2.9759-6.5455 6.6468-6.5455 6.6468 2.9305 6.6468 6.5455z" fill="url(#radialGradient3928)" opacity=".5"/>
   <path id="path2216" d="m29.018-3.5c-11.768 0-21.569 8.3947-23.518 19.437h47c-1.9499-11.041-11.715-19.437-23.482-19.437zm-23.482 27.563c1.966 11.022 11.729 19.437 23.482 19.437 11.754 0 21.517-8.4134 23.482-19.437h-46.964z" fill="url(#radialGradient3930)" fill-rule="evenodd"/>
   <path id="path3113" d="m29.018-2.3545c-10.731 0-19.716 7.3879-22.064 17.254h44.128c-2.3487-9.8658-11.333-17.254-22.064-17.254zm-22.064 27.455c2.3487 9.8657 11.333 17.218 22.064 17.218 10.731 0 19.716-7.3521 22.064-17.218h-44.128z" fill="none"/>
   <path id="path4053" d="m30 20.023c0 6.8405-5.6311 12.386-12.577 12.386-6.9463 0-12.577-5.5453-12.577-12.386s5.6311-12.386 12.577-12.386c6.9463 0 12.577 5.5453 12.577 12.386z" fill="url(#radialGradient3934)" opacity=".3"/>
   <path id="path4063" d="m42 20.023c0 6.8405-5.6311 12.386-12.577 12.386-6.9463 0-12.577-5.5453-12.577-12.386s5.6311-12.386 12.577-12.386c6.9463 0 12.577 5.5453 12.577 12.386z" fill="url(#radialGradient3936)" opacity=".3"/>
   <path id="path4067" d="m54 20.023c0 6.8405-5.6311 12.386-12.577 12.386-6.9463 0-12.577-5.5453-12.577-12.386s5.6311-12.386 12.577-12.386c6.9463 0 12.577 5.5453 12.577 12.386z" fill="url(#radialGradient3938)" opacity=".3"/>
   <path id="path4966" d="m33.043 20.023c0 2.169-1.7855 3.9273-3.9881 3.9273-2.2025 0-3.9881-1.7583-3.9881-3.9273s1.7855-3.9273 3.9881-3.9273c2.2025 0 3.9881 1.7583 3.9881 3.9273z" fill="url(#radialGradient3940)" opacity=".75"/>
   <path id="path4909" d="m21.411 20.023c0 2.169-1.7855 3.9273-3.9881 3.9273-2.2025 0-3.9881-1.7583-3.9881-3.9273s1.7855-3.9273 3.9881-3.9273c2.2025 0 3.9881 1.7583 3.9881 3.9273z" fill="url(#radialGradient3942)"/>
   <path id="path1386" d="m44.674 20.023c0 2.169-1.7855 3.9273-3.9881 3.9273-2.2025 0-3.9881-1.7583-3.9881-3.9273s1.7855-3.9273 3.9881-3.9273c2.2025 0 3.9881 1.7583 3.9881 3.9273z" fill="url(#radialGradient3944)" opacity=".5"/>
  </g>
  <path id="path4060" d="m-24.567 9.0918h10.932v4.0186h-10.932v-4.0186z" fill="#2e3436"/>
  <path id="path4074" d="m-19.115 4c-3.3517 0-6.1433 2.5005-6.6983 5.7898h13.386c-0.55537-3.2889-3.3366-5.7898-6.688-5.7898zm-6.688 8.2102c0.55994 3.2832 3.3405 5.7898 6.688 5.7898 3.3478 0 6.1284-2.5061 6.688-5.7898h-13.376z" fill="url(#radialGradient4158)" fill-rule="evenodd"/>
  <path id="path4076" d="m-19.115 4.3412c-3.0564 0-5.6153 2.2006-6.2842 5.1394h12.568c-0.66893-2.9387-3.2278-5.1394-6.2842-5.1394zm-6.2842 8.1782c0.66893 2.9387 3.2278 5.1287 6.2842 5.1287 3.0564 0 5.6153-2.19 6.2842-5.1287h-12.568z" fill="none"/>
  <path id="path4160" d="m10.875 4c-3.3517 0-6.1324 2.492-6.6875 5.7812h0.25c0.90103-2.778 3.4383-4.7812 6.4375-4.7812 2.999 0 5.538 2.0035 6.4375 4.7812h0.25c-0.55537-3.2889-3.3361-5.7812-6.6875-5.7812zm-6.6875 8.2188c0.058886 0.34527 0.14392 0.67392 0.25 1h12.875c0.10605-0.32611 0.19116-0.65468 0.25-1h-13.375z" fill="url(#linearGradient4173)" fill-rule="evenodd" opacity=".4"/>
  <path id="path4175" d="m4.4375 8.7812c-0.10589 0.32647-0.19163 0.65409-0.25 1h13.375c-0.05841-0.34587-0.14429-0.67355-0.25-1h-12.875zm-0.25 3.4375c0.55994 3.2832 3.34 5.7812 6.6875 5.7812 3.3478 0 6.128-2.4976 6.6875-5.7812h-0.25c-0.90235 2.7749-3.4417 4.7812-6.4375 4.7812-2.9954 0-5.5349-2.0066-6.4375-4.7812h-0.25z" fill="url(#linearGradient4188)" fill-rule="evenodd" opacity=".3"/>
 </g>
</svg>
