<?xml version="1.0" encoding="UTF-8"?>
<!-- Created with Inkscape (http://www.inkscape.org/) -->
<svg id="svg2" width="22" height="22" version="1.1" xmlns="http://www.w3.org/2000/svg" xmlns:cc="http://creativecommons.org/ns#" xmlns:dc="http://purl.org/dc/elements/1.1/" xmlns:rdf="http://www.w3.org/1999/02/22-rdf-syntax-ns#" xmlns:xlink="http://www.w3.org/1999/xlink">
 <defs id="defs4">
  <linearGradient id="linearGradient3335" x1="11.375" x2="11.375" y1="22" y2="-9.8173" gradientUnits="userSpaceOnUse">
   <stop id="stop3330" offset="0"/>
   <stop id="stop3333" stop-opacity="0" offset="1"/>
  </linearGradient>
  <linearGradient id="linearGradient3181" x1="-3.0608" x2="-3.0608" y1="27.258" y2="7.2537" gradientTransform="translate(11.119 -6.2582)" gradientUnits="userSpaceOnUse">
   <stop id="stop3189-8" stop-color="#623b6b" offset="0"/>
   <stop id="stop3191-5" stop-color="#ad7fa8" offset="1"/>
  </linearGradient>
  <filter id="filter3194" x="-.18" y="-.18" width="1.36" height="1.36" color-interpolation-filters="sRGB">
   <feGaussianBlur id="feGaussianBlur3196" stdDeviation="1.2"/>
  </filter>
  <clipPath id="clipPath2849">
   <rect id="rect2851" x="1" y="1" width="20" height="20" rx="2" ry="2" fill="#fff" fill-rule="evenodd"/>
  </clipPath>
  <clipPath id="clipPath3728">
   <rect id="rect3730" transform="scale(1,-1)" x="6" y="-90" width="84" height="84" rx="8.4" ry="8.4" fill="url(#linearGradient3732)" fill-rule="evenodd"/>
  </clipPath>
  <linearGradient id="linearGradient3732" x1="-3.0608" x2="-3.0608" y1="27.258" y2="7.2537" gradientTransform="matrix(4.2 0 0 4.2 48.501 -120.48)" gradientUnits="userSpaceOnUse">
   <stop id="stop3226" stop-color="#80a2c8" offset="0"/>
   <stop id="stop3228" stop-color="#2e4c6d" offset="1"/>
  </linearGradient>
  <linearGradient id="linearGradient3858" x1="86.133" x2="84.639" y1="105.1" y2="20.895" gradientTransform="matrix(.084088 0 0 .084088 5.6208 5.7001)" gradientUnits="userSpaceOnUse">
   <stop id="stop5130-2" stop-color="#e5e5e5" offset="0"/>
   <stop id="stop5132-5" stop-color="#ababab" offset="1"/>
  </linearGradient>
  <linearGradient id="linearGradient3868" x1="25" x2="25" y2="16" gradientTransform="matrix(.93333 0 0 .93333 -12.388 3.5333)" gradientUnits="userSpaceOnUse">
   <stop id="stop3311-4" stop-color="#f6f6f6" offset="0"/>
   <stop id="stop3313-9" stop-color="#ccc" offset="1"/>
  </linearGradient>
  <filter id="filter3883" color-interpolation-filters="sRGB">
   <feGaussianBlur id="feGaussianBlur3885" stdDeviation="0.55999999"/>
  </filter>
  <linearGradient id="linearGradient3845-2" x1="11" x2="21" y1="19.5" y2="19.5" gradientUnits="userSpaceOnUse" spreadMethod="reflect">
   <stop id="stop3833" stop-color="#fff" offset="0"/>
   <stop id="stop3821" stop-color="#fff" stop-opacity=".49804" offset=".75"/>
   <stop id="stop3835" stop-color="#fff" stop-opacity="0" offset="1"/>
  </linearGradient>
  <linearGradient id="linearGradient3961" x1="10" x2="10" y1="1" y2="16" gradientUnits="userSpaceOnUse">
   <stop id="stop3825" stop-color="#fff" offset="0"/>
   <stop id="stop3829" stop-color="#fff" stop-opacity="0" offset="1"/>
  </linearGradient>
 </defs>
 <metadata id="metadata7">
  <rdf:RDF>
   <cc:Work rdf:about="">
    <dc:format>image/svg+xml</dc:format>
    <dc:type rdf:resource="http://purl.org/dc/dcmitype/StillImage"/>
   </cc:Work>
  </rdf:RDF>
 </metadata>
 <g id="layer1">
  <g id="g3337">
   <rect id="rect3371" x=".5" y=".5" width="21" height="21.5" rx="2.5" ry="2.5" fill="url(#linearGradient3335)" opacity=".3"/>
   <rect id="rect2553" x="1" y="2" width="20" height="20" rx="2.381" ry="2.3256" opacity=".5"/>
  </g>
  <rect id="rect3173" x="1" y="1" width="20" height="20" rx="2" ry="2" fill="url(#linearGradient3181)" fill-rule="evenodd"/>
  <g id="g3855" transform="matrix(.2381 0 0 .2381 -.42857 -.42857)" clip-path="url(#clipPath3728)" fill="#eed7f4" opacity=".9">
   <path id="path3819" d="m48 48 24-56h16l-40 56z" opacity=".15"/>
   <path id="path3821" d="m48 48 55.251 25.677-0.48222 15.993-54.769-41.67z" opacity=".15"/>
   <path id="path3823" d="m48 48-59.828 11.516-8.9688-13.25 68.797 1.734z" opacity=".15"/>
   <path id="path3825" d="m48 48-49.311-35.783 3.5361-15.604 45.775 51.387z" opacity=".15"/>
   <path id="path3827" d="m48 48 17.519-62.073 30.436 12.714-47.955 49.359z" opacity=".15"/>
   <path id="path3829" d="m48 48 61.636-19.001 5.8539 32.461-67.49-13.46z" opacity=".15"/>
   <path id="path3831" d="m48 48-31.246 56.424-26.723-19.336 57.969-37.089z" opacity=".15"/>
   <path id="path3833" d="m48 48-62.812-14.651 11.304-30.988 51.508 45.639z" opacity=".15"/>
   <path id="path3835" d="m48 48 45.81 45.403-3.6917 9.0215-42.118-54.425z" opacity=".15"/>
   <path id="path3837" d="m48 48-2.9701 64.43-9.1685 3.31 12.139-67.74z" opacity=".15"/>
   <path id="path3839" d="m48 48-44.859 46.343-9.0645-3.585 53.924-42.758z" opacity=".15"/>
   <path id="path3841" d="m48 48-62.116 17.366-6.0159-7.6698 68.132-9.6964z" opacity=".15"/>
   <path id="path3843" d="m48 48-29.147-57.537 6.3493-7.3962 22.797 64.933z" opacity=".15"/>
   <path id="path3845" d="m48 48 59.482-24.939 6.921 6.8641-66.403 18.074z" opacity=".15"/>
   <path id="path3849" d="m48 48 40.187 45.793-6.8963 14.437-33.29-60.231z" opacity=".15"/>
   <path id="path3851" d="m48 48-35.958-49.184 8.1521-13.767 27.806 62.951z" opacity=".15"/>
  </g>
  <rect id="rect2975" x="1" y="1" width="20" height="20" rx="1.4286" ry="1.4286" fill="url(#linearGradient2977)"/>
  <path id="rect3050" d="m3 1c-1.108 0-2 0.892-2 2v16c0 1.108 0.892 2 2 2h16c1.108 0 2-0.892 2-2v-16c0-1.108-0.892-2-2-2h-16zm0 1.0312h16c0.5497 0 0.96875 0.41905 0.96875 0.96875v16c0 0.5497-0.41905 0.96875-0.96875 0.96875h-16c-0.5497 0-0.96875-0.41905-0.96875-0.96875v-16c0-0.5497 0.41905-0.96875 0.96875-0.96875z" fill="url(#linearGradient3961)" fill-rule="evenodd" opacity=".3"/>
  <path id="path3235" d="m3 21c-1.108 0-2-0.892-2-2v-1c0 1.108 0.892 2 2 2h16c1.108 0 2-0.892 2-2v1c0 1.108-0.892 2-2 2h-16z" fill="url(#linearGradient3845-2)" fill-rule="evenodd" opacity=".2"/>
 </g>
 <g id="layer2">
  <rect id="rect2410" x="3" y="3" width="16" height="16" rx="2" ry="2" clip-path="url(#clipPath2849)" fill="#fff" filter="url(#filter3194)" opacity=".15"/>
 </g>
 <g id="layer3">
  <path id="path3875" d="m10.008 4.5c-0.23186 0-0.40833 0.17648-0.40833 0.40833v1.1667c-0.51698 0.13272-0.98109 0.34709-1.4292 0.6125l-0.84583-0.84583c-0.16395-0.16395-0.41939-0.16395-0.58333 0l-1.4 1.4c-0.16395 0.16395-0.16395 0.41939 0 0.58333l0.84583 0.84583c-0.26541 0.44808-0.47978 0.91219-0.6125 1.4292h-1.1667c-0.23186 0-0.40833 0.17648-0.40833 0.40833v1.9833c0 0.23186 0.17648 0.40833 0.40833 0.40833h1.1667c0.13272 0.51698 0.34709 0.98109 0.6125 1.4292l-0.84583 0.84583c-0.16395 0.16395-0.16395 0.41939 0 0.58333l1.4 1.4c0.16395 0.16395 0.41939 0.16395 0.58333 0l0.84583-0.84583c0.44808 0.26541 0.91219 0.47978 1.4292 0.6125v1.1667c1e-7 0.23186 0.17648 0.40833 0.40833 0.40833h1.9833c0.23186 0 0.40833-0.17648 0.40833-0.40833v-1.1667c0.51698-0.13272 0.98109-0.34709 1.4292-0.6125l0.84583 0.84583c0.16395 0.16395 0.41938 0.16395 0.58333 0l1.4-1.4c0.16395-0.16395 0.16395-0.41939 0-0.58333l-0.84583-0.84583c0.26541-0.44808 0.47978-0.91219 0.6125-1.4292h1.1667c0.23186 0 0.40833-0.17648 0.40833-0.40833v-1.9833c0-0.23186-0.17648-0.40833-0.40833-0.40833h-1.1667c-0.13272-0.51698-0.34709-0.98109-0.6125-1.4292l0.84583-0.84583c0.16395-0.16395 0.16395-0.41939 0-0.58333l-1.4-1.4c-0.16395-0.16395-0.41939-0.16395-0.58333 0l-0.84583 0.84583c-0.44808-0.26541-0.91219-0.47978-1.4292-0.6125v-1.1667c0-0.23186-0.17648-0.40833-0.40833-0.40833h-1.9833zm0.99167 5.1333c1.0304 0 1.8667 0.83627 1.8667 1.8667s-0.83627 1.8667-1.8667 1.8667c-1.0304 0-1.8667-0.83627-1.8667-1.8667s0.83627-1.8667 1.8667-1.8667z" display="block" filter="url(#filter3883)" opacity=".8"/>
  <path id="path2426" d="m10.008 4c-0.23186 0-0.40833 0.17648-0.40833 0.40833v1.1667c-0.51698 0.13272-0.98109 0.34709-1.4292 0.6125l-0.84583-0.84583c-0.16395-0.16395-0.41939-0.16395-0.58333 0l-1.4 1.4c-0.16395 0.16395-0.16395 0.41939 0 0.58333l0.84583 0.84583c-0.26541 0.44808-0.47978 0.91219-0.6125 1.4292h-1.1667c-0.23186 0-0.40833 0.17648-0.40833 0.40833v1.9833c0 0.23186 0.17648 0.40833 0.40833 0.40833h1.1667c0.13272 0.51698 0.34709 0.98109 0.6125 1.4292l-0.84583 0.84583c-0.16395 0.16395-0.16395 0.41939 0 0.58333l1.4 1.4c0.16395 0.16395 0.41939 0.16395 0.58333 0l0.84583-0.84583c0.44808 0.26541 0.91219 0.47978 1.4292 0.6125v1.1667c1e-7 0.23186 0.17648 0.40833 0.40833 0.40833h1.9833c0.23186 0 0.40833-0.17648 0.40833-0.40833v-1.1667c0.51698-0.13272 0.98109-0.34709 1.4292-0.6125l0.84583 0.84583c0.16395 0.16395 0.41938 0.16395 0.58333 0l1.4-1.4c0.16395-0.16395 0.16395-0.41939 0-0.58333l-0.84583-0.84583c0.26541-0.44808 0.47978-0.91219 0.6125-1.4292h1.1667c0.23186 0 0.40833-0.17648 0.40833-0.40833v-1.9833c0-0.23186-0.17648-0.40833-0.40833-0.40833h-1.1667c-0.13272-0.51698-0.34709-0.98109-0.6125-1.4292l0.84583-0.84583c0.16395-0.16395 0.16395-0.41939 0-0.58333l-1.4-1.4c-0.16395-0.16395-0.41939-0.16395-0.58333 0l-0.84583 0.84583c-0.44808-0.26541-0.91219-0.47978-1.4292-0.6125v-1.1667c0-0.23186-0.17648-0.40833-0.40833-0.40833h-1.9833zm0.99167 5.1333c1.0304 0 1.8667 0.83627 1.8667 1.8667s-0.83627 1.8667-1.8667 1.8667c-1.0304 0-1.8667-0.83627-1.8667-1.8667s0.83627-1.8667 1.8667-1.8667z" display="block" fill="url(#linearGradient3868)"/>
  <path id="path3315" d="m11 7.4546c-1.955 0-3.5454 1.5905-3.5454 3.5454 0 1.955 1.5905 3.5454 3.5454 3.5454 1.955-1e-6 3.5454-1.5905 3.5454-3.5454 0-1.955-1.5905-3.5454-3.5454-3.5454zm0 1.6364c1.0538 0 1.9091 0.85527 1.9091 1.9091 0 1.0538-0.85527 1.9091-1.9091 1.9091-1.0538 0-1.9091-0.85527-1.9091-1.9091 0-1.0538 0.85527-1.9091 1.9091-1.9091z" opacity=".05"/>
  <path id="path28" d="m11.002 7.4992c-1.9291 0-3.4985 1.5694-3.4985 3.4985 0 1.9291 1.5694 3.4985 3.4985 3.4985 1.9291 0 3.4985-1.5694 3.4985-3.4985 0-1.9291-1.5694-3.4985-3.4985-3.4985z" fill="none" stroke="url(#linearGradient3858)"/>
  <path id="path3870" transform="translate(0,-2)" d="m10 6c-0.23186 0-0.40625 0.17439-0.40625 0.40625v0.5c0-0.23186 0.17439-0.40625 0.40625-0.40625h2c0.23186 0 0.40625 0.17439 0.40625 0.40625v-0.5c0-0.23186-0.17439-0.40625-0.40625-0.40625h-2zm-2.9688 1.2188c-0.10485 0-0.19928 0.043026-0.28125 0.125l-1.4062 1.4062c-0.15247 0.15247-0.16237 0.3677-0.03125 0.53125 0.0098696-0.01231 0.019774-0.019774 0.03125-0.03125l1.4062-1.4062c0.16395-0.16395 0.39855-0.16395 0.5625 0l0.84375 0.84375c0.44808-0.26541 0.92052-0.49228 1.4375-0.625v-0.5c-0.51698 0.13272-0.98942 0.35959-1.4375 0.625l-0.84375-0.84375c-0.081973-0.081974-0.1764-0.125-0.28125-0.125zm7.9375 0c-0.10485 0-0.19928 0.043026-0.28125 0.125l-0.84375 0.84375c-0.44808-0.26541-0.92052-0.49228-1.4375-0.625v0.5c0.51698 0.13272 0.98942 0.35959 1.4375 0.625l0.84375-0.84375c0.16395-0.16395 0.39855-0.16395 0.5625 0l1.4062 1.4062c0.01148 0.011476 0.02138 0.01894 0.03125 0.03125 0.13112-0.16355 0.12122-0.37878-0.03125-0.53125l-1.4062-1.4062c-0.08197-0.081974-0.1764-0.125-0.28125-0.125zm-8.9375 3.2812c-0.18276 0.34929-0.36747 0.69926-0.46875 1.0938h-1.1562c-0.23186 0-0.40625 0.17439-0.40625 0.40625v0.5c0-0.23186 0.17439-0.40625 0.40625-0.40625h1.1562c0.13272-0.51698 0.35959-0.98942 0.625-1.4375l-0.15625-0.15625zm9.9375 0-0.15625 0.15625c0.26541 0.44808 0.49228 0.92052 0.625 1.4375h1.1562c0.23186 0 0.40625 0.17439 0.40625 0.40625v-0.5c0-0.23186-0.17439-0.40625-0.40625-0.40625h-1.1562c-0.10128-0.39449-0.28599-0.74446-0.46875-1.0938zm-9.9375 5.5-0.6875 0.6875c-0.15247 0.15247-0.16237 0.3677-0.03125 0.53125 0.00987-0.01231 0.019774-0.01977 0.03125-0.03125l0.84375-0.84375c-0.062882-0.10616-0.099505-0.2353-0.15625-0.34375zm9.9375 0c-0.05674 0.10845-0.09337 0.23759-0.15625 0.34375l0.84375 0.84375c0.01148 0.01148 0.02138 0.01894 0.03125 0.03125 0.13112-0.16355 0.12122-0.37878-0.03125-0.53125l-0.6875-0.6875z" display="block" fill="#fff"/>
 </g>
</svg>
