<?xml version="1.0" encoding="UTF-8"?>
<!-- Created with Inkscape (http://www.inkscape.org/) -->
<svg id="svg2" width="24" height="24" version="1.1" xmlns="http://www.w3.org/2000/svg" xmlns:cc="http://creativecommons.org/ns#" xmlns:dc="http://purl.org/dc/elements/1.1/" xmlns:rdf="http://www.w3.org/1999/02/22-rdf-syntax-ns#" xmlns:xlink="http://www.w3.org/1999/xlink">
 <defs id="defs4">
  <filter id="filter3342" x="-.29412" y="-.58931" width="1.5882" height="2.1786" color-interpolation-filters="sRGB">
   <feGaussianBlur id="feGaussianBlur3344" stdDeviation="2.2029067"/>
  </filter>
  <linearGradient id="linearGradient5226">
   <stop id="stop5228" stop-color="#fff" offset="0"/>
   <stop id="stop5230" stop-color="#fff" stop-opacity=".41406" offset="1"/>
  </linearGradient>
  <radialGradient id="radialGradient5232" cx="63.98" cy="61.949" r="58.02" gradientTransform="matrix(1.5058 0 0 1.1616 7.6406 -10.011)" gradientUnits="userSpaceOnUse" xlink:href="#linearGradient5226"/>
  <radialGradient id="radialGradient3180" cx="63.98" cy="61.949" r="58.02" gradientTransform="matrix(.25953 0 0 .20021 -4.577 -2.7068)" gradientUnits="userSpaceOnUse" xlink:href="#linearGradient5226"/>
  <radialGradient id="radialGradient4102" cx="63.875" cy="2.2173" r="58.375" gradientTransform="matrix(.19584 0 0 .080191 -.49439 6.39)" gradientUnits="userSpaceOnUse" xlink:href="#linearGradient5226"/>
  <radialGradient id="radialGradient4111" cx="65.236" cy="63.183" r="43.77" gradientTransform="matrix(.30185 .0038763 -.00321 .24997 -7.1654 -6.611)" gradientUnits="userSpaceOnUse" xlink:href="#linearGradient5226"/>
  <radialGradient id="radialGradient4114" cx="49.234" cy="70.608" r="25.484" gradientTransform="matrix(-.16081 .045982 .13214 .39941 6.0141 -21.428)" gradientUnits="userSpaceOnUse" xlink:href="#linearGradient5226"/>
  <linearGradient id="linearGradient3216" x1="-6.4375" x2="-6.4375" y1="25.062" y2="5.0563" gradientTransform="translate(17.937 -5.0625)" gradientUnits="userSpaceOnUse">
   <stop id="stop3702-0-2" stop-color="#3781c6" offset="0"/>
   <stop id="stop3704-4-9" stop-color="#88b2db" offset="1"/>
  </linearGradient>
  <linearGradient id="linearGradient7424" x1="11.375" x2="11.375" y1="22" y2="-9.8173" gradientTransform="translate(1,-1)" gradientUnits="userSpaceOnUse">
   <stop id="stop3330" offset="0"/>
   <stop id="stop3333" stop-opacity="0" offset="1"/>
  </linearGradient>
  <clipPath id="clipPath2849">
   <rect id="rect2851" x="1" y="1" width="20" height="20" rx="2" ry="2" fill="#fff" fill-rule="evenodd"/>
  </clipPath>
  <filter id="filter3194" x="-.18" y="-.18" width="1.36" height="1.36" color-interpolation-filters="sRGB">
   <feGaussianBlur id="feGaussianBlur3196" stdDeviation="1.2"/>
  </filter>
  <linearGradient id="linearGradient3845" x1="11" x2="21" y1="19.5" y2="19.5" gradientTransform="translate(1,-1)" gradientUnits="userSpaceOnUse" spreadMethod="reflect">
   <stop id="stop3833" stop-color="#fff" offset="0"/>
   <stop id="stop3821" stop-color="#fff" stop-opacity=".49804" offset=".75"/>
   <stop id="stop3835" stop-color="#fff" stop-opacity="0" offset="1"/>
  </linearGradient>
  <linearGradient id="linearGradient3852" x1="10" x2="10" y1="1" y2="16" gradientTransform="translate(1,-1)" gradientUnits="userSpaceOnUse">
   <stop id="stop3825" stop-color="#fff" offset="0"/>
   <stop id="stop3829" stop-color="#fff" stop-opacity="0" offset="1"/>
  </linearGradient>
  <linearGradient id="linearGradient3063" x1="56" x2="56" y1="16" y2="80" gradientTransform="matrix(.25396 0 0 .24524 -.18997 2.1242)" gradientUnits="userSpaceOnUse">
   <stop id="stop4123-5" stop-color="#313233" offset="0"/>
   <stop id="stop4125-7" stop-color="#23486a" offset="1"/>
  </linearGradient>
 </defs>
 <metadata id="metadata7">
  <rdf:RDF>
   <cc:Work rdf:about="">
    <dc:format>image/svg+xml</dc:format>
    <dc:type rdf:resource="http://purl.org/dc/dcmitype/StillImage"/>
    <dc:title/>
   </cc:Work>
  </rdf:RDF>
 </metadata>
 <g id="layer1" transform="translate(0,2)">
  <rect id="rect3371" x="1.5" y="-.5" width="21" height="21.5" rx="2.5" ry="2.5" fill="url(#linearGradient7424)" opacity=".3"/>
  <rect id="rect2553" x="2" y="1" width="20" height="20" rx="2.381" ry="2.3256" opacity=".5"/>
  <rect id="rect3200" transform="matrix(.88177 0 0 .88177 1.2991 1.2948)" x="2" y="1.98" width="17.976" height="8.9714" rx="2" ry="2" fill="#fff" filter="url(#filter3342)" opacity=".1"/>
  <rect id="rect3207" x="2" width="20" height="20" rx="2" ry="2" fill="url(#linearGradient3216)" fill-rule="evenodd"/>
  <path id="rect3050" d="m4 0c-1.108 0-2 0.892-2 2v16c0 1.108 0.892 2 2 2h16c1.108 0 2-0.892 2-2v-16c0-1.108-0.892-2-2-2h-16zm0 1.0312h16c0.5497 0 0.96875 0.41905 0.96875 0.96875v16c0 0.5497-0.41905 0.96875-0.96875 0.96875h-16c-0.5497 0-0.96875-0.41905-0.96875-0.96875v-16c0-0.5497 0.41905-0.96875 0.96875-0.96875z" fill="url(#linearGradient3852)" fill-rule="evenodd" opacity=".4"/>
  <path id="path3235" d="m4 20c-1.108 0-2-0.892-2-2v-1c0 1.108 0.892 2 2 2h16c1.108 0 2-0.892 2-2v1c0 1.108-0.892 2-2 2h-16z" fill="url(#linearGradient3845)" fill-rule="evenodd" opacity=".2"/>
 </g>
 <g id="layer2" transform="translate(0,2)">
  <rect id="rect2410" transform="translate(1,-1)" x="3" y="3" width="16" height="16" rx="2" ry="2" clip-path="url(#clipPath2849)" fill="#fff" filter="url(#filter3194)" opacity=".15"/>
 </g>
 <g id="layer4" transform="translate(0,2)">
  <path id="path3522" d="m87.781 6c2.2795 3.0622 0.15552 8.1758 3.5938 8.125 1.6741 2.3678-3.3368 0.70632 0.28125 2.5312 2.0806 1.6392-2.2012 2.5757 0.37545 4.0467-2.9696 1.5329 0.48135 8.0178 2.687 9.6408 3.6303 3.0573 1.6055-6.473 5.6562-6.9688 2.2011-2.5138 6.067-4.1274 8.8125-6.6562-2.6831-0.2179-4.2499-1.8886-1.7089-2.9235 4.6768 4.7941 1.1727-2.2704-1.4161-3.389 2.505-0.79715 4.9413-0.2134 4.5938-2.2812 2.6473-1.9375-2.545-2.563-4.3984-2.125h-18.477zm-38.406 2c-3.3842 0.96451-3.6202 9.0551-0.21875 4.5625 0.83486-1.8447 4.6928-4.0679 0.21875-4.5625zm15.812 0.28125c-1.9509 3.0603 0.28308 5.514 1.9062 1.7812 1.1489-1.5587-0.85362-1.7241-1.9062-1.7812zm4.875 0.6875c-3.7696 1.7478-0.92915 5.8235-0.83585 6.73 3.971 1.3743 6.1794-0.89853 7.6817 2.9859 3.7784 2.1784-0.07435 5.9637-1.4927 6.9495 2.5547-2.2257 7.4655 6.0513 6.1781 1.6783-1.5358-1.1218 4.1238 1.8022 1.1875-1.8438-2.7022-4.3552 0.2145-1.9498 1.3537-0.9333 3.8747-3.4758-4.3841-3.8959-2.3225-7.4729-1.8066-1.4637-4.1759-5.898-7.375-5.0312-2.1415 2.7705-0.29584-6.0368-3.4378-1.6295-0.16286 2.4637-0.05919 5.5899-0.97489 1.3218-0.61345-0.74718 1.0554-2.4842 0.037717-2.7548zm-7.6875 0.03125c-2.5302 0.84385-2.3943 4.2638 0.7169 4.6304 1.0657-1.2152 0.42339-4.4003-0.7169-4.6304zm-9.875 1.0938c-3.2865 0.77896-1.945 3.4299-0.93878 4.1765-4.0682 1.0194 6.2105 1.3029 1.095 1.9485-4.2559 1.7003 4.0982 3.7035 5.4688 1.6875 5.2555 1.2857 0.18913-4.2086-0.2722-7.1869-2.2279-2.3919-0.08794 5.514-2.1024 0.25475-0.70285 1.5618-2.9376 0.23014-3.2505-0.88032zm104.44 0.34375c-4.4101 1.7266 2.741 8.2422 0.96374 2.3146-0.17705-0.71575 0.39813-2.6069-0.96374-2.3146zm-92.094 2.625c-3.1691 2.9793 4.0282 5.4431-0.91022 7.6627-0.74047-2.7669-2.0145 1.3843-4.8398-0.85016-4.857 2.0231-7.3407-1.0538-11.407-3.1629-2.4424-0.30414-1.5248 2.3215-1.6866 4.78v20.383c2.3947 2.5204 0.9343 1.112 0 0.41685 1.3144 4.4781-0.57961 11.024 4.6013 13.629 0.88075 1.6343 4.5765 8.5967 4.7469 6.5135-1.8528-1.941-3.7538-7.76-0.61874-2.5736 2.8081 4.93 6.596 8.1276 12.13 9.3008 3.0254 1.0295 5.5135 4.5683 8.1741 3.7897 1.5044 3.9674-4.4584 7.7773 0.20019 11.478 2.432 3.7462 6.5151 6.2032 4.3045 11.462-1.5459 5.1365-0.88401 10.733-2.221 15.519-0.41497 2.9131 4.0587 10.307 3.6711 4.3862 1.3062-4.1144 1.2718-8.6417 4.3482-11.555 4.2094 0.0333 0.80451-4.528 4.9828-3.9321 2.5496-3.3432 3.2881-7.3314 7.5908-8.6589 0.51395-4.0581 7.1542-10.273 0.29444-11.853-1.8644-0.91927-6.6647-1.2498-6.2979-1.7034 0.74325-4.0267-6.2074-5.173-9.1647-6.8205-3.8829-2.7571-9.7173 4.5803-11.085-1.742-0.81625-1.9892-3.8008-2.0214-2.4291-5.0909-2.4719 2.4594-7.3068 1.7119-6.041-3.0376 1.9224-4.0001 9.3048-4.1893 10.563 0.62203-1.7466-5.3063 3.3761-9.4371 6.2199-13.212 0.57905-1.8044 4.0196-3.3547 2.8356-0.95653 2.0171-0.07278 5.0744-3.7142 1.4911-2.0335-0.05067-3.3208-3.14-2.3764-4.1415-1.9049 1.8563-2.9474 11.39-1.336 7.3977-6.1537-3.0934-1.2539-2.8361-8.571-5.965-4.4946 0.26329-2.5116-6.3684-7.4281-6.2237-3.2164 0.8095 3.7687 0.148 8.1102-1.5747 10.581-0.35951-5.5224-9.7745-4.3019-8.5641-10.187 1.7536-2.8047 3.8029-6.6832 3.9981-6.3343 3.1428-1.2004 5.6702-4.692 2.0277-6.9874-0.19467 2.0006-2.7394 6.1282-2.3811 1.136-2.3564 2.7949-1.8182-4.4474-4.0251-5.1985zm75.219 1.9375c-5.5201 1.3508-7.7085 6.6251-10.439 10.994-4.0253 1.8155-3.8721 9.6124 0.62497 7.1222 1.2036 2.1029-0.84199 5.4175 2.6638 2.6678 2.8278-3.7435 0.49446-9.7981 5.3066-12.159 0.35051 1.8354-4.439 8.689 1.1562 7.5625 5.0582 0.19093-3.6772 0.50418-1.217 3.7364-2.556-1.5171-1.2279 4.1434-4.5642 2.8261-2.8904 1.5728-4.7857-0.73026-4.1236-3.2532-2.2738 1.327 0.71516 5.0705-3.232 5.2954-0.88418 3.1409-8.1551 2.6675-4.0202 5.8658 1.8358 4.7595-6.8402 0.29837-4.3771 6.0099 2.1073 5.6479 6.5236-1.8715 8.3154-3.3242 3.457-2.6826 8.5796 4.574 5.4688 4.8438 3.4882-0.46818 2.7714-3.7868-0.0234-5.0716-1.5094-3.9163 4.7784 1.9206 4.4297 3.8841 2.2185 4.1558 1.3049-4.2549 3.5625-0.53125-0.26358 3.9279 9.0818 0.92356 4.62 5.9297-3.836 0.77293-7.6118-0.9893-10.914 0.13942-3.0738-0.02721-2.9196-3.3126-4.0387-4.1354-3.91 0.31778-8.7416 0.28185-11.359 3.4417-2.8306 3.885-6.9124 9.3161-3.8273 14.277 3.0873 7.3512 10.744 0.38131 15.145 4.7228 1.3081 1.8102-1.1336 3.962 1.7913 5.9228 1.1006 4.1768-1.2495 8.1426 1.4536 12.135 1.3978 3.755 2.2652 9.3753 7.4677 5.944 5.506-3.3147 4.0395-9.4251 8.5827-12.81-3.5948-6.9597 4.3979-10.011 6.3922-15.661-4.3569 0.63809-8.2385-3.7074-9.2912-8.0813-1.8303-2.1245-1.3589-5.257 0.68564-1.266 2.8102 2.724 2.8709 10.807 8.0693 6.6488 2.3765-0.9944 8.8668-4.7876 3.6955-6.5139-3.3334 2.4153-7.0111-7.2169-2.1161-1.63 3.5586 1.5103 6.0506 2.4102 6.0506-2.5973v-40.748c-1.1085 1.1332-3.9561 3.226-5.3935 1.8353-2.4733 0.34454-5.7383 5.1586-4.961 0.50496-2.1498-0.14242-0.38484 4.1727-3.3384 4.2933-0.2974 2.2184-2.9837 0.4108-1.9746 2.5175-2.073-1.471-3.8275-6.1156 0.25714-3.2004 6.0659-1.8205-4.0001-5.9269-4.777-6.9194 1.3061-0.31305-1.421-1.6746-1.75-1.2188zm-50.062 1.2188c-2.019 1.6829 3.8383 1.9998 0 0zm-26.969 0.90625c-2.2582 2.3629 3.5962 2.1722 0 0zm13.094 2.3438c-1.71 2.8023 2.5267 1.0346 0 0zm37.438 3.3125c-2.002 2.3057-4.6444-0.60681-4.6875 1.375 0.36283 0.59881 1.8161 4.8727 5 1.7188 1.7088-0.7207 1.036-2.5375-0.3125-3.0938zm-42.625 1.375c-3.7973 3.3175 6.4489 3.6231 0.80444 0.38048l-0.80444-0.38048zm50.094 9.1875c-2.734 1.7835 1.3116 5.571-0.0595 7.3502-1.7131 2.9859 6.3661-0.21033 2.0509-2.5926-0.30746-2.0467-2.528-4.544-1.9914-4.7576zm-1.8438 3.5938c-3.8091 1.0773-0.86472 6.6395 0.48441 1.4008 0.0759-0.30372 0.1787-1.4109-0.48441-1.4008zm-30.5 4.0312c-3.5437 2.4173-0.5504 4.8301 2.0467 3.7425-0.53317-1.4585-2.0226-2.3774-2.0467-3.7425zm66.938 4.0625c1.7682 0.89268-3.2402 2.4176-0.0688 3.9887 1.8456 2.1712 1.1498 6.8318-1.85 3.5332 0.55733-3.6829-4.0663-6.4333 1.9188-7.5219zm-9.0938 0.03125c-0.23991 2.3661 5.1029 6.0439-0.65625 4.8438-3.0457 0.35741-7.6075-0.09309-3.7705-3.8897 1.2124-0.72813 4.3958 2.5121 2.7392-0.51659 0.5873-0.03748 1.1343-0.25926 1.6875-0.4375zm-17.594 5.125c-2.2215 1.4317 1.5361 2.5296 0 0zm-55.781 13.344c-0.37451 1.2499 7.0259 2.5166 1.9192 0.5141l-0.76126-0.26806-1.158-0.24604zm5.75 1.7812c-2.2447 2.2796 4.6248 0.68107 0 0zm75.062 20.906c-4.8774 0.1259-4.229 12.711-0.82904 5.2644 0.32243-1.616 1.6148-3.7489 0.82904-5.2644z" fill="url(#radialGradient5232)" opacity=".6"/>
  <path id="path3175" d="m9.2356 0.052765c0.29044 0.53485 0.17711 1.2972 0.66101 1.5965-0.5385 0.095764 0.48248 0.41124-0.075462 0.76143-0.058582 0.49942 0.00653 1.7319 0.87264 1.93 0.2015-0.82752 0.64119-1.4737 1.4366-1.8659 0.53909-0.35371 1.0154-0.5288 0.27888-0.85055 0.09457-0.57579 0.95127 0.52776 0.46298-0.32462-0.34414-0.40601-0.63164-0.58233 0.0944-0.60187 0.95562-0.76284-0.80213-0.71063-1.3427-0.64497h-2.3884zm-6.6195 0.34471c-0.65559 0.099701-0.50319 1.6438 0.036859 0.66479 0.25029-0.23742 0.56034-0.6648-0.036859-0.66479zm2.7254 0.048475c-0.51814 0.66666 0.45304 0.79711 0.35945 0.094402-0.094044-0.089202-0.2413-0.08011-0.35945-0.094402zm0.84023 0.11849c-0.81783 0.53112 8.68e-5 1.5855 0.82768 1.28 0.62343 0.33512 0.85997 1.2033 0.094962 1.5924 0.39881-0.40743 1.2237 0.98755 1.0563 0.2464 0.92133 0.3973-0.54833-1.1935 0.36102-0.50995 0.82447-0.16186-0.63152-0.72835-0.31479-1.2138-0.37128-0.41853-0.88374-1.0809-1.4433-0.81641-0.011835-0.94906-0.58314-0.31304-0.47329 0.25937-0.23981-0.26131-0.018872-0.61055-0.10862-0.83796zm-1.325 0.00539c-0.92749 0.51425 0.66882 1.199 0.12805 0.11197l-0.058779-0.07489-0.06927-0.037089-2e-7 1e-7zm-1.702 0.18851c-0.65942 0.052546-0.089921 0.73929-0.30414 0.83078 0.43657 0.11785 0.8564 0.14256 0.15128 0.33578 0.21834 0.59073 2.1457 0.39219 1.304-0.49934-0.12128-0.39342-0.48118-0.9798-0.44182-0.19791-0.13289-0.60665-0.42011 0.1525-0.70932-0.4693zm18 0.059246c-0.7745 0.31307 0.56253 1.3768 0.16028 0.27747 0.0144-0.10013 0.0062-0.33231-0.16028-0.27747zm-15.873 0.45243c-0.40755 0.31418 0.56924 1.4345-0.20939 1.1933-0.70037 0.03097-1.5885 0.27921-2.2626-0.27668-1.1411-0.93144-0.70871 1.0227-0.77585 1.6341-0.13844 0.80477 0.19588 2.6819 0.036429 2.6357-0.043984 1.0456 0.30159 1.9392 1.0077 2.6579 0.090268 0.33967 0.88813 1.1467 0.33967 0.32897-0.43078-1.1993 0.64614 0.97258 1.1212 1.0341 0.80967 0.47213 2.0438 0.77921 2.5419 1.3699-0.41501 0.84148-0.36946 1.6796 0.42606 2.2848 0.84662 0.77901 0.03179 1.8364 0.10244 2.7739-0.071944 0.72631-0.43612 2.2674 0.44389 2.3518 0.18727-0.7609 0.13595-1.9874 0.97603-2.3044 0.35493-0.65674 0.98475-0.9334 1.3275-1.7176 0.6854-0.44794 1.2832-1.3827 1.1167-2.234-0.57835-0.50569-1.6118-0.1514-1.7343-1.0463-0.7529-0.38202-1.6323-1.0412-2.4905-0.57225-0.83511 0.46874-1.1444-1.2739-1.3874-1.1252-1.4848 0.53483-0.78375-1.7235 0.3714-1.1292 0.51712 0.07408 0.6439 0.97828 0.52909 0.08612 0.24677-0.82904 0.90031-1.7823 1.6394-2.1404-0.15685 0.60639 0.98733-0.50076 0.23324-0.15813 0.067791-0.70462-1.2444-0.17118-0.28285-0.59158 0.93345 0.00691 1.293-0.63879 0.47798-1.2143-0.086389-0.29863-0.39329-0.84488-0.66201-0.35772-0.12157-0.92405-1.5111-1.1041-1.014 0.070667 0.0067631 0.41214-0.2514 1.68-0.50719 0.77002-0.71053-0.40522-1.8804-0.99856-0.95696-1.9009 0.19982-0.61876 1.5967-1.0392 0.69659-1.7223 0.029303 0.41505-0.53499 0.88955-0.4104 0.19579-0.46225 0.45139-0.31125-0.84062-0.69375-0.89598zm12.964 0.33394c-1.1225 0.22884-1.3523 1.5191-2.1133 2.1611-0.48196 0.54683 0.03123 1.172 0.47632 1.1045 0.11711 1.2467 0.90929-0.60014 0.79387-1.1073 0.03347-0.45529 0.81984-0.98155 0.40412-0.19013-0.53031 0.66442 0.28387 0.93119 0.52548 0.89317-0.62244 0.10302-0.32024 0.58039-0.70559 0.67173-0.07333 0.68322-1.4633 0.63699-1.2065-0.17268-0.11129 0.83032-0.77446 1.1806-1.4638 1.6093 0.59626 0.61507-0.08466 0.7675-0.6015 0.95939-0.0787 1.1637 1.0705 0.62697 1.3588-0.045661 0.67127-0.88324 1.3356 0.74517 1.2701 0.64677 0.76255-0.24557-0.8371-1.3938 0.11048-0.86778 0.42326 0.2941 0.59001 1.4488 0.90239 0.45469-0.0056 0.73637 1.6689 0.41099 0.96467 1.1905-0.75007-0.027632-1.6297 0.1008-2.2834-0.16616-0.22907-0.92521-1.4724-0.41471-2.0657-0.10898-0.65444 0.69888-1.4181 1.8011-0.79351 2.752 0.47248 1.1761 2.4589-0.29197 2.6219 1.0733 0.35004 0.75823 0.22063 1.6244 0.35869 2.4835 0.17646 0.92542 1.0138 2.1283 1.8456 0.9165 0.3364-0.93534 1.2022-1.6632 0.91988-2.6328 0.08136-0.71552 1.323-1.421 1.0996-1.8977-0.98051-0.03884-1.4484-1.1079-1.653-1.908 0.67048 0.15242 0.55176 1.6689 1.4032 1.6079 0.64069-0.1018 1.9566-1.3652 0.61476-1.2523-0.47936-0.12393-0.58621-1.0669-0.04542-0.32708 1.4827 0.81924 0.96834-1.3936 1.0429-2.1968v-5.2739c-0.50749 0.54766-1.2276 0.26113-1.7675 0.73649-0.1408-0.85815-0.31676 0.77481-0.91513 0.64471-0.11172 0.59585-0.75066-1.0239 0.026576-0.35557 0.91543-0.51434-0.84293-1.0344-1.0223-1.4106l-0.10271 0.00791 1e-6 -1e-7zm-8.6285 0.21006c-0.29423 0.35684 0.63756 0.22038 0 0zm-4.6482 0.15619c-0.37671 0.4246 0.61457 0.27949 0 0zm2.2568 0.40396c-0.32357 0.42217 0.43453 0.17985 0 0zm6.4525 0.57092c-0.33648 0.28232-1.2029-0.042129-0.55936 0.62766 0.30153 0.33974 1.2107-0.35755 0.55936-0.62766zm-7.3466 0.23699c-0.61904 0.56757 1.0712 0.5258 0.13865 0.06558-0.046216-0.02186-0.092432-0.04372-0.13865-0.06558zm8.6339 1.5835c-0.35015 0.39337 0.10313 1.0774 0.025 1.4719 1.1582-0.1476-4.49e-4 -0.92845-0.025-1.4719zm-0.31778 0.6194c-0.69012 0.15542-0.04063 1.0587 0.08349 0.24142 0.0079-0.06624 0.03519-0.23524-0.08349-0.24142zm-5.2568 0.6948c-0.93286 0.42021 0.7677 1.1225 0.14347 0.31648l-0.099527-0.15179-0.043942-0.1647h-1e-7zm11.537 0.70019c0.05489 0.27142-0.44257 0.5883 0.08697 0.84439 0.4054 0.79238-0.62963 0.74828-0.47055 0.00807-0.25382-0.44171-0.18255-0.81189 0.38359-0.85246zm-1.5673 0.00539c0.05963 0.36076 0.71914 1.0833-0.11311 0.83484-0.66584 0.37319-1.2947-0.60739-0.44779-0.66385 0.51287 0.34031 0.12414-0.17189 0.56089-0.17099zm-3.0324 0.88331c-0.38721 0.22881 0.29 0.38414 0 0zm-9.6141 2.2999c0.29745 0.41046 0.97427 0.23207 0.19958 0.0424-0.066527-0.01413-0.13305-0.02827-0.19958-0.0424zm0.99104 0.307c-0.31604 0.42759 0.74783 0.02616 0 0zm12.937 3.6033c-0.91782-0.02211-0.60069 2.163-0.11524 0.7991 0.06901-0.2544 0.2356-0.53434 0.11524-0.7991z" fill="url(#radialGradient3180)" opacity=".5"/>
 </g>
 <g id="layer3" transform="translate(0,2)">
  <path id="path3577" d="m2 10.25c6.5209-4.7009 15.967-5.6448 19.822-0.30288" fill="none" stroke="url(#radialGradient4102)"/>
  <path id="path3583" d="m6.1519 0.1962c-4.1224 11.359 12.565 19.341 12.565 19.341" fill="none" stroke="url(#radialGradient4114)"/>
  <path id="path3581" d="m7.2783 19.957c-0.24607-3.7607 6.9155-14.823 14.503-16.703" fill="none" stroke="url(#radialGradient4111)"/>
  <path id="path4125" transform="matrix(.89655 0 0 .89655 .64655 .06638)" d="m8.0625 8.375c0 1.001-0.81148 1.8125-1.8125 1.8125s-1.8125-0.81148-1.8125-1.8125 0.81148-1.8125 1.8125-1.8125 1.8125 0.81148 1.8125 1.8125z" fill="#eeeeec" fill-rule="evenodd"/>
  <path id="path4127" transform="matrix(.90323 0 0 .90323 2.933 -.3621)" d="m16.75 7.625c0 1.0701-0.86745 1.9375-1.9375 1.9375s-1.9375-0.86745-1.9375-1.9375 0.86745-1.9375 1.9375-1.9375 1.9375 0.86745 1.9375 1.9375z" fill="#eeeeec" fill-rule="evenodd"/>
  <path id="path4129" transform="translate(.6 -5e-4)" d="m10.75 13.5c0 0.86294-0.69956 1.5625-1.5625 1.5625-0.86294 0-1.5625-0.69956-1.5625-1.5625s0.69956-1.5625 1.5625-1.5625c0.86294 0 1.5625 0.69956 1.5625 1.5625z" fill="#eeeeec" fill-rule="evenodd"/>
 </g>
 <g id="layer5">
  <path id="path3798-5" d="m12 6.0734c-1.7725 0-3.2077 1.2612-3.2077 2.8448 0.0043 0.18148 0.013021 0.40645 0.032734 0.63217-0.28051 0.14314-0.31568 0.70003-0.065466 1.2643 0.096483 0.21761 0.22707 0.39415 0.36005 0.53735 0.031743 0.1491 0.059803 0.27434 0.098188 0.44252 0.11891 0.3415 0.61469 0.99663 1.0474 1.5488 0.04316 0.42598 0.05407 0.84302-0.03273 1.3276-1.2455 0.98916-4.4563 1.4098-4.4515 2.4339l-0.13093 0.82183h12.7l-0.13093-0.82183c-0.0051-0.87644-3.2213-1.4098-4.4515-2.4339-0.04982-0.39226-0.05809-0.78316-0.03275-1.1695 0.39343-0.58093 0.91577-1.3288 1.0474-1.7069 0.04838-0.19578 0.0606-0.33762 0.0982-0.50574 0.11617-0.13592 0.24156-0.2807 0.32732-0.47413 0.23761-0.53591 0.20944-1.0587-0.03274-1.2327 0.01692-0.23286 0.02566-0.46477 0.03274-0.66378 2e-6 -1.5836-1.4352-2.8448-3.2077-2.8448z" enable-background="new" fill="url(#linearGradient3063)"/>
  <path id="path3869" d="m8.7188 10.656c-0.17511 0.2194-0.18143 0.67658 0.03125 1.1562 0.096483 0.21761 0.24202 0.38805 0.375 0.53125 0.031743 0.1491 0.055365 0.26932 0.09375 0.4375 0.11891 0.3415 0.59852 1.0103 1.0312 1.5625 0.033752-0.34875 0.032945-0.67483 0-1-0.43273-0.5522-0.91234-1.221-1.0312-1.5625-0.038385-0.16818-0.062007-0.2884-0.09375-0.4375-0.13298-0.1432-0.27852-0.31364-0.375-0.53125-0.023331-0.052619-0.012849-0.10409-0.03125-0.15625zm6.5312 0.03125c-0.01496 0.04026-0.013269 0.084445-0.03125 0.125-0.085763 0.19343-0.22758 0.33282-0.34375 0.46875-0.0376 0.16812-0.04537 0.30422-0.09375 0.5-0.13165 0.37806-0.63782 1.1378-1.0312 1.7188-0.021091 0.32157-0.030054 0.64272 0 0.96875 0.39171-0.57787 0.90117-1.3139 1.0312-1.6875 0.04838-0.19578 0.05615-0.33188 0.09375-0.5 0.11617-0.13592 0.25799-0.27532 0.34375-0.46875 0.20791-0.46892 0.19563-0.90103 0.03125-1.125zm-9.4375 7.25c-0.016641 0.050483-0.0315 0.10263-0.03125 0.15625l-0.125 0.84375h12.688l-0.125-0.84375c-3.19e-4 -0.054777-0.007114-0.10395-0.03125-0.15625h-12.375z" enable-background="new" fill="#fff" opacity=".2"/>
  <path id="path3879" d="m12 6.0625c-1.7725 0-3.2188 1.2602-3.2188 2.8438 0.0043 0.18148 0.011537 0.43052 0.03125 0.65625 0.19622-1.4124 1.5501-2.5 3.1875-2.5 1.6495 0 3.0071 1.1033 3.1875 2.5312 0.01692-0.23286 0.02417-0.48848 0.03125-0.6875 2e-6 -1.5836-1.4463-2.8438-3.2188-2.8438zm3.1875 3.5312c0.013443 0.10642 0.03125 0.20266 0.03125 0.3125-0.00708 0.19902-0.01433 0.45464-0.03125 0.6875 0.030272 0.02175 0.039017 0.061755 0.0625 0.09375 0.18272-0.49174 0.16135-0.93292-0.0625-1.0938zm-6.375-0.03125c-0.25436 0.12979-0.27269 0.58651-0.09375 1.0938 0.030901-0.038718 0.051673-0.072279 0.09375-0.09375-0.019713-0.22573-0.02695-0.47477-0.03125-0.65625 0-0.1207 0.01506-0.22721 0.03125-0.34375zm1.4375 4.8438c-0.009886 0.087714-0.014758 0.15794-0.03125 0.25-1.2455 0.98916-4.4423 1.4135-4.4375 2.4375l-0.125 0.84375h0.15625c0.30114-0.91358 3.2259-1.3439 4.4062-2.2812 0.082704-0.46168 0.069334-0.84476 0.03125-1.25zm3.5 0.09375c-0.02534 0.38636-0.01857 0.76399 0.03125 1.1562 1.1534 0.96003 4.0442 1.4967 4.4062 2.2812h0.15625l-0.125-0.84375c-0.0051-0.87644-3.2072-1.4135-4.4375-2.4375-0.006987-0.055012-0.025876-0.1013-0.03125-0.15625z" enable-background="new" opacity=".4"/>
 </g>
</svg>
