<?xml version="1.0" encoding="UTF-8"?>
<!-- Created with Inkscape (http://www.inkscape.org/) -->
<svg id="svg2" width="24" height="24" version="1.1" xmlns="http://www.w3.org/2000/svg" xmlns:cc="http://creativecommons.org/ns#" xmlns:dc="http://purl.org/dc/elements/1.1/" xmlns:rdf="http://www.w3.org/1999/02/22-rdf-syntax-ns#" xmlns:xlink="http://www.w3.org/1999/xlink">
 <defs id="defs4">
  <linearGradient id="linearGradient3335" x1="11.375" x2="11.375" y1="22" y2="-9.8173" gradientUnits="userSpaceOnUse">
   <stop id="stop3330" offset="0"/>
   <stop id="stop3333" stop-opacity="0" offset="1"/>
  </linearGradient>
  <linearGradient id="linearGradient3181" x1="-3.0608" x2="-3.0608" y1="27.258" y2="7.2537" gradientTransform="translate(12.119 -7.2582)" gradientUnits="userSpaceOnUse">
   <stop id="stop3702" stop-color="#53aec2" offset="0"/>
   <stop id="stop3704" stop-color="#80c3d2" offset="1"/>
  </linearGradient>
  <filter id="filter3194" x="-.18" y="-.18" width="1.36" height="1.36" color-interpolation-filters="sRGB">
   <feGaussianBlur id="feGaussianBlur3196" stdDeviation="1.2"/>
  </filter>
  <clipPath id="clipPath2849">
   <rect id="rect2851" x="1" y="1" width="20" height="20" rx="2" ry="2" fill="#fff" fill-rule="evenodd"/>
  </clipPath>
  <linearGradient id="linearGradient3845" x1="11" x2="21" y1="19.5" y2="19.5" gradientTransform="translate(1,-1)" gradientUnits="userSpaceOnUse" spreadMethod="reflect">
   <stop id="stop3833" stop-color="#fff" offset="0"/>
   <stop id="stop3821" stop-color="#fff" stop-opacity=".49804" offset=".75"/>
   <stop id="stop3835" stop-color="#fff" stop-opacity="0" offset="1"/>
  </linearGradient>
  <linearGradient id="linearGradient3961" x1="10" x2="10" y1="1" y2="16" gradientTransform="translate(1,-1)" gradientUnits="userSpaceOnUse">
   <stop id="stop3825" stop-color="#fff" offset="0"/>
   <stop id="stop3829" stop-color="#fff" stop-opacity="0" offset="1"/>
  </linearGradient>
  <radialGradient id="radialGradient3857" cx="-69.644" cy="31.597" r="17.5" gradientTransform="matrix(1.2778 -1.5934e-8 1.3856e-8 1.1111 18.711 -3.4136)" gradientUnits="userSpaceOnUse" xlink:href="#linearGradient3833"/>
  <linearGradient id="linearGradient3833">
   <stop id="stop3835-5" stop-color="#d9d9d9" offset="0"/>
   <stop id="stop3837" stop-color="#fff" offset="1"/>
  </linearGradient>
  <radialGradient id="radialGradient3839" cx="-67.361" cy="30.722" r="17.5" gradientTransform="matrix(1.2778 -1.5934e-8 1.3856e-8 1.1111 18.711 -3.4136)" gradientUnits="userSpaceOnUse" xlink:href="#linearGradient3833"/>
  <radialGradient id="radialGradient3847" cx="-56" cy="29" r="17.5" gradientTransform="matrix(1.2571 0 0 .97143 14.4 .82857)" gradientUnits="userSpaceOnUse">
   <stop id="stop3851" stop-color="#e5e5e5" offset="0"/>
   <stop id="stop3853" stop-color="#fff" offset="1"/>
  </radialGradient>
 </defs>
 <metadata id="metadata7">
  <rdf:RDF>
   <cc:Work rdf:about="">
    <dc:format>image/svg+xml</dc:format>
    <dc:type rdf:resource="http://purl.org/dc/dcmitype/StillImage"/>
    <dc:title/>
   </cc:Work>
  </rdf:RDF>
 </metadata>
 <g id="layer1" transform="translate(0,2)">
  <g id="g3337" transform="translate(1,-1)">
   <rect id="rect3371" x=".5" y=".5" width="21" height="21.5" rx="2.5" ry="2.5" fill="url(#linearGradient3335)" opacity=".3"/>
   <rect id="rect2553" x="1" y="2" width="20" height="20" rx="2.381" ry="2.3256" opacity=".5"/>
  </g>
  <rect id="rect3173" x="2" width="20" height="20" rx="2" ry="2" fill="url(#linearGradient3181)" fill-rule="evenodd"/>
  <path id="path3018" d="m-26-1.8e-7c-1.108 0-2 0.892-2 2v1c0-1.108 0.892-2 2-2h16c1.108 0 2 0.892 2 2v-1c0-1.108-0.892-2-2-2h-16z" fill="#fff" fill-rule="evenodd" opacity=".25"/>
  <path id="path3020" d="m-26 20c-1.108 0-2-0.892-2-2v-1c0 1.108 0.892 2 2 2h16c1.108 0 2-0.892 2-2v1c0 1.108-0.892 2-2 2h-16z" fill-rule="evenodd" opacity=".15"/>
  <path id="rect3050" d="m4 0c-1.108 0-2 0.892-2 2v16c0 1.108 0.892 2 2 2h16c1.108 0 2-0.892 2-2v-16c0-1.108-0.892-2-2-2h-16zm0 1.0312h16c0.5497 0 0.96875 0.41905 0.96875 0.96875v16c0 0.5497-0.41905 0.96875-0.96875 0.96875h-16c-0.5497 0-0.96875-0.41905-0.96875-0.96875v-16c0-0.5497 0.41905-0.96875 0.96875-0.96875z" fill="url(#linearGradient3961)" fill-rule="evenodd" opacity=".35"/>
  <path id="path3235" d="m4 20c-1.108 0-2-0.892-2-2v-1c0 1.108 0.892 2 2 2h16c1.108 0 2-0.892 2-2v1c0 1.108-0.892 2-2 2h-16z" fill="url(#linearGradient3845)" fill-rule="evenodd" opacity=".2"/>
 </g>
 <g id="layer2" transform="translate(0,2)">
  <rect id="rect2410" transform="translate(1,-1)" x="3" y="3" width="16" height="16" rx="2" ry="2" clip-path="url(#clipPath2849)" fill="#fff" filter="url(#filter3194)" opacity=".15"/>
 </g>
 <g id="layer3" transform="translate(0,2)">
  <path id="path3897" transform="matrix(.22973 0 0 .22588 .74321 15.91)" d="m38-12.75c-5.2089 0-9.9205 0.47192-13.562 1.2812-1.8125 0.40278-3.3894 0.89129-4.7812 1.625-0.70553 0.37191-1.4163 0.86002-2.0312 1.5312-0.68223 0.74466-1.375 1.8563-1.375 3.3125s0.69277 2.5678 1.375 3.3125c0.61497 0.67123 1.3257 1.1593 2.0312 1.5312 1.3919 0.73371 2.9687 1.2222 4.7812 1.625 3.642 0.80933 8.3536 1.2812 13.562 1.2812h22c5.2089 0 9.9205-0.47192 13.562-1.2812 1.8125-0.40278 3.3894-0.89129 4.7812-1.625 0.70553-0.37191 1.4163-0.86002 2.0312-1.5312 0.68223-0.74466 1.375-1.8563 1.375-3.3125s-0.69277-2.5678-1.375-3.3125c-0.61497-0.67123-1.3257-1.1593-2.0312-1.5312-1.3919-0.73371-2.9687-1.2222-4.7812-1.625-3.642-0.80933-8.3536-1.2812-13.562-1.2812h-22z" color="#000000" opacity=".05"/>
  <path id="path3893" transform="matrix(.22973 0 0 .22588 .74321 15.91)" d="m38-10.781c-5.0925 0-9.6829 0.45384-13.125 1.2188-1.7211 0.38246-3.1659 0.83307-4.3125 1.4375-0.57331 0.30222-1.0562 0.64062-1.5 1.125s-0.84375 1.1838-0.84375 2 0.39997 1.5156 0.84375 2 0.92669 0.82278 1.5 1.125c1.1466 0.60443 2.5914 1.055 4.3125 1.4375 3.4421 0.76491 8.0325 1.2188 13.125 1.2188h22c5.0925 0 9.6829-0.45384 13.125-1.2188 1.7211-0.38246 3.1659-0.83307 4.3125-1.4375 0.57331-0.30222 1.0562-0.64062 1.5-1.125s0.84375-1.1838 0.84375-2-0.39997-1.5156-0.84375-2-0.92669-0.82278-1.5-1.125c-1.1466-0.60443-2.5914-1.055-4.3125-1.4375-3.4421-0.76491-8.0325-1.2188-13.125-1.2188h-22z" color="#000000" opacity=".15"/>
  <rect id="rect3869" transform="matrix(.22973 0 0 .22588 .74321 15.91)" x="20" y="-9" width="58" height="8" rx="18" ry="4" color="#000000" opacity=".3"/>
  <rect id="rect3831" x="7.6352" y="11.844" width="8.7298" height="3.1623" color="#000000" fill="#fff"/>
  <path id="path3823" transform="matrix(.22973 0 0 .22588 26.014 -.57899)" d="m-45 38.5a17.5 17.5 0 1 1-35 0 17.5 17.5 0 1 1 35 0z" color="#000000" fill="url(#radialGradient3847)"/>
  <path id="path3825" transform="matrix(.2363 0 0 .23233 22.404 1.996)" d="m-45 38.5a17.5 17.5 0 1 1-35 0 17.5 17.5 0 1 1 35 0z" color="#000000" fill="url(#radialGradient3839)"/>
  <path id="path3855" transform="matrix(-.2363 0 0 .23233 1.5965 1.996)" d="m-45 38.5a17.5 17.5 0 1 1-35 0 17.5 17.5 0 1 1 35 0z" color="#000000" fill="url(#radialGradient3857)"/>
  <path id="path4872" transform="matrix(.22973 0 0 .22588 .74321 -.80487)" d="m43.844 41.031a0.9791 0.9791 0 0 0-0.8125 0.96875v16a0.9791 0.9791 0 0 0 1.4688 0.84375l13-8a0.9791 0.9791 0 0 0 0-1.6875l-13-8a0.9791 0.9791 0 0 0-0.65625-0.125z" fill="#fff"/>
  <path id="path4868" d="m10 13v-6l5 3z" fill="#f5954e"/>
  <path id="path3899" transform="translate(0,-2)" d="m10 9v6l5-3-5-3zm0.4375 0.78125 3.7188 2.2188-3.7188 2.2188v-4.4375z" opacity=".3"/>
  <path id="path3958" d="m4 0-2 2v1l3-3h-1zm2 0-4 4v1l5-5h-1zm2 0-6 6v1l7-7h-1zm2 0-8 8v1l9-9h-1zm2 0-10 10v1l2.0938-2.0938c0.35259-0.60088 0.86577-1.1148 1.4688-1.4688l0.09375-0.0625 7.3438-7.375h-1zm2 0-6.9375 6.9375c0.18174-0.024308 0.37341-0.0625 0.5625-0.0625 0.07427 0 0.14544 0.027448 0.21875 0.03125 0.42936-1.2974 1.5148-2.2995 2.875-2.625l4.2812-4.2812h-1zm2 0-4.1875 4.1875c0.30482 0.012074 0.5914 0.049092 0.875 0.125l4.3125-4.3125h-1zm2 0-4.5938 4.5938c0.22004 0.10722 0.42988 0.23148 0.625 0.375 7e-3 0.00515 0.02429-0.00519 0.03125 0l4.9375-4.9688h-1zm2 0-5.4375 5.4375c0.16394 0.17302 0.3379 0.33178 0.46875 0.53125l5.7812-5.7812c-0.24962-0.11153-0.5205-0.1875-0.8125-0.1875zm1.4062 0.59375-6.0312 6.0312c0.0457 0.11021 0.08935 0.22899 0.125 0.34375 0.1889-0.039447 0.39281-0.047881 0.59375-0.0625l5.7188-5.7188c-0.10007-0.22398-0.23529-0.42279-0.40625-0.59375zm0.59375 1.4062-4.9062 4.9375c0.26766 0.045807 0.5037 0.12434 0.75 0.21875l4.1562-4.1562v-1zm0 2-3.5 3.5c0.20272 0.12479 0.41692 0.24926 0.59375 0.40625l2.9062-2.9062v-1zm0 2-2.4062 2.4062c0.14992 0.18794 0.25969 0.41231 0.375 0.625l2.0312-2.0312v-1zm0 2-1.7188 1.7188c0.02359 0.073554 0.043 0.14348 0.0625 0.21875-0.11371 0.43892-0.28855 0.84934-0.53125 1.2188l2.1875-2.1562v-1zm0 2-10 10h1l9-9v-1zm-18.25 0.25-1.75 1.75v1l2.0625-2.0625c-0.12479-0.21772-0.22884-0.44723-0.3125-0.6875zm0.71875 1.2812-2.4688 2.4688v1l2.9688-2.9688c-0.17893-0.15211-0.34984-0.31971-0.5-0.5zm17.531 0.46875-8 8h1l7-7v-1zm-3.1875 0.1875c-0.5025 0.37378-1.0704 0.63904-1.7188 0.75h-0.03125l-7.0625 7.0625h1l7.8125-7.8125zm-13.25 0.25-3.5625 3.5625v1l4.2188-4.2188c-0.23906-0.085891-0.44086-0.21732-0.65625-0.34375zm1.5 0.5-5.0625 5.0625c0 0.292 0.07597 0.56288 0.1875 0.8125l5.8125-5.8125h-0.375c-0.18909 0-0.38076-0.03819-0.5625-0.0625zm1.9375 0.0625-6.4062 6.4062c0.17096 0.17096 0.36977 0.30618 0.59375 0.40625l6.8125-6.8125h-1zm2 0-7 7h1l7-7h-1zm2 0-7 7h1l7-7h-1zm2 0-7 7h1l7-7h-1zm7 1-6 6h1l5-5v-1zm0 2-4 4h1l3-3v-1zm0 2-2 2c1.108 0 2-0.892 2-2z" opacity=".1"/>
 </g>
</svg>
