<?xml version="1.0" encoding="UTF-8"?>
<!-- Created with Inkscape (http://www.inkscape.org/) -->
<svg id="svg2" width="24" height="24" version="1.1" xmlns="http://www.w3.org/2000/svg" xmlns:cc="http://creativecommons.org/ns#" xmlns:dc="http://purl.org/dc/elements/1.1/" xmlns:rdf="http://www.w3.org/1999/02/22-rdf-syntax-ns#" xmlns:xlink="http://www.w3.org/1999/xlink">
 <defs id="defs4">
  <linearGradient id="linearGradient3335" x1="11.375" x2="11.375" y1="22" y2="-9.8173" gradientUnits="userSpaceOnUse">
   <stop id="stop3330" offset="0"/>
   <stop id="stop3333" stop-opacity="0" offset="1"/>
  </linearGradient>
  <linearGradient id="linearGradient3181" x1="-3.0608" x2="-3.0608" y1="27.258" y2="7.2537" gradientTransform="translate(12.119 -7.2582)" gradientUnits="userSpaceOnUse">
   <stop id="stop3702" stop-color="#1a1818" offset="0"/>
   <stop id="stop3704" stop-color="#403d3d" offset="1"/>
  </linearGradient>
  <filter id="filter3194" x="-.18" y="-.18" width="1.36" height="1.36" color-interpolation-filters="sRGB">
   <feGaussianBlur id="feGaussianBlur3196" stdDeviation="1.2"/>
  </filter>
  <clipPath id="clipPath2849">
   <rect id="rect2851" x="1" y="1" width="20" height="20" rx="2" ry="2" fill="#fff" fill-rule="evenodd"/>
  </clipPath>
  <linearGradient id="linearGradient3823">
   <stop id="stop3825" stop-color="#fff" offset="0"/>
   <stop id="stop3829" stop-color="#fff" stop-opacity="0" offset="1"/>
  </linearGradient>
  <linearGradient id="linearGradient3845" x1="11" x2="21" y1="19.5" y2="19.5" gradientTransform="translate(1,-1)" gradientUnits="userSpaceOnUse" spreadMethod="reflect">
   <stop id="stop3833" stop-color="#fff" offset="0"/>
   <stop id="stop3821" stop-color="#fff" stop-opacity=".49804" offset=".75"/>
   <stop id="stop3835" stop-color="#fff" stop-opacity="0" offset="1"/>
  </linearGradient>
  <linearGradient id="linearGradient3961" x1="10" x2="10" y1="1" y2="16" gradientTransform="translate(1,-1)" gradientUnits="userSpaceOnUse" xlink:href="#linearGradient3823"/>
  <linearGradient id="linearGradient3875" x1="10" x2="10" y1="1" y2="16" gradientTransform="translate(1,1)" gradientUnits="userSpaceOnUse" xlink:href="#linearGradient3823"/>
  <linearGradient id="linearGradient3892" x1="10" x2="10" y1="-8" y2="-6" gradientTransform="translate(0,8)" gradientUnits="userSpaceOnUse">
   <stop id="stop3888" stop-color="#fff" offset="0"/>
   <stop id="stop3890" stop-color="#fff" stop-opacity="0" offset="1"/>
  </linearGradient>
 </defs>
 <metadata id="metadata7">
  <rdf:RDF>
   <cc:Work rdf:about="">
    <dc:format>image/svg+xml</dc:format>
    <dc:type rdf:resource="http://purl.org/dc/dcmitype/StillImage"/>
    <dc:title/>
   </cc:Work>
  </rdf:RDF>
 </metadata>
 <g id="layer1" transform="translate(0,2)">
  <g id="g3337" transform="translate(1,-1)">
   <rect id="rect3371" x=".5" y=".5" width="21" height="21.5" rx="2.5" ry="2.5" fill="url(#linearGradient3335)" opacity=".3"/>
   <rect id="rect2553" x="1" y="2" width="20" height="20" rx="2.381" ry="2.3256" opacity=".5"/>
  </g>
  <rect id="rect3173" x="2" width="20" height="20" rx="2" ry="2" fill="url(#linearGradient3181)" fill-rule="evenodd"/>
  <path id="path3018" d="m-26-1.8e-7c-1.108 0-2 0.892-2 2v1c0-1.108 0.892-2 2-2h16c1.108 0 2 0.892 2 2v-1c0-1.108-0.892-2-2-2h-16z" fill="#fff" fill-rule="evenodd" opacity=".25"/>
  <path id="path3020" d="m-26 20c-1.108 0-2-0.892-2-2v-1c0 1.108 0.892 2 2 2h16c1.108 0 2-0.892 2-2v1c0 1.108-0.892 2-2 2h-16z" fill-rule="evenodd" opacity=".15"/>
  <path id="rect3050" d="m4 0c-1.108 0-2 0.892-2 2v16c0 1.108 0.892 2 2 2h16c1.108 0 2-0.892 2-2v-16c0-1.108-0.892-2-2-2h-16zm0 1.0312h16c0.5497 0 0.96875 0.41905 0.96875 0.96875v16c0 0.5497-0.41905 0.96875-0.96875 0.96875h-16c-0.5497 0-0.96875-0.41905-0.96875-0.96875v-16c0-0.5497 0.41905-0.96875 0.96875-0.96875z" fill="url(#linearGradient3961)" fill-rule="evenodd" opacity=".12"/>
  <path id="path3235" d="m4 20c-1.108 0-2-0.892-2-2v-1c0 1.108 0.892 2 2 2h16c1.108 0 2-0.892 2-2v1c0 1.108-0.892 2-2 2h-16z" fill="url(#linearGradient3845)" fill-rule="evenodd" opacity=".07"/>
  <path id="rect3822" transform="translate(0,-2)" d="m4 2c-0.9695 0-1.7829 0.68074-1.9688 1.5938-0.0066521 0.070744-0.03125 0.14568-0.03125 0.21875-0.0057407 0.061998 0 0.12395 0 0.1875v1h5v-3z" fill="#d91f1c"/>
  <path id="path3829" d="m7 0v3h5v-3z" fill="#4776ec"/>
  <path id="path3831" d="m12 0v3h5v-3z" fill="#22a938"/>
  <path id="path3833" transform="translate(0,-2)" d="m17 2v3h5v-1c0-0.063547 0.0057-0.1255 0-0.1875 0-0.073071-0.0246-0.14801-0.03125-0.21875-0.18588-0.91301-0.99925-1.5938-1.9688-1.5938z" fill="#eeb91c"/>
  <rect id="rect3860" transform="translate(0,-2)" x="2" y="5" width="20" height="1" color="#000000" opacity=".15"/>
  <path id="path3862" d="m4 0c-0.9695 0-1.7829 0.68074-1.9688 1.5938-0.0066521 0.070744-0.03125 0.14568-0.03125 0.21875-0.0057407 0.061998 0 0.12395 0 0.1875v1h4.75 5.25 5.25 4.75v-1c0-0.063547 0.0057-0.1255 0-0.1875 0-0.073071-0.0246-0.14801-0.03125-0.21875-0.18588-0.91301-0.99925-1.5938-1.9688-1.5938h-2.75-5.25-5.25-2.75z" fill="url(#linearGradient3892)" opacity=".2"/>
  <path id="path3873" transform="translate(0,-2)" d="m4 2c-0.1385 0-0.27582 0.0046953-0.40625 0.03125-0.094894 0.019669-0.19174 0.061315-0.28125 0.09375-0.043941 0.016029-0.082579 0.043547-0.125 0.0625-0.10558 0.047172-0.21765 0.092276-0.3125 0.15625-0.012471 0.00841-0.018983 0.022567-0.03125 0.03125-0.040397 0.028348-0.08688 0.062585-0.125 0.09375-0.046054 0.038439-0.082617 0.082617-0.125 0.125-0.090375 0.090375-0.17826 0.17488-0.25 0.28125-0.021326 0.030807-0.04291 0.061715-0.0625 0.09375-0.047022 0.078802-0.088997 0.1646-0.125 0.25-0.050099 0.11863-0.098696 0.2458-0.125 0.375-0.0066521 0.070744-0.03125 0.14568-0.03125 0.21875-0.0057407 0.061998 0 0.12395 0 0.1875v1h1.0312v-1c0-0.5497 0.41905-0.96875 0.96875-0.96875h16c0.5497 0 0.96875 0.41905 0.96875 0.96875v1h1.0312v-1c0-0.063547 0.0057-0.1255 0-0.1875 0-0.073071-0.0246-0.14801-0.03125-0.21875-0.0263-0.1292-0.0749-0.25637-0.125-0.375-0.050469-0.11972-0.11576-0.23738-0.1875-0.34375s-0.15962-0.19088-0.25-0.28125c-0.079779-0.079779-0.15764-0.15337-0.25-0.21875-0.011339-0.0079575-0.019739-0.023522-0.03125-0.03125-0.09485-0.063974-0.20692-0.10908-0.3125-0.15625-0.12949-0.057556-0.26409-0.12678-0.40625-0.15625-0.01995-0.00406-0.04234 0.00347-0.0625 0-0.11539-0.020397-0.22256-0.03125-0.34375-0.03125h-13.25-2.75z" fill="url(#linearGradient3875)" fill-rule="evenodd" opacity=".2"/>
 </g>
 <g id="layer2" transform="translate(0,2)">
  <rect id="rect2410" transform="translate(1,-1)" x="3" y="3" width="16" height="16" rx="2" ry="2" clip-path="url(#clipPath2849)" fill="#fff" filter="url(#filter3194)" opacity=".07"/>
 </g>
 <g id="layer3" transform="translate(0,2)">
  <path id="path3927" d="m15.938 5.8438c-0.42315 0.027539-0.55462 0.48654-0.5 0.84155v1.1584c-0.54977 0.023655-1.112-0.049197-1.6535 0.039851-0.48835 0.20211-0.31595 0.78956-0.34647 1.2003-0.04048 0.34763 0.03038 0.80954 0.44925 0.87511 0.51577 0.022693 1.034 0.00319 1.5508 0.0097 0.02365 0.54977-0.0492 1.112 0.03985 1.6535 0.20211 0.48835 0.78956 0.31595 1.2003 0.34647 0.34763 0.04048 0.80954-0.03038 0.87511-0.44925 0.02269-0.51577 0.0032-1.034 0.0097-1.5508 0.54977-0.023655 1.112 0.049197 1.6535-0.039851 0.48835-0.20211 0.31595-0.78956 0.34647-1.2003 0.040474-0.34763-0.030382-0.80954-0.44925-0.87512-0.51577-0.022693-1.034-0.0031906-1.5508-0.009695-0.023655-0.54977 0.049197-1.112-0.039851-1.6535-0.20211-0.48835-0.78956-0.31595-1.2003-0.34647-0.12826 3.49e-5 -0.25656-4.58e-5 -0.38481 0zm-6.2188 0.25c-1.5658-0.045773-3.2708 0.61437-4.0184 2.0672-0.66768 1.1732-0.4548 2.7809 0.59444 3.665 0.47295 0.57968 1.4284 0.62014 1.8864 0.97573-0.28584 0.35672-1.3379 0.29092-1.8447 0.6994-1.2143 0.55552-2.1036 1.9831-1.6593 3.3187 0.46182 1.4272 2.0264 2.0726 3.4148 2.1353 1.7816 0.12841 3.8249-0.48226 4.7521-2.1205 0.69275-1.1935 0.40442-2.8664-0.71097-3.704-0.33205-0.27848-0.65586-0.56411-1.0081-0.81802-0.14143-0.1844 0.82435-0.72771 1.0312-1.1875 0.41725-0.56413 0.59862-1.2729 0.5625-1.9688-0.033211-0.15034-0.077501-0.41796-0.15625-0.59375-0.017539-0.17326-0.12075-0.42575-0.20289-0.61558 0.0982-0.16636 0.42762-0.24766 0.61593-0.38087 0.33209-0.15247 0.67593-0.53719 0.52446-0.90981-0.057761-0.19002-0.12185-0.29277-0.25-0.375-0.087142-0.11277-0.31171-0.19707-0.53986-0.1875h-2.9914zm2.625 1.875c-0.08941 0-0.07704 0 0 0zm-3.625 0.09375c0.75702 0.074854 1.026 0.95263 1.1493 1.5887 0.046819 0.27508 0.070056 0.62831-0.024284 0.84879-0.11912 0.3311-0.8224 0.50526-1.1139 0.11799-0.49303-0.59785-0.74368-1.4682-0.51177-2.2219 0.082588-0.19527 0.28204-0.34632 0.50067-0.33357zm0.78125 6.6875c0.49023 0.13165 1.0406 0.59705 1.2182 1.0833 0.12955 0.80596-0.83663 1.0714-1.4682 1.0417-0.65034-0.012806-1.4947-0.12731-1.8033-0.78617-0.31005-0.84787 0.66794-1.2448 1.348-1.278 0.23404-0.030735 0.46948-0.051446 0.70535-0.060809z" opacity=".2" stroke-miterlimit="10.433" stroke-width="0"/>
  <path id="path3920" d="m16 6.4v2h-2v1h2v2h1v-2h2v-1h-2v-2h-1zm-6.2812 0.25c-0.8254 0-1.9152 0.13496-2.8125 0.875-0.68259 0.58737-1.0313 1.4174-1.0312 2.1562 0 1.2553 1.0173 2.5 2.6875 2.5 0.06613 0 0.12037 0.0042 0.1875 0-0.031555 0.10049-0.062499 0.23145-0.0625 0.375 0 0.37943 0.1849 0.61876 0.34375 0.84375-0.71359 0.05423-1.8145 0.18361-2.6875 0.71875-0.93273 0.55301-1.2188 1.3782-1.2188 1.9688 0 0.60704 0.30642 1.2006 0.875 1.625s1.4199 0.6875 2.5312 0.6875c2.6352 0 4.125-1.4822 4.125-3 0-0.54855-0.16005-0.99093-0.40625-1.3438s-0.57629-0.59758-0.90625-0.875a0.17173 0.17173 0 0 0-0.03125-0.03125l-0.53125-0.40625c-0.01138-0.0093-0.02008-0.02223-0.03125-0.03125-0.15711-0.12688-0.28125-0.23369-0.28125-0.46875 0-0.23493 0.18029-0.39919 0.375-0.59375 0.3152-0.24744 0.62379-0.49146 0.875-0.84375s0.4375-0.82094 0.4375-1.4062v-0.15625a0.17173 0.17173 0 0 0 0-0.03125 0.17173 0.17173 0 0 0-0.03125 0 0.17173 0.17173 0 0 0 0-0.03125 0.17173 0.17173 0 0 0 0-0.03125v-0.0625-0.09375a0.17173 0.17173 0 0 0 0-0.03125 0.17173 0.17173 0 0 0-0.03125-0.03125l-0.125-0.375v-0.03125-0.0625a0.17173 0.17173 0 0 0 0-0.03125 0.17173 0.17173 0 0 0 0-0.03125 0.17173 0.17173 0 0 0-0.03125-0.03125l-0.03125-0.03125v-0.03125l-0.03125-0.0625a0.17173 0.17173 0 0 0 0-0.03125 0.17173 0.17173 0 0 0-0.03125-0.03125l-0.0625-0.0625v-0.03125a0.17173 0.17173 0 0 0-0.03125-0.03125h-0.03125l-0.03125-0.0625v-0.03125a0.17173 0.17173 0 0 0 0-0.03125v-0.03125a0.17173 0.17173 0 0 0-0.03125-0.03125 0.17173 0.17173 0 0 0-0.03125 0v-0.03125l-0.03125-0.03125a0.17173 0.17173 0 0 0-0.03125-0.03125l-0.0625-0.0625v-0.03125a0.17173 0.17173 0 0 0-0.03125-0.03125l-0.125-0.125h0.46875a0.17173 0.17173 0 0 0 0.03125 0 0.17173 0.17173 0 0 0 0.03125 0 0.17173 0.17173 0 0 0 0.03125-0.03125l0.96875-0.53125a0.17173 0.17173 0 0 0 0.03125-0.03125 0.17173 0.17173 0 0 0 0.03125-0.03125 0.17173 0.17173 0 0 0 0.03125-0.03125 0.17173 0.17173 0 0 0 0-0.03125 0.17173 0.17173 0 0 0 0-0.03125 0.17173 0.17173 0 0 0 0-0.03125 0.17173 0.17173 0 0 0-0.03125-0.03125 0.17173 0.17173 0 0 0 0-0.03125 0.17173 0.17173 0 0 0-0.03125 0 0.17173 0.17173 0 0 0 0-0.03125 0.17173 0.17173 0 0 0-0.03125 0 0.17173 0.17173 0 0 0-0.03125-0.03125 0.17173 0.17173 0 0 0-0.03125 0h-3.0938zm-1 0.84375c0.54457 0 0.97966 0.35797 1.2812 0.875 0.30159 0.51703 0.46875 1.1843 0.46875 1.6875v0.03125 0.03125 0.03125 0.03125 0.0625 0.03125 0.03125 0.03125 0.03125a0.17173 0.17173 0 0 0 0 0.03125 0.17173 0.17173 0 0 0-0.03125 0.03125 0.17173 0.17173 0 0 0 0 0.03125 0.17173 0.17173 0 0 0-0.03125 0.03125 0.17173 0.17173 0 0 0 0 0.03125v0.0625 0.03125a0.17173 0.17173 0 0 0-0.03125 0.03125 0.17173 0.17173 0 0 0 0 0.03125 0.17173 0.17173 0 0 0-0.03125 0.03125 0.17173 0.17173 0 0 0 0 0.03125v0.03125 0.03125a0.17173 0.17173 0 0 0-0.03125 0 0.17173 0.17173 0 0 0 0 0.03125v0.03125l-0.0625 0.0625h-0.03125a0.17173 0.17173 0 0 0-0.03125 0.03125 0.17173 0.17173 0 0 0-0.03125 0.03125 0.17173 0.17173 0 0 0 0 0.03125 0.17173 0.17173 0 0 0-0.03125 0v0.03125c-0.0055 0.0055-0.02548-0.0054-0.03125 0v0.03125c-0.20247 0.18306-0.52968 0.3125-0.84375 0.3125-0.57001 0-0.96881-0.37224-1.25-0.875s-0.4375-1.1247-0.4375-1.5938c0-0.3575 0.07945-0.73426 0.28125-1a0.17173 0.17173 0 0 1 0-0.03125 0.17173 0.17173 0 0 0 0.03125 0c0.20433-0.25538 0.50737-0.40625 0.84375-0.40625zm0.78125 6.6875h0.03125 0.03125 0.03125 0.03125 0.03125 0.03125 0.03125 0.03125c0.015019 0.01068 0.047716-0.01055 0.0625 0 0.53405 0.38098 0.91844 0.66859 1.1562 0.9375 0.24686 0.27915 0.3125 0.53075 0.3125 0.875 0 0.41474-0.16138 0.74427-0.5 1s-0.84045 0.4375-1.5312 0.4375c-0.77315 0-1.3734-0.20711-1.7812-0.5s-0.625-0.67854-0.625-1.1562c0-0.48 0.18704-0.78529 0.4375-1s0.55678-0.31632 0.71875-0.375c0.58989-0.19691 1.3895-0.21875 1.5-0.21875z" opacity=".5" stroke-miterlimit="10.433" stroke-width="0"/>
  <path id="path3918" d="m9.7121 6.2381c-1.3028-0.018562-2.7538 0.4464-3.4406 1.6308-0.57885 0.9291-0.51241 2.2234 0.2361 3.0405 0.55051 0.64348 1.4233 0.93143 2.2542 0.88206-0.23184 0.41194 0.15535 0.98771 0.1993 1.2229-1.207 0.09533-2.5433 0.36934-3.3517 1.3512-0.61131 0.72944-0.6355 1.8882 0.016159 2.6006 0.81979 0.91944 2.1566 1.0812 3.3207 1.0189 1.3562-0.07093 2.8373-0.66146 3.4643-1.9437 0.46692-0.91983 0.23661-2.1117-0.53232-2.7983-0.36753-0.39322-0.83029-0.66975-1.2395-1.0118-0.48541-0.43522 0.13413-0.95646 0.49748-1.2128 0.64873-0.49119 1.0653-1.28 1.011-2.1033-0.006515-0.1174-0.049881-0.21979-0.02907-0.3481-0.092631-0.17259-0.15152-0.38131-0.16148-0.57906-0.059173-0.097363-0.096464-0.20681-0.16581-0.29326-0.11307-0.031359-0.062562-0.17088-0.14848-0.239-0.06783-0.04272-0.13315-0.15559-0.19817-0.22787-0.2334-0.16671 0.15391-0.076315 0.2687-0.098798 0.24441 0.024455 0.42688-0.18995 0.64345-0.27336 0.19415-0.12909 0.44177-0.19359 0.60163-0.36492 0.07557-0.16144-0.11795-0.29394-0.27052-0.25263h-2.9754zm-0.97999 0.86121c0.86271 0.00844 1.3817 0.85452 1.5834 1.6019 0.12122 0.42626 0.16381 0.88574 0.12921 1.3225-0.06674 0.09749-0.03536 0.21694-0.10898 0.31258-1e-3 0.1008-0.0695 0.18772-0.14848 0.23758-0.0914 0.15387-0.30833 0.2923-0.53498 0.35409-0.62543 0.21885-1.3136-0.1361-1.6085-0.70702-0.41492-0.73597-0.63078-1.6706-0.33554-2.4869 0.18479-0.35929 0.60001-0.63795 1.0239-0.63466zm0.77212 6.6818c0.18024-0.0059 0.36273-0.01795 0.49031 0.13919 0.51564 0.41376 1.2365 0.81033 1.2876 1.5479 0.08907 0.66263-0.4292 1.248-1.0465 1.4094-0.91413 0.2488-1.9724 0.1965-2.7804-0.3347-0.75386-0.45856-0.85307-1.6765-0.13068-2.2069 0.61674-0.47103 1.4334-0.53265 2.1798-0.55486z" fill="#fff" stroke-miterlimit="10.433" stroke-width="0"/>
  <path id="rect3911" d="m16 6v2h-2v1h2v2h1v-2h2v-1h-2v-2h-1z" color="#000000" fill="#ececec"/>
  <path id="path3916" d="m-9.3846 6c-0.84936 0-1.9284 0.12755-2.8252 0.86713-0.67633 0.58199-1.007 1.4023-1.007 2.1259 0 1.227 0.96152 2.4615 2.6294 2.4615 0.15724 0 0.33046-0.01284 0.5035-0.02797-0.07898 0.18876-0.16783 0.3481-0.16783 0.61538 0 0.48744 0.2551 0.77967 0.47552 1.0629-0.70792 0.0474-2.046 0.12963-3.021 0.72727-0.92906 0.55083-1.2028 1.3636-1.2028 1.9301 0 1.1645 1.1029 2.2378 3.3846 2.2378 2.7068 0 4.1399-1.4859 4.1399-2.965 0-1.0856-0.62256-1.6279-1.3147-2.2098l-0.58741-0.44755c-0.17303-0.14192-0.39161-0.32522-0.39161-0.67133 0-0.34635 0.24365-0.57874 0.44755-0.78322 0.66125-0.51909 1.3147-1.0453 1.3147-2.2098v-0.13986l-0.02797-0.083916v-0.11189-0.11189l-0.05594-0.16783-0.02797-0.11189-0.13985-0.41958-0.05594-0.055944-0.02797-0.083916-0.05594-0.055944-0.02797-0.083916-0.11188-0.11189-0.02797-0.055944-0.05594-0.055944-0.02797-0.055944-0.19579-0.1958-0.05594-0.027972-0.11188-0.11189-0.05594-0.027972-0.02797-0.027972-0.02797-0.055944h0.97902l1.0069-0.55944h-3.2448zm-1.007 0.53147c1.3067 0 1.986 1.7484 1.986 2.8811v0.027972 0.027972 0.027972 0.027972 0.055944 0.027972 0.027972 0.027972 0.055944 0.027972 0.027972l-0.02797 0.055944v0.027972 0.027972l-0.02797 0.027972v0.055944 0.027972l-0.02797 0.055943v0.02797l-0.02797 0.02797v0.05594l-0.02797 0.02797v0.05594l-0.05594 0.05594-0.02797 0.05594-0.02797 0.02797v0.02797l-0.05594 0.05594v0.02797l-0.05594 0.02797-0.02797 0.05594c-0.25221 0.25157-0.66949 0.41958-1.0629 0.41958-1.3534 0-1.958-1.7432-1.958-2.7972 0-0.40917 0.06858-0.84449 0.33566-1.1748 0.25201-0.31498 0.68238-0.5035 1.0909-0.5035zm0.78322 7.021h0.02797 0.02797 0.02797 0.02797 0.02797 0.02797 0.02797 0.02797 0.02797 0.02797 0.02797 0.02797 0.02797c1.1961 0.85008 1.7063 1.295 1.7063 2.0979 0 0.97572-0.81106 1.6783-2.3217 1.6783-1.6836 0-2.7413-0.78508-2.7413-1.9021 0-1.1177 0.99588-1.4967 1.3427-1.6224 0.66054-0.22049 1.5089-0.25175 1.6504-0.25175z" fill="#f0f" stroke-miterlimit="10.433" stroke-width="0"/>
 </g>
</svg>
