<?xml version="1.0" encoding="UTF-8"?>
<!-- Created with Inkscape (http://www.inkscape.org/) -->
<svg id="svg2" width="24" height="24" version="1.1" xmlns="http://www.w3.org/2000/svg" xmlns:cc="http://creativecommons.org/ns#" xmlns:dc="http://purl.org/dc/elements/1.1/" xmlns:rdf="http://www.w3.org/1999/02/22-rdf-syntax-ns#" xmlns:xlink="http://www.w3.org/1999/xlink">
 <defs id="defs4">
  <linearGradient id="linearGradient3335" x1="11.375" x2="11.375" y1="22" y2="-9.8173" gradientUnits="userSpaceOnUse">
   <stop id="stop3330" offset="0"/>
   <stop id="stop3333" stop-opacity="0" offset="1"/>
  </linearGradient>
  <linearGradient id="linearGradient3181" x1="-3.0608" x2="-3.0608" y1="27.258" y2="7.2537" gradientTransform="translate(42.119 -7.2582)" gradientUnits="userSpaceOnUse">
   <stop id="stop3189" stop-color="#29669f" offset="0"/>
   <stop id="stop3191" stop-color="#88b6e0" offset="1"/>
  </linearGradient>
  <filter id="filter3194" x="-.18" y="-.18" width="1.36" height="1.36" color-interpolation-filters="sRGB">
   <feGaussianBlur id="feGaussianBlur3196" stdDeviation="1.2"/>
  </filter>
  <clipPath id="clipPath2849">
   <rect id="rect2851" x="1" y="1" width="20" height="20" rx="2" ry="2" fill="#fff" fill-rule="evenodd"/>
  </clipPath>
  <linearGradient id="linearGradient3845" x1="11" x2="21" y1="19.5" y2="19.5" gradientTransform="translate(1,-1)" gradientUnits="userSpaceOnUse" spreadMethod="reflect">
   <stop id="stop3833" stop-color="#fff" offset="0"/>
   <stop id="stop3821" stop-color="#fff" stop-opacity=".49804" offset=".75"/>
   <stop id="stop3835" stop-color="#fff" stop-opacity="0" offset="1"/>
  </linearGradient>
  <linearGradient id="linearGradient3961" x1="10" x2="10" y1="1" y2="16" gradientTransform="translate(1,-1)" gradientUnits="userSpaceOnUse">
   <stop id="stop3825" stop-color="#fff" offset="0"/>
   <stop id="stop3829" stop-color="#fff" stop-opacity="0" offset="1"/>
  </linearGradient>
  <linearGradient id="linearGradient3241" x1="18.079" x2="18.215" y1="59.016" y2="6.6697" gradientTransform="matrix(.23777 0 0 .23777 .59713 -1.4117)" gradientUnits="userSpaceOnUse">
   <stop id="stop3926-2" stop-color="#005ec0" offset="0"/>
   <stop id="stop3928-2" stop-color="#0072ea" offset="1"/>
  </linearGradient>
  <linearGradient id="linearGradient3244" x1="69.788" x2="69.788" y1="35.461" y2="5.5467" gradientTransform="matrix(.23777 0 0 .23777 .59713 -1.4117)" gradientUnits="userSpaceOnUse">
   <stop id="stop3946-7" stop-color="#df1a1a" offset="0"/>
   <stop id="stop3948-5" stop-color="#e44848" offset="1"/>
  </linearGradient>
  <linearGradient id="linearGradient3247" x1="23.363" x2="27" y1="90.2" y2="62.573" gradientTransform="matrix(.23909 0 0 .23777 .55251 -1.4117)" gradientUnits="userSpaceOnUse">
   <stop id="stop3936-1" stop-color="#e8ac0c" offset="0"/>
   <stop id="stop3938-2" stop-color="#e8db0c" offset="1"/>
  </linearGradient>
  <linearGradient id="linearGradient3250" x1="6" x2="90" y1="48" y2="48" gradientTransform="matrix(0 -.23777 .23777 0 .59713 21.414)" gradientUnits="userSpaceOnUse">
   <stop id="stop3916-3" stop-color="#028537" offset="0"/>
   <stop id="stop3918-6" stop-color="#03b035" offset="1"/>
  </linearGradient>
  <clipPath id="clipPath4026">
   <rect id="rect4028" x="2" width="20" height="20" rx="2" ry="2" fill="#f0f" fill-rule="evenodd"/>
  </clipPath>
 </defs>
 <metadata id="metadata7">
  <rdf:RDF>
   <cc:Work rdf:about="">
    <dc:format>image/svg+xml</dc:format>
    <dc:type rdf:resource="http://purl.org/dc/dcmitype/StillImage"/>
    <dc:title/>
   </cc:Work>
  </rdf:RDF>
 </metadata>
 <g id="layer1" transform="translate(0,2)">
  <g id="g3337" transform="translate(1,-1)">
   <rect id="rect3371" x=".5" y=".5" width="21" height="21.5" rx="2.5" ry="2.5" fill="url(#linearGradient3335)" opacity=".3"/>
   <rect id="rect2553" x="1" y="2" width="20" height="20" rx="2.381" ry="2.3256" opacity=".5"/>
  </g>
  <rect id="rect3173" x="32" width="20" height="20" rx="2" ry="2" fill="url(#linearGradient3181)" fill-rule="evenodd"/>
  <path id="path3018" d="m-26-1.8e-7c-1.108 0-2 0.892-2 2v1c0-1.108 0.892-2 2-2h16c1.108 0 2 0.892 2 2v-1c0-1.108-0.892-2-2-2h-16z" fill="#fff" fill-rule="evenodd" opacity=".25"/>
  <path id="path3020" d="m-26 20c-1.108 0-2-0.892-2-2v-1c0 1.108 0.892 2 2 2h16c1.108 0 2-0.892 2-2v1c0 1.108-0.892 2-2 2h-16z" fill-rule="evenodd" opacity=".15"/>
  <path id="rect2419" d="m4 1.9219e-7c-0.9695 0-1.7829 0.68074-1.9688 1.5938v16.812c0.18588 0.91301 0.99925 1.5938 1.9688 1.5938h16c1.108 0 2-0.892 2-2v-16c0-1.108-0.892-2-2-2h-16z" fill="url(#linearGradient3250)"/>
  <path id="path3932" d="m5.0951 19.987c-1.594-0.4496-2.216-2.011-2.1731-3.1856 0.11314-3.0963 3.6261-3.362 6.342-3.5392 1.3164 1.0243 3.4246 1.905 3.333 4.065-0.05883 1.3873-0.30037 1.7837-1.2858 2.6598-0.07048 0.02691-1.274 0.0029-2.869 0-2.264-0.0042-2.869 0-3.3472 0z" fill="url(#linearGradient3247)"/>
  <path id="path3942" d="m11.969 1.9219e-7c0.71573 0.91508 1.4079 1.8455 1.5938 2.9063 0.30264 1.7272-0.23743 3.1721-1.2188 4.3125 1.6194-1.5977 3.2281-1.6968 4.9688-1.625 2.4934 0.10282 3.6528 1.0866 4.6875 2.0312v-5.625c0-1.108-0.892-2-2-2h-8.0312z" fill="url(#linearGradient3244)"/>
  <path id="path3922" d="m7.158 0.014865c-0.92612 1.774e-4 -0.98627 0.01069-1.382 0.23777-0.59302 0.34026-1.0135 0.81243-1.1814 1.486-0.36832 1.4777-0.05328 3.2074 0.57956 4.3838 0.81836 1.5213 2.0616 2.5178 3.4996 2.2142 0.87884-0.18556 1.6297-0.71194 1.9616-1.3672 0.66913-1.321 0.31715-3.8052-0.8099-5.4984-0.85333-1.282-1.3435-1.4566-2.6675-1.4563zm-5.1292 6.336-0.028815 7.6988c1.8651-0.97138 3.9047-1.4861 6.2331-1.6395-0.53295-0.79592-0.96478-1.6399-0.61434-3.1744-2.6769 0.084124-4.2902-0.58708-5.5899-2.8849z" fill="url(#linearGradient3241)"/>
  <path id="path3254" d="m4-0.875c-1.5771 0-2.875 1.2979-2.875 2.875v4.3438a0.87414 0.87414 0 0 0 0.125 0.4375c0.7086 1.2514 1.5466 2.149 2.625 2.6875 0.84266 0.4208 1.8277 0.58424 2.875 0.625-5.356e-4 0.60698 0.011984 1.1656 0.1875 1.625-1.9212 0.25185-3.718 0.72026-5.3438 1.5625a0.87414 0.87414 0 0 0-0.46875 0.78125v3.9375c0 1.5771 1.2979 2.875 2.875 2.875h1.0938a0.87414 0.87414 0 0 0 0.25-1.7188c-0.56698-0.16063-0.93627-0.47503-1.1875-0.90625s-0.35912-0.9838-0.34375-1.4062c0.044459-1.2221 0.58838-1.6622 1.625-2.0625 0.96198-0.37149 2.3258-0.50568 3.5938-0.59375 0.64619 0.46846 1.3243 0.89764 1.8125 1.3438 0.57073 0.52151 0.87729 0.98688 0.84375 1.7812-0.02732 0.64712-0.07781 0.93663-0.1875 1.1562-0.10969 0.21962-0.34336 0.45606-0.8125 0.875a0.87414 0.87414 0 0 0 0.59375 1.5312h1.6875a0.87414 0.87414 0 0 0 0.6875-0.3125c0.58358-0.70597 1.2332-1.5881 1.625-2.6562a0.87414 0.87414 0 0 0 0-0.03125c0.3115-0.92199 0.37753-1.9975 0.15625-2.9375-0.33143-1.4081-1.2244-2.5753-3.0312-4.0312-0.69012-0.55608-1.068-0.87489-1.1562-1-0.08826-0.12511-0.03564 0.015531 0-0.25 0.0088-0.065908-0.0017-0.12029 0.125-0.28125 0.12674-0.16096 0.38435-0.41522 0.78125-0.75 1.6175-1.3721 2.6768-3.4421 2.25-5.875-0.23474-1.3382-1.0553-2.3541-1.7812-3.2812a0.87414 0.87414 0 0 0-0.6875-0.34375h-4.7812c-1.3432 0.003341-2.8406-9.1959e-4 -3.1562 0zm3.1562 1.75c0.62221-1.2277e-4 0.89937 0.053521 1.0938 0.15625 0.19438 0.10273 0.44695 0.34204 0.84375 0.9375 0.47858 0.71818 0.80974 1.6566 0.9375 2.5312 0.12776 0.8746 0.019714 1.6539-0.1875 2.0625-0.17733 0.34969-0.72668 0.80077-1.375 0.9375-0.4812 0.10148-0.87647-0.016365-1.3125-0.3125s-0.85816-0.79918-1.2188-1.4688c-0.52532-0.97545-0.83215-2.5442-0.53125-3.75 0.10828-0.43394 0.34205-0.71703 0.78125-0.96875 0.18651-0.10689 0.15357-0.081812 0.21875-0.09375s0.29322-0.031163 0.75-0.03125z" clip-path="url(#clipPath4026)" opacity=".2"/>
  <path id="rect3064" d="m4 1.9219e-7c-1.108 0-2 0.892-2 2v4.3438c1.302 2.2993 2.9121 2.9904 5.5938 2.9062-0.35106 1.5355 0.09112 2.3598 0.625 3.1562-2.3237 0.1529-4.356 0.69124-6.2188 1.6562v3.9375c0 1.108 0.892 2 2 2h1.0938c-1.588-0.44988-2.199-2.0121-2.1562-3.1875 0.11272-3.0982 3.6068-3.354 6.3125-3.5312 1.3114 1.0249 3.4038 1.9012 3.3125 4.0625-0.05861 1.3882-0.29955 1.7796-1.2812 2.6562h1.6875c0.55985-0.67725 1.168-1.5011 1.5-2.4062 0.24228-0.71711 0.29441-1.7491 0.125-2.4688-0.27781-1.1803-0.9995-2.1207-2.75-3.5312-1.403-1.1305-1.5611-1.3742-1.4688-2.0625 0.0622-0.46338 0.38632-0.86035 1.2188-1.5625 1.4428-1.2239 2.3106-2.9353 1.9375-5.0625-0.18619-1.0615-0.87676-1.9906-1.5938-2.9063h-4.7812c1.3263-2.617e-4 1.8014 0.18594 2.6562 1.4688 1.129 1.6943 1.4828 4.1782 0.8125 5.5-0.33248 0.65564-1.0884 1.1893-1.9688 1.375-1.4405 0.30381-2.6802-0.69648-3.5-2.2188-0.63396-1.1772-0.96271-2.8964-0.59375-4.375 0.1682-0.67405 0.59343-1.1595 1.1875-1.5 0.39646-0.22722 0.47851-0.24982 1.4062-0.25-1.3466 0.00335-2.8574-8.706e-4 -3.1562 0z" fill="#fff"/>
  <path id="rect3050" d="m4 0c-1.108 0-2 0.892-2 2v16c0 1.108 0.892 2 2 2h16c1.108 0 2-0.892 2-2v-16c0-1.108-0.892-2-2-2h-16zm0 1.0312h16c0.5497 0 0.96875 0.41905 0.96875 0.96875v16c0 0.5497-0.41905 0.96875-0.96875 0.96875h-16c-0.5497 0-0.96875-0.41905-0.96875-0.96875v-16c0-0.5497 0.41905-0.96875 0.96875-0.96875z" fill="url(#linearGradient3961)" fill-rule="evenodd" opacity=".35"/>
  <path id="path3235" d="m4 20c-1.108 0-2-0.892-2-2v-1c0 1.108 0.892 2 2 2h16c1.108 0 2-0.892 2-2v1c0 1.108-0.892 2-2 2h-16z" fill="url(#linearGradient3845)" fill-rule="evenodd" opacity=".2"/>
 </g>
 <g id="layer2" transform="translate(0,2)">
  <rect id="rect2410" transform="translate(1,-1)" x="3" y="3" width="16" height="16" rx="2" ry="2" clip-path="url(#clipPath2849)" fill="#fff" filter="url(#filter3194)" opacity=".15"/>
 </g>
</svg>
