<?xml version="1.0" encoding="UTF-8"?>
<!-- Created with Inkscape (http://www.inkscape.org/) -->
<svg id="svg2" width="24" height="24" version="1.1" xmlns="http://www.w3.org/2000/svg" xmlns:cc="http://creativecommons.org/ns#" xmlns:dc="http://purl.org/dc/elements/1.1/" xmlns:rdf="http://www.w3.org/1999/02/22-rdf-syntax-ns#" xmlns:xlink="http://www.w3.org/1999/xlink">
 <defs id="defs4">
  <linearGradient id="linearGradient3335" x1="11.375" x2="11.375" y1="22" y2="-9.8173" gradientUnits="userSpaceOnUse">
   <stop id="stop3330" offset="0"/>
   <stop id="stop3333" stop-opacity="0" offset="1"/>
  </linearGradient>
  <linearGradient id="linearGradient3181" x1="-3.0608" x2="-3.0608" y1="45.258" y2="7.2537" gradientTransform="translate(12.119 -7.2582)" gradientUnits="userSpaceOnUse">
   <stop id="stop4628" stop-color="#e51d00" offset="0"/>
   <stop id="stop4630" stop-color="#ffb982" offset="1"/>
  </linearGradient>
  <filter id="filter3194" x="-.18" y="-.18" width="1.36" height="1.36" color-interpolation-filters="sRGB">
   <feGaussianBlur id="feGaussianBlur3196" stdDeviation="1.2"/>
  </filter>
  <clipPath id="clipPath2849">
   <rect id="rect2851" x="1" y="1" width="20" height="20" rx="2" ry="2" fill="#fff" fill-rule="evenodd"/>
  </clipPath>
  <linearGradient id="linearGradient3845" x1="11" x2="21" y1="19.5" y2="19.5" gradientTransform="translate(1,-1)" gradientUnits="userSpaceOnUse" spreadMethod="reflect">
   <stop id="stop3833" stop-color="#fff" offset="0"/>
   <stop id="stop3821" stop-color="#fff" stop-opacity=".49804" offset=".75"/>
   <stop id="stop3835" stop-color="#fff" stop-opacity="0" offset="1"/>
  </linearGradient>
  <linearGradient id="linearGradient3961" x1="10" x2="10" y1="1" y2="16" gradientTransform="translate(1,-1)" gradientUnits="userSpaceOnUse">
   <stop id="stop3825" stop-color="#fff" offset="0"/>
   <stop id="stop3829" stop-color="#fff" stop-opacity="0" offset="1"/>
  </linearGradient>
  <clipPath id="clipPath4896-8">
   <path id="path4898-7" d="m183.12 40c-8.9628 0.19466-17.931 3.3752-25.25 9.6875-23.538 20.3-5.2557 41.391-25.781 59.094-20.526 17.702-40.161-1.1059-62.25 16.844v0.031c-5.2278 4.5088-9.0001 10.092-11.281 16.125-0.01503 0.0396-0.01503 0.0853-0.03007 0.125-0.45954 1.2269-0.85194 2.4586-1.1875 3.7188-0.14884 0.55949-0.31321 1.1229-0.4375 1.6875-0.01503 0.0617-0.02005 0.12571-0.03007 0.18749-0.25658 1.1909-0.44652 2.3864-0.59375 3.5938-0.0013 0.0102 0.0012 0.0208 0 0.031-0.01002 0.0629-0.02506 0.12459-0.03007 0.18749-0.06565 0.56236-0.11476 1.123-0.15636 1.6875-0.03007 0.42448-0.07517 0.85631-0.09371 1.2812-0.01002 0.21631-0.02506 0.43983-0.03007 0.65627-2e-3 0.0721 0.0016 0.14664 0 0.21874-0.01002 0.56641-0.01002 1.1208 0 1.6875 5e-3 0.28993 0.02004 0.58534 0.03007 0.875 0.02005 0.42494 0.06164 0.85679 0.09371 1.2812 0.0451 0.62871 0.11025 1.2482 0.18743 1.875 0.0012 0.0102-0.0013 0.0208 0 0.031 0.14734 1.2073 0.33727 2.4028 0.59375 3.5937 0.01503 0.0623 0.01503 0.12531 0.03007 0.1875 0.12629 0.56806 0.28615 1.1239 0.4375 1.6875 0.33576 1.2602 0.72811 2.4918 1.1875 3.7188 0.01503 0.0401 0.01503 0.0849 0.03007 0.12499 2.2811 6.0332 6.0534 11.616 11.281 16.125v0.031c22.958 18.831 41.724-0.8586 62.25 16.844 20.526 17.702 2.2437 38.794 25.781 59.094 16.729 14.428 40.417 11.962 55.128-4.5116 13.797-15.45 13.145-40.32-2.5582-54.462-19.136-17.233-42.044-0.73043-62.57-18.433-10.369-8.9425-10.823-18.773-11.781-28.906 0.95833-10.133 1.4126-19.964 11.781-28.906 20.526-17.702 41.329 0.15081 62.25-17.461 16.967-14.283 18.584-39.029 4.1562-55.758-8.1158-9.4101-19.633-14.125-31.156-13.875l-1e-3 8.49e-4z" color="#000000" fill="#808080" fill-rule="evenodd"/>
  </clipPath>
  <filter id="filter3887-0-9-9" color-interpolation-filters="sRGB">
   <feGaussianBlur id="feGaussianBlur3889-0-0-6" stdDeviation="5.0007327"/>
  </filter>
  <linearGradient id="linearGradient6339-5-2-2-6">
   <stop id="stop6341-6-31-7-40" stop-color="#fff" stop-opacity=".56148" offset="0"/>
   <stop id="stop6343-5-0-1-9" stop-color="#fff" stop-opacity=".069672" offset="1"/>
  </linearGradient>
  <filter id="filter6949-7-6-4" x="-.064854" y="-.10984" width="1.1297" height="1.2197" color-interpolation-filters="sRGB">
   <feGaussianBlur id="feGaussianBlur6951-4-2-5" stdDeviation="1.6398196"/>
  </filter>
  <linearGradient id="linearGradient6339-0-4-6">
   <stop id="stop6341-1-8-6" stop-color="#fff" stop-opacity=".34836" offset="0"/>
   <stop id="stop6343-8-2-39" stop-color="#fff" stop-opacity=".053279" offset="1"/>
  </linearGradient>
  <linearGradient id="linearGradient4196-4-2-5">
   <stop id="stop4198-2-4-2" stop-color="#fff" offset="0"/>
   <stop id="stop4200-4-5-1" stop-color="#fff" stop-opacity="0" offset="1"/>
  </linearGradient>
  <filter id="filter4228-6-4-30" x="-.24217" y="-.24217" width="1.4843" height="1.4843" color-interpolation-filters="sRGB">
   <feGaussianBlur id="feGaussianBlur4230-4-1-9" stdDeviation="7.2651119"/>
  </filter>
  <filter id="filter4150-8-8-1" x="-.071736" y="-.13193" width="1.1435" height="1.2639" color-interpolation-filters="sRGB">
   <feGaussianBlur id="feGaussianBlur4152-4-0-3" stdDeviation="1.7126233"/>
  </filter>
  <filter id="filter6953-2-4-6-3" x="-.064707" y="-.11014" width="1.1294" height="1.2203" color-interpolation-filters="sRGB">
   <feGaussianBlur id="feGaussianBlur6955-9-0-5-8" stdDeviation="1.8985975"/>
  </filter>
  <filter id="filter4568-6-6-8-0" x="-.108" y="-.108" width="1.216" height="1.216" color-interpolation-filters="sRGB">
   <feGaussianBlur id="feGaussianBlur4570-4-6-9-4" stdDeviation="3.24"/>
  </filter>
  <filter id="filter7119-7-9-8-9" x="-.31725" y="-.31725" width="1.6345" height="1.6345" color-interpolation-filters="sRGB">
   <feGaussianBlur id="feGaussianBlur7121-7-6-6-9" stdDeviation="9.5173656"/>
  </filter>
  <filter id="filter4568-8-3-3-8-3" x="-.108" y="-.108" width="1.216" height="1.216" color-interpolation-filters="sRGB">
   <feGaussianBlur id="feGaussianBlur4570-2-1-0-2-93" stdDeviation="3.24"/>
  </filter>
  <linearGradient id="linearGradient4199" x1="128" x2="128" y1="241.01" y2="85.002" gradientUnits="userSpaceOnUse">
   <stop id="stop6206-2-8-2" stop-color="#e51d00" offset="0"/>
   <stop id="stop6208-2-8-4" stop-color="#ffb276" offset="1"/>
  </linearGradient>
  <linearGradient id="linearGradient4201" x1="163.98" x2="163.98" y1="237.51" y2="71.568" gradientUnits="userSpaceOnUse">
   <stop id="stop7081-6-7-1" stop-color="#a00" offset="0"/>
   <stop id="stop7083-1-4-28" stop-color="#bf4b00" stop-opacity=".53333" offset="1"/>
  </linearGradient>
  <linearGradient id="linearGradient4203" x1="151.12" x2="158.49" y1="181.93" y2="216.42" gradientUnits="userSpaceOnUse" xlink:href="#linearGradient6339-5-2-2-6"/>
  <linearGradient id="linearGradient4205" x1="151.12" x2="158.49" y1="181.93" y2="216.42" gradientTransform="matrix(.98409 0 0 1.3741 29.947 -49.174)" gradientUnits="userSpaceOnUse" xlink:href="#linearGradient6339-0-4-6"/>
  <linearGradient id="linearGradient4207" x1="148.62" x2="148.62" y1="257.96" y2="211.64" gradientUnits="userSpaceOnUse" xlink:href="#linearGradient4196-4-2-5"/>
  <radialGradient id="radialGradient4211" cx="48.518" cy="147.86" r="6.4843" gradientTransform="matrix(1 0 0 1.0251 0 -3.7151)" gradientUnits="userSpaceOnUse">
   <stop id="stop4533-3-2-61-5-47-3-5" stop-color="#fff" offset="0"/>
   <stop id="stop4535-5-7-3-4-13-2-7" stop-color="#fff" stop-opacity="0" offset="1"/>
  </radialGradient>
  <linearGradient id="linearGradient4213" x1="151.12" x2="158.49" y1="181.93" y2="216.42" gradientUnits="userSpaceOnUse" xlink:href="#linearGradient6339-0-4-6"/>
  <linearGradient id="linearGradient4217" x1="151.12" x2="158.49" y1="181.93" y2="216.42" gradientUnits="userSpaceOnUse">
   <stop id="stop6341-6-5-0-7-5" stop-color="#fff" stop-opacity=".56148" offset="0"/>
   <stop id="stop6343-5-1-0-5-5" stop-color="#fff" stop-opacity=".069672" offset="1"/>
  </linearGradient>
  <linearGradient id="linearGradient4219" x1="151.12" x2="158.49" y1="181.93" y2="216.42" gradientTransform="matrix(.99481 0 0 1.3481 -57.181 -121.24)" gradientUnits="userSpaceOnUse">
   <stop id="stop6341-8-0-9-3" stop-color="#fff" stop-opacity=".34836" offset="0"/>
   <stop id="stop6343-6-8-7-6" stop-color="#fff" stop-opacity=".053279" offset="1"/>
  </linearGradient>
  <radialGradient id="radialGradient4223" cx="127.46" cy="213.21" r="50.236" gradientTransform="matrix(.92064 0 0 .92064 11.626 24.412)" gradientUnits="userSpaceOnUse">
   <stop id="stop4544-4-24-5-1" stop-color="#ce3100" stop-opacity="0" offset="0"/>
   <stop id="stop4546-5-99-1-0" stop-color="#ce2b00" stop-opacity="0" offset=".48237"/>
   <stop id="stop4548-7-2-1-3" stop-color="#ce2b00" offset=".77067"/>
   <stop id="stop4550-2-3-5-0" stop-color="#ce3100" stop-opacity="0" offset="1"/>
  </radialGradient>
  <linearGradient id="linearGradient4225" x1="148.62" x2="148.62" y1="257.96" y2="211.64" gradientUnits="userSpaceOnUse">
   <stop id="stop4198-4-4-6-2" stop-color="#fff" offset="0"/>
   <stop id="stop4200-9-6-7-4" stop-color="#fff" stop-opacity="0" offset="1"/>
  </linearGradient>
  <radialGradient id="radialGradient4227" cx="127.46" cy="213.21" r="50.236" gradientTransform="matrix(.92064 0 0 .92064 11.626 24.412)" gradientUnits="userSpaceOnUse">
   <stop id="stop7071-5-9-1-9" stop-color="#ed4700" stop-opacity="0" offset="0"/>
   <stop id="stop7073-1-5-0-8" stop-color="#ff540d" stop-opacity="0" offset=".48237"/>
   <stop id="stop7075-8-1-0-1" stop-color="#dc4100" stop-opacity=".22277" offset=".77067"/>
   <stop id="stop7077-9-7-0-6" stop-color="#ff6a0d" stop-opacity="0" offset="1"/>
  </radialGradient>
  <linearGradient id="linearGradient4229" x1="327.85" x2="311.46" y1="92.438" y2="61.138" gradientTransform="matrix(.63314 0 0 .62937 -151.39 -42.913)" gradientUnits="userSpaceOnUse">
   <stop id="stop4892-6" stop-color="#fff" stop-opacity=".58719" offset="0"/>
   <stop id="stop4894-1" stop-color="#fff" stop-opacity=".40214" offset="1"/>
  </linearGradient>
 </defs>
 <metadata id="metadata7">
  <rdf:RDF>
   <cc:Work rdf:about="">
    <dc:format>image/svg+xml</dc:format>
    <dc:type rdf:resource="http://purl.org/dc/dcmitype/StillImage"/>
    <dc:title/>
   </cc:Work>
  </rdf:RDF>
 </metadata>
 <g id="layer1" transform="translate(0,2)">
  <g id="g3337" transform="translate(1,-1)">
   <rect id="rect3371" x=".5" y=".5" width="21" height="21.5" rx="2.5" ry="2.5" fill="url(#linearGradient3335)" opacity=".3"/>
   <rect id="rect2553" x="1" y="2" width="20" height="20" rx="2.381" ry="2.3256" opacity=".5"/>
  </g>
  <rect id="rect3173" x="2" width="20" height="20" rx="2" ry="2" fill="url(#linearGradient3181)" fill-rule="evenodd"/>
  <path id="path3018" d="m-26-1.8e-7c-1.108 0-2 0.892-2 2v1c0-1.108 0.892-2 2-2h16c1.108 0 2 0.892 2 2v-1c0-1.108-0.892-2-2-2h-16z" fill="#fff" fill-rule="evenodd" opacity=".25"/>
  <path id="path3020" d="m-26 20c-1.108 0-2-0.892-2-2v-1c0 1.108 0.892 2 2 2h16c1.108 0 2-0.892 2-2v1c0 1.108-0.892 2-2 2h-16z" fill-rule="evenodd" opacity=".15"/>
  <path id="rect3050" d="m4 0c-1.108 0-2 0.892-2 2v16c0 1.108 0.892 2 2 2h16c1.108 0 2-0.892 2-2v-16c0-1.108-0.892-2-2-2h-16zm0 1.0312h16c0.5497 0 0.96875 0.41905 0.96875 0.96875v16c0 0.5497-0.41905 0.96875-0.96875 0.96875h-16c-0.5497 0-0.96875-0.41905-0.96875-0.96875v-16c0-0.5497 0.41905-0.96875 0.96875-0.96875z" fill="url(#linearGradient3961)" fill-rule="evenodd" opacity=".35"/>
  <path id="path3235" d="m4 20c-1.108 0-2-0.892-2-2v-1c0 1.108 0.892 2 2 2h16c1.108 0 2-0.892 2-2v1c0 1.108-0.892 2-2 2h-16z" fill="url(#linearGradient3845)" fill-rule="evenodd" opacity=".2"/>
 </g>
 <g id="layer2" transform="translate(0,2)">
  <rect id="rect2410" transform="translate(1,-1)" x="3" y="3" width="16" height="16" rx="2" ry="2" clip-path="url(#clipPath2849)" fill="#fff" filter="url(#filter3194)" opacity=".15"/>
 </g>
 <g id="layer3" transform="translate(0,2)">
  <path id="path4379" d="m15.219 1c-0.86453 0.018521-1.8068 0.29473-2.5625 0.9375-1.1164 0.94966-1.3354 2.126-1.4062 2.9062-0.03512 0.38663-0.06418 0.67071-0.125 0.875s-0.11995 0.34555-0.375 0.5625c-0.25904 0.22034-0.42165 0.28404-0.625 0.3125-0.20335 0.028457-0.48325-0.0083261-0.875-0.03125-0.79034-0.046248-2.0044-0.015676-3.125 0.9375a0.50061 0.50061 0 0 0-0.0625 0.0625 0.50061 0.50061 0 0 0-0.0625 0.03125c-0.00844 0.00908 6.28e-5 0.031179 0 0.03125-1.257e-4 1.422e-4 -0.031131 0.031102-0.03125 0.03125a0.50061 0.50061 0 0 0 0 0.03125c-0.00865 0.01137-0.031183 0.031158-0.03125 0.03125-1.111e-4 1.538e-4 -0.031147 0.031091-0.03125 0.03125-1.034e-4 1.591e-4 9.55e-5 0.031086 0 0.03125s-0.031163 0.062331-0.03125 0.0625a0.50061 0.50061 0 0 0-0.03125 0c-7.58e-5 1.705e-4 6.75e-5 0.062326 0 0.0625-6.75e-5 1.739e-4 -0.031191 0.031073-0.03125 0.03125-2.95e-5 8.85e-5 0.00357 0.019601 0 0.03125s2.52e-5 0.03116 0 0.03125c-5.04e-5 1.796e-4 -0.031208 0.031068-0.03125 0.03125-0.2866 0.29504-0.6061 0.57437-0.78125 1.0312 0 0 0.00631 0.048483 0 0.09375h-0.03125c0.00522-0.020856 0.00479 0.017594 0 0.03125l0.46875 0.1875h-0.125l-0.34375-0.15625c0.013201-0.031482-0.01724 0.073541-0.03125 0.09375-0.023869 0.03443-0.027348 0.026039-0.0625 0.15625-0.012356 0.045756-0.04922 0.0968-0.0625 0.15625 0 0 0.00263 0.026514 0 0.0625a0.50061 0.50061 0 0 0 0 0.03125c-0.00213 0.016573 7.165e-4 0.017933 0 0.03125-0.00232 0.017663 7.391e-4 0.017907 0 0.03125 9.26e-5 0.010013-2.96e-4 0.024589 0 0.03125 1.223e-4 0.00962-2.691e-4 0.024767 0 0.03125 1.434e-4 0.012306 1.351e-4 0.043314 0 0.03125-0.00677 0.035309-0.022943 0.057828-0.03125 0.125v0.03125 0.03125c-6.602e-4 0.01089-9.79e-5 0.02716 0 0.03125 1.765e-4 0.01813 1.451e-4 0.06434 0 0.03125 7.6e-6 0.0017-9.942e-4 -0.0181 0 0.03125-0.00266 0.02159-0.029535 0.03974-0.03125 0.0625-0.00194 0.02515 9.652e-4 0.04245 0 0.0625a0.50061 0.50061 0 0 0 0 0.03125 0.50061 0.50061 0 0 0 0 0.09375c-4.59e-4 0.01644 2.37e-4 0.02108 0 0.03125 0.00101 0.0057-0.00374 0.01805 0 0.03125-0.00269 0.01418 3.386e-4 0.02815 0 0.03125 0 0-0.00239 0.0222 0 0.03125-0.00375 0.01321 0.00101 0.02555 0 0.03125 0.00209 0.01309-4.2e-6 0.03123 0 0.03125 0 0-0.00515 0.01625 0 0.03125-0.00136 0.02406-3.06e-4 0.04267 0 0.0625 4.589e-4 0.02975-0.00291 0.05602 0 0.09375 0.00395 0.05198 0.026305 0.08606 0.03125 0.125a0.50061 0.50061 0 0 0 0 0.0625c-0.00791-0.06397-0.00357-0.0092 0 0.0625 0.00261 0.0103-0.00314 0.02014 0 0.03125 0.00282 0.04346 0.022348 0.09871 0.03125 0.15625-7.2e-6 2.36e-4 -7.2e-6 0.03101 0 0.03125a0.50061 0.50061 0 0 0 0 0.0625 0.50061 0.50061 0 0 0 0 0.0625c0.012441 0.05514 0.048721 0.07443 0.0625 0.125 0.04665 0.1728 0.095328 0.32809 0.125 0.40625 0.22699 0.59209 0.60513 1.1203 1.125 1.5625 1.112 0.94587 2.2981 1.007 3.0938 0.96875 0.39448-0.01896 0.66101-0.02833 0.875 0 0.21399 0.02833 0.40035 0.06358 0.65625 0.28125 0.25872 0.22007 0.31541 0.36682 0.375 0.5625s0.08985 0.4609 0.125 0.84375c0.07094 0.77267 0.28984 1.9566 1.4062 2.9062 1.6637 1.4151 4.1864 1.2702 5.625-0.375 1.4321-1.6377 1.2544-4.1499-0.40625-5.5625-1.1206-0.95318-2.3347-0.98375-3.125-0.9375-0.39175 0.02292-0.67165 0.05971-0.875 0.03125s-0.36596-0.09216-0.625-0.3125c-0.25064-0.2132-0.33772-0.38926-0.40625-0.59375-0.06338-0.18913-0.09465-0.42761-0.125-0.75 0.0025-0.02724-0.0025-0.03631 0-0.0625 0.03035-0.32239 0.06162-0.56087 0.125-0.75 0.06853-0.20449 0.15561-0.38055 0.40625-0.59375 0.2559-0.21767 0.44226-0.25292 0.65625-0.28125 0.21399-0.028332 0.48052-0.018956 0.875 0 0.79565 0.038234 1.9818-0.022876 3.0938-0.96875 1.6606-1.4126 1.8384-3.9248 0.40625-5.5625-0.80972-0.92597-1.9372-1.3366-3.0625-1.3125z" color="#000000" fill="#500" fill-rule="evenodd" opacity=".05"/>
  <path id="path4375" d="m15.219 1.5c-0.76649 0.016421-1.6 0.25964-2.25 0.8125-0.99246 0.8442-1.1507 1.8131-1.2188 2.5625s-0.058918 1.2466-0.6875 1.7812c-0.62892 0.53497-1.0855 0.45062-1.8438 0.40625s-1.7891-0.031444-2.7812 0.8125a0.51214 0.51214 0 0 0 0 0.03125 0.51214 0.51214 0 0 0-0.125 0.15625 0.51214 0.51214 0 0 0-0.03125 0.09375c-0.33443 0.33311-0.64557 0.6583-0.8125 1.0938-1.62e-5 4.26e-5 0.00248 0.021355 0 0.03125-0.00806 0.032158-0.031216 0.093485-0.03125 0.09375-4.46e-5 3.463e-4 4.552e-4 0.021824 0 0.03125-0.022668 0.054059-0.069134 0.096319-0.09375 0.1875-0.012237 0.045315-0.01958 0.072757-0.03125 0.125-4.17e-5 1.887e-4 0.00169 0.019327 0 0.03125a0.51214 0.51214 0 0 0 0 0.03125c-0.00174 0.01355 2.077e-4 0.026179 0 0.03125-0.0017 0.012945 1.79e-4 0.026879 0 0.03125-5.37e-4 0.013112-4.44e-5 0.027284 0 0.03125-0.010157 0.075504-0.026389 0.1482-0.03125 0.1875-7.16e-5 5.75e-4 0.00101 0.01458 0 0.03125s-1.96e-5 0.02678 0 0.03125c3.92e-5 0.0089-7.17e-5 0.02769 0 0.03125-0.00736 0.0079-0.021731-0.03255-0.03125 0.09375-0.00762 0.09879-0.00116 0.1195 0 0.09375-0.00164 0.03853-1.76e-4 0.06949 0 0.0625-0.00166 0.0596-9.425e-4 0.07315 0 0.03125-0.00101 0.04829-0.00109 0.07546 0 0.125-1.484e-4 -0.0071-0.00239 0.03735 0 0.09375-0.00116-0.02579-0.00762-5e-3 0 0.09375 0.014371 0.18933 0.041727 0.24016 0.03125 0.15625 0.00544 0.04402-0.00519 0.14571 0.03125 0.3125a0.51214 0.51214 0 0 0 0 0.03125c0.011306 0.05011 0.01826 0.07732 0.03125 0.125 0.032088 0.11886 0.087443 0.24482 0.125 0.34375 0.20009 0.52195 0.51341 0.98768 0.96875 1.375 0.99081 0.8428 1.9919 0.88018 2.75 0.84375 0.75815-0.03643 1.2445-0.13004 1.875 0.40625 0.63013 0.53599 0.61941 1.0083 0.6875 1.75 0.06809 0.74167 0.22764 1.7194 1.2188 2.5625 1.4576 1.2399 3.6803 1.094 4.9375-0.34375 1.2546-1.4347 1.1088-3.6082-0.34375-4.8438-0.99216-0.84394-2.023-0.85687-2.7812-0.8125s-1.2148 0.12872-1.8438-0.40625c-0.61504-0.52316-0.65237-1.0293-0.71875-1.75 0.066382-0.7207 0.10371-1.2268 0.71875-1.75 0.63047-0.53629 1.1168-0.44268 1.875-0.40625s1.7592-9.527e-4 2.75-0.84375c1.4525-1.2356 1.5983-3.4091 0.34375-4.8438-0.70776-0.80937-1.6927-1.1776-2.6875-1.1562z" color="#000000" fill="#500" fill-rule="evenodd" opacity=".1"/>
  <path id="path4235" d="m15.205 1.9844c-0.66647 0.014278-1.3333 0.24754-1.8776 0.71047-1.7502 1.4888-0.39081 3.0356-1.9171 4.3339-1.5263 1.2983-2.8786-0.25348-4.6289 1.2353v0.00229c-0.38874 0.33067-0.66924 0.74012-0.83887 1.1826-0.0011 0.0029-0.0012 0.00626-0.0023 0.00917-0.03416 0.089981-0.06335 0.18031-0.0883 0.27273-0.01108 0.041032-0.02328 0.082349-0.03253 0.12376-1e-3 0.00453-0.0013 0.00922-0.0023 0.013751-0.01908 0.087339-0.0332 0.17502-0.04415 0.26356-9.7e-5 7.55e-4 8.9e-5 0.0015 0 0.0023-5.73e-4 0.0046-0.0018 0.0091-0.0023 0.01375-0.0049 0.04124-0.0085 0.08236-0.01162 0.12376-0.0024 0.03113-0.0056 0.0628-7e-3 0.09397-6.77e-4 0.01586-0.0019 0.03225-0.0023 0.04813-1.48e-4 0.0053 1.19e-4 0.01075 0 0.01604-8.65e-4 0.04154-9.15e-4 0.0822 0 0.12376 4.46e-4 0.02126 0.0014 0.04293 0.0023 0.06417 0.0014 0.03116 0.0046 0.06284 7e-3 0.09397 0.0035 0.04611 0.0082 0.09154 0.01394 0.13751 8.9e-5 7.56e-4 -9.7e-5 0.0015 0 0.0023 0.01095 0.08854 0.02507 0.17622 0.04415 0.26356 9.97e-4 0.0046 0.0013 0.0092 0.0023 0.01375 0.0094 0.04166 0.02127 0.08243 0.03253 0.12376 0.02495 0.09242 0.05414 0.18275 0.0883 0.27273 0.0011 0.0029 0.0012 0.0062 0.0023 0.0092 0.16962 0.44246 0.45013 0.85192 0.83887 1.1826v0.0023c1.7502 1.4888 3.1026-0.06297 4.6289 1.2353 1.5263 1.2983 0.16684 2.8451 1.9171 4.3339 1.244 1.0581 3.1215 0.91978 4.1943-0.3071 1.0729-1.2269 0.93491-3.0786-0.30906-4.1368-1.7502-1.4888-3.1026 0.06526-4.6289-1.233-0.77101-0.65583-0.80479-1.3768-0.87605-2.1199 0.07126-0.74317 0.10504-1.4641 0.87605-2.1199 1.5263-1.2983 2.8786 0.25577 4.6289-1.233 1.2439-1.0582 1.3819-2.9099 0.30904-4.1368-0.60348-0.69012-1.4599-1.0359-2.3168-1.0176z" color="#000000" fill="#500" fill-rule="evenodd" opacity=".3"/>
  <g id="g4147" transform="matrix(.56721 0 0 .56721 -15.805 8.3066)">
   <g id="g4283-2-0" transform="matrix(.1311 0 0 .1293 30.664 -17.171)" clip-path="url(#clipPath4896-8)" enable-background="new">
    <path id="path3984-0-3-4-7-3-8" d="m183.12 40c-8.9628 0.19468-17.931 3.3752-25.25 9.6875-23.538 20.3-5.2557 41.391-25.781 59.094-20.526 17.702-38.712-3.4563-62.25 16.844v0.0312c-5.2278 4.5088-9.0001 10.092-11.281 16.125-0.01509 0.0396-0.01629 0.0853-0.03125 0.125-0.45938 1.2269-0.85192 2.4586-1.1875 3.7188-0.14899 0.55949-0.31302 1.1229-0.4375 1.6875-0.01373 0.0617-0.01782 0.12571-0.03125 0.1875-0.25661 1.1909-0.44644 2.3864-0.59375 3.5938-0.0013 0.0103 0.0012 0.0209 0 0.0312-0.0077 0.0629-0.02383 0.12461-0.03125 0.1875-0.06548 0.56236-0.11456 1.123-0.15625 1.6875-0.03193 0.42446-0.07534 0.85633-0.09375 1.2812-0.0091 0.2163-0.02562 0.4398-0.03125 0.65625-2e-3 0.0721 0.0016 0.14664 0 0.21875-0.01164 0.56641-0.01231 1.1208 0 1.6875 6e-3 0.28991 0.01903 0.58534 0.03125 0.875 0.01841 0.42492 0.06182 0.85679 0.09375 1.2812 0.04729 0.62871 0.11048 1.2482 0.1875 1.875 0.0012 0.0103-0.0013 0.0209 0 0.0312 0.14731 1.2073 0.33714 2.4028 0.59375 3.5938 0.01342 0.0623 0.01754 0.1253 0.03125 0.1875 0.12631 0.56806 0.28597 1.1239 0.4375 1.6875 0.33558 1.2602 0.72812 2.4918 1.1875 3.7188 0.01503 0.0402 0.01608 0.0849 0.03125 0.125 2.2811 6.0332 6.0534 11.616 11.281 16.125v0.0312c23.538 20.3 41.724-0.8586 62.25 16.844 20.526 17.702 2.2437 38.794 25.781 59.094 16.729 14.428 41.978 12.542 56.406-4.1875 14.428-16.729 12.573-41.978-4.1562-56.406-23.538-20.3-41.724 0.88984-62.25-16.812-10.369-8.9425-10.823-18.773-11.781-28.906 0.95832-10.133 1.4126-19.964 11.781-28.906 20.526-17.702 38.712 3.4876 62.25-16.812 16.729-14.428 18.584-39.677 4.1562-56.406-8.1158-9.4101-19.633-14.125-31.156-13.875z" color="#000000" enable-background="accumulate" fill="url(#linearGradient4199)" fill-rule="evenodd"/>
    <path id="path3984-0-3-4-7-0-9-8-0" d="m181.17 37.985c-8.9628 0.19468-17.931 3.3752-25.25 9.6875-23.538 20.3-5.2557 41.391-25.781 59.094-20.526 17.702-38.712-3.4563-62.25 16.844v0.0312c-5.2278 4.5088-9.0001 10.092-11.281 16.125-0.01509 0.0396-0.01629 0.0853-0.03125 0.125-0.45938 1.2269-0.85192 2.4586-1.1875 3.7188-0.14899 0.55949-0.31302 1.1229-0.4375 1.6875-0.01373 0.0617-0.01782 0.12571-0.03125 0.1875-0.25661 1.1909-0.44644 2.3864-0.59375 3.5938-0.0013 0.0103 0.0012 0.0209 0 0.0312-0.0077 0.0629-0.02383 0.12461-0.03125 0.1875-0.06548 0.56236-0.11456 1.123-0.15625 1.6875-0.03193 0.42446-0.07534 0.85633-0.09375 1.2812-0.0091 0.2163-0.02562 0.4398-0.03125 0.65625-2e-3 0.0721 0.0016 0.14664 0 0.21875-0.01164 0.56641-0.01231 1.1208 0 1.6875 6e-3 0.28991 0.01903 0.58534 0.03125 0.875 0.01841 0.42492 0.06182 0.85679 0.09375 1.2812 0.04729 0.62871 0.11048 1.2482 0.1875 1.875 0.0012 0.0103-0.0013 0.0209 0 0.0312 0.14731 1.2073 0.33714 2.4028 0.59375 3.5938 0.01342 0.0623 0.01754 0.1253 0.03125 0.1875 0.12631 0.56806 0.28597 1.1239 0.4375 1.6875 0.33558 1.2602 0.72812 2.4918 1.1875 3.7188 0.01503 0.0402 0.01608 0.0849 0.03125 0.125 2.2811 6.0332 6.0534 11.616 11.281 16.125v0.0312c23.538 20.3 41.724-0.85859 62.25 16.844 17.579 15.161 6.6923 32.809 17.992 50.316 1.8937 2.934 4.4106 5.864 7.789 8.7778 16.729 14.428 41.978 12.542 56.406-4.1875 14.428-16.729 12.573-41.978-4.1562-56.406-23.538-20.3-41.724 0.88984-62.25-16.812-10.369-8.9425-10.823-18.773-11.781-28.906 0.95832-10.133 1.4126-19.964 11.781-28.906 20.526-17.702 38.712 3.4876 62.25-16.812 16.729-14.428 18.584-39.677 4.1562-56.406-8.1158-9.4101-19.633-14.125-31.156-13.875z" color="#000000" enable-background="accumulate" fill="none" filter="url(#filter3887-0-9-9)" stroke="url(#linearGradient4201)" stroke-width="40.624"/>
    <path id="path6337-8-6-7" transform="matrix(1.0162 0 0 1.4158 18.728 -58.296)" d="m185.14 197.4c0 8.6033-12.826 15.578-28.649 15.578s-28.649-6.9744-28.649-15.578c0-4.3017 7.1545-5.8021-3.3859-20.253 16.001 8.1708 24.123 4.6753 32.035 4.6753 15.822 0 28.649 6.9744 28.649 15.578z" enable-background="new" fill="url(#linearGradient4203)" filter="url(#filter6949-7-6-4)"/>
    <path id="path6337-2-1" d="m212.14 222.07c0 11.822-12.622 21.405-28.193 21.405-15.571 0-29.177-9.6268-28.193-21.405 0.72942-8.7292 5.9657-13.345-8.2634-27.397 18.096 11.833 28.671 5.9925 36.456 5.9925 15.571 0 28.193 9.5832 28.193 21.405z" fill="url(#linearGradient4205)"/>
    <path id="path3785-66-5-6-0-1" transform="matrix(.57639 0 0 .32639 107.92 175.53)" d="m168 232c0 19.882-16.118 36-36 36s-36-16.118-36-36 16.118-36 36-36 36 16.118 36 36z" color="#000000" enable-background="accumulate" fill="url(#linearGradient4207)" fill-rule="evenodd" filter="url(#filter4228-6-4-30)" opacity=".34836"/>
    <path id="path6911-7-3" transform="matrix(1.0303 0 0 1.3667 23.899 -202.89)" d="m185.14 197.4c0 8.6033-12.826 15.578-28.649 15.578s-28.649-6.9744-28.649-15.578c0-8.6033 12.826-15.578 28.649-15.578s28.649 6.9744 28.649 15.578z" enable-background="new" fill="url(#linearGradient4203)" filter="url(#filter4150-8-8-1)"/>
    <path id="path6915-6-3" transform="matrix(1.6484 0 0 1.608 91.408 -179.77)" d="m55.002 147.86c0 3.6711-2.9031 6.6472-6.4843 6.6472-3.5812 0-6.4843-2.976-6.4843-6.6472s2.9031-6.6472 6.4843-6.6472c3.5812 0 6.4843 2.976 6.4843 6.6472z" enable-background="new" fill="url(#radialGradient4211)" opacity=".66803"/>
    <path id="path6917-4-4" transform="matrix(.85269 0 0 1.0359 50.988 -140.64)" d="m185.14 197.4c0 8.6033-12.826 15.578-28.649 15.578s-28.649-6.9744-28.649-15.578c0-8.6033 12.826-15.578 28.649-15.578s28.649 6.9744 28.649 15.578z" fill="url(#linearGradient4213)"/>
    <path id="path6919-3-8" transform="matrix(.57639 0 0 .32639 109.92 23.528)" d="m168 232c0 19.882-16.118 36-36 36s-36-16.118-36-36 16.118-36 36-36 36 16.118 36 36z" color="#000000" enable-background="accumulate" fill="url(#linearGradient4207)" fill-rule="evenodd" filter="url(#filter4228-6-4-30)" opacity=".29918"/>
    <path id="path6829-2-3" transform="matrix(1.1519 0 0 1.4945 -82.262 -147.8)" d="m185.14 197.4c0 8.6033-12.826 15.578-28.649 15.578s-28.649-6.9744-28.649-15.578c0-8.6033 12.826-15.578 28.649-15.578 7.9111 0 21.936 3.6382 41.771-10.215-17.516 12.86-13.122 21.491-13.122 25.793z" enable-background="new" fill="url(#linearGradient4217)" filter="url(#filter6953-2-4-6-3)"/>
    <path id="path6835-4-6" d="m141.48 111.1c-21.366 17.52-23.606 13.505-42.978 12.77-15.74 0-28.5 9.402-28.5 21s12.76 21 28.5 21c15.74 0 28.5-9.402 28.5-21-0.30555-12.25 1.0968-21.176 14.478-33.77z" enable-background="new" fill="url(#linearGradient4219)"/>
    <path id="path6833-7-0" transform="matrix(1.6484 0 0 1.608 5.4077 -103.77)" d="m55.002 147.86c0 3.6711-2.9031 6.6472-6.4843 6.6472-3.5812 0-6.4843-2.976-6.4843-6.6472s2.9031-6.6472 6.4843-6.6472c3.5812 0 6.4843 2.976 6.4843 6.6472z" enable-background="new" fill="url(#radialGradient4211)" opacity=".66803"/>
    <path id="path3785-66-5-67-4-5-0" transform="matrix(1.3486 0 0 1.3486 -79.407 -142.86)" d="m168 232c0 19.882-16.118 36-36 36s-36-16.118-36-36 16.118-36 36-36 36 16.118 36 36z" color="#000000" enable-background="accumulate" fill="url(#radialGradient4223)" fill-rule="evenodd" filter="url(#filter4568-6-6-8-0)"/>
    <path id="path6837-8-7" transform="matrix(.57639 0 0 .32639 23.917 99.528)" d="m168 232c0 19.882-16.118 36-36 36s-36-16.118-36-36 16.118-36 36-36 36 16.118 36 36z" color="#000000" enable-background="accumulate" fill="url(#linearGradient4225)" fill-rule="evenodd" filter="url(#filter7119-7-9-8-9)" opacity=".26639"/>
    <path id="path3785-66-5-67-4-3-0-0" transform="matrix(1.1992 0 0 1.1992 28.234 -192.21)" d="m168 232c0 19.882-16.118 36-36 36s-36-16.118-36-36 16.118-36 36-36 36 16.118 36 36z" color="#000000" enable-background="accumulate" fill="url(#radialGradient4227)" fill-rule="evenodd" filter="url(#filter4568-8-3-3-8-3)"/>
   </g>
   <path id="path3984-0-3-4-7-0-7-5-2" d="m54.032-10.495c-1.9306 0.36745-3.0295 1.9236-3.11 4.4071-0.0339 1.4332-1.0548 3.3563-2.2428 4.2358-1.1809 1.0705-3.5124 1.3591-4.975 1.282-2.641-0.10695-4.6331 1.7496-4.1247 4.3508 0.33207 2.2425 2.8566 2.887 4.8637 2.792 2.0071-0.095028 3.5893 0.39796 4.6449 1.498 1.2117 1.0293 1.9981 3.2584 2.1239 4.7381 0.29355 2.6512 2.4214 4.232 4.3845 3.5201 2.4362-0.7381 3.5138-2.8645 2.4752-5.2215-0.79694-1.8086-2.764-1.7428-4.1331-1.7308-1.4615 0.012739-4.0418-0.57208-5.0423-1.6863-1.876-1.601-2.3589-5.898-0.98399-7.8337 0.6443-1.7279 3.4297-3.4062 5.3345-3.3124 1.9049 0.093828 2.946-0.072582 3.7687-0.6878 1.8372-1.7005 1.9432-3.6915 0.21476-5.1653-0.85199-0.8034-2.0338-1.2457-3.1983-1.1862z" color="#000000" fill="none" opacity=".59431" stroke="url(#linearGradient4229)" stroke-width=".52891"/>
  </g>
 </g>
</svg>
