<?xml version="1.0" encoding="UTF-8"?>
<svg id="svg2" width="24" height="24" version="1.1" xmlns="http://www.w3.org/2000/svg" xmlns:cc="http://creativecommons.org/ns#" xmlns:dc="http://purl.org/dc/elements/1.1/" xmlns:rdf="http://www.w3.org/1999/02/22-rdf-syntax-ns#">
 <metadata id="metadata58">
  <rdf:RDF>
   <cc:Work rdf:about="">
    <dc:format>image/svg+xml</dc:format>
    <dc:type rdf:resource="http://purl.org/dc/dcmitype/StillImage"/>
   </cc:Work>
  </rdf:RDF>
 </metadata>
 <defs id="defs4">
  <linearGradient id="linearGradient3335" x1="11.375" x2="11.375" y1="22" y2="-9.8173" gradientUnits="userSpaceOnUse">
   <stop id="stop3330" offset="0"/>
   <stop id="stop3333" stop-opacity="0" offset="1"/>
  </linearGradient>
  <linearGradient id="linearGradient3181" x1="-3.0608" x2="-3.0608" y1="27.258" y2="7.2537" gradientTransform="translate(12.119 -7.2582)" gradientUnits="userSpaceOnUse">
   <stop id="stop3189" stop-color="#323232" offset="0"/>
   <stop id="stop3191" stop-color="#505050" offset="1"/>
  </linearGradient>
  <filter id="filter3194" x="-.18" y="-.18" width="1.36" height="1.36" color-interpolation-filters="sRGB">
   <feGaussianBlur id="feGaussianBlur3196" stdDeviation="1.2"/>
  </filter>
  <clipPath id="clipPath2849">
   <rect id="rect2851" x="1" y="1" width="20" height="20" rx="2" ry="2" fill="#fff" fill-rule="evenodd"/>
  </clipPath>
  <linearGradient id="linearGradient3845" x1="11" x2="21" y1="19.5" y2="19.5" gradientTransform="translate(1,-1)" gradientUnits="userSpaceOnUse" spreadMethod="reflect">
   <stop id="stop3833" stop-color="#fff" offset="0"/>
   <stop id="stop3821" stop-color="#fff" stop-opacity=".49804" offset=".75"/>
   <stop id="stop3835" stop-color="#fff" stop-opacity="0" offset="1"/>
  </linearGradient>
  <linearGradient id="linearGradient3961" x1="10" x2="10" y1="1" y2="16" gradientTransform="translate(1,-1)" gradientUnits="userSpaceOnUse">
   <stop id="stop3825" stop-color="#fff" offset="0"/>
   <stop id="stop3829" stop-color="#fff" stop-opacity="0" offset="1"/>
  </linearGradient>
 </defs>
 <g id="layer1" transform="translate(0,2)">
  <g id="g3337" transform="translate(1,-1)">
   <rect id="rect3371" x=".5" y=".5" width="21" height="21.5" rx="2.5" ry="2.5" fill="url(#linearGradient3335)" opacity=".3"/>
   <rect id="rect2553" x="1" y="2" width="20" height="20" rx="2.381" ry="2.3256" opacity=".5"/>
  </g>
  <rect id="rect3173" x="2" width="20" height="20" rx="2" ry="2" fill="url(#linearGradient3181)" fill-rule="evenodd"/>
  <path id="rect3050" d="m4 0c-1.108 0-2 0.892-2 2v16c0 1.108 0.892 2 2 2h16c1.108 0 2-0.892 2-2v-16c0-1.108-0.892-2-2-2h-16zm0 1.0312h16c0.5497 0 0.96875 0.41905 0.96875 0.96875v16c0 0.5497-0.41905 0.96875-0.96875 0.96875h-16c-0.5497 0-0.96875-0.41905-0.96875-0.96875v-16c0-0.5497 0.41905-0.96875 0.96875-0.96875z" fill="url(#linearGradient3961)" fill-rule="evenodd" opacity=".35"/>
  <path id="path3235" d="m4 20c-1.108 0-2-0.892-2-2v-1c0 1.108 0.892 2 2 2h16c1.108 0 2-0.892 2-2v1c0 1.108-0.892 2-2 2h-16z" fill="url(#linearGradient3845)" fill-rule="evenodd" opacity=".2"/>
 </g>
 <g id="layer2" transform="translate(0,2)">
  <rect id="rect2410" transform="translate(1,-1)" x="3" y="3" width="16" height="16" rx="2" ry="2" clip-path="url(#clipPath2849)" fill="#fff" filter="url(#filter3194)" opacity=".15"/>
 </g>
 <defs id="defs37">
  <linearGradient id="a" x1="8" x2="8" y1="1.9996" y2="14" gradientUnits="userSpaceOnUse">
   <stop id="stop32" stop-color="#ff9616" offset="0"/>
   <stop id="stop34" stop-color="#ff8c00" offset="1"/>
  </linearGradient>
 </defs>
 <path id="base" transform="translate(4,4)" d="m12.18 1.9997c-0.63344 2e-3 -1.3107 0.045003-1.895 0.045003-1.304 0-2.5833-0.046203-3.715 0.037502-1.7484 0.12928-3.0451 0.89296-3.9413 1.8576-0.91548 0.98547-1.6287 2.3809-1.6287 4.0928 0 1.7846 0.69259 3.1182 1.6287 4.0928 0.89061 0.9271 2.2091 1.7464 3.8663 1.8576 3.0564 0.20485 5.0907-1.5067 5.9875-3.6765 0.58232-1.409 1.2863-3.1029 1.895-4.5853 0.18392-0.44787 0.54553-1.0171 0.60625-1.5539 0.12096-1.0697-0.4512-1.6865-1.175-1.9714-0.4063-0.15993-0.99531-0.19834-1.6288-0.19626zm0.54125 0.68254c0.42863-0.018401 0.8768 0.27398 0.8225 0.84005-0.0617 0.6436-0.70476 1.0939-0.98499 1.5164h0.98499c0.0592 0.086905 0.0592 0.36814 0 0.45503-0.49452-0.048603-1.0464-0.040402-1.5912-0.038702-0.23196-0.85074 1.2052-1.4213 1.06-2.1214-0.0685-0.33018-0.53915-0.34089-0.45374 0.15126h-0.56876c-0.01-0.52781 0.35305-0.78629 0.73125-0.80255zm-5.69 0.50253c1.4594 5e-3 2.5132 0.583 3.2537 1.2476 0.92941 0.83402 1.7894 2.5331 1.4775 4.3965-0.2546 1.5212-1.1091 2.7305-2.5013 3.4865-1.5149 0.82277-3.4172 0.69981-4.775-0.11376-1.3103-0.78514-2.5436-2.307-2.35-4.7003 0.10297-1.2726 0.65625-2.1561 1.365-2.8802 0.66041-0.67472 1.5884-1.2632 2.88-1.4013 0.22538-0.024101 0.44152-0.035702 0.65001-0.035002zm-1.6738 1.2851v1.0238h0.87251c0.0836 0.29534 0.23697 0.5203 0.30249 0.8338-0.74767 1.2762-1.6044 2.6673-2.3488 3.9028-0.0963 0.15985-0.23938 0.35135-0.2275 0.53128h1.2875c0.65612-0.93562 1.2204-1.963 1.895-2.8802 0.37468 1.0655 0.82128 2.0587 1.175 3.1452 0.7174-0.17941 1.442-0.35117 2.0462-0.64379-0.17043-0.28438-0.19743-0.71289-0.37875-0.98631-0.28592 0.11829-0.58228 0.22728-0.91 0.30377-0.61252-1.7877-1.3574-3.4427-1.97-5.2303z" fill="url(#a)"/>
 <path id="path45" d="m16.18 6c-0.63344 2e-3 -1.3102 0.044922-1.8945 0.044922-1.304 0-2.5831-0.046596-3.7148 0.037109-1.7484 0.12928-3.0452 0.89278-3.9414 1.8574-0.91548 0.98547-1.6289 2.3818-1.6289 4.0937 0 1.7846 0.6928 3.1172 1.6289 4.0918 0.89061 0.9271 2.208 1.7462 3.8652 1.8574 3.0564 0.20485 5.0915-1.506 5.9883-3.6758 0.58232-1.409 1.2858-3.1035 1.8945-4.5859 0.18392-0.44787 0.5467-1.0159 0.60742-1.5527 0.12096-1.0697-0.45198-1.6878-1.1758-1.9727-0.4063-0.15993-0.99542-0.19739-1.6289-0.19531zm-0.25391 0.50586c-0.019042 0.016272-0.046186 0.0096325-0.064453 0.027344-0.23688 0.22968-0.37829 0.58091-0.37109 0.96094a0.50005 0.50005 0 0 0 0.5 0.49023h0.10547c-0.005002 0.0053913-0.006679 0.0082396-0.011719 0.013672-0.1612 0.17377-0.34285 0.36966-0.48242 0.62695-0.085944 0.15844-0.064298 0.38353-0.080078 0.5918-0.26987-0.45053-0.56905-0.85717-0.90234-1.1562-0.80874-0.72585-1.9953-1.3696-3.5859-1.375a0.50005 0.50005 0 0 1-0.001953 0 0.50005 0.50005 0 0 0-0.056641 0.0039062c-0.21019 0.0013506-0.4245 0.0094656-0.64648 0.033203-1.4157 0.15137-2.4611 0.81064-3.1836 1.5488-0.75998 0.77643-1.3928 1.7919-1.5059 3.1895-0.20873 2.5804 1.1538 4.3095 2.5898 5.1699 1.5154 0.90798 3.584 1.0396 5.2715 0.12305 1.5133-0.82176 2.4783-2.1835 2.7559-3.8418 0.1814-1.0838 0.003102-2.095-0.35156-2.959a0.50005 0.50005 0 0 0 0.050781 0.0019531c0.54876-0.0017123 1.086-0.0074162 1.5391 0.037109a0.50005 0.50005 0 0 0 0.24609-0.039062c-0.56648 1.3764-1.1917 2.8821-1.7207 4.1621-0.8303 2.0089-2.634 3.5606-5.4902 3.3691-1.5112-0.1014-2.7173-0.84964-3.5391-1.7051-0.86361-0.89912-1.4902-2.0909-1.4902-3.7461 0-1.573 0.65072-2.846 1.4941-3.7539 0.82207-0.88485 1.9912-1.5793 3.6133-1.6992 1.0906-0.080662 2.3619-0.035156 3.6777-0.035156 0.5267 0 1.0984-0.029114 1.6406-0.039062zm0.79492 0.17578c0.42863-0.018401 0.87657 0.27377 0.82227 0.83984-0.0617 0.6436-0.70414 1.0951-0.98438 1.5176h0.98438c0.0592 0.086905 0.0592 0.36819 0 0.45508-0.49452-0.048603-1.045-0.040762-1.5898-0.039062-0.23196-0.85074 1.2038-1.421 1.0586-2.1211-0.0685-0.33018-0.53854-0.34176-0.45312 0.15039h-0.56836c-0.01-0.52781 0.35227-0.78647 0.73047-0.80273zm1.1602 0.17188c0.15083 0.096606 0.32463 0.17619 0.41797 0.31445 0.15035 0.22273 0.23688 0.50663 0.1875 0.94336-0.029828 0.26369-0.24422 0.66807-0.42383 1.0527 0.004708-0.11145 0.031303-0.20547-0.10547-0.40625a0.50005 0.50005 0 0 0-0.37305-0.2168c0.20134-0.26075 0.41726-0.55581 0.45703-0.9707 0.025392-0.26471-0.04809-0.50366-0.16016-0.7168zm-6.8496 0.33203c1.4594 5e-3 2.5134 0.58149 3.2539 1.2461 0.92941 0.83402 1.7885 2.5331 1.4766 4.3965-0.2546 1.5212-1.1078 2.7303-2.5 3.4863-1.5149 0.82277-3.4176 0.70029-4.7754-0.11328-1.3103-0.78514-2.5432-2.3059-2.3496-4.6992 0.10297-1.2726 0.65648-2.1568 1.3652-2.8809 0.66041-0.67472 1.5873-1.2623 2.8789-1.4004 0.22538-0.024101 0.4419-0.035856 0.65039-0.035156zm-1.6738 1.2852v1.0234h0.87305c0.0836 0.29534 0.23721 0.52048 0.30273 0.83398-0.74767 1.2762-1.6052 2.6668-2.3496 3.9023-0.0963 0.15985-0.23844 0.35132-0.22656 0.53125h1.2871c0.65612-0.93562 1.2199-1.9637 1.8945-2.8809 0.37468 1.0655 0.82206 2.06 1.1758 3.1465 0.7174-0.17941 1.4407-0.35191 2.0449-0.64453-0.17043-0.28438-0.19759-0.71291-0.37891-0.98633-0.28592 0.11829-0.58244 0.2282-0.91016 0.30469-0.61252-1.7877-1.3561-3.4429-1.9688-5.2305h-1.7441zm0.5 0.5h0.89844c0.59581 1.68 1.2778 3.2447 1.8418 4.8906a0.50005 0.50005 0 0 0 0.58789 0.32617c0.18723-0.043699 0.33818-0.11021 0.50586-0.16797 5.78e-4 0.002004 0.001375 0.00189 0.001953 0.003907 0.003637 0.012679 0.013897 0.031812 0.017579 0.044921-0.33509 0.12549-0.69934 0.23854-1.0938 0.33984-0.32897-0.92761-0.69571-1.8058-1.0078-2.6934a0.50005 0.50005 0 0 0-0.87305-0.12891c-0.6496 0.88322-1.1823 1.8213-1.7617 2.6758h-0.22656c0.71131-1.1775 1.5067-2.4729 2.2148-3.6816a0.50005 0.50005 0 0 0 0.058593-0.35547c-0.087685-0.41956-0.25247-0.66202-0.31055-0.86719a0.50005 0.50005 0 0 0-0.48047-0.36328h-0.37305v-0.023438z" opacity=".1"/>
 <path id="path50" d="m16.139 7c-0.088584 0.12559-0.15234 0.27823-0.14844 0.48438h0.56836c-0.08541-0.49215 0.38462-0.48057 0.45312-0.15039 0.026996 0.13017-0.01076 0.25506-0.072266 0.37891 0.18005 0.037432 0.33611 0.13091 0.44922 0.27734 0.079244-0.14531 0.1381-0.29979 0.1543-0.46875 0.016339-0.17034-0.021598-0.30602-0.082031-0.42578-0.36474-0.076276-0.81087-0.097248-1.2812-0.095703-0.013706 4.33e-5 -0.027271-8.08e-5 -0.041016 0zm-5.1074 0.18555c-0.20849-7e-4 -0.42501 0.011055-0.65039 0.035156-1.2916 0.1381-2.2185 0.72567-2.8789 1.4004-0.70875 0.7241-1.2623 1.6083-1.3652 2.8809-0.027605 0.34125-0.020643 0.65863 0.0058593 0.96484 0.11076-1.2524 0.65765-2.1288 1.3594-2.8457 0.66041-0.67472 1.5873-1.2623 2.8789-1.4004 0.22538-0.024101 0.4419-0.035856 0.65039-0.035156 1.4594 5e-3 2.5134 0.58149 3.2539 1.2461 0.69944 0.62765 1.3569 1.7459 1.5078 3.0547 0.16033-1.7263-0.63599-3.2723-1.5078-4.0547-0.7405-0.6646-1.7945-1.2411-3.2539-1.2461zm5.6973 0.91602c-0.11555 0.017569-0.21263 0.13674-0.16992 0.38281h-0.23828c-0.25761 0.29381-0.46655 0.60628-0.36719 0.9707 0.1313-4.097e-4 0.26136 2.788e-4 0.39258 0 0.12629-0.14172 0.24233-0.27914 0.35938-0.41602h-0.14648c0.10858-0.16371 0.28271-0.34175 0.44531-0.52344 0.009534-0.05992 0.020599-0.11999 0.007813-0.18164-0.03425-0.16509-0.16766-0.24999-0.2832-0.23242zm2.2051 0.28516c-0.11512 0.46974-0.39746 0.94636-0.55664 1.334-0.6087 1.4824-1.3122 3.1769-1.8945 4.5859-0.8968 2.1698-2.9319 3.8806-5.9883 3.6758-1.6572-0.1112-2.9746-0.93032-3.8652-1.8574-0.84165-0.87626-1.482-2.0448-1.6035-3.5684-0.01244 0.15686-0.025391 0.3139-0.025391 0.47656 0 1.7846 0.6928 3.1172 1.6289 4.0918 0.89061 0.9271 2.208 1.7462 3.8652 1.8574 3.0564 0.20485 5.0915-1.506 5.9883-3.6758 0.58232-1.409 1.2858-3.1035 1.8945-4.5859 0.18392-0.44787 0.5467-1.0159 0.60742-1.5527 0.0333-0.29448 0.009681-0.55289-0.050781-0.78125zm-1.5781 0.65234c-0.091538 0.15493-0.19344 0.29438-0.3125 0.42969 0.16921 0.0059823 0.34055 0.0097198 0.5 0.025391 0.0592-0.08689 0.0592-0.36817 0-0.45508h-0.1875zm-7.998 0.45508v1h0.87305c0.020933 0.073953 0.05287 0.13746 0.080078 0.20508 0.072813-0.12309 0.15162-0.24985 0.22266-0.37109-0.06552-0.3135-0.21913-0.53864-0.30273-0.83398h-0.87305zm1.7813 2.3867c-0.6746 0.9172-1.2384 1.9452-1.8945 2.8809h-0.77734c-0.092362 0.15257-0.1937 0.32021-0.2832 0.46875-0.0963 0.15985-0.23844 0.35132-0.22656 0.53125h1.2871c0.65612-0.93562 1.2199-1.9637 1.8945-2.8809 0.37468 1.0655 0.82206 2.06 1.1758 3.1465 0.7174-0.17941 1.4407-0.35191 2.0449-0.64453-0.15044-0.25102-0.19446-0.60908-0.32617-0.87891-0.53418 0.21342-1.1206 0.37386-1.7188 0.52344-0.35372-1.0865-0.8011-2.081-1.1758-3.1465z" fill="#fff" opacity=".1"/>
</svg>
