<?xml version="1.0" encoding="UTF-8"?>
<svg id="svg2" width="24" height="24" version="1.1" xmlns="http://www.w3.org/2000/svg" xmlns:cc="http://creativecommons.org/ns#" xmlns:dc="http://purl.org/dc/elements/1.1/" xmlns:rdf="http://www.w3.org/1999/02/22-rdf-syntax-ns#">
 <metadata id="metadata49">
  <rdf:RDF>
   <cc:Work rdf:about="">
    <dc:format>image/svg+xml</dc:format>
    <dc:type rdf:resource="http://purl.org/dc/dcmitype/StillImage"/>
   </cc:Work>
  </rdf:RDF>
 </metadata>
 <defs id="defs4">
  <linearGradient id="linearGradient3335" x1="11.375" x2="11.375" y1="22" y2="-9.8173" gradientUnits="userSpaceOnUse">
   <stop id="stop3330" offset="0"/>
   <stop id="stop3333" stop-opacity="0" offset="1"/>
  </linearGradient>
  <linearGradient id="linearGradient3181" x1="-3.0608" x2="-3.0608" y1="27.258" y2="7.2537" gradientTransform="translate(12.119 -7.2582)" gradientUnits="userSpaceOnUse">
   <stop id="stop3189" stop-color="#0065c8" offset="0"/>
   <stop id="stop3191" stop-color="#73baff" offset="1"/>
  </linearGradient>
  <filter id="filter3194" x="-.18" y="-.18" width="1.36" height="1.36" color-interpolation-filters="sRGB">
   <feGaussianBlur id="feGaussianBlur3196" stdDeviation="1.2"/>
  </filter>
  <clipPath id="clipPath2849">
   <rect id="rect2851" x="1" y="1" width="20" height="20" rx="2" ry="2" fill="#fff" fill-rule="evenodd"/>
  </clipPath>
  <linearGradient id="linearGradient3845" x1="11" x2="21" y1="19.5" y2="19.5" gradientTransform="translate(1,-1)" gradientUnits="userSpaceOnUse" spreadMethod="reflect">
   <stop id="stop3833" stop-color="#fff" offset="0"/>
   <stop id="stop3821" stop-color="#fff" stop-opacity=".49804" offset=".75"/>
   <stop id="stop3835" stop-color="#fff" stop-opacity="0" offset="1"/>
  </linearGradient>
  <linearGradient id="linearGradient3961" x1="10" x2="10" y1="1" y2="16" gradientTransform="translate(1,-1)" gradientUnits="userSpaceOnUse">
   <stop id="stop3825" stop-color="#fff" offset="0"/>
   <stop id="stop3829" stop-color="#fff" stop-opacity="0" offset="1"/>
  </linearGradient>
 </defs>
 <g id="layer1" transform="translate(0,2)">
  <g id="g3337" transform="translate(1,-1)">
   <rect id="rect3371" x=".5" y=".5" width="21" height="21.5" rx="2.5" ry="2.5" fill="url(#linearGradient3335)" opacity=".3"/>
   <rect id="rect2553" x="1" y="2" width="20" height="20" rx="2.381" ry="2.3256" opacity=".5"/>
  </g>
  <rect id="rect3173" x="2" width="20" height="20" rx="2" ry="2" fill="url(#linearGradient3181)" fill-rule="evenodd"/>
  <path id="rect3050" d="m4 0c-1.108 0-2 0.892-2 2v16c0 1.108 0.892 2 2 2h16c1.108 0 2-0.892 2-2v-16c0-1.108-0.892-2-2-2h-16zm0 1.0312h16c0.5497 0 0.96875 0.41905 0.96875 0.96875v16c0 0.5497-0.41905 0.96875-0.96875 0.96875h-16c-0.5497 0-0.96875-0.41905-0.96875-0.96875v-16c0-0.5497 0.41905-0.96875 0.96875-0.96875z" fill="url(#linearGradient3961)" fill-rule="evenodd" opacity=".35"/>
  <path id="path3235" d="m4 20c-1.108 0-2-0.892-2-2v-1c0 1.108 0.892 2 2 2h16c1.108 0 2-0.892 2-2v1c0 1.108-0.892 2-2 2h-16z" fill="url(#linearGradient3845)" fill-rule="evenodd" opacity=".2"/>
 </g>
 <g id="layer2" transform="translate(0,2)">
  <rect id="rect2410" transform="translate(1,-1)" x="3" y="3" width="16" height="16" rx="2" ry="2" clip-path="url(#clipPath2849)" fill="#fff" filter="url(#filter3194)" opacity=".15"/>
 </g>
 <g id="main">
  <path id="path39" d="m16.5 6.1719c-4.0739 0-7.3887 3.2332-7.3887 7.207 0 0.17579 0.011718 0.35659 0.025391 0.53711 0.24648-3.758 3.4495-6.7441 7.3633-6.7441 0.16233 0 0.33064 0.0068801 0.5 0.017578v-1c-0.16936-0.010698-0.33767-0.017578-0.5-0.017578zm0 2.3965c-2.7192 0-4.9316 2.1581-4.9316 4.8105 0 0.15418 0.017595 0.30971 0.033203 0.46484 0.27446-2.4008 2.3652-4.2754 4.8984-4.2754 0.16562 0 0.33397 0.0088896 0.5 0.025391v-1c-0.16603-0.016501-0.33438-0.025391-0.5-0.025391zm0 2.3379c-1.3986 0-2.5371 1.1083-2.5371 2.4727 0 0.15576 0.032174 0.30946 0.0625 0.46289 0.2527-1.1061 1.2654-1.9355 2.4746-1.9355 0.16754 0 0.33588 0.014875 0.5 0.046875v-1c-0.16412-0.032-0.33246-0.046875-0.5-0.046875zm-1.3477 2.5938c-0.022946 0.039167-0.056148 0.070686-0.074219 0.11328-0.05132 0.12078-0.078125 0.2532-0.078125 0.39258 0 0.13564 0.026825 0.26393 0.078125 0.38281 0.05132 0.11914 0.12237 0.22656 0.21289 0.31641 0.09057 0.08997 0.19719 0.16163 0.31445 0.21484 0.11684 0.05309 0.24416 0.080078 0.37891 0.080078 0.1385 0 0.27012-0.026988 0.39258-0.080078 0.12248-0.05319 0.23172-0.12477 0.32422-0.21484 0.09222-0.08986 0.16555-0.19722 0.21875-0.31641 0.05306-0.11889 0.080078-0.24736 0.080078-0.38281 0-0.13926-0.026908-0.27179-0.080078-0.39258-0.018863-0.042919-0.054251-0.073851-0.078125-0.11328-0.043492 0.071183-0.081011 0.14699-0.14062 0.20508-0.0925 0.09007-0.20174 0.16165-0.32422 0.21484-0.12246 0.05309-0.25408 0.080078-0.39258 0.080078-0.13475 0-0.26207-0.026988-0.37891-0.080078-0.11726-0.05321-0.22388-0.12487-0.31445-0.21484-0.058762-0.058326-0.096391-0.13354-0.13867-0.20508zm-4.7598 0.36133c-0.015101 0.17082-0.027344 0.343-0.027344 0.51758 0 0.21215 0.011657 0.42837 0.035157 0.64258h1.2129c-0.0292-0.21329-0.044922-0.42947-0.044922-0.64258 0-0.12085 0.008555-0.23878 0.017579-0.35742h-1.1855c-0.005856-0.053372-0.003425-0.10663-0.007813-0.16016zm2.5 0.048828c-0.021115 0.15479-0.048828 0.30842-0.048828 0.46875 0 0.21233 0.018694 0.42858 0.058594 0.64258h1.1484c-0.0578-0.21008-0.08789-0.4263-0.08789-0.64258 0-0.12242 0.019413-0.23974 0.037109-0.35742h-1.0977c-0.006911-0.037064-0.004115-0.07416-0.009766-0.11133zm-4.9629 0.023438c-0.0079607 0.1484-0.021484 0.29559-0.021484 0.44531 0 0.21258 0.0087897 0.42879 0.025391 0.64258h1.207c-0.0196-0.21607-0.029297-0.43229-0.029297-0.64258 0-0.12057 0.0135-0.23829 0.019531-0.35742h-1.1973c-0.0022711-0.029247-0.0019301-0.058568-0.0039063-0.08789zm7.0703 4.709v1c0 0.21029 0.16085 0.35742 0.39258 0.35742h1.2148c0.23175 0 0.39258-0.14714 0.39258-0.35742v-1c0 0.21028-0.16083 0.35742-0.39258 0.35742h-1.2148c-0.23173 0-0.39258-0.14713-0.39258-0.35742z" opacity=".3"/>
  <path id="base" transform="translate(4,4)" d="m12.5 1c-2.295 0-4.4515 0.8723-6.0742 2.4551-1.6226 1.5826-2.5176 3.6857-2.5176 5.9238 0 0.21258 0.0087907 0.42879 0.025391 0.64258h1.207c-0.0196-0.21607-0.029297-0.43229-0.029297-0.64258 0-3.9738 3.3148-7.207 7.3887-7.207 0.16233 0 0.33064 0.0068781 0.5 0.017578v-1.1758c-0.17404-0.01-0.33799-0.013672-0.5-0.013672zm0 2.3965c-3.3825 0-6.1348 2.6835-6.1348 5.9824 0 0.21215 0.011656 0.42837 0.035156 0.64258h1.2129c-0.0292-0.21329-0.044922-0.42947-0.044922-0.64258 0-2.6524 2.2124-4.8105 4.9316-4.8105 0.16562 0 0.33397 0.0088906 0.5 0.025391v-1.1777c-0.16819-0.0132-0.33653-0.019531-0.5-0.019531zm0 2.416c-2.0164 0-3.6562 1.5999-3.6562 3.5664 0 0.21233 0.018694 0.42858 0.058594 0.64258h1.1484c-0.0578-0.21008-0.08789-0.4263-0.08789-0.64258 0-1.3644 1.1385-2.4727 2.5371-2.4727 0.16754 0 0.33588 0.014875 0.5 0.046875v-1.1055c-0.16815-0.0225-0.33649-0.035156-0.5-0.035156zm-0.51562 2.1875c-0.13476 0-0.26185 0.026853-0.37891 0.078125-0.11716 0.051486-0.22397 0.12317-0.31445 0.21484-0.09057 0.091779-0.16157 0.19934-0.21289 0.32031-0.05132 0.12078-0.078125 0.2532-0.078125 0.39258 0 0.13564 0.026825 0.26393 0.078125 0.38281 0.05132 0.11914 0.12237 0.22656 0.21289 0.31641 0.09057 0.089967 0.19719 0.16163 0.31445 0.21484 0.11684 0.053085 0.24416 0.080078 0.37891 0.080078 0.1385 0 0.27012-0.026994 0.39258-0.080078 0.12248-0.053191 0.23172-0.12477 0.32422-0.21484 0.09222-0.08986 0.16555-0.19722 0.21875-0.31641 0.05306-0.11889 0.080078-0.24736 0.080078-0.38281 0-0.13926-0.026908-0.27179-0.080078-0.39258-0.053169-0.12098-0.12643-0.22849-0.21875-0.32031-0.092426-0.091672-0.20188-0.16342-0.32422-0.21484-0.12257-0.051379-0.2541-0.078125-0.39258-0.078125zm-0.5918 3c-0.23174 0-0.39258 0.14714-0.39258 0.35742v3.2852c0 0.21029 0.16085 0.35742 0.39258 0.35742h1.2148c0.23175 0 0.39258-0.14714 0.39258-0.35742v-3.2852c0-0.21029-0.16083-0.35742-0.39258-0.35742h-1.2148z" fill="#fff"/>
 </g>
</svg>
