<?xml version="1.0" encoding="UTF-8"?>
<!-- Created with Inkscape (http://www.inkscape.org/) -->
<svg id="svg2" width="24" height="24" version="1.1" xmlns="http://www.w3.org/2000/svg" xmlns:cc="http://creativecommons.org/ns#" xmlns:dc="http://purl.org/dc/elements/1.1/" xmlns:rdf="http://www.w3.org/1999/02/22-rdf-syntax-ns#" xmlns:xlink="http://www.w3.org/1999/xlink">
 <defs id="defs4">
  <linearGradient id="linearGradient3335" x1="11.375" x2="11.375" y1="22" y2="-9.8173" gradientUnits="userSpaceOnUse">
   <stop id="stop3330" offset="0"/>
   <stop id="stop3333" stop-opacity="0" offset="1"/>
  </linearGradient>
  <linearGradient id="linearGradient3181" x1="-3.0608" x2="-3.0608" y1="27.258" y2="7.2537" gradientTransform="translate(12.119 -7.2582)" gradientUnits="userSpaceOnUse">
   <stop id="stop3702" stop-color="#f57900" offset="0"/>
   <stop id="stop3704" stop-color="#fab234" offset="1"/>
  </linearGradient>
  <filter id="filter3194" x="-.18" y="-.18" width="1.36" height="1.36" color-interpolation-filters="sRGB">
   <feGaussianBlur id="feGaussianBlur3196" stdDeviation="1.2"/>
  </filter>
  <clipPath id="clipPath2849">
   <rect id="rect2851" x="1" y="1" width="20" height="20" rx="2" ry="2" fill="#fff" fill-rule="evenodd"/>
  </clipPath>
  <linearGradient id="linearGradient3845" x1="11" x2="21" y1="19.5" y2="19.5" gradientTransform="translate(1,-1)" gradientUnits="userSpaceOnUse" spreadMethod="reflect">
   <stop id="stop3833" stop-color="#fff" offset="0"/>
   <stop id="stop3821" stop-color="#fff" stop-opacity=".49804" offset=".75"/>
   <stop id="stop3835" stop-color="#fff" stop-opacity="0" offset="1"/>
  </linearGradient>
  <linearGradient id="linearGradient3961" x1="10" x2="10" y1="1" y2="16" gradientTransform="translate(1,-1)" gradientUnits="userSpaceOnUse">
   <stop id="stop3825" stop-color="#fff" offset="0"/>
   <stop id="stop3829" stop-color="#fff" stop-opacity="0" offset="1"/>
  </linearGradient>
  <radialGradient id="radialGradient3999" cx="48" cy="48" r="42" gradientTransform="matrix(.2381 0 0 .2381 .57143 -1.4286)" gradientUnits="userSpaceOnUse">
   <stop id="stop3910" stop-color="#d45500" stop-opacity=".34351" offset="0"/>
   <stop id="stop3912" stop-color="#d45500" offset="1"/>
  </radialGradient>
  <linearGradient id="linearGradient3059" x1="96" x2="16" y1="16" y2="64" gradientTransform="matrix(.2381 0 0 .2381 .57143 -1.4286)" gradientUnits="userSpaceOnUse">
   <stop id="stop3699" stop-color="#fff" offset="0"/>
   <stop id="stop3701" stop-color="#fff" stop-opacity="0" offset="1"/>
  </linearGradient>
 </defs>
 <metadata id="metadata7">
  <rdf:RDF>
   <cc:Work rdf:about="">
    <dc:format>image/svg+xml</dc:format>
    <dc:type rdf:resource="http://purl.org/dc/dcmitype/StillImage"/>
    <dc:title/>
   </cc:Work>
  </rdf:RDF>
 </metadata>
 <g id="layer1" transform="translate(0,2)">
  <g id="g3337" transform="translate(1,-1)">
   <rect id="rect3371" x=".5" y=".5" width="21" height="21.5" rx="2.5" ry="2.5" fill="url(#linearGradient3335)" opacity=".3"/>
   <rect id="rect2553" x="1" y="2" width="20" height="20" rx="2.381" ry="2.3256" opacity=".5"/>
  </g>
  <rect id="rect3173" x="2" width="20" height="20" rx="2" ry="2" fill="url(#linearGradient3181)" fill-rule="evenodd"/>
  <path id="rect3690" d="m4 0c-1.108 0-2 0.892-2 2v10.594c4.1925-2.7433 10.537-4.5 17.625-4.5 0.80428 0 1.5922 0.0186 2.375 0.0625v-6.1562c0-1.108-0.892-2-2-2h-16z" fill="url(#linearGradient3059)" opacity=".4"/>
  <path id="path4141" d="m2 16.458 9.6801-6.1384-6.2277 9.6801h4.4048l2.1429-9.5759 2.0833 9.5759h4.375l-6.1384-9.6801 9.6801 6.2277v-4.4048l-9.5759-2.1429 9.5759-2.0833v-4.375l-9.6801 6.1384 6.2277-9.6801h-4.4048l-2.1429 9.5759-2.0833-9.5759h-4.375l6.1384 9.6801-9.6801-6.2277v4.4048l9.5759 2.1429-9.5759 2.0833v4.375z" fill="url(#radialGradient3999)" opacity=".4"/>
  <path id="path3018" d="m-26-1.8e-7c-1.108 0-2 0.892-2 2v1c0-1.108 0.892-2 2-2h16c1.108 0 2 0.892 2 2v-1c0-1.108-0.892-2-2-2h-16z" fill="#fff" fill-rule="evenodd" opacity=".25"/>
  <path id="path3020" d="m-26 20c-1.108 0-2-0.892-2-2v-1c0 1.108 0.892 2 2 2h16c1.108 0 2-0.892 2-2v1c0 1.108-0.892 2-2 2h-16z" fill-rule="evenodd" opacity=".15"/>
  <path id="rect3050" d="m4 0c-1.108 0-2 0.892-2 2v16c0 1.108 0.892 2 2 2h16c1.108 0 2-0.892 2-2v-16c0-1.108-0.892-2-2-2h-16zm0 1.0312h16c0.5497 0 0.96875 0.41905 0.96875 0.96875v16c0 0.5497-0.41905 0.96875-0.96875 0.96875h-16c-0.5497 0-0.96875-0.41905-0.96875-0.96875v-16c0-0.5497 0.41905-0.96875 0.96875-0.96875z" fill="url(#linearGradient3961)" fill-rule="evenodd" opacity=".35"/>
  <path id="path3235" d="m4 20c-1.108 0-2-0.892-2-2v-1c0 1.108 0.892 2 2 2h16c1.108 0 2-0.892 2-2v1c0 1.108-0.892 2-2 2h-16z" fill="url(#linearGradient3845)" fill-rule="evenodd" opacity=".2"/>
 </g>
 <g id="layer2" transform="translate(0,2)">
  <rect id="rect2410" transform="translate(1,-1)" x="3" y="3" width="16" height="16" rx="2" ry="2" clip-path="url(#clipPath2849)" fill="#fff" filter="url(#filter3194)" opacity=".05"/>
 </g>
 <g id="layer3" transform="translate(0,2)">
  <path id="path3883" d="m18 2.4375c0.0025-1.64e-4 -0.06503 0.031549-0.0625 0.03125a0.70301 0.70301 0 0 0-0.125 0.03125 0.70301 0.70301 0 0 0-0.0625 0c0.0028-0.00117-0.06517 0.032588-0.0625 0.03125l-2.9688 0.65625c0.0039-8.622e-4 -0.09753 0.032429-0.09375 0.03125 0.0038-0.00118-0.09742 0.032738-0.09375 0.03125 0.0037-0.00149-0.09729 0.033037-0.09375 0.03125 0.0035-0.00179-0.09713 0.064574-0.09375 0.0625 0.0034-0.00207-0.09694 0.064846-0.09375 0.0625 0.0032-0.00235-0.09674 0.065102-0.09375 0.0625 3e-3 -0.0026-0.06526 0.065341-0.0625 0.0625 0.0028-0.00284-0.06502 0.09681-0.0625 0.09375 0.0025-0.00306-0.06476 0.065758-0.0625 0.0625 0.0023-0.00326-0.06448 0.097183-0.0625 0.09375 2e-3 -0.00343-0.06419 0.097335-0.0625 0.09375 0.0017-0.00359-0.03264 0.097463-0.03125 0.09375 0.0014-0.00371-0.03233 0.12881-0.03125 0.125 0.0011-0.00381-0.03201 0.097641-0.03125 0.09375 7.56e-4 -0.00389-4.32e-4 0.09769 0 0.09375s-1.04e-4 0.097712 0 0.09375a0.70301 0.70301 0 0 0 0 0.03125v9.7812c-1e-6 0.32312-0.0474 0.39132-0.0625 0.4375-0.22966 0-0.43923-0.03154-0.4375-0.03125a0.70301 0.70301 0 0 0-0.03125 0c-0.05091-0.0078-0.15146-0.04165-0.3125-0.09375 9.95e-4 3.75e-4 -0.01809 0.0045-0.03125 0-0.01974-0.0068-0.03277-0.03173-0.03125-0.03125 0.0025 7.98e-4 -0.06508-6.56e-4 -0.0625 0 0.0026 6.56e-4 -0.09636-0.03176-0.09375-0.03125 0.0026 5.12e-4 -0.06513-3.66e-4 -0.0625 0 0.0026 3.66e-4 -0.06515-0.03147-0.0625-0.03125 0.0026 2.2e-4 -0.06516-7.2e-5 -0.0625 0 0.0027 7.2e-5 -0.06516 7.5e-5 -0.0625 0 0.0027-7.5e-5 -0.0964 2.23e-4 -0.09375 0 0.0026-2.23e-4 -0.06513 0.03162-0.0625 0.03125 0.0026-3.69e-4 -0.06511 5.15e-4 -0.0625 0 0.0026-5.15e-4 -0.06507 0.03191-0.0625 0.03125 0.0026-6.59e-4 -0.06503 8e-4 -0.0625 0 0.0025-8e-4 -0.09624 0.03219-0.09375 0.03125 0.0025-9.4e-4 -0.06493 0.03233-0.0625 0.03125 0.0024-0.0011-0.06487 0.03246-0.0625 0.03125 0.0024-0.0012-0.0648 0.03259-0.0625 0.03125 0.0023-0.0013-0.06472 0.03271-0.0625 0.03125 0.0022-0.0015-0.03338 0.03284-0.03125 0.03125 0.0021-0.0016-0.06454 0.0642-0.0625 0.0625 2e-3 -0.0017-0.06444 0.03306-0.0625 0.03125 0.0019-0.0018-0.03309 0.06442-0.03125 0.0625 0.0018-0.0019-0.06423 0.03327-0.0625 0.03125 0.0017-2e-3 -0.03287 0.06461-0.03125 0.0625 0.0016-0.0021-0.064 0.0647-0.0625 0.0625s-0.03262 0.06477-0.03125 0.0625c0.0014-0.0023-0.0325 0.06485-0.03125 0.0625 0.0012-0.0023-0.03236 0.06491-0.03125 0.0625 0.0011-0.0024-0.03223 0.06497-0.03125 0.0625 9.77e-4 -0.0025-0.03209 0.06502-0.03125 0.0625 8.38e-4 -0.0025-6.97e-4 0.06506 0 0.0625 6.97e-4 -0.0026-0.0318 0.0651-0.03125 0.0625 3.69e-4 -0.0017 0.0039 0.0415 0 0.0625-0.0019 0.0105-1.36e-4 0.03213 0 0.03125l-0.40625 2.5c3.57e-4 -0.0021-2.64e-4 0.06461 0 0.0625 2.64e-4 -0.0021-0.03142 0.06461-0.03125 0.0625 1.71e-4 -0.0021-7.7e-5 0.06462 0 0.0625 7.7e-5 -0.0021 1.7e-5 0.03337 0 0.03125-1.7e-5 -0.0021 1.12e-4 0.06462 0 0.0625-1.12e-4 -0.0021 2.05e-4 0.06461 0 0.0625-2.05e-4 -0.0021 0.03155 0.0646 0.03125 0.0625-2.99e-4 -0.0021 3.92e-4 0.03334 0 0.03125-3.92e-4 -0.0021 4.84e-4 0.06457 0 0.0625-4.84e-4 -0.0021 0.03182 0.06454 0.03125 0.0625-5.75e-4 -2e-3 6.65e-4 0.06452 0 0.0625-6.65e-4 -2e-3 0.032 0.03323 0.03125 0.03125-7.54e-4 -2e-3 0.03209 0.06445 0.03125 0.0625-8.41e-4 -0.0019 9.26e-4 0.06441 0 0.0625-9.26e-4 -0.0019 0.03226 0.03312 0.03125 0.03125-1e-3 -0.0019 0.03234 0.06432 0.03125 0.0625-0.0011-0.0018 0.03242 0.03302 0.03125 0.03125-0.0012-0.0018 0.0325 0.06422 0.03125 0.0625-0.0012-0.0017 0.03257 0.03291 0.03125 0.03125-0.0013-0.0017 0.03265 0.0641 0.03125 0.0625s0.03271 0.03279 0.03125 0.03125c-0.0015-0.0015 0.06403 0.03272 0.0625 0.03125-0.0015-0.0015 0.03285 0.03265 0.03125 0.03125s0.03291 0.06383 0.03125 0.0625c-0.0017-0.0013 0.06421 0.0325 0.0625 0.03125-0.0017-0.0013 0.03302 0.03242 0.03125 0.03125-0.0018-0.0012 0.06432 0.03235 0.0625 0.03125-0.0018-0.0011 0.03311 1e-3 0.03125 0-0.0019-1e-3 0.06441 0.03218 0.0625 0.03125-0.0019-9.3e-4 0.06445 0.0321 0.0625 0.03125-0.0019-8.45e-4 0.03323 0.03201 0.03125 0.03125-2e-3 -7.58e-4 0.06451 6.69e-4 0.0625 0 0.43293 0.1443 0.88644 0.23225 1.3438 0.28125 0.3983 0.04426 0.6948 0.06249 0.96875 0.0625 1.5466-5e-6 2.9671-0.393 3.9688-1.375 1.0285-1.0084 1.4062-2.4783 1.4062-4.125v-10.531c-3.2e-5 0.00254-1.03e-4 -0.065042 0-0.0625 1.03e-4 0.00254-2.38e-4 -0.065033 0-0.0625 2.38e-4 0.00253-3.72e-4 -0.065016 0-0.0625 3.72e-4 0.00252-5.06e-4 -0.064993 0-0.0625 5.06e-4 0.00249-0.03189-0.064963-0.03125-0.0625 6.37e-4 0.00246-7.67e-4 -0.064925 0-0.0625 7.67e-4 0.00243-0.03214-0.064881-0.03125-0.0625 8.95e-4 0.00238-0.03227-0.06483-0.03125-0.0625 1e-3 0.00233-0.03239-0.064773-0.03125-0.0625 0.0011 0.00227-0.03251-0.064709-0.03125-0.0625 0.0013 0.00221-0.03263-0.064639-0.03125-0.0625 0.0014 0.00214-0.03274-0.064562-0.03125-0.0625 0.0015 0.00206-0.03285-0.06448-0.03125-0.0625s-0.0642-0.033143-0.0625-0.03125c0.0017 0.00189-0.03305-0.0643-0.03125-0.0625s-0.06439-0.032952-0.0625-0.03125c0.0019 0.0017-0.06448-0.064099-0.0625-0.0625 2e-3 0.0016-0.03331-0.032741-0.03125-0.03125 0.0021 0.00149-0.06464-0.03263-0.0625-0.03125 0.0021 0.00138-0.06471-0.032514-0.0625-0.03125 0.0022 0.00126-0.06477-0.032395-0.0625-0.03125 0.0023 0.00115-0.06483-0.032273-0.0625-0.03125 0.0023 0.00102-0.06488-0.032148-0.0625-0.03125 0.0024 8.978e-4 -0.06492-0.03202-0.0625-0.03125 0.0024 7.701e-4 -0.06496-6.402e-4 -0.0625 0 0.0025 6.402e-4 -0.06499-0.031759-0.0625-0.03125 0.0025 5.085e-4 -0.06502-3.754e-4 -0.0625 0 0.0025 3.754e-4 -0.06503-2.412e-4 -0.0625 0 0.0025 2.412e-4 -0.06504-0.031356-0.0625-0.03125 0.0025 1.063e-4 -0.06504 2.89e-5 -0.0625 0 0.0025-2.89e-5 -0.09629 1.64e-4 -0.09375 0z" fill="#2b1100" opacity=".05"/>
  <path id="path3879" d="m18.031 3.1562a0.55937 0.55937 0 0 0-0.0625 0.03125l-3.0938 0.6875a0.55937 0.55937 0 0 0-0.4375 0.53125v9.7812c-2e-6 0.49574-0.08324 0.78111-0.1875 0.9375-0.06883 0.10325-0.18998 0.1875-0.5625 0.1875-0.25834 0-0.46985-0.01581-0.5625-0.03125-0.11545-0.01776-0.25919-0.05515-0.46875-0.125a0.55937 0.55937 0 0 0-0.75 0.4375l-0.40625 2.5312a0.55937 0.55937 0 0 0 0.375 0.625c0.37822 0.12607 0.7714 0.20542 1.1875 0.25 0.3837 0.04263 0.67203 0.06249 0.90625 0.0625 1.4253-5e-6 2.6338-0.36896 3.4688-1.1875 0.84814-0.83152 1.2187-2.0916 1.2188-3.625v-10.531a0.55937 0.55937 0 0 0-0.625-0.5625z" fill="#2b1100" opacity=".15"/>
  <path id="path3875" d="m13.981 18.5c-0.19404-4e-6 -0.47816-0.02079-0.85238-0.06237-0.38807-0.04158-0.74843-0.11781-1.0811-0.22869l0.41579-2.5155c0.2079 0.0693 0.40193 0.11781 0.58211 0.14553 0.16632 0.02772 0.38114 0.04158 0.64448 0.04158 0.48509-1e-6 0.82466-0.14553 1.0187-0.43658 0.19404-0.29106 0.29105-0.71378 0.29106-1.2682v-9.7635l3.0977-0.69371v10.54c-5e-6 1.4414-0.35343 2.5086-1.0603 3.2016-0.70685 0.69299-1.7255 1.0395-3.0561 1.0395" fill="#2b1100" opacity=".3"/>
  <path id="path3884" d="m13.981 17.924c-0.19404-4e-6 -0.47816-0.02079-0.85238-0.06237-0.38807-0.04158-0.74843-0.11781-1.0811-0.22869l0.41579-2.5155c0.2079 0.0693 0.40193 0.11781 0.58211 0.14553 0.16632 0.02772 0.38114 0.04158 0.64448 0.04158 0.48509-1e-6 0.82466-0.14553 1.0187-0.43658 0.19404-0.29106 0.29105-0.71378 0.29106-1.2682v-9.7635l3.0977-0.69371v10.54c-5e-6 1.4414-0.35343 2.5086-1.0603 3.2016-0.70685 0.69299-1.7255 1.0395-3.0561 1.0395" fill="#fff"/>
 </g>
</svg>
