<?xml version="1.0" encoding="UTF-8"?>
<!-- Created with Inkscape (http://www.inkscape.org/) -->
<svg id="svg2" width="22" height="22" version="1.1" xmlns="http://www.w3.org/2000/svg" xmlns:cc="http://creativecommons.org/ns#" xmlns:dc="http://purl.org/dc/elements/1.1/" xmlns:rdf="http://www.w3.org/1999/02/22-rdf-syntax-ns#" xmlns:xlink="http://www.w3.org/1999/xlink">
 <defs id="defs4">
  <linearGradient id="linearGradient3255" x1="55.53" x2="55.53" y1="-20.94" y2="55.14" gradientTransform="matrix(.16542 0 0 .16542 .45921 .41298)" gradientUnits="userSpaceOnUse">
   <stop id="stop3251" stop-color="#fff" offset="0"/>
   <stop id="stop3253" stop-color="#fff" stop-opacity="0" offset="1"/>
  </linearGradient>
  <linearGradient id="linearGradient3181" x1="-3.0608" x2="-3.0608" y1="27.258" y2="7.2537" gradientTransform="translate(11.119 -6.2582)" gradientUnits="userSpaceOnUse">
   <stop id="stop3189" stop-color="#892a77" offset="0"/>
   <stop id="stop3191" stop-color="#c16bae" offset="1"/>
  </linearGradient>
  <filter id="filter8716" x="-.26984" y="-.54066" width="1.5397" height="2.0813">
   <feGaussianBlur id="feGaussianBlur8718" stdDeviation="2.0210388"/>
  </filter>
  <linearGradient id="linearGradient4025" x1="11.375" x2="11.375" y1="22" y2="-9.8173" gradientUnits="userSpaceOnUse">
   <stop id="stop3330" offset="0"/>
   <stop id="stop3333" stop-opacity="0" offset="1"/>
  </linearGradient>
  <filter id="filter4059">
   <feGaussianBlur id="feGaussianBlur4061" stdDeviation="0.19"/>
  </filter>
  <linearGradient id="linearGradient5235" x1=".88063" x2="9.8086" y1="23.301" y2="23.301" gradientTransform="translate(11.119 -6.2582)" gradientUnits="userSpaceOnUse" spreadMethod="reflect" xlink:href="#linearGradient3823"/>
  <linearGradient id="linearGradient3823">
   <stop id="stop3825" stop-color="#fff" offset="0"/>
   <stop id="stop3829" stop-color="#fff" stop-opacity="0" offset="1"/>
  </linearGradient>
  <linearGradient id="linearGradient5260" x1="10" x2="10" y1="1" y2="15.101" gradientUnits="userSpaceOnUse" xlink:href="#linearGradient3823"/>
 </defs>
 <metadata id="metadata7">
  <rdf:RDF>
   <cc:Work rdf:about="">
    <dc:format>image/svg+xml</dc:format>
    <dc:type rdf:resource="http://purl.org/dc/dcmitype/StillImage"/>
   </cc:Work>
  </rdf:RDF>
 </metadata>
 <g id="layer1">
  <path id="rect3371" d="m3 0.5c-1.385 0-2.5 1.115-2.5 2.5v12.5c0 1.385 1.115 2.5 2.5 2.5h2.2188l-1.1562 4 6.6562-4h8.2812c1.385 0 2.5-1.115 2.5-2.5v-12.5c0-1.385-1.115-2.5-2.5-2.5h-16z" fill="url(#linearGradient4025)" opacity=".3"/>
  <path id="rect2553" d="m3.375 2c-1.319 0-2.375 1.0241-2.375 2.3125v11.375c0 1.2884 1.056 2.3125 2.375 2.3125h2.1562l-1.0625 3.5938 6-3.5938h8.1562c1.319 0 2.375-1.0241 2.375-2.3125v-11.375c0-1.2884-1.056-2.3125-2.375-2.3125h-15.25z" opacity=".5"/>
  <path id="rect3173" d="m3 1c-1.108 0-2 0.892-2 2v12c0 1.108 0.892 2 2 2h3.0625l-1.0625 4.125 6.8125-4.125h7.1875c1.108 0 2-0.892 2-2v-12c0-1.108-0.892-2-2-2h-16z" fill="url(#linearGradient3181)" fill-rule="evenodd"/>
  <rect id="rect3200" transform="matrix(.88177 0 0 .88177 .23645 1.3433)" x="2" y="1.98" width="17.976" height="8.9714" rx="2" ry="2" fill="#fff" filter="url(#filter8716)" opacity=".2"/>
  <path id="path4057" d="m7.0204 8.5v-1.9457h1.8491v1.9457h-1.8491m1.8803 3.4294c-3.1e-6 0.29697-0.017361 0.56734-0.052073 0.81112-0.030379 0.24378-0.075942 0.46761-0.13669 0.6715-0.060754 0.20832-0.13452 0.39891-0.22131 0.57177-0.08679 0.17286-0.18443 0.33686-0.29291 0.49199h-1.1977c0.1215-0.15513 0.23432-0.31913 0.33847-0.49199 0.10848-0.17286 0.20178-0.35016 0.27989-0.53188 0.078107-0.18173 0.13886-0.36345 0.18225-0.54518 0.043392-0.18173 0.065088-0.36124 0.065092-0.53853h-0.83967v-1.8682h1.8746v1.4294m1.0289-1.4294v-1.9334h2.9826v1.9334h-2.9826m2.2994 4c0.34796-0.40859 0.6459-0.8102 0.89383-1.2048 0.24792-0.39113 0.45018-0.78924 0.60676-1.1943 0.16093-0.4051 0.27837-0.82067 0.35231-1.2467 0.073941-0.42954 0.11091-0.88179 0.11091-1.3567-3e-6 -0.47145-0.036973-0.9202-0.11091-1.3463-0.073943-0.42954-0.19138-0.84686-0.35231-1.252-0.15658-0.40509-0.35884-0.80495-0.60676-1.1996-0.24793-0.39462-0.54587-0.79447-0.89383-1.1996h1.8333c0.33491 0.38764 0.62416 0.77354 0.86773 1.1577 0.24357 0.38066 0.44365 0.77353 0.60024 1.1786 0.16093 0.40161 0.27837 0.82068 0.35231 1.2572 0.078287 0.43304 0.11743 0.89925 0.11744 1.3986-4e-6 0.4959-0.03915 0.96386-0.11744 1.4039-0.073946 0.43653-0.19138 0.85734-0.35231 1.2624-0.15659 0.4051-0.35666 0.79972-0.60024 1.1839-0.24358 0.38414-0.53282 0.77004-0.86773 1.1577h-1.8333" filter="url(#filter4059)" opacity=".8"/>
  <path id="path4053" d="m7.0204 8v-1.9457h1.8491v1.9457h-1.8491m1.8803 3.4294c-3.1e-6 0.29697-0.017361 0.56734-0.052073 0.81112-0.030379 0.24378-0.075942 0.46761-0.13669 0.6715-0.060754 0.20832-0.13452 0.39891-0.22131 0.57177-0.08679 0.17286-0.18443 0.33686-0.29291 0.49199h-1.1977c0.1215-0.15513 0.23432-0.31913 0.33847-0.49199 0.10848-0.17286 0.20178-0.35016 0.27989-0.53188 0.078107-0.18173 0.13886-0.36345 0.18225-0.54518 0.043392-0.18173 0.065088-0.36124 0.065092-0.53853h-0.83967v-1.8682h1.8746v1.4294m1.0289-1.4294v-1.9334h2.9826v1.9334h-2.9826m2.2994 4c0.34796-0.40859 0.6459-0.8102 0.89383-1.2048 0.24792-0.39113 0.45018-0.78924 0.60676-1.1943 0.16093-0.4051 0.27837-0.82067 0.35231-1.2467 0.073941-0.42954 0.11091-0.88179 0.11091-1.3567-3e-6 -0.47145-0.036973-0.9202-0.11091-1.3463-0.073943-0.42954-0.19138-0.84686-0.35231-1.252-0.15658-0.40509-0.35884-0.80495-0.60676-1.1996-0.24793-0.39462-0.54587-0.79447-0.89383-1.1996h1.8333c0.33491 0.38764 0.62416 0.77354 0.86773 1.1577 0.24357 0.38066 0.44365 0.77353 0.60024 1.1786 0.16093 0.40161 0.27837 0.82068 0.35231 1.2572 0.078287 0.43304 0.11743 0.89925 0.11744 1.3986-4e-6 0.4959-0.03915 0.96386-0.11744 1.4039-0.073946 0.43653-0.19138 0.85734-0.35231 1.2624-0.15659 0.4051-0.35666 0.79972-0.60024 1.1839-0.24358 0.38414-0.53282 0.77004-0.86773 1.1577h-1.8333" fill="#fff"/>
  <path id="path3240" d="m3 2.0312c-0.5497 0-0.96875 0.41905-0.96875 0.96875v8.6875c1.2853-2.9583 3.8268-5.2987 8.5-3.8125 4.6538 1.4771 7.6176-0.6462 9.4375-1.6562v-3.2188c0-0.5497-0.41905-0.96875-0.96875-0.96875h-16z" fill="url(#linearGradient3255)"/>
  <path id="rect3050" d="m3 1c-1.108 0-2 0.892-2 2v12c0 1.108 0.892 2 2 2h16c1.108 0 2-0.892 2-2v-12c0-1.108-0.892-2-2-2zm0 1.0312h16c0.5497 0 0.96875 0.41905 0.96875 0.96875v12c0 0.5497-0.41905 0.96875-0.96875 0.96875h-16c-0.5497 0-0.96875-0.41905-0.96875-0.96875v-12c0-0.5497 0.41905-0.96875 0.96875-0.96875z" fill="url(#linearGradient5260)" fill-rule="evenodd" opacity=".25"/>
  <path id="path4718" d="m1 14v1c0 1.108 0.892 2 2 2h2.8125l0.25-1h-3.0625c-1.108 0-2-0.892-2-2zm20 0c0 1.108-0.892 2-2 2h-7.1875l-6.5 3.9375-0.3125 1.1875 6.8125-4.125h7.1875c1.108 0 2-0.892 2-2v-1z" fill="url(#linearGradient5235)" fill-rule="evenodd" opacity=".15"/>
 </g>
</svg>
