<?xml version="1.0" encoding="UTF-8"?>
<!-- Created with Inkscape (http://www.inkscape.org/) -->
<svg id="svg2" width="24" height="24" version="1.1" xmlns="http://www.w3.org/2000/svg" xmlns:cc="http://creativecommons.org/ns#" xmlns:dc="http://purl.org/dc/elements/1.1/" xmlns:rdf="http://www.w3.org/1999/02/22-rdf-syntax-ns#" xmlns:xlink="http://www.w3.org/1999/xlink">
 <defs id="defs4">
  <linearGradient id="linearGradient3335" x1="11.375" x2="11.375" y1="22" y2="-9.8173" gradientUnits="userSpaceOnUse">
   <stop id="stop3330" offset="0"/>
   <stop id="stop3333" stop-opacity="0" offset="1"/>
  </linearGradient>
  <linearGradient id="linearGradient3181" x1="-3.0608" x2="-3.0608" y1="27.258" y2="7.2537" gradientTransform="translate(12.119 -7.2582)" gradientUnits="userSpaceOnUse">
   <stop id="stop5343" stop-color="#6a2700" offset="0"/>
   <stop id="stop5345" stop-color="#c04700" offset="1"/>
  </linearGradient>
  <filter id="filter3194" x="-.18" y="-.18" width="1.36" height="1.36" color-interpolation-filters="sRGB">
   <feGaussianBlur id="feGaussianBlur3196" stdDeviation="1.2"/>
  </filter>
  <clipPath id="clipPath2849">
   <rect id="rect2851" x="1" y="1" width="20" height="20" rx="2" ry="2" fill="#fff" fill-rule="evenodd"/>
  </clipPath>
  <radialGradient id="radialGradient3988-1" cx="373.03" cy="505.23" r="14.664" gradientTransform="matrix(-.0344 -.013333 .016501 -.031829 14.095 25.612)" gradientUnits="userSpaceOnUse">
   <stop id="stop5362-9-5-8-1" stop-color="#fbffce" stop-opacity=".64" offset="0"/>
   <stop id="stop5364-4-6-0-5" stop-color="#fbffce" stop-opacity="0" offset="1"/>
  </radialGradient>
  <radialGradient id="radialGradient3991-6" cx="373.03" cy="505.23" r="14.664" gradientTransform="matrix(-.06012 -.026818 .028838 -.064021 21.747 51.254)" gradientUnits="userSpaceOnUse">
   <stop id="stop5362-9-5-2" stop-color="#fbffce" offset="0"/>
   <stop id="stop5364-4-6-03" stop-color="#fbffce" stop-opacity="0" offset="1"/>
  </radialGradient>
  <radialGradient id="radialGradient4012-8" cx="370.52" cy="503.76" r="14.664" gradientTransform="matrix(.28293 -6.7367e-7 6.7871e-7 .2675 -93.54 -129.32)" gradientUnits="userSpaceOnUse">
   <stop id="stop5362-9-2" stop-color="#fbffce" stop-opacity=".728" offset="0"/>
   <stop id="stop5364-4-20" stop-color="#ffb058" stop-opacity="0" offset="1"/>
  </radialGradient>
  <linearGradient id="linearGradient4015-2" x1="373" x2="375.8" y1="597.84" y2="477.87" gradientTransform="matrix(.052362 0 0 .052987 -7.7072 -16.747)" gradientUnits="userSpaceOnUse">
   <stop id="stop3800-64" stop-color="#ff9d60" offset="0"/>
   <stop id="stop3802-2" stop-color="#ffe1ba" offset="1"/>
  </linearGradient>
  <linearGradient id="linearGradient3845" x1="11" x2="21" y1="19.5" y2="19.5" gradientTransform="translate(1,-1)" gradientUnits="userSpaceOnUse" spreadMethod="reflect">
   <stop id="stop3833" stop-color="#fff" offset="0"/>
   <stop id="stop3821" stop-color="#fff" stop-opacity=".49804" offset=".75"/>
   <stop id="stop3835" stop-color="#fff" stop-opacity="0" offset="1"/>
  </linearGradient>
  <linearGradient id="linearGradient3915" x1="10" x2="10" y1="1" y2="16" gradientTransform="translate(1,-1)" gradientUnits="userSpaceOnUse">
   <stop id="stop3825" stop-color="#fff" offset="0"/>
   <stop id="stop3829" stop-color="#fff" stop-opacity="0" offset="1"/>
  </linearGradient>
 </defs>
 <metadata id="metadata7">
  <rdf:RDF>
   <cc:Work rdf:about="">
    <dc:format>image/svg+xml</dc:format>
    <dc:type rdf:resource="http://purl.org/dc/dcmitype/StillImage"/>
    <dc:title/>
   </cc:Work>
  </rdf:RDF>
 </metadata>
 <g id="layer1" transform="translate(0,2)">
  <g id="g3337" transform="translate(1,-1)">
   <rect id="rect3371" x=".5" y=".5" width="21" height="21.5" rx="2.5" ry="2.5" fill="url(#linearGradient3335)" opacity=".3"/>
   <rect id="rect2553" x="1" y="2" width="20" height="20" rx="2.381" ry="2.3256" opacity=".5"/>
  </g>
  <rect id="rect3173" x="2" width="20" height="20" rx="2" ry="2" fill="url(#linearGradient3181)" fill-rule="evenodd"/>
  <path id="rect3050" d="m4 0c-1.108 0-2 0.892-2 2v16c0 1.108 0.892 2 2 2h16c1.108 0 2-0.892 2-2v-16c0-1.108-0.892-2-2-2h-16zm0 1.0312h16c0.5497 0 0.96875 0.41905 0.96875 0.96875v16c0 0.5497-0.41905 0.96875-0.96875 0.96875h-16c-0.5497 0-0.96875-0.41905-0.96875-0.96875v-16c0-0.5497 0.41905-0.96875 0.96875-0.96875z" fill="url(#linearGradient3915)" fill-rule="evenodd" opacity=".25"/>
  <path id="path3235" d="m4 20c-1.108 0-2-0.892-2-2v-1c0 1.108 0.892 2 2 2h16c1.108 0 2-0.892 2-2v1c0 1.108-0.892 2-2 2h-16z" fill="url(#linearGradient3845)" fill-rule="evenodd" opacity=".15"/>
 </g>
 <g id="layer2" transform="translate(0,2)">
  <rect id="rect2410" transform="translate(1,-1)" x="3" y="3" width="16" height="16" rx="2" ry="2" clip-path="url(#clipPath2849)" fill="#ffb61d" filter="url(#filter3194)" opacity=".15"/>
 </g>
 <g id="layer3" transform="translate(0,2)">
  <path id="path3743" d="m11.97 1.2538c-1.4258 0-2.8157 0.58478-3.8241 1.6078-1.0084 1.023-1.5905 2.4375-1.5905 3.8846 0 1.4471 0.58212 2.8599 1.5905 3.8829 0.85432 0.86674 1.9826 1.4197 3.1744 1.5681v0.80023h-1.9521v1.3214h1.9521l0.39673 3.1811h0.50742l0.39673-3.1811h1.9521v-1.3214h-1.9521v-0.80023c1.1938-0.14836 2.3283-0.70134 3.1826-1.5681 1.0084-1.023 1.5823-2.4358 1.5823-3.8829 0-1.4471-0.57394-2.8616-1.5823-3.8846-1.0084-1.023-2.4081-1.6078-3.8339-1.6078zm0 0.52098c1.0696 0 2.1844 0.4283 2.911 1.2237 1.6595 1.8165 1.5906 4.8939 0 6.7034-0.71112 0.80897-1.8414 1.222-2.911 1.222-1.0673 0-2.1453-0.45784-2.9012-1.222h-0.0082c-1.6299-1.8447-1.5456-4.8521 0-6.7034 0.75614-0.76714 1.8397-1.2237 2.9094-1.2237h3e-6 1.4e-5z" color="#000000" fill="#520" style="block-progression:tb;text-indent:0;text-transform:none"/>
  <path id="path3739" d="m11.97 2.2538c-1.4258 0-2.8157 0.58478-3.8241 1.6078-1.0084 1.023-1.5905 2.4375-1.5905 3.8846 0 1.4471 0.58212 2.8599 1.5905 3.8829 0.85432 0.86674 1.9826 1.4197 3.1744 1.5681v0.99081h-1.9521v1.3214h1.9521l0.39673 2.9906h0.50742l0.39673-2.9906h1.9521v-1.3214h-1.9521v-0.99081c1.1938-0.14836 2.3283-0.70134 3.1826-1.5681 1.0084-1.023 1.5823-2.4358 1.5823-3.8829 0-1.4471-0.57394-2.8616-1.5823-3.8846-1.0084-1.023-2.4081-1.6078-3.8339-1.6078zm0 0.52098c1.0696 0 2.1844 0.4283 2.911 1.2237 1.6595 1.8165 1.5906 4.8939 0 6.7034-0.71112 0.80897-1.8414 1.222-2.911 1.222-1.0673 0-2.1453-0.45784-2.9012-1.222h-0.0082c-1.6299-1.8447-1.5456-4.8521 0-6.7034 0.75614-0.76714 1.8397-1.2237 2.9094-1.2237h3e-6 1.4e-5z" color="#000000" fill="#ff8f45" opacity=".2" style="block-progression:tb;text-indent:0;text-transform:none"/>
  <path id="path3939" d="m11.97 1.7538c-1.4258 0-2.8157 0.58478-3.8241 1.6078-1.0084 1.023-1.5905 2.4375-1.5905 3.8846 0 1.4471 0.58212 2.8599 1.5905 3.8829 0.85432 0.86674 1.9826 1.4197 3.1744 1.5681v0.98138h-1.9521v1.3214h1.9521l0.39673 3h0.50742l0.39673-3h1.9521v-1.3214h-1.9521v-0.98138c1.1938-0.14836 2.3283-0.70134 3.1826-1.5681 1.0084-1.023 1.5823-2.4358 1.5823-3.8829 0-1.4471-0.57394-2.8616-1.5823-3.8846-1.0084-1.023-2.4081-1.6078-3.8339-1.6078zm0 0.71232c1.0696 0 2.1844 0.4283 2.911 1.2237 1.6595 1.8165 1.5906 4.7026 0 6.5121-0.71112 0.80897-1.8414 1.222-2.911 1.222-1.0673 0-2.1453-0.45784-2.9012-1.222h-0.0082c-1.6299-1.8447-1.6495-4.7671 0-6.5121 0.71957-0.76122 1.8597-1.1527 2.9094-1.2237z" color="#000000" fill="url(#linearGradient4015-2)" style="block-progression:tb;text-indent:0;text-transform:none"/>
  <path id="path5448" d="m11.613 10.347c-0.26338-0.031984-0.72664-0.13145-0.93759-0.20131-0.61066-0.20221-1.2583-0.60218-1.6623-1.0267-0.30641-0.3219-0.70283-1.001-0.87318-1.4959-0.54031-1.5695-0.30541-2.3991 0.60338-3.7479 0.44759-0.6643 1.3482-1.2361 2.3249-1.4761 0.41505-0.102 1.5146-0.095087 1.9175 0.012086 1.5856 0.42169 2.5601 1.4113 3.0037 3.0506 0.26104 0.96447 0.20118 1.1991-0.15116 2.1645-0.44512 1.2196-1.1897 2.0265-2.2536 2.4424-0.57462 0.22461-1.4254 0.34475-1.9716 0.27841v-1.2e-5z" fill="url(#radialGradient4012-8)"/>
  <path id="path5448-8" d="m14.394 8.0063c0.05296 0.031619 0.14214 0.096054 0.18044 0.13055 0.11073 0.099904 0.2112 0.24393 0.25748 0.37011 0.03498 0.09561 0.05601 0.27385 0.04602 0.39244-0.03155 0.37614-0.25493 0.739-0.57382 0.93209-0.15703 0.095125-0.40174 0.12811-0.63167 0.085223-0.097641-0.018255-0.33069-0.12387-0.40631-0.18427-0.29756-0.23763-0.41238-0.53482-0.35377-0.91624 0.03445-0.22441 0.16518-0.48069 0.33007-0.64715 0.20827-0.21034 0.44183-0.30671 0.70663-0.29201 0.14302 0.00791 0.33502 0.06373 0.4449 0.12924z" fill="url(#radialGradient3991-6)"/>
  <path id="path5448-8-3" d="m9.8884 4.1111c0.03027 0.0157 0.08134 0.047779 0.10324 0.064905 0.06336 0.04966 0.12085 0.12127 0.14733 0.184 0.02002 0.047535 0.03206 0.13615 0.02631 0.19511-0.01806 0.187-0.14587 0.3674-0.32833 0.4634-0.08985 0.047296-0.22987 0.063695-0.36143 0.04241-0.05587-0.00907-0.18921-0.06158-0.23248-0.09161-0.17027-0.11815-0.23596-0.26589-0.20243-0.45552 0.01971-0.11157 0.09451-0.23898 0.18886-0.32174 0.11917-0.10458 0.25281-0.15249 0.40432-0.14519 0.08183 0.00406 0.19169 0.031673 0.25457 0.064255z" fill="url(#radialGradient3988-1)"/>
 </g>
</svg>
