<?xml version="1.0" encoding="UTF-8"?>
<svg id="svg2" width="24" height="24" version="1.1" xmlns="http://www.w3.org/2000/svg" xmlns:cc="http://creativecommons.org/ns#" xmlns:dc="http://purl.org/dc/elements/1.1/" xmlns:rdf="http://www.w3.org/1999/02/22-rdf-syntax-ns#" xmlns:xlink="http://www.w3.org/1999/xlink">
 <metadata id="metadata49">
  <rdf:RDF>
   <cc:Work rdf:about="">
    <dc:format>image/svg+xml</dc:format>
    <dc:type rdf:resource="http://purl.org/dc/dcmitype/StillImage"/>
   </cc:Work>
  </rdf:RDF>
 </metadata>
 <defs id="defs4">
  <linearGradient id="linearGradient3335" x1="11.375" x2="11.375" y1="22" y2="-9.8173" gradientTransform="translate(1,1)" gradientUnits="userSpaceOnUse">
   <stop id="stop3330" offset="0"/>
   <stop id="stop3333" stop-opacity="0" offset="1"/>
  </linearGradient>
  <filter id="filter3194" x="-.18" y="-.18" width="1.36" height="1.36" color-interpolation-filters="sRGB">
   <feGaussianBlur id="feGaussianBlur3196" stdDeviation="1.2"/>
  </filter>
  <clipPath id="clipPath2849">
   <rect id="rect2851" x="1" y="1" width="20" height="20" rx="2" ry="2" fill="#fff" fill-rule="evenodd"/>
  </clipPath>
  <linearGradient id="linearGradient3845" x1="11" x2="21" y1="19.5" y2="19.5" gradientTransform="translate(1,1)" gradientUnits="userSpaceOnUse" spreadMethod="reflect">
   <stop id="stop3833" stop-color="#fff" offset="0"/>
   <stop id="stop3821" stop-color="#fff" stop-opacity=".49804" offset=".75"/>
   <stop id="stop3835" stop-color="#fff" stop-opacity="0" offset="1"/>
  </linearGradient>
  <linearGradient id="linearGradient3961" x1="10" x2="10" y1="1" y2="16" gradientTransform="translate(1,1)" gradientUnits="userSpaceOnUse">
   <stop id="stop3825" stop-color="#fff" offset="0"/>
   <stop id="stop3829" stop-color="#fff" stop-opacity="0" offset="1"/>
  </linearGradient>
  <radialGradient id="radialGradient878" cx="2" cy="2" r="10" gradientTransform="matrix(0,2.2,-2.2,0,6.4,-2.4)" gradientUnits="userSpaceOnUse">
   <stop id="stop4145" stop-color="#9c0008" offset="0"/>
   <stop id="stop4151" stop-color="#e35e00" offset=".41729"/>
   <stop id="stop4169" stop-color="#797d00" offset=".59519"/>
   <stop id="stop4157" stop-color="#00a535" offset=".75742"/>
   <stop id="stop4153" stop-color="#008ec8" offset=".86629"/>
   <stop id="stop4147" stop-color="#8500db" offset="1"/>
  </radialGradient>
 </defs>
 <rect id="rect3371" x="1.5" y="1.5" width="21" height="21.5" rx="2.5" ry="2.5" fill="url(#linearGradient3335)" opacity=".3"/>
 <rect id="rect2553" x="2" y="3" width="20" height="20" rx="2.381" ry="2.3256" opacity=".5"/>
 <rect id="rect3173" x="2" y="2" width="20" height="20" rx="2" ry="2" fill="url(#radialGradient878)" fill-rule="evenodd"/>
 <path id="rect3050" d="m4 2c-1.108 0-2 0.892-2 2v16c0 1.108 0.892 2 2 2h16c1.108 0 2-0.892 2-2v-16c0-1.108-0.892-2-2-2zm0 1.0312h16c0.5497 0 0.96875 0.41905 0.96875 0.96875v16c0 0.5497-0.41905 0.96875-0.96875 0.96875h-16c-0.5497 0-0.96875-0.41905-0.96875-0.96875v-16c0-0.5497 0.41905-0.96875 0.96875-0.96875z" fill="url(#linearGradient3961)" fill-rule="evenodd" opacity=".35"/>
 <path id="path3235" d="m4 22c-1.108 0-2-0.892-2-2v-1c0 1.108 0.892 2 2 2h16c1.108 0 2-0.892 2-2v1c0 1.108-0.892 2-2 2z" fill="url(#linearGradient3845)" fill-rule="evenodd" opacity=".2"/>
 <g id="layer2" transform="translate(0,2)">
  <rect id="rect2410" transform="translate(1,-1)" x="3" y="3" width="16" height="16" rx="2" ry="2" clip-path="url(#clipPath2849)" fill="#fff" filter="url(#filter3194)" opacity=".15"/>
 </g>
 <g id="main">
  <path id="path39" d="m6.5293 8v0.69336l0.89062 0.070312 0.0019531 0.0039062 0.13867-0.76758h-1.0312zm2.8418 0-0.70117 3.834h0.18359l0.52148-2.8594 0.18555-0.21094 0.94336-0.070312v-0.69336h-1.1328zm2.3301 0v0.71875l0.29688 0.023438 0.67188-0.71484-0.009766-0.027344h-0.95898zm2.2715 0-3.1797 3.3262 0.32031 0.66406 3.0176-3.1562 1.1387-0.11523v-0.71875h-1.2969zm4.8652 3.7363c-0.29845 0.66766-1.1096 1.733-2.4062 3.0586-0.47712 0.54625-1.0031 1.1057-1.6211 1.6895l0.033203-0.18359c-0.25703 0.23254-0.46166 0.44191-0.74414 0.68555-0.50159 0.016569-0.57114 0.004605-0.76172 0-0.001996 0.011433-0.003939 0.021519-0.00586 0.033203-0.016532-0.009176-0.029034-0.023241-0.044922-0.033203-0.12703-0.003523-0.40158 0.00174-0.53125 0-1.1407-0.0149-1.5114-0.49553-2.0391-1.6152l-1.291-2.8086h-0.076172l-0.25586 0.27148h-0.42383l0.048828-0.27148h-0.19336l-0.58594 3.4277 0.13672 0.20312 0.44922-2.6309h0.90039l1.291 2.8086c0.5277 1.1197 0.89835 1.6003 2.0391 1.6152 0.328 0.0044 0.4589 0.02923 1.3438 0 3.0519-2.6322 4.6094-4.6397 4.8555-5.5469 0.086084-0.31728 0.031802-0.55152-0.11719-0.70312zm-3.3457 0.070313c-0.003724 0.020105-0.005888 0.034048-0.009766 0.054687l-0.67188 3.623c0.08395-0.079299 0.14707-0.15369 0.22852-0.23242l0.44336-2.3906c0.094592-0.50346 0.13237-0.83781 0.009766-1.0547zm-1.5215 0.044921-0.84961 0.19336-0.11133 0.4043 0.90625 0.14844c0.044561-0.31877 0.060913-0.56561 0.054687-0.74609zm-7.8516 5.1484-0.21094 0.21094-0.9082 0.070312v0.71875h3.9746v-0.71875l-0.88281-0.0625-0.14648-0.21875h-1.8262z" opacity=".3"/>
  <path id="base" transform="translate(4,4)" d="m2.5289 3.0001 9.13e-5 0.69323 0.8918 0.070205 0.14441 0.21059-1.4355 8.0167-0.22083 0.21942-0.90887 0.07018v0.71948l3.9753 6.3e-5 1.218e-4 -0.71942-0.88352-0.06156-0.1529-0.22816 0.58608-3.4275h0.90038l1.2911 2.8079c0.5277 1.1197 0.89789 1.5998 2.0386 1.6147 0.328 0.0044 0.45995 0.02923 1.3448 0 3.0519-2.6322 4.6098-4.6386 4.8559-5.5458 0.14907-0.54942-0.0876-0.8864-0.59474-0.8864-0.24738 0-0.5306 0.10762-0.84928 0.32484l-0.22936 1.8865c-0.62462 0.8433-1.4573 1.7619-2.4718 2.7202l0.67102-3.6241c0.13925-0.74115 0.18516-1.1366-0.28036-1.2899l-2.081 0.47393-0.1103 0.40357 0.9597 0.15805c0.06672 0.25552-0.0072 0.81104-0.1529 1.6672l-0.46717 2.6587c-0.0073 0.02736-0.01199 0.05734-0.01699 0.08775-0.30293-0.16814-0.49389-0.46755-0.71351-0.9213l-1.8262-3.7733 3.3382-3.4924 1.1382-0.11407-1.52e-4 -0.71958-3.5674 3.1e-5 1.522e-4 0.71964 0.88325 0.070113 0.08494 0.23693-3.5761 3.8083h-0.42471l0.70502-3.8609 0.18687-0.21059 0.94284-0.070175-9.13e-5 -0.69329z" fill="#fff"/>
 </g>
</svg>
