<?xml version="1.0" encoding="UTF-8"?>
<!-- Created with Inkscape (http://www.inkscape.org/) -->
<svg id="svg2" width="24" height="24" version="1.1" xmlns="http://www.w3.org/2000/svg" xmlns:cc="http://creativecommons.org/ns#" xmlns:dc="http://purl.org/dc/elements/1.1/" xmlns:rdf="http://www.w3.org/1999/02/22-rdf-syntax-ns#" xmlns:xlink="http://www.w3.org/1999/xlink">
 <defs id="defs4">
  <linearGradient id="linearGradient3335" x1="11.375" x2="11.375" y1="22" y2="-9.8173" gradientUnits="userSpaceOnUse">
   <stop id="stop3330" offset="0"/>
   <stop id="stop3333" stop-opacity="0" offset="1"/>
  </linearGradient>
  <linearGradient id="linearGradient3181" x1="-3.0608" x2="-3.0608" y1="27.258" y2="7.2537" gradientTransform="translate(12.119 -7.2582)" gradientUnits="userSpaceOnUse">
   <stop id="stop3702" stop-color="#ca0019" offset="0"/>
   <stop id="stop3704" stop-color="#e68995" offset="1"/>
  </linearGradient>
  <filter id="filter3194" x="-.18" y="-.18" width="1.36" height="1.36" color-interpolation-filters="sRGB">
   <feGaussianBlur id="feGaussianBlur3196" stdDeviation="1.2"/>
  </filter>
  <clipPath id="clipPath2849">
   <rect id="rect2851" x="1" y="1" width="20" height="20" rx="2" ry="2" fill="#fff" fill-rule="evenodd"/>
  </clipPath>
  <linearGradient id="linearGradient3752" x1="96" x2="16" y1="16" y2="64" gradientTransform="matrix(.2381 0 0 .2381 -29.429 -1.4286)" gradientUnits="userSpaceOnUse">
   <stop id="stop3699" stop-color="#fff" offset="0"/>
   <stop id="stop3701" stop-color="#fff" stop-opacity="0" offset="1"/>
  </linearGradient>
  <linearGradient id="linearGradient3845" x1="11" x2="21" y1="19.5" y2="19.5" gradientTransform="translate(1,-1)" gradientUnits="userSpaceOnUse" spreadMethod="reflect">
   <stop id="stop3833" stop-color="#fff" offset="0"/>
   <stop id="stop3821" stop-color="#fff" stop-opacity=".49804" offset=".75"/>
   <stop id="stop3835" stop-color="#fff" stop-opacity="0" offset="1"/>
  </linearGradient>
  <linearGradient id="linearGradient3915" x1="10" x2="10" y1="1" y2="16" gradientTransform="translate(1,-1)" gradientUnits="userSpaceOnUse">
   <stop id="stop3825" stop-color="#fff" offset="0"/>
   <stop id="stop3829" stop-color="#fff" stop-opacity="0" offset="1"/>
  </linearGradient>
 </defs>
 <metadata id="metadata7">
  <rdf:RDF>
   <cc:Work rdf:about="">
    <dc:format>image/svg+xml</dc:format>
    <dc:type rdf:resource="http://purl.org/dc/dcmitype/StillImage"/>
    <dc:title/>
   </cc:Work>
  </rdf:RDF>
 </metadata>
 <g id="layer1" transform="translate(0,2)">
  <g id="g3337" transform="translate(1,-1)">
   <rect id="rect3371" x=".5" y=".5" width="21" height="21.5" rx="2.5" ry="2.5" fill="url(#linearGradient3335)" opacity=".3"/>
   <rect id="rect2553" x="1" y="2" width="20" height="20" rx="2.381" ry="2.3256" opacity=".5"/>
  </g>
  <rect id="rect3173" x="2" width="20" height="20" rx="2" ry="2" fill="url(#linearGradient3181)" fill-rule="evenodd"/>
  <path id="rect3690" d="m-26 0c-1.108 0-2 0.892-2 2v10.594c4.1925-2.7433 10.537-4.5 17.625-4.5 0.80428 0 1.5922 0.0186 2.375 0.0625v-6.1562c0-1.108-0.892-2-2-2h-16z" fill="url(#linearGradient3752)" opacity=".4"/>
  <path id="rect3050" d="m4 0c-1.108 0-2 0.892-2 2v16c0 1.108 0.892 2 2 2h16c1.108 0 2-0.892 2-2v-16c0-1.108-0.892-2-2-2h-16zm0 1.0312h16c0.5497 0 0.96875 0.41905 0.96875 0.96875v16c0 0.5497-0.41905 0.96875-0.96875 0.96875h-16c-0.5497 0-0.96875-0.41905-0.96875-0.96875v-16c0-0.5497 0.41905-0.96875 0.96875-0.96875z" fill="url(#linearGradient3915)" fill-rule="evenodd" opacity=".35"/>
  <path id="path3235" d="m4 20c-1.108 0-2-0.892-2-2v-1c0 1.108 0.892 2 2 2h16c1.108 0 2-0.892 2-2v1c0 1.108-0.892 2-2 2h-16z" fill="url(#linearGradient3845)" fill-rule="evenodd" opacity=".2"/>
 </g>
 <g id="layer2" transform="translate(0,2)">
  <rect id="rect2410" transform="translate(1,-1)" x="3" y="3" width="16" height="16" rx="2" ry="2" clip-path="url(#clipPath2849)" fill="#fff" filter="url(#filter3194)" opacity=".1"/>
 </g>
 <g id="layer3" transform="translate(0,2)">
  <path id="path3646" d="m7.625 3.6562c-1.8559 0.3638-3.5391 1.5549-4.4375 3.4375-1.5548 3.2581-0.2807 7.2126 2.9375 8.7812 0.54934 0.26776 1.1508 0.48306 1.7188 0.5625 1.4397 0.2014 2.8709-0.07387 4.0938-0.84375 0.40358-0.25409 0.7823-0.55589 1.0938-0.84375 0.03493-0.03229 0.08616-0.08934 0.125-0.125 0.05436 0.07048 0.10001 0.21674 0.15625 0.28125 0.86886 0.99664 2.0632 1.4977 3.5 1.5 0.90803 0.0015 1.5548-0.13252 2.1875-0.4375 1.5778-0.7605 2.5176-2.3129 2.5-4.0625-0.0097-0.96037-0.26189-1.9361-0.96875-2.6875-0.37884-0.40273-0.85458-0.73409-1.375-1 0.16379-0.076848 0.36201-0.12661 0.5-0.21875 0.22087-0.14748 0.32068-0.26223 0.375-0.3125-0.0082 0.00758 0.1499-0.10232 0.28125-0.28125-0.04924 0.06708 0.3125-0.45389 0.3125-0.9375 0-0.4056-0.22277-0.82814-0.25-0.875-0.10614-0.18267-0.19358-0.27635-0.25-0.34375-0.16691-0.1994-0.3514-0.37232-0.53125-0.53125-0.32472-0.28695-0.73549-0.65773-1.3438-0.875-1.5754-0.56275-3.3489-0.1792-4.4688 1.0312-0.20323 0.21967-0.32592 0.46549-0.46875 0.71875-0.099402-0.11062-0.17742-0.27508-0.28125-0.375-1.5085-1.4517-3.5548-1.9254-5.4062-1.5625zm1.4688 4.25c0.46353 0.10039 0.69608 0.23554 0.90625 0.4375 0.21017 0.20196 0.42922 0.53276 0.6875 1.1562 0.17352 0.41888 0.2565 0.5996 0.375 0.875-0.0065 0.0039-0.03202 4.97e-4 -0.03125 0 0.0033-0.0022-0.0657 0.0336-0.0625 0.03125 0.0032-0.0024-0.06555 0.06505-0.0625 0.0625 3e-3 -0.0025-0.09663 0.06523-0.09375 0.0625 0.0029-0.0027-0.06521 0.0654-0.0625 0.0625 0.0027-0.0029-0.06503 0.06556-0.0625 0.0625 0.0025-0.0031-0.03358 0.09696-0.03125 0.09375 0.0023-0.0032-0.06463 0.06585-0.0625 0.0625 0.0021-0.0034-0.06442 0.09723-0.0625 0.09375 0.0019-0.0035-0.03295 0.06609-0.03125 0.0625 5.11e-4 -0.0011 0.0048 0.02033 0 0.03125-0.0111 0.02548-0.03228 0.06508-0.03125 0.0625l-0.0625 0.125c-0.01234 0.0015-0.15709 0.14797-0.34375 0.3125-0.21332 0.18804-0.50609 0.39388-0.53125 0.40625-0.45632 0.22433-0.020247 0.125-0.75 0.125-0.39856 0-0.54661-0.0029-0.53125 0 0.015363 0.0029-0.0081-4.87e-4 -0.25-0.125-0.30531-0.15716-0.7786-0.677-0.9375-1.0312-0.097326-0.21698-0.11881-0.20782-0.125-0.25-0.00619-0.04218 0-0.23659 0-0.65625 0-0.4457-2e-3 -0.64434 0-0.65625s0.00125 0.00604 0.125-0.25c0.10014-0.20719 0.81971-0.92247 0.90625-0.96875 0.11402-0.060985 1.0406-0.20579 1.125-0.1875zm7.3438 3.9375c0.02542 0.0094 0.03677 0.02187 0.0625 0.03125 0.18201 0.06632 0.27709 0.10464 0.40625 0.15625-0.03549 0.0048-0.01606 0.03125-0.0625 0.03125-0.27198 0-0.35368-0.02383-0.28125 0 0.07243 0.02383 0.12121 0.08881 0-0.03125-0.05734-0.0568-0.10526-0.15816-0.125-0.1875z" fill="#ad051a" opacity=".15"/>
  <path id="path3642" d="m7.7812 4.4688c-1.6046 0.31454-3.0605 1.3586-3.8438 3-1.3636 2.8575-0.2343 6.293 2.5625 7.6562 0.46857 0.22838 1.0242 0.40658 1.4688 0.46875 1.2651 0.17697 2.4807-0.05733 3.5312-0.71875 0.34578-0.2177 0.69232-0.49452 0.96875-0.75 0.13821-0.12774 0.27097-0.24596 0.375-0.375s0.25-0.18472 0.25-0.625c0-0.22208-0.04336-0.21574-0.0625-0.28125 0.36945 0.76687 0.62748 1.1802 0.90625 1.5 0.7333 0.84115 1.6037 1.2167 2.875 1.2188 0.85292 0.0014 1.2685-0.08152 1.8125-0.34375 1.3045-0.62875 2.046-1.8534 2.0312-3.3125-0.0083-0.8218-0.21824-1.5597-0.75-2.125s-1.2785-0.94759-2.3438-1.3125c-0.72657-0.24889-1.1503-0.42417-1.2812-0.53125s-0.09375-0.067561-0.09375-0.34375c0-0.22812 0.04253-0.32624 0.125-0.40625 0.08247-0.080015 0.22741-0.15625 0.46875-0.15625 0.32617 0 0.24527-0.028735 0.5625 0.28125 0.12369 0.12091 0.27347 0.23419 0.46875 0.3125 0.19528 0.078307 0.43397 0.083511 0.625 0.03125 0.29044-0.079439 0.53455-0.19989 0.75-0.34375 0.10772-0.071929 0.18612-0.16195 0.28125-0.25 0.04756-0.044024 0.1023-0.082752 0.15625-0.15625 0.05395-0.073498 0.15625-0.16508 0.15625-0.4375 0-0.2436-0.07017-0.34313-0.125-0.4375s-0.12434-0.17455-0.1875-0.25c-0.12631-0.1509-0.27451-0.29347-0.4375-0.4375-0.32599-0.28807-0.641-0.56819-1.0625-0.71875-1.2706-0.45386-2.686-0.1349-3.5625 0.8125-0.5256 0.56813-0.78559 1.2662-0.8125 2.0625-0.051084-0.10197-0.13817-0.31547-0.1875-0.40625-0.30228-0.55626-0.60765-0.93373-0.96875-1.2812-1.3016-1.2526-3.053-1.658-4.6562-1.3438zm1.5 2.625c1.1124 0.24094 1.629 0.7456 2.1875 2.0938 0.40553 0.97896 0.5992 1.397 0.875 2.0312a0.65032 0.65032 0 0 0-1.0938 0.15625l-0.09375 0.1875c-0.16359 0.27163-0.88173 0.91271-1.25 1.0938-0.43078 0.21177-0.38991 0.21875-1.125 0.21875-0.784 0-0.69575 0.01828-1.1562-0.21875-0.53298-0.27434-1.0878-0.86687-1.3438-1.4375-0.19407-0.43268-0.1875-0.41511-0.1875-1.25 0-0.87933-0.018864-0.78962 0.21875-1.2812 0.22794-0.47161 0.8498-1.1297 1.25-1.3438 0.42075-0.22505 1.2734-0.34645 1.7188-0.25zm5.4062 2.875c0.52764 0.43313 1.1769 0.79092 2.0938 1.125 0.66757 0.24324 1.02 0.40326 1.125 0.5s0.09375 0.096718 0.09375 0.40625c0 0.28131-0.09385 0.46458-0.28125 0.625-0.1874 0.16042-0.482 0.28125-0.875 0.28125-0.56599 0-0.61344-0.02217-0.875-0.28125-0.11788-0.11676-0.20175-0.19775-0.40625-0.625-0.17276-0.36096-0.49021-1.1052-0.875-2.0312z" fill="#ad051a" opacity=".3"/>
  <path id="path3278" d="m8.0531 14.949c-0.31876-0.044584-0.88996-0.23236-1.2693-0.41728-2.4739-1.2058-3.4862-4.2373-2.2677-6.7907 1.3938-2.9207 5.1925-3.6653 7.4779-1.4659 0.66006 0.63523 0.95613 1.179 1.9487 3.5792 1.0383 2.5107 1.2313 2.9099 1.5685 3.2439 0.35942 0.35601 0.6927 0.47448 1.3348 0.47448 1.0506 0 1.8003-0.65725 1.8003-1.5784 0-0.77626-0.27064-1.0277-1.6454-1.5286-2.0934-0.76277-2.7717-1.4586-2.7732-2.8451-8.55e-4 -0.74379 0.18626-1.2432 0.65587-1.7508 0.67597-0.73066 1.8427-0.97792 2.8748-0.60925 0.43723 0.15618 1.3581 0.98546 1.3581 1.223 0 0.11498-0.53264 0.46745-0.82883 0.54846-0.15523 0.042467-0.29009-0.011167-0.47012-0.18714-0.36593-0.35757-0.61357-0.46791-1.0501-0.46791-0.75501 0-1.2238 0.46227-1.2238 1.2067 0 0.7425 0.2996 0.99474 1.7865 1.5041 2.0526 0.70314 2.6551 1.337 2.6699 2.8092 0.0128 1.2693-0.54846 2.185-1.6708 2.7259-0.51082 0.24622-0.6824 0.27746-1.5162 0.27611-1.1859-0.0019-1.7199-0.2227-2.3856-0.98629-0.44714-0.5129-0.90224-1.476-2.357-4.9879-0.60308-1.4559-1.379-2.1669-2.6696-2.4464-0.65138-0.14108-1.5625-0.011333-2.1585 0.30744-0.5748 0.30742-1.2255 1.0018-1.5308 1.6335-0.24992 0.51708-0.2754 0.66099-0.2754 1.5555 0 0.85474 0.03232 1.0577 0.24318 1.5278 0.31952 0.71234 0.94768 1.3753 1.6413 1.7324 0.49982 0.25727 0.65633 0.28832 1.4534 0.28832 0.76808 0 0.96708-0.0363 1.4203-0.25911 0.52226-0.25674 1.2244-0.89237 1.5105-1.3673l0.14842-0.24643 0.29387 0.67899c0.16163 0.37344 0.29387 0.73038 0.29387 0.7932 0 0.18551-0.66231 0.80489-1.2693 1.1871-0.92292 0.58105-1.982 0.79814-3.1182 0.63919z" fill="#fff"/>
 </g>
</svg>
