<?xml version="1.0" encoding="UTF-8"?>
<svg id="svg2" width="24" height="24" version="1.1" xmlns="http://www.w3.org/2000/svg" xmlns:cc="http://creativecommons.org/ns#" xmlns:dc="http://purl.org/dc/elements/1.1/" xmlns:rdf="http://www.w3.org/1999/02/22-rdf-syntax-ns#">
 <metadata id="metadata58">
  <rdf:RDF>
   <cc:Work rdf:about="">
    <dc:format>image/svg+xml</dc:format>
    <dc:type rdf:resource="http://purl.org/dc/dcmitype/StillImage"/>
   </cc:Work>
  </rdf:RDF>
 </metadata>
 <defs id="defs4">
  <linearGradient id="linearGradient3335" x1="11.375" x2="11.375" y1="22" y2="-9.8173" gradientUnits="userSpaceOnUse">
   <stop id="stop3330" offset="0"/>
   <stop id="stop3333" stop-opacity="0" offset="1"/>
  </linearGradient>
  <linearGradient id="linearGradient3181" x1="-3.0608" x2="-3.0608" y1="27.258" y2="7.2537" gradientTransform="translate(12.119 -7.2582)" gradientUnits="userSpaceOnUse">
   <stop id="stop3189" stop-color="#d4d4d4" offset="0"/>
   <stop id="stop3191" stop-color="#f0f0f0" offset="1"/>
  </linearGradient>
  <filter id="filter3194" x="-.18" y="-.18" width="1.36" height="1.36" color-interpolation-filters="sRGB">
   <feGaussianBlur id="feGaussianBlur3196" stdDeviation="1.2"/>
  </filter>
  <clipPath id="clipPath2849">
   <rect id="rect2851" x="1" y="1" width="20" height="20" rx="2" ry="2" fill="#fff" fill-rule="evenodd"/>
  </clipPath>
  <linearGradient id="linearGradient3845" x1="11" x2="21" y1="19.5" y2="19.5" gradientTransform="translate(1,-1)" gradientUnits="userSpaceOnUse" spreadMethod="reflect">
   <stop id="stop3833" stop-color="#fff" offset="0"/>
   <stop id="stop3821" stop-color="#fff" stop-opacity=".49804" offset=".75"/>
   <stop id="stop3835" stop-color="#fff" stop-opacity="0" offset="1"/>
  </linearGradient>
  <linearGradient id="linearGradient3961" x1="10" x2="10" y1="1" y2="16" gradientTransform="translate(1,-1)" gradientUnits="userSpaceOnUse">
   <stop id="stop3825" stop-color="#fff" offset="0"/>
   <stop id="stop3829" stop-color="#fff" stop-opacity="0" offset="1"/>
  </linearGradient>
 </defs>
 <g id="layer1" transform="translate(0,2)">
  <g id="g3337" transform="translate(1,-1)">
   <rect id="rect3371" x=".5" y=".5" width="21" height="21.5" rx="2.5" ry="2.5" fill="url(#linearGradient3335)" opacity=".3"/>
   <rect id="rect2553" x="1" y="2" width="20" height="20" rx="2.381" ry="2.3256" opacity=".5"/>
  </g>
  <rect id="rect3173" x="2" width="20" height="20" rx="2" ry="2" fill="url(#linearGradient3181)" fill-rule="evenodd"/>
  <path id="rect3050" d="m4 0c-1.108 0-2 0.892-2 2v16c0 1.108 0.892 2 2 2h16c1.108 0 2-0.892 2-2v-16c0-1.108-0.892-2-2-2h-16zm0 1.0312h16c0.5497 0 0.96875 0.41905 0.96875 0.96875v16c0 0.5497-0.41905 0.96875-0.96875 0.96875h-16c-0.5497 0-0.96875-0.41905-0.96875-0.96875v-16c0-0.5497 0.41905-0.96875 0.96875-0.96875z" fill="url(#linearGradient3961)" fill-rule="evenodd" opacity=".35"/>
  <path id="path3235" d="m4 20c-1.108 0-2-0.892-2-2v-1c0 1.108 0.892 2 2 2h16c1.108 0 2-0.892 2-2v1c0 1.108-0.892 2-2 2h-16z" fill="url(#linearGradient3845)" fill-rule="evenodd" opacity=".2"/>
 </g>
 <g id="layer2" transform="translate(0,2)">
  <rect id="rect2410" transform="translate(1,-1)" x="3" y="3" width="16" height="16" rx="2" ry="2" clip-path="url(#clipPath2849)" fill="#fff" filter="url(#filter3194)" opacity=".15"/>
 </g>
 <defs id="defs37">
  <linearGradient id="a" x1="8" x2="8" y1="2" y2="14" gradientUnits="userSpaceOnUse">
   <stop id="stop32" stop-color="#c50000" offset="0"/>
   <stop id="stop34" stop-color="#950000" offset="1"/>
  </linearGradient>
 </defs>
 <path id="base" transform="translate(4,4)" d="m10.34 13.863c0-0.12988 0.04661-0.26665 0.10359-0.30393 0.23025-0.15066 0.07892-0.27422-0.33665-0.27488-0.38028-5.4e-4 -0.46428-0.04541-0.6167-0.32902-0.12178-0.22659-0.2563-0.32833-0.43413-0.32833-0.14172 0-0.28658-0.04953-0.32192-0.11008-0.03534-0.06054-0.16628-0.08306-0.29098-0.05004-0.14758 0.03909-0.35126-0.03734-0.5835-0.21894-0.43104-0.33706-0.5237-0.34713-0.5237-0.05693 0 0.1413-0.10353 0.26374-0.28467 0.33665-0.40685 0.16377-0.62608 0.40393-0.70175 0.76874-0.08668 0.41782-0.34186 0.41033-0.72926-0.02142-0.16733-0.18648-0.47752-0.43343-0.68929-0.54876-0.21883-0.11917-0.36355-0.26904-0.33523-0.34716 0.0274-0.07561-0.05189-0.18647-0.1762-0.24637-0.33037-0.15919-0.4974-0.55932-0.57094-1.3677-0.03436-0.37768-0.0031-0.52332 0.13555-0.63062 0.16602-0.12853 0.16233-0.13953-0.04675-0.13953-0.12483 0-0.22697-0.066385-0.22697-0.14751 0-0.19093-0.33425-0.51053-0.53393-0.51053-0.24441 0-0.60552-0.4784-0.60552-0.8022 0-0.37807 0.33593-0.73323 0.69354-0.73323 0.16095 0 0.40065 0.12321 0.56598 0.2909 0.24334 0.24683 0.31159 0.26911 0.4505 0.14705 0.13677-0.12018 0.22688-0.1094 0.54757 0.065538 0.21112 0.11517 0.57031 0.20939 0.7982 0.20939h0.41434l-0.03337-0.45061c-0.03216-0.43424 0.16558-1.0703 0.71454-2.2984 0.10962-0.24525 0.19931-0.54582 0.19931-0.66794s0.13595-0.5137 0.30211-0.87018 0.37498-0.83686 0.46405-1.0675c0.14074-0.3645 0.19271-0.40828 0.3971-0.33466 0.12934 0.046586 0.33432 0.080509 0.45551 0.075373 0.32086-0.013594 0.81986-0.30146 0.7889-0.4551-0.02901-0.14397 0.50019-0.054685 0.59785 0.10086 0.02932 0.046702 0.14294 0.076115 0.2525 0.065368 0.1415-0.01388 0.22718 0.080996 0.2958 0.32756 0.05827 0.20935 0.18416 0.37197 0.31722 0.40978 0.40486 0.11503 0.77906 0.067539 0.87334-0.11084 0.08575-0.16224 0.09847-0.16224 0.15727 0 0.08723 0.24068 0.34129 0.22157 0.70558-0.053076 0.42482-0.32027 0.64999-0.20668 0.56304 0.28405-0.03715 0.20964-0.01785 0.47946 0.04288 0.5996 0.09399 0.18594 0.1794 0.20843 0.57414 0.15114l0.46373-0.067295v0.40421c0 0.22232 0.06948 0.54646 0.15439 0.72032 0.21775 0.44582 0.67139 1.9822 0.67297 2.2792 7.55e-4 0.13654-0.0548 0.3434-0.1234 0.4597-0.09793 0.16603-0.09522 0.33333 0.01264 0.77886 0.13407 0.55384 0.13111 0.57302-0.12361 0.80154-0.18079 0.1622-0.27781 0.38283-0.3158 0.71817-0.07755 0.68445-0.35471 1.0312-0.90342 1.1304-0.58441 0.10563-0.81676 0.3356-0.64067 0.63413 0.0701 0.11885 0.12746 0.26249 0.12746 0.3192 0 0.17759-0.34985 0.19676-0.65857 0.03607-0.16281-0.08474-0.40753-0.12444-0.54383-0.08822-0.20181 0.05363-0.24781 0.02355-0.24781-0.16206 0-0.12535 0.04662-0.19741 0.10359-0.16013s0.10742 0.0032 0.1121-0.07579c0.0047-0.07896 0.02984-0.28126 0.05589-0.44956 0.03052-0.19712-0.0278-0.41777-0.1639-0.62013-0.26535-0.39454-0.27248-0.53743-0.01449-0.29023 0.18768 0.17983 0.21147 0.17336 0.51401-0.13976 0.2032-0.21031 0.27209-0.3477 0.19166-0.38225-0.06906-0.02967-0.02232-0.05783 0.10386-0.06259 0.23408-0.00879 0.44388-0.29511 0.44388-0.60569 0-0.095024-0.18469-0.30801-0.41041-0.47332l-0.41041-0.30056-0.0039-1.1895c-0.0034-1.0299 0.02474-1.2321 0.20979-1.5073 0.23932-0.35583 0.19315-0.53863-0.13604-0.53863-0.21644 0-0.21683-0.00318-0.01978-0.16102 0.11326-0.090705 0.14453-0.16254 0.07159-0.16451-0.07122-0.00191-0.12948-0.055755-0.12948-0.11963 0-0.063886 0.04661-0.085644 0.10358-0.048364 0.05697 0.037279 0.10359-0.010715 0.10359-0.10664 0-0.095935-0.06992-0.20283-0.15538-0.23755-0.08546-0.034727-0.15538-0.13188-0.15538-0.21591 0-0.084024-0.04661-0.15278-0.10359-0.15278-0.05697 0-0.19598-0.097819-0.3089-0.21738-0.16595-0.17571-0.25661-0.19673-0.47288-0.10967-0.14716 0.059238-0.5496 0.10771-0.89431 0.10771-0.59847 0-0.64374 0.019683-1.0035 0.43642-0.32333 0.37451-2.36 3.6654-2.6908 4.348-0.18685 0.38546-0.08507 1.0269 0.19912 1.255 0.24654 0.19785 0.25219 0.19714 0.31836-0.040043 0.04621-0.16564 0.07061-0.18366 0.07769-0.057385 0.02185 0.3896 0.2975 0.50943 1.3543 0.58876 0.56931 0.04273 1.1101 0.13577 1.2018 0.20674 0.09167 0.07097 0.20954 0.37196 0.26193 0.66887 0.11727 0.66461 0.25567 0.81907 0.8036 0.89688 0.25052 0.03557 0.4286 0.11949 0.4286 0.20196 0 0.07761 0.03037 0.22491 0.0675 0.32734 0.05665 0.15631 0.03495 0.16779-0.13506 0.07146-0.11938-0.06765-0.26238-0.07564-0.34824-0.01945-0.12318 0.0806-0.11978 0.126 0.02204 0.29395 0.15614 0.18491 0.14692 0.22484-0.1336 0.57834-0.26649 0.33582-0.30132 0.35241-0.30132 0.14356zm-9.1966-3.2377c-0.10905-0.14047-0.16014-0.36221-0.13839-0.60068 0.0067-0.074008 0.12881-0.21541 0.27124-0.31422 0.23989-0.16642 0.27804-0.16642 0.51793 0 0.28216 0.19574 0.35418 0.68796 0.13466 0.92038-0.16279 0.17235-0.65003 0.16895-0.78544-0.0055zm7.8279-2.0954c-0.21886-0.23172-0.13826-0.51583 0.29086-1.0253l0.35064-0.41626 0.20824 0.25891c0.11453 0.1424 0.20824 0.32412 0.20824 0.40381 0 0.079693 0.14343 0.25303 0.31874 0.38519 0.41308 0.31142 0.29572 0.42115-0.53868 0.50364-0.53815 0.053203-0.70446 0.031371-0.83802-0.11004zm-0.49582-6.3254c0-0.14136 0.29512-0.26902 0.38992-0.16865 0.03862 0.04089 0.0017 0.12026-0.08216 0.17638-0.20052 0.13426-0.30776 0.13157-0.30776-0.00773z" fill="url(#a)"/>
 <path id="path40" d="m12.764 5c-0.123 1.87e-4 -0.28906 0.099058-0.28906 0.20508 0 0.1393 0.10807 0.14207 0.30859 0.0078125 0.08386-0.05612 0.12065-0.13684 0.082031-0.17773-0.0237-0.025092-0.060563-0.035218-0.10156-0.035156zm0.63281 0.37891c-0.047059 0.009445-0.073658 0.030414-0.066406 0.066406 0.03096 0.15364-0.4682 0.44148-0.78906 0.45508-0.12119 0.005136-0.32769-0.029586-0.45703-0.076172-0.20439-0.07362-0.25574-0.028562-0.39648 0.33594-0.08907 0.23064-0.29673 0.70993-0.46289 1.0664s-0.30273 0.74897-0.30273 0.87109c0 0.12212-0.089599 0.42272-0.19922 0.66797-0.54896 1.2281-0.747 1.8646-0.71484 2.2988l0.033204 0.44922h-0.41406c-0.22789 0-0.58771-0.093815-0.79883-0.20898-0.32069-0.17494-0.4101-0.18659-0.54688-0.066407-0.13891 0.12206-0.20783 0.10035-0.45117-0.14648-0.16533-0.16769-0.40546-0.29102-0.56641-0.29102-0.35761 0-0.69336 0.3563-0.69336 0.73438 0 0.1572 0.087578 0.34822 0.20312 0.50586 0.12983-0.14367 0.30556-0.24024 0.49023-0.24024 0.16095 0 0.40108 0.12333 0.56641 0.29102 0.24334 0.24683 0.31226 0.26854 0.45117 0.14648 0.13677-0.12018 0.22618-0.10853 0.54688 0.066407 0.21112 0.11517 0.57094 0.20898 0.79883 0.20898h0.41406l-0.033204-0.44922c-0.03216-0.43424 0.16588-1.0707 0.71484-2.2988 0.10962-0.24525 0.19922-0.54585 0.19922-0.66797 0-0.12212 0.13657-0.51461 0.30273-0.87109s0.37382-0.83577 0.46289-1.0664c0.14074-0.3645 0.19209-0.40956 0.39648-0.33594 0.12934 0.046586 0.33584 0.081308 0.45703 0.076172 0.32086-0.013594 0.82002-0.30144 0.78906-0.45508-0.02901-0.14397 0.5-0.053982 0.59766 0.10156 0.02932 0.046702 0.14239 0.0752 0.25195 0.064453 0.1415-0.01388 0.2263 0.081561 0.29492 0.32812 8.5e-4 0.0030514 0.003029 0.0047813 0.003907 0.0078125 0.26515-0.016444 0.52258-0.047424 0.63281-0.091797 0.21627-0.08706 0.30671-0.066335 0.47266 0.10938 0.11292 0.11956 0.25358 0.2168 0.31055 0.2168 0.05698 0 0.10352 0.06832 0.10352 0.15234 0 0.019266 0.012835 0.038858 0.019531 0.058594 0.12654 0.016544 0.297-0.04515 0.51172-0.20703 0.42482-0.32027 0.64945-0.20753 0.5625 0.2832-0.03715 0.20964-0.017761 0.47947 0.042969 0.59961 0.09399 0.18594 0.17948 0.20768 0.57422 0.15039l0.46289-0.066406v0.4043c0 0.22232 0.069387 0.54684 0.1543 0.7207 0.1644 0.33659 0.41157 1.1709 0.54883 1.748 0.001601-0.002815 2.94e-4 -0.006954 0.001953-0.009766 0.0686-0.1163 0.1238-0.32244 0.12305-0.45898-0.00158-0.297-0.45608-1.8335-0.67383-2.2793-0.08491-0.17386-0.1543-0.49838-0.1543-0.7207v-0.4043l-0.46289 0.066406c-0.39474 0.05729-0.48023 0.035549-0.57422-0.15039-0.06073-0.12014-0.080119-0.38997-0.042969-0.59961 0.08695-0.49073-0.13768-0.60347-0.5625-0.2832-0.36429 0.27465-0.61785 0.29341-0.70508 0.052734-0.0588-0.16224-0.072453-0.16224-0.1582 0-0.09428 0.17838-0.46819 0.22636-0.87305 0.11133-0.13306-0.03781-0.26009-0.20081-0.31836-0.41016-0.06862-0.24656-0.15342-0.342-0.29492-0.32812-0.10956 0.010747-0.22263-0.017751-0.25195-0.064453-0.073245-0.11666-0.39007-0.1963-0.53125-0.16797zm-0.63281 0.62109c0.040999-6.23e-5 0.077862 0.010064 0.10156 0.035156 0.03862 0.04089 0.001829 0.12161-0.082031 0.17773-0.20052 0.13426-0.30859 0.13149-0.30859-0.0078125 0-0.10602 0.16607-0.20489 0.28906-0.20508zm3.4727 3.0723c-0.017536 0.036387-0.035648 0.079731-0.048828 0.12109 0.068259-0.064263 0.089275-0.1097 0.048828-0.12109zm-0.09375 0.3125c-0.031781 0.21429-0.038853 0.5205-0.037109 1.0488l0.003906 0.90625c-2.73e-4 -0.91342 0.02841-1.1494 0.20508-1.4121 0.23932-0.35583 0.19247-0.53906-0.13672-0.53906-0.02313 0-0.016937-0.0036487-0.035156-0.0039063zm-2.5293 0.70313-0.35156 0.41602c-0.42912 0.50947-0.50988 0.79367-0.29102 1.0254 0.050526 0.053495 0.11315 0.085741 0.19141 0.10742 0.035068-0.045273 0.058048-0.083469 0.09961-0.13281l0.35156-0.41602 0.20703 0.25976c0.07107 0.088364 0.12644 0.18271 0.16406 0.26758 0.64529-0.080824 0.73961-0.1948 0.36328-0.47852-0.17531-0.13216-0.31836-0.30508-0.31836-0.38477s-0.094454-0.2619-0.20898-0.4043l-0.20703-0.25976zm5.2969 1.8418c-0.011926 0.02794-0.020002 0.063557-0.033203 0.085937-0.070654 0.11979-0.069014 0.27879-0.033203 0.50391 0.13978-0.13708 0.13775-0.27416 0.066406-0.58984zm-13.375 0.65625c-0.06951 0-0.13982 0.041789-0.25977 0.125-0.14243 0.098809-0.26283 0.24044-0.26953 0.31445-0.02175 0.23847 0.027669 0.45914 0.13672 0.59961 0.028754 0.037043 0.080759 0.062411 0.13477 0.083984 0.23447-0.16242 0.27964-0.16042 0.51172 0 0.054018-0.020531 0.10763-0.043194 0.14062-0.078125 0.21952-0.23242 0.14739-0.72418-0.13477-0.91992-0.11994-0.08321-0.19026-0.125-0.25977-0.125zm5 0.14258c-0.001367 0.002792-0.010405 0.014868-0.011718 0.017578-0.18685 0.38546-0.084972 1.0278 0.19922 1.2559 0.24654 0.19785 0.25219 0.19812 0.31836-0.039062 0.04621-0.16564 0.071045-0.18486 0.078125-0.058594 0.02185 0.3896 0.29672 0.51051 1.3535 0.58984 0.56931 0.04273 1.1095 0.13411 1.2012 0.20508 0.09167 0.07097 0.21128 0.37301 0.26367 0.66992 0.11727 0.66461 0.2548 0.81867 0.80273 0.89648 0.049917 0.007087 0.079719 0.022671 0.12305 0.033203-0.010605-0.047493-0.034675-0.095182-0.08789-0.1582-0.14182-0.16795-0.14466-0.21237-0.021485-0.29297 0.08586-0.05619 0.22828-0.048119 0.34766 0.019532 0.17001 0.09633 0.19142 0.084044 0.13477-0.072266-0.03713-0.10243-0.068359-0.25052-0.068359-0.32812 0-0.08247-0.17722-0.1656-0.42774-0.20117-0.54793-0.07781-0.68546-0.23187-0.80273-0.89648-0.05239-0.29691-0.172-0.59895-0.26367-0.66992-0.0917-0.07097-0.63186-0.16235-1.2012-0.20508-1.0568-0.07933-1.3317-0.20024-1.3535-0.58984-0.00708-0.12627-0.031915-0.10705-0.078125 0.058594-0.06617 0.23718-0.07182 0.23691-0.31836 0.039062-0.078577-0.063069-0.13906-0.16132-0.1875-0.27344zm6.041 0.24609c-0.029994 0.010499-0.058538 0.02812-0.089844 0.029297-0.12618 0.00476-0.17258 0.03283-0.10352 0.0625 0.08043 0.03455 0.009841 0.17055-0.19336 0.38086-0.30254 0.31312-0.32599 0.32046-0.51367 0.14062-0.25799-0.2472-0.24972-0.10352 0.015625 0.29102 0.1361 0.20236 0.19458 0.42202 0.16406 0.61914-0.011332 0.073209-0.016011 0.12219-0.025391 0.19531 0.083298 0.024039 0.16136-0.041158 0.35938-0.24609 0.2032-0.21031 0.27379-0.34631 0.19336-0.38086-0.06906-0.02967-0.022664-0.05774 0.10352-0.0625 0.23408-0.0088 0.44336-0.29489 0.44336-0.60547 0-0.085783-0.15817-0.26763-0.35352-0.42383zm-8.6973 1.0039c0.010251 0.080292 0.018462 0.16338 0.03125 0.23438 0.020504-0.029218 0.043849-0.054622 0.074219-0.078125 0.16602-0.12853 0.1622-0.14062-0.046875-0.14062-0.022826 0-0.037771-0.011502-0.058594-0.015625zm7.8086 1.0449c-0.05697-0.03728-0.10352 0.034806-0.10352 0.16016 0 0.18561 0.044284 0.21574 0.24609 0.16211 0.004038-0.001073 0.011401 9.41e-4 0.015625 0-0.00647-0.10532-0.03405-0.20976-0.083984-0.31641-0.020319 0.013734-0.045734 0.012781-0.074219-0.005859z" opacity=".2"/>
 <path id="path50" d="m14.479 7.9473c-0.088824 0.0055086-0.17522 0.015625-0.26172 0.015625-0.59847 0-0.64219 0.01881-1.002 0.43555-0.32333 0.37451-2.3606 3.6651-2.6914 4.3477-0.13519 0.27888-0.11504 0.68904 0.011718 0.98242 0.34292-0.70043 2.3576-3.9571 2.6797-4.3301 0.35976-0.41674 0.40348-0.43555 1.002-0.43555 0.34471 0 0.74737-0.048184 0.89453-0.10742 0.21627-0.08706 0.30671-0.066335 0.47266 0.10938 0.11292 0.11956 0.25358 0.2168 0.31055 0.2168 0.05698 0 0.10352 0.06832 0.10352 0.15234 0 0.08403 0.068837 0.18207 0.1543 0.2168 0.08546 0.03472 0.15625 0.14235 0.15625 0.23828 0 0.095925-0.046546 0.14275-0.10352 0.10547-0.05697-0.03728-0.10352-0.015058-0.10352 0.048828 0 0.06388 0.057687 0.11724 0.12891 0.11914 0.007022 1.9e-4 7.49e-4 0.008326 0.005859 0.009766 0.023533-0.048829 0.045553-0.096091 0.078125-0.14453 0.23932-0.35583 0.19247-0.53906-0.13672-0.53906-0.21644 0-0.21658-0.0042694-0.019531-0.16211 0.11326-0.090705 0.14521-0.16209 0.072266-0.16406-0.07122-0.00191-0.12891-0.055266-0.12891-0.11914 0-0.063886 0.046546-0.086108 0.10352-0.048828 0.05697 0.037279 0.10352-0.0095437 0.10352-0.10547 0-0.095935-0.07079-0.20356-0.15625-0.23828-0.065866-0.026765-0.11226-0.091862-0.13477-0.1582-0.088144-0.011524-0.15754-0.055478-0.19336-0.1543-0.0588-0.16224-0.072453-0.16224-0.1582 0-0.09428 0.17838-0.46819 0.22636-0.87305 0.11133-0.13112-0.037259-0.2551-0.1974-0.31445-0.40234zm1.709 2.2461c-0.012694 0.011951-0.013247 0.020351-0.029297 0.033203-0.17599 0.14095-0.16788 0.15605-0.015625 0.1582 0.01114-0.075114 0.026854-0.1347 0.044922-0.19141zm2.6875 1.832c-0.092918 0.16334-0.092361 0.33155 0.013672 0.76953 0.017319 0.071545 0.008986 0.079461 0.021484 0.13477 0.050051-0.11726 0.090454-0.26278 0.089844-0.37305-3.87e-4 -0.072767-0.080459-0.34396-0.125-0.53125zm-2.7656 0.31445c1.3e-5 0.043338-0.00406 0.047098-0.003906 0.09375l0.003906 1.1895 0.41016 0.30078c0.021943 0.01607 0.035606 0.033962 0.056641 0.050781 0.19427-0.068 0.35352-0.30713 0.35352-0.57617 0-0.09502-0.18444-0.3093-0.41016-0.47461l-0.41016-0.30078v-0.2832zm-2.125 0.27539c-0.06301 0.007893-0.10155 0.018053-0.17578 0.025391-0.33457 0.033074-0.51788 0.031724-0.64648-0.003906-0.327 0.42216-0.38907 0.6833-0.19141 0.89258 0.13356 0.14141 0.29974 0.16453 0.83789 0.11133 0.8344-0.08249 0.95214-0.19249 0.53906-0.50391-0.17531-0.13216-0.31836-0.30508-0.31836-0.38477 0-0.03024-0.021917-0.084818-0.044922-0.13672zm-7.2109 0.42578c-0.12158 0.13454-0.20312 0.31131-0.20312 0.49414 0 0.3238 0.36106 0.80078 0.60547 0.80078 0.19968 0 0.53516 0.32079 0.53516 0.51172 0 0.066287 0.074916 0.11243 0.16797 0.13086-0.0093168-0.072974-0.021928-0.13189-0.029297-0.21289-0.03436-0.37768-0.0038844-0.52356 0.13477-0.63086 0.16602-0.12853 0.1622-0.14062-0.046875-0.14062-0.12483 0-0.22656-0.065365-0.22656-0.14648 0-0.19093-0.33548-0.51172-0.53516-0.51172-0.12575 0-0.27988-0.12785-0.40234-0.29492zm12.07 0.47852c-0.025297 0.024807-0.044134 0.045677-0.078125 0.076172-0.18079 0.1622-0.27842 0.38341-0.31641 0.71875-0.07755 0.68445-0.35363 1.0317-0.90234 1.1309-0.58441 0.10563-0.81672 0.33428-0.64062 0.63281 0.0701 0.11885 0.12695 0.2636 0.12695 0.32031 0 0.17759-0.34948 0.19585-0.6582 0.035156-0.15799-0.08223-0.39096-0.1187-0.5293-0.087891 0.003127 0.050897 0.0173 0.10368 0.009766 0.15234-0.02605 0.1683-0.051941 0.37026-0.056641 0.44922-0.00468 0.07899-0.054358 0.11345-0.11133 0.076172-0.05697-0.03728-0.10352 0.034806-0.10352 0.16016 0 0.18561 0.044284 0.21574 0.24609 0.16211 0.1363-0.03622 0.38211 0.003151 0.54492 0.087891 0.30872 0.16069 0.6582 0.14243 0.6582-0.035156 0-0.056711-0.056853-0.20146-0.12695-0.32031-0.17609-0.29853 0.056215-0.52718 0.64062-0.63281 0.54871-0.0992 0.82479-0.44641 0.90234-1.1309 0.03799-0.33534 0.13562-0.55655 0.31641-0.71875 0.25472-0.22852 0.25712-0.24694 0.12305-0.80078-0.030042-0.12409-0.031097-0.18848-0.044922-0.27539zm-13.566 1.1895c-0.0010765 7.46e-4 -8.685e-4 0.001201-0.0019532 0.001954-0.14243 0.098809-0.26283 0.24044-0.26953 0.31445-0.02175 0.23847 0.027669 0.45914 0.13672 0.59961 0.13541 0.17445 0.62432 0.17821 0.78711 0.005859 0.21952-0.23242 0.14739-0.72418-0.13477-0.91992-0.0025492-0.001769-0.0033553-2.23e-4 -0.0058594-0.001954-0.15591 0.059261-0.36294 0.059432-0.51172 0zm2.6328 0.50391c-0.073104 0.10417-0.087381 0.25778-0.060547 0.55273 0.07354 0.80838 0.23994 1.208 0.57031 1.3672 0.12431 0.0599 0.20318 0.17048 0.17578 0.24609-0.02832 0.07812 0.11711 0.22849 0.33594 0.34766 0.21177 0.11533 0.52212 0.36235 0.68945 0.54883 0.3874 0.43175 0.64184 0.4393 0.72852 0.021484 0.07567-0.36481 0.29432-0.60576 0.70117-0.76953 0.18114-0.07291 0.28516-0.19464 0.28516-0.33594 0-0.2902 0.092397-0.28042 0.52344 0.056641 0.23224 0.1816 0.4364 0.25784 0.58398 0.21875 0.1247-0.03302 0.25568-0.009759 0.29102 0.050781 0.03534 0.06055 0.18055 0.10938 0.32227 0.10938 0.17783 0 0.31181 0.10154 0.43359 0.32812 0.15242 0.28361 0.23691 0.32954 0.61719 0.33008 0.41557 6.6e-4 0.56619 0.12278 0.33594 0.27344-0.05698 0.03728-0.10352 0.17481-0.10352 0.30469 0 0.20885 0.034291 0.19129 0.30078-0.14453 0.28052-0.3535 0.29091-0.39322 0.13477-0.57812-0.14182-0.16795-0.14466-0.21237-0.021485-0.29297 0.08586-0.05619 0.22828-0.048119 0.34766 0.019532 0.17001 0.096329 0.19142 0.084044 0.13477-0.072266-0.03713-0.10243-0.068359-0.25052-0.068359-0.32812 0-0.066038-0.13056-0.12564-0.30469-0.16797 0.020513 0.091857-0.037743 0.1869-0.22266 0.41992-0.26649 0.33582-0.30078 0.35338-0.30078 0.14453 0-0.12988 0.046535-0.26741 0.10352-0.30469 0.23025-0.15066 0.079633-0.27278-0.33594-0.27344-0.38028-5.4e-4 -0.46477-0.046468-0.61719-0.33008-0.12178-0.22659-0.25576-0.32812-0.43359-0.32812-0.14172 0-0.28693-0.048825-0.32227-0.10938-0.03534-0.06054-0.16632-0.083801-0.29102-0.050781-0.14758 0.03909-0.35174-0.03715-0.58398-0.21875-0.43104-0.33706-0.52344-0.34684-0.52344-0.056641 0 0.1413-0.10402 0.26303-0.28516 0.33594-0.40685 0.16377-0.6255 0.40472-0.70117 0.76953-0.08668 0.41782-0.34112 0.41027-0.72852-0.021484-0.16733-0.18648-0.47768-0.4335-0.68945-0.54883-0.21883-0.11917-0.36426-0.26954-0.33594-0.34766 0.0274-0.07561-0.051471-0.18619-0.17578-0.24609-0.26084-0.12569-0.41819-0.4115-0.50977-0.91992zm7.623 0.25976c-0.094396-0.045605-0.040809 0.11034 0.1582 0.40625 0.032982 0.049039 0.046624 0.099799 0.070313 0.15039 0.020318-0.013734 0.034769-0.042536 0.037109-0.082031 0.002656-0.044613 0.019067-0.15892 0.03125-0.25391-0.043972-0.012689-0.089452-0.043336-0.1543-0.10547-0.064497-0.0618-0.11111-0.10003-0.14258-0.11524z" fill="#fff" opacity=".5"/>
</svg>
