<?xml version="1.0" encoding="UTF-8"?>
<!-- Created with Inkscape (http://www.inkscape.org/) -->
<svg id="svg2" width="24" height="24" version="1.1" xmlns="http://www.w3.org/2000/svg" xmlns:cc="http://creativecommons.org/ns#" xmlns:dc="http://purl.org/dc/elements/1.1/" xmlns:rdf="http://www.w3.org/1999/02/22-rdf-syntax-ns#" xmlns:xlink="http://www.w3.org/1999/xlink">
 <defs id="defs4">
  <linearGradient id="linearGradient3181" x1="-1.1194" x2="-1.1194" y1="7.2582" y2="27.258" gradientTransform="translate(12.119 -5.2582)" gradientUnits="userSpaceOnUse" xlink:href="#linearGradient13214-6"/>
  <filter id="filter3194" x="-.18" y="-.18" width="1.36" height="1.36" color-interpolation-filters="sRGB">
   <feGaussianBlur id="feGaussianBlur3196" stdDeviation="1.2"/>
  </filter>
  <clipPath id="clipPath2849">
   <rect id="rect2851" x="1" y="1" width="20" height="20" rx="2" ry="2" fill="#fff" fill-rule="evenodd"/>
  </clipPath>
  <linearGradient id="linearGradient3845" x1="11" x2="21" y1="19.5" y2="19.5" gradientTransform="translate(1,-1)" gradientUnits="userSpaceOnUse" spreadMethod="reflect">
   <stop id="stop3833" stop-color="#fff" offset="0"/>
   <stop id="stop3821" stop-color="#fff" stop-opacity=".49804" offset=".75"/>
   <stop id="stop3835" stop-color="#fff" stop-opacity="0" offset="1"/>
  </linearGradient>
  <linearGradient id="linearGradient3961" x1="10" x2="10" y1="1" y2="16" gradientTransform="translate(1,1)" gradientUnits="userSpaceOnUse">
   <stop id="stop3825" stop-color="#fff" offset="0"/>
   <stop id="stop3829" stop-color="#fff" stop-opacity="0" offset="1"/>
  </linearGradient>
  <linearGradient id="linearGradient3154" x1="-3.0608" x2="-3.0608" y1="27.258" y2="7.2537" gradientTransform="translate(42.119 -7.2582)" gradientUnits="userSpaceOnUse">
   <stop id="stop3189" stop-color="#29669f" offset="0"/>
   <stop id="stop3191" stop-color="#88b6e0" offset="1"/>
  </linearGradient>
  <linearGradient id="linearGradient3164" x1="11.375" x2="11.375" y1="22" y2="-9.8173" gradientTransform="translate(1,1)" gradientUnits="userSpaceOnUse">
   <stop id="stop3330" offset="0"/>
   <stop id="stop3333" stop-opacity="0" offset="1"/>
  </linearGradient>
  <linearGradient id="linearGradient3974" x1="11" x2="11" y1="18" y2="2" gradientUnits="userSpaceOnUse">
   <stop id="stop3970" stop-color="#ebebeb" offset="0"/>
   <stop id="stop3972" stop-color="#fff" offset="1"/>
  </linearGradient>
  <linearGradient id="linearGradient3995" x1="11" x2="11" y1="18" y2="2" gradientTransform="translate(0,2)" gradientUnits="userSpaceOnUse">
   <stop id="stop3991" stop-color="#cacaca" offset="0"/>
   <stop id="stop3993" stop-color="#fff" stop-opacity="0" offset="1"/>
  </linearGradient>
  <linearGradient id="linearGradient6514-5" x1="110.97" x2="110.97" y1="976.3" y2="992.38" gradientUnits="userSpaceOnUse">
   <stop id="stop9336-9-9" stop-color="#0369a3" offset="0"/>
   <stop id="stop9338-9-02" stop-color="#023f62" offset="1"/>
  </linearGradient>
  <linearGradient id="linearGradient6510-0" x1="110.97" x2="110.97" y1="976.3" y2="992.38" gradientUnits="userSpaceOnUse" xlink:href="#linearGradient13214-6"/>
  <linearGradient id="linearGradient13214-6">
   <stop id="stop13216-6" stop-color="#18a303" offset="0"/>
   <stop id="stop13218-1" stop-color="#106802" offset="1"/>
  </linearGradient>
  <linearGradient id="linearGradient4039" x1="119" x2="119" y1="1036.3" y2="1052.5" gradientTransform="translate(-112 -1033.4)" gradientUnits="userSpaceOnUse">
   <stop id="stop13216-7-0" stop-color="#18a303" offset="0"/>
   <stop id="stop13218-2-6" stop-color="#106802" offset="1"/>
  </linearGradient>
 </defs>
 <metadata id="metadata7">
  <rdf:RDF>
   <cc:Work rdf:about="">
    <dc:format>image/svg+xml</dc:format>
    <dc:type rdf:resource="http://purl.org/dc/dcmitype/StillImage"/>
    <dc:title/>
   </cc:Work>
  </rdf:RDF>
 </metadata>
 <g id="layer1" transform="translate(0,2)">
  <rect id="rect3152" x="32" width="20" height="20" rx="2" ry="2" fill="url(#linearGradient3154)" fill-rule="evenodd"/>
  <path id="rect3371" transform="translate(0,-2)" d="m4 1.5c-1.385 0-2.5 1.115-2.5 2.5v16.5c0 1.385 1.115 2.5 2.5 2.5h16c1.385 0 2.5-1.115 2.5-2.5v-10l-9-9h-9.5zm10.5 0 8 8v-5.5c0-1.385-1.115-2.5-2.5-2.5h-5.5z" fill="url(#linearGradient3164)" opacity=".3"/>
  <path id="path3170" d="m4.375 1c-1.319 0-2.375 1.0241-2.375 2.3125v15.375c0 1.2884 1.056 2.3125 2.375 2.3125h15.25c1.319 0 2.375-1.0241 2.375-2.3125v-8.6875l-9-9h-8.625z" opacity=".5"/>
  <path id="rect2553" d="m16 1 6 6v-3.6875c0-1.2884-1.056-2.3125-2.375-2.3125h-3.625z" opacity=".4"/>
  <path id="rect3173" transform="translate(0,-2)" d="m4 2c-1.108 0-2 0.892-2 2v16c0 1.108 0.892 2 2 2h16c1.108 0 2-0.892 2-2v-9l-9-9h-9zm12 0 6 6v-4c0-1.108-0.892-2-2-2h-4z" fill="url(#linearGradient3181)" fill-rule="evenodd"/>
  <path id="path3018" d="m-26-1.8e-7c-1.108 0-2 0.892-2 2v1c0-1.108 0.892-2 2-2h16c1.108 0 2 0.892 2 2v-1c0-1.108-0.892-2-2-2h-16z" fill="#fff" fill-rule="evenodd" opacity=".25"/>
  <path id="path3020" d="m-26 20c-1.108 0-2-0.892-2-2v-1c0 1.108 0.892 2 2 2h16c1.108 0 2-0.892 2-2v1c0 1.108-0.892 2-2 2h-16z" fill-rule="evenodd" opacity=".15"/>
  <path id="path3999" d="m4 0c-1.108 0-2 0.892-2 2v16c0 1.108 0.892 2 2 2h16c1.108 0 2-0.892 2-2v-9l-1.0312-1.0312v10.031c0 0.5497-0.41905 0.96875-0.96875 0.96875h-16c-0.5497 0-0.96875-0.41905-0.96875-0.96875v-16c0-0.5497 0.41905-0.96875 0.96875-0.96875h10.031l-1.0312-1.0312h-9z" fill="url(#linearGradient3961)" fill-rule="evenodd" opacity=".25"/>
  <path id="rect3050" d="m16 0 1.0312 1.0312h2.9688c0.5497 0 0.96875 0.41905 0.96875 0.96875v2.9688l1.0312 1.0312v-4c0-1.108-0.892-2-2-2h-4z" fill="url(#linearGradient3961)" fill-rule="evenodd" opacity=".2"/>
  <path id="path3235" d="m4 20c-1.108 0-2-0.892-2-2v-1c0 1.108 0.892 2 2 2h16c1.108 0 2-0.892 2-2v1c0 1.108-0.892 2-2 2h-16z" fill="url(#linearGradient3845)" fill-rule="evenodd" opacity=".2"/>
  <path id="path3963" d="m4.875 2.0312c-0.44471 0.059988-0.78376 0.39904-0.84375 0.84375v14.25c0.059988 0.44471 0.39904 0.78376 0.84375 0.84375h14.25c0.44471-0.05999 0.78376-0.39904 0.84375-0.84375v-7.2812l-7.8125-7.8125h-7.2812z" fill="url(#linearGradient3974)" fill-rule="evenodd"/>
  <path id="path3976" transform="translate(0,-2)" d="m4.875 4.0312c-0.44471 0.059988-0.78376 0.39904-0.84375 0.84375v14.25c0.059988 0.44471 0.39904 0.78376 0.84375 0.84375h14.25c0.44471-0.05999 0.78376-0.39904 0.84375-0.84375v-7.2812l-7.8125-7.8125h-7.2812zm0.125 0.96875h6.75l7.25 7.25v6.75h-14v-14z" fill="url(#linearGradient3995)" fill-rule="evenodd"/>
  <g id="use6496" transform="matrix(.99998 0 0 .99962 -89.998 -996.01)" fill="url(#linearGradient6510-0)">
   <path id="path6506" d="m111.81 976.38c-0.4584 0.0875-0.82072 0.5334-0.8125 1v14c5e-5 0.52358 0.47642 0.99995 1 1h12c0.52358-5e-5 0.99995-0.47642 1-1v-8c6e-3 -0.26406-0.0975-0.52897-0.28125-0.71875l-6-6c-0.18978-0.1837-0.45469-0.28737-0.71875-0.28125h-6c-0.0623-6e-3 -0.12518-6e-3 -0.1875 0z" color="#000000" style="text-indent:0pt;text-transform:none"/>
   <path id="path6508" d="m121.34 976.38c-0.3315 0.10563-0.44306 0.60766-0.1875 0.84375l3 3c0.27715 0.26279 0.82915 0.0379 0.84375-0.34375v-3c-3e-5 -0.26179-0.23821-0.49997-0.5-0.5h-3c-0.0517-8e-3 -0.10459-8e-3 -0.15625 0z" color="#000000" style="text-indent:0pt;text-transform:none"/>
  </g>
 </g>
 <g id="layer2" transform="translate(0,2)" display="none">
  <rect id="rect2410" transform="translate(1,-1)" x="3" y="3" width="16" height="16" rx="2" ry="2" clip-path="url(#clipPath2849)" display="inline" fill="#fff" filter="url(#filter3194)" opacity=".15"/>
 </g>
 <g id="layer3" transform="translate(0,2)">
  <rect id="rect15622" x="7" y="9" width="10" height="7" color="#000000" fill="#b1eea8"/>
  <path id="rect6525" d="m7 9v1 1 1 1 1 1 1h1 2 1 2 1 2 1v-1-6h-3-4-2-1zm1 1h2v1h-2v-1zm3 0h2v1h-2v-1zm3 0h2v1h-2v-1zm-6 2h2v1h-2v-1zm3 0h2v1h-2v-1zm3 0h2v1h-2v-1zm-6 2h2v1h-2v-1zm3 0h2v1h-2v-1zm3 0h2v1h-2v-1z" color="#000000" fill="url(#linearGradient4039)" opacity=".8"/>
 </g>
</svg>
