<?xml version="1.0" encoding="UTF-8"?>
<svg id="svg2" width="24" height="24" version="1.1" xmlns="http://www.w3.org/2000/svg" xmlns:cc="http://creativecommons.org/ns#" xmlns:dc="http://purl.org/dc/elements/1.1/" xmlns:rdf="http://www.w3.org/1999/02/22-rdf-syntax-ns#">
 <metadata id="metadata47">
  <rdf:RDF>
   <cc:Work rdf:about="">
    <dc:format>image/svg+xml</dc:format>
    <dc:type rdf:resource="http://purl.org/dc/dcmitype/StillImage"/>
   </cc:Work>
  </rdf:RDF>
 </metadata>
 <defs id="defs4">
  <linearGradient id="linearGradient3335" x1="11.375" x2="11.375" y1="22" y2="-9.8173" gradientUnits="userSpaceOnUse">
   <stop id="stop3330" offset="0"/>
   <stop id="stop3333" stop-opacity="0" offset="1"/>
  </linearGradient>
  <linearGradient id="linearGradient3181" x1="-3.0608" x2="-3.0608" y1="27.258" y2="7.2537" gradientTransform="translate(12.119 -7.2582)" gradientUnits="userSpaceOnUse">
   <stop id="stop3189" stop-color="#ff3677" offset="0"/>
   <stop id="stop3191" stop-color="#ff8aac" offset="1"/>
  </linearGradient>
  <filter id="filter3194" x="-.18" y="-.18" width="1.36" height="1.36" color-interpolation-filters="sRGB">
   <feGaussianBlur id="feGaussianBlur3196" stdDeviation="1.2"/>
  </filter>
  <clipPath id="clipPath2849">
   <rect id="rect2851" x="1" y="1" width="20" height="20" rx="2" ry="2" fill="#fff" fill-rule="evenodd"/>
  </clipPath>
  <linearGradient id="linearGradient3845" x1="11" x2="21" y1="19.5" y2="19.5" gradientTransform="translate(1,-1)" gradientUnits="userSpaceOnUse" spreadMethod="reflect">
   <stop id="stop3833" stop-color="#fff" offset="0"/>
   <stop id="stop3821" stop-color="#fff" stop-opacity=".49804" offset=".75"/>
   <stop id="stop3835" stop-color="#fff" stop-opacity="0" offset="1"/>
  </linearGradient>
  <linearGradient id="linearGradient3961" x1="10" x2="10" y1="1" y2="16" gradientTransform="translate(1,-1)" gradientUnits="userSpaceOnUse">
   <stop id="stop3825" stop-color="#fff" offset="0"/>
   <stop id="stop3829" stop-color="#fff" stop-opacity="0" offset="1"/>
  </linearGradient>
 </defs>
 <g id="layer1" transform="translate(0,2)">
  <g id="g3337" transform="translate(1,-1)">
   <rect id="rect3371" x=".5" y=".5" width="21" height="21.5" rx="2.5" ry="2.5" fill="url(#linearGradient3335)" opacity=".3"/>
   <rect id="rect2553" x="1" y="2" width="20" height="20" rx="2.381" ry="2.3256" opacity=".5"/>
  </g>
  <rect id="rect3173" x="2" width="20" height="20" rx="2" ry="2" fill="url(#linearGradient3181)" fill-rule="evenodd"/>
  <path id="rect3050" d="m4 0c-1.108 0-2 0.892-2 2v16c0 1.108 0.892 2 2 2h16c1.108 0 2-0.892 2-2v-16c0-1.108-0.892-2-2-2h-16zm0 1.0312h16c0.5497 0 0.96875 0.41905 0.96875 0.96875v16c0 0.5497-0.41905 0.96875-0.96875 0.96875h-16c-0.5497 0-0.96875-0.41905-0.96875-0.96875v-16c0-0.5497 0.41905-0.96875 0.96875-0.96875z" fill="url(#linearGradient3961)" fill-rule="evenodd" opacity=".35"/>
  <path id="path3235" d="m4 20c-1.108 0-2-0.892-2-2v-1c0 1.108 0.892 2 2 2h16c1.108 0 2-0.892 2-2v1c0 1.108-0.892 2-2 2h-16z" fill="url(#linearGradient3845)" fill-rule="evenodd" opacity=".2"/>
 </g>
 <g id="layer2" transform="translate(0,2)">
  <rect id="rect2410" transform="translate(1,-1)" x="3" y="3" width="16" height="16" rx="2" ry="2" clip-path="url(#clipPath2849)" fill="#fff" filter="url(#filter3194)" opacity=".15"/>
 </g>
 <path id="path852" d="m4.5234 1.5c0.018539 0.17198 0.044562 0.33269 0.066406 0.5h2.3262c0.26274 2.2379 0.8363 3.9423 1.5176 5.2441a5.9526 5.9526 0 0 1 2.1094-1.0078c0.32958-1.296 0.89689-2.7219 1.8125-4.2363h2.5117c0.11339-0.16694 0.21172-0.32984 0.33594-0.5h-2.8477c-0.91561 1.5145-1.4829 2.9403-1.8125 4.2363a5.9526 5.9526 0 0 0-2.1094 1.0078c-0.68128-1.3018-1.2548-3.0062-1.5176-5.2441h-2.3926zm17.477 2.7871c-2.9232 0.34571-5.1536 1.1807-6.8242 2.1797a5.9526 5.9526 0 0 0-1.9707-0.79102c-0.055924 0.15414-0.12048 0.31336-0.16797 0.46289a5.9526 5.9526 0 0 1 2.1387 0.82812c1.6706-0.999 3.901-1.834 6.8242-2.1797v-0.5zm-4.8203 4.293c-0.075231 0.037784-0.16171 0.072841-0.23438 0.11133a5.9526 5.9526 0 0 1 0.85547 2c1.2529 0.30158 2.6599 0.8489 4.1992 1.7676v-0.5c-1.5393-0.91868-2.9463-1.466-4.1992-1.7676a5.9526 5.9526 0 0 0-0.62109-1.6113zm-15.18 0.13281v0.5c1.5052 1.0643 2.8828 1.6972 4.0996 2.0605a5.9526 5.9526 0 0 1 0.68359-2.127c-0.044366-0.07287-0.08323-0.16322-0.12695-0.23828a5.9526 5.9526 0 0 0-0.55664 1.8652c-1.2168-0.36337-2.5944-0.99629-4.0996-2.0605zm12.715 3.0371c-0.008079 0.00545-0.010737 0.014651-0.019532 0.019531l-2.2949 1.2734-2.2949 1.2715c-0.21646 0.12-0.48633-0.02945-0.48633-0.26953v0.5c0 0.24008 0.26986 0.38953 0.48633 0.26953l2.2949-1.2715 2.2949-1.2734c0.20748-0.11515 0.21001-0.39083 0.019532-0.51953zm2.5137 3.0664a5.9526 5.9526 0 0 1-0.13672 0.25391c0.95882 1.5118 1.7886 3.6022 2.2168 6.4297h0.076172c-0.38288-2.9452-1.201-5.0999-2.1562-6.6836zm-10.178 0.4707c-1.2186 0.6257-2.8402 1.1785-5.0508 1.4688v0.5c2.3631-0.31022 4.073-0.9165 5.3145-1.5957a5.9526 5.9526 0 0 1-0.26367-0.37305zm3.9375 2.5723c-0.35178 1.0626-0.92041 2.272-1.8652 3.6406h0.31836c0.87593-1.3621 1.4105-2.5755 1.7031-3.6152a5.9526 5.9526 0 0 1-0.15625-0.025391z" opacity=".3" stroke-width="1.4286"/>
 <path id="base" d="m4.524 1.9994c0.33317 3.0907 1.2104 5.423 2.2596 7.1463a5.9526 5.9526 0 0 0-0.68455 2.1285c-1.2168-0.36337-2.5942-0.99637-4.0994-2.0606v2.8168c1.5529 0.90853 3.0079 1.4512 4.3221 1.7513a5.9526 5.9526 0 0 0 0.9924 1.8779c-1.2415 0.6792-2.9515 1.2854-5.3146 1.5956v2.3949c3.2651-0.39345 5.6016-1.3123 7.2476-2.3759a5.9526 5.9526 0 0 0 1.8973 0.6106c-0.32855 1.1674-0.93571 2.5424-2.0215 4.1151h2.8061c0.91242-1.578 1.4378-3.0144 1.7062-4.2821a5.9526 5.9526 0 0 0 1.768-0.83801c0.66645 1.2027 1.2656 2.8509 1.5876 5.1201h2.3945c-0.40157-3.0889-1.2781-5.328-2.2936-6.9292a5.9526 5.9526 0 0 0 0.74128-1.9136c1.1859 0.35842 2.5806 1.0084 4.1668 2.1359v-2.8339c-1.5393-0.91868-2.9455-1.4665-4.1984-1.768a5.9526 5.9526 0 0 0-0.85661-1.9996c1.2617-0.66822 2.9061-1.2359 5.055-1.5138v-2.3904c-2.9232 0.34571-5.1539 1.1811-6.8245 2.1801a5.9526 5.9526 0 0 0-2.1392-0.82824c0.39134-1.2323 1.0594-2.6231 2.1666-4.1398h-2.8469c-0.91561 1.5145-1.484 2.9405-1.8136 4.2365a5.9526 5.9526 0 0 0-2.1095 1.0077c-0.68128-1.3018-1.2547-3.0064-1.5175-5.2443zm5.427 7.143c0.054399 0.00123 0.10775 0.015715 0.15486 0.041857l2.2945 1.2724 2.2945 1.2728c0.21635 0.12007 0.21635 0.41984 0 0.53991l-2.2945 1.2728-2.2945 1.2723c-0.21646 0.12-0.4869-0.03011-0.4869-0.27019v-5.0904c5.88e-5 -0.17506 0.14985-0.31567 0.33204-0.31158z" fill="#fff" stroke-width="1.4286"/>
</svg>
