<?xml version="1.0" encoding="UTF-8"?>
<!-- Created with Inkscape (http://www.inkscape.org/) -->
<svg id="svg2" width="24" height="24" version="1.1" xmlns="http://www.w3.org/2000/svg" xmlns:cc="http://creativecommons.org/ns#" xmlns:dc="http://purl.org/dc/elements/1.1/" xmlns:rdf="http://www.w3.org/1999/02/22-rdf-syntax-ns#" xmlns:xlink="http://www.w3.org/1999/xlink">
 <defs id="defs4">
  <linearGradient id="linearGradient3335" x1="11.375" x2="11.375" y1="22" y2="-9.8173" gradientUnits="userSpaceOnUse">
   <stop id="stop3330" offset="0"/>
   <stop id="stop3333" stop-opacity="0" offset="1"/>
  </linearGradient>
  <linearGradient id="linearGradient3181" x1="-3.0608" x2="-3.0608" y1="27.258" y2="7.2537" gradientTransform="translate(12.119 -7.2582)" gradientUnits="userSpaceOnUse">
   <stop id="stop3720" stop-color="#269ebf" offset="0"/>
   <stop id="stop3722" stop-color="#67c7e1" offset="1"/>
  </linearGradient>
  <filter id="filter3194" x="-.18" y="-.18" width="1.36" height="1.36" color-interpolation-filters="sRGB">
   <feGaussianBlur id="feGaussianBlur3196" stdDeviation="1.2"/>
  </filter>
  <clipPath id="clipPath2849">
   <rect id="rect2851" x="1" y="1" width="20" height="20" rx="2" ry="2" fill="#fff" fill-rule="evenodd"/>
  </clipPath>
  <linearGradient id="linearGradient3856" x1="15" x2="106.51" y1="47.277" y2="47.025" gradientTransform="matrix(.24242 0 0 .24242 .36364 .87878)" gradientUnits="userSpaceOnUse">
   <stop id="stop3773" stop-color="#158499" offset="0"/>
   <stop id="stop3775" stop-color="#158499" stop-opacity="0" offset="1"/>
  </linearGradient>
  <clipPath id="clipPath3676">
   <path id="path3678" d="m-27 3c-1.108 0-2 0.892-2 2v16c0 1.108 0.892 2 2 2h16c1.108 0 2-0.892 2-2v-16c0-1.108-0.892-2-2-2h-16zm8 3c4.4183 0 8 2.9163 8 6.5312s-3.5817 6.5625-8 6.5625c-0.65792 0-1.2945-0.06495-1.9062-0.1875-0.82246 0.85847-2.3859 2.0035-4.7188 1.75 1.8011-0.50914 2.1977-2.0168 2.2812-2.625-2.197-1.1667-3.6562-3.1973-3.6562-5.5 0-3.615 3.5817-6.5312 8-6.5312z" fill="url(#linearGradient3680)" fill-rule="evenodd"/>
  </clipPath>
  <linearGradient id="linearGradient3680" x1="-3.0608" x2="-3.0608" y1="27.258" y2="7.2537" gradientTransform="translate(-18.881 -4.2582)" gradientUnits="userSpaceOnUse">
   <stop id="stop3616" stop-color="#064096" offset="0"/>
   <stop id="stop3618" stop-color="#4484e5" offset="1"/>
  </linearGradient>
  <filter id="filter3682" x="-.2301" y="-.25079" width="1.4602" height="1.5016" color-interpolation-filters="sRGB">
   <feGaussianBlur id="feGaussianBlur3684" stdDeviation="1.534"/>
  </filter>
  <linearGradient id="linearGradient3744" x1="12" x2="12" y1="17" y2="4.9584" gradientTransform="translate(-30)" gradientUnits="userSpaceOnUse">
   <stop id="stop3740" stop-color="#6dc2d7" offset="0"/>
   <stop id="stop3742" stop-color="#b1ecfa" offset="1"/>
  </linearGradient>
  <linearGradient id="linearGradient3845" x1="11" x2="21" y1="19.5" y2="19.5" gradientTransform="translate(1,-1)" gradientUnits="userSpaceOnUse" spreadMethod="reflect">
   <stop id="stop3833" stop-color="#fff" offset="0"/>
   <stop id="stop3821" stop-color="#fff" stop-opacity=".49804" offset=".75"/>
   <stop id="stop3835" stop-color="#fff" stop-opacity="0" offset="1"/>
  </linearGradient>
  <linearGradient id="linearGradient3938" x1="10" x2="10" y1="1" y2="16" gradientTransform="translate(1,-1)" gradientUnits="userSpaceOnUse">
   <stop id="stop3825" stop-color="#fff" offset="0"/>
   <stop id="stop3829" stop-color="#fff" stop-opacity="0" offset="1"/>
  </linearGradient>
 </defs>
 <metadata id="metadata7">
  <rdf:RDF>
   <cc:Work rdf:about="">
    <dc:format>image/svg+xml</dc:format>
    <dc:type rdf:resource="http://purl.org/dc/dcmitype/StillImage"/>
    <dc:title/>
   </cc:Work>
  </rdf:RDF>
 </metadata>
 <g id="layer1" transform="translate(0,2)">
  <g id="g3337" transform="translate(1,-1)">
   <rect id="rect3371" x=".5" y=".5" width="21" height="21.5" rx="2.5" ry="2.5" fill="url(#linearGradient3335)" opacity=".3"/>
   <rect id="rect2553" x="1" y="2" width="20" height="20" rx="2.381" ry="2.3256" opacity=".5"/>
  </g>
  <rect id="rect3173" x="2" width="20" height="20" rx="2" ry="2" fill="url(#linearGradient3181)" fill-rule="evenodd"/>
  <path id="rect3050" d="m4 0c-1.108 0-2 0.892-2 2v16c0 1.108 0.892 2 2 2h16c1.108 0 2-0.892 2-2v-16c0-1.108-0.892-2-2-2h-16zm0 1.0312h16c0.5497 0 0.96875 0.41905 0.96875 0.96875v16c0 0.5497-0.41905 0.96875-0.96875 0.96875h-16c-0.5497 0-0.96875-0.41905-0.96875-0.96875v-16c0-0.5497 0.41905-0.96875 0.96875-0.96875z" fill="url(#linearGradient3938)" fill-rule="evenodd" opacity=".4"/>
  <path id="path3235" d="m4 20c-1.108 0-2-0.892-2-2v-1c0 1.108 0.892 2 2 2h16c1.108 0 2-0.892 2-2v1c0 1.108-0.892 2-2 2h-16z" fill="url(#linearGradient3845)" fill-rule="evenodd" opacity=".25"/>
 </g>
 <g id="layer4">
  <path id="path3668" transform="translate(31,-1)" d="m-19 6c-4.4183 0-8 2.9305-8 6.5455 0 2.3027 1.4545 4.3257 3.6515 5.4924-0.08354 0.60818-0.464 2.0969-2.2652 2.6061 2.3328 0.25353 3.8821-0.88395 4.7045-1.7424 0.61176 0.12255 1.2512 0.1894 1.9091 0.1894 4.4183 0 8-2.9305 8-6.5455s-3.5817-6.5455-8-6.5455z" clip-path="url(#clipPath3676)" fill="#fff" filter="url(#filter3682)" opacity=".2"/>
  <path id="path3620" d="m12 5c-4.4183 0-8 2.9305-8 6.5455 0 2.3027 1.4545 4.3257 3.6515 5.4924-0.083545 0.60818-0.464 2.0969-2.2652 2.6061 2.3328 0.25353 3.8821-0.88395 4.7045-1.7424 0.61176 0.12255 1.2512 0.1894 1.9091 0.1894 4.4183 0 8-2.9305 8-6.5455s-3.5817-6.5455-8-6.5455z" fill="url(#linearGradient3856)" opacity=".6"/>
  <path id="path3686" d="m12 5c-4.4183 0-8 2.9163-8 6.5312 0 2.3027 1.4592 4.3333 3.6562 5.5-0.083545 0.60818-0.4801 2.1159-2.2812 2.625 2.3328 0.25353 3.8963-0.89153 4.7188-1.75 0.61176 0.12255 1.2483 0.1875 1.9062 0.1875 4.4183 0 8-2.9475 8-6.5625s-3.5817-6.5312-8-6.5312zm0 1c3.983 0 7 2.5697 7 5.5312 0 2.9616-3.0217 5.5625-7 5.5625-0.59282 0-1.1706-0.04644-1.7188-0.15625a0.98928 0.98928 0 0 0-0.90625 0.28125c-0.24961 0.26054-0.6632 0.52836-1.0625 0.78125 0.093107-0.2904 0.28563-0.64817 0.3125-0.84375a0.98928 0.98928 0 0 0-0.5-1c-1.9374-1.0289-3.125-2.7403-3.125-4.625 0-2.9616 3.017-5.5312 7-5.5312z" opacity=".15"/>
  <path id="path3695" d="m4 11.719c-0.00624 0.10608 0 0.20516 0 0.3125 0 2.2671 1.4221 4.2629 3.5625 5.4375 0.042623-0.16032 0.078348-0.32538 0.09375-0.4375-2.1385-1.1356-3.5813-3.0861-3.6562-5.3125zm16 0.0625c-0.1574 3.5015-3.6819 6.3125-8 6.3125-0.65792 0-1.2945-0.06495-1.9062-0.1875-0.6989 0.7295-1.9354 1.6423-3.7188 1.75-0.27106 0.18759-0.60284 0.38773-1 0.5 2.3328 0.25353 3.8963-0.89153 4.7188-1.75 0.61176 0.12255 1.2483 0.1875 1.9062 0.1875 4.4183 0 8-2.9475 8-6.5625 0-0.08588 4e-3 -0.16493 0-0.25z" fill="#fff" opacity=".2"/>
 </g>
 <g id="layer2" transform="translate(0,2)" display="none">
  <rect id="rect2410" x="3" y="3" width="16" height="16" rx="2" ry="2" clip-path="url(#clipPath2849)" display="inline" fill="#fff" filter="url(#filter3194)" opacity=".15"/>
 </g>
 <g id="layer3" transform="translate(0,2)">
  <path id="path3732" transform="translate(-20,1.5625)" d="m8.5 3.0625c-1.326 0-2.4375 1.1115-2.4375 2.4375v3 4.5c0 2.1553 1.7822 3.9375 3.9375 3.9375h4.5c1.326 0 2.4375-1.1115 2.4375-2.4375s-1.1115-2.4375-2.4375-2.4375h-1.5-2.0625v-1.125h3.5625c1.326 0 2.4375-1.1115 2.4375-2.4375s-1.1115-2.4375-2.4375-2.4375h-3.5625v-0.5625c0-1.326-1.1115-2.4375-2.4375-2.4375z" fill="#006680"/>
  <path id="path3711" transform="translate(-30,1)" d="m8.5 3.0625c-1.326 0-2.4375 1.1115-2.4375 2.4375v3 4.5c0 2.1553 1.7822 3.9375 3.9375 3.9375h4.5c1.326 0 2.4375-1.1115 2.4375-2.4375s-1.1115-2.4375-2.4375-2.4375h-1.5-2.0625v-1.125h3.5625c1.326 0 2.4375-1.1115 2.4375-2.4375s-1.1115-2.4375-2.4375-2.4375h-3.5625v-0.5625c0-1.326-1.1115-2.4375-2.4375-2.4375z" fill="#fff"/>
  <path id="rect3691" d="m-21.5 5c-0.831 0-1.5 0.669-1.5 1.5v3 4.5c0 1.6569 1.3431 3 3 3h4.5c0.831 0 1.5-0.669 1.5-1.5s-0.669-1.5-1.5-1.5h-1.5-3v-3h4.5c0.831 0 1.5-0.669 1.5-1.5s-0.669-1.5-1.5-1.5h-4.5v-1.5c0-0.831-0.669-1.5-1.5-1.5z" fill="url(#linearGradient3744)"/>
  <path id="path3746" d="m-21.5 5c-0.831 0-1.5 0.669-1.5 1.5v1c0-0.831 0.669-1.5 1.5-1.5s1.5 0.669 1.5 1.5v-1c0-0.831-0.669-1.5-1.5-1.5zm1.5 3v1h4.5c0.65788 0 1.203 0.41298 1.4062 1 0.053488-0.15448 0.09375-0.32688 0.09375-0.5 0-0.831-0.669-1.5-1.5-1.5h-4.5z" fill="#fff" opacity=".2"/>
  <path id="path3753" d="m10 7c-1.6569 0-3 1.3431-3 3v2c0 0.554 0.446 1 1 1s1-0.446 1-1v-2c0-0.55228 0.44772-1 1-1s1 0.44772 1 1v2c0 0.554 0.446 1 1 1s1-0.446 1-1v-2c0-0.55228 0.44772-1 1-1s1 0.44772 1 1v2c0 0.554 0.446 1 1 1s1-0.446 1-1v-2c0-1.6569-1.3431-3-3-3-0.76873 0-1.4692 0.29017-2 0.76562-0.53085-0.47546-1.2313-0.76562-2-0.76562z" color="#000000" fill="#006680"/>
  <path id="path3729" d="m10 6c-1.6569 0-3 1.3431-3 3v2c0 0.554 0.446 1 1 1s1-0.446 1-1v-2c0-0.55228 0.44772-1 1-1s1 0.44772 1 1v2c0 0.554 0.446 1 1 1s1-0.446 1-1v-2c0-0.55228 0.44772-1 1-1s1 0.44772 1 1v2c0 0.554 0.446 1 1 1s1-0.446 1-1v-2c0-1.6569-1.3431-3-3-3-0.76873 0-1.4692 0.29017-2 0.76562-0.53085-0.47546-1.2313-0.76562-2-0.76562z" color="#000000" fill="#fff"/>
 </g>
</svg>
