<?xml version="1.0" encoding="UTF-8"?>
<!-- Created with Inkscape (http://www.inkscape.org/) -->
<svg id="svg2" width="22" height="22" version="1.1" xmlns="http://www.w3.org/2000/svg" xmlns:cc="http://creativecommons.org/ns#" xmlns:dc="http://purl.org/dc/elements/1.1/" xmlns:rdf="http://www.w3.org/1999/02/22-rdf-syntax-ns#" xmlns:xlink="http://www.w3.org/1999/xlink">
 <defs id="defs4">
  <linearGradient id="linearGradient3335" x1="11.375" x2="11.375" y1="22" y2="-9.8173" gradientUnits="userSpaceOnUse">
   <stop id="stop3330" offset="0"/>
   <stop id="stop3333" stop-opacity="0" offset="1"/>
  </linearGradient>
  <linearGradient id="linearGradient3181" x1="-3.0608" x2="-3.0608" y1="27.258" y2="7.2537" gradientTransform="translate(11.119 -6.2582)" gradientUnits="userSpaceOnUse">
   <stop id="stop3189" stop-color="#a77549" offset="0"/>
   <stop id="stop3191" stop-color="#d2b297" offset="1"/>
  </linearGradient>
  <linearGradient id="linearGradient4335">
   <stop id="stop4337" stop-color="#7c420f" offset="0"/>
   <stop id="stop4339" stop-color="#7d430f" stop-opacity="0" offset="1"/>
  </linearGradient>
  <linearGradient id="linearGradient3373">
   <stop id="stop3375" stop-color="#9b6638" offset="0"/>
   <stop id="stop3377" stop-color="#9b6638" stop-opacity="0" offset="1"/>
  </linearGradient>
  <linearGradient id="linearGradient5669" x1="74.875" x2="84.097" y1="38.942" y2="35.583" gradientTransform="matrix(.16954 0 0 .17316 .92831 1.055)" gradientUnits="userSpaceOnUse" xlink:href="#linearGradient4335"/>
  <linearGradient id="linearGradient5672" x1="74.875" x2="84.097" y1="38.942" y2="35.583" gradientTransform="matrix(.17257 -.035647 .03503 .1756 -1.4447 2.8722)" gradientUnits="userSpaceOnUse" xlink:href="#linearGradient4335"/>
  <linearGradient id="linearGradient5675" x1="74.875" x2="83.128" y1="38.942" y2="35.639" gradientTransform="matrix(.14501 -.10197 .099713 .14746 -2.5746 8.3421)" gradientUnits="userSpaceOnUse" xlink:href="#linearGradient4335"/>
  <linearGradient id="linearGradient5678" x1="74.875" x2="83.128" y1="38.942" y2="35.639" gradientTransform="matrix(.10028 -.1478 .14437 .10187 -2.0372 13.401)" gradientUnits="userSpaceOnUse" xlink:href="#linearGradient4335"/>
  <linearGradient id="linearGradient5681" x1="74.875" x2="83.128" y1="38.942" y2="35.639" gradientTransform="matrix(.022122 -.17839 .17411 .022264 1.5498 19.151)" gradientUnits="userSpaceOnUse" xlink:href="#linearGradient4335"/>
  <linearGradient id="linearGradient5684" x1="74.791" x2="82.514" y1="38.055" y2="27.474" gradientTransform="matrix(.010483 -.1795 .17517 .010415 1.5315 20.62)" gradientUnits="userSpaceOnUse" xlink:href="#linearGradient4335"/>
  <linearGradient id="linearGradient5687" x1="75.02" x2="82.348" y1="36.698" y2="30.248" gradientTransform="matrix(-.0068171 -.21877 .21531 -.0071913 1.0058 25.488)" gradientUnits="userSpaceOnUse" xlink:href="#linearGradient4335"/>
  <linearGradient id="linearGradient5691" x1="73.539" x2="88.212" y1="63.534" y2="72.196" gradientTransform="matrix(.16791 0 0 .16791 1.0638 1.2984)" gradientUnits="userSpaceOnUse" xlink:href="#linearGradient4335"/>
  <linearGradient id="linearGradient5694" x1="32.374" x2="42.446" y1="39.8" y2="70.568" gradientTransform="matrix(.044141 -.16988 .162 .046287 .84805 18.375)" gradientUnits="userSpaceOnUse" xlink:href="#linearGradient3373"/>
  <linearGradient id="linearGradient5697" x1="32.374" x2="42.446" y1="39.8" y2="70.568" gradientTransform="matrix(.13268 -.1029 .1029 .13268 -1.5519 9.6319)" gradientUnits="userSpaceOnUse" xlink:href="#linearGradient3373"/>
  <linearGradient id="linearGradient5700" x1="32.374" x2="46.016" y1="39.8" y2="60.049" gradientTransform="matrix(.16639 -.022507 .022507 .16639 .14658 2.9849)" gradientUnits="userSpaceOnUse" xlink:href="#linearGradient3373"/>
  <radialGradient id="radialGradient5703" cx="64.532" cy="47.319" r="41.92" gradientTransform="matrix(-.16791 0 0 .18478 22.646 .19383)" gradientUnits="userSpaceOnUse">
   <stop id="stop4385" stop-color="#78471b" offset="0"/>
   <stop id="stop3355" stop-color="#bb8d64" offset=".45161"/>
   <stop id="stop3357" stop-color="#d2b297" offset=".62851"/>
   <stop id="stop4387" stop-color="#fef5e3" offset="1"/>
  </radialGradient>
  <filter id="filter3246">
   <feGaussianBlur id="feGaussianBlur3248" stdDeviation="0.31567483"/>
  </filter>
  <linearGradient id="linearGradient3845" x1="11" x2="21" y1="19.5" y2="19.5" gradientUnits="userSpaceOnUse" spreadMethod="reflect">
   <stop id="stop3833" stop-color="#fff" offset="0"/>
   <stop id="stop3821" stop-color="#fff" stop-opacity=".49804" offset=".75"/>
   <stop id="stop3835" stop-color="#fff" stop-opacity="0" offset="1"/>
  </linearGradient>
  <linearGradient id="linearGradient3938" x1="10" x2="10" y1="1" y2="16" gradientUnits="userSpaceOnUse">
   <stop id="stop3825" stop-color="#fff" offset="0"/>
   <stop id="stop3829" stop-color="#fff" stop-opacity="0" offset="1"/>
  </linearGradient>
 </defs>
 <metadata id="metadata7">
  <rdf:RDF>
   <cc:Work rdf:about="">
    <dc:format>image/svg+xml</dc:format>
    <dc:type rdf:resource="http://purl.org/dc/dcmitype/StillImage"/>
   </cc:Work>
  </rdf:RDF>
 </metadata>
 <g id="layer1">
  <g id="g3337">
   <rect id="rect3371" x=".5" y=".5" width="21" height="21.5" rx="2.5" ry="2.5" fill="url(#linearGradient3335)" opacity=".3"/>
   <rect id="rect2553" x="1" y="2" width="20" height="20" rx="2.381" ry="2.3256" opacity=".5"/>
  </g>
  <rect id="rect3173" x="1" y="1" width="20" height="20" rx="2" ry="2" fill="url(#linearGradient3181)" fill-rule="evenodd"/>
  <path id="rect3050" d="m3 1c-1.108 0-2 0.892-2 2v16c0 1.108 0.892 2 2 2h16c1.108 0 2-0.892 2-2v-16c0-1.108-0.892-2-2-2h-16zm0 1.0312h16c0.5497 0 0.96875 0.41905 0.96875 0.96875v16c0 0.5497-0.41905 0.96875-0.96875 0.96875h-16c-0.5497 0-0.96875-0.41905-0.96875-0.96875v-16c0-0.5497 0.41905-0.96875 0.96875-0.96875z" fill="url(#linearGradient3938)" fill-rule="evenodd" opacity=".4"/>
  <path id="path3235" d="m3 21c-1.108 0-2-0.892-2-2v-1c0 1.108 0.892 2 2 2h16c1.108 0 2-0.892 2-2v1c0 1.108-0.892 2-2 2h-16z" fill="url(#linearGradient3845)" fill-rule="evenodd" opacity=".25"/>
 </g>
 <g id="layer2">
  <path id="path2470" transform="matrix(1.0266 0 0 1 -.30056 .5)" d="m11.902 9.4487c-0.05791-0.5528 0.26962-0.51833 0.11184-0.6483-0.31798-0.26193-0.907 2.366e-4 -1.0585 0.31714-0.27105 0.56687 0.14332 1.1935 0.70743 1.3431 0.53832 0.14283 1.2809-0.23566 1.5188-1.0166 0.31707-1.0409-0.17886-1.8301-1.1922-2.1045-1.2752-0.34538-2.4657 0.41326-2.7753 1.6593-0.375 1.5091 0.73254 3.0819 2.2113 3.4259 0.87136 0.20269 1.8083 0.08147 2.6149-0.35415s1.4828-1.1856 1.8326-2.2406c0.73565-2.2187-0.84956-5.3983-3.5273-5.9291-4.3629-0.86188-7.4281 2.0376-8.0192 6.0033-0.50142 3.3641 1.5534 6.462 3.5541 7.7359 2.7956 1.78 6.9002 2.1627 10.445 0.70165-1.3527-6.3313-4.3341-4.7688-6.4237-8.8929z" filter="url(#filter3246)" opacity=".8"/>
  <path id="path4084" d="m11.902 8.9486c-0.05791-0.5528 0.26962-0.51833 0.11184-0.6483-0.31798-0.26193-0.907 2.366e-4 -1.0585 0.31714-0.27105 0.56687 0.14332 1.1935 0.70743 1.3431 0.53832 0.14283 1.2809-0.23566 1.5188-1.0166 0.31707-1.0409-0.17886-1.8301-1.1922-2.1045-1.2752-0.34538-2.4657 0.41326-2.7753 1.6593-0.375 1.5091 0.73254 3.0819 2.2113 3.4259 0.87136 0.20269 1.8083 0.08147 2.6149-0.35415s1.4828-1.1856 1.8326-2.2406c0.73565-2.2187-0.84956-5.3983-3.5273-5.9291-4.3629-0.86188-7.4281 2.0376-8.0192 6.0033-0.50142 3.3641 1.5534 6.462 3.5541 7.7359 2.7956 1.78 6.9002 2.1627 10.445 0.70165-1.3527-6.3313-4.3341-4.7688-6.4237-8.8929z" fill="url(#radialGradient5703)"/>
  <path id="path4395" d="m5.0679 10.87c0.12043 1.9448 1.0465 4.7004 2.9467 4.6486 1.5194-0.041373 2.8992-2.7184 1.9543-3.4281-1.1576-0.86955-1.0647-1.8734-1.479-2.5658-0.83137-1.3891-3.5468-0.6709-3.4219 1.3453z" fill="url(#linearGradient5700)" fill-rule="evenodd" opacity=".3"/>
  <path id="path4411" d="m6.5337 14.469c1.0793 1.6223 3.2622 3.9199 4.8804 2.9224 1.2939-0.79764 1.2714-4.6662 0.0979-4.8065-1.4376-0.1719-1.8605-1.0871-2.5662-1.4783-1.4158-0.78503-3.531 1.6806-2.4121 3.3624z" fill="url(#linearGradient5697)" fill-rule="evenodd" opacity=".3"/>
  <path id="path4415" d="m10.217 17.33c1.8032 0.76627 4.9636 1.2275 5.6568-0.62859 0.55423-1.4841-1.7898-4.7113-2.8118-4.089-1.252 0.76239-2.1402 0.26226-2.9394 0.37936-1.6033 0.23494-2.9443 3.0469 0.09444 4.3382z" fill="url(#linearGradient5694)" fill-rule="evenodd" opacity=".3"/>
  <path id="path4419" d="m14.169 11.66c1.2926 0.88846 2.1965 1.7661 2.1965 1.7661-3.0573-1.7661-4.2743-0.41117-5.9513-1.7766 0 0 1.0983 0.85641 3.7548 0.01046z" fill="url(#linearGradient5691)" fill-rule="evenodd" opacity=".5"/>
  <path id="path4363" d="m9 8.8242c-1.6187-1.4254-3.9085 0.35536-3.9085 0.35536l2.2394-1.9236s1.6037 0.60624 1.6691 1.5682z" fill="url(#linearGradient5687)" fill-rule="evenodd" opacity=".8"/>
  <path id="path4359" d="m9.2357 7.5915c-0.84745-1.4514-3.1893-0.48295-3.1893-0.48295l2.166-1.0134s1.0407 0.7044 1.0233 1.4964z" fill="url(#linearGradient5684)" fill-rule="evenodd" opacity=".8"/>
  <path id="path4355" d="m10.083 6.6729c-0.75128-1.5056-2.7085-0.76189-2.7085-0.76189l1.7846-0.80056s0.99265 0.77337 0.92384 1.5624z" fill="url(#linearGradient5681)" fill-rule="evenodd" opacity=".8"/>
  <path id="path4351" d="m11.174 6.3583c0.014386-1.6898-2.0579-1.9532-2.0579-1.9532l1.9449 0.13163s0.53079 1.1542 0.11298 1.8216z" fill="url(#linearGradient5678)" fill-rule="evenodd" opacity=".8"/>
  <path id="path4347" d="m12.222 6.5316c0.59914-1.5752-1.109-2.599-1.109-2.599l1.6347 0.85451s0.0964 1.2713-0.52568 1.7445z" fill="url(#linearGradient5675)" fill-rule="evenodd" opacity=".8"/>
  <path id="path4343" d="m12.86 7.1395c1.1565-1.2086 0.4887-2.7293 0.4887-2.7293l0.72042 1.3596s-0.4551 1.1839-1.2091 1.3697z" fill="url(#linearGradient5672)" fill-rule="evenodd" opacity=".8"/>
  <path id="path4333" d="m13.623 7.8947c1.3187-0.9183 0.97485-2.4891 0.97485-2.4891l0.42385 1.4285s-0.65226 1.0322-1.3987 1.0606z" fill="url(#linearGradient5669)" fill-rule="evenodd" opacity=".8"/>
  <path id="path4079" d="m11.902 8.9486c0.45686 0.035718 0.26962-0.51833 0.11184-0.6483-0.31798-0.26193-0.907 2.366e-4 -1.0585 0.31714-0.27105 0.56687 0.14332 1.1935 0.70743 1.3431 0.53832 0.14283 1.2809-0.23566 1.5188-1.0166 0.31707-1.0409-0.17886-1.8301-1.1922-2.1045-1.2752-0.34538-2.4657 0.41326-2.7753 1.6593-0.375 1.5091 0.73254 3.0819 2.2113 3.4259 1.7427 0.40537 3.7478-0.48487 4.4474-2.5947 0.73563-2.2187-0.84956-5.3983-3.5273-5.9291-4.3629-0.86188-7.4281 2.0376-8.0192 6.0033-0.50142 3.3641 1.5534 6.462 3.5541 7.7359 2.7956 1.78 7.0665 2.1866 10.445 0.70165" fill="none" stroke="#fff" stroke-width=".5"/>
 </g>
</svg>
