<?xml version="1.0" encoding="UTF-8"?>
<!-- Created with Inkscape (http://www.inkscape.org/) -->
<svg id="svg2" width="24" height="24" version="1.1" xmlns="http://www.w3.org/2000/svg" xmlns:cc="http://creativecommons.org/ns#" xmlns:dc="http://purl.org/dc/elements/1.1/" xmlns:rdf="http://www.w3.org/1999/02/22-rdf-syntax-ns#" xmlns:xlink="http://www.w3.org/1999/xlink">
 <defs id="defs4">
  <linearGradient id="linearGradient3335" x1="11.375" x2="11.375" y1="22" y2="-9.8173" gradientUnits="userSpaceOnUse">
   <stop id="stop3330" offset="0"/>
   <stop id="stop3333" stop-opacity="0" offset="1"/>
  </linearGradient>
  <linearGradient id="linearGradient3181" x1="-3.0608" x2="-3.0608" y1="27.258" y2="7.2537" gradientTransform="translate(12.119 -7.2582)" gradientUnits="userSpaceOnUse">
   <stop id="stop3702" stop-color="#b4b4b4" offset="0"/>
   <stop id="stop3704" stop-color="#e6e6e6" offset="1"/>
  </linearGradient>
  <filter id="filter3194" x="-.18" y="-.18" width="1.36" height="1.36" color-interpolation-filters="sRGB">
   <feGaussianBlur id="feGaussianBlur3196" stdDeviation="1.2"/>
  </filter>
  <clipPath id="clipPath2849">
   <rect id="rect2851" x="1" y="1" width="20" height="20" rx="2" ry="2" fill="#fff" fill-rule="evenodd"/>
  </clipPath>
  <linearGradient id="linearGradient3925" x1="38.177" x2="38.177" y1="48.85" y2="56.017" gradientTransform="matrix(1.9845 0 0 1.9845 -62.007 -94.054)" gradientUnits="userSpaceOnUse">
   <stop id="stop3820" stop-color="#a00" offset="0"/>
   <stop id="stop3822" stop-color="#d20000" offset="1"/>
  </linearGradient>
  <linearGradient id="linearGradient3845-7" x1="11" x2="21" y1="19.5" y2="19.5" gradientTransform="translate(1,-1)" gradientUnits="userSpaceOnUse" spreadMethod="reflect">
   <stop id="stop3833" stop-color="#fff" offset="0"/>
   <stop id="stop3821" stop-color="#fff" stop-opacity=".49804" offset=".75"/>
   <stop id="stop3835" stop-color="#fff" stop-opacity="0" offset="1"/>
  </linearGradient>
  <linearGradient id="linearGradient3961" x1="10" x2="10" y1="1" y2="16" gradientTransform="translate(1,-1)" gradientUnits="userSpaceOnUse">
   <stop id="stop3825" stop-color="#fff" offset="0"/>
   <stop id="stop3829" stop-color="#fff" stop-opacity="0" offset="1"/>
  </linearGradient>
 </defs>
 <metadata id="metadata7">
  <rdf:RDF>
   <cc:Work rdf:about="">
    <dc:format>image/svg+xml</dc:format>
    <dc:type rdf:resource="http://purl.org/dc/dcmitype/StillImage"/>
    <dc:title/>
   </cc:Work>
  </rdf:RDF>
 </metadata>
 <g id="layer1" transform="translate(0,2)">
  <g id="g3337" transform="translate(1,-1)">
   <rect id="rect3371" x=".5" y=".5" width="21" height="21.5" rx="2.5" ry="2.5" fill="url(#linearGradient3335)" opacity=".3"/>
   <rect id="rect2553" x="1" y="2" width="20" height="20" rx="2.381" ry="2.3256" opacity=".5"/>
  </g>
  <rect id="rect3173" x="2" width="20" height="20" rx="2" ry="2" fill="url(#linearGradient3181)" fill-rule="evenodd"/>
  <path id="rect3050" d="m4 0c-1.108 0-2 0.892-2 2v16c0 1.108 0.892 2 2 2h16c1.108 0 2-0.892 2-2v-16c0-1.108-0.892-2-2-2h-16zm0 1.0312h16c0.5497 0 0.96875 0.41905 0.96875 0.96875v16c0 0.5497-0.41905 0.96875-0.96875 0.96875h-16c-0.5497 0-0.96875-0.41905-0.96875-0.96875v-16c0-0.5497 0.41905-0.96875 0.96875-0.96875z" fill="url(#linearGradient3961)" fill-rule="evenodd" opacity=".5"/>
  <path id="path3235" d="m4 20c-1.108 0-2-0.892-2-2v-1c0 1.108 0.892 2 2 2h16c1.108 0 2-0.892 2-2v1c0 1.108-0.892 2-2 2h-16z" fill="url(#linearGradient3845-7)" fill-rule="evenodd" opacity=".3"/>
 </g>
 <g id="layer2" transform="translate(0,2)">
  <rect id="rect2410" transform="translate(1,-1)" x="3" y="3" width="16" height="16" rx="2" ry="2" clip-path="url(#clipPath2849)" fill="#fff" filter="url(#filter3194)" opacity=".15"/>
 </g>
 <g id="layer3" transform="translate(0,2)">
  <path id="path3816" d="m17.372 8.093c-1.4e-5 -0.78294-0.10466-1.4922-0.31395-2.1279-0.20932-0.63565-0.50389-1.1783-0.88372-1.6279-0.37986-0.4496-0.83722-0.79456-1.3721-1.0349-0.52714-0.24805-1.1163-0.37208-1.7674-0.37209-0.71319 1.58e-5 -1.3682 0.13955-1.9651 0.41861-0.59691 0.27908-1.1357 0.65118-1.6163 1.1163-0.47287 0.46513-0.89148 1.0039-1.2558 1.6163-0.35659 0.60466-0.65504 1.2403-0.89535 1.907-0.24031 0.66668-0.42248 1.3411-0.54651 2.0233-0.11627 0.67442-0.17442 1.3101-0.17442 1.907-3.5e-6 0.7752 0.10077 1.4767 0.30233 2.1047 0.2093 0.62791 0.5 1.1628 0.87209 1.6047 0.37209 0.44186 0.81782 0.78295 1.3372 1.0233 0.52713 0.24031 1.1124 0.36046 1.7558 0.36046 0.71317 1e-6 1.3682-0.13566 1.9651-0.40698 0.60464-0.27907 1.1473-0.64728 1.6279-1.1046 0.48836-0.45736 0.91472-0.98837 1.2791-1.593 0.36433-0.60465 0.66665-1.2364 0.90698-1.8953 0.24805-0.66666 0.4341-1.3333 0.55814-2 0.12401-0.67441 0.18603-1.3139 0.18605-1.9186m-6.6047 9.907c-0.95349 0-1.8295-0.15116-2.6279-0.45349-0.79845-0.30233-1.4845-0.7248-2.0581-1.2674-0.57365-0.55039-1.0233-1.2054-1.3488-1.9651-0.31783-0.75968-0.47674-1.6008-0.47674-2.5233-1.8e-6 -0.87596 0.089143-1.7248 0.26744-2.5465 0.17829-0.8217 0.44186-1.593 0.7907-2.314 0.34883-0.72867 0.77519-1.3953 1.2791-2 0.51162-0.60464 1.0969-1.124 1.7558-1.5581 0.66666-0.43409 1.4031-0.7713 2.2093-1.0116 0.80619-0.24029 1.6822-0.36045 2.6279-0.36047 0.95348 1.6e-5 1.8294 0.15118 2.6279 0.45349 0.79843 0.30234 1.4845 0.7287 2.0581 1.2791 0.57363 0.54265 1.0194 1.1977 1.3372 1.9651 0.32556 0.7597 0.48836 1.5969 0.48837 2.5116-1.7e-5 0.75195-0.07754 1.5194-0.23256 2.3023-0.14731 0.7752-0.37986 1.5271-0.69767 2.2558-0.31009 0.72093-0.70544 1.3992-1.186 2.0349-0.48064 0.63566-1.0543 1.1899-1.7209 1.6628-0.65893 0.47287-1.4109 0.84884-2.2558 1.1279-0.84497 0.27132-1.7907 0.40698-2.8372 0.40698" fill="url(#linearGradient3925)"/>
  <path id="path3839" transform="translate(0,-2)" d="m13.188 5c-0.47287 8e-6 -0.93702 0.033672-1.375 0.09375-0.095415 0.024907-0.18839 0.031453-0.28125 0.0625-0.15649 0.052324-0.31953 0.11774-0.46875 0.1875-0.59691 0.27908-1.1131 0.6599-1.5938 1.125-0.47287 0.46513-0.91691 1.0126-1.2812 1.625-0.35659 0.60466-0.63469 1.2396-0.875 1.9062-0.24031 0.66668-0.43847 1.3178-0.5625 2-0.11627 0.67442-0.15625 1.3094-0.15625 1.9062-6e-7 0.1294 0.025634 0.24971 0.03125 0.375 0.026278-0.40848 0.048843-0.83951 0.125-1.2812 0.12403-0.68216 0.32219-1.3333 0.5625-2 0.24031-0.66666 0.51841-1.3016 0.875-1.9062 0.36434-0.61239 0.80838-1.1599 1.2812-1.625 0.48061-0.4651 0.99684-0.84592 1.5938-1.125 0.59689-0.27906 1.2556-0.40623 1.9688-0.40625 0.65115 1.58e-5 1.2541 0.12695 1.7812 0.375 0.53487 0.24032 0.99514 0.58165 1.375 1.0312 0.37983 0.44963 0.66568 0.98935 0.875 1.625 0.16864 0.51219 0.24848 1.0797 0.28125 1.6875 0.011149-0.18753 0.031244-0.38124 0.03125-0.5625-1.4e-5 -0.78294-0.10321-1.4893-0.3125-2.125-0.20932-0.63565-0.49517-1.1754-0.875-1.625-0.37986-0.4496-0.84013-0.79093-1.375-1.0312-0.21664-0.10194-0.44991-0.18995-0.6875-0.25-0.051609-0.0059038-0.10413-0.026339-0.15625-0.03125-0.029166-0.0061402-0.06428 0.0055323-0.09375 0-0.22868-0.018897-0.44913-0.031246-0.6875-0.03125zm6.4688 5.6562c-0.02431 0.61046-0.06265 1.2132-0.1875 1.8438-0.14731 0.7752-0.36969 1.5526-0.6875 2.2812-0.31009 0.72093-0.70689 1.3956-1.1875 2.0312-0.48064 0.63566-1.0521 1.1834-1.7188 1.6562-0.65893 0.47287-1.4363 0.84593-2.2812 1.125-0.62461 0.20056-1.2965 0.3227-2.0312 0.375-0.010162 0.001406-0.021061-0.001345-0.03125 0-0.2216 0.029243-0.45336 0.03125-0.6875 0.03125-0.021952 0-0.040683 2.8e-4 -0.0625 0-0.95349 0-1.8578-0.16642-2.6562-0.46875-0.79845-0.30233-1.4576-0.70736-2.0312-1.25-0.57365-0.55039-1.0494-1.2091-1.375-1.9688-0.23837-0.56976-0.37791-1.1824-0.4375-1.8438-0.0026646 0.10628-0.03125 0.20541-0.03125 0.3125-1.8e-6 0.92248 0.15092 1.7716 0.46875 2.5312 0.32558 0.75969 0.80135 1.4184 1.375 1.9688 0.57364 0.54264 1.2328 0.94767 2.0312 1.25 0.79844 0.30233 1.7028 0.46875 2.6562 0.46875 1.0465 0 1.9675-0.13493 2.8125-0.40625 0.84495-0.27907 1.6223-0.65213 2.2812-1.125 0.66665-0.47287 1.2381-1.0206 1.7188-1.6562 0.48061-0.63566 0.87741-1.3103 1.1875-2.0312 0.31781-0.72868 0.54019-1.5061 0.6875-2.2812 0.15502-0.78294 0.21873-1.5293 0.21875-2.2812-3e-6 -0.18719-0.017613-0.3818-0.03125-0.5625z" fill="#fff" opacity=".7"/>
  <path id="path3849" transform="translate(0,-2)" d="m13.188 3c-0.94575 1.6e-5 -1.8188 0.13471-2.625 0.375-0.80621 0.24032-1.5521 0.56591-2.2188 1-0.65892 0.43412-1.2384 0.95786-1.75 1.5625-0.50388 0.60466-0.93242 1.2713-1.2812 2-0.34884 0.72094-0.60296 1.4908-0.78125 2.3125-0.1783 0.82171-0.28125 1.6553-0.28125 2.5312-3e-7 0.17832 0.019375 0.35902 0.03125 0.53125 0.026665-0.70747 0.10435-1.3912 0.25-2.0625 0.17829-0.8217 0.43241-1.5916 0.78125-2.3125 0.34883-0.72867 0.77737-1.3953 1.2812-2 0.51162-0.60464 1.0911-1.1284 1.75-1.5625 0.66666-0.43409 1.4125-0.75968 2.2188-1 0.31245-0.09313 0.63533-0.16171 0.96875-0.21875 0.092856-0.031047 0.18584-0.037593 0.28125-0.0625 0.387-0.10102 0.78965-0.15624 1.2188-0.15625 0.29334 7.1e-6 0.57558 0.043406 0.84375 0.09375 0.02947 0.0055323 0.064584-0.0061402 0.09375 0 0.052118 0.0049112 0.10464 0.025346 0.15625 0.03125 0.59374 0.06792 1.1611 0.20696 1.6875 0.40625 0.79843 0.30234 1.4888 0.69963 2.0625 1.25 0.57363 0.54265 1.0259 1.2013 1.3438 1.9688 0.24417 0.56978 0.37645 1.1868 0.4375 1.8438 0.003007-0.10529 0.031248-0.20781 0.03125-0.3125-1.7e-5 -0.91472-0.14319-1.7715-0.46875-2.5312-0.31784-0.76743-0.77012-1.4261-1.3438-1.9688-0.57366-0.55037-1.2641-0.94766-2.0625-1.25-0.79846-0.30231-1.6715-0.46873-2.625-0.46875zm4.1562 6.6562c-0.026041 0.43804-0.069415 0.87151-0.15625 1.3438-0.12404 0.66667-0.31445 1.3333-0.5625 2-0.24032 0.65892-0.54192 1.3016-0.90625 1.9062-0.36435 0.60465-0.79289 1.1364-1.2812 1.5938-0.48063 0.45736-1.0204 0.81468-1.625 1.0938-0.59691 0.27132-1.2556 0.40625-1.9688 0.40625-0.64342 1e-6 -1.2229-0.10344-1.75-0.34375-0.51939-0.24031-0.97166-0.58939-1.3438-1.0312-0.3721-0.44186-0.6657-0.96584-0.875-1.5938-0.16791-0.52309-0.22197-1.1247-0.25-1.75-0.013842 0.21516-0.03125 0.41906-0.03125 0.625-3.5e-6 0.7752 0.079696 1.4971 0.28125 2.125 0.2093 0.62791 0.5029 1.1519 0.875 1.5938 0.37209 0.44186 0.82436 0.79094 1.3438 1.0312 0.50914 0.23211 1.0699 0.33583 1.6875 0.34375 0.021817 2.8e-4 0.040548 0 0.0625 0 0.2389-0.001293 0.45919-0.015703 0.6875-0.03125 0.010189-0.001345 0.021088 0.001406 0.03125 0 0.44206-0.061176 0.85807-0.19685 1.25-0.375 0.60464-0.27907 1.1444-0.63638 1.625-1.0938 0.48836-0.45736 0.9169-0.9891 1.2812-1.5938 0.36433-0.60465 0.66593-1.2473 0.90625-1.9062 0.24805-0.66666 0.43846-1.3333 0.5625-2 0.12401-0.67441 0.18748-1.3016 0.1875-1.9062-3e-6 -0.15209-0.023351-0.29097-0.03125-0.4375z" opacity=".2"/>
 </g>
</svg>
