<?xml version="1.0" encoding="UTF-8"?>
<!-- Created with Inkscape (http://www.inkscape.org/) -->
<svg id="svg2" width="22" height="22" version="1.1" xmlns="http://www.w3.org/2000/svg" xmlns:cc="http://creativecommons.org/ns#" xmlns:dc="http://purl.org/dc/elements/1.1/" xmlns:rdf="http://www.w3.org/1999/02/22-rdf-syntax-ns#" xmlns:xlink="http://www.w3.org/1999/xlink">
 <defs id="defs4">
  <linearGradient id="linearGradient3335" x1="11.375" x2="11.375" y1="22" y2="-9.8173" gradientUnits="userSpaceOnUse">
   <stop id="stop3330" offset="0"/>
   <stop id="stop3333" stop-opacity="0" offset="1"/>
  </linearGradient>
  <linearGradient id="linearGradient3181" x1="-3.0608" x2="-3.0608" y1="27.258" y2="7.2537" gradientTransform="translate(11.119 -6.2582)" gradientUnits="userSpaceOnUse">
   <stop id="stop3189" stop-color="#700" offset="0"/>
   <stop id="stop3191" stop-color="#e72929" offset="1"/>
  </linearGradient>
  <linearGradient id="linearGradient4422" x1="68.469" x2="68.469" y1="32.188" y2="106.1" gradientTransform="matrix(.19814 0 0 .18937 -4.1579 -2.0933)" gradientUnits="userSpaceOnUse">
   <stop id="stop3547" stop-color="#fff" offset="0"/>
   <stop id="stop3549" stop-color="#dcdcdc" offset="1"/>
  </linearGradient>
  <radialGradient id="radialGradient5232" cx="63.98" cy="61.949" r="58.02" gradientTransform="matrix(.25953 0 0 .20021 -5.6045 -1.7639)" gradientUnits="userSpaceOnUse">
   <stop id="stop5228" stop-color="#fff" offset="0"/>
   <stop id="stop5230" stop-color="#fff" stop-opacity="0" offset="1"/>
  </radialGradient>
  <filter id="filter4446">
   <feGaussianBlur id="feGaussianBlur4448" stdDeviation="0.26"/>
  </filter>
  <clipPath id="clipPath2849">
   <rect id="rect2851" x="1" y="1" width="20" height="20" rx="2" ry="2" fill="#fff" fill-rule="evenodd"/>
  </clipPath>
  <filter id="filter3194" x="-.18" y="-.18" width="1.36" height="1.36" color-interpolation-filters="sRGB">
   <feGaussianBlur id="feGaussianBlur3196" stdDeviation="1.2"/>
  </filter>
  <linearGradient id="linearGradient3845" x1="11" x2="21" y1="19.5" y2="19.5" gradientUnits="userSpaceOnUse" spreadMethod="reflect">
   <stop id="stop3833" stop-color="#fff" offset="0"/>
   <stop id="stop3821" stop-color="#fff" stop-opacity=".49804" offset=".75"/>
   <stop id="stop3835" stop-color="#fff" stop-opacity="0" offset="1"/>
  </linearGradient>
  <linearGradient id="linearGradient3961" x1="10" x2="10" y1="1" y2="16" gradientUnits="userSpaceOnUse">
   <stop id="stop3825" stop-color="#fff" offset="0"/>
   <stop id="stop3829" stop-color="#fff" stop-opacity="0" offset="1"/>
  </linearGradient>
 </defs>
 <metadata id="metadata7">
  <rdf:RDF>
   <cc:Work rdf:about="">
    <dc:format>image/svg+xml</dc:format>
    <dc:type rdf:resource="http://purl.org/dc/dcmitype/StillImage"/>
   </cc:Work>
  </rdf:RDF>
 </metadata>
 <g id="layer1">
  <g id="g3337">
   <rect id="rect3371" x=".5" y=".5" width="21" height="21.5" rx="2.5" ry="2.5" fill="url(#linearGradient3335)" opacity=".3"/>
   <rect id="rect2553" x="1" y="2" width="20" height="20" rx="2.381" ry="2.3256" opacity=".5"/>
  </g>
  <rect id="rect3173" x="1" y="1" width="20" height="20" rx="2" ry="2" fill="url(#linearGradient3181)" fill-rule="evenodd"/>
  <path id="rect3050" d="m3 1c-1.108 0-2 0.892-2 2v16c0 1.108 0.892 2 2 2h16c1.108 0 2-0.892 2-2v-16c0-1.108-0.892-2-2-2h-16zm0 1.0312h16c0.5497 0 0.96875 0.41905 0.96875 0.96875v16c0 0.5497-0.41905 0.96875-0.96875 0.96875h-16c-0.5497 0-0.96875-0.41905-0.96875-0.96875v-16c0-0.5497 0.41905-0.96875 0.96875-0.96875z" fill="url(#linearGradient3961)" fill-rule="evenodd" opacity=".3"/>
  <path id="path3235" d="m3 21c-1.108 0-2-0.892-2-2v-1c0 1.108 0.892 2 2 2h16c1.108 0 2-0.892 2-2v1c0 1.108-0.892 2-2 2h-16z" fill="url(#linearGradient3845)" fill-rule="evenodd" opacity=".2"/>
 </g>
 <g id="layer2">
  <path id="path3522" d="m8.2081 0.99563c0.39289 0.52778 0.026805 1.4091 0.6194 1.4004 0.28855 0.4081-0.57511 0.12174 0.048475 0.43627 0.3586 0.28252-0.37938 0.44394 0.064711 0.69747-0.51183 0.26421 0.082963 1.3819 0.46313 1.6616 0.6257 0.52694 0.27671-1.1156 0.97488-1.2011 0.37937-0.43326 1.0457-0.71138 1.5189-1.1472-0.46245-0.037557-0.73249-0.32551-0.29453-0.50388 0.80606 0.82629 0.20212-0.39132-0.24408-0.58411 0.43175-0.13739 0.85166-0.036781 0.79175-0.39318 0.45627-0.33393-0.43863-0.44175-0.75808-0.36625h-3.1845zm-6.6195 0.34471c-0.58328 0.16624-0.62396 1.5607-0.037702 0.78637 0.14389-0.31794 0.80883-0.70111 0.037702-0.78637zm2.7254 0.048475c-0.33625 0.52746 0.04879 0.95036 0.32855 0.30701 0.19803-0.26865-0.14713-0.29716-0.32855-0.30701zm0.84023 0.11849c-0.6497 0.30124-0.16014 1.0037-0.14406 1.1599 0.68442 0.23686 1.0651-0.15487 1.324 0.51464 0.65123 0.37546-0.012814 1.0279-0.25727 1.1978 0.44032-0.38362 1.2867 1.043 1.0648 0.28927-0.26471-0.19335 0.71075 0.31061 0.20467-0.31778-0.46573-0.75063 0.03697-0.33605 0.23332-0.16086 0.66783-0.59907-0.75562-0.67148-0.40029-1.288-0.31137-0.25228-0.71974-1.0165-1.2711-0.86716-0.3691 0.47752-0.050989-1.0405-0.59252-0.28085-0.02807 0.42462-0.010202 0.96344-0.16803 0.22782-0.10573-0.12878 0.1819-0.42817 0.0065007-0.4748zm-1.325 0.00539c-0.4361 0.14544-0.41267 0.73488 0.12356 0.79807 0.18367-0.20944 0.072974-0.75841-0.12356-0.79807zm-1.702 0.18851c-0.56645 0.13426-0.33524 0.59116-0.1618 0.71984-0.70117 0.1757 1.0704 0.22455 0.18873 0.33583-0.73352 0.29306 0.70635 0.63832 0.94256 0.29085 0.90581 0.2216 0.032597-0.72537-0.046914-1.2387-0.38399-0.41226-0.015156 0.95037-0.36235 0.043907-0.12114 0.26918-0.50632 0.039667-0.56023-0.15173zm18 0.059247c-0.76011 0.29759 0.47242 1.4206 0.1661 0.39893-0.03051-0.12336 0.06862-0.44931-0.1661-0.39893zm-15.873 0.45243c-0.54621 0.5135 0.69428 0.93814-0.15688 1.3207-0.12762-0.47689-0.34721 0.2386-0.83416-0.14653-0.83712 0.34868-1.2652-0.18163-1.9661-0.54514-0.42096-0.05242-0.2628 0.40013-0.29069 0.82386v3.5131c0.41274 0.4344 0.16103 0.19166 0 0.071846 0.22654 0.77182-0.099898 1.9001 0.79306 2.349 0.1518 0.28167 0.78878 1.4817 0.81815 1.1226-0.31934-0.33454-0.64699-1.3375-0.10664-0.44358 0.48399 0.84972 1.1368 1.4008 2.0906 1.603 0.52144 0.17743 0.95028 0.78737 1.4088 0.65317 0.2593 0.6838-0.76843 1.3404 0.034503 1.9782 0.41917 0.64567 1.1229 1.0691 0.7419 1.9756-0.26645 0.8853-0.15236 1.8499-0.38281 2.6748-0.071523 0.50208 0.69953 1.7764 0.63273 0.75598 0.22514-0.70914 0.2192-1.4894 0.74942-1.9916 0.7255 0.0057 0.13866-0.78042 0.85881-0.67772 0.43944-0.57621 0.56672-1.2636 1.3083-1.4924 0.088582-0.69943 1.2331-1.7706 0.050748-2.0429-0.32134-0.15844-1.1487-0.21541-1.0855-0.29359 0.1281-0.69402-1.0699-0.8916-1.5796-1.1755-0.66923-0.4752-1.6748 0.78943-1.9106-0.30024-0.14068-0.34284-0.65508-0.3484-0.41867-0.87743-0.42604 0.42389-1.2594 0.29506-1.0412-0.52355 0.33133-0.68943 1.6037-0.72205 1.8205 0.10721-0.30104-0.91457 0.58189-1.6265 1.072-2.2772 0.099801-0.311 0.6928-0.5782 0.48873-0.16486 0.34766-0.012544 0.87459-0.64015 0.257-0.35048-0.0087325-0.57236-0.54118-0.40959-0.71381-0.32832 0.31994-0.50799 1.9631-0.23027 1.275-1.0606-0.53317-0.21611-0.48882-1.4773-1.0281-0.77467 0.045378-0.43289-1.0976-1.2803-1.0727-0.55436 0.13952 0.64955 0.025508 1.3978-0.27141 1.8236-0.061963-0.95181-1.6847-0.74145-1.4761-1.7557 0.30225-0.4834 0.65544-1.1519 0.68909-1.0917 0.54168-0.20689 0.97728-0.80869 0.34948-1.2043-0.033552 0.34481-0.47215 1.0562-0.4104 0.19579-0.40614 0.48171-0.31338-0.76653-0.69375-0.89598zm12.964 0.33394c-0.95142 0.23282-1.3286 1.1419-1.7992 1.8948-0.69378 0.31291-0.66736 1.6567 0.10772 1.2275 0.20745 0.36245-0.14512 0.93373 0.45912 0.45981 0.48738-0.64521 0.08522-1.6888 0.91462-2.0956 0.06041 0.31635-0.76508 1.4976 0.19928 1.3034 0.8718 0.032907-0.63378 0.086897-0.20976 0.64398-0.44054-0.26148-0.21162 0.71413-0.78666 0.48709-0.49817 0.27108-0.82484-0.12586-0.71072-0.5607-0.3919 0.22871 0.12326 0.87392-0.55704 0.91269-0.15239 0.54135-1.4056 0.45975-0.69291 1.011 0.3164 0.82032-1.1789 0.051425-0.75441 1.0358 0.3632 0.97344 1.1244-0.32255 1.4332-0.57294 0.59583-0.46235 1.4787 0.78835 0.94256 0.83484 0.60121-0.080693 0.47766-0.65268-4e-3 -0.87412-0.26016-0.67498 0.82358 0.33103 0.76348 0.66945 0.38237 0.71627 0.22491-0.73335 0.61401-0.091563-0.04543 0.677 1.5653 0.15918 0.79628 1.022-0.66116 0.13322-1.3119-0.17051-1.8812 0.02403-0.52979-0.00469-0.50321-0.57094-0.69609-0.71275-0.6739 0.054772-1.5067 0.048578-1.9578 0.59319-0.48786 0.66961-1.1914 1.6057-0.65965 2.4607 0.53211 1.267 1.8517 0.06572 2.6102 0.81399 0.22546 0.312-0.19538 0.68287 0.30874 1.0208 0.18969 0.71989-0.21535 1.4034 0.25054 2.0916 0.24091 0.64719 0.39042 1.6159 1.2871 1.0245 0.94899-0.5713 0.69623-1.6245 1.4793-2.2078-0.61959-1.1995 0.758-1.7255 1.1017-2.6993-0.75094 0.10998-1.4199-0.63899-1.6014-1.3928-0.31546-0.36616-0.23421-0.90607 0.11817-0.21821 0.48435 0.4695 0.49481 1.8626 1.3908 1.146 0.4096-0.17139 1.5282-0.82517 0.63693-1.1227-0.57458 0.41629-1.2084-1.2439-0.36476-0.28095 0.61334 0.26031 1.0429 0.41541 1.0429-0.44765v-7.0231c-0.19105 0.1953-0.68186 0.55601-0.92959 0.31633-0.42628 0.059382-0.98902 0.88912-0.85506 0.087033-0.37053-0.024546-0.06633 0.71917-0.57539 0.73997-0.05126 0.38235-0.51425 0.070804-0.34034 0.4339-0.3573-0.25354-0.65968-1.0541 0.044319-0.5516 1.0455-0.31377-0.68943-1.0215-0.82334-1.1926 0.22511-0.053956-0.24491-0.28863-0.30162-0.21006zm-8.6285 0.21006c-0.34798 0.29005 0.66156 0.34467 0 0zm-4.6482 0.1562c-0.3892 0.40726 0.61983 0.37439 0 0zm2.2568 0.40396c-0.29473 0.48299 0.43548 0.17832 0 0zm6.4525 0.57092c-0.34506 0.3974-0.80049-0.10459-0.80791 0.23699 0.06254 0.10321 0.31302 0.83983 0.86177 0.29623 0.29452-0.12422 0.17856-0.43735-0.05386-0.53322zm-7.3466 0.23699c-0.65448 0.57178 1.1115 0.62446 0.13865 0.065578l-0.13865-0.065578zm8.6339 1.5835c-0.47121 0.30739 0.22606 0.96019-0.01026 1.2668-0.29526 0.51463 1.0972-0.036251 0.35348-0.44685-0.05299-0.35277-0.43572-0.78318-0.34322-0.81999zm-0.31778 0.6194c-0.65652 0.18568-0.14904 1.1443 0.08349 0.24143 0.01309-0.052347 0.0308-0.24318-0.08349-0.24143zm-5.2568 0.6948c-0.61077 0.41663-0.094863 0.83249 0.35275 0.64503-0.091895-0.25137-0.34861-0.40975-0.35275-0.64503zm11.537 0.70019c0.30475 0.15386-0.55846 0.41669-0.01187 0.68747 0.31809 0.37421 0.19817 1.1775-0.31886 0.60896 0.09606-0.63476-0.70085-1.1088 0.33072-1.2964zm-1.5673 0.00539c-0.04135 0.40781 0.87951 1.0417-0.11311 0.83484-0.52494 0.061601-1.3112-0.016044-0.64986-0.6704 0.20896-0.1255 0.75763 0.43298 0.47212-0.089036 0.10122-0.00646 0.1955-0.044684 0.29085-0.075405zm-3.0324 0.88332c-0.38288 0.24676 0.26476 0.43598 0 0zm-9.6141 2.2999c-0.064548 0.21543 1.2109 0.43375 0.33079 0.088606l-0.13121-0.0462-0.19958-0.04241zm0.99104 0.30701c-0.38688 0.39291 0.7971 0.11738 0 0zm12.937 3.6033c-0.84065 0.0217-0.72889 2.1909-0.14289 0.90734 0.05557-0.27852 0.27831-0.64614 0.14289-0.90734z" fill="url(#radialGradient5232)" opacity=".6"/>
 </g>
 <g id="layer4">
  <rect id="rect2410" x="3" y="3" width="16" height="16" rx="2" ry="2" clip-path="url(#clipPath2849)" fill="#ffd9b5" filter="url(#filter3194)" opacity=".15"/>
 </g>
 <g id="layer3">
  <path id="path4440" d="m11 4.5c-3.3108 2e-7 -6 3.1323-6 6.9944 0 3.8621 2.6892 7.0056 6 7.0056 3.3108 0 6-3.1435 6-7.0056 0-3.8621-2.6892-6.9944-6-6.9944zm0 0.896c2.7428 0 3.0059 2.7296 3.0059 6.0984 1e-6 3.3688-0.36459 6.104-3.0059 6.104-2.6879 0-3.0059-2.7352-3.0059-6.104 4e-7 -3.3688 0.30951-6.0984 3.0059-6.0984z" filter="url(#filter4446)" opacity=".8"/>
  <path id="path3539" d="m11 4c-3.3108 2e-7 -6 3.1323-6 6.9944 0 3.8621 2.6892 7.0056 6 7.0056 3.3108 0 6-3.1435 6-7.0056 0-3.8621-2.6892-6.9944-6-6.9944zm0 0.896c2.7428 0 3.0059 2.7296 3.0059 6.0984 1e-6 3.3688-0.36459 6.104-3.0059 6.104-2.6879 0-3.0059-2.7352-3.0059-6.104 4e-7 -3.3688 0.30951-6.0984 3.0059-6.0984z" fill="url(#linearGradient4422)"/>
 </g>
</svg>
