<?xml version="1.0" encoding="UTF-8"?>
<!-- Created with Inkscape (http://www.inkscape.org/) -->
<svg id="svg2" width="24" height="24" version="1.1" xmlns="http://www.w3.org/2000/svg" xmlns:cc="http://creativecommons.org/ns#" xmlns:dc="http://purl.org/dc/elements/1.1/" xmlns:rdf="http://www.w3.org/1999/02/22-rdf-syntax-ns#" xmlns:xlink="http://www.w3.org/1999/xlink">
 <defs id="defs4">
  <linearGradient id="linearGradient3335" x1="11.375" x2="11.375" y1="22" y2="-9.8173" gradientUnits="userSpaceOnUse">
   <stop id="stop3330" offset="0"/>
   <stop id="stop3333" stop-opacity="0" offset="1"/>
  </linearGradient>
  <linearGradient id="linearGradient3181" x1="-3.0608" x2="-3.0608" y1="27.258" y2="7.2537" gradientTransform="translate(12.119 -7.2582)" gradientUnits="userSpaceOnUse">
   <stop id="stop3702" stop-color="#2276c5" offset="0"/>
   <stop id="stop3704" stop-color="#69a9e6" offset="1"/>
  </linearGradient>
  <linearGradient id="linearGradient4422" x1="68.469" x2="68.469" y1="32.188" y2="106.1" gradientTransform="matrix(.16231 0 0 .15512 -.41636 -.72514)" gradientUnits="userSpaceOnUse">
   <stop id="stop3547" stop-color="#fff" offset="0"/>
   <stop id="stop3549" stop-color="#dcdcdc" offset="1"/>
  </linearGradient>
  <linearGradient id="linearGradient5894" x1="48" x2="48" y1="80" y2="16" gradientTransform="matrix(.24991 0 0 .25 .0042238 -1.9999)" gradientUnits="userSpaceOnUse">
   <stop id="stop5890" stop-color="#2167a8" offset="0"/>
   <stop id="stop5892" stop-color="#2167a8" stop-opacity=".37209" offset="1"/>
  </linearGradient>
  <clipPath id="clipPath2849">
   <rect id="rect2851" x="1" y="1" width="20" height="20" rx="2" ry="2" fill="#fff" fill-rule="evenodd"/>
  </clipPath>
  <filter id="filter3194" x="-.18" y="-.18" width="1.36" height="1.36" color-interpolation-filters="sRGB">
   <feGaussianBlur id="feGaussianBlur3196" stdDeviation="1.2"/>
  </filter>
  <filter id="filter3819">
   <feGaussianBlur id="feGaussianBlur3821" stdDeviation="0.2129751"/>
  </filter>
  <linearGradient id="linearGradient3845" x1="11" x2="21" y1="19.5" y2="19.5" gradientTransform="translate(1,-1)" gradientUnits="userSpaceOnUse" spreadMethod="reflect">
   <stop id="stop3833" stop-color="#fff" offset="0"/>
   <stop id="stop3821" stop-color="#fff" stop-opacity=".49804" offset=".75"/>
   <stop id="stop3835" stop-color="#fff" stop-opacity="0" offset="1"/>
  </linearGradient>
  <linearGradient id="linearGradient3961" x1="10" x2="10" y1="1" y2="16" gradientTransform="translate(1,-1)" gradientUnits="userSpaceOnUse">
   <stop id="stop3825" stop-color="#fff" offset="0"/>
   <stop id="stop3829" stop-color="#fff" stop-opacity="0" offset="1"/>
  </linearGradient>
 </defs>
 <metadata id="metadata7">
  <rdf:RDF>
   <cc:Work rdf:about="">
    <dc:format>image/svg+xml</dc:format>
    <dc:type rdf:resource="http://purl.org/dc/dcmitype/StillImage"/>
    <dc:title/>
   </cc:Work>
  </rdf:RDF>
 </metadata>
 <g id="layer1" transform="translate(0,2)">
  <g id="g3337" transform="translate(1,-1)">
   <rect id="rect3371" x=".5" y=".5" width="21" height="21.5" rx="2.5" ry="2.5" fill="url(#linearGradient3335)" opacity=".3"/>
   <rect id="rect2553" x="1" y="2" width="20" height="20" rx="2.381" ry="2.3256" opacity=".5"/>
  </g>
  <rect id="rect3173" x="2" width="20" height="20" rx="2" ry="2" fill="url(#linearGradient3181)" fill-rule="evenodd"/>
  <path id="path4867" d="m12.234 1.0001c-0.50369-1e-3 -1.0159 0.0044-1.5151 0.08594l-0.43735 2.6328c-0.52413 0.15272-1.0277 0.35498-1.4995 0.63281l-2.1633-1.5469c-0.66778 0.53414-1.3079 1.1171-1.8119 1.8125l1.5463 2.1562c-0.26127 0.47916-0.49532 0.97738-0.63259 1.5078l-2.6319 0.4375c-0.095587 0.84888-0.13993 1.7074 0 2.5547l2.6319 0.4375c0.15294 0.52431 0.35513 1.0358 0.63259 1.5078l-1.5463 2.164c0.53395 0.66827 1.117 1.3081 1.8119 1.8125l2.1633-1.5469c0.47873 0.26162 0.96951 0.49549 1.4995 0.63281l0.43735 2.625c0.37093 0.04489 0.7505 0.08976 1.1246 0.09375 0.47979 0 0.96199-0.01991 1.437-0.09375l0.43735-2.625c0.5244-0.15326 1.0277-0.35525 1.4995-0.63281l2.1633 1.5469c0.66751-0.53414 1.3079-1.1169 1.8119-1.8125l-1.5463-2.164c0.26153-0.47889 0.49505-0.97738 0.63259-1.5078l2.6319-0.4375c0.09532-0.84915 0.13993-1.7074 0-2.5547l-2.6319-0.4375c-0.15294-0.52458-0.35513-1.0356-0.63259-1.5078l1.5463-2.1562c-0.53395-0.66774-1.117-1.3084-1.8119-1.8125l-2.1633 1.5469c-0.47873-0.26189-0.96844-0.49549-1.4995-0.63281l-0.43735-2.6328c-0.34756-0.04303-0.6955-0.08275-1.0465-0.08594zm-0.23429 7c1.1042 0 1.9993 0.89543 1.9993 2s-0.89512 2-1.9993 2-1.9993-0.89542-1.9993-2 0.89512-2 1.9993-2z" fill="url(#linearGradient5894)"/>
  <path id="path3793" d="m5.1875 5.1562c-0.1308 0.15059-0.25761 0.30677-0.375 0.46875l1.25 1.75c0.093594-0.20496 0.17353-0.39619 0.28125-0.59375l-1.1562-1.625zm13.594 0.03125-1.125 1.5938c0.1144 0.19471 0.19062 0.38763 0.28125 0.59375l1.25-1.75c-0.12401-0.15508-0.27616-0.28671-0.40625-0.4375zm-6.7812 2.8125c-1.1042 0-2 0.89544-2 2 0 0.17259 0.02141 0.34024 0.0625 0.5 0.22188-0.86269 1.0058-1.5 1.9375-1.5s1.7156 0.63731 1.9375 1.5c0.04109-0.15976 0.0625-0.32741 0.0625-0.5 0-1.1046-0.89582-2-2-2zm8.9688 2.4062c-0.0154 0.29124-0.02996 0.58508-0.0625 0.875l-2.625 0.4375c-0.13754 0.53042-0.36347 1.0211-0.625 1.5l0.28125 0.40625c0.1375-0.2988 0.26097-0.58701 0.34375-0.90625l2.625-0.4375c0.06923-0.61669 0.09803-1.2564 0.0625-1.875zm-17.938 0.21875c-0.027618 0.55147-0.027956 1.1085 0.0625 1.6562l2.625 0.4375c0.089881 0.30813 0.21457 0.61238 0.34375 0.90625l0.28125-0.40625c-0.27746-0.47198-0.47206-0.97569-0.625-1.5l-2.625-0.4375c-0.034982-0.21182-0.048473-0.44335-0.0625-0.65625zm5.75 5.0312-2.1562 1.5312c-0.53348-0.38724-0.9762-0.87651-1.4062-1.375l-0.40625 0.5625c0.53395 0.66827 1.1176 1.3081 1.8125 1.8125l2.1562-1.5312c0.47873 0.26162 0.97003 0.48768 1.5 0.625l0.4375 2.625c0.37093 0.04489 0.75089 0.08976 1.125 0.09375 0.47979 0 0.96249-0.01991 1.4375-0.09375l0.4375-2.625c0.5244-0.15326 1.0282-0.34744 1.5-0.625l2.1562 1.5312c0.66751-0.53414 1.3086-1.1169 1.8125-1.8125l-0.375-0.53125c-0.43077 0.49592-0.92548 0.93404-1.4375 1.3438l-2.1562-1.5312c-0.47182 0.27756-0.9756 0.47174-1.5 0.625l-0.4375 2.625c-0.47501 0.07384-0.95771 0.09375-1.4375 0.09375-0.37411-4e-3 -0.75407-0.04886-1.125-0.09375l-0.4375-2.625c-0.52997-0.13732-1.0213-0.36338-1.5-0.625z" fill="#fff" opacity=".3"/>
  <path id="path3802" d="m11.469 1c-0.25342 0.011417-0.50041 0.05298-0.75 0.09375l-0.4375 2.625c-0.52413 0.15272-1.0282 0.34717-1.5 0.625l-2.1562-1.5312c-0.66778 0.53414-1.3085 1.1171-1.8125 1.8125l0.375 0.53125c0.43071-0.49587 0.92528-0.93404 1.4375-1.3438l2.1562 1.5312c0.47182-0.27783 0.97587-0.47228 1.5-0.625l0.4375-2.625c0.49917-0.08154 0.99631-0.09475 1.5-0.09375 0.35101 0.00319 0.71494 0.05072 1.0625 0.09375l0.4375 2.625c0.53103 0.13732 1.0213 0.36311 1.5 0.625l2.1562-1.5312c0.53348 0.38704 0.9762 0.87654 1.4062 1.375l0.40625-0.5625c-0.53395-0.66774-1.1176-1.3084-1.8125-1.8125l-2.1562 1.5312c-0.47873-0.26189-0.96897-0.48768-1.5-0.625l-0.4375-2.625c-0.34756-0.04303-0.71149-0.09056-1.0625-0.09375-0.25184-5e-4 -0.49658-0.011418-0.75 0zm-5.4062 6.375c-0.13341 0.29215-0.26308 0.59453-0.34375 0.90625l-2.625 0.4375c-0.070498 0.62608-0.10112 1.2468-0.0625 1.875 0.015394-0.29124 0.029865-0.58517 0.0625-0.875l2.625-0.4375c0.13727-0.53042 0.36373-1.0208 0.625-1.5l-0.28125-0.40625zm11.875 0-0.28125 0.40625c0.27746 0.47225 0.47206 0.97542 0.625 1.5l2.625 0.4375c0.03498 0.21182 0.04849 0.41212 0.0625 0.625 0.02559-0.54115 0.02626-1.0875-0.0625-1.625l-2.625-0.4375c-0.08988-0.30829-0.21457-0.61245-0.34375-0.90625zm-7.875 3.125c-0.04109 0.15976-0.0625 0.32741-0.0625 0.5 0 1.1046 0.89582 2 2 2s2-0.89544 2-2c0-0.17259-0.02141-0.34024-0.0625-0.5-0.22188 0.86269-1.0058 1.5-1.9375 1.5s-1.7156-0.63731-1.9375-1.5zm-4 3.125-1.25 1.75c0.12401 0.1552 0.27616 0.2867 0.40625 0.4375l1.125-1.5938c-0.1144-0.1946-0.19062-0.38758-0.28125-0.59375zm11.875 0c-0.09096 0.19766-0.17712 0.40309-0.28125 0.59375l1.1562 1.625c0.13082-0.1506 0.25761-0.30671 0.375-0.46875l-1.25-1.75z" opacity=".3"/>
  <path id="rect3050" d="m4 0c-1.108 0-2 0.892-2 2v16c0 1.108 0.892 2 2 2h16c1.108 0 2-0.892 2-2v-16c0-1.108-0.892-2-2-2h-16zm0 1.0312h16c0.5497 0 0.96875 0.41905 0.96875 0.96875v16c0 0.5497-0.41905 0.96875-0.96875 0.96875h-16c-0.5497 0-0.96875-0.41905-0.96875-0.96875v-16c0-0.5497 0.41905-0.96875 0.96875-0.96875z" fill="url(#linearGradient3961)" fill-rule="evenodd" opacity=".35"/>
  <path id="path3235" d="m4 20c-1.108 0-2-0.892-2-2v-1c0 1.108 0.892 2 2 2h16c1.108 0 2-0.892 2-2v1c0 1.108-0.892 2-2 2h-16z" fill="url(#linearGradient3845)" fill-rule="evenodd" opacity=".2"/>
 </g>
 <g id="layer2" transform="translate(0,2)">
  <rect id="rect2410" transform="translate(1,-1)" x="3" y="3" width="16" height="16" rx="2" ry="2" clip-path="url(#clipPath2849)" fill="#fff" filter="url(#filter3194)" opacity=".15"/>
 </g>
 <g id="layer3" transform="translate(0,2)">
  <path id="path3815" d="m12 4.7661c-2.712 2e-7 -4.9148 2.5658-4.9148 5.7294 0 3.1636 2.2028 5.7385 4.9148 5.7385 2.712 0 4.9148-2.5749 4.9148-5.7385 0-3.1636-2.2028-5.7294-4.9148-5.7294zm0 0.73394c2.2467 0 2.4622 2.2359 2.4622 4.9954 1e-6 2.7595-0.29865 5-2.4622 5-2.2017 0-2.4622-2.2405-2.4622-5 3e-7 -2.7595 0.25353-4.9954 2.4622-4.9954z" filter="url(#filter3819)" opacity=".8"/>
  <path id="path3539" d="m12 4.2661c-2.712 2e-7 -4.9148 2.5658-4.9148 5.7294 0 3.1636 2.2028 5.7385 4.9148 5.7385 2.712 0 4.9148-2.5749 4.9148-5.7385 0-3.1636-2.2028-5.7294-4.9148-5.7294zm0 0.73394c2.2467 0 2.4622 2.2359 2.4622 4.9954 1e-6 2.7595-0.29865 5-2.4622 5-2.2017 0-2.4622-2.2405-2.4622-5 3e-7 -2.7595 0.25353-4.9954 2.4622-4.9954z" fill="url(#linearGradient4422)"/>
 </g>
</svg>
