<?xml version="1.0" encoding="UTF-8"?>
<!-- Created with Inkscape (http://www.inkscape.org/) -->
<svg id="svg2" width="24" height="24" version="1.1" xmlns="http://www.w3.org/2000/svg" xmlns:cc="http://creativecommons.org/ns#" xmlns:dc="http://purl.org/dc/elements/1.1/" xmlns:rdf="http://www.w3.org/1999/02/22-rdf-syntax-ns#" xmlns:xlink="http://www.w3.org/1999/xlink">
 <defs id="defs4">
  <linearGradient id="linearGradient3335" x1="11.375" x2="11.375" y1="22" y2="-9.8173" gradientUnits="userSpaceOnUse">
   <stop id="stop3330" offset="0"/>
   <stop id="stop3333" stop-opacity="0" offset="1"/>
  </linearGradient>
  <linearGradient id="linearGradient3181" x1="-3.0608" x2="-3.0608" y1="27.258" y2="7.2537" gradientTransform="translate(12.119 -7.2582)" gradientUnits="userSpaceOnUse">
   <stop id="stop4174" stop-color="#828283" offset="0"/>
   <stop id="stop4176" stop-color="#c0c0c0" offset="1"/>
  </linearGradient>
  <filter id="filter3194" x="-.18" y="-.18" width="1.36" height="1.36" color-interpolation-filters="sRGB">
   <feGaussianBlur id="feGaussianBlur3196" stdDeviation="1.2"/>
  </filter>
  <clipPath id="clipPath2849">
   <rect id="rect2851" x="1" y="1" width="20" height="20" rx="2" ry="2" fill="#fff" fill-rule="evenodd"/>
  </clipPath>
  <radialGradient id="radialGradient4701" cx="484.92" cy="200.06" r="8.4521" gradientTransform="matrix(.32834 -.34563 1.9975 1.8976 -495.47 -144.26)" gradientUnits="userSpaceOnUse">
   <stop id="stop3570" offset="0"/>
   <stop id="stop3572" stop-opacity="0" offset="1"/>
  </radialGradient>
  <radialGradient id="radialGradient4698" cx="491.5" cy="186.95" r="10.172" gradientTransform="matrix(.12867 -.09751 .48186 .63587 -95.601 -8.4267)" gradientUnits="userSpaceOnUse">
   <stop id="stop3583" offset="0"/>
   <stop id="stop3585" stop-color="#333" stop-opacity="0" offset="1"/>
  </radialGradient>
  <radialGradient id="radialGradient4694" cx="482.6" cy="189.28" r="3.496" gradientTransform="matrix(-1.6993 1.6044 -.60642 -.64229 996.54 -593.12)" gradientUnits="userSpaceOnUse">
   <stop id="stop3597" stop-color="#dbff26" offset="0"/>
   <stop id="stop3599" stop-color="#dbff26" stop-opacity="0" offset="1"/>
  </radialGradient>
  <radialGradient id="radialGradient4691" cx="473.91" cy="187.53" r="15.547" gradientTransform="matrix(2.9043 -.88066 .13621 .44919 -1356.8 383.48)" gradientUnits="userSpaceOnUse">
   <stop id="stop3612" offset="0"/>
   <stop id="stop3614" stop-opacity="0" offset="1"/>
  </radialGradient>
  <linearGradient id="linearGradient4823" x1="144.87" x2="144.87" y1="77.389" y2="28.85" gradientTransform="matrix(.23684 0 0 .23684 -20.684 -.96413)" gradientUnits="userSpaceOnUse">
   <stop id="stop4562-9" stop-color="#444" offset="0"/>
   <stop id="stop4564-6" stop-color="#888" offset="1"/>
  </linearGradient>
  <linearGradient id="linearGradient3845" x1="11" x2="21" y1="19.5" y2="19.5" gradientTransform="translate(1,-1)" gradientUnits="userSpaceOnUse" spreadMethod="reflect">
   <stop id="stop3833" stop-color="#fff" offset="0"/>
   <stop id="stop3821" stop-color="#fff" stop-opacity=".49804" offset=".75"/>
   <stop id="stop3835-0" stop-color="#fff" stop-opacity="0" offset="1"/>
  </linearGradient>
  <linearGradient id="linearGradient3961" x1="10" x2="10" y1="1" y2="16" gradientTransform="translate(1,-1)" gradientUnits="userSpaceOnUse">
   <stop id="stop3825" stop-color="#fff" offset="0"/>
   <stop id="stop3829" stop-color="#fff" stop-opacity="0" offset="1"/>
  </linearGradient>
 </defs>
 <metadata id="metadata7">
  <rdf:RDF>
   <cc:Work rdf:about="">
    <dc:format>image/svg+xml</dc:format>
    <dc:type rdf:resource="http://purl.org/dc/dcmitype/StillImage"/>
    <dc:title/>
   </cc:Work>
  </rdf:RDF>
 </metadata>
 <g id="layer1" transform="translate(0,2)">
  <g id="g3337" transform="translate(1,-1)">
   <rect id="rect3371" x=".5" y=".5" width="21" height="21.5" rx="2.5" ry="2.5" fill="url(#linearGradient3335)" opacity=".3"/>
   <rect id="rect2553" x="1" y="2" width="20" height="20" rx="2.381" ry="2.3256" opacity=".5"/>
  </g>
  <rect id="rect3173" x="2" width="20" height="20" rx="2" ry="2" fill="url(#linearGradient3181)" fill-rule="evenodd"/>
  <path id="rect3050" d="m4 0c-1.108 0-2 0.892-2 2v16c0 1.108 0.892 2 2 2h16c1.108 0 2-0.892 2-2v-16c0-1.108-0.892-2-2-2h-16zm0 1.0312h16c0.5497 0 0.96875 0.41905 0.96875 0.96875v16c0 0.5497-0.41905 0.96875-0.96875 0.96875h-16c-0.5497 0-0.96875-0.41905-0.96875-0.96875v-16c0-0.5497 0.41905-0.96875 0.96875-0.96875z" fill="url(#linearGradient3961)" fill-rule="evenodd" opacity=".4"/>
  <path id="path3235" d="m4 20c-1.108 0-2-0.892-2-2v-1c0 1.108 0.892 2 2 2h16c1.108 0 2-0.892 2-2v1c0 1.108-0.892 2-2 2h-16z" fill="url(#linearGradient3845)" fill-rule="evenodd" opacity=".2"/>
 </g>
 <g id="layer2" transform="translate(0,2)">
  <rect id="rect2410" transform="translate(1,-1)" x="3" y="3" width="16" height="16" rx="2" ry="2" clip-path="url(#clipPath2849)" fill="#fff" filter="url(#filter3194)" opacity=".15"/>
 </g>
 <g id="layer3" transform="translate(0,2)">
  <path id="path3532" d="m11.157 5.8011c-5.8231 0.10051-8.0735 5.918-8.157 6.291 0.39178 0.50997 3.7328 2.8789 8.1237 2.8789 0.62611 0 1.2549-0.04613 1.8726-0.11996l2.9856 2.9856 2.6324-2.639-1.3462-1.3462c1.8108-0.63934 3.1979-1.4157 3.732-1.9326-0.65616-0.98234-4.4259-6.2112-9.843-6.1177z" fill="url(#linearGradient4823)"/>
  <path id="path3885" d="m11.125 6.7188c-1.0195 6e-7 -2.0406 0.38435-2.8125 1.1562-0.03174 0.031741-0.064257 0.089017-0.125 0.15625-1.4097 1.5605-1.3769 3.9981 0.125 5.5 1.2777 1.2777 3.2087 1.4254 4.7188 0.59375l0.0625 0.0625a0.46885 0.46885 0 0 0 0.09375 0.59375l0.21875 0.1875a0.46885 0.46885 0 0 0 0.09375 0.125 0.46885 0.46885 0 0 0 0 0.03125l0.09375 0.09375 2.1562 2.125a0.46885 0.46885 0 0 0 0.6875 0l1.3438-1.3438a0.46885 0.46885 0 0 0 0-0.6875l-2.125-2.125a0.46885 0.46885 0 0 0-0.0625-0.03125h-0.03125a0.46885 0.46885 0 0 0-0.03125-0.03125v-0.03125a0.46885 0.46885 0 0 0 0-0.03125l-0.1875-0.1875-0.125-0.125a0.46885 0.46885 0 0 0-0.59375-0.0625l-0.0625-0.0625c0.84774-1.5136 0.69096-3.4653-0.59375-4.75-0.77694-0.77695-1.8243-1.1563-2.8438-1.1562zm0 2.0312c0.4948 4e-7 0.99262 0.21137 1.375 0.59375 0.76498 0.76499 0.76497 1.9538 0 2.7188-0.76132 0.76132-1.9887 0.76133-2.75 0-0.76498-0.76499-0.76498-1.9538 0-2.7188 0.38238-0.38238 0.8802-0.59375 1.375-0.59375z" opacity=".2"/>
  <path id="path3845" d="m11.125 7.1875c-0.89916 5e-7 -1.7837 0.34618-2.4688 1.0312-0.042814 0.042815-0.084857 0.080568-0.125 0.125-1.2444 1.3774-1.2023 3.5164 0.125 4.8438 1.227 1.227 3.1299 1.3455 4.5 0.375l0.625 0.625-0.28125 0.25 0.34375 0.3125v0.03125l0.09375 0.09375 2.1562 2.125 1.3438-1.3438-2.125-2.125-0.125-0.09375v-0.03125l-0.1875-0.1875-0.125-0.125-0.28125 0.25-0.59375-0.625c0.97053-1.3701 0.85196-3.273-0.375-4.5-0.68507-0.68507-1.6008-1.0313-2.5-1.0312zm0 1.0938c0.61951 5e-7 1.2472 0.24721 1.7188 0.71875 0.94308 0.94309 0.94307 2.4632 0 3.4062-0.94308 0.94308-2.4944 0.94309-3.4375 0-0.94308-0.94309-0.94309-2.4632 0-3.4062 0.47154-0.47154 1.0992-0.71875 1.7188-0.71875z" opacity=".3"/>
  <g id="g4734" transform="matrix(.23684 0 0 .23684 .63158 -.96413)">
   <path id="path3540" d="m55.755 64.701 9.4906 9.4906 5.7302-5.7302-9.4906-9.4906-5.7302 5.7302z" fill="#8fd400"/>
   <path id="path3558" d="m33.292 37.582c-5.254 5.8157-5.0671 14.829 0.53721 20.434 5.1805 5.1805 13.236 5.6895 19.021 1.5917l2.6064 2.6064-1.0943 1.0943 1.3928 1.3927 5.7302-5.7302-1.3927-1.3927-1.0943 1.0943-2.6064-2.6064c4.0978-5.7847 3.5888-13.84-1.5917-19.021-5.785-5.7851-15.186-5.785-20.971 0-0.18077 0.18078-0.36772 0.3496-0.53721 0.53721zm3.8002 2.7258c3.9819-3.9819 10.463-3.9819 14.445 0 3.9819 3.9819 3.962 10.443-0.0199 14.425-3.9819 3.9819-10.443 4.0018-14.425 0.01991-3.9819-3.9819-3.9819-10.463 0-14.445z" fill="#fff"/>
   <path id="path3566" d="m55.755 64.701 9.4906 9.4906 5.7302-5.7302-9.4906-9.4906-5.7302 5.7302z" fill="url(#radialGradient4701)" opacity=".43519"/>
   <path id="path3576" d="m56.385 56.055c-0.97528 1.372-2.1827 2.5981-3.5594 3.5735l2.6449 2.5887-1.0974 1.0974 1.3788 1.3787 5.7401-5.7119-1.4069-1.4069-1.0974 1.0974-2.6027-2.6168z" fill="url(#radialGradient4698)"/>
   <path id="rect3589" d="m54.375 63.342 5.7213-5.7213 0.57441 0.52296-5.8009 5.6534-0.49483-0.45503z" fill="#fff"/>
   <path id="path3593" d="m55.726 64.749 5.7213-5.7213 0.57441 0.52296-5.8009 5.6534-0.49483-0.45503z" fill="url(#radialGradient4694)"/>
   <path id="path3605" d="m44.328 33.488c-7.7319 0-14.013 6.2807-14.013 14.013 0 7.7319 6.2807 14.013 14.013 14.013 7.7319 0 13.984-6.2807 13.984-14.013 0-7.7319-6.2526-14.013-13.984-14.013zm0 2.87c6.1504 0 11.143 4.9922 11.143 11.143 0 6.1504-4.9922 11.143-11.143 11.143-6.1504 0-11.143-4.9922-11.143-11.143 0-6.1504 4.9922-11.143 11.143-11.143z" fill="url(#radialGradient4691)" opacity=".48485"/>
  </g>
  <path id="path3715" transform="translate(0,-2)" d="m11.156 7.8125c-5.823 0.10051-8.0728 5.9395-8.1562 6.3125 0.052179 0.06792 0.16019 0.15719 0.3125 0.28125 0.75433-1.6279 3.0883-5.5117 7.8438-5.5938 4.6578-0.0804 8.084 3.7938 9.375 5.5 0.1822-0.12669 0.35726-0.26709 0.46875-0.375-0.65614-0.98232-4.4268-6.2185-9.8438-6.125z" opacity=".4"/>
  <path id="path3834" transform="translate(0,-2)" d="m20.531 14.281c-0.69017 0.48044-1.8205 1.0578-3.25 1.5625l0.71875 0.71875c1.4397-0.57438 2.5425-1.2134 3-1.6562-0.09196-0.13767-0.25852-0.34685-0.46875-0.625zm-17.25 0.09375c-0.16587 0.35887-0.26613 0.65114-0.28125 0.71875 0.39178 0.50997 3.7342 2.875 8.125 2.875 0.62611 0 1.2573-0.051172 1.875-0.125l2.9688 3 2.6562-2.6562-0.5-0.5-2.1562 2.1562-2.9688-3c-0.61773 0.073828-1.2489 0.125-1.875 0.125-3.842 0-6.8818-1.7987-7.8438-2.5938z" fill="#fff" opacity=".2"/>
 </g>
</svg>
