<?xml version="1.0" encoding="UTF-8"?>
<!-- Created with Inkscape (http://www.inkscape.org/) -->
<svg id="svg2" width="24" height="24" version="1.1" xmlns="http://www.w3.org/2000/svg" xmlns:cc="http://creativecommons.org/ns#" xmlns:dc="http://purl.org/dc/elements/1.1/" xmlns:rdf="http://www.w3.org/1999/02/22-rdf-syntax-ns#" xmlns:xlink="http://www.w3.org/1999/xlink">
 <defs id="defs4">
  <linearGradient id="linearGradient3335" x1="11.375" x2="11.375" y1="22" y2="-9.8173" gradientUnits="userSpaceOnUse">
   <stop id="stop3330" offset="0"/>
   <stop id="stop3333" stop-opacity="0" offset="1"/>
  </linearGradient>
  <linearGradient id="linearGradient3461" x1="8.8587" x2="8.8587" y1="21" y2="10.934" gradientTransform="translate(1,-1)" gradientUnits="userSpaceOnUse" xlink:href="#linearGradient3921"/>
  <linearGradient id="linearGradient3261" x1="6.8087" x2="6.8087" y1="25.634" y2="5.5416" gradientTransform="translate(2.7496 -5.6341)" gradientUnits="userSpaceOnUse">
   <stop id="stop3189" offset="0"/>
   <stop id="stop3191" stop-color="#515151" offset="1"/>
  </linearGradient>
  <linearGradient id="linearGradient3806">
   <stop id="stop3808" stop-color="#f7e0c0" offset="0"/>
   <stop id="stop3810" stop-color="#b67e35" offset="1"/>
  </linearGradient>
  <linearGradient id="linearGradient3684" x1="3.9997" x2="11.004" y1="11.042" y2="11.042" gradientTransform="matrix(1 0 0 1.81 1 -9.9438)" gradientUnits="userSpaceOnUse" spreadMethod="reflect" xlink:href="#linearGradient3921"/>
  <linearGradient id="linearGradient3687" x1="11" x2="11" y1="5.0462" y2="11.042" gradientTransform="matrix(1.5785 0 0 1 -5.364 -1)" gradientUnits="userSpaceOnUse" spreadMethod="reflect" xlink:href="#linearGradient3921"/>
  <radialGradient id="radialGradient3692" cx="64" cy="64" r="42" gradientTransform="matrix(.21631 7.381e-8 -6.1671e-8 .18074 -1.8439 -1.9005)" gradientUnits="userSpaceOnUse" xlink:href="#linearGradient3806"/>
  <radialGradient id="radialGradient3701" cx="64" cy="64" r="42" gradientTransform="matrix(.21631 7.381e-8 -6.1671e-8 .18074 -1.8439 -14.939)" gradientUnits="userSpaceOnUse" xlink:href="#linearGradient3806"/>
  <radialGradient id="radialGradient3710" cx="64" cy="64" r="42" gradientTransform="matrix(.21631 7.381e-8 -6.1671e-8 .18074 -1.8439 11.061)" gradientUnits="userSpaceOnUse" xlink:href="#linearGradient3806"/>
  <linearGradient id="linearGradient3921">
   <stop id="stop3923" stop-color="#6b3715" offset="0"/>
   <stop id="stop3925" stop-color="#6b3715" stop-opacity="0" offset="1"/>
  </linearGradient>
  <linearGradient id="linearGradient3845" x1="11" x2="21" y1="19.5" y2="19.5" gradientTransform="translate(1,-1)" gradientUnits="userSpaceOnUse" spreadMethod="reflect">
   <stop id="stop3833" stop-color="#fff" offset="0"/>
   <stop id="stop3821" stop-color="#fff" stop-opacity=".49804" offset=".75"/>
   <stop id="stop3835" stop-color="#fff" stop-opacity="0" offset="1"/>
  </linearGradient>
  <linearGradient id="linearGradient3961" x1="10" x2="10" y1="1" y2="16" gradientTransform="translate(1,-1)" gradientUnits="userSpaceOnUse">
   <stop id="stop3825" stop-color="#fff" offset="0"/>
   <stop id="stop3829" stop-color="#fff" stop-opacity="0" offset="1"/>
  </linearGradient>
 </defs>
 <metadata id="metadata7">
  <rdf:RDF>
   <cc:Work rdf:about="">
    <dc:format>image/svg+xml</dc:format>
    <dc:type rdf:resource="http://purl.org/dc/dcmitype/StillImage"/>
   </cc:Work>
  </rdf:RDF>
 </metadata>
 <g id="layer1" transform="translate(0,2)">
  <g id="g3337" transform="translate(1,-1)">
   <rect id="rect3371" x=".5" y=".5" width="21" height="21.5" rx="2.5" ry="2.5" fill="url(#linearGradient3335)" opacity=".3"/>
   <rect id="rect2553" x="1" y="2" width="20" height="20" rx="2.381" ry="2.3256" opacity=".5"/>
  </g>
  <path id="rect2449" d="m4 0c-1.108 0-2 0.892-2 2v16c0 1.108 0.892 2 2 2h16c1.108 0 2-0.892 2-2v-16c0-1.108-0.892-2-2-2h-16zm-1 1h1v1h-1v-1zm17 0h1v1h-1v-1zm-17 2h1v1h-1v-1zm17 0h1v1h-1v-1zm-17 2h1v1h-1v-1zm17 0h1v1h-1v-1zm-17 2h1v1h-1v-1zm17 0h1v1h-1v-1zm-17 2h1v1h-1v-1zm17 0h1v1h-1v-1zm-17 2h1v1h-1v-1zm17 0h1v1h-1v-1zm-17 2h1v1h-1v-1zm17 0h1v1h-1v-1zm-17 2h1v1h-1v-1zm17 0h1v1h-1v-1zm-17 2h1v1h-1v-1zm17 0h1v1h-1v-1z" fill="url(#linearGradient3261)" fill-rule="evenodd"/>
  <path id="rect3313" d="m3 17h1v1h-1v-1zm0-2h1v1h-1v-1zm0-2h1v1h-1v-1zm0-2h1v1h-1v-1zm0-2h1v1h-1v-1zm0-2h1v1h-1v-1zm0-2h1v1h-1v-1zm0-2h1v1h-1v-1zm0-2h1v1h-1v-1zm17 16h1v1h-1v-1zm0-2h1v1h-1v-1zm0-2h1v1h-1v-1zm0-2h1v1h-1v-1zm0-2h1v1h-1v-1zm0-2h1v1h-1v-1zm0-2h1v1h-1v-1zm0-2h1v1h-1v-1zm0-2h1v1h-1v-1z" fill="#fff" fill-rule="evenodd" opacity=".5"/>
 </g>
 <g id="layer3" transform="translate(0,2)">
  <path id="path3343" d="m5.3333 4.0462c-0.18467 0-0.33333 0.14867-0.33333 0.33333v11.325c0 0.18467 0.14867 0.33333 0.33333 0.33333h13.333c0.18467 0 0.33333-0.14867 0.33333-0.33333v-11.325c0-0.18467-0.14867-0.33333-0.33333-0.33333h-13.333z" fill="url(#radialGradient3692)" fill-rule="evenodd"/>
  <path id="path3355" d="m12 5c-2.7847 0-5.0312 2.2466-5.0312 5.0312 0 2.7847 2.2466 5.0625 5.0312 5.0625 2.7847 0 5.0312-2.2778 5.0312-5.0625 0-2.7847-2.2466-5.0312-5.0312-5.0312zm0 1c2.2324 0 4.0312 1.7989 4.0312 4.0312 0 2.2324-1.7989 4.0625-4.0312 4.0625-2.2324 0-4.0312-1.8301-4.0312-4.0625 0-2.2324 1.7989-4.0312 4.0312-4.0312z" fill="#915b22" fill-rule="evenodd"/>
  <path id="path3359" transform="matrix(.43658 0 0 .43658 -19.915 -21.997)" d="m82.204 73.388c0 5.027-4.0752 9.1021-9.1021 9.1021s-9.1021-4.0752-9.1021-9.1021 4.0752-9.1021 9.1021-9.1021 9.1021 4.0752 9.1021 9.1021z" fill="#fff" fill-rule="evenodd" opacity=".4"/>
  <path id="path3363" d="m11.573 4.0462v11.992h0.85472v-11.992h-0.85472z" fill="url(#linearGradient3687)" fill-rule="evenodd"/>
  <path id="path3369" d="m18.999 9.5521h-13.998v0.98002h13.998v-0.98002z" fill="url(#linearGradient3684)" fill-rule="evenodd"/>
  <path id="text3383" d="m12 7.0312c-0.54026 5.6e-6 -0.99031 0.1658-1.3438 0.46875-0.37364 0.3181-0.5625 0.75109-0.5625 1.2812h1.0312c0.016717-0.46806 0.40289-0.84375 0.875-0.84375 0.48273 4e-7 0.875 0.39227 0.875 0.875 0 0.48273-0.39227 0.875-0.875 0.875-0.02124 0-0.04164 0.0015-0.0625 0v0.59375c0.02086-0.0015 0.04126 0 0.0625 0 0.48273 0 0.875 0.39227 0.875 0.875 0 0.48273-0.39227 0.875-0.875 0.875-0.48273 0-0.875-0.39227-0.875-0.875 0-0.07627 0.01288-0.14821 0.03125-0.21875h-1.1875c-0.010099 0.09594-2e-7 0.18532 0 0.28125-3e-7 0.57561 0.19486 1.0156 0.59375 1.3438 0.36859 0.308 0.84674 0.46875 1.4375 0.46875 0.60085 0 1.1002-0.16075 1.4688-0.46875 0.38878-0.33325 0.5625-0.78424 0.5625-1.375-4e-6 -0.60085-0.22298-1.0237-0.6875-1.2812 0.38373-0.24741 0.5625-0.63113 0.5625-1.1562-5e-6 -0.52006-0.19992-0.93695-0.59375-1.25-0.36354-0.2979-0.78234-0.46874-1.3125-0.46875z"/>
  <path id="path3487" d="M 5,0 5,2.65625 C 5,2.840917 5.1590833,3 5.34375,3 l 13.3125,0 C 18.840917,3 19,2.840917 19,2.65625 L 19,0 5,0 z" fill="url(#radialGradient3701)" fill-rule="evenodd"/>
  <path id="path3503" d="m5.3438 17c-0.18467 0-0.34375 0.15908-0.34375 0.34375v2.6562h14v-2.6562c0-0.18467-0.15908-0.34375-0.34375-0.34375h-13.312z" fill="url(#radialGradient3710)" fill-rule="evenodd"/>
  <path id="rect3050" d="m4 0c-1.108 0-2 0.892-2 2v16c0 1.108 0.892 2 2 2h16c1.108 0 2-0.892 2-2v-16c0-1.108-0.892-2-2-2h-16zm0 1.0312h16c0.5497 0 0.96875 0.41905 0.96875 0.96875v16c0 0.5497-0.41905 0.96875-0.96875 0.96875h-16c-0.5497 0-0.96875-0.41905-0.96875-0.96875v-16c0-0.5497 0.41905-0.96875 0.96875-0.96875z" fill="url(#linearGradient3961)" fill-rule="evenodd" opacity=".2"/>
  <path id="path3235" d="m4 20c-1.108 0-2-0.892-2-2v-1c0 1.108 0.892 2 2 2h16c1.108 0 2-0.892 2-2v1c0 1.108-0.892 2-2 2h-16z" fill="url(#linearGradient3845)" fill-rule="evenodd" opacity=".2"/>
 </g>
 <g id="layer5" transform="translate(0,2)">
  <rect id="rect3453" x="5" y="10" width="14" height="10" fill="url(#linearGradient3461)" fill-rule="evenodd" opacity=".4"/>
  <path id="path3463" d="m5.0471 0.46113h13.947" fill="none" opacity=".3" stroke="#fff" stroke-width="1px"/>
 </g>
</svg>
