<?xml version="1.0" encoding="UTF-8"?>
<!-- Created with Inkscape (http://www.inkscape.org/) -->
<svg id="svg2" width="22" height="22" version="1.1" xmlns="http://www.w3.org/2000/svg" xmlns:cc="http://creativecommons.org/ns#" xmlns:dc="http://purl.org/dc/elements/1.1/" xmlns:rdf="http://www.w3.org/1999/02/22-rdf-syntax-ns#" xmlns:xlink="http://www.w3.org/1999/xlink">
 <defs id="defs4">
  <linearGradient id="linearGradient3335" x1="11.375" x2="11.375" y1="22" y2="-9.8173" gradientUnits="userSpaceOnUse">
   <stop id="stop3330" offset="0"/>
   <stop id="stop3333" stop-opacity="0" offset="1"/>
  </linearGradient>
  <linearGradient id="linearGradient3181" x1="-3.0608" x2="-3.0608" y1="27.258" y2="7.2537" gradientTransform="translate(11.119 23.742)" gradientUnits="userSpaceOnUse">
   <stop id="stop3189" stop-color="#29669f" offset="0"/>
   <stop id="stop3191" stop-color="#88b6e0" offset="1"/>
  </linearGradient>
  <filter id="filter3194" x="-.18" y="-.18" width="1.36" height="1.36" color-interpolation-filters="sRGB">
   <feGaussianBlur id="feGaussianBlur3196" stdDeviation="1.2"/>
  </filter>
  <clipPath id="clipPath2849">
   <rect id="rect2851" x="1" y="1" width="20" height="20" rx="2" ry="2" fill="#fff" fill-rule="evenodd"/>
  </clipPath>
  <linearGradient id="linearGradient3768-2" x1="23.25" x2="72.75" y1="77.172" y2="77.172" gradientTransform="matrix(0 -.24242 .24242 0 -.63637 22.636)" gradientUnits="userSpaceOnUse">
   <stop id="stop3760-4" stop-color="#fff6d5" offset="0"/>
   <stop id="stop3762-1" stop-color="#f1b31e" offset="1"/>
  </linearGradient>
  <linearGradient id="linearGradient3764-28" x1="23.25" x2="72.75" y1="77.172" y2="77.172" gradientTransform="matrix(0 -.24242 -.24242 0 22.636 22.636)" gradientUnits="userSpaceOnUse">
   <stop id="stop3772-9" stop-color="#ff8080" offset="0"/>
   <stop id="stop3774-2" stop-color="#a00" offset="1"/>
  </linearGradient>
  <radialGradient id="radialGradient3862" cx="48" cy="48" r="21" gradientTransform="matrix(.47619 0 0 .45635 -11.857 -10.905)" gradientUnits="userSpaceOnUse">
   <stop id="stop3666-3" stop-color="#f8e076" offset="0"/>
   <stop id="stop3680-3" stop-color="#f8e076" offset=".79928"/>
   <stop id="stop3668-3" stop-color="#f3db44" offset="1"/>
  </radialGradient>
  <radialGradient id="radialGradient3864" cx="48" cy="48" r="21" gradientTransform="matrix(1.7385e-8 -.45635 .47619 1.8141e-8 -11.857 32.905)" gradientUnits="userSpaceOnUse">
   <stop id="stop3646" stop-color="#ef2929" offset="0"/>
   <stop id="stop3652" stop-color="#ef2929" offset=".80064"/>
   <stop id="stop3648" stop-color="#df1616" offset="1"/>
  </radialGradient>
  <radialGradient id="radialGradient3866" cx="48" cy="67.25" r="40.25" gradientTransform="matrix(.2381 0 0 .24845 -.42857 -5.7081)" gradientUnits="userSpaceOnUse">
   <stop id="stop3656-8" stop-color="#75c624" offset="0"/>
   <stop id="stop3662-6" stop-color="#75c624" offset=".7826"/>
   <stop id="stop3658-8" stop-color="#60a914" offset="1"/>
  </radialGradient>
  <radialGradient id="radialGradient3868" cx="37.646" cy="48" r="42" gradientTransform="matrix(0 .2381 -.2381 0 22.429 1.9524)" gradientUnits="userSpaceOnUse">
   <stop id="stop3686-4" stop-color="#5c88bc" offset="0"/>
   <stop id="stop3690-7" stop-color="#5c88bc" offset=".7881"/>
   <stop id="stop3688-6" stop-color="#416da4" offset="1"/>
  </radialGradient>
  <linearGradient id="linearGradient3786" x1="9.0914" x2="83.843" y1="48.018" y2="48.018" gradientUnits="userSpaceOnUse">
   <stop id="stop3782" stop-color="#fff" offset="0"/>
   <stop id="stop3784" stop-color="#fff" stop-opacity="0" offset="1"/>
  </linearGradient>
  <radialGradient id="radialGradient3080" cx="25.873" cy="48.018" r="37.376" gradientTransform="matrix(1 0 0 1.1951 0 -9.3703)" gradientUnits="userSpaceOnUse">
   <stop id="stop3665" stop-color="#fff" offset="0"/>
   <stop id="stop3667" stop-color="#b9b9b9" offset="1"/>
  </radialGradient>
  <linearGradient id="linearGradient3845" x1="11" x2="21" y1="19.5" y2="19.5" gradientUnits="userSpaceOnUse" spreadMethod="reflect">
   <stop id="stop3833" stop-color="#fff" offset="0"/>
   <stop id="stop3821" stop-color="#fff" stop-opacity=".49804" offset=".75"/>
   <stop id="stop3835" stop-color="#fff" stop-opacity="0" offset="1"/>
  </linearGradient>
  <linearGradient id="linearGradient3961" x1="10" x2="10" y1="1" y2="16" gradientUnits="userSpaceOnUse">
   <stop id="stop3825" stop-color="#fff" offset="0"/>
   <stop id="stop3829" stop-color="#fff" stop-opacity="0" offset="1"/>
  </linearGradient>
 </defs>
 <metadata id="metadata7">
  <rdf:RDF>
   <cc:Work rdf:about="">
    <dc:format>image/svg+xml</dc:format>
    <dc:type rdf:resource="http://purl.org/dc/dcmitype/StillImage"/>
   </cc:Work>
  </rdf:RDF>
 </metadata>
 <g id="layer1">
  <g id="g3337">
   <rect id="rect3371" x=".5" y=".5" width="21" height="21.5" rx="2.5" ry="2.5" fill="url(#linearGradient3335)" opacity=".3"/>
   <rect id="rect2553" x="1" y="2" width="20" height="20" rx="2.381" ry="2.3256" opacity=".5"/>
  </g>
  <rect id="rect3173" x="1" y="31" width="20" height="20" rx="2" ry="2" fill="url(#linearGradient3181)" fill-rule="evenodd"/>
  <path id="rect2419" d="m2.4375 3.375c-0.79143 0-1.4375 0.64607-1.4375 1.4375v14.188c0 1.108 0.892 2 2 2h16c1.108 0 2-0.892 2-2v-14.188c0-0.79143-0.64607-1.4375-1.4375-1.4375h-17.125z" fill="url(#radialGradient3868)"/>
  <path id="path3754" d="m11 19.485c2.1715 0 4.3432-0.82808 6-2.4848l-0.34091-0.34091c-3.1242 3.1242-8.194 3.1242-11.318 0l-0.34091 0.34091c1.6568 1.6568 3.8285 2.4848 6 2.4848z" fill="#85a3c9"/>
  <path id="path2857" d="M 3,1 C 2.446,1 1.95525,1.23225 1.59375,1.59375 L 11,11 20.40625,1.59375 C 20.04475,1.23225 19.554,1 19,1 L 3,1 z" fill="url(#radialGradient3866)"/>
  <path id="path2861" d="M 1.59375,1.59375 C 1.23225,1.95525 1,2.446 1,3 l 0,16 c 0,0.554 0.23225,1.04475 0.59375,1.40625 L 11,11 1.59375,1.59375 z" fill="url(#radialGradient3864)"/>
  <path id="path2859" d="m20.406 1.5938-9.4062 9.4062 9.4062 9.4062c0.3615-0.3615 0.59375-0.85225 0.59375-1.4062v-16c0-0.554-0.23225-1.0448-0.59375-1.4062z" fill="url(#radialGradient3862)"/>
  <path id="path3742" d="m11 2.5151c-2.1715 0-4.3432 0.82808-6 2.4848l0.34091 0.34091c3.1242-3.1242 8.194-3.1242 11.318 0l0.34091-0.34091c-1.6568-1.6568-3.8285-2.4848-6-2.4848z" opacity=".3"/>
  <path id="path3756" d="m2.5152 11c0-2.1715 0.82808-4.3432 2.4848-6l0.34091 0.34091c-3.1242 3.1242-3.1242 8.194 0 11.318l-0.34091 0.34091c-1.6568-1.6568-2.4848-3.8285-2.4848-6z" fill="url(#linearGradient3764-28)"/>
  <path id="path3766" d="m19.485 11c0-2.1715-0.82808-4.3432-2.4848-6l-0.34091 0.34091c3.1242 3.1242 3.1242 8.194 0 11.318l0.34091 0.34091c1.6568-1.6568 2.4848-3.8285 2.4848-6z" fill="url(#linearGradient3768-2)"/>
  <path id="rect3924" transform="translate(0,-2)" d="m19.531 3.0625-18.469 18.469c0.092599 0.34036 0.2895 0.63325 0.53125 0.875l18.812-18.812c-0.24175-0.24175-0.53464-0.43865-0.875-0.53125z" fill="#fff" opacity=".3"/>
  <path id="rect3938" transform="translate(0,-2)" d="m20.406 3.5938-18.812 18.812c0.24175 0.24175 0.53464 0.43865 0.875 0.53125l18.469-18.469c-0.0926-0.34036-0.2895-0.63325-0.53125-0.875z" opacity=".2"/>
  <path id="rect3940" transform="translate(0,-2)" d="m2.4688 3.0625c-0.34036 0.092599-0.63325 0.2895-0.875 0.53125l18.812 18.812c0.24175-0.24175 0.43865-0.53464 0.53125-0.875l-18.469-18.469z" fill="#fff" opacity=".3"/>
  <path id="rect3942" transform="translate(0,-2)" d="m1.5938 3.5938c-0.24175 0.24175-0.43865 0.53464-0.53125 0.875l18.469 18.469c0.34036-0.0926 0.63325-0.2895 0.875-0.53125l-18.812-18.812z" opacity=".2"/>
  <path id="rect3050" d="m3 1c-1.108 0-2 0.892-2 2v16c0 1.108 0.892 2 2 2h16c1.108 0 2-0.892 2-2v-16c0-1.108-0.892-2-2-2h-16zm0 1.0312h16c0.5497 0 0.96875 0.41905 0.96875 0.96875v16c0 0.5497-0.41905 0.96875-0.96875 0.96875h-16c-0.5497 0-0.96875-0.41905-0.96875-0.96875v-16c0-0.5497 0.41905-0.96875 0.96875-0.96875z" fill="url(#linearGradient3961)" fill-rule="evenodd" opacity=".35"/>
  <path id="path3235" d="m3 21c-1.108 0-2-0.892-2-2v-1c0 1.108 0.892 2 2 2h16c1.108 0 2-0.892 2-2v1c0 1.108-0.892 2-2 2h-16z" fill="url(#linearGradient3845)" fill-rule="evenodd" opacity=".2"/>
 </g>
 <g id="layer2">
  <rect id="rect2410" x="3" y="3" width="16" height="16" rx="2" ry="2" clip-path="url(#clipPath2849)" fill="#fff" filter="url(#filter3194)" opacity=".15"/>
 </g>
 <g id="layer3">
  <path id="path2855" transform="matrix(0 -.21404 .21404 0 .72213 20.854)" d="m83.843 48.018c0 20.642-16.734 37.376-37.376 37.376-20.642 0-37.376-16.734-37.376-37.376 0-20.642 16.734-37.376 37.376-37.376 20.642 0 37.376 16.734 37.376 37.376z" fill="url(#radialGradient3080)"/>
  <path id="path3801" d="m12.855 16.191c-0.12151-0.03739-0.22918-0.11187-0.33719-0.23326-0.1522-0.17105-0.17134-0.18003-0.46899-0.2201-0.37338-0.05026-1.4879-0.05282-1.8645-0.0043-0.1489 0.0192-0.30204 0.06323-0.34031 0.09788-0.03828 0.03464-0.09366 0.06298-0.12307 0.06298-0.02941 0-0.14908 0.06584-0.26593 0.14632-0.32304 0.22248-0.54815 0.22639-1.0633 0.01843-0.21848-0.0882-0.54872-0.19556-0.73388-0.23858-0.70926-0.1648-1.3885-0.3533-1.4465-0.40142-0.08433-0.06999-0.07608-0.1677 0.04337-0.51349 0.09638-0.279 0.10148-0.32747 0.07126-0.67736-0.05007-0.57989-0.03983-0.67814 0.08158-0.78258 0.08499-0.0731 0.15201-0.09014 0.35452-0.09014 0.3639 0 0.47593-0.05197 0.6213-0.28822 0.11664-0.18956 0.12126-0.21124 0.07496-0.35154-0.07057-0.21382-0.02166-0.48134 0.13589-0.74324 0.22803-0.37907 0.33762-0.62287 0.50652-1.1268 0.20775-0.61987 0.2001-0.60594 0.62796-1.1423 0.43116-0.54048 0.61431-0.81106 0.65067-0.96126 0.01477-0.061 0.0076-0.41802-0.016-0.79339-0.06933-1.1043-0.06063-1.6325 0.03165-1.9207 0.19858-0.62036 0.55916-0.93665 1.1822-1.037 0.5153-0.08299 1.1991 0.14155 1.5746 0.51705 0.21344 0.21344 0.40347 0.58003 0.46278 0.89273 0.02141 0.1129 0.05915 0.5234 0.08386 0.91222 0.03878 0.61011 0.05984 0.74555 0.1537 0.98865 0.1762 0.45633 0.61098 1.1627 0.97554 1.5849 0.29394 0.3404 0.35536 0.43901 0.49114 0.78852 0.27102 0.69766 0.32734 0.92261 0.35039 1.3996 0.01326 0.27433 0.0033 0.53709-0.02593 0.68577-0.04595 0.23357-0.04428 0.24477 0.05404 0.36162 0.0761 0.09044 0.10146 0.16542 0.10146 0.29997 0 0.09866 0.02938 0.2413 0.06528 0.31695 0.08348 0.17593 0.36841 0.46114 0.59098 0.59158 0.20613 0.1208 0.24794 0.21928 0.1553 0.36578-0.10174 0.1609-0.19872 0.22998-0.63304 0.45088-0.42937 0.21839-0.57629 0.32145-0.9719 0.68178-0.43153 0.39304-0.73731 0.48931-1.1504 0.36218z" fill="#777" opacity=".56855"/>
  <path id="path3778" transform="matrix(0 .085987 .14492 0 4.0414 2.7906)" d="m83.843 48.018c0 20.642-16.734 37.376-37.376 37.376-20.642 0-37.376-16.734-37.376-37.376 0-20.642 16.734-37.376 37.376-37.376 20.642 0 37.376 16.734 37.376 37.376z" fill="url(#linearGradient3786)"/>
  <path id="path3903" d="m11 2.9062c-4.4183 0-8 3.5817-8 8s3.5817 8 8 8 8-3.5817 8-8-3.5817-8-8-8zm0 1c3.866 0 7 3.134 7 7 0 3.866-3.134 7-7 7-3.866 0-7-3.134-7-7 0-3.866 3.134-7 7-7z" opacity=".15"/>
  <path id="path3908" d="m11 2.9062c-4.4183 0-8 3.5817-8 8s3.5817 8 8 8 8-3.5817 8-8-3.5817-8-8-8zm0 0.59375c4.1421 0 7.5 3.3579 7.5 7.5 0 4.1421-3.3579 7.5-7.5 7.5-4.1421 0-7.5-3.3579-7.5-7.5 0-4.1421 3.3579-7.5 7.5-7.5z" opacity=".4"/>
  <path id="path3913" d="m4.0312 10.406c-0.01167 0.16526-0.03125 0.33178-0.03125 0.5 0 3.866 3.134 7 7 7 3.866 0 7-3.134 7-7 0-0.16822-0.01958-0.33474-0.03125-0.5-0.25653 3.6325-3.271 6.5-6.9688 6.5-3.6978 0-6.7122-2.8675-6.9688-6.5z" fill="#fff" opacity=".8"/>
 </g>
</svg>
