<?xml version="1.0" encoding="UTF-8"?>
<svg id="svg2" width="24" height="24" version="1.1" xmlns="http://www.w3.org/2000/svg" xmlns:cc="http://creativecommons.org/ns#" xmlns:dc="http://purl.org/dc/elements/1.1/" xmlns:rdf="http://www.w3.org/1999/02/22-rdf-syntax-ns#">
 <metadata id="metadata46">
  <rdf:RDF>
   <cc:Work rdf:about="">
    <dc:format>image/svg+xml</dc:format>
    <dc:type rdf:resource="http://purl.org/dc/dcmitype/StillImage"/>
   </cc:Work>
  </rdf:RDF>
 </metadata>
 <defs id="defs4">
  <linearGradient id="linearGradient3335" x1="11.375" x2="11.375" y1="22" y2="-9.8173" gradientUnits="userSpaceOnUse">
   <stop id="stop3330" offset="0"/>
   <stop id="stop3333" stop-opacity="0" offset="1"/>
  </linearGradient>
  <linearGradient id="linearGradient3181" x1="-3.0608" x2="-3.0608" y1="27.258" y2="7.2537" gradientTransform="translate(12.119 -7.2582)" gradientUnits="userSpaceOnUse">
   <stop id="stop3189" stop-color="#224f7c" offset="0"/>
   <stop id="stop3191" stop-color="#4284ad" offset="1"/>
  </linearGradient>
  <filter id="filter3194" x="-.18" y="-.18" width="1.36" height="1.36" color-interpolation-filters="sRGB">
   <feGaussianBlur id="feGaussianBlur3196" stdDeviation="1.2"/>
  </filter>
  <clipPath id="clipPath2849">
   <rect id="rect2851" x="1" y="1" width="20" height="20" rx="2" ry="2" fill="#fff" fill-rule="evenodd"/>
  </clipPath>
  <linearGradient id="linearGradient3845" x1="11" x2="21" y1="19.5" y2="19.5" gradientTransform="translate(1,-1)" gradientUnits="userSpaceOnUse" spreadMethod="reflect">
   <stop id="stop3833" stop-color="#fff" offset="0"/>
   <stop id="stop3821" stop-color="#fff" stop-opacity=".49804" offset=".75"/>
   <stop id="stop3835" stop-color="#fff" stop-opacity="0" offset="1"/>
  </linearGradient>
  <linearGradient id="linearGradient3961" x1="10" x2="10" y1="1" y2="16" gradientTransform="translate(1,-1)" gradientUnits="userSpaceOnUse">
   <stop id="stop3825" stop-color="#fff" offset="0"/>
   <stop id="stop3829" stop-color="#fff" stop-opacity="0" offset="1"/>
  </linearGradient>
 </defs>
 <g id="layer1" transform="translate(0,2)">
  <g id="g3337" transform="translate(1,-1)">
   <rect id="rect3371" x=".5" y=".5" width="21" height="21.5" rx="2.5" ry="2.5" fill="url(#linearGradient3335)" opacity=".3"/>
   <rect id="rect2553" x="1" y="2" width="20" height="20" rx="2.381" ry="2.3256" opacity=".5"/>
  </g>
  <rect id="rect3173" x="2" width="20" height="20" rx="2" ry="2" fill="url(#linearGradient3181)" fill-rule="evenodd"/>
  <path id="rect3050" d="m4 0c-1.108 0-2 0.892-2 2v16c0 1.108 0.892 2 2 2h16c1.108 0 2-0.892 2-2v-16c0-1.108-0.892-2-2-2h-16zm0 1.0312h16c0.5497 0 0.96875 0.41905 0.96875 0.96875v16c0 0.5497-0.41905 0.96875-0.96875 0.96875h-16c-0.5497 0-0.96875-0.41905-0.96875-0.96875v-16c0-0.5497 0.41905-0.96875 0.96875-0.96875z" fill="url(#linearGradient3961)" fill-rule="evenodd" opacity=".35"/>
  <path id="path3235" d="m4 20c-1.108 0-2-0.892-2-2v-1c0 1.108 0.892 2 2 2h16c1.108 0 2-0.892 2-2v1c0 1.108-0.892 2-2 2h-16z" fill="url(#linearGradient3845)" fill-rule="evenodd" opacity=".2"/>
 </g>
 <g id="layer2" transform="translate(0,2)">
  <rect id="rect2410" transform="translate(1,-1)" x="3" y="3" width="16" height="16" rx="2" ry="2" clip-path="url(#clipPath2849)" fill="#fff" filter="url(#filter3194)" opacity=".15"/>
 </g>
 <defs id="defs37">
  <filter id="w">
   <feGaussianBlur id="feGaussianBlur29" stdDeviation="0.26998568"/>
  </filter>
 </defs>
 <g id="main">
  <path id="path4577" d="m15.355 5.5-0.48828 0.22461c-0.3952 0.18091-0.70858 0.23853-1.6152 0.30078-2.0016 0.1374-3.2055 0.62527-4.3613 1.7637-1.462 1.44-1.8404 3.1112-1.1484 5.082l0.2793 0.79492-0.74805 0.68945c-0.88652 0.8163-1.1986 1.3617-1.2676 2.2207-0.1086 1.3536 0.82078 2.6189 2.1133 2.8789 0.466 0.09373 1.1875 0.03771 1.8438-0.14258 1.109-0.3047 2.1997-1.5566 2.834-3.252 0.20505-0.54811 0.43838-0.76769 1.0391-0.98047 1.1734-0.4157 1.9075-0.85742 2.625-1.5801 1.3238-1.3333 1.7972-2.762 1.4102-4.248-0.1965-0.7545-0.5231-1.2988-1.1309-1.8789-1.5332-1.4633-1.4976-1.4227-1.4395-1.6543zm-3.0723 1.248c0.43062 0.03095 0.55615 0.081555 0.81055 0.32812l0.30078 0.29102-0.40039 0.85156c-0.77967 1.6601-1.0106 2.4589-1.4785 5.0957-0.4713 2.6561-1.1945 4.0927-2.3633 4.6914h-0.00195c-0.58932 0.30189-1.0147 0.34411-1.4473 0.14258-0.62528-0.2913-0.91343-1.0283-0.62305-1.5898 0.18755-0.3627 0.34559-0.43635 1.1738-0.55859 0.61724-0.0911 0.72764-0.13917 1.0234-0.43359 0.57456-0.5719 0.47019-0.93618-0.59961-2.1133-0.85822-0.9443-0.9707-1.2316-0.9707-2.4805 0-0.99146 0.00862-1.0338 0.33008-1.707 0.7678-1.6081 2.5118-2.6422 4.2461-2.5176zm2.1094 0.78711c0.13956 0.00844 0.31964 0.12621 0.56836 0.35547 0.84473 0.7787 1.3431 2.3964 1.127 3.6582-0.1566 0.9145-0.69379 1.7832-1.4082 2.2734-0.54 0.37057-0.76172 0.38868-1.0918 0.09375l-0.2832-0.25195 0.0078-0.92578c0.01426-1.5891 0.39029-4.0321 0.75391-4.9023 0.0873-0.20893 0.18662-0.30922 0.32617-0.30078z" filter="url(#w)" opacity=".6" stroke-width=".088413"/>
  <path id="base" transform="translate(4,4)" d="m11.355 1-0.48828 0.22461c-0.3952 0.18091-0.70858 0.23853-1.6152 0.30078-2.0016 0.1374-3.2055 0.62527-4.3613 1.7637-1.462 1.44-1.8404 3.1112-1.1484 5.082l0.2793 0.79492-0.74805 0.68945c-0.88652 0.8163-1.1986 1.3617-1.2676 2.2207-0.1086 1.3536 0.82078 2.6189 2.1133 2.8789 0.466 0.09373 1.1875 0.037712 1.8438-0.14258 1.109-0.3047 2.1997-1.5566 2.834-3.252 0.20505-0.54811 0.43838-0.76769 1.0391-0.98047 1.1734-0.4157 1.9075-0.85742 2.625-1.5801 1.3238-1.3333 1.7972-2.762 1.4102-4.248-0.1965-0.7545-0.5231-1.2988-1.1309-1.8789-1.5332-1.4633-1.4976-1.4227-1.4395-1.6543l0.054688-0.21875zm-3.0723 1.248c0.43062 0.03095 0.55615 0.081555 0.81055 0.32812l0.30078 0.29102-0.40039 0.85156c-0.77967 1.6601-1.0106 2.4589-1.4785 5.0957-0.4713 2.6561-1.1945 4.0927-2.3633 4.6914h-0.0019532c-0.58932 0.30189-1.0147 0.34411-1.4473 0.14258-0.62528-0.2913-0.91343-1.0283-0.62305-1.5898 0.18755-0.3627 0.34559-0.43635 1.1738-0.55859 0.61724-0.0911 0.72764-0.13917 1.0234-0.43359 0.57456-0.5719 0.47019-0.93618-0.59961-2.1133-0.85822-0.9443-0.9707-1.2316-0.9707-2.4805 0-0.99146 0.0086182-1.0338 0.33008-1.707 0.7678-1.6081 2.5118-2.6422 4.2461-2.5176zm2.1094 0.78711c0.13956 0.0084426 0.31964 0.12621 0.56836 0.35547 0.84473 0.7787 1.3431 2.3964 1.127 3.6582-0.1566 0.9145-0.69379 1.7832-1.4082 2.2734-0.54 0.37057-0.76172 0.38868-1.0918 0.09375l-0.2832-0.25195 0.0078125-0.92578c0.01426-1.5891 0.39029-4.0321 0.75391-4.9023 0.0873-0.20893 0.18662-0.30922 0.32617-0.30078z" fill="#fff" stroke-width=".088413"/>
 </g>
</svg>
