<?xml version="1.0" encoding="UTF-8"?>
<!-- Created with Inkscape (http://www.inkscape.org/) -->
<svg id="svg2" width="24" height="24" version="1.1" xmlns="http://www.w3.org/2000/svg" xmlns:cc="http://creativecommons.org/ns#" xmlns:dc="http://purl.org/dc/elements/1.1/" xmlns:rdf="http://www.w3.org/1999/02/22-rdf-syntax-ns#" xmlns:xlink="http://www.w3.org/1999/xlink">
 <defs id="defs4">
  <linearGradient id="linearGradient3335" x1="11.375" x2="11.375" y1="22" y2="-9.8173" gradientUnits="userSpaceOnUse">
   <stop id="stop3330" offset="0"/>
   <stop id="stop3333" stop-opacity="0" offset="1"/>
  </linearGradient>
  <linearGradient id="linearGradient3181" x1="-3.0608" x2="-3.0608" y1="27.258" y2="7.2537" gradientTransform="translate(12.119 -7.2582)" gradientUnits="userSpaceOnUse">
   <stop id="stop3702" stop-color="#b4b4b4" offset="0"/>
   <stop id="stop3704" stop-color="#e6e6e6" offset="1"/>
  </linearGradient>
  <filter id="filter3194" x="-.18" y="-.18" width="1.36" height="1.36" color-interpolation-filters="sRGB">
   <feGaussianBlur id="feGaussianBlur3196" stdDeviation="1.2"/>
  </filter>
  <clipPath id="clipPath2849">
   <rect id="rect2851" x="1" y="1" width="20" height="20" rx="2" ry="2" fill="#fff" fill-rule="evenodd"/>
  </clipPath>
  <linearGradient id="linearGradient3845" x1="11" x2="21" y1="19.5" y2="19.5" gradientTransform="translate(1,-1)" gradientUnits="userSpaceOnUse" spreadMethod="reflect">
   <stop id="stop3833" stop-color="#fff" offset="0"/>
   <stop id="stop3821" stop-color="#fff" stop-opacity=".49804" offset=".75"/>
   <stop id="stop3835" stop-color="#fff" stop-opacity="0" offset="1"/>
  </linearGradient>
  <linearGradient id="linearGradient3961" x1="10" x2="10" y1="1" y2="16" gradientTransform="translate(1,-1)" gradientUnits="userSpaceOnUse">
   <stop id="stop3825" stop-color="#fff" offset="0"/>
   <stop id="stop3829" stop-color="#fff" stop-opacity="0" offset="1"/>
  </linearGradient>
  <clipPath id="clipPath4157">
   <path id="path4159" d="m269.47 688.53c15.602 15.625 19.169 37.385 19.169 37.385s-21.729-3.5724-37.33-19.197c-15.602-15.625-19.169-37.385-19.169-37.385s21.729 3.5724 37.33 19.197z" color="#000000" enable-background="new" fill="#f57900" fill-rule="evenodd"/>
  </clipPath>
  <filter id="filter4161" x="-.12009" y="-.11991" width="1.2402" height="1.2398" color-interpolation-filters="sRGB">
   <feGaussianBlur id="feGaussianBlur4163" stdDeviation="2.8270453"/>
  </filter>
  <clipPath id="clipPath4083">
   <path id="path4085" d="m515.87 745.01c15.602 15.625 19.169 37.385 19.169 37.385s-21.729-3.5724-37.33-19.197c-15.602-15.625-19.169-37.385-19.169-37.385s21.729 3.5724 37.33 19.197z" color="#000000" enable-background="new" fill="#729fcf" fill-rule="evenodd"/>
  </clipPath>
  <filter id="filter4087" x="-.12009" y="-.11991" width="1.2402" height="1.2398" color-interpolation-filters="sRGB">
   <feGaussianBlur id="feGaussianBlur4089" stdDeviation="2.8270455"/>
  </filter>
  <clipPath id="clipPath4071">
   <path id="path4073" d="m515.87 706.72c-15.602 15.625-37.33 19.197-37.33 19.197s3.5672-21.76 19.169-37.385 37.33-19.197 37.33-19.197-3.5672 21.76-19.169 37.385z" color="#000000" enable-background="new" fill="#afea2c" fill-rule="evenodd"/>
  </clipPath>
  <filter id="filter4075" x="-.12009" y="-.11991" width="1.2402" height="1.2398" color-interpolation-filters="sRGB">
   <feGaussianBlur id="feGaussianBlur4077" stdDeviation="2.8270455"/>
  </filter>
  <clipPath id="clipPath4133">
   <path id="path4135" d="m538.47 738.73c-22.064 0-39.951-12.861-39.951-12.861s17.887-12.861 39.951-12.861 39.951 12.861 39.951 12.861-17.887 12.861-39.951 12.861z" color="#000000" enable-background="new" fill="#65c808" fill-rule="evenodd"/>
  </clipPath>
  <filter id="filter4137" x="-.079315" y="-.24639" width="1.1586" height="1.4928" color-interpolation-filters="sRGB">
   <feGaussianBlur id="feGaussianBlur4139" stdDeviation="2.6406015"/>
  </filter>
  <clipPath id="clipPath4197">
   <path id="path4199" d="m299.47 763.2c-15.602 15.625-37.33 19.197-37.33 19.197s3.5672-21.76 19.169-37.385 37.33-19.197 37.33-19.197-3.5672 21.76-19.169 37.385z" color="#000000" enable-background="new" fill="#75507b" fill-rule="evenodd"/>
  </clipPath>
  <filter id="filter4201" x="-.12009" y="-.11991" width="1.2402" height="1.2398" color-interpolation-filters="sRGB">
   <feGaussianBlur id="feGaussianBlur4203" stdDeviation="2.8270453"/>
  </filter>
  <clipPath id="clipPath4181">
   <path id="path4183" d="m348.71 698.73c-22.064 0-39.951-12.861-39.951-12.861s17.887-12.861 39.951-12.861 39.951 12.861 39.951 12.861-17.887 12.861-39.951 12.861z" color="#000000" enable-background="new" fill="#ef2929" fill-rule="evenodd"/>
  </clipPath>
  <filter id="filter4189" x="-.079315" y="-.24639" width="1.1586" height="1.4928" color-interpolation-filters="sRGB">
   <feGaussianBlur id="feGaussianBlur4191" stdDeviation="2.6406013"/>
  </filter>
  <clipPath id="clipPath4145">
   <path id="path4147" d="m401.43 865.8c0 22.097-12.842 40.01-12.842 40.01s-12.842-17.913-12.842-40.01 12.842-40.01 12.842-40.01 12.842 17.913 12.842 40.01z" color="#000000" enable-background="new" fill="#3465a4" fill-rule="evenodd"/>
  </clipPath>
  <filter id="filter4149" x="-.24693" y="-.079258" width="1.4939" height="1.1585" color-interpolation-filters="sRGB">
   <feGaussianBlur id="feGaussianBlur4151" stdDeviation="2.642588"/>
  </filter>
  <clipPath id="clipPath4169">
   <path id="path4171" d="m471.43 685.93c0 22.097-12.842 40.01-12.842 40.01s-12.842-17.913-12.842-40.01 12.842-40.01 12.842-40.01 12.842 17.913 12.842 40.01z" color="#000000" enable-background="new" fill="#edd400" fill-rule="evenodd"/>
  </clipPath>
  <filter id="filter4173" x="-.24693" y="-.079258" width="1.4939" height="1.1585" color-interpolation-filters="sRGB">
   <feGaussianBlur id="feGaussianBlur4175" stdDeviation="2.642588"/>
  </filter>
  <linearGradient id="linearGradient3977">
   <stop id="stop3979" stop-color="#f9f9f9" offset="0"/>
   <stop id="stop3981" stop-color="#f9f9f9" stop-opacity="0" offset="1"/>
  </linearGradient>
  <clipPath id="clipPath3983">
   <path id="path3985" d="m184.12 701.5a2.2363 2.2363 0 0 0-1.4688 0.90625s-3.328 4.7671-4.0312 11.156c-5.0181-4.0229-10.75-5.0625-10.75-5.0625a2.2363 2.2363 0 0 0-2.5938 2.5625s1.034 5.7649 5.0625 10.781c-6.3978 0.70283-11.188 4.0312-11.188 4.0312a2.2363 2.2363 0 0 0 0 3.625s4.7948 3.3031 11.188 4c-4.0285 5.0164-5.0625 10.781-5.0625 10.781a2.2363 2.2363 0 0 0 2.5938 2.5625s5.7319-1.0396 10.75-5.0625c0.70267 6.3934 4.0312 11.188 4.0312 11.188a2.2363 2.2363 0 0 0 3.625 0s3.3111-4.8145 4-11.219c5.0262 4.0467 10.781 5.0938 10.781 5.0938a2.2363 2.2363 0 0 0 2.5938-2.5938s-1.0624-5.7373-5.0938-10.75c6.397-0.69632 11.219-4 11.219-4a2.2363 2.2363 0 0 0 0-3.625s-4.8167-3.329-11.219-4.0312c4.0313-5.0127 5.0938-10.75 5.0938-10.75a2.2363 2.2363 0 0 0-2.59-2.6s-5.755 1.047-10.781 5.0938c-0.69265-6.3936-4-11.188-4-11.188a2.2363 2.2363 0 0 0-2.16-0.91z" color="#000000" enable-background="new" fill="#eeeeec" fill-rule="evenodd"/>
  </clipPath>
  <linearGradient id="linearGradient3979" x1="184.46" x2="184.46" y1="711.15" y2="804.8" gradientUnits="userSpaceOnUse" xlink:href="#linearGradient3977"/>
 </defs>
 <metadata id="metadata7">
  <rdf:RDF>
   <cc:Work rdf:about="">
    <dc:format>image/svg+xml</dc:format>
    <dc:type rdf:resource="http://purl.org/dc/dcmitype/StillImage"/>
    <dc:title/>
   </cc:Work>
  </rdf:RDF>
 </metadata>
 <g id="layer1" transform="translate(0,2)">
  <g id="g3337" transform="translate(1,-1)">
   <rect id="rect3371" x=".5" y=".5" width="21" height="21.5" rx="2.5" ry="2.5" fill="url(#linearGradient3335)" opacity=".3"/>
   <rect id="rect2553" x="1" y="2" width="20" height="20" rx="2.381" ry="2.3256" opacity=".5"/>
  </g>
  <rect id="rect3173" x="2" width="20" height="20" rx="2" ry="2" fill="url(#linearGradient3181)" fill-rule="evenodd"/>
  <path id="path3018" d="m-26-1.8e-7c-1.108 0-2 0.892-2 2v1c0-1.108 0.892-2 2-2h16c1.108 0 2 0.892 2 2v-1c0-1.108-0.892-2-2-2h-16z" fill="#fff" fill-rule="evenodd" opacity=".25"/>
  <path id="path3020" d="m-26 20c-1.108 0-2-0.892-2-2v-1c0 1.108 0.892 2 2 2h16c1.108 0 2-0.892 2-2v1c0 1.108-0.892 2-2 2h-16z" fill-rule="evenodd" opacity=".15"/>
  <path id="rect3050" d="m4 0c-1.108 0-2 0.892-2 2v16c0 1.108 0.892 2 2 2h16c1.108 0 2-0.892 2-2v-16c0-1.108-0.892-2-2-2h-16zm0 1.0312h16c0.5497 0 0.96875 0.41905 0.96875 0.96875v16c0 0.5497-0.41905 0.96875-0.96875 0.96875h-16c-0.5497 0-0.96875-0.41905-0.96875-0.96875v-16c0-0.5497 0.41905-0.96875 0.96875-0.96875z" fill="url(#linearGradient3961)" fill-rule="evenodd" opacity=".45"/>
  <path id="path3235" d="m4 20c-1.108 0-2-0.892-2-2v-1c0 1.108 0.892 2 2 2h16c1.108 0 2-0.892 2-2v1c0 1.108-0.892 2-2 2h-16z" fill="url(#linearGradient3845)" fill-rule="evenodd" opacity=".25"/>
 </g>
 <g id="layer2" transform="translate(0,2)">
  <rect id="rect2410" transform="translate(1,-1)" x="3" y="3" width="16" height="16" rx="2" ry="2" clip-path="url(#clipPath2849)" fill="#fff" filter="url(#filter3194)" opacity=".15"/>
 </g>
 <g id="layer3" transform="translate(0,2)" fill-rule="evenodd">
  <path id="path4005" transform="matrix(.343 0 0 .34398 -51.271 -240.32)" d="m184.12 698.97c8e-3 -7.2e-4 -0.31684 0.05-0.40625 0.0625-0.0135 2e-3 -0.0636 2.2e-4 -0.0625 0-0.0913 0.0194-0.38246 0.0957-0.375 0.0937 9e-3 -2e-3 -0.47713 0.1281-0.46875 0.125 8e-3 -3e-3 -0.41428 0.19142-0.40625 0.1875 8e-3 -4e-3 -0.4451 0.25469-0.4375 0.25 8e-3 -5e-3 -0.3821 0.25542-0.375 0.25 7e-3 -5e-3 -0.35028 0.3186-0.34375 0.3125 7e-3 -6e-3 -0.34965 0.35046-0.34375 0.34375 6e-3 -7e-3 -0.28645 0.35101-0.28125 0.34375a2.5072 2.5072 0 0 0-0.0313 0.0313s-2.3173 3.4689-3.6562 8.5c-4.5157-2.6295-8.625-3.4375-8.625-3.4375 0.0106 2e-3 -0.57323-0.0631-0.5625-0.0625 0.0107 5.9e-4 -0.57322 6.9e-4 -0.5625 0 0.0107-6.9e-4 -0.57307 0.0645-0.5625 0.0625 0.0106-2e-3 -0.57276 0.15945-0.5625 0.15625 0.0103-3e-3 -0.54105 0.1919-0.53125 0.1875 0.01-4e-3 -0.50921 0.25553-0.5 0.25 9e-3 -6e-3 -0.44599 0.35034-0.4375 0.34375 8e-3 -7e-3 -0.44514 0.38255-0.4375 0.375 8e-3 -8e-3 -0.38169 0.41466-0.375 0.40625 7e-3 -8e-3 -0.3494 0.47789-0.34375 0.46875 6e-3 -9e-3 -0.25452 0.50975-0.25 0.5 5e-3 -0.01-0.22208 0.51022-0.21875 0.5 3e-3 -0.0102-0.12709 0.57304-0.125 0.5625 2e-3 -0.0105-0.0946 0.57321-0.0937 0.5625 8.2e-4 -0.0107 4.6e-4 0.57324 0 0.5625-4.6e-4 -0.0107 0.0642 0.57311 0.0625 0.5625a2.5072 2.5072 0 0 0 0 0.0313s0.80451 4.1302 3.4375 8.6562c-5.0523 1.3368-8.5312 3.6562-8.5312 3.6562a2.5072 2.5072 0 0 0-0.0313 0.0313c9e-3 -6e-3 -0.44534 0.35097-0.4375 0.34375 8e-3 -7e-3 -0.38193 0.41434-0.375 0.40625 7e-3 -8e-3 -0.34968 0.44635-0.34375 0.4375 6e-3 -9e-3 -0.2861 0.50949-0.28125 0.5 5e-3 -9e-3 -0.22245 0.50999-0.21875 0.5 4e-3 -0.01-0.18999 0.54161-0.1875 0.53125 2e-3 -0.0104-0.095 0.57308-0.0937 0.5625 1e-3 -0.0106-0.0313 0.57315-0.0313 0.5625 0-0.0107 0.0325 0.57308 0.0313 0.5625-1e-3 -0.0106 0.0962 0.57286 0.0937 0.5625-2e-3 -0.0104 0.1912 0.54124 0.1875 0.53125-4e-3 -0.01 0.2236 0.50949 0.21875 0.5-5e-3 -9e-3 0.28718 0.50885 0.28125 0.5-6e-3 -9e-3 0.35068 0.44559 0.34375 0.4375-7e-3 -8e-3 0.38284 0.41347 0.375 0.40625-8e-3 -7e-3 0.44614 0.34999 0.4375 0.34375a2.5072 2.5072 0 0 0 0.0313 0.0313s3.4953 2.2982 8.5312 3.625c-2.633 4.5261-3.4375 8.6562-3.4375 8.6562a2.5072 2.5072 0 0 0 0 0.0313c2e-3 -0.0106-0.063 0.57324-0.0625 0.5625 4.6e-4 -0.0107 8.2e-4 0.57321 0 0.5625-8.2e-4 -0.0107 0.0958 0.57304 0.0937 0.5625-2e-3 -0.0105 0.12833 0.57272 0.125 0.5625-3e-3 -0.0102 0.22327 0.50975 0.21875 0.5-5e-3 -0.01 0.25565 0.50914 0.25 0.5-6e-3 -9e-3 0.35044 0.47716 0.34375 0.46875-7e-3 -8e-3 0.38264 0.4138 0.375 0.40625-8e-3 -8e-3 0.44599 0.38159 0.4375 0.375-8e-3 -7e-3 0.44671 0.34928 0.4375 0.34375-9e-3 -6e-3 0.5098 0.2544 0.5 0.25-0.01-4e-3 0.54151 0.1907 0.53125 0.1875-0.0103-3e-3 0.57307 0.15821 0.5625 0.15625-0.0106-2e-3 0.57322 0.0632 0.5625 0.0625-0.0107-6.9e-4 0.57323-5.9e-4 0.5625 0-0.0107 5.9e-4 0.57308-0.0644 0.5625-0.0625 0 0 4.1093-0.80804 8.625-3.4375 1.3367 5.0509 3.6562 8.5312 3.6562 8.5312a2.5072 2.5072 0 0 0 0.0313 0.0313c-6e-3 -9e-3 0.35097 0.44534 0.34375 0.4375-7e-3 -8e-3 0.41434 0.38193 0.40625 0.375-8e-3 -7e-3 0.44635 0.34968 0.4375 0.34375-9e-3 -6e-3 0.50949 0.2861 0.5 0.28125-9e-3 -5e-3 0.50999 0.22245 0.5 0.21875-0.01-4e-3 0.54161 0.18999 0.53125 0.1875-0.0104-2e-3 0.57308 0.095 0.5625 0.0937-0.0106-1e-3 0.57315 0.0313 0.5625 0.0313-0.0106 0 0.57308-0.0325 0.5625-0.0313-0.0106 1e-3 0.57286-0.0962 0.5625-0.0937-0.0104 2e-3 0.54124-0.1912 0.53125-0.1875-0.01 4e-3 0.50949-0.2236 0.5-0.21875-9e-3 5e-3 0.50885-0.28718 0.5-0.28125-9e-3 6e-3 0.44559-0.35068 0.4375-0.34375-8e-3 7e-3 0.41347-0.38284 0.40625-0.375-7e-3 8e-3 0.34999-0.44614 0.34375-0.4375a2.5072 2.5072 0 0 0 0.0313-0.0625s2.3335-3.4678 3.6562-8.5312c4.5169 2.6334 8.625 3.4688 8.625 3.4688-0.0107-2e-3 0.57333 0.0631 0.5625 0.0625-0.0108-6.1e-4 0.57332-7e-4 0.5625 0-0.0108 7e-4 0.57316-0.0645 0.5625-0.0625-0.0107 2e-3 0.57284-0.1595 0.5625-0.15625-0.0103 3e-3 0.54113-0.19197 0.53125-0.1875-0.01 4e-3 0.50927-0.28687 0.5-0.28125-9e-3 6e-3 0.47728-0.31919 0.46875-0.3125-9e-3 7e-3 0.44517-0.38267 0.4375-0.375-8e-3 8e-3 0.38169-0.44603 0.375-0.4375-7e-3 9e-3 0.31812-0.47802 0.3125-0.46875-6e-3 9e-3 0.28572-0.50988 0.28125-0.5-4e-3 0.01 0.19075-0.54159 0.1875-0.53125-3e-3 0.0103 0.15824-0.57316 0.15625-0.5625-2e-3 0.0107 0.0632-0.57332 0.0625-0.5625-7e-4 0.0108-6.1e-4 -0.57333 0-0.5625 6.1e-4 0.0108-0.0644-0.57317-0.0625-0.5625a2.5072 2.5072 0 0 0 0-0.0313s-0.83701-4.0883-3.4688-8.5938c5.0434-1.3257 8.5312-3.625 8.5312-3.625a2.5072 2.5072 0 0 0 0.0625-0.0313c-9e-3 6e-3 0.44534-0.35097 0.4375-0.34375-8e-3 7e-3 0.38193-0.41434 0.375-0.40625-7e-3 8e-3 0.34968-0.44635 0.34375-0.4375-6e-3 9e-3 0.2861-0.50949 0.28125-0.5-5e-3 9e-3 0.22245-0.50999 0.21875-0.5-4e-3 0.01 0.18999-0.54161 0.1875-0.53125-2e-3 0.0104 0.095-0.57308 0.0937-0.5625-1e-3 0.0106 0.0313-0.57315 0.0313-0.5625 0 0.0107-0.0325-0.57308-0.0313-0.5625 1e-3 0.0106-0.0962-0.57286-0.0937-0.5625 2e-3 0.0104-0.1912-0.54124-0.1875-0.53125 4e-3 0.01-0.2236-0.50949-0.21875-0.5 5e-3 9e-3 -0.28718-0.50885-0.28125-0.5 6e-3 9e-3 -0.35068-0.44559-0.34375-0.4375 7e-3 8e-3 -0.38284-0.41347-0.375-0.40625 8e-3 7e-3 -0.44614-0.34999-0.4375-0.34375a2.5072 2.5072 0 0 0-0.0313-0.0313s-3.487-2.3191-8.5312-3.6562c2.6249-4.4997 3.4375-8.5938 3.4375-8.5938a2.5072 2.5072 0 0 0 0-0.0313c-2e-3 0.0107 0.0631-0.57333 0.0625-0.5625-6.1e-4 0.0108-7e-4 -0.57332 0-0.5625 7e-4 0.0108-0.0645-0.57316-0.0625-0.5625 2e-3 0.0107-0.1595-0.57284-0.15625-0.5625 3e-3 0.0103-0.19197-0.54113-0.1875-0.53125 4e-3 0.01-0.28687-0.50927-0.28125-0.5 6e-3 9e-3 -0.31919-0.47728-0.3125-0.46875 7e-3 9e-3 -0.38267-0.44517-0.375-0.4375 8e-3 8e-3 -0.44603-0.38169-0.4375-0.375 9e-3 7e-3 -0.47802-0.31812-0.46875-0.3125 9e-3 6e-3 -0.50988-0.28572-0.5-0.28125 0.01 4e-3 -0.54159-0.19075-0.53125-0.1875 0.0103 3e-3 -0.57316-0.15824-0.5625-0.15625 0.0107 2e-3 -0.57332-0.0632-0.5625-0.0625 0.0108 7e-4 -0.57333 6.1e-4 -0.5625 0 0.0108-6.1e-4 -0.57317 0.0644-0.5625 0.0625 0 0-4.1308 0.82486-8.6562 3.4688-1.3258-5.0374-3.625-8.5312-3.625-8.5312a2.5072 2.5072 0 0 0-0.0313 0c7e-3 9e-3 -0.38266-0.47708-0.375-0.46875 8e-3 8e-3 -0.4149-0.41356-0.40625-0.40625 9e-3 7e-3 -0.50949-0.38117-0.5-0.375 9e-3 6e-3 -0.51019-0.28618-0.5-0.28125 0.0102 5e-3 -0.57323-0.22237-0.5625-0.21875 0.0107 4e-3 -0.5736-0.1585-0.5625-0.15625 0.0111 2e-3 -0.60504-0.0946-0.59375-0.0937 0.0113 8.4e-4 -0.60506 5.8e-4 -0.59375 0a2.5072 2.5072 0 0 0-0.0937 0z" color="#000000" enable-background="new" fill="url(#linearGradient3979)" opacity=".25"/>
  <path id="path3979" transform="matrix(.343 0 0 .34398 -51.271 -240.32)" d="m184.12 701.5a2.2363 2.2363 0 0 0-1.4688 0.90625s-3.328 4.7671-4.0312 11.156c-5.0181-4.0229-10.75-5.0625-10.75-5.0625a2.2363 2.2363 0 0 0-2.5938 2.5625s1.034 5.7649 5.0625 10.781c-6.3978 0.70283-11.188 4.0312-11.188 4.0312a2.2363 2.2363 0 0 0 0 3.625s4.7948 3.3031 11.188 4c-4.0285 5.0164-5.0625 10.781-5.0625 10.781a2.2363 2.2363 0 0 0 2.5938 2.5625s5.7319-1.0396 10.75-5.0625c0.70267 6.3934 4.0312 11.188 4.0312 11.188a2.2363 2.2363 0 0 0 3.625 0s3.3111-4.8145 4-11.219c5.0262 4.0467 10.781 5.0938 10.781 5.0938a2.2363 2.2363 0 0 0 2.5938-2.5938s-1.0624-5.7373-5.0938-10.75c6.397-0.69632 11.219-4 11.219-4a2.2363 2.2363 0 0 0 0-3.625s-4.8167-3.329-11.219-4.0312c4.0313-5.0127 5.0938-10.75 5.0938-10.75a2.2363 2.2363 0 0 0-2.59-2.6s-5.755 1.047-10.781 5.0938c-0.69265-6.3936-4-11.188-4-11.188a2.2363 2.2363 0 0 0-2.16-0.91z" clip-path="url(#clipPath3983)" color="#000000" enable-background="new" fill="url(#linearGradient3979)"/>
  <path id="path3689" d="m13.324 5.8656c0 2.2788-1.3243 4.1262-1.3243 4.1262s-1.3243-1.8474-1.3243-4.1262 1.3243-4.1262 1.3243-4.1262 1.3243 1.8474 1.3243 4.1262z" color="#000000" enable-background="new" fill="#d5be00"/>
  <path id="path4165" transform="matrix(.10312 0 0 .10313 -35.289 -64.874)" d="m471.43 685.93c0 22.097-12.842 40.01-12.842 40.01s-12.842-17.913-12.842-40.01 12.842-40.01 12.842-40.01 12.842 17.913 12.842 40.01z" clip-path="url(#clipPath4169)" color="#000000" enable-background="new" fill="#edd400" filter="url(#filter4173)"/>
  <path id="path3691" d="m13.324 14.103c0 2.2788-1.3243 4.1262-1.3243 4.1262s-1.3243-1.8474-1.3243-4.1262c0-2.2788 1.3243-4.1262 1.3243-4.1262s1.3243 1.8474 1.3243 4.1262z" color="#000000" enable-background="new" fill="#23446e"/>
  <path id="path3693" d="m16.112 11.311c-2.2753 0-4.1197-1.3263-4.1197-1.3263s1.8445-1.3263 4.1197-1.3263 4.1197 1.3263 4.1197 1.3263-1.8445 1.3263-4.1197 1.3263z" color="#000000" enable-background="new" fill="#56aa07"/>
  <path id="path3695" d="m7.8875 11.311c-2.2753 0-4.1197-1.3263-4.1197-1.3263s1.8445-1.3263 4.1197-1.3263c2.2753 0 4.1197 1.3263 4.1197 1.3263s-1.8445 1.3263-4.1197 1.3263z" color="#000000" enable-background="new" fill="#ca0f0f"/>
  <path id="path3697" d="m15.844 8.0097c-1.6088 1.6114-3.8495 1.9798-3.8495 1.9798s0.36785-2.2442 1.9767-3.8556c1.6089-1.6114 3.8495-1.9799 3.8495-1.9799s-0.36785 2.2442-1.9767 3.8556z" color="#000000" enable-background="new" fill="#85b912"/>
  <path id="path4141" transform="matrix(.10312 0 0 .10313 -28.071 -75.188)" d="m401.43 865.8c0 22.097-12.842 40.01-12.842 40.01s-12.842-17.913-12.842-40.01 12.842-40.01 12.842-40.01 12.842 17.913 12.842 40.01z" clip-path="url(#clipPath4145)" color="#000000" enable-background="new" fill="#3465a4" filter="url(#filter4149)"/>
  <path id="path4177" transform="matrix(.10312 0 0 .10313 -28.071 -60.749)" d="m348.71 698.73c-22.064 0-39.951-12.861-39.951-12.861s17.887-12.861 39.951-12.861 39.951 12.861 39.951 12.861-17.887 12.861-39.951 12.861z" clip-path="url(#clipPath4181)" color="#000000" enable-background="new" fill="#ef2929" filter="url(#filter4189)"/>
  <path id="path3699" d="m10.029 13.835c-1.6088 1.6114-3.8495 1.9798-3.8495 1.9798s0.36785-2.2442 1.9767-3.8556c1.6089-1.6114 3.8495-1.9799 3.8495-1.9799s-0.36785 2.2442-1.9767 3.8556z" color="#000000" enable-background="new" fill="#593d5e"/>
  <path id="path3701" d="m10.029 6.1342c1.6088 1.6114 1.9767 3.8556 1.9767 3.8556s-2.2406-0.36842-3.8495-1.9798c-1.6091-1.611-1.977-3.8552-1.977-3.8552s2.2406 0.36843 3.8495 1.9799z" color="#000000" enable-background="new" fill="#c96300"/>
  <path id="path4193" transform="matrix(.10312 0 0 .10313 -20.853 -64.874)" d="m299.47 763.2c-15.602 15.625-37.33 19.197-37.33 19.197s3.5672-21.76 19.169-37.385 37.33-19.197 37.33-19.197-3.5672 21.76-19.169 37.385z" clip-path="url(#clipPath4197)" color="#000000" enable-background="new" fill="#75507b" filter="url(#filter4201)"/>
  <path id="path3703" d="m15.844 11.959c1.6088 1.6114 1.9767 3.8556 1.9767 3.8556s-2.2406-0.36842-3.8495-1.9798c-1.6088-1.6114-1.9767-3.8556-1.9767-3.8556s2.2406 0.36843 3.8495 1.9799z" color="#000000" enable-background="new" fill="#3f7bba"/>
  <path id="path4129" transform="matrix(.10312 0 0 .10313 -39.414 -64.874)" d="m538.47 738.73c-22.064 0-39.951-12.861-39.951-12.861s17.887-12.861 39.951-12.861 39.951 12.861 39.951 12.861-17.887 12.861-39.951 12.861z" clip-path="url(#clipPath4133)" color="#000000" enable-background="new" fill="#65c808" filter="url(#filter4137)"/>
  <path id="path4067" transform="matrix(.10312 0 0 .10313 -37.352 -64.874)" d="m515.87 706.72c-15.602 15.625-37.33 19.197-37.33 19.197s3.5672-21.76 19.169-37.385 37.33-19.197 37.33-19.197-3.5672 21.76-19.169 37.385z" clip-path="url(#clipPath4071)" color="#000000" enable-background="new" fill="#afea2c" filter="url(#filter4075)"/>
  <path id="path4079" transform="matrix(.10312 0 0 .10313 -37.352 -64.874)" d="m515.87 745.01c15.602 15.625 19.169 37.385 19.169 37.385s-21.729-3.5724-37.33-19.197c-15.602-15.625-19.169-37.385-19.169-37.385s21.729 3.5724 37.33 19.197z" clip-path="url(#clipPath4083)" color="#000000" enable-background="new" fill="#729fcf" filter="url(#filter4087)"/>
  <path id="path4153" transform="matrix(.10312 0 0 .10313 -17.759 -64.874)" d="m269.47 688.53c15.602 15.625 19.169 37.385 19.169 37.385s-21.729-3.5724-37.33-19.197c-15.602-15.625-19.169-37.385-19.169-37.385s21.729 3.5724 37.33 19.197z" clip-path="url(#clipPath4157)" color="#000000" enable-background="new" fill="#f57900" filter="url(#filter4161)"/>
  <path id="path3705" d="m13.758 9.9614c0 1.0149-0.82034 1.8376-1.8323 1.8376-1.012 0-1.8323-0.82269-1.8323-1.8376s0.82034-1.8376 1.8323-1.8376c1.012 0 1.8323 0.82269 1.8323 1.8376z" color="#000000" enable-background="new" fill="#fff" opacity=".1"/>
  <path id="path3707" d="m15.868 9.9387c0 2.1847-1.766 3.9557-3.9445 3.9557-2.1785 0-3.9445-1.771-3.9445-3.9557 0-2.1847 1.7659-3.9557 3.9445-3.9557 2.1785 0 3.9445 1.771 3.9445 3.9557z" color="#000000" enable-background="new" fill="#fff" opacity=".1"/>
  <path id="path3906" d="m11.926 4.0385c-0.34411 0-0.67991 0.031465-1.0079 0.088094-0.14329 0.52854-0.24355 1.1169-0.24355 1.7386 0 0.41787 0.04387 0.8221 0.11659 1.2022-0.21697-0.32036-0.46927-0.63722-0.76435-0.93276-0.44536-0.44606-0.93881-0.796-1.4199-1.0701-0.59598 0.40707-1.1136 0.92041-1.5261 1.5131 0.27456 0.48519 0.62678 0.98367 1.0753 1.4328 0.29454 0.29499 0.60833 0.5473 0.92762 0.76435-0.37869-0.072516-0.78087-0.11659-1.1971-0.11659-0.63493 0-1.2351 0.10497-1.7722 0.25392-0.060919 0.34117-0.095863 0.69321-0.095863 1.052 0 0.37514 0.037158 0.74021 0.10364 1.096 0.53512 0.14778 1.1327 0.25132 1.7645 0.25132 0.41525 0 0.81649-0.04436 1.1944-0.11659-0.31831 0.21662-0.63131 0.47021-0.92497 0.76435-0.4414 0.44209-0.78968 0.9316-1.0623 1.4095 0.41812 0.59574 0.94313 1.1095 1.5468 1.5157 0.47018-0.27115 0.95142-0.61388 1.3862-1.0493 0.29508-0.29554 0.54737-0.6124 0.76435-0.93276-0.07272 0.38013-0.11659 0.78436-0.11659 1.2022 0 0.60329 0.09415 1.1755 0.2306 1.6919 0.33209 0.05811 0.67218 0.09069 1.0208 0.09069 0.40154 0 0.79468-0.04262 1.1737-0.11919 0.13232-0.50887 0.22283-1.0713 0.22283-1.6634 0-0.41788-0.04386-0.82209-0.11659-1.2022 0.217 0.32041 0.46922 0.63717 0.76435 0.93276 0.4103 0.41094 0.86096 0.74156 1.3059 1.0053 0.61493-0.42547 1.1465-0.96286 1.5624-1.5857-0.26207-0.44122-0.58872-0.88865-0.99494-1.2955-0.29368-0.29414-0.60927-0.54772-0.92762-0.76435 0.37869 0.07252 0.77828 0.11659 1.1944 0.11659 0.57286 0 1.1185-0.08403 1.6142-0.20987 0.07164-0.36874 0.10882-0.74768 0.10882-1.1375 0-0.37337-0.03518-0.73919-0.10105-1.0934-0.49781-0.12697-1.046-0.21246-1.6219-0.21246-0.41801 0-0.81947 0.043509-1.1997 0.11659 0.31986-0.21731 0.63769-0.4688 0.93276-0.76435 0.41331-0.41396 0.74356-0.87016 1.0079-1.3188-0.40988-0.61937-0.9326-1.1569-1.539-1.5831-0.45661 0.26723-0.92066 0.60391-1.3422 1.026-0.29513 0.29558-0.54735 0.61235-0.76435 0.93276 0.07273-0.38014 0.11659-0.78434 0.11659-1.2022 0-0.61044-0.09667-1.1889-0.23579-1.7101-0.37507-0.074894-0.76375-0.11659-1.1608-0.11659z" color="#000000" enable-background="new" fill="#fff" opacity=".1"/>
 </g>
</svg>
