<?xml version="1.0" encoding="UTF-8"?>
<!-- Created with Inkscape (http://www.inkscape.org/) -->
<svg id="svg2" width="24" height="24" version="1.1" xmlns="http://www.w3.org/2000/svg" xmlns:cc="http://creativecommons.org/ns#" xmlns:dc="http://purl.org/dc/elements/1.1/" xmlns:rdf="http://www.w3.org/1999/02/22-rdf-syntax-ns#" xmlns:xlink="http://www.w3.org/1999/xlink">
 <defs id="defs4">
  <linearGradient id="linearGradient3335" x1="11.375" x2="11.375" y1="22" y2="-9.8173" gradientUnits="userSpaceOnUse">
   <stop id="stop3330" offset="0"/>
   <stop id="stop3333" stop-opacity="0" offset="1"/>
  </linearGradient>
  <filter id="filter3194" x="-.18" y="-.18" width="1.36" height="1.36" color-interpolation-filters="sRGB">
   <feGaussianBlur id="feGaussianBlur3196" stdDeviation="1.2"/>
  </filter>
  <clipPath id="clipPath2849">
   <rect id="rect2851" x="1" y="1" width="20" height="20" rx="2" ry="2" fill="#fff" fill-rule="evenodd"/>
  </clipPath>
  <linearGradient id="linearGradient3823">
   <stop id="stop3825" stop-color="#fff" offset="0"/>
   <stop id="stop3829" stop-color="#fff" stop-opacity="0" offset="1"/>
  </linearGradient>
  <linearGradient id="linearGradient3845" x1="11" x2="21" y1="19.5" y2="19.5" gradientTransform="translate(1,-1)" gradientUnits="userSpaceOnUse" spreadMethod="reflect">
   <stop id="stop3833" stop-color="#fff" offset="0"/>
   <stop id="stop3821" stop-color="#fff" stop-opacity=".49804" offset=".75"/>
   <stop id="stop3835" stop-color="#fff" stop-opacity="0" offset="1"/>
  </linearGradient>
  <linearGradient id="linearGradient3961" x1="10" x2="10" y1="1" y2="16" gradientTransform="translate(1,-1)" gradientUnits="userSpaceOnUse" xlink:href="#linearGradient3823"/>
  <radialGradient id="radialGradient4050" cx="12" cy="7" r="10" gradientTransform="matrix(1.4518 .0024141 -.0021323 1.2823 -5.4063 -2.0051)" gradientUnits="userSpaceOnUse">
   <stop id="stop3702" stop-color="#7d9ccb" offset="0"/>
   <stop id="stop4252" stop-color="#6c8cbd" offset=".25"/>
   <stop id="stop4188" stop-color="#416cad" offset=".5"/>
   <stop id="stop3704" stop-color="#1e356e" offset="1"/>
  </radialGradient>
  <linearGradient id="linearGradient4132" x1="10" x2="10" y1="1" y2="16" gradientTransform="translate(1,1)" gradientUnits="userSpaceOnUse">
   <stop id="stop3825-4" stop-color="#fff" offset="0"/>
   <stop id="stop3829-9" stop-color="#fff" stop-opacity="0" offset="1"/>
  </linearGradient>
  <linearGradient id="linearGradient4144" x1="5" x2="5" y1="14" y2="22" gradientUnits="userSpaceOnUse" spreadMethod="reflect" xlink:href="#linearGradient3823"/>
  <linearGradient id="linearGradient4148" x1="5" x2="5" y1="14" y2="22" gradientTransform="translate(2)" gradientUnits="userSpaceOnUse" spreadMethod="reflect" xlink:href="#linearGradient3823"/>
  <linearGradient id="linearGradient4152" x1="5" x2="5" y1="14" y2="22" gradientTransform="translate(3)" gradientUnits="userSpaceOnUse" spreadMethod="reflect" xlink:href="#linearGradient3823"/>
  <linearGradient id="linearGradient4156" x1="5" x2="5" y1="14" y2="22" gradientTransform="translate(6)" gradientUnits="userSpaceOnUse" spreadMethod="reflect" xlink:href="#linearGradient3823"/>
  <linearGradient id="linearGradient4160" x1="5" x2="5" y1="14" y2="22" gradientTransform="translate(8)" gradientUnits="userSpaceOnUse" spreadMethod="reflect" xlink:href="#linearGradient3823"/>
  <linearGradient id="linearGradient4164" x1="5" x2="5" y1="14" y2="22" gradientTransform="translate(9)" gradientUnits="userSpaceOnUse" spreadMethod="reflect" xlink:href="#linearGradient3823"/>
  <linearGradient id="linearGradient4168" x1="5" x2="5" y1="14" y2="22" gradientTransform="translate(11)" gradientUnits="userSpaceOnUse" spreadMethod="reflect" xlink:href="#linearGradient3823"/>
  <linearGradient id="linearGradient4172" x1="5" x2="5" y1="14" y2="22" gradientTransform="translate(13)" gradientUnits="userSpaceOnUse" spreadMethod="reflect" xlink:href="#linearGradient3823"/>
  <linearGradient id="linearGradient4176" x1="5" x2="5" y1="14" y2="22" gradientTransform="translate(14)" gradientUnits="userSpaceOnUse" spreadMethod="reflect" xlink:href="#linearGradient3823"/>
  <linearGradient id="linearGradient4180" x1="5" x2="5" y1="14" y2="22" gradientTransform="translate(-2)" gradientUnits="userSpaceOnUse" spreadMethod="reflect" xlink:href="#linearGradient3823"/>
  <linearGradient id="linearGradient3408" x1="50" x2="66" y1="46" y2="30" gradientTransform="matrix(.28125 0 0 .28125 16.938 .017576)" gradientUnits="userSpaceOnUse">
   <stop id="stop4478" stop-color="#f1decd" offset="0"/>
   <stop id="stop4480" stop-color="#f6e8dd" offset=".41506"/>
   <stop id="stop4482" stop-color="#f0dcc9" offset=".625"/>
   <stop id="stop4484" stop-color="#dab693" offset=".87264"/>
   <stop id="stop4488" stop-color="#bf9d7a" offset=".94252"/>
   <stop id="stop4486" stop-color="#8f765e" offset="1"/>
  </linearGradient>
  <linearGradient id="linearGradient3410" x1="64" x2="52" y1="46.894" y2="45.314" gradientTransform="matrix(.28125 0 0 .28125 16.938 .017576)" gradientUnits="userSpaceOnUse">
   <stop id="stop4229" offset="0"/>
   <stop id="stop4232" stop-opacity="0" offset="1"/>
  </linearGradient>
  <linearGradient id="linearGradient3412" x1="49" x2="49" y1="46" y2="20" gradientTransform="matrix(.28125 0 0 .28125 16.938 .017576)" gradientUnits="userSpaceOnUse">
   <stop id="stop4319" stop-color="#fff" offset="0"/>
   <stop id="stop4321" stop-color="#fff" stop-opacity="0" offset="1"/>
  </linearGradient>
  <linearGradient id="linearGradient4221" x1="20.03" x2="21.06" y1="8.9642" y2="1.8088" gradientUnits="userSpaceOnUse">
   <stop id="stop4253" stop-color="#906038" offset="0"/>
   <stop id="stop4255" stop-color="#c6956c" offset="1"/>
  </linearGradient>
 </defs>
 <metadata id="metadata7">
  <rdf:RDF>
   <cc:Work rdf:about="">
    <dc:format>image/svg+xml</dc:format>
    <dc:type rdf:resource="http://purl.org/dc/dcmitype/StillImage"/>
    <dc:title/>
   </cc:Work>
  </rdf:RDF>
 </metadata>
 <g id="layer1" transform="translate(0,2)">
  <g id="g3337" transform="translate(1,-1)">
   <rect id="rect3371" x=".5" y=".5" width="21" height="21.5" rx="2.5" ry="2.5" fill="url(#linearGradient3335)" opacity=".3"/>
   <rect id="rect2553" x="1" y="2" width="20" height="20" rx="2.381" ry="2.3256" opacity=".5"/>
  </g>
  <rect id="rect3173" x="2" width="20" height="20" rx="2" ry="2" fill="url(#radialGradient4050)" fill-rule="evenodd"/>
  <path id="path3018" d="m-26-1.8e-7c-1.108 0-2 0.892-2 2v1c0-1.108 0.892-2 2-2h16c1.108 0 2 0.892 2 2v-1c0-1.108-0.892-2-2-2h-16z" fill="#fff" fill-rule="evenodd" opacity=".25"/>
  <path id="path3020" d="m-26 20c-1.108 0-2-0.892-2-2v-1c0 1.108 0.892 2 2 2h16c1.108 0 2-0.892 2-2v1c0 1.108-0.892 2-2 2h-16z" fill-rule="evenodd" opacity=".15"/>
  <path id="rect3050" d="m4 0c-1.108 0-2 0.892-2 2v16c0 1.108 0.892 2 2 2h16c1.108 0 2-0.892 2-2v-16c0-1.108-0.892-2-2-2h-16zm0 1.0312h16c0.5497 0 0.96875 0.41905 0.96875 0.96875v16c0 0.5497-0.41905 0.96875-0.96875 0.96875h-16c-0.5497 0-0.96875-0.41905-0.96875-0.96875v-16c0-0.5497 0.41905-0.96875 0.96875-0.96875z" fill="url(#linearGradient3961)" fill-rule="evenodd" opacity=".35"/>
  <path id="path3235" d="m4 20c-1.108 0-2-0.892-2-2v-1c0 1.108 0.892 2 2 2h16c1.108 0 2-0.892 2-2v1c0 1.108-0.892 2-2 2h-16z" fill="url(#linearGradient3845)" fill-rule="evenodd" opacity=".2"/>
 </g>
 <g id="layer4">
  <rect id="rect4136" x="5" y="6" width="1" height="16" color="#000000" fill="url(#linearGradient4144)" opacity=".2"/>
  <rect id="rect4146" x="7" y="6" width="1" height="16" color="#000000" fill="url(#linearGradient4148)" opacity=".1"/>
  <rect id="rect4150" x="8" y="6" width="1" height="16" color="#000000" fill="url(#linearGradient4152)" opacity=".2"/>
  <rect id="rect4154" x="11" y="6" width="1" height="16" color="#000000" fill="url(#linearGradient4156)" opacity=".15"/>
  <rect id="rect4158" x="13" y="6" width="1" height="16" color="#000000" fill="url(#linearGradient4160)" opacity=".1"/>
  <rect id="rect4162" x="14" y="6" width="1" height="16" color="#000000" fill="url(#linearGradient4164)" opacity=".05"/>
  <rect id="rect4166" x="16" y="6" width="1" height="16" color="#000000" fill="url(#linearGradient4168)" opacity=".2"/>
  <rect id="rect4170" x="18" y="6" width="1" height="16" color="#000000" fill="url(#linearGradient4172)" opacity=".05"/>
  <rect id="rect4174" x="19" y="6" width="1" height="16" color="#000000" fill="url(#linearGradient4176)" opacity=".15"/>
  <rect id="rect4178" x="3" y="6" width="1" height="16" color="#000000" fill="url(#linearGradient4180)" opacity=".05"/>
 </g>
 <g id="layer2" transform="translate(0,2)" display="none">
  <rect id="rect2410" transform="translate(1,-1)" x="3" y="3" width="16" height="16" rx="2" ry="2" clip-path="url(#clipPath2849)" display="inline" fill="#fff" filter="url(#filter3194)" opacity=".15"/>
 </g>
 <g id="layer3" transform="translate(0,2)">
  <path id="rect4052" transform="translate(0,-2)" d="m4 2c-1.108 0-2 0.892-2 2v2h14.375l-4.1875-4h-8.1875z" color="#000000"/>
  <path id="rect3050-2" transform="translate(0,-2)" d="m4 2c-1.108 0-2 0.892-2 2v2h1.0312v-2c0-0.5497 0.41905-0.96875 0.96875-0.96875h16c0.5497 0 0.96875 0.41905 0.96875 0.96875v2h1.0312v-2c0-1.108-0.892-2-2-2h-16z" fill="url(#linearGradient4132)" fill-rule="evenodd" opacity=".2"/>
  <g id="layer3-0" transform="matrix(.11538 0 0 .11538 18.031 1.2191)">
   <path id="path2892" transform="translate(.46426 3)" d="m8 2c-3.866 0-7 2.4101-7 6 0 3.5899 3.134 6 7 6 1.065 0 2.0651-0.22996 2.9688-0.625l4.0312 1.625-1.4375-3.5625c0.90317-1.0947 1.4375-1.9519 1.4375-3.4375 0-3.5899-3.134-6-7-6z" fill="#bebebe"/>
  </g>
  <path id="f-script-path" d="m5.9404 2.1092c-0.19593-0.20381-0.51357-0.2038-0.70949 4.2e-6 -6.89e-5 7.1e-5 -1.537e-4 1.628e-4 -2.408e-4 2.087e-4l-0.18776 0.19531-0.18718-0.1947c-2.76e-5 -2.92e-5 -2.76e-5 -2.92e-5 -4.62e-5 -4.8e-5 -0.19592-0.2038-0.51279-0.2046-0.7087-8.349e-4 -0.19594 0.20382-0.19594 0.53423-2.19e-5 0.73803 0.1959 0.20378 0.51354 0.20378 0.70948-3.96e-5 7.51e-5 -7.94e-5 1.375e-4 -1.441e-4 2.408e-4 -2.088e-4l0.18853-0.19612 0.18717 0.1947c4.26e-5 4.38e-5 5.87e-5 6.05e-5 7.83e-5 8.14e-5 0.1959 0.20378 0.51199 0.20538 0.7079 0.00167 0.19592-0.2038 0.19593-0.53422 2.79e-5 -0.738zm-1.2518 0.56411c-0.10338 0.10723-0.27086 0.10713-0.37415-2.087e-4 -0.1034-0.10756-0.10417-0.28275-7.566e-4 -0.39031 0.10344-0.1076 0.27341-0.10841 0.37681-8.349e-4 8.19e-5 8.77e-5 1.675e-4 1.753e-4 2.408e-4 2.087e-4l0.16043 0.16688c5.22e-5 5.43e-5 8.14e-5 8.56e-5 1.206e-4 1.273e-4 0.014606 0.015195 0.014629 0.03981 4.59e-5 0.054977-2.77e-5 2.92e-5 -4.59e-5 1.04e-5 -8.51e-5 5.21e-5l-0.16265 0.16919-5.7e-6 -6.3e-6zm0.70902 4.174e-4c-5.87e-5 -6.05e-5 -1.208e-4 -1.252e-4 -1.842e-4 -1.899e-4l-0.16053-0.167c-3.6e-5 -3.76e-5 -7.85e-5 -8.14e-5 -9.44e-5 -1.002e-4 -0.014606-0.015195-0.014606-0.039772 1.25e-5 -0.054978l6e-6 -6.2e-6 0.16187-0.16838c0.10347-0.10726 0.27089-0.10716 0.37418 2.087e-4 0.1034 0.10756 0.10418 0.28278 7.567e-4 0.39036-0.10341 0.10757-0.27262 0.10755-0.37602-6.3e-6z" fill="#bebebe"/>
  <text id="text4217" x="9.7879229" y="3" fill="#bebebe" font-family="Ubuntu" font-size="1.717px" font-weight="500" letter-spacing="0px" word-spacing="0px" style="line-height:125%" xml:space="preserve"><tspan id="tspan4219" x="9.7879229" y="3">13:37</tspan></text>
 </g>
 <g id="layer5">
  <path id="rect3431" d="m12.188 2 9.8125 9.375v-7.375c0-1.108-0.892-2-2-2h-7.8125z" color="#000000" fill="url(#linearGradient4221)"/>
  <path id="rect3436" d="m12.188 2 1.0312 1h6.7812c0.56492 0 1 0.43508 1 1v6.4375l1 0.9375v-7.375c0-1.108-0.892-2-2-2h-7.8125z" color="#000000" fill="#fff" opacity=".2"/>
  <g id="g3402" transform="translate(-18,-2)">
   <path id="path4049" d="m29.031 4v0.25 0.75c0.35618-0.00192 0.49054 0.036788 0.53125 0.0625 0.04071 0.025712 0.15424 0.10655 0.28125 0.59375 0.25401 0.9744 0.40625 3.2429 0.40625 7.5938a0.75174 0.75174 0 0 0 0.8125 0.75c3.9261-0.28043 6.1848-0.33898 7.2812-0.15625 0.5482 0.09137 0.75069 0.24356 0.8125 0.3125 0.06181 0.06894 0.09375 0.16164 0.09375 0.5h0.75v-2.5938c-0.082112-0.089951-0.15612-0.18428-0.25-0.28125-0.68418-0.70668-1.7762-1.6607-3.7188-3.5625-1.9452-1.9044-2.9872-3.0198-3.7812-3.7188-0.23243-0.20457-0.46321-0.35995-0.6875-0.5h-2.5312z" enable-background="new" opacity=".15"/>
   <path id="path4154" d="m29.031 3.9551c1.5182-0.0081787 1.9688 0.27252 1.9688 9 7.875-0.5625 9-0.28125 9 1.4062v-0.73828c0-1.2269-0.59261-1.3425-4.5-5.168-3.9074-3.8254-4.2349-4.536-5.5492-4.5148z" enable-background="new" fill="url(#linearGradient3408)"/>
   <path id="path4297" d="m29.954 3.9375-0.92285 0.017578c1.3284-0.00716 1.8354 0.20805 1.9424 6.1084-0.06529-4.1278-0.31329-5.6098-0.87891-6.1172-0.04793-0.00149-0.09003-0.0096-0.14062-0.00879zm6.627 8.4727c-1.3142-0.0062-3.1201 0.08789-5.5811 0.26367 1.34e-4 0.10362 0 0.17515 0 0.28125 7.875-0.5625 9-0.28125 9 1.4062v-0.28125c0-1.1602-0.52762-1.6563-3.4189-1.6699z" enable-background="new" fill="url(#linearGradient3410)" opacity=".2"/>
   <path id="path4306" d="m29.954 3.9375-0.92285 0.017578c0.09824-5.344e-4 0.19179-0.0041 0.28125 0l0.73828-0.017578c-0.03341-5.062e-4 -0.06198-5.625e-4 -0.09668 0zm-0.6416 0.017578c1.2931 0.059262 1.6875 0.83725 1.6875 9 0.10465-0.0075 0.17897-0.0104 0.28125-0.01758-6.75e-4 -8.708-0.45172-8.9906-1.9688-8.9824z" enable-background="new" fill="url(#linearGradient3412)"/>
  </g>
 </g>
</svg>
