<?xml version="1.0" encoding="UTF-8"?>
<svg id="svg2" width="24" height="24" version="1.1" xmlns="http://www.w3.org/2000/svg" xmlns:cc="http://creativecommons.org/ns#" xmlns:dc="http://purl.org/dc/elements/1.1/" xmlns:rdf="http://www.w3.org/1999/02/22-rdf-syntax-ns#">
 <metadata id="metadata49">
  <rdf:RDF>
   <cc:Work rdf:about="">
    <dc:format>image/svg+xml</dc:format>
    <dc:type rdf:resource="http://purl.org/dc/dcmitype/StillImage"/>
   </cc:Work>
  </rdf:RDF>
 </metadata>
 <defs id="defs4">
  <linearGradient id="linearGradient3335" x1="11.375" x2="11.375" y1="22" y2="-9.8173" gradientUnits="userSpaceOnUse">
   <stop id="stop3330" offset="0"/>
   <stop id="stop3333" stop-opacity="0" offset="1"/>
  </linearGradient>
  <linearGradient id="linearGradient3181" x1="-3.0608" x2="-3.0608" y1="27.258" y2="7.2537" gradientTransform="translate(12.119 -7.2582)" gradientUnits="userSpaceOnUse">
   <stop id="stop3189" stop-color="#d7598b" offset="0"/>
   <stop id="stop3191" stop-color="#ff80b2" offset="1"/>
  </linearGradient>
  <filter id="filter3194" x="-.18" y="-.18" width="1.36" height="1.36" color-interpolation-filters="sRGB">
   <feGaussianBlur id="feGaussianBlur3196" stdDeviation="1.2"/>
  </filter>
  <clipPath id="clipPath2849">
   <rect id="rect2851" x="1" y="1" width="20" height="20" rx="2" ry="2" fill="#fff" fill-rule="evenodd"/>
  </clipPath>
  <linearGradient id="linearGradient3845" x1="11" x2="21" y1="19.5" y2="19.5" gradientTransform="translate(1,-1)" gradientUnits="userSpaceOnUse" spreadMethod="reflect">
   <stop id="stop3833" stop-color="#fff" offset="0"/>
   <stop id="stop3821" stop-color="#fff" stop-opacity=".49804" offset=".75"/>
   <stop id="stop3835" stop-color="#fff" stop-opacity="0" offset="1"/>
  </linearGradient>
  <linearGradient id="linearGradient3961" x1="10" x2="10" y1="1" y2="16" gradientTransform="translate(1,-1)" gradientUnits="userSpaceOnUse">
   <stop id="stop3825" stop-color="#fff" offset="0"/>
   <stop id="stop3829" stop-color="#fff" stop-opacity="0" offset="1"/>
  </linearGradient>
 </defs>
 <g id="layer1" transform="translate(0,2)">
  <g id="g3337" transform="translate(1,-1)">
   <rect id="rect3371" x=".5" y=".5" width="21" height="21.5" rx="2.5" ry="2.5" fill="url(#linearGradient3335)" opacity=".3"/>
   <rect id="rect2553" x="1" y="2" width="20" height="20" rx="2.381" ry="2.3256" opacity=".5"/>
  </g>
  <rect id="rect3173" x="2" width="20" height="20" rx="2" ry="2" fill="url(#linearGradient3181)" fill-rule="evenodd"/>
  <path id="rect3050" d="m4 0c-1.108 0-2 0.892-2 2v16c0 1.108 0.892 2 2 2h16c1.108 0 2-0.892 2-2v-16c0-1.108-0.892-2-2-2h-16zm0 1.0312h16c0.5497 0 0.96875 0.41905 0.96875 0.96875v16c0 0.5497-0.41905 0.96875-0.96875 0.96875h-16c-0.5497 0-0.96875-0.41905-0.96875-0.96875v-16c0-0.5497 0.41905-0.96875 0.96875-0.96875z" fill="url(#linearGradient3961)" fill-rule="evenodd" opacity=".35"/>
  <path id="path3235" d="m4 20c-1.108 0-2-0.892-2-2v-1c0 1.108 0.892 2 2 2h16c1.108 0 2-0.892 2-2v1c0 1.108-0.892 2-2 2h-16z" fill="url(#linearGradient3845)" fill-rule="evenodd" opacity=".2"/>
 </g>
 <g id="layer2" transform="translate(0,2)">
  <rect id="rect2410" transform="translate(1,-1)" x="3" y="3" width="16" height="16" rx="2" ry="2" clip-path="url(#clipPath2849)" fill="#fff" filter="url(#filter3194)" opacity=".15"/>
 </g>
 <g id="main">
  <path id="path39" d="m14.701 8.1934c-0.057929 0.4924-0.18213 0.99058-0.36523 1.375-0.19206 0.40321-0.19549 0.44006-0.027344 0.36523 0.05676-0.025258 0.19029-0.054513 0.26953-0.082031 0.13961-0.55749 0.18476-1.1637 0.12305-1.6582zm-4.502 0.62109c-0.021902 0.22205-0.026574 0.44093-0.023438 0.6543l0.17774 0.21094-0.10938-0.48242c-0.025366-0.11134-0.032325-0.25095-0.044922-0.38281zm-5.1113 1.5352c-0.022616 0.038253-0.041295 0.084521-0.056641 0.14648-0.10083 0.4075 0.041902 1.0446 0.35742 1.5957 0.33093 0.57798 0.96184 1.0126 1.8711 1.2969 0.23479-0.17265 0.48524-0.32363 0.75195-0.43359l0.64258-0.26562-0.43164-0.072265c-1.4386-0.2454-2.3965-0.76128-2.834-1.5254-0.1376-0.24036-0.23478-0.49531-0.30078-0.74219zm6.666 0.2168c-0.047658 0.007591-0.09692 0.026226-0.14453 0.056641-0.24424 0.15602-0.30371 0.45324-0.13281 0.66211 0.16979 0.20754 0.48253 0.20754 0.65234 0 0.25552-0.3123-0.041394-0.77189-0.375-0.71875zm6.6094 0.51172-0.019531 0.015625 0.089844 0.035156c-0.02333-0.017332-0.045441-0.033744-0.070313-0.050781zm-5.5215 0.33008c-0.14913 0.021976-0.28648 0.12435-0.33594 0.32422-0.0919 0.37154 0.036694 0.51175 0.43359 0.47266 0.27254-0.026779 0.35499-0.092573 0.38477-0.30664 0.0379-0.2722-0.1343-0.44613-0.33203-0.48633-0.049434-0.01005-0.10068-0.011231-0.15039-0.003906zm-2.2109 0.037109c-0.15634 0.011609-0.31028 0.10523-0.38672 0.27539-0.22472 0.5003 0.33403 0.83958 0.72656 0.44141 0.20437-0.20731 0.20571-0.22106 0.058594-0.5-0.08336-0.158-0.2421-0.2284-0.39844-0.2168zm8.0977 0.80664c-0.54107 0.96402-1.6027 1.5619-2.8711 1.5801l-0.83594 0.011719 0.46484 0.52539c0.13449 0.15198 0.25126 0.30637 0.35938 0.46289h0.011719c1.4002-0.0201 2.557-0.74197 3.0293-1.8887 0.17382-0.42199 0.14511-0.55359-0.1582-0.69141zm-7.6855 0.44727c0.11849 0.22905 0.11842 0.26946-0.072266 0.46289-0.12043 0.12216-0.25461 0.16995-0.37891 0.16992 0.002976 0.006063 0.002647 0.01149 0.005859 0.017578 0.12687 0.24047 0.54244 0.28662 0.74414 0.082032 0.28599-0.29011 0.070695-0.71287-0.29883-0.73242zm1.3848 0.10352c-0.20686 0.029956-0.40625 0.17752-0.40625 0.41797 0 0.41019 0.51026 0.60704 0.76562 0.29492 0.055774-0.068202 0.08414-0.19319 0.089844-0.3125-0.31339 0.014053-0.42968-0.1093-0.37891-0.40039-0.023503 2.8e-4 -0.046746-0.003413-0.070313 0zm-1.1348 2.5488-0.20312 0.47266c-0.31578 0.72785-1.3146 1.673-2.0684 1.959-0.69993 0.26563-1.4912 0.31028-2.0664 0.11524-0.5146-0.17453-0.56327-0.23935-0.43555-0.58008 0.10687-0.28514 0.095814-0.29688-0.25977-0.29688-0.29724 0-0.41658-0.075184-0.4668-0.375-0.020766 0.12872-0.037109 0.25774-0.037109 0.38477 0 0.86984 0.061686 0.99023 0.50391 0.99023 0.35558 0 0.36664 0.01174 0.25977 0.29688-0.12772 0.34073-0.079053 0.40555 0.43555 0.58008 0.5752 0.19505 1.3665 0.1504 2.0664-0.11524 0.7538-0.286 1.7526-1.2311 2.0684-1.959l0.20312-0.47266 0.17383 0.69531c0.3165 1.2669 1.1986 2.3284 2.3008 2.7715 0.2872 0.1155 0.7248 0.19399 1.0039 0.17969 0.47013-0.02405 0.49494-0.04361 0.52734-0.38281 0.03167-0.332 0.05195-0.34863 0.29492-0.23633 0.39889 0.18435 0.55052 0.05898 0.76562-0.63476 0.14813-0.47772 0.17669-0.95686 0.10156-1.4297-0.024196 0.14325-0.057188 0.28658-0.10156 0.42969-0.21511 0.69374-0.36674 0.81912-0.76562 0.63476-0.24297-0.1123-0.26325-0.095672-0.29492 0.23633-0.0324 0.3392-0.057214 0.35876-0.52734 0.38281-0.27911 0.0143-0.71671-0.064188-1.0039-0.17969-1.1022-0.44306-1.9843-1.5046-2.3008-2.7715l-0.17383-0.69531z" opacity=".3"/>
  <path id="base" transform="translate(4,4)" d="m8.3027 1.0234c-0.88675 0.2257-1.4706 0.71986-1.8223 1.543-0.29002 0.6787-0.40042 1.9106-0.23633 2.6309l0.10938 0.48242-0.36719-0.43555c-0.20161-0.23893-0.67764-0.60263-1.0586-0.80859-0.9195-0.49716-2.0916-0.59544-2.8789-0.24219-0.52853 0.23715-0.63448 0.44604-0.34766 0.6875 0.26495 0.22305 0.19335 0.33594-0.2168 0.33594-0.31676 0-0.39582 0.047927-0.45312 0.2793-0.10083 0.4075 0.041902 1.0446 0.35742 1.5957 0.4375 0.76411 1.3954 1.28 2.834 1.5254l0.43164 0.072266-0.64258 0.26562c-1.2739 0.5252-2.2559 1.8638-2.2559 3.0762 0 0.86984 0.061686 0.99023 0.50391 0.99023 0.35558 0 0.36664 0.011735 0.25977 0.29688-0.12772 0.34073-0.079053 0.40555 0.43555 0.58008 0.5752 0.19505 1.3665 0.1504 2.0664-0.11524 0.7538-0.286 1.7526-1.2311 2.0684-1.959l0.20312-0.47266 0.17383 0.69531c0.3165 1.2669 1.1986 2.3284 2.3008 2.7715 0.2872 0.1155 0.7248 0.19399 1.0039 0.17969 0.47013-0.02405 0.49494-0.043613 0.52734-0.38281 0.03167-0.332 0.051952-0.34863 0.29492-0.23633 0.39889 0.18435 0.55052 0.058975 0.76562-0.63476 0.35842-1.1559 0.056583-2.3245-0.87305-3.375l-0.46484-0.52539 0.83594-0.011719c1.4002-0.0201 2.557-0.74197 3.0293-1.8887 0.19275-0.46794 0.15587-0.57791-0.25195-0.73633l-0.29102-0.11328 0.26953-0.22266c0.21187-0.1749 0.2445-0.26103 0.1543-0.4082-0.3106-0.5069-1.5404-1.0299-2.3945-1.0176-0.4127 0.00594-1.6255 0.29296-2.0645 0.48828-0.16815 0.07483-0.16472 0.037976 0.027344-0.36523 0.35038-0.7356 0.50033-1.8897 0.33984-2.6172-0.15258-0.69147-0.65212-1.4696-1.0645-1.6602-0.23135-0.10693-0.31182-0.087923-0.5332 0.12305l-0.25977 0.24805-0.12109-0.35547c-0.10384-0.30215-0.1628-0.34224-0.39453-0.2832zm-0.69336 5.5996c0.38089-0.24332 0.81155 0.30519 0.51953 0.66211-0.16981 0.20754-0.48255 0.20754-0.65234 0-0.1709-0.20887-0.11143-0.50609 0.13281-0.66211zm1.3828 0.78906c0.19773 0.040204 0.36993 0.21413 0.33203 0.48633-0.02978 0.21407-0.11223 0.27986-0.38477 0.30664-0.3969 0.03909-0.52549-0.10112-0.43359-0.47266 0.065935-0.26649 0.28859-0.36052 0.48633-0.32031zm-1.9629 0.25c0.14712 0.27894 0.14578 0.29269-0.058594 0.5-0.39253 0.39817-0.95128 0.058894-0.72656-0.44141 0.15288-0.34032 0.61844-0.37459 0.78516-0.058594zm-0.14844 1.0527c0.46215-0.11767 0.7867 0.38635 0.46094 0.7168-0.2017 0.20459-0.61727 0.15844-0.74414-0.082031-0.15339-0.29072-0.036757-0.55331 0.2832-0.63477zm1.5469 0.087891c0.20686-0.029956 0.42213 0.059242 0.45508 0.29492 0.01976 0.14136-0.023203 0.32931-0.095703 0.41797-0.25537 0.31212-0.76562 0.11527-0.76562-0.29492 0-0.24044 0.19939-0.38801 0.40625-0.41797z" fill="#fff"/>
 </g>
</svg>
