<?xml version="1.0" encoding="UTF-8"?>
<!-- Created with Inkscape (http://www.inkscape.org/) -->
<svg id="svg2" width="24" height="24" version="1.1" xmlns="http://www.w3.org/2000/svg" xmlns:cc="http://creativecommons.org/ns#" xmlns:dc="http://purl.org/dc/elements/1.1/" xmlns:rdf="http://www.w3.org/1999/02/22-rdf-syntax-ns#" xmlns:xlink="http://www.w3.org/1999/xlink">
 <defs id="defs4">
  <linearGradient id="linearGradient3335" x1="11.375" x2="11.375" y1="22" y2="-9.8173" gradientUnits="userSpaceOnUse">
   <stop id="stop3330" offset="0"/>
   <stop id="stop3333" stop-opacity="0" offset="1"/>
  </linearGradient>
  <linearGradient id="linearGradient3181" x1="-3.0608" x2="-3.0608" y1="27.258" y2="7.2537" gradientTransform="translate(12.119 -7.2582)" gradientUnits="userSpaceOnUse">
   <stop id="stop3754" stop-color="#6bd0f5" offset="0"/>
   <stop id="stop3756" stop-color="#c6eefd" offset="1"/>
  </linearGradient>
  <filter id="filter3194" x="-.18" y="-.18" width="1.36" height="1.36" color-interpolation-filters="sRGB">
   <feGaussianBlur id="feGaussianBlur3196" stdDeviation="1.2"/>
  </filter>
  <clipPath id="clipPath2849">
   <rect id="rect2851" x="1" y="1" width="20" height="20" rx="2" ry="2" fill="#fff" fill-rule="evenodd"/>
  </clipPath>
  <linearGradient id="linearGradient3748" x1="32" x2="64" y1="24" y2="64" gradientTransform="matrix(.27324 0 0 .27324 -1.1157 -3.1157)" gradientUnits="userSpaceOnUse">
   <stop id="stop3739" stop-color="#fff" offset="0"/>
   <stop id="stop3741" stop-color="#fff" stop-opacity="0" offset="1"/>
  </linearGradient>
  <linearGradient id="linearGradient3751" x1="56" x2="51.525" y1="80" y2="53.768" gradientTransform="matrix(.27324 0 0 .27324 -1.1157 -3.1157)" gradientUnits="userSpaceOnUse">
   <stop id="stop3742" stop-color="#9ee1f9" offset="0"/>
   <stop id="stop3744" stop-color="#00aff0" offset="1"/>
  </linearGradient>
  <linearGradient id="linearGradient3845" x1="11" x2="21" y1="19.5" y2="19.5" gradientTransform="translate(1,-1)" gradientUnits="userSpaceOnUse" spreadMethod="reflect">
   <stop id="stop3833" stop-color="#fff" offset="0"/>
   <stop id="stop3821" stop-color="#fff" stop-opacity=".49804" offset=".75"/>
   <stop id="stop3835" stop-color="#fff" stop-opacity="0" offset="1"/>
  </linearGradient>
  <linearGradient id="linearGradient4007" x1="10" x2="10" y1="1" y2="16" gradientTransform="translate(1,-1)" gradientUnits="userSpaceOnUse">
   <stop id="stop3825" stop-color="#fff" offset="0"/>
   <stop id="stop3829" stop-color="#fff" stop-opacity="0" offset="1"/>
  </linearGradient>
 </defs>
 <metadata id="metadata7">
  <rdf:RDF>
   <cc:Work rdf:about="">
    <dc:format>image/svg+xml</dc:format>
    <dc:type rdf:resource="http://purl.org/dc/dcmitype/StillImage"/>
    <dc:title/>
   </cc:Work>
  </rdf:RDF>
 </metadata>
 <g id="layer1" transform="translate(0,2)">
  <g id="g3337" transform="translate(1,-1)">
   <rect id="rect3371" x=".5" y=".5" width="21" height="21.5" rx="2.5" ry="2.5" fill="url(#linearGradient3335)" opacity=".3"/>
   <rect id="rect2553" x="1" y="2" width="20" height="20" rx="2.381" ry="2.3256" opacity=".5"/>
  </g>
  <rect id="rect3173" x="2" width="20" height="20" rx="2" ry="2" fill="url(#linearGradient3181)" fill-rule="evenodd"/>
  <path id="rect3050" d="m4 0c-1.108 0-2 0.892-2 2v16c0 1.108 0.892 2 2 2h16c1.108 0 2-0.892 2-2v-16c0-1.108-0.892-2-2-2h-16zm0 1.0312h16c0.5497 0 0.96875 0.41905 0.96875 0.96875v16c0 0.5497-0.41905 0.96875-0.96875 0.96875h-16c-0.5497 0-0.96875-0.41905-0.96875-0.96875v-16c0-0.5497 0.41905-0.96875 0.96875-0.96875z" fill="url(#linearGradient4007)" fill-rule="evenodd" opacity=".45"/>
  <path id="path3235" d="m4 20c-1.108 0-2-0.892-2-2v-1c0 1.108 0.892 2 2 2h16c1.108 0 2-0.892 2-2v1c0 1.108-0.892 2-2 2h-16z" fill="url(#linearGradient3845)" fill-rule="evenodd" opacity=".3"/>
 </g>
 <g id="layer2" transform="translate(0,2)">
  <rect id="rect2410" transform="translate(1,-1)" x="3" y="3" width="16" height="16" rx="2" ry="2" clip-path="url(#clipPath2849)" fill="#fff" filter="url(#filter3194)" opacity=".15"/>
 </g>
 <g id="layer3" transform="translate(0,2)">
  <path id="path3818" d="m8.0123 1.2562c-2.6231 0-4.7562 2.133-4.7562 4.7562 0 0.81021 0.19699 1.5694 0.55503 2.2372-0.11953 0.56269-0.17078 1.1523-0.17078 1.7505 0 4.6167 3.7428 8.3596 8.3596 8.3596 0.59814 0 1.1878-0.05125 1.7505-0.17078 0.67003 0.36125 1.4231 0.55503 2.2372 0.55503 2.6232 0 4.7562-2.133 4.7562-4.7562 0-0.8141-0.19378-1.5672-0.55503-2.2372 0.11953-0.56268 0.17078-1.1523 0.17078-1.7505 0-4.6167-3.7428-8.3596-8.3596-8.3596-0.59828 0-1.1877 0.068268-1.7505 0.18786-0.66781-0.35812-1.4269-0.57211-2.2372-0.57211z" fill="url(#linearGradient3751)"/>
  <path id="path3727" d="m8.0123 1.2562c-2.6231 0-4.7562 2.133-4.7562 4.7562 0 0.81021 0.19699 1.5694 0.55503 2.2372-0.11953 0.56269-0.17078 1.1523-0.17078 1.7505 0 1.1973 0.25492 2.3342 0.70873 3.3643 4.5237-3.7466 11.81-4.9592 15.78-5.3539-0.8931-3.6578-4.1974-6.37-8.129-6.37-0.59828 0-1.1877 0.068268-1.7505 0.18786-0.66781-0.35812-1.4269-0.57211-2.2372-0.57211z" fill="url(#linearGradient3748)" opacity=".6"/>
  <path id="path3730" transform="matrix(.26568 0 0 .26568 -.75277 16.908)" d="m33.406-59.875c-10.614 0-19.281 8.6671-19.281 19.281 0 3.0592 0.75796 5.9324 2.0312 8.5-0.37451 1.9864-0.625 4.0218-0.625 6.0938 0 17.907 14.562 32.469 32.469 32.469 2.072 0 4.1074-0.25049 6.0938-0.625 2.5732 1.2821 5.4337 2.0312 8.5 2.0312 10.614 0 19.281-8.6671 19.281-19.281 0-3.0663-0.74909-5.9268-2.0312-8.5 0.37451-1.9864 0.625-4.0218 0.625-6.0938 0-17.907-14.562-32.469-32.469-32.469-2.1151 0-4.1547 0.30349-6.125 0.6875-2.5424-1.2644-5.3963-2.0938-8.4688-2.0938zm0 4.75c2.4553 0 4.7786 0.64255 6.8438 1.75a0.9391 0.9391 0 0 0 0 0.03125c0.02575 0.01372 0.1919 0.08232 0.21875 0.09375 0.02685 0.01143 0.22226 0.08469 0.25 0.09375 0.02774 0.0091 0.19033 0.05588 0.21875 0.0625 0.02842 0.0066 0.22112 0.02712 0.25 0.03125 0.02889 0.0041 0.22087 0.02965 0.25 0.03125 0.02913 0.0016 0.22084 9.29e-4 0.25 0 0.02916-9.29e-4 0.22103 0.0035 0.25 0 0.02897-0.0035 0.22144-0.05654 0.25-0.0625 1.8809-0.39966 3.846-0.625 5.8125-0.625 15.338 0 27.719 12.381 27.719 27.719 0 2.0206-0.17467 3.9868-0.5625 5.8125-0.0064 0.02919-0.05867 0.22036-0.0625 0.25-0.0038 0.02964 0.0012 0.22013 0 0.25-0.0012 0.02987-0.0015 0.22015 0 0.25 0.0015 0.02985-0.0041 0.2204 0 0.25 0.0041 0.0296 0.05576 0.22088 0.0625 0.25 0.0067 0.02912 0.05319 0.2216 0.0625 0.25 0.0093 0.0284 0.08196 0.22254 0.09375 0.25 0.01179 0.02746 0.11081 0.19244 0.125 0.21875 1.1014 2.0428 1.6875 4.2924 1.6875 6.8125 0 8.0376-6.4937 14.531-14.531 14.531-2.5201 0-4.7697-0.58614-6.8125-1.6875-0.02631-0.014188-0.19129-0.11321-0.21875-0.125-0.02746-0.011794-0.2216-0.084444-0.25-0.09375-0.0284-0.00931-0.22088-0.055755-0.25-0.0625-0.02912-0.00675-0.2204-0.058369-0.25-0.0625-0.0296-0.00413-0.22015 0.00148-0.25 0-0.02985-0.00148-0.22013-0.00118-0.25 0-0.02987 0.00118-0.22036-0.00383-0.25 0-0.02964 0.00383-0.22081 0.056055-0.25 0.0625-1.8257 0.38783-3.792 0.5625-5.8125 0.5625-15.338 0-27.719-12.381-27.719-27.719 0-2.0206 0.17467-3.9868 0.5625-5.8125 6e-3 -0.02856 0.05904-0.22103 0.0625-0.25 0.0035-0.02897-9.29e-4 -0.22084 0-0.25 9.29e-4 -0.02916 0.0016-0.22087 0-0.25-0.0016-0.02913-0.02712-0.22112-0.03125-0.25-0.0041-0.02889-0.02463-0.22158-0.03125-0.25-0.0066-0.02842-0.05344-0.19101-0.0625-0.21875-0.0091-0.02774-0.08232-0.22315-0.09375-0.25-0.01143-0.02685-0.08003-0.193-0.09375-0.21875a0.9391 0.9391 0 0 0-0.03125 0c-1.0892-2.0315-1.6875-4.3481-1.6875-6.8438 0-8.0376 6.4937-14.531 14.531-14.531z" fill="#00aff0"/>
  <path id="path3763" d="m11.844 4.0312c-1.4257 0-2.6327 0.30651-3.5 0.96875s-1.3438 1.6938-1.3438 2.875c0 1.3744 0.9599 2.2802 2.0312 2.7812 1.0383 0.48562 2.2427 0.68582 3.1562 0.8125 0.02903 4e-3 0.0653 0.02737 0.09375 0.03125 0.70488 0.20096 1.1176 0.40125 1.1875 0.46875 0.03763 0.03636 0.01887 0.03956 0.03125 0.09375s0.03125 0.16454 0.03125 0.34375c0 0.22404-0.0938 0.35353-0.375 0.5-0.2812 0.14647-0.71839 0.21875-1.0312 0.21875-1.0618 0-1.378-0.29586-1.75-0.6875-0.18599-0.19582-0.38819-0.43711-0.65625-0.65625s-0.6456-0.40625-1.0938-0.40625c-0.39583 0-0.81272 0.058611-1.125 0.375s-0.40625 0.76513-0.40625 1.25c0 0.79838 0.58527 1.4405 1.4375 2s2.0485 0.96875 3.5 0.96875c1.4125 0 2.629-0.26937 3.5312-0.875s1.4375-1.5887 1.4375-2.7812c0-1.222-0.56276-2.1348-1.4062-2.7188-0.84349-0.58393-1.9156-0.90306-3.0938-1.2188a0.56392 0.56392 0 0 0-0.03125-0.03125c-0.77062-0.18709-1.3641-0.34132-1.6875-0.5-0.1617-0.079339-0.24707-0.14476-0.28125-0.1875-0.03418-0.042738-0.03125-0.051706-0.03125-0.125 0-0.26213 0.08726-0.36679 0.3125-0.5 0.22524-0.13321 0.59339-0.21875 0.90625-0.21875 1.0789 0 1.2844 0.23952 1.5625 0.5625 0.13904 0.16149 0.2833 0.38245 0.53125 0.59375s0.63044 0.375 1.0625 0.375c0.36906 0 0.76905-0.012219 1.125-0.28125s0.5-0.74388 0.5-1.25c0-0.72752-0.49662-1.3548-1.2812-1.875s-1.9054-0.90625-3.3438-0.90625z" fill="#00aff0" fill-rule="evenodd"/>
  <path id="path3757" d="m11.842 4.5814c-2.6819 0-4.2666 1.2068-4.2666 3.2792 0 2.2543 2.9385 2.8365 4.7542 3.0841 1.6996 0.4554 1.7554 0.72044 1.7554 1.4628 0 0.92527-1.1684 1.28-1.9626 1.28-2.3979 0-2.2209-1.7432-3.4986-1.7432-0.65828 0-0.97522 0.21943-0.97522 1.0484 0 0.82894 1.7066 2.4259 4.3885 2.4259 2.6819 0 4.3885-1.0362 4.3885-3.1085 0-2.1334-1.7652-2.7644-4.0959-3.3889-1.5503-0.37638-2.4137-0.6473-2.4137-1.3897 0-0.92527 0.98558-1.28 1.7798-1.28 2.3979 0 1.8673 1.536 3.1451 1.536 0.65828 0 1.0606-0.13409 1.0606-0.96303 0-0.82894-1.3775-2.243-4.0594-2.243z" fill="#fff" fill-rule="evenodd"/>
 </g>
</svg>
