<?xml version="1.0" encoding="UTF-8"?>
<!-- Created with Inkscape (http://www.inkscape.org/) -->
<svg id="svg2" width="22" height="22" version="1.1" xmlns="http://www.w3.org/2000/svg" xmlns:cc="http://creativecommons.org/ns#" xmlns:dc="http://purl.org/dc/elements/1.1/" xmlns:rdf="http://www.w3.org/1999/02/22-rdf-syntax-ns#" xmlns:xlink="http://www.w3.org/1999/xlink">
 <defs id="defs4">
  <linearGradient id="linearGradient3335" x1="11.375" x2="11.375" y1="22" y2="-9.8173" gradientUnits="userSpaceOnUse">
   <stop id="stop3330" offset="0"/>
   <stop id="stop3333" stop-opacity="0" offset="1"/>
  </linearGradient>
  <filter id="filter3194" x="-.18" y="-.18" width="1.36" height="1.36" color-interpolation-filters="sRGB">
   <feGaussianBlur id="feGaussianBlur3196" stdDeviation="1.2"/>
  </filter>
  <clipPath id="clipPath2849">
   <rect id="rect2851" x="1" y="1" width="20" height="20" rx="2" ry="2" fill="#fff" fill-rule="evenodd"/>
  </clipPath>
  <linearGradient id="linearGradient4414">
   <stop id="stop4416" stop-color="#dac3a2" offset="0"/>
   <stop id="stop4418" stop-color="#dac3a2" stop-opacity="0" offset="1"/>
  </linearGradient>
  <linearGradient id="linearGradient4420" x1="8.9651" x2="8.9651" y1="44.04" y2="52.263" gradientTransform="matrix(.2579 0 0 .2579 -.047603 -1.3489)" gradientUnits="userSpaceOnUse" xlink:href="#linearGradient4414"/>
  <linearGradient id="linearGradient3737">
   <stop id="stop3739" stop-color="#fff" offset="0"/>
   <stop id="stop3741" stop-color="#fff" stop-opacity="0" offset="1"/>
  </linearGradient>
  <linearGradient id="linearGradient3264" x1="47.227" x2="6.3304" y1="29.04" y2="18.082" gradientTransform="matrix(-.2381 0 0 .2381 22.429 -.47619)" gradientUnits="userSpaceOnUse" xlink:href="#linearGradient4295"/>
  <linearGradient id="linearGradient4295">
   <stop id="stop4297" stop-color="#b88f56" offset="0"/>
   <stop id="stop4299" stop-color="#d9bd98" offset="1"/>
  </linearGradient>
  <linearGradient id="linearGradient2489" x1="48" x2="6.7813" y1="42" y2="18.202" gradientTransform="matrix(.2381 0 0 .2381 -.42857 -.47619)" gradientUnits="userSpaceOnUse" xlink:href="#linearGradient4295"/>
  <radialGradient id="radialGradient4432" cx="48" cy="73.146" r="42" gradientTransform="matrix(.20661 0 0 .022676 1.0827 8.1406)" gradientUnits="userSpaceOnUse">
   <stop id="stop4428" stop-color="#71461e" offset="0"/>
   <stop id="stop4430" stop-color="#71461e" stop-opacity="0" offset="1"/>
  </radialGradient>
  <linearGradient id="linearGradient3835" x1="-3.0608" x2="-3.0608" y1="27.258" y2="7.2537" gradientTransform="translate(11.119 23.742)" gradientUnits="userSpaceOnUse">
   <stop id="stop3189" stop-color="#29669f" offset="0"/>
   <stop id="stop3191" stop-color="#88b6e0" offset="1"/>
  </linearGradient>
  <linearGradient id="linearGradient3865" x1="6" x2="16" y1="9" y2="1" gradientUnits="userSpaceOnUse">
   <stop id="stop3739-1" stop-color="#fff" offset="0"/>
   <stop id="stop3741-8" stop-color="#fff" stop-opacity="0" offset="1"/>
  </linearGradient>
  <linearGradient id="linearGradient3867" x1="-3.0608" x2="-3.0608" y1="27.258" y2="7.2537" gradientTransform="translate(11.119 -6.2582)" gradientUnits="userSpaceOnUse">
   <stop id="stop4291" stop-color="#996c3b" offset="0"/>
   <stop id="stop4293" stop-color="#c19e6d" offset="1"/>
  </linearGradient>
  <linearGradient id="linearGradient3871" x1="10" x2="10" y1="40.263" y2="89.666" gradientTransform="matrix(.2579 0 0 .20929 -.078836 2.0414)" gradientUnits="userSpaceOnUse" xlink:href="#linearGradient3737"/>
  <linearGradient id="linearGradient3877" x1="10" x2="10" y1="40.263" y2="89.666" gradientTransform="matrix(-.2579 0 0 .20638 22.075 2.1462)" gradientUnits="userSpaceOnUse" xlink:href="#linearGradient3737"/>
  <linearGradient id="linearGradient3879" x1="8.9651" x2="8.9651" y1="44.04" y2="52.263" gradientTransform="matrix(-.2579 0 0 .2579 22.043 -1.3489)" gradientUnits="userSpaceOnUse" xlink:href="#linearGradient4414"/>
  <linearGradient id="linearGradient3883" x1="8" x2="8" y1="38.127" y2="87.03" gradientTransform="matrix(-.2579 0 0 .21665 22.061 .53562)" gradientUnits="userSpaceOnUse">
   <stop id="stop4372" stop-color="#8a5b30" offset="0"/>
   <stop id="stop4374" stop-color="#8a5b30" stop-opacity="0" offset="1"/>
  </linearGradient>
  <linearGradient id="linearGradient3889" x1="50.499" x2="50.499" y1="19.882" y2="47.295" gradientTransform="matrix(.25145 0 0 .25145 -2.2295 .92067)" gradientUnits="userSpaceOnUse">
   <stop id="stop4311" stop-color="#d8cab2" offset="0"/>
   <stop id="stop4321" stop-color="#d2b98c" offset=".45711"/>
   <stop id="stop4323" stop-color="#F9F7EF" offset=".4859"/>
   <stop id="stop4325" stop-color="#fff" offset=".4911"/>
   <stop id="stop4327" stop-color="#FBF9F4" offset=".4918"/>
   <stop id="stop4329" stop-color="#EFE7D0" offset=".4946"/>
   <stop id="stop4331" stop-color="#E4D6B0" offset=".4977"/>
   <stop id="stop4333" stop-color="#DAC894" offset=".5011"/>
   <stop id="stop4335" stop-color="#c7a572" offset=".5049"/>
   <stop id="stop4347" stop-color="#d7c198" offset="1"/>
  </linearGradient>
  <filter id="filter3895" x="-.14998" y="-.04737" width="1.3" height="1.0947" color-interpolation-filters="sRGB">
   <feGaussianBlur id="feGaussianBlur3897" stdDeviation="0.24833797"/>
  </filter>
  <linearGradient id="linearGradient3226" x1="51.429" x2="90.714" y1="72.786" y2="72.786" gradientUnits="userSpaceOnUse">
   <stop id="stop3702-1" stop-color="#d70751" offset="0"/>
   <stop id="stop3704-1" stop-color="#e7466b" offset="1"/>
  </linearGradient>
  <linearGradient id="linearGradient3845" x1="11" x2="21" y1="19.5" y2="19.5" gradientUnits="userSpaceOnUse" spreadMethod="reflect">
   <stop id="stop3833" stop-color="#fff" offset="0"/>
   <stop id="stop3821" stop-color="#fff" stop-opacity=".49804" offset=".75"/>
   <stop id="stop3835" stop-color="#fff" stop-opacity="0" offset="1"/>
  </linearGradient>
  <linearGradient id="linearGradient3981" x1="15.286" x2="15.286" y1="9.1565" y2="31.259" gradientUnits="userSpaceOnUse">
   <stop id="stop3977" stop-color="#fff" offset="0"/>
   <stop id="stop3979" stop-color="#fff" stop-opacity="0" offset="1"/>
  </linearGradient>
 </defs>
 <metadata id="metadata7">
  <rdf:RDF>
   <cc:Work rdf:about="">
    <dc:format>image/svg+xml</dc:format>
    <dc:type rdf:resource="http://purl.org/dc/dcmitype/StillImage"/>
    <dc:title/>
   </cc:Work>
  </rdf:RDF>
 </metadata>
 <g id="layer1">
  <g id="g3337" opacity=".9">
   <path id="rect3371" d="m3 0.5 8-0.49972 8 0.49972c1.3823 0.086346 2.5 1.115 2.5 2.5v16.5c0 1.385-1.115 2.5-2.5 2.5h-16c-1.385 0-2.5-1.115-2.5-2.5v-16.5c0-1.385 1.1177-2.4137 2.5-2.5z" fill="url(#linearGradient3335)" opacity=".3"/>
   <path id="rect2553" d="m3.381 2h15.238c1.319 0 2.381 1.0372 2.381 2.3256v15.349c0 1.2884-1.0619 2.3256-2.381 2.3256h-15.238c-1.319 0-2.381-1.0372-2.381-2.3256v-15.349c0-1.2884 1.0619-2.3256 2.381-2.3256z" opacity=".5"/>
  </g>
  <rect id="rect3173" x="1" y="1" width="20" height="20" rx="2" ry="2" fill="url(#linearGradient3867)" fill-rule="evenodd"/>
  <path id="rect3183" d="m3 1c-1.108 0-2 0.892-2 2v1c0-1.108 0.892-2 2-2h16c1.108 0 2 0.892 2 2v-1c0-1.108-0.892-2-2-2h-16z" fill="#fff" fill-rule="evenodd" opacity=".25"/>
  <path id="path3287" d="m1 8.0952v0.47619c0 0.79143 0.63714 1.4286 1.4286 1.4286h17.143c0.79143 0 1.4286-0.63714 1.4286-1.4286v-0.47619c0 0.79143-0.63714 1.4286-1.4286 1.4286h-17.143c-0.79143 0-1.4286-0.63714-1.4286-1.4286z" fill="url(#radialGradient4432)"/>
  <path id="path3869" d="m1.9843 9.576v10.981c0.14877 0.10808 0.32364 0.1932 0.5158 0.24854v-11.23h-0.5158z" fill="url(#linearGradient3871)" opacity=".3"/>
  <path id="path4404" d="m1.5481 8.2668c0.61873 1.4328 0.48847 4.1357 0.48847 4.1357l0.47218-0.06513c-0.06513-2.1167 0.11398-2.8982 1.2863-2.9308-1.8489-0.30814-2.2469-1.1398-2.2469-1.1398z" fill="url(#linearGradient4420)" fill-rule="evenodd"/>
  <path id="path3873" d="m20.012 9.576v10.829c-0.14877 0.10657-0.32364 0.19051-0.5158 0.24508v-11.074h0.5158z" fill="url(#linearGradient3877)" opacity=".3"/>
  <rect id="rect2483" x="1" y="3.8095" width="20" height="5.7143" rx="1.4286" ry="1.4286" fill="#3c2510"/>
  <path id="rect2481" d="m11 0.46875-8 0.53125c-1.1056 0.073249-2 0.892-2 2v5.0938c0 0.79143 0.64607 1.4375 1.4375 1.4375l8.5625-0.46875v-8.5938z" fill="url(#linearGradient2489)"/>
  <path id="path3881" d="m20.514 8.335v10.399c0 0.38602-0.19976 0.73047-0.5158 0.96815v-11.367h0.5158z" fill="url(#linearGradient3883)"/>
  <path id="path3875" d="m20.448 8.2668c-0.61873 1.4328-0.48847 4.1357-0.48847 4.1357l-0.47218-0.06513c0.06513-2.1167-0.11398-2.8982-1.2863-2.9308 1.8489-0.30814 2.247-1.1398 2.247-1.1398z" fill="url(#linearGradient3879)" fill-rule="evenodd"/>
  <path id="path3262" d="m11 0.46875v8.5938l8.5625 0.46875c0.79143 0 1.4375-0.64607 1.4375-1.4375v-5.0938c0-1.108-0.89442-1.9268-2-2l-8-0.53125z" fill="url(#linearGradient3264)"/>
  <path id="path3891" d="m10.909 0.91797-1.8472 0.13103-0.018224 12.451 3.9738-1.0244-0.040359-11.449-2.068-0.10894z" fill="#543b22" filter="url(#filter3895)"/>
  <path id="path3887" d="m10.909 0.46969-1.8472 0.13103-0.018224 12.451 3.9738-1.0244-0.040359-11.449-2.068-0.10894z" fill="url(#linearGradient3889)"/>
  <rect id="rect4363" x="10.454" y=".50595" width=".54598" height="8.5034" fill="#8d6137" opacity=".2"/>
  <rect id="rect4365" x="11" y=".50595" width=".5239" height="8.5034" fill="#fff" opacity=".2"/>
  <path id="path3833" d="m3 31 8-0.53004 8 0.53004c1.1056 0.07325 2 0.892 2 2v16c0 1.108-0.892 2-2 2h-16c-1.108 0-2-0.892-2-2v-16c0-1.108 0.89442-1.9268 2-2z" fill="url(#linearGradient3835)" fill-rule="evenodd"/>
  <path id="path3847" d="m11 0.46875-8 0.53125c-1.1056 0.073249-2 0.892-2 2v5.0938c0 0.79143 0.64607 1.4375 1.4375 1.4375l8.5625-0.46875 8.5625 0.46875c0.79143 0 1.4375-0.64607 1.4375-1.4375v-5.0938c0-1.108-0.89442-1.9268-2-2l-8-0.53125zm-0.0625 0.90625h0.125l7.875 0.53125c0.68981 0.045703 1.1562 0.47753 1.1562 1.0938v5.0938c0 0.29411-0.23714 0.53125-0.53125 0.53125l-8.5-0.46875a0.91391 0.91391 0 0 0-0.125 0l-8.5 0.46875c-0.29411 0-0.53125-0.23714-0.53125-0.53125v-5.0938c0-0.61622 0.46644-1.048 1.1562-1.0938l7.875-0.53125z" fill="url(#linearGradient3865)" opacity=".3"/>
  <rect id="rect3742" transform="rotate(90)" x="18" y="-8" width="1" height="5" fill="#825023" opacity=".6"/>
  <rect id="rect3744" transform="rotate(90)" x="17" y="-6" width="1" height="3" fill="#825023"/>
  <path id="path3235" d="m3 21c-1.108 0-2-0.892-2-2v-1c0 1.108 0.892 2 2 2h16c1.108 0 2-0.892 2-2v1c0 1.108-0.892 2-2 2h-16z" fill="url(#linearGradient3845)" fill-rule="evenodd" opacity=".25"/>
 </g>
 <g id="layer2">
  <rect id="rect2410" x="3" y="3" width="16" height="16" rx="2" ry="2" clip-path="url(#clipPath2849)" fill="#fff" filter="url(#filter3194)" opacity=".15"/>
 </g>
 <g id="layer3">
  <path id="path4000" transform="matrix(0 -.38182 .36909 0 -12.115 41.636)" d="m90.714 72.786c0 10.848-8.7944 19.643-19.643 19.643-10.848 0-19.643-8.7944-19.643-19.643s8.7944-19.643 19.643-19.643c10.848 0 19.643 8.7944 19.643 19.643z" opacity=".4"/>
  <path id="path3836" transform="matrix(0 -.35636 .35636 0 -10.938 39.327)" d="m90.714 72.786c0 10.848-8.7944 19.643-19.643 19.643-10.848 0-19.643-8.7944-19.643-19.643s8.7944-19.643 19.643-19.643c10.848 0 19.643 8.7944 19.643 19.643z" fill="url(#linearGradient3226)"/>
  <path id="path3739" d="m15 7c-3.866 0-7 3.134-7 7 0 0.16822 0.019579 0.33474 0.03125 0.5 0.25653-3.6325 3.271-6.5 6.9688-6.5s6.7122 2.8675 6.9688 6.5c0.01167-0.16526 0.03125-0.33178 0.03125-0.5 0-3.866-3.134-7-7-7z" fill="#fff" opacity=".2"/>
  <path id="path3989" d="m14.562 8.5938a0.3366 0.3366 0 0 0-0.03125 0.03125c-0.14763 0.044469-0.17074 0.030737-0.25 0.03125-0.07926 5.134e-4 -0.24578 0.016381-0.4375 0.0625a0.3366 0.3366 0 0 0-0.03125 0c-0.53628 0.21534-1.0801 0.48426-1.5625 0.78125-0.01161 0.00715-0.0197 0.024077-0.03125 0.03125-0.19986 0.053668-0.36811 0.14247-0.46875 0.25-0.13833 0.1478-0.24146 0.28986-0.28125 0.3125a0.3366 0.3366 0 0 0-0.125 0.09375c-0.19505 0.27932-0.46553 0.52156-0.65625 0.9375a0.3366 0.3366 0 0 0-0.03125 0.0625c-0.0032 0.02049-0.03004 0.07393-0.09375 0.21875-0.01286 0.02924-0.02234 0.07336-0.03125 0.125-0.07652 0.03242-0.16078 0.04383-0.21875 0.125-0.0629 0.08808-0.07826 0.18373-0.09375 0.28125-0.0052 0.03251-0.02837 0.05971-0.03125 0.09375-0.13551 0.35933-0.36813 0.78387-0.40625 1.2812a0.3366 0.3366 0 0 0 0.03125 0.125c0.025491 0.09267 0.015371 0.275 0 0.5-0.014732 0.21564-0.045951 0.4741-0.03125 0.71875-2.613e-4 0.01052 2.026e-4 0.02073 0 0.03125-0.048488 2.5177 1.5853 4.9451 3.9375 5.8438a0.3366 0.3366 0 0 0 0.03125 0c0.54757 0.18642 1.154 0.30221 1.75 0.25a0.3366 0.3366 0 0 0 0.0625-0.03125c0.14652-0.04618 0.28238-0.15604 0.34375-0.28125 0.06137-0.12521 0.05548-0.25447 0.03125-0.375-0.04134-0.20565-0.22547-0.39462-0.46875-0.4375-0.04533-0.0113-0.08069-0.02137-0.125-0.03125-0.22156-0.0494-0.46271-0.0989-0.625-0.15625-0.19474-0.06882-0.28488-0.14311-0.375-0.3125a0.3366 0.3366 0 0 0-0.03125 0c-0.07622-0.1414-0.21104-0.22734-0.3125-0.25-0.07247-0.01619-0.11132-6.97e-4 -0.15625 0-0.03461-0.05228-0.05332-0.12314-0.09375-0.15625-0.09044-0.07405-0.1626-0.09984-0.21875-0.125-0.05615-0.02516-0.09058-0.06009-0.09375-0.0625a0.3366 0.3366 0 0 0-0.0625-0.09375 0.3366 0.3366 0 0 0-0.0625-0.0625c-0.11245-0.08467-0.17353-0.11476-0.21875-0.15625-0.04522-0.04149-0.05415-0.07165-0.0625-0.125a0.3366 0.3366 0 0 0-0.0625-0.125c-0.11904-0.17593-0.25485-0.24128-0.3125-0.28125-0.05765-0.03997-0.02936-0.01828-0.03125-0.03125h-0.03125c0.0016-0.06645 0.01931-0.13487 0-0.1875-0.03416-0.09312-0.09169-0.11696-0.125-0.15625a0.3366 0.3366 0 0 0 0-0.03125c-0.01333-0.01572 0.0073-0.02222 0-0.03125a0.3366 0.3366 0 0 0 0-0.03125c-0.04627-0.20576-0.09559-0.31337-0.09375-0.40625a0.3366 0.3366 0 0 0 0-0.03125c-0.015012-0.31783-0.20488-0.54542-0.375-0.6875-0.12759-0.10656-0.20586-0.14099-0.28125-0.1875-0.02805-0.13552-0.06291-0.29062-0.0625-0.34375h-0.03125c0.02545-0.18733 0.01027-0.39598-0.03125-0.5-0.05186-0.12994-0.06391-0.17023-0.0625-0.1875a0.3366 0.3366 0 0 0 0-0.0625c-0.03456-0.44191 0.04099-0.90878 0.09375-1.4062 0.0023-0.02202-0.0023-0.04036 0-0.0625 0.16371-0.35541 0.27596-0.69532 0.40625-0.90625 0.28543-0.37942 0.60954-0.7005 0.96875-0.78125a0.3366 0.3366 0 0 0 0.21875-0.15625c0.14728-0.22472 0.21586-0.29513 0.46875-0.28125a0.3366 0.3366 0 0 0 0.21875-0.0625 0.3366 0.3366 0 0 0 0.0625-0.03125c0.18326-0.18296 0.30507-0.27269 0.46875-0.25a0.3366 0.3366 0 0 0 0.15625-0.03125c0.80606-0.28099 1.8408 0.02094 2.375 0.6875 0.42495 0.45977 0.62253 1.1166 0.59375 1.75a0.3366 0.3366 0 0 0 0 0.03125c0.02449 0.23209-0.0495 0.52916-0.0625 0.875-0.10816 0.12292-0.15466 0.28013-0.1875 0.375-0.04941 0.14274-0.09295 0.18696-0.09375 0.1875a0.3366 0.3366 0 0 0-0.03125 0.03125c-0.13356 0.10806-0.38365 0.23429-0.625 0.40625-0.0132 0.0028-0.01827-0.0029-0.03125 0-0.38328 0.08468-0.67522 0.20787-0.90625 0.125a0.3366 0.3366 0 0 0-0.03125 0c-0.68178-0.17673-1.189-1.0211-0.96875-1.6875a0.3366 0.3366 0 0 0 0-0.03125c0.09854-0.43125 0.69677-0.73828 1.125-0.65625 0.15182 0.02845 0.33186-0.03704 0.4375-0.125s0.1609-0.19778 0.1875-0.3125c0.0266-0.11472 0.02141-0.25078-0.03125-0.375-0.03317-0.07824-0.11372-0.12869-0.1875-0.1875-0.03626-0.04182-0.08477-0.05925-0.125-0.09375-0.2725-0.23371-0.627-0.31895-0.9375-0.28125-0.35635 0.04327-0.64951 0.18073-0.90625 0.375a0.3366 0.3366 0 0 0-0.03125 0.03125c-0.42978 0.37343-0.7383 0.84674-0.9375 1.3438-0.09695 0.21755-0.0904 0.44178-0.09375 0.6875-0.0029 0.21228-1.3e-5 0.4047 0.03125 0.59375 0.0049 0.02978-0.0058 0.0654 0 0.09375h0.03125c0.02195 0.28537 0.17205 0.50877 0.25 0.625 0.04378 0.06528 0.06123 0.11964 0.0625 0.125a0.3366 0.3366 0 0 0 0 0.34375c0.17504 0.29244 0.43813 0.66807 0.90625 0.8125 0.0094 0.0029 0.02168-0.0027 0.03125 0 0.06867 0.03353 0.17224 0.14078 0.34375 0.21875 0.1762 0.0801 0.47064 0.1089 0.71875-0.03125 0.0011-6.27e-4 0.02834 6.99e-4 0.03125 0 0.02905-7e-3 0.1318-0.02028 0.3125 0 0.18223 0.02046 0.42769 0.05026 0.6875-0.03125v0.03125c0.02311-0.0039 0.03946-0.02686 0.0625-0.03125 0.69076-0.13154 1.3273-0.4755 1.7812-1.0312 0.0095-0.01164 0.02191-0.01943 0.03125-0.03125 0.02748-0.01748 0.0741-0.01066 0.09375-0.03125 0.03997-0.04188 0.01485-0.06313 0.03125-0.09375a0.3366 0.3366 0 0 0 0.03125 0c0.0035-0.0027-3e-3 -0.02842 0-0.03125 0.02161-0.02053 0.02829 0.0051 0.03125 0a0.3366 0.3366 0 0 0 0.03125 0c0.23893-0.15133 0.28285-0.40277 0.3125-0.53125 0.02965-0.12848 0.04833-0.12718 0-0.09375v-0.03125c0.11634-0.06959 0.20973-0.15297 0.25-0.25 0.05033-0.12129 0.05496-0.23646 0.0625-0.3125 0.0035-0.03579-0.0031-0.03948 0-0.0625a0.3366 0.3366 0 0 0 0.125-0.40625c0.01241 0.03226 0.02062-0.04052 0.09375-0.21875 0.03657-0.08912 0.09013-0.19272 0.09375-0.34375 2.91e-4 -0.01213-0.03056-0.01864-0.03125-0.03125 0.11026-0.07927 0.2327-0.17013 0.25-0.34375a0.3366 0.3366 0 0 0 0-0.03125c-0.0039-0.25687-0.11172-0.44894-0.15625-0.59375-0.04453-0.14481-0.03741-0.17738-0.03125-0.1875a0.3366 0.3366 0 0 0 0.0625-0.1875c-0.0095-0.55727-0.37485-0.96521-0.5625-1.2812a0.3366 0.3366 0 0 0 0-0.03125c-0.34864-0.48025-0.81608-0.96812-1.4062-1.25-0.02107-0.017079-0.068-0.043723-0.09375-0.0625-0.08333-0.06077-0.1801-0.13685-0.3125-0.1875-0.10729-0.041046-0.26546-0.00751-0.40625 0-0.35418-0.10953-0.75115-0.25962-1.1562-0.375-0.23115-0.059016-0.37419-0.00605-0.4375 0.03125-0.1379-0.048288-0.26569-0.053751-0.3125-0.0625-0.04681-0.00875-0.03102-4e-3 -0.0625-0.03125a0.3366 0.3366 0 0 0-0.21875-0.09375h-0.03125-0.03125a0.3366 0.3366 0 0 0-0.0625 0z" fill="#8a0835" opacity=".3"/>
  <path id="path3983" d="m14.636 8.9293c-0.34824 0.10489-0.37425 0.017025-0.69874 0.095082-0.52815 0.21207-1.0441 0.48421-1.5201 0.77982-0.35214-0.033-0.51038 0.40854-0.78114 0.56259-0.2213 0.31691-0.49183 0.53576-0.64929 0.87916-0.03851 0.24824-0.27645 0.4027 0.02429 0.43334-0.21717 0.18863-0.45458-0.03709-0.49016 0.38301-0.14289 0.41375-0.3514 0.83687-0.38484 1.2732 0.09516 0.34597-0.03693 0.88845-0.0053 1.3115-0.05902 2.3763 1.5087 4.7107 3.727 5.5582 0.50834 0.17307 1.06 0.28405 1.5967 0.23703 0.25681-0.08094 0.17634-0.49547-0.09163-0.4749-0.49364-0.12301-1.0648-0.14118-1.3362-0.65136-0.09087-0.16858-0.4226 0.0012-0.39423-0.16006-0.04942-0.27347-0.43484-0.19538-0.50773-0.46606-0.18543-0.13962-0.38187-0.24042-0.42351-0.50633-0.11254-0.16633-0.37249-0.19339-0.40871-0.44178 0.08488-0.19645-0.19085-0.25853-0.15156-0.422-0.03768-0.16756-0.10149-0.30345-0.09806-0.47664-0.01986-0.42049-0.45726-0.57534-0.65086-0.72665-0.01828-0.17783-0.08986-0.34881-0.08849-0.52549 0.09653-0.25893-0.14624-0.454-0.12526-0.71175-0.0402-0.51403 0.0442-1.0287 0.09633-1.5383 0.18263-0.35806 0.29847-0.76592 0.48712-1.0713 0.29977-0.39848 0.67704-0.79951 1.1776-0.91203 0.18192-0.27757 0.42124-0.47987 0.7907-0.4596 0.2018-0.20147 0.43515-0.38739 0.75-0.34375 0.95112-0.33156 2.1001-0.0048 2.7326 0.78428 0.49261 0.53297 0.74018 1.2593 0.7077 1.9741 0.03845 0.36442-0.09223 0.70947-0.07835 1.0706-0.25569 0.11532-0.20611 0.50215-0.44568 0.66483-0.24531 0.19848-0.53993 0.29052-0.774 0.52077-0.3621 0.07776-0.74914 0.23337-1.1302 0.09668-0.87684-0.2273-1.4533-1.2178-1.1654-2.0888 0.14604-0.63913 0.8622-1.0612 1.4818-0.94254 0.23358 0.04377 0.34723-0.36493 0.10902-0.45493-0.40751-0.47004-1.1046-0.26574-1.5338 0.05906-0.38203 0.33194-0.67548 0.7833-0.85788 1.2384-0.1089 0.24437-0.10789 0.82839-0.03716 1.1754-0.02218 0.3949 0.48857 0.61986 0.27807 0.97674 0.1578 0.26364 0.4412 0.58178 0.77088 0.6748 0.24193 0.10328 0.55014 0.40623 0.82048 0.2346 0.28831-0.16358 0.76812 0.07816 1.124-0.06353 0.65381-0.10986 1.2741-0.46225 1.6855-0.98297 0.17632 0.0022 0.1042-0.23651 0.28125-0.21875 0.21105-0.13367 0.1265-0.49636 0.3125-0.625 0.28459-0.09916 0.08421-0.57427 0.3125-0.65625-0.1147-0.29828 0.32054-0.648 0.0419-0.89898 0.08918 0.03143 0.31238-0.03895 0.32822-0.19787-0.0046-0.30002-0.3118-0.67344-0.1404-0.95535-0.0068-0.39686-0.28348-0.79343-0.48623-1.1349-0.35174-0.48452-0.79959-0.95574-1.3532-1.1894-0.13875-0.11247-0.44281-0.27893-0.69255-0.16405-0.36844-0.11394-0.76074-0.27547-1.1469-0.38545-0.16376-0.04181-0.33441 0.20557-0.47392 0.030432-0.18454-0.064621-0.31412-0.011598-0.47195-0.14825l-0.02117-0.010537-0.02133-0.00812zm4.4062 4.125c0.0624-0.02901 0.03157 0.08594 0 0z" fill="#8a0835" opacity=".6"/>
  <path id="path3970" d="m14.636 8.5927c-0.34824 0.10489-0.37425 0.017025-0.69874 0.095082-0.52815 0.21207-1.0441 0.48421-1.5201 0.77982-0.35214-0.033-0.51038 0.40854-0.78114 0.56259-0.2213 0.31691-0.49183 0.53576-0.64929 0.87916-0.03851 0.24824-0.27645 0.4027 0.02429 0.43334-0.21717 0.18863-0.45458-0.03709-0.49016 0.38301-0.14289 0.41375-0.3514 0.83687-0.38484 1.2732 0.09516 0.34597-0.03693 0.88845-0.0053 1.3115-0.05902 2.3763 1.5087 4.7107 3.727 5.5582 0.50834 0.17307 1.06 0.28405 1.5967 0.23703 0.25681-0.08094 0.17634-0.49547-0.09163-0.4749-0.49364-0.12301-1.0648-0.14118-1.3362-0.65136-0.09087-0.16858-0.4226 0.0012-0.39423-0.16006-0.04942-0.27347-0.43484-0.19538-0.50773-0.46606-0.18543-0.13962-0.38187-0.24042-0.42351-0.50633-0.11254-0.16633-0.37249-0.19339-0.40871-0.44178 0.08488-0.19645-0.19085-0.25853-0.15156-0.422-0.03768-0.16756-0.10149-0.30345-0.09806-0.47664-0.01986-0.42049-0.45726-0.57534-0.65086-0.72665-0.01828-0.17783-0.08986-0.34881-0.08849-0.52549 0.09653-0.25893-0.14624-0.454-0.12526-0.71175-0.0402-0.51403 0.0442-1.0287 0.09633-1.5383 0.18263-0.35806 0.29847-0.76592 0.48712-1.0713 0.29977-0.39848 0.67704-0.79951 1.1776-0.91203 0.18192-0.27757 0.42124-0.47987 0.7907-0.4596 0.2018-0.20147 0.43515-0.38739 0.75-0.34375 0.95112-0.33156 2.1001-0.0048 2.7326 0.78428 0.49261 0.53297 0.74018 1.2593 0.7077 1.9741 0.03845 0.36442-0.09223 0.70947-0.07835 1.0706-0.25569 0.11532-0.20611 0.50215-0.44568 0.66483-0.24531 0.19848-0.53993 0.29052-0.774 0.52077-0.3621 0.07776-0.74914 0.23337-1.1302 0.09668-0.87684-0.2273-1.4533-1.2178-1.1654-2.0888 0.14604-0.63913 0.8622-1.0612 1.4818-0.94254 0.23358 0.04377 0.34723-0.36493 0.10902-0.45493-0.40751-0.47004-1.1046-0.26574-1.5338 0.05906-0.38203 0.33194-0.67548 0.7833-0.85788 1.2384-0.1089 0.24437-0.10789 0.82839-0.03716 1.1754-0.02218 0.3949 0.48857 0.61986 0.27807 0.97674 0.1578 0.26364 0.4412 0.58178 0.77088 0.6748 0.24193 0.10328 0.55014 0.40623 0.82048 0.2346 0.28831-0.16358 0.76812 0.07816 1.124-0.06353 0.65381-0.10986 1.2741-0.46225 1.6855-0.98297 0.17632 0.0022 0.1042-0.23651 0.28125-0.21875 0.21105-0.13367 0.1265-0.49636 0.3125-0.625 0.28459-0.09916 0.08421-0.57427 0.3125-0.65625-0.1147-0.29828 0.32054-0.648 0.0419-0.89898 0.08918 0.03143 0.31238-0.03895 0.32822-0.19787-0.0046-0.30002-0.3118-0.67344-0.1404-0.95535-0.0068-0.39686-0.28348-0.79343-0.48623-1.1349-0.35174-0.48452-0.79959-0.95574-1.3532-1.1894-0.13875-0.11247-0.44281-0.27893-0.69255-0.16405-0.36844-0.11394-0.76074-0.27547-1.1469-0.38545-0.16376-0.04181-0.33441 0.20557-0.47392 0.030432-0.18454-0.064621-0.31412-0.011598-0.47195-0.14825l-0.02117-0.010537-0.02133-0.00812zm4.4062 4.125c0.0624-0.02901 0.03157 0.08594 0 0z" fill="url(#linearGradient3981)"/>
 </g>
</svg>
