<?xml version="1.0" encoding="UTF-8"?>
<!-- Created with Inkscape (http://www.inkscape.org/) -->
<svg id="svg2" width="24" height="24" version="1.1" xmlns="http://www.w3.org/2000/svg" xmlns:cc="http://creativecommons.org/ns#" xmlns:dc="http://purl.org/dc/elements/1.1/" xmlns:rdf="http://www.w3.org/1999/02/22-rdf-syntax-ns#" xmlns:xlink="http://www.w3.org/1999/xlink">
 <defs id="defs4">
  <linearGradient id="linearGradient3335" x1="11.375" x2="11.375" y1="22" y2="-9.8173" gradientUnits="userSpaceOnUse">
   <stop id="stop3330" offset="0"/>
   <stop id="stop3333" stop-opacity="0" offset="1"/>
  </linearGradient>
  <linearGradient id="linearGradient3181" x1="-3.0608" x2="-3.0608" y1="27.258" y2="7.2537" gradientTransform="translate(12.119 -7.2582)" gradientUnits="userSpaceOnUse">
   <stop id="stop3698" stop-color="#2458a6" offset="0"/>
   <stop id="stop3700" stop-color="#598ad4" offset="1"/>
  </linearGradient>
  <filter id="filter3194" x="-.18" y="-.18" width="1.36" height="1.36" color-interpolation-filters="sRGB">
   <feGaussianBlur id="feGaussianBlur3196" stdDeviation="1.2"/>
  </filter>
  <clipPath id="clipPath2849">
   <rect id="rect2851" x="1" y="1" width="20" height="20" rx="2" ry="2" fill="#fff" fill-rule="evenodd"/>
  </clipPath>
  <linearGradient id="linearGradient3811-7">
   <stop id="stop3813-4" stop-color="#fff" offset="0"/>
   <stop id="stop3815-4" stop-color="#fff" stop-opacity="0" offset="1"/>
  </linearGradient>
  <linearGradient id="linearGradient4105" x1="38" x2="70" y1="74" y2="49" gradientTransform="matrix(.26518 0 0 .26518 -.60233 -3.7927)" gradientUnits="userSpaceOnUse" xlink:href="#linearGradient4099"/>
  <linearGradient id="linearGradient4099">
   <stop id="stop4101" stop-color="#9ede27" offset="0"/>
   <stop id="stop4103" stop-color="#c8f16b" offset="1"/>
  </linearGradient>
  <linearGradient id="linearGradient4113" x1="22.111" x2="40" y1="62.984" y2="32" gradientTransform="matrix(.26518 0 0 .26518 -.7714 -3.7927)" gradientUnits="userSpaceOnUse" xlink:href="#linearGradient4099"/>
  <linearGradient id="linearGradient3736" x1="67" x2="57" y1="35" y2="19" gradientTransform="matrix(.26518 0 0 .26518 -.083544 -3.7082)" gradientUnits="userSpaceOnUse" xlink:href="#linearGradient3811-7"/>
  <radialGradient id="radialGradient3739" cx="55.5" cy="36" r=".5" gradientTransform="matrix(.26518 0 0 6.8947 -.083544 -242.37)" gradientUnits="userSpaceOnUse" xlink:href="#linearGradient3811-7"/>
  <linearGradient id="linearGradient3746" x1="56.037" x2="56.037" y1="49.333" y2="13.593" gradientTransform="matrix(.26518 0 0 .26518 -.34873 -3.7082)" gradientUnits="userSpaceOnUse">
   <stop id="stop3801-3" stop-color="#1a1a1a" offset="0"/>
   <stop id="stop3803-2" offset="1"/>
  </linearGradient>
  <radialGradient id="radialGradient3758" cx="49.581" cy="67.041" r="10" gradientTransform="matrix(1.0456 .082437 -.051949 .90988 .84943 1.34)" gradientUnits="userSpaceOnUse">
   <stop id="stop3786-4" stop-color="#a0a0a0" offset="0"/>
   <stop id="stop3790-2" stop-color="#1a1a1a" offset="1"/>
  </radialGradient>
  <linearGradient id="linearGradient3845" x1="11" x2="21" y1="19.5" y2="19.5" gradientTransform="translate(1,-1)" gradientUnits="userSpaceOnUse" spreadMethod="reflect">
   <stop id="stop3833" stop-color="#fff" offset="0"/>
   <stop id="stop3821" stop-color="#fff" stop-opacity=".49804" offset=".75"/>
   <stop id="stop3835" stop-color="#fff" stop-opacity="0" offset="1"/>
  </linearGradient>
  <linearGradient id="linearGradient4007" x1="10" x2="10" y1="1" y2="16" gradientTransform="translate(1,-1)" gradientUnits="userSpaceOnUse">
   <stop id="stop3825" stop-color="#fff" offset="0"/>
   <stop id="stop3829" stop-color="#fff" stop-opacity="0" offset="1"/>
  </linearGradient>
 </defs>
 <metadata id="metadata7">
  <rdf:RDF>
   <cc:Work rdf:about="">
    <dc:format>image/svg+xml</dc:format>
    <dc:type rdf:resource="http://purl.org/dc/dcmitype/StillImage"/>
    <dc:title/>
   </cc:Work>
  </rdf:RDF>
 </metadata>
 <g id="layer1" transform="translate(0,2)">
  <g id="g3337" transform="translate(1,-1)">
   <rect id="rect3371" x=".5" y=".5" width="21" height="21.5" rx="2.5" ry="2.5" fill="url(#linearGradient3335)" opacity=".3"/>
   <rect id="rect2553" x="1" y="2" width="20" height="20" rx="2.381" ry="2.3256" opacity=".5"/>
  </g>
  <rect id="rect3173" x="2" width="20" height="20" rx="2" ry="2" fill="url(#linearGradient3181)" fill-rule="evenodd"/>
  <path id="rect3050" d="m4 0c-1.108 0-2 0.892-2 2v16c0 1.108 0.892 2 2 2h16c1.108 0 2-0.892 2-2v-16c0-1.108-0.892-2-2-2h-16zm0 1.0312h16c0.5497 0 0.96875 0.41905 0.96875 0.96875v16c0 0.5497-0.41905 0.96875-0.96875 0.96875h-16c-0.5497 0-0.96875-0.41905-0.96875-0.96875v-16c0-0.5497 0.41905-0.96875 0.96875-0.96875z" fill="url(#linearGradient4007)" fill-rule="evenodd" opacity=".35"/>
  <path id="path3235" d="m4 20c-1.108 0-2-0.892-2-2v-1c0 1.108 0.892 2 2 2h16c1.108 0 2-0.892 2-2v1c0 1.108-0.892 2-2 2h-16z" fill="url(#linearGradient3845)" fill-rule="evenodd" opacity=".2"/>
 </g>
 <g id="layer2" transform="translate(0,2)">
  <rect id="rect2410" transform="translate(1,-1)" x="3" y="3" width="16" height="16" rx="2" ry="2" clip-path="url(#clipPath2849)" fill="#fff" filter="url(#filter3194)" opacity=".15"/>
 </g>
 <g id="layer3" transform="translate(0,2)">
  <path id="path3771" d="m11.969 4.1562c-0.65631 9.986e-4 -1.3144 0.11429-1.9375 0.28125-3.781 1.0131-6.0839 4.7741-5.375 8.5625l-0.78125 0.21875a0.556 0.556 0 0 0-0.15625 1l2.9688 1.9375a0.556 0.556 0 0 0 0.8125-0.21875l1.625-3.1875a0.556 0.556 0 0 0-0.65625-0.78125l-0.625 0.15625c-0.25928-2.0603 0.96638-4.0405 3.0312-4.5938 0.34874-0.093445 0.72053-0.1247 1.0938-0.125a0.556 0.556 0 0 0 0.5625-0.5625v-2.125a0.556 0.556 0 0 0-0.5625-0.5625zm5.9062 4.25a0.556 0.556 0 0 0-0.3125 0.1875l-2.4062 2.6562a0.556 0.556 0 0 0 0.40625 0.9375h0.6875c-0.28326 2.059-1.9878 3.6562-4.125 3.6562-0.73291 0-1.4448-0.18784-2.0938-0.5625a0.556 0.556 0 0 0-0.75 0.1875l-1.0625 1.8438a0.556 0.556 0 0 0 0.1875 0.75c1.1353 0.65548 2.4163 1 3.7188 1 3.9138 0 7.1116-3.0341 7.4062-6.875h0.8125a0.556 0.556 0 0 0 0.40625-0.9375l-2.375-2.6562a0.556 0.556 0 0 0-0.5-0.1875z" color="#000000" opacity=".1"/>
  <path id="path3760" d="m11.969 4.7188c-0.59973 9.125e-4 -1.1967 0.093379-1.7812 0.25-3.6781 0.98554-5.8918 4.7594-4.9062 8.4375l-1.25 0.34375 2.9688 1.9375 1.625-3.1875-1.2812 0.34375c-0.6823-2.5464 0.82863-5.1615 3.375-5.8438 0.40467-0.10843 0.83472-0.15591 1.25-0.15625v-2.125zm6 4.25-2.4062 2.6562h1.3438c0 2.6362-2.1451 4.7812-4.7812 4.7812-0.83788 0-1.6494-0.23731-2.375-0.65625l-1.0625 1.8438c1.0481 0.60514 2.2272 0.90625 3.4375 0.90625 3.8078 0 6.9062-3.0672 6.9062-6.875h1.3125l-2.375-2.6562z" color="#000000" opacity=".3"/>
  <path id="path3261" d="m14.012-1.0563v10.458c0.35047 0.21902 0.63719 0.5076 0.82869 0.86184 0.07071 0.1308 0.15015 0.26855 0.1906 0.40606v-8.7593c0.98828 0.70489 3.36 3.439 2.2126 6.6627 0.63546-1.654 0.69335-3.4279 0.45578-4.3838-0.28748-1.1566-1.2584-2.3487-2.2623-3.4225-1.0546-1.128-1.4253-1.8231-1.4253-1.8231z" fill="url(#linearGradient3746)"/>
  <path id="path3688" transform="matrix(-.24652 .11154 -.12192 -.22553 32.387 19.773)" d="m60 63c0 4.4183-4.4772 8-10 8s-10-3.5817-10-8 4.4772-8 10-8 10 3.5817 10 8z" color="#000000" fill="url(#radialGradient3758)"/>
  <path id="path3777" d="m12.065 13.263c0.42437-0.01917 0.8673-0.1224 1.2928-0.3149 1.3615-0.61602 2.022-1.9288 1.4834-2.9253-0.53868-0.99644-2.0776-1.3038-3.4391-0.68781-1.3615 0.61602-2.022 1.9288-1.4834 2.9253 0.37034 0.68505 1.2127 1.0449 2.1463 1.0027zm-0.0083-0.24861c-0.84331 0.03979-1.5904-0.27805-1.906-0.86184-0.45905-0.84914 0.1172-2.0244 1.3756-2.5938 1.2584-0.56939 2.6237-0.27735 3.0827 0.5718 0.45905 0.84914-0.1172 2.0244-1.3756 2.5938-0.39326 0.17794-0.79342 0.27195-1.1767 0.29004z" color="#000000" fill="#1a1a1a"/>
  <rect id="rect3809" x="14.501" y="2.391" width=".26518" height="6.8947" rx="1.5911" ry="1.5911" color="#000000" fill="url(#radialGradient3739)" opacity=".2"/>
  <path id="path3821" d="m14.568-0.15307v1.4668s0.63249 0.10213 0.89498 0.36462c0.54892 0.39152 1.3997 1.2697 1.9971 2.4944 0.12294 0.252 0.22911 0.52387 0.32319 0.80383-0.018393-0.27139-0.051266-0.52713-0.099443-0.72096-0.26198-1.054-1.1932-2.2261-2.1877-3.2899-0.43554-0.46585-0.69675-0.8099-0.92813-1.1187z" fill="url(#linearGradient3736)" opacity=".3"/>
  <path id="path4085" d="m11.957 4.1627c-0.59973 9.125e-4 -1.1972 0.075412-1.7817 0.23203-3.6781 0.98554-5.8665 4.7663-4.881 8.4444l-1.2762 0.34805 2.9916 1.9391 1.6159-3.1739-1.2762 0.33976c-0.6823-2.5464 0.8264-5.16 3.3728-5.8423 0.40467-0.10843 0.81947-0.1654 1.2347-0.16574v-2.1214z" color="#000000" fill="url(#linearGradient4113)"/>
  <path id="path3732" d="m17.96 8.4056-2.3866 2.6518h1.3259c0 2.6362-2.1371 4.7733-4.7733 4.7733-0.83788 0-1.661-0.21915-2.3866-0.63809l-1.0607 1.8397c1.0481 0.60514 2.2371 0.91985 3.4474 0.91985 3.8078 0 6.8947-3.0869 6.8947-6.8947h1.3259l-2.3866-2.6518z" color="#000000" fill="url(#linearGradient4105)"/>
 </g>
</svg>
