<?xml version="1.0" encoding="UTF-8"?>
<svg id="svg2" width="24" height="24" version="1.1" xmlns="http://www.w3.org/2000/svg" xmlns:cc="http://creativecommons.org/ns#" xmlns:dc="http://purl.org/dc/elements/1.1/" xmlns:rdf="http://www.w3.org/1999/02/22-rdf-syntax-ns#">
 <metadata id="metadata49">
  <rdf:RDF>
   <cc:Work rdf:about="">
    <dc:format>image/svg+xml</dc:format>
    <dc:type rdf:resource="http://purl.org/dc/dcmitype/StillImage"/>
   </cc:Work>
  </rdf:RDF>
 </metadata>
 <defs id="defs4">
  <linearGradient id="linearGradient3335" x1="11.375" x2="11.375" y1="22" y2="-9.8173" gradientUnits="userSpaceOnUse">
   <stop id="stop3330" offset="0"/>
   <stop id="stop3333" stop-opacity="0" offset="1"/>
  </linearGradient>
  <linearGradient id="linearGradient3181" x1="-3.0608" x2="-3.0608" y1="27.258" y2="7.2537" gradientTransform="translate(12.119 -7.2582)" gradientUnits="userSpaceOnUse">
   <stop id="stop3189" stop-color="#fe5f00" offset="0"/>
   <stop id="stop3191" stop-color="#ffa100" offset="1"/>
  </linearGradient>
  <filter id="filter3194" x="-.18" y="-.18" width="1.36" height="1.36" color-interpolation-filters="sRGB">
   <feGaussianBlur id="feGaussianBlur3196" stdDeviation="1.2"/>
  </filter>
  <clipPath id="clipPath2849">
   <rect id="rect2851" x="1" y="1" width="20" height="20" rx="2" ry="2" fill="#fff" fill-rule="evenodd"/>
  </clipPath>
  <linearGradient id="linearGradient3845" x1="11" x2="21" y1="19.5" y2="19.5" gradientTransform="translate(1,-1)" gradientUnits="userSpaceOnUse" spreadMethod="reflect">
   <stop id="stop3833" stop-color="#fff" offset="0"/>
   <stop id="stop3821" stop-color="#fff" stop-opacity=".49804" offset=".75"/>
   <stop id="stop3835" stop-color="#fff" stop-opacity="0" offset="1"/>
  </linearGradient>
  <linearGradient id="linearGradient3961" x1="10" x2="10" y1="1" y2="16" gradientTransform="translate(1,-1)" gradientUnits="userSpaceOnUse">
   <stop id="stop3825" stop-color="#fff" offset="0"/>
   <stop id="stop3829" stop-color="#fff" stop-opacity="0" offset="1"/>
  </linearGradient>
 </defs>
 <g id="layer1" transform="translate(0,2)">
  <g id="g3337" transform="translate(1,-1)">
   <rect id="rect3371" x=".5" y=".5" width="21" height="21.5" rx="2.5" ry="2.5" fill="url(#linearGradient3335)" opacity=".3"/>
   <rect id="rect2553" x="1" y="2" width="20" height="20" rx="2.381" ry="2.3256" opacity=".5"/>
  </g>
  <rect id="rect3173" x="2" width="20" height="20" rx="2" ry="2" fill="url(#linearGradient3181)" fill-rule="evenodd"/>
  <path id="rect3050" d="m4 0c-1.108 0-2 0.892-2 2v16c0 1.108 0.892 2 2 2h16c1.108 0 2-0.892 2-2v-16c0-1.108-0.892-2-2-2h-16zm0 1.0312h16c0.5497 0 0.96875 0.41905 0.96875 0.96875v16c0 0.5497-0.41905 0.96875-0.96875 0.96875h-16c-0.5497 0-0.96875-0.41905-0.96875-0.96875v-16c0-0.5497 0.41905-0.96875 0.96875-0.96875z" fill="url(#linearGradient3961)" fill-rule="evenodd" opacity=".35"/>
  <path id="path3235" d="m4 20c-1.108 0-2-0.892-2-2v-1c0 1.108 0.892 2 2 2h16c1.108 0 2-0.892 2-2v1c0 1.108-0.892 2-2 2h-16z" fill="url(#linearGradient3845)" fill-rule="evenodd" opacity=".2"/>
 </g>
 <g id="layer2" transform="translate(0,2)">
  <rect id="rect2410" transform="translate(1,-1)" x="3" y="3" width="16" height="16" rx="2" ry="2" clip-path="url(#clipPath2849)" fill="#fff" filter="url(#filter3194)" opacity=".15"/>
 </g>
 <g id="main" shape-rendering="auto">
  <path id="path39" d="m12.018 6.709c-0.13778 0.30377-0.28835 0.68081-0.44141 1.1074-0.17534 0.48868-0.3511 0.99735-0.52148 1.4277-0.085191 0.2152-0.16823 0.41105-0.25977 0.58594-0.09154 0.17489-0.15921 0.33157-0.38867 0.50391-0.22946 0.17233-0.39408 0.18959-0.58203 0.22461-0.18796 0.03502-0.39269 0.056325-0.61523 0.072265-0.4451 0.03187-0.96326 0.042307-1.4629 0.060547-0.43647 0.01593-0.82675 0.046038-1.1465 0.085938 0.23423 0.23089 0.531 0.49692 0.87305 0.78125 0.057537 0.047829 0.10989 0.092651 0.16797 0.14062 0.039349-0.001697 0.065319-0.006347 0.10547-0.007813 0.49963-0.01824 1.0178-0.028677 1.4629-0.060547 0.22254-0.01594 0.42727-0.037245 0.61523-0.072265 0.18795-0.03502 0.35257-0.05228 0.58203-0.22461 0.22946-0.17234 0.29713-0.32902 0.38867-0.50391s0.17458-0.37074 0.25977-0.58594c0.17039-0.43038 0.34614-0.93905 0.52148-1.4277 0.15306-0.42661 0.30363-0.80365 0.44141-1.1074 0.135 0.30496 0.28248 0.68364 0.43164 1.1113 0.17101 0.49038 0.34123 1.0015 0.50781 1.4336 0.08329 0.216 0.16393 0.41212 0.25391 0.58789 0.08999 0.17577 0.15684 0.33522 0.38476 0.50976 0.22792 0.17454 0.3944 0.19364 0.58203 0.23047 0.18764 0.03683 0.39089 0.058092 0.61328 0.076172 0.44477 0.03616 0.96151 0.051159 1.4609 0.074219 0.037888 0.001749 0.062418 0.005879 0.099609 0.007812 0.058162-0.047132 0.11039-0.091707 0.16797-0.13867 0.34491-0.28132 0.64455-0.54469 0.88086-0.77344-0.31952-0.0431-0.71144-0.075533-1.1484-0.095703-0.49943-0.02306-1.0162-0.038059-1.4609-0.074219-0.22239-0.01808-0.42564-0.039342-0.61328-0.076172-0.18763-0.03683-0.35411-0.055928-0.58203-0.23047-0.22792-0.17454-0.29478-0.334-0.38476-0.50977-0.08998-0.17577-0.17062-0.37189-0.25391-0.58789-0.16658-0.4321-0.3368-0.94321-0.50781-1.4336-0.14916-0.42769-0.29664-0.80637-0.43164-1.1113zm-6.8652 4.3086c-0.041154 0.06379-0.077666 0.13472-0.10547 0.22266-0.1199 0.37922 0.02238 0.65629 0.13477 0.8457 0.11239 0.18941 0.24715 0.3455 0.40234 0.50781 0.31037 0.32462 0.70471 0.65909 1.1055 0.99219 0.40072 0.3331 0.80728 0.66084 1.1094 0.92969 0.091892 0.081786 0.14708 0.14032 0.21484 0.20703 0.021079-0.081715 0.054316-0.1909 0.072266-0.26562 0.048269-0.20096 0.084078-0.37309 0.099609-0.49023 0.0039423-0.029742 0.0020936-0.042392 0.0019531-0.064453-0.011749-0.017202-0.016644-0.026407-0.035156-0.046875-0.07777-0.08599-0.20249-0.20542-0.35352-0.33984-0.30209-0.26885-0.70866-0.59659-1.1094-0.92969-0.40076-0.3331-0.7951-0.66757-1.1055-0.99219-0.15519-0.16231-0.28995-0.3184-0.40234-0.50781-0.010885-0.018345-0.018116-0.048385-0.029297-0.06836zm13.695 0.058594c-0.012431 0.021885-0.021119 0.054268-0.033203 0.074219-0.11406 0.18832-0.24963 0.3431-0.40625 0.50391-0.31321 0.32162-0.71158 0.65319-1.1152 0.98242-0.40367 0.32922-0.81277 0.65399-1.1172 0.91992-0.15221 0.13297-0.27694 0.2507-0.35547 0.33594-0.019013 0.020641-0.023027 0.031501-0.035156 0.048828-9.8e-5 0.020895-0.003395 0.031111 0 0.058594 0.01449 0.11728 0.04726 0.29272 0.09375 0.49414 0.017871 0.077437 0.051074 0.19046 0.072266 0.27539 0.069563-0.067698 0.1283-0.12876 0.22461-0.21289 0.30442-0.26593 0.71352-0.5907 1.1172-0.91992 0.40365-0.32923 0.80202-0.6608 1.1152-0.98242 0.15662-0.16081 0.29219-0.31559 0.40625-0.50391s0.25911-0.46144 0.14258-0.8418c-0.02799-0.091356-0.066821-0.1667-0.10938-0.23242zm-9.4727 3.3555c-0.02244 0.11412-0.038722 0.22232-0.068359 0.3457-0.1085 0.4518-0.2587 0.96905-0.39648 1.4707-0.12052 0.43884-0.21494 0.83608-0.27734 1.166 0.080976-0.04616 0.19225-0.12534 0.28125-0.17969 0.13672-0.49724 0.28509-1.0094 0.39258-1.457 0.054249-0.22585 0.098824-0.43539 0.125-0.63281 0.026174-0.19742 0.06072-0.36738-0.025391-0.64844-0.0086314-0.028172-0.021912-0.039397-0.03125-0.064453zm5.2188 0.037109c-0.007742 0.020926-0.018098 0.02967-0.025391 0.052734-0.08859 0.28021-0.05568 0.45078-0.03125 0.64844s0.066891 0.40644 0.11914 0.63281c0.10395 0.45034 0.25004 0.96628 0.38281 1.4668 0.084363 0.0525 0.19037 0.12882 0.26758 0.17383-0.05954-0.33032-0.1492-0.72682-0.26562-1.166-0.13334-0.503-0.28027-1.0219-0.38477-1.4746-0.027571-0.11945-0.041592-0.22359-0.0625-0.33398zm-2.6211 2.3359c-0.019451 0.006474-0.030014 0.007329-0.054687 0.019531-0.10238 0.05063-0.25078 0.13574-0.41992 0.24414-0.33825 0.21679-0.76213 0.51956-1.1895 0.81445-0.42728 0.29488-0.85638 0.5832-1.248 0.79102-0.19583 0.1039-0.37864 0.18914-0.58594 0.24219s-0.50014 0.10926-0.80859-0.12695c-0.18615-0.14256-0.26167-0.30655-0.30469-0.4668-0.0022902 0.013719-0.0075893 0.029354-0.0097656 0.042968-0.036156 0.22619-0.058685 0.43586-0.044922 0.6582 0.013762 0.22234 0.050922 0.5294 0.35938 0.76562 0.30845 0.23621 0.60129 0.18 0.80859 0.12695s0.39011-0.13829 0.58594-0.24219c0.39167-0.20782 0.82077-0.49614 1.248-0.79102 0.42732-0.29489 0.8512-0.59766 1.1895-0.81445 0.16914-0.1084 0.31754-0.19351 0.41992-0.24414 0.024673-0.012202 0.035236-0.013057 0.054687-0.019531 0.019429 0.006616 0.030123 0.007083 0.054688 0.019531 0.10193 0.05162 0.2498 0.13803 0.41797 0.24805 0.33636 0.22004 0.75888 0.52718 1.1836 0.82617 0.42469 0.29899 0.84843 0.59115 1.2383 0.80273 0.19491 0.10579 0.37912 0.19496 0.58594 0.25s0.50002 0.11214 0.81055-0.12109 0.3495-0.53952 0.36523-0.76172c0.01573-0.22219-0.006905-0.43167-0.041015-0.6582-0.002964-0.019657-0.008524-0.042619-0.011719-0.0625-0.042182 0.1658-0.11695 0.33555-0.3125 0.48242-0.31053 0.23323-0.60373 0.17613-0.81055 0.12109s-0.39103-0.14421-0.58594-0.25c-0.38985-0.21158-0.81359-0.50374-1.2383-0.80273-0.42471-0.29899-0.84723-0.60613-1.1836-0.82617-0.16817-0.11002-0.31604-0.19643-0.41797-0.24805-0.024565-0.012448-0.035259-0.012915-0.054688-0.019531z" color="#000000" color-rendering="auto" dominant-baseline="auto" image-rendering="auto" opacity=".3" solid-color="#000000" style="font-feature-settings:normal;font-variant-alternates:normal;font-variant-caps:normal;font-variant-ligatures:normal;font-variant-numeric:normal;font-variant-position:normal;isolation:auto;mix-blend-mode:normal;shape-padding:0;text-decoration-color:#000000;text-decoration-line:none;text-decoration-style:solid;text-indent:0;text-orientation:mixed;text-transform:none;white-space:normal"/>
  <path id="base" transform="translate(4,4)" d="m8.0249 0.99942c-0.38255-0.0018436-0.58872 0.22541-0.72656 0.39552s-0.23796 0.35236-0.33789 0.55658c-0.19985 0.40844-0.38283 0.90396-0.56249 1.4047-0.17966 0.50075-0.35425 1.0034-0.50585 1.3864-0.075804 0.19147-0.14685 0.35494-0.20117 0.45872-0.054316 0.10378-0.12287 0.1449-0.019531 0.067279s0.043168-0.022819-0.068359-0.0020387c-0.11153 0.02078-0.28245 0.040867-0.48046 0.055047-0.39602 0.028359-0.90797 0.040439-1.4199 0.059124-0.51194 0.018686-1.0206 0.042089-1.4551 0.11009-0.21725 0.034002-0.41496 0.074617-0.61328 0.15699-0.19832 0.082368-0.46799 0.21406-0.58788 0.59328-0.1199 0.37922 0.022374 0.65464 0.13476 0.84405 0.11239 0.18941 0.24715 0.34534 0.40234 0.50765 0.31037 0.32462 0.70474 0.65978 1.1055 0.99288 0.40072 0.3331 0.80731 0.66083 1.1094 0.92968 0.15103 0.13442 0.27574 0.25448 0.35351 0.34047 0.077769 0.085994 0.095422 0.16735 0.05664 0.040775-0.038782-0.12658-0.00791-0.047824-0.023437 0.069318-0.015531 0.11714-0.051339 0.29038-0.099608 0.49134-0.09654 0.40192-0.24359 0.91516-0.38476 1.4292-0.14117 0.51401-0.27729 1.0257-0.34961 1.4781-0.036156 0.22619-0.058684 0.43618-0.044921 0.65852 0.013762 0.22234 0.050917 0.53036 0.35937 0.76658 0.30845 0.23621 0.60129 0.17945 0.80859 0.1264s0.3901-0.13871 0.58593-0.24261c0.39167-0.20782 0.82072-0.49616 1.248-0.79104 0.42732-0.29489 0.85115-0.59668 1.1894-0.81347 0.16914-0.1084 0.31754-0.19402 0.41992-0.24465s0.182-0.04424 0.054687-0.04485c-0.12731-6.14e-4 -0.047241-0.0068 0.054687 0.04485 0.10193 0.05162 0.24979 0.13871 0.41796 0.24873 0.33636 0.22004 0.75889 0.52671 1.1836 0.8257 0.42469 0.29899 0.84845 0.59169 1.2383 0.80327 0.19491 0.10579 0.37911 0.19369 0.58593 0.24873s0.50001 0.11294 0.81054-0.12029 0.3495-0.5403 0.36523-0.7625c0.01573-0.22219-0.0069-0.43199-0.04101-0.65852-0.06831-0.45306-0.19931-0.96683-0.33593-1.4822-0.13662-0.51535-0.28006-1.0304-0.37304-1.4333-0.04649-0.20142-0.07926-0.3761-0.09375-0.49338-0.01449-0.11729 0.01646-0.19348-0.02344-0.067279s-0.01993 0.044465 0.05859-0.040775c0.07853-0.08524 0.20326-0.20343 0.35547-0.3364 0.30442-0.26593 0.71353-0.59026 1.1172-0.91948 0.40365-0.32923 0.80199-0.66107 1.1152-0.98269 0.15662-0.16081 0.29218-0.31526 0.40624-0.50358s0.25911-0.46165 0.14258-0.84201c-0.11654-0.38036-0.3864-0.51512-0.58398-0.5994-0.19758-0.084276-0.39438-0.12701-0.61132-0.1631-0.43389-0.072189-0.94136-0.10075-1.4531-0.12436s-1.0242-0.039182-1.4199-0.071357c-0.19788-0.016087-0.36717-0.03727-0.47851-0.059124s-0.17296-0.078609-0.07031 0 0.03387 0.03702-0.01953-0.067279c-0.0534-0.1043-0.12316-0.26856-0.19727-0.46076-0.14821-0.38439-0.31696-0.89001-0.49218-1.3925-0.17522-0.50246-0.35455-0.99844-0.55078-1.4088-0.098114-0.20518-0.1957-0.38923-0.33203-0.56066s-0.3401-0.39979-0.72265-0.40164zm-0.00781 1.7105c0.135 0.30496 0.28248 0.68341 0.43164 1.1111 0.17101 0.49038 0.34123 1.0012 0.50781 1.4333 0.083287 0.216 0.16392 0.41139 0.2539 0.58716 0.089988 0.17577 0.15684 0.33515 0.38476 0.50969s0.39439 0.19355 0.58202 0.23038c0.18764 0.03683 0.39089 0.059393 0.61328 0.077473 0.44477 0.03616 0.96147 0.050344 1.4609 0.073396 0.437 0.020169 0.82888 0.05272 1.1484 0.095822-0.23631 0.22875-0.53594 0.49137-0.88085 0.77269-0.39394 0.32131-0.80825 0.64916-1.1504 0.94803-0.17106 0.14943-0.32469 0.2906-0.45703 0.43426-0.13234 0.14365-0.25515 0.25802-0.34375 0.53823-0.08859 0.28021-0.05568 0.45067-0.03125 0.64833s0.06689 0.40565 0.11914 0.63202c0.1045 0.45273 0.25142 0.9731 0.38476 1.4761 0.11643 0.43919 0.20608 0.83588 0.26562 1.1662-0.28118-0.1639-0.61242-0.37907-0.9746-0.63406-0.41448-0.2918-0.84072-0.60083-1.2187-0.84813-0.18901-0.12365-0.36533-0.2331-0.5371-0.32009-0.17178-0.08699-0.31497-0.17397-0.59765-0.17533-0.28268-0.0014-0.42706 0.08592-0.5996 0.17126-0.17254 0.08533-0.34896 0.19011-0.53906 0.31193-0.38019 0.24364-0.80755 0.55014-1.2246 0.83793-0.36481 0.25175-0.69965 0.46471-0.98241 0.6259 0.062407-0.32993 0.15682-0.72736 0.27734-1.1662 0.13778-0.50165 0.28798-1.0182 0.39648-1.47 0.054249-0.22585 0.098824-0.4346 0.125-0.63202 0.026174-0.19742 0.060721-0.36727-0.02539-0.64833-0.086111-0.28105-0.20878-0.39739-0.33984-0.54231s-0.28339-0.28726-0.45312-0.43833c-0.33947-0.30215-0.74953-0.63313-1.1406-0.95822-0.34205-0.28433-0.63881-0.54996-0.87304-0.78085 0.31973-0.039897 0.71003-0.069698 1.1465-0.085628 0.49963-0.018236 1.0178-0.029292 1.4629-0.061163 0.22254-0.015936 0.42727-0.036337 0.61523-0.071357 0.18795-0.03502 0.35257-0.051925 0.58203-0.22426 0.22946-0.17234 0.29713-0.33072 0.38867-0.50561s0.17457-0.36993 0.25976-0.58513c0.17039-0.43038 0.34614-0.93842 0.52148-1.4271 0.15306-0.42661 0.30362-0.80333 0.4414-1.1071z" color="#000000" color-rendering="auto" dominant-baseline="auto" fill="#fff" image-rendering="auto" solid-color="#000000" style="font-feature-settings:normal;font-variant-alternates:normal;font-variant-caps:normal;font-variant-ligatures:normal;font-variant-numeric:normal;font-variant-position:normal;isolation:auto;mix-blend-mode:normal;shape-padding:0;text-decoration-color:#000000;text-decoration-line:none;text-decoration-style:solid;text-indent:0;text-orientation:mixed;text-transform:none;white-space:normal"/>
 </g>
</svg>
