<?xml version="1.0" encoding="UTF-8"?>
<!-- Created with Inkscape (http://www.inkscape.org/) -->
<svg id="svg2" width="22" height="22" version="1.1" xmlns="http://www.w3.org/2000/svg" xmlns:cc="http://creativecommons.org/ns#" xmlns:dc="http://purl.org/dc/elements/1.1/" xmlns:rdf="http://www.w3.org/1999/02/22-rdf-syntax-ns#" xmlns:xlink="http://www.w3.org/1999/xlink">
 <defs id="defs4">
  <linearGradient id="linearGradient3335" x1="11.375" x2="11.375" y1="22" y2="-9.8173" gradientUnits="userSpaceOnUse">
   <stop id="stop3330" offset="0"/>
   <stop id="stop3333" stop-opacity="0" offset="1"/>
  </linearGradient>
  <linearGradient id="linearGradient3181" x1="-3.0608" x2="-3.0608" y1="27.258" y2="7.2537" gradientTransform="translate(11.119 -6.2582)" gradientUnits="userSpaceOnUse">
   <stop id="stop4061" stop-color="#969696" offset="0"/>
   <stop id="stop4063" stop-color="#cdcdcd" offset="1"/>
  </linearGradient>
  <filter id="filter3194" x="-.18" y="-.18" width="1.36" height="1.36" color-interpolation-filters="sRGB">
   <feGaussianBlur id="feGaussianBlur3196" stdDeviation="1.2"/>
  </filter>
  <clipPath id="clipPath2849">
   <rect id="rect2851" x="1" y="1" width="20" height="20" rx="2" ry="2" fill="#fff" fill-rule="evenodd"/>
  </clipPath>
  <linearGradient id="linearGradient3744" x1="14" x2="14" y1="4" y2="8" gradientUnits="userSpaceOnUse">
   <stop id="stop3740" stop-color="#5dbcd3" offset="0"/>
   <stop id="stop3742" stop-color="#9ae8fb" offset="1"/>
  </linearGradient>
  <linearGradient id="linearGradient3754" x1="13" x2="13" y1="11" y2="5" gradientUnits="userSpaceOnUse">
   <stop id="stop4166" stop-color="#fff" offset="0"/>
   <stop id="stop4168" stop-color="#fff" stop-opacity="0" offset="1"/>
  </linearGradient>
  <linearGradient id="linearGradient3827" x1="3.0035" x2="7.023" y1="11.058" y2="11.058" gradientUnits="userSpaceOnUse">
   <stop id="stop4122" stop-color="#fff" offset="0"/>
   <stop id="stop4124" stop-color="#8c8c8c" offset="1"/>
  </linearGradient>
  <linearGradient id="linearGradient3868" x1="4" x2="6.3979" y1="14" y2="14" gradientUnits="userSpaceOnUse">
   <stop id="stop4122-6" stop-color="#fff" offset="0"/>
   <stop id="stop4124-3" stop-color="#989898" offset="1"/>
  </linearGradient>
  <linearGradient id="linearGradient3845" x1="11" x2="21" y1="19.5" y2="19.5" gradientUnits="userSpaceOnUse" spreadMethod="reflect">
   <stop id="stop3833" stop-color="#fff" offset="0"/>
   <stop id="stop3821" stop-color="#fff" stop-opacity=".49804" offset=".75"/>
   <stop id="stop3835" stop-color="#fff" stop-opacity="0" offset="1"/>
  </linearGradient>
  <linearGradient id="linearGradient3124" x1="10" x2="10" y1="1" y2="16" gradientUnits="userSpaceOnUse">
   <stop id="stop3825" stop-color="#fff" offset="0"/>
   <stop id="stop3829" stop-color="#fff" stop-opacity="0" offset="1"/>
  </linearGradient>
 </defs>
 <metadata id="metadata7">
  <rdf:RDF>
   <cc:Work rdf:about="">
    <dc:format>image/svg+xml</dc:format>
    <dc:type rdf:resource="http://purl.org/dc/dcmitype/StillImage"/>
   </cc:Work>
  </rdf:RDF>
 </metadata>
 <g id="layer1">
  <g id="g3337">
   <rect id="rect3371" x=".5" y=".5" width="21" height="21.5" rx="2.5" ry="2.5" fill="url(#linearGradient3335)" opacity=".3"/>
   <rect id="rect2553" x="1" y="2" width="20" height="20" rx="2.381" ry="2.3256" opacity=".5"/>
  </g>
  <rect id="rect3173" x="1" y="1" width="20" height="20" rx="2" ry="2" fill="url(#linearGradient3181)" fill-rule="evenodd"/>
  <path id="rect3050" d="m3 1c-1.108 0-2 0.892-2 2v16c0 1.108 0.892 2 2 2h16c1.108 0 2-0.892 2-2v-16c0-1.108-0.892-2-2-2h-16zm0 1.0312h16c0.5497 0 0.96875 0.41905 0.96875 0.96875v16c0 0.5497-0.41905 0.96875-0.96875 0.96875h-16c-0.5497 0-0.96875-0.41905-0.96875-0.96875v-16c0-0.5497 0.41905-0.96875 0.96875-0.96875z" fill="url(#linearGradient3124)" fill-rule="evenodd" opacity=".5"/>
  <path id="path3235" d="m3 21c-1.108 0-2-0.892-2-2v-1c0 1.108 0.892 2 2 2h16c1.108 0 2-0.892 2-2v1c0 1.108-0.892 2-2 2h-16z" fill="url(#linearGradient3845)" fill-rule="evenodd" opacity=".3"/>
 </g>
 <g id="layer2">
  <rect id="rect2410" x="3" y="3" width="16" height="16" rx="2" ry="2" clip-path="url(#clipPath2849)" fill="#fff" filter="url(#filter3194)" opacity=".15"/>
 </g>
 <g id="layer3">
  <path id="rect3854" transform="translate(0,-2)" d="m5.3125 7.6562c-1.4861 0-2.6875 1.2136-2.6875 2.6875 0 1.3657 1.0408 2.4671 2.375 2.625v6.0312c0 0.554 0.43922 1 0.96875 1h0.0625c0.52953 0 0.96875-0.446 0.96875-1v-6.625c0.60357-0.48939 1-1.1977 1-2.0312 0-1.4739-1.2014-2.6875-2.6875-2.6875z" opacity=".2"/>
  <rect id="rect3746" transform="translate(0,-2)" x="9" y="5" width="10" height="6" rx="2" ry="2" fill="url(#linearGradient3754)" opacity=".4"/>
  <rect id="rect3718" x="10.25" y="4.25" width="7.5" height="3.5" rx="1" ry="1" fill="url(#linearGradient3744)" stroke="#3197b1" stroke-width=".5"/>
  <rect id="rect3720" x="10" y="10" width="2" height="2" fill="#4d4d4d"/>
  <rect id="rect3722" x="13" y="10" width="2" height="2" fill="#4d4d4d"/>
  <rect id="rect3724" x="16" y="10" width="2" height="2" fill="#4d4d4d"/>
  <rect id="rect3726" x="10" y="13" width="2" height="2" fill="#4d4d4d"/>
  <rect id="rect3728" x="13" y="13" width="2" height="2" fill="#4d4d4d"/>
  <rect id="rect3730" x="16" y="13" width="2" height="2" fill="#4d4d4d"/>
  <rect id="rect3732" x="10" y="16" width="2" height="2" fill="#4d4d4d"/>
  <rect id="rect3734" x="13" y="16" width="2" height="2" fill="#4d4d4d"/>
  <rect id="rect3736" x="16" y="16" width="2" height="2" fill="#4d4d4d"/>
  <rect id="rect3756" x="10" y="10" width="2" height="1" fill="#7c7c7c"/>
  <rect id="rect3762" x="13" y="10" width="2" height="1" fill="#7c7c7c"/>
  <rect id="rect3764" x="16" y="10" width="2" height="1" fill="#7c7c7c"/>
  <rect id="rect3766" x="10" y="13" width="2" height="1" fill="#7c7c7c"/>
  <rect id="rect3768" x="13" y="13" width="2" height="1" fill="#7c7c7c"/>
  <rect id="rect3770" x="16" y="13" width="2" height="1" fill="#7c7c7c"/>
  <rect id="rect3772" x="10" y="16" width="2" height="1" fill="#7c7c7c"/>
  <rect id="rect3774" x="13" y="16" width="2" height="1" fill="#7c7c7c"/>
  <rect id="rect3776" x="16" y="16" width="2" height="1" fill="#7c7c7c"/>
  <path id="path3714" transform="matrix(0 .99516 -1.0062 0 16.127 3.011)" d="m7.023 11.058c0 1.0977-0.89978 1.9876-2.0097 1.9876-1.1099 0-2.0097-0.88989-2.0097-1.9876 0-1.0977 0.89978-1.9876 2.0097-1.9876 1.1099 0 2.0097 0.88989 2.0097 1.9876z" fill="url(#linearGradient3827)"/>
  <rect id="rect3716" transform="translate(0,-2)" x="4" y="9" width="2" height="10" rx=".95583" ry="1" fill="url(#linearGradient3868)"/>
 </g>
</svg>
