<?xml version="1.0" encoding="UTF-8"?>
<svg width="24" height="24" version="1.1" xmlns="http://www.w3.org/2000/svg" xmlns:cc="http://creativecommons.org/ns#" xmlns:dc="http://purl.org/dc/elements/1.1/" xmlns:rdf="http://www.w3.org/1999/02/22-rdf-syntax-ns#" xmlns:xlink="http://www.w3.org/1999/xlink">
 <defs id="defs4">
  <linearGradient id="linearGradient3335" x1="11.375" x2="11.375" y1="22" y2="-9.8173" gradientUnits="userSpaceOnUse">
   <stop id="stop3330" offset="0"/>
   <stop id="stop3333" stop-opacity="0" offset="1"/>
  </linearGradient>
  <linearGradient id="linearGradient3181" x1="-3.0608" x2="-3.0608" y1="27.258" y2="7.2537" gradientTransform="translate(12.119 -27.258)" gradientUnits="userSpaceOnUse">
   <stop id="stop922" stop-color="#555" offset="0"/>
   <stop id="stop920" stop-color="#222" offset="1"/>
  </linearGradient>
  <filter id="filter3194" x="-.18" y="-.18" width="1.36" height="1.36" color-interpolation-filters="sRGB">
   <feGaussianBlur id="feGaussianBlur3196" stdDeviation="1.2"/>
  </filter>
  <clipPath id="clipPath2849">
   <rect id="rect2851" x="1" y="1" width="20" height="20" rx="2" ry="2" fill="#fff" fill-rule="evenodd"/>
  </clipPath>
  <linearGradient id="linearGradient3845" x1="11" x2="21" y1="19.5" y2="19.5" gradientTransform="translate(1,-1)" gradientUnits="userSpaceOnUse" spreadMethod="reflect">
   <stop id="stop3833" stop-color="#fff" offset="0"/>
   <stop id="stop3821" stop-color="#fff" stop-opacity=".49804" offset=".75"/>
   <stop id="stop3835" stop-color="#fff" stop-opacity="0" offset="1"/>
  </linearGradient>
  <linearGradient id="linearGradient3961" x1="10" x2="10" y1="1" y2="16" gradientTransform="translate(1,-1)" gradientUnits="userSpaceOnUse">
   <stop id="stop3825" stop-color="#fff" offset="0"/>
   <stop id="stop3829" stop-color="#fff" stop-opacity="0" offset="1"/>
  </linearGradient>
  <linearGradient id="a" x1="8" x2="8" y1="22.998" y2="69" gradientUnits="userSpaceOnUse">
   <stop id="stop49" stop-color="#ffd062" offset="0"/>
   <stop id="stop51" stop-color="#f18304" offset="1"/>
  </linearGradient>
  <clipPath id="clipPath891">
   <path id="path893" d="m46.573 23.012c-3.1032 0.10955-6.2296 1.0624-8.8438 3.1406a3.8854 3.8854 0 0 0-0.0039 0c-1.744 1.3864-3.1587 3.2152-3.9844 5.3945-0.83069 2.1924-1.0147 4.6258-0.375 6.9883a3.8854 3.8854 0 0 0 0.0039 2e-3c0.48612 1.7896 1.3875 3.3411 2.4922 4.6309a3.8854 3.8854 0 0 0 2e-3 0.0039c1.0999 1.2809 2.3791 2.2823 3.6934 3.0781 2.6159 1.5876 5.2975 2.3564 7.6387 3.0391 2.3339 0.68045 4.3804 1.2975 5.9434 2.1758 1.5088 0.84779 2.6048 2.0332 2.9648 3.0703 0.2429 0.70344 0.25467 1.6114-2e-3 2.4277-0.26113 0.83098-0.82157 1.6835-1.5742 2.3516-1.5119 1.342-4.0072 2.0562-6.4824 1.8887-3.5307-0.239-7.0767-2.1855-9.127-4.9824a3.8855 3.8855 0 0 0-6.2656 4.5957c3.4794 4.7466 8.9722 7.7396 14.867 8.1387 4.1983 0.28427 8.7076-0.76195 12.164-3.8301 1.7318-1.5371 3.1026-3.5169 3.8301-5.832 0.73225-2.3301 0.76934-4.8784-0.06445-7.293a3.8854 3.8854 0 0 0 0-2e-3c-1.1989-3.4639-3.8222-5.7986-6.5059-7.3066-2.6309-1.4782-5.2759-2.1952-7.5742-2.8652-2.291-0.66793-4.2874-1.314-5.7812-2.2207a3.8854 3.8854 0 0 0-0.0039-2e-3c-0.741-0.451-1.367-0.964-1.824-1.496-0.452-0.528-0.754-1.096-0.893-1.606v-2e-3c-0.17547-0.64998-0.13519-1.4732 0.14063-2.2012 0.28108-0.74186 0.83486-1.4942 1.5547-2.0664 1.4419-1.1462 3.7795-1.6786 6.0156-1.3672 2.6327 0.3668 5.2055 1.8198 6.8457 3.8457a3.8854 3.8854 0 1 0 6.0371-4.8887c-2.9359-3.6236-7.1823-6.008-11.814-6.6543-1.0085-0.1403-2.0392-0.195-3.0742-0.1582z" opacity=".4"/>
  </clipPath>
  <filter id="w">
   <feGaussianBlur id="feGaussianBlur46" stdDeviation="0.68880677"/>
  </filter>
 </defs>
 <metadata id="metadata7">
  <rdf:RDF>
   <cc:Work rdf:about="">
    <dc:format>image/svg+xml</dc:format>
    <dc:type rdf:resource="http://purl.org/dc/dcmitype/StillImage"/>
    <dc:title/>
   </cc:Work>
  </rdf:RDF>
 </metadata>
 <g id="layer1" transform="translate(0,2)">
  <g id="g3337" transform="translate(1,-1)">
   <rect id="rect3371" x=".5" y=".5" width="21" height="21.5" rx="2.5" ry="2.5" fill="url(#linearGradient3335)" opacity=".3"/>
   <rect id="rect2553" x="1" y="2" width="20" height="20" rx="2.381" ry="2.3256" opacity=".5"/>
  </g>
  <rect id="rect3173" transform="scale(1,-1)" x="2" y="-20" width="20" height="20" rx="2" ry="2" fill="url(#linearGradient3181)" fill-rule="evenodd"/>
  <path id="path3018" d="m-26-1.8e-7c-1.108 0-2 0.892-2 2v1c0-1.108 0.892-2 2-2h16c1.108 0 2 0.892 2 2v-1c0-1.108-0.892-2-2-2z" fill="#fff" fill-rule="evenodd" opacity=".25"/>
  <path id="path3020" d="m-26 20c-1.108 0-2-0.892-2-2v-1c0 1.108 0.892 2 2 2h16c1.108 0 2-0.892 2-2v1c0 1.108-0.892 2-2 2z" fill-rule="evenodd" opacity=".15"/>
  <path id="rect3050" d="m4 0c-1.108 0-2 0.892-2 2v16c0 1.108 0.892 2 2 2h16c1.108 0 2-0.892 2-2v-16c0-1.108-0.892-2-2-2zm0 1.0312h16c0.5497 0 0.96875 0.41905 0.96875 0.96875v16c0 0.5497-0.41905 0.96875-0.96875 0.96875h-16c-0.5497 0-0.96875-0.41905-0.96875-0.96875v-16c0-0.5497 0.41905-0.96875 0.96875-0.96875z" fill="url(#linearGradient3961)" fill-rule="evenodd" opacity=".3"/>
  <path id="path3235" d="m4 20c-1.108 0-2-0.892-2-2v-1c0 1.108 0.892 2 2 2h16c1.108 0 2-0.892 2-2v1c0 1.108-0.892 2-2 2z" fill="url(#linearGradient3845)" fill-rule="evenodd" opacity=".2"/>
 </g>
 <g id="layer2" transform="translate(0,2)">
  <rect id="rect2410" transform="translate(1,-1)" x="3" y="3" width="16" height="16" rx="2" ry="2" clip-path="url(#clipPath2849)" fill="#fff" filter="url(#filter3194)" opacity=".15"/>
  <g id="g887" transform="matrix(.23064 0 0 .23064 .92954 -.66686)" stroke-width="4.3358">
   <path id="base-3" d="m46.573 23.012c-3.1032 0.10955-6.2296 1.0624-8.8438 3.1406a3.8854 3.8854 0 0 0-0.0039 0c-1.744 1.3864-3.1587 3.2152-3.9844 5.3945-0.83069 2.1924-1.0147 4.6258-0.375 6.9883a3.8854 3.8854 0 0 0 0.0039 2e-3c0.48612 1.7896 1.3875 3.3411 2.4922 4.6309a3.8854 3.8854 0 0 0 2e-3 0.0039c1.0999 1.2809 2.3791 2.2823 3.6934 3.0781 2.6159 1.5876 5.2975 2.3564 7.6387 3.0391 2.3339 0.68045 4.3804 1.2975 5.9434 2.1758 1.5088 0.84779 2.6048 2.0332 2.9648 3.0703 0.2429 0.70344 0.25467 1.6114-2e-3 2.4277-0.26113 0.83098-0.82157 1.6835-1.5742 2.3516-1.5119 1.342-4.0072 2.0562-6.4824 1.8887-3.5307-0.239-7.0767-2.1855-9.127-4.9824a3.8855 3.8855 0 0 0-6.2656 4.5957c3.4794 4.7466 8.9722 7.7396 14.867 8.1387 4.1983 0.28427 8.7076-0.76195 12.164-3.8301 1.7318-1.5371 3.1026-3.5169 3.8301-5.832 0.73225-2.3301 0.76934-4.8784-0.06445-7.293a3.8854 3.8854 0 0 0 0-2e-3c-1.1989-3.4639-3.8222-5.7986-6.5059-7.3066-2.6309-1.4782-5.2759-2.1952-7.5742-2.8652-2.291-0.66793-4.2874-1.314-5.7812-2.2207a3.8854 3.8854 0 0 0-0.0039-2e-3c-0.741-0.451-1.367-0.964-1.824-1.496-0.452-0.528-0.754-1.096-0.893-1.606v-2e-3c-0.17547-0.64998-0.13519-1.4732 0.14063-2.2012 0.28108-0.74186 0.83486-1.4942 1.5547-2.0664 1.4419-1.1462 3.7795-1.6786 6.0156-1.3672 2.6327 0.3668 5.2055 1.8198 6.8457 3.8457a3.8854 3.8854 0 1 0 6.0371-4.8887c-2.9359-3.6236-7.1823-6.008-11.814-6.6543-1.0085-0.1403-2.0392-0.195-3.0742-0.1582z" fill="url(#a)"/>
   <path id="path4216" d="m46.572 23.01v2e-3c-3.1032 0.10955-6.2296 1.0624-8.8438 3.1406a3.8854 3.8854 0 0 0-0.0039 0c-1.744 1.3864-3.1587 3.2152-3.9844 5.3945-0.83069 2.1924-1.0147 4.6258-0.375 6.9883a3.8854 3.8854 0 0 0 0.0039 2e-3c0.48612 1.7896 1.3875 3.3411 2.4922 4.6309a3.8854 3.8854 0 0 0 2e-3 0.0039c1.0999 1.2809 2.3791 2.2823 3.6934 3.0781 2.6159 1.5876 5.2975 2.3564 7.6387 3.0391 2.3339 0.68045 4.3804 1.2975 5.9434 2.1758 1.5088 0.84779 2.6048 2.0332 2.9648 3.0703 0.2429 0.70344 0.25472 1.6114-2e-3 2.4277-0.26113 0.83098-0.82159 1.6835-1.5742 2.3516-1.5119 1.342-4.0072 2.0562-6.4824 1.8887-3.5307-0.239-7.0767-2.1855-9.127-4.9824a3.8855 3.8855 0 0 0-6.2656 4.5957c3.4794 4.7466 8.9724 7.7396 14.867 8.1387 0.02197 0.0015 0.04441 5.38e-4 0.06641 2e-3 -5.5955-0.37941-10.818-3.2236-14.119-7.7207v-2e-3c-0.86895-1.2197-0.56506-3.1162 0.64258-4.002 1.2077-0.88582 3.1075-0.6055 4.0098 0.58984h2e-3c2.2455 3.0558 6.0114 5.1186 9.8574 5.3789 2.7114 0.18348 5.4242-0.55098 7.2129-2.1387 0.88416-0.78486 1.5401-1.7641 1.8652-2.7988 0.32294-1.0271 0.31848-2.1097-0.0078-3.0547a1.0001 1.0001 0 0 1 0-2e-3c-0.48884-1.4081-1.7444-2.6718-3.42-3.6133-1.7136-0.96293-3.8133-1.5817-6.1523-2.2637-2.3445-0.68367-4.9212-1.4309-7.4004-2.9355-1.2411-0.75148-2.4318-1.6871-3.4492-2.8711-9.64e-4 -0.0011-0.0029-8.31e-4 -0.0039-2e-3a1.0001 1.0001 0 0 0-2e-3 -0.0039c-1.0218-1.193-1.8446-2.6133-2.2871-4.2422a1.0001 1.0001 0 0 0-0.0039-0.01172c-0.57862-2.1455-0.4143-4.3555 0.3457-6.3613 0.7556-1.9943 2.0522-3.6744 3.6621-4.957a1.0001 1.0001 0 0 0 0.01367-0.0098c2.4267-1.9292 5.3333-2.8207 8.2559-2.9238a1.0001 1.0001 0 0 0 0.01563-2e-3c0.97165-0.03374 1.9397 0.01668 2.8867 0.14844 4.3811 0.61134 8.3998 2.8691 11.174 6.293a1.0001 1.0001 0 0 0 0.01758 0.01953c0.99637 1.1681 0.81234 3.149-0.38086 4.1152-1.1932 0.96622-3.1681 0.7331-4.1035-0.48438a1.0001 1.0001 0 0 0-0.01563-0.01953c-1.8148-2.2415-4.5824-3.8026-7.4843-4.2069-0.32624-0.04543-0.65382-0.07291-0.98047-0.08789 0.28074 0.01301 0.56228 0.0392 0.8418 0.07813 2.6327 0.3668 5.2055 1.8198 6.8457 3.8457a3.8854 3.8854 0 1 0 6.0371-4.8887c-2.9359-3.6236-7.1828-6.008-11.814-6.6543-1.0085-0.1403-2.0392-0.195-3.0742-0.1582zm1.1641 7.7773c-2.1611-0.09909-4.2869 0.46336-5.7949 1.6621-0.85852 0.68243-1.5132 1.5568-1.8691 2.4961-0.32829 0.86649-0.38849 1.7809-0.20312 2.623a1.0001 1.0001 0 0 1-2e-3 -0.06641l0.03516 0.25781c-0.01457-0.05396-0.01691-0.11137-0.0293-0.16602a1.0001 1.0001 0 0 0 0.0293 0.17188c0.18614 0.6828 0.5584 1.3622 1.0977 1.9922a1.0001 1.0001 0 0 1 2e-3 2e-3c0.54407 0.63336 1.2475 1.2032 2.0625 1.6992a1.0001 1.0001 0 0 0 0.0059 2e-3c1.6515 1.0024 3.712 1.6534 6.0195 2.3262 2.3122 0.67405 4.8615 1.3717 7.3633 2.7773 2.542 1.4284 4.9539 3.5926 6.0508 6.7617 0.75995 2.2008 0.72927 4.5276 0.05664 6.668-0.66868 2.1279-1.9321 3.9548-3.541 5.3828-2.4129 2.1419-5.3933 3.2374-8.4141 3.5371 3.2349-0.30374 6.4589-1.4641 9.0781-3.7891 1.7318-1.5371 3.1026-3.5169 3.8301-5.832 0.73216-2.3302 0.76925-4.8785-0.06454-7.2931a3.8854 3.8854 0 0 0 0-2e-3c-1.1989-3.4639-3.8222-5.7986-6.5059-7.3066-2.6309-1.4782-5.2759-2.1952-7.5742-2.8652-2.291-0.66793-4.2874-1.314-5.7812-2.2207a3.8854 3.8854 0 0 0-0.0039-2e-3c-0.741-0.451-1.3672-0.96409-1.8242-1.4961-0.452-0.528-0.75358-1.0955-0.89258-1.6055v-0.001859c-0.17547-0.64998-0.1352-1.4732 0.14062-2.2012 0.28108-0.74186 0.83485-1.4942 1.5547-2.0664 1.2617-1.0029 3.2087-1.5364 5.1738-1.4453z" clip-path="url(#clipPath891)" filter="url(#w)" opacity=".4"/>
   <path id="path61" d="m46.555 21.51a0.50005 0.50005 0 0 0-0.08398 0.01172c-3.1338 0.12564-6.2996 1.0948-8.9668 3.1836a0.50005 0.50005 0 0 0-0.08984 0.05664c-1.8086 1.4377-3.2807 3.3378-4.1406 5.6074-0.86546 2.2842-1.0593 4.8274-0.39063 7.2969a0.50005 0.50005 0 0 0 0.05469 0.125c0.30119 1.0594 0.75148 2.0261 1.2871 2.916-0.34657-0.68065-0.64606-1.399-0.85547-2.1699a3.8854 3.8854 0 0 1-0.0039-2e-3c-0.6397-2.3625-0.45569-4.7959 0.375-6.9883 0.8257-2.1793 2.2404-4.0081 3.9844-5.3945a3.8854 3.8854 0 0 1 0.0039 0c2.6142-2.0782 5.7406-3.0311 8.8438-3.1406v-2e-3c1.035-0.0368 2.0657 0.0179 3.0742 0.1582 4.6317 0.6463 8.8786 3.0307 11.814 6.6543a3.8854 3.8854 0 0 1 0.64258 3.9863c0.41775-0.6143 0.69932-1.3223 0.76758-2.0625 0.107-1.1604-0.27207-2.3568-1.0273-3.2441-3.0166-3.7198-7.3727-6.1667-12.127-6.8301-1.037-0.14426-2.0977-0.19995-3.1621-0.16211zm-4.9863 11.773c-0.23602 0.32865-0.43058 0.67261-0.56055 1.0156-0.27582 0.728-0.31609 1.5512-0.14062 2.2012v2e-3c0.139 0.51 0.44058 1.0775 0.89258 1.6055 0.457 0.532 1.0832 1.0451 1.8242 1.4961a3.8854 3.8854 0 0 1 0.0039 2e-3c1.4938 0.9067 3.4902 1.5528 5.7812 2.2207 2.2983 0.67 4.9433 1.387 7.5742 2.8652 2.6837 1.508 5.307 3.8427 6.5059 7.3066a3.8854 3.8854 0 0 0 0 2e-3c0.83379 2.4146 0.7967 4.9629 0.06445 7.293-0.23366 0.74357-0.53946 1.4483-0.89648 2.1191 0.5685-0.9162 1.039-1.9056 1.373-2.9688 0.75386-2.3989 0.79512-5.0261-0.04687-7.5234a0.50005 0.50005 0 0 0-0.02148-0.08594c-1.2499-3.6113-3.9779-6.0303-6.7324-7.5781-2.6955-1.5145-5.3883-2.2422-7.6797-2.9102-2.2828-0.66553-4.2472-1.3091-5.6621-2.168a0.50005 0.50005 0 0 0-0.01172-0.0078c-0.69932-0.42689-1.2839-0.90976-1.6953-1.3887-0.40719-0.47608-0.67549-0.98531-0.79102-1.4082v-2e-3a0.50005 0.50005 0 0 0 0-2e-3c-0.14276-0.52883-0.11033-1.2663 0.12695-1.8926 0.02415-0.06374 0.06267-0.12886 0.0918-0.19336zm-5.9668 19.898c-0.8518 0.04464-1.6903 0.33673-2.3789 0.8418-0.91811 0.67342-1.556 1.7176-1.7363 2.8418-0.18035 1.1242 0.09836 2.3154 0.75977 3.2422a0.50005 0.50005 0 0 0 0.0039 0.0059c0.0055 0.0075 0.01208 0.01401 0.01758 0.02148a3.8855 3.8855 0 0 1 6.6504-3.9141c2.0503 2.7969 5.5963 4.7434 9.127 4.9824 2.4752 0.1675 4.9705-0.54667 6.4824-1.8887 0.75263-0.6681 1.3131-1.5206 1.5742-2.3516 0.25667-0.8163 0.24485-1.7243 2e-3 -2.4277-0.1087-0.31314-0.30311-0.63803-0.53711-0.96484 0.01712 0.0414 0.05247 0.08874 0.06641 0.12891h-2e-3c0.2012 0.58268 0.21768 1.4024-0.0059 2.1133-0.22911 0.72909-0.74282 1.5192-1.4297 2.1289-1.3735 1.2192-3.7581 1.9232-6.1152 1.7637-3.3707-0.22817-6.8046-2.1149-8.7578-4.7793a0.50005 0.50005 0 0 0-0.0039-0.0059c-0.68532-0.90926-1.7388-1.5335-2.8652-1.6992-0.28162-0.04142-0.56763-0.05394-0.85156-0.03906z" opacity=".25"/>
   <path id="path69" d="m46.898 30.787c-1.6684 0.07209-3.2545 0.58566-4.3359 1.4453-0.71984 0.5722-1.2736 1.3245-1.5547 2.0664-0.27582 0.728-0.31609 1.5512-0.14062 2.2012v2e-3c0.01143 0.04193 0.0313 0.08624 0.04492 0.12891 0.03064-0.11145 0.05474-0.22391 0.0957-0.33203 0.28108-0.74186 0.83485-1.4942 1.5547-2.0664 1.4419-1.1462 3.7795-1.6786 6.0156-1.3672 2.6327 0.3668 5.2055 1.8198 6.8457 3.8457a3.8854 3.8854 0 0 0 6.832-3.3652 3.8854 3.8854 0 0 1-6.832 1.3652c-1.6402-2.0259-4.213-3.4789-6.8457-3.8457-0.55902-0.07785-1.1236-0.10216-1.6797-0.07813zm-13.867 5.8828c-0.11073 1.2763-0.01382 2.5807 0.33398 3.8652a3.8854 3.8854 0 0 0 0.0039 2e-3c0.48612 1.7896 1.3875 3.3411 2.4922 4.6309a3.8854 3.8854 0 0 0 2e-3 0.0039c1.0999 1.2809 2.3791 2.2823 3.6934 3.0781 2.6159 1.5876 5.2975 2.3564 7.6387 3.0391 2.3339 0.68045 4.3804 1.2975 5.9434 2.1758 1.5088 0.84779 2.6048 2.0332 2.9648 3.0703 0.0217 0.06284 0.03084 0.13528 0.04883 0.20117 0.1895-0.75527 0.17208-1.5614-0.04883-2.2012-0.36-1.0371-1.456-2.2225-2.9648-3.0703-1.563-0.8783-3.6095-1.4953-5.9434-2.1758-2.3412-0.6827-5.0228-1.4515-7.6387-3.0391-1.3143-0.7958-2.5935-1.7972-3.6934-3.0781a3.8854 3.8854 0 0 1-2e-3 -0.0039c-1.1047-1.2898-2.0061-2.8413-2.4922-4.6309a3.8854 3.8854 0 0 1-0.0039-2e-3c-0.16763-0.61907-0.27629-1.242-0.33398-1.8652zm30.992 20.033c-0.07504 0.88036-0.24575 1.7497-0.50977 2.5898-0.7275 2.3151-2.0983 4.2949-3.8301 5.832-3.4564 3.0682-7.9658 4.1143-12.164 3.8301-5.8948-0.3991-11.388-3.3921-14.867-8.1387a3.8855 3.8855 0 0 1-0.58594-1.2578 3.8855 3.8855 0 0 0 0.58594 3.2578c3.4794 4.7466 8.9724 7.7396 14.867 8.1387 4.1983 0.28427 8.7077-0.76193 12.164-3.8301 1.7318-1.5371 3.1026-3.5169 3.8301-5.832 0.46268-1.4723 0.6465-3.0321 0.50977-4.5898z" fill="#fff" opacity=".2"/>
  </g>
 </g>
</svg>
