<?xml version="1.0" encoding="UTF-8"?>
<!-- Created with Inkscape (http://www.inkscape.org/) -->
<svg id="svg2" width="24" height="24" version="1.1" xmlns="http://www.w3.org/2000/svg" xmlns:cc="http://creativecommons.org/ns#" xmlns:dc="http://purl.org/dc/elements/1.1/" xmlns:rdf="http://www.w3.org/1999/02/22-rdf-syntax-ns#" xmlns:xlink="http://www.w3.org/1999/xlink">
 <defs id="defs4">
  <linearGradient id="linearGradient3335" x1="11.375" x2="11.375" y1="22" y2="-9.8173" gradientUnits="userSpaceOnUse">
   <stop id="stop3330" offset="0"/>
   <stop id="stop3333" stop-opacity="0" offset="1"/>
  </linearGradient>
  <linearGradient id="linearGradient3181" x1="-3.0608" x2="-3.0608" y1="27.258" y2="7.2537" gradientTransform="translate(12.119 -27.258)" gradientUnits="userSpaceOnUse">
   <stop id="stop3928" stop-color="#e9e6e8" offset="0"/>
   <stop id="stop3930" stop-color="#92838d" offset="1"/>
  </linearGradient>
  <filter id="filter3194" x="-.18" y="-.18" width="1.36" height="1.36" color-interpolation-filters="sRGB">
   <feGaussianBlur id="feGaussianBlur3196" stdDeviation="1.2"/>
  </filter>
  <clipPath id="clipPath2849">
   <rect id="rect2851" x="1" y="1" width="20" height="20" rx="2" ry="2" fill="#fff" fill-rule="evenodd"/>
  </clipPath>
  <linearGradient id="linearGradient3845" x1="11" x2="21" y1="19.5" y2="19.5" gradientTransform="translate(1,-1)" gradientUnits="userSpaceOnUse" spreadMethod="reflect">
   <stop id="stop3833" stop-color="#fff" offset="0"/>
   <stop id="stop3821" stop-color="#fff" stop-opacity=".49804" offset=".75"/>
   <stop id="stop3835" stop-color="#fff" stop-opacity="0" offset="1"/>
  </linearGradient>
  <linearGradient id="linearGradient3859" x1="301.57" x2="301.57" y1="70.042" y2="443.59" gradientTransform="matrix(.053748 0 0 .053748 -1.7582 -3.7596)" gradientUnits="userSpaceOnUse">
   <stop id="stop3274" stop-color="#00a070" offset="0"/>
   <stop id="stop3276" stop-color="#11ffeb" offset="1"/>
  </linearGradient>
  <linearGradient id="linearGradient3915" x1="10" x2="10" y1="1" y2="16" gradientTransform="translate(1,-1)" gradientUnits="userSpaceOnUse">
   <stop id="stop3825" stop-color="#fff" offset="0"/>
   <stop id="stop3829" stop-color="#fff" stop-opacity="0" offset="1"/>
  </linearGradient>
 </defs>
 <metadata id="metadata7">
  <rdf:RDF>
   <cc:Work rdf:about="">
    <dc:format>image/svg+xml</dc:format>
    <dc:type rdf:resource="http://purl.org/dc/dcmitype/StillImage"/>
    <dc:title/>
   </cc:Work>
  </rdf:RDF>
 </metadata>
 <g id="layer1" transform="translate(0,2)">
  <g id="g3337" transform="translate(1,-1)">
   <rect id="rect3371" x=".5" y=".5" width="21" height="21.5" rx="2.5" ry="2.5" fill="url(#linearGradient3335)" opacity=".3"/>
   <rect id="rect2553" x="1" y="2" width="20" height="20" rx="2.381" ry="2.3256" opacity=".5"/>
  </g>
  <rect id="rect3173" transform="scale(1,-1)" x="2" y="-20" width="20" height="20" rx="2" ry="2" fill="url(#linearGradient3181)" fill-rule="evenodd"/>
  <path id="path3018" d="m-26-1.8e-7c-1.108 0-2 0.892-2 2v1c0-1.108 0.892-2 2-2h16c1.108 0 2 0.892 2 2v-1c0-1.108-0.892-2-2-2h-16z" fill="#fff" fill-rule="evenodd" opacity=".25"/>
  <path id="path3020" d="m-26 20c-1.108 0-2-0.892-2-2v-1c0 1.108 0.892 2 2 2h16c1.108 0 2-0.892 2-2v1c0 1.108-0.892 2-2 2h-16z" fill-rule="evenodd" opacity=".15"/>
 </g>
 <g id="layer2" transform="translate(0,2)" display="none">
  <rect id="rect2410" transform="translate(1,-1)" x="3" y="3" width="16" height="16" rx="2" ry="2" clip-path="url(#clipPath2849)" display="inline" fill="#fff" filter="url(#filter3194)" opacity=".15"/>
 </g>
 <g id="layer3" transform="translate(0,2)">
  <path id="path4189" d="m12.001 5.7001c-2.3748 0-4.2999 1.9156-4.2999 4.2999 0 0-0.028504 0.4039 0.095015 0.85998h6.6034c-0.17827 0.49796-0.49801 0.94472-0.9322 1.2429-0.9989 0.78863-2.5117 0.50187-3.3626-0.38296h-2.0441c0.66381 1.5179 2.1777 2.5799 3.9404 2.5799 2.3748 0 4.2999-1.9251 4.2999-4.2999 0 0 0-0.44191-0.08551-0.85998h-6.6062c0.37173-0.93961 1.2594-1.701 2.291-1.7099 0.05162-0.0025 0.10305-0.0027 0.15453-0.0017 0.69154 0.01402 1.3626 0.34197 1.8291 0.85158h2.0576c-0.66382-1.5179-2.1777-2.5799-3.9404-2.5799zm-0.97775-5.7001v2.2504c-3.2008 0.39894-5.8 2.7343-6.5883 5.797h2.0251c0.83053-2.2107 3.0295-3.9348 5.4328-3.9187 0.05827-0.0015 0.11727-0.0023 0.17543-0.0019 0.87252 0.0052 1.7302 0.22183 2.5076 0.61021 1.4003 0.63034 2.44 1.876 2.9481 3.3104h2.0404c-0.78828-3.0626-3.3875-5.398-6.5883-5.797v-2.2504zm-6.5883 11.953c0.78828 3.0626 3.3875 5.398 6.5883 5.797v2.2504h1.9527v-2.2504c3.2008-0.39894 5.8-2.7343 6.5883-5.797h-2.0118c-0.78938 2.3287-3.2292 4.0033-5.6959 3.9168-2.4017 0.01214-4.5804-1.7036-5.3927-3.9168z" fill="url(#linearGradient3859)"/>
  <path id="path3878" transform="translate(0,-2)" d="m11.031 4.25c-3.2008 0.39894-5.8055 2.7499-6.5938 5.8125h0.34375c1.0458-2.5639 3.4059-4.458 6.25-4.8125zm1.9375 0v1c2.8441 0.35447 5.2042 2.2486 6.25 4.8125h0.34375c-0.78828-3.0626-3.3929-5.4136-6.5938-5.8125zm-0.96875 3.4375c-2.3748 0-4.3125 1.9282-4.3125 4.3125 0 0 0.018004 0.25536 0.0625 0.5625 0.22095-2.1742 2.0242-3.875 4.25-3.875 1.3382 0 2.5242 0.63485 3.3125 1.5938h0.625c-0.66382-1.5179-2.1748-2.5938-3.9375-2.5938zm-1.7188 3.4375c-0.29439 0.28368-0.50596 0.62011-0.65625 1h6.5938c0.02694 0.13172 0.01861 0.25311 0.03125 0.375 0.01918-0.1648 0.0625-0.33005 0.0625-0.5 0 0-0.0082-0.45694-0.09375-0.875h-0.34375c0.02399 0.04956 0.04037 0.10565 0.0625 0.15625h-2.0625c-0.050618-0.055288-0.10105-0.10541-0.15625-0.15625zm-2.1562 2.75c0.14938 0.30856 0.34701 0.58162 0.5625 0.84375h1.4062c0.85091 0.88482 2.3761 1.1636 3.375 0.375 0.43419-0.29821 0.75923-0.7208 0.9375-1.2188h-0.65625c-0.085 0.08001-0.18462 0.15238-0.28125 0.21875-0.93958 0.7418-2.3483 0.54512-3.2188-0.21875zm-3.6875 0.0625c0.08786 0.34136 0.21257 0.67839 0.34375 1h1.6875c0.81232 2.2132 2.9733 3.9496 5.375 3.9375 2.4667 0.0865 4.9294-1.6088 5.7188-3.9375h1.6562c0.13118-0.32161 0.25589-0.65864 0.34375-1h-2c-0.78938 2.3287-3.252 4.024-5.7188 3.9375-2.4017 0.01214-4.5627-1.7243-5.375-3.9375z" opacity=".25"/>
  <path id="path3887" transform="translate(0,-2)" d="m11.906 6.125c-2.4032-0.016095-4.607 1.7268-5.4375 3.9375h-1.6875c-0.13118 0.32161-0.25589 0.65864-0.34375 1h2.0312c0.83053-2.2107 3.0343-3.9536 5.4375-3.9375 0.05827-0.0015 0.09808-4e-4 0.15625 0 0.87252 0.0052 1.7226 0.23662 2.5 0.625 1.4003 0.63034 2.4607 1.8782 2.9688 3.3125h2.0312c-0.08786-0.34136-0.21257-0.67839-0.34375-1h-1.6875c-0.50806-1.4343-1.5685-2.6822-2.9688-3.3125-0.7774-0.38838-1.6275-0.6198-2.5-0.625-0.05817-4e-4 -0.09798-0.0015-0.15625 0zm0 3.3125c-1.0316 0.00884-1.9095 0.74789-2.2812 1.6875h0.65625c0.43374-0.41795 1.0105-0.68223 1.625-0.6875 0.05162-0.0025 0.10478-1e-3 0.15625 0 0.61651 0.0125 1.2027 0.26971 1.6562 0.6875h2.1562c-0.14938-0.30855-0.347-0.58162-0.5625-0.84375h-1.4375c-0.46656-0.50961-1.121-0.82973-1.8125-0.84375-0.05147-1e-3 -0.10463-0.0025-0.15625 0zm4.3438 3.0625c-0.2488 2.138-2.0452 3.8125-4.25 3.8125-1.3382 0-2.5242-0.63484-3.3125-1.5938h-0.625c0.66381 1.5179 2.1748 2.5938 3.9375 2.5938 2.3748 0 4.3125-1.9377 4.3125-4.3125 0 0-0.03502-0.23503-0.0625-0.5zm-8.5 0.0625c-0.01479 0.14553-0.0625 0.28792-0.0625 0.4375 0 0-0.029769 0.41893 0.09375 0.875h0.34375c-0.023994-0.04956-0.040373-0.10565-0.0625-0.15625h2.0312c0.05053 0.05255 0.10129 0.10802 0.15625 0.15625h3.5c0.29691-0.2795 0.51766-0.61287 0.65625-1h-6.625c-0.030653-0.11318-0.016563-0.21112-0.03125-0.3125zm-3.3125 2.375c0.78828 3.0626 3.3929 5.4136 6.5938 5.8125v-1c-2.8441-0.35447-5.2042-2.2486-6.25-4.8125zm14.781 0c-1.0458 2.5639-3.4059 4.458-6.25 4.8125v1c3.2008-0.39894 5.8055-2.7499 6.5938-5.8125z" fill="#fff" opacity=".3"/>
  <path id="rect3050" d="m4 0c-1.108 0-2 0.892-2 2v16c0 1.108 0.892 2 2 2h16c1.108 0 2-0.892 2-2v-16c0-1.108-0.892-2-2-2h-16zm0 1.0312h16c0.5497 0 0.96875 0.41905 0.96875 0.96875v16c0 0.5497-0.41905 0.96875-0.96875 0.96875h-16c-0.5497 0-0.96875-0.41905-0.96875-0.96875v-16c0-0.5497 0.41905-0.96875 0.96875-0.96875z" fill="url(#linearGradient3915)" fill-rule="evenodd" opacity=".35"/>
  <path id="path3235" d="m4 20c-1.108 0-2-0.892-2-2v-1c0 1.108 0.892 2 2 2h16c1.108 0 2-0.892 2-2v1c0 1.108-0.892 2-2 2h-16z" fill="url(#linearGradient3845)" fill-rule="evenodd" opacity=".2"/>
 </g>
</svg>
