<?xml version="1.0" encoding="UTF-8"?>
<!-- Created with Inkscape (http://www.inkscape.org/) -->
<svg id="svg2" width="22" height="22" version="1.1" xmlns="http://www.w3.org/2000/svg" xmlns:cc="http://creativecommons.org/ns#" xmlns:dc="http://purl.org/dc/elements/1.1/" xmlns:rdf="http://www.w3.org/1999/02/22-rdf-syntax-ns#" xmlns:xlink="http://www.w3.org/1999/xlink">
 <defs id="defs4">
  <linearGradient id="linearGradient3335" x1="11.375" x2="11.375" y1="22" y2="-9.8173" gradientUnits="userSpaceOnUse">
   <stop id="stop3330" offset="0"/>
   <stop id="stop3333" stop-opacity="0" offset="1"/>
  </linearGradient>
  <linearGradient id="linearGradient3181" x1="-3.0608" x2="-3.0608" y1="27.258" y2="7.2537" gradientTransform="translate(11.119 -6.2582)" gradientUnits="userSpaceOnUse">
   <stop id="stop3189" stop-color="#e4b31e" offset="0"/>
   <stop id="stop3191" stop-color="#ffef64" offset="1"/>
  </linearGradient>
  <linearGradient id="linearGradient6450" x1="136.41" x2="149.53" y1="115.49" y2="115.49" gradientTransform="matrix(.23804 0 0 .153 -39.57 .11016)" gradientUnits="userSpaceOnUse">
   <stop id="stop3487" stop-color="#e2433d" offset="0"/>
   <stop id="stop3489" stop-color="#f08682" offset="1"/>
  </linearGradient>
  <linearGradient id="linearGradient6447" x1="136" x2="150" y1="60" y2="60" gradientTransform="matrix(-.22834 .0002619 -.00043938 .13642 38.179 1.8736)" gradientUnits="userSpaceOnUse">
   <stop id="stop3280" stop-color="#165016" offset="0"/>
   <stop id="stop3290" stop-color="#165016" offset=".3"/>
   <stop id="stop3286" stop-color="#217821" offset=".35"/>
   <stop id="stop3288" stop-color="#217821" offset=".65"/>
   <stop id="stop3292" stop-color="#2ca02c" offset=".7"/>
   <stop id="stop3282" stop-color="#2ca02c" offset="1"/>
  </linearGradient>
  <linearGradient id="linearGradient6441" x1="136.99" x2="149" y1="17.043" y2="17.043" gradientTransform="matrix(-.25131 .00028433 -.00048359 .1481 41.461 1.5711)" gradientUnits="userSpaceOnUse">
   <stop id="stop3310" stop-color="#ba6920" offset="0"/>
   <stop id="stop3312" stop-color="#fff" offset="1"/>
  </linearGradient>
  <linearGradient id="linearGradient6454" x1="136" x2="150" y1="106" y2="106" gradientTransform="matrix(.22773 0 0 .1579 -38.092 -1.2315)" gradientUnits="userSpaceOnUse">
   <stop id="stop3403" stop-color="#292929" offset="0"/>
   <stop id="stop3447" stop-color="#595959" offset=".2"/>
   <stop id="stop3410" stop-color="#efefef" offset=".7"/>
   <stop id="stop3405" stop-color="#7f7f7f" offset="1"/>
  </linearGradient>
  <linearGradient id="linearGradient6444" x1="141.25" x2="144.81" y1="4.9219" y2="4.9219" gradientTransform="matrix(-.48471 .00066436 -.00093272 .34604 74.817 1.0714)" gradientUnits="userSpaceOnUse">
   <stop id="stop3396" offset="0"/>
   <stop id="stop3402" stop-color="#7d7d7d" offset=".5"/>
   <stop id="stop3398" offset="1"/>
  </linearGradient>
  <linearGradient id="linearGradient4885" x1="143.06" x2="143.87" y1="12.081" y2="70.342" gradientTransform="matrix(-.1072 -.21253 .13632 -.069479 20.205 50.198)" gradientUnits="userSpaceOnUse" xlink:href="#linearGradient3232-9"/>
  <linearGradient id="linearGradient3232-9">
   <stop id="stop3234-6" offset="0"/>
   <stop id="stop3236-2" stop-opacity="0" offset="1"/>
  </linearGradient>
  <linearGradient id="linearGradient2965" x1="143.05" x2="143.04" y1="12.101" y2="118.29" gradientTransform="matrix(-.20854 -.11477 .073201 -.13436 35.462 36.997)" gradientUnits="userSpaceOnUse" xlink:href="#linearGradient3232-9"/>
  <clipPath id="clipPath3686">
   <rect id="rect3688" x=".86592" y="-.38933" width="22.682" height="22.682" rx="2.2682" ry="2.2682" fill="#f00" fill-rule="evenodd"/>
  </clipPath>
  <filter id="filter8716-4" x="-.26984" y="-.54066" width="1.5397" height="2.0813" color-interpolation-filters="sRGB">
   <feGaussianBlur id="feGaussianBlur8718-1" stdDeviation="2.0210388"/>
  </filter>
  <linearGradient id="linearGradient3845" x1="11" x2="21" y1="19.5" y2="19.5" gradientUnits="userSpaceOnUse" spreadMethod="reflect">
   <stop id="stop3833" stop-color="#fff" offset="0"/>
   <stop id="stop3821" stop-color="#fff" stop-opacity=".49804" offset=".75"/>
   <stop id="stop3835" stop-color="#fff" stop-opacity="0" offset="1"/>
  </linearGradient>
  <linearGradient id="linearGradient4007" x1="10" x2="10" y1="1" y2="16" gradientUnits="userSpaceOnUse">
   <stop id="stop3825" stop-color="#fff" offset="0"/>
   <stop id="stop3829" stop-color="#fff" stop-opacity="0" offset="1"/>
  </linearGradient>
  <linearGradient id="linearGradient3224" x1="78.377" x2="85" y1="75.012" y2="82" gradientTransform="matrix(.2381 0 0 .2381 29.571 .49501)" gradientUnits="userSpaceOnUse">
   <stop id="stop4061" stop-color="#ad760e" offset="0"/>
   <stop id="stop4104" stop-color="#c28510" offset=".15"/>
   <stop id="stop4063" stop-color="#c28510" stop-opacity="0" offset="1"/>
  </linearGradient>
  <linearGradient id="linearGradient3226" x1="59.388" x2="133.34" y1="44.471" y2="136.89" gradientTransform="matrix(.16949 0 0 .16949 30.153 .12374)" gradientUnits="userSpaceOnUse">
   <stop id="stop3768-7" stop-color="#e7ba26" stop-opacity="0" offset="0"/>
   <stop id="stop3770-4" stop-color="#e9ab2c" offset=".48412"/>
   <stop id="stop3772-5" stop-color="#eaa82e" offset=".69663"/>
   <stop id="stop3774-2" stop-color="#ebba3f" offset=".84266"/>
   <stop id="stop3776-5" stop-color="#f3e38c" offset="1"/>
  </linearGradient>
  <linearGradient id="linearGradient3233" x1="81.033" x2="72.169" y1="75.165" y2="65.295" gradientTransform="matrix(.2381 0 0 .2381 -1.4286 .49501)" gradientUnits="userSpaceOnUse">
   <stop id="stop4041" stop-color="#d7951b" offset="0"/>
   <stop id="stop4043" stop-color="#e9b42f" offset=".19094"/>
   <stop id="stop4045" stop-color="#f3e38c" offset="1"/>
  </linearGradient>
 </defs>
 <metadata id="metadata7">
  <rdf:RDF>
   <cc:Work rdf:about="">
    <dc:format>image/svg+xml</dc:format>
    <dc:type rdf:resource="http://purl.org/dc/dcmitype/StillImage"/>
    <dc:title/>
   </cc:Work>
  </rdf:RDF>
 </metadata>
 <g id="layer1">
  <g id="g3337">
   <rect id="rect3371" x=".5" y=".5" width="21" height="21.5" rx="2.5" ry="2.5" fill="url(#linearGradient3335)" opacity=".3"/>
   <rect id="rect2553" x="1" y="2" width="20" height="20" rx="2.381" ry="2.3256" opacity=".5"/>
  </g>
  <rect id="rect3173" x="1" y="1" width="20" height="20" rx="2" ry="2" fill="url(#linearGradient3181)" fill-rule="evenodd"/>
  <g id="g3218" transform="translate(-30)">
   <path id="rect4047" d="m51 13.719-4 3.1562-2.7188 4.0938h5.125c0.91301-0.18588 1.5938-0.99925 1.5938-1.9688v-5.2812z" fill="url(#linearGradient3224)"/>
   <path id="path3177" d="m33 1c-1.108 0-2 0.892-2 2v16c0 0.11989 0.01133 0.22935 0.03125 0.34375 0.0035 0.02016-0.0041 0.04255 0 0.0625 0.01921 0.09411 0.06205 0.1923 0.09375 0.28125 0.01603 0.04394 0.04355 0.08258 0.0625 0.125 0.04717 0.10558 0.09228 0.21765 0.15625 0.3125 0.07174 0.10637 0.15962 0.19088 0.25 0.28125 0.03095 0.03163 0.06078 0.06424 0.09375 0.09375 0.06243 0.05454 0.11854 0.10974 0.1875 0.15625 0.10637 0.07174 0.22403 0.13703 0.34375 0.1875 0.1154 0.05042 0.21799 0.09743 0.34375 0.125 0.0097 0.0021 0.02147-2e-3 0.03125 0 4.0404 1.41e-4 8.8666 0.03125 11.688 0.03125 0.99884 0 1.6471-0.92705 3.835-2.8838 1.9824-1.7729 2.8838-2.4986 2.8838-3.8662 0-2.6384-0.018247-7.1456 0-11.25 0-1.108-0.892-2-2-2z" fill="url(#linearGradient3226)"/>
   <path id="path3254" transform="translate(30)" d="m20.969 14.781c-0.82514 0.6561-4.0777 0.4631-5.7812 0.4375 0.06026 1.3123 0.23148 5.1525-0.46875 5.7188 0.06449-0.02108 0.18764-0.08556 0.28125-0.125 0.70625-0.35246 1.4841-1.2199 3.125-2.6875 1.3595-1.2159 2.2244-1.9432 2.625-2.7188 0.02946-0.07019 0.06623-0.14738 0.09375-0.21875 0.05393-0.13451 0.09658-0.26306 0.125-0.40625z" fill="url(#linearGradient3233)"/>
  </g>
  <rect id="rect3200" transform="matrix(.88177 0 0 .88177 .23645 1.3433)" x="2" y="1.98" width="17.976" height="8.9714" rx="2" ry="2" clip-path="url(#clipPath3686)" fill="#fff" filter="url(#filter8716-4)" opacity=".2"/>
  <path id="rect3050" d="m3 1c-1.108 0-2 0.892-2 2v16c0 1.108 0.892 2 2 2h16c1.108 0 2-0.892 2-2v-16c0-1.108-0.892-2-2-2h-16zm0 1.0312h16c0.5497 0 0.96875 0.41905 0.96875 0.96875v16c0 0.5497-0.41905 0.96875-0.96875 0.96875h-16c-0.5497 0-0.96875-0.41905-0.96875-0.96875v-16c0-0.5497 0.41905-0.96875 0.96875-0.96875z" fill="url(#linearGradient4007)" fill-rule="evenodd" opacity=".5"/>
  <path id="path3235" d="m3 21c-1.108 0-2-0.892-2-2v-1c0 1.108 0.892 2 2 2h16c1.108 0 2-0.892 2-2v1c0 1.108-0.892 2-2 2h-16z" fill="url(#linearGradient3845)" fill-rule="evenodd" opacity=".2"/>
 </g>
 <g id="layer3" display="none">
  <path id="text2443" d="m2 11.744c0.00744-0.11156 0.028819-0.19337 0.064146-0.24543 0.035327-0.05206 0.1097-0.11621 0.22312-0.19244 0.11342-0.07623 0.23706-0.10691 0.37093-0.09204 0.13387 0.01488 0.15246 0.09018 0.055779 0.22591-0.096685 0.13573-0.14317 0.2696-0.13945 0.40161 0.00372 0.13201 0.074371 0.22684 0.21196 0.28448 0.13759 0.05764 0.28726 0.04741 0.44902-0.03068 0.16176-0.078085 0.35048-0.19429 0.56616-0.34862 0.21568-0.15432 0.43322-0.34955 0.65262-0.58568 0.2194-0.23613 0.40626-0.47133 0.56058-0.70561 0.15432-0.23427 0.27796-0.45274 0.37093-0.65541 0.092962-0.20266 0.1506-0.40254 0.17292-0.59963 0.022308-0.19708-0.039979-0.38301-0.18686-0.55779-0.14689-0.17477-0.22312-0.32166-0.2287-0.44066-0.0055819-0.11899 0.062283-0.23427 0.20359-0.34583 0.25286 4.8e-6 0.42857 0.074377 0.52711 0.22312 0.098539 0.14875 0.18779 0.30121 0.26774 0.45739 0.079946 0.15619 0.14874 0.31516 0.20638 0.47691 0.057633 0.16176 0.11806 0.30865 0.18128 0.44066 0.063211 0.13201 0.10969 0.26774 0.13945 0.40719 0.029744 0.13945 0.077157 0.2882 0.14224 0.44623 0.065071 0.15804 0.12085 0.32445 0.16734 0.49923 0.046478 0.17478 0.12178 0.18314 0.22591 0.0251 0.10412-0.15804 0.26866-0.35698 0.49365-0.59684 0.22497-0.23985 0.4202-0.44251 0.58568-0.608 0.16547-0.16548 0.35047-0.33002 0.555-0.49365 0.20452-0.16362 0.41276-0.3105 0.62473-0.44066 0.21195-0.13015 0.44809-0.24728 0.7084-0.35141 0.2603-0.10412 0.49271-0.15432 0.69724-0.1506 0.20451 0.00372 0.39602 0.036261 0.57453 0.097614 0.17848 0.061361 0.32537 0.13202 0.44066 0.21196 0.11527 0.079955 0.20823 0.17943 0.2789 0.29842 0.07064 0.119 0.10969 0.32724 0.11714 0.62473-0.05579 0.12644-0.12365 0.18407-0.20359 0.17292-0.07996-0.011153-0.12552-0.09854-0.13666-0.26216-0.011166-0.16362-0.071594-0.29842-0.18128-0.4044-0.10971-0.10598-0.21941-0.18314-0.3291-0.23148-0.10971-0.048338-0.25381-0.087384-0.43229-0.11714-0.1785-0.029745-0.35421-0.0158-0.52712 0.041834-0.17292 0.057643-0.35978 0.14875-0.56058 0.27332-0.20081 0.12458-0.43509 0.27797-0.70282 0.46018-0.26775 0.18222-0.52712 0.40068-0.77812 0.65541-0.25101 0.25473-0.4574 0.49179-0.61915 0.71119-0.16177 0.2194-0.30493 0.43043-0.4295 0.6331-0.12458 0.20267-0.21569 0.41835-0.27332 0.64704-0.057644 0.2287-0.13016 0.44716-0.21754 0.65541-0.087393 0.20824-0.19802 0.36814-0.33189 0.4797-0.20081-0.02975-0.30586-0.09018-0.31515-0.18128-0.0093-0.09111 0.017658-0.1943 0.08088-0.30958 0.063212-0.11528 0.11713-0.26123 0.16176-0.43787 0.044618-0.17663 0.070649-0.35978 0.078091-0.54943 0.00743-0.18965-0.020457-0.38395-0.083669-0.58289-0.063222-0.19894-0.12365-0.36628-0.18128-0.50201-0.057643-0.13573-0.12086-0.24822-0.18965-0.33747-0.0688-0.08924-0.14224-0.08646-0.22033 0.0084-0.078095 0.09483-0.19058 0.23706-0.33746 0.42671-0.14689 0.18962-0.3291 0.39135-0.54664 0.60517-0.21754 0.21382-0.50202 0.45553-0.85342 0.72513-0.35141 0.2696-0.66935 0.44995-0.95383 0.54106-0.28448 0.091106-0.51596 0.1097-0.69445 0.055779-0.17849-0.05392-0.30028-0.1441-0.36536-0.27053-0.065077-0.12643-0.11063-0.32166-0.13666-0.58568m6.6154 0.50759c0.059498 0.08925 0.13294 0.13573 0.22033 0.13945 0.087386 0.0037 0.17013-0.02045 0.24822-0.07251 0.07809-0.05206 0.17013-0.10133 0.27611-0.14782 0.10598-0.04648 0.20917-0.10412 0.30958-0.17292 0.1004-0.06879 0.1506-0.15525 0.1506-0.25937-1.8e-6 -0.10412-0.039047-0.185-0.11714-0.24264-0.078092-0.05764-0.11063-0.13108-0.097613-0.22033 0.013014-0.08925 0.053918-0.1506 0.12271-0.18407 0.068793-0.03347 0.18314-0.05206 0.34304-0.05578 0.16734 0.03347 0.2696 0.11714 0.30679 0.25101 0.03718 0.13387 0.0344 0.25845-0.0084 0.37372-0.04277 0.11528 0.01023 0.2194 0.15897 0.31236 0.14874 0.09297 0.28168 0.12364 0.39882 0.09204 0.11713-0.03161 0.18314 0.0046 0.19802 0.10877-0.0186 0.11156-0.04927 0.1785-0.09204 0.20081-0.04277 0.02231-0.12922 0.04276-0.25937 0.06136-0.13015 0.01859-0.28634-0.02138-0.46855-0.11993-0.18221-0.09854-0.31237-0.11806-0.39046-0.05857-0.078093 0.0595-0.19523 0.13666-0.35141 0.23148-0.15618 0.09483-0.30958 0.17013-0.46018 0.22591-0.15061 0.05578-0.32259 0.08367-0.51596 0.08367-0.17849-0.0595-0.30493-0.15153-0.3793-0.27611-0.074373-0.12457-0.11156-0.26123-0.11156-0.40998 0.018593-0.10412 0.095754-0.21847 0.23148-0.34304 0.13573-0.12457 0.26588-0.22869 0.39046-0.31236 0.12457-0.08367 0.25101-0.14502 0.3793-0.18407 0.12829-0.03904 0.2194-0.03347 0.27332 0.01673 0.053919 0.0502 0.089246 0.11156 0.10598 0.18407 0.016733 0.07251 0.0093 0.13108-0.022312 0.1757-0.031609 0.04462-0.078092 0.07437-0.13945 0.08925-0.061358 0.01487-0.14596 0.0344-0.2538 0.05857-0.10784 0.02417-0.22405 0.08367-0.34862 0.17849-0.12457 0.09483-0.15711 0.18686-0.097614 0.27611m2.3985-0.08367c0.03719-0.1004 0.08832-0.20638 0.15339-0.31794 0.06508-0.11156 0.21475-0.27332 0.44902-0.48528 0.23427-0.21196 0.40719-0.40161 0.51875-0.56895-0.17106 0.02231-0.2854 0.0344-0.34304 0.03626-0.05764 0.0019-0.09204-0.03254-0.10319-0.10319-0.01116-0.07065 0.0056-0.12271 0.0502-0.15618 0.04462-0.03346 0.13201-0.05857 0.26216-0.0753 0.13015-0.01673 0.26588-0.03811 0.40719-0.06415 0.24914-0.23427 0.45274-0.42206 0.61078-0.56337 0.15804-0.1413 0.32724-0.29377 0.50759-0.45739 0.18035-0.16362 0.35141-0.30028 0.51317-0.40998 0.16176-0.1097 0.30213-0.1664 0.42113-0.17013 0.07065 0.09297 0.0046 0.22963-0.19802 0.40998-0.20267 0.18036-0.3635 0.33003-0.48249 0.44902-0.119 0.119-0.23335 0.23335-0.34304 0.34304-0.1097 0.1097-0.2352 0.24078-0.37651 0.39324 0.18221-0.02231 0.4546-0.05392 0.81717-0.09483 0.36256-0.0409 0.7335-0.07902 1.1128-0.11435 0.3793-0.03533 0.76138-0.066 1.1463-0.09204 0.38487-0.02603 0.76231-0.04276 1.1323-0.0502 0.37-0.0074 0.75487-0.0065 1.1546 0.0028 0.39974 0.0093 0.72512 0.02603 0.97614 0.0502 0.251 0.02417 0.45087 0.10134 0.59963 0.23148-0.15247 0.04834-0.29192 0.06415-0.41834 0.04741-0.12644-0.01673-0.26217-0.02975-0.40719-0.03904-0.14504-0.0093-0.31888-0.01115-0.52154-0.0056-0.20267 0.0056-0.4481 0.01302-0.73629 0.02231-0.2882 0.0093-0.59592 0.01581-0.92315 0.01952-0.32724 0.0037-0.65913 0.01952-0.99566 0.04741-0.33654 0.02789-0.65634 0.05764-0.9594 0.08925-0.30307 0.03161-0.61822 0.06043-0.94546 0.08646-0.32724 0.02603-0.55966 0.0437-0.69724 0.05299-0.13759 0.0093-0.25101 0.01952-0.34025 0.03068-0.08925 0.01116-0.16269 0.03068-0.22033 0.05857-0.05764 0.02789-0.119 0.06973-0.18407 0.1255-0.06508 0.05578-0.14596 0.13294-0.24264 0.23148-0.09669 0.09854-0.21103 0.22684-0.34304 0.38488-0.13201 0.15804-0.24915 0.29377-0.35141 0.40719-0.10226 0.11342-0.17571 0.2194-0.22033 0.31794-0.04462 0.09854-0.0502 0.18593-0.01673 0.26216 0.03347 0.07623 0.09668 0.12272 0.18965 0.13945 0.09297 0.01673 0.27146-0.02045 0.53548-0.11156 0.26402-0.09111 0.45181-0.17199 0.56337-0.24264 0.11156-0.07065 0.19616-0.11528 0.2538-0.13387 0.05764-0.01859 0.10226-0.0065 0.13387 0.03626 0.03161 0.04276-0.01395 0.11621-0.13666 0.22033-0.12272 0.10412-0.23242 0.18407-0.3291 0.23985-0.09669 0.05578-0.20731 0.10784-0.33189 0.15618-0.12458 0.04834-0.26495 0.08367-0.42113 0.10598-0.1004 0.01487-0.19523 0.02231-0.28448 0.02231-0.05578-1e-6 -0.1097-0.0019-0.16176-0.0056-0.14131-0.01487-0.25194-0.04741-0.33189-0.09761s-0.13294-0.11621-0.15897-0.19802c-0.02975-0.07437-0.04462-0.14131-0.04462-0.2008 0-0.0037 0.0019-0.0093 0.0056-0.01673 0-0.06322 0.01859-0.14502 0.05578-0.24543m2.4822-0.2789c0.22684-0.07437 0.37837-0.14503 0.4546-0.21196 0.07623-0.06693 0.10877-0.12829 0.09761-0.18407-0.01116-0.05578-0.07437-0.05392-0.18965 0.0056-0.11528 0.0595-0.1943 0.11993-0.23706 0.18128-0.04277 0.06136-0.0846 0.13108-0.1255 0.20917m-0.49086 0.36814c0-0.19337 0.02417-0.34211 0.07251-0.44624 0.04834-0.10412 0.12736-0.21196 0.23706-0.32352 0.1097-0.11156 0.2194-0.20824 0.3291-0.29005 0.1097-0.08181 0.22219-0.13759 0.33746-0.16734l0.12829-0.0056c0.11528 0.0037 0.21568 0.03533 0.30121 0.09483s0.12178 0.16455 0.10877 0.31515c-0.01302 0.1506-0.08739 0.28076-0.22312 0.39046-0.13573 0.1097-0.28912 0.18872-0.46018 0.23706-0.17106 0.04834-0.26309 0.09204-0.27611 0.13108-0.01302 0.03905 0.01487 0.08181 0.08367 0.12829 0.06879 0.04648 0.22312 0.07623 0.46297 0.08925 0.23985 0.01302 0.43601 0 0.58847-0.03905 0.15246-0.03905 0.27611-0.08088 0.37093-0.1255 0.09482-0.04462 0.1692-0.07437 0.22312-0.08925 0.05392-0.01487 0.09761 0.01302 0.13108 0.08367-0.09669 0.13759-0.20267 0.23892-0.31794 0.304-0.11528 0.06508-0.25938 0.12364-0.43229 0.1757-0.17292 0.05206-0.38395 0.08367-0.6331 0.09483h-0.1506c-0.27146-0.02603-0.4546-0.06229-0.54943-0.10877-0.09482-0.04648-0.16827-0.10133-0.22033-0.16455-0.05206-0.06322-0.08925-0.15804-0.11156-0.28448m2.5296 0.0502c0.03904 0.10784 0.11156 0.15339 0.21754 0.13666 0.10598-0.01673 0.20266-0.05299 0.29005-0.10877 0.08925-0.05764 0.17942-0.14224 0.27053-0.2538 0.0911-0.11342 0.13108-0.19058 0.11993-0.23148-0.2194 0.1599-0.39232 0.26588-0.51875 0.31794-0.12458 0.05206-0.25101 0.09854-0.3793 0.13945m-0.56057-0.25099c0.0037-0.119 0.01581-0.2101 0.03626-0.27332 0.02045-0.06322 0.05485-0.10598 0.10319-0.12829 0.04834-0.02231 0.1097-0.02975 0.18407-0.02231 0.07437 0.0074 0.13015 0.13294 0.16734 0.37651 0.15618-0.02975 0.29098-0.07344 0.4044-0.13108 0.11342-0.05764 0.22126-0.11249 0.32352-0.16455 0.10226-0.05392 0.22219-0.11063 0.35978-0.17013 0.13759-0.0595 0.26588-0.12457 0.38488-0.19523 0.11899-0.07251 0.20824-0.14317 0.26774-0.21196 0.0595-0.07065 0.10412-0.14131 0.13387-0.21196 0.02975-0.07251 0.07995-0.11714 0.1506-0.13387 0.08367 0.0019 0.14502 0.01952 0.18407 0.05299 0.03904 0.03161 0.06321 0.10691 0.07251 0.22591-0.0037 0.05206-0.01674 0.10319-0.03905 0.15339s-0.07159 0.11063-0.14782 0.18128c-0.07437 0.0688-0.15433 0.1255-0.23985 0.17013-0.08367 0.04277-0.17757 0.09576-0.28169 0.15897-0.10226 0.06322-0.20546 0.14782-0.30958 0.2538-0.10226 0.10598-0.17664 0.20917-0.22312 0.30958-0.04462 0.09854-0.09111 0.18872-0.13945 0.27053-0.04834 0.07995-0.12179 0.14596-0.22033 0.19802-0.09854 0.0502-0.25101 0.08181-0.45739 0.09483-0.13759-0.0037-0.24543-0.02138-0.32352-0.05299-0.07809-0.03161-0.1599-0.1255-0.24543-0.28169-0.08553-0.15618-0.13387-0.31236-0.14503-0.46855" display="inline" fill="#22225e" opacity=".9"/>
 </g>
 <g id="layer2">
  <path id="path4887" d="m13.34 3.5723c-0.05786 0.030878-0.11684 0.076002-0.14726 0.13183l-0.71751 1.332-0.04109-0.016269-0.9337 1.698-0.12629 0.25896-0.38743 0.67841-3.8161 6.9973c-0.00865 4.46e-4 -0.019859 0.01155-0.02868 0.01241-0.00127 0.01466 0.013419 0.01492 0.012412 0.02868l-0.036396 0.15195c-3.892e-4 0.02288 0.00855 0.09845 0.00855 0.09845l-0.27239 1.8885-0.084366 0.51321-0.25696 1.6094 0.02868-0.01241 1.5749-1.3966 1.3377-1.1577s0.20488-0.17975 0.32319-0.27606l3.8037-7.026 0.44865-0.77301 0.06508-0.16436 0.9337-1.698-0.04109-0.016268 0.74619-1.3444c0.12166-0.2233-0.074535-0.54638-0.42113-0.73713l-1.2622-0.71365c-0.25995-0.14306-0.53652-0.1599-0.71012-0.067261z" fill="url(#linearGradient2965)" opacity=".3"/>
  <path id="rect4829" d="m20.842 10.121c-0.06519-0.0072-0.13935-0.0033-0.19598 0.02554l-1.3447 0.69346-0.02471-0.03664-1.7299 0.87321-0.25053 0.14227-0.70302 0.34076-7.1026 3.6164c-0.0074-0.0045-0.02291-0.0017-0.03067-6e-3 -0.0093 0.01138 0.0026 0.0199-6e-3 0.03068l-0.1159 0.1048c-0.01325 0.01865-0.04858 0.08606-0.04858 0.08606l-1.2919 1.4041-0.35962 0.37574-1.1215 1.1826 0.030675 6e-3 2.0885-0.26222 1.7579-0.1992s0.27061-0.03252 0.42264-0.04511l7.1086-3.6471 0.80698-0.38421 0.14657-0.09883 1.7298-0.87321-0.02471-0.03664 1.3754-0.68749c0.22656-0.11547 0.24727-0.49289 0.06911-0.84612l-0.63804-1.3021c-0.13362-0.26492-0.35228-0.43511-0.54785-0.45678z" fill="url(#linearGradient4885)" opacity=".25"/>
  <g id="g4147" transform="matrix(1.1121 .29798 .29798 -1.1121 -.048307 19.85)">
   <rect id="rect3483" transform="matrix(-1 .0012341 -.0029936 1 0 0)" x="-6.9799" y="16.557" width="2.8841" height="2.448" rx=".71411" ry=".45901" fill="url(#linearGradient6450)"/>
   <path id="rect2480" d="M 7,6 5.5263594,1.979272 4.0316321,6.003405 4,15.077 6.9683651,15.073595 7,6 z" fill="url(#linearGradient6447)"/>
   <path id="path3274" d="m5.7949 2.8095 1.0506 2.8122s0.11676 0.24474 0.17415 0.38609c0.047746 0.095066-0.49306 0.23918-0.75772-0.23733-0.30761 0.66883-1.4029 0.51074-1.5049 0.0033387-0.086896 0.25208-0.44221 0.43738-0.75181 0.22625 0.059444-0.13465 0.11041-0.22552 0.11041-0.22552l1.1063-2.9421 0.57302-0.022972z" fill="url(#linearGradient6441)" fill-rule="evenodd"/>
   <rect id="rect6452" transform="matrix(-1 .0013312 -.0027752 1 0 0)" x="-7.0076" y="14.005" width="2.9604" height="3" fill="url(#linearGradient6454)"/>
   <path id="path3272" d="m6.2582 3.9586-1.457 0.0097361 0.70611-2.0051" fill="url(#linearGradient6444)" fill-rule="evenodd"/>
  </g>
 </g>
</svg>
