<?xml version="1.0" encoding="UTF-8"?>
<svg id="svg2" width="24" height="24" version="1.1" xmlns="http://www.w3.org/2000/svg" xmlns:cc="http://creativecommons.org/ns#" xmlns:dc="http://purl.org/dc/elements/1.1/" xmlns:rdf="http://www.w3.org/1999/02/22-rdf-syntax-ns#">
 <metadata id="metadata49">
  <rdf:RDF>
   <cc:Work rdf:about="">
    <dc:format>image/svg+xml</dc:format>
    <dc:type rdf:resource="http://purl.org/dc/dcmitype/StillImage"/>
   </cc:Work>
  </rdf:RDF>
 </metadata>
 <defs id="defs4">
  <linearGradient id="linearGradient3335" x1="11.375" x2="11.375" y1="22" y2="-9.8173" gradientUnits="userSpaceOnUse">
   <stop id="stop3330" offset="0"/>
   <stop id="stop3333" stop-opacity="0" offset="1"/>
  </linearGradient>
  <linearGradient id="linearGradient3181" x1="-3.0608" x2="-3.0608" y1="27.258" y2="7.2537" gradientTransform="translate(12.119 -7.2582)" gradientUnits="userSpaceOnUse">
   <stop id="stop3189" stop-color="#dd4814" offset="0"/>
   <stop id="stop3191" stop-color="#f90" offset="1"/>
  </linearGradient>
  <filter id="filter3194" x="-.18" y="-.18" width="1.36" height="1.36" color-interpolation-filters="sRGB">
   <feGaussianBlur id="feGaussianBlur3196" stdDeviation="1.2"/>
  </filter>
  <clipPath id="clipPath2849">
   <rect id="rect2851" x="1" y="1" width="20" height="20" rx="2" ry="2" fill="#fff" fill-rule="evenodd"/>
  </clipPath>
  <linearGradient id="linearGradient3845" x1="11" x2="21" y1="19.5" y2="19.5" gradientTransform="translate(1,-1)" gradientUnits="userSpaceOnUse" spreadMethod="reflect">
   <stop id="stop3833" stop-color="#fff" offset="0"/>
   <stop id="stop3821" stop-color="#fff" stop-opacity=".49804" offset=".75"/>
   <stop id="stop3835" stop-color="#fff" stop-opacity="0" offset="1"/>
  </linearGradient>
  <linearGradient id="linearGradient3961" x1="10" x2="10" y1="1" y2="16" gradientTransform="translate(1,-1)" gradientUnits="userSpaceOnUse">
   <stop id="stop3825" stop-color="#fff" offset="0"/>
   <stop id="stop3829" stop-color="#fff" stop-opacity="0" offset="1"/>
  </linearGradient>
 </defs>
 <g id="layer1" transform="translate(0,2)">
  <g id="g3337" transform="translate(1,-1)">
   <rect id="rect3371" x=".5" y=".5" width="21" height="21.5" rx="2.5" ry="2.5" fill="url(#linearGradient3335)" opacity=".3"/>
   <rect id="rect2553" x="1" y="2" width="20" height="20" rx="2.381" ry="2.3256" opacity=".5"/>
  </g>
  <rect id="rect3173" x="2" width="20" height="20" rx="2" ry="2" fill="url(#linearGradient3181)" fill-rule="evenodd"/>
  <path id="rect3050" d="m4 0c-1.108 0-2 0.892-2 2v16c0 1.108 0.892 2 2 2h16c1.108 0 2-0.892 2-2v-16c0-1.108-0.892-2-2-2h-16zm0 1.0312h16c0.5497 0 0.96875 0.41905 0.96875 0.96875v16c0 0.5497-0.41905 0.96875-0.96875 0.96875h-16c-0.5497 0-0.96875-0.41905-0.96875-0.96875v-16c0-0.5497 0.41905-0.96875 0.96875-0.96875z" fill="url(#linearGradient3961)" fill-rule="evenodd" opacity=".35"/>
  <path id="path3235" d="m4 20c-1.108 0-2-0.892-2-2v-1c0 1.108 0.892 2 2 2h16c1.108 0 2-0.892 2-2v1c0 1.108-0.892 2-2 2h-16z" fill="url(#linearGradient3845)" fill-rule="evenodd" opacity=".2"/>
 </g>
 <g id="layer2" transform="translate(0,2)">
  <rect id="rect2410" transform="translate(1,-1)" x="3" y="3" width="16" height="16" rx="2" ry="2" clip-path="url(#clipPath2849)" fill="#fff" filter="url(#filter3194)" opacity=".15"/>
 </g>
 <g id="main">
  <path id="path39" d="m8.1484 6.0176c-0.48956 0.022003-0.9723 0.12437-1.4238 0.32617-0.24851 0.45958-0.37029 1.0461-0.24219 1.6641 0.073114-0.37106 0.21601-0.71028 0.41797-0.96875 0.31179-0.34308 0.66815-0.539 1.0273-0.64844 0.060311-0.13635 0.13304-0.26197 0.2207-0.37305zm1.1719 0.070312c-0.027497 0.039602-0.057113 0.077609-0.078125 0.12305-0.014303 0.030805-0.020755 0.063664-0.03125 0.095703 0.084076 0.0098805 0.17827 0.014899 0.25391 0.027344-0.10606 0.014396-0.19011 0.053671-0.28711 0.078125-0.044454 0.22942-8.414e-4 0.48162 0.11328 0.7207 0.28968-0.48043 0.9992-0.57836 1.6836-0.20898 0.35916 0.19432 0.61585 0.48739 0.75586 0.79883 0.017035-0.028695 0.037658-0.054518 0.050781-0.085937 0.031449-0.075418 0.049968-0.15649 0.060547-0.24023-0.20541-0.27177-0.44617-0.50604-0.73242-0.67969-0.43282-0.26225-1.0752-0.50448-1.7891-0.62891zm-1.5039 1.625c-0.019094 0.074937-0.038426 0.14974-0.050781 0.23047-0.1393 0.90816 0.43172 1.8242 1.3574 2.3789 0.78277 0.46868 1.8837 0.49018 2.5098-0.048828 0.14523-0.38382 0.30502-0.87706 0.39063-1.541-0.3965 1.0755-1.9102 1.1827-2.9004 0.58984-0.66195-0.39666-1.1369-0.97801-1.3066-1.6094zm-2.7695 0.75391c-0.082575 0.50388-0.047604 1.0489 0.14453 1.5977 0.516 1.4758 1.8156 2.4314 2.8848 2.8672 0.99208 0.40424 1.7131 0.44059 2.3633 0.42383 0.039286-0.2047 0.081825-0.37697 0.12109-0.48633l1.0195-0.1582c-0.037214 0.18133-0.060745 0.36248-0.074219 0.54102 0.40563-0.066112 0.83613-0.14688 1.2715-0.23047 0.044437-0.31889 0.17142-0.58343 0.38476-0.83984-0.41012-0.00328-0.85028-0.006313-1.1465-0.017579-0.49426 0.093197-0.96326 0.17012-1.3418 0.18555-0.7105 0.0287-1.4875 0.034402-2.5977-0.41797-1.0692-0.4358-2.3688-1.3914-2.8848-2.8672-0.070238-0.2006-0.11311-0.39933-0.14453-0.59766zm7.4414 0.7207c-0.049527 0.5074-0.16274 1.0485-0.35742 1.6211l-0.33984-0.00586c-0.040359 0.13776-0.070825 0.24085-0.11133 0.35547 0.099559 8.21e-4 0.23037 0.005859 0.3125 0.005859 0.080864 0.00332 0.22448 0.002867 0.31641 0.003907 0.18045-0.72195 0.23595-1.3863 0.17969-1.9805zm1.7012 3.0488c-0.12875 0.27928-0.098266 0.61297 0.052735 0.92578 0.2101-0.34724 0.63853-0.50227 1.1172-0.41602h0.001953c0.18449 0.03213 0.37334 0.099185 0.55859 0.20312 0.34819 0.19554 0.61288 0.48352 0.75977 0.79102 0.016061-0.026475 0.035525-0.049327 0.048828-0.078125 0.025448-0.054809 0.039188-0.11345 0.052734-0.17188-0.003551-0.005236-0.006197-0.010379-0.009766-0.015625 0.003588 0.002684 0.00811 0.00703 0.011719 0.009766 0.022467-0.10002 0.023739-0.20265 0.013672-0.30859-0.30216-0.20953-0.63393-0.40458-1.0039-0.57422-0.48214-0.22153-1.044-0.31265-1.6035-0.36523zm3.1113 1.3262c0.015129 0.054475 0.042522 0.096388 0.054688 0.1543 0.028814 0.13952 0.030468 0.26414 0.037109 0.39062 0.32932 0.42057 0.63178 0.96532 0.75781 1.5508 0.087081-0.43255 0.044909-0.8649-0.083985-1.2754-0.21591-0.28631-0.4691-0.56313-0.76562-0.82031zm-5.7207 0.14844-0.076172 0.011718c0.005037 0.10332 0.019262 0.20488 0.033203 0.30664 0.013756-0.10577 0.021077-0.21169 0.042969-0.31836zm1.2461 0.09375c-0.023222 0.080915-0.046149 0.16141-0.056641 0.25-0.11368 0.96238 0.51249 1.9674 1.4609 2.4707 0.94926 0.50417 2.0048 0.58812 2.6133 0.013671 0.4515-0.40614 0.68172-0.99912 0.51172-1.8223-0.001973-0.00939-0.00576-0.016097-0.007813-0.025391-0.085414 0.34154-0.25663 0.62522-0.50391 0.84766-0.6085 0.57445-1.664 0.4905-2.6133-0.013671-0.70144-0.37222-1.2241-1.0197-1.4043-1.7207zm-2.418 0.74609c-0.011071 0.074795-0.024556 0.13131-0.033203 0.2168-0.12306 1.2421 0.60373 2.9949 2.0527 4.1113 1.8562 1.4309 4.9319 1.6521 6.1504-0.28516 0.35949-0.57174 0.48994-1.3343 0.37305-2.1387-0.055662 0.41958-0.16901 0.81417-0.37305 1.1387-1.2185 1.9372-4.2942 1.7161-6.1504 0.28516-1.1655-0.89795-1.8546-2.2035-2.0195-3.3281z" opacity=".3"/>
  <path id="base" transform="translate(4,4)" d="m6.5607 8.8692c-0.06314 0.17584-0.14249 0.46857-0.18599 0.89861-0.12306 1.2421 0.605 2.9955 2.054 4.1119 1.8562 1.4309 4.9302 1.6514 6.1487-0.28581 0.98874-1.5725 0.31374-4.5712-2.7845-5.9918-1.1955-0.54931-2.883-0.4011-3.8015-0.4388-0.48049 0-1.3035-0.00298-1.9512-0.13834-1.6822-0.35329-2.8735-1.2368-3.4187-2.5506-0.37874-0.91508-0.17125-1.8591 0.2785-2.4347 0.79374-0.8734 1.8737-0.81921 2.5647-0.70552-0.96324 0.13075-1.5575 0.67815-1.7 1.6092-0.1393 0.90816 0.4335 1.8248 1.3592 2.3795 0.99023 0.5929 2.5022 0.48478 2.8987-0.59074-0.13202 1.024-0.4745 1.8095-0.597 2.0645l0.70475 0.0119c0.81474-2.3962 0.2935-4.2936-1.021-5.091-1.1337-0.68691-3.7012-1.2636-5.2422 0.16921-0.78698 0.73182-1.104 1.954-0.67525 3.1785 0.516 1.4758 1.815 2.4308 2.8842 2.8666 1.1102 0.45237 1.8867 0.44733 2.5972 0.41863 0.73724-0.030048 1.8192-0.29724 2.758-0.45237-0.387 0.36312-0.60799 0.70285-0.66175 1.1568-0.11368 0.96238 0.51325 1.9678 1.4617 2.4711 0.94926 0.50417 2.0035 0.58784 2.612 0.01339 0.4515-0.40614 0.68275-0.99875 0.51275-1.8219-0.1043-0.49646-0.32126-0.85717-0.586-1.2461 7e-4 5.058e-4 7e-4 0.00149 1e-3 0.00298 0.79699 0.59607 2.1142 2.4892 1.0382 4.0176-0.88826 1.2639-2.8205 1.309-4.4812 0.18834-1.5745-1.062-2.0535-2.4762-1.7472-3.9687l-1.021 0.15778zm1.2207-5.2321c-0.22301 0.53392-1.0312 0.67895-1.7325 0.28581-0.70024-0.39393-1.063-1.1603-0.80675-1.7122 0.25501-0.55145 1.0095-0.67682 1.7315-0.28715 0.72124 0.39021 1.0305 1.1794 0.80774 1.7136zm4.9465 6.0244c-0.25474 0.55144-1.0307 0.67974-1.732 0.28635-0.70076-0.39367-1.0632-1.1605-0.80726-1.7125 0.18775-0.40508 0.65726-0.58251 1.1717-0.48981h4.76e-4c0.18449 0.032131 0.3745 0.099515 0.55975 0.20346 0.70098 0.39367 1.064 1.1595 0.80724 1.7125z" fill="#fff"/>
 </g>
</svg>
