<?xml version="1.0" encoding="UTF-8"?>
<!-- Created with Inkscape (http://www.inkscape.org/) -->
<svg id="svg2" width="22" height="22" version="1.1" xmlns="http://www.w3.org/2000/svg" xmlns:cc="http://creativecommons.org/ns#" xmlns:dc="http://purl.org/dc/elements/1.1/" xmlns:rdf="http://www.w3.org/1999/02/22-rdf-syntax-ns#" xmlns:xlink="http://www.w3.org/1999/xlink">
 <defs id="defs4">
  <linearGradient id="linearGradient3335" x1="11.375" x2="11.375" y1="22" y2="-9.8173" gradientUnits="userSpaceOnUse">
   <stop id="stop3330" offset="0"/>
   <stop id="stop3333" stop-opacity="0" offset="1"/>
  </linearGradient>
  <linearGradient id="linearGradient3181" x1="-3.0608" x2="-3.0608" y1="27.258" y2="7.2537" gradientTransform="translate(11.119 -28.258)" gradientUnits="userSpaceOnUse">
   <stop id="stop4148-2-7" stop-color="#3abef0" offset="0"/>
   <stop id="stop4150-8-4" stop-color="#0f96c9" offset="1"/>
  </linearGradient>
  <filter id="filter3194" x="-.18" y="-.18" width="1.36" height="1.36" color-interpolation-filters="sRGB">
   <feGaussianBlur id="feGaussianBlur3196" stdDeviation="1.2"/>
  </filter>
  <clipPath id="clipPath2849">
   <rect id="rect2851" x="1" y="1" width="20" height="20" rx="2" ry="2" fill="#fff" fill-rule="evenodd"/>
  </clipPath>
  <linearGradient id="linearGradient3845" x1="11" x2="21" y1="19.5" y2="19.5" gradientUnits="userSpaceOnUse" spreadMethod="reflect">
   <stop id="stop3833" stop-color="#fff" offset="0"/>
   <stop id="stop3821" stop-color="#fff" stop-opacity=".49804" offset=".75"/>
   <stop id="stop3835" stop-color="#fff" stop-opacity="0" offset="1"/>
  </linearGradient>
  <linearGradient id="linearGradient4007" x1="10" x2="10" y1="1" y2="16" gradientUnits="userSpaceOnUse">
   <stop id="stop3825" stop-color="#fff" offset="0"/>
   <stop id="stop3829" stop-color="#fff" stop-opacity="0" offset="1"/>
  </linearGradient>
 </defs>
 <metadata id="metadata7">
  <rdf:RDF>
   <cc:Work rdf:about="">
    <dc:format>image/svg+xml</dc:format>
    <dc:type rdf:resource="http://purl.org/dc/dcmitype/StillImage"/>
   </cc:Work>
  </rdf:RDF>
 </metadata>
 <g id="layer1">
  <g id="g3337">
   <rect id="rect3371" x=".5" y=".5" width="21" height="21.5" rx="2.5" ry="2.5" fill="url(#linearGradient3335)" opacity=".3"/>
   <rect id="rect2553" x="1" y="2" width="20" height="20" rx="2.381" ry="2.3256" opacity=".5"/>
  </g>
  <rect id="rect3173" transform="scale(1,-1)" x="1" y="-21" width="20" height="20" rx="2" ry="2" fill="url(#linearGradient3181)" fill-rule="evenodd"/>
  <path id="rect3050" d="m3 1c-1.108 0-2 0.892-2 2v16c0 1.108 0.892 2 2 2h16c1.108 0 2-0.892 2-2v-16c0-1.108-0.892-2-2-2h-16zm0 1.0312h16c0.5497 0 0.96875 0.41905 0.96875 0.96875v16c0 0.5497-0.41905 0.96875-0.96875 0.96875h-16c-0.5497 0-0.96875-0.41905-0.96875-0.96875v-16c0-0.5497 0.41905-0.96875 0.96875-0.96875z" fill="url(#linearGradient4007)" fill-rule="evenodd" opacity=".4"/>
  <path id="path3235" d="m3 21c-1.108 0-2-0.892-2-2v-1c0 1.108 0.892 2 2 2h16c1.108 0 2-0.892 2-2v1c0 1.108-0.892 2-2 2h-16z" fill="url(#linearGradient3845)" fill-rule="evenodd" opacity=".25"/>
  <path id="path6437" d="m12.953 4.3335c-1.2638 0.38356-2.48 2.0904-2.0985 4.0212-4.1946-0.2526-6.0471-2.5004-7.161-3.5761-1.1353 2.0042 0.028943 3.9523 1.0459 4.5829-0.53671 0.029535-1.1859-0.20248-1.5081-0.40431-0.12244 1.849 1.3842 3.1308 2.666 3.463-0.40977 0.12222-0.79593 0.13866-1.4561 0.040443 0.56215 1.8596 2.0724 2.3574 3.1974 2.4393-1.4483 1.2568-3.1876 1.5308-5.0787 1.4384 4.9034 2.9999 9.855 1.1543 12.265-1.2 2.0238-1.977 2.9285-4.9374 2.9598-7.5863 0.46321-0.37646 1.3998-1.1744 1.6544-1.7989-0.36941 0.14211-1.1002 0.4802-1.8628 0.51059 0.62805-0.41153 1.3478-1.2362 1.4232-1.8809-0.6954 0.37875-1.5001 0.70691-2.1893 0.81156-1.2993-1.2543-2.5645-1.2532-3.8572-0.86084z" fill="#fff"/>
 </g>
 <g id="layer2" display="none">
  <rect id="rect2410" x="3" y="3" width="16" height="16" rx="2" ry="2" clip-path="url(#clipPath2849)" display="inline" fill="#fff" filter="url(#filter3194)" opacity=".15"/>
 </g>
</svg>
