<?xml version="1.0" encoding="UTF-8"?>
<!-- Created with Inkscape (http://www.inkscape.org/) -->
<svg id="svg2" width="24" height="24" version="1.1" xmlns="http://www.w3.org/2000/svg" xmlns:cc="http://creativecommons.org/ns#" xmlns:dc="http://purl.org/dc/elements/1.1/" xmlns:rdf="http://www.w3.org/1999/02/22-rdf-syntax-ns#" xmlns:xlink="http://www.w3.org/1999/xlink">
 <defs id="defs4">
  <linearGradient id="linearGradient3335" x1="11.375" x2="11.375" y1="22" y2="-9.8173" gradientUnits="userSpaceOnUse">
   <stop id="stop3330" offset="0"/>
   <stop id="stop3333" stop-opacity="0" offset="1"/>
  </linearGradient>
  <linearGradient id="linearGradient3181" x1="-3.0608" x2="-3.0608" y1="27.258" y2="7.2537" gradientTransform="translate(12.119 -7.2582)" gradientUnits="userSpaceOnUse">
   <stop id="stop3678" stop-color="#68d003" offset="0"/>
   <stop id="stop3680" stop-color="#c0f988" offset="1"/>
  </linearGradient>
  <filter id="filter3194" x="-.18" y="-.18" width="1.36" height="1.36" color-interpolation-filters="sRGB">
   <feGaussianBlur id="feGaussianBlur3196" stdDeviation="1.2"/>
  </filter>
  <clipPath id="clipPath2849">
   <rect id="rect2851" x="1" y="1" width="20" height="20" rx="2" ry="2" fill="#fff" fill-rule="evenodd"/>
  </clipPath>
  <linearGradient id="linearGradient3817" x1="12.75" x2="83.25" y1="48" y2="48" gradientTransform="matrix(0 -.244 .244 0 .28779 21.712)" gradientUnits="userSpaceOnUse">
   <stop id="stop3705" stop-color="#a8e66c" offset="0"/>
   <stop id="stop3707" stop-color="#dbfabd" offset="1"/>
  </linearGradient>
  <radialGradient id="radialGradient3694" cx="12" cy="10" r="9" gradientTransform="matrix(.95063 0 0 .95063 .59247 .49372)" gradientUnits="userSpaceOnUse">
   <stop id="stop3769" stop-color="#6bd107" offset="0"/>
   <stop id="stop3771" stop-color="#6bd107" stop-opacity="0" offset="1"/>
  </radialGradient>
  <filter id="filter3723">
   <feGaussianBlur id="feGaussianBlur3725" stdDeviation="0.54"/>
  </filter>
  <linearGradient id="linearGradient3845" x1="11" x2="21" y1="19.5" y2="19.5" gradientTransform="translate(1,-1)" gradientUnits="userSpaceOnUse" spreadMethod="reflect">
   <stop id="stop3833" stop-color="#fff" offset="0"/>
   <stop id="stop3821" stop-color="#fff" stop-opacity=".49804" offset=".75"/>
   <stop id="stop3835" stop-color="#fff" stop-opacity="0" offset="1"/>
  </linearGradient>
  <linearGradient id="linearGradient4007" x1="10" x2="10" y1="1" y2="16" gradientTransform="translate(1,-1)" gradientUnits="userSpaceOnUse">
   <stop id="stop3825" stop-color="#fff" offset="0"/>
   <stop id="stop3829" stop-color="#fff" stop-opacity="0" offset="1"/>
  </linearGradient>
 </defs>
 <metadata id="metadata7">
  <rdf:RDF>
   <cc:Work rdf:about="">
    <dc:format>image/svg+xml</dc:format>
    <dc:type rdf:resource="http://purl.org/dc/dcmitype/StillImage"/>
    <dc:title/>
   </cc:Work>
  </rdf:RDF>
 </metadata>
 <g id="layer1" transform="translate(0,2)">
  <g id="g3337" transform="translate(1,-1)">
   <rect id="rect3371" x=".5" y=".5" width="21" height="21.5" rx="2.5" ry="2.5" fill="url(#linearGradient3335)" opacity=".3"/>
   <rect id="rect2553" x="1" y="2" width="20" height="20" rx="2.381" ry="2.3256" opacity=".5"/>
  </g>
  <rect id="rect3173" x="2" width="20" height="20" rx="2" ry="2" fill="url(#linearGradient3181)" fill-rule="evenodd"/>
  <path id="rect3050" d="m4 0c-1.108 0-2 0.892-2 2v16c0 1.108 0.892 2 2 2h16c1.108 0 2-0.892 2-2v-16c0-1.108-0.892-2-2-2h-16zm0 1.0312h16c0.5497 0 0.96875 0.41905 0.96875 0.96875v16c0 0.5497-0.41905 0.96875-0.96875 0.96875h-16c-0.5497 0-0.96875-0.41905-0.96875-0.96875v-16c0-0.5497 0.41905-0.96875 0.96875-0.96875z" fill="url(#linearGradient4007)" fill-rule="evenodd" opacity=".5"/>
  <path id="path3235" d="m4 20c-1.108 0-2-0.892-2-2v-1c0 1.108 0.892 2 2 2h16c1.108 0 2-0.892 2-2v1c0 1.108-0.892 2-2 2h-16z" fill="url(#linearGradient3845)" fill-rule="evenodd" opacity=".3"/>
 </g>
 <g id="layer2" transform="translate(0,2)">
  <rect id="rect2410" transform="translate(1,-1)" x="3" y="3" width="16" height="16" rx="2" ry="2" clip-path="url(#clipPath2849)" fill="#fff" filter="url(#filter3194)" opacity=".15"/>
 </g>
 <g id="layer3" transform="translate(0,2)">
  <path id="path3709" transform="matrix(.95063 0 0 .95063 .59247 .49372)" d="m10.125 1c-1.1436 0.23829-2.2118 0.69237-3.1562 1.3125 0.02753 0.6882-0.2253 1.3816-0.75 1.9062-0.5247 0.5247-1.2181 0.77753-1.9062 0.75-0.62013 0.94447-1.0742 2.0127-1.3125 3.1562 0.51017 0.46682 0.84375 1.129 0.84375 1.875s-0.33358 1.4082-0.84375 1.875c0.23829 1.1436 0.69237 2.2118 1.3125 3.1562 0.6882-0.02753 1.3816 0.2253 1.9062 0.75 0.5247 0.5247 0.77753 1.2181 0.75 1.9062 0.94447 0.62013 2.0127 1.0742 3.1562 1.3125 0.46682-0.51017 1.129-0.84375 1.875-0.84375s1.4082 0.33358 1.875 0.84375c1.1399-0.23752 2.2141-0.69547 3.1562-1.3125-0.0016-0.03685 0-0.0569 0-0.09375 0-0.65342 0.25146-1.314 0.75-1.8125 0.5247-0.5247 1.2181-0.77753 1.9062-0.75 0.62013-0.94447 1.0742-2.0127 1.3125-3.1562-0.51017-0.46682-0.84375-1.129-0.84375-1.875s0.33358-1.4082 0.84375-1.875c-0.23829-1.1436-0.69237-2.2118-1.3125-3.1562-0.6882 0.02753-1.3816-0.2253-1.9062-0.75-0.49854-0.49854-0.75-1.1591-0.75-1.8125 0-0.03685-0.0016-0.056898 0-0.09375-0.9422-0.61703-2.0164-1.075-3.1562-1.3125-0.46682 0.51017-1.129 0.84375-1.875 0.84375s-1.4082-0.33358-1.875-0.84375zm1.875 6.9688c1.1281 0 2.0312 0.90318 2.0312 2.0312s-0.90318 2.0312-2.0312 2.0312-2.0312-0.90318-2.0312-2.0312 0.90318-2.0312 2.0312-2.0312z" color="#000000" filter="url(#filter3723)" opacity=".8"/>
  <path id="path3683" d="m10.2 1.3988c-1.0929 0.22773-2.1093 0.6655-3.0119 1.2581 0.02631 0.6577-0.2077 1.321-0.70914 1.8224-0.50144 0.50144-1.1647 0.73544-1.8224 0.70914-0.59264 0.90262-1.0304 1.919-1.2581 3.0119 0.48756 0.44613 0.79301 1.0866 0.79301 1.7995s-0.30545 1.3534-0.79301 1.7995c0.22773 1.0929 0.6655 2.1093 1.2581 3.0119 0.6577-0.02631 1.321 0.2077 1.8224 0.70914 0.50144 0.50144 0.73544 1.1647 0.70914 1.8224 0.90262 0.59264 1.919 1.0304 3.0119 1.2581 0.44613-0.48756 1.0866-0.79302 1.7995-0.79302s1.3534 0.30546 1.7995 0.79302c1.0893-0.22699 2.1039-0.66084 3.0043-1.2505-0.0015-0.03522 0-0.07153 0-0.10675 0-0.62446 0.24032-1.2468 0.71676-1.7233 0.50144-0.50144 1.1647-0.73544 1.8224-0.70914 0.59264-0.90262 1.0304-1.919 1.2581-3.0119-0.48756-0.44613-0.79302-1.0866-0.79302-1.7995s0.30546-1.3534 0.79302-1.7995c-0.22773-1.0929-0.6655-2.1093-1.2581-3.0119-0.6577 0.02631-1.321-0.2077-1.8224-0.70914-0.47645-0.47645-0.71676-1.0988-0.71676-1.7233 0-0.03522-0.0015-0.07153 0-0.10675-0.90044-0.58968-1.915-1.0235-3.0043-1.2505-0.44613 0.48756-1.0866 0.79302-1.7995 0.79302s-1.3534-0.30546-1.7995-0.79302zm1.7995 6.6491c1.0781 0 1.952 0.87396 1.952 1.952s-0.87396 1.952-1.952 1.952-1.952-0.87396-1.952-1.952 0.87396-1.952 1.952-1.952z" color="#000000" fill="url(#linearGradient3817)"/>
  <path id="path3690" d="m10.21 1.4444c-1.0871 0.22652-2.0982 0.66198-2.996 1.2515 0.026171 0.65422-0.2066 1.314-0.70539 1.8128-0.49879 0.49879-1.1585 0.73155-1.8128 0.70539-0.58951 0.89784-1.025 1.9089-1.2515 2.996 0.48498 0.44377 0.78882 1.0808 0.78882 1.79s-0.30384 1.3462-0.78882 1.79c0.22652 1.0871 0.66198 2.0982 1.2515 2.996 0.65422-0.02618 1.314 0.2066 1.8128 0.70539 0.49879 0.49879 0.73155 1.1585 0.70539 1.8128 0.89784 0.58951 1.9089 1.025 2.996 1.2515 0.44377-0.48498 1.0808-0.78882 1.79-0.78882s1.3462 0.30384 1.79 0.78882c1.0836-0.22579 2.0927-0.65734 2.9884-1.2439-0.0015-0.03503 0-0.07115 0-0.10619 0-0.62116 0.23904-1.2402 0.71297-1.7142 0.49879-0.49879 1.1585-0.73155 1.8128-0.70539 0.58951-0.89784 1.025-1.9089 1.2515-2.996-0.48498-0.44377-0.78882-1.0808-0.78882-1.79s0.30384-1.3462 0.78882-1.79c-0.22652-1.0871-0.66198-2.0982-1.2515-2.996-0.65422 0.02617-1.314-0.2066-1.8128-0.70539-0.47393-0.47393-0.71297-1.093-0.71297-1.7142 0-0.03503-0.0015-0.07115 0-0.10619-0.89568-0.58656-1.9048-1.0181-2.9884-1.2439-0.44377 0.48498-1.0808 0.78882-1.79 0.78882s-1.3462-0.30384-1.79-0.78882zm1.79 6.6139c1.0724 0 1.9417 0.86933 1.9417 1.9417s-0.86933 1.9417-1.9417 1.9417-1.9417-0.86933-1.9417-1.9417 0.86933-1.9417 1.9417-1.9417z" color="#000000" fill="url(#radialGradient3694)"/>
  <path id="path3324" d="m14.603 4.1601c-0.67023 0-1.2129 0.54567-1.2129 1.2184 0 0.67269 0.54271 1.2184 1.2129 1.2184s1.2129-0.54567 1.2129-1.2184c0-0.67269-0.54271-1.2184-1.2129-1.2184zm-2.5616 0.95424c-0.74803 9.8e-5 -1.5064 0.18973-2.1884 0.52824-0.02425 0.01208-0.03937 0.03353-0.04665 0.05964-0.0074 0.02611-0.0059 0.05368 0.0085 0.07668l0.98392 1.5634c0.02493 0.03976 0.07558 0.05656 0.11875 0.03834 0.36417-0.15464 0.74206-0.23004 1.1239-0.23004 1.4045 0 2.6298 1.0454 2.85 2.4325 0.0074 0.04658 0.04645 0.08094 0.0933 0.08094h1.8491c0.02697 0 0.05396-0.0097 0.0721-0.02982 0.01814-0.02007 0.02797-0.04533 0.02545-0.07242-0.09972-1.0292-0.53776-2.0256-1.2299-2.7988-0.03124-0.03508-0.08351-0.03841-0.12299-0.01278-0.27909 0.18104-0.59575 0.2769-0.91607 0.2769-0.93447 0-1.6921-0.76258-1.6922-1.6955 9.7e-5 -4.86e-4 0-0.03252 0-0.03408 0-0.04648-0.0347-0.08999-0.08058-0.09798-0.29219-0.05086-0.57582-0.0852-0.84821-0.0852zm-2.9687 1.0224c-0.0128 0.0032-0.02764 0.0088-0.03817 0.01704-0.80206 0.62051-1.4036 1.4932-1.6964 2.458-0.01145 0.03771-0.0013 0.07768 0.02969 0.10224 0.40307 0.32068 0.64464 0.8143 0.64464 1.3206s-0.24148 0.99992-0.64464 1.3206c-0.03075 0.02446-0.04113 0.06443-0.02969 0.10224 0.29054 0.95677 0.88729 1.8261 1.6795 2.4452 0.02125 0.01666 0.04552 0.02598 0.0721 0.0213 0.02648-0.0046 0.04916-0.02416 0.06362-0.04686l0.99241-1.5592c0.02532-0.03985 0.01844-0.09226-0.01697-0.12354-0.62172-0.54947-0.97968-1.3373-0.97968-2.1598 0-0.82864 0.35994-1.6187 0.98817-2.1683 0.03541-0.03108 0.04633-0.08349 0.02121-0.12354l-0.98392-1.5634c-0.01436-0.0228-0.03713-0.03792-0.06362-0.0426-0.01324-0.0023-0.02536-0.0032-0.03817 0zm-2.7355 2.6753c-0.68593 0-1.2426 0.55967-1.2426 1.2482s0.5567 1.2439 1.2426 1.2439c0.68593 0 1.2426-0.55541 1.2426-1.2439s-0.5567-1.2482-1.2426-1.2482zm10.497 1.6103-1.8491 0.0043c-0.04666 9.8e-5 -0.09008 0.03475-0.09755 0.08094-0.22321 1.3767-1.4452 2.4154-2.8457 2.4154-0.38628 0-0.76836-0.08012-1.1366-0.23856-0.04307-0.01842-0.09343-0.0054-0.11875 0.03408l-0.99241 1.5634c-0.01445 0.0229-0.01566 0.05047-0.0085 0.07668 0.0072 0.02611 0.0225 0.04756 0.04665 0.05964 0.6873 0.34562 1.4529 0.52824 2.2096 0.52824 0.28064 0 0.57364-0.02822 0.86942-0.08094 0.04152-0.0073 0.07139-0.03894 0.07634-0.08094 0.09856-0.85504 0.81845-1.4995 1.6752-1.4995 0.26561 0 0.53897 0.06734 0.7846 0.19596 0.03735 0.01959 0.08068 0.01326 0.11027-0.01704 0.77461-0.79346 1.2643-1.8396 1.3741-2.9394 0.0027-0.02699-0.0072-0.05225-0.02545-0.07242-0.01824-0.02017-0.04513-0.02992-0.0721-0.02982zm-2.1841 3.293c-0.68593 0-1.2426 0.5547-1.2426 1.2397s0.5567 1.2397 1.2426 1.2397c0.68593 0 1.2426-0.5547 1.2426-1.2397s-0.5567-1.2397-1.2426-1.2397z"/>
  <path id="path3696" d="m10.218 1.4444c-1.0871 0.22652-2.1026 0.65819-3.0004 1.2477 0.026171 0.65422-0.21418 1.3133-0.71297 1.8121-0.49879 0.49879-1.1579 0.73914-1.8121 0.71297-0.58951 0.89784-1.0212 1.9133-1.2477 3.0004 0.48498 0.44377 0.80209 1.0732 0.80209 1.7824s-0.31711 1.3387-0.80209 1.7824c0.22652 1.0871 0.65819 2.1026 1.2477 3.0004 0.65422-0.02617 1.3133 0.21418 1.8121 0.71297 0.49879 0.49879 0.73914 1.1579 0.71297 1.8121 0.89784 0.58951 1.9133 1.0212 3.0004 1.2477 0.44377-0.48498 1.0732-0.80209 1.7824-0.80209s1.3387 0.31711 1.7824 0.80209c1.0836-0.22579 2.1047-0.66114 3.0004-1.2477-0.0015-0.03503 0-0.05409 0-0.08912 0-0.62116 0.23904-1.2491 0.71297-1.723 0.49879-0.49879 1.1579-0.73914 1.8121-0.71297 0.58951-0.89784 1.0212-1.9133 1.2477-3.0004-0.48498-0.44377-0.80209-1.0732-0.80209-1.7824s0.31711-1.3387 0.80209-1.7824c-0.22652-1.0871-0.65819-2.1026-1.2477-3.0004-0.65422 0.02617-1.3133-0.21418-1.8121-0.71297-0.47393-0.47393-0.71297-1.1019-0.71297-1.723 0-0.03503-0.0015-0.05409 0-0.08912-0.89568-0.58656-1.9168-1.0219-3.0004-1.2477-0.44377 0.48498-1.0732 0.80209-1.7824 0.80209s-1.3387-0.31711-1.7824-0.80209zm-0.08912 0.80209c0.52677 0.41195 1.1443 0.71297 1.8715 0.71297s1.3448-0.30102 1.8715-0.71297c0.81465 0.19833 1.5889 0.5236 2.2874 0.95063 0.08976 0.66176 0.32586 1.3062 0.8318 1.8121 0.50421 0.50421 1.1491 0.74148 1.8121 0.8318 0.42838 0.69895 0.75212 1.4704 0.95063 2.2874-0.41195 0.52677-0.71297 1.1443-0.71297 1.8715 0 0.72728 0.30102 1.3448 0.71297 1.8715-0.19851 0.81706-0.52225 1.5885-0.95063 2.2874-0.663 0.09032-1.3079 0.32759-1.8121 0.8318-0.50594 0.50594-0.74204 1.1504-0.8318 1.8121-0.69852 0.42703-1.4728 0.7523-2.2874 0.95063-0.52677-0.41195-1.1443-0.71297-1.8715-0.71297s-1.3448 0.30102-1.8715 0.71297c-0.81706-0.19851-1.5885-0.52225-2.2874-0.95063-0.090324-0.663-0.32759-1.3079-0.8318-1.8121-0.50421-0.50421-1.1491-0.74148-1.8121-0.8318-0.42838-0.69895-0.75212-1.4704-0.95063-2.2874 0.41195-0.52677 0.71297-1.1443 0.71297-1.8715 0-0.72728-0.30102-1.3448-0.71297-1.8715 0.19851-0.81706 0.52225-1.5885 0.95063-2.2874 0.66299-0.090324 1.3079-0.32759 1.8121-0.8318 0.50421-0.5042 0.74148-1.1491 0.8318-1.8121 0.69895-0.42838 1.4704-0.75212 2.2874-0.95063zm1.8715 5.1096c-1.4579 0-2.6439 1.1861-2.6439 2.6439s1.1861 2.6439 2.6439 2.6439 2.6439-1.1861 2.6439-2.6439-1.1861-2.6439-2.6439-2.6439zm0 0.71297c1.0724 0 1.931 0.85859 1.931 1.931s-0.85859 1.931-1.931 1.931-1.931-0.85859-1.931-1.931 0.85859-1.931 1.931-1.931z" color="#000000" fill="#fff" opacity=".6"/>
 </g>
</svg>
