<?xml version="1.0" encoding="UTF-8"?>
<svg id="svg2" width="24" height="24" version="1.1" xmlns="http://www.w3.org/2000/svg" xmlns:cc="http://creativecommons.org/ns#" xmlns:dc="http://purl.org/dc/elements/1.1/" xmlns:rdf="http://www.w3.org/1999/02/22-rdf-syntax-ns#">
 <metadata id="metadata58">
  <rdf:RDF>
   <cc:Work rdf:about="">
    <dc:format>image/svg+xml</dc:format>
    <dc:type rdf:resource="http://purl.org/dc/dcmitype/StillImage"/>
   </cc:Work>
  </rdf:RDF>
 </metadata>
 <defs id="defs4">
  <linearGradient id="linearGradient3335" x1="11.375" x2="11.375" y1="22" y2="-9.8173" gradientUnits="userSpaceOnUse">
   <stop id="stop3330" offset="0"/>
   <stop id="stop3333" stop-opacity="0" offset="1"/>
  </linearGradient>
  <linearGradient id="linearGradient3181" x1="-3.0608" x2="-3.0608" y1="27.258" y2="7.2537" gradientTransform="translate(12.119 -7.2582)" gradientUnits="userSpaceOnUse">
   <stop id="stop3189" stop-color="#3c3c3c" offset="0"/>
   <stop id="stop3191" stop-color="#505050" offset="1"/>
  </linearGradient>
  <filter id="filter3194" x="-.18" y="-.18" width="1.36" height="1.36" color-interpolation-filters="sRGB">
   <feGaussianBlur id="feGaussianBlur3196" stdDeviation="1.2"/>
  </filter>
  <clipPath id="clipPath2849">
   <rect id="rect2851" x="1" y="1" width="20" height="20" rx="2" ry="2" fill="#fff" fill-rule="evenodd"/>
  </clipPath>
  <linearGradient id="linearGradient3845" x1="11" x2="21" y1="19.5" y2="19.5" gradientTransform="translate(1,-1)" gradientUnits="userSpaceOnUse" spreadMethod="reflect">
   <stop id="stop3833" stop-color="#fff" offset="0"/>
   <stop id="stop3821" stop-color="#fff" stop-opacity=".49804" offset=".75"/>
   <stop id="stop3835" stop-color="#fff" stop-opacity="0" offset="1"/>
  </linearGradient>
  <linearGradient id="linearGradient3961" x1="10" x2="10" y1="1" y2="16" gradientTransform="translate(1,-1)" gradientUnits="userSpaceOnUse">
   <stop id="stop3825" stop-color="#fff" offset="0"/>
   <stop id="stop3829" stop-color="#fff" stop-opacity="0" offset="1"/>
  </linearGradient>
 </defs>
 <g id="layer1" transform="translate(0,2)">
  <g id="g3337" transform="translate(1,-1)">
   <rect id="rect3371" x=".5" y=".5" width="21" height="21.5" rx="2.5" ry="2.5" fill="url(#linearGradient3335)" opacity=".3"/>
   <rect id="rect2553" x="1" y="2" width="20" height="20" rx="2.381" ry="2.3256" opacity=".5"/>
  </g>
  <rect id="rect3173" x="2" width="20" height="20" rx="2" ry="2" fill="url(#linearGradient3181)" fill-rule="evenodd"/>
  <path id="rect3050" d="m4 0c-1.108 0-2 0.892-2 2v16c0 1.108 0.892 2 2 2h16c1.108 0 2-0.892 2-2v-16c0-1.108-0.892-2-2-2h-16zm0 1.0312h16c0.5497 0 0.96875 0.41905 0.96875 0.96875v16c0 0.5497-0.41905 0.96875-0.96875 0.96875h-16c-0.5497 0-0.96875-0.41905-0.96875-0.96875v-16c0-0.5497 0.41905-0.96875 0.96875-0.96875z" fill="url(#linearGradient3961)" fill-rule="evenodd" opacity=".35"/>
  <path id="path3235" d="m4 20c-1.108 0-2-0.892-2-2v-1c0 1.108 0.892 2 2 2h16c1.108 0 2-0.892 2-2v1c0 1.108-0.892 2-2 2h-16z" fill="url(#linearGradient3845)" fill-rule="evenodd" opacity=".2"/>
 </g>
 <g id="layer2" transform="translate(0,2)">
  <rect id="rect2410" transform="translate(1,-1)" x="3" y="3" width="16" height="16" rx="2" ry="2" clip-path="url(#clipPath2849)" fill="#fff" filter="url(#filter3194)" opacity=".15"/>
 </g>
 <defs id="defs37">
  <linearGradient id="a" x1="8" x2="8" y1="1" y2="15" gradientUnits="userSpaceOnUse">
   <stop id="stop32" stop-color="#ffdf00" offset="0"/>
   <stop id="stop34" stop-color="#ff6500" offset="1"/>
  </linearGradient>
 </defs>
 <path id="base" transform="translate(4,4)" d="m4 1-2.5 2h1.5v8c0 2.216 1.784 4 4 4h2c2.216 0 4-1.784 4-4v-8h1.5l-2.5-2-2.5 2h1.5v9c0 0.831-0.669 1.5-1.5 1.5h-3c-0.831 0-1.5-0.669-1.5-1.5v-9h1.5l-2.5-2z" fill="url(#a)"/>
 <path id="path40" d="m8 4-2.5 2h1.25l1.25-1 1.25 1h1.25l-2.5-2zm8 0-2.5 2h1.25l1.25-1 1.25 1h1.25l-2.5-2zm-7 11v1c0 0.831 0.669 1.5 1.5 1.5h3c0.831 0 1.5-0.669 1.5-1.5v-1c0 0.831-0.669 1.5-1.5 1.5h-3c-0.831 0-1.5-0.669-1.5-1.5z" opacity=".2"/>
 <path id="path45" d="m8 5-2.5 2h1.5v8c0 2.216 1.784 4 4 4h2c2.216 0 4-1.784 4-4v-8h1.5l-2.5-2-2.5 2h1.5v2 7c0 0.831-0.669 1.5-1.5 1.5h-3c-0.831 0-1.5-0.669-1.5-1.5v-7-2h1.5l-2.5-2zm0 0.64062 1.0742 0.85938h-0.074219a0.50005 0.50005 0 0 0-0.5 0.5v2 7c0 1.0994 0.90065 2 2 2h3c1.0994 0 2-0.90065 2-2v-7-2a0.50005 0.50005 0 0 0-0.5-0.5h-0.074219l1.0742-0.85938 1.0742 0.85938h-0.074219a0.50005 0.50005 0 0 0-0.5 0.5v8c0 1.9476-1.5524 3.5-3.5 3.5h-2c-1.9476 0-3.5-1.5524-3.5-3.5v-8a0.50005 0.50005 0 0 0-0.5-0.5h-0.074219l1.0742-0.85938z" opacity=".1"/>
 <path id="path50" d="m6.75 7-1.25 1h1.5v-1h-0.25zm2.25 0v1h1.5l-1.25-1h-0.25zm5.75 0-1.25 1h1.5v-1h-0.25zm2.25 0v1h1.5l-1.25-1h-0.25zm-10 8v1c0 2.216 1.784 4 4 4h2c2.216 0 4-1.784 4-4v-1c0 2.216-1.784 4-4 4h-2c-2.216 0-4-1.784-4-4z" fill="#fff" opacity=".1"/>
</svg>
