<?xml version="1.0" encoding="UTF-8"?>
<!-- Created with Inkscape (http://www.inkscape.org/) -->
<svg id="svg2" width="22" height="22" version="1.1" xmlns="http://www.w3.org/2000/svg" xmlns:cc="http://creativecommons.org/ns#" xmlns:dc="http://purl.org/dc/elements/1.1/" xmlns:rdf="http://www.w3.org/1999/02/22-rdf-syntax-ns#" xmlns:xlink="http://www.w3.org/1999/xlink">
 <defs id="defs4">
  <linearGradient id="linearGradient3181" x1="-3.0608" x2="-3.0608" y1="27.258" y2="7.2537" gradientTransform="translate(11.119 -6.2582)" gradientUnits="userSpaceOnUse">
   <stop id="stop3189" stop-color="#dcdcdc" offset="0"/>
   <stop id="stop3191" stop-color="#f0f0f0" offset="1"/>
  </linearGradient>
  <linearGradient id="linearGradient3684" x1="11.375" x2="11.375" y1="22" y2="-9.8173" gradientUnits="userSpaceOnUse">
   <stop id="stop3330" offset="0"/>
   <stop id="stop3333" stop-opacity="0" offset="1"/>
  </linearGradient>
  <linearGradient id="linearGradient3705" x1="11.645" x2="11.733" y1="1.0235" y2="7.995" gradientUnits="userSpaceOnUse">
   <stop id="stop3899" stop-color="#aec6e9" offset="0"/>
   <stop id="stop3901" stop-color="#aac3e8" stop-opacity="0" offset="1"/>
  </linearGradient>
  <clipPath id="clipPath2849">
   <rect id="rect2851" x="1" y="1" width="20" height="20" rx="2" ry="2" fill="#fff" fill-rule="evenodd"/>
  </clipPath>
  <filter id="filter3194" x="-.18" y="-.18" width="1.36" height="1.36" color-interpolation-filters="sRGB">
   <feGaussianBlur id="feGaussianBlur3196" stdDeviation="1.2"/>
  </filter>
  <linearGradient id="linearGradient3799" x1="26.607" x2="26.607" y1="25.706" y2="42.885" gradientTransform="matrix(.28571 0 0 .29412 -21.714 -2.3529)" gradientUnits="userSpaceOnUse">
   <stop id="stop3739" stop-color="#fff" offset="0"/>
   <stop id="stop3741" stop-color="#fff" stop-opacity="0" offset="1"/>
  </linearGradient>
  <linearGradient id="linearGradient3784" x1="24.334" x2="24.334" y1="55.89" y2="28.22" gradientTransform="matrix(.28571 0 0 .29412 -21.714 -22.353)" gradientUnits="userSpaceOnUse" xlink:href="#linearGradient3778"/>
  <linearGradient id="linearGradient3778">
   <stop id="stop3780" stop-color="#98b5e3" offset="0"/>
   <stop id="stop3782" stop-color="#bed1ed" offset="1"/>
  </linearGradient>
  <linearGradient id="linearGradient2965" x1="24.334" x2="24.334" y1="55.89" y2="28.22" gradientTransform="matrix(.27367 0 0 .28308 -1.389 -21.911)" gradientUnits="userSpaceOnUse" xlink:href="#linearGradient3778"/>
  <linearGradient id="linearGradient3845" x1="11" x2="21" y1="19.5" y2="19.5" gradientUnits="userSpaceOnUse" spreadMethod="reflect">
   <stop id="stop3833" stop-color="#fff" offset="0"/>
   <stop id="stop3821" stop-color="#fff" stop-opacity=".49804" offset=".75"/>
   <stop id="stop3835" stop-color="#fff" stop-opacity="0" offset="1"/>
  </linearGradient>
  <linearGradient id="linearGradient4030" x1="10" x2="10" y1="1" y2="16" gradientUnits="userSpaceOnUse">
   <stop id="stop3825" stop-color="#fff" offset="0"/>
   <stop id="stop3829" stop-color="#fff" stop-opacity="0" offset="1"/>
  </linearGradient>
 </defs>
 <metadata id="metadata7">
  <rdf:RDF>
   <cc:Work rdf:about="">
    <dc:format>image/svg+xml</dc:format>
    <dc:type rdf:resource="http://purl.org/dc/dcmitype/StillImage"/>
   </cc:Work>
  </rdf:RDF>
 </metadata>
 <g id="layer1">
  <rect id="rect3371" x=".5" y=".5" width="21" height="21.5" rx="2.5" ry="2.5" fill="url(#linearGradient3684)" opacity=".3"/>
  <path id="rect2553" d="m3.375 2c-1.319 0-2.375 1.0241-2.375 2.3125v15.375c0 1.2884 1.056 2.3125 2.375 2.3125h15.25c1.319 0 2.375-1.0241 2.375-2.3125v-15.375c0-1.2884-1.056-2.3125-2.375-2.3125h-0.625c0 0.82843-0.67157 1.5-1.5 1.5s-1.5-0.67157-1.5-1.5h-8c0 0.82843-0.67157 1.5-1.5 1.5s-1.5-0.67157-1.5-1.5h-0.625z" opacity=".5"/>
  <path id="rect3173" d="m3 1c-1.108 0-2 0.892-2 2v16c0 1.108 0.892 2 2 2h16c1.108 0 2-0.892 2-2v-16c0-1.108-0.892-2-2-2h-2.5c0.82843 0 1.5 0.67157 1.5 1.5s-0.67157 1.5-1.5 1.5-1.5-0.67157-1.5-1.5 0.67157-1.5 1.5-1.5h-11c0.82843 0 1.5 0.67157 1.5 1.5s-0.67157 1.5-1.5 1.5-1.5-0.67157-1.5-1.5 0.67157-1.5 1.5-1.5h-2.5z" fill="url(#linearGradient3181)" fill-rule="evenodd"/>
  <path id="path3199" d="m3 1c-1.108 0-2 0.892-2 2v4.9375h19.969c0.022069-1.3817 0.03125-3.6211 0.03125-4.9375 0-1.108-0.892-2-2-2h-2.5c0.82843 0 1.5 0.67157 1.5 1.5s-0.67157 1.5-1.5 1.5-1.5-0.67157-1.5-1.5 0.67157-1.5 1.5-1.5h-11c0.82843 0 1.5 0.67157 1.5 1.5s-0.67157 1.5-1.5 1.5-1.5-0.67157-1.5-1.5 0.67157-1.5 1.5-1.5h-2.5z" fill="url(#linearGradient3705)" fill-rule="evenodd"/>
  <path id="path3657" d="m4.0938 3c-0.053642 0.15432-0.09375 0.32741-0.09375 0.5 0 0.82843 0.67157 1.5 1.5 1.5s1.5-0.67157 1.5-1.5c0-0.17259-0.040108-0.34568-0.09375-0.5-0.20384 0.58641-0.75041 1-1.4062 1s-1.2024-0.41359-1.4062-1zm11 0c-0.053642 0.15432-0.09375 0.32741-0.09375 0.5 0 0.82843 0.67157 1.5 1.5 1.5s1.5-0.67157 1.5-1.5c0-0.17259-0.040108-0.34568-0.09375-0.5-0.20384 0.58641-0.75041 1-1.4062 1s-1.2024-0.41359-1.4062-1z" fill="#fff" opacity=".4"/>
  <path id="rect3050" d="m3 1c-1.108 0-2 0.892-2 2v16c0 1.108 0.892 2 2 2h16c1.108 0 2-0.892 2-2v-16c0-1.108-0.892-2-2-2h-2.5c0.66619 0 1.2106 0.43033 1.4062 1.0312h1.0938c0.5497 0 0.96875 0.41905 0.96875 0.96875v16c0 0.5497-0.41905 0.96875-0.96875 0.96875h-16c-0.5497 0-0.96875-0.41905-0.96875-0.96875v-16c0-0.5497 0.41905-0.96875 0.96875-0.96875h1.0938c0.19565-0.60092 0.74006-1.0312 1.4062-1.0312h-2.5zm2.5 0c0.66619 0 1.2106 0.43033 1.4062 1.0312h8.1875c0.19565-0.60092 0.74006-1.0312 1.4062-1.0312h-11z" fill="url(#linearGradient4030)" fill-rule="evenodd" opacity=".5"/>
  <path id="path3235" d="m3 21c-1.108 0-2-0.892-2-2v-1c0 1.108 0.892 2 2 2h16c1.108 0 2-0.892 2-2v1c0 1.108-0.892 2-2 2h-16z" fill="url(#linearGradient3845)" fill-rule="evenodd" opacity=".35"/>
 </g>
 <g id="layer2">
  <rect id="rect2410" x="3" y="3" width="16" height="16" rx="2" ry="2" clip-path="url(#clipPath2849)" fill="#fff" filter="url(#filter3194)" opacity=".3"/>
 </g>
 <g id="layer3">
  <rect id="rect3894" x="-17.5" y="5.5" width="8" height="10" fill="#ccc"/>
  <rect id="rect3764" x="-18" y="5" width="8" height="10" fill="#fff"/>
  <rect id="rect3766" transform="scale(1,-1)" x="-17.143" y="-14.118" width="6.2857" height="8.2353" fill="url(#linearGradient3784)"/>
  <path id="path3798" d="m-14 6.6459c-0.66978 0-1.2127 0.5171-1.2127 1.155 0.0016 0.073098 0.0027 0.15657 0.01011 0.24749-0.106 0.057657-0.11981 0.28314-0.02527 0.51046 0.03646 0.087654 0.08618 0.15888 0.13643 0.21656 0.0017 0.00196 0.0034 0.00329 0.0051 0.00515 0.01199 0.060056 0.02087 0.10756 0.03537 0.17531 0.04494 0.13756 0.23062 0.3963 0.39414 0.61874 0.01631 0.17159 0.01765 0.34106-0.01516 0.53624-0.47066 0.39844-1.6744 0.57748-1.6726 0.98997l-0.1617 1.0725c0 0.21973 0.32168 0.42092 0.83376 0.55686l0.07074 0.2939a0.17611 0.1797 0 0 0 0.11117 0.11859c0.02273 9e-3 0.03877 0.02795 0.10106 0.04641 0.32814 0.09721 0.82779 0.165 1.3896 0.165 0.56181 0 1.0665-0.06779 1.3947-0.165 0.06229-0.01846 0.07833-0.03744 0.10106-0.04641a0.17611 0.1797 0 0 0 0.10611-0.11344l0.0859-0.30937c0.49956-0.13573 0.8186-0.32991 0.8186-0.54655l-0.1617-1.0725c-0.0019-0.35304-1.2127-0.57748-1.6776-0.98998-0.01882-0.15801-0.01969-0.31358-0.01011-0.46921 0.14867-0.234 0.34439-0.53348 0.39414-0.68577 0.01828-0.078863 0.02623-0.13337 0.04042-0.20109 0.0439-0.054754 0.08381-0.11802 0.11622-0.19593 0.08979-0.21587 0.08141-0.4249-0.0101-0.49499 0.0064-0.0938 0.01248-0.1828 0.01516-0.26296 1e-6 -0.63787-0.54296-1.155-1.2127-1.155z" enable-background="new" fill="#4d74ad"/>
  <g id="text3704" transform="matrix(.3019 0 0 .3019 -2.5489 -1.8911)" fill="#333">
   <path id="path3878" d="m50.41 29.604v-1.4746h-1.499v1.4746h-0.72022v-3.4399h0.72022v1.3696h1.499v-1.3696h0.72022v3.4399h-0.72022"/>
   <path id="path3880" d="m55.148 27.868c-3e-6 0.26856-0.03988 0.5127-0.11963 0.73242-0.07976 0.21973-0.1945 0.40772-0.34424 0.56396-0.14974 0.15625-0.33285 0.27669-0.54932 0.36133-0.21485 0.08464-0.45817 0.12695-0.72998 0.12695-0.28809 0-0.54037-0.04394-0.75684-0.13184-0.21484-0.08952-0.39469-0.21322-0.53955-0.37109-0.14486-0.1595-0.25391-0.34831-0.32715-0.56641-0.07161-0.2181-0.10742-0.45654-0.10742-0.71533 0-0.26855 0.03744-0.51106 0.1123-0.72754 0.0765-0.21647 0.18799-0.40039 0.33447-0.55176 0.14811-0.15299 0.32959-0.27018 0.54443-0.35156 0.21647-0.08301 0.46468-0.12451 0.74463-0.12451 0.27995 4e-6 0.52734 0.04151 0.74219 0.12451 0.21647 0.08301 0.39795 0.20101 0.54443 0.354 0.14811 0.153 0.26041 0.33773 0.33691 0.5542 0.07649 0.21485 0.11474 0.45573 0.11475 0.72266m-0.73486 0c-3e-6 -0.18066-0.02197-0.34342-0.06592-0.48828-0.04232-0.14648-0.1058-0.27181-0.19043-0.37598-0.08464-0.10416-0.18962-0.18392-0.31494-0.23926-0.1237-0.05696-0.26774-0.08545-0.43213-0.08545-0.16764 3e-6 -0.31494 0.02849-0.44189 0.08545-0.12533 0.05534-0.23031 0.13509-0.31494 0.23926-0.08464 0.10417-0.14811 0.2295-0.19043 0.37598-0.04232 0.14486-0.06348 0.30762-0.06348 0.48828-1e-6 0.17904 0.02116 0.34343 0.06348 0.49316 0.04394 0.14811 0.10823 0.27588 0.19287 0.3833 0.08463 0.10742 0.18961 0.19124 0.31494 0.25146 0.12532 0.06022 0.27018 0.09033 0.43457 0.09033 0.17578 0 0.32715-0.03011 0.4541-0.09033 0.12695-0.06185 0.23112-0.14648 0.3125-0.25391 0.08301-0.10905 0.14404-0.23763 0.1831-0.38574 0.03906-0.14974 0.05859-0.3125 0.05859-0.48828"/>
   <path id="path3882" d="m55.69 29.604v-3.4399h0.72022v2.8833h1.8457v0.55664h-2.5659"/>
   <path id="path3884" d="m61.604 29.604v-2.085c-4e-6 -0.08301 8.1e-4 -0.16846 0.0024-0.25635 0.0033-0.08789 0.0065-0.16845 0.0098-0.2417 0.0049-0.08626 0.0089-0.17008 0.01221-0.25146-0.03418 0.12858-0.06674 0.25065-0.09766 0.36621-0.01302 0.04883-0.02686 0.09929-0.0415 0.15137-0.01465 0.05209-0.0293 0.10254-0.04395 0.15137-0.01302 0.04883-0.02604 0.0944-0.03906 0.13672-0.01302 0.04232-0.02442 0.07894-0.03418 0.10986l-0.62012 1.9189h-0.5127l-0.62012-1.9189c-0.0098-0.03092-0.02116-0.06754-0.03418-0.10986-0.0114-0.04231-0.02442-0.08789-0.03906-0.13672-0.01302-0.04883-0.02686-0.09928-0.0415-0.15137-0.01465-0.05208-0.0293-0.10254-0.04395-0.15137-0.03255-0.11556-0.06673-0.23763-0.10254-0.36621 0.0049 0.0944 0.0098 0.18718 0.01465 0.27832 0.0033 0.07813 0.0065 0.16032 0.0098 0.24658 0.0033 0.08626 0.0049 0.16114 0.0049 0.22461v2.085h-0.63965v-3.4399h0.96436l0.61523 1.9238c0.01627 0.05046 0.03336 0.11231 0.05127 0.18555 0.01953 0.07324 0.03825 0.14404 0.05615 0.2124 0.01953 0.07975 0.04069 0.16276 0.06348 0.24902 0.02278-0.08463 0.04476-0.16601 0.06592-0.24414 0.0098-0.03418 0.01953-0.06917 0.0293-0.10498 0.0098-0.03581 0.01953-0.0708 0.0293-0.10498 0.0098-0.03418 0.01953-0.06673 0.0293-0.09766 0.0098-0.03092 0.01872-0.05859 0.02686-0.08301l0.60547-1.936h0.95947v3.4399h-0.63965"/>
   <path id="path3886" d="m62.917 29.604v-3.4399h2.7051v0.55664h-1.9849v0.86426h1.8359v0.55664h-1.8359v0.90576h2.085v0.55664h-2.8052"/>
   <path id="path3888" d="m69.062 28.613c-3e-6 0.15625-0.02849 0.29867-0.08545 0.42725-0.05697 0.12695-0.14567 0.236-0.26611 0.32715-0.11882 0.09115-0.27181 0.16195-0.45898 0.2124-0.18555 0.04883-0.4069 0.07324-0.66406 0.07324-0.22787 0-0.42888-0.02034-0.60303-0.06104-0.17416-0.04069-0.32389-0.10091-0.44922-0.18066-0.1237-0.07975-0.22461-0.17822-0.30273-0.29541-0.0765-0.11882-0.13184-0.25472-0.16602-0.40772l0.6958-0.11475c0.01953 0.0765 0.04801 0.14648 0.08545 0.20996 0.03743 0.06348 0.0887 0.11882 0.15381 0.16602 0.06673 0.04557 0.14892 0.08138 0.24658 0.10742 0.09928 0.02442 0.21891 0.03662 0.35889 0.03662 0.24414 1e-6 0.4305-0.03662 0.55908-0.10986 0.13021-0.07487 0.19531-0.19124 0.19531-0.34912-2e-6 -0.0944-0.02604-0.17171-0.07813-0.23193-0.05209-0.06022-0.12126-0.10986-0.20752-0.14892-0.08626-0.03906-0.18555-0.07161-0.29785-0.09766-0.11231-0.02604-0.22949-0.05127-0.35156-0.07568-0.09766-0.02279-0.19531-0.04639-0.29297-0.0708-0.09766-0.02441-0.19124-0.05371-0.28076-0.08789-0.08789-0.03418-0.17008-0.07487-0.24658-0.12207-0.0765-0.0472-0.14323-0.10498-0.2002-0.17334-0.05534-0.06998-0.09928-0.15136-0.13184-0.24414-0.03092-0.09277-0.04639-0.20182-0.04639-0.32715 0-0.1709 0.03418-0.31738 0.10254-0.43945 0.06836-0.12207 0.16276-0.22135 0.2832-0.29785 0.12207-0.07812 0.26693-0.13509 0.43457-0.1709 0.16764-0.0358 0.35075-0.05371 0.54932-0.05371 0.22461 4e-6 0.41666 0.01791 0.57617 0.05371 0.16113 0.03418 0.29541 0.08708 0.40283 0.15869 0.10905 0.07162 0.1945 0.16195 0.25635 0.271 0.06347 0.10742 0.10986 0.23356 0.13916 0.37842l-0.69824 0.09521c-0.03581-0.14811-0.10905-0.2596-0.21973-0.33447-0.10905-0.07487-0.26612-0.1123-0.47119-0.1123-0.12696 3e-6 -0.23275 0.0114-0.31738 0.03418-0.08301 0.02116-0.14974 0.05046-0.2002 0.08789-0.04883 0.03744-0.08382 0.08138-0.10498 0.13184-0.02116 0.04883-0.03174 0.10091-0.03174 0.15625-1e-6 0.08464 0.02034 0.15462 0.06104 0.20996 0.04069 0.05371 0.09765 0.09929 0.1709 0.13672 0.07324 0.03581 0.16032 0.06673 0.26123 0.09277 0.10254 0.02442 0.21484 0.04964 0.33691 0.07568 0.10742 0.02279 0.21403 0.0472 0.31982 0.07324 0.10579 0.02442 0.2067 0.05371 0.30273 0.08789 0.09603 0.03418 0.18554 0.07569 0.26856 0.12451 0.08301 0.04883 0.15462 0.10905 0.21484 0.18066 0.06185 0.06999 0.10986 0.15381 0.14404 0.25146 0.0358 0.09766 0.05371 0.21322 0.05371 0.34668"/>
  </g>
  <g id="text3712" transform="matrix(.3019 0 0 .3019 -2.4914 -1.6702)" fill="#333">
   <path id="path3861" d="m50.996 34.613c-3e-6 0.15625-0.02849 0.29867-0.08545 0.42725-0.05697 0.12695-0.14567 0.236-0.26611 0.32715-0.11882 0.09115-0.27181 0.16195-0.45898 0.2124-0.18555 0.04883-0.4069 0.07324-0.66406 0.07324-0.22787 0-0.42888-0.02035-0.60303-0.06104-0.17416-0.04069-0.32389-0.10091-0.44922-0.18066-0.1237-0.07975-0.22461-0.17822-0.30273-0.29541-0.076497-0.11881-0.13184-0.25471-0.16602-0.40771l0.6958-0.11475c0.01953 0.0765 0.04801 0.14648 0.08545 0.20996 0.03743 0.06348 0.0887 0.11882 0.15381 0.16602 0.06673 0.04557 0.14892 0.08138 0.24658 0.10742 0.09928 0.02441 0.21891 0.03662 0.35889 0.03662 0.24414 1e-6 0.4305-0.03662 0.55908-0.10986 0.13021-0.07487 0.19531-0.19124 0.19531-0.34912-3e-6 -0.0944-0.02604-0.17171-0.07813-0.23193-0.05209-0.06022-0.12126-0.10986-0.20752-0.14892-0.08626-0.03906-0.18555-0.07161-0.29785-0.09766-0.11231-0.02604-0.22949-0.05127-0.35156-0.07568-0.09766-0.02278-0.19531-0.04639-0.29297-0.0708-0.09766-0.02441-0.19124-0.05371-0.28076-0.08789-0.08789-0.03418-0.17009-0.07487-0.24658-0.12207-0.0765-0.0472-0.14323-0.10498-0.2002-0.17334-0.05534-0.06999-0.09928-0.15136-0.13184-0.24414-0.03093-0.09277-0.04639-0.20182-0.04639-0.32715 0-0.1709 0.03418-0.31738 0.10254-0.43945 0.06836-0.12207 0.16276-0.22135 0.2832-0.29785 0.12207-0.07812 0.26693-0.13509 0.43457-0.1709 0.16764-0.0358 0.35075-0.05371 0.54932-0.05371 0.22461 4e-6 0.41666 0.01791 0.57617 0.05371 0.16113 0.03418 0.29541 0.08708 0.40283 0.15869 0.10905 0.07162 0.1945 0.16195 0.25635 0.271 0.06347 0.10742 0.10986 0.23356 0.13916 0.37842l-0.69824 0.09522c-0.03581-0.14811-0.10905-0.2596-0.21973-0.33447-0.10905-0.07487-0.26612-0.1123-0.47119-0.1123-0.12695 3e-6 -0.23275 0.0114-0.31738 0.03418-0.08301 0.02116-0.14974 0.05046-0.2002 0.08789-0.04883 0.03744-0.08382 0.08138-0.10498 0.13184-0.02116 0.04883-0.03174 0.10091-0.03174 0.15625-1e-6 0.08464 0.02034 0.15462 0.06104 0.20996 0.04069 0.05371 0.09766 0.09929 0.1709 0.13672 0.07324 0.03581 0.16032 0.06673 0.26123 0.09277 0.10254 0.02442 0.21484 0.04964 0.33692 0.07568 0.10742 0.02279 0.21403 0.0472 0.31982 0.07324 0.10579 0.02442 0.2067 0.05371 0.30273 0.08789 0.09603 0.03418 0.18554 0.07569 0.26856 0.12451 0.08301 0.04883 0.15462 0.10905 0.21484 0.18066 0.06185 0.06999 0.10986 0.15381 0.14404 0.25146 0.0358 0.09766 0.05371 0.21322 0.05371 0.34668"/>
   <path id="path3863" d="m52.221 33.49c0.09277-0.20182 0.20915-0.3483 0.34912-0.43945 0.13997-0.09114 0.3068-0.13672 0.50049-0.13672 0.1595 3e-6 0.29378 0.02604 0.40283 0.07813 0.11068 0.05209 0.20019 0.1237 0.26855 0.21484 0.06998 0.09115 0.12044 0.19857 0.15137 0.32227 0.03092 0.1237 0.04638 0.25716 0.04639 0.40039v1.6748h-0.68359v-1.4795c-2e-6 -0.10254-0.0081-0.19612-0.02441-0.28076-0.01628-0.08626-0.04313-0.1595-0.08057-0.21973-0.03744-0.06185-0.08626-0.10986-0.14648-0.14404-0.06022-0.03418-0.13346-0.05127-0.21973-0.05127-0.08301 2e-6 -0.15869 0.01872-0.22705 0.05615-0.06673 0.03581-0.12451 0.08789-0.17334 0.15625-0.04883 0.06673-0.08708 0.1473-0.11475 0.2417-0.02604 0.09278-0.03906 0.19531-0.03906 0.30762v1.4136h-0.68604v-3.623h0.68604v0.98877c-1e-6 0.05209-8.15e-4 0.10498-0.0024 0.15869-0.0016 0.05209-0.0041 0.10173-0.0073 0.14893-0.0016 0.04557-0.0033 0.08708-0.0049 0.12451-0.0016 0.03744-0.0033 0.06673-0.0049 0.08789h0.0098"/>
   <path id="path3865" d="m55.683 35.653c-0.19043 0-0.36214-0.02767-0.51514-0.08301-0.15137-0.05697-0.28076-0.14242-0.38818-0.25635-0.10742-0.11556-0.18962-0.2596-0.24658-0.43213-0.05697-0.17415-0.08545-0.3776-0.08545-0.61035 0-0.25228 0.03337-0.46468 0.1001-0.63721 0.06836-0.17252 0.1595-0.31168 0.27344-0.41748 0.11556-0.10742 0.24821-0.18473 0.39795-0.23193 0.14974-0.0472 0.30762-0.0708 0.47363-0.0708 0.20833 3e-6 0.38574 0.03662 0.53223 0.10986 0.14811 0.07162 0.26937 0.17253 0.36377 0.30273 0.0944 0.13021 0.16357 0.28646 0.20752 0.46875 0.04394 0.18067 0.06591 0.38086 0.06592 0.60059v0.01953h-1.6943c-1e-6 0.11068 0.0098 0.21403 0.0293 0.31006 0.01953 0.0944 0.05127 0.1766 0.09521 0.24658 0.04395 0.06836 0.10091 0.12288 0.1709 0.16357 0.06999 0.03906 0.15462 0.05859 0.25391 0.05859 0.12044 0 0.21891-0.02523 0.29541-0.07568 0.0765-0.05208 0.13102-0.13184 0.16358-0.23926l0.64697 0.05615c-0.0293 0.07487-0.0708 0.15462-0.12451 0.23926-0.05208 0.08464-0.12207 0.16276-0.20996 0.23438-0.08789 0.06999-0.19776 0.12858-0.32959 0.17578-0.13021 0.04557-0.2889 0.06836-0.47608 0.06836m0-2.3071c-0.06999 2e-6 -0.13591 0.01221-0.19775 0.03662-0.06022 0.02279-0.11312 0.06022-0.15869 0.1123-0.04395 0.05046-0.07975 0.11638-0.10742 0.19775-0.02767 0.08138-0.04313 0.17904-0.04639 0.29297h1.0254c-0.01302-0.21322-0.06429-0.37272-0.15381-0.47852-0.08952-0.10742-0.20996-0.16113-0.36133-0.16113"/>
   <path id="path3867" d="m57.385 35.604v-2.0215c-1e-6 -0.05696-8.15e-4 -0.11719-0.0024-0.18066 0-0.06348-0.0016-0.1237-0.0049-0.18066-0.0016-0.05859-0.0033-0.11067-0.0049-0.15625-0.0016-0.0472-0.0041-0.08138-0.0073-0.10254h0.6543c0.0033 0.01953 0.0065 0.05371 0.0098 0.10254 0.0033 0.0472 0.0065 0.09929 0.0098 0.15625 0.0033 0.05697 0.0057 0.11394 0.0073 0.1709 0.0033 0.05534 0.0049 0.1001 0.0049 0.13428h0.0098c0.03418-0.09603 0.06836-0.18148 0.10254-0.25635 0.03418-0.0765 0.07406-0.14079 0.11963-0.19287 0.0472-0.05371 0.10335-0.0944 0.16846-0.12207 0.0651-0.02929 0.14567-0.04394 0.2417-0.04395 0.04069 3e-6 0.08057 0.0041 0.11963 0.01221 0.04069 0.0065 0.07161 0.01465 0.09277 0.02441v0.57373c-0.04395-0.0098-0.08871-0.0179-0.13428-0.02441-0.04395-0.0081-0.09684-0.01221-0.15869-0.01221-0.1709 2e-6 -0.30436 0.06918-0.40039 0.20752-0.0944 0.13835-0.1416 0.34343-0.1416 0.61523v1.2964h-0.68604"/>
   <path id="path3869" d="m59.328 35.604v-3.623h0.68604v3.623h-0.68604"/>
   <path id="path3871" d="m63.225 34.281c-2e-6 0.20182-0.02849 0.38656-0.08545 0.5542-0.05534 0.16764-0.13916 0.3125-0.25146 0.43457-0.11231 0.12044-0.25228 0.21484-0.41992 0.2832-0.16764 0.06673-0.36296 0.1001-0.58594 0.1001-0.21484 0-0.40446-0.03337-0.56885-0.1001-0.16439-0.06673-0.30274-0.16032-0.41504-0.28076-0.11068-0.12044-0.1945-0.26448-0.25146-0.43213-0.05697-0.16927-0.08545-0.35563-0.08545-0.55908 0-0.19694 0.02686-0.37842 0.08057-0.54443 0.05534-0.16764 0.13835-0.3125 0.24902-0.43457 0.11068-0.12207 0.24984-0.21728 0.41748-0.28564 0.16764-0.06836 0.36377-0.10254 0.58838-0.10254 0.23763 3e-6 0.44026 0.03418 0.60791 0.10254 0.16764 0.06836 0.30436 0.16358 0.41016 0.28564 0.10742 0.12044 0.18554 0.26449 0.23438 0.43213 0.05045 0.16602 0.07568 0.34831 0.07568 0.54688m-0.71777 0c-2e-6 -0.31413-0.05127-0.54199-0.15381-0.68359-0.10254-0.1416-0.25147-0.2124-0.44678-0.2124-0.20182 2e-6 -0.35645 0.07162-0.46387 0.21484-0.10742 0.14323-0.16113 0.37028-0.16113 0.68115-1e-6 0.15788 0.01383 0.29378 0.0415 0.40772 0.0293 0.11393 0.06999 0.20752 0.12207 0.28076 0.05208 0.07324 0.11474 0.12777 0.18799 0.16358 0.07324 0.03418 0.15381 0.05127 0.2417 0.05127 0.10091 1e-6 0.19043-0.01709 0.26855-0.05127 0.07975-0.03581 0.14648-0.09033 0.2002-0.16358 0.05371-0.07324 0.0944-0.16683 0.12207-0.28076 0.02767-0.11393 0.0415-0.24984 0.0415-0.40772"/>
   <path id="path3873" d="m64.873 35.653c-0.20996 0-0.39388-0.03255-0.55176-0.09766-0.15625-0.0651-0.28646-0.15706-0.39062-0.27588-0.10417-0.11882-0.18229-0.26123-0.23438-0.42725-0.05208-0.16764-0.07813-0.35238-0.07813-0.5542 0-0.21972 0.02848-0.41504 0.08545-0.58594 0.05697-0.17252 0.13916-0.31738 0.24658-0.43457 0.10742-0.11881 0.23926-0.20914 0.39551-0.271 0.15788-0.06185 0.33691-0.09277 0.53711-0.09277 0.1709 3e-6 0.32226 0.02279 0.4541 0.06836 0.13346 0.04557 0.24821 0.10824 0.34424 0.18799 0.09603 0.07813 0.17334 0.1709 0.23193 0.27832 0.06022 0.10742 0.10172 0.22298 0.12451 0.34668l-0.69092 0.03418c-0.01953-0.13509-0.06836-0.24251-0.14648-0.32227-0.07813-0.08138-0.1888-0.12207-0.33203-0.12207-0.18392 2e-6 -0.3182 0.07569-0.40283 0.22705-0.08464 0.15137-0.12695 0.3711-0.12695 0.65918-1e-6 0.60872 0.17985 0.91309 0.53955 0.91309 0.13021 1e-6 0.23926-0.04069 0.32715-0.12207 0.08789-0.08301 0.14241-0.20589 0.16357-0.36865l0.68848 0.03174c-0.01628 0.12207-0.05371 0.23926-0.1123 0.35156-0.05697 0.11068-0.13509 0.20915-0.23438 0.29541-0.09766 0.08464-0.21647 0.153-0.35644 0.20508-0.13998 0.05045-0.3003 0.07568-0.48096 0.07568"/>
   <path id="path3875" d="m68.242 35.604-0.70557-1.1963-0.29541 0.20508v0.99121h-0.68604v-3.623h0.68604v2.0752l0.94238-1.0938h0.7373l-0.92773 1.0303 0.99854 1.6113h-0.74951"/>
  </g>
  <g id="text3716" transform="matrix(.3019 0 0 .38556 -2.5087 -3.6928)" fill="#333">
   <path id="path3804" d="m48.057 43.604v-0.24805c0.06641-0.15234 0.14714-0.28646 0.24219-0.40234 0.09635-0.11719 0.19726-0.22266 0.30274-0.31641 0.10547-0.09505 0.20963-0.18294 0.3125-0.26367 0.10416-0.08073 0.19792-0.16146 0.28125-0.24219 0.08333-0.08073 0.15039-0.16536 0.20117-0.25391 0.05208-0.08854 0.07812-0.1888 0.07813-0.30078-2e-6 -0.07812-0.01172-0.14648-0.03516-0.20508-0.02344-0.05989-0.05729-0.11002-0.10156-0.15039-0.04427-0.04036-0.09766-0.07031-0.16016-0.08984-0.0612-0.02083-0.12956-0.03125-0.20508-0.03125-0.07031 2e-6 -0.13672 0.0098-0.19922 0.0293-0.0612 0.01953-0.11589 0.04883-0.16406 0.08789-0.04818 0.03906-0.08789 0.08789-0.11914 0.14648-0.02995 0.05729-0.04948 0.12435-0.05859 0.20117l-0.35938-0.0332c0.01172-0.09896 0.03906-0.19206 0.08203-0.2793 0.04297-0.08724 0.10221-0.16341 0.17774-0.22852 0.07552-0.0664 0.16602-0.11849 0.27148-0.15625 0.10677-0.03776 0.22982-0.05664 0.36914-0.05664 0.13672 3e-6 0.25846 0.01628 0.36523 0.04883 0.10677 0.03255 0.19661 0.08073 0.26953 0.14453 0.07422 0.0638 0.13086 0.14258 0.16992 0.23633 0.03906 0.09375 0.05859 0.20182 0.05859 0.32422-2e-6 0.09245-0.01693 0.18034-0.05078 0.26367-0.03255 0.08333-0.07682 0.16276-0.13281 0.23828-0.05469 0.07552-0.11849 0.14844-0.19141 0.21875-0.07292 0.07031-0.14909 0.13932-0.22852 0.20703-0.07943 0.06641-0.15951 0.13281-0.24023 0.19922-0.08073 0.0651-0.1569 0.13086-0.22852 0.19726-0.07031 0.06641-0.13346 0.13412-0.18945 0.20312-0.05599 0.06771-0.09961 0.13867-0.13086 0.21289h1.4355v0.29883h-1.8223"/>
   <path id="path3806" d="m50.284 43.604v-0.24805c0.06641-0.15234 0.14714-0.28646 0.24219-0.40234 0.09635-0.11719 0.19726-0.22266 0.30273-0.31641 0.10547-0.09505 0.20964-0.18294 0.3125-0.26367 0.10417-0.08073 0.19792-0.16146 0.28125-0.24219 0.08333-0.08073 0.15039-0.16536 0.20117-0.25391 0.05208-0.08854 0.07812-0.1888 0.07813-0.30078-1e-6 -0.07812-0.01172-0.14648-0.03516-0.20508-0.02344-0.05989-0.05729-0.11002-0.10156-0.15039-0.04427-0.04036-0.09766-0.07031-0.16016-0.08984-0.0612-0.02083-0.12956-0.03125-0.20508-0.03125-0.07031 2e-6 -0.13672 0.0098-0.19922 0.0293-0.0612 0.01953-0.11589 0.04883-0.16406 0.08789-0.04818 0.03906-0.08789 0.08789-0.11914 0.14648-0.02995 0.05729-0.04948 0.12435-0.05859 0.20117l-0.35938-0.0332c0.01172-0.09896 0.03906-0.19206 0.08203-0.2793 0.04297-0.08724 0.10221-0.16341 0.17773-0.22852 0.07552-0.0664 0.16602-0.11849 0.27148-0.15625 0.10677-0.03776 0.22982-0.05664 0.36914-0.05664 0.13672 3e-6 0.25846 0.01628 0.36523 0.04883 0.10677 0.03255 0.19661 0.08073 0.26953 0.14453 0.07422 0.0638 0.13086 0.14258 0.16992 0.23633 0.03906 0.09375 0.05859 0.20182 0.05859 0.32422-2e-6 0.09245-0.01693 0.18034-0.05078 0.26367-0.03255 0.08333-0.07682 0.16276-0.13281 0.23828-0.05469 0.07552-0.11849 0.14844-0.19141 0.21875-0.07292 0.07031-0.14909 0.13932-0.22852 0.20703-0.07943 0.06641-0.15951 0.13281-0.24024 0.19922-0.08073 0.0651-0.1569 0.13086-0.22852 0.19726-0.07031 0.06641-0.13346 0.13412-0.18945 0.20312-0.05599 0.06771-0.09961 0.13867-0.13086 0.21289h1.4355v0.29883h-1.8223"/>
   <path id="path3808" d="m52.614 43.604v-0.29883h0.70117v-2.1172l-0.62109 0.44336v-0.33203l0.65039-0.44726h0.32422v2.4531h0.66992v0.29883h-1.7246"/>
   <path id="path3810" d="m56.592 42.538c-2e-6 0.73698-0.25912 1.1055-0.77734 1.1055-0.16016 0-0.29362-0.02865-0.40039-0.08594-0.10547-0.05859-0.19141-0.15234-0.25781-0.28125h-0.0039c-1e-6 0.03385-0.0013 0.06901-0.0039 0.10547-0.0013 0.03646-0.0033 0.07031-0.0059 0.10156-0.0013 0.03125-0.0033 0.05794-0.0059 0.08008-0.0013 0.02214-0.0026 0.03581-0.0039 0.04102h-0.33984c0.0013-0.01172 0.0026-0.03125 0.0039-0.05859 0.0013-0.02865 0.0026-0.0625 0.0039-0.10156 0.0013-0.03906 2e-3 -0.08203 2e-3 -0.12891 0.0013-0.04687 2e-3 -0.0957 2e-3 -0.14648v-2.4629h0.35156v0.82617c0 0.03906-6.51e-4 0.07682-2e-3 0.11328 0 0.03516-6.52e-4 0.06641-2e-3 0.09375-0.0013 0.03255-0.0026 0.06315-0.0039 0.0918h0.0078c0.0651-0.13541 0.15104-0.23242 0.25781-0.29102 0.10807-0.05859 0.24154-0.08789 0.40039-0.08789 0.26693 2e-6 0.46289 0.08985 0.58789 0.26953 0.1263 0.17969 0.18945 0.45182 0.18945 0.81641m-0.36914 0.01172c-2e-6 -0.14583-0.0091-0.27083-0.02734-0.375-0.01823-0.10416-0.04753-0.18945-0.08789-0.25586-0.04037-0.06771-0.0918-0.11719-0.1543-0.14844-0.0625-0.03125-0.13867-0.04687-0.22852-0.04687-0.09245 1e-6 -0.17448 0.01497-0.24609 0.04492-0.07031 0.02995-0.12956 0.07813-0.17773 0.14453-0.04688 0.06641-0.08268 0.15365-0.10742 0.26172-0.02474 0.10808-0.03711 0.24024-0.03711 0.39648 0 0.15104 0.01237 0.278 0.03711 0.38086 0.02474 0.10286 0.06055 0.18685 0.10742 0.25195 0.04818 0.0638 0.10742 0.11003 0.17773 0.13867 0.07031 0.02734 0.15104 0.04102 0.24219 0.04102 0.08594 0 0.16016-0.01497 0.22266-0.04492 0.0625-0.02995 0.11458-0.07813 0.15625-0.14453 0.04166-0.06641 0.07226-0.15234 0.0918-0.25781 0.02083-0.10677 0.03125-0.23568 0.03125-0.38672"/>
   <path id="path3812" d="m60.329 42.829c-2e-6 0.13932-0.02735 0.25846-0.08203 0.35742-0.05469 0.09766-0.12826 0.17774-0.2207 0.24024-0.09245 0.0612-0.19987 0.10612-0.32227 0.13476-0.1224 0.02865-0.2513 0.04297-0.38672 0.04297h-1.1172v-2.752h1c0.15234 3e-6 0.28841 0.01302 0.4082 0.03906 0.11979 0.02474 0.22135 0.06446 0.30469 0.11914 0.08333 0.05469 0.14648 0.12435 0.18945 0.20898 0.04427 0.08334 0.0664 0.1836 0.06641 0.30078-2e-6 0.07682-0.01107 0.14909-0.0332 0.2168-0.02084 0.06771-0.05339 0.12956-0.09766 0.18555-0.04297 0.05469-0.09766 0.10222-0.16406 0.14258-0.06511 0.03906-0.14128 0.06836-0.22852 0.08789 0.11068 0.01302 0.20833 0.03841 0.29297 0.07617 0.08594 0.03776 0.15755 0.08594 0.21484 0.14453 0.05729 0.05859 0.10091 0.12695 0.13086 0.20508 0.02995 0.07682 0.04492 0.16016 0.04492 0.25m-0.53516-1.2637c-2e-6 -0.14844-0.05078-0.25456-0.15234-0.31836-0.10156-0.0638-0.2487-0.0957-0.44141-0.0957h-0.62695v0.87109h0.62695c0.10937 1e-6 0.20182-0.01042 0.27734-0.03125 0.07552-0.02213 0.13672-0.05273 0.18359-0.0918 0.04687-0.04036 0.08073-0.08854 0.10156-0.14453 0.02083-0.05599 0.03125-0.11914 0.03125-0.18945m0.1582 1.2344c-2e-6 -0.08724-0.01628-0.16146-0.04883-0.22266-0.03125-0.0612-0.07682-0.11133-0.13672-0.15039-0.0599-0.03906-0.13216-0.06771-0.2168-0.08594-0.08333-0.01823-0.17708-0.02734-0.28125-0.02734h-0.69531v0.99219h0.72461c0.09505 0 0.18229-0.0078 0.26172-0.02344 0.08073-0.01562 0.14974-0.04297 0.20703-0.08203 0.05859-0.03906 0.10416-0.09115 0.13672-0.15625 0.03255-0.0651 0.04883-0.14648 0.04883-0.24414"/>
   <path id="path3814" d="m61.352 43.643c-0.21224 0-0.37174-0.05599-0.47852-0.16797-0.10677-0.11198-0.16016-0.26562-0.16016-0.46094 0-0.13932 0.02604-0.25325 0.07813-0.3418 0.05338-0.08984 0.1224-0.16016 0.20703-0.21094 0.08594-0.05078 0.18359-0.08594 0.29297-0.10547 0.10937-0.01953 0.2207-0.0306 0.33398-0.0332l0.47461-0.0078v-0.11523c-2e-6 -0.08724-0.0091-0.16146-0.02734-0.22266-0.01823-0.0612-0.04623-0.11068-0.08398-0.14844-0.03776-0.03776-0.08529-0.0651-0.14258-0.08203-0.05599-0.01823-0.1224-0.02734-0.19922-0.02734-0.06771 2e-6 -0.12891 0.0052-0.18359 0.01563-0.05469 0.0091-0.10221 0.02669-0.14258 0.05273-0.04037 0.02474-0.07292 0.05925-0.09766 0.10352-0.02474 0.04297-0.04102 0.09766-0.04883 0.16406l-0.36719-0.0332c0.01302-0.08333 0.03776-0.1595 0.07422-0.22852 0.03646-0.07031 0.08789-0.13086 0.1543-0.18164 0.06771-0.05078 0.15169-0.08984 0.25195-0.11719 0.10156-0.02864 0.22396-0.04297 0.36719-0.04297 0.26562 2e-6 0.46549 0.0612 0.59961 0.18359 0.13411 0.1211 0.20117 0.29688 0.20117 0.52734v0.91016c-2e-6 0.10417 0.01367 0.18294 0.04102 0.23633 0.02734 0.05208 0.07943 0.07813 0.15625 0.07813 0.01953 0 0.03906-0.0013 0.05859-0.0039s0.03841-0.0059 0.05664-0.0098v0.21875c-0.04427 0.01042-0.08854 0.01823-0.13281 0.02344-0.04297 0.0052-0.0892 0.0078-0.13867 0.0078-0.06641 0-0.1237-0.0085-0.17188-0.02539-0.04688-0.01823-0.08529-0.04492-0.11523-0.08008-0.02995-0.03646-0.05274-0.08073-0.06836-0.13281-0.01563-0.05338-0.02539-0.11523-0.0293-0.18555h-0.01172c-0.03776 0.06771-0.07943 0.12891-0.125 0.18359-0.04427 0.05469-0.09636 0.10156-0.15625 0.14062-0.0599 0.03776-0.12826 0.06706-0.20508 0.08789-0.07552 0.02083-0.16276 0.03125-0.26172 0.03125m0.08008-0.26367c0.11198 0 0.20963-0.02018 0.29297-0.06055 0.08463-0.04167 0.1543-0.0944 0.20898-0.1582 0.05599-0.0638 0.09766-0.13346 0.125-0.20898 0.02734-0.07552 0.04101-0.14778 0.04102-0.2168v-0.17383l-0.38477 0.0078c-0.08594 0.0013-0.16797 0.0078-0.24609 0.01953-0.07682 0.01042-0.14453 0.0319-0.20312 0.06445-0.05859 0.03255-0.10547 0.07813-0.14062 0.13672-0.03385 0.05859-0.05078 0.13542-0.05078 0.23047-1e-6 0.11458 0.0306 0.20312 0.0918 0.26562 0.0625 0.0625 0.15104 0.09375 0.26562 0.09375"/>
   <path id="path3816" d="m64.364 43.604-0.71484-0.96484-0.25781 0.21289v0.75195h-0.35156v-2.8984h0.35156v1.8105l0.92774-1.0254h0.41211l-0.85742 0.9082 0.90234 1.2051h-0.41211"/>
   <path id="path3818" d="m65.309 42.621c-1e-6 0.11068 0.01107 0.21289 0.0332 0.30664 0.02344 0.09245 0.05859 0.17253 0.10547 0.24023 0.04818 0.06641 0.10937 0.11849 0.18359 0.15625 0.07422 0.03646 0.16341 0.05469 0.26758 0.05469 0.15234 0 0.27409-0.0306 0.36523-0.0918 0.09245-0.0612 0.15495-0.13867 0.1875-0.23242l0.30859 0.08789c-0.02214 0.05859-0.05339 0.11784-0.09375 0.17774-0.03906 0.05859-0.0918 0.11198-0.1582 0.16016-0.06641 0.04687-0.14974 0.08594-0.25 0.11719-0.09896 0.02995-0.21875 0.04492-0.35938 0.04492-0.3125 0-0.55078-0.0931-0.71484-0.2793-0.16276-0.1862-0.24414-0.46289-0.24414-0.83008 0-0.19792 0.02474-0.36523 0.07422-0.50195 0.04948-0.13802 0.11719-0.25 0.20312-0.33594 0.08594-0.08594 0.1862-0.14778 0.30078-0.18555 0.11458-0.03906 0.23698-0.05859 0.36719-0.05859 0.17708 2e-6 0.32487 0.02865 0.44336 0.08594 0.11979 0.05729 0.21549 0.13672 0.28711 0.23828 0.07291 0.10026 0.12435 0.21875 0.1543 0.35547 0.03125 0.13672 0.04687 0.28451 0.04687 0.44336v0.04687h-1.5078m1.1445-0.26953c-0.01953-0.22266-0.07617-0.38476-0.16992-0.48633-0.09375-0.10286-0.22852-0.1543-0.4043-0.1543-0.05859 2e-6 -0.12044 0.0098-0.18555 0.0293-0.0638 0.01823-0.12305 0.05143-0.17774 0.09961-0.05469 0.04818-0.10091 0.11393-0.13867 0.19727-0.03776 0.08203-0.05925 0.18685-0.06445 0.31445h1.1406"/>
   <path id="path3820" d="m67.274 43.604v-1.6211c0-0.04427-6.52e-4 -0.08919-2e-3 -0.13476-1e-6 -0.04687-6.52e-4 -0.0918-2e-3 -0.13477-0.0013-0.04297-0.0026-0.08333-0.0039-0.12109-0.0013-0.03776-0.0026-0.07161-0.0039-0.10156h0.33203c0.0013 0.02995 0.0026 0.06445 0.0039 0.10352 0.0026 0.03776 0.0046 0.07682 0.0059 0.11719 0.0026 0.04037 0.0039 0.07943 0.0039 0.11719 0.0013 0.03646 2e-3 0.06771 2e-3 0.09375h0.0078c0.02474-0.08073 0.05078-0.15039 0.07813-0.20898 0.02864-0.05989 0.06185-0.10872 0.09961-0.14648 0.03776-0.03906 0.08268-0.06771 0.13477-0.08594 0.05208-0.01953 0.11523-0.0293 0.18945-0.0293 0.02864 2e-6 0.05599 0.0026 0.08203 0.0078 0.02604 0.0039 0.04622 0.0078 0.06055 0.01172v0.32227c-0.02344-0.0065-0.05078-0.01107-0.08203-0.01367-0.03125-0.0039-0.06641-0.0059-0.10547-0.0059-0.08073 2e-6 -0.14974 0.01823-0.20703 0.05469-0.05599 0.03646-0.10222 0.08724-0.13867 0.15234-0.03516 0.0638-0.0612 0.14063-0.07813 0.23047-0.01693 0.08854-0.02539 0.18555-0.02539 0.29102v1.1016h-0.35156"/>
   <path id="path3822" d="m71.926 42.844c-3e-6 0.11589-0.02279 0.22266-0.06836 0.32031-0.04427 0.09766-0.11328 0.18229-0.20703 0.25391-0.09375 0.07031-0.21224 0.12565-0.35547 0.16602-0.14193 0.03906-0.31055 0.05859-0.50586 0.05859-0.34245 0-0.60938-0.0599-0.80078-0.17969-0.19141-0.11979-0.31315-0.29297-0.36524-0.51953l0.36133-0.07227c0.01823 0.07161 0.04622 0.13672 0.08398 0.19531 0.03776 0.05859 0.08854 0.10938 0.15234 0.15234 0.0651 0.04167 0.14518 0.07422 0.24024 0.09766 0.09505 0.02344 0.20898 0.03516 0.3418 0.03516 0.11068 0 0.21224-0.0091 0.30469-0.02734 0.09245-0.01953 0.17187-0.04883 0.23828-0.08789 0.0664-0.03906 0.11784-0.08919 0.1543-0.15039 0.03776-0.0625 0.05664-0.13672 0.05664-0.22266-2e-6 -0.08984-0.02084-0.16276-0.0625-0.21875-0.04037-0.05599-0.09766-0.10221-0.17188-0.13867-0.07422-0.03646-0.16276-0.06706-0.26562-0.0918-0.10287-0.02474-0.2168-0.05143-0.3418-0.08008-0.07682-0.01693-0.1543-0.03516-0.23242-0.05469-0.07682-0.02083-0.15104-0.04492-0.22266-0.07227-0.07031-0.02865-0.13672-0.06185-0.19922-0.09961-0.0625-0.03776-0.11654-0.08268-0.16211-0.13476-0.04557-0.05338-0.08138-0.11458-0.10742-0.18359-0.02604-0.07031-0.03906-0.15104-0.03906-0.24219 0-0.13021 0.02604-0.24153 0.07813-0.33398 0.05338-0.09375 0.12695-0.17057 0.2207-0.23047 0.09375-0.05989 0.20443-0.10351 0.33203-0.13086 0.1276-0.02734 0.26562-0.04101 0.41406-0.04102 0.17057 3e-6 0.3164 0.01367 0.4375 0.04102 0.12109 0.02604 0.22331 0.06576 0.30664 0.11914 0.08333 0.05339 0.14974 0.1198 0.19922 0.19922 0.05078 0.07813 0.09114 0.16927 0.12109 0.27344l-0.36719 0.06445c-0.01823-0.0664-0.04492-0.12565-0.08008-0.17774-0.03386-0.05208-0.07878-0.0957-0.13477-0.13086-0.05599-0.03515-0.12435-0.06185-0.20508-0.08008-0.07943-0.01823-0.17318-0.02734-0.28125-0.02734-0.1276 3e-6 -0.23503 0.01172-0.32227 0.03516-0.08594 0.02214-0.1556 0.05274-0.20898 0.0918-0.05208 0.03906-0.08984 0.08529-0.11328 0.13867-0.02214 0.05209-0.0332 0.10873-0.0332 0.16992-1e-6 0.08203 0.02018 0.14974 0.06055 0.20312 0.04166 0.05208 0.09766 0.0957 0.16797 0.13086 0.07031 0.03516 0.15169 0.06445 0.24414 0.08789 0.09245 0.02344 0.19075 0.04688 0.29492 0.07031 0.08463 0.01953 0.16862 0.03972 0.25195 0.06055 0.08463 0.01953 0.16536 0.04362 0.24219 0.07227 0.07682 0.02734 0.14844 0.0599 0.21484 0.09766 0.06771 0.03776 0.1263 0.08399 0.17578 0.13867 0.04948 0.05469 0.08789 0.11914 0.11524 0.19336 0.02864 0.07422 0.04297 0.16146 0.04297 0.26172"/>
   <path id="path3824" d="m73.196 43.588c-0.05339 0.01432-0.10807 0.02539-0.16406 0.0332-0.05469 0.0091-0.11849 0.01367-0.19141 0.01367-0.28125 0-0.42188-0.1595-0.42188-0.47852v-1.4102h-0.24414v-0.25586h0.25781l0.10352-0.47266h0.23438v0.47266h0.39062v0.25586h-0.39062v1.334c-1e-6 0.10156 0.01627 0.17318 0.04883 0.21484 0.03385 0.04036 0.0918 0.06055 0.17383 0.06055 0.03385 0 0.06641-0.0026 0.09766-0.0078 0.03255-0.0052 0.06771-0.01172 0.10547-0.01953v0.25977"/>
   <path id="path3826" d="m73.588 43.604v-0.42773h0.38086v0.42773h-0.38086"/>
   <path id="path3828" d="m49.969 48.604-1.4727-2.3438c0.0026 0.0638 0.0059 0.12696 0.0098 0.18945 0.0026 0.05339 0.0046 0.11003 0.0059 0.16992 0.0026 0.0586 0.0039 0.11068 0.0039 0.15625v1.8281h-0.33203v-2.752h0.43359l1.4883 2.3594c-0.0039-0.0638-0.0078-0.1276-0.01172-0.19141-0.0026-0.05469-0.0052-0.11393-0.0078-0.17774-0.0026-0.0651-0.0039-0.12695-0.0039-0.18555v-1.8047h0.33594v2.752h-0.44922"/>
   <path id="path3830" d="m53.698 48.604h-0.44531l-0.47656-1.748c-0.01433-0.04948-0.02995-0.10807-0.04687-0.17578-0.01563-0.06771-0.02995-0.13216-0.04297-0.19336-0.01563-0.07161-0.03125-0.14453-0.04687-0.21875-0.01693 0.07552-0.0332 0.14909-0.04883 0.2207-0.01432 0.0625-0.0293 0.12696-0.04492 0.19336-0.01563 0.06641-0.0306 0.12435-0.04492 0.17383l-0.48047 1.748h-0.44531l-0.81055-2.752h0.38867l0.49414 1.748c0.02213 0.08203 0.04297 0.16341 0.0625 0.24414 0.02083 0.08073 0.03841 0.153 0.05273 0.2168 0.01693 0.07552 0.03255 0.14714 0.04687 0.21484 0.01953-0.08984 0.03971-0.17838 0.06055-0.26562 0.0091-0.03646 0.01823-0.07487 0.02734-0.11523 0.0091-0.04036 0.01823-0.08008 0.02734-0.11914 0.01042-0.03906 0.02018-0.07617 0.0293-0.11133 0.01042-0.03646 0.01953-0.06966 0.02734-0.09961l0.47852-1.7129h0.35742l0.47852 1.7129c0.0078 0.02995 0.01627 0.06315 0.02539 0.09961 0.01041 0.03516 0.02018 0.07227 0.0293 0.11133 0.01041 0.03776 0.02018 0.07682 0.0293 0.11719 0.0091 0.04037 0.01823 0.07878 0.02734 0.11524 0.02083 0.08724 0.04101 0.17643 0.06055 0.26758 0.0013 0 0.0072-0.02213 0.01758-0.06641 0.01041-0.04557 0.02344-0.10221 0.03906-0.16992 0.01562-0.06771 0.03255-0.14062 0.05078-0.21875 0.01953-0.07943 0.03906-0.15299 0.05859-0.2207l0.48633-1.748h0.38867l-0.81055 2.752"/>
   <path id="path3832" d="m54.825 48.604v-0.29883h0.70117v-2.1172l-0.62109 0.44336v-0.33203l0.65039-0.44726h0.32422v2.4531h0.66992v0.29883h-1.7246"/>
   <path id="path3834" d="m59.905 47.704c-2e-6 0.13802-0.01953 0.26498-0.05859 0.38086-0.03776 0.11458-0.0944 0.21354-0.16992 0.29688-0.07422 0.08203-0.16667 0.14648-0.27734 0.19336-0.11068 0.04557-0.23828 0.06836-0.38281 0.06836-0.16016 0-0.30013-0.0306-0.41992-0.0918-0.11979-0.0612-0.2194-0.14909-0.29883-0.26367-0.07943-0.11588-0.13932-0.25716-0.17969-0.42383-0.03906-0.16797-0.05859-0.35872-0.05859-0.57227 0-0.24479 0.02214-0.45963 0.06641-0.64453 0.04557-0.18489 0.11068-0.33919 0.19531-0.46289 0.08463-0.1237 0.1875-0.21679 0.30859-0.2793 0.12239-0.0625 0.26042-0.09375 0.41406-0.09375 0.09375 3e-6 0.18164 0.0098 0.26367 0.0293 0.08203 0.01953 0.15625 0.05143 0.22266 0.0957 0.06771 0.04297 0.12695 0.10026 0.17774 0.17188 0.05078 0.07162 0.09114 0.15951 0.12109 0.26367l-0.33594 0.06055c-0.03646-0.11849-0.09505-0.20377-0.17578-0.25586-0.07943-0.05338-0.17188-0.08008-0.27734-0.08008-0.09636 3e-6 -0.1836 0.02279-0.26172 0.06836-0.07813 0.04557-0.14453 0.11393-0.19922 0.20508-0.05469 0.08985-0.09701 0.20313-0.12695 0.33984-0.02865 0.13672-0.04297 0.29622-0.04297 0.47852 0.0638-0.11849 0.15365-0.20833 0.26953-0.26953 0.11588-0.0625 0.2487-0.09375 0.39844-0.09375 0.125 2e-6 0.23828 0.02018 0.33984 0.06055 0.10156 0.04037 0.18815 0.09896 0.25977 0.17578 0.07291 0.07552 0.1289 0.16797 0.16797 0.27734 0.04036 0.10807 0.06055 0.22982 0.06055 0.36523m-0.35742 0.01563c-1e-6 -0.09505-0.01172-0.18099-0.03516-0.25781-0.02344-0.07682-0.05859-0.14193-0.10547-0.19531-0.04688-0.05469-0.10482-0.09635-0.17383-0.125-0.06901-0.02995-0.14909-0.04492-0.24023-0.04492-0.0638 2e-6 -0.12826 0.0098-0.19336 0.0293-0.0651 0.01823-0.12435 0.04883-0.17773 0.0918-0.05208 0.04167-0.09505 0.09701-0.12891 0.16602-0.03255 0.06901-0.04883 0.153-0.04883 0.25195-1e-6 0.10156 0.01302 0.19662 0.03906 0.28516 0.02604 0.08724 0.06315 0.16341 0.11133 0.22852 0.04948 0.0651 0.10872 0.11654 0.17774 0.1543 0.06901 0.03776 0.14648 0.05664 0.23242 0.05664 0.08463 1e-6 0.16015-0.01432 0.22656-0.04297 0.06771-0.02995 0.125-0.07227 0.17188-0.12695 0.04687-0.05599 0.08268-0.1237 0.10742-0.20312 0.02474-0.07943 0.03711-0.16862 0.03711-0.26758"/>
   <path id="path3836" d="m62.254 48.604-0.82617-1.2031-0.84375 1.2031h-0.41211l1.0469-1.4297-0.9668-1.3223h0.41211l0.76562 1.0801 0.74414-1.0801h0.41211l-0.94141 1.3086 1.0215 1.4434h-0.41211"/>
   <path id="path3838" d="m63.083 48.604v-2.752h2.0879v0.30469h-1.7148v0.88281h1.5977v0.30078h-1.5977v0.95898h1.7949v0.30469h-2.168"/>
   <path id="path3840" d="m48.184 53.604v-2.752h0.37305v2.4473h1.3906v0.30469h-1.7637"/>
   <path id="path3842" d="m52.139 52.545c-2e-6 0.36979-0.08138 0.64518-0.24414 0.82617-0.16276 0.18099-0.39909 0.27148-0.70898 0.27148-0.14714 0-0.27865-0.02214-0.39453-0.06641-0.11589-0.04427-0.21419-0.11198-0.29492-0.20312-0.07943-0.09115-0.14062-0.20508-0.18359-0.3418-0.04167-0.13802-0.0625-0.30013-0.0625-0.48633 0-0.72916 0.31576-1.0937 0.94727-1.0938 0.16406 2e-6 0.30534 0.02279 0.42383 0.06836 0.11979 0.04557 0.21745 0.11393 0.29297 0.20508 0.07682 0.09115 0.13346 0.20508 0.16992 0.3418 0.03646 0.13672 0.05468 0.29622 0.05469 0.47852m-0.36914 0c-2e-6 -0.16406-0.01302-0.29948-0.03906-0.40625-0.02474-0.10677-0.06185-0.19206-0.11133-0.25586-0.04818-0.0638-0.10742-0.10807-0.17773-0.13281-0.07031-0.02604-0.14974-0.03906-0.23828-0.03906-0.08984 2e-6 -0.17122 0.01367-0.24414 0.04102-0.07162 0.02604-0.13281 0.07162-0.18359 0.13672-0.05078 0.0638-0.08984 0.14909-0.11719 0.25586-0.02604 0.10677-0.03906 0.24024-0.03906 0.40039-1e-6 0.16406 0.01432 0.30013 0.04297 0.4082 0.02864 0.10677 0.06771 0.19206 0.11719 0.25586 0.05078 0.0638 0.11002 0.10872 0.17774 0.13476 0.06901 0.02604 0.14388 0.03906 0.22461 0.03906 0.08984 0 0.17122-0.01237 0.24414-0.03711 0.07291-0.02604 0.13476-0.07096 0.18555-0.13476 0.05078-0.0638 0.08984-0.14974 0.11719-0.25781 0.02734-0.10807 0.04101-0.24414 0.04102-0.4082"/>
   <path id="path3844" d="m53.92 53.604v-1.3398c-1e-6 -0.10286-0.0078-0.1888-0.02344-0.25781-0.01432-0.06901-0.03841-0.12435-0.07227-0.16602-0.03386-0.04297-0.07878-0.07292-0.13477-0.08984-0.05469-0.01823-0.12305-0.02734-0.20508-0.02734-0.08333 1e-6 -0.15886 0.01497-0.22656 0.04492-0.06641 0.02865-0.1237 0.07097-0.17188 0.12695-0.04688 0.05469-0.08333 0.12305-0.10938 0.20508-0.02604 0.08073-0.03906 0.17383-0.03906 0.2793v1.2246h-0.35156v-1.6621c0-0.04427-6.52e-4 -0.09049-2e-3 -0.13867-1e-6 -0.04948-6.52e-4 -0.0957-2e-3 -0.13867-0.0013-0.04427-0.0026-0.08203-0.0039-0.11328-0.0013-0.03125-0.0026-0.05143-0.0039-0.06055h0.33203c0.0013 0.0065 0.0026 0.02409 0.0039 0.05273 0.0013 0.02865 0.0026 0.06185 0.0039 0.09961 0.0026 0.03646 0.0046 0.07422 0.0059 0.11328 0.0013 0.03776 2e-3 0.06966 2e-3 0.0957h0.0059c0.03385-0.0612 0.07096-0.11654 0.11133-0.16602 0.04036-0.04948 0.08724-0.09114 0.14062-0.125 0.05338-0.03515 0.11458-0.06185 0.18359-0.08008 0.06901-0.01953 0.14909-0.0293 0.24023-0.0293 0.11719 2e-6 0.2181 0.01432 0.30273 0.04297 0.08463 0.02865 0.1543 0.07292 0.20898 0.13281 0.05468 0.0599 0.0944 0.13737 0.11914 0.23242 0.02604 0.09375 0.03906 0.20573 0.03906 0.33594v1.4082h-0.35352"/>
   <path id="path3846" d="m56.139 53.264c-0.06511 0.13542-0.15169 0.23242-0.25976 0.29102-0.10677 0.05859-0.23958 0.08789-0.39844 0.08789-0.26693 0-0.46354-0.08984-0.58984-0.26953-0.125-0.17969-0.1875-0.45182-0.1875-0.81641 0-0.73698 0.25911-1.1055 0.77734-1.1055 0.16016 2e-6 0.29362 0.0293 0.40039 0.08789 0.10677 0.0586 0.19271 0.15169 0.25781 0.2793h0.0039c-1e-6 -0.01302-6.52e-4 -0.0332-2e-3 -0.06055-1e-6 -0.02864-6.52e-4 -0.05794-2e-3 -0.08789-1e-6 -0.03125-1e-6 -0.06055 0-0.08789-1e-6 -0.02734-1e-6 -0.04687 0-0.05859v-0.81836h0.35156v2.4629c-2e-6 0.05078-2e-6 0.09961 0 0.14648 0.0013 0.04688 0.0026 0.08984 0.0039 0.12891 0.0013 0.03906 0.0026 0.07292 0.0039 0.10156 0.0013 0.02734 0.0026 0.04687 0.0039 0.05859h-0.33594c-0.0026-0.01302-0.0052-0.03125-0.0078-0.05469-0.0013-0.02474-0.0033-0.05273-0.0059-0.08398-0.0013-0.03125-0.0026-0.0638-0.0039-0.09766-0.0013-0.03516-2e-3 -0.06966-2e-3 -0.10352h-0.0078m-1.0664-0.71875c-1e-6 0.14583 0.0091 0.27083 0.02734 0.375 0.01823 0.10417 0.04753 0.1901 0.08789 0.25781 0.04036 0.06641 0.0918 0.11523 0.1543 0.14648 0.0625 0.03125 0.13867 0.04687 0.22852 0.04687 0.09245 0 0.17383-0.01497 0.24414-0.04492 0.07161-0.02995 0.13086-0.07812 0.17774-0.14453 0.04818-0.06771 0.08463-0.1556 0.10938-0.26367 0.02474-0.10807 0.03711-0.24023 0.03711-0.39648-1e-6 -0.14974-0.01237-0.27604-0.03711-0.37891-0.02474-0.10416-0.0612-0.18815-0.10938-0.25195-0.04818-0.0638-0.10742-0.10937-0.17774-0.13672-0.06901-0.02864-0.14909-0.04297-0.24023-0.04297-0.08594 2e-6 -0.16016 0.01498-0.22266 0.04492-0.0625 0.02995-0.11458 0.07813-0.15625 0.14453-0.04167 0.06641-0.07292 0.153-0.09375 0.25977-0.01953 0.10547-0.0293 0.23372-0.0293 0.38476"/>
   <path id="path3848" d="m58.819 52.545c-2e-6 0.36979-0.08138 0.64518-0.24414 0.82617-0.16276 0.18099-0.39909 0.27148-0.70898 0.27148-0.14714 0-0.27865-0.02214-0.39453-0.06641-0.11589-0.04427-0.21419-0.11198-0.29492-0.20312-0.07943-0.09115-0.14063-0.20508-0.18359-0.3418-0.04167-0.13802-0.0625-0.30013-0.0625-0.48633 0-0.72916 0.31576-1.0937 0.94726-1.0938 0.16406 2e-6 0.30534 0.02279 0.42383 0.06836 0.11979 0.04557 0.21745 0.11393 0.29297 0.20508 0.07682 0.09115 0.13346 0.20508 0.16992 0.3418 0.03646 0.13672 0.05469 0.29622 0.05469 0.47852m-0.36914 0c-2e-6 -0.16406-0.01302-0.29948-0.03906-0.40625-0.02474-0.10677-0.06185-0.19206-0.11133-0.25586-0.04818-0.0638-0.10742-0.10807-0.17773-0.13281-0.07031-0.02604-0.14974-0.03906-0.23828-0.03906-0.08985 2e-6 -0.17122 0.01367-0.24414 0.04102-0.07161 0.02604-0.13281 0.07162-0.18359 0.13672-0.05078 0.0638-0.08984 0.14909-0.11719 0.25586-0.02604 0.10677-0.03906 0.24024-0.03906 0.40039 0 0.16406 0.01432 0.30013 0.04297 0.4082 0.02865 0.10677 0.06771 0.19206 0.11719 0.25586 0.05078 0.0638 0.11002 0.10872 0.17773 0.13476 0.06901 0.02604 0.14388 0.03906 0.22461 0.03906 0.08984 0 0.17122-0.01237 0.24414-0.03711 0.07292-0.02604 0.13476-0.07096 0.18555-0.13476 0.05078-0.0638 0.08984-0.14974 0.11719-0.25781 0.02734-0.10807 0.04101-0.24414 0.04102-0.4082"/>
   <path id="path3850" d="m60.6 53.604v-1.3398c-2e-6 -0.10286-0.0078-0.1888-0.02344-0.25781-0.01432-0.06901-0.03841-0.12435-0.07226-0.16602-0.03386-0.04297-0.07878-0.07292-0.13477-0.08984-0.05469-0.01823-0.12305-0.02734-0.20508-0.02734-0.08334 1e-6 -0.15886 0.01497-0.22656 0.04492-0.06641 0.02865-0.1237 0.07097-0.17188 0.12695-0.04687 0.05469-0.08333 0.12305-0.10938 0.20508-0.02604 0.08073-0.03906 0.17383-0.03906 0.2793v1.2246h-0.35156v-1.6621c0-0.04427-6.51e-4 -0.09049-2e-3 -0.13867 0-0.04948-6.51e-4 -0.0957-2e-3 -0.13867-0.0013-0.04427-0.0026-0.08203-0.0039-0.11328-0.0013-0.03125-0.0026-0.05143-0.0039-0.06055h0.33203c0.0013 0.0065 0.0026 0.02409 0.0039 0.05273 0.0013 0.02865 0.0026 0.06185 0.0039 0.09961 0.0026 0.03646 0.0046 0.07422 0.0059 0.11328 0.0013 0.03776 2e-3 0.06966 2e-3 0.0957h0.0059c0.03385-0.0612 0.07096-0.11654 0.11133-0.16602 0.04036-0.04948 0.08724-0.09114 0.14062-0.125 0.05339-0.03515 0.11458-0.06185 0.18359-0.08008 0.06901-0.01953 0.14909-0.0293 0.24023-0.0293 0.11719 2e-6 0.2181 0.01432 0.30274 0.04297 0.08463 0.02865 0.1543 0.07292 0.20898 0.13281 0.05469 0.0599 0.0944 0.13737 0.11914 0.23242 0.02604 0.09375 0.03906 0.20573 0.03906 0.33594v1.4082h-0.35352"/>
   <path id="path3852" d="m63.872 51.116c-0.15625 2e-6 -0.29492 0.02604-0.41602 0.07813-0.11979 0.05208-0.2207 0.1263-0.30273 0.22266-0.08073 0.09636-0.14193 0.21224-0.18359 0.34766-0.04167 0.13542-0.0625 0.28581-0.0625 0.45117 0 0.16537 0.02214 0.31706 0.06641 0.45508 0.04557 0.13672 0.11002 0.25456 0.19336 0.35352 0.08463 0.09896 0.1875 0.17578 0.30859 0.23047 0.12239 0.05469 0.25976 0.08203 0.41211 0.08203 0.10677 0 0.20377-0.01367 0.29102-0.04102 0.08854-0.02865 0.16797-0.06836 0.23828-0.11914 0.07161-0.05078 0.13541-0.11068 0.19141-0.17969 0.05599-0.07031 0.10547-0.14779 0.14844-0.23242l0.30469 0.15234c-0.04948 0.10286-0.11068 0.19857-0.18359 0.28711-0.07292 0.08854-0.15886 0.16536-0.25781 0.23047-0.09766 0.0651-0.20899 0.11654-0.33398 0.1543-0.1237 0.03646-0.26237 0.05469-0.41602 0.05469-0.22266 0-0.41797-0.03516-0.58594-0.10547-0.16667-0.07162-0.30664-0.17057-0.41992-0.29688-0.11198-0.1276-0.19596-0.27864-0.25195-0.45312-0.05599-0.17448-0.08398-0.36523-0.08398-0.57227 0-0.21484 0.0293-0.40885 0.08789-0.58203 0.05989-0.17318 0.14648-0.32031 0.25976-0.44141 0.11458-0.12239 0.25521-0.21614 0.42188-0.28125 0.16667-0.0664 0.35677-0.09961 0.57031-0.09961 0.29297 3e-6 0.53776 0.05729 0.73438 0.17188 0.19661 0.11459 0.34114 0.28451 0.43359 0.50977l-0.35352 0.11719c-0.02604-0.0651-0.0612-0.12695-0.10547-0.18555-0.04427-0.05989-0.09961-0.11263-0.16602-0.1582-0.06641-0.04557-0.14453-0.08203-0.23438-0.10938-0.08854-0.02734-0.19011-0.04101-0.30469-0.04102"/>
   <path id="path3854" d="m65.483 51.041v-0.33594h0.35156v0.33594h-0.35156m0 2.5625v-2.1133h0.35156v2.1133h-0.35156"/>
   <path id="path3856" d="m67.188 53.588c-0.05339 0.01432-0.10807 0.02539-0.16406 0.0332-0.05469 0.0091-0.11849 0.01367-0.19141 0.01367-0.28125 0-0.42188-0.1595-0.42188-0.47852v-1.4102h-0.24414v-0.25586h0.25781l0.10352-0.47266h0.23438v0.47266h0.39062v0.25586h-0.39062v1.334c-1e-6 0.10156 0.01627 0.17318 0.04883 0.21484 0.03385 0.04036 0.0918 0.06055 0.17383 0.06055 0.03385 0 0.06641-0.0026 0.09766-0.0078 0.03255-0.0052 0.06771-0.01172 0.10547-0.01953v0.25977"/>
   <path id="path3858" d="m68.395 53.604c-0.04948 0.1276-0.10026 0.24219-0.15234 0.34375-0.05078 0.10286-0.10807 0.1901-0.17188 0.26172-0.0638 0.07292-0.13477 0.12825-0.21289 0.16602-0.07813 0.03906-0.16797 0.05859-0.26953 0.05859-0.04427-1e-6 -0.08529-0.0013-0.12305-0.0039-0.03776-0.0026-0.07747-0.0085-0.11914-0.01758v-0.26367c0.02474 0.0039 0.05273 0.0065 0.08398 0.0078 0.03125 0.0026 0.05794 0.0039 0.08008 0.0039 0.10286-1e-6 0.19857-0.03841 0.28711-0.11524 0.08854-0.07682 0.16602-0.19922 0.23242-0.36719l0.0332-0.08398-0.83789-2.1035h0.375l0.44531 1.168c0.01302 0.03516 0.0293 0.08203 0.04883 0.14062 0.02083 0.05859 0.04102 0.11719 0.06055 0.17578 0.02083 0.05859 0.03906 0.11133 0.05469 0.1582 0.01562 0.04687 0.02474 0.07617 0.02734 0.08789 0.0039-0.01432 0.01302-0.04232 0.02734-0.08398 0.01562-0.04297 0.03255-0.09049 0.05078-0.14258 0.01953-0.05208 0.03906-0.10482 0.05859-0.1582 0.01953-0.05338 0.03581-0.09961 0.04883-0.13867l0.41406-1.207h0.37109l-0.8125 2.1133"/>
  </g>
  <path id="rect3786" d="m-17.143 5.8824v3.9982c1.8184-0.64103 3.953-1.1136 6.2857-1.3511v-2.6471h-6.2857z" fill="url(#linearGradient3799)" opacity=".9"/>
  <path id="path2943" d="m36 6.0276c-0.99613 0-1.8037 0.76906-1.8037 1.7177 0.0024 0.10872 4e-3 0.23286 0.01504 0.36809-0.15765 0.08575-0.17819 0.4211-0.03758 0.75918 0.05423 0.13036 0.12817 0.23629 0.20291 0.32208 0.0025 0.00291 0.0051 0.00489 0.0076 0.00766 0.01783 0.089318 0.03104 0.15997 0.0526 0.26073 0.06684 0.20458 0.343 0.5894 0.58619 0.92022 0.02426 0.2552 0.02625 0.50724-0.02255 0.79752-0.69998 0.59258-2.4902 0.85886-2.4875 1.4723l-0.24049 1.595c0 0.3268 0.47843 0.62602 1.24 0.8282l0.10521 0.4371a0.26191 0.26726 0 0 0 0.16533 0.17638c0.0338 0.01338 0.05766 0.04157 0.1503 0.06902 0.48802 0.14458 1.2311 0.24539 2.0667 0.24539 0.83556 0 1.5862-0.10082 2.0742-0.24539 0.09264-0.02745 0.1165-0.05568 0.1503-0.06902a0.26191 0.26726 0 0 0 0.15781-0.16871l0.12776-0.46011c0.74298-0.20186 1.2175-0.49066 1.2175-0.81286l-0.24049-1.595c-0.0028-0.52505-1.8037-0.85887-2.4951-1.4723-0.02799-0.235-0.02928-0.46637-0.01504-0.69783 0.2211-0.34802 0.5122-0.79342 0.58619-1.0199 0.02719-0.11729 0.03901-0.19835 0.06011-0.29907 0.06529-0.081433 0.12465-0.17552 0.17285-0.2914 0.13354-0.32105 0.12108-0.63193-0.01502-0.73617 0.0095-0.1395 0.01856-0.27187 0.02255-0.39109 2e-6 -0.94868-0.80752-1.7177-1.8036-1.7177z" enable-background="new" fill="#4d74ad"/>
  <rect id="rect2957" x="2" y="5" width="8" height="10" fill="#fff"/>
  <rect id="rect2959" transform="scale(1,-1)" x="2.9897" y="-13.985" width="6.0207" height="7.9261" fill="url(#linearGradient2965)"/>
  <path id="path2961" d="m6 6.6459c-0.66978 0-1.2127 0.5171-1.2127 1.155 0.0016 0.073098 0.0027 0.15657 0.01011 0.24749-0.106 0.057657-0.11981 0.28314-0.02527 0.51046 0.03646 0.087654 0.08618 0.15888 0.13643 0.21656 0.0017 0.00196 0.0034 0.00329 0.0051 0.00515 0.01199 0.060056 0.02087 0.10756 0.03537 0.17531 0.04494 0.13756 0.23062 0.3963 0.39414 0.61874 0.01631 0.17159 0.01765 0.34106-0.01516 0.53624-0.47066 0.39844-1.6744 0.57748-1.6726 0.98997l-0.1617 1.0725c0 0.21973 0.32168 0.42092 0.83376 0.55686l0.07074 0.2939a0.17611 0.1797 0 0 0 0.11117 0.11859c0.02273 9e-3 0.03877 0.02795 0.10106 0.04641 0.32814 0.09721 0.82779 0.165 1.3896 0.165 0.56181 0 1.0665-0.06779 1.3947-0.165 0.06229-0.01846 0.07833-0.03744 0.10106-0.04641a0.17611 0.1797 0 0 0 0.10611-0.11344l0.0859-0.30937c0.49956-0.13573 0.8186-0.32991 0.8186-0.54655l-0.1617-1.0725c-0.0019-0.35304-1.2127-0.57748-1.6776-0.98998-0.01882-0.15801-0.01969-0.31358-0.01011-0.46921 0.14867-0.234 0.34439-0.53348 0.39414-0.68577 0.01828-0.078863 0.02623-0.13337 0.04042-0.20109 0.0439-0.054754 0.08381-0.11802 0.11622-0.19593 0.08979-0.21587 0.08141-0.4249-0.0101-0.49499 0.0064-0.0938 0.01248-0.1828 0.01516-0.26296 1e-6 -0.63787-0.54296-1.155-1.2127-1.155z" enable-background="new" fill="#4d74ad"/>
 </g>
</svg>
