<?xml version="1.0" encoding="UTF-8"?>
<!-- Created with Inkscape (http://www.inkscape.org/) -->
<svg id="svg2" width="24" height="24" version="1.1" xmlns="http://www.w3.org/2000/svg" xmlns:cc="http://creativecommons.org/ns#" xmlns:dc="http://purl.org/dc/elements/1.1/" xmlns:rdf="http://www.w3.org/1999/02/22-rdf-syntax-ns#" xmlns:xlink="http://www.w3.org/1999/xlink">
 <defs id="defs4">
  <linearGradient id="linearGradient3335" x1="11.375" x2="11.375" y1="22" y2="-9.8173" gradientUnits="userSpaceOnUse">
   <stop id="stop3330" offset="0"/>
   <stop id="stop3333" stop-opacity="0" offset="1"/>
  </linearGradient>
  <linearGradient id="linearGradient3181" x1="-3.0608" x2="-3.0608" y1="27.258" y2="7.2537" gradientTransform="translate(12.119 -7.2582)" gradientUnits="userSpaceOnUse">
   <stop id="stop3702-0-2" stop-color="#156ab9" offset="0"/>
   <stop id="stop3704-4-9" stop-color="#5ba1e4" offset="1"/>
  </linearGradient>
  <radialGradient id="radialGradient3614" cx="206.55" cy="236.23" r="58.02" gradientTransform="matrix(.23166 -1.4335e-7 1.1943e-7 .19301 -35.849 -36.191)" gradientUnits="userSpaceOnUse">
   <stop id="stop4134" stop-color="#7bb8f0" offset="0"/>
   <stop id="stop4136" stop-color="#b5d5f2" stop-opacity=".12214" offset="1"/>
  </radialGradient>
  <linearGradient id="linearGradient3845" x1="11" x2="21" y1="19.5" y2="19.5" gradientTransform="translate(1,-1)" gradientUnits="userSpaceOnUse" spreadMethod="reflect">
   <stop id="stop3833" stop-color="#fff" offset="0"/>
   <stop id="stop3821" stop-color="#fff" stop-opacity=".49804" offset=".75"/>
   <stop id="stop3835" stop-color="#fff" stop-opacity="0" offset="1"/>
  </linearGradient>
  <linearGradient id="linearGradient3938" x1="10" x2="10" y1="1" y2="16" gradientTransform="translate(1,-1)" gradientUnits="userSpaceOnUse">
   <stop id="stop3825" stop-color="#fff" offset="0"/>
   <stop id="stop3829" stop-color="#fff" stop-opacity="0" offset="1"/>
  </linearGradient>
  <linearGradient id="linearGradient4578" x1="59" x2="69" y1="40" y2="40" gradientUnits="userSpaceOnUse">
   <stop id="stop5934-3-2-9" stop-color="#ff7c53" offset="0"/>
   <stop id="stop5940-1-4-5" stop-color="#f21919" offset=".5"/>
   <stop id="stop5942-5-4-7" stop-color="#db1414" offset=".5"/>
   <stop id="stop5936-2-5-0" stop-color="#9b1818" offset="1"/>
  </linearGradient>
  <linearGradient id="linearGradient4580" x1="59" x2="69" y1="88" y2="88" gradientUnits="userSpaceOnUse">
   <stop id="stop5946-9-5-0" stop-color="#f0f0f0" offset="0"/>
   <stop id="stop5952-4-9-7" stop-color="#e6e6e6" offset=".5"/>
   <stop id="stop5954-4-7-2" stop-color="#d2d2d2" offset=".5"/>
   <stop id="stop5948-6-2-1" stop-color="#bebebe" offset="1"/>
  </linearGradient>
  <radialGradient id="radialGradient4582" cx="63.335" cy="63.28" r="1.7404" gradientTransform="matrix(.644 -1.4509e-6 1.4509e-6 .644 22.699 22.756)" gradientUnits="userSpaceOnUse">
   <stop id="stop5962-7-7-5" stop-color="#c1c1c1" offset="0"/>
   <stop id="stop5964-4-1-8" stop-color="#3f3f3f" offset="1"/>
  </radialGradient>
 </defs>
 <metadata id="metadata7">
  <rdf:RDF>
   <cc:Work rdf:about="">
    <dc:format>image/svg+xml</dc:format>
    <dc:type rdf:resource="http://purl.org/dc/dcmitype/StillImage"/>
    <dc:title/>
   </cc:Work>
  </rdf:RDF>
 </metadata>
 <g id="layer1" transform="translate(0,2)">
  <g id="g3337" transform="translate(1,-1)">
   <rect id="rect3371" x=".5" y=".5" width="21" height="21.5" rx="2.5" ry="2.5" fill="url(#linearGradient3335)" opacity=".3"/>
   <rect id="rect2553" x="1" y="2" width="20" height="20" rx="2.381" ry="2.3256" opacity=".5"/>
  </g>
  <rect id="rect3173" x="2" width="20" height="20" rx="2" ry="2" fill="url(#linearGradient3181)" fill-rule="evenodd"/>
 </g>
 <g id="layer2" transform="translate(0,2)">
  <path id="path3612" d="m9.2081 0.012077c0.39288 0.52778 0.0268 1.4091 0.6194 1.4004 0.28855 0.4081-0.57511 0.12174 0.04847 0.43627 0.3586 0.28252-0.37938 0.44394 0.06471 0.69747-0.51183 0.26421 0.08296 1.3819 0.46312 1.6616 0.6257 0.52694 0.27672-1.1156 0.97488-1.2011 0.37937-0.43326 1.0457-0.71138 1.5189-1.1472-0.46245-0.037557-0.73249-0.32551-0.29453-0.50388 0.80606 0.82628 0.20212-0.39132-0.24408-0.5841 0.43175-0.13739 0.85166-0.036781 0.79175-0.39318 0.45627-0.33393-0.43863-0.44175-0.75808-0.36625h-3.1845zm-3.8941 0.39318c-0.33625 0.52746 0.04879 0.95036 0.32855 0.30701 0.19803-0.26865-0.14712-0.29716-0.32855-0.30701zm0.84023 0.11849c-0.6497 0.30124-0.16014 1.0037-0.14406 1.1599 0.68442 0.23686 1.0651-0.15487 1.324 0.51464 0.65123 0.37546-0.01281 1.0279-0.25727 1.1978 0.44032-0.38362 1.2867 1.043 1.0648 0.28927-0.26471-0.19335 0.71075 0.31061 0.20467-0.31778-0.46573-0.75063 0.03697-0.33605 0.23332-0.16086 0.66783-0.59907-0.75562-0.67148-0.40029-1.288-0.31137-0.25228-0.71974-1.0165-1.2711-0.86716-0.3691 0.47752-0.05099-1.0405-0.59252-0.28085-0.02807 0.42462-0.0102 0.96344-0.16803 0.22782-0.10573-0.12878 0.1819-0.42817 0.0065-0.4748zm-1.325 0.00539c-0.4361 0.14544-0.41267 0.73488 0.12356 0.79807 0.18368-0.20944 0.07297-0.75841-0.12356-0.79807zm-1.702 0.18851c-0.56645 0.13426-0.33524 0.59116-0.1618 0.71984-0.70117 0.1757 1.0704 0.22455 0.18873 0.33583-0.73352 0.29306 0.70635 0.63832 0.94256 0.29085 0.90581 0.2216 0.0326-0.72537-0.04691-1.2387-0.38399-0.41226-0.01516 0.95036-0.36235 0.043906-0.12114 0.26918-0.50632 0.039667-0.56023-0.15173zm18 0.059247c-0.76011 0.29759 0.47242 1.4206 0.1661 0.39893-0.03051-0.12336 0.06862-0.44931-0.1661-0.39893zm-15.873 0.45243c-0.54621 0.5135 0.69428 0.93814-0.15688 1.3207-0.12762-0.47689-0.34721 0.23859-0.83416-0.14653-0.83712 0.34868-1.2652-0.18163-1.9661-0.54514-0.42096-0.05242-0.2628 0.40013-0.29069 0.82386v3.5131c0.41274 0.4344 0.16103 0.19166 0 0.071846 0.22654 0.77182-0.0999 1.9001 0.79306 2.349 0.1518 0.28167 0.78878 1.4817 0.81815 1.1226-0.31934-0.33454-0.64699-1.3375-0.10664-0.44358 0.48399 0.84971 1.1368 1.4008 2.0906 1.603 0.52144 0.17743 0.95028 0.78737 1.4088 0.65317 0.2593 0.6838-0.76843 1.3404 0.0345 1.9782 0.41917 0.64567 1.1229 1.0691 0.7419 1.9756-0.26645 0.8853-0.15236 1.8499-0.38281 2.6748-0.07152 0.50208 0.69953 1.7764 0.63273 0.75598 0.22514-0.70914 0.2192-1.4894 0.74942-1.9916 0.7255 0.0057 0.13866-0.78042 0.85881-0.67772 0.43944-0.57621 0.56672-1.2636 1.3083-1.4924 0.08858-0.69943 1.2331-1.7706 0.05075-2.0429-0.32134-0.15844-1.1487-0.21541-1.0855-0.29359 0.1281-0.69402-1.0699-0.8916-1.5796-1.1755-0.66923-0.4752-1.6748 0.78943-1.9106-0.30024-0.14068-0.34284-0.65508-0.3484-0.41867-0.87743-0.42604 0.42389-1.2594 0.29506-1.0412-0.52355 0.33133-0.68943 1.6037-0.72205 1.8205 0.10721-0.30104-0.91457 0.58189-1.6265 1.072-2.2772 0.0998-0.311 0.6928-0.5782 0.48873-0.16486 0.34766-0.012544 0.87459-0.64015 0.257-0.35048-0.0087-0.57236-0.54118-0.40959-0.71381-0.32832 0.31995-0.50799 1.9631-0.23027 1.275-1.0606-0.53317-0.21611-0.48882-1.4772-1.0281-0.77467 0.04538-0.43289-1.0976-1.2803-1.0727-0.55436 0.13952 0.64956 0.02551 1.3978-0.27141 1.8236-0.06196-0.95181-1.6847-0.74145-1.4761-1.7557 0.30225-0.4834 0.65544-1.1519 0.68909-1.0917 0.54168-0.20689 0.97728-0.80869 0.34948-1.2043-0.03355 0.34481-0.47215 1.0562-0.4104 0.19579-0.40614 0.48171-0.31338-0.76653-0.69375-0.89598zm12.964 0.33394c-0.95141 0.23282-1.3286 1.1419-1.7992 1.8948-0.69377 0.31291-0.66736 1.6567 0.10772 1.2275 0.20745 0.36245-0.14512 0.93373 0.45912 0.45981 0.48738-0.64521 0.08522-1.6888 0.91462-2.0956 0.06041 0.31634-0.76508 1.4976 0.19928 1.3034 0.8718 0.032907-0.63377 0.086898-0.20976 0.64398-0.44054-0.26148-0.21163 0.71413-0.78666 0.48709-0.49817 0.27108-0.82484-0.12586-0.71072-0.5607-0.3919 0.22871 0.12326 0.87392-0.55704 0.91269-0.15239 0.54135-1.4056 0.45975-0.69291 1.011 0.3164 0.82032-1.1789 0.051425-0.75441 1.0358 0.3632 0.97344 1.1244-0.32255 1.4332-0.57294 0.59583-0.46235 1.4787 0.78836 0.94256 0.83484 0.60121-0.080694 0.47766-0.65268-4e-3 -0.87412-0.26016-0.67498 0.82358 0.33103 0.76348 0.66945 0.38237 0.71627 0.22491-0.73335 0.61401-0.091563-0.04543 0.67699 1.5653 0.15918 0.79628 1.022-0.66116 0.13322-1.3119-0.17051-1.8811 0.02403-0.52979-0.00469-0.50321-0.57094-0.69609-0.71275-0.6739 0.054772-1.5067 0.048578-1.9578 0.59319-0.48786 0.6696-1.1914 1.6057-0.65965 2.4607 0.53211 1.267 1.8517 0.06572 2.6102 0.81399 0.22546 0.312-0.19538 0.68287 0.30874 1.0208 0.18969 0.71989-0.21536 1.4034 0.25054 2.0916 0.24091 0.64719 0.39042 1.6159 1.2871 1.0245 0.949-0.5713 0.69623-1.6245 1.4793-2.2078-0.61959-1.1995 0.75801-1.7255 1.1017-2.6993-0.75094 0.10998-1.4199-0.63899-1.6014-1.3928-0.31546-0.36616-0.23421-0.90607 0.11817-0.21821 0.48435 0.4695 0.49481 1.8626 1.3908 1.146 0.40961-0.17139 1.5282-0.82517 0.63693-1.1227-0.57457 0.41628-1.2084-1.2439-0.36476-0.28095 0.61335 0.26031 1.0429 0.41541 1.0429-0.44765v-7.0231c-0.19105 0.1953-0.68186 0.55601-0.92959 0.31633-0.42628 0.059382-0.98902 0.88912-0.85506 0.087033-0.37053-0.024546-0.06633 0.71918-0.57539 0.73997-0.05126 0.38235-0.51425 0.070804-0.34034 0.4339-0.3573-0.25354-0.65968-1.0541 0.04432-0.5516 1.0455-0.31377-0.68943-1.0215-0.82334-1.1926 0.22511-0.053956-0.2449-0.28863-0.30162-0.21006zm-8.6285 0.21005c-0.34798 0.29005 0.66155 0.34467 0 0zm-4.6482 0.1562c-0.3892 0.40726 0.61983 0.37439 0 0zm2.2568 0.40396c-0.29473 0.483 0.43548 0.17832 0 0zm6.4525 0.57092c-0.34505 0.3974-0.80049-0.10459-0.80791 0.23699 0.06253 0.10321 0.31302 0.83983 0.86177 0.29623 0.29452-0.12422 0.17856-0.43735-0.05386-0.53322zm-7.3466 0.23699c-0.65448 0.57178 1.1115 0.62446 0.13865 0.065577l-0.13865-0.065577zm8.6339 1.5835c-0.47121 0.30739 0.22605 0.96019-0.01026 1.2668-0.29526 0.51463 1.0972-0.036251 0.35348-0.44685-0.05299-0.35276-0.43572-0.78318-0.34322-0.81999zm-0.31778 0.6194c-0.65652 0.18568-0.14904 1.1443 0.08349 0.24143 0.01309-0.052347 0.0308-0.24318-0.08349-0.24143zm-5.2568 0.6948c-0.61077 0.41663-0.09486 0.83249 0.35275 0.64503-0.09189-0.25137-0.34861-0.40975-0.35275-0.64503zm11.537 0.70019c0.30475 0.15386-0.55846 0.41669-0.01187 0.68747 0.31809 0.37421 0.19817 1.1775-0.31886 0.60896 0.09606-0.63476-0.70085-1.1088 0.33072-1.2964zm-1.5674 0.00539c-0.04135 0.40781 0.87951 1.0417-0.11311 0.83484-0.52494 0.061601-1.3112-0.016044-0.64986-0.6704 0.20896-0.1255 0.75763 0.43298 0.47212-0.089036 0.10122-0.00646 0.1955-0.044684 0.29085-0.075405zm-3.0324 0.88332c-0.38288 0.24676 0.26476 0.43598 0 0zm-9.6141 2.2998c-0.06455 0.21543 1.211 0.43375 0.33079 0.08861l-0.13121-0.0462-0.19958-0.04241zm0.99104 0.30701c-0.38688 0.39291 0.7971 0.11738 0 0zm12.937 3.6033c-0.84065 0.0217-0.72889 2.1909-0.14289 0.90734 0.05557-0.27852 0.27831-0.64614 0.14289-0.90734z" fill="url(#radialGradient3614)" opacity=".6"/>
 </g>
 <g id="layer4" transform="translate(0,2)" fill-rule="evenodd">
  <path id="rect3050" d="m4 0c-1.108 0-2 0.892-2 2v16c0 1.108 0.892 2 2 2h16c1.108 0 2-0.892 2-2v-16c0-1.108-0.892-2-2-2h-16zm0 1.0312h16c0.5497 0 0.96875 0.41905 0.96875 0.96875v16c0 0.5497-0.41905 0.96875-0.96875 0.96875h-16c-0.5497 0-0.96875-0.41905-0.96875-0.96875v-16c0-0.5497 0.41905-0.96875 0.96875-0.96875z" fill="url(#linearGradient3938)" opacity=".35"/>
  <path id="path3235" d="m4 20c-1.108 0-2-0.892-2-2v-1c0 1.108 0.892 2 2 2h16c1.108 0 2-0.892 2-2v1c0 1.108-0.892 2-2 2h-16z" fill="url(#linearGradient3845)" opacity=".2"/>
 </g>
 <g id="layer3" transform="translate(0,2)">
  <path id="path4588" d="m12 2-1.1562 4.1719c-0.43753 0.13222-0.84305 0.33762-1.2031 0.60156l-1.8828-1.0156 1.0156 1.8828c-0.26394 0.36008-0.46934 0.7656-0.60156 1.2031l-4.1719 1.1562 4.1719 1.1562c0.13222 0.43753 0.33762 0.84305 0.60156 1.2031l-1.0156 1.8828 1.8828-1.0156c0.36008 0.26394 0.7656 0.46934 1.2031 0.60156l1.1562 4.1719 1.1562-4.1719c0.43753-0.13222 0.84305-0.33762 1.2031-0.60156l1.8828 1.0156-1.0156-1.8828c0.26394-0.36008 0.46934-0.7656 0.60156-1.2031l4.1719-1.1562-4.1719-1.1562c-0.13222-0.43753-0.33762-0.84305-0.60156-1.2031l1.0156-1.8828-1.8828 1.0156c-0.36008-0.26394-0.7656-0.46934-1.2031-0.60156l-1.1562-4.1719zm0 5c1.6569 0 3 1.3431 3 3 0 1.6569-1.3431 3-3 3s-3-1.3431-3-3c0-1.6569 1.3431-3 3-3z" color="#000000" fill="#fff"/>
  <path id="path4052" d="m18.469 2.9375c2.91e-4 -2.74e-5 0.0097 0.030145 0 0.03125-0.0097 0.00111-0.03154 3.88e-5 -0.03125 0 5.79e-4 -7.77e-5 -0.06308 1.004e-4 -0.0625 0 5.75e-4 -1.004e-4 -0.03182 1.231e-4 -0.03125 0a0.50825 0.50825 0 0 0-0.03125 0 0.50825 0.50825 0 0 0-0.0625 0.03125c6.88e-4 -2.455e-4 -0.06318 2.791e-4 -0.0625 0 6.75e-4 -2.791e-4 -0.03191 0.031562-0.03125 0.03125 6.6e-4 -3.121e-4 -0.06314 0.031594-0.0625 0.03125 6.44e-4 -3.444e-4 -0.03188 3.758e-4 -0.03125 0 6.26e-4 -3.758e-4 -0.03186 0.031656-0.03125 0.03125 6.07e-4 -4.063e-4 -0.06309 0.031686-0.0625 0.03125 5.86e-4 -4.358e-4 -0.03181 0.031714-0.03125 0.03125 5.64e-4 -4.642e-4 -0.03179 0.031741-0.03125 0.03125l-7.375 5.625c4.24e-4 -3.172e-4 -0.03166 0.031582-0.03125 0.03125 4.01e-4 -3.468e-4 -0.03164 0.031611-0.03125 0.03125 3.88e-4 -3.61e-4 -0.03163 0.031625-0.03125 0.03125 3.75e-4 -3.746e-4 -0.03161 0.031638-0.03125 0.03125 3.61e-4 -3.878e-4 -0.0316 0.03165-0.03125 0.03125 3.32e-4 -4.127e-4 -0.03157 0.031674-0.03125 0.03125l-5.625 7.375-0.03125 0.03125c4.851e-4 -5.35e-4 -0.031708 0.03181-0.03125 0.03125 4.582e-4 -5.59e-4 -4.303e-4 0.03183 0 0.03125s-0.031651 0.03185-0.03125 0.03125c4.013e-4 -6.01e-4 -0.031621 0.06312-0.03125 0.0625 3.713e-4 -6.2e-4 -0.031591 0.03189-0.03125 0.03125 3.405e-4 -6.37e-4 -0.031559 0.0319-0.03125 0.03125 3.088e-4 -6.53e-4 -2.764e-4 0.06317 0 0.0625 2.764e-4 -6.67e-4 -0.031493 0.03193-0.03125 0.03125 2.433e-4 -6.8e-4 -2.096e-4 0.03194 0 0.03125 2.096e-4 -6.91e-4 -0.031426 0.0632-0.03125 0.0625 1.755e-4 -7.01e-4 -1.409e-4 0.03196 0 0.03125 1.409e-4 -7.09e-4 -1.059e-4 0.06321 0 0.0625 1.059e-4 -7.15e-4 -7.08e-5 0.03197 0 0.03125 7.08e-5 -7.19e-4 -0.031285 0.06322-0.03125 0.0625 3.54e-5 -7.22e-4 1e-7 0.06322 0 0.0625-1e-7 -7.22e-4 3.55e-5 0.03197 0 0.03125-3.55e-5 -7.22e-4 0.031321 0.06322 0.03125 0.0625-7.09e-5 -7.19e-4 1.06e-4 0.03196 0 0.03125-1.06e-4 -7.15e-4 1.41e-4 0.06321 0 0.0625-1.41e-4 -7.09e-4 1.756e-4 0.03195 0 0.03125-1.756e-4 -7.01e-4 0.03146 0.06319 0.03125 0.0625-2.097e-4 -6.91e-4 2.434e-4 0.03193 0 0.03125s0.031527 0.03192 0.03125 0.03125c-2.765e-4 -6.67e-4 3.089e-4 0.06315 0 0.0625-3.089e-4 -6.53e-4 0.031591 0.03189 0.03125 0.03125-3.406e-4 -6.37e-4 0.031621 0.03187 0.03125 0.03125-3.714e-4 -6.2e-4 0.031651 0.0631 0.03125 0.0625-4.014e-4 -6.01e-4 0.03168 0.03183 0.03125 0.03125-4.304e-4 -5.8e-4 4.583e-4 0.03181 0 0.03125-4.583e-4 -5.58e-4 0.031735 0.03178 0.03125 0.03125-4.852e-4 -5.35e-4 0.063011 0.03176 0.0625 0.03125-5.108e-4 -5.11e-4 0.031785 0.06299 0.03125 0.0625-5.353e-4 -4.85e-4 0.031809 0.03171 0.03125 0.03125-5.585e-4 -4.58e-4 0.03183 4.3e-4 0.03125 0-5.803e-4 -4.3e-4 0.031851 0.03165 0.03125 0.03125-6.007e-4 -4.01e-4 0.06312 0.03162 0.0625 0.03125-6.197e-4 -3.71e-4 0.031887 0.03159 0.03125 0.03125-6.371e-4 -3.41e-4 0.031903 0.03156 0.03125 0.03125-6.531e-4 -3.09e-4 0.063167 2.76e-4 0.0625 0-6.674e-4 -2.76e-4 0.03193 0.03149 0.03125 0.03125-6.802e-4 -2.43e-4 0.031941 2.1e-4 0.03125 0-6.913e-4 -2.1e-4 0.063201 0.03143 0.0625 0.03125-7.008e-4 -1.76e-4 0.031959 1.41e-4 0.03125 0-7.086e-4 -1.41e-4 0.063215 1.06e-4 0.0625 0-7.146e-4 -1.06e-4 0.031969 7.1e-5 0.03125 0s0.063222 0.03129 0.0625 0.03125c-7.216e-4 -3.5e-5 0.031973 0 0.03125 0-7.225e-4 0 0.063222-3.5e-5 0.0625 0-7.216e-4 3.5e-5 0.063219-0.03132 0.0625-0.03125-7.19e-4 7.1e-5 0.031965-1.06e-4 0.03125 0-7.146e-4 1.06e-4 0.063209-1.41e-4 0.0625 0-7.086e-4 1.41e-4 0.031951-1.75e-4 0.03125 0-7.008e-4 1.75e-4 0.063191-0.03146 0.0625-0.03125-6.914e-4 2.1e-4 0.03193-2.43e-4 0.03125 0-6.802e-4 2.43e-4 0.031917-0.03153 0.03125-0.03125-6.675e-4 2.76e-4 0.063153-3.09e-4 0.0625 0-6.531e-4 3.09e-4 0.031887-0.03159 0.03125-0.03125-6.372e-4 3.4e-4 0.03187-0.03162 0.03125-0.03125-6.197e-4 3.71e-4 0.063101-0.03165 0.0625-0.03125-6.007e-4 4.01e-4 0.03183-0.03168 0.03125-0.03125-5.803e-4 4.3e-4 0.031809-4.58e-4 0.03125 0-5.585e-4 4.58e-4 0.031785-0.03174 0.03125-0.03125-5.354e-4 4.85e-4 0.031761-0.03176 0.03125-0.03125l7.375-5.625c-4.24e-4 3.17e-4 0.03166-0.03158 0.03125-0.03125-4.01e-4 3.47e-4 0.03164-0.03161 0.03125-0.03125-3.88e-4 3.61e-4 0.03163-0.03163 0.03125-0.03125-3.75e-4 3.75e-4 0.03161-0.03164 0.03125-0.03125-3.61e-4 3.88e-4 0.0316-0.03165 0.03125-0.03125-3.32e-4 4.13e-4 0.03157-0.03167 0.03125-0.03125l5.625-7.375c-3.79e-4 4.444e-4 0.03161-0.031709 0.03125-0.03125-3.61e-4 4.59e-4 0.03159-0.031723 0.03125-0.03125-3.42e-4 4.729e-4 0.03157-0.031736 0.03125-0.03125-3.23e-4 4.861e-4 3.04e-4 -0.031748 0-0.03125-3.04e-4 4.985e-4 0.03153-0.03176 0.03125-0.03125-2.84e-4 5.101e-4 2.64e-4 -0.063021 0-0.0625-2.64e-4 5.209e-4 0.03149-0.031781 0.03125-0.03125-2.43e-4 5.309e-4 2.22e-4 -0.03179 0-0.03125-2.22e-4 5.401e-4 0.03145-0.031798 0.03125-0.03125-2e-4 5.484e-4 1.78e-4 -0.031806 0-0.03125-1.78e-4 5.559e-4 0.03141-0.031813 0.03125-0.03125-1.56e-4 5.625e-4 1.34e-4 -0.031818 0-0.03125-1.34e-4 5.682e-4 1.11e-4 -0.063073 0-0.0625-1.11e-4 5.731e-4 8.9e-5 -0.031827 0-0.03125s0.03132-0.03183 0.03125-0.03125c-6.6e-5 5.801e-4 4.3e-5 -0.031832 0-0.03125-4.3e-5 5.822e-4 2e-5 -0.063083 0-0.0625-2e-5 5.835e-4 -3e-6 -0.031834 0-0.03125 3e-6 5.838e-4 -2.6e-5 -0.031833 0-0.03125 2.6e-5 5.832e-4 -4.9e-5 -0.031832 0-0.03125 4.9e-5 5.817e-4 -7.2e-5 -0.031829 0-0.03125 7.2e-5 5.793e-4 -0.03135-0.063076-0.03125-0.0625 9.5e-5 5.76e-4 -1.18e-4 -0.031822 0-0.03125 1.18e-4 5.718e-4 -1.4e-4 -0.031817 0-0.03125 1.4e-4 5.667e-4 -1.62e-4 -0.031811 0-0.03125 1.62e-4 5.607e-4 -0.03143-0.031804-0.03125-0.03125 1.85e-4 5.539e-4 -2.06e-4 -0.063046 0-0.0625 2.06e-4 5.461e-4 -0.03148-0.031788-0.03125-0.03125 2.28e-4 5.376e-4 -2.49e-4 -0.031778 0-0.03125 2.49e-4 5.282e-4 -0.03152-0.031768-0.03125-0.03125 2.69e-4 5.179e-4 -2.9e-4 -0.031757 0-0.03125 2.9e-4 5.069e-4 -0.03156-0.031745-0.03125-0.03125 3.09e-4 4.951e-4 -0.03158-0.031732-0.03125-0.03125 3.29e-4 4.825e-4 -3.48e-4 -0.031719 0-0.03125 3.48e-4 4.691e-4 -0.03162-0.031705-0.03125-0.03125 3.66e-4 4.55e-4 -0.03163-0.03169-0.03125-0.03125 3.83e-4 4.402e-4 -0.03165-0.031675-0.03125-0.03125 4.01e-4 4.247e-4 -0.03167-0.031659-0.03125-0.03125 4.17e-4 4.086e-4 -4.33e-4 -0.031642 0-0.03125 4.33e-4 3.918e-4 -0.0317-3.744e-4 -0.03125 0 4.48e-4 3.744e-4 -0.03171-0.031606-0.03125-0.03125 4.62e-4 3.564e-4 -0.03173-0.031588-0.03125-0.03125 4.76e-4 3.379e-4 -0.03174-0.031569-0.03125-0.03125 4.89e-4 3.188e-4 -0.03175-2.992e-4 -0.03125 0 5.01e-4 2.992e-4 -0.03176-0.031529-0.03125-0.03125 5.13e-4 2.792e-4 -0.06302-0.031509-0.0625-0.03125 5.23e-4 2.587e-4 -0.03178-2.379e-4 -0.03125 0 5.33e-4 2.379e-4 -0.03179-0.031467-0.03125-0.03125 5.42e-4 2.166e-4 -0.0318-1.95e-4 -0.03125 0s-0.03181-1.732e-4 -0.03125 0c5.58e-4 1.732e-4 -0.03181-0.031401-0.03125-0.03125 5.64e-4 1.51e-4 -0.03182-1.286e-4 -0.03125 0 5.69e-4 1.286e-4 -0.06307-1.06e-4 -0.0625 0 5.74e-4 1.06e-4 -0.03183-8.33e-5 -0.03125 0 5.78e-4 8.33e-5 -0.03183-0.03131-0.03125-0.03125 5.81e-4 6.04e-5 -0.03183-3.74e-5 -0.03125 0 5.83e-4 3.74e-5 -0.06308-1.44e-5 -0.0625 0 5.84e-4 1.44e-5 -0.03183 8.7e-6 -0.03125 0 5.84e-4 -8.7e-6 -0.03183 3.17e-5 -0.03125 0 5.83e-4 -3.17e-5 -0.03183 5.47e-5 -0.03125 0z" fill-rule="evenodd" opacity=".05"/>
  <path id="path4048" d="m18.438 3.4688a0.46386 0.46386 0 0 0-0.1875 0.09375l-7.4062 5.6562a0.46386 0.46386 0 0 0-0.09375 0.09375l-5.6562 7.4062a0.46404 0.46404 0 0 0 0.65625 0.65625l7.4062-5.6562a0.46386 0.46386 0 0 0 0.09375-0.09375l5.6562-7.4062a0.46386 0.46386 0 0 0-0.46875-0.75z" fill-rule="evenodd" opacity=".15"/>
  <path id="path4017" d="m18.531 3.9375-7.4062 5.6562-5.6562 7.4062 7.4062-5.6562 5.6562-7.4062z" fill-rule="evenodd" opacity=".3"/>
  <g id="g4572" transform="matrix(.17678 .17678 -.17678 .17678 12.005 -6.9683)" fill-rule="evenodd">
   <g id="g5928-7-4" transform="matrix(.98984 0 0 .77049 -15.35 -1.2827)">
    <path id="path5923-0-5" d="m69 64h-10l5-48 5 48z" fill="url(#linearGradient4578)"/>
    <path id="path5926-8-6" d="m69 64h-10l5 48 5-48z" fill="url(#linearGradient4580)"/>
   </g>
   <path id="path5958-8-4" transform="matrix(.88541 0 0 .88541 -8.4565 -8.5673)" d="m65.503 63.921c0 0.96121-0.77921 1.7404-1.7404 1.7404-0.96121 0-1.7404-0.77921-1.7404-1.7404 0-0.96121 0.77921-1.7404 1.7404-1.7404 0.96121 0 1.7404 0.77921 1.7404 1.7404z" fill="url(#radialGradient4582)"/>
  </g>
  <rect id="rect2419-8" x="6" y="-68" width="84" height="84" rx="6" ry="6" opacity="0"/>
  <path id="path3522-9" d="m36.274-67.904c1.6501 2.2156 0.11259 5.9154 2.6015 5.8787 1.2119 1.7132-2.4154 0.51104 0.2036 1.8314 1.5061 1.186-1.5934 1.8636 0.27178 2.9279-2.1497 1.1091 0.34844 5.8011 1.9451 6.9754 2.628 2.2121 1.1622-4.6834 4.0945-5.0421 1.5934-1.8188 4.3918-2.9863 6.3793-4.816-1.9423-0.15766-3.0765-1.3665-1.237-2.1153 3.3854 3.4687 0.8489-1.6427-1.0251-2.452 1.8134-0.57676 3.577-0.1544 3.3254-1.6505 1.9163-1.4018-1.8423-1.8544-3.1839-1.5375h-13.375zm-27.802 1.4471c-2.4498 0.69785-2.6206 6.5516-0.15835 3.3011 0.60434-1.3347 3.3971-2.9432 0.15835-3.3011zm11.446 0.20349c-1.4123 2.2142 0.20491 3.9895 1.3799 1.2888 0.83171-1.1278-0.61793-1.2475-1.3799-1.2888zm3.529 0.49743c-2.7288 1.2646-0.6726 4.2135-0.60506 4.8693 2.8746 0.99433 4.4732-0.65011 5.5607 2.1604 2.7352 1.5762-0.0538 4.3149-1.0805 5.0282 1.8493-1.6104 5.4042 4.3783 4.4723 1.2143-1.1118-0.81167 2.9852 1.3039 0.85962-1.334-1.9561-3.1511 0.15527-1.4107 0.97995-0.67527 2.8049-2.5148-3.1736-2.8188-1.6812-5.4069-1.3078-1.0591-3.0229-4.2674-5.3387-3.6403-1.5502 2.0046-0.21415-4.3678-2.4886-1.179-0.11789 1.7825-0.0429 4.0444-0.70571 0.95635-0.44407-0.54061 0.764-1.7974 0.0273-1.9932zm-5.5649 0.02261c-1.8316 0.61055-1.7332 3.085 0.51896 3.3502 0.77143-0.8792 0.30649-3.1838-0.51896-3.3502zm-7.1484 0.79136c-2.3791 0.5636-1.408 2.4816-0.67957 3.0218-2.9449 0.73756 4.4957 0.94266 0.79268 1.4098-3.0808 1.2302 2.9667 2.6796 3.9588 1.221 3.8044 0.93027 0.13691-3.045-0.19704-5.1999-1.6128-1.7306-0.06365 3.9896-1.5219 0.18432-0.50879 1.13-2.1265 0.16652-2.353-0.63694zm75.601 0.24871c-3.1924 1.2492 1.9842 5.9635 0.69765 1.6747-0.12817-0.51787 0.28819-1.8862-0.69765-1.6747zm-66.666 1.8993c-2.2941 2.1556 2.916 3.9382-0.65889 5.5442-0.53602-2.0019-1.4583 1.0016-3.5035-0.61511-3.5159 1.4637-5.3139-0.76245-8.2575-2.2884-1.768-0.22006-1.1038 1.6797-1.2209 3.4585v14.748c1.7335 1.8236 0.67633 0.80458 0 0.3016 0.95147 3.24-0.41957 7.9763 3.3309 9.8609 0.63756 1.1824 3.3129 6.22 3.4362 4.7127-1.3412-1.4044-2.7174-5.6146-0.4479-1.8621 2.0328 3.567 4.7748 5.8806 8.7805 6.7294 2.1901 0.74486 3.9912 3.3053 5.9171 2.742 1.089 2.8705-3.2274 5.6271 0.14491 8.3045 1.7605 2.7104 4.7162 4.4882 3.116 8.2934-1.1191 3.7164-0.63993 7.7659-1.6078 11.229-0.30039 2.1077 2.938 7.4573 2.6575 3.1735 0.94557-2.9769 0.92064-6.2525 3.1476-8.3607 3.0471 0.02412 0.58237-3.2761 3.607-2.845 1.8456-2.4189 2.3802-5.3045 5.4949-6.265 0.37205-2.9361 5.1788-7.4329 0.21314-8.5761-1.3496-0.66512-4.8245-0.90428-4.5589-1.2325 0.53803-2.9134-4.4935-3.7428-6.6342-4.9348-2.8108-1.9949-7.0342 3.3139-8.0245-1.2604-0.59088-1.4392-2.7513-1.4626-1.7584-3.6834-1.7894 1.7794-5.2893 1.2386-4.373-2.1978 1.3916-2.8942 6.7356-3.0311 7.6463 0.45006-1.2644-3.8393 2.4439-6.828 4.5025-9.5595 0.41916-1.3056 2.9097-2.4272 2.0527-0.69208 1.4602-0.05266 3.6733-2.6873 1.0794-1.4713-0.0367-2.4027-2.273-1.7194-2.998-1.3782 1.3438-2.1325 8.245-0.96665 5.3551-4.4524-2.2393-0.90723-2.053-6.2014-4.318-3.252 0.1906-1.8172-4.61-5.3745-4.5052-2.3272 0.58599 2.7268 0.10714 5.868-1.1399 7.6553-0.26025-3.9956-7.0757-3.1125-6.1994-7.3703 1.2695-2.0293 2.7529-4.8355 2.8942-4.5831 2.275-0.86851 4.1046-3.3948 1.4678-5.0556-0.14092 1.4475-1.983 4.4339-1.7237 0.82192-1.7058 2.0222-1.3162-3.2178-2.9138-3.7613zm54.45 1.4018c-3.9959 0.97735-5.5801 4.7935-7.5568 7.9542-2.9139 1.3136-2.8029 6.9549 0.45241 5.1531 0.87128 1.5215-0.60951 3.9197 1.9283 1.9303 2.047-2.7086 0.35794-7.0892 3.8414-8.7971 0.25374 1.328-3.2133 6.2867 0.83699 5.4717 3.6616 0.13814-2.6618 0.36479-0.88099 2.7034-1.8503-1.0977-0.88884 2.9978-3.304 2.0448-2.0923 1.138-3.4643-0.52837-2.985-2.3538-1.646 0.9601 0.5177 3.6686-2.3396 3.8314-0.64005 2.2725-5.9034 1.93-2.9102 4.244 1.3289 3.4436-4.9515 0.21588-3.1685 4.3484 1.5254 4.0864 4.7224-1.354 6.0194-2.4052 2.5025-1.9409 6.2107 3.3094 3.9588 3.5046 2.5251-0.33874 2.0062-2.7399-0.0169-3.6695-1.0927-2.8335 3.459 1.3896 3.2066 2.8103 1.606 3.0069 0.94462-3.0786 2.5788-0.38437-0.1908 2.842 6.5742 0.66822 3.3444 4.2903-2.7769 0.55924-5.5101-0.71579-7.9008 0.10088-2.2251-0.01969-2.1135-2.3968-2.9236-2.9921-2.8304 0.22993-6.3279 0.20393-8.2228 2.4902-2.049 2.8109-5.0038 6.7404-2.7705 10.33 2.2349 5.3188 7.7772 0.27589 10.963 3.4171 0.94693 1.3097-0.8206 2.8666 1.2967 4.2853 0.79672 3.022-0.90448 5.8914 1.0523 8.7803 1.0118 2.7168 1.6398 6.7833 5.4058 4.3007 3.9858-2.3983 2.9242-6.8193 6.2129-9.268-2.6023-5.0356 3.1836-7.2435 4.6272-11.331-3.154 0.46168-5.9638-2.6824-6.7258-5.847-1.3249-1.5371-0.98368-3.8036 0.49633-0.91601 2.0343 1.9709 2.0782 7.8192 5.8413 4.8106 1.7204-0.71948 6.4186-3.464 2.6751-4.713-2.413 1.7475-5.0752-5.2217-1.5318-1.1794 2.576 1.0928 4.38 1.7438 4.38-1.8792v-29.482c-0.8024 0.81987-2.8638 2.3341-3.9043 1.3279-1.7904 0.24928-4.1539 3.7324-3.5912 0.36536-1.5562-0.10304-0.27858 3.019-2.4166 3.1063-0.21529 1.6051-2.1599 0.29723-1.4294 1.8215-1.5006-1.0643-2.7707-4.4248 0.18614-2.3156 4.391-1.3172-2.8956-4.2883-3.458-5.0064 0.94545-0.2265-1.0286-1.2116-1.2668-0.8818zm-36.24 0.8818c-1.4615 1.2176 2.7785 1.4469 0 0zm-19.522 0.6557c-1.6346 1.7097 2.6033 1.5717 0 0zm9.4784 1.6958c-1.2379 2.0276 1.829 0.74857 0 0zm27.101 2.3967c-1.4492 1.6682-3.362-0.43904-3.3932 0.99485 0.26265 0.43326 1.3147 3.5255 3.6194 1.2436 1.237-0.52145 0.74995-1.836-0.22622-2.2384zm-30.856 0.99485c-2.7488 2.4003 4.6683 2.6214 0.58232 0.27529l-0.58232-0.27529zm36.262 6.6474c-1.9791 1.2904 0.94943 4.0308-0.0431 5.3181-1.2401 2.1604 4.6083-0.15218 1.4846-1.8758-0.22257-1.4809-1.83-3.2877-1.4415-3.4423zm-1.3347 2.6002c-2.7574 0.77947-0.62595 4.8038 0.35067 1.0135 0.0549-0.21975 0.12936-1.0208-0.35067-1.0135zm-22.079 2.9167c-2.5652 1.749-0.39843 3.4947 1.4816 2.7078-0.38596-1.0552-1.4642-1.7201-1.4816-2.7078zm48.455 2.9393c1.28 0.64588-2.3455 1.7492-0.0498 2.8859 1.336 1.5709 0.83231 4.943-1.3392 2.5564 0.40344-2.6647-2.9436-4.6547 1.389-5.4423zm-6.5829 0.02261c-0.17366 1.7119 3.694 4.373-0.47504 3.5046-2.2048 0.2586-5.507-0.06736-2.7294-2.8143 0.87765-0.52682 3.1821 1.8176 1.9829-0.37376 0.42513-0.02712 0.82107-0.18758 1.2216-0.31654zm-12.736 3.7081c-1.6081 1.0359 1.112 1.8302 0 0zm-40.379 9.6546c-0.27111 0.90435 5.086 1.8208 1.3893 0.37196l-0.55107-0.19395-0.83822-0.17801zm4.1624 1.2888c-1.6249 1.6494 3.3478 0.49277 0 0zm54.337 15.126c-3.5307 0.09109-3.0613 9.197-0.60013 3.8089 0.2334-1.1692 1.1689-2.7124 0.60013-3.8089z" opacity="0"/>
 </g>
</svg>
