<?xml version="1.0" encoding="UTF-8"?>
<!-- Created with Inkscape (http://www.inkscape.org/) -->
<svg id="svg2" width="24" height="24" version="1.1" xmlns="http://www.w3.org/2000/svg" xmlns:cc="http://creativecommons.org/ns#" xmlns:dc="http://purl.org/dc/elements/1.1/" xmlns:rdf="http://www.w3.org/1999/02/22-rdf-syntax-ns#" xmlns:xlink="http://www.w3.org/1999/xlink">
 <defs id="defs4">
  <linearGradient id="linearGradient3335" x1="11.375" x2="11.375" y1="22" y2="-9.8173" gradientUnits="userSpaceOnUse">
   <stop id="stop3330" offset="0"/>
   <stop id="stop3333" stop-opacity="0" offset="1"/>
  </linearGradient>
  <linearGradient id="linearGradient3181" x1="-3.0608" x2="-3.0608" y1="27.258" y2="7.2537" gradientTransform="translate(12.119 -7.2582)" gradientUnits="userSpaceOnUse">
   <stop id="stop3189" stop-color="#d7d7d7" offset="0"/>
   <stop id="stop3191" stop-color="#f5f5f5" offset="1"/>
  </linearGradient>
  <filter id="filter3194" x="-.18" y="-.18" width="1.36" height="1.36" color-interpolation-filters="sRGB">
   <feGaussianBlur id="feGaussianBlur3196" stdDeviation="1.2"/>
  </filter>
  <clipPath id="clipPath2849">
   <rect id="rect2851" x="1" y="1" width="20" height="20" rx="2" ry="2" fill="#fff" fill-rule="evenodd"/>
  </clipPath>
  <linearGradient id="linearGradient3663" x1="13" x2="13" y1="16" y2="3.9584" gradientUnits="userSpaceOnUse">
   <stop id="stop3659" offset="0"/>
   <stop id="stop3661" stop-color="#444" offset="1"/>
  </linearGradient>
  <linearGradient id="linearGradient3845" x1="11" x2="21" y1="19.5" y2="19.5" gradientTransform="translate(1,-1)" gradientUnits="userSpaceOnUse" spreadMethod="reflect">
   <stop id="stop3833" stop-color="#fff" offset="0"/>
   <stop id="stop3821" stop-color="#fff" stop-opacity=".49804" offset=".75"/>
   <stop id="stop3835" stop-color="#fff" stop-opacity="0" offset="1"/>
  </linearGradient>
  <linearGradient id="linearGradient4030" x1="10" x2="10" y1="1" y2="16" gradientTransform="translate(1,-1)" gradientUnits="userSpaceOnUse">
   <stop id="stop3825" stop-color="#fff" offset="0"/>
   <stop id="stop3829" stop-color="#fff" stop-opacity="0" offset="1"/>
  </linearGradient>
 </defs>
 <metadata id="metadata7">
  <rdf:RDF>
   <cc:Work rdf:about="">
    <dc:format>image/svg+xml</dc:format>
    <dc:type rdf:resource="http://purl.org/dc/dcmitype/StillImage"/>
    <dc:title/>
   </cc:Work>
  </rdf:RDF>
 </metadata>
 <g id="layer1" transform="translate(0,2)">
  <g id="g3337" transform="translate(1,-1)">
   <rect id="rect3371" x=".5" y=".5" width="21" height="21.5" rx="2.5" ry="2.5" fill="url(#linearGradient3335)" opacity=".3"/>
   <rect id="rect2553" x="1" y="2" width="20" height="20" rx="2.381" ry="2.3256" opacity=".5"/>
  </g>
  <rect id="rect3173" x="2" width="20" height="20" rx="2" ry="2" fill="url(#linearGradient3181)" fill-rule="evenodd"/>
  <path id="path3655" d="m4.125 2.4688c-0.38339 6.46e-5 -0.70497 0.14588-0.9375 0.3125s-0.40274 0.34091-0.53125 0.59375c-0.16191 0.31854-0.1875 0.65743-0.1875 0.875 0 0.59055 0.35622 1.0492 0.34375 1.0312 0.035853 0.051752 0.22079 0.27316 0.46875 0.4375 0.10681 0.070791 0.18209 0.057915 0.28125 0.09375a0.75501 0.75501 0 0 0 0.09375 0.0625 0.75501 0.75501 0 0 0 0.3125 0.125c0.23993 0.030584 0.20585 0.047978 0.15625 0-0.096301-0.093168 0.017321 0.020318 0.09375 0.15625 0.076429 0.13593 0.16416 0.33093 0.25 0.5625l3.5625 9.6875c0.07201 0.19607 0.22862 0.57644 0.625 0.84375 0.38558 0.26003 0.78675 0.28125 1 0.28125 0.57478 0 1.1706-0.26053 1.5312-0.90625h0.03125c0.0041-0.0076-0.0041-0.02354 0-0.03125 0.0092-0.01748 0.03116-0.03108 0.03125-0.03125 1.41e-4 -2.82e-4 0.03112-0.06221 0.03125-0.0625l0.84375-1.8438 0.6875 1.6875c1.14e-4 4.32e-4 0.03111 0.09333 0.03125 0.09375 1.41e-4 4.24e-4 0.03108 0.09334 0.03125 0.09375a0.75501 0.75501 0 0 0 0.03125 0.0625c0.11442 0.2179 0.30056 0.46255 0.59375 0.65625 0.33585 0.22188 0.64707 0.28125 0.9375 0.28125 0.21617 0 0.5308-0.05422 0.84375-0.21875 0.25641-0.13481 0.31616-0.3206 0.4375-0.5 0.0038-0.0056 0.02754 0.0056 0.03125 0a0.75501 0.75501 0 0 0 0.34375-0.40625l0.03125-0.09375 3.5938-9.5938c0.097571-0.26356 0.19846-0.47018 0.28125-0.625 0.022077-0.041286 0.044641-0.063067 0.0625-0.09375a0.75501 0.75501 0 0 0 0.25-0.09375c0.02146-0.0073 0.04182-0.023358 0.0625-0.03125 0.07977-0.03044 0.17859-0.05679 0.25-0.09375 0.15868-0.082133 0.29319-0.16413 0.46875-0.375 0.06003-0.072111 0.08308-0.14251 0.125-0.21875 0.0069-0.01087 0.02363-0.049916 0.03125-0.0625 0.10807-0.17856 0.28118-0.50241 0.28125-0.9375-2.2e-5 -0.14288-0.01713-0.50577-0.1875-0.84375-0.16545-0.32823-0.39781-0.4859-0.625-0.625s-0.4476-0.24993-0.8125-0.25c-0.34046 0-0.66608 0.026425-0.96875 0.0625-0.17565 0.021463-0.32726 0.031256-0.53125 0.03125-0.19608 0-0.36434-0.00861-0.5625-0.03125-0.32124-0.034274-0.65526-0.062481-1-0.0625-0.13852 2.06e-5 -0.17687 0.080518-0.28125 0.125-0.1087-0.056709-0.18198-0.12496-0.375-0.125-0.32449 0-0.68638 0.021944-1.0625 0.0625 0.13322-0.014365 0.12447-0.017042-0.03125 0-0.19574 0.017433-0.35269 0.031254-0.4375 0.03125-0.20364 0-0.35839-0.00637-0.59375-0.03125a0.75501 0.75501 0 0 0-0.03125 0c-0.33804-0.034528-0.65852-0.062481-1-0.0625-0.20985 8.06e-5 -0.24261 0.066303-0.34375 0.125-0.11947-0.055948-0.19106-0.12497-0.34375-0.125-0.40268 0-0.77516 0.026261-1.125 0.0625a0.75501 0.75501 0 0 0-0.03125 0c-0.21781 0.023021-0.43568 0.031256-0.71875 0.03125-0.28127 0-0.50767-0.015864-0.625-0.03125-0.30775-0.039318-0.6615-0.062484-1.0625-0.0625-0.22872 4.42e-5 -0.21372 0.045703-0.3125 0.09375-0.087174-0.048493-0.048138-0.093706-0.3125-0.09375-0.40359 0-0.80097 0.028176-1.2188 0.0625-0.31523 0.026899-0.61462 0.031257-0.90625 0.03125-0.28369 0-0.49149-0.00757-0.71875-0.03125a0.75501 0.75501 0 0 0-0.0625 0c-0.020002-0.00196-0.042429 0.00193-0.0625 0-0.34232-0.032852-0.68178-0.062485-1.0625-0.0625zm11.406 4.875-0.75 2.0938-0.09375-0.21875 0.84375-1.875z" fill="#fff" opacity=".15"/>
  <path id="path3651" d="m4.125 3.2188c-0.35308 5.95e-5 -0.67468 0.29033-0.78125 0.5s-0.125 0.3719-0.125 0.53125c0 0.30701 0.17296 0.52774 0.21875 0.59375 0.042561 0.061435 0.10406 0.15328 0.25 0.25 0.11675 0.07738 0.25507 0.11021 0.375 0.125v0.03125c0.32869 0.041898 0.49412 0.12237 0.59375 0.21875 0.091372 0.088399 0.3306 0.45872 0.53125 1l3.5625 9.6875c0.048827 0.13295 0.14246 0.333 0.34375 0.46875s0.42347 0.15625 0.5625 0.15625c0.2979 0 0.71723-0.17162 0.90625-0.53125a0.77596 0.77596 0 0 0 0.03125-0.0625l1.5938-3.4062 1.3438 3.375a0.77596 0.77596 0 0 0 0.03125 0.09375c0.06174 0.11758 0.17062 0.26062 0.34375 0.375s0.38238 0.15625 0.53125 0.15625c0.13772 0 0.30307-0.02147 0.5-0.125 0.16769-0.08816 0.31864-0.29629 0.40625-0.5h0.03125l0.03125-0.09375 3.5938-9.5938c0.22182-0.59917 0.47676-1.0069 0.53125-1.0625 0.089915-0.091762 0.20697-0.13387 0.40625-0.15625v-0.03125c0.22388-0.040642 0.4814-0.18383 0.5625-0.28125 0.09376-0.11261 0.09039-0.15095 0.09375-0.15625 0.08307-0.13139 0.18746-0.31954 0.1875-0.59375-1.8e-5 -0.11948-0.0056-0.26312-0.125-0.5-0.1194-0.23688-0.5136-0.4687-0.75-0.46875-0.2926 0-0.58403 0.027821-0.875 0.0625-0.21822 0.026665-0.41024 0.031257-0.625 0.03125-0.20552 0-0.41644-0.00386-0.65625-0.03125-0.31715-0.033838-0.61018-0.062484-0.90625-0.0625-0.12666 1.88e-5 -0.19095 0.12075-0.3125 0.1875-0.12813-0.070872-0.22349-0.18747-0.34375-0.1875-0.28233 0-0.60844 0.023648-0.96875 0.0625-0.01158 0.00125-0.01958-0.00128-0.03125 0-0.23176 0.021568-0.40251 0.031256-0.53125 0.03125-0.21001 0-0.41697-0.00266-0.6875-0.03125-0.33299-0.034012-0.64498-0.062484-0.9375-0.0625-0.10887 4.18e-5 -0.21286 0.15085-0.34375 0.21875-0.12781-0.078547-0.18908-0.21872-0.34375-0.21875-0.36432 0-0.72716 0.027764-1.0625 0.0625-0.26308 0.027807-0.52341 0.031257-0.8125 0.03125-0.2937 0-0.53576-0.00725-0.71875-0.03125-0.28214-0.036046-0.60423-0.062485-0.96875-0.0625-0.10982 2.12e-5 -0.20169 0.07589-0.3125 0.125-0.11113-0.045687-0.21432-0.12498-0.3125-0.125-0.36431 0-0.74155 0.028429-1.1562 0.0625-0.35245 0.030075-0.67508 0.031256-0.96875 0.03125-0.28913 0-0.54254-0.00313-0.8125-0.03125a0.77596 0.77596 0 0 0-0.03125 0c-0.35286-0.034564-0.69799-0.062485-1.0625-0.0625zm4.4375 1.875c0.061472 0.026816 0.096698 0.081816 0.15625 0.09375v0.0625c0.23573 0.028984 0.36661 0.11572 0.375 0.125 0.00623 0.00689 0.26161 0.42804 0.53125 1.0938l1.4375 3.5312-0.78125 1.75-2.2812-6.125c-0.066417-0.17655-0.062496-0.27133-0.0625-0.21875-2.7e-6 -0.071465 0.014667-0.047716 0.03125-0.0625 0.022062-0.019668 0.094121-0.072108 0.21875-0.09375 0.031157-0.00541 0.020739 0.0037 0.0625 0v-0.03125c0.10132-0.010662 0.20666-0.071003 0.3125-0.125zm7.8125 0c0.13412 0.074151 0.26571 0.15156 0.375 0.15625 0.0078 3.361e-4 0.02387 8e-7 0.03125 0 0.1502 0.016681 0.23278 0.043817 0.21875 0.03125-0.016-0.014331-0.03125-0.056982-0.03125 0.0625-8e-6 0.093332-0.0114 0.26153-0.09375 0.5l-2.0312 5.6562-0.96875-2.3125 1.1875-2.6562c0.01078-0.02228 0.02051-0.00954 0.03125-0.03125 0.30884-0.62413 0.60086-1.0414 0.625-1.0625 0.09021-0.078752 0.26037-0.15842 0.5-0.1875v-0.0625c0.06115-0.010701 0.09524-0.068757 0.15625-0.09375zm-3.6875 0.03125c0.09547 0.035449 0.17483 0.12176 0.25 0.125 0.0079 3.396e-4 0.02384 7e-7 0.03125 0 0.15073 0.01691 0.23093 0.041891 0.21875 0.03125-0.01389-0.012135-0.03125-0.061273-0.03125 0.03125-2e-6 0.039552-0.03098 0.18742-0.15625 0.46875l-0.28125 0.625-0.34375-0.8125c-0.08584-0.20656-0.07516-0.23768-0.09375-0.3125 0.03901-0.011881 0.05327-0.020176 0.125-0.03125 0.03431-0.0053 0.02087 0.0033 0.0625 0v-0.03125c0.07157-0.00752 0.14076-0.063579 0.21875-0.09375z" fill="#fff" opacity=".3"/>
  <path id="text2810" d="m20 4.2028c-1e-5 0.067261-0.01784 0.12904-0.05341 0.18529-0.03567 0.056283-0.07476 0.084419-0.11734 0.084408-0.35147 0.039476-0.63875 0.17303-0.86182 0.40068-0.22312 0.22768-0.45331 0.66198-0.69059 1.3029l-3.6316 9.689c-0.02372 0.0899-0.09022 0.13485-0.19948 0.13485-0.08548 0-0.15183-0.04493-0.19905-0.13485l-2.0366-5.0429-2.3429 5.0429c-0.04725 0.0899-0.11359 0.13485-0.19905 0.13485-0.10461 0-0.17342-0.04493-0.20644-0.13485l-3.5677-9.689c-0.2231-0.60184-0.45807-1.0222-0.70493-1.261-0.24686-0.23881-0.59106-0.38635-1.0326-0.44263-0.03795 6.4e-6 -0.07353-0.023934-0.10669-0.071803-0.03321-0.047879-0.04971-0.10266-0.04971-0.16444 0-0.15748 0.03795-0.23623 0.11386-0.23624 0.31813 1.28e-5 0.65045 0.017009 0.99698 0.050953 0.32276 0.033625 0.62654 0.050443 0.91136 0.050443 0.28945 6.4e-6 0.63118-0.016818 1.0252-0.050443 0.41316-0.033944 0.77866-0.050953 1.0965-0.050953 0.07618 1.28e-5 0.1143 0.07876 0.1143 0.23624 0 0.1575-0.02381 0.23625-0.07125 0.23625-0.31814 0.028179-0.56862 0.1237-0.75143 0.28668-0.18283 0.163-0.27424 0.3766-0.27423 0.64079-1e-5 0.13486 0.03814 0.30351 0.11429 0.50594l2.9479 7.8845 1.6732-3.7439-1.5594-3.8705c-0.28018-0.69173-0.51045-1.1374-0.6908-1.3369-0.18036-0.19952-0.45338-0.32176-0.81901-0.36671-0.03302 5.3e-6 -0.06499-0.023934-0.09583-0.071803-0.03083-0.047879-0.0463-0.10266-0.0463-0.16444 0-0.15748 0.0332-0.23623 0.09952-0.23624 0.31812 1.28e-5 0.61004 0.017009 0.87573 0.050953 0.25641 0.033625 0.52935 0.050443 0.8188 0.050443 0.2848 6.4e-6 0.58627-0.016818 0.90441-0.050443 0.32769-0.033944 0.65045-0.050953 0.9683-0.050953 0.07618 1.28e-5 0.11429 0.07876 0.1143 0.23624-9e-6 0.15751-0.02372 0.23625-0.07125 0.23625-0.63627 0.050443-0.9544 0.26404-0.95439 0.64079-1e-5 0.16883 0.07362 0.43029 0.22078 0.78439l1.0326 2.4793 1.0252-2.2688c0.14254-0.32013 0.21381-0.58982 0.21382-0.8091-8e-6 -0.51742-0.31813-0.79295-0.95438-0.82659-0.05683 5.3e-6 -0.0852-0.078738-0.0852-0.23625-9e-6 -0.056283 0.01414-0.1097 0.0426-0.16032 0.02837-0.05057 0.05692-0.075898 0.08558-0.075909 0.22772 1.28e-5 0.50776 0.017009 0.84008 0.050953 0.31812 0.033625 0.57918 0.050443 0.78316 0.050443 0.14718 6.4e-6 0.36318-0.014052 0.648-0.04222 0.36071-0.039476 0.66218-0.059166 0.90442-0.059166 0.05673 1.27e-5 0.08519 0.067601 0.08519 0.20278-1.9e-5 0.17982-0.05218 0.26971-0.15646 0.2697-0.3703 0.044933-0.66814 0.16582-0.89354 0.36259-0.22542 0.1968-0.50676 0.6438-0.844 1.341l-1.3668 2.9934 1.851 4.4691 2.7345-7.5304c0.09502-0.27518 0.14254-0.52807 0.14256-0.75866-1.9e-5 -0.55105-0.31814-0.84339-0.95439-0.87703-0.05711 6.4e-6 -0.08567-0.078738-0.08557-0.23625-9e-6 -0.15748 0.04269-0.23623 0.12821-0.23624 0.23264 1.27e-5 0.50804 0.017009 0.82618 0.050953 0.29436 0.033625 0.54121 0.050443 0.74056 0.050443 0.20889 6.4e-6 0.45096-0.016807 0.72623-0.050443 0.2848-0.033944 0.54106-0.050953 0.76882-0.050953 0.0666 1.27e-5 0.09994 0.067601 0.09996 0.20278z" fill="url(#linearGradient3663)"/>
  <path id="rect3050" d="m4 0c-1.108 0-2 0.892-2 2v16c0 1.108 0.892 2 2 2h16c1.108 0 2-0.892 2-2v-16c0-1.108-0.892-2-2-2h-16zm0 1.0312h16c0.5497 0 0.96875 0.41905 0.96875 0.96875v16c0 0.5497-0.41905 0.96875-0.96875 0.96875h-16c-0.5497 0-0.96875-0.41905-0.96875-0.96875v-16c0-0.5497 0.41905-0.96875 0.96875-0.96875z" fill="url(#linearGradient4030)" fill-rule="evenodd" opacity=".7"/>
  <path id="path3235" d="m4 20c-1.108 0-2-0.892-2-2v-1c0 1.108 0.892 2 2 2h16c1.108 0 2-0.892 2-2v1c0 1.108-0.892 2-2 2h-16z" fill="url(#linearGradient3845)" fill-rule="evenodd" opacity=".4"/>
 </g>
 <g id="layer2" transform="translate(0,2)">
  <rect id="rect2410" transform="translate(1,-1)" x="3" y="3" width="16" height="16" rx="2" ry="2" clip-path="url(#clipPath2849)" fill="#fff" filter="url(#filter3194)" opacity=".15"/>
 </g>
</svg>
