<?xml version="1.0" encoding="UTF-8"?>
<!-- Created with Inkscape (http://www.inkscape.org/) -->
<svg id="svg2" width="22" height="22" version="1.1" xmlns="http://www.w3.org/2000/svg" xmlns:cc="http://creativecommons.org/ns#" xmlns:dc="http://purl.org/dc/elements/1.1/" xmlns:rdf="http://www.w3.org/1999/02/22-rdf-syntax-ns#" xmlns:xlink="http://www.w3.org/1999/xlink">
 <defs id="defs4">
  <linearGradient id="linearGradient3335" x1="11.375" x2="11.375" y1="22" y2="-9.8173" gradientUnits="userSpaceOnUse">
   <stop id="stop3330" offset="0"/>
   <stop id="stop3333" stop-opacity="0" offset="1"/>
  </linearGradient>
  <linearGradient id="linearGradient3181" x1="-3.0608" x2="-3.0608" y1="27.258" y2="7.2537" gradientTransform="translate(11.119 -6.2582)" gradientUnits="userSpaceOnUse">
   <stop id="stop3189-4" stop-color="#853e94" offset="0"/>
   <stop id="stop3191-0" stop-color="#b77ec6" offset="1"/>
  </linearGradient>
  <filter id="filter3194" x="-.18" y="-.18" width="1.36" height="1.36" color-interpolation-filters="sRGB">
   <feGaussianBlur id="feGaussianBlur3196" stdDeviation="1.2"/>
  </filter>
  <clipPath id="clipPath2849">
   <rect id="rect2851" x="1" y="1" width="20" height="20" rx="2" ry="2" fill="#fff" fill-rule="evenodd"/>
  </clipPath>
  <clipPath id="clipPath3728">
   <rect id="rect3730" transform="scale(1,-1)" x="6" y="-90" width="84" height="84" rx="8.4" ry="8.4" fill="url(#linearGradient3732)" fill-rule="evenodd"/>
  </clipPath>
  <linearGradient id="linearGradient3732" x1="-3.0608" x2="-3.0608" y1="27.258" y2="7.2537" gradientTransform="matrix(4.2 0 0 4.2 48.501 -120.48)" gradientUnits="userSpaceOnUse">
   <stop id="stop3226" stop-color="#80a2c8" offset="0"/>
   <stop id="stop3228" stop-color="#2e4c6d" offset="1"/>
  </linearGradient>
  <radialGradient id="RadialGray" cx="254.64" cy="253.88" r="233.47" gradientTransform="matrix(1.0608 -.067511 .06227 .97841 -31.59 22.765)" gradientUnits="userSpaceOnUse">
   <stop id="GrayStop1" stop-color="#434343" offset="0"/>
   <stop id="GrayStop2" stop-color="#434343" offset=".62869"/>
   <stop id="GrayStop3" stop-color="#252525" offset="1"/>
  </radialGradient>
  <clipPath id="ClipBallRelief">
   <path id="ClipBallReliefPath" d="m0 0v512h512v-512h-512zm258.75 58.438c18.849-0.16932 38.169 3.3445 49.031 7.6875 19.182 7.6693 48.471 16.694 28.406 46.062-20.18 29.538-30.717 88.162-13.469 120.53 17.328 32.52 23.773 38.497 48.219 50.312 24.446 11.816 55.193 11.722 78.125 8.8438 22.974-2.8831 11.417 34.925 4.5625 51.094-17.462 44.494-60.121 77.07-101.81 94.969-42.001 18.032-154.25 19.916-183.81 5.125-29.856-14.938-51.887-26.593-72.719-47.656-20.837-21.068-31.823-43.943-38.469-69.219-6.7357-25.619 21.573-10.006 54.656-4.4062 33.083 5.5994 69.622-20.349 84.312-37.375 14.691-17.026 36.199-68.119 37.5-100s2.5145-54.669-9.5938-71.562c-12.108-16.894-26.283-32.392-3.8125-45.969 9.831-5.9399 24.214-8.3058 38.875-8.4375z" fill-rule="evenodd" opacity=".5"/>
  </clipPath>
  <clipPath id="ClipBallReflect">
   <path id="ClipBallReflectPath" d="m255.03 37.844c-78.655 2.0815-157.93 40.989-202.59 106.65-30.477 45.918-35.577 103.97-29.107 157.41 14.114 84.885 85.392 154.24 168.83 171.73 60.276 13.327 124.99 6.9968 181.79-16.977 53.47-24.376 93.594-75.067 104.63-132.86 13.318-56.377 15.413-119.51-15.603-170.77-41.386-73.255-124.79-116.14-207.94-115.18z"/>
  </clipPath>
  <radialGradient id="RightWhite" cx="418.69" cy="181.85" r="81.905" gradientTransform="matrix(.94551 -.40399 .5143 1.2037 -69.782 131.21)" gradientUnits="userSpaceOnUse" xlink:href="#WhiteGradient"/>
  <linearGradient id="WhiteGradient">
   <stop id="WhiteStop1" stop-color="#fff" offset="0"/>
   <stop id="WhiteStop2" stop-color="#fff" offset=".67379"/>
   <stop id="WhiteStop3" stop-color="#989898" offset="1"/>
  </linearGradient>
  <clipPath id="ClipRightRelief">
   <path id="ClipRightReliefPath" d="m386 90.5s-28 28.5-34.5 50c-5.0228 16.614-9 51.5 13 79.5 19.452 24.757 56.5 45 87.5 34 31.89-11.316 42.077-41.718 45-66.5 2.9163-24.729 3.5-28 3.5-28l11.5 6 21.5 101-71.5 46-123.5-56.5-12.5-128.5 33.5-59 111 1.5 0.5 13.5-85 7z" fill-rule="evenodd" opacity=".2"/>
  </clipPath>
  <radialGradient id="LeftWhite" cx="112.07" cy="178.67" r="102.06" gradientTransform="matrix(.8322 .3616 -.50719 1.1673 114.88 -60.5)" gradientUnits="userSpaceOnUse" xlink:href="#WhiteGradient"/>
  <clipPath id="ClipLeftRelief">
   <path id="ClipLeftReliefPath" d="m20.5 232.75s45.277 54.998 82.75 52.75c37.5-2.25 61.75-7.5 85.75-45s12.5-88.5 6.5-105.5c-5.8433-16.556-28-46-60-58.5l-32-12.5 23.5-5.5 87 26 17.5 113-63 155.5-139.5-17.5-17-97 8.5-5.75z" fill-rule="evenodd" opacity=".2" stroke="#000" stroke-width="1px"/>
  </clipPath>
  <filter id="filter4001">
   <feGaussianBlur id="feGaussianBlur4003" stdDeviation="0.30566392"/>
  </filter>
  <linearGradient id="linearGradient3845-9" x1="11" x2="21" y1="19.5" y2="19.5" gradientUnits="userSpaceOnUse" spreadMethod="reflect">
   <stop id="stop3833" stop-color="#fff" offset="0"/>
   <stop id="stop3821" stop-color="#fff" stop-opacity=".49804" offset=".75"/>
   <stop id="stop3835" stop-color="#fff" stop-opacity="0" offset="1"/>
  </linearGradient>
  <linearGradient id="linearGradient4030" x1="10" x2="10" y1="1" y2="16" gradientUnits="userSpaceOnUse">
   <stop id="stop3825" stop-color="#fff" offset="0"/>
   <stop id="stop3829" stop-color="#fff" stop-opacity="0" offset="1"/>
  </linearGradient>
 </defs>
 <metadata id="metadata7">
  <rdf:RDF>
   <cc:Work rdf:about="">
    <dc:format>image/svg+xml</dc:format>
    <dc:type rdf:resource="http://purl.org/dc/dcmitype/StillImage"/>
   </cc:Work>
  </rdf:RDF>
 </metadata>
 <g id="layer1">
  <g id="g3337">
   <rect id="rect3371" x=".5" y=".5" width="21" height="21.5" rx="2.5" ry="2.5" fill="url(#linearGradient3335)" opacity=".3"/>
   <rect id="rect2553" x="1" y="2" width="20" height="20" rx="2.381" ry="2.3256" opacity=".5"/>
  </g>
  <rect id="rect3173" x="1" y="1" width="20" height="20" rx="2" ry="2" fill="url(#linearGradient3181)" fill-rule="evenodd"/>
  <g id="g3855" transform="matrix(.2381 0 0 .2381 -.42857 -.42857)" clip-path="url(#clipPath3728)" fill="#fff" opacity=".9">
   <path id="path3819" d="m48 48 24-56h16l-40 56z" opacity=".15"/>
   <path id="path3821" d="m48 48 55.251 25.677-0.48222 15.993-54.769-41.67z" opacity=".15"/>
   <path id="path3823" d="m48 48-59.828 11.516-8.9688-13.25 68.797 1.734z" opacity=".15"/>
   <path id="path3825" d="m48 48-49.311-35.783 3.5361-15.604 45.775 51.387z" opacity=".15"/>
   <path id="path3827" d="m48 48 17.519-62.073 30.436 12.714-47.955 49.359z" opacity=".15"/>
   <path id="path3829" d="m48 48 61.636-19.001 5.8539 32.461-67.49-13.46z" opacity=".15"/>
   <path id="path3831" d="m48 48-31.246 56.424-26.723-19.336 57.969-37.089z" opacity=".15"/>
   <path id="path3833" d="m48 48-62.812-14.651 11.304-30.988 51.508 45.639z" opacity=".15"/>
   <path id="path3835" d="m48 48 45.81 45.403-3.6917 9.0215-42.118-54.425z" opacity=".15"/>
   <path id="path3837" d="m48 48-2.9701 64.43-9.1685 3.31 12.139-67.74z" opacity=".15"/>
   <path id="path3839" d="m48 48-44.859 46.343-9.0645-3.585 53.924-42.758z" opacity=".15"/>
   <path id="path3841" d="m48 48-62.116 17.366-6.0159-7.6698 68.132-9.6964z" opacity=".15"/>
   <path id="path3843" d="m48 48-29.147-57.537 6.3493-7.3962 22.797 64.933z" opacity=".15"/>
   <path id="path3845" d="m48 48 59.482-24.939 6.921 6.8641-66.403 18.074z" opacity=".15"/>
   <path id="path3849" d="m48 48 40.187 45.793-6.8963 14.437-33.29-60.231z" opacity=".15"/>
   <path id="path3851" d="m48 48-35.958-49.184 8.1521-13.767 27.806 62.951z" opacity=".15"/>
  </g>
  <rect id="rect2975" x="1" y="1" width="20" height="20" rx="1.4286" ry="1.4286" fill="url(#linearGradient2977)"/>
  <path id="rect3050" d="m3 1c-1.108 0-2 0.892-2 2v16c0 1.108 0.892 2 2 2h16c1.108 0 2-0.892 2-2v-16c0-1.108-0.892-2-2-2h-16zm0 1.0312h16c0.5497 0 0.96875 0.41905 0.96875 0.96875v16c0 0.5497-0.41905 0.96875-0.96875 0.96875h-16c-0.5497 0-0.96875-0.41905-0.96875-0.96875v-16c0-0.5497 0.41905-0.96875 0.96875-0.96875z" fill="url(#linearGradient4030)" fill-rule="evenodd" opacity=".35"/>
  <path id="path3235" d="m3 21c-1.108 0-2-0.892-2-2v-1c0 1.108 0.892 2 2 2h16c1.108 0 2-0.892 2-2v1c0 1.108-0.892 2-2 2h-16z" fill="url(#linearGradient3845-9)" fill-rule="evenodd" opacity=".2"/>
 </g>
 <g id="layer2">
  <rect id="rect2410" x="3" y="3" width="16" height="16" rx="2" ry="2" clip-path="url(#clipPath2849)" fill="#fff" filter="url(#filter3194)" opacity=".15"/>
 </g>
 <g id="layer3">
  <path id="path3926" d="m-19.125 4.2185c-1.406 0.037207-2.799 0.45722-4.0312 1.1562-0.0099-7.04e-4 -0.02132 6.248e-4 -0.03125 0-0.07075-0.00445-0.14793-0.028388-0.21875-0.03125-1.1717 0.019484-2.1932 0.79732-2.8125 1.75-0.43681 0.69152-0.74166 1.4924-0.78125 2.3125 0.0055 0.46782 0.08146 0.95693 0.21875 1.4062-0.06088 0.70284-0.05222 1.4044 0.03125 2.0938 0.46459 2.7942 2.816 5.0807 5.5625 5.6562 1.9841 0.43869 4.1303 0.22665 6-0.5625 1.7601-0.80241 3.0741-2.4726 3.4375-4.375 0.19776-0.83713 0.29997-1.7224 0.28125-2.5938 0.03939-0.05154 0.09071-0.10041 0.125-0.15625 0.37441-0.75055 0.41248-1.6555 0.25-2.4687-0.13272-0.52753-0.36225-1.0304-0.6875-1.4688-0.07018-0.094592-0.14-0.19378-0.21875-0.28125-0.39418-0.4383-0.94967-0.68463-1.5312-0.75-0.16541-0.026005-0.33329-0.020893-0.5-0.03125-0.04185 0.00217-0.08295-0.00349-0.125 0-1.4035-1.0757-3.1908-1.6768-4.9688-1.6562z" filter="url(#filter4001)" opacity=".6"/>
  <g id="Logo" transform="matrix(.032918 0 0 .032918 2.4909 2.4692)">
   <!-- Goo Ball -->
   <g id="GooBall">
    <path id="Ball" d="m255.03 37.844c-78.655 2.0815-157.93 40.989-202.59 106.65-30.477 45.918-35.577 103.97-29.107 157.41 14.114 84.885 85.392 154.24 168.83 171.73 60.276 13.327 124.99 6.9968 181.79-16.977 53.47-24.376 93.594-75.067 104.63-132.86 13.318-56.377 15.413-119.51-15.603-170.77-41.386-73.255-124.79-116.14-207.94-115.18z" fill="url(#RadialGray)"/>
    <path id="BallRelief" d="m255.03 37.844c-78.655 2.0815-157.93 40.989-202.59 106.65-30.477 45.918-35.577 103.97-29.107 157.41 14.114 84.885 85.392 154.24 168.83 171.73 60.276 13.327 124.99 6.9968 181.79-16.977 53.47-24.376 93.594-75.067 104.63-132.86 13.318-56.377 15.413-119.51-15.603-170.77-41.386-73.255-124.79-116.14-207.94-115.18z" clip-path="url(#ClipBallRelief)" opacity=".15"/>
    <path id="BallReflect" d="m73 413c98.712-23.703 195.4-65.93 271.05-134.85 50.739-46.018 86.519-108.83 95.973-176.99 13.254-65.4 24.176-131.45 41.935-195.82 3.9149-7.9565 5.2614 12.147 7.9667 16.264 23.024 76.133 46.048 152.27 69.072 228.4-10.333 118.33-20.667 236.67-31 355-156.33 3.6667-312.67 7.3333-469 11-0.33333-33.333-0.66667-66.667-1-100l15-3z" clip-path="url(#ClipBallReflect)" fill-rule="evenodd" opacity=".05"/>
    <path id="Lights" d="m271.94 131c-3.3901 0.18518-6.6645 3.3694-6.3125 7 0.36347 3.7488 1.6345 7 7 7 5.364 0 6.6239-2.6236 7-7 0.375-4.364-3.261-6.75-7-7-0.22591-0.0151-0.46149-0.0123-0.6875 0zm-22.375 25.5c-1.735-0.11664-3.0191 1.5186-3.0625 3.0625-0.0399 1.419 1.0999 2.847 3.0625 3.0938 1.8395 0.23128 3.1339-1.2658 3.0938-3.0938-0.0402-1.8295-1.2344-2.9375-3.0938-3.0625z" fill="#fff" fill-rule="evenodd" opacity=".02"/>
   </g>
   <!-- Right Eye -->
   <g id="RightEye" fill-rule="evenodd">
    <path id="RightEyeball" d="m409.19 88.188c-15.36 0.79519-31.399 4.3208-42.775 15.414-15.948 15.15-22.144 37.36-26.71 58.186-6.6472 30.351 3.6973 63.336 25.982 84.872 18.749 19.28 46.565 31.054 73.55 25.796 20.362-3.8844 40.649-14.502 51.736-32.556 11.374-22.801 12.796-49.706 7.8601-74.411-4.0318-16.026-11.092-31.494-20.973-44.812-2.132-2.8736-4.3953-5.6471-6.7878-8.3045-11.975-13.315-29.031-21.16-46.699-23.146-5.025-0.79001-10.119-0.72348-15.183-1.0381z" fill="url(#RightWhite)"/>
    <path id="RightPupil" d="m448.16 153.81c-5.739 0.0561-11.541 2.0162-15.679 6.0963-9.0974 8.8355-11.048 24.189-4.3355 34.972 4.9522 7.8987 15.11 11.954 24.168 9.9503 6.3842-1.3519 12.753-4.5343 16.273-10.253 6.192-9.8889 4.6141-23.495-2.5154-32.48-4.2335-5.4245-11.011-8.669-17.911-8.2855z" fill="#070402"/>
    <path id="RightRelief" d="m409.19 88.188c-15.36 0.79519-31.399 4.3208-42.775 15.414-15.948 15.15-22.144 37.36-26.71 58.186-6.6472 30.351 3.6973 63.336 25.982 84.872 18.749 19.28 46.565 31.054 73.55 25.796 20.362-3.8844 40.649-14.502 51.736-32.556 11.374-22.801 12.796-49.706 7.8601-74.411-4.0318-16.026-11.092-31.494-20.973-44.812-2.132-2.8736-4.3953-5.6471-6.7878-8.3045-11.975-13.315-29.031-21.16-46.699-23.146-5.025-0.79001-10.119-0.72348-15.183-1.0381z" clip-path="url(#ClipRightRelief)" opacity=".08"/>
    <path id="path3747" d="m448.16 153.81c-5.739 0.0561-11.541 2.0162-15.679 6.0963-9.0974 8.8355-11.048 24.189-4.3355 34.972 4.9522 7.8987 15.11 11.954 24.168 9.9503 6.3842-1.3519 12.753-4.5343 16.273-10.253 6.192-9.8889 4.6141-23.495-2.5154-32.48-4.2335-5.4245-11.011-8.669-17.911-8.2855z" fill="#070402"/>
   </g>
   <!-- Left Eye -->
   <g id="LeftEye" fill-rule="evenodd">
    <path id="LeftEyeball" d="m124.59 72.375c-35.595 0.59191-66.955 24.424-85.767 53.366-13.27 21.008-22.157 45.366-23.359 70.279 0.24939 21.214 4.9479 42.675 14.129 61.776 14.028 21.566 35.554 39.844 61.112 45.466 21.123 3.8253 43.698 0.56293 62.087-10.881 45.505-25.187 69.558-79.097 66.536-129.9-1.5212-23.788-7.6936-49.992-27.601-65.239-17.075-13.484-38.272-21.805-59.779-24.509-2.4496-0.17364-4.9041-0.2622-7.3575-0.36133z" fill="url(#LeftWhite)"/>
    <path id="LeftRelief" d="m124.59 72.375c-35.595 0.59191-66.955 24.424-85.767 53.366-13.27 21.008-22.157 45.366-23.359 70.279 0.24939 21.214 4.9479 42.675 14.129 61.776 14.028 21.566 35.554 39.844 61.112 45.466 21.123 3.8253 43.698 0.56293 62.087-10.881 45.505-25.187 69.558-79.097 66.536-129.9-1.5212-23.788-7.6936-49.992-27.601-65.239-17.075-13.484-38.272-21.805-59.779-24.509-2.4496-0.17364-4.9041-0.2622-7.3575-0.36133z" clip-path="url(#ClipLeftRelief)" opacity=".08"/>
    <path id="LeftPupil" d="m90.507 153.18c-5.746-0.1256-11.228 2.3178-15.96 5.3729-9.1059 6.3974-12.433 18.711-10.02 29.256 1.8545 9.0925 8.4959 17.438 17.657 19.884 8.6782 2.5877 18.66 0.33409 25.198-5.9822 6.7495-5.2273 9.8898-14.215 8.6521-22.563-1.456-10.986-8.8797-21.648-19.706-25.048-1.8863-0.57036-3.8505-0.88518-5.8212-0.92052z" fill="#070402"/>
   </g>
  </g>
 </g>
</svg>
