<?xml version="1.0" encoding="UTF-8"?>
<!-- Created with Inkscape (http://www.inkscape.org/) -->
<svg id="svg2" width="22" height="22" version="1.1" xmlns="http://www.w3.org/2000/svg" xmlns:cc="http://creativecommons.org/ns#" xmlns:dc="http://purl.org/dc/elements/1.1/" xmlns:rdf="http://www.w3.org/1999/02/22-rdf-syntax-ns#" xmlns:xlink="http://www.w3.org/1999/xlink">
 <defs id="defs4">
  <linearGradient id="linearGradient3335" x1="11.375" x2="11.375" y1="22" y2="-9.8173" gradientUnits="userSpaceOnUse">
   <stop id="stop3330" offset="0"/>
   <stop id="stop3333" stop-opacity="0" offset="1"/>
  </linearGradient>
  <linearGradient id="linearGradient3181" x1="-3.0608" x2="-3.0608" y1="27.258" y2="7.2537" gradientTransform="translate(11.119 -6.2582)" gradientUnits="userSpaceOnUse">
   <stop id="stop3616-0" stop-color="#6da014" offset="0"/>
   <stop id="stop3618-1" stop-color="#b4e844" offset="1"/>
  </linearGradient>
  <filter id="filter3194" x="-.18" y="-.18" width="1.36" height="1.36" color-interpolation-filters="sRGB">
   <feGaussianBlur id="feGaussianBlur3196" stdDeviation="1.2"/>
  </filter>
  <clipPath id="clipPath2849">
   <rect id="rect2851" x="1" y="1" width="20" height="20" rx="2" ry="2" fill="#fff" fill-rule="evenodd"/>
  </clipPath>
  <linearGradient id="linearGradient3856" x1="15" x2="106.51" y1="47.277" y2="47.025" gradientTransform="matrix(.24242 0 0 .24242 -.63636 1.8788)" gradientUnits="userSpaceOnUse">
   <stop id="stop3234" offset="0"/>
   <stop id="stop3236" stop-opacity="0" offset="1"/>
  </linearGradient>
  <clipPath id="clipPath3676">
   <path id="path3678" d="m-27 3c-1.108 0-2 0.892-2 2v16c0 1.108 0.892 2 2 2h16c1.108 0 2-0.892 2-2v-16c0-1.108-0.892-2-2-2h-16zm8 3c4.4183 0 8 2.9163 8 6.5312s-3.5817 6.5625-8 6.5625c-0.65792 0-1.2945-0.06495-1.9062-0.1875-0.82246 0.85847-2.3859 2.0035-4.7188 1.75 1.8011-0.50914 2.1977-2.0168 2.2812-2.625-2.197-1.1667-3.6562-3.1973-3.6562-5.5 0-3.615 3.5817-6.5312 8-6.5312z" fill="url(#linearGradient3680)" fill-rule="evenodd"/>
  </clipPath>
  <linearGradient id="linearGradient3680" x1="-3.0608" x2="-3.0608" y1="27.258" y2="7.2537" gradientTransform="translate(-18.881 -4.2582)" gradientUnits="userSpaceOnUse">
   <stop id="stop3616" stop-color="#064096" offset="0"/>
   <stop id="stop3618" stop-color="#4484e5" offset="1"/>
  </linearGradient>
  <filter id="filter3682" x="-.2301" y="-.25079" width="1.4602" height="1.5016" color-interpolation-filters="sRGB">
   <feGaussianBlur id="feGaussianBlur3684" stdDeviation="1.534"/>
  </filter>
  <linearGradient id="linearGradient3700" x1="71.672" x2="71.672" y1="62.025" y2="26.414" gradientTransform="matrix(.24908 -.021406 .021406 .24908 11.725 1.0033)" gradientUnits="userSpaceOnUse">
   <stop id="stop3699-5" stop-color="#dcdcdc" offset="0"/>
   <stop id="stop3701-6" stop-color="#f0f0f0" offset="1"/>
  </linearGradient>
  <filter id="filter3709" x="-.11748" y="-.051906" width="1.235" height="1.1038" color-interpolation-filters="sRGB">
   <feGaussianBlur id="feGaussianBlur3711" stdDeviation="0.19464844"/>
  </filter>
  <linearGradient id="linearGradient3704" x1="11.955" x2="11.955" y1="13.843" y2="6.0247" gradientUnits="userSpaceOnUse">
   <stop id="stop3699" stop-color="#f0f0f0" offset="0"/>
   <stop id="stop3701" stop-color="#fff" offset="1"/>
  </linearGradient>
  <filter id="filter3710">
   <feGaussianBlur id="feGaussianBlur3712" stdDeviation="0.11869388"/>
  </filter>
  <linearGradient id="linearGradient3845" x1="11" x2="21" y1="19.5" y2="19.5" gradientUnits="userSpaceOnUse" spreadMethod="reflect">
   <stop id="stop3833" stop-color="#fff" offset="0"/>
   <stop id="stop3821" stop-color="#fff" stop-opacity=".49804" offset=".75"/>
   <stop id="stop3835" stop-color="#fff" stop-opacity="0" offset="1"/>
  </linearGradient>
  <linearGradient id="linearGradient4030" x1="10" x2="10" y1="1" y2="16" gradientUnits="userSpaceOnUse">
   <stop id="stop3825" stop-color="#fff" offset="0"/>
   <stop id="stop3829" stop-color="#fff" stop-opacity="0" offset="1"/>
  </linearGradient>
 </defs>
 <metadata id="metadata7">
  <rdf:RDF>
   <cc:Work rdf:about="">
    <dc:format>image/svg+xml</dc:format>
    <dc:type rdf:resource="http://purl.org/dc/dcmitype/StillImage"/>
   </cc:Work>
  </rdf:RDF>
 </metadata>
 <g id="layer1">
  <g id="g3337">
   <rect id="rect3371" x=".5" y=".5" width="21" height="21.5" rx="2.5" ry="2.5" fill="url(#linearGradient3335)" opacity=".3"/>
   <rect id="rect2553" x="1" y="2" width="20" height="20" rx="2.381" ry="2.3256" opacity=".5"/>
  </g>
  <rect id="rect3173" x="1" y="1" width="20" height="20" rx="2" ry="2" fill="url(#linearGradient3181)" fill-rule="evenodd"/>
  <path id="rect3050" d="m3 1c-1.108 0-2 0.892-2 2v16c0 1.108 0.892 2 2 2h16c1.108 0 2-0.892 2-2v-16c0-1.108-0.892-2-2-2h-16zm0 1.0312h16c0.5497 0 0.96875 0.41905 0.96875 0.96875v16c0 0.5497-0.41905 0.96875-0.96875 0.96875h-16c-0.5497 0-0.96875-0.41905-0.96875-0.96875v-16c0-0.5497 0.41905-0.96875 0.96875-0.96875z" fill="url(#linearGradient4030)" fill-rule="evenodd" opacity=".4"/>
  <path id="path3235" d="m3 21c-1.108 0-2-0.892-2-2v-1c0 1.108 0.892 2 2 2h16c1.108 0 2-0.892 2-2v1c0 1.108-0.892 2-2 2h-16z" fill="url(#linearGradient3845)" fill-rule="evenodd" opacity=".25"/>
 </g>
 <g id="layer4" transform="translate(0,-2)">
  <path id="path3668" transform="translate(30)" d="m-19 6c-4.4183 0-8 2.9305-8 6.5455 0 2.3027 1.4545 4.3257 3.6515 5.4924-0.08354 0.60818-0.464 2.0969-2.2652 2.6061 2.3328 0.25353 3.8821-0.88395 4.7045-1.7424 0.61176 0.12255 1.2512 0.1894 1.9091 0.1894 4.4183 0 8-2.9305 8-6.5455s-3.5817-6.5455-8-6.5455z" clip-path="url(#clipPath3676)" fill="#fff" filter="url(#filter3682)" opacity=".2"/>
  <path id="path3620" d="m11 6c-4.4183 0-8 2.9305-8 6.5455 0 2.3027 1.4545 4.3257 3.6515 5.4924-0.083545 0.60818-0.464 2.0969-2.2652 2.6061 2.3328 0.25353 3.8821-0.88395 4.7045-1.7424 0.61176 0.12255 1.2512 0.1894 1.9091 0.1894 4.4183 0 8-2.9305 8-6.5455s-3.5817-6.5455-8-6.5455z" fill="url(#linearGradient3856)" opacity=".2"/>
  <path id="path3686" d="m11 6c-4.4183 0-8 2.9163-8 6.5312 0 2.3027 1.4592 4.3333 3.6562 5.5-0.083545 0.60818-0.4801 2.1159-2.2812 2.625 2.3328 0.25353 3.8963-0.89153 4.7188-1.75 0.61176 0.12255 1.2483 0.1875 1.9062 0.1875 4.4183 0 8-2.9475 8-6.5625s-3.5817-6.5312-8-6.5312zm0 1c3.983 0 7 2.5697 7 5.5312 0 2.9616-3.0217 5.5625-7 5.5625-0.59282 0-1.1706-0.04644-1.7188-0.15625a0.98928 0.98928 0 0 0-0.90625 0.28125c-0.24961 0.26054-0.6632 0.52836-1.0625 0.78125 0.093107-0.2904 0.28563-0.64817 0.3125-0.84375a0.98928 0.98928 0 0 0-0.5-1c-1.9374-1.0289-3.125-2.7403-3.125-4.625 0-2.9616 3.017-5.5312 7-5.5312z" opacity=".15"/>
  <path id="path3695" d="m3 12.719c-0.00624 0.10608 0 0.20516 0 0.3125 0 2.2671 1.4221 4.2629 3.5625 5.4375 0.042623-0.16032 0.078348-0.32538 0.09375-0.4375-2.1385-1.1356-3.5813-3.0861-3.6562-5.3125zm16 0.0625c-0.1574 3.5015-3.6819 6.3125-8 6.3125-0.65792 0-1.2945-0.06495-1.9062-0.1875-0.6989 0.7295-1.9354 1.6423-3.7188 1.75-0.27106 0.18759-0.60284 0.38773-1 0.5 2.3328 0.25353 3.8963-0.89153 4.7188-1.75 0.61176 0.12255 1.2483 0.1875 1.9062 0.1875 4.4183 0 8-2.9475 8-6.5625 0-0.08588 4e-3 -0.16493 0-0.25z" fill="#fff" opacity=".2"/>
 </g>
 <g id="layer2" display="none">
  <rect id="rect2410" x="3" y="3" width="16" height="16" rx="2" ry="2" clip-path="url(#clipPath2849)" display="inline" fill="#fff" filter="url(#filter3194)" opacity=".15"/>
 </g>
 <g id="layer3">
  <path id="path3706" d="m11.201 6.5-0.52245 1.9842h1.4367l0.52789-1.9842h1.2027l-0.52789 1.9842h1.5075v1.1592h-1.7959l-0.37551 1.6911h1.5456v1.1701h-1.8286l-0.52245 1.9955h-1.2027l0.52245-1.9955h-1.4367l-0.52245 1.9955h-1.2136l0.52245-1.9955h-1.5184v-1.1701h1.785l0.38095-1.6911h-1.5401v-1.1592h1.8395l0.52245-1.9842h1.2136m0.61497 3.1433h-1.4367l-0.38095 1.6911h1.4367l0.38095-1.6911" filter="url(#filter3710)" opacity=".6"/>
  <path id="path3707" transform="matrix(.99633 -.085625 .085625 .99633 18.835 .98129)" d="m11.86 6.5c-0.30857 9e-6 -0.57592 0.10679-0.79688 0.3125-0.22096 0.20572-0.32813 0.45267-0.32812 0.74219-2e-6 0.28953 0.10717 0.53648 0.32812 0.74219 0.22095 0.20191 0.4883 0.30469 0.79688 0.30469 0.30857 7e-6 0.57192-0.10278 0.78906-0.30469 0.22095-0.20571 0.32812-0.45266 0.32812-0.74219-4e-6 -0.28952-0.10718-0.53646-0.32812-0.74219-0.21715-0.20571-0.48049-0.31249-0.78906-0.3125zm-1.0469 3.0469c-0.25143 6e-6 -0.51497 0.0492-0.79688 0.14062-0.2819 0.08762-0.58205 0.1946-0.89062 0.32031l-0.125 0.51562c0.091428-0.03428 0.20241-0.07127 0.32812-0.10938 0.12952-0.03809 0.25309-0.0625 0.375-0.0625 0.24762 5e-6 0.41238 0.04901 0.5 0.13281 0.08762 0.08381 0.13281 0.23198 0.13281 0.44531-1e-6 0.1181-0.0164 0.24587-0.04687 0.39062-0.02667 0.14096-0.05966 0.29313-0.10156 0.45312l-0.46875 1.6641c-0.041905 0.17524-0.06689 0.33561-0.085937 0.47656-0.01905 0.13715-0.031251 0.27292-0.03125 0.40625-7e-7 0.34286 0.12357 0.6268 0.375 0.85156 0.25524 0.22095 0.61317 0.32812 1.0703 0.32812 0.29714 0 0.55649-0.03719 0.78125-0.11719 0.22476-0.07619 0.5291-0.18737 0.90625-0.33594l0.125-0.51562c-0.06477 0.03048-0.16774 0.06747-0.3125 0.10938-0.14476 0.0381-0.27634 0.05469-0.39062 0.05469-0.24381 0-0.41658-0.03719-0.51562-0.11719-0.09905-0.08-0.14844-0.23217-0.14844-0.45312-3e-6 -0.08762 0.01639-0.2192 0.04687-0.39062 0.03047-0.17143 0.06347-0.31979 0.10156-0.45312l0.46875-1.6641c0.04571-0.15238 0.07851-0.31714 0.09375-0.5 0.01905-0.18286 0.02343-0.31043 0.02344-0.38282-6e-6 -0.35047-0.11957-0.63442-0.36719-0.85156-0.24381-0.22095-0.59354-0.33593-1.0469-0.33594z" filter="url(#filter3709)" opacity=".6"/>
  <path id="path4181" d="m31.165 5.9437c-0.30744 0.026431-0.56466 0.15572-0.76719 0.37958-0.20253 0.22389-0.28816 0.47911-0.26337 0.76756 0.02479 0.28847 0.15271 0.52533 0.39047 0.71137 0.23743 0.18225 0.5126 0.26176 0.82004 0.23534 0.30744-0.026414 0.56102-0.15137 0.76008-0.37113 0.20252-0.22387 0.28816-0.47909 0.26337-0.76756-0.024794-0.28845-0.15272-0.52532-0.39047-0.71137-0.23396-0.18636-0.50549-0.2702-0.81292-0.24379zm-0.78214 3.1253c-0.25051 0.021535-0.50887 0.093114-0.78191 0.20834-0.27337 0.11144-0.56325 0.24373-0.85993 0.3954l-0.08039 0.52443c0.08816-0.04198 0.19556-0.08834 0.31756-0.13707 0.12579-0.04904 0.24681-0.083941 0.36827-0.09438 0.24671-0.021197 0.41506 0.01352 0.50954 0.089513 0.09447 0.076 0.15219 0.21976 0.17046 0.4323 0.01011 0.11767 0.0047 0.24637-0.01325 0.3932-0.0145 0.14272-0.03434 0.29716-0.06239 0.46016l-0.32454 1.6981c-0.02675 0.17818-0.03791 0.34011-0.04482 0.48217-0.0072 0.13827-0.0078 0.27459 0.0037 0.40743 0.02936 0.3416 0.17679 0.61392 0.44654 0.81633 0.27322 0.19829 0.63901 0.27442 1.0945 0.23527 0.29605-0.02544 0.55126-0.0847 0.76835-0.18365 0.21741-0.09516 0.51112-0.23198 0.87416-0.4123l0.08039-0.52443c-0.06192 0.03591-0.16135 0.08158-0.30199 0.13573-0.14097 0.05035-0.27064 0.07815-0.38451 0.08794-0.24292 0.02088-0.41824-0.0014-0.52377-0.07261-0.10554-0.07123-0.16777-0.21861-0.18669-0.43875-0.0075-0.0873-0.0024-0.21979 0.01325-0.3932 0.01568-0.17341 0.03585-0.32405 0.06239-0.46016l0.32454-1.6981c0.03249-0.15573 0.05107-0.3227 0.05059-0.50619 0.0033-0.18381-0.0032-0.3113-0.0094-0.38342-0.030083-0.34918-0.17352-0.62185-0.43882-0.81699-0.26184-0.19926-0.62013-0.28387-1.0718-0.24506z" fill="url(#linearGradient3700)"/>
  <path id="path3702" d="m31.173 5.9431c-0.30744 0.026431-0.58023 0.15705-0.78276 0.38092-0.20253 0.22389-0.27192 0.48555-0.24713 0.774 0.0076 0.088375 0.02539 0.1677 0.05254 0.24641 0.03016-0.18608 0.09692-0.36695 0.2374-0.52225 0.20252-0.22387 0.47532-0.35449 0.78276-0.38092 0.30744-0.026412 0.57118 0.0581 0.80514 0.24446 0.16429 0.12856 0.26142 0.29674 0.32303 0.47408 0.01362-0.082841 0.04852-0.1653 0.04086-0.25443-0.024788-0.28845-0.16895-0.53176-0.4067-0.71781-0.23396-0.18636-0.4977-0.27087-0.80514-0.24446zm-0.79637 3.1422c-0.25051 0.021535-0.49464 0.076208-0.76768 0.19144-0.27337 0.11144-0.57949 0.23728-0.87616 0.38895l-0.07905 0.54c0.03089-0.01471 0.08645-0.02614 0.12186-0.04184 0.07346-0.03756 0.13744-0.07698 0.20992-0.11214 0.0323-0.01259 0.05897-0.02861 0.09073-0.03916 0.18876-0.089537 0.39801-0.1653 0.57551-0.23765 0.27304-0.11523 0.51717-0.1699 0.76768-0.19144 0.45167-0.038811 0.82352 0.021116 1.0854 0.22038 0.22375 0.16459 0.34858 0.41241 0.40403 0.68668 0.0016-0.16006 0.0074-0.27901 0.0017-0.34516-0.030016-0.34918-0.18325-0.64453-0.44855-0.83968-0.26184-0.19926-0.63369-0.25919-1.0854-0.22038zm-0.34832 1.7864c-0.0145 0.14272-0.05636 0.31474-0.0844 0.47773l-0.32521 1.6903c-0.02675 0.17818-0.01523 0.33032-0.02213 0.47238-0.0072 0.13827-0.0078 0.27459 0.0037 0.40743 0.0086 0.10012 0.02622 0.18934 0.05522 0.27754-8e-6 -0.06247-0.01938-0.12337-0.01606-0.18681 0.0069-0.14206-0.0046-0.2942 0.02213-0.47238l0.32521-1.6903c0.02805-0.163 0.0699-0.33501 0.0844-0.47773 0.01796-0.14683 0.0091-0.25863-9.74e-4 -0.3763-0.0041-0.04795-0.03373-0.0809-0.04184-0.12186zm1.4792 2.978c-0.0037 0.08041-0.01676 0.1699-0.01241 0.22062 0.01892 0.22014 0.09028 0.38242 0.19581 0.45365 0.10554 0.07123 0.26328 0.07147 0.50619 0.05059 0.11386-0.0098 0.25844-0.0467 0.39941-0.09706 0.06889-0.03349 0.10661-0.04115 0.18146-0.07832l0.07905-0.54c-0.06192 0.03592-0.16269 0.06602-0.30332 0.12016-0.14097 0.05036-0.28554 0.08727-0.39941 0.09706-0.24292 0.02088-0.40066 0.02063-0.50619-0.05059-0.05276-0.03561-0.10948-0.10284-0.1406-0.17611z" fill="#fff"/>
  <path id="path3689" d="m11.201 6-0.52245 1.9842h1.4367l0.52789-1.9842h1.2027l-0.52789 1.9842h1.5075v1.1592h-1.7959l-0.37551 1.6911h1.5456v1.1701h-1.8286l-0.52245 1.9955h-1.2027l0.52245-1.9955h-1.4367l-0.52245 1.9955h-1.2136l0.52245-1.9955h-1.5184v-1.1701h1.785l0.38095-1.6911h-1.5401v-1.1592h1.8395l0.52245-1.9842h1.2136m0.61497 3.1433h-1.4367l-0.38095 1.6911h1.4367l0.38095-1.6911" fill="url(#linearGradient3704)"/>
 </g>
</svg>
