<?xml version="1.0" encoding="UTF-8"?>
<svg id="svg2" width="24" height="24" version="1.1" xmlns="http://www.w3.org/2000/svg" xmlns:cc="http://creativecommons.org/ns#" xmlns:dc="http://purl.org/dc/elements/1.1/" xmlns:rdf="http://www.w3.org/1999/02/22-rdf-syntax-ns#">
 <metadata id="metadata49">
  <rdf:RDF>
   <cc:Work rdf:about="">
    <dc:format>image/svg+xml</dc:format>
    <dc:type rdf:resource="http://purl.org/dc/dcmitype/StillImage"/>
   </cc:Work>
  </rdf:RDF>
 </metadata>
 <defs id="defs4">
  <linearGradient id="linearGradient3335" x1="11.375" x2="11.375" y1="22" y2="-9.8173" gradientUnits="userSpaceOnUse">
   <stop id="stop3330" offset="0"/>
   <stop id="stop3333" stop-opacity="0" offset="1"/>
  </linearGradient>
  <linearGradient id="linearGradient3181" x1="-3.0608" x2="-3.0608" y1="27.258" y2="7.2537" gradientTransform="translate(12.119 -7.2582)" gradientUnits="userSpaceOnUse">
   <stop id="stop3189" stop-color="#EC2C58" offset="0"/>
   <stop id="stop3191" stop-color="#BF7AF9" offset="1"/>
  </linearGradient>
  <filter id="filter3194" x="-.18" y="-.18" width="1.36" height="1.36" color-interpolation-filters="sRGB">
   <feGaussianBlur id="feGaussianBlur3196" stdDeviation="1.2"/>
  </filter>
  <clipPath id="clipPath2849">
   <rect id="rect2851" x="1" y="1" width="20" height="20" rx="2" ry="2" fill="#fff" fill-rule="evenodd"/>
  </clipPath>
  <linearGradient id="linearGradient3845" x1="11" x2="21" y1="19.5" y2="19.5" gradientTransform="translate(1,-1)" gradientUnits="userSpaceOnUse" spreadMethod="reflect">
   <stop id="stop3833" stop-color="#fff" offset="0"/>
   <stop id="stop3821" stop-color="#fff" stop-opacity=".49804" offset=".75"/>
   <stop id="stop3835" stop-color="#fff" stop-opacity="0" offset="1"/>
  </linearGradient>
  <linearGradient id="linearGradient3961" x1="10" x2="10" y1="1" y2="16" gradientTransform="translate(1,-1)" gradientUnits="userSpaceOnUse">
   <stop id="stop3825" stop-color="#fff" offset="0"/>
   <stop id="stop3829" stop-color="#fff" stop-opacity="0" offset="1"/>
  </linearGradient>
 </defs>
 <g id="layer1" transform="translate(0,2)">
  <g id="g3337" transform="translate(1,-1)">
   <rect id="rect3371" x=".5" y=".5" width="21" height="21.5" rx="2.5" ry="2.5" fill="url(#linearGradient3335)" opacity=".3"/>
   <rect id="rect2553" x="1" y="2" width="20" height="20" rx="2.381" ry="2.3256" opacity=".5"/>
  </g>
  <rect id="rect3173" x="2" width="20" height="20" rx="2" ry="2" fill="url(#linearGradient3181)" fill-rule="evenodd"/>
  <path id="rect3050" d="m4 0c-1.108 0-2 0.892-2 2v16c0 1.108 0.892 2 2 2h16c1.108 0 2-0.892 2-2v-16c0-1.108-0.892-2-2-2h-16zm0 1.0312h16c0.5497 0 0.96875 0.41905 0.96875 0.96875v16c0 0.5497-0.41905 0.96875-0.96875 0.96875h-16c-0.5497 0-0.96875-0.41905-0.96875-0.96875v-16c0-0.5497 0.41905-0.96875 0.96875-0.96875z" fill="url(#linearGradient3961)" fill-rule="evenodd" opacity=".35"/>
  <path id="path3235" d="m4 20c-1.108 0-2-0.892-2-2v-1c0 1.108 0.892 2 2 2h16c1.108 0 2-0.892 2-2v1c0 1.108-0.892 2-2 2h-16z" fill="url(#linearGradient3845)" fill-rule="evenodd" opacity=".2"/>
 </g>
 <g id="layer2" transform="translate(0,2)">
  <rect id="rect2410" transform="translate(1,-1)" x="3" y="3" width="16" height="16" rx="2" ry="2" clip-path="url(#clipPath2849)" fill="#fff" filter="url(#filter3194)" opacity=".15"/>
 </g>
 <g id="main">
  <path id="path39" d="m5.1348 7.5a0.99807 1.0001 0 0 0 0.87695 1.5c0.79006 0 1.066 0.17936 1.3301 0.46289s0.48879 0.7832 0.73828 1.4082c0.20018 0.50146 0.42614 1.0806 0.81836 1.6289 0.096624-0.13508 0.19405-0.27113 0.31445-0.40039 0.034021-0.03652 0.080926-0.064429 0.11719-0.099609-0.036263-0.03518-0.08317-0.063089-0.11719-0.099609-0.60912-0.654-0.88332-1.4043-1.1328-2.0293-0.24949-0.625-0.47418-1.1247-0.73828-1.4082s-0.54002-0.46289-1.3301-0.46289a0.99807 1.0001 0 0 1-0.87695-0.5zm13.73 0a0.99807 1.0001 0 0 1-0.87695 0.5c-0.79008 0-1.066 0.17936-1.3301 0.46289-0.26409 0.2835-0.48879 0.7832-0.73828 1.4082-0.24948 0.625-0.52367 1.3753-1.1328 2.0293-0.03402 0.03652-0.080927 0.064429-0.11719 0.099609 0.03626 0.03518 0.083167 0.063089 0.11719 0.099609 0.1204 0.12927 0.21783 0.26531 0.31445 0.40039 0.39222-0.54832 0.61819-1.1274 0.81836-1.6289 0.24949-0.625 0.47419-1.1247 0.73828-1.4082 0.26409-0.28353 0.54-0.46289 1.3301-0.46289a0.99807 1.0001 0 0 0 0.87695-1.5zm-6.8652 5.5c-0.79008 0-1.066 0.17936-1.3301 0.46289-0.26409 0.2835-0.48879 0.7832-0.73828 1.4082-0.24948 0.625-0.52367 1.3753-1.1328 2.0293-0.6091 0.65396-1.5812 1.0996-2.7871 1.0996a0.99807 1.0001 0 0 1-0.87695-0.5 0.99807 1.0001 0 0 0 0.87695 1.5c1.2059 0 2.178-0.44565 2.7871-1.0996 0.60914-0.65397 0.88333-1.4043 1.1328-2.0293 0.24949-0.625 0.47419-1.1247 0.73828-1.4082 0.26409-0.28353 0.54-0.46289 1.3301-0.46289 0.79006 0 1.066 0.17936 1.3301 0.46289 0.26409 0.28353 0.48879 0.7832 0.73828 1.4082s0.52369 1.3753 1.1328 2.0293c0.60914 0.65397 1.5812 1.0996 2.7871 1.0996a0.99807 1.0001 0 0 0 0.87695-1.5 0.99807 1.0001 0 0 1-0.87695 0.5c-1.2059 0-2.178-0.44564-2.7871-1.0996-0.60912-0.654-0.88332-1.4043-1.1328-2.0293s-0.47419-1.1247-0.73828-1.4082c-0.2641-0.28353-0.54002-0.46289-1.3301-0.46289z" opacity=".3"/>
  <path id="base" transform="translate(4,4)" d="m2.0117 2a0.99807 1.0001 0 1 0 0 2c0.79006 0 1.066 0.17936 1.3301 0.46289s0.48879 0.7832 0.73828 1.4082 0.52368 1.3753 1.1328 2.0293c0.034018 0.036522 0.080927 0.064428 0.11719 0.099609-0.036261 0.035181-0.083169 0.063087-0.11719 0.099609-0.60914 0.65397-0.88332 1.4043-1.1328 2.0293-0.24949 0.625-0.47419 1.1247-0.73828 1.4082s-0.54002 0.46289-1.3301 0.46289a0.99807 1.0001 0 1 0 0 2c1.2059 0 2.178-0.44564 2.7871-1.0996 0.60914-0.65397 0.88332-1.4043 1.1328-2.0293 0.24949-0.625 0.47419-1.1247 0.73828-1.4082 0.26409-0.28353 0.54002-0.46289 1.3301-0.46289 0.79006 0 1.066 0.17936 1.3301 0.46289 0.26409 0.28353 0.48879 0.7832 0.73828 1.4082s0.52368 1.3753 1.1328 2.0293c0.60914 0.65397 1.5812 1.0996 2.7871 1.0996a0.99807 1.0001 0 1 0 0-2c-0.79006 0-1.066-0.17936-1.3301-0.46289-0.26409-0.28353-0.48879-0.7832-0.73828-1.4082s-0.52368-1.3753-1.1328-2.0293c-0.034018-0.036522-0.080926-0.064428-0.11719-0.099609 0.036261-0.035181 0.083169-0.063087 0.11719-0.099609 0.60914-0.65397 0.88332-1.4043 1.1328-2.0293 0.24949-0.625 0.47419-1.1247 0.73828-1.4082 0.26409-0.28353 0.54002-0.46289 1.3301-0.46289a0.99807 1.0001 0 1 0 0-2c-1.2059 0-2.178 0.44564-2.7871 1.0996-0.60914 0.65397-0.88332 1.4043-1.1328 2.0293-0.24949 0.625-0.47419 1.1247-0.73828 1.4082-0.26409 0.28353-0.54002 0.46289-1.3301 0.46289-0.79006 0-1.066-0.17936-1.3301-0.46289-0.26409-0.28353-0.48879-0.7832-0.73828-1.4082s-0.52368-1.3753-1.1328-2.0293c-0.60914-0.65397-1.5812-1.0996-2.7871-1.0996z" fill="#fff"/>
 </g>
</svg>
