<?xml version="1.0" encoding="UTF-8"?>
<!-- Created with Inkscape (http://www.inkscape.org/) -->
<svg id="svg2" width="24" height="24" version="1.1" xmlns="http://www.w3.org/2000/svg" xmlns:cc="http://creativecommons.org/ns#" xmlns:dc="http://purl.org/dc/elements/1.1/" xmlns:rdf="http://www.w3.org/1999/02/22-rdf-syntax-ns#" xmlns:xlink="http://www.w3.org/1999/xlink">
 <defs id="defs4">
  <linearGradient id="linearGradient3335" x1="11.375" x2="11.375" y1="22" y2="-9.8173" gradientUnits="userSpaceOnUse">
   <stop id="stop3330" offset="0"/>
   <stop id="stop3333" stop-opacity="0" offset="1"/>
  </linearGradient>
  <linearGradient id="linearGradient3181" x1="-3.0608" x2="-3.0608" y1="27.258" y2="7.2537" gradientTransform="translate(12.119 -7.2582)" gradientUnits="userSpaceOnUse">
   <stop id="stop3189" stop-color="#d7d7d7" offset="0"/>
   <stop id="stop3191" stop-color="#f5f5f5" offset="1"/>
  </linearGradient>
  <filter id="filter3194" x="-.18" y="-.18" width="1.36" height="1.36" color-interpolation-filters="sRGB">
   <feGaussianBlur id="feGaussianBlur3196" stdDeviation="1.2"/>
  </filter>
  <clipPath id="clipPath2849">
   <rect id="rect2851" x="1" y="1" width="20" height="20" rx="2" ry="2" fill="#fff" fill-rule="evenodd"/>
  </clipPath>
  <linearGradient id="linearGradient3749-5" x1="175.31" x2="175.31" y1="73.254" y2="180.67" gradientUnits="userSpaceOnUse">
   <stop id="stop3751-8" offset="0"/>
   <stop id="stop3753-7" stop-opacity=".47287" offset=".99438"/>
  </linearGradient>
  <linearGradient id="linearGradient3765" x1="383.29" x2="383.29" y2="218.48" gradientTransform="matrix(.049362 0 0 .041081 -6.9197 8.0247)" gradientUnits="userSpaceOnUse">
   <stop id="stop3143-2" stop-color="#ED2828" offset=".005618"/>
   <stop id="stop3145-1" stop-color="#EF3B39" offset=".5"/>
   <stop id="stop3147-3" stop-color="#C02126" offset=".99438"/>
  </linearGradient>
  <linearGradient id="linearGradient3819" x1="175.31" x2="175.31" y1="73.254" y2="180.67" gradientTransform="matrix(.048593 0 0 .043018 -14.096 .18672)" gradientUnits="userSpaceOnUse" xlink:href="#linearGradient3749-5"/>
  <linearGradient id="linearGradient3821" x1="175.31" x2="175.31" y1="73.254" y2="180.67" gradientTransform="matrix(.043926 0 0 .043018 -13.077 .18672)" gradientUnits="userSpaceOnUse" xlink:href="#linearGradient3749-5"/>
  <linearGradient id="linearGradient3823" x1="175.31" x2="175.31" y1="73.254" y2="180.67" gradientTransform="matrix(.041643 0 0 .043018 -13.122 .18672)" gradientUnits="userSpaceOnUse" xlink:href="#linearGradient3749-5"/>
  <linearGradient id="linearGradient3754-9" x1="175.31" x2="175.31" y1="73.254" y2="180.67" gradientTransform="matrix(.041643 0 0 .034089 5.9445 .78644)" gradientUnits="userSpaceOnUse" xlink:href="#linearGradient3749-5"/>
  <linearGradient id="linearGradient3756-0" x1="175.31" x2="175.31" y1="73.254" y2="180.67" gradientTransform="matrix(.049988 0 0 .034089 6.4795 .78644)" gradientUnits="userSpaceOnUse" xlink:href="#linearGradient3749-5"/>
  <linearGradient id="linearGradient3719" x1="175.31" x2="175.31" y1="73.254" y2="180.67" gradientTransform="matrix(.048593 0 0 .034089 7.116 .78644)" gradientUnits="userSpaceOnUse" xlink:href="#linearGradient3749-5"/>
  <linearGradient id="linearGradient3845" x1="11" x2="21" y1="19.5" y2="19.5" gradientTransform="translate(1,-1)" gradientUnits="userSpaceOnUse" spreadMethod="reflect">
   <stop id="stop3833" stop-color="#fff" offset="0"/>
   <stop id="stop3821" stop-color="#fff" stop-opacity=".49804" offset=".75"/>
   <stop id="stop3835" stop-color="#fff" stop-opacity="0" offset="1"/>
  </linearGradient>
  <linearGradient id="linearGradient4030" x1="10" x2="10" y1="1" y2="16" gradientTransform="translate(1,-1)" gradientUnits="userSpaceOnUse">
   <stop id="stop3825" stop-color="#fff" offset="0"/>
   <stop id="stop3829" stop-color="#fff" stop-opacity="0" offset="1"/>
  </linearGradient>
 </defs>
 <metadata id="metadata7">
  <rdf:RDF>
   <cc:Work rdf:about="">
    <dc:format>image/svg+xml</dc:format>
    <dc:type rdf:resource="http://purl.org/dc/dcmitype/StillImage"/>
    <dc:title/>
   </cc:Work>
  </rdf:RDF>
 </metadata>
 <g id="layer1" transform="translate(0,2)">
  <g id="g3337" transform="translate(1,-1)">
   <rect id="rect3371" x=".5" y=".5" width="21" height="21.5" rx="2.5" ry="2.5" fill="url(#linearGradient3335)" opacity=".3"/>
   <rect id="rect2553" x="1" y="2" width="20" height="20" rx="2.381" ry="2.3256" opacity=".5"/>
  </g>
  <rect id="rect3173" x="2" width="20" height="20" rx="2" ry="2" fill="url(#linearGradient3181)" fill-rule="evenodd"/>
  <path id="path3149" d="m19.902 10.016c0-1.0505-1.0361-1.9029-2.313-1.9029-1.8223-0.063306-3.687-0.091408-5.5888-0.08852-1.9019-0.00289-3.7664 0.025212-5.5889 0.088521-1.2767 0-2.3129 0.85239-2.3129 1.9029-0.076645 0.832-0.10991 1.664-0.10692 2.4961-0.00295 0.832 0.030274 1.664 0.10694 2.4961 0 1.0505 1.0362 1.903 2.313 1.903 1.8224 0.0633 3.687 0.09139 5.5888 0.08842 1.9019 3e-3 3.7665-0.02512 5.5888-0.08842 1.2768 0 2.313-0.85242 2.313-1.903 0.07665-0.83205 0.1099-1.6641 0.10692-2.4961 3e-3 -0.83203-0.03027-1.6641-0.10692-2.4961z" fill="url(#linearGradient3765)"/>
  <path id="path3811" d="m-4.2115 3.338v4.5552h-0.95665v-0.50286c-0.17634 0.18526-0.35977 0.3265-0.55046 0.42338-0.1907 0.096708-0.37588 0.14527-0.55526 0.14527-0.22116 0-0.38791-0.067716-0.50009-0.20341-0.11218-0.13561-0.1682-0.33902-0.1682-0.61024v-3.8074h0.95667v3.4919c0 0.10805 0.02002 0.1861 0.06007 0.23442 0.04005 0.048309 0.10492 0.072511 0.19475 0.072511 0.07053 0 0.15935-0.031929 0.26674-0.095868 0.10739-0.064024 0.20593-0.14569 0.29578-0.24525v-3.4577h0.95665z" fill="url(#linearGradient3819)"/>
  <path id="path3813" d="m-8.5765 3.2267c-0.39304 0-0.6901 0.10333-0.92296 0.3125-0.23286 0.20915-0.36259 0.49097-0.36259 0.84375v2.3438c0 0.387 0.13552 0.70854 0.36259 0.9375 0.22696 0.22896 0.51165 0.34375 0.89 0.34375 0.39291 0 0.69889-0.12185 0.92296-0.34375 0.22404-0.2219 0.32963-0.5164 0.32963-0.90625v-2.3438c0-0.34715-0.1011-0.65453-0.32963-0.875-0.22853-0.22047-0.53212-0.3125-0.89-0.3125zm-0.03296 0.78125c0.1144 0 0.19339 0.032587 0.2637 0.09375 0.0703 0.061146 0.13185 0.15044 0.13185 0.25v2.4688c0 0.1225-0.06298 0.21143-0.13185 0.28125-0.069 0.06974-0.14642 0.125-0.2637 0.125-0.1144 0-0.20219-0.056689-0.2637-0.125-0.06166-0.068392-0.09889-0.15581-0.09889-0.28125v-2.4688c0-0.099563 0.0329-0.18886 0.09889-0.25 0.06598-0.061169 0.15822-0.09375 0.2637-0.09375z" fill="url(#linearGradient3821)"/>
  <path id="path3815" d="m-13.122 1.7182h0.92991l0.59906 2.4683h0.05797l0.57121-2.4683h0.93813l-1.0745 3.6127v2.5623h-0.92332v-2.447l-1.0984-3.7281z" fill="url(#linearGradient3823)"/>
  <path id="path3817" d="m-11.036 10.83h-2.8138v0.89001h0.94847v5.2421h0.91683v-5.2421h0.94851v-0.89001zm1.4985 5.0422c-0.0764 0.09887-0.16032 0.18006-0.25167 0.24355-0.09143 0.06358-0.16702 0.0952-0.22703 0.0952-0.0764 0-0.13165-0.02403-0.16573-0.07201-0.03408-0.04797-0.05113-0.12549-0.05113-0.23279v-3.4676h-0.81412v3.7809c0 0.26933 0.04773 0.47133 0.1432 0.60608 0.09546 0.13467 0.23737 0.20192 0.42555 0.20192 0.15265 0 0.31022-0.04823 0.47248-0.14426 0.16234-0.0962 0.31838-0.23646 0.46844-0.42044v0.49937h0.81412v-4.5236h-0.81412v3.4336zm3.1542-3.4908c-0.12624 0-0.25094 0.03598-0.37435 0.1078-0.12333 0.07196-0.23979 0.17684-0.34947 0.31489v-1.9741h-0.82203v6.1321h0.82203v-0.34776c0.10693 0.13775 0.22283 0.23971 0.34754 0.30579 0.1247 0.06608 0.26661 0.09912 0.42572 0.09912 0.24117 0 0.42556-0.08519 0.553-0.2559 0.12745-0.17071 0.19133-0.41685 0.19133-0.73849v-2.5095c0-0.36948-0.06792-0.65093-0.20369-0.8441-0.13569-0.19316-0.33243-0.28986-0.59007-0.28986zm-0.0441 3.5205c0 0.14418-0.02358 0.24814-0.07051 0.31172-0.04692 0.0635-0.12018 0.09528-0.2196 0.09528-0.06914 0-0.13472-0.01619-0.19691-0.04873-0.06227-0.03237-0.12648-0.08544-0.19271-0.15895v-2.819c0.05524-0.06214 0.11113-0.10807 0.16783-0.1378 0.05662-0.0296 0.11404-0.04451 0.17203-0.04451 0.11041 0 0.19481 0.03967 0.2528 0.11877 0.05807 0.0791 0.08707 0.19495 0.08707 0.34753v2.3356zm3.8469-1.0954v-1.1517c0-0.42932-0.10007-0.75835-0.29988-0.98724-0.19998-0.22889-0.48613-0.34332-0.85854-0.34332-0.36433 0-0.66147 0.12363-0.89141 0.37075-0.2301 0.24726-0.34511 0.56712-0.34511 0.95981v2.0303c0 0.43545 0.10475 0.77754 0.31418 1.0263 0.20951 0.24872 0.49638 0.37313 0.86072 0.37313 0.40528 0 0.71001-0.1174 0.91402-0.35202 0.20401-0.23462 0.30602-0.5838 0.30602-1.0475v-0.33975h-0.83786v0.31439c0 0.26616-0.02689 0.43829-0.0806 0.51605-0.05371 0.07785-0.14812 0.11673-0.28308 0.11673-0.12971 0-0.2213-0.04589-0.27501-0.138-0.05371-0.09203-0.08052-0.25698-0.08052-0.49478v-0.8533h1.5571zm-1.5571-1.1601c0-0.18932 0.02811-0.32507 0.08472-0.40711 0.05646-0.08191 0.14942-0.12298 0.27896-0.12298 0.12398 0 0.21427 0.04107 0.27081 0.12298 0.05645 0.08204 0.08472 0.21779 0.08472 0.40711v0.4579h-0.71922v-0.4579z" fill="#fff"/>
  <path id="path3749" d="m17 3.2836v3.6097h-0.95665v-0.39848c-0.17634 0.14681-0.35977 0.25873-0.55046 0.33549-0.1907 0.07663-0.37588 0.11512-0.55526 0.11512-0.22116 0-0.38791-0.05366-0.50009-0.16119-0.11218-0.10746-0.1682-0.26865-0.1682-0.48357v-3.017h0.95667v2.767c0 0.08562 0.02002 0.14747 0.06007 0.18576 0.04005 0.03828 0.10492 0.05746 0.19475 0.05746 0.07053 0 0.15935-0.0253 0.26674-0.07597 0.10739-0.05073 0.20593-0.11545 0.29578-0.19434v-2.7399h0.95665z" fill="url(#linearGradient3719)"/>
  <path id="path3747" d="m11.601 3.1954c-0.44728 0-0.78534 0.081882-1.0503 0.24763-0.265 0.16573-0.41263 0.38905-0.41263 0.6686v1.8572c0 0.30666 0.15422 0.56146 0.41263 0.74289 0.25829 0.18143 0.58227 0.27239 1.0128 0.27239 0.44713 0 0.79534-0.09656 1.0503-0.27239 0.25496-0.17584 0.37512-0.4092 0.37512-0.71813v-1.8572c0-0.27509-0.11506-0.51866-0.37512-0.69337-0.26007-0.1747-0.60555-0.24763-1.0128-0.24763zm-0.03751 0.61908c0.13019 0 0.22008 0.025825 0.3001 0.074289 0.08 0.048456 0.15005 0.11921 0.15005 0.1981v1.9563c0 0.09707-0.07167 0.16754-0.15005 0.22287-0.07852 0.05526-0.16663 0.09905-0.3001 0.09905-0.13019 0-0.23009-0.04492-0.3001-0.09905-0.07017-0.05419-0.11254-0.12347-0.11254-0.22287v-1.9563c0-0.07889 0.03744-0.14965 0.11254-0.1981 0.07509-0.048472 0.18006-0.074289 0.3001-0.074289z" fill="url(#linearGradient3756-0)"/>
  <path id="path3209" d="m5.9445 2h0.92991l0.59907 1.9559h0.05797l0.57121-1.9559h0.93813l-1.0745 2.8628v2.0304h-0.92332v-1.939l-1.0984-2.9542z" fill="url(#linearGradient3754-9)"/>
  <path id="path3678" d="m7.8229 10.072h-2.8138v0.90559h0.94847v3.9046h0.91683v-3.9046h0.94851v-0.90559z" fill="#fff"/>
  <path id="path3676" d="m9.9678 14.097c-0.09686 0.07755-0.20326 0.14123-0.31907 0.19104-0.11592 0.04987-0.21175 0.07468-0.28783 0.07468-0.09686 0-0.1669-0.01885-0.21011-0.05648s-0.06481-0.09844-0.06481-0.1826v-2.7201h-1.0321v2.9658c0 0.21127 0.06051 0.36972 0.18154 0.47542 0.12102 0.10564 0.30094 0.15839 0.53952 0.15839 0.19353 0 0.3933-0.03783 0.59901-0.11316 0.20581-0.07546 0.40364-0.18548 0.59389-0.3298v0.39171h1.0321v-3.5484h-1.0321v2.6934z" fill="#fff"/>
  <path id="path3674" d="m12.062 10.062v4.8125h1.0429v-0.25c0.13217 0.10806 0.27075 0.16692 0.42488 0.21875 0.15414 0.05183 0.30547 0.09375 0.50213 0.09375 0.29808 0 0.53773-0.08484 0.69526-0.21875s0.23175-0.31019 0.23175-0.5625v-1.9688c0-0.28982-0.06394-0.50472-0.23175-0.65625-0.16771-0.15152-0.41544-0.25-0.73389-0.25-0.15603 0-0.31097 0.03742-0.46351 0.09375-0.15244 0.05645-0.28932 0.14172-0.42488 0.25v-1.5625h-1.0429zm1.4291 1.7812c0.13646 0 0.27596 0.03169 0.34763 0.09375 0.07178 0.06205 0.07725 0.16156 0.07725 0.28125v1.8438c0 0.1131-0.01924 0.16888-0.07725 0.21875-0.05799 0.04981-0.14749 0.09375-0.27038 0.09375-0.08546 0-0.15489-0.0057-0.23175-0.03125-0.07697-0.02539-0.14989-0.06734-0.23175-0.125v-2.2188c0.06828-0.04875 0.12305-0.10168 0.19313-0.125 0.06998-0.02322 0.12145-0.03125 0.19313-0.03125z" fill="#fff"/>
  <path id="path3670" d="m17.413 11.285c-0.42267 0-0.74835 0.08741-1.0151 0.28125-0.26695 0.19396-0.39879 0.44196-0.39879 0.75v1.5938c0 0.34158 0.11958 0.61733 0.36254 0.8125 0.24305 0.1951 0.55618 0.28125 0.97886 0.28125 0.47018 0 0.85094-0.09721 1.0876-0.28125 0.23668-0.18404 0.32629-0.4488 0.32629-0.8125v-0.25h-0.9426v0.25c0 0.20878-0.04645 0.314-0.10876 0.375-0.06231 0.06107-0.16972 0.09375-0.32629 0.09375-0.15048 0-0.26398-0.02149-0.32629-0.09375-0.06231-0.07219-0.07251-0.18847-0.07251-0.375v-0.6875h1.7764v-0.90625c0-0.33677-0.09448-0.60171-0.32629-0.78125-0.232-0.17954-0.58307-0.25-1.0151-0.25zm-0.21752 0.625c0.05394-0.01609 0.10613 0 0.18127 0 0.14383 0 0.2607 0.0295 0.32629 0.09375 0.06549 0.06436 0.10876 0.164 0.10876 0.3125v0.375h-0.83384v-0.375c0-0.1485 0.0068-0.24815 0.07251-0.3125 0.03275-0.03213 0.09108-0.07766 0.14502-0.09375z" fill="#fff"/>
  <path id="rect3050" d="m4 0c-1.108 0-2 0.892-2 2v16c0 1.108 0.892 2 2 2h16c1.108 0 2-0.892 2-2v-16c0-1.108-0.892-2-2-2h-16zm0 1.0312h16c0.5497 0 0.96875 0.41905 0.96875 0.96875v16c0 0.5497-0.41905 0.96875-0.96875 0.96875h-16c-0.5497 0-0.96875-0.41905-0.96875-0.96875v-16c0-0.5497 0.41905-0.96875 0.96875-0.96875z" fill="url(#linearGradient4030)" fill-rule="evenodd" opacity=".7"/>
  <path id="path3235" d="m4 20c-1.108 0-2-0.892-2-2v-1c0 1.108 0.892 2 2 2h16c1.108 0 2-0.892 2-2v1c0 1.108-0.892 2-2 2h-16z" fill="url(#linearGradient3845)" fill-rule="evenodd" opacity=".4"/>
 </g>
 <g id="layer2" transform="translate(0,2)">
  <rect id="rect2410" transform="translate(1,-1)" x="3" y="3" width="16" height="16" rx="2" ry="2" clip-path="url(#clipPath2849)" fill="#fff" filter="url(#filter3194)" opacity=".15"/>
 </g>
</svg>
