<?xml version="1.0" encoding="UTF-8"?>
<svg id="svg30" width="16" height="16" version="1.1" xmlns="http://www.w3.org/2000/svg" xmlns:cc="http://creativecommons.org/ns#" xmlns:dc="http://purl.org/dc/elements/1.1/" xmlns:rdf="http://www.w3.org/1999/02/22-rdf-syntax-ns#">
 <metadata id="metadata34">
  <rdf:RDF>
   <cc:Work rdf:about="">
    <dc:format>image/svg+xml</dc:format>
    <dc:type rdf:resource="http://purl.org/dc/dcmitype/StillImage"/>
   </cc:Work>
  </rdf:RDF>
 </metadata>
 <defs id="defs7">
  <radialGradient id="gr0" cx="9" cy="10" r="11" gradientTransform="matrix(1 0 0 .72727 0 2.7273)" gradientUnits="userSpaceOnUse">
   <stop id="stop2" stop-opacity=".23529" offset="0"/>
   <stop id="stop4" stop-opacity=".54902" offset="1"/>
  </radialGradient>
 </defs>
 <path id="path9" d="m7.0332 0c-0.82853-2.2261e-16 -1.498 0.69686-1.498 1.5078v0.33008c-0.051924 0.020915-0.10304 0.042302-0.1543 0.064453l-0.23438-0.23633c-0.25655-0.25655-0.64855-0.44222-1.0449-0.44531-0.37373-0.0032067-0.77062 0.1339-1.0723 0.43555l-1.373 1.373c-0.57715 0.57715-0.54813 1.5593 0.0097656 2.1172l0.23633 0.23438c-0.022151 0.051261-0.04354 0.10237-0.064453 0.1543h-0.33008c-0.81101 0-1.5078 0.66951-1.5078 1.498v1.9336c-2.2261e-16 0.82853 0.69686 1.498 1.5078 1.498h0.33008c0.020913 0.051931 0.042302 0.10303 0.064453 0.1543l-0.23633 0.23438c-0.55772 0.55772-0.5869 1.5401-0.0097656 2.1172l1.373 1.373c0.57711 0.57714 1.5594 0.54792 2.1172-0.009766l0.23438-0.23633c0.051264 0.022152 0.10236 0.04354 0.1543 0.064453v0.32812c1e-7 0.81092 0.66953 1.5098 1.498 1.5098h1.9336c0.82853 0 1.498-0.69882 1.498-1.5098v-0.32812c0.051932-0.020913 0.10303-0.042302 0.1543-0.064453l0.23438 0.23633c0.55773 0.55773 1.5401 0.58695 2.1172 0.009766l1.373-1.373c0.5771-0.5771 0.54791-1.5595-0.009766-2.1172l-0.23633-0.23438c0.022152-0.051264 0.04354-0.10236 0.064453-0.1543h0.32617c0.81289 0.002903 1.5117-0.6684 1.5117-1.498v-1.9316c0-0.82975-0.69662-1.5-1.5078-1.5h-0.33008c-0.020681-0.051353-0.042552-0.10164-0.064453-0.15234l0.23633-0.23633c0.55773-0.55773 0.58695-1.5381 0.009766-2.1152l-1.373-1.373a1 1.0001 0 0 0 0-0.0019531c-0.57704-0.57645-1.5596-0.5461-2.1172 0.011719l-0.23438 0.23438c-0.050998-0.022036-0.10264-0.041687-0.1543-0.0625v-0.33008c0-0.81093-0.66952-1.5098-1.498-1.5098h-1.3594l0.28906 0.49414a1.0001 1.0001 0 0 0-0.86328-0.49414zm0 1h1.9336c0.27548 0 0.49805 0.22958 0.49805 0.50977v0.98633c0.4926 0.1313 0.96353 0.32958 1.3945 0.58008l0.70117-0.70117c0.198-0.1981 0.50812-0.20457 0.70312-0.0097656l1.373 1.373c0.19482 0.19479 0.18835 0.50305-0.009766 0.70117l-0.70312 0.70312c0.251 0.4307 0.44908 0.89998 0.58008 1.3926h0.98828c0.28 0 0.50781 0.2246 0.50781 0.5v1.9316c0 0.2755-0.22781 0.49905-0.50781 0.49805h-0.98828c-0.13124 0.49259-0.32962 0.96389-0.58008 1.3945l0.70312 0.70117c0.1981 0.19812 0.20457 0.50832 0.009766 0.70312l-1.373 1.373c-0.19479 0.19482-0.505 0.18835-0.70312-0.009766l-0.70117-0.70312c-0.43065 0.25046-0.90195 0.44884-1.3945 0.58008v0.98633c0 0.28019-0.22257 0.50977-0.49805 0.50977h-1.9336c-0.27549 0-0.49805-0.22958-0.49805-0.50977v-0.98633c-0.49259-0.13124-0.96389-0.32962-1.3945-0.58008l-0.70117 0.70312c-0.19812 0.1981-0.50834 0.20457-0.70312 0.009766l-1.373-1.373c-0.19481-0.19479-0.18836-0.505 0.0097657-0.70312l0.70312-0.70117c-0.25045-0.43065-0.44883-0.90195-0.58008-1.3945h-0.98828c-0.28019-1e-7 -0.50781-0.22257-0.50781-0.49805v-1.9336c0-0.2754 0.22761-0.49805 0.50781-0.49805h0.98828c0.1313-0.4926 0.32958-0.96383 0.58008-1.3945l-0.70312-0.70117c-0.1981-0.1981-0.20457-0.50832-0.0097657-0.70312l1.373-1.373c0.0974-0.0974 0.22922-0.14368 0.35742-0.14258 0.1282 1e-3 0.2466 0.053244 0.3457 0.15234l0.70117 0.70312c0.4306-0.2504 0.90203-0.44878 1.3945-0.58008v-0.98828c0-0.28019 0.22257-0.50781 0.49805-0.50781zm0.9668 4.8828c-1.1682 0-2.1172 0.94898-2.1172 2.1172s0.94898 2.1172 2.1172 2.1172 2.1172-0.94898 2.1172-2.1172-0.94899-2.1172-2.1172-2.1172zm0 1c0.62715 0 1.1172 0.49003 1.1172 1.1172 0 0.62716-0.49003 1.1172-1.1172 1.1172s-1.1172-0.49003-1.1172-1.1172 0.49003-1.1172 1.1172-1.1172z" fill="#fff" opacity=".05"/>
 <path id="base" d="m7.0334 1c-0.27548 0-0.49855 0.22853-0.49855 0.50872v0.98692c-0.4925 0.1313-0.9632 0.3296-1.3938 0.58l-0.702-0.702c-0.0991-0.0991-0.2178-0.1516-0.346-0.1526-0.1282-0.0011-0.2587 0.045-0.3561 0.1424l-1.3735 1.3735c-0.1948 0.1948-0.188 0.504 0.0101 0.7021l0.7021 0.702c-0.2505 0.4307-0.4487 0.9013-0.58 1.3939h-0.98691c-0.2802 0-0.5087 0.2231-0.5087 0.4985v1.9331c0 0.27548 0.22853 0.49855 0.50872 0.49855h0.98691c0.13125 0.49258 0.32949 0.96325 0.57994 1.3939l-0.70203 0.70203c-0.19813 0.19813-0.20497 0.50724-0.010162 0.70203l1.3735 1.3735c0.19479 0.1948 0.50391 0.18795 0.70203-0.01015l0.70204-0.70206c0.43064 0.25046 0.90131 0.4487 1.3939 0.57994v0.98692c0 0.28019 0.22306 0.50872 0.49855 0.50872h1.9331c0.27548 0 0.49855-0.22853 0.49855-0.50872v-0.98692c0.49258-0.13124 0.96325-0.32948 1.3939-0.57994l0.70204 0.70204c0.19812 0.19812 0.50724 0.20497 0.70203 0.01015l1.3735-1.3735c0.1948-0.1948 0.18795-0.50391-0.01015-0.70203l-0.70203-0.70204c0.25046-0.43064 0.4487-0.90131 0.57994-1.3939h0.98692c0.28 1e-3 0.509-0.222 0.509-0.4975v-1.9332c0-0.2754-0.229-0.4985-0.509-0.4985h-0.98692c-0.131-0.4926-0.329-0.9632-0.58-1.3939l0.702-0.702c0.19812-0.19812 0.20497-0.50724 0.01015-0.70203l-1.373-1.3736c-0.195-0.1948-0.504-0.1879-0.702 0.0102l-0.702 0.702c-0.431-0.2505-0.9013-0.4487-1.3939-0.58v-0.98691c0-0.28019-0.22306-0.50872-0.49854-0.50872h-1.9331zm0.96657 4.8837c1.1682 0 2.1163 0.94809 2.1163 2.1163s-0.94809 2.1163-2.1163 2.1163-2.1163-0.94809-2.1163-2.1163 0.94809-2.1163 2.1163-2.1163z" fill="url(#gr0)"/>
 <path id="path15" d="m7.0332 1c-0.27548 0-0.49805 0.22762-0.49805 0.50781v0.98828c-0.4925 0.1313-0.96393 0.32968-1.3945 0.58008l-0.70117-0.70312c-0.0991-0.0991-0.2175-0.15134-0.3457-0.15234-0.1282-0.0011-0.26002 0.045178-0.35742 0.14258l-1.373 1.373c-0.1948 0.1948-0.18833 0.50502 0.0097657 0.70312l0.70312 0.70117c-0.2505 0.4307-0.44878 0.90193-0.58008 1.3945h-0.98828c-0.2802 0-0.50781 0.22265-0.50781 0.49805v1.9336c0 0.27548 0.22762 0.49805 0.50781 0.49805h0.98828c0.13125 0.49258 0.32963 0.96388 0.58008 1.3945l-0.70312 0.70117c-0.19813 0.19813-0.20457 0.50834-0.0097657 0.70312l1.373 1.373c0.19479 0.1948 0.505 0.18833 0.70312-0.009766l0.70117-0.70312c0.43064 0.25046 0.90194 0.44884 1.3945 0.58008v0.98633c0 0.28019 0.22256 0.50977 0.49805 0.50977h1.9336c0.27548 0 0.49805-0.22958 0.49805-0.50977v-0.98633c0.49258-0.13124 0.96388-0.32962 1.3945-0.58008l0.70117 0.70312c0.19812 0.19812 0.50834 0.20459 0.70312 0.009766l1.373-1.373c0.1948-0.1948 0.18833-0.505-0.009766-0.70312l-0.70312-0.70117c0.25046-0.43064 0.44884-0.90194 0.58008-1.3945h0.98828c0.28 9.999e-4 0.50781-0.22255 0.50781-0.49805v-1.9316c0-0.2754-0.22781-0.5-0.50781-0.5h-0.98828c-0.131-0.4926-0.32908-0.96188-0.58008-1.3926l0.70312-0.70312c0.19812-0.19812 0.20459-0.50638 0.009766-0.70117l-1.373-1.373c-0.195-0.1948-0.50512-0.18833-0.70312 0.0097656l-0.70117 0.70117c-0.431-0.2505-0.90193-0.44878-1.3945-0.58008v-0.98633c0-0.28019-0.22257-0.50977-0.49805-0.50977h-1.9336zm0 0.5h1.9336c-0.0010434 0-0.0019531-0.0050568-0.0019531 0.0097656v0.98633a0.50005 0.50005 0 0 0 0.37109 0.48438c0.44813 0.11945 0.87804 0.30063 1.2715 0.5293a0.50005 0.50005 0 0 0 0.60547-0.080078l0.70117-0.70117a0.50005 0.50005 0 0 1 0.001954 0c0.018231-0.01824-0.009839-0.013741-0.00586-0.0097656l1.373 1.373c0.003639 0.0036383 0.008549-0.024175-0.009765-0.0058594l-0.70313 0.70312a0.50005 0.50005 0 0 0-0.078124 0.60547c0.22882 0.39264 0.41013 0.82143 0.5293 1.2695a0.50005 0.50005 0 0 0 0.48242 0.37109h0.98828c0.014403 1e-7 0.007812 0.0017726 0.007812 0v1.9316c0-0.001572 0.005743-0.0019048-0.007812-0.0019531h-0.98828a0.50005 0.50005 0 0 0-0.48242 0.37109c-0.11939 0.44812-0.30079 0.87859-0.5293 1.2715a0.50005 0.50005 0 0 0 0.078124 0.60547l0.70313 0.70117c0.018309 0.018313 0.013414-0.007555 0.009765-0.003906l-1.373 1.373c-0.003638 0.003639 0.022223 0.008549 0.003906-0.009765l-0.70117-0.70313a0.50005 0.50005 0 0 0-0.60547-0.078124c-0.3929 0.22851-0.82338 0.4099-1.2715 0.5293a0.50005 0.50005 0 0 0-0.37109 0.48242v0.98633c0 0.014811 9.097e-4 0.009766 0.0019531 0.009766h-1.9336c0.0010234 0 0.0019531 0.005057 0.0019531-0.009766v-0.98633a0.50005 0.50005 0 0 0-0.37109-0.48242c-0.44812-0.11939-0.87859-0.30079-1.2715-0.5293a0.50005 0.50005 0 0 0-0.60547 0.078124l-0.70117 0.70313c-0.018307 0.018304 0.0075344 0.013393 0.0039063 0.009765l-1.373-1.373c-0.0036447-0.003644-0.008569 0.022242 0.0097656 0.003906l0.70312-0.70117a0.50005 0.50005 0 0 0 0.078125-0.60547c-0.2285-0.39291-0.40989-0.82337-0.5293-1.2715a0.50005 0.50005 0 0 0-0.48242-0.37109h-0.98828c-0.014811 0-0.0078125 9.097e-4 -0.0078125 0.0019531v-1.9336c0 0.0011674-0.0069818 0.0019531 0.0078125 0.0019531h0.98828a0.50005 0.50005 0 0 0 0.48242-0.37109c0.11946-0.44818 0.30075-0.87853 0.5293-1.2715a0.50005 0.50005 0 0 0-0.078125-0.60547l-0.70312-0.70117c-0.0182-0.0182-0.01339 0.0075309-0.0097656 0.0039063l1.3711-1.3691a0.50005 0.50005 0 0 1 0.0019532 0c-0.0058858-4.59e-5 -0.02428-0.014515-0.0039063 0.0058594l0.70117 0.70312a0.50005 0.50005 0 0 0 0.60547 0.078125c0.39288-0.22847 0.82344-0.40985 1.2715-0.5293a0.50005 0.50005 0 0 0 0.37109-0.48242v-0.98828c1e-7 -0.014811-9.097e-4 -0.0078125-0.0019531-0.0078125zm0.9668 3.8828c-1.4387 0-2.6172 1.1785-2.6172 2.6172s1.1785 2.6172 2.6172 2.6172c1.4387-1e-6 2.6172-1.1785 2.6172-2.6172-1e-6 -1.4387-1.1785-2.6172-2.6172-2.6172zm0 0.5c1.1682 0 2.1172 0.94898 2.1172 2.1172s-0.94898 2.1172-2.1172 2.1172-2.1172-0.94898-2.1172-2.1172 0.94898-2.1172 2.1172-2.1172z" opacity=".3"/>
 <path id="path20" d="m7.0332 1c-0.27548 0-0.49805 0.22762-0.49805 0.50781v0.98828c-0.4925 0.1313-0.96393 0.32968-1.3945 0.58008l-0.70117-0.70312c-0.0991-0.0991-0.2175-0.15134-0.3457-0.15234-0.1282-0.0011-0.26002 0.045178-0.35742 0.14258l-1.373 1.373c-0.1948 0.1948-0.18833 0.50502 0.0097657 0.70312l0.14453 0.14258 1.2188-1.2188c0.0974-0.0974 0.22922-0.14368 0.35742-0.14258 0.1282 1e-3 0.2466 0.053244 0.3457 0.15234l0.70117 0.70312c0.4306-0.2504 0.90203-0.44878 1.3945-0.58008v-0.98828c0-0.28019 0.22257-0.50781 0.49805-0.50781h1.9336c0.27548 0 0.49805 0.22958 0.49805 0.50977v0.98633c0.4926 0.1313 0.96353 0.32958 1.3945 0.58008l0.70117-0.70117c0.198-0.1981 0.50812-0.20457 0.70312-0.0097656l1.2188 1.2188 0.14453-0.14453c0.19812-0.19812 0.20459-0.50638 0.009766-0.70117l-1.373-1.373c-0.195-0.1948-0.50512-0.18833-0.70312 0.0097656l-0.70117 0.70117c-0.431-0.2505-0.90193-0.44878-1.3945-0.58008v-0.98633c0-0.28019-0.22257-0.50977-0.49805-0.50977h-1.9336zm-4.2891 4.8086c-0.098457 0.23508-0.18179 0.47798-0.24805 0.72656h-0.98828c-0.2802 0-0.50781 0.22265-0.50781 0.49805v1c0-0.2754 0.22761-0.49805 0.50781-0.49805h0.98828c0.1313-0.4926 0.32958-0.96383 0.58008-1.3945l-0.33203-0.33203zm10.512 0.0019531-0.33203 0.33203c0.251 0.4307 0.44908 0.89998 0.58008 1.3926h0.98828c0.28 1e-7 0.50781 0.2246 0.50781 0.5v-1c0-0.2754-0.22781-0.5-0.50781-0.5h-0.98828c-0.066108-0.24859-0.14961-0.48953-0.24805-0.72461zm-7.3066 2.6895c-0.039327 0.16119-0.066406 0.32676-0.066406 0.5 0 1.1682 0.94898 2.1172 2.1172 2.1172 1.1682-1e-6 2.1172-0.94898 2.1172-2.1172 0-0.17324-0.027079-0.33881-0.066407-0.5-0.22586 0.92573-1.0558 1.6172-2.0508 1.6172s-1.8249-0.69146-2.0508-1.6172zm-3.2051 2.6914-0.37109 0.36914c-0.19813 0.19813-0.20457 0.50834-0.0097657 0.70312l0.1543 0.1543 0.55859-0.55859c-0.12406-0.21333-0.23539-0.4372-0.33203-0.66797zm10.512 0c-0.096643 0.23077-0.20796 0.45465-0.33203 0.66797l0.55859 0.55859 0.1543-0.1543c0.1948-0.1948 0.18833-0.505-0.009766-0.70312l-0.37109-0.36914z" opacity=".3"/>
 <path id="path25" d="m2.5176 4.582-0.1543 0.1543c-0.1948 0.1948-0.18833 0.50502 0.0097657 0.70312l0.37109 0.36914c0.096646-0.23076 0.20794-0.45462 0.33203-0.66797l-0.55859-0.55859zm10.965 0.0019532-0.55859 0.55859c0.12434 0.21335 0.23541 0.43721 0.33203 0.66797l0.37109-0.37109c0.19812-0.19812 0.20459-0.50638 0.009766-0.70117l-0.1543-0.1543zm-5.4824 1.2988c-1.1682 0-2.1172 0.94898-2.1172 2.1172 0 0.17324 0.027079 0.33881 0.066406 0.5 0.22586-0.92573 1.0558-1.6172 2.0508-1.6172 0.99496 0 1.8249 0.69146 2.0508 1.6172 0.039327-0.16119 0.066407-0.32676 0.066407-0.5 0-1.1682-0.94899-2.1172-2.1172-2.1172zm-7 3.084v1c0 0.27548 0.22762 0.49805 0.50781 0.49805h0.98828c0.066234 0.24858 0.14959 0.49147 0.24805 0.72656l0.33203-0.33203c-0.25045-0.43065-0.44883-0.90195-0.58008-1.3945h-0.98828c-0.28019-1e-7 -0.50781-0.22257-0.50781-0.49805zm14 0c0 0.2755-0.22781 0.49905-0.50781 0.49805h-0.98828c-0.13124 0.49259-0.32962 0.96389-0.58008 1.3945l0.33203 0.33203c0.098454-0.23509 0.18182-0.47798 0.24805-0.72656h0.98828c0.28 1e-3 0.50781-0.22255 0.50781-0.49805v-1zm-12.482 3.4512-0.14453 0.14258c-0.19813 0.19813-0.20457 0.50834-0.0097657 0.70312l1.373 1.373c0.19479 0.1948 0.505 0.18833 0.70312-0.009766l0.70117-0.70312c0.43064 0.25046 0.90194 0.44884 1.3945 0.58008v0.98633c0 0.28019 0.22256 0.50977 0.49805 0.50977h1.9336c0.27548 0 0.49805-0.22958 0.49805-0.50977v-0.98633c0.49258-0.13124 0.96388-0.32962 1.3945-0.58008l0.70117 0.70312c0.19812 0.19812 0.50834 0.20459 0.70312 0.009766l1.373-1.373c0.1948-0.1948 0.18833-0.505-0.009766-0.70312l-0.14453-0.14258-1.2188 1.2188c-0.19479 0.19482-0.505 0.18835-0.70312-0.009766l-0.70117-0.70312c-0.43065 0.25046-0.90195 0.44884-1.3945 0.58008v0.98633c0 0.28019-0.22257 0.50977-0.49805 0.50977h-1.9336c-0.27549 0-0.49805-0.22958-0.49805-0.50977v-0.98633c-0.49259-0.13124-0.96389-0.32962-1.3945-0.58008l-0.70117 0.70312c-0.19812 0.1981-0.50834 0.20457-0.70312 0.009766l-1.2188-1.2188z" fill="#fff" opacity=".2"/>
</svg>
