<?xml version="1.0" encoding="UTF-8"?>
<svg id="svg30" width="16" height="16" version="1.1" xmlns="http://www.w3.org/2000/svg" xmlns:cc="http://creativecommons.org/ns#" xmlns:dc="http://purl.org/dc/elements/1.1/" xmlns:rdf="http://www.w3.org/1999/02/22-rdf-syntax-ns#">
 <metadata id="metadata34">
  <rdf:RDF>
   <cc:Work rdf:about="">
    <dc:format>image/svg+xml</dc:format>
    <dc:type rdf:resource="http://purl.org/dc/dcmitype/StillImage"/>
   </cc:Work>
  </rdf:RDF>
 </metadata>
 <defs id="defs7">
  <radialGradient id="gr0" cx="9" cy="10" r="11" gradientTransform="matrix(1 0 0 .63636 0 3.6364)" gradientUnits="userSpaceOnUse">
   <stop id="stop2" stop-opacity=".23529" offset="0"/>
   <stop id="stop4" stop-opacity=".54902" offset="1"/>
  </radialGradient>
 </defs>
 <path id="path9" d="m4.7812 1c-2.6182 0-4.7812 2.129-4.7812 4.75 0 1.3592 0.57283 2.6062 1.5 3.4766l5.8145 5.5a1 1.0001 0 0 0 1.375 0l5.8066-5.4961c0.9298-0.87035 1.5039-2.1191 1.5039-3.4805 0-2.6212-2.1636-4.75-4.7812-4.75-1.2899 0-2.3597 0.62154-3.2188 1.459-0.85963-0.83705-1.9295-1.459-3.2188-1.459zm0 1c1.3714 0 2.5613 0.7211 3.2207 1.8125 0.6595-1.0913 1.8451-1.8125 3.2168-1.8125 2.081 0 3.7812 1.675 3.7812 3.75 0 1.0798-0.4555 2.0648-1.1875 2.75l-5.8105 5.5-5.8145-5.5c-0.73176-0.6853-1.1875-1.6703-1.1875-2.75 0-2.075 1.6994-3.75 3.7812-3.75z" fill="#fff" opacity=".05"/>
 <path id="base" d="m4.7811 2c-2.0818 0-3.7812 1.675-3.7812 3.75 0 1.0797 0.45574 2.0647 1.1875 2.75l5.8137 5.5 5.811-5.5c0.732-0.6852 1.188-1.6702 1.188-2.75 0-2.075-1.7-3.75-3.781-3.75-1.3717 0-2.5585 0.7212-3.218 1.8125-0.6594-1.0914-1.8486-1.8125-3.22-1.8125z" fill="url(#gr0)"/>
 <path id="path15" d="m4.7812 2c-2.0818 0-3.7812 1.675-3.7812 3.75 0 1.0797 0.45574 2.0647 1.1875 2.75l5.8145 5.5 5.8105-5.5c0.732-0.6852 1.1875-1.6702 1.1875-2.75 0-2.075-1.7002-3.75-3.7812-3.75-1.3717 0-2.5573 0.7212-3.2168 1.8125-0.6594-1.0914-1.8493-1.8125-3.2207-1.8125zm0 0.5c1.1961 0 2.2188 0.62322 2.791 1.5703a0.50005 0.50005 0 0 0 0.85742 0c0.5726-0.9475 1.5926-1.5703 2.7891-1.5703 1.8127 0 3.2812 1.4481 3.2812 3.25 0 0.93903-0.3962 1.7921-1.0293 2.3848a0.50005 0.50005 0 0 1-0.001953 0.0019532l-5.4668 5.1758-5.4707-5.1758a0.50005 0.50005 0 0 1-0.0019531-0.0019532c-0.63289-0.5927-1.0293-1.4458-1.0293-2.3848 0-1.802 1.4676-3.25 3.2812-3.25z" opacity=".3"/>
 <path id="path20" d="m4.7812 2c-2.0818 0-3.7812 1.675-3.7812 3.75 0 0.16836 0.029301 0.32921 0.050781 0.49219 0.25237-1.8316 1.823-3.2422 3.7305-3.2422 1.3714 0 2.5613 0.7211 3.2207 1.8125 0.6595-1.0913 1.8451-1.8125 3.2168-1.8125 1.9067 0 3.478 1.4106 3.7305 3.2422 0.021491-0.16298 0.050781-0.32382 0.050781-0.49219 0-2.075-1.7002-3.75-3.7812-3.75-1.3717 0-2.5573 0.7212-3.2168 1.8125-0.6594-1.0914-1.8493-1.8125-3.2207-1.8125z" opacity=".3"/>
 <path id="path25" d="m1.0508 6.2422c-0.02307 0.16744-0.050781 0.33401-0.050781 0.50781 0 1.0797 0.45574 2.0647 1.1875 2.75l5.8145 5.5 5.8105-5.5c0.732-0.6852 1.1875-1.6702 1.1875-2.75 0-0.1738-0.027704-0.34038-0.050781-0.50781-0.11634 0.88227-0.51886 1.6795-1.1367 2.2578l-5.8105 5.5-5.8145-5.5c-0.61766-0.57844-1.0204-1.3756-1.1367-2.2578z" fill="#fff" opacity=".2"/>
</svg>
