<?xml version="1.0" encoding="UTF-8"?>
<svg id="svg36" width="16" height="16" version="1.1" xmlns="http://www.w3.org/2000/svg" xmlns:cc="http://creativecommons.org/ns#" xmlns:dc="http://purl.org/dc/elements/1.1/" xmlns:rdf="http://www.w3.org/1999/02/22-rdf-syntax-ns#">
 <metadata id="metadata40">
  <rdf:RDF>
   <cc:Work rdf:about="">
    <dc:format>image/svg+xml</dc:format>
    <dc:type rdf:resource="http://purl.org/dc/dcmitype/StillImage"/>
   </cc:Work>
  </rdf:RDF>
 </metadata>
 <defs id="defs7">
  <radialGradient id="gr0" cx="9" cy="10" r="11" gradientTransform="matrix(1 0 0 .72727 0 2.7273)" gradientUnits="userSpaceOnUse">
   <stop id="stop2" stop-opacity=".23529" offset="0"/>
   <stop id="stop4" stop-opacity=".54902" offset="1"/>
  </radialGradient>
 </defs>
 <path id="path9" d="m3 0c-1.091 0-2 0.9093-2 2v1a1 1 0 0 0 0.168 0.557c-0.6609 0.452-1.168 1.092-1.168 1.943v6.5 1.5c0 1.37 1.132 2.5 2.5 2.5h5.5 5.5c1.37 0 2.5-1.13 2.5-2.5v-1.5-6.5c0-0.852-0.51-1.491-1.17-1.943a1 1 0 0 0 0.17-0.557c0-1.091-0.91-2-2-2h-5.42c-0.357-0.5612-0.877-1-1.58-1h-3zm0 1h3c0.554 0 1 0.446 1 1h6c0.55 0 1 0.446 1 1h-12v-1c0-0.554 0.446-1 1-1zm-0.5 3h11c0.83 0 1.5 0.669 1.5 1.5v6.5 1.5c0 0.83-0.67 1.5-1.5 1.5h-5.5-5.5c-0.831 0-1.5-0.67-1.5-1.5v-1.5-6.5c0-0.831 0.669-1.5 1.5-1.5zm9.5 0.85-5.998 1v2 3.11c-0.211-0.11-0.44-0.11-0.676-0.11s-0.48 0-0.719 0.1c-0.541 0.14-0.986 0.42-1.269 0.77-0.287 0.34-0.405 0.75-0.297 1.14 0.109 0.39 0.428 0.69 0.854 0.86 0.427 0.21 0.96 0.24 1.501 0.1 0.457-0.12 0.852-0.34 1.135-0.62 0.284-0.28 0.459-0.62 0.469-0.97v-4.486l4-0.668v2.944c-0.21-0.11-0.44-0.11-0.68-0.11-0.23 0.01-0.476 0-0.715 0.1-0.541 0.14-0.986 0.42-1.269 0.77-0.287 0.34-0.405 0.75-0.297 1.14 0.109 0.39 0.428 0.69 0.854 0.86 0.427 0.21 0.962 0.24 1.497 0.1 0.46-0.12 0.86-0.34 1.14-0.62s0.47-0.62 0.47-0.97v-4.29-2-0.15zm-1.69 6.08v0.07c0.14 0 0.27 0 0.38 0.1a1 1 0 0 0 0.31 0v0.14s0 0.15-0.17 0.29c-0.15 0.14-0.39 0.29-0.69 0.36-0.346 0.1-0.683 0.1-0.888 0s-0.242-0.15-0.25-0.18c0 0-0.02-0.1 0.107-0.25 0.128-0.16 0.393-0.34 0.745-0.43 0.156 0 0.316-0.1 0.456-0.1zm-4.998 1-1e-3 0.07c0.142 0 0.273 0 0.382 0.1a1 1 0 0 0 0.307 0v0.14s-0.03 0.15-0.174 0.29c-0.143 0.14-0.385 0.29-0.68 0.36-0.353 0.1-0.687 0.1-0.892 0s-0.242-0.15-0.25-0.18c0 0-0.02-0.1 0.107-0.25 0.128-0.16 0.392-0.34 0.744-0.43 0.155 0 0.315-0.1 0.457-0.1z" fill="#fff" opacity=".05"/>
 <path id="base" d="m3 1c-0.554 0-1 0.446-1 1v1h12c0-0.554-0.446-1-1-1h-6c0-0.554-0.446-1-1-1h-3zm-0.5 3c-0.831 0-1.5 0.669-1.5 1.5v8c0 0.831 0.669 1.5 1.5 1.5h11c0.831 0 1.5-0.669 1.5-1.5v-8c0-0.831-0.669-1.5-1.5-1.5h-11zm9.5 1v6.3223h-0.001953c-0.01214 0.34721-0.18516 0.68562-0.46875 0.9668-0.28359 0.28117-0.67776 0.50511-1.1348 0.62305-0.54165 0.13951-1.0757 0.10772-1.502-0.05664-0.42628-0.16436-0.74483-0.4613-0.85352-0.85156-0.10833-0.38988 0.013445-0.79979 0.29688-1.1465s0.72851-0.63015 1.2695-0.76953c0.23865-0.06134 0.48246-0.091191 0.71875-0.087891 0.2363 0.003309 0.46508 0.039782 0.67578 0.10742v-2.9414l-4 0.66797v4.4883h-0.0019531c-0.01214 0.34721-0.18516 0.68562-0.46875 0.9668-0.28359 0.28117-0.67776 0.50511-1.1348 0.62305-0.54165 0.13951-1.0757 0.10772-1.502-0.05664-0.42628-0.16436-0.74483-0.4613-0.85352-0.85156-0.10833-0.38988 0.013445-0.79979 0.29688-1.1465s0.72851-0.63015 1.2695-0.76953c0.23865-0.06134 0.48246-0.091191 0.71875-0.087891 0.23629 0.003309 0.46508 0.039782 0.67578 0.10742v-5.1074l6-1z" fill="url(#gr0)"/>
 <path id="path17" d="m3 1c-0.554 0-1 0.446-1 1v1h12c0-0.554-0.45-1-1-1h-6c0-0.554-0.446-1-1-1h-3zm0 0.5h3c0.286 0 0.5 0.214 0.5 0.5a0.5 0.5 0 0 0 0.5 0.5h-4.5v-0.5c0-0.286 0.214-0.5 0.5-0.5zm-0.5 2.5c-0.831 0-1.5 0.669-1.5 1.5v6.5 1.5c0 0.83 0.669 1.5 1.5 1.5h5.5 5.5c0.83 0 1.5-0.67 1.5-1.5v-1.5-6.5c0-0.831-0.67-1.5-1.5-1.5h-11zm9.47 0.395a0.5 0.5 0 0 0-0.14 0.029v-0.01l-5.959 0.994a0.5 0.5 0 0 0-0.418 0.492v2 2.53h-0.17c-0.283 0-0.568 0-0.849 0.1-0.635 0.17-1.171 0.5-1.532 0.94-0.362 0.44-0.549 1.03-0.39 1.6 0.158 0.57 0.619 0.98 1.156 1.18 0.537 0.23 1.17 0.26 1.807 0.1 0.537-0.14 1.007-0.4 1.361-0.76 0.3-0.29 0.49-0.67 0.56-1.09a0.5 0.5 0 0 0 0.061-0.23v-0.61c0 0.14 0.021 0.29 0.061 0.43 0.158 0.57 0.619 0.98 1.156 1.18 0.537 0.23 1.169 0.26 1.806 0.1 0.54-0.14 1.01-0.4 1.36-0.76 0.3-0.29 0.46-0.67 0.56-1.09a0.5 0.5 0 0 0 0.1-0.23v-4.29-2a0.5 0.5 0 0 0-0.47-0.5h1.47c0.56 0 1 0.437 1 1v6.5 1.5c0 0.56-0.44 1-1 1h-5.5-5.5c-0.563 0-1-0.44-1-1v-1.5-6.5c0-0.563 0.437-1 1-1l9.47-0.105zm0.03 0.455v0.15 2 4.29c0 0.35-0.19 0.69-0.47 0.97s-0.68 0.5-1.14 0.62c-0.535 0.14-1.07 0.11-1.497-0.1-0.426-0.17-0.745-0.47-0.854-0.86-0.108-0.39 0.01-0.8 0.297-1.14 0.283-0.35 0.728-0.63 1.269-0.77 0.239-0.1 0.485-0.09 0.715-0.1 0.24 0 0.47 0 0.68 0.11v-2.944l-4 0.668v4.486c-0.01 0.35-0.185 0.69-0.469 0.97-0.283 0.28-0.678 0.5-1.135 0.62-0.541 0.14-1.074 0.11-1.501-0.1-0.426-0.17-0.745-0.47-0.854-0.86-0.108-0.39 0.01-0.8 0.297-1.14 0.283-0.35 0.728-0.63 1.269-0.77 0.239-0.1 0.483-0.1 0.719-0.1s0.465 0 0.676 0.11v-3.11-2l5.998-1zm-1.5 2.912v1.767c-0.06-0.01-0.07-0.028-0.17-0.029-0.28-4e-3 -0.569 0.034-0.85 0.104-0.635 0.163-1.17 0.496-1.531 0.936-0.271 0.33-0.449 0.74-0.449 1.17v-3.448l3-0.5z" opacity=".3"/>
 <path id="path24" d="m2 3v1h0.5 11 0.5c0-0.554-0.45-1-1-1h-6-5zm9.1 2-5.098 0.85v1l5.998-1v-0.85h-0.9zm-0.78 4.91c-0.23 0.01-0.476 0-0.715 0.1-0.541 0.14-0.986 0.42-1.269 0.77-0.287 0.34-0.405 0.75-0.297 1.14 0.02 0.07 0.053 0.13 0.086 0.2 0.055-0.12 0.121-0.23 0.211-0.34 0.283-0.35 0.728-0.63 1.269-0.77 0.239-0.1 0.485-0.1 0.715-0.1 0.24 0 0.47 0 0.68 0.11v-1c-0.21-0.11-0.44-0.11-0.68-0.11zm-4.994 0.94c-0.236 0-0.48 0-0.719 0.1-0.541 0.14-0.986 0.42-1.269 0.77-0.287 0.34-0.405 0.75-0.297 1.14 0.02 0.07 0.053 0.13 0.086 0.2 0.055-0.12 0.121-0.23 0.211-0.34 0.283-0.35 0.728-0.63 1.269-0.77 0.239-0.1 0.483-0.1 0.719-0.1s0.465 0 0.676 0.11v-1c-0.211-0.11-0.44-0.11-0.676-0.11zm-4.326 2.65v1c0 0.83 0.669 1.5 1.5 1.5h5.5 5.5c0.83 0 1.5-0.67 1.5-1.5v-1c0 0.83-0.67 1.5-1.5 1.5h-5.5-5.5c-0.831 0-1.5-0.67-1.5-1.5z" fill="#fff" opacity=".2"/>
 <path id="path31" d="m3 1c-0.554 0-1 0.446-1 1v1c0-0.554 0.446-1 1-1h3c0.554 0 1 0.446 1 1h6 1c0-0.554-0.45-1-1-1h-6c0-0.554-0.446-1-1-1h-3zm-0.5 3c-0.831 0-1.5 0.669-1.5 1.5v1c0-0.831 0.669-1.5 1.5-1.5h8.6l0.9-0.15v0.15h1.5c0.83 0 1.5 0.669 1.5 1.5v-1c0-0.831-0.67-1.5-1.5-1.5h-11zm8.5 3.076-4 0.668v1l4-0.668v-1zm1 4.214c0 0.35-0.19 0.69-0.47 0.97s-0.68 0.5-1.14 0.62c-0.536 0.14-1.07 0.11-1.497-0.1-0.349-0.14-0.62-0.37-0.768-0.66-0.12 0.26-0.16 0.53-0.086 0.8 0.109 0.39 0.428 0.69 0.854 0.86 0.427 0.21 0.961 0.24 1.497 0.1 0.46-0.12 0.86-0.34 1.14-0.62s0.47-0.62 0.47-0.97v-1zm-5 0.94c-0.01 0.35-0.185 0.69-0.469 0.97-0.283 0.28-0.678 0.5-1.135 0.62-0.541 0.14-1.074 0.11-1.501-0.1-0.349-0.14-0.62-0.37-0.768-0.66-0.121 0.26-0.16 0.53-0.086 0.8 0.109 0.39 0.428 0.69 0.854 0.86 0.427 0.21 0.96 0.24 1.501 0.1 0.457-0.12 0.852-0.34 1.135-0.62 0.284-0.28 0.459-0.62 0.469-0.97v-1z" opacity=".3"/>
</svg>
