<?xml version="1.0" encoding="UTF-8"?>
<svg id="svg36" width="16" height="16" version="1.1" xmlns="http://www.w3.org/2000/svg" xmlns:cc="http://creativecommons.org/ns#" xmlns:dc="http://purl.org/dc/elements/1.1/" xmlns:rdf="http://www.w3.org/1999/02/22-rdf-syntax-ns#">
 <metadata id="metadata40">
  <rdf:RDF>
   <cc:Work rdf:about="">
    <dc:format>image/svg+xml</dc:format>
    <dc:type rdf:resource="http://purl.org/dc/dcmitype/StillImage"/>
   </cc:Work>
  </rdf:RDF>
 </metadata>
 <defs id="defs7">
  <radialGradient id="gr0" cx="9" cy="10" r="11" gradientTransform="matrix(1 0 0 .72727 0 2.7273)" gradientUnits="userSpaceOnUse">
   <stop id="stop2" stop-opacity=".23529" offset="0"/>
   <stop id="stop4" stop-opacity=".54902" offset="1"/>
  </radialGradient>
 </defs>
 <path id="path9" d="m3 0c-1.091 0-2 0.9093-2 2v1a1 1 0 0 0 0.168 0.557c-0.6609 0.452-1.168 1.092-1.168 1.943v6.5 1.5c0 1.37 1.132 2.5 2.5 2.5h5.5 5.5c1.37 0 2.5-1.13 2.5-2.5v-1.5-6.5c0-0.852-0.51-1.491-1.17-1.943a1 1 0 0 0 0.17-0.557c0-1.091-0.91-2-2-2h-5.42c-0.357-0.5612-0.877-1-1.58-1h-3zm0 1h3c0.554 0 1 0.446 1 1h6c0.55 0 1 0.446 1 1h-12v-1c0-0.554 0.446-1 1-1zm-0.5 3h11c0.83 0 1.5 0.669 1.5 1.5v6.5 1.5c0 0.83-0.67 1.5-1.5 1.5h-5.5-5.5c-0.831 0-1.5-0.67-1.5-1.5v-1.5-6.5c0-0.831 0.669-1.5 1.5-1.5zm6.797 1v0.037c-0.374 8e-3 -0.746 0.136-1.051 0.381-0.984 0.787-0.219 1.6-1.074 2.287-0.855 0.684-1.613-0.133-2.594 0.654-0.218 0.175-0.381 0.391-0.471 0.625-0.02 0.045-0.04 0.099-0.05 0.149-0.01 0.02-0.02 0.038-0.02 0.058-0.02 0.049-0.019 0.089-0.019 0.139v0.061 0.05 0.03 0.07 0.029 0.051 0.07c0 0.051 9e-3 0.091 0.019 0.141 0.01 0.03 0.02 0.05 0.02 0.07 0.01 0.048 0.03 0.049 0.05 0.148 0.095 0.23 0.253 0.45 0.471 0.63 0.981 0.79 1.739-0.03 2.594 0.65 0.855 0.69 0.094 1.51 1.074 2.29 0.697 0.56 1.749 0.49 2.354-0.16 0.6-0.65 0.52-1.63-0.18-2.19-0.979-0.78-1.737 0.04-2.592-0.65-0.43-0.35-0.45-0.727-0.49-1.12 0.04-0.393 0.058-0.774 0.49-1.121 0.855-0.692 1.613 0.135 2.592-0.652 0.7-0.56 0.78-1.539 0.18-2.188-0.34-0.365-0.823-0.549-1.303-0.539zm0.019 1c0.212 0 0.415 0.08 0.545 0.219 0.229 0.249 0.219 0.502-0.07 0.728-0.258 0.207-0.27 0.165-0.666 0.145-0.134 0-0.363 9e-3 -0.574 0.029 0.03-0.161 0.09-0.356 0.101-0.457 0.04-0.364-0.04-0.295 0.217-0.504 0.124-0.1 0.279-0.151 0.443-0.154l4e-3 -6e-3zm-2.894 3.043c-0.032 0.133-0.07 0.278-0.078 0.355a1 1 0 0 0 0 0.204c0.01 0.101 0.07 0.3 0.101 0.468h-0.572c-0.398 0-0.408 0.1-0.668-0.142-0.08-0.07-0.136-0.142-0.168-0.217-0.01-0.03-0.019-0.051-0.019-0.051v-0.019-0.041-0.02-0.01-0.019-0.012-0.01a1 1 0 0 0 0-0.029v-0.01-0.019s-1e-3 -0.021 0.019-0.041c0.03-0.07 0.08-0.145 0.166-0.213 0.26-0.209 0.27-0.167 0.668-0.147 0.129 0 0.348-9e-3 0.551-0.027zm-1.317 1.057v0.01l-0.031 0.19s0.031-0.19 0.031-0.2zm4.409 1.76c0.084 0 0.151 0.04 0.281 0.16 0.285 0.23 0.295 0.48 0.07 0.73-0.231 0.25-0.707 0.29-0.988 0.1-0.26-0.21-0.18-0.14-0.217-0.5-0.01-0.1-0.07-0.3-0.101-0.46l-4e-3 -0.01h0.574c0.199 0 0.3-0.03 0.385-0.02z" fill="#fff" opacity=".05"/>
 <path id="base" d="m3 1c-0.554 0-1 0.446-1 1v1h12c0-0.554-0.446-1-1-1h-6c0-0.554-0.446-1-1-1h-3zm-0.5 3c-0.831 0-1.5 0.669-1.5 1.5v8c0 0.831 0.669 1.5 1.5 1.5h11c0.831 0 1.5-0.669 1.5-1.5v-8c0-0.831-0.669-1.5-1.5-1.5h-11zm6.7969 1c0.48006-0.0096681 0.9607 0.17404 1.2988 0.53906 0.60145 0.6489 0.52238 1.6279-0.17383 2.1875-0.98098 0.78738-1.7386-0.034283-2.5938 0.65234-0.43189 0.34682-0.45034 0.72802-0.49023 1.1211 0.039897 0.39308 0.058346 0.77427 0.49023 1.1211 0.8551 0.68644 1.6128-0.13514 2.5938 0.65234 0.6969 0.55961 0.77486 1.5386 0.17383 2.1875-0.60105 0.64889-1.6527 0.72174-2.3496 0.16211-0.98057-0.78748-0.21917-1.6044-1.0742-2.291-0.8551-0.68666-1.6132 0.13312-2.5938-0.6543-0.21778-0.17489-0.37568-0.39294-0.4707-0.62695-6.208e-4 -0.0016 6.383e-4 -0.002306 0-0.003906-0.019141-0.047591-0.036807-0.09565-0.050781-0.14453-0.006304-0.021867-0.012288-0.044368-0.017578-0.066406-5.589e-4 -0.00236-0.0013976-0.0034894-0.0019531-0.0058594-0.010692-0.0462-0.017258-0.093792-0.023438-0.14062-0.00319-0.024313-0.0058225-0.049831-0.0078125-0.074219-0.0013-0.016464-0.0031243-0.032345-0.0039063-0.048828-5.111e-4 -0.011232-0.0017267-0.021961-0.0019531-0.033203-4.948e-4 -0.02198-4.738e-4 -0.044435 0-0.066406 6.58e-5 -0.00275-8.38e-5 -0.0050625 0-0.0078125 2e-4 -0.008399 0.0015821-0.016961 0.0019531-0.025391 7e-4 -0.016474 0.0026063-0.034317 0.0039063-0.050781 0.00179-0.021905 0.0030693-0.042633 0.0058594-0.064453 3.025e-4 -0.00246 0.001624-0.0054425 0.0019531-0.0078125v-0.0019531c0.006144-0.046835 0.012754-0.09248 0.023438-0.13867 5.38e-4 -0.00239 0.0013766-0.0054025 0.0019531-0.0078125 0.005197-0.021908 0.011398-0.042749 0.017578-0.064453 0.013984-0.048881 0.03164-0.096937 0.050781-0.14453 6.207e-4 -0.00158-6.384e-4 -0.0043494 0-0.0058594 0.095055-0.23403 0.25296-0.45012 0.4707-0.625 0.98058-0.78748 1.7387 0.03233 2.5938-0.6543s0.093642-1.5036 1.0742-2.291c0.30492-0.24483 0.67734-0.36946 1.0508-0.37695z" fill="url(#gr0)"/>
 <path id="path17" d="m3 1c-0.554 0-1 0.446-1 1v1h12c0-0.554-0.45-1-1-1h-6c0-0.554-0.446-1-1-1h-3zm0 0.5h3c0.286 0 0.5 0.214 0.5 0.5a0.5 0.5 0 0 0 0.5 0.5h-4.5v-0.5c0-0.286 0.214-0.5 0.5-0.5zm-0.5 2.5c-0.831 0-1.5 0.669-1.5 1.5v6.5 1.5c0 0.83 0.669 1.5 1.5 1.5h5.5 5.5c0.83 0 1.5-0.67 1.5-1.5v-1.5-6.5c0-0.831-0.67-1.5-1.5-1.5h-11zm0 0.5 6.76 0.094a0.5 0.5 0 0 0-0.276 0.105c-0.368 0.06-0.744 0.131-1.05 0.377-0.606 0.486-0.73 1.125-0.77 1.526-0.04 0.4-9e-3 0.528-0.305 0.765-0.295 0.24-0.482 0.202-0.912 0.182-0.429-0.021-1.076-0.013-1.681 0.474-0.283 0.227-0.494 0.515-0.621 0.829-0.03 0.056-0.051 0.123-0.071 0.193 0 0.01-0.019 0.038-0.019 0.078v0.012c-0.01 0.069-0.03 0.127-0.03 0.177 0 0.041 1e-3 0.061 0 0.081v0.07c0-0.03 1e-3 -0.011 0 0.029-1e-3 0.03-1e-3 0.06 0 0.09-1e-3 0.04 0 0.051 0 0.041 0 0.03-1e-3 0.061 0 0.061 0.01 0.03 0.01 0.069 0.01 0.099 0 0.049 9e-3 0.108 0.029 0.188 0-0.01 0.022 0.089 0.022 0.089 0.02 0.07 0.039 0.08 0.059 0.18 0.126 0.31 0.337 0.6 0.621 0.83 0.605 0.47 1.252 0.47 1.681 0.47 0.43-0.02 0.617-0.05 0.912 0.18 0.305 0.24 0.265 0.37 0.305 0.77s0.164 1.04 0.77 1.52c0.904 0.73 2.246 0.64 3.026-0.21 0.79-0.85 0.68-2.19-0.23-2.92-0.6-0.47-1.248-0.47-1.677-0.47-0.43 0.02-0.617 0.06-0.912-0.18-0.279-0.23-0.269-0.371-0.299-0.73 0.032-0.359 0.017-0.505 0.299-0.73 0.295-0.24 0.482-0.2 0.912-0.18 0.429 0.022 1.077 0.013 1.677-0.473 0.91-0.726 1.02-2.069 0.23-2.918-0.44-0.477-1.059-0.709-1.673-0.699h4.213c0.56 0 1 0.437 1 1v6.5 1.5c0 0.56-0.44 1-1 1h-5.5-5.5c-0.563 0-1-0.44-1-1v-1.5-6.5c0-0.563 0.437-1 1-1zm6.797 0.5c0.48-0.01 0.963 0.174 1.303 0.539 0.6 0.649 0.52 1.628-0.18 2.188-0.979 0.787-1.737-0.04-2.592 0.652-0.432 0.347-0.45 0.728-0.49 1.121 0.04 0.393 0.06 0.77 0.49 1.12 0.855 0.69 1.613-0.13 2.592 0.65 0.7 0.56 0.78 1.54 0.18 2.19-0.605 0.65-1.657 0.72-2.354 0.16-0.98-0.78-0.219-1.6-1.074-2.29-0.855-0.68-1.613 0.14-2.594-0.65-0.218-0.18-0.376-0.4-0.471-0.63-0.02-0.099-0.04-0.1-0.05-0.148 0-0.02-0.01-0.04-0.02-0.07-0.01-0.05-0.019-0.09-0.019-0.141v-0.07-0.051-0.029-0.07-0.03-0.05-0.061c0-0.05-1e-3 -0.09 0.019-0.139 0-0.02 0.01-0.038 0.02-0.058 0.01-0.05 0.03-0.104 0.05-0.149 0.09-0.234 0.253-0.45 0.471-0.625 0.981-0.787 1.739 0.03 2.594-0.654 0.855-0.687 0.09-1.5 1.074-2.287 0.305-0.245 0.677-0.373 1.051-0.381v-0.037z" opacity=".3"/>
 <path id="path24" d="m2 3v1h0.5 11 0.5c0-0.554-0.45-1-1-1h-6-5zm7.297 2v0.037c-0.374 8e-3 -0.746 0.136-1.051 0.381-0.984 0.787-0.219 1.6-1.074 2.287-0.855 0.684-1.613-0.133-2.594 0.654-0.218 0.175-0.381 0.391-0.471 0.625-0.02 0.045-0.04 0.099-0.05 0.149-0.01 0.02-0.02 0.038-0.02 0.058-0.02 0.049-0.019 0.089-0.019 0.139v0.061 0.05 0.03 0.07 0.029 0.051 0.07c0 0.051 9e-3 0.091 0.019 0.141 0.01 0.03 0.02 0.05 0.02 0.07 7e-3 0.036 0.022 0.068 0.037 0.108 5e-3 0 8e-3 -0.022 0.013-0.033 0.09-0.234 0.253-0.45 0.471-0.625 0.981-0.787 1.739 0.03 2.594-0.655 0.855-0.687 0.09-1.504 1.074-2.291 0.305-0.245 0.677-0.369 1.051-0.377v-0.029c0.48-0.01 0.963 0.174 1.303 0.539 0.14 0.153 0.24 0.325 0.31 0.504 0.18-0.502 0.09-1.074-0.31-1.504-0.34-0.365-0.823-0.549-1.303-0.539zm-1.873 4.994c-0.046 0.166-0.069 0.336-0.086 0.506 0.04 0.39 0.06 0.77 0.49 1.12 0.855 0.69 1.613-0.13 2.592 0.65 0.24 0.19 0.4 0.43 0.49 0.68 0.21-0.58 0.04-1.25-0.49-1.68-0.979-0.78-1.737 0.04-2.592-0.65-0.245-0.2-0.346-0.41-0.404-0.626zm-6.424 3.506v1c0 0.83 0.669 1.5 1.5 1.5h5.5 5.5c0.83 0 1.5-0.67 1.5-1.5v-1c0 0.83-0.67 1.5-1.5 1.5h-5.5-5.5c-0.831 0-1.5-0.67-1.5-1.5z" fill="#fff" opacity=".2"/>
 <path id="path31" d="m3 1c-0.554 0-1 0.446-1 1v1c0-0.554 0.446-1 1-1h3c0.554 0 1 0.446 1 1h6 1c0-0.554-0.45-1-1-1h-6c0-0.554-0.446-1-1-1h-3zm-0.5 3c-0.831 0-1.5 0.669-1.5 1.5v1c0-0.831 0.669-1.5 1.5-1.5h6.797 4.203c0.83 0 1.5 0.669 1.5 1.5v-1c0-0.831-0.67-1.5-1.5-1.5h-11zm8.41 3.043c-0.09 0.256-0.25 0.495-0.49 0.684-0.979 0.787-1.737-0.04-2.592 0.652-0.432 0.347-0.45 0.728-0.49 1.121 0.017 0.169 0.042 0.332 0.086 0.494 0.059-0.212 0.162-0.42 0.404-0.615 0.855-0.692 1.613 0.135 2.592-0.652 0.54-0.429 0.71-1.101 0.49-1.684zm-6.816 2.967c-0.015 0.03-0.03 0.04-0.037 0.11-0.01 0.1-0.02 0.1-0.02 0.1-0.01 0.04-0.019 0.04-0.019 0.14v0.1 0.1 0.1c0 0.04 9e-3 0.04 0.019 0.14s0.02 0.1 0.02 0.1c0.01 0.05 0.03 0.05 0.05 0.15 0.095 0.23 0.253 0.45 0.471 0.63 0.981 0.79 1.739-0.03 2.594 0.65 0.855 0.69 0.094 1.51 1.074 2.29 0.697 0.56 1.749 0.49 2.354-0.16 0.4-0.43 0.49-1 0.31-1.51-0.07 0.18-0.17 0.36-0.31 0.51-0.605 0.65-1.657 0.72-2.354 0.16-0.98-0.78-0.219-1.6-1.074-2.29-0.855-0.68-1.613 0.14-2.594-0.65-0.218-0.18-0.376-0.4-0.471-0.63-5e-3 -0.02-8e-3 -0.02-0.013-0.04z" opacity=".3"/>
</svg>
