<?xml version="1.0" encoding="UTF-8"?>
<svg id="svg36" width="16" height="16" version="1.1" xmlns="http://www.w3.org/2000/svg" xmlns:cc="http://creativecommons.org/ns#" xmlns:dc="http://purl.org/dc/elements/1.1/" xmlns:rdf="http://www.w3.org/1999/02/22-rdf-syntax-ns#">
 <metadata id="metadata40">
  <rdf:RDF>
   <cc:Work rdf:about="">
    <dc:format>image/svg+xml</dc:format>
    <dc:type rdf:resource="http://purl.org/dc/dcmitype/StillImage"/>
   </cc:Work>
  </rdf:RDF>
 </metadata>
 <defs id="defs7">
  <radialGradient id="gr0" cx="9" cy="10" r="11" gradientTransform="matrix(1 0 0 .72727 0 2.7273)" gradientUnits="userSpaceOnUse">
   <stop id="stop2" stop-opacity=".23529" offset="0"/>
   <stop id="stop4" stop-opacity=".54902" offset="1"/>
  </radialGradient>
 </defs>
 <path id="path9" d="m3 0c-1.091 0-2 0.9093-2 2v1a1 1 0 0 0 0.168 0.557c-0.6609 0.452-1.168 1.092-1.168 1.943v6.5 1.5c0 1.37 1.132 2.5 2.5 2.5h5.5 5.5c1.37 0 2.5-1.13 2.5-2.5v-1.5-6.5c0-0.852-0.51-1.491-1.17-1.943a1 1 0 0 0 0.17-0.557c0-1.091-0.91-2-2-2h-5.42c-0.357-0.5612-0.877-1-1.58-1h-3zm0 1h3c0.554 0 1 0.446 1 1h6c0.55 0 1 0.446 1 1h-12v-1c0-0.554 0.446-1 1-1zm-0.5 3h11c0.83 0 1.5 0.669 1.5 1.5v6.5 1.5c0 0.83-0.67 1.5-1.5 1.5h-5.5-5.5c-0.831 0-1.5-0.67-1.5-1.5v-1.5-6.5c0-0.831 0.669-1.5 1.5-1.5zm5.5 3c-1.536 0-3.079 0.579-4.25 1.75l0.719 0.688c0.906-0.899 2.155-1.438 3.531-1.438s2.63 0.563 3.53 1.469l0.72-0.719c-1.17-1.171-2.714-1.75-4.25-1.75zm0 2c-1.095 0-2.093 0.438-2.812 1.16l0.687 0.68c0.544-0.53 1.301-0.869 2.125-0.869s1.557 0.339 2.09 0.869l0.72-0.68c-0.72-0.722-1.715-1.16-2.81-1.16zm0 1.98c-0.548 0-1.043 0.21-1.406 0.56l1.406 1.41 1.406-1.4c-0.355-0.35-0.858-0.56-1.406-0.56v-0.01z" fill="#fff" opacity=".05"/>
 <path id="base" d="m3 1c-0.554 0-1 0.446-1 1v1h12c0-0.554-0.446-1-1-1h-6c0-0.554-0.446-1-1-1h-3zm-0.5 3c-0.831 0-1.5 0.669-1.5 1.5v8c0 0.831 0.669 1.5 1.5 1.5h11c0.831 0 1.5-0.669 1.5-1.5v-8c0-0.831-0.669-1.5-1.5-1.5h-11zm5.5 3c1.5361 0 3.079 0.5789 4.25 1.75l-0.71875 0.71875c-0.898-0.9061-2.1556-1.4688-3.5312-1.4688s-2.6252 0.5392-3.5312 1.4375l-0.71875-0.6875c1.1711-1.1711 2.7139-1.75 4.25-1.75zm0 2c1.0954 0 2.0945 0.43795 2.8125 1.1562 0.0058 0.00582-0.0058 0.02535 0 0.03125l-0.71875 0.6875c-0.5363-0.53627-1.2701-0.875-2.0938-0.875s-1.5809 0.3387-2.125 0.875l-0.6875-0.6875v-0.03125c0.7183-0.7183 1.7171-1.1562 2.8125-1.1562zm0 2c0.5477 0 1.051 0.20845 1.4062 0.56445 6e-3 0.00596-0.0059 0.02525 0 0.03125l-1.4062 1.4043-1.4062-1.4062v-0.03125c0.363-0.35527 0.85856-0.5625 1.4062-0.5625z" fill="url(#gr0)"/>
 <path id="path17" d="m3 1c-0.554 0-1 0.446-1 1v1h12c0-0.554-0.45-1-1-1h-6c0-0.554-0.446-1-1-1h-3zm0 0.5h3c0.286 0 0.5 0.214 0.5 0.5a0.5 0.5 0 0 0 0.5 0.5h-4.5v-0.5c0-0.286 0.214-0.5 0.5-0.5zm-0.5 2.5c-0.831 0-1.5 0.669-1.5 1.5v6.5 1.5c0 0.83 0.669 1.5 1.5 1.5h5.5 5.5c0.83 0 1.5-0.67 1.5-1.5v-1.5-6.5c0-0.831-0.67-1.5-1.5-1.5h-11zm0 0.5h11c0.56 0 1 0.437 1 1v6.5 1.5c0 0.56-0.44 1-1 1h-5.5-5.5c-0.563 0-1-0.44-1-1v-1.5-6.5c0-0.563 0.437-1 1-1zm5.5 2-0.02 0.041c-1.662 0-3.334 0.629-4.603 1.897a0.5 0.5 0 0 0 0 0.714l0.719 0.688a0.5 0.5 0 0 0 0.697 0c0.814-0.807 1.935-1.293 3.18-1.293-1.229 0-2.356 0.492-3.166 1.303a0.5 0.5 0 0 0-0.147 0.36 0.5 0.5 0 0 0 0.147 0.35l0.687 0.69a0.5 0.5 0 0 0 0.68 0 0.5 0.5 0 0 0-0.108 0.31 0.5 0.5 0 0 0 0.147 0.36l1.406 1.4a0.5 0.5 0 0 0 0.707 0l1.406-1.4a0.5 0.5 0 0 0 0.145-0.33c1e-3 0 0-0.1 0-0.1l-0.01-0.1h-0.019a0.5 0.5 0 0 0-0.051-0.1 0.5 0.5 0 0 1-0.02-0.01h0.01a0.5 0.5 0 0 1 0.01 0.01 0.5 0.5 0 0 0 0.623-0.01l0.72-0.69a0.5 0.5 0 0 0 0.15-0.34v-0.1-0.1-0.12c0-1e-3 -0.1-0.076-0.1-0.106a0.5 0.5 0 0 0 0.69 0l0.72-0.717a0.5 0.5 0 0 0 0-0.709c-1.22-1.219-2.816-1.809-4.412-1.859a0.5 0.5 0 0 0-0.188-0.039zm0 0.5c1.536 0 3.08 0.579 4.25 1.75l-0.72 0.719c-0.9-0.906-2.154-1.469-3.53-1.469s-2.625 0.539-3.531 1.438l-0.719-0.688c1.171-1.171 2.714-1.75 4.25-1.75zm0 2c1.095 0 2.09 0.438 2.81 1.16l-0.72 0.68c-0.533-0.53-1.266-0.869-2.09-0.869s-1.581 0.339-2.125 0.869l-0.687-0.68c0.719-0.722 1.717-1.16 2.812-1.16zm0 1.98v0.01c0.548 0 1.051 0.21 1.406 0.56l-1.406 1.4-1.406-1.41c0.363-0.35 0.858-0.56 1.406-0.56z" opacity=".3"/>
 <path id="path24" d="m2 3v1h0.5 11 0.5c0-0.554-0.45-1-1-1h-6-5zm6 4c-1.536 0-3.079 0.579-4.25 1.75l0.545 0.521c1.084-0.848 2.397-1.271 3.705-1.271 1.313 0 2.63 0.427 3.72 1.281l0.53-0.531c-1.17-1.171-2.714-1.75-4.25-1.75zm0 2c-1.095 0-2.093 0.438-2.812 1.16l0.552 0.55c0.451-0.31 0.967-0.53 1.526-0.64 0.236-0.06 0.48-0.099 0.734-0.099 0.253 0 0.494 0.039 0.727 0.099 0.554 0.1 1.069 0.32 1.513 0.63l0.57-0.54c-0.72-0.722-1.715-1.16-2.81-1.16zm0 1.98c-0.548 0-1.043 0.21-1.406 0.56l0.603 0.6c0.247-0.1 0.516-0.16 0.803-0.16v0.01c0.284 0 0.555 0.06 0.801 0.16l0.605-0.6c-0.355-0.35-0.858-0.56-1.406-0.56v-0.01zm-7 2.52v1c0 0.83 0.669 1.5 1.5 1.5h5.5 5.5c0.83 0 1.5-0.67 1.5-1.5v-1c0 0.83-0.67 1.5-1.5 1.5h-5.5-5.5c-0.831 0-1.5-0.67-1.5-1.5z" fill="#fff" opacity=".2"/>
 <path id="path31" d="m3 1c-0.554 0-1 0.446-1 1v1c0-0.554 0.446-1 1-1h3c0.554 0 1 0.446 1 1h6 1c0-0.554-0.45-1-1-1h-6c0-0.554-0.446-1-1-1h-3zm-0.5 3c-0.831 0-1.5 0.669-1.5 1.5v1c0-0.831 0.669-1.5 1.5-1.5h11c0.83 0 1.5 0.669 1.5 1.5v-1c0-0.831-0.67-1.5-1.5-1.5h-11zm5.5 4c-1.376 0-2.625 0.539-3.531 1.438l-0.174-0.167c-0.189 0.148-0.371 0.305-0.545 0.479l0.719 0.69c0.906-0.902 2.155-1.44 3.531-1.44s2.63 0.564 3.53 1.47l0.72-0.72c-0.17-0.17-0.35-0.324-0.53-0.469l-0.19 0.188c-0.9-0.906-2.154-1.469-3.53-1.469zm0 2c-0.253 0-0.5 0.03-0.74 0.07-0.53 0.14-1.01 0.4-1.385 0.77l-0.137-0.13c-0.197 0.13-0.382 0.28-0.55 0.45l0.687 0.68c0.544-0.53 1.301-0.87 2.125-0.87s1.557 0.34 2.09 0.87l0.72-0.68c-0.17-0.17-0.36-0.33-0.57-0.46l-0.15 0.14c-0.368-0.37-0.835-0.63-1.358-0.77-0.238-0.04-0.481-0.07-0.732-0.07zm-0.803 2.16c-0.224 0.09-0.43 0.22-0.603 0.39l1.406 1.41 1.406-1.4c-0.17-0.17-0.376-0.3-0.603-0.4l-0.803 0.8-0.803-0.8z" opacity=".3"/>
</svg>
