<?xml version="1.0" encoding="UTF-8"?>
<svg id="svg36" width="16" height="16" version="1.1" xmlns="http://www.w3.org/2000/svg" xmlns:cc="http://creativecommons.org/ns#" xmlns:dc="http://purl.org/dc/elements/1.1/" xmlns:rdf="http://www.w3.org/1999/02/22-rdf-syntax-ns#">
 <metadata id="metadata40">
  <rdf:RDF>
   <cc:Work rdf:about="">
    <dc:format>image/svg+xml</dc:format>
    <dc:type rdf:resource="http://purl.org/dc/dcmitype/StillImage"/>
   </cc:Work>
  </rdf:RDF>
 </metadata>
 <defs id="defs7">
  <radialGradient id="gr0" cx="9" cy="10" r="11" gradientTransform="matrix(1 0 0 .72727 0 2.7273)" gradientUnits="userSpaceOnUse">
   <stop id="stop2" stop-opacity=".23529" offset="0"/>
   <stop id="stop4" stop-opacity=".54902" offset="1"/>
  </radialGradient>
 </defs>
 <path id="path9" d="m3 0c-1.091 0-2 0.9093-2 2v1a1 1 0 0 0 0.168 0.557c-0.6609 0.452-1.168 1.092-1.168 1.943v6.5 1.5c0 1.37 1.132 2.5 2.5 2.5h5.5 5.5c1.37 0 2.5-1.13 2.5-2.5v-1.5-6.5c0-0.852-0.51-1.491-1.17-1.943a1 1 0 0 0 0.17-0.557c0-1.091-0.91-2-2-2h-5.42c-0.357-0.5612-0.877-1-1.58-1h-3zm0 1h3c0.554 0 1 0.446 1 1h6c0.55 0 1 0.446 1 1h-12v-1c0-0.554 0.446-1 1-1zm-0.5 3h11c0.83 0 1.5 0.669 1.5 1.5v6.5 1.5c0 0.83-0.67 1.5-1.5 1.5h-5.5-5.5c-0.831 0-1.5-0.67-1.5-1.5v-1.5-6.5c0-0.831 0.669-1.5 1.5-1.5zm2.5 1v8h6v-5-1l-2-2h-1-3zm1 1h2v2h2v4h-4v-6zm3 0.414 0.586 0.586h-0.586v-0.586z" fill="#fff" opacity=".05"/>
 <path id="base" d="m3 1c-0.554 0-1 0.446-1 1v1h12c0-0.554-0.446-1-1-1h-6c0-0.554-0.446-1-1-1h-3zm-0.5 3c-0.831 0-1.5 0.669-1.5 1.5v8c0 0.831 0.669 1.5 1.5 1.5h11c0.831 0 1.5-0.669 1.5-1.5v-8c0-0.831-0.669-1.5-1.5-1.5h-11zm2.5 1h4l2 2v6h-6v-8zm1 1v6h4v-4h-2v-2h-2z" fill="url(#gr0)"/>
 <path id="path17" d="m3 1c-0.554 0-1 0.446-1 1v1h12c0-0.554-0.45-1-1-1h-6c0-0.554-0.446-1-1-1h-3zm0 0.5h3c0.286 0 0.5 0.214 0.5 0.5a0.5 0.5 0 0 0 0.5 0.5h-4.5v-0.5c0-0.286 0.214-0.5 0.5-0.5zm-0.5 2.5c-0.831 0-1.5 0.669-1.5 1.5v6.5 1.5c0 0.83 0.669 1.5 1.5 1.5h5.5 5.5c0.83 0 1.5-0.67 1.5-1.5v-1.5-6.5c0-0.831-0.67-1.5-1.5-1.5h-11zm0 0.5h2.5a0.5 0.5 0 0 0-0.5 0.5v8a0.5 0.5 0 0 0 0.5 0.5h6a0.5 0.5 0 0 0 0.5-0.5v-5-1a0.5 0.5 0 0 0-0.15-0.354l-1-1-0.996-1a0.5 0.5 0 0 0-0.354-0.146h4.5c0.56 0 1 0.437 1 1v6.5 1.5c0 0.56-0.44 1-1 1h-5.5-5.5c-0.563 0-1-0.44-1-1v-1.5-6.5c0-0.563 0.437-1 1-1zm2.5 0.5h3 1l2 2v1 5h-6v-8zm1 1v6h4v-4h-2v-2h-2zm0.5 0.5h1v1.5a0.5 0.5 0 0 0 0.5 0.5h1.5v3h-3v-5z" opacity=".3"/>
 <path id="path24" d="m2 3v1h0.5 11 0.5c0-0.554-0.45-1-1-1h-6-5zm3 2v1h1 2 1l2 2v-1l-2-2h-4zm1 7v1h4v-1h-4zm-5 1.5v1c0 0.83 0.669 1.5 1.5 1.5h5.5 5.5c0.83 0 1.5-0.67 1.5-1.5v-1c0 0.83-0.67 1.5-1.5 1.5h-5.5-5.5c-0.831 0-1.5-0.67-1.5-1.5z" fill="#fff" opacity=".2"/>
 <path id="path31" d="m3 1c-0.554 0-1 0.446-1 1v1c0-0.554 0.446-1 1-1h3c0.554 0 1 0.446 1 1h6 1c0-0.554-0.45-1-1-1h-6c0-0.554-0.446-1-1-1h-3zm-0.5 3c-0.831 0-1.5 0.669-1.5 1.5v1c0-0.831 0.669-1.5 1.5-1.5h2.5 4 4.5c0.83 0 1.5 0.669 1.5 1.5v-1c0-0.831-0.67-1.5-1.5-1.5h-11zm3.5 2v1h2v-1h-2zm2 2v1h2v-1h-2zm-3 5v1h6v-1h-1-4-1z" opacity=".3"/>
</svg>
