<?xml version="1.0" encoding="UTF-8"?>
<svg id="svg36" width="16" height="16" version="1.1" xmlns="http://www.w3.org/2000/svg" xmlns:cc="http://creativecommons.org/ns#" xmlns:dc="http://purl.org/dc/elements/1.1/" xmlns:rdf="http://www.w3.org/1999/02/22-rdf-syntax-ns#">
 <metadata id="metadata40">
  <rdf:RDF>
   <cc:Work rdf:about="">
    <dc:format>image/svg+xml</dc:format>
    <dc:type rdf:resource="http://purl.org/dc/dcmitype/StillImage"/>
   </cc:Work>
  </rdf:RDF>
 </metadata>
 <defs id="defs7">
  <radialGradient id="gr0" cx="9" cy="10" r="11" gradientTransform="matrix(1 0 0 .72727 0 2.7273)" gradientUnits="userSpaceOnUse">
   <stop id="stop2" stop-opacity=".23529" offset="0"/>
   <stop id="stop4" stop-opacity=".54902" offset="1"/>
  </radialGradient>
 </defs>
 <path id="path9" d="m3 0c-1.091 0-2 0.9093-2 2v1a1 1 0 0 0 0.168 0.557c-0.6609 0.452-1.168 1.092-1.168 1.943v6.5 1.5c0 1.37 1.132 2.5 2.5 2.5h5.5 5.5c1.37 0 2.5-1.13 2.5-2.5v-1.5-6.5c0-0.852-0.51-1.491-1.17-1.943a1 1 0 0 0 0.17-0.557c0-1.091-0.91-2-2-2h-5.42c-0.357-0.5612-0.877-1-1.58-1h-3zm0 1h3c0.554 0 1 0.446 1 1h6c0.55 0 1 0.446 1 1h-12v-1c0-0.554 0.446-1 1-1zm-0.5 3h11c0.83 0 1.5 0.669 1.5 1.5v6.5 1.5c0 0.83-0.67 1.5-1.5 1.5h-5.5-5.5c-0.831 0-1.5-0.67-1.5-1.5v-1.5-6.5c0-0.831 0.669-1.5 1.5-1.5zm3.5 2v4h-1.5l3.5 4 3.5-4h-1.5v-4h-4zm1 1h2v3a1 1 0 0 0 0.445 0.83l-0.447 0.51-0.998 1.14-0.998-1.14-0.447-0.51a1 1 0 0 0 0.445-0.83v-3z" fill="#fff" opacity=".05"/>
 <path id="base" d="m3 1c-0.554 0-1 0.446-1 1v1h12c0-0.554-0.446-1-1-1h-6c0-0.554-0.446-1-1-1h-3zm-0.5 3c-0.831 0-1.5 0.669-1.5 1.5v8c0 0.831 0.669 1.5 1.5 1.5h11c0.831 0 1.5-0.669 1.5-1.5v-8c0-0.831-0.669-1.5-1.5-1.5h-11zm3.5 2h4v4h1.5l-3.5 4-3.5-4h1.5v-4z" fill="url(#gr0)"/>
 <path id="path17" d="m3 1c-0.554 0-1 0.446-1 1v1h12c0-0.554-0.45-1-1-1h-6c0-0.554-0.446-1-1-1h-3zm0 0.5h3c0.286 0 0.5 0.214 0.5 0.5a0.5 0.5 0 0 0 0.5 0.5h-4.5v-0.5c0-0.286 0.214-0.5 0.5-0.5zm-0.5 2.5c-0.831 0-1.5 0.669-1.5 1.5v6.5 1.5c0 0.83 0.669 1.5 1.5 1.5h5.5 5.5c0.83 0 1.5-0.67 1.5-1.5v-1.5-6.5c0-0.831-0.67-1.5-1.5-1.5h-11zm0 0.5h11c0.56 0 1 0.437 1 1v6.5 1.5c0 0.56-0.44 1-1 1h-5.473a0.5 0.5 0 0 0 0.35-0.17l1.753-2 1.75-2a0.5 0.5 0 0 0-0.38-0.83h-1v-3.5a0.5 0.5 0 0 0-0.5-0.5h-4a0.5 0.5 0 0 0-0.5 0.5v3.5h-1a0.5 0.5 0 0 0-0.377 0.83l3.5 4a0.5 0.5 0 0 0 0.354 0.17h-5.477c-0.563 0-1-0.44-1-1v-1.5-6.5c0-0.563 0.437-1 1-1zm3.5 1.5h4v4h1.5l-3.5 4-3.5-4h1.5v-4z" opacity=".3"/>
 <path id="path24" d="m2 3v1h0.5 11 0.5c0-0.554-0.45-1-1-1h-6-5zm4 3v1h4v-1h-4zm-1.5 4 0.875 1h0.625v-1h-1.5zm5.5 0v1h0.62l0.88-1h-1.5zm-9 3.5v1c0 0.83 0.669 1.5 1.5 1.5h5.5 5.5c0.83 0 1.5-0.67 1.5-1.5v-1c0 0.83-0.67 1.5-1.5 1.5h-5.5-5.5c-0.831 0-1.5-0.67-1.5-1.5z" fill="#fff" opacity=".2"/>
 <path id="path31" d="m3 1c-0.554 0-1 0.446-1 1v1c0-0.554 0.446-1 1-1h3c0.554 0 1 0.446 1 1h6 1c0-0.554-0.45-1-1-1h-6c0-0.554-0.446-1-1-1h-3zm-0.5 3c-0.831 0-1.5 0.669-1.5 1.5v1c0-0.831 0.669-1.5 1.5-1.5h11c0.83 0 1.5 0.669 1.5 1.5v-1c0-0.831-0.67-1.5-1.5-1.5h-11zm2 7 3.5 4 3.5-4h-0.88l-0.87 1-1.75 2-2.625-3h-0.875z" opacity=".3"/>
</svg>
