<?xml version="1.0" encoding="UTF-8"?>
<svg id="svg23" width="16" height="16" version="1.1" xmlns="http://www.w3.org/2000/svg" xmlns:cc="http://creativecommons.org/ns#" xmlns:dc="http://purl.org/dc/elements/1.1/" xmlns:rdf="http://www.w3.org/1999/02/22-rdf-syntax-ns#">
 <metadata id="metadata27">
  <rdf:RDF>
   <cc:Work rdf:about="">
    <dc:format>image/svg+xml</dc:format>
    <dc:type rdf:resource="http://purl.org/dc/dcmitype/StillImage"/>
   </cc:Work>
  </rdf:RDF>
 </metadata>
 <defs id="defs7">
  <linearGradient id="gr0" x1="8" x2="8" y1="1" y2="15" gradientUnits="userSpaceOnUse">
   <stop id="stop2" stop-color="#ebebeb" offset="0"/>
   <stop id="stop4" stop-color="#aaa" offset="1"/>
  </linearGradient>
 </defs>
 <path id="path9" d="m3 0c-1.0907 0-2 0.9093-2 2v1a1 1.0001 0 0 0 0.16797 0.55664c-0.66087 0.45265-1.168 1.0922-1.168 1.9434v8c0 1.3677 1.1323 2.5 2.5 2.5h11c1.3677 0 2.5-1.1323 2.5-2.5v-8c0-0.85179-0.50822-1.4908-1.1699-1.9434a1.0001 1.0001 0 0 0 0.16992-0.55664c0-1.0907-0.9093-2-2-2h-5.4199c-0.35725-0.56123-0.8766-1-1.5801-1zm3.7832 6c0.26688-0.00412 0.44174 0.15362 0.63672 0.23047l-0.34961 1.2109c-0.33888-0.1254-0.69451-0.24483-1.1289-0.24805-0.14086-0.00111-0.29829 0.090578-0.43945 0.10547l0.30273-1.0469c0.3717-0.11759 0.76643-0.24868 0.97852-0.25195zm3.2715 1.3125c0.21882 0.079084 0.34579 0.21739 0.60352 0.25391 0.26904 0.038118 0.64614-0.13852 0.94531-0.16211l-0.33789 1.168c-0.49029 0.16013-0.95747 0.29299-1.2285 0.25391-0.13203-0.019038-0.25275-0.11974-0.37305-0.16602zm-4.332 2.9238c0.26718-0.0065 0.41893 0.14195 0.59766 0.20703l-0.37305 1.3066c-0.2148-0.08014-0.33564-0.21422-0.58984-0.25391-0.2777-0.04335-0.66925 0.13664-0.98047 0.16016l0.2832-1.0176h-0.72656a1.0001 1.0001 0 0 0 0.38086-0.07617c0.6038-0.24884 1.0462-0.31736 1.4082-0.32617zm3.2305 1.2539c0.20853 0.07572 0.33068 0.20731 0.57422 0.24609 0.27993 0.04458 0.68233-0.10875 0.99805-0.12695l-0.32422 1.1211c-0.51702 0.15728-1.0131 0.28929-1.2832 0.25195-0.12704-0.01756-0.23889-0.11462-0.35156-0.15625z" opacity=".25"/>
 <path id="base" d="m3 1c-0.554 0-1 0.446-1 1v1h12c0-0.554-0.446-1-1-1h-6c0-0.554-0.446-1-1-1h-3zm-0.5 3c-0.831 0-1.5 0.669-1.5 1.5v8c0 0.831 0.669 1.5 1.5 1.5h11c0.831 0 1.5-0.669 1.5-1.5v-8c0-0.831-0.669-1.5-1.5-1.5h-11zm4.2676 1c0.80066-0.012361 1.3527 0.29187 1.8652 0.63867l-0.93359 3.2285c-0.49361-0.33272-1.011-0.66824-1.7656-0.67383-0.49768-0.0039158-1.1147 0.15982-1.8672 0.4707l0.93359-3.2266c0.70982-0.29371 1.2872-0.43009 1.7676-0.4375zm2.6328 0.97461c0.81832 0.55157 1.7093 0.98469 3.5996 0.20312l-0.93359 3.2266c-1.8123 0.81124-2.7819 0.35356-3.5996-0.20117l0.93359-3.2285zm-3.7012 3.2617c0.79998-0.019472 1.3229 0.25829 1.834 0.60547l-0.93359 3.2598c-0.82073-0.55218-1.7056-1.0179-3.5996-0.23437l0.90039-3.2285h0.033203c0.70745-0.29156 1.2856-0.39066 1.7656-0.40234zm2.6016 0.9082c0.82013 0.55202 1.672 0.9602 3.5996 0.30078l-0.90039 3.127c-1.892 0.78292-2.8136 0.35462-3.6328-0.20117l0.93359-3.2266z" fill="url(#gr0)"/>
 <path id="path13" d="m3 1c-0.554 0-1 0.446-1 1v1c0-0.554 0.446-1 1-1h3c0.554 0 1 0.446 1 1h6 1c0-0.554-0.446-1-1-1h-6c0-0.554-0.446-1-1-1h-3zm-0.5 3c-0.831 0-1.5 0.669-1.5 1.5v1c0-0.831 0.669-1.5 1.5-1.5h4.2676 6.7324c0.831 0 1.5 0.669 1.5 1.5v-1c0-0.831-0.669-1.5-1.5-1.5h-11zm5.8887 2.4844-0.68945 2.3828c-0.49361-0.33272-1.011-0.66824-1.7656-0.67383-0.42029-0.0033105-0.94664 0.13786-1.5469 0.36133l-0.29883 1.0352c0.38141-0.14521 0.72072-0.23349 1.0293-0.2832 0.3015-0.075521 0.5736-0.11519 0.81641-0.11328 0.7546 0.00559 1.272 0.34111 1.7656 0.67383l0.93359-3.2285c-0.079403-0.05373-0.16206-0.10363-0.24414-0.1543zm4.6113 0.69336c-0.11462 0.047393-0.21478 0.07653-0.32227 0.11523l-0.61133 2.1113c-1.6399 0.73406-2.5798 0.41901-3.3516-0.056641l-0.24805 0.85547c0.26588 0.18038 0.55129 0.34528 0.87305 0.46484 0.61202 0.18215 1.3856 0.17927 2.5605-0.22266l-0.007813 0.025391c0.059516-0.024626 0.1124-0.03891 0.17383-0.066406l0.93359-3.2266zm-5.709 3.5117-0.69141 2.4121c-0.77276-0.5199-1.6138-0.94968-3.2891-0.3457l-0.31055 1.1113c1.894-0.78353 2.7789-0.3178 3.5996 0.23437l0.93359-3.2598c-0.079364-0.053911-0.16126-0.10263-0.24219-0.15234zm4.6094 0.75586c-0.11252 0.038493-0.20906 0.06235-0.31445 0.09375l-0.58594 2.0332c-1.7105 0.70783-2.6192 0.41473-3.3848-0.056641l-0.24805 0.85547c0.512 0.34737 1.0633 0.64572 1.8672 0.62891 0.48235-0.010089 1.0561-0.13414 1.7656-0.42773l0.90039-3.127z" fill="#fff" opacity=".6"/>
 <path id="path18" d="m2 3v1h0.5 11 0.5c0-0.554-0.446-1-1-1h-6-5zm4.7676 2c-0.4804 0.00741-1.0578 0.14379-1.7676 0.4375l-0.93359 3.2266c0.11702-0.048343 0.20979-0.068226 0.32031-0.10938l0.61328-2.1172c0.70982-0.29371 1.2872-0.43009 1.7676-0.4375 0.67661-0.010446 1.1734 0.20801 1.6211 0.48438l0.24414-0.8457c-0.5125-0.3468-1.0646-0.65103-1.8652-0.63867zm2.6328 0.97461-0.93359 3.2285c0.077792 0.052775 0.16691 0.094522 0.24805 0.14453l0.68555-2.373c0.7687 0.51812 1.6123 0.91794 3.2773 0.31836l0.32227-1.1152c-1.8903 0.78157-2.7813 0.34844-3.5996-0.20312zm-3.7012 3.2617c-0.17531 0.0042659-0.37902 0.037607-0.58203 0.070312-0.31647 0.079272-0.66541 0.19822-1.0508 0.35742l0.021484-0.074219c-0.054714 0.02083-0.097959 0.02561-0.1543 0.048828h-0.033203l-0.90039 3.2285c0.1107-0.045798 0.20655-0.073835 0.31055-0.11133l0.58984-2.1172h0.033203c0.70745-0.29156 1.2856-0.39066 1.7656-0.40234 0.67576-0.016447 1.1516 0.18271 1.5918 0.45312l0.24219-0.84766c-0.5111-0.34718-1.034-0.62494-1.834-0.60547zm2.6016 0.9082-0.93359 3.2266c0.078565 0.053303 0.16683 0.094529 0.24805 0.14453l0.68555-2.3711c0.77226 0.5198 1.585 0.90106 3.2852 0.39453l0.30664-1.0684c-1.1255 0.46569-1.9185 0.43295-2.5527 0.19727-0.39208-0.11669-0.71882-0.30789-1.0391-0.52344zm-7.3008 3.3555v1c0 0.831 0.669 1.5 1.5 1.5h5.5 5.5c0.831 0 1.5-0.669 1.5-1.5v-1c0 0.831-0.669 1.5-1.5 1.5h-4.2656-1.2344-5.5c-0.831 0-1.5-0.669-1.5-1.5z" opacity=".45"/>
</svg>
