<?xml version="1.0" encoding="UTF-8"?>
<svg id="svg23" width="16" height="16" version="1.1" xmlns="http://www.w3.org/2000/svg" xmlns:cc="http://creativecommons.org/ns#" xmlns:dc="http://purl.org/dc/elements/1.1/" xmlns:rdf="http://www.w3.org/1999/02/22-rdf-syntax-ns#">
 <metadata id="metadata27">
  <rdf:RDF>
   <cc:Work rdf:about="">
    <dc:format>image/svg+xml</dc:format>
    <dc:type rdf:resource="http://purl.org/dc/dcmitype/StillImage"/>
   </cc:Work>
  </rdf:RDF>
 </metadata>
 <defs id="defs7">
  <linearGradient id="gr0" x1="8" x2="8" y1="1" y2="15" gradientUnits="userSpaceOnUse">
   <stop id="stop2" stop-color="#ebebeb" offset="0"/>
   <stop id="stop4" stop-color="#aaa" offset="1"/>
  </linearGradient>
 </defs>
 <path id="path9" d="m3 0c-1.0907 0-2 0.9093-2 2v1a1 1.0001 0 0 0 0.16797 0.55664c-0.66087 0.45265-1.168 1.0922-1.168 1.9434v8c0 1.3677 1.1323 2.5 2.5 2.5h11c1.3677 0 2.5-1.1323 2.5-2.5v-8c0-0.85179-0.50822-1.4908-1.1699-1.9434a1.0001 1.0001 0 0 0 0.16992-0.55664c0-1.0907-0.9093-2-2-2h-5.4199c-0.35725-0.56123-0.8766-1-1.5801-1zm4 7h2v3a1.0001 1.0001 0 0 0 0.44531 0.83203l-0.44727 0.50977-0.99805 1.1406-0.99805-1.1406-0.44727-0.50977a1.0001 1.0001 0 0 0 0.44531-0.83203z" opacity=".25"/>
 <path id="base" d="m3 1c-0.554 0-1 0.446-1 1v1h12c0-0.554-0.446-1-1-1h-6c0-0.554-0.446-1-1-1h-3zm-0.5 3c-0.831 0-1.5 0.669-1.5 1.5v8c0 0.831 0.669 1.5 1.5 1.5h11c0.831 0 1.5-0.669 1.5-1.5v-8c0-0.831-0.669-1.5-1.5-1.5h-11zm3.5 2h4v4h1.5l-3.5 4-3.5-4h1.5v-4z" fill="url(#gr0)"/>
 <path id="path13" d="m3 1c-0.554 0-1 0.446-1 1v1c0-0.554 0.446-1 1-1h3c0.554 0 1 0.446 1 1h6 1c0-0.554-0.446-1-1-1h-6c0-0.554-0.446-1-1-1h-3zm-0.5 3c-0.831 0-1.5 0.669-1.5 1.5v1c0-0.831 0.669-1.5 1.5-1.5h11c0.831 0 1.5 0.669 1.5 1.5v-1c0-0.831-0.669-1.5-1.5-1.5h-11zm2 7 3.5 4 3.5-4h-0.875l-2.625 3-2.625-3h-0.875z" fill="#fff" opacity=".6"/>
 <path id="path18" d="m2 3v1h0.5 11 0.5c0-0.554-0.446-1-1-1h-6-5zm4 3v1h4v-1h-4zm-1.5 4 0.875 1h0.625v-1h-1.5zm5.5 0v1h0.625l0.875-1h-1.5zm-9 3.5v1c0 0.831 0.669 1.5 1.5 1.5h5.5 5.5c0.831 0 1.5-0.669 1.5-1.5v-1c0 0.831-0.669 1.5-1.5 1.5h-5.5-5.5c-0.831 0-1.5-0.669-1.5-1.5z" opacity=".45"/>
</svg>
