<?xml version="1.0" encoding="UTF-8"?>
<svg id="svg23" width="16" height="16" version="1.1" xmlns="http://www.w3.org/2000/svg" xmlns:cc="http://creativecommons.org/ns#" xmlns:dc="http://purl.org/dc/elements/1.1/" xmlns:rdf="http://www.w3.org/1999/02/22-rdf-syntax-ns#">
 <metadata id="metadata27">
  <rdf:RDF>
   <cc:Work rdf:about="">
    <dc:format>image/svg+xml</dc:format>
    <dc:type rdf:resource="http://purl.org/dc/dcmitype/StillImage"/>
   </cc:Work>
  </rdf:RDF>
 </metadata>
 <defs id="defs7">
  <linearGradient id="gr0" x1="8" x2="8" y1="1" y2="15" gradientUnits="userSpaceOnUse">
   <stop id="stop2" stop-color="#ebebeb" offset="0"/>
   <stop id="stop4" stop-color="#aaa" offset="1"/>
  </linearGradient>
 </defs>
 <path id="path9" d="m3 0c-1.0907 0-2 0.9093-2 2v1a1 1.0001 0 0 0 0.16797 0.55664c-0.66087 0.45265-1.168 1.0922-1.168 1.9434v8c0 1.3677 1.1323 2.5 2.5 2.5h11c1.3677 0 2.5-1.1323 2.5-2.5v-8c0-0.85179-0.50822-1.4908-1.1699-1.9434a1.0001 1.0001 0 0 0 0.16992-0.55664c0-1.0907-0.9093-2-2-2h-5.4199c-0.35725-0.56123-0.8766-1-1.5801-1zm6 6.4141 0.58594 0.58594h-0.58594z" opacity=".25"/>
 <path id="base" d="m3 1c-0.554 0-1 0.446-1 1v1h12c0-0.554-0.446-1-1-1h-6c0-0.554-0.446-1-1-1h-3zm-0.5 3c-0.831 0-1.5 0.669-1.5 1.5v8c0 0.831 0.669 1.5 1.5 1.5h11c0.831 0 1.5-0.669 1.5-1.5v-8c0-0.831-0.669-1.5-1.5-1.5h-11zm2.5 1h4l2 2v6h-6v-8zm1 1v6h4v-4h-2v-2h-2z" fill="url(#gr0)"/>
 <path id="path13" d="m3 1c-0.554 0-1 0.446-1 1v1c0-0.554 0.446-1 1-1h3c0.554 0 1 0.446 1 1h6 1c0-0.554-0.446-1-1-1h-6c0-0.554-0.446-1-1-1h-3zm-0.5 3c-0.831 0-1.5 0.669-1.5 1.5v1c0-0.831 0.669-1.5 1.5-1.5h2.5 4 4.5c0.831 0 1.5 0.669 1.5 1.5v-1c0-0.831-0.669-1.5-1.5-1.5h-11zm3.5 2v1h2v-1h-2zm2 2v1h2v-1h-2zm-3 5v1h6v-1h-1-4-1z" fill="#fff" opacity=".6"/>
 <path id="path18" d="m2 3v1h0.5 11 0.5c0-0.554-0.446-1-1-1h-6-5zm3 2v1h1 2 1l2 2v-1l-2-2h-4zm1 7v1h4v-1h-4zm-5 1.5v1c0 0.831 0.669 1.5 1.5 1.5h5.5 5.5c0.831 0 1.5-0.669 1.5-1.5v-1c0 0.831-0.669 1.5-1.5 1.5h-5.5-5.5c-0.831 0-1.5-0.669-1.5-1.5z" opacity=".45"/>
</svg>
