<?xml version="1.0" encoding="UTF-8"?>
<svg id="svg23" width="16" height="16" version="1.1" xmlns="http://www.w3.org/2000/svg" xmlns:cc="http://creativecommons.org/ns#" xmlns:dc="http://purl.org/dc/elements/1.1/" xmlns:rdf="http://www.w3.org/1999/02/22-rdf-syntax-ns#">
 <metadata id="metadata27">
  <rdf:RDF>
   <cc:Work rdf:about="">
    <dc:format>image/svg+xml</dc:format>
    <dc:type rdf:resource="http://purl.org/dc/dcmitype/StillImage"/>
   </cc:Work>
  </rdf:RDF>
 </metadata>
 <defs id="defs7">
  <linearGradient id="gr0" x1="8" x2="8" y1="1" y2="15" gradientUnits="userSpaceOnUse">
   <stop id="stop2" stop-color="#ebebeb" offset="0"/>
   <stop id="stop4" stop-color="#aaa" offset="1"/>
  </linearGradient>
 </defs>
 <path id="path9" d="m3 0c-1.0907 0-2 0.9093-2 2v1a1 1.0001 0 0 0 0.16797 0.55664c-0.66087 0.45265-1.168 1.0922-1.168 1.9434v8c0 1.3677 1.1323 2.5 2.5 2.5h11c1.3677 0 2.5-1.1323 2.5-2.5v-8c0-0.85179-0.50822-1.4908-1.1699-1.9434a1.0001 1.0001 0 0 0 0.16992-0.55664c0-1.0907-0.9093-2-2-2h-5.4199c-0.35725-0.56123-0.8766-1-1.5801-1zm4.2793 6.9746a1.0001 1.0001 0 0 0 0.44141 0c-0.058375 0.18613-0.2207 0.3217-0.2207 0.52539 0 1.0927 0.90727 2 2 2 0.20369 0 0.33926-0.16233 0.52539-0.2207a1.0001 1.0001 0 0 0-0.02539 0.2207v0.90625a1.0001 1.0001 0 0 0 0.1543 0.53125 1.0001 1.0001 0 0 0-0.1543 0.53125v0.53125h-4v-2.0625a1.0001 1.0001 0 0 0-0.17969-0.57227c0.92288-0.17455 1.6797-0.89672 1.6797-1.8652 0-0.20369-0.16233-0.33926-0.2207-0.52539zm4.752 3.9336v0.05078l-0.03711-0.02539z" opacity=".25"/>
 <path id="base" d="m3 1c-0.554 0-1 0.446-1 1v1h12c0-0.554-0.446-1-1-1h-6c0-0.554-0.446-1-1-1h-3zm-0.5 3c-0.831 0-1.5 0.669-1.5 1.5v8c0 0.831 0.669 1.5 1.5 1.5h11c0.831 0 1.5-0.669 1.5-1.5v-8c0-0.831-0.669-1.5-1.5-1.5h-11zm3 1c0.8215 0 1.5443 0.3882 2 1 0.4557-0.6118 1.1785-1 2-1 1.381 0 2.5 1.1193 2.5 2.5 0 0.8215-0.388 1.5443-1 2v0.90625l2.0312-1.4062v3.8438l-2.0312-1.375v1.0312c0 0.277-0.223 0.5-0.5 0.5h-5c-0.277 0-0.5-0.223-0.5-0.5v-2.5625c-1.1392-0.2331-2-1.2294-2-2.4375 0-1.3807 1.1193-2.5 2.5-2.5zm0 1.5c-0.55228 0-1 0.44772-1 1s0.44772 1 1 1 1-0.44772 1-1-0.44772-1-1-1zm4 0c-0.55228 0-1 0.44772-1 1s0.44772 1 1 1 1-0.44772 1-1-0.44772-1-1-1z" fill="url(#gr0)"/>
 <path id="path13" d="m3 1c-0.554 0-1 0.446-1 1v1c0-0.554 0.446-1 1-1h3c0.554 0 1 0.446 1 1h6 1c0-0.554-0.446-1-1-1h-6c0-0.554-0.446-1-1-1h-3zm-0.5 3c-0.831 0-1.5 0.669-1.5 1.5v1c0-0.831 0.669-1.5 1.5-1.5h3 4 4c0.831 0 1.5 0.669 1.5 1.5v-1c0-0.831-0.669-1.5-1.5-1.5h-11zm3 2.5c-0.55228 0-1 0.44772-1 1 0 0.18617 0.063739 0.35074 0.15234 0.5 0.17425-0.29353 0.48155-0.5 0.84766-0.5s0.67341 0.20647 0.84766 0.5c0.088605-0.14926 0.15234-0.31383 0.15234-0.5 0-0.55228-0.44772-1-1-1zm4 0c-0.55228 0-1 0.44772-1 1 0 0.18617 0.063739 0.35074 0.15234 0.5 0.17425-0.29353 0.48155-0.5 0.84766-0.5s0.67341 0.20647 0.84766 0.5c0.088605-0.14926 0.15234-0.31383 0.15234-0.5 0-0.55228-0.44772-1-1-1zm2.4434 1.4785c-0.11926 0.61941-0.45426 1.1573-0.94336 1.5215v0.90625l0.38086-0.26367c0.38528-0.43865 0.61914-1.01 0.61914-1.6426 0-0.1791-0.020854-0.35306-0.056641-0.52148zm-8.8906 0.011719c-0.034124 0.16464-0.052734 0.33501-0.052734 0.50977 0 1.2081 0.8608 2.2044 2 2.4375v-1c-0.98005-0.20054-1.7501-0.9681-1.9473-1.9473zm7.9473 3.4785v1l2.0312 1.375v-1l-2.0312-1.375zm-6 1.0312v1c0 0.277 0.223 0.5 0.5 0.5h5c0.277 0 0.5-0.223 0.5-0.5v-1c0 0.277-0.223 0.5-0.5 0.5h-5c-0.277 0-0.5-0.223-0.5-0.5z" fill="#fff" opacity=".6"/>
 <path id="path18" d="m2 3v1h0.5 11 0.5c0-0.554-0.446-1-1-1h-6-5zm3.5 2c-1.3807 0-2.5 1.1193-2.5 2.5 0 0.16877 0.020723 0.33123 0.052734 0.49023 0.23548-1.1361 1.2413-1.9902 2.4473-1.9902 0.8215 0 1.5443 0.3882 2 1 0.4557-0.6118 1.1785-1 2-1 1.2019 0 2.2033 0.84849 2.4434 1.9785 0.029969-0.15565 0.056641-0.31354 0.056641-0.47852 0-1.3807-1.119-2.5-2.5-2.5-0.8215 0-1.5443 0.3882-2 1-0.4557-0.6118-1.1785-1-2-1zm-0.84766 3c-0.088605 0.14926-0.15234 0.31383-0.15234 0.5 0 0.55228 0.44772 1 1 1s1-0.44772 1-1c0-0.18617-0.063739-0.35074-0.15234-0.5-0.17425 0.29353-0.48155 0.5-0.84766 0.5s-0.67341-0.20647-0.84766-0.5zm4 0c-0.088605 0.14926-0.15234 0.31383-0.15234 0.5 0 0.55228 0.44772 1 1 1s1-0.44772 1-1c0-0.18617-0.063739-0.35074-0.15234-0.5-0.17425 0.29353-0.48154 0.5-0.84766 0.5s-0.67341-0.20647-0.84766-0.5zm4.3789 1-1.6504 1.1426c-0.11504 0.13097-0.24014 0.25264-0.38086 0.35742v0.90625l2.0312-1.4062v-1zm-12.031 4.5v1c0 0.831 0.669 1.5 1.5 1.5h5.5 5.5c0.831 0 1.5-0.669 1.5-1.5v-1c0 0.831-0.669 1.5-1.5 1.5h-5.5-5.5c-0.831 0-1.5-0.669-1.5-1.5z" opacity=".45"/>
</svg>
