<?xml version="1.0" encoding="UTF-8"?>
<svg id="svg2408" width="96" height="96" version="1.0" xmlns="http://www.w3.org/2000/svg" xmlns:cc="http://creativecommons.org/ns#" xmlns:dc="http://purl.org/dc/elements/1.1/" xmlns:rdf="http://www.w3.org/1999/02/22-rdf-syntax-ns#" xmlns:xlink="http://www.w3.org/1999/xlink">
 <defs id="defs2410">
  <linearGradient id="linearGradient3361" x1="48.036" x2="48.036" y1="25.911" y2="85.821" gradientTransform="scale(1.0599 .94353)" gradientUnits="userSpaceOnUse">
   <stop id="stop3319" stop-color="#c6953a" offset="0"/>
   <stop id="stop3321" stop-color="#ab7a1f" offset="1"/>
  </linearGradient>
  <linearGradient id="ButtonShadow" x1="45.448" x2="45.448" y1="80.472" y2="7.0165" gradientTransform="matrix(1.0059 0 0 .99417 0 12)" gradientUnits="userSpaceOnUse">
   <stop id="stop3750" offset="0"/>
   <stop id="stop3752" stop-opacity=".58824" offset="1"/>
  </linearGradient>
  <linearGradient id="linearGradient3706" x1="48" x2="48" y1="78" y2="5.9877" gradientTransform="translate(0,8)" gradientUnits="userSpaceOnUse">
   <stop id="stop3189" stop-color="#c29656" offset="0"/>
   <stop id="stop3191" stop-color="#ddc08b" offset="1"/>
  </linearGradient>
  <filter id="filter3174" color-interpolation-filters="sRGB">
   <feGaussianBlur id="feGaussianBlur3176" stdDeviation="1.71"/>
  </filter>
  <linearGradient id="linearGradient3664" x1="45.448" x2="45.448" y1="80.472" y2="5.2972" gradientTransform="matrix(1.0059 0 0 .99417 0 12)" gradientUnits="userSpaceOnUse" xlink:href="#ButtonShadow"/>
  <clipPath id="clipPath3860">
   <rect id="rect3862" x="6" y="18" width="84" height="72" rx="6" ry="6" fill="#f0f"/>
  </clipPath>
  <filter id="filter3870" x="-.16559" y="-.19716" width="1.3312" height="1.3943" color-interpolation-filters="sRGB">
   <feGaussianBlur id="feGaussianBlur3872" stdDeviation="5.1703125"/>
  </filter>
  <linearGradient id="linearGradient3699">
   <stop id="stop3701" stop-color="#aa7932" stop-opacity=".78431" offset="0"/>
   <stop id="stop3703" stop-color="#aa7932" stop-opacity=".39216" offset="1"/>
  </linearGradient>
  <linearGradient id="linearGradient3077" x1="90" x2="48" y1="88" y2="88" gradientUnits="userSpaceOnUse" spreadMethod="reflect">
   <stop id="stop3894" stop-opacity=".58824" offset="0"/>
   <stop id="stop3896" stop-opacity=".47059" offset=".1178"/>
   <stop id="stop3898" stop-opacity=".39216" offset=".2381"/>
   <stop id="stop3900" stop-opacity=".31373" offset="1"/>
  </linearGradient>
  <linearGradient id="linearGradient3094" x1="48" x2="48" y1="75.083" y2="-40" gradientTransform="matrix(1,0,0,-1,0,92)" gradientUnits="userSpaceOnUse">
   <stop id="stop4386" stop-color="#fff" offset="0"/>
   <stop id="stop4388" stop-color="#fff" stop-opacity="0" offset="1"/>
  </linearGradient>
  <linearGradient id="linearGradient3123" x1="48.022" x2="48.022" y1="22.933" y2="81.481" gradientUnits="userSpaceOnUse">
   <stop id="stop3876" stop-color="#fff" offset="0"/>
   <stop id="stop3878" stop-color="#fff" stop-opacity="0" offset="1"/>
  </linearGradient>
  <linearGradient id="linearGradient3105" x1="34.86" x2="34.86" y1="16.275" y2="26.987" gradientTransform="matrix(.72 0 0 .72 1.92 -5.52)" gradientUnits="userSpaceOnUse">
   <stop id="stop4010" stop-color="#dab980" offset="0"/>
   <stop id="stop4012" stop-color="#c29856" offset=".71692"/>
   <stop id="stop4014" stop-color="#a2773a" offset="1"/>
  </linearGradient>
  <linearGradient id="linearGradient3952" x1="43" x2="43" y1="91" y2="7" gradientUnits="userSpaceOnUse" xlink:href="#ButtonShadow"/>
  <linearGradient id="linearGradient3961" x1="45" x2="45" y1="92" y2="7" gradientUnits="userSpaceOnUse" xlink:href="#ButtonShadow"/>
  <linearGradient id="linearGradient3098" x1="48" x2="48" y1="76" y2="27.531" gradientTransform="translate(0,-2)" gradientUnits="userSpaceOnUse" xlink:href="#linearGradient3699"/>
 </defs>
 <metadata id="metadata2413">
  <rdf:RDF>
   <cc:Work rdf:about="">
    <dc:format>image/svg+xml</dc:format>
    <dc:type rdf:resource="http://purl.org/dc/dcmitype/StillImage"/>
    <dc:title/>
   </cc:Work>
  </rdf:RDF>
 </metadata>
 <g id="layer2" display="none">
  <path id="rect3745" d="m14.969 8.8029c-1.6398 0-2.9688 1.2823-2.9688 2.875v7.3221c-3.324 0-7 2.676-7 6v61c0 3.324 2.676 6 6 6h74c3.324 0 6-2.676 6-6v-61c0-3.324-3.7474-6-7.0714-6v-0.13461c0-2.3891-1.9777-4.3125-4.4375-4.3125h-43.335l-1.4688-2.875c-0.73336-1.4246-1.3289-2.875-2.9688-2.875h-16.75z" fill="url(#linearGradient3664)" filter="url(#filter3174)" opacity=".9"/>
 </g>
 <g id="layer4">
  <path id="path3984" d="m14.125 4c-4.4339 0-8.125 3.5684-8.125 8v2.1562c-2.3764 1.8021-4 4.6028-4 7.8438v63c0 5.5036 4.4964 10 10 10h72c5.5036 0 10-4.4964 10-10v-63c0-3.4834-1.8534-6.4531-4.5312-8.2188-0.9872-3.2895-3.9427-5.7812-7.5938-5.7812h-39.5c-1.4026-1.3548-2.5397-2.5096-3.6875-3.1562-1.4952-0.84233-2.9309-0.81421-3.8125-0.84375a0.9278 0.9278 0 0 0-0.03125 0c-0.0012-1.73e-5 -0.03009-1.73e-5 -0.03125 0h-0.03125-20.656z" fill="url(#linearGradient3961)" opacity=".08"/>
  <path id="path3975" d="m14.125 4.9375c-3.9406 0-7.1875 3.1433-7.1875 7.0625v2.5938c-2.3826 1.6221-4 4.2939-4 7.4062v63c0 5.0014 4.0611 9.0625 9.0625 9.0625h72c5.0014 0 9.0625-4.0611 9.0625-9.0625v-63c0-3.2608-1.7732-6.0397-4.3438-7.625-0.76119-3.0957-3.4773-5.4375-6.8438-5.4375h-39.812c-1.5975-1.5412-2.7721-2.6775-3.8438-3.2812-1.2732-0.71724-2.4475-0.68767-3.375-0.71875a1.0438 1.0438 0 0 0-0.03125 0h-0.03125-20.656z" fill="url(#linearGradient3961)" opacity=".1"/>
  <path id="path3967" d="m14.125 5.9688c-3.3887 0-6.1562 2.688-6.1562 6.0312v3.125c-2.3751 1.394-4 3.9205-4 6.875v63c0 4.4381 3.5931 8.0312 8.0312 8.0312h72c4.4381 0 8.0312-3.5931 8.0312-8.0312v-63c0-3.032-1.7122-5.6044-4.1875-6.9688-0.49189-2.8596-2.9286-5.0625-5.9688-5.0625h-40.188c-1.8348-1.7748-3.0086-2.8654-3.9688-3.4062-1.0373-0.58435-1.9404-0.56139-2.9062-0.59375a1.0438 1.0438 0 0 0-0.03125 0h-20.656z" fill="url(#linearGradient3961)" opacity=".2"/>
  <path id="path3908-1" d="m14.125 7c-2.8429 0-5.125 2.23-5.125 5v3.6875c-2.3641 1.1214-4 3.5128-4 6.3125v63c0 3.878 3.122 7 7 7h72c3.878 0 7-3.122 7-7v-63c0-2.8097-1.6534-5.1964-4.0312-6.3125-0.16965-2.6184-2.3622-4.6875-5.0938-4.6875h-40.594c-4.2205-4.1123-4.5028-3.9331-6.5-4h-20.656z" fill="url(#linearGradient3961)" opacity=".3"/>
  <path id="path3941" d="m15 7c-2.77 0-5 2.23-5 5v3.3438c-2.3335 0.82091-4 3.0351-4 5.6562v64c0 3.324 2.676 6 6 6h72c3.324 0 6-2.676 6-6v-64c0-2.6419-1.6999-4.8512-4.0625-5.6562-0.32604-2.4503-2.3952-4.3438-4.9375-4.3438h-40.531c-4.1123-4.1123-4.3665-3.9331-6.3125-4h-19.156z" fill="url(#linearGradient3952)" opacity=".45"/>
 </g>
 <g id="layer3">
  <rect id="rect3352" x="10.536" y="23.143" width="75" height="62.679" rx="6" ry="6" fill="url(#linearGradient3361)"/>
  <path id="path3908" d="m15 6c-2.77 0-5 2.23-5 5v59.812c0 2.3933 1.9192 4.3125 4.3125 4.3125h67.375c2.3933 0 4.3125-1.9192 4.3125-4.3125v-55.812c0-2.77-2.23-5-5-5h-40.531c-4.1123-4.1123-4.3665-3.9331-6.3125-4z" fill="url(#linearGradient3105)"/>
  <path id="path3108" d="m15 6c-2.77 0-5 2.23-5 5v59.812c0 2.3933 1.9192 4.3125 4.3125 4.3125h67.375c2.3933 0 4.3125-1.9192 4.3125-4.3125v-55.812c0-2.77-2.23-5-5-5h-40.531c-4.1123-4.1123-4.3665-3.9331-6.3125-4h-19.156zm0 1.0312h19.125 0.03125c0.96498 0.031157 1.1925-0.016972 1.8125 0.34375 0.63029 0.36673 1.7068 1.3318 3.75 3.375a1.0438 1.0438 0 0 0 0.75 0.28125h40.531c2.2099 0 3.9688 1.7589 3.9688 3.9688v55.812c0 1.8353-1.4459 3.2812-3.2812 3.2812h-67.375c-1.8353 0-3.2812-1.4459-3.2812-3.2812v-59.812c0-2.2099 1.7589-3.9688 3.9688-3.9688z" fill="#fff" opacity=".2"/>
 </g>
 <g id="layer1">
  <rect id="rect2419" x="6" y="14" width="84" height="76" rx="6" ry="6" fill="url(#linearGradient3706)"/>
  <path id="rect4377" d="m12 86c-3.324 0-6-2.676-6-6v-60c0-3.324 2.676-6 6-6h72c3.324 0 6 2.676 6 6v60c0 3.324-2.676 6-6 6zm0-0.96875h72c2.8049 0 5.0312-2.2264 5.0312-5.0312v-60c0-2.8049-2.2264-5.0312-5.0312-5.0312h-72c-2.8049 0-5.0312 2.2264-5.0312 5.0312v60c0 2.8049 2.2264 5.0312 5.0312 5.0312z" fill="url(#linearGradient3094)" opacity=".35"/>
  <path id="rect3841" d="m6 78v2c0 3.324 2.676 6 6 6h72c3.324 0 6-2.676 6-6v-2c0 3.324-2.676 6-6 6h-72c-3.324 0-6-2.676-6-6z" fill="#fff" opacity=".1"/>
 </g>
 <g id="layer7">
  <path id="path3067" d="m6 80v4c0 3.324 2.676 6 6 6h72c3.324 0 6-2.676 6-6v-4c0 3.324-2.676 6-6 6h-72c-3.324 0-6-2.676-6-6z" fill="#a17431" opacity=".8"/>
  <path id="path3888" d="m6 80v4c0 3.324 2.676 6 6 6h72c3.324 0 6-2.676 6-6v-4c0 3.324-2.676 6-6 6h-72c-3.324 0-6-2.676-6-6z" fill="url(#linearGradient3077)" opacity=".5"/>
  <path id="rect4345" d="m6 82v2c0 3.324 2.676 6 6 6h72c3.324 0 6-2.676 6-6v-2c0 3.324-2.676 6-6 6h-72c-3.324 0-6-2.676-6-6z" color="#000000" opacity=".1"/>
  <path id="rect4336" d="m6 83v1c0 3.324 2.676 6 6 6h72c3.324 0 6-2.676 6-6v-1c0 3.324-2.676 6-6 6h-72c-3.324 0-6-2.676-6-6z" color="#000000" opacity=".15"/>
 </g>
 <g id="layer5">
  <path id="path3850" d="m15.969 22.531c-2.8459 0.0043-5.4332 2.5916-5.4375 5.4375v48.062c0.0043 2.8459 2.5916 5.4332 5.4375 5.4375h64.062c2.8459-0.0043 5.4332-2.5916 5.4375-5.4375v-48.062c-0.0043-2.8459-2.5916-5.4332-5.4375-5.4375z" clip-path="url(#clipPath3860)" fill="url(#linearGradient3123)" filter="url(#filter3870)" opacity=".15"/>
 </g>
 <g id="layer6">
  <path id="path4873" d="m47 24c-1.6242 0-3 1.3758-3 3v6.1875c-2.3648 1.3926-4 3.8895-4 6.8125 0 1.309 0.40832 2.5048 0.96875 3.5938l-1.9062 6.4062h-3.0625c-1.6242 0-3 1.3758-3 3s1.3758 3 3 3h1.2812l-1.4688 4.875c-1.1526 3.8638-1.7511 7.4731-1.7812 10.375-0.01508 1.4509 0.07724 2.7072 0.4375 3.8438 0.36026 1.1366 1.1031 2.3865 2.5312 2.8125a1.9943 1.9943 0 0 0 2.4688-1.3438l6.125-20.562h4.8438l6.125 20.562a1.9943 1.9943 0 0 0 2.4688 1.3438c1.4282-0.42603 2.171-1.6759 2.5312-2.8125s0.45258-2.3928 0.4375-3.8438c-0.03017-2.9019-0.62868-6.5112-1.7812-10.375l-1.4688-4.875h1.25c1.6242 0 3-1.3758 3-3s-1.3758-3-3-3h-3.0312l-1.9062-6.4375c0.55112-1.0865 0.9375-2.2691 0.9375-3.5625 0-2.923-1.6352-5.4199-4-6.8125v-6.1875c0-1.6242-1.3758-3-3-3h-2zm0 2h2c0.554 0 1 0.446 1 1v7.3438c2.3312 0.82325 4 3.0433 4 5.6562 0 1.2672-0.39198 2.4377-1.0625 3.4062l2.5625 8.5938h4.5c0.554 0 1 0.446 1 1s-0.446 1-1 1h-3.9062l2.2188 7.4375c2.2171 7.4324 2.2798 13.929 0.15625 14.562l-6.5625-22h-7.7812l-6.5625 22c-2.1235-0.63345-2.0608-7.1301 0.15625-14.562l2.2188-7.4375h-3.9375c-0.554 0-1-0.446-1-1s0.446-1 1-1h4.5312l2.5625-8.5625c-0.68564-0.97528-1.0938-2.1548-1.0938-3.4375 0-2.613 1.6688-4.833 4-5.6562v-7.3438c0-0.554 0.446-1 1-1zm1 10c-2.2091 0-4 1.7909-4 4 0 0.32165 0.05331 0.63782 0.125 0.9375 0.0446 0.18642 0.0872 0.35625 0.15625 0.53125 0.07164 0.18183 0.15362 0.36358 0.25 0.53125 0.02663 0.04695 0.06532 0.07928 0.09375 0.125 0.02436 0.03886 0.03686 0.08705 0.0625 0.125 0.04673 0.06947 0.10537 0.12129 0.15625 0.1875 0.11239 0.14626 0.24374 0.30856 0.375 0.4375 0.10208 0.09862 0.20041 0.19385 0.3125 0.28125 0.04161 0.03271 0.08205 0.0627 0.125 0.09375 0.06081 0.04366 0.12421 0.08474 0.1875 0.125 0.16649 0.10591 0.34925 0.20049 0.53125 0.28125 0.02115 0.0094 0.04116 0.02225 0.0625 0.03125 0.22609 0.09492 0.4726 0.1664 0.71875 0.21875 0.26965 0.05734 0.557 0.09375 0.84375 0.09375 0.30044 0 0.59348-0.0622 0.875-0.125 0.18588-0.04146 0.35654-0.0908 0.53125-0.15625 0.34941-0.13091 0.67525-0.31478 0.96875-0.53125 0.14675-0.10823 0.30752-0.21673 0.4375-0.34375s0.23242-0.26218 0.34375-0.40625c0.10277-0.13299 0.19589-0.2914 0.28125-0.4375 7e-3 -0.01207 0.02435-0.01911 0.03125-0.03125 0.08629-0.15142 0.18386-0.30503 0.25-0.46875 0.07263-0.18034 0.11026-0.37026 0.15625-0.5625 0.07169-0.29968 0.125-0.61585 0.125-0.9375 0-2.2091-1.7909-4-4-4zm0 2c1.1315 0 2 0.86854 2 2 0 0.10132-0.0126 0.26017-0.0625 0.46875-0.05787 0.2419-0.08196 0.32956-0.0625 0.28125 0.02386-0.05906-0.0335 0.02487-0.125 0.1875-0.0087 0.01474 0.0088 0.0157 0 0.03125-0.01539 0.02478-0.01549 0.0041-0.03125 0.03125-0.0834 0.14275-0.13431 0.2308-0.125 0.21875-0.11839 0.15321-0.18863 0.18861-0.1875 0.1875 0.05196-0.05078-0.0244 0.04416-0.21875 0.1875-0.16025 0.11819-0.31242 0.19143-0.46875 0.25-0.08344 0.03126-0.17028 0.069-0.28125 0.09375-0.26764 0.0597-0.4123 0.0625-0.4375 0.0625-0.11795 0-0.28178 0.0019-0.4375-0.03125-0.09296-0.01977-0.15289-0.0342-0.21875-0.0625 0.0055-0.0016-0.02771-0.02147-0.125-0.0625-0.01538-0.0066-0.01289 0.0081-0.03125 0-0.10679-0.04739-0.21874-0.11649-0.28125-0.15625-0.05383-0.03424-0.08496-0.05619-0.09375-0.0625-0.03052-0.02206-0.04884-0.02051-0.0625-0.03125-0.0033-0.0026-0.06029-0.06362-0.125-0.125-0.0081-0.0077 0.0092-0.02245 0-0.03125-0.0089-0.0087-0.0982-0.10253-0.1875-0.21875-0.04758-0.06191-0.066-0.05838-0.09375-0.09375-0.03202-0.0476-0.01875-0.04248-0.03125-0.0625-0.01501-0.02415-0.01826-0.01029-0.03125-0.03125-0.013765-0.024269-0.01937-0.010413-0.03125-0.03125-0.01183-0.02058-0.04601-0.06368-0.0625-0.09375-0.0041-0.0071 0.0033-0.02548 0-0.03125-0.01279-0.02078-0.0618-0.093-0.0625-0.09375-0.0047-0.01123 0.0048-0.01917 0-0.03125-0.01015-0.02571-0.02099-0.10774-0.0625-0.28125-0.049892-0.20855-0.0625-0.36741-0.0625-0.46875 0-1.1315 0.86854-2 2-2zm-1.4062 7.8125-1.8438 6.1875h6.5625l-1.8438-6.1875c-0.46908 0.11776-0.96315 0.1875-1.4688 0.1875-0.48424 0-0.95523-0.0792-1.4062-0.1875zm1.4062 2.1875c0.01076 0 0.0205 4.6e-5 0.03125 0l0.625 2h-1.25l0.59375-2z" fill="#fff" opacity=".05"/>
  <path id="path4862" d="m47 24.969c-1.1136 0-2.0312 0.91769-2.0312 2.0312v6.75c-2.3516 1.1427-4 3.4711-4 6.25 0 1.2883 0.39486 2.4639 1 3.5l-2.2188 7.4688h-3.75c-1.1136 0-2.0312 0.91769-2.0312 2.0312s0.91769 2.0312 2.0312 2.0312h2.5312l-1.8125 6.0938c-1.1316 3.7933-1.7212 7.3517-1.75 10.125-0.01442 1.3867 0.09474 2.5797 0.40625 3.5625 0.31151 0.98278 0.87497 1.8892 1.875 2.1875a1.0427 1.0427 0 0 0 1.3125-0.6875l6.3438-21.281h6.2188l6.3438 21.281a1.0427 1.0427 0 0 0 1.3125 0.6875c1-0.29831 1.5635-1.2047 1.875-2.1875s0.42067-2.1758 0.40625-3.5625c-0.02883-2.7733-0.61844-6.3317-1.75-10.125l-1.8125-6.0938h2.5c1.1136 0 2.0312-0.91769 2.0312-2.0312s-0.91769-2.0312-2.0312-2.0312h-3.7188l-2.2188-7.5c0.59134-1.0307 0.96875-2.199 0.96875-3.4688 0-2.7789-1.6484-5.1073-4-6.25v-6.75c0-1.1136-0.91769-2.0312-2.0312-2.0312h-2zm0 1.0312h2c0.554 0 1 0.446 1 1v7.3438c2.3312 0.82325 4 3.0433 4 5.6562 0 1.2672-0.39198 2.4377-1.0625 3.4062l2.5625 8.5938h4.5c0.554 0 1 0.446 1 1s-0.446 1-1 1h-3.9062l2.2188 7.4375c2.2171 7.4324 2.2798 13.929 0.15625 14.562l-6.5625-22h-7.7812l-6.5625 22c-2.1235-0.63345-2.0608-7.1301 0.15625-14.562l2.2188-7.4375h-3.9375c-0.554 0-1-0.446-1-1s0.446-1 1-1h4.5312l2.5625-8.5625c-0.68564-0.97528-1.0938-2.1548-1.0938-3.4375 0-2.613 1.6688-4.833 4-5.6562v-7.3438c0-0.554 0.446-1 1-1zm1 10c-2.2091 0-4 1.7909-4 4 0 0.32165 0.05331 0.63782 0.125 0.9375 0.0446 0.18642 0.0872 0.35625 0.15625 0.53125 0.07164 0.18183 0.15362 0.36358 0.25 0.53125 0.02663 0.04695 0.06532 0.07928 0.09375 0.125 0.02436 0.03886 0.03686 0.08705 0.0625 0.125 0.04673 0.06947 0.10537 0.12129 0.15625 0.1875 0.11239 0.14626 0.24374 0.30856 0.375 0.4375 0.10208 0.09862 0.20041 0.19385 0.3125 0.28125 0.04161 0.03271 0.08205 0.0627 0.125 0.09375 0.06081 0.04366 0.12421 0.08474 0.1875 0.125 0.16649 0.10591 0.34925 0.20049 0.53125 0.28125 0.02115 0.0094 0.04116 0.02225 0.0625 0.03125 0.22609 0.09492 0.4726 0.1664 0.71875 0.21875 0.26965 0.05734 0.557 0.09375 0.84375 0.09375 0.30044 0 0.59348-0.0622 0.875-0.125 0.18588-0.04146 0.35654-0.0908 0.53125-0.15625 0.34941-0.13091 0.67525-0.31478 0.96875-0.53125 0.14675-0.10823 0.30752-0.21673 0.4375-0.34375s0.23242-0.26218 0.34375-0.40625c0.10277-0.13299 0.19589-0.2914 0.28125-0.4375 7e-3 -0.01207 0.02435-0.01911 0.03125-0.03125 0.08629-0.15142 0.18386-0.30503 0.25-0.46875 0.07263-0.18034 0.11026-0.37026 0.15625-0.5625 0.07169-0.29968 0.125-0.61585 0.125-0.9375 0-2.2091-1.7909-4-4-4zm0 1.0312c1.6457 0 2.9688 1.3231 2.9688 2.9688 0 0.20645-0.03345 0.43545-0.09375 0.6875-0.0522 0.2182-0.10052 0.37671-0.125 0.4375-0.01758 0.04351-0.08398 0.13083-0.1875 0.3125-0.0078 0.01178 8e-3 0.01833 0 0.03125-0.0072 0.01163-0.02394-0.0126-0.03125 0-0.08434 0.14435-0.14333 0.28659-0.1875 0.34375-0.11502 0.14885-0.18857 0.22122-0.25 0.28125-0.03485 0.03406-0.17211 0.12341-0.34375 0.25-0.22383 0.16508-0.47029 0.31316-0.71875 0.40625-0.12699 0.04758-0.22828 0.06102-0.375 0.09375-0.27426 0.06118-0.49972 0.125-0.65625 0.125-0.19849 0-0.41492-0.04908-0.625-0.09375-0.17148-0.03647-0.3305-0.0725-0.46875-0.125 0.0041-0.0019-0.01672-0.01194-0.0625-0.03125-0.01291-0.0051-0.01303 0.0081-0.03125 0-0.14268-0.06331-0.29413-0.14742-0.40625-0.21875-0.04976-0.03166-0.093-0.07146-0.125-0.09375-0.0084-0.0061-0.02364 0.0056-0.03125 0-0.02535-0.01857-0.04173-0.04617-0.0625-0.0625-0.05563-0.04338-0.14731-0.11954-0.25-0.21875-0.06727-0.06608-0.18093-0.18195-0.28125-0.3125-0.12654-0.16466-0.13842-0.22266-0.09375-0.15625 0.11557 0.17105 0.08263 0.13777-0.0625-0.09375-0.03816-0.06136-0.04325-0.06588-0.0625-0.09375-0.06145-0.1069-0.12843-0.22509-0.1875-0.375-0.03825-0.09694-0.08202-0.22658-0.125-0.40625-0.0603-0.25203-0.09375-0.48104-0.09375-0.6875 0-1.6457 1.3231-2.9688 2.9688-2.9688zm-1.4062 8.7812-1.8438 6.1875h6.5625l-1.8438-6.1875c-0.46908 0.11776-0.96315 0.1875-1.4688 0.1875-0.48424 0-0.95523-0.0792-1.4062-0.1875zm0.75 1.125c0.22248 0.02581 0.41901 0.09375 0.65625 0.09375 0.25162 0 0.47609-0.06694 0.71875-0.09375l1.1875 4.0312h-3.75l1.1875-4.0312z" fill="#fff" opacity=".1"/>
  <path id="rect2957" d="m47 26c-0.554 0-1 0.446-1 1v7.3438c-2.3312 0.82325-4 3.0433-4 5.6562 0 1.2827 0.4081 2.4622 1.0938 3.4375l-2.5625 8.5625h-4.5312c-0.554 0-1 0.446-1 1s0.446 1 1 1h3.9375l-2.2188 7.4375c-2.2171 7.4324-2.2798 13.929-0.15625 14.562l6.5625-22h7.7812l6.5625 22c2.1235-0.63345 2.0608-7.1301-0.15625-14.562l-2.2188-7.4375h3.9062c0.554 0 1-0.446 1-1s-0.446-1-1-1h-4.5l-2.5625-8.5938c0.67052-0.96855 1.0625-2.1391 1.0625-3.4062 0-2.613-1.6688-4.833-4-5.6562v-7.3438c0-0.554-0.446-1-1-1h-2zm1 10c2.2091 0 4 1.7909 4 4 0 0.32165-0.05331 0.63782-0.125 0.9375-0.04599 0.19224-0.08362 0.38216-0.15625 0.5625-0.06614 0.16372-0.16371 0.31733-0.25 0.46875-0.0069 0.01214-0.02425 0.01918-0.03125 0.03125-0.08536 0.1461-0.17848 0.30451-0.28125 0.4375-0.11133 0.14407-0.21378 0.27923-0.34375 0.40625s-0.29075 0.23552-0.4375 0.34375c-0.2935 0.21646-0.61934 0.40034-0.96875 0.53125-0.1747 0.065454-0.34537 0.11479-0.53125 0.15625-0.28152 0.062795-0.57456 0.125-0.875 0.125-0.28675 0-0.5741-0.03641-0.84375-0.09375-0.24615-0.05235-0.49266-0.12383-0.71875-0.21875-0.02134-9e-3 -0.04135-0.02187-0.0625-0.03125-0.182-0.08076-0.36476-0.17534-0.53125-0.28125-0.06329-0.04026-0.12669-0.08134-0.1875-0.125-0.04295-0.03105-0.08339-0.06104-0.125-0.09375-0.11209-0.0874-0.21042-0.18263-0.3125-0.28125-0.13126-0.12894-0.26261-0.29124-0.375-0.4375-0.05088-0.06621-0.10952-0.11803-0.15625-0.1875-0.02564-0.03795-0.03814-0.08614-0.0625-0.125-0.02843-0.04572-0.06712-0.07805-0.09375-0.125-0.09638-0.16767-0.17836-0.34942-0.25-0.53125-0.069055-0.175-0.11165-0.34482-0.15625-0.53125-0.071694-0.29968-0.125-0.61585-0.125-0.9375 0-2.2091 1.7909-4 4-4zm-1.4062 9.8125c0.45102 0.1083 0.92201 0.1875 1.4062 0.1875 0.5056 0 0.99968-0.06974 1.4688-0.1875l1.8438 6.1875h-6.5625l1.8438-6.1875z" fill="url(#linearGradient3098)" opacity=".9"/>
  <path id="path4832" d="m47 26c-0.554 0-1 0.446-1 1v7.3438c-2.3312 0.82325-4 3.0433-4 5.6562 0 1.2827 0.4081 2.4622 1.0938 3.4375l-2.5625 8.5625h-4.5312c-0.554 0-1 0.446-1 1s0.446 1 1 1h3.9375l-2.2188 7.4375c-2.2171 7.4324-2.2798 13.929-0.15625 14.562l6.5625-22h7.7812l6.5625 22c2.1235-0.63345 2.0608-7.1301-0.15625-14.562l-2.2188-7.4375h3.9062c0.554 0 1-0.446 1-1s-0.446-1-1-1h-4.5l-2.5625-8.5938c0.67052-0.96855 1.0625-2.1391 1.0625-3.4062 0-2.613-1.6688-4.833-4-5.6562v-7.3438c0-0.554-0.446-1-1-1h-2zm1 10c2.2091 0 4 1.7909 4 4 0 0.32165-0.05331 0.63782-0.125 0.9375-0.04599 0.19224-0.08362 0.38216-0.15625 0.5625-0.06614 0.16372-0.16371 0.31733-0.25 0.46875-0.0069 0.01214-0.02425 0.01918-0.03125 0.03125-0.08536 0.1461-0.17848 0.30451-0.28125 0.4375-0.11133 0.14407-0.21378 0.27923-0.34375 0.40625s-0.29075 0.23552-0.4375 0.34375c-0.2935 0.21646-0.61934 0.40034-0.96875 0.53125-0.1747 0.065454-0.34537 0.11479-0.53125 0.15625-0.28152 0.062795-0.57456 0.125-0.875 0.125-0.28675 0-0.5741-0.03641-0.84375-0.09375-0.24615-0.05235-0.49266-0.12383-0.71875-0.21875-0.02134-9e-3 -0.04135-0.02187-0.0625-0.03125-0.182-0.08076-0.36476-0.17534-0.53125-0.28125-0.06329-0.04026-0.12669-0.08134-0.1875-0.125-0.04295-0.03105-0.08339-0.06104-0.125-0.09375-0.11209-0.0874-0.21042-0.18263-0.3125-0.28125-0.13126-0.12894-0.26261-0.29124-0.375-0.4375-0.05088-0.06621-0.10952-0.11803-0.15625-0.1875-0.02564-0.03795-0.03814-0.08614-0.0625-0.125-0.02843-0.04572-0.06712-0.07805-0.09375-0.125-0.09638-0.16767-0.17836-0.34942-0.25-0.53125-0.069055-0.175-0.11165-0.34482-0.15625-0.53125-0.071694-0.29968-0.125-0.61585-0.125-0.9375 0-2.2091 1.7909-4 4-4zm3.3125 8.9375 0.0625 0.1875a2.0002 2.0002 0 0 0-0.09375-0.15625c0.01141-0.0076 0.01991-0.0236 0.03125-0.03125zm-6.625 0.0625c0.02231 0.01448 0.04298 0.05006 0.0625 0.0625a2.0002 2.0002 0 0 0-0.0625 0.1875l-1.8438 6.1875a2.0002 2.0002 0 0 0-0.03125 1.0625 2.0002 2.0002 0 0 0 0 0.03125 2.0002 2.0002 0 0 0-0.59375 0.90625l-2.75 9.1562c0.058797-0.20768 0.093803-0.38441 0.15625-0.59375l2.2188-7.4375a2.0002 2.0002 0 0 0 0.03125-1.0938 2.0002 2.0002 0 0 0 0.5625-0.90625l2.25-7.5625zm6.6875 0.25 2.2188 7.3125a2.0002 2.0002 0 0 0 0.5625 0.90625 2.0002 2.0002 0 0 0 0.03125 1.0938l2.2188 7.4375c0.06245 0.20934 0.09745 0.38607 0.15625 0.59375l-2.75-9.1562a2.0002 2.0002 0 0 0-0.5625-0.90625 2.0002 2.0002 0 0 0-0.03125-1.0938l-1.8438-6.1875zm-4.7812 0.5625c0.45102 0.1083 0.92201 0.1875 1.4062 0.1875 0.5056 0 0.99968-0.06974 1.4688-0.1875l1.8438 6.1875h-6.5625l1.8438-6.1875z" fill="url(#linearGradient3098)" opacity=".25"/>
  <path id="path4806" d="m47 26c-0.554 0-1 0.446-1 1v1c0-0.554 0.446-1 1-1h2c0.554 0 1 0.446 1 1v-1c0-0.554-0.446-1-1-1h-2zm-1 8.3438c-2.3312 0.82325-4 3.0433-4 5.6562 0 0.17098 0.01706 0.33292 0.03125 0.5 0.1975-2.3931 1.788-4.3861 3.9688-5.1562v-1zm4 0v1c2.1808 0.77014 3.7713 2.7632 3.9688 5.1562 0.013661-0.16523 0.03125-0.33109 0.03125-0.5 0-2.613-1.6688-4.833-4-5.6562zm-5.9375 6.2188c-0.015906 0.14492-0.0625 0.28834-0.0625 0.4375 0 0.32165 0.05331 0.63782 0.125 0.9375 0.0446 0.18642 0.0872 0.35625 0.15625 0.53125 0.07164 0.18183 0.15362 0.36358 0.25 0.53125 0.02663 0.04695 0.06532 0.07928 0.09375 0.125 0.02436 0.03886 0.03686 0.08705 0.0625 0.125 0.04673 0.06947 0.10537 0.12129 0.15625 0.1875 0.11239 0.14626 0.24374 0.30856 0.375 0.4375 0.10208 0.09862 0.20041 0.19385 0.3125 0.28125 0.04161 0.03271 0.08205 0.0627 0.125 0.09375 0.06081 0.04366 0.12421 0.08474 0.1875 0.125 0.16649 0.10591 0.34925 0.20049 0.53125 0.28125 0.02115 0.0094 0.04116 0.02225 0.0625 0.03125 0.22609 0.09492 0.4726 0.1664 0.71875 0.21875 0.26965 0.05734 0.557 0.09375 0.84375 0.09375 0.30044 0 0.59348-0.0622 0.875-0.125 0.18588-0.04146 0.35654-0.0908 0.53125-0.15625 0.34941-0.13091 0.67525-0.31478 0.96875-0.53125 0.14675-0.10823 0.30752-0.21673 0.4375-0.34375s0.23242-0.26218 0.34375-0.40625c0.10277-0.13299 0.19589-0.2914 0.28125-0.4375 7e-3 -0.01207 0.02435-0.01911 0.03125-0.03125 0.08629-0.15142 0.18386-0.30503 0.25-0.46875 0.07263-0.18034 0.11026-0.37026 0.15625-0.5625 0.07169-0.29968 0.125-0.61585 0.125-0.9375 0-0.14916-0.04659-0.29258-0.0625-0.4375-0.02049 0.12362-0.03401 0.2559-0.0625 0.375-0.04599 0.19224-0.08362 0.38216-0.15625 0.5625-0.06614 0.16372-0.16371 0.31733-0.25 0.46875-0.0069 0.01214-0.02425 0.01918-0.03125 0.03125-0.08536 0.1461-0.17848 0.30451-0.28125 0.4375-0.11133 0.14407-0.21378 0.27923-0.34375 0.40625s-0.29075 0.23552-0.4375 0.34375c-0.2935 0.21646-0.61934 0.40034-0.96875 0.53125-0.1747 0.065454-0.34537 0.11479-0.53125 0.15625-0.28152 0.062795-0.57456 0.125-0.875 0.125-0.28675 0-0.5741-0.03641-0.84375-0.09375-0.24615-0.05235-0.49266-0.12383-0.71875-0.21875-0.02134-9e-3 -0.04135-0.02187-0.0625-0.03125-0.182-0.08076-0.36476-0.17534-0.53125-0.28125-0.06329-0.04026-0.12669-0.08134-0.1875-0.125-0.04295-0.03105-0.08339-0.06104-0.125-0.09375-0.11209-0.0874-0.21042-0.18263-0.3125-0.28125-0.13126-0.12894-0.26261-0.29124-0.375-0.4375-0.05088-0.06621-0.10952-0.11803-0.15625-0.1875-0.02564-0.03795-0.03814-0.08614-0.0625-0.125-0.02843-0.04572-0.06712-0.07805-0.09375-0.125-0.09638-0.16767-0.17836-0.34942-0.25-0.53125-0.06905-0.175-0.11165-0.34482-0.15625-0.53125-0.02849-0.1191-0.04201-0.25138-0.0625-0.375zm9.0625 3.5c-0.06833 0.11413-0.11194 0.2346-0.1875 0.34375l2.5625 8.5938h4.5c0.3661 0 0.66952 0.20801 0.84375 0.5 0.089426-0.14986 0.15625-0.3121 0.15625-0.5 0-0.554-0.446-1-1-1h-4.5l-2.375-7.9375zm-10.219 0.03125-2.375 7.9062h-4.5312c-0.554 0-1 0.446-1 1 0 0.1879 0.06682 0.35014 0.15625 0.5 0.17423-0.29199 0.47765-0.5 0.84375-0.5h4.5312l2.5625-8.5625c-0.07361-0.1047-0.12045-0.23447-0.1875-0.34375zm2.1562 7.9062-0.3125 1h6.5625l-0.3125-1h-5.9375zm-5.4375 3-1.9062 6.4375c-1.201 4.026-1.7559 7.775-1.6875 10.469 0.07198-2.5867 0.62793-5.9168 1.6875-9.4688l2.2188-7.4375h-0.3125zm16.469 0 2.2188 7.4375c1.0596 3.552 1.6155 6.882 1.6875 9.4688 0.0684-2.6937-0.48652-6.4427-1.6875-10.469l-1.9062-6.4375h-0.3125z" fill="url(#linearGradient3098)"/>
  <path id="path4815" d="m47 26c-0.554 0-1 0.446-1 1v7.3438c-2.3312 0.82325-4 3.0433-4 5.6562 0 1.2827 0.4081 2.4622 1.0938 3.4375l-2.5625 8.5625h-4.5312c-0.554 0-1 0.446-1 1s0.446 1 1 1h3.9375l-2.2188 7.4375c-2.2171 7.4324-2.2798 13.929-0.15625 14.562l6.5625-22h7.7812l6.5625 22c2.1235-0.63345 2.0608-7.1301-0.15625-14.562l-2.2188-7.4375h3.9062c0.554 0 1-0.446 1-1s-0.446-1-1-1h-4.5l-2.5625-8.5938c0.67052-0.96855 1.0625-2.1391 1.0625-3.4062 0-2.613-1.6688-4.833-4-5.6562v-7.3438c0-0.554-0.446-1-1-1h-2zm0 1h2v7.3438a1.0001 1.0001 0 0 0 0.65625 0.9375c0.05032 0.01777 0.07543 0.07444 0.125 0.09375-0.55804-0.21657-1.1492-0.375-1.7812-0.375s-1.2232 0.15843-1.7812 0.375c0.04957-0.01931 0.07468-0.07598 0.125-0.09375a1.0001 1.0001 0 0 0 0.65625-0.9375v-7.3438zm1 9c2.2091 0 4 1.7909 4 4 0 0.32165-0.05331 0.63782-0.125 0.9375-0.04599 0.19224-0.08362 0.38216-0.15625 0.5625-0.06614 0.16372-0.16371 0.31733-0.25 0.46875-0.0069 0.01214-0.02425 0.01918-0.03125 0.03125-0.08536 0.1461-0.17848 0.30451-0.28125 0.4375-0.11133 0.14407-0.21378 0.27923-0.34375 0.40625s-0.29075 0.23552-0.4375 0.34375c-0.2935 0.21646-0.61934 0.40034-0.96875 0.53125-0.1747 0.065454-0.34537 0.11479-0.53125 0.15625-0.28152 0.062795-0.57456 0.125-0.875 0.125-0.28675 0-0.5741-0.03641-0.84375-0.09375-0.24615-0.05235-0.49266-0.12383-0.71875-0.21875-0.02134-9e-3 -0.04135-0.02187-0.0625-0.03125-0.182-0.08076-0.36476-0.17534-0.53125-0.28125-0.06329-0.04026-0.12669-0.08134-0.1875-0.125-0.04295-0.03105-0.08339-0.06104-0.125-0.09375-0.11209-0.0874-0.21042-0.18263-0.3125-0.28125-0.13126-0.12894-0.26261-0.29124-0.375-0.4375-0.05088-0.06621-0.10952-0.11803-0.15625-0.1875-0.02564-0.03795-0.03814-0.08614-0.0625-0.125-0.02843-0.04572-0.06712-0.07805-0.09375-0.125-0.09638-0.16767-0.17836-0.34942-0.25-0.53125-0.069055-0.175-0.11165-0.34482-0.15625-0.53125-0.071694-0.29968-0.125-0.61585-0.125-0.9375 0-2.2091 1.7909-4 4-4zm4.1562 6.7188c-0.02332 0.03555-7e-3 0.09004-0.03125 0.125a1.0001 1.0001 0 0 0-0.0625 0.0625c0.04046-0.05986 0.06045-0.13284 0.09375-0.1875zm-8.1875 0.21875c0.02441 0.02586 0.10304 0.10585 0.09375 0.09375 0.12396 0.16132 0.27611 0.37327 0.46875 0.5625 0.1015 0.09806 0.20875 0.21412 0.375 0.34375 0.05562 0.04373 0.10707 0.08944 0.15625 0.125 0.0869 0.06239 0.18196 0.11297 0.25 0.15625 0.21864 0.13909 0.43653 0.24625 0.65625 0.34375-0.07506-0.03329-0.03587-0.02342 0.09375 0.03125a1.0001 1.0001 0 0 0 0 0.03125c0.21514 0.09032 0.41254 0.13496 0.625 0.1875a1.0001 1.0001 0 0 0-1.0625 0.71875l-1.8438 6.1875a1.0001 1.0001 0 0 0 0.78125 1.2812h-0.4375a1.0001 1.0001 0 0 0-0.96875 0.71875l-5.9062 19.75c-0.12276-0.62161-0.25977-1.2481-0.25-2.1875 0.02596-2.4972 0.60103-5.9203 1.6875-9.5625l2.2188-7.4375a1.0001 1.0001 0 0 0-0.78125-1.2812h0.40625a1.0001 1.0001 0 0 0 0.96875-0.71875l2.5625-8.5625a1.0001 1.0001 0 0 0-0.09375-0.78125zm8.0312 0.0625a1.0001 1.0001 0 0 0-0.03125 0.6875l2.5625 8.5938a1.0001 1.0001 0 0 0 0.96875 0.71875h0.40625a1.0001 1.0001 0 0 0-0.78125 1.2812l2.2188 7.4375c1.0865 3.6422 1.6615 7.0653 1.6875 9.5625 0.0098 0.93939-0.12724 1.5659-0.25 2.1875l-5.9062-19.75a1.0001 1.0001 0 0 0-0.96875-0.71875h-0.40625a1.0001 1.0001 0 0 0 0.78125-1.2812l-1.8438-6.1875a1.0001 1.0001 0 0 0-1.2188-0.6875c-0.04023 0.0101-0.08449-0.0092-0.125 0 0.22345-0.04984 0.43578-0.1049 0.65625-0.1875 0.44624-0.16718 0.85843-0.3905 1.2188-0.65625 0.12288-0.09063 0.31004-0.22132 0.53125-0.4375 0.19572-0.19128 0.32971-0.36051 0.4375-0.5 0.02058-0.026633 0.044234-0.041 0.0625-0.0625zm-5.4062 2.8125c0.45102 0.1083 0.92201 0.1875 1.4062 0.1875 0.5056 0 0.99968-0.06974 1.4688-0.1875l1.8438 6.1875h-6.5625l1.8438-6.1875z" fill="url(#linearGradient3098)" opacity=".5"/>
  <path id="path4847" d="m48 36c-2.2091 0-4 1.7909-4 4 0 0.19382 0.03143 0.37507 0.0625 0.5625 0.21967-2.0015 1.8775-3.5625 3.9375-3.5625s3.7178 1.561 3.9375 3.5625c0.03107-0.18743 0.0625-0.36868 0.0625-0.5625 0-2.2091-1.7909-4-4-4zm-5.9688 4.5c-0.013619 0.16502-0.03125 0.33144-0.03125 0.5 0 1.145 0.34875 2.1851 0.90625 3.0938l0.1875-0.65625c-0.59425-0.84528-0.97022-1.8512-1.0625-2.9375zm11.938 0c-0.08882 1.0743-0.45011 2.0668-1.0312 2.9062l0.1875 0.65625c0.53797-0.8986 0.875-1.9381 0.875-3.0625 0-0.16856-0.01763-0.33498-0.03125-0.5zm-7.375 5.3125-1.8438 6.1875h0.3125l1.5312-5.1875c0.45102 0.1083 0.92201 0.1875 1.4062 0.1875 0.5056 0 0.99968-0.06974 1.4688-0.1875l1.5312 5.1875h0.3125l-1.8438-6.1875c-0.46908 0.11776-0.96315 0.1875-1.4688 0.1875-0.48424 0-0.95523-0.0792-1.4062-0.1875zm-11.438 7.6875c-0.089426 0.14986-0.15625 0.3121-0.15625 0.5 0 0.554 0.446 1 1 1h3.625l0.3125-1h-3.9375c-0.3661 0-0.66952-0.20801-0.84375-0.5zm25.688 0c-0.17423 0.29199-0.47765 0.5-0.84375 0.5h-3.9062l0.3125 1h3.5938c0.554 0 1-0.446 1-1 0-0.1879-0.06682-0.35014-0.15625-0.5zm-16.719 0.5-6.5625 22c-0.97324-0.29032-1.4734-1.8147-1.5312-4.0938-0.07863 2.8259 0.42257 4.763 1.5312 5.0938l6.5625-22h7.7812l6.5625 22c1.1087-0.33072 1.6099-2.2679 1.5312-5.0938-0.057875 2.2791-0.55801 3.8034-1.5312 4.0938l-6.5625-22h-7.7812z" fill="#fff" opacity=".2"/>
 </g>
</svg>
