<?xml version="1.0" encoding="UTF-8"?>
<svg id="svg2408" width="96" height="96" version="1.0" xmlns="http://www.w3.org/2000/svg" xmlns:cc="http://creativecommons.org/ns#" xmlns:dc="http://purl.org/dc/elements/1.1/" xmlns:rdf="http://www.w3.org/1999/02/22-rdf-syntax-ns#" xmlns:xlink="http://www.w3.org/1999/xlink">
 <defs id="defs2410">
  <linearGradient id="linearGradient3361" x1="48.036" x2="48.036" y1="25.911" y2="85.821" gradientTransform="scale(1.0599 .94353)" gradientUnits="userSpaceOnUse">
   <stop id="stop3319" stop-color="#c6953a" offset="0"/>
   <stop id="stop3321" stop-color="#ab7a1f" offset="1"/>
  </linearGradient>
  <linearGradient id="ButtonShadow" x1="45.448" x2="45.448" y1="80.472" y2="7.0165" gradientTransform="matrix(1.0059 0 0 .99417 0 12)" gradientUnits="userSpaceOnUse">
   <stop id="stop3750" offset="0"/>
   <stop id="stop3752" stop-opacity=".58824" offset="1"/>
  </linearGradient>
  <linearGradient id="linearGradient3706" x1="48" x2="48" y1="78" y2="5.9877" gradientTransform="translate(0,8)" gradientUnits="userSpaceOnUse">
   <stop id="stop3189" stop-color="#c29656" offset="0"/>
   <stop id="stop3191" stop-color="#ddc08b" offset="1"/>
  </linearGradient>
  <filter id="filter3174" color-interpolation-filters="sRGB">
   <feGaussianBlur id="feGaussianBlur3176" stdDeviation="1.71"/>
  </filter>
  <linearGradient id="linearGradient3664" x1="45.448" x2="45.448" y1="80.472" y2="5.2972" gradientTransform="matrix(1.0059 0 0 .99417 0 12)" gradientUnits="userSpaceOnUse" xlink:href="#ButtonShadow"/>
  <clipPath id="clipPath3860">
   <rect id="rect3862" x="6" y="18" width="84" height="72" rx="6" ry="6" fill="#f0f"/>
  </clipPath>
  <filter id="filter3870" x="-.16559" y="-.19716" width="1.3312" height="1.3943" color-interpolation-filters="sRGB">
   <feGaussianBlur id="feGaussianBlur3872" stdDeviation="5.1703125"/>
  </filter>
  <linearGradient id="linearGradient3077" x1="90" x2="48" y1="88" y2="88" gradientUnits="userSpaceOnUse" spreadMethod="reflect">
   <stop id="stop3894" stop-opacity=".58824" offset="0"/>
   <stop id="stop3896" stop-opacity=".47059" offset=".1178"/>
   <stop id="stop3898" stop-opacity=".39216" offset=".2381"/>
   <stop id="stop3900" stop-opacity=".31373" offset="1"/>
  </linearGradient>
  <linearGradient id="linearGradient3094" x1="48" x2="48" y1="75.083" y2="-40" gradientTransform="matrix(1,0,0,-1,0,92)" gradientUnits="userSpaceOnUse">
   <stop id="stop4386" stop-color="#fff" offset="0"/>
   <stop id="stop4388" stop-color="#fff" stop-opacity="0" offset="1"/>
  </linearGradient>
  <linearGradient id="linearGradient3123" x1="48.022" x2="48.022" y1="22.933" y2="81.481" gradientUnits="userSpaceOnUse">
   <stop id="stop3876" stop-color="#fff" offset="0"/>
   <stop id="stop3878" stop-color="#fff" stop-opacity="0" offset="1"/>
  </linearGradient>
  <linearGradient id="linearGradient3105" x1="34.86" x2="34.86" y1="16.275" y2="26.987" gradientTransform="matrix(.72 0 0 .72 1.92 -5.52)" gradientUnits="userSpaceOnUse">
   <stop id="stop4010" stop-color="#dab980" offset="0"/>
   <stop id="stop4012" stop-color="#c29856" offset=".71692"/>
   <stop id="stop4014" stop-color="#a2773a" offset="1"/>
  </linearGradient>
  <linearGradient id="linearGradient3952" x1="43" x2="43" y1="91" y2="7" gradientUnits="userSpaceOnUse" xlink:href="#ButtonShadow"/>
  <linearGradient id="linearGradient3961" x1="45" x2="45" y1="92" y2="7" gradientUnits="userSpaceOnUse" xlink:href="#ButtonShadow"/>
  <linearGradient id="linearGradient3904" x1="48.071" x2="48.071" y1="73.766" y2="32.398" gradientTransform="translate(0,-2)" gradientUnits="userSpaceOnUse" xlink:href="#linearGradient3699-7"/>
  <linearGradient id="linearGradient3699-7">
   <stop id="stop3701-4" stop-color="#aa7932" stop-opacity=".78431" offset="0"/>
   <stop id="stop3703-1" stop-color="#aa7932" stop-opacity=".39216" offset="1"/>
  </linearGradient>
  <linearGradient id="linearGradient3248" x1="48.071" x2="48.071" y1="73.766" y2="32.398" gradientTransform="translate(0,-2)" gradientUnits="userSpaceOnUse">
   <stop id="stop3701" stop-color="#aa7932" stop-opacity=".78431" offset="0"/>
   <stop id="stop3703" stop-color="#aa7932" stop-opacity=".39216" offset="1"/>
  </linearGradient>
 </defs>
 <metadata id="metadata2413">
  <rdf:RDF>
   <cc:Work rdf:about="">
    <dc:format>image/svg+xml</dc:format>
    <dc:type rdf:resource="http://purl.org/dc/dcmitype/StillImage"/>
    <dc:title/>
   </cc:Work>
  </rdf:RDF>
 </metadata>
 <g id="layer2" display="none">
  <path id="rect3745" d="m14.969 8.8029c-1.6398 0-2.9688 1.2823-2.9688 2.875v7.3221c-3.324 0-7 2.676-7 6v61c0 3.324 2.676 6 6 6h74c3.324 0 6-2.676 6-6v-61c0-3.324-3.7474-6-7.0714-6v-0.13461c0-2.3891-1.9777-4.3125-4.4375-4.3125h-43.335l-1.4688-2.875c-0.73336-1.4246-1.3289-2.875-2.9688-2.875h-16.75z" fill="url(#linearGradient3664)" filter="url(#filter3174)" opacity=".9"/>
 </g>
 <g id="layer4">
  <path id="path3984" d="m14.125 4c-4.4339 0-8.125 3.5684-8.125 8v2.1562c-2.3764 1.8021-4 4.6028-4 7.8438v63c0 5.5036 4.4964 10 10 10h72c5.5036 0 10-4.4964 10-10v-63c0-3.4834-1.8534-6.4531-4.5312-8.2188-0.9872-3.2895-3.9427-5.7812-7.5938-5.7812h-39.5c-1.4026-1.3548-2.5397-2.5096-3.6875-3.1562-1.4952-0.84233-2.9309-0.81421-3.8125-0.84375a0.9278 0.9278 0 0 0-0.03125 0c-0.0012-1.73e-5 -0.03009-1.73e-5 -0.03125 0h-0.03125-20.656z" fill="url(#linearGradient3961)" opacity=".08"/>
  <path id="path3975" d="m14.125 4.9375c-3.9406 0-7.1875 3.1433-7.1875 7.0625v2.5938c-2.3826 1.6221-4 4.2939-4 7.4062v63c0 5.0014 4.0611 9.0625 9.0625 9.0625h72c5.0014 0 9.0625-4.0611 9.0625-9.0625v-63c0-3.2608-1.7732-6.0397-4.3438-7.625-0.76119-3.0957-3.4773-5.4375-6.8438-5.4375h-39.812c-1.5975-1.5412-2.7721-2.6775-3.8438-3.2812-1.2732-0.71724-2.4475-0.68767-3.375-0.71875a1.0438 1.0438 0 0 0-0.03125 0h-0.03125-20.656z" fill="url(#linearGradient3961)" opacity=".1"/>
  <path id="path3967" d="m14.125 5.9688c-3.3887 0-6.1562 2.688-6.1562 6.0312v3.125c-2.3751 1.394-4 3.9205-4 6.875v63c0 4.4381 3.5931 8.0312 8.0312 8.0312h72c4.4381 0 8.0312-3.5931 8.0312-8.0312v-63c0-3.032-1.7122-5.6044-4.1875-6.9688-0.49189-2.8596-2.9286-5.0625-5.9688-5.0625h-40.188c-1.8348-1.7748-3.0086-2.8654-3.9688-3.4062-1.0373-0.58435-1.9404-0.56139-2.9062-0.59375a1.0438 1.0438 0 0 0-0.03125 0h-20.656z" fill="url(#linearGradient3961)" opacity=".2"/>
  <path id="path3908-1" d="m14.125 7c-2.8429 0-5.125 2.23-5.125 5v3.6875c-2.3641 1.1214-4 3.5128-4 6.3125v63c0 3.878 3.122 7 7 7h72c3.878 0 7-3.122 7-7v-63c0-2.8097-1.6534-5.1964-4.0312-6.3125-0.16965-2.6184-2.3622-4.6875-5.0938-4.6875h-40.594c-4.2205-4.1123-4.5028-3.9331-6.5-4h-20.656z" fill="url(#linearGradient3961)" opacity=".3"/>
  <path id="path3941" d="m15 7c-2.77 0-5 2.23-5 5v3.3438c-2.3335 0.82091-4 3.0351-4 5.6562v64c0 3.324 2.676 6 6 6h72c3.324 0 6-2.676 6-6v-64c0-2.6419-1.6999-4.8512-4.0625-5.6562-0.32604-2.4503-2.3952-4.3438-4.9375-4.3438h-40.531c-4.1123-4.1123-4.3665-3.9331-6.3125-4h-19.156z" fill="url(#linearGradient3952)" opacity=".45"/>
 </g>
 <g id="layer3">
  <rect id="rect3352" x="10.536" y="23.143" width="75" height="62.679" rx="6" ry="6" fill="url(#linearGradient3361)"/>
  <path id="path3908" d="m15 6c-2.77 0-5 2.23-5 5v59.812c0 2.3933 1.9192 4.3125 4.3125 4.3125h67.375c2.3933 0 4.3125-1.9192 4.3125-4.3125v-55.812c0-2.77-2.23-5-5-5h-40.531c-4.1123-4.1123-4.3665-3.9331-6.3125-4z" fill="url(#linearGradient3105)"/>
  <path id="path3108" d="m15 6c-2.77 0-5 2.23-5 5v59.812c0 2.3933 1.9192 4.3125 4.3125 4.3125h67.375c2.3933 0 4.3125-1.9192 4.3125-4.3125v-55.812c0-2.77-2.23-5-5-5h-40.531c-4.1123-4.1123-4.3665-3.9331-6.3125-4h-19.156zm0 1.0312h19.125 0.03125c0.96498 0.031157 1.1925-0.016972 1.8125 0.34375 0.63029 0.36673 1.7068 1.3318 3.75 3.375a1.0438 1.0438 0 0 0 0.75 0.28125h40.531c2.2099 0 3.9688 1.7589 3.9688 3.9688v55.812c0 1.8353-1.4459 3.2812-3.2812 3.2812h-67.375c-1.8353 0-3.2812-1.4459-3.2812-3.2812v-59.812c0-2.2099 1.7589-3.9688 3.9688-3.9688z" fill="#fff" opacity=".2"/>
 </g>
 <g id="layer1">
  <rect id="rect2419" x="6" y="14" width="84" height="76" rx="6" ry="6" fill="url(#linearGradient3706)"/>
  <path id="rect4377" d="m12 86c-3.324 0-6-2.676-6-6v-60c0-3.324 2.676-6 6-6h72c3.324 0 6 2.676 6 6v60c0 3.324-2.676 6-6 6zm0-0.96875h72c2.8049 0 5.0312-2.2264 5.0312-5.0312v-60c0-2.8049-2.2264-5.0312-5.0312-5.0312h-72c-2.8049 0-5.0312 2.2264-5.0312 5.0312v60c0 2.8049 2.2264 5.0312 5.0312 5.0312z" fill="url(#linearGradient3094)" opacity=".35"/>
  <path id="rect3841" d="m6 78v2c0 3.324 2.676 6 6 6h72c3.324 0 6-2.676 6-6v-2c0 3.324-2.676 6-6 6h-72c-3.324 0-6-2.676-6-6z" fill="#fff" opacity=".1"/>
 </g>
 <g id="layer7">
  <path id="path3067" d="m6 80v4c0 3.324 2.676 6 6 6h72c3.324 0 6-2.676 6-6v-4c0 3.324-2.676 6-6 6h-72c-3.324 0-6-2.676-6-6z" fill="#a17431" opacity=".8"/>
  <path id="path3888" d="m6 80v4c0 3.324 2.676 6 6 6h72c3.324 0 6-2.676 6-6v-4c0 3.324-2.676 6-6 6h-72c-3.324 0-6-2.676-6-6z" fill="url(#linearGradient3077)" opacity=".5"/>
  <path id="rect4345" d="m6 82v2c0 3.324 2.676 6 6 6h72c3.324 0 6-2.676 6-6v-2c0 3.324-2.676 6-6 6h-72c-3.324 0-6-2.676-6-6z" color="#000000" opacity=".1"/>
  <path id="rect4336" d="m6 83v1c0 3.324 2.676 6 6 6h72c3.324 0 6-2.676 6-6v-1c0 3.324-2.676 6-6 6h-72c-3.324 0-6-2.676-6-6z" color="#000000" opacity=".15"/>
 </g>
 <g id="layer5">
  <path id="path3850" d="m15.969 22.531c-2.8459 0.0043-5.4332 2.5916-5.4375 5.4375v48.062c0.0043 2.8459 2.5916 5.4332 5.4375 5.4375h64.062c2.8459-0.0043 5.4332-2.5916 5.4375-5.4375v-48.062c-0.0043-2.8459-2.5916-5.4332-5.4375-5.4375z" clip-path="url(#clipPath3860)" fill="url(#linearGradient3123)" filter="url(#filter3870)" opacity=".15"/>
 </g>
 <g id="layer6">
  <path id="path3717" d="m48 30c-10.749 0-21.486 4.1115-29.688 12.312l4.9375 4.9375c13.668-13.668 35.832-13.668 49.5 0l4.9375-4.9375c-8.201-8.201-18.939-12.312-29.688-12.312zm0 14c-7.1658 0-14.345 2.7202-19.812 8.1875l4.9688 4.9688c8.201-8.201 21.486-8.201 29.688 0l4.9688-4.9688c-5.4673-5.4673-12.647-8.1875-19.812-8.1875zm0 14c-3.5829 0-7.1726 1.3601-9.9062 4.0938l9.9062 9.9062 9.9062-9.9062c-2.7337-2.7337-6.3233-4.0938-9.9062-4.0938z" fill="url(#linearGradient3248)" opacity=".9"/>
  <path id="path3920" d="m48 30c-10.749 0-21.486 4.1115-29.688 12.312l4.9375 4.9375c13.668-13.668 35.832-13.668 49.5 0l4.9375-4.9375c-8.201-8.201-18.939-12.312-29.688-12.312zm0 1.9375c9.634 0 19.191 3.5853 26.812 10.5l-2.1875 2.1875c-14.004-12.59-35.246-12.59-49.25 0l-2.1875-2.1875c7.6213-6.9147 17.178-10.5 26.812-10.5zm0 12.062c-7.1658 0-14.345 2.7202-19.812 8.1875l4.9688 4.9688c8.201-8.201 21.486-8.201 29.688 0l4.9688-4.9688c-5.4673-5.4673-12.647-8.1875-19.812-8.1875zm0 1.9375c6.056 0 12.063 2.1832 16.938 6.375l-2.2188 2.2188c-8.5052-7.1633-20.932-7.1633-29.438 0l-2.2188-2.2188c4.8741-4.1918 10.882-6.375 16.938-6.375zm0 12.062c-3.5829 0-7.1726 1.3601-9.9062 4.0938l9.9062 9.9062 9.9062-9.9062c-2.7337-2.7337-6.3233-4.0938-9.9062-4.0938zm0 1.9375c2.4507 0 4.7917 0.95714 6.875 2.4375l-6.875 6.875-6.875-6.875c2.0833-1.4804 4.4243-2.4375 6.875-2.4375z" fill="url(#linearGradient3904)" opacity=".25"/>
  <path id="path3907" d="m48 30c-10.749 0-21.486 4.1115-29.688 12.312l4.9375 4.9375c13.668-13.668 35.832-13.668 49.5 0l4.9375-4.9375c-8.201-8.201-18.939-12.312-29.688-12.312zm0 1.0312c10.165 0 20.284 3.8223 28.188 11.344l-3.5 3.5c-13.861-13.097-35.514-13.097-49.375 0l-3.5-3.5c7.9039-7.5215 18.023-11.344 28.188-11.344zm0 12.969c-7.1658 0-14.345 2.7202-19.812 8.1875l4.9688 4.9688c8.201-8.201 21.486-8.201 29.688 0l4.9688-4.9688c-5.4673-5.4673-12.647-8.1875-19.812-8.1875zm0 1.0312c6.5836 0 13.146 2.4308 18.312 7.2188l-3.5312 3.5312c-8.3817-7.6347-21.181-7.6347-29.562 0l-3.5312-3.5312c5.1665-4.788 11.729-7.2188 18.312-7.2188zm0 12.969c-3.5829 0-7.1726 1.3601-9.9062 4.0938l9.9062 9.9062 9.9062-9.9062c-2.7337-2.7337-6.3233-4.0938-9.9062-4.0938zm0 1.0312c2.9995 0 5.9858 1.0603 8.4062 3.125l-8.4062 8.4062-8.4062-8.4062c2.4205-2.0647 5.4067-3.125 8.4062-3.125z" fill="url(#linearGradient3904)" opacity=".5"/>
  <path id="path3898" d="m48 30c-10.749 0-21.486 4.1115-29.688 12.312l0.5 0.5c8.1341-7.8703 18.658-11.812 29.188-11.812s21.053 3.9422 29.188 11.812l0.5-0.5c-8.201-8.201-18.939-12.312-29.688-12.312zm0 14c-7.1658 0-14.345 2.7202-19.812 8.1875l0.5 0.5c5.3997-5.1354 12.367-7.6875 19.312-7.6875 6.9454 0 13.913 2.5521 19.312 7.6875l0.5-0.5c-5.4673-5.4673-12.647-8.1875-19.812-8.1875zm0 14c-3.5829 0-7.1726 1.3601-9.9062 4.0938l0.53125 0.53125c2.6612-2.4066 6.0127-3.625 9.375-3.625s6.7138 1.2184 9.375 3.625l0.53125-0.53125c-2.7337-2.7337-6.3233-4.0938-9.9062-4.0938z" fill="url(#linearGradient3904)"/>
  <path id="path3942" d="m48 28c-11.258 0-22.513 4.3251-31.094 12.906-0.0015 0.0015-0.06111 0.06096-0.0625 0.0625-0.0014 0.0015-0.06119 0.09215-0.0625 0.09375-0.0013 0.0016-0.06127 0.06083-0.0625 0.0625-0.0012 0.0017-0.06135 0.09203-0.0625 0.09375-0.0012 0.0017-0.06143 0.06072-0.0625 0.0625-0.0011 0.0018-0.03027 0.09192-0.03125 0.09375-9.77e-4 0.0018-0.06161 0.09188-0.0625 0.09375-8.86e-4 0.0019-0.03046 0.09183-0.03125 0.09375-7.93e-4 0.0019-0.03055 0.0918-0.03125 0.09375-6.98e-4 2e-3 -0.03065 0.06052-0.03125 0.0625-6.01e-4 2e-3 -0.03075 0.09174-0.03125 0.09375-5.03e-4 2e-3 -0.03085 0.12297-0.03125 0.125-4.04e-4 2e-3 3.04e-4 0.0917 0 0.09375-3.04e-4 0.0021-0.03105 0.09169-0.03125 0.09375-2.03e-4 0.0021 1.02e-4 0.09168 0 0.09375-1.02e-4 0.0021 0 0.09168 0 0.09375 0 0.0021-1.02e-4 0.09168 0 0.09375 1.02e-4 0.0021-2.03e-4 0.09169 0 0.09375 2.03e-4 0.0021 0.03095 0.0917 0.03125 0.09375 3.04e-4 0.0021-4.04e-4 0.09172 0 0.09375 4.04e-4 2e-3 0.03075 0.12299 0.03125 0.125 5.03e-4 2e-3 0.03065 0.09177 0.03125 0.09375 6.01e-4 2e-3 0.03055 0.06055 0.03125 0.0625 6.98e-4 2e-3 0.03046 0.09183 0.03125 0.09375 7.93e-4 0.0019 0.03036 0.09188 0.03125 0.09375 8.86e-4 0.0019 0.06152 0.09192 0.0625 0.09375 9.77e-4 0.0018 0.03018 0.09197 0.03125 0.09375 0.0011 0.0018 0.06135 0.06078 0.0625 0.0625 0.0012 0.0017 0.06127 0.09208 0.0625 0.09375 0.0012 0.0017 0.06119 0.0609 0.0625 0.0625 0.0013 0.0016 0.06111 0.09221 0.0625 0.09375 0.0014 0.0015 0.06104 0.06103 0.0625 0.0625l4.9375 4.9375c0.0015 0.0015 0.06096 0.06111 0.0625 0.0625 0.0015 0.0014 0.09215 0.06119 0.09375 0.0625 0.0016 0.0013 0.06083 0.06127 0.0625 0.0625 0.0017 0.0012 0.09203 0.06135 0.09375 0.0625 0.0017 0.0012 0.06072 0.06144 0.0625 0.0625 0.0018 0.0011 0.09192 0.03027 0.09375 0.03125 0.0018 9.77e-4 0.09188 0.06161 0.09375 0.0625 0.0019 8.86e-4 0.09183 0.03046 0.09375 0.03125 0.0019 7.93e-4 0.0918 0.03055 0.09375 0.03125 2e-3 6.98e-4 0.06052 0.03065 0.0625 0.03125 2e-3 6.01e-4 0.09174 0.03075 0.09375 0.03125 2e-3 5.03e-4 0.12297 0.03085 0.125 0.03125 2e-3 4.04e-4 0.0917-3.04e-4 0.09375 0 0.0021 3.04e-4 0.09169 0.03105 0.09375 0.03125 0.0021 2.03e-4 0.09168-1.02e-4 0.09375 0 0.0021 1.02e-4 0.09168 0 0.09375 0 0.0021 0 0.09168 1.02e-4 0.09375 0 0.0021-1.02e-4 0.09169 2.03e-4 0.09375 0 0.0021-2.03e-4 0.0917-0.03095 0.09375-0.03125 0.0021-3.04e-4 0.09172 4.04e-4 0.09375 0 2e-3 -4.04e-4 0.12299-0.03075 0.125-0.03125 2e-3 -5.03e-4 0.09177-0.03065 0.09375-0.03125 2e-3 -6.01e-4 0.06055-0.03055 0.0625-0.03125 2e-3 -6.98e-4 0.09183-0.03046 0.09375-0.03125 0.0019-7.93e-4 0.09188-0.03036 0.09375-0.03125 0.0019-8.86e-4 0.09192-0.06152 0.09375-0.0625 0.0018-9.77e-4 0.09197-0.03019 0.09375-0.03125 0.0018-0.0011 0.06078-0.06135 0.0625-0.0625 0.0017-0.0012 0.09208-0.06127 0.09375-0.0625 0.0017-0.0012 0.0609-0.06119 0.0625-0.0625 0.0016-0.0013 0.09221-0.06111 0.09375-0.0625 0.0015-0.0014 0.06103-0.06103 0.0625-0.0625 12.906-12.906 33.781-12.906 46.688 0 0.0015 0.0015 0.06096 0.06111 0.0625 0.0625 0.0015 0.0014 0.09215 0.06119 0.09375 0.0625 0.0016 0.0013 0.06083 0.06127 0.0625 0.0625 0.0017 0.0012 0.09203 0.06135 0.09375 0.0625 0.0017 0.0012 0.06072 0.06144 0.0625 0.0625 0.0018 0.0011 0.09192 0.03027 0.09375 0.03125 0.0018 9.77e-4 0.09188 0.06161 0.09375 0.0625 0.0019 8.86e-4 0.09183 0.03046 0.09375 0.03125 0.0019 7.93e-4 0.0918 0.03055 0.09375 0.03125 2e-3 6.98e-4 0.06052 0.03065 0.0625 0.03125 2e-3 6.01e-4 0.09174 0.03075 0.09375 0.03125 2e-3 5.03e-4 0.12297 0.03085 0.125 0.03125 2e-3 4.04e-4 0.0917-3.04e-4 0.09375 0 0.0021 3.04e-4 0.09169 0.03105 0.09375 0.03125 0.0021 2.03e-4 0.09168-1.02e-4 0.09375 0 0.0021 1.02e-4 0.09168 0 0.09375 0 0.0021 0 0.09168 1.02e-4 0.09375 0 0.0021-1.02e-4 0.09169 2.03e-4 0.09375 0 0.0021-2.03e-4 0.0917-0.03095 0.09375-0.03125 0.0021-3.04e-4 0.09172 4.04e-4 0.09375 0 2e-3 -4.04e-4 0.12299-0.03075 0.125-0.03125 2e-3 -5.03e-4 0.09177-0.03065 0.09375-0.03125 2e-3 -6.01e-4 0.06055-0.03055 0.0625-0.03125 2e-3 -6.98e-4 0.09183-0.03046 0.09375-0.03125 0.0019-7.93e-4 0.09188-0.03036 0.09375-0.03125 0.0019-8.86e-4 0.09192-0.06152 0.09375-0.0625 0.0018-9.77e-4 0.09197-0.03019 0.09375-0.03125 0.0018-0.0011 0.06078-0.06135 0.0625-0.0625 0.0017-0.0012 0.09208-0.06127 0.09375-0.0625 0.0017-0.0012 0.0609-0.06119 0.0625-0.0625 0.0016-0.0013 0.09221-0.06111 0.09375-0.0625 0.0015-0.0014 0.06103-0.06103 0.0625-0.0625l4.9375-4.9375c0.0015-0.0015 0.06111-0.06096 0.0625-0.0625 0.0014-0.0015 0.06119-0.09215 0.0625-0.09375 0.0013-0.0016 0.06127-0.06083 0.0625-0.0625 0.0012-0.0017 0.06135-0.09203 0.0625-0.09375 0.0012-0.0017 0.06144-0.06072 0.0625-0.0625 0.0011-0.0018 0.03027-0.09192 0.03125-0.09375 9.77e-4 -0.0018 0.06161-0.09188 0.0625-0.09375 8.86e-4 -0.0019 0.03046-0.09183 0.03125-0.09375 7.93e-4 -0.0019 0.03055-0.0918 0.03125-0.09375 6.98e-4 -2e-3 0.03065-0.06052 0.03125-0.0625 6.01e-4 -2e-3 0.03075-0.09174 0.03125-0.09375 5.03e-4 -2e-3 0.03085-0.12297 0.03125-0.125 4.04e-4 -2e-3 -3.04e-4 -0.0917 0-0.09375 3.04e-4 -0.0021 0.03105-0.09169 0.03125-0.09375 2.03e-4 -0.0021-1.02e-4 -0.09168 0-0.09375 1.02e-4 -0.0021 0-0.09168 0-0.09375 0-0.0021 1.02e-4 -0.09168 0-0.09375-1.02e-4 -0.0021 2.03e-4 -0.09169 0-0.09375-2.03e-4 -0.0021-0.03095-0.0917-0.03125-0.09375-3.04e-4 -0.0021 4.04e-4 -0.09172 0-0.09375-4.04e-4 -2e-3 -0.03075-0.12299-0.03125-0.125-5.03e-4 -2e-3 -0.03065-0.09177-0.03125-0.09375-6.01e-4 -2e-3 -0.03055-0.06055-0.03125-0.0625-6.98e-4 -2e-3 -0.03046-0.09183-0.03125-0.09375-7.93e-4 -0.0019-0.03036-0.09188-0.03125-0.09375-8.86e-4 -0.0019-0.06152-0.09192-0.0625-0.09375-9.77e-4 -0.0018-0.03019-0.09197-0.03125-0.09375-0.0011-0.0018-0.06135-0.06078-0.0625-0.0625-0.0012-0.0017-0.06127-0.09208-0.0625-0.09375-0.0012-0.0017-0.06119-0.0609-0.0625-0.0625-0.0013-0.0016-0.06111-0.09221-0.0625-0.09375-0.0014-0.0015-0.06104-0.06103-0.0625-0.0625-8.5812-8.5812-19.836-12.906-31.094-12.906zm0 2c10.749 0 21.486 4.1115 29.688 12.312l-4.9375 4.9375c-13.668-13.668-35.832-13.668-49.5 0l-4.9375-4.9375c8.201-8.201 18.939-12.312 29.688-12.312zm0 12c-7.6714 0-15.368 2.9302-21.219 8.7812-0.0015 0.0015-0.06111 0.06096-0.0625 0.0625-0.0014 0.0015-0.06119 0.09215-0.0625 0.09375-0.0013 0.0016-0.06127 0.06083-0.0625 0.0625-0.0012 0.0017-0.06135 0.09203-0.0625 0.09375-0.0012 0.0017-0.06143 0.06072-0.0625 0.0625-0.0011 0.0018-0.03027 0.09192-0.03125 0.09375-9.77e-4 0.0018-0.06161 0.09188-0.0625 0.09375-8.86e-4 0.0019-0.03046 0.09183-0.03125 0.09375-7.93e-4 0.0019-0.03055 0.0918-0.03125 0.09375-6.98e-4 2e-3 -0.03065 0.06052-0.03125 0.0625-6.01e-4 2e-3 -0.03075 0.09174-0.03125 0.09375-5.03e-4 2e-3 -0.03085 0.12297-0.03125 0.125-4.04e-4 2e-3 3.04e-4 0.0917 0 0.09375-3.04e-4 0.0021-0.03105 0.09169-0.03125 0.09375-2.03e-4 0.0021 1.02e-4 0.09168 0 0.09375-1.02e-4 0.0021 0 0.09168 0 0.09375 0 0.0021-1.02e-4 0.09168 0 0.09375 1.02e-4 0.0021-2.03e-4 0.09169 0 0.09375 2.03e-4 0.0021 0.03095 0.0917 0.03125 0.09375 3.04e-4 0.0021-4.04e-4 0.09172 0 0.09375 4.04e-4 2e-3 0.03075 0.12299 0.03125 0.125 5.03e-4 2e-3 0.03065 0.09177 0.03125 0.09375 6.01e-4 2e-3 0.03055 0.06055 0.03125 0.0625 6.98e-4 2e-3 0.03046 0.09183 0.03125 0.09375 7.93e-4 0.0019 0.03036 0.09188 0.03125 0.09375 8.86e-4 0.0019 0.06152 0.09192 0.0625 0.09375 9.77e-4 0.0018 0.03018 0.09197 0.03125 0.09375 0.0011 0.0018 0.06135 0.06078 0.0625 0.0625 0.0012 0.0017 0.06127 0.09208 0.0625 0.09375 0.0012 0.0017 0.06119 0.0609 0.0625 0.0625 0.0013 0.0016 0.06111 0.09221 0.0625 0.09375 0.0014 0.0015 0.06104 0.06103 0.0625 0.0625l4.9688 4.9688c0.0015 0.0015 0.06096 0.06111 0.0625 0.0625 0.0015 0.0014 0.09215 0.06119 0.09375 0.0625 0.0016 0.0013 0.06083 0.06127 0.0625 0.0625 0.0017 0.0012 0.09203 0.06135 0.09375 0.0625 0.0017 0.0012 0.06072 0.06144 0.0625 0.0625 0.0018 0.0011 0.09192 0.03027 0.09375 0.03125 0.0018 9.77e-4 0.09188 0.06161 0.09375 0.0625 0.0019 8.86e-4 0.09183 0.03046 0.09375 0.03125 0.0019 7.93e-4 0.0918 0.03055 0.09375 0.03125 2e-3 6.98e-4 0.06052 0.03065 0.0625 0.03125 2e-3 6.01e-4 0.09174 0.03075 0.09375 0.03125 2e-3 5.03e-4 0.12297 0.03085 0.125 0.03125 2e-3 4.04e-4 0.0917-3.04e-4 0.09375 0 0.0021 3.04e-4 0.09169 0.03105 0.09375 0.03125 0.0021 2.03e-4 0.09168-1.02e-4 0.09375 0 0.0021 1.02e-4 0.09168 0 0.09375 0 0.0021 0 0.09168 1.02e-4 0.09375 0 0.0021-1.02e-4 0.09169 2.03e-4 0.09375 0 0.0021-2.03e-4 0.0917-0.03095 0.09375-0.03125 0.0021-3.04e-4 0.09172 4.04e-4 0.09375 0 2e-3 -4.04e-4 0.12299-0.03075 0.125-0.03125 2e-3 -5.03e-4 0.09177-0.03065 0.09375-0.03125 2e-3 -6.01e-4 0.06055-0.03055 0.0625-0.03125 2e-3 -6.98e-4 0.09183-0.03046 0.09375-0.03125 0.0019-7.93e-4 0.09188-0.03036 0.09375-0.03125 0.0019-8.86e-4 0.09192-0.06152 0.09375-0.0625 0.0018-9.77e-4 0.09197-0.03019 0.09375-0.03125 0.0018-0.0011 0.06078-0.06135 0.0625-0.0625 0.0017-0.0012 0.09208-0.06127 0.09375-0.0625 0.0017-0.0012 0.0609-0.06119 0.0625-0.0625 0.0016-0.0013 0.09221-0.06111 0.09375-0.0625 0.0015-0.0014 0.06103-0.06103 0.0625-0.0625 7.4399-7.4399 19.435-7.4399 26.875 0 0.0015 0.0015 0.06096 0.06111 0.0625 0.0625 0.0015 0.0014 0.09215 0.06119 0.09375 0.0625 0.0016 0.0013 0.06083 0.06127 0.0625 0.0625 0.0017 0.0012 0.09203 0.06135 0.09375 0.0625 0.0017 0.0012 0.06072 0.06144 0.0625 0.0625 0.0018 0.0011 0.09192 0.03027 0.09375 0.03125 0.0018 9.77e-4 0.09188 0.06161 0.09375 0.0625 0.0019 8.86e-4 0.09183 0.03046 0.09375 0.03125 0.0019 7.93e-4 0.0918 0.03055 0.09375 0.03125 2e-3 6.98e-4 0.06052 0.03065 0.0625 0.03125 2e-3 6.01e-4 0.09174 0.03075 0.09375 0.03125 2e-3 5.03e-4 0.12297 0.03085 0.125 0.03125 2e-3 4.04e-4 0.0917-3.04e-4 0.09375 0 0.0021 3.04e-4 0.09169 0.03105 0.09375 0.03125 0.0021 2.03e-4 0.09168-1.02e-4 0.09375 0 0.0021 1.02e-4 0.09168 0 0.09375 0 0.0021 0 0.09168 1.02e-4 0.09375 0 0.0021-1.02e-4 0.09169 2.03e-4 0.09375 0 0.0021-2.03e-4 0.0917-0.03095 0.09375-0.03125 0.0021-3.04e-4 0.09172 4.04e-4 0.09375 0 2e-3 -4.04e-4 0.12299-0.03075 0.125-0.03125 2e-3 -5.03e-4 0.09177-0.03065 0.09375-0.03125 2e-3 -6.01e-4 0.06055-0.03055 0.0625-0.03125 2e-3 -6.98e-4 0.09183-0.03046 0.09375-0.03125 0.0019-7.93e-4 0.09188-0.03036 0.09375-0.03125 0.0019-8.86e-4 0.09192-0.06152 0.09375-0.0625 0.0018-9.77e-4 0.09197-0.03019 0.09375-0.03125 0.0018-0.0011 0.06078-0.06135 0.0625-0.0625 0.0017-0.0012 0.09208-0.06127 0.09375-0.0625 0.0017-0.0012 0.0609-0.06119 0.0625-0.0625 0.0016-0.0013 0.09221-0.06111 0.09375-0.0625 0.0015-0.0014 0.06103-0.06103 0.0625-0.0625l4.9688-4.9688c0.0015-0.0015 0.06111-0.06096 0.0625-0.0625 0.0014-0.0015 0.06119-0.09215 0.0625-0.09375 0.0013-0.0016 0.06127-0.06083 0.0625-0.0625 0.0012-0.0017 0.06135-0.09203 0.0625-0.09375 0.0012-0.0017 0.06144-0.06072 0.0625-0.0625 0.0011-0.0018 0.03027-0.09192 0.03125-0.09375 9.77e-4 -0.0018 0.06161-0.09188 0.0625-0.09375 8.86e-4 -0.0019 0.03046-0.09183 0.03125-0.09375 7.93e-4 -0.0019 0.03055-0.0918 0.03125-0.09375 6.98e-4 -2e-3 0.03065-0.06052 0.03125-0.0625 6.01e-4 -2e-3 0.03075-0.09174 0.03125-0.09375 5.03e-4 -2e-3 0.03085-0.12297 0.03125-0.125 4.04e-4 -2e-3 -3.04e-4 -0.0917 0-0.09375 3.04e-4 -0.0021 0.03105-0.09169 0.03125-0.09375 2.03e-4 -0.0021-1.02e-4 -0.09168 0-0.09375 1.02e-4 -0.0021 0-0.09168 0-0.09375 0-0.0021 1.02e-4 -0.09168 0-0.09375-1.02e-4 -0.0021 2.03e-4 -0.09169 0-0.09375-2.03e-4 -0.0021-0.03095-0.0917-0.03125-0.09375-3.04e-4 -0.0021 4.04e-4 -0.09172 0-0.09375-4.04e-4 -2e-3 -0.03075-0.12299-0.03125-0.125-5.03e-4 -2e-3 -0.03065-0.09177-0.03125-0.09375-6.01e-4 -2e-3 -0.03055-0.06055-0.03125-0.0625-6.98e-4 -2e-3 -0.03046-0.09183-0.03125-0.09375-7.93e-4 -0.0019-0.03036-0.09188-0.03125-0.09375-8.86e-4 -0.0019-0.06152-0.09192-0.0625-0.09375-9.77e-4 -0.0018-0.03019-0.09197-0.03125-0.09375-0.0011-0.0018-0.06135-0.06078-0.0625-0.0625-0.0012-0.0017-0.06127-0.09208-0.0625-0.09375-0.0012-0.0017-0.06119-0.0609-0.0625-0.0625-0.0013-0.0016-0.06111-0.09221-0.0625-0.09375-0.0014-0.0015-0.06104-0.06103-0.0625-0.0625-5.8511-5.8511-13.547-8.7812-21.219-8.7812zm0 2c7.1658 0 14.345 2.7202 19.812 8.1875l-4.9688 4.9688c-8.201-8.201-21.486-8.201-29.688 0l-4.9688-4.9688c5.4673-5.4673 12.647-8.1875 19.812-8.1875zm0 12c-4.089 0-8.195 1.57-11.312 4.6875-0.0015 0.0015-0.06111 0.06096-0.0625 0.0625-0.0014 0.0015-0.06119 0.09215-0.0625 0.09375-0.0013 0.0016-0.06127 0.06083-0.0625 0.0625-0.0012 0.0017-0.06135 0.09203-0.0625 0.09375-0.0012 0.0017-0.06144 0.06072-0.0625 0.0625-0.0011 0.0018-0.03027 0.09192-0.03125 0.09375-9.77e-4 0.0018-0.06161 0.09188-0.0625 0.09375-8.86e-4 0.0019-0.03046 0.09183-0.03125 0.09375-7.93e-4 0.0019-0.03055 0.0918-0.03125 0.09375-6.98e-4 2e-3 -0.03065 0.06052-0.03125 0.0625-6.01e-4 2e-3 -0.03075 0.09174-0.03125 0.09375-5.03e-4 2e-3 -0.03085 0.12297-0.03125 0.125-4.04e-4 2e-3 3.04e-4 0.0917 0 0.09375-3.04e-4 0.0021-0.03105 0.09169-0.03125 0.09375-2.03e-4 0.0021 1.02e-4 0.09168 0 0.09375-1.02e-4 0.0021 0 0.09168 0 0.09375 0 0.0021-1.02e-4 0.09168 0 0.09375 1.02e-4 0.0021-2.03e-4 0.09169 0 0.09375 2.03e-4 0.0021 0.03095 0.0917 0.03125 0.09375 3.04e-4 0.0021-4.04e-4 0.09172 0 0.09375 4.04e-4 2e-3 0.03075 0.12299 0.03125 0.125 5.03e-4 2e-3 0.03065 0.09177 0.03125 0.09375 6.01e-4 2e-3 0.03055 0.06055 0.03125 0.0625 6.98e-4 2e-3 0.03046 0.09183 0.03125 0.09375 7.93e-4 0.0019 0.03036 0.09188 0.03125 0.09375 8.86e-4 0.0019 0.06152 0.09192 0.0625 0.09375 9.77e-4 0.0018 0.03019 0.09197 0.03125 0.09375 0.0011 0.0018 0.06135 0.06078 0.0625 0.0625 0.0012 0.0017 0.06127 0.09208 0.0625 0.09375 0.0012 0.0017 0.06119 0.0609 0.0625 0.0625 0.0013 0.0016 0.06111 0.09221 0.0625 0.09375 0.0014 0.0015 0.06103 0.06103 0.0625 0.0625l9.9062 9.9062c0.0015 0.0015 0.06096 0.06111 0.0625 0.0625 0.0015 0.0014 0.09215 0.06119 0.09375 0.0625 0.0016 0.0013 0.06083 0.06127 0.0625 0.0625 0.0017 0.0012 0.09203 0.06135 0.09375 0.0625 0.0017 0.0012 0.06072 0.06144 0.0625 0.0625 0.0018 0.0011 0.09192 0.03027 0.09375 0.03125 0.0018 9.77e-4 0.09188 0.06161 0.09375 0.0625 0.0019 8.86e-4 0.09183 0.03046 0.09375 0.03125 0.0019 7.93e-4 0.0918 0.03055 0.09375 0.03125 2e-3 6.98e-4 0.06052 0.03065 0.0625 0.03125 2e-3 6.01e-4 0.09174 0.03075 0.09375 0.03125 2e-3 5.03e-4 0.12297 0.03085 0.125 0.03125 2e-3 4.04e-4 0.0917-3.04e-4 0.09375 0 0.0021 3.04e-4 0.09169 0.03105 0.09375 0.03125 0.0021 2.03e-4 0.09168-1.02e-4 0.09375 0 0.0021 1.02e-4 0.09168 0 0.09375 0 0.0021 0 0.09168 1.02e-4 0.09375 0 0.0021-1.02e-4 0.09169 2.03e-4 0.09375 0 0.0021-2.03e-4 0.0917-0.03095 0.09375-0.03125 0.0021-3.04e-4 0.09172 4.04e-4 0.09375 0 2e-3 -4.04e-4 0.12299-0.03075 0.125-0.03125 2e-3 -5.03e-4 0.09177-0.03065 0.09375-0.03125 2e-3 -6.01e-4 0.06055-0.03055 0.0625-0.03125 2e-3 -6.98e-4 0.09183-0.03046 0.09375-0.03125 0.0019-7.93e-4 0.09188-0.03036 0.09375-0.03125 0.0019-8.86e-4 0.09192-0.06152 0.09375-0.0625 0.0018-9.77e-4 0.09197-0.03019 0.09375-0.03125 0.0018-0.0011 0.06078-0.06135 0.0625-0.0625 0.0017-0.0012 0.09208-0.06127 0.09375-0.0625 0.0017-0.0012 0.0609-0.06119 0.0625-0.0625 0.0016-0.0013 0.09221-0.06111 0.09375-0.0625 0.0015-0.0014 0.06103-0.06104 0.0625-0.0625l9.9062-9.9062c0.0015-0.0015 0.06111-0.06096 0.0625-0.0625 0.0014-0.0015 0.06119-0.09215 0.0625-0.09375 0.0013-0.0016 0.06127-0.06083 0.0625-0.0625 0.0012-0.0017 0.06135-0.09203 0.0625-0.09375 0.0012-0.0017 0.06144-0.06072 0.0625-0.0625 0.0011-0.0018 0.03027-0.09192 0.03125-0.09375 9.77e-4 -0.0018 0.06161-0.09188 0.0625-0.09375 8.86e-4 -0.0019 0.03046-0.09183 0.03125-0.09375 7.93e-4 -0.0019 0.03055-0.0918 0.03125-0.09375 6.98e-4 -2e-3 0.03065-0.06052 0.03125-0.0625 6.01e-4 -2e-3 0.03075-0.09174 0.03125-0.09375 5.03e-4 -2e-3 0.03085-0.12297 0.03125-0.125 4.04e-4 -2e-3 -3.04e-4 -0.0917 0-0.09375 3.04e-4 -0.0021 0.03105-0.09169 0.03125-0.09375 2.03e-4 -0.0021-1.02e-4 -0.09168 0-0.09375 1.02e-4 -0.0021 0-0.09168 0-0.09375 0-0.0021 1.02e-4 -0.09168 0-0.09375-1.02e-4 -0.0021 2.03e-4 -0.09169 0-0.09375-2.03e-4 -0.0021-0.03095-0.0917-0.03125-0.09375-3.04e-4 -0.0021 4.04e-4 -0.09172 0-0.09375-4.04e-4 -2e-3 -0.03075-0.12299-0.03125-0.125-5.03e-4 -2e-3 -0.03065-0.09177-0.03125-0.09375-6.01e-4 -2e-3 -0.03055-0.06055-0.03125-0.0625-6.98e-4 -2e-3 -0.03046-0.09183-0.03125-0.09375-7.93e-4 -0.0019-0.03036-0.09188-0.03125-0.09375-8.86e-4 -0.0019-0.06152-0.09192-0.0625-0.09375-9.77e-4 -0.0018-0.03019-0.09197-0.03125-0.09375-0.0011-0.0018-0.06135-0.06078-0.0625-0.0625-0.0012-0.0017-0.06127-0.09208-0.0625-0.09375-0.0012-0.0017-0.06119-0.0609-0.0625-0.0625-0.0013-0.0016-0.06111-0.09221-0.0625-0.09375-0.0014-0.0015-0.06103-0.06103-0.0625-0.0625-3.1175-3.1175-7.2235-4.6875-11.312-4.6875zm0 2c3.5829 0 7.1726 1.3601 9.9062 4.0938l-9.9062 9.9062-9.9062-9.9062c2.7337-2.7337 6.3233-4.0938 9.9062-4.0938z" fill="#fff" opacity=".05"/>
  <path id="path3938" d="m48 28.938c-11.019 0-22.034 4.2219-30.438 12.625a1.0613 1.0613 0 0 0 0 1.5l4.9375 4.9375a1.0613 1.0613 0 0 0 1.5 0c13.263-13.263 34.737-13.263 48 0a1.0613 1.0613 0 0 0 1.5 0l4.9375-4.9375a1.0613 1.0613 0 0 0 0-1.5c-8.4031-8.4031-19.418-12.625-30.438-12.625zm0 1.0625c10.749 0 21.486 4.1115 29.688 12.312l-4.9375 4.9375c-13.668-13.668-35.832-13.668-49.5 0l-4.9375-4.9375c8.201-8.201 18.939-12.312 29.688-12.312zm0 12.938c-7.4344 0-14.891 2.8287-20.562 8.5a1.0613 1.0613 0 0 0 0 1.5l4.9688 4.9688a1.0613 1.0613 0 0 0 1.5 0c7.7958-7.7958 20.392-7.7958 28.188 0a1.0613 1.0613 0 0 0 1.5 0l4.9688-4.9688a1.0613 1.0613 0 0 0 0-1.5c-5.6713-5.6713-13.128-8.5-20.562-8.5zm0 1.0625c7.1658 0 14.345 2.7202 19.812 8.1875l-4.9688 4.9688c-8.201-8.201-21.486-8.201-29.688 0l-4.9688-4.9688c5.4673-5.4673 12.647-8.1875 19.812-8.1875zm0 12.938c-3.8515 0-7.7186 1.4686-10.656 4.4062a1.0613 1.0613 0 0 0 0 1.5l9.9062 9.9062a1.0613 1.0613 0 0 0 1.5 0l9.9062-9.9062a1.0613 1.0613 0 0 0 0-1.5c-2.9377-2.9377-6.8048-4.4062-10.656-4.4062zm0 1.0625c3.5829 0 7.1726 1.3601 9.9062 4.0938l-9.9062 9.9062-9.9062-9.9062c2.7337-2.7337 6.3233-4.0938 9.9062-4.0938z" fill="#fff" opacity=".1"/>
  <path id="path3975-5" d="m48 37c-8.9579 0-17.916 3.4158-24.75 10.25l-4.4375-4.4375c-0.16939 0.16389-0.3327 0.3327-0.5 0.5l4.9375 4.9375c13.668-13.668 35.832-13.668 49.5 0l4.9375-4.9375c-0.1673-0.1673-0.33061-0.33611-0.5-0.5l-4.4375 4.4375c-6.8342-6.8342-15.792-10.25-24.75-10.25zm0 14c-5.3716 0-10.743 2.0557-14.844 6.1562l-4.4688-4.4688c-0.17138 0.16299-0.33181 0.33181-0.5 0.5l4.9688 4.9688c8.201-8.201 21.486-8.201 29.688 0l4.9688-4.9688c-0.16819-0.16819-0.32862-0.33701-0.5-0.5l-4.4688 4.4688c-4.1005-4.1005-9.4721-6.1562-14.844-6.1562zm-9.375 11.625c-0.17464 0.15794-0.3629 0.3004-0.53125 0.46875l9.9062 9.9062 9.9062-9.9062c-0.16835-0.16835-0.35661-0.31081-0.53125-0.46875l-9.375 9.375-9.375-9.375z" fill="#fff" opacity=".2"/>
 </g>
</svg>
