<?xml version="1.0" encoding="UTF-8"?>
<svg id="svg2408" width="96" height="96" version="1.0" xmlns="http://www.w3.org/2000/svg" xmlns:cc="http://creativecommons.org/ns#" xmlns:dc="http://purl.org/dc/elements/1.1/" xmlns:rdf="http://www.w3.org/1999/02/22-rdf-syntax-ns#" xmlns:xlink="http://www.w3.org/1999/xlink">
 <defs id="defs2410">
  <linearGradient id="linearGradient3361" x1="48.036" x2="48.036" y1="25.911" y2="85.821" gradientTransform="scale(1.0599 .94353)" gradientUnits="userSpaceOnUse">
   <stop id="stop3319" stop-color="#c6953a" offset="0"/>
   <stop id="stop3321" stop-color="#ab7a1f" offset="1"/>
  </linearGradient>
  <linearGradient id="ButtonShadow" x1="45.448" x2="45.448" y1="80.472" y2="7.0165" gradientTransform="matrix(1.0059 0 0 .99417 0 12)" gradientUnits="userSpaceOnUse">
   <stop id="stop3750" offset="0"/>
   <stop id="stop3752" stop-opacity=".58824" offset="1"/>
  </linearGradient>
  <linearGradient id="linearGradient3706" x1="48" x2="48" y1="78" y2="5.9877" gradientTransform="translate(0,8)" gradientUnits="userSpaceOnUse">
   <stop id="stop3189" stop-color="#c29656" offset="0"/>
   <stop id="stop3191" stop-color="#ddc08b" offset="1"/>
  </linearGradient>
  <filter id="filter3174" color-interpolation-filters="sRGB">
   <feGaussianBlur id="feGaussianBlur3176" stdDeviation="1.71"/>
  </filter>
  <linearGradient id="linearGradient3664" x1="45.448" x2="45.448" y1="80.472" y2="5.2972" gradientTransform="matrix(1.0059 0 0 .99417 0 12)" gradientUnits="userSpaceOnUse" xlink:href="#ButtonShadow"/>
  <clipPath id="clipPath3860">
   <rect id="rect3862" x="6" y="18" width="84" height="72" rx="6" ry="6" fill="#f0f"/>
  </clipPath>
  <filter id="filter3870" x="-.16559" y="-.19716" width="1.3312" height="1.3943" color-interpolation-filters="sRGB">
   <feGaussianBlur id="feGaussianBlur3872" stdDeviation="5.1703125"/>
  </filter>
  <linearGradient id="linearGradient3699">
   <stop id="stop3701" stop-color="#aa7932" stop-opacity=".78431" offset="0"/>
   <stop id="stop3703" stop-color="#aa7932" stop-opacity=".39216" offset="1"/>
  </linearGradient>
  <linearGradient id="linearGradient3077" x1="90" x2="48" y1="88" y2="88" gradientUnits="userSpaceOnUse" spreadMethod="reflect">
   <stop id="stop3894" stop-opacity=".58824" offset="0"/>
   <stop id="stop3896" stop-opacity=".47059" offset=".1178"/>
   <stop id="stop3898" stop-opacity=".39216" offset=".2381"/>
   <stop id="stop3900" stop-opacity=".31373" offset="1"/>
  </linearGradient>
  <linearGradient id="linearGradient3094" x1="48" x2="48" y1="75.083" y2="-40" gradientTransform="matrix(1,0,0,-1,0,92)" gradientUnits="userSpaceOnUse">
   <stop id="stop4386" stop-color="#fff" offset="0"/>
   <stop id="stop4388" stop-color="#fff" stop-opacity="0" offset="1"/>
  </linearGradient>
  <linearGradient id="linearGradient3123" x1="48.022" x2="48.022" y1="22.933" y2="81.481" gradientUnits="userSpaceOnUse">
   <stop id="stop3876" stop-color="#fff" offset="0"/>
   <stop id="stop3878" stop-color="#fff" stop-opacity="0" offset="1"/>
  </linearGradient>
  <linearGradient id="linearGradient3105" x1="34.86" x2="34.86" y1="16.275" y2="26.987" gradientTransform="matrix(.72 0 0 .72 1.92 -5.52)" gradientUnits="userSpaceOnUse">
   <stop id="stop4010" stop-color="#dab980" offset="0"/>
   <stop id="stop4012" stop-color="#c29856" offset=".71692"/>
   <stop id="stop4014" stop-color="#a2773a" offset="1"/>
  </linearGradient>
  <linearGradient id="linearGradient3952" x1="43" x2="43" y1="91" y2="7" gradientUnits="userSpaceOnUse" xlink:href="#ButtonShadow"/>
  <linearGradient id="linearGradient3961" x1="45" x2="45" y1="92" y2="7" gradientUnits="userSpaceOnUse" xlink:href="#ButtonShadow"/>
  <linearGradient id="linearGradient3100" x1="49" x2="49" y1="72" y2="38.758" gradientTransform="translate(-2,-6)" gradientUnits="userSpaceOnUse" xlink:href="#linearGradient3699"/>
 </defs>
 <metadata id="metadata2413">
  <rdf:RDF>
   <cc:Work rdf:about="">
    <dc:format>image/svg+xml</dc:format>
    <dc:type rdf:resource="http://purl.org/dc/dcmitype/StillImage"/>
    <dc:title/>
   </cc:Work>
  </rdf:RDF>
 </metadata>
 <g id="layer2" display="none">
  <path id="rect3745" d="m14.969 8.8029c-1.6398 0-2.9688 1.2823-2.9688 2.875v7.3221c-3.324 0-7 2.676-7 6v61c0 3.324 2.676 6 6 6h74c3.324 0 6-2.676 6-6v-61c0-3.324-3.7474-6-7.0714-6v-0.13461c0-2.3891-1.9777-4.3125-4.4375-4.3125h-43.335l-1.4688-2.875c-0.73336-1.4246-1.3289-2.875-2.9688-2.875h-16.75z" fill="url(#linearGradient3664)" filter="url(#filter3174)" opacity=".9"/>
 </g>
 <g id="layer4">
  <path id="path3984" d="m14.125 4c-4.4339 0-8.125 3.5684-8.125 8v2.1562c-2.3764 1.8021-4 4.6028-4 7.8438v63c0 5.5036 4.4964 10 10 10h72c5.5036 0 10-4.4964 10-10v-63c0-3.4834-1.8534-6.4531-4.5312-8.2188-0.9872-3.2895-3.9427-5.7812-7.5938-5.7812h-39.5c-1.4026-1.3548-2.5397-2.5096-3.6875-3.1562-1.4952-0.84233-2.9309-0.81421-3.8125-0.84375a0.9278 0.9278 0 0 0-0.03125 0c-0.0012-1.73e-5 -0.03009-1.73e-5 -0.03125 0h-0.03125-20.656z" fill="url(#linearGradient3961)" opacity=".08"/>
  <path id="path3975" d="m14.125 4.9375c-3.9406 0-7.1875 3.1433-7.1875 7.0625v2.5938c-2.3826 1.6221-4 4.2939-4 7.4062v63c0 5.0014 4.0611 9.0625 9.0625 9.0625h72c5.0014 0 9.0625-4.0611 9.0625-9.0625v-63c0-3.2608-1.7732-6.0397-4.3438-7.625-0.76119-3.0957-3.4773-5.4375-6.8438-5.4375h-39.812c-1.5975-1.5412-2.7721-2.6775-3.8438-3.2812-1.2732-0.71724-2.4475-0.68767-3.375-0.71875a1.0438 1.0438 0 0 0-0.03125 0h-0.03125-20.656z" fill="url(#linearGradient3961)" opacity=".1"/>
  <path id="path3967" d="m14.125 5.9688c-3.3887 0-6.1562 2.688-6.1562 6.0312v3.125c-2.3751 1.394-4 3.9205-4 6.875v63c0 4.4381 3.5931 8.0312 8.0312 8.0312h72c4.4381 0 8.0312-3.5931 8.0312-8.0312v-63c0-3.032-1.7122-5.6044-4.1875-6.9688-0.49189-2.8596-2.9286-5.0625-5.9688-5.0625h-40.188c-1.8348-1.7748-3.0086-2.8654-3.9688-3.4062-1.0373-0.58435-1.9404-0.56139-2.9062-0.59375a1.0438 1.0438 0 0 0-0.03125 0h-20.656z" fill="url(#linearGradient3961)" opacity=".2"/>
  <path id="path3908-1" d="m14.125 7c-2.8429 0-5.125 2.23-5.125 5v3.6875c-2.3641 1.1214-4 3.5128-4 6.3125v63c0 3.878 3.122 7 7 7h72c3.878 0 7-3.122 7-7v-63c0-2.8097-1.6534-5.1964-4.0312-6.3125-0.16965-2.6184-2.3622-4.6875-5.0938-4.6875h-40.594c-4.2205-4.1123-4.5028-3.9331-6.5-4h-20.656z" fill="url(#linearGradient3961)" opacity=".3"/>
  <path id="path3941" d="m15 7c-2.77 0-5 2.23-5 5v3.3438c-2.3335 0.82091-4 3.0351-4 5.6562v64c0 3.324 2.676 6 6 6h72c3.324 0 6-2.676 6-6v-64c0-2.6419-1.6999-4.8512-4.0625-5.6562-0.32604-2.4503-2.3952-4.3438-4.9375-4.3438h-40.531c-4.1123-4.1123-4.3665-3.9331-6.3125-4h-19.156z" fill="url(#linearGradient3952)" opacity=".45"/>
 </g>
 <g id="layer3">
  <rect id="rect3352" x="10.536" y="23.143" width="75" height="62.679" rx="6" ry="6" fill="url(#linearGradient3361)"/>
  <path id="path3908" d="m15 6c-2.77 0-5 2.23-5 5v59.812c0 2.3933 1.9192 4.3125 4.3125 4.3125h67.375c2.3933 0 4.3125-1.9192 4.3125-4.3125v-55.812c0-2.77-2.23-5-5-5h-40.531c-4.1123-4.1123-4.3665-3.9331-6.3125-4z" fill="url(#linearGradient3105)"/>
  <path id="path3108" d="m15 6c-2.77 0-5 2.23-5 5v59.812c0 2.3933 1.9192 4.3125 4.3125 4.3125h67.375c2.3933 0 4.3125-1.9192 4.3125-4.3125v-55.812c0-2.77-2.23-5-5-5h-40.531c-4.1123-4.1123-4.3665-3.9331-6.3125-4h-19.156zm0 1.0312h19.125 0.03125c0.96498 0.031157 1.1925-0.016972 1.8125 0.34375 0.63029 0.36673 1.7068 1.3318 3.75 3.375a1.0438 1.0438 0 0 0 0.75 0.28125h40.531c2.2099 0 3.9688 1.7589 3.9688 3.9688v55.812c0 1.8353-1.4459 3.2812-3.2812 3.2812h-67.375c-1.8353 0-3.2812-1.4459-3.2812-3.2812v-59.812c0-2.2099 1.7589-3.9688 3.9688-3.9688z" fill="#fff" opacity=".2"/>
 </g>
 <g id="layer1">
  <rect id="rect2419" x="6" y="14" width="84" height="76" rx="6" ry="6" fill="url(#linearGradient3706)"/>
  <path id="rect4377" d="m12 86c-3.324 0-6-2.676-6-6v-60c0-3.324 2.676-6 6-6h72c3.324 0 6 2.676 6 6v60c0 3.324-2.676 6-6 6zm0-0.96875h72c2.8049 0 5.0312-2.2264 5.0312-5.0312v-60c0-2.8049-2.2264-5.0312-5.0312-5.0312h-72c-2.8049 0-5.0312 2.2264-5.0312 5.0312v60c0 2.8049 2.2264 5.0312 5.0312 5.0312z" fill="url(#linearGradient3094)" opacity=".35"/>
  <path id="rect3841" d="m6 78v2c0 3.324 2.676 6 6 6h72c3.324 0 6-2.676 6-6v-2c0 3.324-2.676 6-6 6h-72c-3.324 0-6-2.676-6-6z" fill="#fff" opacity=".1"/>
 </g>
 <g id="layer7">
  <path id="path3067" d="m6 80v4c0 3.324 2.676 6 6 6h72c3.324 0 6-2.676 6-6v-4c0 3.324-2.676 6-6 6h-72c-3.324 0-6-2.676-6-6z" fill="#a17431" opacity=".8"/>
  <path id="path3888" d="m6 80v4c0 3.324 2.676 6 6 6h72c3.324 0 6-2.676 6-6v-4c0 3.324-2.676 6-6 6h-72c-3.324 0-6-2.676-6-6z" fill="url(#linearGradient3077)" opacity=".5"/>
  <path id="rect4345" d="m6 82v2c0 3.324 2.676 6 6 6h72c3.324 0 6-2.676 6-6v-2c0 3.324-2.676 6-6 6h-72c-3.324 0-6-2.676-6-6z" color="#000000" opacity=".1"/>
  <path id="rect4336" d="m6 83v1c0 3.324 2.676 6 6 6h72c3.324 0 6-2.676 6-6v-1c0 3.324-2.676 6-6 6h-72c-3.324 0-6-2.676-6-6z" color="#000000" opacity=".15"/>
 </g>
 <g id="layer5">
  <path id="path3850" d="m15.969 22.531c-2.8459 0.0043-5.4332 2.5916-5.4375 5.4375v48.062c0.0043 2.8459 2.5916 5.4332 5.4375 5.4375h64.062c2.8459-0.0043 5.4332-2.5916 5.4375-5.4375v-48.062c-0.0043-2.8459-2.5916-5.4332-5.4375-5.4375z" clip-path="url(#clipPath3860)" fill="url(#linearGradient3123)" filter="url(#filter3870)" opacity=".15"/>
 </g>
 <g id="layer6">
  <path id="path3930" d="m35.5 32.031c-1.3625 0-2.5278 0.83294-3.0938 2h-3.4062c-2.7219 0-4.9688 2.2469-4.9688 4.9688v24c0 2.7219 2.2469 4.9688 4.9688 4.9688h38c2.7219 0 4.9688-2.2469 4.9688-4.9688v-24c0-2.7219-2.2469-4.9688-4.9688-4.9688h-23.406c-0.56599-1.1671-1.7312-2-3.0938-2h-5zm0 1.9688h5c0.831 0 1.5 0.669 1.5 1.5v0.5h25c1.662 0 3 1.338 3 3v24c0 1.662-1.338 3-3 3h-38c-1.662 0-3-1.338-3-3v-24c0-1.662 1.338-3 3-3h5v-0.5c0-0.831 0.669-1.5 1.5-1.5zm-4.5 6c-0.554 0-1 0.446-1 1v2c0 0.554 0.446 1 1 1h10c0.554 0 1-0.446 1-1v-2c0-0.554-0.446-1-1-1h-10zm0.96875 1.9688h8.0625v0.0625h-8.0625v-0.0625zm24.031 0.03125c-5.5228 0-10 4.4772-10 10s4.4772 10 10 10 10-4.4772 10-10-4.4772-10-10-10zm0 1.9688c4.4556 0 8.0312 3.5757 8.0312 8.0312s-3.5757 8.0312-8.0312 8.0312-8.0312-3.5757-8.0312-8.0312 3.5757-8.0312 8.0312-8.0312zm0 2.0625c-3.2764 0-5.9688 2.6924-5.9688 5.9688s2.6924 5.9688 5.9688 5.9688 5.9688-2.6924 5.9688-5.9688-2.6924-5.9688-5.9688-5.9688zm0 1.9688c2.2091 0 4 1.7909 4 4s-1.7909 4-4 4-4-1.7909-4-4 1.7909-4 4-4z" fill="#fff" opacity=".05"/>
  <path id="path3921" d="m35.5 33.062c-1.1591 0-2.0175 0.9045-2.25 2h-4.25c-2.1599 0-3.9375 1.7776-3.9375 3.9375v24c0 2.1599 1.7776 3.9375 3.9375 3.9375h38c2.1599 0 3.9375-1.7776 3.9375-3.9375v-24c0-2.1599-1.7776-3.9375-3.9375-3.9375h-24.25c-0.2325-1.0955-1.0909-2-2.25-2h-5zm0 0.9375h5c0.831 0 1.5 0.669 1.5 1.5v0.5h25c1.662 0 3 1.338 3 3v24c0 1.662-1.338 3-3 3h-38c-1.662 0-3-1.338-3-3v-24c0-1.662 1.338-3 3-3h5v-0.5c0-0.831 0.669-1.5 1.5-1.5zm-4.5 6c-0.554 0-1 0.446-1 1v2c0 0.554 0.446 1 1 1h10c0.554 0 1-0.446 1-1v-2c0-0.554-0.446-1-1-1h-10zm-0.0625 0.9375c0.0086-0.0086 0.03445 0 0.0625 0h10c0.0561 0 0.0625 0.0064 0.0625 0.0625v2c0 0.0561-0.0064 0.0625-0.0625 0.0625h-10c-0.0561 0-0.0625-0.0064-0.0625-0.0625v-2c0-0.02805-0.0086-0.05389 0-0.0625zm25.062 1.0625c-5.5228 0-10 4.4772-10 10s4.4772 10 10 10 10-4.4772 10-10-4.4772-10-10-10zm0 0.9375c5.0215 0 9.0625 4.041 9.0625 9.0625s-4.041 9.0625-9.0625 9.0625-9.0625-4.041-9.0625-9.0625 4.041-9.0625 9.0625-9.0625zm0 4.125c-2.7105 0-4.9375 2.227-4.9375 4.9375s2.227 4.9375 4.9375 4.9375 4.9375-2.227 4.9375-4.9375-2.227-4.9375-4.9375-4.9375zm0 0.9375c2.2091 0 4 1.7909 4 4s-1.7909 4-4 4-4-1.7909-4-4 1.7909-4 4-4z" fill="#fff" opacity=".1"/>
  <path id="rect2941" d="m35.5 34c-0.831 0-1.5 0.669-1.5 1.5v0.5h-5c-1.662 0-3 1.338-3 3v24c0 1.662 1.338 3 3 3h38c1.662 0 3-1.338 3-3v-24c0-1.662-1.338-3-3-3h-25v-0.5c0-0.831-0.669-1.5-1.5-1.5h-5zm-4.5 6h10c0.554 0 1 0.446 1 1v2c0 0.554-0.446 1-1 1h-10c-0.554 0-1-0.446-1-1v-2c0-0.554 0.446-1 1-1zm25 2c5.5228 0 10 4.4772 10 10s-4.4772 10-10 10-10-4.4772-10-10 4.4772-10 10-10zm0 6c-2.2091 0-4 1.7909-4 4s1.7909 4 4 4 4-1.7909 4-4-1.7909-4-4-4z" fill="url(#linearGradient3100)" opacity=".9"/>
  <path id="path3893" d="m35.5 34c-0.831 0-1.5 0.669-1.5 1.5v0.5h-5c-1.662 0-3 1.338-3 3v24c0 1.662 1.338 3 3 3h38c1.662 0 3-1.338 3-3v-24c0-1.662-1.338-3-3-3h-25v-0.5c0-0.831-0.669-1.5-1.5-1.5h-5zm0.59375 2.0938h3.8125a2.0876 2.0876 0 0 0 1.25 1.8438c-0.052295-0.002791-0.10341-0.03125-0.15625-0.03125h-6.125a2.0876 2.0876 0 0 0 1.2188-1.8125zm5.0938 1.8438c0.28204 0.018 0.55363 0.06398 0.8125 0.15625h25c0.54172 0 0.90625 0.36453 0.90625 0.90625v12.094c-0.49075-6.2083-5.5768-11.188-11.906-11.188-6.6509 0-12.094 5.4428-12.094 12.094 0 6.3295 4.9792 11.415 11.188 11.906h-26.094c-0.54172 0-0.90625-0.36453-0.90625-0.90625v-19.562c0.2465 1.4467 1.4014 2.6562 2.9062 2.6562h10c1.6743 0 3.0938-1.4195 3.0938-3.0938v-2c0-1.3255-0.89235-2.478-2.0938-2.9062a2.0876 2.0876 0 0 1-0.8125-0.15625zm-12.188 0.15625h1.5625c-1.2838 0.21874-2.25 1.185-2.4688 2.4688v-1.5625c0-0.54172 0.36453-0.90625 0.90625-0.90625zm2 1.9062h10c0.554 0 1 0.446 1 1v2c0 0.554-0.446 1-1 1h-10c-0.554 0-1-0.446-1-1v-2c0-0.554 0.446-1 1-1zm25 2c5.5228 0 10 4.4772 10 10s-4.4772 10-10 10-10-4.4772-10-10 4.4772-10 10-10zm0 6c-2.2091 0-4 1.7909-4 4s1.7909 4 4 4 4-1.7909 4-4-1.7909-4-4-4zm0 2.0938c1.0811 0 1.9062 0.82519 1.9062 1.9062s-0.82519 1.9062-1.9062 1.9062-1.9062-0.82519-1.9062-1.9062 0.82519-1.9062 1.9062-1.9062zm11.906 2.8125v10.094c0 0.54172-0.36453 0.90625-0.90625 0.90625h-10.094c5.893-0.46583 10.534-5.107 11-11z" fill="url(#linearGradient3100)" opacity=".25"/>
  <path id="path3880" d="m35.5 34c-0.831 0-1.5 0.669-1.5 1.5v0.5h-5c-1.662 0-3 1.338-3 3v24c0 1.662 1.338 3 3 3h38c1.662 0 3-1.338 3-3v-24c0-1.662-1.338-3-3-3h-25v-0.5c0-0.831-0.669-1.5-1.5-1.5h-5zm0 1.0312h5c0.27086 0 0.46875 0.19789 0.46875 0.46875v0.5a1.0438 1.0438 0 0 0 1.0312 1.0312h25c1.1019 0 1.9688 0.86689 1.9688 1.9688v24c0 1.1019-0.86689 1.9688-1.9688 1.9688h-38c-1.1019 0-1.9688-0.86689-1.9688-1.9688v-24c0-1.1019 0.86689-1.9688 1.9688-1.9688h5a1.0438 1.0438 0 0 0 1.0312-1.0312v-0.5c0-0.27086 0.19789-0.46875 0.46875-0.46875zm-4.5 3.9375c-1.1141 0-2.0312 0.91711-2.0312 2.0312v2c0 1.1141 0.91711 2.0312 2.0312 2.0312h10c1.1141 0 2.0312-0.91711 2.0312-2.0312v-2c0-1.1141-0.91711-2.0312-2.0312-2.0312h-10zm0 1.0312h10c0.554 0 1 0.446 1 1v2c0 0.554-0.446 1-1 1h-10c-0.554 0-1-0.446-1-1v-2c0-0.554 0.446-1 1-1zm25 0.96875c-6.0869 0-11.031 4.9444-11.031 11.031s4.9444 11.031 11.031 11.031 11.031-4.9444 11.031-11.031-4.9444-11.031-11.031-11.031zm0 1.0312c5.5228 0 10 4.4772 10 10s-4.4772 10-10 10-10-4.4772-10-10 4.4772-10 10-10zm0 6c-2.2091 0-4 1.7909-4 4s1.7909 4 4 4 4-1.7909 4-4-1.7909-4-4-4zm0 1.0312c1.6451 0 2.9688 1.3237 2.9688 2.9688s-1.3237 2.9688-2.9688 2.9688-2.9688-1.3237-2.9688-2.9688 1.3237-2.9688 2.9688-2.9688z" fill="url(#linearGradient3100)" opacity=".5"/>
  <path id="path3871" d="m35.5 34c-0.831 0-1.5 0.669-1.5 1.5v0.5h-5c-1.662 0-3 1.338-3 3v1c0-1.662 1.338-3 3-3h5v-0.5c0-0.831 0.669-1.5 1.5-1.5h5c0.831 0 1.5 0.669 1.5 1.5v0.5h25c1.662 0 3 1.338 3 3v-1c0-1.662-1.338-3-3-3h-25v-0.5c0-0.831-0.669-1.5-1.5-1.5h-5zm-5.5 9v1c0 0.554 0.446 1 1 1h10c0.554 0 1-0.446 1-1v-1c0 0.554-0.446 1-1 1h-10c-0.554 0-1-0.446-1-1zm26 5c-2.2091 0-4 1.7909-4 4 0 0.17012 0.04189 0.33547 0.0625 0.5 0.24707-1.972 1.8985-3.5 3.9375-3.5s3.6904 1.528 3.9375 3.5c0.020613-0.16453 0.0625-0.32988 0.0625-0.5 0-2.2091-1.7909-4-4-4zm-9.9688 4.5c-0.008129 0.16536-0.03125 0.33262-0.03125 0.5 0 5.5228 4.4772 10 10 10s10-4.4772 10-10c0-0.16738-0.02312-0.33464-0.03125-0.5-0.26009 5.291-4.6133 9.5-9.9688 9.5s-9.7087-4.209-9.9688-9.5z" fill="url(#linearGradient3100)"/>
  <path id="path3906" d="m31 40c-0.554 0-1 0.446-1 1v1c0-0.554 0.446-1 1-1h10c0.554 0 1 0.446 1 1v-1c0-0.554-0.446-1-1-1h-10zm25 2c-5.5228 0-10 4.4772-10 10 0 0.16738 0.02312 0.33464 0.03125 0.5 0.26009-5.291 4.6133-9.5 9.9688-9.5s9.7087 4.209 9.9688 9.5c0.008129-0.16536 0.03125-0.33262 0.03125-0.5 0-5.5228-4.4772-10-10-10zm-3.9375 10.5c-0.020613 0.16453-0.0625 0.32988-0.0625 0.5 0 2.2091 1.7909 4 4 4s4-1.7909 4-4c0-0.17012-0.04189-0.33547-0.0625-0.5-0.24707 1.972-1.8985 3.5-3.9375 3.5s-3.6904-1.528-3.9375-3.5zm-26.062 10.5v1c0 1.662 1.338 3 3 3h38c1.662 0 3-1.338 3-3v-1c0 1.662-1.338 3-3 3h-38c-1.662 0-3-1.338-3-3z" fill="#fff" opacity=".2"/>
 </g>
</svg>
