<?xml version="1.0" encoding="UTF-8"?>
<svg id="svg2408" width="96" height="96" version="1.0" xmlns="http://www.w3.org/2000/svg" xmlns:cc="http://creativecommons.org/ns#" xmlns:dc="http://purl.org/dc/elements/1.1/" xmlns:rdf="http://www.w3.org/1999/02/22-rdf-syntax-ns#" xmlns:xlink="http://www.w3.org/1999/xlink">
 <defs id="defs2410">
  <linearGradient id="linearGradient3361" x1="48.036" x2="48.036" y1="25.911" y2="85.821" gradientTransform="scale(1.0599 .94353)" gradientUnits="userSpaceOnUse">
   <stop id="stop3319" stop-color="#c6953a" offset="0"/>
   <stop id="stop3321" stop-color="#ab7a1f" offset="1"/>
  </linearGradient>
  <linearGradient id="ButtonShadow" x1="45.448" x2="45.448" y1="80.472" y2="7.0165" gradientTransform="matrix(1.0059 0 0 .99417 0 12)" gradientUnits="userSpaceOnUse">
   <stop id="stop3750" offset="0"/>
   <stop id="stop3752" stop-opacity=".58824" offset="1"/>
  </linearGradient>
  <linearGradient id="linearGradient3706" x1="48" x2="48" y1="78" y2="5.9877" gradientTransform="translate(0,8)" gradientUnits="userSpaceOnUse">
   <stop id="stop3189" stop-color="#c29656" offset="0"/>
   <stop id="stop3191" stop-color="#ddc08b" offset="1"/>
  </linearGradient>
  <filter id="filter3174" color-interpolation-filters="sRGB">
   <feGaussianBlur id="feGaussianBlur3176" stdDeviation="1.71"/>
  </filter>
  <linearGradient id="linearGradient3664" x1="45.448" x2="45.448" y1="80.472" y2="5.2972" gradientTransform="matrix(1.0059 0 0 .99417 0 12)" gradientUnits="userSpaceOnUse" xlink:href="#ButtonShadow"/>
  <clipPath id="clipPath3860">
   <rect id="rect3862" x="6" y="18" width="84" height="72" rx="6" ry="6" fill="#f0f"/>
  </clipPath>
  <filter id="filter3870" x="-.16559" y="-.19716" width="1.3312" height="1.3943" color-interpolation-filters="sRGB">
   <feGaussianBlur id="feGaussianBlur3872" stdDeviation="5.1703125"/>
  </filter>
  <linearGradient id="linearGradient3699">
   <stop id="stop3701" stop-color="#aa7932" stop-opacity=".78431" offset="0"/>
   <stop id="stop3703" stop-color="#aa7932" stop-opacity=".39216" offset="1"/>
  </linearGradient>
  <linearGradient id="linearGradient3077" x1="90" x2="48" y1="88" y2="88" gradientUnits="userSpaceOnUse" spreadMethod="reflect">
   <stop id="stop3894" stop-opacity=".58824" offset="0"/>
   <stop id="stop3896" stop-opacity=".47059" offset=".1178"/>
   <stop id="stop3898" stop-opacity=".39216" offset=".2381"/>
   <stop id="stop3900" stop-opacity=".31373" offset="1"/>
  </linearGradient>
  <linearGradient id="linearGradient3094" x1="48" x2="48" y1="75.083" y2="-40" gradientTransform="matrix(1,0,0,-1,0,92)" gradientUnits="userSpaceOnUse">
   <stop id="stop4386" stop-color="#fff" offset="0"/>
   <stop id="stop4388" stop-color="#fff" stop-opacity="0" offset="1"/>
  </linearGradient>
  <linearGradient id="linearGradient3123" x1="48.022" x2="48.022" y1="22.933" y2="81.481" gradientUnits="userSpaceOnUse">
   <stop id="stop3876" stop-color="#fff" offset="0"/>
   <stop id="stop3878" stop-color="#fff" stop-opacity="0" offset="1"/>
  </linearGradient>
  <linearGradient id="linearGradient3105" x1="34.86" x2="34.86" y1="16.275" y2="26.987" gradientTransform="matrix(.72 0 0 .72 1.92 -5.52)" gradientUnits="userSpaceOnUse">
   <stop id="stop4010" stop-color="#dab980" offset="0"/>
   <stop id="stop4012" stop-color="#c29856" offset=".71692"/>
   <stop id="stop4014" stop-color="#a2773a" offset="1"/>
  </linearGradient>
  <linearGradient id="linearGradient3952" x1="43" x2="43" y1="91" y2="7" gradientUnits="userSpaceOnUse" xlink:href="#ButtonShadow"/>
  <linearGradient id="linearGradient3961" x1="45" x2="45" y1="92" y2="7" gradientUnits="userSpaceOnUse" xlink:href="#ButtonShadow"/>
  <linearGradient id="linearGradient3093" x1="51.179" x2="51.179" y1="76.409" y2="31.782" gradientTransform="translate(0,-4)" gradientUnits="userSpaceOnUse" xlink:href="#linearGradient3699"/>
 </defs>
 <metadata id="metadata2413">
  <rdf:RDF>
   <cc:Work rdf:about="">
    <dc:format>image/svg+xml</dc:format>
    <dc:type rdf:resource="http://purl.org/dc/dcmitype/StillImage"/>
    <dc:title/>
   </cc:Work>
  </rdf:RDF>
 </metadata>
 <g id="layer2" display="none">
  <path id="rect3745" d="m14.969 8.8029c-1.6398 0-2.9688 1.2823-2.9688 2.875v7.3221c-3.324 0-7 2.676-7 6v61c0 3.324 2.676 6 6 6h74c3.324 0 6-2.676 6-6v-61c0-3.324-3.7474-6-7.0714-6v-0.13461c0-2.3891-1.9777-4.3125-4.4375-4.3125h-43.335l-1.4688-2.875c-0.73336-1.4246-1.3289-2.875-2.9688-2.875h-16.75z" fill="url(#linearGradient3664)" filter="url(#filter3174)" opacity=".9"/>
 </g>
 <g id="layer4">
  <path id="path3984" d="m14.125 4c-4.4339 0-8.125 3.5684-8.125 8v2.1562c-2.3764 1.8021-4 4.6028-4 7.8438v63c0 5.5036 4.4964 10 10 10h72c5.5036 0 10-4.4964 10-10v-63c0-3.4834-1.8534-6.4531-4.5312-8.2188-0.9872-3.2895-3.9427-5.7812-7.5938-5.7812h-39.5c-1.4026-1.3548-2.5397-2.5096-3.6875-3.1562-1.4952-0.84233-2.9309-0.81421-3.8125-0.84375a0.9278 0.9278 0 0 0-0.03125 0c-0.0012-1.73e-5 -0.03009-1.73e-5 -0.03125 0h-0.03125-20.656z" fill="url(#linearGradient3961)" opacity=".08"/>
  <path id="path3975" d="m14.125 4.9375c-3.9406 0-7.1875 3.1433-7.1875 7.0625v2.5938c-2.3826 1.6221-4 4.2939-4 7.4062v63c0 5.0014 4.0611 9.0625 9.0625 9.0625h72c5.0014 0 9.0625-4.0611 9.0625-9.0625v-63c0-3.2608-1.7732-6.0397-4.3438-7.625-0.76119-3.0957-3.4773-5.4375-6.8438-5.4375h-39.812c-1.5975-1.5412-2.7721-2.6775-3.8438-3.2812-1.2732-0.71724-2.4475-0.68767-3.375-0.71875a1.0438 1.0438 0 0 0-0.03125 0h-0.03125-20.656z" fill="url(#linearGradient3961)" opacity=".1"/>
  <path id="path3967" d="m14.125 5.9688c-3.3887 0-6.1562 2.688-6.1562 6.0312v3.125c-2.3751 1.394-4 3.9205-4 6.875v63c0 4.4381 3.5931 8.0312 8.0312 8.0312h72c4.4381 0 8.0312-3.5931 8.0312-8.0312v-63c0-3.032-1.7122-5.6044-4.1875-6.9688-0.49189-2.8596-2.9286-5.0625-5.9688-5.0625h-40.188c-1.8348-1.7748-3.0086-2.8654-3.9688-3.4062-1.0373-0.58435-1.9404-0.56139-2.9062-0.59375a1.0438 1.0438 0 0 0-0.03125 0h-20.656z" fill="url(#linearGradient3961)" opacity=".2"/>
  <path id="path3908-1" d="m14.125 7c-2.8429 0-5.125 2.23-5.125 5v3.6875c-2.3641 1.1214-4 3.5128-4 6.3125v63c0 3.878 3.122 7 7 7h72c3.878 0 7-3.122 7-7v-63c0-2.8097-1.6534-5.1964-4.0312-6.3125-0.16965-2.6184-2.3622-4.6875-5.0938-4.6875h-40.594c-4.2205-4.1123-4.5028-3.9331-6.5-4h-20.656z" fill="url(#linearGradient3961)" opacity=".3"/>
  <path id="path3941" d="m15 7c-2.77 0-5 2.23-5 5v3.3438c-2.3335 0.82091-4 3.0351-4 5.6562v64c0 3.324 2.676 6 6 6h72c3.324 0 6-2.676 6-6v-64c0-2.6419-1.6999-4.8512-4.0625-5.6562-0.32604-2.4503-2.3952-4.3438-4.9375-4.3438h-40.531c-4.1123-4.1123-4.3665-3.9331-6.3125-4h-19.156z" fill="url(#linearGradient3952)" opacity=".45"/>
 </g>
 <g id="layer3">
  <rect id="rect3352" x="10.536" y="23.143" width="75" height="62.679" rx="6" ry="6" fill="url(#linearGradient3361)"/>
  <path id="path3908" d="m15 6c-2.77 0-5 2.23-5 5v59.812c0 2.3933 1.9192 4.3125 4.3125 4.3125h67.375c2.3933 0 4.3125-1.9192 4.3125-4.3125v-55.812c0-2.77-2.23-5-5-5h-40.531c-4.1123-4.1123-4.3665-3.9331-6.3125-4z" fill="url(#linearGradient3105)"/>
  <path id="path3108" d="m15 6c-2.77 0-5 2.23-5 5v59.812c0 2.3933 1.9192 4.3125 4.3125 4.3125h67.375c2.3933 0 4.3125-1.9192 4.3125-4.3125v-55.812c0-2.77-2.23-5-5-5h-40.531c-4.1123-4.1123-4.3665-3.9331-6.3125-4h-19.156zm0 1.0312h19.125 0.03125c0.96498 0.031157 1.1925-0.016972 1.8125 0.34375 0.63029 0.36673 1.7068 1.3318 3.75 3.375a1.0438 1.0438 0 0 0 0.75 0.28125h40.531c2.2099 0 3.9688 1.7589 3.9688 3.9688v55.812c0 1.8353-1.4459 3.2812-3.2812 3.2812h-67.375c-1.8353 0-3.2812-1.4459-3.2812-3.2812v-59.812c0-2.2099 1.7589-3.9688 3.9688-3.9688z" fill="#fff" opacity=".2"/>
 </g>
 <g id="layer1">
  <rect id="rect2419" x="6" y="14" width="84" height="76" rx="6" ry="6" fill="url(#linearGradient3706)"/>
  <path id="rect4377" d="m12 86c-3.324 0-6-2.676-6-6v-60c0-3.324 2.676-6 6-6h72c3.324 0 6 2.676 6 6v60c0 3.324-2.676 6-6 6zm0-0.96875h72c2.8049 0 5.0312-2.2264 5.0312-5.0312v-60c0-2.8049-2.2264-5.0312-5.0312-5.0312h-72c-2.8049 0-5.0312 2.2264-5.0312 5.0312v60c0 2.8049 2.2264 5.0312 5.0312 5.0312z" fill="url(#linearGradient3094)" opacity=".35"/>
  <path id="rect3841" d="m6 78v2c0 3.324 2.676 6 6 6h72c3.324 0 6-2.676 6-6v-2c0 3.324-2.676 6-6 6h-72c-3.324 0-6-2.676-6-6z" fill="#fff" opacity=".1"/>
 </g>
 <g id="layer7">
  <path id="path3067" d="m6 80v4c0 3.324 2.676 6 6 6h72c3.324 0 6-2.676 6-6v-4c0 3.324-2.676 6-6 6h-72c-3.324 0-6-2.676-6-6z" fill="#a17431" opacity=".8"/>
  <path id="path3888" d="m6 80v4c0 3.324 2.676 6 6 6h72c3.324 0 6-2.676 6-6v-4c0 3.324-2.676 6-6 6h-72c-3.324 0-6-2.676-6-6z" fill="url(#linearGradient3077)" opacity=".5"/>
  <path id="rect4345" d="m6 82v2c0 3.324 2.676 6 6 6h72c3.324 0 6-2.676 6-6v-2c0 3.324-2.676 6-6 6h-72c-3.324 0-6-2.676-6-6z" color="#000000" opacity=".1"/>
  <path id="rect4336" d="m6 83v1c0 3.324 2.676 6 6 6h72c3.324 0 6-2.676 6-6v-1c0 3.324-2.676 6-6 6h-72c-3.324 0-6-2.676-6-6z" color="#000000" opacity=".15"/>
 </g>
 <g id="layer5">
  <path id="path3850" d="m15.969 22.531c-2.8459 0.0043-5.4332 2.5916-5.4375 5.4375v48.062c0.0043 2.8459 2.5916 5.4332 5.4375 5.4375h64.062c2.8459-0.0043 5.4332-2.5916 5.4375-5.4375v-48.062c-0.0043-2.8459-2.5916-5.4332-5.4375-5.4375z" clip-path="url(#clipPath3860)" fill="url(#linearGradient3123)" filter="url(#filter3870)" opacity=".15"/>
 </g>
 <g id="layer6">
  <path id="path5077" d="m38 26.031c-7.6875 0-13.969 6.2813-13.969 13.969 0 4.695 2.4345 8.7535 6 11.281-1.6381 0.51195-3 1.8423-3 3.7188s1.3619 3.2068 3 3.7188v4.2812c0 2.7147 2.254 4.9688 4.9688 4.9688h0.59375l-0.78125 1.0312c-0.85241 1.1069-0.59842 2.6913 0.0625 3.5625s1.6755 1.4135 2.875 1.4062h9 9.0312c1.1995 0.0072 2.2141-0.53504 2.875-1.4062s0.9149-2.4556 0.0625-3.5625l-0.78125-1.0312h0.0625 1c2.5802 0 4.6675-2.0618 4.875-4.5938l2.375 1.6562h0.03125l0.15625 0.125 0.03125-0.0625c1.1303 0.8391 2.9449 0.88304 4-0.0625 1.1111-0.99562 1.4667-2.2669 1.4688-3.625v-4.9375-3.9375c0.0085-1.1353-0.31831-2.1459-0.9375-3s-1.7851-1.7236-3.2188-1.4375a1.9617 1.9617 0 0 0-0.03125 0.03125c-0.50995 0.10416-0.90863 0.36483-1.2812 0.65625l-0.03125-0.03125-0.15625 0.09375c-0.01024 9e-3 -0.02114 0.0222-0.03125 0.03125l-2.4062 1.6875c-0.02077-0.23115-0.13593-0.43162-0.1875-0.65625 2.5976-2.5227 4.3125-5.9916 4.3125-9.9062 0-7.6875-6.2813-13.969-13.969-13.969-3.0151 0-5.7134 1.1132-8 2.75-2.2866-1.6368-4.9849-2.75-8-2.75zm0 1.9688c3.0781 0 5.8765 1.1536 8 3.0625 2.1235-1.9089 4.9219-3.0625 8-3.0625 6.6274 0 12 5.3726 12 12 0 3.78-1.769 7.1157-4.5 9.3125 0.32284 0.47865 0.5 1.0642 0.5 1.6875v2.9688h0.40625l5.1562-3.625c0.18218-0.16305 0.38519-0.2699 0.59375-0.3125 0.90891-0.18138 1.8231 1.0796 1.8125 2.5v3.9375 4.9375c-0.0013 0.86733-0.32809 1.7222-0.8125 2.1562-0.48441 0.43411-1.1082 0.43108-1.5938 0l-5.1562-3.5938h-0.40625v3.0312c0 1.662-1.338 3-3 3h-1-4.0312l3.1875 4.1875c0.56205 0.72985-0.26436 1.8192-1.375 1.8125h-9.0312-9c-1.1106 0.0067-1.937-1.0826-1.375-1.8125l3.1875-4.1875h-3.5625-1c-1.662 0-3-1.338-3-3v-6.0312c-0.16304 0.02655-0.32688 0.03125-0.5 0.03125-1.385 0-2.5-0.892-2.5-2s1.115-2 2.5-2c0.17312 0 0.33696 0.0047 0.5 0.03125v-2.0312c0-0.20775 0.02267-0.3981 0.0625-0.59375-3.6088-2.0697-6.0625-5.9495-6.0625-10.406 0-6.6274 5.3726-12 12-12zm0 6c-3.3137 0-6 2.6863-6 6s2.6863 6 6 6c1.864 0 3.5245-0.85402 4.625-2.1875 0.42797-0.51858 0.76324-1.1077 1-1.75 0.03375-0.09154 0.06442-0.18767 0.09375-0.28125 0.07391-0.23764 0.14335-0.46946 0.1875-0.71875 0.0054-0.03015-5e-3 -0.06344 0-0.09375 0.05186-0.31583 0.09375-0.63805 0.09375-0.96875s-0.04189-0.65292-0.09375-0.96875c-0.0049-0.03052 0.0054-0.06339 0-0.09375-0.0095-0.05266-0.02039-0.10408-0.03125-0.15625-0.05994-0.29294-0.14906-0.56806-0.25-0.84375-0.23676-0.64226-0.57203-1.2314-1-1.75-1.1005-1.3335-2.761-2.1875-4.625-2.1875zm16 0c-1.864 0-3.5245 0.85402-4.625 2.1875-0.42797 0.51858-0.76324 1.1077-1 1.75-0.11186 0.30549-0.21996 0.61105-0.28125 0.9375-0.0095 0.04992 0.0083 0.1059 0 0.15625-0.05186 0.31583-0.09375 0.63805-0.09375 0.96875s0.04189 0.65292 0.09375 0.96875c0.0083 0.05035-0.0095 0.10633 0 0.15625 0.06129 0.32645 0.16939 0.63201 0.28125 0.9375 0.23676 0.64226 0.57203 1.2314 1 1.75 1.1005 1.3335 2.761 2.1875 4.625 2.1875 3.3137 0 6-2.6863 6-6s-2.6863-6-6-6zm-16 2c2.2091 0 4 1.7909 4 4s-1.7909 4-4 4-4-1.7909-4-4 1.7909-4 4-4zm16 0c2.2091 0 4 1.7909 4 4s-1.7909 4-4 4-4-1.7909-4-4 1.7909-4 4-4z" fill="#fff" opacity=".05"/>
  <path id="path5066" d="m38 27.031c-7.1443 0-12.969 5.8244-12.969 12.969 0 4.5692 2.4512 8.5394 6.0312 10.844-0.0025 0.05474-0.03125 0.10026-0.03125 0.15625v1.1875c-1.5852 0.20554-3 1.2323-3 2.8125s1.4148 2.607 3 2.8125v5.1875c0 2.1753 1.7934 3.9688 3.9688 3.9688h1 1.625l-2 2.625c-0.55965 0.72673-0.40078 1.7331 0.0625 2.3438s1.193 1.0365 2.0625 1.0312h9 9.0312c0.86945 0.0052 1.5992-0.42057 2.0625-1.0312s0.62215-1.617 0.0625-2.3438l-2-2.625h2.0938 1c2.1753 0 3.9688-1.7934 3.9688-3.9688v-1.4688l3.9688 2.75 0.0625 0.0625 0.03125-0.03125c0.79288 0.63378 1.9855 0.6539 2.75-0.03125 0.78998-0.70791 1.1546-1.7684 1.1562-2.875v-4.9375-3.9375c0.0068-0.91751-0.27343-1.7489-0.75-2.4062s-1.2868-1.2172-2.2188-1.0312c-0.36318 0.07418-0.66187 0.27205-0.9375 0.5l-0.03125-0.03125-0.0625 0.0625-3.9688 2.7812v-1.4062c0-0.49974-0.2664-0.9227-0.4375-1.375 2.6726-2.3639 4.4375-5.7696 4.4375-9.625 0-7.1443-5.8244-12.969-12.969-12.969-3.0536 0-5.7849 1.1624-8 2.9375-2.2151-1.7751-4.9464-2.9375-8-2.9375zm0 0.96875c3.0781 0 5.8765 1.1536 8 3.0625 2.1235-1.9089 4.9219-3.0625 8-3.0625 6.6274 0 12 5.3726 12 12 0 3.78-1.769 7.1157-4.5 9.3125 0.32284 0.47865 0.5 1.0642 0.5 1.6875v2.9688h0.40625l5.1562-3.625c0.18218-0.16305 0.38519-0.2699 0.59375-0.3125 0.90891-0.18138 1.8231 1.0796 1.8125 2.5v3.9375 4.9375c-0.0013 0.86733-0.32809 1.7222-0.8125 2.1562-0.48441 0.43411-1.1082 0.43108-1.5938 0l-5.1562-3.5938h-0.40625v3.0312c0 1.662-1.338 3-3 3h-1-4.0312l3.1875 4.1875c0.56205 0.72985-0.26436 1.8192-1.375 1.8125h-9.0312-9c-1.1106 0.0067-1.937-1.0826-1.375-1.8125l3.1875-4.1875h-3.5625-1c-1.662 0-3-1.338-3-3v-6.0312c-0.16304 0.02655-0.32688 0.03125-0.5 0.03125-1.385 0-2.5-0.892-2.5-2s1.115-2 2.5-2c0.17312 0 0.33696 0.0047 0.5 0.03125v-2.0312c0-0.20775 0.02267-0.3981 0.0625-0.59375-3.6088-2.0697-6.0625-5.9495-6.0625-10.406 0-6.6274 5.3726-12 12-12zm0 6c-3.3137 0-6 2.6863-6 6s2.6863 6 6 6c1.864 0 3.5245-0.85402 4.625-2.1875 0.42797-0.51858 0.76324-1.1077 1-1.75 0.03375-0.09154 0.06442-0.18767 0.09375-0.28125 0.07391-0.23764 0.14335-0.46946 0.1875-0.71875 0.0054-0.03015-5e-3 -0.06344 0-0.09375 0.05186-0.31583 0.09375-0.63805 0.09375-0.96875s-0.04189-0.65292-0.09375-0.96875c-0.0049-0.03052 0.0054-0.06339 0-0.09375-0.0095-0.05266-0.02039-0.10408-0.03125-0.15625-0.05994-0.29294-0.14906-0.56806-0.25-0.84375-0.23676-0.64226-0.57203-1.2314-1-1.75-1.1005-1.3335-2.761-2.1875-4.625-2.1875zm16 0c-1.864 0-3.5245 0.85402-4.625 2.1875-0.42797 0.51858-0.76324 1.1077-1 1.75-0.11186 0.30549-0.21996 0.61105-0.28125 0.9375-0.0095 0.04992 0.0083 0.1059 0 0.15625-0.05186 0.31583-0.09375 0.63805-0.09375 0.96875s0.04189 0.65292 0.09375 0.96875c0.0083 0.05035-0.0095 0.10633 0 0.15625 0.06129 0.32645 0.16939 0.63201 0.28125 0.9375 0.23676 0.64226 0.57203 1.2314 1 1.75 1.1005 1.3335 2.761 2.1875 4.625 2.1875 3.3137 0 6-2.6863 6-6s-2.6863-6-6-6zm-16 0.96875c1.0496 0 1.9653 0.34653 2.75 0.90625-0.78427-0.52516-1.7427-0.84375-2.75-0.84375-2.7261 0-4.9688 2.2427-4.9688 4.9688s2.2427 4.9688 4.9688 4.9688c1.0073 0 1.9657-0.31859 2.75-0.84375-0.78472 0.55972-1.7004 0.90625-2.75 0.90625-2.7968 0-5.0312-2.2345-5.0312-5.0312s2.2345-5.0312 5.0312-5.0312zm16 0c2.7968 0 5.0312 2.2345 5.0312 5.0312s-2.2345 5.0312-5.0312 5.0312c-1.0496 0-1.9653-0.34653-2.75-0.90625 0.78427 0.52516 1.7427 0.84375 2.75 0.84375 2.7261 0 4.9688-2.2427 4.9688-4.9688s-2.2427-4.9688-4.9688-4.9688c-1.0073 0-1.9657 0.31859-2.75 0.84375 0.78472-0.55972 1.7004-0.90625 2.75-0.90625zm-16 1.0312c2.2091 0 4 1.7909 4 4s-1.7909 4-4 4-4-1.7909-4-4 1.7909-4 4-4zm16 0c2.2091 0 4 1.7909 4 4s-1.7909 4-4 4-4-1.7909-4-4 1.7909-4 4-4zm-12.5 0.5c0.11237 0.11298 0.27334 0.15806 0.375 0.28125 0.35769 0.43342 0.64269 0.95458 0.84375 1.5 0.09279 0.25343 0.17255 0.46173 0.21875 0.6875 0.01133 0.05443 0.02516 0.09121 0.03125 0.125 6e-3 0.04015-0.0091 0.03715 0 0.09375 0.04835 0.29446 0.0625 0.56257 0.0625 0.8125s-0.01415 0.51804-0.0625 0.8125c-0.02899 0.17572-0.03178 0.26426-0.03125 0.28125-0.03074 0.12858-0.07521 0.24618-0.125 0.40625-0.02832 0.09037-0.07012 0.15465-0.09375 0.21875-0.20106 0.54542-0.48606 1.0666-0.84375 1.5-0.10166 0.12319-0.26263 0.16827-0.375 0.28125 0.89836-0.89836 1.4688-2.137 1.4688-3.5s-0.57039-2.6016-1.4688-3.5zm9 0c-0.89836 0.89836-1.4688 2.137-1.4688 3.5s0.57039 2.6016 1.4688 3.5c-0.11237-0.11298-0.27334-0.15806-0.375-0.28125-0.35769-0.43342-0.64269-0.95458-0.84375-1.5-0.10947-0.29897-0.20638-0.54889-0.25-0.78125-0.0071-0.04854 0.01237-0.04993 0-0.125-0.04835-0.29446-0.0625-0.56257-0.0625-0.8125s0.01415-0.51804 0.0625-0.8125c0.01238-0.07508-0.0071-0.07645 0-0.125 0.04363-0.23236 0.14053-0.48228 0.25-0.78125 0.20106-0.54542 0.48606-1.0666 0.84375-1.5 0.10166-0.12319 0.26263-0.16827 0.375-0.28125z" fill="#fff" opacity=".1"/>
  <path id="path3729" d="m38 28c-6.6274 0-12 5.3726-12 12 0 4.4567 2.4537 8.3365 6.0625 10.406-0.03983 0.19564-0.0625 0.386-0.0625 0.59375v2.0312c-0.16304-0.02656-0.32688-0.03125-0.5-0.03125-1.385 0-2.5 0.892-2.5 2s1.115 2 2.5 2c0.17312 0 0.33696-0.0047 0.5-0.03125v6.0312c0 1.662 1.338 3 3 3h1 3.5625l-3.1875 4.1875c-0.56205 0.72985 0.26436 1.8192 1.375 1.8125h9 9.0312c1.1106 0.0067 1.937-1.0826 1.375-1.8125l-3.1875-4.1875h4.0312 1c1.662 0 3-1.338 3-3v-3.0312h0.40625l5.1562 3.5938c0.48553 0.43108 1.1093 0.43411 1.5938 0 0.48441-0.43408 0.81119-1.2889 0.8125-2.1562v-4.9375-3.9375c0.01059-1.4204-0.90359-2.6814-1.8125-2.5-0.20856 0.0426-0.41157 0.14945-0.59375 0.3125l-5.1562 3.625h-0.40625v-2.9688c0-0.62325-0.17716-1.2088-0.5-1.6875 2.731-2.1968 4.5-5.5325 4.5-9.3125 0-6.6274-5.3726-12-12-12-3.0781 0-5.8765 1.1536-8 3.0625-2.1235-1.9089-4.9219-3.0625-8-3.0625zm0 6c1.864 0 3.5245 0.85402 4.625 2.1875 0.42797 0.51858 0.76324 1.1077 1 1.75 0.10094 0.27569 0.19006 0.55081 0.25 0.84375 0.01086 0.05217 0.02176 0.10358 0.03125 0.15625 0.0054 0.03036-0.0049 0.06323 0 0.09375 0.05186 0.31583 0.09375 0.63805 0.09375 0.96875s-0.04189 0.65292-0.09375 0.96875c-5e-3 0.03031 0.0054 0.0636 0 0.09375-0.04415 0.24929-0.11359 0.48111-0.1875 0.71875-0.02933 0.09358-0.06 0.18971-0.09375 0.28125-0.23676 0.64226-0.57203 1.2314-1 1.75-1.1005 1.3335-2.761 2.1875-4.625 2.1875-3.3137 0-6-2.6863-6-6s2.6863-6 6-6zm16 0c3.3137 0 6 2.6863 6 6s-2.6863 6-6 6c-1.864 0-3.5245-0.85402-4.625-2.1875-0.42797-0.51858-0.76324-1.1077-1-1.75-0.11186-0.30549-0.21996-0.61105-0.28125-0.9375-0.0095-0.04992 0.0083-0.1059 0-0.15625-0.05186-0.31583-0.09375-0.63805-0.09375-0.96875s0.04189-0.65292 0.09375-0.96875c0.0083-0.05035-0.0095-0.10633 0-0.15625 0.06129-0.32645 0.16939-0.63201 0.28125-0.9375 0.23676-0.64226 0.57203-1.2314 1-1.75 1.1005-1.3335 2.761-2.1875 4.625-2.1875zm-16 2c-2.2091 0-4 1.7909-4 4s1.7909 4 4 4 4-1.7909 4-4-1.7909-4-4-4zm16 0c-2.2091 0-4 1.7909-4 4s1.7909 4 4 4 4-1.7909 4-4-1.7909-4-4-4z" fill="url(#linearGradient3093)" opacity=".9"/>
  <path id="path5038" d="m38 28c-6.6274 0-12 5.3726-12 12 0 4.4567 2.4537 8.3365 6.0625 10.406-0.03983 0.19564-0.0625 0.386-0.0625 0.59375v2.0312c-0.16304-0.02656-0.32688-0.03125-0.5-0.03125-1.385 0-2.5 0.892-2.5 2s1.115 2 2.5 2c0.17312 0 0.33696-0.0047 0.5-0.03125v6.0312c0 1.662 1.338 3 3 3h1 3.5625l-3.1875 4.1875c-0.56205 0.72985 0.26436 1.8192 1.375 1.8125h9 9.0312c1.1106 0.0067 1.937-1.0826 1.375-1.8125l-3.1875-4.1875h4.0312 1c1.662 0 3-1.338 3-3v-3.0312h0.40625l5.1562 3.5938c0.48553 0.43108 1.1093 0.43411 1.5938 0 0.48441-0.43408 0.81119-1.2889 0.8125-2.1562v-4.9375-3.9375c0.01059-1.4204-0.90359-2.6814-1.8125-2.5-0.20856 0.0426-0.41157 0.14945-0.59375 0.3125l-5.1562 3.625h-0.40625v-2.9688c0-0.62325-0.17716-1.2088-0.5-1.6875 2.731-2.1968 4.5-5.5325 4.5-9.3125 0-6.6274-5.3726-12-12-12-3.0781 0-5.8765 1.1536-8 3.0625-2.1235-1.9089-4.9219-3.0625-8-3.0625zm0 1.9375c2.5944 0 4.9357 0.95967 6.7188 2.5625a1.936 1.936 0 0 0 2.5625 0c1.783-1.6028 4.1243-2.5625 6.7188-2.5625 5.5812 0 10.062 4.4813 10.062 10.062 0 3.176-1.4779 5.9596-3.7812 7.8125a1.936 1.936 0 0 0-0.375 2.5938c0.097129 0.14401 0.15625 0.33735 0.15625 0.59375v2.9688a1.936 1.936 0 0 0 1.9375 1.9375h0.40625a1.936 1.936 0 0 0 1.125-0.34375l4.4688-3.1562c0.0065 0.05074 0.03163 0.07458 0.03125 0.125v3.9375 4.9375c-1.01e-4 0.06706-0.01663 0.05702-0.03125 0.125l-4.5-3.1562a1.936 1.936 0 0 0-1.0938-0.34375h-0.40625a1.936 1.936 0 0 0-1.9375 1.9375v3.0312c0 0.62302-0.43948 1.0625-1.0625 1.0625h-1-4.0312a1.936 1.936 0 0 0-1.5312 3.125l2.1875 2.875h-7.875-7.8438l2.1875-2.875a1.936 1.936 0 0 0-1.5312-3.125h-3.5625-1c-0.62303 0-1.0625-0.43948-1.0625-1.0625v-6.0312a1.936 1.936 0 0 0-2.25-1.9062c0.0043-6.93e-4 -0.04941 0-0.1875 0-0.20768 0-0.3236-0.02805-0.40625-0.0625-0.13775 0.05742-0.15625 0.1192-0.15625 0s0.0185-0.05742 0.15625 0c0.08265-0.03445 0.19857-0.0625 0.40625-0.0625 0.13816 0 0.1919 7.18e-4 0.1875 0a1.936 1.936 0 0 0 2.25-1.9062v-2.0312c0-0.06692 0.01174-0.12293 0.03125-0.21875a1.936 1.936 0 0 0-0.9375-2.0625c-3.0316-1.7387-5.0938-4.9726-5.0938-8.7188 0-5.5812 4.4813-10.062 10.062-10.062zm0 2.125c-4.3599 0-7.9375 3.5776-7.9375 7.9375s3.5776 7.9375 7.9375 7.9375c2.4553 0 4.6743-1.1484 6.125-2.9062 0.5702-0.69092 1.0035-1.4742 1.3125-2.3125 0.05423-0.14708 0.09363-0.24368 0.125-0.34375a1.936 1.936 0 0 0 0-0.03125c0.07784-0.25025 0.18101-0.54794 0.25-0.9375 0.12504-0.69814 0.10222-0.74463 0-0.125 0.05896-0.35909 0.125-0.78707 0.125-1.2812s-0.06604-0.92216-0.125-1.2812c0.09689 0.60351 0.12191 0.5604 0-0.125-0.01408-0.07814-0.02158-0.1414-0.03125-0.1875-0.0022-0.0109 0.0023-0.02043 0-0.03125-0.087276-0.41515-0.22929-0.78115-0.34375-1.0938-0.30901-0.83827-0.7423-1.6216-1.3125-2.3125-1.4507-1.7579-3.6697-2.9062-6.125-2.9062zm16 0c-2.4553 0-4.6743 1.1484-6.125 2.9062-0.5702 0.69092-1.0035 1.4742-1.3125 2.3125-0.11402 0.31139-0.27776 0.7185-0.375 1.2188-0.0023 0.01174 0.0022 0.0194 0 0.03125-0.04049 0.23739-0.06176 0.41532-0.0625 0.46875-0.04425 0.29816-0.0625 0.62402-0.0625 1s0.01825 0.70184 0.0625 1c7.42e-4 0.05343 0.02202 0.23138 0.0625 0.46875 0.0022 0.01185-0.0023 0.01951 0 0.03125 0.09725 0.50026 0.26099 0.90737 0.375 1.2188 0.30901 0.83827 0.7423 1.6216 1.3125 2.3125 1.4507 1.7579 3.6697 2.9062 6.125 2.9062 4.3599 0 7.9375-3.5776 7.9375-7.9375s-3.5776-7.9375-7.9375-7.9375zm-16 1.9375c1.864 0 3.5245 0.85402 4.625 2.1875 0.42797 0.51858 0.76324 1.1077 1 1.75 0.10094 0.27569 0.19006 0.55081 0.25 0.84375 0.01086 0.05217 0.02176 0.10358 0.03125 0.15625 0.0054 0.03036-0.0049 0.06323 0 0.09375 0.05186 0.31583 0.09375 0.63805 0.09375 0.96875s-0.04189 0.65292-0.09375 0.96875c-5e-3 0.03031 0.0054 0.0636 0 0.09375-0.04415 0.24929-0.11359 0.48111-0.1875 0.71875-0.02933 0.09358-0.06 0.18971-0.09375 0.28125-0.23676 0.64226-0.57203 1.2314-1 1.75-1.1005 1.3335-2.761 2.1875-4.625 2.1875-3.3137 0-6-2.6863-6-6s2.6863-6 6-6zm16 0c3.3137 0 6 2.6863 6 6s-2.6863 6-6 6c-1.864 0-3.5245-0.85402-4.625-2.1875-0.42797-0.51858-0.76324-1.1077-1-1.75-0.11186-0.30549-0.21996-0.61105-0.28125-0.9375-0.0095-0.04992 0.0083-0.1059 0-0.15625-0.05186-0.31583-0.09375-0.63805-0.09375-0.96875s0.04189-0.65292 0.09375-0.96875c0.0083-0.05035-0.0095-0.10633 0-0.15625 0.06129-0.32645 0.16939-0.63201 0.28125-0.9375 0.23676-0.64226 0.57203-1.2314 1-1.75 1.1005-1.3335 2.761-2.1875 4.625-2.1875zm-16 2c-2.2091 0-4 1.7909-4 4s1.7909 4 4 4 4-1.7909 4-4-1.7909-4-4-4zm16 0c-2.2091 0-4 1.7909-4 4s1.7909 4 4 4 4-1.7909 4-4-1.7909-4-4-4zm-16 1.9375c1.1629 0 2.0625 0.89957 2.0625 2.0625s-0.89957 2.0625-2.0625 2.0625-2.0625-0.89957-2.0625-2.0625 0.89957-2.0625 2.0625-2.0625zm16 0c1.1629 0 2.0625 0.89957 2.0625 2.0625s-0.89957 2.0625-2.0625 2.0625-2.0625-0.89957-2.0625-2.0625 0.89957-2.0625 2.0625-2.0625z" fill="url(#linearGradient3093)" opacity=".25"/>
  <path id="path5025" d="m38 28c-6.6274 0-12 5.3726-12 12 0 4.4567 2.4537 8.3365 6.0625 10.406-0.03983 0.19564-0.0625 0.386-0.0625 0.59375v2.0312c-0.16304-0.02656-0.32688-0.03125-0.5-0.03125-1.385 0-2.5 0.892-2.5 2s1.115 2 2.5 2c0.17312 0 0.33696-0.0047 0.5-0.03125v6.0312c0 1.662 1.338 3 3 3h1 3.5625l-3.1875 4.1875c-0.56205 0.72985 0.26436 1.8192 1.375 1.8125h9 9.0312c1.1106 0.0067 1.937-1.0826 1.375-1.8125l-3.1875-4.1875h4.0312 1c1.662 0 3-1.338 3-3v-3.0312h0.40625l5.1562 3.5938c0.48553 0.43108 1.1093 0.43411 1.5938 0 0.48441-0.43408 0.81119-1.2889 0.8125-2.1562v-4.9375-3.9375c0.01059-1.4204-0.90359-2.6814-1.8125-2.5-0.20856 0.0426-0.41157 0.14945-0.59375 0.3125l-5.1562 3.625h-0.40625v-2.9688c0-0.62325-0.17716-1.2088-0.5-1.6875 2.731-2.1968 4.5-5.5325 4.5-9.3125 0-6.6274-5.3726-12-12-12-3.0781 0-5.8765 1.1536-8 3.0625-2.1235-1.9089-4.9219-3.0625-8-3.0625zm0 1.0312c2.819 0 5.3714 1.0675 7.3125 2.8125a1.037 1.037 0 0 0 1.375 0c1.9411-1.745 4.4935-2.8125 7.3125-2.8125 6.067 0 10.969 4.9017 10.969 10.969 0 3.4565-1.6231 6.4874-4.125 8.5a1.037 1.037 0 0 0-0.21875 1.4062c0.20195 0.29941 0.34375 0.66699 0.34375 1.0938v2.9688a1.037 1.037 0 0 0 1.0312 1.0312h0.40625a1.037 1.037 0 0 0 0.59375-0.1875l5.1562-3.625a1.037 1.037 0 0 0 0.09375-0.0625c0.05173-0.0463 0.07892-0.0575 0.09375-0.0625-0.0045 9.01e-4 0.03433-5.08e-4 0.03125 0-0.04004 0.0066 0.0076-0.02933 0.1875 0.21875 0.19369 0.26716 0.37862 0.76449 0.375 1.25v3.9375 4.9375c-9.17e-4 0.60792-0.3156 1.2378-0.46875 1.375-0.15314 0.13724-0.06115 0.13993-0.21875 0a1.037 1.037 0 0 0-0.09375-0.0625l-5.1562-3.5938a1.037 1.037 0 0 0-0.59375-0.1875h-0.40625a1.037 1.037 0 0 0-1.0312 1.0312v3.0312c0 1.1055-0.86324 1.9688-1.9688 1.9688h-1-4.0312a1.037 1.037 0 0 0-0.8125 1.6562l3.125 4.125c-0.07126 0.09394-0.28521 0.22005-0.5 0.21875h-9.0312-9c-0.21478 0.0013-0.42874-0.12481-0.5-0.21875l3.125-4.125a1.037 1.037 0 0 0-0.8125-1.6562h-3.5625-1c-1.1055 0-1.9688-0.86324-1.9688-1.9688v-6.0312a1.037 1.037 0 0 0-1.1875-1.0312c-0.07343 0.01196-0.18939 0.03125-0.34375 0.03125-0.93981 0-1.4688-0.55637-1.4688-0.96875s0.52894-0.96875 1.4688-0.96875c0.1544 0 0.2704 0.0193 0.34375 0.03125a1.037 1.037 0 0 0 1.1875-1.0312v-2.0312c0-0.13232 0.03355-0.23282 0.0625-0.375a1.037 1.037 0 0 0-0.5-1.125c-3.2997-1.8924-5.5625-5.4239-5.5625-9.5 0-6.067 4.9017-10.969 10.969-10.969zm0 3.9375c-3.8741 0-7.0312 3.1572-7.0312 7.0312s3.1572 7.0312 7.0312 7.0312c2.1807 0 4.1494-1.0017 5.4375-2.5625 0.50415-0.61089 0.88079-1.3153 1.1562-2.0625 0.04472-0.12129 0.09458-0.21544 0.125-0.3125 0.07601-0.2444 0.16129-0.51933 0.21875-0.84375 0.01376-0.07682-0.0074-0.07461 0-0.125 0.05566-0.339 0.09375-0.70674 0.09375-1.125 0-0.34403-0.02238-0.64971-0.0625-0.9375 0.0023-0.02223 0.0027-0.1219-0.03125-0.3125-0.01318-0.07312-0.05215-0.13778-0.0625-0.1875h0.03125c-0.074843-0.36575-0.20272-0.66893-0.3125-0.96875-0.27546-0.74725-0.6521-1.4516-1.1562-2.0625-1.2881-1.5608-3.2568-2.5625-5.4375-2.5625zm16 0c-2.1807 0-4.1494 1.0017-5.4375 2.5625-0.50415 0.61089-0.88079 1.3153-1.1562 2.0625-0.11445 0.31257-0.26331 0.66531-0.34375 1.0938-0.08059 0.42346-0.05046 0.49359 0 0.1875-0.05566 0.339-0.09375 0.70674-0.09375 1.125s0.03809 0.786 0.09375 1.125c-0.05045-0.30604-0.08058-0.23593 0 0.1875 0.08044 0.42845 0.22931 0.78119 0.34375 1.0938 0.27546 0.74725 0.6521 1.4516 1.1562 2.0625 1.2881 1.5608 3.2568 2.5625 5.4375 2.5625 3.8741 0 7.0312-3.1572 7.0312-7.0312s-3.1572-7.0312-7.0312-7.0312zm-16 1.0312c1.864 0 3.5245 0.85402 4.625 2.1875 0.42797 0.51858 0.76324 1.1077 1 1.75 0.10094 0.27569 0.19006 0.55081 0.25 0.84375 0.01086 0.05217 0.02176 0.10358 0.03125 0.15625 0.0054 0.03036-0.0049 0.06323 0 0.09375 0.05186 0.31583 0.09375 0.63805 0.09375 0.96875s-0.04189 0.65292-0.09375 0.96875c-5e-3 0.03031 0.0054 0.0636 0 0.09375-0.04415 0.24929-0.11359 0.48111-0.1875 0.71875-0.02933 0.09358-0.06 0.18971-0.09375 0.28125-0.23676 0.64226-0.57203 1.2314-1 1.75-1.1005 1.3335-2.761 2.1875-4.625 2.1875-3.3137 0-6-2.6863-6-6s2.6863-6 6-6zm16 0c3.3137 0 6 2.6863 6 6s-2.6863 6-6 6c-1.864 0-3.5245-0.85402-4.625-2.1875-0.42797-0.51858-0.76324-1.1077-1-1.75-0.11186-0.30549-0.21996-0.61105-0.28125-0.9375-0.0095-0.04992 0.0083-0.1059 0-0.15625-0.05186-0.31583-0.09375-0.63805-0.09375-0.96875s0.04189-0.65292 0.09375-0.96875c0.0083-0.05035-0.0095-0.10633 0-0.15625 0.06129-0.32645 0.16939-0.63201 0.28125-0.9375 0.23676-0.64226 0.57203-1.2314 1-1.75 1.1005-1.3335 2.761-2.1875 4.625-2.1875zm-16 2c-2.2091 0-4 1.7909-4 4s1.7909 4 4 4 4-1.7909 4-4-1.7909-4-4-4zm16 0c-2.2091 0-4 1.7909-4 4s1.7909 4 4 4 4-1.7909 4-4-1.7909-4-4-4zm-16 1.0312c1.6488 0 2.9688 1.32 2.9688 2.9688s-1.32 2.9688-2.9688 2.9688-2.9688-1.32-2.9688-2.9688 1.32-2.9688 2.9688-2.9688zm16 0c1.6488 0 2.9688 1.32 2.9688 2.9688s-1.32 2.9688-2.9688 2.9688-2.9688-1.32-2.9688-2.9688 1.32-2.9688 2.9688-2.9688z" fill="url(#linearGradient3093)" opacity=".5"/>
  <path id="path5016" d="m38 28c-6.6274 0-12 5.3726-12 12 0 0.19613 0.02186 0.39996 0.03125 0.59375 0.21772-6.4361 5.4796-11.594 11.969-11.594 3.0781 0 5.8765 1.1536 8 3.0625 2.1235-1.9089 4.9219-3.0625 8-3.0625 6.4362 0 11.671 5.075 11.969 11.438 0.005307-0.14566 0.03125-0.29045 0.03125-0.4375 0-6.6274-5.3726-12-12-12-3.0781 0-5.8765 1.1536-8 3.0625-2.1235-1.9089-4.9219-3.0625-8-3.0625zm0 8c-2.2091 0-4 1.7909-4 4 0 0.17012 0.04189 0.33547 0.0625 0.5 0.24707-1.972 1.8985-3.5 3.9375-3.5s3.6904 1.528 3.9375 3.5c0.020613-0.16453 0.0625-0.32988 0.0625-0.5 0-2.2091-1.7909-4-4-4zm16 0c-2.2091 0-4 1.7909-4 4 0 0.17012 0.04189 0.33547 0.0625 0.5 0.24707-1.972 1.8985-3.5 3.9375-3.5s3.6904 1.528 3.9375 3.5c0.020613-0.16453 0.0625-0.32988 0.0625-0.5 0-2.2091-1.7909-4-4-4zm-10.062 4.5c-0.01679 0.15559-0.0062 0.31637-0.03125 0.46875-5e-3 0.03031 0.0054 0.0636 0 0.09375-0.04415 0.24929-0.11359 0.48111-0.1875 0.71875-0.02933 0.09358-0.06 0.18971-0.09375 0.28125-0.23676 0.64226-0.57203 1.2314-1 1.75-1.1005 1.3335-2.761 2.1875-4.625 2.1875-3.1066 0-5.6615-2.3495-5.9688-5.375-0.007471 0.12259-0.03125 0.25053-0.03125 0.375 0 3.3137 2.6863 6 6 6 1.864 0 3.5245-0.85402 4.625-2.1875 0.42797-0.51858 0.76324-1.1077 1-1.75 0.03375-0.09154 0.06442-0.18767 0.09375-0.28125 0.07391-0.23764 0.14335-0.46946 0.1875-0.71875 0.0054-0.03015-5e-3 -0.06344 0-0.09375 0.05186-0.31583 0.09375-0.63805 0.09375-0.96875 0-0.17115-0.04449-0.33311-0.0625-0.5zm4.125 0c-0.018015 0.16689-0.0625 0.32885-0.0625 0.5 0 0.3307 0.04189 0.65292 0.09375 0.96875 0.0083 0.05035-0.0095 0.10633 0 0.15625 0.06129 0.32645 0.16939 0.63201 0.28125 0.9375 0.23676 0.64226 0.57203 1.2314 1 1.75 1.1005 1.3335 2.761 2.1875 4.625 2.1875 3.3137 0 6-2.6863 6-6 0-0.12447-0.02378-0.25241-0.03125-0.375-0.30726 3.0255-2.8621 5.375-5.9688 5.375-1.864 0-3.5245-0.85402-4.625-2.1875-0.42797-0.51858-0.76324-1.1077-1-1.75-0.11186-0.30549-0.21996-0.61105-0.28125-0.9375-0.0095-0.04992 0.0083-0.1059 0-0.15625-0.025021-0.15238-0.014456-0.31316-0.03125-0.46875zm13.781 9.5c-0.11761 0.10217-0.22226 0.21478-0.34375 0.3125 0.32284 0.47865 0.5 1.0642 0.5 1.6875v-1c0-0.34696-0.05187-0.68833-0.15625-1zm6.3125 0.03125c-0.20856 0.0426-0.41157 0.14945-0.59375 0.3125l-5.1562 3.625h-0.40625v1h0.40625l5.1562-3.625c0.18218-0.16305 0.38519-0.2699 0.59375-0.3125 0.90891-0.18138 1.8231 1.0796 1.8125 2.5v-1c0.01059-1.4204-0.90359-2.6814-1.8125-2.5zm-36.156 1.3438v0.625c0-0.20775 0.02267-0.3981 0.0625-0.59375-0.020337-0.011664-0.042237-0.019472-0.0625-0.03125zm-0.5 1.625c-1.385 0-2.5 0.892-2.5 2 0 0.17312 0.04253 0.34 0.09375 0.5 0.27659-0.864 1.2377-1.5 2.4062-1.5 0.17312 0 0.33696 0.0047 0.5 0.03125v-1c-0.16304-0.02656-0.32688-0.03125-0.5-0.03125zm7.3125 14-2.4375 3.1875c-0.24126 0.31328-0.21431 0.7006-0.03125 1.0312 0.0085-0.01224 0.02197-0.0192 0.03125-0.03125l3.1875-4.1875h-0.75zm15.156 0 3.1875 4.1875c0.0093 0.01205 0.02272 0.01901 0.03125 0.03125 0.18306-0.33064 0.21001-0.71796-0.03125-1.0312l-2.4375-3.1875h-0.75z" fill="url(#linearGradient3093)"/>
  <path id="path5051" d="m38 34c-3.3137 0-6 2.6863-6 6 0 0.12447 0.02378 0.25241 0.03125 0.375 0.30726-3.0255 2.8621-5.375 5.9688-5.375 1.864 0 3.5245 0.85402 4.625 2.1875 0.42797 0.51858 0.76324 1.1077 1 1.75 0.10094 0.27569 0.19006 0.55081 0.25 0.84375 0.01086 0.05217 0.02176 0.10358 0.03125 0.15625 0.0054 0.03036-0.0049 0.06323 0 0.09375 0.02502 0.15238 0.01446 0.31316 0.03125 0.46875 0.018015-0.16689 0.0625-0.32885 0.0625-0.5 0-0.3307-0.04189-0.65292-0.09375-0.96875-0.0049-0.03052 0.0054-0.06339 0-0.09375-0.0095-0.05266-0.02039-0.10408-0.03125-0.15625-0.05994-0.29294-0.14906-0.56806-0.25-0.84375-0.23676-0.64226-0.57203-1.2314-1-1.75-1.1005-1.3335-2.761-2.1875-4.625-2.1875zm16 0c-1.864 0-3.5245 0.85402-4.625 2.1875-0.42797 0.51858-0.76324 1.1077-1 1.75-0.11186 0.30549-0.21996 0.61105-0.28125 0.9375-0.0095 0.04992 0.0083 0.1059 0 0.15625-0.05186 0.31583-0.09375 0.63805-0.09375 0.96875 0 0.17115 0.04449 0.33311 0.0625 0.5 0.01679-0.15559 0.0062-0.31637 0.03125-0.46875 0.0083-0.05035-0.0095-0.10633 0-0.15625 0.06129-0.32645 0.16939-0.63201 0.28125-0.9375 0.23676-0.64226 0.57203-1.2314 1-1.75 1.1005-1.3335 2.761-2.1875 4.625-2.1875 3.1066 0 5.6615 2.3495 5.9688 5.375 0.007471-0.12259 0.03125-0.25053 0.03125-0.375 0-3.3137-2.6863-6-6-6zm11.969 6.4375c-0.13111 3.5987-1.844 6.7636-4.4688 8.875 0.14312 0.21219 0.26063 0.43932 0.34375 0.6875 2.5262-2.1946 4.1562-5.3881 4.1562-9 0-0.19122-0.0224-0.37347-0.03125-0.5625zm-31.906 0.0625c-0.020613 0.16453-0.0625 0.32988-0.0625 0.5 0 2.2091 1.7909 4 4 4s4-1.7909 4-4c0-0.17012-0.04189-0.33547-0.0625-0.5-0.24707 1.972-1.8985 3.5-3.9375 3.5s-3.6904-1.528-3.9375-3.5zm16 0c-0.020613 0.16453-0.0625 0.32988-0.0625 0.5 0 2.2091 1.7909 4 4 4s4-1.7909 4-4c0-0.17012-0.04189-0.33547-0.0625-0.5-0.24707 1.972-1.8985 3.5-3.9375 3.5s-3.6904-1.528-3.9375-3.5zm-24.031 0.09375c-0.004639 0.13712-0.03125 0.268-0.03125 0.40625 0 4.4316 2.4245 8.2967 6 10.375v-0.375c0-0.20775 0.02267-0.3981 0.0625-0.59375-3.45-1.9787-5.8272-5.6027-6.0312-9.8125zm3.0625 14.906c-0.05122 0.16-0.09375 0.32688-0.09375 0.5 0 1.108 1.115 2 2.5 2 0.17312 0 0.33696-0.0047 0.5-0.03125v-1c-0.16304 0.02655-0.32688 0.03125-0.5 0.03125-1.1686 0-2.1297-0.636-2.4062-1.5zm32.906 4.4688v1h0.40625l5.1562 3.5938c0.48553 0.43108 1.1093 0.43411 1.5938 0 0.48441-0.43408 0.81119-1.2889 0.8125-2.1562v-1c-0.0013 0.86733-0.32809 1.7222-0.8125 2.1562-0.48441 0.43411-1.1082 0.43108-1.5938 0l-5.1562-3.5938h-0.40625zm-30 3.0312v1c0 1.662 1.338 3 3 3h1 2.8125l0.75-1h-3.5625-1c-1.662 0-3-1.338-3-3zm30 0c0 1.662-1.338 3-3 3h-1-4.0312l0.75 1h3.2812 1c1.662 0 3-1.338 3-3v-1zm-25.656 8.2188c-0.50798 0.72908 0.31395 1.7878 1.4062 1.7812h9 9.0312c1.0923 0.0066 1.9142-1.0522 1.4062-1.7812-0.24341 0.43965-0.77235 0.78507-1.4062 0.78125h-9.0312-9c-0.6339 0.0038-1.1628-0.3416-1.4062-0.78125z" fill="#fff" opacity=".2"/>
 </g>
</svg>
