<?xml version="1.0" encoding="UTF-8"?>
<svg id="svg2408" width="96" height="96" version="1.0" xmlns="http://www.w3.org/2000/svg" xmlns:cc="http://creativecommons.org/ns#" xmlns:dc="http://purl.org/dc/elements/1.1/" xmlns:rdf="http://www.w3.org/1999/02/22-rdf-syntax-ns#" xmlns:xlink="http://www.w3.org/1999/xlink">
 <defs id="defs2410">
  <linearGradient id="linearGradient3361" x1="48.036" x2="48.036" y1="25.911" y2="85.821" gradientTransform="scale(1.0599 .94353)" gradientUnits="userSpaceOnUse">
   <stop id="stop3319" stop-color="#c6953a" offset="0"/>
   <stop id="stop3321" stop-color="#ab7a1f" offset="1"/>
  </linearGradient>
  <linearGradient id="ButtonShadow" x1="45.448" x2="45.448" y1="80.472" y2="7.0165" gradientTransform="matrix(1.0059 0 0 .99417 0 12)" gradientUnits="userSpaceOnUse">
   <stop id="stop3750" offset="0"/>
   <stop id="stop3752" stop-opacity=".58824" offset="1"/>
  </linearGradient>
  <linearGradient id="linearGradient3706" x1="48" x2="48" y1="78" y2="5.9877" gradientTransform="translate(0,8)" gradientUnits="userSpaceOnUse">
   <stop id="stop3189" stop-color="#c29656" offset="0"/>
   <stop id="stop3191" stop-color="#ddc08b" offset="1"/>
  </linearGradient>
  <filter id="filter3174" color-interpolation-filters="sRGB">
   <feGaussianBlur id="feGaussianBlur3176" stdDeviation="1.71"/>
  </filter>
  <linearGradient id="linearGradient3664" x1="45.448" x2="45.448" y1="80.472" y2="5.2972" gradientTransform="matrix(1.0059 0 0 .99417 0 12)" gradientUnits="userSpaceOnUse" xlink:href="#ButtonShadow"/>
  <clipPath id="clipPath3860">
   <rect id="rect3862" x="6" y="18" width="84" height="72" rx="6" ry="6" fill="#f0f"/>
  </clipPath>
  <filter id="filter3870" x="-.16559" y="-.19716" width="1.3312" height="1.3943" color-interpolation-filters="sRGB">
   <feGaussianBlur id="feGaussianBlur3872" stdDeviation="5.1703125"/>
  </filter>
  <linearGradient id="linearGradient3699">
   <stop id="stop3701" stop-color="#aa7932" stop-opacity=".78431" offset="0"/>
   <stop id="stop3703" stop-color="#aa7932" stop-opacity=".39216" offset="1"/>
  </linearGradient>
  <linearGradient id="linearGradient3077" x1="90" x2="48" y1="88" y2="88" gradientUnits="userSpaceOnUse" spreadMethod="reflect">
   <stop id="stop3894" stop-opacity=".58824" offset="0"/>
   <stop id="stop3896" stop-opacity=".47059" offset=".1178"/>
   <stop id="stop3898" stop-opacity=".39216" offset=".2381"/>
   <stop id="stop3900" stop-opacity=".31373" offset="1"/>
  </linearGradient>
  <linearGradient id="linearGradient3094" x1="48" x2="48" y1="75.083" y2="-40" gradientTransform="matrix(1,0,0,-1,0,92)" gradientUnits="userSpaceOnUse">
   <stop id="stop4386" stop-color="#fff" offset="0"/>
   <stop id="stop4388" stop-color="#fff" stop-opacity="0" offset="1"/>
  </linearGradient>
  <linearGradient id="linearGradient3123" x1="48.022" x2="48.022" y1="22.933" y2="81.481" gradientUnits="userSpaceOnUse">
   <stop id="stop3876" stop-color="#fff" offset="0"/>
   <stop id="stop3878" stop-color="#fff" stop-opacity="0" offset="1"/>
  </linearGradient>
  <linearGradient id="linearGradient3105" x1="34.86" x2="34.86" y1="16.275" y2="26.987" gradientTransform="matrix(.72 0 0 .72 1.92 -5.52)" gradientUnits="userSpaceOnUse">
   <stop id="stop4010" stop-color="#dab980" offset="0"/>
   <stop id="stop4012" stop-color="#c29856" offset=".71692"/>
   <stop id="stop4014" stop-color="#a2773a" offset="1"/>
  </linearGradient>
  <linearGradient id="linearGradient3952" x1="43" x2="43" y1="91" y2="7" gradientUnits="userSpaceOnUse" xlink:href="#ButtonShadow"/>
  <linearGradient id="linearGradient3961" x1="45" x2="45" y1="92" y2="7" gradientUnits="userSpaceOnUse" xlink:href="#ButtonShadow"/>
  <linearGradient id="linearGradient3092" x1="45.765" x2="45.765" y1="75.815" y2="32.185" gradientTransform="matrix(1.0742 0 0 1.0741 -3.2634 -8.1046)" gradientUnits="userSpaceOnUse" xlink:href="#linearGradient3699"/>
 </defs>
 <metadata id="metadata2413">
  <rdf:RDF>
   <cc:Work rdf:about="">
    <dc:format>image/svg+xml</dc:format>
    <dc:type rdf:resource="http://purl.org/dc/dcmitype/StillImage"/>
    <dc:title/>
   </cc:Work>
  </rdf:RDF>
 </metadata>
 <g id="layer2" display="none">
  <path id="rect3745" d="m14.969 8.8029c-1.6398 0-2.9688 1.2823-2.9688 2.875v7.3221c-3.324 0-7 2.676-7 6v61c0 3.324 2.676 6 6 6h74c3.324 0 6-2.676 6-6v-61c0-3.324-3.7474-6-7.0714-6v-0.13461c0-2.3891-1.9777-4.3125-4.4375-4.3125h-43.335l-1.4688-2.875c-0.73336-1.4246-1.3289-2.875-2.9688-2.875h-16.75z" fill="url(#linearGradient3664)" filter="url(#filter3174)" opacity=".9"/>
 </g>
 <g id="layer4">
  <path id="path3984" d="m14.125 4c-4.4339 0-8.125 3.5684-8.125 8v2.1562c-2.3764 1.8021-4 4.6028-4 7.8438v63c0 5.5036 4.4964 10 10 10h72c5.5036 0 10-4.4964 10-10v-63c0-3.4834-1.8534-6.4531-4.5312-8.2188-0.9872-3.2895-3.9427-5.7812-7.5938-5.7812h-39.5c-1.4026-1.3548-2.5397-2.5096-3.6875-3.1562-1.4952-0.84233-2.9309-0.81421-3.8125-0.84375a0.9278 0.9278 0 0 0-0.03125 0c-0.0012-1.73e-5 -0.03009-1.73e-5 -0.03125 0h-0.03125-20.656z" fill="url(#linearGradient3961)" opacity=".08"/>
  <path id="path3975" d="m14.125 4.9375c-3.9406 0-7.1875 3.1433-7.1875 7.0625v2.5938c-2.3826 1.6221-4 4.2939-4 7.4062v63c0 5.0014 4.0611 9.0625 9.0625 9.0625h72c5.0014 0 9.0625-4.0611 9.0625-9.0625v-63c0-3.2608-1.7732-6.0397-4.3438-7.625-0.76119-3.0957-3.4773-5.4375-6.8438-5.4375h-39.812c-1.5975-1.5412-2.7721-2.6775-3.8438-3.2812-1.2732-0.71724-2.4475-0.68767-3.375-0.71875a1.0438 1.0438 0 0 0-0.03125 0h-0.03125-20.656z" fill="url(#linearGradient3961)" opacity=".1"/>
  <path id="path3967" d="m14.125 5.9688c-3.3887 0-6.1562 2.688-6.1562 6.0312v3.125c-2.3751 1.394-4 3.9205-4 6.875v63c0 4.4381 3.5931 8.0312 8.0312 8.0312h72c4.4381 0 8.0312-3.5931 8.0312-8.0312v-63c0-3.032-1.7122-5.6044-4.1875-6.9688-0.49189-2.8596-2.9286-5.0625-5.9688-5.0625h-40.188c-1.8348-1.7748-3.0086-2.8654-3.9688-3.4062-1.0373-0.58435-1.9404-0.56139-2.9062-0.59375a1.0438 1.0438 0 0 0-0.03125 0h-20.656z" fill="url(#linearGradient3961)" opacity=".2"/>
  <path id="path3908-1" d="m14.125 7c-2.8429 0-5.125 2.23-5.125 5v3.6875c-2.3641 1.1214-4 3.5128-4 6.3125v63c0 3.878 3.122 7 7 7h72c3.878 0 7-3.122 7-7v-63c0-2.8097-1.6534-5.1964-4.0312-6.3125-0.16965-2.6184-2.3622-4.6875-5.0938-4.6875h-40.594c-4.2205-4.1123-4.5028-3.9331-6.5-4h-20.656z" fill="url(#linearGradient3961)" opacity=".3"/>
  <path id="path3941" d="m15 7c-2.77 0-5 2.23-5 5v3.3438c-2.3335 0.82091-4 3.0351-4 5.6562v64c0 3.324 2.676 6 6 6h72c3.324 0 6-2.676 6-6v-64c0-2.6419-1.6999-4.8512-4.0625-5.6562-0.32604-2.4503-2.3952-4.3438-4.9375-4.3438h-40.531c-4.1123-4.1123-4.3665-3.9331-6.3125-4h-19.156z" fill="url(#linearGradient3952)" opacity=".45"/>
 </g>
 <g id="layer3">
  <rect id="rect3352" x="10.536" y="23.143" width="75" height="62.679" rx="6" ry="6" fill="url(#linearGradient3361)"/>
  <path id="path3908" d="m15 6c-2.77 0-5 2.23-5 5v59.812c0 2.3933 1.9192 4.3125 4.3125 4.3125h67.375c2.3933 0 4.3125-1.9192 4.3125-4.3125v-55.812c0-2.77-2.23-5-5-5h-40.531c-4.1123-4.1123-4.3665-3.9331-6.3125-4z" fill="url(#linearGradient3105)"/>
  <path id="path3108" d="m15 6c-2.77 0-5 2.23-5 5v59.812c0 2.3933 1.9192 4.3125 4.3125 4.3125h67.375c2.3933 0 4.3125-1.9192 4.3125-4.3125v-55.812c0-2.77-2.23-5-5-5h-40.531c-4.1123-4.1123-4.3665-3.9331-6.3125-4h-19.156zm0 1.0312h19.125 0.03125c0.96498 0.031157 1.1925-0.016972 1.8125 0.34375 0.63029 0.36673 1.7068 1.3318 3.75 3.375a1.0438 1.0438 0 0 0 0.75 0.28125h40.531c2.2099 0 3.9688 1.7589 3.9688 3.9688v55.812c0 1.8353-1.4459 3.2812-3.2812 3.2812h-67.375c-1.8353 0-3.2812-1.4459-3.2812-3.2812v-59.812c0-2.2099 1.7589-3.9688 3.9688-3.9688z" fill="#fff" opacity=".2"/>
 </g>
 <g id="layer1">
  <rect id="rect2419" x="6" y="14" width="84" height="76" rx="6" ry="6" fill="url(#linearGradient3706)"/>
  <path id="rect4377" d="m12 86c-3.324 0-6-2.676-6-6v-60c0-3.324 2.676-6 6-6h72c3.324 0 6 2.676 6 6v60c0 3.324-2.676 6-6 6zm0-0.96875h72c2.8049 0 5.0312-2.2264 5.0312-5.0312v-60c0-2.8049-2.2264-5.0312-5.0312-5.0312h-72c-2.8049 0-5.0312 2.2264-5.0312 5.0312v60c0 2.8049 2.2264 5.0312 5.0312 5.0312z" fill="url(#linearGradient3094)" opacity=".35"/>
  <path id="rect3841" d="m6 78v2c0 3.324 2.676 6 6 6h72c3.324 0 6-2.676 6-6v-2c0 3.324-2.676 6-6 6h-72c-3.324 0-6-2.676-6-6z" fill="#fff" opacity=".1"/>
 </g>
 <g id="layer7">
  <path id="path3067" d="m6 80v4c0 3.324 2.676 6 6 6h72c3.324 0 6-2.676 6-6v-4c0 3.324-2.676 6-6 6h-72c-3.324 0-6-2.676-6-6z" fill="#a17431" opacity=".8"/>
  <path id="path3888" d="m6 80v4c0 3.324 2.676 6 6 6h72c3.324 0 6-2.676 6-6v-4c0 3.324-2.676 6-6 6h-72c-3.324 0-6-2.676-6-6z" fill="url(#linearGradient3077)" opacity=".5"/>
  <path id="rect4345" d="m6 82v2c0 3.324 2.676 6 6 6h72c3.324 0 6-2.676 6-6v-2c0 3.324-2.676 6-6 6h-72c-3.324 0-6-2.676-6-6z" color="#000000" opacity=".1"/>
  <path id="rect4336" d="m6 83v1c0 3.324 2.676 6 6 6h72c3.324 0 6-2.676 6-6v-1c0 3.324-2.676 6-6 6h-72c-3.324 0-6-2.676-6-6z" color="#000000" opacity=".15"/>
 </g>
 <g id="layer5">
  <path id="path3850" d="m15.969 22.531c-2.8459 0.0043-5.4332 2.5916-5.4375 5.4375v48.062c0.0043 2.8459 2.5916 5.4332 5.4375 5.4375h64.062c2.8459-0.0043 5.4332-2.5916 5.4375-5.4375v-48.062c-0.0043-2.8459-2.5916-5.4332-5.4375-5.4375z" clip-path="url(#clipPath3860)" fill="url(#linearGradient3123)" filter="url(#filter3870)" opacity=".15"/>
 </g>
 <g id="layer6">
  <path id="path4975" d="m58.156 24.375c-2.8028 0-5.222 1.7424-6.25 4.1875-0.06845-0.01677-0.08346-0.08113-0.15625-0.09375-1.242-0.21524-2.473-0.34375-3.6875-0.34375-3.2818 4.25e-4 -6.5448 0.82093-9.5 2.2812-0.78366 0.38876-1.1071 0.98936-1.25 1.5-0.03081 0.10863 0.07104 0.31497 0.0625 0.46875-0.17245-0.07796-0.30451-0.17888-0.53125-0.21875-0.20415-0.03595-0.52383-0.07788-0.96875 0.03125-0.09675 0.02373-0.35627 0.04565-0.875 0.4375h-0.03125v-0.03125c-3.4367 2.6469-5.9779 6.3334-7.2812 10.438-0.67701-0.2242-1.3765-0.40625-2.125-0.40625-3.7911 0-6.9062 3.1173-6.9062 6.9062 0 3.789 3.1152 6.9062 6.9062 6.9062 0.77178 0 1.4923-0.19975 2.1875-0.4375 1.31 4.0093 3.809 7.6143 7.1562 10.219v-0.03125h0.03125c0.29242 0.2238 0.95787 0.64974 1.8125 0.5 0.23072-0.03973 0.35744-0.14031 0.53125-0.21875 0.0081 0.15118-0.09099 0.36525-0.0625 0.46875 0.14498 0.52506 0.43928 1.1118 1.2188 1.5 2.9954 1.4996 6.3251 2.2812 9.625 2.2812 1.2139 0 2.4628-0.12444 3.7188-0.34375 0.76048 2.9769 3.3584 5.25 6.5625 5.25 3.7826 0 6.9062-3.0944 6.9062-6.875 0-1.7442-0.72279-3.2916-1.8125-4.5 3.3403-3.435 5.43-7.9393 5.9062-12.688 0.06378-0.62956-0.21395-1.36-0.625-1.8125-0.12818-0.14113-0.34551-0.11329-0.5-0.21875 0.17186-0.10285 0.34225-0.13872 0.5-0.3125 0.4146-0.45672 0.68254-1.1974 0.625-1.8125-0.43576-4.4771-2.3201-8.7936-5.3438-12.156-0.12259-0.13706-0.29965-0.11636-0.4375-0.21875 0.80502-1.115 1.375-2.4072 1.375-3.875 0-3.7205-3.0584-6.7812-6.7812-6.7812zm0 2c2.644 0 4.7812 2.1394 4.7812 4.7812 0 2.6418-2.1373 4.7812-4.7812 4.7812s-4.7812-2.1394-4.7812-4.7812c0-2.6418 2.1373-4.7812 4.7812-4.7812zm-10.094 3.75c1.0746 0 2.1911 0.11275 3.3438 0.3125 0.18101 0.03138 0.3125 0.22371 0.3125 0.40625 0 0.0061 3.83e-4 0.1231 0 0.125 3.83e-4 3.6637 3.0011 6.6562 6.6875 6.6562 1.2636 0 2.4928-0.38274 3.5938-1.0938 0.15575-0.10063 0.37678-0.07526 0.5 0.0625 2.7304 3.0365 4.4504 6.9582 4.8438 11 0.01 0.10638-0.02219 0.20242-0.09375 0.28125s-0.17486 0.09375-0.28125 0.09375h-7.3125c-0.18484 0-0.31467-0.12958-0.34375-0.3125-0.86869-5.4474-5.7095-9.5312-11.25-9.5312-1.5062 0-3.0009 0.29895-4.4375 0.90625-0.1703 0.07156-0.3704-1.18e-4 -0.46875-0.15625l-3.875-6.1562c-0.05664-0.090311-0.06034-0.17869-0.03125-0.28125 0.0287-0.10256 0.09183-0.20254 0.1875-0.25 2.6903-1.3294 5.6741-2.0621 8.625-2.0625zm-11.719 4c0.05051-0.01239 0.10401-0.0092 0.15625 0 0.10447 0.01837 0.19336 0.09795 0.25 0.1875l3.875 6.125c0.09911 0.15728 0.04593 0.37793-0.09375 0.5-2.4782 2.1587-3.875 5.2457-3.875 8.5 0 3.2302 1.3911 6.3108 3.8438 8.4688 0.13967 0.12284 0.16238 0.34349 0.0625 0.5l-3.9062 6.125c-0.05702 0.08916-0.14553 0.16951-0.25 0.1875-0.10486 0.01837-0.19744-0.02831-0.28125-0.09375-3.125-2.4315-5.4789-5.8363-6.625-9.5938-0.04516-0.14848 0.0037-0.3102 0.125-0.40625 1.5904-1.2594 2.5312-3.1991 2.5312-5.1875 0-1.9884-0.9412-3.9281-2.5312-5.1875-0.12201-0.09643-0.17016-0.25815-0.125-0.40625 1.1553-3.7892 3.5235-7.2194 6.6875-9.6562 0.04152-0.03233 0.10574-0.05011 0.15625-0.0625zm11.719 6c4.5577 0 8.57 3.3839 9.2812 7.8438 0.08945 0.56268 0.51502 1.0753 1.0625 1.4688-0.54466 0.34981-0.9812 0.83841-1.0938 1.5312-0.72044 4.4237-4.7126 7.8125-9.25 7.8125-1.248 0-2.5066-0.26202-3.7188-0.78125-0.53658-0.22839-1.1602-0.18433-1.75 0.03125-0.03152-0.59691-0.25963-1.1662-0.78125-1.625-2.0255-1.7821-3.1562-4.3128-3.1562-6.9688 0-2.682 1.1407-5.2172 3.1875-7 0.48822-0.42668 0.70272-0.9975 0.75-1.625 0.56203 0.24282 1.1802 0.32818 1.8125 0.0625 1.1951-0.50523 2.4146-0.75 3.6562-0.75zm-22.5 4.5c2.7059 0 4.9062 2.2023 4.9062 4.9062 0 2.704-2.2003 4.9062-4.9062 4.9062s-4.9062-2.2023-4.9062-4.9062c0-2.704 2.2003-4.9062 4.9062-4.9062zm34.094 6.3438h7.3125c0.10639-3.82e-4 0.2093 0.04578 0.28125 0.125 0.07195 0.07921 0.10449 0.17524 0.09375 0.28125-0.4332 4.3192-2.3505 8.4151-5.4062 11.531-0.11672 0.11901-0.29017 0.13942-0.4375 0.0625-0.96895-0.50513-2.046-0.75-3.0938-0.75-3.3799 0-6.2362 2.517-6.625 5.875-0.01952 0.16493-0.11746 0.2838-0.28125 0.3125-1.1668 0.20703-2.3304 0.3125-3.4375 0.3125-2.9849 0-6.0074-0.70515-8.7188-2.0625-0.09528-0.04745-0.15918-0.14744-0.1875-0.25-0.02833-0.10294-0.02577-0.19132 0.03125-0.28125l3.9062-6.1562c0.09988-0.15498 0.29884-0.19732 0.46875-0.125 1.4527 0.62223 2.9762 0.9375 4.5 0.9375 5.5252 0 10.338-4.0932 11.219-9.5 0.02947-0.18139 0.19093-0.31212 0.375-0.3125zm-1.8125 12.938c0.16472-0.01661 0.33088 0 0.5 0 2.7059 0 4.9062 2.1537 4.9062 4.8438 0 2.69-2.2003 4.875-4.9062 4.875s-4.9062-2.185-4.9062-4.875c0-2.5219 1.9354-4.5946 4.4062-4.8438z" fill="#fff" opacity=".05"/>
  <path id="path4964" d="m58.156 25.344c-2.856 0-5.1454 2.1224-5.625 4.8438-0.1762-0.36381-0.43159-0.6623-0.9375-0.75-1.1986-0.20772-2.3847-0.34375-3.5312-0.34375-3.1212 4.04e-4 -6.2671 0.75945-9.0938 2.1562-0.44985 0.22316-0.63126 0.59361-0.71875 0.90625-0.07772 0.274-0.05031 0.79564 0.15625 1.125l3.875 6.1562c0.35829 0.56879 1.0878 0.80954 1.75 0.53125 1.3123-0.55476 2.6612-0.8125 4.0312-0.8125 5.0345 0 9.4311 3.7173 10.219 8.6562 0.09185 0.57776 0.70895 1.1875 1.375 1.1875h7.3125c0.20264 0 0.67169-0.041411 1.0312-0.4375 0.24816-0.27337 0.40945-0.69422 0.375-1.0625-0.41441-4.2577-2.2532-8.3607-5.125-11.562-0.0055-0.0061 0.0055-0.02511 0-0.03125-0.40969-0.44088-0.97828-0.50721-1.5-0.3125 1.3146-1.0675 2.2188-2.6212 2.2188-4.4375 0-3.1971-2.6131-5.8125-5.8125-5.8125zm0 1.0312c2.644 0 4.7812 2.1394 4.7812 4.7812 0 2.6418-2.1373 4.7812-4.7812 4.7812s-4.7812-2.1394-4.7812-4.7812c0-2.6418 2.1373-4.7812 4.7812-4.7812zm-10.094 3.75c1.0746 0 2.1911 0.11275 3.3438 0.3125 0.18101 0.03138 0.3125 0.22371 0.3125 0.40625 0 0.0061 3.83e-4 0.1231 0 0.125 3.83e-4 3.6637 3.0011 6.6562 6.6875 6.6562 1.2636 0 2.4928-0.38274 3.5938-1.0938 0.15575-0.10063 0.37678-0.07526 0.5 0.0625 2.7304 3.0365 4.4504 6.9582 4.8438 11 0.01 0.10638-0.02219 0.20242-0.09375 0.28125s-0.17486 0.09375-0.28125 0.09375h-7.3125c-0.18484 0-0.31467-0.12958-0.34375-0.3125-0.86869-5.4474-5.7095-9.5312-11.25-9.5312-1.5062 0-3.0009 0.29895-4.4375 0.90625-0.1703 0.07156-0.3704-1.18e-4 -0.46875-0.15625l-3.875-6.1562c-0.05664-0.090311-0.06034-0.17869-0.03125-0.28125 0.0287-0.10256 0.09183-0.20254 0.1875-0.25 2.6903-1.3294 5.6741-2.0621 8.625-2.0625zm-11.625 2.9688c-0.10044-0.0049-0.21697 1.55e-4 -0.34375 0.03125-0.07575 0.01858-0.22806 0.01392-0.53125 0.25-3.3373 2.5703-5.8433 6.1574-7.0625 10.156-0.13216 0.43338 0.13322 0.86053 0.40625 1.2188-0.96443-0.67815-2.0822-1.1562-3.3438-1.1562-3.2646 0-5.9375 2.675-5.9375 5.9375 0 3.2625 2.6729 5.9375 5.9375 5.9375 1.2274 0 2.3008-0.47999 3.25-1.125-0.1657 0.32209-0.42037 0.64532-0.3125 1 1.2103 3.9677 3.7051 7.5301 7 10.094 0.18651 0.14563 0.59537 0.36857 1.0938 0.28125 0.51391-0.08849 0.77121-0.36497 0.9375-0.625l3.9062-6.125c0.37401-0.58609 0.30722-1.3537-0.25-1.8438-2.2327-1.9644-3.5-4.753-3.5-7.6875 0-2.9597 1.2751-5.7536 3.5312-7.7188 0.50508-0.44141 0.70047-1.1785 0.28125-1.8438l-3.875-6.125c-0.16946-0.26793-0.43159-0.53605-0.9375-0.625-0.06522-0.01149-0.14956-0.02635-0.25-0.03125zm-0.09375 1.0312c0.05051-0.01239 0.10401-0.0092 0.15625 0 0.10447 0.01837 0.19336 0.09795 0.25 0.1875l3.875 6.125c0.09911 0.15728 0.04593 0.37793-0.09375 0.5-2.4782 2.1587-3.875 5.2457-3.875 8.5 0 3.2302 1.3911 6.3108 3.8438 8.4688 0.13967 0.12284 0.16238 0.34349 0.0625 0.5l-3.9062 6.125c-0.05702 0.08916-0.14553 0.16951-0.25 0.1875-0.10486 0.01837-0.19744-0.02831-0.28125-0.09375-3.125-2.4315-5.4789-5.8363-6.625-9.5938-0.04516-0.14848 0.0037-0.3102 0.125-0.40625 1.5904-1.2594 2.5312-3.1991 2.5312-5.1875 0-1.9884-0.9412-3.9281-2.5312-5.1875-0.12201-0.09643-0.17016-0.25815-0.125-0.40625 1.1553-3.7892 3.5235-7.2194 6.6875-9.6562 0.04152-0.03233 0.10574-0.05011 0.15625-0.0625zm-10.781 10.5c2.7059 0 4.9062 2.2023 4.9062 4.9062 0 2.704-2.2003 4.9062-4.9062 4.9062s-4.9062-2.2023-4.9062-4.9062c0-2.704 2.2003-4.9062 4.9062-4.9062zm34.094 5.3125c-0.67031 0.0014-1.2939 0.4958-1.4062 1.1875-0.79812 4.9007-5.1708 8.625-10.188 8.625-1.3818 0-2.7649-0.27455-4.0938-0.84375-0.56965-0.24246-1.3591-0.10654-1.75 0.5l-3.9062 6.1562c-0.21292 0.33581-0.2288 0.8614-0.15625 1.125 0.08838 0.32006 0.27124 0.65214 0.71875 0.875 2.8576 1.4306 6.0404 2.1875 9.1875 2.1875 1.1725 0 2.4015-0.12666 3.625-0.34375 0.28556-0.05004 0.54738-0.21194 0.75-0.4375 0.12256 3.1457 2.7233 5.6875 5.9062 5.6875 3.2602 0 5.9375-2.6548 5.9375-5.9062 0-2.0228-1.0882-3.7255-2.6562-4.7812 0.38344 0.01446 0.78139-0.05712 1.0625-0.34375 3.2208-3.2844 5.2306-7.6012 5.6875-12.156 0.03805-0.37553-0.12848-0.79109-0.375-1.0625-0.26664-0.29358-0.62465-0.47021-1.0312-0.46875h-7.3125zm0 1.0312h7.3125c0.10639-3.82e-4 0.2093 0.04578 0.28125 0.125 0.07195 0.07921 0.10449 0.17524 0.09375 0.28125-0.4332 4.3192-2.3505 8.4151-5.4062 11.531-0.11672 0.11901-0.29017 0.13942-0.4375 0.0625-0.96895-0.50513-2.046-0.75-3.0938-0.75-3.3799 0-6.2362 2.517-6.625 5.875-0.01952 0.16493-0.11746 0.2838-0.28125 0.3125-1.1668 0.20703-2.3304 0.3125-3.4375 0.3125-2.9849 0-6.0074-0.70515-8.7188-2.0625-0.09528-0.04745-0.15918-0.14744-0.1875-0.25-0.02833-0.10294-0.02577-0.19132 0.03125-0.28125l3.9062-6.1562c0.09988-0.15498 0.29884-0.19732 0.46875-0.125 1.4527 0.62223 2.9762 0.9375 4.5 0.9375 5.5252 0 10.338-4.0932 11.219-9.5 0.02947-0.18139 0.19093-0.31212 0.375-0.3125zm-1.8125 12.938c0.16472-0.01661 0.33088 0 0.5 0 2.7059 0 4.9062 2.1537 4.9062 4.8438 0 2.69-2.2003 4.875-4.9062 4.875s-4.9062-2.185-4.9062-4.875c0-2.5219 1.9354-4.5946 4.4062-4.8438z" fill="#fff" opacity=".1"/>
  <path id="path3324" d="m58.161 26.369c-2.644 0-4.7849 2.143-4.7849 4.7848 0 2.6418 2.1409 4.7848 4.7849 4.7848s4.7849-2.143 4.7849-4.7848c0-2.6418-2.1409-4.7848-4.7849-4.7848zm-10.105 3.7475c-2.9509 3.82e-4 -5.9426 0.74512-8.6329 2.0745-0.09567 0.04746-0.15533 0.13166-0.18403 0.23422-0.02909 0.10256-0.02318 0.21083 0.03346 0.30114l3.8815 6.1399c0.09835 0.15613 0.29816 0.22213 0.46845 0.15057 1.4366-0.6073 2.9273-0.90342 4.4336-0.90342 5.5405 0 10.374 4.1055 11.243 9.5529 0.02908 0.18292 0.18323 0.31787 0.36807 0.31787h7.2945c0.10638 0 0.21286-0.03828 0.28442-0.11711 0.07156-0.07883 0.11033-0.17803 0.10038-0.28441-0.3934-4.0418-2.1214-7.9551-4.8518-10.992-0.12322-0.13776-0.32943-0.15083-0.48518-0.0502-1.101 0.71101-2.3502 1.0875-3.6138 1.0875-3.6864 0-6.6751-2.9948-6.6754-6.6586 3.83e-4 -0.0019 0-0.12772 0-0.13384 0-0.18254-0.13687-0.35341-0.31788-0.38479-1.1526-0.19975-2.2715-0.3346-3.3461-0.3346zm-11.711 4.0152c-0.05051 0.01239-0.10905 0.03459-0.15057 0.06692-3.164 2.4369-5.5368 5.864-6.6922 9.6533-0.04516 0.1481-0.0049 0.30509 0.11711 0.40152 1.59 1.2594 2.543 3.1979 2.543 5.1863 0 1.9884-0.95259 3.9269-2.543 5.1863-0.12131 0.09605-0.16227 0.25304-0.11711 0.40152 1.1461 3.7575 3.5003 7.1715 6.6252 9.6031 0.08381 0.06544 0.17956 0.10202 0.28442 0.08365 0.10447-0.01799 0.19394-0.09487 0.25096-0.18403l3.9149-6.1232c0.09988-0.15651 0.07275-0.36233-0.06692-0.48517-2.4526-2.1579-3.8647-5.252-3.8647-8.4822 0-3.2543 1.4199-6.3569 3.8982-8.5156 0.13968-0.12207 0.18277-0.32789 0.08366-0.48517l-3.8815-6.1399c-0.05664-0.08955-0.14648-0.14893-0.25096-0.1673-0.05224-0.0092-0.10006-0.01239-0.15057 0zm-10.791 10.506c-2.7059 0-4.902 2.198-4.902 4.9019 0 2.704 2.1961 4.8852 4.902 4.8852s4.902-2.1812 4.902-4.8852c0-2.704-2.1961-4.9019-4.902-4.9019zm41.408 6.324-7.2945 0.01673c-0.18407 3.83e-4 -0.35533 0.13648-0.3848 0.31787-0.88055 5.4068-5.7009 9.486-11.226 9.486-1.5238 0-3.0311-0.31466-4.4838-0.93688-0.16991-0.07232-0.36857-0.02114-0.46845 0.13384l-3.9149 6.1399c-0.05702 0.08993-0.06179 0.1982-0.03346 0.30114 0.02832 0.10256 0.08875 0.18677 0.18404 0.23422 2.7113 1.3573 5.7316 2.0745 8.7165 2.0745 1.1071 0 2.2629-0.11084 3.4297-0.31787 0.16379-0.0287 0.28163-0.15294 0.30115-0.31787 0.3888-3.358 3.2287-5.889 6.6085-5.889 1.0478 0 2.1262 0.26445 3.0951 0.76958 0.14733 0.07692 0.31827 0.05209 0.43499-0.06692 3.0557-3.1161 4.9875-7.2245 5.4207-11.544 0.01074-0.10601-0.02843-0.2052-0.10038-0.28441-0.07195-0.07922-0.17803-0.11749-0.28442-0.11711zm-8.6162 12.932c-2.7059 0-4.902 2.1784-4.902 4.8685 0 2.69 2.1961 4.8685 4.902 4.8685s4.902-2.1784 4.902-4.8685c0-2.69-2.1961-4.8685-4.902-4.8685z" fill="url(#linearGradient3092)" opacity=".9"/>
  <path id="path4936" d="m58.156 26.375c-2.644 0-4.7812 2.1394-4.7812 4.7812 0 2.6418 2.1373 4.7812 4.7812 4.7812s4.7812-2.1394 4.7812-4.7812c0-2.6418-2.1373-4.7812-4.7812-4.7812zm0 1.9688c1.5813 0 2.8125 1.2332 2.8125 2.8125 0 1.5793-1.2312 2.8125-2.8125 2.8125s-2.8125-1.2332-2.8125-2.8125c0-1.5793 1.2312-2.8125 2.8125-2.8125zm-10.094 1.7812c-2.9509 3.82e-4 -5.9347 0.73309-8.625 2.0625-0.09567 0.04746-0.1588 0.14744-0.1875 0.25-0.02909 0.10256-0.02539 0.19094 0.03125 0.28125l3.875 6.1562c0.09835 0.15613 0.29846 0.22781 0.46875 0.15625 1.4366-0.6073 2.9313-0.90625 4.4375-0.90625 5.5405 0 10.381 4.0839 11.25 9.5312 0.02908 0.18292 0.15891 0.3125 0.34375 0.3125h7.3125c0.10638 0 0.20969-0.01492 0.28125-0.09375 0.07156-0.07883 0.1037-0.17487 0.09375-0.28125-0.3934-4.0418-2.1133-7.9635-4.8438-11-0.12322-0.13776-0.34425-0.16313-0.5-0.0625-1.101 0.71101-2.3301 1.0938-3.5938 1.0938-3.6864 0-6.6871-2.9925-6.6875-6.6562 3.83e-4 -0.0019 0-0.11888 0-0.125 0-0.18254-0.13149-0.37487-0.3125-0.40625-1.1526-0.19975-2.2692-0.3125-3.3438-0.3125zm0 1.9688c0.61484 0 1.2973 0.106 1.9688 0.1875 0.2865 1.7622 0.96342 3.3863 2.1562 4.625-1.3174-0.43422-2.6834-0.75-4.125-0.75-1.3106 0-2.6031 0.26679-3.875 0.65625l-2.1875-3.4688c1.9711-0.74318 4.0188-1.2497 6.0625-1.25zm-11.719 2.0312c-0.05051 0.01239-0.11473 0.03017-0.15625 0.0625-3.164 2.4369-5.5322 5.867-6.6875 9.6562-0.04516 0.1481 3e-3 0.30982 0.125 0.40625 1.59 1.2594 2.5312 3.1991 2.5312 5.1875 0 1.9884-0.94082 3.9281-2.5312 5.1875-0.12131 0.09605-0.17016 0.25777-0.125 0.40625 1.1461 3.7575 3.5 7.1622 6.625 9.5938 0.08381 0.06544 0.1764 0.11212 0.28125 0.09375 0.10447-0.01799 0.19298-0.09834 0.25-0.1875l3.9062-6.125c0.09988-0.15651 0.07717-0.37716-0.0625-0.5-2.4526-2.1579-3.8438-5.2386-3.8438-8.4688 0-3.2543 1.3968-6.3413 3.875-8.5 0.13968-0.12207 0.19286-0.34272 0.09375-0.5l-3.875-6.125c-0.05664-0.08955-0.14553-0.16913-0.25-0.1875-0.05224-0.0092-0.10574-0.01239-0.15625 0zm-0.1875 2.9062 2.1562 3.4375c-2.2743 2.4458-3.625 5.6171-3.625 8.9688 0 3.3326 1.3095 6.4952 3.5625 8.9375l-2.1562 3.375c-1.9515-1.8834-3.5154-4.126-4.4062-6.6562 1.4443-1.5758 2.4375-3.5068 2.4375-5.6562 0-2.1496-0.99347-4.0806-2.4375-5.6562 0.90404-2.5725 2.4776-4.8526 4.4688-6.75zm25.469 1.8125c1.6482 2.0988 2.7349 4.5519 3.2812 7.1562h-4.125c-0.74912-2.7125-2.1966-5.0991-4.3125-6.8125 0.64404 0.15414 1.2485 0.40625 1.9375 0.40625 1.1249 0 2.193-0.32 3.2188-0.75zm-36.062 5.7812c-2.7059 0-4.9062 2.2023-4.9062 4.9062 0 2.704 2.2003 4.9062 4.9062 4.9062s4.9062-2.2023 4.9062-4.9062c0-2.704-2.2003-4.9062-4.9062-4.9062zm0 1.9688c1.637 0 2.9375 1.3023 2.9375 2.9375 0 1.6352-1.3005 2.9375-2.9375 2.9375s-2.9375-1.3023-2.9375-2.9375c0-1.6352 1.3005-2.9375 2.9375-2.9375zm34.094 4.375c-0.18407 3.83e-4 -0.34553 0.13111-0.375 0.3125-0.88055 5.4068-5.6936 9.5-11.219 9.5-1.5238 0-3.0473-0.31527-4.5-0.9375-0.16991-0.07232-0.36887-0.02998-0.46875 0.125l-3.9062 6.1562c-0.05702 0.08993-0.05958 0.17831-0.03125 0.28125 0.02832 0.10256 0.09222 0.20255 0.1875 0.25 2.7113 1.3573 5.7338 2.0625 8.7188 2.0625 1.1071 0 2.2707-0.10547 3.4375-0.3125 0.16379-0.0287 0.26173-0.14757 0.28125-0.3125 0.3888-3.358 3.2451-5.875 6.625-5.875 1.0478 0 2.1248 0.24487 3.0938 0.75 0.14733 0.07692 0.32078 0.05651 0.4375-0.0625 3.0557-3.1161 4.9731-7.212 5.4062-11.531 0.01074-0.10601-0.0218-0.20204-0.09375-0.28125-0.07195-0.07922-0.17486-0.12538-0.28125-0.125h-7.3125zm1.0938 1.9688h4.1562c-0.60804 2.884-1.8588 5.5797-3.8125 7.8125-0.8865-0.28908-1.7832-0.5-2.6875-0.5-3.8861 0-7.1448 2.6698-8.1875 6.3125-0.73091 0.09131-1.4721 0.1875-2.1562 0.1875-2.0886 0-4.1684-0.50018-6.1562-1.25l2.1875-3.4375c1.2961 0.40723 2.627 0.6875 3.9688 0.6875 6.0067 0 11.106-4.1596 12.688-9.8125zm-2.9062 10.969c-2.4709 0.24918-4.4062 2.3219-4.4062 4.8438 0 2.69 2.2003 4.875 4.9062 4.875s4.9062-2.185 4.9062-4.875c0-2.69-2.2003-4.8438-4.9062-4.8438-0.16912 0-0.33528-0.01661-0.5 0zm0.5 1.9688c1.6606 0 2.9375 1.2592 2.9375 2.875 0 1.6158-1.2921 2.9062-2.9375 2.9062s-2.9375-1.2905-2.9375-2.9062c0-1.6158 1.2769-2.875 2.9375-2.875z" fill="url(#linearGradient3092)" opacity=".25"/>
  <path id="path4923" d="m58.156 26.375c-2.644 0-4.7812 2.1394-4.7812 4.7812 0 2.6418 2.1373 4.7812 4.7812 4.7812s4.7812-2.1394 4.7812-4.7812c0-2.6418-2.1373-4.7812-4.7812-4.7812zm0 0.96875c2.115 0 3.8125 1.6996 3.8125 3.8125 0 2.113-1.6975 3.8125-3.8125 3.8125s-3.8125-1.6995-3.8125-3.8125c0-2.1129 1.6975-3.8125 3.8125-3.8125zm-10.094 2.7812c-2.9509 3.82e-4 -5.9347 0.73309-8.625 2.0625-0.09567 0.04746-0.1588 0.14744-0.1875 0.25-0.02909 0.10256-0.02539 0.19094 0.03125 0.28125l3.875 6.1562c0.09835 0.15613 0.29846 0.22781 0.46875 0.15625 1.4366-0.6073 2.9313-0.90625 4.4375-0.90625 5.5405 0 10.381 4.0839 11.25 9.5312 0.02908 0.18292 0.15891 0.3125 0.34375 0.3125h7.3125c0.10638 0 0.20969-0.01492 0.28125-0.09375 0.07156-0.07883 0.1037-0.17487 0.09375-0.28125-0.3934-4.0418-2.1133-7.9635-4.8438-11-0.12322-0.13776-0.34425-0.16313-0.5-0.0625-1.101 0.71101-2.3301 1.0938-3.5938 1.0938-3.6864 0-6.6871-2.9925-6.6875-6.6562 3.83e-4 -0.0019 0-0.11888 0-0.125 0-0.18254-0.13149-0.37487-0.3125-0.40625-1.1526-0.19975-2.2692-0.3125-3.3438-0.3125zm0 0.96875c0.87803 0 1.8241 0.13295 2.7812 0.28125 0.22664 4.0009 3.4906 7.2188 7.5625 7.2188 1.2648 0 2.4776-0.38872 3.5938-1 2.2748 2.6509 3.7107 5.9628 4.1875 9.4062h-6.0938c-1.1683-5.6591-6.1925-9.8438-12.031-9.8438-1.4639 0-2.9079 0.28654-4.3125 0.8125l-3.2188-5.1562c2.3894-1.0736 4.9729-1.7184 7.5312-1.7188zm-11.719 3.0312c-0.05051 0.01239-0.11473 0.03017-0.15625 0.0625-3.164 2.4369-5.5322 5.867-6.6875 9.6562-0.04516 0.1481 3e-3 0.30982 0.125 0.40625 1.59 1.2594 2.5312 3.1991 2.5312 5.1875 0 1.9884-0.94082 3.9281-2.5312 5.1875-0.12131 0.09605-0.17016 0.25777-0.125 0.40625 1.1461 3.7575 3.5 7.1622 6.625 9.5938 0.08381 0.06544 0.1764 0.11212 0.28125 0.09375 0.10447-0.01799 0.19298-0.09834 0.25-0.1875l3.9062-6.125c0.09988-0.15651 0.07717-0.37716-0.0625-0.5-2.4526-2.1579-3.8438-5.2386-3.8438-8.4688 0-3.2543 1.3968-6.3413 3.875-8.5 0.13968-0.12207 0.19286-0.34272 0.09375-0.5l-3.875-6.125c-0.05664-0.08955-0.14553-0.16913-0.25-0.1875-0.05224-0.0092-0.10574-0.01239-0.15625 0zm-0.03125 1.3438 3.2188 5.0938c-2.4516 2.3215-3.8438 5.511-3.8438 8.875 0 3.342 1.3854 6.5239 3.8125 8.8438l-3.25 5.0625c-2.6252-2.2096-4.6435-5.1081-5.6875-8.3438 1.5755-1.4402 2.5625-3.4435 2.5625-5.5625 0-2.1191-0.98737-4.1224-2.5625-5.5625 1.0532-3.2673 3.0919-6.19 5.75-8.4062zm-10.75 9.1562c-2.7059 0-4.9062 2.2023-4.9062 4.9062 0 2.704 2.2003 4.9062 4.9062 4.9062s4.9062-2.2023 4.9062-4.9062c0-2.704-2.2003-4.9062-4.9062-4.9062zm0 0.96875c2.1739 0 3.9375 1.7655 3.9375 3.9375 0 2.172-1.7636 3.9375-3.9375 3.9375s-3.9375-1.7655-3.9375-3.9375c0-2.172 1.7636-3.9375 3.9375-3.9375zm34.094 5.375c-0.18407 3.83e-4 -0.34553 0.13111-0.375 0.3125-0.88055 5.4068-5.6936 9.5-11.219 9.5-1.5238 0-3.0473-0.31527-4.5-0.9375-0.16991-0.07232-0.36887-0.02998-0.46875 0.125l-3.9062 6.1562c-0.05702 0.08993-0.05958 0.17831-0.03125 0.28125 0.02832 0.10256 0.09222 0.20255 0.1875 0.25 2.7113 1.3573 5.7338 2.0625 8.7188 2.0625 1.1071 0 2.2707-0.10547 3.4375-0.3125 0.16379-0.0287 0.26173-0.14757 0.28125-0.3125 0.3888-3.358 3.2451-5.875 6.625-5.875 1.0478 0 2.1248 0.24487 3.0938 0.75 0.14733 0.07692 0.32078 0.05651 0.4375-0.0625 3.0557-3.1161 4.9731-7.212 5.4062-11.531 0.01074-0.10601-0.0218-0.20204-0.09375-0.28125-0.07195-0.07922-0.17486-0.12538-0.28125-0.125h-7.3125zm0.40625 0.96875h6.1875c-0.51693 3.7405-2.1712 7.2693-4.7812 10.031-0.98494-0.42753-2.0309-0.71875-3.0625-0.71875-3.6844 0-6.7625 2.6424-7.4375 6.2188-0.98422 0.15516-1.9807 0.28125-2.9062 0.28125-2.6121 0-5.2412-0.64984-7.6562-1.75l3.25-5.0938c1.4311 0.54855 2.9098 0.84375 4.4062 0.84375 5.825 0 10.82-4.1937 12-9.8125zm-2.2188 11.969c-2.4709 0.24918-4.4062 2.3219-4.4062 4.8438 0 2.69 2.2003 4.875 4.9062 4.875s4.9062-2.185 4.9062-4.875c0-2.69-2.2003-4.8438-4.9062-4.8438-0.16912 0-0.33528-0.01661-0.5 0zm0.5 0.96875c2.1856 0 3.9375 1.7197 3.9375 3.875 0 2.1553-1.7595 3.9062-3.9375 3.9062s-3.9375-1.751-3.9375-3.9062c0-2.1553 1.7519-3.875 3.9375-3.875zm-18.312 1.7188c-0.0089 0.02197 0.01126 0.04475 0 0.0625h-0.03125l0.03125-0.0625z" fill="url(#linearGradient3092)" opacity=".5"/>
  <path id="path4914" d="m58.156 26.375c-2.644 0-4.7812 2.1394-4.7812 4.7812 0 0.1709 0.04502 0.33372 0.0625 0.5 0.25266-2.4041 2.2458-4.2812 4.7188-4.2812s4.4661 1.8771 4.7188 4.2812c0.01748-0.16628 0.0625-0.3291 0.0625-0.5 0-2.6418-2.1373-4.7812-4.7812-4.7812zm-10.094 3.75c-2.9509 3.82e-4 -5.9347 0.73309-8.625 2.0625-0.09567 0.04746-0.1588 0.14744-0.1875 0.25-0.02909 0.10256-0.02539 0.19094 0.03125 0.28125l0.25 0.40625c2.6638-1.2981 5.6176-1.9996 8.5312-2 1.0746 0 2.1911 0.11275 3.3438 0.3125 0.18101 0.03138 0.3125 0.22371 0.3125 0.40625 0 0.0061 3.83e-4 0.1231 0 0.125 3.83e-4 3.6637 3.0011 6.6562 6.6875 6.6562 1.2636 0 2.4928-0.38274 3.5938-1.0938 0.15575-0.10063 0.37678-0.07526 0.5 0.0625 2.5705 2.8587 4.2335 6.4928 4.75 10.281 0.07156-0.07883 0.1037-0.17487 0.09375-0.28125-0.3934-4.0418-2.1133-7.9635-4.8438-11-0.12322-0.13776-0.34425-0.16313-0.5-0.0625-1.101 0.71101-2.3301 1.0938-3.5938 1.0938-3.6864 0-6.6871-2.9925-6.6875-6.6562 3.83e-4 -0.0019 0-0.11888 0-0.125 0-0.18254-0.13149-0.37487-0.3125-0.40625-1.1526-0.19975-2.2692-0.3125-3.3438-0.3125zm-11.719 4c-0.05051 0.01239-0.11473 0.03017-0.15625 0.0625-3.164 2.4369-5.5322 5.867-6.6875 9.6562-0.04516 0.1481 3e-3 0.30982 0.125 0.40625 0.0233 0.01846 0.03947 0.04375 0.0625 0.0625 1.2094-3.5766 3.4853-6.8031 6.5-9.125 0.04152-0.03233 0.10574-0.05011 0.15625-0.0625s0.10401-0.0092 0.15625 0c0.10447 0.01837 0.19336 0.09795 0.25 0.1875l3.6562 5.75c0.04434-0.03986 0.07996-0.08576 0.125-0.125 0.13968-0.12207 0.19286-0.34272 0.09375-0.5l-3.875-6.125c-0.05664-0.08955-0.14553-0.16913-0.25-0.1875-0.05224-0.0092-0.10574-0.01239-0.15625 0zm-10.781 10.5c-2.7059 0-4.9062 2.2023-4.9062 4.9062 0 0.169 0.0145 0.33549 0.03125 0.5 0.25118-2.4695 2.3382-4.4062 4.875-4.4062s4.6238 1.9368 4.875 4.4062c0.01675-0.16451 0.03125-0.331 0.03125-0.5 0-2.704-2.2003-4.9062-4.9062-4.9062zm6.5625 5.3125c-0.14364 1.8109-1.0422 3.5332-2.5 4.6875-0.12131 0.09605-0.17016 0.25777-0.125 0.40625 0.05516 0.18085 0.12679 0.35207 0.1875 0.53125 1.5486-1.2604 2.4688-3.1658 2.4688-5.125 0-0.16584-0.01817-0.33522-0.03125-0.5zm4.5625 0c-0.0074 0.16608-0.03125 0.33302-0.03125 0.5 0 3.1568 1.337 6.1625 3.6875 8.3125l0.21875-0.34375c0.09988-0.15651 0.07717-0.37716-0.0625-0.5-2.3268-2.0472-3.6759-4.9196-3.8125-7.9688zm22.969 1.0312c-0.18407 3.83e-4 -0.34553 0.13111-0.375 0.3125-0.88055 5.4068-5.6936 9.5-11.219 9.5-1.5238 0-3.0473-0.31527-4.5-0.9375-0.16991-0.07232-0.36887-0.02998-0.46875 0.125l-3.9062 6.1562c-0.05702 0.08993-0.05958 0.17831-0.03125 0.28125 0.02832 0.10256 0.09222 0.20255 0.1875 0.25 0.04178 0.02092 0.08307 0.04189 0.125 0.0625l3.625-5.75c0.09988-0.15498 0.29884-0.19732 0.46875-0.125 1.4527 0.62223 2.9762 0.9375 4.5 0.9375 5.5252 0 10.338-4.0932 11.219-9.5 0.02947-0.18139 0.19093-0.31212 0.375-0.3125h7.3125c0.10639-3.82e-4 0.2093 0.04578 0.28125 0.125 0.03384-0.24179 0.06935-0.47549 0.09375-0.71875 0.01074-0.10601-0.0218-0.20204-0.09375-0.28125-0.07195-0.07922-0.17486-0.12538-0.28125-0.125h-7.3125zm-1.8125 12.938c-2.4709 0.24918-4.4062 2.3219-4.4062 4.8438 0 0.16812 0.0145 0.33628 0.03125 0.5 0.25118-2.4558 2.3382-4.3438 4.875-4.3438s4.6238 1.8879 4.875 4.3438c0.01675-0.16372 0.03125-0.33188 0.03125-0.5 0-2.69-2.2003-4.8438-4.9062-4.8438-0.16912 0-0.33528-0.01661-0.5 0z" fill="url(#linearGradient3092)"/>
  <path id="path4949" d="m53.438 31.656c-0.01748 0.16628-0.0625 0.3291-0.0625 0.5 0 2.6418 2.1373 4.7812 4.7812 4.7812s4.7812-2.1394 4.7812-4.7812c0-0.1709-0.04502-0.33372-0.0625-0.5-0.25266 2.4041-2.2458 4.2812-4.7188 4.2812s-4.4661-1.8771-4.7188-4.2812zm-13.906 1.4688c-0.03402 0.01658-0.05983 0.04574-0.09375 0.0625-0.09567 0.04746-0.1588 0.14744-0.1875 0.25-0.02909 0.10256-0.02539 0.19094 0.03125 0.28125l3.875 6.1562c0.09835 0.15613 0.29846 0.22781 0.46875 0.15625 1.4366-0.6073 2.9313-0.90625 4.4375-0.90625 5.5405 0 10.381 4.0839 11.25 9.5312 0.02908 0.18292 0.15891 0.3125 0.34375 0.3125h7.3125c0.10638 0 0.20969-0.01492 0.28125-0.09375 0.07156-0.07883 0.1037-0.17487 0.09375-0.28125-0.02304-0.23674-0.06162-0.48305-0.09375-0.71875-0.07156 0.07883-0.17486 0.09375-0.28125 0.09375h-7.3125c-0.18484 0-0.31467-0.12958-0.34375-0.3125-0.86869-5.4474-5.7095-9.5312-11.25-9.5312-1.5062 0-3.0009 0.29895-4.4375 0.90625-0.1703 0.07156-0.3704-1.18e-4 -0.46875-0.15625l-3.625-5.75zm0.875 7.9375c-2.3953 2.1529-3.75 5.1799-3.75 8.375 0 0.16574 0.02386 0.33508 0.03125 0.5 0.13734-3.0705 1.4927-5.9521 3.8438-8 0.13968-0.12207 0.19286-0.34272 0.09375-0.5l-0.21875-0.375zm-10.719 3.25c-0.05989 0.17711-0.13299 0.35246-0.1875 0.53125-0.04516 0.1481 3e-3 0.30982 0.125 0.40625 1.4574 1.1543 2.3563 2.8766 2.5 4.6875 0.01307-0.16478 0.03125-0.33416 0.03125-0.5 0-1.9592-0.92047-3.8646-2.4688-5.125zm-9 5.7188c-0.01675 0.16463-0.03125 0.331-0.03125 0.5 0 2.704 2.2003 4.9062 4.9062 4.9062s4.9062-2.2023 4.9062-4.9062c0-0.169-0.0145-0.33537-0.03125-0.5-0.25118 2.4676-2.3382 4.4062-4.875 4.4062s-4.6238-1.9386-4.875-4.4062zm46.562 2.0625c-0.56697 4.0512-2.4289 7.8719-5.3125 10.812-0.11672 0.11901-0.29017 0.13942-0.4375 0.0625-0.96895-0.50513-2.046-0.75-3.0938-0.75-3.3799 0-6.2362 2.517-6.625 5.875-0.01952 0.16493-0.11746 0.2838-0.28125 0.3125-1.1668 0.20703-2.3304 0.3125-3.4375 0.3125-2.9389 0-5.9149-0.68302-8.5938-2l-0.28125 0.40625c-0.05702 0.08993-0.05958 0.17831-0.03125 0.28125 0.02832 0.10256 0.09222 0.20255 0.1875 0.25 2.7113 1.3573 5.7338 2.0625 8.7188 2.0625 1.1071 0 2.2707-0.10547 3.4375-0.3125 0.16379-0.0287 0.26173-0.14757 0.28125-0.3125 0.3888-3.358 3.2451-5.875 6.625-5.875 1.0478 0 2.1248 0.24487 3.0938 0.75 0.14733 0.07692 0.32078 0.05651 0.4375-0.0625 3.0557-3.1161 4.9731-7.212 5.4062-11.531 0.01074-0.10601-0.0218-0.20204-0.09375-0.28125zm-37.562 3.4688c-0.02303 0.01875-0.03919 0.04404-0.0625 0.0625-0.12131 0.09605-0.17016 0.25777-0.125 0.40625 1.1461 3.7575 3.5 7.1622 6.625 9.5938 0.08381 0.06544 0.1764 0.11212 0.28125 0.09375 0.10447-0.01799 0.19298-0.09834 0.25-0.1875l3.9062-6.125c0.09988-0.15651 0.07717-0.37716-0.0625-0.5-0.05572-0.04903-0.10161-0.10627-0.15625-0.15625l-3.6875 5.7812c-0.05702 0.08916-0.14553 0.16951-0.25 0.1875-0.10486 0.018372-0.19744-0.02831-0.28125-0.09375-2.9746-2.3145-5.2368-5.5187-6.4375-9.0625zm23.781 13.688c-0.01675 0.16372-0.03125 0.33188-0.03125 0.5 0 2.69 2.2003 4.875 4.9062 4.875s4.9062-2.185 4.9062-4.875c0-0.16812-0.0145-0.33628-0.03125-0.5-0.25118 2.4558-2.3382 4.375-4.875 4.375s-4.6238-1.9192-4.875-4.375z" fill="#fff" opacity=".2"/>
 </g>
</svg>
