<?xml version="1.0" encoding="UTF-8"?>
<svg id="svg2408" width="96" height="96" version="1.0" xmlns="http://www.w3.org/2000/svg" xmlns:cc="http://creativecommons.org/ns#" xmlns:dc="http://purl.org/dc/elements/1.1/" xmlns:rdf="http://www.w3.org/1999/02/22-rdf-syntax-ns#" xmlns:xlink="http://www.w3.org/1999/xlink">
 <defs id="defs2410">
  <linearGradient id="linearGradient3361" x1="48.036" x2="48.036" y1="25.911" y2="85.821" gradientTransform="scale(1.0599 .94353)" gradientUnits="userSpaceOnUse">
   <stop id="stop3319" stop-color="#c6953a" offset="0"/>
   <stop id="stop3321" stop-color="#ab7a1f" offset="1"/>
  </linearGradient>
  <linearGradient id="ButtonShadow" x1="45.448" x2="45.448" y1="80.472" y2="7.0165" gradientTransform="matrix(1.0059 0 0 .99417 0 12)" gradientUnits="userSpaceOnUse">
   <stop id="stop3750" offset="0"/>
   <stop id="stop3752" stop-opacity=".58824" offset="1"/>
  </linearGradient>
  <linearGradient id="linearGradient3706" x1="48" x2="48" y1="78" y2="5.9877" gradientTransform="translate(0,8)" gradientUnits="userSpaceOnUse">
   <stop id="stop3189" stop-color="#c29656" offset="0"/>
   <stop id="stop3191" stop-color="#ddc08b" offset="1"/>
  </linearGradient>
  <filter id="filter3174" color-interpolation-filters="sRGB">
   <feGaussianBlur id="feGaussianBlur3176" stdDeviation="1.71"/>
  </filter>
  <linearGradient id="linearGradient3664" x1="45.448" x2="45.448" y1="80.472" y2="5.2972" gradientTransform="matrix(1.0059 0 0 .99417 0 12)" gradientUnits="userSpaceOnUse" xlink:href="#ButtonShadow"/>
  <clipPath id="clipPath3860">
   <rect id="rect3862" x="6" y="18" width="84" height="72" rx="6" ry="6" fill="#f0f"/>
  </clipPath>
  <filter id="filter3870" x="-.16559" y="-.19716" width="1.3312" height="1.3943" color-interpolation-filters="sRGB">
   <feGaussianBlur id="feGaussianBlur3872" stdDeviation="5.1703125"/>
  </filter>
  <linearGradient id="linearGradient3699">
   <stop id="stop3701" stop-color="#aa7932" stop-opacity=".78431" offset="0"/>
   <stop id="stop3703" stop-color="#aa7932" stop-opacity=".39216" offset="1"/>
  </linearGradient>
  <linearGradient id="linearGradient3077" x1="90" x2="48" y1="88" y2="88" gradientUnits="userSpaceOnUse" spreadMethod="reflect">
   <stop id="stop3894" stop-opacity=".58824" offset="0"/>
   <stop id="stop3896" stop-opacity=".47059" offset=".1178"/>
   <stop id="stop3898" stop-opacity=".39216" offset=".2381"/>
   <stop id="stop3900" stop-opacity=".31373" offset="1"/>
  </linearGradient>
  <linearGradient id="linearGradient3094" x1="48" x2="48" y1="75.083" y2="-40" gradientTransform="matrix(1,0,0,-1,0,92)" gradientUnits="userSpaceOnUse">
   <stop id="stop4386" stop-color="#fff" offset="0"/>
   <stop id="stop4388" stop-color="#fff" stop-opacity="0" offset="1"/>
  </linearGradient>
  <linearGradient id="linearGradient3123" x1="48.022" x2="48.022" y1="22.933" y2="81.481" gradientUnits="userSpaceOnUse">
   <stop id="stop3876" stop-color="#fff" offset="0"/>
   <stop id="stop3878" stop-color="#fff" stop-opacity="0" offset="1"/>
  </linearGradient>
  <linearGradient id="linearGradient3105" x1="34.86" x2="34.86" y1="16.275" y2="26.987" gradientTransform="matrix(.72 0 0 .72 1.92 -5.52)" gradientUnits="userSpaceOnUse">
   <stop id="stop4010" stop-color="#dab980" offset="0"/>
   <stop id="stop4012" stop-color="#c29856" offset=".71692"/>
   <stop id="stop4014" stop-color="#a2773a" offset="1"/>
  </linearGradient>
  <linearGradient id="linearGradient3952" x1="43" x2="43" y1="91" y2="7" gradientUnits="userSpaceOnUse" xlink:href="#ButtonShadow"/>
  <linearGradient id="linearGradient3961" x1="45" x2="45" y1="92" y2="7" gradientUnits="userSpaceOnUse" xlink:href="#ButtonShadow"/>
  <linearGradient id="linearGradient3092" x1="20.759" x2="20.759" y1="1" y2="45.017" gradientTransform="matrix(1.0233 0 0 -1.0233 23.442 73.535)" gradientUnits="userSpaceOnUse" xlink:href="#linearGradient3699"/>
 </defs>
 <metadata id="metadata2413">
  <rdf:RDF>
   <cc:Work rdf:about="">
    <dc:format>image/svg+xml</dc:format>
    <dc:type rdf:resource="http://purl.org/dc/dcmitype/StillImage"/>
    <dc:title/>
   </cc:Work>
  </rdf:RDF>
 </metadata>
 <g id="layer2" display="none">
  <path id="rect3745" d="m14.969 8.8029c-1.6398 0-2.9688 1.2823-2.9688 2.875v7.3221c-3.324 0-7 2.676-7 6v61c0 3.324 2.676 6 6 6h74c3.324 0 6-2.676 6-6v-61c0-3.324-3.7474-6-7.0714-6v-0.13461c0-2.3891-1.9777-4.3125-4.4375-4.3125h-43.335l-1.4688-2.875c-0.73336-1.4246-1.3289-2.875-2.9688-2.875h-16.75z" fill="url(#linearGradient3664)" filter="url(#filter3174)" opacity=".9"/>
 </g>
 <g id="layer4">
  <path id="path3984" d="m14.125 4c-4.4339 0-8.125 3.5684-8.125 8v2.1562c-2.3764 1.8021-4 4.6028-4 7.8438v63c0 5.5036 4.4964 10 10 10h72c5.5036 0 10-4.4964 10-10v-63c0-3.4834-1.8534-6.4531-4.5312-8.2188-0.9872-3.2895-3.9427-5.7812-7.5938-5.7812h-39.5c-1.4026-1.3548-2.5397-2.5096-3.6875-3.1562-1.4952-0.84233-2.9309-0.81421-3.8125-0.84375a0.9278 0.9278 0 0 0-0.03125 0c-0.0012-1.73e-5 -0.03009-1.73e-5 -0.03125 0h-0.03125-20.656z" fill="url(#linearGradient3961)" opacity=".08"/>
  <path id="path3975" d="m14.125 4.9375c-3.9406 0-7.1875 3.1433-7.1875 7.0625v2.5938c-2.3826 1.6221-4 4.2939-4 7.4062v63c0 5.0014 4.0611 9.0625 9.0625 9.0625h72c5.0014 0 9.0625-4.0611 9.0625-9.0625v-63c0-3.2608-1.7732-6.0397-4.3438-7.625-0.76119-3.0957-3.4773-5.4375-6.8438-5.4375h-39.812c-1.5975-1.5412-2.7721-2.6775-3.8438-3.2812-1.2732-0.71724-2.4475-0.68767-3.375-0.71875a1.0438 1.0438 0 0 0-0.03125 0h-0.03125-20.656z" fill="url(#linearGradient3961)" opacity=".1"/>
  <path id="path3967" d="m14.125 5.9688c-3.3887 0-6.1562 2.688-6.1562 6.0312v3.125c-2.3751 1.394-4 3.9205-4 6.875v63c0 4.4381 3.5931 8.0312 8.0312 8.0312h72c4.4381 0 8.0312-3.5931 8.0312-8.0312v-63c0-3.032-1.7122-5.6044-4.1875-6.9688-0.49189-2.8596-2.9286-5.0625-5.9688-5.0625h-40.188c-1.8348-1.7748-3.0086-2.8654-3.9688-3.4062-1.0373-0.58435-1.9404-0.56139-2.9062-0.59375a1.0438 1.0438 0 0 0-0.03125 0h-20.656z" fill="url(#linearGradient3961)" opacity=".2"/>
  <path id="path3908-1" d="m14.125 7c-2.8429 0-5.125 2.23-5.125 5v3.6875c-2.3641 1.1214-4 3.5128-4 6.3125v63c0 3.878 3.122 7 7 7h72c3.878 0 7-3.122 7-7v-63c0-2.8097-1.6534-5.1964-4.0312-6.3125-0.16965-2.6184-2.3622-4.6875-5.0938-4.6875h-40.594c-4.2205-4.1123-4.5028-3.9331-6.5-4h-20.656z" fill="url(#linearGradient3961)" opacity=".3"/>
  <path id="path3941" d="m15 7c-2.77 0-5 2.23-5 5v3.3438c-2.3335 0.82091-4 3.0351-4 5.6562v64c0 3.324 2.676 6 6 6h72c3.324 0 6-2.676 6-6v-64c0-2.6419-1.6999-4.8512-4.0625-5.6562-0.32604-2.4503-2.3952-4.3438-4.9375-4.3438h-40.531c-4.1123-4.1123-4.3665-3.9331-6.3125-4h-19.156z" fill="url(#linearGradient3952)" opacity=".45"/>
 </g>
 <g id="layer3">
  <rect id="rect3352" x="10.536" y="23.143" width="75" height="62.679" rx="6" ry="6" fill="url(#linearGradient3361)"/>
  <path id="path3908" d="m15 6c-2.77 0-5 2.23-5 5v59.812c0 2.3933 1.9192 4.3125 4.3125 4.3125h67.375c2.3933 0 4.3125-1.9192 4.3125-4.3125v-55.812c0-2.77-2.23-5-5-5h-40.531c-4.1123-4.1123-4.3665-3.9331-6.3125-4z" fill="url(#linearGradient3105)"/>
  <path id="path3108" d="m15 6c-2.77 0-5 2.23-5 5v59.812c0 2.3933 1.9192 4.3125 4.3125 4.3125h67.375c2.3933 0 4.3125-1.9192 4.3125-4.3125v-55.812c0-2.77-2.23-5-5-5h-40.531c-4.1123-4.1123-4.3665-3.9331-6.3125-4h-19.156zm0 1.0312h19.125 0.03125c0.96498 0.031157 1.1925-0.016972 1.8125 0.34375 0.63029 0.36673 1.7068 1.3318 3.75 3.375a1.0438 1.0438 0 0 0 0.75 0.28125h40.531c2.2099 0 3.9688 1.7589 3.9688 3.9688v55.812c0 1.8353-1.4459 3.2812-3.2812 3.2812h-67.375c-1.8353 0-3.2812-1.4459-3.2812-3.2812v-59.812c0-2.2099 1.7589-3.9688 3.9688-3.9688z" fill="#fff" opacity=".2"/>
 </g>
 <g id="layer1">
  <rect id="rect2419" x="6" y="14" width="84" height="76" rx="6" ry="6" fill="url(#linearGradient3706)"/>
  <path id="rect4377" d="m12 86c-3.324 0-6-2.676-6-6v-60c0-3.324 2.676-6 6-6h72c3.324 0 6 2.676 6 6v60c0 3.324-2.676 6-6 6zm0-0.96875h72c2.8049 0 5.0312-2.2264 5.0312-5.0312v-60c0-2.8049-2.2264-5.0312-5.0312-5.0312h-72c-2.8049 0-5.0312 2.2264-5.0312 5.0312v60c0 2.8049 2.2264 5.0312 5.0312 5.0312z" fill="url(#linearGradient3094)" opacity=".35"/>
  <path id="rect3841" d="m6 78v2c0 3.324 2.676 6 6 6h72c3.324 0 6-2.676 6-6v-2c0 3.324-2.676 6-6 6h-72c-3.324 0-6-2.676-6-6z" fill="#fff" opacity=".1"/>
 </g>
 <g id="layer7">
  <path id="path3067" d="m6 80v4c0 3.324 2.676 6 6 6h72c3.324 0 6-2.676 6-6v-4c0 3.324-2.676 6-6 6h-72c-3.324 0-6-2.676-6-6z" fill="#a17431" opacity=".8"/>
  <path id="path3888" d="m6 80v4c0 3.324 2.676 6 6 6h72c3.324 0 6-2.676 6-6v-4c0 3.324-2.676 6-6 6h-72c-3.324 0-6-2.676-6-6z" fill="url(#linearGradient3077)" opacity=".5"/>
  <path id="rect4345" d="m6 82v2c0 3.324 2.676 6 6 6h72c3.324 0 6-2.676 6-6v-2c0 3.324-2.676 6-6 6h-72c-3.324 0-6-2.676-6-6z" color="#000000" opacity=".1"/>
  <path id="rect4336" d="m6 83v1c0 3.324 2.676 6 6 6h72c3.324 0 6-2.676 6-6v-1c0 3.324-2.676 6-6 6h-72c-3.324 0-6-2.676-6-6z" color="#000000" opacity=".15"/>
 </g>
 <g id="layer5">
  <path id="path3850" d="m15.969 22.531c-2.8459 0.0043-5.4332 2.5916-5.4375 5.4375v48.062c0.0043 2.8459 2.5916 5.4332 5.4375 5.4375h64.062c2.8459-0.0043 5.4332-2.5916 5.4375-5.4375v-48.062c-0.0043-2.8459-2.5916-5.4332-5.4375-5.4375z" clip-path="url(#clipPath3860)" fill="url(#linearGradient3123)" filter="url(#filter3870)" opacity=".15"/>
 </g>
 <g id="layer6">
  <path id="path4765" d="m44.969 26c-1.9662 0-3.5625 1.6562-3.5625 3.5938v1.7812c-0.6589 0.2369-1.2836 0.51271-1.9062 0.8125l-1.25-1.2812a2.0041 2.0041 0 0 0-0.03125 0c-1.3532-1.3532-3.644-1.4186-5.0312-0.03125l-4.3125 4.3125c-1.3874 1.3873-1.3219 3.6781 0.03125 5.0312a2.0041 2.0041 0 0 0 0 0.03125l1.2812 1.25c-0.29979 0.62268-0.5756 1.2474-0.8125 1.9062h-1.7812c-1.9375 0-3.5938 1.5963-3.5938 3.5625v6.0625c0 1.9662 1.6562 3.5625 3.5938 3.5625h1.7812c0.2369 0.65889 0.51271 1.2836 0.8125 1.9062l-1.2812 1.25a2.0041 2.0041 0 0 0 0 0.03125c-1.353 1.3532-1.4186 3.6439-0.03125 5.0312l4.3125 4.3125c0.73999 0.74 1.7011 1.0385 2.5625 1.0312 0.9028-0.0076 1.8153-0.40906 2.4688-1.0625a2.0041 2.0041 0 0 0 0.03125 0l1.25-1.2812c0.62268 0.29979 1.2474 0.5756 1.9062 0.8125v1.7812c0 1.9375 1.5963 3.5938 3.5625 3.5938h6.0625c1.9662 0 3.5625-1.6562 3.5625-3.5938v-1.7812c0.6589-0.2369 1.2836-0.51271 1.9062-0.8125l1.25 1.2812a2.0041 2.0041 0 0 0 0.03125 0c1.3532 1.3532 3.644 1.4185 5.0312 0.03125l4.3125-4.3125c1.3874-1.3873 1.3219-3.6781-0.03125-5.0312a2.0041 2.0041 0 0 0 0-0.03125l-1.2812-1.25c0.29979-0.62268 0.5756-1.2474 0.8125-1.9062h1.7812c1.9375 0 3.5938-1.5963 3.5938-3.5625v-6.0625c0-1.9662-1.6562-3.5625-3.5938-3.5625h-1.7812c-0.2369-0.6589-0.51271-1.2836-0.8125-1.9062l1.2812-1.25a2.0041 2.0041 0 0 0 0-0.03125c1.3531-1.3532 1.4186-3.6439 0.03125-5.0312l-4.3125-4.3125c-1.3873-1.3873-3.678-1.322-5.0312 0.03125a2.0041 2.0041 0 0 0-0.03125 0l-1.25 1.2812c-0.62268-0.29979-1.2474-0.5756-1.9062-0.8125v-1.7812c0-1.9375-1.5963-3.5938-3.5625-3.5938h-6.0625zm0 2h6.0625c0.8658 0 1.5625 0.71315 1.5625 1.5938v3.0938c1.5481 0.41248 3.0528 1.0566 4.4062 1.8438l2.1875-2.2188c0.62268-0.62268 1.6065-0.64345 2.2188-0.03125l4.3125 4.3125c0.61221 0.61222 0.59137 1.5961-0.03125 2.2188l-2.2188 2.1875c0.78715 1.3534 1.4313 2.8581 1.8438 4.4062h3.0938c0.8806 0 1.5938 0.69669 1.5938 1.5625v6.0625c0 0.8658-0.71316 1.5625-1.5938 1.5625h-3.0938c-0.41248 1.5481-1.0566 3.0528-1.8438 4.4062l2.2188 2.1875c0.62268 0.62268 0.64352 1.6065 0.03125 2.2188l-4.3125 4.3125c-0.61222 0.61222-1.5961 0.59144-2.2188-0.03125l-2.1875-2.2188c-1.3534 0.78715-2.8581 1.4313-4.4062 1.8438v3.0938c0 0.8806-0.6967 1.5938-1.5625 1.5938h-6.0625c-0.86581 0-1.5625-0.71315-1.5625-1.5938v-3.0938c-1.5481-0.41248-3.0528-1.0566-4.4062-1.8438l-2.1875 2.2188c-0.31134 0.31134-0.69084 0.46534-1.0938 0.46875-0.40291 0.0034-0.8189-0.13139-1.125-0.4375l-4.3125-4.3125c-0.61221-0.61222-0.59136-1.5961 0.03125-2.2188l2.2188-2.1875c-0.78715-1.3534-1.4313-2.8581-1.8438-4.4062h-3.0938c-0.8806 0-1.5938-0.69669-1.5938-1.5625v-6.0625c0-0.86581 0.71315-1.5625 1.5938-1.5625h3.0938c0.41249-1.5481 1.0566-3.0528 1.8438-4.4062l-2.2188-2.1875c-0.62268-0.62268-0.64353-1.6065-0.03125-2.2188l4.3125-4.3125c0.61221-0.61222 1.5961-0.59144 2.2188 0.03125l2.1875 2.2188c1.3534-0.78715 2.8581-1.4313 4.4062-1.8438v-3.0938c0-0.8806 0.69669-1.5938 1.5625-1.5938zm3.0312 15.344c-3.6714 0-6.6562 2.9848-6.6562 6.6562 0 3.6714 2.9848 6.6562 6.6562 6.6562 3.6714 0 6.6562-2.9848 6.6562-6.6562 0-3.6714-2.9848-6.6562-6.6562-6.6562zm0 2c2.5853 0 4.6562 2.0709 4.6562 4.6562 0 2.5853-2.0709 4.6562-4.6562 4.6562-2.5853 0-4.6562-2.0709-4.6562-4.6562 0-2.5853 2.0709-4.6562 4.6562-4.6562z" display="block" fill="#fff" opacity=".05"/>
  <path id="path4754" d="m44.969 27c-1.4149 0-2.5625 1.1857-2.5625 2.5938v2.4375c-1.1077 0.35052-2.1808 0.77897-3.1875 1.3125l-1.6875-1.7188a1.0001 1.0001 0 0 0 0-0.03125c-0.98723-0.98726-2.6573-1.0303-3.6562-0.03125l-4.3125 4.3125c-0.9991 0.999-0.95595 2.669 0.03125 3.6562a1.0001 1.0001 0 0 0 0.03125 0l1.7188 1.6875c-0.53352 1.0067-0.96198 2.0798-1.3125 3.1875h-2.4375c-1.408 0-2.5938 1.1476-2.5938 2.5625v6.0625c0 1.4149 1.1857 2.5625 2.5938 2.5625h2.4375c0.35052 1.1077 0.77898 2.1808 1.3125 3.1875l-1.7188 1.6875a1.0001 1.0001 0 0 0-0.03125 0c-0.98711 0.98722-1.0303 2.6572-0.03125 3.6562l4.3125 4.3125c0.52263 0.52263 1.212 0.72408 1.8438 0.71875 0.65237-0.0055 1.3304-0.26794 1.8125-0.75a1.0001 1.0001 0 0 0 0-0.03125l1.6875-1.7188c1.0067 0.53353 2.0798 0.96198 3.1875 1.3125v2.4375c0 1.408 1.1476 2.5938 2.5625 2.5938h6.0625c1.4149 0 2.5625-1.1857 2.5625-2.5938v-2.4375c1.1077-0.35052 2.1808-0.77897 3.1875-1.3125l1.6875 1.7188a1.0001 1.0001 0 0 0 0 0.03125c0.98723 0.98725 2.6573 1.0302 3.6562 0.03125l4.3125-4.3125c0.9991-0.999 0.95595-2.669-0.03125-3.6562a1.0001 1.0001 0 0 0-0.03125 0l-1.7188-1.6875c0.53352-1.0067 0.96198-2.0798 1.3125-3.1875h2.4375c1.408 0 2.5938-1.1476 2.5938-2.5625v-6.0625c0-1.4149-1.1857-2.5625-2.5938-2.5625h-2.4375c-0.35052-1.1077-0.77898-2.1808-1.3125-3.1875l1.7188-1.6875a1.0001 1.0001 0 0 0 0.03125 0c0.98713-0.98723 1.0303-2.6572 0.03125-3.6562l-4.3125-4.3125c-0.999-0.99898-2.669-0.95598-3.6562 0.03125a1.0001 1.0001 0 0 0 0 0.03125l-1.6875 1.7188c-1.0067-0.53353-2.0798-0.96198-3.1875-1.3125v-2.4375c0-1.408-1.1476-2.5938-2.5625-2.5938h-6.0625zm0 1h6.0625c0.8658 0 1.5625 0.71315 1.5625 1.5938v3.0938c1.5481 0.41248 3.0528 1.0566 4.4062 1.8438l2.1875-2.2188c0.62268-0.62268 1.6065-0.64345 2.2188-0.03125l4.3125 4.3125c0.61221 0.61222 0.59137 1.5961-0.03125 2.2188l-2.2188 2.1875c0.78715 1.3534 1.4313 2.8581 1.8438 4.4062h3.0938c0.8806 0 1.5938 0.69669 1.5938 1.5625v6.0625c0 0.8658-0.71316 1.5625-1.5938 1.5625h-3.0938c-0.41248 1.5481-1.0566 3.0528-1.8438 4.4062l2.2188 2.1875c0.62268 0.62268 0.64352 1.6065 0.03125 2.2188l-4.3125 4.3125c-0.61222 0.61222-1.5961 0.59144-2.2188-0.03125l-2.1875-2.2188c-1.3534 0.78715-2.8581 1.4313-4.4062 1.8438v3.0938c0 0.8806-0.6967 1.5938-1.5625 1.5938h-6.0625c-0.86581 0-1.5625-0.71315-1.5625-1.5938v-3.0938c-1.5481-0.41248-3.0528-1.0566-4.4062-1.8438l-2.1875 2.2188c-0.31134 0.31134-0.69084 0.46534-1.0938 0.46875-0.40291 0.0034-0.8189-0.13139-1.125-0.4375l-4.3125-4.3125c-0.61221-0.61222-0.59136-1.5961 0.03125-2.2188l2.2188-2.1875c-0.78715-1.3534-1.4313-2.8581-1.8438-4.4062h-3.0938c-0.8806 0-1.5938-0.69669-1.5938-1.5625v-6.0625c0-0.86581 0.71315-1.5625 1.5938-1.5625h3.0938c0.41249-1.5481 1.0566-3.0528 1.8438-4.4062l-2.2188-2.1875c-0.62268-0.62268-0.64353-1.6065-0.03125-2.2188l4.3125-4.3125c0.61221-0.61222 1.5961-0.59144 2.2188 0.03125l2.1875 2.2188c1.3534-0.78715 2.8581-1.4313 4.4062-1.8438v-3.0938c0-0.8806 0.69669-1.5938 1.5625-1.5938zm3.0312 15.344c-3.6714 0-6.6562 2.9848-6.6562 6.6562 0 3.6714 2.9848 6.6562 6.6562 6.6562 3.6714 0 6.6562-2.9848 6.6562-6.6562 0-3.6714-2.9848-6.6562-6.6562-6.6562zm0 1c3.1294 0 5.6562 2.5268 5.6562 5.6562 0 3.1294-2.5268 5.6562-5.6562 5.6562-3.1294 0-5.6562-2.5268-5.6562-5.6562 0-3.1294 2.5268-5.6562 5.6562-5.6562z" display="block" fill="#fff" opacity=".1"/>
  <path id="rect3267" d="m44.962 72c-0.86581 0-1.5669-0.71823-1.5669-1.5988v-3.1017c-1.5481-0.41248-3.0274-1.0355-4.3808-1.8227l-2.2064 2.2064c-0.31134 0.31134-0.68429 0.47624-1.0872 0.47965-0.40291 0.0034-0.81308-0.14157-1.1192-0.44767l-4.3169-4.3168c-0.61221-0.61222-0.5907-1.5837 0.03191-2.2064l2.2064-2.2064c-0.78715-1.3534-1.4102-2.8327-1.8227-4.3808h-3.1017c-0.8806 0-1.5988-0.70105-1.5988-1.5669v-6.0756c0-0.86581 0.71823-1.5669 1.5988-1.5669h3.1017c0.41249-1.5481 1.0355-3.0274 1.8227-4.3808l-2.2064-2.2064c-0.62268-0.62268-0.64419-1.5942-0.03191-2.2064l4.3169-4.3168c0.61221-0.61222 1.5837-0.5907 2.2064 0.03199l2.2064 2.2064c1.3534-0.78715 2.8327-1.4102 4.3808-1.8227v-3.1017c0-0.8806 0.70105-1.5988 1.5669-1.5988h6.0756c0.8658 0 1.5669 0.71823 1.5669 1.5988v3.1017c1.5481 0.41248 3.0274 1.0355 4.3808 1.8227l2.2064-2.2064c0.62268-0.62268 1.5942-0.64419 2.2064-0.03199l4.3168 4.3168c0.61221 0.61222 0.5907 1.5837-0.03192 2.2064l-2.2064 2.2064c0.78715 1.3534 1.4102 2.8327 1.8227 4.3808h3.1017c0.8806 0 1.5988 0.70105 1.5988 1.5669v6.0756c0 0.8658-0.71824 1.5669-1.5988 1.5669h-3.1017c-0.41248 1.5481-1.0355 3.0274-1.8227 4.3808l2.2064 2.2064c0.62268 0.62268 0.6442 1.5942 0.03192 2.2064l-4.3168 4.3168c-0.61222 0.61222-1.5837 0.5907-2.2064-0.03199l-2.2064-2.2064c-1.3534 0.78715-2.8327 1.4102-4.3808 1.8227v3.1017c0 0.8806-0.70105 1.5988-1.5669 1.5988h-6.0756zm3.0378-15.349c3.6714 0 6.6511-2.9797 6.6511-6.6511 0-3.6714-2.9797-6.6511-6.6511-6.6511-3.6714 0-6.6511 2.9797-6.6511 6.6511 0 3.6714 2.9797 6.6511 6.6511 6.6511z" display="block" fill="url(#linearGradient3092)" opacity=".9"/>
  <path id="path4726" d="m44.969 28c-0.86581 0-1.5625 0.71315-1.5625 1.5938v3.0938c-1.5481 0.41248-3.0528 1.0566-4.4062 1.8438l-2.1875-2.2188c-0.62268-0.62269-1.6065-0.64346-2.2188-0.03125l-4.3125 4.3125c-0.61228 0.61222-0.59143 1.5961 0.03125 2.2188l2.2188 2.1875c-0.78715 1.3534-1.4313 2.8581-1.8438 4.4062h-3.0938c-0.8806 0-1.5938 0.69669-1.5938 1.5625v6.0625c0 0.86581 0.71315 1.5625 1.5938 1.5625h3.0938c0.41249 1.5481 1.0566 3.0528 1.8438 4.4062l-2.2188 2.1875c-0.62261 0.62268-0.64346 1.6065-0.03125 2.2188l4.3125 4.3125c0.3061 0.30611 0.72209 0.4409 1.125 0.4375 0.40291-0.0034 0.78241-0.15741 1.0938-0.46875l2.1875-2.2188c1.3534 0.78715 2.8581 1.4313 4.4062 1.8438v3.0938c0 0.8806 0.69669 1.5938 1.5625 1.5938h6.0625c0.8658 0 1.5625-0.71314 1.5625-1.5938v-3.0938c1.5481-0.41248 3.0528-1.0566 4.4062-1.8438l2.1875 2.2188c0.62268 0.6227 1.6065 0.64347 2.2188 0.03125l4.3125-4.3125c0.61228-0.61222 0.59143-1.5961-0.03125-2.2188l-2.2188-2.1875c0.78715-1.3534 1.4313-2.8581 1.8438-4.4062h3.0938c0.8806 0 1.5938-0.6967 1.5938-1.5625v-6.0625c0-0.86581-0.71316-1.5625-1.5938-1.5625h-3.0938c-0.41248-1.5481-1.0566-3.0528-1.8438-4.4062l2.2188-2.1875c0.62262-0.62268 0.64346-1.6065 0.03125-2.2188l-4.3125-4.3125c-0.61222-0.6122-1.5961-0.59143-2.2188 0.03125l-2.1875 2.2188c-1.3534-0.78715-2.8581-1.4313-4.4062-1.8438v-3.0938c0-0.8806-0.6967-1.5938-1.5625-1.5938h-6.0625zm0.4375 2h5.1875v2.6875a2.0002 2.0002 0 0 0 1.5 1.9375c1.3591 0.36212 2.6998 0.92334 3.9062 1.625a2.0002 2.0002 0 0 0 2.4375-0.3125l1.9062-1.9062 3.625 3.625-1.9062 1.9062a2.0002 2.0002 0 0 0-0.3125 2.4375c0.70166 1.2065 1.2629 2.5471 1.625 3.9062a2.0002 2.0002 0 0 0 1.9375 1.5h2.6875v5.1875h-2.6875a2.0002 2.0002 0 0 0-1.9375 1.5c-0.36212 1.3591-0.92334 2.6998-1.625 3.9062a2.0002 2.0002 0 0 0 0.3125 2.4375l1.9062 1.9062-3.625 3.625-1.9062-1.9062a2.0002 2.0002 0 0 0-2.4375-0.3125c-1.2065 0.70166-2.5471 1.2629-3.9062 1.625a2.0002 2.0002 0 0 0-1.5 1.9375v2.6875h-5.1875v-2.6875a2.0002 2.0002 0 0 0-1.5-1.9375c-1.3591-0.36212-2.6998-0.92334-3.9062-1.625a2.0002 2.0002 0 0 0-2.4375 0.3125l-1.9062 1.9062-3.625-3.625 1.9062-1.9062a2.0002 2.0002 0 0 0 0.3125-2.4375c-0.70166-1.2065-1.2629-2.5471-1.625-3.9062a2.0002 2.0002 0 0 0-1.9375-1.5h-2.6875v-5.1875h2.6875a2.0002 2.0002 0 0 0 1.9375-1.5c0.36213-1.3591 0.92334-2.6998 1.625-3.9062a2.0002 2.0002 0 0 0-0.3125-2.4375l-1.9062-1.9062 3.625-3.625 1.9062 1.9062a2.0002 2.0002 0 0 0 2.4375 0.3125c1.2065-0.70166 2.5471-1.2629 3.9062-1.625a2.0002 2.0002 0 0 0 1.5-1.9375v-2.6875zm2.5938 11.344c-4.7554 0-8.6562 3.9008-8.6562 8.6562 0 4.7554 3.9008 8.6562 8.6562 8.6562 4.7554 0 8.6562-3.9008 8.6562-8.6562 0-4.7554-3.9008-8.6562-8.6562-8.6562zm0 2c3.6714 0 6.6562 2.9848 6.6562 6.6562 0 3.6714-2.9848 6.6562-6.6562 6.6562-3.6714 0-6.6562-2.9848-6.6562-6.6562 0-3.6714 2.9848-6.6562 6.6562-6.6562z" display="block" fill="url(#linearGradient3092)" opacity=".25"/>
  <path id="path4713" d="m44.969 28c-0.86581 0-1.5625 0.71315-1.5625 1.5938v3.0938c-1.5481 0.41248-3.0528 1.0566-4.4062 1.8438l-2.1875-2.2188c-0.62268-0.62269-1.6065-0.64346-2.2188-0.03125l-4.3125 4.3125c-0.61228 0.61222-0.59143 1.5961 0.03125 2.2188l2.2188 2.1875c-0.78715 1.3534-1.4313 2.8581-1.8438 4.4062h-3.0938c-0.8806 0-1.5938 0.69669-1.5938 1.5625v6.0625c0 0.86581 0.71315 1.5625 1.5938 1.5625h3.0938c0.41249 1.5481 1.0566 3.0528 1.8438 4.4062l-2.2188 2.1875c-0.62261 0.62268-0.64346 1.6065-0.03125 2.2188l4.3125 4.3125c0.3061 0.30611 0.72209 0.4409 1.125 0.4375 0.40291-0.0034 0.78241-0.15741 1.0938-0.46875l2.1875-2.2188c1.3534 0.78715 2.8581 1.4313 4.4062 1.8438v3.0938c0 0.8806 0.69669 1.5938 1.5625 1.5938h6.0625c0.8658 0 1.5625-0.71314 1.5625-1.5938v-3.0938c1.5481-0.41248 3.0528-1.0566 4.4062-1.8438l2.1875 2.2188c0.62268 0.6227 1.6065 0.64347 2.2188 0.03125l4.3125-4.3125c0.61228-0.61222 0.59143-1.5961-0.03125-2.2188l-2.2188-2.1875c0.78715-1.3534 1.4313-2.8581 1.8438-4.4062h3.0938c0.8806 0 1.5938-0.6967 1.5938-1.5625v-6.0625c0-0.86581-0.71316-1.5625-1.5938-1.5625h-3.0938c-0.41248-1.5481-1.0566-3.0528-1.8438-4.4062l2.2188-2.1875c0.62262-0.62268 0.64346-1.6065 0.03125-2.2188l-4.3125-4.3125c-0.61222-0.6122-1.5961-0.59143-2.2188 0.03125l-2.1875 2.2188c-1.3534-0.78715-2.8581-1.4313-4.4062-1.8438v-3.0938c0-0.8806-0.6967-1.5938-1.5625-1.5938h-6.0625zm0 1h6.0625c0.31668 0 0.5625 0.24058 0.5625 0.59375v3.0938a1.0001 1.0001 0 0 0 0.75 0.96875c1.4536 0.3873 2.8763 1.0056 4.1562 1.75a1.0001 1.0001 0 0 0 1.2188-0.1875l2.1875-2.1875c0.25812-0.25812 0.55581-0.25668 0.78125-0.03125l4.3125 4.3125c0.22541 0.22541 0.22686 0.52311-0.03125 0.78125l-2.1875 2.1875a1.0001 1.0001 0 0 0-0.1875 1.2188c0.7444 1.28 1.3627 2.7026 1.75 4.1562a1.0001 1.0001 0 0 0 0.96875 0.75h3.0938c0.35316 0 0.59375 0.24582 0.59375 0.5625v6.0625c0 0.31668-0.2406 0.5625-0.59375 0.5625h-3.0938a1.0001 1.0001 0 0 0-0.96875 0.75c-0.3873 1.4536-1.0056 2.8763-1.75 4.1562a1.0001 1.0001 0 0 0 0.1875 1.2188l2.1875 2.1875c0.25816 0.25816 0.2567 0.55582 0.03125 0.78125l-4.3125 4.3125c-0.22544 0.22544-0.52312 0.22689-0.78125-0.03125l-2.1875-2.1875a1.0001 1.0001 0 0 0-1.2188-0.1875c-1.28 0.74441-2.7026 1.3627-4.1562 1.75a1.0001 1.0001 0 0 0-0.75 0.96875v3.0938c0 0.35317-0.24582 0.59375-0.5625 0.59375h-6.0625c-0.31669 0-0.5625-0.24058-0.5625-0.59375v-3.0938a1.0001 1.0001 0 0 0-0.75-0.96875c-1.4536-0.3873-2.8763-1.0056-4.1562-1.75a1.0001 1.0001 0 0 0-1.2188 0.1875l-2.1875 2.1875c-0.14062 0.14062-0.22155 0.1862-0.375 0.1875-0.17409 0.001469-0.31667-0.066665-0.40625-0.15625l-4.3125-4.3125c-0.2254-0.22541-0.22686-0.52311 0.03125-0.78125l2.1875-2.1875a1.0001 1.0001 0 0 0 0.1875-1.2188c-0.7444-1.2799-1.3627-2.7026-1.75-4.1562a1.0001 1.0001 0 0 0-0.96875-0.75h-3.0938c-0.35317 0-0.59375-0.24581-0.59375-0.5625v-6.0625c0-0.31669 0.24058-0.5625 0.59375-0.5625h3.0938a1.0001 1.0001 0 0 0 0.96875-0.75c0.38731-1.4536 1.0056-2.8763 1.75-4.1562a1.0001 1.0001 0 0 0-0.1875-1.2188l-2.1875-2.1875c-0.25816-0.25816-0.2567-0.55582-0.03125-0.78125l4.3125-4.3125c0.22542-0.22543 0.52313-0.22688 0.78125 0.03125l2.1875 2.1875a1.0001 1.0001 0 0 0 1.2188 0.1875c1.28-0.74441 2.7026-1.3627 4.1562-1.75a1.0001 1.0001 0 0 0 0.75-0.96875v-3.0938c0-0.35317 0.24581-0.59375 0.5625-0.59375zm3.0312 13.344c-4.2134 0-7.6562 3.4428-7.6562 7.6562 0 4.2134 3.4428 7.6562 7.6562 7.6562 4.2134 0 7.6562-3.4428 7.6562-7.6562 0-4.2134-3.4428-7.6562-7.6562-7.6562zm0 1c3.6714 0 6.6562 2.9848 6.6562 6.6562 0 3.6714-2.9848 6.6562-6.6562 6.6562-3.6714 0-6.6562-2.9848-6.6562-6.6562 0-3.6714 2.9848-6.6562 6.6562-6.6562z" display="block" fill="url(#linearGradient3092)" opacity=".5"/>
  <path id="path4704" d="m44.969 28c-0.86581 0-1.5625 0.71315-1.5625 1.5938v1c0-0.8806 0.69669-1.5938 1.5625-1.5938h6.0625c0.8658 0 1.5625 0.71315 1.5625 1.5938v-1c0-0.8806-0.6967-1.5938-1.5625-1.5938h-6.0625zm-9.2812 3.8438c-0.39724-0.0067-0.78764 0.13139-1.0938 0.4375l-4.3125 4.3125c-0.41839 0.41835-0.50684 1.0033-0.34375 1.5312 0.07436-0.1869 0.19068-0.3782 0.34375-0.53125l4.3125-4.3125c0.61221-0.61222 1.5961-0.59144 2.2188 0.03125l2.1875 2.2188c1.3534-0.78715 2.8581-1.4313 4.4062-1.8438v-1c-1.5481 0.41248-3.0528 1.0566-4.4062 1.8438l-2.1875-2.2188c-0.31134-0.31135-0.72776-0.46206-1.125-0.46875zm24.625 0c-0.39724 0.0067-0.81366 0.15741-1.125 0.46875l-2.1875 2.2188c-1.3534-0.78715-2.8581-1.4313-4.4062-1.8438v1c1.5481 0.41248 3.0528 1.0566 4.4062 1.8438l2.1875-2.2188c0.62268-0.62268 1.6065-0.64345 2.2188-0.03125l4.3125 4.3125c0.15305 0.15305 0.2694 0.34435 0.34375 0.53125 0.16308-0.52794 0.07459-1.1129-0.34375-1.5312l-4.3125-4.3125c-0.30611-0.3061-0.69651-0.44419-1.0938-0.4375zm-28.125 9.8125c-0.62218 1.1766-1.1511 2.4404-1.5 3.75h-3.0938c-0.8806 0-1.5938 0.69669-1.5938 1.5625v1c0-0.86581 0.71315-1.5625 1.5938-1.5625h3.0938c0.41249-1.5481 1.0566-3.0528 1.8438-4.4062l-0.34375-0.34375zm31.625 0-0.34375 0.34375c0.78715 1.3534 1.4313 2.8581 1.8438 4.4062h3.0938c0.8806 0 1.5938 0.69669 1.5938 1.5625v-1c0-0.86581-0.71316-1.5625-1.5938-1.5625h-3.0938c-0.34894-1.3096-0.87782-2.5734-1.5-3.75zm-22.438 8.8438c-0.01212 0.16393-0.03125 0.33299-0.03125 0.5 0 3.6714 2.9848 6.6562 6.6562 6.6562 3.6714 0 6.6562-2.9848 6.6562-6.6562 0-0.16701-0.01913-0.33607-0.03125-0.5-0.25424 3.4398-3.1206 6.1562-6.625 6.1562-3.5044 0-6.3708-2.7164-6.625-6.1562zm-9.1875 8.8438-1.875 1.8438c-0.45872 0.45877-0.58191 1.102-0.375 1.6562 0.07724-0.23402 0.18562-0.46685 0.375-0.65625l2.2188-2.1875c-0.12126-0.2085-0.23045-0.44198-0.34375-0.65625zm31.625 0c-0.1133 0.21427-0.22249 0.44775-0.34375 0.65625l2.2188 2.1875c0.1894 0.1894 0.29776 0.42224 0.375 0.65625 0.20693-0.55427 0.08377-1.1975-0.375-1.6562l-1.875-1.8438z" display="block" fill="url(#linearGradient3092)"/>
  <path id="path4739" d="m29.938 38.156c-0.20693 0.55427-0.08377 1.1975 0.375 1.6562l1.875 1.8438c0.1133-0.21427 0.22249-0.44775 0.34375-0.65625l-2.2188-2.1875c-0.1894-0.1894-0.29776-0.42224-0.375-0.65625zm36.125 0c-0.07724 0.23402-0.18562 0.46685-0.375 0.65625l-2.2188 2.1875c0.12126 0.2085 0.23045 0.44198 0.34375 0.65625l1.875-1.8438c0.45872-0.45877 0.58191-1.102 0.375-1.6562zm-18.062 5.1875c-3.6714 0-6.6562 2.9848-6.6562 6.6562 0 0.16701 0.01913 0.33607 0.03125 0.5 0.25424-3.4398 3.1206-6.1562 6.625-6.1562 3.5044 0 6.3708 2.7164 6.625 6.1562 0.01212-0.16393 0.03125-0.33299 0.03125-0.5 0-3.6714-2.9848-6.6562-6.6562-6.6562zm-22 9.6875v1c0 0.86581 0.71315 1.5625 1.5938 1.5625h3.0938c0.34894 1.3096 0.87782 2.5734 1.5 3.75l0.34375-0.34375c-0.78715-1.3534-1.4313-2.8581-1.8438-4.4062h-3.0938c-0.8806 0-1.5938-0.69669-1.5938-1.5625zm44 0c0 0.8658-0.71316 1.5625-1.5938 1.5625h-3.0938c-0.41248 1.5481-1.0566 3.0528-1.8438 4.4062l0.34375 0.34375c0.62218-1.1766 1.1511-2.4404 1.5-3.75h3.0938c0.8806 0 1.5938-0.6967 1.5938-1.5625v-1zm-40.062 9.8438c-0.16307 0.52794-0.07459 1.1129 0.34375 1.5312l4.3125 4.3125c0.3061 0.30611 0.72209 0.4409 1.125 0.4375 0.40291-0.0034 0.78241-0.15741 1.0938-0.46875l2.1875-2.2188c1.3534 0.78715 2.8581 1.4313 4.4062 1.8438v-1c-1.5481-0.41248-3.0528-1.0566-4.4062-1.8438l-2.1875 2.2188c-0.31134 0.31134-0.69084 0.46534-1.0938 0.46875-0.40291 0.0034-0.8189-0.13139-1.125-0.4375l-4.3125-4.3125c-0.15305-0.15305-0.2694-0.34435-0.34375-0.53125zm36.125 0c-0.07435 0.1869-0.19068 0.3782-0.34375 0.53125l-4.3125 4.3125c-0.61222 0.61222-1.5961 0.59144-2.2188-0.03125l-2.1875-2.2188c-1.3534 0.78715-2.8581 1.4313-4.4062 1.8438v1c1.5481-0.41248 3.0528-1.0566 4.4062-1.8438l2.1875 2.2188c0.62268 0.6227 1.6065 0.64347 2.2188 0.03125l4.3125-4.3125c0.41839-0.41835 0.50684-1.0033 0.34375-1.5312zm-22.656 7.5312v1c0 0.8806 0.69669 1.5938 1.5625 1.5938h6.0625c0.8658 0 1.5625-0.71314 1.5625-1.5938v-1c0 0.8806-0.6967 1.5938-1.5625 1.5938h-6.0625c-0.86581 0-1.5625-0.71315-1.5625-1.5938z" display="block" fill="#fff" opacity=".2"/>
 </g>
</svg>
