<?xml version="1.0" encoding="UTF-8"?>
<svg width="96" height="96" version="1.1" xmlns="http://www.w3.org/2000/svg">
 <path d="m40 26-11.09 12.19h-7.41c-0.82 0-1.5 0.67-1.5 1.5v16.84c0 0.82 0.68 1.61 1.5 1.5h7.41l11.09 11.97v-44zm11.34 9.81-5.21 3.63c2.22 2.22 3.71 5.24 3.71 8.62 0 3.34-1.45 6.23-3.62 8.44l5.22 3.63c2.82-3.24 4.53-7.44 4.53-12.07 0-4.67-1.76-9-4.63-12.25z" fill="#bebebe"/>
 <path d="m69.78 22.81-5 3.44c5.59 5.54 9 13.33 9 21.81 0 8.44-3.38 16.1-8.91 21.63l5 3.43c6.21-6.58 10.13-15.31 10.13-25.06 0-9.79-3.96-18.66-10.22-25.25zm-9.19 6.5-5 3.44-0.1 0.1c3.94 3.89 6.41 9.25 6.41 15.22 0 5.92-2.43 11.15-6.32 15.03l0.1 0.1 5.09 3.43c4.48-4.9 7.25-11.4 7.25-18.56 0-7.23-2.88-13.83-7.44-18.75z" fill="#bebebe" opacity=".45"/>
</svg>
