<?xml version="1.0" encoding="UTF-8"?>
<svg width="96" height="96" version="1.1" xmlns="http://www.w3.org/2000/svg">
 <path d="m 71.84,37.91 c -0.22,1.03 -1.77,5.56 -2.5,7.35 -1.03,2.48 -3.33,6.45 -5.01,8.62 -2.01,2.59 -3.89,4.49 -7.49,7.57 -5.54,4.72 -10.99,7.91 -16.57,9.67 -2.57,0.81 -3.58,0.96 -5.67,0.84 -4.18,-0.23 -8.64,-2.72 -10.16,-5.67 -0.43,-0.84 -0.47,-1.18 -0.43,-3.26 0.1,-2.66 0.23,-3.05 1.53,-3.6 2.08,-0.89 10.69,-3.75 11.19,-3.72 0.82,0 2.81,1.43 4.4,3.06 1.77,1.82 2.05,1.85 4.48,0.53 4.96,-2.69 8.88,-6.15 11.95,-10.56 1.6,-2.29 3.31,-5.37 3.35,-6.03 0.1,-0.94 -0.2,-1.31 -1.78,-2.61 -1.85,-1.54 -3.87,-3.56 -4.16,-4.19 -0.3,-0.64 -0.28,-0.7 2.2,-5.07 1.16,-2.05 2.45,-4.34 2.87,-5.09 0.42,-0.75 0.91,-1.48 1.09,-1.61 0.61,-0.44 4.54,0.23 5.9,1 1.37,0.78 3.28,3.27 4.04,5.27 0.79,2.09 1.16,5.72 0.77,7.49 z" fill="#bebebe"/>
</svg>
