<?xml version="1.0" encoding="UTF-8"?>
<svg width="96" height="96" version="1.1" xmlns="http://www.w3.org/2000/svg">
 <path d="m61 29v6h-6.09c-3.68 0-6.77 1.62-9 3.66-1.46 1.33-2.59 2.82-3.66 4.31l-4.22 5.91c-0.624 0.774-1.24 1.5-1.88 2.06-1.51 1.33-2.96 2.06-5.25 2.06h-8.91v6h8.91c3.77 0 6.89-1.53 9.19-3.56 0.629-0.556 1.15-1.17 1.69-1.78 1.32-1.74 2.63-3.5 3.94-5.25 1.44-2.14 2.82-4.07 4.22-5.34 1.46-1.33 2.83-2.06 4.97-2.06h6.09v6l15-9zm-39 8v6h8.91c2.29 0 3.74 0.728 5.25 2.06 0.245 0.217 0.48 0.462 0.719 0.719l3.16-4.41c0.12-0.167 0.251-0.33 0.375-0.5-0.106-0.103-0.2-0.213-0.312-0.312-2.3-2.03-5.42-3.56-9.19-3.56zm39 12v6h-6.09c-2.14 0-3.51-0.729-4.97-2.06-0.76-0.694-1.52-1.58-2.28-2.59-1.22 1.63-2.44 3.3-3.69 4.94 0.591 0.713 1.22 1.41 1.94 2.06 2.23 2.04 5.32 3.66 9 3.66h6.09v6l15-9z" fill="#bebebe"/>
</svg>
