<?xml version="1.0" encoding="UTF-8"?>
<svg width="96" height="96" version="1.1" xmlns="http://www.w3.org/2000/svg">
 <path d="m62.6 26.5c-0.468-0.0015-0.945 0.163-1.31 0.531l-2.66 2.66c-1.43-0.834-2.97-1.52-4.59-2v15.2c1.15 1.37 1.84 3.13 1.84 5.06 0 4.34-3.5 7.84-7.84 7.84s-7.84-3.5-7.84-7.84c0-1.93 0.692-3.69 1.84-5.06v-15.2c-1.62 0.482-3.16 1.17-4.59 2l-2.66-2.66c-0.368-0.368-0.774-0.496-1.25-0.5-0.476-0.0041-0.982 0.138-1.34 0.5l-5.09 5.09c-0.724 0.724-0.673 1.86 0.0625 2.59l2.59 2.66c-0.93 1.6-1.67 3.33-2.16 5.16h-3.66c-1.04 0-1.91 0.852-1.91 1.88v7.12c0 1.02 0.866 1.88 1.91 1.88h3.66c0.487 1.83 1.23 3.56 2.16 5.16l-2.59 2.59c-0.736 0.736-0.755 1.93-0.0312 2.66l5.06 5.09c0.724 0.724 1.86 0.673 2.59-0.0625l2.66-2.59c1.6 0.93 3.33 1.67 5.16 2.16v3.66c-5e-6 1.04 0.852 1.91 1.88 1.91h7.12c1.02 0 1.88-0.866 1.88-1.91v-3.66c1.83-0.487 3.56-1.23 5.16-2.16l2.66 2.59c0.736 0.736 1.87 0.786 2.59 0.0625l5.09-5.09c0.724-0.724 0.673-1.89-0.0625-2.62l-2.59-2.62c0.93-1.6 1.67-3.33 2.16-5.16h3.66c1.04-5e-6 1.91-0.852 1.91-1.88v-7.12c0-1.02-0.866-1.88-1.91-1.88h-3.66c-0.487-1.83-1.23-3.56-2.16-5.16l2.59-2.66c0.736-0.736 0.786-1.87 0.0625-2.59l-5.09-5.09c-0.362-0.362-0.814-0.53-1.28-0.531z" fill="#bebebe"/>
 <path class="error" d="m46 22c-1.11 0-2 0.892-2 2v16c0 1.11 0.892 2 2 2h4c1.11 0 2-0.892 2-2v-16c0-1.11-0.892-2-2-2zm2 22c-2.21 0-4 1.79-4 4s1.79 4 4 4 4-1.79 4-4-1.79-4-4-4z" fill="#d40000"/>
</svg>
