<?xml version="1.0" encoding="UTF-8"?>
<svg width="96" height="96" version="1.1" xmlns="http://www.w3.org/2000/svg">
 <path d="m25 25c-1.66 0-3 1.34-3 3v40c0 1.66 1.34 3 3 3h46c1.66 0 3-1.34 3-3v-40c0-1.66-1.34-3-3-3zm30.5 3h2c0.277 0 0.5 0.223 0.5 0.5v2c0 0.277-0.223 0.5-0.5 0.5h-2c-0.277 0-0.5-0.223-0.5-0.5v-2c0-0.277 0.223-0.5 0.5-0.5zm5 0h2c0.277 0 0.5 0.223 0.5 0.5v2c0 0.277-0.223 0.5-0.5 0.5h-2c-0.277 0-0.5-0.223-0.5-0.5v-2c0-0.277 0.223-0.5 0.5-0.5zm5 0h2c0.277 0 0.5 0.223 0.5 0.5v2c0 0.277-0.223 0.5-0.5 0.5h-2c-0.277 0-0.5-0.223-0.5-0.5v-2c0-0.277 0.223-0.5 0.5-0.5zm-36.5 9h38c0.554 0 1 0.446 1 1v26c0 0.554-0.446 1-1 1h-38c-0.554 0-1-0.446-1-1v-26c0-0.554 0.446-1 1-1zm15 2v8h-8v8h8v8h8v-8h8v-8h-8v-8z" fill="#bebebe"/>
</svg>
