<?xml version="1.0" encoding="UTF-8"?>
<svg id="svg29" width="16" height="16" version="1.1" xmlns="http://www.w3.org/2000/svg" xmlns:cc="http://creativecommons.org/ns#" xmlns:dc="http://purl.org/dc/elements/1.1/" xmlns:rdf="http://www.w3.org/1999/02/22-rdf-syntax-ns#">
 <metadata id="metadata33">
  <rdf:RDF>
   <cc:Work rdf:about="">
    <dc:format>image/svg+xml</dc:format>
    <dc:type rdf:resource="http://purl.org/dc/dcmitype/StillImage"/>
   </cc:Work>
  </rdf:RDF>
 </metadata>
 <defs id="defs7">
  <linearGradient id="gr0" x1="8" x2="8" y1=".9999" y2="15" gradientUnits="userSpaceOnUse">
   <stop id="stop2" stop-color="#ebebeb" offset="0"/>
   <stop id="stop4" stop-color="#aaa" offset="1"/>
  </linearGradient>
 </defs>
 <path id="path9" transform="translate(0,1)" d="m8 0a1 1.0001 0 0 0-0.38867 0.078125c-1.6955 0.10057-3.3588 0.77092-4.5605 1.9727-1.2958 1.2958-2.0508 3.1166-2.0508 4.9492 0.00174 2.2089 1.1769 4.3325 2.9453 5.6406l-1.3223 0.7793a1.0001 1.0001 0 0 0-0.19922 0.1543c-0.45525 0.45446-0.46243 1.0738-0.29102 1.5117 0.17141 0.43796 0.59877 0.8903 1.2422 0.91406a1.0001 1.0001 0 0 0 0.037109 0h9.1758a1.0001 1.0001 0 0 0 0.03711 0c0.6434-0.02376 1.0705-0.47398 1.2422-0.91211 0.1717-0.43813 0.16308-1.0616-0.29297-1.5156a1.0001 1.0001 0 0 0-0.19727-0.15234l-1.3242-0.78125c1.7688-1.3073 2.9446-3.428 2.9473-5.6367a1.0001 1.0001 0 0 0 0-0.00195c0-1.8326-0.75494-3.6534-2.0508-4.9492-1.2958-1.2958-3.1166-2.0508-4.9492-2.0508zm0 2c0.26431 0 0.5 0.23569 0.5 0.5s-0.23569 0.5-0.5 0.5-0.5-0.23569-0.5-0.5 0.23569-0.5 0.5-0.5z" opacity=".15"/>
 <path id="path12" transform="translate(0,1)" d="m8-1a2.0002 2.0002 0 0 0-0.77344 0.15625 2.0002 2.0002 0 0 0-0.00586 0.001953c-1.8163 0.18828-3.5847 0.8933-4.877 2.1855-1.481 1.481-2.3438 3.5619-2.3438 5.6562a2.0002 2.0002 0 0 0 0 0.00195c0.0016048 2.0333 0.92416 3.9613 2.3145 5.4395l-0.19922 0.11719a2.0002 2.0002 0 0 0-0.39648 0.30664c-0.7953 0.79392-0.80191 1.8595-0.51758 2.5859 0.28434 0.72648 1.0124 1.5054 2.1367 1.5469a2.0002 2.0002 0 0 0 0.074219 2e-3h9.1758a2.0002 2.0002 0 0 0 0.07422-2e-3c1.1243-0.04151 1.8519-0.82005 2.1367-1.5469 0.28484-0.72683 0.27707-1.7947-0.51953-2.5879a2.0002 2.0002 0 0 0-0.39453-0.30469l-0.20117-0.11914c1.3905-1.4775 2.3139-3.4045 2.3164-5.4375a2.0002 2.0002 0 0 0 0-0.00195c0-2.0944-0.86279-4.1753-2.3438-5.6562-1.481-1.481-3.5619-2.3438-5.6562-2.3438zm0 2c0.80476 0 1.5 0.69524 1.5 1.5 0 0.28446-0.16854 0.51291-0.31641 0.74414-0.38083-0.12271-0.76551-0.24414-1.1836-0.24414-0.41809 0-0.80276 0.12143-1.1836 0.24414-0.14786-0.23123-0.31641-0.45968-0.31641-0.74414 0-0.80476 0.69524-1.5 1.5-1.5z" opacity=".1"/>
 <path id="path15" transform="translate(0,1)" d="m8-2a3.0003 3.0003 0 0 0-1.2422 0.27148c-4.1814 0.68328-7.7578 4.4472-7.7578 8.7285a3.0003 3.0003 0 0 0 0 0.00195c0.001534 1.9439 0.73275 3.8232 1.9023 5.373-0.94857 1.106-1.0071 2.4851-0.63281 3.4414 0.39726 1.015 1.426 2.1224 3.0312 2.1816a3.0003 3.0003 0 0 0 0.11133 2e-3h9.1758a3.0003 3.0003 0 0 0 0.11133-2e-3c1.6052-0.05927 2.6333-1.1661 3.0312-2.1816 0.37495-0.95678 0.31552-2.3378-0.63477-3.4434 1.1696-1.5491 1.9019-3.4258 1.9043-5.3691a3.0003 3.0003 0 0 0 0-0.00391c0-4.7124-4.2876-9-9-9zm0 2c1.3452 0 2.5 1.1548 2.5 2.5 0 0.084619-0.08485 0.13783-0.09375 0.2207-0.72732-0.41694-1.5214-0.7207-2.4062-0.7207-0.88487 0-1.6789 0.30375-2.4062 0.7207-0.0089-0.082872-0.09375-0.13608-0.09375-0.2207 0-1.3452 1.1548-2.5 2.5-2.5z" opacity=".08"/>
 <path id="path18" d="m8 2c-0.27614 0-0.5 0.22386-0.5 0.5s0.22386 0.5 0.5 0.5 0.5-0.22386 0.5-0.5-0.22386-0.5-0.5-0.5zm0 2c-1.6569 0-3 1.3431-3 3 0 0.17106 0.023282 0.33676 0.050781 0.5 0.21673-1.2865 1.2469-2.2832 2.5469-2.459 0.1302-0.026642 0.26427-0.041016 0.40234-0.041016 0.13807 0 0.27215 0.014374 0.40234 0.041016 1.3 0.17581 2.3301 1.1725 2.5469 2.459 0.027499-0.16324 0.050781-0.32894 0.050781-0.5 0-1.6569-1.3431-3-3-3zm5.9746 3.4648a6 6 0 0 1-3.9121 5.1621l0.93945 0.55469a6 6 0 0 0 2.998-5.1816 6 6 0 0 0-0.025391-0.53516zm-11.949 0.027344a6 6 0 0 0-0.025391 0.50781 6 6 0 0 0 2.998 5.1816l0.9375-0.55274a6 6 0 0 1-3.9102-5.1367zm4.0449 0.0078125c-0.041656 0.16076-0.070312 0.32622-0.070312 0.5 0 0.9665 0.68629 1.7725 1.5977 1.959 0.13273 0.017951 0.26469 0.041016 0.40234 0.041016s0.26961-0.023065 0.40234-0.041016c0.91137-0.18649 1.5977-0.99249 1.5977-1.959 0-0.17378-0.028656-0.33924-0.070312-0.5-0.22311 0.86102-0.9989 1.5-1.9297 1.5s-1.7066-0.63898-1.9297-1.5zm-2.4629 7.5-0.47656 0.28125c-0.2304 0.23-0.04375 0.70675 0.28125 0.71875h9.1758c0.325-0.012 0.51225-0.48875 0.28125-0.71875l-0.47656-0.28125h-8.7852z" opacity=".45"/>
 <path id="base" d="m8 1a6 6 0 0 0-6 6 6 6 0 0 0 3.9355 5.6289l-2.8047 1.6523c-0.2304 0.23-0.04375 0.70675 0.28125 0.71875h9.1758c0.325-0.012 0.51225-0.48875 0.28125-0.71875l-2.8066-1.6543a6 6 0 0 0 3.9375-5.627 6 6 0 0 0-6-6zm0 1c0.27614 0 0.5 0.22386 0.5 0.5s-0.22386 0.5-0.5 0.5-0.5-0.22386-0.5-0.5 0.22386-0.5 0.5-0.5zm0 2c1.6569 0 3 1.3431 3 3s-1.3431 3-3 3-3-1.3431-3-3 1.3431-3 3-3zm0 1c-1.1046 0-2 0.89543-2 2s0.89543 2 2 2 2-0.89543 2-2-0.89543-2-2-2z" fill="url(#gr0)"/>
 <path id="path24" d="m8 1a6 6 0 0 0-6 6 6 6 0 0 0 0.025391 0.49219 6 6 0 0 1 5.9746-5.4922 6 6 0 0 1 5.9746 5.4648 6 6 0 0 0 0.025391-0.46484 6 6 0 0 0-6-6zm0 2c-0.27614 0-0.5 0.22386-0.5 0.5s0.22386 0.5 0.5 0.5 0.5-0.22386 0.5-0.5-0.22386-0.5-0.5-0.5zm0 2c-0.13808 0-0.27215 0.014374-0.40234 0.041016-0.91138 0.18649-1.5977 0.99249-1.5977 1.959 0 0.17378 0.028656 0.33924 0.070312 0.5 0.22311-0.86102 0.99888-1.5 1.9297-1.5 0.93079 0 1.7066 0.63898 1.9297 1.5 0.041657-0.16076 0.070312-0.32622 0.070312-0.5 0-0.9665-0.68629-1.7725-1.5977-1.959-0.1302-0.026642-0.26427-0.041016-0.40234-0.041016zm-2.9492 2.5c-0.027499 0.16324-0.050781 0.32894-0.050781 0.5 0 1.6569 1.3431 3 3 3s3-1.3431 3-3c0-0.17106-0.023282-0.33676-0.050781-0.5-0.21673 1.2865-1.2469 2.2832-2.5469 2.459-0.1302 0.026642-0.26427 0.041016-0.40234 0.041016-0.13807 0-0.27215-0.014374-0.40234-0.041016-1.3-0.17581-2.3301-1.1725-2.5469-2.459zm-0.052734 5.6816-1.8672 1.0996c-0.2304 0.23-0.04375 0.70675 0.28125 0.71875h0.19531l2.3281-1.3711a6 6 0 0 1-0.9375-0.44726zm6.0039 0a6 6 0 0 1-0.93945 0.44531l2.3301 1.373h0.19531c0.325-0.012 0.51225-0.48875 0.28125-0.71875l-1.8672-1.0996z" fill="#fff" opacity=".6"/>
</svg>
