<?xml version="1.0" encoding="UTF-8"?>
<svg id="svg29" width="16" height="16" version="1.1" xmlns="http://www.w3.org/2000/svg" xmlns:cc="http://creativecommons.org/ns#" xmlns:dc="http://purl.org/dc/elements/1.1/" xmlns:rdf="http://www.w3.org/1999/02/22-rdf-syntax-ns#">
 <metadata id="metadata33">
  <rdf:RDF>
   <cc:Work rdf:about="">
    <dc:format>image/svg+xml</dc:format>
    <dc:type rdf:resource="http://purl.org/dc/dcmitype/StillImage"/>
   </cc:Work>
  </rdf:RDF>
 </metadata>
 <defs id="defs7">
  <linearGradient id="gr0" x1="8" x2="8" y1=".99995" y2="14" gradientUnits="userSpaceOnUse">
   <stop id="stop2" stop-color="#ebebeb" offset="0"/>
   <stop id="stop4" stop-color="#aaa" offset="1"/>
  </linearGradient>
 </defs>
 <path id="path9" transform="translate(0,1)" d="m4 0a1 1.0001 0 0 0-0.44727 0.10547 1.0001 1.0001 0 0 0-0.55273 0.89453v0.5c0 1.0541 0.54742 1.9164 1.2188 2.4258 0.6147 0.46643 1.249 0.68308 1.7246 0.87305 0.19844 0.079256 0.25083 0.12686 0.4043 0.20117h-3.3477a1.0001 1.0001 0 0 0-0.9707 0.75781l-2 8a1.0001 1.0001 0 0 0 0.9707 1.2422h14a1.0001 1.0001 0 0 0 0.9707-1.2422l-1.6758-6.7012a1.0001 1.0001 0 0 0-0.52148-0.65039c0.20854-0.64709 0.18817-1.3517-0.31836-1.8594-0.35763-0.35772-0.8389-0.54688-1.3164-0.54688-0.47811 0-0.9586 0.18822-1.3164 0.54688a1.0001 1.0001 0 0 0-0.0059 0.00586c-0.01972 0.02004-0.04957 0.058538-0.07422 0.085937l-0.65234 0.6543a1.0001 1.0001 0 0 0-0.16797-0.13672c-0.099609-0.89964-0.49511-1.682-1.0801-2.1738-0.61842-0.51999-1.2833-0.76635-1.7852-0.9668-0.50149-0.2003-0.92262-0.40201-1.0234-0.47852-0.19132-0.14519-0.033203 0.17093-0.033203-0.037109v-0.5a1.0001 1.0001 0 0 0-1-1zm1.2812 9h1.1895a1.0001 1.0001 0 0 0-0.072266 0.20312l-0.37109 1.5664a1.0001 1.0001 0 0 0-0.027344 0.23047h-1.2188zm5.6191 0.72656 0.31836 1.2734h-1.5879z" fill-rule="evenodd" opacity=".15"/>
 <path id="path12" transform="translate(0,1)" d="m4-1a2.0002 2.0002 0 0 0-0.89453 0.21094 2.0002 2.0002 0 0 0-1.1055 1.7891v0.5c0 1.0172 0.4454 1.8312 1 2.5a2.0002 2.0002 0 0 0-1.9395 1.5156l-2 8a2.0002 2.0002 0 0 0 1.9395 2.4844h14a2.0002 2.0002 0 0 0 1.9395-2.4844l-1.6758-6.7012a2.0002 2.0002 0 0 0-0.36133-0.74219c0.06268-0.81017-0.13217-1.623-0.73828-2.2305-0.54723-0.5485-1.2898-0.8418-2.0254-0.8418-0.56822 0-1.0812 0.31803-1.5645 0.65039-0.2712-0.57037-0.64929-1.0632-1.0898-1.4336-0.77694-0.65328-1.557-0.93131-2.0566-1.1309-0.27344-0.10922-0.28901-0.12028-0.43359-0.18945a2.0002 2.0002 0 0 0-1.9941-1.8965z" fill-rule="evenodd" opacity=".1"/>
 <path id="path15" transform="translate(0,1)" d="m4-2a3.0003 3.0003 0 0 0-1.3418 0.31641 3.0003 3.0003 0 0 0-1.6582 2.6836v0.5c0 0.70586 0.22995 1.323 0.48438 1.9141a3.0003 3.0003 0 0 0-1.3945 1.8574l-2 8a3.0003 3.0003 0 0 0 2.9102 3.7285h14a3.0003 3.0003 0 0 0 2.9102-3.7285l-1.6758-6.7012a3.0003 3.0003 0 0 0-0.25977-0.66602c0.01053-1.0078-0.35333-2.0177-1.1035-2.7695-0.73669-0.7384-1.7393-1.1348-2.7324-1.1348-0.46736 0-0.93392 0.10348-1.377 0.27344-0.21598-0.27286-0.37956-0.60932-0.63281-0.82227-0.89923-0.7561-1.7329-1.0425-2.2402-1.2422a3.0003 3.0003 0 0 0-2.8887-2.209z" fill-rule="evenodd" opacity=".08"/>
 <path id="path18" d="m4 2v0.5c0 0.71607 0.36306 1.2805 0.82227 1.6289 0.4592 0.34844 0.99628 0.54412 1.4922 0.74219 0.49589 0.19806 0.94816 0.39866 1.2383 0.64258 0.1701 0.14302 0.28752 0.29206 0.36133 0.48633h0.085938v-0.5c0-0.49937-0.15717-0.74241-0.44727-0.98633-0.29012-0.24392-0.74239-0.44452-1.2383-0.64258-0.49591-0.19807-1.033-0.39375-1.4922-0.74219-0.3462-0.26266-0.63723-0.64827-0.75977-1.1289h-0.0625zm8.8223 4.3633c-0.026463 0.036558-0.04133 0.078363-0.074219 0.11133-0.02848 0.027895-0.059777 0.05444-0.091797 0.078125l-4.1172 4.125-1.2891 0.26953-0.25 1.0527 1.5391-0.32227 4.1172-4.125c0.03202-0.023685 0.063317-0.05023 0.091797-0.078125 0.30413-0.30483 0.31964-0.77366 0.074219-1.1113zm-3.834 0.033203-1.5996 1.6035h-2.8887l-1 4h0.25l0.75-3h2.8887l1.9961-2h-0.38477v-0.5c0-0.036519-0.010174-0.067741-0.011719-0.10352zm2.9355 3.3027-0.19922 0.20117 0.52539 2.0996h0.25l-0.57617-2.3008zm-10.674 4.3008-0.25 1h14l-0.25-1h-13.5z" fill-rule="evenodd" opacity=".45"/>
 <path id="base" d="m4 1v0.5c0 0.71607 0.36306 1.2805 0.82227 1.6289 0.4592 0.34844 0.99629 0.54412 1.4922 0.74219 0.49589 0.19806 0.94818 0.39866 1.2383 0.64258 0.2901 0.24392 0.44727 0.48696 0.44727 0.98633v0.5h-5l-2 8h14l-1.6758-6.7012-1.5996 1.6016 0.77539 3.0996h-9l1-4h2.8887l1.9961-2h-0.38477v-0.5c0-0.76335-0.34283-1.3653-0.80273-1.752s-1.0076-0.60334-1.5117-0.80469c-0.50411-0.20135-0.96702-0.38872-1.2578-0.60938s-0.42773-0.4104-0.42773-0.83398v-0.5h-1zm8.1387 4c-0.2206 0-0.44108 0.085209-0.60938 0.25391-0.02874 0.029214-0.055798 0.058836-0.080078 0.091797l-4.0781 4.0879-0.37109 1.5664 1.5391-0.32227 4.1172-4.125c0.03202-0.023685 0.063317-0.05023 0.091797-0.078125 0.33662-0.33739 0.33662-0.88333 0-1.2207-0.16831-0.1687-0.38877-0.25391-0.60938-0.25391z" fill="url(#gr0)" fill-rule="evenodd"/>
 <path id="path24" d="m4 1v0.5c0 0.17622 0.022502 0.34311 0.0625 0.5h0.9375v0.5c0 0.42358 0.13695 0.61332 0.42773 0.83398s0.7537 0.40802 1.2578 0.60938c0.5041 0.20135 1.0518 0.41799 1.5117 0.80469 0.4379 0.3682 0.76027 0.93643 0.79102 1.6484l0.39648-0.39648h-0.38477v-0.5c0-0.76335-0.34283-1.3653-0.80273-1.752s-1.0076-0.60334-1.5117-0.80469c-0.50411-0.20135-0.96703-0.38872-1.2578-0.60938s-0.42773-0.4104-0.42773-0.83398v-0.5h-1zm8.1387 4c-0.2206 0-0.44108 0.085205-0.60938 0.25391-0.02874 0.029214-0.055798 0.058836-0.080078 0.091797l-4.0781 4.0879-0.37109 1.5664 0.25-0.052734 0.12109-0.51367 4.0781-4.0879c0.02428-0.032961 0.051338-0.062583 0.080078-0.091797 0.1683-0.1687 0.38878-0.25391 0.60938-0.25391 0.22061 0 0.44106 0.085206 0.60938 0.25391 0.03249 0.032562 0.048001 0.073302 0.074219 0.10938 0.24438-0.3376 0.22951-0.80497-0.074219-1.1094-0.16831-0.1687-0.38876-0.25391-0.60938-0.25391zm-9.1387 1-2 8h0.25l1.75-7h5v-0.5c0-0.20657-0.033866-0.36295-0.085938-0.5h-4.9141zm10.324 1.2988-1.5996 1.6016 0.19922 0.79883 1.4004-1.4004 1.4258 5.7012h0.25l-1.6758-6.7012zm-9.5742 4.7012-0.25 1h3.498 5.502l-0.25-1h-5.25-0.0019531-3.248z" fill="#fff" fill-rule="evenodd" opacity=".6"/>
</svg>
