<?xml version="1.0" encoding="UTF-8"?>
<svg id="svg29" width="16" height="16" version="1.1" xmlns="http://www.w3.org/2000/svg" xmlns:cc="http://creativecommons.org/ns#" xmlns:dc="http://purl.org/dc/elements/1.1/" xmlns:rdf="http://www.w3.org/1999/02/22-rdf-syntax-ns#">
 <metadata id="metadata33">
  <rdf:RDF>
   <cc:Work rdf:about="">
    <dc:format>image/svg+xml</dc:format>
    <dc:type rdf:resource="http://purl.org/dc/dcmitype/StillImage"/>
   </cc:Work>
  </rdf:RDF>
 </metadata>
 <defs id="defs7">
  <linearGradient id="gr0" x1="8" x2="8" y1="1" y2="15" gradientUnits="userSpaceOnUse">
   <stop id="stop2" stop-color="#ebebeb" offset="0"/>
   <stop id="stop4" stop-color="#aaa" offset="1"/>
  </linearGradient>
 </defs>
 <path id="path9" d="m8 0c-4.406 0-8 3.594-8 8 0 4.41 3.594 8 8 8 4.41 0 8-3.59 8-8 0-4.406-3.59-8-8-8zm0 1c3.87 0 7 3.134 7 7 0 3.87-3.13 7-7 7-3.866 0-7-3.13-7-7 0-3.866 3.134-7 7-7zm2.11 1.381-1.059 2.818c0.84 0.317 1.499 0.999 1.789 1.854l2.85-0.951c-0.57-1.721-1.89-3.084-3.58-3.721zm0.51 1.5c0.66 0.426 1.19 0.976 1.59 1.66l-0.95 0.318c-0.28-0.411-0.6-0.747-1-1.033l0.36-0.945zm-2.62 2.119c-1.105 0-2 0.895-2 2s0.895 2 2 2 2-0.895 2-2-0.895-2-2-2zm0 1c0.552 0 1 0.448 1 1s-0.448 1-1 1-1-0.448-1-1 0.448-1 1-1zm-2.844 1.947-2.844 0.949c0.573 1.714 1.89 3.084 3.583 3.724l1.052-2.82c-0.846-0.31-1.504-0.995-1.791-1.853zm-0.418 1.193c0.272 0.41 0.599 0.75 1.002 1.04l-0.351 0.94c-0.668-0.43-1.197-0.98-1.598-1.66l0.947-0.32z" opacity=".25"/>
 <path id="base" d="m8 1c-3.866 0-7 3.134-7 7 0 3.87 3.134 7 7 7 3.87 0 7-3.13 7-7 0-3.866-3.13-7-7-7zm2.11 1.381c1.69 0.637 3.01 2 3.58 3.721l-2.85 0.951c-0.29-0.855-0.949-1.537-1.789-1.854zm-2.11 3.619c1.105 0 2 0.895 2 2s-0.895 2-2 2-2-0.895-2-2 0.895-2 2-2zm0 1c-0.552 0-1 0.448-1 1s0.448 1 1 1 1-0.448 1-1-0.448-1-1-1zm-2.844 1.947c0.287 0.858 0.945 1.543 1.791 1.853l-1.052 2.82c-1.693-0.64-3.01-2.01-3.583-3.724z" fill="url(#gr0)"/>
 <path id="path17" d="m10.11 2.381-1.059 2.818c0.111 0.042 0.21 0.106 0.314 0.16l0.745-1.978c1.39 0.524 2.52 1.545 3.2 2.848l0.38-0.127c-0.57-1.721-1.89-3.084-3.58-3.721zm-2.11 3.619c-1.105 0-2 0.895-2 2 0 0.174 0.029 0.339 0.07 0.5 0.223-0.861 0.999-1.5 1.93-1.5s1.707 0.639 1.93 1.5c0.041-0.161 0.07-0.326 0.07-0.5 0-1.105-0.895-2-2-2zm-6.975 2.5c-0.011 0.166-0.025 0.331-0.025 0.5 0 3.87 3.134 7 7 7 3.87 0 7-3.13 7-7 0-0.169-0.01-0.334-0.03-0.5-0.25 3.64-3.27 6.5-6.97 6.5-3.697 0-6.718-2.86-6.975-6.5zm6.127 0c-0.088 0.149-0.152 0.314-0.152 0.5 0 0.552 0.448 1 1 1s1-0.448 1-1c0-0.186-0.064-0.351-0.152-0.5-0.175 0.294-0.482 0.5-0.848 0.5s-0.673-0.206-0.848-0.5zm-1.996 0.447-2.844 0.949c0.102 0.304 0.234 0.594 0.381 0.874l2.463-0.823c0.249 0.753 0.788 1.343 1.477 1.693l0.314-0.84c-0.846-0.31-1.504-0.995-1.791-1.853z" opacity=".45"/>
 <path id="path24" d="m8 1c-3.866 0-7 3.134-7 7 0 0.169 0.014 0.334 0.025 0.5 0.258-3.631 3.278-6.5 6.975-6.5 3.7 0 6.72 2.869 6.97 6.5 0.02-0.166 0.03-0.331 0.03-0.5 0-3.866-3.13-7-7-7zm1.365 4.359-0.314 0.84c0.84 0.317 1.499 0.999 1.789 1.854l2.85-0.951c-0.1-0.305-0.23-0.593-0.38-0.873l-2.47 0.824c-0.25-0.742-0.79-1.338-1.475-1.694zm-1.365 1.641c-0.552 0-1 0.448-1 1 0 0.186 0.064 0.351 0.152 0.5 0.175-0.294 0.482-0.5 0.848-0.5s0.673 0.206 0.848 0.5c0.088-0.149 0.152-0.314 0.152-0.5 0-0.552-0.448-1-1-1zm-1.93 1.5c-0.041 0.161-0.07 0.326-0.07 0.5 0 1.11 0.895 2 2 2s2-0.89 2-2c0-0.174-0.029-0.339-0.07-0.5-0.223 0.861-0.999 1.5-1.93 1.5s-1.707-0.639-1.93-1.5zm-3.377 2.27-0.381 0.13c0.573 1.71 1.89 3.08 3.583 3.72l1.052-2.82c-0.111-0.04-0.209-0.1-0.314-0.16l-0.738 1.98c-1.392-0.53-2.523-1.55-3.202-2.85z" fill="#fff" opacity=".6"/>
</svg>
