<?xml version="1.0" encoding="UTF-8"?>
<svg id="svg25" width="16" height="16" version="1.1" xmlns="http://www.w3.org/2000/svg" xmlns:cc="http://creativecommons.org/ns#" xmlns:dc="http://purl.org/dc/elements/1.1/" xmlns:rdf="http://www.w3.org/1999/02/22-rdf-syntax-ns#">
 <metadata id="metadata29">
  <rdf:RDF>
   <cc:Work rdf:about="">
    <dc:format>image/svg+xml</dc:format>
    <dc:type rdf:resource="http://purl.org/dc/dcmitype/StillImage"/>
   </cc:Work>
  </rdf:RDF>
 </metadata>
 <defs id="defs7">
  <linearGradient id="a" x1="8" x2="8" y1="1" y2="15" gradientUnits="userSpaceOnUse">
   <stop id="stop2" stop-color="#ebebeb" offset="0"/>
   <stop id="stop4" stop-color="#aaa" offset="1"/>
  </linearGradient>
 </defs>
 <path id="path9" d="m3 0c-1.6447 0-3 1.3553-3 3v10c0 1.6447 1.3553 3 3 3a1 1.0001 0 0 0 0.5-0.13477 1.0001 1.0001 0 0 0 0.5 0.13477h8a1.0001 1.0001 0 0 0 0.5-0.13477 1.0001 1.0001 0 0 0 0.5 0.13477c1.6447 0 3-1.3553 3-3v-10c0-1.6447-1.3553-3-3-3h-1v1h1c1.108 0 2 0.892 2 2v10c0 1.108-0.892 2-2 2v-8h-10v8c-1.108 0-2-0.892-2-2v-10c0-1.108 0.892-2 2-2h3v-1h-3zm3 1c-0.554 0-1 0.446-1 1v3c0 0.554 0.446 1 1 1h6c0.554 0 1-0.446 1-1v-3c0-0.554-0.446-1-1-1v0.10547c-0.090592-0.021883-0.15398-0.10547-0.25-0.10547h-1.5c-0.6752 0-1.25 0.5748-1.25 1.25v2.5c0 0.096017 0.083586 0.15941 0.10547 0.25h-3.1055v-3-1zm4.25 1h1.5c0.1385 0 0.25 0.1115 0.25 0.25v2.5c0 0.1385-0.1115 0.25-0.25 0.25h-1.5c-0.1385 0-0.25-0.1115-0.25-0.25v-2.5c0-0.1385 0.1115-0.25 0.25-0.25zm-6.25 6h8v4h-8v-4zm0 5h8v2h-8v-2z" opacity=".25"/>
 <path id="base" d="m3 1c-1.108 0-2 0.892-2 2v10c0 1.108 0.892 2 2 2v-8h10v8c1.108 0 2-0.892 2-2v-10c0-1.108-0.892-2-2-2h-1c0.554 0 1 0.446 1 1v3c0 0.554-0.446 1-1 1h-6c-0.554 0-1-0.446-1-1v-3c0-0.554 0.446-1 1-1h-3zm7.25 1c-0.1385 0-0.25 0.1115-0.25 0.25v2.5c0 0.1385 0.1115 0.25 0.25 0.25h1.5c0.1385 0 0.25-0.1115 0.25-0.25v-2.5c0-0.1385-0.1115-0.25-0.25-0.25h-1.5zm-6.25 11v2h8v-2h-8z" fill="url(#a)"/>
 <path id="path15" d="m3 1c-1.108 0-2 0.892-2 2v1c0-1.108 0.892-2 2-2h2c0-0.554 0.446-1 1-1h-3zm9 0c0.554 0 1 0.446 1 1 1.108 0 2 0.892 2 2v-1c0-1.108-0.892-2-2-2h-1zm-1.75 1c-0.1385 0-0.25 0.1115-0.25 0.25v1c0-0.1385 0.1115-0.25 0.25-0.25h1.5c0.1385 0 0.25 0.1115 0.25 0.25v-1c0-0.1385-0.1115-0.25-0.25-0.25h-1.5zm-5.25 3v1c0 0.554 0.446 1 1 1h6c0.554 0 1-0.446 1-1v-1c0 0.554-0.446 1-1 1h-0.25-1.5-4.25c-0.554 0-1-0.446-1-1zm-1 8v1h8v-1h-8z" fill="#fff" opacity=".6"/>
 <path id="path20" d="m5 2v1c0-0.554 0.446-1 1-1h-1zm7 0c0.554 0 1 0.446 1 1v-1h-1zm-2 2.75v1c0 0.1385 0.1115 0.25 0.25 0.25h1.5c0.1385 0 0.25-0.1115 0.25-0.25v-1c0 0.1385-0.1115 0.25-0.25 0.25h-1.5c-0.1385 0-0.25-0.1115-0.25-0.25zm-7 2.25v1h10v-1h-1-6-3zm-2 6v1c0 1.108 0.892 2 2 2v-1c-1.108 0-2-0.892-2-2zm14 0c0 1.108-0.892 2-2 2v1c1.108 0 2-0.892 2-2v-1zm-11 2v1h8v-1h-8z" opacity=".45"/>
</svg>
