<?xml version="1.0" encoding="UTF-8"?>
<svg id="svg29" width="22" height="22" version="1.1" xmlns="http://www.w3.org/2000/svg" xmlns:cc="http://creativecommons.org/ns#" xmlns:dc="http://purl.org/dc/elements/1.1/" xmlns:rdf="http://www.w3.org/1999/02/22-rdf-syntax-ns#">
 <metadata id="metadata33">
  <rdf:RDF>
   <cc:Work rdf:about="">
    <dc:format>image/svg+xml</dc:format>
    <dc:type rdf:resource="http://purl.org/dc/dcmitype/StillImage"/>
   </cc:Work>
  </rdf:RDF>
 </metadata>
 <defs id="defs7">
  <linearGradient id="gr0" x1="11" x2="11" y1="1" y2="20" gradientUnits="userSpaceOnUse">
   <stop id="stop2" stop-color="#ebebeb" offset="0"/>
   <stop id="stop4" stop-color="#aaa" offset="1"/>
  </linearGradient>
 </defs>
 <path id="path9" d="m13.98 0a1 1 0 0 0-0.69 0.293l-10.997 10.997a1 1 0 0 0-0.221 0.34l-1.9997 5a1 1 0 0 0 1.2987 1.3l5-2a1 1 0 0 0 0.336-0.22l11.003-11.003a1 1 0 0 0 0-1.414l-3-3a1 1 0 0 0-0.73-0.293zm0.02 1 3 3-11 11-5 2 2-5 11-11zm-0.02 10a1 1 0 0 0-0.68 0.29l-3.997 4a1 1 0 0 0 0 1.42l3.997 4a1 1 0 0 0 1.71-0.71v-2h5a1 1 0 0 0 1-1v-2a1 1 0 0 0-1-1h-5v-2a1 1 0 0 0-1.03-1zm-9.011 0.97-1 1.03-0.969 2 2.031-0.94 0.969-1.03-1.031-1.06zm9.031 0v3h6v2h-6v3l-4-4 4-4z" opacity=".25"/>
 <path id="base" d="m14 1-11 11-2 5 5-2 11-11zm-9.0312 10.969 1.0312 1.062-0.9688 1.031-2.0312 0.938 0.9688-2zm9.0312 0.031-4 4 4 4v-3h6v-2h-6z" fill="url(#gr0)"/>
 <path id="path17" d="m16.5 4.5-10.5 10.5-4.523 1.81-0.477 1.19 5-2 11-11-0.5-0.5zm-11.531 7.47-1 1.03-0.969 2 0.625-0.29 0.344-0.71 1-1.03 0.552 0.57 0.479-0.51-1.031-1.06zm5.531 4.5-0.5 0.5 4 4v-1l-3.5-3.5zm3.5 0.5v1h6v-1h-6z" opacity=".45"/>
 <path id="path24" d="m14 1-11 11-2 5 0.477-0.19 1.523-3.81 11-11 2.5 2.5 0.5-0.5-3-3zm0 10.97-4 4 0.5 0.5 3.5-3.5v-1zm-8.479 1.57-0.49 0.52-1.406 0.65-0.625 1.29 2.031-0.94 0.969-1.03-0.479-0.49zm8.479 1.43v1h6v-1h-6z" fill="#fff" opacity=".6"/>
</svg>
