<?xml version="1.0" encoding="UTF-8"?>
<svg id="svg25" width="22" height="22" version="1.1" xmlns="http://www.w3.org/2000/svg" xmlns:cc="http://creativecommons.org/ns#" xmlns:dc="http://purl.org/dc/elements/1.1/" xmlns:rdf="http://www.w3.org/1999/02/22-rdf-syntax-ns#">
 <metadata id="metadata29">
  <rdf:RDF>
   <cc:Work rdf:about="">
    <dc:format>image/svg+xml</dc:format>
    <dc:type rdf:resource="http://purl.org/dc/dcmitype/StillImage"/>
   </cc:Work>
  </rdf:RDF>
 </metadata>
 <defs id="defs7">
  <linearGradient id="gr0" x1="11" x2="11" y1="8" y2="14" gradientUnits="userSpaceOnUse">
   <stop id="stop2" stop-color="#ebebeb" offset="0"/>
   <stop id="stop4" stop-color="#aaa" offset="1"/>
  </linearGradient>
 </defs>
 <path id="path9" d="m7 7c-1.1738 0-2.031 0.89896-2.291 2h-3.209a1.0001 1.0001 0 0 0-1 1v2a1.0001 1.0001 0 0 0 1 1h3.209c0.26007 1.101 1.1172 2 2.291 2h3.5a1.0001 1.0001 0 0 0 0.5-0.1348 1.0001 1.0001 0 0 0 0.5 0.1348h3.5c1.1738 0 2.0309-0.899 2.291-2h3.209a1.0001 1.0001 0 0 0 1-1v-2a1.0001 1.0001 0 0 0-1-1h-3.209c-0.2601-1.101-1.1172-2-2.291-2h-3.5a1.0001 1.0001 0 0 0-0.5 0.13477 1.0001 1.0001 0 0 0-0.5-0.13477h-3.5zm0 1h3.5v6h-3.5c-0.831 0-1.5-0.669-1.5-1.5v-0.5h-4v-2h4v-0.5c0-0.831 0.669-1.5 1.5-1.5zm4.5 0h3.5c0.831 0 1.5 0.669 1.5 1.5v0.5h4v2h-4v0.5c0 0.831-0.669 1.5-1.5 1.5h-3.5v-6z" opacity=".25"/>
 <path id="base" d="m7 8c-0.831 0-1.5 0.669-1.5 1.5v0.5h-4v2h4v0.5c0 0.831 0.669 1.5 1.5 1.5h3.5v-6zm4.5 0v6h3.5c0.831 0 1.5-0.669 1.5-1.5v-0.5h4v-2h-4v-0.5c0-0.831-0.669-1.5-1.5-1.5z" fill="url(#gr0)"/>
 <path id="path15" d="m1.5 12v1h4v0.5c0 0.831 0.669 1.5 1.5 1.5h3.5v-1h-3.5c-0.831 0-1.5-0.669-1.5-1.5v-0.5h-4zm15 0v0.5c0 0.831-0.669 1.5-1.5 1.5h-3.5v1h3.5c0.831 0 1.5-0.669 1.5-1.5v-0.5h4v-1h-4z" opacity=".45"/>
 <path id="path20" d="m7 8c-0.831 0-1.5 0.669-1.5 1.5v0.5h-4v1h4v-0.5c0-0.831 0.669-1.5 1.5-1.5h3.5v-1h-3.5zm4.5 0v1h3.5c0.831 0 1.5 0.669 1.5 1.5v0.5h4v-1h-4v-0.5c0-0.831-0.669-1.5-1.5-1.5h-3.5z" fill="#fff" opacity=".6"/>
</svg>
