<?xml version="1.0" encoding="UTF-8"?>
<!-- Created with Inkscape (http://www.inkscape.org/) -->
<svg id="svg2" width="22" height="22" version="1.0" xmlns="http://www.w3.org/2000/svg" xmlns:cc="http://creativecommons.org/ns#" xmlns:dc="http://purl.org/dc/elements/1.1/" xmlns:rdf="http://www.w3.org/1999/02/22-rdf-syntax-ns#" xmlns:xlink="http://www.w3.org/1999/xlink">
 <defs id="defs4">
  <linearGradient id="linearGradient3335" x1="11.375" x2="11.375" y1="22" y2="-9.8173" gradientUnits="userSpaceOnUse">
   <stop id="stop3330" offset="0"/>
   <stop id="stop3333" stop-opacity="0" offset="1"/>
  </linearGradient>
  <linearGradient id="linearGradient3181" x1="-3.0608" x2="-3.0608" y1="27.258" y2="7.2537" gradientTransform="translate(11.119 -6.2582)" gradientUnits="userSpaceOnUse" xlink:href="#linearGradient3614"/>
  <filter id="filter3194" x="-.18" y="-.18" width="1.36" height="1.36" color-interpolation-filters="sRGB">
   <feGaussianBlur id="feGaussianBlur3196" stdDeviation="1.2"/>
  </filter>
  <clipPath id="clipPath2849">
   <rect id="rect2851" x="1" y="1" width="20" height="20" rx="2" ry="2" fill="#fff" fill-rule="evenodd"/>
  </clipPath>
  <linearGradient id="linearGradient3614">
   <stop id="stop3616" stop-color="#2558a3" offset="0"/>
   <stop id="stop3618" stop-color="#5287d7" offset="1"/>
  </linearGradient>
  <linearGradient id="linearGradient3856" x1="15" x2="106.51" y1="47.277" y2="47.025" gradientTransform="matrix(.24242 0 0 .24242 -.63636 1.8788)" gradientUnits="userSpaceOnUse">
   <stop id="stop3773" stop-color="#154a99" offset="0"/>
   <stop id="stop3775" stop-color="#154a99" stop-opacity="0" offset="1"/>
  </linearGradient>
  <clipPath id="clipPath3676">
   <path id="path3678" d="m-27 3c-1.108 0-2 0.892-2 2v16c0 1.108 0.892 2 2 2h16c1.108 0 2-0.892 2-2v-16c0-1.108-0.892-2-2-2h-16zm8 3c4.4183 0 8 2.9163 8 6.5312s-3.5817 6.5625-8 6.5625c-0.65792 0-1.2945-0.06495-1.9062-0.1875-0.82246 0.85847-2.3859 2.0035-4.7188 1.75 1.8011-0.50914 2.1977-2.0168 2.2812-2.625-2.197-1.1667-3.6562-3.1973-3.6562-5.5 0-3.615 3.5817-6.5312 8-6.5312z" fill="url(#linearGradient3680)" fill-rule="evenodd"/>
  </clipPath>
  <linearGradient id="linearGradient3680" x1="-3.0608" x2="-3.0608" y1="27.258" y2="7.2537" gradientTransform="translate(-18.881 -4.2582)" gradientUnits="userSpaceOnUse" xlink:href="#linearGradient3614"/>
  <filter id="filter3682" x="-.2301" y="-.25079" width="1.4602" height="1.5016" color-interpolation-filters="sRGB">
   <feGaussianBlur id="feGaussianBlur3684" stdDeviation="1.534"/>
  </filter>
  <linearGradient id="linearGradient3703" x1="46.125" x2="46.125" y1="63.048" y2="24.84" gradientUnits="userSpaceOnUse" xlink:href="#linearGradient3697"/>
  <linearGradient id="linearGradient3697">
   <stop id="stop3699" stop-color="#dcdcdc" offset="0"/>
   <stop id="stop3701" stop-color="#f0f0f0" offset="1"/>
  </linearGradient>
  <filter id="filter3752" x="-.12647" y="-.077377" width="1.2529" height="1.1548" color-interpolation-filters="sRGB">
   <feGaussianBlur id="feGaussianBlur3754" stdDeviation="1.2318495"/>
  </filter>
  <linearGradient id="linearGradient3845" x1="11" x2="21" y1="19.5" y2="19.5" gradientUnits="userSpaceOnUse" spreadMethod="reflect">
   <stop id="stop3833" stop-color="#fff" offset="0"/>
   <stop id="stop3821" stop-color="#fff" stop-opacity=".49804" offset=".75"/>
   <stop id="stop3835" stop-color="#fff" stop-opacity="0" offset="1"/>
  </linearGradient>
  <linearGradient id="linearGradient3101" x1="10" x2="10" y1="1" y2="16" gradientUnits="userSpaceOnUse">
   <stop id="stop3825" stop-color="#fff" offset="0"/>
   <stop id="stop3829" stop-color="#fff" stop-opacity="0" offset="1"/>
  </linearGradient>
 </defs>
 <metadata id="metadata7">
  <rdf:RDF>
   <cc:Work rdf:about="">
    <dc:format>image/svg+xml</dc:format>
    <dc:type rdf:resource="http://purl.org/dc/dcmitype/StillImage"/>
   </cc:Work>
  </rdf:RDF>
 </metadata>
 <g id="layer1">
  <g id="g3337">
   <rect id="rect3371" x=".5" y=".5" width="21" height="21.5" rx="2.5" ry="2.5" fill="url(#linearGradient3335)" opacity=".3"/>
   <rect id="rect2553" x="1" y="2" width="20" height="20" rx="2.381" ry="2.3256" opacity=".5"/>
  </g>
  <rect id="rect3173" x="1" y="1" width="20" height="20" rx="2" ry="2" fill="url(#linearGradient3181)" fill-rule="evenodd"/>
  <path id="rect3050" d="m3 1c-1.108 0-2 0.892-2 2v16c0 1.108 0.892 2 2 2h16c1.108 0 2-0.892 2-2v-16c0-1.108-0.892-2-2-2h-16zm0 1.0312h16c0.5497 0 0.96875 0.41905 0.96875 0.96875v16c0 0.5497-0.41905 0.96875-0.96875 0.96875h-16c-0.5497 0-0.96875-0.41905-0.96875-0.96875v-16c0-0.5497 0.41905-0.96875 0.96875-0.96875z" fill="url(#linearGradient3101)" fill-rule="evenodd" opacity=".3"/>
  <path id="path3235" d="m3 21c-1.108 0-2-0.892-2-2v-1c0 1.108 0.892 2 2 2h16c1.108 0 2-0.892 2-2v1c0 1.108-0.892 2-2 2h-16z" fill="url(#linearGradient3845)" fill-rule="evenodd" opacity=".15"/>
 </g>
 <g id="layer4" transform="translate(0,-2)">
  <path id="path3668" transform="translate(30)" d="m-19 6c-4.4183 0-8 2.9305-8 6.5455 0 2.3027 1.4545 4.3257 3.6515 5.4924-0.08354 0.60818-0.464 2.0969-2.2652 2.6061 2.3328 0.25353 3.8821-0.88395 4.7045-1.7424 0.61176 0.12255 1.2512 0.1894 1.9091 0.1894 4.4183 0 8-2.9305 8-6.5455s-3.5817-6.5455-8-6.5455z" clip-path="url(#clipPath3676)" fill="#fff" filter="url(#filter3682)" opacity=".2"/>
  <path id="path3620" d="m11 6c-4.4183 0-8 2.9305-8 6.5455 0 2.3027 1.4545 4.3257 3.6515 5.4924-0.083545 0.60818-0.464 2.0969-2.2652 2.6061 2.3328 0.25353 3.8821-0.88395 4.7045-1.7424 0.61176 0.12255 1.2512 0.1894 1.9091 0.1894 4.4183 0 8-2.9305 8-6.5455s-3.5817-6.5455-8-6.5455z" fill="url(#linearGradient3856)" opacity=".6"/>
  <path id="path3686" d="m11 6c-4.4183 0-8 2.9163-8 6.5312 0 2.3027 1.4592 4.3333 3.6562 5.5-0.083545 0.60818-0.4801 2.1159-2.2812 2.625 2.3328 0.25353 3.8963-0.89153 4.7188-1.75 0.61176 0.12255 1.2483 0.1875 1.9062 0.1875 4.4183 0 8-2.9475 8-6.5625s-3.5817-6.5312-8-6.5312zm0 1c3.983 0 7 2.5697 7 5.5312 0 2.9616-3.0217 5.5625-7 5.5625-0.59282 0-1.1706-0.04644-1.7188-0.15625a0.98928 0.98928 0 0 0-0.90625 0.28125c-0.24961 0.26054-0.6632 0.52836-1.0625 0.78125 0.093107-0.2904 0.28563-0.64817 0.3125-0.84375a0.98928 0.98928 0 0 0-0.5-1c-1.9374-1.0289-3.125-2.7403-3.125-4.625 0-2.9616 3.017-5.5312 7-5.5312z" opacity=".15"/>
  <path id="path3695" d="m3 12.719c-0.00624 0.10608 0 0.20516 0 0.3125 0 2.2671 1.4221 4.2629 3.5625 5.4375 0.042623-0.16032 0.078348-0.32538 0.09375-0.4375-2.1385-1.1356-3.5813-3.0861-3.6562-5.3125zm16 0.0625c-0.1574 3.5015-3.6819 6.3125-8 6.3125-0.65792 0-1.2945-0.06495-1.9062-0.1875-0.6989 0.7295-1.9354 1.6423-3.7188 1.75-0.27106 0.18759-0.60284 0.38773-1 0.5 2.3328 0.25353 3.8963-0.89153 4.7188-1.75 0.61176 0.12255 1.2483 0.1875 1.9062 0.1875 4.4183 0 8-2.9475 8-6.5625 0-0.08588 4e-3 -0.16493 0-0.25z" fill="#fff" opacity=".2"/>
 </g>
 <g id="layer2" display="none">
  <rect id="rect2410" x="3" y="3" width="16" height="16" rx="2" ry="2" clip-path="url(#clipPath2849)" display="inline" fill="#fff" filter="url(#filter3194)" opacity=".15"/>
 </g>
 <g id="layer3">
  <g id="g3744" transform="matrix(.23528 0 0 .23555 .37513 .73685)" filter="url(#filter3752)" opacity=".6">
   <path id="path3746" d="m57.813 34.824c-2.4e-5 2.4-0.73602 4.464-2.208 6.192-0.44802 0.57602-1.792 1.744-4.032 3.504-1.472 1.184-2.208 2.288-2.208 3.312v1.68h-8.88v-2.736c-6e-6 -1.824 0.70399-3.52 2.112-5.088 0.03199-0.06398 1.328-1.248 3.888-3.552 1.408-1.248 2.112-2.4 2.112-3.456-1.5e-5 -0.70397-0.27201-1.28-0.816-1.728-0.54401-0.47997-1.184-0.71997-1.92-0.72-0.96001 2.8e-5 -1.68 0.35203-2.16 1.056-0.48001 0.70403-0.70401 1.552-0.672 2.544h-8.592v-0.768c0-3.168 1.168-5.696 3.504-7.584 2.144-1.76 4.832-2.64 8.064-2.64 3.2 3.6e-5 5.92 0.84804 8.16 2.544 2.432 1.856 3.648 4.336 3.648 7.44m-7.872 23.328c-1.6e-5 1.44-0.46402 2.608-1.392 3.504-0.89601 0.928-2.064 1.392-3.504 1.392-1.44-3e-6 -2.624-0.464-3.552-1.392-0.89601-0.896-1.344-2.064-1.344-3.504-6e-6 -1.44 0.44799-2.624 1.344-3.552 0.92799-0.92799 2.112-1.392 3.552-1.392 1.44 7e-6 2.608 0.46401 3.504 1.392 0.92798 0.928 1.392 2.112 1.392 3.552"/>
  </g>
  <g id="text3688" transform="matrix(.23528 0 0 .23555 .37513 .23718)" fill="url(#linearGradient3703)">
   <path id="path3695-9" d="m57.813 34.824c-2.4e-5 2.4-0.73602 4.464-2.208 6.192-0.44802 0.57602-1.792 1.744-4.032 3.504-1.472 1.184-2.208 2.288-2.208 3.312v1.68h-8.88v-2.736c-6e-6 -1.824 0.70399-3.52 2.112-5.088 0.03199-0.06398 1.328-1.248 3.888-3.552 1.408-1.248 2.112-2.4 2.112-3.456-1.5e-5 -0.70397-0.27201-1.28-0.816-1.728-0.54401-0.47997-1.184-0.71997-1.92-0.72-0.96001 2.8e-5 -1.68 0.35203-2.16 1.056-0.48001 0.70403-0.70401 1.552-0.672 2.544h-8.592v-0.768c0-3.168 1.168-5.696 3.504-7.584 2.144-1.76 4.832-2.64 8.064-2.64 3.2 3.6e-5 5.92 0.84804 8.16 2.544 2.432 1.856 3.648 4.336 3.648 7.44m-7.872 23.328c-1.6e-5 1.44-0.46402 2.608-1.392 3.504-0.89601 0.928-2.064 1.392-3.504 1.392-1.44-3e-6 -2.624-0.464-3.552-1.392-0.89601-0.896-1.344-2.064-1.344-3.504-6e-6 -1.44 0.44799-2.624 1.344-3.552 0.92799-0.92799 2.112-1.392 3.552-1.392 1.44 7e-6 2.608 0.46401 3.504 1.392 0.92798 0.928 1.392 2.112 1.392 3.552" fill="url(#linearGradient3703)"/>
  </g>
  <path id="path3738" transform="translate(0,-2)" d="m11.188 8.0938c-0.76044 8.5e-6 -1.3706 0.21044-1.875 0.625-0.54962 0.44473-0.84375 1.035-0.84375 1.7812v0.1875h0.03125c0.072951-0.59785 0.34354-1.0893 0.8125-1.4688 0.50445-0.41456 1.1146-0.62499 1.875-0.625 0.7529 8.5e-6 1.4105 0.19426 1.9375 0.59375 0.52143 0.3984 0.76837 0.92037 0.8125 1.5625 0.01168-0.10365 0.03125-0.20359 0.03125-0.3125-6e-6 -0.73115-0.27154-1.3128-0.84375-1.75-0.52704-0.39949-1.1846-0.59374-1.9375-0.59375zm0.5625 2.5625c-0.07453 0.17542-0.21665 0.36652-0.4375 0.5625-0.60233 0.54272-0.89875 0.82868-0.90625 0.84375-0.33128 0.36935-0.5 0.75786-0.5 1.1875v0.5c-1.4e-6 -0.42964 0.16872-0.81815 0.5-1.1875 0.0075-0.01507 0.30392-0.30103 0.90625-0.84375 0.33128-0.29396 0.5-0.56375 0.5-0.8125-2e-6 -0.09786-0.0192-0.17336-0.0625-0.25zm-0.78125 4.125c-0.33881 2e-6 -0.62541 0.09391-0.84375 0.3125-0.21082 0.21859-0.3125 0.50456-0.3125 0.84375-4e-7 0.09035 0.016679 0.17008 0.03125 0.25 0.04013-0.2273 0.12659-0.43338 0.28125-0.59375 0.21834-0.21859 0.50494-0.3125 0.84375-0.3125 0.33881 2e-6 0.63293 0.09391 0.84375 0.3125 0.16018 0.16037 0.24288 0.36645 0.28125 0.59375 0.01393-0.07992 0.03125-0.15965 0.03125-0.25-4e-6 -0.3392-0.09416-0.62516-0.3125-0.84375-0.21082-0.21859-0.50494-0.3125-0.84375-0.3125z" fill="#fff"/>
 </g>
</svg>
