<?xml version="1.0" encoding="UTF-8"?>
<!-- Created with Inkscape (http://www.inkscape.org/) -->
<svg id="svg2" width="22" height="22" version="1.0" xmlns="http://www.w3.org/2000/svg" xmlns:cc="http://creativecommons.org/ns#" xmlns:dc="http://purl.org/dc/elements/1.1/" xmlns:rdf="http://www.w3.org/1999/02/22-rdf-syntax-ns#" xmlns:xlink="http://www.w3.org/1999/xlink">
 <defs id="defs4">
  <linearGradient id="linearGradient3335" x1="11.375" x2="11.375" y1="22" y2="-9.8173" gradientUnits="userSpaceOnUse">
   <stop id="stop3330" offset="0"/>
   <stop id="stop3333" stop-opacity="0" offset="1"/>
  </linearGradient>
  <linearGradient id="linearGradient3181" x1="-3.0608" x2="-3.0608" y1="27.258" y2="7.2537" gradientTransform="translate(11.119 -6.2582)" gradientUnits="userSpaceOnUse">
   <stop id="stop3616-4" stop-color="#65a31b" offset="0"/>
   <stop id="stop3618-3" stop-color="#a0de42" offset="1"/>
  </linearGradient>
  <filter id="filter3194" x="-.18" y="-.18" width="1.36" height="1.36" color-interpolation-filters="sRGB">
   <feGaussianBlur id="feGaussianBlur3196" stdDeviation="1.2"/>
  </filter>
  <clipPath id="clipPath2849">
   <rect id="rect2851" x="1" y="1" width="20" height="20" rx="2" ry="2" fill="#fff" fill-rule="evenodd"/>
  </clipPath>
  <linearGradient id="linearGradient3856" x1="45.79" x2="45.79" y1="78.067" y2="17.246" gradientTransform="matrix(.24242 0 0 .24242 -.63636 1.8788)" gradientUnits="userSpaceOnUse" xlink:href="#linearGradient3731"/>
  <clipPath id="clipPath3676">
   <path id="path3678" d="m-27 3c-1.108 0-2 0.892-2 2v16c0 1.108 0.892 2 2 2h16c1.108 0 2-0.892 2-2v-16c0-1.108-0.892-2-2-2h-16zm8 3c4.4183 0 8 2.9163 8 6.5312s-3.5817 6.5625-8 6.5625c-0.65792 0-1.2945-0.06495-1.9062-0.1875-0.82246 0.85847-2.3859 2.0035-4.7188 1.75 1.8011-0.50914 2.1977-2.0168 2.2812-2.625-2.197-1.1667-3.6562-3.1973-3.6562-5.5 0-3.615 3.5817-6.5312 8-6.5312z" fill="url(#linearGradient3680)" fill-rule="evenodd"/>
  </clipPath>
  <linearGradient id="linearGradient3680" x1="-3.0608" x2="-3.0608" y1="27.258" y2="7.2537" gradientTransform="translate(-18.881 -4.2582)" gradientUnits="userSpaceOnUse">
   <stop id="stop3616" stop-color="#064096" offset="0"/>
   <stop id="stop3618" stop-color="#4484e5" offset="1"/>
  </linearGradient>
  <filter id="filter3682" x="-.2301" y="-.25079" width="1.4602" height="1.5016" color-interpolation-filters="sRGB">
   <feGaussianBlur id="feGaussianBlur3684" stdDeviation="1.534"/>
  </filter>
  <linearGradient id="linearGradient3731">
   <stop id="stop3733" stop-color="#dcdcdc" offset="0"/>
   <stop id="stop3757" stop-color="#ebebeb" offset=".30654"/>
   <stop id="stop3737" stop-color="#fff" offset=".70706"/>
   <stop id="stop3759" stop-color="#fafafa" offset=".84501"/>
   <stop id="stop3735" stop-color="#f0f0f0" offset="1"/>
  </linearGradient>
  <linearGradient id="linearGradient3727" x1="45.79" x2="45.79" y1="78.067" y2="17.246" gradientTransform="matrix(.24242 0 0 .24242 -.63636 -18.121)" gradientUnits="userSpaceOnUse" xlink:href="#linearGradient3731"/>
  <linearGradient id="linearGradient3845" x1="11" x2="21" y1="19.5" y2="19.5" gradientUnits="userSpaceOnUse" spreadMethod="reflect">
   <stop id="stop3833" stop-color="#fff" offset="0"/>
   <stop id="stop3821" stop-color="#fff" stop-opacity=".49804" offset=".75"/>
   <stop id="stop3835" stop-color="#fff" stop-opacity="0" offset="1"/>
  </linearGradient>
  <linearGradient id="linearGradient3101" x1="10" x2="10" y1="1" y2="16" gradientUnits="userSpaceOnUse">
   <stop id="stop3825" stop-color="#fff" offset="0"/>
   <stop id="stop3829" stop-color="#fff" stop-opacity="0" offset="1"/>
  </linearGradient>
 </defs>
 <metadata id="metadata7">
  <rdf:RDF>
   <cc:Work rdf:about="">
    <dc:format>image/svg+xml</dc:format>
    <dc:type rdf:resource="http://purl.org/dc/dcmitype/StillImage"/>
   </cc:Work>
  </rdf:RDF>
 </metadata>
 <g id="layer1">
  <g id="g3337">
   <rect id="rect3371" x=".5" y=".5" width="21" height="21.5" rx="2.5" ry="2.5" fill="url(#linearGradient3335)" opacity=".3"/>
   <rect id="rect2553" x="1" y="2" width="20" height="20" rx="2.381" ry="2.3256" opacity=".5"/>
  </g>
  <rect id="rect3173" x="1" y="1" width="20" height="20" rx="2" ry="2" fill="url(#linearGradient3181)" fill-rule="evenodd"/>
  <path id="rect3050" d="m3 1c-1.108 0-2 0.892-2 2v16c0 1.108 0.892 2 2 2h16c1.108 0 2-0.892 2-2v-16c0-1.108-0.892-2-2-2h-16zm0 1.0312h16c0.5497 0 0.96875 0.41905 0.96875 0.96875v16c0 0.5497-0.41905 0.96875-0.96875 0.96875h-16c-0.5497 0-0.96875-0.41905-0.96875-0.96875v-16c0-0.5497 0.41905-0.96875 0.96875-0.96875z" fill="url(#linearGradient3101)" fill-rule="evenodd" opacity=".4"/>
  <path id="path3235" d="m3 21c-1.108 0-2-0.892-2-2v-1c0 1.108 0.892 2 2 2h16c1.108 0 2-0.892 2-2v1c0 1.108-0.892 2-2 2h-16z" fill="url(#linearGradient3845)" fill-rule="evenodd" opacity=".2"/>
 </g>
 <g id="layer4" transform="translate(0,-2)">
  <path id="path3698" d="m11 5.4688c-4.8753 0-9.0312 3.2685-9.0312 7.5625 0 2.4433 1.4253 4.5182 3.4688 5.875-0.033118 0.124-0.034823 0.26708-0.125 0.40625-0.23213 0.35824-0.5617 0.68927-1.2188 0.875 3.922e-4 -1.32e-4 -0.062886 1.48e-4 -0.0625 0 3.864e-4 -1.48e-4 -0.03163 0.03141-0.03125 0.03125 3.801e-4 -1.63e-4 -0.031623 1.79e-4 -0.03125 0 3.731e-4 -1.79e-4 -0.031615 0.03144-0.03125 0.03125 3.654e-4 -1.94e-4 -0.062857 0.03146-0.0625 0.03125 3.572e-4 -2.09e-4 -0.031598 2.23e-4 -0.03125 0 3.483e-4 -2.23e-4 -0.031589 0.03149-0.03125 0.03125 3.389e-4 -2.37e-4 -0.031579 0.0315-0.03125 0.03125 3.289e-4 -2.51e-4 -0.031568 0.03151-0.03125 0.03125 3.183e-4 -2.64e-4 -0.031557 0.03153-0.03125 0.03125 3.072e-4 -2.77e-4 -0.031546 0.03154-0.03125 0.03125 2.956e-4 -2.89e-4 -0.031534 0.03155-0.03125 0.03125 2.835e-4 -3.01e-4 -0.031521 0.03156-0.03125 0.03125 2.709e-4 -3.13e-4 -0.031508 0.03157-0.03125 0.03125 2.579e-4 -3.24e-4 -0.031494 0.03158-0.03125 0.03125 2.444e-4 -3.34e-4 -2.305e-4 0.03159 0 0.03125 2.305e-4 -3.44e-4 -0.031466 0.0316-0.03125 0.03125 2.163e-4 -3.53e-4 -0.031452 0.03161-0.03125 0.03125 2.017e-4 -3.61e-4 -1.867e-4 0.03162 0 0.03125 1.867e-4 -3.69e-4 -0.031421 0.06288-0.03125 0.0625 1.714e-4 -3.77e-4 -0.031406 0.03163-0.03125 0.03125 1.558e-4 -3.83e-4 -1.4e-4 0.03164 0 0.03125 1.4e-4 -3.89e-4 -1.24e-4 0.03165 0 0.03125 1.24e-4 -3.95e-4 -0.031358 0.0629-0.03125 0.0625 1.077e-4 -3.99e-4 -9.12e-5 0.03165 0 0.03125 9.12e-5 -4.04e-4 -7.46e-5 0.03166 0 0.03125 7.46e-5 -4.07e-4 -0.031308 0.06291-0.03125 0.0625 5.79e-5 -4.1e-4 -4.11e-5 0.03166 0 0.03125 4.11e-5 -4.12e-4 -2.42e-5 0.03166 0 0.03125 2.42e-5 -4.13e-4 -7.2e-6 0.06291 0 0.0625 7.2e-6 -4.14e-4 9.7e-6 0.03166 0 0.03125-9.7e-6 -4.14e-4 2.66e-5 0.03166 0 0.03125-2.66e-5 -4.13e-4 4.35e-5 0.06291 0 0.0625-4.35e-5 -4.11e-4 6.03e-5 0.03166 0 0.03125-6.03e-5 -4.09e-4 0.031327 0.03166 0.03125 0.03125-7.71e-5 -4.06e-4 9.36e-5 0.0629 0 0.0625-9.36e-5 -4.03e-4 1.101e-4 0.03165 0 0.03125-1.101e-4 -3.99e-4 0.031376 0.03164 0.03125 0.03125-1.263e-4 -3.94e-4 1.423e-4 0.06289 0 0.0625-1.423e-4 -3.88e-4 0.031408 0.03163 0.03125 0.03125-1.581e-4 -3.82e-4 1.737e-4 0.03163 0 0.03125-1.737e-4 -3.76e-4 0.031439 0.03162 0.03125 0.03125-1.889e-4 -3.68e-4 2.038e-4 0.06286 0 0.0625s0.031468 0.0316 0.03125 0.03125c-2.184e-4 -3.51e-4 0.031483 0.03159 0.03125 0.03125-2.326e-4 -3.42e-4 0.031496 0.03158 0.03125 0.03125-2.464e-4 -3.32e-4 2.598e-4 0.03157 0 0.03125-2.598e-4 -3.22e-4 0.031523 0.03156 0.03125 0.03125-2.728e-4 -3.11e-4 0.031535 0.03155 0.03125 0.03125-2.853e-4 -3e-4 0.031547 0.03154 0.03125 0.03125-2.973e-4 -2.88e-4 0.031559 0.03152 0.03125 0.03125-3.089e-4 -2.75e-4 0.03157 0.03151 0.03125 0.03125-3.199e-4 -2.62e-4 0.03158 0.0315 0.03125 0.03125-3.304e-4 -2.49e-4 0.03159 2.35e-4 0.03125 0-3.403e-4 -2.35e-4 0.0316 0.03147 0.03125 0.03125-3.496e-4 -2.21e-4 0.062858 0.03146 0.0625 0.03125-3.584e-4 -2.07e-4 0.031617 0.03144 0.03125 0.03125-3.666e-4 -1.92e-4 0.031624 1.77e-4 0.03125 0-3.741e-4 -1.77e-4 0.031631 0.03141 0.03125 0.03125-3.81e-4 -1.61e-4 0.031637 1.45e-4 0.03125 0-3.873e-4 -1.45e-4 0.062893 0.03138 0.0625 0.03125-3.929e-4 -1.29e-4 0.031648 1.13e-4 0.03125 0-3.979e-4 -1.13e-4 0.031652 9.7e-5 0.03125 0-4.022e-4 -9.7e-5 0.062906 0.03133 0.0625 0.03125a0.53259 0.53259 0 0 0 0.03125 0c2.3851 0.25921 4.1192-0.76032 5.1562-1.6875 0.51761 0.07929 1.0428 0.125 1.5938 0.125 4.88 0 9.0312-3.3 9.0312-7.5938 0-4.294-4.1559-7.5625-9.0312-7.5625zm0.21875 4.0312c0.13281-0.011409 0.04149-0.041622 0.09375 0-0.09833 0.10856 0.06131 0.023299-0.03125 0.03125-0.03178 0.00273-0.05881-0.028586-0.0625-0.03125z" opacity=".08"/>
  <path id="path3729" d="m11-13.5c-4.4183 0-8 2.9305-8 6.5455 0 2.3027 1.4545 4.3257 3.6515 5.4924-0.08355 0.60818-0.464 2.0969-2.2652 2.6061 2.3328 0.25353 3.8821-0.88395 4.7045-1.7424 0.61176 0.12255 1.2512 0.1894 1.9091 0.1894 4.4183 0 8-2.9305 8-6.5455s-3.5817-6.5455-8-6.5455z" opacity=".3"/>
  <path id="path3694" d="m11 6c-4.6393 0-8.5 3.0846-8.5 7.0312 0 2.3766 1.4404 4.4213 3.5625 5.6875-0.05574 0.25944-0.095431 0.54-0.3125 0.875-0.27944 0.43127-0.715 0.87185-1.5 1.0938a0.50224 0.50224 0 0 0 0.0625 0.96875c2.3546 0.2559 4.0051-0.82022 4.9375-1.7188 0.5689 0.09942 1.1456 0.15625 1.75 0.15625 4.6416 0 8.5-3.1158 8.5-7.0625 0-3.9467-3.8607-7.0312-8.5-7.0312zm0.1875 2.9688c0.21902-0.018816 0.3424 0.024356 0.46875 0.125 0.1471 0.11511 0.20606 0.19616 0.21875 0.34375 0.0123 0.14312-0.03083 0.26761-0.15625 0.40625-0.12782 0.14111-0.21504 0.20232-0.40625 0.21875-0.18123 0.01558-0.30963-0.03411-0.46875-0.15625-0.14709-0.11509-0.20606-0.19614-0.21875-0.34375-0.012563-0.14618 0.015225-0.2191 0.15625-0.375 0.13233-0.14628 0.21089-0.20195 0.40625-0.21875zm-0.78125 3.125c0.38497-0.03308 0.63705 0.03905 0.75 0.125 0.13675 0.10059 0.22942 0.22987 0.25 0.46875 1e-3 0.01181 0.0033 0.15855 0 0.34375 3.32e-4 0.1271-0.03129 0.25668-0.0625 0.40625l-0.3125 1.6875c-0.03143 0.16116-0.04581 0.34663-0.0625 0.53125-0.01394 0.1544-0.05035 0.24641-0.03125 0.46875 0.02545 0.29607 0.11359 0.61498 0.40625 0.8125-0.0907 0.01927-0.14456 0.05344-0.25 0.0625-0.35251 0.03029-0.59084-0.0479-0.75-0.15625-0.16517-0.12394-0.23025-0.20768-0.25-0.4375-8e-3 -0.09297-0.0069-0.21208 0-0.34375 0.0074-0.15298 0.01539-0.28384 0.03125-0.40625 0.0012-0.0094-0.0014-0.02178 0-0.03125l0.3125-1.6875c0.03079-0.17893 0.0472-0.34945 0.0625-0.5 0.01525-0.12475 0.04932-0.25849 0.03125-0.46875-0.02657-0.30906-0.13165-0.61673-0.375-0.8125 0.08273-0.01615 0.1649-0.05518 0.25-0.0625z" opacity=".15"/>
  <path id="path3717" d="m11 6.5c-4.4183 0-8 2.9163-8 6.5312 0 2.3027 1.4592 4.3333 3.6562 5.5-0.08355 0.60818-0.4801 2.1159-2.2812 2.625 2.3328 0.25353 3.8963-0.89153 4.7188-1.75 0.61176 0.12255 1.2483 0.1875 1.9062 0.1875 4.4183 0 8-2.9475 8-6.5625 0-3.615-3.5817-6.5312-8-6.5312zm0.15625 1.9688c0.30744-0.026412 0.57854 0.032393 0.8125 0.21875 0.23775 0.18605 0.38146 0.4303 0.40625 0.71875 0.02479 0.28847-0.07873 0.55738-0.28125 0.78125-0.19906 0.21976-0.44256 0.34859-0.75 0.375-0.30744 0.02643-0.57507-0.06775-0.8125-0.25-0.23776-0.18603-0.38146-0.43028-0.40625-0.71875-0.02479-0.28845 0.07872-0.52611 0.28125-0.75 0.20252-0.22387 0.44256-0.34857 0.75-0.375zm-0.78125 3.125c0.45166-0.03881 0.83191 0.01949 1.0938 0.21875 0.2653 0.19515 0.40742 0.49457 0.4375 0.84375 0.0062 0.07212 0.0033 0.19119 0 0.375 4.8e-4 0.18349-0.03001 0.34427-0.0625 0.5l-0.3125 1.6875c-0.02654 0.13611-0.04682 0.29534-0.0625 0.46875-0.01565 0.17341-0.03875 0.31895-0.03125 0.40625 0.01892 0.22014 0.08196 0.36627 0.1875 0.4375 0.10553 0.07121 0.28833 0.08338 0.53125 0.0625 0.11386-0.0098 0.26528-0.0434 0.40625-0.09375 0.14064-0.05415 0.21933-0.08909 0.28125-0.125l-0.0625 0.53125c-0.36304 0.18032-0.65759 0.31109-0.875 0.40625-0.21709 0.09895-0.4852 0.16206-0.78125 0.1875-0.45546 0.03914-0.82053-0.05171-1.0938-0.25-0.26975-0.20241-0.40814-0.4709-0.4375-0.8125-0.0115-0.13284-0.0072-0.26798 0-0.40625 0.00691-0.14206 0.0045-0.29057 0.03125-0.46875l0.3125-1.7188c0.02805-0.163 0.048-0.32603 0.0625-0.46875 0.01795-0.14683 0.04136-0.25733 0.03125-0.375-0.01827-0.21254-0.09303-0.3615-0.1875-0.4375-0.094473-0.07599-0.25329-0.11495-0.5-0.09375-0.12146 0.01044-0.24921 0.04471-0.375 0.09375-0.12199 0.04873-0.22434 0.11427-0.3125 0.15625l0.09375-0.53125c0.29667-0.15167 0.57038-0.29481 0.84375-0.40625 0.27304-0.11523 0.53074-0.16596 0.78125-0.1875z" opacity=".3"/>
  <path id="path3668" transform="translate(30)" d="m-19 6c-4.4183 0-8 2.9305-8 6.5455 0 2.3027 1.4545 4.3257 3.6515 5.4924-0.08354 0.60818-0.464 2.0969-2.2652 2.6061 2.3328 0.25353 3.8821-0.88395 4.7045-1.7424 0.61176 0.12255 1.2512 0.1894 1.9091 0.1894 4.4183 0 8-2.9305 8-6.5455s-3.5817-6.5455-8-6.5455z" clip-path="url(#clipPath3676)" fill="#fff" filter="url(#filter3682)" opacity=".2"/>
  <path id="path3620" d="m11 6c-4.4183 0-8 2.9163-8 6.5312 0 2.3027 1.4592 4.3333 3.6562 5.5-0.08355 0.60818-0.4801 2.1159-2.2812 2.625 2.3328 0.25353 3.8963-0.89153 4.7188-1.75 0.61176 0.12255 1.2483 0.1875 1.9062 0.1875 4.4183 0 8-2.9475 8-6.5625s-3.5817-6.5312-8-6.5312zm0.15625 1.9375c0.30744-0.026412 0.57854 0.063643 0.8125 0.25 0.23775 0.18605 0.38146 0.4303 0.40625 0.71875 0.02479 0.28847-0.07873 0.52613-0.28125 0.75-0.19906 0.21976-0.44256 0.34859-0.75 0.375-0.30744 0.02643-0.57507-0.036499-0.8125-0.21875-0.23776-0.18603-0.38146-0.43028-0.40625-0.71875-0.02479-0.28845 0.07872-0.55736 0.28125-0.78125 0.20252-0.22387 0.44256-0.34857 0.75-0.375zm-0.78125 3.125c0.45166-0.03881 0.83191 0.05074 1.0938 0.25 0.2653 0.19515 0.40742 0.46332 0.4375 0.8125 0.0062 0.07212 0.0033 0.19119 0 0.375 4.8e-4 0.18349-0.03001 0.37552-0.0625 0.53125l-0.3125 1.6875c-0.02654 0.13611-0.04682 0.29534-0.0625 0.46875-0.01565 0.17341-0.03875 0.2877-0.03125 0.375 0.01892 0.22014 0.08196 0.36627 0.1875 0.4375 0.10553 0.07121 0.28833 0.11463 0.53125 0.09375 0.11386-0.0098 0.26528-0.0434 0.40625-0.09375 0.14064-0.05415 0.21933-0.08909 0.28125-0.125l-0.0625 0.5c-0.36304 0.18032-0.65759 0.31109-0.875 0.40625-0.21709 0.09895-0.4852 0.16206-0.78125 0.1875-0.45546 0.03914-0.82053-0.02046-1.0938-0.21875-0.26975-0.20241-0.40814-0.4709-0.4375-0.8125-0.0115-0.13284-0.0072-0.26798 0-0.40625 0.00691-0.14206 0.0045-0.32182 0.03125-0.5l0.3125-1.6875c0.02805-0.163 0.048-0.32603 0.0625-0.46875 0.01795-0.14683 0.04136-0.25733 0.03125-0.375-0.01827-0.21254-0.09303-0.3615-0.1875-0.4375-0.094473-0.07599-0.25329-0.11495-0.5-0.09375-0.12146 0.01044-0.24921 0.04471-0.375 0.09375-0.12199 0.04873-0.22434 0.08302-0.3125 0.125l0.09375-0.5c0.29667-0.15167 0.57038-0.29481 0.84375-0.40625 0.27304-0.11523 0.53074-0.19722 0.78125-0.21875z" fill="url(#linearGradient3856)"/>
  <path id="path3725" d="m11-14c-4.4183 0-8 2.9305-8 6.5455 0 2.3027 1.4545 4.3257 3.6515 5.4924-0.08355 0.60818-0.464 2.0969-2.2652 2.6061 2.3328 0.25353 3.8821-0.88395 4.7045-1.7424 0.61176 0.12255 1.2512 0.1894 1.9091 0.1894 4.4183 0 8-2.9305 8-6.5455s-3.5817-6.5455-8-6.5455z" fill="url(#linearGradient3727)"/>
  <path id="path3739" d="m11 6c-4.4183 0-8 2.9163-8 6.5312 0 0.11741 0.023758 0.22783 0.03125 0.34375 0.40968-3.299 3.8266-5.875 7.9688-5.875 4.1421 0 7.5591 2.576 7.9688 5.875 0.007612-0.11707 0.03125-0.22516 0.03125-0.34375 0-3.615-3.5817-6.5312-8-6.5312zm1.2188 3.4688c-0.04024 0.064784-0.06901 0.12561-0.125 0.1875-0.19906 0.21976-0.44256 0.34859-0.75 0.375-0.30744 0.02643-0.57507-0.036499-0.8125-0.21875-0.1064-0.083252-0.1835-0.17593-0.25-0.28125-0.10123 0.17595-0.17385 0.35774-0.15625 0.5625 0.02479 0.28847 0.16849 0.53272 0.40625 0.71875 0.23743 0.18225 0.50506 0.24518 0.8125 0.21875 0.30744-0.02641 0.55094-0.15524 0.75-0.375 0.20252-0.22387 0.30604-0.46153 0.28125-0.75-0.0137-0.15937-0.07415-0.30748-0.15625-0.4375zm-2.3125 2.6875c-0.10144 0.03304-0.20694 0.08045-0.3125 0.125-0.27337 0.11144-0.54708 0.25458-0.84375 0.40625l-0.09375 0.5c0.08816-0.04198 0.19051-0.07627 0.3125-0.125 0.12579-0.04904 0.25354-0.08331 0.375-0.09375 0.24671-0.0212 0.40553 0.01776 0.5 0.09375 0.041475 0.03337 0.094235 0.0643 0.125 0.125 0.015202-0.10668 0.021626-0.21777 0.03125-0.3125 0.01795-0.14683 0.04136-0.25733 0.03125-0.375-0.01314-0.15293-0.067065-0.26015-0.125-0.34375zm1.9375 0.78125c-0.0054 0.02907 0.0057 0.06664 0 0.09375l-0.3125 1.6875c-0.02654 0.13611-0.04682 0.29534-0.0625 0.46875-0.01565 0.17341-0.03875 0.2877-0.03125 0.375 0.0095 0.11007 0.03118 0.2083 0.0625 0.28125 0.0063-0.04006 0.02406-0.08815 0.03125-0.125l0.3125-1.6875c0.03249-0.15573 0.06298-0.34776 0.0625-0.53125 0.0033-0.18381 0.0062-0.30288 0-0.375-0.0061-0.071-0.04703-0.12314-0.0625-0.1875zm-2.2188 3.125c-0.02182 0.16713-0.02477 0.33553-0.03125 0.46875-0.0072 0.13827-0.0115 0.27341 0 0.40625 0.02936 0.3416 0.16775 0.61009 0.4375 0.8125 0.27322 0.19829 0.63828 0.25789 1.0938 0.21875 0.29605-0.02544 0.56416-0.08855 0.78125-0.1875 0.21741-0.09516 0.51196-0.22593 0.875-0.40625l0.0625-0.5c-0.06192 0.03591-0.14061 0.07085-0.28125 0.125-0.14097 0.05035-0.29239 0.08395-0.40625 0.09375-0.24292 0.02088-0.42572-0.02254-0.53125-0.09375-0.03475-0.02345-0.06827-0.05409-0.09375-0.09375-0.13117 0.03133-0.25822 0.04978-0.40625 0.0625-0.45546 0.039143-0.82053-0.020464-1.0938-0.21875-0.23393-0.17553-0.35534-0.40799-0.40625-0.6875zm-3.2188 2.8125c-0.27687 0.66304-0.83493 1.4431-2.0312 1.7812 0.58321 0.06338 1.1063 0.05386 1.5938-0.03125 0.47843-0.59018 0.63876-1.239 0.6875-1.5938-0.08885-0.04718-0.16361-0.10628-0.25-0.15625z" fill="#fff"/>
 </g>
 <g id="layer2" display="none">
  <rect id="rect2410" x="3" y="3" width="16" height="16" rx="2" ry="2" clip-path="url(#clipPath2849)" display="inline" fill="#fff" filter="url(#filter3194)" opacity=".15"/>
 </g>
</svg>
