<?xml version="1.0" encoding="UTF-8"?>
<!-- Created with Inkscape (http://www.inkscape.org/) -->
<svg id="svg2" width="22" height="22" version="1.0" xmlns="http://www.w3.org/2000/svg" xmlns:cc="http://creativecommons.org/ns#" xmlns:dc="http://purl.org/dc/elements/1.1/" xmlns:rdf="http://www.w3.org/1999/02/22-rdf-syntax-ns#" xmlns:xlink="http://www.w3.org/1999/xlink">
 <defs id="defs4">
  <linearGradient id="linearGradient3335" x1="11.375" x2="11.375" y1="22" y2="-9.8173" gradientUnits="userSpaceOnUse">
   <stop id="stop3330" offset="0"/>
   <stop id="stop3333" stop-opacity="0" offset="1"/>
  </linearGradient>
  <filter id="filter3194" x="-.18" y="-.18" width="1.36" height="1.36" color-interpolation-filters="sRGB">
   <feGaussianBlur id="feGaussianBlur3196" stdDeviation="1.2"/>
  </filter>
  <clipPath id="clipPath2849">
   <rect id="rect2851" x="1" y="1" width="20" height="20" rx="2" ry="2" fill="#fff" fill-rule="evenodd"/>
  </clipPath>
  <linearGradient id="linearGradient3641" x1="11" x2="11" y1="14" y2="1" gradientUnits="userSpaceOnUse">
   <stop id="stop3637" stop-color="#e6e6e6" offset="0"/>
   <stop id="stop3639" stop-color="#f0f0f0" offset="1"/>
  </linearGradient>
  <linearGradient id="linearGradient3649" x1="11" x2="11" y1="21" y2="10" gradientUnits="userSpaceOnUse">
   <stop id="stop3645" stop-color="#d2d2d2" offset="0"/>
   <stop id="stop3647" stop-color="#e1e1e1" offset="1"/>
  </linearGradient>
  <linearGradient id="linearGradient2908">
   <stop id="stop2910" stop-color="#1e1e1e" offset="0"/>
   <stop id="stop2912" stop-color="#1e1e1e" stop-opacity="0" offset="1"/>
  </linearGradient>
  <linearGradient id="linearGradient3849" x1="-3.0608" x2="-3.0608" y1="27.258" y2="7.2537" gradientTransform="translate(11.119 -6.2582)" gradientUnits="userSpaceOnUse">
   <stop id="stop3189" stop-color="#dcdcdc" offset="0"/>
   <stop id="stop3191" stop-color="#f0f0f0" offset="1"/>
  </linearGradient>
  <linearGradient id="linearGradient3851" x1="11" x2="11" y1="15" y2="4.3779" gradientUnits="userSpaceOnUse" xlink:href="#linearGradient2908"/>
  <linearGradient id="linearGradient3863" x1="11" x2="11" y1="15" y2="5" gradientTransform="matrix(1,0,0,-1,0,23)" gradientUnits="userSpaceOnUse" xlink:href="#linearGradient2908"/>
  <linearGradient id="linearGradient4025" x1="10.351" x2="10.351" y1="2.5798" y2="18.418" gradientTransform="matrix(.73406 0 0 .75716 7.9251 5.0467)" gradientUnits="userSpaceOnUse">
   <stop id="stop3292" stop-color="#a50000" offset="0"/>
   <stop id="stop3294" stop-color="#e73800" offset="1"/>
  </linearGradient>
  <linearGradient id="linearGradient4035" x1="10.351" x2="10.351" y1="2.5798" y2="18.418" gradientTransform="matrix(.73406 0 0 .75716 7.9251 7.0467)" gradientUnits="userSpaceOnUse">
   <stop id="stop3205" stop-color="#ff4a00" offset="0"/>
   <stop id="stop3211" stop-color="#ff7e00" offset=".27245"/>
   <stop id="stop3213" stop-color="#ffd200" offset=".62385"/>
   <stop id="stop3207" stop-color="#fff3b9" offset="1"/>
  </linearGradient>
  <filter id="filter4045" x="-.17278" y="-.12344" width="1.3456" height="1.2469" color-interpolation-filters="sRGB">
   <feGaussianBlur id="feGaussianBlur4047" stdDeviation="0.4228897"/>
  </filter>
  <radialGradient id="radialGradient4075" cx="15.942" cy="14.473" r="10" gradientTransform="matrix(1.3254 -4.7274e-8 4.4754e-8 1.2548 -5.1879 -3.9065)" gradientUnits="userSpaceOnUse">
   <stop id="stop4071" stop-color="#ff2400" offset="0"/>
   <stop id="stop4073" stop-color="#ff4700" stop-opacity="0" offset="1"/>
  </radialGradient>
  <linearGradient id="linearGradient3779" x1="11.123" x2="20.991" y1="14.989" y2="14.989" gradientUnits="userSpaceOnUse">
   <stop id="stop3799" stop-color="#ff9106" offset="0"/>
   <stop id="stop3801" stop-color="#f5ab00" offset="1"/>
  </linearGradient>
  <filter id="filter3821" color-interpolation-filters="sRGB">
   <feGaussianBlur id="feGaussianBlur3823" stdDeviation="0.19735979"/>
  </filter>
  <filter id="filter3829" color-interpolation-filters="sRGB">
   <feGaussianBlur id="feGaussianBlur3831" stdDeviation="0.20324218"/>
  </filter>
  <linearGradient id="linearGradient3845" x1="11" x2="21" y1="19.5" y2="19.5" gradientUnits="userSpaceOnUse" spreadMethod="reflect">
   <stop id="stop3833" stop-color="#fff" offset="0"/>
   <stop id="stop3821" stop-color="#fff" stop-opacity=".49804" offset=".75"/>
   <stop id="stop3835" stop-color="#fff" stop-opacity="0" offset="1"/>
  </linearGradient>
  <linearGradient id="linearGradient3124" x1="10" x2="10" y1="1" y2="16" gradientUnits="userSpaceOnUse">
   <stop id="stop3825" stop-color="#fff" offset="0"/>
   <stop id="stop3829" stop-color="#fff" stop-opacity="0" offset="1"/>
  </linearGradient>
 </defs>
 <metadata id="metadata7">
  <rdf:RDF>
   <cc:Work rdf:about="">
    <dc:format>image/svg+xml</dc:format>
    <dc:type rdf:resource="http://purl.org/dc/dcmitype/StillImage"/>
   </cc:Work>
  </rdf:RDF>
 </metadata>
 <g id="layer1">
  <g id="g3337">
   <rect id="rect3371" x=".5" y=".5" width="21" height="21.5" rx="2.5" ry="2.5" fill="url(#linearGradient3335)" opacity=".3"/>
   <rect id="rect2553" x="1" y="2" width="20" height="20" rx="2.381" ry="2.3256" opacity=".5"/>
  </g>
  <rect id="rect3173" x="1" y="1" width="20" height="20" rx="2" ry="2" fill="url(#linearGradient3849)" fill-rule="evenodd"/>
  <path id="path3633" d="m3 21c-1.108 0-2-0.892-2-2v-2l10-10 10 10v2c0 1.108-0.892 2-2 2h-16z" fill="url(#linearGradient3649)"/>
  <path id="path3627" d="m3 1c-1.108 0-2 0.892-2 2v2l10 10 10-10v-2c0-1.108-0.892-2-2-2h-16z" fill="url(#linearGradient3641)"/>
  <path id="path3651" d="m1 4.3125v1.375l9.6562 9.6562 0.34375 0.375 0.34375-0.375 9.6562-9.6562v-1.375l-10 10-10-10z" color="#000000" fill="url(#linearGradient3851)" opacity=".5" style="block-progression:tb;text-indent:0;text-transform:none"/>
  <path id="path3815" d="m6.8125 11.5-5.8125 5.8125v1.375l6.5-6.5-0.6875-0.6875zm8.375 0-0.6875 0.6875 6.5 6.5v-1.375l-5.8125-5.8125z" color="#000000" fill="url(#linearGradient3863)" opacity=".5" style="block-progression:tb;text-indent:0;text-transform:none"/>
  <path id="rect3050" d="m3 1c-1.108 0-2 0.892-2 2v16c0 1.108 0.892 2 2 2h16c1.108 0 2-0.892 2-2v-16c0-1.108-0.892-2-2-2h-16zm0 1.0312h16c0.5497 0 0.96875 0.41905 0.96875 0.96875v16c0 0.5497-0.41905 0.96875-0.96875 0.96875h-16c-0.5497 0-0.96875-0.41905-0.96875-0.96875v-16c0-0.5497 0.41905-0.96875 0.96875-0.96875z" fill="url(#linearGradient3124)" fill-rule="evenodd" opacity=".6"/>
  <path id="path3235" d="m3 21c-1.108 0-2-0.892-2-2v-1c0 1.108 0.892 2 2 2h16c1.108 0 2-0.892 2-2v1c0 1.108-0.892 2-2 2h-16z" fill="url(#linearGradient3845)" fill-rule="evenodd" opacity=".35"/>
 </g>
 <g id="layer2" display="none">
  <rect id="rect2410" x="3" y="3" width="16" height="16" rx="2" ry="2" clip-path="url(#clipPath2849)" display="inline" fill="#fff" filter="url(#filter3194)" opacity=".15"/>
 </g>
 <g id="layer3">
  <path id="path3825" d="m16.094 7.5001c-3.0075 2.6085-4.3809 5.1852-4.0625 8.1875 0.25057 2.3625 1.2042 3.3106 2.375 3.8125 0.54948 0.19859 1.1418 0.3125 1.7812 0.3125 0.71716 0.04956 1.3793-0.19663 2.0312-0.4375 2.1595-0.90156 2.5709-4.751-0.03125-8 0.41528 2.3833-0.10835 3.4732-1.0312 4.1562 0.96973-4.3898-2.4552-3.7172-1.0625-8.0313z" fill-rule="evenodd" filter="url(#filter3829)" opacity=".6"/>
  <path id="path3813" transform="matrix(0 -1.0134 1.0134 0 1.811 51.772)" d="m20.991 14.989a4.934 4.934 0 1 1-9.868 0 4.934 4.934 0 1 1 9.868 0z" filter="url(#filter3821)" opacity=".6"/>
  <rect id="rect4065" x="1" y="1" width="20" height="20" rx="2" ry="2" fill="url(#radialGradient4075)" fill-rule="evenodd" opacity=".2"/>
  <path id="path2421" d="m16.094 7c-3.0075 2.6085-4.3809 5.1852-4.0625 8.1875 0.25057 2.3625 1.2042 3.3106 2.375 3.8125 0.54948 0.19859 1.1418 0.3125 1.7812 0.3125 0.71716 0.04956 1.3793-0.19663 2.0312-0.4375 2.1595-0.90156 2.5709-4.751-0.03125-8 0.41528 2.3833-0.10835 3.4732-1.0312 4.1562 0.96973-4.3898-2.4552-3.7172-1.0625-8.0312z" fill="url(#linearGradient4025)" fill-rule="evenodd"/>
  <path id="path4033" transform="translate(0 -1.3048)" d="m14.906 12.031c-1.2496 1.6283-2.0041 3.2251-1.8125 5.0312 0.22036 2.0777 0.79464 2.5486 1.6875 2.9375 0.44189 0.15971 0.89319 0.25 1.4062 0.25a1.0645 1.0645 0 0 1 0.0625 0c0.43035 0.02974 0.94042-0.13362 1.5938-0.375 0.58717-0.26635 1.0563-0.9886 1.0938-2.1562 0.01133-0.35304-0.10743-0.78425-0.1875-1.1875-0.28495 0.51024-0.55679 1.0389-0.96875 1.3438a1.0645 1.0645 0 0 1-1.6562-1.0625c0.4304-1.9484 0.01221-2.3388-0.5625-3.2812-0.23023-0.37755-0.47913-0.91-0.65625-1.5z" fill="url(#linearGradient4035)" fill-rule="evenodd" filter="url(#filter4045)" opacity=".8"/>
  <path id="path3765" transform="matrix(0 -1.0134 1.0134 0 1.811 51.272)" d="m20.991 14.989a4.934 4.934 0 1 1-9.868 0 4.934 4.934 0 1 1 9.868 0z" fill="url(#linearGradient3779)"/>
  <path id="path3781" transform="translate(1,18)" d="m17 17a1 1 0 1 1-2 0 1 1 0 1 1 2 0z"/>
  <path id="path3783" d="m17 31c-0.6906 0-1.3812 0.17398-2 0.53125l1.25 2.1562c0.21843-0.1242 0.48076-0.1875 0.75-0.1875s0.53157 0.0633 0.75 0.1875l1.25-2.1562c-0.6188-0.35727-1.3094-0.53125-2-0.53125zm-4 4c0 1.4291 0.7624 2.7542 2 3.4688l1.25-2.1562c-0.45367-0.25796-0.75-0.75331-0.75-1.3125h-2.5zm5.5 0c0 0.55919-0.29633 1.0545-0.75 1.3125l1.25 2.1562c1.2376-0.71453 2-2.0397 2-3.4688h-2.5z"/>
  <path id="path3803" d="m17 30c-2.7614 0-5 2.2386-5 5 0 0.17259 0.01418 0.33192 0.03125 0.5 0.25605-2.5213 2.3799-4.5 4.9688-4.5s4.7127 1.9787 4.9688 4.5c0.01707-0.16808 0.03125-0.32741 0.03125-0.5 0-2.7614-2.2386-5-5-5z" fill="#fff" opacity=".4"/>
 </g>
</svg>
