<?xml version="1.0" encoding="UTF-8"?>
<!-- Created with Inkscape (http://www.inkscape.org/) -->
<svg id="svg2" width="22" height="22" version="1.0" xmlns="http://www.w3.org/2000/svg" xmlns:cc="http://creativecommons.org/ns#" xmlns:dc="http://purl.org/dc/elements/1.1/" xmlns:rdf="http://www.w3.org/1999/02/22-rdf-syntax-ns#" xmlns:xlink="http://www.w3.org/1999/xlink">
 <defs id="defs4">
  <linearGradient id="linearGradient3335" x1="11.375" x2="11.375" y1="22" y2="-9.8173" gradientUnits="userSpaceOnUse">
   <stop id="stop3330" offset="0"/>
   <stop id="stop3333" stop-opacity="0" offset="1"/>
  </linearGradient>
  <filter id="filter3194" x="-.18" y="-.18" width="1.36" height="1.36" color-interpolation-filters="sRGB">
   <feGaussianBlur id="feGaussianBlur3196" stdDeviation="1.2"/>
  </filter>
  <clipPath id="clipPath2849">
   <rect id="rect2851" x="1" y="1" width="20" height="20" rx="2" ry="2" fill="#fff" fill-rule="evenodd"/>
  </clipPath>
  <linearGradient id="linearGradient3641" x1="11" x2="11" y1="14" y2="1" gradientUnits="userSpaceOnUse">
   <stop id="stop3637" stop-color="#e6e6e6" offset="0"/>
   <stop id="stop3639" stop-color="#f0f0f0" offset="1"/>
  </linearGradient>
  <linearGradient id="linearGradient3649" x1="11" x2="11" y1="21" y2="10" gradientUnits="userSpaceOnUse">
   <stop id="stop3645" stop-color="#d2d2d2" offset="0"/>
   <stop id="stop3647" stop-color="#e1e1e1" offset="1"/>
  </linearGradient>
  <linearGradient id="linearGradient2908">
   <stop id="stop2910" stop-color="#1e1e1e" offset="0"/>
   <stop id="stop2912" stop-color="#1e1e1e" stop-opacity="0" offset="1"/>
  </linearGradient>
  <linearGradient id="linearGradient3849" x1="-3.0608" x2="-3.0608" y1="27.258" y2="7.2537" gradientTransform="translate(11.119 -6.2582)" gradientUnits="userSpaceOnUse">
   <stop id="stop3189" stop-color="#dcdcdc" offset="0"/>
   <stop id="stop3191" stop-color="#f0f0f0" offset="1"/>
  </linearGradient>
  <linearGradient id="linearGradient3851" x1="11" x2="11" y1="15" y2="4.3779" gradientUnits="userSpaceOnUse" xlink:href="#linearGradient2908"/>
  <linearGradient id="linearGradient3863" x1="11" x2="11" y1="15" y2="5" gradientTransform="matrix(1,0,0,-1,0,23)" gradientUnits="userSpaceOnUse" xlink:href="#linearGradient2908"/>
  <linearGradient id="linearGradient3845" x1="11" x2="21" y1="19.5" y2="19.5" gradientUnits="userSpaceOnUse" spreadMethod="reflect">
   <stop id="stop3833" stop-color="#fff" offset="0"/>
   <stop id="stop3821" stop-color="#fff" stop-opacity=".49804" offset=".75"/>
   <stop id="stop3835" stop-color="#fff" stop-opacity="0" offset="1"/>
  </linearGradient>
  <linearGradient id="linearGradient3124" x1="10" x2="10" y1="1" y2="16" gradientUnits="userSpaceOnUse">
   <stop id="stop3825" stop-color="#fff" offset="0"/>
   <stop id="stop3829" stop-color="#fff" stop-opacity="0" offset="1"/>
  </linearGradient>
  <linearGradient id="linearGradient3756" x1="10.272" x2="10.272" y1="5.63" y2="24.281" gradientTransform="matrix(.85714 0 0 .85714 25.571 4.7143)" gradientUnits="userSpaceOnUse" xlink:href="#linearGradient3690"/>
  <linearGradient id="linearGradient3690">
   <stop id="stop3692" stop-color="#fff" offset="0"/>
   <stop id="stop3694" stop-color="#fff" stop-opacity="0" offset="1"/>
  </linearGradient>
  <linearGradient id="linearGradient3124-8" x1="11.087" x2="10.541" y1="15.373" y2="4.9937" gradientUnits="userSpaceOnUse">
   <stop id="stop3660" stop-color="#ff9604" offset="0"/>
   <stop id="stop3662" stop-color="#fff367" offset="1"/>
  </linearGradient>
  <linearGradient id="linearGradient4016" x1="9.6466" x2="10.03" y1="6.4377" y2="13.711" gradientTransform="matrix(1.1189 .058964 -.058943 1.1191 3.6046 3.3629)" gradientUnits="userSpaceOnUse" xlink:href="#linearGradient3690"/>
 </defs>
 <metadata id="metadata7">
  <rdf:RDF>
   <cc:Work rdf:about="">
    <dc:format>image/svg+xml</dc:format>
    <dc:type rdf:resource="http://purl.org/dc/dcmitype/StillImage"/>
    <dc:title/>
   </cc:Work>
  </rdf:RDF>
 </metadata>
 <g id="layer1">
  <g id="g3337">
   <rect id="rect3371" x=".5" y=".5" width="21" height="21.5" rx="2.5" ry="2.5" fill="url(#linearGradient3335)" opacity=".3"/>
   <rect id="rect2553" x="1" y="2" width="20" height="20" rx="2.381" ry="2.3256" opacity=".5"/>
  </g>
  <rect id="rect3173" x="1" y="1" width="20" height="20" rx="2" ry="2" fill="url(#linearGradient3849)" fill-rule="evenodd"/>
  <path id="path3633" d="m3 21c-1.108 0-2-0.892-2-2v-2l10-10 10 10v2c0 1.108-0.892 2-2 2h-16z" fill="url(#linearGradient3649)"/>
  <path id="path3627" d="m3 1c-1.108 0-2 0.892-2 2v2l10 10 10-10v-2c0-1.108-0.892-2-2-2h-16z" fill="url(#linearGradient3641)"/>
  <path id="path3651" d="m1 4.3125v1.375l9.6562 9.6562 0.34375 0.375 0.34375-0.375 9.6562-9.6562v-1.375l-10 10-10-10z" color="#000000" fill="url(#linearGradient3851)" opacity=".5" style="block-progression:tb;text-indent:0;text-transform:none"/>
  <path id="path3815" d="m6.8125 11.5-5.8125 5.8125v1.375l6.5-6.5-0.6875-0.6875zm8.375 0-0.6875 0.6875 6.5 6.5v-1.375l-5.8125-5.8125z" color="#000000" fill="url(#linearGradient3863)" opacity=".5" style="block-progression:tb;text-indent:0;text-transform:none"/>
  <path id="rect3050" d="m3 1c-1.108 0-2 0.892-2 2v16c0 1.108 0.892 2 2 2h16c1.108 0 2-0.892 2-2v-16c0-1.108-0.892-2-2-2h-16zm0 1.0312h16c0.5497 0 0.96875 0.41905 0.96875 0.96875v16c0 0.5497-0.41905 0.96875-0.96875 0.96875h-16c-0.5497 0-0.96875-0.41905-0.96875-0.96875v-16c0-0.5497 0.41905-0.96875 0.96875-0.96875z" fill="url(#linearGradient3124)" fill-rule="evenodd" opacity=".6"/>
  <path id="path3235" d="m3 21c-1.108 0-2-0.892-2-2v-1c0 1.108 0.892 2 2 2h16c1.108 0 2-0.892 2-2v1c0 1.108-0.892 2-2 2h-16z" fill="url(#linearGradient3845)" fill-rule="evenodd" opacity=".35"/>
  <path id="path4001" d="m14.793 9.1167c-0.32028 0.078829-0.59049 0.31482-0.69674 0.62966-0.54626 1.035-1.0925 2.0699-1.6388 3.1049-1.2037 0.21438-2.4061 0.45058-3.6107 0.65139-0.24603 0.05207-0.50435 0.18683-0.65333 0.42147-0.10608 0.18144-0.2257 0.4349-0.13989 0.65895 0.013543 0.25212 0.15845 0.47186 0.36627 0.62568 0.80353 0.85724 1.6071 1.7145 2.4106 2.5717-0.15535 1.2662-0.35196 2.5286-0.4805 3.7973 0.05981 0.37044 0.35298 0.72527 0.72872 0.80993 0.52098 0.10936 0.93594-0.25547 1.3966-0.44748 0.83804-0.41339 1.6761-0.82679 2.5141-1.2402 1.126 0.55791 2.2627 1.1501 3.3824 1.6862 0.21757 0.06431 0.51213 0.10042 0.703-0.03309 0.22846-0.06914 0.37206-0.21475 0.4785-0.43069 0.19137-0.3594 0.0556-0.83505 0.0041-1.24-0.14915-0.99723-0.29831-1.9945-0.44746-2.9917 0.85088-0.84359 1.7018-1.6872 2.5526-2.5308 0.12516-0.11851 0.26172-0.36073 0.31104-0.57979 0.02124-0.25331-0.06709-0.46785-0.1748-0.67553-0.1372-0.13366-0.2787-0.29972-0.50786-0.3424-0.6266-0.15046-1.3146-0.22858-1.9651-0.35136-0.59575-0.10076-1.1915-0.20152-1.7873-0.30228-0.59562-1.127-1.1857-2.2805-1.7849-3.3906-0.11647-0.18987-0.36345-0.34006-0.61096-0.38289-0.11655-0.0061421-0.2331-0.012284-0.34966-0.018426z" opacity=".08"/>
  <path id="path3997" transform="matrix(1.1189 .058964 -.058943 1.1191 3.6046 3.8629)" d="m10.344 4.5938a0.40636 0.40636 0 0 0-0.28125 0.25l-1.4375 3.125-3.4062 0.8125a0.40636 0.40636 0 0 0-0.1875 0.71875l2.5312 2.375-0.28125 3.4375a0.40636 0.40636 0 0 0 0.59375 0.375l3.0312-1.6875 3.2188 1.375a0.40636 0.40636 0 0 0 0.5625-0.46875l-0.6875-3.4062 2.3125-2.5938a0.40636 0.40636 0 0 0-0.25-0.6875l-3.4688-0.40625-1.8125-3.0312a0.40636 0.40636 0 0 0-0.4375-0.1875z" opacity=".1"/>
  <path id="path3222" transform="matrix(1.1189 .058964 -.058943 1.1191 3.6046 3.8629)" d="m5.3053 9.174 3.5961-0.8181 1.5479-3.3474 1.8893 3.1673 3.6619 0.43772-2.4284 2.7756 0.7153 3.618-3.3902-1.4519-3.2198 1.7983 0.3332-3.6729z" opacity=".3"/>
  <path id="path3748" transform="matrix(1.1189 .058964 -.058943 1.1191 3.6046 3.3629)" d="m5.3053 9.174 3.5961-0.8181 1.5479-3.3474 1.8893 3.1673 3.6619 0.43772-2.4284 2.7756 0.7153 3.618-3.3902-1.4519-3.2198 1.7983 0.3332-3.6729z" fill="url(#linearGradient3124-8)"/>
  <path id="path3750" d="m35 9.5893-1.9286 3.6429-4.0714 0.72321 0.72321 0.72322 3.7498-0.64283 1.527-3.3216 1.527 3.2948 3.7498 0.6696 0.72321-0.72322-4.0714-0.72321-1.9286-3.6429zm-3.1086 7.381-0.61465 4.0297 0.73968-0.37538-0.12503-3.6543zm6.2093-0.05679-0.14396 3.7111 0.73968 0.37538-0.59572-4.0865z" fill="url(#linearGradient3756)" opacity=".6"/>
  <path id="path3752" d="m31.893 16.982-0.61607 4.0179 0.375-0.1875v0.02679l3.3482-1.6607 3.3482 1.6607v-0.02679l0.375 0.1875-0.61607-4.0179-0.10714 3-3-1.4613-3 1.4613-0.10714-3z" fill="#f60" opacity=".5"/>
  <path id="path3957" d="m15 9.5938-1.9375 3.6562-4.0625 0.6875 2.875 2.9688-0.59375 4.0938 3.7188-1.8125 3.7188 1.8125-0.59375-4.0938 2.875-2.9688-4.0625-0.6875-1.9375-3.6562zm0 1.0312 1.5 2.8438a0.49993 0.49983 1.5484 0 0 0.34375 0.28125l3.125 0.53125-2.2188 2.2812a0.49993 0.49983 1.5484 0 0-0.125 0.40625l0.46875 3.1562-2.8438-1.375a0.49993 0.49983 1.5484 0 0-0.46875 0l-2.875 1.4062 0.4375-3.1875a0.49993 0.49983 1.5484 0 0-0.09375-0.375l-2.25-2.3125 3.1562-0.5625a0.49993 0.49983 1.5484 0 0 0.375-0.25l1.4688-2.8438z" fill="#f60" opacity=".5"/>
  <path id="path3998" d="m15 10.625-1.4688 2.8438a0.49993 0.49983 0.027024 0 1-0.375 0.25l-3.1562 0.5625 2.25 2.3125a0.49993 0.49983 0.027024 0 1 0.09375 0.375l-0.4375 3.1875 2.875-1.4062a0.49993 0.49983 0.027024 0 1 0.46875 0l2.8438 1.375-0.46875-3.1562a0.49993 0.49983 0.027024 0 1 0.125-0.40625l2.2188-2.2812-3.125-0.53125a0.49993 0.49983 0.027024 0 1-0.34375-0.28125l-1.5-2.8438zm0 0.78125 1.1875 2.2188a0.85188 0.85171 0.027024 0 0 0.59375 0.46875l2.4688 0.4375-1.75 1.7812a0.85188 0.85171 0.027024 0 0-0.25 0.71875l0.375 2.5-2.2188-1.0938a0.85188 0.85171 0.027024 0 0-0.78125 0l-2.25 1.0938 0.3125-2.5a0.85188 0.85171 0.027024 0 0-0.1875-0.71875l-1.7188-1.8125 2.4688-0.4375a0.85188 0.85171 0.027024 0 0 0.59375-0.4375l1.1562-2.2188z" fill="url(#linearGradient4016)"/>
 </g>
 <g id="layer2" display="none">
  <rect id="rect2410" x="3" y="3" width="16" height="16" rx="2" ry="2" clip-path="url(#clipPath2849)" display="inline" fill="#fff" filter="url(#filter3194)" opacity=".15"/>
 </g>
</svg>
