<?xml version="1.0" encoding="UTF-8"?>
<!-- Created with Inkscape (http://www.inkscape.org/) -->
<svg id="svg2" width="22" height="22" version="1.0" xmlns="http://www.w3.org/2000/svg" xmlns:cc="http://creativecommons.org/ns#" xmlns:dc="http://purl.org/dc/elements/1.1/" xmlns:rdf="http://www.w3.org/1999/02/22-rdf-syntax-ns#" xmlns:xlink="http://www.w3.org/1999/xlink">
 <defs id="defs4">
  <linearGradient id="linearGradient3181" x1="-3.0608" x2="-3.0608" y1="27.258" y2="7.2537" gradientTransform="translate(11.119 -6.2582)" gradientUnits="userSpaceOnUse">
   <stop id="stop3189" stop-color="#dcdcdc" offset="0"/>
   <stop id="stop3191" stop-color="#f5f5f5" offset="1"/>
  </linearGradient>
  <filter id="filter8716" x="-.26984" y="-.54066" width="1.5397" height="2.0813">
   <feGaussianBlur id="feGaussianBlur8718" stdDeviation="2.0210388"/>
  </filter>
  <linearGradient id="linearGradient7198" x1="11" x2="11" y1="22.244" y2="-11.678" gradientUnits="userSpaceOnUse">
   <stop id="stop7194" offset="0"/>
   <stop id="stop7196" stop-opacity="0" offset="1"/>
  </linearGradient>
  <linearGradient id="linearGradient3190" x1="11" x2="11" y1="22" y2=".98894" gradientUnits="userSpaceOnUse">
   <stop id="stop3186" offset="0"/>
   <stop id="stop3188" stop-opacity="0" offset="1"/>
  </linearGradient>
  <linearGradient id="linearGradient3799" x1="10" x2="10" y1="19" y2="3" gradientUnits="userSpaceOnUse">
   <stop id="stop3823" stop-color="#739cd9" offset="0"/>
   <stop id="stop3825" stop-color="#9cb8e4" offset="1"/>
  </linearGradient>
  <linearGradient id="linearGradient3967" x1="-3.0608" x2="-3.0608" y1="27.258" y2="13.258" gradientTransform="matrix(1 0 0 -1 11.119 28.258)" gradientUnits="userSpaceOnUse">
   <stop id="stop3825-3" stop-color="#fff" offset="0"/>
   <stop id="stop3829" stop-color="#fff" stop-opacity="0" offset="1"/>
  </linearGradient>
  <linearGradient id="linearGradient3986" x1="11" x2="21.014" y1="19.653" y2="19.653" gradientUnits="userSpaceOnUse" spreadMethod="reflect">
   <stop id="stop3833" stop-color="#fff" offset="0"/>
   <stop id="stop3821" stop-color="#fff" stop-opacity=".49804" offset=".75"/>
   <stop id="stop3835" stop-color="#fff" stop-opacity="0" offset="1"/>
  </linearGradient>
 </defs>
 <metadata id="metadata7">
  <rdf:RDF>
   <cc:Work rdf:about="">
    <dc:format>image/svg+xml</dc:format>
    <dc:type rdf:resource="http://purl.org/dc/dcmitype/StillImage"/>
   </cc:Work>
  </rdf:RDF>
 </metadata>
 <g id="layer1">
  <path id="rect3271" d="m3 0.5c-1.385 0-2.5 1.115-2.5 2.5v1.6562c0.14987-0.089652 0.31278-0.15625 0.5-0.15625 0.552-2e-7 1 0.448 1 1 0 0.552-0.448 1-1 1-0.18722 1e-7 -0.35013-0.066598-0.5-0.15625v1.3125c0.14987-0.089652 0.31278-0.15625 0.5-0.15625 0.552-2e-7 1 0.448 1 1 0 0.552-0.448 1-1 1-0.18722-1e-7 -0.35013-0.066598-0.5-0.15625v1.3125c0.14987-0.089652 0.31278-0.15625 0.5-0.15625 0.552 0 1 0.448 1 1s-0.448 1-1 1c-0.18722 0-0.35013-0.0666-0.5-0.15625v1.3125c0.14987-0.089652 0.31278-0.15625 0.5-0.15625 0.552 0 1 0.448 1 1s-0.448 1-1 1c-0.18722 0-0.35013-0.0666-0.5-0.15625v1.3125c0.14987-0.089652 0.31278-0.15625 0.5-0.15625 0.552 0 1 0.448 1 1s-0.448 1-1 1c-0.18722 0-0.35013-0.0666-0.5-0.15625v1.1562c0 1.385 1.115 2.5 2.5 2.5h1.1562c-0.089652-0.14987-0.15625-0.31278-0.15625-0.5 0-0.552 0.448-1 1-1s1 0.448 1 1c0 0.18722-0.066598 0.35013-0.15625 0.5h1.3125c-0.089652-0.14987-0.15625-0.31278-0.15625-0.5 0-0.552 0.448-1 1-1s1 0.448 1 1c0 0.18722-0.066598 0.35013-0.15625 0.5h1.3125c-0.089652-0.14987-0.15625-0.31278-0.15625-0.5 0-0.552 0.448-1 1-1s1 0.448 1 1c0 0.18722-0.0666 0.35013-0.15625 0.5h1.3125c-0.089652-0.14987-0.15625-0.31278-0.15625-0.5 0-0.552 0.448-1 1-1s1 0.448 1 1c0 0.18722-0.0666 0.35013-0.15625 0.5h1.3125c-0.089652-0.14987-0.15625-0.31278-0.15625-0.5 0-0.552 0.448-1 1-1s1 0.448 1 1c0 0.18722-0.0666 0.35013-0.15625 0.5h1.1562c1.385 0 2.5-1.115 2.5-2.5v-1.1562c-0.14987 0.089652-0.31278 0.15625-0.5 0.15625-0.552 0-1-0.448-1-1s0.448-1 1-1c0.18722 0 0.35013 0.0666 0.5 0.15625v-1.3125c-0.14987 0.089652-0.31278 0.15625-0.5 0.15625-0.552 0-1-0.448-1-1s0.448-1 1-1c0.18722 0 0.35013 0.0666 0.5 0.15625v-1.3125c-0.14987 0.089652-0.31278 0.15625-0.5 0.15625-0.552 0-1-0.448-1-1s0.448-1 1-1c0.18722 0 0.35013 0.0666 0.5 0.15625v-1.3125c-0.14987 0.089652-0.31278 0.15625-0.5 0.15625-0.552-3e-7 -1-0.448-1-1 0-0.552 0.448-1 1-1 0.18722-1e-7 0.35013 0.066598 0.5 0.15625v-1.3125c-0.14987 0.089652-0.31278 0.15625-0.5 0.15625-0.552 2e-7 -1-0.448-1-1 0-0.552 0.448-1 1-1 0.18722-1e-7 0.35013 0.066598 0.5 0.15625v-1.6562c0-1.385-1.115-2.5-2.5-2.5h-1.1562c0.089652 0.14987 0.15625 0.31278 0.15625 0.5 0 0.552-0.448 1-1 1s-1-0.448-1-1c0-0.18722 0.0666-0.35013 0.15625-0.5h-1.3125c0.089652 0.14987 0.15625 0.31278 0.15625 0.5 0 0.552-0.448 1-1 1s-1-0.448-1-1c0-0.18722 0.0666-0.35013 0.15625-0.5h-1.3125c0.089652 0.14987 0.15625 0.31278 0.15625 0.5 0 0.552-0.448 1-1 1s-1-0.448-1-1c0-0.18722 0.0666-0.35013 0.15625-0.5h-1.3125c0.089652 0.14987 0.15625 0.31278 0.15625 0.5 0 0.552-0.448 1-1 1s-1-0.448-1-1c0-0.18722 0.066598-0.35013 0.15625-0.5h-1.3125c0.089652 0.14987 0.15625 0.31278 0.15625 0.5 0 0.552-0.448 1-1 1s-1-0.448-1-1c0-0.18722 0.066598-0.35013 0.15625-0.5h-1.1562z" fill="url(#linearGradient7198)" opacity=".3"/>
  <path id="path7200" d="m3.381 1c-1.319 0-2.381 1.0891-2.381 2.4419v1.6177c0.14274-0.087567 0.29788-0.15262 0.47619-0.15262 0.52571-2e-7 0.95238 0.43758 0.95238 0.97674 0 0.53916-0.42667 0.97674-0.95238 0.97674-0.17831 1e-7 -0.33345-0.06505-0.47619-0.15262v1.282c0.14274-0.087567 0.29788-0.15262 0.47619-0.15262 0.52571-2e-7 0.95238 0.43758 0.95238 0.97674 0 0.53916-0.42667 0.97674-0.95238 0.97674-0.17831-1e-7 -0.33345-0.06505-0.47619-0.15262v1.282c0.14274-0.08757 0.29788-0.15262 0.47619-0.15262 0.52571 0 0.95238 0.43758 0.95238 0.97674s-0.42667 0.97674-0.95238 0.97674c-0.17831 0-0.33345-0.065049-0.47619-0.15262v1.282c0.14274-0.08757 0.29788-0.15262 0.47619-0.15262 0.52571 0 0.95238 0.43758 0.95238 0.97674 0 0.53916-0.42667 0.97674-0.95238 0.97674-0.17831 0-0.33345-0.065049-0.47619-0.15262v1.282c0.14274-0.08757 0.29788-0.15262 0.47619-0.15262 0.52571 0 0.95238 0.43758 0.95238 0.97674s-0.42667 0.97674-0.95238 0.97674c-0.17831 0-0.33345-0.065049-0.47619-0.15262v1.1294c0 1.3528 1.0619 2.4419 2.381 2.4419h1.1012c-0.085383-0.14639-0.14881-0.3055-0.14881-0.48837 0-0.53916 0.42667-0.97674 0.95238-0.97674s0.95238 0.43758 0.95238 0.97674c0 0.18287-0.063427 0.34198-0.14881 0.48837h1.25c-0.085383-0.14639-0.14881-0.3055-0.14881-0.48837 0-0.53916 0.42667-0.97674 0.95238-0.97674 0.52571 0 0.95238 0.43758 0.95238 0.97674 0 0.18287-0.063427 0.34198-0.14881 0.48837h1.25c-0.08538-0.14639-0.14881-0.3055-0.14881-0.48837 0-0.53916 0.42667-0.97674 0.95238-0.97674s0.95238 0.43758 0.95238 0.97674c0 0.18287-0.06343 0.34198-0.14881 0.48837h1.25c-0.08538-0.14639-0.14881-0.3055-0.14881-0.48837 0-0.53916 0.42667-0.97674 0.95238-0.97674s0.95238 0.43758 0.95238 0.97674c0 0.18287-0.06343 0.34198-0.14881 0.48837h1.25c-0.08538-0.14639-0.14881-0.3055-0.14881-0.48837 0-0.53916 0.42667-0.97674 0.95238-0.97674 0.52571 0 0.95238 0.43758 0.95238 0.97674 0 0.18287-0.06343 0.34198-0.14881 0.48837h1.1012c1.319 0 2.381-1.0891 2.381-2.4419v-1.1294c-0.14274 0.08757-0.29788 0.15262-0.47619 0.15262-0.52572 0-0.95238-0.43758-0.95238-0.97674s0.42667-0.97674 0.95238-0.97674c0.17831 0 0.33345 0.06505 0.47619 0.15262v-1.282c-0.14274 0.08757-0.29788 0.15262-0.47619 0.15262-0.52572 0-0.95238-0.43758-0.95238-0.97674 0-0.53916 0.42667-0.97674 0.95238-0.97674 0.17831 0 0.33345 0.06505 0.47619 0.15262v-1.282c-0.14274 0.08757-0.29788 0.15262-0.47619 0.15262-0.52572 0-0.95238-0.43758-0.95238-0.97674s0.42667-0.97674 0.95238-0.97674c0.17831 0 0.33345 0.06505 0.47619 0.15262v-1.282c-0.14274 0.087567-0.29788 0.15262-0.47619 0.15262-0.52572-3e-7 -0.95238-0.43758-0.95238-0.97674 0-0.53916 0.42667-0.97674 0.95238-0.97674 0.17831-1e-7 0.33345 0.06505 0.47619 0.15262v-1.282c-0.14274 0.087567-0.29788 0.15262-0.47619 0.15262-0.52572 2e-7 -0.95238-0.43758-0.95238-0.97674 0-0.53916 0.42667-0.97674 0.95238-0.97674 0.17831-1e-7 0.33345 0.065049 0.47619 0.15262v-1.6177c0-1.3528-1.0619-2.4419-2.381-2.4419h-1.1012c0.08538 0.14639 0.14881 0.3055 0.14881 0.48837 0 0.53916-0.42667 0.97674-0.95238 0.97674-0.52572 0-0.95238-0.43758-0.95238-0.97674 0-0.18287 0.06343-0.34198 0.14881-0.48837h-1.25c0.08538 0.14639 0.14881 0.3055 0.14881 0.48837 0 0.53916-0.42667 0.97674-0.95238 0.97674s-0.95238-0.43758-0.95238-0.97674c0-0.18287 0.06343-0.34198 0.14881-0.48837h-1.25c0.08538 0.14639 0.14881 0.3055 0.14881 0.48837 0 0.53916-0.42667 0.97674-0.95238 0.97674s-0.95238-0.43758-0.95238-0.97674c0-0.18287 0.06343-0.34198 0.14881-0.48837h-1.25c0.085382 0.14639 0.14881 0.3055 0.14881 0.48837 0 0.53916-0.42667 0.97674-0.95238 0.97674-0.52571 0-0.95238-0.43758-0.95238-0.97674 0-0.18287 0.063427-0.34198 0.14881-0.48837h-1.25c0.085383 0.14639 0.14881 0.3055 0.14881 0.48837 0 0.53916-0.42667 0.97674-0.95238 0.97674s-0.95238-0.43758-0.95238-0.97674c0-0.18287 0.063427-0.34198 0.14881-0.48837h-1.1012z" fill="url(#linearGradient3190)" opacity=".5"/>
  <path id="rect3173" d="m3 1c-1.108 0-2 0.892-2 2v1c0.552-2e-7 1 0.448 1 1 0 0.552-0.448 1-1 1v1c0.552-2e-7 1 0.448 1 1 0 0.552-0.448 1-1 1v1c0.552 0 1 0.448 1 1s-0.448 1-1 1v1c0.552 0 1 0.448 1 1s-0.448 1-1 1v1c0.552 0 1 0.448 1 1s-0.448 1-1 1v1c0 1.108 0.892 2 2 2h1c0-0.552 0.448-1 1-1s1 0.448 1 1h1c0-0.552 0.448-1 1-1s1 0.448 1 1h1c0-0.552 0.448-1 1-1s1 0.448 1 1h1c0-0.552 0.448-1 1-1s1 0.448 1 1h1c0-0.552 0.448-1 1-1s1 0.448 1 1h1c1.108 0 2-0.892 2-2v-1c-0.552 0-1-0.448-1-1s0.448-1 1-1v-1c-0.552 0-1-0.448-1-1s0.448-1 1-1v-1c-0.552 0-1-0.448-1-1s0.448-1 1-1v-1c-0.552-3e-7 -1-0.448-1-1 0-0.552 0.448-1 1-1v-1c-0.552 2e-7 -1-0.448-1-1 0-0.552 0.448-1 1-1v-1c0-1.108-0.892-2-2-2h-1c0 0.552-0.448 1-1 1s-1-0.448-1-1h-1c0 0.552-0.448 1-1 1s-1-0.448-1-1h-1c0 0.552-0.448 1-1 1s-1-0.448-1-1h-1c0 0.552-0.448 1-1 1s-1-0.448-1-1h-1c0 0.552-0.448 1-1 1s-1-0.448-1-1h-1z" fill="url(#linearGradient3181)" fill-rule="evenodd"/>
  <path id="path3185" d="m3 21c-1.108 0-2-0.892-2-2v-1c0.552 0 1-0.448 1-1s-0.448-1-1-1v-1c0.552 0 1-0.448 1-1s-0.448-1-1-1v-1c0.552 0 1-0.448 1-1s-0.448-1-1-1v-1c0.552 0 1-0.448 1-1s-0.448-1-1-1v-1c0.552 0 1-0.448 1-1s-0.448-1-1-1v-1c0-1.108 0.892-2 2-2h1c0 0.552 0.448 1 1 1s1-0.448 1-1h1c0 0.552 0.448 1 1 1s1-0.448 1-1h1c0 0.552 0.448 1 1 1s1-0.448 1-1h1c0 0.552 0.448 1 1 1s1-0.448 1-1h1c0 0.552 0.448 1 1 1s1-0.448 1-1h1c1.108 0 2 0.892 2 2v1c-0.552 0-1 0.448-1 1s0.448 1 1 1v1c-0.552 0-1 0.448-1 1s0.448 1 1 1v1c-0.552 0-1 0.448-1 1s0.448 1 1 1v1c-0.552 0-1 0.448-1 1s0.448 1 1 1v1c-0.552 0-1 0.448-1 1s0.448 1 1 1v1c0 1.108-0.892 2-2 2h-1c0-0.552-0.448-1-1-1s-1 0.448-1 1h-1c0-0.552-0.448-1-1-1s-1 0.448-1 1h-1c0-0.552-0.448-1-1-1s-1 0.448-1 1h-1c0-0.552-0.448-1-1-1s-1 0.448-1 1h-1c0-0.552-0.448-1-1-1s-1 0.448-1 1h-1zm0-1.0938h0.375c0.37879-0.56161 0.90667-1 1.625-1 0.59762 0 1.1157 0.27705 1.5 0.6875 0.38434-0.41045 0.90238-0.6875 1.5-0.6875s1.1157 0.27705 1.5 0.6875c0.38434-0.41045 0.90238-0.6875 1.5-0.6875s1.1157 0.27705 1.5 0.6875c0.38434-0.41045 0.90238-0.6875 1.5-0.6875s1.1157 0.27705 1.5 0.6875c0.38434-0.41045 0.90238-0.6875 1.5-0.6875 0.71832 0 1.2462 0.43839 1.625 1h0.375c0.51958 0 0.90625-0.38666 0.90625-0.90625v-0.375c-0.56161-0.37879-1-0.90668-1-1.625 0-0.59762 0.27705-1.1157 0.6875-1.5-0.41045-0.38434-0.6875-0.90238-0.6875-1.5s0.27705-1.1157 0.6875-1.5c-0.41045-0.38434-0.6875-0.90238-0.6875-1.5s0.27705-1.1157 0.6875-1.5c-0.41045-0.38434-0.6875-0.90238-0.6875-1.5s0.27705-1.1157 0.6875-1.5c-0.41045-0.38434-0.6875-0.90238-0.6875-1.5 0-0.71832 0.43839-1.2462 1-1.625v-0.375c0-0.51958-0.38666-0.90625-0.90625-0.90625h-0.375c-0.37879 0.56161-0.90668 1-1.625 1-0.59762 0-1.1157-0.27705-1.5-0.6875-0.38434 0.41045-0.90238 0.6875-1.5 0.6875s-1.1157-0.27705-1.5-0.6875c-0.38434 0.41045-0.90238 0.6875-1.5 0.6875s-1.1157-0.27705-1.5-0.6875c-0.38434 0.41045-0.90238 0.6875-1.5 0.6875s-1.1157-0.27705-1.5-0.6875c-0.38434 0.41045-0.90238 0.6875-1.5 0.6875-0.71833 0-1.2462-0.43839-1.625-1h-0.375c-0.51959 0-0.90625 0.38666-0.90625 0.90625v0.375c0.56161 0.37879 1 0.90668 1 1.625 0 0.59762-0.27705 1.1157-0.6875 1.5 0.41045 0.38434 0.6875 0.90238 0.6875 1.5s-0.27705 1.1157-0.6875 1.5c0.41045 0.38434 0.6875 0.90238 0.6875 1.5s-0.27705 1.1157-0.6875 1.5c0.41045 0.38434 0.6875 0.90238 0.6875 1.5s-0.27705 1.1157-0.6875 1.5c0.41045 0.38434 0.6875 0.90238 0.6875 1.5 0 0.71832-0.43839 1.2462-1 1.625v0.375c0 0.51958 0.38666 0.90625 0.90625 0.90625z" fill="url(#linearGradient3967)" fill-rule="evenodd" opacity=".5"/>
  <path id="path3971" d="m2.25 18.5c-1.5 2.3333-0.75 1.1667 0 0zm17.5 0c-13.167 2.3333-6.5833 1.1667 0 0zm-18.75 0.5c0 1.108 0.892 2 2 2h1c0-0.552 0.448-1 1-1s1 0.448 1 1h1c0-0.552 0.448-1 1-1s1 0.448 1 1h1c0-0.552 0.448-1 1-1s1 0.448 1 1h1c0-0.552 0.448-1 1-1s1 0.448 1 1h1c0-0.552 0.448-1 1-1s1 0.448 1 1h1c1.108 0 2-0.892 2-2 0.13968-1.9368-0.7629 0.96264-2 1h-1c0-0.552-0.448-1-1-1s-1 0.448-1 1h-1c0-0.552-0.448-1-1-1s-1 0.448-1 1h-1c0-0.552-0.448-1-1-1s-1 0.448-1 1h-1c0-0.552-0.448-1-1-1s-1 0.448-1 1h-1c0-0.552-0.448-1-1-1s-1 0.448-1 1h-1c-1.7838-0.208-2-2.9452-2-1z" fill="url(#linearGradient3986)" fill-rule="evenodd" opacity=".4"/>
 </g>
 <g id="layer4">
  <rect id="rect2411" x="3" y="3" width="16" height="16" fill="url(#linearGradient3799)"/>
  <g id="text3801" transform="matrix(1.1584 0 0 1.1403 -1.7081 -1.343)" fill="#fff">
   <path id="path3806" d="m9.8691 10.842c-4.8e-6 0.48047 0.10156 0.85938 0.30469 1.1367 0.20703 0.27734 0.48632 0.41602 0.83789 0.41602 0.34765 2e-6 0.62499-0.13867 0.83203-0.41602 0.20702-0.28125 0.31054-0.66015 0.31055-1.1367-7e-6 -0.47265-0.10548-0.8457-0.31641-1.1191-0.20704-0.27734-0.48634-0.41601-0.83789-0.41602-0.34376 4.7e-6 -0.61915 0.13868-0.82617 0.41602-0.20313 0.27344-0.30469 0.64649-0.30469 1.1191m2.4023 1.7637c-0.11719 0.27734-0.30665 0.49414-0.56836 0.65039-0.25782 0.15234-0.56055 0.22852-0.9082 0.22852-0.67188 1e-6 -1.2188-0.24219-1.6406-0.72656-0.41797-0.48828-0.62696-1.123-0.62695-1.9043-3.6e-6 -0.78125 0.21093-1.416 0.63281-1.9043 0.42187-0.48828 0.96679-0.73242 1.6348-0.73242 0.34765 5.8e-6 0.65038 0.078131 0.9082 0.23438 0.26171 0.15626 0.45116 0.37305 0.56836 0.65039v-0.76758h1.2246v4.0605c0.48437-0.07422 0.86522-0.30664 1.1426-0.69726 0.27733-0.39453 0.416-0.89844 0.41602-1.5117-1.1e-5 -0.39062-0.056651-0.75585-0.16992-1.0957-0.11329-0.34374-0.28517-0.6582-0.51562-0.94336-0.3711-0.47656-0.83595-0.84374-1.3945-1.1016-0.5547-0.25781-1.1563-0.38671-1.8047-0.38672-0.45313 7.4e-6 -0.88672 0.060554-1.3008 0.18164-0.41407 0.11719-0.79688 0.29102-1.1484 0.52148-0.57813 0.38282-1.0293 0.87891-1.3535 1.4883-0.32031 0.60547-0.48047 1.2617-0.48047 1.9687-1.8e-6 0.58203 0.10351 1.1289 0.31055 1.6406 0.21094 0.50781 0.51367 0.95703 0.9082 1.3477 0.39062 0.38281 0.83789 0.67383 1.3418 0.87305 0.50781 0.20312 1.0488 0.30469 1.623 0.30469 0.49218-1e-6 0.98437-0.0918 1.4766-0.27539 0.49218-0.18359 0.9121-0.43164 1.2598-0.74414l0.62695 0.94922c-0.48829 0.3789-1.0215 0.66797-1.5996 0.86719-0.57423 0.20312-1.1582 0.30468-1.752 0.30469-0.72266-2e-6 -1.4043-0.12891-2.0449-0.38672-0.64063-0.25391-1.2109-0.625-1.7109-1.1133-0.5-0.48828-0.88086-1.0527-1.1426-1.6934-0.26172-0.64453-0.39258-1.3359-0.39258-2.0742-8e-7 -0.71093 0.13281-1.3887 0.39844-2.0332 0.26562-0.64453 0.64453-1.2109 1.1367-1.6992 0.49218-0.48437 1.0644-0.85937 1.7168-1.125 0.65625-0.26562 1.3359-0.39843 2.0391-0.39844 0.87499 8.4e-6 1.6699 0.16798 2.3848 0.50391 0.71483 0.33204 1.3125 0.81251 1.793 1.4414 0.29296 0.38282 0.51366 0.79883 0.66211 1.248 0.15233 0.44532 0.2285 0.91407 0.22852 1.4062-1.2e-5 1.0586-0.31837 1.8809-0.95508 2.4668-0.63673 0.58594-1.5352 0.87891-2.6953 0.87891h-0.22852v-0.90234" fill="#fff"/>
  </g>
  <path id="rect3815" d="m3 3v16h16v-16h-16zm1 1h14v14h-14v-14z" fill="#5f8dd3"/>
 </g>
 <g id="layer7">
  <rect id="rect3200" transform="matrix(.5563 0 0 .89172 4.8874 4.2344)" x="2" y="1.98" width="17.976" height="8.9714" rx="2" ry="2" fill="#fff" filter="url(#filter8716)" opacity=".1"/>
 </g>
</svg>
