<?xml version="1.0" encoding="UTF-8"?>
<svg id="svg25" width="22" height="22" version="1.1" xmlns="http://www.w3.org/2000/svg" xmlns:cc="http://creativecommons.org/ns#" xmlns:dc="http://purl.org/dc/elements/1.1/" xmlns:rdf="http://www.w3.org/1999/02/22-rdf-syntax-ns#">
 <metadata id="metadata29">
  <rdf:RDF>
   <cc:Work rdf:about="">
    <dc:format>image/svg+xml</dc:format>
    <dc:type rdf:resource="http://purl.org/dc/dcmitype/StillImage"/>
   </cc:Work>
  </rdf:RDF>
 </metadata>
 <defs id="defs7">
  <linearGradient id="gr0" x1="11" x2="11" y1="6" y2="15" gradientUnits="userSpaceOnUse">
   <stop id="stop2" stop-color="#ebebeb" offset="0"/>
   <stop id="stop4" stop-color="#aaa" offset="1"/>
  </linearGradient>
 </defs>
 <path id="path9" d="m3 5a1.0001 1.0001 0 0 0-1 1v9a1.0001 1.0001 0 0 0 1 1h2a1.0001 1.0001 0 0 0 1-1v-2.2285l5.5098 3.0996a1.0001 1.0001 0 0 0 1.4902-0.8711v-2.2285l5.5098 3.0996a1.0001 1.0001 0 0 0 1.4902-0.8711v-9a1.0001 1.0001 0 0 0-1.4902-0.87109l-5.5098 3.0996v-2.2285a1.0001 1.0001 0 0 0-1.4902-0.87109l-5.5098 3.0996v-2.2285a1.0001 1.0001 0 0 0-1-1h-2zm0 1h2v3.9375l7-3.9375v3.9375l7-3.9375v9l-7-3.9375v3.9375l-7-3.9375v3.9375h-2v-9z" opacity=".25"/>
 <path id="base" d="m3 6v9h2v-3.9375l7 3.9375v-3.9375l7 3.9375v-9l-7 3.9375v-3.9375l-7 3.9375v-3.9375h-2z" fill="url(#gr0)"/>
 <path id="path15" d="m5 11.062v1l7 3.9375v-1l-7-3.9375zm7 0v1l7 3.9375v-1l-7-3.9375zm-9 3.9375v1h2v-1h-2z" opacity=".45"/>
 <path id="path20" d="m3 6v1h2v-1h-2zm9 0-7 3.9375v1l7-3.9375v-1zm7 0-7 3.9375v1l7-3.9375v-1z" fill="#fff" opacity=".6"/>
</svg>
