<?xml version="1.0" encoding="UTF-8"?>
<svg id="svg47" width="22" height="22" version="1.1" xmlns="http://www.w3.org/2000/svg" xmlns:cc="http://creativecommons.org/ns#" xmlns:dc="http://purl.org/dc/elements/1.1/" xmlns:rdf="http://www.w3.org/1999/02/22-rdf-syntax-ns#">
 <metadata id="metadata51">
  <rdf:RDF>
   <cc:Work rdf:about="">
    <dc:format>image/svg+xml</dc:format>
    <dc:type rdf:resource="http://purl.org/dc/dcmitype/StillImage"/>
   </cc:Work>
  </rdf:RDF>
 </metadata>
 <defs id="defs12">
  <linearGradient id="gr0" x1="11" x2="11" y1="6" y2="21" gradientUnits="userSpaceOnUse">
   <stop id="stop2" stop-color="#ebebeb" offset="0"/>
   <stop id="stop4" stop-color="#aaa" offset="1"/>
  </linearGradient>
  <linearGradient id="gr1" x1="11" x2="11" y1="1" y2="15.219" gradientUnits="userSpaceOnUse">
   <stop id="stop7" stop-color="#ebebeb" offset="0"/>
   <stop id="stop9" stop-color="#aaa" offset="1"/>
  </linearGradient>
 </defs>
 <path id="path14" d="m13.5 5c-4.6826 0-8.5 3.8174-8.5 8.5 0 4.6826 3.8174 8.5 8.5 8.5 4.6826 0 8.5-3.8174 8.5-8.5 0-4.6826-3.8174-8.5-8.5-8.5zm0 1c4.1421 0 7.5 3.3579 7.5 7.5 0 4.1421-3.3579 7.5-7.5 7.5-4.1421 0-7.5-3.3579-7.5-7.5 0-4.1421 3.3579-7.5 7.5-7.5zm0 5c-1.3807 0-2.5 1.1193-2.5 2.5s1.1193 2.5 2.5 2.5 2.5-1.1193 2.5-2.5-1.1193-2.5-2.5-2.5zm0 1c0.8403 0 1.5 0.6597 1.5 1.5s-0.6597 1.5-1.5 1.5-1.5-0.6597-1.5-1.5 0.6597-1.5 1.5-1.5z" opacity=".25"/>
 <path id="path19" d="m8.5 0c-4.6826 0-8.5 3.8174-8.5 8.5 0 3.3351 1.9425 6.2262 4.7441 7.6152a1.0001 1.0001 0 0 0 1.4238-1.0976c-0.103-0.5034-0.16797-1.0152-0.16797-1.5176 0-4.154 3.346-7.5 7.5-7.5 0.5024 0 1.0142 0.06497 1.5176 0.16797a1.0001 1.0001 0 0 0 1.0976-1.4238c-1.389-2.8016-4.2801-4.7441-7.6152-4.7441zm0 1c2.9473 0 5.4927 1.7146 6.7188 4.1875-0.5534-0.1132-1.132-0.1875-1.7188-0.1875-4.6944 0-8.5 3.8056-8.5 8.5 0 0.5868 0.07427 1.1654 0.1875 1.7188-2.4729-1.226-4.1875-3.7715-4.1875-6.7188 0-4.1421 3.3579-7.5 7.5-7.5z" opacity=".25"/>
 <path id="base" d="m13.5 6c-4.1421 0-7.5 3.3579-7.5 7.5 0 4.1421 3.3579 7.5 7.5 7.5 4.1421 0 7.5-3.3579 7.5-7.5 0-4.1421-3.3579-7.5-7.5-7.5zm0 5c1.3807 0 2.5 1.1193 2.5 2.5s-1.1193 2.5-2.5 2.5-2.5-1.1193-2.5-2.5 1.1193-2.5 2.5-2.5z" fill="url(#gr0)"/>
 <path id="path25" d="m8.5 1c-4.1421 0-7.5 3.3579-7.5 7.5 0 2.9473 1.7146 5.4927 4.1875 6.7188-0.11323-0.55333-0.1875-1.1319-0.1875-1.7188 0-4.6944 3.8056-8.5 8.5-8.5 0.5868 0 1.1654 0.074272 1.7188 0.1875-1.2261-2.4729-3.7715-4.1875-6.7188-4.1875z" fill="url(#gr1)"/>
 <path id="path27" d="m13.5 11c-1.3807 0-2.5 1.1193-2.5 2.5 0 0.1699 0.0185 0.3357 0.0508 0.4961 0.2331-1.1392 1.2411-1.9961 2.4492-1.9961s2.2161 0.8569 2.4492 1.9961c0.0323-0.1604 0.0508-0.3262 0.0508-0.4961 0-1.3807-1.1193-2.5-2.5-2.5zm-7.4746 3c-0.01096 0.1659-0.02539 0.3314-0.02539 0.5 0 4.1421 3.3579 7.5 7.5 7.5 4.1421 0 7.5-3.3579 7.5-7.5 0-0.1686-0.0144-0.3341-0.0254-0.5-0.2582 3.9081-3.5011 7-7.4746 7s-7.2164-3.0919-7.4746-7z" opacity=".45"/>
 <path id="path32" d="m13.5 6c-4.1421 0-7.5 3.3579-7.5 7.5 0 0.1686 0.01443 0.3341 0.02539 0.5 0.25819-3.9081 3.5011-7 7.4746-7s7.2164 3.0919 7.4746 7c0.011-0.1659 0.0254-0.3314 0.0254-0.5 0-4.1421-3.3579-7.5-7.5-7.5zm-2.4492 8.0039c-0.0323 0.1604-0.0508 0.3262-0.0508 0.4961 0 1.3807 1.1193 2.5 2.5 2.5s2.5-1.1193 2.5-2.5c0-0.1699-0.0185-0.3357-0.0508-0.4961-0.2331 1.1392-1.2411 1.9961-2.4492 1.9961s-2.2161-0.8569-2.4492-1.9961z" fill="#fff" opacity=".6"/>
 <path id="path37" d="m13.5 5c-4.6944 0-8.5 3.8056-8.5 8.5 0 0.1546 0.01768 0.3058 0.02734 0.459 0.28036-4.4411 3.9609-7.959 8.4727-7.959 0.5868 0 1.1654 0.0743 1.7188 0.1875-0.1953-0.39382-0.4349-0.75984-0.6934-1.1113-0.3376-0.0446-0.6786-0.07617-1.0254-0.07617zm-12.471 3.9141c-0.01501 0.19377-0.0293 0.38833-0.0293 0.58594 0 2.9473 1.7146 5.4928 4.1875 6.7188-0.07223-0.353-0.11903-0.7189-0.15039-1.0879-2.2724-1.1931-3.8574-3.5102-4.0078-6.2168z" opacity=".45"/>
 <path id="path42" d="m8.5 1c-4.1421 0-7.5 3.3579-7.5 7.5 0 0.14071 0.02158 0.27528 0.0293 0.41406 0.29953-3.8677 3.5262-6.9141 7.4707-6.9141 2.4779 0 4.6609 1.2205 6.0254 3.0762 0.2335 0.03086 0.4671 0.06504 0.6934 0.11133-1.2261-2.4729-3.7715-4.1875-6.7188-4.1875zm-3.4727 12.959c-0.01135 0.1798-0.02734 0.3584-0.02734 0.541 0 0.2125 0.01931 0.4213 0.03711 0.6309 0.05154 0.027 0.09817 0.062 0.15039 0.0879-0.0834-0.4076-0.13314-0.8317-0.16016-1.2598z" fill="#fff" opacity=".6"/>
</svg>
