<?xml version="1.0" encoding="UTF-8"?>
<svg id="svg25" width="22" height="22" version="1.1" xmlns="http://www.w3.org/2000/svg" xmlns:cc="http://creativecommons.org/ns#" xmlns:dc="http://purl.org/dc/elements/1.1/" xmlns:rdf="http://www.w3.org/1999/02/22-rdf-syntax-ns#">
 <metadata id="metadata29">
  <rdf:RDF>
   <cc:Work rdf:about="">
    <dc:format>image/svg+xml</dc:format>
    <dc:type rdf:resource="http://purl.org/dc/dcmitype/StillImage"/>
   </cc:Work>
  </rdf:RDF>
 </metadata>
 <defs id="defs7">
  <linearGradient id="gr0" x1="11" x2="11" y1="5" y2="17" gradientUnits="userSpaceOnUse">
   <stop id="stop2" stop-color="#ebebeb" offset="0"/>
   <stop id="stop4" stop-color="#aaa" offset="1"/>
  </linearGradient>
 </defs>
 <path id="path9" d="m5 4a1.0001 1.0001 0 0 0-1 1v12a1.0001 1.0001 0 0 0 1 1h3.5996 1.2012 2.3984 1.2012 3.5996a1.0001 1.0001 0 0 0 1-1v-12a1.0001 1.0001 0 0 0-1-1h-3.5996-1.2012-2.3984-1.2012-3.5996zm0 1h3.5996 1.2012 2.3984 1.2012 3.5996v12h-3.5996-1.2012-2.3984-1.2012-3.5996v-12z" opacity=".25"/>
 <path id="base" d="m5 5v12h12v-12h-12z" fill="url(#gr0)"/>
 <path id="path15" d="m5 17v1h3.5996 1.2012 2.3984 1.2012 3.5996v-1h-3.5996-1.2012-2.3984-1.2012-3.5996z" opacity=".45"/>
 <path id="path20" d="m5 5v1h3.5996 1.2012 2.3984 1.2012 3.5996v-1h-3.5996-1.2012-2.3984-1.2012-3.5996z" fill="#fff" opacity=".6"/>
</svg>
