<?xml version="1.0" encoding="UTF-8"?>
<svg id="svg25" width="22" height="22" version="1.1" xmlns="http://www.w3.org/2000/svg" xmlns:cc="http://creativecommons.org/ns#" xmlns:dc="http://purl.org/dc/elements/1.1/" xmlns:rdf="http://www.w3.org/1999/02/22-rdf-syntax-ns#">
 <metadata id="metadata29">
  <rdf:RDF>
   <cc:Work rdf:about="">
    <dc:format>image/svg+xml</dc:format>
    <dc:type rdf:resource="http://purl.org/dc/dcmitype/StillImage"/>
   </cc:Work>
  </rdf:RDF>
 </metadata>
 <defs id="defs7">
  <linearGradient id="gr0" x1="11" x2="11" y1="3" y2="19" gradientUnits="userSpaceOnUse">
   <stop id="stop2" stop-color="#f3604d" offset="0"/>
   <stop id="stop4" stop-color="#c81700" offset="1"/>
  </linearGradient>
 </defs>
 <path id="path9" d="m11 2c-4.9571 0-9 4.0429-9 9 0 4.9571 4.0429 9 9 9 4.9571 0 9-4.0429 9-9 0-4.9571-4.0429-9-9-9zm0 1c4.416 0 8 3.584 8 8s-3.584 8-8 8-8-3.584-8-8 3.584-8 8-8zm0 2.8574c-0.7686 0-1.4972 0.16996-2.1523 0.47266l6.8222 6.8164c0.3017-0.6541 0.4727-1.3793 0.4727-2.1465 0-2.8389-2.3037-5.1426-5.1426-5.1426zm0 1c2.2978 0 4.1426 1.8448 4.1426 4.1426 0 0.0601-0.0346 0.1086-0.0371 0.168l-4.2774-4.2735c0.0608-0.00266 0.1104-0.03711 0.1719-0.03711zm-4.6074 1.8652c-0.3405 0.68705-0.53516 1.459-0.53516 2.2773 0 2.8389 2.3037 5.1426 5.1426 5.1426 0.8197 0 1.5933-0.1936 2.2812-0.5352l-6.8886-6.8847zm0.54101 1.955 4.3906 4.3887c-0.1141 0.0095-0.2073 0.0762-0.3242 0.0762-2.2978 0-4.1426-1.8448-4.1426-4.1426 0-0.116 0.06672-0.209 0.07617-0.3223z" opacity=".25"/>
 <path id="base" class="error" d="m11 3c-4.416 0-8 3.584-8 8 0 4.416 3.584 8 8 8 4.416 0 8-3.584 8-8 0-4.416-3.584-8-8-8zm0 2.8571c2.8389-1e-7 5.1429 2.304 5.1429 5.1429 0 0.76719-0.17159 1.4932-0.47321 2.1473l-6.8214-6.817c0.6551-0.30269 1.3831-0.47321 2.1518-0.47321zm-4.6071 2.8661 6.8884 6.8839c-0.68794 0.34161-1.4615 0.53572-2.2812 0.53572-2.8389 0-5.1429-2.304-5.1429-5.1429 0-0.8183 0.19522-1.5897 0.53571-2.2768z" fill="url(#gr0)"/>
 <path id="path15" d="m11 5.8574c-0.7686 0-1.4972 0.16996-2.1523 0.47266l0.73437 0.73437c0.45127-0.13028 0.92477-0.20703 1.418-0.20703 2.6601 0 4.8519 2.0229 5.1172 4.6133 0.0144-0.1555 0.0254-0.3113 0.0254-0.4707 0-2.8389-2.3037-5.1426-5.1426-5.1426zm-4.6074 2.8652c-0.3405 0.68705-0.53516 1.459-0.53516 2.2773 0 0.1809 0.0091 0.3591 0.02735 0.5352 0.05921-0.6451 0.23288-1.2578 0.50781-1.8125l6.1719 6.1679c0.2464-0.0793 0.4878-0.1695 0.7167-0.2832l-6.8886-6.8847zm-3.3672 2.7773c-0.0103 0.1661-0.02539 0.3314-0.02539 0.5 0 4.416 3.584 8 8 8s8-3.584 8-8c0-0.1686-0.0151-0.3339-0.0254-0.5-0.2594 4.1824-3.7272 7.5-7.9746 7.5-4.2474 0-7.7152-3.3176-7.9746-7.5z" opacity=".55"/>
 <path id="path20" d="m11 3c-4.416 0-8 3.584-8 8 0 0.1686 0.01509 0.3339 0.02539 0.5 0.25942-4.1824 3.7272-7.5 7.9746-7.5 4.2474 0 7.7152 3.3176 7.9746 7.5 0.0103-0.1661 0.0254-0.3314 0.0254-0.5 0-4.416-3.584-8-8-8zm-1.418 4.0644c-0.252 0.07276-0.49962 0.15716-0.73437 0.26563l6.8222 6.8164c0.3017-0.6541 0.4727-1.3793 0.4727-2.1465 0-0.1774-0.0078-0.3526-0.0254-0.5254-0.0554 0.5918-0.2088 1.1548-0.4473 1.6719l-6.0879-6.082zm-3.6973 4.4708c-0.01413 0.1538-0.02735 0.3072-0.02735 0.4648 0 2.8389 2.3037 5.1426 5.1426 5.1426 0.8197 0 1.5933-0.1936 2.2812-0.5352l-0.7167-0.7168c-0.4941 0.159-1.0176 0.252-1.5645 0.252-2.658 0-4.8471-2.0199-5.1152-4.6074z" fill="#fff" opacity=".3"/>
</svg>
