<?xml version="1.0" encoding="UTF-8"?>
<svg id="svg29" width="22" height="22" version="1.1" xmlns="http://www.w3.org/2000/svg" xmlns:cc="http://creativecommons.org/ns#" xmlns:dc="http://purl.org/dc/elements/1.1/" xmlns:rdf="http://www.w3.org/1999/02/22-rdf-syntax-ns#">
 <metadata id="metadata33">
  <rdf:RDF>
   <cc:Work rdf:about="">
    <dc:format>image/svg+xml</dc:format>
    <dc:type rdf:resource="http://purl.org/dc/dcmitype/StillImage"/>
   </cc:Work>
  </rdf:RDF>
 </metadata>
 <defs id="defs7">
  <linearGradient id="gr0" x1="11" x2="11" y1="4" y2="18" gradientUnits="userSpaceOnUse">
   <stop id="stop2" stop-color="#ebebeb" offset="0"/>
   <stop id="stop4" stop-color="#aaa" offset="1"/>
  </linearGradient>
 </defs>
 <path id="path9" d="m12 2.996-2 4e-3a1 1 0 0 0-1 1v2.344 1.156 0.029l-0.039-0.019-0.992-0.559-2.028-1.183a1 1 0 0 0-1.373 0.367l-1 1.75a1 1 0 0 0 0.375 1.365l2.026 1.16 0.992 0.58-0.992 0.58-2.026 1.16a1 1 0 0 0-0.375 1.36l1 1.75a1 1 0 0 0 1.373 0.37l2.028-1.19 0.992-0.55h0.039v3.53a1 1 0 0 0 1 1h2a1 1 0 0 0 1-1v-3.52l3.06 1.76a1 1 0 0 0 1.37-0.37l1-1.75a1 1 0 0 0-0.37-1.36l-3.03-1.76 3.03-1.764a1 1 0 0 0 0.37-1.361l-1-1.75a1 1 0 0 0-1.37-0.371l-3.06 1.764v-0.022-1.154-2.346a1 1 0 0 0-1-1zm-2 1.004h2v2.344 1.156 1.75l4.56-2.625 1 1.75-4.53 2.625 4.53 2.63-1 1.75-4.56-2.63v5.25h-2v-5.25l-1.531 0.88-1 0.56-2.031 1.19-1-1.75 2.031-1.16 1-0.59 1.5-0.88-1.5-0.87-1-0.599-2.031-1.156 1-1.75 2.031 1.187 1 0.563 1.531 0.875v-1.75-1.156-2.344z" opacity=".25"/>
 <path id="base" d="m10 4v2.3438 1.1562 1.75l-1.5312-0.875-1-0.5625-2.0312-1.1875-1 1.75 2.0312 1.1562 1 0.59375 1.5 0.875-1.5 0.875-1 0.59375-2.0312 1.1562 1 1.75 2.0312-1.1875 1-0.5625 1.5312-0.875v5.25h2v-5.25l4.5625 2.625 1-1.75-4.5312-2.625 4.5312-2.625-1-1.75-4.5625 2.625v-1.75-1.1562-2.3438h-2z" fill="url(#gr0)"/>
 <path id="path17" d="m4.869 8.621-0.431 0.754 2.031 1.155 1 0.6 0.642 0.37 0.858-0.5-1.5-0.87-1-0.599-1.6-0.91zm12.261 2e-3 -4.1 2.377 0.86 0.5 3.67-2.125-0.43-0.752zm-7.13 4.127-1.531 0.88-1 0.56-2.031 1.19-0.569-1-0.431 0.25 1 1.75 2.031-1.19 1-0.56 1.531-0.88v-1zm2 0v1l4.56 2.63 1-1.75-0.43-0.25-0.57 1-4.56-2.63zm-2 5.25v1h2v-1h-2z" opacity=".45"/>
 <path id="path24" d="m10 4v1h2v-1h-2zm-4.562 2.625-1 1.75 0.431 0.246 0.569-0.996 2.031 1.187 1 0.563 1.531 0.875v-1l-1.531-0.875-1-0.563-2.031-1.187zm11.122 0-4.56 2.625v1l4.56-2.625 0.57 0.998 0.43-0.248-1-1.75zm-2.67 4.875-0.86 0.5 4.1 2.38 0.43-0.75-3.67-2.13zm-5.779 0-0.642 0.38-1 0.59-2.031 1.16 0.431 0.75 1.6-0.91 1-0.59 1.5-0.88-0.858-0.5z" fill="#fff" opacity=".6"/>
</svg>
