<?xml version="1.0" encoding="UTF-8"?>
<svg id="svg25" width="22" height="22" version="1.1" xmlns="http://www.w3.org/2000/svg" xmlns:cc="http://creativecommons.org/ns#" xmlns:dc="http://purl.org/dc/elements/1.1/" xmlns:rdf="http://www.w3.org/1999/02/22-rdf-syntax-ns#">
 <metadata id="metadata29">
  <rdf:RDF>
   <cc:Work rdf:about="">
    <dc:format>image/svg+xml</dc:format>
    <dc:type rdf:resource="http://purl.org/dc/dcmitype/StillImage"/>
   </cc:Work>
  </rdf:RDF>
 </metadata>
 <defs id="defs7">
  <linearGradient id="gr0" x1="11" x2="11" y1="5" y2="20" gradientUnits="userSpaceOnUse">
   <stop id="stop2" stop-color="#ebebeb" offset="0"/>
   <stop id="stop4" stop-color="#aaa" offset="1"/>
  </linearGradient>
 </defs>
 <path id="path9" d="m12.5 4c-1.3677 0-2.5 1.1323-2.5 2.5v0.5h-6.5c-1.3677 0-2.5 1.1323-2.5 2.5v3.5a1.0001 1.0001 0 0 0 0.13477 0.5 1.0001 1.0001 0 0 0-0.13477 0.5v3a1.0001 1.0001 0 0 0 1 1h2v2a1.0001 1.0001 0 0 0 1 1h3a1.0001 1.0001 0 0 0 1-1v-2h2a1.0001 1.0001 0 0 0 0.5-0.1348 1.0001 1.0001 0 0 0 0.5 0.1348h8a1.0001 1.0001 0 0 0 1-1v-4-1-5.5c0-1.3677-1.1323-2.5-2.5-2.5h-6zm0 1h6c0.831 0 1.5 0.669 1.5 1.5v5.5 1 4h-8v-4h-3v-3h-5v3h-2v-3.5c0-0.831 0.669-1.5 1.5-1.5h7.5v-1.5c0-0.831 0.669-1.5 1.5-1.5zm0.5 2v1h5v-1h-5zm-8 4h3v3h3v3h-3v3h-3v-3h-3v-3h3v-3z" opacity=".25"/>
 <path id="base" d="m12.5 5c-0.831 0-1.5 0.669-1.5 1.5v1.5h-7.5c-0.831 0-1.5 0.669-1.5 1.5v3.5h2v-3h5v3h3v4h8v-10.5c0-0.831-0.669-1.5-1.5-1.5h-6zm0.5 2h5v1h-5v-1zm-8 4v3h-3v3h3v3h3v-3h3v-3h-3v-3h-3z" fill="url(#gr0)"/>
 <path id="path15" d="m13 7v1h5v-1h-5zm-9 3v1h1 3 1v-1h-5zm-2 3v1h2v-1h-2zm7 0v1h2 1v-1h-3zm-7 4v1h3v-1h-3zm6 0v1h3v-1h-3zm4 0v1h8v-1h-8zm-7 3v1h3v-1h-3z" opacity=".45"/>
 <path id="path20" d="m12.5 5c-0.831 0-1.5 0.669-1.5 1.5v1c0-0.831 0.669-1.5 1.5-1.5h6c0.831 0 1.5 0.669 1.5 1.5v-1c0-0.831-0.669-1.5-1.5-1.5h-6zm-9 3c-0.831 0-1.5 0.669-1.5 1.5v1c0-0.831 0.669-1.5 1.5-1.5h7.5v-1h-7.5zm9.5 0v1h5v-1h-5zm-8 3v1h3v-1h-3zm-3 3v1h3v-1h-1-2zm6 0v1h3v-1h-2-1z" fill="#fff" opacity=".6"/>
</svg>
