<?xml version="1.0" encoding="UTF-8"?>
<svg id="svg25" width="22" height="22" version="1.1" xmlns="http://www.w3.org/2000/svg" xmlns:cc="http://creativecommons.org/ns#" xmlns:dc="http://purl.org/dc/elements/1.1/" xmlns:rdf="http://www.w3.org/1999/02/22-rdf-syntax-ns#">
 <metadata id="metadata29">
  <rdf:RDF>
   <cc:Work rdf:about="">
    <dc:format>image/svg+xml</dc:format>
    <dc:type rdf:resource="http://purl.org/dc/dcmitype/StillImage"/>
   </cc:Work>
  </rdf:RDF>
 </metadata>
 <defs id="defs7">
  <linearGradient id="gr0" x1="11" x2="11" y1="1.9964" y2="20" gradientUnits="userSpaceOnUse">
   <stop id="stop2" stop-color="#ebebeb" offset="0"/>
   <stop id="stop4" stop-color="#aaa" offset="1"/>
  </linearGradient>
 </defs>
 <path id="path9" d="m6.8438 1 0.09375 0.00391c-0.11376-0.010634-0.22999-0.010634-0.34375 0a1.0001 1.0001 0 0 0-0.08789 0.01171c-0.85015 0.15678-1.524 0.98532-1.5059 1.8496v4.3848a1.0001 1.0001 0 0 0 0 0.00586c0.0024 0.48275 0.20325 0.95975 0.54688 1.2988l1.4453 1.4453h-1.9922a1.0001 1.0001 0 0 0-1 1v2h-2a1.0001 1.0001 0 0 0-1 1v3a1.0001 1.0001 0 0 0 1 1h2v2a1.0001 1.0001 0 0 0 1 1h3a1.0001 1.0001 0 0 0 1-1v-2h2a1.0001 1.0001 0 0 0 1-1v-1.9922l1.4492 1.4492c0.6812 0.6807 1.9204 0.6807 2.6016 0l4.4062-4.4062c0.6807-0.6812 0.6807-1.9204 0-2.6016l-7.9023-7.9023c-0.3391-0.34364-0.8161-0.54448-1.2988-0.54688a1.0001 1.0001 0 0 0-0.0059 0h-4.4062zm-0.08398 0.99609a0.84002 0.84002 0 0 1 0.08398 0.00391h4.4062a0.84002 0.84002 0 0 1 0.5938 0.25l7.9062 7.9062a0.84002 0.84002 0 0 1 0 1.1876l-4.4062 4.4062a0.84002 0.84002 0 0 1-1.1876 0l-7.9062-7.9062a0.84002 0.84002 0 0 1-0.25-0.59375v-4.4062a0.84002 0.84002 0 0 1 0.6875-0.84375 0.84002 0.84002 0 0 1 0.07227-0.00391zm2.7402 2.0039c-0.82843 0-1.5 0.67157-1.5 1.5s0.67157 1.5 1.5 1.5c0.8284 0 1.5-0.67157 1.5-1.5s-0.6716-1.5-1.5-1.5zm0 1c0.28799 0 0.5 0.21201 0.5 0.5s-0.21201 0.5-0.5 0.5-0.5-0.21201-0.5-0.5 0.21201-0.5 0.5-0.5zm-4.5 6h3v3h3v3h-3v3h-3v-3h-3v-3h3v-3zm4 1.0078 0.99219 0.9922h-0.99219v-0.9922z" opacity=".25"/>
 <path id="base" d="m6.6875 2a0.84002 0.84002 0 0 0-0.6875 0.84375v4.4062a0.84002 0.84002 0 0 0 0.25 0.59375l7.9062 7.9062a0.84002 0.84002 0 0 0 1.1875 0l4.4062-4.4062a0.84002 0.84002 0 0 0 0-1.1875l-7.9062-7.9062a0.84002 0.84002 0 0 0-0.59375-0.25h-4.4062a0.84002 0.84002 0 0 0-0.15625 0zm2.8125 2c0.82843 0 1.5 0.67157 1.5 1.5s-0.67157 1.5-1.5 1.5c-0.82843 0-1.5-0.67157-1.5-1.5s0.67157-1.5 1.5-1.5zm-4.5 7v3h-3v3h3v3h3v-3h3v-3h-3v-3h-3z" fill="url(#gr0)"/>
 <path id="path15" d="m9.5 4c-0.82843 0-1.5 0.67157-1.5 1.5 0 0.17621 0.03598 0.34293 0.0918 0.5 0.20659-0.58135 0.75598-1 1.4082-1 0.6522 0 1.2016 0.41865 1.4082 1 0.0558-0.15707 0.0918-0.32379 0.0918-0.5 0-0.82843-0.6716-1.5-1.5-1.5zm-3.5 3.25v1a0.84002 0.84002 0 0 0 0.25 0.59375l7.9062 7.9062a0.84002 0.84002 0 0 0 1.1876 0l4.4062-4.4062a0.84002 0.84002 0 0 0 0.0801-1.0938 0.84002 0.84002 0 0 1-0.0801 0.0938l-4.4062 4.4062a0.84002 0.84002 0 0 1-1.1876 0l-7.9062-7.9062a0.84002 0.84002 0 0 1-0.25-0.59375zm-4 9.75v1h3v-1h-3zm6 0v1h3v-1h-3zm-3 3v1h3v-1h-3z" opacity=".45"/>
 <path id="path20" d="m6.7598 1.9961a0.84002 0.84002 0 0 0-0.07227 0.00391 0.84002 0.84002 0 0 0-0.6875 0.84375v0.99219a0.84002 0.84002 0 0 1 0.6875-0.83594 0.84002 0.84002 0 0 1 0.15625 0h4.4062a0.84002 0.84002 0 0 1 0.5938 0.25l7.9062 7.9062a0.84002 0.84002 0 0 1 0.0801 0.0938 0.84002 0.84002 0 0 0-0.0801-1.0938l-7.9062-7.9062a0.84002 0.84002 0 0 0-0.5938-0.25h-4.4062a0.84002 0.84002 0 0 0-0.08398-0.00391zm1.332 4.0039c-0.05582 0.15707-0.0918 0.32379-0.0918 0.5 0 0.82843 0.67157 1.5 1.5 1.5 0.8284 0 1.5-0.67157 1.5-1.5 0-0.17621-0.036-0.34293-0.0918-0.5-0.2066 0.58135-0.756 1-1.4082 1-0.65222 0-1.2016-0.41865-1.4082-1zm-3.0918 5v1h3v-1h-3zm-3 3v1h3v-1h-3zm6 0v1h3v-1h-3z" fill="#fff" opacity=".6"/>
</svg>
