<?xml version="1.0" encoding="UTF-8"?>
<svg id="svg25" width="16" height="16" version="1.1" xmlns="http://www.w3.org/2000/svg" xmlns:cc="http://creativecommons.org/ns#" xmlns:dc="http://purl.org/dc/elements/1.1/" xmlns:rdf="http://www.w3.org/1999/02/22-rdf-syntax-ns#">
 <metadata id="metadata29">
  <rdf:RDF>
   <cc:Work rdf:about="">
    <dc:format>image/svg+xml</dc:format>
    <dc:type rdf:resource="http://purl.org/dc/dcmitype/StillImage"/>
   </cc:Work>
  </rdf:RDF>
 </metadata>
 <defs id="defs7">
  <linearGradient id="a" x1="8" x2="8" y1="1" y2="15" gradientUnits="userSpaceOnUse">
   <stop id="stop2" stop-color="#ebebeb" offset="0"/>
   <stop id="stop4" stop-color="#aaa" offset="1"/>
  </linearGradient>
 </defs>
 <path id="path9" d="m3.998 0c-0.41207 0.0010685-0.82457 0.067007-1.2168 0.19336a1 1.0001 0 0 0-0.40039 1.6582l1.6191 1.6191-0.5293 0.5293-1.6191-1.6191a1.0001 1.0001 0 0 0-1.6582 0.40039c-0.12635 0.39222-0.19229 0.80473-0.19336 1.2168a1.0001 1.0001 0 0 0 0 0.0019531c1.2824e-16 1.0472 0.43139 2.0876 1.1719 2.8281 0.74048 0.74048 1.7809 1.1719 2.8281 1.1719a1.0001 1.0001 0 0 0 0.0039062 0c0.19541-9.338e-4 0.38299-0.066232 0.57617-0.095703l0.29883 0.29883c-0.36165 0.12509-0.72478 0.26775-1.0098 0.55273l-3.1094 3.1074c-0.93796 0.93859-1.0338 2.5017-0.080078 3.4551 0.95344 0.95485 2.5169 0.85872 3.4551-0.080078l3.1094-3.1074c0.28498-0.28536 0.4281-0.64833 0.55273-1.0098l0.29688 0.29688c-0.029323 0.1946-0.093374 0.38328-0.09375 0.58008a1.0001 1.0001 0 0 0 0 0.001953c0 1.0472 0.43139 2.0876 1.1719 2.8281s1.7809 1.1719 2.8281 1.1719a1.0001 1.0001 0 0 0 0.003906 0c0.41206-0.001297 0.8227-0.066795 1.2148-0.19336a1.0001 1.0001 0 0 0 0.40039-1.6582l-1.6191-1.6191a1.0001 1.0001 0 0 0 0-0.001953l0.52734-0.52734a1.0001 1.0001 0 0 0 0.001953 0l1.6191 1.6191a1.0001 1.0001 0 0 0 1.6582-0.40039c0.12656-0.39214 0.19206-0.80278 0.19336-1.2148a1.0001 1.0001 0 0 0 0-0.003906c0-1.0472-0.4314-2.0876-1.1719-2.8281s-1.7809-1.1719-2.8281-1.1719a1.0001 1.0001 0 0 0-0.003906 0c-0.19552 9.012e-4 -0.38289 0.066234-0.57617 0.095703l-0.69922-0.69922 2.5078-2.5078c0.6903 0.032109 1.3836-0.12598 1.9043-0.64648l0.55469-0.55469a1.0001 1.0001 0 0 0 0-1.4141l-0.62695-0.62891a1.0001 1.0001 0 0 0-0.001953 0l-0.70312-0.70312-0.62695-0.62891a1.0001 1.0001 0 0 0-1.416 0l-0.55469 0.55469c-0.52071 0.52048-0.67829 1.2138-0.64648 1.9043l-2.5078 2.5078-0.69727-0.69727c0.029325-0.19449 0.093341-0.38338 0.09375-0.58008a1.0001 1.0001 0 0 0 0-0.0019531c0-1.0472-0.43139-2.0876-1.1719-2.8281-0.74048-0.74048-1.7809-1.1719-2.8281-1.1719a1.0001 1.0001 0 0 0-0.0019531 0zm0.0019531 1a3 3 0 0 1 3 3 3 3 0 0 1-0.15234 0.9375l1.1523 1.1523-1.9102 1.9102-1.1543-1.1543a3 3 0 0 1-0.93555 0.1543 3 3 0 0 1-3-3 3 3 0 0 1 0.14453-0.91211l1.6191 1.6191c0.3917 0.3918 1.0224 0.3918 1.4141 0l0.5293-0.5293c0.3918-0.3917 0.3918-1.0224 0-1.4141l-1.6191-1.6191a3 3 0 0 1 0.91211-0.14453zm9.0195 0.019531 1.9609 1.9609-0.55469 0.55469c-0.453 0.4528-1.0972 0.57448-1.6172 0.35938l-5.9121 5.9141c0.2141 0.5204 0.093025 1.1622-0.35938 1.6152l-3.1094 3.1074c-0.5876 0.588-1.4978 0.62408-2.041 0.080078-0.54318-0.543-0.50753-1.453 0.080078-2.041l3.1094-3.1074c0.4535-0.4535 1.0963-0.57578 1.6172-0.35938l5.9121-5.9121c-0.215-0.5204-0.093625-1.1644 0.35938-1.6172l0.55469-0.55469zm-3.1094 6.9805 1.1543 1.1543a3 3 0 0 1 0.93555-0.1543 3 3 0 0 1 3 3 3 3 0 0 1-0.14453 0.91211l-1.6191-1.6191c-0.391-0.392-1.0221-0.392-1.4141 0l-0.5293 0.5293c-0.392 0.392-0.392 1.0231 0 1.4141l1.6191 1.6191a3 3 0 0 1-0.91211 0.14453 3 3 0 0 1-3-3 3 3 0 0 1 0.15234-0.9375l-1.1523-1.1523 1.9102-1.9102z" opacity=".25"/>
 <path id="base" d="m4 1a3 3 0 0 0-0.9121 0.1445l1.6191 1.6192c0.3918 0.3917 0.3918 1.0223 0 1.414l-0.5293 0.5293c-0.3917 0.3918-1.0223 0.3918-1.414 0l-1.6192-1.6191a3 3 0 0 0-0.1445 0.9121 3 3 0 0 0 3 3 3 3 0 0 0 0.9355-0.1543l1.1543 1.1543 1.9102-1.9102-1.1523-1.1523a3 3 0 0 0 0.1523-0.9375 3 3 0 0 0-3-3zm9.02 0.0195-0.555 0.5547c-0.453 0.4528-0.575 1.0968-0.36 1.6172l-5.9116 5.9121c-0.5209-0.2164-1.1637-0.0941-1.6172 0.3594l-3.1094 3.1071c-0.58761 0.588-0.62328 1.498-0.0801 2.041 0.5432 0.544 1.4534 0.508 2.041-0.08l3.1094-3.107c0.4524-0.453 0.5735-1.095 0.3594-1.6154l5.9125-5.9141c0.52 0.2151 1.164 0.0935 1.617-0.3593l0.554-0.5547-0.628-0.6289-0.704-0.7032-0.628-0.6289zm-3.1098 6.9805-1.9102 1.9102 1.1523 1.1518a3 3 0 0 0-0.1523 0.938 3 3 0 0 0 3 3 3 3 0 0 0 0.912-0.145l-1.619-1.619c-0.392-0.391-0.392-1.022 0-1.414l0.529-0.529c0.392-0.392 1.023-0.392 1.414 0l1.619 1.619a3 3 0 0 0 0.145-0.912 3 3 0 0 0-3-3 3 3 0 0 0-0.936 0.1543l-1.1538-1.1543z" fill="url(#a)"/>
 <path id="path15" d="m4 1a3 3 0 0 0-0.91211 0.14453l0.85742 0.85742a3 3 0 0 1 0.054688-0.0019531 3 3 0 0 1 2.9531 2.498 3 3 0 0 0 0.046875-0.49805 3 3 0 0 0-3-3zm9.0195 0.019531-0.55469 0.55469c-0.44866 0.44846-0.56982 1.0838-0.36328 1.6016 0.075627-0.21606 0.18663-0.42499 0.36328-0.60156l0.55469-0.55469 1.4609 1.4609 0.5-0.5-1.9609-1.9609zm-11.875 2.0684a3 3 0 0 0-0.14453 0.91211 3 3 0 0 0 0.046875 0.50391 3 3 0 0 1 0.097656-0.41602l1.6191 1.6191c0.3917 0.3918 1.0224 0.3918 1.4141 0l0.5293-0.5293c0.33085-0.33076 0.36463-0.82327 0.13672-1.207-0.041988 0.070702-0.075766 0.14609-0.13672 0.20703l-0.5293 0.5293c-0.3917 0.3918-1.0224 0.3918-1.4141 0l-1.6191-1.6191zm10.947 0.11719-5.8984 5.8984c-0.5209-0.2164-1.1637-0.094125-1.6172 0.35938l-3.1094 3.1074c-0.4454 0.4457-0.57164 1.0762-0.37109 1.5918 0.076429-0.21354 0.19647-0.41705 0.37109-0.5918l3.1094-3.1074c0.4535-0.4535 1.0963-0.57578 1.6172-0.35938l5.9121-5.9121c-0.12738-0.30833-0.12164-0.6567-0.013672-0.98633zm-5.0938 1.8828a3 3 0 0 1-0.15039 0.84961l0.65234 0.65234 0.5-0.5-1.002-1.002zm2.9121 2.9121-1.9102 1.9102 0.5 0.5 1.4102-1.4102 1.1543 1.1543a3 3 0 0 1 0.93555-0.1543 3 3 0 0 1 2.9531 2.4961 3 3 0 0 0 0.046875-0.49609 3 3 0 0 0-3-3 3 3 0 0 0-0.93555 0.1543l-1.1543-1.1543zm-3 2.7949-0.013672 0.013672c0.0018115 0.004403 0.0021427 0.009251 0.0039062 0.013672 0.0031954-0.009139 0.006752-0.01817 0.0097656-0.027344zm2.0918 1.1172a3 3 0 0 0-0.0019531 0.087891 3 3 0 0 0 0.046875 0.50195 3 3 0 0 1 0.10547-0.43945l-0.15039-0.15039zm2.1543 1.1172c-0.22802 0.38402-0.1943 0.87686 0.13672 1.207l0.76172 0.76172a3 3 0 0 0 0.85742-0.14258l-1.6191-1.6191c-0.060984-0.060828-0.09471-0.13639-0.13672-0.20703z" fill="#fff" opacity=".6"/>
 <path id="path20" d="m3.9453 2.002a3 3 0 0 0-0.85742 0.14258l1.6191 1.6191c0.060953 0.060937 0.094731 0.13633 0.13672 0.20703 0.22791-0.38377 0.19413-0.87627-0.13672-1.207l-0.76172-0.76172zm8.1562 1.1738c-0.003406 0.0097305-0.006565 0.019526-0.009765 0.029297l0.013672-0.013672c-0.002063-0.004992-0.001906-0.01061-0.003907-0.015625zm2.3789 0.30469-0.054688 0.054687c-0.453 0.4528-1.0972 0.57448-1.6172 0.35938l-5.9121 5.9141c0.12707 0.30887 0.12194 0.65673 0.013672 0.98633l5.8984-5.9004c0.52 0.2151 1.1642 0.093425 1.6172-0.35938l0.55469-0.55469-0.5-0.5zm-7.5273 1.0176a3 3 0 0 1-0.10547 0.43945l0.15039 0.15039a3 3 0 0 0 0.0019531-0.087891 3 3 0 0 0-0.046875-0.50195zm-5.9062 0.0058593a3 3 0 0 0-0.046875 0.49609 3 3 0 0 0 3 3 3 3 0 0 0 0.93555-0.1543l1.1543 1.1543 1.9102-1.9102-0.5-0.5-1.4102 1.4102-1.1543-1.1543a3 3 0 0 1-0.93555 0.1543 3 3 0 0 1-2.9531-2.4961zm7.4531 5.9062-0.5 0.5 1.002 1.002a3 3 0 0 1 0.15039-0.84961l-0.65234-0.65234zm-1.5996 0.41211c-0.075426 0.21571-0.18686 0.42491-0.36328 0.60156l-3.1094 3.1074c-0.5876 0.588-1.4978 0.62408-2.041 0.080078-0.13146-0.13141-0.22698-0.28458-0.29102-0.44922-0.18075 0.505-0.090741 1.0676 0.29102 1.4492 0.5432 0.544 1.4534 0.50792 2.041-0.080078l3.1094-3.1074c0.44857-0.44917 0.56995-1.0835 0.36328-1.6016zm5.6289 0.17578c-0.25562 0-0.51103 0.098922-0.70703 0.29492l-0.5293 0.5293c-0.33102 0.33102-0.36474 0.82359-0.13672 1.207 0.042009-0.070749 0.075735-0.14605 0.13672-0.20703l0.5293-0.5293c0.392-0.392 1.0231-0.392 1.4141 0l1.6191 1.6191a3 3 0 0 0 0.14453-0.91211 3 3 0 0 0-0.046875-0.50391 3 3 0 0 1-0.097656 0.41602l-1.6191-1.6191c-0.1955-0.196-0.45141-0.29492-0.70703-0.29492zm-3.4824 1.5039a3 3 0 0 0-0.046875 0.49805 3 3 0 0 0 3 3 3 3 0 0 0 0.91211-0.14453l-0.85742-0.85742a3 3 0 0 1-0.054688 0.001953 3 3 0 0 1-2.9531-2.498z" opacity=".45"/>
</svg>
