<?xml version="1.0" encoding="UTF-8"?>
<svg id="svg29" width="16" height="16" version="1.1" xmlns="http://www.w3.org/2000/svg" xmlns:cc="http://creativecommons.org/ns#" xmlns:dc="http://purl.org/dc/elements/1.1/" xmlns:rdf="http://www.w3.org/1999/02/22-rdf-syntax-ns#">
 <metadata id="metadata33">
  <rdf:RDF>
   <cc:Work rdf:about="">
    <dc:format>image/svg+xml</dc:format>
    <dc:type rdf:resource="http://purl.org/dc/dcmitype/StillImage"/>
   </cc:Work>
  </rdf:RDF>
 </metadata>
 <defs id="defs7">
  <linearGradient id="gr0" x1="8" x2="8" y1="1.001" y2="15.001" gradientUnits="userSpaceOnUse">
   <stop id="stop2" stop-color="#ebebeb" offset="0"/>
   <stop id="stop4" stop-color="#aaa" offset="1"/>
  </linearGradient>
 </defs>
 <path id="path9" d="m9.932-0.03125 0.023 0.033203a1 1 0 0 0-0.344 0.074217c-0.682 0.08763-1.356 0.33473-1.771 0.98983-0.308 0.488-0.348 1.121-0.17 1.618 0.01 0.04 0.05 0.049 0.07 0.089-0.137-0.06-0.254-0.134-0.398-0.181-0.666-0.22-1.318-0.16-1.977-0.174 0.114-0.439 0.205-0.922 0-1.264-0.268-0.4504-0.682-0.7453-1.162-0.9294-0.479-0.18389-0.972-0.23268-1.449-0.15038-0.478 0.08228-0.992 0.30178-1.318 0.82028-0.327 0.5165-0.27 1.2165 0 1.6675 0.171 0.29 0.473 0.424 0.744 0.598-0.852 0.526-1.5898 1.2-1.9378 2.172-0.9436 2.636 0.9488 5.448 3.8728 6.418 1.704 0.56 3.39 0.3 4.791-0.43h0.03c-0.318 0.78-0.281 1.64 0.07 2.36 0.379 0.79 1.054 1.45 1.934 1.87 1.75 0.82 3.92 0.47 4.77-1.2 0.43-0.84 0.36-1.8 0-2.59-0.38-0.79-1.06-1.45-1.94-1.862-0.98-0.467-2.02-0.434-2.96-0.127l-0.1-0.058c0.16-0.251 0.38-0.45 0.48-0.736 0.6-1.672-0.14-3.33-1.358-4.623l0.07-0.081c0.458 0.09 0.908 0.213 1.348 0.137 0.62-0.108 1.25-0.393 1.64-1.01s0.33-1.432 0-1.99c-0.33-0.5567-0.86-0.9497-1.5-1.1952-0.48-0.18476-0.98-0.26205-1.458-0.24605zm0.056 1.0332v0.035c0.342-0.011 0.712 0.047 1.062 0.182 0.92 0.358 1.39 1.129 1.02 1.717-0.38 0.589-1.44 0.772-2.369 0.414-0.052-0.02-0.102-0.041-0.152-0.061l-0.998 1.053c1.529 1.084 2.279 2.812 1.719 4.365-0.17 0.48-0.451 0.898-0.813 1.248l1.043 0.975c0.73-0.52 1.83-0.57 2.83-0.1 1.36 0.65 2.02 2.03 1.48 3.09s-2.09 1.4-3.45 0.75c-1.37-0.64-2.032-2.03-1.489-3.09 0.083-0.16 0.189-0.3 0.319-0.43l-1.038-0.97c-1.174 0.91-2.975 1.2-4.724 0.62-2.51-0.826-3.9629-3.125-3.244-5.13 0.416-1.162 1.468-1.973 2.769-2.287l-0.375-0.699c-0.203-3e-3 -0.419-0.041-0.623-0.122-0.612-0.237-0.918-0.745-0.672-1.134s0.948-0.5079 1.565-0.272c0.622 0.237 0.918 0.742 0.672 1.131-0.104 0.163-0.289 0.284-0.512 0.344l0.365 0.674c0.837-0.129 1.754-0.063 2.656 0.234 0.426 0.14 0.817 0.323 1.176 0.539l0.981-1.037c-0.57-0.398-0.795-0.975-0.5-1.441 0.232-0.368 0.732-0.578 1.302-0.598zm-4.654 3.693-8e-3 8e-3c-0.27 0.01-0.537 0.021-0.806 0.051l-0.331 0.682c0.229-0.064 0.466-0.105 0.711-0.125 0.249-0.03 0.511-0.03 0.791 0 0.355 0.031 0.61 0.095 0.762 0.185 0.162 0.092 0.212 0.225 0.162 0.397l-0.019 0.089-0.856-0.099c-0.731-0.078-1.28-0.047-1.678 0.09-0.395 0.137-0.686 0.396-0.892 0.8-0.173 0.35-0.197 0.675-0.051 0.971 0.159 0.312 0.473 0.53 0.951 0.639 0.368 0.08 0.713 0.089 1.028 0.019 0.317-0.073 0.631-0.228 0.937-0.463l-0.203 0.706 1.879 0.417 0.441-2.636c0.1-0.597-0.032-1.016-0.375-1.276-0.318-0.247-0.862-0.385-1.615-0.435-0.277-0.02-0.553-0.02-0.828-0.02zm-0.117 1.826c0.12 0 0.25 0.012 0.4 0.032l0.783 0.107-0.039 0.143c-0.074 0.259-0.242 0.467-0.502 0.615-0.261 0.136-0.539 0.185-0.828 0.135-0.226-0.042-0.38-0.123-0.47-0.237-0.08-0.113-0.09-0.243-0.03-0.398 0.068-0.165 0.189-0.28 0.367-0.34 0.09-0.03 0.195-0.049 0.315-0.049l4e-3 -8e-3z" opacity=".25"/>
 <path id="base" d="m9.9883 1.002c-0.57072 0.019045-1.0702 0.22976-1.3027 0.59766-0.2946 0.46607-0.069483 1.0431 0.5 1.4414l-0.98047 1.0371c-0.35942-0.21613-0.75014-0.39884-1.1758-0.53906-0.90207-0.29718-1.8197-0.36356-2.6562-0.23438l-0.36523-0.67383c0.22314-0.062788 0.40859-0.18059 0.51172-0.34375 0.24595-0.38912-0.054726-0.89411-0.67188-1.1309-0.61715-0.23674-1.3185-0.11764-1.5645 0.27148-0.24595 0.38912 0.054725 0.89802 0.67188 1.1348 0.20429 0.078367 0.42012 0.11824 0.62305 0.12109l0.375 0.69922c-1.3009 0.31441-2.3536 1.1251-2.7695 2.2871-0.71774 2.0053 0.73404 4.302 3.2441 5.1289 1.7491 0.57623 3.5506 0.28767 4.7246-0.61914l1.0352 0.97461c-0.12475 0.12686-0.23382 0.26651-0.31641 0.42773-0.54323 1.0605 0.12129 2.4446 1.4844 3.0898 1.3631 0.64521 2.9118 0.31048 3.4551-0.75s-0.12129-2.4446-1.4844-3.0898c-0.99914-0.47294-2.0976-0.41803-2.8262 0.0625l-1.043-0.97852c0.36238-0.34983 0.64249-0.7676 0.81445-1.248 0.5557-1.5526-0.19078-3.2828-1.7207-4.3672l0.99805-1.0508c0.049286 0.022555 0.099986 0.042415 0.15234 0.0625 0.93359 0.35814 1.9932 0.17458 2.3652-0.41406 0.37207-0.58864-0.082032-1.3587-1.0156-1.7168-0.3501-0.1343-0.72007-0.19111-1.0625-0.17969zm-4.6543 3.6934c0.27508-0.00719 0.55149-0.00183 0.82812 0.015625 0.75255 0.047511 1.2968 0.18918 1.6152 0.43555 0.3426 0.26081 0.47506 0.67875 0.375 1.2754l-0.44141 2.6367-1.8789-0.41797 0.20312-0.70508c-0.30603 0.23542-0.62019 0.38993-0.9375 0.46289-0.31439 0.069694-0.65937 0.062491-1.0273-0.021484-0.47837-0.10917-0.79272-0.32507-0.95117-0.63672-0.14614-0.29631-0.12371-0.62065 0.054688-0.9707 0.20585-0.40391 0.50133-0.66556 0.89648-0.80273 0.398-0.13708 0.94693-0.16751 1.6777-0.085938l0.85156 0.095703 0.023438-0.085938c0.04933-0.17159-0.0060234-0.30234-0.16211-0.39453-0.15158-0.091759-0.40706-0.15409-0.76172-0.18555-0.27993-0.024822-0.54221-0.027448-0.79102-0.0078125-0.2456 0.01938-0.48257 0.061016-0.71094 0.12305l0.33008-0.68164c0.26887-0.027358 0.53709-0.043348 0.80664-0.048828zm-0.12305 1.8418c-0.11967 0.0047521-0.22431 0.022362-0.31445 0.052734-0.17756 0.061081-0.29949 0.17317-0.36719 0.33789-0.063597 0.15473-0.055395 0.28877 0.027344 0.40234 0.088313 0.11426 0.24399 0.19433 0.4707 0.23633 0.28882 0.05351 0.56697 0.0074655 0.82812-0.13867 0.25991-0.14751 0.42749-0.35432 0.50195-0.61328l0.041016-0.14258-0.7832-0.10938c-0.15055-0.02107-0.28463-0.030143-0.4043-0.025391z" fill="url(#gr0)"/>
 <path id="path17" d="m2.477 2.25c-0.074 0.053-0.148 0.106-0.194 0.178-0.246 0.389 0.06 0.897 0.672 1.134 0.082 0.033 0.168 0.054 0.252 0.073 0.238-0.102 0.485-0.189 0.746-0.252l-0.375-0.699c-0.203-3e-3 -0.419-0.041-0.623-0.122-0.2-0.077-0.352-0.19-0.478-0.312zm1.857 0.223c-0.094 0.068-0.201 0.124-0.326 0.158l0.365 0.674c0.047-7e-3 0.096-8e-3 0.143-0.014 1e-3 -1e-3 3e-3 -2e-3 4e-3 -4e-3 0.164-0.26 0.069-0.565-0.186-0.814zm4.396 0.076c-0.013 0.018-0.033 0.032-0.044 0.051-0.186 0.292-0.147 0.625 0.035 0.933l0.465-0.492c-0.207-0.144-0.348-0.315-0.456-0.492zm3.3 0.43c-0.4 0.552-1.42 0.719-2.329 0.371-0.052-0.02-0.102-0.041-0.152-0.061l-0.551 0.58c0.062 0.058 0.113 0.12 0.188 0.172l-0.438 0.463c0.115 0.09 0.234 0.176 0.338 0.273l0.463-0.488c0.05 0.02 0.1 0.041 0.152 0.061 0.929 0.358 1.989 0.175 2.369-0.414 0.19-0.298 0.16-0.643-0.04-0.957zm-6.696 1.716-8e-3 8e-3c-0.27 0.01-0.537 0.021-0.806 0.051l-0.331 0.682c0.229-0.064 0.466-0.105 0.711-0.125 0.249-0.03 0.511-0.03 0.791 0 0.355 0.031 0.61 0.095 0.762 0.185 0.123 0.07 0.163 0.17 0.162 0.285 0.502 0.071 0.919 0.18 1.162 0.369 0.164 0.124 0.275 0.287 0.34 0.485l0.035-0.209c0.1-0.597-0.032-1.016-0.375-1.276-0.318-0.247-0.862-0.385-1.615-0.435-0.277-0.02-0.553-0.02-0.828-0.02zm-0.877 1.186c-0.143 0.022-0.278 0.052-0.395 0.092-0.395 0.137-0.686 0.396-0.892 0.8-0.173 0.35-0.197 0.675-0.051 0.971 0.011 0.021 0.027 0.039 0.039 0.059 5e-3 -0.01 7e-3 -0.02 0.012-0.03 0.206-0.404 0.497-0.663 0.892-0.8 0.145-0.05 0.317-0.082 0.502-0.104 0.071-0.135 0.177-0.238 0.334-0.291 0.09-0.03 0.195-0.049 0.315-0.049l4e-3 -8e-3c0.12 0 0.25 0.012 0.4 0.032l0.783 0.107-0.039 0.143c-0.015 0.053-0.051 0.095-0.074 0.144l0.309 0.035 0.019-0.089c0.05-0.172 0-0.305-0.162-0.397-0.152-0.09-0.407-0.154-0.762-0.185-0.28-0.03-0.542-0.03-0.791 0-0.245 0.02-0.482 0.061-0.711 0.125l0.268-0.555zm-3.406 1.383c-0.2764 1.845 1.111 3.786 3.377 4.536 1.749 0.58 3.55 0.29 4.724-0.62l0.645 0.6c0.024-0.06 0.04-0.13 0.074-0.2 0.027-0.05 0.072-0.09 0.104-0.14l-0.518-0.48c0.087-0.08 0.153-0.19 0.231-0.28l-0.536-0.5c-1.174 0.91-2.975 1.2-4.724 0.62-1.857-0.61-3.128-2.029-3.377-3.536zm4.439 0.279c-0.14 0.028-0.283 0.032-0.429 0.01-0.055 9e-3 -0.116 0.01-0.163 0.025-0.178 0.06-0.299 0.175-0.367 0.34-0.06 0.155-0.05 0.285 0.03 0.398 0.037 0.048 0.093 0.088 0.154 0.123 0.13-3e-3 0.261-0.01 0.383-0.037 0.317-0.073 0.631-0.228 0.937-0.463l-0.125 0.438c0.226-0.145 0.383-0.335 0.451-0.574l0.039-0.143-0.783-0.107c-0.047-7e-3 -0.083-6e-3 -0.127-0.01zm4.92 0.627c-0.03 0.18-0.08 0.36-0.14 0.537-0.17 0.48-0.451 0.898-0.813 1.248l0.469 0.435c0.144-0.21 0.254-0.437 0.344-0.683 0.18-0.504 0.21-1.025 0.14-1.537zm-0.652 4.73c-0.285 1 0.362 2.19 1.602 2.77 1.36 0.65 2.91 0.31 3.45-0.75 0.21-0.41 0.23-0.87 0.11-1.31-0.03 0.1-0.06 0.21-0.11 0.31-0.54 1.06-2.09 1.4-3.45 0.75-0.84-0.39-1.409-1.07-1.602-1.77z" opacity=".45"/>
 <path id="path24" d="m9.988 1.002c-0.57 0.02-1.07 0.23-1.302 0.598-0.189 0.297-0.146 0.636 0.044 0.949 0.246-0.334 0.718-0.528 1.258-0.547v0.037c0.342-0.011 0.712 0.045 1.062 0.18 0.45 0.176 0.8 0.454 0.98 0.76 0.01-0.016 0.03-0.028 0.04-0.043 0.37-0.588-0.1-1.359-1.02-1.717-0.35-0.135-0.72-0.191-1.062-0.18v-0.037zm-6.611 0.043c-0.469-0.048-0.909 0.091-1.094 0.383-0.165 0.261-0.065 0.571 0.194 0.822 0.322-0.233 0.868-0.286 1.371-0.094 0.206 0.079 0.359 0.193 0.486 0.317 0.073-0.054 0.14-0.114 0.186-0.186 0.246-0.389-0.05-0.894-0.672-1.131-0.155-0.059-0.315-0.095-0.471-0.111zm1.637 2.201c-0.17 6e-3 -0.334 0.024-0.498 0.045-0.105 0.161-0.287 0.28-0.508 0.34l0.365 0.674c0.837-0.129 1.754-0.063 2.656 0.234 0.426 0.14 0.817 0.323 1.176 0.539l0.545-0.576c-0.068-0.053-0.128-0.11-0.199-0.16l0.447-0.473c-0.115-0.106-0.207-0.217-0.277-0.336l-0.516 0.545c-0.359-0.216-0.75-0.399-1.176-0.539-0.676-0.223-1.362-0.315-2.015-0.293zm-1.807 0.389c-0.948 0.405-1.691 1.106-2.023 2.035-0.1874 0.522-0.2208 1.063-0.133 1.594 0.03-0.2 0.063-0.399 0.133-0.594 0.416-1.162 1.468-1.973 2.769-2.287l-0.375-0.699c-0.121-2e-3 -0.246-0.021-0.371-0.049zm5.879 1.14-0.535 0.567c1.033 0.732 1.699 1.76 1.859 2.828 0.2-1.204-0.32-2.457-1.324-3.395zm-3.752 0.92-8e-3 8e-3c-0.27 0.01-0.537 0.021-0.806 0.051l-0.063 0.129c0.346-0.053 0.767-0.055 1.285 0l0.854 0.099 0.019-0.089c0.013-0.043 0-0.074 0-0.112-0.152-0.021-0.277-0.054-0.453-0.066-0.277-0.02-0.553-0.02-0.828-0.02zm2.783 0.94-0.406 2.427-1.879-0.417 0.074-0.26c-0.019 0.012-0.029 0.029-0.049 0.041-0.261 0.138-0.539 0.187-0.828 0.136-0.138-0.025-0.242-0.069-0.328-0.123-0.202 5e-3 -0.41-8e-3 -0.631-0.056-0.446-0.102-0.744-0.301-0.912-0.58-0.161 0.339-0.181 0.655-0.039 0.943 0.159 0.312 0.473 0.528 0.951 0.637 0.368 0.08 0.713 0.089 1.028 0.019 0.317-0.073 0.631-0.228 0.937-0.463l-0.203 0.706 1.879 0.415 0.441-2.634c0.053-0.313 0.037-0.574-0.035-0.791zm-3.338 0.213c-0.076 4e-3 -0.142 0.015-0.213 0.023-0.01 0.02-0.028 0.033-0.037 0.055-0.06 0.155-0.05 0.287 0.03 0.4 0.09 0.114 0.244 0.194 0.47 0.236 8e-3 2e-3 0.016-1e-3 0.024 0 0.052-8e-3 0.098-0.025 0.158-0.025l2e-3 -8e-3c0.083 0 0.182 0.012 0.279 0.022 0.124-0.026 0.248-0.063 0.365-0.125 0.21-0.12 0.343-0.287 0.432-0.479l-0.547-0.064c-0.365-0.039-0.684-0.05-0.963-0.035zm5.147 3.542c-0.069 0.11-0.159 0.2-0.238 0.29l0.502 0.47c-0.09 0.09-0.15 0.19-0.215 0.29l0.525 0.49c0.73-0.52 1.83-0.57 2.83-0.1 0.83 0.4 1.4 1.07 1.59 1.78 0.29-1.01-0.36-2.19-1.59-2.78-1-0.47-2.1-0.42-2.83 0.1l-0.574-0.54zm-0.129 1.39c-0.129 0.36-0.142 0.74-0.039 1.12 0.03-0.11 0.061-0.22 0.113-0.32 0.083-0.16 0.189-0.3 0.319-0.43l-0.393-0.37z" fill="#fff" opacity=".6"/>
</svg>
