<?xml version="1.0" encoding="UTF-8"?>
<svg id="svg29" width="16" height="16" version="1.1" xmlns="http://www.w3.org/2000/svg" xmlns:cc="http://creativecommons.org/ns#" xmlns:dc="http://purl.org/dc/elements/1.1/" xmlns:rdf="http://www.w3.org/1999/02/22-rdf-syntax-ns#">
 <metadata id="metadata33">
  <rdf:RDF>
   <cc:Work rdf:about="">
    <dc:format>image/svg+xml</dc:format>
    <dc:type rdf:resource="http://purl.org/dc/dcmitype/StillImage"/>
   </cc:Work>
  </rdf:RDF>
 </metadata>
 <defs id="defs7">
  <linearGradient id="gr0" x1="8" x2="8" y1="1" y2="15" gradientUnits="userSpaceOnUse">
   <stop id="stop2" stop-color="#ebebeb" offset="0"/>
   <stop id="stop4" stop-color="#aaa" offset="1"/>
  </linearGradient>
 </defs>
 <path id="path9" d="m12.13-0.0625-0.01 0.0625c-0.16 3.136e-4 -0.33 0.01443-0.5 0.04883-1.14 0.22257-2.035 1.1062-2.27 2.2342-0.04 0.203-0.09 0.31-0.121 0.385-0.02 0.03-0.05 0.07-0.09 0.107-0.08 0.08-0.198 0.162-0.155 0.137-0.04 0.02-0.155 0.07-0.226 0.09-0.03 0 0.07 0.029 0.07 0.019a1 1 0 0 0-0.041-9e-3c-0.799-0.179-1.448-0.079-2.043-0.039-0.05-0.471-0.179-0.987-0.539-1.317-0.568-0.52-1.394-0.59-2.004-0.308-0.587 0.271-1.024 0.892-1.06 1.617-0.04 0.385 0.039 0.812 0.25 1.117 0.181 0.263 0.405 0.397 0.617 0.52-0.381 0.462-0.74 0.948-0.908 1.511-0.158 0.533-0.221 1.115-0.196 1.674v0.022c-0.02 0.01 1e-3 -1e-3 -0.029 0.019-0.04 0.02 9e-3 0.019 0.039 0.029v0.01c-0.257-0.07-0.456-0.068-0.633-0.068-0.09 0-0.172 0-0.252 0.01-0.07 0-0.127-2e-3 -0.287 0.058-0.446 0.13-0.7683 0.355-1.0018 0.539a1 1 0 0 0-0.0937 0.08c-0.69452 0.709-0.8403 1.854-0.3594 2.724 0.2983 0.53 0.8709 0.91 1.4279 1.09 0.669 0.2 1.301 0 1.834-0.3 0.09-0.1 0.259-0.16 0.396-0.31 0.138-0.15 0.21-0.27 0.326-0.45 0.183-0.27 0.032-0.17 0.272-0.19 0.145 0-0.04-0.1 0.09 0 0.396 0.33 0.805 0.55 1.279 0.71 0.49 0.17 1 0.25 1.733 0.27h0.599c0.164 0.1 0.448 0.26 0.518 0.33 0.07 0.1 0.292 0.55 0.299 0.58 0.163 0.94 0.628 1.77 1.359 2.34 0.29 0.24 0.64 0.43 1.02 0.55 0.31 0.1 0.65 0.12 1.15 0.11 0.71 0 1.27-0.16 1.72-0.43 0.23-0.14 0.42-0.3 0.6-0.47 0.19-0.17 0.32-0.22 0.54-0.61 0.37-0.69 0.54-1.27 0.54-1.88 0-0.3 0-0.56-0.1-0.9-0.37-1.31-1.45-2.306-2.8-2.568-0.34-0.07-0.28-0.039-0.46-0.129-0.17-0.09-0.52-0.522-0.6-0.764v-0.302-0.854-1.012c0.1-0.267 0.25-0.385 0.53-0.433 0.86-0.149 1.64-0.652 2.06-1.424 0.19-0.35 0.33-0.775 0.36-1.18 0.11-1.381-0.89-2.3704-2.13-2.736a1 1 0 0 0-0.72-0.3105zm-0.01 1.0625-0.05 0.043c1.03-6e-3 1.95 0.909 1.85 1.967-0.02 0.348-0.06 0.463-0.24 0.779-0.26 0.488-0.75 0.816-1.35 0.92-0.63 0.109-1.11 0.522-1.33 1.131-0.08 0.102-0.09 0.372-0.09 0.9 0 4e-3 0.03 0.115 0.02 0.08 0-0.288 0.1 0.979 0.1 0.684 0-0.229-0.06 0.333-0.08 0.529v4e-3c0.02 0.232 0.05 0.39 0.05 0.449 0.14 0.592 0.62 1.215 1.16 1.473 0.23 0.111 0.35 0.111 0.7 0.211 1.03 0.2 1.75 0.86 2.03 1.85 0.1 0.14 0.1 0.37 0.1 0.63 0 0.52-0.07 0.75-0.42 1.4-0.09 0.15-0.53 0.55-0.78 0.7-0.38 0.19-0.54 0.29-1.21 0.29-0.5 0-0.65 0-0.84-0.1-0.28-0.09-0.48-0.2-0.7-0.38-0.58-0.46-0.86-0.94-1-1.73-0.056-0.33-0.291-0.8-0.532-1.07-0.219-0.25-0.584-0.49-0.934-0.61-0.189-0.1-0.347-0.1-0.904-0.1-0.687-0.02-1.023-0.07-1.428-0.21-0.29-0.1-0.759-0.36-0.976-0.54-0.261-0.16-0.48-0.26-0.805-0.26-0.454 0.04-0.735 0.21-1.018 0.64-0.226 0.34-0.245 0.36-0.423 0.47-0.326 0.18-0.706 0.28-1.004 0.18-0.419-0.13-0.678-0.31-0.85-0.62-0.2899-0.52-0.2125-1.106 0.199-1.526 0.183-0.145 0.411-0.298 0.664-0.368 0.072-0.03 0.423-0.05 0.651 0.01 0.262 0.07 0.847-0.097 1.117-0.48 0.113-0.2 0.133-0.212 0.113-0.61-0.019-0.424 0.042-0.967 0.154-1.343 0.128-0.43 0.496-1.044 0.864-1.43 0.04-0.042 0.1-0.15 0.14-0.24 0.06-0.142 0.08-0.175 0.03-0.356-0.062-0.238-0.215-0.403-0.496-0.551-0.322-0.163-0.541-0.394-0.481-0.779 3e-3 -0.74 0.874-1.146 1.414-0.65 0.207 0.186 0.297 0.433 0.297 0.779 0 0.239 0.02 0.316 0.1 0.451 0.156 0.27 0.279 0.34 0.621 0.34 0.699-0.03 1.339-0.123 2.021 0.029 0.177 0.068 0.616-0.034 0.92-0.213 0.197-0.115 0.506-0.437 0.606-0.589 0.09-0.179 0.13-0.409 0.23-0.698 0.15-0.739 0.73-1.311 1.48-1.457 0.11-0.0304 0.21-0.029 0.31-0.029zm-7.917 3.273c-0.02 0.03-0.031 0.06-0.051 0.09v-0.041l0.051-0.049zm-0.07 0.422s9e-3 0.01 0.019 0.01h-0.019v-0.01zm3.367 0.305a2.5 2.5 0 0 0-0.094 4e-3c-0.132 2e-3 -0.261 0.022-0.388 0.047a2.5 2.5 0 0 0-0.18 0.039 2.5 2.5 0 0 0-6e-3 2e-3c-0.123 0.035-0.243 0.079-0.359 0.133a2.5 2.5 0 0 0-0.065 0.027c-0.296 0.148-0.562 0.354-0.783 0.596a2.5 2.5 0 0 0-0.023 0.025c-0.084 0.094-0.156 0.2-0.223 0.311a2.5 2.5 0 0 0-0.043 0.07c-0.213 0.384-0.33 0.841-0.336 1.258a2.5 2.5 0 0 0 4e-3 0.099c1e-3 0.04 7e-3 0.081 0.01 0.121a2.5 2.5 0 0 0 1.912 2.198c0.308 0.014 0.623-0.047 0.922-0.176a1 1 0 0 0 0.392 0.08h0.09c0.043 0 0.062-0.011 0.1-0.014a2.5 2.5 0 0 0 1.562-2.16v-0.014c-0.02-0.685-0.254-1.36-0.638-1.787-0.303-0.337-0.745-0.644-1.223-0.771-0.137-0.04-0.28-0.041-0.42-0.061a1 1 0 0 0-0.09-0.021 2.5 2.5 0 0 0-0.121-6e-3zm-0.035 0.996c0.136 0 0.284 0.021 0.426 0.061 0.302 0.08 0.511 0.224 0.738 0.476 0.28 0.311 0.363 0.548 0.383 1.153 0.02 0.542-6e-3 0.694-0.17 0.892-0.108 0.131-0.356 0.26-0.496 0.26h-0.09v-0.734c0-0.426-0.019-0.79-0.039-0.85-0.056-0.15-0.251-0.348-0.408-0.418-0.484-0.208-1.053 0.168-1.053 0.705 2e-3 0.283 0.22 0.621 0.471 0.721 0.06 0.02 0.238 0.041 0.394 0.041 0.155 0 0.305 9e-3 0.315 0.029 0.032 0.052-0.088 0.321-0.19 0.432-0.243 0.265-0.647 0.306-0.975 0.115-0.267-0.156-0.559-0.491-0.666-0.764-0.07-0.176-0.089-0.299-0.089-0.576 2e-3 -0.447 0.086-0.713 0.351-1.008 0.308-0.341 0.686-0.533 1.094-0.533l4e-3 -2e-3z" opacity=".25"/>
 <path id="base" d="m12.123 1c-0.10622 0-0.20258 0.0077669-0.31055 0.029297-0.74944 0.14592-1.3304 0.71789-1.4844 1.457-0.060116 0.28867-0.1341 0.51438-0.22656 0.69336-0.078597 0.15217-0.41038 0.47793-0.60742 0.59375-0.30447 0.17893-0.74308 0.2802-0.91992 0.21289-0.68221-0.15249-1.322-0.062352-2.0215-0.029297-0.34195 0.0054101-0.46503-0.073366-0.62109-0.33984-0.07929-0.13553-0.099609-0.21231-0.099609-0.45117 0-0.34585-0.093962-0.59315-0.29688-0.7793-0.54025-0.49549-1.411-0.089878-1.4141 0.65039-0.05579 0.38537 0.15841 0.61614 0.48047 0.7793 0.28099 0.14808 0.43451 0.31311 0.49609 0.55078 0.046801 0.1806 0.034943 0.21342-0.029297 0.35547-0.03909 0.086371-0.10058 0.19807-0.14062 0.24023-0.36744 0.38656-0.7355 1.0005-0.86328 1.4297-0.11212 0.37654-0.17347 0.91934-0.1543 1.3438 0.01797 0.39781 0.0078137 0.40923-0.11328 0.60938-0.26973 0.38349-0.85477 0.54993-1.1172 0.48047-0.22735-0.060574-0.57845-0.036836-0.65039-0.013672-0.25345 0.072156-0.48087 0.22218-0.66406 0.36719-0.41201 0.42026-0.48899 1.0075-0.19922 1.5293 0.17222 0.3101 0.43012 0.48997 0.84961 0.62109 0.29738 0.09294 0.67728 0.020806 1.0039-0.18359 0.17742-0.11102 0.19799-0.12725 0.42383-0.4668 0.2826-0.42484 0.56339-0.59865 1.0176-0.63672 0.32535-0.02746 0.54453 0.043159 0.80469 0.25586 0.21784 0.17829 0.68672 0.43632 0.97656 0.53711 0.40461 0.14048 0.74084 0.1957 1.4277 0.21289 0.55763 0.014 0.71549 0.031976 0.9043 0.097656 0.34961 0.12197 0.71479 0.36497 0.93359 0.60938 0.24099 0.26917 0.47877 0.74136 0.53711 1.0762 0.13668 0.78464 0.4137 1.2712 0.99023 1.7266 0.22932 0.18114 0.42765 0.29206 0.70508 0.38086 0.19339 0.06187 0.33635 0.065791 0.83594 0.056641 0.66953-0.01238 0.83435-0.052964 1.2148-0.2832 0.25191-0.15265 0.69181-0.55153 0.77734-0.70703 0.35325-0.6426 0.42383-0.88073 0.42383-1.4004 0-0.25507-0.016981-0.48101-0.056641-0.62305-0.27828-0.99604-0.9911-1.6536-2.0215-1.8535-0.35828-0.06947-0.47773-0.10224-0.70703-0.21289-0.53473-0.25798-1.0218-0.88084-1.1582-1.4727-0.02732-0.11857-0.05319-0.63229-0.05664-1.3438-0.004502-0.93896 0.00949-1.1726 0.05664-1.3027 0.22078-0.60916 0.69932-1.0218 1.3281-1.1309 0.60305-0.10446 1.0905-0.43181 1.3574-0.91992 0.17287-0.31613 0.21217-0.43076 0.24023-0.7793 0.08513-1.0575-0.82479-1.9727-1.8516-1.9668zm-4.623 4a2.5 2.5 0 0 1 2.5 2.5 2.5 2.5 0 0 1-2.5 2.5 2.5 2.5 0 0 1-2.5-2.5 2.5 2.5 0 0 1 2.5-2.5zm-0.052734 1c-0.40817 0.0055037-0.78437 0.19161-1.0918 0.5332-0.26572 0.29516-0.35357 0.5608-0.35547 1.0078-0.0012 0.27668 0.016772 0.39954 0.085938 0.57617 0.10695 0.27317 0.39868 0.60792 0.66602 0.76367 0.32756 0.19072 0.73512 0.14972 0.97852-0.11523 0.10189-0.1109 0.21713-0.37973 0.18555-0.43164-0.012488-0.020282-0.15668-0.029297-0.3125-0.029297s-0.33701-0.020495-0.39648-0.042969c-0.25057-0.09616-0.46713-0.43733-0.46875-0.7207-0.00311-0.53736 0.56626-0.91252 1.0508-0.70508 0.15656 0.066992 0.35438 0.26781 0.41016 0.41797 0.0235 0.063261 0.042969 0.42381 0.042969 0.84961v0.73438h0.085938c0.13957 0 0.38745-0.12869 0.49609-0.25977 0.16417-0.19807 0.18939-0.34936 0.16992-0.89258-0.021683-0.6049-0.10349-0.842-0.38281-1.1523-0.22715-0.25234-0.4363-0.39669-0.73828-0.47656-0.14203-0.038373-0.28972-0.058129-0.42578-0.056641z" fill="url(#gr0)"/>
 <path id="path17" d="m13.86 3.414c-0.04 0.111-0.09 0.218-0.18 0.375-0.26 0.488-0.75 0.816-1.35 0.92-0.63 0.109-1.11 0.522-1.33 1.131-0.1 0.13-0.1 0.364-0.1 1.303 0 0.073 0.01 0.115 0.01 0.183 0.01-0.255 0.03-0.412 0.09-0.486 0.22-0.609 0.7-1.022 1.33-1.131 0.6-0.104 1.09-0.432 1.35-0.92 0.18-0.316 0.22-0.431 0.24-0.779 0.02-0.207-0.01-0.406-0.06-0.596zm-9.594 0.145c-0.089 0.133-0.144 0.295-0.145 0.478-0.06 0.385 0.159 0.616 0.481 0.779 0.119 0.064 0.205 0.134 0.281 0.207 0.016-0.017 0.029-0.043 0.045-0.06 0.04-0.042 0.1-0.15 0.14-0.24 0.06-0.142 0.08-0.175 0.03-0.356-0.062-0.238-0.215-0.403-0.496-0.551-0.138-0.069-0.25-0.156-0.336-0.257zm3.234 1.441a2.5 2.5 0 0 0-2.5 2.5 2.5 2.5 0 0 0 0.053 0.496 2.5 2.5 0 0 1 2.369-1.994c0.013 0 0.026-4e-3 0.039-4e-3l4e-3 -2e-3c9e-3 0 0.02 4e-3 0.029 4e-3a2.5 2.5 0 0 1 6e-3 0 2.5 2.5 0 0 1 2.447 2.004 2.5 2.5 0 0 0 0.053-0.504 2.5 2.5 0 0 0-2.5-2.5zm-0.035 1.996-4e-3 2e-3c-0.198 0-0.389 0.047-0.568 0.133-0.081 0.119-0.137 0.253-0.137 0.41 1e-3 0.175 0.088 0.364 0.211 0.512 0.208-0.23 0.534-0.349 0.842-0.217 0.157 0.07 0.352 0.268 0.408 0.418 0.02 0.06 0.039 0.424 0.039 0.85v0.734h0.09c0.038 0 0.092-0.027 0.14-0.043a2.5 2.5 0 0 0 0.188-0.088c0.063-0.04 0.129-0.082 0.168-0.129 0.164-0.198 0.19-0.349 0.17-0.892-5e-3 -0.148-0.015-0.273-0.03-0.383-0.026 0.106-0.068 0.188-0.14 0.275-0.108 0.131-0.356 0.26-0.496 0.26h-0.09v-0.734c0-0.426-0.019-0.79-0.039-0.85-9e-3 -0.025-0.039-0.052-0.055-0.078-0.086-0.044-0.168-0.092-0.271-0.119-0.142-0.04-0.29-0.061-0.426-0.061zm-1.381 1.047c-0.042 0.145-0.067 0.298-0.068 0.496 0 0.277 0.019 0.4 0.089 0.576 0.107 0.273 0.399 0.608 0.666 0.764 0.029 0.016 0.059 0.02 0.088 0.033a2.5 2.5 0 0 0 0.438 0.078c0.17-0.02 0.329-0.095 0.449-0.226 0.102-0.111 0.222-0.38 0.19-0.432-0.01-0.02-0.16-0.029-0.315-0.029-0.156 0-0.334-0.021-0.394-0.041-0.142-0.057-0.268-0.189-0.356-0.344-0.033-0.014-0.068-0.02-0.1-0.039-0.267-0.156-0.559-0.491-0.666-0.764-0.01-0.025-0.013-0.048-0.021-0.072zm-1.623 1.997c-0.454 0.04-0.735 0.21-1.018 0.64-0.226 0.34-0.245 0.36-0.423 0.47-0.326 0.18-0.706 0.28-1.004 0.18-0.419-0.13-0.678-0.31-0.85-0.62-0.028-0.05-0.035-0.1-0.057-0.15-0.1655 0.36-0.1542 0.77 0.057 1.15 0.172 0.31 0.431 0.49 0.85 0.62 0.298 0.1 0.678 0 1.004-0.18 0.178-0.11 0.197-0.13 0.423-0.47 0.283-0.43 0.564-0.6 1.018-0.64 0.325 0 0.544 0.1 0.805 0.26 0.217 0.18 0.686 0.44 0.976 0.54 0.405 0.14 0.741 0.19 1.428 0.21 0.557 0 0.715 0 0.904 0.1 0.35 0.12 0.715 0.36 0.934 0.61 0.241 0.27 0.476 0.74 0.532 1.07 0.14 0.79 0.42 1.27 1 1.73 0.22 0.18 0.42 0.29 0.7 0.38 0.19 0.1 0.34 0.1 0.84 0.1 0.67 0 0.83-0.1 1.21-0.29 0.25-0.15 0.69-0.55 0.78-0.7 0.35-0.65 0.42-0.88 0.42-1.4 0-0.19-0.01-0.35-0.05-0.48-0.06 0.24-0.16 0.49-0.37 0.88-0.09 0.15-0.53 0.55-0.78 0.7-0.38 0.19-0.54 0.29-1.21 0.29-0.5 0-0.65 0-0.84-0.1-0.28-0.09-0.48-0.2-0.7-0.38-0.58-0.46-0.86-0.94-1-1.73-0.056-0.33-0.291-0.8-0.532-1.07-0.219-0.25-0.584-0.49-0.934-0.61-0.189-0.1-0.347-0.1-0.904-0.1-0.687-0.02-1.023-0.07-1.428-0.21-0.29-0.1-0.759-0.36-0.976-0.54-0.261-0.16-0.48-0.26-0.805-0.26z" opacity=".45"/>
 <path id="path24" d="m12.12 1c-0.1 0-0.2-7e-4 -0.31 0.029-0.75 0.146-1.33 0.718-1.48 1.457-0.1 0.289-0.14 0.517-0.23 0.696-0.1 0.152-0.409 0.476-0.606 0.591-0.304 0.179-0.743 0.281-0.92 0.213-0.682-0.152-1.322-0.059-2.021-0.029-0.342 0-0.465-0.07-0.621-0.34-0.08-0.135-0.1-0.212-0.1-0.451 0-0.346-0.09-0.593-0.297-0.779-0.54-0.496-1.411-0.09-1.414 0.65-0.034 0.22 0.028 0.386 0.143 0.522 0.269-0.408 0.864-0.546 1.271-0.172 0.207 0.186 0.297 0.433 0.297 0.779 0 0.239 0.02 0.316 0.1 0.451 0.156 0.27 0.279 0.34 0.621 0.34 0.699-0.03 1.339-0.123 2.021 0.029 0.177 0.068 0.616-0.034 0.92-0.213 0.197-0.115 0.506-0.439 0.606-0.591 0.09-0.179 0.13-0.407 0.23-0.696 0.15-0.739 0.73-1.311 1.48-1.457 0.11-0.03 0.21-0.029 0.31-0.029l-0.05 0.043c0.83-5e-3 1.58 0.588 1.79 1.369 0.03-0.112 0.05-0.228 0.06-0.402 0.1-1.058-0.82-1.973-1.85-1.967l0.05-0.043zm-7.237 4.023c-0.352 0.388-0.696 0.958-0.819 1.37-0.112 0.376-0.173 0.919-0.154 1.343 0.02 0.398 0 0.41-0.113 0.61-0.27 0.383-0.855 0.55-1.117 0.48-0.228-0.06-0.579-0.04-0.651-0.01-0.253 0.07-0.481 0.223-0.664 0.368-0.372 0.379-0.4541 0.896-0.256 1.376 0.062-0.14 0.144-0.27 0.256-0.38 0.183-0.14 0.411-0.294 0.664-0.364 0.072-0.03 0.423-0.05 0.651 0.01 0.262 0.07 0.847-0.097 1.117-0.48 0.113-0.2 0.133-0.212 0.113-0.61-0.019-0.424 0.042-0.967 0.154-1.343 0.128-0.43 0.496-1.044 0.864-1.43 0.04-0.042 0.1-0.15 0.14-0.24 0.06-0.142 0.08-0.175 0.03-0.356-0.036-0.136-0.113-0.245-0.215-0.344zm2.592 0.977a2.5 2.5 0 0 0-0.045 2e-3c-0.401 6e-3 -0.77 0.196-1.073 0.531-0.265 0.295-0.351 0.561-0.353 1.008 0 0.237 0.02 0.363 0.068 0.504 0.054-0.183 0.138-0.347 0.285-0.512 0.159-0.175 0.337-0.309 0.526-0.4 0.195-0.289 0.571-0.442 0.914-0.295 0.131 0.058 0.272 0.204 0.353 0.338 0.167 0.085 0.319 0.193 0.469 0.359 0.211 0.235 0.309 0.428 0.354 0.768 0.033-0.135 0.04-0.313 0.029-0.615-0.02-0.605-0.103-0.842-0.383-1.153-0.227-0.252-0.436-0.396-0.738-0.476-0.136-0.039-0.276-0.057-0.406-0.059zm3.435 1.326c-0.01 0.191-0.01 0.415-0.01 0.817 0 0.711 0.1 1.225 0.1 1.343 0.14 0.594 0.62 1.214 1.16 1.474 0.23 0.11 0.35 0.11 0.7 0.21 1.03 0.2 1.75 0.86 2.03 1.85 0.03 0.04 0.03 0.1 0.05 0.15 0.03-0.16 0.05-0.32 0.05-0.52 0-0.26 0-0.49-0.1-0.63-0.28-0.99-1-1.65-2.03-1.85-0.35-0.1-0.47-0.1-0.7-0.211-0.54-0.258-1.02-0.881-1.16-1.473 0-0.106-0.07-0.56-0.09-1.16zm-5.857 0.67a2.5 2.5 0 0 0-0.053 0.504 2.5 2.5 0 0 0 2.5 2.5 2.5 2.5 0 0 0 2.5-2.5 2.5 2.5 0 0 0-0.053-0.496 2.5 2.5 0 0 1-1.304 1.721 2.5 2.5 0 0 1-8e-3 4e-3c-0.051 0.03-0.09 0.043-0.141 0.062a2.5 2.5 0 0 1-0.994 0.209 2.5 2.5 0 0 1-0.207-0.01c-0.16 0.02-0.325-0.013-0.481-0.09a2.5 2.5 0 0 1-1.759-1.904zm1.902 0.059c-0.119 0.132-0.211 0.292-0.211 0.488 1e-3 0.124 0.049 0.257 0.117 0.377 0.308 0.131 0.656 0.084 0.875-0.154 0.102-0.111 0.22-0.38 0.188-0.432-0.01-0.02-0.158-0.029-0.313-0.029-0.156 0-0.336-0.021-0.396-0.041-0.097-0.039-0.184-0.117-0.26-0.209z" fill="#fff" opacity=".6"/>
</svg>
