<?xml version="1.0" encoding="UTF-8"?>
<svg id="svg29" width="16" height="16" version="1.1" xmlns="http://www.w3.org/2000/svg" xmlns:cc="http://creativecommons.org/ns#" xmlns:dc="http://purl.org/dc/elements/1.1/" xmlns:rdf="http://www.w3.org/1999/02/22-rdf-syntax-ns#">
 <metadata id="metadata33">
  <rdf:RDF>
   <cc:Work rdf:about="">
    <dc:format>image/svg+xml</dc:format>
    <dc:type rdf:resource="http://purl.org/dc/dcmitype/StillImage"/>
   </cc:Work>
  </rdf:RDF>
 </metadata>
 <defs id="defs7">
  <linearGradient id="gr0" x1="8" x2="8" y1="4.652" y2="11.347" gradientUnits="userSpaceOnUse">
   <stop id="stop2" stop-color="#ebebeb" offset="0"/>
   <stop id="stop4" stop-color="#aaa" offset="1"/>
  </linearGradient>
 </defs>
 <path id="path9" d="m4.346 3.652c-1.001 1e-3 -1.909 0.912-1.91 1.91-1e-3 0.35 0.218 0.636 0.404 0.928-0.291-0.185-0.577-0.401-0.924-0.402-1.0008 0-1.913 0.909-1.914 1.91-5e-4 0.458 0.22685 0.877 0.52925 1.219-0.3024 0.342-0.52975 0.76-0.52925 1.223 0.0022 1 0.91315 1.91 1.914 1.91 0.457 0 0.874-0.23 1.215-0.53 0.341 0.3 0.759 0.53 1.217 0.53 1.001 0 1.915-0.91 1.916-1.91 0-0.35-0.219-0.639-0.405-0.93 0.293 0.185 0.58 0.404 0.928 0.404 0.457-1e-3 0.874-0.229 1.215-0.531 0.341 0.302 0.757 0.531 1.215 0.531 0.349 0 0.639-0.219 0.923-0.406-0.177 0.292-0.398 0.582-0.398 0.932 1e-3 1 0.908 1.91 1.908 1.91 0.46 0 0.88-0.23 1.22-0.53 0.34 0.3 0.76 0.53 1.22 0.53 1 0 1.91-0.91 1.91-1.91 0-0.464-0.23-0.88-0.53-1.221 0.3-0.342 0.53-0.763 0.53-1.221 0-1-0.91-1.909-1.91-1.91-0.35 0-0.64 0.218-0.93 0.404 0.19-0.293 0.41-0.58 0.41-0.93 0-1-0.92-1.911-1.92-1.91-0.46 1e-3 -0.88 0.229-1.22 0.532-0.34-0.302-0.755-0.532-1.213-0.532-0.457 1e-3 -0.874 0.228-1.215 0.53-0.341-0.302-0.758-0.529-1.215-0.53-0.458 0-0.877 0.23-1.219 0.532-0.342-0.303-0.762-0.532-1.22-0.532h-2e-3zm2e-3 1a0.9131 0.9131 0 0 1 0.914 0.912 0.9131 0.9131 0 0 1-0.914 0.915 0.9131 0.9131 0 0 1-0.912-0.915 0.9131 0.9131 0 0 1 0.912-0.912zm2.435 0a0.9131 0.9131 0 0 1 0.912 0.912 0.9131 0.9131 0 0 1-0.912 0.915 0.9131 0.9131 0 0 1-0.914-0.915 0.9131 0.9131 0 0 1 0.914-0.912zm2.434 0a0.9131 0.9131 0 0 1 0.913 0.912 0.9131 0.9131 0 0 1-0.913 0.915 0.9131 0.9131 0 0 1-0.912-0.915 0.9131 0.9131 0 0 1 0.912-0.912zm2.433 0a0.9131 0.9131 0 0 1 0.92 0.912 0.9131 0.9131 0 0 1-0.92 0.915 0.9131 0.9131 0 0 1-0.91-0.915 0.9131 0.9131 0 0 1 0.91-0.912zm-9.736 2.436a0.9131 0.9131 0 0 1 0.912 0.912 0.9131 0.9131 0 0 1-0.912 0.914 0.9131 0.9131 0 0 1-0.914-0.914 0.9131 0.9131 0 0 1 0.914-0.912zm2.434 0a0.9131 0.9131 0 0 1 0.914 0.912 0.9131 0.9131 0 0 1-0.914 0.914 0.9131 0.9131 0 0 1-0.912-0.914 0.9131 0.9131 0 0 1 0.912-0.912zm2.435 0a0.9131 0.9131 0 0 1 0.912 0.912 0.9131 0.9131 0 0 1-0.912 0.914 0.9131 0.9131 0 0 1-0.914-0.914 0.9131 0.9131 0 0 1 0.914-0.912zm2.434 0a0.9131 0.9131 0 0 1 0.913 0.912 0.9131 0.9131 0 0 1-0.913 0.914 0.9131 0.9131 0 0 1-0.912-0.914 0.9131 0.9131 0 0 1 0.912-0.912zm2.433 0a0.9131 0.9131 0 0 1 0.92 0.912 0.9131 0.9131 0 0 1-0.92 0.914 0.9131 0.9131 0 0 1-0.91-0.914 0.9131 0.9131 0 0 1 0.91-0.912zm2.44 0a0.9131 0.9131 0 0 1 0.91 0.912 0.9131 0.9131 0 0 1-0.91 0.914 0.9131 0.9131 0 0 1-0.92-0.914 0.9131 0.9131 0 0 1 0.92-0.912zm-12.176 2.433a0.9131 0.9131 0 0 1 0.912 0.919 0.9131 0.9131 0 0 1-0.912 0.91 0.9131 0.9131 0 0 1-0.914-0.91 0.9131 0.9131 0 0 1 0.914-0.919zm2.434 0a0.9131 0.9131 0 0 1 0.914 0.919 0.9131 0.9131 0 0 1-0.914 0.91 0.9131 0.9131 0 0 1-0.912-0.91 0.9131 0.9131 0 0 1 0.912-0.919zm7.302 0a0.9131 0.9131 0 0 1 0.92 0.919 0.9131 0.9131 0 0 1-0.92 0.91 0.9131 0.9131 0 0 1-0.91-0.91 0.9131 0.9131 0 0 1 0.91-0.919zm2.44 0a0.9131 0.9131 0 0 1 0.91 0.919 0.9131 0.9131 0 0 1-0.91 0.91 0.9131 0.9131 0 0 1-0.92-0.91 0.9131 0.9131 0 0 1 0.92-0.919z" opacity=".25"/>
 <path id="base" d="m4.3477 4.6523a0.91305 0.91305 0 0 0-0.91211 0.91211 0.91305 0.91305 0 0 0 0.91211 0.91406 0.91305 0.91305 0 0 0 0.91406-0.91406 0.91305 0.91305 0 0 0-0.91406-0.91211zm2.4355 0a0.91305 0.91305 0 0 0-0.91406 0.91211 0.91305 0.91305 0 0 0 0.91406 0.91406 0.91305 0.91305 0 0 0 0.91211-0.91406 0.91305 0.91305 0 0 0-0.91211-0.91211zm2.4336 0a0.91305 0.91305 0 0 0-0.91211 0.91211 0.91305 0.91305 0 0 0 0.91211 0.91406 0.91305 0.91305 0 0 0 0.91406-0.91406 0.91305 0.91305 0 0 0-0.91406-0.91211zm2.4355 0a0.91305 0.91305 0 0 0-0.91211 0.91211 0.91305 0.91305 0 0 0 0.91211 0.91406 0.91305 0.91305 0 0 0 0.91406-0.91406 0.91305 0.91305 0 0 0-0.91406-0.91211zm-9.7383 2.4355a0.91305 0.91305 0 0 0-0.91406 0.91211 0.91305 0.91305 0 0 0 0.91406 0.91406 0.91305 0.91305 0 0 0 0.91211-0.91406 0.91305 0.91305 0 0 0-0.91211-0.91211zm2.4336 0a0.91305 0.91305 0 0 0-0.91211 0.91211 0.91305 0.91305 0 0 0 0.91211 0.91406 0.91305 0.91305 0 0 0 0.91406-0.91406 0.91305 0.91305 0 0 0-0.91406-0.91211zm2.4355 0a0.91305 0.91305 0 0 0-0.91406 0.91211 0.91305 0.91305 0 0 0 0.91406 0.91406 0.91305 0.91305 0 0 0 0.91211-0.91406 0.91305 0.91305 0 0 0-0.91211-0.91211zm2.4336 0a0.91305 0.91305 0 0 0-0.91211 0.91211 0.91305 0.91305 0 0 0 0.91211 0.91406 0.91305 0.91305 0 0 0 0.91406-0.91406 0.91305 0.91305 0 0 0-0.91406-0.91211zm2.4355 0a0.91305 0.91305 0 0 0-0.91211 0.91211 0.91305 0.91305 0 0 0 0.91211 0.91406 0.91305 0.91305 0 0 0 0.91406-0.91406 0.91305 0.91305 0 0 0-0.91406-0.91211zm2.4355 0a0.91305 0.91305 0 0 0-0.91406 0.91211 0.91305 0.91305 0 0 0 0.91406 0.91406 0.91305 0.91305 0 0 0 0.91211-0.91406 0.91305 0.91305 0 0 0-0.91211-0.91211zm-12.174 2.4336a0.91305 0.91305 0 0 0-0.91406 0.91406 0.91305 0.91305 0 0 0 0.91406 0.91211 0.91305 0.91305 0 0 0 0.91211-0.91211 0.91305 0.91305 0 0 0-0.91211-0.91406zm2.4336 0a0.91305 0.91305 0 0 0-0.91211 0.91406 0.91305 0.91305 0 0 0 0.91211 0.91211 0.91305 0.91305 0 0 0 0.91406-0.91211 0.91305 0.91305 0 0 0-0.91406-0.91406zm7.3047 0a0.91305 0.91305 0 0 0-0.91211 0.91406 0.91305 0.91305 0 0 0 0.91211 0.91211 0.91305 0.91305 0 0 0 0.91406-0.91211 0.91305 0.91305 0 0 0-0.91406-0.91406zm2.4355 0a0.91305 0.91305 0 0 0-0.91406 0.91406 0.91305 0.91305 0 0 0 0.91406 0.91211 0.91305 0.91305 0 0 0 0.91211-0.91211 0.91305 0.91305 0 0 0-0.91211-0.91406z" fill="url(#gr0)"/>
 <path id="path17" d="m3.584 6.064a0.9131 0.9131 0 0 0-0.148 0.5 0.9131 0.9131 0 0 0 0.349 0.719 0.9131 0.9131 0 0 1 0.563-0.195 0.9131 0.9131 0 0 1 0.564 0.195 0.9131 0.9131 0 0 0 0.35-0.719 0.9131 0.9131 0 0 0-0.149-0.498 0.9131 0.9131 0 0 1-0.765 0.413 0.9131 0.9131 0 0 1-0.764-0.415zm2.434 0a0.9131 0.9131 0 0 0-0.149 0.5 0.9131 0.9131 0 0 0 0.35 0.719 0.9131 0.9131 0 0 1 0.564-0.195 0.9131 0.9131 0 0 1 0.563 0.195 0.9131 0.9131 0 0 0 0.349-0.719 0.9131 0.9131 0 0 0-0.15-0.498 0.9131 0.9131 0 0 1-0.762 0.413 0.9131 0.9131 0 0 1-0.765-0.415zm2.435 0a0.9131 0.9131 0 0 0-0.148 0.5 0.9131 0.9131 0 0 0 0.349 0.719 0.9131 0.9131 0 0 1 0.563-0.195 0.9131 0.9131 0 0 1 0.562 0.195 0.9131 0.9131 0 0 0 0.351-0.719 0.9131 0.9131 0 0 0-0.15-0.5 0.9131 0.9131 0 0 1-0.763 0.415 0.9131 0.9131 0 0 1-0.764-0.415zm2.437 0a0.9131 0.9131 0 0 0-0.15 0.5 0.9131 0.9131 0 0 0 0.35 0.719 0.9131 0.9131 0 0 1 0.56-0.195 0.9131 0.9131 0 0 1 0.57 0.195 0.9131 0.9131 0 0 0 0.35-0.719 0.9131 0.9131 0 0 0-0.15-0.498 0.9131 0.9131 0 0 1-0.77 0.413 0.9131 0.9131 0 0 1-0.76-0.415zm-7.304 2.436a0.9131 0.9131 0 0 0-0.15 0.5 0.9131 0.9131 0 0 0 0.349 0.717 0.9131 0.9131 0 0 1 0.563-0.196 0.9131 0.9131 0 0 1 0.566 0.196 0.9131 0.9131 0 0 0 0.348-0.717 0.9131 0.9131 0 0 0-0.151-0.498 0.9131 0.9131 0 0 1-0.763 0.412 0.9131 0.9131 0 0 1-0.762-0.414zm4.869 0a0.9131 0.9131 0 0 0-0.15 0.5 0.9131 0.9131 0 0 0 0.912 0.914 0.9131 0.9131 0 0 0 0.913-0.914 0.9131 0.9131 0 0 0-0.15-0.5 0.9131 0.9131 0 0 1-0.763 0.414 0.9131 0.9131 0 0 1-0.762-0.414zm2.435 0a0.9131 0.9131 0 0 0-0.15 0.5 0.9131 0.9131 0 0 0 0.35 0.719 0.9131 0.9131 0 0 1 0.56-0.198 0.9131 0.9131 0 0 1 0.57 0.196 0.9131 0.9131 0 0 0 0.35-0.717 0.9131 0.9131 0 0 0-0.15-0.498 0.9131 0.9131 0 0 1-0.77 0.412 0.9131 0.9131 0 0 1-0.76-0.414zm-9.74 2e-3a0.9131 0.9131 0 0 0-0.15 0.498 0.9131 0.9131 0 0 0 0.35 0.717 0.9131 0.9131 0 0 1 0.564-0.196 0.9131 0.9131 0 0 1 0.565 0.196 0.9131 0.9131 0 0 0 0.347-0.717 0.9131 0.9131 0 0 0-0.15-0.498 0.9131 0.9131 0 0 1-0.762 0.412 0.9131 0.9131 0 0 1-0.764-0.412zm4.87 0a0.9131 0.9131 0 0 0-0.151 0.498 0.9131 0.9131 0 0 0 0.914 0.914 0.9131 0.9131 0 0 0 0.912-0.914 0.9131 0.9131 0 0 0-0.15-0.498 0.9131 0.9131 0 0 1-0.762 0.412 0.9131 0.9131 0 0 1-0.763-0.412zm7.3 0a0.9131 0.9131 0 0 0-0.15 0.498 0.9131 0.9131 0 0 0 0.35 0.717 0.9131 0.9131 0 0 1 0.57-0.196 0.9131 0.9131 0 0 1 0.56 0.196 0.9131 0.9131 0 0 0 0.35-0.717 0.9131 0.9131 0 0 0-0.15-0.498 0.9131 0.9131 0 0 1-0.76 0.412 0.9131 0.9131 0 0 1-0.77-0.412zm-12.172 2.428a0.9131 0.9131 0 0 0-0.148 0.51 0.9131 0.9131 0 0 0 0.914 0.91 0.9131 0.9131 0 0 0 0.912-0.91 0.9131 0.9131 0 0 0-0.148-0.5 0.9131 0.9131 0 0 1-0.764 0.41 0.9131 0.9131 0 0 1-0.766-0.42zm9.742 0a0.9131 0.9131 0 0 0-0.15 0.51 0.9131 0.9131 0 0 0 0.91 0.91 0.9131 0.9131 0 0 0 0.92-0.91 0.9131 0.9131 0 0 0-0.15-0.5 0.9131 0.9131 0 0 1-0.77 0.41 0.9131 0.9131 0 0 1-0.76-0.42zm2.43 0a0.9131 0.9131 0 0 0-0.15 0.51 0.9131 0.9131 0 0 0 0.92 0.91 0.9131 0.9131 0 0 0 0.91-0.91 0.9131 0.9131 0 0 0-0.15-0.5 0.9131 0.9131 0 0 1-0.76 0.41 0.9131 0.9131 0 0 1-0.77-0.42zm-9.736 0.01a0.9131 0.9131 0 0 0-0.148 0.5 0.9131 0.9131 0 0 0 0.912 0.91 0.9131 0.9131 0 0 0 0.914-0.91 0.9131 0.9131 0 0 0-0.149-0.5 0.9131 0.9131 0 0 1-0.765 0.41 0.9131 0.9131 0 0 1-0.764-0.41z" opacity=".45"/>
 <path id="path24" d="m4.348 4.652a0.9131 0.9131 0 0 0-0.912 0.912 0.9131 0.9131 0 0 0 0.15 0.5 0.9131 0.9131 0 0 1 0.762-0.412 0.9131 0.9131 0 0 1 0.763 0.414 0.9131 0.9131 0 0 0 0.151-0.502 0.9131 0.9131 0 0 0-0.914-0.912zm2.435 0a0.9131 0.9131 0 0 0-0.914 0.912 0.9131 0.9131 0 0 0 0.149 0.5 0.9131 0.9131 0 0 1 0.765-0.412 0.9131 0.9131 0 0 1 0.762 0.412 0.9131 0.9131 0 0 0 0.15-0.5 0.9131 0.9131 0 0 0-0.912-0.912zm2.434 0a0.9131 0.9131 0 0 0-0.912 0.912 0.9131 0.9131 0 0 0 0.15 0.5 0.9131 0.9131 0 0 1 0.762-0.412 0.9131 0.9131 0 0 1 0.763 0.412 0.9131 0.9131 0 0 0 0.15-0.5 0.9131 0.9131 0 0 0-0.913-0.912zm2.433 0a0.9131 0.9131 0 0 0-0.91 0.912 0.9131 0.9131 0 0 0 0.15 0.5 0.9131 0.9131 0 0 1 0.76-0.412 0.9131 0.9131 0 0 1 0.77 0.414 0.9131 0.9131 0 0 0 0.15-0.502 0.9131 0.9131 0 0 0-0.92-0.912zm-9.736 2.436a0.9131 0.9131 0 0 0-0.914 0.912 0.9131 0.9131 0 0 0 0.15 0.502 0.9131 0.9131 0 0 1 0.764-0.414 0.9131 0.9131 0 0 1 0.762 0.414 0.9131 0.9131 0 0 0 0.15-0.502 0.9131 0.9131 0 0 0-0.912-0.912zm12.176 0a0.9131 0.9131 0 0 0-0.92 0.912 0.9131 0.9131 0 0 0 0.15 0.5 0.9131 0.9131 0 0 1 0.77-0.412 0.9131 0.9131 0 0 1 0.76 0.414 0.9131 0.9131 0 0 0 0.15-0.502 0.9131 0.9131 0 0 0-0.91-0.912zm-9.178 0.193a0.9131 0.9131 0 0 1-0.564 0.198 0.9131 0.9131 0 0 1-0.561-0.196 0.9131 0.9131 0 0 0-0.351 0.717 0.9131 0.9131 0 0 0 0.148 0.5 0.9131 0.9131 0 0 1 0.764-0.412 0.9131 0.9131 0 0 1 0.763 0.414 0.9131 0.9131 0 0 0 0.151-0.502 0.9131 0.9131 0 0 0-0.35-0.719zm7.308 0a0.9131 0.9131 0 0 1-0.57 0.198 0.9131 0.9131 0 0 1-0.56-0.196 0.9131 0.9131 0 0 0-0.35 0.717 0.9131 0.9131 0 0 0 0.15 0.5 0.9131 0.9131 0 0 1 0.76-0.412 0.9131 0.9131 0 0 1 0.77 0.414 0.9131 0.9131 0 0 0 0.15-0.502 0.9131 0.9131 0 0 0-0.35-0.719zm-6.001 2e-3a0.9131 0.9131 0 0 0-0.35 0.717 0.9131 0.9131 0 0 0 0.151 0.502 0.9131 0.9131 0 0 1 0.763-0.414 0.9131 0.9131 0 0 1 0.762 0.414 0.9131 0.9131 0 0 0 0.15-0.502 0.9131 0.9131 0 0 0-0.351-0.717 0.9131 0.9131 0 0 1-0.561 0.196 0.9131 0.9131 0 0 1-0.564-0.196zm2.437 0a0.9131 0.9131 0 0 0-0.351 0.717 0.9131 0.9131 0 0 0 0.15 0.5 0.9131 0.9131 0 0 1 0.762-0.412 0.9131 0.9131 0 0 1 0.763 0.412 0.9131 0.9131 0 0 0 0.15-0.5 0.9131 0.9131 0 0 0-0.351-0.717 0.9131 0.9131 0 0 1-0.562 0.196 0.9131 0.9131 0 0 1-0.561-0.196zm-6.177 2.434a0.9131 0.9131 0 0 1-0.565 0.197 0.9131 0.9131 0 0 1-0.566-0.195 0.9131 0.9131 0 0 0-0.348 0.721 0.9131 0.9131 0 0 0 0.148 0.5 0.9131 0.9131 0 0 1 0.766-0.42 0.9131 0.9131 0 0 1 0.764 0.42 0.9131 0.9131 0 0 0 0.148-0.5 0.9131 0.9131 0 0 0-0.347-0.723zm2.433 0a0.9131 0.9131 0 0 1-0.564 0.197 0.9131 0.9131 0 0 1-0.565-0.195 0.9131 0.9131 0 0 0-0.347 0.721 0.9131 0.9131 0 0 0 0.148 0.5 0.9131 0.9131 0 0 1 0.764-0.42 0.9131 0.9131 0 0 1 0.765 0.42 0.9131 0.9131 0 0 0 0.149-0.5 0.9131 0.9131 0 0 0-0.35-0.723zm7.308 0a0.9131 0.9131 0 0 1-0.57 0.197 0.9131 0.9131 0 0 1-0.56-0.195 0.9131 0.9131 0 0 0-0.35 0.721 0.9131 0.9131 0 0 0 0.15 0.49 0.9131 0.9131 0 0 1 0.76-0.41 0.9131 0.9131 0 0 1 0.77 0.42 0.9131 0.9131 0 0 0 0.15-0.5 0.9131 0.9131 0 0 0-0.35-0.723zm1.3 0a0.9131 0.9131 0 0 0-0.35 0.723 0.9131 0.9131 0 0 0 0.15 0.49 0.9131 0.9131 0 0 1 0.77-0.41 0.9131 0.9131 0 0 1 0.76 0.42 0.9131 0.9131 0 0 0 0.15-0.5 0.9131 0.9131 0 0 0-0.35-0.723 0.9131 0.9131 0 0 1-0.56 0.197 0.9131 0.9131 0 0 1-0.57-0.197z" fill="#fff" opacity=".6"/>
</svg>
