<?xml version="1.0" encoding="UTF-8"?>
<svg id="svg29" width="16" height="16" version="1.1" xmlns="http://www.w3.org/2000/svg" xmlns:cc="http://creativecommons.org/ns#" xmlns:dc="http://purl.org/dc/elements/1.1/" xmlns:rdf="http://www.w3.org/1999/02/22-rdf-syntax-ns#">
 <metadata id="metadata33">
  <rdf:RDF>
   <cc:Work rdf:about="">
    <dc:format>image/svg+xml</dc:format>
    <dc:type rdf:resource="http://purl.org/dc/dcmitype/StillImage"/>
   </cc:Work>
  </rdf:RDF>
 </metadata>
 <defs id="defs7">
  <linearGradient id="gr0" x1="8" x2="8" y1="2" y2="14" gradientUnits="userSpaceOnUse">
   <stop id="stop2" stop-color="#ebebeb" offset="0"/>
   <stop id="stop4" stop-color="#aaa" offset="1"/>
  </linearGradient>
 </defs>
 <path id="path9" d="m7.975 1c-1.479 0-2.731 0.974-3.616 2.332-2.413 0.647-4.359 2.362-4.359 4.668 0 0.499 0.1129 0.947 0.252 1.336a1 1 0 0 0 0.1562 0.281c0.08 0.102 0.2598 0.101 0.3652 0.192a1 1 0 0 0 0.2012 0.821c0.7954 0.98 1.9984 1.66 3.3714 2.03 0.885 1.36 2.142 2.34 3.625 2.34h0.041a1 1 0 0 0 0.926-1.37c-0.122-0.31-0.207-0.69-0.309-1.04 1.075-0.29 1.981-0.78 2.721-1.46 0.93 1.08 2.17 1.87 3.63 1.87a1 1 0 0 0 0.86-1.51c-0.54-0.91-0.88-2.175-0.88-3.488 0-1.312 0.34-2.574 0.88-3.484a1 1 0 0 0-0.78-1.508 1 1 0 0 0-0.1 0c-1.46 0-2.7 0.788-3.63 1.873-0.74-0.681-1.649-1.167-2.723-1.457 0.101-0.354 0.189-0.738 0.311-1.047a1 1 0 0 0-0.766-1.352h-0.029a1 1 0 0 0-0.162-9e-3l0.014-0.018zm2e-3 1 7e-3 6e-3s0.022-1e-3 0.022 0c-0.244 0.62-0.45 1.313-0.61 2.06 1.778 0.211 3.244 1.033 4.014 2.166 0.67-1.365 2.05-2.23 3.56-2.23-0.66 1.098-1.02 2.522-1.02 3.998 0 1.477 0.37 2.9 1.02 4-1.51 0-2.89-0.87-3.56-2.232-0.77 1.132-2.235 1.962-4.014 2.172 0.16 0.74 0.367 1.44 0.612 2.06h-0.031c-1.187 0-2.313-0.8-3.067-2.19-1.344-0.29-2.462-0.95-3.156-1.81h0.746c0.277 0 0.5-0.223 0.5-0.5s-0.301-0.693-0.5-0.5c-0.487 0.472-0.924 0.487-1.307 0-0.113-0.321-0.193-0.652-0.193-1 0-1.811 1.65-3.316 3.912-3.812 0.754-1.384 1.878-2.188 3.065-2.188zm-4.477 4.75c-0.414 0-0.75 0.336-0.75 0.75s0.336 0.75 0.75 0.75 0.75-0.336 0.75-0.75-0.336-0.75-0.75-0.75zm0 0.5c0.126 0 0.25 0.124 0.25 0.25s-0.124 0.25-0.25 0.25-0.25-0.124-0.25-0.25 0.124-0.25 0.25-0.25z" opacity=".25"/>
 <path id="base" d="m7.9766 2c-1.1866 0.0021385-2.3105 0.80441-3.0645 2.1875-2.2624 0.49582-3.9121 2.0013-3.9121 3.8125 0 0.34807 0.07887 0.67948 0.19336 1 0.38266 0.4866 0.81982 0.47169 1.3066 0 0.19894-0.19275 0.5 0.223 0.5 0.5s-0.223 0.5-0.5 0.5h-0.74609c0.69363 0.86059 1.8118 1.5175 3.1562 1.8125 0.75441 1.3839 1.8791 2.1862 3.0664 2.1875 0.00846 4.1e-5 0.016927 4.1e-5 0.025391 0-0.24496-0.62082-0.4507-1.3156-0.61133-2.0645 1.7797-0.21035 3.2532-1.0333 4.0234-2.168 0.66823 1.3652 2.0483 2.2305 3.5605 2.2324 0.0085 2.7e-5 0.01693 2.7e-5 0.02539 0-0.65448-1.0984-1.0175-2.5227-1.0195-4 0.0018-1.4763 0.3641-2.8997 1.0176-3.998-0.0078-6.743e-4 -0.01562-0.00133-0.02344-0.00195-1.5125 8.34e-4 -2.8934 0.86543-3.5625 2.2305-0.77038-1.1331-2.2418-1.9554-4.0195-2.166 0.15956-0.74697 0.36397-1.4404 0.60742-2.0605-0.0078099-0.001337-0.015622-0.0026391-0.023438-0.0039062zm-4.4766 4.75c0.41421 0 0.75 0.33579 0.75 0.75s-0.33579 0.75-0.75 0.75-0.75-0.33579-0.75-0.75 0.33579-0.75 0.75-0.75z" fill="url(#gr0)"/>
 <path id="path17" d="m7.977 3c-0.107 0-0.212 0.015-0.317 0.027-0.097 0.333-0.186 0.679-0.264 1.039 0.084 0.01 0.163 0.029 0.245 0.041 0.11-0.386 0.229-0.757 0.365-1.101 0-1e-3 -0.022 0-0.022 0l-7e-3 -6e-3zm6.993 2.002c-0.16 0-0.33 0.013-0.49 0.033-0.34 0.898-0.53 1.916-0.53 2.965 0 0.166 0.02 0.328 0.03 0.492 0.07-1.291 0.41-2.519 0.99-3.49zm-11.47 1.748c-0.414 0-0.75 0.336-0.75 0.75 0 0.194 0.08 0.367 0.201 0.5 0.137-0.151 0.329-0.25 0.549-0.25s0.412 0.099 0.549 0.25c0.121-0.133 0.201-0.306 0.201-0.5 0-0.414-0.336-0.75-0.75-0.75zm-2.443 1.764c-0.027 0.16-0.057 0.32-0.057 0.486 0 0.348 0.08 0.679 0.193 1 0.259 0.33 0.545 0.41 0.852 0.29-0.097-0.09-0.207-0.19-0.291-0.29h0.746c0.053-0.052 0.114-0.056 0.174-0.035 0.19-0.071 0.326-0.25 0.326-0.465 0-0.277-0.301-0.693-0.5-0.5-0.487 0.472-0.924 0.487-1.307 0-0.056-0.159-0.102-0.321-0.136-0.486zm10.353 1.254c-0.77 1.132-2.235 1.962-4.014 2.172 0.072 0.33 0.156 0.65 0.245 0.96 1.666-0.26 3.039-1.05 3.769-2.13 0.67 1.36 2.05 2.23 3.56 2.23-0.19-0.32-0.34-0.67-0.48-1.04-1.32-0.16-2.48-0.98-3.08-2.192zm-8.631 1.132c-0.08 0.06-0.173 0.1-0.279 0.1h-0.746c0.694 0.86 1.812 1.52 3.156 1.81 0.754 1.39 1.88 2.19 3.067 2.19h0.031c-0.128-0.32-0.244-0.67-0.35-1.03-1.067-0.13-2.062-0.89-2.748-2.16-0.813-0.17-1.527-0.5-2.131-0.91z" opacity=".45"/>
 <path id="path24" d="m7.977 2c-1.187 0-2.311 0.805-3.065 2.188-2.262 0.496-3.912 2.001-3.912 3.812 0 0.175 0.022 0.346 0.057 0.514 0.266-1.589 1.8-2.876 3.855-3.326 0.686-1.259 1.679-2.03 2.746-2.161 0.105-0.357 0.219-0.7 0.346-1.021 0-1e-3 -0.02 0-0.02 0l-7e-3 -6e-3zm6.993 2.002c-1.51 0-2.89 0.865-3.56 2.23-0.73-1.08-2.105-1.872-3.771-2.127-0.089 0.31-0.171 0.628-0.243 0.961 1.778 0.211 3.244 1.033 4.014 2.166 0.6-1.215 1.76-2.032 3.07-2.197 0.14-0.365 0.3-0.716 0.49-1.033zm-12.019 3.998c-0.121 0.133-0.201 0.306-0.201 0.5 0 0.414 0.336 0.75 0.75 0.75s0.75-0.336 0.75-0.75c0-0.194-0.08-0.367-0.201-0.5-0.137 0.151-0.329 0.25-0.549 0.25s-0.412-0.099-0.549-0.25zm11.029 0.492c-0.01 0.17-0.03 0.337-0.03 0.508 0 1.05 0.2 2.07 0.54 2.96 0.16 0.02 0.32 0.04 0.48 0.04-0.58-0.98-0.92-2.211-0.99-3.508zm-11.306 1.473c-0.055 0.02-0.112 0.035-0.174 0.035-0.158 0.15-0.308 0.24-0.455 0.29 0.217 0.23 0.461 0.43 0.734 0.61 0.13-0.09 0.221-0.23 0.221-0.4 0-0.21-0.162-0.48-0.326-0.535zm4.965 2.935c-0.082 0.01-0.161 0.03-0.244 0.04 0.076 0.35 0.164 0.7 0.261 1.03 0.107 0.02 0.213 0.03 0.321 0.03h0.029c-0.136-0.34-0.257-0.72-0.367-1.1z" fill="#fff" opacity=".6"/>
</svg>
