<?xml version="1.0" encoding="UTF-8"?>
<svg id="svg49" width="16" height="16" version="1.1" xmlns="http://www.w3.org/2000/svg" xmlns:cc="http://creativecommons.org/ns#" xmlns:dc="http://purl.org/dc/elements/1.1/" xmlns:rdf="http://www.w3.org/1999/02/22-rdf-syntax-ns#">
 <metadata id="metadata53">
  <rdf:RDF>
   <cc:Work rdf:about="">
    <dc:format>image/svg+xml</dc:format>
    <dc:type rdf:resource="http://purl.org/dc/dcmitype/StillImage"/>
   </cc:Work>
  </rdf:RDF>
 </metadata>
 <defs id="defs12">
  <linearGradient id="gr0" x1="8" x2="8" y1=".996" y2="14.996" gradientUnits="userSpaceOnUse">
   <stop id="stop2" stop-color="#ebebeb" offset="0"/>
   <stop id="stop4" stop-color="#aaa" offset="1"/>
  </linearGradient>
  <linearGradient id="gr1" x1="8" x2="8" y1="7" y2="15" gradientUnits="userSpaceOnUse">
   <stop id="stop7" stop-color="#f3604d" offset="0"/>
   <stop id="stop9" stop-color="#c81700" offset="1"/>
  </linearGradient>
 </defs>
 <path id="path14" d="m7.994-0.05469 0.01 0.050784c-4.779 0-8.5224 4.1349-7.922 8.9829l0.28317-0.825 0.6988 0.575c-0.4506-4.231 2.768-7.7329 6.94-7.7329 3.926 0.1569 6.956 3.2869 6.956 6.9999 0.08 3.834-3.52 7.704-8.136 6.894 0.849-0.93 1.493-2.21 0.981-3.55-0.22-0.55-0.541-0.95-0.821-1.344-0.123-0.174-0.237-0.355-0.349-0.529 0.36 0.337 0.836 0.553 1.369 0.553 1.115 0 2.016-0.909 2.016-2.024 0-1.114-0.901-2.01-2.016-2.01-0.858 0.023-1.885 0.574-2 1.842-0.04-0.252-0.07-0.514-0.07-0.828 0-0.56-0.47-1.02-1.034-1-0.665-0.017-2.766 1.261-3.826 2.854v-6e-3c-0.6854 1.001-1.074 2.112-1.074 3.152 0 2.03 1.525 3.71 3.477 3.95a1 1 0 0 0 0.177 0 1 1 0 0 0 0.276 0c0.791 0 1.488-0.2 2.078-0.53a1 1 0 0 0 0.633 0.4c5.239 0.92 9.399-3.42 9.309-7.89 0-4.249-3.48-7.8076-7.917-7.9847a1 1 0 0 0-0.039 0zm0.02 7.0467c0.571 0 1.006 0.437 1.006 1.004 0 0.574-0.446 1.02-1.02 1.02-0.267 0-0.494-0.1-0.686-0.28a1 1 0 0 0-0.554-0.259 1 1 0 0 0 0.236-0.559c0.03-0.38 0.162-0.548 0.346-0.693 0.18-0.143 0.448-0.224 0.672-0.233zm-3.082 2e-3c0 0.347 0.04 0.642 0.08 0.906l-0.022 0.022c0.408 2.678 2.496 3.278 1.889 5.078-0.383 1.14-1.322 2-2.949 2 0.805-0.01 1.27-0.43 1.461-1 0.336-1-0.983-1.25-0.983-3-1.227 0.5-1.963 1.67-1.963 2.5 0 0.72 0.494 1.31 1.153 1.46-1.461-0.18-2.598-1.42-2.598-2.96 0-1.62 1.408-3.877 3.754-4.916l-6e-3 -0.031c0.088-0.027 0.147-0.047 0.166-0.053 2e-3 -1e-3 0.017-6e-3 0.018-6e-3zm-1.082 5.716c0.124 0.25 0.254 0.5 0.361 0.65 0.139 0.19 0.199 0.33 0.219 0.33-0.039 0.11-0.059 0.24-0.119 0.24-0.285-0.18-0.555-0.37-0.811-0.59 0.054-0.16 0.161-0.37 0.35-0.63z" opacity=".25"/>
 <path id="base" d="m1.07 8.86c1.059-1.595 3.164-2.877 3.83-2.86 0.564-0.02 1.034 0.44 1.034 1 0 0.314 0.03 0.576 0.07 0.828 0.115-1.268 1.142-1.819 2-1.842 1.115 0 2.02 0.896 2.02 2.01 0 1.115-0.905 2.02-2.02 2.02-0.533 0-1.01-0.213-1.37-0.55 0.112 0.174 0.227 0.356 0.35 0.53 0.28 0.39 0.6 0.79 0.82 1.34 0.512 1.34-0.131 2.62-0.98 3.55 4.62 0.81 8.22-3.06 8.14-6.89 0-3.713-3.03-6.843-6.96-7-4.214 0-7.461 3.573-6.93 7.86zm2.78 3.85c-0.189 0.26-0.296 0.47-0.35 0.63 0.256 0.22 0.525 0.41 0.81 0.59 0.06 0 0.08-0.13 0.12-0.24-0.02 0-0.08-0.14-0.22-0.33-0.107-0.15-0.236-0.4-0.36-0.65z" fill="url(#gr0)"/>
 <path id="path26" d="m4.928 7c-2.454 1-3.928 3.34-3.928 5 0 1.54 1.137 2.78 2.598 2.96-0.659-0.15-1.153-0.74-1.153-1.46 0-0.83 0.736-2 1.963-2.5 0 1.75 1.319 2 0.983 3-0.191 0.57-0.656 0.99-1.461 1h0.01c1.627 0 2.563-0.86 2.946-2 0.671-1.99-1.963-2.5-1.963-6z" fill="url(#gr1)"/>
 <path id="path28" d="m8.004 5.986c-0.858 0.023-1.885 0.574-2 1.842-0.04-0.252-0.07-0.514-0.07-0.828 0-0.56-0.47-1.02-1.034-1-0.665-0.017-2.766 1.261-3.826 2.854-0.018-0.151-0.022-0.299-0.031-0.448-0.035 0.471-0.03 0.954 0.031 1.448 1.06-1.593 3.161-2.871 3.826-2.854 5e-3 0 9e-3 2e-3 0.014 2e-3v-2e-3h0.01c-3e-3 1e-3 -5e-3 1e-3 -8e-3 2e-3 0.557-0.011 1.018 0.443 1.018 0.998 0 0.314 0.03 0.576 0.07 0.828 0.115-1.268 1.142-1.819 2-1.842 0.941 0 1.722 0.641 1.945 1.51 0.041-0.161 0.071-0.326 0.071-0.5 0-1.114-0.901-2.01-2.016-2.01zm6.936 2.567c-0.25 3.447-3.37 6.737-7.44 6.417-0.192 0.33-0.422 0.64-0.676 0.92 4.616 0.81 8.216-3.06 8.136-6.894 0-0.149-0.01-0.296-0.02-0.443zm-8.305 1.917c0.112 0.17 0.226 0.35 0.349 0.53 0.28 0.39 0.601 0.79 0.821 1.34 0.061 0.16 0.105 0.32 0.134 0.48 0.086-0.47 0.06-0.97-0.134-1.48-0.054-0.14-0.126-0.24-0.19-0.36-0.375-0.08-0.71-0.26-0.98-0.51zm-2.227 0.53c-1.227 0.5-1.963 1.67-1.963 2.5 0 0.18 0.032 0.34 0.086 0.5 0.219-0.75 0.882-1.59 1.877-2 0 1.19 0.6 1.69 0.885 2.2 0.032-0.07 0.074-0.13 0.098-0.2 0.336-1-0.983-1.25-0.983-3zm-3.359 1.54c-0.023 0.15-0.049 0.31-0.049 0.46 0 1.54 1.137 2.78 2.598 2.96-0.64-0.14-1.115-0.71-1.143-1.4-0.722-0.43-1.251-1.15-1.406-2.02zm5.859 0.34c-0.011 0.04-0.016 0.08-0.029 0.12-0.243 0.72-0.713 1.33-1.438 1.68 1e-3 0.1-0.011 0.2-0.05 0.32-0.191 0.57-0.656 0.99-1.461 1 1.627 0 2.566-0.86 2.949-2 0.143-0.43 0.13-0.78 0.029-1.12zm-3.058 0.83c-0.189 0.26-0.296 0.47-0.35 0.63 0.256 0.22 0.526 0.41 0.811 0.59 0.06 0 0.08-0.13 0.119-0.24-0.02 0-0.08-0.14-0.219-0.33-0.107-0.15-0.237-0.4-0.361-0.65z" opacity=".45"/>
 <path id="path39" d="m8.004 0.9961c-4.065 0-7.2192 3.3269-6.961 7.4099 0.268-3.613 3.233-6.41 6.961-6.41 3.766 0.151 6.706 3.042 6.936 6.557 0.01-0.185 0.02-0.371 0.02-0.557 0-3.713-3.03-6.843-6.956-6.9999zm1.945 7.4999c-0.223 0.873-1.004 1.524-1.945 1.524-0.533 0-1.009-0.216-1.369-0.553 0.112 0.174 0.226 0.355 0.349 0.529 0.211 0.294 0.433 0.614 0.629 0.984 0.126 0.03 0.257 0.04 0.391 0.04 1.115 0 2.016-0.91 2.016-2.024 0-0.174-0.029-0.339-0.071-0.5zm-6.099 4.214c-0.189 0.26-0.296 0.47-0.35 0.63 0.256 0.22 0.526 0.41 0.811 0.59 0.06 0 0.079-0.13 0.119-0.24-0.02 0-0.079-0.14-0.219-0.33-0.107-0.15-0.237-0.4-0.361-0.65zm4.089 0.11c-0.141 0.78-0.588 1.49-1.115 2.07 0.229 0.04 0.453 0.06 0.676 0.08 0.372-0.65 0.582-1.38 0.439-2.15z" fill="#fff" opacity=".6"/>
 <path id="path44" d="m4.924 7v2e-3c1e-3 -1e-3 2e-3 -1e-3 4e-3 -2e-3h-4e-3zm0 2e-3c-2.452 1.001-3.924 3.338-3.924 4.998 0 0.18 0.018 0.36 0.049 0.54 0.235-1.61 1.642-3.626 3.875-4.538v-2e-3h4e-3c-2e-3 1e-3 -3e-3 1e-3 -4e-3 2e-3 1e-3 2.748 1.622 3.658 1.992 4.878 0.529-1.89-1.991-2.45-1.992-5.878zm-2.393 6.998c-0.051 0.17-0.086 0.34-0.086 0.5 0 0.02 9e-3 0.04 0.01 0.06 0.344 0.21 0.728 0.35 1.143 0.4-0.499-0.11-0.9-0.48-1.067-0.96zm2.762 0.2c-0.228 0.46-0.658 0.79-1.363 0.8h9e-3c0.59 0 1.088-0.12 1.502-0.31 0-0.18-0.061-0.34-0.148-0.49z" fill="#fff" opacity=".3"/>
</svg>
