<?xml version="1.0" encoding="UTF-8"?>
<svg id="svg29" width="16" height="16" version="1.1" xmlns="http://www.w3.org/2000/svg" xmlns:cc="http://creativecommons.org/ns#" xmlns:dc="http://purl.org/dc/elements/1.1/" xmlns:rdf="http://www.w3.org/1999/02/22-rdf-syntax-ns#">
 <metadata id="metadata33">
  <rdf:RDF>
   <cc:Work rdf:about="">
    <dc:format>image/svg+xml</dc:format>
    <dc:type rdf:resource="http://purl.org/dc/dcmitype/StillImage"/>
   </cc:Work>
  </rdf:RDF>
 </metadata>
 <defs id="defs7">
  <linearGradient id="gr0" x1="8" x2="8" y1="1" y2="15" gradientUnits="userSpaceOnUse">
   <stop id="stop2" stop-color="#ebebeb" offset="0"/>
   <stop id="stop4" stop-color="#aaa" offset="1"/>
  </linearGradient>
 </defs>
 <path id="path9" d="m5.438 0c-1.339 0-2.438 1.1-2.438 2.438v3.124c0 1.339 1.098 2.438 2.438 2.438-1.337 0-2.438 1.1-2.438 2.44v3.12c0 1.34 1.101 2.44 2.438 2.44h5.122c1.34 0 2.44-1.1 2.44-2.44v-3.12c0-1.34-1.1-2.44-2.44-2.44 1.34 0 2.44-1.099 2.44-2.438v-3.124c0-1.339-1.1-2.438-2.44-2.438h-5.122zm0 1h5.122c0.79 0 1.44 0.65 1.44 1.438v3.124c0 0.788-0.65 1.438-1.44 1.438h-5.122c-0.787 0-1.438-0.649-1.438-1.438v-3.124c0-0.788 0.651-1.438 1.438-1.438zm0 1c-0.253 0-0.438 0.184-0.438 0.438v3.124c0 0.252 0.186 0.438 0.438 0.438h5.122c0.25 0 0.44-0.186 0.44-0.438v-3.124c0-0.253-0.19-0.438-0.44-0.438h-5.122zm0.562 1h4v2h-4v-2zm-0.562 6h5.122c0.79 0 1.44 0.643 1.44 1.44v3.12c0 0.79-0.65 1.44-1.44 1.44h-5.122c-0.793 0-1.438-0.65-1.438-1.44v-3.12c0-0.797 0.646-1.44 1.438-1.44zm0 1.03c-0.241 0-0.407 0.17-0.407 0.41v3.12c0 0.24 0.166 0.41 0.407 0.41h5.122c0.24 0 0.41-0.17 0.41-0.41v-3.12c0-0.24-0.17-0.41-0.41-0.41h-5.122zm0.591 1h3.94v1.94h-3.94v-1.94z" opacity=".25"/>
 <path id="base" d="m5.4375 1c-0.78773 0-1.4375 0.64977-1.4375 1.4375v3.125c0 0.78773 0.64977 1.4375 1.4375 1.4375h5.125c0.78773 0 1.4375-0.64977 1.4375-1.4375v-3.125c0-0.78773-0.64977-1.4375-1.4375-1.4375zm0 1h5.125c0.25102 0 0.4375 0.18648 0.4375 0.4375v3.125c0 0.25102-0.18648 0.4375-0.4375 0.4375h-5.125c-0.25102 0-0.4375-0.18648-0.4375-0.4375v-3.125c0-0.25102 0.18648-0.4375 0.4375-0.4375zm0 7c-0.79234 0-1.4375 0.64516-1.4375 1.4375v3.125c0 0.79234 0.64516 1.4375 1.4375 1.4375h5.125c0.79234 0 1.4375-0.64516 1.4375-1.4375v-3.125c0-0.79234-0.64516-1.4375-1.4375-1.4375zm0 1.0312h5.125c0.24059 0 0.40625 0.16566 0.40625 0.40625v3.125c0 0.24059-0.16566 0.40625-0.40625 0.40625h-5.125c-0.24059 0-0.40625-0.16566-0.40625-0.40625v-3.125c0-0.24059 0.16566-0.40625 0.40625-0.40625z" fill="url(#gr0)"/>
 <path id="path17" d="m5.438 2c-0.253 0-0.438 0.184-0.438 0.438v1c0-0.254 0.185-0.438 0.438-0.438h5.122c0.25 0 0.44 0.185 0.44 0.438v-1c0-0.253-0.19-0.438-0.44-0.438h-5.122zm-1.438 3.562v1c0 0.789 0.651 1.438 1.438 1.438h5.122c0.79 0 1.44-0.65 1.44-1.438v-1c0 0.788-0.65 1.438-1.44 1.438h-5.122c-0.787 0-1.438-0.649-1.438-1.438zm1.438 4.468c-0.241 0-0.407 0.17-0.407 0.41v1c0-0.24 0.166-0.41 0.407-0.41h5.122c0.24 0 0.41 0.17 0.41 0.41v-1c0-0.24-0.17-0.41-0.41-0.41h-5.122zm-1.438 3.53v1c0 0.79 0.645 1.44 1.438 1.44h5.122c0.79 0 1.44-0.65 1.44-1.44v-1c0 0.79-0.65 1.44-1.44 1.44h-5.122c-0.793 0-1.438-0.65-1.438-1.44z" opacity=".45"/>
 <path id="path24" d="m5.438 1c-0.787 0-1.438 0.65-1.438 1.438v1c0-0.789 0.651-1.438 1.438-1.438h5.122c0.79 0 1.44 0.65 1.44 1.438v-1c0-0.788-0.65-1.438-1.44-1.438h-5.122zm-0.438 4.562v1c0 0.252 0.186 0.438 0.438 0.438h5.122c0.25 0 0.44-0.186 0.44-0.438v-1c0 0.252-0.19 0.438-0.44 0.438h-5.122c-0.252 0-0.438-0.186-0.438-0.438zm0.438 3.438c-0.792 0-1.438 0.644-1.438 1.44v1c0-0.79 0.646-1.44 1.438-1.44h5.122c0.79 0 1.44 0.64 1.44 1.44v-1c0-0.796-0.65-1.44-1.44-1.44h-5.122zm-0.407 4.56v1c0 0.24 0.166 0.41 0.407 0.41h5.122c0.24 0 0.41-0.17 0.41-0.41v-1c0 0.24-0.17 0.41-0.41 0.41h-5.122c-0.241 0-0.407-0.17-0.407-0.41z" fill="#fff" opacity=".6"/>
</svg>
