<?xml version="1.0" encoding="UTF-8"?>
<svg id="svg29" width="16" height="16" version="1.1" xmlns="http://www.w3.org/2000/svg" xmlns:cc="http://creativecommons.org/ns#" xmlns:dc="http://purl.org/dc/elements/1.1/" xmlns:rdf="http://www.w3.org/1999/02/22-rdf-syntax-ns#">
 <metadata id="metadata33">
  <rdf:RDF>
   <cc:Work rdf:about="">
    <dc:format>image/svg+xml</dc:format>
    <dc:type rdf:resource="http://purl.org/dc/dcmitype/StillImage"/>
   </cc:Work>
  </rdf:RDF>
 </metadata>
 <defs id="defs7">
  <linearGradient id="gr0" x1="8" x2="8" y1="2" y2="14" gradientUnits="userSpaceOnUse">
   <stop id="stop2" stop-color="#ebebeb" offset="0"/>
   <stop id="stop4" stop-color="#aaa" offset="1"/>
  </linearGradient>
 </defs>
 <path id="path9" d="m0.9414 1a1 1 0 0 0-0.9414 1v9a1 1 0 0 0 0.4863 0.86l4.9997 3a1 1 0 0 0 1.014 0 1 1 0 0 0 0.5 0.13h2a1 1 0 0 0 0.5-0.13 1 1 0 0 0 1.01 0l5-3a1 1 0 0 0 0.49-0.86v-9a1 1 0 0 0-1.51-0.857l-0.67 0.398a1 1 0 0 0-0.69-0.424c-0.55-0.07-1.07-0.116-1.58-0.117-1.31 0-2.479 0.339-3.55 0.934-1.071-0.595-2.242-0.9364-3.545-0.934-0.51 1e-3 -1.036 0.04-1.586 0.117a1 1 0 0 0-0.689 0.424l-0.664-0.398a1 1 0 0 0-0.473-0.143 1 1 0 0 0-0.0996 0h-2e-3zm0.0586 1 5 3v9l-5-3v-9zm3.455 0c1.373-3e-3 2.51 0.314 3.545 1.025 1.035-0.711 2.17-1.025 3.55-1.025 0.45 1e-3 0.94 0.037 1.45 0.107l-1.94 0.946-1.939 0.947h-2.242l-1.94-0.947-1.939-0.946c0.514-0.067 0.998-0.106 1.455-0.107zm10.545 0v9l-5 3v-9l5-3zm-8 3h2v9h-2v-9z" opacity=".25"/>
 <path id="base" d="m0.99995 2v9l5 3v-9zm3.4551 0c-0.45743 9.376e-4 -0.94059 0.038085-1.4551 0.10742l1.9395 0.94531 1.9395 0.94727h2.2422l1.9395-0.94727 1.9395-0.94531c-0.51448-0.069336-0.99765-0.10648-1.4551-0.10742-1.3723-0.00281-2.5101 0.31375-3.5449 1.0254-1.0348-0.71164-2.1726-1.0282-3.5449-1.0254zm10.545 0-5 3v9l5-3zm-8 3v9h2v-9z" fill="url(#gr0)"/>
 <path id="path17" d="m4.455 3c-0.457 1e-3 -0.941 0.04-1.455 0.107l1.939 0.946 1.94 0.947h0.121 2 0.121l1.939-0.947 1.94-0.946c-0.51-0.07-1-0.106-1.45-0.107-0.15 0-0.29 0.02-0.44 0.027l-0.05 0.026-1.939 0.947h-1.078c-0.014 9e-3 -0.029 0.016-0.043 0.025-0.014-9e-3 -0.029-0.016-0.043-0.025h-1.078l-1.94-0.947-0.056-0.028c-0.143-7e-3 -0.279-0.025-0.428-0.025zm-3.455 8v1l5 3v-1l-5-3zm14 0-5 3v1l5-3v-1zm-8 3v1h2v-1h-2z" opacity=".45"/>
 <path id="path24" d="m1 2v1l5 3v-1l-5-3zm3.455 0c-0.457 1e-3 -0.941 0.04-1.455 0.107l1.883 0.918c1.162 0.059 2.163 0.36 3.074 0.975h0.086c0.909-0.614 1.907-0.911 3.067-0.973l1.89-0.92c-0.51-0.07-1-0.106-1.45-0.107-1.38 0-2.515 0.314-3.55 1.025-1.035-0.711-2.172-1.028-3.545-1.025zm10.545 0-5 3v1l5-3v-1zm-8 3v1h2v-1h-2z" fill="#fff" opacity=".6"/>
</svg>
