<?xml version="1.0" encoding="UTF-8"?>
<svg id="svg29" width="16" height="16" version="1.1" xmlns="http://www.w3.org/2000/svg" xmlns:cc="http://creativecommons.org/ns#" xmlns:dc="http://purl.org/dc/elements/1.1/" xmlns:rdf="http://www.w3.org/1999/02/22-rdf-syntax-ns#">
 <metadata id="metadata33">
  <rdf:RDF>
   <cc:Work rdf:about="">
    <dc:format>image/svg+xml</dc:format>
    <dc:type rdf:resource="http://purl.org/dc/dcmitype/StillImage"/>
   </cc:Work>
  </rdf:RDF>
 </metadata>
 <defs id="defs7">
  <linearGradient id="gr0" x1="8" x2="8" y1="1" y2="15" gradientUnits="userSpaceOnUse">
   <stop id="stop2" stop-color="#ebebeb" offset="0"/>
   <stop id="stop4" stop-color="#aaa" offset="1"/>
  </linearGradient>
 </defs>
 <path id="path9" d="m5.393-0.007812 0.039 0.007812a1 1 0 0 0-0.258 0.0332l-3.5 0.9316a1 1 0 0 0-0.7092 0.7092l-0.9316 3.5a1 1 0 0 0 0.2598 0.965l2.568 2.568a1 1 0 0 0 0.08 0.07l-0.906 3.383a1 1 0 0 0 0.258 0.97l2.568 2.58a1 1 0 0 0 0.969 0.25l3.473-0.93a1 1 0 0 0 0.707-0.7l0.95-3.49a1 1 0 0 0 0-0.17l3.33-0.912a1 1 0 0 0 0.7-0.705l0.93-3.473a1 1 0 0 0-0.25-0.969l-2.58-2.568a1 1 0 0 0-0.71-0.291 1 1 0 0 0-0.26 0.029l-3.515 0.959a1 1 0 0 0-0.041 0.012l-2.464-2.4668a1 1 0 0 0-0.707-0.29301zm0.039 1.0078 2.568 2.568-0.959 3.5-3.473 0.932-2.568-2.568 0.932-3.5 3.5-0.932zm6.988 1.75 2.58 2.568-0.94 3.473-3.51 0.959-1.445-1.439-1.105-1.159 0.906-3.443 3.514-0.959zm-5.018 5.25 1.299 1.275 1.299 1.305-0.959 3.48-3.473 0.94-2.568-2.58 0.932-3.484 3.47-0.936z" opacity=".25"/>
 <path id="base" d="m5.4316 1-3.5 0.93164-0.93164 3.5 2.5684 2.5684 3.4727-0.93164 0.95898-3.5-2.5684-2.5684zm6.9902 1.75-3.5156 0.95898-0.90625 3.4434 1.1055 1.1582 1.4453 1.4395 3.5137-0.95898 0.93555-3.4727-2.5781-2.5684zm-5.0195 5.25-3.4707 0.93555-0.93164 3.4863 2.5684 2.5781 3.4727-0.93555 0.95898-3.4863-1.2988-1.3027-1.2988-1.2754z" fill="url(#gr0)"/>
 <path id="path17" d="m7.785 4.354-0.744 2.714-3.473 0.932-2.357-2.357-0.211 0.789 2.568 2.568 3.473-0.932 0.959-3.5-0.215-0.214zm7.005 1.751-0.73 2.686-3.51 0.959-1.445-1.439-0.898-0.942-0.207 0.783 1.105 1.159 1.445 1.439 3.51-0.959 0.94-3.473-0.21-0.213zm-5.007 5.255-0.742 2.7-3.473 0.94-2.357-2.37-0.211 0.79 2.568 2.58 3.473-0.94 0.959-3.48-0.217-0.22z" opacity=".45"/>
 <path id="path24" d="m5.432 1-3.5 0.932-0.932 3.5 0.211 0.211 0.721-2.711 3.5-0.932 2.353 2.354 0.215-0.786-2.568-2.568zm6.988 1.75-3.514 0.959-0.906 3.443 0.207 0.217 0.699-2.66 3.514-0.959 2.37 2.355 0.21-0.787-2.58-2.568zm-5.018 5.25-3.47 0.936-0.932 3.484 0.211 0.21 0.721-2.694 3.47-0.936 1.299 1.28 1.082 1.08 0.217-0.78-1.299-1.305-1.299-1.275z" fill="#fff" opacity=".6"/>
</svg>
