<?xml version="1.0" encoding="UTF-8"?>
<svg id="svg29" width="16" height="16" version="1.1" xmlns="http://www.w3.org/2000/svg" xmlns:cc="http://creativecommons.org/ns#" xmlns:dc="http://purl.org/dc/elements/1.1/" xmlns:rdf="http://www.w3.org/1999/02/22-rdf-syntax-ns#">
 <metadata id="metadata33">
  <rdf:RDF>
   <cc:Work rdf:about="">
    <dc:format>image/svg+xml</dc:format>
    <dc:type rdf:resource="http://purl.org/dc/dcmitype/StillImage"/>
   </cc:Work>
  </rdf:RDF>
 </metadata>
 <defs id="defs7">
  <linearGradient id="gr0" x1="8" x2="8" y1="1" y2="15" gradientUnits="userSpaceOnUse">
   <stop id="stop2" stop-color="#ebebeb" offset="0"/>
   <stop id="stop4" stop-color="#aaa" offset="1"/>
  </linearGradient>
 </defs>
 <path id="path9" d="m8 0c-2.094 0-4.175 0.8622-5.656 2.344-1.4817 1.481-2.344 3.562-2.344 5.656 0 2.09 0.8623 4.18 2.344 5.66 1.481 1.48 3.562 2.34 5.656 2.34 2.09 0 4.18-0.86 5.66-2.34s2.34-3.57 2.34-5.66c0-2.094-0.86-4.175-2.34-5.656-1.48-1.4817-3.57-2.344-5.66-2.344zm0 1a7 7 0 0 1 7 7 7 7 0 0 1-7 7 7 7 0 0 1-7-7 7 7 0 0 1 7-7zm-1.291 2.172a5 5 0 0 0-0.943 0.357l0.894 1.791a3 3 0 0 1 0.172-0.08 3 3 0 0 1 4e-3 -2e-3c-4e-3 2e-3 0.021-0.01 0.016-8e-3 -0.013 6e-3 0.041-0.013 0.039-0.011a3 3 0 0 1 1.109-0.219 3 3 0 0 1 0.586 0.061 3 3 0 0 1 0.557 0.168c-2e-3 -1e-3 7e-3 2e-3 5e-3 1e-3a3 3 0 0 1 0.01 6e-3 3 3 0 0 1 0.184 0.08l0.888-1.783a5 5 0 0 0-0.941-0.353l-0.502 1.004c-0.267-0.06-0.516-0.186-0.789-0.186-0.271 0-0.518 0.131-0.783 0.188l-0.506-1.014zm-3.176 2.594a5 5 0 0 0-0.353 0.941l1.006 0.504c-0.06 0.267-0.186 0.516-0.186 0.789 0 0.271 0.131 0.518 0.188 0.783l-1.016 0.508a5 5 0 0 0 0.357 0.939l1.791-0.89a3 3 0 0 1-0.07-0.152c0 1e-3 -0.011-0.024-0.01-0.02 2e-3 4e-3 -0.014-0.027-0.011-0.02 0.01 0.023-0.022-0.062-0.022-0.07a3 3 0 0 1-0.146-0.482 3 3 0 0 1 0-2e-3c0 2e-3 -3e-3 -8e-3 -2e-3 -6e-3 1e-3 5e-3 -3e-3 -0.019-2e-3 -0.016a3 3 0 0 1-0.055-0.529c-1e-3 3e-3 -4e-3 -0.055-4e-3 -0.041 0 8e-3 2e-3 -0.03 2e-3 -0.025a3 3 0 0 1 0.057-0.545c-1e-3 3e-3 3e-3 -0.024 2e-3 -0.018-2e-3 8e-3 8e-3 -0.028 7e-3 -0.023a3 3 0 0 1 0.159-0.522c-2e-3 3e-3 6e-3 -0.02 4e-3 -0.015-4e-3 7e-3 0.013-0.026 0.011-0.022a3 3 0 0 1 0.076-0.174l-1.783-0.892zm8.937 0-1.79 0.894a3 3 0 0 1 0.08 0.182c0-3e-3 0.01 0.016 0.01 0.012v0.011a3 3 0 0 1 0.18 0.631c0.02 0.075 0.09 0.675 0.09 0.506 0-0.144-0.05 0.24-0.08 0.432a3 3 0 0 1-0.01 0.115c-0.01-3e-3 -0.01 0.052-0.01 0.039v-4e-3a3 3 0 0 1-0.17 0.547c0.01-4e-3 0 0.023 0 0.017 0.01-0.015-0.02 0.047-0.02 0.045a3 3 0 0 1-0.07 0.149l1.79 0.888a5 5 0 0 0 0.35-0.925l-1.04-0.52c0.1-0.267 0.19-0.516 0.19-0.789 0-0.271-0.13-0.518-0.19-0.783l1.04-0.52a5 5 0 0 0-0.35-0.927zm-5.812 4.914-0.892 1.79a5 5 0 0 0 0.925 0.35l0.52-1.01c0.267 0.1 0.516 0.19 0.789 0.19 0.271 0 0.518-0.13 0.783-0.19l0.506 1.02a5 5 0 0 0 0.941-0.36l-0.89-1.79a3 3 0 0 1-0.172 0.08h-4e-3c4e-3 0-0.021 0.01-0.016 0.01 6e-3 0-0.021 0.01-0.017 0a3 3 0 0 1-0.623 0.18c-0.067 0.02-0.678 0.09-0.508 0.09 0.143 0-0.233-0.04-0.428-0.07a3 3 0 0 1-0.127-0.02c4e-3 -0.01-0.041-0.01-0.031-0.01h2e-3a3 3 0 0 1-0.547-0.17c4e-3 0.01-0.023 0-0.017 0 0.015 0.01-0.045-0.02-0.043-0.02a3 3 0 0 1-0.151-0.07z" opacity=".25"/>
 <path id="base" d="m8 1a7 7 0 0 0-7 7 7 7 0 0 0 7 7 7 7 0 0 0 7-7 7 7 0 0 0-7-7zm0 2a5 5 0 0 1 2.2344 0.5332l-0.89258 1.7832a3 3 0 0 0-1.3418-0.31641 3 3 0 0 0-1.3398 0.32031l-0.89453-1.791a5 5 0 0 1 2.2344-0.5293zm-4.4668 2.7656 1.7832 0.89258a3 3 0 0 0-0.31641 1.3418 3 3 0 0 0 0.32031 1.3398l-1.791 0.89453a5 5 0 0 1-0.5293-2.2344 5 5 0 0 1 0.5332-2.2344zm8.9375 0a5 5 0 0 1 0.5293 2.2344 5 5 0 0 1-0.5332 2.2344l-1.7832-0.89258a3 3 0 0 0 0.31641-1.3418 3 3 0 0 0-0.32031-1.3398l1.791-0.89453zm-4.4707 0.23438a2 2 0 0 1 2 2 2 2 0 0 1-2 2 2 2 0 0 1-2-2 2 2 0 0 1 2-2zm1.3398 4.6797 0.89453 1.791a5 5 0 0 1-2.2344 0.5293 5 5 0 0 1-2.2344-0.5332l0.89258-1.7832a3 3 0 0 0 1.3418 0.31641 3 3 0 0 0 1.3398-0.32031z" fill="url(#gr0)"/>
 <path id="path17" d="m8 3a5 5 0 0 0-2.234 0.529l0.41 0.821a5 5 0 0 1 1.824-0.35 5 5 0 0 1 1.82 0.355l0.41-0.822a5 5 0 0 0-2.23-0.533zm-4.467 2.766a5 5 0 0 0-0.533 2.234 5 5 0 0 0 0.029 0.479 5 5 0 0 1 0.504-1.713l1.506 0.754a3 3 0 0 1 0.277-0.862l-1.783-0.892zm8.937 0-1.79 0.894a3 3 0 0 1 0.28 0.861l1.51-0.755a5 5 0 0 1 0.5 1.755 5 5 0 0 0 0.03-0.521 5 5 0 0 0-0.53-2.234zm-4.47 0.234a3 3 0 0 0-0.164 8e-3 2 2 0 0 0-1.836 1.992 2 2 0 0 0 0.064 0.504 2 2 0 0 1 1.936-1.504 2 2 0 0 1 1.936 1.496 2 2 0 0 0 0.064-0.496 2 2 0 0 0-2-2zm-6.977 2.459a7 7 0 0 0-0.023 0.541 7 7 0 0 0 7 7 7 7 0 0 0 7-7 7 7 0 0 0-0.02-0.459 7 7 0 0 1-6.98 6.459 7 7 0 0 1-6.977-6.541zm4.022 0.029a3 3 0 0 0-0.045 0.512 3 3 0 0 0 0.043 0.479l0.277-0.139a3 3 0 0 1-0.275-0.852zm5.915 0.02a3 3 0 0 1-0.28 0.834l0.28 0.138a3 3 0 0 0 0.04-0.48 3 3 0 0 0-0.04-0.492zm-4.302 2.172-0.892 1.79a5 5 0 0 0 0.41 0.18l0.482-0.97a3 3 0 0 0 1.342 0.32 3 3 0 0 0 1.34-0.32l0.482 0.97a5 5 0 0 0 0.408-0.18l-0.89-1.79a3 3 0 0 1-1.176 0.31 2 2 0 0 1-0.164 0.01 3 3 0 0 1-1.342-0.32z" opacity=".45"/>
 <path id="path24" d="m8 1a7 7 0 0 0-7 7 7 7 0 0 0 0.023 0.459 7 7 0 0 1 6.977-6.459 7 7 0 0 1 6.98 6.541 7 7 0 0 0 0.02-0.541 7 7 0 0 0-7-7zm-1.824 3.35a5 5 0 0 0-0.41 0.179l0.894 1.791a3 3 0 0 1 1.176-0.312 2 2 0 0 1 0.164-8e-3 3 3 0 0 1 1.342 0.316l0.888-1.783a5 5 0 0 0-0.41-0.178l-0.478 0.961a3 3 0 0 0-1.342-0.316 3 3 0 0 0-1.34 0.32l-0.484-0.97zm-1.137 3.17a3 3 0 0 0-0.039 0.48 3 3 0 0 0 0.045 0.488 3 3 0 0 1 0.271-0.83l-0.277-0.138zm5.921 1e-3 -0.28 0.139a3 3 0 0 1 0.28 0.848 3 3 0 0 0 0.04-0.508 3 3 0 0 0-0.04-0.479zm-7.931 0.958a5 5 0 0 0-0.029 0.521 5 5 0 0 0 0.529 2.23l1.791-0.89a3 3 0 0 1-0.277-0.861l-1.514 0.751a5 5 0 0 1-0.5-1.751zm6.907 0.017a2 2 0 0 1-1.936 1.504 2 2 0 0 1-1.936-1.496 2 2 0 0 0-0.064 0.496 2 2 0 0 0 2 2 3 3 0 0 0 0.164-0.01 2 2 0 0 0 1.836-1.99 2 2 0 0 0-0.064-0.504zm3.034 0.025a5 5 0 0 1-0.5 1.709l-1.51-0.75a3 3 0 0 1-0.28 0.86l1.79 0.89a5 5 0 0 0 0.53-2.23 5 5 0 0 0-0.03-0.479zm-6.794 4.129-0.41 0.82a5 5 0 0 0 2.234 0.53 5 5 0 0 0 2.23-0.53l-0.408-0.82a5 5 0 0 1-1.822 0.35 5 5 0 0 1-1.824-0.35z" fill="#fff" opacity=".6"/>
</svg>
