<?xml version="1.0" encoding="UTF-8"?>
<svg id="svg31" width="16" height="16" version="1.1" xmlns="http://www.w3.org/2000/svg" xmlns:cc="http://creativecommons.org/ns#" xmlns:dc="http://purl.org/dc/elements/1.1/" xmlns:rdf="http://www.w3.org/1999/02/22-rdf-syntax-ns#">
 <metadata id="metadata35">
  <rdf:RDF>
   <cc:Work rdf:about="">
    <dc:format>image/svg+xml</dc:format>
    <dc:type rdf:resource="http://purl.org/dc/dcmitype/StillImage"/>
   </cc:Work>
  </rdf:RDF>
 </metadata>
 <defs id="defs7">
  <linearGradient id="gr0" x1="8" x2="8" y1="1" y2="15" gradientUnits="userSpaceOnUse">
   <stop id="stop2" stop-color="#ebebeb" offset="0"/>
   <stop id="stop4" stop-color="#aaa" offset="1"/>
  </linearGradient>
 </defs>
 <path id="path9" d="m2 0a1 1 0 0 0-1 1v14a1 1 0 0 0 1 1h3a1 1 0 0 0 1-1v-10h2a1 1 0 0 0-1 1v3a1 1 0 0 0 1 1h6a1 1 0 0 0 1-1v-8a1 1 0 0 0-1-1h-12zm0 1h12v8h-6v-3h3v-2h-6v11h-3v-14z" opacity=".25"/>
 <path id="base" d="m2 1v14h3v-11h6v2h-3v3h6v-8z" fill="url(#gr0)"/>
 <path id="path17" d="m5 6h3v3h-3z" fill="#fff" opacity=".4"/>
 <path id="path19" d="m5 4v1h6v-1h-6zm3 5v1h6v-1h-6zm-6 6v1h3v-1h-3z" opacity=".45"/>
 <path id="path26" d="m2 1v1h12v-1h-12zm6 5v1h3v-1h-3z" fill="#fff" opacity=".6"/>
</svg>
