<?xml version="1.0" encoding="UTF-8"?>
<svg id="svg29" width="16" height="16" version="1.1" xmlns="http://www.w3.org/2000/svg" xmlns:cc="http://creativecommons.org/ns#" xmlns:dc="http://purl.org/dc/elements/1.1/" xmlns:rdf="http://www.w3.org/1999/02/22-rdf-syntax-ns#">
 <metadata id="metadata33">
  <rdf:RDF>
   <cc:Work rdf:about="">
    <dc:format>image/svg+xml</dc:format>
    <dc:type rdf:resource="http://purl.org/dc/dcmitype/StillImage"/>
   </cc:Work>
  </rdf:RDF>
 </metadata>
 <defs id="defs7">
  <linearGradient id="gr0" x1="8" x2="8" y1="2.56" y2="13.44" gradientUnits="userSpaceOnUse">
   <stop id="stop2" stop-color="#ebebeb" offset="0"/>
   <stop id="stop4" stop-color="#aaa" offset="1"/>
  </linearGradient>
 </defs>
 <path id="path9" d="m13.79 1.562a1 1 0 0 0-0.54 0.194l-0.9 0.66h-6.594a1 1 0 0 0-0.902 0.57l-4.7583 10.024a1 1 0 0 0 0.9043 1.43h8.814a1 1 0 0 0 0.906-0.57l3.86-8.134 1.01-0.744a1 1 0 0 0 0.22-1.387l-1.16-1.626a1 1 0 0 0-0.86-0.417zm0.05 0.999 1.16 1.627-1.21 0.892-3.976 8.36h-8.814l4.756-10.024h6.924l1.16-0.855zm-6.815 2.855-2.873 6.024h4.393l2.875-6.024h-4.395zm0.663 0.922h2.21l-1.976 4.112h-2.211l1.977-4.112z" opacity=".25"/>
 <path id="base" d="m13.838 2.5604-1.1621 0.85547h-6.9199l-4.7566 10.024h8.8145l3.9734-8.3596 1.2129-0.89258zm-6.8125 2.8555h4.3926l-2.8738 6.0237h-4.3926zm0.66211 0.92188-1.9773 4.1155h2.2109l1.9773-4.1155z" fill="url(#gr0)"/>
 <path id="path17" d="m14.53 4.531-0.74 0.549-3.976 8.36h-8.339l-0.475 1h8.814l3.976-8.36 1.21-0.892-0.47-0.657zm-7.505 0.885-2.873 6.024h0.477l2.396-5.024h0.625l0.038-0.078h2.21l-0.037 0.078h1.079l0.48-1h-4.395zm2.393 1.922-1.496 3.112h-1.731l-0.476 0.99h2.211l1.972-4.102h-0.48z" opacity=".45"/>
 <path id="path24" d="m13.84 2.561-1.16 0.855h-6.924l-4.756 10.024h0.475l4.281-9.024h6.924l1.16-0.855 0.69 0.97 0.47-0.343-1.16-1.627zm-6.19 3.855-1.939 4.034h0.48l1.497-3.112h1.73l0.443-0.922h-2.211zm3.29 0-2.395 5.024h-0.619l-4e-3 0.01h-2.211l4e-3 -0.01h-1.086l-0.477 1h4.393l2.875-6.024h-0.48z" fill="#fff" opacity=".6"/>
</svg>
