<?xml version="1.0" encoding="UTF-8"?>
<svg id="svg29" width="16" height="16" version="1.1" xmlns="http://www.w3.org/2000/svg" xmlns:cc="http://creativecommons.org/ns#" xmlns:dc="http://purl.org/dc/elements/1.1/" xmlns:rdf="http://www.w3.org/1999/02/22-rdf-syntax-ns#">
 <metadata id="metadata33">
  <rdf:RDF>
   <cc:Work rdf:about="">
    <dc:format>image/svg+xml</dc:format>
    <dc:type rdf:resource="http://purl.org/dc/dcmitype/StillImage"/>
   </cc:Work>
  </rdf:RDF>
 </metadata>
 <defs id="defs7">
  <linearGradient id="gr0" x1="8" x2="8" y1="1" y2="15" gradientUnits="userSpaceOnUse">
   <stop id="stop2" stop-color="#ebebeb" offset="0"/>
   <stop id="stop4" stop-color="#aaa" offset="1"/>
  </linearGradient>
 </defs>
 <path id="path9" d="m3.5 0c-1.368 0-2.5 1.132-2.5 2.5v11c0 1.37 1.132 2.5 2.5 2.5h9c1.37 0 2.5-1.13 2.5-2.5v-5.5a1 1 0 0 0-0.29-0.707l-0.36-0.357a1 1 0 0 0 0.65-0.936v-3.5c0-1.368-1.13-2.5-2.5-2.5h-3.5a1 1 0 0 0-0.936 0.6504l-0.357-0.3574a1 1 0 0 0-0.707-0.293h-3.5zm0 1h3.5l7 7v5.5c0 0.83-0.67 1.5-1.5 1.5h-9c-0.831 0-1.5-0.67-1.5-1.5v-11c0-0.831 0.669-1.5 1.5-1.5zm5.5 0h3.5c0.83 0 1.5 0.669 1.5 1.5v3.5l-5-5zm-4.5 2c-0.277 0-0.5 0.223-0.5 0.5v4.5h1v2l1.732-3h1.155 3.113l-4-4h-2.5zm6.5 4v1h-3.691l-2.309 4h-1v0.5c0 0.28 0.223 0.5 0.5 0.5h7c0.28 0 0.5-0.22 0.5-0.5v-4.5l-1-1zm-6-3h1.586l2 2h-0.699-1.155a1 1 0 0 0-0.865 0.5l-0.367 0.635a1 1 0 0 0-0.5-0.135v-3zm2 5h1l1 1 1-1h1l-1.5 1.5 1.5 1.5h-1l-1-1-1 1h-1l1.5-1.5-1.5-1.5zm4 1.41v0.18l-0.1-0.1 0.1-0.08zm-3.955 0.1h0.041l-0.154 0.15 0.113-0.15z" opacity=".25"/>
 <path id="base" d="m3.5 1c-0.831 0-1.5 0.669-1.5 1.5v11c0 0.831 0.669 1.5 1.5 1.5h9c0.831 0 1.5-0.669 1.5-1.5v-5.5l-7-7h-3.5zm5.5 0 5 5v-3.5c0-0.831-0.669-1.5-1.5-1.5h-3.5zm-4.5 2h2.5l5 5v4.5c0 0.277-0.223 0.5-0.5 0.5h-7c-0.277 0-0.5-0.223-0.5-0.5v-0.5h1l2.3086-4h3.6914v-1h-4.2676l-1.7324 3.002v-2.002h-1v-4.5c0-0.277 0.223-0.5 0.5-0.5zm2.5 6 1.5 1.5-1.5 1.5h1l1-1 1 1h1l-1.5-1.5 1.5-1.5h-1l-1 1-1-1h-1z" fill="url(#gr0)"/>
 <path id="path17" d="m9 2 5 5v-1l-4-4h-1zm-4.5 1c-0.277 0-0.5 0.223-0.5 0.5v1c0-0.277 0.223-0.5 0.5-0.5h2.5l3 3h1l-4-4h-2.5zm6.5 4v1l1 1v-1l-1-1zm0 1h-3.113-0.578l-2.309 4h-1v0.5c0 0.28 0.223 0.5 0.5 0.5h0.5l2.195-3.805-0.195-0.195h0.309 0.691 2 1v-1zm-4 2 1 1 0.5-0.5-0.5-0.5h-1zm3 0-0.5 0.5 0.5 0.5 1-1h-1zm-1 1-2 2h1l1-1 1 1h1l-2-2zm-7 2.5v1c0 0.83 0.669 1.5 1.5 1.5h9c0.83 0 1.5-0.67 1.5-1.5v-1c0 0.83-0.67 1.5-1.5 1.5h-9c-0.831 0-1.5-0.67-1.5-1.5z" opacity=".45"/>
 <path id="path24" d="m3.5 1c-0.831 0-1.5 0.669-1.5 1.5v1c0-0.831 0.669-1.5 1.5-1.5h3.5l7 7v-1l-7-7h-3.5zm5.5 0 1 1h2.5c0.83 0 1.5 0.669 1.5 1.5v-1c0-0.831-0.67-1.5-1.5-1.5h-3.5zm-2.268 6-1.732 3v1l1.732-3h0.577 0.578 3.113l-1-1h-2.113-1.155zm-2.732 1v1h1v-1h-1zm3.309 1-0.114 0.195 1.805 1.805 2-2h-1l-1 1-1-1h-0.691zm0.691 2-1 1h1l0.5-0.5-0.5-0.5zm2 0-0.5 0.5 0.5 0.5h1l-1-1zm2 1.5c0 0.28-0.22 0.5-0.5 0.5h-0.5-1-2-1-2-0.5-0.5v0.5c0 0.28 0.223 0.5 0.5 0.5h7c0.28 0 0.5-0.22 0.5-0.5v-1z" fill="#fff" opacity=".6"/>
</svg>
