<?xml version="1.0" encoding="UTF-8"?>
<svg id="svg29" width="16" height="16" version="1.1" xmlns="http://www.w3.org/2000/svg" xmlns:cc="http://creativecommons.org/ns#" xmlns:dc="http://purl.org/dc/elements/1.1/" xmlns:rdf="http://www.w3.org/1999/02/22-rdf-syntax-ns#">
 <metadata id="metadata33">
  <rdf:RDF>
   <cc:Work rdf:about="">
    <dc:format>image/svg+xml</dc:format>
    <dc:type rdf:resource="http://purl.org/dc/dcmitype/StillImage"/>
   </cc:Work>
  </rdf:RDF>
 </metadata>
 <defs id="defs7">
  <linearGradient id="gr0" x1="8" x2="8" y1="1" y2="15" gradientUnits="userSpaceOnUse">
   <stop id="stop2" stop-color="#ebebeb" offset="0"/>
   <stop id="stop4" stop-color="#aaa" offset="1"/>
  </linearGradient>
 </defs>
 <path id="path9" d="m3.018-0.007812-1.018 0.007812c-1.0907 0-2 0.9093-2 2v1c0 0.63 0.344 1.131 0.8105 1.5-0.4665 0.369-0.8105 0.87-0.8105 1.5v1c0 0.63 0.344 1.131 0.8105 1.5-0.4665 0.369-0.8105 0.87-0.8105 1.5v1c0 1.09 0.9093 2 2 2h1c0.609 0 1.107-0.32 1.477-0.76 0.255 0.31 0.583 0.55 0.964 0.66a1 1 0 0 0 0.039 0l-0.455 1.85a1 1 0 0 0 1.231 1.21l2.851-0.76a1 1 0 0 0 0.452-0.26l2.231-2.24a1 1 0 0 0 0.7 0.29h0.51c1.09 0 2-0.91 2-2v-0.52l-0.33 0.12a1 1 0 0 0-0.23-0.47l1.1-1.1c0.6-0.596 0.6-1.603 0-2.2l-1.37-1.371c-0.1-0.06-0.15-0.04-0.21-0.09a1 1 0 0 0 0-0.759c0.59-0.349 1.06-0.88 1.06-1.608v-1c0-1.0905-0.91-1.9998-2-1.9998h-7.002c-0.63 0-1.131 0.34401-1.5 0.81051-0.369-0.4665-0.87-0.81051-1.5-0.81051zm-1.018 1.0078h1c0.554 0 1 0.446 1 1v1c0 0.554-0.446 1-1 1h-1c-0.554 0-1-0.446-1-1v-1c0-0.554 0.446-1 1-1zm4 0h7c0.55 0 1 0.446 1 1v1c0 0.554-0.45 1-1 1h-7c-0.554 0-1-0.446-1-1v-1c0-0.554 0.446-1 1-1zm-1.5 3.189c0.1 0.126 0.185 0.212 0.311 0.311-0.126 0.1-0.212 0.185-0.311 0.311-0.1-0.126-0.185-0.212-0.311-0.311 0.126-0.1 0.212-0.185 0.311-0.311zm-2.5 0.811h1c0.554 0 1 0.446 1 1v1c0 0.554-0.446 1-1 1h-1c-0.554 0-1-0.446-1-1v-1c0-0.554 0.446-1 1-1zm4 0 0.02 4e-3h7c-0.38 0.012-0.77 0.169-1.05 0.453l-1.26 1.248a1 1 0 0 0-0.22 0.324 1 1 0 0 0-0.34 0.223l-0.744 0.748h-3.406c-0.554 0-1-0.446-1-1v-1c0-0.554 0.446-1 1-1zm7.07 1c0.14 0 0.28 0.055 0.39 0.164l1.38 1.373c0.21 0.218 0.21 0.568 0 0.785l-1.26 1.252-2.16-2.16 1.25-1.25c0.11-0.114 0.25-0.164 0.4-0.164zm-2.21 1.959 2.13 2.121-4.136 4.16-2.854 0.76 0.715-2.9 4.145-4.141zm-6.36 0.23c0.1 0.126 0.185 0.212 0.311 0.311-0.126 0.1-0.212 0.185-0.311 0.311-0.1-0.126-0.185-0.212-0.311-0.311 0.126-0.1 0.212-0.185 0.311-0.311zm1.498 0.801h2.402l-2.392 2.39a1 1 0 0 0-0.268 0.47l-0.019 0.1c-0.349-0.11-0.609-0.38-0.688-0.74a1 1 0 0 0 0.037 0.49l-0.293-0.1 0.2-0.5s0.026-0.03 0.031-0.04c-1e-3 -0.02-0.01-0.04-0.01-0.06v-1c0-0.554 0.446-1 1-1v-0.01zm-3.998 0.01h1c0.554 0 1 0.446 1 1v1c0 0.55-0.446 1-1 1h-1c-0.554 0-1-0.45-1-1v-1c0-0.554 0.446-1 1-1zm11.88 1.48a1 1 0 0 0 0.12 0v0.47c0 0.55-0.45 1-1 1h-0.51l1.21-1.21a1 1 0 0 0 0.18-0.26z" opacity=".25"/>
 <path id="base" d="m2 1c-0.554 0-1 0.446-1 1v1c0 0.554 0.446 1 1 1h1c0.554 0 1-0.446 1-1v-1c0-0.554-0.446-1-1-1h-1zm4 0c-0.554 0-1 0.446-1 1v1c0 0.554 0.446 1 1 1h7c0.554 0 1-0.446 1-1v-1c0-0.554-0.446-1-1-1h-7zm-4 4c-0.554 0-1 0.446-1 1v1c0 0.554 0.446 1 1 1h1c0.554 0 1-0.446 1-1v-1c0-0.554-0.446-1-1-1h-1zm4 0c-0.554 0-1 0.446-1 1v1c0 0.554 0.446 1 1 1h3.4062l0.74805-0.74805a1 1.0001 0 0 1 0.33984-0.22266 1.0001 1.0001 0 0 1 0.21875-0.32422l1.2539-1.248c0.2843-0.2839 0.66842-0.44145 1.0547-0.45312-0.007549-1.665e-4 -0.013893-0.0039062-0.021484-0.0039062h-7zm7.0664 1c-0.14217 0-0.28364 0.055276-0.39258 0.16406l-1.2559 1.25 2.1641 2.1602 1.2539-1.252c0.21787-0.21755 0.21787-0.56759 0-0.78516l-1.377-1.373c-0.10894-0.10877-0.25041-0.16406-0.39258-0.16406zm-2.2051 1.959-4.1465 4.1426-0.71484 2.8984 2.8535-0.75977 4.1348-4.1562-2.127-2.125zm-8.8613 1.041c-0.554 0-1 0.446-1 1v1c0 0.554 0.446 1 1 1h1c0.554 0 1-0.446 1-1v-1c0-0.554-0.446-1-1-1h-1zm4 0c-0.554 0-1 0.446-1 1v1c0 0.45572 0.30721 0.82389 0.72266 0.94531l0.021484-0.083984a1.0001 1.0001 0 0 1 0.26367-0.4668l2.3965-2.3945h-2.4043zm8 1.4805a1.0001 1.0001 0 0 1-0.11719 0.046875 1.0001 1.0001 0 0 1-0.18555 0.26172l-1.2051 1.2109h0.50781c0.554 0 1-0.446 1-1v-0.51953z" fill="url(#gr0)"/>
 <path id="path17" d="m1 3v1c0 0.554 0.446 1 1 1h1c0.554 0 1-0.446 1-1v-1c0 0.554-0.446 1-1 1h-1c-0.554 0-1-0.446-1-1zm4 0v1c0 0.554 0.446 1 1 1h7c0.55 0 1-0.446 1-1v-1c0 0.554-0.45 1-1 1h-7c-0.554 0-1-0.446-1-1zm6.42 3.004-0.71 0.701a1 1 0 0 0-0.22 0.324 1 1 0 0 0-0.34 0.223l-0.744 0.748h-3.406c-0.554 0-1-0.446-1-1v1c0 0.553 0.445 0.999 0.998 1v-0.01h2.402l-9e-3 0.01h1.015l0.744-0.748a1 1 0 0 1 0.34-0.223 1 1 0 0 1 0.22-0.324l1.26-1.248c0.28-0.284 0.67-0.441 1.05-0.453h-1.6zm-10.42 0.996v1c0 0.554 0.446 1 1 1h1c0.554 0 1-0.446 1-1v-1c0 0.554-0.446 1-1 1h-1c-0.554 0-1-0.446-1-1zm10.92 0.914-0.5 0.5 2.16 2.156 1.26-1.248c0.21-0.217 0.21-0.567 0-0.785l-0.11-0.107-1.15 1.144-1.66-1.66zm-4.52 2.076-1.392 1.39a1 1 0 0 0-0.268 0.47l-0.019 0.1c-0.416-0.13-0.723-0.49-0.723-0.95v1c0 0.46 0.307 0.82 0.723 0.95l0.019-0.1a1 1 0 0 1 0.268-0.47l2.392-2.39h-1zm5.09 0.59-3.636 3.66-2.59 0.69-0.264 1.07 2.854-0.76 4.136-4.16-0.5-0.5zm-11.49 0.42v1c0 0.55 0.446 1 1 1h1c0.554 0 1-0.45 1-1v-1c0 0.55-0.446 1-1 1h-1c-0.554 0-1-0.45-1-1zm12.88 0.48a1 1 0 0 1-0.18 0.26l-1.21 1.21h0.51c0.55 0 1-0.45 1-1v-0.47a1 1 0 0 1-0.12 0z" opacity=".45"/>
 <path id="path24" d="m2 1c-0.554 0-1 0.446-1 1v1c0-0.554 0.446-1 1-1h1c0.554 0 1 0.446 1 1v-1c0-0.554-0.446-1-1-1h-1zm4 0c-0.554 0-1 0.446-1 1v1c0-0.554 0.446-1 1-1h7c0.55 0 1 0.446 1 1v-1c0-0.554-0.45-1-1-1h-7zm-4 4c-0.554 0-1 0.446-1 1v1c0-0.554 0.446-1 1-1h1c0.554 0 1 0.446 1 1v-1c0-0.554-0.446-1-1-1h-1zm4 0c-0.554 0-1 0.446-1 1v1c0-0.554 0.446-1 1-1l0.02 4e-3h5.4l0.55-0.547c0.28-0.284 0.67-0.441 1.05-0.453h-7l-0.02-4e-3zm7.07 1c-0.15 0-0.29 0.05-0.4 0.164l-1.25 1.25 0.5 0.5 0.75-0.75c0.11-0.114 0.25-0.164 0.4-0.164 0.14 0 0.28 0.055 0.39 0.164l1.27 1.266 0.11-0.108c0.21-0.217 0.21-0.567 0-0.785l-1.38-1.373c-0.11-0.109-0.25-0.164-0.39-0.164zm-2.21 1.959-4.145 4.141-0.715 2.9 0.264-0.07 0.451-1.83 4.145-4.141 1.63 1.621 0.5-0.5-2.13-2.121zm-8.86 1.041c-0.554 0-1 0.446-1 1v1c0-0.55 0.446-1 1-1h1c0.554 0 1 0.45 1 1v-1c0-0.554-0.446-1-1-1h-1zm4 0c-0.554 0-1 0.446-1 1v1c0-0.55 0.446-1 1-1l-2e-3 -0.01h1.402l0.993-0.99h-2.393zm7.88 1.48a1 1 0 0 1-0.18 0.26l-1.21 1.21h0.51c0.55 0 1-0.45 1-1v-0.47a1 1 0 0 1-0.12 0z" fill="#fff" opacity=".6"/>
</svg>
