<?xml version="1.0" encoding="UTF-8"?>
<svg id="svg29" width="16" height="16" version="1.1" xmlns="http://www.w3.org/2000/svg" xmlns:cc="http://creativecommons.org/ns#" xmlns:dc="http://purl.org/dc/elements/1.1/" xmlns:rdf="http://www.w3.org/1999/02/22-rdf-syntax-ns#">
 <metadata id="metadata33">
  <rdf:RDF>
   <cc:Work rdf:about="">
    <dc:format>image/svg+xml</dc:format>
    <dc:type rdf:resource="http://purl.org/dc/dcmitype/StillImage"/>
   </cc:Work>
  </rdf:RDF>
 </metadata>
 <defs id="defs7">
  <linearGradient id="gr0" x1="8" x2="8" y1="1" y2="15" gradientUnits="userSpaceOnUse">
   <stop id="stop2" stop-color="#ebebeb" offset="0"/>
   <stop id="stop4" stop-color="#aaa" offset="1"/>
  </linearGradient>
 </defs>
 <path id="path9" d="m8 0c-4.406 0-8 3.594-8 8 0 4.41 3.594 8 8 8 4.41 0 8-3.59 8-8 0-4.406-3.59-8-8-8zm0 1c3.87 0 7 3.134 7 7 0 3.87-3.13 7-7 7-3.866 0-7-3.13-7-7 0-3.866 3.134-7 7-7zm0 2c-2.761 0-5 2.239-5 5 0 2.76 2.239 5 5 5 2.76 0 5-2.24 5-5 0-2.761-2.24-5-5-5zm0 1c2.09 0 3.73 1.591 3.92 3.623a1 1 0 0 0-0.41-0.48l-4.803-2.885c0.41-0.141 0.834-0.258 1.293-0.258zm-2 1 5 3-5 3v-6zm-1 0.418v5.162c-0.601-0.697-1-1.579-1-2.58s0.399-1.883 1-2.582zm6.92 2.959c-0.19 2.033-1.83 3.623-3.92 3.623-0.459 0-0.883-0.12-1.293-0.26l4.803-2.883a1 1 0 0 0 0.41-0.48z" opacity=".25"/>
 <path id="base" d="m8 1c-3.866 0-7 3.134-7 7s3.134 7 7 7 7-3.134 7-7-3.134-7-7-7zm0 2c2.7614 0 5 2.2386 5 5s-2.2386 5-5 5-5-2.2386-5-5 2.2386-5 5-5zm-2 2v6l5-3-5-3z" fill="url(#gr0)"/>
 <path id="path17" d="m8 3c-2.761 0-5 2.239-5 5 0 0.169 9e-3 0.336 0.025 0.5 0.251-2.527 2.383-4.5 4.975-4.5 2.59 0 4.72 1.973 4.97 4.5 0.02-0.164 0.03-0.331 0.03-0.5 0-2.761-2.24-5-5-5zm-6.975 5.5c-0.011 0.166-0.025 0.331-0.025 0.5 0 3.87 3.134 7 7 7 3.87 0 7-3.13 7-7 0-0.169-0.01-0.334-0.03-0.5-0.25 3.64-3.27 6.5-6.97 6.5-3.697 0-6.718-2.86-6.975-6.5zm9.145 0-4.17 2.5v1l5-3-0.83-0.5z" opacity=".45"/>
 <path id="path24" d="m8 1c-3.866 0-7 3.134-7 7 0 0.169 0.014 0.334 0.025 0.5 0.258-3.631 3.278-6.5 6.975-6.5 3.7 0 6.72 2.869 6.97 6.5 0.02-0.166 0.03-0.331 0.03-0.5 0-3.866-3.13-7-7-7zm-2 4v1l4.17 2.5 0.83-0.5-5-3zm-2.975 3.5c-0.016 0.164-0.025 0.331-0.025 0.5 0 2.76 2.239 5 5 5 2.76 0 5-2.24 5-5 0-0.169-0.01-0.336-0.03-0.5-0.25 2.53-2.38 4.5-4.97 4.5-2.592 0-4.724-1.97-4.975-4.5z" fill="#fff" opacity=".6"/>
</svg>
