<?xml version="1.0" encoding="UTF-8"?>
<svg id="svg29" width="16" height="16" version="1.1" xmlns="http://www.w3.org/2000/svg" xmlns:cc="http://creativecommons.org/ns#" xmlns:dc="http://purl.org/dc/elements/1.1/" xmlns:rdf="http://www.w3.org/1999/02/22-rdf-syntax-ns#">
 <metadata id="metadata33">
  <rdf:RDF>
   <cc:Work rdf:about="">
    <dc:format>image/svg+xml</dc:format>
    <dc:type rdf:resource="http://purl.org/dc/dcmitype/StillImage"/>
   </cc:Work>
  </rdf:RDF>
 </metadata>
 <defs id="defs7">
  <linearGradient id="gr0" x1="8" x2="8" y1="3" y2="15" gradientUnits="userSpaceOnUse">
   <stop id="stop2" stop-color="#ebebeb" offset="0"/>
   <stop id="stop4" stop-color="#aaa" offset="1"/>
  </linearGradient>
 </defs>
 <path id="path9" d="m8 2c-2.753 0-5 2.247-5 5v8a1 1 0 0 0 1 1h1.5a1 1 0 0 0 1-1v-8c0-0.848 0.652-1.5 1.5-1.5s1.5 0.652 1.5 1.5v8a1 1 0 0 0 1 1h1.5a1 1 0 0 0 1-1v-8c0-2.753-2.25-5-5-5zm0 1c2.22 0 4 1.784 4 4v8h-1.5v-8c0-1.385-1.115-2.5-2.5-2.5s-2.5 1.115-2.5 2.5v8h-1.5v-8c0-2.216 1.784-4 4-4z" opacity=".25"/>
 <path id="base" d="m8 3c-2.216 0-4 1.784-4 4v8h1.5v-8c0-1.385 1.115-2.5 2.5-2.5s2.5 1.115 2.5 2.5v8h1.5v-8c0-2.216-1.784-4-4-4z" fill="url(#gr0)"/>
 <path id="path17" d="m8 4.5c-1.385 0-2.5 1.115-2.5 2.5v1c0-1.385 1.115-2.5 2.5-2.5s2.5 1.115 2.5 2.5v-1c0-1.385-1.115-2.5-2.5-2.5zm-4 10.5v1h1.5v-1h-1.5zm6.5 0v1h1.5v-1h-1.5z" opacity=".45"/>
 <path id="path24" d="m8 3c-2.216 0-4 1.784-4 4v1c0-2.216 1.784-4 4-4 2.22 0 4 1.784 4 4v-1c0-2.216-1.78-4-4-4z" fill="#fff" opacity=".6"/>
</svg>
