<?xml version="1.0" encoding="UTF-8"?>
<svg id="svg29" width="16" height="16" version="1.1" xmlns="http://www.w3.org/2000/svg" xmlns:cc="http://creativecommons.org/ns#" xmlns:dc="http://purl.org/dc/elements/1.1/" xmlns:rdf="http://www.w3.org/1999/02/22-rdf-syntax-ns#">
 <metadata id="metadata33">
  <rdf:RDF>
   <cc:Work rdf:about="">
    <dc:format>image/svg+xml</dc:format>
    <dc:type rdf:resource="http://purl.org/dc/dcmitype/StillImage"/>
   </cc:Work>
  </rdf:RDF>
 </metadata>
 <defs id="defs7">
  <linearGradient id="gr0" x1="8" x2="8" y1=".9997" y2="15" gradientUnits="userSpaceOnUse">
   <stop id="stop2" stop-color="#ebebeb" offset="0"/>
   <stop id="stop4" stop-color="#aaa" offset="1"/>
  </linearGradient>
 </defs>
 <path id="path9" d="m7.441 0c-0.765 0.03-1.442 0.7338-1.441 1.5v2.879l-0.426-0.426c-0.551-0.574-1.58-0.583-2.142-0.019-0.563 0.562-0.554 1.589 0.019 2.14l1.928 1.928-1.928 1.926c-0.574 0.552-0.583 1.582-0.019 2.142 0.562 0.56 1.591 0.55 2.142 0l0.426-0.43v2.88c0 0.61 0.409 1.19 0.979 1.41 0.569 0.21 1.261 0 1.658-0.43l3.003-3.5c0.48-0.57 0.45-1.51-0.1-2.039l-1.94-1.94 1.94-1.939c0.53-0.529 0.56-1.469 0.1-2.037l-3.003-3.4981c-0.1-0.1137-0.272-0.0951-0.399-0.1739a1 1 0 0 0-0.797-0.34761v-0.02539zm0.039 1a0.5 0.5 0 0 1 0.399 0.174l3.001 3.5a0.5 0.5 0 0 1 0 0.68l-2.644 2.646 2.644 2.65a0.5 0.5 0 0 1 0 0.68l-3.001 3.5a0.5 0.5 0 0 1-0.879-0.33v-5.293l-2.146 2.143a0.5 0.5 0 1 1-0.708-0.7l2.647-2.65-2.647-2.646a0.5006 0.5006 0 1 1 0.708-0.708l2.146 2.147v-5.293a0.5 0.5 0 0 1 0.48-0.5zm0.52 1.852v3.941l1.818-1.818-1.818-2.123zm0 6.355v3.943l1.818-2.12-1.818-1.823z" opacity=".25"/>
 <path id="base" d="m7.4805 1a0.50005 0.50005 0 0 0-0.48047 0.5v5.293l-2.1465-2.1465a0.50005 0.50005 0 1 0-0.70703 0.70703l2.6465 2.6465-2.6465 2.6465a0.50005 0.50005 0 1 0 0.70703 0.70703l2.1465-2.1465v5.293a0.50005 0.50005 0 0 0 0.87891 0.32617l3-3.5a0.50005 0.50005 0 0 0-0.02539-0.67969l-2.6465-2.6465 2.6465-2.6465a0.50005 0.50005 0 0 0 0.02539-0.67969l-3-3.5a0.50005 0.50005 0 0 0-0.39844-0.17383zm0.51953 1.8516 1.8184 2.123-1.8184 1.8184zm0 6.3555 1.8184 1.8184-1.8184 2.123z" fill="url(#gr0)"/>
 <path id="path17" d="m8 2.852v1l1.357 1.584 0.461-0.461-1.818-2.123zm2.73 2.65-2.494 2.498 0.5 0.5 2.144-2.146a0.5 0.5 0 0 0 0-0.68l-0.15-0.172zm-6.406 0.029a0.5006 0.5006 0 0 0-0.178 0.823l2.147 2.146 0.5-0.5-2.469-2.469zm2.676 3.676-2.146 2.143a0.5 0.5 0 0 1-0.559 0.15l-0.149 0.15a0.5 0.5 0 1 0 0.708 0.7l2.146-2.14v-1.003zm1 0v1.003l1.357 1.36 0.461-0.54-1.818-1.823zm2.73 2.293-2.851 3.33a0.5 0.5 0 0 1-0.879-0.33v1a0.5 0.5 0 0 0 0.879 0.33l3.001-3.5a0.5 0.5 0 0 0 0-0.68l-0.15-0.15z" opacity=".45"/>
 <path id="path24" d="m7.48 1a0.5 0.5 0 0 0-0.48 0.5v0.984a0.5 0.5 0 0 1 0.48-0.484 0.5 0.5 0 0 1 0.399 0.174l2.851 3.328 0.15-0.148a0.5 0.5 0 0 0 0-0.68l-3.001-3.5a0.5 0.5 0 0 0-0.399-0.174zm-2.988 3.5a0.5006 0.5006 0 0 0-0.346 0.854l0.178 0.177a0.5006 0.5006 0 0 1 0.53 0.115l2.146 2.147v-1l-2.146-2.147a0.5006 0.5006 0 0 0-0.362-0.146zm4.865 0.936-1.357 1.357v1l1.818-1.818-0.461-0.539zm-3.064 3.064-2.147 2.15a0.5 0.5 0 0 0 0.149 0.85l2.498-2.5-0.5-0.5zm2.443 0-0.5 0.5 2.494 2.5 0.15-0.17a0.5 0.5 0 0 0 0-0.68l-2.144-2.15zm0.621 3.07-1.357 1.58v1l1.818-2.12-0.461-0.46z" fill="#fff" opacity=".6"/>
</svg>
