<?xml version="1.0" encoding="UTF-8"?>
<svg id="svg29" width="16" height="16" version="1.1" xmlns="http://www.w3.org/2000/svg" xmlns:cc="http://creativecommons.org/ns#" xmlns:dc="http://purl.org/dc/elements/1.1/" xmlns:rdf="http://www.w3.org/1999/02/22-rdf-syntax-ns#">
 <metadata id="metadata33">
  <rdf:RDF>
   <cc:Work rdf:about="">
    <dc:format>image/svg+xml</dc:format>
    <dc:type rdf:resource="http://purl.org/dc/dcmitype/StillImage"/>
   </cc:Work>
  </rdf:RDF>
 </metadata>
 <defs id="defs7">
  <linearGradient id="gr0" x1="8" x2="8" y1="1.5" y2="15" gradientUnits="userSpaceOnUse">
   <stop id="stop2" stop-color="#ebebeb" offset="0"/>
   <stop id="stop4" stop-color="#aaa" offset="1"/>
  </linearGradient>
 </defs>
 <path id="path9" d="m4.451 0.502a1 1 0 0 0-0.9 0.686l-0.586 1.777-1.777 0.586a1 1 0 0 0 0 1.898l1.777 0.586 0.586 1.777a1 1 0 0 0 1.898 0l0.586-1.777 1.777-0.586a1 1 0 0 0 0.651-1.215c0.01 0 0.021 0.02 0.041 0.02 0.952 0 1.746-0.798 1.746-1.75s-0.794-1.7501-1.746-1.7501-1.75 0.7981-1.75 1.7501c0 0.314 0.191 0.555 0.342 0.812l-1.059-0.347-0.586-1.778a1 1 0 0 0-0.998-0.6851l-2e-3 -0.0039zm0.049 0.998 0.744 2.256 2.256 0.744-2.256 0.744-0.744 2.256-0.744-2.256-2.256-0.744 2.256-0.744 0.744-2.256zm4 0.25c0.416 0 0.75 0.335 0.75 0.75 0 0.416-0.334 0.75-0.75 0.75-0.415 0-0.75-0.334-0.75-0.75 0-0.415 0.335-0.75 0.75-0.75zm4 0c-0.95 0-1.75 0.798-1.75 1.75 0 0.595 0.36 1.044 0.83 1.361l0.09 0.323c1.95 0.707 3.33 2.557 3.33 4.748 0 2.798-2.27 5.068-5.068 5.068-2.399 0-4.407-1.65-4.932-3.89 0.751 0.62 1.71 0.99 2.76 0.99 2.4 0 4.34-1.94 4.34-4.34 0-0.75-0.2-1.45-0.53-2.065l-1.23-0.058c0.12 0.15 0.1 0.38 0.2 0.549-0.3-0.234-0.64-0.436-1.04-0.436-0.952 0-1.75 0.798-1.75 1.75s0.798 1.75 1.75 1.75c0.79 0 1.36-0.595 1.57-1.32-0.1 1.773-1.512 3.17-3.31 3.17-0.812 0-1.542-0.28-2.123-0.76a1 1 0 0 0-1.61 1c0.63 2.68 3.047 4.66 5.905 4.66 3.338 0 6.068-2.73 6.068-6.068 0-2.091-1.07-3.93-2.69-5.022 0.52-0.305 0.94-0.77 0.94-1.41 0-0.952-0.8-1.75-1.75-1.75zm0 1c0.42 0 0.75 0.335 0.75 0.75 0 0.416-0.33 0.75-0.75 0.75s-0.75-0.334-0.75-0.75c0-0.415 0.33-0.75 0.75-0.75zm-3 4c0.416 0 0.75 0.334 0.75 0.75 0 0.415-0.334 0.75-0.75 0.75-0.415 0-0.75-0.335-0.75-0.75 0-0.416 0.335-0.75 0.75-0.75z" color="#bebebe" opacity=".25"/>
 <path id="base" d="m4.5 1.5-0.74414 2.2559-2.2559 0.74414 2.2559 0.74414 0.74414 2.2559 0.74414-2.2559 2.2559-0.74414-2.2559-0.74414-0.74414-2.2559zm4 0.25c-0.4155 0-0.75 0.3345-0.75 0.75s0.3345 0.75 0.75 0.75 0.75-0.3345 0.75-0.75-0.3345-0.75-0.75-0.75zm4 1c-0.4155 0-0.75 0.3345-0.75 0.75s0.3345 0.75 0.75 0.75 0.75-0.3345 0.75-0.75-0.3345-0.75-0.75-0.75zm-1.3906 2.25c0.61968 0.75088 0.99414 1.7102 0.99414 2.7598 0 2.3991-1.9447 4.3438-4.3438 4.3438-1.0496 0-2.0089-0.37446-2.7598-0.99414 0.52525 2.2389 2.5326 3.8906 4.9316 3.8906 2.7989 0 5.0684-2.2695 5.0684-5.0684 0-2.3991-1.6518-4.4064-3.8906-4.9316zm-1.6094 1.75c-0.4155 0-0.75 0.3345-0.75 0.75s0.3345 0.75 0.75 0.75 0.75-0.3345 0.75-0.75-0.3345-0.75-0.75-0.75z" color="#bebebe" fill="url(#gr0)"/>
 <path id="path17" d="m7.947 3c-0.12 0.133-0.197 0.306-0.197 0.5 0 0.416 0.335 0.75 0.75 0.75 0.416 0 0.75-0.334 0.75-0.75 0-0.194-0.077-0.367-0.197-0.5-0.137 0.152-0.331 0.25-0.553 0.25-0.221 0-0.416-0.098-0.553-0.25zm4.003 1c-0.12 0.133-0.2 0.306-0.2 0.5 0 0.416 0.33 0.75 0.75 0.75s0.75-0.334 0.75-0.75c0-0.194-0.08-0.367-0.2-0.5-0.13 0.152-0.33 0.25-0.55 0.25s-0.42-0.098-0.55-0.25zm-8.934 1-1.516 0.5 2.256 0.744 0.744 2.256 0.744-2.256 2.256-0.744-1.516-0.5-0.74 0.244-0.744 2.256-0.744-2.256-0.74-0.244zm8.094 1c0.51 0.62 0.84 1.386 0.94 2.223 0.02-0.155 0.05-0.305 0.05-0.463 0-0.539-0.1-1.052-0.28-1.528-0.23-0.091-0.46-0.174-0.71-0.232zm-2.163 2c-0.12 0.133-0.197 0.306-0.197 0.5 0 0.415 0.335 0.75 0.75 0.75 0.416 0 0.75-0.335 0.75-0.75 0-0.194-0.08-0.367-0.2-0.5-0.134 0.152-0.328 0.25-0.55 0.25-0.221 0-0.416-0.098-0.553-0.25zm6.013 2.52c-0.29 2.52-2.43 4.48-5.028 4.48-1.863 0-3.48-1-4.36-2.49-0.201-0.12-0.393-0.25-0.572-0.4 0.525 2.24 2.533 3.89 4.932 3.89 2.798 0 5.068-2.27 5.068-5.07 0-0.14-0.02-0.28-0.04-0.41z" color="#bebebe" opacity=".45"/>
 <path id="path24" d="m4.5 1.5-0.744 2.256-2.256 0.744 1.516 0.5 0.74-0.244 0.744-2.256 0.744 2.256 0.74 0.244 1.516-0.5-2.256-0.744-0.744-2.256zm4 0.25c-0.415 0-0.75 0.335-0.75 0.75 0 0.194 0.077 0.367 0.197 0.5 0.137-0.152 0.332-0.25 0.553-0.25 0.222 0 0.416 0.098 0.553 0.25 0.12-0.133 0.197-0.306 0.197-0.5 0-0.415-0.334-0.75-0.75-0.75zm4 1c-0.42 0-0.75 0.335-0.75 0.75 0 0.194 0.08 0.367 0.2 0.5 0.13-0.152 0.33-0.25 0.55-0.25s0.42 0.098 0.55 0.25c0.12-0.133 0.2-0.306 0.2-0.5 0-0.415-0.33-0.75-0.75-0.75zm-1.39 2.25c0.3 0.365 0.54 0.782 0.71 1.232 1.74 0.696 2.99 2.332 3.14 4.288 0.03-0.2 0.04-0.39 0.04-0.588 0-2.399-1.65-4.407-3.89-4.932zm-1.61 1.75c-0.415 0-0.75 0.334-0.75 0.75 0 0.194 0.077 0.367 0.197 0.5 0.137-0.152 0.332-0.25 0.553-0.25 0.222 0 0.416 0.098 0.55 0.25 0.12-0.133 0.2-0.306 0.2-0.5 0-0.416-0.334-0.75-0.75-0.75zm2.55 1.473c-0.23 2.177-2.05 3.877-4.29 3.877-1.05 0-2.009-0.37-2.76-0.99 0.117 0.5 0.319 0.97 0.572 1.4 0.643 0.37 1.388 0.59 2.188 0.59 2.4 0 4.34-1.94 4.34-4.34 0-0.184-0.03-0.36-0.05-0.537z" color="#bebebe" fill="#fff" opacity=".6"/>
</svg>
