<?xml version="1.0" encoding="UTF-8"?>
<svg id="svg29" width="16" height="16" version="1.1" xmlns="http://www.w3.org/2000/svg" xmlns:cc="http://creativecommons.org/ns#" xmlns:dc="http://purl.org/dc/elements/1.1/" xmlns:rdf="http://www.w3.org/1999/02/22-rdf-syntax-ns#">
 <metadata id="metadata33">
  <rdf:RDF>
   <cc:Work rdf:about="">
    <dc:format>image/svg+xml</dc:format>
    <dc:type rdf:resource="http://purl.org/dc/dcmitype/StillImage"/>
   </cc:Work>
  </rdf:RDF>
 </metadata>
 <defs id="defs7">
  <linearGradient id="gr0" x1="8" x2="8" y1="1" y2="15" gradientUnits="userSpaceOnUse">
   <stop id="stop2" stop-color="#ebebeb" offset="0"/>
   <stop id="stop4" stop-color="#aaa" offset="1"/>
  </linearGradient>
 </defs>
 <path id="path9" d="m2 0c-1.0907 0-2 0.9093-2 2v13a1 1 0 0 0 1 1h14a1 1 0 0 0 1-1v-13c0-1.0907-0.91-2-2-2h-12zm0 1h12c0.55 0 1 0.446 1 1v13h-14v-13c0-0.554 0.446-1 1-1zm6 1v1h1v-1h-1zm2 0v1h1v-1h-1zm2 0v1h1v-1h-1zm-9 2v9h10v-9h-10zm1 1h8v7h-8v-7z" opacity=".25"/>
 <path id="base" d="m2 1c-0.554 0-1 0.446-1 1v13h14v-13c0-0.554-0.446-1-1-1zm6 1h1v1h-1zm2 0h1v1h-1zm2 0h1v1h-1zm-9 2h10v9h-10z" fill="url(#gr0)"/>
 <path id="path17" d="m8 2v1h1v-1h-1zm2 0v1h1v-1h-1zm2 0v1h1v-1h-1zm-9 2v1h10v-1h-1-1-1-1-1-5zm-2 11v1h14v-1h-14z" opacity=".45"/>
 <path id="path24" d="m2 1c-0.554 0-1 0.446-1 1v1c0-0.554 0.446-1 1-1h6 1 1 1 1 1 1c0.55 0 1 0.446 1 1v-1c0-0.554-0.45-1-1-1h-12zm6 2v1h1v-1h-1zm2 0v1h1v-1h-1zm2 0v1h1v-1h-1zm-9 10v1h10v-1h-10z" fill="#fff" opacity=".6"/>
</svg>
