<?xml version="1.0" encoding="UTF-8"?>
<svg id="svg29" width="16" height="16" version="1.1" xmlns="http://www.w3.org/2000/svg" xmlns:cc="http://creativecommons.org/ns#" xmlns:dc="http://purl.org/dc/elements/1.1/" xmlns:rdf="http://www.w3.org/1999/02/22-rdf-syntax-ns#">
 <metadata id="metadata33">
  <rdf:RDF>
   <cc:Work rdf:about="">
    <dc:format>image/svg+xml</dc:format>
    <dc:type rdf:resource="http://purl.org/dc/dcmitype/StillImage"/>
   </cc:Work>
  </rdf:RDF>
 </metadata>
 <defs id="defs7">
  <linearGradient id="gr0" x1="8" x2="8" y1="2" y2="13" gradientUnits="userSpaceOnUse">
   <stop id="stop2" stop-color="#ebebeb" offset="0"/>
   <stop id="stop4" stop-color="#aaa" offset="1"/>
  </linearGradient>
 </defs>
 <path id="path9" d="m4 1a1 1 0 0 0-1 1v2a1 1 0 0 0 0.135 0.5 1 1 0 0 0-0.135 0.5h-1a1 1 0 0 0-1 1v1a1 1 0 0 0-1 1v4a1 1 0 0 0 1 1h1a1 1 0 0 0 1-1 1 1 0 0 0 1 1 1 1 0 0 0 1 1h2a1 1 0 0 0 1-1 1 1 0 0 0 1 1h2a1 1 0 0 0 1-1 1 1 0 0 0 1-1 1 1 0 0 0 1 1h1a1 1 0 0 0 1-1v-4a1 1 0 0 0-1-1v-1a1 1 0 0 0-1-1h-1a1 1 0 0 0-0.13-0.5 1 1 0 0 0 0.13-0.5v-2a1 1 0 0 0-1-1h-2a1 1 0 0 0-1 1v1a1 1 0 0 0-1 1 1 1 0 0 0-1-1v-1a1 1 0 0 0-1-1h-2zm0 1h2v2h1v1h1 1v-1h1v-2h2v2h-2v1h1 1v1h2v2h1v4h-1v-2h-2v2h-1v1h-2v-1h2v-1h-2-1-1-2v1h2v1h-2v-1h-1v-2h-2v2h-1v-4h1v-2h2v-1h1 1v-1h-2v-2zm1 4v2h2v-2h-2zm4 0v2h2v-2h-2z" opacity=".25"/>
 <path id="base" d="m4 2v2h2v-2h-2zm2 2v1h-2v1h-2v2h-1v4h1v-2h2v2h1v-1h6v1h1v-2h2v2h1v-4h-1v-2h-2v-1h-2v-1h-1v1h-2v-1h-1zm4 0h2v-2h-2v2zm1 8h-2v1h2v-1zm-6 0v1h2v-1h-2zm0-6h2v2h-2v-2zm4 0h2v2h-2v-2z" fill="url(#gr0)"/>
 <path id="path17" d="m4 4v1h1 1v-1h-2zm6 0v1h1 1v-1h-2zm-5 2v1h2v-1h-1-1zm4 0v1h2v-1h-1-1zm-7 4v1h2v-1h-2zm10 0v1h2v-1h-2zm-7 1v1h2 1 1 2v-1h-2-1-1-2zm6 1v1h1v-1h-1zm0 1h-2v1h2v-1zm-6-1h-1v1h1v-1zm0 1v1h2v-1h-2zm-4-1v1h1v-1h-1zm13 0v1h1v-1h-1z" opacity=".45"/>
 <path id="path24" d="m4 2v1h2v-1h-2zm6 0v1h2v-1h-2zm-4 2v1h1v-1h-1zm1 1v1h1 1v-1h-1-1zm2 0h1v-1h-1v1zm1 0v1h1 1v-1h-2zm2 1v1h2v-1h-2zm-6-1h-2v1h1 1v-1zm-2 1h-2v1h2v-1zm-3 2v1h1v-1h-1zm4 0v1h2v-1h-2zm4 0v1h2v-1h-2zm5 0v1h1v-1h-1zm-9 4v1h2v-1h-2zm4 0v1h2v-1h-2z" fill="#fff" opacity=".6"/>
</svg>
