<?xml version="1.0" encoding="UTF-8"?>
<svg id="svg29" width="16" height="16" version="1.1" xmlns="http://www.w3.org/2000/svg" xmlns:cc="http://creativecommons.org/ns#" xmlns:dc="http://purl.org/dc/elements/1.1/" xmlns:rdf="http://www.w3.org/1999/02/22-rdf-syntax-ns#">
 <metadata id="metadata33">
  <rdf:RDF>
   <cc:Work rdf:about="">
    <dc:format>image/svg+xml</dc:format>
    <dc:type rdf:resource="http://purl.org/dc/dcmitype/StillImage"/>
   </cc:Work>
  </rdf:RDF>
 </metadata>
 <defs id="defs7">
  <linearGradient id="gr0" x1="8" x2="8" y1=".9994" y2="14.999" gradientUnits="userSpaceOnUse">
   <stop id="stop2" stop-color="#ebebeb" offset="0"/>
   <stop id="stop4" stop-color="#aaa" offset="1"/>
  </linearGradient>
 </defs>
 <path id="path9" d="m8.029 0a1 1 0 0 0-0.568 0.1758c-0.453 0.1746-0.818 0.4402-0.94 0.5898-0.208 0.2574-0.346 0.5164-0.459 0.7464-0.232 0.479-0.423 0.999-0.605 1.506-0.175 0.488-0.341 0.962-0.477 1.308-0.351 0.02-0.82 0.041-1.314 0.061-0.518 0.02-1.055 0.04-1.572 0.121-0.246 0.04-0.536 0.099-0.844 0.222-0.2505 0.104-0.9264 0.487-1.1562 1.213-0.23045 0.729 0.08605 1.422 0.22655 1.659 0.1685 0.284 0.3646 0.501 0.541 0.685 0.3647 0.382 0.7817 0.735 1.1877 1.072 0.399 0.333 0.79 0.641 1.06 0.891-0.09 0.36-0.231 0.86-0.373 1.38s-0.288 1.06-0.373 1.59c-0.04 0.25-0.081 0.55-0.051 0.86 0.021 0.28 0.138 1.05 0.749 1.5 0.612 0.47 1.403 0.37 1.664 0.31 0.321-0.1 0.584-0.22 0.806-0.32 0.463-0.25 0.914-0.57 1.348-0.85 0.409-0.29 0.792-0.56 1.09-0.75 0.296 0.19 0.679 0.47 1.086 0.76 0.429 0.3 0.877 0.6 1.335 0.85 0.22 0.12 0.49 0.25 0.81 0.34 0.26 0.1 1.05 0.17 1.66-0.28 0.62-0.47 0.75-1.23 0.76-1.49v-0.89c-0.1-0.52-0.22-1.07-0.36-1.59-0.14-0.51-0.28-1.01-0.36-1.38 0.27-0.24 0.66-0.544 1.06-0.872 0.41-0.333 0.84-0.683 1.2-1.061 0.18-0.184 0.38-0.402 0.55-0.683 0.14-0.234 0.47-0.922 0.24-1.653-0.22-0.731-0.9-1.12-1.14-1.226-0.31-0.13-0.6-0.19-0.84-0.231-0.52-0.09-1.06-0.112-1.58-0.136-0.49-0.02-0.96-0.041-1.31-0.061-0.13-0.345-0.29-0.822-0.47-1.316-0.17-0.51-0.36-1.032-0.59-1.512-0.105-0.228-0.241-0.487-0.45-0.7499-0.169-0.2128-0.721-0.77553-1.5-0.77933l-0.041-0.009766zm0.092 0.9941h2e-3c0.381 0.0025 0.588 0.2319 0.725 0.4019 0.136 0.171 0.232 0.355 0.332 0.561 0.196 0.41 0.374 0.906 0.549 1.408 0.176 0.503 0.341 1.009 0.491 1.393 0.08 0.192 0.1 0.356 0.2 0.461v0.041c0 0.01 0.1 0.029 0.1 0.029 0.11 0.02 0.28 0.041 0.48 0.061 0.39 0.03 0.91 0.05 1.42 0.07 0.51 0.024 1.02 0.055 1.45 0.125 0.22 0.036 0.41 0.082 0.61 0.162 0.2 0.084 0.47 0.22 0.59 0.6 0.11 0.381-0.03 0.651-0.15 0.839-0.11 0.189-0.25 0.343-0.4 0.504-0.32 0.322-0.71 0.655-1.12 0.985-0.4 0.329-0.81 0.654-1.11 0.92-0.16 0.133-0.26 0.256-0.36 0.336s-0.1 0.169-0.1 0.039v0.07c0 0.12 0 0.29 0.1 0.49 0.09 0.41 0.23 0.92 0.37 1.44 0.14 0.51 0.24 1.03 0.34 1.48v0.66c-0.02 0.22-0.06 0.53-0.37 0.76s-0.6 0.22-0.81 0.12c-0.2-0.05-0.39-0.14-0.58-0.25-0.39-0.21-0.82-0.5-1.243-0.8-0.424-0.3-0.85-0.61-1.186-0.83-0.168-0.11-0.316-0.15-0.418-0.25h-0.049c0.122 0 0.043-0.1-0.06 0-0.102 0.05-0.249 0.14-0.418 0.25-0.339 0.22-0.765 0.52-1.192 0.81-0.427 0.3-0.856 0.59-1.248 0.79-0.196 0.11-0.378 0.15-0.586 0.25-0.207 0.05-0.498 0.11-0.806-0.13-0.312-0.24-0.352-0.54-0.362-0.77-0.019-0.22 0-0.43 0.04-0.66 0.072-0.45 0.208-0.96 0.349-1.47 0.141-0.52 0.287-1.03 0.387-1.43 0.05-0.2 0.09-0.38 0.1-0.491v-0.049c-0.01-0.02-0.022-0.031-0.042-0.061-0.078-0.086-0.2-0.204-0.351-0.339-0.302-0.268-0.709-0.597-1.109-0.93-0.401-0.333-0.798-0.668-1.108-0.992-0.156-0.162-0.287-0.318-0.4-0.508-0.115-0.189-0.2546-0.467-0.135-0.846 0.12-0.379 0.39-0.512 0.588-0.592 0.199-0.088 0.393-0.128 0.611-0.158 0.434-0.069 0.943-0.089 1.455-0.109s1.024-0.031 1.42-0.061c0.198-0.01 0.372-0.029 0.483-0.049 0.02-0.01 0.028-0.019 0.048-0.019 0.02-0.01 0.031-0.021 0.041-0.051 0.054-0.103 0.122-0.268 0.202-0.459 0.152-0.383 0.325-0.886 0.505-1.387s0.364-0.996 0.563-1.404c0.1-0.205 0.201-0.387 0.338-0.557 0.138-0.17 0.343-0.394 0.726-0.394l0.098-0.0099zm-0.078 1.7579c-0.135 0.3-0.282 0.66-0.432 1.076-0.176 0.489-0.35 1-0.521 1.43-0.085 0.215-0.172 0.411-0.262 0.586-0.091 0.175-0.158 0.334-0.387 0.506-0.23 0.172-0.394 0.18-0.582 0.22-0.188 0.03-0.393 0.061-0.615 0.071-0.446 0.03-0.964 0.04-1.463 0.06-0.437 0.01-0.826 0.04-1.146 0.08 0.234 0.231 0.531 0.498 0.873 0.781 0.391 0.326 0.8 0.656 1.14 0.958 0.17 0.151 0.323 0.294 0.454 0.439s0.249 0.262 0.339 0.543 0.06 0.45 0.03 0.648c-0.025 0.19-0.075 0.4-0.125 0.63-0.108 0.45-0.26 0.97-0.397 1.47-0.121 0.44-0.217 0.83-0.277 1.16 0.283-0.16 0.617-0.37 0.982-0.62 0.417-0.29 0.845-0.6 1.225-0.84 0.19-0.12 0.367-0.21 0.539-0.31 0.173-0.07 0.317-0.17 0.6-0.17s0.425 0.07 0.597 0.17c0.171 0.09 0.348 0.2 0.537 0.32 0.378 0.25 0.803 0.56 1.218 0.85 0.36 0.26 0.69 0.47 0.98 0.63-0.06-0.33-0.15-0.72-0.27-1.16-0.13-0.51-0.28-1.03-0.38-1.48-0.02-0.22-0.12-0.43-0.12-0.63-0.1-0.194-0.1-0.364 0-0.645 0.09-0.28 0.21-0.395 0.34-0.539 0.13-0.143 0.29-0.284 0.46-0.433 0.34-0.299 0.76-0.627 1.15-0.948 0.34-0.281 0.64-0.544 0.88-0.773-0.32-0.05-0.71-0.08-1.15-0.1-0.5-0.02-1.01-0.03-1.46-0.07-0.22-0.02-0.43-0.04-0.61-0.08-0.192-0.037-0.357-0.055-0.585-0.23-0.228-0.174-0.294-0.334-0.384-0.51-0.09-0.175-0.174-0.372-0.254-0.588-0.167-0.432-0.337-0.944-0.508-1.434-0.144-0.412-0.285-0.769-0.416-1.068zm-0.043 2.812c2e-3 0.018 0.011 0.036 0.02 0.045 0.09 0.23 0.18 0.456 0.296 0.684 0.07 0.136 0.28 0.552 0.666 0.848 0.387 0.296 0.857 0.391 0.998 0.418 0.25 0.05 0.49 0.069 0.73 0.089h0.16c0 0.04-0.11 0.09-0.16 0.131-0.18 0.159-0.36 0.324-0.53 0.512-0.11 0.112-0.424 0.456-0.569 0.914-0.145 0.459-0.09 0.905-0.07 1.065 0.03 0.26 0.08 0.5 0.137 0.74 0.01 0 0.021 0.1 0.041 0.13h-0.061c-0.201-0.13-0.405-0.25-0.633-0.37-0.132-0.1-0.558-0.28-1.045-0.28-0.49 0-0.918 0.21-1.046 0.27-0.222 0.11-0.43 0.23-0.637 0.37h-0.061c0.01-0.1 0.031-0.1 0.041-0.14 0.06-0.24 0.109-0.48 0.143-0.73 0.02-0.16 0.079-0.612-0.061-1.072-0.141-0.462-0.451-0.808-0.552-0.92-0.171-0.189-0.351-0.354-0.532-0.514-0.05-0.05-0.109-0.09-0.162-0.135h0.164c0.24-0.02 0.483-0.04 0.731-0.08 0.141-0.03 0.61-0.117 0.998-0.408 0.389-0.293 0.603-0.708 0.674-0.842 0.118-0.225 0.211-0.452 0.302-0.682 0-0.016 0.01-0.032 0.018-0.043z" color="#000000" color-rendering="auto" dominant-baseline="auto" image-rendering="auto" opacity=".25" shape-rendering="auto" solid-color="#000000" style="font-feature-settings:normal;font-variant-alternates:normal;font-variant-caps:normal;font-variant-ligatures:normal;font-variant-numeric:normal;font-variant-position:normal;isolation:auto;mix-blend-mode:normal;shape-padding:0;text-decoration-color:#000000;text-decoration-line:none;text-decoration-style:solid;text-indent:0;text-orientation:mixed;text-transform:none;white-space:normal"/>
 <path id="base" d="m8.0249 0.99942c-0.38255-0.0018436-0.58872 0.22541-0.72656 0.39552s-0.23796 0.35236-0.33789 0.55658c-0.19985 0.40844-0.38283 0.90396-0.56249 1.4047-0.17966 0.50075-0.35425 1.0034-0.50585 1.3864-0.075804 0.19147-0.14685 0.35494-0.20117 0.45872-0.054316 0.10378-0.12287 0.1449-0.019531 0.067279s0.043168-0.022819-0.068359-0.0020387c-0.11153 0.02078-0.28245 0.040867-0.48046 0.055047-0.39602 0.028359-0.90797 0.040439-1.4199 0.059124-0.51194 0.018686-1.0206 0.042089-1.4551 0.11009-0.21725 0.034002-0.41496 0.074617-0.61328 0.15699-0.19832 0.082368-0.46799 0.21406-0.58788 0.59328-0.1199 0.37922 0.022374 0.65464 0.13476 0.84405 0.11239 0.18941 0.24715 0.34534 0.40234 0.50765 0.31037 0.32462 0.70474 0.65978 1.1055 0.99288 0.40072 0.3331 0.80731 0.66083 1.1094 0.92968 0.15103 0.13442 0.27574 0.25448 0.35351 0.34047 0.077769 0.085994 0.095422 0.16735 0.05664 0.040775-0.038782-0.12658-0.00791-0.047824-0.023437 0.069318-0.015531 0.11714-0.051339 0.29038-0.099608 0.49134-0.09654 0.40192-0.24359 0.91516-0.38476 1.4292-0.14117 0.51401-0.27729 1.0257-0.34961 1.4781-0.036156 0.22619-0.058684 0.43618-0.044921 0.65852 0.013762 0.22234 0.050917 0.53036 0.35937 0.76658 0.30845 0.23621 0.60129 0.17945 0.80859 0.1264s0.3901-0.13871 0.58593-0.24261c0.39167-0.20782 0.82072-0.49616 1.248-0.79104 0.42732-0.29489 0.85115-0.59668 1.1894-0.81347 0.16914-0.1084 0.31754-0.19402 0.41992-0.24465s0.182-0.04424 0.054687-0.04485c-0.12731-6.14e-4 -0.047241-0.0068 0.054687 0.04485 0.10193 0.05162 0.24979 0.13871 0.41796 0.24873 0.33636 0.22004 0.75889 0.52671 1.1836 0.8257 0.42469 0.29899 0.84845 0.59169 1.2383 0.80327 0.19491 0.10579 0.37911 0.19369 0.58593 0.24873s0.50001 0.11294 0.81054-0.12029 0.3495-0.5403 0.36523-0.7625c0.01573-0.22219-0.0069-0.43199-0.04101-0.65852-0.06831-0.45306-0.19931-0.96683-0.33593-1.4822-0.13662-0.51535-0.28006-1.0304-0.37304-1.4333-0.04649-0.20142-0.07926-0.3761-0.09375-0.49338-0.01449-0.11729 0.01646-0.19348-0.02344-0.067279s-0.01993 0.044465 0.05859-0.040775c0.07853-0.08524 0.20326-0.20343 0.35547-0.3364 0.30442-0.26593 0.71353-0.59026 1.1172-0.91948 0.40365-0.32923 0.80199-0.66107 1.1152-0.98269 0.15662-0.16081 0.29218-0.31526 0.40624-0.50358s0.25911-0.46165 0.14258-0.84201c-0.11654-0.38036-0.3864-0.51512-0.58398-0.5994-0.19758-0.084276-0.39438-0.12701-0.61132-0.1631-0.43389-0.072189-0.94136-0.10075-1.4531-0.12436s-1.0242-0.039182-1.4199-0.071357c-0.19788-0.016087-0.36717-0.03727-0.47851-0.059124s-0.17296-0.078609-0.07031 0 0.03387 0.03702-0.01953-0.067279c-0.0534-0.1043-0.12316-0.26856-0.19727-0.46076-0.14821-0.38439-0.31696-0.89001-0.49218-1.3925-0.17522-0.50246-0.35455-0.99844-0.55078-1.4088-0.098114-0.20518-0.1957-0.38923-0.33203-0.56066s-0.3401-0.39979-0.72265-0.40164zm-0.00781 1.7105c0.135 0.30496 0.28248 0.68341 0.43164 1.1111 0.17101 0.49038 0.34123 1.0012 0.50781 1.4333 0.083287 0.216 0.16392 0.41139 0.2539 0.58716 0.089988 0.17577 0.15684 0.33515 0.38476 0.50969s0.39439 0.19355 0.58202 0.23038c0.18764 0.03683 0.39089 0.059393 0.61328 0.077473 0.44477 0.03616 0.96147 0.050344 1.4609 0.073396 0.437 0.020169 0.82888 0.05272 1.1484 0.095822-0.23631 0.22875-0.53594 0.49137-0.88085 0.77269-0.39394 0.32131-0.80825 0.64916-1.1504 0.94803-0.17106 0.14943-0.32469 0.2906-0.45703 0.43426-0.13234 0.14365-0.25515 0.25802-0.34375 0.53823-0.08859 0.28021-0.05568 0.45067-0.03125 0.64833s0.06689 0.40565 0.11914 0.63202c0.1045 0.45273 0.25142 0.9731 0.38476 1.4761 0.11643 0.43919 0.20608 0.83588 0.26562 1.1662-0.28118-0.1639-0.61242-0.37907-0.9746-0.63406-0.41448-0.2918-0.84072-0.60083-1.2187-0.84813-0.18901-0.12365-0.36533-0.2331-0.5371-0.32009-0.17178-0.08699-0.31497-0.17397-0.59765-0.17533-0.28268-0.0014-0.42706 0.08592-0.5996 0.17126-0.17254 0.08533-0.34896 0.19011-0.53906 0.31193-0.38019 0.24364-0.80755 0.55014-1.2246 0.83793-0.36481 0.25175-0.69965 0.46471-0.98241 0.6259 0.062407-0.32993 0.15682-0.72736 0.27734-1.1662 0.13778-0.50165 0.28798-1.0182 0.39648-1.47 0.054249-0.22585 0.098824-0.4346 0.125-0.63202 0.026174-0.19742 0.060721-0.36727-0.02539-0.64833-0.086111-0.28105-0.20878-0.39739-0.33984-0.54231s-0.28339-0.28726-0.45312-0.43833c-0.33947-0.30215-0.74953-0.63313-1.1406-0.95822-0.34205-0.28433-0.63881-0.54996-0.87304-0.78085 0.31973-0.039897 0.71003-0.069698 1.1465-0.085628 0.49963-0.018236 1.0178-0.029292 1.4629-0.061163 0.22254-0.015936 0.42727-0.036337 0.61523-0.071357 0.18795-0.03502 0.35257-0.051925 0.58203-0.22426 0.22946-0.17234 0.29713-0.33072 0.38867-0.50561s0.17457-0.36993 0.25976-0.58513c0.17039-0.43038 0.34614-0.93842 0.52148-1.4271 0.15306-0.42661 0.30362-0.80333 0.4414-1.1071z" color="#000000" color-rendering="auto" dominant-baseline="auto" fill="url(#gr0)" image-rendering="auto" shape-rendering="auto" solid-color="#000000" style="font-feature-settings:normal;font-variant-alternates:normal;font-variant-caps:normal;font-variant-ligatures:normal;font-variant-numeric:normal;font-variant-position:normal;isolation:auto;mix-blend-mode:normal;shape-padding:0;text-decoration-color:#000000;text-decoration-line:none;text-decoration-style:solid;text-indent:0;text-orientation:mixed;text-transform:none;white-space:normal"/>
 <path id="path17" d="m8.043 2.752c-0.135 0.3-0.282 0.66-0.432 1.076-0.176 0.489-0.35 1-0.521 1.43-0.085 0.215-0.172 0.411-0.262 0.586-0.091 0.175-0.158 0.334-0.387 0.506-0.23 0.172-0.394 0.18-0.582 0.22-0.188 0.03-0.393 0.061-0.615 0.071-0.446 0.03-0.964 0.04-1.463 0.06-0.437 0.01-0.826 0.04-1.146 0.08 0.234 0.231 0.531 0.498 0.873 0.781 0.06 0.05 0.113 0.097 0.174 0.147 0.037-1e-3 0.061-7e-3 0.099-8e-3 0.499-0.02 1.017-0.03 1.463-0.06 0.222-0.01 0.427-0.041 0.615-0.071 0.188-0.04 0.352-0.048 0.582-0.22 0.229-0.172 0.296-0.331 0.387-0.506 0.09-0.175 0.177-0.371 0.262-0.586 0.171-0.43 0.345-0.941 0.521-1.43 0.15-0.416 0.297-0.776 0.432-1.076 0.131 0.299 0.272 0.656 0.416 1.068 0.171 0.49 0.341 1.002 0.508 1.434 0.08 0.216 0.164 0.413 0.254 0.588 0.09 0.176 0.156 0.336 0.384 0.51 0.228 0.175 0.393 0.193 0.585 0.23 0.18 0.04 0.39 0.06 0.61 0.08 0.45 0.04 0.96 0.05 1.46 0.07 0.04 2e-3 0.07 8e-3 0.11 0.01 0.05-0.046 0.1-0.09 0.16-0.137 0.34-0.281 0.64-0.544 0.88-0.773-0.32-0.05-0.71-0.08-1.15-0.1-0.5-0.02-1.01-0.03-1.46-0.07-0.22-0.02-0.43-0.04-0.61-0.08-0.192-0.037-0.357-0.055-0.585-0.23-0.228-0.174-0.294-0.334-0.384-0.51-0.09-0.175-0.174-0.372-0.254-0.588-0.167-0.432-0.337-0.944-0.508-1.434-0.144-0.412-0.285-0.769-0.416-1.068zm-6.898 4.266c-0.04 0.062-0.075 0.133-0.102 0.218-0.1196 0.379 0.02 0.657 0.135 0.846 0.113 0.19 0.244 0.346 0.4 0.508 0.31 0.324 0.707 0.659 1.108 0.992 0.4 0.333 0.807 0.668 1.109 0.938 0.094 0.08 0.15 0.14 0.219 0.21 0.022-0.08 0.055-0.19 0.074-0.27 0.05-0.2 0.09-0.38 0.1-0.491v-0.049c-0.01-0.02-0.022-0.031-0.042-0.061-0.078-0.086-0.2-0.204-0.351-0.339-0.302-0.268-0.709-0.597-1.109-0.93-0.401-0.333-0.798-0.668-1.108-0.992-0.156-0.162-0.287-0.318-0.4-0.508-0.012-0.02-0.021-0.051-0.033-0.072zm13.815 0.048c-0.02 0.024-0.03 0.059-0.04 0.08-0.11 0.189-0.25 0.343-0.4 0.504-0.32 0.322-0.71 0.655-1.12 0.985-0.4 0.329-0.81 0.654-1.11 0.92-0.16 0.133-0.26 0.256-0.36 0.336s-0.1 0.169-0.1 0.039v0.07c0 0.12 0 0.29 0.1 0.49 0.02 0.09 0.06 0.22 0.08 0.32 0.08-0.08 0.16-0.15 0.28-0.26 0.3-0.26 0.71-0.59 1.11-0.919 0.41-0.33 0.8-0.661 1.12-0.983 0.15-0.161 0.29-0.314 0.4-0.503 0.12-0.188 0.26-0.461 0.15-0.842-0.03-0.093-0.07-0.17-0.11-0.237zm-4.34 3.364c-0.01 0.03-0.03 0.05-0.04 0.09-0.1 0.29-0.1 0.46 0 0.65 0 0.2 0.1 0.41 0.12 0.63 0.1 0.45 0.25 0.96 0.38 1.46 0.08 0.06 0.19 0.13 0.27 0.18-0.06-0.33-0.15-0.72-0.27-1.16-0.13-0.51-0.28-1.03-0.38-1.48-0.01-0.13-0.04-0.25-0.08-0.37zm-5.208 0.01c-0.023 0.11-0.039 0.22-0.066 0.34-0.108 0.45-0.26 0.97-0.397 1.47-0.121 0.44-0.217 0.83-0.277 1.16 0.081-0.05 0.194-0.12 0.283-0.18 0.136-0.49 0.284-1.01 0.391-1.45 0.05-0.23 0.1-0.44 0.125-0.63 0.03-0.2 0.06-0.37-0.03-0.65-8e-3 -0.03-0.02-0.04-0.029-0.06zm2.627 2.34c-0.017-0.01-0.064-0.01-0.115 0.04-0.102 0.05-0.249 0.14-0.418 0.25-0.339 0.22-0.765 0.52-1.192 0.81-0.427 0.3-0.856 0.59-1.248 0.79-0.196 0.11-0.378 0.15-0.586 0.25-0.207 0.05-0.498 0.11-0.806-0.13-0.197-0.15-0.272-0.32-0.313-0.49-2e-3 0.02-7e-3 0.03-9e-3 0.05-0.04 0.23-0.059 0.44-0.04 0.66 0.01 0.23 0.05 0.53 0.362 0.77 0.308 0.24 0.599 0.18 0.806 0.13 0.208-0.1 0.39-0.14 0.586-0.25 0.392-0.2 0.821-0.49 1.248-0.79 0.427-0.29 0.853-0.59 1.192-0.81 0.169-0.11 0.316-0.2 0.418-0.25 0.103-0.1 0.182 0 0.06 0h0.049c0.102 0.1 0.25 0.14 0.418 0.25 0.336 0.22 0.762 0.53 1.186 0.83 0.423 0.3 0.853 0.59 1.243 0.8 0.19 0.11 0.38 0.2 0.58 0.25 0.21 0.1 0.5 0.11 0.81-0.12s0.35-0.54 0.37-0.76v-0.66c-0.01-0.05-0.02-0.11-0.03-0.15-0.04 0.19-0.1 0.4-0.34 0.58-0.31 0.23-0.6 0.22-0.81 0.12-0.2-0.05-0.39-0.14-0.58-0.25-0.39-0.21-0.82-0.5-1.243-0.8-0.424-0.3-0.85-0.61-1.186-0.83-0.168-0.11-0.316-0.15-0.418-0.25h-0.049c0.061 0 0.072-0.02 0.055-0.04z" color="#000000" color-rendering="auto" dominant-baseline="auto" image-rendering="auto" opacity=".45" shape-rendering="auto" solid-color="#000000" style="font-feature-settings:normal;font-variant-alternates:normal;font-variant-caps:normal;font-variant-ligatures:normal;font-variant-numeric:normal;font-variant-position:normal;isolation:auto;mix-blend-mode:normal;shape-padding:0;text-decoration-color:#000000;text-decoration-line:none;text-decoration-style:solid;text-indent:0;text-orientation:mixed;text-transform:none;white-space:normal"/>
 <path id="path24" d="m8.123 0.9941-0.098 0.0059c-0.383 0-0.588 0.225-0.726 0.395-0.137 0.17-0.238 0.351-0.338 0.556-0.199 0.408-0.383 0.903-0.563 1.404s-0.353 1.004-0.505 1.387c-0.08 0.191-0.148 0.356-0.202 0.459-0.013 0.027-0.022 0.035-0.035 0.053-0.019 7e-3 -0.028 0.013-0.054 0.017-0.111 0.02-0.283 0.039-0.481 0.049-0.396 0.03-0.908 0.041-1.42 0.061s-1.021 0.039-1.455 0.109c-0.218 0.03-0.414 0.071-0.613 0.158-0.198 0.08-0.468 0.213-0.588 0.592-0.108 0.343 0 0.592 0.105 0.778 0.137-0.212 0.331-0.308 0.483-0.37 0.199-0.087 0.395-0.128 0.613-0.158 0.434-0.07 0.943-0.089 1.455-0.109s1.024-0.031 1.42-0.061c0.198-0.01 0.37-0.029 0.481-0.049 0.026-4e-3 0.035-0.01 0.054-0.017 0.013-0.018 0.022-0.026 0.035-0.053 0.054-0.103 0.122-0.268 0.202-0.459 0.152-0.383 0.325-0.886 0.505-1.387s0.364-0.996 0.563-1.404c0.1-0.205 0.201-0.386 0.338-0.556 0.138-0.17 0.343-0.397 0.726-0.397l0.098-4e-3c0.382 2e-3 0.588 0.231 0.725 0.402 0.136 0.171 0.232 0.355 0.332 0.561 0.196 0.41 0.374 0.906 0.549 1.408 0.176 0.503 0.341 1.009 0.491 1.393 0.08 0.192 0.1 0.356 0.2 0.461 0 0.022 0.01 0.027 0.02 0.043 0.02 9e-3 0.04 0.02 0.08 0.027 0.11 0.02 0.28 0.041 0.48 0.061 0.39 0.03 0.91 0.05 1.42 0.07 0.51 0.024 1.02 0.055 1.45 0.125 0.22 0.036 0.41 0.082 0.61 0.162 0.15 0.063 0.34 0.157 0.48 0.361 0.1-0.184 0.21-0.424 0.11-0.761-0.12-0.38-0.39-0.516-0.59-0.6-0.2-0.08-0.39-0.126-0.61-0.162-0.43-0.07-0.94-0.101-1.45-0.125-0.51-0.02-1.03-0.04-1.42-0.07-0.2-0.02-0.37-0.041-0.48-0.061-0.04-7e-3 -0.06-0.018-0.08-0.027-0.01-0.016-0.02-0.021-0.02-0.043-0.1-0.105-0.12-0.269-0.2-0.461-0.15-0.384-0.315-0.89-0.491-1.393-0.175-0.502-0.353-0.998-0.549-1.408-0.1-0.206-0.196-0.39-0.332-0.561-0.137-0.171-0.343-0.4003-0.725-0.4019zm-4.443 6.7149c-0.392 0.012-0.755 0.036-1.047 0.072 0.234 0.231 0.531 0.497 0.873 0.781 0.391 0.326 0.8 0.656 1.14 0.958 0.17 0.151 0.323 0.294 0.454 0.439 0.119 0.131 0.224 0.251 0.31 0.481 0.02-0.1 0.047-0.2 0.059-0.29 0.03-0.198 0.06-0.367-0.03-0.648s-0.208-0.398-0.339-0.543-0.284-0.288-0.454-0.439c-0.288-0.256-0.632-0.535-0.966-0.811zm8.69 0.033c-0.34 0.276-0.7 0.555-0.99 0.811-0.17 0.149-0.33 0.29-0.46 0.433-0.13 0.144-0.25 0.259-0.34 0.539-0.1 0.281-0.1 0.451 0 0.645 0 0.08 0.02 0.17 0.04 0.26 0.09-0.2 0.19-0.32 0.3-0.444 0.13-0.143 0.29-0.284 0.46-0.433 0.34-0.299 0.76-0.627 1.15-0.948 0.34-0.281 0.64-0.544 0.88-0.773-0.29-0.045-0.65-0.07-1.04-0.09zm-8.352 2.988c-0.094 0.36-0.198 0.74-0.313 1.16-0.141 0.51-0.278 1.02-0.35 1.47-0.04 0.23-0.061 0.44-0.041 0.66 4e-3 0.09 0.027 0.18 0.051 0.28 0.074-0.44 0.204-0.93 0.34-1.42 0.141-0.52 0.285-1.03 0.385-1.43 0.05-0.2 0.089-0.38 0.099-0.49 3e-3 -0.02 2e-3 -0.02 2e-3 -0.04-0.012-0.02-0.017-0.03-0.041-0.06-0.029-0.03-0.091-0.09-0.132-0.13zm7.992 0.08c-0.02 0.03-0.06 0.06-0.08 0.08-0.1 0-0.1 0.13-0.1 0v0.1c0 0.12 0 0.29 0.1 0.49 0.09 0.41 0.23 0.92 0.37 1.44 0.13 0.46 0.22 0.91 0.31 1.33 0.01-0.06 0.03-0.13 0.03-0.18v-0.66c-0.1-0.45-0.2-0.97-0.34-1.48-0.11-0.4-0.2-0.77-0.29-1.12zm-3.994 0.66c-0.283 0-0.427 0.1-0.6 0.17-0.172 0.1-0.349 0.19-0.539 0.31-0.38 0.24-0.808 0.55-1.225 0.84-0.26 0.18-0.477 0.31-0.699 0.44-2e-3 0.01-4e-3 0.01-6e-3 0.02-0.121 0.44-0.217 0.83-0.277 1.16 0.283-0.16 0.617-0.37 0.982-0.62 0.417-0.29 0.845-0.6 1.225-0.84 0.19-0.12 0.367-0.21 0.539-0.31 0.173-0.07 0.317-0.17 0.6-0.17s0.425 0.07 0.597 0.17c0.171 0.09 0.348 0.2 0.537 0.32 0.378 0.25 0.804 0.56 1.22 0.85 0.36 0.26 0.69 0.47 0.98 0.63-0.06-0.33-0.15-0.72-0.27-1.16v-0.02c-0.23-0.13-0.45-0.26-0.71-0.45-0.416-0.29-0.842-0.6-1.22-0.85-0.189-0.12-0.366-0.23-0.537-0.32-0.172-0.1-0.314-0.17-0.597-0.17z" color="#000000" color-rendering="auto" dominant-baseline="auto" fill="#fff" image-rendering="auto" opacity=".6" shape-rendering="auto" solid-color="#000000" style="font-feature-settings:normal;font-variant-alternates:normal;font-variant-caps:normal;font-variant-ligatures:normal;font-variant-numeric:normal;font-variant-position:normal;isolation:auto;mix-blend-mode:normal;shape-padding:0;text-decoration-color:#000000;text-decoration-line:none;text-decoration-style:solid;text-indent:0;text-orientation:mixed;text-transform:none;white-space:normal"/>
</svg>
