<?xml version="1.0" encoding="UTF-8"?>
<svg id="svg29" width="16" height="16" version="1.1" xmlns="http://www.w3.org/2000/svg" xmlns:cc="http://creativecommons.org/ns#" xmlns:dc="http://purl.org/dc/elements/1.1/" xmlns:rdf="http://www.w3.org/1999/02/22-rdf-syntax-ns#">
 <metadata id="metadata33">
  <rdf:RDF>
   <cc:Work rdf:about="">
    <dc:format>image/svg+xml</dc:format>
    <dc:type rdf:resource="http://purl.org/dc/dcmitype/StillImage"/>
   </cc:Work>
  </rdf:RDF>
 </metadata>
 <defs id="defs7">
  <linearGradient id="gr0" x1="8" x2="8" y1="1" y2="15" gradientUnits="userSpaceOnUse">
   <stop id="stop2" stop-color="#ebebeb" offset="0"/>
   <stop id="stop4" stop-color="#aaa" offset="1"/>
  </linearGradient>
 </defs>
 <path id="path9" d="m2.5 0c-1.368 0-2.5 1.132-2.5 2.5v11c0 1.37 1.132 2.5 2.5 2.5h11c1.37 0 2.5-1.13 2.5-2.5v-11c0-1.368-1.13-2.5-2.5-2.5h-0.5a1 1 0 0 0-0.83 0.4453l-0.21 0.3027a1 1 0 0 0-0.96-0.748h-2a1 1 0 0 0-0.832 0.4453l-0.203 0.3027a1 1 0 0 0-0.965-0.748h-2a1 1 0 0 0-0.832 0.4453l-0.203 0.3027a1 1 0 0 0-0.965-0.748h-0.5zm0 1h0.5l-1 1.5 1 1.5h2l-1-1.5 1-1.5h2l-1 1.5 1 1.5h2l-1-1.5 1-1.5h2l-1 1.5 1 1.5h2l-1-1.5 1-1.5h0.5c0.83 0 1.5 0.669 1.5 1.5v11c0 0.83-0.67 1.5-1.5 1.5h-11c-0.831 0-1.5-0.67-1.5-1.5v-11c0-0.831 0.669-1.5 1.5-1.5zm1 4c-0.277 0-0.5 0.223-0.5 0.5v7c0 0.28 0.223 0.5 0.5 0.5h9c0.28 0 0.5-0.22 0.5-0.5v-7c0-0.277-0.22-0.5-0.5-0.5h-9zm0.5 1h1v6h-1v-6zm2 0 4 3-4 3v-6zm1.668 0h4.332v6h-4.332l2.932-2.199a1 1 0 0 0 0-1.602l-2.932-2.199z" fill-rule="evenodd" opacity=".25"/>
 <path id="base" d="m2.5 1c-0.831 0-1.5 0.669-1.5 1.5v11c0 0.831 0.669 1.5 1.5 1.5h11c0.831 0 1.5-0.669 1.5-1.5v-11c0-0.831-0.669-1.5-1.5-1.5h-0.5l-1 1.5 1 1.5h-2l-1-1.5 1-1.5h-2l-1 1.5 1 1.5h-2l-1-1.5 1-1.5h-2l-1 1.5 1 1.5h-2l-1-1.5 1-1.5h-0.5zm1 4h9c0.277 0 0.5 0.223 0.5 0.5v7c0 0.277-0.223 0.5-0.5 0.5h-9c-0.277 0-0.5-0.223-0.5-0.5v-7c0-0.277 0.223-0.5 0.5-0.5zm2.5 1v6l4-3-4-3z" fill="url(#gr0)" fill-rule="evenodd"/>
 <path id="path17" d="m2.5 2c-0.062 0-0.12 0.01-0.18 0.018l-0.32 0.482 0.334 0.5 0.666-1h-0.5zm3.834 0-0.334 0.5 0.334 0.5 0.666-1h-0.666zm3.996 0-0.33 0.5 0.33 0.5 0.67-1h-0.67zm-5.996 1-0.334 0.5 0.334 0.5h0.666l-0.666-1zm4 0-0.334 0.5 0.334 0.5h0.666l-0.666-1zm3.996 0-0.33 0.5 0.33 0.5h0.67l-0.67-1zm-8.83 2c-0.277 0-0.5 0.223-0.5 0.5v1c0-0.277 0.223-0.5 0.5-0.5h2.5 6.5c0.28 0 0.5 0.223 0.5 0.5v-1c0-0.277-0.22-0.5-0.5-0.5h-1.5-2-2-2-1.5zm5.834 4.5-3.334 2.5v1l4-3-0.666-0.5zm-8.334 4v1c0 0.83 0.669 1.5 1.5 1.5h11c0.83 0 1.5-0.67 1.5-1.5v-1c0 0.83-0.67 1.5-1.5 1.5h-11c-0.831 0-1.5-0.67-1.5-1.5z" fill-rule="evenodd" opacity=".45"/>
 <path id="path24" d="m2.5 1c-0.831 0-1.5 0.669-1.5 1.5v1c0-0.769 0.576-1.393 1.32-1.482l0.68-1.018h-0.5zm2.5 0-1 1.5 0.334 0.5 0.666-1h1.334l0.666-1h-2zm4 0-1 1.5 0.334 0.5 0.666-1h1.33l0.67-1h-2zm4 0-1 1.5 0.33 0.5 0.67-1h0.5c0.83 0 1.5 0.669 1.5 1.5v-1c0-0.831-0.67-1.5-1.5-1.5h-0.5zm-10.666 2-0.334 0.5 1 1.5h0.5 1.5l-0.666-1h-1.334l-0.666-1zm4 0-0.334 0.5 1 1.5h2l-0.666-1h-1.334l-0.666-1zm3.996 0-0.33 0.5 1 1.5h1.5 0.5l-0.67-1h-1.33l-0.67-1zm-4.33 3v1l3.334 2.5 0.666-0.5-4-3zm-3 6.5v1c0 0.28 0.223 0.5 0.5 0.5h9c0.28 0 0.5-0.22 0.5-0.5v-1c0 0.28-0.22 0.5-0.5 0.5h-6.5-2.5c-0.277 0-0.5-0.22-0.5-0.5z" fill="#fff" fill-rule="evenodd" opacity=".6"/>
</svg>
