<?xml version="1.0" encoding="UTF-8"?>
<svg id="svg29" width="16" height="16" version="1.1" xmlns="http://www.w3.org/2000/svg" xmlns:cc="http://creativecommons.org/ns#" xmlns:dc="http://purl.org/dc/elements/1.1/" xmlns:rdf="http://www.w3.org/1999/02/22-rdf-syntax-ns#">
 <metadata id="metadata33">
  <rdf:RDF>
   <cc:Work rdf:about="">
    <dc:format>image/svg+xml</dc:format>
    <dc:type rdf:resource="http://purl.org/dc/dcmitype/StillImage"/>
   </cc:Work>
  </rdf:RDF>
 </metadata>
 <defs id="defs7">
  <linearGradient id="gr0" x1="8" x2="8" y1="1" y2="15" gradientUnits="userSpaceOnUse">
   <stop id="stop2" stop-color="#ebebeb" offset="0"/>
   <stop id="stop4" stop-color="#aaa" offset="1"/>
  </linearGradient>
 </defs>
 <path id="path9" d="m5 0c-1.047 0-2 0.9528-2 2 0 0.376 0.23 0.688 0.436 1h-0.936c-1.368 0-2.5 1.132-2.5 2.5v8c0 1.37 1.132 2.5 2.5 2.5h11c1.37 0 2.5-1.13 2.5-2.5v-8c0-1.368-1.13-2.5-2.5-2.5h-0.94c0.21-0.312 0.44-0.624 0.44-1 0-1.0472-0.95-2-2-2-1.022 0-1.926 0.9143-1.971 1.932l-1.029 1.029-1.029-1.029c-0.04-1.0177-0.949-1.932-1.971-1.932zm0 1h0.045a1 1 0 0 1 1 1 1 1 0 0 1-0.051 0.32l1.682 1.68h0.75l1.674-1.68a1 1 0 0 1-0.1-0.32 1 1 0 0 1 1-1 1 1 0 0 1 1 1 1 1 0 0 1-1 1 1 1 0 0 1-0.19-0.02l-1.021 1.02h3.711c0.83 0 1.5 0.669 1.5 1.5v8c0 0.83-0.67 1.5-1.5 1.5h-11c-0.831 0-1.5-0.67-1.5-1.5v-8c0-0.831 0.669-1.5 1.5-1.5h3.711l-1.02-1.02a1 1 0 0 1-0.191 0.02 1 1 0 0 1-1-1 1 1 0 0 1 1-1zm-0.5 4c-0.831 0-1.5 1.784-1.5 4 0 2.22 0.669 4 1.5 4h7c0.83 0 1.5-1.78 1.5-4 0-2.216-0.67-4-1.5-4h-7zm0.15 1h6.7c0.1 0.07 0.17 0.248 0.27 0.52 0.22 0.565 0.38 1.473 0.38 2.48 0 1.01-0.16 1.91-0.38 2.48-0.1 0.27-0.21 0.45-0.27 0.52h-6.7c-0.06-0.1-0.173-0.25-0.275-0.52-0.212-0.57-0.375-1.47-0.375-2.48 0-1.007 0.163-1.915 0.375-2.48 0.102-0.272 0.214-0.447 0.275-0.52zm8.85 7c0.26 0 0.5 0.24 0.5 0.5 0-0.28-0.22-0.5-0.5-0.5zm0 0c-0.28 0-0.5 0.22-0.5 0.5 0-0.26 0.24-0.5 0.5-0.5zm-0.5 0.5c0 0.28 0.22 0.5 0.5 0.5-0.26 0-0.5-0.24-0.5-0.5zm0.5 0.5c0.28 0 0.5-0.22 0.5-0.5 0 0.26-0.24 0.5-0.5 0.5z" opacity=".25"/>
 <path id="base" d="m5 1a1 1 0 0 0 -1 1 1 1 0 0 0 1 1 1 1 0 0 0 .19141 -.019531l1.0195 1.0195h-3.7109c-.831 0-1.5.669-1.5 1.5v8c0 .831.669 1.5 1.5 1.5h11c.831 0 1.5-.669 1.5-1.5v-8c0-.831-.669-1.5-1.5-1.5h-3.7109l1.0195-1.0195a1 1 0 0 0 .19141 .019531 1 1 0 0 0 1 -1 1 1 0 0 0 -1 -1 1 1 0 0 0 -1 1 1 1 0 0 0 .054688 .32031l-1.6797 1.6797h-.75l-1.6797-1.6797a1 1 0 0 0 .054688 -.32031 1 1 0 0 0 -1 -1zm-.5 4h7c.831 0 1.5 1.784 1.5 4s-.669 4-1.5 4h-7c-.831 0-1.5-1.784-1.5-4s.669-4 1.5-4zm9 8c.277 0 .5.223.5.5s-.223.5-.5.5-.5-.223-.5-.5.223-.5.5-.5z" fill="url(#gr0)"/>
 <path id="path17" d="m4.135 2.5a1 1 0 0 0-0.135 0.5 1 1 0 0 0 1 1 1 1 0 0 0 0.191-0.02l0.02 0.02h1l-1.02-1.02a1 1 0 0 1-0.191 0.02 1 1 0 0 1-0.865-0.5zm7.735 0a1 1 0 0 1-0.87 0.5 1 1 0 0 1-0.19-0.02l-1.021 1.02h1.001l0.02-0.02a1 1 0 0 0 0.19 0.02 1 1 0 0 0 1-1 1 1 0 0 0-0.13-0.5zm-7.37 2.5c-0.831 0-1.5 1.784-1.5 4 0 0.172 0.012 0.334 0.02 0.5 0.092-1.976 0.713-3.5 1.48-3.5h7c0.77 0 1.39 1.524 1.48 3.5 0.01-0.166 0.02-0.328 0.02-0.5 0-2.216-0.67-4-1.5-4h-1.711-1.363-0.75-1.465-1.711zm9 8c-0.28 0-0.5 0.22-0.5 0.5s0.22 0.5 0.5 0.5 0.5-0.22 0.5-0.5-0.22-0.5-0.5-0.5zm-12.5 0.5v1c0 0.83 0.669 1.5 1.5 1.5h11c0.83 0 1.5-0.67 1.5-1.5v-1c0 0.83-0.67 1.5-1.5 1.5h-11c-0.831 0-1.5-0.67-1.5-1.5z" opacity=".45"/>
 <path id="path24" d="m5 1a1 1 0 0 0-1 1 1 1 0 0 0 0.135 0.5 1 1 0 0 1 0.865-0.5h0.045a1 1 0 0 1 1 1 1 1 0 0 1-0.051 0.32l1.682 1.68h0.75l1.674-1.68a1 1 0 0 1-0.1-0.32 1 1 0 0 1 1-1 1 1 0 0 1 0.87 0.5 1 1 0 0 0 0.13-0.5 1 1 0 0 0-1-1 1 1 0 0 0-1 1 1 1 0 0 0 0.1 0.32l-1.674 1.68h-0.75l-1.682-1.68a1 1 0 0 0 0.051-0.32 1 1 0 0 0-1-1h-0.045zm-2.5 3c-0.831 0-1.5 0.669-1.5 1.5v1c0-0.831 0.669-1.5 1.5-1.5h2 1.711l-1-1h-0.211-2.5zm8.29 0-1.001 1h1.711 2c0.83 0 1.5 0.669 1.5 1.5v-1c0-0.831-0.67-1.5-1.5-1.5h-2.5-0.21zm-7.77 5.5c-8e-3 0.166-0.02 0.329-0.02 0.5 0 2.22 0.669 4 1.5 4h7c0.83 0 1.5-1.78 1.5-4 0-0.171-0.01-0.334-0.02-0.5-0.09 1.98-0.71 3.5-1.48 3.5h-7c-0.767 0-1.388-1.52-1.48-3.5zm10.48 4.5c-0.28 0-0.5 0.22-0.5 0.5s0.22 0.5 0.5 0.5 0.5-0.22 0.5-0.5-0.22-0.5-0.5-0.5z" fill="#fff" opacity=".6"/>
</svg>
