<?xml version="1.0" encoding="UTF-8"?>
<svg id="svg29" width="16" height="16" version="1.1" xmlns="http://www.w3.org/2000/svg" xmlns:cc="http://creativecommons.org/ns#" xmlns:dc="http://purl.org/dc/elements/1.1/" xmlns:rdf="http://www.w3.org/1999/02/22-rdf-syntax-ns#">
 <metadata id="metadata33">
  <rdf:RDF>
   <cc:Work rdf:about="">
    <dc:format>image/svg+xml</dc:format>
    <dc:type rdf:resource="http://purl.org/dc/dcmitype/StillImage"/>
   </cc:Work>
  </rdf:RDF>
 </metadata>
 <defs id="defs7">
  <linearGradient id="gr0" x1="8" x2="8" y1="5" y2="11" gradientUnits="userSpaceOnUse">
   <stop id="stop2" stop-color="#ebebeb" offset="0"/>
   <stop id="stop4" stop-color="#aaa" offset="1"/>
  </linearGradient>
 </defs>
 <path id="path9" d="m7.674 4a1 1 0 0 0-0.528 0.154c-0.918 0.09-1.853 0.286-2.851 0.838a1 1 0 0 0-0.481 1.137c-0.506-0.08-1.628-0.382-1.972-0.393a1 1 0 0 0-0.385-0.08c-0.182 0-0.351 0.011-0.5566 0.061-0.2054 0.05-0.5186 0.159-0.7442 0.535-0.22535 0.375-0.14837 0.848-0.041 1.074 0.1075 0.226 0.2221 0.342 0.3321 0.451 0.44 0.438 0.9907 0.752 1.6597 1.147 0.67 0.394 1.423 0.81 2.067 1.186 0.62 0.37 1.131 0.73 1.275 0.85a1 1 0 0 0 0.541 0.37l2.223 0.55a1 1 0 0 0 0.68-0.1h0.668c0.422 0 0.959 0 1.529 0.1 1.14 0.1 2.37 0.19 3.25 0.15 0.22 0 0.41 0 0.63-0.1 0.22 0 0.56 0 0.88-0.58 0.16-0.27 0.17-0.68 0.1-0.93-0.1-0.25-0.21-0.38-0.31-0.479-0.21-0.204-0.4-0.314-0.64-0.447-0.36-0.195-1.71-0.628-2.35-0.885a1 1 0 0 0 0.13-1.203c-1.2-1.959-2.896-3.409-5.089-3.404l-0.017-2e-3zm2e-3 1c1.766-4e-3 3.124 1.123 4.224 2.928-2.632-0.997-4.917-1.578-7.121-2.061 1.076-0.595 2.034-0.867 2.897-0.867zm-6.213 1.66c0.825-5e-3 2.848 0.373 6.812 1.373 14.135 4.687 1.845 2.267 0.276 2.837-0.68-0.46-1.468-0.68-2.358-0.58-1.127-1.095-6.8399-3.62-4.73-3.63z" opacity=".25"/>
 <path id="base" d="m7.6758 5c-0.86263 0.0011542-1.821 0.27244-2.8965 0.86719 2.2037 0.48258 4.4891 1.0643 7.123 2.0605-1.102-1.8049-2.4602-2.9316-4.2266-2.9277zm-6.2129 1.6602c-2.1096 0.012927 3.6031 2.5367 4.7305 3.6289 0.88933-0.06128 1.6777 0.12496 2.3574 0.58203 1.5671-0.5695 13.859 1.8471-0.27539-2.8379-3.9644-1.0006-5.987-1.3781-6.8125-1.373zm4.7695 3.709 2.2227 0.55273-2.2227-0.55273z" fill="url(#gr0)"/>
 <path id="path17" d="m6.293 6.215c-0.478 0.142-0.981 0.357-1.514 0.652 2.204 0.483 4.489 1.064 7.121 2.061-0.31-0.512-0.65-0.961-1.01-1.354-1.63-0.574-3.149-1.01-4.597-1.359zm-4.83 1.445c-2.1099 0.01 3.603 2.54 4.73 3.63 0.89-0.1 1.678 0.12 2.358 0.58 1.276-0.46 9.639 1.05 5.109-0.89-1.67-0.04-4.413-0.36-5.109-0.11-0.68-0.46-1.468-0.68-2.358-0.58-0.657-0.639-2.848-1.752-4.164-2.581-0.205-0.021-0.43-0.05-0.566-0.049zm4.769 3.71 2.223 0.55-2.223-0.55z" opacity=".45"/>
 <path id="path24" d="m7.676 5c-0.863 0-1.821 0.272-2.897 0.867 0.499 0.11 1.004 0.225 1.514 0.348 0.487-0.145 0.947-0.215 1.383-0.215 1.265-3e-3 2.317 0.583 3.214 1.574 0.34 0.118 0.66 0.223 1.01 0.354-1.1-1.805-2.458-2.932-4.224-2.928zm-6.213 1.66c-0.8799 4e-3 -0.375 0.456 0.566 1.049 1.037 0.107 2.939 0.49 6.246 1.324 2.635 0.875 4.355 1.497 5.385 1.947 2.1 0.05 2.48-0.34-5.385-2.947-3.964-1-5.987-1.378-6.812-1.373zm4.769 4.71 2.223 0.55-2.223-0.55z" fill="#fff" opacity=".6"/>
</svg>
