<?xml version="1.0" encoding="UTF-8"?>
<svg id="svg29" width="16" height="16" version="1.1" xmlns="http://www.w3.org/2000/svg" xmlns:cc="http://creativecommons.org/ns#" xmlns:dc="http://purl.org/dc/elements/1.1/" xmlns:rdf="http://www.w3.org/1999/02/22-rdf-syntax-ns#">
 <metadata id="metadata33">
  <rdf:RDF>
   <cc:Work rdf:about="">
    <dc:format>image/svg+xml</dc:format>
    <dc:type rdf:resource="http://purl.org/dc/dcmitype/StillImage"/>
   </cc:Work>
  </rdf:RDF>
 </metadata>
 <defs id="defs7">
  <linearGradient id="gr0" x1="8" x2="8" y1="1" y2="15" gradientUnits="userSpaceOnUse">
   <stop id="stop2" stop-color="#ebebeb" offset="0"/>
   <stop id="stop4" stop-color="#aaa" offset="1"/>
  </linearGradient>
 </defs>
 <path id="path9" d="m2 0c-1.0907 0-2 0.9093-2 2v13a1 1 0 0 0 1 1h2 12a1 1 0 0 0 1-1v-13c0-1.0907-0.91-2-2-2h-12zm0 1h12c0.55 0 1 0.446 1 1v13h-12-2v-13c0-0.554 0.446-1 1-1zm6 1v1h1v-1h-1zm2 0v1h1v-1h-1zm2 0v1h1v-1h-1zm-9 2v9h10v-9h-10zm2 1 3 3-3 3-1-1 2-2-2-2 1-1zm1.414 0h5.586v5h-4a1 1 0 0 0-1 1v1h-1.953a1 1 0 0 0 0.953-0.97v0.38l2.707-2.703a1 1 0 0 0 0-1.414l-2.293-2.293zm-2.414 2.414 0.586 0.586-0.586 0.586v-1.172zm4 3.586h4v1h-4v-1zm-4 0.42 0.293 0.29a1 1 0 0 0 0.672 0.29h-0.965v-0.58z" opacity=".25"/>
 <path id="base" d="m2 1c-0.554 0-1 0.446-1 1v13h14v-13c0-0.554-0.446-1-1-1h-12zm6 1h1v1h-1v-1zm2 0h1v1h-1v-1zm2 0h1v1h-1v-1zm-9 2h10v9h-10v-9zm2 1-1 1 2 2-2 2 1 1.002v-4e-3l3-2.998-3-3zm3 6v1h4v-1h-4z" fill="url(#gr0)"/>
 <path id="path17" d="m8 2v1h1v-1h-1zm2 0v1h1v-1h-1zm2 0v1h1v-1h-1zm-9 2v1h2 8v-1h-1-1-1-1-1-5zm1.5 2.5-0.5 0.5 1.5 1.5 0.5-0.5-1.5-1.5zm3 2-2.5 2.5-0.5-0.5-0.5 0.5 1 1 3-3-0.5-0.5zm0.5 3.5v1h4v-1h-4zm-7 3v1h2 12v-1h-12-2z" opacity=".45"/>
 <path id="path24" d="m2 1c-0.554 0-1 0.446-1 1v1c0-0.554 0.446-1 1-1h6 1 1 1 1 1 1c0.55 0 1 0.446 1 1v-1c0-0.554-0.45-1-1-1h-12zm6 2v1h1v-1h-1zm2 0v1h1v-1h-1zm2 0v1h1v-1h-1zm-7 2-1 1 0.5 0.5 0.5-0.5 2.5 2.5 0.5-0.5-3-3zm0.5 3.5-1.5 1.5 0.5 0.5 1.5-1.5-0.5-0.5zm2.5 2.5v1h4v-1h-4zm-5 2v1h10v-1h-1-4-5z" fill="#fff" opacity=".6"/>
</svg>
