<?xml version="1.0" encoding="UTF-8"?>
<svg id="svg29" width="16" height="16" version="1.1" xmlns="http://www.w3.org/2000/svg" xmlns:cc="http://creativecommons.org/ns#" xmlns:dc="http://purl.org/dc/elements/1.1/" xmlns:rdf="http://www.w3.org/1999/02/22-rdf-syntax-ns#">
 <metadata id="metadata33">
  <rdf:RDF>
   <cc:Work rdf:about="">
    <dc:format>image/svg+xml</dc:format>
    <dc:type rdf:resource="http://purl.org/dc/dcmitype/StillImage"/>
   </cc:Work>
  </rdf:RDF>
 </metadata>
 <defs id="defs7">
  <linearGradient id="gr0" x1="8" x2="8" y1="1" y2="15" gradientUnits="userSpaceOnUse">
   <stop id="stop2" stop-color="#ebebeb" offset="0"/>
   <stop id="stop4" stop-color="#aaa" offset="1"/>
  </linearGradient>
 </defs>
 <path id="path9" d="m9.156-0.003906 0.045 0.003906c-0.84 0-1.556 0.6698-1.564 1.533a1 1 0 0 0 0 0.01c0 0.591 0.383 1.003 0.865 1.266-0.452 0.235-0.819 0.601-0.861 1.16-0.07 0.871 0.606 1.589 1.443 1.648 0.585 0.04 0.778 0.152 0.976 0.363 0.23 0.244 0.29 0.362 0.28 0.805 0 0.864 0.68 1.553 1.52 1.57 0.57 0 0.99-0.369 1.26-0.843 0.27 0.476 0.7 0.843 1.27 0.843 0.84-0.01 1.56-0.685 1.55-1.558 0-0.973-0.17-1.895-0.49-2.731-0.34-0.845-0.85-1.602-1.51-2.224-1.2-1.1308-2.77-1.7041-4.465-1.7873a1 1 0 0 0-0.319-0.058596zm0.045 1.0039-4e-3 2e-3c1.613 0.011 3.013 0.543 4.103 1.574 0.56 0.523 0.99 1.152 1.26 1.863 0.28 0.704 0.43 1.503 0.43 2.373 0 0.299-0.25 0.549-0.56 0.549s-0.57-0.245-0.57-0.541c-0.01-1.491-0.46-2.636-1.34-3.461-0.89-0.833-1.98-1.253-3.321-1.263-0.309-2e-3 -0.562-0.254-0.562-0.553 3e-3 -0.297 0.256-0.543 0.564-0.543zm-5.906 0.273c-0.234 0-0.456 0.07-0.672 0.139a1 1 0 0 0-0.357 0.121l-0.03 0.02c-0.532 0.302-1.019 0.7-1.4587 1.179l-0.0273 0.032a1 1 0 0 0-0.2539 0.533c-0.1965 0.314-0.41761 0.613-0.47071 1.015-0.019499 0.132-0.029296 0.261-0.029296 0.303 0 0.249 0.037576 0.501 0.11331 0.746l0.0097 0.041a1 1 0 0 0 0.17 0.328c0.2037 0.611 0.4957 1.318 1.1739 2.551 0.521 0.945 1.059 1.739 1.598 2.419 0.284 0.35 0.61 0.73 0.99 1.11a1 1 0 0 0 0.019 0h0.03 9e-3a1 1 0 0 0 0.022 0 1 1 0 0 0 0.029 0c0.373 0.37 0.744 0.7 1.11 0.98 0.675 0.54 1.472 1.08 2.418 1.61 1.246 0.69 1.971 0.98 2.582 1.18a1 1 0 0 0 0.26 0.14c0.25 0.1 0.51 0.12 0.76 0.11h0.31c0.56-0.1 1.07-0.33 1.52-0.69a1 1 0 0 0 0.1-0.1c0.38-0.38 0.74-0.77 0.99-1.21a1 1 0 0 0 0.1-0.27c0.28-0.77 0.1-1.73-0.56-2.28-0.1-0.1-0.1 0-0.13-0.1-0.1-0.1-0.18-0.15-0.29-0.24-0.23-0.18-0.49-0.4-0.71-0.56-0.4-0.3-0.92-0.613-1.27-0.806-0.98-0.548-2.116-0.313-2.721 0.466l-0.246 0.31c-2.105-0.703-2.781-2.522-2.899-2.895l0.305-0.244c0.783-0.6 1.029-1.742 0.477-2.725-0.191-0.338-0.51-0.861-0.805-1.263-0.156-0.209-0.371-0.476-0.557-0.705-0.09-0.111-0.173-0.213-0.24-0.295-0.03-0.03-0.048-0.06-0.068-0.09a1 1 0 0 0 0-0.01l-0.01-0.01-0.012-0.019s-0.038-0.031-0.058-0.061c0 0 0.028 0.041 0.048 0.071-0.3-0.346-0.716-0.596-1.162-0.672a1 1 0 0 0-0.158-0.01c-0.06 0-0.119-0.012-0.178-0.012l0.229-0.137zm1.357 0.553c-0.01 0 0.041 0.041 0.071 0.061l-0.022-0.022c-0.02-0.02-0.039-0.029-0.049-0.039zm-1.269 0.381c0.225 0.038 0.43 0.154 0.59 0.344 0 0 0.019 9e-3 0.019 0.019 0.01 0.02 0.04 0.05 0.07 0.09 0.061 0.074 0.147 0.176 0.237 0.289 0.182 0.224 0.395 0.493 0.527 0.672 0.248 0.337 0.575 0.865 0.744 1.164 0.323 0.576 0.13 1.177-0.213 1.44l-0.578 0.463c-0.233 0.19-0.213 0.564-0.213 0.574 6e-3 0.022 0.852 3.188 3.996 3.998 0.01 0 0.386 0.03 0.573-0.21l0.465-0.58c0.264-0.34 0.86-0.537 1.43-0.21 0.3 0.17 0.83 0.49 1.17 0.75 0.18 0.13 0.44 0.34 0.67 0.53 0.22 0.17 0.4 0.33 0.4 0.33 0.37 0.31 0.46 0.79 0.23 1.26-0.25 0.44-0.58 0.84-0.98 1.21-0.34 0.29-0.69 0.5-1.04 0.5h-0.16c-0.15 0-0.3 0-0.45-0.1-0.51-0.15-1.315-0.49-2.671-1.24-0.899-0.49-1.646-1-2.277-1.51-0.336-0.26-0.68-0.56-1.029-0.91h-0.022-0.039-0.029-0.041c-0.348-0.35-0.649-0.69-0.914-1.03-0.503-0.633-1.01-1.386-1.506-2.284-0.744-1.356-1.085-2.156-1.235-2.67h-0.031l-0.01-0.039c-0.05-0.15-0.0699-0.305-0.0699-0.455 0-0.054 0.0017-0.101 0.0119-0.161 0.04-0.33 0.211-0.659 0.474-0.986v-0.029l0.032-0.03c0.379-0.413 0.783-0.742 1.215-0.988l0.031-0.01h0.019c0.233-0.116 0.469-0.157 0.684-0.117l-0.08-0.06v-0.014zm5.838 1.332c0.969 0.069 1.789 0.412 2.369 1.022 0.58 0.608 0.84 1.389 0.84 2.267 0 0.29-0.25 0.527-0.55 0.527-0.3-7e-3 -0.54-0.254-0.54-0.548 0.01-0.639-0.16-1.107-0.55-1.516-0.38-0.401-0.885-0.624-1.634-0.674-0.303-0.022-0.533-0.283-0.513-0.576 0.022-0.292 0.29-0.518 0.593-0.498h-0.019l4e-3 -4e-3zm4.279 11.231v0.1-0.1z" opacity=".25"/>
 <path id="base" d="m9.2018 1c-0.30742 0-0.5626 0.24557-0.56552 0.54315 0 0.29893 0.25339 0.55032 0.56304 0.55185 1.3363 0.01006 2.435 0.43237 3.321 1.2653 0.87555 0.82517 1.3319 1.9684 1.3435 3.4602v0.0012c0 0.29678 0.25848 0.54188 0.56673 0.54188 6.4e-5 0 0.0064-0.0012 0.0064-0.0012 0.30895-0.0032 0.56552-0.25194 0.56304-0.55061v-0.0012c-7e-3 -0.86953-0.14863-1.669-0.42512-2.3726-0.27987-0.7109-0.70526-1.3399-1.2603-1.8631-1.0961-1.0308-2.4963-1.5634-4.1077-1.5747h-0.00636zm-5.7395 1.2864c-0.21559-0.03665-0.44913 0.0032-0.68236 0.11559h-0.018457l-0.026091 0.01489c-0.43221 0.24566-0.83731 0.57501-1.2168 0.98808l-0.029909 0.03233v0.02984c-0.26256 0.32734-0.43609 0.65679-0.47599 0.98687-0.012724 0.05594-0.012724 0.10636-0.012724 0.16034 0 0.15016 0.022272 0.30276 0.068344 0.45242l0.012724 0.04225 0.026091 0.01489c0.14986 0.51424 0.48999 1.3145 1.2342 2.6697 0.49565 0.89823 1.0021 1.6486 1.5051 2.2807 0.26498 0.33225 0.56514 0.67817 0.91348 1.0266 0.00636 0.0038 0.019091 0.01916 0.035 0.03354 0.00636 0.0057 0.013362 0.01699 0.032457 0.03602l0.035 0.03481c0.012094 0.01228 0.020362 0.02119 0.022276 0.0236l0.00636 0.0074 0.00636 0.0064c0.3484 0.34458 0.69197 0.64655 1.0278 0.90981 0.63119 0.50305 1.3813 1.0135 2.2794 1.5101 1.3567 0.74849 2.1644 1.0868 2.6759 1.2342l0.01846 0.0224 0.03118 0.0112c0.1449 0.0483 0.29571 0.07061 0.445 0.06836 0.06045 0.0032 0.11416-6.22e-4 0.16526-0.01241 0.35031-0.04096 0.69712-0.2068 1.0403-0.49465l0.0064-0.0051 0.0064-0.0026c0.0064-0.0051 0-0.0026 0.0064-0.0064 0-0.0026 0.0064-0.0057 0.0076-0.0087 0.40618-0.37069 0.73396-0.77388 0.98061-1.2056l0.01591-0.02736v-0.02609c0.22654-0.47167 0.13682-0.95328-0.23112-1.2603-0.0089-0.0078-0.18588-0.15553-0.40523-0.33434-0.22431-0.18281-0.49037-0.39768-0.67001-0.52949-0.33981-0.25142-0.86518-0.57664-1.1646-0.74327-0.57507-0.32207-1.176-0.13489-1.4405 0.20758l-0.46358 0.58044c-0.18705 0.23559-0.56064 0.21312-0.57057 0.21254-3.1445-0.80901-3.9898-3.9709-3.9958-3.9934-5.055e-4 -0.0099-0.022906-0.38416 0.21254-0.57422l0.57793-0.46236c0.34331-0.26294 0.53631-0.8638 0.21254-1.4405-0.16889-0.29815-0.49552-0.8274-0.74325-1.1646-0.13281-0.17899-0.347-0.44662-0.52944-0.67117-0.091252-0.11227-0.1743-0.21504-0.23494-0.28835-0.030543-0.03665-0.054726-0.06627-0.072098-0.087-0.00891-0.01038-0.015909-0.01763-0.021-0.02361 0-0.0032-0.00636-0.0051-0.00636-0.0074-0.16011-0.19019-0.36425-0.30607-0.58907-0.34429zm5.7731 1.2603c-0.30322-0.02138-0.5757 0.20584-0.59785 0.4984-0.022272 0.29289 0.21413 0.55411 0.51703 0.57546 0.74905 0.05294 1.2545 0.27316 1.6344 0.67486v0.0012c0.38773 0.40918 0.56419 0.87646 0.54936 1.5151v0.0026c-0.0064 0.29386 0.2399 0.5429 0.5444 0.54934h0.014c0.29998 0 0.55012-0.23685 0.5568-0.52699 0.02036-0.87773-0.26542-1.661-0.84144-2.2683-0.57876-0.61036-1.3986-0.95219-2.3764-1.0217z" fill="url(#gr0)"/>
 <path id="path17" d="m8.975 2.047c-0.197 0.085-0.336 0.276-0.338 0.496 0 0.299 0.253 0.551 0.562 0.553 1.341 0.01 2.431 0.43 3.321 1.263 0.88 0.825 1.33 1.97 1.34 3.461 0 0.296 0.26 0.541 0.57 0.541s0.56-0.25 0.56-0.549c0-0.269-0.02-0.529-0.05-0.785-0.08 0.195-0.28 0.334-0.51 0.334-0.31 0-0.57-0.245-0.57-0.541-0.01-1.491-0.46-2.636-1.34-3.461-0.89-0.833-1.98-1.253-3.321-1.263-0.08-1e-3 -0.155-0.019-0.224-0.049zm0.037 2.529c-0.201 0.071-0.353 0.249-0.369 0.465-0.02 0.293 0.21 0.554 0.513 0.576 0.749 0.05 1.254 0.273 1.634 0.674 0.39 0.409 0.56 0.877 0.55 1.516 0 0.294 0.24 0.541 0.54 0.548 0.3 0 0.55-0.237 0.55-0.527 0-0.259-0.03-0.507-0.08-0.748-0.09 0.162-0.27 0.275-0.47 0.275-0.3-7e-3 -0.54-0.254-0.54-0.548 0.01-0.639-0.16-1.107-0.55-1.516-0.38-0.401-0.885-0.624-1.634-0.674-0.052-4e-3 -0.097-0.024-0.144-0.041zm-7.901 0.531c-0.042 0.112-0.09 0.223-0.103 0.334-0.0102 0.06-0.0119 0.107-0.0119 0.161 0 0.15 0.0199 0.305 0.0699 0.455l0.01 0.039h0.031c0.15 0.514 0.491 1.314 1.235 2.67 0.496 0.898 1.003 1.654 1.506 2.284 0.265 0.34 0.566 0.68 0.914 1.03h0.041 0.029 0.039 0.022c0.349 0.35 0.693 0.65 1.029 0.91 0.631 0.51 1.378 1.02 2.277 1.51 1.356 0.75 2.161 1.09 2.671 1.24 0.15 0.1 0.3 0.1 0.45 0.1h0.16c0.35 0 0.7-0.21 1.04-0.5 0.4-0.37 0.73-0.77 0.98-1.21 0.17-0.35 0.16-0.71 0-0.99-0.25 0.43-0.58 0.83-0.98 1.2-0.34 0.29-0.69 0.5-1.04 0.5h-0.16c-0.15 0-0.3 0-0.45-0.1-0.51-0.15-1.315-0.49-2.671-1.24-0.899-0.49-1.646-1-2.277-1.51-0.336-0.26-0.68-0.56-1.029-0.91h-0.022-0.039-0.029-0.041c-0.348-0.35-0.649-0.69-0.914-1.03-0.503-0.633-1.01-1.386-1.506-2.284-0.74-1.349-1.079-2.144-1.231-2.659zm4.498 0.791c-0.066 0.131-0.148 0.247-0.252 0.327l-0.578 0.463c-0.233 0.19-0.213 0.564-0.213 0.574 2e-3 5e-3 0.064 0.207 0.172 0.478 0.016-0.017 0.023-0.038 0.041-0.052l0.578-0.463c0.321-0.246 0.493-0.787 0.252-1.327z" opacity=".45"/>
 <path id="path24" d="m9.201 1c-0.308 0-0.561 0.246-0.564 0.543 0 0.223 0.14 0.419 0.34 0.506 0.069-0.03 0.144-0.049 0.224-0.049l-4e-3 2e-3c1.613 0.011 3.013 0.543 4.103 1.574 0.56 0.523 0.99 1.152 1.26 1.863 0.19 0.486 0.32 1.02 0.38 1.588 0.03-0.066 0.05-0.138 0.05-0.215 0-0.87-0.15-1.669-0.43-2.373-0.27-0.711-0.7-1.34-1.26-1.863-1.09-1.031-2.49-1.563-4.103-1.574l4e-3 -2e-3zm-5.818 1.221 0.08 0.064c-0.215-0.04-0.451 1e-3 -0.684 0.117h-0.019l-0.03 0.01c-0.432 0.246-0.837 0.575-1.216 0.988l-0.03 0.03v0.031c-0.263 0.327-0.436 0.656-0.476 0.986-0.0102 0.06-0.01 0.106-0.01 0.16 0 0.15 0.02 0.304 0.07 0.454l0.01 0.039 0.029 9e-3c1e-3 2e-3 4e-3 6e-3 4e-3 8e-3 0.083-0.219 0.198-0.438 0.373-0.656v-0.031l0.03-0.03c0.379-0.413 0.784-0.742 1.216-0.988l0.03-0.01h0.019c0.233-0.116 0.469-0.157 0.684-0.117l-0.08-0.064c0.225 0.038 0.43 0.153 0.59 0.343 0 0 0.019 0.01 0.019 0.02 0.01 0.02 0.04 0.05 0.07 0.09 0.061 0.074 0.145 0.176 0.235 0.289 0.182 0.224 0.397 0.493 0.529 0.672 0.248 0.337 0.575 0.865 0.744 1.164 0.021 0.037 0.023 0.074 0.039 0.111 0.152-0.303 0.186-0.71-0.039-1.111-0.169-0.299-0.496-0.827-0.744-1.164-0.132-0.179-0.347-0.448-0.529-0.672-0.09-0.113-0.174-0.215-0.235-0.289-0.03-0.04-0.06-0.07-0.07-0.09 0-0.01-0.019-0.02-0.019-0.02-0.16-0.19-0.365-0.305-0.59-0.343zm5.834 1.322 0.017 4e-3c-0.303-0.02-0.573 0.206-0.595 0.498-0.017 0.243 0.144 0.454 0.371 0.535 0.071-0.025 0.146-0.038 0.224-0.033l-0.017-4e-3c0.973 0.069 1.793 0.411 2.373 1.021 0.41 0.429 0.65 0.946 0.76 1.52 0.05-0.076 0.08-0.159 0.08-0.252 0-0.878-0.26-1.66-0.84-2.268-0.58-0.61-1.4-0.952-2.373-1.021zm-4.479 4.211c-0.179 0.199-0.172 0.512-0.172 0.521 6e-3 0.022 0.852 3.185 3.996 3.995 0.01 0 0.384 0.03 0.571-0.21l0.465-0.58c0.264-0.34 0.862-0.53 1.432-0.21 0.3 0.17 0.83 0.49 1.17 0.75 0.18 0.13 0.44 0.34 0.67 0.53 0.22 0.17 0.4 0.33 0.4 0.33 0.09 0.08 0.17 0.17 0.23 0.27v-0.01c0.23-0.47 0.14-0.95-0.23-1.26 0 0-0.18-0.16-0.4-0.33-0.23-0.19-0.49-0.4-0.67-0.53-0.34-0.26-0.87-0.58-1.17-0.75-0.57-0.324-1.168-0.13-1.432 0.21l-0.465 0.58c-0.187 0.24-0.561 0.21-0.571 0.21-2.419-0.62-3.462-2.61-3.824-3.516z" fill="#fff" opacity=".6"/>
</svg>
