<?xml version="1.0" encoding="UTF-8"?>
<svg id="svg29" width="16" height="16" version="1.1" xmlns="http://www.w3.org/2000/svg" xmlns:cc="http://creativecommons.org/ns#" xmlns:dc="http://purl.org/dc/elements/1.1/" xmlns:rdf="http://www.w3.org/1999/02/22-rdf-syntax-ns#">
 <metadata id="metadata33">
  <rdf:RDF>
   <cc:Work rdf:about="">
    <dc:format>image/svg+xml</dc:format>
    <dc:type rdf:resource="http://purl.org/dc/dcmitype/StillImage"/>
   </cc:Work>
  </rdf:RDF>
 </metadata>
 <defs id="defs7">
  <linearGradient id="gr0" x1="8" x2="8" y1="1" y2="15" gradientUnits="userSpaceOnUse">
   <stop id="stop2" stop-color="#ebebeb" offset="0"/>
   <stop id="stop4" stop-color="#aaa" offset="1"/>
  </linearGradient>
 </defs>
 <path id="path9" d="m1.5 0c-0.8137 0-1.5 0.6863-1.5 1.5v1c0 0.621 0.4492 1.065 1 1.289v10.711c0 0.81 0.686 1.5 1.5 1.5h1a1 1 0 0 0 0.01 0c0.257 0 0.578-0.1 0.812-0.22 0.234-0.14 0.348-0.27 0.438-0.36a1 1 0 0 0 0.029 0l10.791-11.766c0.45-0.454 0.42-1.017 0.42-1.125v-1c0-0.8134-0.69-1.4997-1.5-1.4997h-5.004c-0.814 0-1.5 0.6863-1.5 1.4997 0-0.8134-0.686-1.4997-1.5-1.4997l-4.996-0.0293zm0 1h5.002c0.277 0 0.5 0.223 0.5 0.5v1c0 0.277-0.223 0.5-0.5 0.5h-0.5v4.855l4.448-4.855h-0.948c-0.277 0-0.5-0.223-0.5-0.5v-1c0-0.277 0.223-0.5 0.5-0.5h4.998c0.28 0 0.5 0.223 0.5 0.5v1c0 0.108 0 0.287-0.13 0.418l-10.813 11.792c-0.186 0.19-0.281 0.29-0.557 0.29h-1c-0.277 0-0.5-0.22-0.5-0.5v-11.5h-0.5c-0.277 0-0.5-0.223-0.5-0.5v-1c0-0.277 0.223-0.5 0.5-0.5zm6.5 1.5c0 0.447 0.228 0.82 0.549 1.098l-1.549 1.689v-1.498c0.551-0.224 1-0.668 1-1.289z" opacity=".25"/>
 <path id="base" d="m1.5 1c-0.277 0-0.5 0.223-0.5 0.5v1c0 0.277 0.223 0.5 0.5 0.5h0.5v11.5c0 0.277 0.223 0.5 0.5 0.5h1c0.27643-0.0037 0.37135-0.10377 0.55664-0.28906l10.813-11.793c0.13086-0.13086 0.13086-0.31019 0.13086-0.41797v-1c0-0.277-0.223-0.5-0.5-0.5h-5c-0.277 0-0.5 0.223-0.5 0.5v1c0 0.277 0.223 0.5 0.5 0.5h0.95312l-4.4531 4.8555v-4.8555h0.5c0.277 0 0.5-0.223 0.5-0.5v-1c0-0.277-0.223-0.5-0.5-0.5z" fill="url(#gr0)"/>
 <path id="path17" d="m1 2.5v1c0 0.277 0.223 0.5 0.5 0.5h0.5v-1h-0.5c-0.277 0-0.5-0.223-0.5-0.5zm6.002 0c0 0.277-0.223 0.5-0.5 0.5h-0.5v1h0.5c0.277 0 0.5-0.223 0.5-0.5v-1zm2 0v1c0 0.277 0.223 0.5 0.5 0.5h0.031l0.917-1h-0.948c-0.277 0-0.5-0.223-0.5-0.5zm5.998 0c0 0.108 0 0.287-0.13 0.418l-10.813 11.792c-0.186 0.19-0.281 0.29-0.557 0.29h-1c-0.277 0-0.5-0.22-0.5-0.5v1c0 0.28 0.223 0.5 0.5 0.5h1c0.276 0 0.371-0.1 0.557-0.29l10.813-11.792c0.13-0.131 0.13-0.31 0.13-0.418v-1z" opacity=".45"/>
 <path id="path24" d="m1.5 1c-0.277 0-0.5 0.223-0.5 0.5v1c0-0.277 0.223-0.5 0.5-0.5h5.002c0.277 0 0.5 0.223 0.5 0.5v-1c0-0.277-0.223-0.5-0.5-0.5h-5.002zm8.002 0c-0.277 0-0.5 0.223-0.5 0.5v1c0-0.277 0.223-0.5 0.5-0.5h4.998c0.28 0 0.5 0.223 0.5 0.5v-1c0-0.277-0.22-0.5-0.5-0.5h-4.998zm0.031 3-3.531 3.855v1l4.448-4.855h-0.917z" fill="#fff" opacity=".6"/>
</svg>
