<?xml version="1.0" encoding="UTF-8"?>
<svg id="svg29" width="16" height="16" version="1.1" xmlns="http://www.w3.org/2000/svg" xmlns:cc="http://creativecommons.org/ns#" xmlns:dc="http://purl.org/dc/elements/1.1/" xmlns:rdf="http://www.w3.org/1999/02/22-rdf-syntax-ns#">
 <metadata id="metadata33">
  <rdf:RDF>
   <cc:Work rdf:about="">
    <dc:format>image/svg+xml</dc:format>
    <dc:type rdf:resource="http://purl.org/dc/dcmitype/StillImage"/>
   </cc:Work>
  </rdf:RDF>
 </metadata>
 <defs id="defs7">
  <linearGradient id="gr0" x1="8" x2="8" y1="1" y2="15" gradientUnits="userSpaceOnUse">
   <stop id="stop2" stop-color="#ebebeb" offset="0"/>
   <stop id="stop4" stop-color="#aaa" offset="1"/>
  </linearGradient>
 </defs>
 <path id="path9" d="m6 0a1 1 0 0 0-1 1v3h-3a1 1 0 0 0-1 1v3a1 1 0 0 0 1 1h3v6a1 1 0 0 0 1 1h3a1 1 0 0 0 1-1v-6h3a1 1 0 0 0 1-1v-3a1 1 0 0 0-1-1h-3v-3a1 1 0 0 0-1-1h-3zm0 1h3v4h4v3h-4v7h-3v-7h-4v-3h4v-4z" opacity=".25"/>
 <path id="base" d="m6 1v4h-4v3h4v7h3v-7h4v-3h-4v-4z" fill="url(#gr0)"/>
 <path id="path17" d="m2 8v1h4v-1h-4zm7 0v1h4v-1h-4zm-3 7v1h3v-1h-3z" opacity=".45"/>
 <path id="path24" d="m6 1v1h3v-1h-3zm-4 4v1h4v-1h-4zm7 0v1h4v-1h-4z" fill="#fff" opacity=".6"/>
</svg>
