<?xml version="1.0" encoding="UTF-8"?>
<svg width="16" height="16" version="1.0" xmlns="http://www.w3.org/2000/svg">
 <defs>
  <linearGradient id="linearGradient3668" x1="10.9" x2="10.9" y1="26.3" y2="8.12" gradientTransform="matrix(.7 0 0 .7 -1.89 -3.41)" gradientUnits="userSpaceOnUse">
   <stop stop-color="#b0b0b0" offset="0"/>
   <stop stop-color="#d7d7d7" offset="1"/>
  </linearGradient>
  <linearGradient id="linearGradient3197" x1="4.06" x2="4.06" y1="17" y2="3" gradientTransform="translate(0,-1.5)" gradientUnits="userSpaceOnUse">
   <stop stop-color="#777" offset="0"/>
   <stop stop-color="#929292" offset="1"/>
  </linearGradient>
  <linearGradient id="linearGradient3116-3" x1="45" x2="45" y1="-3.56" y2="68.1" gradientTransform="matrix(.175 0 0 .175 -1.2 2.08)" gradientUnits="userSpaceOnUse">
   <stop stop-opacity=".569" offset="0"/>
   <stop stop-opacity="0" offset=".0702"/>
   <stop stop-color="#3c3c3c" stop-opacity=".0902" offset=".203"/>
   <stop stop-color="#888" stop-opacity=".137" offset=".266"/>
   <stop stop-color="#bbb" stop-opacity=".184" offset=".35"/>
   <stop stop-color="#757575" stop-opacity=".137" offset=".439"/>
   <stop stop-color="#383838" stop-opacity=".0902" offset=".498"/>
   <stop stop-color="#8a8a8a" stop-opacity=".192" offset=".659"/>
   <stop stop-color="#292929" stop-opacity=".61" offset="1"/>
  </linearGradient>
 </defs>
 <rect y="1.5" width="16" height="14.5" rx="2" ry="2" fill="url(#linearGradient3197)"/>
 <rect x=".5" y="4" width="15" height="12" rx="1.67" ry="1.63" opacity="0"/>
 <path d="m2.05 0c-0.582 0-1.05 0.468-1.05 1.05v2.53c0 0.582 0.468 1.05 1.05 1.05h11.9c0.582 0 1.05-0.468 1.05-1.05v-1.46c0-0.582-0.468-1.05-1.05-1.05h-6.46l-0.186-0.0185c-0.579-0.0578-0.468-1.05-1.05-1.05h-4.18z" fill="#707070"/>
 <path d="m2.04 1.03c-0.0134 0 0-0.0191 0 0.0312v4.53h11.9c0.0504 0 0.0312 0.0134 0.0312 0v-3.47c0-0.0134-0.0178-0.0312-0.0312-0.0312h-6.62c-0.0312 0.0014-0.0625 0.0014-0.0938 0-0.441-0.0441-0.837-0.35-1.03-0.594-0.161-0.202-0.225-0.345-0.281-0.469h-3.84z" fill="#999"/>
 <rect x="1" y="2" width="14" height="13" rx="1" ry="1" fill="url(#linearGradient3668)"/>
 <path d="m2 2c-0.554 0-1 0.446-1 1v1c0-0.554 0.446-1 1-1h12c0.554 0 1 0.446 1 1v-1c0-0.554-0.446-1-1-1h-12z" fill="#fff" opacity=".35"/>
 <rect x="24" y="-8" width="8" height="8" color="#000000" fill="#bd8e48"/>
 <path d="m4.53 1.44c-0.291 0-0.531 0.24-0.531 0.531v11.9l4.03-3.19 3.97 3.19v-11.9c0-0.291-0.24-0.531-0.531-0.531h-2.47z" fill="#646464"/>
 <path d="m5 2v10l3.03-2.38 2.97 2.38v-10z" fill="#787878"/>
 <path d="m4.53 1.44c-0.291 0-0.531 0.24-0.531 0.531v11.9l3.97-3.19 4.03 3.19v-11.9c0-0.291-0.24-0.531-0.531-0.531h-4.47z" fill="url(#linearGradient3116-3)"/>
 <path d="m9.28 5.13c-3e-6 0.188-0.0299 0.357-0.0896 0.506-0.0574 0.149-0.145 0.286-0.262 0.41s-0.264 0.239-0.441 0.344c-0.175 0.103-0.379 0.203-0.613 0.3l-0.141 0.641h-0.431l-0.141-0.868c0.202-0.0804 0.367-0.175 0.496-0.282 0.129-0.11 0.23-0.227 0.303-0.351 0.0758-0.126 0.127-0.258 0.155-0.396 0.0276-0.138 0.0413-0.277 0.0413-0.417-2.3e-6 -0.113-0.0103-0.215-0.031-0.307-0.0207-0.0942-0.054-0.175-0.0999-0.241-0.0436-0.0689-0.101-0.122-0.172-0.158-0.0689-0.0367-0.152-0.0551-0.248-0.0551-0.106 4.8e-6 -0.194 0.0241-0.265 0.0723-0.0712 0.0482-0.129 0.113-0.172 0.193-0.0436 0.0804-0.0758 0.175-0.0965 0.282-0.0184 0.108-0.0276 0.222-0.0276 0.341-0.145 3.7e-6 -0.278-0.0103-0.4-0.031-0.122-0.0207-0.227-0.0505-0.317-0.0896-0.0873-0.0413-0.156-0.093-0.207-0.155-0.0482-0.062-0.0723-0.134-0.0723-0.217 0-0.115 0.0299-0.222 0.0896-0.32 0.0597-0.101 0.15-0.188 0.272-0.262 0.124-0.0735 0.28-0.131 0.468-0.172 0.188-0.0436 0.412-0.0654 0.672-0.0654 0.248 5.1e-6 0.478 0.0299 0.689 0.0896 0.211 0.0574 0.394 0.142 0.548 0.255 0.154 0.11 0.274 0.246 0.362 0.406 0.0873 0.161 0.131 0.343 0.131 0.548m-2.35 3.3c-1.5e-6 -0.108 0.0149-0.197 0.0448-0.269 0.0298-0.0735 0.07-0.132 0.121-0.176 0.0528-0.0436 0.115-0.0746 0.186-0.093 0.0712-0.0184 0.147-0.0276 0.227-0.0276 0.0781 1.1e-6 0.152 0.00919 0.22 0.0276 0.0712 0.0184 0.133 0.0494 0.186 0.093 0.0528 0.0436 0.0942 0.102 0.124 0.176 0.0321 0.0712 0.0482 0.161 0.0482 0.269-2.3e-6 0.106-0.0161 0.194-0.0482 0.265-0.0299 0.0712-0.0712 0.129-0.124 0.172-0.0528 0.0436-0.115 0.0746-0.186 0.093-0.0689 0.0207-0.142 0.031-0.22 0.031-0.0804 0-0.156-0.0103-0.227-0.031-0.0712-0.0184-0.133-0.0494-0.186-0.093-0.0505-0.0436-0.0907-0.101-0.121-0.172-0.0299-0.0712-0.0448-0.16-0.0448-0.265" fill="#fff"/>
</svg>
