<?xml version="1.0" encoding="UTF-8"?>
<svg width="16" height="16" version="1.1" xmlns="http://www.w3.org/2000/svg">
 <defs>
  <linearGradient id="gr0" x1="8" x2="8" y1=".999" y2="15" gradientUnits="userSpaceOnUse">
   <stop stop-color="#ebebeb" offset="0"/>
   <stop stop-color="#aaa" offset="1"/>
  </linearGradient>
 </defs>
 <path d="m8 0a1 1 0 0 0-0.389 0.0781 1 1 0 0 0-0.00195 0.00195c-4.21 0.216-7.61 3.65-7.61 7.92v5.61c0 1.31 1.09 2.39 2.39 2.39h5.61c4.4-0.0018 8-3.59 8-8 0-4.41-3.59-8-8-8zm0 1c3.87 0 7 3.13 7 7 0 3.87-3.14 7-7 7h-5.61c-0.776 0-1.39-0.62-1.39-1.39v-5.61c0.0027-3.86 3.14-7 7-7zm2.02 1.75c-1.78 0-3.23 1.44-3.23 3.22v1.7h-1.7c-1.78 1e-4 -3.23 1.45-3.23 3.23 0 1.78 1.45 3.23 3.23 3.23 1.78 0 3.23-1.45 3.23-3.23v-1.72h1.7c1.78 1e-4 3.23-1.42 3.23-3.2 0-1.78-1.45-3.23-3.23-3.23zm0 1.53c0.94 0 1.72 0.755 1.72 1.7 0 0.94-0.783 1.7-1.72 1.7h-1.45c-0.133 0-0.246-0.0859-0.246-0.219v-1.48c0.0016-0.939 0.756-1.7 1.7-1.7zm-2.36 3.89c0.0433 0.0547 0.0379 0.144 0.0879 0.188a1 1 0 0 0-0.268 0.283c-0.0437-0.0531-0.0749-0.0977-0.127-0.143a1 1 0 0 0 0.307-0.328zm-2.56 1h1.45c0.133 0 0.246 0.114 0.246 0.246v1.48c-0.0013 0.938-0.756 1.7-1.7 1.7-0.94 0-1.72-0.756-1.72-1.7 0-0.94 0.783-1.72 1.72-1.72z" opacity=".25"/>
 <path d="m8 1c-3.86 0-7 3.14-7 7v5.61c0 0.775 0.619 1.39 1.39 1.39h5.61c3.86-0.0016 7-3.13 7-7 0-3.87-3.13-7-7-7zm2.02 1.75c1.78 0 3.23 1.45 3.23 3.23 0 1.78-1.45 3.2-3.23 3.2h-1.7v1.72c0 1.78-1.45 3.23-3.23 3.23-1.78-1e-3 -3.23-1.45-3.23-3.23 0-1.78 1.45-3.23 3.23-3.23h1.7v-1.7c0-1.78 1.45-3.23 3.23-3.23zm0 1.53c-0.939 0-1.69 0.756-1.7 1.7v1.48c0 0.133 0.113 0.219 0.246 0.219h1.45c0.94 0 1.72-0.755 1.72-1.7 0-0.94-0.783-1.7-1.72-1.7zm-4.92 4.89c-0.94 0-1.72 0.782-1.72 1.72 0 0.94 0.783 1.7 1.72 1.7 0.939 0 1.69-0.757 1.7-1.7v-1.48c0-0.133-0.113-0.246-0.246-0.246h-1.45z" fill="url(#gr0)"/>
 <path d="m10.4 2.78c0.104 0.0157 0.212 0.0244 0.328 0.0547-0.107-0.024-0.217-0.0416-0.328-0.0547zm0.328 0.0547c0.365 0.0956 0.656 0.418 0.656 0.766 1.65e-4 0.42-0.282 0.711-0.738 0.711-0.0943 0-0.2 0.0089-0.273 0 0.777 0.159 1.37 0.845 1.37 1.67 0 0.94-0.783 1.7-1.72 1.7h-0.328c0.416 0 0.738 0.348 0.738 0.766 0 0.418-0.322 0.738-0.738 0.738h0.328c1.78 0 3.23-1.42 3.23-3.2 0-1.54-1.08-2.82-2.52-3.14zm-5.63 4.84c-1.78 0-3.23 1.45-3.23 3.23 0 1.65 1.24 3.01 2.84 3.2-0.105-0.0158-0.212-0.0517-0.328-0.082-0.365-0.0956-0.656-0.391-0.656-0.738 0-0.42 0.282-0.711 0.738-0.711 0.0942 0 0.2-0.0089 0.273 0-0.777-0.159-1.37-0.846-1.37-1.67 0-0.94 0.783-1.72 1.72-1.72h0.328c-0.417 0-0.738-0.32-0.738-0.738-1.08e-4 -0.42 0.345-0.766 0.766-0.766h-0.355zm1.56 3.88c-0.0863 0.203-0.202 0.393-0.356 0.547 0.154-0.154 0.269-0.344 0.356-0.547z" fill="#fff" opacity=".4"/>
 <path d="m10 2.75c-1.78 0-3.23 1.44-3.23 3.22v1c0-1.78 1.45-3.22 3.23-3.22 1.61 0 2.93 1.18 3.18 2.73 0.0259-0.164 0.0508-0.328 0.0508-0.5 0-1.78-1.45-3.23-3.23-3.23zm1.64 3.73c-0.22 0.692-0.872 1.2-1.64 1.2h-1.45c-0.133 0-0.246-0.0859-0.246-0.219v1c0 0.133 0.113 0.219 0.246 0.219h1.45c0.94 0 1.72-0.755 1.72-1.7 0-0.176-0.0354-0.341-0.0859-0.5zm-6.56 1.19c-1.78 1e-4 -3.23 1.45-3.23 3.23 0 0.171 0.0251 0.336 0.0508 0.5 0.242-1.54 1.57-2.73 3.18-2.73h1.7v-1h-1.7zm9.87 0.83c-0.258 3.63-3.28 6.5-6.97 6.5h-2.06c-0.269 0.073-0.548 0.125-0.84 0.125-0.292-2e-4 -0.571-0.0519-0.84-0.125h-1.87c-0.776 0-1.39-0.62-1.39-1.39v1c0 0.775 0.619 1.39 1.39 1.39h5.61c3.86 0 7-3.13 7-7 0-0.169-0.0137-0.334-0.0254-0.5zm-8.18 2.4c-0.0013 0.938-0.756 1.7-1.7 1.7-0.765 0-1.42-0.504-1.64-1.2-0.0503 0.16-0.084 0.327-0.084 0.502 0 0.94 0.783 1.7 1.72 1.7 0.939 0 1.69-0.757 1.7-1.7v-1z" opacity=".45"/>
 <path d="m8 1c-3.86 0-7 3.14-7 7v1c0.0027-3.86 3.14-7 7-7 3.7 0 6.72 2.87 6.97 6.5 0.0118-0.166 0.0254-0.331 0.0254-0.5 0-3.87-3.13-7-7-7zm2.02 3.28c-0.939 0-1.69 0.756-1.7 1.7v1c0.0016-0.939 0.756-1.7 1.7-1.7 0.764 0 1.42 0.503 1.64 1.2 0.0505-0.159 0.0859-0.324 0.0859-0.5 0-0.94-0.783-1.7-1.72-1.7zm3.18 2.2c-0.242 1.54-1.57 2.7-3.18 2.7h-1.7v1h1.7c1.78 1e-4 3.23-1.42 3.23-3.2 0-0.171-0.0251-0.336-0.0508-0.5zm-8.1 2.7c-0.94 0-1.72 0.782-1.72 1.72 0 0.175 0.0339 0.34 0.084 0.498 0.22-0.7 0.874-1.22 1.64-1.22h1.45c0.133 0 0.246 0.114 0.246 0.246v-1c0-0.133-0.113-0.246-0.246-0.246h-1.45zm3.23 1.72c0 1.78-1.45 3.23-3.23 3.23-1.61-9e-4 -2.93-1.19-3.18-2.73-0.0259 0.164-0.0508 0.328-0.0508 0.5 0 1.49 1.02 2.73 2.39 3.1h1.68c1.37-0.372 2.39-1.61 2.39-3.1v-1z" fill="#fff" opacity=".6"/>
</svg>
