<?xml version="1.0" encoding="UTF-8"?>
<svg width="16" height="16" version="1.1" xmlns="http://www.w3.org/2000/svg">
 <defs>
  <linearGradient id="gr0" x1="8" x2="8" y1="1" y2="15" gradientUnits="userSpaceOnUse">
   <stop stop-color="#ebebeb" offset="0"/>
   <stop stop-color="#aaa" offset="1"/>
  </linearGradient>
 </defs>
 <path d="m7.97 0a1 1 0 0 0-0.893 0.617 1 1 0 0 0-0.00195 0.00586c-0.628 1.54-0.992 2.51-1.67 3.96a1 1 0 0 0-0.0781 0.248 1 1 0 0 0-0.184 0.266c-0.874 1.82-2.19 4.35-5.01 9.42a1 1 0 0 0 1.37 1.35c2.18-1.26 3.81-1.99 5.23-2.25a1 1 0 0 0 0.791-1.21c-0.0514-0.221-0.0816-0.462-0.0801-0.711 1e-5 -2e-3 -2e-5 -0.0038 0-0.0059l0.00195-0.041a1 1 0 0 0 0-0.0136c0.0135-0.544 0.173-1 0.338-1.24 0.164-0.243 0.226-0.225 0.229-0.225 0.00313 3e-4 0.147 0.0414 0.316 0.344 0.17 0.302 0.304 0.802 0.291 1.35-0.00528 0.208-0.0291 0.404-0.0664 0.572a1 1 0 0 0 0.785 1.2c1.41 0.275 3.02 1 5.17 2.25a1 1 0 0 0 1.38-1.34c-0.43-0.792-0.815-1.51-1.18-2.19a1 1 0 0 0-0.268-0.314c-0.0335-0.026-0.132-0.0869-0.168-0.115a1 1 0 0 0-0.115-0.555c-3.73-6.95-3.93-7.71-5.23-10.7a1 1 0 0 0-0.951-0.607zm0.0312 1h0.00195c1.28 3.01 1.52 3.86 5.26 10.8-0.473-0.284-1.02-0.462-1.87-0.682 1.23 0.633 1.84 1.22 2.42 1.67 0.368 0.682 0.752 1.4 1.18 2.19-2.19-1.26-3.89-2.05-5.48-2.36 0.0527-0.239 0.0828-0.496 0.0898-0.764 0.0352-1.42-0.645-2.63-1.52-2.71-0.876-0.0742-1.62 1.02-1.65 2.44l-0.00195 0.0703c-0.0027 0.334 0.0367 0.655 0.105 0.951-1.6 0.301-3.32 1.09-5.54 2.37 2.82-5.07 4.15-7.62 5.04-9.47 0.465 0.391 1.15 0.674 2.06 1.05-0.848-0.593-1.37-1.12-1.8-1.57 0.694-1.48 1.07-2.48 1.69-4.01z" opacity=".25"/>
 <path d="m8 1c-0.623 1.53-0.999 2.53-1.69 4.01 0.426 0.451 0.948 0.976 1.8 1.57-0.912-0.375-1.6-0.658-2.06-1.05-0.888 1.85-2.22 4.4-5.04 9.47 2.22-1.28 3.94-2.07 5.54-2.37-0.0688-0.296-0.108-0.616-0.105-0.95l0.00263-0.0711c0.0352-1.42 0.775-2.51 1.65-2.44 0.876 0.0742 1.56 1.29 1.52 2.71-0.00665 0.267-0.0368 0.525-0.0895 0.763 1.59 0.31 3.29 1.1 5.48 2.36-0.432-0.795-0.817-1.51-1.18-2.19-0.58-0.449-1.18-1.03-2.42-1.67 0.848 0.22 1.39 0.397 1.87 0.681-3.74-6.96-3.98-7.81-5.26-10.8z" fill="url(#gr0)"/>
 <path d="m6.61 5.31c-0.0714 0.16-0.13 0.302-0.209 0.473 0.435 0.27 0.999 0.505 1.7 0.793-0.672-0.47-1.11-0.884-1.49-1.27zm1.48 3.85c-0.876-0.0742-1.62 1.02-1.65 2.44l-0.00195 0.0703c-0.00153 0.19 0.0139 0.374 0.0371 0.553 0.145-1.23 0.821-2.13 1.62-2.06 0.737 0.0623 1.33 0.935 1.48 2.06 0.0126-0.117 0.0378-0.226 0.041-0.348 0.0352-1.42-0.645-2.63-1.52-2.71zm3.31 1.97c0.617 0.316 1.08 0.621 1.45 0.902-0.11-0.206-0.182-0.346-0.285-0.541-0.326-0.123-0.693-0.238-1.17-0.361zm-4.96 1.52c-1.37 0.275-2.86 0.921-4.66 1.91-0.298 0.541-0.441 0.821-0.781 1.43 2.22-1.28 3.94-2.07 5.54-2.37-0.0688-0.296-0.108-0.617-0.105-0.951v-0.0215zm3.17 4e-3c0.00191 0.0719 0.00962 0.142 0.00781 0.215-7e-3 0.268-0.0371 0.525-0.0898 0.764 1.59 0.31 3.29 1.1 5.48 2.36-0.28-0.516-0.519-0.962-0.768-1.42-1.78-0.986-3.26-1.64-4.63-1.92z" opacity=".45"/>
 <path d="m8 1c-0.623 1.53-0.999 2.53-1.69 4.01 0.0882 0.0934 0.208 0.203 0.307 0.303 0.495-1.11 0.873-2.05 1.39-3.31h0.00195c1.18 2.77 1.6 3.92 4.57 9.5 0.255 0.096 0.489 0.196 0.697 0.32-3.74-6.96-3.98-7.81-5.26-10.8h-0.00195zm-1.96 4.53c-0.888 1.85-2.22 4.4-5.04 9.47 0.275-0.159 0.521-0.288 0.781-0.432 2.18-3.95 3.48-6.41 4.26-8.04 0.465 0.391 1.15 0.674 2.06 1.05-0.848-0.593-1.37-1.12-1.8-1.57 0.0391-0.0836 0.0604-0.144 0.0976-0.225-0.132-0.0817-0.253-0.165-0.361-0.256zm6.81 6.52c0.158 0.296 0.237 0.456 0.41 0.777-0.473-0.284-1.02-0.462-1.87-0.682 1.23 0.633 1.84 1.22 2.42 1.67 0.129 0.24 0.281 0.52 0.416 0.77 0.256 0.141 0.498 0.268 0.768 0.424-0.432-0.795-0.816-1.51-1.18-2.19-0.289-0.224-0.586-0.481-0.963-0.762zm-3.28 0.178c-0.0151 0.14-0.0201 0.286-0.0488 0.416 0.0267 0.0052 0.0552 0.016 0.082 0.0215-0.00397-0.149-0.0141-0.295-0.0332-0.438zm-3.1 0.0078c-0.0146 0.124-0.0319 0.247-0.0352 0.377l-0.00195 0.0488c0.0345-0.0069 0.0711-0.0208 0.105-0.0273-0.0297-0.128-0.0507-0.262-0.0684-0.398z" fill="#fff" opacity=".6"/>
</svg>
