<?xml version="1.0" encoding="UTF-8"?>
<svg width="16" height="16" version="1.1" xmlns="http://www.w3.org/2000/svg">
 <defs>
  <linearGradient id="gr0" x1="8" x2="8" y1="1" y2="15" gradientUnits="userSpaceOnUse">
   <stop stop-color="#ebebeb" offset="0"/>
   <stop stop-color="#aaa" offset="1"/>
  </linearGradient>
 </defs>
 <path d="m6.5 0.00586a1 1 0 0 0-0.375 0.0938c-1.62 0.18-3.05 0.902-4.06 1.85-1.1 1.02-1.88 2.18-1.77 3.49 0.0624 0.769 0.515 1.29 0.971 1.7 0.455 0.408 0.979 0.731 1.48 1 0.177 0.0959 0.303 0.145 0.471 0.227-0.228 0.2-0.485 0.411-0.729 0.633-0.76 0.692-1.45 1.32-1.95 2.09-0.492 0.777-0.705 1.83-0.34 2.81 0.388 1.05 1.21 1.77 2.09 1.99 0.881 0.219 1.72 0.0747 2.54-0.0859 2.31-0.454 5.01-1.98 7.22-3.65 1.11-0.836 2.07-1.71 2.79-2.54 0.71-0.838 1.33-1.61 1.13-2.72-0.128-0.711-0.514-1.25-0.986-1.82s-1.06-1.16-1.71-1.72c-1.3-1.13-2.8-2.17-4.03-2.77-0.831-0.407-1.78-0.62-2.75-0.574zm0.0469 0.998c0.793-0.0371 1.57 0.139 2.26 0.475 2.19 1.07 5.91 4.07 6.18 5.59 0.338 1.88-6.31 6.96-10.3 7.76-1.57 0.306-2.9 0.374-3.51-1.27-0.528-1.43 0.514-2.45 2.02-3.82 0.626-0.57 1.12-0.995 1.87-1.63 0.0431-0.043-3.63-1.31-3.74-2.75-0.12-1.48 2.24-4.21 5.26-4.35v-0.00195zm0.625 2.61c-0.629 0.0587-1.08 0.526-1.13 1.45-0.0576 1 1.84 1.72 2.44 1.51 2.18-0.78 1.07-2.15 0-2.66-0.49-0.236-0.929-0.332-1.31-0.297zm0.0937 0.996c0.14-0.0131 0.405 0.021 0.779 0.201 0.31 0.149 0.558 0.458 0.619 0.537-0.0461 0.0439-0.159 0.137-0.443 0.25h-0.00195c-0.029 0.00147-0.0984 0.00654-0.178-0.00977-0.16-0.033-0.379-0.109-0.566-0.205-0.188-0.0965-0.343-0.219-0.406-0.291-0.0161-0.0184-0.0143-0.0139-0.0195-0.0195-0.00175 0.0197-0.0066 0.0255-0.00781 0.0469 8.2e-4 -0.0491-0.00674-0.0627 0.00781-0.0469 0.0236-0.266 0.0895-0.392 0.115-0.424 0.0277-0.0337 0.0102-0.0305 0.102-0.0391z" fill-rule="evenodd" opacity=".25"/>
 <path d="m6.55 1c-3.02 0.142-5.38 2.87-5.26 4.35 0.117 1.44 3.79 2.71 3.74 2.75-0.751 0.632-1.25 1.06-1.87 1.63-1.51 1.37-2.55 2.39-2.02 3.82 0.609 1.65 1.94 1.58 3.51 1.27 4.04-0.793 10.7-5.88 10.3-7.76-0.274-1.52-3.99-4.52-6.18-5.59-0.686-0.336-1.47-0.511-2.26-0.474zm0.624 2.6c0.378-0.0352 0.817 0.0599 1.31 0.296 1.07 0.516 2.18 1.88 0 2.66-0.593 0.211-2.49-0.51-2.44-1.51 0.0524-0.923 0.5-1.39 1.13-1.45z" fill="url(#gr0)" fill-rule="evenodd"/>
 <path d="m7.17 3.61c-0.629 0.0587-1.08 0.526-1.13 1.45-0.00862 0.15 0.0354 0.291 0.104 0.426 0.174-0.543 0.545-0.83 1.03-0.875 0.378-0.0352 0.816 0.0608 1.31 0.297 0.435 0.21 0.865 0.562 1.09 0.957 0.509-0.731-0.299-1.58-1.09-1.96-0.49-0.236-0.929-0.332-1.31-0.297zm-5.79 2.08c-0.0714 0.239-0.11 0.466-0.0938 0.668 0.0831 1.02 1.92 1.94 2.99 2.41 0.245-0.211 0.451-0.402 0.754-0.656 0.0398-0.0397-3.08-1.12-3.65-2.42zm13.5 2.04c-0.859 2.2-6.59 6.39-10.2 7.1-1.57 0.306-2.9 0.374-3.51-1.27-0.0296-0.0801-0.0367-0.155-0.0566-0.232-0.106 0.387-0.107 0.789 0.0566 1.23 0.609 1.65 1.94 1.58 3.51 1.27 4.04-0.793 10.7-5.88 10.3-7.76-0.0195-0.108-0.061-0.224-0.113-0.346z" fill-rule="evenodd" opacity=".45"/>
 <path d="m6.55 1v0.00195c-3.02 0.142-5.38 2.87-5.26 4.35 0.00906 0.112 0.0456 0.223 0.0938 0.332 0.452-1.51 2.56-3.56 5.17-3.68v-0.00195c0.793-0.0371 1.57 0.139 2.26 0.475 2.04 0.998 5.38 3.66 6.07 5.25 0.0947-0.242 0.147-0.468 0.113-0.654-0.274-1.52-3.99-4.52-6.18-5.59-0.686-0.336-1.47-0.512-2.26-0.475zm-0.4 4.48c-0.0537 0.168-0.0911 0.356-0.104 0.574-0.0576 1 1.84 1.72 2.44 1.51 1.29-0.463 1.42-1.13 1.09-1.71-0.18 0.258-0.521 0.503-1.09 0.707-0.504 0.179-1.94-0.319-2.33-1.09zm-1.87 3.28c-0.363 0.312-0.744 0.631-1.12 0.971-1.42 1.3-2.41 2.28-2.08 3.59 0.235-0.86 1.04-1.64 2.08-2.59 0.626-0.57 1.12-0.995 1.87-1.63 0.0125-0.0125-0.318-0.15-0.754-0.344z" fill="#fff" fill-rule="evenodd" opacity=".6"/>
</svg>
