<?xml version="1.0" encoding="UTF-8"?>
<svg width="16" height="16" version="1.0" xmlns="http://www.w3.org/2000/svg">
 <defs>
  <linearGradient id="linearGradient3668" x1="10.9" x2="10.9" y1="26.3" y2="8.12" gradientTransform="matrix(.7 0 0 .7 -1.89 -3.41)" gradientUnits="userSpaceOnUse">
   <stop stop-color="#c29657" offset="0"/>
   <stop stop-color="#e2c89a" offset="1"/>
  </linearGradient>
  <linearGradient id="linearGradient3197" x1="4.06" x2="4.06" y1="17" y2="3" gradientTransform="translate(0,-1.5)" gradientUnits="userSpaceOnUse">
   <stop stop-color="#8b6429" offset="0"/>
   <stop stop-color="#cb9a4d" offset="1"/>
  </linearGradient>
 </defs>
 <rect y="1.5" width="16" height="14.5" rx="2" ry="2" fill="url(#linearGradient3197)"/>
 <rect x=".5" y="4" width="15" height="12" rx="1.67" ry="1.63" opacity="0"/>
 <path d="m2.05 0c-0.582 0-1.05 0.468-1.05 1.05v2.53c0 0.582 0.468 1.05 1.05 1.05h11.9c0.582 0 1.05-0.468 1.05-1.05v-1.46c0-0.582-0.468-1.05-1.05-1.05h-6.46l-0.186-0.0185c-0.579-0.0578-0.468-1.05-1.05-1.05h-4.18z" fill="#9b6e2d"/>
 <path d="m2.04 1.03c-0.0134 0 0-0.0191 0 0.0312v4.53h11.9c0.0504 0 0.0312 0.0134 0.0312 0v-3.47c0-0.0134-0.0178-0.0312-0.0312-0.0312h-6.62c-0.0312 0.0014-0.0625 0.0014-0.0938 0-0.441-0.0441-0.837-0.35-1.03-0.594-0.161-0.202-0.225-0.345-0.281-0.469h-3.84z" fill="#c39759"/>
 <rect x="1" y="2" width="14" height="13" rx="1" ry="1" fill="url(#linearGradient3668)"/>
 <path d="m2 2c-0.554 0-1 0.446-1 1v1c0-0.554 0.446-1 1-1h12c0.554 0 1 0.446 1 1v-1c0-0.554-0.446-1-1-1h-12z" fill="#fff" opacity=".2"/>
 <rect x="24" y="-8" width="8" height="8" color="#000000" fill="#906d3b"/>
 <rect x="24" y="2" width="8" height="8" color="#000000" fill="#bd8e48"/>
 <path transform="translate(3.03e-8 -1)" d="m5.44 4.06a0.934 0.934 0 0 0-0.406 0.188l-2.41 1.81a0.934 0.934 0 0 0 0 1.5l1.41 1.03-1.41 1.06a0.934 0.934 0 0 0 0 1.5l4.81 3.62a0.934 0.934 0 0 0 1.12 0l4.81-3.62a0.934 0.934 0 0 0 0-1.5l-1.41-1.06 1.41-1.03a0.934 0.934 0 0 0 0-1.5l-2.41-1.81a0.934 0.934 0 0 0-1.12 0l-1.84 1.38-1.84-1.38a0.934 0.934 0 0 0-0.719-0.188z" fill="#fff" opacity=".15"/>
 <path d="m8 13-4.81-3.61 2.41-1.81-2.41-1.81 2.41-1.81 2.41 1.81 2.41-1.81 2.41 1.81-2.41 1.81 2.41 1.81-4.81 3.61z" fill="#bd8e48"/>
 <path d="m5.59 4-2.41 1.81 2.41 1.78-2.41 1.81 4.81 3.62 4.81-3.62-2.41-1.81 2.41-1.78-2.41-1.81-2.41 1.81-2.41-1.81zm0 0.594 2.12 1.59a0.477 0.477 0 0 0 0.562 0l2.12-1.59 1.62 1.22-1.91 1.41a0.477 0.477 0 0 0 0 0.75l1.91 1.44-4.03 3.03-4.03-3.03 1.91-1.44a0.477 0.477 0 0 0 0-0.75l-1.91-1.41 1.62-1.22z" opacity=".2"/>
 <path d="m5.59 4-2.41 1.81 0.656 0.5 1.75-1.31 2.41 1.81 2.41-1.81 1.75 1.31 0.656-0.5-2.41-1.81-2.41 1.81-2.41-1.81zm-0.656 4.09-1.75 1.31 0.656 0.5 1.75-1.31-0.656-0.5zm6.12 0-0.656 0.5 1.75 1.31 0.656-0.5-1.75-1.31z" opacity=".2"/>
 <path d="m3.84 6.31-0.656 0.5 1.75 1.28 0.656-0.5-1.75-1.28zm8.31 0-1.75 1.28 0.656 0.5 1.75-1.28-0.656-0.5zm-8.31 3.59-0.656 0.5 4.81 3.62 4.81-3.62-0.656-0.5-4.16 3.12-4.16-3.12z" fill="#fff" opacity=".15"/>
</svg>
