<?xml version="1.0" encoding="UTF-8"?>
<svg width="16" height="16" version="1.0" xmlns="http://www.w3.org/2000/svg">
 <defs>
  <linearGradient id="linearGradient3668" x1="10.9" x2="10.9" y1="26.3" y2="8.12" gradientTransform="matrix(.7 0 0 .7 -1.89 -3.41)" gradientUnits="userSpaceOnUse">
   <stop stop-color="#c29657" offset="0"/>
   <stop stop-color="#e2c89a" offset="1"/>
  </linearGradient>
  <linearGradient id="linearGradient3197" x1="4.06" x2="4.06" y1="17" y2="3" gradientTransform="translate(0,-1.5)" gradientUnits="userSpaceOnUse">
   <stop stop-color="#8b6429" offset="0"/>
   <stop stop-color="#cb9a4d" offset="1"/>
  </linearGradient>
 </defs>
 <rect y="1.5" width="16" height="14.5" rx="2" ry="2" fill="url(#linearGradient3197)"/>
 <rect x=".5" y="4" width="15" height="12" rx="1.67" ry="1.63" opacity="0"/>
 <path d="m2.05 0c-0.582 0-1.05 0.468-1.05 1.05v2.53c0 0.582 0.468 1.05 1.05 1.05h11.9c0.582 0 1.05-0.468 1.05-1.05v-1.46c0-0.582-0.468-1.05-1.05-1.05h-6.46l-0.186-0.0185c-0.579-0.0578-0.468-1.05-1.05-1.05h-4.18z" fill="#9b6e2d"/>
 <path d="m2.04 1.03c-0.0134 0 0-0.0191 0 0.0312v4.53h11.9c0.0504 0 0.0312 0.0134 0.0312 0v-3.47c0-0.0134-0.0178-0.0312-0.0312-0.0312h-6.62c-0.0312 0.0014-0.0625 0.0014-0.0938 0-0.441-0.0441-0.837-0.35-1.03-0.594-0.161-0.202-0.225-0.345-0.281-0.469h-3.84z" fill="#c39759"/>
 <rect x="1" y="2" width="14" height="13" rx="1" ry="1" fill="url(#linearGradient3668)"/>
 <path d="m2 2c-0.554 0-1 0.446-1 1v1c0-0.554 0.446-1 1-1h12c0.554 0 1 0.446 1 1v-1c0-0.554-0.446-1-1-1h-12z" fill="#fff" opacity=".2"/>
 <rect x="24" y="-8" width="8" height="8" color="#000000" fill="#906d3b"/>
 <rect x="24" y="2" width="8" height="8" color="#000000" fill="#bd8e48"/>
 <path d="m7.31 3.03c-0.718 0-1.18 0.594-1.25 1.22-0.508-0.428-1.31-0.44-1.78 0.0312l-1 1c-0.471 0.471-0.459 1.27-0.0312 1.78-0.624 0.0682-1.22 0.532-1.22 1.25v1.38c0 0.718 0.594 1.18 1.22 1.25-0.428 0.508-0.44 1.31 0.0312 1.78l1 1c0.279 0.279 0.665 0.377 0.938 0.375 0.219-0.0019 0.57-0.122 0.844-0.344 0.0682 0.624 0.532 1.22 1.25 1.22h1.38c0.718 0 1.18-0.594 1.25-1.22 0.508 0.428 1.31 0.44 1.78-0.0312l1-1c0.471-0.471 0.46-1.27 0.0312-1.78 0.624-0.0682 1.22-0.532 1.22-1.25v-1.38c0-0.718-0.594-1.18-1.22-1.25 0.428-0.508 0.44-1.31-0.0312-1.78l-1-1c-0.471-0.471-1.27-0.459-1.78-0.0312-0.0682-0.624-0.532-1.22-1.25-1.22h-1.38zm0 0.969h1.38c0.197 0 0.344 0.175 0.344 0.375v0.688c0.352 0.0937 0.692 0.227 1 0.406l0.5-0.5c0.142-0.142 0.361-0.139 0.5 0l1 1c0.139 0.139 0.142 0.358 0 0.5l-0.5 0.5c0.179 0.308 0.312 0.648 0.406 1h0.688c0.2 0 0.375 0.147 0.375 0.344v1.38c0 0.197-0.175 0.344-0.375 0.344h-0.688c-0.0937 0.352-0.227 0.692-0.406 1l0.5 0.5c0.142 0.142 0.139 0.361 0 0.5l-1 1c-0.139 0.139-0.358 0.142-0.5 0l-0.5-0.5c-0.308 0.179-0.648 0.312-1 0.406v0.688c0 0.2-0.147 0.375-0.344 0.375h-1.38c-0.197 0-0.344-0.175-0.344-0.375v-0.688c-0.352-0.0938-0.692-0.227-1-0.406l-0.5 0.5c-0.0708 0.0708-0.158 0.093-0.25 0.0938-0.0916 7.73e-4 -0.18-0.0242-0.25-0.0938l-1-1c-0.139-0.139-0.142-0.358 0-0.5l0.5-0.5c-0.179-0.308-0.312-0.648-0.406-1h-0.688c-0.2 0-0.375-0.147-0.375-0.344v-1.38c0-0.197 0.175-0.344 0.375-0.344h0.688c0.0937-0.352 0.227-0.692 0.406-1l-0.5-0.5c-0.142-0.142-0.139-0.361 0-0.5l1-1c0.139-0.139 0.358-0.142 0.5 0l0.5 0.5c0.308-0.179 0.648-0.313 1-0.406v-0.688c0-0.2 0.147-0.375 0.344-0.375zm0.688 3.5c-0.834 0-1.5 0.666-1.5 1.5s0.666 1.5 1.5 1.5 1.5-0.666 1.5-1.5-0.666-1.5-1.5-1.5zm0 0.969c0.319 0 0.531 0.212 0.531 0.531s-0.212 0.531-0.531 0.531-0.531-0.212-0.531-0.531 0.212-0.531 0.531-0.531z" display="block" fill="#fff" opacity=".15"/>
 <path d="m7.31 14c-0.197 0-0.356-0.163-0.356-0.363v-0.705c-0.352-0.0938-0.688-0.235-0.996-0.414l-0.501 0.501c-0.0708 0.0708-0.156 0.108-0.247 0.109-0.0916 7.73e-4 -0.185-0.0322-0.254-0.102l-0.981-0.981c-0.139-0.139-0.134-0.36 0.00725-0.501l0.501-0.501c-0.179-0.308-0.32-0.644-0.414-0.996h-0.705c-0.2 0-0.363-0.159-0.363-0.356v-1.38c0-0.197 0.163-0.356 0.363-0.356h0.705c0.0937-0.352 0.235-0.688 0.414-0.996l-0.501-0.501c-0.142-0.142-0.146-0.362-0.00725-0.501l0.981-0.981c0.139-0.139 0.36-0.134 0.501 0.00725l0.501 0.501c0.308-0.179 0.644-0.32 0.996-0.414v-0.705c0-0.2 0.159-0.363 0.356-0.363h1.38c0.197 0 0.356 0.163 0.356 0.363v0.705c0.352 0.0937 0.688 0.235 0.996 0.414l0.501-0.501c0.142-0.142 0.362-0.146 0.501-0.00725l0.981 0.981c0.139 0.139 0.134 0.36-0.0073 0.501l-0.501 0.501c0.179 0.308 0.32 0.644 0.414 0.996h0.705c0.2 0 0.363 0.159 0.363 0.356v1.38c0 0.197-0.163 0.356-0.363 0.356h-0.705c-0.0937 0.352-0.235 0.688-0.414 0.996l0.501 0.501c0.142 0.142 0.146 0.362 0.0073 0.501l-0.981 0.981c-0.139 0.139-0.36 0.134-0.501-0.0073l-0.501-0.501c-0.308 0.179-0.644 0.32-0.996 0.414v0.705c0 0.2-0.159 0.363-0.356 0.363h-1.38zm0.69-3.49c0.834 0 1.51-0.677 1.51-1.51 0-0.834-0.677-1.51-1.51-1.51-0.834 0-1.51 0.677-1.51 1.51 0 0.834 0.677 1.51 1.51 1.51z" display="block" fill="#bd8e48"/>
 <path d="m7.31 4c-0.197 0-0.344 0.175-0.344 0.375v0.688c-0.352 0.0937-0.692 0.227-1 0.406l-0.5-0.5c-0.142-0.142-0.361-0.139-0.5 0l-1 1c-0.139 0.139-0.142 0.358 0 0.5l0.5 0.5c-0.179 0.308-0.312 0.648-0.406 1h-0.688c-0.2 0-0.375 0.147-0.375 0.344v1.38c0 0.197 0.175 0.344 0.375 0.344h0.688c0.0937 0.352 0.227 0.692 0.406 1l-0.5 0.5c-0.142 0.142-0.139 0.361 0 0.5l1 1c0.0696 0.0696 0.158 0.0945 0.25 0.0938 0.0916-7.76e-4 0.179-0.023 0.25-0.0938l0.5-0.5c0.308 0.179 0.648 0.312 1 0.406v0.688c0 0.2 0.147 0.375 0.344 0.375h1.38c0.197 0 0.344-0.175 0.344-0.375v-0.688c0.352-0.0937 0.692-0.227 1-0.406l0.5 0.5c0.142 0.142 0.361 0.139 0.5 0l1-1c0.139-0.139 0.142-0.358 0-0.5l-0.5-0.5c0.179-0.308 0.313-0.648 0.406-1h0.688c0.2 0 0.375-0.147 0.375-0.344v-1.38c0-0.197-0.175-0.344-0.375-0.344h-0.688c-0.0938-0.352-0.227-0.692-0.406-1l0.5-0.5c0.142-0.142 0.139-0.361 0-0.5l-1-1c-0.139-0.139-0.358-0.142-0.5 0l-0.5 0.5c-0.308-0.179-0.648-0.312-1-0.406v-0.688c0-0.2-0.147-0.375-0.344-0.375h-1.38zm0.0938 0.438h1.19v0.625a0.443 0.443 0 0 0 0.312 0.438c0.319 0.0851 0.639 0.188 0.906 0.344a0.443 0.443 0 0 0 0.531-0.0625l0.438-0.438 0.875 0.875-0.438 0.438a0.443 0.443 0 0 0-0.0625 0.531c0.156 0.268 0.259 0.587 0.344 0.906a0.443 0.443 0 0 0 0.438 0.312h0.625v1.19h-0.625a0.443 0.443 0 0 0-0.438 0.312c-0.0851 0.319-0.188 0.639-0.344 0.906a0.443 0.443 0 0 0 0.0625 0.531l0.438 0.438-0.875 0.875-0.438-0.438a0.443 0.443 0 0 0-0.531-0.0625c-0.268 0.156-0.587 0.259-0.906 0.344a0.443 0.443 0 0 0-0.312 0.438v0.625h-1.19v-0.625a0.443 0.443 0 0 0-0.312-0.438c-0.319-0.0851-0.639-0.188-0.906-0.344a0.443 0.443 0 0 0-0.531 0.0625l-0.438 0.438-0.875-0.875 0.438-0.438a0.443 0.443 0 0 0 0.0625-0.531c-0.156-0.268-0.259-0.587-0.344-0.906a0.443 0.443 0 0 0-0.438-0.312h-0.625v-1.19h0.625a0.443 0.443 0 0 0 0.438-0.312c0.0851-0.319 0.188-0.639 0.344-0.906a0.443 0.443 0 0 0-0.0625-0.531l-0.438-0.438 0.875-0.875 0.438 0.438a0.443 0.443 0 0 0 0.531 0.0625c0.268-0.156 0.587-0.259 0.906-0.344a0.443 0.443 0 0 0 0.312-0.438v-0.625zm0.594 2.62c-1.07 0-1.94 0.868-1.94 1.94 0 1.07 0.868 1.94 1.94 1.94 1.07 0 1.94-0.868 1.94-1.94 0-1.07-0.868-1.94-1.94-1.94zm0 0.438c0.834 0 1.5 0.666 1.5 1.5s-0.666 1.5-1.5 1.5-1.5-0.666-1.5-1.5 0.666-1.5 1.5-1.5z" display="block" opacity=".2"/>
 <path d="m7.31 4c-0.197 0-0.344 0.175-0.344 0.375v0.688c-0.352 0.0937-0.692 0.227-1 0.406l-0.5-0.5c-0.142-0.142-0.361-0.139-0.5 0l-1 1c-0.139 0.139-0.142 0.358 0 0.5l0.25 0.25 0.75-0.75c0.139-0.139 0.358-0.142 0.5 0l0.5 0.5c0.308-0.179 0.648-0.312 1-0.406v-0.688c0-0.2 0.147-0.375 0.344-0.375h1.38c0.197 0 0.344 0.175 0.344 0.375v0.688c0.352 0.0938 0.692 0.227 1 0.406l0.5-0.5c0.142-0.142 0.361-0.139 0.5 0l0.75 0.75 0.25-0.25c0.142-0.142 0.139-0.361 0-0.5l-1-1c-0.139-0.139-0.358-0.142-0.5 0l-0.5 0.5c-0.308-0.179-0.648-0.312-1-0.406v-0.688c0-0.2-0.147-0.375-0.344-0.375h-1.38zm-3.16 3.66c-0.0349 0.0988-0.0666 0.211-0.0938 0.312h-0.688c-0.2 0-0.375 0.147-0.375 0.344v1c0-0.197 0.175-0.344 0.375-0.344h0.688c0.0937-0.352 0.227-0.692 0.406-1l-0.312-0.312zm7.69 0-0.312 0.312c0.179 0.308 0.312 0.648 0.406 1h0.688c0.2 0 0.375 0.147 0.375 0.344v-1c0-0.197-0.175-0.344-0.375-0.344h-0.688c-0.0271-0.102-0.0589-0.214-0.0938-0.312zm-5.28 1.84c-0.0536 0.155-0.0625 0.327-0.0625 0.5 0 0.834 0.666 1.5 1.5 1.5s1.5-0.666 1.5-1.5c0-0.173-0.0089-0.345-0.0625-0.5-0.205 0.592-0.776 1-1.44 1s-1.23-0.408-1.44-1zm-2.41 1.84-0.188 0.188c-0.142 0.142-0.139 0.361 0 0.5l0.25 0.25 0.25-0.25c-0.127-0.219-0.227-0.445-0.312-0.688zm7.69 0c-0.0857 0.243-0.185 0.469-0.312 0.688l0.25 0.25 0.25-0.25c0.139-0.139 0.142-0.358 0-0.5l-0.188-0.188z" display="block" opacity=".2"/>
 <path d="m4.22 6.72-0.25 0.25c-0.139 0.139-0.142 0.358 0 0.5l0.188 0.188c0.0857-0.243 0.185-0.469 0.312-0.688l-0.25-0.25zm7.56 0-0.25 0.25c0.127 0.219 0.227 0.445 0.312 0.688l0.188-0.188c0.142-0.142 0.139-0.361 0-0.5l-0.25-0.25zm-3.78 0.781c-0.834 0-1.5 0.666-1.5 1.5 0 0.173 0.0089 0.345 0.0625 0.5 0.205-0.592 0.776-1 1.44-1s1.23 0.408 1.44 1c0.0536-0.155 0.0625-0.327 0.0625-0.5 0-0.834-0.666-1.5-1.5-1.5zm-5 2.19v1c0 0.197 0.175 0.344 0.375 0.344h0.688c0.0271 0.102 0.0589 0.214 0.0938 0.312l0.312-0.312c-0.179-0.308-0.312-0.648-0.406-1h-0.688c-0.2 0-0.375-0.147-0.375-0.344zm10 0c0 0.197-0.175 0.344-0.375 0.344h-0.688c-0.0937 0.352-0.227 0.692-0.406 1l0.312 0.312c0.0349-0.0988 0.0666-0.211 0.0938-0.312h0.688c0.2 0 0.375-0.147 0.375-0.344v-1zm-8.78 2.59-0.25 0.25c-0.142 0.142-0.139 0.361 0 0.5l1 1c0.0696 0.0696 0.158 0.0945 0.25 0.0938 0.0916-7.76e-4 0.179-0.023 0.25-0.0938l0.5-0.5c0.308 0.179 0.648 0.312 1 0.406v0.688c0 0.2 0.147 0.375 0.344 0.375h1.38c0.197 0 0.344-0.175 0.344-0.375v-0.688c0.352-0.0937 0.692-0.227 1-0.406l0.5 0.5c0.142 0.142 0.361 0.139 0.5 0l1-1c0.139-0.139 0.142-0.358 0-0.5l-0.25-0.25-0.75 0.75c-0.139 0.139-0.358 0.142-0.5 0l-0.5-0.5c-0.308 0.179-0.648 0.312-1 0.406v0.688c0 0.2-0.147 0.375-0.344 0.375h-1.38c-0.197 0-0.344-0.175-0.344-0.375v-0.688c-0.352-0.0938-0.692-0.227-1-0.406l-0.5 0.5c-0.0708 0.0708-0.158 0.093-0.25 0.0938-0.0916 7.73e-4 -0.18-0.0242-0.25-0.0938l-0.75-0.75z" display="block" fill="#fff" opacity=".15"/>
</svg>
