<?xml version="1.0" encoding="UTF-8"?>
<svg id="svg36" width="16" height="16" version="1.1" xmlns="http://www.w3.org/2000/svg" xmlns:cc="http://creativecommons.org/ns#" xmlns:dc="http://purl.org/dc/elements/1.1/" xmlns:rdf="http://www.w3.org/1999/02/22-rdf-syntax-ns#">
 <metadata id="metadata40">
  <rdf:RDF>
   <cc:Work rdf:about="">
    <dc:format>image/svg+xml</dc:format>
    <dc:type rdf:resource="http://purl.org/dc/dcmitype/StillImage"/>
   </cc:Work>
  </rdf:RDF>
 </metadata>
 <defs id="defs7">
  <radialGradient id="gr0" cx="9" cy="10" r="11" gradientTransform="matrix(1 0 0 .72727 0 2.7273)" gradientUnits="userSpaceOnUse">
   <stop id="stop2" stop-opacity=".23529" offset="0"/>
   <stop id="stop4" stop-opacity=".54902" offset="1"/>
  </radialGradient>
 </defs>
 <path id="path9" d="m2.5 0c-1.368 0-2.5 1.132-2.5 2.5v11c0 1.37 1.132 2.5 2.5 2.5h11c1.37 0 2.5-1.13 2.5-2.5v-11c0-1.368-1.13-2.5-2.5-2.5h-11zm0 1h11c0.83 0 1.5 0.669 1.5 1.5v11c0 0.83-0.67 1.5-1.5 1.5h-11c-0.831 0-1.5-0.67-1.5-1.5v-11c0-0.831 0.669-1.5 1.5-1.5zm1 2c-0.277 0-0.5 0.223-0.5 0.5v9c0 0.28 0.223 0.5 0.5 0.5h9c0.28 0 0.5-0.22 0.5-0.5v-9c0-0.277-0.22-0.5-0.5-0.5h-9zm0.5 1h6.5a1 1 0 0 0-0.13 0.01c-0.14 0-0.28-1e-3 -0.415 0.029-0.09 0.01-0.171 0.03-0.285 0.07-0.09 0.03-0.282 0.125-0.498 0.381a1 1 0 0 0-0.727-0.314h-0.515c-0.174 0-0.334-1e-3 -0.487 0.019-0.08 0-0.149 0.021-0.25 0.041-0.05 0.01-0.106 0.031-0.201 0.071-0.08 0.04-0.245 0.113-0.43 0.379-0.07-0.07-0.09-0.162-0.175-0.204-0.507-0.259-0.646-0.142-0.893-0.142h-0.494a1 1 0 0 0-1 1.027 1 1 0 0 0 0.01 0.143l0.051 0.316c0.04 0.227 0.221 1.208 0.421 2.279 0.2 1.068 0.398 2.175 0.411 2.265 0.02 0.12 0.04 0.24 0.07 0.36 0.03 0.11-0.03 0.11 0.174 0.45 0.288 0.46 0.423 0.39 0.523 0.43 0.1 0.1 0.179 0.1 0.26 0.1 0.16 0 0.326 0.1 0.508 0.1l0.504 0.1a1 1 0 0 0 0.927-0.41c0.04 0.1 0.03 0.1 0.08 0.15 0.237 0.25 0.608 0.34 0.692 0.35 0.276 0.1 0.552 0.1 0.805 0.1h0.376c0.071 0 0.137 0 0.278-0.1 0.1 0 0.16-0.1 0.3-0.17 0.14-0.11 0.39-0.39 0.39-0.79v-0.02l0.12-0.6c0.1-0.499 0.24-1.167 0.38-1.848 0.28-1.363 0.59-2.829 0.64-3.049v6.587h-2.555-5.443v-6.631l0.078-1.479zm7.04 0h0.96v0.934c-0.1-0.314-0.43-0.743-0.68-0.838-0.11-0.048-0.2-0.076-0.28-0.096zm-0.54 1v0.037c0.49 0 0.49 0.01 0.49 0.192-0.13 0.553-1.205 5.761-1.205 5.761-1e-3 0.1-0.601 0.1-0.992 0-0.207-0.03-0.22-0.07-0.57-1.894-0.196-1.024-0.384-1.833-0.414-1.793-0.031 0.036-0.159 0.599-0.282 1.252-0.123 0.652-0.275 1.444-0.345 1.765l-0.127 0.58-0.506-0.1c-0.279-0.03-0.533-0.15-0.563-0.15-0.023-0.05-0.071-0.24-0.101-0.43-0.029-0.19-0.216-1.229-0.416-2.3-0.2-1.072-0.388-2.091-0.418-2.266l-0.051-0.318h0.494c0.489 0 0.489 1e-3 0.539 0.275 0.025 0.152 0.149 0.972 0.274 1.823 0.124 0.85 0.253 1.522 0.283 1.482 0.031-0.035 0.213-0.864 0.404-1.842s0.363-1.804 0.383-1.844c0.02-0.03 0.269-0.06 0.553-0.06h0.515l0.354 1.926c0.194 1.059 0.361 1.939 0.381 1.959 0.046 0.051 0.107-0.279 0.4-2.123 0.153-0.964 0.302-1.792 0.332-1.842s0.298-0.09 0.588-0.09z" fill="#fff" opacity=".05"/>
 <path id="base" d="m2.5 1c-0.831 0-1.5 0.669-1.5 1.5v11c0 0.831 0.669 1.5 1.5 1.5h11c0.831 0 1.5-0.669 1.5-1.5v-11c0-0.831-0.669-1.5-1.5-1.5h-11zm1 2h9c0.277 0 0.5 0.223 0.5 0.5v9c0 0.277-0.223 0.5-0.5 0.5h-9c-0.277 0-0.5-0.223-0.5-0.5v-9c0-0.277 0.223-0.5 0.5-0.5zm6.998 2c-0.29241 0-0.55636 0.040599-0.58594 0.089844-0.02958 0.0493-0.17909 0.8778-0.33203 1.8418-0.29266 1.8446-0.35395 2.1739-0.40039 2.123-0.01568-0.0172-0.18693-0.89918-0.38086-1.959l-0.35352-1.9258h-0.51562c-0.28343 0-0.53228 0.02756-0.55273 0.0625-0.02044 0.035-0.19195 0.86544-0.38281 1.8438-0.19087 0.97832-0.37318 1.807-0.4043 1.8418s-0.15844-0.63236-0.2832-1.4824c-0.12477-0.85009-0.24819-1.6709-0.27344-1.8223-0.04582-0.27474-0.046252-0.27539-0.53906-0.27539h-0.49414l0.054688 0.31836c0.02986 0.1747 0.21798 1.1941 0.41797 2.2656 0.2 1.0715 0.38709 2.1053 0.41602 2.2969s0.076299 0.38618 0.10547 0.43359c0.02915 0.047411 0.28021 0.11356 0.55859 0.14648l0.50586 0.060547 0.12695-0.58008c0.06909-0.3185 0.22664-1.1115 0.34961-1.7637 0.12298-0.65226 0.2481-1.2155 0.2793-1.252s0.2176 0.77082 0.41406 1.7949c0.3492 1.8203 0.36105 1.8634 0.56836 1.8965 0.39118 0.06248 0.99556 0.060174 0.99609-0.003906 5.999e-4 -0.0541 1.0681-5.2072 1.1934-5.7598 0.0414-0.18256 0.020989-0.19141-0.48828-0.19141z" fill="url(#gr0)"/>
 <path id="path17" d="m2.5 1c-0.831 0-1.5 0.669-1.5 1.5v11c0 0.83 0.669 1.5 1.5 1.5h11c0.83 0 1.5-0.67 1.5-1.5v-11c0-0.831-0.67-1.5-1.5-1.5h-11zm0 0.5h11c0.56 0 1 0.437 1 1v11c0 0.56-0.44 1-1 1h-11c-0.563 0-1-0.44-1-1v-11c0-0.563 0.437-1 1-1zm1 1c-0.545 0-1 0.455-1 1v9c0 0.55 0.455 1 1 1h9c0.55 0 1-0.45 1-1v-9c0-0.545-0.45-1-1-1h-9zm0 0.5h9c0.28 0 0.5 0.223 0.5 0.5v9c0 0.28-0.22 0.5-0.5 0.5h-9c-0.277 0-0.5-0.22-0.5-0.5v-9c0-0.277 0.223-0.5 0.5-0.5zm7 2c-0.29 0-0.558 0.04-0.588 0.09s-0.179 0.878-0.332 1.842c-0.293 1.844-0.354 2.174-0.4 2.123-0.02-0.02-0.187-0.9-0.381-1.959l-0.354-1.926h-0.515c-0.284 0-0.533 0.03-0.553 0.06-0.02 0.04-0.192 0.866-0.383 1.844s-0.373 1.807-0.404 1.842c-0.03 0.04-0.159-0.632-0.283-1.482-0.125-0.851-0.249-1.671-0.274-1.823-0.05-0.274-0.05-0.275-0.539-0.275h-0.494l0.051 0.318c0.03 0.175 0.218 1.194 0.418 2.266 0.2 1.071 0.387 2.11 0.416 2.3 0.03 0.19 0.078 0.38 0.101 0.43 0.03 0 0.284 0.12 0.563 0.15l0.506 0.1 0.127-0.58c0.07-0.321 0.222-1.113 0.345-1.765 0.123-0.653 0.251-1.216 0.282-1.252 0.03-0.04 0.218 0.769 0.414 1.793 0.35 1.824 0.363 1.864 0.57 1.894 0.391 0.1 0.991 0.1 0.992 0 0 0 1.075-5.208 1.205-5.761 0-0.182 0-0.192-0.49-0.192v-0.037zm-0.1 0.5 0.01 6e-3h-0.01c-0.06 0.265-0.18 0.844-0.29 1.383-0.01 0.04-0.01 0.075-0.02 0.115 0 0.227 0 0.256-0.1 0.439 0.05-0.238 0.07-0.338 0.12-0.554 0.07-0.433 0.11-0.838 0.2-1.139v-0.244h0.09v-6e-3zm-2.375 0.156 0.26 1.416c-0.01-0.029-0.02-0.049-0.07-0.119-0.01-0.02-0.031-0.038-0.061-0.068-0.01-0.02-0.058-0.051-0.058-0.051l-0.102-0.051-0.142-0.029c-1e-3 0-0.174 0.019-0.174 0.019-1e-3 0-0.097 0.051-0.127 0.061 0.067-0.343 0.135-0.693 0.185-0.939 0.02-0.094 0.041-0.155 0.051-0.225h0.143l0.095-0.014zm-1.798 3.563c0.02 0.03 0.058 0.058 0.058 0.058 1e-3 0 0.192 0.09 0.192 0.09l0.291-0.019s0.049-0.031 0.099-0.071c-0.061 0.309-0.14 0.704-0.17 0.853l-0.029 0.14h-0.061-0.205c-0.01-0.03-0.019-0.13-0.019-0.13-0.014-0.09-0.11-0.605-0.16-0.88l4e-3 -0.041zm3.388 0.088c-0.043 0.222-0.098 0.487-0.136 0.672-0.04 0.201-0.07 0.351-0.1 0.491h-0.344c-0.04-0.14-0.133-0.608-0.223-1.085 0.029 0.033 0.071 0.061 0.131 0.101 0.036 0.02 0.118 0.051 0.118 0.051s0.137 0.02 0.138 0.02 0.141-0.02 0.141-0.02c1e-3 0 0.079-0.031 0.109-0.051 0.057-0.037 0.097-0.075 0.127-0.105 0.037-0.047 0.025-0.05 0.039-0.074z" opacity=".3"/>
 <path id="path24" d="m3.5 3c-0.277 0-0.5 0.223-0.5 0.5v1c0-0.277 0.223-0.5 0.5-0.5h9c0.28 0 0.5 0.223 0.5 0.5v-1c0-0.277-0.22-0.5-0.5-0.5h-9zm7.32 3.057c-0.31 1.445-1.035 4.933-1.035 4.933-1e-3 0.1-0.601 0.1-0.992 0-0.207-0.03-0.22-0.07-0.57-1.894-0.196-1.024-0.384-1.833-0.414-1.793-0.031 0.036-0.159 0.599-0.282 1.252-0.123 0.652-0.275 1.444-0.345 1.765l-0.127 0.58-0.506-0.1c-0.279-0.03-0.533-0.15-0.563-0.15-0.023-0.05-0.071-0.24-0.101-0.43-0.029-0.19-0.216-1.229-0.416-2.3-0.14-0.75-0.215-1.157-0.293-1.584h-0.176l0.051 0.318c0.03 0.175 0.218 1.194 0.418 2.266 0.2 1.071 0.387 2.11 0.416 2.3 0.03 0.19 0.078 0.38 0.101 0.43 0.03 0 0.284 0.12 0.563 0.15l0.506 0.1 0.127-0.58c0.07-0.32 0.222-1.11 0.345-1.765 0.123-0.653 0.251-1.216 0.282-1.252 0.03-0.04 0.218 0.769 0.414 1.797 0.35 1.82 0.363 1.86 0.57 1.89 0.391 0.1 0.991 0.1 0.992 0 0 0 1.075-5.208 1.205-5.761 0-0.115-0.05-0.154-0.17-0.172zm-9.82 7.443v1c0 0.83 0.669 1.5 1.5 1.5h11c0.83 0 1.5-0.67 1.5-1.5v-1c0 0.83-0.67 1.5-1.5 1.5h-11c-0.831 0-1.5-0.67-1.5-1.5z" fill="#fff" opacity=".2"/>
 <path id="path31" d="m2.5 1c-0.831 0-1.5 0.669-1.5 1.5v1c0-0.831 0.669-1.5 1.5-1.5h11c0.83 0 1.5 0.669 1.5 1.5v-1c0-0.831-0.67-1.5-1.5-1.5h-11zm8 4c-0.29 0-0.558 0.04-0.588 0.09s-0.179 0.878-0.332 1.842c-0.293 1.844-0.354 2.174-0.4 2.123-0.02-0.02-0.187-0.9-0.381-1.959l-0.354-1.926h-0.515c-0.284 0-0.533 0.03-0.553 0.06-0.02 0.04-0.192 0.866-0.383 1.844s-0.373 1.807-0.404 1.842c-0.03 0.04-0.159-0.632-0.283-1.482-0.125-0.851-0.249-1.671-0.274-1.823-0.05-0.274-0.05-0.275-0.539-0.275h-0.494l0.051 0.318c9e-3 0.053 0.091 0.498 0.125 0.682h0.318c0.489 0 0.489 1e-3 0.539 0.275 0.025 0.152 0.149 0.972 0.274 1.823 0.124 0.85 0.253 1.522 0.283 1.482 0.031-0.035 0.213-0.864 0.404-1.842s0.363-1.804 0.383-1.844c0.02-0.03 0.269-0.06 0.553-0.06h0.515l0.354 1.926c0.194 1.059 0.361 1.964 0.381 1.964 0.046 0.05 0.107-0.284 0.4-2.128 0.153-0.964 0.302-1.792 0.332-1.842s0.298-0.09 0.588-0.09v0.037c0.18 0 0.24 9e-3 0.32 0.02 0.05-0.243 0.15-0.749 0.17-0.828 0-0.182 0-0.192-0.49-0.192v-0.037zm-7.5 7.5v1c0 0.28 0.223 0.5 0.5 0.5h9c0.28 0 0.5-0.22 0.5-0.5v-1c0 0.28-0.22 0.5-0.5 0.5h-9c-0.277 0-0.5-0.22-0.5-0.5z" opacity=".3"/>
</svg>
