<?xml version="1.0" encoding="UTF-8"?>
<svg id="svg36" width="16" height="16" version="1.1" xmlns="http://www.w3.org/2000/svg" xmlns:cc="http://creativecommons.org/ns#" xmlns:dc="http://purl.org/dc/elements/1.1/" xmlns:rdf="http://www.w3.org/1999/02/22-rdf-syntax-ns#">
 <metadata id="metadata40">
  <rdf:RDF>
   <cc:Work rdf:about="">
    <dc:format>image/svg+xml</dc:format>
    <dc:type rdf:resource="http://purl.org/dc/dcmitype/StillImage"/>
   </cc:Work>
  </rdf:RDF>
 </metadata>
 <defs id="defs7">
  <radialGradient id="gr0" cx="9" cy="10" r="11" gradientTransform="matrix(1 0 0 .63636 0 3.6364)" gradientUnits="userSpaceOnUse">
   <stop id="stop2" stop-opacity=".23529" offset="0"/>
   <stop id="stop4" stop-opacity=".54902" offset="1"/>
  </radialGradient>
 </defs>
 <path id="path9" d="m5 1a1 1 0 0 0-1 1v6c-1.004 0-2.009 0.337-2.762 0.965-0.7523 0.627-1.238 1.565-1.238 2.535s0.4857 1.91 1.238 2.54c0.753 0.62 1.758 0.96 2.762 0.96s2.009-0.34 2.762-0.96c0.753-0.63 1.238-1.57 1.238-2.54v-6.5h4v3c-1 0-2.009 0.337-2.762 0.965-0.753 0.627-1.238 1.565-1.238 2.535s0.485 1.91 1.238 2.54c0.753 0.62 1.762 0.96 2.762 0.96s2.01-0.34 2.76-0.96c0.75-0.63 1.24-1.57 1.24-2.54v-9.5a1 1 0 0 0-1-1h-8-2zm0 1h2 8v9.5a3 2.5 0 0 1-3 2.5 3 2.5 0 0 1-3-2.5 3 2.5 0 0 1 3-2.5 3 2.5 0 0 1 1 0.146v-5.146h-6v7.5a3 2.5 0 0 1-3 2.5 3 2.5 0 0 1-3-2.5 3 2.5 0 0 1 3-2.5 3 2.5 0 0 1 1 0.146v-7.146z" fill="#fff" opacity=".05"/>
 <path id="base" d="m5 2v7.1465a3 2.5 0 0 0-1-0.14648 3 2.5 0 0 0-3 2.5 3 2.5 0 0 0 3 2.5 3 2.5 0 0 0 3-2.5v-7.5h6v5.1465a3 2.5 0 0 0-1-0.14648 3 2.5 0 0 0-3 2.5 3 2.5 0 0 0 3 2.5 3 2.5 0 0 0 3-2.5v-9.5h-8z" fill="url(#gr0)"/>
 <path id="path17" d="m5 2v7.146a3 2.5 0 0 0-1-0.146 3 2.5 0 0 0-3 2.5 3 2.5 0 0 0 3 2.5 3 2.5 0 0 0 3-2.5v-7.5h6v5.146a3 2.5 0 0 0-1-0.146 3 2.5 0 0 0-3 2.5 3 2.5 0 0 0 3 2.5 3 2.5 0 0 0 3-2.5v-9.5h-8-2zm0.5 0.5h1.502 7.498v9c0 0.5-0.24 1-0.7 1.38s-1.12 0.62-1.8 0.62-1.34-0.24-1.8-0.62c-0.457-0.38-0.698-0.88-0.698-1.38s0.241-1 0.698-1.38c0.46-0.385 1.12-0.62 1.8-0.62 0.29 1e-3 0.58 0.045 0.86 0.125a0.5 0.5 0 0 0 0.64-0.479v-5.146a0.5 0.5 0 0 0-0.5-0.5h-5.998a0.5 0.5 0 0 0-0.5 0.5v7.5c0 0.5-0.243 1-0.699 1.38-0.457 0.38-1.125 0.62-1.801 0.62s-1.344-0.24-1.801-0.62c-0.456-0.38-0.699-0.88-0.699-1.38s0.243-1 0.699-1.38c0.456-0.385 1.123-0.62 1.799-0.62 0.292 1e-3 0.585 0.045 0.857 0.125a0.5 0.5 0 0 0 0.643-0.479v-6.646z" opacity=".3"/>
 <path id="path24" d="m7 4v1h6v-1h-6zm0 7.5a3 2.5 0 0 1-3 2.5 3 2.5 0 0 1-2.938-2 3 2.5 0 0 0-0.062 0.5 3 2.5 0 0 0 3 2.5 3 2.5 0 0 0 3-2.5v-1zm8 0a3 2.5 0 0 1-3 2.5 3 2.5 0 0 1-2.938-2 3 2.5 0 0 0-0.062 0.5 3 2.5 0 0 0 3 2.5 3 2.5 0 0 0 3-2.5v-1z" fill="#fff" opacity=".2"/>
 <path id="path31" d="m5 2v1h2 8v-1h-8-2zm-1 7a3 2.5 0 0 0-3 2.5 3 2.5 0 0 0 0.062 0.5 3 2.5 0 0 1 2.938-2 3 2.5 0 0 1 1 0.15v-1.004a3 2.5 0 0 0-1-0.146zm8 0a3 2.5 0 0 0-3 2.5 3 2.5 0 0 0 0.062 0.5 3 2.5 0 0 1 2.938-2 3 2.5 0 0 1 1 0.15v-1.004a3 2.5 0 0 0-1-0.146z" opacity=".3"/>
</svg>
