<?xml version="1.0" encoding="UTF-8"?>
<svg id="svg36" width="16" height="16" version="1.1" xmlns="http://www.w3.org/2000/svg" xmlns:cc="http://creativecommons.org/ns#" xmlns:dc="http://purl.org/dc/elements/1.1/" xmlns:rdf="http://www.w3.org/1999/02/22-rdf-syntax-ns#">
 <metadata id="metadata40">
  <rdf:RDF>
   <cc:Work rdf:about="">
    <dc:format>image/svg+xml</dc:format>
    <dc:type rdf:resource="http://purl.org/dc/dcmitype/StillImage"/>
   </cc:Work>
  </rdf:RDF>
 </metadata>
 <defs id="defs7">
  <radialGradient id="gr0" cx="9" cy="10" r="11" gradientTransform="matrix(1 0 0 .72727 0 2.7273)" gradientUnits="userSpaceOnUse">
   <stop id="stop2" stop-opacity=".23529" offset="0"/>
   <stop id="stop4" stop-opacity=".54902" offset="1"/>
  </radialGradient>
 </defs>
 <path id="path9" d="m2.5 0c-1.368 0-2.5 1.132-2.5 2.5v11c0 1.37 1.132 2.5 2.5 2.5h11c1.37 0 2.5-1.13 2.5-2.5v-11c0-1.368-1.13-2.5-2.5-2.5h-11zm0 1h11c0.83 0 1.5 0.669 1.5 1.5v11c0 0.83-0.67 1.5-1.5 1.5h-11c-0.831 0-1.5-0.67-1.5-1.5v-11c0-0.831 0.669-1.5 1.5-1.5zm1 2c-0.277 0-0.5 0.223-0.5 0.5v9c0 0.28 0.223 0.5 0.5 0.5h9c0.28 0 0.5-0.22 0.5-0.5v-9c0-0.277-0.22-0.5-0.5-0.5h-9zm0.5 1h3.838l-3.813 6.43h-0.031l6e-3 -6.43zm5 0h1.01l1.21 7.43h0.78v0.57h-3v-0.57h0.971l-0.328-1.756h-3.291l-1.012 1.756h0.805v0.57h-2.25v-0.57h0.701l4.404-7.43zm2.01 0h0.99v6.07l-0.99-6.07zm-2.01 1.297-2.254 3.703h2.783l-0.529-3.703zm-2.07 5.373h1.418a1 1 0 0 0-0.348 0.76v0.57h-0.855v-0.57a1 1 0 0 0-0.264-0.67l0.049-0.09z" fill="#fff" opacity=".05"/>
 <path id="base" d="m2.5 1c-0.831 0-1.5 0.669-1.5 1.5v11c0 0.831 0.669 1.5 1.5 1.5h11c0.831 0 1.5-0.669 1.5-1.5v-11c0-0.831-0.669-1.5-1.5-1.5zm1 2h9c0.277 0 0.5 0.223 0.5 0.5v9c0 0.277-0.223 0.5-0.5 0.5h-9c-0.277 0-0.5-0.223-0.5-0.5v-9c0-0.277 0.223-0.5 0.5-0.5zm5.5 1-4.4043 7.4316h-0.70117v0.56836h2.25v-0.56836h-0.80469l1.0117-1.7578h3.291l0.32812 1.7578h-0.9707v0.56836h3l-0.0098-0.56836h-0.78317l-1.207-7.4316zm0 1.2969 0.5293 3.7031h-2.7832z" fill="url(#gr0)"/>
 <path id="path17" d="m2.5 1c-0.831 0-1.5 0.669-1.5 1.5v11c0 0.83 0.669 1.5 1.5 1.5h11c0.83 0 1.5-0.67 1.5-1.5v-11c0-0.831-0.67-1.5-1.5-1.5h-11zm0 0.5h11c0.56 0 1 0.437 1 1v11c0 0.56-0.44 1-1 1h-11c-0.563 0-1-0.44-1-1v-11c0-0.563 0.437-1 1-1zm1 1c-0.545 0-1 0.455-1 1v9c0 0.55 0.455 1 1 1h9c0.55 0 1-0.45 1-1v-9c0-0.545-0.45-1-1-1h-9zm0 0.5h9c0.28 0 0.5 0.223 0.5 0.5v9c0 0.28-0.22 0.5-0.5 0.5h-9c-0.277 0-0.5-0.22-0.5-0.5v-9c0-0.277 0.223-0.5 0.5-0.5zm5.5 1-4.404 7.43h-0.701v0.57h2.25v-0.57h-0.805l1.012-1.756h3.291l0.328 1.756h-0.971v0.57h3v-0.57h-0.78l-1.21-7.43h-1.01zm0.285 0.5h0.293l1.142 7h-0.25a0.5 0.5 0 0 0 0-0.16l-0.33-1.758a0.5 0.5 0 0 0-0.191-0.305 0.5 0.5 0 0 0 0.071-0.347l-0.526-3.703a0.5 0.5 0 0 0-0.392-0.418l0.183-0.309zm-0.285 0.797 0.529 3.703h-2.783l2.254-3.703z" opacity=".3"/>
 <path id="path24" d="m3.5 3c-0.277 0-0.5 0.223-0.5 0.5v1c0-0.277 0.223-0.5 0.5-0.5h5.5 1.01 2.49c0.28 0 0.5 0.223 0.5 0.5v-1c0-0.277-0.22-0.5-0.5-0.5h-9zm5.5 2.297-2.254 3.703h0.609l1.645-2.703 0.387 2.703h0.142l-0.529-3.703zm-2.648 4.377-1.012 1.756h0.574l0.438-0.76h3.291l0.142 0.76h0.186l-0.328-1.756h-0.161l0.047 0.326h-2.783l0.199-0.326h-0.593zm-1.502 2.326-0.254 0.43h-0.701v0.57h2.25v-0.57h-0.805l0.246-0.43h-0.736zm5.041 0 0.08 0.43h-0.971v0.57h3v-0.57h-0.78l-0.07-0.43h-1.259zm-8.891 1.5v1c0 0.83 0.669 1.5 1.5 1.5h11c0.83 0 1.5-0.67 1.5-1.5v-1c0 0.83-0.67 1.5-1.5 1.5h-11c-0.831 0-1.5-0.67-1.5-1.5z" fill="#fff" opacity=".2"/>
 <path id="path31" d="m2.5 1c-0.831 0-1.5 0.669-1.5 1.5v1c0-0.831 0.669-1.5 1.5-1.5h11c0.83 0 1.5 0.669 1.5 1.5v-1c0-0.831-0.67-1.5-1.5-1.5h-11zm6.5 3-4.404 7.43h-0.701v0.57h0.955l4.15-7h1.01l1.14 7h0.85v-0.57h-0.78l-1.21-7.43h-1.01zm-1.645 5-0.41 0.674h2.537l-0.095-0.674h-2.032zm-1.441 2.43-0.328 0.57h0.559v-0.57h-0.231zm3.086 0v0.57h0.891l-0.106-0.57h-0.785zm-6 1.07v1c0 0.28 0.223 0.5 0.5 0.5h9c0.28 0 0.5-0.22 0.5-0.5v-1c0 0.28-0.22 0.5-0.5 0.5h-0.5-3-2.855-2.25-0.395c-0.277 0-0.5-0.22-0.5-0.5z" opacity=".3"/>
</svg>
