<?xml version="1.0" encoding="UTF-8"?>
<svg id="svg36" width="16" height="16" version="1.1" xmlns="http://www.w3.org/2000/svg" xmlns:cc="http://creativecommons.org/ns#" xmlns:dc="http://purl.org/dc/elements/1.1/" xmlns:rdf="http://www.w3.org/1999/02/22-rdf-syntax-ns#">
 <metadata id="metadata40">
  <rdf:RDF>
   <cc:Work rdf:about="">
    <dc:format>image/svg+xml</dc:format>
    <dc:type rdf:resource="http://purl.org/dc/dcmitype/StillImage"/>
   </cc:Work>
  </rdf:RDF>
 </metadata>
 <defs id="defs7">
  <radialGradient id="gr0" cx="9" cy="10" r="11" gradientTransform="matrix(1 0 0 .72727 0 2.7273)" gradientUnits="userSpaceOnUse">
   <stop id="stop2" stop-opacity=".23529" offset="0"/>
   <stop id="stop4" stop-opacity=".54902" offset="1"/>
  </radialGradient>
 </defs>
 <path id="path9" d="m2.5 0c-1.368 0-2.5 1.132-2.5 2.5v11c0 1.37 1.132 2.5 2.5 2.5h11c1.37 0 2.5-1.13 2.5-2.5v-11c0-1.368-1.13-2.5-2.5-2.5h-11zm0 1h11c0.83 0 1.5 0.669 1.5 1.5v11c0 0.83-0.67 1.5-1.5 1.5h-11c-0.831 0-1.5-0.67-1.5-1.5v-11c0-0.831 0.669-1.5 1.5-1.5zm1 2c-0.277 0-0.5 0.223-0.5 0.5v9c0 0.28 0.223 0.5 0.5 0.5h9c0.28 0 0.5-0.22 0.5-0.5v-9c0-0.277-0.22-0.5-0.5-0.5h-9zm0.5 1h5.26c-0.799 0-1.536 0.202-2.135 0.658a1 1 0 0 0-0.937-0.654h-1.327a1 1 0 0 0-0.861 0.494v-0.498zm5.334 0h2.666v0.584a1 1 0 0 0-0.46-0.266c-0.39-0.104-0.78-0.185-1.16-0.238-0.33-0.05-0.642-0.06-0.956-0.07a1 1 0 0 0-0.09-0.01zm-4.473 0.998h1.327v5.062c-2e-3 0.74-0.205 1.3-0.61 1.67-0.402 0.36-1.01 0.55-1.828 0.55h-0.316v-1.17h0.242c0.781 0.07 1.115-0.29 1.185-1.05v-5.062zm4.405 0v2e-3c0.317 0 0.64 0.02 0.974 0.07 0.34 0.047 0.69 0.125 1.05 0.215v1.227c-0.32-0.142-0.63-0.253-0.93-0.323-0.3-0.073-0.591-0.113-0.86-0.113-0.356 0-0.62 0.047-0.791 0.147-0.174 0.098-0.254 0.256-0.254 0.463 0 0.155 0.052 0.271 0.166 0.361 0.116 0.085 0.329 0.161 0.631 0.221l0.637 0.127c0.641 0.129 1.101 0.326 1.371 0.589 0.27 0.264 0.4 0.64 0.4 1.125 0 0.638-0.19 1.111-0.57 1.431-0.37 0.31-0.95 0.46-1.725 0.46-0.367 0-0.736-0.01-1.105-0.11-0.37-0.07-0.736-0.17-1.106-0.31v-1.256c0.37 0.197 0.723 0.349 1.067 0.449 0.346 0.097 0.677 0.147 0.998 0.147 0.325 0 0.577-0.058 0.75-0.166 0.161-0.109 0.261-0.261 0.261-0.463 0-0.181-0.06-0.322-0.18-0.422-0.115-0.098-0.347-0.182-0.698-0.262l-0.582-0.127c-0.578-0.124-0.997-0.318-1.266-0.589-0.266-0.272-0.402-0.638-0.402-1.098 0-0.576 0.184-1.024 0.556-1.334s0.91-0.461 1.608-0.461zm2.734 5.932v1.07h-2.635-2.801c0.106-0.15 0.231-0.29 0.305-0.46 0.4 0.14 0.801 0.26 1.205 0.34 0.425 0.1 0.856 0.12 1.291 0.12 0.905 0 1.725-0.17 2.365-0.69 0.12-0.1 0.17-0.26 0.27-0.38z" fill="#fff" opacity=".05"/>
 <path id="base" d="m2.5 1c-0.831 0-1.5 0.669-1.5 1.5v11c0 0.831 0.669 1.5 1.5 1.5h11c0.831 0 1.5-0.669 1.5-1.5v-11c0-0.831-0.669-1.5-1.5-1.5h-11zm1 2h9c0.277 0 0.5 0.223 0.5 0.5v9c0 0.277-0.223 0.5-0.5 0.5h-9c-0.277 0-0.5-0.223-0.5-0.5v-9c0-0.277 0.223-0.5 0.5-0.5zm5.7656 1.998c-0.69745 5.8e-6 -1.2355 0.15097-1.6074 0.46094-0.37197 0.30998-0.55664 0.75795-0.55664 1.334 0 0.4598 0.13628 0.82643 0.40234 1.0977 0.26865 0.27123 0.687 0.46586 1.2656 0.58984l0.58203 0.12695c0.3513 0.077497 0.58102 0.16356 0.69727 0.26172 0.11882 0.098161 0.18164 0.24106 0.18164 0.42188-4e-6 0.20149-0.088655 0.3544-0.26172 0.46289-0.17307 0.10849-0.42453 0.16602-0.75 0.16602-0.32031 9e-7 -0.65191-0.048328-0.99805-0.14648-0.34356-0.10074-0.69702-0.2529-1.0664-0.44922v1.2598c0.36939 0.13691 0.73608 0.23885 1.1055 0.30859 0.36939 0.06975 0.73866 0.10742 1.1055 0.10742 0.77752 0 1.3514-0.15291 1.7285-0.46289 0.37972-0.31256 0.56835-0.7897 0.56836-1.4277-5e-6 -0.48563-0.12917-0.86152-0.40039-1.125-0.27124-0.26348-0.72985-0.46068-1.373-0.58984l-0.63672-0.12695c-0.30223-0.061992-0.51462-0.13546-0.63086-0.2207-0.11366-0.087822-0.16602-0.20634-0.16602-0.36133-2.2e-6 -0.20665 0.083417-0.36473 0.25391-0.46289 0.17048-0.098154 0.43454-0.14648 0.79102-0.14648 0.26864 5.1e-6 0.55519 0.040955 0.85742 0.11328 0.30222 0.072334 0.61196 0.1802 0.92969 0.32227v-1.2266c-0.35906-0.09557-0.70912-0.16834-1.0449-0.21484-0.33581-0.049073-0.65884-0.07226-0.97656-0.072266zm-4.4043 0.0058593v5.0645c-0.067677 0.75975-0.40464 1.119-1.1855 1.0508h-0.24219v1.166h0.31641c0.81832-2e-6 1.4256-0.18098 1.8281-0.54883 0.40516-0.36784 0.60937-0.92428 0.60938-1.668v-5.0645h-1.3262z" fill="url(#gr0)"/>
 <path id="path17" d="m2.5 1c-0.831 0-1.5 0.669-1.5 1.5v11c0 0.83 0.669 1.5 1.5 1.5h11c0.83 0 1.5-0.67 1.5-1.5v-11c0-0.831-0.67-1.5-1.5-1.5h-11zm0 0.5h11c0.56 0 1 0.437 1 1v11c0 0.56-0.44 1-1 1h-11c-0.563 0-1-0.44-1-1v-11c0-0.563 0.437-1 1-1zm1 1c-0.545 0-1 0.455-1 1v9c0 0.55 0.455 1 1 1h9c0.55 0 1-0.45 1-1v-9c0-0.545-0.45-1-1-1h-9zm0 0.5h9c0.28 0 0.5 0.223 0.5 0.5v9c0 0.28-0.22 0.5-0.5 0.5h-9c-0.277 0-0.5-0.22-0.5-0.5v-9c0-0.277 0.223-0.5 0.5-0.5zm1.361 1.998v5.062c-0.07 0.76-0.404 1.12-1.185 1.05h-0.242v1.17h0.316c0.818 0 1.426-0.19 1.828-0.55 0.405-0.37 0.608-0.93 0.61-1.67v-5.062h-1.327zm4.405 0c-0.698 0-1.236 0.151-1.608 0.461s-0.556 0.758-0.556 1.334c0 0.46 0.136 0.826 0.402 1.098 0.269 0.271 0.688 0.465 1.266 0.589l0.582 0.127c0.351 0.08 0.583 0.164 0.698 0.262 0.12 0.1 0.18 0.241 0.18 0.422 0 0.202-0.1 0.354-0.261 0.463-0.173 0.108-0.425 0.166-0.75 0.166-0.321 0-0.652-0.05-0.998-0.147-0.344-0.1-0.697-0.252-1.067-0.449v1.256c0.37 0.14 0.736 0.24 1.106 0.31 0.369 0.1 0.738 0.11 1.105 0.11 0.775 0 1.355-0.15 1.725-0.46 0.38-0.32 0.57-0.793 0.57-1.431 0-0.485-0.13-0.861-0.4-1.125-0.27-0.263-0.73-0.46-1.371-0.589l-0.637-0.127c-0.302-0.06-0.515-0.136-0.631-0.221-0.114-0.09-0.166-0.206-0.166-0.361 0-0.207 0.08-0.365 0.254-0.463 0.171-0.1 0.435-0.147 0.791-0.147 0.269 0 0.56 0.04 0.86 0.113 0.3 0.07 0.61 0.181 0.93 0.323v-1.227c-0.36-0.09-0.71-0.168-1.05-0.215-0.334-0.05-0.657-0.07-0.974-0.07v-2e-3zm-3.578 0.459v4.563c-1e-3 0.65-0.165 1.04-0.446 1.3-0.25 0.23-0.685 0.39-1.306 0.39v-0.16c0.356-0.02 0.693-0.1 0.941-0.33 0.319-0.29 0.444-0.71 0.484-1.16v-4.562l0.327-0.041zm3.578 0.041v2e-3c0.293 0 0.591 0.03 0.904 0.07 0.2 0.025 0.41 0.085 0.62 0.125v0.119c-0.11-0.028-0.21-0.087-0.32-0.107-0.33-0.077-0.651-0.127-0.97-0.127-0.402 0-0.739 0.039-1.041 0.213-0.311 0.179-0.504 0.554-0.504 0.896 0 0.267 0.134 0.583 0.361 0.758a0.5 0.5 0 0 0 0.01 0c0.24 0.176 0.493 0.239 0.826 0.309l0.637 0.127c0.591 0.119 0.971 0.305 1.121 0.459 0.15 0.153 0.25 0.368 0.25 0.765 0 0.54-0.13 0.836-0.38 1.043-0.25 0.2-0.7 0.35-1.417 0.35-0.332 0-0.67 0-1.011-0.1-0.233-0.04-0.465-0.09-0.698-0.19v-0.14c0.142 0.06 0.285 0.18 0.426 0.18 0.385 0.07 0.764 0.17 1.135 0.17 0.384 0 0.725-0.06 1.015-0.24 0.29-0.184 0.5-0.543 0.5-0.891 0-0.297-0.13-0.612-0.36-0.807-0.26-0.212-0.534-0.285-0.915-0.365l-0.582-0.127c-0.521-0.111-0.843-0.28-1.014-0.451-0.167-0.171-0.257-0.386-0.257-0.746 0-0.469 0.124-0.739 0.377-0.949 0.251-0.209 0.661-0.346 1.287-0.346z" opacity=".3"/>
 <path id="path24" d="m3.5 3c-0.277 0-0.5 0.223-0.5 0.5v1c0-0.277 0.223-0.5 0.5-0.5h9c0.28 0 0.5 0.223 0.5 0.5v-1c0-0.277-0.22-0.5-0.5-0.5h-9zm6 3.076c-0.356 0-0.62 0.047-0.791 0.147-0.174 0.098-0.254 0.256-0.254 0.463 0 0.155 0.052 0.271 0.166 0.361 0.059 0.043 0.143 0.084 0.25 0.121 0.163-0.056 0.361-0.092 0.629-0.092 0.269 0 0.56 0.04 0.86 0.113 0.3 0.07 0.61 0.181 0.93 0.323v-1c-0.32-0.142-0.63-0.253-0.93-0.323-0.3-0.073-0.591-0.113-0.86-0.113zm-2.332 1.201c-0.039 0.16-0.066 0.329-0.066 0.516 0 0.46 0.136 0.826 0.402 1.098 0.269 0.271 0.688 0.465 1.266 0.589l0.582 0.127c0.243 0.056 0.409 0.114 0.539 0.176 0.023-0.011 0.057-0.016 0.078-0.029 0.161-0.109 0.261-0.261 0.261-0.463 0-0.181-0.06-0.322-0.18-0.422-0.115-0.098-0.347-0.182-0.698-0.262l-0.582-0.127c-0.578-0.124-0.997-0.318-1.266-0.589-0.164-0.168-0.272-0.375-0.336-0.614zm4.432 2.36c-0.08 0.373-0.24 0.683-0.51 0.903-0.37 0.31-0.95 0.46-1.725 0.46-0.367 0-0.736-0.01-1.105-0.11-0.37-0.07-0.736-0.17-1.106-0.31v1c0.37 0.14 0.736 0.24 1.106 0.31 0.369 0.1 0.738 0.11 1.105 0.11 0.775 0 1.355-0.15 1.725-0.46 0.38-0.32 0.57-0.79 0.57-1.43 0-0.174-0.02-0.328-0.06-0.473zm-5.412 0.423c-2e-3 0.74-0.205 1.3-0.61 1.67-0.402 0.36-1.01 0.55-1.828 0.55h-0.316v0.71c0.022 0 0.042 0.01 0.066 0.01h1.662c0.155-0.08 0.297-0.16 0.416-0.27 0.405-0.37 0.608-0.93 0.61-1.67v-1zm-5.188 3.44v1c0 0.83 0.669 1.5 1.5 1.5h11c0.83 0 1.5-0.67 1.5-1.5v-1c0 0.83-0.67 1.5-1.5 1.5h-11c-0.831 0-1.5-0.67-1.5-1.5z" fill="#fff" opacity=".2"/>
 <path id="path31" d="m2.5 1c-0.831 0-1.5 0.669-1.5 1.5v1c0-0.831 0.669-1.5 1.5-1.5h11c0.83 0 1.5 0.669 1.5 1.5v-1c0-0.831-0.67-1.5-1.5-1.5h-11zm2.361 3.998v1h1.327v-1h-1.327zm4.405 0c-0.698 0-1.236 0.151-1.608 0.461s-0.556 0.758-0.556 1.334c0 0.177 0.026 0.335 0.066 0.484 0.081-0.332 0.239-0.609 0.49-0.818 0.372-0.31 0.91-0.461 1.608-0.461v2e-3c0.317 0 0.64 0.02 0.974 0.07 0.34 0.047 0.69 0.125 1.05 0.215v-1c-0.36-0.09-0.71-0.168-1.05-0.215-0.334-0.05-0.657-0.07-0.974-0.07v-2e-3zm-0.395 2.17c-0.054 0.018-0.12 0.03-0.162 0.055-0.174 0.098-0.254 0.256-0.254 0.463 0 0.155 0.052 0.271 0.166 0.361 0.116 0.085 0.329 0.161 0.631 0.221l0.637 0.127c0.641 0.129 1.101 0.326 1.371 0.589 0.17 0.17 0.28 0.391 0.34 0.653 0.04-0.163 0.06-0.335 0.06-0.528 0-0.485-0.13-0.861-0.4-1.125-0.27-0.263-0.73-0.46-1.371-0.589l-0.637-0.127c-0.149-0.03-0.276-0.063-0.381-0.1zm-1.717 2.156v0.996c0.37 0.2 0.723 0.35 1.067 0.45 0.346 0.05 0.677 0.15 0.998 0.15 0.325 0 0.577-0.06 0.75-0.17 0.161-0.1 0.261-0.26 0.261-0.46 0-0.18-0.06-0.321-0.18-0.421-0.04-0.03-0.102-0.058-0.159-0.086-0.169 0.084-0.387 0.137-0.672 0.137-0.321 0-0.652-0.05-0.998-0.147-0.344-0.1-0.697-0.252-1.067-0.449zm-2.293 0.736c-0.07 0.76-0.404 1.12-1.185 1.05h-0.242v1h0.242c0.781 0.07 1.115-0.29 1.185-1.05v-1zm-1.861 2.44v1c0 0.28 0.223 0.5 0.5 0.5h9c0.28 0 0.5-0.22 0.5-0.5v-1c0 0.28-0.22 0.5-0.5 0.5h-7.338c-0.369 0.18-0.836 0.28-1.412 0.28h-0.316v-0.29c-0.244-0.04-0.434-0.23-0.434-0.49z" opacity=".3"/>
</svg>
