<?xml version="1.0" encoding="UTF-8"?>
<svg id="svg36" width="16" height="16" version="1.1" xmlns="http://www.w3.org/2000/svg" xmlns:cc="http://creativecommons.org/ns#" xmlns:dc="http://purl.org/dc/elements/1.1/" xmlns:rdf="http://www.w3.org/1999/02/22-rdf-syntax-ns#">
 <metadata id="metadata40">
  <rdf:RDF>
   <cc:Work rdf:about="">
    <dc:format>image/svg+xml</dc:format>
    <dc:type rdf:resource="http://purl.org/dc/dcmitype/StillImage"/>
   </cc:Work>
  </rdf:RDF>
 </metadata>
 <defs id="defs7">
  <radialGradient id="gr0" cx="9" cy="10" r="11" gradientTransform="matrix(1 0 0 .63636 0 3.6364)" gradientUnits="userSpaceOnUse">
   <stop id="stop2" stop-opacity=".23529" offset="0"/>
   <stop id="stop4" stop-opacity=".54902" offset="1"/>
  </radialGradient>
 </defs>
 <path id="path9" d="m3 1c-1.091 0-2 0.909-2 2v10c0 1.09 0.909 2 2 2a1 1 0 0 0 0.5-0.13 1 1 0 0 0 0.5 0.13h1a1 1 0 0 0 1-1v-2h4v2a1 1 0 0 0 1 1h1a1 1 0 0 0 0.5-0.13 1 1 0 0 0 0.5 0.13c1.09 0 2-0.91 2-2v-10c0-1.091-0.91-2-2-2h-2a1 1 0 0 0-1 1v2h-4v-2a1 1 0 0 0-1-1h-2zm0 1h2v2.5c0 0.277 0.223 0.5 0.5 0.5h5c0.28 0 0.5-0.223 0.5-0.5v-2.5h2c0.55 0 1 0.446 1 1v10c0 0.55-0.45 1-1 1v-1h-1v1h-1v-2.5c0-0.28-0.22-0.5-0.5-0.5h-5c-0.277 0-0.5 0.22-0.5 0.5v2.5h-1v-1h-1v1c-0.554 0-1-0.45-1-1v-10c0-0.554 0.446-1 1-1zm0 1v1h1v-1h-1zm9 0v1h1v-1h-1zm-9 2v1h1v-1h-1zm9 0v1h1v-1h-1zm-6.5 1c-0.277 0-0.5 0.223-0.5 0.5v3c0 0.277 0.223 0.5 0.5 0.5h5c0.28 0 0.5-0.223 0.5-0.5v-3c0-0.277-0.22-0.5-0.5-0.5h-5zm-2.5 1v1h1v-1h-1zm3 0h4v2h-4v-2zm6 0v1h1v-1h-1zm-9 2v1h1v-1h-1zm9 0v1h1v-1h-1zm-9 2v1h1v-1h-1zm9 0v1h1v-1h-1z" fill="#fff" opacity=".05"/>
 <path id="base" d="m3 2c-0.554 0-1 0.446-1 1v10c0 0.554 0.446 1 1 1v-1h1v1h1v-2.5c0-0.277 0.223-0.5 0.5-0.5h5c0.277 0 0.5 0.223 0.5 0.5v2.5h1v-1h1v1c0.554 0 1-0.446 1-1v-10c0-0.554-0.446-1-1-1h-2v2.5c0 0.277-0.223 0.5-0.5 0.5h-5c-0.277 0-0.5-0.223-0.5-0.5v-2.5h-2zm0 1h1v1h-1v-1zm9 0h1v1h-1v-1zm-9 2h1v1h-1v-1zm9 0h1v1h-1v-1zm-6.5 1h5c0.277 0 0.5 0.223 0.5 0.5v3c0 0.277-0.223 0.5-0.5 0.5h-5c-0.277 0-0.5-0.223-0.5-0.5v-3c0-0.277 0.223-0.5 0.5-0.5zm-2.5 1h1v1h-1v-1zm9 0h1v1h-1v-1zm-9 2h1v1h-1v-1zm9 0h1v1h-1v-1zm-9 2h1v1h-1v-1zm9 0h1v1h-1v-1z" fill="url(#gr0)"/>
 <path id="path17" d="m3 2c-0.554 0-1 0.446-1 1v10c0 0.55 0.446 1 1 1v-1h1v1h1v-2.5c0-0.28 0.223-0.5 0.5-0.5h5c0.28 0 0.5 0.22 0.5 0.5v2.5h1v-1h1v1c0.55 0 1-0.45 1-1v-10c0-0.554-0.45-1-1-1h-2v2.5c0 0.277-0.22 0.5-0.5 0.5h-5c-0.277 0-0.5-0.223-0.5-0.5v-2.5h-2zm1 0.5h0.5v0.5a0.5 0.5 0 0 0-0.5-0.5zm7.5 0h0.5a0.5 0.5 0 0 0-0.5 0.5v-0.5zm-8.5 0.5h1v1h-1v-1zm9 0h1v1h-1v-1zm-9.5 1a0.5 0.5 0 0 0 0.5 0.5 0.5 0.5 0 0 0-0.5 0.5v-1zm2 0v0.5c0 0.545 0.455 1 1 1-0.545 0-1 0.455-1 1v0.5a0.5 0.5 0 0 0-0.5-0.5 0.5 0.5 0 0 0 0.5-0.5v-1a0.5 0.5 0 0 0-0.5-0.5 0.5 0.5 0 0 0 0.5-0.5zm7 0a0.5 0.5 0 0 0 0.5 0.5 0.5 0.5 0 0 0-0.5 0.5v1a0.5 0.5 0 0 0 0.5 0.5 0.5 0.5 0 0 0-0.5 0.5v-0.5c0-0.545-0.45-1-1-1 0.55 0 1-0.455 1-1v-0.5zm2 0v1a0.5 0.5 0 0 0-0.5-0.5 0.5 0.5 0 0 0 0.5-0.5zm-10.5 1h1v1h-1v-1zm9 0h1v1h-1v-1zm-9.5 1a0.5 0.5 0 0 0 0.5 0.5 0.5 0.5 0 0 0-0.5 0.5v-1zm3 0h5c0.28 0 0.5 0.223 0.5 0.5v3c0 0.277-0.22 0.5-0.5 0.5h-5c-0.277 0-0.5-0.223-0.5-0.5v-3c0-0.277 0.223-0.5 0.5-0.5zm8 0v1a0.5 0.5 0 0 0-0.5-0.5 0.5 0.5 0 0 0 0.5-0.5zm-10.5 1h1v1h-1v-1zm9 0h1v1h-1v-1zm-9.5 1a0.5 0.5 0 0 0 0.5 0.5 0.5 0.5 0 0 0-0.5 0.5v-1zm2 0v1a0.5 0.5 0 0 0-0.5-0.5 0.5 0.5 0 0 0 0.5-0.5zm7 0a0.5 0.5 0 0 0 0.5 0.5 0.5 0.5 0 0 0-0.5 0.5v-1zm2 0v1a0.5 0.5 0 0 0-0.5-0.5 0.5 0.5 0 0 0 0.5-0.5zm-10.5 1h1v1h-1v-1zm9 0h1v1h-1v-1zm-7.5 0.5c0 0.55 0.455 1 1 1-0.545 0-1 0.45-1 1v-0.5a0.5 0.5 0 0 0-0.5-0.5 0.5 0.5 0 0 0 0.5-0.5v-0.5zm7 0v0.5a0.5 0.5 0 0 0 0.5 0.5 0.5 0.5 0 0 0-0.5 0.5v0.5c0-0.55-0.45-1-1-1 0.55 0 1-0.45 1-1zm-9 0.5a0.5 0.5 0 0 0 0.5 0.5 0.5 0.5 0 0 0-0.5 0.5v-1zm11 0v1a0.5 0.5 0 0 0-0.5-0.5 0.5 0.5 0 0 0 0.5-0.5zm-10.5 1h1v1h-1v-1zm9 0h1v1h-1v-1zm-9.5 1a0.5 0.5 0 0 0 0.5 0.5 0.5 0.5 0 0 0-0.5 0.5v-1zm2 0v1a0.5 0.5 0 0 0-0.5-0.5 0.5 0.5 0 0 0 0.5-0.5zm7 0a0.5 0.5 0 0 0 0.5 0.5 0.5 0.5 0 0 0-0.5 0.5v-1zm2 0v1a0.5 0.5 0 0 0-0.5-0.5 0.5 0.5 0 0 0 0.5-0.5z" opacity=".3"/>
 <path id="path24" d="m3 3v1h1v-1h-1zm9 0v1h1v-1h-1zm-9 2v1h1v-1h-1zm9 0v1h1v-1h-1zm-6.5 1c-0.277 0-0.5 0.223-0.5 0.5v1c0-0.277 0.223-0.5 0.5-0.5h5c0.28 0 0.5 0.223 0.5 0.5v-1c0-0.277-0.22-0.5-0.5-0.5h-5zm-2.5 1v1h1v-1h-1zm9 0v1h1v-1h-1zm-9 2v1h1v-1h-1zm9 0v1h1v-1h-1zm-9 2v1h1v-1h-1zm2.5 0c-0.277 0-0.5 0.22-0.5 0.5v1c0-0.28 0.223-0.5 0.5-0.5h5c0.28 0 0.5 0.22 0.5 0.5v-1c0-0.28-0.22-0.5-0.5-0.5h-5zm6.5 0v1h1v-1h-1zm-10 2v1c0 0.55 0.446 1 1 1v-1c-0.554 0-1-0.45-1-1zm1 1h1v-1h-1v1zm1 0v1h1v-1h-1zm8-1v1h1v-1h-1zm1 1v1c0.55 0 1-0.45 1-1v-1c0 0.55-0.45 1-1 1zm-1 0h-1v1h1v-1z" fill="#fff" opacity=".2"/>
 <path id="path31" d="m3 2c-0.554 0-1 0.446-1 1v1c0-0.554 0.446-1 1-1h1 1v-1h-2zm8 0v1h1 1c0.55 0 1 0.446 1 1v-1c0-0.554-0.45-1-1-1h-2zm-8 2v1h1v-1h-1zm9 0v1h1v-1h-1zm-7 0.5v1c0 0.277 0.223 0.5 0.5 0.5h5c0.28 0 0.5-0.223 0.5-0.5v-1c0 0.277-0.22 0.5-0.5 0.5h-5c-0.277 0-0.5-0.223-0.5-0.5zm-2 1.5v1h1v-1h-1zm9 0v1h1v-1h-1zm-9 2v1h1v-1h-1zm9 0v1h1v-1h-1zm-7 1.5v1c0 0.28 0.223 0.5 0.5 0.5h5c0.28 0 0.5-0.22 0.5-0.5v-1c0 0.277-0.22 0.5-0.5 0.5h-5c-0.277 0-0.5-0.223-0.5-0.5zm-2 0.5v1h1v-1h-1zm9 0v1h1v-1h-1zm-9 2v1h1v-1h-1zm9 0v1h1v-1h-1z" opacity=".3"/>
</svg>
