<?xml version="1.0" encoding="UTF-8"?>
<svg id="svg36" width="16" height="16" version="1.1" xmlns="http://www.w3.org/2000/svg" xmlns:cc="http://creativecommons.org/ns#" xmlns:dc="http://purl.org/dc/elements/1.1/" xmlns:rdf="http://www.w3.org/1999/02/22-rdf-syntax-ns#">
 <metadata id="metadata40">
  <rdf:RDF>
   <cc:Work rdf:about="">
    <dc:format>image/svg+xml</dc:format>
    <dc:type rdf:resource="http://purl.org/dc/dcmitype/StillImage"/>
   </cc:Work>
  </rdf:RDF>
 </metadata>
 <defs id="defs7">
  <radialGradient id="gr0" cx="9" cy="10" r="11" gradientTransform="matrix(1 0 0 .72727 0 2.7273)" gradientUnits="userSpaceOnUse">
   <stop id="stop2" stop-opacity=".23529" offset="0"/>
   <stop id="stop4" stop-opacity=".54902" offset="1"/>
  </radialGradient>
 </defs>
 <path id="path9" d="m3.5 0c-1.368 0-2.5 1.132-2.5 2.5v11c0 1.37 1.132 2.5 2.5 2.5h9c1.37 0 2.5-1.13 2.5-2.5v-11c0-1.368-1.13-2.5-2.5-2.5h-9zm0 1h9c0.83 0 1.5 0.669 1.5 1.5v11c0 0.83-0.67 1.5-1.5 1.5h-9c-0.831 0-1.5-0.67-1.5-1.5v-11c0-0.831 0.669-1.5 1.5-1.5zm1 2c-0.277 0-0.5 0.223-0.5 0.5v9c0 0.28 0.223 0.5 0.5 0.5h7c0.28 0 0.5-0.22 0.5-0.5v-9c0-0.277-0.22-0.5-0.5-0.5h-7zm0.5 1h1v1h-1v-1zm2 0h1v1h-1v-1zm3 0 1 6h-6l1-3 2 2 2-5zm-3.5 1.865a1 1 0 0 0 0.5 0.135h1a1 1 0 0 0 0.127-0.01l-0.492 1.231-0.928-0.928a1 1 0 0 0-0.707-0.293 1 1 0 0 0 0.5-0.135zm-1.5 0.135h0.984a1 1 0 0 0-0.933 0.684l-0.049 0.152-2e-3 -0.836zm0 5h1v1h-1v-1zm2 0h1v1h-1v-1zm2 0h1v1h-1v-1z" fill="#fff" opacity=".05"/>
 <path id="base" d="m3.5 1c-0.831 0-1.5 0.669-1.5 1.5v11c0 0.831 0.669 1.5 1.5 1.5h9c0.831 0 1.5-0.669 1.5-1.5v-11c0-0.831-0.669-1.5-1.5-1.5h-9zm1 2h7c0.277 0 0.5 0.223 0.5 0.5v9c0 0.277-0.223 0.5-0.5 0.5h-7c-0.277 0-0.5-0.223-0.5-0.5v-9c0-0.277 0.223-0.5 0.5-0.5zm0.5 1v1h1v-1h-1zm2 0v1h1v-1h-1zm3 0-2 5-2-2-1 3h6l-1-6zm-5 7v1h1v-1h-1zm2 0v1h1v-1h-1zm2 0v1h1v-1h-1z" fill="url(#gr0)"/>
 <path id="path17" d="m3.5 1c-0.831 0-1.5 0.669-1.5 1.5v11c0 0.83 0.669 1.5 1.5 1.5h9c0.83 0 1.5-0.67 1.5-1.5v-11c0-0.831-0.67-1.5-1.5-1.5h-9zm0 0.5h9c0.56 0 1 0.437 1 1v11c0 0.56-0.44 1-1 1h-9c-0.563 0-1-0.44-1-1v-11c0-0.563 0.437-1 1-1zm1 1c-0.545 0-1 0.455-1 1v9c0 0.55 0.455 1 1 1h7c0.55 0 1-0.45 1-1v-9c0-0.545-0.45-1-1-1h-7zm0 0.5h7c0.28 0 0.5 0.223 0.5 0.5v9c0 0.28-0.22 0.5-0.5 0.5h-7c-0.277 0-0.5-0.22-0.5-0.5v-9c0-0.277 0.223-0.5 0.5-0.5zm0.5 1v1h1v-1h-1zm2 0v1h1v-1h-1zm3 0-2 5-2-2-1 3h6l-1-6zm-0.199 1.848 0.609 3.652h-2.414a0.5 0.5 0 0 0 0.469-0.314l1.336-3.338zm-3.582 2.078 1.427 1.428a0.5 0.5 0 0 0 0.348 0.146h-2.301l0.526-1.574zm-1.219 3.074v1h1v-1h-1zm2 0v1h1v-1h-1zm2 0v1h1v-1h-1z" opacity=".3"/>
 <path id="path24" d="m4.5 3c-0.277 0-0.5 0.223-0.5 0.5v1c0-0.277 0.223-0.5 0.5-0.5h0.5 1 1 1 2 1.5c0.28 0 0.5 0.223 0.5 0.5v-1c0-0.277-0.22-0.5-0.5-0.5h-7zm0.5 2v1h1v-1h-1zm2 0v1h1v-1h-1zm-1.666 5-0.334 1h1 1 1 1 1 1l-0.17-1h-2.83-2.666zm-0.334 2v1h1v-1h-1zm2 0v1h1v-1h-1zm2 0v1h1v-1h-1zm-7 1.5v1c0 0.83 0.669 1.5 1.5 1.5h9c0.83 0 1.5-0.67 1.5-1.5v-1c0 0.83-0.67 1.5-1.5 1.5h-9c-0.831 0-1.5-0.67-1.5-1.5z" fill="#fff" opacity=".2"/>
 <path id="path31" d="m3.5 1c-0.831 0-1.5 0.669-1.5 1.5v1c0-0.831 0.669-1.5 1.5-1.5h9c0.83 0 1.5 0.669 1.5 1.5v-1c0-0.831-0.67-1.5-1.5-1.5h-9zm1.5 3v1h1v-1h-1zm2 0v1h1v-1h-1zm3 0-2 5-2-2-1 3h0.334l0.666-2 2 2 2-5 0.83 5h0.17l-1-6zm-5 7v1h1v-1h-1zm2 0v1h1v-1h-1zm2 0v1h1v-1h-1zm-5 1.5v1c0 0.28 0.223 0.5 0.5 0.5h7c0.28 0 0.5-0.22 0.5-0.5v-1c0 0.28-0.22 0.5-0.5 0.5h-1.5-1-1-1-1-1-0.5c-0.277 0-0.5-0.22-0.5-0.5z" opacity=".3"/>
</svg>
