<?xml version="1.0" encoding="UTF-8"?>
<svg id="svg29" width="16" height="16" version="1.1" xmlns="http://www.w3.org/2000/svg" xmlns:cc="http://creativecommons.org/ns#" xmlns:dc="http://purl.org/dc/elements/1.1/" xmlns:rdf="http://www.w3.org/1999/02/22-rdf-syntax-ns#">
 <metadata id="metadata33">
  <rdf:RDF>
   <cc:Work rdf:about="">
    <dc:format>image/svg+xml</dc:format>
    <dc:type rdf:resource="http://purl.org/dc/dcmitype/StillImage"/>
   </cc:Work>
  </rdf:RDF>
 </metadata>
 <defs id="defs7">
  <linearGradient id="gr0" x1="8" x2="8" y1="1" y2="15" gradientUnits="userSpaceOnUse">
   <stop id="stop2" stop-color="#ebebeb" offset="0"/>
   <stop id="stop4" stop-color="#aaa" offset="1"/>
  </linearGradient>
 </defs>
 <path id="path9" d="m2.5 0c-1.368 0-2.5 1.132-2.5 2.5v8c0 1.37 1.132 2.5 2.5 2.5h3.031l-0.492 1.72a1 1 0 0 0 0.961 1.28h1a1 1 0 0 0 0.707-0.29l1.293-1.3 1.29 1.3a1 1 0 0 0 0.71 0.29h1a1 1 0 0 0 0.96-1.28l-0.49-1.72h1.03c1.37 0 2.5-1.13 2.5-2.5v-8c0-1.368-1.13-2.5-2.5-2.5h-10.789l0.193 0.08594a1 1 0 0 0-0.404-0.08594zm11 0.9961c0.83 0 1.5 0.6689 1.5 1.4999v8.004c0 0.83-0.67 1.5-1.5 1.5h-1.32l-0.57-2.004h0.89c0.28 0 0.5-0.223 0.5-0.5v-2.414-3.584c0-0.277-0.22-0.5-0.5-0.5h-3.467-5.533c-0.277 0-0.5 0.223-0.5 0.5v6c0 0.277 0.223 0.5 0.5 0.5h2.891l-0.573 2.002h-3.318c-0.831 0-1.5-0.67-1.5-1.5v-8.002c0-0.831 0.669-1.5 1.5-1.5l11-0.0019zm-9.5 3.0039h2.438c-0.09 0.07-0.203 0.108-0.284 0.189-0.75 0.759-1.176 1.828-1.154 2.895 0.01 0.674 0.228 1.332 0.568 1.914h-1.568v-4.998zm5.025 0a3 3 0 0 1 2.975 3.062 3 3 0 0 1-1.54 2.553l1.54 5.385h-1l-2-2-2 2h-1l1.539-5.385a3 3 0 0 1-1.539-2.553 3 3 0 0 1 3.025-3.062zm2.535 0h0.44v0.416c-0.1-0.06-0.1-0.145-0.13-0.203-0.1-0.09-0.21-0.131-0.31-0.213z" opacity=".25"/>
 <path id="base" d="m2.5 1c-0.831 0-1.5 0.669-1.5 1.5v8c0 0.831 0.669 1.5 1.5 1.5h3.3184l0.57227-2h-2.8906c-0.277 0-0.5-0.223-0.5-0.5v-6c0-0.277 0.223-0.5 0.5-0.5h9c0.277 0 0.5 0.223 0.5 0.5v3.584a1.0001 1.0001 0 0 0 0 0.0019531v2.4141c0 0.277-0.223 0.5-0.5 0.5h-0.89062l0.57227 2h1.3184c0.831 0 1.5-0.669 1.5-1.5v-8c0-0.831-0.669-1.5-1.5-1.5h-11zm6.5254 3a3 3 0 0 0-3.0254 3.0625 3 3 0 0 0 1.5391 2.5527l-1.5391 5.3848h1l2-2 2 2h1l-1.5391-5.3848a3 3 0 0 0 1.5391-2.5527 3 3 0 0 0-2.9746-3.0625z" fill="url(#gr0)"/>
 <path id="path17" d="m3.5 2.998c-0.277 0-0.5 0.223-0.5 0.5v1c0-0.277 0.223-0.5 0.5-0.5h5.533 3.467c0.28 0 0.5 0.223 0.5 0.5v-1c0-0.277-0.22-0.5-0.5-0.5h-3.467-5.533zm2.543 4.492a3 3 0 0 0-0.043 0.572 3 3 0 0 0 1.299 2.398l0.24-0.845a3 3 0 0 1-1.496-2.125zm5.917 8e-3a3 3 0 0 1-1.5 2.117l0.24 0.845a3 3 0 0 0 1.3-2.398 3 3 0 0 0-0.04-0.564zm-10.96 3.002v1c0 0.83 0.669 1.5 1.5 1.5h3.318l0.573-2h-0.287l-0.286 1h-3.318c-0.831 0-1.5-0.67-1.5-1.5zm14 0c0 0.83-0.67 1.5-1.5 1.5h-1.32l-0.29-1h-0.28l0.57 2h1.32c0.83 0 1.5-0.67 1.5-1.5v-1zm-6 2.5-2 2h-0.715l-0.285 1h1l2-2 2 2h1l-0.29-1h-0.71l-2-2z" opacity=".45"/>
 <path id="path24" d="m2.5 0.998v2e-3c-0.831 0-1.5 0.669-1.5 1.5v1c0-0.831 0.669-1.5 1.5-1.5v-2e-3h11c0.83 0 1.5 0.669 1.5 1.5v-1c0-0.831-0.67-1.5-1.5-1.5h-11zm6.525 3.002a3 3 0 0 0-3.025 3.062 3 3 0 0 0 0.043 0.428 3 3 0 0 1 2.982-2.49 3 3 0 0 1 2.935 2.498 3 3 0 0 0 0.04-0.436 3 3 0 0 0-2.967-3.062h-8e-3zm3.975 5.498c0 0.277-0.22 0.5-0.5 0.5h-0.89l0.28 1.002h0.61c0.28 0 0.5-0.23 0.5-0.5v-1.002zm-10 2e-3v1c0 0.28 0.223 0.5 0.5 0.5h2.605l0.286-1h-2.891c-0.277 0-0.5-0.223-0.5-0.5zm4.299 0.96-1.299 4.54h0.285l1.254-4.39a3 3 0 0 1-0.24-0.15zm3.401 0a3 3 0 0 1-0.24 0.15l1.25 4.39h0.29l-1.3-4.54z" fill="#fff" opacity=".6"/>
</svg>
