<?xml version="1.0" encoding="UTF-8"?>
<svg id="svg2" width="16" height="16" version="1.0" xmlns="http://www.w3.org/2000/svg" xmlns:cc="http://creativecommons.org/ns#" xmlns:dc="http://purl.org/dc/elements/1.1/" xmlns:rdf="http://www.w3.org/1999/02/22-rdf-syntax-ns#" xmlns:xlink="http://www.w3.org/1999/xlink">
 <defs id="defs4">
  <linearGradient id="linearGradient2897" x1="9.0575" x2="9.0575" y1="10.203" y2="-19.304" gradientTransform="translate(-.49972 5.3007)" gradientUnits="userSpaceOnUse">
   <stop id="stop3330-6" offset="0"/>
   <stop id="stop3333-8" stop-opacity="0" offset="1"/>
  </linearGradient>
  <linearGradient id="linearGradient3767" x1="1" x2="16.956" y1="9" y2="9" gradientTransform="translate(-17,-2)" gradientUnits="userSpaceOnUse">
   <stop id="stop3189-0" stop-color="#e6e6e6" offset="0"/>
   <stop id="stop3191-2" stop-color="#f5f5f5" offset="1"/>
  </linearGradient>
  <linearGradient id="linearGradient3658" x1="1" x2="11" y1="9" y2="9" gradientTransform="translate(-11,-2)" gradientUnits="userSpaceOnUse">
   <stop id="stop3201" stop-color="#dcdcdc" offset="0"/>
   <stop id="stop3203" stop-color="#fafafa" offset="1"/>
  </linearGradient>
  <linearGradient id="linearGradient3721" x1="17" x2="17" y1="1" y2="4" gradientTransform="matrix(1 0 0 .66667 -6 .33333)" gradientUnits="userSpaceOnUse">
   <stop id="stop3717" stop-color="#ccc" offset="0"/>
   <stop id="stop3719" stop-color="#ededed" offset="1"/>
  </linearGradient>
  <linearGradient id="linearGradient3855" x1="19" x2="19" y1="14" y2="2" gradientTransform="translate(-6,-4)" gradientUnits="userSpaceOnUse">
   <stop id="stop3736" stop-color="#fff" offset="0"/>
   <stop id="stop3738" stop-color="#fff" stop-opacity="0" offset="1"/>
  </linearGradient>
 </defs>
 <metadata id="metadata7">
  <rdf:RDF>
   <cc:Work rdf:about="">
    <dc:format>image/svg+xml</dc:format>
    <dc:type rdf:resource="http://purl.org/dc/dcmitype/StillImage"/>
    <dc:title/>
   </cc:Work>
  </rdf:RDF>
 </metadata>
 <g id="layer1">
  <rect id="rect3196" transform="rotate(-90)" x="-16" width="13" height="16" rx="2" ry="2" fill="url(#linearGradient3767)"/>
  <rect id="rect2884" transform="rotate(-90)" x="-10" width="10" height="16" rx="2" ry="2" fill="url(#linearGradient3658)"/>
  <path id="path3729" d="m8 0v8c0 1.0955 0.90445 2 2 2h2c1.0955 0 2-0.90445 2-2v-8h-6z" color="#000000" fill="url(#linearGradient3855)" opacity=".6"/>
  <path id="rect3770" d="m2.5 1c-0.831 0-1.5 0.669-1.5 1.5v1c0-0.831 0.669-1.5 1.5-1.5h11c0.831 0 1.5 0.669 1.5 1.5v-1c0-0.831-0.669-1.5-1.5-1.5h-11z" fill="#fff" opacity=".6"/>
  <path id="rect3660" d="m0 10v1c0 1.108 0.892 2 2 2h12c1.108 0 2-0.892 2-2v-1c0 1.108-0.892 2-2 2h-12c-1.108 0-2-0.892-2-2z" fill="#fff" opacity=".7"/>
  <path id="path3669" d="m0 11v1c0 1.108 0.892 2 2 2h12c1.108 0 2-0.892 2-2v-1c0 1.108-0.892 2-2 2h-12c-1.108 0-2-0.892-2-2z" opacity=".2"/>
  <path id="path3671" d="m0 12v1c0 1.108 0.892 2 2 2h12c1.108 0 2-0.892 2-2v-1c0 1.108-0.892 2-2 2h-12c-1.108 0-2-0.892-2-2z" fill="#fff" opacity=".7"/>
  <path id="path3673" d="m0 13v1c0 1.108 0.892 2 2 2h12c1.108 0 2-0.892 2-2v-1c0 1.108-0.892 2-2 2h-12c-1.108 0-2-0.892-2-2z" opacity=".2"/>
  <rect id="rect3675" transform="rotate(-90)" x="-16" y="-30" width="16" height="16" rx="2" ry="2" fill="#f0f"/>
  <path id="path3679" d="m0 8v1c0 1.108 0.892 2 2 2h12c1.108 0 2-0.892 2-2v-1c0 1.108-0.892 2-2 2h-12c-1.108 0-2-0.892-2-2z" fill="#fff" opacity=".7"/>
  <path id="path3681" d="m0 9v1c0 1.108 0.892 2 2 2h12c1.108 0 2-0.892 2-2v-1c0 1.108-0.892 2-2 2h-12c-1.108 0-2-0.892-2-2z" opacity=".2"/>
  <path id="rect3682" d="m9 0v8c0 0.554 0.446 1 1 1h2c0.554 0 1-0.446 1-1v-8h-4z" color="#000000" fill="#1a1a1a"/>
  <rect id="rect3687" x="10" width="2" height="1" color="#000000" fill="#808080"/>
  <rect id="rect3689" x="10" y="1" width="2" height="2" color="#000000" fill="url(#linearGradient3721)"/>
  <rect id="rect3691" x="10" y="3" width="1" height="1" color="#000000" fill="#ccc"/>
  <rect id="rect3693" x="11" y="3" width="1" height="1" color="#000000" fill="#7e7e7e"/>
  <rect id="rect3695" transform="scale(-1,1)" x="-12" y="4" width="1" height="1" color="#000000" fill="#ccc"/>
  <rect id="rect3697" transform="scale(-1,1)" x="-11" y="4" width="1" height="1" color="#000000" fill="#7e7e7e"/>
  <rect id="rect3699" x="10" y="5" width="1" height="1" color="#000000" fill="#ccc"/>
  <rect id="rect3701" x="11" y="5" width="1" height="1" color="#000000" fill="#7e7e7e"/>
  <rect id="rect3703" transform="scale(-1,1)" x="-12" y="6" width="1" height="1" color="#000000" fill="#ccc"/>
  <rect id="rect3705" transform="scale(-1,1)" x="-11" y="6" width="1" height="1" color="#000000" fill="#7e7e7e"/>
  <rect id="rect3723" x="10" y="3" width="2" height="1" color="#000000" opacity=".4"/>
  <rect id="rect3730" x="10" y="7" width="1" height="1" color="#000000" fill="#ccc"/>
  <rect id="rect3732" x="11" y="7" width="1" height="1" color="#000000" fill="#7e7e7e"/>
  <path id="rect2410" d="m2 0c-1.108 0-2 0.892-2 2v12c0 1.108 0.892 2 2 2h12c1.108 0 2-0.892 2-2v-12c0-1.108-0.892-2-2-2h-12zm0.5 1h11c0.831 0 1.5 0.669 1.5 1.5v11c0 0.831-0.669 1.5-1.5 1.5h-11c-0.831 0-1.5-0.669-1.5-1.5v-11c0-0.831 0.669-1.5 1.5-1.5z" fill="url(#linearGradient2897)" opacity=".4"/>
 </g>
</svg>
