<?xml version="1.0" encoding="UTF-8"?>
<svg id="svg2" width="16" height="16" version="1.0" xmlns="http://www.w3.org/2000/svg" xmlns:cc="http://creativecommons.org/ns#" xmlns:dc="http://purl.org/dc/elements/1.1/" xmlns:rdf="http://www.w3.org/1999/02/22-rdf-syntax-ns#" xmlns:xlink="http://www.w3.org/1999/xlink">
 <defs id="defs4">
  <linearGradient id="linearGradient2897" x1="9.0575" x2="9.0575" y1="10.203" y2="-19.304" gradientTransform="translate(-.49972 5.3007)" gradientUnits="userSpaceOnUse">
   <stop id="stop3330-6" offset="0"/>
   <stop id="stop3333-8" stop-opacity="0" offset="1"/>
  </linearGradient>
  <linearGradient id="linearGradient3767" x1="1" x2="16.956" y1="9" y2="9" gradientTransform="translate(-17,-2)" gradientUnits="userSpaceOnUse">
   <stop id="stop3702" stop-color="#4885bd" offset="0"/>
   <stop id="stop3704" stop-color="#91b5d7" offset="1"/>
  </linearGradient>
  <linearGradient id="linearGradient3697" x1="10" x2="25.857" y1="11.5" y2="11.5" gradientTransform="matrix(.88324 0 0 1 -23.832 -15)" gradientUnits="userSpaceOnUse" xlink:href="#linearGradient3704"/>
  <linearGradient id="linearGradient3704">
   <stop id="stop3706" stop-color="#fff" stop-opacity="0" offset="0"/>
   <stop id="stop3714" stop-color="#fff" offset=".15"/>
   <stop id="stop3716" stop-color="#fff" offset=".7"/>
   <stop id="stop3708" stop-color="#fff" stop-opacity="0" offset="1"/>
  </linearGradient>
  <linearGradient id="linearGradient3832" x1="10" x2="25.857" y1="11.5" y2="11.5" gradientTransform="matrix(.63089 0 0 1 -4.3089 -14)" gradientUnits="userSpaceOnUse" xlink:href="#linearGradient3704"/>
  <linearGradient id="linearGradient3699" x1="10" x2="25.857" y1="11.5" y2="11.5" gradientTransform="matrix(.75706 0 0 1 -5.5706 -25)" gradientUnits="userSpaceOnUse" xlink:href="#linearGradient3704"/>
  <linearGradient id="linearGradient3833" x1="10" x2="25.857" y1="11.5" y2="11.5" gradientTransform="matrix(1.0094 0 0 1 -26.094 -17)" gradientUnits="userSpaceOnUse" xlink:href="#linearGradient3704"/>
  <linearGradient id="linearGradient3860" x1="10" x2="25.857" y1="11.5" y2="11.5" gradientTransform="matrix(.69397 0 0 1 -21.94 -24)" gradientUnits="userSpaceOnUse" xlink:href="#linearGradient3704"/>
 </defs>
 <metadata id="metadata7">
  <rdf:RDF>
   <cc:Work rdf:about="">
    <dc:format>image/svg+xml</dc:format>
    <dc:type rdf:resource="http://purl.org/dc/dcmitype/StillImage"/>
    <dc:title/>
   </cc:Work>
  </rdf:RDF>
 </metadata>
 <g id="layer1">
  <rect id="rect3196" transform="rotate(-90)" x="-16" width="16" height="16" rx="2" ry="2" fill="url(#linearGradient3767)"/>
  <path id="rect2410" d="m2 0c-1.108 0-2 0.892-2 2v12c0 1.108 0.892 2 2 2h12c1.108 0 2-0.892 2-2v-12c0-1.108-0.892-2-2-2h-12zm0.5 1h11c0.831 0 1.5 0.669 1.5 1.5v11c0 0.831-0.669 1.5-1.5 1.5h-11c-0.831 0-1.5-0.669-1.5-1.5v-11c0-0.831 0.669-1.5 1.5-1.5z" fill="url(#linearGradient2897)" opacity=".4"/>
  <path id="rect3770" d="m2.5 1c-0.831 0-1.5 0.669-1.5 1.5v1c0-0.831 0.669-1.5 1.5-1.5h11c0.831 0 1.5 0.669 1.5 1.5v-1c0-0.831-0.669-1.5-1.5-1.5h-11z" fill="#fff" opacity=".3"/>
  <rect id="rect3718" transform="rotate(90)" x="2" y="-3" width="10" height="1" color="#000000" fill="url(#linearGradient3832)" opacity=".5"/>
  <rect id="rect3695" transform="scale(-1)" x="-15" y="-4" width="14" height="1" color="#000000" fill="url(#linearGradient3697)" opacity=".5"/>
  <rect id="rect3693" transform="scale(-1)" x="-15" y="-13" width="11" height="1" color="#000000" fill="url(#linearGradient3860)" opacity=".5"/>
  <rect id="rect3697" transform="rotate(90)" x="2" y="-14" width="12" height="1" color="#000000" fill="url(#linearGradient3699)" opacity=".5"/>
  <rect id="rect3831" transform="scale(-1)" x="-16" y="-6" width="16" height="1" color="#000000" fill="url(#linearGradient3833)" opacity=".3"/>
  <rect id="rect3767" x="6" y="7" width="5" height="1" color="#000000" fill="#fff" opacity=".3"/>
  <rect id="rect3773" x="6" y="7" width="2" height="1" color="#000000" fill="#fff" opacity=".3"/>
  <rect id="rect3781" x="9" y="7" width="1" height="1" color="#000000" fill="#fff" opacity=".3"/>
  <rect id="rect3746" x="6" y="9" width="6" height="1" color="#000000" fill="#fff" opacity=".3"/>
  <rect id="rect3748" x="8" y="9" width="2" height="1" color="#000000" fill="#fff" opacity=".3"/>
  <rect id="rect3752" x="6" y="9" width="1" height="1" color="#000000" fill="#fff" opacity=".3"/>
  <rect id="rect3872" x="4" y="9" width="1" height="1" color="#000000" fill="#fff" opacity=".6"/>
  <rect id="rect3874" x="4" y="7" width="1" height="1" color="#000000" fill="#fff" opacity=".6"/>
 </g>
</svg>
