<?xml version="1.0" encoding="UTF-8"?>
<svg id="svg2" width="16" height="16" version="1.0" xmlns="http://www.w3.org/2000/svg" xmlns:cc="http://creativecommons.org/ns#" xmlns:dc="http://purl.org/dc/elements/1.1/" xmlns:rdf="http://www.w3.org/1999/02/22-rdf-syntax-ns#" xmlns:xlink="http://www.w3.org/1999/xlink">
 <defs id="defs4">
  <linearGradient id="linearGradient2897" x1="9.0575" x2="9.0575" y1="10.203" y2="-19.304" gradientTransform="translate(-.49972 5.3007)" gradientUnits="userSpaceOnUse">
   <stop id="stop3330-6" offset="0"/>
   <stop id="stop3333-8" stop-opacity="0" offset="1"/>
  </linearGradient>
  <linearGradient id="linearGradient3767" x1="1" x2="16.956" y1="9" y2="9" gradientTransform="translate(-17,-2)" gradientUnits="userSpaceOnUse">
   <stop id="stop3189-0" stop-color="#e6e6e6" offset="0"/>
   <stop id="stop3191-2" stop-color="#f5f5f5" offset="1"/>
  </linearGradient>
  <linearGradient id="linearGradient3694" x1="46.907" x2="46.907" y1="75.471" y2="36.246" gradientTransform="matrix(.21277 0 0 .21277 -2.9574 -4.1702)" gradientUnits="userSpaceOnUse">
   <stop id="stop3731" stop-color="#1c59ad" offset="0"/>
   <stop id="stop3733" stop-color="#377ad6" offset="1"/>
  </linearGradient>
 </defs>
 <metadata id="metadata7">
  <rdf:RDF>
   <cc:Work rdf:about="">
    <dc:format>image/svg+xml</dc:format>
    <dc:type rdf:resource="http://purl.org/dc/dcmitype/StillImage"/>
    <dc:title/>
   </cc:Work>
  </rdf:RDF>
 </metadata>
 <g id="layer1">
  <rect id="rect3196" transform="rotate(-90)" x="-16" width="16" height="16" rx="2" ry="2" fill="url(#linearGradient3767)"/>
  <path id="rect2410" d="m2 0c-1.108 0-2 0.892-2 2v12c0 1.108 0.892 2 2 2h12c1.108 0 2-0.892 2-2v-12c0-1.108-0.892-2-2-2h-12zm0.5 1h11c0.831 0 1.5 0.669 1.5 1.5v11c0 0.831-0.669 1.5-1.5 1.5h-11c-0.831 0-1.5-0.669-1.5-1.5v-11c0-0.831 0.669-1.5 1.5-1.5z" fill="url(#linearGradient2897)" opacity=".4"/>
  <path id="rect3770" d="m2.5 1c-0.831 0-1.5 0.669-1.5 1.5v1c0-0.831 0.669-1.5 1.5-1.5h11c0.831 0 1.5 0.669 1.5 1.5v-1c0-0.831-0.669-1.5-1.5-1.5h-11z" fill="#fff" opacity=".6"/>
  <path id="path3715" d="m3 3.4894v8.5106h1.629v-3.1184h0.56516c0.63996 3.1e-6 1.1694-0.080028 1.5891-0.23271 0.42927-0.15474 0.77152-0.36 1.0239-0.6117 0.25901-0.25443 0.44015-0.54468 0.55186-0.87766 0.11355-0.33848 0.17286-0.69312 0.17287-1.0638-7e-6 -0.41478-0.062561-0.77831-0.18617-1.0971-0.12306-0.32106-0.31532-0.5864-0.57181-0.80452-0.25183-0.22112-0.57956-0.39238-0.98404-0.51197-0.39856-0.12281-0.88579-0.19281-1.4495-0.19282h-2.3404zm1.629 1.2699h0.61835c0.53434 7.5e-6 0.94201 0.10789 1.2168 0.34574 0.27806 0.23674 0.40558 0.60486 0.40559 1.0638-6.2e-6 0.4919-0.14225 0.87413-0.45213 1.1104-0.30135 0.23323-0.73317 0.33245-1.2832 0.33245h-0.50532v-2.8524zm6.4295 1.2832c-0.31726 6.3e-6 -0.60388 0.031204-0.86436 0.099734-0.25715 0.065115-0.47457 0.16556-0.65824 0.2992-0.18368 0.13365-0.32535 0.30314-0.42553 0.50532-0.10019 0.19876-0.15293 0.43085-0.15293 0.69814 0 0.24331 0.029663 0.45346 0.086436 0.63165 0.056774 0.17477 0.13911 0.33501 0.25266 0.47207 0.11688 0.13707 0.26848 0.25926 0.44548 0.37234 0.18034 0.10966 0.38786 0.21937 0.63165 0.33245 0.25047 0.11651 0.45146 0.21696 0.5984 0.2992 0.15028 0.078818 0.26228 0.15431 0.3391 0.21941 0.0768 0.061687 0.12624 0.12127 0.14628 0.17952 0.02337 0.05483 0.03324 0.11421 0.03324 0.18617-3e-6 0.07196-0.01649 0.14101-0.04655 0.20612-0.02672 0.06168-0.06953 0.11825-0.13298 0.16622-0.06012 0.04455-0.13587 0.07897-0.23271 0.10638-0.09685 0.02399-0.21547 0.03989-0.35239 0.03989-0.12357 1e-6 -0.25865-0.01591-0.40559-0.03989-0.1436-0.02398-0.29186-0.05196-0.44548-0.09309-0.15361-0.044545-0.30846-0.10131-0.46542-0.15957-0.15362-0.058252-0.29857-0.12086-0.43883-0.19282v1.2965c0.13358 0.06168 0.26204 0.1118 0.39229 0.15292 0.13024 0.04112 0.26532 0.07232 0.40559 0.09973 0.14026 0.02741 0.28852 0.04956 0.44548 0.05984 0.15696 0.01371 0.32829 0.019951 0.51197 0.019951 0.34731 0 0.66362-0.03764 0.94415-0.11303 0.28052-0.07539 0.5144-0.18832 0.71144-0.3391 0.19703-0.15078 0.3519-0.33899 0.45878-0.56516 0.10686-0.22617 0.15957-0.48967 0.15957-0.79122-5e-6 -0.25358-0.039567-0.4734-0.11303-0.6516-0.073478-0.17819-0.17558-0.33178-0.3125-0.46543-0.13693-0.13364-0.30167-0.24959-0.49202-0.35239-0.19036-0.10623-0.40119-0.21292-0.6383-0.31915-0.20372-0.095946-0.37177-0.17425-0.49867-0.23936-0.12691-0.068534-0.22242-0.13134-0.29255-0.18617-0.070135-0.058251-0.11625-0.11482-0.13963-0.16622-0.02337-0.054824-0.0399-0.11763-0.03989-0.18617-3e-6 -0.13021 0.04945-0.23046 0.13963-0.30585 0.09351-0.075384 0.23842-0.11303 0.44548-0.11303 0.23043 4.7e-6 0.46106 0.034221 0.69149 0.11303 0.23043 0.07882 0.47757 0.18249 0.73138 0.30585l0.45878-1.1104c-0.31726-0.15763-0.62365-0.27357-0.9242-0.35239-0.30056-0.07881-0.62349-0.11967-0.95745-0.11968z" fill="url(#linearGradient3694)"/>
 </g>
</svg>
