<?xml version="1.0" encoding="UTF-8"?>
<svg id="svg2" width="16" height="16" version="1.0" xmlns="http://www.w3.org/2000/svg" xmlns:cc="http://creativecommons.org/ns#" xmlns:dc="http://purl.org/dc/elements/1.1/" xmlns:rdf="http://www.w3.org/1999/02/22-rdf-syntax-ns#" xmlns:xlink="http://www.w3.org/1999/xlink">
 <defs id="defs4">
  <linearGradient id="linearGradient2897" x1="9.0575" x2="9.0575" y1="10.203" y2="-19.304" gradientTransform="translate(-.49972 5.3007)" gradientUnits="userSpaceOnUse">
   <stop id="stop3330-6" offset="0"/>
   <stop id="stop3333-8" stop-opacity="0" offset="1"/>
  </linearGradient>
  <linearGradient id="linearGradient3767" x1="1" x2="16.956" y1="9" y2="9" gradientTransform="translate(-17,-2)" gradientUnits="userSpaceOnUse">
   <stop id="stop3189-0" stop-color="#e6e6e6" offset="0"/>
   <stop id="stop3191-2" stop-color="#f5f5f5" offset="1"/>
  </linearGradient>
  <linearGradient id="linearGradient3698" x1="5" x2="25" y1="12" y2="12" gradientTransform="matrix(0 -.85714 .85714 0 -2.2857 18.286)" gradientUnits="userSpaceOnUse">
   <stop id="stop3694" stop-color="#4271a3" offset="0"/>
   <stop id="stop3696" stop-color="#5384b9" stop-opacity="0" offset="1"/>
  </linearGradient>
  <radialGradient id="radialGradient2720" cx="25.103" cy="22.635" r="19.19" gradientTransform="matrix(.31062 0 0 .30016 .2026 .80327)" gradientUnits="userSpaceOnUse">
   <stop id="stop3906" stop-color="#87abcd" offset="0"/>
   <stop id="stop5309" stop-color="#729bc5" offset=".85132"/>
   <stop id="stop3910" stop-color="#4575a9" offset="1"/>
  </radialGradient>
  <radialGradient id="radialGradient3730" cx="372.91" cy="376.4" r="364.53" gradientTransform="matrix(1 0 0 .98659 0 5.0475)" gradientUnits="userSpaceOnUse">
   <stop id="stop3872" stop-color="#e0e9f2" offset="0"/>
   <stop id="stop3902" stop-color="#c7d7e8" offset=".82812"/>
   <stop id="stop5311" stop-color="#b2c8df" offset=".91406"/>
   <stop id="stop3874" stop-color="#7ea3ca" offset="1"/>
  </radialGradient>
 </defs>
 <metadata id="metadata7">
  <rdf:RDF>
   <cc:Work rdf:about="">
    <dc:format>image/svg+xml</dc:format>
    <dc:type rdf:resource="http://purl.org/dc/dcmitype/StillImage"/>
    <dc:title/>
   </cc:Work>
  </rdf:RDF>
 </metadata>
 <g id="layer1">
  <rect id="rect3196" transform="rotate(-90)" x="-16" width="16" height="16" rx="2" ry="2" fill="url(#linearGradient3767)"/>
  <path id="rect2410" d="m2 0c-1.108 0-2 0.892-2 2v12c0 1.108 0.892 2 2 2h12c1.108 0 2-0.892 2-2v-12c0-1.108-0.892-2-2-2h-12zm0.5 1h11c0.831 0 1.5 0.669 1.5 1.5v11c0 0.831-0.669 1.5-1.5 1.5h-11c-0.831 0-1.5-0.669-1.5-1.5v-11c0-0.831 0.669-1.5 1.5-1.5z" fill="url(#linearGradient2897)" opacity=".4"/>
  <path id="rect3770" d="m2.5 1c-0.831 0-1.5 0.669-1.5 1.5v1c0-0.831 0.669-1.5 1.5-1.5h11c0.831 0 1.5 0.669 1.5 1.5v-1c0-0.831-0.669-1.5-1.5-1.5h-11z" fill="#fff" opacity=".6"/>
  <path id="path5993" transform="matrix(.016459 0 0 .016683 1.8625 1.7204)" d="m737.43 376.4a364.53 359.64 0 1 1-729.05 0 364.53 359.64 0 1 1 729.05 0z" fill="url(#radialGradient3730)" fill-rule="evenodd"/>
  <path id="path4144" d="m7.9605 2.1424-0.68088 0.078951-0.83876 0.23192-0.15788 0.15297 0.52299 0.36022v0.20725l-0.20722 0.20725 0.27136 0.53786 0.18255-0.098689 0.22696-0.36515c0.35076-0.10866 0.66819-0.23038 1.0016-0.38489l0.27137-0.69576-0.59207-0.23192zm-1.5936 0.083889c-0.14999 0.04242-0.29908 0.089549-0.44405 0.1431l-0.00497 0.00497c-0.00291 0.00103-0.00703-0.00111-0.00987 0-0.20013 0.07452-0.39281 0.16196-0.5822 0.25659l0.29603 0.054284 0.11348-0.10362 0.22696-0.049346c0.15555-0.075797 0.31355-0.12909 0.47859-0.18258l-0.074014-0.12336zm-1.3568 0.5872-0.044409 0.10362 0.019723 0.25659-0.17762 0.15297-0.11348 0.2862h0.22696l0.11348-0.25659c0.097919-0.069386 0.19137-0.14046 0.2911-0.20725l0.22696 0.078951c0.1513 0.103 0.3025 0.2031 0.45392 0.30594l0.2319-0.20725-0.25163-0.09869-0.11348-0.23192-0.43418-0.054283-0.019748-0.1283-0.20722 0.049346-0.088809 0.18257-0.11348-0.23192zm5.8171 0.20725-0.43418 0.10362-0.27136 0.17764v0.15297l-0.42925 0.2862 0.088809 0.40956 0.25163-0.17764 0.15788 0.17764 0.18255 0.10362 0.11348-0.30594-0.06908-0.18258 0.06908-0.1283 0.24669-0.23192h0.11348l-0.11348 0.25659v0.23192c0.10432-0.028449 0.21395-0.036043 0.3207-0.049346l-0.29603 0.20231-0.02467 0.13323-0.34044 0.28127-0.34044-0.078951v-0.20231l-0.15789 0.09869 0.069069 0.18258h-0.25163l-0.13321 0.23192-0.17269 0.19244-0.3059 0.064149 0.18255 0.18258 0.044409 0.17764h-0.22696l-0.29603 0.1579v0.45891h0.13815l0.12335 0.1431 0.28617-0.1431 0.11348-0.28127 0.20229-0.1283 0.044409-0.10362 0.34044-0.078951 0.18255 0.20725 0.20229 0.10362-0.11348 0.23192 0.18255-0.049346 0.09374-0.23192-0.22696-0.26153h0.08881l0.22696 0.18258 0.04441 0.25659 0.20722 0.23192 0.04441-0.33554 0.11348-0.049346c0.11226 0.11677 0.20149 0.25347 0.29603 0.38489l0.34044 0.024677 0.20229 0.1283-0.08881 0.1283-0.20722 0.18258h-0.2911l-0.38978-0.1283-0.20229 0.024669-0.14802 0.16777-0.41938-0.42437-0.29603-0.078951-0.42925 0.054283-0.38977 0.10362c-0.21658 0.24603-0.42655 0.4896-0.63154 0.74511l-0.25163 0.59214 0.11348 0.1283-0.20229 0.31087 0.22696 0.53786c0.19306 0.21883 0.38449 0.4373 0.57727 0.65629l0.28123-0.24179 0.12828 0.1431 0.3059-0.19738 0.10361 0.11843h0.3059l0.17269 0.19738-0.10854 0.35528 0.21709 0.24672-0.0099 0.42436 0.15789 0.30594-0.11348 0.26153c-0.0113 0.18947-0.01972 0.37303-0.01972 0.56253 0.09305 0.25673 0.1835 0.51614 0.27136 0.77471l0.06414 0.40956v0.20725h0.16282l0.24669-0.15297h0.29603l0.44405-0.50332-0.0592-0.16777 0.29603-0.25659-0.21709-0.24672 0.2615-0.21712 0.25163-0.15297 0.11348-0.1283-0.06908-0.2862v-0.72043l0.20722-0.43917 0.24669-0.28126 0.27136-0.67109v-0.17764c-0.13463 0.016989-0.26302 0.029923-0.39471 0.039471l-0.0099 0.00987-0.0099-0.00987c-0.07972 0.0054-0.15979 0.00987-0.24176 0.00987-0.14451-0.30443-0.25493-0.60921-0.36503-0.92769l-0.19242-0.21712-0.09868-0.37502 0.06414-0.074014 0.2615 0.29607 0.3059 0.65629 0.18255 0.20231-0.08881 0.23192 0.17269 0.19738c0.0065-4.5e-4 0.01325 4.749e-4 0.01972 0l0.27136-0.2714 0.37498-0.25659 0.20722-0.23192v-0.26153c-0.04545-0.085878-0.09239-0.17071-0.13815-0.25659l-0.18255 0.20725-0.13815-0.15297-0.20229-0.1579v-0.33061l0.23683 0.26646 0.2615-0.034543c0.11894 0.10819 0.23612 0.20743 0.34044 0.33061l0.16776-0.18751c-0.24005-1.4707-1.0178-2.7606-2.1216-3.6663l-0.04441 0.069086-0.22696 0.25659-0.2911-0.30594h0.2911l0.12335-0.13817c-0.01017-0.0078-0.01937-0.016903-0.02961-0.024669l-0.49832-0.093755-0.29603-0.10362zm-6.2068 0.01974c-0.08028 0.054814-0.15448 0.11416-0.2319 0.17271l-0.034534 0.088821s-0.06222 0.010423-0.10854 0.01974c-1.2846 1.033-2.1362 2.5865-2.2351 4.3374 0.06168 0.10592 0.13815 0.22699 0.13815 0.22699l0.47859 0.28127 0.47365 0.13323 0.20722 0.25659 0.31577 0.23192 0.18255-0.029606 0.13815 0.064149v0.03948l-0.18255 0.48851-0.13815 0.20725 0.0444 0.10362-0.11348 0.38489 0.40951 0.75004 0.40951 0.36022 0.18255 0.25659-0.024669 0.54279 0.13815 0.30594-0.13815 0.59214s-0.00326 0.0044 0.00489 0.03947c0.19084 0.13532 0.39058 0.26234 0.597 0.37502 0.00326 0.0018 0.0066 0.0032 0.00987 5e-3 0.00887 0.0042 0.021223 0.011 0.029606 0.0148 0.073174 0.03322 0.12686 0.05282 0.13815 0.04441 0.044974-0.03424 0.08388-0.06415 0.08388-0.06415l-0.0444-0.1283 0.18255-0.18258 0.069077-0.17764 0.2911-0.10362 0.22696-0.56747-0.06414-0.15297 0.15788-0.23192 0.34044-0.07895 0.18255-0.4145-0.044409-0.51318 0.27137-0.38489 0.044409-0.38489c-0.37275-0.18524-0.74509-0.3768-1.1151-0.56749l-0.17762-0.36022-0.34044-0.078951-0.18256-0.48851-0.45392 0.049346-0.38485-0.28127-0.40951 0.36022v0.054283c-0.12368-0.035769-0.27471-0.040706-0.38484-0.10856l-0.093744-0.25659v-0.28127l-0.27136 0.024669c0.022749-0.18033 0.046183-0.35756 0.069077-0.53786h-0.16282l-0.15789 0.20231-0.15788 0.078952-0.22696-0.1283-0.024669-0.2862 0.049346-0.30594 0.34044-0.25659h0.27136l0.044409-0.1579 0.34044 0.078951 0.25163 0.31087 0.044409-0.51812 0.42925-0.36022 0.16282-0.38489 0.31577-0.1283 0.18255-0.25659 0.40951-0.078952 0.20229-0.31087h-0.6118l0.38485-0.17764h0.27136l0.38484-0.1283 0.049337-0.1579-0.13815-0.1283-0.15788-0.049346 0.044408-0.15297-0.11348-0.23192-0.27136 0.09869 0.0444-0.20231-0.31577-0.18258-0.25163 0.43917 0.024668 0.15297-0.25163 0.10362-0.15788 0.33554-0.069077-0.31087-0.42925-0.17764-0.069077-0.23192 0.5674-0.33554 0.24669-0.23192 0.024669-0.28126-0.13815-0.078952-0.024669-0.0049714zm3.952 0.31581-0.17762 0.09869-0.093744-0.024669-0.019723 0.1579 0.15788 0.09869 0.27136-0.17764-0.13815-0.15297zm-2.9949 0.049346-0.18255 0.1283 0.22696 0.15297h0.18255v-0.17764l-0.22696-0.10362zm3.5869 0.59214v0.15297l0.093741 0.10362v0.23192l-0.049338 0.31087 0.25163-0.054283 0.18255-0.17764-0.15788-0.15297c-0.053374-0.14243-0.11574-0.27788-0.18255-0.4145h-0.13815zm-0.088809 0.31087-0.16282 0.049346 0.049337 0.28127 0.20229-0.09869-0.08881-0.23192zm-3.133 0.46384 0.06414 0.36022 0.13815-0.20725-0.20229-0.15297z" fill="url(#radialGradient2720)"/>
  <path id="path2915" d="m2 8c0 3.3137 2.6863 6 6 6 3.3137 0 6-2.6863 6-6 0-3.3137-2.6863-6-6-6-3.3137 0-6 2.6863-6 6zm0.85714 0c0-2.8403 2.3025-5.1429 5.1429-5.1429 2.8403 0 5.1429 2.3025 5.1429 5.1429 0 2.8403-2.3025 5.1429-5.1429 5.1429-2.8403 0-5.1429-2.3025-5.1429-5.1429z" color="#000000" fill="url(#linearGradient3698)" opacity=".47541"/>
 </g>
</svg>
