<?xml version="1.0" encoding="UTF-8"?>
<svg id="svg2" width="16" height="16" version="1.0" xmlns="http://www.w3.org/2000/svg" xmlns:cc="http://creativecommons.org/ns#" xmlns:dc="http://purl.org/dc/elements/1.1/" xmlns:rdf="http://www.w3.org/1999/02/22-rdf-syntax-ns#" xmlns:xlink="http://www.w3.org/1999/xlink">
 <defs id="defs4">
  <linearGradient id="linearGradient2897" x1="9.0575" x2="9.0575" y1="10.203" y2="-19.304" gradientTransform="translate(-.49972 5.3007)" gradientUnits="userSpaceOnUse">
   <stop id="stop3330-6" offset="0"/>
   <stop id="stop3333-8" stop-opacity="0" offset="1"/>
  </linearGradient>
  <linearGradient id="linearGradient3767" x1="1" x2="16.956" y1="9" y2="9" gradientTransform="translate(-17,-2)" gradientUnits="userSpaceOnUse">
   <stop id="stop3189-0" stop-color="#e6e6e6" offset="0"/>
   <stop id="stop3191-2" stop-color="#f5f5f5" offset="1"/>
  </linearGradient>
  <linearGradient id="linearGradient4361" x1="53.895" x2="53.895" y1="46.001" y2="12.193" gradientTransform="translate(-6.3696 18.928)" gradientUnits="userSpaceOnUse" xlink:href="#linearGradient3729"/>
  <linearGradient id="linearGradient3729">
   <stop id="stop3731" stop-color="#2f55cf" offset="0"/>
   <stop id="stop3733" stop-color="#6480dc" offset="1"/>
  </linearGradient>
 </defs>
 <metadata id="metadata7">
  <rdf:RDF>
   <cc:Work rdf:about="">
    <dc:format>image/svg+xml</dc:format>
    <dc:type rdf:resource="http://purl.org/dc/dcmitype/StillImage"/>
    <dc:title/>
   </cc:Work>
  </rdf:RDF>
 </metadata>
 <g id="layer1">
  <rect id="rect3196" transform="rotate(-90)" x="-16" width="16" height="16" rx="2" ry="2" fill="url(#linearGradient3767)"/>
  <path id="rect2410" d="m2 0c-1.108 0-2 0.892-2 2v12c0 1.108 0.892 2 2 2h12c1.108 0 2-0.892 2-2v-12c0-1.108-0.892-2-2-2h-12zm0.5 1h11c0.831 0 1.5 0.669 1.5 1.5v11c0 0.831-0.669 1.5-1.5 1.5h-11c-0.831 0-1.5-0.669-1.5-1.5v-11c0-0.831 0.669-1.5 1.5-1.5z" fill="url(#linearGradient2897)" opacity=".4"/>
  <path id="rect3770" d="m2.5 1c-0.831 0-1.5 0.669-1.5 1.5v1c0-0.831 0.669-1.5 1.5-1.5h11c0.831 0 1.5 0.669 1.5 1.5v-1c0-0.831-0.669-1.5-1.5-1.5h-11z" fill="#fff" opacity=".6"/>
  <g id="text4284" transform="matrix(.22942 0 0 .2354 -3.4124 -3.2993)" fill="url(#linearGradient4361)">
   <path id="path4357" d="m48.973 59.555c1.2969 5e-6 2.414-0.17968 3.3516-0.53906 0.9531-0.37499 1.7734-0.85937 2.4609-1.4531 0.7031-0.59374 1.2812-1.2656 1.7344-2.0156 0.46872-0.74999 0.85154-1.5078 1.1484-2.2734l6.0234 2.2734c-0.48441 1.1875-1.1172 2.3516-1.8984 3.4922-0.78128 1.1406-1.7578 2.1484-2.9297 3.0234-1.1719 0.875-2.5703 1.5859-4.1953 2.1328-1.6094 0.53125-3.5078 0.79688-5.6953 0.79688-2.8594 0-5.336-0.42188-7.4297-1.2656-2.0938-0.85937-3.8281-2.0469-5.2031-3.5625-1.3594-1.5312-2.375-3.3437-3.0469-5.4375-0.65625-2.0937-0.98438-4.3828-0.98438-6.8672-2e-6 -2.5781 0.32812-4.9062 0.98438-6.9844 0.67187-2.0781 1.6797-3.8437 3.0234-5.2969 1.3437-1.4687 3.0391-2.5937 5.0859-3.375 2.0625-0.79684 4.4844-1.1953 7.2656-1.1953 2.1562 3.4e-5 4.039 0.2266 5.6484 0.67969 1.625 0.45316 3.0234 1.0938 4.1953 1.9219 1.1875 0.81253 2.164 1.7813 2.9297 2.9062 0.78122 1.1094 1.3906 2.336 1.8281 3.6797l-6.0938 1.6641c-0.21878-0.7031-0.55471-1.375-1.0078-2.0156-0.45315-0.65622-1.0313-1.2343-1.7344-1.7344-0.68752-0.49997-1.5-0.89841-2.4375-1.1953-0.93752-0.31247-2-0.46872-3.1875-0.46875-1.6719 2.9e-5 -3.1094 0.27347-4.3125 0.82031-1.2031 0.53128-2.1953 1.2969-2.9766 2.2969-0.76564 1-1.3359 2.2031-1.7109 3.6094-0.35938 1.3906-0.53907 2.9531-0.53906 4.6875-9e-6 1.7188 0.17968 3.2969 0.53906 4.7344 0.37499 1.4219 0.95311 2.6484 1.7344 3.6797 0.78124 1.0313 1.7812 1.8359 3 2.4141 1.2344 0.57813 2.7109 0.86719 4.4297 0.86719" fill="url(#linearGradient4361)"/>
  </g>
 </g>
</svg>
