<?xml version="1.0" encoding="UTF-8"?>
<svg id="svg60" width="16" height="16" version="1.1" xmlns="http://www.w3.org/2000/svg" xmlns:cc="http://creativecommons.org/ns#" xmlns:dc="http://purl.org/dc/elements/1.1/" xmlns:rdf="http://www.w3.org/1999/02/22-rdf-syntax-ns#">
 <metadata id="metadata64">
  <rdf:RDF>
   <cc:Work rdf:about="">
    <dc:format>image/svg+xml</dc:format>
    <dc:type rdf:resource="http://purl.org/dc/dcmitype/StillImage"/>
   </cc:Work>
  </rdf:RDF>
 </metadata>
 <defs id="defs12">
  <radialGradient id="gr0" cx="9" cy="10" r="11" gradientTransform="matrix(1 0 0 .54545 0 4.5455)" gradientUnits="userSpaceOnUse">
   <stop id="stop2" stop-opacity=".23529" offset="0"/>
   <stop id="stop4" stop-opacity=".54902" offset="1"/>
  </radialGradient>
  <linearGradient id="gr1" x1="8" x2="8" y1="10" y2="15" gradientUnits="userSpaceOnUse">
   <stop id="stop7" stop-color="#0aad09" offset="0"/>
   <stop id="stop9" stop-color="#31cb38" offset="1"/>
  </linearGradient>
 </defs>
 <path id="path14" d="m2 2c-1.0907 0-2 0.909-2 2v6.06a1 1 0 0 0 1.643 0.77 2.5 2.5 0 0 1 1.857-0.83 2.5 2.5 0 0 1 2.496 2.43l6e-3 0.01c0 0.03-2e-3 0.02-2e-3 0.04a2.5 2.5 0 0 1 0 0.02 2.5 2.5 0 0 1-0.035 0.41 2.5 2.5 0 0 0 0.017-0.12v0.1a1 1 0 0 0 0.987 1.17h7.041c1.09 0 2-0.9 2-2v-7.999c0-1.096-0.91-2-2-2l-12.01-0.061zm0 1 12 0.012c0.56 0 1 0.446 1 1v7.998c0 0.55-0.44 1-1 1h-7.037c0.04-0.17 0.041-0.33 0.041-0.5-1e-3 -1.3-0.723-2.49-1.875-3.102l0.029-0.029-0.594-0.5-0.263 0.221c-0.264-0.07-0.533-0.099-0.801-0.1-0.941 1e-3 -1.842 0.383-2.5 1.06v-6.06c0-0.554 0.446-1 1-1zm0 1v1l6 5 6-5v-1l-6 5-6-5zm9.44 4.875-0.6 0.5 3.16 2.625v-1l-2.56-2.125zm-6.542 1.027-0.336 0.278h-0.015a1 1 0 0 0 0.088 0.06 2.5 2.5 0 0 0-0.489-0.19 1 1 0 0 0 0.256 0 1 1 0 0 0 0.11 0.1v-0.07a1 1 0 0 0 0.386-0.178zm-0.386 0.248v0.03h0.035a1 1 0 0 1-0.035-0.03zm-3.27 1.28a2.5 2.5 0 0 0-0.027 0.06 2.5 2.5 0 0 1 0.027-0.06zm-0.164 0.46a2.5 2.5 0 0 0-0.023 0.1 2.5 2.5 0 0 1 0.023-0.1zm-0.047 0.23a2.5 2.5 0 0 0-0.015 0.12 2.5 2.5 0 0 1 0.015-0.12z" fill="#fff" opacity=".05"/>
 <path id="base" d="m2 3c-0.554 0-1 0.446-1 1v6.06c0.658-0.679 1.559-1.059 2.5-1.06 0.268 1e-3 0.536 0.03 0.8 0.1l0.265-0.221 0.594 0.5-0.03 0.03c1.152 0.608 1.874 1.8 1.875 3.1-0 0.17-0.01 0.33-0.04 0.5h7.041c0.55 0 1-0.45 1-1v-8c0-0.554-0.45-1-1-1zm0 1 6 5 6-5v1l-6 5-6-5zm9.44 4.875 2.56 2.125v1l-3.16-2.625z" fill="url(#gr0)"/>
 <path id="path26" class="success" d="m6 12.5a2.5 2.5 0 0 1-2.5 2.5 2.5 2.5 0 0 1-2.5-2.5 2.5 2.5 0 0 1 2.5-2.5 2.5 2.5 0 0 1 2.5 2.5z" fill="url(#gr1)"/>
 <path id="path28" d="m2 3c-0.554 0-1 0.446-1 1v6.06c0.658-0.677 1.559-1.059 2.5-1.06 0.268 1e-3 0.537 0.03 0.801 0.1l0.263-0.221 0.594 0.5-0.029 0.029c1.152 0.612 1.874 1.802 1.875 3.102 0 0.17-1e-3 0.33-0.041 0.5h7.037c0.56 0 1-0.45 1-1v-7.998c0-0.554-0.44-1-1-1l-12-0.012zm0.016 0.5 11.884 0.01a0.5 0.5 0 0 0-0.22 0.105l-5.68 4.735-5.68-4.735a0.5 0.5 0 0 0-0.304-0.115zm12.464 0.479 0.02 0.015v1a0.5 0.5 0 0 1-0.02 0.141v5.865a0.5 0.5 0 0 0-0.18-0.38l-2.56-2.132a0.5 0.5 0 0 0-0.64 0l-0.6 0.5a0.5 0.5 0 0 0 0 0.77l3.16 2.622a0.5 0.5 0 0 0 0.3 0.12h-6.458c-1e-3 -1.39-0.741-2.653-1.91-3.381a0.5 0.5 0 0 0-0.113-0.135l-0.594-0.5a0.5 0.5 0 0 0-0.643 0l-0.103 0.09c-0.215-0.04-0.43-0.079-0.639-0.08-0.722 1e-3 -1.389 0.261-2 0.625v-4.125a0.5 0.5 0 0 0 0.18 0.385l6 4.991a0.5 0.5 0 0 0 0.64 0l6-4.991a0.5 0.5 0 0 0 0.16-0.244v-1.137-0.019zm-12.48 0.021 6 5 6-5v1l-6 5-6-5v-1zm9.44 4.875 2.56 2.125v1l-3.16-2.625 0.6-0.5z" opacity=".3"/>
 <path id="path39" d="m2 4v1l6 5 6-5v-1l-6 5-6-5zm9.44 4.875-0.6 0.5 3.16 2.625v-1l-2.56-2.125zm-6.876 4e-3 -0.263 0.221c-0.264-0.07-0.533-0.099-0.801-0.1-0.941 1e-3 -1.842 0.383-2.5 1.06v1c0.551-0.57 1.276-0.92 2.049-1.02a2.5 2.5 0 0 1 0.416-0.04c0.012 0 0.023-2e-3 0.035-2e-3 0.268 0 0.537 1e-3 0.801 0.102l0.263-0.221 0.594 0.501h-0.029c1.002 0.53 1.676 1.5 1.836 2.6 0.033-0.16 0.039-0.31 0.039-0.47-1e-3 -1.3-0.723-2.49-1.875-3.102l0.029-0.029-0.594-0.5zm10.436 3.131c0 0.55-0.44 1-1 1h-7.031c0.021 0.15 0.035 0.31 0.035 0.47 0 0.17-1e-3 0.33-0.041 0.5h7.037c0.56 0 1-0.45 1-1v-0.97zm-9.053 0.99a2.5 2.5 0 0 1-2.447 2 2.5 2.5 0 0 1-2.447-2 2.5 2.5 0 0 0-0.053 0.5 2.5 2.5 0 0 0 2.5 2.5 2.5 2.5 0 0 0 2.5-2.5 2.5 2.5 0 0 0-0.053-0.5z" fill="#fff" opacity=".2"/>
 <path id="path50" d="m2 3c-0.554 0-1 0.446-1 1v1c0-0.554 0.446-1 1-1l12-0.021c0.56 0 1 0.446 1 1v-0.969c0-0.554-0.44-1-1-1l-12-0.01zm0 2v1l6 5 6-5v-1l-6 5-6-5zm9.44 4.875-0.6 0.505 3.16 2.62v-1l-2.56-2.125zm-4.473 3.105c-2e-3 0.01 0 0.02-2e-3 0.03h6e-3c-2e-3 -0.01-3e-3 -0.02-4e-3 -0.03z" opacity=".3"/>
 <path id="path55" d="m3.5 10a2.5 2.5 0 0 0-2.5 2.5 2.5 2.5 0 0 0 0.053 0.5 2.5 2.5 0 0 1 2.447-2 2.5 2.5 0 0 1 2.447 2 2.5 2.5 0 0 0 0.053-0.5 2.5 2.5 0 0 0-2.5-2.5z" opacity=".3"/>
</svg>
