<?xml version="1.0" encoding="UTF-8"?>
<svg id="svg30" width="16" height="16" version="1.1" xmlns="http://www.w3.org/2000/svg" xmlns:cc="http://creativecommons.org/ns#" xmlns:dc="http://purl.org/dc/elements/1.1/" xmlns:rdf="http://www.w3.org/1999/02/22-rdf-syntax-ns#">
 <metadata id="metadata34">
  <rdf:RDF>
   <cc:Work rdf:about="">
    <dc:format>image/svg+xml</dc:format>
    <dc:type rdf:resource="http://purl.org/dc/dcmitype/StillImage"/>
   </cc:Work>
  </rdf:RDF>
 </metadata>
 <defs id="defs7">
  <radialGradient id="gr0" cx="9" cy="10" r="11" gradientTransform="matrix(1 0 0 .72727 0 2.7273)" gradientUnits="userSpaceOnUse">
   <stop id="stop2" stop-opacity=".23529" offset="0"/>
   <stop id="stop4" stop-opacity=".54902" offset="1"/>
  </radialGradient>
 </defs>
 <path id="path9" d="m6 0c-1.5708 2.8855e-16 -3.1315 0.64709-4.2422 1.7578-1.1107 1.1107-1.7578 2.6714-1.7578 4.2422 1.9237e-16 1.5708 0.64709 3.1315 1.7578 4.2422 1.1107 1.1107 2.6714 1.7578 4.2422 1.7578a1 1.0001 0 0 0 0.00195 0c0.87958-0.0014 1.7297-0.2603 2.5254-0.6348l4.0489 4.0489c0.7711 0.7711 2.0569 0.771 2.8281 0l0.0098-0.0098c0.7711-0.7711 0.771-2.057 0-2.8281l-4.0489-4.0489c0.3745-0.79568 0.6334-1.6458 0.6348-2.5254a1.0001 1.0001 0 0 0 0-0.00195c0-1.5708-0.6471-3.1315-1.7578-4.2422-1.0181-1.0181-2.4239-1.5839-3.8594-1.6816a1.0001 1.0001 0 0 0-0.38281-0.076172zm0 1a5 5 0 0 1 5 5 5 5 0 0 1-0.8281 2.748l4.5351 4.5352c0.3917 0.3918 0.3917 1.0224 0 1.4141l-0.0097 0.0097c-0.3918 0.3917-1.0224 0.3917-1.4141 0l-4.5352-4.5351a5 5 0 0 1-2.748 0.8281 5 5 0 0 1-5-5 5 5 0 0 1 5-5z" fill="#fff" opacity=".05"/>
 <path id="base" d="m6 1a5 5 0 0 0-5 5 5 5 0 0 0 5 5 5 5 0 0 0 2.748-0.82812l4.5352 4.5352c0.39174 0.39174 1.0223 0.39174 1.4141 0l0.009765-0.009765c0.39174-0.39174 0.39174-1.0223 0-1.4141l-4.5352-4.5352a5 5 0 0 0 0.82812-2.748 5 5 0 0 0-5-5zm0 2a3 3 0 0 1 3 3 3 3 0 0 1-3 3 3 3 0 0 1-3-3 3 3 0 0 1 3-3z" fill="url(#gr0)"/>
 <path id="path15" d="m6 1a5 5 0 0 0-5 5 5 5 0 0 0 5 5 5 5 0 0 0 2.748-0.8281l4.5352 4.5351c0.3917 0.3917 1.0223 0.3917 1.4141 0l0.0097-0.0097c0.3917-0.3917 0.3917-1.0223 0-1.4141l-4.5351-4.5352a5 5 0 0 0 0.8281-2.748 5 5 0 0 0-5-5zm0 0.5c1.1781 0 2.3486 0.48532 3.1816 1.3184 0.83306 0.83304 1.3184 2.0035 1.3184 3.1816-0.0014 0.8733-0.2647 1.744-0.74609 2.4727a0.50005 0.50005 0 0 0 0.06445 0.6289l4.5351 4.5351c0.2021 0.2021 0.2021 0.505 0 0.7071l-0.0097 0.0097c-0.2022 0.2021-0.505 0.2021-0.7071 0l-4.5351-4.5351a0.50005 0.50005 0 0 0-0.6289-0.06445c-0.72866 0.48139-1.5994 0.74469-2.4727 0.74609-1.1781 0-2.3486-0.4853-3.1816-1.3184-0.83304-0.83304-1.3184-2.0035-1.3184-3.1816s0.48532-2.3486 1.3184-3.1816 2.0035-1.3184 3.1816-1.3184z" opacity=".3"/>
 <path id="path20" d="m6 3a3 3 0 0 0-3 3 3 3 0 0 0 0.04297 0.51367 3 3 0 0 1 2.957-2.5137 3 3 0 0 1 2.957 2.4863 3 3 0 0 0 0.04297-0.48633 3 3 0 0 0-3-3zm4.9727 3.4844a5 5 0 0 1-0.8008 2.2637l0.3535 0.35351a5 5 0 0 0 0.4746-2.1016 5 5 0 0 0-0.0273-0.51562zm-9.9454 0.03124a5 5 0 0 0-0.02734 0.48438 5 5 0 0 0 5 5 5 5 0 0 0 2.748-0.8281l4.5352 4.5351c0.3917 0.3917 1.0223 0.3917 1.4141 0l0.0097-0.0097c0.3303-0.3303 0.3653-0.8235 0.1387-1.2071-0.0421 0.0711-0.0775 0.1459-0.1387 0.2071l-0.0097 0.0097c-0.3918 0.3917-1.0224 0.3917-1.4141 0l-4.5352-4.5351a5 5 0 0 1-2.748 0.8281 5 5 0 0 1-4.9727-4.4844z" fill="#fff" opacity=".2"/>
 <path id="path25" d="m6 1a5 5 0 0 0-5 5 5 5 0 0 0 0.02734 0.51562 5 5 0 0 1 4.9727-4.5156 5 5 0 0 1 4.9727 4.4844 5 5 0 0 0 0.0273-0.48438 5 5 0 0 0-5-5zm2.957 5.4863a3 3 0 0 1-2.957 2.5137 3 3 0 0 1-2.957-2.4863 3 3 0 0 0-0.04297 0.48633 3 3 0 0 0 3 3 3 3 0 0 0 3-3 3 3 0 0 0-0.04297-0.51367zm1.5684 2.6152a5 5 0 0 1-0.3535 0.64649l4.5351 4.5352c0.0615 0.0615 0.0965 0.1357 0.1387 0.207 0.2272-0.3836 0.1918-0.8764-0.1387-1.207l-4.1816-4.1816z" opacity=".3"/>
</svg>
