<?xml version="1.0" encoding="UTF-8"?>
<!-- Created with Inkscape (http://www.inkscape.org/) -->
<svg id="svg2408" width="96" height="96" version="1.0" xmlns="http://www.w3.org/2000/svg" xmlns:cc="http://creativecommons.org/ns#" xmlns:dc="http://purl.org/dc/elements/1.1/" xmlns:rdf="http://www.w3.org/1999/02/22-rdf-syntax-ns#" xmlns:xlink="http://www.w3.org/1999/xlink">
 <defs id="defs2410">
  <linearGradient id="linearGradient3888">
   <stop id="stop3890" stop-color="#717249" offset="0"/>
   <stop id="stop3892" stop-color="#717249" stop-opacity="0" offset="1"/>
  </linearGradient>
  <linearGradient id="linearGradient3720">
   <stop id="stop3722" stop-color="#928075" offset="0"/>
   <stop id="stop3724" stop-color="#5b4f48" offset="1"/>
  </linearGradient>
  <linearGradient id="linearGradient3778">
   <stop id="stop3780" stop-color="#323232" offset="0"/>
   <stop id="stop3782" stop-color="#505050" offset="1"/>
  </linearGradient>
  <linearGradient id="ButtonShadow" x1="45.448" x2="45.448" y1="92.54" y2="7.0165" gradientTransform="scale(1.0059 .99417)" gradientUnits="userSpaceOnUse">
   <stop id="stop3750" offset="0"/>
   <stop id="stop3752" stop-opacity=".58824" offset="1"/>
  </linearGradient>
  <linearGradient id="linearGradient3706" x1="48" x2="48" y1="90" y2="5.9877" gradientUnits="userSpaceOnUse">
   <stop id="stop3189" stop-color="#bcb5ac" offset="0"/>
   <stop id="stop3191" stop-color="#e9e7e4" offset="1"/>
  </linearGradient>
  <filter id="filter3174" color-interpolation-filters="sRGB">
   <feGaussianBlur id="feGaussianBlur3176" stdDeviation="1.71"/>
  </filter>
  <linearGradient id="linearGradient3188" x1="36.357" x2="36.357" y1="6" y2="63.893" gradientUnits="userSpaceOnUse">
   <stop id="stop3739" stop-color="#fff" offset="0"/>
   <stop id="stop3741" stop-color="#fff" stop-opacity="0" offset="1"/>
  </linearGradient>
  <linearGradient id="linearGradient3735" x1="30.247" x2="30.247" y1="102" y2="112" gradientTransform="matrix(.75 0 0 .75 -3 -36.75)" gradientUnits="userSpaceOnUse" xlink:href="#linearGradient3778"/>
  <linearGradient id="linearGradient3738" x1="30.247" x2="30.247" y1="102" y2="112" gradientTransform="matrix(.75 0 0 .75 15 -36.75)" gradientUnits="userSpaceOnUse" xlink:href="#linearGradient3778"/>
  <linearGradient id="linearGradient3740" x1="30.247" x2="30.247" y1="102" y2="112" gradientTransform="matrix(.75 0 0 .75 33 -36.75)" gradientUnits="userSpaceOnUse" xlink:href="#linearGradient3778"/>
  <linearGradient id="linearGradient3742" x1="93.747" x2="93.747" y1="54" y2="64" gradientTransform="matrix(.75 0 0 .75 3 -.75001)" gradientUnits="userSpaceOnUse">
   <stop id="stop3772" stop-color="#802b27" offset="0"/>
   <stop id="stop3774" stop-color="#a93833" offset="1"/>
  </linearGradient>
  <linearGradient id="linearGradient3754" x1="30.247" x2="30.247" y1="102" y2="112" gradientTransform="matrix(.75 0 0 .75 -3 -24.75)" gradientUnits="userSpaceOnUse" xlink:href="#linearGradient3778"/>
  <linearGradient id="linearGradient3756" x1="30.247" x2="30.247" y1="102" y2="112" gradientTransform="matrix(.75 0 0 .75 15 -24.75)" gradientUnits="userSpaceOnUse" xlink:href="#linearGradient3778"/>
  <linearGradient id="linearGradient3758" x1="30.247" x2="30.247" y1="102" y2="112" gradientTransform="matrix(.75 0 0 .75 33 -24.75)" gradientUnits="userSpaceOnUse" xlink:href="#linearGradient3778"/>
  <linearGradient id="linearGradient3761" x1="96" x2="96" y1="80" y2="70" gradientTransform="matrix(.75 0 0 .75 3 -.75001)" gradientUnits="userSpaceOnUse" xlink:href="#linearGradient3720"/>
  <linearGradient id="linearGradient3773" x1="30.247" x2="30.247" y1="102" y2="112" gradientTransform="matrix(.75 0 0 .75 -3 -12.75)" gradientUnits="userSpaceOnUse" xlink:href="#linearGradient3778"/>
  <linearGradient id="linearGradient3775" x1="30.247" x2="30.247" y1="102" y2="112" gradientTransform="matrix(.75 0 0 .75 15 -12.75)" gradientUnits="userSpaceOnUse" xlink:href="#linearGradient3778"/>
  <linearGradient id="linearGradient3777" x1="30.247" x2="30.247" y1="102" y2="112" gradientTransform="matrix(.75 0 0 .75 33 -12.75)" gradientUnits="userSpaceOnUse" xlink:href="#linearGradient3778"/>
  <linearGradient id="linearGradient3779" x1="95.746" x2="95.746" y1="96" y2="85.997" gradientTransform="matrix(.75 0 0 .75 3 -.75002)" gradientUnits="userSpaceOnUse" xlink:href="#linearGradient3720"/>
  <linearGradient id="linearGradient3791" x1="30.247" x2="30.247" y1="102" y2="112" gradientTransform="matrix(.75 0 0 .75 -3 -.75002)" gradientUnits="userSpaceOnUse" xlink:href="#linearGradient3778"/>
  <linearGradient id="linearGradient3793" x1="53.333" x2="53.333" y1="102" y2="112" gradientTransform="matrix(.75 0 0 .75 -.99999 -159.75)" gradientUnits="userSpaceOnUse" xlink:href="#linearGradient3720"/>
  <linearGradient id="linearGradient3795" x1="74.667" x2="74.667" y1="112" y2="102" gradientTransform="matrix(.75 0 0 .75 1 -.75002)" gradientUnits="userSpaceOnUse" xlink:href="#linearGradient3720"/>
  <linearGradient id="linearGradient3797" x1="94.746" x2="94.746" y1="102" y2="112.05" gradientTransform="matrix(.75 0 0 .75 3 -.75002)" gradientUnits="userSpaceOnUse">
   <stop id="stop3764" stop-color="#c06517" offset="0"/>
   <stop id="stop3766" stop-color="#e88b3b" offset="1"/>
  </linearGradient>
  <linearGradient id="linearGradient3812" x1="64" x2="64" y1="15.5" y2="35.771" gradientTransform="matrix(1.025 0 0 1.0625 -9.6 -4)" gradientUnits="userSpaceOnUse">
   <stop id="stop3467" stop-color="#ccc7c1" offset="0"/>
   <stop id="stop3469" stop-color="#fefefd" stop-opacity=".58015" offset="1"/>
  </linearGradient>
  <radialGradient id="radialGradient2855" cx="48" cy="90.172" r="42" gradientTransform="matrix(1.1573 0 0 .99591 -7.551 .19713)" gradientUnits="userSpaceOnUse">
   <stop id="stop3739-7" stop-color="#fff" offset="0"/>
   <stop id="stop3741-2" stop-color="#fff" stop-opacity="0" offset="1"/>
  </radialGradient>
  <linearGradient id="ButtonShadow-0" x1="45.448" x2="45.448" y1="92.54" y2="7.0165" gradientTransform="matrix(1.0059 0 0 .99417 100 0)" gradientUnits="userSpaceOnUse">
   <stop id="stop3750-8" offset="0"/>
   <stop id="stop3752-5" stop-opacity=".58824" offset="1"/>
  </linearGradient>
  <linearGradient id="linearGradient3780" x1="32.251" x2="32.251" y1="6.1317" y2="90.239" gradientTransform="matrix(1.0238 0 0 1.0119 -1.1429 -98.071)" gradientUnits="userSpaceOnUse" xlink:href="#ButtonShadow-0"/>
  <linearGradient id="linearGradient3721" x1="32.251" x2="32.251" y1="6.1317" y2="90.239" gradientTransform="translate(0,-97)" gradientUnits="userSpaceOnUse" xlink:href="#ButtonShadow-0"/>
  <linearGradient id="linearGradient3894" x1="34" x2="34" y1="14" y2="39" gradientUnits="userSpaceOnUse" xlink:href="#linearGradient3888"/>
  <linearGradient id="linearGradient3902" x1="37" x2="37" y1="16" y2="49" gradientUnits="userSpaceOnUse" xlink:href="#linearGradient3888"/>
 </defs>
 <metadata id="metadata2413">
  <rdf:RDF>
   <cc:Work rdf:about="">
    <dc:format>image/svg+xml</dc:format>
    <dc:type rdf:resource="http://purl.org/dc/dcmitype/StillImage"/>
   </cc:Work>
  </rdf:RDF>
 </metadata>
 <g id="layer2" display="none">
  <rect id="rect3745" x="5" y="7" width="86" height="85" rx="6" ry="6" fill="url(#ButtonShadow)" filter="url(#filter3174)" opacity=".9"/>
 </g>
 <g id="layer5">
  <path id="path3786" transform="scale(1,-1)" d="m12-95.031c-5.5111 0-10.031 4.5202-10.031 10.031v71c0 5.5111 4.5202 10.031 10.031 10.031h72c5.5111 0 10.031-4.5202 10.031-10.031v-71c0-5.5111-4.5202-10.031-10.031-10.031h-72z" fill="url(#linearGradient3780)" opacity=".08"/>
  <path id="path3778" transform="scale(1,-1)" d="m12-94.031c-4.9716 0-9.0312 4.0596-9.0312 9.0312v71c0 4.9716 4.0596 9.0312 9.0312 9.0312h72c4.9716 0 9.0312-4.0596 9.0312-9.0312v-71c0-4.9716-4.0596-9.0312-9.0312-9.0312h-72z" fill="url(#linearGradient3780)" opacity=".1"/>
  <path id="path3770" transform="scale(1,-1)" d="m12-93c-4.4091 0-8 3.5909-8 8v71c0 4.4091 3.5909 8 8 8h72c4.4091 0 8-3.5909 8-8v-71c0-4.4091-3.5909-8-8-8h-72z" fill="url(#linearGradient3780)" opacity=".2"/>
  <rect id="rect3723" transform="scale(1,-1)" x="5" y="-92" width="86" height="85" rx="7" ry="7" fill="url(#linearGradient3780)" opacity=".3"/>
  <rect id="rect3716" transform="scale(1,-1)" x="6" y="-91" width="84" height="84" rx="6" ry="6" fill="url(#linearGradient3721)" opacity=".45"/>
 </g>
 <g id="layer4">
  <rect id="rect3907" x="13.429" y="10.714" width="68.393" height="26.107" rx="2.5647" ry="2.4475" fill="#bdc490"/>
  <g id="g3824" transform="matrix(.77679 0 0 .77679 18.259 5.3571)">
   <path id="path3961" d="m68.217 22.238-1.896 1.496-1.921-1.496v-3.0174l1.921-1.496 1.896 1.496v3.0174m-2.2204-4.7417-1.896 1.5214h-3.817l-1.896-1.5214 1.896-1.496h3.817l1.896 1.496m2.2204 11.208-1.896 1.496-1.921-1.496v-3.0174l1.921-1.496 1.896 1.496v3.0174m-8.183-6.4659-1.896 1.496-1.921-1.496v-3.0174l1.921-1.496 1.896 1.496v3.0174m5.9626 8.2662-1.921 1.496h-3.7921l-1.921-1.496 1.921-1.5214h3.7921l1.921 1.5214m-5.9626-1.8003-1.896 1.496-1.921-1.496v-3.0174l1.921-1.496 1.896 1.496v3.0174" opacity=".5"/>
   <path id="text3944" d="m74.139 30.473-2.0445 1.5269-1.8893-1.5269 1.9669-1.5528 1.9669 1.5528" opacity=".5"/>
  </g>
  <path id="rect3761" d="m17 14c-0.554 0-1 0.446-1 1v18c0 0.554 0.446 1 1 1h62c0.554 0 1-0.446 1-1v-18c0-0.554-0.446-1-1-1zm1.0312 2.0312h59.938v15.938h-59.938z" color="#000000" fill="url(#linearGradient3902)" opacity=".3"/>
  <path id="rect3757" d="m17 14c-0.554 0-1 0.446-1 1v18c0 0.554 0.446 1 1 1h62c0.554 0 1-0.446 1-1v-18c0-0.554-0.446-1-1-1zm0.03125 1.0312h61.938v17.938h-61.938z" color="#000000" fill="url(#linearGradient3894)" opacity=".6"/>
 </g>
 <g id="layer1">
  <path id="rect2419" d="m12 6c-3.324 0-6 2.676-6 6v72c0 3.324 2.676 6 6 6h72c3.324 0 6-2.676 6-6v-72c0-3.324-2.676-6-6-6h-72zm6 7h60c1.108 0 2 0.892 2 2v18c0 1.108-0.892 2-2 2h-60c-1.108 0-2-0.892-2-2v-18c0-1.108 0.892-2 2-2z" fill="url(#linearGradient3706)"/>
  <path id="rect3728" d="m12 6c-3.324 0-6 2.676-6 6v2 68 2c0 0.33472 0.04135 0.6507 0.09375 0.96875 0.0487 0.2956 0.09704 0.59692 0.1875 0.875 0.00988 0.03038 0.020892 0.0636 0.03125 0.09375 0.098865 0.28777 0.23488 0.54745 0.375 0.8125 0.14459 0.27351 0.31562 0.53562 0.5 0.78125s0.37378 0.47347 0.59375 0.6875c0.43995 0.42806 0.94291 0.81453 1.5 1.0938 0.27854 0.13961 0.57347 0.24695 0.875 0.34375-0.2562-0.10022-0.48671-0.23627-0.71875-0.375-0.00741-0.0044-0.023866 0.0045-0.03125 0-0.031933-0.0193-0.062293-0.04251-0.09375-0.0625-0.1204-0.0767-0.23102-0.16351-0.34375-0.25-0.10617-0.0808-0.21328-0.16111-0.3125-0.25-0.17793-0.16143-0.34746-0.34539-0.5-0.53125-0.10758-0.13026-0.21839-0.26528-0.3125-0.40625-0.025089-0.03838-0.038446-0.08587-0.0625-0.125-0.064763-0.10303-0.13023-0.20452-0.1875-0.3125-0.10101-0.19471-0.20567-0.4157-0.28125-0.625-0.00796-0.02181-0.023589-0.04055-0.03125-0.0625-0.031825-0.09195-0.035804-0.18683-0.0625-0.28125-0.030332-0.10662-0.070389-0.20303-0.09375-0.3125-0.072879-0.34151-0.125-0.6982-0.125-1.0625v-2-68-2c0-2.7818 2.2182-5 5-5h2 68 2c2.7818 0 5 2.2182 5 5v2 68 2c0 0.3643-0.05212 0.72099-0.125 1.0625-0.04415 0.20689-0.08838 0.39766-0.15625 0.59375-0.0077 0.02195-0.0233 0.04069-0.03125 0.0625-0.06274 0.17374-0.13838 0.36745-0.21875 0.53125-0.04158 0.0828-0.07904 0.16995-0.125 0.25-0.0546 0.09721-0.12677 0.18835-0.1875 0.28125-0.09411 0.14096-0.20492 0.276-0.3125 0.40625-0.14317 0.17445-0.30314 0.347-0.46875 0.5-0.01117 0.0102-0.01998 0.02115-0.03125 0.03125-0.13839 0.12556-0.28509 0.23444-0.4375 0.34375-0.10257 0.07315-0.20432 0.15336-0.3125 0.21875-0.0074 0.0045-0.02384-0.0044-0.03125 0-0.23204 0.13873-0.46255 0.27478-0.71875 0.375 0.30153-0.0968 0.59646-0.20414 0.875-0.34375 0.55709-0.27922 1.0601-0.66569 1.5-1.0938 0.21997-0.21403 0.40937-0.44186 0.59375-0.6875s0.35541-0.50774 0.5-0.78125c0.14012-0.26505 0.27614-0.52473 0.375-0.8125 0.01041-0.03078 0.02133-0.06274 0.03125-0.09375 0.09046-0.27808 0.1388-0.5794 0.1875-0.875 0.0524-0.31805 0.09375-0.63403 0.09375-0.96875v-2-68-2c0-3.324-2.676-6-6-6h-72z" fill="url(#linearGradient3188)" opacity=".5"/>
  <rect id="rect3425" x="15" y="13" width="66" height="22" rx="2" ry="2" fill="none" stroke="url(#linearGradient3812)" stroke-linecap="square" stroke-linejoin="round" stroke-width="2"/>
  <path id="path3615" d="m12 90c-3.324 0-6-2.676-6-6v-2-68-2c0-0.33472 0.04135-0.6507 0.09375-0.96875 0.0487-0.2956 0.09704-0.59692 0.1875-0.875 0.0099-0.03038 0.02089-0.0636 0.03125-0.09375 0.09886-0.28777 0.23488-0.54745 0.375-0.8125 0.14459-0.27351 0.31562-0.53562 0.5-0.78125s0.37378-0.47347 0.59375-0.6875c0.43995-0.42806 0.94291-0.81453 1.5-1.0938 0.27854-0.13961 0.57347-0.24695 0.875-0.34375-0.2562 0.10022-0.48671 0.23627-0.71875 0.375-0.0074 0.0044-0.02387-0.0045-0.03125 0-0.03193 0.0193-0.06229 0.04251-0.09375 0.0625-0.1204 0.0767-0.23102 0.16351-0.34375 0.25-0.10617 0.0808-0.21328 0.16111-0.3125 0.25-0.17793 0.16143-0.34746 0.34539-0.5 0.53125-0.10758 0.13026-0.21839 0.26528-0.3125 0.40625-0.02509 0.03838-0.03845 0.08587-0.0625 0.125-0.06476 0.10303-0.13023 0.20452-0.1875 0.3125-0.10101 0.19471-0.20568 0.4157-0.28125 0.625-8e-3 0.02181-0.02359 0.04055-0.03125 0.0625-0.03182 0.09195-0.0358 0.18683-0.0625 0.28125-0.03033 0.10662-0.07039 0.20303-0.09375 0.3125-0.072879 0.34151-0.125 0.6982-0.125 1.0625v2 68 2c0 2.7818 2.2182 5 5 5h2 68 2c2.7818 0 5-2.2182 5-5v-2-68-2c0-0.3643-0.05212-0.72099-0.125-1.0625-0.04415-0.20689-0.08838-0.39766-0.15625-0.59375-0.0077-0.02195-0.0233-0.04069-0.03125-0.0625-0.06274-0.17374-0.13838-0.36745-0.21875-0.53125-0.04158-0.0828-0.07904-0.16995-0.125-0.25-0.0546-0.09721-0.12677-0.18835-0.1875-0.28125-0.09411-0.14096-0.20492-0.276-0.3125-0.40625-0.14317-0.17445-0.30314-0.347-0.46875-0.5-0.01117-0.0102-0.01998-0.02115-0.03125-0.03125-0.13839-0.12556-0.28509-0.23444-0.4375-0.34375-0.10257-0.07315-0.20432-0.15336-0.3125-0.21875-0.0074-0.0045-0.02384 0.0044-0.03125 0-0.23204-0.13873-0.46255-0.27478-0.71875-0.375 0.30153 0.0968 0.59646 0.20414 0.875 0.34375 0.55709 0.27922 1.0601 0.66569 1.5 1.0938 0.21997 0.21403 0.40937 0.44186 0.59375 0.6875s0.35541 0.50774 0.5 0.78125c0.14012 0.26505 0.27614 0.52473 0.375 0.8125 0.01041 0.03078 0.02133 0.06274 0.03125 0.09375 0.09046 0.27808 0.1388 0.5794 0.1875 0.875 0.0524 0.31805 0.09375 0.63403 0.09375 0.96875v2 68 2c0 3.324-2.676 6-6 6h-72z" fill="url(#radialGradient2855)" opacity=".5"/>
 </g>
 <g id="layer3">
  <path id="path3773" d="m16.125 39.844c-0.97087 0-1.7812 0.81038-1.7812 1.7812v5.25c0 0.97087 0.81038 1.7813 1.7812 1.7812h9.75c0.97087 0 1.7812-0.81038 1.7812-1.7812v-5.25c0-0.97087-0.81038-1.7812-1.7812-1.7812h-9.75zm18 0c-0.97087 0-1.7812 0.81038-1.7812 1.7812v5.25c0 0.97087 0.81038 1.7813 1.7812 1.7812h9.75c0.97087 0 1.7812-0.81038 1.7812-1.7812v-5.25c0-0.97087-0.81038-1.7812-1.7812-1.7812h-9.75zm18 0c-0.97087 0-1.7812 0.81038-1.7812 1.7812v5.25c0 0.97087 0.81038 1.7813 1.7812 1.7812h9.75c0.97087 0 1.7812-0.81038 1.7812-1.7812v-5.25c0-0.97087-0.81038-1.7812-1.7812-1.7812h-9.75zm18 0c-0.97087 0-1.7812 0.81038-1.7812 1.7812v5.25c0 0.97087 0.81038 1.7813 1.7812 1.7812h9.75c0.97087 0 1.7812-0.81038 1.7812-1.7812v-5.25c0-0.97087-0.81038-1.7812-1.7812-1.7812h-9.75zm-54 12c-0.97087 0-1.7812 0.81038-1.7812 1.7812v5.25c0 0.97087 0.81038 1.7813 1.7812 1.7812h9.75c0.97087 0 1.7812-0.81038 1.7812-1.7812v-5.25c0-0.97087-0.81038-1.7812-1.7812-1.7812h-9.75zm18 0c-0.97087 0-1.7812 0.81038-1.7812 1.7812v5.25c0 0.97087 0.81038 1.7813 1.7812 1.7812h9.75c0.97087 0 1.7812-0.81038 1.7812-1.7812v-5.25c0-0.97087-0.81038-1.7812-1.7812-1.7812h-9.75zm18 0c-0.97087 0-1.7812 0.81038-1.7812 1.7812v5.25c0 0.97087 0.81038 1.7813 1.7812 1.7812h9.75c0.97087 0 1.7812-0.81038 1.7812-1.7812v-5.25c0-0.97087-0.81038-1.7812-1.7812-1.7812h-9.75zm18 0c-0.97087 0-1.7812 0.81038-1.7812 1.7812v5.25c0 0.97087 0.81038 1.7813 1.7812 1.7812h9.75c0.97087 0 1.7812-0.81038 1.7812-1.7812v-5.25c0-0.97087-0.81038-1.7812-1.7812-1.7812h-9.75zm-54 12c-0.97087 0-1.7812 0.81038-1.7812 1.7812v5.25c0 0.97087 0.81038 1.7813 1.7812 1.7812h9.75c0.97087 0 1.7812-0.81038 1.7812-1.7812v-5.25c0-0.97087-0.81038-1.7812-1.7812-1.7812h-9.75zm18 0c-0.97087 0-1.7812 0.81038-1.7812 1.7812v5.25c0 0.97087 0.81038 1.7813 1.7812 1.7812h9.75c0.97087 0 1.7812-0.81038 1.7812-1.7812v-5.25c0-0.97087-0.81038-1.7812-1.7812-1.7812h-9.75zm18 0c-0.97087 0-1.7812 0.81038-1.7812 1.7812v5.25c0 0.97087 0.81038 1.7813 1.7812 1.7812h9.75c0.97087 0 1.7812-0.81038 1.7812-1.7812v-5.25c0-0.97087-0.81038-1.7812-1.7812-1.7812h-9.75zm18 0c-0.97087 0-1.7812 0.81038-1.7812 1.7812v5.25c0 0.97087 0.81038 1.7813 1.7812 1.7812h9.75c0.97087 0 1.7812-0.81038 1.7812-1.7812v-5.25c0-0.97087-0.81038-1.7812-1.7812-1.7812h-9.75zm-54 12c-0.97087 0-1.7812 0.81038-1.7812 1.7812v5.25c0 0.97087 0.81038 1.7813 1.7812 1.7812h9.75c0.97087 0 1.7812-0.81038 1.7812-1.7812v-5.25c0-0.97087-0.81038-1.7812-1.7812-1.7812h-9.75zm18 0c-0.97088-2e-6 -1.7812 0.81038-1.7812 1.7812v5.25c0 0.97087 0.81038 1.7812 1.7812 1.7812h9.75c0.97087 0 1.7812-0.81038 1.7812-1.7812v-5.25c-2e-6 -0.97087-0.81038-1.7812-1.7812-1.7812h-9.75zm18 0c-0.97087 0-1.7812 0.81038-1.7812 1.7812v5.25c0 0.97087 0.81038 1.7813 1.7812 1.7812h9.75c0.97087 0 1.7812-0.81038 1.7812-1.7812v-5.25c0-0.97087-0.81038-1.7812-1.7812-1.7812h-9.75zm18 0c-0.97087 0-1.7812 0.81038-1.7812 1.7812v5.25c0 0.97087 0.81038 1.7813 1.7812 1.7812h9.75c0.97087 0 1.7812-0.81038 1.7812-1.7812v-5.25c0-0.97087-0.81038-1.7812-1.7812-1.7812h-9.75z" opacity=".2"/>
  <path id="rect3636" d="m16.125 40.5c-0.62325 0-1.125 0.50175-1.125 1.125v5.25c0 0.62325 0.50175 1.125 1.125 1.125h9.75c0.62325 0 1.125-0.50175 1.125-1.125v-5.25c0-0.62325-0.50175-1.125-1.125-1.125h-9.75zm18 0c-0.62325 0-1.125 0.50175-1.125 1.125v5.25c0 0.62325 0.50175 1.125 1.125 1.125h9.75c0.62325 0 1.125-0.50175 1.125-1.125v-5.25c0-0.62325-0.50175-1.125-1.125-1.125h-9.75zm18 0c-0.62325 0-1.125 0.50175-1.125 1.125v5.25c0 0.62325 0.50175 1.125 1.125 1.125h9.75c0.62325 0 1.125-0.50175 1.125-1.125v-5.25c0-0.62325-0.50175-1.125-1.125-1.125h-9.75zm18 0c-0.62325 0-1.125 0.50175-1.125 1.125v5.25c0 0.62325 0.50175 1.125 1.125 1.125h9.75c0.62325 0 1.125-0.50175 1.125-1.125v-5.25c0-0.62325-0.50175-1.125-1.125-1.125h-9.75zm-54 12c-0.62325 0-1.125 0.50175-1.125 1.125v5.25c0 0.62325 0.50175 1.125 1.125 1.125h9.75c0.62325 0 1.125-0.50175 1.125-1.125v-5.25c0-0.62325-0.50175-1.125-1.125-1.125h-9.75zm18 0c-0.62325 0-1.125 0.50175-1.125 1.125v5.25c0 0.62325 0.50175 1.125 1.125 1.125h9.75c0.62325 0 1.125-0.50175 1.125-1.125v-5.25c0-0.62325-0.50175-1.125-1.125-1.125h-9.75zm18 0c-0.62325 0-1.125 0.50175-1.125 1.125v5.25c0 0.62325 0.50175 1.125 1.125 1.125h9.75c0.62325 0 1.125-0.50175 1.125-1.125v-5.25c0-0.62325-0.50175-1.125-1.125-1.125h-9.75zm18 0c-0.62325 0-1.125 0.50175-1.125 1.125v5.25c0 0.62325 0.50175 1.125 1.125 1.125h9.75c0.62325 0 1.125-0.50175 1.125-1.125v-5.25c0-0.62325-0.50175-1.125-1.125-1.125h-9.75zm-54 12c-0.62325 0-1.125 0.50175-1.125 1.125v5.25c0 0.62325 0.50175 1.125 1.125 1.125h9.75c0.62325 0 1.125-0.50175 1.125-1.125v-5.25c0-0.62325-0.50175-1.125-1.125-1.125h-9.75zm18 0c-0.62325 0-1.125 0.50175-1.125 1.125v5.25c0 0.62325 0.50175 1.125 1.125 1.125h9.75c0.62325 0 1.125-0.50175 1.125-1.125v-5.25c0-0.62325-0.50175-1.125-1.125-1.125h-9.75zm18 0c-0.62325 0-1.125 0.50175-1.125 1.125v5.25c0 0.62325 0.50175 1.125 1.125 1.125h9.75c0.62325 0 1.125-0.50175 1.125-1.125v-5.25c0-0.62325-0.50175-1.125-1.125-1.125h-9.75zm18 0c-0.62325 0-1.125 0.50175-1.125 1.125v5.25c0 0.62325 0.50175 1.125 1.125 1.125h9.75c0.62325 0 1.125-0.50175 1.125-1.125v-5.25c0-0.62325-0.50175-1.125-1.125-1.125h-9.75zm-54 12c-0.62325 0-1.125 0.50175-1.125 1.125v5.25c0 0.62325 0.50175 1.125 1.125 1.125h9.75c0.62325 0 1.125-0.50175 1.125-1.125v-5.25c0-0.62325-0.50175-1.125-1.125-1.125h-9.75zm18 0c-0.62325-1e-6 -1.125 0.50175-1.125 1.125v5.25c0 0.62325 0.50175 1.125 1.125 1.125h9.75c0.62325 0 1.125-0.50175 1.125-1.125v-5.25c-1e-6 -0.62325-0.50175-1.125-1.125-1.125h-9.75zm18 0c-0.62325 0-1.125 0.50175-1.125 1.125v5.25c0 0.62325 0.50175 1.125 1.125 1.125h9.75c0.62325 0 1.125-0.50175 1.125-1.125v-5.25c0-0.62325-0.50175-1.125-1.125-1.125h-9.75zm18 0c-0.62325 0-1.125 0.50175-1.125 1.125v5.25c0 0.62325 0.50175 1.125 1.125 1.125h9.75c0.62325 0 1.125-0.50175 1.125-1.125v-5.25c0-0.62325-0.50175-1.125-1.125-1.125h-9.75z" opacity=".6"/>
  <g id="g3763" transform="translate(0 .25)">
   <rect id="rect3786" x="15" y="63.75" width="12" height="7.5" rx="1.125" ry="1.125" fill="url(#linearGradient3773)"/>
   <path id="text3826" d="m19.43 69.822v-0.68884h1.1503v-3.1674l-1.114 0.69543v-0.72839l1.1635-0.75476h0.87671v3.9551h1.0646v0.68884h-3.141" fill="#fff"/>
   <rect id="rect3798" x="33" y="63.75" width="12" height="7.5" rx="1.125" ry="1.125" fill="url(#linearGradient3775)"/>
   <path id="text3830" d="m37.375 69.857v-0.6427c0.10547-0.23071 0.23401-0.43835 0.38562-0.62292 0.15161-0.18677 0.30981-0.35705 0.47461-0.51086 0.16699-0.15601 0.33179-0.29993 0.49438-0.43176 0.16479-0.13403 0.31201-0.26257 0.44165-0.38562 0.13183-0.12524 0.2384-0.25049 0.3197-0.37573 0.08129-0.12524 0.12194-0.25818 0.12195-0.3988-7e-6 -0.20654-0.05164-0.35925-0.15491-0.45813-0.10327-0.09887-0.25488-0.14831-0.45483-0.14832-0.19776 5e-6 -0.34937 0.05384-0.45483 0.1615-0.10327 0.10547-0.17029 0.26477-0.20105 0.4779l-0.93274-0.05273c0.02197-0.18237 0.06702-0.35376 0.13513-0.51416 0.06811-0.1604 0.16479-0.30102 0.29004-0.42188 0.12744-0.12084 0.28564-0.21533 0.47461-0.28345 0.19116-0.07031 0.41858-0.10546 0.68225-0.10547 0.25048 4e-6 0.47241 0.02967 0.66577 0.08899 0.19335 0.05713 0.35595 0.14173 0.48779 0.25378 0.13183 0.11206 0.2318 0.24939 0.29992 0.41199 0.06811 0.1604 0.10216 0.34388 0.10217 0.55042-7e-6 0.21753-0.04285 0.41419-0.12854 0.58997-0.0857 0.17578-0.19556 0.33838-0.32959 0.48779-0.13404 0.14722-0.28345 0.28565-0.44824 0.41528-0.1626 0.12964-0.3208 0.25598-0.47461 0.37903-0.15381 0.12305-0.29444 0.24719-0.42188 0.37244-0.12524 0.12525-0.21863 0.25928-0.28015 0.4021h2.1555v0.76135h-3.2498" fill="#fff"/>
   <rect id="rect3810" x="51" y="63.75" width="12" height="7.5" rx="1.125" ry="1.125" fill="url(#linearGradient3777)"/>
   <path id="text3834" d="m58.678 68.53c0 0.21094-0.03516 0.401-0.10547 0.57019-0.06813 0.16699-0.17139 0.30981-0.30982 0.42847-0.13842 0.11865-0.31092 0.20984-0.51746 0.27356-0.20434 0.06152-0.44274 0.09229-0.71521 0.09229-0.30322 0-0.55921-0.03845-0.76794-0.11536-0.20654-0.0769-0.37683-0.17798-0.51087-0.30322-0.13183-0.12744-0.23181-0.27136-0.29992-0.43176-0.06592-0.1604-0.10877-0.323-0.12854-0.48779l0.94263-0.0824c0.01318 0.09888 0.03735 0.19006 0.07251 0.27356 0.03735 0.0813 0.08679 0.15161 0.14831 0.21094 0.06152 0.05933 0.13623 0.10547 0.22412 0.13843 0.09008 0.03076 0.19556 0.04614 0.3164 0.04614 0.22192 1e-6 0.39442-0.05493 0.51746-0.1648 0.12304-0.10986 0.18457-0.27795 0.18458-0.50427-8e-6 -0.13843-0.02967-0.24939-0.08899-0.33289-0.05713-0.08349-0.13073-0.14722-0.22082-0.19116-0.08789-0.04614-0.18348-0.0769-0.28674-0.09228-0.10328-0.01538-0.20105-0.02307-0.29334-0.02307h-0.32299v-0.74817h0.30323c0.09228 4e-6 0.18566-0.0088 0.28015-0.02637 0.09667-0.01758 0.18347-0.04944 0.26038-0.09558 0.0769-0.04614 0.13952-0.10986 0.18787-0.19116 0.04833-0.08349 0.07251-0.18896 0.07251-0.31641 0-0.19116-0.05383-0.34057-0.1615-0.44824-0.10547-0.10986-0.26038-0.16479-0.46472-0.1648-0.19117 3e-6 -0.34608 0.05274-0.46472 0.1582-0.11646 0.10547-0.18348 0.25489-0.20105 0.44824l-0.92615-0.06592c0.02637-0.21752 0.0857-0.40649 0.17798-0.5669 0.09449-0.1604 0.21204-0.29333 0.35267-0.3988 0.14282-0.10546 0.30652-0.18347 0.49108-0.23401 0.18458-0.05273 0.38013-0.0791 0.58668-0.0791 0.27246 5e-6 0.50647 0.03296 0.70203 0.09888 0.19554 0.06592 0.35595 0.15491 0.4812 0.26697 0.12523 0.11206 0.21752 0.2428 0.27685 0.39221 0.05932 0.14942 0.08899 0.30872 0.08899 0.4779 0 0.13623-0.01978 0.26368-0.05933 0.38232-0.03956 0.11646-0.09998 0.22193-0.18128 0.31641-0.07911 0.09229-0.18128 0.17249-0.30652 0.2406-0.12525 0.06592-0.27357 0.11536-0.44495 0.14832v0.01318c0.19116 0.02197 0.35706 0.06592 0.49768 0.13184 0.14062 0.06372 0.25598 0.14392 0.34607 0.2406 0.09008 0.09668 0.1571 0.20654 0.20105 0.32959 0.04394 0.12085 0.06592 0.24939 0.06592 0.38562" fill="#fff"/>
   <rect id="rect3380" x="69" y="63.75" width="12" height="7.5" rx="1.125" ry="1.125" fill="url(#linearGradient3779)"/>
   <path id="text3870" d="m75.408 67.91v1.4941h-0.82764v-1.4941h-1.4612v-0.82031h1.4612v-1.4941h0.82764v1.4941h1.4722v0.82031h-1.4722" fill="#fff"/>
  </g>
  <g id="g3744" transform="translate(0 .25)">
   <rect id="rect3790" x="15" y="51.75" width="12" height="7.5" rx="1.125" ry="1.125" fill="url(#linearGradient3754)"/>
   <path id="text3838" d="m22.188 56.876v0.94592h-0.8833v-0.94592h-2.1127v-0.69543l1.9611-3.0026h1.0349v3.0092h0.61963v0.68884h-0.61963m-0.8833-2.2083c-3e-6 -0.03735-3e-6 -0.08569 0-0.14502 0.0022-0.06152 0.0044-0.12414 0.0066-0.18787 0.0044-0.06372 0.0077-0.12414 0.0099-0.18127 0.0044-0.05932 0.0088-0.10546 0.01318-0.13843-0.01099 0.02417-0.02857 0.05933-0.05273 0.10547-0.02417 0.04395-0.05164 0.09229-0.0824 0.14502-0.02857 0.05054-0.05933 0.10108-0.09229 0.15161-0.03076 0.05054-0.05823 0.09449-0.0824 0.13184l-1.0778 1.6381h1.3579v-1.5194" fill="#fff"/>
   <rect id="rect3800" x="33" y="51.75" width="12" height="7.5" rx="1.125" ry="1.125" fill="url(#linearGradient3756)"/>
   <path id="text3842" d="m40.679 56.243c-8e-6 0.23291-0.03736 0.44824-0.11206 0.646-0.07251 0.19556-0.18128 0.36585-0.32629 0.51087-0.14503 0.14282-0.3252 0.25488-0.54053 0.33618-0.21314 0.0791-0.46033 0.11865-0.74158 0.11865-0.25928-1e-6 -0.4856-0.03076-0.67895-0.09228-0.19336-0.06372-0.35706-0.15051-0.49109-0.26038-0.13184-0.11206-0.23621-0.2428-0.31311-0.39221-0.07471-0.14941-0.12634-0.30981-0.15491-0.4812l0.92615-0.07581c0.01758 0.07251 0.04175 0.14282 0.07251 0.21094 0.03296 0.06812 0.078 0.12854 0.13513 0.18127 0.05713 0.05274 0.12744 0.09558 0.21094 0.12854 0.0835 0.03076 0.18457 0.04614 0.30322 0.04614 0.23071 1e-6 0.41418-0.07361 0.55041-0.22082 0.13843-0.14722 0.20764-0.35925 0.20764-0.63611 0-0.12304-0.01758-0.23401-0.05273-0.33289-0.03296-0.09887-0.08131-0.18347-0.14502-0.25378-0.06153-0.07031-0.13844-0.12414-0.23072-0.1615-0.09009-0.03735-0.19336-0.05603-0.30981-0.05603-0.15381 3e-6 -0.28015 0.02967-0.37903 0.08899-0.09888 0.05713-0.18237 0.12744-0.25049 0.21094h-0.90308l0.1615-2.6136h2.7916v0.68884h-1.9512l-0.07581 1.1733c0.09228-0.0813 0.20874-0.15051 0.34936-0.20764 0.14062-0.05932 0.30432-0.08899 0.49109-0.08899 0.22851 3e-6 0.43286 0.03736 0.61304 0.11206 0.18017 0.07471 0.33288 0.17908 0.45813 0.31311 0.12524 0.13404 0.22082 0.29553 0.28674 0.4845 0.06592 0.18677 0.09887 0.39441 0.09888 0.62292" fill="#fff"/>
   <rect id="rect3812" x="51" y="51.75" width="12" height="7.5" rx="1.125" ry="1.125" fill="url(#linearGradient3758)"/>
   <path id="text3846" d="m58.631 56.304c-8e-6 0.23291-0.03297 0.44714-0.09888 0.6427-0.06592 0.19336-0.16479 0.36035-0.29662 0.50098-0.12964 0.13843-0.29224 0.24719-0.48779 0.3263-0.19556 0.0769-0.42188 0.11536-0.67896 0.11536-0.54712 0-0.9679-0.19116-1.2623-0.57349-0.29223-0.38452-0.43836-0.95361-0.43836-1.7073 0-0.82837 0.14832-1.4513 0.44495-1.8688 0.29882-0.41967 0.72509-0.62951 1.2788-0.62952 0.18458 4e-6 0.35267 0.01978 0.50428 0.05933 0.1516 0.03736 0.28674 0.09888 0.40539 0.18457 0.11865 0.0857 0.21972 0.19666 0.30322 0.33289 0.08348 0.13404 0.15051 0.29774 0.20105 0.49109l-0.87342 0.12195c-0.04395-0.16259-0.11536-0.27905-0.21423-0.34937-0.09888-0.07251-0.21424-0.10876-0.34607-0.10876-0.24829 3e-6 -0.44385 0.12415-0.58668 0.37244-0.14062 0.2483-0.21093 0.62513-0.21093 1.1305 0.09887-0.16479 0.2362-0.29114 0.41199-0.37903 0.17578-0.08789 0.37463-0.13183 0.59656-0.13184 0.20433 3e-6 0.38891 0.03406 0.55371 0.10217 0.16698 0.06592 0.30871 0.1626 0.42517 0.29004 0.11865 0.12525 0.20983 0.27906 0.27356 0.46142 0.06372 0.18238 0.09558 0.38782 0.09558 0.61633m-0.92944 0.02637c0-0.12524-0.01428-0.2373-0.04285-0.33618-0.02857-0.10107-0.07251-0.18677-0.13183-0.25708-0.05713-0.07031-0.12854-0.12414-0.21423-0.1615-0.08569-0.03955-0.18458-0.05932-0.29663-0.05933-0.0813 1e-6 -0.1626 0.01319-0.2439 0.03955-0.0813 0.02637-0.15381 0.06921-0.21753 0.12854-0.06372 0.05713-0.11536 0.13074-0.15491 0.22082-0.03955 0.09009-0.05933 0.19885-0.05933 0.32629 0 0.13184 0.01647 0.25488 0.04944 0.36914 0.03295 0.11426 0.0791 0.21424 0.13842 0.29993 0.06152 0.0835 0.13512 0.14942 0.22082 0.19775 0.08569 0.04614 0.18237 0.06921 0.29004 0.06921 0.20873 1e-6 0.37133-0.07361 0.48779-0.22082 0.11645-0.14941 0.17468-0.35486 0.17468-0.61633" fill="#fff"/>
   <rect id="rect3372" x="69" y="51.75" width="12" height="7.5" rx="1.125" ry="1.125" fill="url(#linearGradient3761)"/>
   <path id="text3874" d="m73.385 55.947v-0.89356h3.2294v0.89356h-3.2294" fill="#fff"/>
  </g>
  <g id="g3725" transform="translate(0 .25)">
   <rect id="rect3794" x="15" y="39.75" width="12" height="7.5" rx="1.125" ry="1.125" fill="url(#linearGradient3735)"/>
   <path id="text3850" d="m22.584 41.913c-0.20874 0.32959-0.4065 0.6493-0.59326 0.95911-0.18457 0.30982-0.34607 0.62183-0.4845 0.93604-0.13843 0.31201-0.24829 0.63391-0.32959 0.9657-0.0791 0.32959-0.11865 0.67896-0.11865 1.0481h-0.9657c-1e-6 -0.36694 0.04285-0.71521 0.12854-1.0448 0.08789-0.33179 0.20654-0.65478 0.35596-0.96899 0.14941-0.31421 0.323-0.62402 0.52075-0.92944 0.19775-0.30761 0.40649-0.62072 0.62622-0.93933h-2.3071v-0.76135h3.1674v0.73498" fill="#fff"/>
   <rect id="rect3802" x="33" y="39.75" width="12" height="7.5" rx="1.125" ry="1.125" fill="url(#linearGradient3738)"/>
   <path id="text3854" d="m40.666 44.515c0 0.19995-0.03296 0.38452-0.09888 0.55371-0.06592 0.16699-0.167 0.31201-0.30322 0.43506-0.13624 0.12085-0.30872 0.21533-0.51746 0.28345-0.20875 0.06811-0.45704 0.10217-0.74488 0.10217-0.28565 0-0.53394-0.03406-0.74487-0.10217-0.20874-0.06812-0.38232-0.1626-0.52075-0.28345-0.13623-0.12305-0.2373-0.26807-0.30322-0.43506-0.06592-0.16699-0.09888-0.34936-0.09888-0.54712-1e-6 -0.16919 0.02637-0.3186 0.0791-0.44824 0.05273-0.13183 0.12305-0.24499 0.21094-0.33948 0.08789-0.09448 0.18896-0.16919 0.30322-0.22412 0.11426-0.05713 0.23181-0.09558 0.35266-0.11536v-0.01318c-0.12964-0.02856-0.2461-0.0758-0.34936-0.14172-0.10327-0.06591-0.19116-0.14502-0.26367-0.2373-0.07251-0.09228-0.12854-0.19446-0.16809-0.30652-0.03735-0.11425-0.05603-0.23291-0.05603-0.35596 0-0.18457 0.03296-0.35266 0.09888-0.50427 0.06811-0.15161 0.16699-0.28124 0.29663-0.38892 0.12964-0.10766 0.29004-0.19006 0.4812-0.24719 0.19336-0.05932 0.41638-0.08898 0.66907-0.08899 0.27026 4e-6 0.50317 0.03077 0.69873 0.09229 0.19775 0.05933 0.36035 0.14392 0.48779 0.25378 0.12744 0.10767 0.22192 0.23731 0.28345 0.38892 0.06152 0.15162 0.09229 0.31861 0.09229 0.50098 0 0.12085-0.01978 0.23841-0.05933 0.35266-0.03736 0.11206-0.09229 0.21424-0.1648 0.30652-0.07251 0.09229-0.1615 0.17029-0.26696 0.23401-0.10328 0.06372-0.22083 0.10877-0.35266 0.13513v0.01318c0.13623 0.02197 0.26258 0.06262 0.37903 0.12195 0.11865 0.05713 0.22082 0.13294 0.30652 0.22742 0.08569 0.09229 0.15271 0.20435 0.20105 0.33618 0.04834 0.12964 0.07251 0.27686 0.07251 0.44165m-1.0679-2.1193c0-0.09228-0.0099-0.17688-0.02966-0.25378-0.01978-0.0791-0.05273-0.14611-0.09887-0.20105-0.04615-0.05713-0.10877-0.10107-0.18787-0.13184-0.07691-0.03295-0.17469-0.04943-0.29334-0.04944-0.11426 4e-6 -0.20984 0.01648-0.28674 0.04944-0.07691 0.03077-0.13843 0.07471-0.18457 0.13184-0.04614 0.05494-0.0791 0.12195-0.09888 0.20105-0.01978 0.07691-0.02966 0.1615-0.02966 0.25378-2e-6 0.0813 0.0077 0.1615 0.02307 0.2406 0.01758 0.0791 0.04834 0.15052 0.09229 0.21423 0.04394 0.06153 0.10547 0.11206 0.18457 0.15161 0.0791 0.03955 0.18127 0.05933 0.30652 0.05933 0.13183 2e-6 0.2373-0.01977 0.31641-0.05933 0.08129-0.03955 0.14282-0.09118 0.18457-0.15491 0.04175-0.06372 0.06921-0.13513 0.0824-0.21423 0.01319-0.0791 0.01978-0.1582 0.01978-0.2373m0.10876 2.0435c0-0.09448-0.01099-0.18567-0.03296-0.27356-0.01978-0.08789-0.05713-0.16479-0.11206-0.23071-0.05273-0.06811-0.12634-0.12195-0.22082-0.1615-0.09448-0.04175-0.21424-0.06262-0.35925-0.06262-0.13184 3e-6 -0.2428 0.02088-0.33289 0.06262-0.08789 0.03955-0.1593 0.09339-0.21423 0.1615-0.05274 0.06812-0.09119 0.14722-0.11536 0.2373-0.02197 0.08789-0.03296 0.18128-0.03296 0.28015-1e-6 0.11646 0.01098 0.22302 0.03296 0.3197 0.02417 0.09668 0.06372 0.18018 0.11865 0.25049 0.05713 0.06812 0.13184 0.12085 0.22412 0.1582 0.09228 0.03735 0.20764 0.05603 0.34607 0.05603 0.13843 1e-6 0.25268-0.01868 0.34277-0.05603 0.09009-0.03955 0.1615-0.09448 0.21424-0.1648 0.05273-0.07031 0.08899-0.15381 0.10876-0.25049 0.02197-0.09887 0.03296-0.20764 0.03296-0.32629" fill="#fff"/>
   <rect id="rect3814" x="51" y="39.75" width="12" height="7.5" rx="1.125" ry="1.125" fill="url(#linearGradient3740)"/>
   <path id="text3858" d="m58.635 43.427c0 0.82398-0.15051 1.4403-0.45153 1.849-0.30103 0.40869-0.7284 0.61304-1.2821 0.61304-0.19995 0-0.38012-0.02087-0.54052-0.06262-0.1582-0.04175-0.29663-0.10657-0.41528-0.19446-0.11866-0.08789-0.21972-0.20105-0.30322-0.33948-0.0813-0.13843-0.14611-0.30322-0.19446-0.49438l0.87012-0.12195c0.04394 0.1648 0.11535 0.28674 0.21422 0.36584 0.10108 0.0791 0.22742 0.11865 0.37903 0.11865 0.12525 1e-6 0.23731-0.02966 0.33619-0.08899 0.09887-0.05932 0.18347-0.14941 0.25378-0.27026 0.07031-0.12085 0.12414-0.27356 0.1615-0.45813 0.03955-0.18677 0.06042-0.40649 0.06262-0.65918-0.04394 0.0857-0.10218 0.1615-0.17468 0.22742-0.07251 0.06592-0.15491 0.12085-0.24719 0.1648-0.09009 0.04395-0.18677 0.078-0.29004 0.10217-0.10327 0.02197-0.20763 0.03296-0.31311 0.03296-0.20215 2e-6 -0.38562-0.03515-0.55041-0.10547-0.1648-0.07251-0.30542-0.17578-0.42188-0.30982-0.11646-0.13403-0.20654-0.29553-0.27027-0.4845-0.06152-0.19116-0.09228-0.40649-0.09228-0.646 0-0.24609 0.03625-0.46582 0.10877-0.65918 0.0747-0.19336 0.18128-0.35595 0.3197-0.48779 0.13842-0.13403 0.30761-0.2351 0.50757-0.30322 0.20215-0.07031 0.43066-0.10546 0.68555-0.10547 0.26806 4e-6 0.50427 0.04615 0.70861 0.13843 0.20655 0.09009 0.37903 0.23072 0.51746 0.42188 0.13842 0.18897 0.2428 0.42957 0.31311 0.7218 0.07251 0.29004 0.10877 0.63501 0.10877 1.0349m-0.97888-0.64929c-8e-6 -0.13183-0.01538-0.25488-0.04615-0.36914-0.02856-0.11645-0.07251-0.21643-0.13183-0.29993-0.05933-0.08569-0.13183-0.15271-0.21753-0.20105-0.08569-0.04834-0.18457-0.0725-0.29662-0.07251-0.10328 5e-6 -0.19556 0.01978-0.27685 0.05933-0.0813 0.03736-0.15052 0.09229-0.20765 0.1648-0.05713 0.07251-0.10108 0.1604-0.13183 0.26367-0.02857 0.10328-0.04285 0.21973-0.04285 0.34937 0 0.12085 0.01428 0.23401 0.04285 0.33948 0.02856 0.10327 0.07032 0.19336 0.12524 0.27026 0.05493 0.07471 0.12415 0.13404 0.20765 0.17798 0.08348 0.04175 0.17907 0.06262 0.28673 0.06262 0.0857 2e-6 0.16919-0.01538 0.25049-0.04614 0.08349-0.03076 0.15711-0.0769 0.22082-0.13843 0.06592-0.06152 0.11865-0.13842 0.15821-0.23071 0.03954-0.09448 0.05932-0.20434 0.05932-0.32959" fill="#fff"/>
   <rect id="rect3396" x="69" y="39.75" width="12" height="7.5" rx="1.125" ry="1.125" fill="url(#linearGradient3742)"/>
   <path id="text3878" d="m73.154 44.944c0.16211 1e-6 0.30176-0.02246 0.41895-0.06738 0.11913-0.04687 0.22168-0.10742 0.30761-0.18164 0.08789-0.07422 0.16016-0.1582 0.21681-0.25195 0.05858-0.09375 0.10643-0.18848 0.14355-0.28418l0.75292 0.28418c-0.06054 0.14844-0.13965 0.29395-0.2373 0.43652-0.09766 0.14258-0.21973 0.26855-0.36622 0.37793-0.14648 0.10938-0.32129 0.19824-0.52441 0.2666-0.20118 0.06641-0.43848 0.09961-0.71192 0.09961-0.35742 0-0.66699-0.05273-0.92871-0.1582-0.26172-0.10742-0.47852-0.25586-0.65039-0.44531-0.16992-0.19141-0.29688-0.41797-0.38086-0.67969-0.08203-0.26172-0.12305-0.54785-0.12305-0.8584 0-0.32226 0.04102-0.61328 0.12305-0.87305 0.08398-0.25976 0.20996-0.48046 0.37793-0.66211 0.16797-0.18359 0.37988-0.32422 0.63574-0.42188 0.25781-0.09961 0.56054-0.14941 0.9082-0.14941 0.26953 4e-6 0.50488 0.02832 0.70605 0.08496 0.20312 0.05665 0.37792 0.13672 0.52442 0.24023 0.14843 0.10157 0.27051 0.22266 0.36621 0.36328 0.09765 0.13868 0.17383 0.292 0.22852 0.45996l-0.76172 0.20801c-0.02735-0.08789-0.06934-0.17187-0.12598-0.25195-0.05664-0.08203-0.12892-0.15429-0.2168-0.2168-0.08594-0.0625-0.1875-0.1123-0.30468-0.14941-0.11719-0.03906-0.25001-0.05859-0.39844-0.05859-0.20898 2e-6 -0.38867 0.03418-0.53906 0.10254-0.15039 0.06641-0.27442 0.16211-0.37207 0.28711-0.09571 0.125-0.167 0.27539-0.21388 0.45117-0.04492 0.17383-0.06737 0.36914-0.06737 0.58594 0 0.21484 0.02245 0.41211 0.06737 0.5918 0.04687 0.17774 0.11914 0.33106 0.2168 0.45996 0.09766 0.12891 0.22266 0.22949 0.375 0.30176 0.15429 0.07227 0.33886 0.1084 0.55371 0.1084m2.4082 0.62109v-4.1279h3.2461v0.66797h-2.3818v1.0371h2.2031v0.66797h-2.2031v1.0869h2.502v0.66797h-3.3662" fill="#fff"/>
  </g>
  <g id="g3781" transform="translate(0 .25)">
   <rect id="rect3382" x="15" y="75.75" width="12" height="7.5" rx="1.125" ry="1.125" fill="url(#linearGradient3791)"/>
   <path id="text3822" d="m22.605 79.5c-3e-6 0.44385-0.04065 0.81848-0.12195 1.1239-0.0813 0.30322-0.19446 0.54932-0.33948 0.73828-0.14282 0.18677-0.31311 0.3219-0.51086 0.4054-0.19556 0.0813-0.40979 0.12195-0.6427 0.12195-0.23291 0-0.44714-0.04065-0.6427-0.12195-0.19556-0.0813-0.36365-0.21533-0.50427-0.4021-0.14063-0.18897-0.25049-0.43506-0.32959-0.73828-0.0791-0.30542-0.11865-0.68115-0.11865-1.1272 0-0.46802 0.03845-0.85473 0.11536-1.1602 0.0791-0.30761 0.19006-0.55261 0.33289-0.73498 0.14282-0.18237 0.31311-0.30981 0.51086-0.38233 0.19995-0.0747 0.42077-0.11206 0.66248-0.11206 0.22632 0 0.43616 0.03736 0.62952 0.11206 0.19555 0.07252 0.36364 0.19996 0.50427 0.38233 0.14282 0.18238 0.25378 0.42737 0.33289 0.73498 0.08129 0.30542 0.12194 0.69214 0.12195 1.1602m-0.92944 0c-2e-6 -0.32739-0.01209-0.59765-0.03626-0.81079-0.02417-0.21533-0.06262-0.38562-0.11536-0.51086-0.05274-0.12744-0.12195-0.21643-0.20764-0.26697-0.0835-0.05053-0.18567-0.0758-0.30652-0.07581-0.12964 8e-6 -0.23841 0.02638-0.32629 0.0791-0.08789 0.05054-0.1593 0.13953-0.21423 0.26697-0.05274 0.12745-0.09119 0.29883-0.11536 0.51416-0.02197 0.21314-0.03296 0.4812-0.03296 0.8042-1e-6 0.31861 0.01208 0.58448 0.03625 0.79761s0.06262 0.38452 0.11536 0.51416c0.05273 0.12744 0.12195 0.21753 0.20764 0.27026 0.08569 0.05273 0.19116 0.0791 0.31641 0.0791 0.12085 0 0.22412-0.02637 0.30982-0.0791 0.08569-0.05273 0.156-0.14282 0.21094-0.27026 0.05493-0.12964 0.09448-0.30103 0.11865-0.51416 0.02636-0.21314 0.03955-0.479 0.03955-0.79761" fill="#fff"/>
   <rect id="rect3384" transform="scale(1,-1)" x="33" y="-83.25" width="12" height="7.5" rx="1.125" ry="1.125" fill="url(#linearGradient3793)"/>
   <path id="text3862" d="m38.471 81.558v-1.1169h1.0583v1.1169h-1.0583" fill="#fff"/>
   <rect id="rect3386" x="51" y="75.75" width="12" height="7.5" rx="1.125" ry="1.125" fill="url(#linearGradient3795)"/>
   <path id="text3866" d="m59.828 80.398c0 0.27466-0.03077 0.50647-0.09228 0.69544-0.06153 0.18896-0.14502 0.34167-0.25049 0.45813-0.10548 0.11426-0.22962 0.19665-0.37243 0.24719-0.14063 0.05054-0.29114 0.0758-0.45154 0.0758-0.16479 0-0.3186-0.02527-0.46142-0.0758-0.14063-0.05054-0.26368-0.13294-0.36914-0.24719-0.10328-0.11646-0.18568-0.26917-0.24719-0.45813-0.05933-0.18897-0.089-0.42078-0.08899-0.69544-8e-6 -0.29004 0.02966-0.52954 0.08899-0.71851 0.06152-0.19116 0.14501-0.34277 0.25048-0.45483 0.10547-0.11426 0.22961-0.19336 0.37244-0.23731 0.14501-0.04614 0.30102-0.06921 0.46802-0.06921 0.15819 0 0.30761 0.02307 0.44823 0.06921 0.14062 0.04395 0.26258 0.12305 0.36585 0.23731 0.10547 0.11206 0.18786 0.26367 0.24719 0.45483 0.06152 0.18897 0.09228 0.42847 0.09228 0.71851m-4.0045 1.4238h-0.67895l3.0322-4.6439h0.68885l-3.0421 4.6439m-0.47461-4.6967c0.1582 7e-6 0.30762 0.02308 0.44824 0.06922 0.14062 0.04395 0.26367 0.12195 0.36914 0.23401 0.10547 0.11206 0.18897 0.26368 0.25048 0.45483 0.06153 0.18897 0.09229 0.42848 0.09229 0.71851 0 0.27467-0.03077 0.50648-0.09229 0.69544-0.06152 0.18896-0.14612 0.34168-0.25378 0.45813-0.10548 0.11645-0.22962 0.19995-0.37244 0.25048-0.14282 0.05054-0.29553 0.07581-0.45813 0.0758-0.16039 7e-6 -0.31201-0.02526-0.45482-0.0758-0.14062-0.05054-0.26368-0.13293-0.36914-0.24719-0.10328-0.11645-0.18568-0.26916-0.2472-0.45813-0.05933-0.18896-0.08898-0.42188-0.08898-0.69873 0-0.29003 0.02966-0.52954 0.08898-0.71851 0.05932-0.19115 0.14173-0.34276 0.2472-0.45483 0.10547-0.11206 0.22961-0.19006 0.37243-0.23401 0.14502-0.04614 0.30102-0.06921 0.46802-0.06922m3.7705 3.2728c-8e-6 -0.19116-0.0099-0.34936-0.02966-0.47461-0.01758-0.12524-0.04506-0.22412-0.0824-0.29663-0.03737-0.07471-0.0835-0.12634-0.13842-0.1549-0.05494-0.03077-0.11976-0.04614-0.19446-0.04615-0.08131 7e-6 -0.15162 0.01538-0.21094 0.04615-0.05713 0.02857-0.10438 0.0802-0.14172 0.1549-0.03736 0.07471-0.06592 0.17468-0.08569 0.29993-0.01758 0.12525-0.02637 0.28235-0.02637 0.47132-8e-6 0.18458 0.0088 0.33838 0.02637 0.46142 0.01758 0.12086 0.04504 0.21863 0.0824 0.29334 0.03954 0.07471 0.08788 0.12744 0.14502 0.1582 0.05712 0.03077 0.12523 0.04615 0.20435 0.04615 0.0725 0 0.13622-0.01538 0.19116-0.04615 0.05712-0.03076 0.10437-0.0824 0.14172-0.1549 0.03954-0.07471 0.06921-0.17358 0.08899-0.29663 0.01977-0.12304 0.02965-0.27685 0.02966-0.46142m-3.3256-1.7963c0-0.18896-0.0099-0.34497-0.02967-0.46802-0.01758-0.12524-0.04504-0.22412-0.0824-0.29663-0.03735-0.0747-0.0835-0.12634-0.13842-0.1549-0.05493-0.03076-0.11976-0.04614-0.19446-0.04615-0.0813 8e-6 -0.15161 0.01539-0.21093 0.04615-0.05933 0.03076-0.10767 0.0835-0.14502 0.1582-0.03736 0.07252-0.06593 0.17139-0.0857 0.29663-0.01758 0.12305-0.02637 0.27796-0.02637 0.46472 0 0.18458 0.0088 0.33839 0.02637 0.46142 0.01977 0.12305 0.04834 0.22193 0.0857 0.29663 0.03954 0.07471 0.08788 0.12854 0.14502 0.1615 0.05712 0.03077 0.12524 0.04615 0.20434 0.04615 0.0747 0 0.13952-0.01538 0.19446-0.04615 0.05712-0.03076 0.10437-0.08349 0.14172-0.1582 0.03955-0.07471 0.06812-0.17358 0.08569-0.29663 0.01978-0.12524 0.02967-0.28015 0.02967-0.46472" fill="#fff"/>
   <rect id="rect3388" x="69" y="75.75" width="12" height="7.5" rx="1.125" ry="1.125" fill="url(#linearGradient3797)"/>
   <path id="text3882" d="m73.12 78.899v-0.81665h3.761v0.81665h-3.761m0 2.0178v-0.80932h3.761v0.80932h-3.761" fill="#fff"/>
  </g>
 </g>
</svg>
