<?xml version="1.0" encoding="UTF-8"?>
<!-- Created with Inkscape (http://www.inkscape.org/) -->
<svg id="svg2408" width="96" height="96" enable-background="new" version="1.0" xmlns="http://www.w3.org/2000/svg" xmlns:cc="http://creativecommons.org/ns#" xmlns:dc="http://purl.org/dc/elements/1.1/" xmlns:rdf="http://www.w3.org/1999/02/22-rdf-syntax-ns#" xmlns:xlink="http://www.w3.org/1999/xlink">
 <defs id="defs2410">
  <linearGradient id="linearGradient3706" x1="48" x2="48" y1="90" y2="5.9877" gradientUnits="userSpaceOnUse">
   <stop id="stop3702" stop-color="#970303" offset="0"/>
   <stop id="stop3704" stop-color="#f31d0c" offset="1"/>
  </linearGradient>
  <linearGradient id="linearGradient3188" x1="36.357" x2="36.357" y1="6" y2="63.893" gradientTransform="translate(100)" gradientUnits="userSpaceOnUse">
   <stop id="stop3739" stop-color="#fff" offset="0"/>
   <stop id="stop3741" stop-color="#fff" stop-opacity="0" offset="1"/>
  </linearGradient>
  <radialGradient id="radialGradient3832" cx="48" cy="-14.787" r="42" gradientTransform="matrix(0 .99292 -1.0017 0 33.187 -41.554)" gradientUnits="userSpaceOnUse">
   <stop id="stop3828" stop-color="#ff3920" offset="0"/>
   <stop id="stop3830" stop-color="#ff3920" stop-opacity="0" offset="1"/>
  </radialGradient>
  <linearGradient id="linearGradient2956" x1="36.357" x2="36.357" y1="6" y2="63.893" gradientUnits="userSpaceOnUse">
   <stop id="stop3739-0" stop-color="#fff" offset="0"/>
   <stop id="stop3741-5" stop-color="#fff" stop-opacity="0" offset="1"/>
  </linearGradient>
  <filter id="filter3174" color-interpolation-filters="sRGB">
   <feGaussianBlur id="feGaussianBlur3176" stdDeviation="1.71"/>
  </filter>
  <linearGradient id="linearGradient2964" x1="45.448" x2="45.448" y1="92.54" y2="7.0165" gradientTransform="scale(1.0059 .99417)" gradientUnits="userSpaceOnUse">
   <stop id="stop3750" offset="0"/>
   <stop id="stop3752" stop-opacity=".58824" offset="1"/>
  </linearGradient>
  <radialGradient id="radialGradient2855" cx="48" cy="90.172" r="42" gradientTransform="matrix(1.1573 0 0 .99591 -7.551 .19713)" gradientUnits="userSpaceOnUse">
   <stop id="stop3739-1" stop-color="#fff" offset="0"/>
   <stop id="stop3741-2" stop-color="#fff" stop-opacity="0" offset="1"/>
  </radialGradient>
  <clipPath id="clipPath3613">
   <rect id="rect3615" x="6" y="6" width="84" height="84" rx="6" ry="6" fill="#fff"/>
  </clipPath>
  <filter id="filter3794-7" x="-.192" y="-.192" width="1.384" height="1.384" color-interpolation-filters="sRGB">
   <feGaussianBlur id="feGaussianBlur3796-7" stdDeviation="5.28"/>
  </filter>
  <linearGradient id="linearGradient2862" x1="48" x2="48" y1="20.221" y2="138.66" gradientUnits="userSpaceOnUse">
   <stop id="stop3739-5" stop-color="#fff" offset="0"/>
   <stop id="stop3741-9" stop-color="#fff" stop-opacity="0" offset="1"/>
  </linearGradient>
  <linearGradient id="ButtonShadow-0" x1="45.448" x2="45.448" y1="92.54" y2="7.0165" gradientTransform="matrix(1.0059 0 0 .99417 100 0)" gradientUnits="userSpaceOnUse">
   <stop id="stop3750-8" offset="0"/>
   <stop id="stop3752-5" stop-opacity=".58824" offset="1"/>
  </linearGradient>
  <linearGradient id="linearGradient3780" x1="32.251" x2="32.251" y1="6.1317" y2="90.239" gradientTransform="matrix(1.0238 0 0 1.0119 -1.1429 -98.071)" gradientUnits="userSpaceOnUse" xlink:href="#ButtonShadow-0"/>
  <linearGradient id="linearGradient3721" x1="32.251" x2="32.251" y1="6.1317" y2="90.239" gradientTransform="translate(0,-97)" gradientUnits="userSpaceOnUse" xlink:href="#ButtonShadow-0"/>
 </defs>
 <metadata id="metadata2413">
  <rdf:RDF>
   <cc:Work rdf:about="">
    <dc:format>image/svg+xml</dc:format>
    <dc:type rdf:resource="http://purl.org/dc/dcmitype/StillImage"/>
   </cc:Work>
  </rdf:RDF>
 </metadata>
 <g id="layer2" display="none">
  <rect id="rect3745" x="5" y="7" width="86" height="85" rx="6" ry="6" fill="url(#linearGradient2964)" filter="url(#filter3174)" opacity=".9"/>
 </g>
 <g id="layer5">
  <path id="path3786" transform="scale(1,-1)" d="m12-95.031c-5.5111 0-10.031 4.5202-10.031 10.031v71c0 5.5111 4.5202 10.031 10.031 10.031h72c5.5111 0 10.031-4.5202 10.031-10.031v-71c0-5.5111-4.5202-10.031-10.031-10.031h-72z" fill="url(#linearGradient3780)" opacity=".08"/>
  <path id="path3778" transform="scale(1,-1)" d="m12-94.031c-4.9716 0-9.0312 4.0596-9.0312 9.0312v71c0 4.9716 4.0596 9.0312 9.0312 9.0312h72c4.9716 0 9.0312-4.0596 9.0312-9.0312v-71c0-4.9716-4.0596-9.0312-9.0312-9.0312h-72z" fill="url(#linearGradient3780)" opacity=".1"/>
  <path id="path3770" transform="scale(1,-1)" d="m12-93c-4.4091 0-8 3.5909-8 8v71c0 4.4091 3.5909 8 8 8h72c4.4091 0 8-3.5909 8-8v-71c0-4.4091-3.5909-8-8-8h-72z" fill="url(#linearGradient3780)" opacity=".2"/>
  <rect id="rect3723" transform="scale(1,-1)" x="5" y="-92" width="86" height="85" rx="7" ry="7" fill="url(#linearGradient3780)" opacity=".3"/>
  <rect id="rect3716" transform="scale(1,-1)" x="6" y="-91" width="84" height="84" rx="6" ry="6" fill="url(#linearGradient3721)" opacity=".45"/>
 </g>
 <g id="layer1">
  <rect id="rect2419" x="6" y="6" width="84" height="84" rx="6" ry="6" fill="url(#linearGradient3706)"/>
  <path id="path4144" d="m58.762 6.0006c-3.9481 8.6919-6.9399 17.633-8.9249 26.644-1.0303 0.81993-2.0773 1.586-3.15 2.3625-12.238 8.8586-26.919 14.647-40.687 14.306v6.5625c12.183 1.1502 20.144 5.3208 24.806 11.55 4.2168 5.6337 5.9672 13.309 5.5125 22.575h4.2c0.44896-9.8689-1.3625-18.472-6.3-25.069-4.3417-5.8007-10.954-9.8617-19.95-11.944 12.03-1.6106 23.974-6.9592 34.256-14.306-2.9654 17.22-2.4821 34.708 1.1812 51.318h29.006c-14.494-13.141-20.763-36.697-20.737-58.931 8.1728-7.6081 14.524-16.331 17.85-25.069h-4.4625c-2.7652 6.4004-7.4 12.968-13.256 19.031 0.35657-6.6988 1.4252-13.111 2.8875-19.031h-2.2312z" fill="#640000" fill-rule="evenodd" opacity=".3"/>
  <path id="rect3728" d="m112 6c-3.324 0-6 2.676-6 6v2 68 2c0 0.33472 0.0413 0.6507 0.0937 0.96875 0.0487 0.2956 0.097 0.59692 0.1875 0.875 0.01 0.03038 0.0209 0.0636 0.0312 0.09375 0.0989 0.28777 0.23488 0.54745 0.375 0.8125 0.14459 0.27351 0.31562 0.53562 0.5 0.78125s0.37378 0.47347 0.59375 0.6875c0.43995 0.42806 0.94291 0.81453 1.5 1.0938 0.27854 0.13961 0.57347 0.24695 0.875 0.34375-0.2562-0.10022-0.48671-0.23627-0.71875-0.375-7e-3 -0.0044-0.0239 0.0045-0.0312 0-0.0319-0.0193-0.0623-0.04251-0.0937-0.0625-0.1204-0.0767-0.23102-0.16351-0.34375-0.25-0.10617-0.0808-0.21328-0.16111-0.3125-0.25-0.17793-0.16143-0.34746-0.34539-0.5-0.53125-0.10758-0.13026-0.21839-0.26528-0.3125-0.40625-0.0251-0.03838-0.0384-0.08587-0.0625-0.125-0.0648-0.10303-0.13023-0.20452-0.1875-0.3125-0.10101-0.19471-0.20567-0.4157-0.28125-0.625-8e-3 -0.02181-0.0236-0.04055-0.0312-0.0625-0.0318-0.09195-0.0358-0.18683-0.0625-0.28125-0.0303-0.10662-0.0704-0.20303-0.0937-0.3125-0.07298-0.34151-0.1251-0.6982-0.1251-1.0625v-2-68-2c0-2.7818 2.2182-5 5-5h2 68 2c2.7818 0 5 2.2182 5 5v2 68 2c0 0.3643-0.0521 0.72099-0.125 1.0625-0.0442 0.20689-0.0884 0.39766-0.15625 0.59375-8e-3 0.02195-0.0233 0.04069-0.0312 0.0625-0.0627 0.17374-0.13838 0.36745-0.21875 0.53125-0.0416 0.0828-0.079 0.16995-0.125 0.25-0.0546 0.09721-0.12677 0.18835-0.1875 0.28125-0.0941 0.14096-0.20492 0.276-0.3125 0.40625-0.14317 0.17445-0.30314 0.347-0.46875 0.5-0.0112 0.0102-0.02 0.02115-0.0312 0.03125-0.13839 0.12556-0.28509 0.23444-0.4375 0.34375-0.10257 0.07315-0.20432 0.15336-0.3125 0.21875-7e-3 0.0045-0.0238-0.0044-0.0312 0-0.23204 0.13873-0.46255 0.27478-0.71875 0.375 0.30153-0.0968 0.59646-0.20414 0.875-0.34375 0.55709-0.27922 1.06-0.66569 1.5-1.0938 0.21997-0.21403 0.40937-0.44186 0.59375-0.6875s0.35541-0.50774 0.5-0.78125c0.14012-0.26505 0.27613-0.52473 0.375-0.8125 0.0104-0.03078 0.0213-0.06274 0.0312-0.09375 0.0905-0.27808 0.1388-0.5794 0.1875-0.875 0.0523-0.31805 0.09365-0.63403 0.09365-0.96875v-2-68-2c0-3.324-2.676-6-6-6h-72z" fill="url(#linearGradient3188)" opacity=".5"/>
  <path id="rect3728-1" d="m12 6c-3.324 0-6 2.676-6 6v2 68 2c0 0.33472 0.04135 0.6507 0.09375 0.96875 0.0487 0.2956 0.09704 0.59692 0.1875 0.875 0.00988 0.03038 0.020892 0.0636 0.03125 0.09375 0.098865 0.28777 0.23488 0.54745 0.375 0.8125 0.14459 0.27351 0.31562 0.53562 0.5 0.78125s0.37378 0.47347 0.59375 0.6875c0.43995 0.42806 0.94291 0.81453 1.5 1.0938 0.27854 0.13961 0.57347 0.24695 0.875 0.34375-0.2562-0.10022-0.48671-0.23627-0.71875-0.375-0.00741-0.0044-0.023866 0.0045-0.03125 0-0.031933-0.0193-0.062293-0.04251-0.09375-0.0625-0.1204-0.0767-0.23102-0.16351-0.34375-0.25-0.10617-0.0808-0.21328-0.16111-0.3125-0.25-0.17793-0.16143-0.34746-0.34539-0.5-0.53125-0.10758-0.13026-0.21839-0.26528-0.3125-0.40625-0.025089-0.03838-0.038446-0.08587-0.0625-0.125-0.064763-0.10303-0.13023-0.20452-0.1875-0.3125-0.10101-0.19471-0.20567-0.4157-0.28125-0.625-0.00796-0.02181-0.023589-0.04055-0.03125-0.0625-0.031825-0.09195-0.035804-0.18683-0.0625-0.28125-0.030332-0.10662-0.070389-0.20303-0.09375-0.3125-0.072879-0.34151-0.125-0.6982-0.125-1.0625v-2-68-2c0-2.7818 2.2182-5 5-5h2 68 2c2.7818 0 5 2.2182 5 5v2 68 2c0 0.3643-0.05212 0.72099-0.125 1.0625-0.04415 0.20689-0.08838 0.39766-0.15625 0.59375-0.0077 0.02195-0.0233 0.04069-0.03125 0.0625-0.06274 0.17374-0.13838 0.36745-0.21875 0.53125-0.04158 0.0828-0.07904 0.16995-0.125 0.25-0.0546 0.09721-0.12677 0.18835-0.1875 0.28125-0.09411 0.14096-0.20492 0.276-0.3125 0.40625-0.14317 0.17445-0.30314 0.347-0.46875 0.5-0.01117 0.0102-0.01998 0.02115-0.03125 0.03125-0.13839 0.12556-0.28509 0.23444-0.4375 0.34375-0.10257 0.07315-0.20432 0.15336-0.3125 0.21875-0.0074 0.0045-0.02384-0.0044-0.03125 0-0.23204 0.13873-0.46255 0.27478-0.71875 0.375 0.30153-0.0968 0.59646-0.20414 0.875-0.34375 0.55709-0.27922 1.0601-0.66569 1.5-1.0938 0.21997-0.21403 0.40937-0.44186 0.59375-0.6875s0.35541-0.50774 0.5-0.78125c0.14012-0.26505 0.27614-0.52473 0.375-0.8125 0.01041-0.03078 0.02133-0.06274 0.03125-0.09375 0.09046-0.27808 0.1388-0.5794 0.1875-0.875 0.0524-0.31805 0.09375-0.63403 0.09375-0.96875v-2-68-2c0-3.324-2.676-6-6-6h-72z" fill="url(#linearGradient2956)" opacity=".4"/>
  <path id="rect3819" d="m12 6c-3.324 0-6 2.676-6 6v36h84v-36c0-3.324-2.676-6-6-6h-72z" fill="url(#radialGradient3832)" opacity=".8"/>
  <path id="path3615" d="m12 90c-3.324 0-6-2.676-6-6v-2-68-2c0-0.33472 0.04135-0.6507 0.09375-0.96875 0.0487-0.2956 0.09704-0.59692 0.1875-0.875 0.00988-0.03038 0.020892-0.0636 0.03125-0.09375 0.098865-0.28777 0.23488-0.54745 0.375-0.8125 0.14459-0.27351 0.31562-0.53562 0.5-0.78125s0.37378-0.47347 0.59375-0.6875c0.43995-0.42806 0.94291-0.81453 1.5-1.0938 0.27854-0.13961 0.57347-0.24695 0.875-0.34375-0.2562 0.10022-0.48671 0.23627-0.71875 0.375-0.00741 0.0044-0.023866-0.0045-0.03125 0-0.031933 0.0193-0.062293 0.04251-0.09375 0.0625-0.1204 0.0767-0.23102 0.16351-0.34375 0.25-0.10617 0.0808-0.21328 0.16111-0.3125 0.25-0.17793 0.16143-0.34746 0.34539-0.5 0.53125-0.10758 0.13026-0.21839 0.26528-0.3125 0.40625-0.025089 0.03838-0.038446 0.08587-0.0625 0.125-0.064763 0.10303-0.13023 0.20452-0.1875 0.3125-0.10101 0.19471-0.20567 0.4157-0.28125 0.625-0.00796 0.02181-0.023589 0.04055-0.03125 0.0625-0.031825 0.09195-0.035804 0.18683-0.0625 0.28125-0.030332 0.10662-0.070389 0.20303-0.09375 0.3125-0.072879 0.34151-0.125 0.6982-0.125 1.0625v2 68 2c0 2.7818 2.2182 5 5 5h2 68 2c2.7818 0 5-2.2182 5-5v-2-68-2c0-0.3643-0.05212-0.72099-0.125-1.0625-0.04415-0.20689-0.08838-0.39766-0.15625-0.59375-0.0077-0.02195-0.0233-0.04069-0.03125-0.0625-0.06274-0.17374-0.13838-0.36745-0.21875-0.53125-0.04158-0.0828-0.07904-0.16995-0.125-0.25-0.0546-0.09721-0.12677-0.18835-0.1875-0.28125-0.09411-0.14096-0.20492-0.276-0.3125-0.40625-0.14317-0.17445-0.30314-0.347-0.46875-0.5-0.01117-0.0102-0.01998-0.02115-0.03125-0.03125-0.13839-0.12556-0.28509-0.23444-0.4375-0.34375-0.10257-0.07315-0.20432-0.15336-0.3125-0.21875-0.0074-0.0045-0.02384 0.0044-0.03125 0-0.23204-0.13873-0.46255-0.27478-0.71875-0.375 0.30153 0.0968 0.59646 0.20414 0.875 0.34375 0.55709 0.27922 1.0601 0.66569 1.5 1.0938 0.21997 0.21403 0.40937 0.44186 0.59375 0.6875s0.35541 0.50774 0.5 0.78125c0.14012 0.26505 0.27614 0.52473 0.375 0.8125 0.01041 0.03078 0.02133 0.06274 0.03125 0.09375 0.09046 0.27808 0.1388 0.5794 0.1875 0.875 0.0524 0.31805 0.09375 0.63403 0.09375 0.96875v2 68 2c0 3.324-2.676 6-6 6h-72z" fill="url(#radialGradient2855)" opacity=".2"/>
 </g>
 <g id="layer4">
  <rect id="rect3171" x="15" y="15" width="66" height="66" rx="12" ry="12" clip-path="url(#clipPath3613)" fill="url(#linearGradient2862)" filter="url(#filter3794-7)" opacity=".1" stroke="#fff" stroke-linecap="round" stroke-width=".5"/>
 </g>
 <g id="layer3">
  <path id="path3717" d="m44.094 12.969c-1.9119-0.16117-3.5187 0.76566-4.5 2.0938-1.0192 1.3794-1.5215 3.1274-1.5625 4.75h0.03125c-0.65003 5.8512 0.60925 11.584 2.0312 17.062-3.1076 10.107-7.8284 19.693-13.281 28.781-0.77759-0.17383-1.5641-0.20106-2.2812 0-0.95626 0.26809-1.813 0.78809-2.625 1.375-1.6241 1.1738-3.082 2.6774-4.25 3.4375a0.86023 0.86023 0 0 0-0.15625 0.125c-1.3172 1.3235-2.9244 2.9535-4.0625 4.8438s-1.7937 4.1278-1.0312 6.4375a0.86023 0.86023 0 0 0 0.09375 0.1875c2.4087 3.5353 7.6233 3.7318 10.75 1.125 0.01839-0.01348 0.04416-0.01772 0.0625-0.03125 5.624-4.1485 8.8456-10.374 12.438-15.844 7.9772-2.4251 16.155-4.1855 24.438-5.0938 5.8079 2.7555 12.38 5.458 19.188 4.5312a0.86023 0.86023 0 0 0 0.03125 0c1.718-0.31243 3.0262-1.3022 3.7812-2.5938s0.98196-2.8555 0.75-4.375c-0.32269-2.3151-1.9036-3.7846-3.7188-4.625s-3.9059-1.155-5.5938-1.3438c-4.124-0.39947-8.2411-0.1445-12.281 0.09375-5.7291-3.0489-10.107-8.3965-12.344-14.531a0.86023 0.86023 0 0 0-0.09375-0.1875c-1.5206-2.2561-0.83696-4.8343-0.5625-7.8125 1e-3 -0.01106-1e-3 -0.02017 0-0.03125 0.3862-3.5674 0.24236-7.276 0.40625-10.562 0.53443-1.8455 0.38521-3.8227-0.53125-5.375-0.92502-1.5668-2.6923-2.6195-4.9062-2.4375-0.07707 0.0063-0.14061-0.0094-0.21875 0zm1.0938 35.188c1.7123 2.8739 3.8133 5.4782 6.2812 7.75-3.8417 0.84796-7.6263 1.9196-11.344 3.2188 1.8626-3.5537 3.5889-7.2075 5.0625-10.969z" opacity=".05"/>
  <path id="path3711" d="m44.188 13.812c-3.4011-0.43707-5.1955 3.1285-5.2688 6.0352-0.6547 5.7707 0.6339 11.504 2.0813 17.059-3.1938 10.477-8.0969 20.364-13.75 29.719-3.3659-1.4437-6.5142 2.8429-9.1405 4.5521-2.6259 2.6385-6.2229 6.3829-4.8929 10.412 2.0929 3.0719 6.792 3.2286 9.5267 0.90192 5.5407-4.0624 8.7612-10.32 12.475-15.928 8.1925-2.5082 16.603-4.3017 25.125-5.2188 5.8303 2.7756 12.321 5.4566 18.909 4.5598 2.9688-0.5399 4.2488-3.3126 3.8387-5.9993-0.55654-3.9929-5.2433-4.884-8.5575-5.2546-4.1403-0.40104-8.2992-0.14391-12.44 0.10027-6.0196-3.1441-10.595-8.7121-12.921-15.093-1.7585-2.6091-0.93045-5.4774-0.66792-8.3627 0.38088-3.4892 0.24518-7.2046 0.41232-10.556 1.1045-3.3772-0.67383-7.4143-4.7297-6.9257zm0.84375 32.531c2.0401 3.8101 4.7716 7.2584 8.0938 10.031-5.0035 1.0292-9.9355 2.423-14.719 4.2188 2.4752-4.6175 4.8219-9.324 6.625-14.25z" opacity=".1"/>
  <path id="path3707" d="m44.188 14.844c-0.58698 0-0.99475 0.01781-1.4375 0.125-0.44275 0.10719-0.84818 0.36172-1.125 0.59375-0.81416 0.68243-1.1647 1.6759-1.4375 2.9062s-0.40897 2.7317-0.40625 4.5c0.0056 3.6418 0.56183 7.1314 1.6875 11.562l0.59375 2.375-0.5625 1.7812c-2.0625 6.5909-5.0586 13.465-9.5 21.75-1.7605 3.2842-3.3974 6.1093-4.9375 8.5625 0.07059-0.09391 0.13156-0.1678 0.1875-0.4375 0.03617-0.1744 0.05291-0.44503-0.09375-0.75-0.14666-0.30497-0.43767-0.5161-0.65625-0.59375-0.43716-0.1553-0.60741-0.0636-0.75-0.03125-0.28518 0.0647-0.45846 0.13858-0.6875 0.25-0.91616 0.44567-2.3481 1.3664-3.9375 2.5625-3.2497 2.4456-5.896 5.4702-6.8438 8.1562-0.30699 0.87008-0.55071 1.5652-0.375 2.375s0.84558 1.4174 1.5 1.75c0.9942 0.50524 1.8715 0.80682 2.7812 0.84375 0.90976 0.03693 1.749-0.22144 2.625-0.65625 3.5751-1.7745 7.5548-6.7143 12.125-14.281 0.72744-1.2044 1.2139-1.9391 1.5-2.3125 0.1095-0.14293 0.15774-0.18893 0.1875-0.21875 0.07576-0.0159 0.15598-0.03924 0.25-0.0625 0.18804-0.04652 0.43516-0.10961 0.71875-0.1875 0.56718-0.15578 1.3097-0.35746 2.0938-0.59375 6.1229-1.8452 13.485-3.3745 20.719-4.25l2.0938-0.25 0.96875 0.46875c3.3105 1.6607 7.7672 3.2362 11.188 3.9062 1.1868 0.2325 2.5058 0.34628 3.6875 0.375 1.1817 0.02872 2.1305 0.04294 2.9688-0.25 0.45458-0.15886 0.92112-0.41077 1.375-0.6875 0.22694-0.13836 0.45695-0.30352 0.65625-0.46875 0.09965-0.08261 0.20104-0.1444 0.3125-0.28125s0.31247-0.32489 0.3125-0.84375a1.1433 1.1433 0 0 0-0.21875-0.65625c0.01614-0.02018 0.08099-0.01228 0.09375-0.03125 0.15405-0.22906 0.21611-0.41108 0.25-0.5625 0.06778-0.30284 0.04403-0.57091 0.03125-0.84375-0.025559-0.54567-0.079651-1.084-0.4375-1.6875-0.96763-1.6317-2.9914-2.3735-5.6875-2.875-2.3436-0.43588-7.148-0.53849-11.062-0.28125l-3.0938 0.1875-0.90625-0.5c-0.01336-0.0081-0.01792-0.02316-0.03125-0.03125-6.8414-4.1535-10.307-8.6349-13.625-17.625-0.2499-0.67717-0.34942-1.0234-0.375-1.1875-0.02558-0.1641-0.01517-0.22392 0.0625-0.625 0.32811-1.6943 0.59093-4.9868 0.75-8 0.07953-1.5066 0.12299-2.9189 0.125-4 1e-3 -0.54053-0.0036-1.0088-0.03125-1.375-0.01384-0.18311-0.02634-0.32465-0.0625-0.5-0.01808-0.08767-0.0396-0.18033-0.09375-0.3125-0.04493-0.10968-0.16989-0.30767-0.40625-0.5 0.19367-0.10067 0.43183-0.14275 0.53125-0.28125 0.19884-0.277 0.21396-0.47432 0.25-0.65625 0.07207-0.36385 0.10493-0.72057 0.125-1.25 0.04713-1.2432-0.06203-2.3176-0.84375-3.125-0.78172-0.80741-1.8773-0.96875-3.125-0.96875zm0.625 3.8125c0.39523 0.34061 0.67308 0.80976 0.78125 1.7188a1.1433 1.1433 0 0 0 0.3125 0.6875 1.1433 1.1433 0 0 0-0.46875 0.6875c-0.32626 1.4615-0.61278 2.7673-0.90625 4.1875-0.13658-1.3005-0.20733-2.7451-0.15625-4.0625 0.05761-1.4857 0.28969-2.8235 0.4375-3.2188zm0.0625 25.312c0.18033 0.3616 0.3362 0.71291 0.53125 1.0938 2.6644 5.2024 5.7272 8.8792 9.75 11.875-6.537 1.1818-13.813 3.3675-18.812 5.4688 4.0963-7.3576 6.8925-13.39 8.5312-18.438zm25.344 15.656c1.4649-0.08527 2.9893-0.11555 4.375 0 1.455 0.12132 2.7769 0.37574 3.6875 0.75s1.3225 0.79266 1.4375 1.1875a1.1433 1.1433 0 0 0 0 0.0625c-0.83727 0.20935-1.8521 0.21355-3.0625-0.03125-1.4789-0.29911-3.0906-0.85509-4.5312-1.2812-0.0066-0.0021-0.02455 0.0021-0.03125 0-0.45572-0.14418-1.2103-0.44434-1.875-0.6875zm-43.469 9.8125c-1.2804 2.0113-2.5102 3.8338-3.625 5.25-1.8956 2.4081-3.4425 3.6333-4.6875 4.3125 0.02811-0.05733 3.83e-4 -0.06599 0.03125-0.125 0.40669-0.77746 1.0241-1.7203 1.7812-2.7188 1.5144-1.9969 3.6078-4.2267 5.7812-6.0625 0.30454-0.25722 0.53304-0.46402 0.71875-0.65625z" opacity=".15"/>
  <path id="path3703" d="m44.196 16c-1.1379 0-1.3624 0.0532-1.8201 0.4369-0.91132 0.76387-1.4307 3.1143-1.4254 6.5316 0.0054 3.5333 0.48922 6.8961 1.6008 11.272l0.70174 2.7306-0.65788 2.0534c-2.0895 6.6773-5.119 13.626-9.5831 21.954-6.7655 12.621-11.994 19.246-15.636 19.835-0.58592 0.09472-0.61402 0.0703-0.61402-0.34952-1e-6 -2.13 4.0388-7.4562 8.5305-11.25 2.2944-1.938-0.37563-0.64277-3.4648 1.682-3.1131 2.3428-5.6919 5.3806-6.4911 7.6457-0.56829 1.6107-0.44808 2.1801 0.59209 2.7088 1.8585 0.94448 2.8043 0.98163 4.3859 0.1966 3.0744-1.526 7.1402-6.3555 11.666-13.85 1.4676-2.43 1.9282-3.0364 2.3026-3.0364 0.13193 1e-6 1.5189-0.38448 3.0701-0.85194 6.1997-1.8684 13.644-3.3764 20.942-4.2597l2.4342-0.30582 1.228 0.61165c3.1982 1.6044 7.6544 3.1611 10.921 3.801 2.2092 0.43279 5.0859 0.51255 6.0525 0.17476 0.60902-0.21284 1.8777-0.9649 1.8778-1.2121-2.4791 1.1627-6.2157-0.27399-9.0267-1.1035-1.8534-0.58389-5.9321-2.1785-6.1621-2.4029 4.9384-0.95585 14.202-1.1678 15.197 2.25 0.29163-1e-6 0.21669-1.372-0.10965-1.9223-0.6112-1.0307-2.3823-1.8628-4.9341-2.3374-2.066-0.38426-6.9615-0.49183-10.789-0.24029l-3.399 0.21845-1.228-0.74272c-7.0417-4.2656-10.771-9.0777-14.144-18.218-0.50622-1.3717-0.54028-1.5599-0.3728-2.4248 0.58966-3.045 1.1369-13.333 0.72367-13.587-0.75258 3.3712-1.3612 6.7431-2.1271 9.7864-0.15822 0-0.6218-2.3722-0.98682-5.1335-0.39714-3.0043-0.25292-7.0687 0.28508-8.4539 0.21559-0.55508 0.49678-1.0609 0.63595-1.1141 1.379 0.39552 2.1465 1.4877 2.3464 3.1675 0.19567 0 0.24591-0.321 0.28508-1.3544 0.08616-2.2728-0.52292-2.9053-2.807-2.9053zm0.54823 25.078c0.07815-0.02488 0.1226 0.14383 0.21929 0.41505 0.11903 0.33388 0.78528 1.7009 1.4693 3.0364 2.943 5.7464 6.2021 9.5151 10.899 12.604 0.23795 0.15651 0.38498 0.33491 0.32894 0.3932-0.05604 0.0583-1.0121 0.26409-2.1052 0.45874-7.4543 1.3273-16.735 4.1197-21.25 6.3787-0.07182 0.03594-0.13158-0.03462-0.13158-0.15291 1e-6 -0.11829 0.44378-1.0429 1.0087-2.0534 4.2554-7.6115 7.1148-13.763 8.7279-18.83 0.51172-1.6073 0.70306-2.2085 0.83331-2.25z" opacity=".3"/>
  <path id="rect3364" d="m44.196 15c-1.1379 0-1.3624 0.0532-1.8201 0.4369-0.91132 0.76387-1.4307 3.1143-1.4254 6.5316 0.0054 3.5333 0.48922 6.8961 1.6008 11.272l0.70174 2.7306-0.65788 2.0534c-2.0895 6.6773-5.119 13.626-9.5831 21.954-6.7655 12.621-11.994 19.246-15.636 19.835-0.58592 0.09472-0.61402 0.0703-0.61402-0.34952-1e-6 -2.13 4.0388-7.4562 8.5305-11.25 2.2944-1.938-0.37563-0.64277-3.4648 1.682-3.1131 2.3428-5.6919 5.3806-6.4911 7.6457-0.56829 1.6107-0.44808 2.1801 0.59209 2.7088 1.8585 0.94448 2.8043 0.98163 4.3859 0.1966 3.0744-1.526 7.1402-6.3555 11.666-13.85 1.4676-2.43 1.9282-3.0364 2.3026-3.0364 0.13193 1e-6 1.5189-0.38448 3.0701-0.85194 6.1997-1.8684 13.644-3.3764 20.942-4.2597l2.4342-0.30582 1.228 0.61165c3.1982 1.6044 7.6544 3.1611 10.921 3.801 2.2092 0.43279 5.0859 0.51255 6.0525 0.17476 0.60902-0.21284 1.8777-0.9649 1.8778-1.2121-2.4791 1.1627-6.2157-0.27399-9.0267-1.1035-1.8534-0.58389-5.9321-2.1785-6.1621-2.4029 4.9384-0.95585 14.202-1.1678 15.197 2.25 0.29163-1e-6 0.21669-1.372-0.10965-1.9223-0.6112-1.0307-2.3823-1.8628-4.9341-2.3374-2.066-0.38426-6.9615-0.49183-10.789-0.24029l-3.399 0.21845-1.228-0.74272c-7.0417-4.2656-10.771-9.0777-14.144-18.218-0.50622-1.3717-0.54028-1.5599-0.3728-2.4248 0.58966-3.045 1.1369-13.333 0.72367-13.587-0.75258 3.3712-1.3612 6.7431-2.1271 9.7864-0.15822 0-0.6218-2.3722-0.98682-5.1335-0.39714-3.0043-0.25292-7.0687 0.28508-8.4539 0.21559-0.55508 0.49678-1.0609 0.63595-1.1141 1.379 0.39552 2.1465 1.4877 2.3464 3.1675 0.19567 0 0.24591-0.321 0.28508-1.3544 0.08616-2.2728-0.52292-2.9053-2.807-2.9053zm0.54823 25.078c0.07815-0.02488 0.1226 0.14383 0.21929 0.41505 0.11903 0.33388 0.78528 1.7009 1.4693 3.0364 2.943 5.7464 6.2021 9.5151 10.899 12.604 0.23795 0.15651 0.38498 0.33491 0.32894 0.3932-0.05604 0.0583-1.0121 0.26409-2.1052 0.45874-7.4543 1.3273-16.735 4.1197-21.25 6.3787-0.07182 0.03594-0.13158-0.03462-0.13158-0.15291 1e-6 -0.11829 0.44378-1.0429 1.0087-2.0534 4.2554-7.6115 7.1148-13.763 8.7279-18.83 0.51172-1.6073 0.70306-2.2085 0.83331-2.25z" fill="#fff"/>
 </g>
</svg>
