<?xml version="1.0" encoding="UTF-8"?>
<!-- Created with Inkscape (http://www.inkscape.org/) -->
<svg id="svg2408" width="96" height="96" version="1.0" xmlns="http://www.w3.org/2000/svg" xmlns:cc="http://creativecommons.org/ns#" xmlns:dc="http://purl.org/dc/elements/1.1/" xmlns:rdf="http://www.w3.org/1999/02/22-rdf-syntax-ns#" xmlns:xlink="http://www.w3.org/1999/xlink">
 <defs id="defs2410">
  <linearGradient id="linearGradient3694">
   <stop id="stop3696" stop-color="#e6e6e6" offset="0"/>
   <stop id="stop3698" stop-color="#f5f5f5" offset="1"/>
  </linearGradient>
  <linearGradient id="ButtonShadow" x1="45.448" x2="45.448" y1="92.54" y2="7.0165" gradientTransform="scale(1.0059 .99417)" gradientUnits="userSpaceOnUse">
   <stop id="stop3750" offset="0"/>
   <stop id="stop3752" stop-opacity=".58824" offset="1"/>
  </linearGradient>
  <linearGradient id="linearGradient3737">
   <stop id="stop3739" stop-color="#fff" offset="0"/>
   <stop id="stop3741" stop-color="#fff" stop-opacity="0" offset="1"/>
  </linearGradient>
  <filter id="filter3174">
   <feGaussianBlur id="feGaussianBlur3176" stdDeviation="1.71"/>
  </filter>
  <linearGradient id="linearGradient3188" x1="36.357" x2="36.357" y1="6" y2="63.893" gradientUnits="userSpaceOnUse" xlink:href="#linearGradient3737"/>
  <filter id="filter3794" x="-.192" y="-.192" width="1.384" height="1.384">
   <feGaussianBlur id="feGaussianBlur3796" stdDeviation="5.28"/>
  </filter>
  <linearGradient id="linearGradient3613" x1="48" x2="48" y1="20.221" y2="138.66" gradientUnits="userSpaceOnUse" xlink:href="#linearGradient3737"/>
  <radialGradient id="radialGradient3619" cx="48" cy="90.172" r="42" gradientTransform="matrix(1.1573 0 0 .99591 -7.551 .19713)" gradientUnits="userSpaceOnUse" xlink:href="#linearGradient3737"/>
  <clipPath id="clipPath3613">
   <rect id="rect3615" x="6" y="6" width="84" height="84" rx="6" ry="6" fill="#fff"/>
  </clipPath>
  <linearGradient id="linearGradient3617" x1="48" x2="48" y1="90" y2="5.9877" gradientUnits="userSpaceOnUse">
   <stop id="stop3690" stop-color="#ad0d0d" offset="0"/>
   <stop id="stop3692" stop-color="#e02f11" offset="1"/>
  </linearGradient>
  <linearGradient id="ButtonShadow-0" x1="45.448" x2="45.448" y1="92.54" y2="7.0165" gradientTransform="matrix(1.0059 0 0 .99417 100 0)" gradientUnits="userSpaceOnUse">
   <stop id="stop3750-8" offset="0"/>
   <stop id="stop3752-5" stop-opacity=".58824" offset="1"/>
  </linearGradient>
  <linearGradient id="linearGradient3780" x1="32.251" x2="32.251" y1="6.1317" y2="90.239" gradientTransform="matrix(1.0238 0 0 1.0119 -1.1429 -98.071)" gradientUnits="userSpaceOnUse" xlink:href="#ButtonShadow-0"/>
  <linearGradient id="linearGradient3721" x1="32.251" x2="32.251" y1="6.1317" y2="90.239" gradientTransform="translate(0,-97)" gradientUnits="userSpaceOnUse" xlink:href="#ButtonShadow-0"/>
  <linearGradient id="linearGradient4018" x1="-73.494" x2="-50.244" y1="72.699" y2="159.48" gradientTransform="matrix(.59136 -.15845 -.15845 -.59136 103.35 108.3)" gradientUnits="userSpaceOnUse" xlink:href="#linearGradient3694"/>
  <linearGradient id="linearGradient4071" x1="-73.494" x2="-50.244" y1="72.699" y2="159.48" gradientTransform="matrix(.59136 -.15845 -.15845 -.59136 103.35 109.3)" gradientUnits="userSpaceOnUse" xlink:href="#linearGradient3694"/>
  <linearGradient id="linearGradient4091" x1="58" x2="58" y1="19" y2="120" gradientUnits="userSpaceOnUse">
   <stop id="stop4087" stop-color="#782121" offset="0"/>
   <stop id="stop4089" stop-color="#782121" stop-opacity="0" offset="1"/>
  </linearGradient>
 </defs>
 <metadata id="metadata2413">
  <rdf:RDF>
   <cc:Work rdf:about="">
    <dc:format>image/svg+xml</dc:format>
    <dc:type rdf:resource="http://purl.org/dc/dcmitype/StillImage"/>
    <dc:title/>
   </cc:Work>
  </rdf:RDF>
 </metadata>
 <g id="layer2" display="none">
  <rect id="rect3745" x="5" y="7" width="86" height="85" rx="6" ry="6" fill="url(#ButtonShadow)" filter="url(#filter3174)" opacity=".9"/>
 </g>
 <g id="layer3">
  <path id="path3786" transform="scale(1,-1)" d="m12-95.031c-5.5111 0-10.031 4.5202-10.031 10.031v71c0 5.5111 4.5202 10.031 10.031 10.031h72c5.5111 0 10.031-4.5202 10.031-10.031v-71c0-5.5111-4.5202-10.031-10.031-10.031h-72z" fill="url(#linearGradient3780)" opacity=".08"/>
  <path id="path3778" transform="scale(1,-1)" d="m12-94.031c-4.9716 0-9.0312 4.0596-9.0312 9.0312v71c0 4.9716 4.0596 9.0312 9.0312 9.0312h72c4.9716 0 9.0312-4.0596 9.0312-9.0312v-71c0-4.9716-4.0596-9.0312-9.0312-9.0312h-72z" fill="url(#linearGradient3780)" opacity=".1"/>
  <path id="path3770" transform="scale(1,-1)" d="m12-93c-4.4091 0-8 3.5909-8 8v71c0 4.4091 3.5909 8 8 8h72c4.4091 0 8-3.5909 8-8v-71c0-4.4091-3.5909-8-8-8h-72z" fill="url(#linearGradient3780)" opacity=".2"/>
  <rect id="rect3723" transform="scale(1,-1)" x="5" y="-92" width="86" height="85" rx="7" ry="7" fill="url(#linearGradient3780)" opacity=".3"/>
  <rect id="rect3716" transform="scale(1,-1)" x="6" y="-91" width="84" height="84" rx="6" ry="6" fill="url(#linearGradient3721)" opacity=".45"/>
 </g>
 <g id="layer1">
  <rect id="rect2419" x="6" y="6" width="84" height="84" rx="6" ry="6" fill="url(#linearGradient3617)"/>
  <path id="rect3728" d="m12 6c-3.324 0-6 2.676-6 6v2 68 2c0 0.33472 0.04135 0.6507 0.09375 0.96875 0.0487 0.2956 0.09704 0.59692 0.1875 0.875 0.00988 0.03038 0.020892 0.0636 0.03125 0.09375 0.098865 0.28777 0.23488 0.54745 0.375 0.8125 0.14459 0.27351 0.31562 0.53562 0.5 0.78125s0.37378 0.47347 0.59375 0.6875c0.43995 0.42806 0.94291 0.81453 1.5 1.0938 0.27854 0.13961 0.57347 0.24695 0.875 0.34375-0.2562-0.10022-0.48671-0.23627-0.71875-0.375-0.00741-0.0044-0.023866 0.0045-0.03125 0-0.031933-0.0193-0.062293-0.04251-0.09375-0.0625-0.1204-0.0767-0.23102-0.16351-0.34375-0.25-0.10617-0.0808-0.21328-0.16111-0.3125-0.25-0.17793-0.16143-0.34746-0.34539-0.5-0.53125-0.10758-0.13026-0.21839-0.26528-0.3125-0.40625-0.025089-0.03838-0.038446-0.08587-0.0625-0.125-0.064763-0.10303-0.13023-0.20452-0.1875-0.3125-0.10101-0.19471-0.20567-0.4157-0.28125-0.625-0.00796-0.02181-0.023589-0.04055-0.03125-0.0625-0.031825-0.09195-0.035804-0.18683-0.0625-0.28125-0.030332-0.10662-0.070389-0.20303-0.09375-0.3125-0.072879-0.34151-0.125-0.6982-0.125-1.0625v-2-68-2c0-2.7818 2.2182-5 5-5h2 68 2c2.7818 0 5 2.2182 5 5v2 68 2c0 0.3643-0.05212 0.72099-0.125 1.0625-0.04415 0.20689-0.08838 0.39766-0.15625 0.59375-0.0077 0.02195-0.0233 0.04069-0.03125 0.0625-0.06274 0.17374-0.13838 0.36745-0.21875 0.53125-0.04158 0.0828-0.07904 0.16995-0.125 0.25-0.0546 0.09721-0.12677 0.18835-0.1875 0.28125-0.09411 0.14096-0.20492 0.276-0.3125 0.40625-0.14317 0.17445-0.30314 0.347-0.46875 0.5-0.01117 0.0102-0.01998 0.02115-0.03125 0.03125-0.13839 0.12556-0.28509 0.23444-0.4375 0.34375-0.10257 0.07315-0.20432 0.15336-0.3125 0.21875-0.0074 0.0045-0.02384-0.0044-0.03125 0-0.23204 0.13873-0.46255 0.27478-0.71875 0.375 0.30153-0.0968 0.59646-0.20414 0.875-0.34375 0.55709-0.27922 1.0601-0.66569 1.5-1.0938 0.21997-0.21403 0.40937-0.44186 0.59375-0.6875s0.35541-0.50774 0.5-0.78125c0.14012-0.26505 0.27614-0.52473 0.375-0.8125 0.01041-0.03078 0.02133-0.06274 0.03125-0.09375 0.09046-0.27808 0.1388-0.5794 0.1875-0.875 0.0524-0.31805 0.09375-0.63403 0.09375-0.96875v-2-68-2c0-3.324-2.676-6-6-6h-72z" fill="url(#linearGradient3188)" opacity=".35"/>
  <path id="path3615" d="m12 90c-3.324 0-6-2.676-6-6v-2-68-2c0-0.33472 0.04135-0.6507 0.09375-0.96875 0.0487-0.2956 0.09704-0.59692 0.1875-0.875 0.00988-0.03038 0.020892-0.0636 0.03125-0.09375 0.098865-0.28777 0.23488-0.54745 0.375-0.8125 0.14459-0.27351 0.31562-0.53562 0.5-0.78125s0.37378-0.47347 0.59375-0.6875c0.43995-0.42806 0.94291-0.81453 1.5-1.0938 0.27854-0.13961 0.57347-0.24695 0.875-0.34375-0.2562 0.10022-0.48671 0.23627-0.71875 0.375-0.00741 0.0044-0.023866-0.0045-0.03125 0-0.031933 0.0193-0.062293 0.04251-0.09375 0.0625-0.1204 0.0767-0.23102 0.16351-0.34375 0.25-0.10617 0.0808-0.21328 0.16111-0.3125 0.25-0.17793 0.16143-0.34746 0.34539-0.5 0.53125-0.10758 0.13026-0.21839 0.26528-0.3125 0.40625-0.025089 0.03838-0.038446 0.08587-0.0625 0.125-0.064763 0.10303-0.13023 0.20452-0.1875 0.3125-0.10101 0.19471-0.20567 0.4157-0.28125 0.625-0.00796 0.02181-0.023589 0.04055-0.03125 0.0625-0.031825 0.09195-0.035804 0.18683-0.0625 0.28125-0.030332 0.10662-0.070389 0.20303-0.09375 0.3125-0.072879 0.34151-0.125 0.6982-0.125 1.0625v2 68 2c0 2.7818 2.2182 5 5 5h2 68 2c2.7818 0 5-2.2182 5-5v-2-68-2c0-0.3643-0.05212-0.72099-0.125-1.0625-0.04415-0.20689-0.08838-0.39766-0.15625-0.59375-0.0077-0.02195-0.0233-0.04069-0.03125-0.0625-0.06274-0.17374-0.13838-0.36745-0.21875-0.53125-0.04158-0.0828-0.07904-0.16995-0.125-0.25-0.0546-0.09721-0.12677-0.18835-0.1875-0.28125-0.09411-0.14096-0.20492-0.276-0.3125-0.40625-0.14317-0.17445-0.30314-0.347-0.46875-0.5-0.01117-0.0102-0.01998-0.02115-0.03125-0.03125-0.13839-0.12556-0.28509-0.23444-0.4375-0.34375-0.10257-0.07315-0.20432-0.15336-0.3125-0.21875-0.0074-0.0045-0.02384 0.0044-0.03125 0-0.23204-0.13873-0.46255-0.27478-0.71875-0.375 0.30153 0.0968 0.59646 0.20414 0.875 0.34375 0.55709 0.27922 1.0601 0.66569 1.5 1.0938 0.21997 0.21403 0.40937 0.44186 0.59375 0.6875s0.35541 0.50774 0.5 0.78125c0.14012 0.26505 0.27614 0.52473 0.375 0.8125 0.01041 0.03078 0.02133 0.06274 0.03125 0.09375 0.09046 0.27808 0.1388 0.5794 0.1875 0.875 0.0524 0.31805 0.09375 0.63403 0.09375 0.96875v2 68 2c0 3.324-2.676 6-6 6h-72z" fill="url(#radialGradient3619)" opacity=".2"/>
 </g>
 <g id="layer5">
  <rect id="rect3171" x="15" y="15" width="66" height="66" rx="12" ry="12" clip-path="url(#clipPath3613)" fill="url(#linearGradient3613)" filter="url(#filter3794)" opacity=".1" stroke="#fff" stroke-linecap="round" stroke-width=".5"/>
 </g>
 <g id="layer4">
  <path id="path3860" d="m75.464 59.577c-0.1751-0.23694-0.45245-0.56999-0.76469-0.89019-3.2485-3.3336-5.6748-7.2697-6.982-11.629-0.06-0.20265-0.12-0.4053-0.17388-0.60856-0.05633-0.20449-0.1053-0.41326-0.15551-0.62081-1.0463-4.4265-0.91836-9.0507 0.23326-13.56 0 0 0.17571-0.74448 0.22102-1.0512 0.96795-5.6975-2.5396-11.298-8.2303-12.824-5.8022-1.5545-11.749 1.699-13.646 7.3107-0.07837 0.20938-0.23816 0.73836-0.24 0.74632-1.2471 4.4204-3.4138 8.4336-6.475 11.719-3.4775 3.6502-7.8985 6.2454-12.855 7.5734-6.0379 1.6175-9.625 7.8348-8.0069 13.875 1.6206 6.0391 7.8281 9.6262 13.87 8.0062 4.5085-1.151 9.1328-1.2814 13.561-0.23571 0.20632 0.05143 0.41387 0.10224 0.61958 0.15796 0.20632 0.0551 0.41081 0.1151 0.6153 0.17326 4.3579 1.3084 8.2983 3.7328 11.627 6.9832 0.40898 0.40959 0.76224 0.69795 1.0922 0.93121 4.4748 3.4102 10.842 3.1487 14.922-0.93121 4.1412-4.1387 4.3812-10.678 0.76775-15.125zm-27.437 2.0467c-5.9112-1.5839-9.4205-7.6622-7.8366-13.573 1.5851-5.9118 7.6622-9.4211 13.573-7.8373 5.9136 1.5851 9.4217 7.6616 7.8373 13.573s-7.6603 9.4217-13.574 7.8373z" fill="url(#linearGradient4018)"/>
  <path id="path3903" d="m153.2 87.015v0.359h-0.695v1.815h-0.432v-1.815h-0.695v-0.359h1.822zm2.351 2.175-0.08-1.279c-8e-3 -0.168-8e-3 -0.376-0.017-0.608h-0.024c-0.055 0.192-0.119 0.448-0.184 0.648l-0.392 1.207h-0.448l-0.391-1.239c-0.041-0.168-0.104-0.424-0.152-0.616h-0.023c0 0.2-9e-3 0.408-0.017 0.608l-0.08 1.279h-0.415l0.159-2.175h0.647l0.376 1.063c0.048 0.167 0.088 0.327 0.144 0.552h8e-3c0.057-0.2 0.104-0.385 0.152-0.544l0.376-1.071h0.624l0.168 2.175h-0.431z" opacity=".5"/>
  <path id="path4060" d="m56.375 17c-4.6385 0.13193-8.8647 3.1592-10.406 7.7188-0.07837 0.20938-0.24816 0.71079-0.25 0.71875-1.2471 4.4204-3.4076 8.4335-6.4688 11.719-3.4775 3.6502-7.8871 6.2658-12.844 7.5938-5.1575 1.3817-8.5105 6.1019-8.375 11.219 0.29599-4.7229 3.5558-8.9277 8.375-10.219 4.9567-1.3279 9.3662-3.9436 12.844-7.5938 3.0612-3.2853 5.2216-7.2984 6.4688-11.719 0.001837-0.007959 0.17163-0.50936 0.25-0.71875 1.8973-5.6118 7.8541-8.867 13.656-7.3125 4.8714 1.306 8.1098 5.5923 8.3438 10.375 0.20838-5.1748-3.1341-9.9783-8.3438-11.375-1.0879-0.29146-2.1796-0.4367-3.25-0.40625zm10.312 22.781c0.009887 2.0392 0.21763 4.0747 0.6875 6.0625 0.050203 0.20755 0.09992 0.38926 0.15625 0.59375 0.053877 0.20326 0.1275 0.42235 0.1875 0.625 1.3071 4.3597 3.7202 8.2914 6.9688 11.625 0.31224 0.3202 0.60615 0.63806 0.78125 0.875 1.5809 1.9457 2.4295 4.3172 2.5312 6.6875 0.12597-2.7081-0.72454-5.4638-2.5312-7.6875-0.1751-0.23694-0.46901-0.5548-0.78125-0.875-3.2485-3.3336-5.6616-7.2653-6.9688-11.625-0.06-0.20265-0.13362-0.42174-0.1875-0.625-0.05633-0.20449-0.10605-0.3862-0.15625-0.59375-0.39237-1.6599-0.61745-3.3634-0.6875-5.0625zm-4.7188 10.781c-0.044164 0.73502-0.17694 1.4798-0.375 2.2188-1.5845 5.9118-7.6489 9.4282-13.562 7.8438-4.7156-1.2635-7.8953-5.3826-8.1875-10-0.14278 5.0142 3.1313 9.6452 8.1875 11 5.9136 1.5845 11.978-1.932 13.562-7.8438 0.2886-1.0768 0.40807-2.1592 0.375-3.2188z" opacity=".3"/>
  <path id="path4069" d="m67.969 29.781c-0.019243 0.47788-0.04317 0.95584-0.125 1.4375-0.045306 0.30673-0.21875 1.0625-0.21875 1.0625-0.66112 2.5886-0.9796 5.2072-0.9375 7.8125 0.045153-2.273 0.36169-4.5579 0.9375-6.8125 0 0 0.17344-0.75577 0.21875-1.0625 0.13937-0.82035 0.16435-1.633 0.125-2.4375zm-17.531 10.062c-4.7203 0.18809-8.9621 3.4154-10.25 8.2188-0.32034 1.1956-0.41783 2.3918-0.34375 3.5625 0.024142-0.8478 0.11468-1.7076 0.34375-2.5625 1.5851-5.9118 7.6513-9.4276 13.562-7.8438 4.8048 1.2879 8.0312 5.5295 8.2188 10.25 0.263-5.1097-3.076-9.8715-8.2188-11.25-1.1083-0.29697-2.2232-0.4184-3.3125-0.375zm-32.406 17.125c-0.074847 1.1943 0.017154 2.4371 0.34375 3.6562 1.6206 6.0391 7.8328 9.62 13.875 8 4.5085-1.151 9.1342-1.2957 13.562-0.25 0.20632 0.05143 0.41929 0.10054 0.625 0.15625 0.20632 0.0551 0.42051 0.12934 0.625 0.1875 4.3579 1.3084 8.2963 3.7184 11.625 6.9688 0.40898 0.40959 0.76375 0.70424 1.0938 0.9375 4.4748 3.4102 10.826 3.1424 14.906-0.9375 2.3294-2.328 3.4433-5.3899 3.3125-8.4375-0.12597 2.7081-1.2419 5.3681-3.3125 7.4375-4.08 4.08-10.431 4.3477-14.906 0.9375-0.33-0.23326-0.68478-0.52791-1.0938-0.9375-3.3287-3.2504-7.2671-5.6604-11.625-6.9688-0.20449-0.058162-0.41868-0.1324-0.625-0.1875-0.20571-0.055714-0.41868-0.10482-0.625-0.15625-4.4283-1.0457-9.054-0.90101-13.562 0.25-6.0422 1.62-12.254-1.9609-13.875-8-0.23595-0.88079-0.32061-1.7827-0.34375-2.6562z" fill="url(#linearGradient4071)" opacity=".4"/>
  <path id="path4078" d="m56.375 18c-4.6385 0.13193-8.8647 3.1592-10.406 7.7188-0.07837 0.20938-0.24816 0.71079-0.25 0.71875-1.2471 4.4204-3.4076 8.4335-6.4688 11.719-3.4775 3.6502-7.8871 6.2658-12.844 7.5938-6.0379 1.6175-9.6494 7.8347-8.0312 13.875 1.6206 6.0391 7.8328 9.62 13.875 8 4.5085-1.151 9.1342-1.2957 13.562-0.25 0.20632 0.05143 0.41929 0.10054 0.625 0.15625 0.20632 0.0551 0.42051 0.12934 0.625 0.1875 4.3579 1.3084 8.2963 3.7184 11.625 6.9688 0.40898 0.40959 0.76375 0.70424 1.0938 0.9375 4.4748 3.4102 10.826 3.1424 14.906-0.9375 4.1412-4.1387 4.3947-10.678 0.78125-15.125-0.1751-0.23694-0.46901-0.5548-0.78125-0.875-3.2485-3.3336-5.6616-7.2653-6.9688-11.625-0.06-0.20265-0.13362-0.42174-0.1875-0.625-0.05633-0.20449-0.10605-0.3862-0.15625-0.59375-1.0463-4.4265-0.90162-9.0534 0.25-13.562 0 0 0.17344-0.75577 0.21875-1.0625 0.96795-5.6975-2.528-11.287-8.2188-12.812-1.0879-0.29146-2.1796-0.4367-3.25-0.40625zm0.03125 1.0625c0.96646-0.026311 1.9431 0.077339 2.9375 0.34375 5.186 1.3904 8.3809 6.4398 7.5 11.625a1.0279 1.0279 0 0 0-0.03125 0.03125c-0.024789 0.16783-0.17736 0.92262-0.1875 0.96875-3.16e-4 0.001436 0 0.03125 0 0.03125-1.1811 4.6429-1.3357 9.4381-0.25 14.031 0.051867 0.21443 0.10259 0.39881 0.15625 0.59375 0.002924 0.011033-0.002962 0.020313 0 0.03125 0.06431 0.23748 0.13753 0.45622 0.1875 0.625 1.3582 4.5302 3.8659 8.6218 7.2188 12.062 0.29995 0.30759 0.60924 0.63306 0.71875 0.78125a1.0279 1.0279 0 0 0 0 0.03125c3.2877 4.0464 3.0857 9.9791-0.6875 13.75-3.7187 3.7187-9.4812 3.954-13.562 0.84375a1.0279 1.0279 0 0 0-0.03125-0.03125c-0.28039-0.1982-0.59563-0.43882-0.96875-0.8125a1.0279 1.0279 0 0 0 0-0.03125c-3.437-3.3561-7.535-5.8282-12.062-7.1875a1.0279 1.0279 0 0 0 0-0.03125c-0.15753-0.044805-0.38225-0.12123-0.625-0.1875-0.011179-0.003052-0.01992 0.003026-0.03125 0-0.21991-0.058807-0.4395-0.11001-0.625-0.15625-4.6048-1.0874-9.4107-0.93758-14.062 0.25a1.0279 1.0279 0 0 0-0.03125 0c-5.5061 1.4762-11.117-1.7789-12.594-7.2812-1.4736-5.5009 1.8115-11.12 7.3125-12.594 5.1354-1.3758 9.7048-4.0882 13.312-7.875a1.0279 1.0279 0 0 0 0-0.03125c3.1814-3.4142 5.4315-7.5626 6.7188-12.125a1.0279 1.0279 0 0 0 0-0.0625c9.18e-4 -0.003979 0.011207-0.007165 0.0625-0.15625s0.12606-0.32558 0.15625-0.40625a1.0279 1.0279 0 0 0 0-0.03125c1.2951-3.8306 4.6779-6.4632 8.5-6.9375 0.31748-0.039393 0.6466-0.05373 0.96875-0.0625zm-6 19.75c-0.39874 0.014545-0.79734 0.03939-1.1875 0.09375-4.6783 0.6518-8.7345 4.0385-10.031 8.875-1.7278 6.4483 2.1159 13.116 8.5625 14.844 6.4505 1.7283 13.116-2.1158 14.844-8.5625 1.7284-6.4487-2.1139-13.115-8.5625-14.844-1.2056-0.32303-2.4288-0.44988-3.625-0.40625zm0.03125 1.0312c1.0893-0.043405 2.2042 0.078026 3.3125 0.375 5.9136 1.5851 9.4282 7.6507 7.8438 13.562s-7.6489 9.4282-13.562 7.8438c-5.9112-1.5839-9.4276-7.6513-7.8438-13.562 1.2879-4.8033 5.5297-8.0307 10.25-8.2188z" fill="url(#linearGradient4091)" opacity=".25"/>
 </g>
</svg>
