<?xml version="1.0" encoding="UTF-8"?>
<!-- Created with Inkscape (http://www.inkscape.org/) -->
<svg id="svg2408" width="96" height="96" version="1.0" xmlns="http://www.w3.org/2000/svg" xmlns:cc="http://creativecommons.org/ns#" xmlns:dc="http://purl.org/dc/elements/1.1/" xmlns:rdf="http://www.w3.org/1999/02/22-rdf-syntax-ns#" xmlns:xlink="http://www.w3.org/1999/xlink">
 <defs id="defs2410">
  <linearGradient id="ButtonShadow" x1="45.448" x2="45.448" y1="92.54" y2="7.0165" gradientTransform="scale(1.0059 .99417)" gradientUnits="userSpaceOnUse">
   <stop id="stop3750" offset="0"/>
   <stop id="stop3752" stop-opacity=".58824" offset="1"/>
  </linearGradient>
  <linearGradient id="linearGradient3737">
   <stop id="stop3739" stop-color="#fff" offset="0"/>
   <stop id="stop3741" stop-color="#fff" stop-opacity="0" offset="1"/>
  </linearGradient>
  <filter id="filter3174">
   <feGaussianBlur id="feGaussianBlur3176" stdDeviation="1.71"/>
  </filter>
  <linearGradient id="linearGradient3188" x1="36.357" x2="36.357" y1="6" y2="63.893" gradientUnits="userSpaceOnUse" xlink:href="#linearGradient3737"/>
  <filter id="filter3794" x="-.192" y="-.192" width="1.384" height="1.384">
   <feGaussianBlur id="feGaussianBlur3796" stdDeviation="5.28"/>
  </filter>
  <radialGradient id="radialGradient3619" cx="48" cy="90.172" r="42" gradientTransform="matrix(1.1573 0 0 .99591 -7.551 .19713)" gradientUnits="userSpaceOnUse" xlink:href="#linearGradient3737"/>
  <clipPath id="clipPath3613">
   <rect id="rect3615" x="6" y="6" width="84" height="84" rx="6" ry="6" fill="#fff"/>
  </clipPath>
  <linearGradient id="linearGradient3617" x1="48" x2="48" y1="90" y2="5.9877" gradientUnits="userSpaceOnUse">
   <stop id="stop3189" stop-color="#787878" offset="0"/>
   <stop id="stop3191" stop-color="#b4b4b4" offset="1"/>
  </linearGradient>
  <linearGradient id="ButtonShadow-0" x1="45.448" x2="45.448" y1="92.54" y2="7.0165" gradientTransform="matrix(1.0059 0 0 .99417 100 0)" gradientUnits="userSpaceOnUse">
   <stop id="stop3750-8" offset="0"/>
   <stop id="stop3752-5" stop-opacity=".58824" offset="1"/>
  </linearGradient>
  <linearGradient id="linearGradient3780" x1="32.251" x2="32.251" y1="6.1317" y2="90.239" gradientTransform="matrix(1.0238 0 0 1.0119 -1.1429 -98.071)" gradientUnits="userSpaceOnUse" xlink:href="#ButtonShadow-0"/>
  <linearGradient id="linearGradient3721" x1="32.251" x2="32.251" y1="6.1317" y2="90.239" gradientTransform="translate(0,-97)" gradientUnits="userSpaceOnUse" xlink:href="#ButtonShadow-0"/>
  <clipPath id="clipPath4403">
   <path id="path4405" d="m30.916 135.97c-0.93727 0.54113-1.2283 1.7475-0.67792 2.7008l1.9375 3.3558c-1.4181 1.4141-2.6223 3.012-3.5955 4.71l-3.7836-0.99095c-0.53163-0.14245-1.0379-0.11751-1.4762 0.13061-0.43816 0.24835-0.79654 0.66758-0.9366 1.1903l-1.9788 7.3851c-0.2801 1.0454 0.36595 2.0654 1.4291 2.3503l3.7722 1.0336c-0.0062 1.9571 0.23771 3.943 0.75876 5.8767l-3.3558 1.9375c-0.95328 0.55037-1.3044 1.7407-0.7633 2.6779l3.8125 6.6034c0.54113 0.93727 1.7475 1.2283 2.7008 0.67793l3.3558-1.9375c1.4141 1.4181 3.012 2.6223 4.71 3.5954l-0.99094 3.7836c-0.28489 1.0632 0.27543 2.1328 1.3209 2.4128l7.3851 1.9788c1.0454 0.28011 2.0654-0.36588 2.3503-1.4291l1.0336-3.7722c1.9571 6e-3 3.943-0.23771 5.8767-0.75876l1.9375 3.3558c0.55038 0.95328 1.7407 1.3044 2.6779 0.7633l6.6034-3.8125c0.93726-0.54113 1.2283-1.7475 0.67792-2.7008l-1.9375-3.3558c1.4181-1.4141 2.6223-3.012 3.5955-4.71l3.7836 0.99094c1.0632 0.2849 2.1327-0.27549 2.4128-1.3209l1.9788-7.3851c0.2801-1.0454-0.36595-2.0654-1.4291-2.3503l-3.7722-1.0336c0.0062-1.9571-0.2377-3.943-0.75875-5.8767l3.3558-1.9375c0.95327-0.55037 1.3044-1.7407 0.7633-2.6779l-3.8125-6.6034c-0.54113-0.93726-1.7475-1.2283-2.7008-0.67792l-3.3558 1.9375c-1.4141-1.4181-3.012-2.6223-4.71-3.5955l0.99094-3.7836c0.28489-1.0632-0.27542-2.1328-1.3209-2.4128l-7.3851-1.9788c-1.0454-0.28011-2.0654 0.36588-2.3503 1.4291l-1.0336 3.7722c-1.9571-6e-3 -3.943 0.2377-5.8767 0.75875l-1.9375-3.3558c-0.55038-0.95328-1.7407-1.3044-2.6779-0.7633l-6.6034 3.8125zm10.052 9.7851c6.6961-3.866 15.258-1.5718 19.124 5.1244s1.5717 15.258-5.1244 19.124c-6.6961 3.866-15.258 1.5717-19.124-5.1244s-1.5717-15.258 5.1244-19.124z" display="block" fill="url(#linearGradient4407)"/>
  </clipPath>
  <linearGradient id="linearGradient4213" x1="48.234" x2="126.14" y1="48.047" y2="66.233" gradientUnits="userSpaceOnUse" xlink:href="#linearGradient4071-3"/>
  <linearGradient id="linearGradient4071-3">
   <stop id="stop4073-8" offset="0"/>
   <stop id="stop4075-4" stop-opacity="0" offset="1"/>
  </linearGradient>
  <linearGradient id="linearGradient4215" x1="48.055" x2="126.67" y1="48.032" y2="62.839" gradientUnits="userSpaceOnUse" xlink:href="#linearGradient4071-3"/>
  <linearGradient id="linearGradient4217" x1="47.997" x2="127.05" y1="48.029" y2="60.29" gradientUnits="userSpaceOnUse" xlink:href="#linearGradient4071-3"/>
  <linearGradient id="linearGradient4219" x1="47.998" x2="127.42" y1="48.029" y2="57.665" gradientUnits="userSpaceOnUse" xlink:href="#linearGradient4071-3"/>
  <linearGradient id="linearGradient4221" x1="48.234" x2="126.14" y1="48.047" y2="66.233" gradientUnits="userSpaceOnUse" xlink:href="#linearGradient3737"/>
  <linearGradient id="linearGradient4223" x1="48.055" x2="126.67" y1="48.032" y2="62.839" gradientUnits="userSpaceOnUse" xlink:href="#linearGradient3737"/>
  <linearGradient id="linearGradient4225" x1="47.997" x2="127.05" y1="48.029" y2="60.29" gradientUnits="userSpaceOnUse" xlink:href="#linearGradient3737"/>
  <linearGradient id="linearGradient4227" x1="47.998" x2="127.42" y1="48.029" y2="57.665" gradientUnits="userSpaceOnUse" xlink:href="#linearGradient3737"/>
  <linearGradient id="linearGradient3141" x1="20.759" x2="20.759" y1="1" y2="45.017" gradientTransform="matrix(1.2791 0 0 1.2791 17.302 18.582)" gradientUnits="userSpaceOnUse">
   <stop id="stop3311" stop-color="#f0f0f0" offset="0"/>
   <stop id="stop3313" stop-color="#aaa" offset="1"/>
  </linearGradient>
  <linearGradient id="linearGradient3917" x1="48" x2="48" y1="20.221" y2="138.66" gradientUnits="userSpaceOnUse" xlink:href="#linearGradient3737"/>
 </defs>
 <metadata id="metadata2413">
  <rdf:RDF>
   <cc:Work rdf:about="">
    <dc:format>image/svg+xml</dc:format>
    <dc:type rdf:resource="http://purl.org/dc/dcmitype/StillImage"/>
   </cc:Work>
  </rdf:RDF>
 </metadata>
 <g id="layer2" display="none">
  <rect id="rect3745" x="5" y="7" width="86" height="85" rx="6" ry="6" fill="url(#ButtonShadow)" filter="url(#filter3174)" opacity=".9"/>
 </g>
 <g id="layer4">
  <path id="path3786-1" transform="scale(1,-1)" d="m12-95.031c-5.5111 0-10.031 4.5202-10.031 10.031v71c0 5.5111 4.5202 10.031 10.031 10.031h72c5.5111 0 10.031-4.5202 10.031-10.031v-71c0-5.5111-4.5202-10.031-10.031-10.031h-72z" fill="url(#linearGradient3780)" opacity=".08"/>
  <path id="path3778" transform="scale(1,-1)" d="m12-94.031c-4.9716 0-9.0312 4.0596-9.0312 9.0312v71c0 4.9716 4.0596 9.0312 9.0312 9.0312h72c4.9716 0 9.0312-4.0596 9.0312-9.0312v-71c0-4.9716-4.0596-9.0312-9.0312-9.0312h-72z" fill="url(#linearGradient3780)" opacity=".1"/>
  <path id="path3770" transform="scale(1,-1)" d="m12-93c-4.4091 0-8 3.5909-8 8v71c0 4.4091 3.5909 8 8 8h72c4.4091 0 8-3.5909 8-8v-71c0-4.4091-3.5909-8-8-8h-72z" fill="url(#linearGradient3780)" opacity=".2"/>
  <rect id="rect3723" transform="scale(1,-1)" x="5" y="-92" width="86" height="85" rx="7" ry="7" fill="url(#linearGradient3780)" opacity=".3"/>
  <rect id="rect3716" transform="scale(1,-1)" x="6" y="-91" width="84" height="84" rx="6" ry="6" fill="url(#linearGradient3721)" opacity=".45"/>
 </g>
 <g id="layer1">
  <rect id="rect2419" x="6" y="6" width="84" height="84" rx="6" ry="6" fill="url(#linearGradient3617)"/>
  <path id="path3615" d="m12 90c-3.324 0-6-2.676-6-6v-2-68-2c0-0.33472 0.04135-0.6507 0.09375-0.96875 0.0487-0.2956 0.09704-0.59692 0.1875-0.875 0.00988-0.03038 0.020892-0.0636 0.03125-0.09375 0.098865-0.28777 0.23488-0.54745 0.375-0.8125 0.14459-0.27351 0.31562-0.53562 0.5-0.78125s0.37378-0.47347 0.59375-0.6875c0.43995-0.42806 0.94291-0.81453 1.5-1.0938 0.27854-0.13961 0.57347-0.24695 0.875-0.34375-0.2562 0.10022-0.48671 0.23627-0.71875 0.375-0.00741 0.0044-0.023866-0.0045-0.03125 0-0.031933 0.0193-0.062293 0.04251-0.09375 0.0625-0.1204 0.0767-0.23102 0.16351-0.34375 0.25-0.10617 0.0808-0.21328 0.16111-0.3125 0.25-0.17793 0.16143-0.34746 0.34539-0.5 0.53125-0.10758 0.13026-0.21839 0.26528-0.3125 0.40625-0.025089 0.03838-0.038446 0.08587-0.0625 0.125-0.064763 0.10303-0.13023 0.20452-0.1875 0.3125-0.10101 0.19471-0.20567 0.4157-0.28125 0.625-0.00796 0.02181-0.023589 0.04055-0.03125 0.0625-0.031825 0.09195-0.035804 0.18683-0.0625 0.28125-0.030332 0.10662-0.070389 0.20303-0.09375 0.3125-0.072879 0.34151-0.125 0.6982-0.125 1.0625v2 68 2c0 2.7818 2.2182 5 5 5h2 68 2c2.7818 0 5-2.2182 5-5v-2-68-2c0-0.3643-0.05212-0.72099-0.125-1.0625-0.04415-0.20689-0.08838-0.39766-0.15625-0.59375-0.0077-0.02195-0.0233-0.04069-0.03125-0.0625-0.06274-0.17374-0.13838-0.36745-0.21875-0.53125-0.04158-0.0828-0.07904-0.16995-0.125-0.25-0.0546-0.09721-0.12677-0.18835-0.1875-0.28125-0.09411-0.14096-0.20492-0.276-0.3125-0.40625-0.14317-0.17445-0.30314-0.347-0.46875-0.5-0.01117-0.0102-0.01998-0.02115-0.03125-0.03125-0.13839-0.12556-0.28509-0.23444-0.4375-0.34375-0.10257-0.07315-0.20432-0.15336-0.3125-0.21875-0.0074-0.0045-0.02384 0.0044-0.03125 0-0.23204-0.13873-0.46255-0.27478-0.71875-0.375 0.30153 0.0968 0.59646 0.20414 0.875 0.34375 0.55709 0.27922 1.0601 0.66569 1.5 1.0938 0.21997 0.21403 0.40937 0.44186 0.59375 0.6875s0.35541 0.50774 0.5 0.78125c0.14012 0.26505 0.27614 0.52473 0.375 0.8125 0.01041 0.03078 0.02133 0.06274 0.03125 0.09375 0.09046 0.27808 0.1388 0.5794 0.1875 0.875 0.0524 0.31805 0.09375 0.63403 0.09375 0.96875v2 68 2c0 3.324-2.676 6-6 6h-72z" fill="url(#radialGradient3619)" opacity=".2"/>
  <path id="rect3728" d="m12 6c-3.324 0-6 2.676-6 6v2 68 2c0 0.33472 0.04135 0.6507 0.09375 0.96875 0.0487 0.2956 0.09704 0.59692 0.1875 0.875 0.00988 0.03038 0.020892 0.0636 0.03125 0.09375 0.098865 0.28777 0.23488 0.54745 0.375 0.8125 0.14459 0.27351 0.31562 0.53562 0.5 0.78125s0.37378 0.47347 0.59375 0.6875c0.43995 0.42806 0.94291 0.81453 1.5 1.0938 0.27854 0.13961 0.57347 0.24695 0.875 0.34375-0.2562-0.10022-0.48671-0.23627-0.71875-0.375-0.00741-0.0044-0.023866 0.0045-0.03125 0-0.031933-0.0193-0.062293-0.04251-0.09375-0.0625-0.1204-0.0767-0.23102-0.16351-0.34375-0.25-0.10617-0.0808-0.21328-0.16111-0.3125-0.25-0.17793-0.16143-0.34746-0.34539-0.5-0.53125-0.10758-0.13026-0.21839-0.26528-0.3125-0.40625-0.025089-0.03838-0.038446-0.08587-0.0625-0.125-0.064763-0.10303-0.13023-0.20452-0.1875-0.3125-0.10101-0.19471-0.20567-0.4157-0.28125-0.625-0.00796-0.02181-0.023589-0.04055-0.03125-0.0625-0.031825-0.09195-0.035804-0.18683-0.0625-0.28125-0.030332-0.10662-0.070389-0.20303-0.09375-0.3125-0.072879-0.34151-0.125-0.6982-0.125-1.0625v-2-68-2c0-2.7818 2.2182-5 5-5h2 68 2c2.7818 0 5 2.2182 5 5v2 68 2c0 0.3643-0.05212 0.72099-0.125 1.0625-0.04415 0.20689-0.08838 0.39766-0.15625 0.59375-0.0077 0.02195-0.0233 0.04069-0.03125 0.0625-0.06274 0.17374-0.13838 0.36745-0.21875 0.53125-0.04158 0.0828-0.07904 0.16995-0.125 0.25-0.0546 0.09721-0.12677 0.18835-0.1875 0.28125-0.09411 0.14096-0.20492 0.276-0.3125 0.40625-0.14317 0.17445-0.30314 0.347-0.46875 0.5-0.01117 0.0102-0.01998 0.02115-0.03125 0.03125-0.13839 0.12556-0.28509 0.23444-0.4375 0.34375-0.10257 0.07315-0.20432 0.15336-0.3125 0.21875-0.0074 0.0045-0.02384-0.0044-0.03125 0-0.23204 0.13873-0.46255 0.27478-0.71875 0.375 0.30153-0.0968 0.59646-0.20414 0.875-0.34375 0.55709-0.27922 1.0601-0.66569 1.5-1.0938 0.21997-0.21403 0.40937-0.44186 0.59375-0.6875s0.35541-0.50774 0.5-0.78125c0.14012-0.26505 0.27614-0.52473 0.375-0.8125 0.01041-0.03078 0.02133-0.06274 0.03125-0.09375 0.09046-0.27808 0.1388-0.5794 0.1875-0.875 0.0524-0.31805 0.09375-0.63403 0.09375-0.96875v-2-68-2c0-3.324-2.676-6-6-6h-72z" fill="url(#linearGradient3188)" opacity=".3"/>
 </g>
 <g id="layer5">
  <rect id="rect3171" x="15" y="15" width="66" height="66" rx="12" ry="12" clip-path="url(#clipPath3613)" fill="url(#linearGradient3917)" filter="url(#filter3794)" opacity=".15" stroke="#fff" stroke-linecap="round" stroke-width=".5"/>
 </g>
 <g id="layer3">
  <rect id="rect3774" x="6" y="106" width="84" height="84" rx="6" ry="6"/>
  <path id="path4367" d="m44.188 18.406c-2.8121 0-5.0312 2.3493-5.0312 5.0938v1.875c-0.55806 0.20806-1.1143 0.40909-1.6562 0.65625l-1.3125-1.3125c-0.81542-0.81542-2.046-1.5187-3.5312-1.5312-1.3033-0.01113-2.6096 0.48458-3.5938 1.4688l-5.4062 5.4062c-1.984 1.984-1.8462 5.2161 0.0625 7.125l1.3125 1.3125c-0.24716 0.54194-0.44818 1.0982-0.65625 1.6562h-1.875c-2.7445 0-5.0938 2.2191-5.0938 5.0312v7.625c0 2.8121 2.3493 5.0312 5.0938 5.0312h1.875c0.20806 0.55806 0.40909 1.1143 0.65625 1.6562l-1.3125 1.3125c-1.9089 1.9089-2.0467 5.141-0.0625 7.125l5.4062 5.4062c1.9839 1.984 5.216 1.8465 7.125-0.0625l1.3125-1.3125c0.54194 0.24716 1.0982 0.44818 1.6562 0.65625v1.875c0 2.7445 2.2191 5.0938 5.0312 5.0938h7.625c2.8121 0 5.0312-2.3493 5.0312-5.0938v-1.875c0.55806-0.20806 1.1143-0.40909 1.6562-0.65625l1.3125 1.3125c1.909 1.909 5.1411 2.0464 7.125 0.0625l5.4062-5.4062c1.984-1.984 1.8462-5.2161-0.0625-7.125l-1.3125-1.3125c0.24716-0.54194 0.44818-1.0982 0.65625-1.6562h1.875c2.7445 0 5.0938-2.2191 5.0938-5.0312v-7.625c0-2.8121-2.3493-5.0312-5.0938-5.0312h-1.875c-0.20806-0.55806-0.40909-1.1143-0.65625-1.6562l1.3125-1.3125c1.9089-1.9089 2.0467-5.141 0.0625-7.125l-5.4062-5.4062c-1.9839-1.9839-5.216-1.8465-7.125 0.0625l-1.3125 1.3125c-0.54194-0.24716-1.0982-0.44818-1.6562-0.65625v-1.875c0-2.7445-2.2191-5.0938-5.0312-5.0938h-7.625zm3.8125 19.688c6.0753 0 10.906 4.8309 10.906 10.906s-4.8309 10.906-10.906 10.906-10.906-4.8309-10.906-10.906 4.8309-10.906 10.906-10.906z" display="block" opacity=".05"/>
  <path id="path4363" d="m44.188 19.438c-2.2266 0-4 1.8814-4 4.0625v2.5625c-1.0166 0.34968-1.9873 0.74487-2.9375 1.2188l-1.8125-1.8125c-0.67148-0.67147-1.6348-1.2403-2.7812-1.25-1.0221-0.0087-2.0535 0.39721-2.8438 1.1875l-5.4062 5.4062c-1.5703 1.5704-1.4554 4.1069 0.0625 5.625l1.8125 1.8125c-0.47388 0.95017-0.86906 1.9209-1.2188 2.9375h-2.5625c-2.1811 0-4.0625 1.7734-4.0625 4v7.625c0 2.2266 1.8814 4 4.0625 4h2.5625c0.34969 1.0166 0.74488 1.9873 1.2188 2.9375l-1.8125 1.8125c-1.5181 1.5181-1.633 4.0547-0.0625 5.625l5.4062 5.4062c1.5703 1.5703 4.1069 1.4556 5.625-0.0625l1.8125-1.8125c0.95018 0.47388 1.9209 0.86907 2.9375 1.2188v2.5625c0 2.1811 1.7734 4.0625 4 4.0625h7.625c2.2266 0 4-1.8814 4-4.0625v-2.5625c1.0166-0.34968 1.9873-0.74487 2.9375-1.2188l1.8125 1.8125c1.5181 1.5181 4.0547 1.6328 5.625 0.0625l5.4062-5.4062c1.5703-1.5704 1.4554-4.1069-0.0625-5.625l-1.8125-1.8125c0.47388-0.95017 0.86906-1.9209 1.2188-2.9375h2.5625c2.1811 0 4.0625-1.7734 4.0625-4v-7.625c0-2.2266-1.8814-4-4.0625-4h-2.5625c-0.34968-1.0166-0.74487-1.9873-1.2188-2.9375l1.8125-1.8125c1.5181-1.5181 1.633-4.0547 0.0625-5.625l-5.4062-5.4062c-1.5703-1.5703-4.1069-1.4556-5.625 0.0625l-1.8125 1.8125c-0.95018-0.47388-1.9209-0.86906-2.9375-1.2188v-2.5625c0-2.1811-1.7734-4.0625-4-4.0625h-7.625zm3.8125 17.625c6.63 0 11.938 5.3075 11.938 11.938s-5.3075 11.938-11.938 11.938-11.938-5.3075-11.938-11.938 5.3075-11.938 11.938-11.938z" display="block" opacity=".08"/>
  <path id="path4359" d="m44.188 20.469c-1.6496 0-2.9688 1.4-2.9688 3.0312v3.2188c-1.4619 0.45007-2.8652 1.0393-4.1875 1.75l-2.3125-2.2812c-0.52527-0.52527-1.2501-0.93062-2.0625-0.9375-0.75933-0.0065-1.5305 0.28048-2.125 0.875l-5.4062 5.4062c-1.1615 1.1615-1.0746 3.0503 0.0625 4.1875l2.2812 2.3125c-0.71071 1.3223-1.2999 2.7256-1.75 4.1875h-3.2188c-1.6313 0-3.0312 1.3191-3.0312 2.9688v7.625c0 1.6496 1.3999 2.9688 3.0312 2.9688h3.2188c0.45007 1.4619 1.0393 2.8652 1.75 4.1875l-2.2812 2.3125c-1.1372 1.1372-1.2241 3.0261-0.0625 4.1875l5.4062 5.4062c1.1614 1.1615 3.0503 1.0747 4.1875-0.0625l2.3125-2.2812c1.3223 0.71071 2.7256 1.2999 4.1875 1.75v3.2188c0 1.6313 1.3191 3.0312 2.9688 3.0312h7.625c1.6496 0 2.9688-1.3999 2.9688-3.0312v-3.2188c1.4619-0.45007 2.8652-1.0393 4.1875-1.75l2.3125 2.2812c1.1372 1.1372 3.0261 1.2239 4.1875 0.0625l5.4062-5.4062c1.1615-1.1615 1.0746-3.0503-0.0625-4.1875l-2.2812-2.3125c0.71071-1.3223 1.2999-2.7256 1.75-4.1875h3.2188c1.6313 0 3.0312-1.3191 3.0312-2.9688v-7.625c0-1.6496-1.4-2.9688-3.0312-2.9688h-3.2188c-0.45007-1.4619-1.0393-2.8652-1.75-4.1875l2.2812-2.3125c1.1372-1.1372 1.2241-3.0261 0.0625-4.1875l-5.4062-5.4062c-1.1614-1.1614-3.0503-1.0747-4.1875 0.0625l-2.3125 2.2812c-1.3223-0.71071-2.7256-1.2999-4.1875-1.75v-3.2188c0-1.6313-1.3191-3.0312-2.9688-3.0312h-7.625zm3.8125 15.562c7.1784 0 12.969 5.7903 12.969 12.969s-5.7903 12.969-12.969 12.969-12.969-5.7903-12.969-12.969 5.7903-12.969 12.969-12.969z" display="block" opacity=".2"/>
  <path id="path4353" d="m44.188 21.5c-1.0823 0-1.9375 0.89924-1.9375 2v3.875c-1.9351 0.5156-3.7769 1.2973-5.4688 2.2812l-2.7812-2.75c-0.38918-0.38918-0.84012-0.62073-1.3438-0.625-0.50363-0.0043-1.0236 0.17987-1.4062 0.5625l-5.4062 5.4062c-0.76526 0.76527-0.71577 1.9716 0.0625 2.75l2.75 2.7812c-0.98393 1.6918-1.7656 3.5336-2.2812 5.4688h-3.875c-1.1008 0-2 0.85524-2 1.9375v7.625c0 1.0823 0.89925 1.9375 2 1.9375h3.875c0.51561 1.9352 1.2973 3.7769 2.2812 5.4688l-2.75 2.7812c-0.77835 0.77835-0.82784 1.9847-0.0625 2.75l5.4062 5.4062c0.76526 0.76527 1.9717 0.71585 2.75-0.0625l2.7812-2.75c1.6918 0.98394 3.5336 1.7657 5.4688 2.2812v3.875c0 1.1008 0.85524 2 1.9375 2h7.625c1.0823 0 1.9375-0.89925 1.9375-2v-3.875c1.9351-0.5156 3.7769-1.2973 5.4688-2.2812l2.7812 2.75c0.77835 0.77835 1.9847 0.82777 2.75 0.0625l5.4062-5.4062c0.76526-0.76527 0.71577-1.9716-0.0625-2.75l-2.75-2.7812c0.98393-1.6918 1.7657-3.5336 2.2812-5.4688h3.875c1.1007 0 2-0.85524 2-1.9375v-7.625c0-1.0823-0.89926-1.9375-2-1.9375h-3.875c-0.5156-1.9352-1.2973-3.7769-2.2812-5.4688l2.75-2.7812c0.77835-0.77835 0.82786-1.9847 0.0625-2.75l-5.4062-5.4062c-0.76527-0.76527-1.9717-0.71585-2.75 0.0625l-2.7812 2.75c-1.6918-0.98394-3.5336-1.7657-5.4688-2.2812v-3.875c0-1.1008-0.85525-2-1.9375-2h-7.625zm3.8125 13.5c7.732 0 14 6.268 14 14s-6.268 14-14 14-14-6.268-14-14 6.268-14 14-14z" display="block" opacity=".3"/>
  <path id="rect3267" d="m44.188 20.5c-1.0823 0-1.9375 0.89924-1.9375 2v3.875c-1.9351 0.5156-3.7769 1.2973-5.4688 2.2812l-2.7812-2.75c-0.38918-0.38918-0.84012-0.62073-1.3438-0.625-0.50363-0.0043-1.0236 0.17987-1.4062 0.5625l-5.4062 5.4062c-0.76526 0.76527-0.71577 1.9716 0.0625 2.75l2.75 2.7812c-0.98393 1.6918-1.7656 3.5336-2.2812 5.4688h-3.875c-1.1008 0-2 0.85524-2 1.9375v7.625c0 1.0823 0.89925 1.9375 2 1.9375h3.875c0.51561 1.9352 1.2973 3.7769 2.2812 5.4688l-2.75 2.7812c-0.77835 0.77835-0.82784 1.9847-0.0625 2.75l5.4062 5.4062c0.76526 0.76527 1.9717 0.71585 2.75-0.0625l2.7812-2.75c1.6918 0.98394 3.5336 1.7657 5.4688 2.2812v3.875c0 1.1008 0.85524 2 1.9375 2h7.625c1.0823 0 1.9375-0.89925 1.9375-2v-3.875c1.9351-0.5156 3.7769-1.2973 5.4688-2.2812l2.7812 2.75c0.77835 0.77835 1.9847 0.82777 2.75 0.0625l5.4062-5.4062c0.76526-0.76527 0.71577-1.9716-0.0625-2.75l-2.75-2.7812c0.98393-1.6918 1.7657-3.5336 2.2812-5.4688h3.875c1.1007 0 2-0.85524 2-1.9375v-7.625c0-1.0823-0.89926-1.9375-2-1.9375h-3.875c-0.5156-1.9352-1.2973-3.7769-2.2812-5.4688l2.75-2.7812c0.77835-0.77835 0.82786-1.9847 0.0625-2.75l-5.4062-5.4062c-0.76527-0.76527-1.9717-0.71585-2.75 0.0625l-2.7812 2.75c-1.6918-0.98394-3.5336-1.7657-5.4688-2.2812v-3.875c0-1.1008-0.85525-2-1.9375-2h-7.625zm3.8125 13.5c7.732 0 14 6.268 14 14s-6.268 14-14 14-14-6.268-14-14 6.268-14 14-14z" display="block" fill="url(#linearGradient3141)"/>
  <g id="g4176" transform="matrix(.86603 .5 -.5 .86603 85.399 -112.71)" clip-path="url(#clipPath4403)">
   <g id="g4011" transform="matrix(.14137 .99272 -1.1652 .12045 96.937 104.81)" opacity=".9">
    <path id="path4009" transform="matrix(.99411 -.10837 .10837 .99411 -5.1582 5.4919)" d="m108.9 48c0 9.542-2.2423 18.95-6.5462 27.467l-54.35-27.467z" color="#000000" fill="url(#linearGradient4213)" opacity=".05"/>
    <path id="path4007" transform="matrix(.99786 -.065374 .065374 .99786 -3.094 3.2416)" d="m108.9 48c0 7.8388-1.5134 15.604-4.4572 22.869l-56.439-22.869z" color="#000000" fill="url(#linearGradient4215)" opacity=".07"/>
    <path id="path4005" transform="matrix(.99945 -.033121 .033121 .99945 -1.5635 1.6161)" d="m108.9 48c0 6.5505-1.0569 13.058-3.1299 19.272l-57.766-19.272z" color="#000000" fill="url(#linearGradient4217)" opacity=".1"/>
    <path id="path4003" d="m108.9 48c0 5.3218-0.6976 10.621-2.075 15.761l-58.821-15.761z" color="#000000" fill="url(#linearGradient4219)" opacity=".05"/>
   </g>
   <g id="g4027" transform="matrix(1.0628 -.13088 -.7401 3.2275 32.525 9.3323)" opacity=".9">
    <path id="path4029" transform="matrix(.99411 -.10837 .10837 .99411 -5.1582 5.4919)" d="m108.9 48c0 9.542-2.2423 18.95-6.5462 27.467l-54.35-27.467z" color="#000000" fill="url(#linearGradient4221)" opacity=".2"/>
    <path id="path4031" transform="matrix(.99786 -.065374 .065374 .99786 -3.094 3.2416)" d="m108.9 48c0 7.8388-1.5134 15.604-4.4572 22.869l-56.439-22.869z" color="#000000" fill="url(#linearGradient4223)" opacity=".4"/>
    <path id="path4033" transform="matrix(.99945 -.033121 .033121 .99945 -1.5635 1.6161)" d="m108.9 48c0 6.5505-1.0569 13.058-3.1299 19.272l-57.766-19.272z" color="#000000" fill="url(#linearGradient4225)" opacity=".6"/>
    <path id="path4035" d="m108.9 48c0 5.3218-0.6976 10.621-2.075 15.761l-58.821-15.761z" color="#000000" fill="url(#linearGradient4227)" opacity=".8"/>
   </g>
   <g id="g4079" transform="matrix(-.61679 .78713 -.78713 -.61679 115 150.01)" opacity=".5">
    <path id="path4081" transform="matrix(.99411 -.10837 .10837 .99411 -5.1582 5.4919)" d="m108.9 48c0 9.542-2.2423 18.95-6.5462 27.467l-54.35-27.467z" color="#000000" fill="url(#linearGradient4213)" opacity=".05"/>
    <path id="path4083" transform="matrix(.99786 -.065374 .065374 .99786 -3.094 3.2416)" d="m108.9 48c0 7.8388-1.5134 15.604-4.4572 22.869l-56.439-22.869z" color="#000000" fill="url(#linearGradient4215)" opacity=".07"/>
    <path id="path4085" transform="matrix(.99945 -.033121 .033121 .99945 -1.5635 1.6161)" d="m108.9 48c0 6.5505-1.0569 13.058-3.1299 19.272l-57.766-19.272z" color="#000000" fill="url(#linearGradient4217)" opacity=".1"/>
    <path id="path4087" d="m108.9 48c0 5.3218-0.6976 10.621-2.075 15.761l-58.821-15.761z" color="#000000" fill="url(#linearGradient4219)" opacity=".1"/>
   </g>
   <g id="g4097" transform="matrix(-.068172 -1.046 2.7107 .60163 -79.095 179.08)" opacity=".8">
    <path id="path4099" transform="matrix(.99411 -.10837 .10837 .99411 -5.1582 5.4919)" d="m108.9 48c0 9.542-2.2423 18.95-6.5462 27.467l-54.35-27.467z" color="#000000" fill="url(#linearGradient4213)" opacity=".05"/>
    <path id="path4101" transform="matrix(.99786 -.065374 .065374 .99786 -3.094 3.2416)" d="m108.9 48c0 7.8388-1.5134 15.604-4.4572 22.869l-56.439-22.869z" color="#000000" fill="url(#linearGradient4215)" opacity=".07"/>
    <path id="path4103" transform="matrix(.99945 -.033121 .033121 .99945 -1.5635 1.6161)" d="m108.9 48c0 6.5505-1.0569 13.058-3.1299 19.272l-57.766-19.272z" color="#000000" fill="url(#linearGradient4217)" opacity=".1"/>
    <path id="path4105" d="m108.9 48c0 5.3218-0.6976 10.621-2.075 15.761l-58.821-15.761z" color="#000000" fill="url(#linearGradient4219)" opacity=".1"/>
   </g>
   <g id="g4147" transform="matrix(-1.0628 .13088 .7401 -3.2275 62.997 306.67)" opacity=".9">
    <path id="path4149" transform="matrix(.99411 -.10837 .10837 .99411 -5.1582 5.4919)" d="m108.9 48c0 9.542-2.2423 18.95-6.5462 27.467l-54.35-27.467z" color="#000000" fill="url(#linearGradient4221)" opacity=".2"/>
    <path id="path4151" transform="matrix(.99786 -.065374 .065374 .99786 -3.094 3.2416)" d="m108.9 48c0 7.8388-1.5134 15.604-4.4572 22.869l-56.439-22.869z" color="#000000" fill="url(#linearGradient4223)" opacity=".4"/>
    <path id="path4153" transform="matrix(.99945 -.033121 .033121 .99945 -1.5635 1.6161)" d="m108.9 48c0 6.5505-1.0569 13.058-3.1299 19.272l-57.766-19.272z" color="#000000" fill="url(#linearGradient4225)" opacity=".6"/>
    <path id="path4155" d="m108.9 48c0 5.3218-0.6976 10.621-2.075 15.761l-58.821-15.761z" color="#000000" fill="url(#linearGradient4227)" opacity=".8"/>
   </g>
  </g>
  <path id="path4382" d="m44.188 20.5c-1.0823 0-1.9375 0.89924-1.9375 2v1c0-1.1008 0.85524-2 1.9375-2h7.625c1.0823 0 1.9375 0.89924 1.9375 2v-1c0-1.1008-0.85525-2-1.9375-2h-7.625zm-11.531 4.7812c-0.50363-0.0043-1.0236 0.17987-1.4062 0.5625l-5.4062 5.4062c-0.49644 0.49645-0.6346 1.1821-0.46875 1.8125 0.0841-0.29163 0.23476-0.5785 0.46875-0.8125l5.4062-5.4062c0.38263-0.38263 0.90262-0.5668 1.4062-0.5625 0.50363 0.0043 0.95457 0.23582 1.3438 0.625l2.7812 2.75c1.6918-0.98394 3.5336-1.7657 5.4688-2.2812v-1c-1.9351 0.5156-3.7769 1.2973-5.4688 2.2812l-2.7812-2.75c-0.38918-0.38918-0.84012-0.62073-1.3438-0.625zm30.719 0c-0.49455 0.01399-0.98583 0.23583-1.375 0.625l-2.7812 2.75c-1.6918-0.98394-3.5336-1.7657-5.4688-2.2812v1c1.9351 0.5156 3.7769 1.2973 5.4688 2.2812l2.7812-2.75c0.77835-0.77835 1.9847-0.82777 2.75-0.0625l5.4062 5.4062c0.23402 0.234 0.38464 0.52087 0.46875 0.8125 0.16587-0.63044 0.02775-1.3161-0.46875-1.8125l-5.4062-5.4062c-0.38264-0.38264-0.88045-0.57649-1.375-0.5625zm-35.062 12.156c-0.81276 1.5089-1.4876 3.1238-1.9375 4.8125h-3.875c-1.1008 0-2 0.85524-2 1.9375v1c0-1.0823 0.89925-1.9375 2-1.9375h3.875c0.51561-1.9352 1.2973-3.7769 2.2812-5.4688l-0.34375-0.34375zm39.375 0-0.34375 0.34375c0.98393 1.6918 1.7657 3.5336 2.2812 5.4688h3.875c1.1007 0 2 0.85524 2 1.9375v-1c0-1.0823-0.89926-1.9375-2-1.9375h-3.875c-0.44992-1.6887-1.1247-3.3036-1.9375-4.8125zm-33.656 11.062c-0.0059 0.16679-0.03125 0.33178-0.03125 0.5 0 7.732 6.268 14 14 14s14-6.268 14-14c0-0.16822-0.02537-0.33321-0.03125-0.5-0.26459 7.4992-6.405 13.5-13.969 13.5s-13.704-6.0008-13.969-13.5zm-5.7188 11.062-2.4062 2.4375c-0.54035 0.54036-0.72222 1.2754-0.53125 1.9375 0.08981-0.34138 0.25783-0.66408 0.53125-0.9375l2.75-2.7812c-0.12532-0.21548-0.22512-0.43602-0.34375-0.65625zm39.375 0c-0.11863 0.22023-0.21843 0.44077-0.34375 0.65625l2.75 2.7812c0.27339 0.27342 0.44144 0.59612 0.53125 0.9375 0.19094-0.66213 9e-3 -1.3971-0.53125-1.9375l-2.4062-2.4375z" display="block" fill="#fff" opacity=".7"/>
  <path id="path4391" d="m25.375 32.062c-0.19094 0.66213-9e-3 1.3971 0.53125 1.9375l2.4062 2.4375c0.11863-0.22023 0.21843-0.44077 0.34375-0.65625l-2.75-2.7812c-0.27339-0.27342-0.44144-0.59612-0.53125-0.9375zm45.25 0c-0.08982 0.34138-0.25783 0.66408-0.53125 0.9375l-2.75 2.7812c0.12532 0.21548 0.22512 0.43602 0.34375 0.65625l2.4062-2.4375c0.54035-0.54036 0.72222-1.2754 0.53125-1.9375zm-22.625 0.9375c-7.732 0-14 6.268-14 14 0 0.16822 0.02537 0.33321 0.03125 0.5 0.26459-7.4992 6.405-13.5 13.969-13.5s13.704 6.0008 13.969 13.5c0.0059-0.16679 0.03125-0.33178 0.03125-0.5 0-7.732-6.268-14-14-14zm-27.5 17.812v1c0 1.0823 0.89925 1.9375 2 1.9375h3.875c0.44994 1.6887 1.1247 3.3036 1.9375 4.8125l0.34375-0.34375c-0.98393-1.6918-1.7656-3.5336-2.2812-5.4688h-3.875c-1.1008 0-2-0.85524-2-1.9375zm55 0c0 1.0823-0.89926 1.9375-2 1.9375h-3.875c-0.5156 1.9352-1.2973 3.7769-2.2812 5.4688l0.34375 0.34375c0.81276-1.5089 1.4876-3.1238 1.9375-4.8125h3.875c1.1007 0 2-0.85524 2-1.9375v-1zm-50.125 12.125c-0.16586 0.63044-0.02775 1.3161 0.46875 1.8125l5.4062 5.4062c0.76526 0.76527 1.9717 0.71585 2.75-0.0625l2.7812-2.75c1.6918 0.98394 3.5336 1.7657 5.4688 2.2812v-1c-1.9351-0.5156-3.7769-1.2973-5.4688-2.2812l-2.7812 2.75c-0.77835 0.77835-1.9847 0.82777-2.75 0.0625l-5.4062-5.4062c-0.23402-0.234-0.38464-0.52087-0.46875-0.8125zm45.25 0c-0.0841 0.29163-0.23476 0.5785-0.46875 0.8125l-5.4062 5.4062c-0.76527 0.76527-1.9717 0.71585-2.75-0.0625l-2.7812-2.75c-1.6918 0.98394-3.5336 1.7657-5.4688 2.2812v1c1.9351-0.5156 3.7769-1.2973 5.4688-2.2812l2.7812 2.75c0.77835 0.77835 1.9847 0.82777 2.75 0.0625l5.4062-5.4062c0.49644-0.49645 0.6346-1.1821 0.46875-1.8125zm-28.375 9.5625v1c0 1.1008 0.85524 2 1.9375 2h7.625c1.0823 0 1.9375-0.89925 1.9375-2v-1c0 1.1008-0.85525 2-1.9375 2h-7.625c-1.0823 0-1.9375-0.89925-1.9375-2z" display="block" opacity=".2"/>
 </g>
</svg>
