<?xml version="1.0" encoding="UTF-8"?>
<!-- Created with Inkscape (http://www.inkscape.org/) -->
<svg id="svg2408" width="96" height="96" version="1.0" xmlns="http://www.w3.org/2000/svg" xmlns:cc="http://creativecommons.org/ns#" xmlns:dc="http://purl.org/dc/elements/1.1/" xmlns:rdf="http://www.w3.org/1999/02/22-rdf-syntax-ns#" xmlns:xlink="http://www.w3.org/1999/xlink">
 <defs id="defs2410">
  <linearGradient id="ButtonShadow" x1="45.448" x2="45.448" y1="92.54" y2="7.0165" gradientTransform="scale(1.0059 .99417)" gradientUnits="userSpaceOnUse">
   <stop id="stop3750" offset="0"/>
   <stop id="stop3752" stop-opacity=".58824" offset="1"/>
  </linearGradient>
  <linearGradient id="linearGradient3737">
   <stop id="stop3739" stop-color="#fff" offset="0"/>
   <stop id="stop3741" stop-color="#fff" stop-opacity="0" offset="1"/>
  </linearGradient>
  <filter id="filter3174">
   <feGaussianBlur id="feGaussianBlur3176" stdDeviation="1.71"/>
  </filter>
  <linearGradient id="linearGradient3188" x1="36.357" x2="36.357" y1="6" y2="63.893" gradientUnits="userSpaceOnUse" xlink:href="#linearGradient3737"/>
  <filter id="filter3794" x="-.192" y="-.192" width="1.384" height="1.384">
   <feGaussianBlur id="feGaussianBlur3796" stdDeviation="5.28"/>
  </filter>
  <linearGradient id="linearGradient3613" x1="48" x2="48" y1="20.221" y2="138.66" gradientUnits="userSpaceOnUse" xlink:href="#linearGradient3737"/>
  <radialGradient id="radialGradient3619" cx="48" cy="90.172" r="42" gradientTransform="matrix(1.1573 0 0 .99591 -7.551 .19713)" gradientUnits="userSpaceOnUse" xlink:href="#linearGradient3737"/>
  <clipPath id="clipPath3613">
   <rect id="rect3615" x="6" y="6" width="84" height="84" rx="6" ry="6" fill="#fff"/>
  </clipPath>
  <linearGradient id="ButtonShadow-0" x1="45.448" x2="45.448" y1="92.54" y2="7.0165" gradientTransform="matrix(1.0059 0 0 .99417 100 0)" gradientUnits="userSpaceOnUse">
   <stop id="stop3750-8" offset="0"/>
   <stop id="stop3752-5" stop-opacity=".58824" offset="1"/>
  </linearGradient>
  <linearGradient id="linearGradient3780" x1="32.251" x2="32.251" y1="6.1317" y2="90.239" gradientTransform="matrix(1.0238 0 0 1.0119 -1.1429 -98.071)" gradientUnits="userSpaceOnUse" xlink:href="#ButtonShadow-0"/>
  <linearGradient id="linearGradient3721" x1="32.251" x2="32.251" y1="6.1317" y2="90.239" gradientTransform="translate(0,-97)" gradientUnits="userSpaceOnUse" xlink:href="#ButtonShadow-0"/>
  <linearGradient id="linearGradient3121" x1="48" x2="48" y1="90" y2="5.9877" gradientUnits="userSpaceOnUse">
   <stop id="stop3927-9" stop-color="#3c6eb4" offset="0"/>
   <stop id="stop3929-8" stop-color="#81a4d5" offset="1"/>
  </linearGradient>
  <radialGradient id="radialGradient3891" cx="48" cy="48" r="35.25" gradientUnits="userSpaceOnUse">
   <stop id="stop3899" stop-color="#294172" stop-opacity=".37405" offset="0"/>
   <stop id="stop3901" stop-color="#294172" offset="1"/>
  </radialGradient>
 </defs>
 <metadata id="metadata2413">
  <rdf:RDF>
   <cc:Work rdf:about="">
    <dc:format>image/svg+xml</dc:format>
    <dc:type rdf:resource="http://purl.org/dc/dcmitype/StillImage"/>
    <dc:title/>
   </cc:Work>
  </rdf:RDF>
 </metadata>
 <g id="layer2" display="none">
  <rect id="rect3745" x="5" y="7" width="86" height="85" rx="6" ry="6" fill="url(#ButtonShadow)" filter="url(#filter3174)" opacity=".9"/>
 </g>
 <g id="layer3">
  <path id="path3786" transform="scale(1,-1)" d="m12-95.031c-5.5111 0-10.031 4.5202-10.031 10.031v71c0 5.5111 4.5202 10.031 10.031 10.031h72c5.5111 0 10.031-4.5202 10.031-10.031v-71c0-5.5111-4.5202-10.031-10.031-10.031h-72z" fill="url(#linearGradient3780)" opacity=".08"/>
  <path id="path3778" transform="scale(1,-1)" d="m12-94.031c-4.9716 0-9.0312 4.0596-9.0312 9.0312v71c0 4.9716 4.0596 9.0312 9.0312 9.0312h72c4.9716 0 9.0312-4.0596 9.0312-9.0312v-71c0-4.9716-4.0596-9.0312-9.0312-9.0312h-72z" fill="url(#linearGradient3780)" opacity=".1"/>
  <path id="path3770" transform="scale(1,-1)" d="m12-93c-4.4091 0-8 3.5909-8 8v71c0 4.4091 3.5909 8 8 8h72c4.4091 0 8-3.5909 8-8v-71c0-4.4091-3.5909-8-8-8h-72z" fill="url(#linearGradient3780)" opacity=".2"/>
  <rect id="rect3723" transform="scale(1,-1)" x="5" y="-92" width="86" height="85" rx="7" ry="7" fill="url(#linearGradient3780)" opacity=".3"/>
  <rect id="rect3716" transform="scale(1,-1)" x="6" y="-91" width="84" height="84" rx="6" ry="6" fill="url(#linearGradient3721)" opacity=".45"/>
 </g>
 <g id="layer1">
  <rect id="rect2419-5" x="6" y="6" width="84" height="84" rx="6" ry="6" fill="url(#linearGradient3121)"/>
  <path id="rect3728" d="m12 6c-3.324 0-6 2.676-6 6v2 68 2c0 0.33472 0.04135 0.6507 0.09375 0.96875 0.0487 0.2956 0.09704 0.59692 0.1875 0.875 0.00988 0.03038 0.020892 0.0636 0.03125 0.09375 0.098865 0.28777 0.23488 0.54745 0.375 0.8125 0.14459 0.27351 0.31562 0.53562 0.5 0.78125s0.37378 0.47347 0.59375 0.6875c0.43995 0.42806 0.94291 0.81453 1.5 1.0938 0.27854 0.13961 0.57347 0.24695 0.875 0.34375-0.2562-0.10022-0.48671-0.23627-0.71875-0.375-0.00741-0.0044-0.023866 0.0045-0.03125 0-0.031933-0.0193-0.062293-0.04251-0.09375-0.0625-0.1204-0.0767-0.23102-0.16351-0.34375-0.25-0.10617-0.0808-0.21328-0.16111-0.3125-0.25-0.17793-0.16143-0.34746-0.34539-0.5-0.53125-0.10758-0.13026-0.21839-0.26528-0.3125-0.40625-0.025089-0.03838-0.038446-0.08587-0.0625-0.125-0.064763-0.10303-0.13023-0.20452-0.1875-0.3125-0.10101-0.19471-0.20567-0.4157-0.28125-0.625-0.00796-0.02181-0.023589-0.04055-0.03125-0.0625-0.031825-0.09195-0.035804-0.18683-0.0625-0.28125-0.030332-0.10662-0.070389-0.20303-0.09375-0.3125-0.072879-0.34151-0.125-0.6982-0.125-1.0625v-2-68-2c0-2.7818 2.2182-5 5-5h2 68 2c2.7818 0 5 2.2182 5 5v2 68 2c0 0.3643-0.05212 0.72099-0.125 1.0625-0.04415 0.20689-0.08838 0.39766-0.15625 0.59375-0.0077 0.02195-0.0233 0.04069-0.03125 0.0625-0.06274 0.17374-0.13838 0.36745-0.21875 0.53125-0.04158 0.0828-0.07904 0.16995-0.125 0.25-0.0546 0.09721-0.12677 0.18835-0.1875 0.28125-0.09411 0.14096-0.20492 0.276-0.3125 0.40625-0.14317 0.17445-0.30314 0.347-0.46875 0.5-0.01117 0.0102-0.01998 0.02115-0.03125 0.03125-0.13839 0.12556-0.28509 0.23444-0.4375 0.34375-0.10257 0.07315-0.20432 0.15336-0.3125 0.21875-0.0074 0.0045-0.02384-0.0044-0.03125 0-0.23204 0.13873-0.46255 0.27478-0.71875 0.375 0.30153-0.0968 0.59646-0.20414 0.875-0.34375 0.55709-0.27922 1.0601-0.66569 1.5-1.0938 0.21997-0.21403 0.40937-0.44186 0.59375-0.6875s0.35541-0.50774 0.5-0.78125c0.14012-0.26505 0.27614-0.52473 0.375-0.8125 0.01041-0.03078 0.02133-0.06274 0.03125-0.09375 0.09046-0.27808 0.1388-0.5794 0.1875-0.875 0.0524-0.31805 0.09375-0.63403 0.09375-0.96875v-2-68-2c0-3.324-2.676-6-6-6h-72z" fill="url(#linearGradient3188)" opacity=".35"/>
  <path id="path3615" d="m12 90c-3.324 0-6-2.676-6-6v-2-68-2c0-0.33472 0.04135-0.6507 0.09375-0.96875 0.0487-0.2956 0.09704-0.59692 0.1875-0.875 0.00988-0.03038 0.020892-0.0636 0.03125-0.09375 0.098865-0.28777 0.23488-0.54745 0.375-0.8125 0.14459-0.27351 0.31562-0.53562 0.5-0.78125s0.37378-0.47347 0.59375-0.6875c0.43995-0.42806 0.94291-0.81453 1.5-1.0938 0.27854-0.13961 0.57347-0.24695 0.875-0.34375-0.2562 0.10022-0.48671 0.23627-0.71875 0.375-0.00741 0.0044-0.023866-0.0045-0.03125 0-0.031933 0.0193-0.062293 0.04251-0.09375 0.0625-0.1204 0.0767-0.23102 0.16351-0.34375 0.25-0.10617 0.0808-0.21328 0.16111-0.3125 0.25-0.17793 0.16143-0.34746 0.34539-0.5 0.53125-0.10758 0.13026-0.21839 0.26528-0.3125 0.40625-0.025089 0.03838-0.038446 0.08587-0.0625 0.125-0.064763 0.10303-0.13023 0.20452-0.1875 0.3125-0.10101 0.19471-0.20567 0.4157-0.28125 0.625-0.00796 0.02181-0.023589 0.04055-0.03125 0.0625-0.031825 0.09195-0.035804 0.18683-0.0625 0.28125-0.030332 0.10662-0.070389 0.20303-0.09375 0.3125-0.072879 0.34151-0.125 0.6982-0.125 1.0625v2 68 2c0 2.7818 2.2182 5 5 5h2 68 2c2.7818 0 5-2.2182 5-5v-2-68-2c0-0.3643-0.05212-0.72099-0.125-1.0625-0.04415-0.20689-0.08838-0.39766-0.15625-0.59375-0.0077-0.02195-0.0233-0.04069-0.03125-0.0625-0.06274-0.17374-0.13838-0.36745-0.21875-0.53125-0.04158-0.0828-0.07904-0.16995-0.125-0.25-0.0546-0.09721-0.12677-0.18835-0.1875-0.28125-0.09411-0.14096-0.20492-0.276-0.3125-0.40625-0.14317-0.17445-0.30314-0.347-0.46875-0.5-0.01117-0.0102-0.01998-0.02115-0.03125-0.03125-0.13839-0.12556-0.28509-0.23444-0.4375-0.34375-0.10257-0.07315-0.20432-0.15336-0.3125-0.21875-0.0074-0.0045-0.02384 0.0044-0.03125 0-0.23204-0.13873-0.46255-0.27478-0.71875-0.375 0.30153 0.0968 0.59646 0.20414 0.875 0.34375 0.55709 0.27922 1.0601 0.66569 1.5 1.0938 0.21997 0.21403 0.40937 0.44186 0.59375 0.6875s0.35541 0.50774 0.5 0.78125c0.14012 0.26505 0.27614 0.52473 0.375 0.8125 0.01041 0.03078 0.02133 0.06274 0.03125 0.09375 0.09046 0.27808 0.1388 0.5794 0.1875 0.875 0.0524 0.31805 0.09375 0.63403 0.09375 0.96875v2 68 2c0 3.324-2.676 6-6 6h-72z" fill="url(#radialGradient3619)" opacity=".2"/>
 </g>
 <g id="layer5">
  <rect id="rect3171" x="15" y="15" width="66" height="66" rx="12" ry="12" clip-path="url(#clipPath3613)" fill="url(#linearGradient3613)" filter="url(#filter3794)" opacity=".1" stroke="#fff" stroke-linecap="round" stroke-width=".5"/>
 </g>
 <g id="layer4">
  <path id="path3683" d="m40.625 12.75c-4.4789 0.9333-8.6446 2.7274-12.344 5.1562 0.10781 2.6954-0.85119 5.4137-2.9062 7.4688s-4.7733 3.0141-7.4688 2.9062c-2.4288 3.6992-4.2229 7.8648-5.1562 12.344 1.9982 1.8284 3.25 4.4531 3.25 7.375s-1.2518 5.5466-3.25 7.375c0.9333 4.4789 2.7274 8.6446 5.1562 12.344 2.6954-0.10781 5.4137 0.85119 7.4688 2.9062s3.0141 4.7733 2.9062 7.4688c3.6992 2.4288 7.8648 4.2229 12.344 5.1562 1.8284-1.9982 4.4531-3.25 7.375-3.25s5.5466 1.2518 7.375 3.25c4.4644-0.93028 8.6222-2.7083 12.312-5.125-0.0063-0.14435 0-0.29318 0-0.4375 0-2.5592 0.98488-5.1099 2.9375-7.0625 2.0551-2.0551 4.7733-3.0141 7.4688-2.9062 2.4288-3.6992 4.2229-7.8648 5.1562-12.344-1.9982-1.8284-3.25-4.4531-3.25-7.375s1.2518-5.5466 3.25-7.375c-0.9333-4.4789-2.7274-8.6446-5.1562-12.344-2.6954 0.10781-5.4137-0.85119-7.4688-2.9062-1.9526-1.9526-2.9375-4.5033-2.9375-7.0625 0-0.14432-0.0063-0.29315 0-0.4375-3.6903-2.4167-7.8481-4.1947-12.312-5.125-1.8284 1.9982-4.4531 3.25-7.375 3.25s-5.5466-1.2518-7.375-3.25z" color="#000000" fill="url(#radialGradient3891)"/>
  <path id="path3937" d="m40.625 12.75c-4.4789 0.9333-8.6446 2.7274-12.344 5.1562 0.10781 2.6954-0.85119 5.4137-2.9062 7.4688s-4.7733 3.0141-7.4688 2.9062c-2.4288 3.6992-4.2229 7.8648-5.1562 12.344 1.9982 1.8284 3.25 4.4531 3.25 7.375s-1.2518 5.5466-3.25 7.375c0.9333 4.4789 2.7274 8.6446 5.1562 12.344 2.6954-0.10781 5.4137 0.85119 7.4688 2.9062s3.0141 4.7733 2.9062 7.4688c3.6992 2.4288 7.8648 4.2229 12.344 5.1562 1.8284-1.9982 4.4531-3.25 7.375-3.25s5.5466 1.2518 7.375 3.25c4.4644-0.93028 8.6222-2.7083 12.312-5.125-0.0063-0.14435 0-0.29318 0-0.4375 0-2.5592 0.98488-5.1099 2.9375-7.0625 2.0551-2.0551 4.7733-3.0141 7.4688-2.9062 2.4288-3.6992 4.2229-7.8648 5.1562-12.344-1.9982-1.8284-3.25-4.4531-3.25-7.375s1.2518-5.5466 3.25-7.375c-0.9333-4.4789-2.7274-8.6446-5.1562-12.344-2.6954 0.10781-5.4137-0.85119-7.4688-2.9062-1.9526-1.9526-2.9375-4.5033-2.9375-7.0625 0-0.14432-0.0063-0.29315 0-0.4375-3.6903-2.4167-7.8481-4.1947-12.312-5.125-1.8284 1.9982-4.4531 3.25-7.375 3.25s-5.5466-1.2518-7.375-3.25zm-0.625 2.8438c2.1765 1.8171 4.9563 2.9375 8 2.9375s5.8235-1.1204 8-2.9375c3.3494 0.83073 6.5311 2.1444 9.4062 3.9062 0.27421 2.7946 1.3126 5.5313 3.4375 7.6562 2.1415 2.1415 4.8835 3.3019 7.6875 3.5625 1.7378 2.8522 3.0519 5.9691 3.875 9.2812-1.8171 2.1765-2.9375 4.9563-2.9375 8s1.1204 5.8235 2.9375 8c-0.82307 3.3121-2.1372 6.4291-3.875 9.2812-2.804 0.26058-5.546 1.421-7.6875 3.5625-2.1249 2.1249-3.1633 4.8616-3.4375 7.6562-2.8751 1.7618-6.0569 3.0755-9.4062 3.9062-2.1765-1.8171-4.9563-2.9375-8-2.9375s-5.8235 1.1204-8 2.9375c-3.3121-0.82307-6.4291-2.1372-9.2812-3.875-0.26058-2.804-1.421-5.546-3.5625-7.6875s-4.8835-3.3019-7.6875-3.5625c-1.7378-2.8522-3.0519-5.9691-3.875-9.2812 1.8171-2.1765 2.9375-4.9563 2.9375-8s-1.1204-5.8235-2.9375-8c0.82307-3.3121 2.1372-6.4291 3.875-9.2812 2.804-0.26058 5.546-1.421 7.6875-3.5625s3.3019-4.8835 3.5625-7.6875c2.8522-1.7378 5.9691-3.0519 9.2812-3.875z" color="#000000" opacity=".05"/>
  <path id="path3903" d="m58.406 24.156c-7.9756 0-14.469 6.46-14.469 14.438v0.03125 6.3438h-6.3438c-7.9754 0-14.438 6.4628-14.438 14.438 0 7.9758 6.4624 14.438 14.438 14.438 7.9745 0 14.469-6.4593 14.469-14.438v-0.03125-6.375h6.3438c7.9722 0 14.438-6.4315 14.438-14.406 0-7.9752-6.463-14.438-14.438-14.438zm0 8.125c3.5081 0 6.3438 2.8082 6.3438 6.3125 0 3.5038-2.8446 6.375-6.3438 6.375h-0.03125-6.1562c-0.11384 0-0.15625-0.04206-0.15625-0.15625v-6.2188c0.0059-3.5001 2.8407-6.3125 6.3438-6.3125zm-20.812 20.719h0.03125 6.1562c0.11244 0 0.15625 0.04453 0.15625 0.15625v6.25c-5e-3 3.4973-2.8412 6.3125-6.3438 6.3125-3.508 0-6.3438-2.8089-6.3438-6.3125 0-3.5051 2.849-6.4062 6.3438-6.4062z" fill="#0a57a4" opacity=".1"/>
  <path id="path3898" d="m58.394 25c-7.5151 0-13.607 6.0918-13.607 13.606v0.0094 7.2014h-7.1794-0.0018c-7.5149 0-13.606 6.0621-13.606 13.576 0 7.5153 6.0918 13.607 13.606 13.607 7.514 0 13.606-6.0915 13.606-13.607v-0.0094-7.2313h7.1791 3e-3c7.514 0 13.606-6.0323 13.606-13.546 0-7.5146-6.0918-13.606-13.606-13.606zm-13.607 34.406c-0.0057 3.9595-3.2194 7.1695-7.1812 7.1695-3.966 0-7.2109-3.2152-7.2109-7.1812 0-3.9674 3.2449-7.2421 7.2109-7.2421h0.0094 6.1536 0.0046c0.56023 0 1.0145 0.45338 1.0145 1.0127 0 0.0011-6.89e-4 0.0011-6.89e-4 0.0025v6.2386h-2.3e-4zm13.606-13.589h-0.0067-6.1577-0.0037c-0.56023 0-1.0134-0.45315-1.0134-1.0138v-2.3e-4 -6.2085c0.0067-3.9618 3.2194-7.1706 7.1814-7.1706 3.966 0 7.2115 3.2155 7.2115 7.1821 0 3.9662-3.2456 7.2111-7.2115 7.2111z" fill="#0a57a4" opacity=".3"/>
  <g id="f-script" transform="matrix(.22979 0 0 .22979 20.892 17.128)" fill="#5484c6">
   <path id="f-script-path" d="m163.2 29.904c-32.704 0-59.213 26.51-59.213 59.212v0.041 31.339h-31.243-8e-3c-32.703 0-59.212 26.381-59.212 59.081 0 32.705 26.51 59.214 59.212 59.214 32.699 0 59.209-26.509 59.209-59.214v-0.041-31.469h31.242 0.013c32.699 0 59.209-26.251 59.209-58.951 0-32.702-26.51-59.212-59.209-59.212zm-59.213 149.73c-0.025 17.231-14.01 31.2-31.251 31.2-17.259 0-31.38-13.992-31.38-31.251 0-17.265 14.121-31.516 31.38-31.516h0.041 26.779 0.02c2.438 0 4.415 1.973 4.415 4.407 0 5e-3 -3e-3 5e-3 -3e-3 0.011v27.149h-1e-3zm59.21-59.137h-0.029-26.797-0.016c-2.438 0-4.41-1.972-4.41-4.412v-1e-3 -27.018c0.029-17.241 14.01-31.205 31.252-31.205 17.259 0 31.383 13.993 31.383 31.255 0 17.26-14.124 31.381-31.383 31.381z" fill="#5484c6"/>
  </g>
  <path id="blue-inifity-connectors" d="m44.788 44.817v-7.2017-0.0094c0-7.5146 6.0915-13.606 13.607-13.606 1.14 0 1.95 0.12845 3.0052 0.40466 1.5389 0.40351 2.7956 1.6642 2.7963 3.1316 6.9e-4 1.774-1.2871 3.0636-3.2116 3.0636-0.91687 0-1.2482-0.17556-2.5907-0.17556-3.9621 0-7.1748 3.2088-7.1814 7.1706v6.2083 2.3e-4c0 0.56069 0.45315 1.0138 1.0134 1.0138h0.0037 4.7158c1.7574 0 3.1766 1.407 3.178 3.1691 0 1.7627-1.4213 3.1665-3.178 3.1665h-5.7328v7.2313 0.0108c0 7.514-6.0918 13.605-13.606 13.605-1.1402 0-1.9502-0.12845-3.0054-0.40489-1.5389-0.40328-2.7961-1.6646-2.7968-3.1316 0-1.7735 1.2868-3.0636 3.2123-3.0636 0.91595 0 1.2482 0.17579 2.59 0.17579 3.9621 0 7.1757-3.209 7.1819-7.1695v-6.2409c0-0.55954-0.4543-1.0127-1.0145-1.0127h-0.0025-4.7156c-1.7579 0-3.1782-1.4024-3.1782-3.1656-4.6e-4 -1.7731 1.435-3.1697 3.2116-3.1697h5.6986v-2.29e-4z" fill="#fff"/>
  <path id="path3927" d="m40.625 12.75c-4.4789 0.9333-8.6446 2.7274-12.344 5.1562 0.10781 2.6954-0.85119 5.4137-2.9062 7.4688s-4.7733 3.0141-7.4688 2.9062c-2.4288 3.6992-4.2229 7.8648-5.1562 12.344 1.9982 1.8284 3.25 4.4531 3.25 7.375s-1.2518 5.5466-3.25 7.375c0.9333 4.4789 2.7274 8.6446 5.1562 12.344 2.6954-0.10781 5.4137 0.85119 7.4688 2.9062s3.0141 4.7733 2.9062 7.4688c3.6992 2.4288 7.8648 4.2229 12.344 5.1562 1.8284-1.9982 4.4531-3.25 7.375-3.25s5.5466 1.2518 7.375 3.25c4.4644-0.93028 8.6222-2.7083 12.312-5.125-0.0063-0.14435 0-0.29318 0-0.4375 0-2.5592 0.98488-5.1099 2.9375-7.0625 2.0551-2.0551 4.7733-3.0141 7.4688-2.9062 2.4288-3.6992 4.2229-7.8648 5.1562-12.344-1.9982-1.8284-3.25-4.4531-3.25-7.375s1.2518-5.5466 3.25-7.375c-0.9333-4.4789-2.7274-8.6446-5.1562-12.344-2.6954 0.10781-5.4137-0.85119-7.4688-2.9062-1.9526-1.9526-2.9375-4.5033-2.9375-7.0625 0-0.14432-0.0063-0.29315 0-0.4375-3.6903-2.4167-7.8481-4.1947-12.312-5.125-1.8284 1.9982-4.4531 3.25-7.375 3.25s-5.5466-1.2518-7.375-3.25zm-0.28125 2c2.0796 1.8168 4.6871 3.0625 7.6562 3.0625s5.5766-1.2457 7.6562-3.0625c3.7269 0.85882 7.2172 2.3384 10.375 4.3125 0.18175 2.7665 1.2094 5.4906 3.3125 7.5938 2.093 2.093 4.7886 3.0604 7.5312 3.25 1.9982 3.1773 3.5093 6.6851 4.375 10.438-1.8168 2.0796-3.0625 4.6871-3.0625 7.6562s1.2457 5.5766 3.0625 7.6562c-0.86573 3.7524-2.3768 7.2602-4.375 10.438-2.7426 0.18964-5.4383 1.157-7.5312 3.25-2.1031 2.1031-3.1307 4.8272-3.3125 7.5938-3.1578 1.9741-6.6481 3.4537-10.375 4.3125-2.0796-1.8168-4.6871-3.0625-7.6562-3.0625s-5.5766 1.2457-7.6562 3.0625c-3.7524-0.86573-7.2602-2.3768-10.438-4.375-0.18964-2.7426-1.157-5.4383-3.25-7.5312s-4.7886-3.0604-7.5312-3.25c-1.9982-3.1773-3.5093-6.6851-4.375-10.438 1.8168-2.0796 3.0625-4.6871 3.0625-7.6562s-1.2457-5.5766-3.0625-7.6562c0.86573-3.7524 2.3768-7.2602 4.375-10.438 2.7426-0.18964 5.4383-1.157 7.5312-3.25s3.0604-4.7886 3.25-7.5312c3.1773-1.9982 6.6851-3.5093 10.438-4.375z" color="#000000" opacity=".1"/>
  <path id="path3914" d="m40.625 12.75c-4.4789 0.9333-8.6446 2.7274-12.344 5.1562 0.013476 0.33693 0.019919 0.6637 0 1 3.6992-2.4288 7.8648-4.2229 12.344-5.1562 1.8284 1.9982 4.4531 3.25 7.375 3.25s5.5466-1.2518 7.375-3.25c4.4644 0.93028 8.6222 2.7083 12.312 5.125-0.0063 0.14435 0 0.29318 0 0.4375 0 2.5592 0.98488 5.1099 2.9375 7.0625 2.0551 2.0551 4.7733 3.0141 7.4688 2.9062 2.2798 3.4721 3.9943 7.3639 4.9688 11.531 0.063553-0.061297 0.12234-0.12788 0.1875-0.1875-0.9333-4.4789-2.7274-8.6446-5.1562-12.344-2.6954 0.10781-5.4137-0.85119-7.4688-2.9062-1.9526-1.9526-2.9375-4.5033-2.9375-7.0625 0-0.14432-0.0063-0.29315 0-0.4375-3.6903-2.4167-7.8481-4.1947-12.312-5.125-1.8284 1.9982-4.4531 3.25-7.375 3.25s-5.5466-1.2518-7.375-3.25zm-12.344 6.1562c-0.13943 2.3541-1.1081 4.6706-2.9062 6.4688-2.0551 2.0551-4.7733 3.0141-7.4688 2.9062-2.4288 3.6992-4.2229 7.8648-5.1562 12.344 0.065157 0.059621 0.12395 0.1262 0.1875 0.1875 0.9744-4.1674 2.689-8.0591 4.9688-11.531 2.6954 0.10781 5.4137-0.85119 7.4688-2.9062s3.0141-4.7733 2.9062-7.4688zm-12.312 29.594c-0.13337 2.7213-1.3348 5.1511-3.2188 6.875 0.057284 0.27491 0.12378 0.53999 0.1875 0.8125 1.8854-1.8185 3.0625-4.3609 3.0625-7.1875 0-0.16702-0.023164-0.33502-0.03125-0.5zm64.062 0c-0.008086 0.16498-0.03125 0.33298-0.03125 0.5 0 2.8266 1.1771 5.369 3.0625 7.1875 0.063718-0.27251 0.13022-0.53759 0.1875-0.8125-1.8839-1.7239-3.0854-4.1537-3.2188-6.875z" color="#000000" opacity=".3"/>
  <path id="path3923" d="m40.625 12.75c-4.4789 0.9333-8.6446 2.7274-12.344 5.1562 0.10781 2.6954-0.85119 5.4137-2.9062 7.4688s-4.7733 3.0141-7.4688 2.9062c-2.4288 3.6992-4.2229 7.8648-5.1562 12.344 1.9982 1.8284 3.25 4.4531 3.25 7.375s-1.2518 5.5466-3.25 7.375c0.9333 4.4789 2.7274 8.6446 5.1562 12.344 2.6954-0.10781 5.4137 0.85119 7.4688 2.9062s3.0141 4.7733 2.9062 7.4688c3.6992 2.4288 7.8648 4.2229 12.344 5.1562 1.8284-1.9982 4.4531-3.25 7.375-3.25s5.5466 1.2518 7.375 3.25c4.4644-0.93028 8.6222-2.7083 12.312-5.125-0.0063-0.14435 0-0.29318 0-0.4375 0-2.5592 0.98488-5.1099 2.9375-7.0625 2.0551-2.0551 4.7733-3.0141 7.4688-2.9062 2.4288-3.6992 4.2229-7.8648 5.1562-12.344-1.9982-1.8284-3.25-4.4531-3.25-7.375s1.2518-5.5466 3.25-7.375c-0.9333-4.4789-2.7274-8.6446-5.1562-12.344-2.6954 0.10781-5.4137-0.85119-7.4688-2.9062-1.9526-1.9526-2.9375-4.5033-2.9375-7.0625 0-0.14432-0.0063-0.29315 0-0.4375-3.6903-2.4167-7.8481-4.1947-12.312-5.125-1.8284 1.9982-4.4531 3.25-7.375 3.25s-5.5466-1.2518-7.375-3.25zm-0.1875 1c1.9621 1.9143 4.6087 3.1562 7.5625 3.1562 2.9622 0 5.6302-1.2323 7.5938-3.1562 4.0465 0.89669 7.8262 2.4922 11.219 4.6562 0.025007 2.7548 1.0914 5.4977 3.1875 7.5938 2.0832 2.0832 4.7983 3.0867 7.5312 3.125 2.193 3.4195 3.8171 7.2279 4.7188 11.312-1.9143 1.9621-3.1562 4.6087-3.1562 7.5625s1.2419 5.6004 3.1562 7.5625c-0.90165 4.0846-2.5257 7.893-4.7188 11.312-2.733 0.038313-5.4481 1.0418-7.5312 3.125-2.0961 2.0961-3.1625 4.8389-3.1875 7.5938-3.3925 2.164-7.1723 3.7596-11.219 4.6562-1.9635-1.9239-4.6316-3.1562-7.5938-3.1562-2.9538 0-5.6004 1.2419-7.5625 3.1562-4.0846-0.90165-7.893-2.5257-11.312-4.7188-0.038313-2.733-1.0418-5.4481-3.125-7.5312s-4.7983-3.0867-7.5312-3.125c-2.193-3.4195-3.8171-7.2279-4.7188-11.312 1.9143-1.9621 3.1562-4.6087 3.1562-7.5625s-1.2419-5.6004-3.1562-7.5625c0.90165-4.0846 2.5257-7.893 4.7188-11.312 2.733-0.038313 5.4481-1.0418 7.5312-3.125s3.0867-4.7983 3.125-7.5312c3.4195-2.193 7.2279-3.8171 11.312-4.7188z" color="#000000" opacity=".15"/>
  <path id="path3950" d="m12.938 40.812c-0.063718 0.27251-0.13022 0.53759-0.1875 0.8125 1.8839 1.7239 3.0854 4.1537 3.2188 6.875 0.008086-0.16498 0.03125-0.33298 0.03125-0.5 0-2.8266-1.1771-5.369-3.0625-7.1875zm70.125 0c-1.8854 1.8185-3.0625 4.3609-3.0625 7.1875 0 0.16702 0.023164 0.33502 0.03125 0.5 0.13337-2.7213 1.3348-5.1511 3.2188-6.875-0.057284-0.27491-0.12378-0.53999-0.1875-0.8125zm-70.125 15.375c-0.063553 0.061297-0.12234 0.12788-0.1875 0.1875 0.9333 4.4789 2.7274 8.6446 5.1562 12.344 2.6954-0.10781 5.4137 0.85119 7.4688 2.9062 1.7982 1.7982 2.7668 4.1146 2.9062 6.4688 0.10781-2.6954-0.85119-5.4137-2.9062-7.4688s-4.7733-3.0141-7.4688-2.9062c-2.2798-3.4721-3.9943-7.3639-4.9688-11.531zm15.344 21.906c0.019919 0.3363 0.013476 0.66307 0 1 3.6992 2.4288 7.8648 4.2229 12.344 5.1562 1.8284-1.9982 4.4531-3.25 7.375-3.25s5.5466 1.2518 7.375 3.25c4.4644-0.93028 8.6222-2.7083 12.312-5.125-0.0063-0.14435 0-0.29318 0-0.4375 0-2.5592 0.98488-5.1099 2.9375-7.0625 2.0551-2.0551 4.7733-3.0141 7.4688-2.9062 2.4288-3.6992 4.2229-7.8648 5.1562-12.344-0.065157-0.059621-0.12395-0.1262-0.1875-0.1875-0.9744 4.1674-2.689 8.0591-4.9688 11.531-2.6954-0.10781-5.4137 0.85119-7.4688 2.9062-1.9526 1.9526-2.9375 4.5033-2.9375 7.0625 0 0.14432-0.0063 0.29315 0 0.4375-3.6903 2.4167-7.8481 4.1947-12.312 5.125-1.8284-1.9982-4.4531-3.25-7.375-3.25s-5.5466 1.2518-7.375 3.25c-4.4789-0.9333-8.6446-2.7274-12.344-5.1562z" color="#000000" fill="#fff" opacity=".2"/>
  <rect id="rect3959" x="104" width="16" height="16" color="#000000" fill="#294172"/>
  <rect id="rect3961" x="104" y="24" width="16" height="16" color="#000000" fill="#3c6eb4"/>
 </g>
</svg>
