<?xml version="1.0" encoding="UTF-8"?>
<svg id="svg77" width="96" height="96" version="1.1" xmlns="http://www.w3.org/2000/svg" xmlns:cc="http://creativecommons.org/ns#" xmlns:dc="http://purl.org/dc/elements/1.1/" xmlns:rdf="http://www.w3.org/1999/02/22-rdf-syntax-ns#" xmlns:xlink="http://www.w3.org/1999/xlink">
 <metadata id="metadata129">
  <rdf:RDF>
   <cc:Work rdf:about="">
    <dc:format>image/svg+xml</dc:format>
    <dc:type rdf:resource="http://purl.org/dc/dcmitype/StillImage"/>
   </cc:Work>
  </rdf:RDF>
 </metadata>
 <defs id="defs49">
  <linearGradient id="ButtonShadow" x1="45.448" x2="45.448" y1="92.54" y2="7.0165" gradientTransform="scale(1.0059 .99417)" gradientUnits="userSpaceOnUse">
   <stop id="stop7" offset="0"/>
   <stop id="stop9" stop-opacity=".58824" offset="1"/>
  </linearGradient>
  <filter id="filter3174">
   <feGaussianBlur id="feGaussianBlur12" stdDeviation="1.71"/>
  </filter>
  <filter id="filter3794" x="-.192" y="-.192" width="1.384" height="1.384">
   <feGaussianBlur id="feGaussianBlur15" stdDeviation="5.28"/>
  </filter>
  <linearGradient id="linearGradient3613" x1="48" x2="48" y1="20.221" y2="138.66" gradientUnits="userSpaceOnUse">
   <stop id="stop18" stop-color="#fff" offset="0"/>
   <stop id="stop20" stop-color="#fff" stop-opacity="0" offset="1"/>
  </linearGradient>
  <linearGradient id="linearGradient3617" x1="48" x2="48" y1="90" y2="5.9877" gradientUnits="userSpaceOnUse">
   <stop id="stop23" stop-color="#ef7410" offset="0"/>
   <stop id="stop25" stop-color="#f7931a" offset="1"/>
  </linearGradient>
  <linearGradient id="ButtonShadow-0" x1="45.448" x2="45.448" y1="92.54" y2="7.0165" gradientTransform="matrix(1.0059 0 0 .99417 100 0)" gradientUnits="userSpaceOnUse">
   <stop id="stop28" offset="0"/>
   <stop id="stop30" stop-opacity=".58824" offset="1"/>
  </linearGradient>
  <linearGradient id="linearGradient3780" x1="32.251" x2="32.251" y1="6.1317" y2="90.239" gradientTransform="matrix(1.0238 0 0 1.0119 -1.1429 -98.071)" gradientUnits="userSpaceOnUse" xlink:href="#ButtonShadow-0"/>
  <linearGradient id="linearGradient3721" x1="32.251" x2="32.251" y1="6.1317" y2="90.239" gradientTransform="translate(0,-97)" gradientUnits="userSpaceOnUse" xlink:href="#ButtonShadow-0"/>
  <clipPath id="clipPath4355">
   <rect id="rect35" x="6" y="6" width="84" height="84" rx="6" ry="6" fill="#fff"/>
  </clipPath>
  <linearGradient id="linearGradient4390" x1="48" x2="48" y1="88" y2="-40" gradientTransform="matrix(1,0,0,-1,0,92)" gradientUnits="userSpaceOnUse">
   <stop id="stop2" stop-color="#fff" offset="0"/>
   <stop id="stop4" stop-color="#fff" stop-opacity="0" offset="1"/>
  </linearGradient>
 </defs>
 <g id="g53" display="none">
  <rect id="rect51" x="5" y="7" width="86" height="85" rx="6" ry="6" fill="url(#ButtonShadow)" filter="url(#filter3174)" opacity=".9"/>
 </g>
 <g id="g67">
  <g id="g63" fill="url(#linearGradient3780)">
   <path id="path55" transform="scale(1,-1)" d="m12-95.031c-5.5111 0-10.031 4.5202-10.031 10.031v71c0 5.5111 4.5202 10.031 10.031 10.031h72c5.5111 0 10.031-4.5202 10.031-10.031v-71c0-5.5111-4.5202-10.031-10.031-10.031h-72z" opacity=".08"/>
   <path id="path57" transform="scale(1,-1)" d="m12-94.031c-4.9716 0-9.0312 4.0596-9.0312 9.0312v71c0 4.9716 4.0596 9.0312 9.0312 9.0312h72c4.9716 0 9.0312-4.0596 9.0312-9.0312v-71c0-4.9716-4.0596-9.0312-9.0312-9.0312h-72z" opacity=".1"/>
   <path id="path59" transform="scale(1,-1)" d="m12-93c-4.4091 0-8 3.5909-8 8v71c0 4.4091 3.5909 8 8 8h72c4.4091 0 8-3.5909 8-8v-71c0-4.4091-3.5909-8-8-8h-72z" opacity=".2"/>
   <rect id="rect61" transform="scale(1,-1)" x="5" y="-92" width="86" height="85" rx="7" ry="7" opacity=".3"/>
  </g>
  <rect id="rect65" transform="scale(1,-1)" x="6" y="-91" width="84" height="84" rx="6" ry="6" fill="url(#linearGradient3721)" opacity=".45"/>
 </g>
 <g id="g87">
  <rect id="rect81" x="6" y="6" width="84" height="84" rx="6" ry="6" fill="url(#linearGradient3617)"/>
  <path id="path83" d="m12 6c-3.324 0-6 2.676-6 6v72c0 3.324 2.676 6 6 6h72c3.324 0 6-2.676 6-6v-72c0-3.324-2.676-6-6-6zm0 2h72c2.805 0 5 2.195 5 5v70c0 2.805-2.195 5-5 5h-72c-2.805 0-5-2.195-5-5v-70c0-2.805 2.195-5 5-5z" fill="url(#linearGradient4390)" opacity=".3"/>
 </g>
 <g id="g91">
  <rect id="rect89" x="15" y="15" width="66" height="66" rx="12" ry="12" clip-path="url(#clipPath4355)" fill="url(#linearGradient3613)" filter="url(#filter3794)" opacity=".1" stroke="#fff" stroke-linecap="round" stroke-width=".5"/>
 </g>
 <defs id="defs101">
  <linearGradient id="a" x1="8" x2="8" y1=".99992" y2="15" gradientUnits="userSpaceOnUse">
   <stop id="stop96" stop-color="#fafafa" offset="0"/>
   <stop id="stop98" stop-color="#ebebeb" offset="1"/>
  </linearGradient>
 </defs>
 <g id="g123">
  <path id="path103" transform="matrix(4,0,0,4,16,17)" d="m7.9199 0.75a0.25002 0.25002 0 0 0-0.22852 0.18945l-0.43359 1.752c-0.1594-0.036991-0.31932-0.07333-0.47266-0.11133a0.25002 0.25002 0 0 0-0.0058593-0.0019531 0.25002 0.25002 0 0 0-0.046875-0.015625l-1.6602-0.41797a0.25002 0.25002 0 0 0-0.30273 0.18164l-0.32031 1.2949a0.25002 0.25002 0 0 0 0.18555 0.30469s0.2219 0.050717 0.44141 0.10352c0.10975 0.0264 0.21886 0.05389 0.29688 0.074219 0.035556 0.00926 0.062921 0.016421 0.080078 0.021484a0.25002 0.25002 0 0 0 0.00391 0.00195 0.25002 0.25002 0 0 0 0.00781 0.00195 0.25002 0.25002 0 0 0 0.039062 0.013672c0.19664 0.049452 0.27346 0.1221 0.31836 0.19336 0.043515 0.069072 0.056776 0.15672 0.052734 0.24805l-0.55078 2.2266-0.00195 0.00586a0.25002 0.25002 0 0 0 0 0.00195 0.25002 0.25002 0 0 0-0.00195 0.00586l-0.7793 3.1524c-0.019065 0.045875-0.052021 0.095866-0.083984 0.11914-0.03291 0.02397-0.061773 0.04356-0.17383 0.01563a0.25002 0.25002 0 0 0-0.035156-0.0059c0.00552 7.31e-4 -4.272e-4 -9.38e-4 -0.00586-2e-3a0.25002 0.25002 0 0 0-0.00195 0c-0.017519-0.0036-0.05039-0.0099-0.089844-0.01953-0.078911-0.019095-0.18734-0.047643-0.29688-0.076091-0.21908-0.056894-0.44141-0.11523-0.44141-0.11523a0.25002 0.25002 0 0 0-0.29297 0.14258l-0.59766 1.3887a0.25002 0.25002 0 0 0 0.16797 0.33984l1.5664 0.39453c0.20862 0.05269 0.41385 0.10633 0.61914 0.16016l-0.43945 1.7754a0.25002 0.25002 0 0 0 0.18164 0.30273l1.2031 0.30274a0.25002 0.25002 0 0 0 0.30273-0.18359l0.43359-1.748c0.1609 0.04294 0.31978 0.08496 0.47656 0.125l-0.43359 1.7441a0.25002 0.25002 0 0 0 0.18164 0.30273l1.2031 0.30274a0.25002 0.25002 0 0 0 0.30469-0.18164l0.44531-1.7969c0.94451 0.16298 1.8048 0.21795 2.5332-0.0078 0.79158-0.24535 1.4154-0.83097 1.7598-1.8223 0.27567-0.79286 0.27755-1.4616 0.04101-2.0059-0.17273-0.39743-0.49002-0.69546-0.85742-0.95509 0.61999-0.29244 1.0956-0.85691 1.2441-1.7539a0.25002 0.25002 0 0 0 0.01563-0.054687c0.11924-0.8029-0.14005-1.4665-0.625-1.959-0.4375-0.44426-1.056-0.75502-1.7422-1.0117l0.44141-1.7871a0.25002 0.25002 0 0 0-0.18164-0.30273l-1.2051-0.30273a0.25002 0.25002 0 0 0-0.30273 0.18359l-0.42188 1.6992c-0.15839-0.038298-0.31734-0.076419-0.47656-0.11328l0.42188-1.709a0.25002 0.25002 0 0 0-0.18164-0.30078l-1.2031-0.30273a0.25002 0.25002 0 0 0-0.074219-0.0078125zm0.59375 4.2383c0.38402 0.087054 0.90201 0.19743 1.3535 0.41211 0.27121 0.12895 0.49576 0.291 0.625 0.47266 0.12924 0.18166 0.18281 0.37701 0.10937 0.67383-0.069255 0.27948-0.20348 0.41827-0.40234 0.51562s-0.47413 0.13419-0.77539 0.12305c-0.50178-0.018568-1.0134-0.15543-1.3906-0.25586zm-0.90234 3.6445c0.45854 0.10547 1.1133 0.24426 1.6855 0.50586 0.33269 0.15209 0.61613 0.34188 0.78125 0.55469 0.16512 0.21281 0.23131 0.43493 0.15039 0.76172-0.07603 0.30776-0.23335 0.46261-0.47852 0.57031-0.24516 0.1077-0.58467 0.14423-0.95117 0.125-0.63119-0.03311-1.2791-0.21093-1.7305-0.33008z" opacity=".15"/>
  <g id="Bevel1"></g>
  <g id="Bevel2"></g>
  <path id="base" transform="translate(16,16) scale(4)" d="m13.223 6.6281c0.21847-1.471-0.89345-2.2618-2.4138-2.7894l0.4932-1.9927-1.2042-0.30228-0.48016 1.9402c-0.31656-0.079448-0.64171-0.15444-0.96479-0.22871l0.4836-1.953-1.2035-0.30229-0.49353 1.992c-0.26203-0.060082-0.51926-0.11953-0.76894-0.18207l0.00116-0.00583-1.6607-0.41767-0.32034 1.2955s0.89344 0.20625 0.87458 0.21903c0.48771 0.12265 0.57585 0.44774 0.5611 0.70546l-0.56179 2.2701c0.033588 0.00817 0.077137 0.021116 0.12518 0.040366-0.040074-0.0105-0.082928-0.021116-0.12724-0.031733l-0.78747 3.1801c-0.059647 0.14925-0.21092 0.37312-0.55185 0.28813 0.012045 0.017617-0.87527-0.22006-0.87527-0.22006l-0.59779 1.3885 1.567 0.39349c0.29152 0.07362 0.57722 0.15064 0.85846 0.22318l-0.49834 2.0155 1.2028 0.30229 0.49354-1.9941c0.32856 0.08983 0.64753 0.17273 0.95964 0.25082l-0.49183 1.9847 1.2042 0.30229 0.49833-2.0117c2.0534 0.39143 3.5975 0.23355 4.2474-1.6372 0.52372-1.5063-0.02606-2.3751-1.1064-2.9417 0.78679-0.18276 1.3794-0.70408 1.5375-1.7809zm-2.7513 3.8862c-0.37213 1.5063-2.8899 0.69198-3.7062 0.48781l0.66124-2.6702c0.81629 0.20521 3.4339 0.61149 3.0449 2.1824zm0.37247-3.908c-0.33954 1.3702-2.4351 0.67403-3.1149 0.50336l0.59952-2.4218c0.67977 0.17067 2.869 0.4892 2.5154 1.9184z" fill="url(#a)"/>
  <path id="path113" transform="translate(0,2)" d="m52.314 20.15-1.7012 6.8711c0.078419 0.018027 0.1559 0.036636 0.23438 0.054688l1.6992-6.8672-0.23242-0.058593zm8.6621 2.1758-1.7402 7.0293c0.07826 0.027158 0.14885 0.058427 0.22656 0.085937l1.7461-7.0566-0.23242-0.058594zm-25.979 6.4551-0.23438 0.94531s3.5735 0.82583 3.498 0.87695c1.4679 0.36914 2.0316 1.1971 2.1953 2.0234l0.048828-0.20117c0.059-1.0309-0.2933-2.3317-2.2441-2.8223 0.070469-0.047752-2.853-0.72719-3.2637-0.82227zm14.316 3.9707-2.3965 9.6875c0.054492 0.013681 0.17348 0.045261 0.23242 0.060547l2.1641-8.748c2.4283 0.60968 9.6677 1.6939 10.182 5.9902 0.577-5.1352-7.5749-6.3358-10.182-6.9902zm19.664 6.8438c-0.016858 0.29939-0.039199 0.60131-0.085938 0.91602l-0.001953 0.001953c-0.6324 4.3073-3.0032 6.392-6.1504 7.123 0.39899 0.20926 0.77367 0.43314 1.1348 0.66406 2.5745-0.94652 4.4617-3.0146 5.0156-6.7871l0.001953-0.001953c0.10027-0.67516 0.12022-1.31 0.085938-1.916zm-30.49 1.9844-0.003906 0.019531c0.092586 0.022967 0.1885 0.045592 0.27539 0.06836-0.10433-0.041805-0.18125-0.059975-0.27148-0.087891zm7.2188 5.748-2.6445 10.68c0.062629 0.015665 0.16489 0.04317 0.23242 0.060547l2.4121-9.7402c2.9426 0.73976 11.733 2.1346 12.303 7.002 0.60143-5.6816-9.1679-7.2139-12.303-8.002zm22.238 8.3379c-0.056499 1.1257-0.30105 2.3628-0.7793 3.7383-2.5996 7.483-8.7747 8.1145-16.988 6.5488l-1.9941 8.0469-4.584-1.1504-0.23242 0.94141 4.8164 1.209 1.9941-8.0469c8.2136 1.5657 14.389 0.93417 16.988-6.5488 0.62417-1.7952 0.86008-3.3603 0.7793-4.7383zm-40.555 4.5195-0.38867 0.90234 6.2676 1.5723c1.0871 0.27454 2.1501 0.55939 3.2012 0.83203l0.23242-0.93945c-1.125-0.29016-2.2675-0.5981-3.4336-0.89258l-5.8789-1.4746zm14.105 3.6621-1.9746 7.9766-4.5781-1.1504-0.23242 0.94141 4.8105 1.209 1.9746-7.9766c1.2347 0.33757 2.4295 0.64769 3.6055 0.94336l0.23242-0.93945c-1.2484-0.31236-2.5236-0.64459-3.8379-1.0039z" opacity=".3" stroke-width="4"/>
  <path id="path118" transform="translate(0,2)" d="m47.734 18-1.9746 7.9668c-1.0481-0.24033-2.0775-0.4764-3.0762-0.72656l0.003906-0.023437-6.6426-1.6719-1.2812 5.1816s0.20541 0.047982 0.23438 0.054688l1.0469-4.2363 6.6426 1.6719-0.003906 0.023437c0.99872 0.25016 2.0281 0.48624 3.0762 0.72656l1.9746-7.9668 4.5801 1.1504 0.23242-0.94141-4.8125-1.209zm8.6582 2.1758-1.9199 7.7598c-1.1894-0.29851-2.4103-0.57994-3.625-0.85938l-0.23438 0.94531c1.2923 0.29708 2.5931 0.59627 3.8594 0.91406l1.9199-7.7598 4.584 1.1504 0.23242-0.94141-4.8164-1.209zm3.0703 9.2656-0.22656 0.91406c5.3836 1.8682 9.4777 4.5647 9.7422 9.2402 0.29427-5.2263-3.8776-8.1584-9.5156-10.154zm-19.006 3.1855-2.1973 8.8789c0.061413 0.014939 0.15254 0.050714 0.22852 0.074219l2.0176-8.1543c0.014607-0.25522 0.005023-0.52696-0.048828-0.79883zm19.039 7.1152c-0.024858 0.22123-0.060723 0.44748-0.11914 0.68359-1.3309 5.371-9.3444 2.8217-12.227 2.0742l-0.23242 0.93945c2.7192 0.68268 11.101 3.4671 12.459-2.0137 0.15124-0.61127 0.18067-1.1692 0.11914-1.6836zm-21.244 1.7988-3.1504 12.719c-0.23859 0.597-0.84331 1.4943-2.207 1.1543 0.04818 0.070481-3.502-0.88086-3.502-0.88086l-2.3906 5.5547 0.38867 0.097656 2.002-4.6523s3.5501 0.95134 3.502 0.88086c1.3637 0.33996 1.9684-0.5573 2.207-1.1543l3.1504-12.719c0.17725 0.042472 0.34752 0.084953 0.50781 0.12695-0.19217-0.077004-0.36565-0.12943-0.5-0.16211l0.22461-0.90625c-0.078212-0.0194-0.15126-0.039145-0.23242-0.058593zm25.623 6.7598c-0.36495 0.13417-0.74403 0.24518-1.1348 0.33594 3.0338 1.5911 5.0147 3.7825 5.2051 7.0293 0.16814-3.3499-1.4133-5.6661-4.0703-7.3652zm-5.8652 7.0293c-0.025008 0.23625-0.06093 0.47571-0.12305 0.72656-1.46 5.9096-11.139 2.9003-14.592 2.0117l-0.23242 0.93945c3.2652 0.81668 13.336 4.074 14.824-1.9512 0.1537-0.62071 0.18551-1.193 0.12305-1.7266zm-21.539 8.1621-1.7598 7.123 0.23242 0.058594 1.7598-7.1211c-0.076159-0.019643-0.1561-0.040748-0.23242-0.060546zm8.6309 2.2988-1.7344 7 0.23242 0.058593 1.7344-6.998c-0.075585-0.018911-0.15663-0.041492-0.23242-0.060546z" fill="#fff" stroke-width="4"/>
 </g>
</svg>
