<?xml version="1.0" encoding="UTF-8"?>
<!-- Created with Inkscape (http://www.inkscape.org/) -->
<svg id="svg2408" width="96" height="96" version="1.0" xmlns="http://www.w3.org/2000/svg" xmlns:cc="http://creativecommons.org/ns#" xmlns:dc="http://purl.org/dc/elements/1.1/" xmlns:rdf="http://www.w3.org/1999/02/22-rdf-syntax-ns#" xmlns:xlink="http://www.w3.org/1999/xlink">
 <defs id="defs2410">
  <linearGradient id="ButtonShadow" x1="45.448" x2="45.448" y1="92.54" y2="7.0165" gradientTransform="scale(1.0059 .99417)" gradientUnits="userSpaceOnUse">
   <stop id="stop3750" offset="0"/>
   <stop id="stop3752" stop-opacity=".58824" offset="1"/>
  </linearGradient>
  <linearGradient id="linearGradient3737">
   <stop id="stop3739" stop-color="#fff" offset="0"/>
   <stop id="stop3741" stop-color="#fff" stop-opacity="0" offset="1"/>
  </linearGradient>
  <filter id="filter3174">
   <feGaussianBlur id="feGaussianBlur3176" stdDeviation="1.71"/>
  </filter>
  <linearGradient id="linearGradient3188" x1="36.357" x2="36.357" y1="6" y2="63.893" gradientUnits="userSpaceOnUse" xlink:href="#linearGradient3737"/>
  <filter id="filter3794" x="-.192" y="-.192" width="1.384" height="1.384">
   <feGaussianBlur id="feGaussianBlur3796" stdDeviation="5.28"/>
  </filter>
  <linearGradient id="linearGradient3613" x1="48" x2="48" y1="20.221" y2="138.66" gradientUnits="userSpaceOnUse" xlink:href="#linearGradient3737"/>
  <radialGradient id="radialGradient3619" cx="48" cy="90.172" r="42" gradientTransform="matrix(1.1573 0 0 .99591 -7.551 .19713)" gradientUnits="userSpaceOnUse" xlink:href="#linearGradient3737"/>
  <clipPath id="clipPath3613">
   <rect id="rect3615" x="6" y="6" width="84" height="84" rx="6" ry="6" fill="#fff"/>
  </clipPath>
  <linearGradient id="linearGradient556">
   <stop id="stop557" stop-color="#fff" offset="0"/>
   <stop id="stop558" stop-color="#8f8f8f" offset="1"/>
  </linearGradient>
  <linearGradient id="linearGradient561">
   <stop id="stop562" stop-color="#72a6db" offset="0"/>
   <stop id="stop563" stop-color="#4974aa" offset="1"/>
  </linearGradient>
  <linearGradient id="linearGradient635">
   <stop id="stop636" stop-color="#fff" offset="0"/>
   <stop id="stop637" stop-color="#fff" stop-opacity=".17647" offset="1"/>
  </linearGradient>
  <radialGradient id="radialGradient4058" cx="24.218" cy="13.492" r="10.214" gradientTransform="scale(.88763 1.1266)" gradientUnits="userSpaceOnUse" xlink:href="#linearGradient556"/>
  <radialGradient id="radialGradient4060" cx="31.638" cy="4.2912" r="6.1138" gradientTransform="scale(1.0613 .94223)" gradientUnits="userSpaceOnUse" xlink:href="#linearGradient561"/>
  <linearGradient id="linearGradient4062" x1="66.897" x2="68.417" y1="9.7093" y2="18.199" gradientTransform="scale(.57791 1.7304)" gradientUnits="userSpaceOnUse" xlink:href="#linearGradient561"/>
  <linearGradient id="linearGradient4064" x1="42.008" x2="56.889" y1="5.456" y2="14.642" gradientTransform="scale(.65313 1.5311)" gradientUnits="userSpaceOnUse" xlink:href="#linearGradient635"/>
  <radialGradient id="radialGradient4066" cx="15.486" cy="16.135" r="27.532" gradientTransform="scale(.99284 1.0072)" gradientUnits="userSpaceOnUse">
   <stop id="stop565" stop-color="#3278c6" offset="0"/>
   <stop id="stop566" stop-color="#264980" offset="1"/>
  </radialGradient>
  <linearGradient id="linearGradient4068" x1="40.971" x2="23.981" y1="41.885" y2="21.709" gradientTransform="scale(.99284 1.0072)" gradientUnits="userSpaceOnUse">
   <stop id="stop605" stop-opacity=".23922" offset="0"/>
   <stop id="stop606" stop-opacity="0" offset="1"/>
  </linearGradient>
  <radialGradient id="radialGradient4070" cx="56.925" cy="25.591" r="5.3431" gradientTransform="scale(1.122 .89128)" gradientUnits="userSpaceOnUse" xlink:href="#linearGradient561"/>
  <linearGradient id="linearGradient4072" x1="25.033" x2="25.338" y1="15.336" y2="24.687" gradientTransform="scale(.95998 1.0417)" gradientUnits="userSpaceOnUse" xlink:href="#linearGradient635"/>
  <linearGradient id="linearGradient4074" x1="27.607" x2="28.115" y1="16.387" y2="24.093" gradientTransform="scale(.88763 1.1266)" gradientUnits="userSpaceOnUse" xlink:href="#linearGradient556"/>
  <radialGradient id="radialGradient4076" cx="32.369" cy="3.3555" r="6.057" gradientTransform="scale(1.0404 .96117)" gradientUnits="userSpaceOnUse" xlink:href="#linearGradient561"/>
  <linearGradient id="linearGradient4078" x1="36.83" x2="37.26" y1="47.909" y2="54.864" gradientTransform="scale(1.5175 .65899)" gradientUnits="userSpaceOnUse" xlink:href="#linearGradient561"/>
  <linearGradient id="linearGradient4080" x1="29.954" x2="30.472" y1="68.697" y2="63.224" gradientTransform="scale(1.8472 .54137)" gradientUnits="userSpaceOnUse">
   <stop id="stop642" stop-opacity=".41569" offset="0"/>
   <stop id="stop643" stop-opacity="0" offset="1"/>
  </linearGradient>
  <linearGradient id="linearGradient4082" x1="29.049" x2="29.396" y1="63.282" y2="68.898" gradientTransform="scale(1.9257 .5193)" gradientUnits="userSpaceOnUse" xlink:href="#linearGradient561"/>
  <linearGradient id="linearGradient4152" x1="48" x2="48" y1="6" y2="109.11" gradientUnits="userSpaceOnUse" xlink:href="#linearGradient3737"/>
  <linearGradient id="linearGradient4206" x1="48" x2="48" y1="90" y2="5.9877" gradientUnits="userSpaceOnUse">
   <stop id="stop4086" stop-color="#537d6b" offset="0"/>
   <stop id="stop4088" stop-color="#92bbaa" offset="1"/>
  </linearGradient>
  <linearGradient id="linearGradient4214" x1="48" x2="48" y1="90" y2="5.9877" gradientUnits="userSpaceOnUse">
   <stop id="stop4210" stop-color="#f3840c" offset="0"/>
   <stop id="stop4212" stop-color="#f2b80c" offset="1"/>
  </linearGradient>
  <linearGradient id="ButtonShadow-0" x1="45.448" x2="45.448" y1="92.54" y2="7.0165" gradientTransform="matrix(1.0059 0 0 .99417 100 0)" gradientUnits="userSpaceOnUse">
   <stop id="stop3750-8" offset="0"/>
   <stop id="stop3752-5" stop-opacity=".58824" offset="1"/>
  </linearGradient>
  <linearGradient id="linearGradient3780" x1="32.251" x2="32.251" y1="6.1317" y2="90.239" gradientTransform="matrix(1.0238 0 0 1.0119 -1.1429 -98.071)" gradientUnits="userSpaceOnUse" xlink:href="#ButtonShadow-0"/>
  <linearGradient id="linearGradient3721" x1="32.251" x2="32.251" y1="6.1317" y2="90.239" gradientTransform="translate(0,-97)" gradientUnits="userSpaceOnUse" xlink:href="#ButtonShadow-0"/>
 </defs>
 <metadata id="metadata2413">
  <rdf:RDF>
   <cc:Work rdf:about="">
    <dc:format>image/svg+xml</dc:format>
    <dc:type rdf:resource="http://purl.org/dc/dcmitype/StillImage"/>
   </cc:Work>
  </rdf:RDF>
 </metadata>
 <g id="layer2" display="none">
  <rect id="rect3745" x="5" y="7" width="86" height="85" rx="6" ry="6" fill="url(#ButtonShadow)" filter="url(#filter3174)" opacity=".9"/>
 </g>
 <g id="layer4">
  <path id="path3786" transform="scale(1,-1)" d="m12-95.031c-5.5111 0-10.031 4.5202-10.031 10.031v71c0 5.5111 4.5202 10.031 10.031 10.031h72c5.5111 0 10.031-4.5202 10.031-10.031v-71c0-5.5111-4.5202-10.031-10.031-10.031h-72z" fill="url(#linearGradient3780)" opacity=".08"/>
  <path id="path3778" transform="scale(1,-1)" d="m12-94.031c-4.9716 0-9.0312 4.0596-9.0312 9.0312v71c0 4.9716 4.0596 9.0312 9.0312 9.0312h72c4.9716 0 9.0312-4.0596 9.0312-9.0312v-71c0-4.9716-4.0596-9.0312-9.0312-9.0312h-72z" fill="url(#linearGradient3780)" opacity=".1"/>
  <path id="path3770" transform="scale(1,-1)" d="m12-93c-4.4091 0-8 3.5909-8 8v71c0 4.4091 3.5909 8 8 8h72c4.4091 0 8-3.5909 8-8v-71c0-4.4091-3.5909-8-8-8h-72z" fill="url(#linearGradient3780)" opacity=".2"/>
  <rect id="rect3723" transform="scale(1,-1)" x="5" y="-92" width="86" height="85" rx="7" ry="7" fill="url(#linearGradient3780)" opacity=".3"/>
  <rect id="rect3716" transform="scale(1,-1)" x="6" y="-91" width="84" height="84" rx="6" ry="6" fill="url(#linearGradient3721)" opacity=".45"/>
 </g>
 <g id="layer1">
  <rect id="rect2419" x="6" y="6" width="84" height="84" rx="6" ry="6" fill="url(#linearGradient4214)"/>
  <rect id="rect4204" x="6" y="6" width="84" height="84" rx="6" ry="6" fill="url(#linearGradient4206)"/>
  <path id="rect3728" d="m12 6c-3.324 0-6 2.676-6 6v2 68 2c0 0.33472 0.04135 0.6507 0.09375 0.96875 0.0487 0.2956 0.09704 0.59692 0.1875 0.875 0.00988 0.03038 0.020892 0.0636 0.03125 0.09375 0.098865 0.28777 0.23488 0.54745 0.375 0.8125 0.14459 0.27351 0.31562 0.53562 0.5 0.78125s0.37378 0.47347 0.59375 0.6875c0.43995 0.42806 0.94291 0.81453 1.5 1.0938 0.27854 0.13961 0.57347 0.24695 0.875 0.34375-0.2562-0.10022-0.48671-0.23627-0.71875-0.375-0.00741-0.0044-0.023866 0.0045-0.03125 0-0.031933-0.0193-0.062293-0.04251-0.09375-0.0625-0.1204-0.0767-0.23102-0.16351-0.34375-0.25-0.10617-0.0808-0.21328-0.16111-0.3125-0.25-0.17793-0.16143-0.34746-0.34539-0.5-0.53125-0.10758-0.13026-0.21839-0.26528-0.3125-0.40625-0.025089-0.03838-0.038446-0.08587-0.0625-0.125-0.064763-0.10303-0.13023-0.20452-0.1875-0.3125-0.10101-0.19471-0.20567-0.4157-0.28125-0.625-0.00796-0.02181-0.023589-0.04055-0.03125-0.0625-0.031825-0.09195-0.035804-0.18683-0.0625-0.28125-0.030332-0.10662-0.070389-0.20303-0.09375-0.3125-0.072879-0.34151-0.125-0.6982-0.125-1.0625v-2-68-2c0-2.7818 2.2182-5 5-5h2 68 2c2.7818 0 5 2.2182 5 5v2 68 2c0 0.3643-0.05212 0.72099-0.125 1.0625-0.04415 0.20689-0.08838 0.39766-0.15625 0.59375-0.0077 0.02195-0.0233 0.04069-0.03125 0.0625-0.06274 0.17374-0.13838 0.36745-0.21875 0.53125-0.04158 0.0828-0.07904 0.16995-0.125 0.25-0.0546 0.09721-0.12677 0.18835-0.1875 0.28125-0.09411 0.14096-0.20492 0.276-0.3125 0.40625-0.14317 0.17445-0.30314 0.347-0.46875 0.5-0.01117 0.0102-0.01998 0.02115-0.03125 0.03125-0.13839 0.12556-0.28509 0.23444-0.4375 0.34375-0.10257 0.07315-0.20432 0.15336-0.3125 0.21875-0.0074 0.0045-0.02384-0.0044-0.03125 0-0.23204 0.13873-0.46255 0.27478-0.71875 0.375 0.30153-0.0968 0.59646-0.20414 0.875-0.34375 0.55709-0.27922 1.0601-0.66569 1.5-1.0938 0.21997-0.21403 0.40937-0.44186 0.59375-0.6875s0.35541-0.50774 0.5-0.78125c0.14012-0.26505 0.27614-0.52473 0.375-0.8125 0.01041-0.03078 0.02133-0.06274 0.03125-0.09375 0.09046-0.27808 0.1388-0.5794 0.1875-0.875 0.0524-0.31805 0.09375-0.63403 0.09375-0.96875v-2-68-2c0-3.324-2.676-6-6-6h-72z" fill="url(#linearGradient3188)" opacity=".5"/>
  <path id="path3615" d="m12 90c-3.324 0-6-2.676-6-6v-2-68-2c0-0.33472 0.04135-0.6507 0.09375-0.96875 0.0487-0.2956 0.09704-0.59692 0.1875-0.875 0.00988-0.03038 0.020892-0.0636 0.03125-0.09375 0.098865-0.28777 0.23488-0.54745 0.375-0.8125 0.14459-0.27351 0.31562-0.53562 0.5-0.78125s0.37378-0.47347 0.59375-0.6875c0.43995-0.42806 0.94291-0.81453 1.5-1.0938 0.27854-0.13961 0.57347-0.24695 0.875-0.34375-0.2562 0.10022-0.48671 0.23627-0.71875 0.375-0.00741 0.0044-0.023866-0.0045-0.03125 0-0.031933 0.0193-0.062293 0.04251-0.09375 0.0625-0.1204 0.0767-0.23102 0.16351-0.34375 0.25-0.10617 0.0808-0.21328 0.16111-0.3125 0.25-0.17793 0.16143-0.34746 0.34539-0.5 0.53125-0.10758 0.13026-0.21839 0.26528-0.3125 0.40625-0.025089 0.03838-0.038446 0.08587-0.0625 0.125-0.064763 0.10303-0.13023 0.20452-0.1875 0.3125-0.10101 0.19471-0.20567 0.4157-0.28125 0.625-0.00796 0.02181-0.023589 0.04055-0.03125 0.0625-0.031825 0.09195-0.035804 0.18683-0.0625 0.28125-0.030332 0.10662-0.070389 0.20303-0.09375 0.3125-0.072879 0.34151-0.125 0.6982-0.125 1.0625v2 68 2c0 2.7818 2.2182 5 5 5h2 68 2c2.7818 0 5-2.2182 5-5v-2-68-2c0-0.3643-0.05212-0.72099-0.125-1.0625-0.04415-0.20689-0.08838-0.39766-0.15625-0.59375-0.0077-0.02195-0.0233-0.04069-0.03125-0.0625-0.06274-0.17374-0.13838-0.36745-0.21875-0.53125-0.04158-0.0828-0.07904-0.16995-0.125-0.25-0.0546-0.09721-0.12677-0.18835-0.1875-0.28125-0.09411-0.14096-0.20492-0.276-0.3125-0.40625-0.14317-0.17445-0.30314-0.347-0.46875-0.5-0.01117-0.0102-0.01998-0.02115-0.03125-0.03125-0.13839-0.12556-0.28509-0.23444-0.4375-0.34375-0.10257-0.07315-0.20432-0.15336-0.3125-0.21875-0.0074-0.0045-0.02384 0.0044-0.03125 0-0.23204-0.13873-0.46255-0.27478-0.71875-0.375 0.30153 0.0968 0.59646 0.20414 0.875 0.34375 0.55709 0.27922 1.0601 0.66569 1.5 1.0938 0.21997 0.21403 0.40937 0.44186 0.59375 0.6875s0.35541 0.50774 0.5 0.78125c0.14012 0.26505 0.27614 0.52473 0.375 0.8125 0.01041 0.03078 0.02133 0.06274 0.03125 0.09375 0.09046 0.27808 0.1388 0.5794 0.1875 0.875 0.0524 0.31805 0.09375 0.63403 0.09375 0.96875v2 68 2c0 3.324-2.676 6-6 6h-72z" fill="url(#radialGradient3619)" opacity=".2"/>
  <path id="path4141" d="M 20.875,6 46.65625,46.65625 6,20.5 6,39 46.21875,48 6,56.75 6,75.125 46.65625,49.34375 20.5,90 39,90 48,49.78125 56.75,90 75.125,90 49.34375,49.34375 90,75.5 90,57 49.78125,48 90,39.25 90,20.875 49.34375,46.65625 75.5,6 57,6 48,46.21875 39.25,6 20.875,6 z" fill="url(#linearGradient4152)" opacity=".45"/>
 </g>
 <g id="layer5">
  <rect id="rect3171" x="15" y="15" width="66" height="66" rx="12" ry="12" clip-path="url(#clipPath3613)" fill="url(#linearGradient3613)" filter="url(#filter3794)" opacity=".1" stroke="#fff" stroke-linecap="round" stroke-width=".5"/>
 </g>
 <g id="layer3" fill-rule="evenodd">
  <path id="path3779" d="m75.312 18.344c-5.8475 1.2881-10.769 5.8404-12.5 11.625-0.0051 0.0091 5e-3 0.02209 0 0.03125-0.02008 0.06753-0.07456 0.11963-0.09375 0.1875-0.24931 0.525-0.40681 1.06-0.53125 1.5938-0.07638 0.32762-0.11902 0.55959-0.1875 0.84375-2.5255-2.661-5.421-5.0168-8.5938-6.9062-0.06943-0.04134-0.11778-0.11539-0.1875-0.15625l-0.03125 0.03125c-1.4011-1.2139-3.526-2.041-5.5-2.3438-0.0026-4e-4 0.0026-0.03085 0-0.03125-0.06135-0.02008-0.12603-0.01193-0.1875-0.03125-4.9114-1.5435-10.159-0.65646-14.656 1.375-3.2597-1.0094-6.6543-0.319-9.4375 1.375-2.8503 1.7349-5.1011 4.4772-6.0625 7.6562-0.02043 0.04157-0.0122 0.08343-0.03125 0.125-0.0065 0.02244-0.02486 0.04002-0.03125 0.0625-0.47314 1.0729-0.53 2.1453-0.5 3.0625 0.03139 0.95941 0.10809 1.7922 0 2.4375-0.0014 0.0083 0.0014 0.02304 0 0.03125-0.58704 2.9488 0.02231 5.9457 1.25 8.5625-0.20298 3.2044 0.26661 6.3953 1.125 9.4375-1.0469 1.1061-1.559 2.4834-1.4688 3.7812 0.10674 1.5349 0.67112 2.9798 1.0938 4.0938 0.0075 0.02263 0.02358 0.03995 0.03125 0.0625 1.5627 4.5962 6.2368 7.5056 10.938 7.6875 6.0702 4.4698 14.425 5.7887 21.406 2.5312v0.03125c0.013-0.0057 0.01826-0.02552 0.03125-0.03125 6.2736-2.7651 11.338-7.5487 15.312-12.938 3.1157 2.4112 7.344 4.1786 11.406 2.5a1.1168 1.1168 0 0 0 0.09375-0.0625c1.1082-0.62182 1.5618-1.8889 1.4062-2.9375-0.14491-0.97713-0.74428-1.8419-1.6562-2.375l0.03125-0.03125c-2.4972-1.9893-4.273-4.7521-4.4375-7.875a1.1168 1.1168 0 0 0-0.03125-0.125c-0.64786-3.5471 0.91763-7.2035 2.375-10.812a1.1168 1.1168 0 0 0 0.09375-0.28125c0.67136-6.3715-0.54121-12.809 2.6562-17.875a1.1168 1.1168 0 0 0 0.0625-0.09375c1.0207-2.0837-0.82022-4.5793-3.125-4.2188a1.1168 1.1168 0 0 0-0.0625 0z" fill="#111d31" opacity=".05"/>
  <path id="path3773" d="m75.562 19.438c-5.5047 1.2125-10.222 5.5926-11.769 11.064-0.84126 1.5186-0.75446 6.0347-2.6191 2.916-2.519-2.6541-5.3678-5.0398-8.5177-6.8858-1.108-1.0362-3.4686-1.9999-5.3259-2.2544-4.7548-1.5562-9.9819-0.65134-14.424 1.4419-6.052-2.1719-12.872 2.4794-14.55 8.3793-0.8724 1.775-0.17948 3.6595-0.48372 5.3868-0.56218 2.784 0.03504 5.7147 1.284 8.2339-0.2445 3.3097 0.23818 6.6422 1.1875 9.8125-2.585 1.808-1.3505 5.0621-0.50082 7.3046 1.3992 4.2121 5.8765 6.9973 10.251 7.0392 5.7819 4.4211 13.932 5.7404 20.615 2.6088 6.3938-2.8074 11.584-7.8365 15.573-13.484 2.9643 2.6029 7.2949 4.6085 11.188 3 1.3895-0.77965 0.94814-2.8508-0.36477-3.4974-2.688-2.1413-4.7103-5.1925-4.8953-8.7044-0.72661-3.9783 1.0012-7.8102 2.4475-11.392 0.64634-6.1341-0.63754-12.828 2.8438-18.344 0.62577-1.2774-0.51552-2.8475-1.9375-2.625zm-23.5 6.9375c0.33868-0.06576 0.5266 0.30168 0 0z" fill="#111d31" opacity=".12"/>
  <path id="path3769" d="m75.719 20.5a0.77786 0.77786 0 0 0-0.09375 0.03125c-5.231 1.2773-7.8938 4.3011-9.8125 7.7188a0.77786 0.77786 0 0 0-0.03125 0.0625c-1.255 2.8647-2.1523 5.71-2.8125 8.5312-3.0105-3.5366-6.646-7.0247-10.812-9.375-0.0076-0.0043-0.02368 0.0043-0.03125 0-0.0023-0.0033 4.6e-5 -0.0312 0-0.03125-5.9e-5 -5.9e-5 -0.02826 0.0025-0.03125 0-0.02292-0.01915-0.10756-0.09819-0.15625-0.125-1.1385-0.9929-2.5951-1.6751-4.3125-1.875 0.20364 0.06581 0.18612 0.04861-0.0625-0.03125-1.7121-0.54989-3.499-0.85229-5.25-0.875a0.77786 0.77786 0 0 0-0.03125 0c-3.3978 0.094278-6.5011 0.90063-9.2812 2.2812-0.82531-0.33025-1.7039-0.56008-2.7812-0.59375a0.77786 0.77786 0 0 0-0.03125 0c-6.6672 0-11.281 5.9339-11.281 11.188a0.77786 0.77786 0 0 0 0.34375 0.625c-0.29503 1.0863-0.53125 2.229-0.53125 3.4375 0 2.2606 0.55605 4.3316 1.5 6.0938-0.0379 0.6308-0.0625 1.2668-0.0625 1.9062 0 2.903 0.51967 5.6993 1.3438 8.3125-0.57849 0.45684-1.083 0.96049-1.375 1.5938-0.36791 0.79786-0.40284 1.7449-0.125 2.75 0.14127 0.44948 0.42428 0.74044 0.6875 1.0312-0.06011 0.73325 0.10655 1.5711 0.6875 2.6562a0.77786 0.77786 0 0 0 0.03125 0.03125c1.6306 2.7599 4.3927 4.5859 7.875 4.9062 0.01044 9.61e-4 0.02079-9.34e-4 0.03125 0 0.38409 0.03918 0.75423 0.07538 1.125 0.09375 3.4992 2.6499 7.6764 4.2462 12.062 4.3125 9.1803 0.1273 18.422-7.8078 23.562-15.594 1.1907 0.87156 2.4698 1.9704 4.0938 2.8125 1.8224 0.94499 4.0469 1.5131 6.5625 0.8125a0.77786 0.77786 0 0 0 0.3125-1.3125c-1.7651-1.6179-3.2109-2.8797-4.25-4.6562-1.026-1.7542-1.713-4.1132-1.8125-8 0.0014-0.01293-0.0014-0.01837 0-0.03125 0.45879-4.2011 1.3858-5.9223 2.5625-8.6875a0.77786 0.77786 0 0 0 0.0625-0.21875c0.71892-6.71-0.81014-12.15 2.9062-18.625a0.77786 0.77786 0 0 0-0.78125-1.1562z" fill="#111d31" opacity=".2"/>
  <path id="path4188" d="m75.797 21.281c-5.0231 1.2265-7.4121 4.0144-9.2812 7.3438-1.437 3.2801-2.4846 6.5498-3.125 9.75-3.1457-3.902-7.2633-7.8284-11.812-10.344-0.01254-0.0069-0.0187-0.02434-0.03125-0.03125-1.087-0.99764-2.4616-1.6499-4.1875-1.8125-0.02197-0.0071-0.04052-0.02419-0.0625-0.03125-1.6445-0.52816-3.3023-0.82214-4.9688-0.84375-3.3993 0.09432-6.5084 0.90093-9.25 2.3125-0.79484-0.36879-1.7383-0.58948-2.875-0.625-6.1971 0-10.531 5.6186-10.531 10.406 0.20847-0.12242 0.41348-0.24728 0.625-0.34375-0.49325 1.3298-0.78125 2.8391-0.78125 4.4062 0 2.2317 0.54812 4.2856 1.5 5.9688-0.04532 0.6723-0.0625 1.3419-0.0625 2.0312 0 3.0017 0.5053 5.9088 1.4062 8.5938-1.4601 0.99304-2.0799 2.0852-1.5938 3.8438 0.11404 0.36283 0.35499 0.69236 0.65625 1 0.0059 6e-3 -0.0059 0.02529 0 0.03125-0.13271 0.57538-0.01315 1.308 0.625 2.5 1.5186 2.5703 4.0416 4.2392 7.3125 4.5312 0.45521 0.04708 0.89663 0.0756 1.3438 0.09375 3.4239 2.6563 7.521 4.2476 11.812 4.3125 8.9729 0.12443 18.517-8.0795 23.438-15.906 0.01423 0.04934 0.01684 0.07515 0.03125 0.125 2.6868 1.869 5.8857 5.1288 10.5 3.8438-3.5045-3.2124-6.1372-5.1937-6.3125-13.312 0.46735-4.3221 1.488-6.1923 2.6562-8.9375 0.70088-6.5416-0.8863-12.189 2.9688-18.906z" fill="#111d31" opacity=".4"/>
  <g id="g2335" transform="matrix(1.4336 0 0 1.4336 -44.455 -81.448)">
   <path id="path617" transform="translate(25.684 64.782)" d="m30.267 20.252a5.6614 7.1856 0 1 1-11.323 0 5.6614 7.1856 0 1 1 11.323 0z" fill="url(#radialGradient4058)"/>
   <path id="path618" transform="translate(15.858 74.436)" d="m40.968 10.542c0 3.3396-6.81-5.8722-12.1-2.7657 0-3.3396 3.0212-7.2688 7.344-7.2688 5.5328 0.17288 4.7562 6.6949 4.7562 10.034z" fill="url(#radialGradient4060)" stroke-width="1pt"/>
   <path id="path619" transform="translate(40,65)" d="m34.713 23.554c-0.0815-3.9113 0.8148-8.1894 2.689-12.467 1.3038-2.3224 2.9743-4.278 6.4782-5.1336-2.6891 4.6855-1.589 8.6376-2.0779 13.201-0.8149 1.9149-1.5075 3.2189-1.8335 6.2338 0.1223 5.6633 1.9557 7.0487 4.4003 9.2895-3.2187 0.8964-5.4595-1.3853-7.3337-2.689-0.9779-3.3817-1.3446-5.0522-2.3224-8.434z" fill="url(#linearGradient4062)"/>
   <g id="g595" transform="matrix(.71859 0 0 .71858 2.1673 69.947)">
    <path id="path596" transform="translate(0 -.12225)" d="m64.476 21.173a2.0743 2.1607 0 1 1-4.1486 0 2.0743 2.1607 0 1 1 4.1486 0z"/>
    <path id="path597" d="m63.958 20.395a0.77786 1.0372 0 1 1-1.5557 0 0.77786 1.0372 0 1 1 1.5557 0z" fill="#808080"/>
   </g>
   <path id="path630" transform="translate(40,65)" d="m35.691 19.887c1.263-5.9486 1.5483-6.7634 2.3224-8.6783 0.8555-1.589 1.3445-2.9335 5.1336-4.7669-2.0372 1.7112-3.0965 3.6668-3.9113 6.2337-0.4075 2.1186-1.1816 4.2373-0.7334 11.245-0.6519-1.0593-2.1594-2.9743-2.8113-4.0336z" fill="url(#linearGradient4064)" fill-opacity=".47183"/>
   <path id="path615" transform="translate(40,65)" d="m39.358 25.754c-0.2444 5.9561-9.8889 17.357-18.701 17.234-8.0789-0.1222-15.034-7.9781-15.034-17.357 0-9.3784 6.0997-16.623 14.912-16.868 9.4235 0.12222 18.946 13.234 18.823 16.99z" fill="url(#radialGradient4066)" stroke-width="1pt"/>
   <path id="path599" transform="translate(40,65)" d="m39.358 25.754c-0.2444 5.9561-9.8889 17.357-18.701 17.234-8.0789-0.1222-15.034-7.9781-15.034-17.357 0-9.3784 6.0997-16.623 14.912-16.868 9.4235 0.12222 18.946 13.234 18.823 16.99z" fill="url(#linearGradient4068)" stroke-width="1pt"/>
   <path id="path632" transform="translate(40,65)" d="m30.557 20.498c2.0779 3.1331 1.3797 5.7609 0.2514 7.5749-1.1283 1.8142-4.2791 2.7994-5.9962 2.6924-6.0078-0.3667-5.1336-3.0235-5.1336-8.5562 0-5.5326 3.6483-10.878 7.0893-10.878 2.5854 0.6112 3.7891 3.6347 3.7891 9.1673z" fill-opacity=".19718" stroke-width="1pt"/>
   <path id="path624" transform="matrix(.95249 0 0 1.1466 1.8795 60.007)" d="m72.36 25.082a6.5393 5.1947 0 1 1-13.079 0 6.5393 5.1947 0 1 1 13.079 0z" fill="url(#radialGradient4070)"/>
   <path id="path633" transform="matrix(1 0 0 .93264 39.878 66.198)" d="m30.069 22.209a5.7448 6.2337 0 1 1-11.49 0 5.7448 6.2337 0 1 1 11.49 0z" fill="url(#linearGradient4072)"/>
   <path id="path552" transform="matrix(1.0324 0 0 1.0595 38.516 63.149)" d="m30.267 20.252a5.6614 7.1856 0 1 1-11.323 0 5.6614 7.1856 0 1 1 11.323 0z" fill="url(#linearGradient4074)"/>
   <path id="path600" transform="translate(28.937 74.68)" d="m40.89 10.542c-0.9766-0.87914-3.9537-5.755-11.788-2.7966 0-3.3396 1.32-8.0934 5.6428-8.0934 5.5328 0.17288 6.1449 7.5504 6.1449 10.89z" fill="url(#radialGradient4076)" stroke-width="1pt"/>
   <g id="g611" transform="matrix(.71859 0 0 .71858 21.479 70.386)">
    <path id="path604" transform="translate(0 -.12225)" d="m64.476 21.173a2.0743 2.1607 0 1 1-4.1486 0 2.0743 2.1607 0 1 1 4.1486 0z"/>
    <path id="path605" d="m63.958 20.395a0.77786 1.0372 0 1 1-1.5557 0 0.77786 1.0372 0 1 1 1.5557 0z" fill="#808080"/>
   </g>
   <path id="path623" transform="translate(-1.1915 67.2)" d="m47.792 31.621c0.2038 0.8556 6.2745 3.4224 15.89-0.2445 0.387-0.0408 2.2985-2.1103 2.2908-1.7026-0.0187 1.1104-0.8848 2.5877-2.0123 3.8196-2.404 2.9334-6.5529 4.7278-11.279 4.239-2.2816-0.2037-4.0423-1.3851-5.1016-3.178-0.9051-1.6907-0.3172-1.9963 0.2124-2.9335z" fill="url(#linearGradient4078)"/>
   <path id="path631" transform="translate(-1.6541 65.384)" d="m48.158 31.621c0.2038 0.8556 5.9078 3.7891 15.523 0.1222 1.2892-0.662 2.1738-0.0872 0.8556 1.9556-2.4039 2.4446-9.6969 3.4225-11.978 3.0558-2.2816-0.2037-5.0521-1.0186-5.5003-2.4446-0.3391-1.2267 0.0815-1.9963 1.1-2.689z" fill="url(#linearGradient4080)"/>
   <path id="path621" transform="translate(-1.5582 65)" d="m48.158 31.621c0.2038 0.8556 5.5953 4.9609 15.836 0.9816 0.6836-0.2919 1.9301-0.8606 2.1868-0.8178 0.3767 0.0741-0.4768 0.9707-1.4874 1.9922-2.4039 2.4445-9.8532 3.3443-12.135 2.9776-2.2816-0.2037-5.0521-1.0186-5.5003-2.4446-0.3391-1.2267 0.0815-1.9963 1.1-2.689z" fill="url(#linearGradient4082)"/>
  </g>
 </g>
</svg>
