<?xml version="1.0" encoding="UTF-8"?>
<svg id="svg2408" width="96" height="96" version="1.0" xmlns="http://www.w3.org/2000/svg" xmlns:cc="http://creativecommons.org/ns#" xmlns:dc="http://purl.org/dc/elements/1.1/" xmlns:rdf="http://www.w3.org/1999/02/22-rdf-syntax-ns#" xmlns:xlink="http://www.w3.org/1999/xlink">
 <defs id="defs2410">
  <linearGradient id="ButtonShadow" x1="45.448" x2="45.448" y1="92.54" y2="7.0165" gradientTransform="scale(1.0059 .99417)" gradientUnits="userSpaceOnUse">
   <stop id="stop3750" offset="0"/>
   <stop id="stop3752" stop-opacity=".58824" offset="1"/>
  </linearGradient>
  <linearGradient id="linearGradient3737">
   <stop id="stop3739" stop-color="#fff" offset="0"/>
   <stop id="stop3741" stop-color="#fff" stop-opacity="0" offset="1"/>
  </linearGradient>
  <filter id="filter3174" color-interpolation-filters="sRGB">
   <feGaussianBlur id="feGaussianBlur3176" stdDeviation="1.71"/>
  </filter>
  <linearGradient id="linearGradient3617" x1="48" x2="48" y1="90" y2="-32" gradientTransform="translate(0,-96)" gradientUnits="userSpaceOnUse">
   <stop id="stop4284" stop-color="#f0f0f0" offset="0"/>
   <stop id="stop4282" stop-color="#c6c6c6" offset="1"/>
  </linearGradient>
  <linearGradient id="ButtonShadow-0" x1="45.448" x2="45.448" y1="92.54" y2="7.0165" gradientTransform="matrix(1.0059 0 0 .99417 100 0)" gradientUnits="userSpaceOnUse">
   <stop id="stop3750-8" offset="0"/>
   <stop id="stop3752-5" stop-opacity=".58824" offset="1"/>
  </linearGradient>
  <linearGradient id="linearGradient3780" x1="32.251" x2="32.251" y1="6.1317" y2="90.239" gradientTransform="matrix(1.0238 0 0 -1.0119 -1.1429 98.071)" gradientUnits="userSpaceOnUse" xlink:href="#ButtonShadow-0"/>
  <linearGradient id="linearGradient3725" x1="32.251" x2="32.251" y1="6.1317" y2="90.239" gradientTransform="matrix(1.0238 0 0 1.0119 -1.1429 -98.071)" gradientUnits="userSpaceOnUse" xlink:href="#ButtonShadow-0"/>
  <linearGradient id="linearGradient3721" x1="32.251" x2="32.251" y1="6.1317" y2="90.239" gradientTransform="translate(0,-97)" gradientUnits="userSpaceOnUse" xlink:href="#ButtonShadow-0"/>
  <linearGradient id="linearGradient4706" x1="17.429" x2="68.572" y1="73.616" y2="17.527" gradientUnits="userSpaceOnUse">
   <stop id="stop4700" stop-color="#244c79" offset="0"/>
   <stop id="stop4702" stop-color="#5e87b4" offset="1"/>
  </linearGradient>
  <linearGradient id="linearGradient4390" x1="48" x2="48" y1="88" y2="-40" gradientTransform="matrix(1,0,0,-1,0,92)" gradientUnits="userSpaceOnUse" xlink:href="#linearGradient3737"/>
  <linearGradient id="linearGradient4429" x1="48" x2="112.12" y1="82" y2="82.455" gradientUnits="userSpaceOnUse" spreadMethod="reflect" xlink:href="#linearGradient3737"/>
  <linearGradient id="linearGradient3228" x1="90" x2="48" y1="88" y2="88" gradientUnits="userSpaceOnUse" spreadMethod="reflect">
   <stop id="stop3894" stop-opacity=".58824" offset="0"/>
   <stop id="stop3896" stop-opacity=".47059" offset=".1178"/>
   <stop id="stop3898" stop-opacity=".39216" offset=".2381"/>
   <stop id="stop3900" stop-opacity=".31373" offset="1"/>
  </linearGradient>
 </defs>
 <metadata id="metadata2413">
  <rdf:RDF>
   <cc:Work rdf:about="">
    <dc:format>image/svg+xml</dc:format>
    <dc:type rdf:resource="http://purl.org/dc/dcmitype/StillImage"/>
    <dc:title/>
   </cc:Work>
  </rdf:RDF>
 </metadata>
 <g id="layer2" display="none">
  <rect id="rect3745" x="5" y="7" width="86" height="85" rx="6" ry="6" fill="url(#ButtonShadow)" filter="url(#filter3174)" opacity=".9"/>
 </g>
 <path id="path3786" d="m12 95.031c-5.5111 0-10.031-4.5202-10.031-10.031v-71c0-5.5111 4.5202-10.031 10.031-10.031h72c5.5111 0 10.031 4.5202 10.031 10.031v71c0 5.5111-4.5202 10.031-10.031 10.031h-72z" fill="url(#linearGradient3780)" opacity=".08"/>
 <path id="path3778-9" d="m12 94.031c-4.9716 0-9.0312-4.0596-9.0312-9.0312v-71c0-4.9716 4.0596-9.0312 9.0312-9.0312h72c4.9716 0 9.0312 4.0596 9.0312 9.0312v71c0 4.9716-4.0596 9.0312-9.0312 9.0312h-72z" fill="url(#linearGradient3780)" opacity=".1"/>
 <path id="path3770" d="m12 93c-4.4091 0-8-3.5909-8-8v-71c0-4.4091 3.5909-8 8-8h72c4.4091 0 8 3.5909 8 8v71c0 4.4091-3.5909 8-8 8h-72z" fill="url(#linearGradient3780)" opacity=".2"/>
 <rect id="rect3723" transform="scale(1,-1)" x="5" y="-92" width="86" height="85" rx="7" ry="7" fill="url(#linearGradient3725)" opacity=".3"/>
 <rect id="rect3716" transform="scale(1,-1)" x="6" y="-91" width="84" height="84" rx="6" ry="6" fill="url(#linearGradient3721)" opacity=".45"/>
 <rect id="rect2419" transform="scale(1,-1)" x="6" y="-90" width="84" height="84" rx="6" ry="6" fill="url(#linearGradient3617)"/>
 <g id="g1057" transform="translate(0 -1.9998)">
  <path id="path4696" d="m15.478 79.898-1.7882-1.8313 6.39-6.5536c3.5145-3.6045 6.9133-7.0004 7.5529-7.5465l1.1629-0.99288-1.6842-3.1422c-2.6329-4.912-3.2926-7.7963-3.0229-13.218 0.16423-3.3022 0.53032-5.3906 1.2786-7.294l1.0485-2.6671 4.3407 4.2755-0.63028 2.3671c-0.34665 1.3019-0.63273 3.3308-0.63572 4.5086-0.0113 4.4456 2.9681 10.991 6.1355 13.479l1.4399 1.131-9.6443 9.6576c-5.3044 5.3117-9.7592 9.6576-9.8997 9.6576-0.14049 0-1.0601-0.82408-2.0436-1.8313zm54.896-5.7323-7.5792-7.5636-2.4861 1.5784c-4.1522 2.6362-6.4497 3.2141-12.676 3.1884-4.6436-0.0192-5.9376-0.19027-8.2027-1.0846l-2.6894-1.0618 4.317-4.3829 2.5984 0.68506c5.639 1.4867 12.086-0.27083 16.875-4.6001l2.3313-2.1076 19.203 19.219-1.8032 1.8466c-0.99176 1.0157-1.9171 1.8467-2.0563 1.8467s-3.6637-3.4036-7.8322-7.5636zm-3.3321-17.592-2.1564-2.1893 0.67757-2.2514c1.7497-5.8137-5e-3 -12.345-4.5748-17.026l-2.3378-2.3945 19.337-18.88 4.1037 3.5291-15.134 15.19 1.6675 3.1097c0.91715 1.7103 1.9965 4.2327 2.3985 5.6052 1.3274 4.5319 0.71303 12.653-1.239 16.378l-0.58579 1.118zm-43.633-29.318-9.5002-9.6776 1.9243-1.9243 1.9243-1.9243 15.186 15.166 1.7739-1.2054c6.2079-4.2184 15.37-5.0567 22.465-2.0557l1.7385 0.73531-4.3959 4.3013-2.5122-0.65938c-6.0744-1.5943-12.406 0.18899-16.974 4.781l-2.1295 2.1405z" fill="url(#linearGradient4706)" stroke-width=".45945"/>
  <circle id="path4698" cx="47.593" cy="47.593" r="12" fill="#ffbe00"/>
 </g>
 <g id="g907">
  <path id="rect4377" d="m12 86c-3.324 0-6-2.676-6-6v-68c0-3.324 2.676-6 6-6h72c3.324 0 6 2.676 6 6v68c0 3.324-2.676 6-6 6zm0-0.96875h72c2.8049 0 5.0312-2.2264 5.0312-5.0312v-68c0-2.8049-2.226-5.0312-5.031-5.0312h-72c-2.8049 0-5.0312 2.2263-5.0312 5.0312v68c0 2.8049 2.2264 5.0312 5.0312 5.0312z" fill="url(#linearGradient4390)" opacity=".3"/>
  <path id="rect4414" d="m6 78v2c0 3.324 2.676 6 6 6h72c3.324 0 6-2.676 6-6v-2c0 3.324-2.676 6-6 6h-72c-3.324 0-6-2.676-6-6z" fill="url(#linearGradient4429)" opacity=".1"/>
  <g id="layer4">
   <path id="path3888" d="m6 80v4c0 3.324 2.676 6 6 6h72c3.324 0 6-2.676 6-6v-4c0 3.324-2.676 6-6 6h-72c-3.324 0-6-2.676-6-6z" fill="url(#linearGradient3228)"/>
   <path id="rect4345" d="m6 82v2c0 3.324 2.676 6 6 6h72c3.324 0 6-2.676 6-6v-2c0 3.324-2.676 6-6 6h-72c-3.324 0-6-2.676-6-6z" color="#000000" opacity=".1"/>
   <path id="rect4336" d="m6 83v1c0 3.324 2.676 6 6 6h72c3.324 0 6-2.676 6-6v-1c0 3.324-2.676 6-6 6h-72c-3.324 0-6-2.676-6-6z" color="#000000" opacity=".15"/>
  </g>
 </g>
</svg>
