<?xml version="1.0" encoding="UTF-8"?>
<svg id="svg77" width="96" height="96" version="1.1" xmlns="http://www.w3.org/2000/svg" xmlns:cc="http://creativecommons.org/ns#" xmlns:dc="http://purl.org/dc/elements/1.1/" xmlns:rdf="http://www.w3.org/1999/02/22-rdf-syntax-ns#" xmlns:xlink="http://www.w3.org/1999/xlink">
 <metadata id="metadata129">
  <rdf:RDF>
   <cc:Work rdf:about="">
    <dc:format>image/svg+xml</dc:format>
    <dc:type rdf:resource="http://purl.org/dc/dcmitype/StillImage"/>
   </cc:Work>
  </rdf:RDF>
 </metadata>
 <defs id="defs49">
  <linearGradient id="ButtonShadow" x1="45.448" x2="45.448" y1="92.54" y2="7.0165" gradientTransform="scale(1.0059 .99417)" gradientUnits="userSpaceOnUse">
   <stop id="stop7" offset="0"/>
   <stop id="stop9" stop-opacity=".58824" offset="1"/>
  </linearGradient>
  <filter id="filter3174">
   <feGaussianBlur id="feGaussianBlur12" stdDeviation="1.71"/>
  </filter>
  <filter id="filter3794" x="-.192" y="-.192" width="1.384" height="1.384">
   <feGaussianBlur id="feGaussianBlur15" stdDeviation="5.28"/>
  </filter>
  <linearGradient id="linearGradient3613" x1="48" x2="48" y1="20.221" y2="138.66" gradientUnits="userSpaceOnUse">
   <stop id="stop18" stop-color="#fff" offset="0"/>
   <stop id="stop20" stop-color="#fff" stop-opacity="0" offset="1"/>
  </linearGradient>
  <linearGradient id="linearGradient3617" x1="48" x2="48" y1="90" y2="5.9877" gradientUnits="userSpaceOnUse">
   <stop id="stop23" stop-color="#fd5d38" offset="0"/>
   <stop id="stop25" stop-color="#f69d31" offset="1"/>
  </linearGradient>
  <linearGradient id="ButtonShadow-0" x1="45.448" x2="45.448" y1="92.54" y2="7.0165" gradientTransform="matrix(1.0059 0 0 .99417 100 0)" gradientUnits="userSpaceOnUse">
   <stop id="stop28" offset="0"/>
   <stop id="stop30" stop-opacity=".58824" offset="1"/>
  </linearGradient>
  <linearGradient id="linearGradient3780" x1="32.251" x2="32.251" y1="6.1317" y2="90.239" gradientTransform="matrix(1.0238 0 0 1.0119 -1.1429 -98.071)" gradientUnits="userSpaceOnUse" xlink:href="#ButtonShadow-0"/>
  <linearGradient id="linearGradient3721" x1="32.251" x2="32.251" y1="6.1317" y2="90.239" gradientTransform="translate(0,-97)" gradientUnits="userSpaceOnUse" xlink:href="#ButtonShadow-0"/>
  <clipPath id="clipPath4355">
   <rect id="rect35" x="6" y="6" width="84" height="84" rx="6" ry="6" fill="#fff"/>
  </clipPath>
  <linearGradient id="linearGradient4390" x1="48" x2="48" y1="88" y2="-40" gradientTransform="matrix(1,0,0,-1,0,92)" gradientUnits="userSpaceOnUse">
   <stop id="stop2" stop-color="#fff" offset="0"/>
   <stop id="stop4" stop-color="#fff" stop-opacity="0" offset="1"/>
  </linearGradient>
 </defs>
 <g id="g53" display="none">
  <rect id="rect51" x="5" y="7" width="86" height="85" rx="6" ry="6" fill="url(#ButtonShadow)" filter="url(#filter3174)" opacity=".9"/>
 </g>
 <g id="g67">
  <g id="g63" fill="url(#linearGradient3780)">
   <path id="path55" transform="scale(1,-1)" d="m12-95.031c-5.5111 0-10.031 4.5202-10.031 10.031v71c0 5.5111 4.5202 10.031 10.031 10.031h72c5.5111 0 10.031-4.5202 10.031-10.031v-71c0-5.5111-4.5202-10.031-10.031-10.031h-72z" opacity=".08"/>
   <path id="path57" transform="scale(1,-1)" d="m12-94.031c-4.9716 0-9.0312 4.0596-9.0312 9.0312v71c0 4.9716 4.0596 9.0312 9.0312 9.0312h72c4.9716 0 9.0312-4.0596 9.0312-9.0312v-71c0-4.9716-4.0596-9.0312-9.0312-9.0312h-72z" opacity=".1"/>
   <path id="path59" transform="scale(1,-1)" d="m12-93c-4.4091 0-8 3.5909-8 8v71c0 4.4091 3.5909 8 8 8h72c4.4091 0 8-3.5909 8-8v-71c0-4.4091-3.5909-8-8-8h-72z" opacity=".2"/>
   <rect id="rect61" transform="scale(1,-1)" x="5" y="-92" width="86" height="85" rx="7" ry="7" opacity=".3"/>
  </g>
  <rect id="rect65" transform="scale(1,-1)" x="6" y="-91" width="84" height="84" rx="6" ry="6" fill="url(#linearGradient3721)" opacity=".45"/>
 </g>
 <g id="g87">
  <rect id="rect81" x="6" y="6" width="84" height="84" rx="6" ry="6" fill="url(#linearGradient3617)"/>
  <path id="path83" d="m12 6c-3.324 0-6 2.676-6 6v72c0 3.324 2.676 6 6 6h72c3.324 0 6-2.676 6-6v-72c0-3.324-2.676-6-6-6zm0 2h72c2.805 0 5 2.195 5 5v70c0 2.805-2.195 5-5 5h-72c-2.805 0-5-2.195-5-5v-70c0-2.805 2.195-5 5-5z" fill="url(#linearGradient4390)" opacity=".3"/>
 </g>
 <g id="g91">
  <rect id="rect89" x="15" y="15" width="66" height="66" rx="12" ry="12" clip-path="url(#clipPath4355)" fill="url(#linearGradient3613)" filter="url(#filter3794)" opacity=".1" stroke="#fff" stroke-linecap="round" stroke-width=".5"/>
 </g>
 <defs id="defs101">
  <linearGradient id="a" x1="8" x2="8" y1="2" y2="15" gradientUnits="userSpaceOnUse">
   <stop id="stop96" stop-color="#fafafa" offset="0"/>
   <stop id="stop98" stop-color="#ebebeb" offset="1"/>
  </linearGradient>
 </defs>
 <g id="g123">
  <path id="path103" transform="matrix(4,0,0,4,16,17)" d="m8 1.75c-0.2949 0-0.66672 0.10694-1.8145 0.46484-0.12961 0.040417-0.25958 0.077507-0.36328 0.10352-0.051849 0.013004-0.098415 0.024812-0.13086 0.03125-0.032444 0.00644-0.061785 0.00582-0.033203 0.00586 0.040459 5.08e-5 -0.025704-0.00229-0.087891-0.011719-0.062186-0.0094291-0.1474-0.02361-0.24805-0.041016-0.2013-0.034812-0.4652-0.08347-0.74023-0.13672-0.27741-0.053725-0.53686-0.10296-0.73438-0.13867-0.098759-0.017856-0.18177-0.032666-0.24414-0.042969-0.031184-0.00515-0.058483-0.00865-0.080078-0.011719-0.021595-0.00307-0.02158-0.00586-0.070312-0.00586-0.082618 0-0.1144 0.022397-0.14062 0.037109-0.026224 0.014712-0.043363 0.029186-0.060547 0.042969-0.034369 0.027565-0.066826 0.056247-0.10156 0.091797-0.069472 0.0711-0.15075 0.16549-0.24609 0.2793-0.19068 0.22761-0.43079 0.53293-0.67969 0.86328-0.49779 0.66071-1.0236 1.4048-1.2539 1.8184-0.20118 0.36123-0.2841 0.74066-0.17383 1.0762 0.050419 0.15353 0.1545 0.30266 0.38672 0.54492 0.23221 0.24226 0.60935 0.59971 1.2598 1.207 0.29727 0.27757 0.57002 0.53836 0.76953 0.73242 0.099757 0.097033 0.18274 0.17756 0.23828 0.23438 0.016919 0.017309 0.025537 0.026777 0.037109 0.039063 0.015359 0.051133 0.00912 0.22141-0.16406 0.62695-0.12444 0.2914-0.20257 0.50967-0.23047 0.72266-0.027902 0.21298 0.0031 0.41361 0.072266 0.61133 0.14319 0.40925 0.37146 0.73344 0.71875 1.0293 0.17251 0.14697 0.31802 0.25337 0.46484 0.32422 0.14682 0.07085 0.30602 0.10243 0.45508 0.07813 0.14198-0.02314 0.24241-0.07728 0.41406-0.1543 0.17165-0.07702 0.37777-0.17678 0.58398-0.28125s0.41221-0.21362 0.58398-0.31055c0.17178-0.09693 0.29701-0.16968 0.39258-0.25 0.28081-0.23604 0.55706-0.48792 0.76953-0.69922 0.10624-0.10565 0.19656-0.20082 0.26562-0.28125 0.034535-0.04022 0.06426-0.07644 0.089844-0.11328 0.025584-0.03684 0.051997-0.05809 0.070312-0.1543 0.032547-0.17046-0.0039844-0.27598-0.074219-0.4043-0.052124-0.095528-0.078748-0.1046-0.13281-0.16016-0.054064-0.05556-0.12279-0.12367-0.20508-0.20117-0.16458-0.155-0.37939-0.34775-0.60742-0.54492-0.39096-0.33804-0.62088-0.54737-0.73633-0.67578-0.11031-0.1227-0.10024-0.12544-0.099609-0.1582 0.00256-0.00873 0.00387-0.015 0.00781-0.027344 0.01405-0.044021 0.037042-0.10631 0.064453-0.18164 0.00997-0.027393 0.027726-0.071203 0.039063-0.10156-0.00467 0.046352-0.015006 0.095952-0.00977 0.14258 0.00919 0.081765 0.067117 0.18166 0.10352 0.21875 0.065992 0.067277 0.10079 0.072828 0.14453 0.091797 0.043743 0.018969 0.090763 0.03725 0.14453 0.054687 0.10754 0.034876 0.2392 0.069633 0.38086 0.10352 0.28333 0.067766 0.60175 0.12813 0.83594 0.14648 0.25303 0.019833 0.61692-0.035715 0.97852-0.10547 0.1808-0.034877 0.35407-0.074519 0.49609-0.11523 0.07101-0.020358 0.13286-0.04161 0.18945-0.064453 0.056597-0.022844 0.10308-0.031027 0.17578-0.10547 0.029899-0.030627 0.09287-0.1259 0.10547-0.21094 0.00801-0.054059-0.00201-0.10717-0.00781-0.16016 0.015905 0.042208 0.050167 0.11898 0.060547 0.15234 0.039475 0.12687 0.037125 0.17119 0.021484 0.2168-0.031281 0.091222-0.26665 0.3142-0.82812 0.80078-0.23877 0.2069-0.46096 0.40915-0.62891 0.56836-0.083972 0.079606-0.15301 0.14857-0.20703 0.20508-0.027012 0.028252-0.049919 0.051774-0.070312 0.076172s-0.03657 0.031212-0.066406 0.10352c-0.062004 0.15022-0.035969 0.37351 0.074219 0.53516 0.11019 0.16165 0.27973 0.32385 0.55469 0.57422 0.64908 0.591 0.82757 0.71117 1.6758 1.1211 0.19815 0.09576 0.39109 0.18228 0.54688 0.24609 0.07789 0.03191 0.14503 0.05846 0.20312 0.07813 0.05809 0.01966 0.0716 0.04178 0.18945 0.03906 0.1192-0.0026 0.2477-0.03295 0.36914-0.0957 0.12144-0.06276 0.23967-0.15086 0.40039-0.28125 0.36749-0.29817 0.62227-0.65933 0.76758-1.0918 0.06543-0.19471 0.10153-0.38077 0.07422-0.58398-0.02731-0.20321-0.10329-0.40839-0.23047-0.71094-0.17057-0.40575-0.17897-0.59004-0.16406-0.64062 0.01032-0.010947 0.01868-0.018312 0.0332-0.033203 0.05213-0.053446 0.12877-0.12939 0.22266-0.2207 0.18776-0.18262 0.44506-0.42698 0.72461-0.6875 0.83472-0.77789 1.2654-1.1811 1.5059-1.4805 0.12024-0.14967 0.19791-0.28398 0.23242-0.42578 0.03451-0.1418 0.02074-0.26951 0.0039-0.38672-0.02418-0.16865-0.063725-0.32288-0.16405-0.51368-0.10033-0.1908-0.25722-0.42718-0.53711-0.84375-0.24325-0.36203-0.63638-0.9002-0.98828-1.3633-0.17595-0.23154-0.3397-0.44353-0.4707-0.60547-0.0655-0.080971-0.12285-0.14954-0.16992-0.20312-0.04707-0.053587-0.05936-0.080664-0.13867-0.13477-5.08e-4 -3.468e-4 -0.03057-0.018109-0.04297-0.023437-0.0124-0.00533-0.02225-0.00912-0.03125-0.011719-0.018-0.0052-0.03184-0.00629-0.04297-0.00781-0.02226-0.00305-0.03772-0.00381-0.05273-0.00391-0.03003-1.885e-4 -0.05742 0.00108-0.08984 0.00391-0.06485 0.00565-0.14659 0.016597-0.24609 0.03125-0.19901 0.029306-0.46893 0.074673-0.78516 0.13477a0.25002 0.25002 0 0 0 0 0.00195c-0.28715 0.054615-0.56137 0.10267-0.77148 0.13867-0.10506 0.018001-0.19471 0.033187-0.25977 0.042969-0.06505 0.00978-0.13084 0.013672-0.0918 0.013672 0.05117 0-0.06505-0.010892-0.16992-0.037109-0.10487-0.026218-0.23763-0.063094-0.36719-0.10352-1.0684-0.33321-1.4001-0.41909-1.6875-0.43359a0.25002 0.25002 0 0 0-0.0039062-0.0019531 0.25002 0.25002 0 0 0-0.12109-0.03125zm2.8008 2.6445 0.40625 0.011719c0.16295 0.00413 0.338 0.023501 0.51562 0.037109-0.17091 0.068286-0.31281 0.12605-0.51367 0.20312-0.37585 0.14423-0.73319 0.2865-1.0078 0.40039-0.13731 0.056948-0.2544 0.10642-0.34375 0.14648-0.08935 0.040064-0.12485 0.049525-0.20312 0.10547-0.13657 0.097647-0.23293 0.23269-0.29883 0.38477-0.015965-0.072333-0.039172-0.17377-0.052734-0.23633-0.026911-0.12413-0.047688-0.22749-0.0625-0.30078-0.00741-0.036645-0.014091-0.066557-0.017578-0.085937h-0.00195c7.464e-4 0.06809 0.015719-0.048126 0.033203-0.082031a0.25002 0.25002 0 0 0 0.00195 0c0.00262-0.00508-0.028363 0.00904 0.078125-0.041016 0.10649-0.050059 0.31573-0.12981 0.67773-0.25977zm-5.6953 0.00391c0.21666 0.031749 0.44503 0.12094 0.9668 0.30859 0.32205 0.11583 0.51017 0.18732 0.60352 0.23242 0.093349 0.045107 0.064011 0.028665 0.068359 0.037109 0.017455 0.03389 0.032413 0.15175 0.033203 0.083984h-0.00195c-0.0035 0.019357-0.00819 0.049296-0.015625 0.085937-0.01488 0.073283-0.037431 0.17664-0.064453 0.30078-0.014074 0.064642-0.038059 0.16909-0.05469 0.24414-0.070938-0.16365-0.1741-0.31109-0.32617-0.41211-0.064971-0.043224-0.11114-0.058865-0.19727-0.097656s-0.19688-0.086666-0.32617-0.14062c-0.25859-0.10792-0.5896-0.24158-0.93555-0.375-0.30532-0.11774-0.36792-0.14225-0.60156-0.23242 0.42753-0.039568 0.64531-0.06538 0.85156-0.035156zm2.8906 6.6699c-0.25523 0.0012-0.48104 0.09267-0.83789 0.24024-0.3492 0.14441-0.86906 0.39091-1.3164 0.61719-0.22367 0.11314-0.42864 0.22202-0.58398 0.30859-0.077671 0.04329-0.14305 0.08014-0.19531 0.11328-0.026131 0.01657-0.047803 0.03183-0.070312 0.04883-0.02251 0.017-0.0423 0.0172-0.087891 0.08984-0.03457 0.05504-0.071437 0.14668-0.060547 0.24414 0.01089 0.09746 0.058499 0.17219 0.10742 0.23047 0.097846 0.11655 0.22966 0.21413 0.45117 0.37695 0.77381 0.56929 1.0063 0.75572 1.6289 1.3008 0.20715 0.18136 0.3608 0.3198 0.50195 0.42383 0.14115 0.10403 0.28695 0.18565 0.46094 0.1875 0.17399 0.0018 0.3215-0.07774 0.46094-0.17969 0.13943-0.10195 0.28836-0.2372 0.49023-0.41406 0.55562-0.48677 1.1797-0.9745 1.7949-1.4023 0.16146-0.1123 0.2755-0.19377 0.35547-0.33789 0.03998-0.07206 0.06514-0.17493 0.04492-0.26953s-0.07395-0.16423-0.125-0.21484c-0.05747-0.05698-0.08911-0.06953-0.14453-0.10352-0.05542-0.03399-0.12319-0.0749-0.20312-0.11914-0.15986-0.088486-0.36516-0.19634-0.58594-0.30859-0.44154-0.2245-0.94043-0.4636-1.2617-0.59766-0.34619-0.14444-0.56847-0.23552-0.82422-0.23438zm0.00586 0 0.048828 0.0059a0.25002 0.25002 0 0 0-0.048828-0.0059z" opacity=".15"/>
  <g id="Bevel1"></g>
  <g id="Bevel2"></g>
  <path id="base" transform="translate(16,16) scale(4)" d="m7.9996 2c-0.22177 0-0.59352 0.097305-1.7389 0.45447-0.26824 0.083648-0.53956 0.15157-0.60344 0.15148-0.0639-8.03e-5 -0.56938-0.087263-1.1225-0.19435-0.55311-0.10712-1.0395-0.19533-1.0818-0.19533-0.14983 0-1.839 2.242-2.2639 3.0049-0.17761 0.31891-0.23296 0.63632-0.15384 0.87704 0.0712 0.21681 0.2794 0.43392 1.5791 1.6475 0.59664 0.55711 1.0964 1.0431 1.1106 1.0804 0.062 0.16215 0.013 0.39968-0.1717 0.8322-0.24207 0.56683-0.27324 0.80329-0.15087 1.1531 0.1305 0.37298 0.32307 0.64752 0.64514 0.92189 0.32846 0.27982 0.52878 0.37645 0.71658 0.34583 0.22424-0.03655 1.6239-0.74561 1.855-0.93983 0.55029-0.46256 1.0908-1.0003 1.1106-1.1043 0.0116-0.060752-0.0103-0.16704-0.0487-0.2372-0.0383-0.070192-0.43819-0.44715-0.88927-0.83717-0.78512-0.67883-0.92699-0.83621-0.92699-1.0315 0-0.048201 0.13949-0.43215 0.31064-0.85311 0.24551-0.60388 0.31167-0.81164 0.31065-0.9827-2e-3 -0.27057-0.1021-0.46709-0.30965-0.60496-0.0883-0.058744-0.72335-0.32372-1.4113-0.58903-0.68797-0.26529-1.2985-0.50098-1.3557-0.52323-0.0617-0.023799-0.0877-0.05523-0.0646-0.077723 0.0216-0.020887 0.40068-0.071297 0.84263-0.11161 0.94778-0.08656 0.92709-0.090075 1.9701 0.28504 0.64699 0.23269 0.75434 0.28474 0.80889 0.39068 0.0346 0.06718 0.062 0.15746 0.0615 0.20032-4.8e-4 0.042878-0.13548 0.6627-0.29974 1.3774-0.28131 1.224-0.29437 1.303-0.22529 1.3734 0.0854 0.087062 0.93168 0.28945 1.3458 0.32191 0.36255 0.028418 1.5241-0.19559 1.6426-0.31693 0.0746-0.076418 0.0659-0.12659-0.22133-1.3784-0.16398-0.71466-0.29823-1.3345-0.29874-1.3774-4.7e-4 -0.042878 0.0271-0.13261 0.0615-0.19932 0.0545-0.10584 0.16874-0.15979 0.89522-0.42059l0.83171-0.29899 0.45358 0.01195c0.59875 0.015163 1.4232 0.10741 1.4352 0.16047 5e-3 0.023297-0.6019 0.2771-1.3498 0.56409-0.74789 0.28699-1.4228 0.56696-1.4997 0.62192-0.18953 0.13551-0.28431 0.33171-0.28584 0.593-7e-4 0.17293 0.0653 0.3818 0.3176 1.0056 0.42494 1.0505 0.47164 0.91391-0.64512 1.8817-0.4725 0.40943-0.87998 0.79567-0.90615 0.85909-0.0773 0.18728 0.0228 0.33483 0.56571 0.8292 0.64587 0.58808 0.77191 0.67208 1.6168 1.0804 0.38773 0.18737 0.75882 0.33938 0.82477 0.33786 0.18432-4e-3 0.30595-0.06648 0.61834-0.31992 0.33593-0.27256 0.55759-0.58826 0.68878-0.9787 0.12065-0.35904 0.0991-0.52356-0.15086-1.1182-0.18202-0.43298-0.23233-0.68032-0.16971-0.84417 0.0139-0.036652 0.48479-0.4945 1.0461-1.0176 1.6687-1.5551 1.729-1.6301 1.6654-2.073-0.0454-0.31651-0.10145-0.42348-0.66001-1.2548-0.47499-0.70693-1.5718-2.1503-1.7011-2.2385-0.0325-0.022192-0.476 0.04318-1.1037 0.16246-0.57693 0.10973-1.1036 0.20032-1.1711 0.20032s-0.34214-0.068786-0.61039-0.15248c-1.1453-0.35721-1.5171-0.45447-1.7389-0.45447zm-3e-3 9.3186c-0.19292 8.84e-4 -0.38846 0.07391-0.7424 0.22027-0.67299 0.27831-2.0808 0.99048-2.1378 1.0813-0.0713 0.11353-3e-3 0.19525 0.43373 0.51627 0.77559 0.5706 1.0219 0.7677 1.6466 1.3146 0.83318 0.72946 0.77063 0.72866 1.583 0.01697 0.56309-0.49331 1.194-0.98673 1.8173-1.4202 0.30253-0.21042 0.3632-0.3195 0.24316-0.43851-0.11625-0.11526-1.5013-0.8195-2.117-1.0764-0.34333-0.14325-0.5336-0.21514-0.7265-0.21428z" fill="url(#a)"/>
  <path id="path113" transform="translate(0,2)" d="m35.809 30.561c-0.7608-0.025936-1.6369 0.055707-3.0586 0.18555-1.7678 0.16125-3.2847 0.36372-3.3711 0.44726-0.0924 0.089972 0.011013 0.21535 0.25781 0.31055 0.049688 0.019328 0.93877 0.36275 1.1777 0.45508 0.56485-0.069914 1.1969-0.14552 1.9355-0.21289 3.7911-0.34624 3.7088-0.35984 7.8809 1.1406 2.588 0.93076 3.0162 1.1387 3.2344 1.5625 0.054029 0.1049 0.096394 0.22551 0.13672 0.3418 0.024393-0.12938 0.10908-0.51259 0.10938-0.53906 2e-3 -0.17144-0.10769-0.53401-0.24609-0.80273-0.2182-0.42376-0.64642-0.63174-3.2344-1.5625-2.6075-0.93779-3.5543-1.2829-4.8223-1.3262zm23.23 0.015625-3.3281 1.1953c-2.9059 1.0432-3.3621 1.2583-3.5801 1.6816-0.1376 0.26684-0.24799 0.62732-0.24609 0.79883 3.16e-4 0.026589 0.084919 0.41079 0.10938 0.54102 0.040321-0.11549 0.08306-0.23579 0.13672-0.33984 0.218-0.42336 0.67416-0.63844 3.5801-1.6816l3.3281-1.1953 1.8145 0.046875c1.4148 0.035828 3.0729 0.18078 4.2617 0.33594 0.91067-0.38259 1.4881-0.64861 1.4785-0.69336-0.048-0.21224-3.3452-0.58193-5.7402-0.64258l-1.8145-0.046875zm-38.994 7.4297c-0.057449 0.50016-0.039569 0.97516 0.095703 1.3867 0.2848 0.86724 1.1176 1.7355 6.3164 6.5898 2.3866 2.2284 4.3866 4.1731 4.4434 4.3223 0.020666 0.05405 0.01876 0.12508 0.033203 0.18359 0.092321-0.4935 0.084288-0.87632-0.033203-1.1836-0.0568-0.1492-2.0568-2.0938-4.4434-4.3223-5.1988-4.8543-6.0316-5.7226-6.3164-6.5898-0.040725-0.1239-0.072687-0.2533-0.095703-0.38672zm55.904 0.048829c-0.23597 1.1378-1.5696 2.4326-6.6719 7.1875-2.2452 2.0924-4.128 3.9237-4.1836 4.0703-0.11816 0.30916-0.12787 0.70245-0.037109 1.2031 0.015218-0.065134 0.014425-0.14377 0.037109-0.20312 0.0556-0.14661 1.9384-1.9779 4.1836-4.0703 6.5331-6.0884 6.8977-6.5114 6.6719-8.1875zm-21.848 0.83984c-0.021485 0.15883-0.047814 0.3133-0.048828 0.48633-0.0028 0.69172 0.26033 1.5282 1.2695 4.0234 0.52234 1.2913 0.89948 2.1325 1.0449 2.793 0.23663-0.84595-0.22504-1.7661-1.0449-3.793-0.78198-1.9334-1.111-2.8641-1.2207-3.5098zm-12.207 0.007813c-0.11254 0.63694-0.4423 1.555-1.1934 3.4023-0.6846 1.6838-1.2422 3.2193-1.2422 3.4121 0 0.19209 0.034363 0.37501 0.13281 0.58203 0.15459-0.5255 0.54954-1.6172 1.1094-2.9941 0.98204-2.4155 1.2463-3.2474 1.2422-3.9316-0.001242-0.16803-0.02853-0.31672-0.048828-0.4707zm0.054688 6.2695c-0.12916 0.76614-0.078541 0.9383 0.0625 1.082 0.3416 0.34825 3.7263 1.1592 5.3828 1.2891 1.4502 0.11367 6.0963-0.78417 6.5703-1.2695 0.15415-0.15791 0.20947-0.31867 0.078125-1.0977-0.022716 0.034329-0.0476 0.066388-0.078125 0.097657-0.474 0.48536-5.1201 1.3832-6.5703 1.2695-1.6565-0.12984-5.0412-0.94082-5.3828-1.2891-0.024578-0.025048-0.043645-0.05324-0.0625-0.082031zm7.2207 9.1328c-0.00828 0.013258-0.048767 0.052885-0.052734 0.0625-0.3092 0.74912 0.092031 1.3389 2.2637 3.3164 2.5835 2.3523 3.0872 2.689 6.4668 4.3223 1.5509 0.74948 3.035 1.3576 3.2988 1.3516 0.73728-0.016 1.2231-0.26749 2.4727-1.2812 1.3437-1.0902 2.2311-2.3523 2.7559-3.9141 0.24827-0.73881 0.34192-1.2743 0.24219-1.9414-0.045223 0.29232-0.12519 0.59323-0.24219 0.94141-0.52476 1.5618-1.4121 2.8238-2.7559 3.9141-1.2496 1.0138-1.7354 1.2652-2.4727 1.2812-0.2638 0.00608-1.7479-0.60208-3.2988-1.3516-3.3796-1.6333-3.8833-1.9699-6.4668-4.3223-1.2935-1.1779-1.9499-1.8587-2.2109-2.3789zm-2.3789 0.074218c-0.50181 0.71895-2.3925 2.5622-4.3145 4.1777-0.9244 0.77688-6.523 3.6136-7.4199 3.7598-0.7512 0.12248-1.5533-0.26353-2.8672-1.3828-1.2883-1.0975-2.0581-2.1956-2.5801-3.6875-0.12014-0.34343-0.20139-0.65956-0.24414-0.97461-0.089705 0.69215 1.09e-4 1.277 0.24414 1.9746 0.522 1.4919 1.2918 2.59 2.5801 3.6875 1.3138 1.1193 2.116 1.5053 2.8672 1.3828 0.89696-0.1462 6.4955-2.9829 7.4199-3.7598 2.2012-1.8502 4.3622-4 4.4414-4.416 0.037485-0.19632-0.025381-0.49988-0.12695-0.76172zm-10.104 10.932c-0.095362 0.065993-0.20291 0.13846-0.22266 0.16992-0.2852 0.45412-0.010592 0.78037 1.7363 2.0645 3.1024 2.2824 4.0871 3.0722 6.5859 5.2598 3.3327 2.9178 3.0826 2.9132 6.332 0.066406 2.2524-1.9732 4.7763-3.9458 7.2695-5.6797 1.2101-0.84168 1.4528-1.2779 0.97266-1.7539-0.007109-0.007049-0.039375-0.025068-0.048828-0.033203-0.19464 0.22496-0.47041 0.47174-0.92383 0.78711-2.4932 1.7339-5.0172 3.7064-7.2695 5.6797-3.2495 2.8468-2.9993 2.8514-6.332-0.066406-2.4988-2.1876-3.4836-2.9774-6.5859-5.2598-0.78566-0.5775-1.2409-0.94544-1.5137-1.2344z" opacity=".3" stroke-width="4"/>
  <path id="path118" transform="translate(0,2)" d="m47.998 22c-0.88708 0-2.3736 0.3897-6.9551 1.8184-1.073 0.33459-2.1585 0.60583-2.4141 0.60547-0.2556-3.21e-4 -2.2778-0.349-4.4902-0.77734-2.2124-0.42848-4.157-0.78125-4.3262-0.78125-0.59932 0-7.357 8.9679-9.0566 12.02-0.61902 1.1115-0.86678 2.2177-0.71094 3.1211 0.076957-0.67001 0.30416-1.3907 0.71094-2.1211 1.6996-3.0516 8.4573-12.02 9.0566-12.02 0.1692 0 2.1137 0.35277 4.3262 0.78125 2.2125 0.42835 4.2346 0.77702 4.4902 0.77734 0.25552 3.6e-4 1.3411-0.27088 2.4141-0.60547 4.5815-1.4287 6.068-1.8184 6.9551-1.8184 0.8872 0 2.3739 0.38952 6.9551 1.8184 1.073 0.33478 2.1714 0.60938 2.4414 0.60938s2.3778-0.36186 4.6855-0.80078c2.5108-0.47712 4.2841-0.73916 4.4141-0.65039 0.5172 0.3528 4.9047 6.1274 6.8047 8.9551 2.2342 3.3253 2.459 3.7535 2.6406 5.0195 0.005399 0.037599 0.00487 0.067171 0.009766 0.10352 0.072727-0.35068 0.050169-0.68614-0.009766-1.1035-0.1816-1.266-0.40638-1.6943-2.6406-5.0195-1.9-2.8277-6.2875-8.6023-6.8047-8.9551-0.13-0.08877-1.9033 0.17327-4.4141 0.65039-2.3077 0.43892-4.4155 0.80078-4.6855 0.80078s-1.3684-0.2746-2.4414-0.60938c-4.5812-1.4288-6.0679-1.8184-6.9551-1.8184zm-17.184 9.959c-0.78709 0.097422-1.3852 0.18573-1.4355 0.23438-0.0924 0.089972 0.011013 0.21535 0.25781 0.31055 0.2288 0.089 2.6719 1.0326 5.4238 2.0938 2.7518 1.0612 5.2913 2.1205 5.6445 2.3555 0.70131 0.46586 1.079 1.1114 1.1895 1.9492 0.034612-0.19589 0.049788-0.36836 0.048828-0.5293-8e-3 -1.0823-0.40808-1.8684-1.2383-2.4199-0.3532-0.23498-2.8927-1.2942-5.6445-2.3555-2.1543-0.83071-3.3847-1.3059-4.2461-1.6387zm34.301 0c-0.98571 0.41412-2.3669 0.96581-3.9219 1.5625-2.9916 1.148-5.6904 2.2684-5.998 2.4883-0.75812 0.54204-1.1365 1.3259-1.1426 2.3711-6.3e-4 0.15574 0.016948 0.32605 0.048828 0.51367 0.1083-0.80061 0.46114-1.4325 1.0938-1.8848 0.3076-0.21984 3.0065-1.3403 5.998-2.4883 2.9916-1.148 5.4204-2.1627 5.4004-2.2559-0.019645-0.086862-0.65487-0.19915-1.4785-0.30664zm-21.113 2.832c-0.13362 0.70871-0.53424 2.5532-1.0898 4.9707-1.0252 4.4605-1.156 5.1153-0.96289 5.4102 0.12388-0.73485 0.412-2.0132 0.96289-4.4102 0.65704-2.8588 1.1973-5.3383 1.1992-5.5098 0.001219-0.10451-0.046404-0.27935-0.10938-0.46094zm7.9922 0.001953c-0.063077 0.18067-0.11053 0.35436-0.10938 0.45898 0.00204 0.1716 0.53939 2.6511 1.1953 5.5098 0.5554 2.4205 0.83998 3.6851 0.96289 4.4141 0.19934-0.30126 0.0685-0.91904-0.96289-5.4141-0.55429-2.4157-0.95256-4.2585-1.0859-4.9688zm4.373 11.404c-0.25395 0.90785-1.3127 1.7285-3.625 3.7324-1.89 1.6377-3.5203 3.1838-3.625 3.4375-0.12503 0.30291-0.12447 0.58434 0.052734 0.9375 0.2102-0.33658 1.7539-1.7994 3.5723-3.375 3.0943-2.6815 3.9528-3.2437 3.625-4.7324zm-16.775 0.10156c-0.034451 0.11711-0.13281 0.38283-0.13281 0.41797 0 0.78116 0.56655 1.4097 3.707 4.125 1.8043 1.5601 3.4054 3.0688 3.5586 3.3496 0.029512 0.05392 0.04225 0.12523 0.066407 0.1875 0.072899-0.10444 0.11691-0.18551 0.12695-0.23828 0.0464-0.24301-0.03976-0.66858-0.19336-0.94922-0.1532-0.28077-1.7543-1.7895-3.5586-3.3496-2.3682-2.0476-3.2723-2.9081-3.5742-3.543zm-8.6582 4.1895c-0.10255 0.54818-0.33191 1.2341-0.7207 2.1445-0.73063 1.7108-0.97909 2.6701-0.84766 3.6387 0.090227-0.69616 0.36212-1.5017 0.84766-2.6387 0.67723-1.5859 0.87957-2.5009 0.7207-3.1445zm34.123 0.027344c-0.15283 0.6541 0.052699 1.5988 0.71484 3.1738 0.48549 1.1549 0.75156 1.9015 0.8457 2.5312 0.14131-0.91342-0.088263-1.7293-0.8457-3.5312-0.38463-0.91494-0.6132-1.6131-0.71484-2.1738zm-17.07 8.7578c-0.77168 0.0035-1.553 0.29737-2.9688 0.88281-2.692 1.1132-8.3247 3.9609-8.5527 4.3242-0.15694 0.24988-0.11107 0.47656 0.22266 0.83008 1.0059-0.69609 5.8712-3.1375 8.3301-4.1543 1.4158-0.58544 2.1971-0.87931 2.9688-0.88281v0.001953c0.7716-0.00344 1.5329 0.28247 2.9062 0.85547 2.4251 1.0119 7.8111 3.7495 8.4199 4.2734 0.32484-0.37543 0.34908-0.66912 0.048828-0.9668-0.465-0.46104-6.006-3.279-8.4688-4.3066-1.3733-0.573-2.1346-0.85891-2.9062-0.85547v-0.001953z" fill="#fff" stroke-width="4"/>
 </g>
</svg>
