<?xml version="1.0" encoding="UTF-8"?>
<!-- Created with Inkscape (http://www.inkscape.org/) -->
<svg id="svg2408" width="96" height="96" version="1.0" xmlns="http://www.w3.org/2000/svg" xmlns:cc="http://creativecommons.org/ns#" xmlns:dc="http://purl.org/dc/elements/1.1/" xmlns:rdf="http://www.w3.org/1999/02/22-rdf-syntax-ns#" xmlns:xlink="http://www.w3.org/1999/xlink">
 <defs id="defs2410">
  <linearGradient id="linearGradient3853">
   <stop id="stop3855" stop-color="#e88d01" stop-opacity=".18431" offset="0"/>
   <stop id="stop3863" stop-color="#e58907" stop-opacity=".41085" offset=".5"/>
   <stop id="stop4397" stop-color="#e48a0a" stop-opacity=".68217" offset=".75"/>
   <stop id="stop3859" stop-color="#e4870a" offset="1"/>
  </linearGradient>
  <linearGradient id="linearGradient3698">
   <stop id="stop3700" stop-color="#f0a801" stop-opacity=".18605" offset="0"/>
   <stop id="stop3711" stop-color="#f0a801" stop-opacity=".35659" offset=".5"/>
   <stop id="stop4395" stop-color="#e8a301" stop-opacity=".83721" offset=".75"/>
   <stop id="stop3703" stop-color="#e09201" offset="1"/>
  </linearGradient>
  <linearGradient id="ButtonShadow" x1="45.448" x2="45.448" y1="92.54" y2="7.0165" gradientTransform="scale(1.0059 .99417)" gradientUnits="userSpaceOnUse">
   <stop id="stop3750" offset="0"/>
   <stop id="stop3752" stop-opacity=".58824" offset="1"/>
  </linearGradient>
  <linearGradient id="linearGradient3737">
   <stop id="stop3739" stop-color="#fff" offset="0"/>
   <stop id="stop3741" stop-color="#fff" stop-opacity="0" offset="1"/>
  </linearGradient>
  <filter id="filter3174" color-interpolation-filters="sRGB">
   <feGaussianBlur id="feGaussianBlur3176" stdDeviation="1.71"/>
  </filter>
  <linearGradient id="linearGradient3188" x1="36.357" x2="36.357" y1="6" y2="63.893" gradientUnits="userSpaceOnUse" xlink:href="#linearGradient3737"/>
  <filter id="filter3794" x="-.192" y="-.192" width="1.384" height="1.384" color-interpolation-filters="sRGB">
   <feGaussianBlur id="feGaussianBlur3796" stdDeviation="5.28"/>
  </filter>
  <linearGradient id="linearGradient3613" x1="48" x2="48" y1="20.221" y2="138.66" gradientUnits="userSpaceOnUse" xlink:href="#linearGradient3737"/>
  <radialGradient id="radialGradient3619" cx="48" cy="90.172" r="42" gradientTransform="matrix(1.1573 0 0 .99591 -7.551 .19713)" gradientUnits="userSpaceOnUse" xlink:href="#linearGradient3737"/>
  <clipPath id="clipPath3613">
   <rect id="rect3615" x="6" y="6" width="84" height="84" rx="6" ry="6" fill="#fff"/>
  </clipPath>
  <linearGradient id="linearGradient3617" x1="48" x2="48" y1="90" y2="5.9877" gradientUnits="userSpaceOnUse">
   <stop id="stop2843" stop-color="#f0bf39" offset="0"/>
   <stop id="stop2845" stop-color="#f8e699" offset="1"/>
  </linearGradient>
  <radialGradient id="radialGradient4045" cx="43.393" cy="30.464" r="4.1071" gradientUnits="userSpaceOnUse" xlink:href="#linearGradient3853"/>
  <radialGradient id="radialGradient4047" cx="53.542" cy="24.64" r="2.1429" gradientUnits="userSpaceOnUse" xlink:href="#linearGradient3698"/>
  <radialGradient id="radialGradient4049" cx="62.679" cy="37.607" r="5.3571" gradientUnits="userSpaceOnUse" xlink:href="#linearGradient3698"/>
  <radialGradient id="radialGradient4051" cx="30.529" cy="62.283" r="6.6071" gradientUnits="userSpaceOnUse" xlink:href="#linearGradient3698"/>
  <radialGradient id="radialGradient4053" cx="65.731" cy="71.637" r="8.2143" gradientUnits="userSpaceOnUse" xlink:href="#linearGradient3853"/>
  <radialGradient id="radialGradient4055" cx="48.796" cy="56.426" r="3.3929" gradientUnits="userSpaceOnUse" xlink:href="#linearGradient3698"/>
  <radialGradient id="radialGradient4059" cx="33.899" cy="87.036" r="4.1071" gradientUnits="userSpaceOnUse" xlink:href="#linearGradient3698"/>
  <radialGradient id="radialGradient4061" cx="50.864" cy="86.754" r="5.3571" gradientUnits="userSpaceOnUse" xlink:href="#linearGradient3698"/>
  <radialGradient id="radialGradient4063" cx="73.393" cy="13.679" r="3.5714" gradientUnits="userSpaceOnUse" xlink:href="#linearGradient3853"/>
  <radialGradient id="radialGradient4065" cx="80.714" cy="25.643" r="9.2857" gradientUnits="userSpaceOnUse" xlink:href="#linearGradient3698"/>
  <radialGradient id="radialGradient4073" cx="34.688" cy="5.0426" r="6.0714" gradientUnits="userSpaceOnUse" xlink:href="#linearGradient3698"/>
  <radialGradient id="radialGradient4077" cx="60.239" cy="7.8687" r="2.7679" gradientUnits="userSpaceOnUse" xlink:href="#linearGradient3698"/>
  <radialGradient id="radialGradient4102" cx="82.598" cy="69.737" r="4.8214" gradientUnits="userSpaceOnUse" xlink:href="#linearGradient3698"/>
  <radialGradient id="radialGradient4105" cx="78.237" cy="79.565" r="2.1429" gradientUnits="userSpaceOnUse" xlink:href="#linearGradient3853"/>
  <radialGradient id="radialGradient4119" cx="3.023" cy="17.705" r="7.1429" gradientTransform="matrix(1 0 0 .975 0 .37768)" gradientUnits="userSpaceOnUse" xlink:href="#linearGradient3698"/>
  <radialGradient id="radialGradient4121" cx="12.649" cy="34.283" r="3.2143" gradientUnits="userSpaceOnUse" xlink:href="#linearGradient3698"/>
  <radialGradient id="radialGradient4125" cx="12.211" cy="77.455" r="7.8571" gradientUnits="userSpaceOnUse" xlink:href="#linearGradient3853"/>
  <clipPath id="clipPath4165">
   <rect id="rect4167" x="6" y="6" width="84" height="84" rx="6" ry="6" fill="#ff2a2a"/>
  </clipPath>
  <radialGradient id="radialGradient4393" cx="24.821" cy="26.357" r="8.0357" gradientUnits="userSpaceOnUse" xlink:href="#linearGradient3853"/>
  <linearGradient id="ButtonShadow-0" x1="45.448" x2="45.448" y1="92.54" y2="7.0165" gradientTransform="matrix(1.0059 0 0 .99417 100 0)" gradientUnits="userSpaceOnUse">
   <stop id="stop3750-8" offset="0"/>
   <stop id="stop3752-5" stop-opacity=".58824" offset="1"/>
  </linearGradient>
  <linearGradient id="linearGradient3780" x1="32.251" x2="32.251" y1="6.1317" y2="90.239" gradientTransform="matrix(1.0238 0 0 1.0119 -1.1429 -98.071)" gradientUnits="userSpaceOnUse" xlink:href="#ButtonShadow-0"/>
  <linearGradient id="linearGradient3721" x1="32.251" x2="32.251" y1="6.1317" y2="90.239" gradientTransform="translate(0,-97)" gradientUnits="userSpaceOnUse" xlink:href="#ButtonShadow-0"/>
 </defs>
 <metadata id="metadata2413">
  <rdf:RDF>
   <cc:Work rdf:about="">
    <dc:format>image/svg+xml</dc:format>
    <dc:type rdf:resource="http://purl.org/dc/dcmitype/StillImage"/>
   </cc:Work>
  </rdf:RDF>
 </metadata>
 <g id="layer2" display="none">
  <rect id="rect3745" x="5" y="7" width="86" height="85" rx="6" ry="6" fill="url(#ButtonShadow)" filter="url(#filter3174)" opacity=".9"/>
 </g>
 <g id="layer4">
  <path id="path3786" transform="scale(1,-1)" d="m12-95.031c-5.5111 0-10.031 4.5202-10.031 10.031v71c0 5.5111 4.5202 10.031 10.031 10.031h72c5.5111 0 10.031-4.5202 10.031-10.031v-71c0-5.5111-4.5202-10.031-10.031-10.031h-72z" fill="url(#linearGradient3780)" opacity=".08"/>
  <path id="path3778" transform="scale(1,-1)" d="m12-94.031c-4.9716 0-9.0312 4.0596-9.0312 9.0312v71c0 4.9716 4.0596 9.0312 9.0312 9.0312h72c4.9716 0 9.0312-4.0596 9.0312-9.0312v-71c0-4.9716-4.0596-9.0312-9.0312-9.0312h-72z" fill="url(#linearGradient3780)" opacity=".1"/>
  <path id="path3770" transform="scale(1,-1)" d="m12-93c-4.4091 0-8 3.5909-8 8v71c0 4.4091 3.5909 8 8 8h72c4.4091 0 8-3.5909 8-8v-71c0-4.4091-3.5909-8-8-8h-72z" fill="url(#linearGradient3780)" opacity=".2"/>
  <rect id="rect3723" transform="scale(1,-1)" x="5" y="-92" width="86" height="85" rx="7" ry="7" fill="url(#linearGradient3780)" opacity=".3"/>
  <rect id="rect3716" transform="scale(1,-1)" x="6" y="-91" width="84" height="84" rx="6" ry="6" fill="url(#linearGradient3721)" opacity=".45"/>
 </g>
 <g id="layer1">
  <rect id="rect2419" x="6" y="6" width="84" height="84" rx="6" ry="6" fill="url(#linearGradient3617)"/>
  <path id="rect3728" d="m12 6c-3.324 0-6 2.676-6 6v2 68 2c0 0.33472 0.04135 0.6507 0.09375 0.96875 0.0487 0.2956 0.09704 0.59692 0.1875 0.875 0.00988 0.03038 0.020892 0.0636 0.03125 0.09375 0.098865 0.28777 0.23488 0.54745 0.375 0.8125 0.14459 0.27351 0.31562 0.53562 0.5 0.78125s0.37378 0.47347 0.59375 0.6875c0.43995 0.42806 0.94291 0.81453 1.5 1.0938 0.27854 0.13961 0.57347 0.24695 0.875 0.34375-0.2562-0.10022-0.48671-0.23627-0.71875-0.375-0.00741-0.0044-0.023866 0.0045-0.03125 0-0.031933-0.0193-0.062293-0.04251-0.09375-0.0625-0.1204-0.0767-0.23102-0.16351-0.34375-0.25-0.10617-0.0808-0.21328-0.16111-0.3125-0.25-0.17793-0.16143-0.34746-0.34539-0.5-0.53125-0.10758-0.13026-0.21839-0.26528-0.3125-0.40625-0.025089-0.03838-0.038446-0.08587-0.0625-0.125-0.064763-0.10303-0.13023-0.20452-0.1875-0.3125-0.10101-0.19471-0.20567-0.4157-0.28125-0.625-0.00796-0.02181-0.023589-0.04055-0.03125-0.0625-0.031825-0.09195-0.035804-0.18683-0.0625-0.28125-0.030332-0.10662-0.070389-0.20303-0.09375-0.3125-0.072879-0.34151-0.125-0.6982-0.125-1.0625v-2-68-2c0-2.7818 2.2182-5 5-5h2 68 2c2.7818 0 5 2.2182 5 5v2 68 2c0 0.3643-0.05212 0.72099-0.125 1.0625-0.04415 0.20689-0.08838 0.39766-0.15625 0.59375-0.0077 0.02195-0.0233 0.04069-0.03125 0.0625-0.06274 0.17374-0.13838 0.36745-0.21875 0.53125-0.04158 0.0828-0.07904 0.16995-0.125 0.25-0.0546 0.09721-0.12677 0.18835-0.1875 0.28125-0.09411 0.14096-0.20492 0.276-0.3125 0.40625-0.14317 0.17445-0.30314 0.347-0.46875 0.5-0.01117 0.0102-0.01998 0.02115-0.03125 0.03125-0.13839 0.12556-0.28509 0.23444-0.4375 0.34375-0.10257 0.07315-0.20432 0.15336-0.3125 0.21875-0.0074 0.0045-0.02384-0.0044-0.03125 0-0.23204 0.13873-0.46255 0.27478-0.71875 0.375 0.30153-0.0968 0.59646-0.20414 0.875-0.34375 0.55709-0.27922 1.0601-0.66569 1.5-1.0938 0.21997-0.21403 0.40937-0.44186 0.59375-0.6875s0.35541-0.50774 0.5-0.78125c0.14012-0.26505 0.27614-0.52473 0.375-0.8125 0.01041-0.03078 0.02133-0.06274 0.03125-0.09375 0.09046-0.27808 0.1388-0.5794 0.1875-0.875 0.0524-0.31805 0.09375-0.63403 0.09375-0.96875v-2-68-2c0-3.324-2.676-6-6-6h-72z" fill="url(#linearGradient3188)" opacity=".5"/>
  <path id="path3615" d="m12 90c-3.324 0-6-2.676-6-6v-2-68-2c0-0.33472 0.04135-0.6507 0.09375-0.96875 0.0487-0.2956 0.09704-0.59692 0.1875-0.875 0.00988-0.03038 0.020892-0.0636 0.03125-0.09375 0.098865-0.28777 0.23488-0.54745 0.375-0.8125 0.14459-0.27351 0.31562-0.53562 0.5-0.78125s0.37378-0.47347 0.59375-0.6875c0.43995-0.42806 0.94291-0.81453 1.5-1.0938 0.27854-0.13961 0.57347-0.24695 0.875-0.34375-0.2562 0.10022-0.48671 0.23627-0.71875 0.375-0.00741 0.0044-0.023866-0.0045-0.03125 0-0.031933 0.0193-0.062293 0.04251-0.09375 0.0625-0.1204 0.0767-0.23102 0.16351-0.34375 0.25-0.10617 0.0808-0.21328 0.16111-0.3125 0.25-0.17793 0.16143-0.34746 0.34539-0.5 0.53125-0.10758 0.13026-0.21839 0.26528-0.3125 0.40625-0.025089 0.03838-0.038446 0.08587-0.0625 0.125-0.064763 0.10303-0.13023 0.20452-0.1875 0.3125-0.10101 0.19471-0.20567 0.4157-0.28125 0.625-0.00796 0.02181-0.023589 0.04055-0.03125 0.0625-0.031825 0.09195-0.035804 0.18683-0.0625 0.28125-0.030332 0.10662-0.070389 0.20303-0.09375 0.3125-0.072879 0.34151-0.125 0.6982-0.125 1.0625v2 68 2c0 2.7818 2.2182 5 5 5h2 68 2c2.7818 0 5-2.2182 5-5v-2-68-2c0-0.3643-0.05212-0.72099-0.125-1.0625-0.04415-0.20689-0.08838-0.39766-0.15625-0.59375-0.0077-0.02195-0.0233-0.04069-0.03125-0.0625-0.06274-0.17374-0.13838-0.36745-0.21875-0.53125-0.04158-0.0828-0.07904-0.16995-0.125-0.25-0.0546-0.09721-0.12677-0.18835-0.1875-0.28125-0.09411-0.14096-0.20492-0.276-0.3125-0.40625-0.14317-0.17445-0.30314-0.347-0.46875-0.5-0.01117-0.0102-0.01998-0.02115-0.03125-0.03125-0.13839-0.12556-0.28509-0.23444-0.4375-0.34375-0.10257-0.07315-0.20432-0.15336-0.3125-0.21875-0.0074-0.0045-0.02384 0.0044-0.03125 0-0.23204-0.13873-0.46255-0.27478-0.71875-0.375 0.30153 0.0968 0.59646 0.20414 0.875 0.34375 0.55709 0.27922 1.0601 0.66569 1.5 1.0938 0.21997 0.21403 0.40937 0.44186 0.59375 0.6875s0.35541 0.50774 0.5 0.78125c0.14012 0.26505 0.27614 0.52473 0.375 0.8125 0.01041 0.03078 0.02133 0.06274 0.03125 0.09375 0.09046 0.27808 0.1388 0.5794 0.1875 0.875 0.0524 0.31805 0.09375 0.63403 0.09375 0.96875v2 68 2c0 3.324-2.676 6-6 6h-72z" fill="url(#radialGradient3619)" opacity=".2"/>
 </g>
 <g id="layer3">
  <g id="g4127" clip-path="url(#clipPath4165)">
   <path id="path3620" transform="translate(2)" d="m31.25 22.607a8.0357 8.0357 0 1 1-16.071 0 8.0357 8.0357 0 1 1 16.071 0z" fill="url(#radialGradient4393)"/>
   <path id="path3622" d="m46.786 28.679a4.1071 4.1071 0 1 1-8.2143 0 4.1071 4.1071 0 1 1 8.2143 0z" fill="url(#radialGradient4045)"/>
   <path id="path3624" d="m55.179 23.5a2.1429 2.1429 0 1 1-4.2857 0 2.1429 2.1429 0 1 1 4.2857 0z" fill="url(#radialGradient4047)"/>
   <path id="path3626" d="m67.321 35.821a5.3571 5.3571 0 1 1-10.714 0 5.3571 5.3571 0 1 1 10.714 0z" fill="url(#radialGradient4049)"/>
   <path id="path3628" d="m36.25 59.75a6.6071 6.6071 0 1 1-13.214 0 6.6071 6.6071 0 1 1 13.214 0z" fill="url(#radialGradient4051)"/>
   <path id="path3630" transform="matrix(1.1739 0 0 1.1739 -12.64 -13.248)" d="m72.679 67.964a8.2143 8.2143 0 1 1-16.429 0 8.2143 8.2143 0 1 1 16.429 0z" fill="url(#radialGradient4053)"/>
   <path id="path3632" d="m51.429 55.286a3.3929 3.3929 0 1 1-6.7857 0 3.3929 3.3929 0 1 1 6.7857 0z" fill="url(#radialGradient4055)"/>
   <path id="path3634" transform="translate(-1)" d="m18.929 74.036a7.8571 7.8571 0 1 1-15.714 0 7.8571 7.8571 0 1 1 15.714 0z" fill="url(#radialGradient4125)"/>
   <path id="path3636" transform="translate(-1.4286 -2.1429)" d="m37.5 85.643a4.1071 4.1071 0 1 1-8.2143 0 4.1071 4.1071 0 1 1 8.2143 0z" fill="url(#radialGradient4059)"/>
   <path id="path3638" transform="translate(1.4286 3.0357)" d="m55.714 85.107a5.3571 5.3571 0 1 1-10.714 0 5.3571 5.3571 0 1 1 10.714 0z" fill="url(#radialGradient4061)"/>
   <path id="path3640" d="m76.429 12.786a3.5714 3.5714 0 1 1-7.1429 0 3.5714 3.5714 0 1 1 7.1429 0z" fill="url(#radialGradient4063)"/>
   <path id="path3642" transform="translate(3.5714 6.6071)" d="m88.929 22.071a9.2857 9.2857 0 1 1-18.571 0 9.2857 9.2857 0 1 1 18.571 0z" fill="url(#radialGradient4065)"/>
   <rect id="rect3644" x="75.714" y="76.536" width="4.2857" height="4.2857" rx="6" ry="4.2857" fill="url(#radialGradient4105)"/>
   <rect id="rect3646" x="77.143" y="63.143" width="9.6429" height="9.6429" rx="6" ry="4.2857" fill="url(#radialGradient4102)"/>
   <path id="path3648" transform="translate(2)" d="m15.357 33.143a3.2143 3.2143 0 1 1-6.4286 0 3.2143 3.2143 0 1 1 6.4286 0z" fill="url(#radialGradient4121)"/>
   <path id="path3650" d="m40 3.1429a6.0714 6.0714 0 1 1-12.143 0 6.0714 6.0714 0 1 1 12.143 0z" fill="url(#radialGradient4073)"/>
   <path id="path3652" transform="translate(2 3.3929)" d="m8.3929 15.107a7.1429 6.9643 0 1 1-14.286 0 7.1429 6.9643 0 1 1 14.286 0z" fill="url(#radialGradient4119)"/>
   <path id="path3656" transform="translate(5 -.71429)" d="m62.5 6.9821a2.7679 2.7679 0 1 1-5.5357 0 2.7679 2.7679 0 1 1 5.5357 0z" fill="url(#radialGradient4077)"/>
   <path id="path3989" d="m27.875 3.7812c-0.0076 0.12411-0.03125 0.24905-0.03125 0.375 0 3.3532 2.7406 6.0625 6.0938 6.0625s6.0625-2.7093 6.0625-6.0625c0-0.12595-0.02371-0.25089-0.03125-0.375-0.30994 3.0606-2.8877 5.4375-6.0312 5.4375s-5.7491-2.3769-6.0625-5.4375z" fill="#fff" opacity=".5"/>
   <path id="path3987" d="m62.031 6.8438c-0.0224 0.14297-0.0625 0.28836-0.0625 0.4375 0 1.5286 1.2214 2.75 2.75 2.75s2.7812-1.2214 2.7812-2.75c0-0.14914-0.03956-0.29453-0.0625-0.4375-0.26066 1.2578-1.3812 2.1875-2.7188 2.1875s-2.4328-0.92965-2.6875-2.1875z" fill="#fff" opacity=".5"/>
   <path id="path3985" d="m69.312 13.281c-0.02316 0.16461-0.03125 0.32884-0.03125 0.5 0 1.9724 1.5901 3.5625 3.5625 3.5625s3.5938-1.5901 3.5938-3.5625c0-0.17116-0.0077-0.33539-0.03125-0.5-0.24822 1.7324-1.7612 3.0625-3.5625 3.0625s-3.2876-1.3301-3.5312-3.0625z" fill="#fff" opacity=".5"/>
   <path id="path3983" d="m-3.875 19c-0.011957 0.16443-0.03125 0.33263-0.03125 0.5 0 3.8463 3.2114 6.9688 7.1562 6.9688s7.1562-3.1225 7.1562-6.9688c0-0.16737-0.01929-0.33557-0.03125-0.5-0.26283 3.6143-3.3518 6.4688-7.125 6.4688s-6.8622-2.8544-7.125-6.4688z" fill="#fff" opacity=".5"/>
   <path id="path3981" d="m17.219 23.094c-0.01049 0.16819-0.03125 0.32915-0.03125 0.5 0 4.438 3.5932 8.0625 8.0312 8.0625s8.0312-3.6245 8.0312-8.0625c0-0.17085-0.02076-0.33181-0.03125-0.5-0.26209 4.2029-3.7328 7.5625-8 7.5625s-7.7379-3.3596-8-7.5625z" fill="#fff" opacity=".5"/>
   <path id="path3979" d="m50.969 24c-0.03759 0.16069-0.0625 0.32808-0.0625 0.5 0 1.1835 0.94153 2.1562 2.125 2.1562s2.1562-0.97278 2.1562-2.1562c0-0.17192-0.02378-0.33931-0.0625-0.5-0.22783 0.94548-1.0822 1.6562-2.0938 1.6562s-1.8413-0.71077-2.0625-1.6562z" fill="#fff" opacity=".5"/>
   <path id="path3977" d="m38.625 29.188c-0.01985 0.16316-0.0625 0.33172-0.0625 0.5 0 2.2683 1.8567 4.0938 4.125 4.0938s4.0938-1.8254 4.0938-4.0938c0-0.16828-0.04297-0.33684-0.0625-0.5-0.25193 2.0231-1.9376 3.5938-4.0312 3.5938s-3.8065-1.5706-4.0625-3.5938z" fill="#fff" opacity=".5"/>
   <path id="path3975" d="m73.969 29.188c-0.0091 0.16861-0.03125 0.3291-0.03125 0.5 0 5.1284 4.1529 9.2812 9.2812 9.2812s9.2812-4.1529 9.2812-9.2812c0-0.1709-0.02214-0.33139-0.03125-0.5-0.26415 4.8912-4.2925 8.7812-9.25 8.7812s-8.9859-3.89-9.25-8.7812z" fill="#fff" opacity=".5"/>
   <path id="path3973" d="m11 33.656c-0.02537 0.16252-0.0625 0.33046-0.0625 0.5 0 1.7752 1.4435 3.1875 3.2188 3.1875s3.1875-1.4123 3.1875-3.1875c0-0.16954-0.03765-0.33748-0.0625-0.5-0.23534 1.5343-1.5193 2.6875-3.125 2.6875s-2.916-1.1532-3.1562-2.6875z" fill="#fff" opacity=".5"/>
   <path id="path3971" d="m56.625 36.375c-0.01122 0.14103-0.03125 0.29355-0.03125 0.4375 0 2.9587 2.4163 5.375 5.375 5.375s5.3438-2.4163 5.3438-5.375c0-0.14395-0.02017-0.29647-0.03125-0.4375-0.27287 2.7033-2.5387 4.8125-5.3125 4.8125s-5.0674-2.1092-5.3438-4.8125z" fill="#fff" opacity=".5"/>
   <path id="path3969" d="m44.688 55.781c-0.02385 0.16294-0.03125 0.33009-0.03125 0.5 0 1.8738 1.5012 3.4062 3.375 3.4062s3.4062-1.5324 3.4062-3.4062c0-0.16991-0.0069-0.33706-0.03125-0.5-0.2438 1.6387-1.6711 2.9062-3.375 2.9062s-3.1046-1.2675-3.3438-2.9062z" fill="#fff" opacity=".5"/>
   <path id="path3967" d="m23.062 60.25c-0.0121 0.16287-0.03125 0.33401-0.03125 0.5 0 3.649 2.976 6.5938 6.625 6.5938s6.5938-2.9447 6.5938-6.5938c0-0.16599-0.01927-0.33713-0.03125-0.5-0.2513 3.4174-3.0795 6.0938-6.5625 6.0938s-6.3399-2.6763-6.5938-6.0938z" fill="#fff" opacity=".5"/>
   <path id="path3963" d="m77.156 68.5v1c0 2.3743 2.1414 4.2812 4.8125 4.2812s4.8125-1.907 4.8125-4.2812v-1c0 2.3743-2.1414 4.2812-4.8125 4.2812s-4.8125-1.907-4.8125-4.2812z" fill="#fff" opacity=".5"/>
   <path id="path3961" d="m2.25 74.531c-0.010235 0.16443-0.03125 0.33295-0.03125 0.5 0 4.3394 3.5044 7.875 7.8438 7.875 4.3394 0 7.875-3.5356 7.875-7.875 0-0.16705-0.02093-0.33557-0.03125-0.5-0.25785 4.1089-3.6714 7.375-7.8438 7.375-4.1723 0-7.5569-3.2661-7.8125-7.375z" fill="#fff" opacity=".5"/>
   <path id="path3959" d="m75.781 79.188c-0.03747 0.16095-0.0625 0.32754-0.0625 0.5 0 1.1871 0.93786 2.125 2.125 2.125s2.1562-0.93786 2.1562-2.125c0-0.17246-0.0239-0.33905-0.0625-0.5-0.22711 0.94036-1.0791 1.625-2.0938 1.625s-1.842-0.68464-2.0625-1.625z" fill="#fff" opacity=".5"/>
   <path id="path3957" d="m27.906 84c-0.02136 0.16879-0.0625 0.32532-0.0625 0.5 0 2.2683 1.8567 4.0938 4.125 4.0938s4.0938-1.8254 4.0938-4.0938c0-0.17468-0.04148-0.33121-0.0625-0.5-0.25193 2.0231-1.9376 3.5938-4.0312 3.5938s-3.8065-1.5706-4.0625-3.5938z" fill="#fff" opacity=".5"/>
   <path id="path3658" d="m46.469 88.719c-0.01108 0.14117-0.03125 0.29355-0.03125 0.4375 0 2.9587 2.3851 5.3438 5.3438 5.3438s5.375-2.3851 5.375-5.3438c0-0.14395-0.02003-0.29633-0.03125-0.4375-0.2763 2.6999-2.57 4.7812-5.3438 4.7812s-5.0396-2.0814-5.3125-4.7812z" fill="#fff" opacity=".5"/>
   <path id="path3991" d="m53.438 67.031c-0.0089 0.16975-0.03125 0.32804-0.03125 0.5 0 5.3256 4.2994 9.6562 9.625 9.6562s9.6562-4.3306 9.6562-9.6562c0-0.17177-0.02238-0.33044-0.03125-0.5-0.25827 5.095-4.4658 9.1562-9.625 9.1562-5.159 0-9.3352-4.0615-9.5938-9.1562z" fill="#fff" opacity=".5"/>
  </g>
 </g>
 <g id="layer5">
  <rect id="rect3171" x="15" y="15" width="66" height="66" rx="12" ry="12" clip-path="url(#clipPath3613)" fill="url(#linearGradient3613)" filter="url(#filter3794)" opacity=".1" stroke="#fff" stroke-linecap="round" stroke-width=".5"/>
 </g>
</svg>
