<?xml version="1.0" encoding="UTF-8"?>
<!-- Created with Inkscape (http://www.inkscape.org/) -->
<svg id="svg2408" width="96" height="96" version="1.0" xmlns="http://www.w3.org/2000/svg" xmlns:cc="http://creativecommons.org/ns#" xmlns:dc="http://purl.org/dc/elements/1.1/" xmlns:rdf="http://www.w3.org/1999/02/22-rdf-syntax-ns#" xmlns:xlink="http://www.w3.org/1999/xlink">
 <defs id="defs2410">
  <linearGradient id="linearGradient3965">
   <stop id="stop3967" stop-color="#5fabd3" offset="0"/>
   <stop id="stop3969" stop-color="#0e3e5d" offset="1"/>
  </linearGradient>
  <linearGradient id="linearGradient3768">
   <stop id="stop3770" stop-color="#cae6f9" offset="0"/>
   <stop id="stop3772" stop-color="#71bddf" offset=".37064"/>
   <stop id="stop3774" stop-color="#2b6e8b" offset=".71599"/>
   <stop id="stop3776" stop-color="#1d3f5a" offset="1"/>
  </linearGradient>
  <linearGradient id="ButtonShadow" x1="45.448" x2="45.448" y1="92.54" y2="7.0165" gradientTransform="scale(1.0059 .99417)" gradientUnits="userSpaceOnUse">
   <stop id="stop3750" offset="0"/>
   <stop id="stop3752" stop-opacity=".58824" offset="1"/>
  </linearGradient>
  <linearGradient id="linearGradient3737">
   <stop id="stop3739" stop-color="#fff" offset="0"/>
   <stop id="stop3741" stop-color="#fff" stop-opacity="0" offset="1"/>
  </linearGradient>
  <filter id="filter3174">
   <feGaussianBlur id="feGaussianBlur3176" stdDeviation="1.71"/>
  </filter>
  <linearGradient id="linearGradient3188" x1="36.357" x2="36.357" y1="6" y2="63.893" gradientUnits="userSpaceOnUse" xlink:href="#linearGradient3737"/>
  <filter id="filter3794" x="-.192" y="-.192" width="1.384" height="1.384">
   <feGaussianBlur id="feGaussianBlur3796" stdDeviation="5.28"/>
  </filter>
  <radialGradient id="radialGradient3619" cx="48" cy="90.172" r="42" gradientTransform="matrix(1.1573 0 0 .99591 -7.551 .19713)" gradientUnits="userSpaceOnUse" xlink:href="#linearGradient3737"/>
  <clipPath id="clipPath3613">
   <rect id="rect3615" x="6" y="6" width="84" height="84" rx="6" ry="6" fill="#fff"/>
  </clipPath>
  <linearGradient id="linearGradient3633" x1="6" x2="90" y1="48" y2="48" gradientTransform="translate(-96)" gradientUnits="userSpaceOnUse">
   <stop id="stop3926" stop-color="#033b62" offset="0"/>
   <stop id="stop3928" stop-color="#156c95" offset="1"/>
  </linearGradient>
  <linearGradient id="linearGradient3646" x1="40" x2="40" y1="8" y2="56" gradientUnits="userSpaceOnUse">
   <stop id="stop3642" stop-color="#fff" offset="0"/>
   <stop id="stop3644" stop-color="#fff" stop-opacity="0" offset="1"/>
  </linearGradient>
  <filter id="filter3740" x="-.18" y="-.18" width="1.36" height="1.36">
   <feGaussianBlur id="feGaussianBlur3742" stdDeviation="0.75"/>
  </filter>
  <radialGradient id="radialGradient3794" cx="21" cy="71" r="5" gradientTransform="matrix(1.2,0,0,1.2,-4.2,-14.2)" gradientUnits="userSpaceOnUse" xlink:href="#linearGradient3768"/>
  <linearGradient id="linearGradient3796" x1="19.501" x2="19.501" y1="64.03" y2="74.196" gradientUnits="userSpaceOnUse" xlink:href="#linearGradient3737"/>
  <radialGradient id="radialGradient3971" cx="17.235" cy="74.411" r="4.1366" gradientTransform="matrix(1.415 -1.0295e-7 1.0262e-7 1.4104 -8.2233 -35.483)" gradientUnits="userSpaceOnUse" xlink:href="#linearGradient3965"/>
  <radialGradient id="radialGradient4013" cx="32.022" cy="78.418" r="5.6523" gradientTransform="matrix(1.1431 -1.2402e-7 1.2566e-7 1.1583 -4.5832 -12.722)" gradientUnits="userSpaceOnUse" xlink:href="#linearGradient3965"/>
  <radialGradient id="radialGradient4057" cx="24.56" cy="64.916" r="2.6787" gradientTransform="matrix(1.1677 -3.567e-7 3.3401e-7 1.0934 -4.1176 -6.4104)" gradientUnits="userSpaceOnUse" xlink:href="#linearGradient3965"/>
  <radialGradient id="radialGradient4122" cx="17.235" cy="74.411" r="4.1366" gradientTransform="matrix(.99423 -7.2336e-8 7.2103e-8 .99102 63.476 -35.574)" gradientUnits="userSpaceOnUse" xlink:href="#linearGradient3965"/>
  <radialGradient id="radialGradient4156" cx="77.151" cy="71.062" r="4.1481" gradientTransform="matrix(1.1221 -1.5158e-7 1.5032e-7 1.1128 -11.565 -12.425)" gradientUnits="userSpaceOnUse" xlink:href="#linearGradient3965"/>
  <radialGradient id="radialGradient4191" cx="63.542" cy="74.851" r="5.1742" gradientTransform="matrix(1.1042 2.3478e-8 -2.0748e-8 .97574 -3.4039 7.4672)" gradientUnits="userSpaceOnUse" xlink:href="#linearGradient3965"/>
  <radialGradient id="radialGradient4218" cx="24.56" cy="64.916" r="2.6787" gradientTransform="matrix(1.1677 -3.567e-7 3.3401e-7 1.0934 48.025 7.5181)" gradientUnits="userSpaceOnUse" xlink:href="#linearGradient3965"/>
  <radialGradient id="radialGradient4244" cx="73.589" cy="27.282" r="4.5674" gradientTransform="matrix(.92125 1.9765e-7 -2.832e-7 1.32 -45.425 -7.8133)" gradientUnits="userSpaceOnUse" xlink:href="#linearGradient3965"/>
  <radialGradient id="radialGradient4299" cx="73.589" cy="27.282" r="4.5674" gradientTransform="matrix(1.4991 3.2162e-7 -4.6083e-7 2.148 -36.729 -30.907)" gradientUnits="userSpaceOnUse" xlink:href="#linearGradient3965"/>
  <radialGradient id="radialGradient4316" cx="63.542" cy="74.851" r="5.1742" gradientTransform="matrix(.91291 .17109 -.15119 .80673 -28.549 -51.361)" gradientUnits="userSpaceOnUse" xlink:href="#linearGradient3965"/>
  <radialGradient id="radialGradient4362" cx="21.637" cy="71.066" r="5" gradientTransform="matrix(1.2,0,0,1.2,-4.2,-14.2)" gradientUnits="userSpaceOnUse" xlink:href="#linearGradient3768"/>
  <linearGradient id="ButtonShadow-0" x1="45.448" x2="45.448" y1="92.54" y2="7.0165" gradientTransform="matrix(1.0059 0 0 .99417 100 0)" gradientUnits="userSpaceOnUse">
   <stop id="stop3750-8" offset="0"/>
   <stop id="stop3752-5" stop-opacity=".58824" offset="1"/>
  </linearGradient>
  <linearGradient id="linearGradient3780" x1="32.251" x2="32.251" y1="6.1317" y2="90.239" gradientTransform="matrix(1.0238 0 0 1.0119 -1.1429 -98.071)" gradientUnits="userSpaceOnUse" xlink:href="#ButtonShadow-0"/>
  <linearGradient id="linearGradient3721" x1="32.251" x2="32.251" y1="6.1317" y2="90.239" gradientTransform="translate(0,-97)" gradientUnits="userSpaceOnUse" xlink:href="#ButtonShadow-0"/>
 </defs>
 <metadata id="metadata2413">
  <rdf:RDF>
   <cc:Work rdf:about="">
    <dc:format>image/svg+xml</dc:format>
    <dc:type rdf:resource="http://purl.org/dc/dcmitype/StillImage"/>
   </cc:Work>
  </rdf:RDF>
 </metadata>
 <g id="layer2" display="none">
  <rect id="rect3745" x="5" y="7" width="86" height="85" rx="6" ry="6" fill="url(#ButtonShadow)" filter="url(#filter3174)" opacity=".9"/>
 </g>
 <g id="layer7">
  <path id="path3786-6" transform="scale(1,-1)" d="m12-95.031c-5.5111 0-10.031 4.5202-10.031 10.031v71c0 5.5111 4.5202 10.031 10.031 10.031h72c5.5111 0 10.031-4.5202 10.031-10.031v-71c0-5.5111-4.5202-10.031-10.031-10.031h-72z" fill="url(#linearGradient3780)" opacity=".08"/>
  <path id="path3778" transform="scale(1,-1)" d="m12-94.031c-4.9716 0-9.0312 4.0596-9.0312 9.0312v71c0 4.9716 4.0596 9.0312 9.0312 9.0312h72c4.9716 0 9.0312-4.0596 9.0312-9.0312v-71c0-4.9716-4.0596-9.0312-9.0312-9.0312h-72z" fill="url(#linearGradient3780)" opacity=".1"/>
  <path id="path3770" transform="scale(1,-1)" d="m12-93c-4.4091 0-8 3.5909-8 8v71c0 4.4091 3.5909 8 8 8h72c4.4091 0 8-3.5909 8-8v-71c0-4.4091-3.5909-8-8-8h-72z" fill="url(#linearGradient3780)" opacity=".2"/>
  <rect id="rect3723" transform="scale(1,-1)" x="5" y="-92" width="86" height="85" rx="7" ry="7" fill="url(#linearGradient3780)" opacity=".3"/>
  <rect id="rect3716" transform="scale(1,-1)" x="6" y="-91" width="84" height="84" rx="6" ry="6" fill="url(#linearGradient3721)" opacity=".45"/>
 </g>
 <g id="layer1">
  <rect id="rect2419" transform="rotate(-90)" x="-90" y="6" width="84" height="84" rx="6" ry="6" fill="url(#linearGradient3633)"/>
  <path id="rect3728" d="m12 6c-3.324 0-6 2.676-6 6v2 68 2c0 0.33472 0.04135 0.6507 0.09375 0.96875 0.0487 0.2956 0.09704 0.59692 0.1875 0.875 0.00988 0.03038 0.020892 0.0636 0.03125 0.09375 0.098865 0.28777 0.23488 0.54745 0.375 0.8125 0.14459 0.27351 0.31562 0.53562 0.5 0.78125s0.37378 0.47347 0.59375 0.6875c0.43995 0.42806 0.94291 0.81453 1.5 1.0938 0.27854 0.13961 0.57347 0.24695 0.875 0.34375-0.2562-0.10022-0.48671-0.23627-0.71875-0.375-0.00741-0.0044-0.023866 0.0045-0.03125 0-0.031933-0.0193-0.062293-0.04251-0.09375-0.0625-0.1204-0.0767-0.23102-0.16351-0.34375-0.25-0.10617-0.0808-0.21328-0.16111-0.3125-0.25-0.17793-0.16143-0.34746-0.34539-0.5-0.53125-0.10758-0.13026-0.21839-0.26528-0.3125-0.40625-0.025089-0.03838-0.038446-0.08587-0.0625-0.125-0.064763-0.10303-0.13023-0.20452-0.1875-0.3125-0.10101-0.19471-0.20567-0.4157-0.28125-0.625-0.00796-0.02181-0.023589-0.04055-0.03125-0.0625-0.031825-0.09195-0.035804-0.18683-0.0625-0.28125-0.030332-0.10662-0.070389-0.20303-0.09375-0.3125-0.072879-0.34151-0.125-0.6982-0.125-1.0625v-2-68-2c0-2.7818 2.2182-5 5-5h2 68 2c2.7818 0 5 2.2182 5 5v2 68 2c0 0.3643-0.05212 0.72099-0.125 1.0625-0.04415 0.20689-0.08838 0.39766-0.15625 0.59375-0.0077 0.02195-0.0233 0.04069-0.03125 0.0625-0.06274 0.17374-0.13838 0.36745-0.21875 0.53125-0.04158 0.0828-0.07904 0.16995-0.125 0.25-0.0546 0.09721-0.12677 0.18835-0.1875 0.28125-0.09411 0.14096-0.20492 0.276-0.3125 0.40625-0.14317 0.17445-0.30314 0.347-0.46875 0.5-0.01117 0.0102-0.01998 0.02115-0.03125 0.03125-0.13839 0.12556-0.28509 0.23444-0.4375 0.34375-0.10257 0.07315-0.20432 0.15336-0.3125 0.21875-0.0074 0.0045-0.02384-0.0044-0.03125 0-0.23204 0.13873-0.46255 0.27478-0.71875 0.375 0.30153-0.0968 0.59646-0.20414 0.875-0.34375 0.55709-0.27922 1.0601-0.66569 1.5-1.0938 0.21997-0.21403 0.40937-0.44186 0.59375-0.6875s0.35541-0.50774 0.5-0.78125c0.14012-0.26505 0.27614-0.52473 0.375-0.8125 0.01041-0.03078 0.02133-0.06274 0.03125-0.09375 0.09046-0.27808 0.1388-0.5794 0.1875-0.875 0.0524-0.31805 0.09375-0.63403 0.09375-0.96875v-2-68-2c0-3.324-2.676-6-6-6h-72z" fill="url(#linearGradient3188)" opacity=".3"/>
  <path id="path3615" d="m12 90c-3.324 0-6-2.676-6-6v-2-68-2c0-0.33472 0.04135-0.6507 0.09375-0.96875 0.0487-0.2956 0.09704-0.59692 0.1875-0.875 0.00988-0.03038 0.020892-0.0636 0.03125-0.09375 0.098865-0.28777 0.23488-0.54745 0.375-0.8125 0.14459-0.27351 0.31562-0.53562 0.5-0.78125s0.37378-0.47347 0.59375-0.6875c0.43995-0.42806 0.94291-0.81453 1.5-1.0938 0.27854-0.13961 0.57347-0.24695 0.875-0.34375-0.2562 0.10022-0.48671 0.23627-0.71875 0.375-0.00741 0.0044-0.023866-0.0045-0.03125 0-0.031933 0.0193-0.062293 0.04251-0.09375 0.0625-0.1204 0.0767-0.23102 0.16351-0.34375 0.25-0.10617 0.0808-0.21328 0.16111-0.3125 0.25-0.17793 0.16143-0.34746 0.34539-0.5 0.53125-0.10758 0.13026-0.21839 0.26528-0.3125 0.40625-0.025089 0.03838-0.038446 0.08587-0.0625 0.125-0.064763 0.10303-0.13023 0.20452-0.1875 0.3125-0.10101 0.19471-0.20567 0.4157-0.28125 0.625-0.00796 0.02181-0.023589 0.04055-0.03125 0.0625-0.031825 0.09195-0.035804 0.18683-0.0625 0.28125-0.030332 0.10662-0.070389 0.20303-0.09375 0.3125-0.072879 0.34151-0.125 0.6982-0.125 1.0625v2 68 2c0 2.7818 2.2182 5 5 5h2 68 2c2.7818 0 5-2.2182 5-5v-2-68-2c0-0.3643-0.05212-0.72099-0.125-1.0625-0.04415-0.20689-0.08838-0.39766-0.15625-0.59375-0.0077-0.02195-0.0233-0.04069-0.03125-0.0625-0.06274-0.17374-0.13838-0.36745-0.21875-0.53125-0.04158-0.0828-0.07904-0.16995-0.125-0.25-0.0546-0.09721-0.12677-0.18835-0.1875-0.28125-0.09411-0.14096-0.20492-0.276-0.3125-0.40625-0.14317-0.17445-0.30314-0.347-0.46875-0.5-0.01117-0.0102-0.01998-0.02115-0.03125-0.03125-0.13839-0.12556-0.28509-0.23444-0.4375-0.34375-0.10257-0.07315-0.20432-0.15336-0.3125-0.21875-0.0074-0.0045-0.02384 0.0044-0.03125 0-0.23204-0.13873-0.46255-0.27478-0.71875-0.375 0.30153 0.0968 0.59646 0.20414 0.875 0.34375 0.55709 0.27922 1.0601 0.66569 1.5 1.0938 0.21997 0.21403 0.40937 0.44186 0.59375 0.6875s0.35541 0.50774 0.5 0.78125c0.14012 0.26505 0.27614 0.52473 0.375 0.8125 0.01041 0.03078 0.02133 0.06274 0.03125 0.09375 0.09046 0.27808 0.1388 0.5794 0.1875 0.875 0.0524 0.31805 0.09375 0.63403 0.09375 0.96875v2 68 2c0 3.324-2.676 6-6 6h-72z" fill="url(#radialGradient3619)" opacity=".2"/>
  <path id="path3635" d="m12 6c-3.324 0-6 2.676-6 6v29.094c11.242 4.2835 25.922 6.9062 42 6.9062s30.758-2.6227 42-6.9062v-29.094c0-3.324-2.676-6-6-6h-72z" fill="url(#linearGradient3646)" opacity=".6"/>
 </g>
 <g id="layer5">
  <rect id="rect3171" x="15" y="15" width="66" height="66" rx="12" ry="12" clip-path="url(#clipPath3613)" fill="#26d3ff" filter="url(#filter3794)" opacity=".2" stroke="#fff" stroke-linecap="round" stroke-width=".5"/>
 </g>
 <g id="layer3">
  <path id="path3649" d="m48.094 36c-7.6084-0.0089-15.242 1.1907-22.562 3.5938l6.75 20.406c10.264-3.3692 21.336-3.3556 31.594 0.03125l6.75-20.375c-7.3152-2.4201-14.923-3.6474-22.531-3.6562z" fill="none" stroke="#fff" stroke-linejoin="round" stroke-width="4"/>
  <path id="path3660" transform="matrix(1.5,0,0,1.5,-24,-24)" d="m50 64a2 2 0 1 1-4 0 2 2 0 1 1 4 0z" fill="none" stroke="#fff" stroke-dashoffset="1" stroke-linejoin="round" stroke-width="2.6667"/>
  <path id="path3662" d="m47.868 71.977-6.7231-25.091" fill="none" stroke="#fff" stroke-linecap="round" stroke-width="4"/>
  <path id="path3686" d="m57.562 19.156-0.84375 0.21875-0.34375 0.84375 0.5 0.75 0.3125 0.15625 0.5625 0.09375 0.5625 0.15625 0.03125 0.03125h0.0625l0.5 0.21875 0.90625-0.0625 0.46875-0.75-0.3125-0.84375-0.3125-0.1875-0.59375-0.25-0.09375-0.03125-0.71875-0.25h-0.125l-0.5625-0.09375zm-4.375 0.34375-0.34375 0.0625-0.3125 0.125-0.09375 0.03125-0.6875 0.34375-0.09375 0.03125-0.65625 0.40625-0.0625 0.0625-0.125 0.0625-0.40625 0.8125 0.40625 0.8125 0.875 0.15625 0.34375-0.15625v-0.03125l0.09375-0.0625 0.5-0.28125 0.59375-0.3125 0.09375-0.03125 0.21875-0.0625 0.625-0.65625-0.15625-0.90625-0.8125-0.40625zm9.375 2.75-0.84375 0.34375-0.1875 0.875 0.125 0.3125 0.40625 0.65625h0.03125l0.25 0.5 0.1875 0.4375 0.6875 0.5625 0.875-0.15625 0.34375-0.84375-0.03125-0.34375-0.21875-0.4375v-0.0625l-0.375-0.6875-0.0625-0.09375-0.4375-0.625-0.75-0.4375zm-13.562 1.1875-0.84375 0.28125-0.21875 0.28125-0.21875 0.4375-0.03125 0.09375-0.28125 0.75-0.03125 0.09375-0.15625 0.6875 0.1875 0.875 0.8125 0.375 0.78125-0.4375 0.15625-0.3125 0.125-0.59375h0.03125l0.21875-0.65625 0.03125-0.09375 0.1875-0.34375-0.03125-0.90625-0.71875-0.53125zm14.719 4.5938-0.65625 0.59375-0.0625 0.375v2l0.40625 0.78125 0.875 0.15625 0.65625-0.59375 0.0625-0.34375v-2l-0.40625-0.8125-0.875-0.15625zm-16 1.3125-0.65625 0.625-0.0625 0.34375v2l0.40625 0.78125 0.875 0.1875 0.65625-0.625 0.0625-0.34375v-2l-0.40625-0.8125-0.875-0.15625zm0 6-0.65625 0.625-0.0625 0.34375v2l0.40625 0.78125 0.875 0.1875 0.65625-0.625 0.0625-0.34375v-2l-0.40625-0.8125-0.875-0.15625zm0 6-0.65625 0.625-0.0625 0.34375v2l0.40625 0.78125 0.875 0.1875 0.65625-0.625 0.0625-0.34375v-2l-0.40625-0.8125-0.875-0.15625zm0 6-0.65625 0.625-0.0625 0.34375v2l0.40625 0.78125 0.875 0.1875 0.65625-0.625 0.0625-0.34375v-2l-0.40625-0.8125-0.875-0.15625z" color="#000000" fill="#fff" style="block-progression:tb;text-indent:0;text-transform:none"/>
  <path id="path3689" d="m38.438 19.156 0.84375 0.21875 0.34375 0.84375-0.5 0.75-0.3125 0.15625-0.5625 0.09375-0.5625 0.15625-0.03125 0.03125h-0.0625l-0.5 0.21875-0.90625-0.0625-0.46875-0.75 0.3125-0.84375 0.3125-0.1875 0.59375-0.25 0.09375-0.03125 0.71875-0.25h0.125l0.5625-0.09375zm4.375 0.34375 0.34375 0.0625 0.3125 0.125 0.09375 0.03125 0.6875 0.34375 0.09375 0.03125 0.65625 0.40625 0.0625 0.0625 0.125 0.0625 0.40625 0.8125-0.40625 0.8125-0.875 0.15625-0.34375-0.15625v-0.03125l-0.09375-0.0625-0.5-0.28125-0.59375-0.3125-0.09375-0.03125-0.21875-0.0625-0.625-0.65625 0.15625-0.90625 0.8125-0.40625zm-9.375 2.75 0.84375 0.34375 0.1875 0.875-0.125 0.3125-0.40625 0.65625h-0.03125l-0.25 0.5-0.1875 0.4375-0.6875 0.5625-0.875-0.15625-0.34375-0.84375 0.03125-0.34375 0.21875-0.4375v-0.0625l0.375-0.6875 0.0625-0.09375 0.4375-0.625 0.75-0.4375zm13.562 1.1875 0.84375 0.28125 0.21875 0.28125 0.21875 0.4375 0.03125 0.09375 0.28125 0.75 0.03125 0.09375 0.15625 0.6875-0.1875 0.875-0.8125 0.375-0.78125-0.4375-0.15625-0.3125-0.125-0.59375h-0.03125l-0.21875-0.65625-0.03125-0.09375-0.1875-0.34375 0.03125-0.90625 0.71875-0.53125zm-14.719 4.5938 0.65625 0.59375 0.0625 0.375v2l-0.40625 0.78125-0.875 0.15625-0.65625-0.59375-0.0625-0.34375v-2l0.40625-0.8125 0.875-0.15625zm16 1.3125 0.65625 0.625 0.0625 0.34375v2l-0.40625 0.78125-0.875 0.1875-0.65625-0.625-0.0625-0.34375v-2l0.40625-0.8125 0.875-0.15625zm0 6 0.65625 0.625 0.0625 0.34375v2l-0.40625 0.78125-0.875 0.1875-0.65625-0.625-0.0625-0.34375v-2l0.40625-0.8125 0.875-0.15625zm0 6 0.65625 0.625 0.0625 0.34375v2l-0.40625 0.78125-0.875 0.1875-0.65625-0.625-0.0625-0.34375v-2l0.40625-0.8125 0.875-0.15625zm0 6 0.65625 0.625 0.0625 0.34375v2l-0.40625 0.78125-0.875 0.1875-0.65625-0.625-0.0625-0.34375v-2l0.40625-0.8125 0.875-0.15625z" color="#000000" fill="#fff" style="block-progression:tb;text-indent:0;text-transform:none"/>
 </g>
 <g id="layer4">
  <g id="g3784" transform="matrix(.49714 0 0 .39749 63.498 -.53954)">
   <path id="path3786" transform="translate(0,1)" d="m26 69c0 2.7614-2.2386 5-5 5s-5-2.2386-5-5 2.2386-5 5-5 5 2.2386 5 5z" fill="#162d50" filter="url(#filter3740)"/>
   <path id="path3788" d="m26 69c0 2.7614-2.2386 5-5 5s-5-2.2386-5-5 2.2386-5 5-5 5 2.2386 5 5z" fill="url(#radialGradient3794)"/>
   <path id="path3790" d="m21 64.688c-2.3744 0-4.3125 1.9381-4.3125 4.3125 0 1.4043 0.70859 2.6217 1.75 3.4062-0.46357-0.68617-0.75-1.5158-0.75-2.4062 0-2.3744 1.9381-4.3125 4.3125-4.3125 0.89041 0 1.7201 0.28643 2.4062 0.75-0.78459-1.0414-2.0019-1.75-3.4062-1.75z" fill="#fff" opacity=".4"/>
   <path id="path3792" transform="matrix(.42108 -.20641 .1032 .21054 3.6761 56.253)" d="m26 69c0 2.7614-2.2386 5-5 5s-5-2.2386-5-5 2.2386-5 5-5 5 2.2386 5 5z" fill="url(#linearGradient3796)"/>
  </g>
  <g id="g3798" transform="matrix(.79644 0 0 .63679 62.288 -24.307)">
   <path id="path3800" transform="translate(0,1)" d="m26 69c0 2.7614-2.2386 5-5 5s-5-2.2386-5-5 2.2386-5 5-5 5 2.2386 5 5z" fill="#162d50" filter="url(#filter3740)"/>
   <path id="path3802" d="m26 69c0 2.7614-2.2386 5-5 5s-5-2.2386-5-5 2.2386-5 5-5 5 2.2386 5 5z" fill="url(#radialGradient3794)"/>
   <path id="path3804" d="m21 64.688c-2.3744 0-4.3125 1.9381-4.3125 4.3125 0 1.4043 0.70859 2.6217 1.75 3.4062-0.46357-0.68617-0.75-1.5158-0.75-2.4062 0-2.3744 1.9381-4.3125 4.3125-4.3125 0.89041 0 1.7201 0.28643 2.4062 0.75-0.78459-1.0414-2.0019-1.75-3.4062-1.75z" fill="#fff" opacity=".4"/>
   <path id="path3806" transform="matrix(.42108 -.20641 .1032 .21054 3.6761 56.253)" d="m26 69c0 2.7614-2.2386 5-5 5s-5-2.2386-5-5 2.2386-5 5-5 5 2.2386 5 5z" fill="url(#linearGradient3796)"/>
  </g>
  <g id="g3812" transform="matrix(.60889 0 0 .48684 66.597 22.534)">
   <path id="path3814" transform="translate(0,1)" d="m26 69c0 2.7614-2.2386 5-5 5s-5-2.2386-5-5 2.2386-5 5-5 5 2.2386 5 5z" fill="#162d50" filter="url(#filter3740)"/>
   <path id="path3816" d="m26 69c0 2.7614-2.2386 5-5 5s-5-2.2386-5-5 2.2386-5 5-5 5 2.2386 5 5z" fill="url(#radialGradient3794)"/>
   <path id="path3818" d="m21 64.688c-2.3744 0-4.3125 1.9381-4.3125 4.3125 0 1.4043 0.70859 2.6217 1.75 3.4062-0.46357-0.68617-0.75-1.5158-0.75-2.4062 0-2.3744 1.9381-4.3125 4.3125-4.3125 0.89041 0 1.7201 0.28643 2.4062 0.75-0.78459-1.0414-2.0019-1.75-3.4062-1.75z" fill="#fff" opacity=".4"/>
   <path id="path3820" transform="matrix(.42108 -.20641 .1032 .21054 3.6761 56.253)" d="m26 69c0 2.7614-2.2386 5-5 5s-5-2.2386-5-5 2.2386-5 5-5 5 2.2386 5 5z" fill="url(#linearGradient3796)"/>
  </g>
  <g id="g3826" transform="matrix(1.0838 0 0 .86656 46.302 14.129)">
   <path id="path3828" transform="translate(0,1)" d="m26 69c0 2.7614-2.2386 5-5 5s-5-2.2386-5-5 2.2386-5 5-5 5 2.2386 5 5z" fill="#162d50" filter="url(#filter3740)"/>
   <path id="path3830" d="m26 69c0 2.7614-2.2386 5-5 5s-5-2.2386-5-5 2.2386-5 5-5 5 2.2386 5 5z" fill="url(#radialGradient3794)"/>
   <path id="path3832" d="m21 64.688c-2.3744 0-4.3125 1.9381-4.3125 4.3125 0 1.4043 0.70859 2.6217 1.75 3.4062-0.46357-0.68617-0.75-1.5158-0.75-2.4062 0-2.3744 1.9381-4.3125 4.3125-4.3125 0.89041 0 1.7201 0.28643 2.4062 0.75-0.78459-1.0414-2.0019-1.75-3.4062-1.75z" fill="#fff" opacity=".4"/>
   <path id="path3834" transform="matrix(.42108 -.20641 .1032 .21054 3.6761 56.253)" d="m26 69c0 2.7614-2.2386 5-5 5s-5-2.2386-5-5 2.2386-5 5-5 5 2.2386 5 5z" fill="url(#linearGradient3796)"/>
  </g>
  <g id="g3840" transform="matrix(.48783 0 0 .39004 70.216 43.84)">
   <path id="path3842" transform="translate(0,1)" d="m26 69c0 2.7614-2.2386 5-5 5s-5-2.2386-5-5 2.2386-5 5-5 5 2.2386 5 5z" fill="#162d50" filter="url(#filter3740)"/>
   <path id="path3844" d="m26 69c0 2.7614-2.2386 5-5 5s-5-2.2386-5-5 2.2386-5 5-5 5 2.2386 5 5z" fill="url(#radialGradient3794)"/>
   <path id="path3846" d="m21 64.688c-2.3744 0-4.3125 1.9381-4.3125 4.3125 0 1.4043 0.70859 2.6217 1.75 3.4062-0.46357-0.68617-0.75-1.5158-0.75-2.4062 0-2.3744 1.9381-4.3125 4.3125-4.3125 0.89041 0 1.7201 0.28643 2.4062 0.75-0.78459-1.0414-2.0019-1.75-3.4062-1.75z" fill="#fff" opacity=".4"/>
   <path id="path3848" transform="matrix(.42108 -.20641 .1032 .21054 3.6761 56.253)" d="m26 69c0 2.7614-2.2386 5-5 5s-5-2.2386-5-5 2.2386-5 5-5 5 2.2386 5 5z" fill="url(#linearGradient3796)"/>
  </g>
  <g id="g3854" transform="matrix(.72063 0 0 .57618 44.874 40.278)">
   <path id="path3856" transform="translate(0,1)" d="m26 69c0 2.7614-2.2386 5-5 5s-5-2.2386-5-5 2.2386-5 5-5 5 2.2386 5 5z" fill="#162d50" filter="url(#filter3740)"/>
   <path id="path3858" d="m26 69c0 2.7614-2.2386 5-5 5s-5-2.2386-5-5 2.2386-5 5-5 5 2.2386 5 5z" fill="url(#radialGradient3794)"/>
   <path id="path3860" d="m21 64.688c-2.3744 0-4.3125 1.9381-4.3125 4.3125 0 1.4043 0.70859 2.6217 1.75 3.4062-0.46357-0.68617-0.75-1.5158-0.75-2.4062 0-2.3744 1.9381-4.3125 4.3125-4.3125 0.89041 0 1.7201 0.28643 2.4062 0.75-0.78459-1.0414-2.0019-1.75-3.4062-1.75z" fill="#fff" opacity=".4"/>
   <path id="path3862" transform="matrix(.42108 -.20641 .1032 .21054 3.6761 56.253)" d="m26 69c0 2.7614-2.2386 5-5 5s-5-2.2386-5-5 2.2386-5 5-5 5 2.2386 5 5z" fill="url(#linearGradient3796)"/>
  </g>
  <g id="g3868" transform="matrix(.61558 0 0 .49485 12.035 -14.932)">
   <path id="path3870" transform="translate(0,1)" d="m26 69c0 2.7614-2.2386 5-5 5s-5-2.2386-5-5 2.2386-5 5-5 5 2.2386 5 5z" fill="#162d50" filter="url(#filter3740)"/>
   <path id="path3872" d="m26 69c0 2.7614-2.2386 5-5 5s-5-2.2386-5-5 2.2386-5 5-5 5 2.2386 5 5z" fill="url(#radialGradient3794)"/>
   <path id="path3874" d="m21 64.688c-2.3744 0-4.3125 1.9381-4.3125 4.3125 0 1.4043 0.70859 2.6217 1.75 3.4062-0.46357-0.68617-0.75-1.5158-0.75-2.4062 0-2.3744 1.9381-4.3125 4.3125-4.3125 0.89041 0 1.7201 0.28643 2.4062 0.75-0.78459-1.0414-2.0019-1.75-3.4062-1.75z" fill="#fff" opacity=".4"/>
   <path id="path3876" transform="matrix(.42108 -.20641 .1032 .21054 3.6761 56.253)" d="m26 69c0 2.7614-2.2386 5-5 5s-5-2.2386-5-5 2.2386-5 5-5 5 2.2386 5 5z" fill="url(#linearGradient3796)"/>
  </g>
  <g id="g3882" transform="matrix(.87894 0 0 .70276 -2.7136 -22.596)">
   <path id="path3884" transform="translate(0,1)" d="m26 69c0 2.7614-2.2386 5-5 5s-5-2.2386-5-5 2.2386-5 5-5 5 2.2386 5 5z" fill="#162d50" filter="url(#filter3740)"/>
   <path id="path3886" d="m26 69c0 2.7614-2.2386 5-5 5s-5-2.2386-5-5 2.2386-5 5-5 5 2.2386 5 5z" fill="url(#radialGradient3794)"/>
   <path id="path3888" d="m21 64.688c-2.3744 0-4.3125 1.9381-4.3125 4.3125 0 1.4043 0.70859 2.6217 1.75 3.4062-0.46357-0.68617-0.75-1.5158-0.75-2.4062 0-2.3744 1.9381-4.3125 4.3125-4.3125 0.89041 0 1.7201 0.28643 2.4062 0.75-0.78459-1.0414-2.0019-1.75-3.4062-1.75z" fill="#fff" opacity=".4"/>
   <path id="path3890" transform="matrix(.42108 -.20641 .1032 .21054 3.6761 56.253)" d="m26 69c0 2.7614-2.2386 5-5 5s-5-2.2386-5-5 2.2386-5 5-5 5 2.2386 5 5z" fill="url(#linearGradient3796)"/>
  </g>
  <g id="g3896" transform="matrix(.49714 0 0 .39749 4.481 46.452)">
   <path id="path3898" transform="translate(0,1)" d="m26 69c0 2.7614-2.2386 5-5 5s-5-2.2386-5-5 2.2386-5 5-5 5 2.2386 5 5z" fill="#162d50" filter="url(#filter3740)"/>
   <path id="path3900" d="m26 69c0 2.7614-2.2386 5-5 5s-5-2.2386-5-5 2.2386-5 5-5 5 2.2386 5 5z" fill="url(#radialGradient3794)"/>
   <path id="path3902" d="m21 64.688c-2.3744 0-4.3125 1.9381-4.3125 4.3125 0 1.4043 0.70859 2.6217 1.75 3.4062-0.46357-0.68617-0.75-1.5158-0.75-2.4062 0-2.3744 1.9381-4.3125 4.3125-4.3125 0.89041 0 1.7201 0.28643 2.4062 0.75-0.78459-1.0414-2.0019-1.75-3.4062-1.75z" fill="#fff" opacity=".4"/>
   <path id="path3904" transform="matrix(.42108 -.20641 .1032 .21054 3.6761 56.253)" d="m26 69c0 2.7614-2.2386 5-5 5s-5-2.2386-5-5 2.2386-5 5-5 5 2.2386 5 5z" fill="url(#linearGradient3796)"/>
  </g>
  <g id="g3910" transform="matrix(.49714 0 0 .39749 9.9268 22.656)">
   <path id="path3912" transform="translate(0,1)" d="m26 69c0 2.7614-2.2386 5-5 5s-5-2.2386-5-5 2.2386-5 5-5 5 2.2386 5 5z" fill="#162d50" filter="url(#filter3740)"/>
   <path id="path3914" d="m26 69c0 2.7614-2.2386 5-5 5s-5-2.2386-5-5 2.2386-5 5-5 5 2.2386 5 5z" fill="url(#radialGradient3794)"/>
   <path id="path3916" d="m21 64.688c-2.3744 0-4.3125 1.9381-4.3125 4.3125 0 1.4043 0.70859 2.6217 1.75 3.4062-0.46357-0.68617-0.75-1.5158-0.75-2.4062 0-2.3744 1.9381-4.3125 4.3125-4.3125 0.89041 0 1.7201 0.28643 2.4062 0.75-0.78459-1.0414-2.0019-1.75-3.4062-1.75z" fill="#fff" opacity=".4"/>
   <path id="path3918" transform="matrix(.42108 -.20641 .1032 .21054 3.6761 56.253)" d="m26 69c0 2.7614-2.2386 5-5 5s-5-2.2386-5-5 2.2386-5 5-5 5 2.2386 5 5z" fill="url(#linearGradient3796)"/>
  </g>
  <g id="g4356" transform="translate(-32)">
   <path id="path3732" transform="matrix(1 0 0 .79955 0 11.209)" d="m26 69c0 2.7614-2.2386 5-5 5s-5-2.2386-5-5 2.2386-5 5-5 5 2.2386 5 5z" fill="#162d50" filter="url(#filter3740)"/>
   <path id="path3706" transform="matrix(-1 0 0 .79955 42 10.409)" d="m26 69c0 2.7614-2.2386 5-5 5s-5-2.2386-5-5 2.2386-5 5-5 5 2.2386 5 5z" fill="url(#radialGradient4362)"/>
   <path id="path3744" transform="matrix(-.42108 -.16503 -.1032 .16834 38.324 55.387)" d="m26 69c0 2.7614-2.2386 5-5 5s-5-2.2386-5-5 2.2386-5 5-5 5 2.2386 5 5z" fill="url(#linearGradient3796)"/>
   <path id="path4347" d="m16.656 63.656c-0.40018 0.57486-0.65625 1.2329-0.65625 1.9375 0 2.2079 2.2386 3.9688 5 3.9688 2.357 0 4.3155-1.3076 4.8438-3.0625-0.85384 1.2265-2.4635 2.0625-4.3438 2.0625-2.7614 0-5-1.7608-5-3.9688 0-0.32335 0.06562-0.63639 0.15625-0.9375z" fill="#fff" opacity=".5"/>
  </g>
  <g id="g4366" transform="matrix(1.0182 0 0 .81407 1.6208 11.161)">
   <path id="path4368" transform="translate(0,1)" d="m26 69c0 2.7614-2.2386 5-5 5s-5-2.2386-5-5 2.2386-5 5-5 5 2.2386 5 5z" fill="#162d50" filter="url(#filter3740)"/>
   <path id="path4370" d="m26 69c0 2.7614-2.2386 5-5 5s-5-2.2386-5-5 2.2386-5 5-5 5 2.2386 5 5z" fill="url(#radialGradient3794)"/>
   <path id="path4372" d="m21 64.688c-2.3744 0-4.3125 1.9381-4.3125 4.3125 0 1.4043 0.70859 2.6217 1.75 3.4062-0.46357-0.68617-0.75-1.5158-0.75-2.4062 0-2.3744 1.9381-4.3125 4.3125-4.3125 0.89041 0 1.7201 0.28643 2.4062 0.75-0.78459-1.0414-2.0019-1.75-3.4062-1.75z" fill="#fff" opacity=".4"/>
   <path id="path4374" transform="matrix(.42108 -.20641 .1032 .21054 3.6761 56.253)" d="m26 69c0 2.7614-2.2386 5-5 5s-5-2.2386-5-5 2.2386-5 5-5 5 2.2386 5 5z" fill="url(#linearGradient3796)"/>
  </g>
 </g>
 <g id="layer6" display="none">
  <g id="g4286">
   <path id="path3990" transform="translate(-1.0714 -4.8214)" d="m17.812 68.781c-1.096-0.13845-2.1739 0.05447-2.875 0.8125-0.69671 0.75325-0.9602 2.0091-0.59375 3.7188 0.0019 0.0093-0.0019 0.02192 0 0.03125 0.28305 1.359 1.2468 2.6344 2.4688 3.375 1.2228 0.74108 2.7733 0.92112 4.0938-0.03125 0.01447-0.0086 0.01692-0.02263 0.03125-0.03125 1.2061-0.72581 1.9187-1.5553 2.1562-2.4375 0.2404-0.89264-0.0061-1.7669-0.5-2.5312-0.98785-1.5287-2.9554-2.6756-4.7812-2.9062z" fill="#162d50" opacity=".5"/>
   <path id="path3941" d="m19.653 70.54c7.5387-4.474-7.9511-11.971-6.0217-3.1254 0.50164 2.4915 3.6253 4.8831 6.0217 3.1254z" fill="url(#radialGradient3971)"/>
   <path id="path3973" transform="matrix(.97008 .53881 -.41399 .74535 28.539 1.8401)" d="m20.703 70.965a1.2422 1.0192 0 1 1-2.4844 0 1.2422 1.0192 0 1 1 2.4844 0z" fill="#fff" opacity=".9"/>
   <path id="path3975" transform="matrix(.44544 .41028 -.3182 .34547 34.149 34.232)" d="m20.703 70.965a1.2422 1.0192 0 1 1-2.4844 0 1.2422 1.0192 0 1 1 2.4844 0z" fill="#fff" opacity=".9"/>
   <path id="path3977" d="m13.491 65.647c-0.04037 0.49747 0.0071 1.0974 0.15625 1.7812 0.50164 2.4915 3.6037 4.8827 6 3.125 1.7491-1.038 2.2563-2.2534 2.0312-3.375-0.17314 0.81419-0.7899 1.6383-2.0312 2.375-2.3963 1.7577-5.4984-0.63353-6-3.125-0.06029-0.27644-0.12874-0.53614-0.15625-0.78125z" fill="#fff" opacity=".5"/>
  </g>
  <g id="g4280">
   <path id="path4028" d="m32.844 71.062c-2.4621 0.47955-4.7658 2.018-5.9375 4.3125a0.60151 0.60151 0 0 0-0.03125 0.0625c-0.5869 1.4674 0.09545 2.9559 0.875 4 0.0079 0.01052 0.02338 0.02082 0.03125 0.03125 0.77033 1.0785 1.8469 1.9897 3.1562 2.4375 1.1277 0.39872 2.4108 0.5381 3.625 0.125a0.60151 0.60151 0 0 0 0.09375-0.03125c1.7425-0.85832 3.5499-2.1372 4.2812-4.1875 0.0032-0.0091-0.0032-0.02215 0-0.03125 0.33894-0.90428 0.357-2.0324-0.28125-2.9062-0.0046-0.0064-0.02666 0.0063-0.03125 0-0.0047-0.0065 0.0047-0.0248 0-0.03125-0.78419-1.0714-1.8538-1.6497-2.5-2.4062a0.60151 0.60151 0 0 0-0.09375-0.09375c-0.84342-0.69148-1.8691-1.1778-3-1.2812a0.60151 0.60151 0 0 0-0.1875 0z" fill="#162d50" opacity=".5"/>
   <path id="path3999" d="m32.964 70.671c-2.2918 0.44638-4.4458 1.8835-5.5195 3.9861-0.4765 1.1914 0.08385 2.4883 0.80804 3.4476 0.71224 1.0092 1.6916 1.846 2.8713 2.2494 1.0306 0.36436 2.1993 0.48138 3.2458 0.12533 1.6841-0.82954 3.3604-2.058 4.0051-3.8955 0.29541-0.769 0.2898-1.6878-0.22234-2.3657-0.68011-0.94792-1.7423-1.52-2.4944-2.4006-0.76419-0.62652-1.7046-1.0562-2.6939-1.1467z" fill="url(#radialGradient4013)"/>
   <path id="path4030" transform="matrix(.94813 .31787 -.31787 .94813 23.894 -7.3129)" d="m36.916 73.141a1.976 1.1228 0 1 1-3.9521 0 1.976 1.1228 0 1 1 3.9521 0z" fill="#fff" opacity=".9"/>
   <path id="path4032" d="m27.75 74.156c-0.10393 0.16578-0.22303 0.32478-0.3125 0.5-0.4765 1.1914 0.08831 2.4782 0.8125 3.4375 0.71224 1.0092 1.6954 1.8465 2.875 2.25 1.0306 0.36436 2.2035 0.48105 3.25 0.125 1.6139-0.79498 3.2077-1.9436 3.9062-3.6562-0.80889 1.3134-2.163 2.2635-3.5312 2.9375-1.0465 0.35605-2.2194 0.23936-3.25-0.125-1.1796-0.40346-2.1628-1.2408-2.875-2.25-0.67892-0.89932-1.2034-2.0911-0.875-3.2188z" fill="#fff" opacity=".5"/>
  </g>
  <g id="g4293">
   <path id="path4077" d="m24.812 61.75c-0.23996-0.01798-0.47963-0.01998-0.71875 0.03125-0.70346 0.15072-1.3975 0.55046-1.7812 1.125-0.19189 0.28727-0.31422 0.63561-0.28125 1 0.03297 0.36439 0.24232 0.71375 0.5625 1.0312 0.57203 0.56831 1.3793 1.1609 2.2812 1.4375s1.956 0.21305 2.6875-0.59375c0.39794-0.41946 0.58512-0.90515 0.59375-1.375 0.0086-0.46985-0.17096-0.91006-0.4375-1.2812-0.5025-0.6998-1.3406-1.1629-2.2188-1.2188-0.049162-0.021918-0.10549-0.01356-0.15625-0.03125-0.17392-0.060606-0.3455-0.11108-0.53125-0.125z" fill="#162d50" opacity=".5"/>
   <path id="path4041" d="m25.329 61.599c-1.3802-0.61534-3.9284 1.0052-2.4756 2.4459 1.0663 1.0594 3.1701 2.2198 4.4233 0.83753 1.3781-1.4526-0.36132-3.2799-1.9477-3.2834z" fill="url(#radialGradient4057)"/>
   <path id="path4059" transform="matrix(.62585 .34761 -.26708 .48086 32.437 21.787)" d="m20.703 70.965a1.2422 1.0192 0 1 1-2.4844 0 1.2422 1.0192 0 1 1 2.4844 0z" fill="#fff" opacity=".9"/>
   <path id="path4061" d="m23.219 61.938c-0.74698 0.50112-1.1661 1.3093-0.375 2.0938 1.0288 1.0222 3.0166 2.1331 4.2812 0.96875-1.2568 0.68942-3.0045-0.32303-3.9375-1.25-0.65657-0.65107-0.46939-1.3109 0.03125-1.8125z" fill="#fff" opacity=".5"/>
  </g>
  <g id="g4246" transform="translate(-.17857 -1.25)">
   <path id="path4106" d="m75.375 20.062c-0.29738 0.07576-0.57557 0.20932-0.8125 0.375-0.47386 0.33135-0.86798 0.7614-1.1875 1.0312-1.1331 0.84596-2.4698 2.0513-3.25 3.4688-0.39009 0.70872-0.64525 1.4843-0.625 2.2812 0.02025 0.79699 0.32215 1.5918 0.96875 2.3438a0.39841 0.39841 0 0 0 0.03125 0.03125c1.0986 1.2056 2.8587 1.8102 4.5312 1.7188 1.6726-0.0915 3.2941-0.95525 3.9062-2.7188 0.49382-1.4239 0.66473-3.1548 0.3125-4.75s-1.2557-3.0768-2.9062-3.75a0.39841 0.39841 0 0 0-0.03125 0c-0.33199-0.10794-0.64012-0.10701-0.9375-0.03125z" fill="#162d50" opacity=".5"/>
   <path id="path4079" d="m73.75 20.643c-2.2131 1.6523-5.2241 4.7522-2.842 7.5224 1.9951 2.1893 6.6795 2.3683 7.7886-0.82696 0.93902-2.7077 0.64351-6.7619-2.3831-7.9964-1.0351-0.33655-1.8636 0.70994-2.5635 1.301z" fill="url(#radialGradient4299)"/>
   <path id="path4097" transform="matrix(.62697 .40034 -.40034 .62697 83.656 -38.375)" d="m36.916 73.141c0 0.62008-0.8847 1.1228-1.976 1.1228-1.0913 0-1.976-0.50267-1.976-1.1228s0.8847-1.1228 1.976-1.1228c1.0913 0 1.976 0.50267 1.976 1.1228z" fill="#fff" opacity=".9"/>
   <path id="path4099" d="m71.125 23.219c-1.1201 1.5171-1.6502 3.2728-0.21875 4.9375 1.9044 2.0899 6.2373 2.354 7.5938-0.40625-1.7221 1.9201-5.3879 1.5282-7.0938-0.34375-1.191-1.3851-1.0129-2.8597-0.28125-4.1875z" fill="#fff" opacity=".5"/>
   <path id="path4108" transform="matrix(.62697 .40034 -.40034 .62697 83.656 -38.375)" d="m36.916 73.141c0 0.62008-0.8847 1.1228-1.976 1.1228-1.0913 0-1.976-0.50267-1.976-1.1228s0.8847-1.1228 1.976-1.1228c1.0913 0 1.976 0.50267 1.976 1.1228z" fill="#fff" opacity=".9"/>
   <path id="path4110" transform="matrix(.39975 .25525 -.25525 .39975 82.353 -14.204)" d="m36.916 73.141c0 0.62008-0.8847 1.1228-1.976 1.1228-1.0913 0-1.976-0.50267-1.976-1.1228s0.8847-1.1228 1.976-1.1228c1.0913 0 1.976 0.50267 1.976 1.1228z" fill="#fff" opacity=".9"/>
  </g>
  <g id="g4254">
   <path id="path4112" transform="matrix(.70265 0 0 .70265 68.502 -14.03)" d="m17.812 68.781c-1.096-0.13845-2.1739 0.05447-2.875 0.8125-0.69671 0.75325-0.9602 2.0091-0.59375 3.7188 0.0019 0.0093-0.0019 0.02192 0 0.03125 0.28305 1.359 1.2468 2.6344 2.4688 3.375 1.2228 0.74108 2.7733 0.92112 4.0938-0.03125 0.01447-0.0086 0.01692-0.02263 0.03125-0.03125 1.2061-0.72581 1.9187-1.5553 2.1562-2.4375 0.2404-0.89264-0.0061-1.7669-0.5-2.5312-0.98785-1.5287-2.9554-2.6756-4.7812-2.9062z" fill="#162d50" opacity=".5"/>
   <path id="path4114" d="m83.064 38.923c5.2971-3.1437-5.5868-8.4117-4.2311-2.1961 0.35247 1.7506 2.5473 3.4311 4.2311 2.1961z" fill="url(#radialGradient4122)"/>
   <path id="path4116" transform="matrix(.68162 .37859 -.29089 .52372 89.308 -9.3493)" d="m20.703 70.965a1.2422 1.0192 0 1 1-2.4844 0 1.2422 1.0192 0 1 1 2.4844 0z" fill="#fff" opacity=".9"/>
   <path id="path4118" transform="matrix(.31299 .28828 -.22358 .24274 93.249 13.411)" d="m20.703 70.965a1.2422 1.0192 0 1 1-2.4844 0 1.2422 1.0192 0 1 1 2.4844 0z" fill="#fff" opacity=".9"/>
   <path id="path4120" d="m78.734 35.485c-0.02837 0.34955 5e-3 0.77106 0.10979 1.2516 0.35247 1.7506 2.5321 3.4308 4.2159 2.1958 1.229-0.72937 1.5854-1.5833 1.4273-2.3714-0.12166 0.57209-0.55502 1.1511-1.4273 1.6688-1.6838 1.235-3.8634-0.44515-4.2159-2.1958-0.04236-0.19424-0.09046-0.37672-0.10979-0.54894z" fill="#fff" opacity=".5"/>
  </g>
  <g id="g4261">
   <path id="path4169" transform="translate(-2.1429 -4.4894)" d="m77.469 66.781c-1.0707 0.038215-2.1328 0.35148-3.0938 0.96875a0.41426 0.41426 0 0 0-0.0625 0.03125c-0.85747 0.81693-1.3975 2.1584-0.90625 3.375 0.28832 0.75959 0.89836 1.2099 1.3438 1.625a0.41426 0.41426 0 0 0 0.03125 0c1.1602 0.93734 2.6455 1.5358 4.1875 1.4375 1.0709-0.06028 2.1116-0.6351 2.625-1.625 0.19713-0.40879 0.5677-0.88841 0.6875-1.5312 0.0019-0.01035-0.0018-0.02081 0-0.03125 0.30656-1.4022-0.4424-2.8001-1.5938-3.5312a0.41426 0.41426 0 0 0-0.03125-0.03125c-1.0299-0.48814-2.1146-0.72579-3.1875-0.6875z" fill="#162d50" opacity=".5"/>
   <path id="path4124" d="m72.448 62.996c-0.75628 0.72053-1.2091 1.8819-0.80027 2.8944 0.23408 0.6167 0.76816 1.0344 1.2355 1.4699 1.0916 0.88191 2.4987 1.4501 3.9166 1.3598 0.93573-0.05267 1.845-0.5777 2.2818-1.42 0.22651-0.46972 0.55559-0.89979 0.64635-1.4269 0.2784-1.2116-0.3824-2.4857-1.4052-3.1352-1.9529-0.9256-4.075-0.89813-5.8748 0.25797z" fill="url(#radialGradient4156)"/>
   <path id="path4143" transform="matrix(1.1669 .4202 -.32831 .88167 77.564 -7.0664)" d="m20.703 70.965a1.2422 1.0192 0 1 1-2.4844 0 1.2422 1.0192 0 1 1 2.4844 0z" fill="#fff" opacity=".9"/>
   <path id="path4158" d="m72.076 63.455c-0.50608 0.70291-0.76969 1.6149-0.4375 2.4375 0.23408 0.6167 0.78268 1.0332 1.25 1.4688 1.0916 0.88191 2.4884 1.4341 3.9062 1.3438 0.93573-0.05267 1.8444-0.56395 2.2812-1.4062 0.0303-0.06283 0.0606-0.12576 0.09375-0.1875-0.48198 0.64485-1.2581 1.0485-2.0625 1.0938-1.4179 0.09035-2.8146-0.46184-3.9062-1.3438-0.46732-0.43554-1.0159-0.85205-1.25-1.4688-0.25553-0.63281-0.15637-1.3323 0.125-1.9375z" fill="#fff" opacity=".5"/>
  </g>
  <g id="g4273">
   <path id="path4208" transform="translate(3.2143 6.7121)" d="m64.875 68.438c-1.5229 0.52214-3.8266 1.5894-5.2188 3-0.69607 0.7053-1.2083 1.5469-1.0938 2.4688 0.11329 0.91161 0.83366 1.7576 2.1562 2.5 0.01156 0.0076 0.01962 0.02372 0.03125 0.03125 1.6894 1.0943 4.0701 1.2592 6 0.5625 0.9716-0.35076 1.847-0.94604 2.4062-1.7812s0.78418-1.9136 0.53125-3.1562c-0.38386-2.1828-2.4288-3.9202-4.7188-3.625a0.45515 0.45515 0 0 0-0.09375 0z" fill="#162d50" opacity=".5"/>
   <path id="path4171" d="m68.244 74.946c-2.9451 1.0097-9.215 4.3231-4.0753 7.1694 3.0735 2.0259 9.2257 0.6826 8.2955-3.8878-0.34268-1.9486-2.1986-3.5422-4.2203-3.2816z" fill="url(#radialGradient4191)"/>
   <path id="path4193" transform="matrix(1.1919 .35581 -.33534 .74658 69.843 16.659)" d="m20.703 70.965a1.2422 1.0192 0 1 1-2.4844 0 1.2422 1.0192 0 1 1 2.4844 0z" fill="#fff" opacity=".9"/>
   <path id="path4195" transform="matrix(.64235 .16267 -.18073 .34131 71.286 50.866)" d="m20.703 70.965a1.2422 1.0192 0 1 1-2.4844 0 1.2422 1.0192 0 1 1 2.4844 0z" fill="#fff" opacity=".9"/>
   <path id="path4197" d="m62.402 78.915c-0.46062 1.0342-0.1066 2.142 1.7812 3.1875 2.7291 1.7988 7.8423 0.94563 8.3125-2.4688-1.1119 2.7261-5.659 3.3335-8.1562 1.6875-1.4095-0.78055-1.9402-1.6126-1.9375-2.4062z" fill="#fff" opacity=".5"/>
  </g>
  <g id="g4267">
   <path id="path4210" transform="translate(52.143 13.929)" d="m24.812 61.75c-0.23996-0.01798-0.47963-0.01998-0.71875 0.03125-0.70346 0.15072-1.3975 0.55046-1.7812 1.125-0.19189 0.28727-0.31422 0.63561-0.28125 1 0.03297 0.36439 0.24232 0.71375 0.5625 1.0312 0.57203 0.56831 1.3793 1.1609 2.2812 1.4375s1.956 0.21305 2.6875-0.59375c0.39794-0.41946 0.58512-0.90515 0.59375-1.375 0.0086-0.46985-0.17096-0.91006-0.4375-1.2812-0.5025-0.6998-1.3406-1.1629-2.2188-1.2188-0.049162-0.021918-0.10549-0.01356-0.15625-0.03125-0.17392-0.060606-0.3455-0.11108-0.53125-0.125z" fill="#162d50" opacity=".5"/>
   <path id="path4212" d="m77.472 75.527c-1.3802-0.61534-3.9284 1.0052-2.4756 2.4459 1.0663 1.0594 3.1701 2.2198 4.4233 0.83753 1.3781-1.4526-0.36132-3.2799-1.9477-3.2834z" fill="url(#radialGradient4218)"/>
   <path id="path4214" transform="matrix(.62585 .34761 -.26708 .48086 84.58 35.715)" d="m20.703 70.965a1.2422 1.0192 0 1 1-2.4844 0 1.2422 1.0192 0 1 1 2.4844 0z" fill="#fff" opacity=".9"/>
   <path id="path4216" d="m75.362 75.866c-0.74698 0.50112-1.1661 1.3093-0.375 2.0938 1.0288 1.0222 3.0166 2.1331 4.2812 0.96875-1.2568 0.68942-3.0045-0.32303-3.9375-1.25-0.65657-0.65107-0.46939-1.3109 0.03125-1.8125z" fill="#fff" opacity=".5"/>
  </g>
  <g id="g4301" transform="matrix(1.1657 0 0 1.1657 -5.167 -2.5716)">
   <path id="path4220" transform="matrix(.82679 .15495 -.15495 .82679 -22.96 -50.959)" d="m64.875 68.438c-1.5229 0.52214-3.8266 1.5894-5.2188 3-0.69607 0.7053-1.2083 1.5469-1.0938 2.4688 0.11329 0.91161 0.83366 1.7576 2.1562 2.5 0.01156 0.0076 0.01962 0.02372 0.03125 0.03125 1.6894 1.0943 4.0701 1.2592 6 0.5625 0.9716-0.35076 1.847-0.94604 2.4062-1.7812s0.78418-1.9136 0.53125-3.1562c-0.38386-2.1828-2.4288-3.9202-4.7188-3.625a0.45515 0.45515 0 0 0-0.09375 0z" fill="#162d50" opacity=".5"/>
   <path id="path4222" d="m20.233 15.532c-2.5915 0.37849-8.2887 2.1464-4.4803 5.2961 2.2272 2.1512 7.522 1.9939 7.4611-1.929 0.01862-1.6642-1.2689-3.2693-2.9808-3.3671z" fill="url(#radialGradient4316)"/>
   <path id="path4224" transform="matrix(.9303 .47887 -.39294 .56531 30.587 -32.411)" d="m20.703 70.965c0 0.56291-0.55615 1.0192-1.2422 1.0192-0.68604 0-1.2422-0.45633-1.2422-1.0192s0.55615-1.0192 1.2422-1.0192c0.68604 0 1.2422 0.45633 1.2422 1.0192z" fill="#fff" opacity=".9"/>
   <path id="path4226" transform="matrix(.50589 .23403 -.20231 .25419 26.479 -3.9055)" d="m20.703 70.965c0 0.56291-0.55615 1.0192-1.2422 1.0192-0.68604 0-1.2422-0.45633-1.2422-1.0192s0.55615-1.0192 1.2422-1.0192c0.68604 0 1.2422 0.45633 1.2422 1.0192z" fill="#fff" opacity=".9"/>
   <path id="path4228" d="m14.787 17.909c-0.54109 0.78369-0.42005 1.7545 0.97881 2.9114 1.9776 1.9102 6.3374 1.997 7.2553-0.7531-1.3417 2.0817-5.1954 1.8793-7.005 0.13138-1.0444-0.86376-1.3543-1.6339-1.2291-2.2897z" fill="#fff" opacity=".5"/>
  </g>
  <g id="g4308">
   <path id="path4232" transform="matrix(.61454 0 0 .61454 -22.854 11.18)" d="m75.375 20.062c-0.29738 0.07576-0.57557 0.20932-0.8125 0.375-0.47386 0.33135-0.86798 0.7614-1.1875 1.0312-1.1331 0.84596-2.4698 2.0513-3.25 3.4688-0.39009 0.70872-0.64525 1.4843-0.625 2.2812 0.02025 0.79699 0.32215 1.5918 0.96875 2.3438a0.39841 0.39841 0 0 0 0.03125 0.03125c1.0986 1.2056 2.8587 1.8102 4.5312 1.7188 1.6726-0.0915 3.2941-0.95525 3.9062-2.7188 0.49382-1.4239 0.66473-3.1548 0.3125-4.75s-1.2557-3.0768-2.9062-3.75a0.39841 0.39841 0 0 0-0.03125 0c-0.33199-0.10794-0.64012-0.10701-0.9375-0.03125z" fill="#162d50" opacity=".5"/>
   <path id="path4234" d="m22.468 23.866c-1.36 1.0154-3.2104 2.9204-1.7465 4.6228 1.226 1.3454 4.1048 1.4554 4.7864-0.5082 0.57706-1.664 0.39546-4.1555-1.4645-4.9141-0.63612-0.20682-1.1453 0.43629-1.5753 0.79949z" fill="url(#radialGradient4244)"/>
   <path id="path4236" transform="matrix(.38529 .24602 -.24602 .38529 28.556 -12.403)" d="m36.916 73.141a1.976 1.1228 0 1 1-3.9521 0 1.976 1.1228 0 1 1 3.9521 0z" fill="#fff" opacity=".9"/>
   <path id="path4238" d="m20.855 25.449c-0.68834 0.93233-1.0141 2.0113-0.13443 3.0343 1.1703 1.2843 3.8331 1.4466 4.6666-0.24966-1.0583 1.18-3.3111 0.93913-4.3594-0.21125-0.73193-0.85118-0.62244-1.7574-0.17284-2.5734z" fill="#fff" opacity=".5"/>
   <path id="path4240" transform="matrix(.38529 .24602 -.24602 .38529 28.556 -12.403)" d="m36.916 73.141a1.976 1.1228 0 1 1-3.9521 0 1.976 1.1228 0 1 1 3.9521 0z" fill="#fff" opacity=".9"/>
   <path id="path4242" transform="matrix(.24566 .15686 -.15686 .24566 27.755 2.4516)" d="m36.916 73.141a1.976 1.1228 0 1 1-3.9521 0 1.976 1.1228 0 1 1 3.9521 0z" fill="#fff" opacity=".9"/>
  </g>
  <g id="g4318" transform="matrix(.41555 0 0 .41555 2.3637 13.804)">
   <path id="path4320" d="m32.844 71.062c-2.4621 0.47955-4.7658 2.018-5.9375 4.3125a0.60151 0.60151 0 0 0-0.03125 0.0625c-0.5869 1.4674 0.09545 2.9559 0.875 4 0.0079 0.01052 0.02338 0.02082 0.03125 0.03125 0.77033 1.0785 1.8469 1.9897 3.1562 2.4375 1.1277 0.39872 2.4108 0.5381 3.625 0.125a0.60151 0.60151 0 0 0 0.09375-0.03125c1.7425-0.85832 3.5499-2.1372 4.2812-4.1875 0.0032-0.0091-0.0032-0.02215 0-0.03125 0.33894-0.90428 0.357-2.0324-0.28125-2.9062-0.0046-0.0064-0.02666 0.0063-0.03125 0-0.0047-0.0065 0.0047-0.0248 0-0.03125-0.78419-1.0714-1.8538-1.6497-2.5-2.4062a0.60151 0.60151 0 0 0-0.09375-0.09375c-0.84342-0.69148-1.8691-1.1778-3-1.2812a0.60151 0.60151 0 0 0-0.1875 0z" fill="#162d50" opacity=".5"/>
   <path id="path4322" d="m32.964 70.671c-2.2918 0.44638-4.4458 1.8835-5.5195 3.9861-0.4765 1.1914 0.08385 2.4883 0.80804 3.4476 0.71224 1.0092 1.6916 1.846 2.8713 2.2494 1.0306 0.36436 2.1993 0.48138 3.2458 0.12533 1.6841-0.82954 3.3604-2.058 4.0051-3.8955 0.29541-0.769 0.2898-1.6878-0.22234-2.3657-0.68011-0.94792-1.7423-1.52-2.4944-2.4006-0.76419-0.62652-1.7046-1.0562-2.6939-1.1467z" fill="url(#radialGradient4013)"/>
   <path id="path4324" transform="matrix(.94813 .31787 -.31787 .94813 23.894 -7.3129)" d="m36.916 73.141c0 0.62008-0.8847 1.1228-1.976 1.1228-1.0913 0-1.976-0.50267-1.976-1.1228s0.8847-1.1228 1.976-1.1228c1.0913 0 1.976 0.50267 1.976 1.1228z" fill="#fff" opacity=".9"/>
   <path id="path4326" d="m27.75 74.156c-0.10393 0.16578-0.22303 0.32478-0.3125 0.5-0.4765 1.1914 0.08831 2.4782 0.8125 3.4375 0.71224 1.0092 1.6954 1.8465 2.875 2.25 1.0306 0.36436 2.2035 0.48105 3.25 0.125 1.6139-0.79498 3.2077-1.9436 3.9062-3.6562-0.80889 1.3134-2.163 2.2635-3.5312 2.9375-1.0465 0.35605-2.2194 0.23936-3.25-0.125-1.1796-0.40346-2.1628-1.2408-2.875-2.25-0.67892-0.89932-1.2034-2.0911-0.875-3.2188z" fill="#fff" opacity=".5"/>
  </g>
 </g>
</svg>
