<?xml version="1.0" encoding="UTF-8"?>
<svg id="svg77" width="96" height="96" version="1.1" xmlns="http://www.w3.org/2000/svg" xmlns:cc="http://creativecommons.org/ns#" xmlns:dc="http://purl.org/dc/elements/1.1/" xmlns:rdf="http://www.w3.org/1999/02/22-rdf-syntax-ns#" xmlns:xlink="http://www.w3.org/1999/xlink">
 <metadata id="metadata81">
  <rdf:RDF>
   <cc:Work rdf:about="">
    <dc:format>image/svg+xml</dc:format>
    <dc:type rdf:resource="http://purl.org/dc/dcmitype/StillImage"/>
   </cc:Work>
  </rdf:RDF>
 </metadata>
 <defs id="defs2410">
  <filter id="filter3794" x="-.192" y="-.192" width="1.384" height="1.384">
   <feGaussianBlur id="feGaussianBlur3796" stdDeviation="5.28"/>
  </filter>
  <linearGradient id="linearGradient3613" x1="48" x2="48" y1="20.221" y2="138.66" gradientUnits="userSpaceOnUse">
   <stop id="stop3739" stop-color="#fff" offset="0"/>
   <stop id="stop3741" stop-color="#fff" stop-opacity="0" offset="1"/>
  </linearGradient>
  <linearGradient id="buttonGradient" x1="48" x2="48" y1="90" y2="5.9877" gradientUnits="userSpaceOnUse">
   <stop id="stop3702" stop-color="#171717" offset="0"/>
   <stop id="stop3704" stop-color="#333" offset="1"/>
  </linearGradient>
  <linearGradient id="ButtonShadow-0" x1="45.448" x2="45.448" y1="92.54" y2="7.0165" gradientTransform="matrix(1.0059 0 0 .99417 100 0)" gradientUnits="userSpaceOnUse">
   <stop id="stop3750-8" offset="0"/>
   <stop id="stop3752-5" stop-opacity=".58824" offset="1"/>
  </linearGradient>
  <linearGradient id="linearGradient3780" x1="32.251" x2="32.251" y1="6.1317" y2="90.239" gradientTransform="matrix(1.0238 0 0 1.0119 -1.1429 -98.071)" gradientUnits="userSpaceOnUse" xlink:href="#ButtonShadow-0"/>
  <linearGradient id="linearGradient3721" x1="32.251" x2="32.251" y1="6.1317" y2="90.239" gradientTransform="translate(0,-97)" gradientUnits="userSpaceOnUse" xlink:href="#ButtonShadow-0"/>
  <clipPath id="clipPath4355">
   <rect id="rect4357" x="6" y="6" width="84" height="84" rx="6" ry="6" fill="#fff"/>
  </clipPath>
  <linearGradient id="linearGradient4390" x1="48" x2="48" y1="88" y2="-40" gradientTransform="matrix(1,0,0,-1,0,92)" gradientUnits="userSpaceOnUse">
   <stop id="stop4386" stop-color="#fff" offset="0"/>
   <stop id="stop4388" stop-color="#fff" stop-opacity="0" offset="1"/>
  </linearGradient>
 </defs>
 <g id="layer3">
  <g id="g32" fill="url(#linearGradient3780)">
   <path id="path3786" transform="scale(1,-1)" d="m12-95.021c-5.5111 0-10.022 4.51-10.022 10.021v71c0 5.5111 4.5104 10.021 10.021 10.021h72c5.5111 0 10.021-4.5104 10.021-10.021v-71c0-5.5111-4.5104-10.021-10.021-10.021h-72z" opacity=".08"/>
   <path id="path3778" transform="scale(1,-1)" d="m12-94.035c-4.9716 0-9.0352 4.0635-9.0352 9.0352v71c0 4.9716 4.0635 9.0352 9.0352 9.0352h72c4.9716 0 9.0352-4.0635 9.0352-9.0352v-71c0-4.9716-4.0635-9.0352-9.0352-9.0352h-72z" opacity=".1"/>
   <path id="path3770" transform="scale(1,-1)" d="m12-92.99c-4.4091 0-7.9902 3.5811-7.9902 7.9902v71c0 4.4091 3.5811 7.9902 7.9902 7.9902h72c4.4091 0 7.9902-3.5811 7.9902-7.9902v-71c0-4.4091-3.5811-7.9902-7.9902-7.9902h-72z" opacity=".2"/>
   <rect id="rect3723" transform="scale(1,-1)" x="5" y="-92" width="86" height="85" rx="7" ry="7" opacity=".3"/>
  </g>
  <rect id="rect3716" transform="scale(1,-1)" x="6" y="-91" width="84" height="84" rx="6" ry="6" fill="url(#linearGradient3721)" opacity=".45"/>
 </g>
 <g id="layer1">
  <rect id="button" x="6" y="6" width="84" height="84" rx="6" ry="6" fill="url(#buttonGradient)"/>
  <path id="rect4377" d="m12 6c-3.324 0-6 2.676-6 6v72c0 3.324 2.676 6 6 6h72c3.324 0 6-2.676 6-6v-72c0-3.324-2.676-6-6-6zm0 2h72c2.805 0 5 2.195 5 5v70c0 2.805-2.195 5-5 5h-72c-2.805 0-5-2.195-5-5v-70c0-2.805 2.195-5 5-5z" fill="url(#linearGradient4390)" opacity=".3"/>
 </g>
 <g id="layer5">
  <rect id="rect3171" x="15" y="15" width="66" height="66" rx="12" ry="12" clip-path="url(#clipPath4355)" fill="url(#linearGradient3613)" filter="url(#filter3794)" opacity=".1" stroke="#fff" stroke-linecap="round" stroke-width=".5"/>
 </g>
 <defs id="defs53">
  <linearGradient id="a" x1="8" x2="8" y1="4" y2="11" gradientTransform="matrix(4,0,0,4,16,14)" gradientUnits="userSpaceOnUse">
   <stop id="stop48" stop-color="#ff5050" offset="0"/>
   <stop id="stop50" stop-color="#ff5050" offset="1"/>
  </linearGradient>
 </defs>
 <path id="path55" transform="matrix(4,0,0,4,16,15)" d="m1.5 3.75c-0.41118 0-0.75 0.33882-0.75 0.75v6c0 0.41118 0.33882 0.75 0.75 0.75h1.5a0.25002 0.25002 0 0 0 0.25-0.25 0.25002 0.25002 0 0 0 0.25 0.25h1.5a0.25002 0.25002 0 0 0 0.25-0.25v-1a0.25002 0.25002 0 0 0-0.25-0.25h-1.5a0.25002 0.25002 0 0 0-0.25 0.23242v-4.9824a0.25002 0.25002 0 0 0 0.25 0.25h1.5a0.25002 0.25002 0 0 0 0.25-0.25v-1a0.25002 0.25002 0 0 0-0.25-0.25h-1.5a0.25002 0.25002 0 0 0-0.25 0.25 0.25002 0.25002 0 0 0-0.25-0.25h-1zm5.5 0a0.25002 0.25002 0 0 0-0.25 0.25v7a0.25002 0.25002 0 0 0 0.25 0.25h1a0.25002 0.25002 0 0 0 0.25-0.25v-5.2148l1.5098 5.2832a0.25002 0.25002 0 0 0 0.24023 0.18164h2a0.25002 0.25002 0 0 0 0.24023-0.31836l-0.18555-0.65039a0.25002 0.25002 0 0 0 0.43555-0.08789l1.2598-4.4082v5.2148a0.25002 0.25002 0 0 0 0.25 0.25h1a0.25002 0.25002 0 0 0 0.25-0.25v-7a0.25002 0.25002 0 0 0-0.25-0.25h-0.5a0.25002 0.25002 0 0 0-0.24023 0.18164l-0.011719 0.037109a0.25002 0.25002 0 0 0-0.24805-0.21875h-2a0.25002 0.25002 0 0 0-0.24023 0.18164l-0.75 2.625a0.25002 0.25002 0 0 0-0.0078 0.039063l-0.76173-2.6641a0.25002 0.25002 0 0 0-0.24023-0.18164h-2a0.25002 0.25002 0 0 0-0.24805 0.2207l-0.011719-0.039062a0.25002 0.25002 0 0 0-0.24023-0.18164z" opacity=".15"/>
 <path id="path58" transform="matrix(4,0,0,4,16,15)" d="m1.5 3.5c-0.54535 0-1 0.45465-1 1v6c0 0.54535 0.45465 1 1 1h1.5a0.50005 0.50005 0 0 0 0.25195-0.068359 0.50005 0.50005 0 0 0 0.24805 0.068359h1.5a0.50005 0.50005 0 0 0 0.5-0.5v-1a0.50005 0.50005 0 0 0-0.5-0.5h-1.5v-4h1.5a0.50005 0.50005 0 0 0 0.5-0.5v-1a0.50005 0.50005 0 0 0-0.5-0.5h-1.5a0.50005 0.50005 0 0 0-0.25195 0.068359 0.50005 0.50005 0 0 0-0.24805-0.068359h-1zm5.5 0a0.50005 0.50005 0 0 0-0.5 0.5v7a0.50005 0.50005 0 0 0 0.5 0.5h1a0.50005 0.50005 0 0 0 0.5-0.5v-3.4316l1.0195 3.5684a0.50005 0.50005 0 0 0 0.48047 0.36328h2a0.50005 0.50005 0 0 0 0.48047-0.63672l-0.07422-0.26367a0.50005 0.50005 0 0 0 0.32422-0.33789l0.76953-2.6934v3.4316a0.50005 0.50005 0 0 0 0.5 0.5h1a0.50005 0.50005 0 0 0 0.5-0.5v-7a0.50005 0.50005 0 0 0-0.5-0.5h-0.5a0.50005 0.50005 0 0 0-0.25 0.066406 0.50005 0.50005 0 0 0-0.25-0.066406h-2a0.50005 0.50005 0 0 0-0.48047 0.36328l-0.51953 1.8184-0.51953-1.8184a0.50005 0.50005 0 0 0-0.48047-0.36328h-2a0.50005 0.50005 0 0 0-0.25 0.066406 0.50005 0.50005 0 0 0-0.25-0.066406z" opacity=".1"/>
 <path id="path61" transform="matrix(4,0,0,4,16,15)" d="m1.5 3.25c-0.67953 0-1.25 0.57047-1.25 1.25v6c0 0.67953 0.57047 1.25 1.25 1.25h1.5a0.75008 0.75008 0 0 0 0.25-0.042969 0.75008 0.75008 0 0 0 0.25 0.042969h1.5a0.75008 0.75008 0 0 0 0.75-0.75v-1a0.75008 0.75008 0 0 0-0.75-0.75h-1.25v-3.5h1.25a0.75008 0.75008 0 0 0 0.75-0.75v-1a0.75008 0.75008 0 0 0-0.75-0.75h-1.5a0.75008 0.75008 0 0 0-0.25 0.042969 0.75008 0.75008 0 0 0-0.25-0.042969h-1zm5.5 0a0.75008 0.75008 0 0 0-0.75 0.75v7a0.75008 0.75008 0 0 0 0.75 0.75h1a0.75008 0.75008 0 0 0 0.75-0.75v-1.6484l0.5293 1.8535a0.75008 0.75008 0 0 0 0.7207 0.54492h2a0.75008 0.75008 0 0 0 0.7207-0.95508l-0.01953-0.07227a0.75008 0.75008 0 0 0 0.26953-0.39258l0.2793-0.97851v1.6484a0.75008 0.75008 0 0 0 0.75 0.75h1a0.75008 0.75008 0 0 0 0.75-0.75v-7a0.75008 0.75008 0 0 0-0.75-0.75h-0.5a0.75008 0.75008 0 0 0-0.25 0.042969 0.75008 0.75008 0 0 0-0.25-0.042969h-2a0.75008 0.75008 0 0 0-0.7207 0.54492l-0.2793 0.97852-0.2793-0.97852a0.75008 0.75008 0 0 0-0.7207-0.54492h-2a0.75008 0.75008 0 0 0-0.25 0.042969 0.75008 0.75008 0 0 0-0.25-0.042969z" opacity=".05"/>
 <path id="base" d="m22 30c-1.108 0-2 0.892-2 2v24c0 1.108 0.892 2 2 2h6v-28h-4zm8 0v4h6v-4zm14 0v28h4v-21l-2-7zm4 0 8 28h8l-8-28zm16 0-3 10.5 4 14 7-24.5zm10 0-2 7v21h4v-28zm-44 24v4h6v-4z" fill="url(#a)" stroke-width="4"/>
 <path id="path65" d="m48 31 8 28h8l-0.28516-1h-7.7148l-7.7148-27zm23.715 0-6.7148 23.5-3.8574-13.5-0.14258 0.5 4 14 7-24.5zm-41.715 3v1h6v-1zm-10 22v1c0 1.108 0.892 2 2 2h6v-1h-6c-1.108 0-2-0.892-2-2zm10 2v1h6v-1zm14 0v1h4v-1zm28 0v1h4v-1z" opacity=".3" stroke-width="4"/>
 <path id="path70" d="m22 30c-1.108 0-2 0.892-2 2v1c0-1.108 0.892-2 2-2h6v-1h-4zm8 0v1h6v-1zm14 0v1h2l2 7v-1l-2-7zm4 0 0.28516 1h7.7148l7.7148 27h0.28516l-8-28zm16 0-3 10.5 0.14258 0.5 2.8574-10h7.7148l0.28516-1zm10 0-2 7v1l2-7h2v-1zm-44 24v1h6v-1z" fill="#fff" opacity=".3" stroke-width="4"/>
</svg>
