<?xml version="1.0" encoding="UTF-8"?>
<!-- Created with Inkscape (http://www.inkscape.org/) -->
<svg id="svg9481" width="128" height="128" version="1.0" xmlns="http://www.w3.org/2000/svg" xmlns:cc="http://creativecommons.org/ns#" xmlns:dc="http://purl.org/dc/elements/1.1/" xmlns:rdf="http://www.w3.org/1999/02/22-rdf-syntax-ns#" xmlns:xlink="http://www.w3.org/1999/xlink">
 <metadata id="metadata54">
  <rdf:RDF>
   <cc:Work rdf:about="">
    <dc:format>image/svg+xml</dc:format>
    <dc:type rdf:resource="http://purl.org/dc/dcmitype/StillImage"/>
   </cc:Work>
  </rdf:RDF>
 </metadata>
 <defs id="defs9483">
  <linearGradient id="linearGradient5060-6">
   <stop id="stop5062-3" offset="0"/>
   <stop id="stop5064-1" stop-opacity="0" offset="1"/>
  </linearGradient>
  <linearGradient id="linearGradient3308" x1="12.579" x2="12.579" y1="2.9137" y2="43.811" gradientTransform="matrix(2.6421 0 0 2.4848 .58735 11.864)" gradientUnits="userSpaceOnUse">
   <stop id="stop2240" stop-color="#fff" offset="0"/>
   <stop id="stop2242" stop-color="#fff" stop-opacity="0" offset="1"/>
  </linearGradient>
  <linearGradient id="linearGradient3311" x1="33.579" x2="33.579" y1="5.7086" y2="16.323" gradientTransform="matrix(2.191 0 0 1.7592 -6.6088 8.121)" gradientUnits="userSpaceOnUse">
   <stop id="stop3793" stop-color="#fafafa" offset="0"/>
   <stop id="stop3795" stop-color="#c5c5c5" offset="1"/>
  </linearGradient>
  <linearGradient id="linearGradient3313" x1="16.916" x2="16.916" y1="7.0006" y2="14" gradientTransform="matrix(2.6889 0 0 2.667 -.53334 -.50385)" gradientUnits="userSpaceOnUse">
   <stop id="stop3960" stop-color="#a1a1a1" offset="0"/>
   <stop id="stop3962" stop-color="#4d4d4d" offset="1"/>
  </linearGradient>
  <linearGradient id="linearGradient3316" x1="24.683" x2="24.683" y1="9.2417" y2="13.523" gradientTransform="matrix(2.6081 0 0 .93602 1.4228 27.35)" gradientUnits="userSpaceOnUse">
   <stop id="stop3284" offset="0"/>
   <stop id="stop3286" stop-opacity="0" offset="1"/>
  </linearGradient>
  <linearGradient id="linearGradient3319" x1="16.626" x2="20.055" y1="15.298" y2="24.628" gradientTransform="matrix(2.6122 0 0 2.7869 1.3061 3.3658)" gradientUnits="userSpaceOnUse">
   <stop id="stop2687" stop-color="#fff" offset="0"/>
   <stop id="stop2689" stop-color="#fff" stop-opacity="0" offset="1"/>
  </linearGradient>
  <radialGradient id="radialGradient3322" cx="26.617" cy="-2.0645" r="23" gradientTransform="matrix(-4.8906e-8 -2.8515 3.7557 0 96.174 156.12)" gradientUnits="userSpaceOnUse">
   <stop id="stop8022" stop-color="#b0cf85" offset="0"/>
   <stop id="stop8024" stop-color="#9bbe74" offset=".26238"/>
   <stop id="stop8026" stop-color="#7da051" offset=".70495"/>
   <stop id="stop8028" stop-color="#5d892c" offset="1"/>
  </radialGradient>
  <linearGradient id="linearGradient3324" x1="10.014" x2="10.014" y1="44.96" y2="2.8765" gradientTransform="matrix(2.5746 0 0 2.4175 2.2107 10.951)" gradientUnits="userSpaceOnUse">
   <stop id="stop8032" stop-color="#466c1a" offset="0"/>
   <stop id="stop8034" stop-color="#929c78" offset="1"/>
  </linearGradient>
  <radialGradient id="radialGradient3327" cx="605.71" cy="486.65" r="117.14" gradientTransform="matrix(-.14458 0 0 .053529 105.13 91.374)" gradientUnits="userSpaceOnUse" xlink:href="#linearGradient5060-6"/>
  <radialGradient id="radialGradient3330" cx="605.71" cy="486.65" r="117.14" gradientTransform="matrix(.14458 0 0 .053529 22.866 91.374)" gradientUnits="userSpaceOnUse" xlink:href="#linearGradient5060-6"/>
  <linearGradient id="linearGradient3333" x1="302.86" x2="302.86" y1="366.65" y2="609.51" gradientTransform="matrix(.19053 0 0 .053529 -4.8639 91.374)" gradientUnits="userSpaceOnUse">
   <stop id="stop5050-5" stop-opacity="0" offset="0"/>
   <stop id="stop5056-9" offset=".5"/>
   <stop id="stop5052-6" stop-opacity="0" offset="1"/>
  </linearGradient>
 </defs>
 <rect id="rect2512" x="18" y="111" width="92" height="13" fill="url(#linearGradient3333)" opacity=".3"/>
 <path id="path2514" d="m110 111v12.999c7.4457 0.02447 18-2.9125 18-6.5005 0-3.588-8.3088-6.4988-18-6.4988z" fill="url(#radialGradient3330)" opacity=".3"/>
 <path id="path2516" d="m18 111v12.999c-7.4457 0.02447-18-2.9125-18-6.5005s8.3088-6.4988 18-6.4988z" fill="url(#radialGradient3327)" opacity=".3"/>
 <rect id="rect2573" x="3.5011" y="19.501" width="121" height="98.998" rx="7" ry="7" fill="url(#radialGradient3322)" fill-rule="evenodd" stroke="url(#linearGradient3324)" stroke-linecap="round" stroke-linejoin="round" stroke-width="1.0021"/>
 <path id="path2603" d="m9.7143 20c-3.1563 0-5.7143 2.729-5.7143 6.0963v44.59c0.0072382 0.37512 0.16143 0.72986 0.42514 0.9781s0.61283 0.36729 0.96261 0.32824l117.55-19.857c0.60468-0.10174 1.0528-0.65334 1.0612-1.3064v-24.734c0-3.3673-2.558-6.0963-5.7143-6.0963h-108.57z" fill="url(#linearGradient3319)" fill-rule="evenodd" opacity=".2"/>
 <rect id="rect1436" x="4" y="36" width="120" height="4" rx="0" ry="0" fill="url(#linearGradient3316)" fill-rule="evenodd" opacity=".2"/>
 <path id="rect2311" d="m11.567 19.5 105.77 0.022904c4.2079 0 7.1626 3.3635 7.1626 7.0855v8.8916h-121l-3e-7 -8.8916c0-3.9671 3.2503-7.1084 8.0667-7.1084z" fill="url(#linearGradient3311)" fill-rule="evenodd" stroke="url(#linearGradient3313)"/>
 <rect id="rect2601" x="4.5019" y="20.502" width="119" height="96.996" rx="6" ry="6" fill="none" opacity=".4" stroke="url(#linearGradient3308)" stroke-linecap="round" stroke-linejoin="round" stroke-width="1.0037"/>
 <rect id="rect9439" x="22.5" y="99.5" width="83" height="19" rx="0" ry="0" fill="#1a1a1a" opacity=".5" stroke="#000"/>
 <path id="rect2429" d="m21.5 119v-20.5h85v20.5" fill="none" opacity=".2" stroke="#fff"/>
</svg>
