<?xml version="1.0" encoding="UTF-8"?>
<svg id="svg2" width="96" height="96" version="1.1" xmlns="http://www.w3.org/2000/svg" xmlns:cc="http://creativecommons.org/ns#" xmlns:dc="http://purl.org/dc/elements/1.1/" xmlns:rdf="http://www.w3.org/1999/02/22-rdf-syntax-ns#" xmlns:xlink="http://www.w3.org/1999/xlink">
 <metadata id="metadata94">
  <rdf:RDF>
   <cc:Work rdf:about="">
    <dc:format>image/svg+xml</dc:format>
    <dc:type rdf:resource="http://purl.org/dc/dcmitype/StillImage"/>
    <dc:title/>
   </cc:Work>
  </rdf:RDF>
 </metadata>
 <defs id="defs4">
  <linearGradient id="f-2" x1="45.448" x2="45.448" y1="92.54" y2="7.0165" gradientTransform="matrix(1.0059 0 0 .99417 100 0)" gradientUnits="userSpaceOnUse">
   <stop id="stop17" offset="0"/>
   <stop id="stop19" stop-opacity=".58824" offset="1"/>
  </linearGradient>
  <linearGradient id="r" x1="32.251" x2="32.251" y1="6.1317" y2="90.239" gradientTransform="matrix(1 0 0 -1 0 95.5)" gradientUnits="userSpaceOnUse" xlink:href="#f-2"/>
  <linearGradient id="p-0" x1="36.357" x2="36.357" y1="6" y2="63.893" gradientTransform="translate(0,-1.4998)" gradientUnits="userSpaceOnUse" xlink:href="#e-9"/>
  <linearGradient id="e-9" stop-color="#fff">
   <stop id="stop7-7" offset="0"/>
   <stop id="stop9-5" stop-opacity="0" offset="1"/>
  </linearGradient>
  <radialGradient id="g-7" cx="48" cy="90.172" r="42" gradientTransform="matrix(1.1573 0 0 .99591 -7.551 -1.3027)" gradientUnits="userSpaceOnUse" xlink:href="#e-9"/>
  <linearGradient id="linearGradient14093" x1="32.251" x2="32.251" y1="6.1317" y2="90.239" gradientTransform="matrix(1.0238,0,0,-1.0119,-1.1429,98.071)" gradientUnits="userSpaceOnUse" xlink:href="#f-2"/>
  <radialGradient id="radialGradient14673" cx="52.068" cy="47.721" r="42" gradientTransform="matrix(1.2077 -.022293 .029534 1.6 -12.226 -27.473)" gradientUnits="userSpaceOnUse">
   <stop id="stop14669" stop-color="#6b573b" offset="0"/>
   <stop id="stop14671" stop-color="#2e2212" offset="1"/>
  </radialGradient>
  <linearGradient id="i-76" x1="124.39" x2="124.39" y1="6" y2="63.607" stop-color="#fff" gradientTransform="translate(-291.96 -19.566)" gradientUnits="userSpaceOnUse">
   <stop id="stop14707" offset="0"/>
   <stop id="stop14709" stop-opacity="0" offset="1"/>
  </linearGradient>
  <filter id="filter3174" color-interpolation-filters="sRGB">
   <feGaussianBlur id="feGaussianBlur3176" stdDeviation="1.71"/>
  </filter>
  <linearGradient id="ButtonShadow" x1="45.448" x2="45.448" y1="92.54" y2="7.0165" gradientTransform="scale(1.0059 .99417)" gradientUnits="userSpaceOnUse">
   <stop id="stop3750" offset="0"/>
   <stop id="stop3752" stop-opacity=".58824" offset="1"/>
  </linearGradient>
 </defs>
 <g id="g41" transform="translate(0,-1.4998)" fill="url(#linearGradient14093)">
  <path id="path43" d="m12 3.9688c-5.5111 0-10.031 4.5201-10.031 10.031v71c0 5.5111 4.5202 10.031 10.031 10.031h72c5.5111 0 10.031-4.5202 10.031-10.031v-71c0-5.5113-4.52-10.031-10.031-10.031h-72zm0 2.0312h72c3.324 0 6 2.676 6 6v72c0 3.324-2.676 6-6 6h-72c-3.324 0-6-2.676-6-6v-72c0-3.324 2.676-6 6-6z" opacity=".08"/>
  <path id="path45" d="m12 4.9688c-4.9716 0-9.0312 4.0596-9.0312 9.0312v71c0 4.9716 4.0596 9.0312 9.0312 9.0312h72c4.9716 0 9.0312-4.0596 9.0312-9.0312v-71c0-4.9716-4.059-9.0312-9.031-9.0312h-72zm0 1.0312h72c3.324 0 6 2.676 6 6v72c0 3.324-2.676 6-6 6h-72c-3.324 0-6-2.676-6-6v-72c0-3.324 2.676-6 6-6z" opacity=".1"/>
  <path id="path47" d="m11.188 6.0312c-4.028 0.4107-7.188 3.8352-7.188 7.9688v71c0 4.4091 3.5909 8 8 8h72c4.4091 0 8-3.5909 8-8v-71c0-4.1971-3.259-7.646-7.375-7.9688 3.033 0.3062 5.375 2.8526 5.375 5.9688v72c0 3.324-2.676 6-6 6h-72c-3.324 0-6-2.676-6-6v-72c0-3.1162 2.3421-5.6626 5.375-5.9688-0.06227 0.00488-0.12563-0.00631-0.1875 0z" opacity=".2"/>
  <path id="path49" d="m6.4375 9.75c-0.8995 1.177-1.4375 2.647-1.4375 4.25v71c0 3.878 3.122 7 7 7h72c3.878 0 7-3.122 7-7v-71c0-1.603-0.538-3.073-1.438-4.25 0.28 0.694 0.438 1.454 0.438 2.25v72c0 3.324-2.676 6-6 6h-72c-3.324 0-6-2.676-6-6v-72c0-0.796 0.1582-1.556 0.4375-2.25z" opacity=".3"/>
 </g>
 <path id="path51" d="m6 82.5v1c0 3.324 2.676 6 6 6h72c3.324 0 6-2.676 6-6v-1c0 3.324-2.676 6-6 6h-72c-3.324 0-6-2.676-6-6z" fill="url(#r)" opacity=".45"/>
 <rect id="rect53" x="6" y="4.5002" width="84" height="84" rx="6" ry="6" fill="url(#radialGradient14673)" opacity=".6"/>
 <path id="path55" d="m12 4.5002c-3.324 0-6 2.676-6 6v72c0 0.33472 0.04135 0.6507 0.09375 0.96875 0.0487 0.2956 0.09704 0.59692 0.1875 0.875 0.0099 0.0304 0.02089 0.0636 0.03125 0.0937 0.09886 0.28777 0.23488 0.54745 0.375 0.8125 0.14459 0.27351 0.31562 0.53562 0.5 0.78125 0.18438 0.24564 0.37378 0.47347 0.59375 0.6875 0.43995 0.42806 0.94291 0.81453 1.5 1.0938 0.27854 0.13961 0.57347 0.24695 0.875 0.34375-0.2562-0.10022-0.48671-0.23627-0.71875-0.375-0.0074-4e-3 -0.02387 4e-3 -0.03125 0-0.0319-0.019-0.0622-0.042-0.0937-0.062-0.1204-0.077-0.231-0.164-0.3437-0.25-0.1062-0.081-0.2133-0.161-0.3126-0.25-0.1778-0.162-0.3473-0.346-0.4999-0.531-0.1075-0.131-0.2183-0.266-0.3124-0.407-0.0251-0.038-0.0385-0.086-0.0626-0.125-0.0647-0.103-0.1302-0.204-0.1874-0.312-0.1011-0.195-0.2057-0.416-0.2813-0.625-8e-3 -0.022-0.0236-0.041-0.0313-0.063-0.0318-0.092-0.0358-0.187-0.0624-0.281-0.0304-0.107-0.0704-0.203-0.0938-0.313-0.0729-0.341-0.125-0.698-0.125-1.062v-72c0-2.782 2.2182-5 5-5h72c2.7818 0 5 2.2182 5 5v72c0 0.3643-0.0521 0.72099-0.125 1.0625-0.0442 0.20689-0.0884 0.39766-0.15625 0.59375-8e-3 0.022-0.0233 0.0407-0.0312 0.0625-0.0627 0.17374-0.13838 0.36745-0.21875 0.53125-0.0416 0.0828-0.079 0.16995-0.125 0.25-0.0546 0.0972-0.12677 0.18835-0.1875 0.28125-0.0941 0.14096-0.20492 0.276-0.3125 0.40625-0.14317 0.17445-0.30314 0.347-0.46875 0.5-0.0112 0.0102-0.02 0.0212-0.0312 0.0312-0.13839 0.12556-0.28509 0.23444-0.4375 0.34375-0.10257 0.0731-0.20432 0.15336-0.3125 0.21875-7e-3 5e-3 -0.0238-4e-3 -0.0312 0-0.23204 0.13873-0.46255 0.27478-0.71875 0.375 0.30153-0.0968 0.59646-0.20414 0.875-0.34375 0.55709-0.27922 1.0601-0.66569 1.5-1.0938 0.21997-0.21403 0.40937-0.44186 0.59375-0.6875s0.35541-0.50774 0.5-0.78125c0.14012-0.26505 0.27614-0.52473 0.375-0.8125 0.0104-0.0308 0.0213-0.0627 0.0312-0.0937 0.0905-0.27808 0.1388-0.5794 0.1875-0.875 0.053-0.318 0.094-0.634 0.094-0.969v-72c0-3.324-2.676-6-6-6h-72z" fill="url(#p-0)" opacity=".01"/>
 <path id="path57" d="m12 88.5c-3.324 0-6-2.676-6-6v-72c0-0.33472 0.04135-0.6507 0.09375-0.96875 0.0487-0.2956 0.09704-0.59692 0.1875-0.875 0.0099-0.03 0.0209-0.063 0.0313-0.094 0.0989-0.2873 0.2349-0.547 0.375-0.812 0.1446-0.2735 0.3156-0.5356 0.5-0.7812 0.1844-0.2457 0.3738-0.4735 0.5937-0.6876 0.44-0.428 0.943-0.8145 1.5-1.0937 0.2786-0.1396 0.5735-0.2469 0.8748-0.3437-0.256 0.1002-0.4865 0.2362-0.7185 0.375-0.0074 0.0044-0.02387-0.0045-0.03125 0-0.03193 0.0193-0.06229 0.04251-0.09375 0.0625-0.1204 0.0767-0.23102 0.16351-0.34375 0.25-0.10617 0.0808-0.21328 0.16111-0.3125 0.25-0.1779 0.1614-0.3474 0.3453-0.5 0.5312-0.1075 0.1303-0.2183 0.2653-0.3124 0.4063-0.0251 0.0383-0.0385 0.0858-0.0626 0.125-0.0647 0.103-0.1302 0.2045-0.1874 0.3124-0.1011 0.1948-0.2057 0.4158-0.2813 0.625-8e-3 0.0219-0.0236 0.0406-0.0313 0.0626-0.0318 0.0919-0.0358 0.1868-0.0624 0.2812-0.0304 0.1066-0.0704 0.203-0.0938 0.3125-0.0729 0.3415-0.125 0.6985-0.125 1.0625v72c0 2.7818 2.2182 5 5 5h72c2.7818 0 5-2.2182 5-5v-72c0-0.364-0.052-0.721-0.125-1.0625-0.044-0.2069-0.088-0.3977-0.156-0.5937-8e-3 -0.022-0.024-0.0407-0.031-0.0626-0.063-0.1737-0.139-0.3674-0.219-0.5312-0.042-0.0828-0.079-0.17-0.125-0.25-0.055-0.0972-0.127-0.1884-0.188-0.2812-0.094-0.141-0.205-0.276-0.312-0.4063-0.143-0.1745-0.303-0.347-0.469-0.5-0.011-0.0102-0.02-0.0211-0.031-0.0313-0.139-0.1255-0.285-0.2344-0.438-0.3437-0.102-0.0731-0.204-0.1534-0.312-0.2187-7e-3 -0.0045-0.0238 0.0044-0.0312 0-0.23204-0.13873-0.46255-0.27478-0.71875-0.375 0.30153 0.0968 0.59646 0.20414 0.875 0.34375 0.55709 0.27922 1.0601 0.66569 1.5 1.0938 0.21997 0.21403 0.40937 0.44186 0.59375 0.6875s0.35541 0.50774 0.5 0.78125c0.14012 0.26505 0.27614 0.52473 0.375 0.8125 0.0104 0.03078 0.0213 0.06274 0.0312 0.09375 0.0905 0.27808 0.1388 0.5794 0.1875 0.875 0.053 0.318 0.094 0.634 0.094 0.969v72c0 3.324-2.676 6-6 6h-72z" fill="url(#g-7)" opacity=".15"/>
 <path id="path14489" d="m35.167 68.962v-5.4895l-10.784-0.0471-0.49857-0.23437c-0.66361-0.31195-1.1859-0.82572-1.5178-1.4931l-0.27241-0.54773v-17.232-17.232l0.20594-0.48848c0.2463-0.58422 0.93438-1.2919 1.5164-1.5597 0.22104-0.10168 0.61857-0.22322 0.8834-0.27008 0.31885-0.05642 8.391-0.07777 23.894-0.06321 22.218 0.02087 23.433 0.02966 23.809 0.17212 0.85765 0.32503 1.5649 1.0072 1.9182 1.8503 0.13991 0.33382 0.15227 1.5437 0.17582 17.212 0.01783 11.892-0.0026 17.012-0.07072 17.392-0.18105 1.0147-0.80477 1.8189-1.7586 2.2673l-0.48475 0.2279-23.902 0.0445-6.3592 5.3185c-3.4975 2.9252-6.4483 5.396-6.5572 5.4908l-0.19807 0.17233v-5.4895zm15.317-17.419v-4.1718l3.1767 2.0284c1.7472 1.1156 3.2302 2.0481 3.2956 2.0721 0.13617 0.05002 2.3695-3.0887 2.2631-3.1805-0.03542-0.03058-1.5052-0.97361-3.2661-2.0956l-3.2017-2.04 6.5285-4.1658-2.2478-3.2287-3.2296 2.0615c-1.7763 1.1338-3.2496 2.0615-3.2741 2.0615-0.02451 0-0.04456-1.8581-0.04456-4.129v-4.129h-2.2007-2.2007v4.1718 4.1718l-3.1879-2.0356c-1.7533-1.1196-3.2488-2.0493-3.3231-2.066-0.09269-0.02086-0.47629 0.46278-1.2196 1.5377-0.5964 0.86246-1.0718 1.5783-1.0564 1.5907 0.01541 0.0124 1.4885 0.95339 3.2736 2.0911l3.2456 2.0686-3.2015 2.0399c-1.7608 1.1219-3.2305 2.0649-3.2659 2.0955-0.10082 0.08704 2.1263 3.2308 2.2552 3.1834 0.06106-0.02243 1.5143-0.9545 3.2295-2.0713l3.1185-2.0305 0.05432 1.6219c0.02987 0.89204 0.05958 2.769 0.06602 4.171l0.0117 2.5491h2.2007 2.2007v-4.1718z" fill="#fff" opacity=".96507"/>
 <g id="g14593" transform="translate(154.17 58.811)">
  <path id="path14543" d="m-142.17-54.438c-3.324 0-6 2.676-6 6v72c0 3.324 2.676 6 6 6h72c3.324 0 6-2.676 6-6v-72c0-3.324-2.676-6-6-6h-72zm4 6h64c2.216 0 4 1.784 4 4v64c0 2.216-1.784 4-4 4h-64c-2.216 0-4-1.784-4-4v-64c0-2.216 1.784-4 4-4z" fill="#fff" opacity=".7"/>
  <g id="g14549" fill="#373737">
   <path id="path14551" d="m-138.17-48.438c-2.216 0-4 1.784-4 4v64c0 2.216 1.784 4 4 4h64c2.216 0 4-1.784 4-4v-64c0-2.216-1.784-4-4-4h-64zm0 3.0312h64c0.58788 0 0.96875 0.38086 0.96875 0.96875v64c0 0.58788-0.38086 0.96875-0.96875 0.96875h-64c-0.58788 0-0.96875-0.38086-0.96875-0.96875v-64c0-0.58788 0.38086-0.96875 0.96875-0.96875z" opacity=".05"/>
   <path id="path14553" d="m-138.17-48.782c-2.216 0-4 1.784-4 4v64c0 2.216 1.784 4 4 4h64c2.216 0 4-1.784 4-4v-64c0-2.216-1.784-4-4-4h-64zm0 1.9375h64c1.1723 0 2.0625 0.89016 2.0625 2.0625v64c0 1.1723-0.89016 2.0625-2.0625 2.0625h-64c-1.1723 0-2.0625-0.89016-2.0625-2.0625v-64c0-1.1723 0.89016-2.0625 2.0625-2.0625z" opacity=".1"/>
   <path id="path14555" d="m-138.17-48.782c-2.216 0-4 1.784-4 4v64c0 2.216 1.784 4 4 4h64c2.216 0 4-1.784 4-4v-64c0-2.216-1.784-4-4-4h-64zm0 1.0312h64c1.6649 0 2.9688 1.3038 2.9688 2.9688v64c0 1.6649-1.3038 2.9688-2.9688 2.9688h-64c-1.665 0-2.969-1.304-2.969-2.969v-64c0-1.6649 1.3038-2.9688 2.9688-2.9688z" opacity=".22"/>
  </g>
 </g>
 <g id="g14783" transform="translate(191.96 18.238)">
  <path id="path14735" d="m-179.96-13.566c-3.324 0-6 2.676-6 6v72c0 2.6778 1.744 4.8818 4.1562 5.6562-1.8603-0.728-3.156-2.526-3.156-4.656v-72c0-2.782 2.2182-5 5-5h72c2.7818 0 5 2.2182 5 5v72c0 2.1299-1.2957 3.9284-3.1562 4.6562 2.412-0.774 4.156-2.978 4.156-5.656v-72c0-3.324-2.676-6-6-6h-72z" fill="url(#i-76)" opacity=".5"/>
 </g>
 <g id="g14922" transform="translate(139.19 -52.123)">
  <g id="layer2" display="none">
   <rect id="rect3745" x="5" y="7" width="86" height="85" rx="6" ry="6" fill="url(#ButtonShadow)" filter="url(#filter3174)" opacity=".9"/>
  </g>
 </g>
</svg>
