<?xml version="1.0" encoding="UTF-8"?>
<svg id="svg2408" width="96" height="96" version="1.0" xmlns="http://www.w3.org/2000/svg" xmlns:cc="http://creativecommons.org/ns#" xmlns:dc="http://purl.org/dc/elements/1.1/" xmlns:rdf="http://www.w3.org/1999/02/22-rdf-syntax-ns#" xmlns:xlink="http://www.w3.org/1999/xlink">
 <defs id="defs2410">
  <linearGradient id="ButtonShadow" x1="45.448" x2="45.448" y1="92.54" y2="7.0165" gradientTransform="scale(1.0059 .99417)" gradientUnits="userSpaceOnUse">
   <stop id="stop3750" offset="0"/>
   <stop id="stop3752" stop-opacity=".58824" offset="1"/>
  </linearGradient>
  <linearGradient id="linearGradient3737">
   <stop id="stop3739" stop-color="#fefefe" offset="0"/>
   <stop id="stop3741" stop-color="#fefefe" stop-opacity="0" offset="1"/>
  </linearGradient>
  <filter id="filter3174" color-interpolation-filters="sRGB">
   <feGaussianBlur id="feGaussianBlur3176" stdDeviation="1.71"/>
  </filter>
  <linearGradient id="linearGradient3188" x1="36.357" x2="36.357" y1="6" y2="63.893" gradientUnits="userSpaceOnUse" xlink:href="#linearGradient3737"/>
  <filter id="filter3794" x="-.192" y="-.192" width="1.384" height="1.384" color-interpolation-filters="sRGB">
   <feGaussianBlur id="feGaussianBlur3796" stdDeviation="5.28"/>
  </filter>
  <linearGradient id="linearGradient3613" x1="48" x2="48" y1="20.221" y2="138.66" gradientUnits="userSpaceOnUse" xlink:href="#linearGradient3737"/>
  <radialGradient id="radialGradient3619" cx="48" cy="90.172" r="42" gradientTransform="matrix(1.1573 0 0 .99591 -7.551 .19713)" gradientUnits="userSpaceOnUse" xlink:href="#linearGradient3737"/>
  <clipPath id="clipPath3613">
   <rect id="rect3615" x="6" y="6" width="84" height="84" rx="6" ry="6" fill="#fefefe"/>
  </clipPath>
  <linearGradient id="linearGradient3617" x1="48" x2="48" y1="90" y2="5.9877" gradientUnits="userSpaceOnUse">
   <stop id="stop4859" stop-color="#0339ae" offset="0"/>
   <stop id="stop4861" stop-color="#045cc3" offset="1"/>
  </linearGradient>
  <linearGradient id="ButtonShadow-0" x1="45.448" x2="45.448" y1="92.54" y2="7.0165" gradientTransform="matrix(1.0059 0 0 .99417 100 0)" gradientUnits="userSpaceOnUse">
   <stop id="stop3750-8" offset="0"/>
   <stop id="stop3752-5" stop-opacity=".58824" offset="1"/>
  </linearGradient>
  <linearGradient id="linearGradient3780" x1="32.251" x2="32.251" y1="6.1317" y2="90.239" gradientTransform="matrix(1.0238 0 0 1.0119 -1.1429 -98.071)" gradientUnits="userSpaceOnUse" xlink:href="#ButtonShadow-0"/>
  <linearGradient id="linearGradient3721" x1="32.251" x2="32.251" y1="6.1317" y2="90.239" gradientTransform="translate(0,-97)" gradientUnits="userSpaceOnUse" xlink:href="#ButtonShadow-0"/>
  <linearGradient id="linearGradient3604" x1="36.357" x2="36.357" y1="6" y2="63.893" gradientTransform="rotate(180 47.975 47.93)" gradientUnits="userSpaceOnUse" xlink:href="#linearGradient3737"/>
 </defs>
 <metadata id="metadata2413">
  <rdf:RDF>
   <cc:Work rdf:about="">
    <dc:format>image/svg+xml</dc:format>
    <dc:type rdf:resource="http://purl.org/dc/dcmitype/StillImage"/>
    <dc:title/>
   </cc:Work>
  </rdf:RDF>
 </metadata>
 <g id="layer2" display="none">
  <rect id="rect3745" x="5" y="7" width="86" height="85" rx="6" ry="6" fill="url(#ButtonShadow)" filter="url(#filter3174)" opacity=".9"/>
 </g>
 <g id="layer3">
  <path id="path3786" transform="scale(1,-1)" d="m12-95.031c-5.5111 0-10.031 4.5202-10.031 10.031v71c0 5.5111 4.5202 10.031 10.031 10.031h72c5.5111 0 10.031-4.5202 10.031-10.031v-71c0-5.5111-4.5202-10.031-10.031-10.031h-72z" fill="url(#linearGradient3780)" opacity=".08"/>
  <path id="path3778" transform="scale(1,-1)" d="m12-94.031c-4.9716 0-9.0312 4.0596-9.0312 9.0312v71c0 4.9716 4.0596 9.0312 9.0312 9.0312h72c4.9716 0 9.0312-4.0596 9.0312-9.0312v-71c0-4.9716-4.0596-9.0312-9.0312-9.0312h-72z" fill="url(#linearGradient3780)" opacity=".1"/>
  <path id="path3770" transform="scale(1,-1)" d="m12-93c-4.4091 0-8 3.5909-8 8v71c0 4.4091 3.5909 8 8 8h72c4.4091 0 8-3.5909 8-8v-71c0-4.4091-3.5909-8-8-8h-72z" fill="url(#linearGradient3780)" opacity=".2"/>
  <rect id="rect3723" transform="scale(1,-1)" x="5" y="-92" width="86" height="85" rx="7" ry="7" fill="url(#linearGradient3780)" opacity=".3"/>
  <rect id="rect3716" transform="scale(1,-1)" x="6" y="-91" width="84" height="84" rx="6" ry="6" fill="url(#linearGradient3721)" opacity=".45"/>
 </g>
 <g id="layer1">
  <rect id="rect2419" x="6" y="6" width="84" height="84" rx="6" ry="6" fill="url(#linearGradient3617)"/>
  <path id="rect3728" d="m12 6c-3.324 0-6 2.676-6 6v72c0 0.33472 0.04135 0.6507 0.09375 0.96875 0.0487 0.2956 0.09704 0.59692 0.1875 0.875 0.00988 0.03038 0.020892 0.0636 0.03125 0.09375 0.098865 0.28777 0.23488 0.54745 0.375 0.8125 0.14459 0.27351 0.31562 0.53562 0.5 0.78125s0.37378 0.47347 0.59375 0.6875c0.43995 0.42806 0.94291 0.81453 1.5 1.0938 0.27854 0.13961 0.57347 0.24695 0.875 0.34375-0.2562-0.10022-0.48671-0.23627-0.71875-0.375-0.00741-0.0044-0.023866 0.0045-0.03125 0-0.031933-0.0193-0.062293-0.04251-0.09375-0.0625-0.1204-0.0767-0.23102-0.16351-0.34375-0.25-0.10617-0.0808-0.21328-0.16111-0.3125-0.25-0.17793-0.16143-0.34746-0.34539-0.5-0.53125-0.10758-0.13026-0.21839-0.26528-0.3125-0.40625-0.025089-0.03838-0.038446-0.08587-0.0625-0.125-0.064763-0.10303-0.13023-0.20452-0.1875-0.3125-0.10101-0.19471-0.20567-0.4157-0.28125-0.625-0.00796-0.02181-0.023589-0.04055-0.03125-0.0625-0.031825-0.09195-0.035804-0.18683-0.0625-0.28125-0.030332-0.10662-0.070389-0.20303-0.09375-0.3125-0.072879-0.34151-0.125-0.6982-0.125-1.0625v-72c0-2.7818 2.2182-5 5-5h72c2.7818 0 5 2.2182 5 5v72c0 0.3643-0.05212 0.72099-0.125 1.0625-0.04415 0.20689-0.08838 0.39766-0.15625 0.59375-0.0077 0.02195-0.0233 0.04069-0.03125 0.0625-0.06274 0.17374-0.13838 0.36745-0.21875 0.53125-0.04158 0.0828-0.07904 0.16995-0.125 0.25-0.0546 0.09721-0.12677 0.18835-0.1875 0.28125-0.09411 0.14096-0.20492 0.276-0.3125 0.40625-0.14317 0.17445-0.30314 0.347-0.46875 0.5-0.01117 0.0102-0.01998 0.02115-0.03125 0.03125-0.13839 0.12556-0.28509 0.23444-0.4375 0.34375-0.10257 0.07315-0.20432 0.15336-0.3125 0.21875-0.0074 0.0045-0.02384-0.0044-0.03125 0-0.23204 0.13873-0.46255 0.27478-0.71875 0.375 0.30153-0.0968 0.59646-0.20414 0.875-0.34375 0.55709-0.27922 1.0601-0.66569 1.5-1.0938 0.21997-0.21403 0.40937-0.44186 0.59375-0.6875s0.35541-0.50774 0.5-0.78125c0.14012-0.26505 0.27614-0.52473 0.375-0.8125 0.01041-0.03078 0.02133-0.06274 0.03125-0.09375 0.09046-0.27808 0.1388-0.5794 0.1875-0.875 0.0524-0.31805 0.09375-0.63403 0.09375-0.96875v-72c0-3.324-2.676-6-6-6z" fill="url(#linearGradient3188)" opacity=".5"/>
  <path id="path3615" d="m12 90c-3.324 0-6-2.676-6-6v-72c0-0.33472 0.04135-0.6507 0.09375-0.96875 0.0487-0.2956 0.09704-0.59692 0.1875-0.875 0.00988-0.03038 0.020892-0.0636 0.03125-0.09375 0.098865-0.28777 0.23488-0.54745 0.375-0.8125 0.14459-0.27351 0.31562-0.53562 0.5-0.78125s0.37378-0.47347 0.59375-0.6875c0.43995-0.42806 0.94291-0.81453 1.5-1.0938 0.27854-0.13961 0.57347-0.24695 0.875-0.34375-0.2562 0.10022-0.48671 0.23627-0.71875 0.375-0.00741 0.0044-0.023866-0.0045-0.03125 0-0.031933 0.0193-0.062293 0.04251-0.09375 0.0625-0.1204 0.0767-0.23102 0.16351-0.34375 0.25-0.10617 0.0808-0.21328 0.16111-0.3125 0.25-0.17793 0.16143-0.34746 0.34539-0.5 0.53125-0.10758 0.13026-0.21839 0.26528-0.3125 0.40625-0.025089 0.03838-0.038446 0.08587-0.0625 0.125-0.064763 0.10303-0.13023 0.20452-0.1875 0.3125-0.10101 0.19471-0.20567 0.4157-0.28125 0.625-0.00796 0.02181-0.023589 0.04055-0.03125 0.0625-0.031825 0.09195-0.035804 0.18683-0.0625 0.28125-0.030332 0.10662-0.070389 0.20303-0.09375 0.3125-0.072879 0.34151-0.125 0.6982-0.125 1.0625v72c0 2.7818 2.2182 5 5 5h72c2.7818 0 5-2.2182 5-5v-72c0-0.3643-0.05212-0.72099-0.125-1.0625-0.04415-0.20689-0.08838-0.39766-0.15625-0.59375-0.0077-0.02195-0.0233-0.04069-0.03125-0.0625-0.06274-0.17374-0.13838-0.36745-0.21875-0.53125-0.04158-0.0828-0.07904-0.16995-0.125-0.25-0.0546-0.09721-0.12677-0.18835-0.1875-0.28125-0.09411-0.14096-0.20492-0.276-0.3125-0.40625-0.14317-0.17445-0.30314-0.347-0.46875-0.5-0.01117-0.0102-0.01998-0.02115-0.03125-0.03125-0.13839-0.12556-0.28509-0.23444-0.4375-0.34375-0.10257-0.07315-0.20432-0.15336-0.3125-0.21875-0.0074-0.0045-0.02384 0.0044-0.03125 0-0.23204-0.13873-0.46255-0.27478-0.71875-0.375 0.30153 0.0968 0.59646 0.20414 0.875 0.34375 0.55709 0.27922 1.0601 0.66569 1.5 1.0938 0.21997 0.21403 0.40937 0.44186 0.59375 0.6875s0.35541 0.50774 0.5 0.78125c0.14012 0.26505 0.27614 0.52473 0.375 0.8125 0.01041 0.03078 0.02133 0.06274 0.03125 0.09375 0.09046 0.27808 0.1388 0.5794 0.1875 0.875 0.0524 0.31805 0.09375 0.63403 0.09375 0.96875v72c0 3.324-2.676 6-6 6z" fill="url(#radialGradient3619)" opacity=".2"/>
 </g>
 <path id="rect3728-6" d="m83.949 89.86c3.324 0 6-2.676 6-6v-72c0-0.33472-0.04135-0.6507-0.09375-0.96875-0.0487-0.2956-0.09704-0.59691-0.1875-0.875-0.0099-0.03038-0.02089-0.0636-0.03125-0.09375-0.09886-0.28777-0.23488-0.54745-0.375-0.8125-0.14459-0.27351-0.31562-0.53562-0.5-0.78125-0.18438-0.24564-0.37378-0.47347-0.59375-0.6875-0.43995-0.42806-0.94291-0.81453-1.5-1.0938-0.27854-0.13961-0.57347-0.24695-0.875-0.34375 0.2562 0.10022 0.48671 0.23627 0.71875 0.375 0.0074 0.0044 0.02387-0.0045 0.03125 0 0.03193 0.0193 0.06229 0.04251 0.09375 0.0625 0.1204 0.0767 0.23102 0.16351 0.34375 0.25 0.10617 0.0808 0.21328 0.16111 0.3125 0.25 0.17793 0.16143 0.34746 0.34539 0.5 0.53125 0.10758 0.13026 0.21839 0.26528 0.3125 0.40625 0.02509 0.03838 0.03845 0.08587 0.0625 0.125 0.06476 0.10303 0.13023 0.20452 0.1875 0.3125 0.10101 0.19471 0.20567 0.4157 0.28125 0.625 8e-3 0.02181 0.02359 0.04055 0.03125 0.0625 0.03182 0.09195 0.0358 0.18683 0.0625 0.28125 0.03033 0.10662 0.07039 0.20303 0.09375 0.3125 0.07288 0.34151 0.125 0.69821 0.125 1.0625v72c0 2.7818-2.2182 5-5 5h-72c-2.7819 0-5-2.2182-5-5v-72c0-0.3643 0.0521-0.72099 0.125-1.0625 0.0442-0.20689 0.0884-0.39766 0.15625-0.59375 8e-3 -0.02195 0.0233-0.04069 0.0312-0.0625 0.0627-0.17374 0.13838-0.36745 0.21875-0.53125 0.0416-0.0828 0.079-0.16995 0.125-0.25 0.0546-0.09721 0.12677-0.18835 0.1875-0.28125 0.0941-0.14096 0.20492-0.276 0.3125-0.40625 0.14317-0.17445 0.30314-0.347 0.46875-0.5 0.0112-0.0102 0.02-0.02115 0.0312-0.03125 0.13838-0.12556 0.28509-0.23444 0.4375-0.34375 0.10257-0.07315 0.20431-0.15336 0.3125-0.21875 7e-3 -0.0045 0.0238 0.0044 0.0312 0 0.23203-0.13873 0.46254-0.27478 0.71875-0.375-0.30153 0.0968-0.59646 0.20414-0.875 0.34375-0.55709 0.27922-1.0601 0.66569-1.5 1.0938-0.21998 0.21403-0.40937 0.44186-0.59375 0.6875-0.18439 0.24564-0.35541 0.50774-0.5 0.78125-0.14012 0.26505-0.27614 0.52473-0.375 0.8125-0.0104 0.03078-0.0213 0.06274-0.0312 0.09375-0.0905 0.27808-0.1388 0.5794-0.1875 0.875-0.0524 0.31805-0.0937 0.63403-0.0937 0.96875v72c0 3.324 2.676 6 6 6z" fill="url(#linearGradient3604)" opacity=".084"/>
 <g id="layer5">
  <rect id="rect3171" x="15" y="15" width="66" height="66" rx="12" ry="12" clip-path="url(#clipPath3613)" fill="url(#linearGradient3613)" filter="url(#filter3794)" opacity=".1" stroke="#fefefe" stroke-linecap="round" stroke-width=".5"/>
 </g>
 <path id="path4575" d="m22.58 77.14c-0.0289-0.51672 3.7619-6.9549 11.957-20.307 6.2154-10.127 8.1769-13.624 7.699-13.728-1.4248-0.30974-4.6098 3.1368-16.201 17.532-2.4532 3.0465-4.5267 5.4729-4.6076 5.3919-0.20001-0.20002 4.6584-7.7938 10.749-16.801 5.5252-8.1709 6.0086-9.4393 3.5973-9.4393-1.7386 0-8.9774 2.2857-14.99 4.733-2.4337 0.99066-4.4909 1.7352-4.5715 1.6546-0.14637-0.14636 11.548-8.2486 20.792-14.406 7.4182-4.9407 16.196-10.121 18.8-11.095 1.2822-0.47971 2.5164-1.0232 2.7427-1.2078 0.59798-0.48768 5.6038-2.4759 5.7828-2.2968 0.0834 0.08337-0.31477 0.70581-0.88476 1.3832-0.56999 0.6774-1.207 2.1313-1.4155 3.2308-0.20853 1.0996-0.42055 2.1694-0.47116 2.3774-0.0506 0.20802 0.89905 1.4025 2.1104 2.6543 5.6255 5.8138 9.4948 17.551 13.175 39.964 0.80336 4.8931 1.4002 8.9569 1.3264 9.0307-0.0738 0.07385-0.92405-2.2827-1.8893-5.2368-5.3351-16.327-10.458-27.034-14.944-31.233-2.3287-2.1794-3.4284-2.8054-4.9281-2.8054-3.0212 0-4.3123 1.3012-12.508 12.605-10.059 13.875-21.286 28.619-21.32 27.999z" fill="#fefefe" stroke-width=".40663"/>
</svg>
