<?xml version="1.0" encoding="UTF-8"?>
<svg id="svg2408" width="96" height="96" version="1.0" xmlns="http://www.w3.org/2000/svg" xmlns:cc="http://creativecommons.org/ns#" xmlns:dc="http://purl.org/dc/elements/1.1/" xmlns:rdf="http://www.w3.org/1999/02/22-rdf-syntax-ns#" xmlns:xlink="http://www.w3.org/1999/xlink">
 <defs id="defs2410">
  <linearGradient id="ButtonShadow" x1="45.448" x2="45.448" y1="92.54" y2="7.0165" gradientTransform="scale(1.0059 .99417)" gradientUnits="userSpaceOnUse">
   <stop id="stop3750" offset="0"/>
   <stop id="stop3752" stop-opacity=".58824" offset="1"/>
  </linearGradient>
  <linearGradient id="linearGradient3737">
   <stop id="stop3739" stop-color="#fefefe" offset="0"/>
   <stop id="stop3741" stop-color="#fefefe" stop-opacity="0" offset="1"/>
  </linearGradient>
  <filter id="filter3174" color-interpolation-filters="sRGB">
   <feGaussianBlur id="feGaussianBlur3176" stdDeviation="1.71"/>
  </filter>
  <linearGradient id="linearGradient3188" x1="36.357" x2="36.357" y1="6" y2="63.893" gradientUnits="userSpaceOnUse" xlink:href="#linearGradient3737"/>
  <filter id="filter3794" x="-.192" y="-.192" width="1.384" height="1.384" color-interpolation-filters="sRGB">
   <feGaussianBlur id="feGaussianBlur3796" stdDeviation="5.28"/>
  </filter>
  <linearGradient id="linearGradient3613" x1="48" x2="48" y1="20.221" y2="138.66" gradientUnits="userSpaceOnUse" xlink:href="#linearGradient3737"/>
  <radialGradient id="radialGradient3619" cx="48" cy="90.172" r="42" gradientTransform="matrix(1.1573 0 0 .99591 -7.551 .19713)" gradientUnits="userSpaceOnUse" xlink:href="#linearGradient3737"/>
  <clipPath id="clipPath3613">
   <rect id="rect3615" x="6" y="6" width="84" height="84" rx="6" ry="6" fill="#fefefe"/>
  </clipPath>
  <linearGradient id="linearGradient3617" x1="48" x2="48" y1="90" y2="5.9877" gradientUnits="userSpaceOnUse">
   <stop id="stop4859" stop-color="#26588a" offset="0"/>
   <stop id="stop4861" stop-color="#4284ad" offset="1"/>
  </linearGradient>
  <linearGradient id="ButtonShadow-0" x1="45.448" x2="45.448" y1="92.54" y2="7.0165" gradientTransform="matrix(1.0059 0 0 .99417 100 0)" gradientUnits="userSpaceOnUse">
   <stop id="stop3750-8" offset="0"/>
   <stop id="stop3752-5" stop-opacity=".58824" offset="1"/>
  </linearGradient>
  <linearGradient id="linearGradient3780" x1="32.251" x2="32.251" y1="6.1317" y2="90.239" gradientTransform="matrix(1.0238 0 0 1.0119 -1.1429 -98.071)" gradientUnits="userSpaceOnUse" xlink:href="#ButtonShadow-0"/>
  <linearGradient id="linearGradient3721" x1="32.251" x2="32.251" y1="6.1317" y2="90.239" gradientTransform="translate(0,-97)" gradientUnits="userSpaceOnUse" xlink:href="#ButtonShadow-0"/>
  <linearGradient id="linearGradient3604" x1="36.357" x2="36.357" y1="6" y2="63.893" gradientTransform="rotate(180 47.975 47.93)" gradientUnits="userSpaceOnUse" xlink:href="#linearGradient3737"/>
 </defs>
 <metadata id="metadata2413">
  <rdf:RDF>
   <cc:Work rdf:about="">
    <dc:format>image/svg+xml</dc:format>
    <dc:type rdf:resource="http://purl.org/dc/dcmitype/StillImage"/>
    <dc:title/>
   </cc:Work>
  </rdf:RDF>
 </metadata>
 <g id="layer2" display="none">
  <rect id="rect3745" x="5" y="7" width="86" height="85" rx="6" ry="6" fill="url(#ButtonShadow)" filter="url(#filter3174)" opacity=".9"/>
 </g>
 <g id="layer3">
  <path id="path3786" transform="scale(1,-1)" d="m12-95.031c-5.5111 0-10.031 4.5202-10.031 10.031v71c0 5.5111 4.5202 10.031 10.031 10.031h72c5.5111 0 10.031-4.5202 10.031-10.031v-71c0-5.5111-4.5202-10.031-10.031-10.031h-72z" fill="url(#linearGradient3780)" opacity=".08"/>
  <path id="path3778" transform="scale(1,-1)" d="m12-94.031c-4.9716 0-9.0312 4.0596-9.0312 9.0312v71c0 4.9716 4.0596 9.0312 9.0312 9.0312h72c4.9716 0 9.0312-4.0596 9.0312-9.0312v-71c0-4.9716-4.0596-9.0312-9.0312-9.0312h-72z" fill="url(#linearGradient3780)" opacity=".1"/>
  <path id="path3770" transform="scale(1,-1)" d="m12-93c-4.4091 0-8 3.5909-8 8v71c0 4.4091 3.5909 8 8 8h72c4.4091 0 8-3.5909 8-8v-71c0-4.4091-3.5909-8-8-8h-72z" fill="url(#linearGradient3780)" opacity=".2"/>
  <rect id="rect3723" transform="scale(1,-1)" x="5" y="-92" width="86" height="85" rx="7" ry="7" fill="url(#linearGradient3780)" opacity=".3"/>
  <rect id="rect3716" transform="scale(1,-1)" x="6" y="-91" width="84" height="84" rx="6" ry="6" fill="url(#linearGradient3721)" opacity=".45"/>
 </g>
 <g id="layer1">
  <rect id="rect2419" x="6" y="6" width="84" height="84" rx="6" ry="6" fill="url(#linearGradient3617)"/>
  <path id="rect3728" d="m12 6c-3.324 0-6 2.676-6 6v72c0 0.33472 0.04135 0.6507 0.09375 0.96875 0.0487 0.2956 0.09704 0.59692 0.1875 0.875 0.00988 0.03038 0.020892 0.0636 0.03125 0.09375 0.098865 0.28777 0.23488 0.54745 0.375 0.8125 0.14459 0.27351 0.31562 0.53562 0.5 0.78125s0.37378 0.47347 0.59375 0.6875c0.43995 0.42806 0.94291 0.81453 1.5 1.0938 0.27854 0.13961 0.57347 0.24695 0.875 0.34375-0.2562-0.10022-0.48671-0.23627-0.71875-0.375-0.00741-0.0044-0.023866 0.0045-0.03125 0-0.031933-0.0193-0.062293-0.04251-0.09375-0.0625-0.1204-0.0767-0.23102-0.16351-0.34375-0.25-0.10617-0.0808-0.21328-0.16111-0.3125-0.25-0.17793-0.16143-0.34746-0.34539-0.5-0.53125-0.10758-0.13026-0.21839-0.26528-0.3125-0.40625-0.025089-0.03838-0.038446-0.08587-0.0625-0.125-0.064763-0.10303-0.13023-0.20452-0.1875-0.3125-0.10101-0.19471-0.20567-0.4157-0.28125-0.625-0.00796-0.02181-0.023589-0.04055-0.03125-0.0625-0.031825-0.09195-0.035804-0.18683-0.0625-0.28125-0.030332-0.10662-0.070389-0.20303-0.09375-0.3125-0.072879-0.34151-0.125-0.6982-0.125-1.0625v-72c0-2.7818 2.2182-5 5-5h72c2.7818 0 5 2.2182 5 5v72c0 0.3643-0.05212 0.72099-0.125 1.0625-0.04415 0.20689-0.08838 0.39766-0.15625 0.59375-0.0077 0.02195-0.0233 0.04069-0.03125 0.0625-0.06274 0.17374-0.13838 0.36745-0.21875 0.53125-0.04158 0.0828-0.07904 0.16995-0.125 0.25-0.0546 0.09721-0.12677 0.18835-0.1875 0.28125-0.09411 0.14096-0.20492 0.276-0.3125 0.40625-0.14317 0.17445-0.30314 0.347-0.46875 0.5-0.01117 0.0102-0.01998 0.02115-0.03125 0.03125-0.13839 0.12556-0.28509 0.23444-0.4375 0.34375-0.10257 0.07315-0.20432 0.15336-0.3125 0.21875-0.0074 0.0045-0.02384-0.0044-0.03125 0-0.23204 0.13873-0.46255 0.27478-0.71875 0.375 0.30153-0.0968 0.59646-0.20414 0.875-0.34375 0.55709-0.27922 1.0601-0.66569 1.5-1.0938 0.21997-0.21403 0.40937-0.44186 0.59375-0.6875s0.35541-0.50774 0.5-0.78125c0.14012-0.26505 0.27614-0.52473 0.375-0.8125 0.01041-0.03078 0.02133-0.06274 0.03125-0.09375 0.09046-0.27808 0.1388-0.5794 0.1875-0.875 0.0524-0.31805 0.09375-0.63403 0.09375-0.96875v-72c0-3.324-2.676-6-6-6z" fill="url(#linearGradient3188)" opacity=".5"/>
  <path id="path3615" d="m12 90c-3.324 0-6-2.676-6-6v-72c0-0.33472 0.04135-0.6507 0.09375-0.96875 0.0487-0.2956 0.09704-0.59692 0.1875-0.875 0.00988-0.03038 0.020892-0.0636 0.03125-0.09375 0.098865-0.28777 0.23488-0.54745 0.375-0.8125 0.14459-0.27351 0.31562-0.53562 0.5-0.78125s0.37378-0.47347 0.59375-0.6875c0.43995-0.42806 0.94291-0.81453 1.5-1.0938 0.27854-0.13961 0.57347-0.24695 0.875-0.34375-0.2562 0.10022-0.48671 0.23627-0.71875 0.375-0.00741 0.0044-0.023866-0.0045-0.03125 0-0.031933 0.0193-0.062293 0.04251-0.09375 0.0625-0.1204 0.0767-0.23102 0.16351-0.34375 0.25-0.10617 0.0808-0.21328 0.16111-0.3125 0.25-0.17793 0.16143-0.34746 0.34539-0.5 0.53125-0.10758 0.13026-0.21839 0.26528-0.3125 0.40625-0.025089 0.03838-0.038446 0.08587-0.0625 0.125-0.064763 0.10303-0.13023 0.20452-0.1875 0.3125-0.10101 0.19471-0.20567 0.4157-0.28125 0.625-0.00796 0.02181-0.023589 0.04055-0.03125 0.0625-0.031825 0.09195-0.035804 0.18683-0.0625 0.28125-0.030332 0.10662-0.070389 0.20303-0.09375 0.3125-0.072879 0.34151-0.125 0.6982-0.125 1.0625v72c0 2.7818 2.2182 5 5 5h72c2.7818 0 5-2.2182 5-5v-72c0-0.3643-0.05212-0.72099-0.125-1.0625-0.04415-0.20689-0.08838-0.39766-0.15625-0.59375-0.0077-0.02195-0.0233-0.04069-0.03125-0.0625-0.06274-0.17374-0.13838-0.36745-0.21875-0.53125-0.04158-0.0828-0.07904-0.16995-0.125-0.25-0.0546-0.09721-0.12677-0.18835-0.1875-0.28125-0.09411-0.14096-0.20492-0.276-0.3125-0.40625-0.14317-0.17445-0.30314-0.347-0.46875-0.5-0.01117-0.0102-0.01998-0.02115-0.03125-0.03125-0.13839-0.12556-0.28509-0.23444-0.4375-0.34375-0.10257-0.07315-0.20432-0.15336-0.3125-0.21875-0.0074-0.0045-0.02384 0.0044-0.03125 0-0.23204-0.13873-0.46255-0.27478-0.71875-0.375 0.30153 0.0968 0.59646 0.20414 0.875 0.34375 0.55709 0.27922 1.0601 0.66569 1.5 1.0938 0.21997 0.21403 0.40937 0.44186 0.59375 0.6875s0.35541 0.50774 0.5 0.78125c0.14012 0.26505 0.27614 0.52473 0.375 0.8125 0.01041 0.03078 0.02133 0.06274 0.03125 0.09375 0.09046 0.27808 0.1388 0.5794 0.1875 0.875 0.0524 0.31805 0.09375 0.63403 0.09375 0.96875v72c0 3.324-2.676 6-6 6z" fill="url(#radialGradient3619)" opacity=".2"/>
 </g>
 <path id="rect3728-6" d="m83.949 89.86c3.324 0 6-2.676 6-6v-72c0-0.33472-0.04135-0.6507-0.09375-0.96875-0.0487-0.2956-0.09704-0.59691-0.1875-0.875-0.0099-0.03038-0.02089-0.0636-0.03125-0.09375-0.09886-0.28777-0.23488-0.54745-0.375-0.8125-0.14459-0.27351-0.31562-0.53562-0.5-0.78125-0.18438-0.24564-0.37378-0.47347-0.59375-0.6875-0.43995-0.42806-0.94291-0.81453-1.5-1.0938-0.27854-0.13961-0.57347-0.24695-0.875-0.34375 0.2562 0.10022 0.48671 0.23627 0.71875 0.375 0.0074 0.0044 0.02387-0.0045 0.03125 0 0.03193 0.0193 0.06229 0.04251 0.09375 0.0625 0.1204 0.0767 0.23102 0.16351 0.34375 0.25 0.10617 0.0808 0.21328 0.16111 0.3125 0.25 0.17793 0.16143 0.34746 0.34539 0.5 0.53125 0.10758 0.13026 0.21839 0.26528 0.3125 0.40625 0.02509 0.03838 0.03845 0.08587 0.0625 0.125 0.06476 0.10303 0.13023 0.20452 0.1875 0.3125 0.10101 0.19471 0.20567 0.4157 0.28125 0.625 8e-3 0.02181 0.02359 0.04055 0.03125 0.0625 0.03182 0.09195 0.0358 0.18683 0.0625 0.28125 0.03033 0.10662 0.07039 0.20303 0.09375 0.3125 0.07288 0.34151 0.125 0.69821 0.125 1.0625v72c0 2.7818-2.2182 5-5 5h-72c-2.7819 0-5-2.2182-5-5v-72c0-0.3643 0.0521-0.72099 0.125-1.0625 0.0442-0.20689 0.0884-0.39766 0.15625-0.59375 8e-3 -0.02195 0.0233-0.04069 0.0312-0.0625 0.0627-0.17374 0.13838-0.36745 0.21875-0.53125 0.0416-0.0828 0.079-0.16995 0.125-0.25 0.0546-0.09721 0.12677-0.18835 0.1875-0.28125 0.0941-0.14096 0.20492-0.276 0.3125-0.40625 0.14317-0.17445 0.30314-0.347 0.46875-0.5 0.0112-0.0102 0.02-0.02115 0.0312-0.03125 0.13838-0.12556 0.28509-0.23444 0.4375-0.34375 0.10257-0.07315 0.20431-0.15336 0.3125-0.21875 7e-3 -0.0045 0.0238 0.0044 0.0312 0 0.23203-0.13873 0.46254-0.27478 0.71875-0.375-0.30153 0.0968-0.59646 0.20414-0.875 0.34375-0.55709 0.27922-1.0601 0.66569-1.5 1.0938-0.21998 0.21403-0.40937 0.44186-0.59375 0.6875-0.18439 0.24564-0.35541 0.50774-0.5 0.78125-0.14012 0.26505-0.27614 0.52473-0.375 0.8125-0.0104 0.03078-0.0213 0.06274-0.0312 0.09375-0.0905 0.27808-0.1388 0.5794-0.1875 0.875-0.0524 0.31805-0.0937 0.63403-0.0937 0.96875v72c0 3.324 2.676 6 6 6z" fill="url(#linearGradient3604)" opacity=".084"/>
 <g id="layer5">
  <rect id="rect3171" x="15" y="15" width="66" height="66" rx="12" ry="12" clip-path="url(#clipPath3613)" fill="url(#linearGradient3613)" filter="url(#filter3794)" opacity=".1" stroke="#fefefe" stroke-linecap="round" stroke-width=".5"/>
 </g>
 <path id="path4575" d="m44.706 80.69c-12.009-1.4476-22.886-10.412-26.515-21.851-5.6319-17.753 4.6091-36.37 22.581-41.05 4.4644-1.1626 11.267-1.1612 15.721 0.0032 9.0114 2.3557 16.604 8.4747 20.737 16.714 2.3958 4.7752 3.3108 8.7459 3.3108 14.367s-0.91499 9.5921-3.3108 14.367c-6.0293 12.017-19.158 19.061-32.524 17.449zm8.9326-6.2625c0.89318-0.34275 0.7961-1.1439-0.34998-2.8881-0.95209-1.449-2.185-5.1547-1.8135-5.4509 0.0995-0.0793 3.7999-2.1259 8.223-4.5479 9.3659-5.1286 11.912-7.1796 11.912-9.5965 0-1.7421-0.47496-2.8094-1.964-4.4137-2.5266-2.722-9.8034-5.6599-17.184-6.9374-2.2171-0.38379-4.0818-0.73891-4.1437-0.78918-0.0619-0.0503-0.28901-1.7035-0.50463-3.674-0.64207-5.8675-1.9124-8.2183-4.4411-8.2183-0.60647 0-1.4618 0.43873-2.0266 1.0395-0.88768 0.9442-0.97726 1.3784-0.97726 4.7365 0 2.0334 0.15046 4.2866 0.33436 5.0071 0.26417 1.0351 0.21009 1.3101-0.25758 1.3101-0.33811 0-1.1887-1.2532-1.9836-2.9225-2.5817-5.4217-4.7129-6.8203-6.9635-4.5697-1.3324 1.3324-1.5705 2.6056-1.0482 5.605 0.8043 4.6187 0.35718 7.6556-1.3834 9.3962-0.81151 0.81151-1.3558 0.95628-3.5948 0.95628h-2.6385v2.1324c0 4.4319 2.428 10.69 5.6631 14.597 3.4521 4.1686 8.6238 7.5082 13.686 8.8377 2.2116 0.58082 10.246 0.85481 11.456 0.39065zm-0.5717-12.979c0-0.54485 3.6423-3.8268 3.929-3.5402 0.13183 0.13183-0.16346 0.92594-0.70012 1.501-1.2982 1.3911-3.2288 2.5134-3.2288 2.0392zm-2.8218-3.4882c0-0.37411 3.357-2.2587 4.5279-2.4971 0.82207-0.1674 0.65791 0.45644-1.1232 1.4139-2.5614 1.3769-3.4047 1.4569-3.4047 1.0832zm-2.7436-7.1214c-0.44741-0.16551-0.92012-0.67547-1.0505-1.1332-0.76604-2.6902-0.76405-2.6956 0.46452-1.259 0.65251 0.76305 1.8046 1.5965 2.5603 1.8522l1.3739 0.46482-1.2674 0.18806c-0.69708 0.10343-1.6335 0.0526-2.0809-0.11287zm1.5527-2.9512c-1.1465-1.3815 0.43477-3.7169 1.8964-2.8007 1.4384 0.9017 0.92101 3.3832-0.70544 3.3832-0.38912 0-0.92503-0.26211-1.1909-0.58247zm21.128-8.4265c1.4491-2.8056 1.5478-4.0859 0.22256-2.8866-1.005 0.90946-3.2311 5.5444-3.2202 6.7047l9e-3 0.95831 0.78138-1.0078c0.42976-0.55427 1.4231-2.2501 2.2073-3.7686zm-4.2219 0.97841c0.83512-4.4036 0.2122-7.7328-0.77904-4.1635-0.54748 1.9714-0.56889 7.2595-0.0272 6.7178 0.21842-0.21842 0.58121-1.3678 0.80622-2.5543z" fill="#fefefe" stroke-width=".40311"/>
</svg>
