<?xml version="1.0" encoding="UTF-8"?>
<svg id="svg77" width="96" height="96" version="1.1" xmlns="http://www.w3.org/2000/svg" xmlns:cc="http://creativecommons.org/ns#" xmlns:dc="http://purl.org/dc/elements/1.1/" xmlns:rdf="http://www.w3.org/1999/02/22-rdf-syntax-ns#" xmlns:xlink="http://www.w3.org/1999/xlink">
 <metadata id="metadata129">
  <rdf:RDF>
   <cc:Work rdf:about="">
    <dc:format>image/svg+xml</dc:format>
    <dc:type rdf:resource="http://purl.org/dc/dcmitype/StillImage"/>
   </cc:Work>
  </rdf:RDF>
 </metadata>
 <defs id="defs49">
  <linearGradient id="ButtonShadow" x1="45.448" x2="45.448" y1="92.54" y2="7.0165" gradientTransform="scale(1.0059 .99417)" gradientUnits="userSpaceOnUse">
   <stop id="stop7" offset="0"/>
   <stop id="stop9" stop-opacity=".58824" offset="1"/>
  </linearGradient>
  <filter id="filter3174">
   <feGaussianBlur id="feGaussianBlur12" stdDeviation="1.71"/>
  </filter>
  <filter id="filter3794" x="-.192" y="-.192" width="1.384" height="1.384">
   <feGaussianBlur id="feGaussianBlur15" stdDeviation="5.28"/>
  </filter>
  <linearGradient id="linearGradient3613" x1="48" x2="48" y1="20.221" y2="138.66" gradientUnits="userSpaceOnUse">
   <stop id="stop18" stop-color="#fff" offset="0"/>
   <stop id="stop20" stop-color="#fff" stop-opacity="0" offset="1"/>
  </linearGradient>
  <linearGradient id="linearGradient3617" x1="48" x2="48" y1="90" y2="5.9877" gradientUnits="userSpaceOnUse">
   <stop id="stop23" stop-color="#b30707" offset="0"/>
   <stop id="stop25" stop-color="#e42c0d" offset="1"/>
  </linearGradient>
  <linearGradient id="ButtonShadow-0" x1="45.448" x2="45.448" y1="92.54" y2="7.0165" gradientTransform="matrix(1.0059 0 0 .99417 100 0)" gradientUnits="userSpaceOnUse">
   <stop id="stop28" offset="0"/>
   <stop id="stop30" stop-opacity=".58824" offset="1"/>
  </linearGradient>
  <linearGradient id="linearGradient3780" x1="32.251" x2="32.251" y1="6.1317" y2="90.239" gradientTransform="matrix(1.0238 0 0 1.0119 -1.1429 -98.071)" gradientUnits="userSpaceOnUse" xlink:href="#ButtonShadow-0"/>
  <linearGradient id="linearGradient3721" x1="32.251" x2="32.251" y1="6.1317" y2="90.239" gradientTransform="translate(0,-97)" gradientUnits="userSpaceOnUse" xlink:href="#ButtonShadow-0"/>
  <clipPath id="clipPath4355">
   <rect id="rect35" x="6" y="6" width="84" height="84" rx="6" ry="6" fill="#fff"/>
  </clipPath>
  <linearGradient id="linearGradient4390" x1="48" x2="48" y1="88" y2="-40" gradientTransform="matrix(1,0,0,-1,0,92)" gradientUnits="userSpaceOnUse">
   <stop id="stop2" stop-color="#fff" offset="0"/>
   <stop id="stop4" stop-color="#fff" stop-opacity="0" offset="1"/>
  </linearGradient>
 </defs>
 <g id="g53" display="none">
  <rect id="rect51" x="5" y="7" width="86" height="85" rx="6" ry="6" fill="url(#ButtonShadow)" filter="url(#filter3174)" opacity=".9"/>
 </g>
 <g id="g67">
  <g id="g63" fill="url(#linearGradient3780)">
   <path id="path55" transform="scale(1,-1)" d="m12-95.031c-5.5111 0-10.031 4.5202-10.031 10.031v71c0 5.5111 4.5202 10.031 10.031 10.031h72c5.5111 0 10.031-4.5202 10.031-10.031v-71c0-5.5111-4.5202-10.031-10.031-10.031h-72z" opacity=".08"/>
   <path id="path57" transform="scale(1,-1)" d="m12-94.031c-4.9716 0-9.0312 4.0596-9.0312 9.0312v71c0 4.9716 4.0596 9.0312 9.0312 9.0312h72c4.9716 0 9.0312-4.0596 9.0312-9.0312v-71c0-4.9716-4.0596-9.0312-9.0312-9.0312h-72z" opacity=".1"/>
   <path id="path59" transform="scale(1,-1)" d="m12-93c-4.4091 0-8 3.5909-8 8v71c0 4.4091 3.5909 8 8 8h72c4.4091 0 8-3.5909 8-8v-71c0-4.4091-3.5909-8-8-8h-72z" opacity=".2"/>
   <rect id="rect61" transform="scale(1,-1)" x="5" y="-92" width="86" height="85" rx="7" ry="7" opacity=".3"/>
  </g>
  <rect id="rect65" transform="scale(1,-1)" x="6" y="-91" width="84" height="84" rx="6" ry="6" fill="url(#linearGradient3721)" opacity=".45"/>
 </g>
 <g id="g87">
  <rect id="rect81" x="6" y="6" width="84" height="84" rx="6" ry="6" fill="url(#linearGradient3617)"/>
  <path id="path83" d="m12 6c-3.324 0-6 2.676-6 6v72c0 3.324 2.676 6 6 6h72c3.324 0 6-2.676 6-6v-72c0-3.324-2.676-6-6-6zm0 2h72c2.805 0 5 2.195 5 5v70c0 2.805-2.195 5-5 5h-72c-2.805 0-5-2.195-5-5v-70c0-2.805 2.195-5 5-5z" fill="url(#linearGradient4390)" opacity=".3"/>
 </g>
 <g id="g91">
  <rect id="rect89" x="15" y="15" width="66" height="66" rx="12" ry="12" clip-path="url(#clipPath4355)" fill="url(#linearGradient3613)" filter="url(#filter3794)" opacity=".1" stroke="#fff" stroke-linecap="round" stroke-width=".5"/>
 </g>
 <defs id="defs101">
  <linearGradient id="a" x1="8" x2="8" y1="2" y2="14" gradientUnits="userSpaceOnUse">
   <stop id="stop96" stop-color="#fafafa" offset="0"/>
   <stop id="stop98" stop-color="#ebebeb" offset="1"/>
  </linearGradient>
 </defs>
 <g id="g123">
  <path id="path103" transform="matrix(4,0,0,4,16,17)" d="m1 1.75a0.25002 0.25002 0 0 0-0.25 0.25v2l0.25-0.25c-0.18408 0 0.39284 0.014892 0.20898 0.00586-0.18386-0.00903 0.39022 0.031715 0.20703 0.013672s0.38912 0.054354 0.20703 0.027344c-0.18209-0.02701 0.38757 0.071068 0.20703 0.035156s0.38169 0.089649 0.20312 0.044922 0.37732 0.11008 0.20117 0.056641c-0.17615-0.053435 0.37058 0.12647 0.19727 0.064453-0.17332-0.062014 0.36538 0.14662 0.19531 0.076172-0.17007-0.070443 0.35586 0.16269 0.18945 0.083984-0.1664-0.078703 0.34984 0.18052 0.1875 0.09375-0.16234-0.086774 0.33953 0.19815 0.18164 0.10351-0.15789-0.094635 0.32884 0.2136 0.17578 0.11133s0.31777 0.2288 0.16992 0.11914 0.30636 0.24568 0.16406 0.12891c-0.14229-0.11678 0.2946 0.26034 0.1582 0.13672-0.13639-0.12362 0.28251 0.27274 0.15234 0.14258s0.2662 0.28874 0.14258 0.15234c-0.12362-0.13639 0.2535 0.3005 0.13672 0.1582-0.11678-0.14229 0.23856 0.31192 0.12891 0.16406s0.22141 0.32298 0.11914 0.16992 0.20596 0.33367 0.11133 0.17578c-0.094635-0.15789 0.19029 0.34398 0.10352 0.18164-0.086774-0.16234 0.17245 0.3539 0.09375 0.1875-0.078703-0.1664 0.15443 0.35952 0.083984 0.18945-0.070443-0.17007 0.13819 0.36863 0.076172 0.19531-0.062014-0.17332 0.11789 0.37342 0.064453 0.19727-0.053435-0.17615 0.10137 0.37973 0.056641 0.20117-0.044727-0.17856 0.080834 0.38367 0.044922 0.20312s0.062166 0.38912 0.035156 0.20703c-0.02701-0.18209 0.045387 0.39022 0.027344 0.20703-0.018043-0.18319 0.022704 0.39089 0.013672 0.20703-0.0090322-0.18386 0.0058594 0.39306 0.0058594 0.20898s-0.014892 0.39284-0.0058594 0.20898c0.0090323-0.18386-0.031715 0.39022-0.013672 0.20703 0.018043-0.18319-0.054354 0.38912-0.027344 0.20703 0.02701-0.18209-0.071068 0.38757-0.035156 0.20703 0.035912-0.18054-0.089649 0.38169-0.044922 0.20312 0.044727-0.17856-0.11008 0.37732-0.056641 0.20117 0.053435-0.17615-0.12647 0.37058-0.064453 0.19727 0.062014-0.17332-0.14662 0.36538-0.076172 0.19531 0.070444-0.17007-0.16269 0.35586-0.083984 0.18945 0.078703-0.1664-0.18052 0.34984-0.09375 0.1875 0.086774-0.16234-0.19815 0.33953-0.10352 0.18164 0.094635-0.15789-0.2136 0.32884-0.11133 0.17578s-0.2288 0.31778-0.11914 0.16992-0.24568 0.30636-0.12891 0.16406c0.11678-0.14229-0.26034 0.2946-0.13672 0.1582 0.12362-0.13639-0.27274 0.28251-0.14258 0.15234 0.13016-0.13016-0.28874 0.2662-0.15234 0.14258 0.13639-0.12362-0.3005 0.2535-0.1582 0.13672 0.14229-0.11678-0.31192 0.23856-0.16406 0.12891 0.14785-0.10965-0.32298 0.22141-0.16992 0.11914s-0.33367 0.20596-0.17578 0.11133c0.15789-0.09464-0.34398 0.19029-0.18164 0.10352 0.16234-0.08677-0.3539 0.17245-0.1875 0.09375 0.1664-0.0787-0.35952 0.15443-0.18945 0.08398 0.17007-0.07044-0.36863 0.13819-0.19531 0.07617 0.17332-0.06201-0.37342 0.11789-0.19727 0.06445 0.17615-0.05344-0.37973 0.10137-0.20117 0.05664 0.17856-0.04473-0.38367 0.08083-0.20312 0.04492s-0.38912 0.06217-0.20703 0.03516c0.18209-0.02701-0.39022 0.04539-0.20703 0.02734 0.18319-0.01804-0.39089 0.0227-0.20703 0.01367 0.18386-0.009019-0.39306 0.005873-0.20898 0.005873l-0.25-0.25v2a0.25002 0.25002 0 0 0 0.25 0.25c1.6362 0 3.2629-0.67308 4.4199-1.8301 1.157-1.157 1.8301-2.7837 1.8301-4.4199s-0.67308-3.2629-1.8301-4.4199c-1.157-1.157-2.7837-1.8301-4.4199-1.8301zm14 0c-1.6362 0-3.2629 0.67308-4.4199 1.8301-1.157 1.157-1.8301 2.7837-1.8301 4.4199s0.67308 3.2629 1.8301 4.4199c1.157 1.157 2.7837 1.8301 4.4199 1.8301a0.25002 0.25002 0 0 0 0.25-0.25v-2l-0.25 0.25c0.18408 0-0.39284-0.01489-0.20898-0.0059 0.18386 9e-3 -0.39022-0.03172-0.20703-0.01367 0.18319 0.01804-0.38912-0.05435-0.20703-0.02734s-0.38757-0.07107-0.20703-0.03516-0.38169-0.08965-0.20312-0.04492-0.37732-0.11008-0.20117-0.05664c0.17615 0.05343-0.37058-0.12647-0.19727-0.06445 0.17332 0.06201-0.36538-0.14662-0.19531-0.07617 0.17006 0.07044-0.35586-0.16269-0.18945-0.08398 0.1664 0.0787-0.34984-0.18052-0.1875-0.09375 0.16234 0.08677-0.33953-0.19815-0.18164-0.10352 0.15789 0.09464-0.32884-0.2136-0.17578-0.11133s-0.31778-0.2288-0.16992-0.11914c0.14785 0.10966-0.30636-0.24568-0.16406-0.12891 0.14229 0.11678-0.2946-0.26034-0.1582-0.13672 0.13639 0.12362-0.28251-0.27274-0.15234-0.14258 0.13016 0.13016-0.2662-0.28874-0.14258-0.15234 0.12362 0.13639-0.2535-0.3005-0.13672-0.1582 0.11678 0.14229-0.23856-0.31192-0.12891-0.16406 0.10965 0.14785-0.22141-0.32298-0.11914-0.16992s-0.20596-0.33367-0.11133-0.17578c0.09464 0.15789-0.19029-0.34398-0.10352-0.18164 0.08677 0.16234-0.17245-0.3539-0.09375-0.1875 0.0787 0.1664-0.15443-0.35952-0.08398-0.18945 0.07044 0.17007-0.13819-0.36863-0.07617-0.19531 0.06201 0.17332-0.11789-0.37342-0.06445-0.19727 0.05344 0.17615-0.10137-0.37973-0.05664-0.20117 0.04473 0.17856-0.08083-0.38367-0.04492-0.20312s-0.06217-0.38912-0.03516-0.20703c0.02701 0.18209-0.04539-0.39022-0.02734-0.20703 0.01804 0.18319-0.0227-0.39089-0.01367-0.20703 0.009019 0.18388-0.005873-0.39304-0.005873-0.20896s0.01489-0.39284 0.0059-0.20898c-9e-3 0.18386 0.03172-0.39022 0.01367-0.20703-0.01804 0.18319 0.05435-0.38912 0.02734-0.20703-0.02701 0.18209 0.07107-0.38757 0.03516-0.20703s0.08965-0.38169 0.04492-0.20312 0.11008-0.37732 0.05664-0.20117c-0.05343 0.17615 0.12647-0.37058 0.06445-0.19727-0.06201 0.17332 0.14662-0.36538 0.07617-0.19531-0.07044 0.17007 0.16269-0.35586 0.08398-0.18945-0.0787 0.1664 0.18052-0.34984 0.09375-0.1875-0.08677 0.16234 0.19815-0.33953 0.10352-0.18164-0.09464 0.15789 0.2136-0.32884 0.11133-0.17578s0.2288-0.31777 0.11914-0.16992c-0.10966 0.14785 0.24568-0.30636 0.12891-0.16406-0.11678 0.14229 0.26034-0.2946 0.13672-0.1582-0.12362 0.13639 0.27274-0.28251 0.14258-0.15234-0.13016 0.13016 0.28874-0.2662 0.15234-0.14258-0.13639 0.12362 0.3005-0.2535 0.1582-0.13672-0.14229 0.11678 0.31192-0.23856 0.16406-0.12891s0.32298-0.22141 0.16992-0.11914 0.33367-0.20596 0.17578-0.11133c-0.15789 0.094635 0.34398-0.19029 0.18164-0.10352-0.16234 0.086774 0.3539-0.17245 0.1875-0.09375-0.1664 0.078703 0.35952-0.15443 0.18945-0.083984-0.17007 0.070443 0.36863-0.13819 0.19531-0.076172-0.17332 0.062014 0.37342-0.11789 0.19727-0.064453-0.17615 0.053435 0.37973-0.10137 0.20117-0.056641-0.17856 0.044727 0.38367-0.080834 0.20312-0.044922s0.38912-0.062166 0.20703-0.035156 0.39022-0.045387 0.20703-0.027344c-0.18319 0.018043 0.39089-0.022704 0.20703-0.013672-0.18388 0.0090325 0.39304-0.0058591 0.20896-0.0058591l0.25 0.25v-2a0.25002 0.25002 0 0 0-0.25-0.25z" opacity=".15"/>
  <g id="Bevel1"></g>
  <g id="Bevel2"></g>
  <path id="base" transform="translate(16,16) scale(4)" d="m1 2v2a4 4 0 0 1 4 4 4 4 0 0 1-4 4v2a6 6 0 0 0 6-6 6 6 0 0 0-6-6zm14 0a6 6 0 0 0-6 6 6 6 0 0 0 6 6v-2a4 4 0 0 1-4-4 4 4 0 0 1 4-4v-2z" fill="url(#a)"/>
  <path id="path113" transform="translate(0,2)" d="m20 30v1a16 16 0 0 1 15.979 15.42 16 16 0 0 0 0.021484-0.41992 16 16 0 0 0-16-16zm56 0a16 16 0 0 0-16 16 16 16 0 0 0 0.021484 0.58008 16 16 0 0 1 15.979-15.58v-1zm-23.979 16.418a24 24 0 0 0-0.021484 0.58203 24 24 0 0 0 24 24v-1a24 24 0 0 1-23.979-23.582zm-8.043 0.16406a24 24 0 0 1-23.979 23.418v1a24 24 0 0 0 24-24 24 24 0 0 0-0.021484-0.41797z" opacity=".3" stroke-width="4"/>
  <path id="path118" transform="translate(0,2)" d="m20 22v1a24 24 0 0 1 23.979 23.582 24 24 0 0 0 0.021484-0.58203 24 24 0 0 0-24-24zm56 0a24 24 0 0 0-24 24 24 24 0 0 0 0.021484 0.41797 24 24 0 0 1 23.979-23.418v-1zm-40.021 24.42a16 16 0 0 1-15.979 15.58v1a16 16 0 0 0 16-16 16 16 0 0 0-0.021484-0.58008zm24.043 0.16016a16 16 0 0 0-0.021484 0.41992 16 16 0 0 0 16 16v-1a16 16 0 0 1-15.979-15.42z" fill="#fff" stroke-width="4"/>
 </g>
</svg>
