<?xml version="1.0" encoding="UTF-8"?>
<!-- Created with Inkscape (http://www.inkscape.org/) -->
<svg id="svg2408" width="96" height="96" version="1.0" xmlns="http://www.w3.org/2000/svg" xmlns:cc="http://creativecommons.org/ns#" xmlns:dc="http://purl.org/dc/elements/1.1/" xmlns:rdf="http://www.w3.org/1999/02/22-rdf-syntax-ns#" xmlns:xlink="http://www.w3.org/1999/xlink">
 <defs id="defs2410">
  <linearGradient id="ButtonShadow" x1="45.448" x2="45.448" y1="92.54" y2="7.0165" gradientTransform="scale(1.0059 .99417)" gradientUnits="userSpaceOnUse">
   <stop id="stop3750" offset="0"/>
   <stop id="stop3752" stop-opacity=".58824" offset="1"/>
  </linearGradient>
  <linearGradient id="linearGradient3737">
   <stop id="stop3739" stop-color="#fff" offset="0"/>
   <stop id="stop3741" stop-color="#fff" stop-opacity="0" offset="1"/>
  </linearGradient>
  <filter id="filter3174">
   <feGaussianBlur id="feGaussianBlur3176" stdDeviation="1.71"/>
  </filter>
  <linearGradient id="linearGradient3188" x1="36.357" x2="36.357" y1="6" y2="63.893" gradientUnits="userSpaceOnUse" xlink:href="#linearGradient3737"/>
  <filter id="filter3794" x="-.192" y="-.192" width="1.384" height="1.384">
   <feGaussianBlur id="feGaussianBlur3796" stdDeviation="5.28"/>
  </filter>
  <linearGradient id="linearGradient3613" x1="48" x2="48" y1="20.221" y2="138.66" gradientUnits="userSpaceOnUse" xlink:href="#linearGradient3737"/>
  <radialGradient id="radialGradient3619" cx="48" cy="90.172" r="42" gradientTransform="matrix(1.1573 0 0 .99591 -7.551 .19713)" gradientUnits="userSpaceOnUse" xlink:href="#linearGradient3737"/>
  <clipPath id="clipPath3613">
   <rect id="rect3615" x="6" y="6" width="84" height="84" rx="6" ry="6" fill="#fff"/>
  </clipPath>
  <linearGradient id="linearGradient3617" x1="48" x2="48" y1="90" y2="5.9877" gradientTransform="matrix(1.0172 0 0 1.0172 -1.1034 -1.1034)" gradientUnits="userSpaceOnUse">
   <stop id="stop3189" stop-color="#e26f00" offset="0"/>
   <stop id="stop3191" stop-color="#f9a314" offset="1"/>
  </linearGradient>
  <radialGradient id="radialGradient7016" cx="10" cy="150.58" r="54" gradientTransform="matrix(1.4074 -8.8004e-8 2.8397e-8 .45414 -4.0741 17.616)" gradientUnits="userSpaceOnUse">
   <stop id="stop7012" stop-color="#d93503" offset="0"/>
   <stop id="stop7014" stop-color="#d83603" stop-opacity="0" offset="1"/>
  </radialGradient>
  <radialGradient id="radialGradient7004" cx="107.82" cy="-22.578" r="54" gradientTransform="matrix(-1.2754 3.9017e-8 -1.4793e-8 -.48355 216.34 -.91766)" gradientUnits="userSpaceOnUse">
   <stop id="stop6998" stop-color="#ffd812" offset="0"/>
   <stop id="stop7000" stop-color="#ffd812" stop-opacity="0" offset="1"/>
  </radialGradient>
  <filter id="filter7028" x="-.18" y="-.18" width="1.36" height="1.36" color-interpolation-filters="sRGB">
   <feGaussianBlur id="feGaussianBlur7030" stdDeviation="1.1130742"/>
  </filter>
  <radialGradient id="radialGradient2878" cx="-24.45" cy="8.7609" r="14.746" gradientTransform="matrix(.97684 0 0 1.0276 96.186 43.305)" gradientUnits="userSpaceOnUse">
   <stop id="stop7020" stop-color="#fff" offset="0"/>
   <stop id="stop7022" stop-color="#fff" offset=".2"/>
   <stop id="stop7024" stop-color="#ffde34" offset=".25276"/>
   <stop id="stop7026" stop-color="#ffd602" stop-opacity="0" offset="1"/>
  </radialGradient>
  <linearGradient id="linearGradient2882" x1="61.625" x2="61.625" y1="19.577" y2="110.35" gradientTransform="matrix(.66355 0 0 .66355 4.1282 5.0096)" gradientUnits="userSpaceOnUse">
   <stop id="stop6979" stop-color="#dc4300" offset="0"/>
   <stop id="stop6981" stop-color="#ae3500" offset="1"/>
  </linearGradient>
  <linearGradient id="ButtonShadow-0" x1="45.448" x2="45.448" y1="92.54" y2="7.0165" gradientTransform="matrix(1.0059 0 0 .99417 100 0)" gradientUnits="userSpaceOnUse">
   <stop id="stop3750-8" offset="0"/>
   <stop id="stop3752-5" stop-opacity=".58824" offset="1"/>
  </linearGradient>
  <linearGradient id="linearGradient3780" x1="32.251" x2="32.251" y1="6.1317" y2="90.239" gradientTransform="matrix(1.0238 0 0 1.0119 -1.1429 -98.071)" gradientUnits="userSpaceOnUse" xlink:href="#ButtonShadow-0"/>
  <linearGradient id="linearGradient3721" x1="32.251" x2="32.251" y1="6.1317" y2="90.239" gradientTransform="translate(0,-97)" gradientUnits="userSpaceOnUse" xlink:href="#ButtonShadow-0"/>
 </defs>
 <metadata id="metadata2413">
  <rdf:RDF>
   <cc:Work rdf:about="">
    <dc:format>image/svg+xml</dc:format>
    <dc:type rdf:resource="http://purl.org/dc/dcmitype/StillImage"/>
   </cc:Work>
  </rdf:RDF>
 </metadata>
 <g id="layer2" display="none">
  <rect id="rect3745" x="5" y="7" width="86" height="85" rx="6" ry="6" fill="url(#ButtonShadow)" filter="url(#filter3174)" opacity=".9"/>
 </g>
 <g id="layer4">
  <path id="path3786" transform="scale(1,-1)" d="m12-95.031c-5.5111 0-10.031 4.5202-10.031 10.031v71c0 5.5111 4.5202 10.031 10.031 10.031h72c5.5111 0 10.031-4.5202 10.031-10.031v-71c0-5.5111-4.5202-10.031-10.031-10.031h-72z" fill="url(#linearGradient3780)" opacity=".08"/>
  <path id="path3778" transform="scale(1,-1)" d="m12-94.031c-4.9716 0-9.0312 4.0596-9.0312 9.0312v71c0 4.9716 4.0596 9.0312 9.0312 9.0312h72c4.9716 0 9.0312-4.0596 9.0312-9.0312v-71c0-4.9716-4.0596-9.0312-9.0312-9.0312h-72z" fill="url(#linearGradient3780)" opacity=".1"/>
  <path id="path3770" transform="scale(1,-1)" d="m12-93c-4.4091 0-8 3.5909-8 8v71c0 4.4091 3.5909 8 8 8h72c4.4091 0 8-3.5909 8-8v-71c0-4.4091-3.5909-8-8-8h-72z" fill="url(#linearGradient3780)" opacity=".2"/>
  <rect id="rect3723" transform="scale(1,-1)" x="5" y="-92" width="86" height="85" rx="7" ry="7" fill="url(#linearGradient3780)" opacity=".3"/>
  <rect id="rect3716" transform="scale(1,-1)" x="6" y="-91" width="84" height="84" rx="6" ry="6" fill="url(#linearGradient3721)" opacity=".45"/>
 </g>
 <g id="layer1">
  <rect id="rect2419" x="6" y="6" width="84" height="84" rx="6" ry="6" fill="url(#linearGradient3617)"/>
  <path id="rect3728" d="m12 6c-3.324 0-6 2.676-6 6v2 68 2c0 0.33472 0.04135 0.6507 0.09375 0.96875 0.0487 0.2956 0.09704 0.59692 0.1875 0.875 0.00988 0.03038 0.020892 0.0636 0.03125 0.09375 0.098865 0.28777 0.23488 0.54745 0.375 0.8125 0.14459 0.27351 0.31562 0.53562 0.5 0.78125s0.37378 0.47347 0.59375 0.6875c0.43995 0.42806 0.94291 0.81453 1.5 1.0938 0.27854 0.13961 0.57347 0.24695 0.875 0.34375-0.2562-0.10022-0.48671-0.23627-0.71875-0.375-0.00741-0.0044-0.023866 0.0045-0.03125 0-0.031933-0.0193-0.062293-0.04251-0.09375-0.0625-0.1204-0.0767-0.23102-0.16351-0.34375-0.25-0.10617-0.0808-0.21328-0.16111-0.3125-0.25-0.17793-0.16143-0.34746-0.34539-0.5-0.53125-0.10758-0.13026-0.21839-0.26528-0.3125-0.40625-0.025089-0.03838-0.038446-0.08587-0.0625-0.125-0.064763-0.10303-0.13023-0.20452-0.1875-0.3125-0.10101-0.19471-0.20567-0.4157-0.28125-0.625-0.00796-0.02181-0.023589-0.04055-0.03125-0.0625-0.031825-0.09195-0.035804-0.18683-0.0625-0.28125-0.030332-0.10662-0.070389-0.20303-0.09375-0.3125-0.072879-0.34151-0.125-0.6982-0.125-1.0625v-2-68-2c0-2.7818 2.2182-5 5-5h2 68 2c2.7818 0 5 2.2182 5 5v2 68 2c0 0.3643-0.05212 0.72099-0.125 1.0625-0.04415 0.20689-0.08838 0.39766-0.15625 0.59375-0.0077 0.02195-0.0233 0.04069-0.03125 0.0625-0.06274 0.17374-0.13838 0.36745-0.21875 0.53125-0.04158 0.0828-0.07904 0.16995-0.125 0.25-0.0546 0.09721-0.12677 0.18835-0.1875 0.28125-0.09411 0.14096-0.20492 0.276-0.3125 0.40625-0.14317 0.17445-0.30314 0.347-0.46875 0.5-0.01117 0.0102-0.01998 0.02115-0.03125 0.03125-0.13839 0.12556-0.28509 0.23444-0.4375 0.34375-0.10257 0.07315-0.20432 0.15336-0.3125 0.21875-0.0074 0.0045-0.02384-0.0044-0.03125 0-0.23204 0.13873-0.46255 0.27478-0.71875 0.375 0.30153-0.0968 0.59646-0.20414 0.875-0.34375 0.55709-0.27922 1.0601-0.66569 1.5-1.0938 0.21997-0.21403 0.40937-0.44186 0.59375-0.6875s0.35541-0.50774 0.5-0.78125c0.14012-0.26505 0.27614-0.52473 0.375-0.8125 0.01041-0.03078 0.02133-0.06274 0.03125-0.09375 0.09046-0.27808 0.1388-0.5794 0.1875-0.875 0.0524-0.31805 0.09375-0.63403 0.09375-0.96875v-2-68-2c0-3.324-2.676-6-6-6h-72z" fill="url(#linearGradient3188)" opacity=".5"/>
  <path id="path3615" d="m12 90c-3.324 0-6-2.676-6-6v-2-68-2c0-0.33472 0.04135-0.6507 0.09375-0.96875 0.0487-0.2956 0.09704-0.59692 0.1875-0.875 0.00988-0.03038 0.020892-0.0636 0.03125-0.09375 0.098865-0.28777 0.23488-0.54745 0.375-0.8125 0.14459-0.27351 0.31562-0.53562 0.5-0.78125s0.37378-0.47347 0.59375-0.6875c0.43995-0.42806 0.94291-0.81453 1.5-1.0938 0.27854-0.13961 0.57347-0.24695 0.875-0.34375-0.2562 0.10022-0.48671 0.23627-0.71875 0.375-0.00741 0.0044-0.023866-0.0045-0.03125 0-0.031933 0.0193-0.062293 0.04251-0.09375 0.0625-0.1204 0.0767-0.23102 0.16351-0.34375 0.25-0.10617 0.0808-0.21328 0.16111-0.3125 0.25-0.17793 0.16143-0.34746 0.34539-0.5 0.53125-0.10758 0.13026-0.21839 0.26528-0.3125 0.40625-0.025089 0.03838-0.038446 0.08587-0.0625 0.125-0.064763 0.10303-0.13023 0.20452-0.1875 0.3125-0.10101 0.19471-0.20567 0.4157-0.28125 0.625-0.00796 0.02181-0.023589 0.04055-0.03125 0.0625-0.031825 0.09195-0.035804 0.18683-0.0625 0.28125-0.030332 0.10662-0.070389 0.20303-0.09375 0.3125-0.072879 0.34151-0.125 0.6982-0.125 1.0625v2 68 2c0 2.7818 2.2182 5 5 5h2 68 2c2.7818 0 5-2.2182 5-5v-2-68-2c0-0.3643-0.05212-0.72099-0.125-1.0625-0.04415-0.20689-0.08838-0.39766-0.15625-0.59375-0.0077-0.02195-0.0233-0.04069-0.03125-0.0625-0.06274-0.17374-0.13838-0.36745-0.21875-0.53125-0.04158-0.0828-0.07904-0.16995-0.125-0.25-0.0546-0.09721-0.12677-0.18835-0.1875-0.28125-0.09411-0.14096-0.20492-0.276-0.3125-0.40625-0.14317-0.17445-0.30314-0.347-0.46875-0.5-0.01117-0.0102-0.01998-0.02115-0.03125-0.03125-0.13839-0.12556-0.28509-0.23444-0.4375-0.34375-0.10257-0.07315-0.20432-0.15336-0.3125-0.21875-0.0074-0.0045-0.02384 0.0044-0.03125 0-0.23204-0.13873-0.46255-0.27478-0.71875-0.375 0.30153 0.0968 0.59646 0.20414 0.875 0.34375 0.55709 0.27922 1.0601 0.66569 1.5 1.0938 0.21997 0.21403 0.40937 0.44186 0.59375 0.6875s0.35541 0.50774 0.5 0.78125c0.14012 0.26505 0.27614 0.52473 0.375 0.8125 0.01041 0.03078 0.02133 0.06274 0.03125 0.09375 0.09046 0.27808 0.1388 0.5794 0.1875 0.875 0.0524 0.31805 0.09375 0.63403 0.09375 0.96875v2 68 2c0 3.324-2.676 6-6 6h-72z" fill="url(#radialGradient3619)" opacity=".2"/>
 </g>
 <g id="layer5">
  <rect id="rect3171" x="15" y="15" width="66" height="66" rx="12" ry="12" clip-path="url(#clipPath3613)" fill="url(#linearGradient3613)" filter="url(#filter3794)" opacity=".1" stroke="#fff" stroke-linecap="round" stroke-width=".5"/>
 </g>
 <g id="layer3">
  <path id="path6963" transform="matrix(.84192 0 0 .84192 -14.874 -7.1446)" d="m110.78 70.756a7.4205 7.4205 0 1 1-14.841 0 7.4205 7.4205 0 1 1 14.841 0z" fill="#ffd812" filter="url(#filter7028)" opacity=".8"/>
  <path id="path6908" d="m51.792 18.558s-6.4299 6.6842-6.5827 14.575c-3.3582-1.9228-5.8313-6.1984-3.3684-10.887 2.4695-4.7014 5.8766-4.7401 9.9511-3.688zm-14.176 42.472s-3.6111 8.0937-0.65002 16.083c-3.814-0.65086-7.605-3.684-7.1654-8.8028 0.43875-5.1092 2.1819-7.1299 7.8154-7.28zm3.7762 0.13598s-3.3973 4.8662-0.65718 16.834c7.229-0.39455 9.7826-1.2758 14.852-8.1542 5.0696-6.8784 10.301-31.632 8.6748-39.324-1.6267-7.6926-7.8862-9.9954-7.8862-9.9954-6.9661 3.551-7.0975 13.809-7.0975 13.809s6.5342 1.7155 1.9715 16.834c-4.5883 15.204-9.8577 9.9954-9.8577 9.9954z" fill="url(#linearGradient2882)" fill-rule="evenodd"/>
  <path id="path6915" d="m15.5 53.406c1.1096-5.3378 0.63229-13.723 2.7253-13.723 3.7496 2.01e-4 4.8107 17.523 7.1751 17.534 2.3519 0.01236 0.12694-13.146 3.1725-12.998 4.897 0.24813 3.3777-10.249 5.6972-10.262 4.2805-0.025 2.4346 22.959 5.9588 22.8 2.8319-0.1276 2.1878-5.8554 4.4862-5.4893 2.6498 0.42214 1.8859 4.5634 3.6441 4.4937 2.7507-0.10896 0.64723-18.819 3.368-18.771 2.1105 0.03696 4.6625 18.888 7.218 18.888 4.5364 0-1.0878-12.618 8.6106-5.5656 2.425 1.7634 1.5518 1.2386 4.5929 2.0138" fill="none" stroke="#fff4ad" stroke-linecap="round" stroke-width="3"/>
  <path id="path6922" d="m77.73 44.523-3.0623 5.5248 10.651-8.8721-9.6769 10.282 9.0205-0.30214-8.564 1.563 8.053 2.6154-9.1579-1.6542 4.387 5.8231-5.4697-4.3198 2.7381 10.229-4.4975-9.6876-2.1238 10.355 0.99684-10.64-3.0792 6.3329 2.43-6.4203-7.9223 7.6253 6.8863-8.865-7.6387 3.074 6.39-3.8954-4.3756-1.5905 5.2584 0.15178-5.736-3.2395 5.6646 1.3457-6.4342-7.7899 7.9236 6.8559-2.0728-7.2619 2.8899 7.6695-0.80448-13.659 1.9314 13.335 3.379-7.7631-2.119 8.0092 4.1353-4.8302z" fill="url(#radialGradient2878)"/>
  <path id="rect6985" d="m12.815 10c-1.5594 0-2.8148 1.2554-2.8148 2.8148v8.0926c6.0355-1.2825 12.34-1.9792 18.824-1.9792 22.433 0 42.707 8.1392 57.176 21.221v-27.334c0-1.5594-1.2554-2.8148-2.8148-2.8148h-70.37z" fill="url(#radialGradient7004)" opacity=".8"/>
  <path id="path7006" d="m83.185 86c1.5594 0 2.8148-1.2554 2.8148-2.8148v-8.0926c-6.0355 1.2825-12.34 1.9792-18.824 1.9792-22.433 0-42.707-8.1392-57.176-21.221v27.334c0 1.5594 1.2554 2.8148 2.8148 2.8148h70.37z" fill="url(#radialGradient7016)" opacity=".8"/>
  <path id="path3659" d="m15.5 53.406c1.1096-5.3378 0.63229-13.723 2.7253-13.723 3.7496 2.01e-4 4.8107 17.523 7.1751 17.534 2.3519 0.01236 0.12694-13.146 3.1725-12.998 4.897 0.24813 3.3777-10.249 5.6972-10.262 4.2805-0.025 2.4346 22.959 5.9588 22.8 2.8319-0.1276 2.1878-5.8554 4.4862-5.4893 2.6498 0.42214 1.8859 4.5634 3.6441 4.4937 2.7507-0.10896 0.64723-18.819 3.368-18.771 2.1105 0.03696 4.6625 18.888 7.218 18.888 4.5364 0-1.0878-12.618 8.6106-5.5656 2.425 1.7634 1.5518 1.2386 4.5929 2.0138" fill="none" opacity=".15" stroke="#fff4ad" stroke-linecap="round" stroke-width="7"/>
  <path id="path2885" d="m15.5 53.406c1.1096-5.3378 0.63229-13.723 2.7253-13.723 3.7496 2.01e-4 4.8107 17.523 7.1751 17.534 2.3519 0.01236 0.12694-13.146 3.1725-12.998 4.897 0.24813 3.3777-10.249 5.6972-10.262 4.2805-0.025 2.4346 22.959 5.9588 22.8 2.8319-0.1276 2.1878-5.8554 4.4862-5.4893 2.6498 0.42214 1.8859 4.5634 3.6441 4.4937 2.7507-0.10896 0.64723-18.819 3.368-18.771 2.1105 0.03696 4.6625 18.888 7.218 18.888 4.5364 0-1.0878-12.618 8.6106-5.5656 2.425 1.7634 1.5518 1.2386 4.5929 2.0138" fill="none" opacity=".3" stroke="#fff4ad" stroke-linecap="round" stroke-width="5"/>
 </g>
</svg>
