<?xml version="1.0" encoding="UTF-8"?>
<!-- Created with Inkscape (http://www.inkscape.org/) -->
<svg id="svg2408" width="96" height="96" version="1.0" xmlns="http://www.w3.org/2000/svg" xmlns:cc="http://creativecommons.org/ns#" xmlns:dc="http://purl.org/dc/elements/1.1/" xmlns:rdf="http://www.w3.org/1999/02/22-rdf-syntax-ns#" xmlns:xlink="http://www.w3.org/1999/xlink">
 <defs id="defs2410">
  <linearGradient id="linearGradient3936">
   <stop id="stop3938" offset="0"/>
   <stop id="stop3940" stop-opacity="0" offset="1"/>
  </linearGradient>
  <linearGradient id="ButtonShadow" x1="45.448" x2="45.448" y1="92.54" y2="7.0165" gradientTransform="scale(1.0059 .99417)" gradientUnits="userSpaceOnUse">
   <stop id="stop3750" offset="0"/>
   <stop id="stop3752" stop-opacity=".58824" offset="1"/>
  </linearGradient>
  <linearGradient id="linearGradient3737">
   <stop id="stop3739" stop-color="#fff" offset="0"/>
   <stop id="stop3741" stop-color="#fff" stop-opacity="0" offset="1"/>
  </linearGradient>
  <filter id="filter3174">
   <feGaussianBlur id="feGaussianBlur3176" stdDeviation="1.71"/>
  </filter>
  <linearGradient id="linearGradient3188" x1="36.357" x2="36.357" y1="6" y2="63.893" gradientUnits="userSpaceOnUse" xlink:href="#linearGradient3737"/>
  <filter id="filter3794" x="-.192" y="-.192" width="1.384" height="1.384">
   <feGaussianBlur id="feGaussianBlur3796" stdDeviation="5.28"/>
  </filter>
  <linearGradient id="linearGradient3613" x1="48" x2="48" y1="20.221" y2="138.66" gradientUnits="userSpaceOnUse" xlink:href="#linearGradient3737"/>
  <radialGradient id="radialGradient3619" cx="48" cy="90.172" r="42" gradientTransform="matrix(1.1573 0 0 .99591 -7.551 .19713)" gradientUnits="userSpaceOnUse" xlink:href="#linearGradient3737"/>
  <clipPath id="clipPath3613">
   <rect id="rect3615" x="6" y="6" width="84" height="84" rx="6" ry="6" fill="#fff"/>
  </clipPath>
  <linearGradient id="linearGradient3617" x1="48" x2="48" y1="90" y2="5.9877" gradientTransform="translate(0,-96)" gradientUnits="userSpaceOnUse">
   <stop id="stop3803" stop-color="#9491c7" offset="0"/>
   <stop id="stop3805" stop-color="#4b46a7" stop-opacity=".99216" offset="1"/>
  </linearGradient>
  <linearGradient id="ButtonShadow-0" x1="45.448" x2="45.448" y1="92.54" y2="7.0165" gradientTransform="matrix(1.0059 0 0 .99417 100 0)" gradientUnits="userSpaceOnUse">
   <stop id="stop3750-8" offset="0"/>
   <stop id="stop3752-5" stop-opacity=".58824" offset="1"/>
  </linearGradient>
  <linearGradient id="linearGradient3780" x1="32.251" x2="32.251" y1="6.1317" y2="90.239" gradientTransform="matrix(1.0238 0 0 1.0119 -1.1429 -98.071)" gradientUnits="userSpaceOnUse" xlink:href="#ButtonShadow-0"/>
  <linearGradient id="linearGradient3721" x1="32.251" x2="32.251" y1="6.1317" y2="90.239" gradientTransform="translate(0,-97)" gradientUnits="userSpaceOnUse" xlink:href="#ButtonShadow-0"/>
  <linearGradient id="linearGradient4966">
   <stop id="stop4968" stop-color="#b6b3d8" offset="0"/>
   <stop id="stop4970" stop-color="#b6b3d8" stop-opacity="0" offset="1"/>
  </linearGradient>
  <linearGradient id="linearGradient3202">
   <stop id="stop3204" stop-color="#2b2b2b" offset="0"/>
   <stop id="stop3250" stop-color="#828383" offset=".5"/>
   <stop id="stop3206" stop-color="#dadbdb" offset="1"/>
  </linearGradient>
  <radialGradient id="radialGradient3854" cx="299.7" cy="371.76" r="76.696" gradientTransform="matrix(.27452 0 0 .17157 -32.848 6.6144)" gradientUnits="userSpaceOnUse" xlink:href="#linearGradient4966"/>
  <radialGradient id="radialGradient3858" cx="299.7" cy="371.76" r="76.696" gradientTransform="matrix(.35133 0 0 .21958 -55.867 -41.232)" gradientUnits="userSpaceOnUse" xlink:href="#linearGradient4966"/>
  <radialGradient id="radialGradient3890" cx="425.51" cy="356.62" r="143.34" gradientTransform="matrix(-.021224 -.017025 .22621 -.282 -136.43 244.92)" gradientUnits="userSpaceOnUse">
   <stop id="stop3296" stop-color="#6376e6" offset="0"/>
   <stop id="stop3302" stop-color="#222989" offset=".50094"/>
   <stop id="stop3298" stop-color="#00003d" offset="1"/>
  </radialGradient>
  <radialGradient id="radialGradient3892" cx="289.44" cy="390.45" r="17.677" gradientTransform="matrix(.087305 .069485 -.1065 .13382 -66.303 90.119)" gradientUnits="userSpaceOnUse" xlink:href="#linearGradient3202"/>
  <radialGradient id="radialGradient3894" cx="283.51" cy="382.15" r="17.677" gradientTransform="matrix(.087305 .069485 -.1065 .13382 -44.944 65.935)" gradientUnits="userSpaceOnUse" xlink:href="#linearGradient3202"/>
  <radialGradient id="radialGradient3896" cx="418.46" cy="181.19" r="63.069" gradientTransform="matrix(-.013803 -.012573 .35517 -.38992 -103.15 193.49)" gradientUnits="userSpaceOnUse">
   <stop id="stop3244" stop-color="#282828" offset="0"/>
   <stop id="stop3252" stop-color="#969696" offset=".39253"/>
   <stop id="stop3246" stop-color="#e3e3e3" offset="1"/>
  </radialGradient>
  <linearGradient id="linearGradient3942" x1="102.76" x2="142.17" y1="78.68" y2="30.336" gradientTransform="matrix(.98565 .16878 -.16878 .98565 -45.009 -15.895)" gradientUnits="userSpaceOnUse" xlink:href="#linearGradient3936"/>
  <linearGradient id="linearGradient3946" x1="103.95" x2="134.49" y1="79.295" y2="41.356" gradientTransform="matrix(.84816 .52974 -.52974 .84816 -2.1584 -41.321)" gradientUnits="userSpaceOnUse" xlink:href="#linearGradient3936"/>
 </defs>
 <metadata id="metadata2413">
  <rdf:RDF>
   <cc:Work rdf:about="">
    <dc:format>image/svg+xml</dc:format>
    <dc:type rdf:resource="http://purl.org/dc/dcmitype/StillImage"/>
    <dc:title/>
   </cc:Work>
  </rdf:RDF>
 </metadata>
 <g id="layer2" display="none">
  <rect id="rect3745" x="5" y="7" width="86" height="85" rx="6" ry="6" fill="url(#ButtonShadow)" filter="url(#filter3174)" opacity=".9"/>
 </g>
 <g id="layer3">
  <path id="path3786" transform="scale(1,-1)" d="m12-95.031c-5.5111 0-10.031 4.5202-10.031 10.031v71c0 5.5111 4.5202 10.031 10.031 10.031h72c5.5111 0 10.031-4.5202 10.031-10.031v-71c0-5.5111-4.5202-10.031-10.031-10.031h-72z" fill="url(#linearGradient3780)" opacity=".08"/>
  <path id="path3778" transform="scale(1,-1)" d="m12-94.031c-4.9716 0-9.0312 4.0596-9.0312 9.0312v71c0 4.9716 4.0596 9.0312 9.0312 9.0312h72c4.9716 0 9.0312-4.0596 9.0312-9.0312v-71c0-4.9716-4.0596-9.0312-9.0312-9.0312h-72z" fill="url(#linearGradient3780)" opacity=".1"/>
  <path id="path3770" transform="scale(1,-1)" d="m12-93c-4.4091 0-8 3.5909-8 8v71c0 4.4091 3.5909 8 8 8h72c4.4091 0 8-3.5909 8-8v-71c0-4.4091-3.5909-8-8-8h-72z" fill="url(#linearGradient3780)" opacity=".2"/>
  <rect id="rect3723" transform="scale(1,-1)" x="5" y="-92" width="86" height="85" rx="7" ry="7" fill="url(#linearGradient3780)" opacity=".3"/>
  <rect id="rect3716" transform="scale(1,-1)" x="6" y="-91" width="84" height="84" rx="6" ry="6" fill="url(#linearGradient3721)" opacity=".45"/>
 </g>
 <g id="layer1">
  <rect id="rect2419" transform="scale(1,-1)" x="6" y="-90" width="84" height="84" rx="6" ry="6" fill="url(#linearGradient3617)"/>
  <path id="rect3728" d="m12 6c-3.324 0-6 2.676-6 6v2 68 2c0 0.33472 0.04135 0.6507 0.09375 0.96875 0.0487 0.2956 0.09704 0.59692 0.1875 0.875 0.00988 0.03038 0.020892 0.0636 0.03125 0.09375 0.098865 0.28777 0.23488 0.54745 0.375 0.8125 0.14459 0.27351 0.31562 0.53562 0.5 0.78125s0.37378 0.47347 0.59375 0.6875c0.43995 0.42806 0.94291 0.81453 1.5 1.0938 0.27854 0.13961 0.57347 0.24695 0.875 0.34375-0.2562-0.10022-0.48671-0.23627-0.71875-0.375-0.00741-0.0044-0.023866 0.0045-0.03125 0-0.031933-0.0193-0.062293-0.04251-0.09375-0.0625-0.1204-0.0767-0.23102-0.16351-0.34375-0.25-0.10617-0.0808-0.21328-0.16111-0.3125-0.25-0.17793-0.16143-0.34746-0.34539-0.5-0.53125-0.10758-0.13026-0.21839-0.26528-0.3125-0.40625-0.025089-0.03838-0.038446-0.08587-0.0625-0.125-0.064763-0.10303-0.13023-0.20452-0.1875-0.3125-0.10101-0.19471-0.20567-0.4157-0.28125-0.625-0.00796-0.02181-0.023589-0.04055-0.03125-0.0625-0.031825-0.09195-0.035804-0.18683-0.0625-0.28125-0.030332-0.10662-0.070389-0.20303-0.09375-0.3125-0.072879-0.34151-0.125-0.6982-0.125-1.0625v-2-68-2c0-2.7818 2.2182-5 5-5h2 68 2c2.7818 0 5 2.2182 5 5v2 68 2c0 0.3643-0.05212 0.72099-0.125 1.0625-0.04415 0.20689-0.08838 0.39766-0.15625 0.59375-0.0077 0.02195-0.0233 0.04069-0.03125 0.0625-0.06274 0.17374-0.13838 0.36745-0.21875 0.53125-0.04158 0.0828-0.07904 0.16995-0.125 0.25-0.0546 0.09721-0.12677 0.18835-0.1875 0.28125-0.09411 0.14096-0.20492 0.276-0.3125 0.40625-0.14317 0.17445-0.30314 0.347-0.46875 0.5-0.01117 0.0102-0.01998 0.02115-0.03125 0.03125-0.13839 0.12556-0.28509 0.23444-0.4375 0.34375-0.10257 0.07315-0.20432 0.15336-0.3125 0.21875-0.0074 0.0045-0.02384-0.0044-0.03125 0-0.23204 0.13873-0.46255 0.27478-0.71875 0.375 0.30153-0.0968 0.59646-0.20414 0.875-0.34375 0.55709-0.27922 1.0601-0.66569 1.5-1.0938 0.21997-0.21403 0.40937-0.44186 0.59375-0.6875s0.35541-0.50774 0.5-0.78125c0.14012-0.26505 0.27614-0.52473 0.375-0.8125 0.01041-0.03078 0.02133-0.06274 0.03125-0.09375 0.09046-0.27808 0.1388-0.5794 0.1875-0.875 0.0524-0.31805 0.09375-0.63403 0.09375-0.96875v-2-68-2c0-3.324-2.676-6-6-6h-72z" fill="url(#linearGradient3188)" opacity=".35"/>
  <path id="path3615" d="m12 90c-3.324 0-6-2.676-6-6v-2-68-2c0-0.33472 0.04135-0.6507 0.09375-0.96875 0.0487-0.2956 0.09704-0.59692 0.1875-0.875 0.00988-0.03038 0.020892-0.0636 0.03125-0.09375 0.098865-0.28777 0.23488-0.54745 0.375-0.8125 0.14459-0.27351 0.31562-0.53562 0.5-0.78125s0.37378-0.47347 0.59375-0.6875c0.43995-0.42806 0.94291-0.81453 1.5-1.0938 0.27854-0.13961 0.57347-0.24695 0.875-0.34375-0.2562 0.10022-0.48671 0.23627-0.71875 0.375-0.00741 0.0044-0.023866-0.0045-0.03125 0-0.031933 0.0193-0.062293 0.04251-0.09375 0.0625-0.1204 0.0767-0.23102 0.16351-0.34375 0.25-0.10617 0.0808-0.21328 0.16111-0.3125 0.25-0.17793 0.16143-0.34746 0.34539-0.5 0.53125-0.10758 0.13026-0.21839 0.26528-0.3125 0.40625-0.025089 0.03838-0.038446 0.08587-0.0625 0.125-0.064763 0.10303-0.13023 0.20452-0.1875 0.3125-0.10101 0.19471-0.20567 0.4157-0.28125 0.625-0.00796 0.02181-0.023589 0.04055-0.03125 0.0625-0.031825 0.09195-0.035804 0.18683-0.0625 0.28125-0.030332 0.10662-0.070389 0.20303-0.09375 0.3125-0.072879 0.34151-0.125 0.6982-0.125 1.0625v2 68 2c0 2.7818 2.2182 5 5 5h2 68 2c2.7818 0 5-2.2182 5-5v-2-68-2c0-0.3643-0.05212-0.72099-0.125-1.0625-0.04415-0.20689-0.08838-0.39766-0.15625-0.59375-0.0077-0.02195-0.0233-0.04069-0.03125-0.0625-0.06274-0.17374-0.13838-0.36745-0.21875-0.53125-0.04158-0.0828-0.07904-0.16995-0.125-0.25-0.0546-0.09721-0.12677-0.18835-0.1875-0.28125-0.09411-0.14096-0.20492-0.276-0.3125-0.40625-0.14317-0.17445-0.30314-0.347-0.46875-0.5-0.01117-0.0102-0.01998-0.02115-0.03125-0.03125-0.13839-0.12556-0.28509-0.23444-0.4375-0.34375-0.10257-0.07315-0.20432-0.15336-0.3125-0.21875-0.0074-0.0045-0.02384 0.0044-0.03125 0-0.23204-0.13873-0.46255-0.27478-0.71875-0.375 0.30153 0.0968 0.59646 0.20414 0.875 0.34375 0.55709 0.27922 1.0601 0.66569 1.5 1.0938 0.21997 0.21403 0.40937 0.44186 0.59375 0.6875s0.35541 0.50774 0.5 0.78125c0.14012 0.26505 0.27614 0.52473 0.375 0.8125 0.01041 0.03078 0.02133 0.06274 0.03125 0.09375 0.09046 0.27808 0.1388 0.5794 0.1875 0.875 0.0524 0.31805 0.09375 0.63403 0.09375 0.96875v2 68 2c0 3.324-2.676 6-6 6h-72z" fill="url(#radialGradient3619)" opacity=".2"/>
  <rect id="rect4772" x="-139.31" y="-.25513" width="107.79" height="107.79" display="none" fill="none"/>
  <g id="g4788" transform="matrix(.21052 0 0 .21052 -139.34 -.29745)" display="none"></g>
  <g id="g4806" transform="matrix(.21052 0 0 .21052 -139.34 -.29745)" display="none">
   <g id="g4808" display="inline">
    <path id="path4810" d="m349.1 256.65c-0.265-0.254 37.637 27.605 39.421 25.012 6.362-9.252 82.046-93.137 84.784-116.24 0.242-2.003-0.516-4.096-0.516-4.096s-1.19-0.144-6.325-4.314c-2.692-2.192-5.483-4.581-5.483-4.581-16.054 0.998-57.885 41.559-111.06 103.57" display="none" fill="#050505"/>
   </g>
  </g>
  <g id="g4796" transform="matrix(.21052 0 0 .21052 -139.34 -.29745)"></g>
 </g>
 <g id="layer5">
  <rect id="rect3171" x="15" y="15" width="66" height="66" rx="12" ry="12" clip-path="url(#clipPath3613)" fill="url(#linearGradient3613)" filter="url(#filter3794)" opacity=".1" stroke="#fff" stroke-linecap="round" stroke-width=".5"/>
 </g>
 <g id="layer4" stroke-width="0">
  <path id="path3856" d="m76.371 40.399a26.945 16.841 0 1 1-53.891 0 26.945 16.841 0 1 1 53.891 0z" fill="url(#radialGradient3858)"/>
  <path id="path3846" d="m70.48 70.399a21.055 13.159 0 1 1-42.109 0 21.055 13.159 0 1 1 42.109 0z" fill="url(#radialGradient3854)" opacity=".6"/>
  <path id="path3848" d="m28.924 76.714s3.5556 1.0324 8.2886 1.6226c1.9167 0.23902 9.2096 1.0745 14.801 1.0525 0 0 6.81 0.0077 10.569-0.52626 3.9333-0.55874 6.1617-1.2718 7.4018-2.6948 0.0323-0.33929 0.59859-1.4453-0.93031-2.5118-3.9088-2.7268-8.962-3.4732-18.777-5.8041-10.854-2.7288-14.097-5.3419-15.718-7.233-1.5363-1.8953 0.28838-5.8314 9.0342-7.7624 4.4281-1.0776 20.92-1.2756 20.92-1.2756-4.7315-3.7565-13.614-10.482-15.43-11.912-1.5925-1.2544-4.1586-3.1794-4.4345-4.8996-0.37212-1.6746 2.2638-2.4808 3.6592-2.5739 4.4965-0.3101 10.637 0.21707 16.094 1.3024 2.7434 0.54556 3.2251 0.46516 3.2251 0.46516 3.9073 0.18606 6.9463-1.8606 6.7913-6.1711-0.03101-4.3725-4.4027-7.8785-9.2411-8.0317-4.5563-0.14422-15.784 0.65122-15.784 0.65122 13.086 2.6979 15.226 3.3864 15.908 4.9616 0.40313 0.93031-0.67341 1.8553-4.2794 1.6746-3.9258-0.19675-11.97-1.1474-11.97-1.1474-7.6595-1.1784-12.993-2.2948-15.319 0.74425-1.5195 1.9854 0.21707 4.4035 0.89929 5.8299 3.039 5.3028 8.2941 8.9409 11.629 11.505 1.2547 0.96472 5.0857 3.101 5.0857 3.101-11.908-3.2561-21.397-1.4265-27.413 1.7366-6.9153 4.0934-5.7324 11.001 5.2407 17.459 6.4812 3.8143 9.7081 5.6466 20.32 6.9494 6.2027 0.98902 7.1269 1.3937 7.0798 1.91-0.06637 0.72687-7.3415 1.0023-9.3412 1.1402-5.0872 0.35084-18.244 0.43855-18.31 0.43855z" fill="#fff" fill-rule="evenodd"/>
 </g>
 <g id="layer6">
  <path id="path3902" d="m103.1 26.998s-0.25105 0.20389-0.25781 0.20949c-2.2199-0.04859-8.0462 2.1053-23.243 15.201-0.0172-0.01668-0.13818-0.11878-0.13818-0.11878l-0.59831 0.53165c0.08481 0.07708 0.16193 0.15479 0.24557 0.23228-10.186 8.3603-21.075 18.131-21.944 18.911-7.99e-4 -0.0012-0.02549-0.03603-0.02548-0.03607l-0.0202-0.06687-0.0413 0.05634c-7.64e-4 -0.0014-0.02548-0.03607-0.02548-0.03607l-0.78924 0.72089c0.0081 0.01173 0.01734 0.02434 0.02548 0.03607l-0.03602 0.02554 0.02548 0.03607c4.2e-5 5.8e-5 0.04775 0.06716 0.05106 0.07216-9.3181 9.4955-15.122 16.652-14.884 17.489 0.31962 1.1263 18.764-11.737 19.526-12.382 0.03176 0.02607 0.19441 0.16002 0.19452 0.16013l0.03076 0.0053 0.86667-0.80274-0.02548-0.03607c-1.53e-4 -1.1e-4 -0.07489-0.07217-0.08181-0.07742 1.8428-1.4121 11.909-9.174 22.46-18.221 0.17083 0.22573 0.33186 0.46899 0.33186 0.46899l0.59831-0.53164c-0.02268-0.03404-0.05293-0.07361-0.07653-0.10822 0.7902-0.61736 17.456-13.665 19.33-19.01 0.21345-0.15748 0.30053-0.23332 0.51035-0.38819 0 0-0.0316-1.8278-2.0086-2.3414z" fill="url(#linearGradient3942)" opacity=".25"/>
  <g id="g3861" transform="matrix(.89438 0 0 .89438 130.82 -82.591)">
   <g id="g4820" transform="matrix(.21052 0 0 .21052 -139.34 79.703)">
    <path id="path4824" d="m279.48 404.24c-7e-3 -4e-3 -7.446-4.112-16.804-11.401-8.082-6.285-13.538-12.214-13.544-12.22l-0.122-0.133 3.646-4.669 0.157-0.205 0.169 0.197c0.017 0.01 5.4 6.295 13.725 12.78 7.913 6.157 16.594 10.586 16.612 10.595l0.229 0.117-3.911 5.026-0.157-0.087zm-16.542-11.737c8.545 6.656 15.469 10.644 16.589 11.275l3.372-4.334c-1.423-0.743-9.253-4.919-16.453-10.521-7.504-5.845-12.637-11.533-13.614-12.645l-3.264 4.184c0.849 0.905 6.01 6.32 13.37 12.041z" fill="#4d4d4d"/>
   </g>
   <path id="path3254" d="m-80.52 164.42s11.205-12.022 22.174-25.259l0.47909 0.14793s22.747-24.929 17.183-26.947c0 0-2.782-5.5094-24.601 21.001l-0.04196 0.39783c-10.067 11.61-21.253 25.766-21.253 25.766-8.64 12.42-13.77 21.6-13.346 22.487 0.57673 1.2059 19.44-17.473 19.407-17.594z" fill="url(#radialGradient3890)" fill-rule="evenodd" stroke="#000030" stroke-width=".55905"/>
   <path id="path2430" d="m-86.948 159.76c2.4493 2.5072 6.4415 5.0529 6.4415 5.0529l0.79072-1.0029c-2.709-1.4158-6.48-5.0143-6.48-5.0143l-0.75215 0.96428z" fill="url(#radialGradient3892)" fill-rule="evenodd"/>
   <path id="path3236" d="m-65.762 133.69c4.32 2.7579 7.7143 6.0943 7.7143 6.0943l0.57857-0.675c-2.304-2.4379-7.7233-6.1263-7.7233-6.1263l-0.56961 0.70696z" fill="url(#radialGradient3894)" fill-rule="evenodd"/>
   <path id="path3240" d="m-42.031 111.66c2.2757 0.19285 2.6614 2.1986 2.6614 2.1986-10.376 10.8-25.573 26.499-25.573 26.499l-0.77143-0.65572c13.384-16.046 23.683-28.042 23.683-28.042" fill="url(#radialGradient3896)" fill-rule="evenodd"/>
  </g>
  <path id="path3944" d="m118.64 54.503s-0.30959 0.09354-0.31797 0.09616c-2.0359-0.8863-8.2438-1.1012-27.27 5.2585-0.0096-0.02195-0.08286-0.16229-0.08286-0.16229l-0.75517 0.26523c0.04927 0.10347 0.09119 0.20462 0.13922 0.30802-12.595 3.8761-26.374 8.7909-27.474 9.1839-2.72e-4 -0.0014-0.0099-0.043-0.0099-0.04304l0.0067-0.06954-0.05957 0.03648c-1.62e-4 -0.0016-0.0099-0.04303-0.0099-0.04303l-1.0036 0.36799c0.0031 0.01393 0.0069 0.02909 0.0099 0.04304l-0.04302 0.01002 0.0099 0.04303c1.6e-5 7e-5 0.01874 0.08025 0.01991 0.08613-12.222 5.2557-20.304 9.6783-20.402 10.543-0.13108 1.1634 21.812-3.7498 22.762-4.0581 0.0195 0.03615 0.11926 0.22176 0.11932 0.2219l0.02646 0.01655 1.1062-0.4144-0.0099-0.04304c-9.9e-5 -1.61e-4 -0.04196-0.09517-0.04636-0.10264 2.2405-0.60838 14.498-3.976 27.69-8.3492 0.07254 0.27363 0.12936 0.55977 0.12936 0.55977l0.75517-0.26523c-0.0081-0.04009-0.02109-0.08818-0.0298-0.12915 0.96523-0.27182 21.332-6.0301 25.092-10.266 0.25721-0.06483 0.36653-0.10202 0.6194-0.16581 0 0 0.66347-1.7034-0.97145-2.928z" fill="url(#linearGradient3946)" opacity=".4"/>
 </g>
</svg>
