<?xml version="1.0" encoding="UTF-8"?>
<!-- Created with Inkscape (http://www.inkscape.org/) -->
<svg id="svg2408" width="96" height="96" version="1.0" xmlns="http://www.w3.org/2000/svg" xmlns:cc="http://creativecommons.org/ns#" xmlns:dc="http://purl.org/dc/elements/1.1/" xmlns:rdf="http://www.w3.org/1999/02/22-rdf-syntax-ns#" xmlns:xlink="http://www.w3.org/1999/xlink">
 <defs id="defs2410">
  <linearGradient id="ButtonShadow" x1="45.448" x2="45.448" y1="92.54" y2="7.0165" gradientTransform="matrix(1.0059 0 0 .99417 100 0)" gradientUnits="userSpaceOnUse">
   <stop id="stop3750" offset="0"/>
   <stop id="stop3752" stop-opacity=".58824" offset="1"/>
  </linearGradient>
  <linearGradient id="linearGradient3737">
   <stop id="stop3739" stop-color="#fff" offset="0"/>
   <stop id="stop3741" stop-color="#fff" stop-opacity="0" offset="1"/>
  </linearGradient>
  <linearGradient id="linearGradient3700">
   <stop id="stop3702" stop-color="#70a83e" offset="0"/>
   <stop id="stop3704" stop-color="#9fd058" offset="1"/>
  </linearGradient>
  <filter id="filter3174" color-interpolation-filters="sRGB">
   <feGaussianBlur id="feGaussianBlur3176" stdDeviation="1.71"/>
  </filter>
  <linearGradient id="linearGradient3188" x1="36.357" x2="36.357" y1="6" y2="63.893" gradientUnits="userSpaceOnUse" xlink:href="#linearGradient3737"/>
  <filter id="filter3794" x="-.192" y="-.192" width="1.384" height="1.384" color-interpolation-filters="sRGB">
   <feGaussianBlur id="feGaussianBlur3796" stdDeviation="5.28"/>
  </filter>
  <linearGradient id="linearGradient3613" x1="48" x2="48" y1="20.221" y2="138.66" gradientUnits="userSpaceOnUse" xlink:href="#linearGradient3737"/>
  <radialGradient id="radialGradient3619" cx="48" cy="90.172" r="42" gradientTransform="matrix(1.1573 0 0 .99591 -7.551 .19713)" gradientUnits="userSpaceOnUse" xlink:href="#linearGradient3737"/>
  <clipPath id="clipPath3613">
   <rect id="rect3615" x="6" y="6" width="84" height="84" rx="6" ry="6" fill="#fff"/>
  </clipPath>
  <linearGradient id="linearGradient3617" x1="48" x2="48" y1="90" y2="5.9877" gradientUnits="userSpaceOnUse" xlink:href="#linearGradient3700"/>
  <linearGradient id="linearGradient3700-4">
   <stop id="stop3702-4" stop-color="#2b930b" offset="0"/>
   <stop id="stop3704-4" stop-color="#67d441" offset="1"/>
  </linearGradient>
  <clipPath id="clipPath2973">
   <rect id="rect2975" x="6" y="6" width="84" height="84" rx="6" ry="6" fill="url(#linearGradient2977)"/>
  </clipPath>
  <linearGradient id="linearGradient2977" x1="48" x2="48" y1="90" y2="5.9877" gradientUnits="userSpaceOnUse" xlink:href="#linearGradient3700-4"/>
  <linearGradient id="linearGradient3721" x1="32.251" x2="32.251" y1="6.1317" y2="90.239" gradientTransform="translate(0,-97)" gradientUnits="userSpaceOnUse" xlink:href="#ButtonShadow"/>
  <linearGradient id="linearGradient3725" x1="32.251" x2="32.251" y1="6.1317" y2="90.239" gradientTransform="matrix(1.0238 0 0 1.0119 -1.1429 -98.071)" gradientUnits="userSpaceOnUse" xlink:href="#ButtonShadow"/>
 </defs>
 <metadata id="metadata2413">
  <rdf:RDF>
   <cc:Work rdf:about="">
    <dc:format>image/svg+xml</dc:format>
    <dc:type rdf:resource="http://purl.org/dc/dcmitype/StillImage"/>
    <dc:title/>
   </cc:Work>
  </rdf:RDF>
 </metadata>
 <g id="layer2" display="none">
  <rect id="rect3745" x="105" y="7" width="86" height="85" rx="6" ry="6" fill="url(#ButtonShadow)" filter="url(#filter3174)" opacity=".9"/>
 </g>
 <g id="layer3">
  <path id="path3786" transform="scale(1,-1)" d="m12-95.031c-5.5111 0-10.031 4.5202-10.031 10.031v71c0 5.5111 4.5202 10.031 10.031 10.031h72c5.5111 0 10.031-4.5202 10.031-10.031v-71c0-5.5111-4.5202-10.031-10.031-10.031h-72z" fill="url(#linearGradient3725)" opacity=".08"/>
  <path id="path3778" transform="scale(1,-1)" d="m12-94.031c-4.9716 0-9.0312 4.0596-9.0312 9.0312v71c0 4.9716 4.0596 9.0312 9.0312 9.0312h72c4.9716 0 9.0312-4.0596 9.0312-9.0312v-71c0-4.9716-4.0596-9.0312-9.0312-9.0312h-72z" fill="url(#linearGradient3725)" opacity=".1"/>
  <path id="path3770" transform="scale(1,-1)" d="m12-93c-4.4091 0-8 3.5909-8 8v71c0 4.4091 3.5909 8 8 8h72c4.4091 0 8-3.5909 8-8v-71c0-4.4091-3.5909-8-8-8h-72z" fill="url(#linearGradient3725)" opacity=".2"/>
  <rect id="rect3723" transform="scale(1,-1)" x="5" y="-92" width="86" height="85" rx="7" ry="7" fill="url(#linearGradient3725)" opacity=".3"/>
  <rect id="rect3716" transform="scale(1,-1)" x="6" y="-91" width="84" height="84" rx="6" ry="6" fill="url(#linearGradient3721)" opacity=".45"/>
 </g>
 <g id="layer1">
  <rect id="rect2419" x="6" y="6" width="84" height="84" rx="6" ry="6" fill="url(#linearGradient2977)"/>
  <path id="rect3728" d="m12 6c-3.324 0-6 2.676-6 6v2 68 2c0 0.33472 0.04135 0.6507 0.09375 0.96875 0.0487 0.2956 0.09704 0.59692 0.1875 0.875 0.00988 0.03038 0.020892 0.0636 0.03125 0.09375 0.098865 0.28777 0.23488 0.54745 0.375 0.8125 0.14459 0.27351 0.31562 0.53562 0.5 0.78125s0.37378 0.47347 0.59375 0.6875c0.43995 0.42806 0.94291 0.81453 1.5 1.0938 0.27854 0.13961 0.57347 0.24695 0.875 0.34375-0.2562-0.10022-0.48671-0.23627-0.71875-0.375-0.00741-0.0044-0.023866 0.0045-0.03125 0-0.031933-0.0193-0.062293-0.04251-0.09375-0.0625-0.1204-0.0767-0.23102-0.16351-0.34375-0.25-0.10617-0.0808-0.21328-0.16111-0.3125-0.25-0.17793-0.16143-0.34746-0.34539-0.5-0.53125-0.10758-0.13026-0.21839-0.26528-0.3125-0.40625-0.025089-0.03838-0.038446-0.08587-0.0625-0.125-0.064763-0.10303-0.13023-0.20452-0.1875-0.3125-0.10101-0.19471-0.20567-0.4157-0.28125-0.625-0.00796-0.02181-0.023589-0.04055-0.03125-0.0625-0.031825-0.09195-0.035804-0.18683-0.0625-0.28125-0.030332-0.10662-0.070389-0.20303-0.09375-0.3125-0.072879-0.34151-0.125-0.6982-0.125-1.0625v-2-68-2c0-2.7818 2.2182-5 5-5h2 68 2c2.7818 0 5 2.2182 5 5v2 68 2c0 0.3643-0.05212 0.72099-0.125 1.0625-0.04415 0.20689-0.08838 0.39766-0.15625 0.59375-0.0077 0.02195-0.0233 0.04069-0.03125 0.0625-0.06274 0.17374-0.13838 0.36745-0.21875 0.53125-0.04158 0.0828-0.07904 0.16995-0.125 0.25-0.0546 0.09721-0.12677 0.18835-0.1875 0.28125-0.09411 0.14096-0.20492 0.276-0.3125 0.40625-0.14317 0.17445-0.30314 0.347-0.46875 0.5-0.01117 0.0102-0.01998 0.02115-0.03125 0.03125-0.13839 0.12556-0.28509 0.23444-0.4375 0.34375-0.10257 0.07315-0.20432 0.15336-0.3125 0.21875-0.0074 0.0045-0.02384-0.0044-0.03125 0-0.23204 0.13873-0.46255 0.27478-0.71875 0.375 0.30153-0.0968 0.59646-0.20414 0.875-0.34375 0.55709-0.27922 1.0601-0.66569 1.5-1.0938 0.21997-0.21403 0.40937-0.44186 0.59375-0.6875s0.35541-0.50774 0.5-0.78125c0.14012-0.26505 0.27614-0.52473 0.375-0.8125 0.01041-0.03078 0.02133-0.06274 0.03125-0.09375 0.09046-0.27808 0.1388-0.5794 0.1875-0.875 0.0524-0.31805 0.09375-0.63403 0.09375-0.96875v-2-68-2c0-3.324-2.676-6-6-6h-72z" fill="url(#linearGradient3188)" opacity=".4"/>
  <path id="path3615" d="m12 90c-3.324 0-6-2.676-6-6v-2-68-2c0-0.33472 0.04135-0.6507 0.09375-0.96875 0.0487-0.2956 0.09704-0.59692 0.1875-0.875 0.00988-0.03038 0.020892-0.0636 0.03125-0.09375 0.098865-0.28777 0.23488-0.54745 0.375-0.8125 0.14459-0.27351 0.31562-0.53562 0.5-0.78125s0.37378-0.47347 0.59375-0.6875c0.43995-0.42806 0.94291-0.81453 1.5-1.0938 0.27854-0.13961 0.57347-0.24695 0.875-0.34375-0.2562 0.10022-0.48671 0.23627-0.71875 0.375-0.00741 0.0044-0.023866-0.0045-0.03125 0-0.031933 0.0193-0.062293 0.04251-0.09375 0.0625-0.1204 0.0767-0.23102 0.16351-0.34375 0.25-0.10617 0.0808-0.21328 0.16111-0.3125 0.25-0.17793 0.16143-0.34746 0.34539-0.5 0.53125-0.10758 0.13026-0.21839 0.26528-0.3125 0.40625-0.025089 0.03838-0.038446 0.08587-0.0625 0.125-0.064763 0.10303-0.13023 0.20452-0.1875 0.3125-0.10101 0.19471-0.20567 0.4157-0.28125 0.625-0.00796 0.02181-0.023589 0.04055-0.03125 0.0625-0.031825 0.09195-0.035804 0.18683-0.0625 0.28125-0.030332 0.10662-0.070389 0.20303-0.09375 0.3125-0.072879 0.34151-0.125 0.6982-0.125 1.0625v2 68 2c0 2.7818 2.2182 5 5 5h2 68 2c2.7818 0 5-2.2182 5-5v-2-68-2c0-0.3643-0.05212-0.72099-0.125-1.0625-0.04415-0.20689-0.08838-0.39766-0.15625-0.59375-0.0077-0.02195-0.0233-0.04069-0.03125-0.0625-0.06274-0.17374-0.13838-0.36745-0.21875-0.53125-0.04158-0.0828-0.07904-0.16995-0.125-0.25-0.0546-0.09721-0.12677-0.18835-0.1875-0.28125-0.09411-0.14096-0.20492-0.276-0.3125-0.40625-0.14317-0.17445-0.30314-0.347-0.46875-0.5-0.01117-0.0102-0.01998-0.02115-0.03125-0.03125-0.13839-0.12556-0.28509-0.23444-0.4375-0.34375-0.10257-0.07315-0.20432-0.15336-0.3125-0.21875-0.0074-0.0045-0.02384 0.0044-0.03125 0-0.23204-0.13873-0.46255-0.27478-0.71875-0.375 0.30153 0.0968 0.59646 0.20414 0.875 0.34375 0.55709 0.27922 1.0601 0.66569 1.5 1.0938 0.21997 0.21403 0.40937 0.44186 0.59375 0.6875s0.35541 0.50774 0.5 0.78125c0.14012 0.26505 0.27614 0.52473 0.375 0.8125 0.01041 0.03078 0.02133 0.06274 0.03125 0.09375 0.09046 0.27808 0.1388 0.5794 0.1875 0.875 0.0524 0.31805 0.09375 0.63403 0.09375 0.96875v2 68 2c0 3.324-2.676 6-6 6h-72z" fill="url(#radialGradient3619)" opacity=".2"/>
 </g>
 <g id="layer7">
  <g id="g3855" clip-path="url(#clipPath2973)" fill="#dcffaa" opacity=".9">
   <path id="path3819" d="m48 48 24-56h16l-40 56z" opacity=".15"/>
   <path id="path3821" d="m48 48 55.251 25.677-0.48222 15.993-54.769-41.67z" opacity=".15"/>
   <path id="path3823" d="m48 48-59.828 11.516-8.9688-13.25 68.797 1.734z" opacity=".15"/>
   <path id="path3825" d="m48 48-49.311-35.783 3.5361-15.604 45.775 51.387z" opacity=".15"/>
   <path id="path3827" d="m48 48 17.519-62.073 30.436 12.714-47.955 49.359z" opacity=".15"/>
   <path id="path3829" d="m48 48 61.636-19.001 5.8539 32.461-67.49-13.46z" opacity=".15"/>
   <path id="path3831" d="m48 48-31.246 56.424-26.723-19.336 57.969-37.089z" opacity=".15"/>
   <path id="path3833" d="m48 48-62.812-14.651 11.304-30.988 51.508 45.639z" opacity=".15"/>
   <path id="path3835" d="m48 48 45.81 45.403-3.6917 9.0215-42.118-54.425z" opacity=".15"/>
   <path id="path3837" d="m48 48-2.9701 64.43-9.1685 3.31 12.139-67.74z" opacity=".15"/>
   <path id="path3839" d="m48 48-44.859 46.343-9.0645-3.585 53.924-42.758z" opacity=".15"/>
   <path id="path3841" d="m48 48-62.116 17.366-6.0159-7.6698 68.132-9.6964z" opacity=".15"/>
   <path id="path3843" d="m48 48-29.147-57.537 6.3493-7.3962 22.797 64.933z" opacity=".15"/>
   <path id="path3845" d="m48 48 59.482-24.939 6.921 6.8641-66.403 18.074z" opacity=".15"/>
   <path id="path3849" d="m48 48 40.187 45.793-6.8963 14.437-33.29-60.231z" opacity=".15"/>
   <path id="path3851" d="m48 48-35.958-49.184 8.1521-13.767 27.806 62.951z" opacity=".15"/>
  </g>
  <rect id="rect3873" x="6" y="6" width="84" height="84" rx="6" ry="6" display="none" fill="url(#linearGradient3617)"/>
  <rect id="rect3880" x="6" y="6" width="84" height="84" rx="6" ry="6" display="none" fill="url(#linearGradient3617)"/>
 </g>
 <g id="layer5">
  <rect id="rect3171" x="15" y="15" width="66" height="66" rx="12" ry="12" clip-path="url(#clipPath3613)" fill="url(#linearGradient3613)" filter="url(#filter3794)" opacity=".1" stroke="#fff" stroke-linecap="round" stroke-width=".5"/>
 </g>
 <g id="layer4">
  <path id="path3780" d="m65.906 20.156c-0.86051 0.02442-1.6387 0.12252-2.2812 0.0625a1.0822 1.0822 0 0 0-0.09375-0.03125c-4.6143 0.04326-9.297-0.08724-13.969 0.0625a1.0822 1.0822 0 0 0-0.53125 0.15625c-0.04339-0.0082-0.1173-0.01527-0.28125-0.0625-0.20298-0.05848-0.46582-0.1427-0.84375-0.15625-0.24063-0.0086-0.53426 0.14792-0.8125 0.25v-0.0625c-0.13596 0.02124-0.50822-0.04112-1-0.125-0.43345-0.07393-1.005-0.1166-1.625-0.03125v-0.03125c-5.4151 0.042939-10.882-0.086302-16.344 0.0625a1.0822 1.0822 0 0 0-0.53125 0.1875c-0.20241-0.07891-0.71335-0.34423-1.4062-0.21875-0.01506 0.0027-0.01606-0.0031-0.03125 0-1.2515 0.2396-2.056 1.1597-2.5625 1.9688-0.51059 0.81557-0.86434 1.5902-1.2188 2.0312a1.0822 1.0822 0 0 0-0.09375 0.125c-2.336 3.8822-4.8655 7.7113-7.125 11.719a1.0822 1.0822 0 0 0-0.0625 0.09375c-0.34173 0.79416-0.11644 1.5282-0.03125 1.875 0.08519 0.34678 0.084 0.21865 0.0625 0.25a1.0822 1.0822 0 0 0-0.15625 0.46875c-0.16863 1.2272 0.40329 2.2441 0.96875 2.9688s1.1393 1.2938 1.4062 1.75a1.0822 1.0822 0 0 0 0.09375 0.125c8.8713 11.4 17.756 22.79 26.625 34.188 0.65137 0.82942 1.6748 1.021 2.3438 1 0.66894-0.02095 1.1459-0.0773 1.3125-0.03125a1.0822 1.0822 0 0 0 0.5625 0c0.16663-0.04605 0.64356 0.0103 1.3125 0.03125s1.6924-0.17058 2.3438-1c9.5572-12.324 19.21-24.603 28.719-36.969a1.0822 1.0822 0 0 0 0.03125-0.03125c0.54266-0.74137 0.3977-1.6105 0.28125-2.0625s-0.05317-0.56734-0.125-0.40625a1.0822 1.0822 0 0 0 0.03125-0.09375c0.42854-1.2345-0.026562-2.3964-0.53125-3.2188s-1.0635-1.4818-1.2812-1.9688a1.0822 1.0822 0 0 0-0.09375-0.125c-2.4326-3.8529-4.7291-7.8422-7.2812-11.688a1.0822 1.0822 0 0 0-0.125-0.15625c-0.54781-0.5699-1.2783-0.8116-1.9375-0.84375-0.49986-0.02438-0.94294 0.13004-1.375 0.28125-0.80798-0.23913-1.6187-0.36432-2.3438-0.34375z" opacity=".05"/>
  <path id="path3773" d="m26.375 21.281c-1.7547 0.31886-2.157 2.3836-3.1459 3.6142-2.353 3.9103-4.9021 7.7375-7.1354 11.698-0.35135 0.81653 0.45967 1.5511-0.0625 2.3125-0.23011 1.6746 1.499 2.7145 2.262 4.0187 8.8708 11.4 17.743 22.802 26.613 34.2 0.8188 1.0426 2.0763 0.31259 3.0938 0.59375 1.0174-0.28116 2.275 0.44888 3.0938-0.59375 9.5601-12.328 19.215-24.609 28.719-36.969 0.56738-0.77515-0.26724-1.6119 0.03125-2.2812 0.58166-1.6756-1.1391-2.9783-1.7725-4.3944-2.4469-3.8756-4.7618-7.8589-7.29-11.668-0.66127-0.68794-1.7387-0.61242-2.5-0.25-1.4741-0.59922-3.1846-0.13452-4.7554-0.28125-4.6412 0.04351-9.3038-0.08585-13.932 0.0625-0.71272 0.5416-1.5456-0.46734-2.3438 0.09375-0.82069 0.12822-1.8186-0.3617-2.7719-0.15625-5.4379 0.04312-10.897-0.0853-16.322 0.0625-0.6321 0.52031-1.0496-0.21158-1.7812-0.0625z" opacity=".1"/>
  <path id="path3769" d="m26.5 22.5a0.77274 0.77274 0 0 0-0.59375 0.375l-8.5625 13.875a0.77274 0.77274 0 0 0 0.65625 1.1875h17.156a0.77274 0.77274 0 0 0 0.65625-1.1875l-8.5938-13.875a0.77274 0.77274 0 0 0-0.71875-0.375zm2.1562 0a0.77274 0.77274 0 0 0-0.59375 1.1875l8.5625 13.875a0.77274 0.77274 0 0 0 1.3125 0l8.5625-13.875a0.77274 0.77274 0 0 0-0.65625-1.1875h-17.125a0.77274 0.77274 0 0 0-0.0625 0zm19.281 0a0.77274 0.77274 0 0 0-0.59375 0.375l-8.5625 13.875a0.77274 0.77274 0 0 0 0.65625 1.1875h17.125a0.77274 0.77274 0 0 0 0.65625-1.1875l-8.5625-13.875a0.77274 0.77274 0 0 0-0.71875-0.375zm2.1562 0a0.77274 0.77274 0 0 0-0.59375 1.1875l8.5625 13.875a0.77274 0.77274 0 0 0 1.3125 0l8.5625-13.875a0.77274 0.77274 0 0 0-0.65625-1.1875h-17.125a0.77274 0.77274 0 0 0-0.0625 0zm19.281 0a0.77274 0.77274 0 0 0-0.59375 0.375l-8.5938 13.875a0.77274 0.77274 0 0 0 0.65625 1.1875h17.156a0.77274 0.77274 0 0 0 0.65625-1.1875l-8.5625-13.875a0.77274 0.77274 0 0 0-0.71875-0.375zm-51.438 16a0.77274 0.77274 0 0 0-0.5625 1.25l28.344 36.438a0.77274 0.77274 0 0 0 1.375-0.6875l-10.125-36.438a0.77274 0.77274 0 0 0-0.75-0.5625h-18.219a0.77274 0.77274 0 0 0-0.0625 0zm20.344 0a0.77274 0.77274 0 0 0-0.6875 0.96875l9.6562 36.438a0.77274 0.77274 0 0 0 1.5 0l9.6562-36.438a0.77274 0.77274 0 0 0-0.75-0.96875h-19.312a0.77274 0.77274 0 0 0-0.0625 0zm21.438 0a0.77274 0.77274 0 0 0-0.6875 0.5625l-10.125 36.438a0.77274 0.77274 0 0 0 1.375 0.6875l28.344-36.438a0.77274 0.77274 0 0 0-0.625-1.25h-18.219a0.77274 0.77274 0 0 0-0.0625 0z" opacity=".15"/>
  <path id="path2993" d="m26.562 23.281-8.5625 13.875h17.156l-8.5938-13.875zm2.1562 0 8.5625 13.875 8.5625-13.875h-17.125zm19.281 0-8.5625 13.875h17.125l-8.5625-13.875zm2.1562 0 8.5625 13.875 8.5625-13.875h-17.125zm19.281 0-8.5938 13.875h17.156l-8.5625-13.875zm-51.438 16 28.344 36.438-10.125-36.438h-18.219zm20.344 0 9.6562 36.438 9.6562-36.438h-19.312zm21.438 0-10.125 36.438 28.344-36.438h-18.219z" opacity=".3"/>
  <path id="path2990" d="m26.562 22.281-8.5625 13.875h17.156l-8.5938-13.875zm2.1562 0 8.5625 13.875 8.5625-13.875h-17.125zm19.281 0-8.5625 13.875h17.125l-8.5625-13.875zm2.1562 0 8.5625 13.875 8.5625-13.875h-17.125zm19.281 0-8.5938 13.875h17.156l-8.5625-13.875zm-51.438 16 28.344 36.438-10.125-36.438h-18.219zm20.344 0 9.6562 36.438 9.6562-36.438h-19.312zm21.438 0-10.125 36.438 28.344-36.438h-18.219z" fill="#fff"/>
 </g>
</svg>
