<?xml version="1.0" encoding="UTF-8"?>
<!-- Created with Inkscape (http://www.inkscape.org/) -->
<svg id="svg2408" width="96" height="96" version="1.0" xmlns="http://www.w3.org/2000/svg" xmlns:cc="http://creativecommons.org/ns#" xmlns:dc="http://purl.org/dc/elements/1.1/" xmlns:rdf="http://www.w3.org/1999/02/22-rdf-syntax-ns#" xmlns:xlink="http://www.w3.org/1999/xlink">
 <defs id="defs2410">
  <linearGradient id="ButtonShadow" x1="45.448" x2="45.448" y1="92.54" y2="7.0165" gradientTransform="scale(1.0059 .99417)" gradientUnits="userSpaceOnUse">
   <stop id="stop3750" offset="0"/>
   <stop id="stop3752" stop-opacity=".58824" offset="1"/>
  </linearGradient>
  <linearGradient id="linearGradient3737">
   <stop id="stop3739" stop-color="#fff" offset="0"/>
   <stop id="stop3741" stop-color="#fff" stop-opacity="0" offset="1"/>
  </linearGradient>
  <filter id="filter3174">
   <feGaussianBlur id="feGaussianBlur3176" stdDeviation="1.71"/>
  </filter>
  <linearGradient id="linearGradient3188" x1="36.357" x2="36.357" y1="6" y2="63.893" gradientUnits="userSpaceOnUse" xlink:href="#linearGradient3737"/>
  <filter id="filter3794" x="-.192" y="-.192" width="1.384" height="1.384">
   <feGaussianBlur id="feGaussianBlur3796" stdDeviation="5.28"/>
  </filter>
  <linearGradient id="linearGradient3613" x1="48" x2="48" y1="20.221" y2="138.66" gradientUnits="userSpaceOnUse" xlink:href="#linearGradient3737"/>
  <radialGradient id="radialGradient3619" cx="48" cy="90.172" r="42" gradientTransform="matrix(1.1573 0 0 .99591 -7.551 .19713)" gradientUnits="userSpaceOnUse" xlink:href="#linearGradient3737"/>
  <clipPath id="clipPath3613">
   <rect id="rect3615" x="6" y="6" width="84" height="84" rx="6" ry="6" fill="#fff"/>
  </clipPath>
  <linearGradient id="ButtonShadow-0" x1="45.448" x2="45.448" y1="92.54" y2="7.0165" gradientTransform="matrix(1.0059 0 0 .99417 100 0)" gradientUnits="userSpaceOnUse">
   <stop id="stop3750-8" offset="0"/>
   <stop id="stop3752-5" stop-opacity=".58824" offset="1"/>
  </linearGradient>
  <linearGradient id="linearGradient3780" x1="32.251" x2="32.251" y1="6.1317" y2="90.239" gradientTransform="matrix(1.0238 0 0 1.0119 -1.1429 -98.071)" gradientUnits="userSpaceOnUse" xlink:href="#ButtonShadow-0"/>
  <linearGradient id="linearGradient3721" x1="32.251" x2="32.251" y1="6.1317" y2="90.239" gradientTransform="translate(0,-97)" gradientUnits="userSpaceOnUse" xlink:href="#ButtonShadow-0"/>
  <linearGradient id="linearGradient2900" x1="48" x2="48" y1="90" y2="5.9877" gradientUnits="userSpaceOnUse">
   <stop id="stop3702-1" stop-color="#2e4f84" offset="0"/>
   <stop id="stop3704-8" stop-color="#4c77c5" offset="1"/>
  </linearGradient>
 </defs>
 <metadata id="metadata2413">
  <rdf:RDF>
   <cc:Work rdf:about="">
    <dc:format>image/svg+xml</dc:format>
    <dc:type rdf:resource="http://purl.org/dc/dcmitype/StillImage"/>
    <dc:title/>
   </cc:Work>
  </rdf:RDF>
 </metadata>
 <g id="layer2" display="none">
  <rect id="rect3745" x="5" y="7" width="86" height="85" rx="6" ry="6" fill="url(#ButtonShadow)" filter="url(#filter3174)" opacity=".9"/>
 </g>
 <g id="layer3">
  <path id="path3786" transform="scale(1,-1)" d="m12-95.031c-5.5111 0-10.031 4.5202-10.031 10.031v71c0 5.5111 4.5202 10.031 10.031 10.031h72c5.5111 0 10.031-4.5202 10.031-10.031v-71c0-5.5111-4.5202-10.031-10.031-10.031h-72z" fill="url(#linearGradient3780)" opacity=".08"/>
  <path id="path3778" transform="scale(1,-1)" d="m12-94.031c-4.9716 0-9.0312 4.0596-9.0312 9.0312v71c0 4.9716 4.0596 9.0312 9.0312 9.0312h72c4.9716 0 9.0312-4.0596 9.0312-9.0312v-71c0-4.9716-4.0596-9.0312-9.0312-9.0312h-72z" fill="url(#linearGradient3780)" opacity=".1"/>
  <path id="path3770" transform="scale(1,-1)" d="m12-93c-4.4091 0-8 3.5909-8 8v71c0 4.4091 3.5909 8 8 8h72c4.4091 0 8-3.5909 8-8v-71c0-4.4091-3.5909-8-8-8h-72z" fill="url(#linearGradient3780)" opacity=".2"/>
  <rect id="rect3723" transform="scale(1,-1)" x="5" y="-92" width="86" height="85" rx="7" ry="7" fill="url(#linearGradient3780)" opacity=".3"/>
  <rect id="rect3716" transform="scale(1,-1)" x="6" y="-91" width="84" height="84" rx="6" ry="6" fill="url(#linearGradient3721)" opacity=".45"/>
 </g>
 <g id="layer1">
  <rect id="rect2419" x="6" y="6" width="84" height="84" rx="6" ry="6" fill="url(#linearGradient2900)"/>
  <path id="rect3809" d="m10 72v11c0 1.662 1.338 3 3 3h70c1.662 0 3-1.338 3-3v-11h-76z" color="#000000" fill="#6683b3"/>
  <path id="rect3641" d="m6 102v12c0 3.324 2.676 6 6 6h72c3.324 0 6-2.676 6-6v-12z" fill="#6683b3"/>
  <path id="path3863" d="m62.125 16.062c-6.2854 0-10.947 1.6509-13.938 4.9062-2.9873 3.2519-4.125 7.8286-4.125 13.156v4.9375h-6.0312-0.03125c-0.0386 0.0014-0.19114 0.03156-0.1875 0.03125 0.0042-3.57e-4 -0.19168 7.79e-4 -0.1875 0 0.0042-7.79e-4 -0.19158 0.06369-0.1875 0.0625 0.0041-0.0012-0.16019 0.0641-0.15625 0.0625 0.0039-0.0016-0.19126 0.06448-0.1875 0.0625 0.0038-2e-3 -0.1598 0.12735-0.15625 0.125 0.0035-0.0023-0.15954 0.09644-0.15625 0.09375 0.0033-0.0027-0.15926 0.12801-0.15625 0.125 3e-3 -3e-3 -0.12769 0.15954-0.125 0.15625 0.0027-0.0033-0.0961 0.1598-0.09375 0.15625 0.0023-0.0035-0.12698 0.16001-0.125 0.15625 2e-3 -0.0038-0.0641 0.19144-0.0625 0.1875 0.0016-0.0039-0.06369 0.16033-0.0625 0.15625 0.0012-0.0041-0.06328 0.19168-0.0625 0.1875 7.79e-4 -0.0042-3.57e-4 0.19174 0 0.1875 3.07e-4 -0.0036-0.02981 0.1489-0.03125 0.1875-2.35e-4 0.0063 1e-5 0.03184 0 0.03125v12.938 0.03125c0.0014 0.0386 0.03156 0.19114 0.03125 0.1875-3.57e-4 -0.0042 7.79e-4 0.19168 0 0.1875-7.79e-4 -0.0042 0.06369 0.19158 0.0625 0.1875-0.0012-0.0041 0.0641 0.16019 0.0625 0.15625-0.0016-0.0039 0.06448 0.19126 0.0625 0.1875-2e-3 -0.0038 0.12735 0.1598 0.125 0.15625-0.0023-0.0035 0.09644 0.15954 0.09375 0.15625-0.0027-0.0033 0.12801 0.15926 0.125 0.15625-3e-3 -3e-3 0.15954 0.12769 0.15625 0.125-0.0033-0.0027 0.1598 0.0961 0.15625 0.09375-0.0035-0.0023 0.16001 0.12698 0.15625 0.125-0.0038-2e-3 0.19144 0.0641 0.1875 0.0625-0.0039-0.0016 0.16033 0.06369 0.15625 0.0625-0.0041-0.0012 0.19168 0.06328 0.1875 0.0625-0.0042-7.79e-4 0.19174 3.57e-4 0.1875 0-0.0036-3.07e-4 0.1489 0.02981 0.1875 0.03125 0.0063 2.35e-4 0.03184-1e-5 0.03125 0h6.0312v32.031 0.03125h18.75c2.35e-4 -0.0063-1e-5 -0.03185 0-0.03125v-32.031h8c-0.0039 5.8e-5 0.19137-0.03166 0.1875-0.03125-0.0039 4.14e-4 0.19132-0.03202 0.1875-0.03125-0.0038 7.67e-4 0.15998-0.03236 0.15625-0.03125-0.0037 0.0011 0.15986-0.06395 0.15625-0.0625-0.0036 0.0014 0.15971-0.06427 0.15625-0.0625-0.0035 0.0018 0.15954-0.09583 0.15625-0.09375-0.0033 0.0021 0.15933-0.09613 0.15625-0.09375-0.0031 0.0024 0.12785-0.12765 0.125-0.125-0.0029 0.0026 0.1276-0.1279 0.125-0.125-0.0026 0.0029 0.12732-0.12812 0.125-0.125-0.0023 0.0031 0.09578-0.15957 0.09375-0.15625-2e-3 0.0033 0.06421-0.15974 0.0625-0.15625-0.0017 0.0035 0.09514-0.15989 0.09375-0.15625-0.0014 0.0036 0.0323-0.16 0.03125-0.15625-1e-3 0.0037 0.0632-0.19133 0.0625-0.1875-6.99e-4 0.0038 3.46e-4 -0.16013 0-0.15625l1.3125-12.969v-0.03125c0.0028-0.02978 0.03136-0.06406 0.03125-0.0625-1.54e-4 0.0022 3.7e-5 -0.09598 0-0.09375-3.7e-5 0.0022-8e-5 -0.12723 0-0.125 8e-5 0.0022-1.97e-4 -0.09597 0-0.09375 1.97e-4 0.0022-0.03156-0.09596-0.03125-0.09375 3.14e-4 0.0022-4.29e-4 -0.09594 0-0.09375 4.29e-4 0.0022-0.03179-0.09591-0.03125-0.09375 5.43e-4 0.0022-0.03191-0.09588-0.03125-0.09375 6.56e-4 0.0021-0.03202-0.09584-0.03125-0.09375 7.67e-4 0.0021-0.03213-0.0958-0.03125-0.09375 8.76e-4 0.0021-0.03223-0.09575-0.03125-0.09375 9.82e-4 2e-3 -0.06359-0.0957-0.0625-0.09375 0.0011 0.0019-0.06369-0.09564-0.0625-0.09375 0.0012 0.0019-0.03253-0.09557-0.03125-0.09375 0.0013 0.0018-0.06388-0.06425-0.0625-0.0625 0.0014 0.0018-0.06397-0.09543-0.0625-0.09375 0.0015 0.0017-0.06405-0.0641-0.0625-0.0625 0.0016 0.0016-0.09539-0.06401-0.09375-0.0625 0.0016 0.0015-0.06421-0.06393-0.0625-0.0625 0.0017 0.0014-0.09554-0.06383-0.09375-0.0625 0.0018 0.0013-0.06435-0.06374-0.0625-0.0625 0.0019 0.0012-0.09567-0.06364-0.09375-0.0625 0.0019 0.0011-0.09572-0.06354-0.09375-0.0625 2e-3 1e-3 -0.09578-0.03218-0.09375-0.03125 2e-3 9.33e-4 -0.09582-0.03208-0.09375-0.03125 0.0021 8.26e-4 -0.09586-0.03197-0.09375-0.03125 0.0021 7.16e-4 -0.0959-0.03185-0.09375-0.03125 0.0021 6.04e-4 -0.09592-0.03174-0.09375-0.03125 0.0022 4.9e-4 -0.09595-0.03162-0.09375-0.03125 0.0022 3.75e-4 -0.09597-2.59e-4 -0.09375 0 0.0022 2.59e-4 -0.09597-1.43e-4 -0.09375 0 0.0022 1.43e-4 -0.12723-0.03128-0.125-0.03125h-9.3125l0.03125-3.6875c0-1.5396 0.24274-2.4419 0.3125-2.5312 0.06174-0.07906 0.15968-0.19418 0.5625-0.3125s1.0784-0.1875 2.125-0.1875h6.1562c-5.95e-4 -1e-5 0.02497 2.35e-4 0.03125 0 0.0386-0.0014 0.19114-0.03156 0.1875-0.03125-0.0042 3.57e-4 0.19168-7.79e-4 0.1875 0-0.0042 7.79e-4 0.19158-0.06369 0.1875-0.0625-0.0041 0.0012 0.16019-0.0641 0.15625-0.0625-0.0039 0.0016 0.19126-0.06448 0.1875-0.0625-0.0038 2e-3 0.1598-0.12735 0.15625-0.125-0.0035 0.0023 0.15954-0.09644 0.15625-0.09375-0.0033 0.0027 0.15926-0.12801 0.15625-0.125-3e-3 3e-3 0.12769-0.15954 0.125-0.15625-0.0027 0.0033 0.0961-0.1598 0.09375-0.15625-0.0023 0.0035 0.12698-0.16001 0.125-0.15625-2e-3 0.0038 0.0641-0.19144 0.0625-0.1875-0.0016 0.0039 0.06369-0.16033 0.0625-0.15625-0.0012 0.0041 0.06328-0.19168 0.0625-0.1875-7.79e-4 0.0042 3.57e-4 -0.19174 0-0.1875-3.07e-4 0.0036 0.02981-0.1489 0.03125-0.1875 2.35e-4 -0.0063-1e-5 -0.03185 0-0.03125v-12.344c-1e-5 5.95e-4 2.35e-4 -0.02497 0-0.03125-0.0014-0.0386-0.03156-0.19114-0.03125-0.1875 3.57e-4 0.0042-7.79e-4 -0.19168 0-0.1875 7.79e-4 0.0042-0.06369-0.19158-0.0625-0.1875 0.0012 0.0041-0.0641-0.16019-0.0625-0.15625 0.0016 0.0039-0.06448-0.19126-0.0625-0.1875 2e-3 0.0038-0.12735-0.1598-0.125-0.15625 0.0023 0.0035-0.09644-0.15954-0.09375-0.15625 0.0027 0.0033-0.12801-0.15926-0.125-0.15625 3e-3 3e-3 -0.15954-0.12769-0.15625-0.125 0.0033 0.0027-0.1598-0.0961-0.15625-0.09375 0.0035 0.0023-0.16001-0.12698-0.15625-0.125 0.0038 2e-3 -0.19144-0.0641-0.1875-0.0625 0.0039 0.0016-0.16033-0.06369-0.15625-0.0625 0.0041 0.0012-0.19168-0.06328-0.1875-0.0625 0.0042 7.79e-4 -0.19174-3.57e-4 -0.1875 0 0.0036 3.07e-4 -0.1489-0.02981-0.1875-0.03125h-0.03125z" fill="#2c4775" fill-opacity=".97647" opacity=".15"/>
  <path id="path3859" d="m62.125 17.094c-6.1109 0-10.437 1.5687-13.188 4.5625s-3.8438 7.2845-3.8438 12.469v5.9688h-7.0938c-0.47658-0.00772-0.91397 0.42967-0.90625 0.90625v13c-0.0077 0.47658 0.42967 0.91397 0.90625 0.90625h7.0938v32.094h16.688v-32.094h9.0312c0.43602-0.0065 0.83622-0.37816 0.875-0.8125l1.3125-13c0.06059-0.49601-0.37534-0.99421-0.875-1h-10.344l0.03125-4.7188c0-1.591 0.12032-2.63 0.53125-3.1562s1.29-0.90625 3.5-0.90625h6.1875c0.47658 0.0077 0.91397-0.42967 0.90625-0.90625v-12.406c0.0077-0.47658-0.42967-0.91397-0.90625-0.90625z" fill="#2c4775" fill-opacity=".97647" opacity=".4"/>
  <path id="path3835" d="m60.874 86h-14.874v-32.004h-8v-12.996h8v-6.8598c0-10.122 4.1953-16.14 16.118-16.14h9.9266v12.409h-6.2045c-4.642 0-4.9475 1.7336-4.9475 4.9699l-0.018 5.621h11.24l-1.3151 12.996h-9.9252z" fill="#fff"/>
  <path id="rect3728" d="m12 6c-3.324 0-6 2.676-6 6v2 68 2c0 0.33472 0.04135 0.6507 0.09375 0.96875 0.0487 0.2956 0.09704 0.59692 0.1875 0.875 0.00988 0.03038 0.020892 0.0636 0.03125 0.09375 0.098865 0.28777 0.23488 0.54745 0.375 0.8125 0.14459 0.27351 0.31562 0.53562 0.5 0.78125s0.37378 0.47347 0.59375 0.6875c0.43995 0.42806 0.94291 0.81453 1.5 1.0938 0.27854 0.13961 0.57347 0.24695 0.875 0.34375-0.2562-0.10022-0.48671-0.23627-0.71875-0.375-0.00741-0.0044-0.023866 0.0045-0.03125 0-0.031933-0.0193-0.062293-0.04251-0.09375-0.0625-0.1204-0.0767-0.23102-0.16351-0.34375-0.25-0.10617-0.0808-0.21328-0.16111-0.3125-0.25-0.17793-0.16143-0.34746-0.34539-0.5-0.53125-0.10758-0.13026-0.21839-0.26528-0.3125-0.40625-0.025089-0.03838-0.038446-0.08587-0.0625-0.125-0.064763-0.10303-0.13023-0.20452-0.1875-0.3125-0.10101-0.19471-0.20567-0.4157-0.28125-0.625-0.00796-0.02181-0.023589-0.04055-0.03125-0.0625-0.031825-0.09195-0.035804-0.18683-0.0625-0.28125-0.030332-0.10662-0.070389-0.20303-0.09375-0.3125-0.072879-0.34151-0.125-0.6982-0.125-1.0625v-2-68-2c0-2.7818 2.2182-5 5-5h2 68 2c2.7818 0 5 2.2182 5 5v2 68 2c0 0.3643-0.05212 0.72099-0.125 1.0625-0.04415 0.20689-0.08838 0.39766-0.15625 0.59375-0.0077 0.02195-0.0233 0.04069-0.03125 0.0625-0.06274 0.17374-0.13838 0.36745-0.21875 0.53125-0.04158 0.0828-0.07904 0.16995-0.125 0.25-0.0546 0.09721-0.12677 0.18835-0.1875 0.28125-0.09411 0.14096-0.20492 0.276-0.3125 0.40625-0.14317 0.17445-0.30314 0.347-0.46875 0.5-0.01117 0.0102-0.01998 0.02115-0.03125 0.03125-0.13839 0.12556-0.28509 0.23444-0.4375 0.34375-0.10257 0.07315-0.20432 0.15336-0.3125 0.21875-0.0074 0.0045-0.02384-0.0044-0.03125 0-0.23204 0.13873-0.46255 0.27478-0.71875 0.375 0.30153-0.0968 0.59646-0.20414 0.875-0.34375 0.55709-0.27922 1.0601-0.66569 1.5-1.0938 0.21997-0.21403 0.40937-0.44186 0.59375-0.6875s0.35541-0.50774 0.5-0.78125c0.14012-0.26505 0.27614-0.52473 0.375-0.8125 0.01041-0.03078 0.02133-0.06274 0.03125-0.09375 0.09046-0.27808 0.1388-0.5794 0.1875-0.875 0.0524-0.31805 0.09375-0.63403 0.09375-0.96875v-2-68-2c0-3.324-2.676-6-6-6h-72z" fill="url(#linearGradient3188)" opacity=".3"/>
  <path id="path3615" d="m12 90c-3.324 0-6-2.676-6-6v-2-68-2c0-0.33472 0.04135-0.6507 0.09375-0.96875 0.0487-0.2956 0.09704-0.59692 0.1875-0.875 0.00988-0.03038 0.020892-0.0636 0.03125-0.09375 0.098865-0.28777 0.23488-0.54745 0.375-0.8125 0.14459-0.27351 0.31562-0.53562 0.5-0.78125s0.37378-0.47347 0.59375-0.6875c0.43995-0.42806 0.94291-0.81453 1.5-1.0938 0.27854-0.13961 0.57347-0.24695 0.875-0.34375-0.2562 0.10022-0.48671 0.23627-0.71875 0.375-0.00741 0.0044-0.023866-0.0045-0.03125 0-0.031933 0.0193-0.062293 0.04251-0.09375 0.0625-0.1204 0.0767-0.23102 0.16351-0.34375 0.25-0.10617 0.0808-0.21328 0.16111-0.3125 0.25-0.17793 0.16143-0.34746 0.34539-0.5 0.53125-0.10758 0.13026-0.21839 0.26528-0.3125 0.40625-0.025089 0.03838-0.038446 0.08587-0.0625 0.125-0.064763 0.10303-0.13023 0.20452-0.1875 0.3125-0.10101 0.19471-0.20567 0.4157-0.28125 0.625-0.00796 0.02181-0.023589 0.04055-0.03125 0.0625-0.031825 0.09195-0.035804 0.18683-0.0625 0.28125-0.030332 0.10662-0.070389 0.20303-0.09375 0.3125-0.072879 0.34151-0.125 0.6982-0.125 1.0625v2 68 2c0 2.7818 2.2182 5 5 5h2 68 2c2.7818 0 5-2.2182 5-5v-2-68-2c0-0.3643-0.05212-0.72099-0.125-1.0625-0.04415-0.20689-0.08838-0.39766-0.15625-0.59375-0.0077-0.02195-0.0233-0.04069-0.03125-0.0625-0.06274-0.17374-0.13838-0.36745-0.21875-0.53125-0.04158-0.0828-0.07904-0.16995-0.125-0.25-0.0546-0.09721-0.12677-0.18835-0.1875-0.28125-0.09411-0.14096-0.20492-0.276-0.3125-0.40625-0.14317-0.17445-0.30314-0.347-0.46875-0.5-0.01117-0.0102-0.01998-0.02115-0.03125-0.03125-0.13839-0.12556-0.28509-0.23444-0.4375-0.34375-0.10257-0.07315-0.20432-0.15336-0.3125-0.21875-0.0074-0.0045-0.02384 0.0044-0.03125 0-0.23204-0.13873-0.46255-0.27478-0.71875-0.375 0.30153 0.0968 0.59646 0.20414 0.875 0.34375 0.55709 0.27922 1.0601 0.66569 1.5 1.0938 0.21997 0.21403 0.40937 0.44186 0.59375 0.6875s0.35541 0.50774 0.5 0.78125c0.14012 0.26505 0.27614 0.52473 0.375 0.8125 0.01041 0.03078 0.02133 0.06274 0.03125 0.09375 0.09046 0.27808 0.1388 0.5794 0.1875 0.875 0.0524 0.31805 0.09375 0.63403 0.09375 0.96875v2 68 2c0 3.324-2.676 6-6 6h-72z" fill="url(#radialGradient3619)" opacity=".1"/>
 </g>
 <g id="layer5" display="none">
  <rect id="rect3171" x="15" y="15" width="66" height="66" rx="12" ry="12" clip-path="url(#clipPath3613)" fill="url(#linearGradient3613)" filter="url(#filter3794)" opacity=".1" stroke="#fff" stroke-linecap="round" stroke-width=".5"/>
 </g>
</svg>
