<?xml version="1.0" encoding="UTF-8"?>
<svg id="svg2408" width="96" height="96" version="1.0" xmlns="http://www.w3.org/2000/svg" xmlns:cc="http://creativecommons.org/ns#" xmlns:dc="http://purl.org/dc/elements/1.1/" xmlns:rdf="http://www.w3.org/1999/02/22-rdf-syntax-ns#" xmlns:xlink="http://www.w3.org/1999/xlink">
 <defs id="defs2410">
  <linearGradient id="linearGradient3781">
   <stop id="stop3783" stop-color="#fff" offset="0"/>
   <stop id="stop3785" stop-color="#fff" stop-opacity="0" offset="1"/>
  </linearGradient>
  <linearGradient id="ButtonShadow" x1="45.448" x2="45.448" y1="92.54" y2="7.0165" gradientTransform="scale(1.0059 .99417)" gradientUnits="userSpaceOnUse">
   <stop id="stop3750" offset="0"/>
   <stop id="stop3752" stop-opacity=".58824" offset="1"/>
  </linearGradient>
  <filter id="filter3174" color-interpolation-filters="sRGB">
   <feGaussianBlur id="feGaussianBlur3176" stdDeviation="1.71"/>
  </filter>
  <linearGradient id="linearGradient3617" x1="48" x2="48" y1="90" y2="5.9877" gradientUnits="userSpaceOnUse">
   <stop id="stop4573" stop-color="#794596" offset="0"/>
   <stop id="stop4575" stop-color="#926ba0" offset="1"/>
  </linearGradient>
  <linearGradient id="ButtonShadow-0" x1="45.448" x2="45.448" y1="92.54" y2="7.0165" gradientTransform="matrix(1.0059 0 0 .99417 100 0)" gradientUnits="userSpaceOnUse">
   <stop id="stop3750-8" offset="0"/>
   <stop id="stop3752-5" stop-opacity=".58824" offset="1"/>
  </linearGradient>
  <linearGradient id="linearGradient3780" x1="32.251" x2="32.251" y1="6.1317" y2="90.239" gradientTransform="matrix(1.0238 0 0 1.0119 -1.1429 -98.071)" gradientUnits="userSpaceOnUse" xlink:href="#ButtonShadow-0"/>
  <linearGradient id="linearGradient3721" x1="32.251" x2="32.251" y1="6.1317" y2="90.239" gradientTransform="translate(0,-97)" gradientUnits="userSpaceOnUse" xlink:href="#ButtonShadow-0"/>
  <linearGradient id="linearGradient4630" x1="48.28" x2="72.325" y1="47.991" y2="48.279" gradientUnits="userSpaceOnUse">
   <stop id="stop4624" stop-color="#bdc4c5" offset="0"/>
   <stop id="stop4626" stop-color="#e3ebee" offset="1"/>
  </linearGradient>
  <linearGradient id="linearGradient4641" x1="49.501" x2="83.604" y1="36.589" y2="47.979" gradientUnits="userSpaceOnUse">
   <stop id="stop4635" stop-opacity=".21399" offset="0"/>
   <stop id="stop4637" stop-opacity="0" offset="1"/>
  </linearGradient>
  <linearGradient id="linearGradient4390" x1="48" x2="48" y1="88" y2="-40" gradientTransform="matrix(1,0,0,-1,0,92)" gradientUnits="userSpaceOnUse" xlink:href="#linearGradient3781"/>
  <linearGradient id="linearGradient4429" x1="48" x2="112.12" y1="82" y2="82.455" gradientUnits="userSpaceOnUse" spreadMethod="reflect" xlink:href="#linearGradient3781"/>
  <linearGradient id="linearGradient3228" x1="90" x2="48" y1="88" y2="88" gradientUnits="userSpaceOnUse" spreadMethod="reflect">
   <stop id="stop3894" stop-opacity=".58824" offset="0"/>
   <stop id="stop3896" stop-opacity=".47059" offset=".1178"/>
   <stop id="stop3898" stop-opacity=".39216" offset=".2381"/>
   <stop id="stop3900" stop-opacity=".31373" offset="1"/>
  </linearGradient>
 </defs>
 <metadata id="metadata2413">
  <rdf:RDF>
   <cc:Work rdf:about="">
    <dc:format>image/svg+xml</dc:format>
    <dc:type rdf:resource="http://purl.org/dc/dcmitype/StillImage"/>
    <dc:title/>
   </cc:Work>
  </rdf:RDF>
 </metadata>
 <g id="layer2" display="none">
  <rect id="rect3745" x="5" y="7" width="86" height="85" rx="6" ry="6" fill="url(#ButtonShadow)" filter="url(#filter3174)" opacity=".9"/>
 </g>
 <g id="layer3">
  <path id="path3786" transform="scale(1,-1)" d="m12-95.031c-5.5111 0-10.031 4.5202-10.031 10.031v71c0 5.5111 4.5202 10.031 10.031 10.031h72c5.5111 0 10.031-4.5202 10.031-10.031v-71c0-5.5111-4.5202-10.031-10.031-10.031h-72z" fill="url(#linearGradient3780)" opacity=".08"/>
  <path id="path3778" transform="scale(1,-1)" d="m12-94.031c-4.9716 0-9.0312 4.0596-9.0312 9.0312v71c0 4.9716 4.0596 9.0312 9.0312 9.0312h72c4.9716 0 9.0312-4.0596 9.0312-9.0312v-71c0-4.9716-4.0596-9.0312-9.0312-9.0312h-72z" fill="url(#linearGradient3780)" opacity=".1"/>
  <path id="path3770" transform="scale(1,-1)" d="m12-93c-4.4091 0-8 3.5909-8 8v71c0 4.4091 3.5909 8 8 8h72c4.4091 0 8-3.5909 8-8v-71c0-4.4091-3.5909-8-8-8h-72z" fill="url(#linearGradient3780)" opacity=".2"/>
  <rect id="rect3723" transform="scale(1,-1)" x="5" y="-92" width="86" height="85" rx="7" ry="7" fill="url(#linearGradient3780)" opacity=".3"/>
  <rect id="rect3716" transform="scale(1,-1)" x="6" y="-91" width="84" height="84" rx="6" ry="6" fill="url(#linearGradient3721)" opacity=".45"/>
 </g>
 <rect id="rect2419" x="6" y="6" width="84" height="84" rx="6" ry="6" fill="url(#linearGradient3617)"/>
 <path id="rect2419-5-3" d="m48.28 5.991h-29.625c-3.2825 0-5.925 2.676-5.925 6v72c0 3.324 2.6425 6 5.925 6h29.625z" fill="#b2b7b8"/>
 <path id="rect2419-5" d="m48.28 5.991h29.625c3.2825 0 5.925 2.676 5.925 6v72c0 3.324-2.6425 6-5.925 6h-29.625z" fill="url(#linearGradient4630)"/>
 <path id="rect2419-5-3-5" d="m48.28 5.991h-24.89c-3.4582 0-6.2422 2.676-6.2422 6v72c0 3.324 2.784 6 6.2422 6h24.89z" fill="#c7ccce"/>
 <path id="rect2419-5-3-5-6" d="m48.28 5.991h-19.625c-3.2825 0-5.925 2.676-5.925 6v72c0 3.324 2.6425 6 5.925 6h19.625z" fill="#d9dee7"/>
 <path id="rect4632" d="m48.28 5.991 35.324 30v53.976h-35.324z" fill="url(#linearGradient4641)" opacity=".577"/>
 <path id="rect4643" d="m53.492 18.847h26.034v3.2542h-26.034z" fill="#4b4f51" opacity=".577"/>
 <path id="rect4643-2" d="m53.492 28.102h26.034v3.2542h-26.034z" fill="#4b4f51" opacity=".577"/>
 <path id="rect4643-2-9" d="m53.492 37.356h26.034v3.2542h-26.034z" fill="#4b4f51" opacity=".577"/>
 <path id="rect4643-2-9-1" d="m53.492 46.61h26.034v3.2542h-26.034z" fill="#4b4f51" opacity=".577"/>
 <path id="rect4643-2-9-1-2" d="m53.492 55.864h26.034v3.2542h-26.034z" fill="#4b4f51" opacity=".577"/>
 <path id="rect4643-2-9-1-2-7" d="m53.492 65.119h26.034v3.2542h-26.034z" fill="#4b4f51" opacity=".577"/>
 <path id="rect4643-2-9-1-2-7-0" d="m53.492 74.373h26.034v3.2542h-26.034z" fill="#4b4f51" opacity=".577"/>
 <path id="rect4643-9" d="m27.458 18.847h16.678v3.2542h-16.678z" fill="#4b4f51" opacity=".577"/>
 <path id="rect4643-2-3" d="m27.458 28.102h16.678v3.2542h-16.678z" fill="#4b4f51" opacity=".577"/>
 <path id="rect4643-2-9-6" d="m27.458 37.356h16.678v3.2542h-16.678z" fill="#4b4f51" opacity=".577"/>
 <path id="rect4643-2-9-1-0" d="m27.458 46.61h16.678v3.2542h-16.678z" fill="#4b4f51" opacity=".577"/>
 <path id="rect4643-2-9-1-2-6" d="m27.458 55.864h16.678v3.2542h-16.678z" fill="#4b4f51" opacity=".577"/>
 <path id="rect4643-2-9-1-2-7-2" d="m27.458 65.119h16.678v3.2542h-16.678z" fill="#4b4f51" opacity=".577"/>
 <path id="rect4643-2-9-1-2-7-0-6" d="m27.458 74.373h16.678v3.2542h-16.678z" fill="#4b4f51" opacity=".577"/>
 <g id="g907">
  <path id="rect4377" d="m12 86c-3.324 0-6-2.676-6-6v-68c0-3.324 2.676-6 6-6h72c3.324 0 6 2.676 6 6v68c0 3.324-2.676 6-6 6zm0-0.96875h72c2.8049 0 5.0312-2.2264 5.0312-5.0312v-68c0-2.8049-2.226-5.0312-5.031-5.0312h-72c-2.8049 0-5.0312 2.2263-5.0312 5.0312v68c0 2.8049 2.2264 5.0312 5.0312 5.0312z" fill="url(#linearGradient4390)" opacity=".3"/>
  <path id="rect4414" d="m6 78v2c0 3.324 2.676 6 6 6h72c3.324 0 6-2.676 6-6v-2c0 3.324-2.676 6-6 6h-72c-3.324 0-6-2.676-6-6z" fill="url(#linearGradient4429)" opacity=".1"/>
  <g id="layer4">
   <path id="path3888" d="m6 80v4c0 3.324 2.676 6 6 6h72c3.324 0 6-2.676 6-6v-4c0 3.324-2.676 6-6 6h-72c-3.324 0-6-2.676-6-6z" fill="url(#linearGradient3228)"/>
   <path id="rect4345" d="m6 82v2c0 3.324 2.676 6 6 6h72c3.324 0 6-2.676 6-6v-2c0 3.324-2.676 6-6 6h-72c-3.324 0-6-2.676-6-6z" color="#000000" opacity=".1"/>
   <path id="rect4336" d="m6 83v1c0 3.324 2.676 6 6 6h72c3.324 0 6-2.676 6-6v-1c0 3.324-2.676 6-6 6h-72c-3.324 0-6-2.676-6-6z" color="#000000" opacity=".15"/>
  </g>
 </g>
</svg>
