<?xml version="1.0" encoding="UTF-8"?>
<svg id="svg2408" width="96" height="96" version="1.0" xmlns="http://www.w3.org/2000/svg" xmlns:cc="http://creativecommons.org/ns#" xmlns:dc="http://purl.org/dc/elements/1.1/" xmlns:rdf="http://www.w3.org/1999/02/22-rdf-syntax-ns#" xmlns:xlink="http://www.w3.org/1999/xlink">
 <defs id="defs2410">
  <linearGradient id="ButtonShadow" x1="45.448" x2="45.448" y1="92.54" y2="7.0165" gradientTransform="scale(1.0059 .99417)" gradientUnits="userSpaceOnUse">
   <stop id="stop3750" offset="0"/>
   <stop id="stop3752" stop-opacity=".58824" offset="1"/>
  </linearGradient>
  <linearGradient id="linearGradient3737">
   <stop id="stop3739" stop-color="#fff" offset="0"/>
   <stop id="stop3741" stop-color="#fff" stop-opacity="0" offset="1"/>
  </linearGradient>
  <filter id="filter3174" color-interpolation-filters="sRGB">
   <feGaussianBlur id="feGaussianBlur3176" stdDeviation="1.71"/>
  </filter>
  <linearGradient id="linearGradient3617" x1="48" x2="48" y1="90" y2="-32" gradientTransform="translate(0,-96)" gradientUnits="userSpaceOnUse">
   <stop id="stop4284" stop-color="#f0f0f0" offset="0"/>
   <stop id="stop4282" stop-color="#c6c6c6" offset="1"/>
  </linearGradient>
  <linearGradient id="ButtonShadow-0" x1="45.448" x2="45.448" y1="92.54" y2="7.0165" gradientTransform="matrix(1.0059 0 0 .99417 100 0)" gradientUnits="userSpaceOnUse">
   <stop id="stop3750-8" offset="0"/>
   <stop id="stop3752-5" stop-opacity=".58824" offset="1"/>
  </linearGradient>
  <linearGradient id="linearGradient3780" x1="32.251" x2="32.251" y1="6.1317" y2="90.239" gradientTransform="matrix(1.0238 0 0 -1.0119 -1.1429 98.071)" gradientUnits="userSpaceOnUse" xlink:href="#ButtonShadow-0"/>
  <linearGradient id="linearGradient3725" x1="32.251" x2="32.251" y1="6.1317" y2="90.239" gradientTransform="matrix(1.0238 0 0 1.0119 -1.1429 -98.071)" gradientUnits="userSpaceOnUse" xlink:href="#ButtonShadow-0"/>
  <linearGradient id="linearGradient3721" x1="32.251" x2="32.251" y1="6.1317" y2="90.239" gradientTransform="translate(0,-97)" gradientUnits="userSpaceOnUse" xlink:href="#ButtonShadow-0"/>
  <linearGradient id="linearGradient4390" x1="48" x2="48" y1="88" y2="-40" gradientTransform="matrix(1,0,0,-1,0,92)" gradientUnits="userSpaceOnUse" xlink:href="#linearGradient3737"/>
  <linearGradient id="linearGradient4429" x1="48" x2="112.12" y1="82" y2="82.455" gradientUnits="userSpaceOnUse" spreadMethod="reflect" xlink:href="#linearGradient3737"/>
  <linearGradient id="linearGradient3228" x1="90" x2="48" y1="88" y2="88" gradientUnits="userSpaceOnUse" spreadMethod="reflect">
   <stop id="stop3894" stop-opacity=".58824" offset="0"/>
   <stop id="stop3896" stop-opacity=".47059" offset=".1178"/>
   <stop id="stop3898" stop-opacity=".39216" offset=".2381"/>
   <stop id="stop3900" stop-opacity=".31373" offset="1"/>
  </linearGradient>
 </defs>
 <metadata id="metadata2413">
  <rdf:RDF>
   <cc:Work rdf:about="">
    <dc:format>image/svg+xml</dc:format>
    <dc:type rdf:resource="http://purl.org/dc/dcmitype/StillImage"/>
    <dc:title/>
   </cc:Work>
  </rdf:RDF>
 </metadata>
 <g id="layer2" display="none">
  <rect id="rect3745" x="5" y="7" width="86" height="85" rx="6" ry="6" fill="url(#ButtonShadow)" filter="url(#filter3174)" opacity=".9"/>
 </g>
 <path id="path3786" d="m12 95.031c-5.5111 0-10.031-4.5202-10.031-10.031v-71c0-5.5111 4.5202-10.031 10.031-10.031h72c5.5111 0 10.031 4.5202 10.031 10.031v71c0 5.5111-4.5202 10.031-10.031 10.031h-72z" fill="url(#linearGradient3780)" opacity=".08"/>
 <path id="path3778-9" d="m12 94.031c-4.9716 0-9.0312-4.0596-9.0312-9.0312v-71c0-4.9716 4.0596-9.0312 9.0312-9.0312h72c4.9716 0 9.0312 4.0596 9.0312 9.0312v71c0 4.9716-4.0596 9.0312-9.0312 9.0312h-72z" fill="url(#linearGradient3780)" opacity=".1"/>
 <path id="path3770" d="m12 93c-4.4091 0-8-3.5909-8-8v-71c0-4.4091 3.5909-8 8-8h72c4.4091 0 8 3.5909 8 8v71c0 4.4091-3.5909 8-8 8h-72z" fill="url(#linearGradient3780)" opacity=".2"/>
 <rect id="rect3723" transform="scale(1,-1)" x="5" y="-92" width="86" height="85" rx="7" ry="7" fill="url(#linearGradient3725)" opacity=".3"/>
 <rect id="rect3716" transform="scale(1,-1)" x="6" y="-91" width="84" height="84" rx="6" ry="6" fill="url(#linearGradient3721)" opacity=".45"/>
 <rect id="rect2419" transform="scale(1,-1)" x="6" y="-90" width="84" height="84" rx="6" ry="6" fill="url(#linearGradient3617)"/>
 <g id="g1053" transform="translate(0 -2.0003)">
  <path id="path4799" d="m14.502 81.148c-0.3278-0.33655-0.42388-1.2344-0.23275-2.1752 0.31568-1.5537 0.4181-1.6096 3.3949-1.8532 3.4476-0.28214 4.8825-1.2225 6.0397-3.9582 0.58132-1.3743 7.1815-32.922 7.1815-34.327 0-0.21927-1.1375-0.39868-2.5277-0.39868-2.806 0-3.2155-0.43768-2.5853-2.7631 0.38577-1.4235 0.56662-1.5155 3.2598-1.6577 2.6384-0.13932 2.8737-0.25191 3.1505-1.5072 1.8019-8.1726 3.3248-11.395 6.3896-13.519 1.86-1.289 2.401-1.4024 6.6886-1.4024 5.5162 0 6.1288 0.3542 5.4146 3.1304-0.32778 1.2741-0.72729 1.8312-1.2213 1.703-2.0492-0.53168-5.4113-0.59112-6.637-0.11733-2.2494 0.86951-3.8443 4.0914-4.6911 9.4763l-0.33577 2.1351h4.0833c4.4627 0 4.7313 0.23961 3.6012 3.2122-0.45442 1.1952-0.71906 1.2764-4.6098 1.4143l-4.1277 0.14624-3.4617 17.081c-3.888 19.184-4.7018 21.536-8.3367 24.091-1.8792 1.3208-2.6933 1.5497-6.0257 1.6946-2.4368 0.10594-4.0581-0.0432-4.4111-0.40565z" fill="#ff6311" stroke-width=".50238"/>
  <path id="path4812" d="m59.307 66.486c-1.3332-0.62621-2.835-1.6007-3.3372-2.1655-1.0616-1.1938-1.7532-0.96552-1.7532 0.57871 0 0.59754-0.2618 1.3482-0.58176 1.6682-0.56399 0.56398-3.8616 0.82482-4.3429 0.34352-0.4546-0.45459 9.2559-48.408 9.8832-48.806 1.0672-0.67734 4.2593-0.4689 4.5533 0.29733 0.23222 0.60516-2.9906 17.26-3.9818 20.577-0.27278 0.91285 0.08 0.69811 1.6486-1.0036 3.9883-4.3268 9.614-6.1876 13.834-4.5759 4.2203 1.6117 5.7881 4.6731 5.7387 11.205-0.11962 15.831-11.044 26.867-21.661 21.88zm8.8331-4.6554c5.4676-3.3338 9.0496-16.161 6.1261-21.937-2.6011-5.1397-11.034-1.4208-14.95 6.593-0.66734 1.3655-1.6605 4.5339-2.207 7.0408l-0.99362 4.558 1.3534 1.4423c0.7444 0.79326 2.0079 1.8502 2.8079 2.3487 1.9692 1.2272 5.8128 1.205 7.8634-0.04539z" fill="#4d62ff" stroke-width=".48481"/>
 </g>
 <g id="g873">
  <path id="rect4377" d="m12 86c-3.324 0-6-2.676-6-6v-68c0-3.324 2.676-6 6-6h72c3.324 0 6 2.676 6 6v68c0 3.324-2.676 6-6 6zm0-0.96875h72c2.8049 0 5.0312-2.2264 5.0312-5.0312v-68c0-2.8049-2.226-5.0312-5.031-5.0312h-72c-2.8049 0-5.0312 2.2263-5.0312 5.0312v68c0 2.8049 2.2264 5.0312 5.0312 5.0312z" fill="url(#linearGradient4390)" opacity=".3"/>
  <path id="rect4414" d="m6 78v2c0 3.324 2.676 6 6 6h72c3.324 0 6-2.676 6-6v-2c0 3.324-2.676 6-6 6h-72c-3.324 0-6-2.676-6-6z" fill="url(#linearGradient4429)" opacity=".1"/>
  <g id="layer4">
   <path id="path3888" d="m6 80v4c0 3.324 2.676 6 6 6h72c3.324 0 6-2.676 6-6v-4c0 3.324-2.676 6-6 6h-72c-3.324 0-6-2.676-6-6z" fill="url(#linearGradient3228)"/>
   <path id="rect4345" d="m6 82v2c0 3.324 2.676 6 6 6h72c3.324 0 6-2.676 6-6v-2c0 3.324-2.676 6-6 6h-72c-3.324 0-6-2.676-6-6z" color="#000000" opacity=".1"/>
   <path id="rect4336" d="m6 83v1c0 3.324 2.676 6 6 6h72c3.324 0 6-2.676 6-6v-1c0 3.324-2.676 6-6 6h-72c-3.324 0-6-2.676-6-6z" color="#000000" opacity=".15"/>
  </g>
 </g>
</svg>
