<?xml version="1.0" encoding="UTF-8"?>
<svg id="svg2408" width="96" height="96" version="1.0" xmlns="http://www.w3.org/2000/svg" xmlns:cc="http://creativecommons.org/ns#" xmlns:dc="http://purl.org/dc/elements/1.1/" xmlns:rdf="http://www.w3.org/1999/02/22-rdf-syntax-ns#" xmlns:xlink="http://www.w3.org/1999/xlink">
 <defs id="defs2410">
  <linearGradient id="ButtonShadow" x1="45.448" x2="45.448" y1="92.54" y2="7.0165" gradientTransform="scale(1.0059 .99417)" gradientUnits="userSpaceOnUse">
   <stop id="stop3750" offset="0"/>
   <stop id="stop3752" stop-opacity=".58824" offset="1"/>
  </linearGradient>
  <filter id="filter3174" color-interpolation-filters="sRGB">
   <feGaussianBlur id="feGaussianBlur3176" stdDeviation="1.71"/>
  </filter>
  <linearGradient id="linearGradient3188" x1="36.357" x2="36.357" y1="6" y2="63.893" gradientUnits="userSpaceOnUse">
   <stop id="stop3739" stop-color="#fefefe" offset="0"/>
   <stop id="stop3741" stop-color="#fefefe" stop-opacity="0" offset="1"/>
  </linearGradient>
  <radialGradient id="radialGradient3619" cx="48" cy="90.172" r="42" gradientTransform="matrix(1.1573 0 0 1.0038 -7.551 .14842)" gradientUnits="userSpaceOnUse">
   <stop id="stop6298" stop-color="#0a0a0a" offset="0"/>
   <stop id="stop6300" stop-color="#505050" offset="1"/>
  </radialGradient>
  <linearGradient id="linearGradient3617" x1="48" x2="48" y1="90" y2="5.9877" gradientUnits="userSpaceOnUse">
   <stop id="stop6292" stop-color="#141414" offset="0"/>
   <stop id="stop6294" stop-color="#3c3c3c" offset="1"/>
  </linearGradient>
  <linearGradient id="ButtonShadow-0" x1="45.448" x2="45.448" y1="92.54" y2="7.0165" gradientTransform="matrix(1.0059 0 0 .99417 100 0)" gradientUnits="userSpaceOnUse">
   <stop id="stop3750-8" offset="0"/>
   <stop id="stop3752-5" stop-opacity=".58824" offset="1"/>
  </linearGradient>
  <linearGradient id="linearGradient3780" x1="32.251" x2="32.251" y1="6.1317" y2="90.239" gradientTransform="matrix(1.0238 0 0 1.0119 -1.1429 -98.071)" gradientUnits="userSpaceOnUse" xlink:href="#ButtonShadow-0"/>
  <linearGradient id="linearGradient3721" x1="32.251" x2="32.251" y1="6.1317" y2="90.239" gradientTransform="translate(0,-97)" gradientUnits="userSpaceOnUse" xlink:href="#ButtonShadow-0"/>
  <radialGradient id="radialGradient2319" cx="-7529.7" cy="-7921.6" r="791.23" gradientTransform="matrix(.10279 0 0 .10279 660.74 838.89)" gradientUnits="userSpaceOnUse">
   <stop id="stop19" stop-color="#00ccda" offset="0"/>
   <stop id="stop21-0" stop-color="#0083ff" offset=".22"/>
   <stop id="stop23-6" stop-color="#007af9" offset=".261"/>
   <stop id="stop25-3" stop-color="#0060e8" offset=".33"/>
   <stop id="stop27-2" stop-color="#005fe7" offset=".333"/>
   <stop id="stop29" stop-color="#080ead" offset=".55242"/>
  </radialGradient>
  <linearGradient id="linearGradient2321" x1="575.67" x2="384.23" y1="731.19" y2="104.96" gradientTransform="matrix(.083913 0 0 .083913 -171.85 8.2255)" gradientUnits="userSpaceOnUse">
   <stop id="stop36-1" stop-color="#000f43" stop-opacity=".4" offset="0"/>
   <stop id="stop38" stop-color="#001962" stop-opacity=".173" offset=".485"/>
   <stop id="stop40" stop-color="#002079" stop-opacity="0" offset="1"/>
  </linearGradient>
  <radialGradient id="radialGradient8037" cx="750.19" cy="396.04" r="782.18" fx="778.17" fy="382.21" gradientTransform="matrix(.083913 0 0 .083913 -171.85 8.2255)" gradientUnits="userSpaceOnUse">
   <stop id="stop11646" stop-color="#1bc6e1" offset=".156"/>
   <stop id="stop11648" stop-color="#2e9eeb" offset=".231"/>
   <stop id="stop11650" stop-color="#0c8bf4" offset=".365"/>
   <stop id="stop11652" stop-color="#178ee7" offset=".541"/>
   <stop id="stop11654" stop-color="#1d6bbc" offset=".763"/>
  </radialGradient>
  <linearGradient id="linearGradient1990" x1="-124.12" x2="-107.55" y1="77.04" y2="50.829" gradientUnits="userSpaceOnUse">
   <stop id="stop1984" stop-color="#388bee" offset="0"/>
   <stop id="stop1986" stop-color="#1f9be2" offset="1"/>
  </linearGradient>
  <linearGradient id="linearGradient2006" x1="-155.11" x2="-140.95" y1="47.078" y2="52.518" gradientUnits="userSpaceOnUse">
   <stop id="stop2000" stop-color="#0a3bc7" stop-opacity=".62816" offset="0"/>
   <stop id="stop2002" stop-color="#0a3bc7" stop-opacity="0" offset="1"/>
  </linearGradient>
 </defs>
 <metadata id="metadata2413">
  <rdf:RDF>
   <cc:Work rdf:about="">
    <dc:format>image/svg+xml</dc:format>
    <dc:type rdf:resource="http://purl.org/dc/dcmitype/StillImage"/>
    <dc:title/>
   </cc:Work>
  </rdf:RDF>
 </metadata>
 <g id="layer2" display="none">
  <rect id="rect3745" x="5" y="7" width="86" height="85" rx="6" ry="6" fill="url(#ButtonShadow)" filter="url(#filter3174)" opacity=".9"/>
 </g>
 <g id="layer3">
  <path id="path3786" transform="scale(1,-1)" d="m12-95.031c-5.5111 0-10.031 4.5202-10.031 10.031v71c0 5.5111 4.5202 10.031 10.031 10.031h72c5.5111 0 10.031-4.5202 10.031-10.031v-71c0-5.5111-4.5202-10.031-10.031-10.031h-72z" fill="url(#linearGradient3780)" opacity=".08"/>
  <path id="path3778" transform="scale(1,-1)" d="m12-94.031c-4.9716 0-9.0312 4.0596-9.0312 9.0312v71c0 4.9716 4.0596 9.0312 9.0312 9.0312h72c4.9716 0 9.0312-4.0596 9.0312-9.0312v-71c0-4.9716-4.0596-9.0312-9.0312-9.0312h-72z" fill="url(#linearGradient3780)" opacity=".1"/>
  <path id="path3770" transform="scale(1,-1)" d="m12-93c-4.4091 0-8 3.5909-8 8v71c0 4.4091 3.5909 8 8 8h72c4.4091 0 8-3.5909 8-8v-71c0-4.4091-3.5909-8-8-8h-72z" fill="url(#linearGradient3780)" opacity=".2"/>
  <rect id="rect3723" transform="scale(1,-1)" x="5" y="-92" width="86" height="85" rx="7" ry="7" fill="url(#linearGradient3780)" opacity=".3"/>
  <rect id="rect3716" transform="scale(1,-1)" x="6" y="-91" width="84" height="84" rx="6" ry="6" fill="url(#linearGradient3721)" opacity=".45"/>
 </g>
 <g id="layer1">
  <rect id="rect2419" x="6" y="6" width="84" height="84" rx="6" ry="6" fill="url(#linearGradient3617)"/>
  <g id="g2285" transform="matrix(1.2338 0 0 1.2338 209.19 -12.22)">
   <path id="path198" d="m-104.27 16.076c-2.0095 2.3398-2.9454 7.7224-0.90777 13.061 2.0376 5.3383 5.1607 4.0623 7.1074 9.506 1.457 7.4096 1.3736 16.832 1.3736 16.832s-2.054 1.075 0.09874-8.4275v-15.583s-0.41641-2.8234-1.7558-5.2536c-2.6788-4.8603-5.9162-7.9369-5.9162-10.135z" fill="#1b92e1" stroke-width=".083913"/>
   <path id="_Path_" d="m-102.45 79.215c1.685-1.6934 3.2092-3.5482 4.5477-5.5394 1.8629-5.7046 1.3033-21.869 1.3033-21.869 0-20.667-11.614-36.483-32.173-36.483s-35.91 16.843-35.91 37.51c-5e-3 2.5859 0 7.4652 0 7.4652s0.64642 4.7885 1.5866 7.0277 2.0915 4.3669 3.4289 6.3579c1.3374 1.991 2.8608 3.8454 4.5452 5.5381s2.2618 2.1372 4.2429 3.4818l43.978 0.06136s3.7108-2.8135 4.4496-3.5506z" fill="url(#radialGradient2319)" stroke-width=".083913" data-name="&lt;Path&gt;"/>
   <path id="path201" d="m-100.89 75.829c-0.80521 0.56807-1.6499 1.078-2.5277 1.5258 1.1628-1.7038 2.2356-3.4673 3.2139-5.2833 0.79382-0.87857 1.521-1.7326 2.1136-2.6561 0.28841-0.45372 0.61366-1.0136 0.95796-1.6631l-0.20733-32.135c-1.5064-3.7218-4.1816-6.7731-6.5452-8.9961-2.0718-2.5632-3.9535-4.2834-4.9907-5.3755-2.1667-2.2815-3.0748-3.9917-3.4477-5.1076-0.32332-0.16212-5.5225-1.1907-5.851-1.3438-1.8051 2.7987-6.4181 8.564-3.7177 16.743 1.2238 3.7066 4.3188 7.5536 7.5578 9.7118 0.14224 0.16245 1.9274 2.1014 2.7764 6.4745 0.87655 4.5181 0.4157 8.0435-1.3884 13.257-2.1218 4.5737-7.5578 9.0952-12.648 9.5577-10.882 0.98858-14.865-5.4634-14.865-5.4634 3.8882 1.5545 8.1872 1.2293 10.802-0.38231 2.6349-1.63 4.2287-2.8385 5.5223-2.362 1.2755 0.47436 2.2908-0.90257 1.3797-2.33-1.4384-2.2154-4.061-3.3574-6.6627-2.9011-2.6376 0.42871-5.0538 2.5182-8.5098 0.49458-0.22369-0.1298-0.44019-0.2716-0.64857-0.42477-0.22782-0.14978 0.74062 0.228 0.51464 0.0577-0.67256-0.36536-1.8629-1.1615-2.1717-1.4447-0.0514-0.0472 0.52185 0.18285 0.47041 0.13561-3.2315-2.6611-2.8279-4.4586-2.7263-5.5861 0.0813-0.90198 0.66829-2.0578 1.6574-2.5266 0.47772 0.26071 0.77536 0.45976 0.77536 0.45976s-0.20374-0.4163-0.31392-0.63573c0.0386-0.0168 0.0755-0.0123 0.11396-0.0287 0.39137 0.18889 1.2568 0.6797 1.7124 0.97902 0.59344 0.41856 0.78258 0.7918 0.78258 0.7918s0.15625-0.086 0.0407-0.45103c-0.042-0.1497-0.22212-0.62541-0.80993-1.1055l0.0367 4e-3c0.35182 0.20046 0.68507 0.43189 0.9958 0.69153 0.16573-0.60258 0.46379-1.2318 0.39825-2.3573-0.04-0.79139-0.0216-0.99631-0.16103-1.3019-0.12486-0.26248 0.07-0.36485 0.28682-0.0923-0.0371-0.21356-0.0993-0.42198-0.18528-0.62096l2e-3 -0.0205c0.27062-0.94285 5.7269-3.3952 6.1241-3.6819 0.65255-0.46172 1.1997-1.0566 1.6054-1.7454 0.30351-0.48359 0.53176-1.162 0.58739-2.1911 0.0298-0.74213-0.31543-1.2364-5.8326-1.814-1.5088-0.14861-2.3941-1.2419-2.8972-2.2508-0.0918-0.21734-0.18536-0.41428-0.27901-0.61106-0.0894-0.23004-0.16114-0.46654-0.21465-0.70747 0.90198-2.5906 2.4175-4.7811 4.646-6.4361 0.12142-0.1106-0.48518 0.0284-0.36385-0.0822 0.14157-0.12906 1.0662-0.50155 1.2408-0.58546 0.21331-0.1007-0.91315-0.579-1.9075-0.46253-1.0128 0.11412-1.2278 0.23496-1.7683 0.46412 0.2243-0.22329 0.93756-0.51598 0.77032-0.51405-1.0918 0.16741-2.4485 0.80204-3.6083 1.5208-2e-3 -0.12517 0.0216-0.24943 0.0701-0.36485-0.54048 0.22925-1.8679 1.157-2.2543 1.9419 0.0166-0.15045 0.0241-0.30177 0.0223-0.45313-0.41173 0.34339-0.78319 0.73238-1.1072 1.1595l-0.0202 0.0184c-3.1348-1.2629-5.8935-1.3446-8.228-0.77838-0.51069-0.51288-0.76017-0.13796-1.9222-2.691-0.079-0.15372 0.0606 0.1518 0 0-0.19115-0.49508 0.11656 0.66057 0 0-1.9538 1.5417-4.5246 3.2888-5.7586 4.5221-0.0153 0.0492 1.4396-0.41118 0 0-0.50415 0.14399-0.46991 0.44314-0.54652 3.1467-0.0185 0.205-2e-3 0.43459-0.0187 0.61912-0.98582 1.256-1.6572 2.3196-1.9111 2.8708-1.2749 2.1968-2.679 5.6215-4.0401 11.039 0.60034-1.4684 1.3241-2.8832 2.1636-4.2293-1.1318 2.8754-1.7014 3.1072-1.9202 10.061 0.27379-1.4349 0.10032 1.4298 0.52714 0.03272-0.2672 5.769 0.72766 11.527 2.9152 16.872 0.78282 1.915 2.0777 4.8212 4.282 8.0053 1.7314 1.8217 3.6405 3.4716 5.6992 4.9216 0 0 14.927 1.1512 23.14 0.50234 11.292 8e-5 20.105 1.4588 27.073-6.3868z" fill="url(#linearGradient2321)" stroke-width=".083913"/>
   <path id="path203" d="m-109.24 81.122c6.8335-0.7913 12.638-4.2897 12.638-7.4225v-8.521c-3.509-0.11215-8.805 4.0604-11.724 8.1677-2.9189 4.1073-4.1513 8.1492-0.91452 7.7758z" fill="url(#radialGradient8037)" stroke-width=".083913"/>
   <path id="path209" d="m-96.603 67.268v-34.094c-1.171-2.4177-0.0518-2.022-1.3629-3.4866-2.702-3.0179-0.6335-2.0862-3.2497-4.2906-2.2931-2.542-4.5165-5.0592-5.7273-6.0715l-5.3824-4.5373-5.4173-0.02042s-2.5602 0.04083-3.6746 7.5559c-0.65737 5.2044 1.2908 10.63 4.1118 14.097 1.4689 1.7971 3.129 3.429 4.9509 4.867v-2e-3c2.1314 3.0609 3.3045 6.838 3.3045 10.901 0 10.174-8.2521 18.422-18.432 18.422-1.3874 7.22e-4 -2.7704-0.15462-4.123-0.46311-4.8028-0.91533-7.5764-3.3382-8.9596-4.9829-0.79273-0.94268-1.1298-1.6298-1.1298-1.6298 4.3033 1.5416 9.0615 1.2191 11.955-0.37912 2.9159-1.6166 4.6802-2.815 6.112-2.3424 1.4114 0.47042 2.5351-0.8951 1.5272-2.3106-0.98774-1.4135-3.5579-3.4379-7.3741-2.877-2.9192 0.42518-5.5934 2.4972-9.4184 0.49047-0.24634-0.128-0.48592-0.2686-0.71779-0.42125-0.25216-0.14861 0.81967 0.22615 0.56952 0.0572-0.74431-0.36233-2.062-1.152-2.4035-1.4327-0.057-0.0467 0.57758 0.18133 0.52027 0.13426-3.5765-2.639-3.13-4.4216-3.0174-5.5398 0.09-0.89452 0.73961-2.0408 1.8343-2.5056 0.52865 0.25853 0.8581 0.4559 0.8581 0.4559s-0.22556-0.41285-0.34749-0.63044c0.0427-0.0163 0.0834-0.0122 0.12587-0.0285 0.43316 0.1873 1.391 0.67374 1.8953 0.97088 0.65678 0.41512 0.86615 0.78526 0.86615 0.78526s0.17294-0.0853 0.045-0.44726c-0.0467-0.14844-0.24579-0.6202-0.89637-1.0963l0.0407 4e-3c0.3862 0.19686 0.75491 0.4263 1.1021 0.68582 0.18343-0.59755 0.51338-1.2215 0.44079-2.3377-0.0443-0.78476-0.0238-0.98808-0.17823-1.2911-0.1382-0.26013 0.0775-0.36183 0.31736-0.0913-0.0415-0.21337-0.11044-0.42048-0.20508-0.61617l2e-3 -0.0203c0.29957-0.93504 6.3384-3.367 6.7779-3.6513 0.70828-0.4446 1.314-1.0347 1.7769-1.7311 0.33565-0.47957 0.58857-1.1524 0.65016-2.1729 0.0206-0.45984-0.12092-0.82377-1.7202-1.1718-0.95988-0.20895-2.4449-0.41227-4.7355-0.62717-1.6699-0.14735-2.6497-1.2315-3.2065-2.2321-0.10162-0.21558-0.20516-0.41118-0.3088-0.60603-0.0985-0.22684-0.17798-0.46149-0.23756-0.70151 0.99924-2.6159 2.7988-4.8496 5.1421-6.3827 0.13426-0.10976-0.53704 0.0281-0.40278-0.0816 0.15675-0.12797 1.1801-0.49736 1.3734-0.5806 0.23604-0.0995-1.0106-0.57397-2.1112-0.45867-1.1208 0.1132-1.3589 0.23294-1.9571 0.46035 0.2483-0.22145 1.0377-0.51187 0.85264-0.50977-1.2084 0.16598-2.7104 0.79541-3.9943 1.5082-2e-3 -0.12497 0.0242-0.2488 0.0775-0.36184-0.59821 0.22732-2.0674 1.1474-2.4951 1.9258 0.0184-0.14902 0.0267-0.29913 0.0247-0.44927-0.45046 0.33573-0.86146 0.72139-1.2251 1.1496l-0.0224 0.0183c-3.4696-1.2524-6.5227-1.3335-9.1064-0.77201-0.56524-0.50859-1.474-1.2777-2.7601-3.8097-0.0874-0.15247-0.13426 0.3151-0.20139 0.16456-0.49971-1.1591-0.80163-3.0581-0.75203-4.3674 0 0-1.0336 0.47109-1.8891 2.4385-0.15885 0.35369-0.26072 0.54879-0.36251 0.74389-0.0468 0.0569 0.10615-0.64613 0.0817-0.60787-0.14869 0.25174-0.53335 0.60351-0.70243 1.0588-0.11614 0.33741-0.27902 0.52639-0.38298 0.94721l-0.0244 0.0386c-8e-3 -0.12402 0.0308-0.51028 2e-3 -0.43106-0.40099 0.81014-0.74606 1.6468-1.0328 2.504-0.4606 1.5143-0.99681 3.5756-1.0818 6.257-0.0205 0.20332-2e-3 0.43098-0.0207 0.614-1.0909 1.2456-1.8342 2.3003-2.1152 2.847-0.70516 1.0897-0.53723 1.4327-0.50732 4.2766v29.507c5.1092 10.621 11.083 14.055 12.686 15.273 0 0 45.185 0.01224 45.215 5.36e-4 0.50555-0.18741 0.0717 0.01395 0.60002-0.22604 0.0571-0.0252 0.11479-0.0524 0.17219-0.0785 0.10481-0.0488 0.20861-0.095 0.31442-0.14635 2.1049-0.99191 4.0841-2.231 5.8959-3.6911 3.5806-2.9119 3.1513-4.7551 3.1513-4.7551v-1.3409c-1.1173 2.39-1.4044 1.9151-4.0953 3.1729 1.2805-1.6801 2.4679-3.429 3.5569-5.239 0.92198-1.5942 0.22578-1.7526 0.53837-3.2025z" fill="#388bff" stroke-width=".083913"/>
   <path id="path211" d="m-100.61 75.606c1.7689-1.9502 2.8071-4.1809 4.0104-6.7104v-37.372c-2.0448-2.935-5.0055-7.4761-7.603-9.8625-4.2185-3.8754-5.9039-4.8037-7.5476-6.8948h-7.3132c-0.10726 0.1274-0.27507 0.4716-0.27507 0.4716-1.9072 4.1305-3.2864 9.6768-1.174 15.34 4.2248 11.326 12.877 10.911 18.602 22.73 3.6272 7.5513 1.6421 15.952-2.8512 22.504-2.1321 2.8817-4.2272 4.8915-6.8192 6.9238l4.9314 0.01018s0.0786 0.10431 0.78695-0.24661c4.359-2.4093 7.0249-3.919 9.2632-8.0585v-2.0662c-1.3754 1.4185-2.4708 2.5249-4.0104 3.2317z" fill="#1cb0c8" stroke-width=".083913"/>
   <path id="path213" d="m-128.84 35.193c0.033-0.73592-0.34874-1.2302-6.4346-1.801-2.5039-0.23119-3.4627-2.5454-3.755-3.5194-0.89032 2.3131-1.2579 4.7403-1.0603 7.6761 0.1351 1.9233 1.4273 3.9876 2.045 5.1997 0 0 0.13728-0.1784 0.20063-0.24435 1.1631-1.211 6.0364-3.056 6.4942-3.318 0.50465-0.31879 2.4253-1.7222 2.5101-3.993z" fill="#34a2ff" fill-opacity=".79422" stroke-width=".083913"/>
   <path id="path217" d="m-139.56 68.819c-5.8508-2.498-12.502-6.0212-12.251-14.025 0.34194-10.541 9.83-8.4577 9.83-8.4577-0.35806 0.0872-1.3153 0.76882-1.6546 1.4953-0.35856 0.90852-1.0128 2.9601 0.96928 5.1103 3.1123 3.3726-6.3942 8.0016 8.2791 16.746 0.37006 0.20139-3.4397-0.11999-5.1723-0.86917z" fill="url(#linearGradient2006)" opacity=".898" stroke-width=".083913"/>
   <path id="path221" d="m-100.63 75.662c4.3703-4.2909 3.8502-6.1903 4.0257-6.7661v-37.487c-1.4696-1.99-3.9978-6.0026-5.4804-7.4637-2.9653-2.9223-5.7062-4.8407-7.2208-5.9702-2.1662-1.4376-2.5533-1.6637-3.7786-3.2083h-4.6598c-3.5407 7.0847-2.3513 10.63 1.4662 16.308 4.7528 7.7673 11.482 10.015 16.724 17.139 7.295 11.604-1.0762 27.447-1.0762 27.447z" fill="#31d5cb" stroke-width=".083913"/>
   <path id="path223" d="m-101.88 52.969c-3.0546-6.1198-6.8671-8.7891-10.474-11.682 0.41957 0.56965 0.52295 0.77091 0.75522 1.1393 3.1742 3.2809 7.8549 11.284 4.4566 21.33-8.6255 16.58-27.323 10.411-30.005 7.9094 8.6836 12.059 13.771 11.177 25.563 11.07 8.1711-5.3809 14.709-19.737 9.7035-29.766z" fill="url(#linearGradient1990)" stroke-width=".082637"/>
  </g>
  <path id="rect3728" d="m12 6c-3.324 0-6 2.676-6 6v72c0 0.33472 0.04135 0.6507 0.09375 0.96875 0.0487 0.2956 0.09704 0.59692 0.1875 0.875 0.00988 0.03038 0.020892 0.0636 0.03125 0.09375 0.098865 0.28777 0.23488 0.54745 0.375 0.8125 0.14459 0.27351 0.31562 0.53562 0.5 0.78125s0.37378 0.47347 0.59375 0.6875c0.43995 0.42806 0.94291 0.81453 1.5 1.0938 0.27854 0.13961 0.57347 0.24695 0.875 0.34375-0.2562-0.10022-0.48671-0.23627-0.71875-0.375-0.00741-0.0044-0.023866 0.0045-0.03125 0-0.031933-0.0193-0.062293-0.04251-0.09375-0.0625-0.1204-0.0767-0.23102-0.16351-0.34375-0.25-0.10617-0.0808-0.21328-0.16111-0.3125-0.25-0.17793-0.16143-0.34746-0.34539-0.5-0.53125-0.10758-0.13026-0.21839-0.26528-0.3125-0.40625-0.025089-0.03838-0.038446-0.08587-0.0625-0.125-0.064763-0.10303-0.13023-0.20452-0.1875-0.3125-0.10101-0.19471-0.20567-0.4157-0.28125-0.625-0.00796-0.02181-0.023589-0.04055-0.03125-0.0625-0.031825-0.09195-0.035804-0.18683-0.0625-0.28125-0.030332-0.10662-0.070389-0.20303-0.09375-0.3125-0.072879-0.34151-0.125-0.6982-0.125-1.0625v-72c0-2.7818 2.2182-5 5-5h72c2.7818 0 5 2.2182 5 5v72c0 0.3643-0.05212 0.72099-0.125 1.0625-0.04415 0.20689-0.08838 0.39766-0.15625 0.59375-0.0077 0.02195-0.0233 0.04069-0.03125 0.0625-0.06274 0.17374-0.13838 0.36745-0.21875 0.53125-0.04158 0.0828-0.07904 0.16995-0.125 0.25-0.0546 0.09721-0.12677 0.18835-0.1875 0.28125-0.09411 0.14096-0.20492 0.276-0.3125 0.40625-0.14317 0.17445-0.30314 0.347-0.46875 0.5-0.01117 0.0102-0.01998 0.02115-0.03125 0.03125-0.13839 0.12556-0.28509 0.23444-0.4375 0.34375-0.10257 0.07315-0.20432 0.15336-0.3125 0.21875-0.0074 0.0045-0.02384-0.0044-0.03125 0-0.23204 0.13873-0.46255 0.27478-0.71875 0.375 0.30153-0.0968 0.59646-0.20414 0.875-0.34375 0.55709-0.27922 1.0601-0.66569 1.5-1.0938 0.21997-0.21403 0.40937-0.44186 0.59375-0.6875s0.35541-0.50774 0.5-0.78125c0.14012-0.26505 0.27614-0.52473 0.375-0.8125 0.01041-0.03078 0.02133-0.06274 0.03125-0.09375 0.09046-0.27808 0.1388-0.5794 0.1875-0.875 0.0524-0.31805 0.09375-0.63403 0.09375-0.96875v-72c0-3.324-2.676-6-6-6z" fill="url(#linearGradient3188)" opacity=".35"/>
  <path id="path3615" d="m12 90.663c-3.324 0-6-2.6972-6-6.0475v-72.571c0-0.33737 0.04135-0.65586 0.09375-0.97643 0.0487-0.29794 0.09704-0.60164 0.1875-0.88193 0.00988-0.03062 0.020892-0.0641 0.03125-0.09449 0.098865-0.29005 0.23488-0.55179 0.375-0.81894 0.14459-0.27567 0.31562-0.53986 0.5-0.78744s0.37378-0.47722 0.59375-0.69295c0.43995-0.43145 0.94291-0.82098 1.5-1.1024 0.27854-0.14072 0.57347-0.2489 0.875-0.34647-0.2562 0.10102-0.48671 0.23814-0.71875 0.37797-0.00741 0.00443-0.023866-0.00454-0.03125 0-0.031933 0.019453-0.062293 0.042847-0.09375 0.062995-0.1204 0.077308-0.23102 0.16481-0.34375 0.25198-0.10617 0.08144-0.21328 0.16239-0.3125 0.25198-0.17793 0.16271-0.34746 0.34812-0.5 0.53546-0.10758 0.13129-0.21839 0.26739-0.3125 0.40947-0.025089 0.038684-0.038446 0.08655-0.0625 0.12599-0.064763 0.10385-0.13023 0.20614-0.1875 0.31498-0.10101 0.19625-0.20567 0.419-0.28125 0.62995-0.00796 0.021983-0.023589 0.040871-0.03125 0.062995-0.031825 0.092679-0.035804 0.18831-0.0625 0.28348-0.030332 0.10746-0.070389 0.20464-0.09375 0.31498-0.072879 0.34422-0.125 0.70374-0.125 1.0709v72.571c0 2.8039 2.2182 5.0396 5 5.0396h72c2.7818 0 5-2.2357 5-5.0396v-72.571c0-0.36718-0.05212-0.7267-0.125-1.0709-0.04415-0.20853-0.08838-0.40081-0.15625-0.59846-0.0077-0.022124-0.0233-0.041012-0.03125-0.062995-0.06274-0.17512-0.13838-0.37036-0.21875-0.53546-0.04158-0.083456-0.07904-0.1713-0.125-0.25198-0.0546-0.09798-0.12677-0.18984-0.1875-0.28348-0.09411-0.14208-0.20492-0.27818-0.3125-0.40947-0.14317-0.17583-0.30314-0.34975-0.46875-0.50396-0.01117-0.010281-0.01998-0.021318-0.03125-0.031498-0.13839-0.12655-0.28509-0.23629-0.4375-0.34647-0.10257-0.07373-0.20432-0.15458-0.3125-0.22048-0.0074-0.00454-0.02384 0.00443-0.03125 0-0.23204-0.13983-0.46255-0.27696-0.71875-0.37797 0.30153 0.097567 0.59646 0.20576 0.875 0.34647 0.55709 0.28144 1.0601 0.67097 1.5 1.1024 0.21997 0.21572 0.40937 0.44537 0.59375 0.69295s0.35541 0.51177 0.5 0.78744c0.14012 0.26715 0.27614 0.52889 0.375 0.81894 0.01041 0.03102 0.02133 0.06324 0.03125 0.09449 0.09046 0.28029 0.1388 0.584 0.1875 0.88193 0.0524 0.32057 0.09375 0.63906 0.09375 0.97643v72.571c0 3.3503-2.676 6.0475-6 6.0475z" fill="url(#radialGradient3619)" opacity=".2"/>
 </g>
</svg>
