<?xml version="1.0" encoding="UTF-8"?>
<!-- Created with Inkscape (http://www.inkscape.org/) -->
<svg id="svg2408" width="96" height="96" version="1.0" xmlns="http://www.w3.org/2000/svg" xmlns:cc="http://creativecommons.org/ns#" xmlns:dc="http://purl.org/dc/elements/1.1/" xmlns:rdf="http://www.w3.org/1999/02/22-rdf-syntax-ns#" xmlns:xlink="http://www.w3.org/1999/xlink">
 <defs id="defs2410">
  <linearGradient id="linearGradient4239">
   <stop id="stop5734" stop-color="#e2f39e" stop-opacity="0" offset="0"/>
   <stop id="stop5736" stop-color="#e0f298" stop-opacity=".29134" offset=".3"/>
   <stop id="stop4243" stop-color="#e0f297" stop-opacity=".16535" offset="1"/>
  </linearGradient>
  <linearGradient id="ButtonShadow" x1="45.448" x2="45.448" y1="92.54" y2="7.0165" gradientTransform="scale(1.0059 .99417)" gradientUnits="userSpaceOnUse">
   <stop id="stop3750" offset="0"/>
   <stop id="stop3752" stop-opacity=".58824" offset="1"/>
  </linearGradient>
  <linearGradient id="linearGradient3737">
   <stop id="stop3739" stop-color="#fff" offset="0"/>
   <stop id="stop3741" stop-color="#fff" stop-opacity="0" offset="1"/>
  </linearGradient>
  <filter id="filter3174">
   <feGaussianBlur id="feGaussianBlur3176" stdDeviation="1.71"/>
  </filter>
  <linearGradient id="linearGradient3613" x1="48" x2="48" y1="20.221" y2="138.66" gradientUnits="userSpaceOnUse" xlink:href="#linearGradient3737"/>
  <clipPath id="clipPath3613">
   <rect id="rect3615" x="6" y="6" width="84" height="84" rx="6" ry="6" fill="#fff"/>
  </clipPath>
  <linearGradient id="linearGradient3151" x1="48" x2="48" y1="90" y2="5.9877" gradientTransform="translate(-110)" gradientUnits="userSpaceOnUse">
   <stop id="stop3702" stop-color="#2276c5" offset="0"/>
   <stop id="stop3704" stop-color="#68baf4" offset="1"/>
  </linearGradient>
  <linearGradient id="linearGradient3153" x1="36.357" x2="36.357" y1="6" y2="63.893" gradientTransform="translate(-110)" gradientUnits="userSpaceOnUse" xlink:href="#linearGradient3737"/>
  <radialGradient id="radialGradient3155" cx="48" cy="90.172" r="42" gradientTransform="matrix(1.1573 0 0 .99591 -117.55 .19713)" gradientUnits="userSpaceOnUse" xlink:href="#linearGradient3737"/>
  <linearGradient id="linearGradient3948" x1="48" x2="48" y1="90" y2="5.9877" gradientUnits="userSpaceOnUse">
   <stop id="stop3189" stop-color="#5a9b0f" offset="0"/>
   <stop id="stop3191" stop-color="#8fe02f" offset="1"/>
  </linearGradient>
  <linearGradient id="linearGradient3967" x1="44" x2="44" y1="6" y2="64.215" gradientUnits="userSpaceOnUse" xlink:href="#linearGradient3737"/>
  <radialGradient id="radialGradient3982" cx="48" cy="72" r="42" gradientTransform="matrix(1.1429 0 0 .95238 -6.8571 3.4286)" gradientUnits="userSpaceOnUse" xlink:href="#linearGradient3737"/>
  <linearGradient id="linearGradient3989" x1="48" x2="48" y1="90" y2="5.9877" gradientTransform="translate(0,1)" gradientUnits="userSpaceOnUse" xlink:href="#ButtonShadow"/>
  <linearGradient id="linearGradient4001" x1="48" x2="48" y1="90.868" y2="5.9877" gradientTransform="translate(-1,1)" gradientUnits="userSpaceOnUse" xlink:href="#ButtonShadow"/>
  <filter id="filter4055" x="-.19411" y="-.19411" width="1.3882" height="1.3882">
   <feGaussianBlur id="feGaussianBlur4057" stdDeviation="5.3379019"/>
  </filter>
  <radialGradient id="radialGradient5730" cx="24" cy="34.75" r="42" gradientTransform="matrix(.5 0 0 .52381 12 17.798)" gradientUnits="userSpaceOnUse">
   <stop id="stop4287" stop-color="#fff" offset="0"/>
   <stop id="stop5732" stop-color="#fff" stop-opacity=".70866" offset=".5"/>
   <stop id="stop4289" stop-color="#fff" stop-opacity="0" offset="1"/>
  </radialGradient>
  <linearGradient id="linearGradient5770" x1="44" x2="96" y1="36" y2="24" gradientUnits="userSpaceOnUse" xlink:href="#linearGradient4239"/>
  <linearGradient id="linearGradient5774" x1="42" x2="96" y1="45" y2="48" gradientUnits="userSpaceOnUse" xlink:href="#linearGradient4239"/>
  <linearGradient id="linearGradient5776" x1="36" x2="82" y1="51" y2="76" gradientUnits="userSpaceOnUse" xlink:href="#linearGradient4239"/>
  <linearGradient id="linearGradient5778" x1="32" x2="48" y1="56" y2="72" gradientUnits="userSpaceOnUse" xlink:href="#linearGradient4239"/>
  <linearGradient id="linearGradient5780" x1="11.469" x2="8" y1="16.422" gradientUnits="userSpaceOnUse" xlink:href="#linearGradient4239"/>
  <linearGradient id="linearGradient5782" x1="32" x2="39" y1="16" y2="6" gradientUnits="userSpaceOnUse" xlink:href="#linearGradient4239"/>
  <linearGradient id="linearGradient5784" x1="42" x2="70" y1="23" y2="1" gradientUnits="userSpaceOnUse" xlink:href="#linearGradient4239"/>
 </defs>
 <metadata id="metadata2413">
  <rdf:RDF>
   <cc:Work rdf:about="">
    <dc:format>image/svg+xml</dc:format>
    <dc:type rdf:resource="http://purl.org/dc/dcmitype/StillImage"/>
    <dc:title/>
   </cc:Work>
  </rdf:RDF>
 </metadata>
 <g id="layer2" display="none">
  <rect id="rect3745" x="5" y="7" width="86" height="85" rx="6" ry="6" fill="url(#ButtonShadow)" filter="url(#filter3174)" opacity=".9"/>
 </g>
 <g id="layer3">
  <path id="path4029" d="m12 4.0312c-6.0702-0.16174-10.691 5.6895-9.9688 11.5 7.16e-5 0.04167-7.01e-5 0.08333 0 0.125 0.030431 18.086-0.077787 36.153 0.03125 54.25a0.93233 0.93233 0 0 0 0 0.0625c0.42977 5.8315 6.2169 9.6747 11.719 9 0.0418-0.0051 0.08323 0.0056 0.125 0h5.3125c-0.67978 4.4285-1.5968 8.8952-2.0625 13.406a0.93233 0.93233 0 0 0 0.03125 0.28125c0.28 1.2942 1.3717 2.1088 2.4688 2.25 1.0239 0.13179 2.0656-0.22515 2.8438-1v0.03125l22.844-14.969c13.185-0.02898 26.363 0.07707 39.562-0.03125a0.93233 0.93233 0 0 0 0.0625 0c5.8315-0.42977 9.6747-6.2169 9-11.719-0.0051-0.0418 0.0056-0.08323 0-0.125-0.03043-18.002 0.07779-35.988-0.03125-54a0.93233 0.93233 0 0 0 0-0.0625c-0.42977-5.8315-6.2169-9.6747-11.719-9h-0.125-70.062-0.03125z" fill="url(#linearGradient4001)" opacity=".08"/>
  <path id="path4015" d="m12 4.9688c-5.5018-0.16564-9.7593 5.2616-9.0312 10.551 0.031153 18.133-0.06237 36.269 0.046873 54.399 0.38911 5.2798 5.7302 8.7915 10.758 8.1115h6.5389c-0.69363 4.8112-1.7232 9.637-2.2188 14.438 0.39957 1.8469 2.7901 1.9764 3.9102 0.69448 7.6966-5.044 15.393-10.088 23.09-15.132 13.275-0.03092 26.553 0.06205 39.826-0.04687 5.2798-0.38911 8.7915-5.7302 8.1115-10.758-0.031152-18.048 0.062369-36.1-0.046873-54.146-0.38911-5.2798-5.7302-8.7915-10.758-8.1115h-70.226z" fill="url(#linearGradient4001)" opacity=".1"/>
  <path id="path4007" d="m12 6c-4.4079 0-8 3.5921-8 8v55c0 4.4079 3.5921 8 8 8h9.5l-2.4062 14.906a0.98733 0.98733 0 0 0 1.5 0.96875l24.219-15.875h39.188c4.4079 0 8-3.5921 8-8v-55c0-4.4079-3.5921-8-8-8h-72z" fill="url(#linearGradient4001)" opacity=".15"/>
  <path id="rect3991" d="m12 7c-3.878 0-7 3.122-7 7v55c0 3.878 3.122 7 7 7h10.656l-2.5938 16.062 24.5-16.062h39.438c3.878 0 7-3.122 7-7v-55c0-3.878-3.122-7-7-7h-72z" fill="url(#linearGradient4001)" opacity=".3"/>
  <path id="path3984" d="m12 7c-3.324 0-6 2.676-6 6v56c0 3.324 2.676 6 6 6h12l-3 16 23-16h40c3.324 0 6-2.676 6-6v-56c0-3.324-2.676-6-6-6h-72z" fill="url(#linearGradient3989)" opacity=".45"/>
 </g>
 <g id="layer1">
  <path id="rect2419" d="m12 6c-3.324 0-6 2.676-6 6v56c0 3.324 2.676 6 6 6h12l-3 16 23-16h40c3.324 0 6-2.676 6-6v-56c0-3.324-2.676-6-6-6h-72z" fill="url(#linearGradient3948)"/>
  <rect id="rect3145" x="-104" y="6" width="84" height="84" rx="6" ry="6" fill="url(#linearGradient3151)"/>
  <path id="path3147" d="m-98 6c-3.324 0-6 2.676-6 6v2 68 2c0 0.33472 0.0413 0.6507 0.0937 0.96875 0.0487 0.2956 0.097 0.59692 0.1875 0.875 0.01 0.03038 0.0209 0.0636 0.0312 0.09375 0.0989 0.28777 0.23488 0.54745 0.375 0.8125 0.14459 0.27351 0.31562 0.53562 0.5 0.78125s0.37378 0.47347 0.59375 0.6875c0.43995 0.42806 0.94291 0.81453 1.5 1.0938 0.27854 0.13961 0.57347 0.24695 0.875 0.34375-0.2562-0.10022-0.48671-0.23627-0.71875-0.375-7e-3 -0.0044-0.0239 0.0045-0.0312 0-0.0319-0.0193-0.0623-0.04251-0.0937-0.0625-0.1204-0.0767-0.23102-0.16351-0.34375-0.25-0.10617-0.0808-0.21328-0.16111-0.3125-0.25-0.17793-0.16143-0.34746-0.34539-0.5-0.53125-0.10758-0.13026-0.21839-0.26528-0.3125-0.40625-0.0251-0.03838-0.0384-0.08587-0.0625-0.125-0.0648-0.10303-0.13023-0.20452-0.1875-0.3125-0.10101-0.19471-0.20568-0.4157-0.28125-0.625-8e-3 -0.02181-0.0236-0.04055-0.0312-0.0625-0.0318-0.09195-0.0358-0.18683-0.0625-0.28125-0.0303-0.10662-0.0704-0.20303-0.0937-0.3125-0.07298-0.34151-0.1251-0.6982-0.1251-1.0625v-2-68-2c0-2.7818 2.2182-5 5-5h2 68 2c2.7818 0 5 2.2182 5 5v2 68 2c0 0.3643-0.05212 0.72099-0.125 1.0625-0.04415 0.20689-0.08838 0.39766-0.15625 0.59375-0.0077 0.02195-0.0233 0.04069-0.03125 0.0625-0.06274 0.17374-0.13838 0.36745-0.21875 0.53125-0.04158 0.0828-0.07904 0.16995-0.125 0.25-0.0546 0.09721-0.12677 0.18835-0.1875 0.28125-0.09411 0.14096-0.20492 0.276-0.3125 0.40625-0.14317 0.17445-0.30314 0.347-0.46875 0.5-0.01117 0.0102-0.01998 0.02115-0.03125 0.03125-0.13839 0.12556-0.28509 0.23444-0.4375 0.34375-0.10257 0.07315-0.20432 0.15336-0.3125 0.21875-0.0074 0.0045-0.02384-0.0044-0.03125 0-0.23204 0.13873-0.46255 0.27478-0.71875 0.375 0.30153-0.0968 0.59646-0.20414 0.875-0.34375 0.55709-0.27922 1.0601-0.66569 1.5-1.0938 0.21997-0.21403 0.40937-0.44186 0.59375-0.6875s0.35541-0.50774 0.5-0.78125c0.14012-0.26505 0.27614-0.52473 0.375-0.8125 0.01041-0.03078 0.02133-0.06274 0.03125-0.09375 0.09046-0.27808 0.1388-0.5794 0.1875-0.875 0.0524-0.31805 0.09375-0.63403 0.09375-0.96875v-2-68-2c0-3.324-2.676-6-6-6h-72z" fill="url(#linearGradient3153)" opacity=".5"/>
  <path id="path3149" d="m-98 90c-3.324 0-6-2.676-6-6v-2-68-2c0-0.33472 0.0413-0.6507 0.0937-0.96875 0.0487-0.2956 0.097-0.59692 0.1875-0.875 0.01-0.03038 0.0209-0.0636 0.0312-0.09375 0.0989-0.28777 0.23488-0.54745 0.375-0.8125 0.14459-0.27351 0.31562-0.53562 0.5-0.78125s0.37378-0.47347 0.59375-0.6875c0.43995-0.42806 0.94291-0.81453 1.5-1.0938 0.27854-0.13961 0.57347-0.24695 0.875-0.34375-0.2562 0.10022-0.48671 0.23627-0.71875 0.375-7e-3 0.0044-0.0239-0.0045-0.0312 0-0.0319 0.0193-0.0623 0.04251-0.0937 0.0625-0.1204 0.0767-0.23102 0.16351-0.34375 0.25-0.10617 0.0808-0.21328 0.16111-0.3125 0.25-0.17793 0.16143-0.34746 0.34539-0.5 0.53125-0.10758 0.13026-0.21839 0.26528-0.3125 0.40625-0.0251 0.03838-0.0384 0.08587-0.0625 0.125-0.0648 0.10303-0.13023 0.20452-0.1875 0.3125-0.10101 0.19471-0.20568 0.4157-0.28125 0.625-8e-3 0.02181-0.0236 0.04055-0.0312 0.0625-0.0318 0.09195-0.0358 0.18683-0.0625 0.28125-0.0303 0.10662-0.0704 0.20303-0.0937 0.3125-0.07298 0.34151-0.1251 0.6982-0.1251 1.0625v2 68 2c0 2.7818 2.2182 5 5 5h2 68 2c2.7818 0 5-2.2182 5-5v-2-68-2c0-0.3643-0.05212-0.72099-0.125-1.0625-0.04415-0.20689-0.08838-0.39766-0.15625-0.59375-0.0077-0.02195-0.0233-0.04069-0.03125-0.0625-0.06274-0.17374-0.13838-0.36745-0.21875-0.53125-0.04158-0.0828-0.07904-0.16995-0.125-0.25-0.0546-0.09721-0.12677-0.18835-0.1875-0.28125-0.09411-0.14096-0.20492-0.276-0.3125-0.40625-0.14317-0.17445-0.30314-0.347-0.46875-0.5-0.01117-0.0102-0.01998-0.02115-0.03125-0.03125-0.13839-0.12556-0.28509-0.23444-0.4375-0.34375-0.10257-0.07315-0.20432-0.15336-0.3125-0.21875-0.0074-0.0045-0.02384 0.0044-0.03125 0-0.23204-0.13873-0.46255-0.27478-0.71875-0.375 0.30153 0.0968 0.59646 0.20414 0.875 0.34375 0.55709 0.27922 1.0601 0.66569 1.5 1.0938 0.21997 0.21403 0.40937 0.44186 0.59375 0.6875s0.35541 0.50774 0.5 0.78125c0.14012 0.26505 0.27614 0.52473 0.375 0.8125 0.01041 0.03078 0.02133 0.06274 0.03125 0.09375 0.09046 0.27808 0.1388 0.5794 0.1875 0.875 0.0524 0.31805 0.09375 0.63403 0.09375 0.96875v2 68 2c0 3.324-2.676 6-6 6h-72z" fill="url(#radialGradient3155)" opacity=".2"/>
  <path id="path3953" d="m12 6c-3.324 0-6 2.676-6 6v56c0 2.9085 2.0422 5.3174 4.7812 5.875-2.2021-0.53769-3.8125-2.4972-3.8125-4.875v-56c0-2.7974 2.2339-5.0312 5.0312-5.0312h72c2.7974 0 5.0312 2.2339 5.0312 5.0312v56c0 2.3778-1.6104 4.3373-3.8125 4.875 2.739-0.55765 4.7812-2.9665 4.7812-5.875v-56c0-3.324-2.676-6-6-6h-72zm12 68.031-3 15.969 22.969-15.969a0.9813 0.9813 0 0 0-0.53125 0.15625l-21.031 14.625 2.5625-13.625a0.9813 0.9813 0 0 0-0.96875-1.1562z" fill="url(#linearGradient3967)" opacity=".3"/>
  <path id="path3969" d="m12 6c-3.324 0-6 2.676-6 6v56c0 3.324 2.676 6 6 6h12l-3 16 23-16h40c3.324 0 6-2.676 6-6v-56c0-3.324-2.676-6-6-6h-72zm0 2h72c2.2515 0 4 1.7485 4 4v56c0 2.2515-1.7485 4-4 4h-40a1.9986 1.9986 0 0 0-1.1562 0.375l-18.969 13.188 2.0938-11.188a1.9986 1.9986 0 0 0-1.9688-2.375h-12c-2.2515 0-4-1.7485-4-4v-56c0-2.2515 1.7485-4 4-4z" fill="url(#radialGradient3982)" opacity=".15"/>
 </g>
 <g id="layer5">
  <rect id="rect3171" transform="matrix(1 0 0 .74384 0 3.8423)" x="15" y="15" width="66" height="66" rx="12" ry="12" clip-path="url(#clipPath3613)" fill="url(#linearGradient3613)" filter="url(#filter4055)" opacity=".1" stroke="#fff" stroke-linecap="round" stroke-width=".57973"/>
 </g>
 <g id="layer4">
  <path id="path5768" d="m12 6c-0.17666 0-0.35855 0.016436-0.53125 0.03125 2.2102 8.87 5.0625 20.428 5.0625 20.812l2.6875-20.844h-7.2188z" fill="url(#linearGradient5780)" opacity=".3"/>
  <path id="path5766" d="m31.094 6-9.4688 30.312 20.312-30.312h-10.844z" fill="url(#linearGradient5782)" opacity=".4"/>
  <path id="path5764" d="M 56.84375,6 28,36.875 74.9375,6 56.84375,6 z" fill="url(#linearGradient5784)" opacity=".5"/>
  <path id="path5762" d="m90 15.094-59.469 24.344 59.469-9.1875v-15.156z" fill="url(#linearGradient5770)" opacity=".5"/>
  <path id="path5760" d="m31.688 43.812 58.312 11.594v-11.469l-58.312-0.125z" fill="url(#linearGradient5774)" opacity=".5"/>
  <path id="path5758" d="m27.844 46.656 41.281 27.344h14.875c2.6211 0 4.8353-1.6665 5.6562-4l-61.812-23.344z" fill="url(#linearGradient5776)" opacity=".4"/>
  <path id="path4224" d="M 28,50.3125 43.84375,74.09375 44,74 51.125,74 28,50.3125 z" fill="url(#linearGradient5778)" opacity=".3"/>
  <path id="path3984-5" d="m12 6c-3.324 0-6 2.676-6 6v56c0 3.324 2.676 6 6 6h12l-3 16 23-16h20v-68h-52z" fill="url(#radialGradient5730)" opacity=".2"/>
  <path id="path4179" d="m22.062 15.094c-0.30941-0.01-0.64176-0.0076-0.9375 0.03125-0.94309 0.12394-1.8961 0.10362-2.8438 0.25-1.8154 0.28034-3.5497 0.85098-5.25 1.5312-0.61914 0.24767-1.2438 0.52214-1.8438 0.8125-0.22328 0.10804-0.53924 0.17036-0.71875 0.34375-0.09344 0.0904-0.0824 0.31661-0.09375 0.4375-0.03157 0.34003-0.09208 0.69144-0.125 1.0312-0.12699 1.3113-0.21904 2.6581-0.03125 3.9688 0.06078 0.42346 0.19829 1.1688 0.71875 1.25 0.80038 0.12525 1.4197-0.83109 1.8125-1.375 0.91739-1.2704 1.9642-2.4634 3.4688-3.0312 1.7712-0.66851 3.8137-0.84023 5.6875-0.96875 5.2571-0.36029 11.002 0.59666 14.875 4.4688 0.55074 0.55067 1.0567 1.1389 1.5 1.7812 1.7339 2.5107 2.6522 5.3764 3.0938 8.375 0.20762 1.4078 0.35237 2.8168 0.03125 4.2188-0.55727 2.4323-2.0085 4.5727-3.6875 6.375-1.1492 1.2336-2.4666 2.3302-3.8125 3.3438-0.75138 0.5657-1.5747 1.0691-2.2812 1.6875-0.81369 0.71229-1.4856 1.5809-2 2.5312-1.3842 2.559-1.7821 5.6434-1.375 8.5 0.08344 0.58552 0.17983 1.1725 0.3125 1.75 0.03965 0.17274 0.04449 0.48385 0.15625 0.625 0.20914 0.26401 0.77416 0.39078 1.0938 0.40625 0.33332 0.01612 0.5433-0.23239 0.625-0.53125 0.13986-0.51211 0.08104-1.0786 0-1.5938-0.16601-1.0552-0.32831-2.1164-0.28125-3.1875 0.08671-1.9776 0.84801-3.8167 2.2188-5.25 1.3941-1.4577 3.2908-2.3101 4.875-3.5312 3.1929-2.461 6.0266-5.7676 7.125-9.7188 0.39258-1.413 0.52304-2.9204 0.34375-4.375-0.22658-1.84-0.89729-3.6734-1.5312-5.4062-1.9322-5.2819-5.2364-10.302-10.5-12.719-2.089-0.95887-4.2693-1.4038-6.5312-1.7188-1.0607-0.14769-2.1196-0.23442-3.1875-0.28125-0.2966-0.01296-0.59684-0.021284-0.90625-0.03125zm-3.2812 21.906c-0.42164 0.04074-0.81632 0.18037-1.1875 0.40625-0.66707 0.40625-1.0409 1.1156-1.25 1.8438-0.41523 1.4459-0.22788 3.1105 0.0625 4.5625 0.09281 0.46441 0.18222 0.91909 0.3125 1.375 0.04706 0.16446 0.08053 0.39445 0.1875 0.53125 0.18668 0.23917 0.62676 0.3283 0.90625 0.28125 0.83852-0.14093 0.62229-1.538 0.59375-2.125-0.06688-1.3751-0.45507-2.6948-0.0625-4.0625 0.16622-0.57877 0.478-1.2486 1.0625-1.5 0.52764-0.22719 1.0723 0.04712 1.2812 0.5625 0.33831 0.8345 0.25656 1.8192 0.46875 2.6875 0.07211 0.29516 0.14814 0.56864 0.28125 0.84375 0.03856 0.07951 0.07574 0.26002 0.1875 0.25 0.27166-0.02483 0.67133-0.48809 0.875-0.65625 0.65792-0.5437 1.3363-1.1289 2.0938-1.5312 0.35641-0.18929 0.94844-0.4782 1.3125-0.15625 0.09278 0.08212 0.1523 0.17735 0.21875 0.28125 0.42787 0.67025-0.0031 1.1751-0.28125 1.8125-0.36011 0.82491-0.72822 1.6379-1.25 2.375-0.44856 0.63388-1.0479 1.2138-1.4062 1.9062-0.23071 0.44589-0.37667 0.93432-0.28125 1.4375 0.07734 0.4069 0.39749 0.62666 0.8125 0.53125 0.31066-0.07145 0.51038-0.31679 0.6875-0.5625 0.31567-0.43827 0.62379-0.90374 0.9375-1.3438 0.60694-0.85105 1.3333-1.6476 1.8438-2.5625 0.61522-1.1029 0.90692-2.3375 0.90625-3.5938-3.92e-4 -1.0266-0.36667-2.5973-1.5625-2.8125-0.22502-0.0403-0.49523-0.03899-0.71875 0-0.27774 0.04836-0.5587 0.1584-0.8125 0.28125-0.67992 0.32892-1.276 0.81649-1.7812 1.375-0.31522 0.34809-0.59469 0.77671-0.96875 1.0625 0-0.75826-0.122-1.5829-0.5625-2.2188-0.55199-0.79657-1.5135-1.2465-2.4688-1.2812-0.1433-0.0052-0.29695-0.01358-0.4375 0zm-5.5312 12.281c-0.1089-0.0084-0.22061 0.01361-0.34375 0.03125-1.0259 0.14682-1.3458 0.94728-1.1562 1.875 0.24269 1.1872 1.1998 2.0993 2.125 2.8125 2.3705 1.8271 5.421 2.8182 8.4062 2.6875 1.1649-0.05097 2.431-0.25575 3.5-0.75 0.57318-0.26488 1.1868-1.2166 0.40625-1.625-0.10697-0.05598-0.25581-0.07415-0.375-0.09375-0.34092-0.05576-0.70819 0.09471-1.0312 0.1875-0.56969 0.16359-1.1635 0.31215-1.75 0.40625-1.7522 0.28143-3.6431-0.11809-5.0938-1.1562-1.1727-0.83951-2.1046-1.9433-3-3.0625-0.47959-0.59943-0.92522-1.2538-1.6875-1.3125zm-1.25 5.7812c-0.15512 0.0016-0.31398 0.01502-0.4375 0.03125-0.26099 0.03442-0.55773 0.02347-0.78125 0.1875-0.46621 0.3422 0.03595 1.0318 0.28125 1.3438 0.71128 0.90376 1.6591 1.6512 2.5938 2.3125 2.6055 1.843 5.5446 2.9074 8.7188 3.125 0.91257 0.06252 1.8474-6e-3 2.75-0.15625 0.33003-0.05511 0.7575-0.07629 1.0625-0.21875 0.86312-0.40363 0.61406-2.0125-0.15625-2.375-0.33637-0.15814-0.89729 0.04474-1.25 0.09375-0.83417 0.11632-1.661 0.11423-2.5 0.09375-2.1988-0.0538-4.5529-0.71259-6.4688-1.7812-0.75312-0.42041-1.4159-0.93082-2.0625-1.5-0.39323-0.34613-0.80252-0.91884-1.3125-1.0938-0.11873-0.040735-0.28238-0.064106-0.4375-0.0625zm0.09375 4.9375c-0.37164 0.04161-0.66182 0.22423-0.90625 0.5-0.1684 0.18994-0.30952 0.35414-0.40625 0.59375-0.53331 1.3192 0.86188 2.5645 1.8438 3.1875 1.0927 0.69312 2.315 1.2234 3.5312 1.6562 2.7432 0.9763 5.9324 1.5916 8.7812 0.71875 0.8468-0.25922 1.6968-0.73437 2.3125-1.375 0.3468-0.36094 0.57362-0.89389-0.0625-1.125-0.37689-0.1368-0.81444 0.20608-1.1562 0.34375-0.80693 0.32543-1.6651 0.58272-2.5312 0.6875-1.1409 0.13832-2.1505-0.13114-3.25-0.40625-0.93917-0.23482-1.9045-0.474-2.8125-0.8125-0.77469-0.28884-1.5408-0.6141-2.2188-1.0938-0.2026-0.14333-0.42774-0.28207-0.59375-0.46875-0.54268-0.61057-0.94936-1.3255-1.5312-1.9062-0.2514-0.25094-0.61525-0.54291-1-0.5z" fill="#fff" opacity=".3"/>
  <path id="path26" d="m22.062 14.094c-0.30941-0.01-0.64176-0.0076-0.9375 0.03125-0.94309 0.12394-1.8961 0.10362-2.8438 0.25-1.8154 0.28034-3.5497 0.85098-5.25 1.5312-0.61914 0.24767-1.2438 0.52214-1.8438 0.8125-0.22328 0.10804-0.53924 0.17036-0.71875 0.34375-0.09344 0.0904-0.0824 0.31661-0.09375 0.4375-0.03157 0.34003-0.09208 0.69144-0.125 1.0312-0.12699 1.3113-0.21904 2.6581-0.03125 3.9688 0.06078 0.42346 0.19829 1.1688 0.71875 1.25 0.80038 0.12525 1.4197-0.83109 1.8125-1.375 0.91739-1.2704 1.9642-2.4634 3.4688-3.0312 1.7712-0.66851 3.8137-0.84023 5.6875-0.96875 5.2571-0.36029 11.002 0.59666 14.875 4.4688 0.55074 0.55067 1.0567 1.1389 1.5 1.7812 1.7339 2.5107 2.6522 5.3764 3.0938 8.375 0.20762 1.4078 0.35237 2.8168 0.03125 4.2188-0.55727 2.4323-2.0085 4.5727-3.6875 6.375-1.1492 1.2336-2.4666 2.3302-3.8125 3.3438-0.75138 0.5657-1.5747 1.0691-2.2812 1.6875-0.81369 0.71229-1.4856 1.5809-2 2.5312-1.3842 2.559-1.7821 5.6434-1.375 8.5 0.08344 0.58552 0.17983 1.1725 0.3125 1.75 0.03965 0.17274 0.04449 0.48385 0.15625 0.625 0.20914 0.26401 0.77416 0.39078 1.0938 0.40625 0.33332 0.01612 0.5433-0.23239 0.625-0.53125 0.13986-0.51211 0.08104-1.0786 0-1.5938-0.16601-1.0552-0.32831-2.1164-0.28125-3.1875 0.08671-1.9776 0.84801-3.8167 2.2188-5.25 1.3941-1.4577 3.2908-2.3101 4.875-3.5312 3.1929-2.461 6.0266-5.7676 7.125-9.7188 0.39258-1.413 0.52304-2.9204 0.34375-4.375-0.22658-1.84-0.89729-3.6734-1.5312-5.4062-1.9322-5.2819-5.2364-10.302-10.5-12.719-2.089-0.95887-4.2693-1.4038-6.5312-1.7188-1.0607-0.14769-2.1196-0.23442-3.1875-0.28125-0.2966-0.01296-0.59684-0.021284-0.90625-0.03125zm-3.2812 21.906c-0.42164 0.04074-0.81632 0.18037-1.1875 0.40625-0.66707 0.40625-1.0409 1.1156-1.25 1.8438-0.41523 1.4459-0.22788 3.1105 0.0625 4.5625 0.09281 0.46441 0.18222 0.91909 0.3125 1.375 0.04706 0.16446 0.08053 0.39445 0.1875 0.53125 0.18668 0.23917 0.62676 0.3283 0.90625 0.28125 0.83852-0.14093 0.62229-1.538 0.59375-2.125-0.06688-1.3751-0.45507-2.6948-0.0625-4.0625 0.16622-0.57877 0.478-1.2486 1.0625-1.5 0.52764-0.22719 1.0723 0.04712 1.2812 0.5625 0.33831 0.8345 0.25656 1.8192 0.46875 2.6875 0.07211 0.29516 0.14814 0.56864 0.28125 0.84375 0.03856 0.07951 0.07574 0.26002 0.1875 0.25 0.27166-0.02483 0.67133-0.48809 0.875-0.65625 0.65792-0.5437 1.3363-1.1289 2.0938-1.5312 0.35641-0.18929 0.94844-0.4782 1.3125-0.15625 0.09278 0.08212 0.1523 0.17735 0.21875 0.28125 0.42787 0.67025-0.0031 1.1751-0.28125 1.8125-0.36011 0.82491-0.72822 1.6379-1.25 2.375-0.44856 0.63388-1.0479 1.2138-1.4062 1.9062-0.23071 0.44589-0.37667 0.93432-0.28125 1.4375 0.07734 0.4069 0.39749 0.62666 0.8125 0.53125 0.31066-0.07145 0.51038-0.31679 0.6875-0.5625 0.31567-0.43827 0.62379-0.90374 0.9375-1.3438 0.60694-0.85105 1.3333-1.6476 1.8438-2.5625 0.61522-1.1029 0.90692-2.3375 0.90625-3.5938-3.92e-4 -1.0266-0.36667-2.5973-1.5625-2.8125-0.22502-0.0403-0.49523-0.03899-0.71875 0-0.27774 0.04836-0.5587 0.1584-0.8125 0.28125-0.67992 0.32892-1.276 0.81649-1.7812 1.375-0.31522 0.34809-0.59469 0.77671-0.96875 1.0625 0-0.75826-0.122-1.5829-0.5625-2.2188-0.55199-0.79657-1.5135-1.2465-2.4688-1.2812-0.1433-0.0052-0.29695-0.01358-0.4375 0zm-5.5312 12.281c-0.1089-0.0084-0.22061 0.01361-0.34375 0.03125-1.0259 0.14682-1.3458 0.94728-1.1562 1.875 0.24269 1.1872 1.1998 2.0993 2.125 2.8125 2.3705 1.8271 5.421 2.8182 8.4062 2.6875 1.1649-0.05097 2.431-0.25575 3.5-0.75 0.57318-0.26488 1.1868-1.2166 0.40625-1.625-0.10697-0.05598-0.25581-0.07415-0.375-0.09375-0.34092-0.05576-0.70819 0.09471-1.0312 0.1875-0.56969 0.16359-1.1635 0.31215-1.75 0.40625-1.7522 0.28143-3.6431-0.11809-5.0938-1.1562-1.1727-0.83951-2.1046-1.9433-3-3.0625-0.47959-0.59943-0.92522-1.2538-1.6875-1.3125zm-1.25 5.7812c-0.15512 0.0016-0.31398 0.01502-0.4375 0.03125-0.26099 0.03442-0.55773 0.02347-0.78125 0.1875-0.46621 0.3422 0.03595 1.0318 0.28125 1.3438 0.71128 0.90376 1.6591 1.6512 2.5938 2.3125 2.6055 1.843 5.5446 2.9074 8.7188 3.125 0.91257 0.06252 1.8474-6e-3 2.75-0.15625 0.33003-0.05511 0.7575-0.07629 1.0625-0.21875 0.86312-0.40363 0.61406-2.0125-0.15625-2.375-0.33637-0.15814-0.89729 0.04474-1.25 0.09375-0.83417 0.11632-1.661 0.11423-2.5 0.09375-2.1988-0.0538-4.5529-0.71259-6.4688-1.7812-0.75312-0.42041-1.4159-0.93082-2.0625-1.5-0.39323-0.34613-0.80252-0.91884-1.3125-1.0938-0.11873-0.040735-0.28238-0.064106-0.4375-0.0625zm0.09375 4.9375c-0.37164 0.04161-0.66182 0.22423-0.90625 0.5-0.1684 0.18994-0.30952 0.35414-0.40625 0.59375-0.53331 1.3192 0.86188 2.5645 1.8438 3.1875 1.0927 0.69312 2.315 1.2234 3.5312 1.6562 2.7432 0.9763 5.9324 1.5916 8.7812 0.71875 0.8468-0.25922 1.6968-0.73437 2.3125-1.375 0.3468-0.36094 0.57362-0.89389-0.0625-1.125-0.37689-0.1368-0.81444 0.20608-1.1562 0.34375-0.80693 0.32543-1.6651 0.58272-2.5312 0.6875-1.1409 0.13832-2.1505-0.13114-3.25-0.40625-0.93917-0.23482-1.9045-0.474-2.8125-0.8125-0.77469-0.28884-1.5408-0.6141-2.2188-1.0938-0.2026-0.14333-0.42774-0.28207-0.59375-0.46875-0.54268-0.61057-0.94936-1.3255-1.5312-1.9062-0.2514-0.25094-0.61525-0.54291-1-0.5z" fill="#fff"/>
  <path id="path4195" transform="translate(2,-80)" d="m20.094 13c-4.0953-0.0502-8.092 0.99591-11.719 2.7812-0.038377 0.01889-0.08671 0.01219-0.125 0.03125l0.03125 0.0625c-0.72257 0.29973-1.3257 0.78146-1.6562 1.375-0.35083 0.62995-0.47544 1.302-0.53125 1.9375-0.11162 1.271 0.027532 2.5311-0.0625 3.25h0.03125c-0.3324 1.7189 0.52391 3.3049 1.8438 4 0.67688 0.35646 1.4795 0.49046 2.2812 0.25 0.78222-0.2346 1.4977-0.82101 1.9688-1.6562 0.01178-0.02088 0.01976-0.04131 0.03125-0.0625 1.0626-1.671 2.553-2.9635 4.375-3.125a1.1034 1.1034 0 0 0 0.09375 0c5.8255-0.9473 12.416-0.61668 16.625 3.5 2.9336 2.9137 4.1033 7.3546 4.1875 11.594 2.05e-4 0.01034-1.93e-4 0.02092 0 0.03125-0.6188 4.3958-4.4314 7.6289-8.2188 10.281-2.0078 1.3721-3.3442 3.3109-4.1562 5.4688-1.0781-0.67207-2.4643-0.88497-3.7188-0.125-2.0539 0.62958-4.4208-0.31665-5.75-2.0625-0.0071-0.010136-0.024085-0.021046-0.03125-0.03125-0.59507-0.84738-1.4028-1.9313-2.5312-2.6562-0.57102-0.36684-1.2686-0.64394-2.0312-0.65625-0.73096-0.011794-1.4621 0.29596-2.125 0.8125l-0.03125-0.03125c-0.02501 0.01749-0.038199 0.04438-0.0625 0.0625-0.71867 0.536-1.1412 1.3403-1.2188 2.0938-0.080134 0.77896 0.096544 1.4965 0.34375 2.125 0.17813 0.45286 0.31494 0.54 0.53125 0.90625-0.16303 0.06132-0.35364 0.06602-0.5 0.15625-0.71801 0.44265-1.1445 1.1903-1.2812 1.9375-0.22962 1.2543 0.40813 2.5276 1.5312 3.4062-0.13723 0.07357-0.23127 0.08687-0.375 0.1875-0.42902 0.30038-0.84211 0.84302-1 1.5312-8.649e-4 0.0038-0.030404-0.0038-0.03125 0-0.00756 0.02197 0.00713 0.04055 0 0.0625-0.011252 0.05778-0.055855 0.09625-0.0625 0.15625h0.0625c-0.42974 1.5456 0.079084 3.0272 0.96875 4.0312 0.93376 1.0538 2.1639 1.7598 3.2188 2.25 4.0686 1.8708 9.2909 3.411 13.906 1.1562v0.03125c0.06707-0.01414 0.09248-0.07556 0.15625-0.09375 0.03996-0.02034 0.08514-0.01032 0.125-0.03125v-0.03125c1.0216-0.35166 1.6689-1.1583 2.0312-1.875 0.09347-0.1849 0.11984-0.35764 0.1875-0.53125 0.46497 0.06443 0.89932 0.0414 1.3125-0.125 0.78783-0.3173 1.2815-0.98462 1.5625-1.6562 0.53177-1.271 0.51086-2.7005 0.03125-3.9375h0.03125c-0.53974-2.6144 0.83211-5.4728 3.1875-6.75a1.1034 1.1034 0 0 0 0.03125-0.03125c5.5405-3.2867 10.811-8.6402 11.312-15.656a1.1034 1.1034 0 0 0 0-0.0625c0.14928-4.3122-1.6742-8.2421-3.2812-11.781-2.7119-5.5893-7.6982-10.364-14.062-11.625-0.01018-0.0023-0.02107 0.0023-0.03125 0-2.4366-0.55608-4.9042-0.82427-7.375-0.875a1.1034 1.1034 0 0 0-0.03125 0zm-3.625 21.906v0.03125c-1.7516 0.19656-3.0382 1.3417-3.7188 2.6875-0.69837 1.3811-0.9027 2.9761-0.71875 4.4062a1.1034 1.1034 0 0 0 0 0.0625c0.15342 0.74198 0.18122 2.1345 0.5625 3.4375 0.19064 0.65149 0.5011 1.3206 1.0938 1.8438s1.4533 0.79319 2.375 0.71875a1.1034 1.1034 0 0 0 0.25-0.0625c0.87392-0.29648 1.5684-0.88736 1.9062-1.5938s0.3678-1.4481 0.34375-2.125c-0.0032-0.08984-0.026-0.12939-0.03125-0.21875 0.12102 0.07176 0.1806 0.22782 0.3125 0.28125 0.4256 0.1724 0.88438 0.02522 1.3438-0.03125-0.13071 0.17404-0.18018 0.28288-0.3125 0.46875-0.73494 1.0323-1.4444 2.4813-0.9375 4.125a1.1034 1.1034 0 0 0 0.125 0.28125c0.57172 0.88292 1.4138 1.4958 2.3125 1.5312 0.89865 0.0354 1.5909-0.41985 2.1562-0.90625 1.1056-0.95122 1.9028-2.2994 2.4062-3.0312 0.01781-0.0218 0.04483-0.0405 0.0625-0.0625 1.994-2.4832 3.1022-6.2323 1.3438-9.3438a1.1034 1.1034 0 0 0-0.03125-0.0625c-0.86787-1.3661-2.4278-1.8179-3.75-1.625-0.93488 0.13636-1.7731 0.56746-2.5 1.125-0.36453-0.37496-0.62604-0.74558-1.1562-1.0938-0.88291-0.57976-2.0359-1.0514-3.3125-0.84375-0.04391 0.0071-0.08081-0.0088-0.125 0z" opacity=".05"/>
  <path id="path4197" d="m22.094-65.906c-3.9402-0.0483-7.8245 0.96716-11.344 2.7188-2.2408 0.8182-1.3939 3.8558-1.6322 5.7593-0.5865 2.5591 2.648 4.5403 4.095 1.8728 1.1793-1.8828 2.9662-3.4755 5.2661-3.6794 5.9948-0.97482 12.991-0.69467 17.584 3.7974 3.2635 3.2415 4.4479 8.0589 4.5093 12.526-0.67876 4.9449-4.8473 8.3697-8.6967 11.066-3.5206 2.4059-4.8759 6.9069-4.6251 11.002-1.2223-1.8269-3.5628-0.18799-5.3178-0.67217-2.7791-0.21737-5.6405-1.1823-7.651-3.1716 3.5598 2.3459 8.3851 3.311 12.311 1.305 2.6714-1.9116-0.7947-4.618-2.9119-2.9654-2.5764 0.78973-5.375-0.37133-6.9571-2.484-1.1301-1.6133-3.1528-4.0074-5.2197-2.3051-2.096 1.4657 0.39565 4.7013 0.79382 5.2257-3.0287-0.77408-3.394 3.0125-1.0454 4.1439 2.3604 1.144-1.2125 0.71894-1.4082 2.4862-0.8457 2.4597 1.68 4.2725 3.6142 5.1715 4.0322 1.8541 9.0363 3.2887 13.223 1.0904 1.4158-0.2985 2.0477-2.6107 1.9659-2.8499 2.7058 1.4608 3.4301-2.2987 2.6184-4.138-0.64418-3.1203 0.93401-6.4162 3.7252-7.9297 5.3486-3.1729 10.331-8.3265 10.796-14.826 0.13745-3.9704-1.5746-7.7146-3.182-11.255-2.593-5.3442-7.348-9.8678-13.313-11.035-2.3602-0.54112-4.7774-0.80367-7.1967-0.85335zm-3.4062 21.906c-2.8462 0.2333-3.874 3.4441-3.5607 5.8796 0.38667 1.8701 0.05905 5.3451 2.842 5.1204 2.576-0.87391 1.0285-4.151 1.2226-6.1041-0.02091-1.4744 0.88983-1.8735 0.79465-0.2039-0.32402 2.7059 2.3983 3.916 3.8825 1.4782 1.0246-0.98089 1.7845-1.0669 0.80108 0.42681-0.72577 2.0815-3.4335 3.5585-2.6722 6.0273 1.8242 2.8171 4.0211-0.95711 5.1015-2.5082 1.7986-2.2019 2.7584-5.5883 1.286-8.1936-1.2698-1.9988-4.0558-1.1418-5.3497 0.35953-0.65957-0.89096-2.4776-2.6541-4.3478-2.2821zm-4.375 24.406c3.6277 2.1945 8.1494 3.4282 12.312 2.1875 1.0867-1.297 0.76198-0.22361 1.2188 0.84375-1.8768-0.86544-3.7726 1.4237-5.834 0.7082-2.7384-0.68094-6.1229-1.0564-7.6972-3.7395z" opacity=".1"/>
  <path id="path4199" d="m22.062-64.906c-0.30941-0.01-0.64176-0.0076-0.9375 0.03125-0.94309 0.12394-1.8961 0.10362-2.8438 0.25-1.8154 0.28034-3.5497 0.85098-5.25 1.5312-0.61914 0.24767-1.2438 0.52214-1.8438 0.8125-0.22328 0.10804-0.53924 0.17036-0.71875 0.34375-0.09344 0.0904-0.0824 0.31661-0.09375 0.4375-0.03157 0.34003-0.09208 0.69144-0.125 1.0312-0.12699 1.3113-0.21904 2.6581-0.03125 3.9688 0.06078 0.42346 0.19829 1.1688 0.71875 1.25 0.80038 0.12525 1.4197-0.83109 1.8125-1.375 0.91739-1.2704 1.9642-2.4634 3.4688-3.0312 1.7712-0.66851 3.8137-0.84023 5.6875-0.96875 5.2571-0.36029 11.002 0.59666 14.875 4.4688 0.55074 0.55067 1.0567 1.1389 1.5 1.7812 1.7339 2.5107 2.6522 5.3764 3.0938 8.375 0.20762 1.4078 0.35237 2.8168 0.03125 4.2188-0.55727 2.4323-2.0085 4.5727-3.6875 6.375-1.1492 1.2336-2.4666 2.3302-3.8125 3.3438-0.75138 0.5657-1.5747 1.0691-2.2812 1.6875-0.81369 0.71229-1.4856 1.5809-2 2.5312-1.3842 2.559-1.7821 5.6434-1.375 8.5 0.08344 0.58552 0.17983 1.1725 0.3125 1.75 0.03965 0.17274 0.04449 0.48385 0.15625 0.625 0.20914 0.26401 0.77416 0.39078 1.0938 0.40625 0.33332 0.01612 0.5433-0.23239 0.625-0.53125 0.13986-0.51211 0.08104-1.0786 0-1.5938-0.16601-1.0552-0.32831-2.1164-0.28125-3.1875 0.08671-1.9776 0.84801-3.8167 2.2188-5.25 1.3941-1.4577 3.2908-2.3101 4.875-3.5312 3.1929-2.461 6.0266-5.7676 7.125-9.7188 0.39258-1.413 0.52304-2.9204 0.34375-4.375-0.22658-1.84-0.89729-3.6734-1.5312-5.4062-1.9322-5.2819-5.2364-10.302-10.5-12.719-2.089-0.95887-4.2693-1.4038-6.5312-1.7188-1.0607-0.14769-2.1196-0.23442-3.1875-0.28125-0.2966-0.01296-0.59684-0.02128-0.90625-0.03125zm-3.2812 21.906c-0.42164 0.04074-0.81632 0.18037-1.1875 0.40625-0.66707 0.40625-1.0409 1.1156-1.25 1.8438-0.41523 1.4459-0.22788 3.1105 0.0625 4.5625 0.09281 0.46441 0.18222 0.91909 0.3125 1.375 0.04706 0.16446 0.08053 0.39445 0.1875 0.53125 0.18668 0.23917 0.62676 0.3283 0.90625 0.28125 0.83852-0.14093 0.62229-1.538 0.59375-2.125-0.06688-1.3751-0.45507-2.6948-0.0625-4.0625 0.16622-0.57877 0.478-1.2486 1.0625-1.5 0.52764-0.22719 1.0723 0.04712 1.2812 0.5625 0.33831 0.8345 0.25656 1.8192 0.46875 2.6875 0.07211 0.29516 0.14814 0.56864 0.28125 0.84375 0.03856 0.07951 0.07574 0.26002 0.1875 0.25 0.27166-0.02483 0.67133-0.48809 0.875-0.65625 0.65792-0.5437 1.3363-1.1289 2.0938-1.5312 0.35641-0.18929 0.94844-0.4782 1.3125-0.15625 0.09278 0.08212 0.1523 0.17735 0.21875 0.28125 0.42787 0.67025-0.0031 1.1751-0.28125 1.8125-0.36011 0.82491-0.72822 1.6379-1.25 2.375-0.44856 0.63388-1.0479 1.2138-1.4062 1.9062-0.23071 0.44589-0.37667 0.93432-0.28125 1.4375 0.07734 0.4069 0.39749 0.62666 0.8125 0.53125 0.31066-0.07145 0.51038-0.31679 0.6875-0.5625 0.31567-0.43827 0.62379-0.90374 0.9375-1.3438 0.60694-0.85105 1.3333-1.6476 1.8438-2.5625 0.61522-1.1029 0.90692-2.3375 0.90625-3.5938-3.92e-4 -1.0266-0.36667-2.5973-1.5625-2.8125-0.22502-0.0403-0.49523-0.03899-0.71875 0-0.27774 0.04836-0.5587 0.1584-0.8125 0.28125-0.67992 0.32892-1.276 0.81649-1.7812 1.375-0.31522 0.34809-0.59469 0.77671-0.96875 1.0625 0-0.75826-0.122-1.5829-0.5625-2.2188-0.55199-0.79657-1.5135-1.2465-2.4688-1.2812-0.1433-0.0052-0.29695-0.01358-0.4375 0zm-5.5312 12.281c-0.1089-0.0084-0.22061 0.01361-0.34375 0.03125-1.0259 0.14682-1.3458 0.94728-1.1562 1.875 0.24269 1.1872 1.1998 2.0993 2.125 2.8125 2.3705 1.8271 5.421 2.8182 8.4062 2.6875 1.1649-0.05097 2.431-0.25575 3.5-0.75 0.57318-0.26488 1.1868-1.2166 0.40625-1.625-0.10697-0.05598-0.25581-0.07415-0.375-0.09375-0.34092-0.05576-0.70819 0.09471-1.0312 0.1875-0.56969 0.16359-1.1635 0.31215-1.75 0.40625-1.7522 0.28143-3.6431-0.11809-5.0938-1.1562-1.1727-0.83951-2.1046-1.9433-3-3.0625-0.47959-0.59943-0.92522-1.2538-1.6875-1.3125zm-1.25 5.7812c-0.15512 0.0016-0.31398 0.01502-0.4375 0.03125-0.26099 0.03442-0.55773 0.02347-0.78125 0.1875-0.46621 0.3422 0.03595 1.0318 0.28125 1.3438 0.71128 0.90376 1.6591 1.6512 2.5938 2.3125 2.6055 1.843 5.5446 2.9074 8.7188 3.125 0.91257 0.06252 1.8474-6e-3 2.75-0.15625 0.33003-0.05511 0.7575-0.07629 1.0625-0.21875 0.86312-0.40363 0.61406-2.0125-0.15625-2.375-0.33637-0.15814-0.89729 0.04474-1.25 0.09375-0.83417 0.11632-1.661 0.11423-2.5 0.09375-2.1988-0.0538-4.5529-0.71259-6.4688-1.7812-0.75312-0.42041-1.4159-0.93082-2.0625-1.5-0.39323-0.34613-0.80252-0.91884-1.3125-1.0938-0.11873-0.04073-0.28238-0.06411-0.4375-0.0625zm0.09375 4.9375c-0.37164 0.04161-0.66182 0.22423-0.90625 0.5-0.1684 0.18994-0.30952 0.35414-0.40625 0.59375-0.53331 1.3192 0.86188 2.5645 1.8438 3.1875 1.0927 0.69312 2.315 1.2234 3.5312 1.6562 2.7432 0.9763 5.9324 1.5916 8.7812 0.71875 0.8468-0.25922 1.6968-0.73437 2.3125-1.375 0.3468-0.36094 0.57362-0.89389-0.0625-1.125-0.37689-0.1368-0.81444 0.20608-1.1562 0.34375-0.80693 0.32543-1.6651 0.58272-2.5312 0.6875-1.1409 0.13832-2.1505-0.13114-3.25-0.40625-0.93917-0.23482-1.9045-0.474-2.8125-0.8125-0.77469-0.28884-1.5408-0.6141-2.2188-1.0938-0.2026-0.14333-0.42774-0.28207-0.59375-0.46875-0.54268-0.61057-0.94936-1.3255-1.5312-1.9062-0.2514-0.25094-0.61525-0.54291-1-0.5z" opacity=".3"/>
  <path id="path4201" d="m22.062-65.906c-0.30941-0.01-0.64176-0.0076-0.9375 0.03125-0.94309 0.12394-1.8961 0.10362-2.8438 0.25-1.8154 0.28034-3.5497 0.85098-5.25 1.5312-0.61914 0.24767-1.2438 0.52214-1.8438 0.8125-0.22328 0.10804-0.53924 0.17036-0.71875 0.34375-0.09344 0.0904-0.0824 0.31661-0.09375 0.4375-0.03157 0.34003-0.09208 0.69144-0.125 1.0312-0.12699 1.3113-0.21904 2.6581-0.03125 3.9688 0.06078 0.42346 0.19829 1.1688 0.71875 1.25 0.80038 0.12525 1.4197-0.83109 1.8125-1.375 0.91739-1.2704 1.9642-2.4634 3.4688-3.0312 1.7712-0.66851 3.8137-0.84023 5.6875-0.96875 5.2571-0.36029 11.002 0.59666 14.875 4.4688 0.55074 0.55067 1.0567 1.1389 1.5 1.7812 1.7339 2.5107 2.6522 5.3764 3.0938 8.375 0.20762 1.4078 0.35237 2.8168 0.03125 4.2188-0.55727 2.4323-2.0085 4.5727-3.6875 6.375-1.1492 1.2336-2.4666 2.3302-3.8125 3.3438-0.75138 0.5657-1.5747 1.0691-2.2812 1.6875-0.81369 0.71229-1.4856 1.5809-2 2.5312-1.3842 2.559-1.7821 5.6434-1.375 8.5 0.08344 0.58552 0.17983 1.1725 0.3125 1.75 0.03965 0.17274 0.04449 0.48385 0.15625 0.625 0.20914 0.26401 0.77416 0.39078 1.0938 0.40625 0.33332 0.01612 0.5433-0.23239 0.625-0.53125 0.13986-0.51211 0.08104-1.0786 0-1.5938-0.16601-1.0552-0.32831-2.1164-0.28125-3.1875 0.08671-1.9776 0.84801-3.8167 2.2188-5.25 1.3941-1.4577 3.2908-2.3101 4.875-3.5312 3.1929-2.461 6.0266-5.7676 7.125-9.7188 0.39258-1.413 0.52304-2.9204 0.34375-4.375-0.22658-1.84-0.89729-3.6734-1.5312-5.4062-1.9322-5.2819-5.2364-10.302-10.5-12.719-2.089-0.95887-4.2693-1.4038-6.5312-1.7188-1.0607-0.14769-2.1196-0.23442-3.1875-0.28125-0.2966-0.01296-0.59684-0.02128-0.90625-0.03125zm-3.2812 21.906c-0.42164 0.04074-0.81632 0.18037-1.1875 0.40625-0.66707 0.40625-1.0409 1.1156-1.25 1.8438-0.41523 1.4459-0.22788 3.1105 0.0625 4.5625 0.09281 0.46441 0.18222 0.91909 0.3125 1.375 0.04706 0.16446 0.08053 0.39445 0.1875 0.53125 0.18668 0.23917 0.62676 0.3283 0.90625 0.28125 0.83852-0.14093 0.62229-1.538 0.59375-2.125-0.06688-1.3751-0.45507-2.6948-0.0625-4.0625 0.16622-0.57877 0.478-1.2486 1.0625-1.5 0.52764-0.22719 1.0723 0.04712 1.2812 0.5625 0.33831 0.8345 0.25656 1.8192 0.46875 2.6875 0.07211 0.29516 0.14814 0.56864 0.28125 0.84375 0.03856 0.07951 0.07574 0.26002 0.1875 0.25 0.27166-0.02483 0.67133-0.48809 0.875-0.65625 0.65792-0.5437 1.3363-1.1289 2.0938-1.5312 0.35641-0.18929 0.94844-0.4782 1.3125-0.15625 0.09278 0.08212 0.1523 0.17735 0.21875 0.28125 0.42787 0.67025-0.0031 1.1751-0.28125 1.8125-0.36011 0.82491-0.72822 1.6379-1.25 2.375-0.44856 0.63388-1.0479 1.2138-1.4062 1.9062-0.23071 0.44589-0.37667 0.93432-0.28125 1.4375 0.07734 0.4069 0.39749 0.62666 0.8125 0.53125 0.31066-0.07145 0.51038-0.31679 0.6875-0.5625 0.31567-0.43827 0.62379-0.90374 0.9375-1.3438 0.60694-0.85105 1.3333-1.6476 1.8438-2.5625 0.61522-1.1029 0.90692-2.3375 0.90625-3.5938-3.92e-4 -1.0266-0.36667-2.5973-1.5625-2.8125-0.22502-0.0403-0.49523-0.03899-0.71875 0-0.27774 0.04836-0.5587 0.1584-0.8125 0.28125-0.67992 0.32892-1.276 0.81649-1.7812 1.375-0.31522 0.34809-0.59469 0.77671-0.96875 1.0625 0-0.75826-0.122-1.5829-0.5625-2.2188-0.55199-0.79657-1.5135-1.2465-2.4688-1.2812-0.1433-0.0052-0.29695-0.01358-0.4375 0zm-5.5312 12.281c-0.1089-0.0084-0.22061 0.01361-0.34375 0.03125-1.0259 0.14682-1.3458 0.94728-1.1562 1.875 0.24269 1.1872 1.1998 2.0993 2.125 2.8125 2.3705 1.8271 5.421 2.8182 8.4062 2.6875 1.1649-0.05097 2.431-0.25575 3.5-0.75 0.57318-0.26488 1.1868-1.2166 0.40625-1.625-0.10697-0.05598-0.25581-0.07415-0.375-0.09375-0.34092-0.05576-0.70819 0.09471-1.0312 0.1875-0.56969 0.16359-1.1635 0.31215-1.75 0.40625-1.7522 0.28143-3.6431-0.11809-5.0938-1.1562-1.1727-0.83951-2.1046-1.9433-3-3.0625-0.47959-0.59943-0.92522-1.2538-1.6875-1.3125zm-1.25 5.7812c-0.15512 0.0016-0.31398 0.01502-0.4375 0.03125-0.26099 0.03442-0.55773 0.02347-0.78125 0.1875-0.46621 0.3422 0.03595 1.0318 0.28125 1.3438 0.71128 0.90376 1.6591 1.6512 2.5938 2.3125 2.6055 1.843 5.5446 2.9074 8.7188 3.125 0.91257 0.06252 1.8474-6e-3 2.75-0.15625 0.33003-0.05511 0.7575-0.07629 1.0625-0.21875 0.86312-0.40363 0.61406-2.0125-0.15625-2.375-0.33637-0.15814-0.89729 0.04474-1.25 0.09375-0.83417 0.11632-1.661 0.11423-2.5 0.09375-2.1988-0.0538-4.5529-0.71259-6.4688-1.7812-0.75312-0.42041-1.4159-0.93082-2.0625-1.5-0.39323-0.34613-0.80252-0.91884-1.3125-1.0938-0.11873-0.04073-0.28238-0.06411-0.4375-0.0625zm0.09375 4.9375c-0.37164 0.04161-0.66182 0.22423-0.90625 0.5-0.1684 0.18994-0.30952 0.35414-0.40625 0.59375-0.53331 1.3192 0.86188 2.5645 1.8438 3.1875 1.0927 0.69312 2.315 1.2234 3.5312 1.6562 2.7432 0.9763 5.9324 1.5916 8.7812 0.71875 0.8468-0.25922 1.6968-0.73437 2.3125-1.375 0.3468-0.36094 0.57362-0.89389-0.0625-1.125-0.37689-0.1368-0.81444 0.20608-1.1562 0.34375-0.80693 0.32543-1.6651 0.58272-2.5312 0.6875-1.1409 0.13832-2.1505-0.13114-3.25-0.40625-0.93917-0.23482-1.9045-0.474-2.8125-0.8125-0.77469-0.28884-1.5408-0.6141-2.2188-1.0938-0.2026-0.14333-0.42774-0.28207-0.59375-0.46875-0.54268-0.61057-0.94936-1.3255-1.5312-1.9062-0.2514-0.25094-0.61525-0.54291-1-0.5z" fill="#fff"/>
  <path id="path4219" d="m22.062 13.094c-0.30941-0.01-0.64176-0.0076-0.9375 0.03125-0.94309 0.12394-1.8961 0.10362-2.8438 0.25-1.8154 0.28034-3.5497 0.85098-5.25 1.5312-0.61914 0.24767-1.2438 0.52214-1.8438 0.8125-0.22328 0.10804-0.53924 0.17036-0.71875 0.34375-0.09344 0.0904-0.0824 0.31661-0.09375 0.4375-0.03157 0.34003-0.09208 0.69144-0.125 1.0312-0.095241 0.98349-0.17238 1.9756-0.125 2.9688 0.016371-0.6541 0.062494-1.3233 0.125-1.9688 0.03292-0.33981 0.09343-0.69122 0.125-1.0312 0.01135-0.12089 3.1e-4 -0.3471 0.09375-0.4375 0.17951-0.17339 0.49547-0.23571 0.71875-0.34375 0.59997-0.29036 1.2246-0.56483 1.8438-0.8125 1.7003-0.68027 3.4346-1.2509 5.25-1.5312 0.94767-0.14638 1.9007-0.12606 2.8438-0.25 0.29574-0.03885 0.62809-0.04125 0.9375-0.03125 0.30941 0.009966 0.60965 0.01829 0.90625 0.03125 1.0679 0.046833 2.1268 0.13356 3.1875 0.28125 2.262 0.31498 4.4422 0.75988 6.5312 1.7188 5.2636 2.4164 8.5678 7.4369 10.5 12.719 0.63396 1.7328 1.3047 3.5663 1.5312 5.4062 0.030709 0.24915 0.018476 0.4985 0.03125 0.75 0.02438-0.58943 0.040482-1.168-0.03125-1.75-0.22658-1.84-0.89729-3.6734-1.5312-5.4062-1.9322-5.2819-5.2364-10.302-10.5-12.719-2.089-0.95887-4.2693-1.4038-6.5312-1.7188-1.0607-0.14769-2.1196-0.23442-3.1875-0.28125-0.2966-0.01296-0.59684-0.021284-0.90625-0.03125zm19.5 21.781c-0.020836 0.44715-0.054096 0.89777-0.15625 1.3438-0.55727 2.4323-2.0085 4.5727-3.6875 6.375-1.1492 1.2336-2.4666 2.3302-3.8125 3.3438-0.75138 0.5657-1.5747 1.0691-2.2812 1.6875-0.81369 0.71229-1.4856 1.5809-2 2.5312-1.1421 2.1113-1.5989 4.5652-1.5 6.9688 0.052538-2.0789 0.5163-4.1502 1.5-5.9688 0.51436-0.95038 1.1863-1.819 2-2.5312 0.7065-0.61841 1.5299-1.1218 2.2812-1.6875 1.3459-1.0135 2.6633-2.1102 3.8125-3.3438 1.679-1.8023 3.1302-3.9427 3.6875-6.375 0.17951-0.7837 0.1975-1.5571 0.15625-2.3438zm-22.781 0.125c-0.42164 0.04074-0.81632 0.18037-1.1875 0.40625-0.66707 0.40625-1.0409 1.1156-1.25 1.8438-0.19359 0.67412-0.23649 1.3995-0.21875 2.125 0.03629-0.38207 0.11494-0.76352 0.21875-1.125 0.20914-0.7282 0.58293-1.4375 1.25-1.8438 0.37118-0.22588 0.76586-0.36551 1.1875-0.40625 0.14055-0.01358 0.2942-0.0052 0.4375 0 0.9553 0.034703 1.9168 0.48468 2.4688 1.2812 0.4405 0.63584 0.5625 1.4605 0.5625 2.2188 0.37406-0.28579 0.65354-0.71441 0.96875-1.0625 0.50521-0.55851 1.1013-1.0461 1.7812-1.375 0.2538-0.12285 0.53476-0.23289 0.8125-0.28125 0.22352-0.03899 0.49373-0.0403 0.71875 0 1.0298 0.18534 1.4357 1.3611 1.5312 2.3438 0.011716-0.17669 0.031346-0.35338 0.03125-0.53125-3.92e-4 -1.0266-0.36667-2.5973-1.5625-2.8125-0.22502-0.0403-0.49523-0.03899-0.71875 0-0.27774 0.04836-0.5587 0.1584-0.8125 0.28125-0.67992 0.32892-1.276 0.81649-1.7812 1.375-0.31522 0.34809-0.59469 0.77671-0.96875 1.0625 0-0.75826-0.122-1.5829-0.5625-2.2188-0.55199-0.79657-1.5135-1.2465-2.4688-1.2812-0.1433-0.0052-0.29695-0.01358-0.4375 0zm7.375 4.6875c-0.09496 0.22599-0.204 0.47012-0.3125 0.71875-0.36011 0.82491-0.72822 1.6379-1.25 2.375-0.44856 0.63388-1.0479 1.2138-1.4062 1.9062-0.23071 0.44589-0.37667 0.93432-0.28125 1.4375 0.010956 0.057644 0.042218 0.10648 0.0625 0.15625 0.05541-0.20564 0.11937-0.40167 0.21875-0.59375 0.35839-0.69247 0.95769-1.2724 1.4062-1.9062 0.52178-0.73713 0.88989-1.5501 1.25-2.375 0.26598-0.60948 0.65164-1.0911 0.3125-1.7188zm-7.9688 0.15625c-0.053302 1.0126 0.16859 1.9999 0.21875 3.0312 0.003578 0.073606 0.024219 0.18625 0.03125 0.28125 0.060757-0.45517-0.016294-0.97362-0.03125-1.2812-0.03344-0.68757-0.16241-1.3585-0.21875-2.0312zm-4.9375 7.4375c-0.1089-0.0084-0.22061 0.01361-0.34375 0.03125-1.0259 0.14682-1.3458 0.94728-1.1562 1.875 0.14381-0.45941 0.5279-0.78508 1.1562-0.875 0.12314-0.01764 0.23485-0.03965 0.34375-0.03125 0.76228 0.058689 1.2079 0.71307 1.6875 1.3125 0.89541 1.1192 1.8273 2.223 3 3.0625 1.4507 1.0382 3.3415 1.4377 5.0938 1.1562 0.58646-0.094102 1.1803-0.24266 1.75-0.40625 0.32306-0.09279 0.69033-0.24326 1.0312-0.1875 0.11919 0.0196 0.26803 0.03777 0.375 0.09375 0.067726 0.035437 0.10858 0.082187 0.15625 0.125 0.27071-0.38514 0.34653-0.86193-0.15625-1.125-0.10697-0.05598-0.25581-0.07415-0.375-0.09375-0.34092-0.05576-0.70819 0.09471-1.0312 0.1875-0.56969 0.16359-1.1635 0.31215-1.75 0.40625-1.7522 0.28143-3.6431-0.11809-5.0938-1.1562-1.1727-0.83951-2.1046-1.9433-3-3.0625-0.47959-0.59943-0.92522-1.2538-1.6875-1.3125zm-1.25 5.7812c-0.15512 0.0016-0.31398 0.01502-0.4375 0.03125-0.26099 0.03442-0.55773 0.02347-0.78125 0.1875-0.33023 0.2424-0.17481 0.66668 0.03125 1 0.22067-0.14752 0.49771-0.15423 0.75-0.1875 0.12352-0.01623 0.28238-0.02965 0.4375-0.03125 0.15512-0.001606 0.31877 0.021765 0.4375 0.0625 0.50998 0.17492 0.91927 0.74762 1.3125 1.0938 0.64662 0.56918 1.3094 1.0796 2.0625 1.5 1.9158 1.0687 4.2699 1.7274 6.4688 1.7812 0.83896 0.020476 1.6658 0.022569 2.5-0.09375 0.35271-0.04901 0.91363-0.25189 1.25-0.09375 0.28161 0.13251 0.51159 0.43536 0.625 0.78125 0.19881-0.63748-0.073929-1.5219-0.625-1.7812-0.33637-0.15814-0.89729 0.04474-1.25 0.09375-0.83417 0.11632-1.661 0.11423-2.5 0.09375-2.1988-0.0538-4.5529-0.71259-6.4688-1.7812-0.75312-0.42041-1.4159-0.93082-2.0625-1.5-0.39323-0.34613-0.80252-0.91884-1.3125-1.0938-0.11873-0.040735-0.28238-0.064106-0.4375-0.0625zm18.156 4.0625c-0.047057 1.0711 0.11524 2.1323 0.28125 3.1875 0.017095 0.10867 0.017789 0.2315 0.03125 0.34375 0.0704-0.44567 0.037376-0.9075-0.03125-1.3438-0.11461-0.72846-0.23785-1.452-0.28125-2.1875zm-18.062 0.875c-0.37164 0.04161-0.66182 0.22423-0.90625 0.5-0.1684 0.18994-0.30952 0.35414-0.40625 0.59375-0.15066 0.37266-0.13561 0.74524-0.03125 1.0938 0.010574-0.031432 0.018505-0.062226 0.03125-0.09375 0.096728-0.23961 0.23785-0.4038 0.40625-0.59375 0.24443-0.27577 0.53461-0.45839 0.90625-0.5 0.38475-0.042912 0.7486 0.24906 1 0.5 0.58189 0.58073 0.98857 1.2957 1.5312 1.9062 0.16601 0.18668 0.39114 0.32542 0.59375 0.46875 0.67794 0.47966 1.4441 0.80491 2.2188 1.0938 0.90804 0.3385 1.8733 0.57768 2.8125 0.8125 1.0995 0.27512 2.1091 0.54457 3.25 0.40625 0.86619-0.10478 1.7243-0.36207 2.5312-0.6875 0.34182-0.13767 0.77936-0.48054 1.1562-0.34375 0.05301 0.019259 0.083545 0.039323 0.125 0.0625 0.30896-0.35691 0.47197-0.84561-0.125-1.0625-0.37689-0.1368-0.81444 0.20608-1.1562 0.34375-0.80693 0.32543-1.6651 0.58272-2.5312 0.6875-1.1409 0.13832-2.1505-0.13114-3.25-0.40625-0.93917-0.23482-1.9045-0.474-2.8125-0.8125-0.77469-0.28884-1.5408-0.6141-2.2188-1.0938-0.2026-0.14333-0.42774-0.28207-0.59375-0.46875-0.54268-0.61057-0.94936-1.3255-1.5312-1.9062-0.2514-0.25094-0.61525-0.54291-1-0.5z" opacity=".1"/>
 </g>
</svg>
