<?xml version="1.0" encoding="UTF-8"?>
<!-- Created with Inkscape (http://www.inkscape.org/) -->
<svg id="svg2408" width="96" height="96" version="1.0" xmlns="http://www.w3.org/2000/svg" xmlns:cc="http://creativecommons.org/ns#" xmlns:dc="http://purl.org/dc/elements/1.1/" xmlns:rdf="http://www.w3.org/1999/02/22-rdf-syntax-ns#" xmlns:xlink="http://www.w3.org/1999/xlink">
 <defs id="defs2410">
  <linearGradient id="ButtonShadow" x1="45.448" x2="45.448" y1="92.54" y2="7.0165" gradientTransform="scale(1.0059 .99417)" gradientUnits="userSpaceOnUse">
   <stop id="stop3750" offset="0"/>
   <stop id="stop3752" stop-opacity=".58824" offset="1"/>
  </linearGradient>
  <linearGradient id="linearGradient3737">
   <stop id="stop3739" stop-color="#fff" offset="0"/>
   <stop id="stop3741" stop-color="#fff" stop-opacity="0" offset="1"/>
  </linearGradient>
  <filter id="filter3174">
   <feGaussianBlur id="feGaussianBlur3176" stdDeviation="1.71"/>
  </filter>
  <linearGradient id="linearGradient3188" x1="36.357" x2="36.357" y1="6" y2="63.893" gradientUnits="userSpaceOnUse" xlink:href="#linearGradient3737"/>
  <filter id="filter3794" x="-.192" y="-.192" width="1.384" height="1.384">
   <feGaussianBlur id="feGaussianBlur3796" stdDeviation="5.28"/>
  </filter>
  <linearGradient id="linearGradient3613" x1="48" x2="48" y1="20.221" y2="138.66" gradientUnits="userSpaceOnUse" xlink:href="#linearGradient3737"/>
  <radialGradient id="radialGradient3619" cx="48" cy="90.172" r="42" gradientTransform="matrix(1.1573 0 0 .99591 -7.551 .19713)" gradientUnits="userSpaceOnUse" xlink:href="#linearGradient3737"/>
  <clipPath id="clipPath3613">
   <rect id="rect3615" x="6" y="6" width="84" height="84" rx="6" ry="6" fill="#fff"/>
  </clipPath>
  <linearGradient id="ButtonShadow-0" x1="45.448" x2="45.448" y1="92.54" y2="7.0165" gradientTransform="matrix(1.0059 0 0 .99417 100 0)" gradientUnits="userSpaceOnUse">
   <stop id="stop3750-8" offset="0"/>
   <stop id="stop3752-5" stop-opacity=".58824" offset="1"/>
  </linearGradient>
  <linearGradient id="linearGradient3780" x1="32.251" x2="32.251" y1="6.1317" y2="90.239" gradientTransform="matrix(1.0238 0 0 1.0119 -1.1429 -98.071)" gradientUnits="userSpaceOnUse" xlink:href="#ButtonShadow-0"/>
  <linearGradient id="linearGradient3721" x1="32.251" x2="32.251" y1="6.1317" y2="90.239" gradientTransform="translate(0,-97)" gradientUnits="userSpaceOnUse" xlink:href="#ButtonShadow-0"/>
  <linearGradient id="linearGradient3146" x1="48" x2="48" y1="6" y2="109.11" gradientUnits="userSpaceOnUse">
   <stop id="stop3739-8" stop-color="#fff" offset="0"/>
   <stop id="stop3741-8" stop-color="#fff" stop-opacity="0" offset="1"/>
  </linearGradient>
  <linearGradient id="linearGradient3133" x1="48" x2="48" y1="120" y2="5.9877" gradientTransform="translate(0,-96)" gradientUnits="userSpaceOnUse">
   <stop id="stop14671" stop-color="#fcc644" offset=".182"/>
   <stop id="stop14683" stop-color="#FF8B00" offset="1"/>
  </linearGradient>
  <linearGradient id="linearGradient13743" x1="82.442" x2="91.008" y1="213.89" y2="222.77" gradientTransform="matrix(1 .0046 -.0046 1 1.194 -1.0432)" gradientUnits="userSpaceOnUse">
   <stop id="stop3125" stop-color="#fff" offset="0"/>
   <stop id="stop3127" stop-color="#ECF5FE" offset=".1178"/>
   <stop id="stop3129" stop-color="#BADAFA" offset=".3575"/>
   <stop id="stop3131" stop-color="#6AB0F4" offset=".6939"/>
   <stop id="stop3133" stop-color="#1C86EE" offset="1"/>
  </linearGradient>
  <linearGradient id="linearGradient13745" x1="115.28" x2="122.26" y1="131.51" y2="160.4" gradientTransform="matrix(1 .0046 -.0046 1 1.194 -1.0432)" gradientUnits="userSpaceOnUse">
   <stop id="stop3138" stop-color="#FFF7FF" offset=".0056"/>
   <stop id="stop3140" stop-color="#CEDFFB" offset=".1382"/>
   <stop id="stop3142" stop-color="#98C4F7" offset=".3023"/>
   <stop id="stop3144" stop-color="#6CAEF4" offset=".4629"/>
   <stop id="stop3146" stop-color="#499CF1" offset=".6163"/>
   <stop id="stop3148" stop-color="#3090F0" offset=".7607"/>
   <stop id="stop3150" stop-color="#2189EE" offset=".8924"/>
   <stop id="stop3152" stop-color="#1C86EE" offset="1"/>
  </linearGradient>
  <linearGradient id="linearGradient13747" x1="82.511" x2="91.114" y1="213.67" y2="222.59" gradientTransform="matrix(1 .0046 -.0046 1 1.194 -1.0432)" gradientUnits="userSpaceOnUse">
   <stop id="stop3157" stop-color="#fff" offset="0"/>
   <stop id="stop3159" stop-color="#ECF5FE" offset=".1178"/>
   <stop id="stop3161" stop-color="#BADAFA" offset=".3575"/>
   <stop id="stop3163" stop-color="#6AB0F4" offset=".6939"/>
   <stop id="stop3165" stop-color="#1C86EE" offset="1"/>
  </linearGradient>
  <linearGradient id="linearGradient13749" x1="97.844" x2="100.52" y1="229.57" y2="232.34" gradientTransform="matrix(1 .0046 -.0046 1 1.194 -1.0432)" gradientUnits="userSpaceOnUse">
   <stop id="stop3170" stop-color="#fff" offset="0"/>
   <stop id="stop3172" stop-color="#ECF5FE" offset=".1178"/>
   <stop id="stop3174" stop-color="#BADAFA" offset=".3575"/>
   <stop id="stop3176" stop-color="#6AB0F4" offset=".6939"/>
   <stop id="stop3178" stop-color="#1C86EE" offset="1"/>
  </linearGradient>
  <linearGradient id="linearGradient13751" x1="86.227" x2="90.039" y1="180.47" y2="190" gradientTransform="matrix(1 .0046 -.0046 1 1.194 -1.0432)" gradientUnits="userSpaceOnUse">
   <stop id="stop3183" stop-color="#fff" offset="0"/>
   <stop id="stop3185" stop-color="#ECF5FE" offset=".1178"/>
   <stop id="stop3187" stop-color="#BADAFA" offset=".3575"/>
   <stop id="stop3189" stop-color="#6AB0F4" offset=".6939"/>
   <stop id="stop3191" stop-color="#1C86EE" offset="1"/>
  </linearGradient>
  <linearGradient id="linearGradient13753" x1="127.33" x2="127.96" y1="216.01" y2="198.56" gradientTransform="matrix(1 .0046 -.0046 1 1.194 -1.0432)" gradientUnits="userSpaceOnUse">
   <stop id="stop3196" stop-color="#fff" offset="0"/>
   <stop id="stop3198" stop-color="#ECF5FE" offset=".1178"/>
   <stop id="stop3200" stop-color="#BADAFA" offset=".3575"/>
   <stop id="stop3202" stop-color="#6AB0F4" offset=".6939"/>
   <stop id="stop3204" stop-color="#1C86EE" offset="1"/>
  </linearGradient>
  <radialGradient id="radialGradient13755" cx="155.75" cy="161.26" r="52.717" gradientTransform="matrix(1.0169 .0102 .0047 1.0111 -2.8353 -3.7854)" gradientUnits="userSpaceOnUse">
   <stop id="stop3213" stop-color="#1C86EE" offset=".118"/>
   <stop id="stop3215" stop-color="#80D1FF" offset=".5169"/>
   <stop id="stop3217" stop-color="#5BB5F9" offset=".6036"/>
   <stop id="stop3219" stop-color="#2E93F1" offset=".7215"/>
   <stop id="stop3221" stop-color="#1C86EE" offset=".7809"/>
  </radialGradient>
  <linearGradient id="linearGradient13757" x1="153.16" x2="129.74" y1="186.31" y2="75.129" gradientTransform="matrix(1.0119 .0089 .0036 1.008 -1.7908 -3.1402)" gradientUnits="userSpaceOnUse">
   <stop id="stop3226" stop-color="#1C86EE" offset="0"/>
   <stop id="stop3228" stop-color="#1C86EE" offset=".118"/>
   <stop id="stop3230" stop-color="#7DCFFE" offset=".5169"/>
   <stop id="stop3232" stop-color="#5BB5F8" offset=".5989"/>
   <stop id="stop3234" stop-color="#2D93F1" offset=".7199"/>
   <stop id="stop3236" stop-color="#1C86EE" offset=".7809"/>
   <stop id="stop3238" stop-color="#1C86EE" offset="1"/>
  </linearGradient>
  <linearGradient id="linearGradient13759" x1="151.55" x2="136.47" y1="187.27" y2="76.239" gradientTransform="matrix(1.007 .0076 .0025 1.0049 -.7472 -2.493)" gradientUnits="userSpaceOnUse">
   <stop id="stop3243" stop-color="#1D86EE" offset="0"/>
   <stop id="stop3245" stop-color="#1D86EE" offset=".118"/>
   <stop id="stop3247" stop-color="#7ACCFE" offset=".5169"/>
   <stop id="stop3249" stop-color="#5BB5F9" offset=".594"/>
   <stop id="stop3251" stop-color="#2D93F1" offset=".7182"/>
   <stop id="stop3253" stop-color="#1C86EE" offset=".7809"/>
   <stop id="stop3255" stop-color="#1C86EE" offset="1"/>
  </linearGradient>
  <linearGradient id="linearGradient13761" x1="149.83" x2="142.96" y1="188.08" y2="78.149" gradientTransform="matrix(1.002 .0063 .0014 1.0019 .2973 -1.8467)" gradientUnits="userSpaceOnUse">
   <stop id="stop3260" stop-color="#1D87EE" offset="0"/>
   <stop id="stop3262" stop-color="#1D87EE" offset=".118"/>
   <stop id="stop3264" stop-color="#77CAFD" offset=".5169"/>
   <stop id="stop3266" stop-color="#5BB5F8" offset=".5887"/>
   <stop id="stop3268" stop-color="#2D93F1" offset=".7165"/>
   <stop id="stop3270" stop-color="#1C86EE" offset=".7809"/>
   <stop id="stop3272" stop-color="#1C86EE" offset="1"/>
  </linearGradient>
  <linearGradient id="linearGradient13763" x1="148.01" x2="149.1" y1="188.72" y2="80.827" gradientTransform="matrix(.9971 .0051 .00027418 .9988 1.3409 -1.201)" gradientUnits="userSpaceOnUse">
   <stop id="stop3277" stop-color="#1E87EE" offset="0"/>
   <stop id="stop3279" stop-color="#1D87EE" offset=".118"/>
   <stop id="stop3281" stop-color="#74C8FD" offset=".5169"/>
   <stop id="stop3283" stop-color="#5BB5F9" offset=".5831"/>
   <stop id="stop3285" stop-color="#2D93F1" offset=".7146"/>
   <stop id="stop3287" stop-color="#1C86EE" offset=".7809"/>
   <stop id="stop3289" stop-color="#1C86EE" offset="1"/>
  </linearGradient>
  <linearGradient id="linearGradient13765" x1="146.1" x2="154.8" y1="189.17" y2="84.218" gradientTransform="matrix(.9921 .0038 -.00083227 .9957 2.385 -.5547)" gradientUnits="userSpaceOnUse">
   <stop id="stop3294" stop-color="#1E87EE" offset="0"/>
   <stop id="stop3296" stop-color="#1E87EE" offset=".118"/>
   <stop id="stop3298" stop-color="#71C5FC" offset=".5169"/>
   <stop id="stop3300" stop-color="#5BB5F8" offset=".5772"/>
   <stop id="stop3302" stop-color="#2D93F1" offset=".7126"/>
   <stop id="stop3304" stop-color="#1C86EE" offset=".7809"/>
   <stop id="stop3306" stop-color="#1C86EE" offset="1"/>
  </linearGradient>
  <linearGradient id="linearGradient13767" x1="144.13" x2="159.97" y1="189.43" y2="88.244" gradientTransform="matrix(.9872 .0025 -.0019 .9926 3.4291 .0906)" gradientUnits="userSpaceOnUse">
   <stop id="stop3311" stop-color="#1E87EE" offset="0"/>
   <stop id="stop3313" stop-color="#1E87EE" offset=".118"/>
   <stop id="stop3315" stop-color="#6EC3FC" offset=".5169"/>
   <stop id="stop3317" stop-color="#5CB5F9" offset=".5686"/>
   <stop id="stop3319" stop-color="#2E93F1" offset=".7098"/>
   <stop id="stop3321" stop-color="#1D86EE" offset=".7809"/>
   <stop id="stop3323" stop-color="#1C86EE" offset="1"/>
  </linearGradient>
  <linearGradient id="linearGradient13769" x1="142.13" x2="164.54" y1="189.48" y2="92.828" gradientTransform="matrix(.9822 .0012 -.003 .9896 4.4727 .7373)" gradientUnits="userSpaceOnUse">
   <stop id="stop3328" stop-color="#1F88EE" offset="0"/>
   <stop id="stop3330" stop-color="#1E87EE" offset=".118"/>
   <stop id="stop3332" stop-color="#6BC1FB" offset=".5169"/>
   <stop id="stop3334" stop-color="#5CB5F8" offset=".5616"/>
   <stop id="stop3336" stop-color="#2E93F1" offset=".7074"/>
   <stop id="stop3338" stop-color="#1D86EE" offset=".7809"/>
   <stop id="stop3340" stop-color="#1C86EE" offset="1"/>
  </linearGradient>
  <linearGradient id="linearGradient13771" x1="140.12" x2="168.44" y1="189.32" y2="97.86" gradientTransform="matrix(.9772 -7.0982e-5 -.0042 .9865 5.5168 1.3831)" gradientUnits="userSpaceOnUse">
   <stop id="stop3345" stop-color="#1F88EE" offset="0"/>
   <stop id="stop3347" stop-color="#1F88EE" offset=".118"/>
   <stop id="stop3349" stop-color="#68BEFB" offset=".5169"/>
   <stop id="stop3351" stop-color="#5CB5F9" offset=".5541"/>
   <stop id="stop3353" stop-color="#2E94F1" offset=".7049"/>
   <stop id="stop3355" stop-color="#1D87EE" offset=".7809"/>
   <stop id="stop3357" stop-color="#1C86EE" offset="1"/>
  </linearGradient>
  <linearGradient id="linearGradient13773" x1="138.12" x2="171.65" y1="188.95" y2="103.24" gradientTransform="matrix(.9723 -.0014 -.0053 .9834 6.5608 2.0294)" gradientUnits="userSpaceOnUse">
   <stop id="stop3362" stop-color="#1F88EE" offset="0"/>
   <stop id="stop3364" stop-color="#1F88EE" offset=".118"/>
   <stop id="stop3366" stop-color="#65BCFA" offset=".5169"/>
   <stop id="stop3368" stop-color="#5CB5F8" offset=".546"/>
   <stop id="stop3370" stop-color="#2E94F1" offset=".7022"/>
   <stop id="stop3372" stop-color="#1D87EE" offset=".7809"/>
   <stop id="stop3374" stop-color="#1C86EE" offset="1"/>
  </linearGradient>
  <linearGradient id="linearGradient13775" x1="136.15" x2="174.13" y1="188.37" y2="108.85" gradientTransform="matrix(.9673 -.0026 -.0064 .9803 7.6049 2.6751)" gradientUnits="userSpaceOnUse">
   <stop id="stop3379" stop-color="#2088EE" offset="0"/>
   <stop id="stop3381" stop-color="#2088EE" offset=".118"/>
   <stop id="stop3383" stop-color="#62BAFA" offset=".5169"/>
   <stop id="stop3385" stop-color="#5CB5F9" offset=".5373"/>
   <stop id="stop3387" stop-color="#2E94F1" offset=".6993"/>
   <stop id="stop3389" stop-color="#1D87EE" offset=".7809"/>
   <stop id="stop3391" stop-color="#1C86EE" offset="1"/>
  </linearGradient>
  <linearGradient id="linearGradient13777" x1="134.25" x2="175.87" y1="187.59" y2="114.58" gradientTransform="matrix(.9624 -.0039 -.0075 .9772 8.6485 3.3214)" gradientUnits="userSpaceOnUse">
   <stop id="stop3396" stop-color="#2088EE" offset="0"/>
   <stop id="stop3398" stop-color="#2088EE" offset=".118"/>
   <stop id="stop3400" stop-color="#5FB7F9" offset=".5169"/>
   <stop id="stop3402" stop-color="#5CB5F8" offset=".5279"/>
   <stop id="stop3404" stop-color="#2E94F1" offset=".6962"/>
   <stop id="stop3406" stop-color="#1D87EE" offset=".7809"/>
   <stop id="stop3408" stop-color="#1C86EE" offset="1"/>
  </linearGradient>
  <linearGradient id="linearGradient13779" x1="132.43" x2="176.89" y1="186.62" y2="120.31" gradientTransform="matrix(.9574 -.0052 -.0086 .9742 9.6931 3.9672)" gradientUnits="userSpaceOnUse">
   <stop id="stop3413" stop-color="#2189EE" offset="0"/>
   <stop id="stop3415" stop-color="#2088EE" offset=".118"/>
   <stop id="stop3417" stop-color="#5CB5F8" offset=".5169"/>
   <stop id="stop3419" stop-color="#5CB5F8" offset=".5176"/>
   <stop id="stop3421" stop-color="#2E94F1" offset=".6927"/>
   <stop id="stop3423" stop-color="#1D87EE" offset=".7809"/>
   <stop id="stop3425" stop-color="#1C86EE" offset="1"/>
  </linearGradient>
  <linearGradient id="linearGradient13781" x1="130.72" x2="177.22" y1="185.47" y2="125.96" gradientTransform="matrix(.9524 -.0065 -.0097 .9711 10.737 4.6134)" gradientUnits="userSpaceOnUse">
   <stop id="stop3430" stop-color="#2189EE" offset="0"/>
   <stop id="stop3432" stop-color="#2189EE" offset=".118"/>
   <stop id="stop3434" stop-color="#59B3F8" offset=".5169"/>
   <stop id="stop3436" stop-color="#2E94F1" offset=".689"/>
   <stop id="stop3438" stop-color="#1D87EE" offset=".7809"/>
   <stop id="stop3440" stop-color="#1C86EE" offset="1"/>
  </linearGradient>
  <linearGradient id="linearGradient13783" x1="129.13" x2="176.9" y1="184.17" y2="131.41" gradientTransform="matrix(.9475 -.0078 -.0108 .968 11.781 5.2592)" gradientUnits="userSpaceOnUse">
   <stop id="stop3445" stop-color="#2189EE" offset="0"/>
   <stop id="stop3447" stop-color="#2189EE" offset=".118"/>
   <stop id="stop3449" stop-color="#56B0F7" offset=".5169"/>
   <stop id="stop3451" stop-color="#2E94F1" offset=".6849"/>
   <stop id="stop3453" stop-color="#1D87EE" offset=".7809"/>
   <stop id="stop3455" stop-color="#1C86EE" offset="1"/>
  </linearGradient>
  <linearGradient id="linearGradient13785" x1="127.68" x2="175.98" y1="182.71" y2="136.57" gradientTransform="matrix(.9425 -.0091 -.0119 .9649 12.825 5.9054)" gradientUnits="userSpaceOnUse">
   <stop id="stop3460" stop-color="#2289EE" offset="0"/>
   <stop id="stop3462" stop-color="#2189EE" offset=".118"/>
   <stop id="stop3464" stop-color="#53AEF7" offset=".5169"/>
   <stop id="stop3466" stop-color="#2E94F1" offset=".6803"/>
   <stop id="stop3468" stop-color="#1D87EE" offset=".7809"/>
   <stop id="stop3470" stop-color="#1C86EE" offset="1"/>
  </linearGradient>
  <linearGradient id="linearGradient13787" x1="126.37" x2="174.54" y1="181.14" y2="141.39" gradientTransform="matrix(.9376 -.0103 -.013 .9619 13.869 6.5512)" gradientUnits="userSpaceOnUse">
   <stop id="stop3475" stop-color="#228AEF" offset="0"/>
   <stop id="stop3477" stop-color="#2289EF" offset=".118"/>
   <stop id="stop3479" stop-color="#4FACF6" offset=".5169"/>
   <stop id="stop3481" stop-color="#2F94F1" offset=".6716"/>
   <stop id="stop3483" stop-color="#1E87EE" offset=".7809"/>
   <stop id="stop3485" stop-color="#1C86EE" offset="1"/>
  </linearGradient>
  <linearGradient id="linearGradient13789" x1="125.21" x2="172.63" y1="179.47" y2="145.8" gradientTransform="matrix(.9326 -.0116 -.0141 .9588 14.912 7.1975)" gradientUnits="userSpaceOnUse">
   <stop id="stop3490" stop-color="#238AEF" offset="0"/>
   <stop id="stop3492" stop-color="#2289EF" offset=".118"/>
   <stop id="stop3494" stop-color="#4CAAF6" offset=".5169"/>
   <stop id="stop3496" stop-color="#2F94F1" offset=".6656"/>
   <stop id="stop3498" stop-color="#1E87EE" offset=".7809"/>
   <stop id="stop3500" stop-color="#1C86EE" offset="1"/>
  </linearGradient>
  <linearGradient id="linearGradient13791" x1="124.19" x2="170.35" y1="177.73" y2="149.76" gradientTransform="matrix(.9277 -.0129 -.0152 .9557 15.957 7.8433)" gradientUnits="userSpaceOnUse">
   <stop id="stop3505" stop-color="#238AEF" offset="0"/>
   <stop id="stop3507" stop-color="#2289EF" offset=".118"/>
   <stop id="stop3509" stop-color="#49A7F5" offset=".5169"/>
   <stop id="stop3511" stop-color="#2F94F1" offset=".6587"/>
   <stop id="stop3513" stop-color="#1E87EE" offset=".7809"/>
   <stop id="stop3515" stop-color="#1C86EE" offset="1"/>
  </linearGradient>
  <linearGradient id="linearGradient13793" x1="123.31" x2="167.76" y1="175.92" y2="153.22" gradientTransform="matrix(.9227 -.0142 -.0163 .9526 17.001 8.4895)" gradientUnits="userSpaceOnUse">
   <stop id="stop3520" stop-color="#238AEF" offset="0"/>
   <stop id="stop3522" stop-color="#238AEF" offset=".118"/>
   <stop id="stop3524" stop-color="#46A5F5" offset=".5169"/>
   <stop id="stop3526" stop-color="#2F94F1" offset=".6509"/>
   <stop id="stop3528" stop-color="#1E87EE" offset=".7809"/>
   <stop id="stop3530" stop-color="#1C86EE" offset="1"/>
  </linearGradient>
  <linearGradient id="linearGradient13795" x1="122.57" x2="164.93" y1="174.08" y2="156.19" gradientTransform="matrix(.9177 -.0155 -.0174 .9496 18.045 9.1353)" gradientUnits="userSpaceOnUse">
   <stop id="stop3535" stop-color="#248BEF" offset="0"/>
   <stop id="stop3537" stop-color="#238AEF" offset=".118"/>
   <stop id="stop3539" stop-color="#43A3F4" offset=".5169"/>
   <stop id="stop3541" stop-color="#2F94F1" offset=".6422"/>
   <stop id="stop3543" stop-color="#1E87EE" offset=".7809"/>
   <stop id="stop3545" stop-color="#1C86EE" offset="1"/>
  </linearGradient>
  <linearGradient id="linearGradient13797" x1="121.93" x2="161.94" y1="172.22" y2="158.65" gradientTransform="matrix(.9128 -.0168 -.0185 .9465 19.089 9.7816)" gradientUnits="userSpaceOnUse">
   <stop id="stop3550" stop-color="#248BEF" offset="0"/>
   <stop id="stop3552" stop-color="#238AEF" offset=".118"/>
   <stop id="stop3554" stop-color="#40A0F3" offset=".5169"/>
   <stop id="stop3556" stop-color="#2F94F1" offset=".6318"/>
   <stop id="stop3558" stop-color="#1E87EE" offset=".7809"/>
   <stop id="stop3560" stop-color="#1C86EE" offset="1"/>
  </linearGradient>
  <linearGradient id="linearGradient13799" x1="121.4" x2="158.82" y1="170.34" y2="160.6" gradientTransform="matrix(.9078 -.018 -.0196 .9434 20.132 10.427)" gradientUnits="userSpaceOnUse">
   <stop id="stop3565" stop-color="#258BEF" offset="0"/>
   <stop id="stop3567" stop-color="#248AEF" offset=".118"/>
   <stop id="stop3569" stop-color="#3D9EF3" offset=".5169"/>
   <stop id="stop3571" stop-color="#2F94F1" offset=".6196"/>
   <stop id="stop3573" stop-color="#1E87EE" offset=".7809"/>
   <stop id="stop3575" stop-color="#1C86EE" offset="1"/>
  </linearGradient>
  <linearGradient id="linearGradient13801" x1="120.93" x2="155.63" y1="168.45" y2="162.06" gradientTransform="matrix(.9029 -.0193 -.0207 .9403 21.176 11.074)" gradientUnits="userSpaceOnUse">
   <stop id="stop3580" stop-color="#258BEF" offset="0"/>
   <stop id="stop3582" stop-color="#248AEF" offset=".118"/>
   <stop id="stop3584" stop-color="#3A9CF2" offset=".5169"/>
   <stop id="stop3586" stop-color="#2F94F0" offset=".6049"/>
   <stop id="stop3588" stop-color="#1E87EE" offset=".7809"/>
   <stop id="stop3590" stop-color="#1C86EE" offset="1"/>
  </linearGradient>
  <linearGradient id="linearGradient13803" x1="120.53" x2="152.4" y1="166.55" y2="163.05" gradientTransform="matrix(.8979 -.0206 -.0219 .9372 22.22 11.719)" gradientUnits="userSpaceOnUse">
   <stop id="stop3595" stop-color="#258BEF" offset="0"/>
   <stop id="stop3597" stop-color="#258BEF" offset=".118"/>
   <stop id="stop3599" stop-color="#3799F2" offset=".5169"/>
   <stop id="stop3601" stop-color="#2F94F1" offset=".5869"/>
   <stop id="stop3603" stop-color="#1E88EE" offset=".7809"/>
   <stop id="stop3605" stop-color="#1C86EE" offset="1"/>
  </linearGradient>
  <linearGradient id="linearGradient13805" x1="120.18" x2="149.16" y1="164.63" y2="163.57" gradientTransform="matrix(.8929 -.0219 -.023 .9342 23.265 12.366)" gradientUnits="userSpaceOnUse">
   <stop id="stop3610" stop-color="#268CEF" offset="0"/>
   <stop id="stop3612" stop-color="#258BEF" offset=".118"/>
   <stop id="stop3614" stop-color="#3497F1" offset=".5169"/>
   <stop id="stop3616" stop-color="#2F94F0" offset=".5645"/>
   <stop id="stop3618" stop-color="#1E88EE" offset=".7809"/>
   <stop id="stop3620" stop-color="#1C86EE" offset="1"/>
  </linearGradient>
  <linearGradient id="linearGradient13807" x1="119.87" x2="145.91" y1="162.69" y2="163.62" gradientTransform="matrix(.888 -.0232 -.0241 .9311 24.308 13.012)" gradientUnits="userSpaceOnUse">
   <stop id="stop3625" stop-color="#268CEF" offset="0"/>
   <stop id="stop3627" stop-color="#258BEF" offset=".118"/>
   <stop id="stop3629" stop-color="#3195F1" offset=".5169"/>
   <stop id="stop3631" stop-color="#3095F1" offset=".5239"/>
   <stop id="stop3633" stop-color="#1F88EE" offset=".7809"/>
   <stop id="stop3635" stop-color="#1C86EE" offset="1"/>
  </linearGradient>
  <linearGradient id="linearGradient13809" x1="119.59" x2="142.68" y1="160.71" y2="163.22" gradientTransform="matrix(.883 -.0245 -.0252 .928 25.352 13.658)" gradientUnits="userSpaceOnUse">
   <stop id="stop3640" stop-color="#268CEF" offset="0"/>
   <stop id="stop3642" stop-color="#268BEF" offset=".118"/>
   <stop id="stop3644" stop-color="#2E92F0" offset=".5169"/>
   <stop id="stop3646" stop-color="#1F88EE" offset=".7809"/>
   <stop id="stop3648" stop-color="#1C86EE" offset="1"/>
  </linearGradient>
  <linearGradient id="linearGradient13811" x1="119.34" x2="139.48" y1="158.67" y2="162.36" gradientTransform="matrix(.8781 -.0257 -.0263 .9249 26.396 14.304)" gradientUnits="userSpaceOnUse">
   <stop id="stop3653" stop-color="#278CEF" offset="0"/>
   <stop id="stop3655" stop-color="#268BEF" offset=".118"/>
   <stop id="stop3657" stop-color="#2B90F0" offset=".5169"/>
   <stop id="stop3659" stop-color="#1F88EE" offset=".7809"/>
   <stop id="stop3661" stop-color="#1C86EE" offset="1"/>
  </linearGradient>
  <linearGradient id="linearGradient13813" x1="119.15" x2="136.32" y1="156.58" y2="161.02" gradientTransform="matrix(.8731 -.027 -.0274 .9219 27.44 14.95)" gradientUnits="userSpaceOnUse">
   <stop id="stop3666" stop-color="#278DEF" offset="0"/>
   <stop id="stop3668" stop-color="#268CEF" offset=".118"/>
   <stop id="stop3670" stop-color="#288EEF" offset=".5169"/>
   <stop id="stop3672" stop-color="#1F88EE" offset=".7809"/>
   <stop id="stop3674" stop-color="#1C86EE" offset="1"/>
  </linearGradient>
  <linearGradient id="linearGradient13815" x1="119.01" x2="133.22" y1="154.4" y2="159.21" gradientTransform="matrix(.8682 -.0283 -.0285 .9188 28.485 15.596)" gradientUnits="userSpaceOnUse">
   <stop id="stop3679" stop-color="#288DEF" offset="0"/>
   <stop id="stop3681" stop-color="#278CEF" offset=".118"/>
   <stop id="stop3683" stop-color="#258BEF" offset=".5169"/>
   <stop id="stop3685" stop-color="#1F88EE" offset=".7809"/>
   <stop id="stop3687" stop-color="#1C86EE" offset="1"/>
  </linearGradient>
  <linearGradient id="linearGradient13817" x1="118.95" x2="130.23" y1="152.15" y2="156.89" gradientTransform="matrix(.8632 -.0296 -.0296 .9157 29.528 16.242)" gradientUnits="userSpaceOnUse">
   <stop id="stop3692" stop-color="#288DEF" offset="0"/>
   <stop id="stop3694" stop-color="#1C86EE" offset="1"/>
  </linearGradient>
  <linearGradient id="linearGradient13819" x1="123.5" x2="133.78" y1="153.22" y2="157.55" gradientTransform="matrix(.9353 -.0269 -.0269 .9832 16.726 6.8872)" gradientUnits="userSpaceOnUse">
   <stop id="stop3701" stop-color="#288DEF" offset="0"/>
   <stop id="stop3703" stop-color="#1C86EE" offset="1"/>
  </linearGradient>
  <linearGradient id="linearGradient13821" x1="123.57" x2="135.24" y1="153.08" y2="158.05" gradientTransform="matrix(.9373 -.0258 -.0258 .9833 16.174 6.7037)" gradientUnits="userSpaceOnUse">
   <stop id="stop3708" stop-color="#2F91EF" offset="0"/>
   <stop id="stop3710" stop-color="#2F91EF" offset=".0169"/>
   <stop id="stop3712" stop-color="#2B8FEF" offset=".1966"/>
   <stop id="stop3714" stop-color="#258BEF" offset=".6471"/>
   <stop id="stop3716" stop-color="#1C86EE" offset="1"/>
  </linearGradient>
  <linearGradient id="linearGradient13823" x1="123.65" x2="136.69" y1="152.93" y2="158.56" gradientTransform="matrix(.9393 -.0247 -.0247 .9833 15.622 6.521)" gradientUnits="userSpaceOnUse">
   <stop id="stop3721" stop-color="#3694F0" offset="0"/>
   <stop id="stop3723" stop-color="#3694F0" offset=".0169"/>
   <stop id="stop3725" stop-color="#3092F0" offset=".1966"/>
   <stop id="stop3727" stop-color="#2A8FEF" offset=".5721"/>
   <stop id="stop3729" stop-color="#1C87EE" offset="1"/>
  </linearGradient>
  <linearGradient id="linearGradient13825" x1="123.73" x2="138.11" y1="152.78" y2="159.07" gradientTransform="matrix(.9413 -.0236 -.0236 .9834 15.07 6.3374)" gradientUnits="userSpaceOnUse">
   <stop id="stop3734" stop-color="#3D98F0" offset="0"/>
   <stop id="stop3736" stop-color="#3D98F0" offset=".0169"/>
   <stop id="stop3738" stop-color="#3595F0" offset=".1966"/>
   <stop id="stop3740" stop-color="#2F92F0" offset=".5225"/>
   <stop id="stop3742" stop-color="#1E88EE" offset=".9596"/>
   <stop id="stop3744" stop-color="#1C87EE" offset="1"/>
  </linearGradient>
  <linearGradient id="linearGradient13827" x1="123.8" x2="139.52" y1="152.62" y2="159.58" gradientTransform="matrix(.9433 -.0226 -.0226 .9834 14.517 6.1537)" gradientUnits="userSpaceOnUse">
   <stop id="stop3749" stop-color="#449CF1" offset="0"/>
   <stop id="stop3751" stop-color="#449CF1" offset=".0169"/>
   <stop id="stop3753" stop-color="#3998F1" offset=".1966"/>
   <stop id="stop3755" stop-color="#3394F0" offset=".4933"/>
   <stop id="stop3757" stop-color="#228AEF" offset=".8911"/>
   <stop id="stop3759" stop-color="#1C87EE" offset="1"/>
  </linearGradient>
  <linearGradient id="linearGradient13829" x1="123.88" x2="140.91" y1="152.48" y2="160.11" gradientTransform="matrix(.9453 -.0215 -.0215 .9835 13.964 5.9706)" gradientUnits="userSpaceOnUse">
   <stop id="stop3764" stop-color="#4B9FF1" offset="0"/>
   <stop id="stop3766" stop-color="#4B9FF1" offset=".0169"/>
   <stop id="stop3768" stop-color="#3E9BF1" offset=".1966"/>
   <stop id="stop3770" stop-color="#3897F0" offset=".4648"/>
   <stop id="stop3772" stop-color="#278DEF" offset=".8243"/>
   <stop id="stop3774" stop-color="#1C87EE" offset="1"/>
  </linearGradient>
  <linearGradient id="linearGradient13831" x1="123.96" x2="142.29" y1="152.32" y2="160.64" gradientTransform="matrix(.9472 -.0204 -.0204 .9836 13.412 5.7875)" gradientUnits="userSpaceOnUse">
   <stop id="stop3779" stop-color="#52A3F2" offset="0"/>
   <stop id="stop3781" stop-color="#52A3F2" offset=".0169"/>
   <stop id="stop3783" stop-color="#439DF2" offset=".1966"/>
   <stop id="stop3785" stop-color="#3D9AF1" offset=".4425"/>
   <stop id="stop3787" stop-color="#2C91F0" offset=".772"/>
   <stop id="stop3789" stop-color="#1C88EE" offset="1"/>
  </linearGradient>
  <linearGradient id="linearGradient13833" x1="124.04" x2="143.65" y1="152.17" y2="161.17" gradientTransform="matrix(.9492 -.0193 -.0193 .9836 12.86 5.6043)" gradientUnits="userSpaceOnUse">
   <stop id="stop3794" stop-color="#59A7F2" offset="0"/>
   <stop id="stop3796" stop-color="#59A7F2" offset=".0169"/>
   <stop id="stop3798" stop-color="#48A0F2" offset=".1966"/>
   <stop id="stop3800" stop-color="#429DF1" offset=".4243"/>
   <stop id="stop3802" stop-color="#3193F0" offset=".7295"/>
   <stop id="stop3804" stop-color="#1C88EE" offset="1"/>
  </linearGradient>
  <linearGradient id="linearGradient13835" x1="124.12" x2="144.99" y1="152.01" y2="161.71" gradientTransform="matrix(.9512 -.0182 -.0182 .9837 12.307 5.4207)" gradientUnits="userSpaceOnUse">
   <stop id="stop3809" stop-color="#5FAAF3" offset="0"/>
   <stop id="stop3811" stop-color="#5FAAF3" offset=".0169"/>
   <stop id="stop3813" stop-color="#4DA3F3" offset=".1966"/>
   <stop id="stop3815" stop-color="#47A0F2" offset=".4093"/>
   <stop id="stop3817" stop-color="#3696F1" offset=".695"/>
   <stop id="stop3819" stop-color="#1C88EE" offset="1"/>
  </linearGradient>
  <linearGradient id="linearGradient13837" x1="124.2" x2="146.31" y1="151.85" y2="162.26" gradientTransform="matrix(.9532 -.0171 -.0171 .9838 11.755 5.2376)" gradientUnits="userSpaceOnUse">
   <stop id="stop3824" stop-color="#66AEF3" offset="0"/>
   <stop id="stop3826" stop-color="#66AEF3" offset=".0169"/>
   <stop id="stop3828" stop-color="#52A6F3" offset=".1966"/>
   <stop id="stop3830" stop-color="#4CA3F2" offset=".3966"/>
   <stop id="stop3832" stop-color="#3B9AF1" offset=".6652"/>
   <stop id="stop3834" stop-color="#1F8BEE" offset=".9717"/>
   <stop id="stop3836" stop-color="#1C89EE" offset="1"/>
  </linearGradient>
  <linearGradient id="linearGradient13839" x1="124.29" x2="147.62" y1="151.7" y2="162.81" gradientTransform="matrix(.9552 -.0161 -.0161 .9838 11.202 5.0544)" gradientUnits="userSpaceOnUse">
   <stop id="stop3841" stop-color="#6DB2F4" offset="0"/>
   <stop id="stop3843" stop-color="#6DB2F4" offset=".0169"/>
   <stop id="stop3845" stop-color="#57A9F4" offset=".1966"/>
   <stop id="stop3847" stop-color="#51A6F3" offset=".3857"/>
   <stop id="stop3849" stop-color="#409CF2" offset=".6397"/>
   <stop id="stop3851" stop-color="#248DEF" offset=".9294"/>
   <stop id="stop3853" stop-color="#1C89EE" offset="1"/>
  </linearGradient>
  <linearGradient id="linearGradient13841" x1="124.37" x2="148.91" y1="151.54" y2="163.36" gradientTransform="matrix(.9572 -.015 -.015 .9839 10.65 4.8708)" gradientUnits="userSpaceOnUse">
   <stop id="stop3858" stop-color="#74B5F4" offset="0"/>
   <stop id="stop3860" stop-color="#74B5F4" offset=".0169"/>
   <stop id="stop3862" stop-color="#5CACF4" offset=".1966"/>
   <stop id="stop3864" stop-color="#56A9F3" offset=".3761"/>
   <stop id="stop3866" stop-color="#459FF2" offset=".6173"/>
   <stop id="stop3868" stop-color="#2990EF" offset=".8925"/>
   <stop id="stop3870" stop-color="#1C89EE" offset="1"/>
  </linearGradient>
  <linearGradient id="linearGradient13843" x1="124.45" x2="150.18" y1="151.38" y2="163.92" gradientTransform="matrix(.9592 -.0139 -.0139 .9839 10.098 4.6877)" gradientUnits="userSpaceOnUse">
   <stop id="stop3875" stop-color="#7BB9F4" offset="0"/>
   <stop id="stop3877" stop-color="#7BB9F4" offset=".0169"/>
   <stop id="stop3879" stop-color="#60AFF4" offset=".1966"/>
   <stop id="stop3881" stop-color="#5AACF3" offset=".3694"/>
   <stop id="stop3883" stop-color="#49A2F2" offset=".6015"/>
   <stop id="stop3885" stop-color="#2D92EF" offset=".8663"/>
   <stop id="stop3887" stop-color="#1C89EE" offset="1"/>
  </linearGradient>
  <linearGradient id="linearGradient13845" x1="124.54" x2="151.44" y1="151.22" y2="164.49" gradientTransform="matrix(.9612 -.0128 -.0128 .984 9.5455 4.5045)" gradientUnits="userSpaceOnUse">
   <stop id="stop3892" stop-color="#82BDF5" offset="0"/>
   <stop id="stop3894" stop-color="#82BDF5" offset=".0169"/>
   <stop id="stop3896" stop-color="#65B2F5" offset=".1966"/>
   <stop id="stop3898" stop-color="#5FAFF4" offset=".3618"/>
   <stop id="stop3900" stop-color="#4EA5F3" offset=".5837"/>
   <stop id="stop3902" stop-color="#3296F0" offset=".8368"/>
   <stop id="stop3904" stop-color="#1C8AEE" offset="1"/>
  </linearGradient>
  <linearGradient id="linearGradient13847" x1="124.62" x2="152.68" y1="151.05" y2="165.06" gradientTransform="matrix(.9632 -.0117 -.0117 .9841 8.9927 4.3209)" gradientUnits="userSpaceOnUse">
   <stop id="stop3909" stop-color="#89C0F5" offset="0"/>
   <stop id="stop3911" stop-color="#89C0F5" offset=".0169"/>
   <stop id="stop3913" stop-color="#6AB5F5" offset=".1966"/>
   <stop id="stop3915" stop-color="#64B2F4" offset=".355"/>
   <stop id="stop3917" stop-color="#53A8F3" offset=".5677"/>
   <stop id="stop3919" stop-color="#3799F0" offset=".8103"/>
   <stop id="stop3921" stop-color="#1C8AEE" offset="1"/>
  </linearGradient>
  <linearGradient id="linearGradient13849" x1="124.71" x2="153.91" y1="150.89" y2="165.63" gradientTransform="matrix(.9652 -.0106 -.0106 .9841 8.4403 4.1378)" gradientUnits="userSpaceOnUse">
   <stop id="stop3926" stop-color="#90C4F6" offset="0"/>
   <stop id="stop3928" stop-color="#90C4F6" offset=".0169"/>
   <stop id="stop3930" stop-color="#6FB8F6" offset=".1966"/>
   <stop id="stop3932" stop-color="#69B5F5" offset=".3489"/>
   <stop id="stop3934" stop-color="#58ABF4" offset=".5534"/>
   <stop id="stop3936" stop-color="#3C9CF1" offset=".7867"/>
   <stop id="stop3938" stop-color="#1C8AEE" offset="1"/>
  </linearGradient>
  <linearGradient id="linearGradient13851" x1="124.79" x2="155.12" y1="150.73" y2="166.22" gradientTransform="matrix(.9671 -.0096 -.0096 .9842 7.888 3.9546)" gradientUnits="userSpaceOnUse">
   <stop id="stop3943" stop-color="#97C8F6" offset="0"/>
   <stop id="stop3945" stop-color="#97C8F6" offset=".0169"/>
   <stop id="stop3947" stop-color="#74BAF6" offset=".1966"/>
   <stop id="stop3949" stop-color="#6EB7F5" offset=".3433"/>
   <stop id="stop3951" stop-color="#5DAEF4" offset=".5404"/>
   <stop id="stop3953" stop-color="#419FF1" offset=".7662"/>
   <stop id="stop3955" stop-color="#1C8BEE" offset="1"/>
  </linearGradient>
  <linearGradient id="linearGradient13853" x1="124.88" x2="156.32" y1="150.57" y2="166.8" gradientTransform="matrix(.9691 -.0085 -.0085 .9842 7.3352 3.7715)" gradientUnits="userSpaceOnUse">
   <stop id="stop3960" stop-color="#9ECCF7" offset="0"/>
   <stop id="stop3962" stop-color="#9ECCF7" offset=".0169"/>
   <stop id="stop3964" stop-color="#79BDF7" offset=".1966"/>
   <stop id="stop3966" stop-color="#73BAF6" offset=".3383"/>
   <stop id="stop3968" stop-color="#62B1F5" offset=".5286"/>
   <stop id="stop3970" stop-color="#46A1F2" offset=".7466"/>
   <stop id="stop3972" stop-color="#1F8DEE" offset=".9837"/>
   <stop id="stop3974" stop-color="#1C8BEE" offset="1"/>
  </linearGradient>
  <linearGradient id="linearGradient13855" x1="124.97" x2="157.5" y1="150.4" y2="167.39" gradientTransform="matrix(.9711 -.0074 -.0074 .9843 6.7829 3.5878)" gradientUnits="userSpaceOnUse">
   <stop id="stop3979" stop-color="#A5CFF7" offset="0"/>
   <stop id="stop3981" stop-color="#A5CFF7" offset=".0169"/>
   <stop id="stop3983" stop-color="#7EC0F7" offset=".1966"/>
   <stop id="stop3985" stop-color="#78BDF6" offset=".3337"/>
   <stop id="stop3987" stop-color="#67B3F5" offset=".5178"/>
   <stop id="stop3989" stop-color="#4BA4F2" offset=".7287"/>
   <stop id="stop3991" stop-color="#248FEF" offset=".958"/>
   <stop id="stop3993" stop-color="#1C8BEE" offset="1"/>
  </linearGradient>
  <linearGradient id="linearGradient13857" x1="125.05" x2="158.67" y1="150.23" y2="167.98" gradientTransform="matrix(.9731 -.0063 -.0063 .9844 6.2306 3.4052)" gradientUnits="userSpaceOnUse">
   <stop id="stop3998" stop-color="#ACD3F8" offset="0"/>
   <stop id="stop4000" stop-color="#ACD3F8" offset=".0169"/>
   <stop id="stop4002" stop-color="#83C3F8" offset=".1966"/>
   <stop id="stop4004" stop-color="#7DC0F7" offset=".3294"/>
   <stop id="stop4006" stop-color="#6CB7F6" offset=".5078"/>
   <stop id="stop4008" stop-color="#50A8F3" offset=".7122"/>
   <stop id="stop4010" stop-color="#2993EF" offset=".9344"/>
   <stop id="stop4012" stop-color="#1C8CEE" offset="1"/>
  </linearGradient>
  <linearGradient id="linearGradient13859" x1="125.14" x2="159.83" y1="150.07" y2="168.58" gradientTransform="matrix(.9751 -.0052 -.0052 .9844 5.6782 3.2215)" gradientUnits="userSpaceOnUse">
   <stop id="stop4017" stop-color="#B3D7F8" offset="0"/>
   <stop id="stop4019" stop-color="#B3D7F8" offset=".0169"/>
   <stop id="stop4021" stop-color="#87C6F8" offset=".1966"/>
   <stop id="stop4023" stop-color="#81C3F7" offset=".3262"/>
   <stop id="stop4025" stop-color="#70B9F6" offset=".5004"/>
   <stop id="stop4027" stop-color="#54AAF3" offset=".6998"/>
   <stop id="stop4029" stop-color="#2D95F0" offset=".9166"/>
   <stop id="stop4031" stop-color="#1C8CEE" offset="1"/>
  </linearGradient>
  <linearGradient id="linearGradient13861" x1="125.23" x2="160.96" y1="149.9" y2="169.19" gradientTransform="matrix(.9771 -.0041 -.0041 .9845 5.1254 3.0379)" gradientUnits="userSpaceOnUse">
   <stop id="stop4036" stop-color="#BADAF8" offset="0"/>
   <stop id="stop4038" stop-color="#BADAF8" offset=".0169"/>
   <stop id="stop4040" stop-color="#8CC9F8" offset=".1966"/>
   <stop id="stop4042" stop-color="#86C6F7" offset=".3225"/>
   <stop id="stop4044" stop-color="#75BCF6" offset=".4917"/>
   <stop id="stop4046" stop-color="#59ADF3" offset=".6855"/>
   <stop id="stop4048" stop-color="#3298F0" offset=".896"/>
   <stop id="stop4050" stop-color="#1C8CEE" offset="1"/>
  </linearGradient>
  <linearGradient id="linearGradient13863" x1="125.32" x2="162.09" y1="149.73" y2="169.8" gradientTransform="matrix(.9791 -.0031 -.0031 .9845 4.5731 2.8548)" gradientUnits="userSpaceOnUse">
   <stop id="stop4055" stop-color="#C1DEF9" offset="0"/>
   <stop id="stop4057" stop-color="#C1DEF9" offset=".0169"/>
   <stop id="stop4059" stop-color="#91CCF9" offset=".1966"/>
   <stop id="stop4061" stop-color="#8BC9F8" offset=".3191"/>
   <stop id="stop4063" stop-color="#7ABFF7" offset=".4836"/>
   <stop id="stop4065" stop-color="#5EB0F4" offset=".6721"/>
   <stop id="stop4067" stop-color="#379BF1" offset=".877"/>
   <stop id="stop4069" stop-color="#1C8CEE" offset="1"/>
  </linearGradient>
  <linearGradient id="linearGradient13865" x1="125.42" x2="163.2" y1="149.56" y2="170.41" gradientTransform="matrix(.9811 -.002 -.002 .9846 4.0208 2.6716)" gradientUnits="userSpaceOnUse">
   <stop id="stop4074" stop-color="#C8E2F9" offset="0"/>
   <stop id="stop4076" stop-color="#C8E2F9" offset=".0169"/>
   <stop id="stop4078" stop-color="#96CFF9" offset=".1966"/>
   <stop id="stop4080" stop-color="#90CCF8" offset=".3158"/>
   <stop id="stop4082" stop-color="#7FC2F7" offset=".4761"/>
   <stop id="stop4084" stop-color="#63B3F4" offset=".6597"/>
   <stop id="stop4086" stop-color="#3C9EF1" offset=".8591"/>
   <stop id="stop4088" stop-color="#1C8DEE" offset="1"/>
  </linearGradient>
  <linearGradient id="linearGradient13867" x1="125.51" x2="164.3" y1="149.39" y2="171.03" gradientTransform="matrix(.9831 -.00088709 -.00088709 .9847 3.4679 2.4885)" gradientUnits="userSpaceOnUse">
   <stop id="stop4093" stop-color="#CEE5FA" offset="0"/>
   <stop id="stop4095" stop-color="#CEE5FA" offset=".0169"/>
   <stop id="stop4097" stop-color="#9BD2FA" offset=".1966"/>
   <stop id="stop4099" stop-color="#95CFF9" offset=".3129"/>
   <stop id="stop4101" stop-color="#84C5F8" offset=".4691"/>
   <stop id="stop4103" stop-color="#68B6F5" offset=".6481"/>
   <stop id="stop4105" stop-color="#41A1F1" offset=".8425"/>
   <stop id="stop4107" stop-color="#1C8DEE" offset="1"/>
  </linearGradient>
  <linearGradient id="linearGradient13869" x1="125.6" x2="165.38" y1="149.21" y2="171.65" gradientTransform="matrix(.9851 .00019678 .00019678 .9847 2.9156 2.3048)" gradientUnits="userSpaceOnUse">
   <stop id="stop4112" stop-color="#D5E9FA" offset="0"/>
   <stop id="stop4114" stop-color="#D5E9FA" offset=".0169"/>
   <stop id="stop4116" stop-color="#A0D5FA" offset=".1966"/>
   <stop id="stop4118" stop-color="#9AD2F9" offset=".31"/>
   <stop id="stop4120" stop-color="#89C8F8" offset=".4625"/>
   <stop id="stop4122" stop-color="#6DB9F5" offset=".6372"/>
   <stop id="stop4124" stop-color="#46A4F2" offset=".8269"/>
   <stop id="stop4126" stop-color="#1C8DEE" offset="1"/>
  </linearGradient>
  <linearGradient id="linearGradient13871" x1="125.69" x2="166.46" y1="149.04" y2="172.27" gradientTransform="matrix(.987 .0013 .0013 .9848 2.3638 2.1222)" gradientUnits="userSpaceOnUse">
   <stop id="stop4131" stop-color="#DCEDFB" offset="0"/>
   <stop id="stop4133" stop-color="#DCEDFB" offset=".0169"/>
   <stop id="stop4135" stop-color="#A5D7FB" offset=".1966"/>
   <stop id="stop4137" stop-color="#9FD4FA" offset=".3074"/>
   <stop id="stop4139" stop-color="#8ECBF9" offset=".4564"/>
   <stop id="stop4141" stop-color="#72BCF6" offset=".627"/>
   <stop id="stop4143" stop-color="#4BA7F2" offset=".8135"/>
   <stop id="stop4145" stop-color="#1C8EEE" offset="1"/>
  </linearGradient>
  <linearGradient id="linearGradient13873" x1="125.79" x2="167.52" y1="148.87" y2="172.91" gradientTransform="matrix(.989 .0024 .0024 .9849 1.8114 1.9385)" gradientUnits="userSpaceOnUse">
   <stop id="stop4150" stop-color="#E3F0FB" offset="0"/>
   <stop id="stop4152" stop-color="#E3F0FB" offset=".0169"/>
   <stop id="stop4154" stop-color="#AADAFB" offset=".1966"/>
   <stop id="stop4156" stop-color="#A4D7FA" offset=".3049"/>
   <stop id="stop4158" stop-color="#93CEF9" offset=".4505"/>
   <stop id="stop4160" stop-color="#77BFF6" offset=".6173"/>
   <stop id="stop4162" stop-color="#50AAF3" offset=".7999"/>
   <stop id="stop4164" stop-color="#1E8FEE" offset=".9933"/>
   <stop id="stop4166" stop-color="#1C8EEE" offset="1"/>
  </linearGradient>
  <linearGradient id="linearGradient13875" x1="125.88" x2="168.56" y1="148.69" y2="173.54" gradientTransform="matrix(.991 .0034 .0034 .9849 1.2586 1.7549)" gradientUnits="userSpaceOnUse">
   <stop id="stop4171" stop-color="#EAF4FC" offset="0"/>
   <stop id="stop4173" stop-color="#EAF4FC" offset=".0169"/>
   <stop id="stop4175" stop-color="#AEDDFC" offset=".1966"/>
   <stop id="stop4177" stop-color="#A8DAFB" offset=".303"/>
   <stop id="stop4179" stop-color="#97D0FA" offset=".446"/>
   <stop id="stop4181" stop-color="#7BC1F7" offset=".6099"/>
   <stop id="stop4183" stop-color="#54ACF3" offset=".7893"/>
   <stop id="stop4185" stop-color="#2291EF" offset=".9793"/>
   <stop id="stop4187" stop-color="#1C8EEE" offset="1"/>
  </linearGradient>
  <linearGradient id="linearGradient13877" x1="125.98" x2="169.59" y1="148.52" y2="174.18" gradientTransform="matrix(.993 .0045 .0045 .985 .7063 1.5718)" gradientUnits="userSpaceOnUse">
   <stop id="stop4192" stop-color="#F1F8FC" offset="0"/>
   <stop id="stop4194" stop-color="#F1F8FC" offset=".0169"/>
   <stop id="stop4196" stop-color="#B3E0FC" offset=".1966"/>
   <stop id="stop4198" stop-color="#ADDDFB" offset=".3008"/>
   <stop id="stop4200" stop-color="#9CD3FA" offset=".4408"/>
   <stop id="stop4202" stop-color="#80C4F7" offset=".6013"/>
   <stop id="stop4204" stop-color="#59AFF4" offset=".7769"/>
   <stop id="stop4206" stop-color="#2794EF" offset=".9628"/>
   <stop id="stop4208" stop-color="#1C8EEE" offset="1"/>
  </linearGradient>
  <linearGradient id="linearGradient13879" x1="126.08" x2="170.62" y1="148.34" y2="174.82" gradientTransform="matrix(.995 .0056 .0056 .985 .154 1.3886)" gradientUnits="userSpaceOnUse">
   <stop id="stop4213" stop-color="#F8FBFD" offset="0"/>
   <stop id="stop4215" stop-color="#F8FBFD" offset=".0169"/>
   <stop id="stop4217" stop-color="#B8E3FD" offset=".1966"/>
   <stop id="stop4219" stop-color="#B2E0FC" offset=".2987"/>
   <stop id="stop4221" stop-color="#A1D7FB" offset=".4358"/>
   <stop id="stop4223" stop-color="#85C7F8" offset=".593"/>
   <stop id="stop4225" stop-color="#5EB2F4" offset=".765"/>
   <stop id="stop4227" stop-color="#2C98F0" offset=".9471"/>
   <stop id="stop4229" stop-color="#1C8FEE" offset="1"/>
  </linearGradient>
  <linearGradient id="linearGradient13881" x1="126.18" x2="171.62" y1="148.17" y2="175.47" gradientTransform="matrix(.997 .0067 .0067 .9851 -.3988 1.2055)" gradientUnits="userSpaceOnUse">
   <stop id="stop4234" stop-color="#FFFFFD" offset=".0169"/>
   <stop id="stop4236" stop-color="#BDE6FD" offset=".1966"/>
   <stop id="stop4238" stop-color="#B7E3FC" offset=".2966"/>
   <stop id="stop4240" stop-color="#A6D9FB" offset=".4311"/>
   <stop id="stop4242" stop-color="#8ACAF8" offset=".5851"/>
   <stop id="stop4244" stop-color="#63B5F5" offset=".7538"/>
   <stop id="stop4246" stop-color="#319AF0" offset=".9323"/>
   <stop id="stop4248" stop-color="#1C8FEE" offset="1"/>
  </linearGradient>
  <linearGradient id="linearGradient13883" x1="164.95" x2="149.61" y1="202.22" y2="161.94" gradientTransform="matrix(1 .0046 -.0046 1 1.194 -1.0432)" gradientUnits="userSpaceOnUse">
   <stop id="stop4253" stop-color="#fff" offset=".0169"/>
   <stop id="stop4255" stop-color="#FFF8D8" offset=".0405"/>
   <stop id="stop4257" stop-color="#FFF0AB" offset=".0716"/>
   <stop id="stop4259" stop-color="#FFE982" offset=".1058"/>
   <stop id="stop4261" stop-color="#FFE35F" offset=".1424"/>
   <stop id="stop4263" stop-color="#FFDD41" offset=".182"/>
   <stop id="stop4265" stop-color="#FFD929" offset=".2257"/>
   <stop id="stop4267" stop-color="#FFD617" offset=".2749"/>
   <stop id="stop4269" stop-color="#FFD40A" offset=".3331"/>
   <stop id="stop4271" stop-color="#FFD202" offset=".4089"/>
   <stop id="stop4273" stop-color="#FFD200" offset=".5674"/>
   <stop id="stop4275" stop-color="#FF8B00" offset="1"/>
  </linearGradient>
  <linearGradient id="linearGradient13885" x1="157.24" x2="154.03" y1="146.53" y2="160.33" gradientTransform="matrix(1 .0046 -.0046 1 1.194 -1.0432)" gradientUnits="userSpaceOnUse">
   <stop id="stop4284" stop-color="#fff" offset="0"/>
   <stop id="stop4286" stop-color="#FFFFFD" offset=".4169"/>
   <stop id="stop4288" stop-color="#FFFFF5" offset=".6466"/>
   <stop id="stop4290" stop-color="#FFFFE7" offset=".8302"/>
   <stop id="stop4292" stop-color="#FFFFD4" offset=".9894"/>
   <stop id="stop4294" stop-color="#FFFFD2" offset="1"/>
  </linearGradient>
  <linearGradient id="linearGradient13887" x1="174.78" x2="142.95" y1="143.79" y2="191.54" gradientTransform="matrix(1 .0046 -.0046 1 1.194 -1.0432)" gradientUnits="userSpaceOnUse">
   <stop id="stop4299" stop-color="#1C86EE" offset=".0056"/>
   <stop id="stop4301" stop-color="#FCFFFC" offset=".3764"/>
   <stop id="stop4303" stop-color="#F0F9FB" offset=".437"/>
   <stop id="stop4305" stop-color="#D0E7F9" offset=".5465"/>
   <stop id="stop4307" stop-color="#9DCCF6" offset=".6924"/>
   <stop id="stop4309" stop-color="#56A6F2" offset=".8669"/>
   <stop id="stop4311" stop-color="#1C86EE" offset="1"/>
  </linearGradient>
  <linearGradient id="linearGradient13889" x1="187.45" x2="164.26" y1="142.13" y2="156.72" gradientTransform="matrix(1 .0046 -.0046 1 1.194 -1.0432)" gradientUnits="userSpaceOnUse">
   <stop id="stop4316" stop-color="#CDF0FC" offset="0"/>
   <stop id="stop4318" stop-color="#C1E9FB" offset=".0783"/>
   <stop id="stop4320" stop-color="#A1D6F9" offset=".2197"/>
   <stop id="stop4322" stop-color="#6EB7F4" offset=".408"/>
   <stop id="stop4324" stop-color="#278DEF" offset=".6339"/>
   <stop id="stop4326" stop-color="#1C86EE" offset=".6685"/>
  </linearGradient>
 </defs>
 <metadata id="metadata2413">
  <rdf:RDF>
   <cc:Work rdf:about="">
    <dc:format>image/svg+xml</dc:format>
    <dc:type rdf:resource="http://purl.org/dc/dcmitype/StillImage"/>
    <dc:title/>
   </cc:Work>
  </rdf:RDF>
 </metadata>
 <g id="layer2" display="none">
  <rect id="rect3745" x="5" y="7" width="86" height="85" rx="6" ry="6" fill="url(#ButtonShadow)" filter="url(#filter3174)" opacity=".9"/>
 </g>
 <g id="layer3">
  <path id="path3786" transform="scale(1,-1)" d="m12-95.031c-5.5111 0-10.031 4.5202-10.031 10.031v71c0 5.5111 4.5202 10.031 10.031 10.031h72c5.5111 0 10.031-4.5202 10.031-10.031v-71c0-5.5111-4.5202-10.031-10.031-10.031h-72z" fill="url(#linearGradient3780)" opacity=".08"/>
  <path id="path3778" transform="scale(1,-1)" d="m12-94.031c-4.9716 0-9.0312 4.0596-9.0312 9.0312v71c0 4.9716 4.0596 9.0312 9.0312 9.0312h72c4.9716 0 9.0312-4.0596 9.0312-9.0312v-71c0-4.9716-4.0596-9.0312-9.0312-9.0312h-72z" fill="url(#linearGradient3780)" opacity=".1"/>
  <path id="path3770" transform="scale(1,-1)" d="m12-93c-4.4091 0-8 3.5909-8 8v71c0 4.4091 3.5909 8 8 8h72c4.4091 0 8-3.5909 8-8v-71c0-4.4091-3.5909-8-8-8h-72z" fill="url(#linearGradient3780)" opacity=".2"/>
  <rect id="rect3723" transform="scale(1,-1)" x="5" y="-92" width="86" height="85" rx="7" ry="7" fill="url(#linearGradient3780)" opacity=".3"/>
  <rect id="rect3716" transform="scale(1,-1)" x="6" y="-91" width="84" height="84" rx="6" ry="6" fill="url(#linearGradient3721)" opacity=".45"/>
 </g>
 <g id="layer1">
  <rect id="rect2419-5" transform="scale(1,-1)" x="6" y="-90" width="84" height="84" rx="6" ry="6" fill="url(#linearGradient3133)"/>
  <path id="rect3728" d="m12 6c-3.324 0-6 2.676-6 6v2 68 2c0 0.33472 0.04135 0.6507 0.09375 0.96875 0.0487 0.2956 0.09704 0.59692 0.1875 0.875 0.00988 0.03038 0.020892 0.0636 0.03125 0.09375 0.098865 0.28777 0.23488 0.54745 0.375 0.8125 0.14459 0.27351 0.31562 0.53562 0.5 0.78125s0.37378 0.47347 0.59375 0.6875c0.43995 0.42806 0.94291 0.81453 1.5 1.0938 0.27854 0.13961 0.57347 0.24695 0.875 0.34375-0.2562-0.10022-0.48671-0.23627-0.71875-0.375-0.00741-0.0044-0.023866 0.0045-0.03125 0-0.031933-0.0193-0.062293-0.04251-0.09375-0.0625-0.1204-0.0767-0.23102-0.16351-0.34375-0.25-0.10617-0.0808-0.21328-0.16111-0.3125-0.25-0.17793-0.16143-0.34746-0.34539-0.5-0.53125-0.10758-0.13026-0.21839-0.26528-0.3125-0.40625-0.025089-0.03838-0.038446-0.08587-0.0625-0.125-0.064763-0.10303-0.13023-0.20452-0.1875-0.3125-0.10101-0.19471-0.20567-0.4157-0.28125-0.625-0.00796-0.02181-0.023589-0.04055-0.03125-0.0625-0.031825-0.09195-0.035804-0.18683-0.0625-0.28125-0.030332-0.10662-0.070389-0.20303-0.09375-0.3125-0.072879-0.34151-0.125-0.6982-0.125-1.0625v-2-68-2c0-2.7818 2.2182-5 5-5h2 68 2c2.7818 0 5 2.2182 5 5v2 68 2c0 0.3643-0.05212 0.72099-0.125 1.0625-0.04415 0.20689-0.08838 0.39766-0.15625 0.59375-0.0077 0.02195-0.0233 0.04069-0.03125 0.0625-0.06274 0.17374-0.13838 0.36745-0.21875 0.53125-0.04158 0.0828-0.07904 0.16995-0.125 0.25-0.0546 0.09721-0.12677 0.18835-0.1875 0.28125-0.09411 0.14096-0.20492 0.276-0.3125 0.40625-0.14317 0.17445-0.30314 0.347-0.46875 0.5-0.01117 0.0102-0.01998 0.02115-0.03125 0.03125-0.13839 0.12556-0.28509 0.23444-0.4375 0.34375-0.10257 0.07315-0.20432 0.15336-0.3125 0.21875-0.0074 0.0045-0.02384-0.0044-0.03125 0-0.23204 0.13873-0.46255 0.27478-0.71875 0.375 0.30153-0.0968 0.59646-0.20414 0.875-0.34375 0.55709-0.27922 1.0601-0.66569 1.5-1.0938 0.21997-0.21403 0.40937-0.44186 0.59375-0.6875s0.35541-0.50774 0.5-0.78125c0.14012-0.26505 0.27614-0.52473 0.375-0.8125 0.01041-0.03078 0.02133-0.06274 0.03125-0.09375 0.09046-0.27808 0.1388-0.5794 0.1875-0.875 0.0524-0.31805 0.09375-0.63403 0.09375-0.96875v-2-68-2c0-3.324-2.676-6-6-6h-72z" fill="url(#linearGradient3188)" opacity=".5"/>
  <path id="path3615" d="m12 90c-3.324 0-6-2.676-6-6v-2-68-2c0-0.33472 0.04135-0.6507 0.09375-0.96875 0.0487-0.2956 0.09704-0.59692 0.1875-0.875 0.00988-0.03038 0.020892-0.0636 0.03125-0.09375 0.098865-0.28777 0.23488-0.54745 0.375-0.8125 0.14459-0.27351 0.31562-0.53562 0.5-0.78125s0.37378-0.47347 0.59375-0.6875c0.43995-0.42806 0.94291-0.81453 1.5-1.0938 0.27854-0.13961 0.57347-0.24695 0.875-0.34375-0.2562 0.10022-0.48671 0.23627-0.71875 0.375-0.00741 0.0044-0.023866-0.0045-0.03125 0-0.031933 0.0193-0.062293 0.04251-0.09375 0.0625-0.1204 0.0767-0.23102 0.16351-0.34375 0.25-0.10617 0.0808-0.21328 0.16111-0.3125 0.25-0.17793 0.16143-0.34746 0.34539-0.5 0.53125-0.10758 0.13026-0.21839 0.26528-0.3125 0.40625-0.025089 0.03838-0.038446 0.08587-0.0625 0.125-0.064763 0.10303-0.13023 0.20452-0.1875 0.3125-0.10101 0.19471-0.20567 0.4157-0.28125 0.625-0.00796 0.02181-0.023589 0.04055-0.03125 0.0625-0.031825 0.09195-0.035804 0.18683-0.0625 0.28125-0.030332 0.10662-0.070389 0.20303-0.09375 0.3125-0.072879 0.34151-0.125 0.6982-0.125 1.0625v2 68 2c0 2.7818 2.2182 5 5 5h2 68 2c2.7818 0 5-2.2182 5-5v-2-68-2c0-0.3643-0.05212-0.72099-0.125-1.0625-0.04415-0.20689-0.08838-0.39766-0.15625-0.59375-0.0077-0.02195-0.0233-0.04069-0.03125-0.0625-0.06274-0.17374-0.13838-0.36745-0.21875-0.53125-0.04158-0.0828-0.07904-0.16995-0.125-0.25-0.0546-0.09721-0.12677-0.18835-0.1875-0.28125-0.09411-0.14096-0.20492-0.276-0.3125-0.40625-0.14317-0.17445-0.30314-0.347-0.46875-0.5-0.01117-0.0102-0.01998-0.02115-0.03125-0.03125-0.13839-0.12556-0.28509-0.23444-0.4375-0.34375-0.10257-0.07315-0.20432-0.15336-0.3125-0.21875-0.0074-0.0045-0.02384 0.0044-0.03125 0-0.23204-0.13873-0.46255-0.27478-0.71875-0.375 0.30153 0.0968 0.59646 0.20414 0.875 0.34375 0.55709 0.27922 1.0601 0.66569 1.5 1.0938 0.21997 0.21403 0.40937 0.44186 0.59375 0.6875s0.35541 0.50774 0.5 0.78125c0.14012 0.26505 0.27614 0.52473 0.375 0.8125 0.01041 0.03078 0.02133 0.06274 0.03125 0.09375 0.09046 0.27808 0.1388 0.5794 0.1875 0.875 0.0524 0.31805 0.09375 0.63403 0.09375 0.96875v2 68 2c0 3.324-2.676 6-6 6h-72z" fill="url(#radialGradient3619)" opacity=".25"/>
  <path id="path4141" d="M 20.875,6 46.65625,46.65625 6,20.5 6,39 46.21875,48 6,56.75 6,75.125 46.65625,49.34375 20.5,90 39,90 48,49.78125 56.75,90 75.125,90 49.34375,49.34375 90,75.5 90,57 49.78125,48 90,39.25 90,20.875 49.34375,46.65625 75.5,6 57,6 48,46.21875 39.25,6 20.875,6 z" fill="url(#linearGradient3146)" opacity=".45"/>
 </g>
 <g id="layer5">
  <rect id="rect3171" x="15" y="15" width="66" height="66" rx="12" ry="12" clip-path="url(#clipPath3613)" fill="url(#linearGradient3613)" filter="url(#filter3794)" opacity=".1" stroke="#fff" stroke-linecap="round" stroke-width=".5"/>
 </g>
 <g id="layer4">
  <path id="path7539" d="m53.812 10.812c-5.3716 0.39064-10.681 2.3587-14.562 6.375-0.01065 0.0105-0.02063 0.02074-0.03125 0.03125-6.9483 6.8751-8.5538 16.613-11.281 25a1.1749 1.1749 0 0 0-0.03125 0.15625c-0.07383 0.36857-0.11074 0.34627-0.375 0.46875s-0.8098 0.24147-1.4688 0.28125c-1.1761 0.07101-2.7283 0.01843-4.0938 0.84375v-0.03125c-2.1979 0.49668-4.3046 1.7928-5.8125 3.5625-1.4811 1.7382-2.3855 4.0319-1.9062 6.4062 1e-3 0.01016-0.0011 0.0211 0 0.03125 0.0067 0.03229-0.0072 0.06142 0 0.09375h0.03125c0.46275 3.8696 4.0304 6.6438 7.8125 6.5312-0.52281 1.6091-0.97585 3.2046-1.6562 4.5625-0.89477 0.66944-2.1654 1.087-3.5938 1.6562-1.4691 0.58544-3.0863 1.4991-4 3.3125l-0.03125-0.03125c-0.02622 0.04059-0.03726 0.08412-0.0625 0.125-2.7284 4.4194 0.25364 10.431 5.2812 11.25 0.1333 0.06581 0.27203 0.04778 0.40625 0.09375 0.87626 0.3001 1.7678 0.26523 2.5312 0.09375 0.8804-0.19775 1.6823-0.50896 2.2812-0.6875 0.49065-0.14627 0.58242-0.11313 0.5625-0.15625 0.02184 0.13081 0.07101 0.31765 0.03125 0.71875a1.1749 1.1749 0 0 0 0.03125 0.4375c1.1271 3.8887 5.4904 6.2999 9.3438 4.9375v0.03125c0.05576-0.01245 0.10086-0.0492 0.15625-0.0625 3.2139-0.77169 5.8292-2.9599 8.0312-4.875 4.0759-3.6659 5.882-8.81 7.4375-13.5a1.1749 1.1749 0 0 0 0.0625-0.34375c2e-3 -0.0594-0.0043-0.04503 0-0.09375 0.0269 0.0086 6.54e-4 -0.01175 0.03125 0 0.70643 0.27124 1.9717 1.1006 3.5312 0.6875v0.03125c0.07034-0.01018 0.11888-0.0211 0.1875-0.03125 0.01111-0.0016 0.02019 0.0016 0.03125 0 1.4505-0.21554 2.577-0.45249 3.6562-1.1562 2.359-1.5681 3.5201-4.3825 3.25-7.1562 6.4066 0.59588 12.495-2.8167 16.625-7.2188a1.1749 1.1749 0 0 0 0.03125 0c8.6107-9.2551 11.166-24.736 3.2812-35.312-0.86885-1.1971-2.5804-3.1353-4.4062-4.1562l0.03125-0.03125c-0.04929-0.0321-0.04708-0.0013-0.09375-0.03125-1.1687-0.74966-1.6132-0.87939-2.125-1.1875a1.1749 1.1749 0 0 0-0.125-0.09375c-1.6102-0.68236-3.4531-1.2321-5.3438-1.4375-0.02341-0.0025-0.03907-0.02883-0.0625-0.03125-1.5942-0.24921-3.075-0.0309-4.4062 0.125-1.3501 0.15811-2.5378 0.2487-3.6562-0.0625a1.1749 1.1749 0 0 0-0.1875-0.03125c-1.7596-0.20454-3.545-0.25581-5.3438-0.125z" fill="#f60" opacity=".08"/>
  <path id="path7533" d="m67.281 12.062c-2.7803-0.45739-5.4858 0.7943-8.2349 0.02939-6.7738-0.7874-14.132 0.88468-18.991 5.9366-6.6375 6.5437-8.2237 16.052-10.994 24.57-0.55138 2.7525-4.9494 0.92522-6.8413 2.4939-3.8322 0.86598-7.7 4.7134-6.8136 8.6891 0.38808 3.8579 4.7004 6.793 8.4062 5.4688-0.93554 2.2835-1.2925 4.5387-2.4324 6.6812-2.3086 1.9022-6.1318 1.6793-7.5825 4.7478-2.441 3.7795 0.32722 9.2561 4.7568 9.7026 2.5642 1.2659 6.8868-3.189 6.4467 1.2501 0.94103 3.2466 4.7941 5.3293 7.9677 4.1183 2.9138-0.65045 5.4204-2.7366 7.6425-4.6691 3.7923-3.4108 5.5467-8.3039 7.0964-12.977 0.10578-3.1007 2.7179 0.16421 4.6107-0.49535 1.5564-0.22529 2.4429-0.3985 3.3791-1.009 2.3468-1.56 3.4302-4.7105 2.5526-7.4126 6.4167 1.2984 12.85-2.2616 17.125-6.8181 8.2417-8.8585 10.695-23.777 3.2183-33.807-0.77492-1.0676-2.5863-3.0515-4.0853-3.8674-1.2256-0.79815-1.5249-0.84124-2.1647-1.2264-1.5597-0.66099-3.316-1.2257-5.0625-1.4062zm-5.6875 0.375c0.04061 0.11834-0.34905 0.0535 0 0zm17.156 6.625c0.19541 0.13227-0.35949 1.1132 0 0zm-52.688 59.75c0.11132-0.02201-0.11938 0.08035 0 0z" fill="#f60" opacity=".15"/>
  <path id="path7529" d="m67.188 13.156c-1.6143-0.17615-3.3516-0.08699-5.0938 0.28125-0.11344 0.02398-0.1173 0.05004-0.15625 0.0625h-0.03125l-0.875-0.0625h-0.03125a0.99123 0.99123 0 0 0-0.0625 0 0.99123 0.99123 0 0 0-0.03125 0c-0.64081-0.10266-1.2611-0.20066-1.8438-0.25v0.03125c-4.1631-0.50538-9.0986-0.24626-13.688 2.2188-4.5997 2.4708-8.7781 7.1421-11.469 15.125-0.44652 1.326-1.5046 4.8019-2.8438 9.2188l-1.5 5c-5.1257 0.43551-9.0277 1.5826-11.344 3.7812-0.0064 0.0055 0.0063 0.02569 0 0.03125-0.0048 0.0042-0.02644-0.0043-0.03125 0-1.0862 0.96245-1.7393 2.3114-1.8125 3.75-0.02087 0.41816 0.05644 0.81566 0.125 1.1875h-0.03125c0.0037 0.03362 0.02692 0.06032 0.03125 0.09375 0.34042 2.6279 2.5476 4.6899 5.2188 4.8438 1.4339 0.08405 2.79-0.46902 3.875-1.375a0.99123 0.99123 0 0 0 0.15625-0.0625l-0.3125 0.90625c-8.67e-4 -2.33e-4 -0.03123-5.1e-5 -0.03125 0-0.0032 0.0094-0.02512 0.04447-0.03125 0.0625-0.01226 0.03606-0.0083 0.08862-0.03125 0.15625-0.04596 0.13527-0.10846 0.3298-0.1875 0.5625-0.15807 0.4654-0.38262 1.0658-0.59375 1.6875-0.42226 1.2434-0.84375 2.5-0.84375 2.5a0.99123 0.99123 0 0 0 0 0.03125l-0.125 0.4375-0.03125 0.09375-0.03125 0.0625 0.90625 0.375 0.9375 0.34375c-0.0038 0.0098-0.06254 0.12507-0.0625 0.125l-0.03125 0.0625-0.0625 0.09375-0.78125-0.625-0.96875-0.125v-0.03125l-0.34375 0.96875c-0.30295 0.88409-0.41908 1.1463-0.4375 1.1875-0.23467 0.50628-0.63027 0.9674-1.125 1.3438-0.50659 0.36847-1.2211 0.72635-2.1562 1l-0.34375 0.09375c-1.0005 0.27313-2.8466 0.78066-4.0625 2.5-1.4099 2.0022-1.312 4.7102 0.28125 6.5625 1.4196 1.6569 3.6954 2.3143 6 1.8438 1.3062-0.26549 2.6587-0.74043 4-1.3125 0.04095-0.01747 0.08404-0.01353 0.125-0.03125 0.01191-0.0024 0.03124 4e-6 0.03125 0 0.02202-0.0096 0.04048-0.02162 0.0625-0.03125 0.01901-0.0062 0.02505 0.0023 0.03125 0 0.0124-0.0045 0.02597 2e-3 0.03125 0 0.01056-0.0041 0.02226-0.02768 0.03125-0.03125 0.01797-0.0071 0.01105-0.02311 0.03125-0.03125 0.04041-0.01629 0.09375-0.03125 0.09375-0.03125a0.99123 0.99123 0 0 0 0.03125 0c0.18611-0.082 0.39741-0.19072 0.59375-0.28125-0.20428 0.49038-0.53946 0.93159-0.59375 1.4688-0.14757 1.4677 0.28454 2.923 1.2188 4.0625 0.92114 1.1224 2.2543 1.8298 3.6875 1.9688 0.72646 0.07505 1.425-0.15593 2.125-0.375 0.02999-0.0094 0.0639 0.0099 0.09375 0a0.99123 0.99123 0 0 0 0.5625-0.0625c2.9168-1.3 5.4141-3.0754 7.4062-5.25a0.99123 0.99123 0 0 0 0.03125 0c0.94457-1.0625 1.7367-2.2446 2.4688-3.5 0.01798-0.02537 0.04526-0.03724 0.0625-0.0625a0.99123 0.99123 0 0 0 0.09375-0.1875 0.99123 0.99123 0 0 0 0.03125-0.09375c0.06627-0.10959 0.16165-0.2065 0.21875-0.3125 0.7298-1.3493 1.3353-2.7804 1.8125-4.2812a0.99123 0.99123 0 0 0 0-0.03125l0.09375-0.34375c0.01246-0.01767 0.02188-0.01671 0.03125-0.03125 0.03045-0.04727 0.04684-0.09423 0.0625-0.125 0.04096-0.08047 0.06708-0.15206 0.09375-0.21875 0.05335-0.13338 0.10707-0.2626 0.15625-0.40625 0.05624-0.16428 0.0592-0.23603 0.09375-0.34375a0.99123 0.99123 0 0 0 0.03125-0.03125c0.0059-0.01849 0.0269-0.04879 0.03125-0.0625a0.99123 0.99123 0 0 0 0.03125-0.09375 0.99123 0.99123 0 0 0 0.03125-0.0625l1.25-3.9375 0.03125-0.0625c0.0079-0.02062-2e-3 -0.02548 0-0.03125 3e-3 -0.0092-0.0028-0.02246 0-0.03125 0.0055-0.01759 0.02241-0.03405 0.03125-0.0625 0.01768-0.0569 0.03304-0.15444 0.0625-0.25 0.0105-0.03406 0.01964-0.08729 0.03125-0.125 0.05534 0.05773 0.06421 0.09741 0.125 0.15625 1.8761 1.8158 4.5467 2.3027 6.7188 1.2188 0.02111-0.01054 0.04148-0.02041 0.0625-0.03125 0.02993-0.01544 0.06402-0.01519 0.09375-0.03125 0.03859-0.02084 0.08677-0.0094 0.125-0.03125 0.0082-0.0035 0.03115-0.0312 0.03125-0.03125a0.99123 0.99123 0 0 0 0.03125-0.03125 0.99123 0.99123 0 0 0 0.0625-0.03125 0.99123 0.99123 0 0 0 0.03125 0l0.21875-0.15625a0.99123 0.99123 0 0 0 0.0625-0.0625c0.01689-0.01129 0.04523-0.01932 0.0625-0.03125a0.99123 0.99123 0 0 0 0-0.03125c0.14716-0.1026 0.29519-0.18872 0.46875-0.34375 1.8418-1.6419 2.3115-4.3417 1.2188-6.625-0.0059-0.01303-0.02523-0.01825-0.03125-0.03125-0.13069-0.28238-0.36208-0.51805-0.53125-0.78125 1.0447 0.28705 2.0967 0.49912 3.1875 0.5625l0.125 0.03125a0.99123 0.99123 0 0 0 0.09375 0h0.03125a0.99123 0.99123 0 0 0 0.0625 0.03125c0.20558 0.01376 0.28923-4.67e-4 0.3125 0 2.6021 0.06406 5.1457-0.52054 7.5938-1.6875 0.01159-0.0054 0.01997 0.0054 0.03125 0 0.18605-0.08937 0.35773-0.1915 0.40625-0.21875 0.02176-9e-3 -0.0018-0.01526 0.03125-0.03125 0.0081-4e-3 0.02314 0.0041 0.03125 0 0.33925-0.16979 0.67016-0.37259 1-0.5625 5.1418-2.9696 9.2155-8.255 11.281-14.531 2.5893-7.8641 1.612-16.241-2.7188-21.969l-0.03125-0.03125-0.03125-0.0625a0.99123 0.99123 0 0 0-0.0625-0.0625c-0.0078-0.01037-0.0234-0.02085-0.03125-0.03125a0.99123 0.99123 0 0 0-0.03125-0.03125c-0.0029-0.0029 0.01605-0.01613 0-0.03125-0.0048-0.0045-0.02186-0.02293-0.03125-0.03125-0.0071-0.0067-0.01486-0.01692-0.03125-0.03125-0.15118-0.19937-0.29062-0.41179-0.5-0.65625-1.2671-1.4766-2.7587-2.6659-4.4062-3.5312a0.99123 0.99123 0 0 0-0.03125 0l-0.125-0.0625c-0.04733-0.02855-0.03579-0.01776-0.0625-0.03125-3e-3 -0.0012 0.08642 0.02046-0.03125-0.03125-0.01701-0.0075-0.05638-0.0281-0.0625-0.03125-0.04574-0.02397-0.1466-0.07-0.25-0.125-0.03181-0.01692-0.02009-0.04222-0.0625-0.0625a0.99123 0.99123 0 0 0-0.03125 0 0.99123 0.99123 0 0 0-0.03125 0c-0.0075-0.0051-0.02298 0.0056-0.03125 0-0.0055-0.0037 0.0048-0.02805 0-0.03125a0.99123 0.99123 0 0 0-0.03125 0c-0.01463-0.0088 0.0066-0.0276 0-0.03125a0.99123 0.99123 0 0 0-0.0625 0l-0.03125-0.03125c-0.01199-0.0063-0.02008 0.0057-0.03125 0-0.05485-0.02802-0.084-0.04465-0.125-0.0625a0.99123 0.99123 0 0 0-0.09375-0.0625c-0.01853-0.0076-0.0436-0.02323-0.0625-0.03125a0.99123 0.99123 0 0 0-0.03125 0 0.99123 0.99123 0 0 0-0.0625-0.03125c-0.05932-0.02352-0.06993-0.01736-0.125-0.03125-0.12531-0.05385-0.27884-0.04368-0.40625-0.09375-1.1655-0.45797-2.4061-0.84021-3.6875-0.96875-0.01017-1e-3 -0.02107 9.99e-4 -0.03125 0zm-42.75 50.75c-1.6e-4 6.43e-4 -0.93737-0.3129-0.9375-0.3125-2.66e-4 8.1e-4 0.0042 0.01868 0 0.03125-0.0085 0.02514-0.03125 0.0625-0.03125 0.0625v0.03125l0.96875 0.1875z" fill="#f60" opacity=".3"/>
  <path id="path5383" d="m76.971 19.848-6e-3 -6e-3 -0.0042-0.0054c-0.0018-5.97e-4 -0.0072-0.0078-0.01076-0.01016-0.18345-0.24321-0.38184-0.48941-0.62087-0.76847-1.2041-1.4031-2.6066-2.5199-4.1632-3.3272l0.04004 0.02092-0.1237-0.07529c-3e-3 -0.0012-0.01912-0.0084-0.03944-0.01733-0.03765-0.02271-0.07709-0.04601-0.13505-0.07589-0.11174-0.05856-0.21453-0.10637-0.29699-0.14581-0.03645-0.01613-0.06932-0.03227-0.09442-0.04482l-0.0078-0.0036c-0.0747-0.03585-0.08246-0.03944-0.08246-0.03944l-0.05976-0.02928c-0.05557-0.02928-0.147-0.07888-0.26353-0.12967l-0.04661-0.02032c-0.06932-0.02749-0.11653-0.04542-0.11653-0.04542l-0.02032-0.0078c-1.182-0.50793-2.4781-0.84137-3.8113-0.97224-1.5166-0.16851-3.1366-0.07948-4.7877 0.2695-0.04541 0.0096-0.2217 0.04661-0.2217 0.04661-0.06812 0.01374-0.15656 0.03705-0.23126 0.05258l-0.98539-0.08963-0.1476-0.02331c-0.61549-0.0986-1.2101-0.17329-1.7676-0.2205-8.0665-0.98718-18.879 1.1019-24.137 16.704-0.43144 1.2812-1.4897 4.768-2.8283 9.1828l-1.7019 5.595c-5.4313 0.36989-9.2665 1.5937-11.409 3.6475-0.90113 0.7852-1.4539 1.9015-1.5142 3.0876-0.01673 0.33523 0.02032 0.67644 0.08904 1.0296 0.24201 2.1871 2.0759 3.9218 4.3067 4.0503 1.3457 0.07888 2.6526-0.42547 3.5866-1.3822l0.04721-0.03824c-0.04063 0.04303-0.06693 0.06274-0.06753 0.06334 0.15955-0.11892 0.74457-0.37587 1.923-0.63342-0.04541 0.14581-0.20198 0.64178-0.20198 0.64178l-0.69079 2.1847-0.03346-0.06633c3e-3 -0.0096-1.663 4.9688-1.663 4.9688l-0.17867 0.53363-0.05378 0.16194c0.01016-0.02809-0.02928 0.08485-0.02928 0.08485l-0.35615 1.0224 9e-3 0.01374c-0.30715 0.89635-0.42367 1.1939-0.4667 1.2901-0.31133 0.67166-0.80731 1.2758-1.4371 1.7485-0.62685 0.45594-1.4551 0.83301-2.5056 1.1348l-0.33643 0.09262c-1.0003 0.27309-2.5128 0.68362-3.5101 2.0939-1.1593 1.6463-1.0601 3.8495 0.23723 5.3578 1.1653 1.3601 3.0583 1.9289 5.0632 1.5196 1.323-0.2689 2.6998-0.71529 4.0909-1.3302 0.0024 0 0.13266-0.05916 0.13266-0.05916 0.50315-0.2217 1.0362-0.46013 1.5674-0.74815 0.24142 0.22528 0.49299 0.43861 0.75532 0.64238-0.50793 0.66808-0.82345 1.4557-0.9077 2.2893-0.1219 1.2125 0.23425 2.3938 1.0009 3.329 0.75771 0.92324 1.8268 1.4963 3.0105 1.611 0.77504 0.08007 1.568-0.0502 2.2845-0.37886l-0.01195 0.0239c2.8062-1.2507 5.1887-2.9293 7.0806-4.9945 0.91428-1.0284 1.727-2.162 2.4399-3.3948l-0.02868-0.02092c0.13087-0.18465 0.25217-0.37049 0.35615-0.5635 0.69975-1.2937 1.2872-2.6819 1.7455-4.1232l0.19361-0.60832 0.03346-0.01255c0.07051-0.02032 0.40814-1.0834 0.40814-1.0834l0.01374-0.04482 1.2812-4.0282 0.0036 0.0024c0.0024 0 0.64059-2.0204 0.64059-2.0204 0.01912-0.05976 0.03884-0.11593 0.05796-0.17509 0.11832 0.15298 0.21512 0.28862 0.31193 0.42726 0.21453 0.30775 0.45774 0.65553 0.86767 1.0523 1.6923 1.6379 4.0336 2.0138 5.8472 0.95252l-0.0251 0.01733c0.01852-0.0096 0.03048-0.01852 0.0484-0.02928 0.0078-0.0054 0.01673-0.0078 0.0251-0.01195l0.22827-0.13804 0.05617-0.05677c0.0066-0.0036 0.01673-0.01076 0.02151-0.01374 0.1225-0.08187 0.27249-0.18166 0.44041-0.33165 1.5142-1.3499 1.8967-3.5448 0.96268-5.4713-0.27966-0.6137-0.6633-1.1623-1.1467-1.6308-0.04541-0.04542-0.08725-0.07709-0.13206-0.11652-0.18525-0.21512-0.37766-0.43742-0.588-0.67166-0.2689-0.30834-0.60055-0.68063-0.98001-1.087 0.0496 0.0042 0.09979 0.01255 0.14939 0.01853 0.38184 0.21692 0.75592 0.4165 1.1294 0.58621 1.6648 0.75831 3.4378 1.1874 5.2723 1.2788 0.02749 0.0012 0.08246 0.0036 0.08246 0.0036l0.1231 0.0066c0.07171 0.0048 0.17329 0.0066 0.26293 0.0084 2.4512 0.06035 4.8373-0.47506 7.1696-1.5913 0.13326-0.06215 0.25277-0.13027 0.34002-0.17927 0.03107-0.01793 0.06454-0.03645 0.08067-0.04482 0.31253-0.15537 0.65672-0.33942 0.99196-0.53243 4.8941-2.8265 8.8476-7.9255 10.843-13.99 2.505-7.6082 1.5065-15.696-2.6048-21.107l-0.06215-0.08127z" fill="#f60" opacity=".6"/>
  <g id="g13097" transform="matrix(.59757 0 0 .59757 37.835 26.612)">
   <path id="path3108" d="m30.436 52.413c0.012 0.025 0.019 0.053 0.031 0.078 8e-3 0.016 0.021 0.031 0.029 0.051l-0.06-0.129z" fill="#fff"/>
   <path id="path3110" d="m65.493-12.992-0.01-0.01-7e-3 -9e-3c-3e-3 -1e-3 -0.012-0.013-0.018-0.017-0.307-0.407-0.639-0.819-1.039-1.286-2.015-2.348-4.362-4.217-6.967-5.568l0.067 0.035-0.207-0.126c-5e-3 -2e-3 -0.032-0.014-0.066-0.029-0.063-0.038-0.129-0.077-0.226-0.127-0.187-0.098-0.359-0.178-0.497-0.244-0.061-0.027-0.116-0.054-0.158-0.075l-0.013-6e-3c-0.125-0.06-0.138-0.066-0.138-0.066l-0.1-0.049c-0.093-0.049-0.246-0.132-0.441-0.217l-0.078-0.034c-0.116-0.046-0.195-0.076-0.195-0.076l-0.034-0.013c-1.978-0.85-4.147-1.408-6.378-1.627-2.538-0.282-5.249-0.133-8.012 0.451-0.076 0.016-0.371 0.078-0.371 0.078-0.114 0.023-0.262 0.062-0.387 0.088l-1.649-0.15-0.247-0.039c-1.03-0.165-2.025-0.29-2.958-0.369-13.499-1.652-31.593 1.844-40.393 27.953-0.722 2.144-2.493 7.979-4.733 15.367l-2.848 9.363c-9.089 0.619-15.507 2.667-19.093 6.104-1.508 1.314-2.433 3.182-2.534 5.167-0.028 0.561 0.034 1.132 0.149 1.723 0.405 3.66 3.474 6.563 7.207 6.778 2.252 0.132 4.439-0.712 6.002-2.313l0.079-0.064c-0.068 0.072-0.112 0.105-0.113 0.106 0.267-0.199 1.246-0.629 3.218-1.06-0.076 0.244-0.338 1.074-0.338 1.074l-1.156 3.656-0.056-0.111c5e-3 -0.016-2.783 8.315-2.783 8.315l-0.299 0.893-0.09 0.271c0.017-0.047-0.049 0.142-0.049 0.142l-0.596 1.711 0.015 0.023c-0.514 1.5-0.709 1.998-0.781 2.159-0.521 1.124-1.351 2.135-2.405 2.926-1.049 0.763-2.435 1.394-4.193 1.899l-0.563 0.155c-1.674 0.457-4.205 1.144-5.874 3.504-1.94 2.755-1.774 6.442 0.397 8.966 1.95 2.276 5.118 3.228 8.473 2.543 2.214-0.45 4.518-1.197 6.846-2.226 4e-3 0 0.222-0.099 0.222-0.099 0.842-0.371 1.734-0.77 2.623-1.252 0.404 0.377 0.825 0.734 1.264 1.075-0.85 1.118-1.378 2.436-1.519 3.831-0.204 2.029 0.392 4.006 1.675 5.571 1.268 1.545 3.057 2.504 5.038 2.696 1.297 0.134 2.624-0.084 3.823-0.634l-0.02 0.04c4.696-2.093 8.683-4.902 11.849-8.358 1.53-1.721 2.89-3.618 4.083-5.681l-0.048-0.035c0.219-0.309 0.422-0.62 0.596-0.943 1.171-2.165 2.154-4.488 2.921-6.9l0.324-1.018 0.056-0.021c0.118-0.034 0.683-1.813 0.683-1.813l0.023-0.075 2.144-6.741 6e-3 4e-3c4e-3 0 1.072-3.381 1.072-3.381 0.032-0.1 0.065-0.194 0.097-0.293 0.198 0.256 0.36 0.483 0.522 0.715 0.359 0.515 0.766 1.097 1.452 1.761 2.832 2.741 6.75 3.37 9.785 1.594l-0.042 0.029c0.031-0.016 0.051-0.031 0.081-0.049 0.013-9e-3 0.028-0.013 0.042-0.02l0.382-0.231 0.094-0.095c0.011-6e-3 0.028-0.018 0.036-0.023 0.205-0.137 0.456-0.304 0.737-0.555 2.534-2.259 3.174-5.932 1.611-9.156-0.468-1.027-1.11-1.945-1.919-2.729-0.076-0.076-0.146-0.129-0.221-0.195-0.31-0.36-0.632-0.732-0.984-1.124-0.45-0.516-1.005-1.139-1.64-1.819 0.083 7e-3 0.167 0.021 0.25 0.031 0.639 0.363 1.265 0.697 1.89 0.981 2.786 1.269 5.753 1.987 8.823 2.14 0.046 2e-3 0.138 6e-3 0.138 6e-3l0.206 0.011c0.12 8e-3 0.29 0.011 0.44 0.014 4.102 0.101 8.095-0.795 11.998-2.663 0.223-0.104 0.423-0.218 0.569-0.3 0.052-0.03 0.108-0.061 0.135-0.075 0.523-0.26 1.099-0.568 1.66-0.891 8.19-4.73 14.806-13.263 18.146-23.411 4.192-12.732 2.521-26.267-4.359-35.322l-0.104-0.136z" fill="#fff"/>
   <path id="path3112" d="m-31.763 36.36c0.019-0.02 0.042-0.035 0.062-0.052 0.056-0.048 0.106-0.102 0.164-0.151l-0.226 0.203z" fill="#fff"/>
   <g id="g3122" transform="translate(-106.98 -149.87)">
    <path id="path3135" d="m97.208 231.68c3.602 1.103 7.555 0.707 10.867-1.08 1.632-0.882 3.25-2.056 4.142-3.703 1.081-2 1.966-4.106 2.653-6.271-4.832 1.115-9.986 0.685-14.652-0.941-4.633-1.616-9.5-4.569-11.809-9.063-0.321 0.947-1.531 4.669-1.945 5.562-0.792 1.71-2.017 3.176-3.524 4.308-1.608 1.17-3.471 1.94-5.377 2.486-1.624 0.465-3.423 0.787-4.465 2.261-0.957 1.36-0.906 3.219 0.186 4.487 1.236 1.442 3.21 1.708 4.981 1.346 2.086-0.423 4.157-1.131 6.104-1.989 1.708-0.754 3.539-1.53 4.886-2.868 1.017 1.453 2.308 2.703 3.788 3.678 0.737 0.483 1.521 0.899 2.339 1.235 0.453 0.185 1.853 0.558 1.826 0.552" fill="url(#linearGradient13743)"/>
    <path id="path3154" d="m174.29 149.63c-1.714-7.276-6.044-13.546-11.979-16.661-3.138-1.648-6.722-2.417-10.608-1.985-0.358 0.04-0.717 0.091-1.078 0.152-0.242 0.04-0.483 0.089-0.727 0.138-0.104 0.023-0.212 0.042-0.322 0.065-0.307 0.069-0.621 0.147-0.936 0.229-0.029 0.01-0.059 0.017-0.09 0.026-0.338 0.091-0.683 0.191-1.028 0.304-1.88 0.6-3.813 1.472-5.786 2.662-5.366 3.238-9.574 7.509-12.657 12.308-0.151 0.236-0.292 0.479-0.44 0.717 1.438-3.934 3.367-6.72 4.865-8.309 2.655-2.812 6.597-6.066 11.229-7.917-0.965-0.154-1.87-0.265-2.694-0.336-16.241-1.984-29.679 4.871-36.627 25.485-1.065 3.159-4.568 14.885-8.373 27.337-6.443 0.292-15.021 1.456-19.092 5.352-0.837 0.676-1.397 1.674-1.465 2.815-0.129 2.188 1.589 4.067 3.834 4.196 1.246 0.071 2.389-0.406 3.186-1.22l7e-3 9e-3c1.323-1.434 5.837-2.443 10.998-2.917-0.134 0.431-0.267 0.859-0.397 1.287-0.442 1.389-0.881 2.777-1.316 4.167-0.602 1.911-1.2 3.823-1.81 5.731-0.303 0.951-0.611 1.905-0.92 2.856-0.084 2.672 1.574 5.437 4.7 7.801 4.804 3.633 13.475 6.386 21.173 3.853 0.85-2.676 1.984-6.246 3.24-10.188h5e-3c0.696-2.201 1.439-4.089 2.211-5.711 1.441 1.307 2.868 2.746 4.129 4.135 0.804 1.016 1.028 1.547 1.742 2.239 1.935 1.872 4.539 2.157 6.21 0.46 1.669-1.694 1.458-4.585-0.474-6.458-0.092-0.088-0.188-0.171-0.286-0.251-1.414-1.656-3.803-4.287-6.628-6.747 3.402-2.957 6.864-2.728 9.392-1.856 0.032 0.019 0.059 0.038 0.089 0.055 6.097 3.571 13.021 3.274 19.294 0.276 5.137-2.454 9.604-6.613 13.015-11.663 3.114-4.612 5.332-9.944 6.476-15.453 1.176-5.684 1.216-11.568-0.062-16.983zm-7.583 30.321c-6.425 9.176-17.576 14.066-26.006 7.692-12.5-9.453-10.592-33.814 5.362-45.217 11.903-8.513 22.89-1.746 26.018 9.706 2.394 8.763 0.091 20.012-5.374 27.819z" fill="url(#linearGradient13745)"/>
    <path id="path3167" d="m97.208 231.68c-0.78 0.461-1.603 0.911-2.521 1.331-0.141 0.049-0.275 0.11-0.407 0.171-0.532 0.316-1.014 0.678-1.408 1.124-0.442 0.568-0.739 1.263-0.817 2.034-0.216 2.152 1.325 4.066 3.442 4.273 0.693 0.069 1.36-0.051 1.952-0.323l0.012 0.025c4.799-2.137 8.215-4.84 10.646-7.491 1.379-1.554 2.576-3.248 3.614-5.042-3.57 3.839-9.158 5.533-14.513 3.898z" fill="url(#linearGradient13747)"/>
    <path id="path3180" d="m97.208 231.68c-0.78 0.461-1.603 0.911-2.521 1.331-0.141 0.049-0.275 0.11-0.407 0.171-0.532 0.316-1.014 0.678-1.408 1.124-0.442 0.568-0.739 1.263-0.817 2.034-0.216 2.152 1.325 4.066 3.442 4.273 0.693 0.069 1.36-0.051 1.952-0.323l0.012 0.025c4.799-2.137 8.215-4.84 10.646-7.491 1.379-1.554 2.576-3.248 3.614-5.042-3.57 3.839-9.158 5.533-14.513 3.898z" fill="url(#linearGradient13749)"/>
    <path id="path3193" d="m80.06 195.49c1.182 0.06 2.266-0.403 3.015-1.18l9e-3 8e-3c1.958-2.153 11.391-3.375 18.972-3.165l0.375 9e-3c2e-3 0 0.373-0.061 0.373-0.061s2.002-1.694 1.503-4.469c-0.498-2.775-2.037-3.083-2.037-3.083-4.407-0.126-18.958-0.094-24.512 5.298-0.79 0.648-1.314 1.6-1.37 2.685-0.107 2.079 1.539 3.852 3.672 3.958z" fill="url(#linearGradient13751)"/>
    <path id="path3206" d="m133.17 202.52c-0.088-0.091-0.181-0.177-0.277-0.255-1.757-2.147-5.078-5.911-8.921-8.913-0.851 2.681-1.738 5.475-2.613 8.229 1.429 1.349 2.841 2.821 4.083 4.247 0.773 1.021 0.979 1.543 1.681 2.249 1.888 1.897 4.523 2.296 6.283 0.726 1.758-1.569 1.654-4.383-0.236-6.283z" fill="url(#linearGradient13753)"/>
    <g id="g3208">
     <g id="g3210">
      <path id="path3223" d="m173.48 171.2c-6.066 18.417-22.996 29.434-37.141 22.992-13.995-6.372-18.005-26.599-9.819-43.702 7.471-15.623 22.702-23.197 34.678-18.066 12.077 5.179 17.815 21.979 12.282 38.776z" fill="url(#radialGradient13755)"/>
      <path id="path3240" d="m173.44 171.21c-6.034 18.341-22.859 29.278-36.93 22.872-13.924-6.337-17.989-26.464-9.914-43.532 7.385-15.642 22.567-23.264 34.547-18.128 12.079 5.181 17.816 22.009 12.297 38.788z" fill="url(#linearGradient13757)"/>
      <path id="path3257" d="m173.41 171.23c-6.001 18.265-22.723 29.122-36.719 22.752-13.853-6.303-17.973-26.33-10.008-43.363 7.299-15.662 22.432-23.331 34.416-18.191 12.081 5.187 17.817 22.041 12.311 38.802z" fill="url(#linearGradient13759)"/>
      <path id="path3274" d="m173.37 171.24c-5.968 18.188-22.585 28.966-36.508 22.632-13.782-6.268-17.957-26.195-10.103-43.193 7.213-15.681 22.296-23.397 34.284-18.253 12.084 5.19 17.819 22.071 12.327 38.814z" fill="url(#linearGradient13761)"/>
      <path id="path3291" d="m173.34 171.25c-5.936 18.112-22.449 28.81-36.298 22.512-13.71-6.233-17.94-26.061-10.197-43.024 7.127-15.7 22.161-23.464 34.153-18.315 12.087 5.194 17.821 22.101 12.342 38.827z" fill="url(#linearGradient13763)"/>
      <path id="path3308" d="m173.3 171.27c-5.903 18.036-22.312 28.654-36.087 22.392-13.64-6.198-17.924-25.926-10.292-42.854 7.041-15.719 22.026-23.531 34.021-18.378 12.09 5.197 17.823 22.131 12.358 38.84z" fill="url(#linearGradient13765)"/>
      <path id="path3325" d="m173.26 171.28c-5.871 17.96-22.175 28.498-35.876 22.272-13.569-6.164-17.908-25.791-10.387-42.686 6.955-15.738 21.891-23.597 33.891-18.44 12.092 5.202 17.824 22.162 12.372 38.854z" fill="url(#linearGradient13767)"/>
      <path id="path3342" d="m173.23 171.29c-5.837 17.884-22.038 28.342-35.666 22.152-13.498-6.129-17.892-25.656-10.481-42.516 6.869-15.757 21.755-23.664 33.759-18.502 12.095 5.205 17.826 22.192 12.388 38.866z" fill="url(#linearGradient13769)"/>
      <path id="path3359" d="m173.2 171.31c-5.805 17.808-21.902 28.186-35.455 22.033-13.427-6.095-17.876-25.522-10.577-42.347 6.784-15.777 21.621-23.731 33.628-18.564 12.098 5.208 17.828 22.222 12.404 38.878z" fill="url(#linearGradient13771)"/>
      <path id="path3376" d="m173.16 171.32c-5.772 17.731-21.765 28.03-35.244 21.913-13.356-6.06-17.86-25.387-10.671-42.177 6.698-15.796 21.485-23.797 33.497-18.626 12.1 5.211 17.83 22.252 12.418 38.89z" fill="url(#linearGradient13773)"/>
      <path id="path3393" d="m173.12 171.33c-5.74 17.655-21.628 27.874-35.033 21.793-13.285-6.025-17.844-25.252-10.766-42.008 6.612-15.815 21.35-23.864 33.366-18.689 12.103 5.215 17.831 22.282 12.433 38.904z" fill="url(#linearGradient13775)"/>
      <path id="path3410" d="m173.09 171.35c-5.708 17.579-21.491 27.718-34.823 21.673-13.214-5.99-17.828-25.118-10.861-41.838 6.526-15.834 21.215-23.931 33.234-18.751 12.106 5.218 17.834 22.312 12.45 38.916z" fill="url(#linearGradient13777)"/>
      <path id="path3427" d="m173.05 171.36c-5.674 17.503-21.354 27.562-34.612 21.553-13.143-5.956-17.811-24.983-10.955-41.669 6.44-15.854 21.08-23.997 33.103-18.813 12.109 5.222 17.836 22.342 12.464 38.929z" fill="url(#linearGradient13779)"/>
      <path id="path3442" d="m173.02 171.37c-5.642 17.427-21.217 27.405-34.401 21.433-13.072-5.921-17.795-24.848-11.05-41.5 6.354-15.873 20.944-24.064 32.972-18.876 12.111 5.227 17.837 22.374 12.479 38.943z" fill="url(#linearGradient13781)"/>
      <path id="path3457" d="m172.98 171.38c-5.609 17.351-21.081 27.25-34.191 21.313-13.001-5.886-17.779-24.714-11.145-41.331 6.268-15.892 20.809-24.131 32.84-18.938 12.114 5.231 17.839 22.405 12.496 38.956z" fill="url(#linearGradient13783)"/>
      <path id="path3472" d="m172.95 171.4c-5.577 17.274-20.944 27.093-33.98 21.193-12.93-5.852-17.763-24.579-11.239-41.161 6.182-15.911 20.674-24.197 32.709-19 12.116 5.234 17.841 22.435 12.51 38.968z" fill="url(#linearGradient13785)"/>
      <path id="path3487" d="m172.91 171.41c-5.543 17.198-20.807 26.938-33.769 21.074-12.859-5.817-17.746-24.444-11.334-40.992 6.097-15.931 20.539-24.264 32.578-19.063 12.119 5.237 17.843 22.465 12.525 38.981z" fill="url(#linearGradient13787)"/>
      <path id="path3502" d="m172.88 171.42c-5.511 17.122-20.67 26.781-33.558 20.954-12.788-5.782-17.73-24.31-11.429-40.822 6.011-15.95 20.404-24.331 32.447-19.125 12.121 5.24 17.844 22.494 12.54 38.993z" fill="url(#linearGradient13789)"/>
      <path id="path3517" d="m172.84 171.44c-5.479 17.045-20.533 26.625-33.348 20.834-12.717-5.748-17.714-24.175-11.523-40.653 5.925-15.969 20.269-24.397 32.315-19.187 12.124 5.244 17.846 22.525 12.556 39.006z" fill="url(#linearGradient13791)"/>
      <path id="path3532" d="m172.8 171.45c-5.446 16.969-20.396 26.469-33.137 20.714-12.646-5.713-17.698-24.04-11.618-40.483 5.839-15.989 20.133-24.464 32.184-19.249 12.127 5.247 17.848 22.555 12.571 39.018z" fill="url(#linearGradient13793)"/>
      <path id="path3547" d="m172.77 171.46c-5.413 16.893-20.259 26.313-32.926 20.594-12.575-5.678-17.681-23.906-11.712-40.314 5.753-16.008 19.998-24.531 32.053-19.312 12.129 5.252 17.849 22.586 12.585 39.032z" fill="url(#linearGradient13795)"/>
      <path id="path3562" d="m172.73 171.48c-5.38 16.817-20.123 26.157-32.716 20.474-12.504-5.643-17.665-23.771-11.807-40.145 5.667-16.027 19.863-24.597 31.921-19.374 12.133 5.255 17.852 22.616 12.602 39.045z" fill="url(#linearGradient13797)"/>
      <path id="path3577" d="m172.7 171.49c-5.348 16.741-19.986 26.001-32.505 20.354-12.433-5.609-17.649-23.637-11.902-39.976 5.581-16.046 19.728-24.664 31.79-19.436 12.135 5.259 17.853 22.647 12.617 39.058z" fill="url(#linearGradient13799)"/>
      <path id="path3592" d="m172.66 171.5c-5.315 16.665-19.849 25.845-32.294 20.234-12.362-5.574-17.633-23.501-11.997-39.806 5.495-16.065 19.592-24.73 31.659-19.498 12.138 5.262 17.855 22.676 12.632 39.07z" fill="url(#linearGradient13801)"/>
      <path id="path3607" d="m172.63 171.52c-5.283 16.588-19.712 25.689-32.083 20.115-12.292-5.54-17.617-23.367-12.092-39.637 5.41-16.085 19.458-24.798 31.528-19.561 12.14 5.266 17.856 22.707 12.647 39.083z" fill="url(#linearGradient13803)"/>
      <path id="path3622" d="m172.59 171.53c-5.25 16.512-19.575 25.533-31.873 19.995-12.22-5.504-17.601-23.232-12.187-39.467 5.324-16.104 19.322-24.864 31.396-19.623 12.145 5.269 17.86 22.737 12.664 39.095z" fill="url(#linearGradient13805)"/>
      <path id="path3637" d="m172.56 171.54c-5.217 16.436-19.438 25.377-31.662 19.875-12.149-5.47-17.584-23.098-12.281-39.298 5.238-16.123 19.187-24.931 31.266-19.685 12.146 5.273 17.86 22.768 12.677 39.108z" fill="url(#linearGradient13807)"/>
      <path id="path3650" d="m172.52 171.56c-5.185 16.36-19.302 25.221-31.451 19.755-12.079-5.435-17.568-22.963-12.376-39.128 5.152-16.143 19.052-24.998 31.134-19.747 12.149 5.275 17.862 22.796 12.693 39.12z" fill="url(#linearGradient13809)"/>
      <path id="path3663" d="m172.48 171.57c-5.152 16.284-19.165 25.065-31.241 19.635-12.007-5.401-17.552-22.829-12.47-38.959 5.066-16.162 18.917-25.064 31.003-19.81 12.15 5.28 17.863 22.828 12.708 39.134z" fill="url(#linearGradient13811)"/>
      <path id="path3676" d="m172.45 171.58c-5.119 16.208-19.028 24.909-31.03 19.515-11.936-5.366-17.536-22.694-12.565-38.79 4.98-16.181 18.781-25.131 30.872-19.872 12.154 5.284 17.866 22.858 12.723 39.147z" fill="url(#linearGradient13813)"/>
      <path id="path3689" d="m172.41 171.6c-5.086 16.131-18.892 24.753-30.819 19.396-11.865-5.332-17.52-22.559-12.66-38.621 4.894-16.2 18.646-25.198 30.74-19.934 12.156 5.288 17.867 22.888 12.739 39.159z" fill="url(#linearGradient13815)"/>
      <path id="path3696" d="m172.38 171.61c-5.054 16.055-18.754 24.597-30.608 19.275-11.794-5.296-17.503-22.424-12.754-38.451 4.808-16.219 18.511-25.264 30.609-19.996 12.158 5.292 17.868 22.919 12.753 39.172z" fill="url(#linearGradient13817)"/>
     </g>
    </g>
    <g id="g3698">
     <path id="path3705" d="m173.43 171.12c-5.866 18.006-22.17 28.784-35.066 22.997-12.833-5.761-16.029-25.442-7.991-42.314 7.276-15.275 20.611-23.793 31.373-19.106 10.804 4.703 17.343 21.18 11.684 38.423z" fill="url(#linearGradient13819)"/>
     <path id="path3718" d="m173.38 171.18c-5.875 17.927-22.109 28.601-34.94 22.809-12.754-5.759-15.965-25.325-8.007-42.12 7.222-15.252 20.551-23.762 31.32-19.078 10.825 4.707 17.303 21.196 11.627 38.389z" fill="url(#linearGradient13821)"/>
     <path id="path3731" d="m173.33 171.25c-5.885 17.848-22.048 28.418-34.813 22.621-12.677-5.756-15.903-25.208-8.024-41.925 7.168-15.229 20.492-23.732 31.268-19.05 10.847 4.711 17.262 21.212 11.569 38.354z" fill="url(#linearGradient13823)"/>
     <path id="path3746" d="m173.28 171.31c-5.894 17.77-21.987 28.235-34.687 22.434-12.599-5.754-15.839-25.09-8.04-41.731 7.114-15.207 20.432-23.701 31.215-19.021 10.868 4.713 17.222 21.226 11.512 38.318z" fill="url(#linearGradient13825)"/>
     <path id="path3761" d="m173.23 171.38c-5.903 17.691-21.925 28.052-34.561 22.246-12.521-5.751-15.776-24.973-8.057-41.536 7.061-15.184 20.372-23.671 31.163-18.994 10.889 4.718 17.182 21.243 11.455 38.284z" fill="url(#linearGradient13827)"/>
     <path id="path3776" d="m173.18 171.44c-5.913 17.612-21.864 27.869-34.434 22.058-12.444-5.75-15.713-24.855-8.073-41.342 7.007-15.161 20.312-23.64 31.11-18.965 10.911 4.722 17.141 21.259 11.397 38.249z" fill="url(#linearGradient13829)"/>
     <path id="path3791" d="m173.13 171.5c-5.922 17.534-21.803 27.687-34.308 21.871-12.366-5.747-15.65-24.738-8.089-41.147 6.953-15.138 20.252-23.61 31.058-18.938 10.931 4.726 17.1 21.274 11.339 38.214z" fill="url(#linearGradient13831)"/>
     <path id="path3806" d="m173.08 171.57c-5.931 17.455-21.742 27.504-34.182 21.683-12.288-5.745-15.587-24.621-8.106-40.953 6.899-15.115 20.192-23.579 31.005-18.909 10.954 4.729 17.062 21.29 11.283 38.179z" fill="url(#linearGradient13833)"/>
     <path id="path3821" d="m173.03 171.63c-5.94 17.376-21.68 27.321-34.055 21.495-12.21-5.742-15.524-24.503-8.122-40.757 6.845-15.093 20.132-23.549 30.953-18.881 10.975 4.732 17.02 21.304 11.224 38.143z" fill="url(#linearGradient13835)"/>
     <path id="path3838" d="m172.98 171.7c-5.95 17.298-21.619 27.138-33.929 21.308-12.132-5.74-15.46-24.386-8.138-40.563 6.791-15.07 20.073-23.519 30.9-18.854 10.996 4.736 16.98 21.32 11.167 38.109z" fill="url(#linearGradient13837)"/>
     <path id="path3855" d="m172.94 171.76c-5.959 17.219-21.558 26.955-33.803 21.12-12.055-5.737-15.398-24.268-8.155-40.368 6.737-15.047 20.013-23.488 30.848-18.825 11.018 4.739 16.939 21.335 11.11 38.073z" fill="url(#linearGradient13839)"/>
     <path id="path3872" d="m172.88 171.83c-5.968 17.14-21.496 26.772-33.676 20.932-11.977-5.735-15.334-24.151-8.171-40.174 6.683-15.025 19.953-23.458 30.795-18.797 11.039 4.743 16.899 21.351 11.052 38.039z" fill="url(#linearGradient13841)"/>
     <path id="path3889" d="m172.84 171.89c-5.978 17.062-21.435 26.589-33.55 20.745-11.899-5.733-15.271-24.034-8.188-39.979 6.63-15.002 19.893-23.427 30.743-18.769 11.06 4.746 16.858 21.366 10.995 38.003z" fill="url(#linearGradient13843)"/>
     <path id="path3906" d="m172.79 171.96c-5.987 16.983-21.374 26.406-33.424 20.557-11.822-5.73-15.208-23.916-8.204-39.785 6.576-14.979 19.833-23.396 30.69-18.741 11.082 4.749 16.819 21.382 10.938 37.969z" fill="url(#linearGradient13845)"/>
     <path id="path3923" d="m172.74 172.02c-5.996 16.904-21.313 26.223-33.297 20.369-11.744-5.728-15.145-23.799-8.22-39.59 6.522-14.957 19.773-23.366 30.638-18.713 11.102 4.753 16.777 21.398 10.879 37.934z" fill="url(#linearGradient13847)"/>
     <path id="path3940" d="m172.69 172.08c-6.005 16.825-21.251 26.04-33.171 20.181-11.666-5.726-15.082-23.681-8.237-39.396 6.468-14.934 19.713-23.335 30.585-18.685 11.125 4.758 16.738 21.415 10.823 37.9z" fill="url(#linearGradient13849)"/>
     <path id="path3957" d="m172.64 172.15c-6.015 16.747-21.19 25.857-33.045 19.994-11.588-5.723-15.019-23.564-8.253-39.201 6.414-14.911 19.654-23.305 30.533-18.657 11.145 4.761 16.697 21.43 10.765 37.864z" fill="url(#linearGradient13851)"/>
     <path id="path3976" d="m172.59 172.21c-6.024 16.668-21.129 25.674-32.918 19.806-11.511-5.721-14.956-23.446-8.27-39.006 6.36-14.888 19.594-23.274 30.48-18.628 11.167 4.763 16.656 21.444 10.708 37.828z" fill="url(#linearGradient13853)"/>
     <path id="path3995" d="m172.54 172.28c-6.033 16.589-21.067 25.492-32.792 19.619-11.433-5.718-14.893-23.329-8.286-38.812 6.306-14.865 19.534-23.244 30.427-18.601 11.189 4.768 16.617 21.461 10.651 37.794z" fill="url(#linearGradient13855)"/>
     <path id="path4014" d="m172.49 172.34c-6.042 16.511-21.006 25.309-32.666 19.431-11.355-5.716-14.83-23.211-8.302-38.617 6.252-14.842 19.474-23.213 30.375-18.572 11.209 4.77 16.575 21.475 10.593 37.758z" fill="url(#linearGradient13857)"/>
     <path id="path4033" d="m172.44 172.41c-6.052 16.432-20.945 25.125-32.54 19.243-11.277-5.714-14.767-23.094-8.319-38.423 6.199-14.819 19.415-23.183 30.323-18.544 11.231 4.775 16.536 21.492 10.536 37.724z" fill="url(#linearGradient13859)"/>
     <path id="path4052" d="m172.39 172.47c-6.061 16.354-20.884 24.942-32.413 19.056-11.199-5.711-14.703-22.977-8.335-38.229 6.145-14.797 19.354-23.152 30.27-18.516 11.253 4.778 16.496 21.507 10.478 37.689z" fill="url(#linearGradient13861)"/>
     <path id="path4071" d="m172.34 172.54c-6.07 16.274-20.822 24.76-32.287 18.868-11.122-5.709-14.641-22.859-8.352-38.034 6.091-14.774 19.294-23.122 30.217-18.488 11.275 4.782 16.456 21.523 10.422 37.654z" fill="url(#linearGradient13863)"/>
     <path id="path4090" d="m172.29 172.6c-6.08 16.196-20.761 24.577-32.161 18.68-11.044-5.707-14.577-22.742-8.368-37.839 6.037-14.751 19.235-23.091 30.165-18.46 11.295 4.785 16.415 21.538 10.364 37.619z" fill="url(#linearGradient13865)"/>
     <path id="path4109" d="m172.24 172.66c-6.089 16.117-20.7 24.394-32.034 18.492-10.966-5.704-14.514-22.625-8.384-37.644 5.983-14.729 19.175-23.061 30.112-18.432 11.317 4.789 16.374 21.553 10.306 37.584z" fill="url(#linearGradient13867)"/>
     <path id="path4128" d="m172.19 172.73c-6.098 16.039-20.639 24.21-31.908 18.305-10.889-5.702-14.451-22.507-8.4-37.45 5.929-14.706 19.115-23.03 30.06-18.404 11.337 4.793 16.333 21.57 10.248 37.549z" fill="url(#linearGradient13869)"/>
     <path id="path4147" d="m172.14 172.79c-6.107 15.96-20.578 24.028-31.782 18.117-10.811-5.699-14.388-22.39-8.417-37.255 5.875-14.683 19.055-23 30.007-18.376 11.361 4.797 16.295 21.585 10.192 37.514z" fill="url(#linearGradient13871)"/>
     <path id="path4168" d="m172.09 172.86c-6.117 15.881-20.516 23.845-31.655 17.93-10.733-5.697-14.325-22.272-8.433-37.061 5.821-14.661 18.995-22.969 29.955-18.348 11.38 4.8 16.252 21.6 10.133 37.479z" fill="url(#linearGradient13873)"/>
     <path id="path4189" d="m172.04 172.92c-6.126 15.803-20.455 23.662-31.529 17.742-10.655-5.694-14.262-22.155-8.45-36.866 5.768-14.638 18.936-22.939 29.902-18.32 11.403 4.804 16.214 21.616 10.077 37.444z" fill="url(#linearGradient13875)"/>
     <path id="path4210" d="m172 172.99c-6.135 15.724-20.394 23.479-31.403 17.554-10.577-5.692-14.198-22.038-8.466-36.671 5.713-14.615 18.875-22.908 29.85-18.292 11.424 4.806 16.173 21.631 10.019 37.409z" fill="url(#linearGradient13877)"/>
     <path id="path4231" d="m171.94 173.05c-6.145 15.645-20.332 23.296-31.276 17.366-10.5-5.689-14.136-21.92-8.482-36.477 5.66-14.592 18.816-22.878 29.797-18.264 11.445 4.811 16.132 21.648 9.961 37.375z" fill="url(#linearGradient13879)"/>
     <path id="path4250" d="m171.9 173.12c-6.154 15.566-20.271 23.113-31.15 17.179-10.422-5.688-14.072-21.803-8.499-36.282 5.605-14.569 18.756-22.847 29.745-18.235 11.466 4.812 16.092 21.661 9.904 37.338z" fill="url(#linearGradient13881)"/>
    </g>
    <path id="path4277" d="m146.96 187.53c4.335 0.355 8.602-1.261 12.088-3.753 2.567-1.832 4.755-4.097 6.448-6.695 0.013-0.017 0.02-0.032 0.032-0.047 0.335-0.515 0.649-1.043 0.947-1.583 2e-3 -8e-3 7e-3 -0.018 0.012-0.026 0.595-1.093 1.106-2.237 1.526-3.425 1.907-5.378 2.463-11.103 1.254-16.71-1.074-4.971-3.68-9.773-7.839-12.81-1.984-1.447-4.13-2.335-6.593-2.491-2.774-0.178-5.532 0.516-8.021 1.722-0.292 0.19-0.583 0.382-0.873 0.591-9.198 6.574-13.717 17.453-13.508 27.301 0.333 5.737 2.45 11.024 6.418 14.594 2.323 1.846 5.103 3.085 8.109 3.332z" fill="url(#linearGradient13883)"/>
    <path id="path4279" d="m152.87 163.73c0.6-3.865-0.522-7.005-2.662-6.849-2.314 0.169-4.753 4.052-5.243 8.456-0.463 4.194 1.088 6.84 3.284 6.14 2.048-0.656 4.051-4.043 4.621-7.747z" fill="#1c86ee"/>
    <path id="path4281" d="m162.64 162.83c-0.229-0.074-0.595-0.122-1.02 0.095-1.451 0.724-2.662 4.385-2.89 5.114-0.319 1.026-1.306 4.479-0.473 5.754 0.22 0.333 0.541 0.539 0.91 0.59 0.917 0.124 1.58-0.733 1.997-1.385 0.242-0.378 0.491-0.838 0.734-1.364 0.351-0.751 0.686-1.621 0.961-2.508 0.661-2.108 1.514-5.73-0.219-6.296z" fill="#1c86ee"/>
    <path id="path4296" d="m141.05 150.84c-3.562 6.513-3.258 7.708 7.139 8.935 7.664 1.236 11.396 3.66 15.189 5.776 2.492 1.122 4.064 3.785 5.62 1.77 2.158-3.913 1.6-13.077-3.001-19.51-7.091-9.545-19.314-5.796-24.947 3.029z" fill="url(#linearGradient13885)" opacity=".75"/>
    <path id="path4313" d="m171.88 152.01c-1.553-5.683-5.044-10.198-9.621-12.281 2.69 1.772 4.894 4.438 6.383 7.697 0.524 1.133 0.966 2.337 1.31 3.598 1.867 6.835 0.87 15.174-2.249 22.22 0.136-0.382 0.264-0.767 0.388-1.158-0.129 0.322-0.261 0.641-0.4 0.953 0.01-0.018 0.02-0.034 0.027-0.051-0.985 2.716-2.309 5.289-3.931 7.549-4.159 5.805-10.422 9.747-16.525 9.768 6.978 0.854 14.433-3.608 19.244-10.475 5.466-7.807 7.768-19.056 5.374-27.82z" fill="url(#linearGradient13887)"/>
    <path id="path4328" d="m164.17 141.12c-1.251-1.094-2.555-1.922-4.174-2.326-1.721-0.43-3.498-0.503-5.252-0.271-2.867 0.38-5.571 1.604-7.956 3.206 2.497-1.214 5.264-1.912 8.048-1.733 2.463 0.156 4.609 1.043 6.593 2.491 4.159 3.037 6.765 7.839 7.839 12.81 1.209 5.607 0.653 11.332-1.254 16.71-0.419 1.188-0.931 2.332-1.526 3.425-5e-3 8e-3 -0.01 0.018-0.012 0.026-0.298 0.54-0.612 1.069-0.947 1.583-0.012 0.015-0.019 0.03-0.032 0.047-1.693 2.599-3.881 4.864-6.448 6.695-3.487 2.492-7.753 4.108-12.088 3.753-3.006-0.247-5.786-1.486-8.109-3.333-4.351-3.915-6.502-9.888-6.484-16.264-0.254 7.866 2.438 15.275 8.14 19.584 2.119 1.604 4.413 2.494 6.758 2.782 3.801-0.011 7.666-1.546 11.044-4.104 4.957-3.631 8.622-9.341 10.458-14.954 3.126-9.567 3.672-22.896-4.598-30.127z" fill="url(#linearGradient13889)"/>
   </g>
  </g>
  <path id="path5381" d="m-33.978 57.932c0.0072 0.01494 0.01135 0.03167 0.01852 0.04661 0.0048 0.0096 0.01255 0.01852 0.01733 0.03048l-0.03585-0.07709z" fill="#fff"/>
  <path id="path5385" d="m-71.145 48.339c0.01135-0.01195 0.0251-0.02092 0.03705-0.03107 0.03346-0.02868 0.06334-0.06095 0.098-0.09023l-0.13505 0.12131z" fill="#fff"/>
 </g>
</svg>
