<?xml version="1.0" encoding="UTF-8"?>
<svg id="svg2408" width="96" height="96" version="1.0" xmlns="http://www.w3.org/2000/svg" xmlns:cc="http://creativecommons.org/ns#" xmlns:dc="http://purl.org/dc/elements/1.1/" xmlns:rdf="http://www.w3.org/1999/02/22-rdf-syntax-ns#" xmlns:xlink="http://www.w3.org/1999/xlink">
 <defs id="defs2410">
  <linearGradient id="linearGradient4678">
   <stop id="stop4674" stop-color="#027f39" offset="0"/>
   <stop id="stop4676" stop-color="#00e456" offset="1"/>
  </linearGradient>
  <linearGradient id="linearGradient4747">
   <stop id="stop4743" stop-color="#ce7400" offset="0"/>
   <stop id="stop4745" stop-color="#ffcc2a" offset="1"/>
  </linearGradient>
  <linearGradient id="linearGradient3744">
   <stop id="stop3746" stop-color="#167fff" offset="0"/>
   <stop id="stop3748" stop-color="#0063db" offset="1"/>
  </linearGradient>
  <linearGradient id="ButtonShadow" x1="45.448" x2="45.448" y1="92.54" y2="7.0165" gradientTransform="scale(1.0059 .99417)" gradientUnits="userSpaceOnUse">
   <stop id="stop3750" offset="0"/>
   <stop id="stop3752" stop-opacity=".58824" offset="1"/>
  </linearGradient>
  <linearGradient id="linearGradient3737">
   <stop id="stop3739" stop-color="#fefefe" offset="0"/>
   <stop id="stop3741" stop-color="#fefefe" stop-opacity="0" offset="1"/>
  </linearGradient>
  <filter id="filter3174" color-interpolation-filters="sRGB">
   <feGaussianBlur id="feGaussianBlur3176" stdDeviation="1.71"/>
  </filter>
  <linearGradient id="linearGradient3188" x1="36.357" x2="36.357" y1="6" y2="63.893" gradientUnits="userSpaceOnUse" xlink:href="#linearGradient3737"/>
  <filter id="filter3794" x="-.192" y="-.192" width="1.384" height="1.384" color-interpolation-filters="sRGB">
   <feGaussianBlur id="feGaussianBlur3796" stdDeviation="5.28"/>
  </filter>
  <linearGradient id="linearGradient3613" x1="48" x2="48" y1="20.221" y2="138.66" gradientUnits="userSpaceOnUse" xlink:href="#linearGradient3737"/>
  <radialGradient id="radialGradient3619" cx="48" cy="90.172" r="42" gradientTransform="matrix(1.1573 0 0 .99591 -7.551 .19713)" gradientUnits="userSpaceOnUse" xlink:href="#linearGradient3737"/>
  <clipPath id="clipPath3613">
   <rect id="rect3615" x="6" y="6" width="84" height="84" rx="6" ry="6" fill="#fefefe"/>
  </clipPath>
  <linearGradient id="linearGradient3617" x1="48" x2="48" y1="90" y2="5.9877" gradientUnits="userSpaceOnUse">
   <stop id="stop3702" stop-color="#e1e1e1" offset="0"/>
   <stop id="stop3704" stop-color="#f5f5f5" offset="1"/>
  </linearGradient>
  <linearGradient id="ButtonShadow-0" x1="45.448" x2="45.448" y1="92.54" y2="7.0165" gradientTransform="matrix(1.0059 0 0 .99417 100 0)" gradientUnits="userSpaceOnUse">
   <stop id="stop3750-8" offset="0"/>
   <stop id="stop3752-5" stop-opacity=".58824" offset="1"/>
  </linearGradient>
  <linearGradient id="linearGradient3780" x1="32.251" x2="32.251" y1="6.1317" y2="90.239" gradientTransform="matrix(1.0238 0 0 1.0119 -1.1429 -98.071)" gradientUnits="userSpaceOnUse" xlink:href="#ButtonShadow-0"/>
  <linearGradient id="linearGradient3721" x1="32.251" x2="32.251" y1="6.1317" y2="90.239" gradientTransform="translate(0,-97)" gradientUnits="userSpaceOnUse" xlink:href="#ButtonShadow-0"/>
  <linearGradient id="linearGradient3700-3">
   <stop id="stop3702-6" stop-color="#ce1500" offset="0"/>
   <stop id="stop3704-7" stop-color="#ff815a" offset="1"/>
  </linearGradient>
  <linearGradient id="linearGradient2932-5-2" x1="48" x2="48" y1="90" y2="5.9877" gradientTransform="matrix(.19048 0 0 .19048 18.291 63.803)" gradientUnits="userSpaceOnUse" xlink:href="#linearGradient3700-3"/>
  <linearGradient id="linearGradient2932-5-3-6" x1="48" x2="48" y1="90" y2="5.9877" gradientTransform="matrix(.19048 0 0 .19048 18.291 47.803)" gradientUnits="userSpaceOnUse" xlink:href="#linearGradient3744"/>
  <linearGradient id="linearGradient2932-5-2-3" x1="48" x2="48" y1="90" y2="5.9877" gradientTransform="matrix(.19048 0 0 .19048 26.291 63.803)" gradientUnits="userSpaceOnUse" xlink:href="#linearGradient3700-3"/>
  <linearGradient id="linearGradient2932-5-2-35" x1="48" x2="48" y1="90" y2="5.9877" gradientTransform="matrix(.19048 0 0 .19048 34.291 63.803)" gradientUnits="userSpaceOnUse" xlink:href="#linearGradient3700-3"/>
  <linearGradient id="linearGradient2932-5-2-1" x1="48" x2="48" y1="90" y2="5.9877" gradientTransform="matrix(.19048 0 0 .19048 42.291 63.803)" gradientUnits="userSpaceOnUse" xlink:href="#linearGradient3700-3"/>
  <linearGradient id="linearGradient2932-5-2-9" x1="48" x2="48" y1="90" y2="5.9877" gradientTransform="matrix(.19048 0 0 .19048 50.291 63.803)" gradientUnits="userSpaceOnUse" xlink:href="#linearGradient3700-3"/>
  <linearGradient id="linearGradient2932-5-2-2" x1="48" x2="48" y1="90" y2="5.9877" gradientTransform="matrix(.19048 0 0 .19048 58.291 63.803)" gradientUnits="userSpaceOnUse" xlink:href="#linearGradient3700-3"/>
  <linearGradient id="linearGradient2932-5-2-79" x1="48" x2="48" y1="90" y2="5.9877" gradientTransform="matrix(.19048 0 0 .19048 66.291 63.803)" gradientUnits="userSpaceOnUse" xlink:href="#linearGradient3700-3"/>
  <linearGradient id="linearGradient2932-5-2-37" x1="48" x2="48" y1="90" y2="5.9877" gradientTransform="matrix(.19048 0 0 .19048 74.291 63.803)" gradientUnits="userSpaceOnUse" xlink:href="#linearGradient3700-3"/>
  <linearGradient id="linearGradient2932-5-3-6-8" x1="48" x2="48" y1="90" y2="5.9877" gradientTransform="matrix(.19048 0 0 .19048 58.291 47.803)" gradientUnits="userSpaceOnUse" xlink:href="#linearGradient4678"/>
  <linearGradient id="linearGradient2932-5-3-6-6" x1="48" x2="48" y1="90" y2="5.9877" gradientTransform="matrix(.19048 0 0 .19048 10.291 47.803)" gradientUnits="userSpaceOnUse" xlink:href="#linearGradient3744"/>
  <linearGradient id="linearGradient2932-5-3-6-6-3" x1="48" x2="48" y1="90" y2="5.9877" gradientTransform="matrix(.19048 0 0 .19048 10.291 39.803)" gradientUnits="userSpaceOnUse" xlink:href="#linearGradient3744"/>
  <linearGradient id="linearGradient2932-5-3-6-4" x1="48" x2="48" y1="90" y2="5.9877" gradientTransform="matrix(.19048 0 0 .19048 18.291 39.803)" gradientUnits="userSpaceOnUse" xlink:href="#linearGradient3744"/>
  <linearGradient id="linearGradient2932-5-3-6-6-4" x1="48" x2="48" y1="90" y2="5.9877" gradientTransform="matrix(.19048 0 0 .19048 10.291 31.803)" gradientUnits="userSpaceOnUse" xlink:href="#linearGradient3744"/>
  <linearGradient id="linearGradient2932-5-3-6-3" x1="48" x2="48" y1="90" y2="5.9877" gradientTransform="matrix(.19048 0 0 .19048 18.291 31.803)" gradientUnits="userSpaceOnUse" xlink:href="#linearGradient3744"/>
  <linearGradient id="linearGradient2932-5-3-6-6-0" x1="48" x2="48" y1="90" y2="5.9877" gradientTransform="matrix(.19048 0 0 .19048 10.291 23.803)" gradientUnits="userSpaceOnUse" xlink:href="#linearGradient3744"/>
  <linearGradient id="linearGradient2932-5-3-6-2" x1="48" x2="48" y1="90" y2="5.9877" gradientTransform="matrix(.19048 0 0 .19048 18.291 23.803)" gradientUnits="userSpaceOnUse" xlink:href="#linearGradient3744"/>
  <linearGradient id="linearGradient2932-5-3-6-2-1" x1="48" x2="48" y1="90" y2="5.9877" gradientTransform="matrix(.19048 0 0 .19048 18.291 15.803)" gradientUnits="userSpaceOnUse" xlink:href="#linearGradient3744"/>
  <linearGradient id="linearGradient2932-5-3-6-6-0-4" x1="48" x2="48" y1="90" y2="5.9877" gradientTransform="matrix(.19048 0 0 .19048 10.291 15.803)" gradientUnits="userSpaceOnUse" xlink:href="#linearGradient3744"/>
  <linearGradient id="linearGradient2932-5-3-6-6-0-4-5" x1="48" x2="48" y1="90" y2="5.9877" gradientTransform="matrix(.19048 0 0 .19048 10.291 7.8033)" gradientUnits="userSpaceOnUse" xlink:href="#linearGradient3744"/>
  <linearGradient id="linearGradient2932-5-2-7-3-7" x1="48" x2="48" y1="90" y2="5.9877" gradientTransform="matrix(.19048 0 0 .19048 34.291 47.803)" gradientUnits="userSpaceOnUse" xlink:href="#linearGradient4747"/>
  <linearGradient id="linearGradient2932-5-2-7-3-7-5" x1="48" x2="48" y1="90" y2="5.9877" gradientTransform="matrix(.19048 0 0 .19048 42.291 47.803)" gradientUnits="userSpaceOnUse" xlink:href="#linearGradient4747"/>
  <linearGradient id="linearGradient2932-5-2-7-3-7-4" x1="48" x2="48" y1="90" y2="5.9877" gradientTransform="matrix(.19048 0 0 .19048 50.291 47.803)" gradientUnits="userSpaceOnUse" xlink:href="#linearGradient4747"/>
  <linearGradient id="linearGradient2932-5-2-7-3-7-8" x1="48" x2="48" y1="90" y2="5.9877" gradientTransform="matrix(.19048 0 0 .19048 50.291 39.803)" gradientUnits="userSpaceOnUse" xlink:href="#linearGradient4747"/>
  <linearGradient id="linearGradient2932-5-2-7-3-7-43" x1="48" x2="48" y1="90" y2="5.9877" gradientTransform="matrix(.19048 0 0 .19048 42.291 39.803)" gradientUnits="userSpaceOnUse" xlink:href="#linearGradient4747"/>
  <linearGradient id="linearGradient2932-5-2-7-3-7-2" x1="48" x2="48" y1="90" y2="5.9877" gradientTransform="matrix(.19048 0 0 .19048 34.291 39.803)" gradientUnits="userSpaceOnUse" xlink:href="#linearGradient4747"/>
  <linearGradient id="linearGradient2932-5-2-7-3-7-26" x1="48" x2="48" y1="90" y2="5.9877" gradientTransform="matrix(.19048 0 0 .19048 26.291 39.803)" gradientUnits="userSpaceOnUse" xlink:href="#linearGradient4747"/>
  <linearGradient id="linearGradient2932-5-2-7-3-7-0" x1="48" x2="48" y1="90" y2="5.9877" gradientTransform="matrix(.19048 0 0 .19048 26.291 31.803)" gradientUnits="userSpaceOnUse" xlink:href="#linearGradient4747"/>
  <linearGradient id="linearGradient2932-5-2-7-3-7-7" x1="48" x2="48" y1="90" y2="5.9877" gradientTransform="matrix(.19048 0 0 .19048 34.291 31.803)" gradientUnits="userSpaceOnUse" xlink:href="#linearGradient4747"/>
  <linearGradient id="linearGradient2932-5-2-7-3-7-261" x1="48" x2="48" y1="90" y2="5.9877" gradientTransform="matrix(.19048 0 0 .19048 42.291 31.803)" gradientUnits="userSpaceOnUse" xlink:href="#linearGradient4747"/>
  <linearGradient id="linearGradient2932-5-2-7-3-7-59" x1="48" x2="48" y1="90" y2="5.9877" gradientTransform="matrix(.19048 0 0 .19048 50.291 31.803)" gradientUnits="userSpaceOnUse" xlink:href="#linearGradient4747"/>
  <linearGradient id="linearGradient2932-5-3-6-8-9" x1="48" x2="48" y1="90" y2="5.9877" gradientTransform="matrix(.19048 0 0 .19048 66.291 47.803)" gradientUnits="userSpaceOnUse" xlink:href="#linearGradient4678"/>
  <linearGradient id="linearGradient2932-5-3-6-8-1" x1="48" x2="48" y1="90" y2="5.9877" gradientTransform="matrix(.19048 0 0 .19048 74.291 47.803)" gradientUnits="userSpaceOnUse" xlink:href="#linearGradient4678"/>
  <linearGradient id="linearGradient2932-5-3-6-8-7" x1="48" x2="48" y1="90" y2="5.9877" gradientTransform="matrix(.19048 0 0 .19048 58.291 39.803)" gradientUnits="userSpaceOnUse" xlink:href="#linearGradient4678"/>
  <linearGradient id="linearGradient2932-5-3-6-8-6" x1="48" x2="48" y1="90" y2="5.9877" gradientTransform="matrix(.19048 0 0 .19048 58.291 31.803)" gradientUnits="userSpaceOnUse" xlink:href="#linearGradient4678"/>
  <linearGradient id="linearGradient2932-5-3-6-8-94" x1="48" x2="48" y1="90" y2="5.9877" gradientTransform="matrix(.19048 0 0 .19048 58.291 23.803)" gradientUnits="userSpaceOnUse" xlink:href="#linearGradient4678"/>
  <linearGradient id="linearGradient2932-5-3-6-8-93" x1="48" x2="48" y1="90" y2="5.9877" gradientTransform="matrix(.19048 0 0 .19048 58.291 15.803)" gradientUnits="userSpaceOnUse" xlink:href="#linearGradient4678"/>
  <linearGradient id="linearGradient2932-5-3-6-8-8" x1="48" x2="48" y1="90" y2="5.9877" gradientTransform="matrix(.19048 0 0 .19048 66.291 15.803)" gradientUnits="userSpaceOnUse" xlink:href="#linearGradient4678"/>
  <linearGradient id="linearGradient2932-5-3-6-8-3" x1="48" x2="48" y1="90" y2="5.9877" gradientTransform="matrix(.19048 0 0 .19048 74.291 15.803)" gradientUnits="userSpaceOnUse" xlink:href="#linearGradient4678"/>
  <linearGradient id="linearGradient2932-5-3-6-8-11" x1="48" x2="48" y1="90" y2="5.9877" gradientTransform="matrix(.19048 0 0 .19048 66.291 23.803)" gradientUnits="userSpaceOnUse" xlink:href="#linearGradient4678"/>
  <linearGradient id="linearGradient2932-5-3-6-8-81" x1="48" x2="48" y1="90" y2="5.9877" gradientTransform="matrix(.19048 0 0 .19048 74.291 23.803)" gradientUnits="userSpaceOnUse" xlink:href="#linearGradient4678"/>
  <linearGradient id="linearGradient2932-5-3-6-8-4" x1="48" x2="48" y1="90" y2="5.9877" gradientTransform="matrix(.19048 0 0 .19048 66.291 31.803)" gradientUnits="userSpaceOnUse" xlink:href="#linearGradient4678"/>
  <linearGradient id="linearGradient2932-5-3-6-8-76" x1="48" x2="48" y1="90" y2="5.9877" gradientTransform="matrix(.19048 0 0 .19048 74.291 31.803)" gradientUnits="userSpaceOnUse" xlink:href="#linearGradient4678"/>
  <linearGradient id="linearGradient2932-5-3-6-8-96" x1="48" x2="48" y1="90" y2="5.9877" gradientTransform="matrix(.19048 0 0 .19048 66.291 39.803)" gradientUnits="userSpaceOnUse" xlink:href="#linearGradient4678"/>
  <linearGradient id="linearGradient2932-5-3-6-8-5" x1="48" x2="48" y1="90" y2="5.9877" gradientTransform="matrix(.19048 0 0 .19048 74.291 39.803)" gradientUnits="userSpaceOnUse" xlink:href="#linearGradient4678"/>
  <linearGradient id="linearGradient2932-5-3-6-6-0-4-5-8" x1="48" x2="48" y1="90" y2="5.9877" gradientTransform="matrix(.19048 0 0 .19048 74.291 7.8033)" gradientUnits="userSpaceOnUse" xlink:href="#linearGradient3744"/>
  <linearGradient id="linearGradient2932-5-2-5" x1="48" x2="48" y1="90" y2="5.9877" gradientTransform="matrix(.19048 0 0 .19048 26.291 47.803)" gradientUnits="userSpaceOnUse" xlink:href="#linearGradient3700-3"/>
 </defs>
 <metadata id="metadata2413">
  <rdf:RDF>
   <cc:Work rdf:about="">
    <dc:format>image/svg+xml</dc:format>
    <dc:type rdf:resource="http://purl.org/dc/dcmitype/StillImage"/>
    <dc:title/>
   </cc:Work>
  </rdf:RDF>
 </metadata>
 <g id="layer2" display="none">
  <rect id="rect3745" x="5" y="7" width="86" height="85" rx="6" ry="6" fill="url(#ButtonShadow)" filter="url(#filter3174)" opacity=".9"/>
 </g>
 <g id="layer3">
  <path id="path3786" transform="scale(1,-1)" d="m12-95.031c-5.5111 0-10.031 4.5202-10.031 10.031v71c0 5.5111 4.5202 10.031 10.031 10.031h72c5.5111 0 10.031-4.5202 10.031-10.031v-71c0-5.5111-4.5202-10.031-10.031-10.031h-72z" fill="url(#linearGradient3780)" opacity=".08"/>
  <path id="path3778" transform="scale(1,-1)" d="m12-94.031c-4.9716 0-9.0312 4.0596-9.0312 9.0312v71c0 4.9716 4.0596 9.0312 9.0312 9.0312h72c4.9716 0 9.0312-4.0596 9.0312-9.0312v-71c0-4.9716-4.0596-9.0312-9.0312-9.0312h-72z" fill="url(#linearGradient3780)" opacity=".1"/>
  <path id="path3770" transform="scale(1,-1)" d="m12-93c-4.4091 0-8 3.5909-8 8v71c0 4.4091 3.5909 8 8 8h72c4.4091 0 8-3.5909 8-8v-71c0-4.4091-3.5909-8-8-8h-72z" fill="url(#linearGradient3780)" opacity=".2"/>
  <rect id="rect3723" transform="scale(1,-1)" x="5" y="-92" width="86" height="85" rx="7" ry="7" fill="url(#linearGradient3780)" opacity=".3"/>
  <rect id="rect3716" transform="scale(1,-1)" x="6" y="-91" width="84" height="84" rx="6" ry="6" fill="url(#linearGradient3721)" opacity=".45"/>
 </g>
 <g id="layer1">
  <rect id="rect2419" x="6" y="6" width="84" height="84" rx="6" ry="6" fill="url(#linearGradient3617)"/>
  <path id="rect3728" d="m12 6c-3.324 0-6 2.676-6 6v2 68 2c0 0.33472 0.04135 0.6507 0.09375 0.96875 0.0487 0.2956 0.09704 0.59692 0.1875 0.875 0.00988 0.03038 0.020892 0.0636 0.03125 0.09375 0.098865 0.28777 0.23488 0.54745 0.375 0.8125 0.14459 0.27351 0.31562 0.53562 0.5 0.78125s0.37378 0.47347 0.59375 0.6875c0.43995 0.42806 0.94291 0.81453 1.5 1.0938 0.27854 0.13961 0.57347 0.24695 0.875 0.34375-0.2562-0.10022-0.48671-0.23627-0.71875-0.375-0.00741-0.0044-0.023866 0.0045-0.03125 0-0.031933-0.0193-0.062293-0.04251-0.09375-0.0625-0.1204-0.0767-0.23102-0.16351-0.34375-0.25-0.10617-0.0808-0.21328-0.16111-0.3125-0.25-0.17793-0.16143-0.34746-0.34539-0.5-0.53125-0.10758-0.13026-0.21839-0.26528-0.3125-0.40625-0.025089-0.03838-0.038446-0.08587-0.0625-0.125-0.064763-0.10303-0.13023-0.20452-0.1875-0.3125-0.10101-0.19471-0.20567-0.4157-0.28125-0.625-0.00796-0.02181-0.023589-0.04055-0.03125-0.0625-0.031825-0.09195-0.035804-0.18683-0.0625-0.28125-0.030332-0.10662-0.070389-0.20303-0.09375-0.3125-0.072879-0.34151-0.125-0.6982-0.125-1.0625v-2-68-2c0-2.7818 2.2182-5 5-5h2 68 2c2.7818 0 5 2.2182 5 5v2 68 2c0 0.3643-0.05212 0.72099-0.125 1.0625-0.04415 0.20689-0.08838 0.39766-0.15625 0.59375-0.0077 0.02195-0.0233 0.04069-0.03125 0.0625-0.06274 0.17374-0.13838 0.36745-0.21875 0.53125-0.04158 0.0828-0.07904 0.16995-0.125 0.25-0.0546 0.09721-0.12677 0.18835-0.1875 0.28125-0.09411 0.14096-0.20492 0.276-0.3125 0.40625-0.14317 0.17445-0.30314 0.347-0.46875 0.5-0.01117 0.0102-0.02 0.02115-0.03125 0.03125-0.13839 0.12556-0.28509 0.23444-0.4375 0.34375-0.10257 0.07315-0.20432 0.15336-0.3125 0.21875-0.0074 0.0045-0.02384-0.0044-0.03125 0-0.23204 0.13873-0.46255 0.27478-0.71875 0.375 0.30153-0.0968 0.59646-0.20414 0.875-0.34375 0.55709-0.27922 1.0601-0.66569 1.5-1.0938 0.21997-0.21403 0.40937-0.44186 0.59375-0.6875s0.35541-0.50774 0.5-0.78125c0.14012-0.26505 0.27614-0.52473 0.375-0.8125 0.01041-0.03078 0.02133-0.06274 0.03125-0.09375 0.09046-0.27808 0.1388-0.5794 0.1875-0.875 0.0524-0.31805 0.09375-0.63403 0.09375-0.96875v-2-68-2c0-3.324-2.676-6-6-6h-72z" fill="url(#linearGradient3188)" opacity=".5"/>
  <path id="path3615" d="m12 90c-3.324 0-6-2.676-6-6v-2-68-2c0-0.33472 0.04135-0.6507 0.09375-0.96875 0.0487-0.2956 0.09704-0.59692 0.1875-0.875 0.00988-0.03038 0.020892-0.0636 0.03125-0.09375 0.098865-0.28777 0.23488-0.54745 0.375-0.8125 0.14459-0.27351 0.31562-0.53562 0.5-0.78125s0.37378-0.47347 0.59375-0.6875c0.43995-0.42806 0.94291-0.81453 1.5-1.0938 0.27854-0.13961 0.57347-0.24695 0.875-0.34375-0.2562 0.10022-0.48671 0.23627-0.71875 0.375-0.00741 0.0044-0.023866-0.0045-0.03125 0-0.031933 0.0193-0.062293 0.04251-0.09375 0.0625-0.1204 0.0767-0.23102 0.16351-0.34375 0.25-0.10617 0.0808-0.21328 0.16111-0.3125 0.25-0.17793 0.16143-0.34746 0.34539-0.5 0.53125-0.10758 0.13026-0.21839 0.26528-0.3125 0.40625-0.025089 0.03838-0.038446 0.08587-0.0625 0.125-0.064763 0.10303-0.13023 0.20452-0.1875 0.3125-0.10101 0.19471-0.20567 0.4157-0.28125 0.625-0.00796 0.02181-0.023589 0.04055-0.03125 0.0625-0.031825 0.09195-0.035804 0.18683-0.0625 0.28125-0.030332 0.10662-0.070389 0.20303-0.09375 0.3125-0.072879 0.34151-0.125 0.6982-0.125 1.0625v2 68 2c0 2.7818 2.2182 5 5 5h2 68 2c2.7818 0 5-2.2182 5-5v-2-68-2c0-0.3643-0.05212-0.72099-0.125-1.0625-0.04415-0.20689-0.08838-0.39766-0.15625-0.59375-0.0077-0.02195-0.0233-0.04069-0.03125-0.0625-0.06274-0.17374-0.13838-0.36745-0.21875-0.53125-0.04158-0.0828-0.07904-0.16995-0.125-0.25-0.0546-0.09721-0.12677-0.18835-0.1875-0.28125-0.09411-0.14096-0.20492-0.276-0.3125-0.40625-0.14317-0.17445-0.30314-0.347-0.46875-0.5-0.01117-0.0102-0.01998-0.02115-0.03125-0.03125-0.13839-0.12556-0.28509-0.23444-0.4375-0.34375-0.10257-0.07315-0.20432-0.15336-0.3125-0.21875-0.0074-0.0045-0.02384 0.0044-0.03125 0-0.23204-0.13873-0.46255-0.27478-0.71875-0.375 0.30153 0.0968 0.59646 0.20414 0.875 0.34375 0.55709 0.27922 1.0601 0.66569 1.5 1.0938 0.21997 0.21403 0.40937 0.44186 0.59375 0.6875s0.35541 0.50774 0.5 0.78125c0.14012 0.26505 0.27614 0.52473 0.375 0.8125 0.01041 0.03078 0.02133 0.06274 0.03125 0.09375 0.09046 0.27808 0.1388 0.5794 0.1875 0.875 0.0524 0.31805 0.09375 0.63403 0.09375 0.96875v2 68 2c0 3.324-2.676 6-6 6h-72z" fill="url(#radialGradient3619)" opacity=".2"/>
 </g>
 <g id="layer5">
  <rect id="rect3171" x="15" y="15" width="66" height="66" rx="12" ry="12" clip-path="url(#clipPath3613)" fill="url(#linearGradient3613)" filter="url(#filter3794)" opacity=".1" stroke="#fefefe" stroke-linecap="round" stroke-width=".5"/>
 </g>
 <rect id="rect2924-6-2" x="19.434" y="72.946" width="8" height="8" rx="1" ry="1" fill="url(#linearGradient2932-5-2)"/>
 <rect id="rect2924-6-6-7" x="19.434" y="56.946" width="8" height="8" rx="1" ry="1" fill="url(#linearGradient2932-5-3-6)"/>
 <rect id="rect2924-6-2-5" x="27.434" y="72.946" width="8" height="8" rx="1" ry="1" fill="url(#linearGradient2932-5-2-3)"/>
 <rect id="rect2924-6-2-9" x="35.434" y="72.946" width="8" height="8" rx="1" ry="1" fill="url(#linearGradient2932-5-2-35)"/>
 <rect id="rect2924-6-2-0" x="43.434" y="72.946" width="8" height="8" rx="1" ry="1" fill="url(#linearGradient2932-5-2-1)"/>
 <rect id="rect2924-6-2-06" x="51.434" y="72.946" width="8" height="8" rx="1" ry="1" fill="url(#linearGradient2932-5-2-9)"/>
 <rect id="rect2924-6-2-8" x="59.434" y="72.946" width="8" height="8" rx="1" ry="1" fill="url(#linearGradient2932-5-2-2)"/>
 <rect id="rect2924-6-2-2" x="67.434" y="72.946" width="8" height="8" rx="1" ry="1" fill="url(#linearGradient2932-5-2-79)"/>
 <rect id="rect2924-6-2-22" x="75.434" y="72.946" width="8" height="8" rx="1" ry="1" fill="url(#linearGradient2932-5-2-37)"/>
 <rect id="rect2924-6-6-7-3" x="59.434" y="56.946" width="8" height="8" rx="1" ry="1" fill="url(#linearGradient2932-5-3-6-8)"/>
 <rect id="rect2924-6-6-7-9" x="11.434" y="56.946" width="8" height="8" rx="1" ry="1" fill="url(#linearGradient2932-5-3-6-6)"/>
 <rect id="rect2924-6-6-7-7" x="19.434" y="48.946" width="8" height="8" rx="1" ry="1" fill="url(#linearGradient2932-5-3-6-4)"/>
 <rect id="rect2924-6-6-7-9-8" x="11.434" y="48.946" width="8" height="8" rx="1" ry="1" fill="url(#linearGradient2932-5-3-6-6-3)"/>
 <rect id="rect2924-6-6-7-6" x="19.434" y="40.946" width="8" height="8" rx="1" ry="1" fill="url(#linearGradient2932-5-3-6-3)"/>
 <rect id="rect2924-6-6-7-9-1" x="11.434" y="40.946" width="8" height="8" rx="1" ry="1" fill="url(#linearGradient2932-5-3-6-6-4)"/>
 <rect id="rect2924-6-6-7-0" x="19.434" y="32.946" width="8" height="8" rx="1" ry="1" fill="url(#linearGradient2932-5-3-6-2)"/>
 <rect id="rect2924-6-6-7-9-6" x="11.434" y="32.946" width="8" height="8" rx="1" ry="1" fill="url(#linearGradient2932-5-3-6-6-0)"/>
 <rect id="rect2924-6-6-7-0-7" x="19.434" y="24.946" width="8" height="8" rx="1" ry="1" fill="url(#linearGradient2932-5-3-6-2-1)"/>
 <rect id="rect2924-6-6-7-9-6-6" x="11.434" y="24.946" width="8" height="8" rx="1" ry="1" fill="url(#linearGradient2932-5-3-6-6-0-4)"/>
 <rect id="rect2924-6-6-7-9-6-6-3" x="11.434" y="16.946" width="8" height="8" rx="1" ry="1" fill="url(#linearGradient2932-5-3-6-6-0-4-5)"/>
 <rect id="rect2924-6-2-2-9-2" x="35.434" y="56.946" width="8" height="8" rx="1" ry="1" fill="url(#linearGradient2932-5-2-7-3-7)"/>
 <rect id="rect2924-6-2-2-9-2-4" x="43.434" y="56.946" width="8" height="8" rx="1" ry="1" fill="url(#linearGradient2932-5-2-7-3-7-5)"/>
 <rect id="rect2924-6-2-2-9-2-7" x="51.434" y="56.946" width="8" height="8" rx="1" ry="1" fill="url(#linearGradient2932-5-2-7-3-7-4)"/>
 <rect id="rect2924-6-2-2-9-2-8" x="51.434" y="48.946" width="8" height="8" rx="1" ry="1" fill="url(#linearGradient2932-5-2-7-3-7-8)"/>
 <rect id="rect2924-6-2-2-9-2-9" x="43.434" y="48.946" width="8" height="8" rx="1" ry="1" fill="url(#linearGradient2932-5-2-7-3-7-43)"/>
 <rect id="rect2924-6-2-2-9-2-89" x="35.434" y="48.946" width="8" height="8" rx="1" ry="1" fill="url(#linearGradient2932-5-2-7-3-7-2)"/>
 <rect id="rect2924-6-2-2-9-2-95" x="27.434" y="48.946" width="8" height="8" rx="1" ry="1" fill="url(#linearGradient2932-5-2-7-3-7-26)"/>
 <rect id="rect2924-6-2-2-9-2-71" x="27.434" y="40.946" width="8" height="8" rx="1" ry="1" fill="url(#linearGradient2932-5-2-7-3-7-0)"/>
 <rect id="rect2924-6-2-2-9-2-2" x="35.434" y="40.946" width="8" height="8" rx="1" ry="1" fill="url(#linearGradient2932-5-2-7-3-7-7)"/>
 <rect id="rect2924-6-2-2-9-2-1" x="43.434" y="40.946" width="8" height="8" rx="1" ry="1" fill="url(#linearGradient2932-5-2-7-3-7-261)"/>
 <rect id="rect2924-6-2-2-9-2-0" x="51.434" y="40.946" width="8" height="8" rx="1" ry="1" fill="url(#linearGradient2932-5-2-7-3-7-59)"/>
 <rect id="rect2924-6-6-7-3-7" x="67.434" y="56.946" width="8" height="8" rx="1" ry="1" fill="url(#linearGradient2932-5-3-6-8-9)"/>
 <rect id="rect2924-6-6-7-3-9" x="75.434" y="56.946" width="8" height="8" rx="1" ry="1" fill="url(#linearGradient2932-5-3-6-8-1)"/>
 <rect id="rect2924-6-6-7-3-73" x="59.434" y="48.946" width="8" height="8" rx="1" ry="1" fill="url(#linearGradient2932-5-3-6-8-7)"/>
 <rect id="rect2924-6-6-7-3-3" x="59.434" y="40.946" width="8" height="8" rx="1" ry="1" fill="url(#linearGradient2932-5-3-6-8-6)"/>
 <rect id="rect2924-6-6-7-3-2" x="59.434" y="32.946" width="8" height="8" rx="1" ry="1" fill="url(#linearGradient2932-5-3-6-8-94)"/>
 <rect id="rect2924-6-6-7-3-8" x="59.434" y="24.946" width="8" height="8" rx="1" ry="1" fill="url(#linearGradient2932-5-3-6-8-93)"/>
 <rect id="rect2924-6-6-7-3-96" x="67.434" y="24.946" width="8" height="8" rx="1" ry="1" fill="url(#linearGradient2932-5-3-6-8-8)"/>
 <rect id="rect2924-6-6-7-3-6" x="75.434" y="24.946" width="8" height="8" rx="1" ry="1" fill="url(#linearGradient2932-5-3-6-8-3)"/>
 <rect id="rect2924-6-6-7-3-84" x="67.434" y="32.946" width="8" height="8" rx="1" ry="1" fill="url(#linearGradient2932-5-3-6-8-11)"/>
 <rect id="rect2924-6-6-7-3-0" x="75.434" y="32.946" width="8" height="8" rx="1" ry="1" fill="url(#linearGradient2932-5-3-6-8-81)"/>
 <rect id="rect2924-6-6-7-3-4" x="67.434" y="40.946" width="8" height="8" rx="1" ry="1" fill="url(#linearGradient2932-5-3-6-8-4)"/>
 <rect id="rect2924-6-6-7-3-75" x="75.434" y="40.946" width="8" height="8" rx="1" ry="1" fill="url(#linearGradient2932-5-3-6-8-76)"/>
 <rect id="rect2924-6-6-7-3-78" x="67.434" y="48.946" width="8" height="8" rx="1" ry="1" fill="url(#linearGradient2932-5-3-6-8-96)"/>
 <rect id="rect2924-6-6-7-3-1" x="75.434" y="48.946" width="8" height="8" rx="1" ry="1" fill="url(#linearGradient2932-5-3-6-8-5)"/>
 <rect id="rect2924-6-6-7-9-6-6-3-7" x="75.434" y="16.946" width="8" height="8" rx="1" ry="1" fill="url(#linearGradient2932-5-3-6-6-0-4-5-8)"/>
 <rect id="rect2924-6-2-83" x="27.434" y="56.946" width="8" height="8" rx="1" ry="1" fill="url(#linearGradient2932-5-2-5)"/>
</svg>
