<?xml version="1.0" encoding="UTF-8"?>
<!-- Created with Inkscape (http://www.inkscape.org/) -->
<svg id="svg2408" width="96" height="96" enable-background="new" version="1.0" xmlns="http://www.w3.org/2000/svg" xmlns:cc="http://creativecommons.org/ns#" xmlns:dc="http://purl.org/dc/elements/1.1/" xmlns:rdf="http://www.w3.org/1999/02/22-rdf-syntax-ns#" xmlns:xlink="http://www.w3.org/1999/xlink">
 <defs id="defs2410">
  <radialGradient id="radialGradient3465" cx="56.066" cy="-15.871" r="35.938" gradientTransform="matrix(.0022597 .92548 -1.3844 0 25.902 -30.211)" gradientUnits="userSpaceOnUse">
   <stop id="stop3226" stop-color="#80a2c8" offset="0"/>
   <stop id="stop3228" stop-color="#2e4c6d" offset="1"/>
  </radialGradient>
  <linearGradient id="ButtonShadow" x1="45.448" x2="45.448" y1="92.54" y2="7.0165" gradientTransform="scale(1.0059 .99417)" gradientUnits="userSpaceOnUse">
   <stop id="stop3750" offset="0"/>
   <stop id="stop3752" stop-opacity=".58824" offset="1"/>
  </linearGradient>
  <linearGradient id="linearGradient3737">
   <stop id="stop3739" stop-color="#fff" offset="0"/>
   <stop id="stop3741" stop-color="#fff" stop-opacity="0" offset="1"/>
  </linearGradient>
  <filter id="filter3174" color-interpolation-filters="sRGB">
   <feGaussianBlur id="feGaussianBlur3176" stdDeviation="1.71"/>
  </filter>
  <linearGradient id="linearGradient3188" x1="36.357" x2="36.357" y1="6" y2="63.893" gradientUnits="userSpaceOnUse" xlink:href="#linearGradient3737"/>
  <linearGradient id="linearGradient3436" x1="43.179" x2="43.179" y1="13" y2="83.295" gradientTransform="matrix(1.0294 0 0 1.0294 -1.4118 -1.4118)" gradientUnits="userSpaceOnUse">
   <stop id="stop3467" stop-color="#919191" offset="0"/>
   <stop id="stop3469" stop-color="#fdfdfd" offset="1"/>
  </linearGradient>
  <linearGradient id="linearGradient3466" x1="48" x2="48" y1="90" y2="5.9877" gradientUnits="userSpaceOnUse">
   <stop id="stop3189" stop-color="#b4b4b4" offset="0"/>
   <stop id="stop3191" stop-color="#e6e6e6" offset="1"/>
  </linearGradient>
  <linearGradient id="linearGradient3693" x1="76.451" x2="76.451" y1="8.0625" y2="72.766" gradientUnits="userSpaceOnUse">
   <stop id="stop3689" stop-color="#fff" offset="0"/>
   <stop id="stop3691" stop-color="#fff" stop-opacity="0" offset="1"/>
  </linearGradient>
  <linearGradient id="linearGradient3701" x1="65.156" x2="65.156" y1="16.125" y2="69.688" gradientUnits="userSpaceOnUse">
   <stop id="stop3489" stop-color="#9cb7d2" offset="0"/>
   <stop id="stop3491" stop-color="#e7edf3" stop-opacity="0" offset="1"/>
  </linearGradient>
  <linearGradient id="linearGradient2675" x1="65.156" x2="65.156" y1="16.125" y2="69.688" gradientUnits="userSpaceOnUse" xlink:href="#linearGradient3737"/>
  <radialGradient id="radialGradient2893" cx="48" cy="90.172" r="42" gradientTransform="matrix(1.1573 0 0 .99591 -7.551 .19713)" gradientUnits="userSpaceOnUse">
   <stop id="stop3739-7" stop-color="#fff" offset="0"/>
   <stop id="stop3741-2" stop-color="#fff" stop-opacity="0" offset="1"/>
  </radialGradient>
  <linearGradient id="ButtonShadow-0" x1="45.448" x2="45.448" y1="92.54" y2="7.0165" gradientTransform="matrix(1.0059 0 0 .99417 100 0)" gradientUnits="userSpaceOnUse">
   <stop id="stop3750-8" offset="0"/>
   <stop id="stop3752-5" stop-opacity=".58824" offset="1"/>
  </linearGradient>
  <linearGradient id="linearGradient3780" x1="32.251" x2="32.251" y1="6.1317" y2="90.239" gradientTransform="matrix(1.0238 0 0 1.0119 -1.1429 -98.071)" gradientUnits="userSpaceOnUse" xlink:href="#ButtonShadow-0"/>
  <linearGradient id="linearGradient3721" x1="32.251" x2="32.251" y1="6.1317" y2="90.239" gradientTransform="translate(0,-97)" gradientUnits="userSpaceOnUse" xlink:href="#ButtonShadow-0"/>
  <radialGradient id="radialGradient4528" cx="56.066" cy="-15.871" r="35.938" gradientTransform="matrix(.0022597 .92548 -1.3844 0 25.902 -30.211)" gradientUnits="userSpaceOnUse">
   <stop id="stop3177-5" stop-color="#4490e6" offset="0"/>
   <stop id="stop3179-7" stop-color="#103d8f" offset="1"/>
  </radialGradient>
  <clipPath id="clipPath4038">
   <path id="path4040" d="m-76 14v64h68v-64h-68zm34 12c6.5074 0 11.781 4.9455 11.781 11.031-0.02598 0.76483-0.09415 1.6051-0.15625 2.5 0.88909 0.6687 0.99735 2.6592 0.125 4.7188-0.31486 0.74336-0.72972 1.3526-1.1562 1.875-0.13796 0.64609-0.22861 1.1538-0.40625 1.9062-0.48333 1.4529-2.3681 4.3299-3.8125 6.5625-0.09309 1.4848-0.05787 2.9613 0.125 4.4688 4.5167 3.9354 16.263 6.0693 16.281 9.4375l0.21875 1.5h-46l0.21875-1.5c-0.0175-3.9354 11.677-5.6361 16.25-9.4375 0.31875-1.8622 0.31468-3.4879 0.15625-5.125-1.5887-2.1222-3.3759-4.5938-3.8125-5.9062-0.14093-0.64634-0.22721-1.0832-0.34375-1.6562-0.0164-0.01791-0.0462-0.04411-0.0625-0.0625-0.48819-0.55032-0.98953-1.2262-1.3438-2.0625-0.9186-2.1687-0.77983-4.3249 0.25-4.875-0.0723-0.8675-0.078-1.6463-0.0937-2.3438-5e-5 -6.0858 5.2738-11.031 11.781-11.031z" fill="#f0f"/>
  </clipPath>
  <filter id="filter4034" x="-.23478" y="-.24545" width="1.4696" height="1.4909" color-interpolation-filters="sRGB">
   <feGaussianBlur id="feGaussianBlur4036" stdDeviation="4.4999998"/>
  </filter>
 </defs>
 <metadata id="metadata2413">
  <rdf:RDF>
   <cc:Work rdf:about="">
    <dc:format>image/svg+xml</dc:format>
    <dc:type rdf:resource="http://purl.org/dc/dcmitype/StillImage"/>
   </cc:Work>
  </rdf:RDF>
 </metadata>
 <g id="layer2" display="none">
  <rect id="rect3745" x="5" y="7" width="86" height="85" rx="6" ry="6" fill="url(#ButtonShadow)" filter="url(#filter3174)" opacity=".9"/>
 </g>
 <g id="layer4">
  <path id="path3786" transform="scale(1,-1)" d="m12-95.031c-5.5111 0-10.031 4.5202-10.031 10.031v71c0 5.5111 4.5202 10.031 10.031 10.031h72c5.5111 0 10.031-4.5202 10.031-10.031v-71c0-5.5111-4.5202-10.031-10.031-10.031h-72z" fill="url(#linearGradient3780)" opacity=".08"/>
  <path id="path3778" transform="scale(1,-1)" d="m12-94.031c-4.9716 0-9.0312 4.0596-9.0312 9.0312v71c0 4.9716 4.0596 9.0312 9.0312 9.0312h72c4.9716 0 9.0312-4.0596 9.0312-9.0312v-71c0-4.9716-4.0596-9.0312-9.0312-9.0312h-72z" fill="url(#linearGradient3780)" opacity=".1"/>
  <path id="path3770" transform="scale(1,-1)" d="m12-93c-4.4091 0-8 3.5909-8 8v71c0 4.4091 3.5909 8 8 8h72c4.4091 0 8-3.5909 8-8v-71c0-4.4091-3.5909-8-8-8h-72z" fill="url(#linearGradient3780)" opacity=".2"/>
  <rect id="rect3723" transform="scale(1,-1)" x="5" y="-92" width="86" height="85" rx="7" ry="7" fill="url(#linearGradient3780)" opacity=".3"/>
  <rect id="rect3716" transform="scale(1,-1)" x="6" y="-91" width="84" height="84" rx="6" ry="6" fill="url(#linearGradient3721)" opacity=".45"/>
 </g>
 <g id="layer3">
  <path id="path3215-2" transform="matrix(-1.0009 0 0 -1.334 96.01 99.966)" d="m12.062 12.062v53.875h71.875v-53.875h-71.875z" fill="url(#radialGradient4528)"/>
  <rect id="rect4345" x="-78.214" y="12" width="72.536" height="10" rx="3.0291" ry="2.383" fill="#c3d9f5" opacity=".4"/>
  <rect id="rect4832" x="-78.214" y="74" width="72.536" height="10" rx="3.0291" ry="2.383" fill="#c3d9f5" opacity=".4"/>
  <path id="path3215" transform="matrix(-1.0009 0 0 -1.334 -3.9896 99.966)" d="m12.062 12.062v53.875h71.875v-53.875h-71.875z" fill="url(#radialGradient3465)"/>
  <path id="rect3222" d="m19 13c-3.2894 0-6 2.7106-6 6v58c0 3.2894 2.7106 6 6 6h58c3.2894 0 6-2.7106 6-6v-58c0-3.2894-2.7106-6-6-6h-58zm0 4h58c1.1426 0 2 0.85741 2 2v58c0 1.1426-0.85741 2-2 2h-58c-1.1426 0-2-0.85741-2-2v-58c0-1.1426 0.85741-2 2-2z" color="#000000" enable-background="accumulate" opacity=".08" style="block-progression:tb;text-indent:0;text-transform:none"/>
  <path id="rect3981" d="m17 14c-1.662 0-3 1.338-3 3v62c0 1.662 1.338 3 3 3h62c1.662 0 3-1.338 3-3v-62c0-1.662-1.338-3-3-3h-62zm0 1.9375h62c0.61816 0 1.0625 0.44434 1.0625 1.0625v62c0 0.61816-0.44434 1.0625-1.0625 1.0625h-62c-0.61816 0-1.0625-0.44434-1.0625-1.0625v-62c0-0.61816 0.44434-1.0625 1.0625-1.0625z" color="#000000" enable-background="accumulate" opacity=".1"/>
  <path id="rect3977" d="m17 14c-1.662 0-3 1.338-3 3v62c0 1.662 1.338 3 3 3h62c1.662 0 3-1.338 3-3v-62c0-1.662-1.338-3-3-3h-62zm0 0.96875h62c1.1401 0 2.0312 0.89117 2.0312 2.0312v62c0 1.1401-0.89117 2.0312-2.0312 2.0312h-62c-1.1401 0-2.0312-0.89117-2.0312-2.0312v-62c0-1.1401 0.89117-2.0312 2.0312-2.0312z" color="#000000" enable-background="accumulate" opacity=".25"/>
  <path id="path4030" transform="translate(90,2)" d="m-42 26c-6.5074 0-11.778 4.9455-11.778 11.031 0.01581 0.69744 0.02037 1.4763 0.09275 2.3438-1.0298 0.5501-1.1659 2.7063-0.24731 4.875 0.35422 0.83627 0.84111 1.5122 1.3293 2.0625 0.01627 0.01839 0.04544 0.04458 0.06182 0.06249 0.11653 0.573 0.19912 1.0099 0.34005 1.6562 0.43658 1.3124 2.2447 3.7841 3.8333 5.9063 0.15843 1.6371 0.16418 3.2628-0.15457 5.125-4.5727 3.8014-16.278 5.5021-16.261 9.4375l-0.2164 1.5h46l-0.2164-1.5c-0.01865-3.3682-11.775-5.5021-16.292-9.4375-0.18287-1.5075-0.21675-2.984-0.12365-4.4687 1.4444-2.2326 3.35-5.1096 3.8333-6.5625 0.17764-0.75242 0.26392-1.2602 0.40188-1.9062 0.42653-0.52238 0.82896-1.1316 1.1438-1.875 0.87235-2.0595 0.76544-4.0501-0.12366-4.7188 0.06213-0.89489 0.1286-1.7352 0.15457-2.5 7e-6 -6.0857-5.2709-11.031-11.778-11.031z" clip-path="url(#clipPath4038)" enable-background="new" fill="#fff" filter="url(#filter4034)" opacity=".8"/>
  <path id="path3798-9" d="m48 28c-6.5074 0-11.778 4.9455-11.778 11.031 0.01581 0.69743 0.02037 1.4762 0.09275 2.3438-1.0298 0.5501-1.1659 2.7063-0.24731 4.875 0.35422 0.83627 0.84111 1.5122 1.3293 2.0625 0.01627 0.0184 0.04544 0.0446 0.06182 0.0625 0.11653 0.573 0.19912 1.0099 0.34005 1.6562 0.43658 1.3124 2.2447 3.7841 3.8333 5.9062 0.15843 1.6371 0.16418 3.2628-0.15457 5.125-4.5727 3.8014-16.278 5.5021-16.261 9.4375l-0.2164 1.5h46l-0.2164-1.5c-0.01865-3.3682-11.775-5.5021-16.292-9.4375-0.18287-1.5075-0.21675-2.984-0.12365-4.4688 1.4444-2.2326 3.35-5.1096 3.8333-6.5625 0.17764-0.75243 0.26392-1.2602 0.40188-1.9062 0.42653-0.52239 0.82896-1.1316 1.1438-1.875 0.87235-2.0595 0.76544-4.0501-0.12366-4.7188 0.06213-0.89489 0.1286-1.7352 0.15457-2.5 7e-6 -6.0857-5.2709-11.031-11.778-11.031z" enable-background="new" fill="#0a2559"/>
 </g>
 <g id="layer1">
  <path id="rect2419" d="m12 6c-3.324 0-6 2.676-6 6v72c0 3.324 2.676 6 6 6h72c3.324 0 6-2.676 6-6v-72c0-3.324-2.676-6-6-6h-72zm5 8h1 60 1c1.6838 0 3 1.3162 3 3v1 60 1c1e-6 1.6838-1.3162 3-3 3h-1-60-1c-1.6838 1e-6 -3-1.3162-3-3v-1-60-1c0-1.6838 1.3162-3 3-3z" fill="url(#linearGradient3466)"/>
  <path id="rect3728" d="m12 6c-3.324 0-6 2.676-6 6v2 68 2c0 0.33472 0.04135 0.6507 0.09375 0.96875 0.0487 0.2956 0.09704 0.59692 0.1875 0.875 0.00988 0.03038 0.020892 0.0636 0.03125 0.09375 0.098865 0.28777 0.23488 0.54745 0.375 0.8125 0.14459 0.27351 0.31562 0.53562 0.5 0.78125s0.37378 0.47347 0.59375 0.6875c0.43995 0.42806 0.94291 0.81453 1.5 1.0938 0.27854 0.13961 0.57347 0.24695 0.875 0.34375-0.2562-0.10022-0.48671-0.23627-0.71875-0.375-0.00741-0.0044-0.023866 0.0045-0.03125 0-0.031933-0.0193-0.062293-0.04251-0.09375-0.0625-0.1204-0.0767-0.23102-0.16351-0.34375-0.25-0.10617-0.0808-0.21328-0.16111-0.3125-0.25-0.17793-0.16143-0.34746-0.34539-0.5-0.53125-0.10758-0.13026-0.21839-0.26528-0.3125-0.40625-0.025089-0.03838-0.038446-0.08587-0.0625-0.125-0.064763-0.10303-0.13023-0.20452-0.1875-0.3125-0.10101-0.19471-0.20567-0.4157-0.28125-0.625-0.00796-0.02181-0.023589-0.04055-0.03125-0.0625-0.031825-0.09195-0.035804-0.18683-0.0625-0.28125-0.030332-0.10662-0.070389-0.20303-0.09375-0.3125-0.072879-0.34151-0.125-0.6982-0.125-1.0625v-2-68-2c0-2.7818 2.2182-5 5-5h2 68 2c2.7818 0 5 2.2182 5 5v2 68 2c0 0.3643-0.05212 0.72099-0.125 1.0625-0.04415 0.20689-0.08838 0.39766-0.15625 0.59375-0.0077 0.02195-0.0233 0.04069-0.03125 0.0625-0.06274 0.17374-0.13838 0.36745-0.21875 0.53125-0.04158 0.0828-0.07904 0.16995-0.125 0.25-0.0546 0.09721-0.12677 0.18835-0.1875 0.28125-0.09411 0.14096-0.20492 0.276-0.3125 0.40625-0.14317 0.17445-0.30314 0.347-0.46875 0.5-0.01117 0.0102-0.01998 0.02115-0.03125 0.03125-0.13839 0.12556-0.28509 0.23444-0.4375 0.34375-0.10257 0.07315-0.20432 0.15336-0.3125 0.21875-0.0074 0.0045-0.02384-0.0044-0.03125 0-0.23204 0.13873-0.46255 0.27478-0.71875 0.375 0.30153-0.0968 0.59646-0.20414 0.875-0.34375 0.55709-0.27922 1.0601-0.66569 1.5-1.0938 0.21997-0.21403 0.40937-0.44186 0.59375-0.6875s0.35541-0.50774 0.5-0.78125c0.14012-0.26505 0.27614-0.52473 0.375-0.8125 0.01041-0.03078 0.02133-0.06274 0.03125-0.09375 0.09046-0.27808 0.1388-0.5794 0.1875-0.875 0.0524-0.31805 0.09375-0.63403 0.09375-0.96875v-2-68-2c0-3.324-2.676-6-6-6h-72z" fill="url(#linearGradient3188)" opacity=".7"/>
  <rect id="rect3425" x="13" y="13" width="70" height="70" rx="4" ry="4" fill="none" stroke="url(#linearGradient3436)" stroke-linecap="square" stroke-linejoin="round" stroke-opacity=".69658" stroke-width="2"/>
  <path id="path3615" d="m12 90c-3.324 0-6-2.676-6-6v-2-68-2c0-0.33472 0.04135-0.6507 0.09375-0.96875 0.0487-0.2956 0.09704-0.59692 0.1875-0.875 0.00988-0.03038 0.020892-0.0636 0.03125-0.09375 0.098865-0.28777 0.23488-0.54745 0.375-0.8125 0.14459-0.27351 0.31562-0.53562 0.5-0.78125s0.37378-0.47347 0.59375-0.6875c0.43995-0.42806 0.94291-0.81453 1.5-1.0938 0.27854-0.13961 0.57347-0.24695 0.875-0.34375-0.2562 0.10022-0.48671 0.23627-0.71875 0.375-0.00741 0.0044-0.023866-0.0045-0.03125 0-0.031933 0.0193-0.062293 0.04251-0.09375 0.0625-0.1204 0.0767-0.23102 0.16351-0.34375 0.25-0.10617 0.0808-0.21328 0.16111-0.3125 0.25-0.17793 0.16143-0.34746 0.34539-0.5 0.53125-0.10758 0.13026-0.21839 0.26528-0.3125 0.40625-0.025089 0.03838-0.038446 0.08587-0.0625 0.125-0.064763 0.10303-0.13023 0.20452-0.1875 0.3125-0.10101 0.19471-0.20567 0.4157-0.28125 0.625-0.00796 0.02181-0.023589 0.04055-0.03125 0.0625-0.031825 0.09195-0.035804 0.18683-0.0625 0.28125-0.030332 0.10662-0.070389 0.20303-0.09375 0.3125-0.072879 0.34151-0.125 0.6982-0.125 1.0625v2 68 2c0 2.7818 2.2182 5 5 5h2 68 2c2.7818 0 5-2.2182 5-5v-2-68-2c0-0.3643-0.05212-0.72099-0.125-1.0625-0.04415-0.20689-0.08838-0.39766-0.15625-0.59375-0.0077-0.02195-0.0233-0.04069-0.03125-0.0625-0.06274-0.17374-0.13838-0.36745-0.21875-0.53125-0.04158-0.0828-0.07904-0.16995-0.125-0.25-0.0546-0.09721-0.12677-0.18835-0.1875-0.28125-0.09411-0.14096-0.20492-0.276-0.3125-0.40625-0.14317-0.17445-0.30314-0.347-0.46875-0.5-0.01117-0.0102-0.01998-0.02115-0.03125-0.03125-0.13839-0.12556-0.28509-0.23444-0.4375-0.34375-0.10257-0.07315-0.20432-0.15336-0.3125-0.21875-0.0074-0.0045-0.02384 0.0044-0.03125 0-0.23204-0.13873-0.46255-0.27478-0.71875-0.375 0.30153 0.0968 0.59646 0.20414 0.875 0.34375 0.55709 0.27922 1.0601 0.66569 1.5 1.0938 0.21997 0.21403 0.40937 0.44186 0.59375 0.6875s0.35541 0.50774 0.5 0.78125c0.14012 0.26505 0.27614 0.52473 0.375 0.8125 0.01041 0.03078 0.02133 0.06274 0.03125 0.09375 0.09046 0.27808 0.1388 0.5794 0.1875 0.875 0.0524 0.31805 0.09375 0.63403 0.09375 0.96875v2 68 2c0 3.324-2.676 6-6 6h-72z" fill="url(#radialGradient2893)" opacity=".4"/>
 </g>
 <g id="layer5" fill-rule="evenodd" opacity=".81281">
  <path id="path3660" d="m44.844 8.0625 1.3438 3.875h31.812 1c2.754 0 5.0625 2.3085 5.0625 5.0625v1 60 1c2e-6 2.754-2.3085 5.0625-5.0625 5.0625h-1-6.875l1.3438 3.875h11.531c2.2218 0 3.9375-1.7157 3.9375-3.9375v-72c0-2.2218-1.7157-3.9375-3.9375-3.9375h-39.156z" fill="url(#linearGradient3693)" opacity=".4"/>
  <path id="path3664" d="m47.656 16.125 22.031 63.75h9.3125c0.5388 0 0.875-0.3362 0.875-0.875v-62c0-0.5388-0.33619-0.875-0.875-0.875h-31.344z" fill="url(#linearGradient3701)" opacity=".7"/>
  <path id="path2669" d="m47.656 16.125 22.031 63.75h1l-22.031-63.75h-1z" fill="url(#linearGradient2675)" opacity=".5"/>
 </g>
</svg>
