<?xml version="1.0" encoding="UTF-8"?>
<svg id="svg2" width="96" height="96" enable-background="new" version="1.1" xmlns="http://www.w3.org/2000/svg" xmlns:cc="http://creativecommons.org/ns#" xmlns:dc="http://purl.org/dc/elements/1.1/" xmlns:rdf="http://www.w3.org/1999/02/22-rdf-syntax-ns#" xmlns:xlink="http://www.w3.org/1999/xlink">
 <metadata id="metadata213">
  <rdf:RDF>
   <cc:Work rdf:about="">
    <dc:format>image/svg+xml</dc:format>
    <dc:type rdf:resource="http://purl.org/dc/dcmitype/StillImage"/>
   </cc:Work>
  </rdf:RDF>
 </metadata>
 <defs id="defs4">
  <linearGradient id="h" stop-color="#fff">
   <stop id="stop7" offset="0"/>
   <stop id="stop9" stop-opacity="0" offset="1"/>
  </linearGradient>
  <clipPath id="av">
   <rect id="rect40" x="6" y="6" width="84" height="84" rx="6" ry="6" fill="#fff"/>
  </clipPath>
  <filter id="j" x="-.192" y="-.192" width="1.384" height="1.384" color-interpolation-filters="sRGB">
   <feGaussianBlur id="feGaussianBlur43" stdDeviation="5.28"/>
  </filter>
  <linearGradient id="k" x1="48" x2="48" y1="20.221" y2="138.66" stop-color="#fff" gradientUnits="userSpaceOnUse">
   <stop id="stop46" offset="0"/>
   <stop id="stop48" stop-opacity="0" offset="1"/>
  </linearGradient>
  <linearGradient id="f" x1="45.448" x2="45.448" y1="92.54" y2="7.0165" gradientTransform="matrix(1.0059 0 0 .99417 100 0)" gradientUnits="userSpaceOnUse">
   <stop id="stop51" offset="0"/>
   <stop id="stop53" stop-opacity=".58824" offset="1"/>
  </linearGradient>
  <radialGradient id="y" cx="93.877" cy="99.413" r="55.625" gradientTransform="matrix(-.0015832 -.80617 2.4983 -.0049063 -167.36 145.83)" gradientUnits="userSpaceOnUse">
   <stop id="stop56" stop-color="#917896" offset="0"/>
   <stop id="stop58" stop-color="#3c356e" offset=".5"/>
   <stop id="stop60" stop-color="#121132" offset="1"/>
  </radialGradient>
  <linearGradient id="au" x1="32.251" x2="32.251" y1="90" y2="6" gradientTransform="translate(0,1)" gradientUnits="userSpaceOnUse" xlink:href="#f"/>
  <linearGradient id="at" x1="32.251" x2="32.251" y1="90" y2="5.9996" gradientTransform="matrix(1.0238 0 0 1.0119 -1.1429 .929)" gradientUnits="userSpaceOnUse" xlink:href="#f"/>
  <linearGradient id="as" x1="32.251" x2="32.251" y1="6.1317" y2="90.239" gradientTransform="matrix(1.0238,0,0,-1.0119,-1.1429,98.071)" gradientUnits="userSpaceOnUse" xlink:href="#f"/>
  <radialGradient id="z" cx="48" cy="90.172" r="42" gradientTransform="matrix(1.1573 0 0 .99591 -7.551 .19713)" gradientUnits="userSpaceOnUse" xlink:href="#h"/>
  <linearGradient id="ar" x1="43.179" x2="43.179" y1="13" y2="83.295" gradientTransform="matrix(1.0294,0,0,1.0294,-1.4118,-1.4118)" gradientUnits="userSpaceOnUse">
   <stop id="stop67" stop-color="#919191" offset="0"/>
   <stop id="stop69" stop-color="#fdfdfd" offset="1"/>
  </linearGradient>
  <linearGradient id="aq" x1="36.357" x2="36.357" y1="6" y2="63.893" gradientUnits="userSpaceOnUse" xlink:href="#h"/>
  <linearGradient id="ap" x1="48" x2="48" y1="90" y2="5.9877" gradientUnits="userSpaceOnUse">
   <stop id="stop73" stop-color="#b4b4b4" offset="0"/>
   <stop id="stop75" stop-color="#e6e6e6" offset="1"/>
  </linearGradient>
  <linearGradient id="i" x1="65.156" x2="65.156" y1="16.125" y2="69.688" gradientUnits="userSpaceOnUse" xlink:href="#h"/>
  <linearGradient id="ab" x1="76.451" x2="76.451" y1="8.0625" y2="72.766" stop-color="#fff" gradientUnits="userSpaceOnUse">
   <stop id="stop109" offset="0"/>
   <stop id="stop111" stop-opacity="0" offset="1"/>
  </linearGradient>
  <linearGradient id="linearGradient3728" x1="56" x2="56" y1="72" y2="24" gradientUnits="userSpaceOnUse">
   <stop id="stop4083" stop-color="#aaa" offset="0"/>
   <stop id="stop4085" stop-color="#f0f0f0" offset="1"/>
  </linearGradient>
 </defs>
 <g id="g113" fill="url(#as)">
  <path id="path115" d="m12 95.031c-5.5111 0-10.031-4.52-10.031-10.031v-71c0-5.5111 4.5202-10.031 10.031-10.031h72c5.5111 0 10.031 4.5202 10.031 10.031v71c0 5.5111-4.5202 10.031-10.031 10.031h-72z" opacity=".08"/>
  <path id="path117" d="m12 94.031c-4.9716 0-9.0312-4.0596-9.0312-9.0312v-71c0-4.9718 4.0596-9.0314 9.0312-9.0314h72c4.9716 0 9.0312 4.0596 9.0312 9.0312v71c0 4.9716-4.0596 9.0312-9.0312 9.0312h-72z" opacity=".1"/>
  <path id="path119" d="m12 93c-4.4091 0-8-3.591-8-8v-71c0-4.4091 3.5909-8 8-8h72c4.4091 0 8 3.5909 8 8v71c0 4.4091-3.5909 8-8 8h-72z" opacity=".2"/>
 </g>
 <rect id="rect121" x="5" y="7" width="86" height="85" rx="7" ry="7" fill="url(#at)" opacity=".3"/>
 <rect id="rect123" x="6" y="7" width="84" height="84" rx="6" ry="6" fill="url(#au)" opacity=".45"/>
 <rect id="rect125" x="8.25" y="10.5" width="78.722" height="72" rx="5.9134" ry="5.6609" fill="url(#y)"/>
 <path id="path127" d="m19 13c-3.2894 0-6 2.7106-6 6v58c0 3.2894 2.7106 6 6 6h58c3.2894 0 6-2.7106 6-6v-58c0-3.2894-2.7106-6-6-6h-58zm0 4h58c1.1426 0 2 0.85741 2 2v58c0 1.1426-0.85741 2-2 2h-58c-1.1426 0-2-0.85741-2-2v-58c0-1.1426 0.85741-2 2-2z" opacity=".08"/>
 <g id="g129" color="#000000">
  <path id="path131" d="m17 14c-1.662 0-3 1.338-3 3v62c0 1.662 1.338 3 3 3h62c1.662 0 3-1.338 3-3v-62c0-1.662-1.338-3-3-3h-62zm0 1.9375h62c0.61816 0 1.0625 0.44434 1.0625 1.0625v62c0 0.61816-0.44434 1.0625-1.0625 1.0625h-62c-0.61816 0-1.0625-0.44434-1.0625-1.0625v-62c0-0.61816 0.44434-1.0625 1.0625-1.0625z" opacity=".1"/>
  <path id="path133" d="m17 14c-1.662 0-3 1.338-3 3v62c0 1.662 1.338 3 3 3h62c1.662 0 3-1.338 3-3v-62c0-1.662-1.338-3-3-3h-62zm0 0.96875h62c1.1401 0 2.0312 0.89117 2.0312 2.0312v62c0 1.1401-0.89117 2.0312-2.0312 2.0312h-62c-1.1401 0-2.0312-0.89117-2.0312-2.0312v-62c0-1.1401 0.89117-2.0312 2.0312-2.0312z" opacity=".25"/>
 </g>
 <path id="path135" d="m12 6c-3.324 0-6 2.676-6 6v72c0 3.324 2.676 6 6 6h72c3.324 0 6-2.676 6-6v-72c0-3.324-2.676-6-6-6h-72zm5 8h62c1.6838 0 3 1.3162 3 3v62c1e-6 1.6838-1.3162 3-3 3h-62c-1.6838 1e-6 -3-1.3162-3-3v-62c0-1.6838 1.3162-3 3-3z" fill="url(#ap)"/>
 <path id="path137" d="m12 6c-3.324 0-6 2.676-6 6v72c0 0.33472 0.04135 0.6507 0.09375 0.96875 0.0487 0.2956 0.09704 0.59692 0.1875 0.875 0.00988 0.03038 0.020892 0.0636 0.03125 0.09375 0.098865 0.28777 0.23488 0.54745 0.375 0.8125 0.14459 0.27351 0.31562 0.53562 0.5 0.78125 0.18438 0.24564 0.37378 0.47347 0.59375 0.6875 0.43995 0.42806 0.94291 0.81453 1.5 1.0938 0.27854 0.13961 0.57347 0.24695 0.875 0.34375-0.2562-0.10022-0.48671-0.23627-0.71875-0.375-0.00741-0.0044-0.023866 0.0045-0.03125 0-0.0319-0.019-0.0622-0.042-0.0937-0.062-0.1204-0.077-0.231-0.164-0.3437-0.25-0.1062-0.081-0.2133-0.161-0.3126-0.25-0.1778-0.162-0.3473-0.346-0.4999-0.531-0.1075-0.131-0.2183-0.266-0.3124-0.407-0.0251-0.038-0.0385-0.086-0.0626-0.125-0.0647-0.103-0.1302-0.204-0.1874-0.312-0.1011-0.195-0.2057-0.416-0.2813-0.625-8e-3 -0.022-0.0236-0.041-0.0313-0.063-0.0318-0.092-0.0358-0.187-0.0624-0.281-0.0304-0.107-0.0704-0.203-0.0938-0.313-0.0729-0.341-0.125-0.698-0.125-1.062v-72c0-2.782 2.2182-5 5-5h72c2.7818 0 5 2.2182 5 5v72c0 0.3643-0.05212 0.72099-0.125 1.0625-0.04415 0.20689-0.08838 0.39766-0.15625 0.59375-0.0077 0.02195-0.0233 0.04069-0.03125 0.0625-0.06274 0.17374-0.13838 0.36745-0.21875 0.53125-0.04158 0.0828-0.07904 0.16995-0.125 0.25-0.0546 0.09721-0.12677 0.18835-0.1875 0.28125-0.09411 0.14096-0.20492 0.276-0.3125 0.40625-0.14317 0.17445-0.30314 0.347-0.46875 0.5-0.01117 0.0102-0.01998 0.02115-0.03125 0.03125-0.13839 0.12556-0.28509 0.23444-0.4375 0.34375-0.10257 0.07315-0.20432 0.15336-0.3125 0.21875-0.0074 0.0045-0.02384-0.0044-0.03125 0-0.23204 0.13873-0.46255 0.27478-0.71875 0.375 0.30153-0.0968 0.59646-0.20414 0.875-0.34375 0.55709-0.27922 1.0601-0.66569 1.5-1.0938 0.21997-0.21403 0.40937-0.44186 0.59375-0.6875s0.35541-0.50774 0.5-0.78125c0.14012-0.26505 0.27614-0.52473 0.375-0.8125 0.01041-0.03078 0.02133-0.06274 0.03125-0.09375 0.09046-0.27808 0.1388-0.5794 0.1875-0.875 0.053-0.318 0.094-0.634 0.094-0.969v-72c0-3.324-2.676-6-6-6h-72z" fill="url(#aq)" opacity=".7"/>
 <rect id="rect139" x="13" y="13" width="70" height="70" rx="4" ry="4" fill="none" stroke="url(#ar)" stroke-linecap="square" stroke-linejoin="round" stroke-opacity=".7" stroke-width="2"/>
 <path id="path141" d="m12 90c-3.324 0-6-2.676-6-6v-72c0-0.33472 0.04135-0.6507 0.09375-0.96875 0.0487-0.2956 0.09704-0.59692 0.1875-0.875 0.0099-0.03 0.0209-0.063 0.0313-0.094 0.0989-0.2873 0.2349-0.547 0.375-0.812 0.1446-0.2735 0.3156-0.5356 0.5-0.7812 0.1844-0.2457 0.3738-0.4735 0.5937-0.6876 0.44-0.428 0.943-0.8145 1.5-1.0937 0.2786-0.1396 0.5735-0.2469 0.8748-0.3437-0.256 0.1002-0.4865 0.2362-0.7185 0.375-0.00741 0.0044-0.023866-0.0045-0.03125 0-0.031933 0.0193-0.062293 0.04251-0.09375 0.0625-0.1204 0.0767-0.23102 0.16351-0.34375 0.25-0.10617 0.0808-0.21328 0.16111-0.3125 0.25-0.1779 0.1614-0.3474 0.3453-0.5 0.5312-0.1075 0.1303-0.2183 0.2653-0.3124 0.4063-0.0251 0.0383-0.0385 0.0858-0.0626 0.125-0.0647 0.103-0.1302 0.2045-0.1874 0.3124-0.1011 0.1948-0.2057 0.4158-0.2813 0.625-8e-3 0.0219-0.0236 0.0406-0.0313 0.0626-0.0318 0.0919-0.0358 0.1868-0.0624 0.2812-0.0304 0.1066-0.0704 0.203-0.0938 0.3125-0.0729 0.3415-0.125 0.6985-0.125 1.0625v72c0 2.7818 2.2182 5 5 5h72c2.7818 0 5-2.2182 5-5v-72c0-0.364-0.052-0.721-0.125-1.0625-0.044-0.2069-0.088-0.3977-0.156-0.5937-8e-3 -0.022-0.024-0.0407-0.031-0.0626-0.063-0.1737-0.139-0.3674-0.219-0.5312-0.042-0.0828-0.079-0.17-0.125-0.25-0.055-0.0972-0.127-0.1884-0.188-0.2812-0.094-0.141-0.205-0.276-0.312-0.4063-0.143-0.1745-0.303-0.347-0.469-0.5-0.011-0.0102-0.02-0.0211-0.031-0.0313-0.139-0.1255-0.285-0.2344-0.438-0.3437-0.102-0.0731-0.204-0.1534-0.312-0.2187-0.0074-0.0045-0.02384 0.0044-0.03125 0-0.23204-0.13873-0.46255-0.27478-0.71875-0.375 0.30153 0.0968 0.59646 0.20414 0.875 0.34375 0.55709 0.27922 1.0601 0.66569 1.5 1.0938 0.21997 0.21403 0.40937 0.44186 0.59375 0.6875s0.35541 0.50774 0.5 0.78125c0.14012 0.26505 0.27614 0.52473 0.375 0.8125 0.01041 0.03078 0.02133 0.06274 0.03125 0.09375 0.09046 0.27808 0.1388 0.5794 0.1875 0.875 0.053 0.318 0.094 0.634 0.094 0.969v72c0 3.324-2.676 6-6 6h-72z" fill="url(#z)" opacity=".4"/>
 <rect id="rect143" x="15" y="15" width="66" height="66" rx="12" ry="12" clip-path="url(#av)" fill="url(#k)" filter="url(#j)" opacity=".1" stroke="#fff" stroke-linecap="round" stroke-width=".5"/>
 <g id="layer3" transform="translate(0,-1)">
  <path id="path3931" d="m48 22.969c-14.354 0-26.031 11.677-26.031 26.031s11.677 26.031 26.031 26.031 26.031-11.677 26.031-26.031-11.677-26.031-26.031-26.031zm-4.5312 23.438c0.0099 0.01093 0.03129 0.03129 0.03125 0.03125-1.7e-4 -1.7e-4 0.15644 0.12515 0.15625 0.125s0.15645 0.12513 0.15625 0.125 0.15646 0.09386 0.15625 0.09375c-2.11e-4 -1.14e-4 0.18772 0.09384 0.1875 0.09375-2.21e-4 -9.3e-5 0.18773 0.06257 0.1875 0.0625-2.29e-4 -7.2e-5 0.18774 0.0313 0.1875 0.03125-2.35e-4 -4.9e-5 0.18774 0.03128 0.1875 0.03125-2.39e-4 -2.6e-5 0.21899 0.03125 0.21875 0.03125h6.125c-2.4e-4 3e-6 0.21899-0.03128 0.21875-0.03125-2.39e-4 2.6e-5 0.18774-0.0313 0.1875-0.03125-2.35e-4 4.9e-5 0.18773-0.03132 0.1875-0.03125-2.29e-4 7.2e-5 0.18772-0.06259 0.1875-0.0625-2.21e-4 9.3e-5 0.18771-0.09386 0.1875-0.09375-2.11e-4 1.14e-4 0.15645-0.09388 0.15625-0.09375-1.99e-4 1.34e-4 0.15644-0.12515 0.15625-0.125s0.15642-0.12517 0.15625-0.125c-3.7e-5 3.7e-5 0.02132-0.02032 0.03125-0.03125 0.0099 0.01093 0.03129 0.03129 0.03125 0.03125-1.7e-4 -1.7e-4 0.15644 0.12515 0.15625 0.125s0.15645 0.12513 0.15625 0.125 0.15646 0.09386 0.15625 0.09375c-2.11e-4 -1.14e-4 0.18772 0.09384 0.1875 0.09375-2.21e-4 -9.3e-5 0.18773 0.06257 0.1875 0.0625-2.29e-4 -7.2e-5 0.18774 0.0313 0.1875 0.03125-2.35e-4 -4.9e-5 0.18774 0.03128 0.1875 0.03125-2.39e-4 -2.6e-5 0.21899 0.03125 0.21875 0.03125h1.9688v11.938h-15.938v-11.938h1.9688c-2.4e-4 3e-6 0.21899-0.03128 0.21875-0.03125-2.39e-4 2.6e-5 0.18774-0.0313 0.1875-0.03125-2.35e-4 4.9e-5 0.18773-0.03132 0.1875-0.03125-2.29e-4 7.2e-5 0.18772-0.06259 0.1875-0.0625-2.21e-4 9.3e-5 0.18771-0.09386 0.1875-0.09375-2.11e-4 1.14e-4 0.15645-0.09388 0.15625-0.09375-1.99e-4 1.34e-4 0.15644-0.12515 0.15625-0.125s0.15642-0.12517 0.15625-0.125c-3.7e-5 3.7e-5 0.02132-0.02032 0.03125-0.03125z" opacity=".1"/>
  <path id="path3927" d="m48 24c-13.802 0-25 11.198-25 25s11.198 25 25 25 25-11.198 25-25-11.198-25-25-25zm-2 12h4c1.6722 0 3 1.3278 3 3v6a1.0133 1.0133 0 0 0 1 1h3v14h-18v-14h3a1.0133 1.0133 0 0 0 1-1v-6c0-1.6722 1.3278-3 3-3zm0 0.9375c-0.545 0-1.1103 0.17282-1.5 0.5625s-0.5625 0.955-0.5625 1.5v6a1.0133 1.0133 0 0 0 1 1h6.125a1.0133 1.0133 0 0 0 1-1v-6c0-0.545-0.17282-1.1103-0.5625-1.5s-0.955-0.5625-1.5-0.5625h-4z" opacity=".15"/>
  <path id="path3921" d="m48 25c-13.255 0-24 10.745-24 24s10.745 24 24 24 24-10.745 24-24-10.745-24-24-24zm-2 10h4c2.216 0 4 1.784 4 4v6h3.0625c0.51707 0 0.9375 0.446 0.9375 1v14c0 0.554-0.42043 1-0.9375 1h-18.125c-0.51707 0-0.9375-0.446-0.9375-1v-14c0-0.554 0.42043-1 0.9375-1h3.0625v-6c0-2.216 1.784-4 4-4zm0 2.9375c-0.63464 0-1.0625 0.42786-1.0625 1.0625v6h6.125v-6c0-0.63464-0.42786-1.0625-1.0625-1.0625h-4z" opacity=".3"/>
  <path id="path2928" d="m48 24c-13.255 0-24 10.745-24 24s10.745 24 24 24 24-10.745 24-24-10.745-24-24-24zm-2 10h4c2.216 0 4 1.784 4 4v6h3.0625c0.51707 0 0.9375 0.446 0.9375 1v14c0 0.554-0.42043 1-0.9375 1h-18.125c-0.51707 0-0.9375-0.446-0.9375-1v-14c0-0.554 0.42043-1 0.9375-1h3.0625v-6c0-2.216 1.784-4 4-4zm0 2.9375c-0.63464 0-1.0625 0.42786-1.0625 1.0625v6h6.125v-6c0-0.63464-0.42786-1.0625-1.0625-1.0625h-4z" fill="url(#linearGradient3728)"/>
  <path id="path3131" d="m48 24c-13.255 0-24 10.745-24 24 0 0.16558-0.0033 0.33522 0 0.5 0.26384-13.026 10.911-23.5 24-23.5s23.736 10.474 24 23.5c0.003338-0.16478 0-0.33442 0-0.5 0-13.255-10.745-24-24-24zm-2 12.938c-0.63464 0-1.0625 0.42786-1.0625 1.0625v1c0-0.63464 0.42786-1.0625 1.0625-1.0625h4c0.63464 0 1.0625 0.42786 1.0625 1.0625v-1c0-0.63464-0.42786-1.0625-1.0625-1.0625h-4zm-8 22.062v1c0 0.554 0.42043 1 0.9375 1h18.125c0.51707 0 0.9375-0.446 0.9375-1v-1c0 0.554-0.42043 1-0.9375 1h-18.125c-0.51707 0-0.9375-0.446-0.9375-1z" fill="#fff" opacity=".75"/>
  <path id="path3912" d="m46 33c-2.216 0-4 1.784-4 4v1c0-2.216 1.784-4 4-4h4c2.216 0 4 1.784 4 4v-1c0-2.216-1.784-4-4-4h-4zm-7.0625 10c-0.51707 0-0.9375 0.446-0.9375 1v1c0-0.554 0.42043-1 0.9375-1h3.0625v-1h-3.0625zm6 0v1h6.125v-1h-6.125zm9.0625 0v1h3.0625c0.51707 0 0.9375 0.446 0.9375 1v-1c0-0.554-0.42043-1-0.9375-1h-3.0625zm-30 4.5c-0.0033 0.16478 0 0.33442 0 0.5 0 13.255 10.745 24 24 24s24-10.745 24-24c0-0.16558 0.0033-0.33522 0-0.5-0.26384 13.026-10.911 23.5-24 23.5s-23.736-10.474-24-23.5z" opacity=".15"/>
 </g>
 <g id="g203" fill-rule="evenodd">
  <path id="path205" d="m44.844 8.0625 1.3438 3.875h32.812c2.754 0 5.0625 2.3085 5.0625 5.0625v62c2e-6 2.754-2.3085 5.0625-5.0625 5.0625h-7.875l1.3438 3.875h11.531c2.2218 0 3.9375-1.7157 3.9375-3.9375v-72c0-2.2218-1.716-3.9375-3.938-3.9375h-39.156z" fill="url(#ab)" opacity=".4"/>
  <path id="path207" d="m47.656 16.125 22.031 63.75h9.3125c0.5388 0 0.875-0.3362 0.875-0.875v-62c0-0.5388-0.33619-0.875-0.875-0.875h-31.344z" fill="url(#i)" opacity=".6"/>
  <path id="path209" d="m47.656 16.125 22.031 63.75h1l-22.031-63.75h-1z" fill="url(#i)" opacity=".5"/>
 </g>
</svg>
