<?xml version="1.0" encoding="UTF-8"?>
<!-- Created with Inkscape (http://www.inkscape.org/) -->
<svg id="svg2408" width="96" height="96" version="1.0" xmlns="http://www.w3.org/2000/svg" xmlns:cc="http://creativecommons.org/ns#" xmlns:dc="http://purl.org/dc/elements/1.1/" xmlns:rdf="http://www.w3.org/1999/02/22-rdf-syntax-ns#" xmlns:xlink="http://www.w3.org/1999/xlink">
 <defs id="defs2410">
  <linearGradient id="linearGradient3668">
   <stop id="stop3670" offset="0"/>
   <stop id="stop3672" stop-opacity="0" offset="1"/>
  </linearGradient>
  <linearGradient id="ButtonShadow" x1="45.448" x2="45.448" y1="92.54" y2="7.0165" gradientTransform="scale(1.0059 .99417)" gradientUnits="userSpaceOnUse">
   <stop id="stop3750" offset="0"/>
   <stop id="stop3752" stop-opacity=".58824" offset="1"/>
  </linearGradient>
  <linearGradient id="linearGradient3737">
   <stop id="stop3739" stop-color="#fff" offset="0"/>
   <stop id="stop3741" stop-color="#fff" stop-opacity="0" offset="1"/>
  </linearGradient>
  <linearGradient id="linearGradient3700">
   <stop id="stop3702" stop-color="#1f1f1f" offset="0"/>
   <stop id="stop3704" stop-color="#191919" offset="1"/>
  </linearGradient>
  <filter id="filter3174" color-interpolation-filters="sRGB">
   <feGaussianBlur id="feGaussianBlur3176" stdDeviation="1.71"/>
  </filter>
  <linearGradient id="linearGradient3188" x1="36.357" x2="36.357" y1="6" y2="63.893" gradientUnits="userSpaceOnUse" xlink:href="#linearGradient3737"/>
  <filter id="filter3794" x="-.192" y="-.192" width="1.384" height="1.384" color-interpolation-filters="sRGB">
   <feGaussianBlur id="feGaussianBlur3796" stdDeviation="5.28"/>
  </filter>
  <linearGradient id="linearGradient3613" x1="48" x2="48" y1="20.221" y2="138.66" gradientUnits="userSpaceOnUse" xlink:href="#linearGradient3737"/>
  <radialGradient id="radialGradient3619" cx="48" cy="90.172" r="42" gradientTransform="matrix(1.1573 0 0 .99591 -7.551 .19713)" gradientUnits="userSpaceOnUse" xlink:href="#linearGradient3737"/>
  <clipPath id="clipPath3613">
   <rect id="rect3615" x="6" y="6" width="84" height="84" rx="6" ry="6" fill="#fff"/>
  </clipPath>
  <linearGradient id="linearGradient3617" x1="6.5714" x2="88.899" y1="48.036" y2="48.036" gradientTransform="translate(0,-100)" gradientUnits="userSpaceOnUse">
   <stop id="stop3660" stop-color="#373795" offset="0"/>
   <stop id="stop3662" stop-color="#7343bc" offset=".5"/>
   <stop id="stop3664" stop-color="#c83737" offset="1"/>
  </linearGradient>
  <filter id="filter3680" color-interpolation-filters="sRGB">
   <feGaussianBlur id="feGaussianBlur3682" stdDeviation="0.71783716"/>
  </filter>
  <radialGradient id="radialGradient3691" cx="28.125" cy="74.095" r="12.054" gradientTransform="matrix(1.4729 0 0 1.2638 -13.301 -19.75)" gradientUnits="userSpaceOnUse">
   <stop id="stop3665" stop-color="#f73c00" offset="0"/>
   <stop id="stop3669" stop-color="#b61100" offset=".71272"/>
   <stop id="stop3667" stop-color="#9c0000" offset="1"/>
  </radialGradient>
  <linearGradient id="linearGradient3636" x1="55.939" x2="55.939" y1="22.033" y2="76.054" gradientUnits="userSpaceOnUse">
   <stop id="stop3632" stop-color="#dedede" offset="0"/>
   <stop id="stop3634" stop-color="#fff" offset="1"/>
  </linearGradient>
  <radialGradient id="radialGradient2871" cx="28.125" cy="75.058" r="12.054" gradientTransform="matrix(1.5148 -8.9896e-8 6.7407e-8 1.1025 -14.479 -7.7949)" gradientUnits="userSpaceOnUse">
   <stop id="stop3657" stop-color="#f73c00" offset="0"/>
   <stop id="stop3659" stop-color="#9c0000" offset="1"/>
  </radialGradient>
  <linearGradient id="linearGradient2873" x1="16.071" x2="40.179" y1="68.054" y2="68.054" gradientUnits="userSpaceOnUse" xlink:href="#linearGradient3737"/>
  <linearGradient id="linearGradient3679" x1="16.071" x2="40.179" y1="68.054" y2="68.054" gradientUnits="userSpaceOnUse">
   <stop id="stop3675" stop-color="#fea" offset="0"/>
   <stop id="stop3677" stop-color="#fea" stop-opacity="0" offset="1"/>
  </linearGradient>
  <linearGradient id="linearGradient2882" x1="48" x2="48" y1="90" y2="5.9877" gradientTransform="translate(100)" gradientUnits="userSpaceOnUse" xlink:href="#linearGradient3700"/>
  <linearGradient id="linearGradient3674" x1="6" x2="90" y1="48" y2="48" gradientTransform="translate(4)" gradientUnits="userSpaceOnUse" xlink:href="#linearGradient3668"/>
  <linearGradient id="linearGradient3680" x1="48" x2="48" y1="90" y2="5.9877" gradientUnits="userSpaceOnUse" xlink:href="#linearGradient3700"/>
  <clipPath id="clipPath2926">
   <rect id="rect2928" x="6" y="6" width="84" height="84" rx="6" ry="6" fill="url(#linearGradient3680)"/>
  </clipPath>
  <linearGradient id="linearGradient3839" x1="9.283" x2="9.283" y1="54.566" y2="30.797" gradientUnits="userSpaceOnUse">
   <stop id="stop3718" stop-color="#c83771" offset="0"/>
   <stop id="stop3720" stop-color="#c83771" stop-opacity="0" offset="1"/>
  </linearGradient>
  <linearGradient id="linearGradient3841" x1="16.536" x2="16.536" y1="62.395" y2="40.422" gradientUnits="userSpaceOnUse">
   <stop id="stop3726" stop-color="#d35fbc" offset="0"/>
   <stop id="stop3728" stop-color="#d35fbc" stop-opacity="0" offset="1"/>
  </linearGradient>
  <linearGradient id="linearGradient3843" x1="22.525" x2="22.525" y1="66.206" y2="32.08" gradientUnits="userSpaceOnUse">
   <stop id="stop3734" stop-color="#8d5fd3" offset="0"/>
   <stop id="stop3736" stop-color="#8d5fd3" stop-opacity="0" offset="1"/>
  </linearGradient>
  <linearGradient id="linearGradient3845" x1="29.778" x2="29.778" y1="54.061" y2="23.204" gradientUnits="userSpaceOnUse">
   <stop id="stop3742" stop-color="#59f" offset="0"/>
   <stop id="stop3744" stop-color="#59f" stop-opacity="0" offset="1"/>
  </linearGradient>
  <linearGradient id="linearGradient3847" x1="37.03" x2="37.03" y1="68.961" y2="46.717" gradientUnits="userSpaceOnUse">
   <stop id="stop3751" stop-color="#37abc8" offset="0"/>
   <stop id="stop3753" stop-color="#37abc8" stop-opacity="0" offset="1"/>
  </linearGradient>
  <linearGradient id="linearGradient3849" x1="44.283" x2="44.283" y1="64.162" y2="37.392" gradientUnits="userSpaceOnUse">
   <stop id="stop3759" stop-color="#70e4cd" offset="0"/>
   <stop id="stop3761" stop-color="#70e4cd" stop-opacity="0" offset="1"/>
  </linearGradient>
  <linearGradient id="linearGradient3851" x1="51.283" x2="51.283" y1="60.879" y2="12.37" gradientUnits="userSpaceOnUse">
   <stop id="stop3767" stop-color="#53df53" offset="0"/>
   <stop id="stop3769" stop-color="#53df53" stop-opacity="0" offset="1"/>
  </linearGradient>
  <linearGradient id="linearGradient3853" x1="57.525" x2="57.525" y1="65.678" y2="27.465" gradientUnits="userSpaceOnUse">
   <stop id="stop3775" stop-color="#aad400" offset="0"/>
   <stop id="stop3777" stop-color="#aad400" stop-opacity="0" offset="1"/>
  </linearGradient>
  <linearGradient id="linearGradient3855" x1="64.778" x2="64.778" y1="63.91" y2="35.095" gradientUnits="userSpaceOnUse">
   <stop id="stop3783" stop-color="#ffd42a" offset="0"/>
   <stop id="stop3785" stop-color="#ffd42a" stop-opacity="0" offset="1"/>
  </linearGradient>
  <linearGradient id="linearGradient3857" x1="72.788" x2="72.788" y1="60.122" y2="18.954" gradientUnits="userSpaceOnUse">
   <stop id="stop3791" stop-color="#ff992a" offset="0"/>
   <stop id="stop3793" stop-color="#ff992a" stop-opacity="0" offset="1"/>
  </linearGradient>
  <linearGradient id="linearGradient3859" x1="78.273" x2="78.273" y1="58.354" y2="40.421" gradientUnits="userSpaceOnUse">
   <stop id="stop3799" stop-color="#f60" offset="0"/>
   <stop id="stop3801" stop-color="#f60" stop-opacity="0" offset="1"/>
  </linearGradient>
  <linearGradient id="linearGradient3861" x1="85.525" x2="85.525" y1="60.879" y2="34.361" gradientUnits="userSpaceOnUse">
   <stop id="stop3807" stop-color="#d40000" offset="0"/>
   <stop id="stop3809" stop-color="#d40000" stop-opacity="0" offset="1"/>
  </linearGradient>
  <linearGradient id="linearGradient3869" x1="48" x2="48" y1="53.93" y2="39.2" gradientTransform="translate(0,36)" gradientUnits="userSpaceOnUse" xlink:href="#linearGradient3668"/>
  <linearGradient id="ButtonShadow-0" x1="45.448" x2="45.448" y1="92.54" y2="7.0165" gradientTransform="matrix(1.0059 0 0 .99417 100 0)" gradientUnits="userSpaceOnUse">
   <stop id="stop3750-8" offset="0"/>
   <stop id="stop3752-5" stop-opacity=".58824" offset="1"/>
  </linearGradient>
  <linearGradient id="linearGradient3780" x1="32.251" x2="32.251" y1="6.1317" y2="90.239" gradientTransform="matrix(1.0238 0 0 1.0119 -1.1429 -98.071)" gradientUnits="userSpaceOnUse" xlink:href="#ButtonShadow-0"/>
  <linearGradient id="linearGradient3721" x1="32.251" x2="32.251" y1="6.1317" y2="90.239" gradientTransform="translate(0,-97)" gradientUnits="userSpaceOnUse" xlink:href="#ButtonShadow-0"/>
 </defs>
 <metadata id="metadata2413">
  <rdf:RDF>
   <cc:Work rdf:about="">
    <dc:format>image/svg+xml</dc:format>
    <dc:type rdf:resource="http://purl.org/dc/dcmitype/StillImage"/>
   </cc:Work>
  </rdf:RDF>
 </metadata>
 <g id="layer2" display="none">
  <rect id="rect3745" x="5" y="7" width="86" height="85" rx="6" ry="6" fill="url(#ButtonShadow)" filter="url(#filter3174)" opacity=".9"/>
 </g>
 <g id="layer4">
  <path id="path3786" transform="scale(1,-1)" d="m12-95.031c-5.5111 0-10.031 4.5202-10.031 10.031v71c0 5.5111 4.5202 10.031 10.031 10.031h72c5.5111 0 10.031-4.5202 10.031-10.031v-71c0-5.5111-4.5202-10.031-10.031-10.031h-72z" fill="url(#linearGradient3780)" opacity=".08"/>
  <path id="path3778" transform="scale(1,-1)" d="m12-94.031c-4.9716 0-9.0312 4.0596-9.0312 9.0312v71c0 4.9716 4.0596 9.0312 9.0312 9.0312h72c4.9716 0 9.0312-4.0596 9.0312-9.0312v-71c0-4.9716-4.0596-9.0312-9.0312-9.0312h-72z" fill="url(#linearGradient3780)" opacity=".1"/>
  <path id="path3770" transform="scale(1,-1)" d="m12-93c-4.4091 0-8 3.5909-8 8v71c0 4.4091 3.5909 8 8 8h72c4.4091 0 8-3.5909 8-8v-71c0-4.4091-3.5909-8-8-8h-72z" fill="url(#linearGradient3780)" opacity=".2"/>
  <rect id="rect3723" transform="scale(1,-1)" x="5" y="-92" width="86" height="85" rx="7" ry="7" fill="url(#linearGradient3780)" opacity=".3"/>
  <rect id="rect3716" transform="scale(1,-1)" x="6" y="-91" width="84" height="84" rx="6" ry="6" fill="url(#linearGradient3721)" opacity=".45"/>
 </g>
 <g id="layer1">
  <rect id="rect3677" x="6" y="6" width="84" height="84" rx="6" ry="6" fill="url(#linearGradient3680)"/>
  <g id="g2910" clip-path="url(#clipPath2926)">
   <path id="rect3682" d="m7 6c-0.554 0-1 0.446-1 1v2c0 0.554 0.446 1 1 1h4c0.554 0 1-0.446 1-1v-2c0-0.554-0.446-1-1-1h-4zm0 5c-0.554 0-1 0.446-1 1v2c0 0.554 0.446 1 1 1h4c0.554 0 1-0.446 1-1v-2c0-0.554-0.446-1-1-1h-4zm0 5c-0.554 0-1 0.446-1 1v2c0 0.554 0.446 1 1 1h4c0.554 0 1-0.446 1-1v-2c0-0.554-0.446-1-1-1h-4zm0 5c-0.554 0-1 0.446-1 1v2c0 0.554 0.446 1 1 1h4c0.554 0 1-0.446 1-1v-2c0-0.554-0.446-1-1-1h-4zm0 5c-0.554 0-1 0.446-1 1v2c0 0.554 0.446 1 1 1h4c0.554 0 1-0.446 1-1v-2c0-0.554-0.446-1-1-1h-4zm0 5c-0.554 0-1 0.446-1 1v2c0 0.554 0.446 1 1 1h4c0.554 0 1-0.446 1-1v-2c0-0.554-0.446-1-1-1h-4zm0 5c-0.554 0-1 0.446-1 1v2c0 0.554 0.446 1 1 1h4c0.554 0 1-0.446 1-1v-2c0-0.554-0.446-1-1-1h-4zm0 5c-0.554 0-1 0.446-1 1v2c0 0.554 0.446 1 1 1h4c0.554 0 1-0.446 1-1v-2c0-0.554-0.446-1-1-1h-4zm0 5c-0.554 0-1 0.446-1 1v2c0 0.554 0.446 1 1 1h4c0.554 0 1-0.446 1-1v-2c0-0.554-0.446-1-1-1h-4zm0 5c-0.554 0-1 0.446-1 1v2c0 0.554 0.446 1 1 1h4c0.554 0 1-0.446 1-1v-2c0-0.554-0.446-1-1-1h-4zm0 5c-0.554 0-1 0.446-1 1v2c0 0.554 0.446 1 1 1h4c0.554 0 1-0.446 1-1v-2c0-0.554-0.446-1-1-1h-4zm0 5c-0.554 0-1 0.446-1 1v2c0 0.554 0.446 1 1 1h4c0.554 0 1-0.446 1-1v-2c0-0.554-0.446-1-1-1h-4zm0 5c-0.554 0-1 0.446-1 1v2c0 0.554 0.446 1 1 1h4c0.554 0 1-0.446 1-1v-2c0-0.554-0.446-1-1-1h-4zm0 5c-0.554 0-1 0.446-1 1v2c0 0.554 0.446 1 1 1h4c0.554 0 1-0.446 1-1v-2c0-0.554-0.446-1-1-1h-4zm0 5c-0.554 0-1 0.446-1 1v2c0 0.554 0.446 1 1 1h4c0.554 0 1-0.446 1-1v-2c0-0.554-0.446-1-1-1h-4zm0 5c-0.554 0-1 0.446-1 1v2c0 0.554 0.446 1 1 1h4c0.554 0 1-0.446 1-1v-2c0-0.554-0.446-1-1-1h-4zm0 5c-0.554 0-1 0.446-1 1v2c0 0.554 0.446 1 1 1h4c0.554 0 1-0.446 1-1v-2c0-0.554-0.446-1-1-1h-4z" fill="url(#linearGradient3839)"/>
   <path id="path3723" d="m14 6c-0.554 0-1 0.446-1 1v2c0 0.554 0.446 1 1 1h4c0.554 0 1-0.446 1-1v-2c0-0.554-0.446-1-1-1h-4zm0 5c-0.554 0-1 0.446-1 1v2c0 0.554 0.446 1 1 1h4c0.554 0 1-0.446 1-1v-2c0-0.554-0.446-1-1-1h-4zm0 5c-0.554 0-1 0.446-1 1v2c0 0.554 0.446 1 1 1h4c0.554 0 1-0.446 1-1v-2c0-0.554-0.446-1-1-1h-4zm0 5c-0.554 0-1 0.446-1 1v2c0 0.554 0.446 1 1 1h4c0.554 0 1-0.446 1-1v-2c0-0.554-0.446-1-1-1h-4zm0 5c-0.554 0-1 0.446-1 1v2c0 0.554 0.446 1 1 1h4c0.554 0 1-0.446 1-1v-2c0-0.554-0.446-1-1-1h-4zm0 5c-0.554 0-1 0.446-1 1v2c0 0.554 0.446 1 1 1h4c0.554 0 1-0.446 1-1v-2c0-0.554-0.446-1-1-1h-4zm0 5c-0.554 0-1 0.446-1 1v2c0 0.554 0.446 1 1 1h4c0.554 0 1-0.446 1-1v-2c0-0.554-0.446-1-1-1h-4zm0 5c-0.554 0-1 0.446-1 1v2c0 0.554 0.446 1 1 1h4c0.554 0 1-0.446 1-1v-2c0-0.554-0.446-1-1-1h-4zm0 5c-0.554 0-1 0.446-1 1v2c0 0.554 0.446 1 1 1h4c0.554 0 1-0.446 1-1v-2c0-0.554-0.446-1-1-1h-4zm0 5c-0.554 0-1 0.446-1 1v2c0 0.554 0.446 1 1 1h4c0.554 0 1-0.446 1-1v-2c0-0.554-0.446-1-1-1h-4zm0 5c-0.554 0-1 0.446-1 1v2c0 0.554 0.446 1 1 1h4c0.554 0 1-0.446 1-1v-2c0-0.554-0.446-1-1-1h-4zm0 5c-0.554 0-1 0.446-1 1v2c0 0.554 0.446 1 1 1h4c0.554 0 1-0.446 1-1v-2c0-0.554-0.446-1-1-1h-4zm0 5c-0.554 0-1 0.446-1 1v2c0 0.554 0.446 1 1 1h4c0.554 0 1-0.446 1-1v-2c0-0.554-0.446-1-1-1h-4zm0 5c-0.554 0-1 0.446-1 1v2c0 0.554 0.446 1 1 1h4c0.554 0 1-0.446 1-1v-2c0-0.554-0.446-1-1-1h-4zm0 5c-0.554 0-1 0.446-1 1v2c0 0.554 0.446 1 1 1h4c0.554 0 1-0.446 1-1v-2c0-0.554-0.446-1-1-1h-4zm0 5c-0.554 0-1 0.446-1 1v2c0 0.554 0.446 1 1 1h4c0.554 0 1-0.446 1-1v-2c0-0.554-0.446-1-1-1h-4zm0 5c-0.554 0-1 0.446-1 1v2c0 0.554 0.446 1 1 1h4c0.554 0 1-0.446 1-1v-2c0-0.554-0.446-1-1-1h-4z" fill="url(#linearGradient3841)"/>
   <path id="path3725" d="m21 6c-0.554 0-1 0.446-1 1v2c0 0.554 0.446 1 1 1h4c0.554 0 1-0.446 1-1v-2c0-0.554-0.446-1-1-1h-4zm0 5c-0.554 0-1 0.446-1 1v2c0 0.554 0.446 1 1 1h4c0.554 0 1-0.446 1-1v-2c0-0.554-0.446-1-1-1h-4zm0 5c-0.554 0-1 0.446-1 1v2c0 0.554 0.446 1 1 1h4c0.554 0 1-0.446 1-1v-2c0-0.554-0.446-1-1-1h-4zm0 5c-0.554 0-1 0.446-1 1v2c0 0.554 0.446 1 1 1h4c0.554 0 1-0.446 1-1v-2c0-0.554-0.446-1-1-1h-4zm0 5c-0.554 0-1 0.446-1 1v2c0 0.554 0.446 1 1 1h4c0.554 0 1-0.446 1-1v-2c0-0.554-0.446-1-1-1h-4zm0 5c-0.554 0-1 0.446-1 1v2c0 0.554 0.446 1 1 1h4c0.554 0 1-0.446 1-1v-2c0-0.554-0.446-1-1-1h-4zm0 5c-0.554 0-1 0.446-1 1v2c0 0.554 0.446 1 1 1h4c0.554 0 1-0.446 1-1v-2c0-0.554-0.446-1-1-1h-4zm0 5c-0.554 0-1 0.446-1 1v2c0 0.554 0.446 1 1 1h4c0.554 0 1-0.446 1-1v-2c0-0.554-0.446-1-1-1h-4zm0 5c-0.554 0-1 0.446-1 1v2c0 0.554 0.446 1 1 1h4c0.554 0 1-0.446 1-1v-2c0-0.554-0.446-1-1-1h-4zm0 5c-0.554 0-1 0.446-1 1v2c0 0.554 0.446 1 1 1h4c0.554 0 1-0.446 1-1v-2c0-0.554-0.446-1-1-1h-4zm0 5c-0.554 0-1 0.446-1 1v2c0 0.554 0.446 1 1 1h4c0.554 0 1-0.446 1-1v-2c0-0.554-0.446-1-1-1h-4zm0 5c-0.554 0-1 0.446-1 1v2c0 0.554 0.446 1 1 1h4c0.554 0 1-0.446 1-1v-2c0-0.554-0.446-1-1-1h-4zm0 5c-0.554 0-1 0.446-1 1v2c0 0.554 0.446 1 1 1h4c0.554 0 1-0.446 1-1v-2c0-0.554-0.446-1-1-1h-4zm0 5c-0.554 0-1 0.446-1 1v2c0 0.554 0.446 1 1 1h4c0.554 0 1-0.446 1-1v-2c0-0.554-0.446-1-1-1h-4zm0 5c-0.554 0-1 0.446-1 1v2c0 0.554 0.446 1 1 1h4c0.554 0 1-0.446 1-1v-2c0-0.554-0.446-1-1-1h-4zm0 5c-0.554 0-1 0.446-1 1v2c0 0.554 0.446 1 1 1h4c0.554 0 1-0.446 1-1v-2c0-0.554-0.446-1-1-1h-4zm0 5c-0.554 0-1 0.446-1 1v2c0 0.554 0.446 1 1 1h4c0.554 0 1-0.446 1-1v-2c0-0.554-0.446-1-1-1h-4z" fill="url(#linearGradient3843)"/>
   <path id="path3727" d="m28 6c-0.554 0-1 0.446-1 1v2c0 0.554 0.446 1 1 1h4c0.554 0 1-0.446 1-1v-2c0-0.554-0.446-1-1-1h-4zm0 5c-0.554 0-1 0.446-1 1v2c0 0.554 0.446 1 1 1h4c0.554 0 1-0.446 1-1v-2c0-0.554-0.446-1-1-1h-4zm0 5c-0.554 0-1 0.446-1 1v2c0 0.554 0.446 1 1 1h4c0.554 0 1-0.446 1-1v-2c0-0.554-0.446-1-1-1h-4zm0 5c-0.554 0-1 0.446-1 1v2c0 0.554 0.446 1 1 1h4c0.554 0 1-0.446 1-1v-2c0-0.554-0.446-1-1-1h-4zm0 5c-0.554 0-1 0.446-1 1v2c0 0.554 0.446 1 1 1h4c0.554 0 1-0.446 1-1v-2c0-0.554-0.446-1-1-1h-4zm0 5c-0.554 0-1 0.446-1 1v2c0 0.554 0.446 1 1 1h4c0.554 0 1-0.446 1-1v-2c0-0.554-0.446-1-1-1h-4zm0 5c-0.554 0-1 0.446-1 1v2c0 0.554 0.446 1 1 1h4c0.554 0 1-0.446 1-1v-2c0-0.554-0.446-1-1-1h-4zm0 5c-0.554 0-1 0.446-1 1v2c0 0.554 0.446 1 1 1h4c0.554 0 1-0.446 1-1v-2c0-0.554-0.446-1-1-1h-4zm0 5c-0.554 0-1 0.446-1 1v2c0 0.554 0.446 1 1 1h4c0.554 0 1-0.446 1-1v-2c0-0.554-0.446-1-1-1h-4zm0 5c-0.554 0-1 0.446-1 1v2c0 0.554 0.446 1 1 1h4c0.554 0 1-0.446 1-1v-2c0-0.554-0.446-1-1-1h-4zm0 5c-0.554 0-1 0.446-1 1v2c0 0.554 0.446 1 1 1h4c0.554 0 1-0.446 1-1v-2c0-0.554-0.446-1-1-1h-4zm0 5c-0.554 0-1 0.446-1 1v2c0 0.554 0.446 1 1 1h4c0.554 0 1-0.446 1-1v-2c0-0.554-0.446-1-1-1h-4zm0 5c-0.554 0-1 0.446-1 1v2c0 0.554 0.446 1 1 1h4c0.554 0 1-0.446 1-1v-2c0-0.554-0.446-1-1-1h-4zm0 5c-0.554 0-1 0.446-1 1v2c0 0.554 0.446 1 1 1h4c0.554 0 1-0.446 1-1v-2c0-0.554-0.446-1-1-1h-4zm0 5c-0.554 0-1 0.446-1 1v2c0 0.554 0.446 1 1 1h4c0.554 0 1-0.446 1-1v-2c0-0.554-0.446-1-1-1h-4zm0 5c-0.554 0-1 0.446-1 1v2c0 0.554 0.446 1 1 1h4c0.554 0 1-0.446 1-1v-2c0-0.554-0.446-1-1-1h-4zm0 5c-0.554 0-1 0.446-1 1v2c0 0.554 0.446 1 1 1h4c0.554 0 1-0.446 1-1v-2c0-0.554-0.446-1-1-1h-4z" fill="url(#linearGradient3845)"/>
   <path id="path3729" d="m35 6c-0.554 0-1 0.446-1 1v2c0 0.554 0.446 1 1 1h4c0.554 0 1-0.446 1-1v-2c0-0.554-0.446-1-1-1h-4zm0 5c-0.554 0-1 0.446-1 1v2c0 0.554 0.446 1 1 1h4c0.554 0 1-0.446 1-1v-2c0-0.554-0.446-1-1-1h-4zm0 5c-0.554 0-1 0.446-1 1v2c0 0.554 0.446 1 1 1h4c0.554 0 1-0.446 1-1v-2c0-0.554-0.446-1-1-1h-4zm0 5c-0.554 0-1 0.446-1 1v2c0 0.554 0.446 1 1 1h4c0.554 0 1-0.446 1-1v-2c0-0.554-0.446-1-1-1h-4zm0 5c-0.554 0-1 0.446-1 1v2c0 0.554 0.446 1 1 1h4c0.554 0 1-0.446 1-1v-2c0-0.554-0.446-1-1-1h-4zm0 5c-0.554 0-1 0.446-1 1v2c0 0.554 0.446 1 1 1h4c0.554 0 1-0.446 1-1v-2c0-0.554-0.446-1-1-1h-4zm0 5c-0.554 0-1 0.446-1 1v2c0 0.554 0.446 1 1 1h4c0.554 0 1-0.446 1-1v-2c0-0.554-0.446-1-1-1h-4zm0 5c-0.554 0-1 0.446-1 1v2c0 0.554 0.446 1 1 1h4c0.554 0 1-0.446 1-1v-2c0-0.554-0.446-1-1-1h-4zm0 5c-0.554 0-1 0.446-1 1v2c0 0.554 0.446 1 1 1h4c0.554 0 1-0.446 1-1v-2c0-0.554-0.446-1-1-1h-4zm0 5c-0.554 0-1 0.446-1 1v2c0 0.554 0.446 1 1 1h4c0.554 0 1-0.446 1-1v-2c0-0.554-0.446-1-1-1h-4zm0 5c-0.554 0-1 0.446-1 1v2c0 0.554 0.446 1 1 1h4c0.554 0 1-0.446 1-1v-2c0-0.554-0.446-1-1-1h-4zm0 5c-0.554 0-1 0.446-1 1v2c0 0.554 0.446 1 1 1h4c0.554 0 1-0.446 1-1v-2c0-0.554-0.446-1-1-1h-4zm0 5c-0.554 0-1 0.446-1 1v2c0 0.554 0.446 1 1 1h4c0.554 0 1-0.446 1-1v-2c0-0.554-0.446-1-1-1h-4zm0 5c-0.554 0-1 0.446-1 1v2c0 0.554 0.446 1 1 1h4c0.554 0 1-0.446 1-1v-2c0-0.554-0.446-1-1-1h-4zm0 5c-0.554 0-1 0.446-1 1v2c0 0.554 0.446 1 1 1h4c0.554 0 1-0.446 1-1v-2c0-0.554-0.446-1-1-1h-4zm0 5c-0.554 0-1 0.446-1 1v2c0 0.554 0.446 1 1 1h4c0.554 0 1-0.446 1-1v-2c0-0.554-0.446-1-1-1h-4zm0 5c-0.554 0-1 0.446-1 1v2c0 0.554 0.446 1 1 1h4c0.554 0 1-0.446 1-1v-2c0-0.554-0.446-1-1-1h-4z" fill="url(#linearGradient3847)"/>
   <path id="path3731" d="m42 6c-0.554 0-1 0.446-1 1v2c0 0.554 0.446 1 1 1h4c0.554 0 1-0.446 1-1v-2c0-0.554-0.446-1-1-1h-4zm0 5c-0.554 0-1 0.446-1 1v2c0 0.554 0.446 1 1 1h4c0.554 0 1-0.446 1-1v-2c0-0.554-0.446-1-1-1h-4zm0 5c-0.554 0-1 0.446-1 1v2c0 0.554 0.446 1 1 1h4c0.554 0 1-0.446 1-1v-2c0-0.554-0.446-1-1-1h-4zm0 5c-0.554 0-1 0.446-1 1v2c0 0.554 0.446 1 1 1h4c0.554 0 1-0.446 1-1v-2c0-0.554-0.446-1-1-1h-4zm0 5c-0.554 0-1 0.446-1 1v2c0 0.554 0.446 1 1 1h4c0.554 0 1-0.446 1-1v-2c0-0.554-0.446-1-1-1h-4zm0 5c-0.554 0-1 0.446-1 1v2c0 0.554 0.446 1 1 1h4c0.554 0 1-0.446 1-1v-2c0-0.554-0.446-1-1-1h-4zm0 5c-0.554 0-1 0.446-1 1v2c0 0.554 0.446 1 1 1h4c0.554 0 1-0.446 1-1v-2c0-0.554-0.446-1-1-1h-4zm0 5c-0.554 0-1 0.446-1 1v2c0 0.554 0.446 1 1 1h4c0.554 0 1-0.446 1-1v-2c0-0.554-0.446-1-1-1h-4zm0 5c-0.554 0-1 0.446-1 1v2c0 0.554 0.446 1 1 1h4c0.554 0 1-0.446 1-1v-2c0-0.554-0.446-1-1-1h-4zm0 5c-0.554 0-1 0.446-1 1v2c0 0.554 0.446 1 1 1h4c0.554 0 1-0.446 1-1v-2c0-0.554-0.446-1-1-1h-4zm0 5c-0.554 0-1 0.446-1 1v2c0 0.554 0.446 1 1 1h4c0.554 0 1-0.446 1-1v-2c0-0.554-0.446-1-1-1h-4zm0 5c-0.554 0-1 0.446-1 1v2c0 0.554 0.446 1 1 1h4c0.554 0 1-0.446 1-1v-2c0-0.554-0.446-1-1-1h-4zm0 5c-0.554 0-1 0.446-1 1v2c0 0.554 0.446 1 1 1h4c0.554 0 1-0.446 1-1v-2c0-0.554-0.446-1-1-1h-4zm0 5c-0.554 0-1 0.446-1 1v2c0 0.554 0.446 1 1 1h4c0.554 0 1-0.446 1-1v-2c0-0.554-0.446-1-1-1h-4zm0 5c-0.554 0-1 0.446-1 1v2c0 0.554 0.446 1 1 1h4c0.554 0 1-0.446 1-1v-2c0-0.554-0.446-1-1-1h-4zm0 5c-0.554 0-1 0.446-1 1v2c0 0.554 0.446 1 1 1h4c0.554 0 1-0.446 1-1v-2c0-0.554-0.446-1-1-1h-4zm0 5c-0.554 0-1 0.446-1 1v2c0 0.554 0.446 1 1 1h4c0.554 0 1-0.446 1-1v-2c0-0.554-0.446-1-1-1h-4z" fill="url(#linearGradient3849)"/>
   <path id="path3733" d="m49 6c-0.554 0-1 0.446-1 1v2c0 0.554 0.446 1 1 1h4c0.554 0 1-0.446 1-1v-2c0-0.554-0.446-1-1-1h-4zm0 5c-0.554 0-1 0.446-1 1v2c0 0.554 0.446 1 1 1h4c0.554 0 1-0.446 1-1v-2c0-0.554-0.446-1-1-1h-4zm0 5c-0.554 0-1 0.446-1 1v2c0 0.554 0.446 1 1 1h4c0.554 0 1-0.446 1-1v-2c0-0.554-0.446-1-1-1h-4zm0 5c-0.554 0-1 0.446-1 1v2c0 0.554 0.446 1 1 1h4c0.554 0 1-0.446 1-1v-2c0-0.554-0.446-1-1-1h-4zm0 5c-0.554 0-1 0.446-1 1v2c0 0.554 0.446 1 1 1h4c0.554 0 1-0.446 1-1v-2c0-0.554-0.446-1-1-1h-4zm0 5c-0.554 0-1 0.446-1 1v2c0 0.554 0.446 1 1 1h4c0.554 0 1-0.446 1-1v-2c0-0.554-0.446-1-1-1h-4zm0 5c-0.554 0-1 0.446-1 1v2c0 0.554 0.446 1 1 1h4c0.554 0 1-0.446 1-1v-2c0-0.554-0.446-1-1-1h-4zm0 5c-0.554 0-1 0.446-1 1v2c0 0.554 0.446 1 1 1h4c0.554 0 1-0.446 1-1v-2c0-0.554-0.446-1-1-1h-4zm0 5c-0.554 0-1 0.446-1 1v2c0 0.554 0.446 1 1 1h4c0.554 0 1-0.446 1-1v-2c0-0.554-0.446-1-1-1h-4zm0 5c-0.554 0-1 0.446-1 1v2c0 0.554 0.446 1 1 1h4c0.554 0 1-0.446 1-1v-2c0-0.554-0.446-1-1-1h-4zm0 5c-0.554 0-1 0.446-1 1v2c0 0.554 0.446 1 1 1h4c0.554 0 1-0.446 1-1v-2c0-0.554-0.446-1-1-1h-4zm0 5c-0.554 0-1 0.446-1 1v2c0 0.554 0.446 1 1 1h4c0.554 0 1-0.446 1-1v-2c0-0.554-0.446-1-1-1h-4zm0 5c-0.554 0-1 0.446-1 1v2c0 0.554 0.446 1 1 1h4c0.554 0 1-0.446 1-1v-2c0-0.554-0.446-1-1-1h-4zm0 5c-0.554 0-1 0.446-1 1v2c0 0.554 0.446 1 1 1h4c0.554 0 1-0.446 1-1v-2c0-0.554-0.446-1-1-1h-4zm0 5c-0.554 0-1 0.446-1 1v2c0 0.554 0.446 1 1 1h4c0.554 0 1-0.446 1-1v-2c0-0.554-0.446-1-1-1h-4zm0 5c-0.554 0-1 0.446-1 1v2c0 0.554 0.446 1 1 1h4c0.554 0 1-0.446 1-1v-2c0-0.554-0.446-1-1-1h-4zm0 5c-0.554 0-1 0.446-1 1v2c0 0.554 0.446 1 1 1h4c0.554 0 1-0.446 1-1v-2c0-0.554-0.446-1-1-1h-4z" fill="url(#linearGradient3851)"/>
   <path id="path3735" d="m56 6c-0.554 0-1 0.446-1 1v2c0 0.554 0.446 1 1 1h4c0.554 0 1-0.446 1-1v-2c0-0.554-0.446-1-1-1h-4zm0 5c-0.554 0-1 0.446-1 1v2c0 0.554 0.446 1 1 1h4c0.554 0 1-0.446 1-1v-2c0-0.554-0.446-1-1-1h-4zm0 5c-0.554 0-1 0.446-1 1v2c0 0.554 0.446 1 1 1h4c0.554 0 1-0.446 1-1v-2c0-0.554-0.446-1-1-1h-4zm0 5c-0.554 0-1 0.446-1 1v2c0 0.554 0.446 1 1 1h4c0.554 0 1-0.446 1-1v-2c0-0.554-0.446-1-1-1h-4zm0 5c-0.554 0-1 0.446-1 1v2c0 0.554 0.446 1 1 1h4c0.554 0 1-0.446 1-1v-2c0-0.554-0.446-1-1-1h-4zm0 5c-0.554 0-1 0.446-1 1v2c0 0.554 0.446 1 1 1h4c0.554 0 1-0.446 1-1v-2c0-0.554-0.446-1-1-1h-4zm0 5c-0.554 0-1 0.446-1 1v2c0 0.554 0.446 1 1 1h4c0.554 0 1-0.446 1-1v-2c0-0.554-0.446-1-1-1h-4zm0 5c-0.554 0-1 0.446-1 1v2c0 0.554 0.446 1 1 1h4c0.554 0 1-0.446 1-1v-2c0-0.554-0.446-1-1-1h-4zm0 5c-0.554 0-1 0.446-1 1v2c0 0.554 0.446 1 1 1h4c0.554 0 1-0.446 1-1v-2c0-0.554-0.446-1-1-1h-4zm0 5c-0.554 0-1 0.446-1 1v2c0 0.554 0.446 1 1 1h4c0.554 0 1-0.446 1-1v-2c0-0.554-0.446-1-1-1h-4zm0 5c-0.554 0-1 0.446-1 1v2c0 0.554 0.446 1 1 1h4c0.554 0 1-0.446 1-1v-2c0-0.554-0.446-1-1-1h-4zm0 5c-0.554 0-1 0.446-1 1v2c0 0.554 0.446 1 1 1h4c0.554 0 1-0.446 1-1v-2c0-0.554-0.446-1-1-1h-4zm0 5c-0.554 0-1 0.446-1 1v2c0 0.554 0.446 1 1 1h4c0.554 0 1-0.446 1-1v-2c0-0.554-0.446-1-1-1h-4zm0 5c-0.554 0-1 0.446-1 1v2c0 0.554 0.446 1 1 1h4c0.554 0 1-0.446 1-1v-2c0-0.554-0.446-1-1-1h-4zm0 5c-0.554 0-1 0.446-1 1v2c0 0.554 0.446 1 1 1h4c0.554 0 1-0.446 1-1v-2c0-0.554-0.446-1-1-1h-4zm0 5c-0.554 0-1 0.446-1 1v2c0 0.554 0.446 1 1 1h4c0.554 0 1-0.446 1-1v-2c0-0.554-0.446-1-1-1h-4zm0 5c-0.554 0-1 0.446-1 1v2c0 0.554 0.446 1 1 1h4c0.554 0 1-0.446 1-1v-2c0-0.554-0.446-1-1-1h-4z" fill="url(#linearGradient3853)"/>
   <path id="path3737" d="m63 6c-0.554 0-1 0.446-1 1v2c0 0.554 0.446 1 1 1h4c0.554 0 1-0.446 1-1v-2c0-0.554-0.446-1-1-1h-4zm0 5c-0.554 0-1 0.446-1 1v2c0 0.554 0.446 1 1 1h4c0.554 0 1-0.446 1-1v-2c0-0.554-0.446-1-1-1h-4zm0 5c-0.554 0-1 0.446-1 1v2c0 0.554 0.446 1 1 1h4c0.554 0 1-0.446 1-1v-2c0-0.554-0.446-1-1-1h-4zm0 5c-0.554 0-1 0.446-1 1v2c0 0.554 0.446 1 1 1h4c0.554 0 1-0.446 1-1v-2c0-0.554-0.446-1-1-1h-4zm0 5c-0.554 0-1 0.446-1 1v2c0 0.554 0.446 1 1 1h4c0.554 0 1-0.446 1-1v-2c0-0.554-0.446-1-1-1h-4zm0 5c-0.554 0-1 0.446-1 1v2c0 0.554 0.446 1 1 1h4c0.554 0 1-0.446 1-1v-2c0-0.554-0.446-1-1-1h-4zm0 5c-0.554 0-1 0.446-1 1v2c0 0.554 0.446 1 1 1h4c0.554 0 1-0.446 1-1v-2c0-0.554-0.446-1-1-1h-4zm0 5c-0.554 0-1 0.446-1 1v2c0 0.554 0.446 1 1 1h4c0.554 0 1-0.446 1-1v-2c0-0.554-0.446-1-1-1h-4zm0 5c-0.554 0-1 0.446-1 1v2c0 0.554 0.446 1 1 1h4c0.554 0 1-0.446 1-1v-2c0-0.554-0.446-1-1-1h-4zm0 5c-0.554 0-1 0.446-1 1v2c0 0.554 0.446 1 1 1h4c0.554 0 1-0.446 1-1v-2c0-0.554-0.446-1-1-1h-4zm0 5c-0.554 0-1 0.446-1 1v2c0 0.554 0.446 1 1 1h4c0.554 0 1-0.446 1-1v-2c0-0.554-0.446-1-1-1h-4zm0 5c-0.554 0-1 0.446-1 1v2c0 0.554 0.446 1 1 1h4c0.554 0 1-0.446 1-1v-2c0-0.554-0.446-1-1-1h-4zm0 5c-0.554 0-1 0.446-1 1v2c0 0.554 0.446 1 1 1h4c0.554 0 1-0.446 1-1v-2c0-0.554-0.446-1-1-1h-4zm0 5c-0.554 0-1 0.446-1 1v2c0 0.554 0.446 1 1 1h4c0.554 0 1-0.446 1-1v-2c0-0.554-0.446-1-1-1h-4zm0 5c-0.554 0-1 0.446-1 1v2c0 0.554 0.446 1 1 1h4c0.554 0 1-0.446 1-1v-2c0-0.554-0.446-1-1-1h-4zm0 5c-0.554 0-1 0.446-1 1v2c0 0.554 0.446 1 1 1h4c0.554 0 1-0.446 1-1v-2c0-0.554-0.446-1-1-1h-4zm0 5c-0.554 0-1 0.446-1 1v2c0 0.554 0.446 1 1 1h4c0.554 0 1-0.446 1-1v-2c0-0.554-0.446-1-1-1h-4z" fill="url(#linearGradient3855)"/>
   <path id="path3739" d="m70 6c-0.554 0-1 0.446-1 1v2c0 0.554 0.446 1 1 1h4c0.554 0 1-0.446 1-1v-2c0-0.554-0.446-1-1-1h-4zm0 5c-0.554 0-1 0.446-1 1v2c0 0.554 0.446 1 1 1h4c0.554 0 1-0.446 1-1v-2c0-0.554-0.446-1-1-1h-4zm0 5c-0.554 0-1 0.446-1 1v2c0 0.554 0.446 1 1 1h4c0.554 0 1-0.446 1-1v-2c0-0.554-0.446-1-1-1h-4zm0 5c-0.554 0-1 0.446-1 1v2c0 0.554 0.446 1 1 1h4c0.554 0 1-0.446 1-1v-2c0-0.554-0.446-1-1-1h-4zm0 5c-0.554 0-1 0.446-1 1v2c0 0.554 0.446 1 1 1h4c0.554 0 1-0.446 1-1v-2c0-0.554-0.446-1-1-1h-4zm0 5c-0.554 0-1 0.446-1 1v2c0 0.554 0.446 1 1 1h4c0.554 0 1-0.446 1-1v-2c0-0.554-0.446-1-1-1h-4zm0 5c-0.554 0-1 0.446-1 1v2c0 0.554 0.446 1 1 1h4c0.554 0 1-0.446 1-1v-2c0-0.554-0.446-1-1-1h-4zm0 5c-0.554 0-1 0.446-1 1v2c0 0.554 0.446 1 1 1h4c0.554 0 1-0.446 1-1v-2c0-0.554-0.446-1-1-1h-4zm0 5c-0.554 0-1 0.446-1 1v2c0 0.554 0.446 1 1 1h4c0.554 0 1-0.446 1-1v-2c0-0.554-0.446-1-1-1h-4zm0 5c-0.554 0-1 0.446-1 1v2c0 0.554 0.446 1 1 1h4c0.554 0 1-0.446 1-1v-2c0-0.554-0.446-1-1-1h-4zm0 5c-0.554 0-1 0.446-1 1v2c0 0.554 0.446 1 1 1h4c0.554 0 1-0.446 1-1v-2c0-0.554-0.446-1-1-1h-4zm0 5c-0.554 0-1 0.446-1 1v2c0 0.554 0.446 1 1 1h4c0.554 0 1-0.446 1-1v-2c0-0.554-0.446-1-1-1h-4zm0 5c-0.554 0-1 0.446-1 1v2c0 0.554 0.446 1 1 1h4c0.554 0 1-0.446 1-1v-2c0-0.554-0.446-1-1-1h-4zm0 5c-0.554 0-1 0.446-1 1v2c0 0.554 0.446 1 1 1h4c0.554 0 1-0.446 1-1v-2c0-0.554-0.446-1-1-1h-4zm0 5c-0.554 0-1 0.446-1 1v2c0 0.554 0.446 1 1 1h4c0.554 0 1-0.446 1-1v-2c0-0.554-0.446-1-1-1h-4zm0 5c-0.554 0-1 0.446-1 1v2c0 0.554 0.446 1 1 1h4c0.554 0 1-0.446 1-1v-2c0-0.554-0.446-1-1-1h-4zm0 5c-0.554 0-1 0.446-1 1v2c0 0.554 0.446 1 1 1h4c0.554 0 1-0.446 1-1v-2c0-0.554-0.446-1-1-1h-4z" fill="url(#linearGradient3857)"/>
   <path id="path3741" d="m77 6c-0.554 0-1 0.446-1 1v2c0 0.554 0.446 1 1 1h4c0.554 0 1-0.446 1-1v-2c0-0.554-0.446-1-1-1h-4zm0 5c-0.554 0-1 0.446-1 1v2c0 0.554 0.446 1 1 1h4c0.554 0 1-0.446 1-1v-2c0-0.554-0.446-1-1-1h-4zm0 5c-0.554 0-1 0.446-1 1v2c0 0.554 0.446 1 1 1h4c0.554 0 1-0.446 1-1v-2c0-0.554-0.446-1-1-1h-4zm0 5c-0.554 0-1 0.446-1 1v2c0 0.554 0.446 1 1 1h4c0.554 0 1-0.446 1-1v-2c0-0.554-0.446-1-1-1h-4zm0 5c-0.554 0-1 0.446-1 1v2c0 0.554 0.446 1 1 1h4c0.554 0 1-0.446 1-1v-2c0-0.554-0.446-1-1-1h-4zm0 5c-0.554 0-1 0.446-1 1v2c0 0.554 0.446 1 1 1h4c0.554 0 1-0.446 1-1v-2c0-0.554-0.446-1-1-1h-4zm0 5c-0.554 0-1 0.446-1 1v2c0 0.554 0.446 1 1 1h4c0.554 0 1-0.446 1-1v-2c0-0.554-0.446-1-1-1h-4zm0 5c-0.554 0-1 0.446-1 1v2c0 0.554 0.446 1 1 1h4c0.554 0 1-0.446 1-1v-2c0-0.554-0.446-1-1-1h-4zm0 5c-0.554 0-1 0.446-1 1v2c0 0.554 0.446 1 1 1h4c0.554 0 1-0.446 1-1v-2c0-0.554-0.446-1-1-1h-4zm0 5c-0.554 0-1 0.446-1 1v2c0 0.554 0.446 1 1 1h4c0.554 0 1-0.446 1-1v-2c0-0.554-0.446-1-1-1h-4zm0 5c-0.554 0-1 0.446-1 1v2c0 0.554 0.446 1 1 1h4c0.554 0 1-0.446 1-1v-2c0-0.554-0.446-1-1-1h-4zm0 5c-0.554 0-1 0.446-1 1v2c0 0.554 0.446 1 1 1h4c0.554 0 1-0.446 1-1v-2c0-0.554-0.446-1-1-1h-4zm0 5c-0.554 0-1 0.446-1 1v2c0 0.554 0.446 1 1 1h4c0.554 0 1-0.446 1-1v-2c0-0.554-0.446-1-1-1h-4zm0 5c-0.554 0-1 0.446-1 1v2c0 0.554 0.446 1 1 1h4c0.554 0 1-0.446 1-1v-2c0-0.554-0.446-1-1-1h-4zm0 5c-0.554 0-1 0.446-1 1v2c0 0.554 0.446 1 1 1h4c0.554 0 1-0.446 1-1v-2c0-0.554-0.446-1-1-1h-4zm0 5c-0.554 0-1 0.446-1 1v2c0 0.554 0.446 1 1 1h4c0.554 0 1-0.446 1-1v-2c0-0.554-0.446-1-1-1h-4zm0 5c-0.554 0-1 0.446-1 1v2c0 0.554 0.446 1 1 1h4c0.554 0 1-0.446 1-1v-2c0-0.554-0.446-1-1-1h-4z" fill="url(#linearGradient3859)"/>
   <path id="path3743" d="m84 6c-0.554 0-1 0.446-1 1v2c0 0.554 0.446 1 1 1h4c0.554 0 1-0.446 1-1v-2c0-0.554-0.446-1-1-1h-4zm0 5c-0.554 0-1 0.446-1 1v2c0 0.554 0.446 1 1 1h4c0.554 0 1-0.446 1-1v-2c0-0.554-0.446-1-1-1h-4zm0 5c-0.554 0-1 0.446-1 1v2c0 0.554 0.446 1 1 1h4c0.554 0 1-0.446 1-1v-2c0-0.554-0.446-1-1-1h-4zm0 5c-0.554 0-1 0.446-1 1v2c0 0.554 0.446 1 1 1h4c0.554 0 1-0.446 1-1v-2c0-0.554-0.446-1-1-1h-4zm0 5c-0.554 0-1 0.446-1 1v2c0 0.554 0.446 1 1 1h4c0.554 0 1-0.446 1-1v-2c0-0.554-0.446-1-1-1h-4zm0 5c-0.554 0-1 0.446-1 1v2c0 0.554 0.446 1 1 1h4c0.554 0 1-0.446 1-1v-2c0-0.554-0.446-1-1-1h-4zm0 5c-0.554 0-1 0.446-1 1v2c0 0.554 0.446 1 1 1h4c0.554 0 1-0.446 1-1v-2c0-0.554-0.446-1-1-1h-4zm0 5c-0.554 0-1 0.446-1 1v2c0 0.554 0.446 1 1 1h4c0.554 0 1-0.446 1-1v-2c0-0.554-0.446-1-1-1h-4zm0 5c-0.554 0-1 0.446-1 1v2c0 0.554 0.446 1 1 1h4c0.554 0 1-0.446 1-1v-2c0-0.554-0.446-1-1-1h-4zm0 5c-0.554 0-1 0.446-1 1v2c0 0.554 0.446 1 1 1h4c0.554 0 1-0.446 1-1v-2c0-0.554-0.446-1-1-1h-4zm0 5c-0.554 0-1 0.446-1 1v2c0 0.554 0.446 1 1 1h4c0.554 0 1-0.446 1-1v-2c0-0.554-0.446-1-1-1h-4zm0 5c-0.554 0-1 0.446-1 1v2c0 0.554 0.446 1 1 1h4c0.554 0 1-0.446 1-1v-2c0-0.554-0.446-1-1-1h-4zm0 5c-0.554 0-1 0.446-1 1v2c0 0.554 0.446 1 1 1h4c0.554 0 1-0.446 1-1v-2c0-0.554-0.446-1-1-1h-4zm0 5c-0.554 0-1 0.446-1 1v2c0 0.554 0.446 1 1 1h4c0.554 0 1-0.446 1-1v-2c0-0.554-0.446-1-1-1h-4zm0 5c-0.554 0-1 0.446-1 1v2c0 0.554 0.446 1 1 1h4c0.554 0 1-0.446 1-1v-2c0-0.554-0.446-1-1-1h-4zm0 5c-0.554 0-1 0.446-1 1v2c0 0.554 0.446 1 1 1h4c0.554 0 1-0.446 1-1v-2c0-0.554-0.446-1-1-1h-4zm0 5c-0.554 0-1 0.446-1 1v2c0 0.554 0.446 1 1 1h4c0.554 0 1-0.446 1-1v-2c0-0.554-0.446-1-1-1h-4z" fill="url(#linearGradient3861)"/>
  </g>
  <rect id="rect2419" x="6" y="-94" width="84" height="84" rx="6" ry="6" fill="url(#linearGradient3617)"/>
  <path id="rect3728" d="m12 6c-3.324 0-6 2.676-6 6v2 68 2c0 0.33472 0.04135 0.6507 0.09375 0.96875 0.0487 0.2956 0.09704 0.59692 0.1875 0.875 0.00988 0.03038 0.020892 0.0636 0.03125 0.09375 0.098865 0.28777 0.23488 0.54745 0.375 0.8125 0.14459 0.27351 0.31562 0.53562 0.5 0.78125s0.37378 0.47347 0.59375 0.6875c0.43995 0.42806 0.94291 0.81453 1.5 1.0938 0.27854 0.13961 0.57347 0.24695 0.875 0.34375-0.2562-0.10022-0.48671-0.23627-0.71875-0.375-0.00741-0.0044-0.023866 0.0045-0.03125 0-0.031933-0.0193-0.062293-0.04251-0.09375-0.0625-0.1204-0.0767-0.23102-0.16351-0.34375-0.25-0.10617-0.0808-0.21328-0.16111-0.3125-0.25-0.17793-0.16143-0.34746-0.34539-0.5-0.53125-0.10758-0.13026-0.21839-0.26528-0.3125-0.40625-0.025089-0.03838-0.038446-0.08587-0.0625-0.125-0.064763-0.10303-0.13023-0.20452-0.1875-0.3125-0.10101-0.19471-0.20567-0.4157-0.28125-0.625-0.00796-0.02181-0.023589-0.04055-0.03125-0.0625-0.031825-0.09195-0.035804-0.18683-0.0625-0.28125-0.030332-0.10662-0.070389-0.20303-0.09375-0.3125-0.072879-0.34151-0.125-0.6982-0.125-1.0625v-2-68-2c0-2.7818 2.2182-5 5-5h2 68 2c2.7818 0 5 2.2182 5 5v2 68 2c0 0.3643-0.05212 0.72099-0.125 1.0625-0.04415 0.20689-0.08838 0.39766-0.15625 0.59375-0.0077 0.02195-0.0233 0.04069-0.03125 0.0625-0.06274 0.17374-0.13838 0.36745-0.21875 0.53125-0.04158 0.0828-0.07904 0.16995-0.125 0.25-0.0546 0.09721-0.12677 0.18835-0.1875 0.28125-0.09411 0.14096-0.20492 0.276-0.3125 0.40625-0.14317 0.17445-0.30314 0.347-0.46875 0.5-0.01117 0.0102-0.01998 0.02115-0.03125 0.03125-0.13839 0.12556-0.28509 0.23444-0.4375 0.34375-0.10257 0.07315-0.20432 0.15336-0.3125 0.21875-0.0074 0.0045-0.02384-0.0044-0.03125 0-0.23204 0.13873-0.46255 0.27478-0.71875 0.375 0.30153-0.0968 0.59646-0.20414 0.875-0.34375 0.55709-0.27922 1.0601-0.66569 1.5-1.0938 0.21997-0.21403 0.40937-0.44186 0.59375-0.6875s0.35541-0.50774 0.5-0.78125c0.14012-0.26505 0.27614-0.52473 0.375-0.8125 0.01041-0.03078 0.02133-0.06274 0.03125-0.09375 0.09046-0.27808 0.1388-0.5794 0.1875-0.875 0.0524-0.31805 0.09375-0.63403 0.09375-0.96875v-2-68-2c0-3.324-2.676-6-6-6h-72z" fill="url(#linearGradient3188)" opacity=".2"/>
  <rect id="rect3863" x="6" y="42" width="84" height="48" rx="6" ry="6" fill="url(#linearGradient3869)" opacity=".4"/>
  <path id="path3615" d="m12 90c-3.324 0-6-2.676-6-6v-2-68-2c0-0.33472 0.04135-0.6507 0.09375-0.96875 0.0487-0.2956 0.09704-0.59692 0.1875-0.875 0.00988-0.03038 0.020892-0.0636 0.03125-0.09375 0.098865-0.28777 0.23488-0.54745 0.375-0.8125 0.14459-0.27351 0.31562-0.53562 0.5-0.78125s0.37378-0.47347 0.59375-0.6875c0.43995-0.42806 0.94291-0.81453 1.5-1.0938 0.27854-0.13961 0.57347-0.24695 0.875-0.34375-0.2562 0.10022-0.48671 0.23627-0.71875 0.375-0.00741 0.0044-0.023866-0.0045-0.03125 0-0.031933 0.0193-0.062293 0.04251-0.09375 0.0625-0.1204 0.0767-0.23102 0.16351-0.34375 0.25-0.10617 0.0808-0.21328 0.16111-0.3125 0.25-0.17793 0.16143-0.34746 0.34539-0.5 0.53125-0.10758 0.13026-0.21839 0.26528-0.3125 0.40625-0.025089 0.03838-0.038446 0.08587-0.0625 0.125-0.064763 0.10303-0.13023 0.20452-0.1875 0.3125-0.10101 0.19471-0.20567 0.4157-0.28125 0.625-0.00796 0.02181-0.023589 0.04055-0.03125 0.0625-0.031825 0.09195-0.035804 0.18683-0.0625 0.28125-0.030332 0.10662-0.070389 0.20303-0.09375 0.3125-0.072879 0.34151-0.125 0.6982-0.125 1.0625v2 68 2c0 2.7818 2.2182 5 5 5h2 68 2c2.7818 0 5-2.2182 5-5v-2-68-2c0-0.3643-0.05212-0.72099-0.125-1.0625-0.04415-0.20689-0.08838-0.39766-0.15625-0.59375-0.0077-0.02195-0.0233-0.04069-0.03125-0.0625-0.06274-0.17374-0.13838-0.36745-0.21875-0.53125-0.04158-0.0828-0.07904-0.16995-0.125-0.25-0.0546-0.09721-0.12677-0.18835-0.1875-0.28125-0.09411-0.14096-0.20492-0.276-0.3125-0.40625-0.14317-0.17445-0.30314-0.347-0.46875-0.5-0.01117-0.0102-0.01998-0.02115-0.03125-0.03125-0.13839-0.12556-0.28509-0.23444-0.4375-0.34375-0.10257-0.07315-0.20432-0.15336-0.3125-0.21875-0.0074-0.0045-0.02384 0.0044-0.03125 0-0.23204-0.13873-0.46255-0.27478-0.71875-0.375 0.30153 0.0968 0.59646 0.20414 0.875 0.34375 0.55709 0.27922 1.0601 0.66569 1.5 1.0938 0.21997 0.21403 0.40937 0.44186 0.59375 0.6875s0.35541 0.50774 0.5 0.78125c0.14012 0.26505 0.27614 0.52473 0.375 0.8125 0.01041 0.03078 0.02133 0.06274 0.03125 0.09375 0.09046 0.27808 0.1388 0.5794 0.1875 0.875 0.0524 0.31805 0.09375 0.63403 0.09375 0.96875v2 68 2c0 3.324-2.676 6-6 6h-72z" fill="url(#radialGradient3619)" opacity=".2"/>
  <rect id="rect2880" x="106" y="6" width="84" height="84" rx="6" ry="6" fill="url(#linearGradient2882)"/>
  <rect id="rect3666" transform="rotate(-90)" x="10" y="6" width="84" height="84" rx="6" ry="6" fill="url(#linearGradient3674)" opacity=".3"/>
 </g>
 <g id="layer5" display="none">
  <rect id="rect3171" x="15" y="15" width="66" height="66" rx="12" ry="12" clip-path="url(#clipPath3613)" fill="url(#linearGradient3613)" filter="url(#filter3794)" opacity=".1" stroke="#fff" stroke-linecap="round" stroke-width=".5"/>
 </g>
 <g id="layer3">
  <path id="path3798" d="m47.969 20.031c-6.1296-0.13024-11.32 5.439-10.906 11.531h-0.03125v12.562c-0.19897-0.02185-0.41554-0.09349-0.59375-0.09375-0.80461-0.0012-1.4602 0.07822-1.8438 0.03125a1.2043 1.2043 0 0 0-0.21875 0c-1.1666 0.06995-2.6414-0.23678-4.2812 0.125a1.2043 1.2043 0 0 0-0.21875 0.09375c-1.2227 0.52785-1.7652 1.7755-1.8438 2.7188-0.0731 0.87779 0.04773 1.628 0.03125 2.0938-0.0012 0.03475 0.0026 0.1252 0 0.15625-0.14068 0.89264 0.08097 1.7961 0.59375 2.5 0.51459 0.70639 1.4037 1.1717 2.4062 1.1562-0.0026 0.03035 0.0047-0.0013 0 0.03125a1.2043 1.2043 0 0 0 0 0.125c-0.236 4.1362 0.64588 8.4878 3.3438 11.906 0.0089 0.01179 0.02229 0.01948 0.03125 0.03125 1.9398 2.5478 4.6428 4.4452 7.625 5.5938 0.01137 0.17941-8e-3 0.41347 0 0.5625-0.35115 0.03042-0.66811-0.03703-1.0312 0.09375-0.7918 0.28516-1.6225 1.0057-1.875 2.0312a1.2043 1.2043 0 0 0-0.03125 0.21875c-0.0837 1.3024-0.16868 2.7247 0.03125 4.1562a1.2043 1.2043 0 0 0 0.03125 0.15625c0.2765 1.0529 1.1626 1.7225 1.9688 1.9688 0.76094 0.23244 1.4834 0.21191 2.0938 0.15625v0.03125c3.6939-0.04212 7.4772 0.08688 11.25-0.0625a1.2043 1.2043 0 0 0 0.21875-0.0625c1.0157-0.2502 1.7424-1.0574 2.0312-1.8438 0.27292-0.74297 0.26245-1.4656 0.1875-2.125h0.03125c-0.01602-0.44856 0.07203-1.2126-0.03125-2.0625-0.10189-0.83842-0.60524-1.9299-1.6562-2.4375-0.0068-0.0033 0.0068-0.02802 0-0.03125-0.01105-0.0055-0.02023 0.0053-0.03125 0-0.49964-0.24122-0.945-0.29818-1.3438-0.3125-8e-3 -0.06249 0.0037-0.19538 0-0.25-0.0051-0.07513-7.39e-4 -0.07406 0-0.125 6.6394-2.4638 11.401-9.173 11.031-16.344h0.03125v-1.4688c0.30035-0.02598 0.5568 0.03425 0.875-0.0625 0.80682-0.24532 1.692-0.91564 1.9688-1.9688a1.2043 1.2043 0 0 0 0.03125-0.15625c0.19742-1.4283 0.11699-2.8817 0.03125-4.1875a1.2043 1.2043 0 0 0-0.03125-0.1875c-0.2502-1.0157-1.0574-1.7424-1.8438-2.0312-0.74297-0.27292-1.4656-0.26245-2.125-0.1875v-0.03125c-1.4863 0.05468-3.1869-0.01515-4.9062 0.125-0.02136-4.7008 0.04781-9.4434-0.0625-14.188a1.2043 1.2043 0 0 0-0.03125-0.0625c-0.47064-5.4949-5.3265-9.9394-10.844-9.875-0.0209 2.44e-4 -0.04158-3.73e-4 -0.0625 0z" opacity=".08"/>
  <path id="path3746" d="m48 20.188c-5.9466 0-10.812 4.8659-10.812 10.812v13.188c-0.02987-0.0041-0.06249 1e-6 -0.0625 0-0.0023-1.3e-4 -0.15397 2e-5 -0.15625 0h-1.9688-1-2.9062-0.03125c-9.31e-4 -4.6e-5 -0.03035 2.45e-4 -0.0625 0-0.04823-3.68e-4 -0.11335 0-0.09375 0 0.02614 0-0.07964-3.64e-4 -0.125 0-0.0233-4.4e-5 -0.15509-1.15e-4 -0.15625 0a1.0552 1.0552 0 0 0-0.1875 0.0625 1.0552 1.0552 0 0 0-0.03125 0c-9e-3 0.0018-0.02154-0.0019-0.03125 0-0.03886 0.0077-0.18557 0.06191-0.1875 0.0625-0.01872 0.0093-0.03315 0.03231-0.03125 0.03125-0.06593 0.0253-0.26955 0.0828-0.21875 0.0625-0.0037 0.0015-0.18239 0.09118-0.1875 0.09375 0.10582-0.05325-0.21531 0.09163-0.21875 0.09375-0.0034 0.0021-0.35193 0.27818-0.1875 0.15625-0.03692 0.02738-0.03139 8e-3 -0.0625 0.03125-0.03111 0.02328-0.12349 0.12366-0.125 0.125-3e-3 0.0027-0.15347 0.15333-0.15625 0.15625-3.48e-4 3.66e-4 -0.08874 0.08716-0.09375 0.09375 3.14e-4 -3.16e-4 0.0037 0.02761 0 0.03125-8e-3 0.01072-0.05378 0.01958-0.0625 0.03125-0.02325 0.03113 0.0013 0.02967 0 0.03125-0.0057 0.0057-0.02338-8e-3 -0.03125 0-0.0039 4e-3 -0.02216 0.02159-0.03125 0.03125-0.0045 0.0048 0.01133 0.0185 0 0.03125s-0.09368 0.09365-0.09375 0.09375c-0.0022 0.0034-0.1543 0.24646-0.15625 0.25-0.0019 0.0035-0.09212 0.18381-0.09375 0.1875-8.17e-4 0.0018 0.01566 1.39e-4 0 0.03125-0.0078 0.01556-0.0243 0.01732-0.03125 0.03125-0.0035 7e-3 0.0039 0.02334 0 0.03125-0.0039 0.0082-0.06242 0.12476-0.0625 0.125-8.2e-5 2.39e-4 -0.02943 0.11668-0.03125 0.125-0.0018 0.0086 0.0017 0.02287 0 0.03125-0.0034 0.01676-0.02741 0.04307-0.03125 0.0625-0.0077 0.03886 4.9e-4 0.02929 0 0.03125-9.79e-4 0.0039-0.03061 0.24602-0.03125 0.25-3.19e-4 2e-3 -0.0234-0.0076-0.03125 0.03125-0.0039 0.01942 0.0033 0.04587 0 0.0625-0.0016 0.0084-0.03121 0.15575-0.03125 0.15625-1.47e-4 2e-3 -3.1e-5 0.09375 0 0.125s-0.0014-0.04969 0 0.0625v3c2e-5 0.0023-1.3e-4 0.15397 0 0.15625 1e-6 1.5e-5 0.02663 0.02862 0.03125 0.0625-3.8e-5 0.0079 4e-6 0.02177 0 0.03125-1.4e-5 0.0064 5.1e-5 0.0196 0 0.03125 0.0013 0.0098-3e-6 0.03124 0 0.03125-4e-6 6e-3 -7.6e-5 0.02232 0 0.03125 3.8e-5 0.0045-2.85e-4 0.01982 0 0.03125 0.0026 0.0097-0.0015 0.02597 0 0.03125 3.41e-4 0.0067 0.02712 0.03067 0.03125 0.0625 0.0056 0.04341-8e-6 0.09371 0 0.09375 5.7e-5 2.79e-4 0.02928 0.119 0.03125 0.125 0.0035 0.01044-0.0039 0.01962 0 0.03125 0.01011 0.03097 0.05646 0.11062 0.0625 0.125 0.0073 0.01738-3e-3 0.0247 0 0.03125 8.55e-4 0.0026 0.03037-0.0026 0.03125 0 0.0017 0.0035-0.0012 0.02887 0 0.03125 0.0049 0.0098-4e-3 0.02346 0 0.03125 0.0029 0.0085-1.5e-4 0.03084 0 0.03125 9.7e-5 2.68e-4 0.05956 0.08776 0.0625 0.09375 0.0018 0.0053-0.0021 0.02514 0 0.03125 0.0012 0.0033 0.0205 0.03651 0.03125 0.0625 0.0013 0.0038-0.0045 0.01926 0 0.03125 0.0053 0.01287 0.03123 0.03121 0.03125 0.03125 0.0049 0.01079-0.0055 0.0192 0 0.03125 2e-3 0.0056 0.02509 0.0156 0.03125 0.03125 0.0068 0.01348-3.24e-4 0.03065 0 0.03125 0.0034 0.0081-1.6e-5 0.03121 0 0.03125 3.2e-5 7.3e-5 0.06248 0.09372 0.0625 0.09375 5e-6 9e-6 0.02187 0.01786 0.03125 0.03125 0.0039 0.0078 0.02668 0.0221 0.03125 0.03125 0.01802 0.02571 0.03123 0.06247 0.03125 0.0625 4.7e-5 5.8e-5 0.0248 0.02393 0.03125 0.03125 0.01997 0.03045 0.03122 0.06247 0.03125 0.0625 0.01095 0.01395 0.02836 0.02806 0.03125 0.03125 0.01223 0.01452 0.01835 0.01605 0.03125 0.03125s0.02923 0.02915 0.03125 0.03125c0.0061 0.0063-0.0026 0.02866 0 0.03125 0.0076 0.0075 0.02345 0.0235 0.03125 0.03125 0.02529 0.02723 0.05378 0.05381 0.0625 0.0625 0.0015 0.0017 0.1162 0.1162 0.09375 0.09375-0.02245-0.02245 0.09206 0.09222 0.09375 0.09375 0.0087 0.0087 0.03526 0.03721 0.0625 0.0625 0.0077 0.0078 0.0237 0.0237 0.03125 0.03125 0.0026 0.0026 0.02495-0.0061 0.03125 0 0.0021 2e-3 0.01605 0.01835 0.03125 0.03125s0.01673 0.01902 0.03125 0.03125 0.03121 0.03122 0.03125 0.03125c0.0037 0.0036 0.02099 0.02161 0.03125 0.03125 0.0107 0.0071 0.01983-0.0075 0.03125 0 0.0073 0.0064 0.03119 0.0312 0.03125 0.03125 0.01358 0.0077 0.02594 0.0284 0.03125 0.03125 0.0077 0.0054 0.0219-0.0066 0.03125 0 0.0092 0.0046 0.02341 0.02738 0.03125 0.03125 0.01339 0.0094 0.03124 0.03124 0.03125 0.03125 3.1e-5 1.8e-5 0.09368 0.06247 0.09375 0.0625 7.3e-5 3.2e-5 0.05467-0.0031 0.0625 0 0.03146 0.01584 0.06106 0.03056 0.0625 0.03125 0.01619 0.0074 0.02765 0.02989 0.03125 0.03125 0.01199 0.0045 0.0275-0.0013 0.03125 0 0.02599 0.01075 0.05917 0.03009 0.0625 0.03125 0.0061 0.0021 0.026-0.0018 0.03125 0 0.0105 0.0035 0.0196 0.0274 0.03125 0.03125 0.03113 0.01328 0.06234 0.03119 0.0625 0.03125 0.0031 0.0016 0.02736-2e-3 0.03125 0 0.01707 0.0057 0.03614-0.0088 0.0625 0 0.0035 0.0017-0.0066 0.02824 0 0.03125 0.02559 0.0085 0.06166-2.59e-4 0.0625 0 0.03195 0.01113 0.06923 0.05449 0.09375 0.0625 0.01163 0.0039 0.02081-0.0035 0.03125 0 6e-3 2e-3 0.12472 0.03119 0.125 0.03125 4e-5 8e-6 0.05034-0.0056 0.09375 0 0.03183 0.0041 0.0558 0.03091 0.0625 0.03125 0.0053 0.0015 0.02152-0.0026 0.03125 0 0.01143 2.85e-4 0.02679-3.8e-5 0.03125 0 0.01138 2e-3 0.03126 1e-6 0.03125 0 4.5e-5 1e-5 0.04755-0.0063 0.09375 0 0.03388 0.0046 0.06248 0.03125 0.0625 0.03125 0.0023 1.3e-4 0.15397-2e-5 0.15625 0h0.1875v2.1875c0 7.1225 4.688 13.057 11 15.469v0.71875h-0.1875c-0.0023 2e-5 -0.15397-1.3e-4 -0.15625 0-1.5e-5 1e-6 -0.02862 0.02663-0.0625 0.03125-0.0462 0.0063-0.0937-1e-5 -0.09375 0-3.9e-5 8e-6 -0.02105-0.0024-0.03125 0s-0.02638-0.0013-0.03125 0c-0.0057 1.42e-4 -0.01541-8.07e-4 -0.03125 0-0.0067 3.41e-4 -0.03067 0.02712-0.0625 0.03125-0.04341 0.0056-0.09371-8e-6 -0.09375 0-2.79e-4 5.7e-5 -0.119 0.02928-0.125 0.03125 0.0011-2.83e-4 -0.05451 0.0078-0.03125 0-0.03097 0.01011-0.11062 0.05646-0.125 0.0625-0.01738 0.0073-0.0247-3e-3 -0.03125 0-0.01311 6e-3 -0.02649 0.02894-0.03125 0.03125-0.02559 0.0086-0.06168-2.99e-4 -0.0625 0-1.65e-4 6e-5 -0.03137 0.01797-0.0625 0.03125-0.01165 0.0039-0.02074 0.02775-0.03125 0.03125-0.0053 0.0018-0.02514-0.0021-0.03125 0-0.0033 0.0012-0.03651 0.0205-0.0625 0.03125-0.0038 0.0013-0.01926-0.0045-0.03125 0s-0.12506 0.06253-0.125 0.0625c-0.0081 0.0034-0.03121-1.6e-5 -0.03125 0-7.3e-5 3.2e-5 -0.09372 0.06248-0.09375 0.0625-1.7e-5 1e-5 -0.02977 0.03956-0.0625 0.0625-0.02571 0.01802-0.06247 0.03123-0.0625 0.03125-0.01358 0.0077-0.09369 0.06246-0.09375 0.0625-0.01395 0.01095-0.02806 0.02836-0.03125 0.03125-0.0077 0.0078-0.02763 0.02761-0.03125 0.03125-0.0152 0.0129-0.02915 0.02923-0.03125 0.03125-0.0063 0.0061-0.02866-0.0026-0.03125 0-0.0075 0.0076-0.0235 0.02345-0.03125 0.03125-0.02723 0.02529-0.05381 0.05378-0.0625 0.0625-0.0017 0.0015-0.1162 0.1162-0.09375 0.09375 0.02245-0.02245-0.09222 0.09206-0.09375 0.09375-0.0087 0.0087-0.03721 0.03526-0.0625 0.0625-0.0078 0.0077-0.0237 0.0237-0.03125 0.03125-0.0038 0.0041 1.16e-4 0.03111 0 0.03125-2e-3 0.0021-0.01835 0.01605-0.03125 0.03125-0.0036 0.0036-0.02343 0.02352-0.03125 0.03125-0.0078 0.0077-0.02259 0.02261-0.03125 0.03125-0.0036 0.0037-0.02161 0.02099-0.03125 0.03125-0.0048 0.0051 0.0129 0.0166 0 0.03125-0.01248 0.01903-0.02827 0.02603-0.03125 0.03125-0.0077 0.01358-0.0284 0.02594-0.03125 0.03125-0.0057 0.01063 0.0021 0.02719 0 0.03125-0.0046 0.0092-0.02738 0.02341-0.03125 0.03125-0.0094 0.01339-0.03124 0.03124-0.03125 0.03125-1.8e-5 3e-5 -0.06247 0.09368-0.0625 0.09375-3.2e-5 7.3e-5 0.0031 0.05467 0 0.0625-0.0091 0.01798-0.02221 0.01327-0.03125 0.03125-3e-3 0.0088 2e-3 0.02533 0 0.03125-0.0039 0.01184-0.02742 0.01959-0.03125 0.03125-0.0038 0.01166 0.0021 0.02483 0 0.03125-0.01075 0.02599-0.03009 0.05917-0.03125 0.0625 0.0079-0.0156-4.4e-4 0.0323 0 0.03125-0.0035 0.0105-0.0274 0.0196-0.03125 0.03125-0.01328 0.03113-0.03119 0.06234-0.03125 0.0625-0.0016 0.0031 2e-3 0.02736 0 0.03125-4e-3 0.0078 0.0049 0.02145 0 0.03125-0.0051 0.01535-0.02612 0.0159-0.03125 0.03125-3e-3 0.0066 0.0073 0.01387 0 0.03125-0.0028 0.0085 1.29e-4 0.03083 0 0.03125-0.01113 0.03195-0.05449 0.06923-0.0625 0.09375 0.0078-0.02326-2.83e-4 0.03235 0 0.03125-2e-3 6e-3 -0.03119 0.12472-0.03125 0.125-8e-6 4e-5 0.0056 0.05034 0 0.09375-0.0041 0.03183-0.03091 0.0558-0.03125 0.0625-8.07e-4 0.01584 1.42e-4 0.02554 0 0.03125-2.85e-4 0.01143 3.8e-5 0.02679 0 0.03125-7.6e-5 0.0089-4e-6 0.0253 0 0.03125 8e-6 0.0119-5.1e-5 0.0196 0 0.03125-1.28e-4 0.0074 5e-6 0.03019 0 0.03125 4e-6 0.0095-3.8e-5 0.0234 0 0.03125-0.0046 0.03388-0.03125 0.06248-0.03125 0.0625-1.3e-4 0.0023 2e-5 0.15397 0 0.15625v3c2e-5 0.0023-1.3e-4 0.15397 0 0.15625 1e-6 1.5e-5 0.02663 0.02862 0.03125 0.0625 0.0016 0.02879 4.5e-5 0.09418 0 0.09375-4e-6 6e-3 -7.6e-5 0.02232 0 0.03125 3.8e-5 0.0045-2.85e-4 0.01982 0 0.03125 0.0026 0.0097-0.0015 0.02597 0 0.03125 3.41e-4 0.0067 0.02712 0.03067 0.03125 0.0625 0.0056 0.04341-8e-6 0.09371 0 0.09375 5.7e-5 2.79e-4 0.02928 0.119 0.03125 0.125 0.0035 0.01044-0.0039 0.01962 0 0.03125 0.01011 0.03097 0.05646 0.11062 0.0625 0.125 0.0073 0.01738-3e-3 0.0247 0 0.03125 8.55e-4 0.0026 0.03037-0.0026 0.03125 0 0.0017 0.0035-0.0012 0.02887 0 0.03125 0.0049 0.0098-4e-3 0.02346 0 0.03125 0.0029 0.0085-1.5e-4 0.03084 0 0.03125 6e-5 1.65e-4 0.01797 0.03137 0.03125 0.0625 0.0039 0.01165 0.02775 0.02075 0.03125 0.03125 4e-3 8e-3 -0.0039 0.02345 0 0.03125 0.0012 0.0033 0.0205 0.03651 0.03125 0.0625 0.0021 0.0064-0.0038 0.01959 0 0.03125s0.02731 0.01941 0.03125 0.03125c2e-3 0.0059-3e-3 0.02246 0 0.03125 2e-3 0.0056 0.02509 0.0156 0.03125 0.03125 0.0068 0.01348-3.24e-4 0.03065 0 0.03125 0.0034 0.0081-1.6e-5 0.03121 0 0.03125 3.2e-5 7.3e-5 0.06248 0.09372 0.0625 0.09375 5e-6 9e-6 0.02187 0.01786 0.03125 0.03125 0.0039 0.0078 0.02668 0.0221 0.03125 0.03125 0.01802 0.02571 0.03123 0.06248 0.03125 0.0625 4.7e-5 5.8e-5 0.0248 0.02393 0.03125 0.03125 0.0075 0.01142-0.0071 0.02055 0 0.03125 0.0096 0.01026 0.02761 0.02753 0.03125 0.03125 0.0087 0.0086 0.02343 0.02352 0.03125 0.03125 0.01223 0.01452 0.01835 0.01605 0.03125 0.03125s0.02923 0.02915 0.03125 0.03125c0.0061 0.0063-0.0026 0.02866 0 0.03125 0.0076 0.0075 0.02345 0.0235 0.03125 0.03125 0.02529 0.02724 0.05378 0.05381 0.0625 0.0625 0.0015 0.0017 0.1162 0.1162 0.09375 0.09375-0.02245-0.02245 0.09206 0.09222 0.09375 0.09375 0.0087 0.0087 0.03527 0.03721 0.0625 0.0625 0.0077 0.0078 0.0237 0.0237 0.03125 0.03125 0.0026 0.0026 0.02495-0.0061 0.03125 0 0.0021 2e-3 0.01605 0.01835 0.03125 0.03125s0.01673 0.01902 0.03125 0.03125 0.03121 0.03122 0.03125 0.03125c0.0037 0.0036 0.02099 0.02161 0.03125 0.03125 0.0107 0.0071 0.01983-0.0075 0.03125 0 0.0073 0.0064 0.03119 0.0312 0.03125 0.03125 0.01358 0.0077 0.02594 0.0284 0.03125 0.03125 0.0077 0.0054 0.0219-0.0066 0.03125 0 0.0092 0.0046 0.02341 0.02738 0.03125 0.03125 0.01339 0.0094 0.03124 0.03124 0.03125 0.03125 3.1e-5 1.8e-5 0.09368 0.06247 0.09375 0.0625 7.3e-5 3.2e-5 0.05467-0.0031 0.0625 0 0.03146 0.01584 0.06106 0.03056 0.0625 0.03125 0.01619 0.0074 0.02765 0.02989 0.03125 0.03125 0.01199 0.0045 0.0275-0.0013 0.03125 0 0.02599 0.01075 0.05917 0.03009 0.0625 0.03125 0.0061 0.0021 0.026-0.0018 0.03125 0 0.01051 0.0035 0.0196 0.0274 0.03125 0.03125 0.03113 0.01328 0.06233 0.03119 0.0625 0.03125 0.0021 1e-3 0.02663-0.0022 0.03125 0 0.01707 0.0057 0.03614-0.0088 0.0625 0 0.0035 0.0017-0.0066 0.02824 0 0.03125 0.02559 0.0085 0.06166-2.59e-4 0.0625 0 0.03195 0.01113 0.06923 0.05449 0.09375 0.0625 0.01163 0.0039 0.02081-0.0035 0.03125 0 6e-3 2e-3 0.12472 0.03119 0.125 0.03125 4e-5 8e-6 0.05034-0.0056 0.09375 0 0.03183 0.0041 0.0558 0.03091 0.0625 0.03125 0.0053 0.0015 0.02152-0.0026 0.03125 0 0.01575 0.0027 0.01987-2e-3 0.03125 0s0.03126 1e-6 0.03125 0c4.5e-5 1e-5 0.04755-0.0063 0.09375 0 0.03388 0.0046 0.06249 0.03125 0.0625 0.03125 0.0023 1.3e-4 0.15397-2e-5 0.15625 0h12c0.0023-2e-5 0.15397 1.3e-4 0.15625 0 1.5e-5 -1e-6 0.02862-0.02663 0.0625-0.03125 0.0462-0.0063 0.0937 1e-5 0.09375 0 0.01196-1e-3 0.01609 0.0014 0.03125 0 0.02275-0.0039 0.03625 0.0045 0.0625 0 0.0067-3.41e-4 0.03067-0.02712 0.0625-0.03125 0.04341-0.0056 0.09371 8e-6 0.09375 0 2.79e-4 -5.7e-5 0.119-0.02928 0.125-0.03125 5.7e-5 -1.5e-5 0.08464-0.04844 0.125-0.0625-1.36e-4 4.2e-5 0.11576-0.0269 0.125-0.03125 0.0046-0.0022 0.02914 1e-3 0.03125 0 2.68e-4 -9.7e-5 0.08776-0.05956 0.09375-0.0625 0.0053-0.0018 0.02514 0.0021 0.03125 0 0.0067-0.0023 0.12487-0.06244 0.125-0.0625 6.17e-4 -2.95e-4 0.01776 0.0068 0.03125 0 0.0056-2e-3 0.0156-0.02509 0.03125-0.03125 0.01348-0.0068 0.03065 3.24e-4 0.03125 0 0.0081-0.0034 0.03121 1.6e-5 0.03125 0 7.3e-5 -3.2e-5 0.09372-0.06248 0.09375-0.0625 9e-6 -5e-6 0.01786-0.02187 0.03125-0.03125 0.0285-0.01668 0.09394-0.06263 0.09375-0.0625 5.8e-5 -4.7e-5 0.02393-0.0248 0.03125-0.03125 0.03224-0.02487 0.08554-0.05506 0.09375-0.0625 0.0114-0.01033-0.0036-0.02778 0-0.03125 0.02488-0.02101 0.05935-0.02822 0.0625-0.03125 8.8e-4 -7.24e-4 0.10949-0.07818 0.125-0.09375 0.0017-0.0015 0.1162-0.1162 0.09375-0.09375-0.02245 0.02245 0.09222-0.09206 0.09375-0.09375 0.01557-0.01551 0.09303-0.12412 0.09375-0.125 2e-3 -0.0021 0.01835-0.01605 0.03125-0.03125 0.0013-0.0014-0.0069-0.02398 0-0.03125 7e-3 -0.0083 0.02513 0.0073 0.03125 0 0.0074-0.0082 0.03763-0.06151 0.0625-0.09375 0.0064-0.0073 0.0312-0.03119 0.03125-0.03125-1.27e-4 1.89e-4 0.04582-0.06525 0.0625-0.09375 0.0094-0.01339 0.03124-0.03124 0.03125-0.03125 1.8e-5 -3e-5 0.06247-0.09368 0.0625-0.09375 3.2e-5 -7.3e-5 -0.0031-0.05467 0-0.0625 0.0062-0.01565 0.02921-0.02563 0.03125-0.03125 0.0068-0.01349-2.95e-4 -0.03063 0-0.03125 6.1e-5 -1.29e-4 0.06017-0.11835 0.0625-0.125-0.0079 0.0156 4.4e-4 -0.0323 0-0.03125 0.0029-6e-3 0.0624-0.09348 0.0625-0.09375 0.0016-0.0031-2e-3 -0.02736 0-0.03125 4e-3 -0.0078-0.0049-0.02145 0-0.03125 0.01534-0.03927 0.03128-0.09385 0.03125-0.09375 0.01406-0.04036 0.06249-0.12494 0.0625-0.125 2e-3 -6e-3 0.03119-0.12472 0.03125-0.125 8e-6 -4e-5 -0.0056-0.05034 0-0.09375 0.0041-0.03183 0.03091-0.0558 0.03125-0.0625 0.0023-0.01312-0.0027-0.0155 0-0.03125 0.0013-0.0049-0.0024-0.02105 0-0.03125 0.0028-0.03032-1.45e-4 -0.05716 0-0.0625 0.0011-0.01991-0.0011-0.04331 0-0.0625 0.0046-0.03388 0.03125-0.06248 0.03125-0.0625 1.3e-4 -0.0023-2e-5 -0.15397 0-0.15625v-3c-2e-5 -0.0023 1.3e-4 -0.15397 0-0.15625-1e-6 -1.5e-5 -0.02663-0.02862-0.03125-0.0625 3.8e-5 -0.0079-4e-6 -0.02177 0-0.03125-4.3e-5 -0.0043 3.09e-4 -0.01991 0-0.03125-1.45e-4 -0.0053 0.0028-0.03218 0-0.0625-2e-3 -0.01138 0.0027-0.0155 0-0.03125-0.0026-0.0097 0.0015-0.02597 0-0.03125-3.41e-4 -0.0067-0.02712-0.03067-0.03125-0.0625-0.0056-0.04341 8e-6 -0.09371 0-0.09375-5.7e-5 -2.79e-4 -0.02928-0.119-0.03125-0.125-1.5e-5 -5.7e-5 -0.04844-0.08464-0.0625-0.125 3.2e-5 1.04e-4 -0.01591-0.05448-0.03125-0.09375-0.0049-0.0098 4e-3 -0.02346 0-0.03125-0.0022-0.0046 1e-3 -0.02914 0-0.03125-9.7e-5 -2.68e-4 -0.05956-0.08776-0.0625-0.09375 4.4e-4 0.0011-0.0079-0.04685 0-0.03125-0.0023-0.0067-0.06244-0.12487-0.0625-0.125-2.95e-4 -6.17e-4 0.0068-0.01776 0-0.03125-2e-3 -0.0056-0.02509-0.0156-0.03125-0.03125-0.0031-0.0078 3.2e-5 -0.06243 0-0.0625-3.2e-5 -7.3e-5 -0.06248-0.09372-0.0625-0.09375-2e-6 -4e-6 -0.02914 3e-3 -0.03125 0-0.0014-0.0028-0.06266-0.12524-0.0625-0.125-4.7e-5 -5.8e-5 -0.0248-0.02393-0.03125-0.03125-0.02487-0.03224-0.05506-0.08554-0.0625-0.09375-0.02446-0.02903-0.05846-0.0583-0.0625-0.0625-1.16e-4 -1.41e-4 0.0038-0.02713 0-0.03125-0.0076-0.0075-0.02345-0.0235-0.03125-0.03125-0.02529-0.02724-0.05378-0.05381-0.0625-0.0625-0.0015-0.0017-0.1162-0.1162-0.09375-0.09375 0.02245 0.02245-0.09206-0.09222-0.09375-0.09375-0.0087-0.0087-0.03527-0.03721-0.0625-0.0625 0.01549 0.01559-0.06338-0.03197-0.0625-0.03125-0.0031-3e-3 -0.03762-0.01024-0.0625-0.03125-0.0036-0.0035 0.0114-0.02092 0-0.03125-0.0032-0.0029-0.0173-0.0203-0.03125-0.03125-0.0037-0.0036-0.02099-0.02161-0.03125-0.03125-0.0089-0.0069-0.02408 0.0055-0.03125 0-0.0073-0.0064-0.03119-0.0312-0.03125-0.03125-1.6e-5 -1.3e-5 -0.01786-0.02186-0.03125-0.03125-0.01063-0.0057-0.02719 0.0021-0.03125 0-0.02675-0.01574-0.06108-0.03053-0.0625-0.03125-3e-3 -0.0021 4e-6 -0.03125 0-0.03125-3.1e-5 -1.8e-5 -0.09368-0.06247-0.09375-0.0625-3.6e-5 -1.6e-5 -0.02319 0.0034-0.03125 0-6.02e-4 -3.24e-4 -0.01777 0.0068-0.03125 0-0.01565-0.0062-0.02563-0.02921-0.03125-0.03125-0.01349-0.0068-0.03063 2.95e-4 -0.03125 0-6.4e-5 -3.1e-5 -0.03651-0.0205-0.0625-0.03125s-0.05917-0.03009-0.0625-0.03125c0.01561 0.0079-0.0323-4.4e-4 -0.03125 0 0.0011 4.4e-4 -0.05455-0.03896-0.03125-0.03125-0.03113-0.01328-0.06233-0.03119-0.0625-0.03125-0.0013-4.79e-4 -0.05281-0.01758-0.09375-0.03125-0.03089-0.01186-0.06256-2e-5 -0.0625 0-0.03195-0.01113-0.06923-0.05449-0.09375-0.0625 0.02326 0.0078-0.03235-2.83e-4 -0.03125 0-6e-3 -2e-3 -0.12472-0.03119-0.125-0.03125-4e-5 -8e-6 -0.05034 0.0056-0.09375 0-0.03183-0.0041-0.0558-0.03091-0.0625-0.03125-0.0053-0.0015-0.02152 0.0026-0.03125 0-0.01575-0.0027-0.01987 2e-3 -0.03125 0-0.01374-0.0014-0.02026 1e-3 -0.03125 0 4.25e-4 4.5e-5 -0.06496 0.0016-0.09375 0-0.03388-0.0046-0.06249-0.03125-0.0625-0.03125-0.0023-1.3e-4 -0.15397 2e-5 -0.15625 0h-0.1875v-0.71875c6.312-2.4118 11-8.3462 11-15.469v-2.1875h0.1875c0.0023-2e-5 0.15397 1.3e-4 0.15625 0 1.5e-5 -1e-6 0.02862-0.02663 0.0625-0.03125 0.01919-0.0011 0.04259 0.0011 0.0625 0 0.0053-1.45e-4 0.03218 0.0028 0.0625 0 0.02275-0.0039 0.03625 0.0045 0.0625 0 0.0067-3.41e-4 0.03067-0.02712 0.0625-0.03125 0.04341-0.0056 0.09371 8e-6 0.09375 0 2.79e-4 -5.7e-5 0.119-0.02928 0.125-0.03125 5.7e-5 -1.5e-5 0.08464-0.04844 0.125-0.0625-7.2e-5 2.2e-5 0.02746-0.01777 0.0625-0.03125 0.0035-0.0017 0.02887 0.0012 0.03125 0 0.0098-0.0049 0.02346 4e-3 0.03125 0 0.0039-2e-3 0.02812 0.0016 0.03125 0 2.68e-4 -9.7e-5 0.08776-0.05956 0.09375-0.0625-0.0011 4.4e-4 0.04685-0.0079 0.03125 0 0.0033-0.0012 0.03651-0.0205 0.0625-0.03125s0.06244-0.03122 0.0625-0.03125c6.17e-4 -2.95e-4 0.01776 0.0068 0.03125 0 0.0056-2e-3 0.0156-0.02509 0.03125-0.03125 0.0078-0.0031 0.06243 3.2e-5 0.0625 0 7.3e-5 -3.2e-5 0.09372-0.06248 0.09375-0.0625 9e-6 -5e-6 0.01786-0.02187 0.03125-0.03125 0.01069-0.0063 0.0152-0.02181 0.03125-0.03125 0.02571-0.01802 0.06248-0.03123 0.0625-0.03125 0.0052-3e-3 0.01222-0.01877 0.03125-0.03125 0.01465-0.0129 0.02612 0.0048 0.03125 0 0.01564-0.01211 0.0173-0.0203 0.03125-0.03125 0.0086-0.0087 0.02352-0.02343 0.03125-0.03125 0.0114-0.01033-0.0036-0.02778 0-0.03125 0.02488-0.02101 0.05935-0.02822 0.0625-0.03125 0.0063-0.0061 0.02866 0.0026 0.03125 0 0.02164-0.01997 0.08072-0.08067 0.09375-0.09375 0.0017-0.0015 0.1162-0.1162 0.09375-0.09375-0.02245 0.02245 0.09222-0.09206 0.09375-0.09375 0.0087-0.0087 0.03721-0.03527 0.0625-0.0625-0.0094 0.0093 0.01673-0.01471 0.03125-0.03125 0.0026-0.0026-0.0061-0.02495 0-0.03125 2e-3 -0.0021 0.01835-0.01605 0.03125-0.03125 0.0013-0.0014-0.0069-0.02398 0-0.03125 0.0035-0.0036 0.02092 0.0114 0.03125 0 0.0074-0.0082 0.03763-0.06151 0.0625-0.09375 0.0064-0.0073 0.0312-0.03119 0.03125-0.03125-1.27e-4 1.89e-4 0.04582-0.06525 0.0625-0.09375 0.0094-0.01339 0.03124-0.03124 0.03125-0.03125 1.8e-5 -3.1e-5 0.06247-0.09368 0.0625-0.09375 3.2e-5 -7.3e-5 -0.0031-0.05467 0-0.0625 0.0062-0.01565 0.02921-0.02563 0.03125-0.03125 0.0068-0.01349-2.95e-4 -0.03063 0-0.03125 6.1e-5 -1.29e-4 0.06017-0.11835 0.0625-0.125-0.0079 0.01561 4.4e-4 -0.0323 0-0.03125 0.0029-6e-3 0.0624-0.09348 0.0625-0.09375 0.0016-0.0031-2e-3 -0.02736 0-0.03125 4e-3 -0.0078-0.0049-0.02145 0-0.03125 0.01534-0.03927 0.03128-0.09385 0.03125-0.09375 0.01406-0.04036 0.06248-0.12494 0.0625-0.125 2e-3 -6e-3 0.03119-0.12472 0.03125-0.125 8e-6 -4e-5 -0.0056-0.05034 0-0.09375 0.0041-0.03183 0.03091-0.0558 0.03125-0.0625 0.0023-0.01312-0.0027-0.0155 0-0.03125 2.85e-4 -0.01143-3.8e-5 -0.02679 0-0.03125 0.0028-0.03032-1.45e-4 -0.05716 0-0.0625 0.0011-0.01991-0.0011-0.04331 0-0.0625 0.0046-0.03388 0.03125-0.06249 0.03125-0.0625 1.3e-4 -0.0023-2e-5 -0.15397 0-0.15625v-3c-2e-5 -0.0023 1.3e-4 -0.15397 0-0.15625-1e-6 -1.5e-5 -0.02663-0.02862-0.03125-0.0625 3.8e-5 -0.0079-4e-6 -0.02177 0-0.03125-7.29e-4 -0.0132 5.41e-4 -0.0213 0-0.03125 5.1e-5 -0.01165-8e-6 -0.01935 0-0.03125 4e-6 -6e-3 7.6e-5 -0.02232 0-0.03125-2e-3 -0.01138 0.0027-0.0155 0-0.03125-1.42e-4 -0.0057 8.07e-4 -0.01541 0-0.03125-3.41e-4 -0.0067-0.02712-0.03067-0.03125-0.0625-0.0056-0.04341 8e-6 -0.09371 0-0.09375-5.7e-5 -2.79e-4 -0.02928-0.119-0.03125-0.125-1.5e-5 -5.7e-5 -0.04844-0.08464-0.0625-0.125 1e-5 3.2e-5 0.0042-0.02034 0-0.03125-0.0073-0.01738 3e-3 -0.0247 0-0.03125-6e-3 -0.01311-0.02894-0.02649-0.03125-0.03125-0.0049-0.0098 4e-3 -0.02346 0-0.03125-0.0022-0.0046 1e-3 -0.02914 0-0.03125-6e-5 -1.65e-4 -0.01797-0.03137-0.03125-0.0625 0.0077 0.0233-0.03169-0.0323-0.03125-0.03125-0.0018-0.0053 0.0021-0.02514 0-0.03125-0.0016-0.0047-0.01879-0.06372-0.03125-0.09375-0.0014-0.0036-0.02388-0.01506-0.03125-0.03125-2.95e-4 -6.17e-4 0.0068-0.01776 0-0.03125-2e-3 -0.0056-0.02509-0.0156-0.03125-0.03125-0.0031-0.0078 3.2e-5 -0.06243 0-0.0625-3.2e-5 -7.3e-5 -0.06248-0.09372-0.0625-0.09375-2e-6 -4e-6 -0.02914 3e-3 -0.03125 0-2.87e-4 -5.66e-4 0.0042-0.02412 0-0.03125-0.0039-0.0078-0.02668-0.0221-0.03125-0.03125-0.0021-0.0041 0.0057-0.02062 0-0.03125-0.0028-0.0053-0.0235-0.01767-0.03125-0.03125-4.7e-5 -5.8e-5 -0.0248-0.02393-0.03125-0.03125-0.0055-0.0072 0.0069-0.02231 0-0.03125-0.0096-0.01026-0.0276-0.02753-0.03125-0.03125-4.3e-5 -5.7e-5 -0.04149-0.0064-0.0625-0.03125-0.0069-0.0073 0.0013-0.02988 0-0.03125-0.0129-0.0152-0.02923-0.02915-0.03125-0.03125-0.0061-0.0063 0.0026-0.02866 0-0.03125-0.0076-0.0075-0.02345-0.0235-0.03125-0.03125-0.02529-0.02723-0.05378-0.05381-0.0625-0.0625-0.0015-0.0017-0.1162-0.1162-0.09375-0.09375 0.02245 0.02245-0.09206-0.09222-0.09375-0.09375-0.0087-0.0087-0.03526-0.03721-0.0625-0.0625 0.01549 0.01559-0.06338-0.03197-0.0625-0.03125-0.0031-3e-3 -0.03762-0.01024-0.0625-0.03125-0.0036-0.0035 0.0114-0.02092 0-0.03125-0.0077-0.0078-0.02261-0.02259-0.03125-0.03125-2.2e-5 -1.6e-5 -0.01342-0.01945-0.03125-0.03125-0.0089-0.0069-0.02408 0.0055-0.03125 0-0.0073-0.0064-0.03119-0.0312-0.03125-0.03125-2.5e-5 -2.1e-5 -0.03679-0.01323-0.0625-0.03125-0.0092-0.0046-0.02341-0.02738-0.03125-0.03125-0.0071-0.0042-0.03068 2.87e-4 -0.03125 0-3e-3 -0.0021 4e-6 -0.03125 0-0.03125-3e-5 -1.8e-5 -0.09368-0.06247-0.09375-0.0625-3.6e-5 -1.6e-5 -0.02319 0.0034-0.03125 0-6.02e-4 -3.24e-4 -0.01777 0.0068-0.03125 0-0.01565-0.0062-0.02563-0.02921-0.03125-0.03125-0.01349-0.0068-0.03063 2.95e-4 -0.03125 0-6.4e-5 -3.1e-5 -0.03651-0.0205-0.0625-0.03125s-0.05917-0.03009-0.0625-0.03125c-0.0078-0.0039-0.02322 4e-3 -0.03125 0-6e-3 -0.0029-0.09348-0.0624-0.09375-0.0625-0.0013-4.79e-4 -0.05281-0.01758-0.09375-0.03125-0.03089-0.01186-0.06256-2e-5 -0.0625 0-0.03195-0.01113-0.06923-0.05449-0.09375-0.0625 0.02326 0.0078-0.03235-2.83e-4 -0.03125 0-6e-3 -2e-3 -0.12472-0.03119-0.125-0.03125-4e-5 -8e-6 -0.05034 0.0056-0.09375 0-0.03183-0.0041-0.0558-0.03091-0.0625-0.03125-0.0053-0.0015-0.02152 0.0026-0.03125 0-0.01575-0.0027-0.01987 2e-3 -0.03125 0-0.03032-0.0028-0.05716 1.45e-4 -0.0625 0-0.01961-0.0027-0.0317 0.0042-0.0625 0-0.03388-0.0046-0.06248-0.03125-0.0625-0.03125-0.0023-1.3e-4 -0.15397 2e-5 -0.15625 0h-3-1-1.9688c-0.0023 2e-5 -0.15397-1.3e-4 -0.15625 0-1.4e-5 1e-6 -0.03263-0.0041-0.0625 0v-13.188c0-5.9466-4.8659-10.812-10.812-10.812z" opacity=".08"/>
  <path id="path3742" d="m48 21.25c-5.4189-0.14944-10.168 4.9078-9.75 10.299v14.295c-0.97105-1.0259-2.5441-0.44006-3.7992-0.59375-1.362 0.08166-2.783-0.16711-4.1071 0.125-1.5814 0.68268-0.97963 2.6126-1.0938 3.959-0.24427 1.1836 0.60718 2.5129 1.8873 2.416 1.1681-0.3395 1.2533 0.40383 1.1127 1.373-0.2241 3.9278 0.6483 7.9984 3.136 11.131 1.9724 2.6049 4.7576 4.5797 7.864 5.5901-0.09618 0.75167 0.18966 1.8854-0.1373 2.4062-1.0873-0.14054-2.4946 0.0711-2.8002 1.3125-0.08273 1.2873-0.1468 2.6626 0.03125 3.9375 0.33293 1.2678 1.8055 1.3597 2.8919 1.25 3.7304-0.04254 7.4884 0.08453 11.202-0.0625 1.2341-0.30401 1.4551-1.7018 1.3125-2.7859-0.0425-1.1904 0.33374-2.8498-1-3.4641-0.61939-0.30722-1.3299-0.14837-2-0.1875 0.16969-0.78377-0.35686-2.0675 0.29431-2.5055 6.4041-2.1218 11.084-8.6409 10.706-15.431v-2.5635c1.0895 0.10846 2.5714 0.02423 2.9062-1.25 0.17623-1.275 0.11577-2.6501 0.03125-3.9375-0.30401-1.2341-1.7018-1.4551-2.7859-1.3125-1.7835 0.06561-3.6161-0.12822-5.3704 0.09375-0.82822 0.5413-0.86789 0.41904-0.78125-0.59836-0.03102-4.913 0.06372-9.8301-0.05046-14.74-0.41556-4.8519-4.8253-8.8418-9.6995-8.7549z" opacity=".15"/>
  <path id="path3738" d="m48 22.062c-4.9395 0-8.9375 3.998-8.9375 8.9375v24c0 4.9395 3.998 8.9375 8.9375 8.9375s8.9375-3.998 8.9375-8.9375v-24c0-4.9395-3.998-8.9375-8.9375-8.9375zm-17.188 24a0.94565 0.94565 0 0 0-0.75 0.9375v3a0.94565 0.94565 0 0 0 0.9375 0.9375h2.0625v4.0625c0 6.7906 4.7258 12.504 11 14.281v3.7812h-2.0625a0.94565 0.94565 0 0 0-0.9375 0.9375v3a0.94565 0.94565 0 0 0 0.9375 0.9375h12a0.94565 0.94565 0 0 0 0.9375-0.9375v-3a0.94565 0.94565 0 0 0-0.9375-0.9375h-2.0625v-3.7812c6.2742-1.7775 11-7.4907 11-14.281v-4.0625h2.0625a0.94565 0.94565 0 0 0 0.9375-0.9375v-3a0.94565 0.94565 0 0 0-0.9375-0.9375h-3-1-1.9688a0.94565 0.94565 0 0 0-0.9375 0.9375v8c0 5.5452-4.5485 10.094-10.094 10.094s-10.094-4.5485-10.094-10.094v-8a0.94565 0.94565 0 0 0-0.9375-0.9375h-1.9688-1-3a0.94565 0.94565 0 0 0-0.1875 0z" opacity=".25"/>
  <path id="path2960" d="m48 23c-4.432 0-8 3.568-8 8v24c0 4.432 3.568 8 8 8s8-3.568 8-8v-24c0-4.432-3.568-8-8-8zm-17 24v3h3v5c0 6.6119 4.7704 12.25 11 13.656v5.3438h-3v3h12v-3h-3v-5.3438c6.2296-1.4062 11-7.0444 11-13.656v-5h3v-3h-3-1-1.9688v8c0 6.062-4.9693 11.031-11.031 11.031s-11.031-4.9693-11.031-11.031v-8h-1.9688-1-3z" opacity=".6"/>
  <path id="path3668" transform="matrix(.99556 0 0 1.0105 -104 4.2301)" d="m40.179 68.054a12.054 11.875 0 1 1-24.107 0 12.054 11.875 0 1 1 24.107 0z" filter="url(#filter3680)"/>
  <path id="path3653" transform="matrix(.99556 0 0 -1.0105 -104 140.77)" d="m40.179 68.054a12.054 11.875 0 1 1-24.107 0 12.054 11.875 0 1 1 24.107 0z" fill="url(#radialGradient3691)"/>
  <path id="rect3616" d="m48 22c-4.432 0-8 3.568-8 8v24c0 4.432 3.568 8 8 8s8-3.568 8-8v-24c0-4.432-3.568-8-8-8zm-17 24v3h3v5c0 6.6119 4.7704 12.25 11 13.656v5.3438h-3v3h12v-3h-3v-5.3438c6.2296-1.4062 11-7.0444 11-13.656v-5h3v-3h-3-1-1.9688v8c0 6.062-4.9693 11.031-11.031 11.031s-11.031-4.9693-11.031-11.031v-8h-1.9688-1-3z" fill="url(#linearGradient3636)"/>
  <path id="path3638" d="m48 22c-4.432 0-8 3.568-8 8v2c0-4.432 3.568-8 8-8s8 3.568 8 8v-2c0-4.432-3.568-8-8-8zm-17 24v2h3 1 1.9688v-2h-1.9688-1-3zm28.031 0v2h1.9688 1 3v-2h-3-1-1.9688zm-22.062 8v2c0 6.062 4.9693 11.031 11.031 11.031s11.031-4.9693 11.031-11.031v-2c0 6.062-4.9693 11.031-11.031 11.031s-11.031-4.9693-11.031-11.031zm5.0312 19v2h3v-2h-3zm9 0v2h3v-2h-3z" fill="#fff"/>
  <path id="path2863" transform="matrix(.99556 0 0 1.0105 -64 4.2301)" d="m40.179 68.054a12.054 11.875 0 1 1-24.107 0 12.054 11.875 0 1 1 24.107 0z" filter="url(#filter3680)"/>
  <path id="path2865" transform="matrix(.99556 0 0 1.0105 -64 3.2301)" d="m40.179 68.054a12.054 11.875 0 1 1-24.107 0 12.054 11.875 0 1 1 24.107 0z" fill="url(#radialGradient2871)"/>
  <path id="path2867" d="m-36 84c-6.6274 0-12-5.3726-12-12 0-0.34006 0.03477-0.6671 0.0625-1 0.51278 6.1549 5.6501 11 11.938 11s11.425-4.8451 11.938-11c0.02773 0.3329 0.0625 0.65994 0.0625 1 0 6.6274-5.3726 12-12 12z" fill="#fea" opacity=".3"/>
  <path id="path2869" transform="matrix(0 .46222 -.73985 0 14.349 53.286)" d="m40.179 68.054a12.054 11.875 0 1 1-24.107 0 12.054 11.875 0 1 1 24.107 0z" fill="url(#linearGradient2873)" opacity=".8"/>
  <path id="path3671" transform="matrix(0 .99556 1.0105 0 -144.77 44)" d="m40.179 68.054a12.054 11.875 0 1 1-24.107 0 12.054 11.875 0 1 1 24.107 0z" fill="url(#linearGradient3679)" opacity=".3"/>
  <path id="path2875" d="m-76 60c-6.6274 0-12 5.3726-12 12s5.3726 12 12 12 12-5.3726 12-12-5.3726-12-12-12zm0 0.96875c6.1144 0 11.031 4.9412 11.031 11.031s-4.9168 11-11.031 11-11.031-4.91-11.031-11 4.9168-11.031 11.031-11.031z" fill="#730000"/>
  <path id="path3654" d="m-76 61c-6.0751 0-11 4.9249-11 11 0 0.29558 0.03962 0.5853 0.0625 0.875 0.56331-5.5468 5.2421-9.875 10.938-9.875s10.374 4.3282 10.938 9.875c0.022882-0.2897 0.0625-0.57942 0.0625-0.875 0-6.0751-4.9249-11-11-11z" fill="#ffe680" opacity=".3"/>
 </g>
</svg>
