<?xml version="1.0" encoding="UTF-8"?>
<svg id="svg2408" width="96" height="96" enable-background="new" version="1.0" xmlns="http://www.w3.org/2000/svg" xmlns:cc="http://creativecommons.org/ns#" xmlns:dc="http://purl.org/dc/elements/1.1/" xmlns:rdf="http://www.w3.org/1999/02/22-rdf-syntax-ns#" xmlns:xlink="http://www.w3.org/1999/xlink">
 <defs id="defs2410">
  <linearGradient id="ButtonShadow" x1="45.448" x2="45.448" y1="92.54" y2="7.0165" gradientTransform="scale(1.0059 .99417)" gradientUnits="userSpaceOnUse">
   <stop id="stop3750" offset="0"/>
   <stop id="stop3752" stop-opacity=".58824" offset="1"/>
  </linearGradient>
  <linearGradient id="linearGradient3737">
   <stop id="stop3739" stop-color="#fff" offset="0"/>
   <stop id="stop3741" stop-color="#fff" stop-opacity="0" offset="1"/>
  </linearGradient>
  <filter id="filter3174" color-interpolation-filters="sRGB">
   <feGaussianBlur id="feGaussianBlur3176" stdDeviation="1.71"/>
  </filter>
  <filter id="filter3794" x="-.192" y="-.192" width="1.384" height="1.384" color-interpolation-filters="sRGB">
   <feGaussianBlur id="feGaussianBlur3796" stdDeviation="5.28"/>
  </filter>
  <linearGradient id="linearGradient3613" x1="48" x2="48" y1="20.221" y2="138.66" gradientUnits="userSpaceOnUse" xlink:href="#linearGradient3737"/>
  <clipPath id="clipPath3613">
   <rect id="rect3615" x="6" y="6" width="84" height="84" rx="6" ry="6" fill="#fff"/>
  </clipPath>
  <linearGradient id="ButtonShadow-0" x1="45.448" x2="45.448" y1="92.54" y2="7.0165" gradientTransform="matrix(1.0059 0 0 .99417 100 0)" gradientUnits="userSpaceOnUse">
   <stop id="stop3750-8" offset="0"/>
   <stop id="stop3752-5" stop-opacity=".58824" offset="1"/>
  </linearGradient>
  <linearGradient id="linearGradient3780" x1="32.251" x2="32.251" y1="6.1317" y2="90.239" gradientTransform="matrix(1.0238 0 0 1.0119 -1.1429 -98.071)" gradientUnits="userSpaceOnUse" xlink:href="#ButtonShadow-0"/>
  <linearGradient id="linearGradient3721" x1="32.251" x2="32.251" y1="6.1317" y2="90.239" gradientTransform="translate(0,-97)" gradientUnits="userSpaceOnUse" xlink:href="#ButtonShadow-0"/>
  <linearGradient id="linearGradient4103" x1="48" x2="48" y1="90" y2="5.9877" gradientUnits="userSpaceOnUse">
   <stop id="stop3702-2" stop-color="#383838" offset="0"/>
   <stop id="stop3704-7" stop-color="#797979" offset="1"/>
  </linearGradient>
  <clipPath id="clipPath4066">
   <rect id="rect4068" x="6" y="48" width="84" height="38" rx="6" ry="6" color="#000000" enable-background="accumulate" fill="#f0f" opacity=".5"/>
  </clipPath>
  <linearGradient id="linearGradient4081-2" x1="29" x2="29" y1="86" y2="70" gradientTransform="translate(0,-2)" gradientUnits="userSpaceOnUse">
   <stop id="stop4077-6" stop-color="#ffdf60" offset="0"/>
   <stop id="stop4079-1" stop-color="#ffd917" offset="1"/>
  </linearGradient>
  <linearGradient id="linearGradient3282">
   <stop id="stop3284" offset="0"/>
   <stop id="stop3286" stop-opacity="0" offset="1"/>
  </linearGradient>
  <clipPath id="clipPath4403-3">
   <path id="path4405-6" d="m30.916 135.97c-0.93727 0.54113-1.2283 1.7475-0.67792 2.7008l1.9375 3.3558c-1.4181 1.4141-2.6223 3.012-3.5955 4.71l-3.7836-0.99095c-0.53163-0.14245-1.0379-0.11751-1.4762 0.13061-0.43816 0.24835-0.79654 0.66758-0.9366 1.1903l-1.9788 7.3851c-0.2801 1.0454 0.36595 2.0654 1.4291 2.3503l3.7722 1.0336c-0.0062 1.9571 0.23771 3.943 0.75876 5.8767l-3.3558 1.9375c-0.95328 0.55037-1.3044 1.7407-0.7633 2.6779l3.8125 6.6034c0.54113 0.93727 1.7475 1.2283 2.7008 0.67793l3.3558-1.9375c1.4141 1.4181 3.012 2.6223 4.71 3.5954l-0.99094 3.7836c-0.28489 1.0632 0.27543 2.1328 1.3209 2.4128l7.3851 1.9788c1.0454 0.28011 2.0654-0.36588 2.3503-1.4291l1.0336-3.7722c1.9571 6e-3 3.943-0.23771 5.8767-0.75876l1.9375 3.3558c0.55038 0.95328 1.7407 1.3044 2.6779 0.7633l6.6034-3.8125c0.93726-0.54113 1.2283-1.7475 0.67792-2.7008l-1.9375-3.3558c1.4181-1.4141 2.6223-3.012 3.5955-4.71l3.7836 0.99094c1.0632 0.2849 2.1327-0.27549 2.4128-1.3209l1.9788-7.3851c0.2801-1.0454-0.36595-2.0654-1.4291-2.3503l-3.7722-1.0336c0.0062-1.9571-0.2377-3.943-0.75875-5.8767l3.3558-1.9375c0.95327-0.55037 1.3044-1.7407 0.7633-2.6779l-3.8125-6.6034c-0.54113-0.93726-1.7475-1.2283-2.7008-0.67792l-3.3558 1.9375c-1.4141-1.4181-3.012-2.6223-4.71-3.5955l0.99094-3.7836c0.28489-1.0632-0.27542-2.1328-1.3209-2.4128l-7.3851-1.9788c-1.0454-0.28011-2.0654 0.36588-2.3503 1.4291l-1.0336 3.7722c-1.9571-6e-3 -3.943 0.2377-5.8767 0.75875l-1.9375-3.3558c-0.55038-0.95328-1.7407-1.3044-2.6779-0.7633l-6.6034 3.8125zm10.052 9.7851c6.6961-3.866 15.258-1.5718 19.124 5.1244s1.5717 15.258-5.1244 19.124c-6.6961 3.866-15.258 1.5717-19.124-5.1244s-1.5717-15.258 5.1244-19.124z" display="block" enable-background="accumulate" fill="url(#linearGradient4407)"/>
  </clipPath>
  <linearGradient id="linearGradient4213-4" x1="48.234" x2="126.14" y1="48.047" y2="66.233" gradientUnits="userSpaceOnUse" xlink:href="#linearGradient3282"/>
  <linearGradient id="linearGradient4215-7" x1="48.055" x2="126.67" y1="48.032" y2="62.839" gradientUnits="userSpaceOnUse" xlink:href="#linearGradient3282"/>
  <linearGradient id="linearGradient4217-2" x1="47.997" x2="127.05" y1="48.029" y2="60.29" gradientUnits="userSpaceOnUse" xlink:href="#linearGradient3282"/>
  <linearGradient id="linearGradient4219-4" x1="47.998" x2="127.42" y1="48.029" y2="57.665" gradientUnits="userSpaceOnUse" xlink:href="#linearGradient3282"/>
  <linearGradient id="linearGradient4221-0" x1="48.234" x2="126.14" y1="48.047" y2="66.233" gradientUnits="userSpaceOnUse" xlink:href="#linearGradient3737"/>
  <linearGradient id="linearGradient4223-6" x1="48.055" x2="126.67" y1="48.032" y2="62.839" gradientUnits="userSpaceOnUse" xlink:href="#linearGradient3737"/>
  <linearGradient id="linearGradient4225-2" x1="47.997" x2="127.05" y1="48.029" y2="60.29" gradientUnits="userSpaceOnUse" xlink:href="#linearGradient3737"/>
  <linearGradient id="linearGradient4227-9" x1="47.998" x2="127.42" y1="48.029" y2="57.665" gradientUnits="userSpaceOnUse" xlink:href="#linearGradient3737"/>
  <linearGradient id="linearGradient3141-7" x1="20.759" x2="20.759" y1="1" y2="45.017" gradientTransform="matrix(1.2017 0 0 1.2017 19.2 10.596)" gradientUnits="userSpaceOnUse">
   <stop id="stop3311" stop-color="#f0f0f0" offset="0"/>
   <stop id="stop3313" stop-color="#aaa" offset="1"/>
  </linearGradient>
  <linearGradient id="linearGradient4390" x1="48" x2="48" y1="88" y2="-40" gradientTransform="matrix(1,0,0,-1,0,92)" gradientUnits="userSpaceOnUse" xlink:href="#linearGradient3737"/>
  <linearGradient id="linearGradient4429" x1="48" x2="112.12" y1="82" y2="82.455" gradientUnits="userSpaceOnUse" spreadMethod="reflect" xlink:href="#linearGradient3737"/>
  <linearGradient id="linearGradient3228" x1="90" x2="48" y1="88" y2="88" gradientUnits="userSpaceOnUse" spreadMethod="reflect">
   <stop id="stop3894" stop-opacity=".58824" offset="0"/>
   <stop id="stop3896" stop-opacity=".47059" offset=".1178"/>
   <stop id="stop3898" stop-opacity=".39216" offset=".2381"/>
   <stop id="stop3900" stop-opacity=".31373" offset="1"/>
  </linearGradient>
 </defs>
 <metadata id="metadata2413">
  <rdf:RDF>
   <cc:Work rdf:about="">
    <dc:format>image/svg+xml</dc:format>
    <dc:type rdf:resource="http://purl.org/dc/dcmitype/StillImage"/>
    <dc:title/>
   </cc:Work>
  </rdf:RDF>
 </metadata>
 <g id="layer2" display="none">
  <rect id="rect3745" x="5" y="7" width="86" height="85" rx="6" ry="6" fill="url(#ButtonShadow)" filter="url(#filter3174)" opacity=".9"/>
 </g>
 <g id="layer3">
  <path id="path3786" transform="scale(1,-1)" d="m12-95.031c-5.5111 0-10.031 4.5202-10.031 10.031v71c0 5.5111 4.5202 10.031 10.031 10.031h72c5.5111 0 10.031-4.5202 10.031-10.031v-71c0-5.5111-4.5202-10.031-10.031-10.031h-72z" fill="url(#linearGradient3780)" opacity=".08"/>
  <path id="path3778" transform="scale(1,-1)" d="m12-94.031c-4.9716 0-9.0312 4.0596-9.0312 9.0312v71c0 4.9716 4.0596 9.0312 9.0312 9.0312h72c4.9716 0 9.0312-4.0596 9.0312-9.0312v-71c0-4.9716-4.0596-9.0312-9.0312-9.0312h-72z" fill="url(#linearGradient3780)" opacity=".1"/>
  <path id="path3770" transform="scale(1,-1)" d="m12-93c-4.4091 0-8 3.5909-8 8v71c0 4.4091 3.5909 8 8 8h72c4.4091 0 8-3.5909 8-8v-71c0-4.4091-3.5909-8-8-8h-72z" fill="url(#linearGradient3780)" opacity=".2"/>
  <rect id="rect3723" transform="scale(1,-1)" x="5" y="-92" width="86" height="85" rx="7" ry="7" fill="url(#linearGradient3780)" opacity=".3"/>
  <rect id="rect3716" transform="scale(1,-1)" x="6" y="-91" width="84" height="84" rx="6" ry="6" fill="url(#linearGradient3721)" opacity=".45"/>
 </g>
 <rect id="rect2419" x="6" y="6" width="84" height="84" rx="6" ry="6" fill="url(#linearGradient4103)"/>
 <g id="g4062" transform="translate(-.050847 4.8814)" clip-path="url(#clipPath4066)">
  <path id="path4004" d="m12 68-8 16h12l8-16zm24 0-8 16h12l8-16zm24 0-8 16h12l8-16zm24 0-8 16h12l8-16z" fill="url(#linearGradient4081-2)"/>
 </g>
 <g id="layer5" display="none">
  <rect id="rect3171" x="15" y="15" width="66" height="66" rx="12" ry="12" clip-path="url(#clipPath3613)" fill="url(#linearGradient3613)" filter="url(#filter3794)" opacity=".1" stroke="#fff" stroke-linecap="round" stroke-width=".5"/>
 </g>
 <path id="path4367" d="m44.459 10.432c-2.6421 0-4.727 2.2072-4.727 4.7857v1.7616c-0.52431 0.19548-1.0469 0.38435-1.5561 0.61656l-1.2331-1.2331c-0.76611-0.76611-1.9222-1.4268-3.3177-1.4386-1.2244-0.01042-2.4518 0.45527-3.3764 1.3799l-5.0793 5.0793c-1.864 1.864-1.7346 4.9006 0.05874 6.6941l1.2331 1.2331c-0.23221 0.50917-0.42108 1.0318-0.61656 1.5561h-1.7616c-2.5785 0-4.7857 2.0849-4.7857 4.727v7.1639c0 2.6421 2.2072 4.727 4.7857 4.727h1.7616c0.19548 0.52431 0.38435 1.0469 0.61656 1.5561l-1.2331 1.2331c-1.7935 1.7934-1.9229 4.8301-0.05874 6.6941l5.0793 5.0793c1.864 1.864 4.9006 1.7348 6.6941-0.05874l1.2331-1.2331c0.50917 0.23222 1.0318 0.42108 1.5561 0.61656v1.7616c0 2.5785 2.0849 4.7857 4.727 4.7857h7.1639c2.6421 0 4.727-2.2072 4.727-4.7857v-1.7616c0.52431-0.19548 1.0469-0.38435 1.5561-0.61656l1.2331 1.2331c1.7935 1.7935 4.8301 1.9227 6.6941 0.05874l5.0793-5.0793c1.864-1.864 1.7346-4.9006-0.05874-6.6941l-1.2331-1.2331c0.23222-0.50916 0.42108-1.0318 0.61656-1.5561h1.7616c2.5785 0 4.7857-2.0849 4.7857-4.727v-7.1639c0-2.6421-2.2072-4.727-4.7857-4.727h-1.7616c-0.19548-0.52432-0.38434-1.0469-0.61655-1.5561l1.2331-1.2331c1.7934-1.7934 1.9229-4.8301 0.05874-6.6941l-5.0793-5.0793c-1.864-1.864-4.9006-1.7348-6.6941 0.05875l-1.2331 1.2331c-0.50917-0.23223-1.0318-0.42109-1.5561-0.61658v-1.7616c0-2.5785-2.0849-4.7857-4.727-4.7857h-7.1639zm3.5819 18.497c5.7079 0 10.247 4.5388 10.247 10.247 0 5.7079-4.5388 10.247-10.247 10.247-5.7079 0-10.247-4.5388-10.247-10.247 0-5.7079 4.5388-10.247 10.247-10.247z" display="block" enable-background="accumulate" opacity=".05"/>
 <path id="path4363" d="m44.459 11.401c-2.0919 0-3.7581 1.7677-3.7581 3.8168v2.4075c-0.95516 0.32854-1.8671 0.69982-2.7598 1.145l-1.7029-1.7029c-0.63087-0.63087-1.5359-1.1653-2.613-1.1744-0.96031-0.0087-1.9293 0.37319-2.6718 1.1157l-5.0793 5.0793c-1.4754 1.4754-1.3674 3.8585 0.05875 5.2848l1.7029 1.7029c-0.44522 0.89271-0.8165 1.8047-1.145 2.7598h-2.4075c-2.0492 0-3.8168 1.6661-3.8168 3.7581v7.1639c0 2.0919 1.7677 3.7581 3.8168 3.7581h2.4075c0.32854 0.95516 0.69982 1.8671 1.145 2.7598l-1.7029 1.7029c-1.4263 1.4263-1.5342 3.8095-0.05874 5.2848l5.0793 5.0793c1.4753 1.4754 3.8585 1.3676 5.2848-0.05875l1.7029-1.7029c0.89271 0.44522 1.8047 0.81651 2.7598 1.145v2.4075c0 2.0491 1.6661 3.8168 3.7581 3.8168h7.1639c2.0919 0 3.7581-1.7676 3.7581-3.8168v-2.4075c0.95516-0.32854 1.8671-0.69982 2.7598-1.145l1.7029 1.7029c1.4263 1.4263 3.8095 1.5341 5.2848 0.05875l5.0793-5.0793c1.4754-1.4754 1.3674-3.8585-0.05875-5.2848l-1.7029-1.7029c0.44522-0.89271 0.8165-1.8047 1.145-2.7598h2.4075c2.0491 0 3.8168-1.6661 3.8168-3.7581v-7.1639c0-2.0919-1.7677-3.7581-3.8168-3.7581h-2.4075c-0.32854-0.95516-0.69982-1.8671-1.145-2.7598l1.7029-1.7029c1.4263-1.4263 1.5342-3.8095 0.05875-5.2848l-5.0793-5.0793c-1.4753-1.4753-3.8585-1.3676-5.2848 0.05875l-1.7029 1.7029c-0.89271-0.44522-1.8047-0.81651-2.7598-1.145v-2.4075c0-2.0492-1.6662-3.8168-3.7581-3.8168h-7.1639zm3.5819 16.559c6.2291 0 11.216 4.9865 11.216 11.216 0 6.2291-4.9865 11.216-11.216 11.216-6.2291 0-11.216-4.9865-11.216-11.216 0-6.2291 4.9865-11.216 11.216-11.216z" display="block" enable-background="accumulate" opacity=".08"/>
 <path id="path4359" d="m44.459 12.37c-1.5499 0-2.7892 1.3153-2.7892 2.8479v3.0241c-1.3734 0.42285-2.692 0.97644-3.9343 1.6442l-2.1726-2.1433c-0.4935-0.4935-1.1745-0.87433-1.9378-0.8808-0.7134-0.0065-1.4379 0.26352-1.9965 0.82208l-5.0793 5.0793c-1.0912 1.0912-1.0096 2.8658 0.05872 3.9342l2.1433 2.1726c-0.66772 1.2423-1.2213 2.5608-1.6442 3.9343h-3.0241c-1.5326 0-2.8479 1.2393-2.8479 2.7892v7.1639c0 1.5499 1.3153 2.7892 2.8479 2.7892h3.0241c0.42285 1.3734 0.97644 2.692 1.6442 3.9343l-2.1433 2.1726c-1.0684 1.0684-1.15 2.843-0.05873 3.9342l5.0793 5.0793c1.0912 1.0912 2.8658 1.0097 3.9342-0.05872l2.1726-2.1433c1.2423 0.66773 2.5608 1.2213 3.9343 1.6442v3.0241c0 1.5326 1.2393 2.8479 2.7892 2.8479h7.1639c1.5499 0 2.7892-1.3153 2.7892-2.8479v-3.0241c1.3734-0.42284 2.692-0.97643 3.9343-1.6442l2.1726 2.1433c1.0684 1.0684 2.843 1.1499 3.9342 0.05873l5.0793-5.0793c1.0912-1.0912 1.0096-2.8658-0.05872-3.9342l-2.1433-2.1727c0.66772-1.2423 1.2213-2.5608 1.6442-3.9343h3.0241c1.5326 0 2.8479-1.2393 2.8479-2.7892v-7.1639c0-1.5499-1.3153-2.7892-2.8479-2.7892h-3.0241c-0.42285-1.3735-0.97644-2.692-1.6442-3.9343l2.1433-2.1726c1.0684-1.0684 1.15-2.843 0.0587-3.9342l-5.0793-5.0793c-1.0912-1.0912-2.8658-1.0097-3.9342 0.05873l-2.1726 2.1433c-1.2423-0.66773-2.5608-1.2213-3.9343-1.6442v-3.0241c0-1.5326-1.2393-2.8479-2.7892-2.8479h-7.1639zm3.5819 14.621c6.7443 0 12.184 5.4401 12.184 12.184 0 6.7443-5.4401 12.184-12.184 12.184-6.7443 0-12.184-5.4401-12.184-12.184 0-6.7443 5.4401-12.184 12.184-12.184z" display="block" enable-background="accumulate" opacity=".2"/>
 <path id="path4353" d="m44.459 13.338c-1.0168 0-1.8203 0.84486-1.8203 1.879v3.6406c-1.8181 0.48442-3.5485 1.2189-5.138 2.1433l-2.613-2.5837c-0.36564-0.36564-0.7893-0.58319-1.2625-0.5872-0.47318-0.0043-0.96171 0.16899-1.3212 0.52848l-5.0793 5.0793c-0.71898 0.71899-0.67248 1.8524 0.05874 2.5837l2.5837 2.6131c-0.92443 1.5895-1.6589 3.3199-2.1433 5.138h-3.6406c-1.0342 0-1.879 0.80352-1.879 1.8203v7.1639c0 1.0168 0.84486 1.8203 1.879 1.8203h3.6406c0.48443 1.8181 1.2189 3.5485 2.1433 5.138l-2.5837 2.613c-0.73127 0.73127-0.77778 1.8647-0.05874 2.5837l5.0793 5.0793c0.71898 0.71899 1.8524 0.67255 2.5837-0.05874l2.613-2.5837c1.5895 0.92444 3.3199 1.6589 5.138 2.1433v3.6406c0 1.0342 0.80352 1.879 1.8203 1.879h7.1639c1.0168 0 1.8203-0.84486 1.8203-1.879v-3.6406c1.8181-0.48442 3.5485-1.2189 5.138-2.1433l2.6131 2.5837c0.73127 0.73128 1.8647 0.77771 2.5837 0.05874l5.0793-5.0793c0.71898-0.71899 0.67248-1.8524-0.05874-2.5837l-2.5837-2.613c0.92443-1.5895 1.6589-3.3199 2.1433-5.138h3.6407c1.0342 0 1.879-0.80352 1.879-1.8203v-7.1639c0-1.0168-0.84486-1.8203-1.879-1.8203h-3.6407c-0.4844-1.8181-1.2188-3.5485-2.1433-5.138l2.5837-2.6131c0.73128-0.73127 0.77779-1.8647 0.05874-2.5837l-5.0793-5.0793c-0.71899-0.71899-1.8524-0.67256-2.5837 0.05874l-2.6131 2.5837c-1.5895-0.92443-3.3199-1.6589-5.138-2.1433v-3.6407c0-1.0342-0.80353-1.879-1.8203-1.879h-7.1639zm3.5819 12.684c7.2644 0 13.153 5.8889 13.153 13.153 0 7.2644-5.8889 13.153-13.153 13.153-7.2644 0-13.153-5.8889-13.153-13.153 0-7.2644 5.8889-13.153 13.153-13.153z" display="block" enable-background="accumulate" opacity=".3"/>
 <path id="rect3267" d="m44.459 12.399c-1.0168 0-1.8203 0.84486-1.8203 1.879v3.6407c-1.8181 0.48441-3.5485 1.2188-5.138 2.1433l-2.613-2.5837c-0.36564-0.36564-0.7893-0.58319-1.2625-0.5872-0.47318-0.0043-0.96171 0.16899-1.3212 0.52848l-5.0793 5.0793c-0.71898 0.71899-0.67248 1.8524 0.05874 2.5837l2.5837 2.613c-0.92443 1.5895-1.6589 3.3199-2.1433 5.138h-3.6406c-1.0342 0-1.879 0.80352-1.879 1.8203v7.1639c0 1.0168 0.84486 1.8203 1.879 1.8203h3.6406c0.48443 1.8181 1.2189 3.5485 2.1433 5.138l-2.5837 2.613c-0.73127 0.73128-0.77778 1.8647-0.05874 2.5837l5.0793 5.0793c0.71898 0.71899 1.8524 0.67256 2.5837-0.05875l2.613-2.5837c1.5895 0.92444 3.3199 1.6589 5.138 2.1433v3.6406c0 1.0342 0.80352 1.879 1.8203 1.879h7.1639c1.0168 0 1.8203-0.84486 1.8203-1.879v-3.6406c1.8181-0.48442 3.5485-1.2189 5.138-2.1433l2.6131 2.5837c0.73127 0.73128 1.8647 0.77771 2.5837 0.05875l5.0793-5.0793c0.71898-0.71899 0.67248-1.8524-0.05874-2.5837l-2.5837-2.613c0.92443-1.5895 1.6589-3.3199 2.1433-5.138h3.6407c1.0342 0 1.879-0.80352 1.879-1.8203v-7.1639c0-1.0168-0.84486-1.8203-1.879-1.8203h-3.6407c-0.4844-1.8181-1.2188-3.5485-2.1433-5.138l2.5837-2.613c0.73128-0.73128 0.77779-1.8647 0.05874-2.5837l-5.0793-5.0793c-0.71899-0.71899-1.8524-0.67255-2.5837 0.05874l-2.6131 2.5837c-1.5895-0.92444-3.3199-1.6589-5.138-2.1433v-3.6406c0-1.0342-0.80353-1.879-1.8203-1.879h-7.1639zm3.5819 12.684c7.2644 0 13.153 5.8889 13.153 13.153 0 7.2644-5.8889 13.153-13.153 13.153-7.2644 0-13.153-5.8889-13.153-13.153 0-7.2644 5.8889-13.153 13.153-13.153z" display="block" enable-background="accumulate" fill="url(#linearGradient3141-7)"/>
 <g id="g4176" transform="matrix(.81365 .46976 -.46976 .81365 83.178 -112.76)" clip-path="url(#clipPath4403-3)">
  <g id="g4011" transform="matrix(.14137 .99272 -1.1652 .12045 96.937 104.81)" opacity=".9">
   <path id="path4009" transform="matrix(.99411 -.10837 .10837 .99411 -5.1582 5.4919)" d="m108.9 48a60.896 60.896 0 0 1-6.5462 27.467l-54.35-27.467z" color="#000000" enable-background="accumulate" fill="url(#linearGradient4213-4)" opacity=".05"/>
   <path id="path4007" transform="matrix(.99786 -.065374 .065374 .99786 -3.094 3.2416)" d="m108.9 48a60.896 60.896 0 0 1-4.4572 22.869l-56.439-22.869z" color="#000000" enable-background="accumulate" fill="url(#linearGradient4215-7)" opacity=".07"/>
   <path id="path4005" transform="matrix(.99945 -.033121 .033121 .99945 -1.5635 1.6161)" d="m108.9 48a60.896 60.896 0 0 1-3.1299 19.272l-57.766-19.272z" color="#000000" enable-background="accumulate" fill="url(#linearGradient4217-2)" opacity=".1"/>
   <path id="path4003" d="m108.9 48a60.896 60.896 0 0 1-2.075 15.761l-58.821-15.761z" color="#000000" enable-background="accumulate" fill="url(#linearGradient4219-4)" opacity=".05"/>
  </g>
  <g id="g4027" transform="matrix(1.0628 -.13088 -.7401 3.2275 32.525 9.3323)" opacity=".9">
   <path id="path4029" transform="matrix(.99411 -.10837 .10837 .99411 -5.1582 5.4919)" d="m108.9 48a60.896 60.896 0 0 1-6.5462 27.467l-54.35-27.467z" color="#000000" enable-background="accumulate" fill="url(#linearGradient4221-0)" opacity=".2"/>
   <path id="path4031" transform="matrix(.99786 -.065374 .065374 .99786 -3.094 3.2416)" d="m108.9 48a60.896 60.896 0 0 1-4.4572 22.869l-56.439-22.869z" color="#000000" enable-background="accumulate" fill="url(#linearGradient4223-6)" opacity=".4"/>
   <path id="path4033" transform="matrix(.99945 -.033121 .033121 .99945 -1.5635 1.6161)" d="m108.9 48a60.896 60.896 0 0 1-3.1299 19.272l-57.766-19.272z" color="#000000" enable-background="accumulate" fill="url(#linearGradient4225-2)" opacity=".6"/>
   <path id="path4035" d="m108.9 48a60.896 60.896 0 0 1-2.075 15.761l-58.821-15.761z" color="#000000" enable-background="accumulate" fill="url(#linearGradient4227-9)" opacity=".8"/>
  </g>
  <g id="g4079" transform="matrix(-.61679 .78713 -.78713 -.61679 115 150.01)" opacity=".5">
   <path id="path4081" transform="matrix(.99411 -.10837 .10837 .99411 -5.1582 5.4919)" d="m108.9 48a60.896 60.896 0 0 1-6.5462 27.467l-54.35-27.467z" color="#000000" enable-background="accumulate" fill="url(#linearGradient4213-4)" opacity=".05"/>
   <path id="path4083" transform="matrix(.99786 -.065374 .065374 .99786 -3.094 3.2416)" d="m108.9 48a60.896 60.896 0 0 1-4.4572 22.869l-56.439-22.869z" color="#000000" enable-background="accumulate" fill="url(#linearGradient4215-7)" opacity=".07"/>
   <path id="path4085" transform="matrix(.99945 -.033121 .033121 .99945 -1.5635 1.6161)" d="m108.9 48a60.896 60.896 0 0 1-3.1299 19.272l-57.766-19.272z" color="#000000" enable-background="accumulate" fill="url(#linearGradient4217-2)" opacity=".1"/>
   <path id="path4087" d="m108.9 48a60.896 60.896 0 0 1-2.075 15.761l-58.821-15.761z" color="#000000" enable-background="accumulate" fill="url(#linearGradient4219-4)" opacity=".1"/>
  </g>
  <g id="g4097" transform="matrix(-.068172 -1.046 2.7107 .60163 -79.095 179.08)" opacity=".8">
   <path id="path4099" transform="matrix(.99411 -.10837 .10837 .99411 -5.1582 5.4919)" d="m108.9 48a60.896 60.896 0 0 1-6.5462 27.467l-54.35-27.467z" color="#000000" enable-background="accumulate" fill="url(#linearGradient4213-4)" opacity=".05"/>
   <path id="path4101" transform="matrix(.99786 -.065374 .065374 .99786 -3.094 3.2416)" d="m108.9 48a60.896 60.896 0 0 1-4.4572 22.869l-56.439-22.869z" color="#000000" enable-background="accumulate" fill="url(#linearGradient4215-7)" opacity=".07"/>
   <path id="path4103" transform="matrix(.99945 -.033121 .033121 .99945 -1.5635 1.6161)" d="m108.9 48a60.896 60.896 0 0 1-3.1299 19.272l-57.766-19.272z" color="#000000" enable-background="accumulate" fill="url(#linearGradient4217-2)" opacity=".1"/>
   <path id="path4105" d="m108.9 48a60.896 60.896 0 0 1-2.075 15.761l-58.821-15.761z" color="#000000" enable-background="accumulate" fill="url(#linearGradient4219-4)" opacity=".1"/>
  </g>
  <g id="g4147" transform="matrix(-1.0628 .13088 .7401 -3.2275 62.997 306.67)" opacity=".9">
   <path id="path4149" transform="matrix(.99411 -.10837 .10837 .99411 -5.1582 5.4919)" d="m108.9 48a60.896 60.896 0 0 1-6.5462 27.467l-54.35-27.467z" color="#000000" enable-background="accumulate" fill="url(#linearGradient4221-0)" opacity=".2"/>
   <path id="path4151" transform="matrix(.99786 -.065374 .065374 .99786 -3.094 3.2416)" d="m108.9 48a60.896 60.896 0 0 1-4.4572 22.869l-56.439-22.869z" color="#000000" enable-background="accumulate" fill="url(#linearGradient4223-6)" opacity=".4"/>
   <path id="path4153" transform="matrix(.99945 -.033121 .033121 .99945 -1.5635 1.6161)" d="m108.9 48a60.896 60.896 0 0 1-3.1299 19.272l-57.766-19.272z" color="#000000" enable-background="accumulate" fill="url(#linearGradient4225-2)" opacity=".6"/>
   <path id="path4155" d="m108.9 48a60.896 60.896 0 0 1-2.075 15.761l-58.821-15.761z" color="#000000" enable-background="accumulate" fill="url(#linearGradient4227-9)" opacity=".8"/>
  </g>
 </g>
 <path id="path4382" d="m44.459 12.399c-1.0168 0-1.8203 0.84486-1.8203 1.879v0.93952c0-1.0342 0.80352-1.879 1.8203-1.879h7.1639c1.0168 0 1.8203 0.84486 1.8203 1.879v-0.93952c0-1.0342-0.80353-1.879-1.8203-1.879h-7.1639zm-10.834 4.4921c-0.47318-0.0043-0.96171 0.16899-1.3212 0.52848l-5.0793 5.0793c-0.46642 0.46642-0.59622 1.1106-0.4404 1.7029 0.079-0.27399 0.22055-0.54352 0.4404-0.76336l5.0793-5.0793c0.35949-0.35949 0.84802-0.53252 1.3212-0.52848 0.47318 0.0043 0.89684 0.22156 1.2625 0.5872l2.613 2.5837c1.5895-0.92443 3.3199-1.6589 5.138-2.1433v-0.93952c-1.8181 0.48441-3.5485 1.2188-5.138 2.1433l-2.613-2.5837c-0.36564-0.36564-0.7893-0.58319-1.2625-0.5872zm28.861 0c-0.46464 0.01314-0.9262 0.22156-1.2918 0.5872l-2.6131 2.5837c-1.5895-0.92443-3.3199-1.6589-5.138-2.1433v0.93952c1.8181 0.48442 3.5485 1.2189 5.138 2.1433l2.6131-2.5837c0.73127-0.73127 1.8647-0.77771 2.5837-0.05874l5.0793 5.0793c0.21987 0.21984 0.36138 0.48936 0.4404 0.76336 0.15584-0.59231 0.02605-1.2365-0.4404-1.7029l-5.0793-5.0793c-0.3595-0.35949-0.8272-0.54162-1.2918-0.52848zm-32.942 11.421c-0.7636 1.4176-1.3976 2.9349-1.8203 4.5214h-3.6407c-1.0342 0-1.879 0.80352-1.879 1.8203v0.93952c0-1.0168 0.84486-1.8203 1.879-1.8203h3.6407c0.48443-1.8181 1.2189-3.5485 2.1433-5.138l-0.32296-0.32296zm36.994 0-0.32296 0.32296c0.92443 1.5895 1.6589 3.3199 2.1433 5.138h3.6406c1.0342 0 1.879 0.80352 1.879 1.8203v-0.93952c0-1.0168-0.84487-1.8203-1.879-1.8203h-3.6406c-0.42271-1.5865-1.0567-3.1038-1.8203-4.5214zm-31.621 10.393c-0.0059 0.15671-0.0294 0.31171-0.0294 0.46976 0 7.2644 5.8889 13.153 13.153 13.153s13.153-5.8889 13.153-13.153c0-0.15805-0.02389-0.31305-0.0294-0.46976-0.24859 7.0457-6.0176 12.684-13.124 12.684s-12.875-5.6379-13.124-12.684zm-5.3729 10.393-2.2607 2.2901c-0.50767 0.50768-0.67854 1.1982-0.49912 1.8203 0.08437-0.32074 0.24224-0.62392 0.49912-0.8808l2.5837-2.613c-0.11774-0.20245-0.21151-0.40965-0.32296-0.61656zm36.994 0c-0.11146 0.20691-0.20522 0.41411-0.32296 0.61656l2.5837 2.613c0.25685 0.25688 0.41474 0.56007 0.49912 0.8808 0.1794-0.62209 9e-3 -1.3127-0.49912-1.8203l-2.2607-2.2901z" display="block" enable-background="accumulate" fill="#fff" opacity=".7"/>
 <path id="path4391" d="m26.784 23.262c-0.1794 0.62209-9e-3 1.3127 0.49912 1.8203l2.2607 2.2901c0.11145-0.20691 0.20522-0.41411 0.32296-0.61656l-2.5837-2.613c-0.25685-0.25688-0.41474-0.56007-0.49912-0.8808zm42.513 0c-0.08438 0.32073-0.24224 0.62392-0.49912 0.8808l-2.5837 2.613c0.11774 0.20244 0.21151 0.40965 0.32296 0.61656l2.2607-2.2901c0.50767-0.50768 0.67854-1.1982 0.49912-1.8203zm-21.257 0.8808c-7.2644 0-13.153 5.8889-13.153 13.153 0 0.15805 0.02388 0.31305 0.0294 0.46976 0.24859-7.0457 6.0176-12.684 13.124-12.684s12.875 5.6379 13.124 12.684c0.0059-0.1567 0.0294-0.31171 0.0294-0.46976 0-7.2644-5.8889-13.153-13.153-13.153zm-25.837 16.735v0.93952c0 1.0168 0.84486 1.8203 1.879 1.8203h3.6407c0.42272 1.5865 1.0567 3.1038 1.8203 4.5214l0.32296-0.32296c-0.92443-1.5895-1.6589-3.3199-2.1433-5.138h-3.6407c-1.0342 0-1.879-0.80352-1.879-1.8203zm51.674 0c0 1.0168-0.84487 1.8203-1.879 1.8203h-3.6406c-0.48442 1.8181-1.2189 3.5485-2.1433 5.138l0.32296 0.32296c0.7636-1.4176 1.3976-2.9349 1.8203-4.5214h3.6406c1.0342 0 1.879-0.80352 1.879-1.8203v-0.93952zm-47.094 11.392c-0.15584 0.59231-0.02606 1.2365 0.4404 1.7029l5.0793 5.0793c0.71898 0.71899 1.8524 0.67256 2.5837-0.05875l2.613-2.5837c1.5895 0.92444 3.3199 1.6589 5.138 2.1433v-0.93953c-1.8181-0.48442-3.5485-1.2188-5.138-2.1433l-2.613 2.5837c-0.73127 0.73128-1.8647 0.77771-2.5837 0.05874l-5.0793-5.0793c-0.21987-0.21984-0.36138-0.48937-0.4404-0.76336zm42.513 0c-0.07901 0.27399-0.22055 0.54352-0.4404 0.76336l-5.0793 5.0793c-0.71899 0.71899-1.8524 0.67256-2.5837-0.05875l-2.6131-2.5837c-1.5895 0.92444-3.3199 1.6589-5.138 2.1433v0.93953c1.8181-0.48442 3.5485-1.2189 5.138-2.1433l2.6131 2.5837c0.73127 0.73128 1.8647 0.77771 2.5837 0.05874l5.0793-5.0793c0.46642-0.46643 0.59622-1.1106 0.4404-1.7029zm-26.659 8.9842v0.93953c0 1.0342 0.80352 1.879 1.8203 1.879h7.1639c1.0168 0 1.8203-0.84486 1.8203-1.879v-0.93953c0 1.0342-0.80353 1.879-1.8203 1.879h-7.1639c-1.0168 0-1.8203-0.84487-1.8203-1.879z" display="block" enable-background="accumulate" opacity=".2"/>
 <g id="g873">
  <path id="rect4377" d="m12 86c-3.324 0-6-2.676-6-6v-68c0-3.324 2.676-6 6-6h72c3.324 0 6 2.676 6 6v68c0 3.324-2.676 6-6 6zm0-0.96875h72c2.8049 0 5.0312-2.2264 5.0312-5.0312v-68c0-2.8049-2.226-5.0312-5.031-5.0312h-72c-2.8049 0-5.0312 2.2263-5.0312 5.0312v68c0 2.8049 2.2264 5.0312 5.0312 5.0312z" fill="url(#linearGradient4390)" opacity=".3"/>
  <path id="rect4414" d="m6 78v2c0 3.324 2.676 6 6 6h72c3.324 0 6-2.676 6-6v-2c0 3.324-2.676 6-6 6h-72c-3.324 0-6-2.676-6-6z" fill="url(#linearGradient4429)" opacity=".1"/>
  <g id="layer4">
   <path id="path3888" d="m6 80v4c0 3.324 2.676 6 6 6h72c3.324 0 6-2.676 6-6v-4c0 3.324-2.676 6-6 6h-72c-3.324 0-6-2.676-6-6z" fill="url(#linearGradient3228)"/>
   <path id="rect4345" d="m6 82v2c0 3.324 2.676 6 6 6h72c3.324 0 6-2.676 6-6v-2c0 3.324-2.676 6-6 6h-72c-3.324 0-6-2.676-6-6z" color="#000000" opacity=".1"/>
   <path id="rect4336" d="m6 83v1c0 3.324 2.676 6 6 6h72c3.324 0 6-2.676 6-6v-1c0 3.324-2.676 6-6 6h-72c-3.324 0-6-2.676-6-6z" color="#000000" opacity=".15"/>
  </g>
 </g>
</svg>
