<?xml version="1.0" encoding="UTF-8"?>
<!-- Created with Inkscape (http://www.inkscape.org/) -->
<svg id="svg2408" width="96" height="96" version="1.0" xmlns="http://www.w3.org/2000/svg" xmlns:cc="http://creativecommons.org/ns#" xmlns:dc="http://purl.org/dc/elements/1.1/" xmlns:rdf="http://www.w3.org/1999/02/22-rdf-syntax-ns#" xmlns:xlink="http://www.w3.org/1999/xlink">
 <defs id="defs2410">
  <linearGradient id="linearGradient3802">
   <stop id="stop3804" stop-color="#676767" offset="0"/>
   <stop id="stop3806" stop-color="#282828" offset="1"/>
  </linearGradient>
  <linearGradient id="ButtonShadow" x1="45.448" x2="45.448" y1="92.54" y2="7.0165" gradientTransform="matrix(1.0059 0 0 .99417 100 0)" gradientUnits="userSpaceOnUse">
   <stop id="stop3750" offset="0"/>
   <stop id="stop3752" stop-opacity=".58824" offset="1"/>
  </linearGradient>
  <linearGradient id="linearGradient3737">
   <stop id="stop3739" stop-color="#fff" offset="0"/>
   <stop id="stop3741" stop-color="#fff" stop-opacity="0" offset="1"/>
  </linearGradient>
  <linearGradient id="linearGradient3700">
   <stop id="stop3702" stop-color="#70a83e" offset="0"/>
   <stop id="stop3704" stop-color="#9fd058" offset="1"/>
  </linearGradient>
  <filter id="filter3174" color-interpolation-filters="sRGB">
   <feGaussianBlur id="feGaussianBlur3176" stdDeviation="1.71"/>
  </filter>
  <linearGradient id="linearGradient3188" x1="36.357" x2="36.357" y1="6" y2="63.893" gradientUnits="userSpaceOnUse" xlink:href="#linearGradient3737"/>
  <filter id="filter3794" x="-.192" y="-.192" width="1.384" height="1.384" color-interpolation-filters="sRGB">
   <feGaussianBlur id="feGaussianBlur3796" stdDeviation="5.28"/>
  </filter>
  <linearGradient id="linearGradient3613" x1="48" x2="48" y1="20.221" y2="138.66" gradientUnits="userSpaceOnUse" xlink:href="#linearGradient3737"/>
  <radialGradient id="radialGradient3619" cx="48" cy="90.172" r="42" gradientTransform="matrix(1.1573 0 0 .99591 -7.551 .19713)" gradientUnits="userSpaceOnUse" xlink:href="#linearGradient3737"/>
  <clipPath id="clipPath3613">
   <rect id="rect3615" x="6" y="6" width="84" height="84" rx="6" ry="6" fill="#fff"/>
  </clipPath>
  <linearGradient id="linearGradient3617" x1="48" x2="48" y1="90" y2="5.9877" gradientUnits="userSpaceOnUse" xlink:href="#linearGradient3700"/>
  <clipPath id="clipPath2973">
   <rect id="rect2975" x="6" y="6" width="84" height="84" rx="6" ry="6" fill="url(#linearGradient2977)"/>
  </clipPath>
  <linearGradient id="linearGradient2977" x1="48" x2="48" y1="90" y2="5.9877" gradientUnits="userSpaceOnUse">
   <stop id="stop3702-4" stop-color="#70a83e" offset="0"/>
   <stop id="stop3704-4" stop-color="#9fd058" offset="1"/>
  </linearGradient>
  <linearGradient id="linearGradient3708" x1="48" x2="48" y1="90" y2="5.9877" gradientUnits="userSpaceOnUse">
   <stop id="stop3772" stop-color="#ff7612" offset="0"/>
   <stop id="stop3778" stop-color="#ffc149" offset="1"/>
  </linearGradient>
  <linearGradient id="linearGradient3721" x1="32.251" x2="32.251" y1="6.1317" y2="90.239" gradientTransform="translate(0,-97)" gradientUnits="userSpaceOnUse" xlink:href="#ButtonShadow"/>
  <linearGradient id="linearGradient3725" x1="32.251" x2="32.251" y1="6.1317" y2="90.239" gradientTransform="matrix(1.0238 0 0 1.0119 -1.1429 -98.071)" gradientUnits="userSpaceOnUse" xlink:href="#ButtonShadow"/>
  <linearGradient id="linearGradient4294" x1="45" x2="51" y1="28.878" y2="28.878" gradientUnits="userSpaceOnUse" xlink:href="#linearGradient3802"/>
  <linearGradient id="linearGradient4298" x1="45" x2="51" y1="28.878" y2="28.878" gradientTransform="matrix(1 0 0 -1 -1.5869e-7 96)" gradientUnits="userSpaceOnUse" xlink:href="#linearGradient3802"/>
  <linearGradient id="linearGradient4300" x1="45" x2="51" y1="28.878" y2="28.878" gradientTransform="matrix(0 1 -1 0 95.927 .072888)" gradientUnits="userSpaceOnUse" xlink:href="#linearGradient3802"/>
  <radialGradient id="radialGradient4302" cx="37.5" cy="37.5" r="8" gradientUnits="userSpaceOnUse">
   <stop id="stop3788" stop-color="#fff" offset="0"/>
   <stop id="stop3794" stop-color="#828282" offset=".26277"/>
   <stop id="stop3796" stop-color="#555" offset=".49463"/>
   <stop id="stop3798" stop-color="#3d3d3d" offset=".74731"/>
   <stop id="stop3790" stop-color="#242424" offset="1"/>
  </radialGradient>
  <linearGradient id="linearGradient4308" x1="45" x2="51" y1="28.878" y2="28.878" gradientTransform="matrix(1 0 0 -1 -1.5869e-7 96)" gradientUnits="userSpaceOnUse" xlink:href="#linearGradient3802"/>
  <radialGradient id="radialGradient4320" cx="48" cy="48" r="3" gradientUnits="userSpaceOnUse" xlink:href="#linearGradient3802"/>
  <radialGradient id="radialGradient4322" cx="35.355" cy="47.746" r="3.5318" gradientTransform="matrix(2.007 -3.1157e-7 2.268e-7 1.4609 -35.349 -22.262)" gradientUnits="userSpaceOnUse" xlink:href="#linearGradient3802"/>
  <linearGradient id="linearGradient4330" x1="45" x2="51" y1="48" y2="48" gradientUnits="userSpaceOnUse">
   <stop id="stop4154" stop-color="#fff" offset="0"/>
   <stop id="stop4160" stop-color="#fff" stop-opacity="0" offset=".5"/>
   <stop id="stop4156" stop-color="#fff" stop-opacity="0" offset="1"/>
  </linearGradient>
  <radialGradient id="radialGradient4339" cx="35.355" cy="47.746" r="3.5318" gradientTransform="matrix(-3.8946e-7 -2.5088 1.8262 -2.8349e-7 -39.678 152.13)" gradientUnits="userSpaceOnUse" xlink:href="#linearGradient3802"/>
  <radialGradient id="radialGradient4346" cx="35.355" cy="47.746" r="3.5318" gradientTransform="matrix(-2.5088 -3.8946e-7 -2.8349e-7 1.8262 152.28 -39.828)" gradientUnits="userSpaceOnUse" xlink:href="#linearGradient3802"/>
 </defs>
 <metadata id="metadata2413">
  <rdf:RDF>
   <cc:Work rdf:about="">
    <dc:format>image/svg+xml</dc:format>
    <dc:type rdf:resource="http://purl.org/dc/dcmitype/StillImage"/>
    <dc:title/>
   </cc:Work>
  </rdf:RDF>
 </metadata>
 <g id="layer2" display="none">
  <rect id="rect3745" x="105" y="7" width="86" height="85" rx="6" ry="6" fill="url(#ButtonShadow)" filter="url(#filter3174)" opacity=".9"/>
 </g>
 <g id="layer3">
  <path id="path3786" transform="scale(1,-1)" d="m12-95.031c-5.5111 0-10.031 4.5202-10.031 10.031v71c0 5.5111 4.5202 10.031 10.031 10.031h72c5.5111 0 10.031-4.5202 10.031-10.031v-71c0-5.5111-4.5202-10.031-10.031-10.031h-72z" fill="url(#linearGradient3725)" opacity=".08"/>
  <path id="path3778" transform="scale(1,-1)" d="m12-94.031c-4.9716 0-9.0312 4.0596-9.0312 9.0312v71c0 4.9716 4.0596 9.0312 9.0312 9.0312h72c4.9716 0 9.0312-4.0596 9.0312-9.0312v-71c0-4.9716-4.0596-9.0312-9.0312-9.0312h-72z" fill="url(#linearGradient3725)" opacity=".1"/>
  <path id="path3770" transform="scale(1,-1)" d="m12-93c-4.4091 0-8 3.5909-8 8v71c0 4.4091 3.5909 8 8 8h72c4.4091 0 8-3.5909 8-8v-71c0-4.4091-3.5909-8-8-8h-72z" fill="url(#linearGradient3725)" opacity=".2"/>
  <rect id="rect3723" transform="scale(1,-1)" x="5" y="-92" width="86" height="85" rx="7" ry="7" fill="url(#linearGradient3725)" opacity=".3"/>
  <rect id="rect3716" transform="scale(1,-1)" x="6" y="-91" width="84" height="84" rx="6" ry="6" fill="url(#linearGradient3721)" opacity=".45"/>
 </g>
 <g id="layer1">
  <rect id="rect2419" x="6" y="6" width="84" height="84" rx="6" ry="6" fill="url(#linearGradient3708)"/>
  <path id="rect3728" d="m12 6c-3.324 0-6 2.676-6 6v2 68 2c0 0.33472 0.04135 0.6507 0.09375 0.96875 0.0487 0.2956 0.09704 0.59692 0.1875 0.875 0.00988 0.03038 0.020892 0.0636 0.03125 0.09375 0.098865 0.28777 0.23488 0.54745 0.375 0.8125 0.14459 0.27351 0.31562 0.53562 0.5 0.78125s0.37378 0.47347 0.59375 0.6875c0.43995 0.42806 0.94291 0.81453 1.5 1.0938 0.27854 0.13961 0.57347 0.24695 0.875 0.34375-0.2562-0.10022-0.48671-0.23627-0.71875-0.375-0.00741-0.0044-0.023866 0.0045-0.03125 0-0.031933-0.0193-0.062293-0.04251-0.09375-0.0625-0.1204-0.0767-0.23102-0.16351-0.34375-0.25-0.10617-0.0808-0.21328-0.16111-0.3125-0.25-0.17793-0.16143-0.34746-0.34539-0.5-0.53125-0.10758-0.13026-0.21839-0.26528-0.3125-0.40625-0.025089-0.03838-0.038446-0.08587-0.0625-0.125-0.064763-0.10303-0.13023-0.20452-0.1875-0.3125-0.10101-0.19471-0.20567-0.4157-0.28125-0.625-0.00796-0.02181-0.023589-0.04055-0.03125-0.0625-0.031825-0.09195-0.035804-0.18683-0.0625-0.28125-0.030332-0.10662-0.070389-0.20303-0.09375-0.3125-0.072879-0.34151-0.125-0.6982-0.125-1.0625v-2-68-2c0-2.7818 2.2182-5 5-5h2 68 2c2.7818 0 5 2.2182 5 5v2 68 2c0 0.3643-0.05212 0.72099-0.125 1.0625-0.04415 0.20689-0.08838 0.39766-0.15625 0.59375-0.0077 0.02195-0.0233 0.04069-0.03125 0.0625-0.06274 0.17374-0.13838 0.36745-0.21875 0.53125-0.04158 0.0828-0.07904 0.16995-0.125 0.25-0.0546 0.09721-0.12677 0.18835-0.1875 0.28125-0.09411 0.14096-0.20492 0.276-0.3125 0.40625-0.14317 0.17445-0.30314 0.347-0.46875 0.5-0.01117 0.0102-0.01998 0.02115-0.03125 0.03125-0.13839 0.12556-0.28509 0.23444-0.4375 0.34375-0.10257 0.07315-0.20432 0.15336-0.3125 0.21875-0.0074 0.0045-0.02384-0.0044-0.03125 0-0.23204 0.13873-0.46255 0.27478-0.71875 0.375 0.30153-0.0968 0.59646-0.20414 0.875-0.34375 0.55709-0.27922 1.0601-0.66569 1.5-1.0938 0.21997-0.21403 0.40937-0.44186 0.59375-0.6875s0.35541-0.50774 0.5-0.78125c0.14012-0.26505 0.27614-0.52473 0.375-0.8125 0.01041-0.03078 0.02133-0.06274 0.03125-0.09375 0.09046-0.27808 0.1388-0.5794 0.1875-0.875 0.0524-0.31805 0.09375-0.63403 0.09375-0.96875v-2-68-2c0-3.324-2.676-6-6-6h-72z" fill="url(#linearGradient3188)" opacity=".4"/>
  <path id="path3615" d="m12 90c-3.324 0-6-2.676-6-6v-2-68-2c0-0.33472 0.04135-0.6507 0.09375-0.96875 0.0487-0.2956 0.09704-0.59692 0.1875-0.875 0.00988-0.03038 0.020892-0.0636 0.03125-0.09375 0.098865-0.28777 0.23488-0.54745 0.375-0.8125 0.14459-0.27351 0.31562-0.53562 0.5-0.78125s0.37378-0.47347 0.59375-0.6875c0.43995-0.42806 0.94291-0.81453 1.5-1.0938 0.27854-0.13961 0.57347-0.24695 0.875-0.34375-0.2562 0.10022-0.48671 0.23627-0.71875 0.375-0.00741 0.0044-0.023866-0.0045-0.03125 0-0.031933 0.0193-0.062293 0.04251-0.09375 0.0625-0.1204 0.0767-0.23102 0.16351-0.34375 0.25-0.10617 0.0808-0.21328 0.16111-0.3125 0.25-0.17793 0.16143-0.34746 0.34539-0.5 0.53125-0.10758 0.13026-0.21839 0.26528-0.3125 0.40625-0.025089 0.03838-0.038446 0.08587-0.0625 0.125-0.064763 0.10303-0.13023 0.20452-0.1875 0.3125-0.10101 0.19471-0.20567 0.4157-0.28125 0.625-0.00796 0.02181-0.023589 0.04055-0.03125 0.0625-0.031825 0.09195-0.035804 0.18683-0.0625 0.28125-0.030332 0.10662-0.070389 0.20303-0.09375 0.3125-0.072879 0.34151-0.125 0.6982-0.125 1.0625v2 68 2c0 2.7818 2.2182 5 5 5h2 68 2c2.7818 0 5-2.2182 5-5v-2-68-2c0-0.3643-0.05212-0.72099-0.125-1.0625-0.04415-0.20689-0.08838-0.39766-0.15625-0.59375-0.0077-0.02195-0.0233-0.04069-0.03125-0.0625-0.06274-0.17374-0.13838-0.36745-0.21875-0.53125-0.04158-0.0828-0.07904-0.16995-0.125-0.25-0.0546-0.09721-0.12677-0.18835-0.1875-0.28125-0.09411-0.14096-0.20492-0.276-0.3125-0.40625-0.14317-0.17445-0.30314-0.347-0.46875-0.5-0.01117-0.0102-0.01998-0.02115-0.03125-0.03125-0.13839-0.12556-0.28509-0.23444-0.4375-0.34375-0.10257-0.07315-0.20432-0.15336-0.3125-0.21875-0.0074-0.0045-0.02384 0.0044-0.03125 0-0.23204-0.13873-0.46255-0.27478-0.71875-0.375 0.30153 0.0968 0.59646 0.20414 0.875 0.34375 0.55709 0.27922 1.0601 0.66569 1.5 1.0938 0.21997 0.21403 0.40937 0.44186 0.59375 0.6875s0.35541 0.50774 0.5 0.78125c0.14012 0.26505 0.27614 0.52473 0.375 0.8125 0.01041 0.03078 0.02133 0.06274 0.03125 0.09375 0.09046 0.27808 0.1388 0.5794 0.1875 0.875 0.0524 0.31805 0.09375 0.63403 0.09375 0.96875v2 68 2c0 3.324-2.676 6-6 6h-72z" fill="url(#radialGradient3619)" opacity=".2"/>
 </g>
 <g id="layer7">
  <g id="g3855" clip-path="url(#clipPath2973)" fill="#f00" opacity=".9">
   <path id="path3819" d="m48 48 24-56h16l-40 56z" opacity=".15"/>
   <path id="path3821" d="m48 48 55.251 25.677-0.48222 15.993-54.769-41.67z" opacity=".15"/>
   <path id="path3823" d="m48 48-59.828 11.516-8.9688-13.25 68.797 1.734z" opacity=".15"/>
   <path id="path3825" d="m48 48-49.311-35.783 3.5361-15.604 45.775 51.387z" opacity=".15"/>
   <path id="path3827" d="m48 48 17.519-62.073 30.436 12.714-47.955 49.359z" opacity=".15"/>
   <path id="path3829" d="m48 48 61.636-19.001 5.8539 32.461-67.49-13.46z" opacity=".15"/>
   <path id="path3831" d="m48 48-31.246 56.424-26.723-19.336 57.969-37.089z" opacity=".15"/>
   <path id="path3833" d="m48 48-62.812-14.651 11.304-30.988 51.508 45.639z" opacity=".15"/>
   <path id="path3835" d="m48 48 45.81 45.403-3.6917 9.0215-42.118-54.425z" opacity=".15"/>
   <path id="path3837" d="m48 48-2.9701 64.43-9.1685 3.31 12.139-67.74z" opacity=".15"/>
   <path id="path3839" d="m48 48-44.859 46.343-9.0645-3.585 53.924-42.758z" opacity=".15"/>
   <path id="path3841" d="m48 48-62.116 17.366-6.0159-7.6698 68.132-9.6964z" opacity=".15"/>
   <path id="path3843" d="m48 48-29.147-57.537 6.3493-7.3962 22.797 64.933z" opacity=".15"/>
   <path id="path3845" d="m48 48 59.482-24.939 6.921 6.8641-66.403 18.074z" opacity=".15"/>
   <path id="path3849" d="m48 48 40.187 45.793-6.8963 14.437-33.29-60.231z" opacity=".15"/>
   <path id="path3851" d="m48 48-35.958-49.184 8.1521-13.767 27.806 62.951z" opacity=".15"/>
  </g>
  <rect id="rect3873" x="6" y="6" width="84" height="84" rx="6" ry="6" display="none" fill="url(#linearGradient3617)"/>
  <rect id="rect3880" x="6" y="6" width="84" height="84" rx="6" ry="6" display="none" fill="url(#linearGradient3617)"/>
 </g>
 <g id="layer5">
  <rect id="rect3171" x="15" y="15" width="66" height="66" rx="12" ry="12" clip-path="url(#clipPath3613)" fill="url(#linearGradient3613)" filter="url(#filter3794)" opacity=".1" stroke="#fff" stroke-linecap="round" stroke-width=".5"/>
 </g>
 <g id="layer6">
  <path id="path4741" d="m47.625 16.031c-1.3427 0.26231-2.0877 1.3638-2.4375 2.3125s-0.50661 1.8627-0.75 2.375a0.98518 0.98518 0 0 0-0.0625 0.125l-2.0312 6.0938c-1.0258 0.26194-2.0181 0.68831-2.6875 0.90625-0.41984 0.13669-0.71814 0.13839-0.90625 0.09375-0.18811-0.04464-0.34628-0.1203-0.625-0.5625a0.98518 0.98518 0 0 0-0.28125-0.28125c-0.54482-0.38593-1.0898-1.0029-1.75-1.625s-1.4752-1.2699-2.5625-1.5312a0.98518 0.98518 0 0 0-0.09375 0c-1.2001-0.13516-2.2798 0.5229-2.8125 1.4062-0.49566 0.82191-0.58238 1.8483-0.21875 2.8125h-0.03125l0.0625 0.21875 1.0312 5.125c-0.24066 0.4642-0.45359 0.55686-0.8125 0.59375-0.42445 0.04363-1.1443-0.09441-1.9688-0.3125a0.98518 0.98518 0 0 0-0.125-0.03125c-0.58688-0.07864-1.503-0.4299-2.5312-0.53125-0.5141-0.05067-1.0917-0.02676-1.6562 0.1875-0.56456 0.21426-1.0847 0.64634-1.4375 1.25a0.98518 0.98518 0 0 0-0.03125 0.03125c-0.33077 0.61776-0.4207 1.311-0.3125 1.9062s0.3816 1.0775 0.6875 1.5c0.6118 0.84498 1.378 1.4886 1.75 1.9688a0.98518 0.98518 0 0 0 0.15625 0.15625c0.68839 0.56687 1.0662 1.1008 1.1875 1.5625 0.10398 0.39576-0.05258 0.88378-0.375 1.5-3.094 1.0688-6.2912 2.0387-9.4062 3.25a0.98518 0.98518 0 0 0-0.15625 0.0625c-2.3139 1.39-1.3774 4.9857 1.1562 5.4062l-0.03125 0.0625 8.5312 2.8125c0.25865 0.97891 0.62398 1.9285 0.8125 2.5625 0.11852 0.39859 0.14186 0.66206 0.09375 0.84375-0.04811 0.18169-0.13547 0.35535-0.5625 0.625a0.98518 0.98518 0 0 0-0.28125 0.28125c-0.78785 1.1156-2.6484 2.1635-3.1875 4.3438a0.98518 0.98518 0 0 0 0 0.125c-0.13508 1.2 0.52294 2.2801 1.4062 2.8125 0.82188 0.49538 1.8485 0.58142 2.8125 0.21875v0.03125l0.21875-0.0625 5.1562-1.0312c0.40786 0.20861 0.5082 0.37134 0.53125 0.71875 0.02787 0.41998-0.17777 1.1747-0.375 2a0.98518 0.98518 0 0 0 0 0.09375c-0.07864 0.58688-0.4299 1.503-0.53125 2.5312-0.05067 0.5141-0.02676 1.0917 0.1875 1.6562 0.21426 0.56456 0.64634 1.0847 1.25 1.4375a0.98518 0.98518 0 0 0 0.03125 0.03125c0.61577 0.32937 1.3126 0.41709 1.9062 0.3125s1.0774-0.38557 1.5-0.6875c0.84526-0.60386 1.4853-1.3488 1.9688-1.7188a0.98518 0.98518 0 0 0 0.15625-0.15625c0.56738-0.70035 1.093-1.0779 1.5625-1.1875 0.40516-0.09456 0.92697 0.09596 1.5625 0.4375 1.0586 3.0617 2.0161 6.2282 3.2188 9.3125a0.98518 0.98518 0 0 0 0.0625 0.15625c1.3902 2.3132 4.9829 1.3755 5.4062-1.1562l0.0625 0.03125 2.8125-8.375c1.0114-0.26473 1.9935-0.69048 2.6562-0.90625 0.42006-0.13676 0.71864-0.13839 0.90625-0.09375 0.1876 0.04464 0.34708 0.11984 0.625 0.5625a0.98518 0.98518 0 0 0 0.28125 0.28125c0.52145 0.35461 1.0822 1.0047 1.7812 1.6562s1.6455 1.3231 2.875 1.375a0.98518 0.98518 0 0 0 0.0625 0c1.1681-0.05094 2.0981-0.81566 2.5-1.7188 0.37092-0.8334 0.38928-1.7815 0.0625-2.6562l-0.0625-0.21875-0.9375-4.6875c0.23748-0.41519 0.44878-0.53484 0.8125-0.5625 0.43754-0.03328 1.1434 0.17184 1.9688 0.375a0.98518 0.98518 0 0 0 0.09375 0c0.58654 0.0871 1.4992 0.39663 2.5 0.46875 0.50039 0.03606 1.0508 3e-3 1.5938-0.21875 0.54299-0.22176 1.0394-0.63178 1.375-1.2188a0.98518 0.98518 0 0 0 0.03125-0.03125c0.33093-0.61776 0.42021-1.3108 0.3125-1.9062s-0.38162-1.0771-0.6875-1.5c-0.61176-0.84574-1.3755-1.4882-1.75-1.9688a0.98518 0.98518 0 0 0-0.09375-0.09375c-0.5389-0.53406-0.98246-1.0332-1.125-1.3438s-0.20357-0.39266 0.21875-0.9375a0.98518 0.98518 0 0 0 0.21875-0.59375c-1.57e-4 -0.21299-3e-3 -0.21279 0.03125-0.25 0.0342-0.03721 0.17594-0.10744 0.40625-0.1875 0.43325-0.15061 1.1772-0.26067 1.9375-0.625v0.03125c0.0414-0.0154 0.08343-0.04727 0.125-0.0625 2.2246-0.81526 4.6758-1.3835 7-2.4688a0.98518 0.98518 0 0 0 0.15625-0.09375c2.1267-1.5033 1.0924-4.8646-1.3438-5.2812l0.03125-0.0625-8.25-2.75c-0.24179-1.0855-0.67374-2.0381-0.90625-2.75-0.14287-0.43745-0.17028-0.76684-0.125-0.96875s0.11599-0.371 0.5625-0.65625a0.98518 0.98518 0 0 0 0.28125-0.28125c0.34917-0.51721 0.98677-1.0851 1.625-1.7812s1.296-1.6277 1.3438-2.8438a0.98518 0.98518 0 0 0 0-0.0625c-0.05089-1.1681-0.81558-2.0977-1.7188-2.5-0.83348-0.37126-1.7811-0.39042-2.6562-0.0625-0.07318 0.02742-0.14682 0.02996-0.21875 0.0625l-4.6562 0.9375c-0.46431-0.2497-0.58649-0.44842-0.625-0.8125-0.04554-0.43056 0.09235-1.1754 0.3125-2a0.98518 0.98518 0 0 0 0.03125-0.09375c0.08554-0.5861 0.41513-1.5211 0.5-2.5312 0.04243-0.50505 0.03117-1.0427-0.1875-1.5938-0.21867-0.55106-0.65682-1.0649-1.25-1.4062a0.98518 0.98518 0 0 0-0.03125-0.03125c-0.61775-0.33065-1.3112-0.42104-1.9062-0.3125s-1.0778 0.38158-1.5 0.6875c-0.84444 0.61184-1.4889 1.3797-1.9688 1.75a0.98518 0.98518 0 0 0-0.1875 0.1875c-0.52896 0.69772-0.97301 0.95762-1.4375 1.0312-0.39559 0.0627-0.95426-0.12596-1.5938-0.4375-1.0904-3.1077-1.9964-6.3542-3.3125-9.5a0.98518 0.98518 0 0 0-0.125-0.21875c-0.6473-0.86751-1.7025-1.2746-2.75-1.1562a0.98518 0.98518 0 0 0-0.0625 0z" color="#000000" opacity=".05"/>
  <path id="path4735" d="m47.812 17a0.99426 0.99426 0 0 0-0.0625 0.03125c-1.61e-4 2.8e-5 -0.12484 0.03121-0.125 0.03125-1.58e-4 3.9e-5 -0.12484 0.0312-0.125 0.03125s-0.12485 0.03119-0.125 0.03125c-1.52e-4 6.1e-5 -0.12485 0.06243-0.125 0.0625-1.47e-4 7.1e-5 -0.12486 0.06242-0.125 0.0625-1.42e-4 8.1e-5 -0.12486 0.06241-0.125 0.0625s-0.09362 0.09365-0.09375 0.09375c-1.3e-4 9.9e-5 -0.12488 0.09364-0.125 0.09375-1.23e-4 1.08e-4 -0.09363 0.09363-0.09375 0.09375-1.15e-4 1.16e-4 -0.09364 0.09363-0.09375 0.09375-1.07e-4 1.24e-4 -0.0624 0.09362-0.0625 0.09375-9.8e-5 1.31e-4 -0.09366 0.12486-0.09375 0.125-8.9e-5 1.37e-4 -0.06242 0.12486-0.0625 0.125-7.9e-5 1.43e-4 -0.06243 0.0936-0.0625 0.09375-6.9e-5 1.48e-4 -0.06244 0.12485-0.0625 0.125-4.8e-5 1.23e-4 -0.01995 0.09272-0.03125 0.125-0.0027 0.0077 9e-6 0.03122 0 0.03125l-3.0938 9.2812c-1.5133 0.35754-2.9759 0.88299-4.3438 1.5312l-4.3438-3.8438a0.99426 0.99426 0 0 0-0.03125-0.03125c-1.4e-4 -1.15e-4 -0.12485-0.0624-0.125-0.0625-1.48e-4 -1.04e-4 -0.12484-0.09366-0.125-0.09375-1.56e-4 -9.3e-5 -0.12484-0.06242-0.125-0.0625-1.62e-4 -8.1e-5 -0.12483-0.06243-0.125-0.0625-1.68e-4 -6.8e-5 -0.15608-0.06245-0.15625-0.0625-1.73e-4 -5.5e-5 -0.15607-0.03121-0.15625-0.03125-1.76e-4 -4.2e-5 -0.12482-0.03122-0.125-0.03125-1.79e-4 -2.9e-5 -0.15607-0.03123-0.15625-0.03125-1.81e-4 -1.5e-5 -0.15607 1e-6 -0.15625 0s-0.15607-1.2e-5 -0.15625 0-0.15607 0.03122-0.15625 0.03125c-1.79e-4 2.6e-5 -0.12482-4e-5 -0.125 0s-0.15608 0.06245-0.15625 0.0625c-1.73e-4 5.3e-5 -0.15608 0.03118-0.15625 0.03125-1.69e-4 6.6e-5 -0.12484 0.06242-0.125 0.0625-1.63e-4 7.8e-5 -0.12484 0.06241-0.125 0.0625-1.57e-4 9.1e-5 -0.12485 0.09365-0.125 0.09375-1.5e-4 1.02e-4 -0.12486 0.09364-0.125 0.09375-1.41e-4 1.13e-4 -0.12487 0.09363-0.125 0.09375-1.33e-4 1.24e-4 -0.09363 0.09362-0.09375 0.09375-1.23e-4 1.33e-4 -0.12489 0.12486-0.125 0.125s-0.0624 0.12485-0.0625 0.125c-1.01e-4 1.5e-4 -0.09366 0.12484-0.09375 0.125s-0.06242 0.12484-0.0625 0.125c-7.7e-5 1.64e-4 -0.06244 0.15608-0.0625 0.15625-6.5e-5 1.69e-4 -0.06245 0.15608-0.0625 0.15625-5.2e-5 1.74e-4 -0.03121 0.12482-0.03125 0.125-3.8e-5 1.77e-4 -0.03122 0.15607-0.03125 0.15625-2.5e-5 1.8e-4 1.1e-5 0.15607 0 0.15625s-3e-6 0.15607 0 0.15625-1.6e-5 0.12482 0 0.125 0.03122 0.15607 0.03125 0.15625a0.99426 0.99426 0 0 0 0 0.03125l1.3125 6.4062c-0.49642 0.50228-0.95797 1.043-1.4062 1.5938l-5.2188-1.0625a0.99426 0.99426 0 0 0-0.03125 0c-1.79e-4 -3e-5 -0.15607-0.03123-0.15625-0.03125-1.8e-4 -1.6e-5 -0.12482 3e-6 -0.125 0s-0.15607-1.1e-5 -0.15625 0-0.15607-2.5e-5 -0.15625 0-0.15607 0.03121-0.15625 0.03125c-1.77e-4 3.8e-5 -0.12483 0.0312-0.125 0.03125-1.74e-4 5.2e-5 -0.15608 0.06244-0.15625 0.0625-1.69e-4 6.5e-5 -0.15609 0.06242-0.15625 0.0625-1.64e-4 7.7e-5 -0.12484 0.06241-0.125 0.0625s-0.12485 0.09365-0.125 0.09375c-1.5e-4 1.01e-4 -0.12486 0.06239-0.125 0.0625-1.42e-4 1.12e-4 -0.12487 0.12488-0.125 0.125s-0.09363 0.09362-0.09375 0.09375c-1.24e-4 1.33e-4 -0.09364 0.12486-0.09375 0.125-1.13e-4 1.41e-4 -0.09365 0.12485-0.09375 0.125-1.02e-4 1.5e-4 -0.09366 0.12484-0.09375 0.125-9.1e-5 1.57e-4 -0.06242 0.12484-0.0625 0.125-7.8e-5 1.63e-4 -0.06243 0.12483-0.0625 0.125-6.6e-5 1.69e-4 -0.0312 0.15608-0.03125 0.15625-5.3e-5 1.73e-4 -0.06246 0.15607-0.0625 0.15625s2.6e-5 0.12482 0 0.125-0.03124 0.15607-0.03125 0.15625c-1.2e-5 1.81e-4 -1e-6 0.15607 0 0.15625s-1.5e-5 0.15607 0 0.15625 0.03122 0.15607 0.03125 0.15625c2.9e-5 1.79e-4 0.03121 0.12482 0.03125 0.125 4.2e-5 1.76e-4 0.0312 0.15608 0.03125 0.15625 5.5e-5 1.73e-4 0.06243 0.15608 0.0625 0.15625 6.8e-5 1.68e-4 0.06242 0.12484 0.0625 0.125 8.1e-5 1.62e-4 0.06241 0.12484 0.0625 0.125 9.3e-5 1.56e-4 0.09365 0.12485 0.09375 0.125 1.04e-4 1.48e-4 0.06238 0.12486 0.0625 0.125a0.99426 0.99426 0 0 0 0.03125 0.03125l3.5625 4c-0.31625 0.84259-0.56663 1.7254-0.78125 2.625l-9.4062 3.1562a0.99426 0.99426 0 0 0-0.03125 0c-1.69e-4 6.4e-5 -0.15609 0.06242-0.15625 0.0625-1.64e-4 7.6e-5 -0.12484 0.06241-0.125 0.0625-1.58e-4 8.8e-5 -0.12485 0.09365-0.125 0.09375s-0.12486 0.09364-0.125 0.09375c-1.43e-4 1.11e-4 -0.12487 0.09363-0.125 0.09375-1.34e-4 1.22e-4 -0.09363 0.09362-0.09375 0.09375-1.24e-4 1.32e-4 -0.09364 0.12486-0.09375 0.125-1.14e-4 1.41e-4 -0.09365 0.12485-0.09375 0.125-1.03e-4 1.49e-4 -0.09366 0.12484-0.09375 0.125-9.2e-5 1.56e-4 -0.06242 0.12484-0.0625 0.125-7.9e-5 1.63e-4 -0.06243 0.12483-0.0625 0.125-6.7e-5 1.68e-4 -0.06245 0.15608-0.0625 0.15625-5.4e-5 1.73e-4 -0.03121 0.15607-0.03125 0.15625-4.1e-5 1.76e-4 -0.03122 0.12482-0.03125 0.125-2.7e-5 1.79e-4 1.4e-5 0.15607 0 0.15625s-0.03125 0.15607-0.03125 0.15625 0.03124 0.15607 0.03125 0.15625c1.4e-5 1.8e-4 -2.7e-5 0.15607 0 0.15625s0.03121 0.12482 0.03125 0.125c4.1e-5 1.76e-4 0.0312 0.15608 0.03125 0.15625 5.4e-5 1.73e-4 0.06243 0.15608 0.0625 0.15625 6.7e-5 1.68e-4 0.06242 0.12484 0.0625 0.125 7.9e-5 1.63e-4 0.06241 0.12484 0.0625 0.125 9.2e-5 1.56e-4 0.09365 0.12485 0.09375 0.125 1.03e-4 1.49e-4 0.09364 0.12486 0.09375 0.125 1.14e-4 1.41e-4 0.09363 0.12487 0.09375 0.125 1.24e-4 1.32e-4 0.09362 0.09363 0.09375 0.09375 1.34e-4 1.22e-4 0.12486 0.09364 0.125 0.09375 1.43e-4 1.11e-4 0.12485 0.09365 0.125 0.09375s0.12484 0.09366 0.125 0.09375c1.58e-4 8.8e-5 0.12484 0.06242 0.125 0.0625 1.64e-4 7.6e-5 0.15608 0.06244 0.15625 0.0625a0.99426 0.99426 0 0 0 0.03125 0l9.4688 3.125c0.34334 1.4415 0.82301 2.8339 1.4375 4.1562l-3.875 4.4062a0.99426 0.99426 0 0 0-0.03125 0.03125c-1.15e-4 1.4e-4 -0.0624 0.12485-0.0625 0.125-1.04e-4 1.48e-4 -0.09366 0.12484-0.09375 0.125-9.3e-5 1.56e-4 -0.06242 0.12484-0.0625 0.125-8.1e-5 1.62e-4 -0.06243 0.12483-0.0625 0.125-6.8e-5 1.68e-4 -0.06245 0.15608-0.0625 0.15625-5.5e-5 1.73e-4 -0.03121 0.15607-0.03125 0.15625-4.2e-5 1.76e-4 -0.03122 0.12482-0.03125 0.125-2.9e-5 1.79e-4 -0.03123 0.15607-0.03125 0.15625-1.5e-5 1.81e-4 1e-6 0.15607 0 0.15625s-1.2e-5 0.15607 0 0.15625 0.03122 0.15607 0.03125 0.15625c2.6e-5 1.79e-4 -4e-5 0.12482 0 0.125s0.06245 0.15608 0.0625 0.15625c5.3e-5 1.73e-4 0.03118 0.15608 0.03125 0.15625 6.6e-5 1.69e-4 0.06242 0.12484 0.0625 0.125 7.8e-5 1.63e-4 0.06241 0.12484 0.0625 0.125 9.1e-5 1.57e-4 0.09365 0.12485 0.09375 0.125 1.02e-4 1.5e-4 0.09364 0.12486 0.09375 0.125 1.13e-4 1.41e-4 0.09363 0.12487 0.09375 0.125 1.24e-4 1.33e-4 0.09362 0.09363 0.09375 0.09375 1.33e-4 1.23e-4 0.12486 0.12489 0.125 0.125s0.12485 0.0624 0.125 0.0625c1.5e-4 1.01e-4 0.12484 0.09366 0.125 0.09375s0.12484 0.06242 0.125 0.0625c1.64e-4 7.7e-5 0.15608 0.06243 0.15625 0.0625 1.69e-4 6.5e-5 0.15608 0.06245 0.15625 0.0625 1.74e-4 5.2e-5 0.12482 0.03121 0.125 0.03125 1.77e-4 3.8e-5 0.15607 0.03123 0.15625 0.03125 1.8e-4 2.5e-5 0.15607-1.1e-5 0.15625 0s0.15607 3e-6 0.15625 0 0.12482 1.6e-5 0.125 0 0.15607-0.03122 0.15625-0.03125a0.99426 0.99426 0 0 0 0.03125 0l6.4375-1.3125c0.47542 0.46487 0.98802 0.89519 1.5 1.3125l-1.0625 5.2188a0.99426 0.99426 0 0 0 0 0.03125c-3e-5 1.79e-4 -0.03123 0.15607-0.03125 0.15625-1.6e-5 1.8e-4 3e-6 0.12482 0 0.125s-1.1e-5 0.15607 0 0.15625-2.5e-5 0.15607 0 0.15625 0.03121 0.15607 0.03125 0.15625c3.8e-5 1.77e-4 0.0312 0.12483 0.03125 0.125 5.2e-5 1.74e-4 0.06244 0.15608 0.0625 0.15625 6.5e-5 1.69e-4 0.06242 0.15609 0.0625 0.15625 7.7e-5 1.64e-4 0.06241 0.12484 0.0625 0.125s0.09365 0.12485 0.09375 0.125c1.01e-4 1.5e-4 0.06239 0.12486 0.0625 0.125 1.12e-4 1.42e-4 0.12488 0.12487 0.125 0.125s0.09362 0.09363 0.09375 0.09375c1.33e-4 1.24e-4 0.12486 0.09364 0.125 0.09375 1.41e-4 1.13e-4 0.12485 0.09365 0.125 0.09375 1.5e-4 1.02e-4 0.12484 0.09366 0.125 0.09375 1.57e-4 9.1e-5 0.12484 0.06242 0.125 0.0625 1.63e-4 7.8e-5 0.12483 0.06243 0.125 0.0625 1.69e-4 6.6e-5 0.15608 0.0312 0.15625 0.03125 1.73e-4 5.3e-5 0.15607 0.06246 0.15625 0.0625s0.12482-2.6e-5 0.125 0 0.15607 0.03124 0.15625 0.03125c1.81e-4 1.2e-5 0.15607 1e-6 0.15625 0s0.15607 1.5e-5 0.15625 0 0.15607-0.03122 0.15625-0.03125c1.79e-4 -2.9e-5 0.12482-0.03121 0.125-0.03125 1.76e-4 -4.2e-5 0.15608-0.03119 0.15625-0.03125 1.73e-4 -5.5e-5 0.15608-0.06243 0.15625-0.0625 1.68e-4 -6.8e-5 0.12484-0.06242 0.125-0.0625 1.62e-4 -8.1e-5 0.12484-0.06241 0.125-0.0625 1.56e-4 -9.3e-5 0.12485-0.09365 0.125-0.09375 1.48e-4 -1.04e-4 0.12486-0.06239 0.125-0.0625a0.99426 0.99426 0 0 0 0.03125-0.03125l4-3.5312c0.86547 0.33074 1.7647 0.622 2.6875 0.84375l3.125 9.3125a0.99426 0.99426 0 0 0 0 0.03125c6.4e-5 1.69e-4 0.06242 0.15609 0.0625 0.15625 7.6e-5 1.64e-4 0.06241 0.12484 0.0625 0.125 8.8e-5 1.58e-4 0.09365 0.12485 0.09375 0.125s0.09364 0.12486 0.09375 0.125c1.11e-4 1.43e-4 0.09363 0.12487 0.09375 0.125 1.22e-4 1.34e-4 0.09362 0.09363 0.09375 0.09375 1.32e-4 1.24e-4 0.12486 0.09364 0.125 0.09375 1.41e-4 1.14e-4 0.12485 0.09365 0.125 0.09375 1.49e-4 1.03e-4 0.12484 0.09366 0.125 0.09375 1.56e-4 9.2e-5 0.12484 0.06242 0.125 0.0625 1.63e-4 7.9e-5 0.12483 0.06243 0.125 0.0625 1.68e-4 6.7e-5 0.15608 0.06245 0.15625 0.0625 1.73e-4 5.4e-5 0.15607 0.03121 0.15625 0.03125 1.76e-4 4.1e-5 0.12482 0.03122 0.125 0.03125 1.79e-4 2.7e-5 0.15607-1.4e-5 0.15625 0s0.15607 0.03125 0.15625 0.03125 0.15607-0.03124 0.15625-0.03125c1.8e-4 -1.4e-5 0.15607 2.7e-5 0.15625 0s0.12482-0.03121 0.125-0.03125c1.76e-4 -4.1e-5 0.15608-0.0312 0.15625-0.03125 1.73e-4 -5.4e-5 0.15608-0.06243 0.15625-0.0625 1.68e-4 -6.7e-5 0.12484-0.06242 0.125-0.0625 1.63e-4 -7.9e-5 0.12484-0.06241 0.125-0.0625 1.56e-4 -9.2e-5 0.12485-0.09365 0.125-0.09375 1.49e-4 -1.03e-4 0.12486-0.09364 0.125-0.09375 1.41e-4 -1.14e-4 0.12487-0.09363 0.125-0.09375 1.32e-4 -1.24e-4 0.09363-0.09362 0.09375-0.09375 1.22e-4 -1.34e-4 0.09364-0.12486 0.09375-0.125 1.11e-4 -1.43e-4 0.09365-0.12485 0.09375-0.125s0.09366-0.12484 0.09375-0.125c8.8e-5 -1.58e-4 0.06242-0.12484 0.0625-0.125 7.6e-5 -1.64e-4 0.06244-0.15608 0.0625-0.15625a0.99426 0.99426 0 0 0 0-0.03125l3.0938-9.3125c1.5132-0.36144 2.9801-0.88204 4.3438-1.5312l4.1875 3.7188a0.99426 0.99426 0 0 0 0.03125 0.03125c1.4e-4 1.15e-4 0.12485 0.0624 0.125 0.0625 1.48e-4 1.04e-4 0.12484 0.09366 0.125 0.09375 1.56e-4 9.3e-5 0.12484 0.06242 0.125 0.0625 1.62e-4 8.1e-5 0.12483 0.06243 0.125 0.0625 1.68e-4 6.8e-5 0.15608 0.06244 0.15625 0.0625 1.73e-4 5.5e-5 0.15607 0.03121 0.15625 0.03125 1.76e-4 4.2e-5 0.12482 0.03122 0.125 0.03125 1.79e-4 2.9e-5 0.15607 0.03123 0.15625 0.03125 1.81e-4 1.5e-5 0.15607-1e-6 0.15625 0s0.15607 1.2e-5 0.15625 0 0.15607-0.03122 0.15625-0.03125c1.79e-4 -2.6e-5 0.12482 4e-5 0.125 0s0.15608-0.06245 0.15625-0.0625c1.73e-4 -5.3e-5 0.15608-0.03118 0.15625-0.03125 1.69e-4 -6.6e-5 0.12484-0.06242 0.125-0.0625 1.63e-4 -7.8e-5 0.12484-0.06241 0.125-0.0625 1.57e-4 -9.1e-5 0.12485-0.09365 0.125-0.09375 1.5e-4 -1.02e-4 0.12486-0.09364 0.125-0.09375 1.41e-4 -1.13e-4 0.12487-0.09363 0.125-0.09375 1.33e-4 -1.24e-4 0.09363-0.09362 0.09375-0.09375 1.23e-4 -1.33e-4 0.12489-0.12486 0.125-0.125s0.0624-0.12485 0.0625-0.125c1.01e-4 -1.5e-4 0.09366-0.12484 0.09375-0.125s0.06242-0.12484 0.0625-0.125c7.7e-5 -1.64e-4 0.06243-0.15608 0.0625-0.15625 6.5e-5 -1.69e-4 0.06245-0.15608 0.0625-0.15625 5.2e-5 -1.74e-4 0.03121-0.12482 0.03125-0.125 3.8e-5 -1.77e-4 0.03123-0.15607 0.03125-0.15625 2.5e-5 -1.8e-4 -1.1e-5 -0.15607 0-0.15625s3e-6 -0.15607 0-0.15625 1.6e-5 -0.12482 0-0.125-0.03122-0.15607-0.03125-0.15625a0.99426 0.99426 0 0 0 0-0.03125l-1.25-6.1562c0.48478-0.48067 0.96073-0.96855 1.4062-1.5l5.0312 1a0.99426 0.99426 0 0 0 0.03125 0c1.79e-4 3e-5 0.15607 0.03123 0.15625 0.03125 1.8e-4 1.6e-5 0.12482-3e-6 0.125 0s0.15607 1.1e-5 0.15625 0 0.15607 2.5e-5 0.15625 0 0.15607-0.03121 0.15625-0.03125c1.77e-4 -3.8e-5 0.12483-0.0312 0.125-0.03125 1.74e-4 -5.2e-5 0.15608-0.06244 0.15625-0.0625 1.69e-4 -6.5e-5 0.15609-0.06242 0.15625-0.0625 1.64e-4 -7.7e-5 0.12484-0.06241 0.125-0.0625s0.12485-0.09365 0.125-0.09375c1.5e-4 -1.01e-4 0.12486-0.06239 0.125-0.0625 1.42e-4 -1.12e-4 0.12487-0.12488 0.125-0.125s0.09363-0.09362 0.09375-0.09375c1.24e-4 -1.33e-4 0.09364-0.12486 0.09375-0.125 1.13e-4 -1.41e-4 0.09365-0.12485 0.09375-0.125 1.02e-4 -1.5e-4 0.09366-0.12484 0.09375-0.125 9.1e-5 -1.57e-4 0.06242-0.12484 0.0625-0.125 7.8e-5 -1.63e-4 0.06243-0.12483 0.0625-0.125 6.6e-5 -1.69e-4 0.0312-0.15608 0.03125-0.15625 5.3e-5 -1.73e-4 0.06246-0.15607 0.0625-0.15625s-2.6e-5 -0.12482 0-0.125 0.03124-0.15607 0.03125-0.15625c1.2e-5 -1.81e-4 1e-6 -0.15607 0-0.15625s1.5e-5 -0.15607 0-0.15625-0.03122-0.15607-0.03125-0.15625c-2.9e-5 -1.79e-4 -0.03121-0.12482-0.03125-0.125-4.2e-5 -1.76e-4 -0.03119-0.15608-0.03125-0.15625-5.5e-5 -1.73e-4 -0.06243-0.15608-0.0625-0.15625-6.8e-5 -1.68e-4 -0.06242-0.12484-0.0625-0.125-8.1e-5 -1.62e-4 -0.06241-0.12484-0.0625-0.125-9.3e-5 -1.56e-4 -0.09365-0.12485-0.09375-0.125-1.04e-4 -1.48e-4 -0.06239-0.12486-0.0625-0.125a0.99426 0.99426 0 0 0-0.03125-0.03125l-3.4375-3.8438c0.35632-0.90793 0.6715-1.8424 0.90625-2.8125l9.25-3.0938a0.99426 0.99426 0 0 0 0.03125 0c1.69e-4 -6.4e-5 0.15609-0.06242 0.15625-0.0625 1.64e-4 -7.6e-5 0.12484-0.06241 0.125-0.0625 1.58e-4 -8.8e-5 0.12485-0.09365 0.125-0.09375s0.12486-0.09364 0.125-0.09375c1.43e-4 -1.11e-4 0.12487-0.09363 0.125-0.09375 1.34e-4 -1.22e-4 0.09363-0.09362 0.09375-0.09375 1.24e-4 -1.32e-4 0.09364-0.12486 0.09375-0.125 1.14e-4 -1.41e-4 0.09365-0.12485 0.09375-0.125 1.03e-4 -1.49e-4 0.09366-0.12484 0.09375-0.125 9.2e-5 -1.56e-4 0.06242-0.12484 0.0625-0.125 7.9e-5 -1.63e-4 0.06243-0.12483 0.0625-0.125 6.7e-5 -1.68e-4 0.06245-0.15608 0.0625-0.15625 5.4e-5 -1.73e-4 0.03121-0.15607 0.03125-0.15625 4.1e-5 -1.76e-4 0.03122-0.12482 0.03125-0.125 2.7e-5 -1.79e-4 -1.4e-5 -0.15607 0-0.15625s0.03125-0.15607 0.03125-0.15625-0.03124-0.15607-0.03125-0.15625c-1.4e-5 -1.8e-4 2.7e-5 -0.15607 0-0.15625s-0.03121-0.12482-0.03125-0.125c-4.1e-5 -1.76e-4 -0.0312-0.15608-0.03125-0.15625-5.4e-5 -1.73e-4 -0.06243-0.15608-0.0625-0.15625-6.7e-5 -1.68e-4 -0.06242-0.12484-0.0625-0.125-7.9e-5 -1.63e-4 -0.06241-0.12484-0.0625-0.125-9.2e-5 -1.56e-4 -0.09365-0.12485-0.09375-0.125-1.03e-4 -1.49e-4 -0.09364-0.12486-0.09375-0.125-1.14e-4 -1.41e-4 -0.09363-0.12487-0.09375-0.125-1.24e-4 -1.32e-4 -0.09362-0.09363-0.09375-0.09375-1.34e-4 -1.22e-4 -0.12486-0.09364-0.125-0.09375-1.43e-4 -1.11e-4 -0.12485-0.09365-0.125-0.09375s-0.12484-0.09366-0.125-0.09375c-1.58e-4 -8.8e-5 -0.12484-0.06242-0.125-0.0625-1.64e-4 -7.6e-5 -0.15608-0.06244-0.15625-0.0625a0.99426 0.99426 0 0 0-0.03125 0l-9.2188-3.0625c-0.35257-1.5592-0.86404-3.0771-1.5312-4.5l3.6562-4.1562a0.99426 0.99426 0 0 0 0.03125-0.03125c1.15e-4 -1.4e-4 0.0624-0.12485 0.0625-0.125 1.04e-4 -1.48e-4 0.09366-0.12484 0.09375-0.125 9.3e-5 -1.56e-4 0.06242-0.12484 0.0625-0.125 8.1e-5 -1.62e-4 0.06243-0.12483 0.0625-0.125 6.8e-5 -1.68e-4 0.06244-0.15608 0.0625-0.15625 5.5e-5 -1.73e-4 0.03121-0.15607 0.03125-0.15625 4.2e-5 -1.76e-4 0.03122-0.12482 0.03125-0.125 2.9e-5 -1.79e-4 0.03123-0.15607 0.03125-0.15625 1.5e-5 -1.81e-4 -1e-6 -0.15607 0-0.15625s1.2e-5 -0.15607 0-0.15625-0.03122-0.15607-0.03125-0.15625c-2.6e-5 -1.79e-4 4e-5 -0.12482 0-0.125s-0.06245-0.15608-0.0625-0.15625c-5.3e-5 -1.73e-4 -0.03118-0.15608-0.03125-0.15625-6.6e-5 -1.69e-4 -0.06242-0.12484-0.0625-0.125-7.8e-5 -1.63e-4 -0.06241-0.12484-0.0625-0.125-9.1e-5 -1.57e-4 -0.09365-0.12485-0.09375-0.125-1.02e-4 -1.5e-4 -0.09364-0.12486-0.09375-0.125-1.13e-4 -1.41e-4 -0.09363-0.12487-0.09375-0.125-1.24e-4 -1.33e-4 -0.09362-0.09363-0.09375-0.09375-1.33e-4 -1.23e-4 -0.12486-0.12489-0.125-0.125s-0.12485-0.0624-0.125-0.0625c-1.5e-4 -1.01e-4 -0.12484-0.09366-0.125-0.09375s-0.12484-0.06242-0.125-0.0625c-1.64e-4 -7.7e-5 -0.15608-0.06244-0.15625-0.0625-1.69e-4 -6.5e-5 -0.15608-0.06245-0.15625-0.0625-1.74e-4 -5.2e-5 -0.12482-0.03121-0.125-0.03125-1.77e-4 -3.8e-5 -0.15607-0.03122-0.15625-0.03125-1.8e-4 -2.5e-5 -0.15607 1.1e-5 -0.15625 0s-0.15607-3e-6 -0.15625 0-0.12482-1.6e-5 -0.125 0-0.15607 0.03122-0.15625 0.03125a0.99426 0.99426 0 0 0-0.03125 0l-6.125 1.25c-0.50131-0.503-1.0389-0.97899-1.5938-1.4375l1.0312-5.0938a0.99426 0.99426 0 0 0 0-0.03125c3e-5 -1.79e-4 0.03123-0.15607 0.03125-0.15625 1.6e-5 -1.8e-4 -3e-6 -0.12482 0-0.125s1.1e-5 -0.15607 0-0.15625 2.5e-5 -0.15607 0-0.15625-0.03121-0.15607-0.03125-0.15625c-3.8e-5 -1.77e-4 -0.0312-0.12483-0.03125-0.125-5.2e-5 -1.74e-4 -0.06244-0.15608-0.0625-0.15625-6.5e-5 -1.69e-4 -0.06242-0.15609-0.0625-0.15625-7.7e-5 -1.64e-4 -0.06241-0.12484-0.0625-0.125s-0.09365-0.12485-0.09375-0.125c-1.01e-4 -1.5e-4 -0.06239-0.12486-0.0625-0.125-1.12e-4 -1.42e-4 -0.12488-0.12487-0.125-0.125s-0.09362-0.09363-0.09375-0.09375c-1.33e-4 -1.24e-4 -0.12486-0.09364-0.125-0.09375-1.41e-4 -1.13e-4 -0.12485-0.09365-0.125-0.09375-1.5e-4 -1.02e-4 -0.12484-0.09366-0.125-0.09375-1.57e-4 -9.1e-5 -0.12484-0.06242-0.125-0.0625-1.63e-4 -7.8e-5 -0.12483-0.06243-0.125-0.0625-1.69e-4 -6.6e-5 -0.15608-0.0312-0.15625-0.03125-1.73e-4 -5.3e-5 -0.15607-0.06246-0.15625-0.0625s-0.12482 2.6e-5 -0.125 0-0.15607-0.03124-0.15625-0.03125c-1.81e-4 -1.2e-5 -0.15607-1e-6 -0.15625 0s-0.15607-1.5e-5 -0.15625 0-0.15607 0.03122-0.15625 0.03125c-1.79e-4 2.9e-5 -0.12482 0.03121-0.125 0.03125-1.76e-4 4.2e-5 -0.15608 0.0312-0.15625 0.03125-1.73e-4 5.5e-5 -0.15608 0.06243-0.15625 0.0625-1.68e-4 6.8e-5 -0.12484 0.06242-0.125 0.0625-1.62e-4 8.1e-5 -0.12484 0.06241-0.125 0.0625-1.56e-4 9.3e-5 -0.12485 0.09365-0.125 0.09375-1.48e-4 1.04e-4 -0.12486 0.06238-0.125 0.0625a0.99426 0.99426 0 0 0-0.03125 0.03125l-3.9062 3.4688c-0.87943-0.34147-1.7734-0.64505-2.7188-0.875l-3.125-9.3125c-6.4e-5 -2e-4 -0.06242-0.15606-0.0625-0.15625-8.1e-5 -1.93e-4 -0.0624-0.15606-0.0625-0.15625-9.7e-5 -1.85e-4 -0.09364-0.15607-0.09375-0.15625-1.13e-4 -1.76e-4 -0.09362-0.12483-0.09375-0.125-1.28e-4 -1.66e-4 -0.12486-0.1561-0.125-0.15625s-0.12484-0.12486-0.125-0.125-0.12483-0.09362-0.125-0.09375c-1.67e-4 -1.27e-4 -0.15607-0.09364-0.15625-0.09375-1.77e-4 -1.11e-4 -0.12481-0.09365-0.125-0.09375-1.86e-4 -9.6e-5 -0.15606-0.06242-0.15625-0.0625-1.94e-4 -7.9e-5 -0.1873-0.06244-0.1875-0.0625-2e-4 -6.2e-5 -0.15604-0.06246-0.15625-0.0625-2.05e-4 -4.4e-5 -0.18729-0.03122-0.1875-0.03125-2.08e-4 -2.6e-5 -0.15604 7e-6 -0.15625 0s-0.18729-1.1e-5 -0.1875 0-0.15604-2.9e-5 -0.15625 0z" color="#000000" opacity=".1"/>
  <path id="path4731" d="m47.938 18a1.0013 1.0013 0 0 0-0.78125 0.6875l-3.25 9.75c-1.8968 0.38678-3.7058 1.0472-5.375 1.9062l-4.75-4.2188a1.0013 1.0013 0 0 0-1.625 0.9375l1.4062 6.875c-0.76634 0.73708-1.4741 1.5252-2.125 2.375l-5.75-1.1562a1.0013 1.0013 0 0 0-0.9375 1.625l3.9375 4.4062c-0.47106 1.1698-0.86937 2.3951-1.125 3.6562l-9.875 3.3125a1.0013 1.0013 0 0 0 0 1.875l9.9062 3.2812c0.37873 1.8218 0.99059 3.5637 1.8125 5.1875l-4.25 4.8125a1.0013 1.0013 0 0 0 0.9375 1.625l6.9062-1.4062c0.71186 0.73534 1.4746 1.4097 2.2812 2.0312l-1.1562 5.75a1.0013 1.0013 0 0 0 1.625 0.9375l4.4062-3.875c1.1851 0.4901 2.4292 0.88875 3.7188 1.1562l3.2812 9.7812a1.0013 1.0013 0 0 0 1.875 0l3.25-9.75c1.8855-0.38826 3.6864-1.0538 5.3438-1.9062l4.625 4.0938a1.0013 1.0013 0 0 0 1.625-0.9375l-1.3438-6.6562c0.74318-0.70654 1.4556-1.4679 2.0938-2.2812l5.5938 1.125a1.0013 1.0013 0 0 0 0.9375-1.625l-3.7812-4.25c0.52193-1.2332 0.939-2.5032 1.2188-3.8438l9.7188-3.25a1.0013 1.0013 0 0 0 0-1.875l-9.6562-3.2188c-0.38323-1.9448-1.0245-3.8153-1.9062-5.5312l4.0312-4.5625a1.0013 1.0013 0 0 0-0.9375-1.625l-6.625 1.3438c-0.74165-0.77349-1.5267-1.5061-2.375-2.1562l1.1562-5.625a1.0013 1.0013 0 0 0-1.625-0.9375l-4.3125 3.8125c-1.192-0.49828-2.4465-0.9135-3.75-1.1875l-3.2812-9.7812a1.0013 1.0013 0 0 0-1.0938-0.6875z" color="#000000" opacity=".15"/>
  <path id="path4430" d="m48.094 19-3.4375 10.281c-2.2616 0.39053-4.3791 1.1679-6.3125 2.25l-5.2188-4.6562 1.5 7.375c-1.0414 0.95169-1.9911 2.0051-2.8125 3.1562l-6.3125-1.2812 4.2812 4.8125c-0.65134 1.4757-1.1271 3.0503-1.4062 4.6875l-10.375 3.4688 10.438 3.4688c0.39394 2.1829 1.1155 4.2501 2.1562 6.125l-4.6875 5.2812 7.4062-1.5c0.92016 1.009 1.9548 1.9151 3.0625 2.7188l-1.2812 6.3125 4.8125-4.25c1.5004 0.67489 3.0804 1.1805 4.75 1.4688l3.4375 10.281 3.4375-10.281c2.2457-0.38994 4.3592-1.1777 6.2812-2.25l5.0938 4.5312-1.4375-7.1562c1.0215-0.92224 1.9677-1.9491 2.7812-3.0625l6.1562 1.25-4.1562-4.6562c0.70794-1.5306 1.2284-3.1647 1.5312-4.875l10.219-3.4062-10.188-3.4062c-0.38486-2.2991-1.1518-4.4753-2.25-6.4375l4.4688-5.0625-7.0938 1.4375c-0.95642-1.0615-2.0255-2.0069-3.1875-2.8438l1.2812-6.1875-4.7188 4.1875c-1.5059-0.68118-3.1042-1.2088-4.7812-1.5l-3.4375-10.281z" color="#000000" opacity=".3"/>
  <g id="g3898" transform="matrix(.93557 .54015 -.54015 .93557 29.082 -22.789)">
   <path id="path3900" d="m51.846 33.096a3.9189 1.1036 0 1 1-7.8377 0 3.9189 1.1036 0 1 1 7.8377 0z" color="#000000" opacity=".3"/>
   <path id="path3902" d="m45 33 3-9 3 9s-3.1343 1.7015-6 0z" fill="url(#linearGradient4294)"/>
   <path id="path3904" d="m48 24-2.3172 9.3625c0.50038 0.17642 1.1541 0.36706 2.0086 0.40155l0.30858-9.7641z" fill="#fff" opacity=".15"/>
   <path id="path3906" d="m48 24-1.75 9.5312c0.29647 0.08579 0.58693 0.153 0.875 0.1875l0.875-9.7188z" fill="#fff" opacity=".3"/>
  </g>
  <g id="g3908" transform="matrix(-.54015 .93557 .93557 .54015 28.974 -22.76)">
   <path id="path3910" d="m51.846 33.096a3.9189 1.1036 0 1 1-7.8377 0 3.9189 1.1036 0 1 1 7.8377 0z" color="#000000" opacity=".3"/>
   <path id="path3912" d="m45 33 3-9 3 9s-3.1343 1.7015-6 0z" fill="url(#linearGradient4294)"/>
   <path id="path3914" d="m48 24-2.3172 9.3625c0.50038 0.17642 1.1541 0.36706 2.0086 0.40155l0.30858-9.7641z" fill="#fff" opacity=".15"/>
   <path id="path3916" d="m48 24-1.75 9.5312c0.29647 0.08579 0.58693 0.153 0.875 0.1875l0.875-9.7188z" fill="#fff" opacity=".3"/>
  </g>
  <g id="g3918" transform="matrix(.93557 .54015 -.54015 .93557 29.082 -22.789)">
   <path id="path3920" transform="matrix(1 0 0 -1 -1.5869e-7 96)" d="m51.846 33.096a3.9189 1.1036 0 1 1-7.8377 0 3.9189 1.1036 0 1 1 7.8377 0z" color="#000000" opacity=".3"/>
   <path id="path3922" d="m45 63 3 9 3-9s-3.1343-1.7015-6 0z" fill="url(#linearGradient4298)"/>
   <path id="path3924" d="m48 72-2.3172-9.3625c0.50038-0.17642 1.1541-0.36706 2.0086-0.40155l0.30858 9.7641z" fill="#fff" opacity=".15"/>
   <path id="path3926" d="m48 72-1.75-9.5312c0.29647-0.08579 0.58693-0.153 0.875-0.1875l0.875 9.7188z" fill="#fff" opacity=".3"/>
   <path id="path3928" d="m45 63 3 9 3-9s-3.1343-1.7015-6 0z" opacity=".3"/>
  </g>
  <g id="g3930" transform="matrix(.93557 .54015 -.54015 .93557 29.082 -22.789)">
   <path id="path3932" transform="matrix(0 1 -1 0 95.927 .072888)" d="m51.846 33.096a3.9189 1.1036 0 1 1-7.8377 0 3.9189 1.1036 0 1 1 7.8377 0z" color="#000000" opacity=".3"/>
   <path id="path3934" d="m62.927 45.073 9 3-9 3s-1.7015-3.1343 0-6z" fill="url(#linearGradient4300)"/>
   <path id="path3936" d="m71.927 48.073-9.3625-2.3172c-0.17642 0.50038-0.36706 1.1541-0.40155 2.0086l9.7641 0.30858z" fill="#fff" opacity=".15"/>
   <path id="path3938" d="m71.927 48.073-9.5312-1.75c-0.08579 0.29647-0.153 0.58693-0.1875 0.875l9.7188 0.875z" fill="#fff" opacity=".3"/>
   <path id="path3940" d="m62.927 45.073 9 3-9 3s-1.7015-3.1343 0-6z" opacity=".5"/>
  </g>
  <path id="path3782" transform="matrix(2.5 0 0 2.5 -51.909 -52)" d="m48 40a8 8 0 1 1-16 0 8 8 0 1 1 16 0z" color="#000000" fill="url(#radialGradient4302)"/>
  <g id="g3826" transform="matrix(1.25 0 0 1.25 -11.909 -12)">
   <path id="path3824" d="m51.846 33.096a3.9189 1.1036 0 1 1-7.8377 0 3.9189 1.1036 0 1 1 7.8377 0z" color="#000000" opacity=".3"/>
   <path id="path3800" d="m45 33 3-9 3 9s-3.1343 1.7015-6 0z" fill="url(#linearGradient4294)"/>
   <path id="path3822" d="m48 24-2.3172 9.3625c0.50038 0.17642 1.1541 0.36706 2.0086 0.40155l0.30858-9.7641z" fill="#fff" opacity=".15"/>
   <path id="path3812" d="m48 24-1.75 9.5312c0.29647 0.08579 0.58693 0.153 0.875 0.1875l0.875-9.7188z" fill="#fff" opacity=".3"/>
  </g>
  <g id="g3844" transform="matrix(0 1.25 1.25 0 -12 -11.909)">
   <path id="path3846" d="m51.846 33.096a3.9189 1.1036 0 1 1-7.8377 0 3.9189 1.1036 0 1 1 7.8377 0z" color="#000000" opacity=".3"/>
   <path id="path3848" d="m45 33 3-9 3 9s-3.1343 1.7015-6 0z" fill="url(#linearGradient4294)"/>
   <path id="path3850" d="m48 24-2.3172 9.3625c0.50038 0.17642 1.1541 0.36706 2.0086 0.40155l0.30858-9.7641z" fill="#fff" opacity=".15"/>
   <path id="path3852" d="m48 24-1.75 9.5312c0.29647 0.08579 0.58693 0.153 0.875 0.1875l0.875-9.7188z" fill="#fff" opacity=".3"/>
  </g>
  <g id="g3891" transform="matrix(1.25 0 0 1.25 -11.909 -12)">
   <path id="path3834" transform="matrix(1 0 0 -1 -1.5869e-7 96)" d="m51.846 33.096a3.9189 1.1036 0 1 1-7.8377 0 3.9189 1.1036 0 1 1 7.8377 0z" color="#000000" opacity=".3"/>
   <path id="path3836" d="m45 63 3 9 3-9s-3.1343-1.7015-6 0z" fill="url(#linearGradient4308)"/>
   <path id="path3838" d="m48 72-2.3172-9.3625c0.50038-0.17642 1.1541-0.36706 2.0086-0.40155l0.30858 9.7641z" fill="#fff" opacity=".15"/>
   <path id="path3840" d="m48 72-1.75-9.5312c0.29647-0.08579 0.58693-0.153 0.875-0.1875l0.875 9.7188z" fill="#fff" opacity=".3"/>
   <path id="path3880" d="m45 63 3 9 3-9s-3.1343-1.7015-6 0z" opacity=".3"/>
  </g>
  <g id="g3884" transform="matrix(1.25 0 0 1.25 -11.909 -12)">
   <path id="path3858" transform="matrix(0 1 -1 0 95.927 .072888)" d="m51.846 33.096a3.9189 1.1036 0 1 1-7.8377 0 3.9189 1.1036 0 1 1 7.8377 0z" color="#000000" opacity=".3"/>
   <path id="path3860" d="m62.927 45.073 9 3-9 3s-1.7015-3.1343 0-6z" fill="url(#linearGradient4300)"/>
   <path id="path3862" d="m71.927 48.073-9.3625-2.3172c-0.17642 0.50038-0.36706 1.1541-0.40155 2.0086l9.7641 0.30858z" fill="#fff" opacity=".15"/>
   <path id="path3864" d="m71.927 48.073-9.5312-1.75c-0.08579 0.29647-0.153 0.58693-0.1875 0.875l9.7188 0.875z" fill="#fff" opacity=".3"/>
   <path id="path3882" d="m62.927 45.073 9 3-9 3s-1.7015-3.1343 0-6z" opacity=".5"/>
  </g>
  <g id="g3950" transform="matrix(1.0755 -.62095 .62095 1.0755 -33.418 29.883)">
   <path id="path3952" d="m51.846 33.096a3.9189 1.1036 0 1 1-7.8377 0 3.9189 1.1036 0 1 1 7.8377 0z" color="#000000" opacity=".3"/>
   <path id="path3954" d="m45 33 3-9 3 9s-3.1343 1.7015-6 0z" fill="url(#linearGradient4294)"/>
   <path id="path3956" d="m48 24-2.3172 9.3625c0.50038 0.17642 1.1541 0.36706 2.0086 0.40155l0.30858-9.7641z" fill="#fff" opacity=".15"/>
   <path id="path3958" d="m48 24-1.75 9.5312c0.29647 0.08579 0.58693 0.153 0.875 0.1875l0.875-9.7188z" fill="#fff" opacity=".3"/>
  </g>
  <g id="g3960" transform="matrix(.62095 1.0755 1.0755 -.62095 -29.702 26.257)">
   <path id="path3962" d="m51.846 33.096a3.9189 1.1036 0 1 1-7.8377 0 3.9189 1.1036 0 1 1 7.8377 0z" color="#000000" opacity=".3"/>
   <path id="path3964" d="m45 33 3-9 3 9s-3.1343 1.7015-6 0z" fill="url(#linearGradient4294)"/>
   <path id="path3966" d="m48 24-2.3172 9.3625c0.50038 0.17642 1.1541 0.36706 2.0086 0.40155l0.30858-9.7641z" fill="#fff" opacity=".15"/>
   <path id="path3968" d="m48 24-1.75 9.5312c0.29647 0.08579 0.58693 0.153 0.875 0.1875l0.875-9.7188z" fill="#fff" opacity=".3"/>
  </g>
  <g id="g3970" transform="matrix(1.0755 -.62095 .62095 1.0755 -33.418 22.383)">
   <path id="path3972" transform="matrix(1 0 0 -1 -1.5869e-7 96)" d="m51.846 33.096a3.9189 1.1036 0 1 1-7.8377 0 3.9189 1.1036 0 1 1 7.8377 0z" color="#000000" opacity=".3"/>
   <path id="path3974" d="m45 63 3 9 3-9s-3.1343-1.7015-6 0z" fill="url(#linearGradient4298)"/>
   <path id="path3976" d="m48 72-2.3172-9.3625c0.50038-0.17642 1.1541-0.36706 2.0086-0.40155l0.30858 9.7641z" fill="#fff" opacity=".15"/>
   <path id="path3978" d="m48 72-1.75-9.5312c0.29647-0.08579 0.58693-0.153 0.875-0.1875l0.875 9.7188z" fill="#fff" opacity=".3"/>
   <path id="path3980" d="m45 63 3 9 3-9s-3.1343-1.7015-6 0z" opacity=".5"/>
  </g>
  <g id="g3982" transform="matrix(1.0755 -.62095 .62095 1.0755 -37.168 26.133)">
   <path id="path3984" transform="matrix(0 1 -1 0 95.927 .072888)" d="m51.846 33.096a3.9189 1.1036 0 1 1-7.8377 0 3.9189 1.1036 0 1 1 7.8377 0z" color="#000000" opacity=".3"/>
   <path id="path3986" d="m62.927 45.073 9 3-9 3s-1.7015-3.1343 0-6z" fill="url(#linearGradient4300)"/>
   <path id="path3988" d="m71.927 48.073-9.3625-2.3172c-0.17642 0.50038-0.36706 1.1541-0.40155 2.0086l9.7641 0.30858z" fill="#fff" opacity=".15"/>
   <path id="path3990" d="m71.927 48.073-9.5312-1.75c-0.08579 0.29647-0.153 0.58693-0.1875 0.875l9.7188 0.875z" fill="#fff" opacity=".3"/>
   <path id="path3992" d="m62.927 45.073 9 3-9 3s-1.7015-3.1343 0-6z" opacity=".3"/>
  </g>
  <path id="path4136" transform="matrix(1.4978 0 0 1.4978 -23.801 -23.892)" d="m51 48a3 3 0 1 1-6 0 3 3 0 1 1 6 0z" color="#000000" opacity=".5"/>
  <path id="path4015" transform="matrix(1.25 0 0 1.25 -11.909 -12)" d="m51 48a3 3 0 1 1-6 0 3 3 0 1 1 6 0z" color="#000000" fill="url(#radialGradient4320)"/>
  <g id="g4039" transform="matrix(1.25 0 0 1.25 -11.909 -12)">
   <path id="path4037" d="m42.553 47.953a3.3662 3.652 0 1 1-6.7323 0 3.3662 3.652 0 1 1 6.7323 0z" color="#000000" opacity=".5"/>
   <path id="path4004" d="m34.936 48.073s2.2529-3.0729 4.0637-3.0729c4 0 4 6 0 6-1.6216-0.04504-4.0637-2.9271-4.0637-2.9271z" fill="url(#radialGradient4322)"/>
   <path id="path4032" d="m40.344 45.281-5.3438 2.7188 6.9688-0.1875c-0.0586-1.0466-0.58934-2.0583-1.625-2.5312z" fill="#fff" opacity=".15"/>
   <path id="path4027" d="m40.875 45.625-5.8125 2.4375 6.6875-1.25c-0.18198-0.45879-0.47405-0.87337-0.875-1.1875z" fill="#fff" opacity=".3"/>
  </g>
  <g id="g4045" transform="matrix(0 1.25 1.25 0 -11.85 -12.059)">
   <path id="path4047" d="m42.553 47.953a3.3662 3.652 0 1 1-6.7323 0 3.3662 3.652 0 1 1 6.7323 0z" color="#000000" opacity=".5"/>
   <path id="path4049" d="m34.936 48.073s2.2529-3.0729 4.0637-3.0729c4 0 4 6 0 6-1.6216-0.04504-4.0637-2.9271-4.0637-2.9271z" fill="url(#radialGradient4322)"/>
   <path id="path4051" d="m40.344 45.281-5.3438 2.7188 6.9688-0.1875c-0.0586-1.0466-0.58934-2.0583-1.625-2.5312z" fill="#fff" opacity=".15"/>
   <path id="path4053" d="m40.875 45.625-5.8125 2.4375 6.6875-1.25c-0.18198-0.45879-0.47405-0.87337-0.875-1.1875z" fill="#fff" opacity=".3"/>
  </g>
  <path id="path4071" transform="matrix(-1.25 0 0 1.25 108.09 -12)" d="m42.553 47.953a3.3662 3.652 0 1 1-6.7323 0 3.3662 3.652 0 1 1 6.7323 0z" color="#000000" opacity=".5"/>
  <path id="path4073" d="m64.421 48.091s-2.8162-3.8411-5.0796-3.8411c-5 0-5 7.5 0 7.5 2.027-0.0563 5.0796-3.6589 5.0796-3.6589z" fill="url(#radialGradient4346)"/>
  <path id="path4075" d="m57.661 44.602 6.6797 3.3984-8.7109-0.23438c0.07325-1.3082 0.73667-2.5729 2.0312-3.1641z" fill="#fff" opacity=".15"/>
  <path id="path4077" d="m56.997 45.031 7.2656 3.0469-8.3594-1.5625c0.22748-0.57349 0.59256-1.0917 1.0938-1.4844z" fill="#fff" opacity=".3"/>
  <path id="path4087" d="m64.421 48.091s-2.8162-3.8411-5.0796-3.8411c-5 0-5 7.5 0 7.5 2.027-0.0563 5.0796-3.6589 5.0796-3.6589z" opacity=".4"/>
  <path id="path4110" transform="matrix(0 -1.25 1.25 0 -11.85 107.94)" d="m42.553 47.953a3.3662 3.652 0 1 1-6.7323 0 3.3662 3.652 0 1 1 6.7323 0z" color="#000000" opacity=".5"/>
  <path id="path4112" d="m48.241 64.271s-3.8411-2.8162-3.8411-5.0796c0-5 7.5-5 7.5 0-0.0563 2.027-3.6589 5.0796-3.6589 5.0796z" fill="url(#radialGradient4339)"/>
  <path id="path4114" d="m44.752 57.511 3.3984 6.6797-0.23438-8.7109c-1.3082 0.07325-2.5729 0.73667-3.1641 2.0312z" fill="#fff" opacity=".15"/>
  <path id="path4116" d="m45.181 56.847 3.0469 7.2656-1.5625-8.3594c-0.57349 0.22748-1.0917 0.59256-1.4844 1.0938z" fill="#fff" opacity=".3"/>
  <path id="path4126" d="m48.241 64.271s-3.8411-2.8162-3.8411-5.0796c0-5 7.5-5 7.5 0-0.0563 2.027-3.6589 5.0796-3.6589 5.0796z" opacity=".2"/>
  <path id="path4140" d="m46.294 44.719c-0.61061 0.3354-1.1018 0.83983-1.4453 1.4453l3.2031 1.7578-1.7578-3.2031z" fill="#fff" opacity=".3"/>
  <path id="path4142" d="m47.154 44.406c-1.2588 0.33282-2.2443 1.297-2.6172 2.5391l3.6719 0.9375-1.0547-3.4766z" fill="#fff" opacity=".15"/>
  <path id="path4150" transform="matrix(.88388 .88388 -.88388 .88388 48.091 -36.853)" d="m51 48a3 3 0 1 1-6 0 3 3 0 1 1 6 0z" color="#000000" fill="url(#linearGradient4330)" opacity=".5"/>
 </g>
</svg>
