<?xml version="1.0" encoding="UTF-8"?>
<!-- Created with Inkscape (http://www.inkscape.org/) -->
<svg id="svg2408" width="96" height="96" version="1.0" xmlns="http://www.w3.org/2000/svg" xmlns:cc="http://creativecommons.org/ns#" xmlns:dc="http://purl.org/dc/elements/1.1/" xmlns:rdf="http://www.w3.org/1999/02/22-rdf-syntax-ns#" xmlns:xlink="http://www.w3.org/1999/xlink">
 <defs id="defs2410">
  <linearGradient id="linearGradient3670">
   <stop id="stop3672" stop-color="#f0f0f0" offset="0"/>
   <stop id="stop3674" stop-color="#dcdcdc" offset="1"/>
  </linearGradient>
  <linearGradient id="ButtonShadow" x1="45.448" x2="45.448" y1="92.54" y2="7.0165" gradientTransform="scale(1.0059 .99417)" gradientUnits="userSpaceOnUse">
   <stop id="stop3750" offset="0"/>
   <stop id="stop3752" stop-opacity=".58824" offset="1"/>
  </linearGradient>
  <linearGradient id="linearGradient3737">
   <stop id="stop3739" stop-color="#fff" offset="0"/>
   <stop id="stop3741" stop-color="#fff" stop-opacity="0" offset="1"/>
  </linearGradient>
  <filter id="filter3174">
   <feGaussianBlur id="feGaussianBlur3176" stdDeviation="1.71"/>
  </filter>
  <linearGradient id="linearGradient3188" x1="36.357" x2="36.357" y1="6" y2="63.893" gradientUnits="userSpaceOnUse" xlink:href="#linearGradient3737"/>
  <filter id="filter3794" x="-.192" y="-.192" width="1.384" height="1.384">
   <feGaussianBlur id="feGaussianBlur3796" stdDeviation="5.28"/>
  </filter>
  <linearGradient id="linearGradient3613" x1="48" x2="48" y1="20.221" y2="138.66" gradientUnits="userSpaceOnUse" xlink:href="#linearGradient3737"/>
  <radialGradient id="radialGradient3619" cx="48" cy="90.172" r="42" gradientTransform="matrix(1.1573 0 0 .99591 -7.551 .19713)" gradientUnits="userSpaceOnUse" xlink:href="#linearGradient3737"/>
  <clipPath id="clipPath3613">
   <rect id="rect3615" x="6" y="6" width="84" height="84" rx="6" ry="6" fill="#fff"/>
  </clipPath>
  <linearGradient id="linearGradient3617" x1="48" x2="48" y1="90" y2="5.9877" gradientTransform="translate(-100)" gradientUnits="userSpaceOnUse">
   <stop id="stop3702" stop-color="#2276c5" offset="0"/>
   <stop id="stop3704" stop-color="#68baf4" offset="1"/>
  </linearGradient>
  <linearGradient id="ButtonShadow-0" x1="45.448" x2="45.448" y1="92.54" y2="7.0165" gradientTransform="matrix(1.0059 0 0 .99417 100 0)" gradientUnits="userSpaceOnUse">
   <stop id="stop3750-8" offset="0"/>
   <stop id="stop3752-5" stop-opacity=".58824" offset="1"/>
  </linearGradient>
  <linearGradient id="linearGradient3780" x1="32.251" x2="32.251" y1="6.1317" y2="90.239" gradientTransform="matrix(1.0238 0 0 1.0119 -1.1429 -98.071)" gradientUnits="userSpaceOnUse" xlink:href="#ButtonShadow-0"/>
  <linearGradient id="linearGradient3721" x1="32.251" x2="32.251" y1="6.1317" y2="90.239" gradientTransform="translate(0,-97)" gradientUnits="userSpaceOnUse" xlink:href="#ButtonShadow-0"/>
  <linearGradient id="linearGradient3701" x1="64" x2="64" y1="8" y2="88" gradientUnits="userSpaceOnUse" xlink:href="#linearGradient3670"/>
  <linearGradient id="linearGradient3840" x1="69.087" x2="69.087" y1="60.327" y2="36.596" gradientUnits="userSpaceOnUse">
   <stop id="stop3836" stop-color="#d40000" offset="0"/>
   <stop id="stop3838" stop-color="#d41400" offset="1"/>
  </linearGradient>
  <linearGradient id="linearGradient3856" x1="86.768" x2="42.428" y1="23.481" y2="19.931" gradientUnits="userSpaceOnUse">
   <stop id="stop3852" stop-color="#fff" offset="0"/>
   <stop id="stop3854" stop-color="#fff" stop-opacity="0" offset="1"/>
  </linearGradient>
 </defs>
 <metadata id="metadata2413">
  <rdf:RDF>
   <cc:Work rdf:about="">
    <dc:format>image/svg+xml</dc:format>
    <dc:type rdf:resource="http://purl.org/dc/dcmitype/StillImage"/>
    <dc:title/>
   </cc:Work>
  </rdf:RDF>
 </metadata>
 <g id="layer2" display="none">
  <rect id="rect3745" x="5" y="7" width="86" height="85" rx="6" ry="6" fill="url(#ButtonShadow)" filter="url(#filter3174)" opacity=".9"/>
 </g>
 <g id="layer3">
  <path id="path3786" transform="scale(1,-1)" d="m12-95.031c-5.5111 0-10.031 4.5202-10.031 10.031v71c0 5.5111 4.5202 10.031 10.031 10.031h72c5.5111 0 10.031-4.5202 10.031-10.031v-71c0-5.5111-4.5202-10.031-10.031-10.031h-72z" fill="url(#linearGradient3780)" opacity=".08"/>
  <path id="path3778" transform="scale(1,-1)" d="m12-94.031c-4.9716 0-9.0312 4.0596-9.0312 9.0312v71c0 4.9716 4.0596 9.0312 9.0312 9.0312h72c4.9716 0 9.0312-4.0596 9.0312-9.0312v-71c0-4.9716-4.0596-9.0312-9.0312-9.0312h-72z" fill="url(#linearGradient3780)" opacity=".1"/>
  <path id="path3770" transform="scale(1,-1)" d="m12-93c-4.4091 0-8 3.5909-8 8v71c0 4.4091 3.5909 8 8 8h72c4.4091 0 8-3.5909 8-8v-71c0-4.4091-3.5909-8-8-8h-72z" fill="url(#linearGradient3780)" opacity=".2"/>
  <rect id="rect3723" transform="scale(1,-1)" x="5" y="-92" width="86" height="85" rx="7" ry="7" fill="url(#linearGradient3780)" opacity=".3"/>
  <rect id="rect3716" transform="scale(1,-1)" x="6" y="-91" width="84" height="84" rx="6" ry="6" fill="url(#linearGradient3721)" opacity=".45"/>
 </g>
 <g id="layer1">
  <g id="g3777" transform="translate(-30)">
   <rect id="rect3785" x="36" y="6" width="54" height="84" rx="6" ry="6" color="#000000" fill="url(#linearGradient3701)"/>
  </g>
  <rect id="rect2419" x="-94" y="6" width="84" height="84" rx="6" ry="6" fill="url(#linearGradient3617)"/>
  <g id="g3690" transform="translate(-15)">
   <rect id="rect3692" x="33" y="6" width="20" height="84" rx="6" ry="6" color="#000000" opacity=".1"/>
   <rect id="rect3694" x="34" y="6" width="20" height="84" rx="6" ry="6" color="#000000" opacity=".15"/>
   <rect id="rect3696" x="35" y="6" width="20" height="84" rx="6" ry="6" color="#000000" opacity=".3"/>
   <rect id="rect3698" x="36" y="6" width="54" height="84" rx="6" ry="6" color="#000000" fill="url(#linearGradient3701)"/>
  </g>
  <rect id="rect3682" x="33" y="6" width="20" height="84" rx="6" ry="6" color="#000000" opacity=".1"/>
  <rect id="rect3680" x="34" y="6" width="20" height="84" rx="6" ry="6" color="#000000" opacity=".15"/>
  <rect id="rect3678" x="35" y="6" width="20" height="84" rx="6" ry="6" color="#000000" opacity=".3"/>
  <rect id="rect3666" x="36" y="6" width="54" height="84" rx="6" ry="6" color="#000000" fill="url(#linearGradient3701)"/>
  <path id="path3615" d="m12 90c-3.324 0-6-2.676-6-6v-2-68-2c0-0.33472 0.04135-0.6507 0.09375-0.96875 0.0487-0.2956 0.09704-0.59692 0.1875-0.875 0.00988-0.03038 0.020892-0.0636 0.03125-0.09375 0.098865-0.28777 0.23488-0.54745 0.375-0.8125 0.14459-0.27351 0.31562-0.53562 0.5-0.78125s0.37378-0.47347 0.59375-0.6875c0.43995-0.42806 0.94291-0.81453 1.5-1.0938 0.27854-0.13961 0.57347-0.24695 0.875-0.34375-0.2562 0.10022-0.48671 0.23627-0.71875 0.375-0.00741 0.0044-0.023866-0.0045-0.03125 0-0.031933 0.0193-0.062293 0.04251-0.09375 0.0625-0.1204 0.0767-0.23102 0.16351-0.34375 0.25-0.10617 0.0808-0.21328 0.16111-0.3125 0.25-0.17793 0.16143-0.34746 0.34539-0.5 0.53125-0.10758 0.13026-0.21839 0.26528-0.3125 0.40625-0.025089 0.03838-0.038446 0.08587-0.0625 0.125-0.064763 0.10303-0.13023 0.20452-0.1875 0.3125-0.10101 0.19471-0.20567 0.4157-0.28125 0.625-0.00796 0.02181-0.023589 0.04055-0.03125 0.0625-0.031825 0.09195-0.035804 0.18683-0.0625 0.28125-0.030332 0.10662-0.070389 0.20303-0.09375 0.3125-0.072879 0.34151-0.125 0.6982-0.125 1.0625v2 68 2c0 2.7818 2.2182 5 5 5h2 68 2c2.7818 0 5-2.2182 5-5v-2-68-2c0-0.3643-0.05212-0.72099-0.125-1.0625-0.04415-0.20689-0.08838-0.39766-0.15625-0.59375-0.0077-0.02195-0.0233-0.04069-0.03125-0.0625-0.06274-0.17374-0.13838-0.36745-0.21875-0.53125-0.04158-0.0828-0.07904-0.16995-0.125-0.25-0.0546-0.09721-0.12677-0.18835-0.1875-0.28125-0.09411-0.14096-0.20492-0.276-0.3125-0.40625-0.14317-0.17445-0.30314-0.347-0.46875-0.5-0.01117-0.0102-0.01998-0.02115-0.03125-0.03125-0.13839-0.12556-0.28509-0.23444-0.4375-0.34375-0.10257-0.07315-0.20432-0.15336-0.3125-0.21875-0.0074-0.0045-0.02384 0.0044-0.03125 0-0.23204-0.13873-0.46255-0.27478-0.71875-0.375 0.30153 0.0968 0.59646 0.20414 0.875 0.34375 0.55709 0.27922 1.0601 0.66569 1.5 1.0938 0.21997 0.21403 0.40937 0.44186 0.59375 0.6875s0.35541 0.50774 0.5 0.78125c0.14012 0.26505 0.27614 0.52473 0.375 0.8125 0.01041 0.03078 0.02133 0.06274 0.03125 0.09375 0.09046 0.27808 0.1388 0.5794 0.1875 0.875 0.0524 0.31805 0.09375 0.63403 0.09375 0.96875v2 68 2c0 3.324-2.676 6-6 6h-72z" fill="url(#radialGradient3619)" opacity=".2"/>
  <path id="path3805" d="m57 36c-3.3137 0-6 2.6863-6 6 0 0.20711 3e-3 0.40767 0.02344 0.60938 0.51764 8.8878 11.977 17.391 11.977 17.391s11.445-8.8577 11.977-17.391c0.020484-0.2017 0.023438-0.40227 0.023438-0.60938 0-3.3137-2.6863-6-6-6s-6 2.6863-6 6c0-3.3137-2.6863-6-6-6z" color="#000000" fill="url(#linearGradient3840)"/>
  <path id="path3812" d="m126 24c-4.4183 0-8 3.5817-8 8 0 0.27614 4e-3 0.54356 0.0312 0.8125 0.69024 11.85 15.969 23.188 15.969 23.188s15.26-11.81 15.969-23.188c0.02731-0.26894 0.03125-0.53636 0.03125-0.8125 0-4.4183-3.5817-8-8-8s-8 3.5817-8 8c0-4.4183-3.5817-8-8-8z" color="#000000" fill="#d40000"/>
  <g id="text3814" transform="matrix(1.0046 0 0 1.0099 -3.4933 -.68245)" fill="#d40000">
   <path id="path3819" d="m45.38 18.189v0.31055h-2.584v-0.31055l0.89062-0.1582 2.6777-7.4531h1.1133l2.7832 7.4531 0.99609 0.1582v0.31055h-3.3223v-0.31055l1.0547-0.1582-0.7793-2.2676h-3.0938l-0.79102 2.2676 1.0547 0.1582m1.2598-6.7676-1.3477 3.8145h2.7363l-1.3887-3.8145"/>
  </g>
  <path id="path3821" d="m42 20c-1.1046 0-2 0.89543-2 2 0 0.06904 1e-3 0.13589 0.0078 0.20312 0.17256 2.9626 3.9922 5.7969 3.9922 5.7969s3.8149-2.9526 3.9922-5.7969c0.006828-0.067234 0.007813-0.13409 0.007813-0.20312 0-1.1046-0.89543-2-2-2s-2 0.89543-2 2c0-1.1046-0.89543-2-2-2z" color="#000000" fill="#d40000"/>
  <path id="path3858" d="m51.031 41.625c-0.007471 0.12259-0.03125 0.25053-0.03125 0.375 0 0.20711 0.01081 0.4233 0.03125 0.625 0.51764 8.8878 11.969 17.375 11.969 17.375s11.437-8.842 11.969-17.375c0.020484-0.2017 0.03125-0.41789 0.03125-0.625 0-0.12447-0.023779-0.25241-0.03125-0.375-0.53172 8.533-11.969 17.375-11.969 17.375s-11.451-8.4872-11.969-17.375z" color="#000000" fill="#9d0000"/>
  <g id="g3823" transform="matrix(1.0046 0 0 -1.0099 34.507 96.682)" fill="#c40000">
   <path id="path3825" d="m45.38 18.189v0.31055h-2.584v-0.31055l0.89062-0.1582 2.6777-7.4531h1.1133l2.7832 7.4531 0.99609 0.1582v0.31055h-3.3223v-0.31055l1.0547-0.1582-0.7793-2.2676h-3.0938l-0.79102 2.2676 1.0547 0.1582m1.2598-6.7676-1.3477 3.8145h2.7363l-1.3887-3.8145" fill="#c40000"/>
  </g>
  <path id="path3827" d="m80 76c-1.1046 0-2-0.89543-2-2 0-0.06904 1e-3 -0.13589 0.0078-0.20312 0.17256-2.9626 3.9922-5.7969 3.9922-5.7969s3.8149 2.9526 3.9922 5.7969c0.006828 0.067234 0.007813 0.13409 0.007813 0.20312 0 1.1046-0.89543 2-2 2s-2-0.89543-2-2c0 1.1046-0.89543 2-2 2z" color="#000000" fill="#c40000"/>
  <path id="rect3728" d="m12 6c-3.324 0-6 2.676-6 6v2 68 2c0 0.33472 0.04135 0.6507 0.09375 0.96875 0.0487 0.2956 0.09704 0.59692 0.1875 0.875 0.00988 0.03038 0.020892 0.0636 0.03125 0.09375 0.098865 0.28777 0.23488 0.54745 0.375 0.8125 0.14459 0.27351 0.31562 0.53562 0.5 0.78125s0.37378 0.47347 0.59375 0.6875c0.43995 0.42806 0.94291 0.81453 1.5 1.0938 0.27854 0.13961 0.57347 0.24695 0.875 0.34375-0.2562-0.10022-0.48671-0.23627-0.71875-0.375-0.00741-0.0044-0.023866 0.0045-0.03125 0-0.031933-0.0193-0.062293-0.04251-0.09375-0.0625-0.1204-0.0767-0.23102-0.16351-0.34375-0.25-0.10617-0.0808-0.21328-0.16111-0.3125-0.25-0.17793-0.16143-0.34746-0.34539-0.5-0.53125-0.10758-0.13026-0.21839-0.26528-0.3125-0.40625-0.025089-0.03838-0.038446-0.08587-0.0625-0.125-0.064763-0.10303-0.13023-0.20452-0.1875-0.3125-0.10101-0.19471-0.20567-0.4157-0.28125-0.625-0.00796-0.02181-0.023589-0.04055-0.03125-0.0625-0.031825-0.09195-0.035804-0.18683-0.0625-0.28125-0.030332-0.10662-0.070389-0.20303-0.09375-0.3125-0.072879-0.34151-0.125-0.6982-0.125-1.0625v-2-68-2c0-2.7818 2.2182-5 5-5h2 68 2c2.7818 0 5 2.2182 5 5v2 68 2c0 0.3643-0.05212 0.72099-0.125 1.0625-0.04415 0.20689-0.08838 0.39766-0.15625 0.59375-0.0077 0.02195-0.0233 0.04069-0.03125 0.0625-0.06274 0.17374-0.13838 0.36745-0.21875 0.53125-0.04158 0.0828-0.07904 0.16995-0.125 0.25-0.0546 0.09721-0.12677 0.18835-0.1875 0.28125-0.09411 0.14096-0.20492 0.276-0.3125 0.40625-0.14317 0.17445-0.30314 0.347-0.46875 0.5-0.01117 0.0102-0.01998 0.02115-0.03125 0.03125-0.13839 0.12556-0.28509 0.23444-0.4375 0.34375-0.10257 0.07315-0.20432 0.15336-0.3125 0.21875-0.0074 0.0045-0.02384-0.0044-0.03125 0-0.23204 0.13873-0.46255 0.27478-0.71875 0.375 0.30153-0.0968 0.59646-0.20414 0.875-0.34375 0.55709-0.27922 1.0601-0.66569 1.5-1.0938 0.21997-0.21403 0.40937-0.44186 0.59375-0.6875s0.35541-0.50774 0.5-0.78125c0.14012-0.26505 0.27614-0.52473 0.375-0.8125 0.01041-0.03078 0.02133-0.06274 0.03125-0.09375 0.09046-0.27808 0.1388-0.5794 0.1875-0.875 0.0524-0.31805 0.09375-0.63403 0.09375-0.96875v-2-68-2c0-3.324-2.676-6-6-6h-72z" fill="url(#linearGradient3188)" opacity=".5"/>
  <g id="text3123" transform="scale(1.0102 .9899)" fill="#d50404">
   <path id="path3910" d="m11.605 12.138h-0.59549v-1.4143c0.37927-0.20203 0.76031-0.35622 1.1431-0.46257 0.38636-0.10633 0.76385-0.1595 1.1325-0.1595 0.82588 8e-6 1.4781 0.20028 1.9566 0.6008 0.47851 0.40054 0.71777 0.94463 0.71778 1.6323-6e-6 0.77627-0.54232 1.7049-1.627 2.786-0.08507 0.08153-0.14888 0.14356-0.19141 0.18609l-2.0045 2.0045h3.3124v-0.9783h0.62207v1.8503h-5.1201v-0.57954l2.4085-2.4032c0.53168-0.53168 0.91095-1.0191 1.1378-1.4621 0.22685-0.44661 0.34027-0.91449 0.34028-1.4036-5e-6 -0.53522-0.14002-0.95348-0.42003-1.2548-0.27648-0.30128-0.65929-0.45192-1.1484-0.45193-0.50688 7e-6 -0.89855 0.12584-1.175 0.3775-0.27648 0.25167-0.43953 0.62917-0.48915 1.1325" style=""/>
  </g>
  <path id="path3127" transform="matrix(1.2804 0 0 1.2804 -1.742 -4.3039)" d="m15.419 22.105c0 0.26522-1.3239 1.425-1.5114 1.6126-0.18754 0.18754-1.3474 1.5114-1.6126 1.5114s-1.425-1.3239-1.6126-1.5114c-0.18754-0.18754-1.5114-1.3474-1.5114-1.6126 0-0.26522 1.3239-1.425 1.5114-1.6126 0.18754-0.18754 1.3474-1.5114 1.6126-1.5114s1.425 1.3239 1.6126 1.5114c0.18754 0.18754 1.5114 1.3474 1.5114 1.6126z" color="#000000" fill="#d50404"/>
  <g id="text3897" transform="scale(1.0102 .9899)">
   <path id="path3913" d="m24.671 18.184v-0.56359h1.0102v-6.8056h-1.0102v-0.5689h3.0997v0.5689h-1.0102v3.004l3.4187-3.004h-0.86133v-0.5689h2.6372v0.5689h-0.89323l-3.4081 2.9934 3.8122 3.8122h0.90386v0.56359h-1.8449l-3.7643-3.7696v3.2061h1.0102v0.56359h-3.0997" style=""/>
  </g>
  <path id="path3901" d="m27.25 26c-0.9665 0-1.75-0.67157-1.75-1.5 0-0.05178 8.75e-4 -0.10192 0.0068-0.15234 0.15101-2.2219 3.4932-4.3477 3.4932-4.3477s3.3381 2.2144 3.4932 4.3477c6e-3 0.05043 0.0068 0.10057 0.0068 0.15234 0 0.82843-0.7835 1.5-1.75 1.5s-1.75-0.67157-1.75-1.5c0 0.82843-0.7835 1.5-1.75 1.5z" color="#000000"/>
  <path id="path3907" d="m29 24c0 3-2 4-2 4h4s-2-1-2-4z"/>
  <path id="rect3845" d="m12 6c-3.324 0-6 2.676-6 6v48.844c28.133-15.16 58.586-19.997 79.906-15.969 1.3496 0.25502 2.7433 0.039462 4.0938 0.09375v-32.969c0-3.324-2.676-6-6-6z" color="#000000" fill="url(#linearGradient3856)" opacity=".4"/>
 </g>
 <g id="layer5" display="none">
  <rect id="rect3171" x="15" y="15" width="66" height="66" rx="12" ry="12" clip-path="url(#clipPath3613)" fill="url(#linearGradient3613)" filter="url(#filter3794)" opacity=".1" stroke="#fff" stroke-linecap="round" stroke-width=".5"/>
 </g>
</svg>
