<?xml version="1.0" encoding="UTF-8"?>
<!-- Created with Inkscape (http://www.inkscape.org/) -->
<svg id="svg2408" width="96" height="96" version="1.0" xmlns="http://www.w3.org/2000/svg" xmlns:cc="http://creativecommons.org/ns#" xmlns:dc="http://purl.org/dc/elements/1.1/" xmlns:rdf="http://www.w3.org/1999/02/22-rdf-syntax-ns#" xmlns:xlink="http://www.w3.org/1999/xlink">
 <defs id="defs2410">
  <linearGradient id="ButtonShadow" x1="45.448" x2="45.448" y1="92.54" y2="7.0165" gradientTransform="scale(1.0059 .99417)" gradientUnits="userSpaceOnUse">
   <stop id="stop3750" offset="0"/>
   <stop id="stop3752" stop-opacity=".58824" offset="1"/>
  </linearGradient>
  <filter id="filter3174" color-interpolation-filters="sRGB">
   <feGaussianBlur id="feGaussianBlur3176" stdDeviation="1.71"/>
  </filter>
  <clipPath id="clipPath3613">
   <rect id="rect3615" x="6" y="6" width="84" height="84" rx="6" ry="6" fill="#fff"/>
  </clipPath>
  <linearGradient id="linearGradient2885" x1="48" x2="48" y1="20.221" y2="138.66" gradientUnits="userSpaceOnUse">
   <stop id="stop3739-73" stop-color="#fff" offset="0"/>
   <stop id="stop3741-6" stop-color="#fff" stop-opacity="0" offset="1"/>
  </linearGradient>
  <radialGradient id="radialGradient2977" cx="48" cy="41.752" r="42" gradientTransform="matrix(1.7146 6.6255e-8 -4.2857e-8 1.1091 -134.3 -5.0824)" gradientUnits="userSpaceOnUse" xlink:href="#linearGradient3737-5"/>
  <radialGradient id="radialGradient2855-1" cx="48" cy="90.172" r="42" gradientTransform="matrix(1.1573 0 0 .99591 -7.551 .19713)" gradientUnits="userSpaceOnUse">
   <stop id="stop3739-7-1" stop-color="#fff" offset="0"/>
   <stop id="stop3741-2-0" stop-color="#fff" stop-opacity="0" offset="1"/>
  </radialGradient>
  <linearGradient id="linearGradient3188-9" x1="36.357" x2="36.357" y1="6" y2="63.893" gradientUnits="userSpaceOnUse" xlink:href="#linearGradient3737-5"/>
  <linearGradient id="linearGradient3737-5">
   <stop id="stop3739-6" stop-color="#fff" offset="0"/>
   <stop id="stop3741-7" stop-color="#fff" stop-opacity="0" offset="1"/>
  </linearGradient>
  <filter id="filter3434" color-interpolation-filters="sRGB">
   <feGaussianBlur id="feGaussianBlur3436" stdDeviation="2.4779144"/>
  </filter>
  <filter id="filter4123" x="-.144" y="-.144" width="1.288" height="1.288" color-interpolation-filters="sRGB">
   <feGaussianBlur id="feGaussianBlur4125" stdDeviation="3.96"/>
  </filter>
  <linearGradient id="ButtonShadow-0" x1="45.448" x2="45.448" y1="92.54" y2="7.0165" gradientTransform="matrix(1.0059 0 0 .99417 100 0)" gradientUnits="userSpaceOnUse">
   <stop id="stop3750-8" offset="0"/>
   <stop id="stop3752-5" stop-opacity=".58824" offset="1"/>
  </linearGradient>
  <linearGradient id="linearGradient3780" x1="32.251" x2="32.251" y1="6.1317" y2="90.239" gradientTransform="matrix(1.0238 0 0 1.0119 -1.1429 -98.071)" gradientUnits="userSpaceOnUse" xlink:href="#ButtonShadow-0"/>
  <linearGradient id="linearGradient3721" x1="32.251" x2="32.251" y1="6.1317" y2="90.239" gradientTransform="translate(0,-97)" gradientUnits="userSpaceOnUse" xlink:href="#ButtonShadow-0"/>
  <radialGradient id="radialGradient4197" cx="63.98" cy="61.949" r="58.02" gradientTransform="matrix(1.09 0 0 .84087 -21.739 104.49)" gradientUnits="userSpaceOnUse">
   <stop id="stop5228-2" stop-color="#227395" offset="0"/>
   <stop id="stop5230-4" stop-color="#44a2c9" offset="1"/>
  </radialGradient>
  <radialGradient id="radialGradient4200" cx="48" cy="46.582" r="42" gradientTransform="matrix(1 0 0 .9666 3.0414e-8 111.56)" gradientUnits="userSpaceOnUse">
   <stop id="stop3426-4" stop-color="#fff" offset="0"/>
   <stop id="stop3432-0" stop-color="#fff" offset=".67213"/>
   <stop id="stop3428-2" stop-color="#fff" stop-opacity="0" offset="1"/>
  </radialGradient>
  <linearGradient id="linearGradient4203" x1="48" x2="48" y1="90" y2="5.9877" gradientTransform="translate(0,110)" gradientUnits="userSpaceOnUse">
   <stop id="stop3702-4" stop-color="#2b91bc" offset="0"/>
   <stop id="stop3704-2" stop-color="#77bbd8" offset="1"/>
  </linearGradient>
  <radialGradient id="radialGradient5232-9" cx="63.98" cy="61.949" r="58.02" gradientTransform="matrix(1.09 0 0 .84045 -21.739 -5.4878)" gradientUnits="userSpaceOnUse">
   <stop id="stop3877" stop-color="#fff" offset="0"/>
   <stop id="stop3879" stop-color="#fff" stop-opacity=".42636" offset="1"/>
  </radialGradient>
  <linearGradient id="linearGradient3345" x1="48" x2="48" y1="90" y2="5.9877" gradientUnits="userSpaceOnUse">
   <stop id="stop3702-0-2" stop-color="#3781c6" offset="0"/>
   <stop id="stop3704-4-9" stop-color="#88b2db" offset="1"/>
  </linearGradient>
  <linearGradient id="linearGradient3543">
   <stop id="stop3545" stop-color="#fff" offset="0"/>
   <stop id="stop3555" stop-color="#fff" offset=".30645"/>
   <stop id="stop3551" stop-color="#fff" stop-opacity=".64062" offset=".51899"/>
   <stop id="stop3547" stop-color="#fff" stop-opacity="0" offset="1"/>
  </linearGradient>
  <radialGradient id="radialGradient3443" cx="74.375" cy="67.125" r="3.125" gradientUnits="userSpaceOnUse" xlink:href="#linearGradient3543"/>
  <radialGradient id="radialGradient4246" cx="49.234" cy="70.608" r="25.484" gradientTransform="matrix(.46811 -.52912 1.7948 1.5822 -112.04 -37.345)" gradientUnits="userSpaceOnUse" xlink:href="#linearGradient3737-5"/>
  <radialGradient id="radialGradient4248" cx="63.875" cy="2.2173" r="58.375" gradientTransform="matrix(1.0948 0 0 .33117 -21.845 32.793)" gradientUnits="userSpaceOnUse" xlink:href="#linearGradient3737-5"/>
  <radialGradient id="radialGradient4250" cx="69.75" cy="75.974" r="58.5" gradientTransform="matrix(2.2594 -.06832 .0079787 .26386 -105.96 38.862)" gradientUnits="userSpaceOnUse" xlink:href="#linearGradient3737-5"/>
  <radialGradient id="radialGradient4252" cx="64.23" cy="68.449" r="43.77" gradientTransform="matrix(1.4544 0 0 .92611 -45.08 -12.601)" gradientUnits="userSpaceOnUse" xlink:href="#linearGradient3737-5"/>
  <linearGradient id="linearGradient3175" x1="56" x2="56" y1="16" y2="80" gradientTransform="matrix(.88281 0 0 .89965 5.625 13.563)" gradientUnits="userSpaceOnUse">
   <stop id="stop4123-7" stop-color="#313233" offset="0"/>
   <stop id="stop4125-7" stop-color="#23486a" offset="1"/>
  </linearGradient>
 </defs>
 <metadata id="metadata2413">
  <rdf:RDF>
   <cc:Work rdf:about="">
    <dc:format>image/svg+xml</dc:format>
    <dc:type rdf:resource="http://purl.org/dc/dcmitype/StillImage"/>
    <dc:title/>
   </cc:Work>
  </rdf:RDF>
 </metadata>
 <g id="layer2" display="none">
  <rect id="rect3745" x="5" y="7" width="86" height="85" rx="6" ry="6" fill="url(#ButtonShadow)" filter="url(#filter3174)" opacity=".9"/>
 </g>
 <g id="layer5">
  <path id="path3786" transform="scale(1,-1)" d="m12-95.031c-5.5111 0-10.031 4.5202-10.031 10.031v71c0 5.5111 4.5202 10.031 10.031 10.031h72c5.5111 0 10.031-4.5202 10.031-10.031v-71c0-5.5111-4.5202-10.031-10.031-10.031h-72z" fill="url(#linearGradient3780)" opacity=".08"/>
  <path id="path3778" transform="scale(1,-1)" d="m12-94.031c-4.9716 0-9.0312 4.0596-9.0312 9.0312v71c0 4.9716 4.0596 9.0312 9.0312 9.0312h72c4.9716 0 9.0312-4.0596 9.0312-9.0312v-71c0-4.9716-4.0596-9.0312-9.0312-9.0312h-72z" fill="url(#linearGradient3780)" opacity=".1"/>
  <path id="path3770" transform="scale(1,-1)" d="m12-93c-4.4091 0-8 3.5909-8 8v71c0 4.4091 3.5909 8 8 8h72c4.4091 0 8-3.5909 8-8v-71c0-4.4091-3.5909-8-8-8h-72z" fill="url(#linearGradient3780)" opacity=".2"/>
  <rect id="rect3723" transform="scale(1,-1)" x="5" y="-92" width="86" height="85" rx="7" ry="7" fill="url(#linearGradient3780)" opacity=".3"/>
  <rect id="rect3716" transform="scale(1,-1)" x="6" y="-91" width="84" height="84" rx="6" ry="6" fill="url(#linearGradient3721)" opacity=".45"/>
 </g>
 <g id="layer1">
  <rect id="rect2419-8" x="6" y="6" width="84" height="84" rx="6" ry="6" fill="url(#linearGradient3345)"/>
  <path id="path3522" d="m-63.726 6.0817c1.6501 2.2167 0.11258 5.9183 2.6015 5.8816 1.2119 1.714-2.4154 0.5113 0.20359 1.8323 1.5061 1.1866-1.5934 1.8645 0.27179 2.9294-2.1497 1.1097 0.34845 5.804 1.9451 6.9788 2.628 2.2132 1.1622-4.6857 4.0945-5.0446 1.5934-1.8197 4.3918-2.9878 6.3793-4.8184-1.9423-0.15774-3.0765-1.3671-1.237-2.1163 3.3855 3.4704 0.84891-1.6435-1.0251-2.4532 1.8134-0.57705 3.577-0.15448 3.3254-1.6514 1.9163-1.4025-1.8423-1.8553-3.1839-1.5383h-13.375zm-27.802 1.4478c-2.4498 0.6982-2.6206 6.5549-0.15835 3.3027 0.60434-1.3354 3.3971-2.9447 0.15835-3.3027zm11.446 0.20359c-1.4123 2.2153 0.20491 3.9915 1.3799 1.2894 0.83171-1.1283-0.61793-1.2481-1.3799-1.2894zm3.529 0.49767c-2.7288 1.2652-0.6726 4.2156-0.60506 4.8717 2.8746 0.99483 4.4732-0.65044 5.5607 2.1615 2.7352 1.5769-0.0538 4.3171-1.0806 5.0307 1.8493-1.6112 5.4042 4.3805 4.4722 1.2149-1.1118-0.81208 2.9852 1.3046 0.85962-1.3347-1.9561-3.1527 0.15527-1.4114 0.97995-0.67561 2.8049-2.5161-3.1736-2.8202-1.6812-5.4096-1.3078-1.0596-3.0229-4.2695-5.3387-3.6421-1.5502 2.0056-0.21416-4.37-2.4886-1.1796-0.11789 1.7834-0.0429 4.0465-0.70571 0.95682-0.44407-0.54087 0.764-1.7983 0.0273-1.9942zm-5.5649 0.022621c-1.8316 0.61085-1.7332 3.0865 0.51896 3.3519 0.77143-0.87963 0.30649-3.1853-0.51896-3.3519zm-7.1484 0.79175c-2.3791 0.56388-1.408 2.4829-0.67958 3.0233-2.9449 0.73792 4.4957 0.94313 0.79269 1.4105-3.0808 1.2308 2.9667 2.6809 3.9588 1.2216 3.8044 0.93074 0.13691-3.0465-0.19704-5.2025-1.6128-1.7315-0.0637 3.9915-1.5219 0.18441-0.50878 1.1305-2.1265 0.1666-2.353-0.63725zm75.601 0.24884c-3.1924 1.2499 1.9842 5.9664 0.69764 1.6755-0.12817-0.51812 0.2882-1.8871-0.69764-1.6755zm-66.666 1.9002c-2.2941 2.1567 2.916 3.9402-0.6589 5.5469-0.53601-2.0029-1.4583 1.0021-3.5035-0.61542-3.5159 1.4645-5.3139-0.76283-8.2575-2.2896-1.768-0.22016-1.1038 1.6805-1.2209 3.4602v14.755c1.7335 1.8245 0.67633 0.80498 0 0.30175 0.95147 3.2416-0.41957 7.9802 3.3308 9.8658 0.63757 1.183 3.3129 6.2231 3.4362 4.715-1.3412-1.4051-2.7174-5.6174-0.44789-1.863 2.0328 3.5688 4.7748 5.8835 8.7805 6.7328 2.1901 0.74522 3.9912 3.307 5.9171 2.7433 1.089 2.872-3.2274 5.6299 0.14491 8.3086 1.7605 2.7118 4.7162 4.4904 3.116 8.2976-1.1191 3.7183-0.63992 7.7697-1.6078 11.234-0.3004 2.1087 2.938 7.461 2.6575 3.1751 0.94557-2.9784 0.92064-6.2556 3.1476-8.3648 3.0471 0.02413 0.58237-3.2778 3.607-2.8464 1.8456-2.4201 2.3802-5.3071 5.4949-6.2681 0.37204-2.9376 5.1788-7.4366 0.21313-8.5803-1.3496-0.66545-4.8245-0.90473-4.559-1.2331 0.53804-2.9149-4.4935-3.7447-6.6342-4.9373-2.8108-1.9958-7.0342 3.3156-8.0245-1.261-0.59087-1.4399-2.7513-1.4633-1.7584-3.6852-1.7894 1.7803-5.2893 1.2392-4.373-2.1989 1.3916-2.8956 6.7356-3.0326 7.6463 0.45028-1.2644-3.8412 2.4439-6.8314 4.5025-9.5642 0.41916-1.3062 2.9097-2.4284 2.0527-0.69242 1.4602-0.05269 3.6733-2.6886 1.0794-1.472-0.0367-2.4039-2.273-1.7203-2.998-1.3789 1.3438-2.1336 8.245-0.96713 5.3551-4.4546-2.2393-0.90768-2.053-6.2044-4.318-3.2536 0.19059-1.8181-4.61-5.3771-4.5053-2.3283 0.58599 2.7281 0.10714 5.8709-1.1399 7.6591-0.26025-3.9976-7.0757-3.1141-6.1994-7.374 1.2694-2.0303 2.7528-4.8379 2.8942-4.5853 2.275-0.86894 4.1046-3.3965 1.4678-5.0581-0.14091 1.4482-1.983 4.4361-1.7237 0.82232-1.7058 2.0232-1.3162-3.2194-2.9138-3.7631zm54.45 1.4025c-3.9959 0.97784-5.5801 4.7958-7.5568 7.9582-2.9139 1.3142-2.8029 6.9583 0.45241 5.1557 0.87128 1.5223-0.60951 3.9217 1.9283 1.9312 2.047-2.7099 0.35794-7.0928 3.8414-8.8015 0.25373 1.3286-3.2133 6.2899 0.837 5.4744 3.6616 0.13821-2.6619 0.36497-0.88101 2.7047-1.8503-1.0982-0.88882 2.9993-3.304 2.0458-2.0923 1.1385-3.4643-0.52863-2.985-2.355-1.646 0.96057 0.51769 3.6704-2.3396 3.8333-0.64004 2.2737-5.9034 1.931-2.9102 4.2462 1.3289 3.4454-4.9515 0.21599-3.1685 4.3505 1.5254 4.0884 4.7224-1.3547 6.0194-2.4063 2.5025-1.9419 6.2107 3.3111 3.9588 3.5063 2.5251-0.33891 2.0062-2.7412-0.017-3.6713-1.0927-2.8349 3.459 1.3903 3.2066 2.8117 1.6059 3.0083 0.94461-3.0801 2.5788-0.38456-0.1908 2.8434 6.5742 0.66856 3.3444 4.2924-2.7769 0.55951-5.5101-0.71614-7.9008 0.10093-2.2251-0.01969-2.1135-2.398-2.9236-2.9935-2.8304 0.23004-6.3279 0.20403-8.2228 2.4914-2.049 2.8123-5.0038 6.7438-2.7705 10.335 2.2349 5.3215 7.7772 0.27603 10.963 3.4188 0.94693 1.3104-0.8206 2.868 1.2967 4.2874 0.7967 3.0235-0.90449 5.8943 1.0523 8.7846 1.0118 2.7182 1.6398 6.7866 5.4058 4.3028 3.9858-2.3994 2.9242-6.8227 6.2129-9.2726-2.6023-5.0381 3.1836-7.2471 4.6272-11.337-3.1539 0.46191-5.9638-2.6838-6.7258-5.8499-1.3249-1.5379-0.98367-3.8055 0.49633-0.91647 2.0343 1.9719 2.0782 7.8231 5.8413 4.813 1.7204-0.71984 6.4186-3.4657 2.6751-4.7153-2.413 1.7484-5.0752-5.2243-1.5318-1.18 2.576 1.0933 4.38 1.7447 4.38-1.8801v-29.497c-0.8024 0.82028-2.8638 2.3352-3.9043 1.3286-1.7904 0.24941-4.1539 3.7343-3.5912 0.36554-1.5562-0.10309-0.27859 3.0205-2.4166 3.1079-0.21529 1.6059-2.1599 0.29738-1.4294 1.8224-1.5006-1.0649-2.7707-4.427 0.18614-2.3167 4.391-1.3178-2.8956-4.2904-3.458-5.0089 0.94545-0.22662-1.0286-1.2122-1.2668-0.88224zm-36.24 0.88224c-1.4615 1.2182 2.7785 1.4476 0 0zm-19.522 0.65602c-1.6346 1.7105 2.6033 1.5724 0 0zm9.4784 1.6966c-1.2379 2.0286 1.829 0.74894 0 0zm27.101 2.3979c-1.4492 1.6691-3.362-0.43926-3.3932 0.99535 0.26265 0.43347 1.3147 3.5273 3.6194 1.2442 1.237-0.52171 0.74997-1.8369-0.22621-2.2395zm-30.856 0.99535c-2.7488 2.4015 4.6683 2.6227 0.58232 0.27543l-0.58232-0.27543zm36.262 6.6507c-1.9791 1.291 0.94944 4.0328-0.0431 5.3207-1.2401 2.1615 4.6083-0.15226 1.4846-1.8768-0.22257-1.4816-1.83-3.2894-1.4415-3.444zm-1.3347 2.6015c-2.7574 0.77986-0.62597 4.8062 0.35065 1.014 0.055-0.21986 0.12936-1.0214-0.35065-1.014zm-22.079 2.9182c-2.5652 1.7498-0.39843 3.4964 1.4816 2.7091-0.38595-1.0558-1.4642-1.721-1.4816-2.7091zm48.455 2.9408c1.28 0.6462-2.3455 1.7501-0.0498 2.8874 1.336 1.5717 0.83231 4.9455-1.3392 2.5576 0.40344-2.666-2.9436-4.657 1.389-5.445zm-6.5829 0.02262c-0.17366 1.7128 3.694 4.3751-0.47504 3.5063-2.2048 0.25872-5.507-0.06739-2.7294-2.8157 0.87765-0.52708 3.1821 1.8185 1.9829-0.37395 0.42514-0.02713 0.82107-0.18767 1.2216-0.3167zm-12.736 3.7099c-1.6081 1.0364 1.112 1.8311 0 0zm-40.379 9.6594c-0.2711 0.9048 5.086 1.8218 1.3893 0.37215l-0.55107-0.19405-0.83824-0.1781zm4.1624 1.2894c-1.6249 1.6502 3.3478 0.49302 0 0zm54.337 15.134c-3.5307 0.09113-3.0613 9.2016-0.60013 3.8108 0.2334-1.1698 1.1689-2.7138 0.60013-3.8108z" fill="url(#radialGradient2977)" opacity=".2"/>
  <rect id="rect2419-1" x="6" y="116" width="84" height="84" rx="6" ry="6" fill="url(#linearGradient4203)"/>
  <path id="path4119" d="m36.274 116.08c1.6501 2.2167 0.11258 5.9183 2.6015 5.8816 1.2119 1.714-2.4155 0.5113 0.20359 1.8324 1.5061 1.1866-1.5934 1.8645 0.27179 2.9294-2.1497 1.1097 0.34844 5.804 1.9451 6.9788 2.628 2.2132 1.1622-4.6857 4.0945-5.0446 1.5934-1.8197 4.3918-2.9878 6.3793-4.8184-1.9423-0.15774-3.0765-1.3671-1.237-2.1163 3.3855 3.4704 0.8489-1.6435-1.0251-2.4532 1.8134-0.57705 3.577-0.15449 3.3254-1.6514 1.9163-1.4025-1.8423-1.8554-3.1839-1.5383h-13.375zm-27.802 1.4478c-2.4498 0.69819-2.6206 6.5549-0.15835 3.3027 0.60434-1.3354 3.3971-2.9447 0.15835-3.3027zm11.446 0.20359c-1.4123 2.2153 0.20492 3.9915 1.3799 1.2894 0.83171-1.1283-0.61793-1.2481-1.3799-1.2894zm3.529 0.49768c-2.7288 1.2652-0.6726 4.2156-0.60506 4.8717 2.8746 0.99483 4.4732-0.65043 5.5607 2.1615 2.7352 1.5769-0.05382 4.3171-1.0805 5.0307 1.8493-1.6112 5.4042 4.3805 4.4722 1.2149-1.1118-0.81208 2.9852 1.3046 0.85962-1.3347-1.9561-3.1527 0.15527-1.4114 0.97995-0.67561 2.8049-2.5161-3.1736-2.8202-1.6812-5.4096-1.3078-1.0596-3.0229-4.2695-5.3387-3.6421-1.5502 2.0056-0.21415-4.37-2.4886-1.1796-0.11789 1.7834-0.04285 4.0464-0.70571 0.95682-0.44407-0.54087 0.764-1.7983 0.0273-1.9942zm-5.5649 0.0226c-1.8316 0.61085-1.7332 3.0865 0.51896 3.3519 0.77144-0.87964 0.30649-3.1853-0.51896-3.3519zm-7.1484 0.79175c-2.3791 0.56388-1.408 2.4829-0.67957 3.0233-2.9449 0.73792 4.4957 0.94313 0.79268 1.4105-3.0808 1.2308 2.9667 2.681 3.9588 1.2216 3.8044 0.93074 0.13691-3.0465-0.19704-5.2025-1.6128-1.7315-0.06366 3.9915-1.5219 0.18441-0.50879 1.1305-2.1265 0.1666-2.353-0.63725zm75.601 0.24884c-3.1924 1.2499 1.9842 5.9664 0.69764 1.6755-0.12816-0.51813 0.2882-1.8871-0.69764-1.6755zm-66.666 1.9002c-2.2941 2.1567 2.916 3.9402-0.6589 5.5469-0.53602-2.0029-1.4583 1.0021-3.5035-0.61542-3.5159 1.4645-5.3139-0.76283-8.2575-2.2896-1.768-0.22016-1.1038 1.6805-1.2209 3.4602v14.755c1.7335 1.8245 0.67633 0.80498 0 0.30175 0.95147 3.2416-0.41957 7.9802 3.3309 9.8658 0.63756 1.183 3.3129 6.2231 3.4362 4.715-1.3412-1.4051-2.7174-5.6174-0.4479-1.863 2.0328 3.5688 4.7747 5.8835 8.7805 6.7328 2.1901 0.74522 3.9912 3.307 5.9171 2.7433 1.0891 2.872-3.2274 5.6299 0.14491 8.3086 1.7605 2.7118 4.7162 4.4904 3.116 8.2976-1.1191 3.7183-0.63993 7.7697-1.6078 11.234-0.30039 2.1087 2.938 7.461 2.6575 3.1751 0.94557-2.9784 0.92064-6.2556 3.1476-8.3648 3.0471 0.0241 0.58238-3.2778 3.607-2.8464 1.8456-2.4201 2.3802-5.3071 5.4949-6.2681 0.37204-2.9376 5.1788-7.4366 0.21314-8.5803-1.3496-0.66545-4.8245-0.90473-4.559-1.2331 0.53803-2.9149-4.4935-3.7447-6.6342-4.9373-2.8108-1.9958-7.0342 3.3156-8.0245-1.261-0.59088-1.44-2.7513-1.4633-1.7584-3.6852-1.7894 1.7803-5.2893 1.2392-4.373-2.1989 1.3916-2.8956 6.7356-3.0326 7.6463 0.45029-1.2644-3.8412 2.4439-6.8314 4.5025-9.5642 0.41916-1.3062 2.9097-2.4284 2.0527-0.69242 1.4602-0.0527 3.6733-2.6886 1.0794-1.472-0.03668-2.4039-2.273-1.7203-2.998-1.3789 1.3438-2.1336 8.245-0.96713 5.3551-4.4546-2.2393-0.90768-2.053-6.2044-4.318-3.2536 0.1906-1.8182-4.61-5.3772-4.5053-2.3283 0.58599 2.7281 0.10713 5.8709-1.1399 7.6591-0.26024-3.9976-7.0757-3.1141-6.1994-7.374 1.2694-2.0303 2.7529-4.8379 2.8942-4.5853 2.275-0.86894 4.1046-3.3965 1.4678-5.0581-0.14092 1.4482-1.983 4.4361-1.7237 0.82232-1.7058 2.0232-1.3162-3.2194-2.9138-3.7631zm54.45 1.4025c-3.9959 0.97784-5.5801 4.7958-7.5568 7.9582-2.9139 1.3142-2.8029 6.9583 0.45241 5.1557 0.87128 1.5223-0.6095 3.9217 1.9283 1.9312 2.047-2.7099 0.35794-7.0928 3.8414-8.8015 0.25373 1.3286-3.2133 6.2899 0.83699 5.4744 3.6616 0.13821-2.6619 0.36497-0.881 2.7047-1.8503-1.0982-0.88883 2.9993-3.304 2.0458-2.0923 1.1385-3.4643-0.52862-2.985-2.355-1.646 0.96058 0.5177 3.6704-2.3396 3.8333-0.64004 2.2737-5.9034 1.931-2.9102 4.2462 1.3289 3.4454-4.9515 0.21599-3.1685 4.3505 1.5254 4.0884 4.7224-1.3547 6.0194-2.4063 2.5025-1.9419 6.2107 3.3111 3.9588 3.5063 2.5251-0.33891 2.0062-2.7412-0.01696-3.6713-1.0927-2.8349 3.459 1.3903 3.2066 2.8117 1.6059 3.0084 0.94462-3.0801 2.5789-0.38456-0.19081 2.8434 6.5742 0.66855 3.3444 4.2924-2.7769 0.55952-5.5101-0.71614-7.9008 0.10093-2.2251-0.0197-2.1135-2.398-2.9236-2.9935-2.8304 0.23004-6.3279 0.20402-8.2228 2.4914-2.049 2.8123-5.0038 6.7438-2.7705 10.335 2.2349 5.3215 7.7772 0.27603 10.963 3.4188 0.94694 1.3104-0.82059 2.868 1.2967 4.2874 0.7967 3.0235-0.90449 5.8943 1.0523 8.7846 1.0118 2.7182 1.6398 6.7866 5.4058 4.3028 3.9858-2.3994 2.9242-6.8227 6.2129-9.2726-2.6023-5.0381 3.1836-7.2471 4.6272-11.337-3.1539 0.46191-5.9638-2.6838-6.7258-5.8499-1.3249-1.5379-0.98368-3.8055 0.49633-0.91647 2.0343 1.9719 2.0782 7.8231 5.8413 4.813 1.7203-0.71984 6.4186-3.4657 2.6751-4.7153-2.413 1.7484-5.0753-5.2243-1.5318-1.18 2.576 1.0933 4.38 1.7447 4.38-1.8802v-29.497c-0.8024 0.82028-2.8638 2.3352-3.9043 1.3286-1.7904 0.24941-4.1539 3.7343-3.5912 0.36554-1.5562-0.10309-0.27858 3.0205-2.4166 3.1079-0.21529 1.6059-2.1599 0.29738-1.4294 1.8224-1.5006-1.0649-2.7707-4.427 0.18615-2.3167 4.391-1.3178-2.8956-4.2904-3.458-5.0089 0.94546-0.22661-1.0286-1.2122-1.2668-0.88224zm-36.24 0.88224c-1.4615 1.2182 2.7785 1.4476 0 0zm-19.522 0.65603c-1.6347 1.7105 2.6033 1.5724 0 0zm9.4784 1.6966c-1.2379 2.0286 1.829 0.74894 0 0zm27.101 2.3979c-1.4492 1.6691-3.3621-0.43926-3.3932 0.99535 0.26264 0.43347 1.3147 3.5273 3.6194 1.2442 1.237-0.52171 0.74996-1.8369-0.22621-2.2395zm-30.856 0.99535c-2.7488 2.4015 4.6683 2.6227 0.58232 0.27542l-0.58232-0.27542zm36.262 6.6507c-1.9791 1.291 0.94943 4.0328-0.04308 5.3207-1.2401 2.1615 4.6083-0.15225 1.4846-1.8768-0.22256-1.4816-1.83-3.2894-1.4415-3.444zm-1.3347 2.6015c-2.7574 0.77986-0.62596 4.8062 0.35066 1.014 0.05497-0.21986 0.12936-1.0214-0.35066-1.014zm-22.079 2.9182c-2.5652 1.7498-0.39843 3.4964 1.4816 2.7091-0.38596-1.0558-1.4642-1.721-1.4816-2.7091zm48.455 2.9408c1.2799 0.64619-2.3455 1.7501-0.04983 2.8874 1.336 1.5717 0.83231 4.9454-1.3392 2.5576 0.40344-2.666-2.9436-4.657 1.389-5.445zm-6.5829 0.0226c-0.17367 1.7128 3.694 4.3751-0.47505 3.5063-2.2047 0.25873-5.507-0.0674-2.7294-2.8157 0.87765-0.52709 3.1821 1.8185 1.9829-0.37395 0.42514-0.0271 0.82108-0.18767 1.2216-0.3167zm-12.736 3.7099c-1.6081 1.0364 1.112 1.8311 0 0zm-40.379 9.6594c-0.2711 0.90481 5.086 1.8218 1.3893 0.37215l-0.55107-0.19405-0.83823-0.1781zm4.1624 1.2894c-1.6249 1.6502 3.3478 0.49301 0 0zm54.337 15.134c-3.5307 0.0911-3.0613 9.2016-0.60014 3.8108 0.23341-1.1698 1.1689-2.7138 0.60014-3.8108z" fill="url(#radialGradient4200)" filter="url(#filter3434)"/>
  <path id="path3522-3" d="m36.274 116.08c1.6501 2.2167 0.11258 5.9183 2.6015 5.8816 1.2119 1.714-2.4155 0.5113 0.20359 1.8324 1.5061 1.1866-1.5934 1.8645 0.27179 2.9294-2.1497 1.1097 0.34844 5.804 1.9451 6.9788 2.628 2.2132 1.1622-4.6857 4.0945-5.0446 1.5934-1.8197 4.3918-2.9878 6.3793-4.8184-1.9423-0.15774-3.0765-1.3671-1.237-2.1163 3.3855 3.4704 0.8489-1.6435-1.0251-2.4532 1.8134-0.57705 3.577-0.15449 3.3254-1.6514 1.9163-1.4025-1.8423-1.8554-3.1839-1.5383h-13.375zm-27.802 1.4478c-2.4498 0.69819-2.6206 6.5549-0.15835 3.3027 0.60434-1.3354 3.3971-2.9447 0.15835-3.3027zm11.446 0.20359c-1.4123 2.2153 0.20492 3.9915 1.3799 1.2894 0.83171-1.1283-0.61793-1.2481-1.3799-1.2894zm3.529 0.49768c-2.7288 1.2652-0.6726 4.2156-0.60506 4.8717 2.8746 0.99483 4.4732-0.65043 5.5607 2.1615 2.7352 1.5769-0.05382 4.3171-1.0805 5.0307 1.8493-1.6112 5.4042 4.3805 4.4722 1.2149-1.1118-0.81208 2.9852 1.3046 0.85962-1.3347-1.9561-3.1527 0.15527-1.4114 0.97995-0.67561 2.8049-2.5161-3.1736-2.8202-1.6812-5.4096-1.3078-1.0596-3.0229-4.2695-5.3387-3.6421-1.5502 2.0056-0.21415-4.37-2.4886-1.1796-0.11789 1.7834-0.04285 4.0464-0.70571 0.95682-0.44407-0.54087 0.764-1.7983 0.0273-1.9942zm-5.5649 0.0226c-1.8316 0.61085-1.7332 3.0865 0.51896 3.3519 0.77144-0.87964 0.30649-3.1853-0.51896-3.3519zm-7.1484 0.79175c-2.3791 0.56388-1.408 2.4829-0.67957 3.0233-2.9449 0.73792 4.4957 0.94313 0.79268 1.4105-3.0808 1.2308 2.9667 2.681 3.9588 1.2216 3.8044 0.93074 0.13691-3.0465-0.19704-5.2025-1.6128-1.7315-0.06366 3.9915-1.5219 0.18441-0.50879 1.1305-2.1265 0.1666-2.353-0.63725zm75.601 0.24884c-3.1924 1.2499 1.9842 5.9664 0.69764 1.6755-0.12816-0.51813 0.2882-1.8871-0.69764-1.6755zm-66.666 1.9002c-2.2941 2.1567 2.916 3.9402-0.6589 5.5469-0.53602-2.0029-1.4583 1.0021-3.5035-0.61542-3.5159 1.4645-5.3139-0.76283-8.2575-2.2896-1.768-0.22016-1.1038 1.6805-1.2209 3.4602v14.755c1.7335 1.8245 0.67633 0.80498 0 0.30175 0.95147 3.2416-0.41957 7.9802 3.3309 9.8658 0.63756 1.183 3.3129 6.2231 3.4362 4.715-1.3412-1.4051-2.7174-5.6174-0.4479-1.863 2.0328 3.5688 4.7747 5.8835 8.7805 6.7328 2.1901 0.74522 3.9912 3.307 5.9171 2.7433 1.0891 2.872-3.2274 5.6299 0.14491 8.3086 1.7605 2.7118 4.7162 4.4904 3.116 8.2976-1.1191 3.7183-0.63993 7.7697-1.6078 11.234-0.30039 2.1087 2.938 7.461 2.6575 3.1751 0.94557-2.9784 0.92064-6.2556 3.1476-8.3648 3.0471 0.0241 0.58238-3.2778 3.607-2.8464 1.8456-2.4201 2.3802-5.3071 5.4949-6.2681 0.37204-2.9376 5.1788-7.4366 0.21314-8.5803-1.3496-0.66545-4.8245-0.90473-4.559-1.2331 0.53803-2.9149-4.4935-3.7447-6.6342-4.9373-2.8108-1.9958-7.0342 3.3156-8.0245-1.261-0.59088-1.44-2.7513-1.4633-1.7584-3.6852-1.7894 1.7803-5.2893 1.2392-4.373-2.1989 1.3916-2.8956 6.7356-3.0326 7.6463 0.45029-1.2644-3.8412 2.4439-6.8314 4.5025-9.5642 0.41916-1.3062 2.9097-2.4284 2.0527-0.69242 1.4602-0.0527 3.6733-2.6886 1.0794-1.472-0.03668-2.4039-2.273-1.7203-2.998-1.3789 1.3438-2.1336 8.245-0.96713 5.3551-4.4546-2.2393-0.90768-2.053-6.2044-4.318-3.2536 0.1906-1.8182-4.61-5.3772-4.5053-2.3283 0.58599 2.7281 0.10713 5.8709-1.1399 7.6591-0.26024-3.9976-7.0757-3.1141-6.1994-7.374 1.2694-2.0303 2.7529-4.8379 2.8942-4.5853 2.275-0.86894 4.1046-3.3965 1.4678-5.0581-0.14092 1.4482-1.983 4.4361-1.7237 0.82232-1.7058 2.0232-1.3162-3.2194-2.9138-3.7631zm54.45 1.4025c-3.9959 0.97784-5.5801 4.7958-7.5568 7.9582-2.9139 1.3142-2.8029 6.9583 0.45241 5.1557 0.87128 1.5223-0.6095 3.9217 1.9283 1.9312 2.047-2.7099 0.35794-7.0928 3.8414-8.8015 0.25373 1.3286-3.2133 6.2899 0.83699 5.4744 3.6616 0.13821-2.6619 0.36497-0.881 2.7047-1.8503-1.0982-0.88883 2.9993-3.304 2.0458-2.0923 1.1385-3.4643-0.52862-2.985-2.355-1.646 0.96058 0.5177 3.6704-2.3396 3.8333-0.64004 2.2737-5.9034 1.931-2.9102 4.2462 1.3289 3.4454-4.9515 0.21599-3.1685 4.3505 1.5254 4.0884 4.7224-1.3547 6.0194-2.4063 2.5025-1.9419 6.2107 3.3111 3.9588 3.5063 2.5251-0.33891 2.0062-2.7412-0.01696-3.6713-1.0927-2.8349 3.459 1.3903 3.2066 2.8117 1.6059 3.0084 0.94462-3.0801 2.5789-0.38456-0.19081 2.8434 6.5742 0.66855 3.3444 4.2924-2.7769 0.55952-5.5101-0.71614-7.9008 0.10093-2.2251-0.0197-2.1135-2.398-2.9236-2.9935-2.8304 0.23004-6.3279 0.20402-8.2228 2.4914-2.049 2.8123-5.0038 6.7438-2.7705 10.335 2.2349 5.3215 7.7772 0.27603 10.963 3.4188 0.94694 1.3104-0.82059 2.868 1.2967 4.2874 0.7967 3.0235-0.90449 5.8943 1.0523 8.7846 1.0118 2.7182 1.6398 6.7866 5.4058 4.3028 3.9858-2.3994 2.9242-6.8227 6.2129-9.2726-2.6023-5.0381 3.1836-7.2471 4.6272-11.337-3.1539 0.46191-5.9638-2.6838-6.7258-5.8499-1.3249-1.5379-0.98368-3.8055 0.49633-0.91647 2.0343 1.9719 2.0782 7.8231 5.8413 4.813 1.7203-0.71984 6.4186-3.4657 2.6751-4.7153-2.413 1.7484-5.0753-5.2243-1.5318-1.18 2.576 1.0933 4.38 1.7447 4.38-1.8802v-29.497c-0.8024 0.82028-2.8638 2.3352-3.9043 1.3286-1.7904 0.24941-4.1539 3.7343-3.5912 0.36554-1.5562-0.10309-0.27858 3.0205-2.4166 3.1079-0.21529 1.6059-2.1599 0.29738-1.4294 1.8224-1.5006-1.0649-2.7707-4.427 0.18615-2.3167 4.391-1.3178-2.8956-4.2904-3.458-5.0089 0.94546-0.22661-1.0286-1.2122-1.2668-0.88224zm-36.24 0.88224c-1.4615 1.2182 2.7785 1.4476 0 0zm-19.522 0.65603c-1.6347 1.7105 2.6033 1.5724 0 0zm9.4784 1.6966c-1.2379 2.0286 1.829 0.74894 0 0zm27.101 2.3979c-1.4492 1.6691-3.3621-0.43926-3.3932 0.99535 0.26264 0.43347 1.3147 3.5273 3.6194 1.2442 1.237-0.52171 0.74996-1.8369-0.22621-2.2395zm-30.856 0.99535c-2.7488 2.4015 4.6683 2.6227 0.58232 0.27542l-0.58232-0.27542zm36.262 6.6507c-1.9791 1.291 0.94943 4.0328-0.04308 5.3207-1.2401 2.1615 4.6083-0.15225 1.4846-1.8768-0.22256-1.4816-1.83-3.2894-1.4415-3.444zm-1.3347 2.6015c-2.7574 0.77986-0.62596 4.8062 0.35066 1.014 0.05497-0.21986 0.12936-1.0214-0.35066-1.014zm-22.079 2.9182c-2.5652 1.7498-0.39843 3.4964 1.4816 2.7091-0.38596-1.0558-1.4642-1.721-1.4816-2.7091zm48.455 2.9408c1.2799 0.64619-2.3455 1.7501-0.04983 2.8874 1.336 1.5717 0.83231 4.9454-1.3392 2.5576 0.40344-2.666-2.9436-4.657 1.389-5.445zm-6.5829 0.0226c-0.17367 1.7128 3.694 4.3751-0.47505 3.5063-2.2047 0.25873-5.507-0.0674-2.7294-2.8157 0.87765-0.52709 3.1821 1.8185 1.9829-0.37395 0.42514-0.0271 0.82108-0.18767 1.2216-0.3167zm-12.736 3.7099c-1.6081 1.0364 1.112 1.8311 0 0zm-40.379 9.6594c-0.2711 0.90481 5.086 1.8218 1.3893 0.37215l-0.55107-0.19405-0.83823-0.1781zm4.1624 1.2894c-1.6249 1.6502 3.3478 0.49301 0 0zm54.337 15.134c-3.5307 0.0911-3.0613 9.2016-0.60014 3.8108 0.23341-1.1698 1.1689-2.7138 0.60014-3.8108z" fill="url(#radialGradient4197)"/>
  <path id="rect3728" d="m12 6c-3.324 0-6 2.676-6 6v2 68 2c0 0.33472 0.04135 0.6507 0.09375 0.96875 0.0487 0.2956 0.09704 0.59692 0.1875 0.875 0.00988 0.03038 0.020892 0.0636 0.03125 0.09375 0.098865 0.28777 0.23488 0.54745 0.375 0.8125 0.14459 0.27351 0.31562 0.53562 0.5 0.78125s0.37378 0.47347 0.59375 0.6875c0.43995 0.42806 0.94291 0.81453 1.5 1.0938 0.27854 0.13961 0.57347 0.24695 0.875 0.34375-0.2562-0.10022-0.48671-0.23627-0.71875-0.375-0.00741-0.0044-0.023866 0.0045-0.03125 0-0.031933-0.0193-0.062293-0.04251-0.09375-0.0625-0.1204-0.0767-0.23102-0.16351-0.34375-0.25-0.10617-0.0808-0.21328-0.16111-0.3125-0.25-0.17793-0.16143-0.34746-0.34539-0.5-0.53125-0.10758-0.13026-0.21839-0.26528-0.3125-0.40625-0.025089-0.03838-0.038446-0.08587-0.0625-0.125-0.064763-0.10303-0.13023-0.20452-0.1875-0.3125-0.10101-0.19471-0.20567-0.4157-0.28125-0.625-0.00796-0.02181-0.023589-0.04055-0.03125-0.0625-0.031825-0.09195-0.035805-0.18683-0.0625-0.28125-0.030332-0.10662-0.070389-0.20303-0.09375-0.3125-0.072879-0.34151-0.125-0.6982-0.125-1.0625v-2-68-2c0-2.7818 2.2182-5 5-5h2 68 2c2.7818 0 5 2.2182 5 5v2 68 2c0 0.3643-0.05212 0.72099-0.125 1.0625-0.04415 0.20689-0.08838 0.39766-0.15625 0.59375-0.0077 0.02195-0.0233 0.04069-0.03125 0.0625-0.06274 0.17374-0.13838 0.36745-0.21875 0.53125-0.04158 0.0828-0.07904 0.16995-0.125 0.25-0.0546 0.09721-0.12677 0.18835-0.1875 0.28125-0.09411 0.14096-0.20492 0.276-0.3125 0.40625-0.14317 0.17445-0.30314 0.347-0.46875 0.5-0.01117 0.0102-0.01998 0.02115-0.03125 0.03125-0.13839 0.12556-0.28509 0.23444-0.4375 0.34375-0.10257 0.07315-0.20432 0.15336-0.3125 0.21875-0.0074 0.0045-0.02384-0.0044-0.03125 0-0.23204 0.13873-0.46255 0.27478-0.71875 0.375 0.30153-0.0968 0.59646-0.20414 0.875-0.34375 0.55709-0.27922 1.0601-0.66569 1.5-1.0938 0.21997-0.21403 0.40937-0.44186 0.59375-0.6875s0.35541-0.50774 0.5-0.78125c0.14012-0.26505 0.27614-0.52473 0.375-0.8125 0.01041-0.03078 0.02133-0.06274 0.03125-0.09375 0.09046-0.27808 0.1388-0.5794 0.1875-0.875 0.0524-0.31805 0.09375-0.63403 0.09375-0.96875v-2-68-2c0-3.324-2.676-6-6-6h-72z" fill="url(#linearGradient3188-9)" opacity=".35"/>
  <path id="path3615" d="m12 90c-3.324 0-6-2.676-6-6v-2-68-2c0-0.33472 0.04135-0.6507 0.09375-0.96875 0.0487-0.2956 0.09704-0.59691 0.1875-0.875 0.00988-0.0304 0.020892-0.0636 0.03125-0.0937 0.098865-0.28777 0.23488-0.54745 0.375-0.8125 0.14459-0.27351 0.31562-0.53562 0.5-0.78125s0.37378-0.47347 0.59375-0.6875c0.43995-0.42806 0.94291-0.81453 1.5-1.0938 0.27854-0.13961 0.57347-0.24695 0.875-0.34375-0.2562 0.10022-0.48671 0.23627-0.71875 0.375-0.00741 4e-3 -0.023866-4e-3 -0.03125 0-0.031933 0.0193-0.062293 0.0425-0.09375 0.0625-0.1204 0.0767-0.23102 0.16351-0.34375 0.25-0.10617 0.0808-0.21328 0.16111-0.3125 0.25-0.17793 0.16143-0.34746 0.34539-0.5 0.53125-0.10758 0.13026-0.21839 0.26529-0.3125 0.40625-0.025089 0.0384-0.038446 0.0859-0.0625 0.125-0.064763 0.10303-0.13023 0.20452-0.1875 0.3125-0.10101 0.19471-0.20567 0.4157-0.28125 0.625-0.00796 0.0218-0.023589 0.0405-0.03125 0.0625-0.031825 0.0919-0.035805 0.18683-0.0625 0.28125-0.030332 0.10662-0.070389 0.20303-0.09375 0.3125-0.072879 0.34146-0.125 0.69816-0.125 1.0624v2 68 2c0 2.7818 2.2182 5 5 5h2 68 2c2.7818 0 5-2.2182 5-5v-2-68-2c0-0.36429-0.05212-0.72099-0.125-1.0625-0.04415-0.20689-0.08838-0.39766-0.15625-0.59375-0.0077-0.022-0.0233-0.0407-0.03125-0.0625-0.06274-0.17374-0.13838-0.36745-0.21875-0.53125-0.04158-0.0828-0.07904-0.16995-0.125-0.25-0.0546-0.0972-0.12677-0.18835-0.1875-0.28125-0.09411-0.14096-0.20492-0.27599-0.3125-0.40625-0.14317-0.17445-0.30314-0.347-0.46875-0.5-0.01117-0.0102-0.01998-0.0212-0.03125-0.0312-0.13839-0.12556-0.28509-0.23444-0.4375-0.34375-0.10257-0.0731-0.20432-0.15336-0.3125-0.21875-0.0074-4e-3 -0.02384 4e-3 -0.03125 0-0.23204-0.13873-0.46255-0.27478-0.71875-0.375 0.30153 0.0968 0.59646 0.20414 0.875 0.34375 0.55709 0.27922 1.0601 0.66569 1.5 1.0938 0.21997 0.21403 0.40937 0.44187 0.59375 0.6875s0.35541 0.50774 0.5 0.78125c0.14012 0.26505 0.27614 0.52473 0.375 0.8125 0.01041 0.0308 0.02133 0.0627 0.03125 0.0937 0.09046 0.27809 0.1388 0.5794 0.1875 0.875 0.0524 0.31805 0.09375 0.63403 0.09375 0.96875v2 68 2c0 3.324-2.676 6-6 6h-72z" fill="url(#radialGradient2855-1)" opacity=".25"/>
  <path id="path3522-9" d="m36.274 6.0964c1.6501 2.2156 0.11259 5.9154 2.6015 5.8787 1.2119 1.7132-2.4154 0.51104 0.2036 1.8314 1.5061 1.186-1.5934 1.8636 0.27178 2.9279-2.1497 1.1091 0.34844 5.8011 1.9451 6.9754 2.628 2.2121 1.1622-4.6834 4.0945-5.0421 1.5934-1.8188 4.3918-2.9863 6.3793-4.816-1.9423-0.15766-3.0765-1.3665-1.237-2.1153 3.3854 3.4687 0.8489-1.6427-1.0251-2.452 1.8134-0.57676 3.577-0.1544 3.3254-1.6505 1.9163-1.4018-1.8423-1.8544-3.1839-1.5375h-13.375zm-27.802 1.4471c-2.4498 0.69785-2.6206 6.5516-0.15835 3.3011 0.60434-1.3347 3.3971-2.9432 0.15835-3.3011zm11.446 0.20349c-1.4123 2.2142 0.20491 3.9895 1.3799 1.2888 0.83171-1.1278-0.61793-1.2475-1.3799-1.2888zm3.529 0.49743c-2.7288 1.2646-0.6726 4.2135-0.60506 4.8693 2.8746 0.99433 4.4732-0.65011 5.5607 2.1604 2.7352 1.5762-0.0538 4.3149-1.0805 5.0282 1.8493-1.6104 5.4042 4.3783 4.4723 1.2143-1.1118-0.81167 2.9852 1.3039 0.85962-1.334-1.9561-3.1511 0.15527-1.4107 0.97995-0.67527 2.8049-2.5148-3.1736-2.8188-1.6812-5.4069-1.3078-1.0591-3.0229-4.2674-5.3387-3.6403-1.5502 2.0046-0.21415-4.3678-2.4886-1.179-0.11789 1.7825-0.0429 4.0444-0.70571 0.95635-0.44407-0.54061 0.764-1.7974 0.0273-1.9932zm-5.5649 0.022612c-1.8316 0.61055-1.7332 3.085 0.51896 3.3502 0.77143-0.8792 0.30649-3.1838-0.51896-3.3502zm-7.1484 0.79136c-2.3791 0.5636-1.408 2.4816-0.67957 3.0218-2.9449 0.73756 4.4957 0.94266 0.79268 1.4098-3.0808 1.2302 2.9667 2.6796 3.9588 1.221 3.8044 0.93027 0.13691-3.045-0.19704-5.1999-1.6128-1.7306-0.06365 3.9896-1.5219 0.18432-0.50879 1.13-2.1265 0.16652-2.353-0.63694zm75.601 0.24871c-3.1924 1.2492 1.9842 5.9635 0.69765 1.6747-0.12817-0.51787 0.28819-1.8862-0.69765-1.6747zm-66.666 1.8993c-2.2941 2.1556 2.916 3.9382-0.65889 5.5442-0.53602-2.0019-1.4583 1.0016-3.5035-0.61511-3.5159 1.4637-5.3139-0.76245-8.2575-2.2884-1.768-0.22006-1.1038 1.6797-1.2209 3.4585v14.748c1.7335 1.8236 0.67633 0.80458 0 0.3016 0.95147 3.24-0.41957 7.9763 3.3309 9.8609 0.63756 1.1824 3.3129 6.22 3.4362 4.7127-1.3412-1.4044-2.7174-5.6146-0.4479-1.8621 2.0328 3.567 4.7748 5.8806 8.7805 6.7294 2.1901 0.74486 3.9912 3.3053 5.9171 2.742 1.089 2.8705-3.2274 5.6271 0.14491 8.3045 1.7605 2.7104 4.7162 4.4882 3.116 8.2934-1.1191 3.7164-0.63993 7.7659-1.6078 11.229-0.30039 2.1077 2.938 7.4573 2.6575 3.1735 0.94557-2.9769 0.92064-6.2525 3.1476-8.3607 3.0471 0.02412 0.58237-3.2761 3.607-2.845 1.8456-2.4189 2.3802-5.3045 5.4949-6.265 0.37205-2.9361 5.1788-7.4329 0.21314-8.5761-1.3496-0.66512-4.8245-0.90428-4.5589-1.2325 0.53803-2.9134-4.4935-3.7428-6.6342-4.9348-2.8108-1.9949-7.0342 3.3139-8.0245-1.2604-0.59088-1.4392-2.7513-1.4626-1.7584-3.6834-1.7894 1.7794-5.2893 1.2386-4.373-2.1978 1.3916-2.8942 6.7356-3.0311 7.6463 0.45006-1.2644-3.8393 2.4439-6.828 4.5025-9.5595 0.41916-1.3056 2.9097-2.4272 2.0527-0.69208 1.4602-0.05266 3.6733-2.6873 1.0794-1.4713-0.0367-2.4027-2.273-1.7194-2.998-1.3782 1.3438-2.1325 8.245-0.96665 5.3551-4.4524-2.2393-0.90723-2.053-6.2014-4.318-3.252 0.1906-1.8172-4.61-5.3745-4.5052-2.3272 0.58599 2.7268 0.10714 5.868-1.1399 7.6553-0.26025-3.9956-7.0757-3.1125-6.1994-7.3703 1.2695-2.0293 2.7529-4.8355 2.8942-4.5831 2.275-0.86851 4.1046-3.3948 1.4678-5.0556-0.14092 1.4475-1.983 4.4339-1.7237 0.82192-1.7058 2.0222-1.3162-3.2178-2.9138-3.7613zm54.45 1.4018c-3.9959 0.97735-5.5801 4.7935-7.5568 7.9542-2.9139 1.3136-2.8029 6.9549 0.45241 5.1531 0.87128 1.5215-0.60951 3.9197 1.9283 1.9303 2.047-2.7086 0.35794-7.0892 3.8414-8.7971 0.25374 1.328-3.2133 6.2867 0.83699 5.4717 3.6616 0.13814-2.6618 0.36479-0.88099 2.7034-1.8503-1.0977-0.88884 2.9978-3.304 2.0448-2.0923 1.138-3.4643-0.52837-2.985-2.3538-1.646 0.9601 0.5177 3.6686-2.3396 3.8314-0.64005 2.2725-5.9034 1.93-2.9102 4.244 1.3289 3.4436-4.9515 0.21588-3.1685 4.3484 1.5254 4.0864 4.7224-1.354 6.0194-2.4052 2.5025-1.9409 6.2107 3.3094 3.9588 3.5046 2.5251-0.33874 2.0062-2.7399-0.0169-3.6695-1.0927-2.8335 3.459 1.3896 3.2066 2.8103 1.606 3.0069 0.94462-3.0786 2.5788-0.38437-0.1908 2.842 6.5742 0.66822 3.3444 4.2903-2.7769 0.55924-5.5101-0.71579-7.9008 0.10088-2.2251-0.01969-2.1135-2.3968-2.9236-2.9921-2.8304 0.22993-6.3279 0.20393-8.2228 2.4902-2.049 2.8109-5.0038 6.7404-2.7705 10.33 2.2349 5.3188 7.7772 0.27589 10.963 3.4171 0.94693 1.3097-0.8206 2.8666 1.2967 4.2853 0.79672 3.022-0.90448 5.8914 1.0523 8.7803 1.0118 2.7168 1.6398 6.7833 5.4058 4.3007 3.9858-2.3983 2.9242-6.8193 6.2129-9.268-2.6023-5.0356 3.1836-7.2435 4.6272-11.331-3.154 0.46168-5.9638-2.6824-6.7258-5.847-1.3249-1.5371-0.98368-3.8036 0.49633-0.91601 2.0343 1.9709 2.0782 7.8192 5.8413 4.8106 1.7204-0.71948 6.4186-3.464 2.6751-4.713-2.413 1.7475-5.0752-5.2217-1.5318-1.1794 2.576 1.0928 4.38 1.7438 4.38-1.8792v-29.482c-0.8024 0.81987-2.8638 2.3341-3.9043 1.3279-1.7904 0.24928-4.1539 3.7324-3.5912 0.36536-1.5562-0.10304-0.27858 3.019-2.4166 3.1063-0.21529 1.6051-2.1599 0.29723-1.4294 1.8215-1.5006-1.0643-2.7707-4.4248 0.18614-2.3156 4.391-1.3172-2.8956-4.2883-3.458-5.0064 0.94545-0.2265-1.0286-1.2116-1.2668-0.8818zm-36.24 0.8818c-1.4615 1.2176 2.7785 1.4469 0 0zm-19.522 0.6557c-1.6346 1.7097 2.6033 1.5717 0 0zm9.4784 1.6958c-1.2379 2.0276 1.829 0.74857 0 0zm27.101 2.3967c-1.4492 1.6682-3.362-0.43904-3.3932 0.99485 0.26265 0.43326 1.3147 3.5255 3.6194 1.2436 1.237-0.52145 0.74995-1.836-0.22622-2.2384zm-30.856 0.99485c-2.7488 2.4003 4.6683 2.6214 0.58232 0.27529l-0.58232-0.27529zm36.262 6.6474c-1.9791 1.2904 0.94943 4.0308-0.0431 5.3181-1.2401 2.1604 4.6083-0.15218 1.4846-1.8758-0.22257-1.4809-1.83-3.2877-1.4415-3.4423zm-1.3347 2.6002c-2.7574 0.77947-0.62595 4.8038 0.35067 1.0135 0.0549-0.21975 0.12936-1.0208-0.35067-1.0135zm-22.079 2.9167c-2.5652 1.749-0.39843 3.4947 1.4816 2.7078-0.38596-1.0552-1.4642-1.7201-1.4816-2.7078zm48.455 2.9393c1.28 0.64588-2.3455 1.7492-0.0498 2.8859 1.336 1.5709 0.83231 4.943-1.3392 2.5564 0.40344-2.6647-2.9436-4.6547 1.389-5.4423zm-6.5829 0.02261c-0.17366 1.7119 3.694 4.373-0.47504 3.5046-2.2048 0.2586-5.507-0.06736-2.7294-2.8143 0.87765-0.52682 3.1821 1.8176 1.9829-0.37376 0.42513-0.02712 0.82107-0.18758 1.2216-0.31654zm-12.736 3.7081c-1.6081 1.0359 1.112 1.8302 0 0zm-40.379 9.6546c-0.27111 0.90435 5.086 1.8208 1.3893 0.37196l-0.55107-0.19395-0.83822-0.17801zm4.1624 1.2888c-1.6249 1.6494 3.3478 0.49277 0 0zm54.337 15.126c-3.5307 0.09109-3.0613 9.197-0.60013 3.8089 0.2334-1.1692 1.1689-2.7124 0.60013-3.8089z" fill="url(#radialGradient5232-9)" opacity=".7"/>
 </g>
 <g id="layer4">
  <rect id="rect3171" x="15" y="15" width="66" height="66" rx="12" ry="12" clip-path="url(#clipPath3613)" fill="url(#linearGradient2885)" filter="url(#filter4123)" opacity=".15" stroke="#fff" stroke-linecap="round" stroke-width=".5"/>
 </g>
 <g id="layer3">
  <g id="g4234">
   <path id="path3583" d="m7 29.523c51.25 8.8245 31.634 59.477 31.634 59.477" fill="none" stroke="url(#radialGradient4246)" stroke-width="2"/>
   <path id="path3581" d="m27.677 88.824c-1.0603-15.531 28.453-60.183 61.147-67.948" fill="none" stroke="url(#radialGradient4252)" stroke-width="2"/>
   <path id="path3537" transform="matrix(1.3572 0 0 1.3554 -73.268 -53.872)" d="m77.5 67.125a3.125 3.125 0 1 1-6.25 0 3.125 3.125 0 1 1 6.25 0z" fill="url(#radialGradient3443)" fill-rule="evenodd"/>
   <path id="path3557" transform="matrix(1.0745 0 0 1.0731 -39.514 -14.091)" d="m77.5 67.125a3.125 3.125 0 1 1-6.25 0 3.125 3.125 0 1 1 6.25 0z" fill="url(#radialGradient3443)" fill-rule="evenodd"/>
   <path id="path3561" transform="matrix(1.5834 0 0 1.5813 -53.334 -72.389)" d="m77.5 67.125a3.125 3.125 0 1 1-6.25 0 3.125 3.125 0 1 1 6.25 0z" fill="url(#radialGradient3443)" fill-rule="evenodd"/>
   <path id="path3565" transform="matrix(1.0219 0 0 1.0206 -15.636 -16.922)" d="m77.5 67.125a3.125 3.125 0 1 1-6.25 0 3.125 3.125 0 1 1 6.25 0z" fill="url(#radialGradient3443)" fill-rule="evenodd" opacity=".6"/>
   <path id="path3569" transform="matrix(.8926 0 0 .89141 -51.611 -28.372)" d="m77.5 67.125a3.125 3.125 0 1 1-6.25 0 3.125 3.125 0 1 1 6.25 0z" fill="url(#radialGradient3443)" fill-rule="evenodd" opacity=".7"/>
   <path id="path3573" transform="matrix(.56552 0 0 .56477 38.457 3.2615)" d="m77.5 67.125a3.125 3.125 0 1 1-6.25 0 3.125 3.125 0 1 1 6.25 0z" fill="url(#radialGradient3443)" fill-rule="evenodd" opacity=".6"/>
   <path id="path3577" d="m7.1767 47.702c28.099-19.414 65.211-20.473 81.823 1.5884" fill="none" stroke="url(#radialGradient4248)" stroke-width="2"/>
   <path id="path3585" d="m7.1767 67.821c51.25-11.472 82-30.18 82-30.18" fill="none" opacity=".6" stroke="url(#radialGradient4250)" stroke-width="1.5"/>
   <path id="path3352" transform="matrix(.84547 0 0 .84435 15.553 -31.918)" d="m77.5 67.125a3.125 3.125 0 1 1-6.25 0 3.125 3.125 0 1 1 6.25 0z" fill="url(#radialGradient3443)" fill-rule="evenodd" opacity=".6"/>
  </g>
 </g>
 <g id="layer7">
  <path id="path3798-3" d="m48 28c-6.1616 0-11.152 4.7207-11.152 10.53 0.01497 0.66573 0.01928 1.4092 0.08781 2.2372-0.97511 0.5251-1.104 2.5833-0.23417 4.6534 0.33539 0.79826 0.79641 1.4434 1.2587 1.9688 0.01541 0.01756 0.04302 0.04254 0.05855 0.05966 0.11034 0.54696 0.18854 0.964 0.32198 1.581 0.41339 1.2527 2.1254 3.6121 3.6296 5.6378 0.15001 1.5627 0.15546 3.1145-0.14636 4.892-4.3297 3.6286-15.413 5.252-15.397 9.0085l-0.2049 1.4318h43.556l-0.2049-1.4318c-0.01766-3.2151-11.149-5.252-15.426-9.0085-0.17316-1.439-0.20523-2.8483-0.11708-4.2656 1.3676-2.1311 3.172-4.8773 3.6296-6.2642 0.1682-0.71822 0.2499-1.2029 0.38053-1.8196 0.40386-0.49864 0.78491-1.0802 1.083-1.7898 0.82599-1.9659 0.72477-3.866-0.11708-4.5043 0.05883-0.85421 0.12176-1.6563 0.14636-2.3864 9e-6 -5.8091-4.9908-10.53-11.152-10.53z" enable-background="new" fill="url(#linearGradient3175)"/>
  <path id="path4106" d="m48 28c-6.1616 0-11.156 4.7221-11.156 10.531 0.01497 0.66573 0.02522 1.4219 0.09375 2.25-0.97511 0.5251-1.1198 2.5548-0.25 4.625 0.33539 0.79826 0.819 1.4434 1.2812 1.9688 0.01541 0.01756 0.04697 0.04538 0.0625 0.0625 0.11034 0.54696 0.17906 0.97679 0.3125 1.5938 0.41339 1.2527 2.1208 3.5993 3.625 5.625 0.15001 1.5627 0.14556 3.1287-0.15625 4.9062-4.3297 3.6286-15.392 5.2434-15.375 9l-0.21875 1.4375h43.562l-0.21875-1.4375c-0.01766-3.2151-11.13-5.2434-15.406-9-0.17316-1.439-0.21315-2.8639-0.125-4.2812 1.3676-2.1311 3.1674-4.8631 3.625-6.25 0.1682-0.71822 0.24437-1.1958 0.375-1.8125 0.40386-0.49864 0.79562-1.1029 1.0938-1.8125 0.82599-1.9659 0.71685-3.8617-0.125-4.5 0.05883-0.85421 0.13166-1.6449 0.15625-2.375 9e-6 -5.8091-4.9947-10.531-11.156-10.531zm0 1.9688c5.1336 0 9.1514 3.8464 9.1875 8.5 1.63e-4 0.02106 0 0.04141 0 0.0625-0.02371 0.6366-0.09713 1.3915-0.15625 2.25a1.9667 1.9667 0 0 0 0.625 1.5625c0.01234 0.03603 0.05429 0.15083 0.0625 0.375 0.01641 0.44834-0.09268 1.1912-0.40625 1.9375-0.21427 0.50997-0.50624 0.93437-0.8125 1.3125a1.9667 1.9667 0 0 0-0.40625 0.84375c-0.12637 0.59663-0.18867 1.0399-0.3125 1.5938-0.10886 0.32988-0.62862 1.3882-1.2812 2.4688s-1.4357 2.2697-2.125 3.3438a1.9667 1.9667 0 0 0-0.3125 0.9375c-0.0955 1.5356-0.03101 3.1 0.15625 4.6562a1.9667 1.9667 0 0 0 0.625 1.2188c2.6409 2.3198 6.5768 3.7039 9.8438 5.0625 1.6335 0.67932 3.0955 1.3356 4 1.9062 0.01783 0.01125 0.01388 0.02007 0.03125 0.03125h-37.75c0.13497-0.13344 0.01883-0.09546 0.34375-0.3125 0.86608-0.57852 2.2911-1.2265 3.9062-1.875 3.2304-1.297 7.1571-2.5296 9.8438-4.7812a1.9667 1.9667 0 0 0 0.6875-1.1562c0.33319-1.9623 0.3498-3.7467 0.1875-5.4375a1.9667 1.9667 0 0 0-0.375-1c-0.74775-1.007-1.5572-2.0577-2.1875-3-0.61169-0.91444-1.0354-1.7591-1.125-2-0.0027-0.0073-0.02922-0.05635-0.03125-0.0625-0.09336-0.45507-0.14834-0.83979-0.25-1.3438a1.9667 1.9667 0 0 0-0.46875-0.9375c-0.19402-0.21388-0.2459-0.27148-0.0625-0.0625-0.38409-0.43648-0.71702-0.8815-0.9375-1.4062-0.33091-0.78758-0.43308-1.5789-0.40625-2.0312 0.01209-0.20378 0.02758-0.26535 0.03125-0.28125a1.9667 1.9667 0 0 0 0.78125-1.7188c-0.06084-0.73511-0.07883-1.4239-0.09375-2.0938 0-0.01055-4.1e-5 -0.02071 0-0.03125 0.01811-4.6678 4.0423-8.5312 9.1875-8.5312z" enable-background="new" opacity=".1"/>
  <path id="path4075" d="m59.125 39c-0.03056 0.60816-0.07778 1.2206-0.125 1.9062 0.02209 0.01675 0.04143 0.04403 0.0625 0.0625 0.03356-0.49022 0.07887-0.99564 0.09375-1.4375 0-0.18154-0.02162-0.35195-0.03125-0.53125zm-22.25 0.1875c-0.0041 0.11676-0.03125 0.22606-0.03125 0.34375 0.0089 0.39402 0.01433 0.83137 0.03125 1.2812 0.02004-0.01259 0.04169-0.02004 0.0625-0.03125-0.04736-0.5722-0.05177-1.1001-0.0625-1.5938zm22.781 4.1562c-0.06159 0.64763-0.22632 1.3368-0.53125 2.0625-0.29813 0.70957-0.68989 1.3139-1.0938 1.8125-0.13063 0.61672-0.2068 1.0943-0.375 1.8125-0.45765 1.3869-2.2574 4.1189-3.625 6.25-0.02074 0.33341 0.0072 0.66698 0 1 1.3676-2.1311 3.1674-4.8631 3.625-6.25 0.1682-0.71822 0.24437-1.1958 0.375-1.8125 0.40386-0.49864 0.79562-1.1029 1.0938-1.8125 0.47029-1.1193 0.62768-2.2066 0.53125-3.0625zm-23.5 0.03125c-0.0753 0.86257 0.07187 1.9379 0.53125 3.0312 0.33539 0.79826 0.819 1.4434 1.2812 1.9688 0.01541 0.01756 0.04697 0.04538 0.0625 0.0625 0.11034 0.54696 0.17906 0.97679 0.3125 1.5938 0.41339 1.2527 2.1208 3.5993 3.625 5.625 0.0375 0.39067 0.07686 0.79449 0.09375 1.1875 0.0081-0.73816-0.02467-1.4678-0.09375-2.1875-1.5042-2.0257-3.2116-4.3723-3.625-5.625-0.13344-0.61696-0.20216-1.0468-0.3125-1.5938-0.01553-0.01712-0.04709-0.04494-0.0625-0.0625-0.46225-0.52531-0.94586-1.1705-1.2812-1.9688-0.29768-0.70849-0.4614-1.3865-0.53125-2.0312zm-9.7812 26.625-0.15625 1h43.562l-0.15625-1h-43.25z" enable-background="new" fill="#fff" opacity=".4"/>
  <path id="path4093" d="m48 28c-6.1616 0-11.156 4.7221-11.156 10.531 0.01497 0.66573 0.02522 1.4219 0.09375 2.25-0.97511 0.5251-1.1198 2.5548-0.25 4.625 0.33539 0.79826 0.819 1.4434 1.2812 1.9688 0.01541 0.01756 0.04697 0.04538 0.0625 0.0625 0.11034 0.54696 0.17906 0.97679 0.3125 1.5938 0.41339 1.2527 2.1208 3.5993 3.625 5.625 0.15001 1.5627 0.14556 3.1287-0.15625 4.9062-4.3297 3.6286-15.392 5.2434-15.375 9l-0.21875 1.4375h43.562l-0.21875-1.4375c-0.01766-3.2151-11.13-5.2434-15.406-9-0.17316-1.439-0.21315-2.8639-0.125-4.2812 1.3676-2.1311 3.1674-4.8631 3.625-6.25 0.1682-0.71822 0.24437-1.1958 0.375-1.8125 0.40386-0.49864 0.79562-1.1029 1.0938-1.8125 0.82599-1.9659 0.71685-3.8617-0.125-4.5 0.05883-0.85421 0.13166-1.6449 0.15625-2.375 9e-6 -5.8091-4.9947-10.531-11.156-10.531zm0 1.0312c5.6216 0 10.107 4.267 10.125 9.4688 3.7e-5 0.01057 0 0.02067 0 0.03125-0.02407 0.67993-0.0972 1.4551-0.15625 2.3125a1.0346 1.0346 0 0 0 0.40625 0.875c0.04518 0.03425 0.25874 0.35399 0.28125 0.96875 0.02251 0.61476-0.1393 1.454-0.5 2.3125-0.25401 0.60457-0.58498 1.1273-0.9375 1.5625a1.0346 1.0346 0 0 0-0.1875 0.4375c-0.13111 0.619-0.19499 1.0732-0.34375 1.7188-0.0057 0.0249-0.02528 0.037-0.03125 0.0625-0.17908 0.51451-0.69473 1.4879-1.3438 2.5625-0.66469 1.1006-1.4696 2.305-2.1562 3.375a1.0346 1.0346 0 0 0-0.15625 0.5c-0.09202 1.4795-0.05558 2.9681 0.125 4.4688a1.0346 1.0346 0 0 0 0.34375 0.65625c2.4027 2.1105 6.3042 3.5069 9.5938 4.875 1.6448 0.68404 3.1226 1.3363 4.125 1.9688 0.5012 0.31621 0.88439 0.62788 1.0938 0.875s0.24943 0.39574 0.25 0.5a1.0346 1.0346 0 0 0 0 0.15625l0.03125 0.25h-41.125l0.03125-0.25a1.0346 1.0346 0 0 0 0-0.15625c-0.0019-0.43112 0.36568-0.97168 1.3438-1.625s2.4297-1.3132 4.0625-1.9688c3.2656-1.3112 7.1544-2.5806 9.5938-4.625a1.0346 1.0346 0 0 0 0.375-0.59375c0.31832-1.8747 0.31273-3.5574 0.15625-5.1875a1.0346 1.0346 0 0 0-0.1875-0.53125c-0.74982-1.0097-1.5713-2.0946-2.2188-3.0625-0.62324-0.9317-1.0949-1.7302-1.25-2.1562-0.0048-0.02234 0.0047-0.04063 0-0.0625-0.0024-7e-3 -0.02904-0.02456-0.03125-0.03125-0.1137-0.53754-0.17352-0.96597-0.28125-1.5a1.0346 1.0346 0 0 0-0.21875-0.46875c-0.10942-0.12063-0.15167-0.16411-0.0625-0.0625-0.42113-0.47858-0.81881-1.0331-1.0938-1.6875-0.38019-0.90488-0.5375-1.8053-0.5-2.4375 0.03749-0.63221 0.2648-0.86614 0.28125-0.875a1.0346 1.0346 0 0 0 0.53125-1c-0.06403-0.77373-0.07896-1.4915-0.09375-2.1562 0-0.01058-3.7e-5 -0.02068 0-0.03125 0.01815-5.2018 4.5034-9.4688 10.125-9.4688z" enable-background="new" opacity=".15"/>
  <path id="path4084" d="m48 28c-6.1616 0-11.156 4.7221-11.156 10.531 0.0046 0.2057 0.02645 0.43551 0.03125 0.65625 0.19658-5.6468 5.0883-10.188 11.125-10.188 5.969 0 10.826 4.4417 11.125 10 0.0075-0.14956 0.0264-0.32465 0.03125-0.46875 9e-6 -5.8091-4.9947-10.531-11.156-10.531zm-11.125 12.812c-0.59755 0.37538-0.84864 1.3636-0.71875 2.5625 0.06727-0.77061 0.32115-1.346 0.78125-1.5938-0.02797-0.33797-0.05083-0.6585-0.0625-0.96875zm22.188 0.15625c-0.02189 0.31974-0.03928 0.60029-0.0625 0.9375 0.35676 0.2705 0.57971 0.77357 0.65625 1.4062 0.0939-1.0468-0.11304-1.9224-0.59375-2.3438zm-17 16.062c-0.01761 0.80549-0.09909 1.6425-0.25 2.5312-4.3297 3.6286-15.392 5.2434-15.375 9l-0.21875 1.4375h0.15625l0.0625-0.4375c-0.0166-3.7566 11.045-5.3714 15.375-9 0.21445-1.263 0.28743-2.4113 0.25-3.5312zm11.938 0.71875c-0.0017 0.92679 0.04294 1.8709 0.15625 2.8125 4.2766 3.7566 15.389 5.7849 15.406 9l0.0625 0.4375h0.15625l-0.21875-1.4375c-0.01766-3.2151-11.13-5.2434-15.406-9-0.07298-0.60652-0.13183-1.2137-0.15625-1.8125z" enable-background="new" opacity=".5"/>
 </g>
</svg>
