<?xml version="1.0" encoding="UTF-8"?>
<svg id="svg2408" width="96" height="96" version="1.0" xmlns="http://www.w3.org/2000/svg" xmlns:cc="http://creativecommons.org/ns#" xmlns:dc="http://purl.org/dc/elements/1.1/" xmlns:rdf="http://www.w3.org/1999/02/22-rdf-syntax-ns#" xmlns:xlink="http://www.w3.org/1999/xlink">
 <defs id="defs2410">
  <linearGradient id="linearGradient3994">
   <stop id="stop3996" stop-color="#fff" offset="0"/>
   <stop id="stop3998" stop-color="#fff" stop-opacity="0" offset="1"/>
  </linearGradient>
  <linearGradient id="ButtonShadow" x1="45.448" x2="45.448" y1="92.54" y2="7.0165" gradientTransform="scale(1.0059 .99417)" gradientUnits="userSpaceOnUse">
   <stop id="stop3750" offset="0"/>
   <stop id="stop3752" stop-opacity=".58824" offset="1"/>
  </linearGradient>
  <filter id="filter3174" color-interpolation-filters="sRGB">
   <feGaussianBlur id="feGaussianBlur3176" stdDeviation="1.71"/>
  </filter>
  <linearGradient id="linearGradient3188" x1="36.357" x2="36.357" y1="6" y2="63.893" gradientUnits="userSpaceOnUse" xlink:href="#linearGradient3994"/>
  <filter id="filter3794" x="-.192" y="-.192" width="1.384" height="1.384" color-interpolation-filters="sRGB">
   <feGaussianBlur id="feGaussianBlur3796" stdDeviation="5.28"/>
  </filter>
  <linearGradient id="linearGradient3613" x1="48" x2="48" y1="20.221" y2="138.66" gradientUnits="userSpaceOnUse" xlink:href="#linearGradient3994"/>
  <clipPath id="clipPath3613">
   <rect id="rect3615" x="6" y="6" width="84" height="84" rx="6" ry="6" fill="#fff"/>
  </clipPath>
  <linearGradient id="ButtonShadow-0" x1="45.448" x2="45.448" y1="92.54" y2="7.0165" gradientTransform="matrix(1.0059 0 0 .99417 100 0)" gradientUnits="userSpaceOnUse">
   <stop id="stop3750-8" offset="0"/>
   <stop id="stop3752-5" stop-opacity=".58824" offset="1"/>
  </linearGradient>
  <linearGradient id="linearGradient3780" x1="32.251" x2="32.251" y1="6.1317" y2="90.239" gradientTransform="matrix(1.0238 0 0 1.0119 -1.1429 -98.071)" gradientUnits="userSpaceOnUse" xlink:href="#ButtonShadow-0"/>
  <linearGradient id="linearGradient3721" x1="32.251" x2="32.251" y1="6.1317" y2="90.239" gradientTransform="translate(0,-97)" gradientUnits="userSpaceOnUse" xlink:href="#ButtonShadow-0"/>
  <linearGradient id="linearGradient4000" x1="40" x2="40" y1="6" y2="14" gradientUnits="userSpaceOnUse" xlink:href="#linearGradient3994"/>
  <linearGradient id="linearGradient3617-3" x1="48" x2="48" y1="90" y2="5.9877" gradientUnits="userSpaceOnUse">
   <stop id="stop3702-7" stop-color="#d29900" offset="0"/>
   <stop id="stop3704-5" stop-color="#ffbe0f" offset="1"/>
  </linearGradient>
  <linearGradient id="linearGradient3617-3-6-9" x1="48" x2="48" y1="90" y2="5.9877" gradientTransform="matrix(1.0095 0 0 1.012 -.85246 -1.0771)" gradientUnits="userSpaceOnUse">
   <stop id="stop4729" stop-color="#fada80" offset="0"/>
   <stop id="stop4731" stop-color="#fada80" offset="1"/>
  </linearGradient>
  <radialGradient id="radialGradient4702-1" cx="48" cy="90.172" r="42" gradientTransform="matrix(1.1573 0 0 .99591 -7.5509 .19713)" gradientUnits="userSpaceOnUse" xlink:href="#linearGradient3994"/>
 </defs>
 <metadata id="metadata2413">
  <rdf:RDF>
   <cc:Work rdf:about="">
    <dc:format>image/svg+xml</dc:format>
    <dc:type rdf:resource="http://purl.org/dc/dcmitype/StillImage"/>
    <dc:title/>
   </cc:Work>
  </rdf:RDF>
 </metadata>
 <g id="layer2" display="none">
  <rect id="rect3745" x="5" y="7" width="86" height="85" rx="6" ry="6" fill="url(#ButtonShadow)" filter="url(#filter3174)" opacity=".9"/>
 </g>
 <g id="layer3">
  <path id="path3786" transform="scale(1,-1)" d="m12-95.031c-5.5111 0-10.031 4.5202-10.031 10.031v71c0 5.5111 4.5202 10.031 10.031 10.031h72c5.5111 0 10.031-4.5202 10.031-10.031v-54.5l-27.188-26.531z" fill="url(#linearGradient3780)" opacity=".08"/>
  <path id="path3778" transform="scale(1,-1)" d="m12-94.031c-4.9716 0-9.0312 4.0596-9.0312 9.0312v71c0 4.9716 4.0596 9.0312 9.0312 9.0312h72c4.9716 0 9.0312-4.0596 9.0312-9.0312v-53.893l-26.762-26.139z" fill="url(#linearGradient3780)" opacity=".1"/>
  <path id="path3770" transform="scale(1,-1)" d="m12-93c-4.4091 0-8 3.5909-8 8v71c0 4.4091 3.5909 8 8 8h72c4.4091 0 8-3.5909 8-8v-53.4l-26.261-25.6z" fill="url(#linearGradient3780)" opacity=".2"/>
  <path id="rect3723" transform="scale(1,-1)" d="m12-92h53.275l25.725 25.144v52.856c0 3.878-3.122 7-7 7h-72c-3.878 0-7-3.122-7-7v-71c0-3.878 3.122-7 7-7z" fill="url(#linearGradient3780)" opacity=".3"/>
  <path id="rect3716" transform="scale(1,-1)" d="m12-91h52.877l25.123 24.5v53.5c0 3.324-2.676 6-6 6h-72c-3.324 0-6-2.676-6-6v-72c0-3.324 2.676-6 6-6z" fill="url(#linearGradient3721)" opacity=".45"/>
 </g>
 <g id="layer1">
  <path id="rect3728" d="m12 6c-3.324 0-6 2.676-6 6v72c0 0.33472 0.04135 0.6507 0.09375 0.96875 0.0487 0.2956 0.09704 0.59692 0.1875 0.875 0.00988 0.03038 0.020892 0.0636 0.03125 0.09375 0.098865 0.28777 0.23488 0.54745 0.375 0.8125 0.14459 0.27351 0.31562 0.53562 0.5 0.78125s0.37378 0.47347 0.59375 0.6875c0.43995 0.42806 0.94291 0.81453 1.5 1.0938 0.27854 0.13961 0.57347 0.24695 0.875 0.34375-0.2562-0.10022-0.48671-0.23627-0.71875-0.375-0.00741-0.0044-0.023866 0.0045-0.03125 0-0.031933-0.0193-0.062293-0.04251-0.09375-0.0625-0.1204-0.0767-0.23102-0.16351-0.34375-0.25-0.10617-0.0808-0.21328-0.16111-0.3125-0.25-0.17793-0.16143-0.34746-0.34539-0.5-0.53125-0.10758-0.13026-0.21839-0.26528-0.3125-0.40625-0.025089-0.03838-0.038446-0.08587-0.0625-0.125-0.064763-0.10303-0.13023-0.20452-0.1875-0.3125-0.10101-0.19471-0.20567-0.4157-0.28125-0.625-0.00796-0.02181-0.023589-0.04055-0.03125-0.0625-0.031825-0.09195-0.035804-0.18683-0.0625-0.28125-0.030332-0.10662-0.070389-0.20303-0.09375-0.3125-0.072879-0.34151-0.125-0.6982-0.125-1.0625v-72c0-2.7818 2.2182-5 5-5h72c2.7818 0 5 2.2182 5 5v72c0 0.3643-0.05212 0.72099-0.125 1.0625-0.04415 0.20689-0.08838 0.39766-0.15625 0.59375-0.0077 0.02195-0.0233 0.04069-0.03125 0.0625-0.06274 0.17374-0.13838 0.36745-0.21875 0.53125-0.04158 0.0828-0.07904 0.16995-0.125 0.25-0.0546 0.09721-0.12677 0.18835-0.1875 0.28125-0.09411 0.14096-0.20492 0.276-0.3125 0.40625-0.14317 0.17445-0.30314 0.347-0.46875 0.5-0.01117 0.0102-0.01998 0.02115-0.03125 0.03125-0.13839 0.12556-0.28509 0.23444-0.4375 0.34375-0.10257 0.07315-0.20432 0.15336-0.3125 0.21875-0.0074 0.0045-0.02384-0.0044-0.03125 0-0.23204 0.13873-0.46255 0.27478-0.71875 0.375 0.30153-0.0968 0.59646-0.20414 0.875-0.34375 0.55709-0.27922 1.0601-0.66569 1.5-1.0938 0.21997-0.21403 0.40937-0.44186 0.59375-0.6875s0.35541-0.50774 0.5-0.78125c0.14012-0.26505 0.27614-0.52473 0.375-0.8125 0.01041-0.03078 0.02133-0.06274 0.03125-0.09375 0.09046-0.27808 0.1388-0.5794 0.1875-0.875 0.0524-0.31805 0.09375-0.63403 0.09375-0.96875v-72c0-3.324-2.676-6-6-6z" fill="url(#linearGradient3188)" opacity=".15"/>
  <path id="path3985" d="m12 6c-3.324 0-6 2.676-6 6v2h84v-2c0-3.324-2.676-6-6-6h-58z" fill="url(#linearGradient4000)" opacity=".3"/>
  <g id="layer1-9">
   <path id="rect2419-1" d="m12 6h72c3.324 0 6 2.676 6 6l1e-6 53.681-24.914 24.319-53.086 5.2e-5c-3.324 3e-6 -6-2.676-6-6v-72c0-3.324 2.676-6 6-6z" fill="url(#linearGradient3617-3)"/>
   <path id="rect2419-1-1-6-8-1-7-2" d="m67.177 63.681c-3.3555-0.0095-6.0909 2.7042-6.0909 6.068-0.0373 5.6069-0.0015 20.251-0.0015 20.251l4.0012-5.2e-5 24.914-24.319-1e-6 -2.0002s-15.328 1.58e-4 -22.823 1.58e-4z" fill-opacity=".066667"/>
   <path id="rect2419-1-1-6-8-1-7" d="m68.177 64.681c-3.3555-0.0095-6.0909 2.7042-6.0909 6.068-0.0373 5.6069-0.0015 19.251-0.0015 19.251l3.0012-5.2e-5 24.914-24.319-1e-6 -1.0002s-14.328 1.58e-4 -21.823 1.58e-4z" fill-opacity=".14902"/>
   <path id="rect2419-1-1-6-8-1" d="m69.177 65.681c-3.3555-0.0095-6.0909 2.7042-6.0909 6.068-0.0373 5.6069-0.0015 18.251-0.0015 18.251l2.0012-5.2e-5 24.914-24.319c-6.9825-2.65e-4 -13.942-1.4e-5 -20.823-9e-6z" fill-opacity=".29412"/>
   <path id="rect2419-1-1-6-8" d="m70.177 65.681c-3.3555-0.0095-6.0909 2.7042-6.0909 6.068-0.037303 5.6069-0.001452 18.251-0.001452 18.251l1.0012-5.2e-5 24.914-24.319c-6.7947 5.66e-4 -13.568-0.0055-19.823-9e-6z" fill-opacity=".47843"/>
   <path id="rect3728-2" d="m12 6c-3.324 0-6 2.676-6 6v72c0 0.33472 0.04135 0.6507 0.09375 0.96875 0.0487 0.2956 0.09704 0.59692 0.1875 0.875 0.00988 0.03038 0.020892 0.0636 0.03125 0.09375 0.098865 0.28777 0.23488 0.54745 0.375 0.8125 0.14459 0.27351 0.31562 0.53562 0.5 0.78125s0.37378 0.47347 0.59375 0.6875c0.43995 0.42806 0.94291 0.81453 1.5 1.0938 0.27854 0.13961 0.57347 0.24695 0.875 0.34375-0.2562-0.10022-0.48671-0.23627-0.71875-0.375-0.00741-0.0044-0.023866 0.0045-0.03125 0-0.031933-0.0193-0.062293-0.04251-0.09375-0.0625-0.1204-0.0767-0.23102-0.16351-0.34375-0.25-0.10617-0.0808-0.21328-0.16111-0.3125-0.25-0.17793-0.16143-0.34746-0.34539-0.5-0.53125-0.10758-0.13026-0.21839-0.26528-0.3125-0.40625-0.025089-0.03838-0.038446-0.08587-0.0625-0.125-0.064763-0.10303-0.13023-0.20452-0.1875-0.3125-0.10101-0.19471-0.20567-0.4157-0.28125-0.625-0.00796-0.02181-0.023589-0.04055-0.03125-0.0625-0.031825-0.09195-0.035804-0.18683-0.0625-0.28125-0.030332-0.10662-0.070389-0.20303-0.09375-0.3125-0.072879-0.34151-0.125-0.6982-0.125-1.0625v-72c0-2.7818 2.2182-5 5-5h72c2.7818 0 5 2.2182 5 5v72c0 0.3643-0.05212 0.72099-0.125 1.0625-0.04415 0.20689-0.08838 0.39766-0.15625 0.59375-0.0077 0.02195-0.0233 0.04069-0.03125 0.0625-0.06274 0.17374-0.13838 0.36745-0.21875 0.53125-0.04158 0.0828-0.07904 0.16995-0.125 0.25-0.0546 0.09721-0.12677 0.18835-0.1875 0.28125-0.09411 0.14096-0.20492 0.276-0.3125 0.40625-0.14317 0.17445-0.30314 0.347-0.46875 0.5-0.01117 0.0102-0.01998 0.02115-0.03125 0.03125-0.13839 0.12556-0.28509 0.23444-0.4375 0.34375-0.10257 0.07315-0.20432 0.15336-0.3125 0.21875-0.0074 0.0045-0.02384-0.0044-0.03125 0-0.23204 0.13873-0.46255 0.27478-0.71875 0.375 0.30153-0.0968 0.59646-0.20414 0.875-0.34375 0.55709-0.27922 1.0601-0.66569 1.5-1.0938 0.21997-0.21403 0.40937-0.44186 0.59375-0.6875s0.35541-0.50774 0.5-0.78125c0.14012-0.26505 0.27614-0.52473 0.375-0.8125 0.01041-0.03078 0.02133-0.06274 0.03125-0.09375 0.09046-0.27808 0.1388-0.5794 0.1875-0.875 0.0524-0.31805 0.09375-0.63403 0.09375-0.96875v-72c0-3.324-2.676-6-6-6z" fill="url(#linearGradient3188)" opacity=".4"/>
   <path id="rect2419-1-1-6" d="m71.177 65.681c-3.3555-0.0095-6.0909 2.7042-6.0909 6.068-0.0421 6.3279 0 18.251 0 18.251l24.914-24.319s-10.603-0.0081-18.823-1.08e-4z" fill="url(#linearGradient3617-3-6-9)"/>
   <path id="path3615-7-7" d="m10.156 6.3438c-0.30153 0.0968-0.59646 0.20414-0.875 0.34375-0.55709 0.27922-1.0601 0.66569-1.5 1.0938-0.21997 0.21403-0.40937 0.44186-0.59375 0.6875s-0.35541 0.50774-0.5 0.78125c-0.14012 0.26505-0.27614 0.52473-0.375 0.8125-0.01036 0.03015-0.02137 0.06337-0.03125 0.09375-0.09046 0.27808-0.1388 0.5794-0.1875 0.875-0.0524 0.31805-0.09375 0.63403-0.09375 0.96875v72c0 3.324 2.676 6 6 6l53.086-5.2e-5 1-0.9687v-16.354c0-3.2493 2.2181-5.9348 5-5.9348h17.828l1.0956-1.0729-0.009799-51.67v-2c0-0.33472-0.0413-0.6507-0.0937-0.96875-0.0487-0.2956-0.097-0.59692-0.1875-0.875-0.01-0.03101-0.0208-0.06297-0.0312-0.09375-0.0989-0.28777-0.23488-0.54745-0.375-0.8125-0.1446-0.27351-0.31562-0.53562-0.5-0.78125-0.18439-0.24564-0.37378-0.47347-0.59375-0.6875-0.43995-0.42806-0.94291-0.81453-1.5-1.0938-0.27855-0.13961-0.57348-0.24695-0.875-0.34375 0.2562 0.10022 0.48671 0.23627 0.71875 0.375 7e-3 0.0044 0.0238-0.0045 0.0312 0 0.10818 0.06539 0.20993 0.1456 0.3125 0.21875 0.15241 0.10931 0.29911 0.21819 0.4375 0.34375 0.0113 0.0101 0.0201 0.02105 0.0312 0.03125 0.16561 0.153 0.32557 0.32555 0.46875 0.5 0.10758 0.13026 0.21839 0.26528 0.3125 0.40625 0.0607 0.0929 0.1329 0.18404 0.1875 0.28125 0.046 0.08005 0.0834 0.1672 0.125 0.25 0.0804 0.1638 0.15601 0.35751 0.21875 0.53125 8e-3 0.02181 0.0236 0.04055 0.0312 0.0625 0.0679 0.19609 0.1121 0.38686 0.15625 0.59375 0.0729 0.34151 0.125 0.6982 0.125 1.0625v2l0.01 52.678h-17.924c-3.2417 0-6 2.7112-6 6v16.322h-53.086c-2.7818 0-5-2.2182-5-5v-72c0-0.3643 0.05212-0.72099 0.125-1.0625 0.02336-0.10947 0.06342-0.20588 0.09375-0.3125 0.0267-0.09442 0.03067-0.1893 0.0625-0.28125 0.0077-0.02195 0.02329-0.04069 0.03125-0.0625 0.07558-0.2093 0.18024-0.43029 0.28125-0.625 0.05727-0.10798 0.12274-0.20947 0.1875-0.3125 0.02405-0.03913 0.03741-0.08662 0.0625-0.125 0.09411-0.14096 0.20492-0.276 0.3125-0.40625 0.15254-0.18586 0.32207-0.36982 0.5-0.53125 0.09922-0.08889 0.20633-0.1692 0.3125-0.25 0.11273-0.08649 0.22336-0.1733 0.34375-0.25 0.03146-0.01999 0.06182-0.0432 0.09375-0.0625 0.0074-0.0045 0.02384 0.0044 0.03125 0 0.23204-0.13873 0.46255-0.27478 0.71875-0.375z" fill="url(#radialGradient4702-1)" opacity=".2"/>
  </g>
 </g>
 <g id="layer5">
  <rect id="rect3171" x="15" y="15" width="66" height="66" rx="12" ry="12" clip-path="url(#clipPath3613)" fill="url(#linearGradient3613)" filter="url(#filter3794)" opacity=".08" stroke="#fff" stroke-linecap="round" stroke-width=".5"/>
 </g>
 <path id="path5047-4-7" d="m47.893 21.157c-10.74 0-20.498 8.5014-20.498 18.988 0 6.916 3.438 15.112 9.0973 18.432v14.173c0 0.56863 0.46882 1.0264 1.0512 1.0264h2.8545v2.6097c0 0.56863 0.46882 1.0264 1.0512 1.0264 4.1865 0.06658 9.7543-0.0326 13.237 0.02205 0.58234 0 1.0512-0.47983 1.0512-1.0485v-2.6097c0.01899-2e-4 1.6154-0.02004 2.5557-0.02004 0.58234 0 1.0512-0.45778 1.0512-1.0264-6.97e-4 -1.1261 0.0075-2.6397 0-3.6902 0-0.0028-2e-3 -0.0052-0.0021-8e-3l-0.0657-10.455c5.6594-3.32 8.9762-11.516 8.9762-18.432 0-10.487-9.6201-18.988-20.36-18.988zm-0.05824 7.6658c5.9243-0.17208 12.908 3.438 13.186 11.597 2.32e-4 6.1187-4.3188 10.373-9.767 12.58v4l-6.722-4.35e-4v-4c-5.4474-2.2079-9.4847-6.4619-9.4845-12.58 0.72237-8.2409 7.7292-11.45 12.787-11.597z" fill="#666" fill-opacity=".078431"/>
 <path id="path5047-4" d="m48 21.82c-0.64266 0-1.2766 0.03175-1.9023 0.0957-0.01515 0.0015-0.02979 0.0043-0.04492 0.0059-9.4194 0.96793-17.553 8.835-17.553 18.398 0 6.7381 3.6513 14.25 9.0352 17.484v13.99c0 0.554 0.446 1 1 1h2.9258v2.5683c0 0.554 0.446 1 1 1 3.9827 0.06487 8.0557-0.03176 11.369 0.02148 0.554 0 1-0.46748 1-1.0215v-2.5683c0.01807-1.96e-4 1.789-0.01953 2.6836-0.01953 0.554 0 1-0.446 1-1-6.63e-4 -1.0972 0.0071-2.2792 0-3.3027 0-0.0028-0.0019-5e-3 -2e-3 -0.0078l-0.0625-10.66c5.3839-3.2346 8.9199-10.746 8.9199-17.484 0-9.5312-7.9664-17.372-17.33-18.383-0.04668-5e-3 -0.09193-0.01678-0.13867-0.02148-0.62515-0.06383-1.2584-0.0957-1.9004-0.0957zm-0.65234 5.9746c8.2192-0.35759 13.462 5.0309 14.838 10.719 0.07476 0.5927 0.12698 1.1936 0.12695 1.8066 2.16e-4 5.866-3.5366 10.893-8.5879 13.102-0.40236 0.16906-0.80696 0.33555-1.2441 0.47852v4.3477h-8.9609v-4.3477c-0.41434-0.14308-0.79309-0.29212-1.168-0.44336-5.0917-2.1913-8.6623-7.2415-8.6621-13.137-1.6e-5 -0.43207 0.02698-0.85892 0.06445-1.2812 1.4511-8.418 9.7608-11.053 13.594-11.244zm-3.8281 36.275h8.9609v2.2461h-8.9609z" fill="#242424" fill-opacity=".21961"/>
 <path id="path5047-7" d="m48 21.819c-10.217 0-18.5 8.2827-18.5 18.5 0 6.7381 3.6142 13.946 8.998 17.181v14.11h4.0234v3.5706h10.959v-3.5706h4.0215v-14.11c5.3839-3.2346 8.998-10.443 8.998-17.181 0-10.217-8.2827-18.5-18.5-18.5zm0 5.1807c7.9047-2.86e-4 14.313 5.4146 14.312 13.319 2.2e-4 5.9613-3.649 11.062-8.832 13.213v4.7148h-10.961v-4.7148c-5.1822-2.1511-8.8303-7.2522-8.8301-13.213-2.9e-4 -7.9039 6.4066-13.319 14.311-13.319zm-5.4805 36.071h10.961v3.2444h-10.961z" fill="#111" fill-opacity=".46275"/>
 <path id="path5047" d="m48 21.819c-10.217 0-18.5 8.2827-18.5 18.5 0 6.7381 3.6142 12.617 8.998 15.852v14.121h4.0234v3.8887h10.959v-3.8887h4.0215v-14.121c5.3839-3.2346 8.998-9.1134 8.998-15.852 0-10.217-8.2827-18.5-18.5-18.5zm0 4.1875c7.9047-2.86e-4 14.313 6.4078 14.312 14.312 2.2e-4 5.9613-3.649 11.062-8.832 13.213v4.7148h-10.961v-4.7148c-5.1822-2.1511-8.8303-7.2522-8.8301-13.213-2.9e-4 -7.9039 6.4066-14.312 14.311-14.312zm-5.4805 36.064h10.961v4.2441h-10.961z" fill="#fff"/>
</svg>
