<?xml version="1.0" encoding="UTF-8"?>
<!-- Created with Inkscape (http://www.inkscape.org/) -->
<svg id="svg2408" width="96" height="96" version="1.0" xmlns="http://www.w3.org/2000/svg" xmlns:cc="http://creativecommons.org/ns#" xmlns:dc="http://purl.org/dc/elements/1.1/" xmlns:rdf="http://www.w3.org/1999/02/22-rdf-syntax-ns#" xmlns:xlink="http://www.w3.org/1999/xlink">
 <defs id="defs2410">
  <linearGradient id="linearGradient4885">
   <stop id="stop4887" stop-color="#fff" offset="0"/>
   <stop id="stop4889" stop-color="#fff" stop-opacity="0" offset="1"/>
  </linearGradient>
  <linearGradient id="ButtonShadow" x1="45.448" x2="45.448" y1="92.54" y2="7.0165" gradientTransform="scale(1.0059 .99417)" gradientUnits="userSpaceOnUse">
   <stop id="stop3750" offset="0"/>
   <stop id="stop3752" stop-opacity=".58824" offset="1"/>
  </linearGradient>
  <filter id="filter3174">
   <feGaussianBlur id="feGaussianBlur3176" stdDeviation="1.71"/>
  </filter>
  <linearGradient id="linearGradient3188" x1="36.357" x2="36.357" y1="6" y2="63.893" gradientUnits="userSpaceOnUse" xlink:href="#linearGradient4885"/>
  <filter id="filter3794" x="-.192" y="-.192" width="1.384" height="1.384">
   <feGaussianBlur id="feGaussianBlur3796" stdDeviation="5.28"/>
  </filter>
  <linearGradient id="linearGradient3613" x1="48" x2="48" y1="20.221" y2="138.66" gradientUnits="userSpaceOnUse" xlink:href="#linearGradient4885"/>
  <radialGradient id="radialGradient3619" cx="48" cy="90.172" r="42" gradientTransform="matrix(1.1573 0 0 .99591 -7.551 .19713)" gradientUnits="userSpaceOnUse" xlink:href="#linearGradient4885"/>
  <clipPath id="clipPath3613">
   <rect id="rect3615" x="6" y="6" width="84" height="84" rx="6" ry="6" fill="#fff"/>
  </clipPath>
  <linearGradient id="linearGradient3617" x1="48" x2="48" y1="90" y2="5.9877" gradientUnits="userSpaceOnUse">
   <stop id="stop3702" stop-color="#3b3b3b" offset="0"/>
   <stop id="stop3704" stop-color="#5d5d5d" offset="1"/>
  </linearGradient>
  <linearGradient id="ButtonShadow-0" x1="45.448" x2="45.448" y1="92.54" y2="7.0165" gradientTransform="matrix(1.0059 0 0 .99417 100 0)" gradientUnits="userSpaceOnUse">
   <stop id="stop3750-8" offset="0"/>
   <stop id="stop3752-5" stop-opacity=".58824" offset="1"/>
  </linearGradient>
  <linearGradient id="linearGradient3780" x1="32.251" x2="32.251" y1="6.1317" y2="90.239" gradientTransform="matrix(1.0238 0 0 1.0119 -1.1429 -98.071)" gradientUnits="userSpaceOnUse" xlink:href="#ButtonShadow-0"/>
  <linearGradient id="linearGradient3721" x1="32.251" x2="32.251" y1="6.1317" y2="90.239" gradientTransform="translate(0,-97)" gradientUnits="userSpaceOnUse" xlink:href="#ButtonShadow-0"/>
  <clipPath id="clipPath3769">
   <path id="path3771" d="m189.21 356.08h33v-76.898h-33v76.898z"/>
  </clipPath>
  <clipPath id="clipPath3773">
   <path id="path3775" d="m189.13 356.08h33.081v-77.999h-33.081v77.999z"/>
  </clipPath>
  <linearGradient id="linearGradient3781" x2="1" gradientTransform="matrix(13.958 29.902 29.902 -13.958 199.79 311.26)" gradientUnits="userSpaceOnUse">
   <stop id="stop3783" stop-color="#353435" offset="0"/>
   <stop id="stop3785" stop-color="#7d7e81" offset="1"/>
  </linearGradient>
  <mask id="mask3787" x="0" y="0" width="1" height="1" maskUnits="userSpaceOnUse">
   <g id="g3789">
    <g id="g3791" clip-path="url(#clipPath3769)">
     <path id="path3793" d="m189.13 356.08h33.081v-77.999h-33.081v77.999z"/>
     <g id="g3795">
      <g id="g3799">
       <g id="g3801" clip-path="url(#clipPath3773)">
        <g id="g3803">
         <g id="g3805">
          <g id="g3807">
           <g id="g3809">
            <path id="path3811" d="m222.21 356.08s-29.5-4.584-33-54.333c0 0-0.081-18.999 6.833-22.499 0 0 3.834-1.167 3.417 6.333 0 0-1.083 10.501 0.917 28.418 0 0 2.083 26.666 21.833 42.081" fill="url(#linearGradient3781)"/>
           </g>
          </g>
         </g>
        </g>
       </g>
      </g>
     </g>
    </g>
   </g>
  </mask>
  <clipPath id="clipPath3817">
   <path id="path3819" d="m189.21 356.08h33v-76.898h-33v76.898z"/>
  </clipPath>
  <radialGradient id="radialGradient4491" cx="48" cy="43.451" r="16" gradientTransform="matrix(1.2289 9.2437e-8 -8.7665e-8 1.1655 -10.987 -7.3875)" gradientUnits="userSpaceOnUse">
   <stop id="stop5406" stop-color="#9fd3f0" offset="0"/>
   <stop id="stop5408" stop-color="#6ea5da" offset=".54891"/>
   <stop id="stop5410" stop-color="#1457ad" offset="1"/>
  </radialGradient>
  <radialGradient id="radialGradient4537" cx="35.358" cy="53.368" r="16.578" gradientTransform="matrix(2.1768 -.11351 .22238 4.2646 -53.476 -171.09)" gradientUnits="userSpaceOnUse">
   <stop id="stop3383" stop-color="#91dd96" offset="0"/>
   <stop id="stop3385" stop-color="#00ad00" offset=".68129"/>
   <stop id="stop3389" stop-color="#008008" offset="1"/>
  </radialGradient>
  <radialGradient id="radialGradient4539" cx="59.228" cy="63.093" r="28.913" gradientTransform="matrix(1.8084 -.75379 .4295 1.0304 -74.976 43.043)" gradientUnits="userSpaceOnUse">
   <stop id="stop2965" stop-color="#fff055" offset="0"/>
   <stop id="stop2967" stop-color="#f4cf12" offset=".61771"/>
   <stop id="stop2971" stop-color="#d0ae1a" offset="1"/>
  </radialGradient>
  <radialGradient id="radialGradient4644" cx="51.718" cy="56.274" r="42" gradientTransform="matrix(1.5247 .22619 -.11578 .78049 -20.62 84.75)" gradientUnits="userSpaceOnUse">
   <stop id="stop4519" stop-color="#f7010b" offset="0"/>
   <stop id="stop4521" stop-color="#d90000" offset=".72124"/>
   <stop id="stop4525" stop-color="#be0201" offset="1"/>
  </radialGradient>
  <linearGradient id="linearGradient4662" x1="48" x2="48" y1="16" y2="120" gradientUnits="userSpaceOnUse" xlink:href="#linearGradient4885"/>
  <linearGradient id="linearGradient4891" x1="93.592" x2="74.199" y1="94.933" y2="73.323" gradientUnits="userSpaceOnUse" xlink:href="#linearGradient4885"/>
  <linearGradient id="linearGradient4952" x1="16" x2="16" y1="40" y2="16" gradientUnits="userSpaceOnUse" xlink:href="#linearGradient4885"/>
  <linearGradient id="linearGradient5006" x1="51.053" x2="51.002" y1="18.32" y2="9.5856" gradientUnits="userSpaceOnUse" xlink:href="#linearGradient4885"/>
  <linearGradient id="linearGradient5008" x1="40.402" x2="39.755" y1="22.633" y2="7.8012" gradientUnits="userSpaceOnUse" xlink:href="#linearGradient4885"/>
  <linearGradient id="linearGradient5354" x1="41.373" x2="42.255" y1="54.806" y2="23.164" gradientTransform="matrix(-.5 .86603 -.86603 -.5 113.39 30.749)" gradientUnits="userSpaceOnUse" xlink:href="#linearGradient4885"/>
  <radialGradient id="radialGradient5356" cx="48" cy="44.647" r="16" gradientTransform="matrix(.26898 1.0038 -.98503 .26394 81.902 -12.727)" gradientUnits="userSpaceOnUse">
   <stop id="stop4495" stop-color="#a9d8f2" offset="0"/>
   <stop id="stop5024" stop-color="#6ea5da" offset=".5"/>
   <stop id="stop4497" stop-color="#165ebb" offset="1"/>
  </radialGradient>
  <linearGradient id="linearGradient5386" x1="51.777" x2="43.294" y1="4.5842" y2="33.166" gradientTransform="matrix(11.845 198.37 355.45 -21.224 267.39 289.71)" gradientUnits="userSpaceOnUse">
   <stop id="stop5378" stop-color="#f7010b" offset="0"/>
   <stop id="stop5380" stop-color="#d90000" offset=".72124"/>
   <stop id="stop5384" stop-color="#be0201" offset="1"/>
  </linearGradient>
  <linearGradient id="linearGradient5394" x1="48" x2="62.175" y1="16" y2="56.563" gradientUnits="userSpaceOnUse" xlink:href="#linearGradient4885"/>
  <linearGradient id="linearGradient5396" x1="48" x2="47.768" y1="16" y2="79.8" gradientUnits="userSpaceOnUse" xlink:href="#linearGradient4885"/>
  <clipPath id="clipPath5400">
   <path id="path5402" d="m-5.2423 19.004 37.351-10.157 8.8463 10.812 36.696 15.727 15.071-19.331 1.6382 39.645-9.5016 2.2935-10.485-3.9317-12.45 20.314-21.624 5.2423 13.433 17.365-25.884-1.6382-8.5187-13.106 8.191-18.02-6.5528-15.727 3.9317-20.969-28.832 4.9146-1.3106-13.433z" fill="#f0f"/>
  </clipPath>
  <linearGradient id="linearGradient4160" x1="47.846" x2="47.846" y1="63.867" y2="27.042" gradientUnits="userSpaceOnUse" xlink:href="#linearGradient4885"/>
 </defs>
 <metadata id="metadata2413">
  <rdf:RDF>
   <cc:Work rdf:about="">
    <dc:format>image/svg+xml</dc:format>
    <dc:type rdf:resource="http://purl.org/dc/dcmitype/StillImage"/>
    <dc:title/>
   </cc:Work>
  </rdf:RDF>
 </metadata>
 <g id="layer2" display="none">
  <rect id="rect3745" x="5" y="7" width="86" height="85" rx="6" ry="6" fill="url(#ButtonShadow)" filter="url(#filter3174)" opacity=".9"/>
 </g>
 <g id="layer3">
  <path id="path3786" transform="scale(1,-1)" d="m12-95.031c-5.5111 0-10.031 4.5202-10.031 10.031v71c0 5.5111 4.5202 10.031 10.031 10.031h72c5.5111 0 10.031-4.5202 10.031-10.031v-71c0-5.5111-4.5202-10.031-10.031-10.031h-72z" fill="url(#linearGradient3780)" opacity=".08"/>
  <path id="path3778" transform="scale(1,-1)" d="m12-94.031c-4.9716 0-9.0312 4.0596-9.0312 9.0312v71c0 4.9716 4.0596 9.0312 9.0312 9.0312h72c4.9716 0 9.0312-4.0596 9.0312-9.0312v-71c0-4.9716-4.0596-9.0312-9.0312-9.0312h-72z" fill="url(#linearGradient3780)" opacity=".1"/>
  <path id="path3770" transform="scale(1,-1)" d="m12-93c-4.4091 0-8 3.5909-8 8v71c0 4.4091 3.5909 8 8 8h72c4.4091 0 8-3.5909 8-8v-71c0-4.4091-3.5909-8-8-8h-72z" fill="url(#linearGradient3780)" opacity=".2"/>
  <rect id="rect3723" transform="scale(1,-1)" x="5" y="-92" width="86" height="85" rx="7" ry="7" fill="url(#linearGradient3780)" opacity=".3"/>
  <rect id="rect3716" transform="scale(1,-1)" x="6" y="-91" width="84" height="84" rx="6" ry="6" fill="url(#linearGradient3721)" opacity=".45"/>
 </g>
 <g id="layer1">
  <path id="path5464" d="m48.106 11.011c-1.2831 0-2.8038 0.04423-4.4866 0.18628 0 0-7.7514 0.47905-15.675 5.1041 0 0-0.3379 0.44549-0.3379 2.105 0 0-0.26718-0.14902-0.826-0.14902-0.25942 0-0.58514 0.04632-0.97616 0.1304 0 0-1.4958 0.32626-3.1726 1.7138 0 0-12.207 8.8274-13.441 24.254 0 0-0.41127 3.5132 0 7.0228 0 0 1.9879 28.103 33.49 33.437 0 0 4.4423 0.53814 5.7444-0.22353 0 0 1.4128-0.0915 1.9336-0.54022 0 0 2.7408 0.38281 4.7119 0.0186 0 0 27.57-3.4382 31.669-31.761 0 0 0.49626-2.9262 0.11264-7.1159 0 0-0.65578-10.446-7.2087-18.2 0 0-0.16317-0.05585-0.30036-0.05585 0 0-7.0888-13.641-26.939-15.722 0 0-1.6519-0.20491-4.2989-0.20491zm0.58195 72.687c0.24214 0.0611 0.48593 0.11499 0.73212 0.16765-0.21209-0.0457-0.45778-0.0975-0.73212-0.16765z"/>
  <rect id="rect2419" x="6" y="6" width="84" height="84" rx="6" ry="6" clip-path="url(#clipPath5400)" fill="url(#linearGradient3617)"/>
  <g id="g5448" transform="matrix(.27384 0 0 -.27384 -174.55 255.22)"></g>
  <g id="g5454" transform="matrix(.27384 0 0 -.27384 -174.55 255.22)"></g>
 </g>
 <g id="layer5" display="none">
  <rect id="rect3171" x="15" y="15" width="66" height="66" rx="12" ry="12" clip-path="url(#clipPath3613)" fill="url(#linearGradient3613)" filter="url(#filter3794)" opacity=".1" stroke="#fff" stroke-linecap="round" stroke-width=".5"/>
 </g>
 <g id="layer4">
  <path id="path4702" transform="translate(0,1)" d="m48 29.969c-9.9311 0-18.031 8.1002-18.031 18.031s8.1002 18.031 18.031 18.031 18.031-8.1002 18.031-18.031-8.1002-18.031-18.031-18.031z" color="#000000" opacity=".1"/>
  <path id="path4698" transform="translate(0,1)" d="m48 30.938c-9.4146 0-17.062 7.6479-17.062 17.062s7.6479 17.062 17.062 17.062 17.062-7.6479 17.062-17.062-7.6479-17.062-17.062-17.062z" color="#000000" opacity=".15"/>
  <path id="path4684" transform="translate(0,1)" d="m64 48a16 16 0 1 1-32 0 16 16 0 1 1 32 0z" color="#000000" opacity=".3"/>
  <path id="path4558" d="m12 6c-3.324 0-6 2.676-6 6v10.344c0.034757 4.8e-5 0.090555 1.09e-4 0.09375 0 0.00426-1.45e-4 0.089506 3.89e-4 0.09375 0 0.00424-3.89e-4 0.12078 6.31e-4 0.125 0 0.00422-6.31e-4 0.12083-0.03038 0.125-0.03125 0.00417-8.72e-4 0.12088-0.03014 0.125-0.03125l20.188-5.4062c0.42689-0.11439 0.80861-0.16858 1.0938-0.15625 1.5585 0.06739 3.0399 1.2119 3.4688 2.8125l3.5938 13.375c0.0012 0.0043 0.02983 0.12081 0.03125 0.125 0.0014 0.0042 0.02959 0.1209 0.03125 0.125 0.0017 0.0041 0.0606 0.08976 0.0625 0.09375 0.0019 4e-3 0.06036 0.12113 0.0625 0.125 0.0021 0.0039 0.06014 0.09001 0.0625 0.09375 0.0024 0.0037 0.05992 0.12141 0.0625 0.125 0.0026 0.0036 0.09096 0.09032 0.09375 0.09375 0.0028 0.0034 0.05951 0.09049 0.0625 0.09375 3e-3 0.0033 0.09057 0.09067 0.09375 0.09375 0.0032 0.0031 0.0904 0.05962 0.09375 0.0625 0.0034 0.0029 0.09023 0.09107 0.09375 0.09375 0.0035 0.0027 0.09008 0.06003 0.09375 0.0625 0.0037 0.0025 0.12119 0.06026 0.125 0.0625 0.0038 0.0022 0.08981 0.06049 0.09375 0.0625 0.0039 2e-3 0.12095 0.06073 0.125 0.0625 0.0041 0.0018 0.12085 0.02972 0.125 0.03125 0.0042 0.0015 0.08951 0.06122 0.09375 0.0625 0.0042 0.0013 0.1207 0.03022 0.125 0.03125 0.0043 1e-3 0.12064 0.03048 0.125 0.03125 0.0044 7.68e-4 0.1206-5.08e-4 0.125 0 0.0044 5.08e-4 0.12058 0.031 0.125 0.03125 0.0044 2.46e-4 0.12058 1.7e-5 0.125 0 0.0044-1.7e-5 0.12058 2.8e-4 0.125 0 0.0044-2.8e-4 0.12061-0.03071 0.125-0.03125 0.0044-5.42e-4 0.12065 8.02e-4 0.125 0 0.0044-8.02e-4 0.1207-0.03019 0.125-0.03125 0.0043-0.0011 0.12078-0.02994 0.125-0.03125 0.0042-0.0013 0.12086-0.06094 0.125-0.0625 0.0041-0.0016 0.12096-0.02945 0.125-0.03125 4e-3 -0.0018 0.08983-0.06046 0.09375-0.0625 0.0039-2e-3 0.1212-0.06023 0.125-0.0625 0.0038-0.0023 0.0901-0.06001 0.09375-0.0625 2.8402-1.8903 6.2072-3 9.875-3 7.9299 0 14.609 5.1624 16.969 12.281a0.94241 0.94241 0 0 0 0 0.03125c0.0014 0.0043 0.06082 0.08958 0.0625 0.09375 0.0017 0.0042 0.02932 0.12094 0.03125 0.125 0.0019 0.0041 0.06033 0.12107 0.0625 0.125 0.0022 0.0039 0.0601 0.08995 0.0625 0.09375s0.09112 0.12136 0.09375 0.125c0.0026 0.0036 0.05966 0.09027 0.0625 0.09375 0.0028 0.0035 0.0907 0.09045 0.09375 0.09375 3e-3 0.0033 0.09051 0.09064 0.09375 0.09375 0.0032 0.0031 0.09033 0.09084 0.09375 0.09375 0.0034 0.0029 0.09016 0.0598 0.09375 0.0625 0.0036 0.0027 0.09 0.06002 0.09375 0.0625 0.0037 0.0025 0.12111 0.0915 0.125 0.09375 0.0039 0.0022 0.08973 0.06049 0.09375 0.0625 4e-3 2e-3 0.12087 0.02949 0.125 0.03125 0.0041 0.0018 0.12077 0.06099 0.125 0.0625 0.0042 0.0015 0.12068 0.03 0.125 0.03125l15.594 4.1562c0.83231 0.22302 1.7872 0.17367 2.5938-0.3125 0.78339-0.47224 1.2551-1.2338 1.4688-2.0312l3.9375-14.719v-19.844c0-3.324-2.676-6-6-6h-72zm15.375 11.156c-0.13535 0.01142-0.32002 0.04555-0.5 0.09375l-20.875 5.5938v61.156c0 3.324 2.676 6 6 6h25.25c-0.016-0.0322-0.06028-0.09009-0.0625-0.09375-0.0028-0.0046-0.09065-0.12063-0.09375-0.125-0.0031-0.0044-0.09034-0.12086-0.09375-0.125-0.0034-0.0041-0.09006-0.12112-0.09375-0.125a0.94241 0.94241 0 0 0-0.03125 0l-6.0625-6.0625c-1.4444-1.4444-1.4444-3.8368 0-5.2812l9.8125-9.8125a0.94241 0.94241 0 0 0 0.03125 0c3e-3 -0.0031 0.05966-0.0905 0.0625-0.09375 0.0028-0.0032 0.09111-0.09034 0.09375-0.09375 0.0026-0.0034 0.06006-0.0902 0.0625-0.09375 0.0024-0.0036 0.06027-0.09006 0.0625-0.09375 0.0022-0.0037 0.06048-0.12119 0.0625-0.125 2e-3 -0.0038 0.06071-0.08983 0.0625-0.09375 0.0018-0.0039 0.02969-0.12098 0.03125-0.125 0.0016-4e-3 0.06117-0.08965 0.0625-0.09375 0.0013-0.0041 0.03016-0.12083 0.03125-0.125 0.0011-0.0042 0.03041-0.12077 0.03125-0.125 8.42e-4 -0.0042-5.95e-4 -0.12073 0-0.125 5.95e-4 -0.0043 0.0309-0.1207 0.03125-0.125 3.47e-4 -0.0043-9.7e-5 -0.12069 0-0.125 9.7e-5 -0.0043 1.53e-4 -0.12069 0-0.125-1.53e-4 -0.0043 4.02e-4 -0.08946 0-0.09375-4.02e-4 -0.0043-0.0306-0.12074-0.03125-0.125-6.5e-4 -0.0043-0.03035-0.12078-0.03125-0.125-8.96e-4 -0.0042-0.03011-0.12084-0.03125-0.125-0.0011-0.0042-0.02987-0.12092-0.03125-0.125-0.0014-0.0041-0.02964-0.08975-0.03125-0.09375-0.0016-4e-3 -0.06066-0.1211-0.0625-0.125-0.0018-0.0039-0.02919-0.08997-0.03125-0.09375-0.0021-0.0038-0.06022-0.12134-0.0625-0.125-0.0023-0.0037-0.09126-0.09023-0.09375-0.09375-0.0025-0.0035-0.05981-0.09038-0.0625-0.09375-0.0027-0.0034-0.05962-0.09054-0.0625-0.09375-0.0029-0.0032-0.09069-0.09071-0.09375-0.09375-0.0031-3e-3 -0.09052-0.0909-0.09375-0.09375-0.0032-0.0029-0.09036-0.05984-0.09375-0.0625-0.0034-0.0027-0.09021-0.06004-0.09375-0.0625-0.0035-0.0025-0.09007-0.0915-0.09375-0.09375-0.0037-0.0023-0.1212-0.06046-0.125-0.0625a0.94241 0.94241 0 0 0-0.03125 0c-5.9066-2.9255-10-8.9852-10-16.031 0-4.573 1.7429-8.707 4.5625-11.875 0.0031-0.0035 0.05962-0.09007 0.0625-0.09375 0.0029-0.0037 0.09111-0.12115 0.09375-0.125 0.0026-0.0038 0.06011-0.08974 0.0625-0.09375 0.0024-4e-3 0.06036-0.12085 0.0625-0.125 0.0021-0.0042 0.06063-0.12072 0.0625-0.125 0.0019-0.0043 0.02965-0.12062 0.03125-0.125 0.0016-0.0044 0.06118-0.12052 0.0625-0.125 0.0013-0.0045 0.03021-0.12045 0.03125-0.125 1e-3 -0.0046 0.0305-0.12039 0.03125-0.125 7.53e-4 -0.0046-4.62e-4 -0.12035 0-0.125 4.62e-4 -0.0046 0.03108-0.12033 0.03125-0.125 1.7e-4 -0.0047 1.23e-4 -0.15158 0-0.15625-1.23e-4 -0.0047-0.03083-0.12035-0.03125-0.125-4.16e-4 -0.0046 7.07e-4 -0.12038 0-0.125-7.07e-4 -0.0046-0.03025-0.12044-0.03125-0.125-9.95e-4 -0.0046-0.02997-0.12051-0.03125-0.125l-4.1875-15.562c-0.33179-1.2383-1.364-2.2792-2.75-2.4375-0.32446-0.03695-0.59599 0.0016-0.5625 0 0.0026-1.28e-4 -0.0834-0.01142-0.21875 0zm62.219 5.25c0.08228 0.04119 0.18753 0.09377 0.1875 0.09375-7e-6 -5e-6 0.02107 0.04994 0.03125 0.0625-0.02688-0.01423-0.11846-0.10328-0.21875-0.15625zm-1.4375 1.3438c0.02366 0.04264 0.18738 0.31236 0.1875 0.3125 1.14e-4 1.29e-4 0.31451 0.22575 0.40625 0.28125-0.05153-0.0111-0.12502-0.03126-0.125-0.03125 4.8e-5 2.3e-5 -0.20607-0.18858-0.28125-0.25-0.01363-0.01113-0.06251-0.03126-0.0625-0.03125 4e-5 5.2e-5 -0.12503-0.28132-0.125-0.28125zm0 0.28125c1.97e-4 3.14e-4 0.156 0.18726 0.15625 0.1875-0.0027-0.0017-0.03126-1.3e-5 -0.03125 0 1.69e-4 1.71e-4 -0.09039-0.1415-0.125-0.1875zm1.5625 15.406c-0.0054 7.19e-4 -0.15094 0.03014-0.15625 0.03125-0.0053 0.0011-0.15103 0.02976-0.15625 0.03125-0.0052 0.0015-0.1199 0.06063-0.125 0.0625-0.0051 0.0019-0.1513 0.06026-0.15625 0.0625-0.0049 0.0022-0.12023 0.05991-0.125 0.0625-0.0048 0.0026-0.12043 0.05957-0.125 0.0625-0.0046 0.0029-0.15191 0.09049-0.15625 0.09375-0.0043 0.0033-0.08966 0.09019-0.09375 0.09375-0.0041 0.0036-0.12118 0.0899-0.125 0.09375-0.0038 0.0039-0.09022 0.12088-0.09375 0.125-0.0035 0.0041-0.09053 0.12063-0.09375 0.125-0.0032 0.0044-0.09086 0.12041-0.09375 0.125-0.0029 0.0046-0.0912 0.12021-0.09375 0.125-0.0026 0.0048-0.0603 0.15129-0.0625 0.15625-0.0022 5e-3 -0.06067 0.11989-0.0625 0.125-0.0018 0.0051-0.0298 0.15102-0.03125 0.15625l-1.5312 5.6875c-0.52482 1.9587-2.5896 3.1536-4.5625 2.625l-13.344-3.5625c-0.0042-0.0011-0.1207-0.03035-0.125-0.03125-0.0043-8.97e-4 -0.12066-0.03061-0.125-0.03125-0.0043-6.42e-4 -0.12063 3.84e-4 -0.125 0-0.0044-3.84e-4 -0.12061 1.26e-4 -0.125 0-0.0044-1.26e-4 -0.12061-1.34e-4 -0.125 0-0.0044 1.34e-4 -0.12063-3.92e-4 -0.125 0-0.0044 3.92e-4 -0.12066-6.5e-4 -0.125 0-0.0043 6.5e-4 -0.1207 0.03034-0.125 0.03125-0.0043 9.05e-4 -0.12076 0.03009-0.125 0.03125-0.0042 0.0012-0.08959 0.02985-0.09375 0.03125-0.0042 0.0014-0.12093 0.0296-0.125 0.03125-0.0041 0.0016-0.12103 0.06061-0.125 0.0625-4e-3 0.0019-0.0899 0.06038-0.09375 0.0625-0.0038 0.0021-0.12128 0.06016-0.125 0.0625-0.0037 0.0023-0.09018 0.05994-0.09375 0.0625-0.0036 0.0026-0.09033 0.09099-0.09375 0.09375-0.0034 0.0028-0.0905 0.05954-0.09375 0.0625-0.0032 3e-3 -0.09068 0.09061-0.09375 0.09375-0.0031 0.0031-0.09087 0.09043-0.09375 0.09375-0.0029 0.0033-0.05983 0.09027-0.0625 0.09375-0.0027 0.0035-0.09129 0.09011-0.09375 0.09375-0.0025 0.0036-0.06025 0.12123-0.0625 0.125-0.0022 0.0038-0.06048 0.08985-0.0625 0.09375-2e-3 0.0039-0.02947 0.12099-0.03125 0.125-0.0018 4e-3 -0.06096 0.08964-0.0625 0.09375-0.0015 0.0041-0.02995 0.1208-0.03125 0.125-0.0013 0.0042-0.0302 0.12074-0.03125 0.125-0.0011 0.0043-0.03045 0.12068-0.03125 0.125-7.96e-4 0.0043-0.03071 0.12064-0.03125 0.125-5.4e-4 0.0044 2.82e-4 0.12062 0 0.125-2.82e-4 0.0044 2.3e-5 0.12061 0 0.125-2.3e-5 0.0044-2.36e-4 0.12062 0 0.125 0.02154 0.34895 0.03125 0.7274 0.03125 1.125 0 9.9076-7.9986 17.906-17.906 17.906-1.227 0-2.4512-0.16606-3.625-0.40625-0.1034-0.02068-0.18375-0.02022-0.25-0.03125-0.03312-0.0055-0.05544-0.02669-0.09375-0.03125-0.01916-0.0023-0.05827 2e-3 -0.09375 0-0.01774-9.88e-4 -0.02931-5.12e-4 -0.0625 0s-0.15543 0.03109-0.15625 0.03125c-3.01e-4 5.8e-5 -0.0991 0.04483-0.15625 0.0625-0.02051 0.0063-0.06243-2.9e-5 -0.0625 0-0.02118 0.0046-0.02965 0.03086-0.03125 0.03125-9e-3 0.0051-0.0194-0.0067-0.03125 0-0.03072 0.0084-0.09074 0.03033-0.09375 0.03125-0.0039 0.0012-0.12114 0.02983-0.125 0.03125-0.0039 0.0014-0.08997 0.02962-0.09375 0.03125-0.0038 0.0016-0.09007 0.06067-0.09375 0.0625-0.0037 0.0018-0.12142 0.06046-0.125 0.0625-0.0036 2e-3 -0.09029 0.02902-0.09375 0.03125-0.0035 0.0022-0.09042 0.09133-0.09375 0.09375-0.0033 0.0024-0.09056 0.0599-0.09375 0.0625-0.0032 0.0026-0.09071 0.05973-0.09375 0.0625-0.0025 0.0023-0.04268 0.07458-0.0625 0.09375-4e-3 0.0038-0.03077-4.89e-4 -0.03125 0l-11.344 11.375c-0.59255 0.59255-1.0312 1.4019-1.0312 2.3438s0.45448 1.7357 1.0312 2.3125l6.8438 6.8438h46.062c3.324 0 6-2.676 6-6v-44.562c-0.03026 6e-6 -0.06053-4e-5 -0.0625 0-0.0039 8.1e-5 -0.08982-2.9e-4 -0.09375 0-0.0039 2.9e-4 -0.12109-4.98e-4 -0.125 0z" opacity=".1"/>
  <path id="path4554" d="m12 6c-3.324 0-6 2.676-6 6v9.4062a1.1654 1.1654 0 0 0 0.3125-0.03125l20.188-5.4062c0.48325-0.12949 0.94814-0.20595 1.375-0.1875 1.9784 0.08555 3.8054 1.4907 4.3438 3.5l3.5938 13.375a1.1654 1.1654 0 0 0 1.7812 0.65625c2.986-1.9874 6.5482-3.1562 10.406-3.1562 8.3399 0 15.391 5.4425 17.875 12.938a1.1654 1.1654 0 0 0 0.78125 0.75l15.594 4.1562c0.60778 0.16286 1.302 0.10783 1.8438-0.21875s0.90382-0.87656 1.0625-1.4688l4.8438-18.094v-16.219c0-3.324-2.676-6-6-6h-72zm15.625 12.094c-0.08191 4e-3 -0.27406 2e-3 -0.5 0.0625l-21.125 5.6562v60.188c0 3.324 2.676 6 6 6h24.031l-5.875-5.875c-1.8096-1.8096-1.8096-4.7842 0-6.5938l9.8125-9.8125a1.1654 1.1654 0 0 0-0.28125-1.8438c-6.2155-3.0785-10.531-9.4632-10.531-16.875 0-4.8103 1.8172-9.1698 4.7812-12.5a1.1654 1.1654 0 0 0 0.25-1.0938l-4.1875-15.562c-0.23113-0.86259-1.013-1.6444-1.9375-1.75-0.22414-0.02552-0.3556-4e-3 -0.4375 0zm61.656 5.125 0.09375 0.125a1.1654 1.1654 0 0 0-0.53125 0.375c0.07065-0.12624-0.01775-0.0046 0.0625-0.125 0.08025-0.12037 0.0044 0.02002 0.09375-0.09375 0.08936-0.11377-0.0042 0.01273 0.09375-0.09375 0.09793-0.10648-0.01216 0.0048 0.09375-0.09375 0.10591-0.09855-0.0195-0.0037 0.09375-0.09375zm0.5625 17.156a1.1654 1.1654 0 0 0-0.96875 0.84375l-1.5312 5.6875c-0.65981 2.4624-3.2477 3.9434-5.7188 3.2812l-13.344-3.5625a1.1654 1.1654 0 0 0-1.4688 1.1875c0.02325 0.37672 0.03125 0.77764 0.03125 1.1875 0 10.416-8.4278 18.844-18.844 18.844-1.302 0-2.5869-0.15546-3.8125-0.40625-0.38924-0.07785-0.36905-0.05781-0.125 0a1.1654 1.1654 0 0 0-0.9375 0.34375l-11.375 11.375c-0.44002 0.44002-0.75 1.0522-0.75 1.6875s0.30998 1.2162 0.75 1.6562l7.5 7.5h44.75c3.324 0 6-2.676 6-6v-43.625a1.1654 1.1654 0 0 0-0.15625 0z" opacity=".15"/>
  <path id="path4541" d="m12 7c-3.324 0-6 2.676-6 6v7.25l20.188-5.4062c0.56794-0.15218 1.1668-0.24396 1.75-0.21875 2.4867 0.10753 4.7344 1.8362 5.4062 4.3438l3.5938 13.375c3.1692-2.1093 6.9701-3.3438 11.062-3.3438 8.8456 0 16.33 5.7584 18.969 13.719l15.594 4.1562c0.70057 0.18772 1.2804-0.17222 1.4688-0.875l5.7812-21.594a0.55197 0.55197 0 0 1 0.1875-0.28125v-11.125c0-3.324-2.676-6-6-6h-72zm15.688 12.25c-0.08392 0.0041-0.16207 0.0077-0.25 0.03125l-21.438 5.75v59.969c0 3.324 2.676 6 6 6h23.406l-6.0625-6.0625c-2.2594-2.2594-2.2594-5.9594 0-8.2188l9.8125-9.8125c-6.5983-3.2681-11.156-10.044-11.156-17.906 0-5.1023 1.9177-9.7479 5.0625-13.281l-4.1875-15.562c-0.14338-0.5351-0.47909-0.85388-0.9375-0.90625-0.0764-0.0087-0.16608-0.0041-0.25 0zm62.312 22.281-1.5312 5.6875c-0.82714 3.0869-4.0717 4.9202-7.1562 4.0938l-13.344-3.5625c0.02555 0.41396 0.03125 0.82961 0.03125 1.25 0 11.046-8.9543 20-20 20-1.3807 0-2.7293-0.13983-4.0312-0.40625-0.01-2e-3 -0.02125 0.0021-0.03125 0l-11.375 11.375c-0.51799 0.51799-0.51799 1.2008 0 1.7188l9.3125 9.3125h42.125c3.324 0 6-2.676 6-6v-43.469z" opacity=".3"/>
  <path id="path4476" d="m12 6c-3.324 0-6 2.676-6 6v7.25l20.188-5.4062c0.56794-0.15218 1.1668-0.24396 1.75-0.21875 2.4867 0.10753 4.7344 1.8362 5.4062 4.3438l3.5938 13.375c3.1692-2.1093 6.9701-3.3438 11.062-3.3438 8.8456 0 16.33 5.7584 18.969 13.719l15.594 4.1562c0.70057 0.18772 1.2804-0.17222 1.4688-0.875l5.7812-21.594a0.55197 0.55197 0 0 1 0.1875-0.28125v-11.125c0-3.324-2.676-6-6-6h-72z" fill="url(#linearGradient5386)"/>
  <path id="path4474" d="m27.938 18.25c-0.1528-0.01746-0.32414-0.01587-0.5 0.03125l-21.438 5.75v59.969c0 3.324 2.676 6 6 6h23.406l-6.0625-6.0625c-2.2594-2.2594-2.2594-5.9594 0-8.2188l9.8125-9.8125c-6.5983-3.2681-11.156-10.044-11.156-17.906 0-5.1023 1.9177-9.7479 5.0625-13.281l-4.1875-15.562c-0.14338-0.5351-0.47909-0.85388-0.9375-0.90625z" fill="url(#radialGradient4537)"/>
  <path id="rect4464" d="m90 40.531-1.5312 5.6875c-0.82714 3.0869-4.0717 4.9202-7.1562 4.0938l-13.344-3.5625c0.02555 0.41396 0.03125 0.82961 0.03125 1.25 0 11.046-8.9543 20-20 20-1.3807 0-2.7293-0.13983-4.0312-0.40625-0.01-2e-3 -0.02125 0.0021-0.03125 0l-11.375 11.375c-0.51799 0.51799-0.51799 1.2008 0 1.7188l9.3125 9.3125h42.125c3.324 0 6-2.676 6-6v-43.469z" fill="url(#radialGradient4539)"/>
  <path id="path4568" d="m27.938 12.625c-0.58317-0.02521-1.1821 0.06657-1.75 0.21875l-20.188 5.4062v1l20.188-5.4062c0.56794-0.15218 1.1668-0.24396 1.75-0.21875 2.4867 0.10753 4.7344 1.8362 5.4062 4.3438l3.5938 13.375c3.1692-2.1093 6.9701-3.3438 11.062-3.3438 8.8456 0 16.33 5.7584 18.969 13.719l15.594 4.1562c0.70057 0.18772 1.2804-0.17222 1.4688-0.875l5.7812-21.594a0.55197 0.55197 0 0 1 0.1875-0.28125v-1a0.55197 0.55197 0 0 0-0.1875 0.28125l-5.7812 21.594c-0.18831 0.70278-0.76818 1.0627-1.4688 0.875l-15.594-4.1562c-2.6385-7.9604-10.123-13.719-18.969-13.719-4.0924 0-7.8933 1.2345-11.062 3.3438l-3.5938-13.375c-0.6719-2.5076-2.9196-4.2362-5.4062-4.3438z" fill="#500" opacity=".5"/>
  <path id="path4577" d="m32.875 33.969c-3.0227 3.5032-4.875 8.041-4.875 13.031 0 0.17786 0.02661 0.35453 0.03125 0.53125 0.11373-4.9175 1.9832-9.3878 5.0312-12.812l-0.1875-0.75zm5.625 31.594-9.1562 9.1562c-1.2474 1.2474-1.7863 2.9217-1.6562 4.5625 0.12356-1.2987 0.66778-2.574 1.6562-3.5625l9.8125-9.8125c-0.2207-0.10931-0.44021-0.22668-0.65625-0.34375z" fill="#008000"/>
  <path id="path4586" d="m67.969 47.75c0.01406 0.22779 0.02685 0.45817 0.03125 0.6875 0.0031-0.14556 0-0.2912 0-0.4375 0-0.08403 5.68e-4 -0.16633 0-0.25h-0.03125zm-35.656 32.562c-0.23177 0.45028-0.15662 0.96838 0.25 1.375l8.4369 8.3952 0.87559-0.082711-9.3125-9.3125c-0.1181-0.1181-0.18575-0.24367-0.25-0.375z" opacity="0"/>
  <path id="path4599" d="m67.969 46.75c0.01406 0.22779 0.02685 0.45817 0.03125 0.6875 0.0031-0.14556 0-0.2912 0-0.4375 0-0.08403 5.68e-4 -0.16633 0-0.25h-0.03125zm-35.656 32.562c-0.23177 0.45028-0.15662 0.96838 0.25 1.375l9.3125 9.3125 1.0841 6.78e-4 -10.397-10.313c-0.1181-0.1181-0.18575-0.24367-0.25-0.375z" fill="#a40" opacity=".5"/>
  <path id="path5392" d="m48 22c-4.6044 0-8.9363 1.1816-12.688 3.2812l1.0938 4.0312c3.3674-2.0934 7.3369-3.3125 11.594-3.3125 10.193 0 18.752 6.9373 21.25 16.344l4.3438 1.1562c-2.1286-12.218-12.767-21.5-25.594-21.5z" color="#000000" fill="url(#linearGradient5394)" opacity=".6"/>
  <path id="path5390" d="m31.281 28.094c-5.6698 4.7694-9.2812 11.917-9.2812 19.906 0 9.4995 5.1128 17.807 12.719 22.344l2.9375-2.9375c-6.9367-3.7016-11.656-10.995-11.656-19.406 0-6.0751 2.4563-11.581 6.4375-15.562l-1.1562-4.3438z" color="#000000" fill="url(#linearGradient5396)" opacity=".7"/>
  <path id="path4608" d="m69.969 47.281c0.007799 0.24079 0.03125 0.47606 0.03125 0.71875 0 12.15-9.8497 22-22 22-1.9786 0-3.8947-0.26019-5.7188-0.75l-3.1875 3.1875c2.7798 1.0142 5.7755 1.5625 8.9062 1.5625 14.245 0 25.816-11.455 26-25.656l-4.0312-1.0625z" color="#000000" fill="url(#linearGradient4662)" opacity=".8"/>
  <path id="path4638" d="m12 106c-3.324 0-6 2.676-6 6v7.25l20.188-5.4062c0.56794-0.15218 1.1668-0.24396 1.75-0.21875 2.4867 0.10753 4.7344 1.8362 5.4062 4.3438l3.5938 13.375c3.1692-2.1093 6.9701-3.3438 11.062-3.3438 8.8456 0 16.33 5.7584 18.969 13.719l15.594 4.1562c0.70057 0.18772 1.2804-0.17222 1.4688-0.875l5.7812-21.594a0.55197 0.55197 0 0 1 0.1875-0.28125v-11.125c0-3.324-2.676-6-6-6h-72zm15.688 12.25c-0.08392 4e-3 -0.16207 8e-3 -0.25 0.0312l-21.438 5.75v59.969c0 3.324 2.676 6 6 6h23.406l-6.0625-6.0625c-2.2594-2.2594-2.2594-5.9594 0-8.2188l9.8125-9.8125c-6.5983-3.2681-11.156-10.044-11.156-17.906 0-5.1023 1.9177-9.7479 5.0625-13.281l-4.1875-15.562c-0.14338-0.5351-0.47909-0.85388-0.9375-0.90625-0.0764-9e-3 -0.16608-4e-3 -0.25 0zm62.312 22.281-1.5312 5.6875c-0.82714 3.0869-4.0717 4.9202-7.1562 4.0938l-13.344-3.5625c0.02555 0.41396 0.03125 0.82961 0.03125 1.25 0 11.046-8.9543 20-20 20-1.3807 0-2.7293-0.13983-4.0312-0.40625-0.01-2e-3 -0.02125 2e-3 -0.03125 0l-11.375 11.375c-0.51799 0.51799-0.51799 1.2008 0 1.7188l9.3125 9.3125h42.125c3.324 0 6-2.676 6-6v-43.469z" fill="url(#radialGradient4644)"/>
  <path id="path4664" d="m90 40.531-1.5312 5.6875c-0.82714 3.0869-4.0717 4.9202-7.1562 4.0938l-13.344-3.5625c0.02044 0.33122 0.02898 0.66505 0.03125 1l13.312 3.5625c3.0845 0.82649 6.3291-1.0068 7.1562-4.0938l1.5312-5.6875v-1zm-22 7.9062c-0.23288 10.844-9.1006 19.562-20 19.562-1.3807 0-2.7293-0.13983-4.0312-0.40625-0.01-2e-3 -0.02125 0.0021-0.03125 0l-11.375 11.375c-0.39989 0.39989-0.46754 0.89908-0.25 1.3438 0.06348-0.12333 0.13863-0.23238 0.25-0.34375l11.375-11.375c0.01 0.0021 0.02125-2e-3 0.03125 0 1.302 0.26642 2.6505 0.40625 4.0312 0.40625 11.046 0 20-8.9543 20-20 0-0.18906 0.0036-0.37508 0-0.5625z" fill="#fff" opacity=".6"/>
  <path id="path4673" d="m27.688 18.25c-0.08392 0.0041-0.16207 0.0077-0.25 0.03125l-21.438 5.75v1l21.438-5.75c0.17586-0.04712 0.3472-0.04871 0.5-0.03125 0.45841 0.05237 0.79412 0.37115 0.9375 0.90625l4 14.812c0.06789-0.07869 0.11842-0.17238 0.1875-0.25l-4.1875-15.562c-0.14338-0.5351-0.47909-0.85388-0.9375-0.90625-0.0764-0.0087-0.16608-0.0041-0.25 0zm0.34375 30.281c-0.00361 0.15608-0.03125 0.31178-0.03125 0.46875 0 7.5992 4.257 14.18 10.5 17.562l0.65625-0.65625c-6.4491-3.1942-10.925-9.7399-11.125-17.375zm-0.34375 31.844c-0.12837 1.6391 0.41019 3.3164 1.6562 4.5625l5.0625 5.0625h1l-6.0625-6.0625c-0.98847-0.98847-1.5327-2.2638-1.6562-3.5625z" fill="#fff" opacity=".5"/>
  <path id="path3604" transform="matrix(1,0,0,-1,0,96)" d="m64 48a16 16 0 1 1-32 0 16 16 0 1 1 32 0z" color="#000000" fill="url(#radialGradient4491)"/>
  <path id="path4721" d="m48 32c-8.8366 0-16 7.1634-16 16 0 0.16998 0.02599 0.3313 0.03125 0.5 0.2683-8.6015 7.3022-15.5 15.969-15.5s15.7 6.8985 15.969 15.5c0.005262-0.1687 0.03125-0.33002 0.03125-0.5 0-8.8366-7.1634-16-16-16z" color="#000000" fill="#fff" opacity=".3"/>
  <path id="path4730" d="m32.031 47.5c-0.005262 0.1687-0.03125 0.33002-0.03125 0.5 0 8.8366 7.1634 16 16 16s16-7.1634 16-16c0-0.16998-0.02599-0.3313-0.03125-0.5-0.2683 8.6015-7.3022 15.5-15.969 15.5s-15.7-6.8985-15.969-15.5z" color="#000000" fill="#124a93"/>
  <path id="path4871" d="m90 58.969c-3.9465 15.157-15.874 27.085-31.031 31.031h25.031c3.324 0 6-2.676 6-6v-25.031z" color="#000000" fill="url(#linearGradient4891)" opacity=".7"/>
  <path id="path4893" d="m79.656 67.812-0.25 0.34375c-4.2369 6.5984-10.413 11.665-17.594 14.531l-0.5 0.1875 0.21875 0.5 3.2812 6.625h1.125l-3.2812-6.625c7.0338-2.922 13.1-7.8938 17.344-14.344l10 4.0938v-1.0938l-9.9688-4.0625-0.375-0.15625zm-22.188 16.344-0.5 0.125c-3.2372 0.80428-6.6161 1.1354-10.062 1.0312l-0.5-0.03125v0.53125 4.1875h1v-3.7188c3.184 0.055 6.3225-0.23009 9.3438-0.9375l1.2188 4.6562h1.0312l-1.4062-5.375-0.125-0.46875z" color="#000000" fill="#a80" opacity=".62338" style="block-progression:tb;text-indent:0;text-transform:none"/>
  <path id="path4909" d="m80 69.031c-4.244 6.4499-10.31 11.422-17.344 14.344l0.40625 0.8125c6.8586-2.9433 12.777-7.8326 16.938-14.156l10 4.0938v-1l-10-4.0938zm-18.281 14.688-0.40625 0.15625 0.21875 0.5 2.7812 5.625h0.5l-3.0938-6.2812zm-4.9688 1.625c-0.5524 0.13335-1.1273 0.20636-1.6875 0.3125-0.19994 0.03619-0.39294 0.09226-0.59375 0.125-2.3067 0.39596-4.6612 0.57425-7.0625 0.53125v0.96875c3.184 0.055 6.3225-0.23009 9.3438-0.9375l0.96875 3.6562h0.25l-1.2188-4.6562z" color="#000000" fill="#fff" opacity=".5" style="block-progression:tb;text-indent:0;text-transform:none"/>
  <path id="path4917" d="m27.219 20.312-16.562 4.4375c-0.47086 1.3136-0.7969 2.6759-1.125 4-0.45296 2.6263 1.6186 5.2185 4.1875 5.6562 1.7041 0.39156 3.7605-0.30111 4.4688-2 1.5037-2.5585 2.2483-5.7601 4.8125-7.5312 0.98534-0.62812 2.2113-1.2899 3.4062-0.96875 1.535 0.42448 1.0642 2.4533 2.3125 3.1875 0.11756 0.08447 0.24986 0.10477 0.375 0.15625l-1.875-6.9375z" fill="url(#linearGradient4952)" opacity=".4"/>
  <path id="path4954" d="m40.781 10.938c-1.5082-0.03358-3.0117 0.22524-4.5 0.4375-1.7954 0.34826-3.6255 0.6211-5.4375 0.96875 2.1002 0.93514 3.7728 2.7609 4.4062 5.125l0.5625 2.0312c3.1381-0.83686 6.7238-1.9588 7.8125-5.0625 0.25714-1.2219-0.03516-2.8233-1.3125-3.3438-0.49872-0.08708-1.0285-0.14506-1.5312-0.15625z" fill="url(#linearGradient5008)" opacity=".6"/>
  <path id="path4956" d="m53.146 10.958c1.1105-0.0025 2.2324 0.66166 2.5344 1.7355 0.72857 2.5905-2.6928 2.3383-4.5316 2.4238-1.9854 0.09235-4.2806-0.15678-4.3775-1.9263-0.12882-2.354 4.117-2.228 6.3747-2.233z" fill="url(#linearGradient5006)" opacity=".6"/>
  <path id="path5010" d="m51.127 61.288c13.536-2.2152 13.063-19.299 4.7949-24.307-5.4279-3.2875-3.7111 0.40208-1.6481 1.6146 9.7257 5.7162 8.4414 20.186-3.1467 22.693z" fill="url(#linearGradient5354)" opacity=".66667"/>
  <path id="path5345" d="m58.718 56.969c-1.6403 1.4688-3.6321 2.5908-5.9043 3.1997-7.7353 2.0727-15.686-2.5178-17.759-10.253-0.60884-2.2722-0.63304-4.5581-0.18115-6.7131-0.9589 2.6142-1.172 5.5268-0.39654 8.4208 2.0012 7.4685 9.6779 11.901 17.146 9.8995 2.8941-0.77546 5.3098-2.4163 7.0944-4.5538z" color="#000000" fill="url(#radialGradient5356)"/>
  <g id="g5360" transform="matrix(-.11812 -.1145 -.11361 .11721 114.68 42.418)" opacity=".60173">
   <g id="g5364" mask="url(#mask3787)">
    <g id="g5368">
     <g id="g5370" clip-path="url(#clipPath3817)">
      <g id="g5372" transform="translate(222.21 356.07)">
       <path id="path5374" d="m0 0s-29.5-4.583-33-54.333c0 0-0.081-18.999 6.833-22.499 0 0 3.834-1.167 3.417 6.333 0 0-1.083 10.501 0.917 28.418 0 0 2.083 26.666 21.833 42.081" fill="#fff"/>
      </g>
     </g>
    </g>
   </g>
  </g>
  <path id="path4156" transform="matrix(.68993 0 0 -.45164 14.883 62.467)" d="m64 48a16 16 0 1 1-32 0 16 16 0 1 1 32 0z" color="#000000" fill="url(#linearGradient4160)" opacity=".6"/>
 </g>
 <g id="layer6">
  <path id="rect3728" d="m12 6c-3.324 0-6 2.676-6 6v2 68 2c0 0.33472 0.04135 0.6507 0.09375 0.96875 0.0487 0.2956 0.09704 0.59692 0.1875 0.875 0.00988 0.03038 0.020892 0.0636 0.03125 0.09375 0.098865 0.28777 0.23488 0.54745 0.375 0.8125 0.14459 0.27351 0.31562 0.53562 0.5 0.78125s0.37378 0.47347 0.59375 0.6875c0.43995 0.42806 0.94291 0.81453 1.5 1.0938 0.27854 0.13961 0.57347 0.24695 0.875 0.34375-0.2562-0.10022-0.48671-0.23627-0.71875-0.375-0.00741-0.0044-0.023866 0.0045-0.03125 0-0.031933-0.0193-0.062293-0.04251-0.09375-0.0625-0.1204-0.0767-0.23102-0.16351-0.34375-0.25-0.10617-0.0808-0.21328-0.16111-0.3125-0.25-0.17793-0.16143-0.34746-0.34539-0.5-0.53125-0.10758-0.13026-0.21839-0.26528-0.3125-0.40625-0.025089-0.03838-0.038446-0.08587-0.0625-0.125-0.064763-0.10303-0.13023-0.20452-0.1875-0.3125-0.10101-0.19471-0.20567-0.4157-0.28125-0.625-0.00796-0.02181-0.023589-0.04055-0.03125-0.0625-0.031825-0.09195-0.035804-0.18683-0.0625-0.28125-0.030332-0.10662-0.070389-0.20303-0.09375-0.3125-0.072879-0.34151-0.125-0.6982-0.125-1.0625v-2-68-2c0-2.7818 2.2182-5 5-5h2 68 2c2.7818 0 5 2.2182 5 5v2 68 2c0 0.3643-0.05212 0.72099-0.125 1.0625-0.04415 0.20689-0.08838 0.39766-0.15625 0.59375-0.0077 0.02195-0.0233 0.04069-0.03125 0.0625-0.06274 0.17374-0.13838 0.36745-0.21875 0.53125-0.04158 0.0828-0.07904 0.16995-0.125 0.25-0.0546 0.09721-0.12677 0.18835-0.1875 0.28125-0.09411 0.14096-0.20492 0.276-0.3125 0.40625-0.14317 0.17445-0.30314 0.347-0.46875 0.5-0.01117 0.0102-0.01998 0.02115-0.03125 0.03125-0.13839 0.12556-0.28509 0.23444-0.4375 0.34375-0.10257 0.07315-0.20432 0.15336-0.3125 0.21875-0.0074 0.0045-0.02384-0.0044-0.03125 0-0.23204 0.13873-0.46255 0.27478-0.71875 0.375 0.30153-0.0968 0.59646-0.20414 0.875-0.34375 0.55709-0.27922 1.0601-0.66569 1.5-1.0938 0.21997-0.21403 0.40937-0.44186 0.59375-0.6875s0.35541-0.50774 0.5-0.78125c0.14012-0.26505 0.27614-0.52473 0.375-0.8125 0.01041-0.03078 0.02133-0.06274 0.03125-0.09375 0.09046-0.27808 0.1388-0.5794 0.1875-0.875 0.0524-0.31805 0.09375-0.63403 0.09375-0.96875v-2-68-2c0-3.324-2.676-6-6-6h-72z" fill="url(#linearGradient3188)" opacity=".4"/>
  <path id="path3615" d="m12 90c-3.324 0-6-2.676-6-6v-2-68-2c0-0.33472 0.04135-0.6507 0.09375-0.96875 0.0487-0.2956 0.09704-0.59692 0.1875-0.875 0.00988-0.03038 0.020892-0.0636 0.03125-0.09375 0.098865-0.28777 0.23488-0.54745 0.375-0.8125 0.14459-0.27351 0.31562-0.53562 0.5-0.78125s0.37378-0.47347 0.59375-0.6875c0.43995-0.42806 0.94291-0.81453 1.5-1.0938 0.27854-0.13961 0.57347-0.24695 0.875-0.34375-0.2562 0.10022-0.48671 0.23627-0.71875 0.375-0.00741 0.0044-0.023866-0.0045-0.03125 0-0.031933 0.0193-0.062293 0.04251-0.09375 0.0625-0.1204 0.0767-0.23102 0.16351-0.34375 0.25-0.10617 0.0808-0.21328 0.16111-0.3125 0.25-0.17793 0.16143-0.34746 0.34539-0.5 0.53125-0.10758 0.13026-0.21839 0.26528-0.3125 0.40625-0.025089 0.03838-0.038446 0.08587-0.0625 0.125-0.064763 0.10303-0.13023 0.20452-0.1875 0.3125-0.10101 0.19471-0.20567 0.4157-0.28125 0.625-0.00796 0.02181-0.023589 0.04055-0.03125 0.0625-0.031825 0.09195-0.035804 0.18683-0.0625 0.28125-0.030332 0.10662-0.070389 0.20303-0.09375 0.3125-0.072879 0.34151-0.125 0.6982-0.125 1.0625v2 68 2c0 2.7818 2.2182 5 5 5h2 68 2c2.7818 0 5-2.2182 5-5v-2-68-2c0-0.3643-0.05212-0.72099-0.125-1.0625-0.04415-0.20689-0.08838-0.39766-0.15625-0.59375-0.0077-0.02195-0.0233-0.04069-0.03125-0.0625-0.06274-0.17374-0.13838-0.36745-0.21875-0.53125-0.04158-0.0828-0.07904-0.16995-0.125-0.25-0.0546-0.09721-0.12677-0.18835-0.1875-0.28125-0.09411-0.14096-0.20492-0.276-0.3125-0.40625-0.14317-0.17445-0.30314-0.347-0.46875-0.5-0.01117-0.0102-0.01998-0.02115-0.03125-0.03125-0.13839-0.12556-0.28509-0.23444-0.4375-0.34375-0.10257-0.07315-0.20432-0.15336-0.3125-0.21875-0.0074-0.0045-0.02384 0.0044-0.03125 0-0.23204-0.13873-0.46255-0.27478-0.71875-0.375 0.30153 0.0968 0.59646 0.20414 0.875 0.34375 0.55709 0.27922 1.0601 0.66569 1.5 1.0938 0.21997 0.21403 0.40937 0.44186 0.59375 0.6875s0.35541 0.50774 0.5 0.78125c0.14012 0.26505 0.27614 0.52473 0.375 0.8125 0.01041 0.03078 0.02133 0.06274 0.03125 0.09375 0.09046 0.27808 0.1388 0.5794 0.1875 0.875 0.0524 0.31805 0.09375 0.63403 0.09375 0.96875v2 68 2c0 3.324-2.676 6-6 6h-72z" fill="url(#radialGradient3619)" opacity=".2"/>
 </g>
</svg>
