<?xml version="1.0" encoding="UTF-8"?>
<!-- Created with Inkscape (http://www.inkscape.org/) -->
<svg id="svg2408" width="96" height="96" version="1.0" xmlns="http://www.w3.org/2000/svg" xmlns:cc="http://creativecommons.org/ns#" xmlns:dc="http://purl.org/dc/elements/1.1/" xmlns:rdf="http://www.w3.org/1999/02/22-rdf-syntax-ns#" xmlns:xlink="http://www.w3.org/1999/xlink">
 <defs id="defs2410">
  <linearGradient id="linearGradient3875">
   <stop id="stop3877" stop-color="#fefefe" offset="0"/>
   <stop id="stop3879" stop-color="#fefefe" stop-opacity=".42636" offset="1"/>
  </linearGradient>
  <linearGradient id="ButtonShadow" x1="45.448" x2="45.448" y1="92.54" y2="7.0165" gradientTransform="scale(1.0059 .99417)" gradientUnits="userSpaceOnUse">
   <stop id="stop3750" offset="0"/>
   <stop id="stop3752" stop-opacity=".58824" offset="1"/>
  </linearGradient>
  <filter id="filter3174" color-interpolation-filters="sRGB">
   <feGaussianBlur id="feGaussianBlur3176" stdDeviation="1.71"/>
  </filter>
  <radialGradient id="radialGradient2855-1" cx="48" cy="90.172" r="42" gradientTransform="matrix(1.1573 0 0 .99591 -7.551 .19713)" gradientUnits="userSpaceOnUse">
   <stop id="stop3739-7-1" stop-color="#fefefe" offset="0"/>
   <stop id="stop3741-2-0" stop-color="#fefefe" stop-opacity="0" offset="1"/>
  </radialGradient>
  <linearGradient id="linearGradient3188-9" x1="36.357" x2="36.357" y1="6" y2="63.893" gradientUnits="userSpaceOnUse">
   <stop id="stop3739-6" stop-color="#fefefe" offset="0"/>
   <stop id="stop3741-7" stop-color="#fefefe" stop-opacity="0" offset="1"/>
  </linearGradient>
  <linearGradient id="ButtonShadow-0" x1="45.448" x2="45.448" y1="92.54" y2="7.0165" gradientTransform="matrix(1.0059 0 0 .99417 100 0)" gradientUnits="userSpaceOnUse">
   <stop id="stop3750-8" offset="0"/>
   <stop id="stop3752-5" stop-opacity=".58824" offset="1"/>
  </linearGradient>
  <linearGradient id="linearGradient3780" x1="32.251" x2="32.251" y1="6.1317" y2="90.239" gradientTransform="matrix(1.0238 0 0 1.0119 -1.1429 -98.071)" gradientUnits="userSpaceOnUse" xlink:href="#ButtonShadow-0"/>
  <linearGradient id="linearGradient3721" x1="32.251" x2="32.251" y1="6.1317" y2="90.239" gradientTransform="translate(0,-97)" gradientUnits="userSpaceOnUse" xlink:href="#ButtonShadow-0"/>
  <linearGradient id="linearGradient3345" x1="48" x2="48" y1="90" y2="5.9877" gradientUnits="userSpaceOnUse">
   <stop id="stop3702-0-2" stop-color="#3781c6" offset="0"/>
   <stop id="stop3704-4-9" stop-color="#88b2db" offset="1"/>
  </linearGradient>
  <linearGradient id="linearGradient4337" x1="49.181" x2="50.239" y1="28.282" y2="68.322" gradientUnits="userSpaceOnUse">
   <stop id="stop4341" stop-color="#162850" offset="0"/>
   <stop id="stop4343" stop-color="#163750" stop-opacity="0" offset="1"/>
  </linearGradient>
  <linearGradient id="linearGradient5010">
   <stop id="stop5012" offset="0"/>
   <stop id="stop5014" stop-opacity="0" offset="1"/>
  </linearGradient>
  <filter id="filter3174-8" color-interpolation-filters="sRGB">
   <feGaussianBlur id="feGaussianBlur3176-1" stdDeviation="1.71"/>
  </filter>
  <linearGradient id="linearGradient3832" x1="65.263" x2="65.263" y1="64.205" y2="50.069" gradientTransform="matrix(.625 0 0 .625 28.5 31.25)" gradientUnits="userSpaceOnUse" xlink:href="#linearGradient3875"/>
  <linearGradient id="linearGradient3773" x1="56" x2="88" y1="72" y2="72" gradientTransform="matrix(.9375 0 0 .9375 -140.5 3.5)" gradientUnits="userSpaceOnUse">
   <stop id="stop3780" stop-color="#499119" offset="0"/>
   <stop id="stop3782" stop-color="#8fd625" offset="1"/>
  </linearGradient>
  <linearGradient id="linearGradient3788" x1="70" x2="70" y1="54" y2="75.095" gradientTransform="translate(0,4)" gradientUnits="userSpaceOnUse" xlink:href="#linearGradient3875"/>
  <filter id="filter3806" color-interpolation-filters="sRGB">
   <feGaussianBlur id="feGaussianBlur3808" stdDeviation="1.2"/>
  </filter>
  <linearGradient id="linearGradient3812" x1="65.263" x2="65.263" y1="64.205" y2="50.069" gradientTransform="matrix(.625 0 0 .625 78.5 32.25)" gradientUnits="userSpaceOnUse" xlink:href="#linearGradient5010"/>
  <clipPath id="clipPath3823">
   <path id="path3825" d="m108.81 58c-1.5581 0-2.8125 1.2544-2.8125 2.8125v24.375c0 1.5581 1.2544 2.8125 2.8125 2.8125h24.375c1.5581 0 2.8125-1.2544 2.8125-2.8125v-24.375c0-1.5581-1.2544-2.8125-2.8125-2.8125h-24.375zm7.1875 4.5h10v8.75h5l-10 13.75-10-13.75h5v-8.75z" fill="#fefefe"/>
  </clipPath>
  <filter id="filter3831" color-interpolation-filters="sRGB">
   <feGaussianBlur id="feGaussianBlur3833" stdDeviation="0.6375"/>
  </filter>
  <linearGradient id="linearGradient3250">
   <stop id="stop3252" stop-color="#fefefe" offset="0"/>
   <stop id="stop3254" stop-color="#fefefe" stop-opacity=".49804" offset=".4329"/>
   <stop id="stop3256" stop-color="#fefefe" stop-opacity="0" offset="1"/>
  </linearGradient>
  <clipPath id="clipPath4029">
   <path id="path4031" d="m118 56c-9.9411 0-18 8.0589-18 18 0 9.9411 8.0589 18 18 18 9.7305 0 17.637-7.7253 17.969-17.375v-1.25c-0.33152-9.6497-8.2382-17.375-17.969-17.375zm-6 10.75c5.9493 0.05747 10.832 4.9413 11.031 10.875l3.75 0.03125-6 8.7188-6.1562-8.8125 3.9688 0.03125c-0.25101-4.9057-4.4893-9.9506-11.719-9.625 1.5223-0.80073 3.2718-1.2367 5.125-1.2188z" fill="url(#linearGradient4033)"/>
  </clipPath>
  <linearGradient id="linearGradient4033" x1="69" x2="69" y1="122" y2="5.9782" gradientTransform="matrix(.30998 0 0 .31034 98.14 54.138)" gradientUnits="userSpaceOnUse">
   <stop id="stop3189" stop-color="#1e71ac" offset="0"/>
   <stop id="stop3191" stop-color="#81c1e9" offset="1"/>
  </linearGradient>
  <linearGradient id="linearGradient4029" x1="84.36" x2="84.36" y1="79.417" y2="5.1837" gradientTransform="matrix(-.3006 0 0 -.30318 -5.2855 65.195)" gradientUnits="userSpaceOnUse" xlink:href="#linearGradient3250"/>
  <linearGradient id="linearGradient4793" x1="45.448" x2="45.448" y1="92.54" y2="7.0165" gradientTransform="scale(1.0059 .99417)" gradientUnits="userSpaceOnUse" xlink:href="#ButtonShadow"/>
  <linearGradient id="linearGradient4803" x1="120.65" x2="118.33" y1="87.489" y2="67.706" gradientTransform="matrix(-.70711 -.70711 .70711 -.70711 -.2047 181.33)" gradientUnits="userSpaceOnUse" xlink:href="#linearGradient5010"/>
  <linearGradient id="linearGradient4805" x1="120.65" x2="118.33" y1="87.489" y2="67.706" gradientUnits="userSpaceOnUse" xlink:href="#linearGradient5010"/>
 </defs>
 <metadata id="metadata2413">
  <rdf:RDF>
   <cc:Work rdf:about="">
    <dc:format>image/svg+xml</dc:format>
    <dc:type rdf:resource="http://purl.org/dc/dcmitype/StillImage"/>
    <dc:title/>
   </cc:Work>
  </rdf:RDF>
 </metadata>
 <g id="layer2" display="none">
  <rect id="rect3745" x="5" y="7" width="86" height="85" rx="6" ry="6" fill="url(#ButtonShadow)" filter="url(#filter3174)" opacity=".9"/>
 </g>
 <g id="layer5">
  <path id="path3786" transform="scale(1,-1)" d="m12-95.031c-5.5111 0-10.031 4.5202-10.031 10.031v71c0 5.5111 4.5202 10.031 10.031 10.031h72c5.5111 0 10.031-4.5202 10.031-10.031v-71c0-5.5111-4.5202-10.031-10.031-10.031h-72z" fill="url(#linearGradient3780)" opacity=".08"/>
  <path id="path3778" transform="scale(1,-1)" d="m12-94.031c-4.9716 0-9.0312 4.0596-9.0312 9.0312v71c0 4.9716 4.0596 9.0312 9.0312 9.0312h72c4.9716 0 9.0312-4.0596 9.0312-9.0312v-71c0-4.9716-4.0596-9.0312-9.0312-9.0312h-72z" fill="url(#linearGradient3780)" opacity=".1"/>
  <path id="path3770" transform="scale(1,-1)" d="m12-93c-4.4091 0-8 3.5909-8 8v71c0 4.4091 3.5909 8 8 8h72c4.4091 0 8-3.5909 8-8v-71c0-4.4091-3.5909-8-8-8h-72z" fill="url(#linearGradient3780)" opacity=".2"/>
  <rect id="rect3723" transform="scale(1,-1)" x="5" y="-92" width="86" height="85" rx="7" ry="7" fill="url(#linearGradient3780)" opacity=".3"/>
  <rect id="rect3716" transform="scale(1,-1)" x="6" y="-91" width="84" height="84" rx="6" ry="6" fill="url(#linearGradient3721)" opacity=".45"/>
 </g>
 <rect id="rect2419-8" x="6" y="6" width="84" height="84" rx="6" ry="6" fill="url(#linearGradient3345)"/>
 <path id="rect3728" d="m12 6c-3.324 0-6 2.676-6 6v2 68 2c0 0.33472 0.04135 0.6507 0.09375 0.96875 0.0487 0.2956 0.09704 0.59692 0.1875 0.875 0.00988 0.03038 0.020892 0.0636 0.03125 0.09375 0.098865 0.28777 0.23488 0.54745 0.375 0.8125 0.14459 0.27351 0.31562 0.53562 0.5 0.78125s0.37378 0.47347 0.59375 0.6875c0.43995 0.42806 0.94291 0.81453 1.5 1.0938 0.27854 0.13961 0.57347 0.24695 0.875 0.34375-0.2562-0.10022-0.48671-0.23627-0.71875-0.375-0.00741-0.0044-0.023866 0.0045-0.03125 0-0.031933-0.0193-0.062293-0.04251-0.09375-0.0625-0.1204-0.0767-0.23102-0.16351-0.34375-0.25-0.10617-0.0808-0.21328-0.16111-0.3125-0.25-0.17793-0.16143-0.34746-0.34539-0.5-0.53125-0.10758-0.13026-0.21839-0.26528-0.3125-0.40625-0.025089-0.03838-0.038446-0.08587-0.0625-0.125-0.064763-0.10303-0.13023-0.20452-0.1875-0.3125-0.10101-0.19471-0.20567-0.4157-0.28125-0.625-0.00796-0.02181-0.023589-0.04055-0.03125-0.0625-0.031825-0.09195-0.035805-0.18683-0.0625-0.28125-0.030332-0.10662-0.070389-0.20303-0.09375-0.3125-0.072879-0.34151-0.125-0.6982-0.125-1.0625v-2-68-2c0-2.7818 2.2182-5 5-5h2 68 2c2.7818 0 5 2.2182 5 5v2 68 2c0 0.3643-0.05212 0.72099-0.125 1.0625-0.04415 0.20689-0.08838 0.39766-0.15625 0.59375-0.0077 0.02195-0.0233 0.04069-0.03125 0.0625-0.06274 0.17374-0.13838 0.36745-0.21875 0.53125-0.04158 0.0828-0.07904 0.16995-0.125 0.25-0.0546 0.09721-0.12677 0.18835-0.1875 0.28125-0.09411 0.14096-0.20492 0.276-0.3125 0.40625-0.14317 0.17445-0.30314 0.347-0.46875 0.5-0.01117 0.0102-0.01998 0.02115-0.03125 0.03125-0.13839 0.12556-0.28509 0.23444-0.4375 0.34375-0.10257 0.07315-0.20432 0.15336-0.3125 0.21875-0.0074 0.0045-0.02384-0.0044-0.03125 0-0.23204 0.13873-0.46255 0.27478-0.71875 0.375 0.30153-0.0968 0.59646-0.20414 0.875-0.34375 0.55709-0.27922 1.0601-0.66569 1.5-1.0938 0.21997-0.21403 0.40937-0.44186 0.59375-0.6875s0.35541-0.50774 0.5-0.78125c0.14012-0.26505 0.27614-0.52473 0.375-0.8125 0.01041-0.03078 0.02133-0.06274 0.03125-0.09375 0.09046-0.27808 0.1388-0.5794 0.1875-0.875 0.0524-0.31805 0.09375-0.63403 0.09375-0.96875v-2-68-2c0-3.324-2.676-6-6-6h-72z" fill="url(#linearGradient3188-9)" opacity=".35"/>
 <path id="path3615" d="m12 90c-3.324 0-6-2.676-6-6v-2-68-2c0-0.33472 0.04135-0.6507 0.09375-0.96875 0.0487-0.2956 0.09704-0.59691 0.1875-0.875 0.00988-0.0304 0.020892-0.0636 0.03125-0.0937 0.098865-0.28777 0.23488-0.54745 0.375-0.8125 0.14459-0.27351 0.31562-0.53562 0.5-0.78125s0.37378-0.47347 0.59375-0.6875c0.43995-0.42806 0.94291-0.81453 1.5-1.0938 0.27854-0.13961 0.57347-0.24695 0.875-0.34375-0.2562 0.10022-0.48671 0.23627-0.71875 0.375-0.00741 4e-3 -0.023866-4e-3 -0.03125 0-0.031933 0.0193-0.062293 0.0425-0.09375 0.0625-0.1204 0.0767-0.23102 0.16351-0.34375 0.25-0.10617 0.0808-0.21328 0.16111-0.3125 0.25-0.17793 0.16143-0.34746 0.34539-0.5 0.53125-0.10758 0.13026-0.21839 0.26529-0.3125 0.40625-0.025089 0.0384-0.038446 0.0859-0.0625 0.125-0.064763 0.10303-0.13023 0.20452-0.1875 0.3125-0.10101 0.19471-0.20567 0.4157-0.28125 0.625-0.00796 0.0218-0.023589 0.0405-0.03125 0.0625-0.031825 0.0919-0.035805 0.18683-0.0625 0.28125-0.030332 0.10662-0.070389 0.20303-0.09375 0.3125-0.072879 0.34146-0.125 0.69816-0.125 1.0624v2 68 2c0 2.7818 2.2182 5 5 5h2 68 2c2.7818 0 5-2.2182 5-5v-2-68-2c0-0.36429-0.05212-0.72099-0.125-1.0625-0.04415-0.20689-0.08838-0.39766-0.15625-0.59375-0.0077-0.022-0.0233-0.0407-0.03125-0.0625-0.06274-0.17374-0.13838-0.36745-0.21875-0.53125-0.04158-0.0828-0.07904-0.16995-0.125-0.25-0.0546-0.0972-0.12677-0.18835-0.1875-0.28125-0.09411-0.14096-0.20492-0.27599-0.3125-0.40625-0.14317-0.17445-0.30314-0.347-0.46875-0.5-0.01117-0.0102-0.01998-0.0212-0.03125-0.0312-0.13839-0.12556-0.28509-0.23444-0.4375-0.34375-0.10257-0.0731-0.20432-0.15336-0.3125-0.21875-0.0074-4e-3 -0.02384 4e-3 -0.03125 0-0.23204-0.13873-0.46255-0.27478-0.71875-0.375 0.30153 0.0968 0.59646 0.20414 0.875 0.34375 0.55709 0.27922 1.0601 0.66569 1.5 1.0938 0.21997 0.21403 0.40937 0.44187 0.59375 0.6875s0.35541 0.50774 0.5 0.78125c0.14012 0.26505 0.27614 0.52473 0.375 0.8125 0.01041 0.0308 0.02133 0.0627 0.03125 0.0937 0.09046 0.27809 0.1388 0.5794 0.1875 0.875 0.0524 0.31805 0.09375 0.63403 0.09375 0.96875v2 68 2c0 3.324-2.676 6-6 6h-72z" fill="url(#radialGradient2855-1)" opacity=".25"/>
 <path id="path4347" d="m29.699 27c-3.334 0-5.9558 1.2595-7.8633 3.7773-1.8909 2.5015-2.8359 5.9999-2.8359 10.496 0 4.3654 0.91177 7.8154 2.7363 10.35 1.8411 2.5342 4.4297 3.8008 7.7637 3.8008 3.4833 0 6.1119-1.3491 7.8867-4.0469h0.22461l-0.22461 3.3613v0.53906c0 4.1529-1.9497 6.2285-5.8477 6.2285-3.8648 0-7.4805-0.70328-10.848-2.1094v5.9844c2.8695 1.0791 6.3366 1.6191 10.4 1.6191 4.6112 0 8.0782-1.0227 10.4-3.0664 2.3388-2.0274 3.5078-5.0108 3.5078-8.9512v-27.467h-6.4199l-0.62109 3.5059h-0.19922c-1.9573-2.6814-4.6436-4.0215-8.0605-4.0215zm36.791 0c-3.4866 0-6.118 1.3562-7.8945 4.0703h-0.34766l-1.0723-3.5547h-6.1758v39.484h7.5957v-11.109c0-0.3597-0.13279-1.6837-0.39844-3.9727h0.39844c1.8595 2.338 4.4246 3.5059 7.6953 3.5059 2.175 0 4.0673-0.56326 5.6777-1.6914s2.8476-2.7715 3.7109-4.9297c0.87995-2.1582 1.3203-4.7003 1.3203-7.627 0-4.4472-0.92955-7.9223-2.7891-10.424-1.8595-2.5015-4.4333-3.752-7.7207-3.752zm-2.4395 5.9844c1.7931 0 3.1035 0.67812 3.9336 2.0352 0.84674 1.3407 1.2695 3.3609 1.2695 6.0586 0 5.5263-1.6999 8.2891-5.1035 8.2891-1.9259-1e-6 -3.3378-0.63877-4.2344-1.9141-0.87995-1.2753-1.3203-3.3832-1.3203-6.3262v-0.81055c0.03321-2.616 0.48236-4.4871 1.3457-5.6152 0.86335-1.1445 2.2333-1.7168 4.1094-1.7168zm-31.963 0.09766c2.0402 0 3.5155 0.64586 4.4277 1.9375 0.92887 1.2753 1.3926 3.3761 1.3926 6.3027v0.9082c0 2.5833-0.43925 4.4544-1.3184 5.6152-0.87911 1.1445-2.3387 1.7168-4.3789 1.7168-1.8743 0-3.2586-0.67812-4.1543-2.0352-0.87911-1.357-1.3184-3.4095-1.3184-6.1562 0-5.5263 1.7834-8.2891 5.3496-8.2891z" opacity=".3"/>
 <path id="path4260" d="m29.699 28c-3.334 0-5.9558 1.2595-7.8633 3.7773-1.8909 2.5015-2.8359 5.9999-2.8359 10.496 0 4.3654 0.91177 7.8154 2.7363 10.35 1.8411 2.5342 4.4297 3.8008 7.7637 3.8008 3.4833 0 6.1119-1.3491 7.8867-4.0469h0.22461l-0.22461 3.3613v0.53906c0 4.1529-1.9497 6.2285-5.8477 6.2285-3.8648 0-7.4805-0.70328-10.848-2.1094v5.9844c2.8695 1.0791 6.3366 1.6191 10.4 1.6191 4.6112 0 8.0782-1.0227 10.4-3.0664 2.3388-2.0274 3.5078-5.0108 3.5078-8.9512v-27.467h-6.4199l-0.62109 3.5059h-0.19922c-1.9573-2.6814-4.6436-4.0215-8.0605-4.0215zm36.791 0c-3.4866 0-6.118 1.3562-7.8945 4.0703h-0.34766l-1.0723-3.5547h-6.1758v39.484h7.5957v-11.109c0-0.3597-0.13279-1.6837-0.39844-3.9727h0.39844c1.8595 2.338 4.4246 3.5059 7.6953 3.5059 2.175 0 4.0673-0.56326 5.6777-1.6914s2.8476-2.7715 3.7109-4.9297c0.87995-2.1582 1.3203-4.7003 1.3203-7.627 0-4.4472-0.92955-7.9223-2.7891-10.424-1.8595-2.5015-4.4333-3.752-7.7207-3.752zm-2.4395 5.9844c1.7931 0 3.1035 0.67812 3.9336 2.0352 0.84674 1.3407 1.2695 3.3609 1.2695 6.0586 0 5.5263-1.6999 8.2891-5.1035 8.2891-1.9259-1e-6 -3.3378-0.63877-4.2344-1.9141-0.87995-1.2753-1.3203-3.3832-1.3203-6.3262v-0.81055c0.033206-2.616 0.48236-4.4871 1.3457-5.6152 0.86335-1.1445 2.2333-1.7168 4.1094-1.7168zm-31.963 0.097656c2.0402 0 3.5155 0.64586 4.4277 1.9375 0.92887 1.2753 1.3926 3.3761 1.3926 6.3027v0.9082c0 2.5833-0.43925 4.4544-1.3184 5.6152-0.87911 1.1445-2.3387 1.7168-4.3789 1.7168-1.8743 0-3.2586-0.67812-4.1543-2.0352-0.87911-1.357-1.3184-3.4095-1.3184-6.1562 0-5.5263 1.7834-8.2891 5.3496-8.2891z" fill="#beffaa"/>
 <path id="path4321" d="m29.699 28c-3.334 0-5.9558 1.2595-7.8633 3.7773-1.8909 2.5015-2.8359 5.9999-2.8359 10.496 0 4.3654 0.91177 7.8154 2.7363 10.35 1.8411 2.5342 4.4297 3.8008 7.7637 3.8008 3.4833 0 6.1119-1.3491 7.8867-4.0469h0.22461l-0.22461 3.3613v0.53906c0 4.1529-1.9497 6.2285-5.8477 6.2285-3.8648 0-7.4805-0.70328-10.848-2.1094v5.9844c2.8695 1.0791 6.3366 1.6191 10.4 1.6191 4.6112 0 8.0782-1.0227 10.4-3.0664 2.3388-2.0274 3.5078-5.0108 3.5078-8.9512v-27.467h-6.4199l-0.62109 3.5059h-0.19922c-1.9573-2.6814-4.6436-4.0215-8.0605-4.0215zm36.791 0c-3.4866 0-6.118 1.3562-7.8945 4.0703h-0.34766l-1.0723-3.5547h-6.1758v39.484h7.5957v-11.109c0-0.3597-0.13279-1.6837-0.39844-3.9727h0.39844c1.8595 2.338 4.4246 3.5059 7.6953 3.5059 2.175 0 4.0673-0.56326 5.6777-1.6914s2.8476-2.7715 3.7109-4.9297c0.87995-2.1582 1.3203-4.7003 1.3203-7.627 0-4.4472-0.92955-7.9223-2.7891-10.424-1.8595-2.5015-4.4333-3.752-7.7207-3.752zm-36.791 1c3.1554 0 5.4581 1.1537 7.252 3.6113a1.0001 1.0001 0 0 0 0.80859 0.41016h0.19922a1.0001 1.0001 0 0 0 0.98438-0.82617l0.47461-2.6797h4.582v26.467c0 3.7425-1.0656 6.3779-3.1621 8.1953a1.0001 1.0001 0 0 0-0.00586 0.00586c-2.0758 1.8269-5.2769 2.8164-9.7402 2.8164-3.6922 0-6.7876-0.50269-9.4004-1.3887v-3.875c3.1052 1.1102 6.3697 1.7695 9.8477 1.7695 2.1265 0 3.9128-0.59251 5.1152-1.873 1.2024-1.2805 1.7324-3.1225 1.7324-5.3555v-0.50586l0.22266-3.3281a1.0001 1.0001 0 0 0-0.99805-1.0664h-0.22461a1.0001 1.0001 0 0 0-0.83594 0.45117c-1.6098 2.4469-3.8257 3.5957-7.0508 3.5957-3.0785 0-5.2793-1.0863-6.9512-3.3848-1.6654-2.3132-2.5488-5.5394-2.5488-9.7656 0-4.3561 0.9157-7.621 2.6328-9.8926 1.7381-2.2943 3.9843-3.3809 7.0664-3.3809zm36.791 0c3.0338 0 5.2268 1.0726 6.918 3.3477 1.6902 2.2737 2.5918 5.5203 2.5918 9.8281 0 2.8263-0.42576 5.238-1.2461 7.25a1.0001 1.0001 0 0 0-0.001953 0.00586c-0.80601 2.0149-1.9236 3.478-3.3574 4.4824-1.4371 1.0067-3.1012 1.5098-5.1035 1.5098-3.0327 0-5.2305-1.0145-6.9121-3.1289a1.0001 1.0001 0 0 0-0.7832-0.37695h-0.39844a1.0001 1.0001 0 0 0-0.99414 1.1152c0.26495 2.283 0.39258 3.7438 0.39258 3.8574v10.109h-5.5957v-37.484h4.4336l0.85742 2.8438a1.0001 1.0001 0 0 0 0.95703 0.71094h0.34766a1.0001 1.0001 0 0 0 0.83594-0.45312c1.6123-2.4632 3.8313-3.6172 7.0586-3.6172zm-2.4395 3.9844c-2.0784 0-3.833 0.69224-4.9062 2.1133l-0.001953 0.001953c-1.083 1.4189-1.5123 3.484-1.5469 6.2051a1.0001 1.0001 0 0 0 0 0.011718v0.81055c0 3.0427 0.41413 5.3236 1.498 6.8945a1.0001 1.0001 0 0 0 0.003906 0.00586c1.0903 1.5509 2.9057 2.3398 5.0527 2.3398 1.9724 0 3.6732-0.91383 4.6797-2.5488 1.0065-1.635 1.4238-3.8746 1.4238-6.7402 0-2.7985-0.41608-4.9874-1.4219-6.584-0.99783-1.6262-2.7386-2.5098-4.7812-2.5098zm-31.963 0.097656c-2.0413 0-3.7952 0.89261-4.8516 2.5293-1.0563 1.6367-1.498 3.8891-1.498 6.7598 0 2.8534 0.4319 5.0836 1.4785 6.6992a1.0001 1.0001 0 0 0 0.005859 0.007813c1.0723 1.6246 2.8728 2.4844 4.9883 2.4844 2.2272 0 4.0651-0.66658 5.1719-2.1074a1.0001 1.0001 0 0 0 0.003907-0.005859c1.0945-1.4453 1.5215-3.5221 1.5215-6.2188v-0.9082c0-3.0281-0.44029-5.3133-1.5801-6.8828-1.1151-1.5752-2.9912-2.3574-5.2402-2.3574zm31.963 0.90234c1.7931 0 3.1035 0.67812 3.9336 2.0352 0.84674 1.3407 1.2695 3.3609 1.2695 6.0586 0 5.5263-1.6999 8.2891-5.1035 8.2891-1.9259-1e-6 -3.3378-0.63877-4.2344-1.9141-0.87995-1.2753-1.3203-3.3832-1.3203-6.3262v-0.81055c0.033206-2.616 0.48236-4.4871 1.3457-5.6152 0.86335-1.1445 2.2333-1.7168 4.1094-1.7168zm-31.963 0.097656c2.0402 0 3.5155 0.64586 4.4277 1.9375 0.92887 1.2753 1.3926 3.3761 1.3926 6.3027v0.9082c0 2.5833-0.43925 4.4544-1.3184 5.6152-0.87911 1.1445-2.3387 1.7168-4.3789 1.7168-1.8743 0-3.2586-0.67812-4.1543-2.0352-0.87911-1.357-1.3184-3.4095-1.3184-6.1562 0-5.5263 1.7834-8.2891 5.3496-8.2891z" fill="url(#linearGradient4337)" opacity=".25"/>
 <g id="layer2-9" transform="translate(-90.241 -2.4014)" display="none">
  <path id="rect3745-5" d="m11 7 37-2 37 2c3.324 0 6 2.676 6 6v73c0 3.324-2.676 6-6 6h-74c-3.324 0-6-2.676-6-6v-73c0-3.324 2.676-6 6-6z" fill="url(#linearGradient4793)" filter="url(#filter3174-8)" opacity=".9"/>
 </g>
 <g id="layer4" transform="translate(-90.241 -2.4014)" display="none">
  <rect id="rect3790" transform="matrix(0,-1,1,0,0,4)" x="-86" y="56" width="30" height="30" rx="2.8125" ry="2.8125" filter="url(#filter3806)" opacity=".6"/>
  <rect id="rect2993" transform="rotate(-90)" x="-88" y="56" width="30" height="30" rx="2.8125" ry="2.8125" fill="url(#linearGradient3773)"/>
  <path id="rect3775" d="m58.812 58c-1.5581 0-2.8125 1.2544-2.8125 2.8125v24.375c0 0.87307 0.41082 1.6412 1.0312 2.1562-0.00284-0.053842-0.03125-0.10162-0.03125-0.15625v-24.375c0-1.5581 1.1708-2.8125 2.625-2.8125h22.75c1.4542 0 2.625 1.2544 2.625 2.8125v24.375c0 0.05463-0.02841 0.10241-0.03125 0.15625 0.62043-0.51509 1.0312-1.2832 1.0312-2.1562v-24.375c0-1.5581-1.2544-2.8125-2.8125-2.8125h-24.375z" fill="url(#linearGradient3788)" opacity=".5"/>
  <path id="path3810" transform="translate(-50)" d="m116 63.5v8.75h-5l10 13.75 10-13.75h-5v-8.75h-10z" clip-path="url(#clipPath3823)" display="inline" fill="url(#linearGradient3812)" filter="url(#filter3831)" opacity=".6"/>
  <path id="path4278" d="m66 62.5v8.75h-5l10 13.75 10-13.75h-5v-8.75h-10z" display="inline" fill="url(#linearGradient3832)"/>
 </g>
 <g id="g4938" transform="translate(47.476 -19.871)">
  <path id="path4036" d="m-32.113 54.847c1.3979 1.4252 3.0574 2.4296 4.8393 2.9831a0.8779 0.8779 0 0 0 0.86179-1.4805c-4.6832-4.2795-4.3764-9.6668-1.9224-13.059l2.0108 2.055a0.8779 0.8779 0 0 0 1.4805-0.46404l1.8783-10.585a0.8779 0.8779 0 0 0-1.0165-1.0165l-10.408 1.9224a0.8779 0.8779 0 0 0-0.46404 1.4805l2.0992 2.1434c-3.7983 4.6927-3.6556 11.64 0.64082 16.02z" fill="url(#linearGradient4803)" opacity=".15"/>
  <path id="path4022" transform="matrix(-.70711 -.70711 .70711 -.70711 -.2047 181.33)" d="m126.77 78.669-5.9921 8.7215-6.1617-8.8389 3.9648 0.0383c-0.25101-4.9057-4.4683-9.9388-11.698-9.6131 1.5223-0.80073 3.267-1.2515 5.1202-1.2336 5.9493 0.05747 10.833 4.956 11.033 10.89l3.7341 0.03607z" clip-path="url(#clipPath4029)" fill="url(#linearGradient4805)" opacity=".3"/>
  <path id="path4018" d="m-34.928 36.767 10.404-1.93-1.893 10.607-2.7764-2.8306c-3.2913 3.6463-3.8682 10.187 1.474 15.069-1.6426-0.51024-3.195-1.4252-4.4928-2.7483-4.1662-4.2474-4.1555-11.164-0.10096-15.501l-2.6149-2.6659z" fill="url(#linearGradient4029)"/>
 </g>
 <g id="g4943" transform="matrix(-1 0 0 -1 47.049 113.27)">
  <path id="path4945" d="m-32.113 54.847c1.3979 1.4252 3.0574 2.4296 4.8393 2.9831a0.8779 0.8779 0 0 0 0.86179-1.4805c-4.6832-4.2795-4.3764-9.6668-1.9224-13.059l2.0108 2.055a0.8779 0.8779 0 0 0 1.4805-0.46404l1.8783-10.585a0.8779 0.8779 0 0 0-1.0165-1.0165l-10.408 1.9224a0.8779 0.8779 0 0 0-0.46404 1.4805l2.0992 2.1434c-3.7983 4.6927-3.6556 11.64 0.64082 16.02z" fill="url(#linearGradient4803)" opacity=".15"/>
  <path id="path4947" transform="matrix(-.70711 -.70711 .70711 -.70711 -.2047 181.33)" d="m126.77 78.669-5.9921 8.7215-6.1617-8.8389 3.9648 0.0383c-0.25101-4.9057-4.4683-9.9388-11.698-9.6131 1.5223-0.80073 3.267-1.2515 5.1202-1.2336 5.9493 0.05747 10.833 4.956 11.033 10.89l3.7341 0.03607z" clip-path="url(#clipPath4029)" fill="url(#linearGradient4805)" opacity=".3"/>
  <path id="path4949" d="m-34.928 36.767 10.404-1.93-1.893 10.607-2.7764-2.8306c-3.2913 3.6463-3.8682 10.187 1.474 15.069-1.6426-0.51024-3.195-1.4252-4.4928-2.7483-4.1662-4.2474-4.1555-11.164-0.10096-15.501l-2.6149-2.6659z" fill="url(#linearGradient4029)"/>
 </g>
</svg>
