<?xml version="1.0" encoding="UTF-8"?>
<svg id="svg2408" width="96" height="96" version="1.0" xmlns="http://www.w3.org/2000/svg" xmlns:cc="http://creativecommons.org/ns#" xmlns:dc="http://purl.org/dc/elements/1.1/" xmlns:rdf="http://www.w3.org/1999/02/22-rdf-syntax-ns#" xmlns:xlink="http://www.w3.org/1999/xlink">
 <defs id="defs2410">
  <linearGradient id="ButtonShadow" x1="45.448" x2="45.448" y1="92.54" y2="7.0165" gradientTransform="scale(1.0059 .99417)" gradientUnits="userSpaceOnUse">
   <stop id="stop3750" offset="0"/>
   <stop id="stop3752" stop-opacity=".58824" offset="1"/>
  </linearGradient>
  <linearGradient id="linearGradient3737">
   <stop id="stop3739" stop-color="#fff" offset="0"/>
   <stop id="stop3741" stop-color="#fff" stop-opacity="0" offset="1"/>
  </linearGradient>
  <filter id="filter3174" color-interpolation-filters="sRGB">
   <feGaussianBlur id="feGaussianBlur3176" stdDeviation="1.71"/>
  </filter>
  <linearGradient id="linearGradient3617" x1="48" x2="48" y1="90" y2="-32" gradientTransform="translate(0,-96)" gradientUnits="userSpaceOnUse">
   <stop id="stop4284" stop-color="#f0f0f0" offset="0"/>
   <stop id="stop4282" stop-color="#c6c6c6" offset="1"/>
  </linearGradient>
  <linearGradient id="ButtonShadow-0" x1="45.448" x2="45.448" y1="92.54" y2="7.0165" gradientTransform="matrix(1.0059 0 0 .99417 100 0)" gradientUnits="userSpaceOnUse">
   <stop id="stop3750-8" offset="0"/>
   <stop id="stop3752-5" stop-opacity=".58824" offset="1"/>
  </linearGradient>
  <linearGradient id="linearGradient3780" x1="32.251" x2="32.251" y1="6.1317" y2="90.239" gradientTransform="matrix(1.0238 0 0 -1.0119 -1.1429 98.071)" gradientUnits="userSpaceOnUse" xlink:href="#ButtonShadow-0"/>
  <linearGradient id="linearGradient3725" x1="32.251" x2="32.251" y1="6.1317" y2="90.239" gradientTransform="matrix(1.0238 0 0 1.0119 -1.1429 -98.071)" gradientUnits="userSpaceOnUse" xlink:href="#ButtonShadow-0"/>
  <linearGradient id="linearGradient3721" x1="32.251" x2="32.251" y1="6.1317" y2="90.239" gradientTransform="translate(0,-97)" gradientUnits="userSpaceOnUse" xlink:href="#ButtonShadow-0"/>
  <linearGradient id="linearGradient4390" x1="48" x2="48" y1="88" y2="-40" gradientTransform="matrix(1,0,0,-1,0,92)" gradientUnits="userSpaceOnUse" xlink:href="#linearGradient3737"/>
  <linearGradient id="linearGradient4429" x1="48" x2="112.12" y1="82" y2="82.455" gradientUnits="userSpaceOnUse" spreadMethod="reflect" xlink:href="#linearGradient3737"/>
  <linearGradient id="linearGradient3228" x1="90" x2="48" y1="88" y2="88" gradientUnits="userSpaceOnUse" spreadMethod="reflect">
   <stop id="stop3894" stop-opacity=".58824" offset="0"/>
   <stop id="stop3896" stop-opacity=".47059" offset=".1178"/>
   <stop id="stop3898" stop-opacity=".39216" offset=".2381"/>
   <stop id="stop3900" stop-opacity=".31373" offset="1"/>
  </linearGradient>
 </defs>
 <metadata id="metadata2413">
  <rdf:RDF>
   <cc:Work rdf:about="">
    <dc:format>image/svg+xml</dc:format>
    <dc:type rdf:resource="http://purl.org/dc/dcmitype/StillImage"/>
    <dc:title/>
   </cc:Work>
  </rdf:RDF>
 </metadata>
 <g id="layer2" display="none">
  <rect id="rect3745" x="5" y="7" width="86" height="85" rx="6" ry="6" fill="url(#ButtonShadow)" filter="url(#filter3174)" opacity=".9"/>
 </g>
 <path id="path3786" d="m12 95.031c-5.5111 0-10.031-4.5202-10.031-10.031v-71c0-5.5111 4.5202-10.031 10.031-10.031h72c5.5111 0 10.031 4.5202 10.031 10.031v71c0 5.5111-4.5202 10.031-10.031 10.031h-72z" fill="url(#linearGradient3780)" opacity=".08"/>
 <path id="path3778-9" d="m12 94.031c-4.9716 0-9.0312-4.0596-9.0312-9.0312v-71c0-4.9716 4.0596-9.0312 9.0312-9.0312h72c4.9716 0 9.0312 4.0596 9.0312 9.0312v71c0 4.9716-4.0596 9.0312-9.0312 9.0312h-72z" fill="url(#linearGradient3780)" opacity=".1"/>
 <path id="path3770" d="m12 93c-4.4091 0-8-3.5909-8-8v-71c0-4.4091 3.5909-8 8-8h72c4.4091 0 8 3.5909 8 8v71c0 4.4091-3.5909 8-8 8h-72z" fill="url(#linearGradient3780)" opacity=".2"/>
 <rect id="rect3723" transform="scale(1,-1)" x="5" y="-92" width="86" height="85" rx="7" ry="7" fill="url(#linearGradient3725)" opacity=".3"/>
 <rect id="rect3716" transform="scale(1,-1)" x="6" y="-91" width="84" height="84" rx="6" ry="6" fill="url(#linearGradient3721)" opacity=".45"/>
 <rect id="rect2419" transform="scale(1,-1)" x="6" y="-90" width="84" height="84" rx="6" ry="6" fill="url(#linearGradient3617)"/>
 <path id="path4546" d="m34.874 55.51c-1.1166-0.21935-4.8491-1.2712-8.2945-2.3373-6.2231-1.9258-6.2888-1.9352-10.012-1.4378-2.0612 0.27538-3.9213 0.33222-4.1336 0.12632-0.61352-0.59505 1.5189-2.3283 4.786-3.8902 4.3696-2.0889 8.3095-2.0046 16.674 0.35689 7.7196 2.1795 9.9262 2.1245 16.007-0.39906 5.3298-2.2118 6.2242-2.4249 6.2242-1.4833 0 1.1568-2.7593 4.0083-5.756 5.9484-4.8551 3.1432-10.045 4.1868-15.495 3.1161z" fill="#00f" stroke-width=".46316"/>
 <path id="path4546-3" d="m57.189 40.356c-1.1166-0.21935-4.8491-1.2712-8.2945-2.3373-6.2231-1.9258-6.2888-1.9352-10.012-1.4378-2.0612 0.27538-3.9213 0.33222-4.1336 0.12632-0.61352-0.59505 1.5189-2.3283 4.786-3.8902 4.3696-2.0889 8.3095-2.0046 16.674 0.35689 7.7196 2.1795 9.9262 2.1245 16.007-0.39906 5.3298-2.2118 6.2242-2.4249 6.2242-1.4833 0 1.1568-2.7593 4.0083-5.756 5.9484-4.8551 3.1432-10.045 4.1868-15.495 3.1161z" fill="#009533" stroke-width=".46316"/>
 <path id="path4546-3-6" d="m46.206 26.119c-1.1166-0.21935-4.8491-1.2712-8.2945-2.3373-6.2231-1.9258-6.2888-1.9352-10.012-1.4378-2.0612 0.27538-3.9213 0.33222-4.1336 0.12632-0.61352-0.59505 1.5189-2.3283 4.786-3.8902 4.3696-2.0889 8.3095-2.0046 16.674 0.35689 7.7196 2.1795 9.9262 2.1245 16.007-0.39906 5.3298-2.2118 6.2242-2.4249 6.2242-1.4833 0 1.1568-2.7593 4.0083-5.756 5.9484-4.8551 3.1432-10.045 4.1868-15.495 3.1161z" fill="#f52b1e" stroke-width=".46316"/>
 <path id="path4589" d="m60.831 80.863c-2.6539-0.55729-5.3848-2.0602-6.07-3.3404-1.4965-2.7963-0.0967-6.7016 2.759-7.6971 1.4122-0.49231 1.5487-0.73573 1.1864-2.1163-0.58752-2.2387-0.21582-3.7375 1.2739-5.1371l1.3036-1.2247-1.3331-1.9644c-1.2543-1.8483-1.614-3.4311-1.3455-5.9194 0.21165-1.9609 1.7558-3.5964 4.803-5.0873 2.9217-1.4295 3.2366-1.4664 9.4956-1.1126 5.815 0.32863 6.6945 0.25329 8.6437-0.74045 1.1935-0.60847 2.3026-0.97364 2.4648-0.81148 0.66161 0.66161-1.0615 2.2686-4.0081 3.738l-3.1276 1.5597v2.9304c0 5.0108-2.8607 7.38-9.6431 7.9863-3.9011 0.34875-3.9129 0.35483-3.9129 2.0097 0 1.6558 0.0098 1.6608 3.9343 2.0116 2.1774 0.19461 4.5615 0.7626 5.3388 1.2719 4.303 2.8194 2.9436 10.586-2.2113 12.634-2.6759 1.0631-7.0805 1.5288-9.5517 1.0098zm7.7658-3.1044c1.6299-0.84287 2.4599-2.626 2.0977-4.5067-0.27354-1.4204-2.3645-2.2284-6.5717-2.5396l-3.6246-0.26811-1.2436 1.8971c-1.4361 2.1908-1.2172 3.5072 0.85387 5.1363 1.7438 1.3717 6.1004 1.5159 8.4884 0.28102zm0.66453-18.51c2.9418-2.314 3.004-9.0309 0.09053-9.7622-4.0214-1.0093-6.9031 7.5504-3.3741 10.022 1.5097 1.0575 1.6198 1.0487 3.2836-0.26z" stroke-width=".55331"/>
 <path id="path866" d="m67.297 17.627c-0.61366 1.357-3.0113 3.7019-5.5957 5.375-4.8551 3.1432-10.043 4.1879-15.494 3.1172-1.1166-0.21935-4.8496-1.2717-8.2949-2.3379-6.2231-1.9258-6.2887-1.9349-10.012-1.4375-1.7137 0.22896-3.2744 0.30201-3.8789 0.20312-0.33827 0.39726-0.45842 0.72541-0.25586 0.92188 0.21229 0.2059 2.0736 0.15038 4.1348-0.125 3.723-0.49741 3.7886-0.48831 10.012 1.4375 3.4453 1.0662 7.1783 2.1185 8.2949 2.3379 5.4507 1.0707 10.639 0.02604 15.494-3.1172 2.9967-1.9401 5.7559-4.7905 5.7559-5.9473 0-0.19854-0.04732-0.33987-0.16016-0.42774zm10.984 14.236c-0.61406 1.3574-3.0133 3.7038-5.5977 5.377-4.8551 3.1432-10.043 4.1859-15.494 3.1152-1.1166-0.21935-4.8496-1.2717-8.2949-2.3379-6.2231-1.9258-6.2887-1.9349-10.012-1.4375-1.7137 0.22896-3.2729 0.30351-3.877 0.20508-0.33799 0.39755-0.45842 0.72541-0.25586 0.92188 0.21229 0.2059 2.0716 0.14843 4.1328-0.12695 3.723-0.49741 3.7886-0.48831 10.012 1.4375 3.4453 1.0662 7.1783 2.1185 8.2949 2.3379 5.4507 1.0707 10.639 0.02799 15.494-3.1152 2.9967-1.9401 5.7578-4.7924 5.7578-5.9492 0-0.19854-0.04732-0.33987-0.16016-0.42774zm5.627 14.811c-0.0054-4.85e-4 -0.01773 0.0022-0.02344 2e-3 -0.54479 0.77843-1.9359 1.8035-3.8809 2.7734l-3.127 1.5605v1l3.127-1.5605c2.9466-1.4694 4.6694-3.0767 4.0078-3.7383-0.02027-0.02027-0.05534-0.03277-0.10352-0.03711zm-27.943 0.34375c-0.61366 1.3574-3.0113 3.7038-5.5957 5.377-4.8551 3.1432-10.043 4.1859-15.494 3.1152-1.1166-0.21935-4.8496-1.2717-8.2949-2.3379-6.2231-1.9258-6.2887-1.9349-10.012-1.4375-1.7137 0.22896-3.2744 0.30351-3.8789 0.20508-0.33827 0.39755-0.45842 0.72541-0.25586 0.92188 0.21229 0.2059 2.0736 0.14843 4.1348-0.12695 3.723-0.49741 3.7886-0.48831 10.012 1.4375 3.4453 1.0662 7.1783 2.1185 8.2949 2.3379 5.4507 1.0707 10.639 0.02799 15.494-3.1152 2.9967-1.9401 5.7559-4.7924 5.7559-5.9492 0-0.19873-0.04762-0.3399-0.16016-0.42773zm12.646 2.3887c-2.5218 0.08213-4.4102 3.8312-4.2051 6.8809 0.20437-2.8115 1.9542-5.8076 4.2051-5.8809 0.24115-0.0079 0.4889 0.017 0.74023 0.08008 1.3145 0.32991 2.0169 1.8809 2.1289 3.6934 0.12171-2.2156-0.57722-4.3039-2.1289-4.6934-0.25134-0.06308-0.49909-0.08798-0.74023-0.08008zm8.2656 4.5332c0 5.0108-2.8622 7.38-9.6445 7.9863-3.9011 0.34875-3.9121 0.35487-3.9121 2.0098 0 0.18923 0.0017 0.35091 0.0078 0.5 0.04711-1.155 0.44907-1.2009 3.9043-1.5098 6.7824-0.60632 9.6445-2.9756 9.6445-7.9863zm-18.34 1.3945c-0.09768 2.0062 0.3128 3.426 1.4141 5.0488l0.91797 1.3535 0.41406-0.38867-1.332-1.9648c-0.90862-1.3389-1.343-2.5432-1.4141-4.0488zm-0.06445 11.047c-0.07446 0.68889 2e-3 1.4503 0.23242 2.3281 0.04107 0.15651 0.04708 0.25354 0.07422 0.38281 0.16045-0.29413 0.10554-0.69789-0.07422-1.3828-0.1249-0.4759-0.19585-0.91296-0.23242-1.3281zm2.0254 4.0625-1.2441 1.8965c-0.75516 1.152-1.0402 2.0612-0.85156 2.9023 0.10917-0.57035 0.38257-1.1869 0.85156-1.9023l1.2441-1.8965 3.625 0.26758c4.2072 0.3112 6.2968 1.1207 6.5703 2.541 0.02681 0.1392 0.03297 0.27628 0.04687 0.41406 0.05757-0.45573 0.04613-0.9311-0.04687-1.4141-0.27354-1.4204-2.3631-2.2298-6.5703-2.541zm14.645 2.457c-0.17653 2.8623-1.8713 5.8056-4.7598 6.9531-2.6759 1.0631-7.0816 1.5287-9.5527 1.0098-2.6539-0.55729-5.3852-2.0616-6.0703-3.3418-0.33621-0.62822-0.51801-1.3132-0.57812-2.0078-0.0897 1.0268 0.08075 2.0784 0.57812 3.0078 0.68515 1.2802 3.4164 2.7845 6.0703 3.3418 2.4711 0.51892 6.8768 0.05331 9.5527-1.0098 3.2272-1.2821 4.9659-4.8052 4.7598-7.9531z" fill="#fff" opacity=".8" stroke-width=".46316"/>
 <path id="path878" d="m66.893 16.527c-0.73046 0.02695-2.329 0.62742-5.6602 2.0098-6.0811 2.5235-8.2863 2.5779-16.006 0.39844-8.3641-2.3615-12.304-2.4444-16.674-0.35547-3.2671 1.5618-5.4006 3.2936-4.7871 3.8887 0.03579 0.03471 0.13328 0.05807 0.25586 0.07813 0.68629-0.80596 2.3428-1.9206 4.5312-2.9668 4.3696-2.0889 8.3097-2.006 16.674 0.35547 7.7196 2.1795 9.9248 2.1251 16.006-0.39844 3.3311-1.3824 4.9297-1.9828 5.6602-2.0098 0.19184-0.0071 0.31646 0.0312 0.4043 0.09961 0.09791-0.21652 0.16016-0.41309 0.16016-0.57226 0-0.3531-0.12618-0.54352-0.56445-0.52734zm10.984 14.236c-0.73046 0.02695-2.329 0.62937-5.6602 2.0117-6.0811 2.5235-8.2882 2.5779-16.008 0.39844-8.3641-2.3615-12.304-2.4463-16.674-0.35742-3.2671 1.5618-5.3987 3.2956-4.7852 3.8906 0.03579 0.03471 0.13337 0.05817 0.25586 0.07813 0.68571-0.80654 2.3409-1.9226 4.5293-2.9688 4.3696-2.0889 8.3097-2.004 16.674 0.35742 7.7196 2.1795 9.9267 2.1251 16.008-0.39844 3.3311-1.3824 4.9297-1.9848 5.6602-2.0117 0.19184-0.0071 0.31646 0.0312 0.4043 0.09961 0.09798-0.21659 0.16016-0.41309 0.16016-0.57226 0-0.3531-0.12618-0.54352-0.56445-0.52734zm6.0312 14.91c-0.33725-0.03042-1.317 0.3172-2.3613 0.84961-1.9491 0.99373-2.8276 1.0689-8.6426 0.74023-6.259-0.35372-6.5744-0.31812-9.4961 1.1113-3.0472 1.4909-4.5911 3.127-4.8027 5.0879-0.07401 0.68571-0.09538 1.2983-0.06836 1.8711 0.01357-0.27873 0.0356-0.56756 0.06836-0.87109 0.21165-1.9609 1.7555-3.597 4.8027-5.0879 2.9217-1.4295 3.2371-1.4651 9.4961-1.1113 5.815 0.32863 6.6934 0.2535 8.6426-0.74023 1.0276-0.52391 1.986-0.86576 2.3379-0.84766 0.28056-0.40088 0.35185-0.73994 0.12695-0.96484-0.02027-0.02027-0.05534-0.03276-0.10352-0.03711zm-28.346 0.24414c-0.73046 0.02695-2.329 0.62937-5.6602 2.0117-6.0811 2.5235-8.2882 2.5779-16.008 0.39844-8.3641-2.3615-12.304-2.4463-16.674-0.35742-3.2671 1.5618-5.4006 3.2956-4.7871 3.8906 0.03579 0.03471 0.13328 0.05817 0.25586 0.07813 0.68629-0.80654 2.3428-1.9226 4.5312-2.9688 4.3696-2.0889 8.3097-2.004 16.674 0.35742 7.7196 2.1795 9.9267 2.1251 16.008-0.39844 3.3311-1.3824 4.9297-1.9848 5.6602-2.0117 0.19161-0.0071 0.31492 0.03138 0.40234 0.09961 0.09791-0.21659 0.16016-0.41309 0.16016-0.57227 0-0.3531-0.12422-0.54352-0.5625-0.52734zm15.918 8.2617c-0.10682 1.9445-0.84372 3.9868-2.2188 5.0684-1.6638 1.3087-1.7754 1.3172-3.2852 0.25976-1.0019-0.70173-1.4812-1.8961-1.5703-3.2207-0.12405 1.7066 0.32063 3.3454 1.5703 4.2207 1.5097 1.0575 1.6214 1.049 3.2852-0.25976 1.6146-1.27 2.3551-3.8634 2.2188-6.0684zm-10.611 7.5566-0.88867 0.83594c-1.173 1.102-1.6433 2.2708-1.5078 3.8086 0.11542-1.0679 0.60225-1.9579 1.5078-2.8086l1.3027-1.2246zm2.459 2.6992c-0.0061 0.14904-0.0078 0.31086-0.0078 0.5 0 1.6558 0.0091 1.6609 3.9336 2.0117 2.1774 0.19461 4.5625 0.76217 5.3398 1.2715 1.6091 1.0543 2.4257 2.8013 2.5488 4.6816 0.1385-2.2459-0.65698-4.442-2.5488-5.6816-0.77731-0.50931-3.1625-1.0769-5.3398-1.2715-3.476-0.31068-3.8787-0.35627-3.9258-1.5117zm-4.5488 4.6562c-0.16296 0.29874-0.54816 0.48435-1.2598 0.73242-2.2142 0.77186-3.5454 3.2922-3.3379 5.6895 0.1802-2.0628 1.4313-4.0248 3.3379-4.6895 1.2522-0.4365 1.472-0.72135 1.2598-1.7324zm11.961 5.5742c-0.16662 1.319-0.93314 2.4654-2.1445 3.0918-2.388 1.2349-6.7445 1.0904-8.4883-0.28125-0.98202-0.77246-1.535-1.4759-1.7051-2.2344-0.22511 1.1761 0.31034 2.1373 1.7051 3.2344 1.7438 1.3717 6.1003 1.5161 8.4883 0.28125 1.5093-0.78049 2.3185-2.368 2.1445-4.0918z" opacity=".3" stroke-width=".46316"/>
 <g id="g873">
  <path id="rect4377" d="m12 86c-3.324 0-6-2.676-6-6v-68c0-3.324 2.676-6 6-6h72c3.324 0 6 2.676 6 6v68c0 3.324-2.676 6-6 6zm0-0.96875h72c2.8049 0 5.0312-2.2264 5.0312-5.0312v-68c0-2.8049-2.226-5.0312-5.031-5.0312h-72c-2.8049 0-5.0312 2.2263-5.0312 5.0312v68c0 2.8049 2.2264 5.0312 5.0312 5.0312z" fill="url(#linearGradient4390)" opacity=".3"/>
  <path id="rect4414" d="m6 78v2c0 3.324 2.676 6 6 6h72c3.324 0 6-2.676 6-6v-2c0 3.324-2.676 6-6 6h-72c-3.324 0-6-2.676-6-6z" fill="url(#linearGradient4429)" opacity=".1"/>
  <g id="layer4">
   <path id="path3888" d="m6 80v4c0 3.324 2.676 6 6 6h72c3.324 0 6-2.676 6-6v-4c0 3.324-2.676 6-6 6h-72c-3.324 0-6-2.676-6-6z" fill="url(#linearGradient3228)"/>
   <path id="rect4345" d="m6 82v2c0 3.324 2.676 6 6 6h72c3.324 0 6-2.676 6-6v-2c0 3.324-2.676 6-6 6h-72c-3.324 0-6-2.676-6-6z" color="#000000" opacity=".1"/>
   <path id="rect4336" d="m6 83v1c0 3.324 2.676 6 6 6h72c3.324 0 6-2.676 6-6v-1c0 3.324-2.676 6-6 6h-72c-3.324 0-6-2.676-6-6z" color="#000000" opacity=".15"/>
  </g>
 </g>
</svg>
