<?xml version="1.0" encoding="UTF-8"?>
<svg id="svg2408" width="96" height="96" version="1.0" xmlns="http://www.w3.org/2000/svg" xmlns:cc="http://creativecommons.org/ns#" xmlns:dc="http://purl.org/dc/elements/1.1/" xmlns:rdf="http://www.w3.org/1999/02/22-rdf-syntax-ns#" xmlns:xlink="http://www.w3.org/1999/xlink">
 <defs id="defs2410">
  <linearGradient id="ButtonShadow" x1="45.448" x2="45.448" y1="92.54" y2="7.0165" gradientTransform="scale(1.0059 .99417)" gradientUnits="userSpaceOnUse">
   <stop id="stop3750" offset="0"/>
   <stop id="stop3752" stop-opacity=".58824" offset="1"/>
  </linearGradient>
  <filter id="filter3174" color-interpolation-filters="sRGB">
   <feGaussianBlur id="feGaussianBlur3176" stdDeviation="1.71"/>
  </filter>
  <linearGradient id="linearGradient3188" x1="36.357" x2="36.357" y1="6" y2="63.893" gradientUnits="userSpaceOnUse">
   <stop id="stop3739" stop-color="#fefefe" offset="0"/>
   <stop id="stop3741" stop-color="#fefefe" stop-opacity="0" offset="1"/>
  </linearGradient>
  <linearGradient id="linearGradient3427" x1="48" x2="48" y1="90" y2="5.9877" gradientUnits="userSpaceOnUse">
   <stop id="stop3189" stop-color="#b4b4b4" offset="0"/>
   <stop id="stop3191" stop-color="#e6e6e6" offset="1"/>
  </linearGradient>
  <radialGradient id="radialGradient3205" cx="47.098" cy="78.287" r="38.957" gradientTransform="matrix(1.383 -1.035e-8 0 1.3124 -18.039 -24.219)" gradientUnits="userSpaceOnUse">
   <stop id="stop2200" stop-color="#509363" offset="0"/>
   <stop id="stop2202" stop-color="#162817" offset="1"/>
  </radialGradient>
  <linearGradient id="linearGradient3279" x1="43.179" x2="43.179" y1="13" y2="83.295" gradientTransform="matrix(1.0294 0 0 1.0294 -1.4118 -1.4118)" gradientUnits="userSpaceOnUse">
   <stop id="stop3467" stop-color="#919191" offset="0"/>
   <stop id="stop3469" stop-color="#fdfdfd" offset="1"/>
  </linearGradient>
  <radialGradient id="radialGradient2874" cx="48" cy="90.172" r="42" gradientTransform="matrix(1.1573 0 0 .99591 -7.551 .19713)" gradientUnits="userSpaceOnUse">
   <stop id="stop3739-2" stop-color="#fefefe" offset="0"/>
   <stop id="stop3741-7" stop-color="#fefefe" stop-opacity="0" offset="1"/>
  </radialGradient>
  <clipPath id="clipPath3613">
   <rect id="rect3615" x="6" y="6" width="84" height="84" rx="6" ry="6" fill="#fefefe"/>
  </clipPath>
  <filter id="filter3794" x="-.192" y="-.192" width="1.384" height="1.384" color-interpolation-filters="sRGB">
   <feGaussianBlur id="feGaussianBlur3796" stdDeviation="5.28"/>
  </filter>
  <linearGradient id="linearGradient2908" x1="48" x2="48" y1="20.221" y2="138.66" gradientUnits="userSpaceOnUse">
   <stop id="stop3739-8" stop-color="#fefefe" offset="0"/>
   <stop id="stop3741-71" stop-color="#fefefe" stop-opacity="0" offset="1"/>
  </linearGradient>
  <linearGradient id="ButtonShadow-0" x1="45.448" x2="45.448" y1="92.54" y2="7.0165" gradientTransform="matrix(1.0059 0 0 .99417 100 0)" gradientUnits="userSpaceOnUse">
   <stop id="stop3750-8" offset="0"/>
   <stop id="stop3752-5" stop-opacity=".58824" offset="1"/>
  </linearGradient>
  <linearGradient id="linearGradient3780" x1="32.251" x2="32.251" y1="6.1317" y2="90.239" gradientTransform="matrix(1.0238 0 0 1.0119 -1.1429 -98.071)" gradientUnits="userSpaceOnUse" xlink:href="#ButtonShadow-0"/>
  <linearGradient id="linearGradient3721" x1="32.251" x2="32.251" y1="6.1317" y2="90.239" gradientTransform="translate(0,-97)" gradientUnits="userSpaceOnUse" xlink:href="#ButtonShadow-0"/>
  <radialGradient id="radialGradient5667" cx="15.987" cy="1.535" r="17.171" gradientTransform="matrix(0 2.3782 1.8587 0 33.41 -10.896)" gradientUnits="userSpaceOnUse">
   <stop id="stop8652" stop-color="#fefefe" offset="0"/>
   <stop id="stop8654" stop-color="#fefefe" stop-opacity="0" offset="1"/>
  </radialGradient>
  <linearGradient id="linearGradient5669" x1="240.23" x2="231.78" y1="425.8" y2="438.08" gradientTransform="matrix(2.5383 0 0 2.5996 -541.53 -1088.9)" gradientUnits="userSpaceOnUse">
   <stop id="stop5027" stop-color="#fefefe" stop-opacity=".7554" offset="0"/>
   <stop id="stop5029" stop-color="#fefefe" stop-opacity="0" offset="1"/>
  </linearGradient>
  <linearGradient id="linearGradient5703" x1="11.492" x2="17.199" y1="1.6538" y2="26.729" gradientTransform="matrix(2.6134 0 0 1.8944 -5.2626 5.6785)" gradientUnits="userSpaceOnUse">
   <stop id="stop2669-7" stop-color="#fefefe" offset="0"/>
   <stop id="stop2671-7" stop-color="#fcfcff" stop-opacity="0" offset="1"/>
  </linearGradient>
  <clipPath id="clipPath5755">
   <path id="path5757" d="m37.844 11c-3.2424 0-5.8438 2.7675-5.8438 6.1875v45.625c0 3.42 2.6013 6.1875 5.8438 6.1875h47.312c3.2424 0 5.8438-2.7675 5.8438-6.1875v-45.625c0-3.42-2.6013-6.1875-5.8438-6.1875h-47.312zm12.594 13.312h19.094v14.094h8.1562l-17.531 20.281-17.844-20.281h8.125v-14.094z" color="#000000" fill="#f0f"/>
  </clipPath>
 </defs>
 <metadata id="metadata2413">
  <rdf:RDF>
   <cc:Work rdf:about="">
    <dc:format>image/svg+xml</dc:format>
    <dc:type rdf:resource="http://purl.org/dc/dcmitype/StillImage"/>
    <dc:title/>
   </cc:Work>
  </rdf:RDF>
 </metadata>
 <g id="layer2" display="none">
  <rect id="rect3745" x="5" y="7" width="86" height="85" rx="6" ry="6" fill="url(#ButtonShadow)" filter="url(#filter3174)" opacity=".9"/>
 </g>
 <g id="layer4">
  <path id="path3786" transform="scale(1,-1)" d="m12-95.031c-5.5111 0-10.031 4.5202-10.031 10.031v71c0 5.5111 4.5202 10.031 10.031 10.031h72c5.5111 0 10.031-4.5202 10.031-10.031v-71c0-5.5111-4.5202-10.031-10.031-10.031h-72z" fill="url(#linearGradient3780)" opacity=".08"/>
  <path id="path3778" transform="scale(1,-1)" d="m12-94.031c-4.9716 0-9.0312 4.0596-9.0312 9.0312v71c0 4.9716 4.0596 9.0312 9.0312 9.0312h72c4.9716 0 9.0312-4.0596 9.0312-9.0312v-71c0-4.9716-4.0596-9.0312-9.0312-9.0312h-72z" fill="url(#linearGradient3780)" opacity=".1"/>
  <path id="path3770" transform="scale(1,-1)" d="m12-93c-4.4091 0-8 3.5909-8 8v71c0 4.4091 3.5909 8 8 8h72c4.4091 0 8-3.5909 8-8v-71c0-4.4091-3.5909-8-8-8h-72z" fill="url(#linearGradient3780)" opacity=".2"/>
  <rect id="rect3723" transform="scale(1,-1)" x="5" y="-92" width="86" height="85" rx="7" ry="7" fill="url(#linearGradient3780)" opacity=".3"/>
  <rect id="rect3716" transform="scale(1,-1)" x="6" y="-91" width="84" height="84" rx="6" ry="6" fill="url(#linearGradient3721)" opacity=".45"/>
 </g>
 <g id="layer3">
  <rect id="rect3461" x="8.1409" y="8.2544" width="77.915" height="78.516" rx="5.8528" ry="6.1733" fill="url(#radialGradient3205)"/>
  <path id="path2443" d="m13.146 10.607c-1.1063 0-3.3273 0.40201-3.3273 2.169l0.24959 40.918c37.361-2.0368 29.862-17.454 75.75-25.178l-0.13266-15.179c-0.16532-2.3786-1.1402-2.6044-3.404-2.5904l-69.136-0.13951z" fill="url(#linearGradient5703)" fill-rule="evenodd" opacity=".3"/>
  <path id="path3213" d="m24 54v4.0022l8.0116 3.0931-8.0116 3.0325v3.8722l11.947-4.9165 0.053274-3.8421-12-5.2414z" fill="#fefefe"/>
  <path id="path3557" d="m36 68v4h12v-4h-12z" fill="#fefefe"/>
  <path id="rect3222-3" d="m19 13c-3.2894 0-6 2.7106-6 6v58c0 3.2894 2.7106 6 6 6h58c3.2894 0 6-2.7106 6-6v-58c0-3.2894-2.7106-6-6-6h-58zm0 4h58c1.1426 0 2 0.85741 2 2v58c0 1.1426-0.85741 2-2 2h-58c-1.1426 0-2-0.85741-2-2v-58c0-1.1426 0.85741-2 2-2z" color="#000000" opacity=".15" style="block-progression:tb;text-indent:0;text-transform:none"/>
  <g id="g5740" transform="translate(-2)" clip-path="url(#clipPath5755)" fill="#fd5" fill-rule="evenodd">
   <path id="path5738" d="m50.062 22.125a1.3984 1.3984 0 0 0-0.03125 0.03125c-1.0543 0.12697-1.9174 0.81524-2.3438 1.5938-0.38874 0.70976-0.45162 1.4894-0.375 2.25h-0.0625v10.219c-1.7927-0.0074-3.6047-0.06137-5.5 0.0625a1.3984 1.3984 0 0 0-0.21875 0.03125c-2.4558 0.54664-3.1185 3.7309-1.3438 5.375l-0.0625 0.03125c5.931 6.7312 11.829 13.492 17.781 20.219a1.3984 1.3984 0 0 0 0.09375 0.0625c1.4808 1.41 3.7299 0.90505 4.7812-0.65625l0.03125 0.03125c5.7873-6.7103 11.646-13.382 17.406-20.125a1.3984 1.3984 0 0 0 0.0625-0.0625c1.5661-2.1234-0.27819-5.0975-2.8125-4.9062v-0.0625h-4.75c-0.0046-3.7399 0.03483-7.512-0.03125-11.281a1.3984 1.3984 0 0 0-0.03125-0.21875c-0.1676-0.96471-0.80188-1.7374-1.5312-2.1562-0.6625-0.38044-1.4082-0.45051-2.1562-0.375v-0.0625h-18.781a1.3984 1.3984 0 0 0-0.125 0z" color="#000000" opacity=".05"/>
   <path id="path5732" d="m50.188 23.531c-1.1831 0.14248-1.6951 1.4-1.5312 2.4643v11.629c-2.2681 0.04271-4.5572-0.08489-6.8125 0.0625-1.3751 0.3061-1.7583 2.2371-0.66899 3.1006 5.9341 6.7347 11.846 13.49 17.794 20.212 0.8348 0.79489 2.243 0.45608 2.7844-0.51604 5.7928-6.7166 11.652-13.407 17.403-20.14 0.86039-1.1666-0.27881-2.9188-1.686-2.7188h-6.1577c-0.02147-4.217 0.04253-8.4478-0.03125-12.656-0.18464-1.0627-1.3231-1.6001-2.3244-1.4375h-18.769z" color="#000000" opacity=".08"/>
   <path id="path5728" d="m50.438 24.469a0.82888 0.82888 0 0 0-0.84375 0.84375v13.25h-7.2812a0.82888 0.82888 0 0 0-0.625 1.4062l17.844 20.281a0.82888 0.82888 0 0 0 1.25-0.03125l17.531-20.281a0.82888 0.82888 0 0 0-0.625-1.375h-7.3125v-13.25a0.82888 0.82888 0 0 0-0.84375-0.84375h-19.094z" color="#000000" opacity=".15"/>
   <path id="path5722" d="m69.532 25.308-19.094-0.0051v14.097l-8.1345 0.01821 17.845 20.279 17.549-20.284-8.162-0.0051-0.0025-14.099z" color="#000000" opacity=".3"/>
  </g>
  <path id="rect3981" d="m17 14c-1.662 0-3 1.338-3 3v62c0 1.662 1.338 3 3 3h62c1.662 0 3-1.338 3-3v-62c0-1.662-1.338-3-3-3h-62zm0 1.9375h62c0.61816 0 1.0625 0.44434 1.0625 1.0625v62c0 0.61816-0.44434 1.0625-1.0625 1.0625h-62c-0.61816 0-1.0625-0.44434-1.0625-1.0625v-62c0-0.61816 0.44434-1.0625 1.0625-1.0625z" color="#000000" opacity=".3"/>
  <path id="rect3977" d="m17 14c-1.662 0-3 1.338-3 3v62c0 1.662 1.338 3 3 3h62c1.662 0 3-1.338 3-3v-62c0-1.662-1.338-3-3-3h-62zm0 0.96875h62c1.1401 0 2.0312 0.89117 2.0312 2.0312v62c0 1.1401-0.89117 2.0312-2.0312 2.0312h-62c-1.1401 0-2.0312-0.89117-2.0312-2.0312v-62c0-1.1401 0.89117-2.0312 2.0312-2.0312z" color="#000000" opacity=".6"/>
  <path id="path8658" d="m67.532 24.308-19.094-0.0051v14.097l-8.1345 0.01821 17.845 20.279 17.549-20.284-8.162-0.0051-0.0025-14.099z" color="#000000" fill="url(#linearGradient5669)" fill-rule="evenodd" stroke="#fea" stroke-miterlimit="10" stroke-width=".60592"/>
  <path id="path8645" d="m48.454 24.291v14.115h-8.1373l7.8567 8.9084c5.6189-11.335 16.858-2.8613 17.958-23.024z" color="#000000" fill="url(#radialGradient5667)" fill-rule="evenodd" opacity=".50802"/>
 </g>
 <g id="layer1">
  <path id="rect2419" d="m12 6c-3.324 0-6 2.676-6 6v72c0 3.324 2.676 6 6 6h72c3.324 0 6-2.676 6-6v-72c0-3.324-2.676-6-6-6h-72zm5 7h62c2.216 0 4 1.784 4 4v62c1e-6 2.216-1.784 4-4 4h-62c-2.216 1e-6 -4-1.784-4-4v-62c0-2.216 1.784-4 4-4z" fill="url(#linearGradient3427)"/>
  <path id="rect3728" d="m12 6c-3.324 0-6 2.676-6 6v2 68 2c0 0.33472 0.04135 0.6507 0.09375 0.96875 0.0487 0.2956 0.09704 0.59692 0.1875 0.875 0.00988 0.03038 0.020892 0.0636 0.03125 0.09375 0.098865 0.28777 0.23488 0.54745 0.375 0.8125 0.14459 0.27351 0.31562 0.53562 0.5 0.78125s0.37378 0.47347 0.59375 0.6875c0.43995 0.42806 0.94291 0.81453 1.5 1.0938 0.27854 0.13961 0.57347 0.24695 0.875 0.34375-0.2562-0.10022-0.48671-0.23627-0.71875-0.375-0.00741-0.0044-0.023866 0.0045-0.03125 0-0.031933-0.0193-0.062293-0.04251-0.09375-0.0625-0.1204-0.0767-0.23102-0.16351-0.34375-0.25-0.10617-0.0808-0.21328-0.16111-0.3125-0.25-0.17793-0.16143-0.34746-0.34539-0.5-0.53125-0.10758-0.13026-0.21839-0.26528-0.3125-0.40625-0.025089-0.03838-0.038446-0.08587-0.0625-0.125-0.064763-0.10303-0.13023-0.20452-0.1875-0.3125-0.10101-0.19471-0.20567-0.4157-0.28125-0.625-0.00796-0.02181-0.023589-0.04055-0.03125-0.0625-0.031825-0.09195-0.035804-0.18683-0.0625-0.28125-0.030332-0.10662-0.070389-0.20303-0.09375-0.3125-0.072879-0.34151-0.125-0.6982-0.125-1.0625v-2-68-2c0-2.7818 2.2182-5 5-5h2 68 2c2.7818 0 5 2.2182 5 5v2 68 2c0 0.3643-0.05212 0.72099-0.125 1.0625-0.04415 0.20689-0.08838 0.39766-0.15625 0.59375-0.0077 0.02195-0.0233 0.04069-0.03125 0.0625-0.06274 0.17374-0.13838 0.36745-0.21875 0.53125-0.04158 0.0828-0.07904 0.16995-0.125 0.25-0.0546 0.09721-0.12677 0.18835-0.1875 0.28125-0.09411 0.14096-0.20492 0.276-0.3125 0.40625-0.14317 0.17445-0.30314 0.347-0.46875 0.5-0.01117 0.0102-0.01998 0.02115-0.03125 0.03125-0.13839 0.12556-0.28509 0.23444-0.4375 0.34375-0.10257 0.07315-0.20432 0.15336-0.3125 0.21875-0.0074 0.0045-0.02384-0.0044-0.03125 0-0.23204 0.13873-0.46255 0.27478-0.71875 0.375 0.30153-0.0968 0.59646-0.20414 0.875-0.34375 0.55709-0.27922 1.0601-0.66569 1.5-1.0938 0.21997-0.21403 0.40937-0.44186 0.59375-0.6875s0.35541-0.50774 0.5-0.78125c0.14012-0.26505 0.27614-0.52473 0.375-0.8125 0.01041-0.03078 0.02133-0.06274 0.03125-0.09375 0.09046-0.27808 0.1388-0.5794 0.1875-0.875 0.0524-0.31805 0.09375-0.63403 0.09375-0.96875v-2-68-2c0-3.324-2.676-6-6-6h-72z" fill="url(#linearGradient3188)" opacity=".5"/>
  <path id="rect3425" d="m17 12c-2.7527 0-5 2.2473-5 5v62c0 2.7527 2.2473 5 5 5h62c2.7527 0 5-2.2473 5-5v-62c0-2.7527-2.2473-5-5-5h-62zm0 2h62c1.6793 0 3 1.3207 3 3v62c1e-6 1.6793-1.3207 3-3 3h-62c-1.6793 0-3-1.3207-3-3v-62c0-1.6793 1.3207-3 3-3z" fill="url(#linearGradient3279)"/>
  <path id="path3615" d="m12 90c-3.324 0-6-2.676-6-6v-2-68-2c0-0.33472 0.04135-0.6507 0.09375-0.96875 0.0487-0.2956 0.09704-0.59692 0.1875-0.875 0.00988-0.03038 0.020892-0.0636 0.03125-0.09375 0.098865-0.28777 0.23488-0.54745 0.375-0.8125 0.14459-0.27351 0.31562-0.53562 0.5-0.78125s0.37378-0.47347 0.59375-0.6875c0.43995-0.42806 0.94291-0.81453 1.5-1.0938 0.27854-0.13961 0.57347-0.24695 0.875-0.34375-0.2562 0.10022-0.48671 0.23627-0.71875 0.375-0.00741 0.0044-0.023866-0.0045-0.03125 0-0.031933 0.0193-0.062293 0.04251-0.09375 0.0625-0.1204 0.0767-0.23102 0.16351-0.34375 0.25-0.10617 0.0808-0.21328 0.16111-0.3125 0.25-0.17793 0.16143-0.34746 0.34539-0.5 0.53125-0.10758 0.13026-0.21839 0.26528-0.3125 0.40625-0.025089 0.03838-0.038446 0.08587-0.0625 0.125-0.064763 0.10303-0.13023 0.20452-0.1875 0.3125-0.10101 0.19471-0.20567 0.4157-0.28125 0.625-0.00796 0.02181-0.023589 0.04055-0.03125 0.0625-0.031825 0.09195-0.035804 0.18683-0.0625 0.28125-0.030332 0.10662-0.070389 0.20303-0.09375 0.3125-0.072879 0.34151-0.125 0.6982-0.125 1.0625v2 68 2c0 2.7818 2.2182 5 5 5h2 68 2c2.7818 0 5-2.2182 5-5v-2-68-2c0-0.3643-0.05212-0.72099-0.125-1.0625-0.04415-0.20689-0.08838-0.39766-0.15625-0.59375-0.0077-0.02195-0.0233-0.04069-0.03125-0.0625-0.06274-0.17374-0.13838-0.36745-0.21875-0.53125-0.04158-0.0828-0.07904-0.16995-0.125-0.25-0.0546-0.09721-0.12677-0.18835-0.1875-0.28125-0.09411-0.14096-0.20492-0.276-0.3125-0.40625-0.14317-0.17445-0.30314-0.347-0.46875-0.5-0.01117-0.0102-0.01998-0.02115-0.03125-0.03125-0.13839-0.12556-0.28509-0.23444-0.4375-0.34375-0.10257-0.07315-0.20432-0.15336-0.3125-0.21875-0.0074-0.0045-0.02384 0.0044-0.03125 0-0.23204-0.13873-0.46255-0.27478-0.71875-0.375 0.30153 0.0968 0.59646 0.20414 0.875 0.34375 0.55709 0.27922 1.0601 0.66569 1.5 1.0938 0.21997 0.21403 0.40937 0.44186 0.59375 0.6875s0.35541 0.50774 0.5 0.78125c0.14012 0.26505 0.27614 0.52473 0.375 0.8125 0.01041 0.03078 0.02133 0.06274 0.03125 0.09375 0.09046 0.27808 0.1388 0.5794 0.1875 0.875 0.0524 0.31805 0.09375 0.63403 0.09375 0.96875v2 68 2c0 3.324-2.676 6-6 6h-72z" fill="url(#radialGradient2874)" opacity=".4"/>
  <rect id="rect3171" x="15" y="15" width="66" height="66" rx="12" ry="12" clip-path="url(#clipPath3613)" fill="url(#linearGradient2908)" filter="url(#filter3794)" opacity=".1" stroke="#fefefe" stroke-linecap="round" stroke-width=".5"/>
 </g>
</svg>
