<?xml version="1.0" encoding="UTF-8"?>
<!-- Created with Inkscape (http://www.inkscape.org/) -->
<svg id="svg2408" width="96" height="96" version="1.0" xmlns="http://www.w3.org/2000/svg" xmlns:cc="http://creativecommons.org/ns#" xmlns:dc="http://purl.org/dc/elements/1.1/" xmlns:rdf="http://www.w3.org/1999/02/22-rdf-syntax-ns#" xmlns:xlink="http://www.w3.org/1999/xlink">
 <defs id="defs2410">
  <linearGradient id="ButtonShadow" x1="45.448" x2="45.448" y1="92.54" y2="7.0165" gradientTransform="scale(1.0059 .99417)" gradientUnits="userSpaceOnUse">
   <stop id="stop3750" offset="0"/>
   <stop id="stop3752" stop-opacity=".58824" offset="1"/>
  </linearGradient>
  <linearGradient id="linearGradient3737">
   <stop id="stop3739" stop-color="#fff" offset="0"/>
   <stop id="stop3741" stop-color="#fff" stop-opacity="0" offset="1"/>
  </linearGradient>
  <filter id="filter3174" color-interpolation-filters="sRGB">
   <feGaussianBlur id="feGaussianBlur3176" stdDeviation="1.71"/>
  </filter>
  <filter id="filter3794" x="-.192" y="-.192" width="1.384" height="1.384" color-interpolation-filters="sRGB">
   <feGaussianBlur id="feGaussianBlur3796" stdDeviation="5.28"/>
  </filter>
  <linearGradient id="linearGradient3613" x1="48" x2="48" y1="20.221" y2="138.66" gradientUnits="userSpaceOnUse">
   <stop id="stop4076" stop-color="#fdb300" offset="0"/>
   <stop id="stop4078" stop-color="#fdb300" stop-opacity="0" offset="1"/>
  </linearGradient>
  <clipPath id="clipPath3613">
   <rect id="rect3615" x="6" y="6" width="84" height="84" rx="6" ry="6" fill="#fff"/>
  </clipPath>
  <linearGradient id="linearGradient3617" x1="48" x2="48" y1="90" y2="5.9877" gradientUnits="userSpaceOnUse">
   <stop id="stop3702" stop-color="#323232" offset="0"/>
   <stop id="stop3704" stop-color="#505050" offset="1"/>
  </linearGradient>
  <linearGradient id="ButtonShadow-0" x1="45.448" x2="45.448" y1="92.54" y2="7.0165" gradientTransform="matrix(1.0059 0 0 .99417 100 0)" gradientUnits="userSpaceOnUse">
   <stop id="stop3750-8" offset="0"/>
   <stop id="stop3752-5" stop-opacity=".58824" offset="1"/>
  </linearGradient>
  <linearGradient id="linearGradient3780" x1="32.251" x2="32.251" y1="6.1317" y2="90.239" gradientTransform="matrix(1.0238 0 0 1.0119 -1.1429 -98.071)" gradientUnits="userSpaceOnUse" xlink:href="#ButtonShadow-0"/>
  <linearGradient id="linearGradient3721" x1="32.251" x2="32.251" y1="6.1317" y2="90.239" gradientTransform="translate(0,-97)" gradientUnits="userSpaceOnUse" xlink:href="#ButtonShadow-0"/>
  <radialGradient id="radialGradient3967-9" cx="49.438" cy="29.859" r="118.69" gradientTransform="matrix(.27804 0 0 .27193 31.604 39.543)" gradientUnits="userSpaceOnUse">
   <stop id="stop3963-6" stop-color="#ffed00" offset="0"/>
   <stop id="stop3965-1" stop-color="#ff9300" offset="1"/>
  </radialGradient>
  <linearGradient id="linearGradient4390" x1="48" x2="48" y1="88" y2="-40" gradientTransform="matrix(1,0,0,-1,0,92)" gradientUnits="userSpaceOnUse" xlink:href="#linearGradient3737"/>
  <linearGradient id="linearGradient4429" x1="48" x2="112.12" y1="82" y2="82.455" gradientUnits="userSpaceOnUse" spreadMethod="reflect" xlink:href="#linearGradient3737"/>
  <linearGradient id="linearGradient3228" x1="90" x2="48" y1="88" y2="88" gradientUnits="userSpaceOnUse" spreadMethod="reflect">
   <stop id="stop3894" stop-opacity=".58824" offset="0"/>
   <stop id="stop3896" stop-opacity=".47059" offset=".1178"/>
   <stop id="stop3898" stop-opacity=".39216" offset=".2381"/>
   <stop id="stop3900" stop-opacity=".31373" offset="1"/>
  </linearGradient>
 </defs>
 <metadata id="metadata2413">
  <rdf:RDF>
   <cc:Work rdf:about="">
    <dc:format>image/svg+xml</dc:format>
    <dc:type rdf:resource="http://purl.org/dc/dcmitype/StillImage"/>
    <dc:title/>
   </cc:Work>
  </rdf:RDF>
 </metadata>
 <g id="layer2" display="none">
  <rect id="rect3745" x="5" y="7" width="86" height="85" rx="6" ry="6" fill="url(#ButtonShadow)" filter="url(#filter3174)" opacity=".9"/>
 </g>
 <g id="layer3">
  <path id="path3786" transform="scale(1,-1)" d="m12-95.031c-5.5111 0-10.031 4.5202-10.031 10.031v71c0 5.5111 4.5202 10.031 10.031 10.031h72c5.5111 0 10.031-4.5202 10.031-10.031v-71c0-5.5111-4.5202-10.031-10.031-10.031h-72z" fill="url(#linearGradient3780)" opacity=".08"/>
  <path id="path3778" transform="scale(1,-1)" d="m12-94.031c-4.9716 0-9.0312 4.0596-9.0312 9.0312v71c0 4.9716 4.0596 9.0312 9.0312 9.0312h72c4.9716 0 9.0312-4.0596 9.0312-9.0312v-71c0-4.9716-4.0596-9.0312-9.0312-9.0312h-72z" fill="url(#linearGradient3780)" opacity=".1"/>
  <path id="path3770" transform="scale(1,-1)" d="m12-93c-4.4091 0-8 3.5909-8 8v71c0 4.4091 3.5909 8 8 8h72c4.4091 0 8-3.5909 8-8v-71c0-4.4091-3.5909-8-8-8h-72z" fill="url(#linearGradient3780)" opacity=".2"/>
  <rect id="rect3723" transform="scale(1,-1)" x="5" y="-92" width="86" height="85" rx="7" ry="7" fill="url(#linearGradient3780)" opacity=".3"/>
  <rect id="rect3716" transform="scale(1,-1)" x="6" y="-91" width="84" height="84" rx="6" ry="6" fill="url(#linearGradient3721)" opacity=".45"/>
 </g>
 <rect id="rect2419" x="6" y="6" width="84" height="84" rx="6" ry="6" fill="url(#linearGradient3617)"/>
 <g id="layer5">
  <rect id="rect3171" x="15" y="15" width="66" height="66" rx="12" ry="12" clip-path="url(#clipPath3613)" fill="url(#linearGradient3613)" filter="url(#filter3794)" opacity=".1" stroke="#fff" stroke-linecap="round" stroke-width=".5"/>
 </g>
 <g id="layer4" transform="translate(0 -1.9995)">
  <g id="g3835" transform="matrix(.18107 0 0 .18107 -33.483 -7.2752)" fill="#fff" opacity=".2">
   <g id="g3837" fill="#fff">
    <path id="path3839" d="m569.39 394.11c-10.774 2.8852-22.271 3.813-32.735 7.3813 17.723-15.196 16.711-38.708 28.535-56.606 3.7666-5.0674 6.8799-10.379 11.27-15.188-7.1924 14.428-4.0732 33.146-12.336 47.147-3.1807 5.5615-7.7295 10.957-12.76 15.325 1.6436-0.0615 3.082-1.4844 4.5274-2.4346 13.421-13.393 30.954-17.138 45.472-28.019 5.8154-4.6338 11.142-10.706 13.698-17.273-2.7471 22.22-24.853 43.046-45.672 49.666z"/>
    <path id="path3841" d="m617.74 304.15c-6.5664 9.3438-14.51 18.042-20.576 27.538 0.67676-7.5186 1.5674-16.764-1.3613-23.886-5.0752-15.337-9.5342-30.909-10.973-47.741l0.19824-6.4365c3.8193 17.189 20.705 29.006 19.64 48.287 0.38671 4.6728-1.0586 8.6455-1.9336 12.755l0.29004 0.30371 0.76074-0.85254c2.5039-9.458 3.7676-19.403 7.6611-28.228 5.5332-12.698 12.442-25.514 9.627-40.846 8.416 18.076 5.8662 42.228-3.333 59.105z"/>
    <path id="path3843" d="m607.37 206.76c11.072 15.005 13.499 38.918 5.4346 56.13-3.0059 7.2939-5.1289 15.066-6.3096 23.14-0.56347-1.3926-0.69238-3.2646-1.1953-4.8164-4.4043-16.848-20.338-28.854-26.891-44.739-2.0781-5.1943-3.8496-10.562-4.832-16.2 7.002 12.95 24.258 19.639 28.961 33.911 1.9268 3.6094 1.8184 8.1191 3.0137 12 0.25098 0 0.50196-0.18653 0.50196-0.44141-2.0703-14.701-1.4385-30.087 0.55664-44.606-0.11524-7.8642-0.88281-15.493-5.252-21.58 2.8018 1.6323 4.0635 4.7676 6.0117 7.2026z"/>
    <path id="path3845" d="m599.56 203.88c2.9082 13.149-1.3398 25.955 1.332 39.23l-0.0996 0.11426c-7.1533-14.066-22.34-20.705-32.789-31.963-6.0557-6.6807-8.6885-14.823-10.203-23.444 5.9873 14.435 22.144 17.615 31.419 29.779 3.1035 2.8042 4.1162 6.689 6.1172 9.8691l0.32715-0.31592c-5.334-11.387-7.1211-24.201-10.843-36.345-1.8633-5.2622-5.5615-10.433-10.523-13.75 12.176 2.4883 22.729 15.2 25.263 26.827z"/>
    <path id="path3847" d="m567.01 173.72c9.1699 8.207 13.317 18.834 15.995 29.844l1.5146 3.4966c-13.31-9.5723-25.4-22.44-33.899-36.03l-10.38-10.501c9.125 3.8691 18.963 6.1787 26.77 13.19z"/>
    <path id="path3849" d="m356.81 162.27c-9.2002 8.0654-15.581 18.266-22.406 27.777-6.1182 7.5752-13.944 12.57-20.88 19.084 3.7441-7.7617 3.8809-17.033 9.1914-24.163 7.5566-13.184 21.569-17.822 34.095-22.699z"/>
    <path id="path3851" d="m306.49 190.36c4.4746-5.5625 10.147-9.4282 16.531-11.061-12.396 8.5151-11.589 23.775-15.519 36.46-1.2529 4.6909-3.4287 9.0127-4.5127 13.821l0.31543 0.25098c2.0625-5.436 5.6875-10.572 10.212-15.008 8.8037-8.127 21.827-13.192 26.142-25.214-0.19726 16.706-14.134 29.84-27.469 39.229-5.499 4.8242-10.802 10.322-13.83 16.524-0.29687-4.2148 0.62305-8.4468 0.32325-12.962-1.4502-14.584-2.5039-31.229 7.8066-42.042z"/>
    <path id="path3853" d="m281.41 240.23c-0.37305-14.778 5.7607-26.842 14.404-37.853 0.25097-0.12549 0.42968-0.37646 0.75293-0.31592-9.5146 14.458-1.6436 32.67-2.0772 49.11l-1.2549 16.832c0.18653 0.12207 0.18653 0.62793 0.62793 0.43359 0.5625-1.876 0.68457-3.8809 1.0606-5.8106 2.2412-13.577 14.032-23.211 24.331-32.594 2.1992-2.4541 4.1436-4.9458 5.2734-7.8257-0.84082 6.7602-2.96 13.579-5.7646 19.831-8.0156 15.632-22.823 28.458-25.528 46.354-1.3125-17.15-12.989-29.973-11.825-48.162z"/>
    <path id="path3855" d="m274.21 261.24c1.0654-4.6221 1.8799-9.4053 3.8916-13.646-3.8115 19.537 9.3291 33.614 13.64 50.549 1.8037 6.334 2.2451 13.137 4.8242 19.08 0.24023 0.12988 0.44921-0.1211 0.59765-0.31153-6.418-17.989 2.8467-34.706 12.156-48.791 2.2637-3.8164 3.5684-8.0664 4.6943-12.453 0.98926 8.1416-1.0693 17.518-2.252 25.971-2.2637 10.756-5.6426 20.956-8.584 31.393-1.9356 6.5215-1.4268 13.879-0.43262 20.712l-0.93261-0.74512c-6.8252-12.586-20.34-22.402-24.354-36.152-3.3027-10.962-5.498-23.66-3.249-35.604z"/>
    <path id="path3857" d="m273.6 299.4c1.5029 20.708 23.771 31.65 34.094 48.794 2.4424 3.5078 4.5615 7.3887 7.8252 10.325-0.50976-2.2061-2.5684-4.0625-3.3242-6.3223-3.6113-7.1904-4.9277-15.759-4.0596-24.449 1-10.577 5.4365-20.393 3.7432-31.518 9.0703 19.557 6.3154 43.967 11.387 65.158 1.3281 4.6348 4.0107 8.7734 5.7686 13.203-18.636-12.692-44.047-24.769-52.314-48.03-3.4844-8.0205-3.873-17.95-3.1191-27.161z"/>
    <path id="path3859" d="m284.73 346.96c10.391 23.506 36.414 25.453 53.862 39.767 3.2109 2.8457 6.5752 5.2656 10.2 6.9541l0.18653-0.18945c-4.0059-3.6221-8.6396-7.7471-11.444-12.441-10.212-14.199-6.6201-34.09-14.271-49.361 6.9521 8.3164 13.274 16.961 17.472 26.396 6.2432 15.401 8.6289 32.797 23.075 44.439-15.634-5.1524-33.949-3.7129-47.748-13.339-15.066-9.2598-28.513-24.966-31.332-42.224z"/>
    <path id="path3861" d="m311.43 390.81c16.66 18.948 43.883 12.625 66.075 17.584 3.1348 0.42774 6.0039 1.6836 9.3262 1.1738-2.6455-1.6738-6.3164-1.4922-9.2041-3.0137-17.396-6.1113-19.947-24.944-29.391-37.643 12.064 8.0117 22.207 18.817 33.337 29.288 8 7.0078 17.63 10.242 27.776 12.305-2.4385 0.89062-5.6348 0.64648-8.252 1.332-18.229 4.4824-38.48 11.809-57.812 5.25-12.567-3.957-25.533-13.895-31.856-26.276z"/>
    <path id="path3863" d="m537.56 434.97c-18.773 7.0059-38.366-0.32031-53.029-11.439-5.9365-3.7734-11.17-9.207-18.849-8.7266-2.7852-0.0527-5.4707 0.084-7.8379 0.76758 14.245 6.6289 27.478 15.768 39.576 27.455-2.0391 2.3281-4.6797 4.5058-7.167 6.5137-11.659-12.562-24.571-24.654-39.028-31.717-2.831 0.36719-5.5244 2.0703-8.0772 3.4414-11.77 7.4414-23.407 17.014-32.157 28.732l-7.5186-6.209c12-12.139 25.273-21.588 39.794-28.338-14.269-4.5195-23.582 7.4336-34.413 13.514-12.621 8.8125-30.772 12.951-46.025 6.8711-8.2031-3.1113-16.15-7.6934-22.09-15.141 12.004 8.2695 29.882 9.1367 43.533 3.7656 18.318-7.9453 37.354-18.018 59.437-13.201 3.4463 0.0605 6.7949 3.4922 10.051 0.57031 16.413-4.2617 34.995-1.332 49.126 6.1699l14.564 5.8379c13.537 5.0059 31.039 3.6211 42.643-4.627-5.9658 7.4258-14.115 12.746-22.531 15.76z"/>
    <path id="path3865" d="m557.67 415.57c-21.078 7.959-42.283-1.8106-62.479-5.0742l-3.8887-0.49414v-0.12305c9.6572-2.1914 19.031-5.0664 26.718-12.006 11.321-10.882 21.396-22.083 33.968-30.659-9.3232 11.954-10.312 28.969-25.713 36.655-3.8115 2.4941-8.6221 2.9355-12.556 4.8242 5.6094 0.1211 10.745-1.8887 16.3-2.4512 20.652-3.2422 44.278 0.084 58.767-17.509-5.3789 12.259-18.85 22.525-31.115 26.837z"/>
    <path id="path3867" d="m595.97 356.27c-8.3242 5.4482-16.762 10.501-24.761 16.695v-0.76074c12.252-20.362 6.2627-48.335 13.812-70.744l2.8154-7.5068c-1.5752 13.96 4.4883 25.785 4.0625 39.793-0.42578 8.4619-3.1875 15.965-7.6309 22.722h0.75293c6.0029-7.8838 10.69-16.269 17.706-23.778 10.89-10.501 21.961-21.269 23.391-35.841 3.6982 24.327-9.9522 45.648-30.147 59.421z"/>
   </g>
  </g>
  <path id="path3981" d="m52.406 12.781a0.96732 0.96732 0 0 0-0.3125 0.09375c-2.8072 1.3317-4.4412 4.1909-5.7188 6.5312a0.96732 0.96732 0 0 0-0.03125 0.03125c-1.8135 3.628-2.2735 7.6638-2.2188 11.562-0.14022 0.07446-0.28561 0.18083-0.4375 0.1875-0.2501 0.01098-0.58603-0.04866-1.0312-0.1875-0.86346-0.26926-2.0963-0.75149-3.5625-0.4375v-0.03125c-1.6663 0.14204-3.9403-0.52403-6.125 0.5625a0.96732 0.96732 0 0 0-0.1875 0.125c-0.70878 0.60197-1.1192 1.3819-1.125 2.125-0.0058 0.74306 0.30136 1.287 0.59375 1.75 0.10827 0.17146 0.17994 0.28547 0.28125 0.4375-1.2857-0.72712-2.7679-0.5239-3.7188-0.375a0.96732 0.96732 0 0 0-0.15625 0.0625c-0.85456 0.30772-1.3837 1.066-1.5625 1.75-0.08634 0.33035-0.02263 0.60128-0.03125 0.90625-0.18621-0.0013-0.34724 0.05143-0.59375-0.03125-0.46675-0.15654-1.0338-0.47451-1.6562-0.78125s-1.3419-0.63324-2.1875-0.625c-0.84556 0.0082-1.74 0.44582-2.4375 1.2812a0.96732 0.96732 0 0 0 0 0.03125c-0.17789 0.22622-0.40977 0.27516-1.0312 0.25-0.62148-0.02516-1.4296-0.19565-2.3438-0.03125v-0.03125c-0.53749 0.08113-1.2211-0.21574-2.1562-0.5625s-2.3011-0.62609-3.5312 0.21875a0.96732 0.96732 0 0 0-0.03125 0.0625c-0.99625 0.7977-1.3331 1.963-1.375 3s0.13676 2.0283 0.21875 2.7812a0.96732 0.96732 0 0 0 0.09375 0.3125c0.36698 0.7783 0.93472 1.3696 1.5938 1.6562s1.3511 0.2708 1.9688 0.1875c1.1847-0.15978 2.2215-0.62662 2.9062-0.8125h3.5312c0.53516 0.6911 1.1474 1.213 1.8438 1.375 0.86423 0.20103 1.6772-0.018 2.375-0.28125 1.0995-0.41477 1.9977-0.82198 2.75-0.96875 0.01927 0.1555 0.01076 0.13568 0.03125 0.375 0.02565 0.29964 0.0718 0.6484 0.25 1.0312 0.16706 0.35892 0.52479 0.71289 0.9375 0.9375v0.03125c0.0069 0.0037 0.02427-0.0036 0.03125 0 0.01193 0.0063 0.0193 0.02514 0.03125 0.03125 1.285 0.65726 2.6946 0.40518 3.7188 0.21875v0.03125c0.02627-0.0035 0.03671-0.0264 0.0625-0.03125 0.42392-0.07968 0.79542-0.3293 1-0.5625 0.02621-0.02987 0.03937-0.0336 0.0625-0.0625-0.02155 0.17768-0.04366 0.32877-0.0625 0.53125-0.02656 0.28535-0.0024 0.62092 0.0625 0.96875h-0.03125c0.06865 2.9131-0.14292 5.9242 0.09375 8.9688a0.96732 0.96732 0 0 0 0.0625 0.28125c0.39932 1.0686 1.4627 1.6166 2.4062 1.625 0.8618 0.0077 1.692-0.33769 2.3125-0.96875 0.02718-0.02764 0.06744-0.03369 0.09375-0.0625 0.03721-0.02636 0.05694-0.06702 0.09375-0.09375 2.268-1.647 3.7111-4.002 4.4688-6.5938 0.04089 0.06975 0.01983 0.18551 0.0625 0.25 0.31635 0.47819 0.71088 0.86288 1 1.1875 0.22942 0.25759 0.31838 0.38503 0.375 0.46875-0.0515 3.7367-2.6857 6.9758-5.625 9.4062a0.96732 0.96732 0 0 0-0.1875 0.21875c-0.37063 0.54184-0.5066 1.1883-0.4375 1.75s0.31378 1.0023 0.5625 1.4062c0.49744 0.80795 1.0935 1.4778 1.2812 1.875a0.96732 0.96732 0 0 0 0.15625 0.25c0.35127 0.39346 0.66274 1.0636 1.0938 1.7812s1.0355 1.5241 2.0625 1.9062a0.96732 0.96732 0 0 0 0.1875 0.0625c1.2788 0.19427 2.3153-0.53413 3-1.25s1.2112-1.4844 1.625-1.875a0.96732 0.96732 0 0 0 0.09375-0.125c2.2239-2.75 3.4818-5.9743 4.1562-9.3438 0.28686 0.54591 0.62908 1.0001 1.0312 1.375 0.02192 4.5643-3.1974 8.5181-6.8438 11.312a0.96732 0.96732 0 0 0-0.25 0.3125c-0.32491 0.56966-0.42802 1.1941-0.34375 1.75 0.08427 0.55591 0.31527 1.0306 0.5625 1.4375 0.49446 0.81379 1.0924 1.4694 1.2812 1.9062a0.96732 0.96732 0 0 0 0.09375 0.21875c0.85061 1.1245 1.46 2.8884 2.9375 4.1875a0.96732 0.96732 0 0 0 0.15625 0.125c0.60513 0.3287 1.2958 0.39409 1.875 0.25s1.044-0.44829 1.4375-0.78125c0.78705-0.66592 1.3812-1.4963 1.7812-1.875a0.96732 0.96732 0 0 0 0.0625-0.03125c4.6953-5.2129 6.4711-12.273 6.25-19.062 0.64294-0.26571 1.1799-0.62439 1.4688-1.1562 0.39405-0.72566 0.28769-1.5045 0.0625-2.125-0.42478-1.1706-1.2166-2.1388-1.5-2.625v-8.3125c5.5577-0.02385 11.167 0.07731 16.75-0.0625a0.96732 0.96732 0 0 0 0.21875-0.03125c1.079-0.29544 1.7387-1.2746 1.8438-2.1875 0.09645-0.83812-0.15077-1.6752-0.6875-2.3438-0.03762-0.06907-0.08603-0.1198-0.125-0.1875-2.2568-3.9201-6.756-5.4747-10.969-5.3125 0.4119-0.54704 0.59636-1.2282 0.5625-1.9375 0.70377-2.5249-0.10296-5.1377-1.75-6.8438-1.6272-1.6854-4.2336-2.3947-6.7812-1.125v-0.03125c-0.03679 0.01415-0.05739 0.0478-0.09375 0.0625-1.6296 0.65908-2.8271 1.8652-3.9688 2.7812-1.1671 0.93653-2.1935 1.5354-3.5 1.4375a0.96732 0.96732 0 0 0-0.375 0.0625c-0.30359 0.10865-0.4969 0.0994-0.5625 0.09375-0.01002-0.02624-0.1463-0.36712-0.09375-0.9375 0.10856-1.1784 0.76659-2.9577 1.125-3.6562a0.96732 0.96732 0 0 0 0-0.0625c0.73568-1.7161 2.4309-2.9356 4.0625-4.375a0.96732 0.96732 0 0 0 0.1875-0.21875c0.33385-0.54757 0.44848-1.1722 0.375-1.7188-0.07348-0.54657-0.29366-1.0077-0.53125-1.4062-0.47518-0.79709-1.0369-1.4635-1.2188-1.875a0.96732 0.96732 0 0 0-0.15625-0.21875c-0.30155-0.34292-0.66356-1.1913-1.1875-2-0.26197-0.40437-0.55772-0.80766-1.0312-1.125s-1.1199-0.50686-1.7812-0.4375zm10.906 19.531c-0.01969-0.0065 0.01061-0.04855 0.0625 0.1875 0.05189 0.23605 0.03998 0.70415-0.1875 1.375a0.96732 0.96732 0 0 0 0 0.65625c0.31673 0.80807 0.88053 1.3367 1.4688 1.75h-2.5625v-2.7812c0.30041-0.50775 0.61417-0.90588 0.84375-1.0625 0.26343-0.17972 0.39469-0.11846 0.375-0.125zm-19.781 3.625c0.12056 0.13551 0.18078 0.20748 0.28125 0.34375a0.96732 0.96732 0 0 0-0.28125 0.0625c-0.29046 0.11767-0.3727 0.09467-0.375 0.09375-0.01439-0.04852-0.03963-0.30461 0.375-0.5zm-0.3125 10.438c0.21397 0.01072 0.46916 0.06613 0.78125 0.09375 0.02773 0.0025 0.06571-0.0025 0.09375 0 0.03401 0.29601 0.07507 0.64954 0.0625 0.875-0.01326 0.2378-0.06432 0.39187-0.09375 0.4375-0.02943 0.04563-0.0076 0.0571-0.1875 0.09375a0.96732 0.96732 0 0 0-0.375 0.15625c-0.13636 0.09699-0.22542 0.20621-0.34375 0.3125 0.03458-0.65416 0.11663-1.3163 0.0625-1.9688zm9.9062 0c0.0032 0.28229-0.06786 0.77469-0.03125 1.4062-0.15283-0.14551-0.29553-0.28625-0.46875-0.40625-0.0075-0.3922-0.02625-0.75954-0.03125-0.96875a0.96732 0.96732 0 0 0 0.53125-0.03125zm-0.0625 6.8125c-0.0041 0.75876 0.0029 1.5521-0.03125 2.2812-0.17809 0.10536-0.32136 0.21558-0.46875 0.34375 0.05032-0.83663 0.05029-1.6671 0.03125-2.5 0.1508-0.04843 0.3322-0.06012 0.46875-0.125z" fill="#fc0" opacity=".05"/>
  <path id="path3975" d="m52.5 13.75c-2.4354 1.1554-4.0179 3.8207-5.2817 6.136-1.8086 3.6183-2.2721 7.7124-2.1558 11.708-1.7636 1.5912-3.5011-0.68485-5.8882-0.09375-1.9157 0.1633-4.0089-0.40619-5.7681 0.46875-2.3022 1.9553 1.2073 3.2713 0.65625 5.2812-0.86224 0.17604-1.3477-0.0099-1.6562-0.78125-0.91873-0.77131-2.3461-0.51467-3.4375-0.34375-1.0691 0.38497-1.0902 1.6666-1 2.625-2.4535 1.0717-4.7554-3.1328-7.0246-0.41479-0.88378 1.1239-2.663 0.3371-3.9639 0.57104-1.8468 0.27876-3.448-1.7681-5.2946-0.49993-1.4502 1.1611-0.96926 3.3353-0.79422 4.9428 1.1549 2.4493 3.831 0.8737 5.5088 0.4634h4.0685c2.0306 3.4164 4.695-0.33554 7.2812 0 0.47447 0.69885-0.11704 2.1153 0.9375 2.625 0.93113 0.49979 2.183 0.33932 3.1875 0.15625 0.81174-0.10786 0.67952-1.4103 1.5502-1.125 1.3184-0.1369 0.33391 2.029 0.63734 2.9071 0.07006 2.973-0.13551 5.9874 0.09375 8.9367 0.52123 1.3949 2.4053 1.235 3.245 0.2319 3.5782-2.4818 5.2288-6.9167 4.8487-11.164-0.40934-1.6178 1.7628-0.65402 2.7133-0.91201 0.04533 0.99693 0.65735 3.0264-0.90077 3.3438-2.4168 1.7191 0.60386 3.3279 1 4.4688 0.044 4.2697-2.9075 7.7866-6 10.344-1.0119 1.4793 0.86347 2.815 1.4608 4.0787 0.97514 1.0923 1.3542 2.9186 2.7892 3.4525 1.7624 0.26775 2.714-1.8268 3.8137-2.865 3.5596-4.4018 4.7946-10.178 4.53-15.729 3.3218-0.34923 1.7315-3.9961 0-4.7626 0.11134-1.0533-0.54214-2.8714 1.1628-2.3311 1.7572-0.56751 1.1629 1.2165 1.2434 2.3257-0.04203 2.6804 0.08355 5.4644-0.0625 8.0806-2.8892 0.94021-1.1431 3.792 0.0625 4.6752 0.19858 5.167-3.3881 9.4902-7.25 12.45-0.90337 1.5839 0.96151 2.8963 1.5442 4.2443 0.98335 1.2999 1.5573 3.0035 2.7683 4.0682 1.6699 0.90707 2.9366-1.2775 3.9708-2.2567 4.6464-5.1586 6.3962-12.249 6.0292-19.056 3.4854-0.86257 0.68706-3.5991 0-4.9627v-9.5685c5.8923-0.04263 11.812 0.08464 17.688-0.0625 1.3936-0.38158 1.4131-2.2159 0.57274-3.1155-2.109-3.8728-6.6924-5.404-10.879-5.0408h-7.3808v-4.0312c1.5835-3.0222 4.0397-2.1896 2.9688 0.96875 0.41894 1.0688 1.6441 1.6314 2.5938 2.1875 1.296 0.34299 2.301-1.0197 2.0505-2.235 1.2097-4.34-2.7893-9.1656-7.2453-6.8565-2.8583 1.0991-4.6377 4.5788-7.9508 4.3307-3.3267 1.1906-1.5971-4.1769-0.74053-5.8464 0.87393-2.0386 2.7532-3.3198 4.3236-4.7053 0.91397-1.4991-0.87403-2.7941-1.4421-4.0796-0.96252-1.0946-1.3559-3.4245-3.1829-3.2329zm-9.0312 20.719c0.98204 0.57473 2.8667 3.1426 0.43092 2.7812-1.8338 0.74291-2.3442-1.4479-0.77467-2.1875zm9.4062 0.75c1.6125 0.20348 1.7163 2.7515-0.16913 2.0312-1.8539 0.51461-1.1253-1.8965 0.16913-2.0312z" fill="#fc0" opacity=".1"/>
  <path id="path3971" d="m52.719 14.5a0.86653 0.86653 0 0 0-0.40625 0.15625s-1.6604 1.1088-3.25 3.5-3.1886 6.1273-3.25 11.375v2.7188h-0.5c-0.31111 0-0.6322 0.1117-0.90625 0.34375s-0.46875 0.60587-0.46875 0.96875v0.1875c0 0.36551 0.17786 0.56573 0.28125 0.6875s0.18619 0.18027 0.28125 0.25c0.19013 0.13946 0.38923 0.24399 0.59375 0.34375 0.20452 0.09976 0.39891 0.18174 0.59375 0.25 0.03721 0.01304 0.09191 0.01863 0.125 0.03125v2.6875h-4.3125v-2.7188c0.0255-0.01172 0.068-0.01944 0.09375-0.03125 0.17804-0.08167 0.37-0.16882 0.53125-0.28125s0.29289-0.24837 0.4375-0.40625 0.375-0.3094 0.375-0.8125v-0.1875c0-0.40667-0.2458-0.82019-0.53125-1.0312s-0.5961-0.28125-0.90625-0.28125h-6.6875c-0.31015 0-0.65467 0.08606-0.9375 0.3125-0.28283 0.22644-0.46875 0.62664-0.46875 1v0.1875c0 0.48645 0.2033 0.65343 0.34375 0.8125s0.31083 0.29248 0.46875 0.40625 0.323 0.19802 0.5 0.28125c0.0256 0.01204 0.06823 0.01929 0.09375 0.03125v2.7188h-2.6875v-0.375a0.86653 0.86653 0 0 0-0.875-0.875h-1.6562a0.86653 0.86653 0 0 0-0.875 0.875v1.4062c-0.34819 0.10818-0.60238 0.31391-0.78125 0.625h-1.8438c-0.31402-0.34731-0.71966-0.625-1.2188-0.625h-0.15625c-0.44954-0.47696-1.0017-0.875-1.7188-0.875-0.98919 0-1.7137 0.67621-2.1875 1.5h-5.4688c-0.14678-0.16867-0.30492-0.28987-0.46875-0.40625s-0.3518-0.19889-0.53125-0.28125-0.32814-0.1875-0.65625-0.1875h-0.78125c-0.78513-5e-6 -1.4375 0.65238-1.4375 1.4375v2.2812c0 0.78512 0.65238 1.4375 1.4375 1.4375h0.78125c0.32812 0 0.4768-0.10514 0.65625-0.1875s0.36742-0.16487 0.53125-0.28125 0.32197-0.23758 0.46875-0.40625h5.4688c0.47376 0.82379 1.1983 1.5 2.1875 1.5 0.71393 0 1.2677-0.39573 1.7188-0.875h0.15625c0.49908 0 0.90473-0.27769 1.2188-0.625h1.8438c0.17887 0.31109 0.43306 0.51682 0.78125 0.625v1.4062a0.86653 0.86653 0 0 0 0.875 0.875h1.6562a0.86653 0.86653 0 0 0 0.875-0.875v-0.375h2.6875v12a0.86653 0.86653 0 0 0 1.2812 0.78125s5.4062-2.8425 5.4062-9.375v-3.4062h4.3125v4.0625c-0.03309 0.01262-0.08779 0.01821-0.125 0.03125-0.19484 0.06826-0.38923 0.15024-0.59375 0.25-0.20452 0.09976-0.40362 0.20429-0.59375 0.34375-0.09506 0.06973-0.17786 0.12823-0.28125 0.25s-0.28125 0.32199-0.28125 0.6875v0.21875c0 0.36288 0.21093 0.78055 0.5 1s0.59537 0.28125 0.875 0.28125h0.5v1.4375c0 6.4276-5.9375 10.562-5.9375 10.562a0.86653 0.86653 0 0 0-0.21875 1.1875l3.3125 5.0312a0.86653 0.86653 0 0 0 1.2188 0.21875s6.5958-4.8657 6.7188-15.375v-3.0625h0.625c0.27963 0 0.58593-0.0618 0.875-0.28125 0.28907-0.21945 0.5-0.63712 0.5-1v-0.21875c0-0.36551-0.17786-0.56573-0.28125-0.6875s-0.18619-0.18027-0.28125-0.25c-0.19013-0.13946-0.38923-0.24399-0.59375-0.34375-0.20452-0.09976-0.39891-0.18174-0.59375-0.25-0.07442-0.02607-0.18301-0.04004-0.25-0.0625v-4.0312h3.9062v11.656c-0.15949 0.05631-0.33488 0.11236-0.5 0.1875-0.2082 0.09474-0.39861 0.2086-0.59375 0.34375-0.09757 0.06757-0.20455 0.12853-0.3125 0.25s-0.28125 0.31367-0.28125 0.6875v0.21875c0 0.39619 0.22228 0.78378 0.5 1s0.59513 0.3125 0.90625 0.3125h0.28125v1.5938c0 7.4153-7.125 12.219-7.125 12.219a0.86653 0.86653 0 0 0-0.25 1.1875l3.7812 6.0312a0.86653 0.86653 0 0 0 1.2188 0.21875s7.7972-5.8134 7.9375-17.812v-3.4375h0.34375c0.31112 0 0.62853-0.09628 0.90625-0.3125 0.27772-0.21622 0.5-0.60381 0.5-1v-0.21875c0-0.37383-0.1733-0.56603-0.28125-0.6875s-0.21493-0.18242-0.3125-0.25c-0.19514-0.13515-0.38555-0.24902-0.59375-0.34375-0.18666-0.08494-0.3844-0.15828-0.5625-0.21875v-11.625h17.969a0.86653 0.86653 0 0 0 0.8125-1.1875s-0.53441-1.4111-1.9062-2.7812-3.6511-2.75-7-2.75h-9.875v-4.8125c0.02869-0.44311 0.65147-1.4423 1.5938-2.0938 0.95508-0.66034 2.0958-0.9073 2.6562-0.6875 0.10128 0.03972 0.14527 0.06445 0.21875 0.21875 0.07348 0.1543 0.13484 0.44517 0.15625 0.78125 0.04282 0.67216-0.09365 1.5617-0.1875 2.3125a0.86653 0.86653 0 0 0 0.375 0.78125l1.375 1a0.86653 0.86653 0 0 0 1.375-0.625c0.15248-2.1347 0.14618-3.8581-0.4375-5.2188-0.29184-0.68031-0.78496-1.2568-1.4375-1.625s-1.425-0.5275-2.3125-0.5c-1.8905 0.05857-3.3767 1.1712-4.6875 2.25-1.2732 1.0479-2.4339 2.0763-3.4688 2.4688h-1.3438c-0.31111 0-0.62853 0.09628-0.90625 0.3125-0.26036 0.2027-0.44416 0.56723-0.46875 0.9375-0.020948-0.34151-0.18124-0.68926-0.4375-0.90625-0.27405-0.23206-0.59514-0.34375-0.90625-0.34375h-0.625v-1.6562c-1.3e-5 -6.57 5.3125-9.6875 5.3125-9.6875a0.86653 0.86653 0 0 0 0.28125-1.2188l-3-4.7812a0.86653 0.86653 0 0 0-0.78125-0.40625zm0.15625 19.312c0.02591 0.30788 0.15446 0.51519 0.25 0.625 0.10543 0.12118 0.18476 0.18089 0.28125 0.25 0.19298 0.13822 0.4171 0.24457 0.625 0.34375 0.2079 0.09918 0.39698 0.18232 0.59375 0.25 0.05532 0.01902 0.13926 0.01366 0.1875 0.03125v2.6875h-3.9062v-2.6562c0.06699-0.02246 0.17558-0.03643 0.25-0.0625 0.19484-0.06826 0.38923-0.15024 0.59375-0.25 0.20452-0.09976 0.40362-0.20429 0.59375-0.34375 0.09506-0.06973 0.17786-0.12823 0.28125-0.25 0.09369-0.11035 0.22505-0.32334 0.25-0.625z" fill="#fc0" opacity=".2"/>
  <path id="path3892" d="m52.77 15.389s-5.9546 3.9956-6.0735 14.154v3.5972h-1.3815c-0.28665 0-0.51264 0.14609-0.51264 0.41706v0.20853c0 0.27097 1.26 0.80806 1.5466 0.80806h0.34755v4.2923h-6.0735v-4.2923h0.3128c0.30807 0 1.1122-0.53708 1.1122-0.80806v-0.20853c0-0.27097-0.24801-0.41706-0.55608-0.41706h-6.6643c-0.30807 0-0.55608 0.14609-0.55608 0.41706v0.20853c0 0.27097 0.80409 0.80806 1.1122 0.80806h0.3128v4.2923h-4.44v-1.2512h-1.6596v2.1374h-0.51264c-0.30807 0-0.55608 0.24801-0.55608 0.55608v0.21722h-2.8412c-0.093509-0.35852-0.41944-0.62559-0.80806-0.62559h-0.46919c-0.33764-0.52383-0.84712-0.86019-1.425-0.86019-0.78299 0-1.454 0.619-1.7204 1.4858h-6.4558v-0.02605c0-0.30807-0.8041-0.83413-1.1122-0.83413h-0.79068c-0.30807-2e-6 -0.55608 0.24801-0.55608 0.55608v2.2765c0 0.30807 0.24801 0.55608 0.55608 0.55608h0.79068c0.30807 0 1.1122-0.52606 1.1122-0.83413v-0.02605h6.4558c0.26641 0.86679 0.93738 1.4858 1.7204 1.4858 0.58138 0 1.0961-0.33951 1.4336-0.86888h0.4605c0.38862 0 0.71455-0.25838 0.80806-0.61691h2.8412v0.21723c0 0.30806 0.24801 0.55608 0.55608 0.55608h0.51264v2.1374h1.6596v-1.2512h4.44v12.877s4.9265-2.5572 4.9265-8.6193v-4.2575h6.0735v5.6912h-0.34755c-0.28665 0-1.5466 0.53708-1.5466 0.80806v0.20853c0 0.27096 0.22599 0.41706 0.51264 0.41706h1.3815v2.3025c0 6.9521-6.3081 11.295-6.3081 11.295l3.3017 5.0308s6.2327-4.5517 6.3515-14.71v-3.9186h1.4858c0.28665 0 0.51264-0.1461 0.51264-0.41706v-0.20853c0-0.27097-1.2686-0.80806-1.5553-0.80806h-0.44313v-5.6912h5.6303v13.198h-0.11296c-0.28665 0-1.5553 0.53708-1.5553 0.80806v0.20853c0 0.27096 0.22598 0.41706 0.51264 0.41706h1.1556v2.4763c0 7.9617-7.5071 12.938-7.5071 12.938l3.7796 6.0387s7.4232-5.4919 7.5592-17.126v-4.327h1.2251c0.28665 0 0.51264-0.1461 0.51264-0.41706v-0.20853c0-0.27097-1.26-0.80806-1.5466-0.80806h-0.19115v-13.198h18.846s-1.869-4.9874-8.1066-4.9874h-10.739v-5.6912h-0.0087c0.05284-1.8813 3.4482-4.3674 5.4566-3.5798 1.2735 0.49946 0.93215 2.7348 0.74724 4.2141l1.3728 0.99052c0.29881-4.1833-0.16627-6.4916-3.2844-6.3949-3.1049 0.0962-5.3643 3.8216-8.0197 4.7354h-1.5292c-0.28665 0-0.51264 0.14609-0.51264 0.41706v0.20853c0 0.27097 1.2686 0.80806 1.5553 0.80806h0.391v4.2923h-5.6303v-4.2923h0.44313c0.28665 0 1.5553-0.53708 1.5553-0.80806v-0.20853c0-0.27097-0.22599-0.41706-0.51264-0.41706h-1.4858v-2.5371c-1.4e-5 -7.0417 5.752-10.461 5.752-10.461l-3.0237-4.7528z" fill="url(#radialGradient3967-9)"/>
 </g>
 <g id="g873">
  <path id="rect4377" d="m12 86c-3.324 0-6-2.676-6-6v-68c0-3.324 2.676-6 6-6h72c3.324 0 6 2.676 6 6v68c0 3.324-2.676 6-6 6zm0-0.96875h72c2.8049 0 5.0312-2.2264 5.0312-5.0312v-68c0-2.8049-2.226-5.0312-5.031-5.0312h-72c-2.8049 0-5.0312 2.2263-5.0312 5.0312v68c0 2.8049 2.2264 5.0312 5.0312 5.0312z" fill="url(#linearGradient4390)" opacity=".3"/>
  <path id="rect4414" d="m6 78v2c0 3.324 2.676 6 6 6h72c3.324 0 6-2.676 6-6v-2c0 3.324-2.676 6-6 6h-72c-3.324 0-6-2.676-6-6z" fill="url(#linearGradient4429)" opacity=".1"/>
  <g id="layer4-3">
   <path id="path3888" d="m6 80v4c0 3.324 2.676 6 6 6h72c3.324 0 6-2.676 6-6v-4c0 3.324-2.676 6-6 6h-72c-3.324 0-6-2.676-6-6z" fill="url(#linearGradient3228)"/>
   <path id="rect4345" d="m6 82v2c0 3.324 2.676 6 6 6h72c3.324 0 6-2.676 6-6v-2c0 3.324-2.676 6-6 6h-72c-3.324 0-6-2.676-6-6z" color="#000000" opacity=".1"/>
   <path id="rect4336" d="m6 83v1c0 3.324 2.676 6 6 6h72c3.324 0 6-2.676 6-6v-1c0 3.324-2.676 6-6 6h-72c-3.324 0-6-2.676-6-6z" color="#000000" opacity=".15"/>
  </g>
 </g>
</svg>
