<?xml version="1.0" encoding="UTF-8"?>
<svg id="svg2408" width="96" height="96" version="1.0" xmlns="http://www.w3.org/2000/svg" xmlns:cc="http://creativecommons.org/ns#" xmlns:dc="http://purl.org/dc/elements/1.1/" xmlns:rdf="http://www.w3.org/1999/02/22-rdf-syntax-ns#" xmlns:xlink="http://www.w3.org/1999/xlink">
 <defs id="defs2410">
  <linearGradient id="linearGradient2675" x1="65.156" x2="65.156" y1="16.125" y2="69.688" gradientUnits="userSpaceOnUse" xlink:href="#linearGradient3737"/>
  <radialGradient id="radialGradient3465" cx="48" cy="-15.894" r="35.938" gradientTransform="matrix(-.0050683 1.2205 -1.3844 -.0057456 26.241 -46.842)" gradientUnits="userSpaceOnUse">
   <stop id="stop3177" stop-color="#282828" offset="0"/>
   <stop id="stop3179" offset="1"/>
  </radialGradient>
  <linearGradient id="ButtonShadow" x1="45.448" x2="45.448" y1="92.54" y2="7.0165" gradientTransform="scale(1.0059 .99417)" gradientUnits="userSpaceOnUse">
   <stop id="stop3750" offset="0"/>
   <stop id="stop3752" stop-opacity=".58824" offset="1"/>
  </linearGradient>
  <linearGradient id="linearGradient3737">
   <stop id="stop3739" stop-color="#fff" offset="0"/>
   <stop id="stop3741" stop-color="#fff" stop-opacity="0" offset="1"/>
  </linearGradient>
  <filter id="filter3174" color-interpolation-filters="sRGB">
   <feGaussianBlur id="feGaussianBlur3176" stdDeviation="1.71"/>
  </filter>
  <linearGradient id="linearGradient3188" x1="36.357" x2="36.357" y1="6" y2="63.893" gradientUnits="userSpaceOnUse" xlink:href="#linearGradient3737"/>
  <linearGradient id="linearGradient3507" x1="24.996" x2="46.021" y1="-2.75" y2="75.716" gradientUnits="userSpaceOnUse" xlink:href="#linearGradient3737"/>
  <filter id="filter3531" x="-.168" y="-.42" width="1.336" height="1.84" color-interpolation-filters="sRGB">
   <feGaussianBlur id="feGaussianBlur3533" stdDeviation="0.55"/>
  </filter>
  <linearGradient id="linearGradient3735" x1="48" x2="48" y1="90" y2="5.9877" gradientUnits="userSpaceOnUse">
   <stop id="stop3702" stop-color="#dcdcdc" offset="0"/>
   <stop id="stop3704" stop-color="#f0f0f0" offset="1"/>
  </linearGradient>
  <linearGradient id="linearGradient4126" x1="142.47" x2="142.47" y1="16.125" y2="64.188" gradientTransform="translate(-80)" gradientUnits="userSpaceOnUse">
   <stop id="stop3689" stop-color="#fff" stop-opacity=".99278" offset="0"/>
   <stop id="stop3691" stop-color="#fff" stop-opacity="0" offset="1"/>
  </linearGradient>
  <filter id="filter4161" color-interpolation-filters="sRGB">
   <feGaussianBlur id="feGaussianBlur4163" stdDeviation="0.50332031"/>
  </filter>
  <radialGradient id="radialGradient2874" cx="48" cy="90.172" r="42" gradientTransform="matrix(1.1573 0 0 .99591 -7.551 .19713)" gradientUnits="userSpaceOnUse">
   <stop id="stop3739-7" stop-color="#fff" offset="0"/>
   <stop id="stop3741-2" stop-color="#fff" stop-opacity="0" offset="1"/>
  </radialGradient>
  <linearGradient id="ButtonShadow-0" x1="45.448" x2="45.448" y1="92.54" y2="7.0165" gradientTransform="matrix(1.0059 0 0 .99417 100 0)" gradientUnits="userSpaceOnUse">
   <stop id="stop3750-8" offset="0"/>
   <stop id="stop3752-5" stop-opacity=".58824" offset="1"/>
  </linearGradient>
  <linearGradient id="linearGradient3780" x1="32.251" x2="32.251" y1="6.1317" y2="90.239" gradientTransform="matrix(1.0238 0 0 1.0119 -1.1429 -98.071)" gradientUnits="userSpaceOnUse" xlink:href="#ButtonShadow-0"/>
  <linearGradient id="linearGradient3721" x1="32.251" x2="32.251" y1="6.1317" y2="90.239" gradientTransform="translate(0,-97)" gradientUnits="userSpaceOnUse" xlink:href="#ButtonShadow-0"/>
  <radialGradient id="radialGradient909" cx="-30.418" cy="49.614" r="15.748" gradientTransform="matrix(2.6912 -.072155 .075386 3.172 126.12 -88.642)" gradientUnits="userSpaceOnUse">
   <stop id="stop899" stop-color="#3c3c3c" offset="0"/>
   <stop id="stop901" offset="1"/>
  </radialGradient>
  <clipPath id="clipPath3871-0">
   <path id="path3873-2" d="m0 96v60h96v-60zm68 20c9.9411 0 18 8.0589 18 18s-8.0589 18-18 18-18-8.0589-18-18 8.0589-18 18-18z" fill="#fff"/>
  </clipPath>
  <linearGradient id="linearGradient3844" x1="51.429" x2="90.714" y1="72.786" y2="72.786" gradientUnits="userSpaceOnUse">
   <stop id="stop3780" stop-color="#499119" offset="0"/>
   <stop id="stop3782" stop-color="#8fd625" offset="1"/>
  </linearGradient>
  <linearGradient id="linearGradient3886" x1="123.08" x2="123.08" y1="75.788" y2="59.879" gradientUnits="userSpaceOnUse" xlink:href="#linearGradient5010"/>
  <linearGradient id="linearGradient5010">
   <stop id="stop5012" offset="0"/>
   <stop id="stop5014" stop-opacity="0" offset="1"/>
  </linearGradient>
  <clipPath id="clipPath3894">
   <path id="path3896" d="m128 56c-9.9411 0-18 8.0589-18 18s8.0589 18 18 18 18-8.0589 18-18-8.0589-18-18-18zm-6 4.5h12v13.75h5l-11 13.75-11-13.75h5z" fill="#fff"/>
  </clipPath>
  <linearGradient id="linearGradient3871" x1="65.263" x2="65.263" y1="64.205" y2="43.78" gradientTransform="matrix(.625 0 0 .625 25.5 33.25)" gradientUnits="userSpaceOnUse" xlink:href="#linearGradient3737"/>
  <linearGradient id="linearGradient3857-6" x1="64.321" x2="64.321" y1="55.31" y2="84.89" gradientTransform="translate(-2)" gradientUnits="userSpaceOnUse" xlink:href="#linearGradient3737"/>
 </defs>
 <metadata id="metadata2413">
  <rdf:RDF>
   <cc:Work rdf:about="">
    <dc:format>image/svg+xml</dc:format>
    <dc:type rdf:resource="http://purl.org/dc/dcmitype/StillImage"/>
    <dc:title/>
   </cc:Work>
  </rdf:RDF>
 </metadata>
 <g id="layer2" display="none">
  <rect id="rect3745" x="5" y="7" width="86" height="85" rx="6" ry="6" fill="url(#ButtonShadow)" filter="url(#filter3174)" opacity=".9"/>
 </g>
 <g id="layer6">
  <path id="path3786" transform="scale(1,-1)" d="m12-95.031c-5.5111 0-10.031 4.5202-10.031 10.031v71c0 5.5111 4.5202 10.031 10.031 10.031h72c5.5111 0 10.031-4.5202 10.031-10.031v-71c0-5.5111-4.5202-10.031-10.031-10.031h-72z" fill="url(#linearGradient3780)" opacity=".08"/>
  <path id="path3778" transform="scale(1,-1)" d="m12-94.031c-4.9716 0-9.0312 4.0596-9.0312 9.0312v71c0 4.9716 4.0596 9.0312 9.0312 9.0312h72c4.9716 0 9.0312-4.0596 9.0312-9.0312v-71c0-4.9716-4.0596-9.0312-9.0312-9.0312h-72z" fill="url(#linearGradient3780)" opacity=".1"/>
  <path id="path3770" transform="scale(1,-1)" d="m12-93c-4.4091 0-8 3.5909-8 8v71c0 4.4091 3.5909 8 8 8h72c4.4091 0 8-3.5909 8-8v-71c0-4.4091-3.5909-8-8-8h-72z" fill="url(#linearGradient3780)" opacity=".2"/>
  <rect id="rect3723" transform="scale(1,-1)" x="5" y="-92" width="86" height="85" rx="7" ry="7" fill="url(#linearGradient3780)" opacity=".3"/>
  <rect id="rect3716" transform="scale(1,-1)" x="6" y="-91" width="84" height="84" rx="6" ry="6" fill="url(#linearGradient3721)" opacity=".45"/>
 </g>
 <g id="layer3" transform="translate(0,6)">
  <path id="path3215" transform="matrix(-1.0009 0 0 -1.1558 96.01 88.221)" d="m12.062 12.062v53.875h71.875v-53.875z" fill="url(#radialGradient3465)"/>
  <path id="path3726" d="m12 12v62.281h71.938v-62.281zm3 3h66v56h-66z" filter="url(#filter4161)"/>
 </g>
 <g id="layer1">
  <path id="rect2419" d="m12 6c-3.324 0-6 2.676-6 6v72c0 3.324 2.676 6 6 6h72c3.324 0 6-2.676 6-6v-72c0-3.324-2.676-6-6-6zm2 7.4949h68.379v58.505h-68.379z" fill="url(#linearGradient3735)"/>
  <path id="rect3728" d="m12 6c-3.324 0-6 2.676-6 6v72c0 0.33472 0.04135 0.6507 0.09375 0.96875 0.0487 0.2956 0.09704 0.59692 0.1875 0.875 0.00988 0.03038 0.020892 0.0636 0.03125 0.09375 0.098865 0.28777 0.23488 0.54745 0.375 0.8125 0.14459 0.27351 0.31562 0.53562 0.5 0.78125s0.37378 0.47347 0.59375 0.6875c0.43995 0.42806 0.94291 0.81453 1.5 1.0938 0.27854 0.13961 0.57347 0.24695 0.875 0.34375-0.2562-0.10022-0.48671-0.23627-0.71875-0.375-0.00741-0.0044-0.023866 0.0045-0.03125 0-0.031933-0.0193-0.062293-0.04251-0.09375-0.0625-0.1204-0.0767-0.23102-0.16351-0.34375-0.25-0.10617-0.0808-0.21328-0.16111-0.3125-0.25-0.17793-0.16143-0.34746-0.34539-0.5-0.53125-0.10758-0.13026-0.21839-0.26528-0.3125-0.40625-0.025089-0.03838-0.038446-0.08587-0.0625-0.125-0.064763-0.10303-0.13023-0.20452-0.1875-0.3125-0.10101-0.19471-0.20567-0.4157-0.28125-0.625-0.00796-0.02181-0.023589-0.04055-0.03125-0.0625-0.031825-0.09195-0.035804-0.18683-0.0625-0.28125-0.030332-0.10662-0.070389-0.20303-0.09375-0.3125-0.072879-0.34151-0.125-0.6982-0.125-1.0625v-72c0-2.7818 2.2182-5 5-5h72c2.7818 0 5 2.2182 5 5v72c0 0.3643-0.05212 0.72099-0.125 1.0625-0.04415 0.20689-0.08838 0.39766-0.15625 0.59375-0.0077 0.02195-0.0233 0.04069-0.03125 0.0625-0.06274 0.17374-0.13838 0.36745-0.21875 0.53125-0.04158 0.0828-0.07904 0.16995-0.125 0.25-0.0546 0.09721-0.12677 0.18835-0.1875 0.28125-0.09411 0.14096-0.20492 0.276-0.3125 0.40625-0.14317 0.17445-0.30314 0.347-0.46875 0.5-0.01117 0.0102-0.01998 0.02115-0.03125 0.03125-0.13839 0.12556-0.28509 0.23444-0.4375 0.34375-0.10257 0.07315-0.20432 0.15336-0.3125 0.21875-0.0074 0.0045-0.02384-0.0044-0.03125 0-0.23204 0.13873-0.46255 0.27478-0.71875 0.375 0.30153-0.0968 0.59646-0.20414 0.875-0.34375 0.55709-0.27922 1.0601-0.66569 1.5-1.0938 0.21997-0.21403 0.40937-0.44186 0.59375-0.6875s0.35541-0.50774 0.5-0.78125c0.14012-0.26505 0.27614-0.52473 0.375-0.8125 0.01041-0.03078 0.02133-0.06274 0.03125-0.09375 0.09046-0.27808 0.1388-0.5794 0.1875-0.875 0.0524-0.31805 0.09375-0.63403 0.09375-0.96875v-72c0-3.324-2.676-6-6-6z" fill="url(#linearGradient3188)"/>
  <path id="path3174" d="m11.312 8c-1.8839 0-3.3125 1.4294-3.3125 3.3125v63.375c0 1.8831 1.4286 3.3125 3.3125 3.3125h73.375c1.8839 0 3.3125-1.4294 3.3125-3.3125v-63.375c0-1.8831-1.4286-3.3125-3.3125-3.3125z" fill="#e6e6e6"/>
  <path id="rect3535" d="m38.315 10c-0.9914 0-1.7895 0.44-1.7895 0.98654v1.9731c0 0.54654 0.79813 0.98654 1.7895 0.98654h17.895c0.9914 0 1.7895-0.44 1.7895-0.98654v-1.9731c0-0.54654-0.79813-0.98654-1.7895-0.98654z"/>
  <path id="rect3483" d="m14 80h68v1h-68z" fill="#7f7f7f"/>
  <rect id="rect3525" transform="matrix(1.2045 0 0 1.4099 .85227 -101.24)" x="50.571" y="79.536" width="7.8571" height="3.1429" rx="1.5714" ry="1.5714" fill="#cf0" filter="url(#filter3531)" opacity=".24303"/>
  <rect id="rect3485" x="64.054" y="12.198" width="5" height="2" rx="1" ry="1" fill="#7fff2a"/>
  <path id="path3615" d="m12 90c-3.324 0-6-2.676-6-6v-72c0-0.33472 0.04135-0.6507 0.09375-0.96875 0.0487-0.2956 0.09704-0.59692 0.1875-0.875 0.00988-0.03038 0.020892-0.0636 0.03125-0.09375 0.098865-0.28777 0.23488-0.54745 0.375-0.8125 0.14459-0.27351 0.31562-0.53562 0.5-0.78125s0.37378-0.47347 0.59375-0.6875c0.43995-0.42806 0.94291-0.81453 1.5-1.0938 0.27854-0.13961 0.57347-0.24695 0.875-0.34375-0.2562 0.10022-0.48671 0.23627-0.71875 0.375-0.00741 0.0044-0.023866-0.0045-0.03125 0-0.031933 0.0193-0.062293 0.04251-0.09375 0.0625-0.1204 0.0767-0.23102 0.16351-0.34375 0.25-0.10617 0.0808-0.21328 0.16111-0.3125 0.25-0.17793 0.16143-0.34746 0.34539-0.5 0.53125-0.10758 0.13026-0.21839 0.26528-0.3125 0.40625-0.025089 0.03838-0.038446 0.08587-0.0625 0.125-0.064763 0.10303-0.13023 0.20452-0.1875 0.3125-0.10101 0.19471-0.20567 0.4157-0.28125 0.625-0.00796 0.02181-0.023589 0.04055-0.03125 0.0625-0.031825 0.09195-0.035804 0.18683-0.0625 0.28125-0.030332 0.10662-0.070389 0.20303-0.09375 0.3125-0.072879 0.34151-0.125 0.6982-0.125 1.0625v72c0 2.7818 2.2182 5 5 5h72c2.7818 0 5-2.2182 5-5v-72c0-0.3643-0.05212-0.72099-0.125-1.0625-0.04415-0.20689-0.08838-0.39766-0.15625-0.59375-0.0077-0.02195-0.0233-0.04069-0.03125-0.0625-0.06274-0.17374-0.13838-0.36745-0.21875-0.53125-0.04158-0.0828-0.07904-0.16995-0.125-0.25-0.0546-0.09721-0.12677-0.18835-0.1875-0.28125-0.09411-0.14096-0.20492-0.276-0.3125-0.40625-0.14317-0.17445-0.30314-0.347-0.46875-0.5-0.01117-0.0102-0.01998-0.02115-0.03125-0.03125-0.13839-0.12556-0.28509-0.23444-0.4375-0.34375-0.10257-0.07315-0.20432-0.15336-0.3125-0.21875-0.0074-0.0045-0.02384 0.0044-0.03125 0-0.23204-0.13873-0.46255-0.27478-0.71875-0.375 0.30153 0.0968 0.59646 0.20414 0.875 0.34375 0.55709 0.27922 1.0601 0.66569 1.5 1.0938 0.21997 0.21403 0.40937 0.44186 0.59375 0.6875s0.35541 0.50774 0.5 0.78125c0.14012 0.26505 0.27614 0.52473 0.375 0.8125 0.01041 0.03078 0.02133 0.06274 0.03125 0.09375 0.09046 0.27808 0.1388 0.5794 0.1875 0.875 0.0524 0.31805 0.09375 0.63403 0.09375 0.96875v72c0 3.324-2.676 6-6 6z" fill="url(#radialGradient2874)" opacity=".6"/>
 </g>
 <g id="layer4" display="none" fill="url(#linearGradient3507)" fill-rule="evenodd">
  <path id="path3488" d="m11.312 9.1562c-1.2968 0-2.1562 0.86016-2.1562 2.1562v63.375c0 1.2961 0.85945 2.1562 2.1562 2.1562h21.406c0.42677-0.0067 0.8228 0.2213 1.0312 0.59375l3.2812 6c0.29448 0.53988 0.49167 1.0078 0.65625 1.2188s0.11722 0.1875 0.3125 0.1875h7.1562l-4.4688-13.688h-24.688c-0.63754-0.002511-1.1537-0.51871-1.1562-1.1562v-54c-0.0056-0.5713 0.4053-1.0617 0.96875-1.1562 0.0624-0.0051 0.1251-0.0051 0.1875 0h6.25l-1.875-5.6875h-9.0625zm28.688 0 3.2812 5.6875h36.719c0.63754 0.0025 1.1537 0.51871 1.1562 1.1562v54c-0.002511 0.63754-0.51871 1.1537-1.1562 1.1562h-4.2188l3.2812 5.6875h5.625c1.2968 0 2.1562-0.86016 2.1562-2.1562v-63.375c0-1.2961-0.85945-2.1562-2.1562-2.1562h-44.688z" opacity=".4"/>
  <path id="path3515" d="m17 17v52h22.969l-17-52h-5.9688zm27.531 0 30 52h4.4688v-52h-34.469z" opacity=".6"/>
 </g>
 <path id="rect884" d="m14 17.008h68v62.992h-68z" fill="url(#radialGradient909)" style="paint-order:stroke fill markers"/>
 <g id="layer5" transform="translate(2.4449 .52145)">
  <path id="path3691" d="m11.312 8c-1.8839 0-3.3125 1.4294-3.3125 3.3125v63.375c0 1.8831 1.4286 3.3125 3.3125 3.3125h15.688c1.656 0 3 1.344 3 3v2c0 1.662 1.338 3 3 3h30c1.662 0 3-1.338 3-3v-2c0-1.656 1.344-3 3-3h15.688c1.8839 0 3.3125-1.4294 3.3125-3.3125v-63.375c0-1.8831-1.4286-3.3125-3.3125-3.3125zm2.6875 6h68v58h-68z" display="none"/>
  <path id="path2669" d="m47.656 16.125 22.031 63.75h1l-22.031-63.75z" fill="url(#linearGradient2675)" fill-rule="evenodd" opacity=".209"/>
  <path id="path3664" d="m47.656 16.125 22.031 63.75h9.3125c0.5388 0 0.875-0.3362 0.875-0.875v-62c0-0.5388-0.33619-0.875-0.875-0.875z" fill="url(#linearGradient4126)" fill-rule="evenodd" opacity=".138"/>
  <g id="layer6-7" transform="translate(-3.4762 -4.4277)">
   <path id="path3950" transform="translate(0,-61)" d="m68 116c-11.06 0-20 8.9399-20 20s8.9399 20 20 20 20-8.9399 20-20-8.9399-20-20-20z" opacity=".05"/>
   <path id="path3946" transform="translate(0,-61)" d="m68 117c-10.516 0-19 8.4845-19 19s8.4845 19 19 19 19-8.4845 19-19-8.4845-19-19-19z" opacity=".15"/>
   <rect id="rect3859" transform="translate(0,-61)" x="50" y="118" width="36" height="36" rx="18" ry="18" clip-path="url(#clipPath3871-0)" opacity=".31"/>
   <path id="path3836" transform="matrix(0 -.91636 .91636 0 1.3018 139.13)" d="m90.714 72.786a19.643 19.643 0 1 1-39.286 0 19.643 19.643 0 1 1 39.286 0z" fill="url(#linearGradient3844)"/>
   <path id="path3884" transform="translate(-60)" d="m121.81 60.031a0.92847 0.92847 0 0 0-0.125 0.03125c0.0117-0.0026-0.13641 0.03484-0.125 0.03125 0.0114-0.0036-0.13605 0.03582-0.125 0.03125 0.011-0.0046-0.13561 0.06802-0.125 0.0625 0.0106-0.0055-0.10383 0.06893-0.0937 0.0625 0.0101-0.0064-0.13448 0.06979-0.125 0.0625 9e-3 -0.0073-0.10256 0.10184-0.0937 0.09375 9e-3 -0.0081-0.10182 0.10258-0.0937 0.09375 8e-3 -0.0088-0.0698 0.10325-0.0625 0.09375 7e-3 -0.0095-0.10015 0.10385-0.0937 0.09375 6e-3 -0.0101-0.068 0.13562-0.0625 0.125 5e-3 -0.01062-0.0358 0.13606-0.0312 0.125 5e-3 -0.01106-0.0661 0.10516-0.0625 0.09375 4e-3 -0.01141-0.0338 0.13668-0.0312 0.125 3e-3 -0.01168-2e-3 0.13686 0 0.125s-0.0317 0.13695-0.0312 0.125c3.6e-4 -9e-3 5e-5 0.057 0 0.09375-2e-5 0.01225 1.4e-4 0.03424 0 0.03125v12.25h-3.5312c0.01 3.6e-5 -0.10334 6.39e-4 -0.0937 0 0.01-6.39e-4 -0.10327 0.03256-0.0937 0.03125 0.01-0.0013-0.1344 2e-3 -0.125 0 9e-3 -2e-3 -0.10299 0.03388-0.0937 0.03125 9e-3 -0.0026-0.10278 0.03453-0.0937 0.03125 9e-3 -0.0033-0.10253 0.03515-0.0937 0.03125 9e-3 -0.0039-0.10223 0.06701-0.0937 0.0625 8e-3 -0.0045-0.1019 0.03635-0.0937 0.03125 8e-3 -0.0051-0.0703 0.06816-0.0625 0.0625 8e-3 -0.0057-0.1011 0.06869-0.0937 0.0625 7e-3 -0.0062-0.0694 0.06919-0.0625 0.0625 7e-3 -0.0067-0.10016 0.10091-0.0937 0.09375 6e-3 -0.0072-0.0684 0.07009-0.0625 0.0625 6e-3 -0.0076-0.0678 0.10174-0.0625 0.09375 5e-3 -8e-3 -0.036 0.10209-0.0312 0.09375 5e-3 -0.0083-0.0667 0.10241-0.0625 0.09375 4e-3 -0.0087-0.0348 0.07143-0.0312 0.0625 4e-3 -0.0089-0.0342 0.13416-0.0312 0.125 3e-3 -0.0092-0.0335 0.10309-0.0312 0.09375 2e-3 -0.0093-0.0328 0.10322-0.0312 0.09375 2e-3 -0.0095-9.3e-4 0.10331 0 0.09375 9.3e-4 -0.0096-2.5e-4 0.10336 0 0.09375 2.5e-4 -0.0096 4.2e-4 0.1346 0 0.125-4.2e-4 -0.0096 1e-3 0.1033 0 0.09375-1e-3 -0.0095 2e-3 0.1032 0 0.09375-2e-3 -0.0094 0.0337 0.10305 0.0312 0.09375-2e-3 -0.0093 0.0343 0.10285 0.0312 0.09375-3e-3 -0.0091 0.0349 0.10262 0.0312 0.09375-4e-3 -0.0089 0.0668 0.10233 0.0625 0.09375-4e-3 -0.0086 0.0362 0.10201 0.0312 0.09375-5e-3 -0.0083 0.068 0.10164 0.0625 0.09375-5e-3 -0.0079 0.0685 0.10124 0.0625 0.09375l11 13.719c-2e-3 -0.0024-0.0109 0.01827 0 0.03125 0.0164 0.01947 0.0343 0.03469 0.0312 0.03125-5e-3 -0.0057 0.0679 0.06794 0.0625 0.0625-5e-3 -0.0054 0.0682 0.06763 0.0625 0.0625-6e-3 -0.0051 0.0685 0.0673 0.0625 0.0625s0.0688 0.0357 0.0625 0.03125c-6e-3 -0.0045 0.069 0.06659 0.0625 0.0625-7e-3 -0.0041 0.10047 0.03497 0.0937 0.03125-7e-3 -0.0037 0.0694 0.03459 0.0625 0.03125-7e-3 -0.0033 0.0696 0.03419 0.0625 0.03125-7e-3 -0.0029 0.101 0.03379 0.0937 0.03125-7e-3 -0.0025 0.0699 0.03338 0.0625 0.03125-7e-3 -0.0021 0.10124 0.03296 0.0937 0.03125-7e-3 -0.0017 0.0701 0.0013 0.0625 0-8e-3 -0.0013 0.10138 0.03211 0.0937 0.03125-8e-3 -8.62e-4 0.0702 4.32e-4 0.0625 0-8e-3 -4.32e-4 0.10143 0 0.0937 0-8e-3 0 0.10142-4.32e-4 0.0937 0-8e-3 4.32e-4 0.0701-8.62e-4 0.0625 0-8e-3 8.62e-4 0.10132-0.03254 0.0937-0.03125-8e-3 0.0013 0.07-0.0017 0.0625 0-7e-3 0.0017 0.10113-0.03338 0.0937-0.03125-7e-3 0.0021 0.0697-0.03379 0.0625-0.03125-7e-3 0.0025 0.10084-0.03419 0.0937-0.03125-7e-3 0.0029 0.0694-0.03459 0.0625-0.03125-7e-3 0.0033 0.0692-0.03497 0.0625-0.03125-7e-3 0.0037 0.10025-0.03534 0.0937-0.03125-6e-3 0.0041 0.0688-0.06695 0.0625-0.0625-6e-3 0.0045 0.0685-0.03605 0.0625-0.03125s0.0682-0.06763 0.0625-0.0625c-6e-3 0.0051 0.0679-0.06794 0.0625-0.0625-5e-3 0.0054 0.0676-0.06824 0.0625-0.0625-3e-3 0.0034 0.0148-0.01178 0.0312-0.03125 0.0109-0.01298 2e-3 -0.03365 0-0.03125l11-13.719c-6e-3 0.0075 0.068-0.10164 0.0625-0.09375-5e-3 0.0079 0.0674-0.10201 0.0625-0.09375-5e-3 0.0083 0.0356-0.10233 0.0312-0.09375-4e-3 0.0086 0.0662-0.10262 0.0625-0.09375-4e-3 0.0089 0.0343-0.10285 0.0312-0.09375-3e-3 0.0091 0.0337-0.10305 0.0312-0.09375-2e-3 0.0093 0.033-0.1032 0.0312-0.09375-2e-3 0.0094 1e-3 -0.1033 0-0.09375-1e-3 0.0095 4.2e-4 -0.10335 0-0.09375-4.2e-4 0.0096-2.5e-4 -0.1346 0-0.125 2.5e-4 0.0096-9.3e-4 -0.10331 0-0.09375 9.3e-4 0.0096-2e-3 -0.10322 0-0.09375 2e-3 0.0095-0.0335-0.10309-0.0312-0.09375 2e-3 0.0093-0.0342-0.10291-0.0312-0.09375 3e-3 0.0092-0.0348-0.13393-0.0312-0.125 4e-3 0.0089-0.0354-0.07116-0.0312-0.0625 4e-3 0.0087-0.0673-0.10209-0.0625-0.09375 5e-3 0.0083-0.0366-0.10174-0.0312-0.09375 5e-3 8e-3 -0.0684-0.10134-0.0625-0.09375 6e-3 0.0076-0.0689-0.06966-0.0625-0.0625 6e-3 0.0072-0.10065-0.10044-0.0937-0.09375 7e-3 0.0067-0.0699-0.06869-0.0625-0.0625 7e-3 0.0062-0.10152-0.06816-0.0937-0.0625 8e-3 0.0057-0.0707-0.0676-0.0625-0.0625 8e-3 0.0051-0.10223-0.03576-0.0937-0.03125 8e-3 0.0045-0.10253-0.0664-0.0937-0.0625 9e-3 0.0039-0.10278-0.03453-0.0937-0.03125 9e-3 0.0033-0.10299-0.03388-0.0937-0.03125 9e-3 0.0026-0.10315-0.03323-0.0937-0.03125 9e-3 2e-3 -0.13452-0.0013-0.125 0 0.01 0.0013-0.10334-0.03189-0.0937-0.03125 0.01 6.39e-4 -0.10336 3.6e-5 -0.0937 0h-3.5312v-12.281c-6e-5 -0.02323-1.2e-4 -0.06711 0-0.0625 1.8e-4 0.0069-5.3e-4 -0.06939 0-0.0625 5.3e-4 0.0069-0.0321-0.06936-0.0312-0.0625 8.8e-4 0.0069-1e-3 -0.10055 0-0.09375 1e-3 0.0068-2e-3 -0.06923 0-0.0625 2e-3 0.0067-0.0332-0.06914-0.0312-0.0625 2e-3 0.0066-0.0335-0.06904-0.0312-0.0625 2e-3 0.0065-0.0338-0.10017-0.0312-0.09375 3e-3 0.0064-0.0341-0.06878-0.0312-0.0625 3e-3 0.0063-0.0344-0.06862-0.0312-0.0625 3e-3 0.0061-0.0348-0.06846-0.0312-0.0625 4e-3 6e-3 -0.0351-0.06827-0.0312-0.0625 4e-3 0.0058-0.0353-0.06807-0.0312-0.0625 4e-3 0.0056-0.0669-0.06786-0.0625-0.0625 4e-3 0.0054-0.0359-0.03638-0.0312-0.03125 5e-3 0.0051-0.0674-0.06739-0.0625-0.0625 5e-3 0.0049-0.0676-0.06713-0.0625-0.0625 5e-3 0.0046-0.0366-0.03562-0.0312-0.03125 5e-3 0.0044-0.0681-0.06659-0.0625-0.0625 6e-3 0.0041-0.0683-0.03505-0.0625-0.03125 6e-3 0.0038-0.0685-0.03476-0.0625-0.03125 6e-3 0.0035-0.0686-0.03445-0.0625-0.03125 6e-3 0.0032-0.0688-0.03414-0.0625-0.03125 6e-3 0.0029-0.0689-0.03382-0.0625-0.03125 6e-3 0.0026-0.10029-0.03349-0.0937-0.03125 7e-3 0.0022-0.0691-0.03316-0.0625-0.03125 7e-3 0.0019-0.0692-0.03282-0.0625-0.03125 7e-3 0.0016-0.0693-0.0012-0.0625 0 7e-3 0.0012-0.10061-8.78e-4 -0.0937 0 7e-3 8.78e-4 -0.0694-0.03178-0.0625-0.03125 7e-3 5.3e-4 -0.0694-1.81e-4 -0.0625 0 5e-3 1.21e-4 -0.0393 5.9e-5 -0.0625 0h-11.937c5e-3 3.31e-4 -0.0348 8.89e-4 -0.0625 0 3e-3 1.65e-4 -0.0174 3.89e-4 -0.0312 0 5e-3 0-0.0348-7.79e-4 -0.0625 0 3e-3 0-0.0174-4.44e-4 -0.0312 0-0.0277 8.89e-4 -0.068 3.31e-4 -0.0625 0z" fill="url(#linearGradient3886)" opacity=".05"/>
   <path id="path3886" transform="translate(-60)" d="m122 61.5v13.75h-5l11 13.75 11-13.75h-5v-13.75z" clip-path="url(#clipPath3894)" fill="url(#linearGradient3886)" opacity=".3"/>
   <path id="path3876" transform="translate(-60)" d="m121.94 60.969a0.51873 0.51873 0 0 0-0.46875 0.53125v13.219h-4.4688a0.51873 0.51873 0 0 0-0.40625 0.84375l11 13.75a0.51873 0.51873 0 0 0 0.8125 0l11-13.75a0.51873 0.51873 0 0 0-0.40625-0.84375h-4.4688v-13.219a0.51873 0.51873 0 0 0-0.53125-0.53125h-12a0.51873 0.51873 0 0 0-0.0625 0z" fill="url(#linearGradient3886)" opacity=".15"/>
   <path id="path3867" d="m62 60.5v13.75h-5l11 13.75 11-13.75h-5v-13.75z" fill="url(#linearGradient3871)"/>
   <g id="g4106">
    <path id="path3846" d="m68 56c-9.9411 0-18 8.0589-18 18 0 3.6617 1.0907 7.064 2.9688 9.9062-1.2466-2.3645-1.9688-5.0475-1.9688-7.9062 0-9.3888 7.6112-17 17-17s17 7.6112 17 17c0 2.8588-0.72212 5.5418-1.9688 7.9062 1.8781-2.8423 2.9688-6.2446 2.9688-9.9062 0-9.9411-8.0589-18-18-18z" fill="url(#linearGradient3857-6)" opacity=".3"/>
    <path id="path4097" d="m68 56c-9.9411 0-18 8.0589-18 18 0 0.16859 0.02664 0.33252 0.03125 0.5 0.26696-9.708 8.1962-17.5 17.969-17.5 9.7305 0 17.637 7.7253 17.969 17.375v-1c-0.33152-9.6497-8.2382-17.375-17.969-17.375z" fill="#fff" opacity=".3"/>
   </g>
  </g>
 </g>
</svg>
