<?xml version="1.0" encoding="UTF-8"?>
<svg id="svg77" width="96" height="96" version="1.1" xmlns="http://www.w3.org/2000/svg" xmlns:cc="http://creativecommons.org/ns#" xmlns:dc="http://purl.org/dc/elements/1.1/" xmlns:rdf="http://www.w3.org/1999/02/22-rdf-syntax-ns#" xmlns:xlink="http://www.w3.org/1999/xlink">
 <metadata id="metadata129">
  <rdf:RDF>
   <cc:Work rdf:about="">
    <dc:format>image/svg+xml</dc:format>
    <dc:type rdf:resource="http://purl.org/dc/dcmitype/StillImage"/>
   </cc:Work>
  </rdf:RDF>
 </metadata>
 <defs id="defs49">
  <linearGradient id="ButtonShadow" x1="45.448" x2="45.448" y1="92.54" y2="7.0165" gradientTransform="scale(1.0059 .99417)" gradientUnits="userSpaceOnUse">
   <stop id="stop7" offset="0"/>
   <stop id="stop9" stop-opacity=".58824" offset="1"/>
  </linearGradient>
  <filter id="filter3174">
   <feGaussianBlur id="feGaussianBlur12" stdDeviation="1.71"/>
  </filter>
  <filter id="filter3794" x="-.192" y="-.192" width="1.384" height="1.384">
   <feGaussianBlur id="feGaussianBlur15" stdDeviation="5.28"/>
  </filter>
  <linearGradient id="linearGradient3613" x1="48" x2="48" y1="20.221" y2="138.66" gradientUnits="userSpaceOnUse">
   <stop id="stop18" stop-color="#fff" offset="0"/>
   <stop id="stop20" stop-color="#fff" stop-opacity="0" offset="1"/>
  </linearGradient>
  <linearGradient id="linearGradient3617" x1="48" x2="48" y1="90" y2="5.9877" gradientUnits="userSpaceOnUse">
   <stop id="stop23" stop-color="#E01818" offset="0"/>
   <stop id="stop25" stop-color="#FF7F7F" offset="1"/>
  </linearGradient>
  <linearGradient id="ButtonShadow-0" x1="45.448" x2="45.448" y1="92.54" y2="7.0165" gradientTransform="matrix(1.0059 0 0 .99417 100 0)" gradientUnits="userSpaceOnUse">
   <stop id="stop28" offset="0"/>
   <stop id="stop30" stop-opacity=".58824" offset="1"/>
  </linearGradient>
  <linearGradient id="linearGradient3780" x1="32.251" x2="32.251" y1="6.1317" y2="90.239" gradientTransform="matrix(1.0238 0 0 1.0119 -1.1429 -98.071)" gradientUnits="userSpaceOnUse" xlink:href="#ButtonShadow-0"/>
  <linearGradient id="linearGradient3721" x1="32.251" x2="32.251" y1="6.1317" y2="90.239" gradientTransform="translate(0,-97)" gradientUnits="userSpaceOnUse" xlink:href="#ButtonShadow-0"/>
  <clipPath id="clipPath4355">
   <rect id="rect35" x="6" y="6" width="84" height="84" rx="6" ry="6" fill="#fff"/>
  </clipPath>
  <linearGradient id="linearGradient4390" x1="48" x2="48" y1="88" y2="-40" gradientTransform="matrix(1,0,0,-1,0,92)" gradientUnits="userSpaceOnUse">
   <stop id="stop2" stop-color="#fff" offset="0"/>
   <stop id="stop4" stop-color="#fff" stop-opacity="0" offset="1"/>
  </linearGradient>
 </defs>
 <g id="g53" display="none">
  <rect id="rect51" x="5" y="7" width="86" height="85" rx="6" ry="6" fill="url(#ButtonShadow)" filter="url(#filter3174)" opacity=".9"/>
 </g>
 <g id="g67">
  <g id="g63" fill="url(#linearGradient3780)">
   <path id="path55" transform="scale(1,-1)" d="m12-95.031c-5.5111 0-10.031 4.5202-10.031 10.031v71c0 5.5111 4.5202 10.031 10.031 10.031h72c5.5111 0 10.031-4.5202 10.031-10.031v-71c0-5.5111-4.5202-10.031-10.031-10.031h-72z" opacity=".08"/>
   <path id="path57" transform="scale(1,-1)" d="m12-94.031c-4.9716 0-9.0312 4.0596-9.0312 9.0312v71c0 4.9716 4.0596 9.0312 9.0312 9.0312h72c4.9716 0 9.0312-4.0596 9.0312-9.0312v-71c0-4.9716-4.0596-9.0312-9.0312-9.0312h-72z" opacity=".1"/>
   <path id="path59" transform="scale(1,-1)" d="m12-93c-4.4091 0-8 3.5909-8 8v71c0 4.4091 3.5909 8 8 8h72c4.4091 0 8-3.5909 8-8v-71c0-4.4091-3.5909-8-8-8h-72z" opacity=".2"/>
   <rect id="rect61" transform="scale(1,-1)" x="5" y="-92" width="86" height="85" rx="7" ry="7" opacity=".3"/>
  </g>
  <rect id="rect65" transform="scale(1,-1)" x="6" y="-91" width="84" height="84" rx="6" ry="6" fill="url(#linearGradient3721)" opacity=".45"/>
 </g>
 <g id="g87">
  <rect id="rect81" x="6" y="6" width="84" height="84" rx="6" ry="6" fill="url(#linearGradient3617)"/>
  <path id="path83" d="m12 6c-3.324 0-6 2.676-6 6v72c0 3.324 2.676 6 6 6h72c3.324 0 6-2.676 6-6v-72c0-3.324-2.676-6-6-6zm0 2h72c2.805 0 5 2.195 5 5v70c0 2.805-2.195 5-5 5h-72c-2.805 0-5-2.195-5-5v-70c0-2.805 2.195-5 5-5z" fill="url(#linearGradient4390)" opacity=".3"/>
 </g>
 <g id="g91">
  <rect id="rect89" x="15" y="15" width="66" height="66" rx="12" ry="12" clip-path="url(#clipPath4355)" fill="url(#linearGradient3613)" filter="url(#filter3794)" opacity=".1" stroke="#fff" stroke-linecap="round" stroke-width=".5"/>
 </g>
 <defs id="defs101">
  <linearGradient id="a" x1="8" x2="8" y1=".99968" y2="15.001" gradientUnits="userSpaceOnUse">
   <stop id="stop96" stop-color="#fafafa" offset="0"/>
   <stop id="stop98" stop-color="#ebebeb" offset="1"/>
  </linearGradient>
 </defs>
 <g id="g123">
  <path id="path103" transform="matrix(4,0,0,4,16,17)" d="m5.8301 0.75c-0.11276-0.0052879-0.23087 0.012914-0.33008 0.072266-0.098313 0.058815-0.16017 0.14549-0.20312 0.22461-0.14083 0.2531-0.091266 0.54662 0.041016 0.93359a0.25002 0.25002 0 0 0 0 0.00195c0.19418 0.55989 0.30377 1.0808 0.38477 1.8574a0.25002 0.25002 0 0 0 0 0.00195c0.043911 0.40594 0.043928 2.6417-0.0039062 3.1816-0.17981 2.0676-0.62151 3.5416-1.4199 4.7832-0.69435 1.0808-1.8018 2.0751-3.1426 2.8066a0.25002 0.25002 0 0 0-0.00195 0c-0.075065 0.04167-0.14369 0.08103-0.19531 0.11133-0.025809 0.01515-0.047069 0.02656-0.066406 0.03906-0.009669 0.0062-0.017879 0.01322-0.03125 0.02344-9.7834e-4 7.48e-4 -0.002874 0.0031-0.003906 0.0039l-0.007813 0.0059c-0.004986 4e-3 -0.00882 0.0049-0.017578 0.01367-4.1854e-4 4.18e-4 -0.001439 0.0014-0.001953 2e-3a0.25002 0.25002 0 0 0-0.080081 0.18352c0 2.46e-4 0.023332 0.10524 0.023438 0.10547 1.0497e-4 2.27e-4 0.050571 0.07401 0.050781 0.07422 2.1045e-4 2.08e-4 0.048512 0.03692 0.048828 0.03711 3.1642e-4 1.88e-4 0.026903 0.01349 0.037109 0.01758 0.040825 0.01634 0.05882 0.01593 0.074219 0.01758 0.030798 0.0033 0.046476 0.0027 0.066406 2e-3 0.03986-0.0015 0.085933-0.0051 0.14648-0.01172 0.1211-0.0133 0.29843-0.03682 0.54688-0.07226a0.25002 0.25002 0 0 0 0.00195 0c1.2713-0.18579 2.2476-0.54493 3.043-1.1289 0.40162-0.29249 0.96841-0.91198 1.2383-1.3438 0.34455-0.55406 0.61359-1.2775 0.79297-2.0371l0.082031 0.11914c0.99708 1.4303 1.7675 2.412 2.457 3.0762 0.68954 0.6642 1.3107 1.0144 1.9688 1.1387 0.4357 0.08324 1.2723 0.06241 2.0742 0.0098 0.40098-0.02632 0.7844-0.06403 1.0859-0.10742 0.15077-0.0217 0.27991-0.04365 0.38672-0.07031 0.0534-0.01333 0.10225-0.02845 0.14844-0.04687 0.04397-0.01754 0.08731-0.03468 0.14453-0.09375 0.08775-0.09003 0.08788-0.2329 0.06445-0.29883-0.02372-0.06675-0.05419-0.10329-0.08594-0.13867-0.0635-0.07077-0.13835-0.12539-0.23047-0.16992a0.25002 0.25002 0 0 0-0.0078-0.0039c-0.08067-0.03577-0.37976-0.15658-0.70898-0.2832-0.7316-0.2829-1.0237-0.41771-1.5605-0.71094-0.85339-0.46434-1.3381-0.8202-2.0645-1.5079-0.51093-0.484-1.0398-1.1486-1.9727-2.4883-0.38355-0.55485-0.59742-0.85186-0.97852-1.3633l-0.089844-0.12305 0.017578-0.85938c0.038233-1.7423 0.18791-2.9751 0.49805-4.123 0.091435-0.34118 0.14075-0.52477 0.16211-0.66602 0.010678-0.070624 0.015968-0.13492 0.0019531-0.20703-0.013885-0.07145-0.053494-0.13722-0.080078-0.17383-0.07201-0.10036-0.18435-0.1603-0.37109-0.23242-0.18859-0.072839-0.48966-0.1751-1.0176-0.34961-0.43208-0.14148-0.68855-0.22185-0.91406-0.23242zm5.0684 2.3711c-0.127-0.016122-0.29046 0.030912-0.38281 0.14258a0.25002 0.25002 0 0 0-0.0039 0.00586c-0.05436 0.069526-0.04899 0.084013-0.0625 0.11914-0.01351 0.035127-0.02664 0.075506-0.04102 0.12109-0.02874 0.091175-0.05918 0.20408-0.08789 0.32227a0.25002 0.25002 0 0 0-2e-3 0.00195c-0.148 0.62812-0.09584 0.53276-0.66016 1.1582-0.41415 0.46001-1.0722 1.2261-1.6367 1.9023a0.25002 0.25002 0 0 0-0.023437 0.03125c-0.00832 0.010089-0.017624 0.020904-0.025391 0.03125-0.016594 0.022106-0.036672 0.035101-0.058594 0.10742-0.00548 0.01808-0.011706 0.07299-0.011719 0.074219-1.25e-5 0.00123 0.028846 0.11827 0.029297 0.11914 4.509e-4 8.705e-4 0.096754 0.10298 0.097656 0.10352 4.513e-4 2.667e-4 0.048266 0.021298 0.048828 0.021484 5.621e-4 1.863e-4 0.029122 0.00784 0.041016 0.00977 0.095152 0.015385 0.11156-0.00326 0.13477-0.00977 0.81919-0.23639 1.1128-0.36301 2.3887-1.0547a0.25002 0.25002 0 0 0 0-0.00195c1.0915-0.59318 1.36-0.71989 1.6934-0.83008 0.19403-0.063978 0.31534-0.10555 0.42187-0.16797 0.05327-0.031207 0.10732-0.071059 0.15039-0.13477 0.04307-0.063707 0.0625-0.14738 0.0625-0.20703 0-0.17459-0.09438-0.28124-0.20117-0.39844a0.25002 0.25002 0 0 0-0.0059-0.00586c-0.22196-0.22783-1.2459-1.1075-1.5254-1.3125a0.25002 0.25002 0 0 0-2e-3 -0.00195c-0.10431-0.075424-0.2108-0.13037-0.3378-0.14649zm-8.4219 0.63281c-0.13197-0.0087669-0.26223 0.0055201-0.38086 0.064453-0.11863 0.058933-0.21532 0.16703-0.26367 0.29102a0.25002 0.25002 0 0 0 0 0.00195c-0.12412 0.31839-0.034434 0.6683 0.1875 1.1738a0.25002 0.25002 0 0 0 0 0.00195c0.45632 1.0291 1.0489 1.826 1.6953 2.1172a0.25002 0.25002 0 0 0 0.00195 0 0.25002 0.25002 0 0 0 0.095703 0.021484c0.00184 6.118e-4 0.00401-6e-4 0.00586 0 0.21405 0.069599 0.44004 0.076868 0.62891-0.023437 0.38293-0.20126 0.54043-0.66358 0.57032-1.2148 0.019373-0.37363-0.042135-0.64807-0.21289-0.94141a0.25002 0.25002 0 0 0-0.00195-0.00195c-0.24915-0.4244-0.77934-0.83499-1.4316-1.1836-0.34017-0.18163-0.6306-0.28911-0.89453-0.30664z" opacity=".15"/>
  <g id="Bevel1"></g>
  <g id="Bevel2"></g>
  <path id="base" transform="translate(16,16) scale(4)" d="m5.5156 1.168c-0.086309 0.15511-0.066786 0.36564 0.058594 0.73242 0.2006 0.5784 0.31426 1.1257 0.39648 1.9141 0.052486 0.4852 0.05053 2.638-0.0019531 3.2305-0.182 2.0928-0.63441 3.6142-1.459 4.8965-0.7219 1.1237-1.8611 2.1413-3.2344 2.8906-0.14812 0.08222-0.26758 0.1512-0.26758 0.1582l-0.0078125 0.00586c0 0.01575 0.21447-0.007565 0.70898-0.078125 1.245-0.18195 2.1773-0.52632 2.9336-1.082 0.34753-0.2531 0.93278-0.89287 1.1719-1.2754 0.35105-0.5645 0.64164-1.331 0.8125-2.1328l0.078125-0.37109 0.40234 0.57617c1.9862 2.8491 3.0605 3.8833 4.2676 4.1113 0.7173 0.13704 3.4393-0.042729 3.6172-0.23633 0.03907-0.03849-0.062507-0.1495-0.18555-0.20898-0.05656-0.02508-0.37129-0.15393-0.69727-0.2793-0.73589-0.28456-1.0475-0.42839-1.5898-0.72461-0.866-0.4711-1.3813-0.8481-2.1172-1.5449-0.5313-0.5033-1.0699-1.1832-2.0059-2.5273-0.38254-0.55338-0.5944-0.84719-0.97461-1.3574l-0.14062-0.19141 0.019531-0.94531c0.03849-1.754 0.18921-3.0095 0.50586-4.1816 0.18253-0.68108 0.19323-0.74264 0.125-0.83594-0.0595-0.08455-0.21072-0.14153-1.2656-0.49023-0.85659-0.28048-1.0227-0.28948-1.1504-0.052734zm5.1934 2.2559c-0.02508 0.03208-0.091664 0.24113-0.14648 0.4668-0.14812 0.62864-0.15368 0.64326-0.71875 1.2695-0.41 0.4554-1.0681 1.2205-1.6309 1.8945h0.0019532c-0.075225 0.086304-0.077115 0.1013-0.029297 0.087891 0.8123-0.23442 1.0643-0.34475 2.3379-1.0352 1.0934-0.5942 1.3833-0.73357 1.7344-0.84961 0.38022-0.12537 0.46289-0.17352 0.46289-0.27148 0-0.05948-0.041079-0.12551-0.13672-0.23047-0.1551-0.1592-1.2708-1.1213-1.4941-1.2852-0.16386-0.11837-0.30563-0.13784-0.38086-0.046875zm-8.6445 0.77734c-0.08456 0.21692-0.030416 0.4969 0.18359 0.98438 0.4414 0.99542 1.0397 1.7512 1.5703 1.9902h0.0019531c0.19827 0.089219 0.35057 0.090411 0.50977 0.0058594 0.25075-0.13179 0.41009-0.50225 0.4375-1.0078 0.01808-0.3487-0.024568-0.53625-0.17969-0.80273-0.2006-0.3417-0.70768-0.75513-1.334-1.0898-0.64434-0.34404-1.0757-0.37164-1.1895-0.080078z" fill="url(#a)"/>
  <path id="path113" transform="translate(0,2)" d="m37.912 20.104c-0.13228 0.57776-0.011442 1.339 0.38477 2.498 0.8024 2.3136 1.257 4.5028 1.5859 7.6562 0.097629 0.90251 0.14342 3.2805 0.14844 5.7695 0.008796-2.8551-0.037116-5.7404-0.14844-6.7695-0.3289-3.1535-0.78354-5.3426-1.5859-7.6562-0.20565-0.60159-0.3215-1.0788-0.38477-1.498zm9.8711 1.8574c-0.093311 0.4633-0.25533 1.1023-0.55664 2.2266-1.2666 4.6884-1.8695 9.7106-2.0234 16.727l-0.078125 3.7812 0.019531 0.027344 0.058594-2.8086c0.15396-7.016 0.75684-12.038 2.0234-16.727 0.65779-2.4545 0.74289-2.89 0.55664-3.2266zm-23.631 10.219c-0.15872 0.81761 0.10154 1.8808 0.83984 3.5625 1.7656 3.9817 4.1586 7.0046 6.2812 7.9609h0.007812c0.79308 0.35688 1.4023 0.36164 2.0391 0.023437 1.003-0.52716 1.6404-2.009 1.75-4.0312 0.019241-0.37109 0.019045-0.69231 0-0.99023-0.11119 2.0171-0.74866 3.4952-1.75 4.0215-0.6368 0.3382-1.246 0.33344-2.0391-0.023437h-0.007812c-2.1226-0.95632-4.5157-3.9793-6.2812-7.9609-0.47266-1.0766-0.74284-1.8947-0.83984-2.5625zm42.459 2.1953c-0.25073 0.18084-0.70489 0.36768-1.5801 0.65625-1.4042 0.46416-2.5639 1.0216-6.9375 3.3984-4.5571 2.4704-5.9124 3.0921-8.459 3.8652-0.26021 0.30941-0.53066 0.62132-0.7832 0.92383h0.007813c-0.3009 0.34522-0.30846 0.40521-0.11719 0.35156 3.2492-0.93768 4.2572-1.379 9.3516-4.1406 4.3736-2.3768 5.5333-2.9343 6.9375-3.3984 1.5209-0.50148 1.8516-0.69408 1.8516-1.0859 0-0.15901-0.1086-0.34924-0.27148-0.57031zm-23.791 19.852-0.3125 1.4844c-0.68344 3.2071-1.8458 6.2732-3.25 8.5312-0.95636 1.5301-3.2974 4.0892-4.6875 5.1016-3.0254 2.2228-6.7544 3.6003-11.734 4.3281-0.36035 0.051396-0.49952 0.064451-0.78711 0.10352-0.31646 0.18358-0.62417 0.37645-0.94727 0.55273-0.59248 0.32888-1.0703 0.60481-1.0703 0.63281l-0.03125 0.023437c0 0.063 0.8579-0.03038 2.8359-0.3125 4.98-0.7278 8.709-2.1053 11.734-4.3281 1.3901-1.0124 3.7311-3.5715 4.6875-5.1016 1.4042-2.258 2.5666-5.3241 3.25-8.5312l0.3125-1.4844 1.6094 2.3047c7.9448 11.396 12.242 15.533 17.07 16.445 2.8692 0.54816 13.757-0.17092 14.469-0.94531 0.13992-0.13784-0.1778-0.50126-0.59766-0.74805-2.429 0.6654-11.317 1.1813-13.871 0.69336-4.8284-0.912-9.1255-5.0489-17.07-16.445l-1.6094-2.3047z" opacity=".3" stroke-width="4"/>
  <path id="path118" transform="translate(0,2)" d="m39.27 18.002c-0.65824-0.030869-0.95161 0.19642-1.207 0.66992-0.20367 0.36603-0.24141 0.82849-0.15039 1.4316 0.035162-0.15357 0.077897-0.30136 0.15039-0.43164 0.51084-0.947 1.1752-0.91098 4.6016 0.21094 4.2196 1.3948 4.8245 1.6227 5.0625 1.9609 0.027033 0.036966 0.036165 0.080181 0.056641 0.11719 0.13279-0.65932 0.10364-0.89801-0.056641-1.1172-0.238-0.3382-0.8429-0.56614-5.0625-1.9609-1.7132-0.56096-2.7363-0.84999-3.3945-0.88086zm20.195 9.4727c-0.26132-0.033171-0.47845 0.038771-0.62891 0.2207-0.10032 0.12832-0.36664 0.96451-0.58594 1.8672-0.59248 2.5146-0.61472 2.573-2.875 5.0781-1.64 1.8216-4.2725 4.8818-6.5234 7.5781h0.007813c-0.3009 0.34522-0.30846 0.40521-0.11719 0.35156 0.34269-0.098897 0.59232-0.18423 0.89258-0.27539 2.0591-2.4484 4.2842-5.0371 5.7402-6.6543 2.2603-2.5051 2.2825-2.5636 2.875-5.0781 0.2193-0.90268 0.48562-1.7389 0.58594-1.8672 0.30092-0.36386 0.868-0.28599 1.5234 0.1875 0.89336 0.65544 5.3562 4.5038 5.9766 5.1406 0.12688 0.13925 0.19455 0.24185 0.27539 0.35156 0.18498-0.13342 0.27148-0.26332 0.27148-0.42969 0-0.23792-0.16432-0.50204-0.54687-0.92187-0.6204-0.6368-5.0832-4.4852-5.9766-5.1406-0.32772-0.23675-0.63322-0.37503-0.89453-0.4082zm-33.625 2.5371c-0.81043-0.05384-1.3546 0.20985-1.582 0.79297-0.15148 0.38859-0.18415 0.83333-0.10547 1.375 0.02531-0.13038 0.05895-0.25567 0.10547-0.375 0.45484-1.1662 2.1805-1.0558 4.7578 0.32031 2.5052 1.3388 4.5335 2.9926 5.3359 4.3594 0.4554 0.78233 0.66621 1.3988 0.71875 2.2207 1.85e-4 -0.00334-1.81e-4 -0.006423 0-0.009766 0.07232-1.3948-0.098269-2.145-0.71875-3.2109-0.80239-1.3668-2.8307-3.0205-5.3359-4.3594-1.2887-0.68807-2.3654-1.0594-3.1758-1.1133zm14.191 6.0156c-0.007793 2.5294-0.057638 5.0391-0.15625 6.1523-0.728 8.3712-2.5377 14.457-5.8359 19.586-2.8876 4.4948-7.4443 8.5653-12.938 11.562-0.59248 0.32888-1.0703 0.60481-1.0703 0.63281l-0.03125 0.023437c0 0.051523 0.7578-0.033617 2.0488-0.20898 5.064-2.9376 9.2725-6.7793 11.99-11.01 3.2983-5.1292 5.1079-11.215 5.8359-19.586 0.1123-1.2678 0.16203-4.2889 0.15625-7.1523zm5.1133 8.6953-0.019531 0.97266 0.5625 0.76563c1.5208 2.0409 2.3683 3.2162 3.8984 5.4297 3.7438 5.3764 5.8982 8.0962 8.0234 10.109 2.9437 2.7873 5.0048 4.2953 8.4688 6.1797 2.1693 1.1849 3.4158 1.7602 6.3594 2.8984 1.3039 0.50148 2.5628 1.0169 2.7891 1.1172 0.051521 0.024907 0.095439 0.059035 0.14453 0.087891 0.30001-0.082185 0.51944-0.16682 0.59766-0.25195 0.15628-0.15396-0.25004-0.59802-0.74219-0.83594-0.22624-0.10032-1.4851-0.61571-2.7891-1.1172-2.9436-1.1382-4.1901-1.7136-6.3594-2.8984-3.464-1.8844-5.525-3.3924-8.4688-6.1797-2.1252-2.0132-4.2796-4.733-8.0234-10.109-1.5302-2.2135-2.3776-3.3888-3.8984-5.4297l-0.54297-0.73828z" fill="#fff" stroke-width="4"/>
 </g>
</svg>
