<?xml version="1.0" encoding="UTF-8"?>
<!-- Created with Inkscape (http://www.inkscape.org/) -->
<svg id="svg2408" width="96" height="96" version="1.0" xmlns="http://www.w3.org/2000/svg" xmlns:cc="http://creativecommons.org/ns#" xmlns:dc="http://purl.org/dc/elements/1.1/" xmlns:rdf="http://www.w3.org/1999/02/22-rdf-syntax-ns#" xmlns:xlink="http://www.w3.org/1999/xlink">
 <defs id="defs2410">
  <linearGradient id="ButtonShadow" x1="45.448" x2="45.448" y1="92.54" y2="7.0165" gradientTransform="scale(1.0059 .99417)" gradientUnits="userSpaceOnUse">
   <stop id="stop3750" offset="0"/>
   <stop id="stop3752" stop-opacity=".58824" offset="1"/>
  </linearGradient>
  <linearGradient id="linearGradient3737">
   <stop id="stop3739" stop-color="#fff" offset="0"/>
   <stop id="stop3741" stop-color="#fff" stop-opacity="0" offset="1"/>
  </linearGradient>
  <filter id="filter3174" color-interpolation-filters="sRGB">
   <feGaussianBlur id="feGaussianBlur3176" stdDeviation="1.71"/>
  </filter>
  <linearGradient id="linearGradient3188" x1="36.357" x2="36.357" y1="6" y2="63.893" gradientUnits="userSpaceOnUse" xlink:href="#linearGradient3737"/>
  <filter id="filter3794" x="-.192" y="-.192" width="1.384" height="1.384" color-interpolation-filters="sRGB">
   <feGaussianBlur id="feGaussianBlur3796" stdDeviation="5.28"/>
  </filter>
  <linearGradient id="linearGradient3613" x1="48" x2="48" y1="20.221" y2="138.66" gradientUnits="userSpaceOnUse" xlink:href="#linearGradient3737"/>
  <radialGradient id="radialGradient3619" cx="48" cy="90.172" r="42" gradientTransform="matrix(1.1573 0 0 .99591 -7.551 .19713)" gradientUnits="userSpaceOnUse" xlink:href="#linearGradient3737"/>
  <clipPath id="clipPath3613">
   <rect id="rect3615" x="6" y="6" width="84" height="84" rx="6" ry="6" fill="#fff"/>
  </clipPath>
  <linearGradient id="linearGradient3617" x1="48" x2="48" y1="90" y2="5.9877" gradientUnits="userSpaceOnUse">
   <stop id="stop3824" stop-color="#e6e6e6" offset="0"/>
   <stop id="stop3826" stop-color="#f5f5f5" offset="1"/>
  </linearGradient>
  <linearGradient id="ButtonShadow-0" x1="45.448" x2="45.448" y1="92.54" y2="7.0165" gradientTransform="matrix(1.0059 0 0 .99417 100 0)" gradientUnits="userSpaceOnUse">
   <stop id="stop3750-8" offset="0"/>
   <stop id="stop3752-5" stop-opacity=".58824" offset="1"/>
  </linearGradient>
  <linearGradient id="linearGradient3780" x1="32.251" x2="32.251" y1="6.1317" y2="90.239" gradientTransform="matrix(1.0238 0 0 1.0119 -1.1429 -98.071)" gradientUnits="userSpaceOnUse" xlink:href="#ButtonShadow-0"/>
  <linearGradient id="linearGradient3721" x1="32.251" x2="32.251" y1="6.1317" y2="90.239" gradientTransform="translate(0,-97)" gradientUnits="userSpaceOnUse" xlink:href="#ButtonShadow-0"/>
  <linearGradient id="linearGradient3067" x1="47.973" x2="47.973" y1="79.776" y2="16.436" gradientUnits="userSpaceOnUse">
   <stop id="stop3702" stop-color="#f05517" offset="0"/>
   <stop id="stop3704" stop-color="#f37340" offset="1"/>
  </linearGradient>
 </defs>
 <metadata id="metadata2413">
  <rdf:RDF>
   <cc:Work rdf:about="">
    <dc:format>image/svg+xml</dc:format>
    <dc:type rdf:resource="http://purl.org/dc/dcmitype/StillImage"/>
    <dc:title/>
   </cc:Work>
  </rdf:RDF>
 </metadata>
 <g id="layer2" display="none">
  <rect id="rect3745" x="5" y="7" width="86" height="85" rx="6" ry="6" fill="url(#ButtonShadow)" filter="url(#filter3174)" opacity=".9"/>
 </g>
 <g id="layer3">
  <path id="path3786" transform="scale(1,-1)" d="m12-95.031c-5.5111 0-10.031 4.5202-10.031 10.031v71c0 5.5111 4.5202 10.031 10.031 10.031h72c5.5111 0 10.031-4.5202 10.031-10.031v-71c0-5.5111-4.5202-10.031-10.031-10.031h-72z" fill="url(#linearGradient3780)" opacity=".08"/>
  <path id="path3778" transform="scale(1,-1)" d="m12-94.031c-4.9716 0-9.0312 4.0596-9.0312 9.0312v71c0 4.9716 4.0596 9.0312 9.0312 9.0312h72c4.9716 0 9.0312-4.0596 9.0312-9.0312v-71c0-4.9716-4.0596-9.0312-9.0312-9.0312h-72z" fill="url(#linearGradient3780)" opacity=".1"/>
  <path id="path3770" transform="scale(1,-1)" d="m12-93c-4.4091 0-8 3.5909-8 8v71c0 4.4091 3.5909 8 8 8h72c4.4091 0 8-3.5909 8-8v-71c0-4.4091-3.5909-8-8-8h-72z" fill="url(#linearGradient3780)" opacity=".2"/>
  <rect id="rect3723" transform="scale(1,-1)" x="5" y="-92" width="86" height="85" rx="7" ry="7" fill="url(#linearGradient3780)" opacity=".3"/>
  <rect id="rect3716" transform="scale(1,-1)" x="6" y="-91" width="84" height="84" rx="6" ry="6" fill="url(#linearGradient3721)" opacity=".45"/>
 </g>
 <g id="layer1">
  <rect id="rect2419" x="6" y="6" width="84" height="84" rx="6" ry="6" fill="url(#linearGradient3617)"/>
  <path id="rect3728" d="m12 6c-3.324 0-6 2.676-6 6v2 68 2c0 0.33472 0.04135 0.6507 0.09375 0.96875 0.0487 0.2956 0.09704 0.59692 0.1875 0.875 0.00988 0.03038 0.020892 0.0636 0.03125 0.09375 0.098865 0.28777 0.23488 0.54745 0.375 0.8125 0.14459 0.27351 0.31562 0.53562 0.5 0.78125s0.37378 0.47347 0.59375 0.6875c0.43995 0.42806 0.94291 0.81453 1.5 1.0938 0.27854 0.13961 0.57347 0.24695 0.875 0.34375-0.2562-0.10022-0.48671-0.23627-0.71875-0.375-0.00741-0.0044-0.023866 0.0045-0.03125 0-0.031933-0.0193-0.062293-0.04251-0.09375-0.0625-0.1204-0.0767-0.23102-0.16351-0.34375-0.25-0.10617-0.0808-0.21328-0.16111-0.3125-0.25-0.17793-0.16143-0.34746-0.34539-0.5-0.53125-0.10758-0.13026-0.21839-0.26528-0.3125-0.40625-0.025089-0.03838-0.038446-0.08587-0.0625-0.125-0.064763-0.10303-0.13023-0.20452-0.1875-0.3125-0.10101-0.19471-0.20567-0.4157-0.28125-0.625-0.00796-0.02181-0.023589-0.04055-0.03125-0.0625-0.031825-0.09195-0.035804-0.18683-0.0625-0.28125-0.030332-0.10662-0.070389-0.20303-0.09375-0.3125-0.072879-0.34151-0.125-0.6982-0.125-1.0625v-2-68-2c0-2.7818 2.2182-5 5-5h2 68 2c2.7818 0 5 2.2182 5 5v2 68 2c0 0.3643-0.05212 0.72099-0.125 1.0625-0.04415 0.20689-0.08838 0.39766-0.15625 0.59375-0.0077 0.02195-0.0233 0.04069-0.03125 0.0625-0.06274 0.17374-0.13838 0.36745-0.21875 0.53125-0.04158 0.0828-0.07904 0.16995-0.125 0.25-0.0546 0.09721-0.12677 0.18835-0.1875 0.28125-0.09411 0.14096-0.20492 0.276-0.3125 0.40625-0.14317 0.17445-0.30314 0.347-0.46875 0.5-0.01117 0.0102-0.01998 0.02115-0.03125 0.03125-0.13839 0.12556-0.28509 0.23444-0.4375 0.34375-0.10257 0.07315-0.20432 0.15336-0.3125 0.21875-0.0074 0.0045-0.02384-0.0044-0.03125 0-0.23204 0.13873-0.46255 0.27478-0.71875 0.375 0.30153-0.0968 0.59646-0.20414 0.875-0.34375 0.55709-0.27922 1.0601-0.66569 1.5-1.0938 0.21997-0.21403 0.40937-0.44186 0.59375-0.6875s0.35541-0.50774 0.5-0.78125c0.14012-0.26505 0.27614-0.52473 0.375-0.8125 0.01041-0.03078 0.02133-0.06274 0.03125-0.09375 0.09046-0.27808 0.1388-0.5794 0.1875-0.875 0.0524-0.31805 0.09375-0.63403 0.09375-0.96875v-2-68-2c0-3.324-2.676-6-6-6h-72z" fill="url(#linearGradient3188)" opacity=".7"/>
  <path id="path3615" d="m12 90c-3.324 0-6-2.676-6-6v-2-68-2c0-0.33472 0.04135-0.6507 0.09375-0.96875 0.0487-0.2956 0.09704-0.59692 0.1875-0.875 0.00988-0.03038 0.020892-0.0636 0.03125-0.09375 0.098865-0.28777 0.23488-0.54745 0.375-0.8125 0.14459-0.27351 0.31562-0.53562 0.5-0.78125s0.37378-0.47347 0.59375-0.6875c0.43995-0.42806 0.94291-0.81453 1.5-1.0938 0.27854-0.13961 0.57347-0.24695 0.875-0.34375-0.2562 0.10022-0.48671 0.23627-0.71875 0.375-0.00741 0.0044-0.023866-0.0045-0.03125 0-0.031933 0.0193-0.062293 0.04251-0.09375 0.0625-0.1204 0.0767-0.23102 0.16351-0.34375 0.25-0.10617 0.0808-0.21328 0.16111-0.3125 0.25-0.17793 0.16143-0.34746 0.34539-0.5 0.53125-0.10758 0.13026-0.21839 0.26528-0.3125 0.40625-0.025089 0.03838-0.038446 0.08587-0.0625 0.125-0.064763 0.10303-0.13023 0.20452-0.1875 0.3125-0.10101 0.19471-0.20567 0.4157-0.28125 0.625-0.00796 0.02181-0.023589 0.04055-0.03125 0.0625-0.031825 0.09195-0.035804 0.18683-0.0625 0.28125-0.030332 0.10662-0.070389 0.20303-0.09375 0.3125-0.072879 0.34151-0.125 0.6982-0.125 1.0625v2 68 2c0 2.7818 2.2182 5 5 5h2 68 2c2.7818 0 5-2.2182 5-5v-2-68-2c0-0.3643-0.05212-0.72099-0.125-1.0625-0.04415-0.20689-0.08838-0.39766-0.15625-0.59375-0.0077-0.02195-0.0233-0.04069-0.03125-0.0625-0.06274-0.17374-0.13838-0.36745-0.21875-0.53125-0.04158-0.0828-0.07904-0.16995-0.125-0.25-0.0546-0.09721-0.12677-0.18835-0.1875-0.28125-0.09411-0.14096-0.20492-0.276-0.3125-0.40625-0.14317-0.17445-0.30314-0.347-0.46875-0.5-0.01117-0.0102-0.01998-0.02115-0.03125-0.03125-0.13839-0.12556-0.28509-0.23444-0.4375-0.34375-0.10257-0.07315-0.20432-0.15336-0.3125-0.21875-0.0074-0.0045-0.02384 0.0044-0.03125 0-0.23204-0.13873-0.46255-0.27478-0.71875-0.375 0.30153 0.0968 0.59646 0.20414 0.875 0.34375 0.55709 0.27922 1.0601 0.66569 1.5 1.0938 0.21997 0.21403 0.40937 0.44186 0.59375 0.6875s0.35541 0.50774 0.5 0.78125c0.14012 0.26505 0.27614 0.52473 0.375 0.8125 0.01041 0.03078 0.02133 0.06274 0.03125 0.09375 0.09046 0.27808 0.1388 0.5794 0.1875 0.875 0.0524 0.31805 0.09375 0.63403 0.09375 0.96875v2 68 2c0 3.324-2.676 6-6 6h-72z" fill="url(#radialGradient3619)" opacity=".4"/>
 </g>
 <g id="layer5" display="none">
  <rect id="rect3171" x="15" y="15" width="66" height="66" rx="12" ry="12" clip-path="url(#clipPath3613)" fill="url(#linearGradient3613)" filter="url(#filter3794)" opacity=".1" stroke="#fff" stroke-linecap="round" stroke-width=".5"/>
 </g>
 <g id="layer4">
  <path id="path3050" d="m48 16c-17.673 0-32 14.103-32 31.5s14.327 31.5 32 31.5c5.4234 0 10.524-1.3437 15-3.6875l12 3.6875-2.9375-10.75c4.9357-5.5427 7.9375-12.8 7.9375-20.75 0-17.397-14.327-31.5-32-31.5zm-11.125 11.969 3.875 7.375 4.1875-4.0625 0.5 5.8125 4.4688-0.65625-1.2812 4.4375 7.4062 0.15625-4.5 3.2188c-0.75931 0.30384-1.4504 0.72869-2.0938 1.2188 0.01114-0.19044 0.03125-0.36927 0.03125-0.5625 0-3.2187-1.5896-6.079-4.0312-7.8125-1.561-1.1083-3.4734-1.75-5.5312-1.75-3.2187 0-6.079 1.5896-7.8125 4.0312-1.1083 1.561-1.75 3.4734-1.75 5.5312 0 3.2167 1.5947 6.0811 4.0312 7.8125 0.56683 0.40278 1.194 0.72894 1.8438 1-1.1028 1.2266-1.7812 2.841-1.7812 4.625 0 0.14013 0.02325 0.26799 0.03125 0.40625l-0.03125 0.03125v-0.4375l-0.0625-5.625-6.8438 2.7812 3.6562-6.5625-5.5625-1.5312 4.7188-3.3438-6.5-5.5625 8.25 0.875-1.0312-4.625 4.8125 1.4375 1-8.2188zm3.0312 8.9688c4.3972 0 7.9688 3.5716 7.9688 7.9688 0 0.93395-0.17281 1.8231-0.46875 2.6562-0.04344 0.06233-0.08301 0.12409-0.125 0.1875-0.57483-0.23345-1.1999-0.375-1.875-0.375-2.4608 0-4.4341 1.7554-5.0312 4.0312-1.0155 0.19112-1.9529 0.60067-2.7812 1.1562-3.2754-0.98982-5.6562-4.0603-5.6562-7.6562 0-4.3972 3.5716-7.9688 7.9688-7.9688zm14.906 8.25c4.1584 0 7.5312 3.3729 7.5312 7.5312 3.1188 0 5.6562 2.5062 5.6562 5.625s-2.5375 5.6562-5.6562 5.6562h-20.688c-3.1188 0-5.6562-2.5375-5.6562-5.6562s2.5375-5.625 5.6562-5.625c0-2.0792 1.6708-3.7812 3.75-3.7812 0.93205 0 1.7488 0.37646 2.4062 0.9375 1.1139-2.7658 3.8355-4.6875 7-4.6875z" color="#000000" fill="url(#linearGradient3067)"/>
  <path id="path3859" d="m-18.312 27.375-2.8438 6.625c-0.63938 9e-3 -1.2664 0.07387-1.875 0.1875l-1.4375-3.625-0.21875 4.0938c-0.47217 0.16802-0.93506 0.3343-1.375 0.5625l-3.9062-3.4688 1.7188 5c-0.25898 0.22795-0.5135 0.4677-0.75 0.71875l-3.125-1.625 1.9688 3.0312c-0.34121 0.5093-0.62144 1.0603-0.875 1.625l-5.6562 0.28125 4.875 2.3125c-0.07173 0.40962-0.13119 0.82612-0.15625 1.25l-3.5938 0.8125 3.625 0.8125c0.0589 0.67359 0.16893 1.3355 0.34375 1.9688l-3.125 2.9375 3.8125-1.0938c0.29939 0.61927 0.65708 1.202 1.0625 1.75l-3.25 5.4062 4.625-3.875c0.51254 0.47521 1.0602 0.90974 1.6562 1.2812l1.3125 0.6875c1.374 0.617 2.8962 0.96875 4.5 0.96875 6.0751 0 11-4.9249 11-11 0-3.1721-1.3519-6.0237-3.5-8.0312 0.62057-1.2152 1.8438-3.9375 1.8438-3.9375l-3.6875 2.5312c-0.75082-0.45099-1.5529-0.79962-2.4062-1.0625zm-2.6875 9.625c4.4183 0 8 3.5817 8 8s-3.5817 8-8 8-8-3.5817-8-8 3.5817-8 8-8z" color="#000000" fill="#00f" opacity=".7"/>
  <path id="path3907" d="m55.333 115.67c5.1547 0 9.3333 4.1787 9.3333 9.3333 3.866 0 7 3.134 7 7s-3.134 7-7 7h-25.667c-3.866 0-7-3.134-7-7s3.134-7 7-7c0-2.5773 2.0893-4.6667 4.6667-4.6667 1.1554 0 2.1746 0.47121 2.9896 1.1667 1.3808-3.4284 4.7544-5.8333 8.6771-5.8333z" color="#000000" opacity=".35"/>
  <path id="path3909" d="m34.885 107.96-1.0091 8.2409-4.8174-1.4474 1.0355 4.6322-8.2611-0.87434 6.5194 5.5519-4.7273 3.334 5.5732 1.5426-3.6578 6.5704 6.8425-2.7886 0.95492 4.6025 3.7226-2.8609 3.334 4.7273 1.5426-5.5732 5.2747 2.4383-1.4928-5.623 5.822-0.49761-4.0804-4.1799 4.7273-3.334-5.5732-1.5426 1.295-4.4363-4.4797 0.65442-0.49761-5.822-4.1799 4.0804zm3.0216 7.395c5.2766 0 9.5541 4.2775 9.5541 9.5541s-4.2775 9.5541-9.5541 9.5541c-5.2766 0-9.5541-4.2775-9.5541-9.5541s4.2775-9.5541 9.5541-9.5541z" color="#000000" opacity=".35"/>
  <path id="path3911" transform="matrix(1.5924 0 0 1.5924 20.391 107.39)" d="m16 11a5 5 0 1 1-10 0 5 5 0 1 1 10 0z" color="#000000" opacity=".35"/>
  <path id="path3913" transform="translate(0,80)" d="m55.344 33.656c-3.937 0-7.365 2.054-9.4062 5.125-0.70091-0.26883-1.4712-0.4375-2.2812-0.4375-3.0716 0-5.5562 2.1533-6.3125 5-4.1381 0.8073-7.3438 4.2925-7.3438 8.6562 0 4.9496 4.0504 9 9 9h25.656c4.9496 0 9-4.0504 9-9 0-4.3638-3.2056-7.8489-7.3438-8.6562-0.83437-5.4235-5.3153-9.6875-10.969-9.6875z" color="#000000" opacity=".35"/>
  <path id="path3920" d="m48 106c-17.673 0-32 14.103-32 31.5s14.327 31.5 32 31.5c5.4234 0 10.524-1.3437 15-3.6875l12 3.6875-2.9375-10.75c4.9357-5.5428 7.9375-12.8 7.9375-20.75 0-17.397-14.327-31.5-32-31.5z" color="#000000" fill="#f0f" opacity=".7"/>
  <path id="path3070" d="m36.875 27.969-1 8.2188-4.8125-1.4375 0.25 1.0625 3.4375 1.0312c0.39436-0.2514 0.81923-0.46373 1.25-0.65625l0.875-7.2188 3.3438 6.375c0.47853 0.01552 0.94752 0.07351 1.4062 0.15625l3.3125-3.2188 0.40625 4.75c0.03083 0.02134 0.06319 0.0408 0.09375 0.0625l-0.5-5.8125-4.1875 4.0625-3.875-7.375zm8.5625 9.125c0.36502 0.25916 0.70678 0.53679 1.0312 0.84375l3.125-0.46875 0.3125-1.0312-4.4688 0.65625zm-5.5312-0.15625c-4.3972 0-7.9688 3.5716-7.9688 7.9688 0 0.15 0.02307 0.28944 0.03125 0.4375 0.29097-4.1335 3.7307-7.4062 7.9375-7.4062 4.2173 0 7.6617 3.2893 7.9375 7.4375 0.0098-0.15668 0.03125-0.3094 0.03125-0.46875 0-4.3972-3.5716-7.9688-7.9688-7.9688zm-16.062 1.5625 1.3438 1.1562 6.3125 0.65625c0.13119-0.24063 0.2865-0.4601 0.4375-0.6875l-0.0625-0.28125-8.0312-0.84375zm25.062 2.375-0.125 0.46875c0.0697 0.17425 0.1279 0.35216 0.1875 0.53125l5.7188 0.125 1.3438-0.96875-7.125-0.15625zm-19.188 3.625-4.0938 2.9062 1.0312 0.28125 3.6875-2.625-0.625-0.5625zm25.094 0.6875c-3.1645 0-5.8861 1.9217-7 4.6875-0.65746-0.56104-1.4742-0.9375-2.4062-0.9375-2.0792 0-3.75 1.7021-3.75 3.7812-3.1188 0-5.6562 2.5062-5.6562 5.625 0 0.15174 0.01946 0.28874 0.03125 0.4375 0.2902-2.8451 2.7011-5.0625 5.625-5.0625 0-2.0792 1.6708-3.7812 3.75-3.7812 0.93205 0 1.7488 0.37646 2.4062 0.9375 1.1139-2.7658 3.8355-4.6875 7-4.6875 4.1584 0 7.5312 3.3729 7.5312 7.5312 2.9239 0 5.3348 2.2174 5.625 5.0625 0.011788-0.14876 0.03125-0.28576 0.03125-0.4375 0-3.1188-2.5375-5.625-5.6562-5.625 0-4.1584-3.3729-7.5312-7.5312-7.5312zm-24.438 0.15625c-0.01115 0.19031-0.03125 0.36946-0.03125 0.5625 0 1.0225 0.17064 2.0112 0.46875 2.9375l0.375 0.09375-0.21875 0.40625c0.55045 1.4354 1.4398 2.7128 2.5625 3.7188l0.84375-0.34375c-2.3242-1.6516-3.8613-4.3392-4-7.375zm4 7.375v1c0.39461 0.2804 0.8409 0.50536 1.2812 0.71875 0.17201-0.24944 0.36043-0.494 0.5625-0.71875-0.64971-0.27106-1.2769-0.59722-1.8438-1zm45.625-4.75c-0.1169 7.7639-3.1002 14.849-7.9375 20.281l0.21875 0.75c4.8055-5.5103 7.7188-12.668 7.7188-20.5 0-0.17767 3e-3 -0.35428 0-0.53125zm-64 0.03125c-0.0026 0.1666 0 0.33278 0 0.5 0 17.397 14.327 31.5 32 31.5 5.4234 0 10.524-1.3437 15-3.6875l12 3.6875-0.3125-1.0938-11.688-3.5938c-4.4758 2.3438-9.5766 3.6875-15 3.6875-17.503 0-31.728-13.834-32-31zm14.719 1.8125-3.1875 5.6875 0.71875-0.28125 2.9375-5.2812-0.46875-0.125z" color="#000000" fill="#fff"/>
  <path id="path3856" d="m48 16c-17.673 0-32 14.103-32 31.5s14.327 31.5 32 31.5c5.4234 0 10.524-1.3437 15-3.6875l12 3.6875-2.9375-10.75c4.9357-5.5427 7.9375-12.8 7.9375-20.75 0-17.397-14.327-31.5-32-31.5zm0 2.0312c16.585 0 29.969 13.194 29.969 29.469 0 7.4353-2.8174 14.187-7.4375 19.375a2.0447 2.0447 0 0 0-0.4375 1.9062l1.9688 7.1562-8.4688-2.5938a2.0447 2.0447 0 0 0-1.5312 0.15625c-4.1948 2.1966-8.9768 3.4688-14.062 3.4688-16.585 0-29.969-13.194-29.969-29.469s13.383-29.469 29.969-29.469zm-11.219 7.875a2.0447 2.0447 0 0 0-0.21875 0.03125 2.0447 2.0447 0 0 0-1.7188 1.7812l-0.71875 5.8125-2.4688-0.75a2.0447 2.0447 0 0 0-2.5938 2.4062l0.40625 1.8438-5.4062-0.5625a2.0447 2.0447 0 0 0-1.5625 3.5938l4.5 3.875-2.5625 1.8125a2.0447 2.0447 0 0 0 0.65625 3.625l3.0312 0.84375-2.375 4.2812a2.0447 2.0447 0 0 0 2.5625 2.9062l4.0625-1.6562 0.03125 2.5938v0.03125 0.40625a2.0447 2.0447 0 0 0 2.0625 2.0312c1.0442 3.0189 3.8303 5.2188 7.1875 5.2188h20.688c4.2277 0 7.6875-3.4598 7.6875-7.6875 0-3.6265-2.6105-6.5189-6-7.3125-0.74275-3.9737-3.8267-6.9833-7.8438-7.5938l1.0312-0.75a2.0447 2.0447 0 0 0-1.1562-3.6875l-4.75-0.09375 0.5625-1.9062a2.0447 2.0447 0 0 0-2.2812-2.5938l-2.3125 0.34375-0.3125-3.6562a2.0447 2.0447 0 0 0-3.4688-1.2812l-2.2188 2.1562-2.5938-4.9375a2.0447 2.0447 0 0 0-1.9062-1.125zm0.09375 2.0625 3.875 7.375 4.1875-4.0625 0.5 5.8125 4.4688-0.65625-1.2812 4.4375 7.4062 0.15625-4.5 3.2188c-0.75931 0.30384-1.4504 0.72869-2.0938 1.2188 0.01114-0.19044 0.03125-0.36927 0.03125-0.5625 0-3.2187-1.5896-6.079-4.0312-7.8125-1.561-1.1083-3.4734-1.75-5.5312-1.75-3.2187 0-6.079 1.5896-7.8125 4.0312-1.1083 1.561-1.75 3.4734-1.75 5.5312 0 3.2167 1.5947 6.0811 4.0312 7.8125 0.56683 0.40278 1.194 0.72894 1.8438 1-1.1028 1.2266-1.7812 2.841-1.7812 4.625 0 0.14013 0.02325 0.26799 0.03125 0.40625l-0.03125 0.03125v-0.4375l-0.0625-5.625-6.8438 2.7812 3.6562-6.5625-5.5625-1.5312 4.7188-3.3438-6.5-5.5625 8.25 0.875-1.0312-4.625 4.8125 1.4375 1-8.2188zm3.0312 8.9688c4.3972 0 7.9688 3.5716 7.9688 7.9688 0 0.93395-0.17281 1.8231-0.46875 2.6562-0.04344 0.06233-0.08301 0.12409-0.125 0.1875-0.57483-0.23345-1.1999-0.375-1.875-0.375-2.4608 0-4.4341 1.7554-5.0312 4.0312-1.0155 0.19112-1.9529 0.60067-2.7812 1.1562-3.2754-0.98982-5.6562-4.0603-5.6562-7.6562 0-4.3972 3.5716-7.9688 7.9688-7.9688zm14.906 8.25c4.1584 0 7.5312 3.3729 7.5312 7.5312 3.1188 0 5.6562 2.5062 5.6562 5.625s-2.5375 5.6562-5.6562 5.6562h-20.688c-3.1188 0-5.6562-2.5375-5.6562-5.6562s2.5375-5.625 5.6562-5.625c0-2.0792 1.6708-3.7812 3.75-3.7812 0.93205 0 1.7488 0.37646 2.4062 0.9375 1.1139-2.7658 3.8355-4.6875 7-4.6875z" color="#000000" fill="#520" opacity=".05"/>
  <path id="path3852" d="m48 16c-17.673 0-32 14.103-32 31.5s14.327 31.5 32 31.5c5.4234 0 10.524-1.3437 15-3.6875l12 3.6875-2.9375-10.75c4.9357-5.5427 7.9375-12.8 7.9375-20.75 0-17.397-14.327-31.5-32-31.5zm0 1.0625c17.103 0 30.938 13.628 30.938 30.438 0 7.6804-2.9171 14.674-7.6875 20.031a1.0709 1.0709 0 0 0-0.21875 1l2.4375 8.875-10.156-3.125a1.0709 1.0709 0 0 0-0.8125 0.09375c-4.3286 2.2667-9.2535 3.5625-14.5 3.5625-17.103 0-30.938-13.628-30.938-30.438s13.834-30.438 30.938-30.438zm-11.281 9.8438a1.0709 1.0709 0 0 0-0.90625 0.9375l-0.84375 6.9375-3.5938-1.0625a1.0709 1.0709 0 0 0-1.3438 1.25l0.71875 3.1875-6.7812-0.71875a1.0709 1.0709 0 0 0-0.8125 1.875l5.4375 4.6562-3.5938 2.5625a1.0709 1.0709 0 0 0 0.34375 1.9062l4.25 1.1562-3 5.375a1.0709 1.0709 0 0 0 1.3438 1.5312l5.4062-2.1875 0.03125 4.0312v0.4375a1.0709 1.0709 0 0 0 1.8125 0.75c0.58138 3.1187 3.1882 5.5312 6.4688 5.5312h20.688c3.6996 0 6.7188-3.0191 6.7188-6.7188 0-3.387-2.5806-6.0514-5.8438-6.5-0.46203-4.3073-3.9798-7.7188-8.4062-7.7188-0.54152 0-1.0473 0.12362-1.5625 0.21875l3.4062-2.4375a1.0709 1.0709 0 0 0-0.59375-1.9375l-6.0312-0.125 0.90625-3.0938a1.0709 1.0709 0 0 0-1.1875-1.375l-3.3438 0.5-0.40625-4.6875a1.0709 1.0709 0 0 0-1.8125-0.6875l-3.1562 3.0625-3.2188-6.0938a1.0709 1.0709 0 0 0-1.0938-0.5625zm0.15625 1.0625 3.875 7.375 4.1875-4.0625 0.5 5.8125 4.4688-0.65625-1.2812 4.4375 7.4062 0.15625-4.5 3.2188c-0.75931 0.30384-1.4504 0.72869-2.0938 1.2188 0.01114-0.19044 0.03125-0.36927 0.03125-0.5625 0-3.2187-1.5896-6.079-4.0312-7.8125-1.561-1.1083-3.4734-1.75-5.5312-1.75-3.2187 0-6.079 1.5896-7.8125 4.0312-1.1083 1.561-1.75 3.4734-1.75 5.5312 0 3.2167 1.5947 6.0811 4.0312 7.8125 0.56683 0.40278 1.194 0.72894 1.8438 1-1.1028 1.2266-1.7812 2.841-1.7812 4.625 0 0.14013 0.02325 0.26799 0.03125 0.40625l-0.03125 0.03125v-0.4375l-0.0625-5.625-6.8438 2.7812 3.6562-6.5625-5.5625-1.5312 4.7188-3.3438-6.5-5.5625 8.25 0.875-1.0312-4.625 4.8125 1.4375 1-8.2188zm3.0312 8.9688c4.3972 0 7.9688 3.5716 7.9688 7.9688 0 0.93395-0.17281 1.8231-0.46875 2.6562-0.04344 0.06233-0.08301 0.12409-0.125 0.1875-0.57483-0.23345-1.1999-0.375-1.875-0.375-2.4608 0-4.4341 1.7554-5.0312 4.0312-1.0155 0.19112-1.9529 0.60067-2.7812 1.1562-3.2754-0.98982-5.6562-4.0603-5.6562-7.6562 0-4.3972 3.5716-7.9688 7.9688-7.9688zm14.906 8.25c4.1584 0 7.5312 3.3729 7.5312 7.5312 3.1188 0 5.6562 2.5062 5.6562 5.625s-2.5375 5.6562-5.6562 5.6562h-20.688c-3.1188 0-5.6562-2.5375-5.6562-5.6562s2.5375-5.625 5.6562-5.625c0-2.0792 1.6708-3.7812 3.75-3.7812 0.93205 0 1.7488 0.37646 2.4062 0.9375 1.1139-2.7658 3.8355-4.6875 7-4.6875zm-6.125 1.0625a1.0709 1.0709 0 0 0 0.3125 0.1875c-0.14046 0.12896-0.27469 0.26823-0.40625 0.40625 0.04523-0.19477 0.06122-0.39381 0.09375-0.59375z" color="#000000" fill="#520" opacity=".1"/>
  <path id="path3079" d="m48 16c-17.673 0-32 14.103-32 31.5 0 0.16722-0.0026 0.3334 0 0.5 0.27176-17.166 14.497-31 32-31 17.493 0 31.711 13.817 32 30.969 0.002378-0.15794 0-0.31025 0-0.46875 0-17.397-14.327-31.5-32-31.5zm-8.0938 19.344c-1.3907 0-2.7113 0.30971-3.9062 0.84375l-0.125 1-1.125-0.34375c-1.0435 0.66523-1.9418 1.5249-2.6562 2.5312-0.05672 0.07989-0.102 0.1683-0.15625 0.25l0.15625 0.75c1.7335-2.4416 4.5938-4.0312 7.8125-4.0312 2.0579 0 3.9702 0.6417 5.5312 1.75l-0.09375-1.0625c-1.093-0.75656-2.3599-1.2862-3.7188-1.5312l-0.875 0.84375-0.53125-1c-0.10618-0.0034-0.2055 0-0.3125 0zm5.5312 2.75c2.313 1.6422 3.8433 4.3011 4 7.3125 0.01136-0.16734 0.03125-0.32818 0.03125-0.5 0-1.0579-0.18277-2.0781-0.5-3.0312h-0.34375l0.15625-0.53125c-0.51934-1.2982-1.3139-2.4616-2.3125-3.4062l-1.0312 0.15625zm-13.344 2.2812-0.59375-0.0625c-0.74272 1.3623-1.1562 2.9343-1.1562 4.5938 0 0.05276-8.55e-4 0.10368 0 0.15625 0.0015 0.09517 0.02693 0.18674 0.03125 0.28125 0.1077-1.8385 0.71441-3.5541 1.7188-4.9688zm0-1-0.78125-3.5625-0.25-0.0625 0.8125 3.5938 0.21875 0.03125zm17.812-1.9375-0.3125 0.03125-0.96875 3.4062h0.28125l1-3.4375zm-26.062 2.0625 5.875 5 0.625-0.4375-5.1562-4.4062-1.3438-0.15625zm30.844 2.5-3.1562 2.25c-0.75931 0.30384-1.4504 0.72869-2.0938 1.2188 0.0067 0.14678 0.03125 0.28912 0.03125 0.4375 0 0.19323-0.02011 0.37206-0.03125 0.5625 0.64338-0.49006 1.3344-0.91491 2.0938-1.2188l4.5-3.2188-1.3438-0.03125zm-22.719 3.3438c-0.01317 0.18707-0.03125 0.37211-0.03125 0.5625 0 3.596 2.3809 6.6664 5.6562 7.6562 0.82838-0.55558 1.7658-0.96513 2.7812-1.1562 0.59711-2.2759 2.5704-4.0312 5.0312-4.0312 0.67508 0 1.3002 0.14155 1.875 0.375 0.04199-0.06341 0.08156-0.12517 0.125-0.1875 0.29594-0.83315 0.46875-1.7223 0.46875-2.6562 0-0.17983-0.01949-0.35437-0.03125-0.53125-0.04771 0.76165-0.19206 1.4965-0.4375 2.1875-0.04344 0.06233-0.08301 0.12409-0.125 0.1875-0.57483-0.23345-1.1999-0.375-1.875-0.375-2.4608 0-4.4341 1.7554-5.0312 4.0312-1.0155 0.19112-1.9529 0.60067-2.7812 1.1562-3.1388-0.94854-5.4371-3.8174-5.625-7.2188zm-5.3125 2.3438-1.0312 0.71875 5.0938 1.4062 0.25-0.46875c-0.06226-0.16236-0.10269-0.33358-0.15625-0.5l-4.1562-1.1562zm6.875 5.375-5.2812 2.1562-0.71875 1.2812 6.8438-2.7812c-0.29256-0.20789-0.57677-0.41704-0.84375-0.65625zm2.125 1.375c-0.76676 1.1119-1.2188 2.4491-1.2188 3.9062 0 0.1187 0.02128 0.22888 0.03125 0.34375 0.14493-1.5209 0.78503-2.8955 1.75-3.9688-0.1974-0.08236-0.37031-0.18812-0.5625-0.28125zm-1.1875 4.3125-0.03125 0.03125v0.5625c0-0.20181 0.01425-0.39659 0.03125-0.59375zm-0.03125 0.59375v0.4375l0.03125-0.03125c-8e-3 -0.13826-0.03125-0.26612-0.03125-0.40625zm1.5938-0.4375c-0.011788 0.14862-0.03125 0.28576-0.03125 0.4375 0 3.1188 2.5375 5.6562 5.6562 5.6562h20.688c3.1188 0 5.6562-2.5375 5.6562-5.6562 0-0.15174-0.019462-0.28888-0.03125-0.4375-0.2902 2.8486-2.7011 5.0938-5.625 5.0938h-20.688c-2.9239 0-5.3348-2.2452-5.625-5.0938zm36.25 10.094c-0.07252 0.08315-0.14538 0.1676-0.21875 0.25l2.625 9.6562 0.3125 0.09375-2.7188-10z" color="#000000" fill="#520" opacity=".3"/>
 </g>
</svg>
