<?xml version="1.0" encoding="UTF-8"?>
<!-- Created with Inkscape (http://www.inkscape.org/) -->
<svg id="svg2408" width="96" height="96" version="1.0" xmlns="http://www.w3.org/2000/svg" xmlns:cc="http://creativecommons.org/ns#" xmlns:dc="http://purl.org/dc/elements/1.1/" xmlns:rdf="http://www.w3.org/1999/02/22-rdf-syntax-ns#" xmlns:xlink="http://www.w3.org/1999/xlink">
 <defs id="defs2410">
  <linearGradient id="ButtonShadow" x1="45.448" x2="45.448" y1="92.54" y2="7.0165" gradientTransform="scale(1.0059 .99417)" gradientUnits="userSpaceOnUse">
   <stop id="stop3750" offset="0"/>
   <stop id="stop3752" stop-opacity=".58824" offset="1"/>
  </linearGradient>
  <linearGradient id="linearGradient3737">
   <stop id="stop3739" stop-color="#fff" offset="0"/>
   <stop id="stop3741" stop-color="#fff" stop-opacity="0" offset="1"/>
  </linearGradient>
  <filter id="filter3174">
   <feGaussianBlur id="feGaussianBlur3176" stdDeviation="1.71"/>
  </filter>
  <linearGradient id="linearGradient3188" x1="36.357" x2="36.357" y1="6" y2="63.893" gradientUnits="userSpaceOnUse" xlink:href="#linearGradient3737"/>
  <filter id="filter3794" x="-.192" y="-.192" width="1.384" height="1.384">
   <feGaussianBlur id="feGaussianBlur3796" stdDeviation="5.28"/>
  </filter>
  <linearGradient id="linearGradient3613" x1="48" x2="48" y1="20.221" y2="138.66" gradientUnits="userSpaceOnUse" xlink:href="#linearGradient3737"/>
  <radialGradient id="radialGradient3619" cx="48" cy="90.172" r="42" gradientTransform="matrix(1.1573 0 0 .99591 -7.551 .19713)" gradientUnits="userSpaceOnUse" xlink:href="#linearGradient3737"/>
  <clipPath id="clipPath3613">
   <rect id="rect3615" x="6" y="6" width="84" height="84" rx="6" ry="6" fill="#fff"/>
  </clipPath>
  <linearGradient id="linearGradient3617" x1="48" x2="48" y1="90" y2="5.9877" gradientUnits="userSpaceOnUse">
   <stop id="stop3702" stop-color="#f57900" offset="0"/>
   <stop id="stop3704" stop-color="#fab234" offset="1"/>
  </linearGradient>
  <linearGradient id="ButtonShadow-0" x1="45.448" x2="45.448" y1="92.54" y2="7.0165" gradientTransform="matrix(1.0059 0 0 .99417 100 0)" gradientUnits="userSpaceOnUse">
   <stop id="stop3750-8" offset="0"/>
   <stop id="stop3752-5" stop-opacity=".58824" offset="1"/>
  </linearGradient>
  <linearGradient id="linearGradient3780" x1="32.251" x2="32.251" y1="6.1317" y2="90.239" gradientTransform="matrix(1.0238 0 0 1.0119 -1.1429 -98.071)" gradientUnits="userSpaceOnUse" xlink:href="#ButtonShadow-0"/>
  <linearGradient id="linearGradient3721" x1="32.251" x2="32.251" y1="6.1317" y2="90.239" gradientTransform="translate(0,-97)" gradientUnits="userSpaceOnUse" xlink:href="#ButtonShadow-0"/>
  <radialGradient id="radialGradient3872" cx="39.792" cy="56.328" r="42" gradientTransform="matrix(1.8377 -.00698 .0054951 1.4467 66.359 -25.282)" gradientUnits="userSpaceOnUse">
   <stop id="stop3868" stop-color="#fff" offset="0"/>
   <stop id="stop3870" stop-color="#fff" stop-opacity="0" offset="1"/>
  </radialGradient>
  <radialGradient id="radialGradient3914" cx="48" cy="48" r="42" gradientUnits="userSpaceOnUse">
   <stop id="stop3910" stop-color="#d45500" stop-opacity=".34351" offset="0"/>
   <stop id="stop3912" stop-color="#e65c00" offset="1"/>
  </radialGradient>
  <linearGradient id="linearGradient3063" x1="96" x2="16" y1="16" y2="64" gradientUnits="userSpaceOnUse">
   <stop id="stop3699" stop-color="#fff" offset="0"/>
   <stop id="stop3701" stop-color="#fff" stop-opacity="0" offset="1"/>
  </linearGradient>
 </defs>
 <metadata id="metadata2413">
  <rdf:RDF>
   <cc:Work rdf:about="">
    <dc:format>image/svg+xml</dc:format>
    <dc:type rdf:resource="http://purl.org/dc/dcmitype/StillImage"/>
    <dc:title/>
   </cc:Work>
  </rdf:RDF>
 </metadata>
 <g id="layer2" display="none">
  <rect id="rect3745" x="5" y="7" width="86" height="85" rx="6" ry="6" fill="url(#ButtonShadow)" filter="url(#filter3174)" opacity=".9"/>
 </g>
 <g id="layer3">
  <path id="path3786" transform="scale(1,-1)" d="m12-95.031c-5.5111 0-10.031 4.5202-10.031 10.031v71c0 5.5111 4.5202 10.031 10.031 10.031h72c5.5111 0 10.031-4.5202 10.031-10.031v-71c0-5.5111-4.5202-10.031-10.031-10.031h-72z" fill="url(#linearGradient3780)" opacity=".08"/>
  <path id="path3778" transform="scale(1,-1)" d="m12-94.031c-4.9716 0-9.0312 4.0596-9.0312 9.0312v71c0 4.9716 4.0596 9.0312 9.0312 9.0312h72c4.9716 0 9.0312-4.0596 9.0312-9.0312v-71c0-4.9716-4.0596-9.0312-9.0312-9.0312h-72z" fill="url(#linearGradient3780)" opacity=".1"/>
  <path id="path3770" transform="scale(1,-1)" d="m12-93c-4.4091 0-8 3.5909-8 8v71c0 4.4091 3.5909 8 8 8h72c4.4091 0 8-3.5909 8-8v-71c0-4.4091-3.5909-8-8-8h-72z" fill="url(#linearGradient3780)" opacity=".2"/>
  <rect id="rect3723" transform="scale(1,-1)" x="5" y="-92" width="86" height="85" rx="7" ry="7" fill="url(#linearGradient3780)" opacity=".3"/>
  <rect id="rect3716" transform="scale(1,-1)" x="6" y="-91" width="84" height="84" rx="6" ry="6" fill="url(#linearGradient3721)" opacity=".45"/>
 </g>
 <g id="layer1">
  <rect id="rect2419" x="6" y="6" width="84" height="84" rx="6" ry="6" fill="url(#linearGradient3617)"/>
  <path id="path4141" d="M 6,75.125 46.65625,49.34375 20.5,90 39,90 48,49.78125 56.75,90 75.125,90 49.34375,49.34375 90,75.5 90,57 49.78125,48 90,39.25 90,20.875 49.34375,46.65625 75.5,6 57,6 48,46.21875 39.25,6 20.875,6 46.65625,46.65625 6,20.5 6,39 46.21875,48 6,56.75 6,75.125 z" fill="url(#radialGradient3914)" opacity=".5"/>
  <path id="rect3728" d="m12 6c-3.324 0-6 2.676-6 6v2 68 2c0 0.33472 0.04135 0.6507 0.09375 0.96875 0.0487 0.2956 0.09704 0.59692 0.1875 0.875 0.00988 0.03038 0.020892 0.0636 0.03125 0.09375 0.098865 0.28777 0.23488 0.54745 0.375 0.8125 0.14459 0.27351 0.31562 0.53562 0.5 0.78125s0.37378 0.47347 0.59375 0.6875c0.43995 0.42806 0.94291 0.81453 1.5 1.0938 0.27854 0.13961 0.57347 0.24695 0.875 0.34375-0.2562-0.10022-0.48671-0.23627-0.71875-0.375-0.00741-0.0044-0.023866 0.0045-0.03125 0-0.031933-0.0193-0.062293-0.04251-0.09375-0.0625-0.1204-0.0767-0.23102-0.16351-0.34375-0.25-0.10617-0.0808-0.21328-0.16111-0.3125-0.25-0.17793-0.16143-0.34746-0.34539-0.5-0.53125-0.10758-0.13026-0.21839-0.26528-0.3125-0.40625-0.025089-0.03838-0.038446-0.08587-0.0625-0.125-0.064763-0.10303-0.13023-0.20452-0.1875-0.3125-0.10101-0.19471-0.20567-0.4157-0.28125-0.625-0.00796-0.02181-0.023589-0.04055-0.03125-0.0625-0.031825-0.09195-0.035804-0.18683-0.0625-0.28125-0.030332-0.10662-0.070389-0.20303-0.09375-0.3125-0.072879-0.34151-0.125-0.6982-0.125-1.0625v-2-68-2c0-2.7818 2.2182-5 5-5h2 68 2c2.7818 0 5 2.2182 5 5v2 68 2c0 0.3643-0.05212 0.72099-0.125 1.0625-0.04415 0.20689-0.08838 0.39766-0.15625 0.59375-0.0077 0.02195-0.0233 0.04069-0.03125 0.0625-0.06274 0.17374-0.13838 0.36745-0.21875 0.53125-0.04158 0.0828-0.07904 0.16995-0.125 0.25-0.0546 0.09721-0.12677 0.18835-0.1875 0.28125-0.09411 0.14096-0.20492 0.276-0.3125 0.40625-0.14317 0.17445-0.30314 0.347-0.46875 0.5-0.01117 0.0102-0.01998 0.02115-0.03125 0.03125-0.13839 0.12556-0.28509 0.23444-0.4375 0.34375-0.10257 0.07315-0.20432 0.15336-0.3125 0.21875-0.0074 0.0045-0.02384-0.0044-0.03125 0-0.23204 0.13873-0.46255 0.27478-0.71875 0.375 0.30153-0.0968 0.59646-0.20414 0.875-0.34375 0.55709-0.27922 1.0601-0.66569 1.5-1.0938 0.21997-0.21403 0.40937-0.44186 0.59375-0.6875s0.35541-0.50774 0.5-0.78125c0.14012-0.26505 0.27614-0.52473 0.375-0.8125 0.01041-0.03078 0.02133-0.06274 0.03125-0.09375 0.09046-0.27808 0.1388-0.5794 0.1875-0.875 0.0524-0.31805 0.09375-0.63403 0.09375-0.96875v-2-68-2c0-3.324-2.676-6-6-6h-72z" fill="url(#linearGradient3188)" opacity=".4"/>
  <path id="path3615" d="m12 90c-3.324 0-6-2.676-6-6v-2-68-2c0-0.33472 0.04135-0.6507 0.09375-0.96875 0.0487-0.2956 0.09704-0.59692 0.1875-0.875 0.00988-0.03038 0.020892-0.0636 0.03125-0.09375 0.098865-0.28777 0.23488-0.54745 0.375-0.8125 0.14459-0.27351 0.31562-0.53562 0.5-0.78125s0.37378-0.47347 0.59375-0.6875c0.43995-0.42806 0.94291-0.81453 1.5-1.0938 0.27854-0.13961 0.57347-0.24695 0.875-0.34375-0.2562 0.10022-0.48671 0.23627-0.71875 0.375-0.00741 0.0044-0.023866-0.0045-0.03125 0-0.031933 0.0193-0.062293 0.04251-0.09375 0.0625-0.1204 0.0767-0.23102 0.16351-0.34375 0.25-0.10617 0.0808-0.21328 0.16111-0.3125 0.25-0.17793 0.16143-0.34746 0.34539-0.5 0.53125-0.10758 0.13026-0.21839 0.26528-0.3125 0.40625-0.025089 0.03838-0.038446 0.08587-0.0625 0.125-0.064763 0.10303-0.13023 0.20452-0.1875 0.3125-0.10101 0.19471-0.20567 0.4157-0.28125 0.625-0.00796 0.02181-0.023589 0.04055-0.03125 0.0625-0.031825 0.09195-0.035804 0.18683-0.0625 0.28125-0.030332 0.10662-0.070389 0.20303-0.09375 0.3125-0.072879 0.34151-0.125 0.6982-0.125 1.0625v2 68 2c0 2.7818 2.2182 5 5 5h2 68 2c2.7818 0 5-2.2182 5-5v-2-68-2c0-0.3643-0.05212-0.72099-0.125-1.0625-0.04415-0.20689-0.08838-0.39766-0.15625-0.59375-0.0077-0.02195-0.0233-0.04069-0.03125-0.0625-0.06274-0.17374-0.13838-0.36745-0.21875-0.53125-0.04158-0.0828-0.07904-0.16995-0.125-0.25-0.0546-0.09721-0.12677-0.18835-0.1875-0.28125-0.09411-0.14096-0.20492-0.276-0.3125-0.40625-0.14317-0.17445-0.30314-0.347-0.46875-0.5-0.01117-0.0102-0.01998-0.02115-0.03125-0.03125-0.13839-0.12556-0.28509-0.23444-0.4375-0.34375-0.10257-0.07315-0.20432-0.15336-0.3125-0.21875-0.0074-0.0045-0.02384 0.0044-0.03125 0-0.23204-0.13873-0.46255-0.27478-0.71875-0.375 0.30153 0.0968 0.59646 0.20414 0.875 0.34375 0.55709 0.27922 1.0601 0.66569 1.5 1.0938 0.21997 0.21403 0.40937 0.44186 0.59375 0.6875s0.35541 0.50774 0.5 0.78125c0.14012 0.26505 0.27614 0.52473 0.375 0.8125 0.01041 0.03078 0.02133 0.06274 0.03125 0.09375 0.09046 0.27808 0.1388 0.5794 0.1875 0.875 0.0524 0.31805 0.09375 0.63403 0.09375 0.96875v2 68 2c0 3.324-2.676 6-6 6h-72z" fill="url(#radialGradient3619)" opacity=".2"/>
  <path id="rect3861" d="m190 16c0 23.989-25.897 24-42 24s-42 0.18469-42 24v20c0 3.324 2.676 6 6 6h72c3.324 0 6-2.676 6-6v-68z" fill="url(#radialGradient3872)" opacity=".3"/>
  <path id="rect3690" d="m12 6c-3.324 0-6 2.676-6 6v42.875c17.609-11.522 44.229-18.875 74-18.875 3.378 0 6.712 0.09685 10 0.28125v-24.281c0-3.324-2.676-6-6-6z" fill="url(#linearGradient3063)" opacity=".4"/>
 </g>
 <g id="layer5">
  <rect id="rect3171" x="15" y="15" width="66" height="66" rx="12" ry="12" clip-path="url(#clipPath3613)" fill="url(#linearGradient3613)" filter="url(#filter3794)" opacity=".1" stroke="#fff" stroke-linecap="round" stroke-width=".5"/>
 </g>
 <g id="layer4">
  <path id="path3906" d="m73.75 12.969a1.0459 1.0459 0 0 0-0.03125 0.03125c-4.8148 1.192-9.7666 2.1059-14.656 3.375a1.0459 1.0459 0 0 0-0.21875 0.0625c-1.1577 0.59188-1.5737 1.8363-1.625 2.7812-0.05129 0.94494 0.08381 1.7881 0.03125 2.2812a1.0459 1.0459 0 0 0 0 0.125c-0.01283 14.172 0.01387 28.365-0.03125 42.531a1.0459 1.0459 0 0 0 0 0.03125c0.03285 1.0303-0.231 2.2593-0.71875 3.0312s-0.99262 1.1511-2.125 0.9375a1.0459 1.0459 0 0 0-0.28125 0c-1.6475 0.14825-3.3768-0.48435-5.3438-0.875a1.0459 1.0459 0 0 0-0.28125 0c-0.9987 0.04593-1.8088 0.64458-2.25 1.3438-0.41068 0.65076-0.53618 1.3683-0.5625 2.0625h-0.03125c-0.57528 3.6214-1.2752 7.2504-1.7812 10.938a1.0459 1.0459 0 0 0 0 0.3125c0.09627 0.69899 0.43001 1.2995 0.875 1.7188s0.97193 0.67585 1.4688 0.84375c0.99365 0.33581 1.9832 0.4214 2.5312 0.59375a1.0459 1.0459 0 0 0 0.125 0.03125c7.408 1.3961 16.136 1.0067 22.188-4.5 5.3408-4.8972 6.216-12.391 6.0312-18.938-2.87e-4 -0.01018 2.92e-4 -0.02108 0-0.03125-0.02074-15.356 0.04169-30.737-0.03125-46.094a1.0459 1.0459 0 0 0 0-0.125c-0.20357-1.5649-1.6495-2.6346-3.1875-2.4688a1.0459 1.0459 0 0 0-0.09375 0z" fill="#2b1100" opacity=".05"/>
  <path id="path3900" d="m73.969 14c-4.8557 1.2021-9.815 2.1185-14.656 3.375-1.5703 0.80283-0.87958 2.8315-1.0312 4.2544-0.01283 14.17 0.02573 28.341-0.0194 42.511 0.077 2.4151-1.0633 5.6146-4.0744 5.0467-1.9476 0.17525-3.8005-0.50644-5.6562-0.875-1.3095 0.06023-1.8632 1.391-1.8721 2.5403-0.57887 3.644-1.2832 7.2788-1.7841 10.928 0.26721 1.9402 2.6914 1.8689 4.1423 2.3252 7.2244 1.3616 15.599 0.9355 21.295-4.2477 4.9966-4.5816 5.9041-11.749 5.7191-18.182-0.020867-15.37 0.041712-30.753-0.03125-46.114-0.12462-0.95794-1.0719-1.6659-2.0312-1.5625z" fill="#2b1100" opacity=".08"/>
  <path id="path3895" d="m74.062 14.812a1.0385 1.0385 0 0 0-0.09375 0.03125l-14.062 3.1562a1.0385 1.0385 0 0 0-0.8125 1v44.312c-5e-6 2.3967-0.44565 4.1216-1.1562 5.1875-0.65674 0.98511-1.7527 1.5-3.75 1.5-1.1591-4e-6 -2.1172-0.07683-2.7812-0.1875-0.74963-0.11533-1.5393-0.3256-2.4375-0.625a1.0385 1.0385 0 0 0-1.375 0.84375l-1.9062 11.406a1.0385 1.0385 0 0 0 0.6875 1.1562c1.59 0.52997 3.3007 0.86702 5.125 1.0625 1.7061 0.18955 3.0222 0.31248 4 0.3125 6.2179-1.9e-5 11.153-1.6271 14.594-5 3.4645-3.3966 5.125-8.5709 5.125-15.281v-47.844a1.0385 1.0385 0 0 0-1.1562-1.0312z" fill="#2b1100" opacity=".15"/>
  <path id="path3891" d="m55.504 82.924c-0.88045-1.8e-5 -2.1697-0.09435-3.8677-0.283-1.7609-0.18868-3.396-0.53457-4.9054-1.0377l1.8867-11.414c0.94334 0.31444 1.8238 0.53455 2.6413 0.66034 0.75467 0.12577 1.7295 0.18866 2.9243 0.18867 2.2011-4e-6 3.7419-0.66034 4.6224-1.981 0.88044-1.3207 1.3207-3.2388 1.3207-5.7544v-44.302l14.056-3.1477v47.827c-2e-5 6.5405-1.6037 11.383-4.811 14.527-3.2074 3.1444-7.8297 4.7167-13.867 4.7167" fill="#2b1100" opacity=".3"/>
  <path id="path3884" d="m55.504 81.924c-0.88045-1.8e-5 -2.1697-0.09435-3.8677-0.283-1.7609-0.18868-3.396-0.53457-4.9054-1.0377l1.8867-11.414c0.94334 0.31444 1.8238 0.53455 2.6413 0.66034 0.75467 0.12577 1.7295 0.18866 2.9243 0.18867 2.2011-4e-6 3.7419-0.66034 4.6224-1.981 0.88044-1.3207 1.3207-3.2388 1.3207-5.7544v-44.302l14.056-3.1477v47.827c-2e-5 6.5405-1.6037 11.383-4.811 14.527-3.2074 3.1444-7.8297 4.7167-13.867 4.7167" fill="#fff"/>
 </g>
</svg>
