<?xml version="1.0" encoding="UTF-8"?>
<!-- Created with Inkscape (http://www.inkscape.org/) -->
<svg id="svg2408" width="96" height="96" version="1.0" xmlns="http://www.w3.org/2000/svg" xmlns:cc="http://creativecommons.org/ns#" xmlns:dc="http://purl.org/dc/elements/1.1/" xmlns:rdf="http://www.w3.org/1999/02/22-rdf-syntax-ns#" xmlns:xlink="http://www.w3.org/1999/xlink">
 <defs id="defs2410">
  <filter id="filter3174" color-interpolation-filters="sRGB">
   <feGaussianBlur id="feGaussianBlur3176" stdDeviation="1.71"/>
  </filter>
  <clipPath id="clipPath3613">
   <rect id="rect3615" x="6" y="6" width="84" height="84" rx="6" ry="6" fill="#fefefe"/>
  </clipPath>
  <filter id="filter4055" x="-.19411" y="-.19411" width="1.3882" height="1.3882" color-interpolation-filters="sRGB">
   <feGaussianBlur id="feGaussianBlur4057" stdDeviation="5.3379019"/>
  </filter>
  <linearGradient id="ButtonShadow-363-722-778" x1="45.448" x2="45.448" y1="92.54" y2="7.0165" gradientTransform="scale(1.0059 .99417)" gradientUnits="userSpaceOnUse">
   <stop id="stop3940" stop-color="#0b0b0b" offset="0"/>
   <stop id="stop3942" stop-color="#0b0b0b" stop-opacity=".58824" offset="1"/>
  </linearGradient>
  <linearGradient id="linearGradient4031-537-15-554" x1="48" x2="48" y1="90.868" y2="5.9877" gradientTransform="translate(-1,1)" gradientUnits="userSpaceOnUse">
   <stop id="stop3946" stop-color="#0b0b0b" offset="0"/>
   <stop id="stop3948" stop-color="#0b0b0b" stop-opacity=".58824" offset="1"/>
  </linearGradient>
  <linearGradient id="linearGradient3989-209-298-97" x1="48" x2="48" y1="90" y2="5.9877" gradientTransform="translate(0,1)" gradientUnits="userSpaceOnUse">
   <stop id="stop3970" stop-color="#0b0b0b" offset="0"/>
   <stop id="stop3972" stop-color="#0b0b0b" stop-opacity=".58824" offset="1"/>
  </linearGradient>
  <linearGradient id="linearGradient3613-704-226-290" x1="48" x2="48" y1="20.221" y2="138.66" gradientUnits="userSpaceOnUse">
   <stop id="stop4018" stop-color="#fefefe" offset="0"/>
   <stop id="stop4020" stop-color="#fefefe" stop-opacity="0" offset="1"/>
  </linearGradient>
  <linearGradient id="linearGradient3948-440-61-959-682" x1="48" x2="48" y1="90" y2="5.9877" gradientUnits="userSpaceOnUse">
   <stop id="stop3991" stop-color="#4f4f4f" offset="0"/>
   <stop id="stop3993" stop-color="#9b9b9b" offset="1"/>
  </linearGradient>
  <linearGradient id="linearGradient3151-494-882-850-196" x1="48" x2="48" y1="90" y2="5.9877" gradientTransform="translate(-110)" gradientUnits="userSpaceOnUse">
   <stop id="stop3997" stop-color="#a1a1a1" offset="0"/>
   <stop id="stop3999" stop-color="#cbcbcb" offset="1"/>
  </linearGradient>
  <linearGradient id="linearGradient3153-599-954-668-471" x1="36.357" x2="36.357" y1="6" y2="63.893" gradientTransform="translate(-110)" gradientUnits="userSpaceOnUse">
   <stop id="stop4003" stop-color="#fefefe" offset="0"/>
   <stop id="stop4005" stop-color="#fefefe" stop-opacity="0" offset="1"/>
  </linearGradient>
  <radialGradient id="radialGradient3155-479-27-174-945" cx="48" cy="90.172" r="42" gradientTransform="matrix(1.1573 0 0 .99591 -117.55 .19713)" gradientUnits="userSpaceOnUse">
   <stop id="stop4009" stop-color="#fefefe" offset="0"/>
   <stop id="stop4011" stop-color="#fefefe" stop-opacity="0" offset="1"/>
  </radialGradient>
  <linearGradient id="linearGradient3967-371-901-188-925" x1="44" x2="44" y1="6" y2="64.215" gradientUnits="userSpaceOnUse">
   <stop id="stop4015" stop-color="#fefefe" offset="0"/>
   <stop id="stop4017" stop-color="#fefefe" stop-opacity="0" offset="1"/>
  </linearGradient>
  <radialGradient id="radialGradient3982-530-457-698-218" cx="48" cy="72" r="42" gradientTransform="matrix(1.1429 0 0 .95238 -6.8571 3.4286)" gradientUnits="userSpaceOnUse">
   <stop id="stop4021" stop-color="#fefefe" offset="0"/>
   <stop id="stop4023" stop-color="#fefefe" stop-opacity="0" offset="1"/>
  </radialGradient>
  <linearGradient id="linearGradient2890-206-477-642-235" x1="55.53" x2="55.53" y1="-20.94" y2="55.14" gradientTransform="matrix(.69845 0 0 .69845 3.2992 3.2862)" gradientUnits="userSpaceOnUse">
   <stop id="stop4027" stop-color="#fefefe" offset="0"/>
   <stop id="stop4029" stop-color="#fefefe" stop-opacity="0" offset="1"/>
  </linearGradient>
  <filter id="filter4309" x="0" y="0" width="1" height="1" color-interpolation-filters="sRGB">
   <feColorMatrix id="feColorMatrix4311" type="saturate" values="0"/>
  </filter>
 </defs>
 <metadata id="metadata2413">
  <rdf:RDF>
   <cc:Work rdf:about="">
    <dc:format>image/svg+xml</dc:format>
    <dc:type rdf:resource="http://purl.org/dc/dcmitype/StillImage"/>
    <dc:title/>
   </cc:Work>
  </rdf:RDF>
 </metadata>
 <g id="layer2" display="none">
  <rect id="rect3745" x="5" y="7" width="86" height="85" rx="6" ry="6" fill="url(#ButtonShadow-363-722-778)" filter="url(#filter3174)" opacity=".9"/>
 </g>
 <g id="layer3">
  <path id="path4029" d="m12 4.0312c-6.0702-0.16174-10.691 5.6895-9.9688 11.5 7.16e-5 0.04167-7.01e-5 0.08333 0 0.125 0.030431 18.086-0.077787 36.153 0.03125 54.25a0.93233 0.93233 0 0 0 0 0.0625c0.42977 5.8315 6.2169 9.6747 11.719 9 0.0418-0.0051 0.08323 0.0056 0.125 0h5.3125c-0.67978 4.4285-1.5968 8.8952-2.0625 13.406a0.93233 0.93233 0 0 0 0.03125 0.28125c0.28 1.2942 1.3717 2.1088 2.4688 2.25 1.0239 0.13179 2.0656-0.22515 2.8438-1v0.03125l22.844-14.969c13.185-0.02898 26.363 0.07707 39.562-0.03125a0.93233 0.93233 0 0 0 0.0625 0c5.8315-0.42977 9.6747-6.2169 9-11.719-0.0051-0.0418 0.0056-0.08323 0-0.125-0.03043-18.002 0.07779-35.988-0.03125-54a0.93233 0.93233 0 0 0 0-0.0625c-0.42977-5.8315-6.2169-9.6747-11.719-9h-0.125-70.062-0.03125z" fill="url(#linearGradient4031-537-15-554)" opacity=".08"/>
  <path id="path4015" d="m12 4.9688c-5.5018-0.16564-9.7593 5.2616-9.0312 10.551 0.031153 18.133-0.06237 36.269 0.046873 54.399 0.38911 5.2798 5.7302 8.7915 10.758 8.1115h6.5389c-0.69363 4.8112-1.7232 9.637-2.2188 14.438 0.39957 1.8469 2.7901 1.9764 3.9102 0.69448 7.6966-5.044 15.393-10.088 23.09-15.132 13.275-0.03092 26.553 0.06205 39.826-0.04687 5.2798-0.38911 8.7915-5.7302 8.1115-10.758-0.031152-18.048 0.062369-36.1-0.046873-54.146-0.38911-5.2798-5.7302-8.7915-10.758-8.1115h-70.226z" fill="url(#linearGradient4031-537-15-554)" opacity=".1"/>
  <path id="path4007" d="m12 6c-4.4079 0-8 3.5921-8 8v55c0 4.4079 3.5921 8 8 8h9.5l-2.4062 14.906a0.98733 0.98733 0 0 0 1.5 0.96875l24.219-15.875h39.188c4.4079 0 8-3.5921 8-8v-55c0-4.4079-3.5921-8-8-8h-72z" fill="url(#linearGradient4031-537-15-554)" opacity=".15"/>
  <path id="rect3991" d="m12 7c-3.878 0-7 3.122-7 7v55c0 3.878 3.122 7 7 7h10.656l-2.5938 16.062 24.5-16.062h39.438c3.878 0 7-3.122 7-7v-55c0-3.878-3.122-7-7-7h-72z" fill="url(#linearGradient4031-537-15-554)" opacity=".3"/>
  <path id="path3984" d="m12 7c-3.324 0-6 2.676-6 6v56c0 3.324 2.676 6 6 6h12l-3 16 23-16h40c3.324 0 6-2.676 6-6v-56c0-3.324-2.676-6-6-6h-72z" fill="url(#linearGradient3989-209-298-97)" opacity=".45"/>
 </g>
 <g id="layer1">
  <path id="rect2419" d="m12 6c-3.324 0-6 2.676-6 6v56c0 3.324 2.676 6 6 6h12l-3 16 23-16h40c3.324 0 6-2.676 6-6v-56c0-3.324-2.676-6-6-6h-72z" fill="url(#linearGradient3948-440-61-959-682)"/>
  <rect id="rect3145" x="-104" y="6" width="84" height="84" rx="6" ry="6" fill="url(#linearGradient3151-494-882-850-196)"/>
  <path id="path3147" d="m-98 6c-3.324 0-6 2.676-6 6v2 68 2c0 0.33472 0.0413 0.6507 0.0937 0.96875 0.0487 0.2956 0.097 0.59692 0.1875 0.875 0.01 0.03038 0.0209 0.0636 0.0312 0.09375 0.0989 0.28777 0.23488 0.54745 0.375 0.8125 0.14459 0.27351 0.31562 0.53562 0.5 0.78125s0.37378 0.47347 0.59375 0.6875c0.43995 0.42806 0.94291 0.81453 1.5 1.0938 0.27854 0.13961 0.57347 0.24695 0.875 0.34375-0.2562-0.10022-0.48671-0.23627-0.71875-0.375-7e-3 -0.0044-0.0239 0.0045-0.0312 0-0.0319-0.0193-0.0623-0.04251-0.0937-0.0625-0.1204-0.0767-0.23102-0.16351-0.34375-0.25-0.10617-0.0808-0.21328-0.16111-0.3125-0.25-0.17793-0.16143-0.34746-0.34539-0.5-0.53125-0.10758-0.13026-0.21839-0.26528-0.3125-0.40625-0.0251-0.03838-0.0384-0.08587-0.0625-0.125-0.0648-0.10303-0.13023-0.20452-0.1875-0.3125-0.10101-0.19471-0.20568-0.4157-0.28125-0.625-8e-3 -0.02181-0.0236-0.04055-0.0312-0.0625-0.0318-0.09195-0.0358-0.18683-0.0625-0.28125-0.0303-0.10662-0.0704-0.20303-0.0937-0.3125-0.07298-0.34151-0.1251-0.6982-0.1251-1.0625v-2-68-2c0-2.7818 2.2182-5 5-5h2 68 2c2.7818 0 5 2.2182 5 5v2 68 2c0 0.3643-0.05212 0.72099-0.125 1.0625-0.04415 0.20689-0.08838 0.39766-0.15625 0.59375-0.0077 0.02195-0.0233 0.04069-0.03125 0.0625-0.06274 0.17374-0.13838 0.36745-0.21875 0.53125-0.04158 0.0828-0.07904 0.16995-0.125 0.25-0.0546 0.09721-0.12677 0.18835-0.1875 0.28125-0.09411 0.14096-0.20492 0.276-0.3125 0.40625-0.14317 0.17445-0.30314 0.347-0.46875 0.5-0.01117 0.0102-0.01998 0.02115-0.03125 0.03125-0.13839 0.12556-0.28509 0.23444-0.4375 0.34375-0.10257 0.07315-0.20432 0.15336-0.3125 0.21875-0.0074 0.0045-0.02384-0.0044-0.03125 0-0.23204 0.13873-0.46255 0.27478-0.71875 0.375 0.30153-0.0968 0.59646-0.20414 0.875-0.34375 0.55709-0.27922 1.0601-0.66569 1.5-1.0938 0.21997-0.21403 0.40937-0.44186 0.59375-0.6875s0.35541-0.50774 0.5-0.78125c0.14012-0.26505 0.27614-0.52473 0.375-0.8125 0.01041-0.03078 0.02133-0.06274 0.03125-0.09375 0.09046-0.27808 0.1388-0.5794 0.1875-0.875 0.0524-0.31805 0.09375-0.63403 0.09375-0.96875v-2-68-2c0-3.324-2.676-6-6-6h-72z" fill="url(#linearGradient3153-599-954-668-471)" opacity=".5"/>
  <path id="path3149" d="m-98 90c-3.324 0-6-2.676-6-6v-2-68-2c0-0.33472 0.0413-0.6507 0.0937-0.96875 0.0487-0.2956 0.097-0.59692 0.1875-0.875 0.01-0.03038 0.0209-0.0636 0.0312-0.09375 0.0989-0.28777 0.23488-0.54745 0.375-0.8125 0.14459-0.27351 0.31562-0.53562 0.5-0.78125s0.37378-0.47347 0.59375-0.6875c0.43995-0.42806 0.94291-0.81453 1.5-1.0938 0.27854-0.13961 0.57347-0.24695 0.875-0.34375-0.2562 0.10022-0.48671 0.23627-0.71875 0.375-7e-3 0.0044-0.0239-0.0045-0.0312 0-0.0319 0.0193-0.0623 0.04251-0.0937 0.0625-0.1204 0.0767-0.23102 0.16351-0.34375 0.25-0.10617 0.0808-0.21328 0.16111-0.3125 0.25-0.17793 0.16143-0.34746 0.34539-0.5 0.53125-0.10758 0.13026-0.21839 0.26528-0.3125 0.40625-0.0251 0.03838-0.0384 0.08587-0.0625 0.125-0.0648 0.10303-0.13023 0.20452-0.1875 0.3125-0.10101 0.19471-0.20568 0.4157-0.28125 0.625-8e-3 0.02181-0.0236 0.04055-0.0312 0.0625-0.0318 0.09195-0.0358 0.18683-0.0625 0.28125-0.0303 0.10662-0.0704 0.20303-0.0937 0.3125-0.07298 0.34151-0.1251 0.6982-0.1251 1.0625v2 68 2c0 2.7818 2.2182 5 5 5h2 68 2c2.7818 0 5-2.2182 5-5v-2-68-2c0-0.3643-0.05212-0.72099-0.125-1.0625-0.04415-0.20689-0.08838-0.39766-0.15625-0.59375-0.0077-0.02195-0.0233-0.04069-0.03125-0.0625-0.06274-0.17374-0.13838-0.36745-0.21875-0.53125-0.04158-0.0828-0.07904-0.16995-0.125-0.25-0.0546-0.09721-0.12677-0.18835-0.1875-0.28125-0.09411-0.14096-0.20492-0.276-0.3125-0.40625-0.14317-0.17445-0.30314-0.347-0.46875-0.5-0.01117-0.0102-0.01998-0.02115-0.03125-0.03125-0.13839-0.12556-0.28509-0.23444-0.4375-0.34375-0.10257-0.07315-0.20432-0.15336-0.3125-0.21875-0.0074-0.0045-0.02384 0.0044-0.03125 0-0.23204-0.13873-0.46255-0.27478-0.71875-0.375 0.30153 0.0968 0.59646 0.20414 0.875 0.34375 0.55709 0.27922 1.0601 0.66569 1.5 1.0938 0.21997 0.21403 0.40937 0.44186 0.59375 0.6875s0.35541 0.50774 0.5 0.78125c0.14012 0.26505 0.27614 0.52473 0.375 0.8125 0.01041 0.03078 0.02133 0.06274 0.03125 0.09375 0.09046 0.27808 0.1388 0.5794 0.1875 0.875 0.0524 0.31805 0.09375 0.63403 0.09375 0.96875v2 68 2c0 3.324-2.676 6-6 6h-72z" fill="url(#radialGradient3155-479-27-174-945)" opacity=".2"/>
  <path id="path3953" d="m12 6c-3.324 0-6 2.676-6 6v56c0 2.9085 2.0422 5.3174 4.7812 5.875-2.2021-0.53769-3.8125-2.4972-3.8125-4.875v-56c0-2.7974 2.2339-5.0312 5.0312-5.0312h72c2.7974 0 5.0312 2.2339 5.0312 5.0312v56c0 2.3778-1.6104 4.3373-3.8125 4.875 2.739-0.55765 4.7812-2.9665 4.7812-5.875v-56c0-3.324-2.676-6-6-6h-72zm12 68.031-3 15.969 22.969-15.969a0.9813 0.9813 0 0 0-0.53125 0.15625l-21.031 14.625 2.5625-13.625a0.9813 0.9813 0 0 0-0.96875-1.1562z" fill="url(#linearGradient3967-371-901-188-925)" opacity=".4"/>
  <path id="path3969" d="m12 6c-3.324 0-6 2.676-6 6v56c0 3.324 2.676 6 6 6h12l-3 16 23-16h40c3.324 0 6-2.676 6-6v-56c0-3.324-2.676-6-6-6h-72zm0 2h72c2.2515 0 4 1.7485 4 4v56c0 2.2515-1.7485 4-4 4h-40a1.9986 1.9986 0 0 0-1.1562 0.375l-18.969 13.188 2.0938-11.188a1.9986 1.9986 0 0 0-1.9688-2.375h-12c-2.2515 0-4-1.7485-4-4v-56c0-2.2515 1.7485-4 4-4z" fill="url(#radialGradient3982-530-457-698-218)" opacity=".2"/>
  <path id="path3240" d="m13.187 9.9869c-1.8171 0-3.1867 1.3633-3.1867 3.2085v37.673c5.4268-12.491 16.108-22.318 35.839-16.043 19.841 6.2974 32.498-2.9482 40.161-7.1591v-14.471c0-1.8452-1.3696-3.2085-3.1867-3.2085h-69.627z" fill="url(#linearGradient2890-206-477-642-235)"/>
 </g>
 <g id="layer5">
  <rect id="rect3171" transform="matrix(1 0 0 .74384 0 3.8423)" x="15" y="15" width="66" height="66" rx="12" ry="12" clip-path="url(#clipPath3613)" fill="url(#linearGradient3613-704-226-290)" filter="url(#filter4055)" opacity=".1" stroke="#fefefe" stroke-linecap="round" stroke-width=".57973"/>
 </g>
 <g id="layer4" transform="translate(-.3)" filter="url(#filter4309)">
  <path id="path4096" d="m61.812 14c-0.81769 0.0102-1.5813 0.12125-2.125 0.0625a0.98581 0.98581 0 0 0-0.09375-0.03125h-4.1562c-2.512-0.002204-3.6691 3.1844-2.0625 4.9688l-0.03125 0.03125c4.6054 6.4737 7.0589 14.402 6.7812 22.344a0.98581 0.98581 0 0 0 0 0.0625c0.17218 7.7857-2.4825 15.495-7 21.844-0.0052 0.0073 0.0052 0.02399 0 0.03125-0.0031 0.0044-0.02811-0.0044-0.03125 0-1.4303 2.0027 0.35294 4.8368 2.75 4.5938v0.0625c2.375-0.06106 4.8759 0.10438 7.4062-0.125a0.98581 0.98581 0 0 0 0.25-0.03125c1.068-0.399 1.7188-1.267 2.1875-2.0312s0.82338-1.4768 1.1875-1.9375a0.98581 0.98581 0 0 0 0.0625-0.09375c5.9929-9.6168 7.254-21.51 5.1875-32.406-1.2269-5.9425-3.8501-11.6-7.4688-16.438a0.98581 0.98581 0 0 0-0.21875-0.21875c-0.85978-0.5952-1.8073-0.6977-2.625-0.6875zm-35.906 10.031c-1.0716 0.0098-1.9547 0.66075-2.4062 1.4375-0.42386 0.72915-0.51709 1.595-0.40625 2.4062h-0.0625c0.05766 2.5079-0.09755 5.1242 0.125 7.7812a0.98581 0.98581 0 0 0 0.03125 0.15625c0.30172 1.1038 1.2364 1.7749 2.0938 2 0.84595 0.2221 1.6697 0.16198 2.3125 0.125v0.03125c2.2668-0.05662 4.6321 0.09813 7.0625-0.125a0.98581 0.98581 0 0 0 0.15625-0.03125c1.1038-0.30172 1.7749-1.2364 2-2.0938 0.2221-0.84595 0.16198-1.6697 0.125-2.3125h0.03125c-0.05662-2.2668 0.09813-4.6321-0.125-7.0625a0.98581 0.98581 0 0 0-0.03125-0.15625c-0.30172-1.1038-1.2364-1.7749-2.0938-2-0.83455-0.21911-1.6423-0.1617-2.2812-0.125v-0.03125h-6.5312zm14 11c-1.0716 0.0098-1.9547 0.66075-2.4062 1.4375-0.42386 0.72915-0.51709 1.595-0.40625 2.4062h-0.0625c0.08414 1.8386-0.19422 3.9229 0.1875 6.0625a0.98581 0.98581 0 0 0 0.0625 0.1875c0.51186 1.1895 1.7004 1.7122 2.6562 1.8125s1.8423-0.03625 2.4062 0a0.98581 0.98581 0 0 0 0.0625 0.03125c3.9614-0.04066 7.9758 0.08396 12-0.0625a0.98581 0.98581 0 0 0 0.09375-0.03125c1.0688-0.15137 1.8572-0.944 2.1875-1.75 0.31745-0.77454 0.33319-1.5606 0.25-2.2812h0.03125c-0.08221-1.7401 0.19517-3.7278-0.1875-5.7812a0.98581 0.98581 0 0 0-0.0625-0.1875c-0.51186-1.1895-1.7004-1.7122-2.6562-1.8125s-1.8423 0.03625-2.4062 0a0.98581 0.98581 0 0 0-0.0625-0.03125h-11.688zm-13.875 9c-1.0716 0.0098-1.9547 0.66075-2.4062 1.4375-0.42386 0.72915-0.51709 1.595-0.40625 2.4062h-0.0625c0.05646 2.477-0.09589 5.0615 0.125 7.6875a0.98581 0.98581 0 0 0 0.03125 0.15625c0.2579 0.97465 1.0147 1.6243 1.7812 1.9062 0.23735 0.08729 0.45042 0.02115 0.6875 0.0625-0.59404 1.3448-1.4626 2.6398-2.4062 3.9688a0.98581 0.98581 0 0 0-0.09375 0.1875c-0.91504 2.1293 1.0032 4.3998 3.2188 4.0938v0.03125c1.6421-0.08415 3.4969 0.20498 5.4688-0.1875a0.98581 0.98581 0 0 0 0.28125-0.09375c1.823-1.0078 2.4376-2.9916 3.0938-4.2188a0.98581 0.98581 0 0 0 0.03125-0.09375c2.0245-4.7749 1.5637-9.8728 1.5625-14.562a0.98581 0.98581 0 0 0-0.03125-0.0625c-0.057062-1.0871-0.7623-1.9393-1.5625-2.3438-0.74976-0.37896-1.5681-0.41051-2.3438-0.3125v-0.0625h-6.9688z" fill="#1c4268" opacity=".05"/>
  <path id="path4086" d="m55.438 15.031c-1.7096-0.0015-2.5013 2.297-1.2904 3.4456 4.7292 6.6477 7.2621 14.769 6.9766 22.936 0.17778 8.039-2.5725 15.95-7.2175 22.463-0.98715 1.3402 0.28438 3.3368 1.9079 3.0938 2.4427-0.0628 4.9227 0.12558 7.3421-0.09375 1.5297-0.57152 1.9872-2.4633 2.9316-3.6583 5.8326-9.3596 7.0857-20.983 5.0575-31.677-1.1958-5.792-3.7358-11.315-7.2703-16.04-1.2393-0.85791-2.864-0.31546-4.2828-0.46875h-4.1547zm-29.531 10c-1.4358 0.01312-2.0979 1.57-1.875 2.8174 0.05906 2.569-0.12035 5.1577 0.09375 7.7138 0.41558 1.5204 2.1691 1.4788 3.4309 1.4062 2.3333-0.05828 4.6861 0.11929 7.0066-0.09375 1.5204-0.41558 1.4788-2.1691 1.4062-3.4309-0.05828-2.3333 0.11929-4.6861-0.09375-7.0066-0.41558-1.5204-2.1691-1.4788-3.4309-1.4062h-6.5379zm14 11c-1.4358 0.01312-2.0979 1.57-1.875 2.8174 0.0898 1.9623-0.1886 3.9685 0.15625 5.9013 0.72586 1.6868 2.7754 1.1261 4.2171 1.2188 3.9885-0.04094 7.9906 0.08235 11.97-0.0625 1.4372-0.20353 1.7509-1.8328 1.5938-3.0378-0.08826-1.8681 0.18642-3.7797-0.15625-5.6184-0.72586-1.6868-2.7754-1.1261-4.2171-1.2188h-11.689zm-13.875 9c-1.4358 0.01312-2.0979 1.57-1.875 2.8174 0.05785 2.5378-0.11865 5.095 0.09375 7.6201 0.34493 1.3036 1.8234 1.5329 2.9688 1.4062-0.5436 2.0242-1.8568 3.6897-3.0312 5.3438-0.61428 1.4294 0.74568 3.0074 2.2368 2.75 1.78-0.09122 3.6143 0.1906 5.3569-0.15625 1.3811-0.76352 1.9868-2.4734 2.7014-3.8098 1.9018-4.4855 1.4561-9.441 1.4549-14.19-0.07657-1.4588-1.689-1.9823-2.9276-1.7812h-6.9786z" fill="#1c4268" opacity=".1"/>
  <path id="path4082" d="m55.344 16.031a0.9813 0.9813 0 0 0-0.625 1.5312c1.3181 1.9113 2.4415 3.7743 3.375 5.625 0.93129 1.8463 1.6943 3.7339 2.2812 5.625a0.9813 0.9813 0 0 0 0 0.03125c0.6048 1.8962 1.0671 3.8106 1.3438 5.8125 0.27717 1.9892 0.40624 4.1159 0.40625 6.3438-7e-6 2.2449-0.12884 4.3678-0.40625 6.375-0.27657 1.9848-0.73852 3.8838-1.3438 5.7812a0.9813 0.9813 0 0 0 0 0.03125c-0.5865 1.8898-1.3504 3.7648-2.2812 5.5938-0.93445 1.8525-2.0565 3.728-3.375 5.6562a0.9813 0.9813 0 0 0 0.8125 1.5312h7.0625a0.9813 0.9813 0 0 0 0.8125-0.40625c1.3143-1.8947 2.446-3.8013 3.4062-5.6875 0.95939-1.8845 1.7564-3.8246 2.375-5.8125 0.0029-0.0092-0.0028-0.02208 0-0.03125 0.63199-1.9868 1.1146-4.0745 1.4062-6.2188 0.30954-2.1669 0.43748-4.4261 0.4375-6.8438-1.5e-5 -2.4231-0.13034-4.7156-0.4375-6.8438-0.0014-0.0103 0.0014-0.02095 0-0.03125-0.2921-2.1336-0.77699-4.195-1.4062-6.1562-0.0029-0.0092 0.0029-0.02204 0-0.03125-0.61905-1.989-1.4151-3.9129-2.375-5.7812-0.96025-1.8862-2.0919-3.7928-3.4062-5.6875a0.9813 0.9813 0 0 0-0.8125-0.40625h-7.0625a0.9813 0.9813 0 0 0-0.1875 0zm-29.531 10a0.9813 0.9813 0 0 0-0.78125 0.96875v8a0.9813 0.9813 0 0 0 0.96875 0.96875h8a0.9813 0.9813 0 0 0 0.96875-0.96875v-8a0.9813 0.9813 0 0 0-0.96875-0.96875h-8a0.9813 0.9813 0 0 0-0.1875 0zm14 11a0.9813 0.9813 0 0 0-0.78125 0.96875v6a0.9813 0.9813 0 0 0 0.96875 0.96875h14a0.9813 0.9813 0 0 0 0.96875-0.96875v-6a0.9813 0.9813 0 0 0-0.96875-0.96875h-14a0.9813 0.9813 0 0 0-0.1875 0zm-13.875 9a0.9813 0.9813 0 0 0-0.78125 0.96875v7.9062a0.9813 0.9813 0 0 0 0.96875 0.96875h2.4062c-0.03863 0.17048-0.02553 0.28933-0.09375 0.5625-0.16454 0.65879-0.43833 1.3379-0.75 2.0312-0.31566 0.70214-0.64477 1.3948-1.0625 2.0312a0.9813 0.9813 0 0 0-0.03125 0c-0.41005 0.65072-0.84972 1.2719-1.3438 1.875a0.9813 0.9813 0 0 0 0.75 1.5938h5.0312a0.9813 0.9813 0 0 0 0.78125-0.375c0.47532-0.6499 0.9485-1.3411 1.3438-2.0938 0.39691-0.75588 0.72782-1.6077 1-2.5 0.27378-0.87855 0.46075-1.8026 0.59375-2.8125 0.0014-0.01075-0.0014-0.02049 0-0.03125 0.15209-1.0329 0.21874-2.1826 0.21875-3.4062v-5.75a0.9813 0.9813 0 0 0-0.96875-0.96875h-7.875a0.9813 0.9813 0 0 0-0.1875 0z" fill="#1c4268" opacity=".15"/>
  <path id="path4078" d="m55.531 17c1.341 1.9445 2.482 3.8558 3.4375 5.75 0.95547 1.8942 1.7403 3.8368 2.3438 5.7812 0.62022 1.9445 1.09 3.9382 1.375 6 0.28496 2.0451 0.40624 4.2058 0.40625 6.4688-7e-6 2.2797-0.12129 4.4382-0.40625 6.5-0.28497 2.0451-0.75478 4.0243-1.375 5.9688-0.60346 1.9445-1.3883 3.8726-2.3438 5.75-0.95548 1.8942-2.0965 3.82-3.4375 5.7812h7.0625c1.2907-1.8607 2.405-3.7186 3.3438-5.5625 0.9387-1.8439 1.709-3.743 2.3125-5.6875 0.62021-1.9445 1.09-3.9672 1.375-6.0625 0.30171-2.1121 0.43748-4.3384 0.4375-6.7188-1.5e-5 -2.397-0.13579-4.6402-0.4375-6.7188-0.28498-2.0953-0.75479-4.1035-1.375-6.0312-0.60347-1.9444-1.3738-3.8291-2.3125-5.6562-0.93872-1.8439-2.053-3.7018-3.3438-5.5625h-7.0625zm-29.531 10v8h8v-8h-8zm14 11v6h14v-6h-14zm-13.875 9v7.9062h3.5312c-9e-6 0.71349-0.09861 1.0499-0.28125 1.7812-0.18266 0.73132-0.45249 1.4562-0.78125 2.1875-0.32878 0.73132-0.69964 1.4606-1.1562 2.1562-0.43836 0.69565-0.92609 1.3444-1.4375 1.9688h5.0312c0.45661-0.62431 0.88469-1.2731 1.25-1.9688 0.36528-0.69566 0.68178-1.4742 0.9375-2.3125 0.25569-0.82052 0.43464-1.7065 0.5625-2.6875 0.1461-0.98105 0.21874-2.0862 0.21875-3.2812v-5.75h-7.875z" fill="#1c4268" opacity=".3"/>
  <path id="path4075" d="m55.531 16c1.341 1.9445 2.482 3.8558 3.4375 5.75 0.95547 1.8942 1.7403 3.8368 2.3438 5.7812 0.62022 1.9445 1.09 3.9382 1.375 6 0.28496 2.0451 0.40624 4.2058 0.40625 6.4688-7e-6 2.2797-0.12129 4.4382-0.40625 6.5-0.28497 2.0451-0.75478 4.0243-1.375 5.9688-0.60346 1.9445-1.3883 3.8726-2.3438 5.75-0.95548 1.8942-2.0965 3.82-3.4375 5.7812h7.0625c1.2907-1.8607 2.405-3.7186 3.3438-5.5625 0.9387-1.8439 1.709-3.743 2.3125-5.6875 0.62021-1.9445 1.09-3.9672 1.375-6.0625 0.30171-2.1121 0.43748-4.3384 0.4375-6.7188-1.5e-5 -2.397-0.13579-4.6402-0.4375-6.7188-0.28498-2.0953-0.75479-4.1035-1.375-6.0312-0.60347-1.9444-1.3738-3.8291-2.3125-5.6562-0.93872-1.8439-2.053-3.7018-3.3438-5.5625h-7.0625zm-29.531 10v8h8v-8h-8zm14 11v6h14v-6h-14zm-13.875 9v7.9062h3.5312c-9e-6 0.71349-0.09861 1.0499-0.28125 1.7812-0.18266 0.73132-0.45249 1.4562-0.78125 2.1875-0.32878 0.73132-0.69964 1.4606-1.1562 2.1562-0.43836 0.69565-0.92609 1.3444-1.4375 1.9688h5.0312c0.45661-0.62431 0.88469-1.2731 1.25-1.9688 0.36528-0.69566 0.68178-1.4742 0.9375-2.3125 0.25569-0.82052 0.43464-1.7065 0.5625-2.6875 0.1461-0.98105 0.21874-2.0862 0.21875-3.2812v-5.75h-7.875z" fill="#fefefe"/>
 </g>
</svg>
