<?xml version="1.0" encoding="UTF-8"?>
<svg id="svg77" width="96" height="96" version="1.1" xmlns="http://www.w3.org/2000/svg" xmlns:cc="http://creativecommons.org/ns#" xmlns:dc="http://purl.org/dc/elements/1.1/" xmlns:rdf="http://www.w3.org/1999/02/22-rdf-syntax-ns#" xmlns:xlink="http://www.w3.org/1999/xlink">
 <metadata id="metadata81">
  <rdf:RDF>
   <cc:Work rdf:about="">
    <dc:format>image/svg+xml</dc:format>
    <dc:type rdf:resource="http://purl.org/dc/dcmitype/StillImage"/>
   </cc:Work>
  </rdf:RDF>
 </metadata>
 <defs id="defs2410">
  <filter id="filter3794" x="-.192" y="-.192" width="1.384" height="1.384">
   <feGaussianBlur id="feGaussianBlur3796" stdDeviation="5.28"/>
  </filter>
  <linearGradient id="linearGradient3613" x1="48" x2="48" y1="20.221" y2="138.66" gradientUnits="userSpaceOnUse">
   <stop id="stop3739" stop-color="#fff" offset="0"/>
   <stop id="stop3741" stop-color="#fff" stop-opacity="0" offset="1"/>
  </linearGradient>
  <linearGradient id="buttonGradient" x1="48" x2="48" y1="90" y2="5.9877" gradientUnits="userSpaceOnUse">
   <stop id="stop3702" stop-color="#002e65" offset="0"/>
   <stop id="stop3704" stop-color="#3c608c" offset="1"/>
  </linearGradient>
  <linearGradient id="ButtonShadow-0" x1="45.448" x2="45.448" y1="92.54" y2="7.0165" gradientTransform="matrix(1.0059 0 0 .99417 100 0)" gradientUnits="userSpaceOnUse">
   <stop id="stop3750-8" offset="0"/>
   <stop id="stop3752-5" stop-opacity=".58824" offset="1"/>
  </linearGradient>
  <linearGradient id="linearGradient3780" x1="32.251" x2="32.251" y1="6.1317" y2="90.239" gradientTransform="matrix(1.0238 0 0 1.0119 -1.1429 -98.071)" gradientUnits="userSpaceOnUse" xlink:href="#ButtonShadow-0"/>
  <linearGradient id="linearGradient3721" x1="32.251" x2="32.251" y1="6.1317" y2="90.239" gradientTransform="translate(0,-97)" gradientUnits="userSpaceOnUse" xlink:href="#ButtonShadow-0"/>
  <clipPath id="clipPath4355">
   <rect id="rect4357" x="6" y="6" width="84" height="84" rx="6" ry="6" fill="#fff"/>
  </clipPath>
  <linearGradient id="linearGradient4390" x1="48" x2="48" y1="88" y2="-40" gradientTransform="matrix(1,0,0,-1,0,92)" gradientUnits="userSpaceOnUse">
   <stop id="stop4386" stop-color="#fff" offset="0"/>
   <stop id="stop4388" stop-color="#fff" stop-opacity="0" offset="1"/>
  </linearGradient>
 </defs>
 <g id="layer3">
  <g id="g32" fill="url(#linearGradient3780)">
   <path id="path3786" transform="scale(1,-1)" d="m12-95.021c-5.5111 0-10.022 4.51-10.022 10.021v71c0 5.5111 4.5104 10.021 10.021 10.021h72c5.5111 0 10.021-4.5104 10.021-10.021v-71c0-5.5111-4.5104-10.021-10.021-10.021h-72z" opacity=".08"/>
   <path id="path3778" transform="scale(1,-1)" d="m12-94.035c-4.9716 0-9.0352 4.0635-9.0352 9.0352v71c0 4.9716 4.0635 9.0352 9.0352 9.0352h72c4.9716 0 9.0352-4.0635 9.0352-9.0352v-71c0-4.9716-4.0635-9.0352-9.0352-9.0352h-72z" opacity=".1"/>
   <path id="path3770" transform="scale(1,-1)" d="m12-92.99c-4.4091 0-7.9902 3.5811-7.9902 7.9902v71c0 4.4091 3.5811 7.9902 7.9902 7.9902h72c4.4091 0 7.9902-3.5811 7.9902-7.9902v-71c0-4.4091-3.5811-7.9902-7.9902-7.9902h-72z" opacity=".2"/>
   <rect id="rect3723" transform="scale(1,-1)" x="5" y="-92" width="86" height="85" rx="7" ry="7" opacity=".3"/>
  </g>
  <rect id="rect3716" transform="scale(1,-1)" x="6" y="-91" width="84" height="84" rx="6" ry="6" fill="url(#linearGradient3721)" opacity=".45"/>
 </g>
 <g id="layer1">
  <rect id="button" x="6" y="6" width="84" height="84" rx="6" ry="6" fill="url(#buttonGradient)"/>
  <path id="rect4377" d="m12 6c-3.324 0-6 2.676-6 6v72c0 3.324 2.676 6 6 6h72c3.324 0 6-2.676 6-6v-72c0-3.324-2.676-6-6-6zm0 2h72c2.805 0 5 2.195 5 5v70c0 2.805-2.195 5-5 5h-72c-2.805 0-5-2.195-5-5v-70c0-2.805 2.195-5 5-5z" fill="url(#linearGradient4390)" opacity=".3"/>
 </g>
 <g id="layer5">
  <rect id="rect3171" x="15" y="15" width="66" height="66" rx="12" ry="12" clip-path="url(#clipPath4355)" fill="url(#linearGradient3613)" filter="url(#filter3794)" opacity=".1" stroke="#fff" stroke-linecap="round" stroke-width=".5"/>
 </g>
 <defs id="defs53">
  <linearGradient id="a" x1="8" x2="8" y1="1" y2="15" gradientUnits="userSpaceOnUse">
   <stop id="stop48" stop-color="#fafafa" offset="0"/>
   <stop id="stop50" stop-color="#ebebeb" offset="1"/>
  </linearGradient>
 </defs>
 <g id="g75">
  <path id="path55" transform="matrix(4,0,0,4,16,17)" d="m7.9121 0.75c-0.092653 0-0.18152 0.055692-0.22266 0.10547-0.041136 0.049777-0.05532 0.092707-0.066406 0.13086-0.022172 0.076305-0.024218 0.14218-0.021484 0.21094 0.00273 0.068756 0.012506 0.13719 0.033203 0.20703 0.020697 0.069842 0.043629 0.14602 0.13281 0.22266-0.011929-0.010332 0.064128 0.084445 0.11523 0.18945 0.037175 0.076384 0.060019 0.15269 0.082031 0.22461l-0.025391 0.00586a0.25002 0.25002 0 0 0-0.00586 0.00195c-0.40107 0.085196-0.71735 0.31122-0.81055 0.65039-0.093202 0.33918 0.022298 0.70956 0.26562 1.1094 0.079125 0.13033 0.092755 0.14949 0.10156 0.20508 0.00881 0.055589 0.00597 0.18969-0.00977 0.4707-0.023043 0.42692-0.02225 0.67461 0.046875 0.91992 0.11351 0.39196 0.38887 0.73044 0.75781 0.85938a0.25002 0.25002 0 0 0 0.00195 0c0.22111 0.076628 0.4938 0.081004 0.78516 0.066406 0.29136-0.014597 0.56915-0.047316 0.78711-0.14844 0.20846-0.097548 0.40634-0.26069 0.58203-0.44727 0.17569-0.18657 0.32577-0.38937 0.4043-0.60352 0.17138-0.4633 0.08704-1.0268-0.15625-1.5254a0.25002 0.25002 0 0 0 0-0.00195c-0.24401-0.49588-0.76569-1.0785-1.2383-1.3301-0.17834-0.093255-0.20646-0.12235-0.25391-0.22852-0.052937-0.12022-0.12322-0.20173-0.22266-0.32422-0.10012-0.12334-0.22274-0.26309-0.3457-0.39648-0.12297-0.13339-0.24604-0.26003-0.34961-0.35742-0.051787-0.048696-0.09795-0.090493-0.14258-0.125-0.022314-0.017254-0.044412-0.032795-0.072266-0.048828s-0.051187-0.042969-0.15234-0.042969zm-3.5781 0.96484a0.25002 0.25002 0 0 0-0.1875 0.091797c-0.00694 0.00701-0.018281 0.00358-0.025391 0.011719-0.083675 0.088816-0.10593 0.16373-0.13086 0.25195-0.026081 0.09229-0.044804 0.19767-0.060547 0.31445-0.031486 0.23357-0.047144 0.51413-0.041015 0.78906 0.0032819 0.23973-0.0017342 0.38307-0.013672 0.46289-0.012038 0.080492-0.021841 0.10144-0.0625 0.17188-0.18814 0.32559-0.28154 0.74123-0.30273 1.1602-0.021232 0.41958 0.029303 0.84069 0.18164 1.1797 0.25407 0.56044 0.70565 0.92638 1.334 1.0859 0.43359 0.11364 0.79708 0.087645 1.2051-0.0625a0.25002 0.25002 0 0 0 0.00195 0c0.5627-0.21188 0.95121-0.55346 1.0586-1.0039 0.10727-0.45-0.081908-0.93447-0.48438-1.3965v-0.00195c-0.28577-0.33128-0.39453-0.55562-0.39453-0.70899 0-0.36797-0.11938-0.72734-0.35742-0.98828-0.082788-0.091724-0.15099-0.18256-0.28906-0.23047-0.13798-0.047874-0.24588-0.02867-0.4082-0.013672h-0.00195c-0.17741 0.015402-0.34256 0.043955-0.45898 0.070312-0.00837-0.014052 0.00508 7.33e-4 -0.017578-0.048828-0.039192-0.090725-0.089844-0.31606-0.089844-0.39258 0-0.15309-0.035904-0.29559-0.087891-0.41992-0.025996-0.062164-0.055847-0.11897-0.097659-0.17383-0.041812-0.054857-0.092796-0.13556-0.24414-0.14844a0.25002 0.25002 0 0 0-0.019531 0 0.25002 0.25002 0 0 0-0.00586 0zm9.3711 1.8027 0.04883 0.00586a0.25002 0.25002 0 0 0-0.04883-0.00586zm0.04883 0.00586c-0.13023-0.025553-0.27294 0.057171-0.33008 0.13672-0.05714 0.079548-0.07647 0.15488-0.08789 0.23242-0.02285 0.15509-0.0049 0.32293 0.07031 0.48828a0.25002 0.25002 0 0 0 0 0.00195c0.01857 0.040739 0.04127 0.18538 0.04492 0.24609h-0.01953a0.25002 0.25002 0 0 0-2e-3 0c-0.24851 0.0027-0.45367 0.084597-0.625 0.21875a0.25002 0.25002 0 0 0-2e-3 0c-0.14474 0.11437-0.24871 0.27179-0.3457 0.44141-0.09667 0.16905-0.18218 0.30633-0.18555 0.51367 0.0014-0.056795 8e-3 -0.051322 0.0059-0.044922-0.0025 0.00722-0.0092 0.024133-0.01758 0.044922-0.01669 0.041578-0.04376 0.10101-0.07617 0.17383-0.06482 0.14564-0.15382 0.3402-0.25195 0.54297-0.10074 0.20816-0.19682 0.4189-0.27148 0.5918-0.07467 0.1729-0.12427 0.27271-0.15039 0.39453-0.06786 0.32452 0.0012 0.65171 0.20117 0.9043 0.19997 0.25259 0.50664 0.43551 0.9043 0.58398 0.35897 0.13511 0.7401 0.15397 1.1387 0.044922 0.63467-0.17386 1.0932-0.54975 1.3457-1.1035a0.25002 0.25002 0 0 0 0-0.00195c0.1227-0.27655 0.1528-0.4601 0.15044-0.94141-0.004884-0.64367-0.13844-1.1049-0.46289-1.5781v-0.00195c-0.06154-0.0921-0.179-0.36233-0.21875-0.51758l-2e-3 -0.00195c-0.058249-0.23593-0.18624-0.52688-0.32026-0.78321-0.067215-0.12855-0.13556-0.24673-0.20117-0.3418-0.03281-0.047531-0.06431-0.089606-0.10156-0.12891-0.0081-0.00859-0.03269-0.016125-0.04101-0.025391a0.25002 0.25002 0 0 0-0.14844-0.089844zm-12.631 3.6562c-0.026059-0.00569-0.072542 0.027213-0.11328 0.033203l0.027344-0.03125-0.17969 0.074219a0.25002 0.25002 0 0 0-0.070312 0.16211c-0.002731 0.018496-0.024854 0.045046-0.027344 0.0625-0.008939 0.062664-0.010966 0.12537-0.009766 0.19531 0.0024 0.13988 0.018006 0.30557 0.042969 0.47461 0.024963 0.16904 0.059474 0.34088 0.099609 0.49414 0.040136 0.15326 0.076905 0.27932 0.15234 0.39648-0.014988-0.023324 0.022779 0.052066 0.046875 0.13086 0.024096 0.078793 0.048787 0.17792 0.0625 0.26562 0.15598 1.0146 0.85567 1.9429 1.7402 2.2207 0.19002 0.06017 0.40822 0.06398 0.64453 0.04883 0.23567-0.01511 0.48001-0.05465 0.68945-0.12109 0.31448-0.09746 0.50521-0.20892 0.74609-0.46875a0.25002 0.25002 0 0 0 0-2e-3c0.259-0.27992 0.42811-0.57202 0.47851-0.87691 0.050308-0.30431-0.031611-0.61473-0.22656-0.86523-0.13683-0.1773-0.3778-0.36179-0.63281-0.51562l-0.00195-0.00195c-0.23026-0.141-0.63633-0.39056-0.88086-0.55664-0.37738-0.25522-0.58534-0.39606-0.73633-0.48633-0.15098-0.090268-0.25884-0.13252-0.37109-0.16602a0.25002 0.25002 0 0 0-0.00586-0.00195c-0.32223-0.088085-0.65776 0.013152-0.92187 0.24023-0.0078602-0.029588-0.025391-0.087282-0.025391-0.072266a0.25002 0.25002 0 0 0 0-0.00391c-0.002419-0.12994-0.046909-0.18758-0.087891-0.25195-0.040982-0.06437-0.088808-0.12328-0.14062-0.17773-0.051817-0.054455-0.10405-0.10305-0.16992-0.14453-0.032937-0.02074-0.067904-0.041376-0.12891-0.054688zm8.5879 1.1836c-0.32333 0.00251-0.69662 0.049713-1.1152 0.1543a0.25002 0.25002 0 0 0-0.00195 0c-0.58147 0.14579-1.0215 0.30871-1.3633 0.52734-0.3409 0.21809-0.57864 0.50031-0.71875 0.83789-0.055864 0.13168-0.098715 0.24841-0.11523 0.39063-0.01652 0.14221-0.011158 0.29425 0.00391 0.54102 0.014728 0.24359 0.0189 0.37889 0.00977 0.46094s-0.025626 0.12431-0.078125 0.24023a0.25002 0.25002 0 0 0 0 2e-3c-0.048022 0.10804-0.084208 0.16923-0.19141 0.28516-0.1072 0.11593-0.28547 0.27896-0.58398 0.54102-0.09737 0.08441-0.18431 0.16046-0.24219 0.28125-0.058111 0.12128-0.06942 0.23931-0.080078 0.39844-0.021852 0.30198 0.026584 0.4868 0.16797 0.79492 0.30671 0.6769 0.87157 1.1457 1.5605 1.3242a0.25002 0.25002 0 0 0 0.11328 0.05664c0.33602 0.06791 0.58837 0.06387 1.1348 2e-3 1.0707-0.12418 2.2146-0.38729 3.1855-0.70703 0.97023-0.31949 1.7573-0.67419 2.1719-1.0742 0.39482-0.37996 0.57838-0.80077 0.60547-1.3516 0.02452-0.52658-0.07263-0.97198-0.3125-1.2988-0.23988-0.32684-0.62699-0.50904-1.0664-0.51172-0.48359-0.0019-1.0228-0.3374-1.2168-0.73242v-0.00195c-0.20789-0.43035-0.5854-0.80211-0.99415-0.99033-0.25113-0.11616-0.54323-0.17248-0.87305-0.16992z" opacity=".15"/>
  <g id="Bevel1"></g>
  <g id="Bevel2"></g>
  <path id="base" transform="translate(16,16) scale(4)" d="m7.9124 1c-0.090991 0-0.077575 0.35499 0.018081 0.43719 0.10499 0.090935 0.26422 0.41678 0.30972 0.63771l0.036746 0.1638-0.29164 0.054794c-0.69701 0.14806-0.83175 0.64645-0.38263 1.3844 0.15748 0.2594 0.15923 0.25707 0.12774 0.81958-0.022748 0.42145-0.020415 0.63538 0.036746 0.83823 0.090991 0.31419 0.33947 0.60098 0.60136 0.6925 0.2893 0.10026 1.0913 0.063538 1.3853-0.072864 0.32138-0.15039 0.74076-0.59457 0.85683-0.91109 0.13649-0.36898 0.072909-0.88137-0.14582-1.3296-0.2094-0.42553-0.74951-1.0178-1.1304-1.2206-0.20065-0.10492-0.2963-0.19353-0.36455-0.34625-0.093324-0.21393-0.95482-1.1478-1.0575-1.1478m-3.5726 0.96531c-0.011665 0-0.027414 0.00699-0.036746 0.01807-0.10499 0.10492-0.17557 0.66044-0.1639 1.1839 0.0069992 0.49431-0.013415 0.59865-0.10966 0.76537-0.31672 0.54677-0.36455 1.5459-0.10966 2.1131 0.22806 0.50306 0.59261 0.80151 1.1665 0.94724 0.39896 0.10492 0.67893 0.084522 1.0575-0.054794 1.0341-0.38939 1.219-1.1501 0.4742-2.0041-0.30097-0.34858-0.45554-0.61964-0.45554-0.87437 0-0.31186-0.10499-0.61497-0.29164-0.81958-0.16857-0.18653-0.16857-0.19353-0.49228-0.1638-0.18256 0.015739-0.39429 0.052462-0.4742 0.072864-0.1324 0.03206-0.15923 0.015739-0.25547-0.20052-0.057161-0.13232-0.10966-0.35266-0.10966-0.49198 0-0.21393-0.1184-0.48498-0.20065-0.49198m9.3674 1.8035c-0.12774-0.025065-0.17557 0.28446-0.07291 0.51005 0.04783 0.10492 0.08224 0.28913 0.07291 0.40104l-0.01808 0.20052h-0.25547c-0.21406 0.00233-0.32605 0.047799-0.4742 0.1638-0.17557 0.13873-0.43512 0.59224-0.43746 0.76537 0 0.036724-0.16623 0.40979-0.36455 0.81958s-0.38029 0.83124-0.40129 0.92917c-0.1114 0.53278 0.20298 0.9245 0.94782 1.2026 0.31438 0.11833 0.62877 0.13407 0.98457 0.036724 0.58094-0.15914 0.95948-0.47158 1.1846-0.96531 0.11607-0.26173 0.13007-0.36199 0.12774-0.83823-0.004666-0.61497-0.11607-0.99737-0.41937-1.4392-0.093324-0.13873-0.20706-0.40979-0.25547-0.60098-0.095657-0.38939-0.49695-1.1588-0.62002-1.1839m-12.668 3.6613c-0.11141 0.11367 0.050161 1.2136 0.21873 1.4754 0.040829 0.063538 0.11374 0.28679 0.14582 0.49198 0.14115 0.92217 0.80667 1.7831 1.5678 2.0221 0.25956 0.08219 0.82008 0.04314 1.1846-0.07286 0.30097-0.09327 0.41004-0.15506 0.6381-0.40105 0.47187-0.51005 0.55353-1.0154 0.23681-1.4211-0.084575-0.10959-0.3348-0.31652-0.56519-0.45526-0.23039-0.14107-0.6381-0.39172-0.89299-0.56484-0.75417-0.51005-0.83175-0.55785-1.0388-0.61964-0.26656-0.072864-0.52611 0-0.74717 0.21859l-0.18256 0.18245-0.10966-0.18245c-0.057161-0.10259-0.090991-0.232-0.090991-0.29146-0.0023331-0.12533-0.30505-0.44418-0.36455-0.38239m8.6762 1.1839c-0.30097 0.0023317-0.65618 0.045467-1.0575 0.14573-1.1345 0.28446-1.6699 0.63071-1.9137 1.2206-0.10732 0.25298-0.12074 0.33226-0.090991 0.81958 0.029747 0.49198 0.020415 0.57359-0.090991 0.81958-0.11141 0.25065-0.23914 0.38472-0.83875 0.9111-0.18898 0.1638-0.21639 0.20518-0.23681 0.51005-0.020415 0.28213 7e-3 0.37132 0.14582 0.67385 0.29397 0.64878 0.82942 1.0836 1.4949 1.2206v0.01807c0.31438 0.06354 0.51736 0.06121 1.0575 0 2.101-0.24366 4.5227-1.0452 5.2133-1.7126 0.36221-0.34858 0.50336-0.67385 0.52845-1.1839 0.0455-0.97696-0.37621-1.5436-1.1304-1.5482-0.58911-0.0023-1.1963-0.37598-1.4401-0.87437-0.1779-0.36898-0.53311-0.71698-0.87491-0.87437-0.21173-0.09793-0.46487-0.14806-0.76584-0.14573" fill="url(#a)"/>
  <path id="path65" transform="translate(0,2)" d="m47.475 19.184c-0.14625 0.39004-0.051503 1.307 0.24805 1.5645 0.3763 0.32593 0.90906 1.3951 1.1504 2.252l0.23438-0.044922-0.14648-0.65625c-0.182-0.88372-0.81832-2.187-1.2383-2.5508-0.1206-0.10363-0.19558-0.32265-0.24805-0.56445zm-2.0449 7.0215c-0.19118 0.92218 0.12721 2.1039 0.98047 3.5059 0.36877 0.60743 0.51068 0.89798 0.55078 1.4512 0.060694-1.3662-0.019928-1.5768-0.55078-2.4512-0.57328-0.94195-0.88003-1.7735-0.98047-2.5059zm24.938 4.3652c-0.1015 0.42225-0.066063 1.033 0.16602 1.543 0.11751 0.25778 0.20695 0.63171 0.25586 0.98828l0.035157-0.38476c0.03732-0.44764-0.099696-1.1838-0.29102-1.6035-0.078514-0.17253-0.12954-0.35759-0.16602-0.54297zm-11.662 2.4043c-0.039262 0.42771-0.12523 0.83414-0.26172 1.2031-0.46428 1.2661-2.1422 3.043-3.4277 3.6445-1.176 0.54561-4.3838 0.69206-5.541 0.29102-1.0476-0.36608-2.0423-1.5128-2.4062-2.7695-0.097085-0.34453-0.14867-0.71215-0.17578-1.1328-0.013101 0.87138 0.016779 1.5686 0.17578 2.1328 0.36396 1.2568 1.3587 2.4035 2.4062 2.7695 1.1572 0.40104 4.365 0.25459 5.541-0.29102 1.2855-0.60156 2.9635-2.3785 3.4277-3.6445 0.23916-0.64652 0.31458-1.4062 0.26172-2.2031zm-27.666 2.166c-0.049872 1.4842 0.15441 2.961 0.64063 4.043 0.91224 2.0122 2.3705 3.2061 4.666 3.7891 1.5958 0.41968 2.7162 0.33656 4.2305-0.2207 2.6865-1.0116 3.9295-2.6514 3.6621-4.6113-0.21739 1.5152-1.447 2.7772-3.6621 3.6113-1.5143 0.55726-2.6346 0.64038-4.2305 0.2207-2.2956-0.58292-3.7538-1.7768-4.666-3.7891-0.37637-0.83753-0.58746-1.9125-0.64063-3.043zm44.951 7.7109c-0.021822 1.1563-0.12396 1.6223-0.50195 2.4746-0.90048 1.9749-2.4145 3.2248-4.7383 3.8613-1.4232 0.38938-2.6819 0.32684-3.9395-0.14648-2.3354-0.87197-3.5957-2.0284-3.8242-3.5117-0.26752 1.9766 0.98871 3.453 3.8242 4.5117 1.2575 0.47332 2.5163 0.53587 3.9395 0.14648 2.3238-0.63656 3.8378-1.8864 4.7383-3.8613 0.46428-1.0469 0.51909-1.4466 0.50977-3.3516-3.43e-4 -0.044801-0.007185-0.078855-0.007813-0.12305zm-55.963 2.2617c-0.14766 1.1987 0.41073 4.6056 0.99414 5.5117 0.16332 0.25415 0.45566 1.146 0.58398 1.9668 0.5646 3.6887 3.227 7.1338 6.2715 8.0898 1.0382 0.32876 3.2802 0.17103 4.7383-0.29297 1.2039-0.37308 1.6405-0.61956 2.5527-1.6035 1.2809-1.3846 1.8232-2.7573 1.6562-4.0059-0.15751 0.96557-0.70994 1.983-1.6562 3.0059-0.91224 0.98396-1.3489 1.2304-2.5527 1.6035-1.4581 0.464-3.7 0.62173-4.7383 0.29297-3.0445-0.956-5.7069-4.4012-6.2715-8.0898-0.12832-0.82076-0.42067-1.7126-0.58398-1.9668-0.46236-0.71809-0.90115-2.9938-0.99414-4.5117zm22.543 11.355c-0.025617 0.4147-0.016621 0.91429 0.033204 1.7305 0.019621 0.32451 0.025166 0.54937 0.035156 0.79492 0.027626-0.42334 0.016397-0.9423-0.035156-1.7949-0.01824-0.29878-0.023809-0.5-0.033204-0.73047zm29.115 5.9043c-0.12073 1.9537-0.69089 3.2304-2.1035 4.5898-2.7624 2.6696-12.448 5.875-20.852 6.8496-2.1606 0.24484-2.9729 0.25416-4.2305 0v-0.072266c-2.6619-0.548-4.8046-2.2857-5.9805-4.8809-0.36544-0.79639-0.52426-1.2315-0.57617-1.752-0.001583 0.022511-0.004301 0.033372-0.005859 0.05664-0.08166 1.1285 0.026751 1.4852 0.58203 2.6953 1.1759 2.5951 3.3185 4.3329 5.9805 4.8809v0.072266c1.2575 0.25416 2.0699 0.24484 4.2305 0 8.404-0.97464 18.089-4.18 20.852-6.8496 1.4488-1.3943 2.0149-2.6961 2.1152-4.7363 0.014002-0.30065-0.003843-0.57257-0.011719-0.85352z" opacity=".3" stroke-width="4"/>
  <path id="path70" transform="translate(0,2)" d="m47.65 18c-0.24925 0-0.28977 0.65822-0.17578 1.1836 0.040557-0.10816 0.096762-0.18359 0.17578-0.18359 0.41072 0 3.8552 3.7361 4.2285 4.5918 0.273 0.61088 0.65638 0.96509 1.459 1.3848 1.5236 0.8112 3.6839 3.1807 4.5215 4.8828 0.49042 1.005 0.7769 2.0874 0.8457 3.1074 0.11587-1.2814-0.19081-2.7654-0.8457-4.1074-0.8376-1.7021-2.9979-4.0716-4.5215-4.8828-0.8026-0.41968-1.186-0.77388-1.459-1.3848-0.37329-0.85572-3.8178-4.5918-4.2285-4.5918zm-14.291 3.8613c-0.04666 0-0.10916 0.027946-0.14648 0.072266-0.41996 0.41968-0.70293 2.6425-0.65625 4.7363 0.028 1.9772-0.054473 2.3937-0.43945 3.0605-0.79921 1.3797-1.169 3.4783-1.0781 5.4102 0.054707-1.628 0.41541-3.2661 1.0781-4.4102 0.38498-0.66688 0.46745-1.0833 0.43945-3.0605-0.04668-2.0938 0.23629-4.3166 0.65625-4.7363 0.037328-0.04432 0.099824-0.072266 0.14648-0.072266 0.32876 0.03928 0.79688 1.1138 0.79688 1.9648 0 0.55728 0.21081 1.4395 0.43945 1.9688 0.38496 0.86504 0.49188 0.93097 1.0215 0.80273 0.31964-0.081608 1.1662-0.23001 1.8965-0.29297 1.2948-0.11892 1.2945-0.089871 1.9688 0.65625 0.7466 0.81844 1.168 2.0299 1.168 3.2773 0 1.0189 0.61838 2.1037 1.8223 3.498 1.0443 1.1974 1.6213 2.3465 1.7656 3.4043 0.18855-1.3142-0.38185-2.8176-1.7656-4.4043-1.2039-1.3943-1.8223-2.4791-1.8223-3.498 0-1.2474-0.42137-2.4589-1.168-3.2773-0.67428-0.74612-0.67391-0.77517-1.9688-0.65625-0.73024 0.06296-1.5768 0.21136-1.8965 0.29297-0.5296 0.12824-0.63652 0.062306-1.0215-0.80273-0.22864-0.52928-0.43945-1.4115-0.43945-1.9688 0-0.85105-0.46812-1.9256-0.79688-1.9648zm15.514 1.1387-0.93164 0.17383c-1.8983 0.40325-2.726 1.4685-2.5117 3.0312 0.21134-1.0194 1.0479-1.7203 2.5117-2.0312l1.166-0.21875-0.14648-0.65625c-0.018921-0.09187-0.059893-0.19941-0.087891-0.29883zm21.951 6.0723c-0.41326-0.081091-0.61133 0.71388-0.45703 1.498 0.078094-0.32488 0.23484-0.54164 0.45703-0.49805l-0.00586 0.005859c0.49228 0.1004 2.0978 3.1768 2.4805 4.7344 0.19364 0.76476 0.6482 1.8494 1.0215 2.4043 1.1911 1.7351 1.6361 3.2526 1.6699 5.6348 0.004982-0.26394 0.009545-0.52292 0.007813-0.87695-0.0188-2.4599-0.46453-3.9905-1.6777-5.7578-0.37328-0.55492-0.82784-1.6395-1.0215-2.4043-0.38264-1.5576-1.9882-4.634-2.4805-4.7344l0.00586-0.005859zm-23.863 2.0898c-0.011327 0.25496-0.019254 0.47427-0.039063 0.82812-0.052355 0.96999-0.066036 1.6507-0.029297 2.2207 0.005738-0.38166 0.001583-0.70723 0.029297-1.2207 0.05222-0.93282 0.067459-1.4364 0.039063-1.8281zm23.828 1.9395-0.037109 0.41797h-1.0215c-0.85624 0.0093-1.3058 0.19029-1.8984 0.6543-0.70228 0.55492-1.7387 2.37-1.748 3.0625 0 0.1469-0.6657 1.6382-1.459 3.2773s-1.5215 3.3251-1.6055 3.7168c-0.096309 0.46061-0.096202 0.88983-0.033203 1.2988 0.013572-0.10028 0.011689-0.19593 0.033203-0.29883 0.084-0.39172 0.81219-2.0776 1.6055-3.7168s1.459-3.1304 1.459-3.2773c0.00936-0.69252 1.0458-2.5076 1.748-3.0625 0.5926-0.464 1.0422-0.645 1.8984-0.6543h1.0215l0.072266-0.80273c0.014397-0.17269-0.004439-0.39127-0.035157-0.61524zm-50.512 10.594c-0.055906-0.012199-0.10111-0.005504-0.13086 0.025391v0.001953c-0.14006 0.1429-0.16176 0.69494-0.11914 1.3906 0.022998-0.18671 0.059084-0.32935 0.11914-0.39062v-0.001953c0.238-0.24716 1.4497 1.028 1.459 1.5293 0 0.23784 0.13464 0.75566 0.36328 1.166l0.43945 0.73047 0.73047-0.73047c0.88424-0.87436 1.922-1.1665 2.9883-0.875 0.8282 0.24716 1.1376 0.44027 4.1543 2.4805 1.0196 0.69248 2.6507 1.6935 3.5723 2.2578 0.92156 0.55496 1.9234 1.3839 2.2617 1.8223 0.40713 0.52151 0.62991 1.0865 0.70898 1.6777 0.15665-0.96031-0.077273-1.8685-0.70898-2.6777-0.3383-0.43836-1.3402-1.2673-2.2617-1.8223-0.92156-0.56428-2.5527-1.5653-3.5723-2.2578-3.0167-2.0402-3.3261-2.2333-4.1543-2.4805-1.0662-0.29146-2.104 6.4e-4 -2.9883 0.875l-0.73047 0.73047-0.43945-0.73047c-0.22864-0.41036-0.36328-0.92818-0.36328-1.166-0.008138-0.43866-0.93678-1.4693-1.3281-1.5547zm34.574 4.7617c-1.2039 0.0093-2.6252 0.18098-4.2305 0.58203-4.538 1.1378-6.6791 2.5233-7.6543 4.8828-0.36348 0.85682-0.44838 1.2737-0.39648 2.5469 0.035565-0.57573 0.14695-0.95866 0.39648-1.5469 0.9752-2.3596 3.1163-3.745 7.6543-4.8828 1.6053-0.40105 3.0266-0.57273 4.2305-0.58203 1.2039-0.00932 2.2175 0.19031 3.0645 0.58203 1.3672 0.62956 2.7864 2.0221 3.498 3.498 0.9752 1.9936 3.4053 3.4888 5.7617 3.498 2.7847 0.016985 4.4153 1.9671 4.5098 5.3379 0.003095-0.050083 0.00921-0.095491 0.011719-0.14648 0.182-3.9078-1.5047-6.173-4.5215-6.1914-2.3564-0.0092-4.7865-1.5045-5.7617-3.498-0.7116-1.4759-2.1308-2.8685-3.498-3.498-0.84692-0.39172-1.8606-0.59135-3.0645-0.58203zm-12.213 10.537c-0.036138 0.55376-0.14784 0.92673-0.40039 1.4844-0.44564 1.0026-0.95508 1.539-3.3535 3.6445-0.75592 0.6552-0.86559 0.82154-0.94727 2.041-0.027919 0.38583-0.021111 0.673 0.005859 0.94336 0.081389-1.1573 0.19991-1.3417 0.94141-1.9844 2.3984-2.1055 2.9079-2.6419 3.3535-3.6445 0.37214-0.8217 0.45098-1.2409 0.40039-2.4844z" fill="#fff" stroke-width="4"/>
 </g>
</svg>
