<?xml version="1.0" encoding="UTF-8"?>
<!-- Created with Inkscape (http://www.inkscape.org/) -->
<svg id="svg2408" width="96" height="96" version="1.0" xmlns="http://www.w3.org/2000/svg" xmlns:cc="http://creativecommons.org/ns#" xmlns:dc="http://purl.org/dc/elements/1.1/" xmlns:rdf="http://www.w3.org/1999/02/22-rdf-syntax-ns#" xmlns:xlink="http://www.w3.org/1999/xlink">
 <defs id="defs2410">
  <linearGradient id="linearGradient4239">
   <stop id="stop4241" stop-color="#1d77ab" offset="0"/>
   <stop id="stop4243" stop-color="#0f557d" offset="1"/>
  </linearGradient>
  <linearGradient id="linearGradient3914">
   <stop id="stop3916" offset="0"/>
   <stop id="stop3918" stop-opacity="0" offset="1"/>
  </linearGradient>
  <linearGradient id="ButtonShadow" x1="45.448" x2="45.448" y1="92.54" y2="7.0165" gradientTransform="scale(1.0059 .99417)" gradientUnits="userSpaceOnUse">
   <stop id="stop3750" offset="0"/>
   <stop id="stop3752" stop-opacity=".58824" offset="1"/>
  </linearGradient>
  <linearGradient id="linearGradient3737">
   <stop id="stop3739" stop-color="#fff" offset="0"/>
   <stop id="stop3741" stop-color="#fff" stop-opacity="0" offset="1"/>
  </linearGradient>
  <filter id="filter3174">
   <feGaussianBlur id="feGaussianBlur3176" stdDeviation="1.71"/>
  </filter>
  <filter id="filter3794" x="-.192" y="-.192" width="1.384" height="1.384">
   <feGaussianBlur id="feGaussianBlur3796" stdDeviation="5.28"/>
  </filter>
  <linearGradient id="linearGradient3613" x1="48" x2="48" y1="20.221" y2="138.66" gradientUnits="userSpaceOnUse" xlink:href="#linearGradient3737"/>
  <clipPath id="clipPath3613">
   <rect id="rect3615" x="6" y="6" width="84" height="84" rx="6" ry="6" fill="#fff"/>
  </clipPath>
  <linearGradient id="ButtonShadow-0" x1="45.448" x2="45.448" y1="92.54" y2="7.0165" gradientTransform="matrix(1.0059 0 0 .99417 100 0)" gradientUnits="userSpaceOnUse">
   <stop id="stop3750-8" offset="0"/>
   <stop id="stop3752-5" stop-opacity=".58824" offset="1"/>
  </linearGradient>
  <linearGradient id="linearGradient3047" x1="48" x2="48" y1="90" y2="5.9877" gradientTransform="translate(100)" gradientUnits="userSpaceOnUse">
   <stop id="stop3702" stop-color="#2276c5" offset="0"/>
   <stop id="stop3704" stop-color="#68baf4" offset="1"/>
  </linearGradient>
  <linearGradient id="linearGradient3074" x1="72" x2="72" y1="8" y2="88" gradientUnits="userSpaceOnUse" xlink:href="#linearGradient4239"/>
  <linearGradient id="linearGradient3872" x1="32" x2="32" y1="6" y2="90" gradientUnits="userSpaceOnUse" xlink:href="#linearGradient4239"/>
  <radialGradient id="radialGradient3879" cx="48" cy="90.172" r="42" gradientTransform="matrix(1.1573 0 0 .99591 -7.551 .19713)" gradientUnits="userSpaceOnUse" xlink:href="#linearGradient3737"/>
  <linearGradient id="linearGradient3885" x1="36.357" x2="36.357" y1="6" y2="63.893" gradientUnits="userSpaceOnUse" xlink:href="#linearGradient3737"/>
  <linearGradient id="linearGradient3901" x1="32" x2="32" y1="26" y2="84" gradientTransform="translate(0,-20)" gradientUnits="userSpaceOnUse" xlink:href="#linearGradient3737"/>
  <linearGradient id="linearGradient3879" x1="48" x2="48" y1="80" y2="16" gradientUnits="userSpaceOnUse">
   <stop id="stop3875" stop-color="#dfdfdf" offset="0"/>
   <stop id="stop3877" stop-color="#fefefe" offset="1"/>
  </linearGradient>
  <radialGradient id="radialGradient3920" cx="48" cy="47.999" r="34.938" gradientTransform="matrix(1.3453 -3.8835e-8 3.3051e-8 1.1449 -16.572 -6.9543)" gradientUnits="userSpaceOnUse" xlink:href="#linearGradient3914"/>
  <linearGradient id="linearGradient3920" x1="49" x2="49" y1="91" y2="7" gradientUnits="userSpaceOnUse" xlink:href="#ButtonShadow-0"/>
  <linearGradient id="linearGradient3927" x1="38" x2="38" y1="94" y2="5" gradientUnits="userSpaceOnUse" xlink:href="#ButtonShadow-0"/>
  <linearGradient id="linearGradient3929" x1="45" x2="45" y1="95" y2="4" gradientUnits="userSpaceOnUse" xlink:href="#ButtonShadow-0"/>
  <linearGradient id="linearGradient3933" x1="50" x2="50" y1="92" y2="7" gradientUnits="userSpaceOnUse" xlink:href="#ButtonShadow-0"/>
  <linearGradient id="linearGradient3940" x1="47" x2="47" y1="93" y2="6" gradientUnits="userSpaceOnUse" xlink:href="#ButtonShadow-0"/>
  <linearGradient id="linearGradient3949" x1="32" x2="32" y1="88" y2="8" gradientUnits="userSpaceOnUse">
   <stop id="stop3858" stop-color="#b3b3b3" offset="0"/>
   <stop id="stop3860" stop-color="#e6e6e6" offset="1"/>
  </linearGradient>
  <linearGradient id="linearGradient4018" x1="48" x2="48" y1="80" y2="16" gradientUnits="userSpaceOnUse">
   <stop id="stop4038" stop-color="#b1d5ac" offset="0"/>
   <stop id="stop4040" stop-color="#f1faef" offset="1"/>
  </linearGradient>
  <linearGradient id="linearGradient4022" x1="32" x2="32" y1="88" y2="8" gradientUnits="userSpaceOnUse">
   <stop id="stop4032" stop-color="#97c08f" offset="0"/>
   <stop id="stop4034" stop-color="#b4d6af" offset="1"/>
  </linearGradient>
  <linearGradient id="linearGradient8074-2">
   <stop id="stop8076-1" stop-opacity="0" offset="0"/>
   <stop id="stop8078-94" offset=".49306"/>
   <stop id="stop8080-0" stop-opacity="0" offset="1"/>
  </linearGradient>
  <linearGradient id="linearGradient5188" x1="-17" x2="144" y1="-1194.6" y2="-1194.6" gradientTransform="matrix(.045867 0 0 1 -271.91 3045.3)" gradientUnits="userSpaceOnUse" xlink:href="#linearGradient8074-2"/>
  <linearGradient id="linearGradient5193" x1="-17" x2="144" y1="-1194.6" y2="-1194.6" gradientTransform="matrix(.074534 0 0 1 -655.73 2938.3)" gradientUnits="userSpaceOnUse" xlink:href="#linearGradient8074-2"/>
  <linearGradient id="linearGradient9334-5">
   <stop id="stop9336-3" stop-color="#0369a3" offset="0"/>
   <stop id="stop9338-4" stop-color="#023f62" offset="1"/>
  </linearGradient>
  <linearGradient id="linearGradient4672" x1="168.82" x2="168.82" y1="-1409.7" y2="-1156.2" gradientTransform="matrix(1.004 0 0 1.0096 -1.4991 -9.3664)" gradientUnits="userSpaceOnUse" xlink:href="#linearGradient9334-5"/>
  <linearGradient id="linearGradient8642-9-0">
   <stop id="stop8644-6-2" stop-color="#000061" offset="0"/>
   <stop id="stop8646-5-9" stop-color="#006f86" stop-opacity="0" offset="1"/>
  </linearGradient>
  <linearGradient id="linearGradient5338" x1="516.05" x2="495.67" y1="192.98" y2="192.98" gradientTransform="matrix(-.5 0 0 .60714 286 -53.68)" gradientUnits="userSpaceOnUse" xlink:href="#linearGradient8642-9-0"/>
  <linearGradient id="linearGradient5353" x1="298" x2="298" y1="-1587.6" y2="-1507.6" gradientTransform="matrix(.28571 0 0 .28571 -44.286 493.9)" gradientUnits="userSpaceOnUse">
   <stop id="stop19848-1-0" stop-color="#259dd2" offset="0"/>
   <stop id="stop19850-7-8" stop-color="#025583" offset="1"/>
  </linearGradient>
  <linearGradient id="linearGradient5501" x1="230" x2="230" y1="-581.64" y2="-577.57" gradientTransform="matrix(9.818 0 0 8 -2168.9 4579.1)" gradientUnits="userSpaceOnUse">
   <stop id="stop19798-9" stop-color="#44adeb" offset="0"/>
   <stop id="stop19800-3" stop-color="#aadcf7" offset="1"/>
  </linearGradient>
  <linearGradient id="linearGradient5503" x1="345" x2="345" y1="1173" y2="1178" gradientTransform="matrix(-8.8663 0 0 8.1065 3146.9 -9585.6)" gradientUnits="userSpaceOnUse">
   <stop id="stop10294-5" stop-color="#666" offset="0"/>
   <stop id="stop10296-7" stop-color="#333" offset="1"/>
  </linearGradient>
  <linearGradient id="linearGradient5505" x1="346.7" x2="361.37" y1="-1313.5" y2="-1303.8" gradientTransform="translate(-301 1261.6)" gradientUnits="userSpaceOnUse">
   <stop id="stop8676-0" stop-color="#fff" offset="0"/>
   <stop id="stop8678-5" stop-color="#fff" stop-opacity="0" offset="1"/>
  </linearGradient>
  <linearGradient id="linearGradient5507" x1="345" x2="345" y1="1173.9" y2="1178" gradientTransform="matrix(8.8663 0 0 8.1065 -3046.9 -9583.1)" gradientUnits="userSpaceOnUse">
   <stop id="stop8657-0" stop-color="#666" offset="0"/>
   <stop id="stop8659-7" stop-color="#1a1a1a" offset="1"/>
  </linearGradient>
  <linearGradient id="linearGradient5509" x1="298.19" x2="298.19" y1="-631.15" y2="-634.27" gradientTransform="matrix(2.5333 0 0 2.5333 -699.85 1569.1)" gradientUnits="userSpaceOnUse">
   <stop id="stop13216-6-7" stop-color="#18a303" offset="0"/>
   <stop id="stop13218-4-1" stop-color="#106802" offset="1"/>
  </linearGradient>
  <linearGradient id="linearGradient5511" x1="345" x2="345" y1="1173" y2="1178" gradientTransform="matrix(8.8663 0 0 8.1065 -3046.9 -9573)" gradientUnits="userSpaceOnUse">
   <stop id="stop9336-9-3" stop-color="#0369a3" offset="0"/>
   <stop id="stop9338-9-5" stop-color="#023f62" offset="1"/>
  </linearGradient>
  <linearGradient id="linearGradient5513" x1="337.37" x2="337.37" y1="-1311.4" y2="-1304.4" gradientTransform="translate(-301 1261.6)" gradientUnits="userSpaceOnUse">
   <stop id="stop8629-1" stop-color="#666" offset="0"/>
   <stop id="stop8631-8" stop-color="#666" stop-opacity=".5" offset="1"/>
  </linearGradient>
  <radialGradient id="radialGradient5515" cx="-1535.3" cy="-842.91" r="10" gradientTransform="matrix(-3.3157 0 0 -7.5844 -5016.4 -6481.3)" gradientUnits="userSpaceOnUse">
   <stop id="stop8550-7" stop-color="#fff" offset="0"/>
   <stop id="stop8552-3" stop-color="#00a8ff" stop-opacity="0" offset="1"/>
  </radialGradient>
  <linearGradient id="linearGradient5517" x1="337.37" x2="337.37" y1="-1311.4" y2="-1299.6" gradientTransform="translate(-301 1261.6)" gradientUnits="userSpaceOnUse">
   <stop id="stop8629-7-7" stop-color="#666" offset="0"/>
   <stop id="stop8631-0-3" stop-color="#666" stop-opacity=".5" offset="1"/>
  </linearGradient>
  <linearGradient id="linearGradient5519" x1="349.55" x2="349.55" y1="-1308.9" y2="-1302.7" gradientTransform="translate(-301 1261.6)" gradientUnits="userSpaceOnUse">
   <stop id="stop8637-3" stop-color="#808080" offset="0"/>
   <stop id="stop8639-0" stop-color="#666" offset="1"/>
  </linearGradient>
  <linearGradient id="linearGradient5521" x1="349.55" x2="349.55" y1="-1307.7" y2="-1301.2" gradientTransform="translate(-301 1261.6)" gradientUnits="userSpaceOnUse">
   <stop id="stop8637-5-5" stop-color="#808080" offset="0"/>
   <stop id="stop8639-8-2" stop-color="#666" offset="1"/>
  </linearGradient>
  <linearGradient id="linearGradient5523" x1="337.38" x2="337.38" y1="-1293.6" y2="-1287.5" gradientTransform="translate(-301 1261.6)" gradientUnits="userSpaceOnUse">
   <stop id="stop9155-2" stop-color="#0369a3" offset="0"/>
   <stop id="stop9157-5" stop-color="#047fc6" offset="1"/>
  </linearGradient>
  <linearGradient id="linearGradient5525" x1="445.7" x2="441.39" y1="1103.6" y2="1099.8" gradientUnits="userSpaceOnUse">
   <stop id="stop10757-8" stop-color="#e9b913" offset="0"/>
   <stop id="stop10759-3" stop-color="#ff0" offset="1"/>
  </linearGradient>
  <radialGradient id="radialGradient5537" cx="58" cy="44.923" r="10.5" gradientTransform="matrix(1.4286 0 0 .7619 -22.857 11.773)" gradientUnits="userSpaceOnUse">
   <stop id="stop5533" offset="0"/>
   <stop id="stop5535" stop-opacity="0" offset="1"/>
  </radialGradient>
  <linearGradient id="linearGradient5641" x1="297.25" x2="297.25" y1="-1601.6" y2="-1516.6" gradientTransform="matrix(.32258 0 0 .4 -56.387 678.66)" gradientUnits="userSpaceOnUse">
   <stop id="stop19848-5" stop-color="#259dd2" offset="0"/>
   <stop id="stop19850-1" stop-color="#065d8d" offset="1"/>
  </linearGradient>
  <linearGradient id="linearGradient5672" x1="516.05" x2="495.67" y1="192.98" y2="192.98" gradientTransform="matrix(.5 0 0 .64286 -190 -61.073)" gradientUnits="userSpaceOnUse" xlink:href="#linearGradient8642-9-0"/>
 </defs>
 <metadata id="metadata2413">
  <rdf:RDF>
   <cc:Work rdf:about="">
    <dc:format>image/svg+xml</dc:format>
    <dc:type rdf:resource="http://purl.org/dc/dcmitype/StillImage"/>
    <dc:title/>
   </cc:Work>
  </rdf:RDF>
 </metadata>
 <g id="layer2" display="none">
  <rect id="rect3745" x="5" y="7" width="86" height="85" rx="6" ry="6" fill="url(#ButtonShadow)" filter="url(#filter3174)" opacity=".9"/>
 </g>
 <g id="layer3">
  <path id="path3911" d="m55.188 4.0312c-1.5869 0.01273-3.1348 0.18348-4.5 0.0625a0.86417 0.86417 0 0 0-0.0625 0h-38.938c-3.4158 0.013813-6.2145 2.0686-7.9062 4.75-1.1703 1.8549-1.9221 4.0986-1.6562 6.4375h-0.03125c0.020721 23.544-0.041587 47.076 0.03125 70.625a0.86417 0.86417 0 0 0 0 0.0625c0.12991 1.4579 0.64278 2.7912 1.3438 3.9688 6.85e-5 1.54e-4 -0.021457-0.07213-0.03125-0.125 0.029603 0.08798 0.0497 0.14965 0.0625 0.1875 0.00647 0.01101 0.022369 0.01648 0.03125 0.03125 0.00759 0.01244 0.023609 0.01885 0.03125 0.03125a0.86417 0.86417 0 0 0 0.0625 0.09375c0.01166 0.01455 0.021588 0.02031 0.03125 0.03125 0.0058 0.0066-0.00442 0.02694 0 0.03125 0.00352 0.0055 0.027722-0.0055 0.03125 0a0.86417 0.86417 0 0 0 0.03125 0.03125c0.011239 9e-3 0.021767 0.02426 0.03125 0.03125 1.939 2.9603 5.3598 4.946 9.0312 4.625 0.03167-0.0028 0.06205 0.0031 0.09375 0 24.004-0.02052 48.023 0.04148 72.031-0.03125a0.86417 0.86417 0 0 0 0.0625 0c5.2327-0.42435 9.3636-5.3489 8.9375-10.625-0.0026-0.03164 0.0029-0.06208 0-0.09375v-43.812a0.86417 0.86417 0 0 0-0.0625-0.25c-0.71948-2.3758-2.2897-4.1666-3.9688-5.75-0.0898-0.08468-0.15965-0.16622-0.25-0.25 2.2179-0.09 4.3455-1.8786 4.25-4.3125-9.6e-4 -0.02446 0.03266-0.03792 0.03125-0.0625-0.07568-5.6739 0.16247-11.414-0.125-17.156a0.86417 0.86417 0 0 0-0.03125-0.0625c-0.67907-5.3493-6.008-9.0551-11.281-8.375v-0.03125h-14.875a0.86417 0.86417 0 0 0-0.03125 0c-2.4316 0.09487-3.934 2.3672-3.875 4.5625-1.183-1.152-2.3409-2.3246-3.5312-3.4688a0.86417 0.86417 0 0 0-0.15625-0.125c-1.5524-0.89071-3.2314-1.0439-4.8125-1.0312zm-51.75 85.344c-0.011805 0.08495-0.021775 0.15025-0.03125 0.21875-0.00282-0.01512 3.1e-6 -0.06256 0-0.0625-9.2e-6 1.78e-4 0.00988-0.07797 0.03125-0.15625z" fill="url(#linearGradient3929)" opacity=".08"/>
  <path id="path3904" d="m11.688 4.9688c-5.2554 0.021252-9.3844 5.1638-8.7188 10.298 0.020723 23.546-0.041577 47.094 0.03125 70.64 0.42997 4.8251 5.0026 8.5945 9.7946 8.125 24.037-0.02076 48.076 0.04156 72.112-0.03125 4.7551-0.38563 8.5632-4.9469 8.125-9.76v-43.896c-1.3032-4.3034-5.8288-6.6398-8.591-10.025-8.302-8.1513-16.488-16.431-24.873-24.491-2.7057-1.5524-5.9562-0.59554-8.9313-0.85919h-38.948zm55.906 0c-2.7592 0.10765-4.2159 3.9181-2.2188 5.8125 7.4288 7.2844 14.759 14.709 22.25 21.906 2.147 1.6008 5.5605-0.22021 5.4062-2.9062-0.0787-5.7262 0.16086-11.478-0.125-17.188-0.61775-4.8663-5.593-8.313-10.426-7.625h-14.886zm-62.969 4.25c-0.66471 0.70158-0.2456-0.13118 0 0zm-0.375 80.344c0.89304 0.4817 0.10435 0.18398 0 0z" fill="url(#linearGradient3927)" opacity=".1"/>
  <path id="path3899" d="m11.719 6.0312c-4.6749 0.016024-8.3359 4.6496-7.6875 9.2054 0.020755 23.525-0.041623 47.052 0.03125 70.576 0.078659 2.311 1.9991 4.959 3.5 5.8125 3.3251 2.2003 7.4995 1.0599 11.245 1.3438 22.002-0.02075 44.005 0.04153 66.005-0.03125 4.4715-0.3282 7.7293-4.8028 7.1562-9.1741v-43.295c-1.4333-3.955-5.6594-6.1916-8.2778-9.3991-8.2512-8.115-16.413-16.329-24.731-24.371-2.4836-1.2573-5.4163-0.42898-8.1118-0.66724h-39.129zm55.969 0c-2.2052 0.10754-2.9663 3.2728-1.117 4.4415 7.2399 7.0965 14.373 14.326 21.679 21.34 1.8365 1.3232 4.2485-0.71375 3.7188-2.7732-0.09408-5.5414 0.19478-11.109-0.15625-16.633-0.73426-4.2396-5.1462-6.9446-9.2964-6.375h-14.829z" fill="url(#linearGradient3940)" opacity=".2"/>
  <path id="path3883" d="m11.75 7c-4.167 0.034533-7.3503 4.169-6.75 8.2092 0.020805 23.503-0.041701 47.008 0.03125 70.51 0.30521 3.9776 4.3015 6.8153 8.1698 6.2812 23.839-0.020761 47.68 0.041565 71.518-0.03125 3.9948-0.29931 6.8102-4.3158 6.2812-8.1779 0-14.409 1e-6 -28.819 0-43.228-1.613-3.5952-5.4878-5.779-7.996-8.8047-8.2044-8.0813-16.344-16.235-24.6-24.26-2.3003-0.98539-4.9583-0.2882-7.419-0.4975h-39.235zm56.031 0c-1.584 0.12187-1.6593 2.3106-0.35901 2.9475 7.1644 7.0243 14.225 14.175 21.454 21.121 1.3987 0.74722 2.5434-0.93853 2.1235-2.2231-0.094791-5.4137 0.19606-10.858-0.15625-16.251-0.6326-3.7951-4.6203-6.115-8.2948-5.5938h-14.768z" fill="url(#linearGradient3933)" opacity=".3"/>
  <path id="path3873" d="m12 7c-3.324 0-6 2.676-6 6v11 50 11c0 3.324 2.676 6 6 6h7 65c3.324 0 6-2.676 6-6v-0.71875-10.281-33.562c0.0048-0.09367 0.0048-0.18758 0-0.28125-0.06619-0.63339-0.35863-1.2408-0.8125-1.6875-9.5355-9.5687-21.104-21.104-30.656-30.656-0.45453-0.46021-1.0746-0.75335-1.7188-0.8125h-44.094-0.71875zm55.312 0a1.4099 1.4099 0 0 0-0.84375 2.4062l21.125 21.125a1.4099 1.4099 0 0 0 2.4062-0.90625 1.4099 1.4099 0 0 0 0-0.09375v-12.531-3.7188-0.28125c0-3.324-2.676-6-6-6h-16.688z" fill="url(#linearGradient3920)" opacity=".45"/>
 </g>
 <g id="layer1">
  <path id="path3054" d="m12 6c-3.324 0-6 2.676-6 6v11 50 11c0 3.324 2.676 6 6 6h7 65c3.324 0 6-2.676 6-6v-0.71875-10.281-33.562c0.0048-0.09367 0.0048-0.18758 0-0.28125-0.06619-0.63339-0.35863-1.2408-0.8125-1.6875-9.5355-9.5687-21.104-21.104-30.656-30.656-0.45453-0.46021-1.0746-0.75335-1.7188-0.8125h-44.094z" fill="url(#linearGradient3872)"/>
  <path id="rect2419" d="m67.312 6a1.4099 1.4099 0 0 0-0.84375 2.4062l21.125 21.125a1.4099 1.4099 0 0 0 2.4062-0.90625 1.4099 1.4099 0 0 0 0-0.09375v-12.531-3.7188-0.28125c0-3.324-2.676-6-6-6h-16.688z" fill="url(#linearGradient3074)"/>
  <path id="path3615" d="m10.156 6.3438c-0.30153 0.096803-0.59646 0.20414-0.875 0.34375-0.55709 0.27922-1.0601 0.66569-1.5 1.0938-0.21997 0.21403-0.40937 0.44186-0.59375 0.6875s-0.35541 0.50774-0.5 0.78125c-0.1138 0.21527-0.22182 0.43013-0.3125 0.65625-0.02097 0.052285-0.04393 0.1022-0.0625 0.15625-0.01036 0.03015-0.02135 0.06337-0.03125 0.09375-6e-3 0.01873 0.0058 0.04369 0 0.0625-0.02154 0.07131-0.04532 0.14518-0.0625 0.21875-0.04593 0.19666-0.09198 0.39332-0.125 0.59375-0.0524 0.31805-0.09375 0.63403-0.09375 0.96875v2 9 50 9 2c0 3.324 2.676 6 6 6h7 65c3.324 0 6-2.676 6-6v-0.71875-1.2812-9-35.562a2.772 2.772 0 0 0 0-0.28125 2.772 2.772 0 0 0-0.8125-1.6875l-0.1875-0.1875v45.719 2c0 2.7818-2.2182 5-5 5h-2-68-2c-2.7818 0-5-2.2182-5-5v-2-68-2c0-0.3643 0.05212-0.72099 0.125-1.0625 0.02336-0.10947 0.06342-0.20588 0.09375-0.3125 0.0267-0.094419 0.03068-0.1893 0.0625-0.28125 0.0077-0.02195 0.02325-0.04069 0.03125-0.0625 0.07558-0.2093 0.18024-0.43029 0.28125-0.625 0.05727-0.10798 0.12274-0.20947 0.1875-0.3125 0.02405-0.03913 0.03741-0.08662 0.0625-0.125 0.09411-0.14096 0.20492-0.276 0.3125-0.40625 0.15254-0.18586 0.32207-0.36982 0.5-0.53125 0.09922-0.088888 0.20633-0.1692 0.3125-0.25 0.11273-0.086487 0.22336-0.1733 0.34375-0.25 0.03146-0.01999 0.06182-0.0432 0.09375-0.0625 0.0074-0.0045 0.02385 0.0044 0.03125 0 0.23204-0.13873 0.46255-0.27478 0.71875-0.375z" fill="url(#radialGradient3879)" opacity=".2"/>
  <rect id="rect3045" x="106" y="6" width="84" height="84" rx="6" ry="6" fill="url(#linearGradient3047)"/>
  <path id="path3049" d="m114 6 26 26v4l-30-30z" fill="#f0f"/>
  <path id="path3881" d="m67.312 6a1.4099 1.4099 0 0 0-1.125 2h15.812 2c2.7818 0 5 2.2182 5 5v2 14.875a1.4099 1.4099 0 0 0 1-1.125 1.4099 1.4099 0 0 0 0-0.125 1.4099 1.4099 0 0 0 0-0.09375v-12.531-2-1.7188-0.28125c0-3.324-2.676-6-6-6h-16.688z" fill="url(#linearGradient3885)" opacity=".3"/>
  <path id="path3888" d="m12 6c-3.324 0-6 2.676-6 6v11 50 11c0 2.9085 2.0422 5.3174 4.7812 5.875-2.2051-0.53621-3.8125-2.4908-3.8125-4.875v-11-50-11c0-2.8049 2.2264-5.0312 5.0312-5.0312h0.71875 44 0.09375c0.01105 0.0018 0.01709 0.02303 0.0625 0.03125 0.10732 0.01943 0.05104 0.0025 0.15625 0.03125 0.10521 0.02873 0.05395-0.0066 0.15625 0.03125 0.1023 0.03782 0.05765 0.01589 0.15625 0.0625s0.03085 0.0074 0.125 0.0625c0.09415 0.05505 0.03602 0.03068 0.125 0.09375s0.04187 0.02315 0.125 0.09375 0.04836 0.0474 0.125 0.125c9.5687 9.5355 21.104 21.104 30.656 30.656 0.07653 0.07532 0.05524 0.04337 0.125 0.125s0.03127 0.03767 0.09375 0.125 0.0078 0.03262 0.0625 0.125c0.05473 0.09238 0.04717 0.02825 0.09375 0.125s0.02441 0.05585 0.0625 0.15625c0.03809 0.1004 0.0019 0.0217 0.03125 0.125 0.02931 0.1033 0.01094 0.05081 0.03125 0.15625 0.0164 0.08517 0.02694 0.08025 0.03125 0.125 0.0011 0.02106-3.44e-4 0.02472 0 0.03125 6.89e-4 0.01307 0 0.02033 0 0.0625 0 0.06326 0.0032-6.76e-4 0 0.0625-6.73e-4 0.02083-6.73e-4 0.04167 0 0.0625v33.562 10.281 0.71875c0 2.3842-1.6074 4.3388-3.8125 4.875 2.739-0.55765 4.7812-2.9665 4.7812-5.875v-0.71875-10.281-33.562c0.0048-0.09367 0.0048-0.18758 0-0.28125-0.06619-0.63339-0.35863-1.2408-0.8125-1.6875-9.5355-9.5687-21.104-21.104-30.656-30.656-0.45453-0.46021-1.0746-0.75335-1.7188-0.8125h-44.094z" fill="url(#linearGradient3901)" opacity=".3"/>
  <g id="g21358" transform="matrix(.31005 0 0 .31005 -198.87 526.4)">
   <g id="g8106" transform="matrix(1 0 0 .99984 266.99 -261.18)" color="#000000" fill="url(#linearGradient4672)">
    <path id="path8108" d="m-39.993-1184.6c0 3.8673 3.6224 7.9298 7.7569 7.9298h191.99c4.627 0 8.2495-3.8705 8.2495-7.7455v-149.21c0-4.2249-0.51199-6.1833-3.4999-9.171l-85.324-85.298c-2.9882-2.9873-5.2737-4.5274-9.4996-4.5307l-101.74-0.08c-4.1335 0-7.9337 3.6832-7.9337 8.1221z" color="#000000" style="text-indent:0pt;text-transform:none"/>
    <path id="path8110" d="m103.26-1421.9 53.19 53.442c4.3386 4.3589 11.554 3.3243 11.554-3.5507v-52.442c0-4.2273-3.8264-8.1968-8.0317-8.1968h-53.19c-6.8375 0-7.1374 7.1146-3.5218 10.747z" color="#000000" style="text-indent:0pt;text-transform:none"/>
   </g>
   <use id="use14646" transform="translate(267)" width="5033" height="1085" xlink:href="#use9311"/>
   <use id="use14648" transform="translate(267)" width="5033" height="1085" xlink:href="#path6866"/>
   <use id="use14650" transform="translate(267)" width="5033" height="1085" xlink:href="#path6868"/>
   <use id="use14652" transform="translate(267)" width="5033" height="1085" xlink:href="#path6960"/>
   <use id="use14654" transform="translate(267)" width="5033" height="1085" xlink:href="#rect7927"/>
   <use id="use14656" transform="translate(267)" width="5033" height="1085" xlink:href="#rect8070"/>
   <use id="use14658" transform="translate(267)" width="5033" height="1085" xlink:href="#rect8098"/>
   <use id="use14660" transform="translate(267)" width="5033" height="1085" xlink:href="#rect7221"/>
   <use id="use14662" transform="translate(267)" width="5033" height="1085" xlink:href="#rect7225"/>
   <use id="use14664" transform="translate(267)" width="5033" height="1085" xlink:href="#path7319"/>
   <use id="use14666" transform="translate(267)" width="5033" height="1085" xlink:href="#path7323"/>
   <use id="use14668" transform="translate(267)" width="5033" height="1085" xlink:href="#rect7436"/>
   <use id="use14670" transform="translate(267)" width="5033" height="1085" xlink:href="#rect7438"/>
   <use id="use14672" transform="translate(267)" width="5033" height="1085" xlink:href="#rect7440"/>
   <use id="use14674" transform="translate(267)" width="5033" height="1085" xlink:href="#rect9509"/>
   <use id="use14676" transform="translate(267)" width="5033" height="1085" xlink:href="#rect9521"/>
   <use id="use14678" transform="translate(267)" width="5033" height="1085" xlink:href="#use14642"/>
   <use id="use14680" transform="translate(267)" width="5033" height="1085" xlink:href="#use14644"/>
  </g>
 </g>
 <g id="layer6">
  <path id="path3846" d="m14 12.031c-1.1559 0-1.9688 0.81282-1.9688 1.9688v9 33 17 8.2812 0.71875c0 1.0777 0.71755 1.837 1.75 1.9375 0.07491 0.0073 0.14056 0.03125 0.21875 0.03125h5 58 5c0.07224 0 0.1493-0.0086 0.21875-0.03125 1.0324-0.10053 1.75-0.85977 1.75-1.9375v-0.71875-8.2812-17-16.062c-9.3161-9.2883-18.604-18.604-27.906-27.906h-41.344-0.71875z" fill="url(#linearGradient3949)"/>
  <path id="path3910" d="m17.906 17.062c-0.45995 0.04302-0.84925 0.47558-0.84375 0.9375v9 42 9c-0.0037 0.49188 0.44562 0.94123 0.9375 0.9375h5 55c0.49188 0.0037 0.94123-0.44562 0.9375-0.9375v-9-27.406c-0.0027-0.24424-0.10626-0.48584-0.28125-0.65625l-23.594-23.594c-0.17041-0.17499-0.41201-0.27853-0.65625-0.28125h-36.406c-0.03122-0.0016-0.06253-0.0016-0.09375 0z" fill="url(#radialGradient3920)" opacity=".6"/>
  <path id="path3868" d="m18 18v9 42 9h5 55v-9-27.406l-23.594-23.594z" fill="url(#linearGradient3879)"/>
  <path id="path3882" d="m18 18v9 42 9h5 55v-9-27.406l-23.594-23.594zm1 1h35.031l22.969 22.969v27.031 8h-54-4v-8-42z" fill="#fff" opacity=".7"/>
  <path id="path3952" d="m14 12.031c-1.1559 0-1.9688 0.81282-1.9688 1.9688v9 33 17 8.2812 0.71875c0 1.0777 0.71755 1.837 1.75 1.9375 0.07491 0.0073 0.14056 0.03125 0.21875 0.03125h5 58 5c0.07224 0 0.1493-0.0086 0.21875-0.03125 1.0324-0.10053 1.75-0.85977 1.75-1.9375v-0.71875-8.2812-17-16.062c-9.3161-9.2883-18.604-18.604-27.906-27.906h-41.344-0.71875zm0 0.96875h0.71875 40.938c9.1136 9.1141 18.215 18.241 27.344 27.344v15.656 17 8.2812 0.71875c0 0.64842-0.26705 0.90956-0.875 0.96875a0.96732 0.96732 0 0 0-0.125 0.03125h-5-58-5c0.1193 0 0.09888-0.0094-0.125-0.03125-0.60795-0.059195-0.875-0.32033-0.875-0.96875v-0.71875-8.2812-17-33-9c0-0.70251 0.29749-1 1-1z" opacity=".1"/>
  <path id="path3851" d="m14 12.031c-1.1559 0-1.9688 0.81282-1.9688 1.9688v1c0-1.1559 0.81282-1.9688 1.9688-1.9688h0.71875 41.344c9.302 9.302 18.59 18.618 27.906 27.906v-1c-9.3161-9.2883-18.604-18.604-27.906-27.906h-41.344-0.71875z" opacity=".2"/>
  <path id="path3982" d="m14 12.031c-1.1559 0-1.9688 0.81282-1.9688 1.9688v9 33 17 8.2812 0.71875c0 1.0777 0.71755 1.837 1.75 1.9375 0.07491 0.0073 0.14056 0.03125 0.21875 0.03125h5 58 5c0.07224 0 0.1493-0.0086 0.21875-0.03125 1.0324-0.10053 1.75-0.85977 1.75-1.9375v-0.71875-8.2812-17-16.062c-9.3161-9.2883-18.604-18.604-27.906-27.906h-41.344-0.71875z" fill="url(#linearGradient3949)"/>
  <path id="path3984" d="m17.906 17.062c-0.45995 0.04302-0.84925 0.47558-0.84375 0.9375v9 42 9c-0.0037 0.49188 0.44562 0.94123 0.9375 0.9375h5 55c0.49188 0.0037 0.94123-0.44562 0.9375-0.9375v-9-27.406c-0.0027-0.24424-0.10626-0.48584-0.28125-0.65625l-23.594-23.594c-0.17041-0.17499-0.41201-0.27853-0.65625-0.28125h-36.406c-0.03122-0.0016-0.06253-0.0016-0.09375 0z" fill="url(#radialGradient3920)" opacity=".6"/>
  <path id="path3986" d="m18 18v9 42 9h5 55v-9-27.406l-23.594-23.594z" fill="url(#linearGradient3879)"/>
  <path id="path3988" d="m18 18v9 42 9h5 55v-9-27.406l-23.594-23.594zm1 1h35.031l22.969 22.969v27.031 8h-54-4v-8-42z" fill="#fff" opacity=".7"/>
  <path id="path3990" d="m14 12.031c-1.1559 0-1.9688 0.81282-1.9688 1.9688v9 33 17 8.2812 0.71875c0 1.0777 0.71755 1.837 1.75 1.9375 0.07491 0.0073 0.14056 0.03125 0.21875 0.03125h5 58 5c0.07224 0 0.1493-0.0086 0.21875-0.03125 1.0324-0.10053 1.75-0.85977 1.75-1.9375v-0.71875-8.2812-17-16.062c-9.3161-9.2883-18.604-18.604-27.906-27.906h-41.344-0.71875zm0 0.96875h0.71875 40.938c9.1136 9.1141 18.215 18.241 27.344 27.344v15.656 17 8.2812 0.71875c0 0.64842-0.26705 0.90956-0.875 0.96875a0.96732 0.96732 0 0 0-0.125 0.03125h-5-58-5c0.1193 0 0.09888-0.0094-0.125-0.03125-0.60795-0.059195-0.875-0.32033-0.875-0.96875v-0.71875-8.2812-17-33-9c0-0.70251 0.29749-1 1-1z" opacity=".1"/>
  <path id="path3992" d="m14 12.031c-1.1559 0-1.9688 0.81282-1.9688 1.9688v1c0-1.1559 0.81282-1.9688 1.9688-1.9688h0.71875 41.344c9.302 9.302 18.59 18.618 27.906 27.906v-1c-9.3161-9.2883-18.604-18.604-27.906-27.906h-41.344-0.71875z" opacity=".2"/>
  <path id="path3994" d="m14 12.031c-1.1559 0-1.9688 0.81282-1.9688 1.9688v9 33 17 8.2812 0.71875c0 1.0777 0.71755 1.837 1.75 1.9375 0.07491 0.0073 0.14056 0.03125 0.21875 0.03125h5 58 5c0.07224 0 0.1493-0.0086 0.21875-0.03125 1.0324-0.10053 1.75-0.85977 1.75-1.9375v-0.71875-8.2812-17-16.062c-9.3161-9.2883-18.604-18.604-27.906-27.906h-41.344-0.71875z" fill="url(#linearGradient3949)"/>
  <path id="path3996" d="m17.906 17.062c-0.45995 0.04302-0.84925 0.47558-0.84375 0.9375v9 42 9c-0.0037 0.49188 0.44562 0.94123 0.9375 0.9375h5 55c0.49188 0.0037 0.94123-0.44562 0.9375-0.9375v-9-27.406c-0.0027-0.24424-0.10626-0.48584-0.28125-0.65625l-23.594-23.594c-0.17041-0.17499-0.41201-0.27853-0.65625-0.28125h-36.406c-0.03122-0.0016-0.06253-0.0016-0.09375 0z" fill="url(#radialGradient3920)" opacity=".6"/>
  <path id="path3998" d="m18 18v9 42 9h5 55v-9-27.406l-23.594-23.594z" fill="url(#linearGradient3879)"/>
  <path id="path4000" d="m18 18v9 42 9h5 55v-9-27.406l-23.594-23.594zm1 1h35.031l22.969 22.969v27.031 8h-54-4v-8-42z" fill="#fff" opacity=".7"/>
  <path id="path4002" d="m14 12.031c-1.1559 0-1.9688 0.81282-1.9688 1.9688v9 33 17 8.2812 0.71875c0 1.0777 0.71755 1.837 1.75 1.9375 0.07491 0.0073 0.14056 0.03125 0.21875 0.03125h5 58 5c0.07224 0 0.1493-0.0086 0.21875-0.03125 1.0324-0.10053 1.75-0.85977 1.75-1.9375v-0.71875-8.2812-17-16.062c-9.3161-9.2883-18.604-18.604-27.906-27.906h-41.344-0.71875zm0 0.96875h0.71875 40.938c9.1136 9.1141 18.215 18.241 27.344 27.344v15.656 17 8.2812 0.71875c0 0.64842-0.26705 0.90956-0.875 0.96875a0.96732 0.96732 0 0 0-0.125 0.03125h-5-58-5c0.1193 0 0.09888-0.0094-0.125-0.03125-0.60795-0.059195-0.875-0.32033-0.875-0.96875v-0.71875-8.2812-17-33-9c0-0.70251 0.29749-1 1-1z" opacity=".1"/>
  <path id="path4004" d="m14 12.031c-1.1559 0-1.9688 0.81282-1.9688 1.9688v1c0-1.1559 0.81282-1.9688 1.9688-1.9688h0.71875 41.344c9.302 9.302 18.59 18.618 27.906 27.906v-1c-9.3161-9.2883-18.604-18.604-27.906-27.906h-41.344-0.71875z" opacity=".2"/>
 </g>
 <g id="layer7" display="none">
  <path id="path4006" d="m14 12.031c-1.1559 0-1.9688 0.81282-1.9688 1.9688v9 33 17 8.2812 0.71875c0 1.0777 0.71755 1.837 1.75 1.9375 0.07491 0.0073 0.14056 0.03125 0.21875 0.03125h5 58 5c0.07224 0 0.1493-0.0086 0.21875-0.03125 1.0324-0.10053 1.75-0.85977 1.75-1.9375v-0.71875-8.2812-17-16.062c-9.3161-9.2883-18.604-18.604-27.906-27.906h-41.344-0.71875z" display="inline" fill="url(#linearGradient4022)"/>
  <path id="path4008" d="m17.906 17.062c-0.45995 0.04302-0.84925 0.47558-0.84375 0.9375v9 42 9c-0.0037 0.49188 0.44562 0.94123 0.9375 0.9375h5 55c0.49188 0.0037 0.94123-0.44562 0.9375-0.9375v-9-27.406c-0.0027-0.24424-0.10626-0.48584-0.28125-0.65625l-23.594-23.594c-0.17041-0.17499-0.41201-0.27853-0.65625-0.28125h-36.406c-0.03122-0.0016-0.06253-0.0016-0.09375 0z" display="inline" fill="url(#radialGradient3920)" opacity=".6"/>
  <path id="path4010" d="m18 18v9 42 9h5 55v-9-27.406l-23.594-23.594z" display="inline" fill="url(#linearGradient4018)"/>
  <path id="path4012" d="m18 18v9 42 9h5 55v-9-27.406l-23.594-23.594zm1 1h35.031l22.969 22.969v27.031 8h-54-4v-8-42z" display="inline" fill="#fff" opacity=".5"/>
  <path id="path4014" d="m14 12.031c-1.1559 0-1.9688 0.81282-1.9688 1.9688v9 33 17 8.2812 0.71875c0 1.0777 0.71755 1.837 1.75 1.9375 0.07491 0.0073 0.14056 0.03125 0.21875 0.03125h5 58 5c0.07224 0 0.1493-0.0086 0.21875-0.03125 1.0324-0.10053 1.75-0.85977 1.75-1.9375v-0.71875-8.2812-17-16.062c-9.3161-9.2883-18.604-18.604-27.906-27.906h-41.344-0.71875zm0 0.96875h0.71875 40.938c9.1136 9.1141 18.215 18.241 27.344 27.344v15.656 17 8.2812 0.71875c0 0.64842-0.26705 0.90956-0.875 0.96875a0.96732 0.96732 0 0 0-0.125 0.03125h-5-58-5c0.1193 0 0.09888-0.0094-0.125-0.03125-0.60795-0.059195-0.875-0.32033-0.875-0.96875v-0.71875-8.2812-17-33-9c0-0.70251 0.29749-1 1-1z" display="inline" opacity=".1"/>
  <path id="path4016" d="m14 12.031c-1.1559 0-1.9688 0.81282-1.9688 1.9688v1c0-1.1559 0.81282-1.9688 1.9688-1.9688h0.71875 41.344c9.302 9.302 18.59 18.618 27.906 27.906v-1c-9.3161-9.2883-18.604-18.604-27.906-27.906h-41.344-0.71875z" display="inline" fill="#117002" opacity=".2"/>
 </g>
 <g id="layer5" display="none">
  <rect id="rect3171" x="15" y="15" width="66" height="66" rx="12" ry="12" clip-path="url(#clipPath3613)" fill="url(#linearGradient3613)" filter="url(#filter3794)" opacity=".1" stroke="#fff" stroke-linecap="round" stroke-width=".5"/>
 </g>
 <g id="layer4">
  <rect id="use9342" x="-657" y="1743.6" width="12" height="1" color="#000000" fill="url(#linearGradient5193)" opacity=".5"/>
  <rect id="use9314" transform="rotate(90)" x="-272.69" y="1850.6" width="7.3846" height="1" color="#000000" fill="url(#linearGradient5188)" opacity=".5"/>
  <rect id="rect8348" x="44" y="36" width="24" height="16" color="#000000" fill="url(#linearGradient5353)"/>
  <path id="path5677" d="m58 36v16h10v-16h-10z" color="#000000" fill="url(#linearGradient5672)" opacity=".5"/>
  <path id="path5633" d="m32 38v2h10v-2zm-4 4v2h14v-2zm0 4v2h14v-2zm0 4v2h14v-2zm0 4v2h40v-2zm0 4v2h40v-2zm0 4v2h40v-2zm0 4v2h40v-2zm0 4v2h26v-2z" color="#000000" fill="url(#linearGradient5641)"/>
  <path id="path5668" d="m32 38v2h6v-2h-6zm-4 4v2h10v-2h-10zm0 4v2h10v-2h-10zm0 4v2h10v-2h-10zm0 4v2h10v-2h-10zm0 4v2h10v-2h-10zm0 4v2h10v-2h-10zm0 4v2h10v-2h-10zm0 4v2h10v-2h-10z" color="#000000" fill="url(#linearGradient5338)" opacity=".5"/>
  <rect id="rect5527" x="46" y="38" width="21" height="13" color="#000000" fill="url(#radialGradient5537)" opacity=".5"/>
  <g id="g5473" transform="matrix(.26315 0 0 .24958 42.842 56.488)">
   <rect id="rect8350" x="12.001" y="-73.998" width="75.998" height="48" color="#000000" fill="url(#linearGradient5501)"/>
   <path id="path9005" d="m67.344-59.86c-15.065 6.008-29.779 14.22-39.781 27.25 20.479 0 39.955-0.9876 60.435-0.9876l3e-3 -9.0436c-5.0684-4.3947-14.402-15.033-20.656-17.219z" color="#000000" fill="#fff" opacity=".5"/>
   <path id="path8352" d="m67.734-58.93c5.0666 2.5332 13.872 11.355 20.263 17.733v7.5997h-58.264c10.135-12.666 25.334-20.266 38.001-25.333z" color="#000000" fill="url(#linearGradient5503)"/>
   <path id="path8354" d="m49.13-44.206 0.44272-3.5773 6.6529-2.8463 3.7416-3.4959 6.579-2.6676s-1.7169 4.3216-1.7169 4.3216l-2.5648 4.493-1.5267 4.8826-1.0558 2.8131-10.552-3.9232z" fill="#333"/>
   <path id="path8661" d="m31.438-67.079c-6.449 9.7171-11.859 18.514-19.436 27.213l0.0676 7.0347c16.781 0 44.493 0.221 61.275 0.221-14.057-10.205-29.375-19.581-38.094-35.031-1.2011 1.0694-3.041-0.519-3.8125 0.5624z" color="#000000" fill="url(#linearGradient5505)" opacity=".5"/>
   <path id="path8356" d="m51.267-47.531c-7.5831-6.2914-11.4-11.4-16.466-19-1.4816 0.4474-1.425 0.2772-2.5333 0 0 0-6.778 10.07-10.133 15.2-3.3551 5.1301-10.135 12.666-10.135 12.666v5.0665h58.264s-13.919-10.055-18.997-13.933z" color="#000000" fill="url(#linearGradient5507)"/>
   <path id="path8358" d="m88-38.664h-3.2656s-14.467 2.5333-14.467 2.5333-14.296-3.7999-16.447-3.7999c-2.113 0-8.8858 1.2666-10.153 1.2666-0.88823 0-6.3325-2.5332-7.6199-2.5332-2.1242 0-4.572 2.6915-10.905 3.7998 0 0-1.8196-4.0372-3.007-3.7998-7.5998 2.9292-10.135 2.5332-10.135 2.5332v12.666h75.997l2e-3 -12.666h2.8e-4z" color="#000000" fill="url(#linearGradient5509)"/>
   <path id="path8360" d="m12.001-36.131-9.9e-4 10.133h65.867l2.5333-2.5333-2.5333-2.5332-5.0666-2.5334s-12.666-2.5332-12.666-2.5332l-12.666-1.2667-11.4 1.2667h-15.2-8.8665z" color="#000000" fill="url(#linearGradient5511)"/>
   <path id="path8362" d="m17.068-41.197s3.6093-5.7939 3.6093-5.7939 4.278-5.063 4.278-5.063 3.2666-5.9502 3.2666-5.9502l4.0458-5.9926-2.746 7.5677s-2.0107 6.2344-2.0107 6.2344l-0.97249 3.9328-1.8147 4.19c-0.73049-0.5328-1.654-0.5525-2.4869-0.8228l-2.3784 0.9322s-2.7906 0.7654-2.7906 0.7654z" fill="#333"/>
   <path id="path8366" d="m26.361-41.085 2.7237-6.8784 1.3284-7.1007 1.9213-4.3839 1.1995-4.5486 1.665 4.6804 0.47301 4.4696 2.0141 3.9818 1.9966 4.5749 0.37323 3.2315-3.3538 0.9414-3.1858-1.2421-3.5217 2.2848h-3.6336z" fill="url(#linearGradient5513)"/>
   <path id="path8368" d="m59.013-39.926-4.4373-3.1983-2.8341-2.261 2.7525 4.2894 4.5189 1.1699z" fill="#808080"/>
   <rect id="rect8544" transform="matrix(0,-1,-1,0,0,0)" x="41.998" y="-88" width="32" height="76" color="#000000" fill="url(#radialGradient5515)"/>
   <path id="path8372" transform="matrix(0 1.9777 -3.2 0 3607 -946.62)" d="m448.77 1099.7c0 2.5888-3.3957 4.6875-7.5845 4.6875v-4.6875z" color="#000000" fill="#e9b913" opacity=".5"/>
   <path id="path8374" d="m62.73-42.976 1.5659-5.0425 1.9213-4.3839 1.1995-4.5482 1.665 4.6803s2.1355 3.9947 2.1355 3.9947l1.5391 3.9818s-0.2199 4.2582-0.2199 4.2582 2.1149 2.1231 2.1149 2.1231l-4.3537-0.2356-8.787-1.8183s1.2195-3.0101 1.2195-3.0101z" color="#000000" fill="url(#linearGradient5517)"/>
   <path id="path8376" d="m52.534-41.197s-3.6885-5.5898-3.6885-5.5898-6.5411-7.1331-6.5411-7.1331-5.4117-7.1153-5.4117-7.1153-2.0917-2.9615-2.0917-2.9615 2.267 7.6889 2.267 7.6889 2.4863 4.611 2.4863 4.611l2.2055 7.0438 0.64107 3.456s2.2771 0.763 2.2771 0.763 3.4808-0.8064 3.4808-0.8064c1.4613-0.1444 2.9226 0.026 4.3752 0.044z" fill="url(#linearGradient5519)"/>
   <path id="path8378" d="m86.971-40.168-2.976-1.7897s-4.1661-5.7083-4.1661-5.7083l-6.1242-5.2942-4.7833-3.9905 0.92119 3.3345s4.2279 6.6695 4.2279 6.6695l0.46386 6.0147 2.541 1.9517 5.6999-1.1083 4.1957-0.078z" color="#000000" fill="url(#linearGradient5521)"/>
   <path id="path8380" d="m12.027-33.531-0.0257 7.5336h63.332v-2.5333l-2.5333-2.5332-12.666-2.5334-12.666-1.2665-12.666 1.2665-13.709 0.3778z" color="#000000" fill="url(#linearGradient5523)"/>
   <path id="path9073" d="m47.502-36.065-12.72 1.4419-13.569 1.0378-8.2752 0.029 8.1567 0.3393 13.984-0.021 12.391-1.2813 12.688 1.209 5.6442 1.101 6.9496 1.6177 2.2812 2.1875 0.3125 2.4063h1.1562l0.20512-2.7873-3.4111-3.2617-13.2-2.4813z" color="#000000" fill="#0088b7"/>
   <path id="path8382" d="m39.868-28.531 2.5333-2.5332h10.133l7.5998 2.5332 2.5333 2.5333h-5.0666s-17.733-2.5333-17.733-2.5333z" fill="#1c99e0" opacity=".5"/>
   <path id="path8616" d="m34.812-63.998 1.5625 5.9062c1.2843 2.3781 3.8039 3.3846 5.8839 5.4107 3.0035 2.9257 6.3388 6.3819 7.6161 7.4956l-1.0312-1.5938-6.5312-7.1562-5.4062-7.0938z" fill="#fff" opacity=".4"/>
   <path id="path8644" d="m32.281-63.998-3.2696 7.6132-3.2616 9.1368-3.5736 4.3728c0.51396 0.1149 2.1057 0.4962 2.5424 0.8147l1.8125-4.1875 0.96875-3.9375 2.0312-6.25z" opacity=".25"/>
   <path id="path8669" d="m36.031-41.185c-2.0688 0-4.4331 2.5305-10.406 3.6875l-0.21875 0.125c0.10772 0.037 0.48667 0.1051 1.8125-0.094 1.7678-0.2652 8.0599-2.9322 9.5625-2.8437 1.5026 0.088 5.9911 2.6508 6.875 2.5625 0.88388-0.089 9.3778-1.3224 10.969-0.9688 1.591 0.3535 16.188 3.625 16.188 3.625l13.938-2.5625 3.25 0.094v-1.0938h-3.2812l-14.438 2.5313s-14.318-3.8125-16.469-3.8125c-2.113 0-8.8889 1.2812-10.156 1.2812-0.88823 0-6.3376-2.5312-7.625-2.5312z" fill="#ff0" opacity=".35"/>
   <path id="path9046" transform="matrix(0 1.714 -2.7733 0 3137.8 -830.2)" d="m448.77 1099.7c0 2.5888-3.3957 4.6875-7.5845 4.6875v-4.6875z" color="#000000" fill="url(#linearGradient5525)" opacity=".74"/>
   <path id="path9050" d="m72-73.998c0 8.8432 7.1566 16 16 16v-0.9884c-8.2975 0-15.012-6.7142-15.012-15.012h-0.98842z" color="#000000" fill="#fff" opacity=".5"/>
   <path id="path9064" d="m68.906-56.967 0.9375 3.3438 4.2188 6.6875 0.46875 6 2.5312 1.9687 0.4375-0.094-2.25-2.25-0.4375-5.75-2.4129-3.709 6.4754 3.459 5.125 5.3437-4.1562-5.6875-6.125-5.3125zm15.094 15 0.25 0.2813-0.0625-0.1563z" fill="#fff" opacity=".4"/>
   <path id="rect9059" d="m12-73.998v48h76v-48h-76zm1 1h74v46h-74v-46z" color="#000000" fill="#fff" opacity=".35"/>
  </g>
  <path id="path5670" d="m58 54v2h10v-2h-10zm0 4v2h10v-2h-10zm0 4v2h10v-2h-10zm0 4v2h10v-2h-10z" color="#000000" fill="url(#linearGradient5672)" opacity=".5"/>
 </g>
</svg>
