<?xml version="1.0" encoding="UTF-8"?>
<!-- Created with Inkscape (http://www.inkscape.org/) -->
<svg id="svg2408" width="96" height="96" version="1.0" xmlns="http://www.w3.org/2000/svg" xmlns:cc="http://creativecommons.org/ns#" xmlns:dc="http://purl.org/dc/elements/1.1/" xmlns:rdf="http://www.w3.org/1999/02/22-rdf-syntax-ns#" xmlns:xlink="http://www.w3.org/1999/xlink">
 <defs id="defs2410">
  <linearGradient id="ButtonShadow" x1="45.448" x2="45.448" y1="92.54" y2="7.0165" gradientTransform="scale(1.0059 .99417)" gradientUnits="userSpaceOnUse">
   <stop id="stop3750" offset="0"/>
   <stop id="stop3752" stop-opacity=".58824" offset="1"/>
  </linearGradient>
  <linearGradient id="linearGradient3737">
   <stop id="stop3739" stop-color="#fff" offset="0"/>
   <stop id="stop3741" stop-color="#fff" stop-opacity="0" offset="1"/>
  </linearGradient>
  <filter id="filter3174" color-interpolation-filters="sRGB">
   <feGaussianBlur id="feGaussianBlur3176" stdDeviation="1.71"/>
  </filter>
  <linearGradient id="linearGradient3238">
   <stop id="stop3240" stop-color="#171717" offset="0"/>
   <stop id="stop3242" stop-color="#4d4d4d" stop-opacity="0" offset="1"/>
  </linearGradient>
  <linearGradient id="linearGradient3250">
   <stop id="stop3252" stop-color="#919191" offset="0"/>
   <stop id="stop3254" stop-color="#919191" stop-opacity="0" offset="1"/>
  </linearGradient>
  <linearGradient id="ButtonShadow-0" x1="45.448" x2="45.448" y1="92.54" y2="7.0165" gradientTransform="matrix(1.0059 0 0 .99417 100 0)" gradientUnits="userSpaceOnUse">
   <stop id="stop3750-8" offset="0"/>
   <stop id="stop3752-5" stop-opacity=".58824" offset="1"/>
  </linearGradient>
  <linearGradient id="linearGradient3780" x1="32.251" x2="32.251" y1="6.1317" y2="90.239" gradientTransform="matrix(1.0238 0 0 1.0119 -1.1429 -98.071)" gradientUnits="userSpaceOnUse" xlink:href="#ButtonShadow-0"/>
  <linearGradient id="linearGradient3721" x1="32.251" x2="32.251" y1="6.1317" y2="90.239" gradientTransform="translate(0,-97)" gradientUnits="userSpaceOnUse" xlink:href="#ButtonShadow-0"/>
  <linearGradient id="linearGradient4082-7">
   <stop id="stop4084-2" stop-color="#fce94f" offset="0"/>
   <stop id="stop4086-3" stop-color="#fce94f" stop-opacity="0" offset="1"/>
  </linearGradient>
  <linearGradient id="linearGradient3945" x1="29.971" x2="14.058" y1="29.815" y2="32.492" gradientTransform="matrix(-1.2379 -.28522 .28522 -1.2379 -40.153 104.79)" gradientUnits="userSpaceOnUse">
   <stop id="stop4084-6" stop-color="#fce94f" offset="0"/>
   <stop id="stop4086-7" stop-color="#fce94f" stop-opacity="0" offset="1"/>
  </linearGradient>
  <linearGradient id="linearGradient3948" x1="29.961" x2="13.415" y1="29.744" y2="29.937" gradientTransform="matrix(1.27 -.031459 .031459 1.27 -112.37 22.553)" gradientUnits="userSpaceOnUse">
   <stop id="stop4084" stop-color="#fce94f" offset="0"/>
   <stop id="stop4086" stop-color="#fce94f" stop-opacity="0" offset="1"/>
  </linearGradient>
  <linearGradient id="linearGradient3951" x1="28.947" x2="19.291" y1="31.88" y2="40.363" gradientTransform="matrix(1.2704 0 0 1.2704 -111.31 25.216)" gradientUnits="userSpaceOnUse" xlink:href="#linearGradient4082-7"/>
  <linearGradient id="linearGradient3954" x1="33.24" x2="41.812" y1="34.119" y2="42.536" gradientTransform="matrix(1.2704 0 0 1.2704 -110.55 22.369)" gradientUnits="userSpaceOnUse" xlink:href="#linearGradient4082-7"/>
  <linearGradient id="linearGradient3957" x1="33.741" x2="45.195" y1="26.179" y2="27.782" gradientTransform="matrix(1.0423 -.72628 .72628 1.0423 -121.06 51.983)" gradientUnits="userSpaceOnUse">
   <stop id="stop4084-87" stop-color="#fce94f" offset="0"/>
   <stop id="stop4086-266" stop-color="#fce94f" stop-opacity="0" offset="1"/>
  </linearGradient>
  <linearGradient id="linearGradient3960" x1="32.589" x2="37.857" y1="23.821" y2="13.464" gradientTransform="matrix(1.2704 0 0 1.2704 -110.99 22.409)" gradientUnits="userSpaceOnUse">
   <stop id="stop4084-9" stop-color="#fce94f" offset="0"/>
   <stop id="stop4086-26" stop-color="#fce94f" stop-opacity="0" offset="1"/>
  </linearGradient>
  <linearGradient id="linearGradient3963" x1="29.375" x2="23.125" y1="24.625" y2="14" gradientTransform="matrix(1.2136 -.37552 .37552 1.2136 -120.35 34.18)" gradientUnits="userSpaceOnUse">
   <stop id="stop4084-8" stop-color="#fce94f" offset="0"/>
   <stop id="stop4086-2" stop-color="#fce94f" stop-opacity="0" offset="1"/>
  </linearGradient>
  <linearGradient id="linearGradient4091" x1="5" x2="21" y1="28" y2="28" gradientTransform="matrix(1.125 0 0 1 .375 -4)" gradientUnits="userSpaceOnUse" xlink:href="#linearGradient3238"/>
  <linearGradient id="linearGradient4093" x1="5" x2="21" y1="27" y2="27" gradientTransform="matrix(1.125 0 0 1 .375 -10)" gradientUnits="userSpaceOnUse" xlink:href="#linearGradient3250"/>
  <linearGradient id="linearGradient4117" x1="36.357" x2="36.357" y1="6" y2="63.893" gradientUnits="userSpaceOnUse" xlink:href="#linearGradient3737"/>
  <linearGradient id="linearGradient4120" x1="5" x2="11.227" y1="64" y2="64" gradientTransform="translate(1 -15.321)" gradientUnits="userSpaceOnUse">
   <stop id="stop3296" stop-color="#383838" offset="0"/>
   <stop id="stop3298" stop-color="#494949" stop-opacity="0" offset="1"/>
  </linearGradient>
  <radialGradient id="radialGradient4132" cx="48" cy="90.172" r="42" gradientTransform="matrix(1.1573 0 0 .99591 -7.551 .19713)" gradientUnits="userSpaceOnUse" xlink:href="#linearGradient3737"/>
  <linearGradient id="linearGradient4139" x1="48" x2="48" y1="90" y2="5.9877" gradientTransform="matrix(1.0172 0 0 1.0172 -1.1034 -1.1034)" gradientUnits="userSpaceOnUse">
   <stop id="stop3189" stop-color="#f57900" offset="0"/>
   <stop id="stop3191" stop-color="#c05f00" offset="1"/>
  </linearGradient>
  <linearGradient id="linearGradient5114" x1="42.654" x2="63.366" y1="61.603" y2="56.405" gradientTransform="translate(.1875 2.1035e-7)" gradientUnits="userSpaceOnUse">
   <stop id="stop5110" stop-color="#f0f0f0" offset="0"/>
   <stop id="stop5112" stop-color="#8c8c8c" offset="1"/>
  </linearGradient>
  <radialGradient id="radialGradient5122" cx="56.812" cy="48" r="11.438" gradientTransform="matrix(.87878 0 1.6088e-8 3.213 7.0745 -106.22)" gradientUnits="userSpaceOnUse">
   <stop id="stop5118" stop-color="#505050" offset="0"/>
   <stop id="stop5120" offset="1"/>
  </radialGradient>
 </defs>
 <metadata id="metadata2413">
  <rdf:RDF>
   <cc:Work rdf:about="">
    <dc:format>image/svg+xml</dc:format>
    <dc:type rdf:resource="http://purl.org/dc/dcmitype/StillImage"/>
    <dc:title/>
   </cc:Work>
  </rdf:RDF>
 </metadata>
 <g id="layer2" display="none">
  <rect id="rect3745" x="5" y="7" width="86" height="85" rx="6" ry="6" fill="url(#ButtonShadow)" filter="url(#filter3174)" opacity=".9"/>
 </g>
 <g id="layer3">
  <path id="path3786" transform="scale(1,-1)" d="m12-95.031c-5.5111 0-10.031 4.5202-10.031 10.031v71c0 5.5111 4.5202 10.031 10.031 10.031h72c5.5111 0 10.031-4.5202 10.031-10.031v-71c0-5.5111-4.5202-10.031-10.031-10.031h-72z" fill="url(#linearGradient3780)" opacity=".08"/>
  <path id="path3778" transform="scale(1,-1)" d="m12-94.031c-4.9716 0-9.0312 4.0596-9.0312 9.0312v71c0 4.9716 4.0596 9.0312 9.0312 9.0312h72c4.9716 0 9.0312-4.0596 9.0312-9.0312v-71c0-4.9716-4.0596-9.0312-9.0312-9.0312h-72z" fill="url(#linearGradient3780)" opacity=".1"/>
  <path id="path3770" transform="scale(1,-1)" d="m12-93c-4.4091 0-8 3.5909-8 8v71c0 4.4091 3.5909 8 8 8h72c4.4091 0 8-3.5909 8-8v-71c0-4.4091-3.5909-8-8-8h-72z" fill="url(#linearGradient3780)" opacity=".2"/>
  <rect id="rect3723" transform="scale(1,-1)" x="5" y="-92" width="86" height="85" rx="7" ry="7" fill="url(#linearGradient3780)" opacity=".3"/>
  <rect id="rect3716" transform="scale(1,-1)" x="6" y="-91" width="84" height="84" rx="6" ry="6" fill="url(#linearGradient3721)" opacity=".45"/>
 </g>
 <rect id="rect2419" x="6" y="6" width="84" height="84" rx="6" ry="6" fill="url(#linearGradient4139)"/>
 <path id="rect3170" d="m12 6c-3.324 0-6 2.676-6 6v72c0 3.324 2.676 6 6 6h12v-84h-12z" fill="#555753"/>
 <path id="path3292" d="m12 6c-3.324 0-6 2.676-6 6v72c0 3.324 2.676 6 6 6h9.125v-84h-9.125z" fill="url(#linearGradient4120)"/>
 <g id="g3903" transform="translate(0,2)">
  <rect id="rect3236" x="6" y="20" width="18" height="2" fill="url(#linearGradient4091)"/>
  <rect id="rect3246" x="6" y="16" width="18" height="2" fill="url(#linearGradient4093)"/>
 </g>
 <path id="path5060" d="m31.685 32.826v30.349l16.403 16.362h17.823l16.403-16.362v-30.349l-16.403-16.362h-17.823z" fill="#555753" opacity=".87601"/>
 <path id="path5074" d="m56.855 31.424c5.0055-0.09993 9.6142 3.4994 10.056 8.4488 0.27459 3.0774-1.5608 7.2175-5.3015 8.3587l3.8884 16.347-18.072-0.11723 4.849-16.374c-3.5552-1.096-5.4779-5.3826-5.1828-8.391 0.52118-5.3122 5.0832-8.1788 9.7634-8.2722z" stroke="#ce5c00" stroke-width="8"/>
 <g id="g3907" transform="translate(0,20)">
  <rect id="rect3909" x="6" y="20" width="18" height="2" fill="url(#linearGradient4091)"/>
  <rect id="rect3911" x="6" y="16" width="18" height="2" fill="url(#linearGradient4093)"/>
 </g>
 <g id="g3917" transform="translate(0,56)">
  <rect id="rect3919" x="6" y="20" width="18" height="2" fill="url(#linearGradient4091)"/>
  <rect id="rect3921" x="6" y="16" width="18" height="2" fill="url(#linearGradient4093)"/>
 </g>
 <g id="g3927" transform="translate(0,38)">
  <rect id="rect3929" x="6" y="20" width="18" height="2" fill="url(#linearGradient4091)"/>
  <rect id="rect3931" x="6" y="16" width="18" height="2" fill="url(#linearGradient4093)"/>
 </g>
 <rect id="rect3941" x="24" y="6" width="1" height="84" fill="#fff" opacity=".1"/>
 <rect id="rect3943" x="23" y="6" width="1" height="84" opacity=".1"/>
 <path id="path4060" d="m56.855 31.424c5.0055-0.09993 9.6142 3.4994 10.056 8.4488 0.27459 3.0774-1.5608 7.2175-5.3015 8.3587l3.8884 16.347-18.072-0.11723 4.849-16.374c-3.5552-1.096-5.4779-5.3826-5.1828-8.391 0.52118-5.3122 5.0832-8.1788 9.7634-8.2722z" fill="url(#radialGradient5122)" stroke="url(#linearGradient5114)" stroke-width="3"/>
 <path id="path4057" d="m-75.438 53.859-15.982-7.5217 8.6097-8.2444 8.4038 14.497-1.032 1.2692z" color="#000000" display="none" fill="url(#linearGradient3963)"/>
 <path id="path4059" d="m-70.386 52.671 4.1967-14.065 5.2176 2.8356-8.2801 11.683-1.1343-0.45365z" color="#000000" display="none" fill="url(#linearGradient3960)"/>
 <path id="path4061" d="m-67.59 54.462 13.451-12.498 6.9755 9.7362-19.874 3.8412-0.55192-1.0792z" color="#000000" display="none" fill="url(#linearGradient3957)"/>
 <path id="path4063" d="m-67.854 65.229 18.332 8.8645-11.025 9.0522-8.4094-17.064 1.1022-0.85242z" color="#000000" display="none" fill="url(#linearGradient3954)"/>
 <path id="path4065" d="m-74.828 65.139-21.775 10.658 14.124 7.821 8.444-17.517-0.79339-0.9623z" color="#000000" display="none" fill="url(#linearGradient3951)"/>
 <path id="path4067" d="m-72.666 59.512-25.434 7.822 0.30247-12.184 24.897 3.7622 0.23404 0.59961z" display="none" fill="url(#linearGradient3948)"/>
 <path id="path4067-3" d="m-69.552 58.704 23.712-1.8419-0.38028 9.3527-23.406-6.5818 0.07438-0.92902z" display="none" fill="url(#linearGradient3945)"/>
 <path id="rect5015" d="m24.625 8v80h47.281 5.5312 7.4688c2.2681 0 4.0938-1.8257 4.0938-4.0938v-6.5-6.5-45.812-13c0-2.2681-1.8257-4.0938-4.0938-4.0938h-6.875-53.406zm2.5938 3.25h34.156 13.781 11.062v11.062 16.719 17.938 16.719 11.062h-11.062-13.781-34.156v-73.5z" fill="#555753" opacity=".45"/>
 <path id="path3615" d="m12 90c-3.324 0-6-2.676-6-6v-2-68-2c0-0.33472 0.04135-0.6507 0.09375-0.96875 0.0487-0.2956 0.09704-0.59692 0.1875-0.875 0.00988-0.03038 0.020892-0.0636 0.03125-0.09375 0.098865-0.28777 0.23488-0.54745 0.375-0.8125 0.14459-0.27351 0.31562-0.53562 0.5-0.78125s0.37378-0.47347 0.59375-0.6875c0.43995-0.42806 0.94291-0.81453 1.5-1.0938 0.27854-0.13961 0.57347-0.24695 0.875-0.34375-0.2562 0.10022-0.48671 0.23627-0.71875 0.375-0.00741 0.0044-0.023866-0.0045-0.03125 0-0.031933 0.0193-0.062293 0.04251-0.09375 0.0625-0.1204 0.0767-0.23102 0.16351-0.34375 0.25-0.10617 0.0808-0.21328 0.16111-0.3125 0.25-0.17793 0.16143-0.34746 0.34539-0.5 0.53125-0.10758 0.13026-0.21839 0.26528-0.3125 0.40625-0.025089 0.03838-0.038446 0.08587-0.0625 0.125-0.064763 0.10303-0.13023 0.20452-0.1875 0.3125-0.10101 0.19471-0.20567 0.4157-0.28125 0.625-0.00796 0.02181-0.023589 0.04055-0.03125 0.0625-0.031825 0.09195-0.035804 0.18683-0.0625 0.28125-0.030332 0.10662-0.070389 0.20303-0.09375 0.3125-0.072879 0.34151-0.125 0.6982-0.125 1.0625v2 68 2c0 2.7818 2.2182 5 5 5h2 68 2c2.7818 0 5-2.2182 5-5v-2-68-2c0-0.3643-0.05212-0.72099-0.125-1.0625-0.04415-0.20689-0.08838-0.39766-0.15625-0.59375-0.0077-0.02195-0.0233-0.04069-0.03125-0.0625-0.06274-0.17374-0.13838-0.36745-0.21875-0.53125-0.04158-0.0828-0.07904-0.16995-0.125-0.25-0.0546-0.09721-0.12677-0.18835-0.1875-0.28125-0.09411-0.14096-0.20492-0.276-0.3125-0.40625-0.14317-0.17445-0.30314-0.347-0.46875-0.5-0.01117-0.0102-0.01998-0.02115-0.03125-0.03125-0.13839-0.12556-0.28509-0.23444-0.4375-0.34375-0.10257-0.07315-0.20432-0.15336-0.3125-0.21875-0.0074-0.0045-0.02384 0.0044-0.03125 0-0.23204-0.13873-0.46255-0.27478-0.71875-0.375 0.30153 0.0968 0.59646 0.20414 0.875 0.34375 0.55709 0.27922 1.0601 0.66569 1.5 1.0938 0.21997 0.21403 0.40937 0.44186 0.59375 0.6875s0.35541 0.50774 0.5 0.78125c0.14012 0.26505 0.27614 0.52473 0.375 0.8125 0.01041 0.03078 0.02133 0.06274 0.03125 0.09375 0.09046 0.27808 0.1388 0.5794 0.1875 0.875 0.0524 0.31805 0.09375 0.63403 0.09375 0.96875v2 68 2c0 3.324-2.676 6-6 6h-72z" fill="url(#radialGradient4132)" opacity=".2"/>
 <path id="rect3728" d="m12 6c-3.324 0-6 2.676-6 6v2 68 2c0 0.33472 0.04135 0.6507 0.09375 0.96875 0.0487 0.2956 0.09704 0.59692 0.1875 0.875 0.00988 0.03038 0.020892 0.0636 0.03125 0.09375 0.098865 0.28777 0.23488 0.54745 0.375 0.8125 0.14459 0.27351 0.31562 0.53562 0.5 0.78125s0.37378 0.47347 0.59375 0.6875c0.43995 0.42806 0.94291 0.81453 1.5 1.0938 0.27854 0.13961 0.57347 0.24695 0.875 0.34375-0.2562-0.10022-0.48671-0.23627-0.71875-0.375-0.00741-0.0044-0.023866 0.0045-0.03125 0-0.031933-0.0193-0.062293-0.04251-0.09375-0.0625-0.1204-0.0767-0.23102-0.16351-0.34375-0.25-0.10617-0.0808-0.21328-0.16111-0.3125-0.25-0.17793-0.16143-0.34746-0.34539-0.5-0.53125-0.10758-0.13026-0.21839-0.26528-0.3125-0.40625-0.025089-0.03838-0.038446-0.08587-0.0625-0.125-0.064763-0.10303-0.13023-0.20452-0.1875-0.3125-0.10101-0.19471-0.20567-0.4157-0.28125-0.625-0.00796-0.02181-0.023589-0.04055-0.03125-0.0625-0.031825-0.09195-0.035804-0.18683-0.0625-0.28125-0.030332-0.10662-0.070389-0.20303-0.09375-0.3125-0.072879-0.34151-0.125-0.6982-0.125-1.0625v-2-68-2c0-2.7818 2.2182-5 5-5h2 68 2c2.7818 0 5 2.2182 5 5v2 68 2c0 0.3643-0.05212 0.72099-0.125 1.0625-0.04415 0.20689-0.08838 0.39766-0.15625 0.59375-0.0077 0.02195-0.0233 0.04069-0.03125 0.0625-0.06274 0.17374-0.13838 0.36745-0.21875 0.53125-0.04158 0.0828-0.07904 0.16995-0.125 0.25-0.0546 0.09721-0.12677 0.18835-0.1875 0.28125-0.09411 0.14096-0.20492 0.276-0.3125 0.40625-0.14317 0.17445-0.30314 0.347-0.46875 0.5-0.01117 0.0102-0.01998 0.02115-0.03125 0.03125-0.13839 0.12556-0.28509 0.23444-0.4375 0.34375-0.10257 0.07315-0.20432 0.15336-0.3125 0.21875-0.0074 0.0045-0.02384-0.0044-0.03125 0-0.23204 0.13873-0.46255 0.27478-0.71875 0.375 0.30153-0.0968 0.59646-0.20414 0.875-0.34375 0.55709-0.27922 1.0601-0.66569 1.5-1.0938 0.21997-0.21403 0.40937-0.44186 0.59375-0.6875s0.35541-0.50774 0.5-0.78125c0.14012-0.26505 0.27614-0.52473 0.375-0.8125 0.01041-0.03078 0.02133-0.06274 0.03125-0.09375 0.09046-0.27808 0.1388-0.5794 0.1875-0.875 0.0524-0.31805 0.09375-0.63403 0.09375-0.96875v-2-68-2c0-3.324-2.676-6-6-6h-72z" fill="url(#linearGradient4117)" opacity=".4"/>
 <path id="path3189" d="m28 10v0.49836 5.2016 0.49836h0.49948 4.5578v4.1426h-1.4984v-2.118-0.49836h-0.49948-2.5598-0.49948v0.49836 2.6164 0.49836h0.49948 2.0604v53.325h-2.0604-0.49948v0.49836 2.6475 0.49836h0.49948 2.5598 0.49948v-0.49836-2.1492h1.4984v4.1426h-4.5578-0.49948v0.49836 5.2016 0.49836h0.49948 5.0572 0.49948v-0.49836-4.7033h4.2456v1.6508h-2.154-0.49948v0.49836 2.5541 0.49836h0.49948 2.6535 0.49948v-0.49836-2.0557h35.399v2.0557 0.49836h0.49948 2.6847 0.49948v-0.49836-2.5541-0.49836h-0.49948-2.1852v-1.6508h4.2456v4.7033 0.49836h0.49948 5.0572 0.49948v-0.49836-5.2016-0.49836h-0.49948-4.5578v-4.1426h1.5297v2.1492 0.49836h0.49948 2.5286 0.49948v-0.49836-2.6475-0.49836h-0.49948-2.0291v-53.325h2.0291 0.49948v-0.49836-2.6164-0.49836h-0.49948-2.5286-0.49948v0.49836 2.118h-1.5297v-4.1426h4.5578 0.49948v-0.49836-5.2016-0.49836h-0.49948-5.0572-0.49948v0.49836 4.7033h-4.2456v-1.6508h2.1852 0.49948v-0.46721-2.5852-0.49836h-0.49948-2.6847-0.49948v0.49836 2.0869h-35.399v-2.0869-0.49836h-0.49948-2.6535-0.49948v0.49836 2.5852 0.46721h0.49948 2.154v1.6508h-4.2456v-4.7033-0.49836h-0.49948-5.0572-0.49948zm0.99896 0.99672h4.0583v4.2049h-4.0583v-4.2049zm7.6483 0h1.6545v1.5885h-1.6545v-1.5885zm39.051 0h1.6857v1.5885h-1.6857v-1.5885zm5.2445 0h4.0583v4.2049h-4.0583v-4.2049zm-41.642 2.5541h35.399v1.6508h-2.0916-0.49948v0.49836 2.5852 0.46721h0.49948 2.5911 0.49948v-0.46721-2.0869h4.2456v4.1426h-2.154-0.49948v0.49836 2.5852 0.46721h0.49948 2.6535 0.49948v-0.46721-2.0869h1.5297v53.325h-1.5297v-2.0557-0.49836h-0.49948-2.6535-0.49948v0.49836 2.5541 0.49836h0.49948 2.154v4.1426h-4.2456v-2.0557-0.49836h-0.49948-2.5911-0.49948v0.49836 2.5541 0.49836h0.49948 2.0916v1.6508h-35.399v-1.6508h2.1228 0.49948v-0.49836-2.5541-0.49836h-0.49948-2.6223-0.49948v0.49836 2.0557h-4.2456v-4.1426h2.1852 0.49948v-0.49836-2.5541-0.49836h-0.49948-2.6847-0.49948v0.49836 2.0557h-1.4984v-53.325h1.4984v2.0869 0.46721h0.49948 2.6847 0.49948v-0.46721-2.5852-0.49836h-0.49948-2.1852v-4.1426h4.2456v2.0869 0.46721h0.49948 2.6223 0.49948v-0.46721-2.5852-0.49836h-0.49948-2.1228v-1.6508zm0 2.6475h1.6233v1.5885h-1.6233v-1.5885zm33.806 0h1.5921v1.5885h-1.5921v-1.5885zm-44.108 2.4918h1.5609v1.6508h-1.5609v-1.6508zm54.472 0h1.5297v1.6508h-1.5297v-1.6508zm-49.415 2.6475h1.6857v1.5885h-1.6857v-1.5885zm44.233 0h1.6545v1.5885h-1.6545v-1.5885zm-44.233 51.767h1.6857v1.5574h-1.6857v-1.5574zm44.233 0h1.6545v1.5574h-1.6545v-1.5574zm-49.29 2.5541h1.5609v1.6508h-1.5609v-1.6508zm54.472 0h1.5297v1.6508h-1.5297v-1.6508zm-44.171 2.5852h1.6233v1.5574h-1.6233v-1.5574zm33.806 0h1.5921v1.5574h-1.5921v-1.5574zm-44.108 2.5541h4.0583v4.2049h-4.0583v-4.2049zm51.944 0h4.0583v4.2049h-4.0583v-4.2049zm-44.296 2.6475h1.6545v1.5574h-1.6545v-1.5574zm39.051 0h1.6857v1.5574h-1.6857v-1.5574z" fill="#fcaf3e" fill-rule="evenodd" opacity=".8"/>
 <path id="path5140" d="m48.094 16.469-2 2h17.812l16.406 16.344v30.375l2-2v-30.375l-16.406-16.344h-17.812z" fill="#eeeeec" opacity=".1159"/>
 <path id="path5150" d="m33.688 30.812-2 2v30.375l16.406 16.344h17.812l2-2h-17.812l-16.406-16.344v-30.375z" fill="#2e3436" opacity=".1159"/>
</svg>
