<?xml version="1.0" encoding="UTF-8"?>
<svg id="svg77" width="96" height="96" version="1.1" xmlns="http://www.w3.org/2000/svg" xmlns:cc="http://creativecommons.org/ns#" xmlns:dc="http://purl.org/dc/elements/1.1/" xmlns:rdf="http://www.w3.org/1999/02/22-rdf-syntax-ns#" xmlns:xlink="http://www.w3.org/1999/xlink">
 <metadata id="metadata129">
  <rdf:RDF>
   <cc:Work rdf:about="">
    <dc:format>image/svg+xml</dc:format>
    <dc:type rdf:resource="http://purl.org/dc/dcmitype/StillImage"/>
   </cc:Work>
  </rdf:RDF>
 </metadata>
 <defs id="defs49">
  <linearGradient id="ButtonShadow" x1="45.448" x2="45.448" y1="92.54" y2="7.0165" gradientTransform="scale(1.0059 .99417)" gradientUnits="userSpaceOnUse">
   <stop id="stop7" offset="0"/>
   <stop id="stop9" stop-opacity=".58824" offset="1"/>
  </linearGradient>
  <filter id="filter3174">
   <feGaussianBlur id="feGaussianBlur12" stdDeviation="1.71"/>
  </filter>
  <filter id="filter3794" x="-.192" y="-.192" width="1.384" height="1.384">
   <feGaussianBlur id="feGaussianBlur15" stdDeviation="5.28"/>
  </filter>
  <linearGradient id="linearGradient3613" x1="48" x2="48" y1="20.221" y2="138.66" gradientUnits="userSpaceOnUse">
   <stop id="stop18" stop-color="#fff" offset="0"/>
   <stop id="stop20" stop-color="#fff" stop-opacity="0" offset="1"/>
  </linearGradient>
  <linearGradient id="linearGradient3617" x1="48" x2="48" y1="90" y2="5.9877" gradientUnits="userSpaceOnUse">
   <stop id="stop23" stop-color="#d64819" offset="0"/>
   <stop id="stop25" stop-color="#ed6a11" offset="1"/>
  </linearGradient>
  <linearGradient id="ButtonShadow-0" x1="45.448" x2="45.448" y1="92.54" y2="7.0165" gradientTransform="matrix(1.0059 0 0 .99417 100 0)" gradientUnits="userSpaceOnUse">
   <stop id="stop28" offset="0"/>
   <stop id="stop30" stop-opacity=".58824" offset="1"/>
  </linearGradient>
  <linearGradient id="linearGradient3780" x1="32.251" x2="32.251" y1="6.1317" y2="90.239" gradientTransform="matrix(1.0238 0 0 1.0119 -1.1429 -98.071)" gradientUnits="userSpaceOnUse" xlink:href="#ButtonShadow-0"/>
  <linearGradient id="linearGradient3721" x1="32.251" x2="32.251" y1="6.1317" y2="90.239" gradientTransform="translate(0,-97)" gradientUnits="userSpaceOnUse" xlink:href="#ButtonShadow-0"/>
  <clipPath id="clipPath4355">
   <rect id="rect35" x="6" y="6" width="84" height="84" rx="6" ry="6" fill="#fff"/>
  </clipPath>
  <linearGradient id="linearGradient4390" x1="48" x2="48" y1="88" y2="-40" gradientTransform="matrix(1,0,0,-1,0,92)" gradientUnits="userSpaceOnUse">
   <stop id="stop2" stop-color="#fff" offset="0"/>
   <stop id="stop4" stop-color="#fff" stop-opacity="0" offset="1"/>
  </linearGradient>
 </defs>
 <g id="g53" display="none">
  <rect id="rect51" x="5" y="7" width="86" height="85" rx="6" ry="6" fill="url(#ButtonShadow)" filter="url(#filter3174)" opacity=".9"/>
 </g>
 <g id="g67">
  <g id="g63" fill="url(#linearGradient3780)">
   <path id="path55" transform="scale(1,-1)" d="m12-95.031c-5.5111 0-10.031 4.5202-10.031 10.031v71c0 5.5111 4.5202 10.031 10.031 10.031h72c5.5111 0 10.031-4.5202 10.031-10.031v-71c0-5.5111-4.5202-10.031-10.031-10.031h-72z" opacity=".08"/>
   <path id="path57" transform="scale(1,-1)" d="m12-94.031c-4.9716 0-9.0312 4.0596-9.0312 9.0312v71c0 4.9716 4.0596 9.0312 9.0312 9.0312h72c4.9716 0 9.0312-4.0596 9.0312-9.0312v-71c0-4.9716-4.0596-9.0312-9.0312-9.0312h-72z" opacity=".1"/>
   <path id="path59" transform="scale(1,-1)" d="m12-93c-4.4091 0-8 3.5909-8 8v71c0 4.4091 3.5909 8 8 8h72c4.4091 0 8-3.5909 8-8v-71c0-4.4091-3.5909-8-8-8h-72z" opacity=".2"/>
   <rect id="rect61" transform="scale(1,-1)" x="5" y="-92" width="86" height="85" rx="7" ry="7" opacity=".3"/>
  </g>
  <rect id="rect65" transform="scale(1,-1)" x="6" y="-91" width="84" height="84" rx="6" ry="6" fill="url(#linearGradient3721)" opacity=".45"/>
 </g>
 <g id="g87">
  <rect id="rect81" x="6" y="6" width="84" height="84" rx="6" ry="6" fill="url(#linearGradient3617)"/>
  <path id="path83" d="m12 6c-3.324 0-6 2.676-6 6v72c0 3.324 2.676 6 6 6h72c3.324 0 6-2.676 6-6v-72c0-3.324-2.676-6-6-6zm0 2h72c2.805 0 5 2.195 5 5v70c0 2.805-2.195 5-5 5h-72c-2.805 0-5-2.195-5-5v-70c0-2.805 2.195-5 5-5z" fill="url(#linearGradient4390)" opacity=".3"/>
 </g>
 <g id="g91">
  <rect id="rect89" x="15" y="15" width="66" height="66" rx="12" ry="12" clip-path="url(#clipPath4355)" fill="url(#linearGradient3613)" filter="url(#filter3794)" opacity=".1" stroke="#fff" stroke-linecap="round" stroke-width=".5"/>
 </g>
 <defs id="defs101">
  <linearGradient id="a" x1="8" x2="8" y1="1" y2="15" gradientUnits="userSpaceOnUse">
   <stop id="stop96" stop-color="#fafafa" offset="0"/>
   <stop id="stop98" stop-color="#ebebeb" offset="1"/>
  </linearGradient>
 </defs>
 <g id="g123">
  <path id="path103" transform="matrix(4,0,0,4,16,17)" d="m8.0703 0.75c-0.05876 2.5027e-4 -0.11329 0.002951-0.16406 0.003906a0.25002 0.25002 0 0 0-0.00391 0c-0.1136 0.0040031-0.22956 0.0076888-0.34961 0.019532-1.988 0.18713-4.0485 1.5609-5.3809 3.457-1.3324 1.8961-1.9335 4.3495-0.89453 6.666 1.1736 2.6169 3.4093 3.9895 5.7578 4.2891 2.3485 0.29957 4.8177-0.45366 6.5215-2.0684 0.75342-0.71403 1.1103-1.3939 1.1543-1.9844 0.044012-0.59047-0.26412-1.0832-0.74219-1.2871-0.47495-0.20259-1.077-0.14769-1.6797 0.20117l0.30274-2.1719c0.03613-0.27109 0.05273-0.52716 0.05273-0.76562 0-0.31954-0.03853-0.61491-0.12109-0.88477-2.51e-4 -8.976e-4 -0.0017-0.00106-2e-3 -0.00195-0.0595-0.21186-0.18163-0.38178-0.30469-0.54883 0.07546 0.094463 0.15469 0.19294 0.27148 0.22656 0.30644 0.088208 0.66615-0.11149 0.75391-0.41797v-0.00195l0.18359-0.64062 0.63867 0.18555-0.01172-0.00586c0.31084 0.10754 0.692-0.08828 0.7832-0.4043 0.09105-0.3155-0.12583-0.68626-0.44531-0.76172h-2e-3l-0.62881-0.17969 0.18359-0.63672v-0.00391c0.054082-0.1834 0.015146-0.39147-0.10156-0.54296-0.11751-0.15254-0.30952-0.24515-0.50195-0.23828a0.25002 0.25002 0 0 0-2e-3 0c-6.21e-4 2.39e-5 -0.0013-2.59e-5 -2e-3 0a0.25002 0.25002 0 0 0-0.14648 0.056641c-0.13998 0.046479-0.24716 0.13384-0.32412 0.25977-1.2495-1.1818-3.1536-1.8253-4.7949-1.8184zm1.3359 1.123c1.1473 0.054068 2.279 0.44334 3.2637 1.1934l-0.07813 0.27148-0.63867-0.18359 2e-3 0.00195c-0.05823-0.017658-0.11884-0.027697-0.17969-0.027344a0.25002 0.25002 0 0 0-2e-3 0c-0.28878 0.00436-0.55612 0.24294-0.59375 0.5293-0.03756 0.28582 0.15851 0.58458 0.43555 0.66406l0.64062 0.18359-0.18359 0.63867c-0.03453 0.11805 0.0043 0.23809 0.04492 0.35352-9.95e-4 -0.00104-9.56e-4 -0.00287-2e-3 -0.00391-0.18787-0.20182-0.43332-0.35347-0.72456-0.45702-0.29673-0.10545-0.63942-0.15234-1.0312-0.15234-0.325 0-0.60029 0.024347-0.83398 0.083984-0.20769 0.048842-0.38318 0.10556-0.5332 0.17969-0.13715 0.062306-0.24863 0.12496-0.3418 0.18945l0.00977-0.00781c-0.040141 0.024669-0.047856 0.023798-0.052734 0.025391a0.25002 0.25002 0 0 0-0.1211-0.052737c-0.19603-0.14512-0.40691-0.27033-0.6582-0.32617-0.27479-0.062421-0.55581-0.091797-0.83984-0.091797h-0.00781a0.25002 0.25002 0 0 0-0.072266 0.011719 0.25002 0.25002 0 0 0-0.00195 0c-0.38281 0.00686-0.74904 0.0524-1.0898 0.16406a0.25002 0.25002 0 0 0-0.013672 0.00586c-0.02794-2.196e-4 -0.063186-0.0033094-0.10352-0.01172l0.021484 0.00391c-0.10143-0.030434-0.20156-0.03516-0.32422-0.03516h-0.74023c-0.1349 0-0.20574 0.052546-0.28125 0.10547a0.25002 0.25002 0 0 0-0.011719 0.00781c-0.060181 0.046808-0.12066 0.10359-0.17969 0.16797-6.598e-4 6.598e-4 -0.0013 0.00129-0.00195 0.00195-0.065677 0.065996-0.12131 0.13846-0.16992 0.21484-0.05223 0.082075-0.094276 0.16432-0.10742 0.26953l-0.6875 5.0098a0.25002 0.25002 0 0 0-0.00195 0.03516c0 0.04842 0.00251 0.11363 0.056641 0.18945 0.054133 0.07582 0.16666 0.11914 0.23633 0.11914h1.2461c0.126 0 0.20716-0.0538 0.28125-0.11133h0.00195c0.071784-0.05148 0.13681-0.11258 0.19727-0.17969 0.058482-0.06498 0.1109-0.12885 0.15625-0.19336l0.00195-0.0039c0.05931-0.082 0.10697-0.16624 0.12109-0.2793l0.33984-2.502a0.25002 0.25002 0 0 0 0-0.00195c0.016858-0.13493 0.036605-0.27602 0.058594-0.41992l0.00195-0.00781c1.009e-4 -6.571e-4 -1.011e-4 -0.0013 0-0.00195 0.027406-0.14193 0.05724-0.2836 0.089847-0.42579l0.00195-0.00391c2.868e-4 -0.00125-2.872e-4 -0.00266 0-0.00391 0.037466-0.13842 0.078502-0.2694 0.1211-0.39257 0.046448-0.11875 0.092299-0.21967 0.14062-0.30859-0.024504 0.036214-0.012291 0.008928 0.044922-0.015625a0.25002 0.25002 0 0 0 0.013672-0.00586c0.040718-0.020359 0.093503-0.03292 0.16602-0.033203 0.041833 5.2e-6 0.090318 0.010003 0.14844 0.037109a0.25002 0.25002 0 0 0 0.017578 0.00781c0.039045 0.014642 0.088182 0.048025 0.14258 0.11914a0.25002 0.25002 0 0 0 0.00391 0.00586c0.044816 0.055158 0.096416 0.15474 0.13672 0.30078a0.25002 0.25002 0 0 0 0.00195 0.00977c0.040096 0.12481 0.066406 0.31158 0.066406 0.55078 0 0.10955-0.00916 0.25589-0.025391 0.4375a0.25002 0.25002 0 0 0 0 0.00586c-0.011145 0.17841-0.03212 0.3776-0.060547 0.59375a0.25002 0.25002 0 0 0 0 0.00586c-0.023069 0.21258-0.049754 0.43395-0.083984 0.66797a0.25002 0.25002 0 0 0-0.00195 0.00586c-0.028696 0.22887-0.061027 0.45676-0.095706 0.68164a0.25002 0.25002 0 0 0-0.00195 0.00586c-0.02911 0.22059-0.055372 0.42643-0.083984 0.62109-0.028988 0.19147-0.052609 0.35639-0.070312 0.49219a0.25002 0.25002 0 0 0-0.00195 0.0332v0.01758c0 0.04611 0.00475 0.11528 0.0625 0.1875 0.057746 0.07221 0.15973 0.10352 0.2207 0.10352h1.2539c0.126 0 0.2072-0.05379 0.28125-0.11133h0.00195c0.071676-0.05139 0.13859-0.11228 0.19922-0.17969 0.059487-0.0661 0.11033-0.13166 0.15625-0.19727a0.25002 0.25002 0 0 0 0.00781-0.0098c0.05144-0.08083 0.091675-0.16268 0.10547-0.26562l0.34961-2.5058a0.25002 0.25002 0 0 0 0-0.00195c0.016859-0.13493 0.038555-0.27552 0.066406-0.41992 0.027587-0.14352 0.059845-0.28877 0.09375-0.43555v-0.00391c3.222e-4 -0.00139 0.00163-0.00251 0.00195-0.00391 0.03874-0.14336 0.078011-0.27836 0.12109-0.40234 0.042035-0.1209 0.090005-0.22528 0.14062-0.31641a0.25002 0.25002 0 0 0 0.00391-0.00977c-0.034261 0.068522-0.033028 0.035939 0.023437 0.011719a0.25002 0.25002 0 0 0 0.011719-0.00586c0.039159-0.019579 0.094544-0.033203 0.17578-0.033203 0.041791 0 0.090311 0.01 0.14844 0.037109a0.25002 0.25002 0 0 0 0.01758 0.00781c0.03904 0.014642 0.08818 0.048025 0.14258 0.11914a0.25002 0.25002 0 0 0 0.0039 0.00586c0.04482 0.055165 0.09447 0.1528 0.13477 0.29883a0.25002 0.25002 0 0 0 0.0039 0.011719c0.0401 0.12481 0.06445 0.31158 0.06445 0.55078 0 0.10956-0.0072 0.25394-0.02344 0.43555-0.01751 0.18579-0.03753 0.38866-0.06055 0.60742-0.0229 0.21074-0.05164 0.43347-0.08594 0.66797-0.03507 0.23394-0.06648 0.46533-0.0957 0.69336-0.02882 0.21912-0.05718 0.4248-0.08594 0.62109-0.02911 0.19163-0.054578 0.35651-0.072266 0.49219a0.25002 0.25002 0 0 0-0.00195 0.0332v0.02539c-2.21e-5 0.05116 0.01602 0.13503 0.082031 0.20117 0.06601 0.06614 0.15189 0.08203 0.20312 0.08203h0.93945c-0.20319 0.27726-0.41015 0.54949-0.58397 0.91798-0.73328 1.5546-2.6676 2.2655-4.4766 1.9277-1.8089-0.33772-3.4565-1.6799-3.6348-4.2852-0.22948-3.354 1.3436-5.7828 3.4727-6.9902 1.0645-0.60374 2.2657-0.89775 3.4531-0.8418zm3.9551 8.834c0.18152-0.01166 0.27747 0.03401 0.33594 0.11914 0.06637 0.09663 0.08292 0.29211-0.01367 0.54492-0.09659 0.25281-0.2989 0.54125-0.57617 0.7793-0.27746 0.2382-0.57485 0.37534-0.80273 0.41211-0.22788 0.03677-0.35133-0.01041-0.41797-0.10742-0.06637-0.09663-0.08097-0.29211 0.01563-0.54492 0.09659-0.25281 0.29694-0.54125 0.57422-0.7793 0.31261-0.26837 0.65096-0.40883 0.88477-0.42383z" opacity=".15"/>
  <g id="Bevel1"></g>
  <g id="Bevel2"></g>
  <path id="base" transform="translate(16,16) scale(4)" d="m8.0723 1.0005c-0.054 2.3e-4 -0.10747 2e-3 -0.16064 3e-3 -0.11352 4e-3 -0.22548 8e-3 -0.33496 0.0188-3.7772 0.35554-8.065 5.3244-6.0703 9.7719 2.2776 5.0784 8.5909 5.2576 11.879 2.1414 2.8963-2.7449-0.74531-4.6275-2.5669-0.76562-1.5846 3.3595-8.2173 2.9652-8.5876-2.4473-0.4708-6.8811 6.5007-10.124 10.7-6.7795-1.1672-1.2567-3.1855-1.9502-4.8586-1.9431zm5.2756 1.5022a0.35801 0.35801 0 0 0-0.33154 0.26318l-0.25294 0.88183-0.88011-0.25293a0.35801 0.35801 0 0 0-0.10597-0.0154 0.35801 0.35801 0 0 0-0.0923 0.70239l0.88011 0.25293-0.25291 0.88012a0.35834 0.35834 0 1 0 0.68871 0.19824l0.25293-0.88183 0.88011 0.25293a0.35801 0.35801 0 1 0 0.19827-0.68701l-0.88183-0.25293 0.25292-0.88012a0.35801 0.35801 0 0 0-0.35546-0.46142zm-6.3676 2.6318c-0.3888 1e-5 -0.75035 0.0538-1.0869 0.16407-0.0233 0.0116-0.0523 0.0171-0.0871 0.0171-0.0464 0-0.0992-5e-3 -0.15723-0.0171-0.058-0.0174-0.14267-0.0256-0.25293-0.0256h-0.73998c-0.0348 0-0.0805 0.0209-0.13843 0.0615-0.0522 0.0406-0.105 0.0889-0.15723 0.14697-0.0522 0.0522-0.0978 0.11049-0.13842 0.17431-0.0406 0.0638-0.0643 0.11935-0.0701 0.16577l-0.68702 5.0141c0 0.0406 0.0137 0.0598 0.0427 0.0598h1.2458c0.0348 0 0.0777-0.0192 0.12989-0.0598 0.058-0.0406 0.11354-0.0907 0.16577-0.14868 0.0522-0.058 0.0978-0.11629 0.13843-0.17432 0.0464-0.0638 0.0728-0.11935 0.0786-0.16577l0.34008-2.5054c0.0174-0.13927 0.0366-0.28491 0.0598-0.43579 0.029-0.15087 0.061-0.302 0.0957-0.45288 0.0406-0.15087 0.0852-0.29377 0.13159-0.42724 0.0522-0.13346 0.10608-0.25101 0.16406-0.35547 0.0233-0.0348 0.076-0.0711 0.15723-0.10596 0.0812-0.0406 0.1741-0.0598 0.27856-0.0598 0.0812 1e-5 0.16587 0.0192 0.25292 0.0598 0.0928 0.0348 0.17749 0.10302 0.25294 0.20166 0.0754 0.0928 0.13642 0.22308 0.18286 0.39136 0.0522 0.16249 0.0769 0.37187 0.0769 0.62719 0 0.12186-9e-3 0.27403-0.0256 0.45972-0.0116 0.18569-0.0325 0.38959-0.0615 0.6101-0.0233 0.21471-0.0506 0.44055-0.0854 0.67846-0.0291 0.23212-0.0626 0.46241-0.0975 0.68872-0.0291 0.22051-0.0564 0.42818-0.0854 0.62548-0.029 0.1915-0.0527 0.3553-0.0701 0.48877v0.0171c0 0.029 0.011 0.0427 0.0341 0.0427h1.2544c0.0348 0 0.0776-0.0192 0.12987-0.0599 0.058-0.0406 0.11354-0.0906 0.16578-0.14868 0.0522-0.058 0.0978-0.11629 0.13842-0.17432 0.0406-0.0638 0.0643-0.11934 0.0701-0.16576l0.34863-2.5054c0.0174-0.13926 0.0393-0.28491 0.0684-0.43579 0.029-0.15087 0.0626-0.302 0.0975-0.45287 0.0406-0.15087 0.0835-0.29378 0.12988-0.42725 0.0464-0.13346 0.0992-0.25101 0.15722-0.35546 0.0174-0.0348 0.0657-0.0711 0.14697-0.10596 0.0812-0.0406 0.17685-0.0598 0.28711-0.0598 0.0812 0 0.16588 0.0192 0.25293 0.0598 0.0928 0.0348 0.17749 0.10302 0.25294 0.20166 0.0754 0.0928 0.13642 0.22307 0.18285 0.39135 0.0522 0.16249 0.0769 0.37187 0.0769 0.62719 0 0.12187-9e-3 0.27403-0.0256 0.45972-0.0175 0.18569-0.0366 0.38959-0.0598 0.6101-0.0233 0.21471-0.0523 0.44055-0.0871 0.67846-0.0348 0.23212-0.0667 0.46241-0.0957 0.68872-0.029 0.22051-0.0582 0.42819-0.0871 0.62548-0.0291 0.1915-0.0527 0.3553-0.0701 0.48877v0.0256c-1e-5 0.0232 0.011 0.0342 0.0341 0.0342h1.2544c0.0348 0 0.0777-0.0192 0.12989-0.0598 0.058-0.0406 0.11354-0.0906 0.16577-0.14868 0.0522-0.058 0.0978-0.11629 0.13843-0.17432 0.0406-0.0638 0.0643-0.11934 0.0701-0.16577l0.34863-2.5054c0.0348-0.26113 0.0513-0.50513 0.0513-0.73144 0-0.30175-0.0374-0.57488-0.1128-0.8186-0.0697-0.24952-0.18615-0.45891-0.34862-0.62719-0.15669-0.16828-0.36436-0.29851-0.62549-0.39136-0.26113-0.0928-0.57711-0.13842-0.94847-0.13842-0.31337 0-0.57278 0.0247-0.77587 0.0769-0.19731 0.0464-0.3594 0.10194-0.48706 0.16577-0.12767 0.058-0.22877 0.11355-0.30421 0.16577-0.0755 0.0464-0.14193 0.0701-0.19994 0.0701-0.0464 0-0.0937-0.0209-0.14013-0.0615h-9e-3c-0.1857-0.16248-0.4088-0.27351-0.66992-0.33154-0.25533-0.058-0.51749-0.0854-0.78442-0.0854h-9e-3zm6.3642 5.3235c0.24134-0.0155 0.44304 0.0587 0.55883 0.2273 0.26467 0.38534-0.0186 1.1274-0.63232 1.6543-0.6137 0.52687-1.3247 0.64169-1.5894 0.25635-0.26466-0.38534 0.0186-1.1274 0.63233-1.6543 0.3452-0.29635 0.72019-0.46373 1.0305-0.48364z" fill="url(#a)"/>
  <path id="path113" transform="translate(0,2)" d="m51.828 20.475c-13.728 0.35391-27.25 11.784-26.979 30.346 0.30989-25.333 26.583-36.854 42.752-24.137l0.00586-0.025391c-1.7497-1.8495-3.9579-3.3901-6.3887-4.5918-3.0289-1.1523-6.2138-1.6737-9.3906-1.5918zm18.957 5.4746-0.98438 3.4277 0.26562 0.076172 0.74609-2.5977a1.432 1.432 0 0 0-0.027344-0.90625zm-8.9961 3.5a1.432 1.432 0 0 0 0.95117 1.877l3.2539 0.93555 0.26562-0.92383-3.5195-1.0117a1.432 1.432 0 0 1-0.95117-0.87695zm7.2266 2.6758-1.0117 3.5273a1.4334 1.4334 0 0 1-2.7246 0.099609l-0.03125 0.10742a1.4334 1.4334 0 1 0 2.7559 0.79297l1.0117-3.5273 3.5195 1.0117a1.432 1.432 0 0 0 1.8086-1.8535 1.432 1.432 0 0 1-1.8086 0.85352l-3.5195-1.0117zm-27.043 5.8926c-0.41784 0-0.78848 0.075881-1.1133 0.23828-0.32492 0.13944-0.53571 0.28463-0.62891 0.42383-0.23192 0.41784-0.44745 0.88804-0.65625 1.4219-0.18556 0.53388-0.36494 1.1055-0.52734 1.709-0.1388 0.60352-0.26681 1.209-0.38281 1.8125-0.092799 0.60352-0.16868 1.1851-0.23828 1.7422l-1.3613 10.021c-0.0232 0.18568-0.12885 0.40886-0.31445 0.66406-0.16252 0.23212-0.34393 0.46527-0.55273 0.69727-0.20892 0.23192-0.43206 0.43135-0.66406 0.59375-0.20876 0.1624-0.38033 0.24023-0.51953 0.24023h-4.9824c-0.029 0-0.043003-0.019559-0.064453-0.029297l-0.10742 0.78906c0 0.1624 0.055875 0.24023 0.17188 0.24023h4.9824c0.1392 0 0.31077-0.077834 0.51953-0.24023 0.232-0.1624 0.45514-0.36183 0.66406-0.59375 0.2088-0.232 0.39021-0.46515 0.55273-0.69727 0.1856-0.2552 0.29125-0.47838 0.31445-0.66406l1.3613-10.021c0.0696-0.55708 0.14548-1.1387 0.23828-1.7422 0.116-0.60348 0.24401-1.209 0.38281-1.8125 0.1624-0.60348 0.34178-1.1751 0.52734-1.709 0.2088-0.53384 0.42433-1.004 0.65625-1.4219 0.0932-0.1392 0.30399-0.28439 0.62891-0.42383 0.3248-0.1624 0.69544-0.23828 1.1133-0.23828 0.3248 4e-5 0.66352 0.075881 1.0117 0.23828 0.3712 0.1392 0.70992 0.41208 1.0117 0.80664 0.3016 0.3712 0.54666 0.89329 0.73242 1.5664 0.17117 0.53282 0.2498 1.223 0.2793 2.0059 0.005165-0.14997 0.027344-0.3661 0.027344-0.49805 0-1.0213-0.09784-1.8579-0.30664-2.5078-0.18576-0.67312-0.43082-1.1952-0.73242-1.5664-0.3018-0.39456-0.64052-0.66744-1.0117-0.80664-0.3482-0.1624-0.68692-0.23824-1.0117-0.23828zm13.475 0c-0.44104 0-0.82364 0.075881-1.1484 0.23828-0.32508 0.13944-0.51829 0.28463-0.58789 0.42383-0.23208 0.4178-0.44331 0.88804-0.62891 1.4219-0.18552 0.53388-0.35713 1.1055-0.51953 1.709-0.1396 0.60348-0.27462 1.209-0.39062 1.8125-0.1164 0.60352-0.20384 1.1851-0.27344 1.7422l-1.3945 10.021c-0.0232 0.18568-0.11885 0.40886-0.28125 0.66406-0.16248 0.23212-0.34393 0.46527-0.55273 0.69727-0.20896 0.23232-0.43206 0.43135-0.66406 0.59375-0.20908 0.1628-0.38033 0.24023-0.51953 0.24023h-5.0176c-0.011391 0-0.015463-0.008088-0.025391-0.009765-0.034955 0.24706-0.081982 0.55941-0.10938 0.76953v0.068359c0 0.116 0.042366 0.17188 0.13477 0.17188h5.0176c0.1392 0 0.31045-0.077434 0.51953-0.24023 0.232-0.1624 0.4551-0.36143 0.66406-0.59375 0.2088-0.232 0.39025-0.46515 0.55273-0.69727 0.1624-0.2552 0.25805-0.47838 0.28125-0.66406l1.3945-10.021c0.0696-0.55704 0.15704-1.1387 0.27344-1.7422 0.116-0.60348 0.25102-1.209 0.39062-1.8125 0.1624-0.60348 0.33401-1.1751 0.51953-1.709 0.1856-0.53384 0.39683-1.0041 0.62891-1.4219 0.0696-0.1392 0.26281-0.28439 0.58789-0.42383 0.3248-0.1624 0.7074-0.23828 1.1484-0.23828 0.3248 0 0.66352 0.075881 1.0117 0.23828 0.3712 0.1392 0.70992 0.41208 1.0117 0.80664 0.3016 0.3712 0.54475 0.89329 0.73047 1.5664 0.17078 0.53162 0.25152 1.2195 0.28125 2 0.005045-0.14799 0.027344-0.36178 0.027344-0.49219 0-1.0213-0.099794-1.8579-0.30859-2.5078-0.18572-0.67312-0.42887-1.1952-0.73047-1.5664-0.3018-0.39456-0.64052-0.66744-1.0117-0.80664-0.3482-0.1624-0.68692-0.23828-1.0117-0.23828zm10.113 4.8828c-0.01821 0.77658-0.071052 1.591-0.1875 2.4648l-1.3945 10.021c-0.0232 0.18572-0.11885 0.40691-0.28125 0.66211-0.16252 0.23212-0.34394 0.46527-0.55274 0.69727-0.20892 0.23232-0.43206 0.4333-0.66406 0.5957-0.20876 0.1624-0.38033 0.23828-0.51953 0.23828h-5.0176c-0.011484 0-0.015392-0.006444-0.02539-0.007812-0.034914 0.24712-0.08393 0.55937-0.11133 0.76953v0.10156c-4e-5 0.0928 0.044318 0.13672 0.13672 0.13672h4.8203c0.7264-0.93396 1.4771-1.7229 2.2383-2.3594l1.3711-9.8555c0.1392-1.0445 0.20508-2.0205 0.20508-2.9258 0-0.18386-0.010627-0.36053-0.017578-0.53906zm-45.545 5.084c-0.10716 3.3795 0.49856 6.8239 2.0098 10.193 9.1104 20.314 34.363 21.029 47.516 8.5645 3.34-3.1654 4.4972-6.04 4.291-8.1641-0.18887 1.9896-1.4503 4.4718-4.291 7.1641-13.152 12.465-38.405 11.749-47.516-8.5645-1.3625-3.0379-1.9776-6.1361-2.0098-9.1934zm49.361 7.8477c-1.2412 0.07964-2.7403 0.74819-4.1211 1.9336-2.0458 1.7564-3.1686 4.1085-2.875 5.7363 0.18408-1.5039 1.2169-3.3128 2.875-4.7363 1.3808-1.1854 2.8799-1.854 4.1211-1.9336h0.001953c0.96536-0.062 1.7712 0.2338 2.2344 0.9082 0.17642 0.25686 0.28699 0.55729 0.3457 0.88281 0.088465-0.72277-0.002058-1.3825-0.3457-1.8828-0.46316-0.6744-1.269-0.9702-2.2344-0.9082h-0.001953z" opacity=".3" stroke-width="4"/>
  <path id="path118" transform="translate(0,2)" d="m48.289 18v0.001953c-0.216 9.2e-4 -0.4299 0.007719-0.64258 0.011719-0.45408 0.016-0.90192 0.032972-1.3398 0.076172-12.529 1.1793-26.447 15.048-26.291 29.895 0.45863-14.464 14.044-27.742 26.291-28.895 0.43792-0.0432 0.88576-0.060172 1.3398-0.076172 0.21268-4e-3 0.42658-0.010799 0.64258-0.011719v-0.001953c4.1599-0.017653 8.852 1.0505 12.93 3.0664 2.2812 0.86787 4.4744 2.0906 6.5039 3.707-4.6688-5.0268-12.741-7.8018-19.434-7.7734zm21.102 6.0098v0.001953a1.432 1.432 0 0 0-1.3242 1.0527l-0.45898 1.5938c0.037167 0.039286 0.078487 0.075669 0.11523 0.11524-0.03975-0.031659-0.08122-0.058481-0.12109-0.089844l-0.54883 1.9082-3.5195-1.0117a1.432 1.432 0 0 0-0.42383-0.0625 1.432 1.432 0 0 0-1.3203 1.9316 1.432 1.432 0 0 1 1.3203-0.93164 1.432 1.432 0 0 1 0.42383 0.0625l3.5195 1.0117 1.0137-3.5273a1.432 1.432 0 0 1 1.3242-1.0527v-0.001953a1.432 1.432 0 0 1 1.3945 0.93945l0.027344-0.09375a1.432 1.432 0 0 0-1.4219-1.8457zm0.67578 5.4434-0.26562 0.92383 3.5273 1.0117a1.432 1.432 0 0 1 1.0156 0.89453 1.432 1.432 0 0 0-1.0156-1.8945l-3.2617-0.93555zm-4.0723 2.8086-0.74609 2.5977a1.4334 1.4334 0 0 0 0.03125 0.89258l0.98047-3.4141-0.26562-0.076172zm-22.076 2.2754c-1.5537 4.06e-4 -2.9987 0.21555-4.3438 0.65625-0.0932 0.0464-0.21041 0.06836-0.34961 0.06836-0.1856 0-0.39679-0.01996-0.62891-0.06836-0.232-0.0696-0.57068-0.10156-1.0117-0.10156h-2.959c-0.1392 0-0.32297 0.083694-0.55469 0.24609-0.2088 0.1624-0.41999 0.35561-0.62891 0.58789-0.2088 0.2088-0.39025 0.44199-0.55273 0.69727-0.1624 0.2552-0.25805 0.47643-0.28125 0.66211l-2.748 20.057c0 0.1218 0.043072 0.18172 0.10742 0.21094l2.6406-19.268c0.0232-0.18568 0.11885-0.40691 0.28125-0.66211 0.16248-0.25528 0.34393-0.48847 0.55273-0.69727 0.20892-0.23228 0.42011-0.42549 0.62891-0.58789 0.23172-0.1624 0.41549-0.24609 0.55469-0.24609h2.959c0.44104 0 0.77972 0.031962 1.0117 0.10156 0.23212 0.0484 0.44331 0.06836 0.62891 0.06836 0.1392 0 0.25641-0.02196 0.34961-0.06836 1.3451-0.4407 2.7901-0.65584 4.3438-0.65625h0.003906 0.033203c1.0677 0 2.1154 0.1098 3.1367 0.3418 1.0445 0.23212 1.9369 0.67625 2.6797 1.3262h0.03711c0.18572 0.1624 0.37495 0.24609 0.56055 0.24609 0.23204 0 0.49683-0.09565 0.79883-0.28125 0.30176-0.20888 0.70612-0.43011 1.2168-0.66211 0.51064-0.25532 1.16-0.47846 1.9492-0.66406 0.81236-0.2088 1.8481-0.30664 3.1016-0.30664 1.4854 0 2.7504 0.18154 3.7949 0.55274 1.0445 0.3714 1.8752 0.89329 2.502 1.5664 0.64988 0.67312 1.1157 1.5097 1.3945 2.5078 0.25566 0.82638 0.39491 1.7428 0.43359 2.7363 0.003558-0.15173 0.017578-0.31298 0.017578-0.46094 0-1.207-0.14957-2.3005-0.45117-3.2754-0.2788-0.99808-0.74465-1.8347-1.3945-2.5078-0.62676-0.67312-1.4574-1.195-2.502-1.5664-1.0445-0.3712-2.3095-0.55274-3.7949-0.55274-1.2535 0-2.2892 0.097841-3.1016 0.30664-0.78924 0.1856-1.4386 0.40874-1.9492 0.66406-0.51068 0.232-0.91504 0.45323-1.2168 0.66211-0.302 0.1856-0.56679 0.28125-0.79883 0.28125-0.1856 0-0.37483-0.083694-0.56055-0.24609h-0.03711c-0.7428-0.64992-1.6352-1.0941-2.6797-1.3262-1.0213-0.232-2.069-0.3418-3.1367-0.3418h-0.033203-0.003906zm14.564 9.0918c-0.013815 0.40524-0.027534 0.80359-0.076172 1.3477-0.07 0.74276-0.14548 1.5574-0.23828 2.4395-0.0932 0.85884-0.21041 1.7612-0.34961 2.7129-0.1392 0.92848-0.26681 1.8506-0.38281 2.7559-0.116 0.88204-0.23206 1.7128-0.34766 2.502-0.1164 0.766-0.21165 1.4212-0.28125 1.9551v0.10156c-3.5e-5 0.081266 0.040881 0.11926 0.11133 0.12891 0.053778-0.38064 0.099343-0.72108 0.16992-1.1855 0.1156-0.78916 0.23166-1.6199 0.34766-2.502 0.116-0.90524 0.24361-1.8274 0.38281-2.7559 0.1392-0.95164 0.25641-1.854 0.34961-2.7129 0.0928-0.88204 0.16828-1.6967 0.23828-2.4395 0.0664-0.74276 0.10352-1.3524 0.10352-1.8398 0-0.18594-0.020727-0.33408-0.027344-0.50781zm-13.475 0.00586c-0.013914 0.40405-0.025792 0.8001-0.074218 1.3418-0.0464 0.74276-0.13009 1.5574-0.24609 2.4395-0.0932 0.85884-0.2026 1.7632-0.3418 2.7148-0.1164 0.92848-0.25102 1.8487-0.39062 2.7539-0.1164 0.88204-0.2258 1.7128-0.3418 2.502-0.116 0.766-0.2097 1.4212-0.2793 1.9551v0.068359c0 0.1017 0.038769 0.15018 0.10938 0.16211 0.053861-0.38069 0.099576-0.72102 0.16992-1.1855 0.116-0.7892 0.2254-1.6199 0.3418-2.502 0.1396-0.90524 0.27422-1.8254 0.39062-2.7539 0.1392-0.95164 0.2486-1.856 0.3418-2.7148 0.116-0.88204 0.19969-1.6967 0.24609-2.4395 0.0664-0.74276 0.10156-1.3524 0.10156-1.8398 0-0.18406-0.02086-0.32986-0.027344-0.50195zm-20.158 7.1855c-0.012287 1.0044 0.002568 2.0231 0.074219 3.0703 1.4812 21.65 28.011 23.227 34.35 9.7891 5.1857-10.994 14.05-10.345 14.559-5.1016 0.43457-4.5778-4.8386-6.5314-9.8301-2.3574l-0.023437 0.16602c-0.0232 0.18572-0.11885 0.40691-0.28125 0.66211-0.16252 0.23212-0.34394 0.46527-0.55274 0.69727-0.20892 0.23232-0.43206 0.4333-0.66406 0.5957-0.20876 0.1624-0.38033 0.23828-0.51953 0.23828h-0.19727c-0.88285 1.1351-1.7284 2.4844-2.4902 4.0996-6.3384 13.438-32.868 11.861-34.35-9.7891-0.048023-0.70189-0.064235-1.3875-0.074219-2.0703zm47.109 7.8027c-0.18407 1.5039-1.217 3.3128-2.875 4.7363-2.4548 2.1075-5.2986 2.5668-6.3574 1.0254-0.17642-0.25686-0.28699-0.55729-0.3457-0.88281-0.088466 0.72277 0.002072 1.3825 0.3457 1.8828 1.0588 1.5414 3.9026 1.0821 6.3574-1.0254 2.0458-1.7564 3.1686-4.1085 2.875-5.7363z" fill="#fff" stroke-width="4"/>
 </g>
</svg>
