<?xml version="1.0" encoding="UTF-8"?>
<!-- Created with Inkscape (http://www.inkscape.org/) -->
<svg id="svg2408" width="96" height="96" version="1.0" xmlns="http://www.w3.org/2000/svg" xmlns:cc="http://creativecommons.org/ns#" xmlns:dc="http://purl.org/dc/elements/1.1/" xmlns:rdf="http://www.w3.org/1999/02/22-rdf-syntax-ns#" xmlns:xlink="http://www.w3.org/1999/xlink">
 <defs id="defs2410">
  <linearGradient id="ButtonShadow" x1="45.448" x2="45.448" y1="92.54" y2="7.0165" gradientTransform="scale(1.0059 .99417)" gradientUnits="userSpaceOnUse">
   <stop id="stop3750" offset="0"/>
   <stop id="stop3752" stop-opacity=".58824" offset="1"/>
  </linearGradient>
  <linearGradient id="linearGradient3737">
   <stop id="stop3739" stop-color="#fff" offset="0"/>
   <stop id="stop3741" stop-color="#fff" stop-opacity="0" offset="1"/>
  </linearGradient>
  <filter id="filter3174">
   <feGaussianBlur id="feGaussianBlur3176" stdDeviation="1.71"/>
  </filter>
  <linearGradient id="linearGradient3188" x1="36.357" x2="36.357" y1="6" y2="63.893" gradientUnits="userSpaceOnUse" xlink:href="#linearGradient3737"/>
  <filter id="filter3794" x="-.192" y="-.192" width="1.384" height="1.384">
   <feGaussianBlur id="feGaussianBlur3796" stdDeviation="5.28"/>
  </filter>
  <linearGradient id="linearGradient3613" x1="48" x2="48" y1="20.221" y2="138.66" gradientUnits="userSpaceOnUse" xlink:href="#linearGradient3737"/>
  <radialGradient id="radialGradient3619" cx="48" cy="90.172" r="42" gradientTransform="matrix(1.1573 0 0 .99591 -7.551 .19713)" gradientUnits="userSpaceOnUse" xlink:href="#linearGradient3737"/>
  <clipPath id="clipPath3613">
   <rect id="rect3615" x="6" y="6" width="84" height="84" rx="6" ry="6" fill="#fff"/>
  </clipPath>
  <linearGradient id="linearGradient3617" x1="48" x2="48" y1="90" y2="5.9877" gradientUnits="userSpaceOnUse">
   <stop id="stop3189" stop-color="#282828" offset="0"/>
   <stop id="stop3191" stop-color="#5a5a5a" offset="1"/>
  </linearGradient>
  <linearGradient id="linearGradient3299">
   <stop id="stop3301" stop-color="#dfdfdf" offset="0"/>
   <stop id="stop3303" stop-color="#434343" offset="1"/>
  </linearGradient>
  <linearGradient id="linearGradient3260" gradientUnits="userSpaceOnUse">
   <stop id="stop3262" offset="0"/>
   <stop id="stop3266" stop-opacity=".35484" offset=".2"/>
   <stop id="stop3268" stop-opacity="0" offset=".55255"/>
   <stop id="stop3264" stop-opacity="0" offset="1"/>
  </linearGradient>
  <linearGradient id="linearGradient4262" x1="43.477" x2="43.477" y1="26" y2="34.001" gradientTransform="matrix(.72414 0 0 .75 1.6552 4.5)" gradientUnits="userSpaceOnUse" xlink:href="#linearGradient3260"/>
  <linearGradient id="linearGradient4310" x1="48" x2="48" y1="16" y2="11.925" gradientTransform="matrix(1 0 0 1.25 0 -4.5982)" gradientUnits="userSpaceOnUse" xlink:href="#linearGradient3260"/>
  <linearGradient id="linearGradient4320" x1="50.464" x2="50.464" y1="16.036" y2="20.33" gradientTransform="translate(0 -.67857)" gradientUnits="userSpaceOnUse">
   <stop id="stop4316" stop-color="#fff" offset="0"/>
   <stop id="stop4322" stop-color="#fff" stop-opacity=".49804" offset=".3"/>
   <stop id="stop4318" stop-color="#fff" stop-opacity="0" offset="1"/>
  </linearGradient>
  <linearGradient id="linearGradient4326" x1="48" x2="48" y1="16" y2="11.925" gradientTransform="matrix(1 0 0 1.25 0 4.4018)" gradientUnits="userSpaceOnUse" xlink:href="#linearGradient3260"/>
  <linearGradient id="linearGradient4371" x1="11" x2="16" y1="10.442" y2="24" gradientTransform="matrix(.81331 0 0 .81133 3.9935 2.0282)" gradientUnits="userSpaceOnUse">
   <stop id="stop3275" stop-color="#5d5d5d" offset="0"/>
   <stop id="stop3277" stop-color="#171717" offset="1"/>
  </linearGradient>
  <linearGradient id="linearGradient4373" x1="13.125" x2="19.25" y1="9.9419" y2="24.5" gradientTransform="matrix(.81331 0 0 .81133 3.9935 2.0282)" gradientUnits="userSpaceOnUse">
   <stop id="stop3291" stop-color="#919191" offset="0"/>
   <stop id="stop3293" stop-color="#232323" offset="1"/>
  </linearGradient>
  <radialGradient id="radialGradient4375" cx="11.312" cy="14.938" r="1.4375" gradientUnits="userSpaceOnUse" xlink:href="#linearGradient3299"/>
  <radialGradient id="radialGradient3792" cx="48" cy="85.132" r="36" gradientTransform="matrix(1.4019 1.2754e-8 -1.1111e-8 1.2212 -19.29 -25.867)" gradientUnits="userSpaceOnUse">
   <stop id="stop4346" stop-color="#8d409b" offset="0"/>
   <stop id="stop4348" stop-color="#320f38" offset="1"/>
  </radialGradient>
  <linearGradient id="linearGradient3871" x1="31.643" x2="31.643" y1="25.779" y2="69.41" gradientUnits="userSpaceOnUse">
   <stop id="stop3867" stop-color="#a9d5f6" offset="0"/>
   <stop id="stop3869" stop-color="#a9d5f6" stop-opacity="0" offset="1"/>
  </linearGradient>
  <linearGradient id="ButtonShadow-0" x1="45.448" x2="45.448" y1="92.54" y2="7.0165" gradientTransform="matrix(1.0059 0 0 .99417 100 0)" gradientUnits="userSpaceOnUse">
   <stop id="stop3750-8" offset="0"/>
   <stop id="stop3752-5" stop-opacity=".58824" offset="1"/>
  </linearGradient>
  <linearGradient id="linearGradient3780" x1="32.251" x2="32.251" y1="6.1317" y2="90.239" gradientTransform="matrix(1.0238 0 0 1.0119 -1.1429 -98.071)" gradientUnits="userSpaceOnUse" xlink:href="#ButtonShadow-0"/>
  <linearGradient id="linearGradient3721" x1="32.251" x2="32.251" y1="6.1317" y2="90.239" gradientTransform="translate(0,-97)" gradientUnits="userSpaceOnUse" xlink:href="#ButtonShadow-0"/>
 </defs>
 <metadata id="metadata2413">
  <rdf:RDF>
   <cc:Work rdf:about="">
    <dc:format>image/svg+xml</dc:format>
    <dc:type rdf:resource="http://purl.org/dc/dcmitype/StillImage"/>
    <dc:title/>
   </cc:Work>
  </rdf:RDF>
 </metadata>
 <g id="layer2" display="none">
  <rect id="rect3745" x="5" y="7" width="86" height="85" rx="6" ry="6" fill="url(#ButtonShadow)" filter="url(#filter3174)" opacity=".9"/>
 </g>
 <g id="layer7">
  <path id="path3786" transform="scale(1,-1)" d="m12-95.031c-5.5111 0-10.031 4.5202-10.031 10.031v71c0 5.5111 4.5202 10.031 10.031 10.031h72c5.5111 0 10.031-4.5202 10.031-10.031v-71c0-5.5111-4.5202-10.031-10.031-10.031h-72z" fill="url(#linearGradient3780)" opacity=".08"/>
  <path id="path3778-0" transform="scale(1,-1)" d="m12-94.031c-4.9716 0-9.0312 4.0596-9.0312 9.0312v71c0 4.9716 4.0596 9.0312 9.0312 9.0312h72c4.9716 0 9.0312-4.0596 9.0312-9.0312v-71c0-4.9716-4.0596-9.0312-9.0312-9.0312h-72z" fill="url(#linearGradient3780)" opacity=".1"/>
  <path id="path3770" transform="scale(1,-1)" d="m12-93c-4.4091 0-8 3.5909-8 8v71c0 4.4091 3.5909 8 8 8h72c4.4091 0 8-3.5909 8-8v-71c0-4.4091-3.5909-8-8-8h-72z" fill="url(#linearGradient3780)" opacity=".2"/>
  <rect id="rect3723" transform="scale(1,-1)" x="5" y="-92" width="86" height="85" rx="7" ry="7" fill="url(#linearGradient3780)" opacity=".3"/>
  <rect id="rect3716" transform="scale(1,-1)" x="6" y="-91" width="84" height="84" rx="6" ry="6" fill="url(#linearGradient3721)" opacity=".45"/>
 </g>
 <g id="layer1">
  <rect id="rect2419" x="6" y="6" width="84" height="84" rx="6" ry="6" fill="url(#linearGradient3617)"/>
  <path id="rect2980" d="m12 30v4 36 10c0 2.216 1.784 4 4 4h64c2.216 0 4-1.784 4-4v-10-36-4h-4-64-4z" fill="url(#radialGradient3792)"/>
  <rect id="rect3530" x="33" y="42" width="30" height="30" rx="3.75" ry="3.75" fill="#fff" fill-rule="evenodd" opacity=".3"/>
  <path id="path3858" d="m12 30v4 31.844c15.837-9.9532 42.04-16.659 72-17.281v-14.562-4h-4-64-4z" fill="url(#linearGradient3871)" opacity=".7"/>
  <path id="path3496" transform="matrix(-.48505 0 0 .51341 73.791 23.756)" d="m69.37 43.325 2e-6 42.85-37.11-21.425 37.11-21.425z" fill="#fff" fill-rule="evenodd"/>
  <path id="path3828" d="m12 30v4 36 10c0 2.216 1.784 4 4 4h64c2.216 0 4-1.784 4-4v-10-36-4h-4-64-4zm3.0938 3.0938h0.90625 64 0.90625v0.90625 36 10c0 0.55078-0.35547 0.90625-0.90625 0.90625h-64c-0.55078 0-0.90625-0.35547-0.90625-0.90625v-10-36-0.90625z" opacity=".08"/>
  <path id="rect3873" d="m53.375 37.875c-0.71993-0.05033-1.4503 0.11047-2.125 0.5l-6.2812 3.625h12.719l-1.3125-2.25c-0.64922-1.1245-1.8001-1.7911-3-1.875zm-20.375 9.4375-2.25 1.3125c-1.7992 1.0388-2.4138 3.3258-1.375 5.125l3.625 6.2812v-12.719zm30 6.6562v12.719l2.25-1.3125c1.7992-1.0388 2.4138-3.3258 1.375-5.125l-3.625-6.2812zm-24.688 18.031 1.3125 2.25c1.0388 1.7992 3.3258 2.4138 5.125 1.375l6.2812-3.625h-12.719z" fill="#3b1b41" fill-rule="evenodd" opacity=".5"/>
  <path id="path3809" d="m12 80v1c0 2.216 1.784 4 4 4h64c2.216 0 4-1.784 4-4v-1c0 2.216-1.784 4-4 4h-64c-2.216 0-4-1.784-4-4z" fill="#fff" opacity=".3"/>
  <path id="path3831" d="m12 30v4 36 10c0 2.216 1.784 4 4 4h64c2.216 0 4-1.784 4-4v-10-36-4h-4-64-4zm2.0312 2.0312h1.9688 64 1.9688v1.9688 36 10c0 1.1186-0.85012 1.9688-1.9688 1.9688h-64c-1.1186 0-1.9688-0.85012-1.9688-1.9688v-10-36-1.9688z" opacity=".2"/>
  <path id="path3818" d="m12 30v4 36 10c0 2.216 1.784 4 4 4h64c2.216 0 4-1.784 4-4v-10-36-4h-4-64-4zm1.0625 1.0625h2.9375 64 2.9375v2.9375 36 10c0 1.641-1.2965 2.9375-2.9375 2.9375h-64c-1.641 0-2.9375-1.2965-2.9375-2.9375v-10-36-2.9375z" fill="#320f38"/>
  <path id="path3835" d="m36.75 40.031c-3.1355 0-5.7188 2.5833-5.7188 5.7188v22.5c0 3.1355 2.5833 5.7188 5.7188 5.7188h22.5c3.1355 0 5.7188-2.5833 5.7188-5.7188v-22.5c0-3.1355-2.5833-5.7188-5.7188-5.7188h-22.5zm0 1.9688h22.5c2.0775 0 3.75 1.6725 3.75 3.75v22.5c0 2.0775-1.6725 3.75-3.75 3.75h-22.5c-2.0775 0-3.75-1.6725-3.75-3.75v-22.5c0-2.0775 1.6725-3.75 3.75-3.75z" fill-rule="evenodd" opacity=".05"/>
  <path id="path3838" d="m36.75 41c-2.6212 0-4.75 2.1288-4.75 4.75v22.5c0 2.6212 2.1288 4.75 4.75 4.75h22.5c2.6212 0 4.75-2.1288 4.75-4.75v-22.5c0-2.6212-2.1288-4.75-4.75-4.75h-22.5zm0 1h22.5c2.0775 0 3.75 1.6725 3.75 3.75v22.5c0 2.0775-1.6725 3.75-3.75 3.75h-22.5c-2.0775 0-3.75-1.6725-3.75-3.75v-22.5c0-2.0775 1.6725-3.75 3.75-3.75z" fill-rule="evenodd" opacity=".1"/>
 </g>
 <g id="layer5">
  <path id="path3615" d="m12 90c-3.324 0-6-2.676-6-6v-2-68-2c0-0.33472 0.04135-0.6507 0.09375-0.96875 0.0487-0.2956 0.09704-0.59692 0.1875-0.875 0.00988-0.03038 0.020892-0.0636 0.03125-0.09375 0.098865-0.28777 0.23488-0.54745 0.375-0.8125 0.14459-0.27351 0.31562-0.53562 0.5-0.78125s0.37378-0.47347 0.59375-0.6875c0.43995-0.42806 0.94291-0.81453 1.5-1.0938 0.27854-0.13961 0.57347-0.24695 0.875-0.34375-0.2562 0.10022-0.48671 0.23627-0.71875 0.375-0.00741 0.0044-0.023866-0.0045-0.03125 0-0.031933 0.0193-0.062293 0.04251-0.09375 0.0625-0.1204 0.0767-0.23102 0.16351-0.34375 0.25-0.10617 0.0808-0.21328 0.16111-0.3125 0.25-0.17793 0.16143-0.34746 0.34539-0.5 0.53125-0.10758 0.13026-0.21839 0.26528-0.3125 0.40625-0.025089 0.03838-0.038446 0.08587-0.0625 0.125-0.064763 0.10303-0.13023 0.20452-0.1875 0.3125-0.10101 0.19471-0.20567 0.4157-0.28125 0.625-0.00796 0.02181-0.023589 0.04055-0.03125 0.0625-0.031825 0.09195-0.035804 0.18683-0.0625 0.28125-0.030332 0.10662-0.070389 0.20303-0.09375 0.3125-0.072879 0.34151-0.125 0.6982-0.125 1.0625v2 68 2c0 2.7818 2.2182 5 5 5h2 68 2c2.7818 0 5-2.2182 5-5v-2-68-2c0-0.3643-0.05212-0.72099-0.125-1.0625-0.04415-0.20689-0.08838-0.39766-0.15625-0.59375-0.0077-0.02195-0.0233-0.04069-0.03125-0.0625-0.06274-0.17374-0.13838-0.36745-0.21875-0.53125-0.04158-0.0828-0.07904-0.16995-0.125-0.25-0.0546-0.09721-0.12677-0.18835-0.1875-0.28125-0.09411-0.14096-0.20492-0.276-0.3125-0.40625-0.14317-0.17445-0.30314-0.347-0.46875-0.5-0.01117-0.0102-0.01998-0.02115-0.03125-0.03125-0.13839-0.12556-0.28509-0.23444-0.4375-0.34375-0.10257-0.07315-0.20432-0.15336-0.3125-0.21875-0.0074-0.0045-0.02384 0.0044-0.03125 0-0.23204-0.13873-0.46255-0.27478-0.71875-0.375 0.30153 0.0968 0.59646 0.20414 0.875 0.34375 0.55709 0.27922 1.0601 0.66569 1.5 1.0938 0.21997 0.21403 0.40937 0.44186 0.59375 0.6875s0.35541 0.50774 0.5 0.78125c0.14012 0.26505 0.27614 0.52473 0.375 0.8125 0.01041 0.03078 0.02133 0.06274 0.03125 0.09375 0.09046 0.27808 0.1388 0.5794 0.1875 0.875 0.0524 0.31805 0.09375 0.63403 0.09375 0.96875v2 68 2c0 3.324-2.676 6-6 6h-72z" fill="url(#radialGradient3619)" opacity=".2"/>
  <rect id="rect3171" x="15" y="15" width="66" height="66" rx="12" ry="12" clip-path="url(#clipPath3613)" fill="url(#linearGradient3613)" filter="url(#filter3794)" opacity=".1" stroke="#fff" stroke-linecap="round" stroke-width=".5"/>
 </g>
 <g id="layer3">
  <path id="rect4237" d="m12 6c-3.324 0-6 2.676-6 6v12h84v-12c0-3.324-2.676-6-6-6h-72z"/>
  <rect id="rect3250" x="6" y="24" width="84" height="6" fill="url(#linearGradient4262)" fill-rule="evenodd" opacity=".8"/>
  <rect id="rect4289" x="6" y="15" width="84" height="5" fill="url(#linearGradient4320)" fill-rule="evenodd" opacity=".3"/>
  <g id="g4299" transform="translate(1)" fill="#f0f0f0" fill-rule="evenodd">
   <path id="path4293" d="m28.333 6-5.3333 9 5.3333 9h10.667l-5.3333-9 5.3333-9h-10.667z"/>
   <path id="path4295" d="m50.333 6-5.3333 9 5.3333 9h10.667l-5.3333-9 5.3333-9h-10.667z"/>
   <path id="path4297" d="m72.333 6-5.3333 9 5.3333 9h10.667l-5.3333-9 5.3333-9h-10.667z"/>
  </g>
  <rect id="rect4291" x="6" y="10" width="84" height="5" fill="url(#linearGradient4310)" fill-rule="evenodd" opacity=".7"/>
  <rect id="rect4324" x="6" y="19" width="84" height="5" fill="url(#linearGradient4326)" fill-rule="evenodd" opacity=".7"/>
  <path id="path4333" d="m12.005 10.5c1.1095 0 1.7702 0.98369 6.03 4.3027 4.3044 3.3537 5.4775 3.7265 5.4775 5.0746 0 1.3484-1.0882 1.6227-2.4399 1.6227h-8.1331c-1.3517 0-2.4399-1.0856-2.4399-2.434v-6.4906c0-1.3484 0.46761-2.0754 1.5054-2.0754z" fill="url(#linearGradient4371)" fill-rule="evenodd" stroke="url(#linearGradient4373)" stroke-linejoin="round"/>
  <path id="path4335" transform="matrix(.81331 0 0 .81133 3.5869 1.0747)" d="m12.75 14.938a1.4375 1.4375 0 1 1-2.875 0 1.4375 1.4375 0 1 1 2.875 0z" fill="url(#radialGradient4375)" fill-rule="evenodd"/>
  <path id="path4337" transform="matrix(.81331 0 0 .81133 3.5869 7.099)" d="m12.75 14.938a1.4375 1.4375 0 1 1-2.875 0 1.4375 1.4375 0 1 1 2.875 0z" fill="url(#radialGradient4375)" fill-rule="evenodd"/>
  <path id="path4339" transform="matrix(.81331 0 0 .81133 11.618 7.099)" d="m12.75 14.938a1.4375 1.4375 0 1 1-2.875 0 1.4375 1.4375 0 1 1 2.875 0z" fill="url(#radialGradient4375)" fill-rule="evenodd"/>
 </g>
 <g id="layer4">
  <path id="rect3728" d="m12 6c-3.324 0-6 2.676-6 6v2 68 2c0 0.33472 0.04135 0.6507 0.09375 0.96875 0.0487 0.2956 0.09704 0.59692 0.1875 0.875 0.00988 0.03038 0.020892 0.0636 0.03125 0.09375 0.098865 0.28777 0.23488 0.54745 0.375 0.8125 0.14459 0.27351 0.31562 0.53562 0.5 0.78125s0.37378 0.47347 0.59375 0.6875c0.43995 0.42806 0.94291 0.81453 1.5 1.0938 0.27854 0.13961 0.57347 0.24695 0.875 0.34375-0.2562-0.10022-0.48671-0.23627-0.71875-0.375-0.00741-0.0044-0.023866 0.0045-0.03125 0-0.031933-0.0193-0.062293-0.04251-0.09375-0.0625-0.1204-0.0767-0.23102-0.16351-0.34375-0.25-0.10617-0.0808-0.21328-0.16111-0.3125-0.25-0.17793-0.16143-0.34746-0.34539-0.5-0.53125-0.10758-0.13026-0.21839-0.26528-0.3125-0.40625-0.025089-0.03838-0.038446-0.08587-0.0625-0.125-0.064763-0.10303-0.13023-0.20452-0.1875-0.3125-0.10101-0.19471-0.20567-0.4157-0.28125-0.625-0.00796-0.02181-0.023589-0.04055-0.03125-0.0625-0.031825-0.09195-0.035804-0.18683-0.0625-0.28125-0.030332-0.10662-0.070389-0.20303-0.09375-0.3125-0.072879-0.34151-0.125-0.6982-0.125-1.0625v-2-68-2c0-2.7818 2.2182-5 5-5h2 68 2c2.7818 0 5 2.2182 5 5v2 68 2c0 0.3643-0.05212 0.72099-0.125 1.0625-0.04415 0.20689-0.08838 0.39766-0.15625 0.59375-0.0077 0.02195-0.0233 0.04069-0.03125 0.0625-0.06274 0.17374-0.13838 0.36745-0.21875 0.53125-0.04158 0.0828-0.07904 0.16995-0.125 0.25-0.0546 0.09721-0.12677 0.18835-0.1875 0.28125-0.09411 0.14096-0.20492 0.276-0.3125 0.40625-0.14317 0.17445-0.30314 0.347-0.46875 0.5-0.01117 0.0102-0.01998 0.02115-0.03125 0.03125-0.13839 0.12556-0.28509 0.23444-0.4375 0.34375-0.10257 0.07315-0.20432 0.15336-0.3125 0.21875-0.0074 0.0045-0.02384-0.0044-0.03125 0-0.23204 0.13873-0.46255 0.27478-0.71875 0.375 0.30153-0.0968 0.59646-0.20414 0.875-0.34375 0.55709-0.27922 1.0601-0.66569 1.5-1.0938 0.21997-0.21403 0.40937-0.44186 0.59375-0.6875s0.35541-0.50774 0.5-0.78125c0.14012-0.26505 0.27614-0.52473 0.375-0.8125 0.01041-0.03078 0.02133-0.06274 0.03125-0.09375 0.09046-0.27808 0.1388-0.5794 0.1875-0.875 0.0524-0.31805 0.09375-0.63403 0.09375-0.96875v-2-68-2c0-3.324-2.676-6-6-6h-72z" fill="url(#linearGradient3188)" opacity=".3"/>
 </g>
</svg>
