<?xml version="1.0" encoding="UTF-8"?>
<svg id="svg77" width="96" height="96" version="1.1" xmlns="http://www.w3.org/2000/svg" xmlns:cc="http://creativecommons.org/ns#" xmlns:dc="http://purl.org/dc/elements/1.1/" xmlns:rdf="http://www.w3.org/1999/02/22-rdf-syntax-ns#" xmlns:xlink="http://www.w3.org/1999/xlink">
 <metadata id="metadata80">
  <rdf:RDF>
   <cc:Work rdf:about="">
    <dc:format>image/svg+xml</dc:format>
    <dc:type rdf:resource="http://purl.org/dc/dcmitype/StillImage"/>
   </cc:Work>
  </rdf:RDF>
 </metadata>
 <defs id="defs2410">
  <filter id="filter3794" x="-.192" y="-.192" width="1.384" height="1.384">
   <feGaussianBlur id="feGaussianBlur3796" stdDeviation="5.28"/>
  </filter>
  <linearGradient id="linearGradient3613" x1="48" x2="48" y1="20.221" y2="138.66" gradientUnits="userSpaceOnUse">
   <stop id="stop3739" stop-color="#fff" offset="0"/>
   <stop id="stop3741" stop-color="#fff" stop-opacity="0" offset="1"/>
  </linearGradient>
  <linearGradient id="buttonGradient" x1="48" x2="48" y1="90" y2="5.9877" gradientUnits="userSpaceOnUse">
   <stop id="stop3702" stop-color="#27429c" offset="0"/>
   <stop id="stop3704" stop-color="#5072e1" offset="1"/>
  </linearGradient>
  <linearGradient id="ButtonShadow-0" x1="45.448" x2="45.448" y1="92.54" y2="7.0165" gradientTransform="matrix(1.0059 0 0 .99417 100 0)" gradientUnits="userSpaceOnUse">
   <stop id="stop3750-8" offset="0"/>
   <stop id="stop3752-5" stop-opacity=".58824" offset="1"/>
  </linearGradient>
  <linearGradient id="linearGradient3780" x1="32.251" x2="32.251" y1="6.1317" y2="90.239" gradientTransform="matrix(1.0238 0 0 1.0119 -1.1429 -98.071)" gradientUnits="userSpaceOnUse" xlink:href="#ButtonShadow-0"/>
  <linearGradient id="linearGradient3721" x1="32.251" x2="32.251" y1="6.1317" y2="90.239" gradientTransform="translate(0,-97)" gradientUnits="userSpaceOnUse" xlink:href="#ButtonShadow-0"/>
  <clipPath id="clipPath4355">
   <rect id="rect4357" x="6" y="6" width="84" height="84" rx="6" ry="6" fill="#fff"/>
  </clipPath>
  <linearGradient id="linearGradient4390" x1="48" x2="48" y1="88" y2="-40" gradientTransform="matrix(1,0,0,-1,0,92)" gradientUnits="userSpaceOnUse">
   <stop id="stop4386" stop-color="#fff" offset="0"/>
   <stop id="stop4388" stop-color="#fff" stop-opacity="0" offset="1"/>
  </linearGradient>
 </defs>
 <g id="layer3">
  <g id="g32" fill="url(#linearGradient3780)">
   <path id="path3786" transform="scale(1,-1)" d="m12-95.021c-5.5111 0-10.022 4.51-10.022 10.021v71c0 5.5111 4.5104 10.021 10.021 10.021h72c5.5111 0 10.021-4.5104 10.021-10.021v-71c0-5.5111-4.5104-10.021-10.021-10.021h-72z" opacity=".08"/>
   <path id="path3778" transform="scale(1,-1)" d="m12-94.035c-4.9716 0-9.0352 4.0635-9.0352 9.0352v71c0 4.9716 4.0635 9.0352 9.0352 9.0352h72c4.9716 0 9.0352-4.0635 9.0352-9.0352v-71c0-4.9716-4.0635-9.0352-9.0352-9.0352h-72z" opacity=".1"/>
   <path id="path3770" transform="scale(1,-1)" d="m12-92.99c-4.4091 0-7.9902 3.5811-7.9902 7.9902v71c0 4.4091 3.5811 7.9902 7.9902 7.9902h72c4.4091 0 7.9902-3.5811 7.9902-7.9902v-71c0-4.4091-3.5811-7.9902-7.9902-7.9902h-72z" opacity=".2"/>
   <rect id="rect3723" transform="scale(1,-1)" x="5" y="-92" width="86" height="85" rx="7" ry="7" opacity=".3"/>
  </g>
  <rect id="rect3716" transform="scale(1,-1)" x="6" y="-91" width="84" height="84" rx="6" ry="6" fill="url(#linearGradient3721)" opacity=".45"/>
 </g>
 <g id="layer1">
  <rect id="button" x="6" y="6" width="84" height="84" rx="6" ry="6" fill="url(#buttonGradient)"/>
  <path id="rect4377" d="m12 6c-3.324 0-6 2.676-6 6v72c0 3.324 2.676 6 6 6h72c3.324 0 6-2.676 6-6v-72c0-3.324-2.676-6-6-6zm0 2h72c2.805 0 5 2.195 5 5v70c0 2.805-2.195 5-5 5h-72c-2.805 0-5-2.195-5-5v-70c0-2.805 2.195-5 5-5z" fill="url(#linearGradient4390)" opacity=".3"/>
 </g>
 <g id="layer5">
  <rect id="rect3171" x="15" y="15" width="66" height="66" rx="12" ry="12" clip-path="url(#clipPath4355)" fill="url(#linearGradient3613)" filter="url(#filter3794)" opacity=".1" stroke="#fff" stroke-linecap="round" stroke-width=".5"/>
 </g>
 <defs id="defs53">
  <linearGradient id="a" x1="8" x2="8" y1="1" y2="15" gradientUnits="userSpaceOnUse">
   <stop id="stop48" stop-color="#fafafa" offset="0"/>
   <stop id="stop50" stop-color="#ebebeb" offset="1"/>
  </linearGradient>
 </defs>
 <g id="g74">
  <path id="rect825" transform="matrix(4,0,0,4,16,17)" d="m8.9922 0.75a0.25002 0.25002 0 0 0-0.052734 0.007813l-8 2a0.25002 0.25002 0 0 0-0.18945 0.24219v10a0.25002 0.25002 0 0 0 0.18945 0.24219l8 2a0.25002 0.25002 0 0 0 0.31055-0.24219v-14a0.25002 0.25002 0 0 0-0.25781-0.25zm1.0078 2a0.25002 0.25002 0 0 0-0.25 0.25v1a0.25002 0.25002 0 0 0 0.25 0.25h3.75v0.5h-3.75a0.25002 0.25002 0 0 0-0.25 0.25v1a0.25002 0.25002 0 0 0 0.25 0.25h3.75v0.5h-3.75a0.25002 0.25002 0 0 0-0.25 0.25v1a0.25002 0.25002 0 0 0 0.25 0.25h3.75v0.5h-3.75a0.25002 0.25002 0 0 0-0.25 0.25v1a0.25002 0.25002 0 0 0 0.25 0.25h3.75v0.5h-3.75a0.25002 0.25002 0 0 0-0.25 0.25v2a0.25002 0.25002 0 0 0 0.25 0.25h4.5c0.41118 0 0.75-0.33882 0.75-0.75v-9c0-0.41118-0.33882-0.75-0.75-0.75h-4zm-2.502 2.5c0.15411 0 0.16176 0.00194 0.21875 0.00586-0.08011 0.36148-0.34744 1.6397-0.61914 2.9512-0.14134 0.68221-0.27867 1.3499-0.38086 1.8496-0.051096 0.24985-0.093432 0.45769-0.12305 0.60547-0.00697 0.03479-0.0101 0.05413-0.015625 0.08203-0.042999 0.0028-0.080017 0.0056-0.13867 0.0059-0.18432 7.14e-4 -0.42096-0.01371-0.5957-0.04102 0.00282 0.0011-0.011801-0.01238-0.039063-0.10352-0.063648-0.2128-0.15551-0.68378-0.33008-1.5938-0.098696-0.51448-0.19534-0.9747-0.27148-1.3047-0.038072-0.16499-0.070294-0.29564-0.097656-0.39062-0.013681-0.047494-0.025229-0.08467-0.041016-0.12305-0.0078934-0.019188-0.012249-0.035326-0.042969-0.076172-0.0076799-0.010212-0.01667-0.024059-0.033203-0.039062-0.00827-0.0075-0.030913-0.023215-0.03125-0.023437-3.367e-4 -2.224e-4 -0.04851-0.025269-0.048828-0.025391-3.184e-4 -1.221e-4 -0.073919-0.015604-0.074219-0.015625-3e-4 -2.12e-5 -0.085656 0.00773-0.085937 0.00781-2.814e-4 8.03e-5 -0.075909 0.036927-0.076172 0.037109-2.626e-4 1.824e-4 -0.046631 0.042683-0.046875 0.042969-0.04019 0.046979-0.039993 0.061858-0.046875 0.078125-0.00688 0.016267-0.01291 0.028809-0.017578 0.042969-0.00934 0.02832-0.017582 0.058835-0.027344 0.095703-0.019524 0.073738-0.042652 0.16977-0.068359 0.28516-0.051416 0.23079-0.11386 0.53681-0.17578 0.86523-0.1226 0.65026-0.2801 1.4464-0.34766 1.7578l-0.078125 0.35742-0.28125-0.0332c-0.12851-0.0152-0.25157-0.03788-0.33789-0.06055-0.022527-0.0059-0.032615-0.01035-0.048828-0.01563-0.00789-0.02101-0.00338-0.01065-0.011719-0.04492-0.017014-0.06993-0.03355-0.15982-0.046875-0.24805-0.032863-0.21761-0.21781-1.2323-0.41797-2.3047-0.19993-1.0712-0.39028-2.0997-0.41797-2.2617a0.25002 0.25002 0 0 0 0-0.00195l-0.00391-0.025391h0.19727c0.21493 0 0.28274 0.014642 0.28125 0.00586 0.00415 0.019787 0.00562 0.023959 0.011719 0.060547 0.022878 0.13716 0.1468 0.96883 0.27148 1.8184 0.06279 0.42782 0.12732 0.8078 0.17969 1.082 0.026186 0.13711 0.049448 0.24708 0.070313 0.32812 0.010432 0.040521 0.017697 0.07104 0.033203 0.10938 0.00775 0.019168 0.00972 0.03937 0.048828 0.085937 0.00978 0.011642 0.044298 0.040549 0.044922 0.041016 6.238e-4 4.667e-4 0.093171 0.042835 0.09375 0.042969 5.787e-4 1.338e-4 0.1479-0.00956 0.14844-0.00977 5.328e-4 -2.03e-4 0.09717-0.067816 0.097656-0.068359 4.863e-4 -5.438e-4 0.023377-0.029235 0.029297-0.039063 0.00592-0.00983 0.010557-0.016982 0.013672-0.023437 0.00623-0.012911 0.010402-0.022556 0.013672-0.03125 0.00654-0.017388 0.010478-0.031603 0.015625-0.048828 0.010294-0.034451 0.020461-0.07595 0.033203-0.12695 0.025487-0.10201 0.05874-0.24187 0.095706-0.41016 0.073933-0.33657 0.16791-0.78848 0.26367-1.2793 0.095281-0.48839 0.18492-0.94062 0.25391-1.2734 0.034493-0.16641 0.064523-0.3027 0.085938-0.39844 0.00151-0.00675 0.00247-0.00928 0.00391-0.015625 0.08699-0.00969 0.21284-0.017578 0.3457-0.017578h0.30664l0.31641 1.7207c0.0971 0.53064 0.18854 1.0166 0.25781 1.373 0.034638 0.17824 0.064189 0.32388 0.085937 0.42773 0.010874 0.051927 0.019873 0.093312 0.027344 0.125 0.00374 0.015844 0.00579 0.028891 0.00977 0.042969 0.00199 0.00704 0.0037 0.013913 0.00781 0.025391 0.00205 0.00574 0.00444 0.011999 0.00977 0.023437 0.00266 0.00572 0.01353 0.023198 0.013672 0.023437 1.414e-4 2.396e-4 0.029174 0.040881 0.029297 0.041016 0.015099 0.016519 0.037175 0.036616 0.070312 0.054688 0.016569 0.00904 0.057839 0.023239 0.058594 0.023437 7.548e-4 1.983e-4 0.069545 0.00783 0.070312 0.00781 7.678e-4 -1.77e-5 0.071483-0.00952 0.072266-0.00977 7.825e-4 -2.422e-4 0.03884-0.01596 0.054687-0.025391 0.031695-0.01886 0.051853-0.039804 0.066406-0.056641 0.058213-0.067348 0.059891-0.098131 0.072266-0.13672 0.024745-0.077168 0.044686-0.17324 0.074213-0.33007 0.059054-0.31366 0.14658-0.8566 0.29297-1.7793 0.076231-0.4805 0.15314-0.9265 0.21289-1.2578 0.029873-0.16566 0.054398-0.30238 0.074219-0.39844 0.00329-0.015949 0.00488-0.023514 0.00781-0.037109 0.00972-0.00181 0.012371-0.00221 0.023437-0.00391 0.089275-0.013698 0.21888-0.023434 0.35352-0.023434z" opacity=".15"/>
  <g id="Bevel1"></g>
  <g id="Bevel2"></g>
  <path id="base" transform="translate(16,16) scale(4)" d="m9 1-8 2v10l8 2v-14zm1 2v1h4v1h-4v1h4v1h-4v1h4v1h-4v1h4v1h-4v2h4.5c0.277 0 0.5-0.223 0.5-0.5v-9c0-0.277-0.223-0.5-0.5-0.5h-4.5zm-2.502 2c0.50927 0 0.52968 0.0088456 0.48828 0.19141-0.12529 0.55258-1.1928 5.7057-1.1934 5.7598-5.344e-4 0.06408-0.60491 0.066376-0.99609 0.003906-0.20731-0.033112-0.21916-0.076175-0.56836-1.8965-0.19646-1.0241-0.38286-1.8314-0.41406-1.7949-0.031205 0.036477-0.15632 0.59974-0.2793 1.252-0.12297 0.65221-0.28052 1.4452-0.34961 1.7637l-0.12695 0.58008-0.50586-0.060547c-0.27838-0.032933-0.52944-0.099074-0.55859-0.14648-0.029168-0.047407-0.076536-0.24202-0.10547-0.43359-0.02893-0.19157-0.21602-1.2254-0.41602-2.2969-0.19999-1.0715-0.38811-2.0909-0.41797-2.2656l-0.054688-0.31836h0.49414c0.49281 0 0.49324 6.539e-4 0.53906 0.27539 0.025254 0.15141 0.14867 0.97221 0.27344 1.8223 0.12476 0.85006 0.25208 1.5172 0.2832 1.4824 0.031124-0.0348 0.21343-0.86348 0.4043-1.8418 0.19086-0.97831 0.36237-1.8088 0.38281-1.8438 0.020446-0.03494 0.2693-0.0625 0.55273-0.0625h0.51562l0.35352 1.9258c0.19393 1.0598 0.36518 1.9418 0.38086 1.959 0.046439 0.050806 0.10773-0.27839 0.40039-2.123 0.15294-0.964 0.30245-1.7925 0.33203-1.8418 0.029577-0.049245 0.29353-0.089844 0.58594-0.089844z" fill="url(#a)"/>
  <path id="path64" transform="translate(0,2)" d="m56 30v1h16v-1h-16zm-10.008 4c-1.1696 0-2.2254 0.1624-2.3438 0.35938-0.11832 0.1972-0.71637 3.5112-1.3281 7.3672-1.1706 7.3784-1.4158 8.6954-1.6016 8.4922-0.06272-0.0688-0.74772-3.5967-1.5234-7.8359l-1.4141-7.7031h-2.0625c-1.1337 0-2.1292 0.11024-2.2109 0.25-0.081759 0.14-0.76781 3.4618-1.5312 7.375-0.76348 3.9133-1.4927 7.228-1.6172 7.3672-0.12448 0.1392-0.63377-2.5294-1.1328-5.9297-0.49908-3.4004-0.99273-6.6834-1.0938-7.2891-0.18328-1.099-0.18501-1.1016-2.1562-1.1016h-1.9766l0.17188 1h1.8047c1.9712 0 1.973 0.002603 2.1562 1.1016 0.10102 0.60564 0.59467 3.8887 1.0938 7.2891 0.49904 3.4002 1.0083 6.0689 1.1328 5.9297 0.1245-0.1392 0.85371-3.4539 1.6172-7.3672 0.76344-3.9132 1.4495-7.235 1.5312-7.375 0.081781-0.13976 1.0772-0.25 2.2109-0.25h2.0625l1.4141 7.7031c0.77572 4.2392 1.4607 7.7671 1.5234 7.8359 0.18576 0.20322 0.43092-1.1137 1.6016-8.4922 0.61176-3.856 1.2098-7.17 1.3281-7.3672 0.11831-0.19698 1.1741-0.35938 2.3438-0.35938 1.1406 0 1.6567 0.016341 1.8711 0.1543 0.009802-0.04411 0.07409-0.35365 0.082031-0.38867 0.1656-0.73024 0.083956-0.76562-1.9531-0.76562zm10.008 4v1h16v-1h-16zm0 8v1h16v-1h-16zm0 8v1h16v-1h-16zm20 10c0 1.108-0.892 2-2 2h-16-2v1h2 16c1.108 0 2-0.892 2-2v-1zm-56 2v1l32 8v-1l-32-8z" opacity=".3" stroke-width="4"/>
  <path id="path69" transform="translate(0,2)" d="m52 18-32 8v1l32-8v-1zm4 8v1h2 16c1.108 0 2 0.892 2 2v-1c0-1.108-0.892-2-2-2h-16-2zm0 8v1h16v-1h-16zm-8.1367 1.1543c-0.60878 2.7396-4.689 22.437-4.6914 22.65-0.0021 0.25632-2.4197 0.26554-3.9844 0.015624-0.82924-0.13244-0.87664-0.30466-2.2734-7.5859-0.78584-4.0964-1.5314-7.3257-1.6562-7.1797-0.12482 0.14591-0.62527 2.3988-1.1172 5.0078-0.49188 2.6088-1.1221 5.7807-1.3984 7.0547l-0.50781 2.3203-2.0234-0.24219c-1.1135-0.1317-2.1178-0.39631-2.2344-0.58594-0.11667-0.18963-0.30614-0.9681-0.42187-1.7344-0.11572-0.76628-0.86406-4.9015-1.6641-9.1875-0.79996-4.286-1.5524-8.3637-1.6719-9.0625l-0.046875-0.27344h-0.17188l0.21875 1.2734c0.11944 0.6988 0.87192 4.7765 1.6719 9.0625 0.8 4.286 1.5483 8.4212 1.6641 9.1875 0.11574 0.76628 0.3052 1.5447 0.42187 1.7344 0.1166 0.18962 1.1209 0.45424 2.2344 0.58594l2.0234 0.24219 0.50781-2.3203c0.27636-1.274 0.90656-4.4458 1.3984-7.0547 0.49192-2.609 0.99237-4.8619 1.1172-5.0078 0.1248-0.146 0.87041 3.0833 1.6562 7.1797 1.3968 7.2813 1.4442 7.4535 2.2734 7.5859 1.5647 0.24992 3.9823 0.2407 3.9844-0.015624 0.0024-0.2164 4.2723-20.829 4.7734-23.039 0.072878-0.32136 0.086448-0.5029-0.082031-0.61133zm8.1367 6.8457v1h16v-1h-16zm0 8v1h16v-1h-16zm0 8v1h16v-1h-16z" fill="#fff" stroke-width="4"/>
 </g>
</svg>
