<?xml version="1.0" encoding="UTF-8"?>
<svg id="svg77" width="96" height="96" version="1.1" xmlns="http://www.w3.org/2000/svg" xmlns:cc="http://creativecommons.org/ns#" xmlns:dc="http://purl.org/dc/elements/1.1/" xmlns:rdf="http://www.w3.org/1999/02/22-rdf-syntax-ns#" xmlns:xlink="http://www.w3.org/1999/xlink">
 <metadata id="metadata80">
  <rdf:RDF>
   <cc:Work rdf:about="">
    <dc:format>image/svg+xml</dc:format>
    <dc:type rdf:resource="http://purl.org/dc/dcmitype/StillImage"/>
   </cc:Work>
  </rdf:RDF>
 </metadata>
 <defs id="defs2410">
  <filter id="filter3794" x="-.192" y="-.192" width="1.384" height="1.384">
   <feGaussianBlur id="feGaussianBlur3796" stdDeviation="5.28"/>
  </filter>
  <linearGradient id="linearGradient3613" x1="48" x2="48" y1="20.221" y2="138.66" gradientUnits="userSpaceOnUse">
   <stop id="stop3739" stop-color="#fff" offset="0"/>
   <stop id="stop3741" stop-color="#fff" stop-opacity="0" offset="1"/>
  </linearGradient>
  <linearGradient id="buttonGradient" x1="48" x2="48" y1="90" y2="5.9877" gradientUnits="userSpaceOnUse">
   <stop id="stop3702" stop-color="#233d65" offset="0"/>
   <stop id="stop3704" stop-color="#396aa1" offset="1"/>
  </linearGradient>
  <linearGradient id="ButtonShadow-0" x1="45.448" x2="45.448" y1="92.54" y2="7.0165" gradientTransform="matrix(1.0059 0 0 .99417 100 0)" gradientUnits="userSpaceOnUse">
   <stop id="stop3750-8" offset="0"/>
   <stop id="stop3752-5" stop-opacity=".58824" offset="1"/>
  </linearGradient>
  <linearGradient id="linearGradient3780" x1="32.251" x2="32.251" y1="6.1317" y2="90.239" gradientTransform="matrix(1.0238 0 0 1.0119 -1.1429 -98.071)" gradientUnits="userSpaceOnUse" xlink:href="#ButtonShadow-0"/>
  <linearGradient id="linearGradient3721" x1="32.251" x2="32.251" y1="6.1317" y2="90.239" gradientTransform="translate(0,-97)" gradientUnits="userSpaceOnUse" xlink:href="#ButtonShadow-0"/>
  <clipPath id="clipPath4355">
   <rect id="rect4357" x="6" y="6" width="84" height="84" rx="6" ry="6" fill="#fff"/>
  </clipPath>
  <linearGradient id="linearGradient4390" x1="48" x2="48" y1="88" y2="-40" gradientTransform="matrix(1,0,0,-1,0,92)" gradientUnits="userSpaceOnUse">
   <stop id="stop4386" stop-color="#fff" offset="0"/>
   <stop id="stop4388" stop-color="#fff" stop-opacity="0" offset="1"/>
  </linearGradient>
 </defs>
 <g id="layer3">
  <g id="g32" fill="url(#linearGradient3780)">
   <path id="path3786" transform="scale(1,-1)" d="m12-95.021c-5.5111 0-10.022 4.51-10.022 10.021v71c0 5.5111 4.5104 10.021 10.021 10.021h72c5.5111 0 10.021-4.5104 10.021-10.021v-71c0-5.5111-4.5104-10.021-10.021-10.021h-72z" opacity=".08"/>
   <path id="path3778" transform="scale(1,-1)" d="m12-94.035c-4.9716 0-9.0352 4.0635-9.0352 9.0352v71c0 4.9716 4.0635 9.0352 9.0352 9.0352h72c4.9716 0 9.0352-4.0635 9.0352-9.0352v-71c0-4.9716-4.0635-9.0352-9.0352-9.0352h-72z" opacity=".1"/>
   <path id="path3770" transform="scale(1,-1)" d="m12-92.99c-4.4091 0-7.9902 3.5811-7.9902 7.9902v71c0 4.4091 3.5811 7.9902 7.9902 7.9902h72c4.4091 0 7.9902-3.5811 7.9902-7.9902v-71c0-4.4091-3.5811-7.9902-7.9902-7.9902h-72z" opacity=".2"/>
   <rect id="rect3723" transform="scale(1,-1)" x="5" y="-92" width="86" height="85" rx="7" ry="7" opacity=".3"/>
  </g>
  <rect id="rect3716" transform="scale(1,-1)" x="6" y="-91" width="84" height="84" rx="6" ry="6" fill="url(#linearGradient3721)" opacity=".45"/>
 </g>
 <g id="layer1">
  <rect id="button" x="6" y="6" width="84" height="84" rx="6" ry="6" fill="url(#buttonGradient)"/>
  <path id="rect4377" d="m12 6c-3.324 0-6 2.676-6 6v72c0 3.324 2.676 6 6 6h72c3.324 0 6-2.676 6-6v-72c0-3.324-2.676-6-6-6zm0 2h72c2.805 0 5 2.195 5 5v70c0 2.805-2.195 5-5 5h-72c-2.805 0-5-2.195-5-5v-70c0-2.805 2.195-5 5-5z" fill="url(#linearGradient4390)" opacity=".3"/>
 </g>
 <g id="layer5">
  <rect id="rect3171" x="15" y="15" width="66" height="66" rx="12" ry="12" clip-path="url(#clipPath4355)" fill="url(#linearGradient3613)" filter="url(#filter3794)" opacity=".1" stroke="#fff" stroke-linecap="round" stroke-width=".5"/>
 </g>
 <defs id="defs53">
  <linearGradient id="a" x1="8" x2="8" y1=".99998" y2="15" gradientUnits="userSpaceOnUse">
   <stop id="stop48" stop-color="#fafafa" offset="0"/>
   <stop id="stop50" stop-color="#ebebeb" offset="1"/>
  </linearGradient>
 </defs>
 <g id="g74">
  <path id="path13" transform="matrix(4,0,0,4,16,17)" d="m1.959 0.75391c-0.51743-0.041649-0.92772 0.29633-1.1016 0.70703-0.17499 0.41341-0.15271 0.93037 0.16797 1.3047 0.46913 0.66253 0.96703 1.2527 1.1035 1.9746l-0.0039062-0.03125c0.033333 0.53837 0.35051 0.94992 0.57617 1.3105 0.11283 0.18031 0.20485 0.34706 0.25 0.5 0.04515 0.15294 0.050658 0.28698-0.00781 0.44727a0.25002 0.25002 0 0 0-0.00391 0.013672c-0.37183 1.2389-0.40154 2.732 0.39258 3.875 0.21772 0.4484 0.68273 0.64513 1.0957 0.57812 0.34336-0.05571 0.65181-0.30909 0.77734-0.68164 0.4549 0.68825 1.1329 1.148 1.6387 1.6582 0.01004 0.01752 0.00131 0.04546 0.013672 0.05859 0.062792 0.06671 0.12591 0.0884 0.18164 0.10352 0.11145 0.03023 0.21201 0.02599 0.31836 0 0.053173-0.013 0.10734-0.03185 0.16406-0.07031 0.056718-0.03846 0.12197-0.10501 0.14648-0.20312 0.024518-0.09811-0.00299-0.20148-0.046875-0.27148-0.043883-0.07-0.10084-0.12086-0.16797-0.16992l0.021486 0.017579c-0.86588-0.78358-1.4004-1.8933-1.9062-2.9922a0.25002 0.25002 0 0 0-0.00781-0.017578c0.0013145 0.0023355-0.052794-0.19608-0.12305-0.375-0.035128-0.089458-0.079549-0.18496-0.17188-0.27148s-0.26045-0.14188-0.4043-0.10547a0.25002 0.25002 0 0 0-0.11133 0.060547c-0.44247 0.41469-0.61716 0.96353-0.71094 1.5195-5.171e-4 -0.0016724-0.0014386-0.002229-0.0019531-0.0039063-0.085424-0.27844-0.14271-0.62495-0.16406-0.82617a0.25002 0.25002 0 0 0 0-0.00195c-0.081273-0.69444 0.12604-1.399 0.36328-2.1035a0.25002 0.25002 0 0 0 0.013672-0.074219c0.011677-0.47325-0.24476-0.82267-0.46094-1.1172-0.21618-0.29451-0.39219-0.54186-0.4082-0.83008a0.25002 0.25002 0 0 0-0.0078125-0.048828c-0.24014-0.90541-0.65338-1.7765-1.3027-2.4844v-0.00195c-0.085214-0.095472-0.079774-0.10614-0.087891-0.125 0.11452-0.00891 0.36409 0.037662 0.46875 0.12891a0.25002 0.25002 0 0 0 0.068359 0.042969c0.20309 0.084363 0.4165 0.27342 0.67383 0.44922 0.25733 0.1758 0.59182 0.33715 0.99023 0.25586l-0.0625 0.00391c1.0893 0.058124 2.0409 0.77761 2.8965 1.5215 0.9327 0.85427 1.6301 1.9525 2.0625 3.1445a0.25002 0.25002 0 0 0 0.011719 0.027344c0.40087 0.78957 0.67542 1.6995 1.2383 2.4941a0.25002 0.25002 0 0 0 0.05859 0.05664c0.36433 0.26487 0.7812 0.38281 1.1523 0.50977 0.37114 0.12696 0.6892 0.25908 0.9043 0.49023a0.25002 0.25002 0 0 0 0.01367 0.01367c0.09716 0.08951 0.20753 0.15004 0.33398 0.22461 7e-3 0.0041 0.01248 0.0076 0.01953 0.01172-0.50567 0.05588-1.0546 0.15264-1.4844 0.53125a0.25002 0.25002 0 0 0-0.08398 0.20898c0.07228 0.84722 0.84214 1.3758 1.4102 1.7305a0.25002 0.25002 0 0 0 0.02734 0.01367c0.72606 0.33814 1.3947 0.77146 2.0332 1.2617a0.25002 0.25002 0 0 0 0.1543 0.052731c0.12778-2.28e-4 0.29436-0.08618 0.34961-0.21289 0.05525-0.12671 0.03317-0.22746 0.01172-0.31055-0.04291-0.16618-0.12196-0.29442-0.18164-0.37891a0.25002 0.25002 0 0 0-0.01563-0.01953c-0.53596-0.6108-1.1134-1.2679-1.9102-1.666 0.16973-0.02735 0.35974-0.0513 0.52148-0.08594a0.25002 0.25002 0 0 0 0.01172-2e-3c0.10855-0.0289 0.29103-0.04178 0.48633-0.07813 0.1953-0.03635 0.42641-0.10223 0.58789-0.30274a0.25002 0.25002 0 0 0 0.05078-0.19531c-0.05222-0.32752-0.24362-0.57747-0.44531-0.77734-0.2017-0.19988-0.4206-0.36336-0.57617-0.51562a0.25002 0.25002 0 0 0-0.01563-0.01367c-0.69648-0.57889-1.4837-1.0641-2.3437-1.3906-0.65378-1.0294-1.0496-2.2315-1.6133-3.3828a0.25002 0.25002 0 0 0-0.0058594-0.011719c-0.94058-1.6988-2.4299-3.0843-4.1719-3.9297-0.38363-0.19793-0.78286-0.20566-1.1191-0.24414s-0.59303-0.094175-0.79297-0.30273a0.25002 0.25002 0 0 0-0.039062-0.033203c-0.4682-0.31516-1.0174-0.56799-1.6191-0.62305a0.25002 0.25002 0 0 0-0.070312-0.019531c-0.00274-2.4663e-4 -0.00508 2.2535e-4 -0.00781 0-6.505e-4 -3.821e-5 -0.0013 3.771e-5 -0.00195 0zm2.0996 2.4082c-0.00682 2.826e-4 -0.016522 0.00545-0.023438 0.00586-0.00602 0.00111-0.011554-0.00126-0.017578 0l0.00391 0.00391c-0.086878 0.00628-0.17716 0.018083-0.29102 0.076172-0.064188 0.032749-0.14476 0.079232-0.19531 0.19336-0.050557 0.11413-0.014165 0.2725 0.052734 0.35938a0.25002 0.25002 0 0 0 0.066406 0.058594c0.074601 0.046199 0.14156 0.16565 0.21875 0.33984 0.077191 0.17419 0.16267 0.40809 0.40625 0.54688a0.25002 0.25002 0 0 0 0.20898 0.017578c0.21997-0.080203 0.37972-0.24674 0.45312-0.4336 0.073405-0.18686 0.072071-0.38676 0.017578-0.56836-0.054492-0.1816-0.16339-0.34944-0.32617-0.4668-0.13708-0.098831-0.3196-0.14032-0.50977-0.12695a0.25002 0.25002 0 0 0-0.064453-0.00586z" opacity=".15" stroke-width=".98636"/>
  <g id="Bevel1"></g>
  <g id="Bevel2"></g>
  <path id="base" transform="translate(16,16) scale(4)" d="m1.9456 1.0035c-.81658-.073466-1.2262 1.0204-.73034 1.5992.46321.65651 1.0056 1.2797 1.1591 2.0916.054837.88569 1.1144 1.507.80426 2.3572-.35999 1.1994-.3797 2.6317.37267 3.6899.33911.7133 1.3995.55734 1.468-.25425.02201-.30641.00644-.7454.18939-.19686.38357.82512 1.195 1.3198 1.8168 1.9486-.051266.18648.68609.11696.28066-.17932-.91437-.82746-1.4574-1.9715-1.9641-3.0723-.094876-.16825-.13273-.70378-.42022-.63102-.54096.507-.71836 1.2603-.73449 1.9745-.33529-.022968-.51699-1.009-.5628-1.4407-.089122-.76151.13681-1.5034.37566-2.2127.018716-.75851-.82752-1.1696-.86958-1.9265-.23228-.87576-.62875-1.7089-1.2452-2.3805-.58673-.65201.3449-.68803.72912-.35305.51934.21573.89271.81852 1.5198.69058 1.1913.063569 2.1873.83299 3.0523 1.5855.96558.88439 1.6839 2.0174 2.1289 3.2441.4142.81582.68714 1.7104 1.2192 2.4616.6351.46171 1.5642.46338 2.0936 1.0323.2198.2025 1.3599.69316.50756.62455-.56356.04913-1.2076.12991-1.6434.51382.05938.69596.74035 1.1935 1.2951 1.5399.74691.34785 1.4314.79203 2.0803 1.2903.26764-.000477.05902-.39108-.02331-.50764-.55078-.62769-1.1167-1.2793-1.8859-1.6442-.78542-.42988.28132-.44018.6329-.51548.29619-.07887.73822-.04081.94372-.29597-.08034-.50391-.6041-.81293-.95095-1.1524-.70723-.58787-1.4997-1.0843-2.3675-1.3974-.69634-1.0768-1.092-2.3125-1.6537-3.4598-.91487-1.6524-2.3703-3.005-4.0677-3.8278-.63952-.32996-1.4578-.053812-1.9777-.59613-.46813-.31511-1.0011-.56652-1.5724-.59963zm2.1237 2.4092c-.098296.0040737-.40873.072048-.28329.23495.31596.19567.31813.71147.6172.88187.63106-.23007.32266-1.2538-.33391-1.1168z" fill="url(#a)" stroke-width=".98636"/>
  <path id="path64" transform="translate(0,2)" d="m24.24 21.24c-1.0154-0.044858-1.7962 0.37999-1.2969 1.3984 0.55207-0.68388 2.5038-0.45244 3.5156 0.42969 2.0774 0.86292 3.5698 3.2754 6.0781 2.7637 4.7652 0.25428 8.749 3.3318 12.209 6.3418 3.8623 3.5376 6.7356 8.0698 8.5156 12.977 1.6568 3.2633 2.7487 6.8409 4.877 9.8457 2.5404 1.8468 6.2574 1.8532 8.375 4.1289 0.4009 0.36935 1.5401 0.97271 2.3672 1.5 2.5846 0.074234-1.528-1.7269-2.3672-2.5-2.1176-2.2757-5.8346-2.2821-8.375-4.1289-2.1282-3.0048-3.2202-6.5824-4.877-9.8457-1.78-4.9068-4.6533-9.439-8.5156-12.977-3.46-3.01-7.4438-6.0875-12.209-6.3418-2.5084 0.51176-4.0008-1.9008-6.0781-2.7637-0.57633-0.50247-1.4623-0.79471-2.2188-0.82812zm-4.2051 1.2363c-0.11703 1.0372 0.12415 2.1142 0.82617 2.9336 1.8528 2.626 4.0227 5.1196 4.6367 8.3672 0.17917 2.8938 3.0365 5.0827 3.4023 7.6406 0.40001-3.0103-3.2003-5.3777-3.4023-8.6406-0.614-3.2476-2.7839-5.7411-4.6367-8.3672-0.4767-0.55644-0.74022-1.2326-0.82617-1.9336zm11.426 6.377c-0.34158 0.14972-0.58932 0.38192-0.31641 0.73633 1.2638 0.78268 1.2725 2.8457 2.4688 3.5273 1.155-0.42108 1.5161-1.5044 1.3242-2.5059-0.13786 0.64951-0.55433 1.2252-1.3242 1.5059-1.0836-0.61738-1.2022-2.3576-2.1523-3.2637zm0.47266 12.066c-0.83617 2.4972-1.6018 5.0927-1.4941 7.7539 0.090993-2.3858 0.80357-4.7169 1.5605-6.9648 0.006782-0.27486-0.021362-0.53495-0.066406-0.78906zm-4.1758 8.1055c-0.083248 3.1697 0.5968 6.3368 2.4473 8.9395 1.3564 2.8532 5.599 2.2307 5.873-1.0156 0.08804-1.2256 0.024059-2.9813 0.75586-0.78711 1.5343 3.3005 4.7804 5.2778 7.2676 7.793-0.2022 0.73549 2.6542 0.47359 1.1797-0.66992-0.51324 0.16562-1.2888 0.066992-1.1797-0.33008-2.4872-2.5152-5.7333-4.4925-7.2676-7.793-0.7318-2.1942-0.66782-0.43853-0.75586 0.78711-0.274 3.2464-4.5166 3.8688-5.873 1.0156-1.6554-2.3284-2.3733-5.1096-2.4473-7.9395zm46.154 13.338c-0.88741 0.77142-2.4569 0.67708-3.5449 0.9668-1.2708 0.27218-4.8597 0.33737-3.2246 1.6152 0.77506-0.34867 2.4346-0.44604 3.2246-0.61523 1.1848-0.31548 2.9514-0.16295 3.7734-1.1836-0.043964-0.27575-0.12451-0.53432-0.22852-0.7832zm-11.775 1.1914c-0.053855 0.043984-0.11363 0.078854-0.16602 0.125 0.23752 2.7838 2.9607 4.7726 5.1797 6.1582 2.9876 1.3914 5.7247 3.169 8.3203 5.1621 0.64666-0.001148 0.5795-0.56866 0.36719-1.123-0.083687 0.07094-0.19373 0.12274-0.36719 0.12305-2.5956-1.9931-5.3327-3.7707-8.3203-5.1621-1.9783-1.2353-4.3524-2.9528-5.0137-5.2832z" opacity=".3" stroke-width="3.9454"/>
  <path id="path69" transform="translate(0,2)" d="m23.189 18.012c-2.1299 0.18371-3.4036 2.4314-3.1543 4.4648 0.21355-1.8927 1.637-3.6514 3.7461-3.4629h0.001953c2.2845 0.1329 4.4151 1.1384 6.2871 2.3984 2.0796 2.1693 5.354 1.0649 7.9121 2.3848 6.7896 3.2912 12.61 8.7009 16.27 15.311 2.2468 4.5892 3.8299 9.5326 6.6152 13.84 3.4712 1.2524 6.6418 3.2384 9.4707 5.5898 1.1976 1.1721 2.918 2.2558 3.5742 3.8262 0.078913-0.068598 0.16139-0.13345 0.22852-0.2168-0.32136-2.0156-2.4153-3.2515-3.8027-4.6094-2.8289-2.3515-5.9995-4.3374-9.4707-5.5898-2.7854-4.3072-4.3684-9.2506-6.6152-13.84-3.6595-6.6096-9.4799-12.019-16.27-15.311-2.5581-1.3198-5.8325-0.21549-7.9121-2.3848-1.872-1.2601-4.0026-2.2655-6.2871-2.3984h-0.001953c-0.20343-0.018187-0.40148-0.018369-0.5918-0.001953zm-0.24609 4.627c-0.2865 0.3549-0.20418 0.95075 0.59766 1.8418 2.4658 2.6864 4.0513 6.0204 4.9805 9.5234 0.153 2.7533 2.9599 4.3651 3.4121 6.916 0.023297-0.069577 0.043029-0.14152 0.066406-0.21094 0.07486-3.034-3.3103-4.6775-3.4785-7.7051-0.92912-3.503-2.5147-6.837-4.9805-9.5234-0.28543-0.31718-0.47703-0.59574-0.59766-0.8418zm9.8086 4.9629c-0.15268-1.14e-4 -0.31047 0.014579-0.47461 0.048829-0.39318 0.01629-1.6346 0.28784-1.1328 0.93945 0.11908 0.073745 0.21757 0.16942 0.31641 0.26367 0.28644-0.12555 0.63708-0.1957 0.81641-0.20312 1.4246-0.29726 2.4326 0.77364 2.6602 1.9609 0.28589-1.347-0.64037-3.0086-2.1855-3.0098zm-3.8516 13.816c-0.034305 0.25816-0.087561 0.5185-0.18555 0.78711-0.64787 2.1586-1.0175 4.5057-0.95703 6.8203 0.052142-1.9853 0.40247-3.9727 0.95703-5.8203 0.22724-0.62295 0.2676-1.2135 0.18555-1.7871zm6.9902 5.9805c-0.064371 1.33e-4 -0.13125 0.009153-0.20312 0.027343-2.1638 2.028-2.873 5.0397-2.9375 7.8965-1.3412-0.09187-2.0687-4.0349-2.252-5.7617-0.034699-0.29649-0.04666-0.59176-0.058594-0.88672-0.023852 0.62539-0.015444 1.2541 0.058594 1.8867 0.18324 1.7268 0.91079 5.6698 2.252 5.7617 0.06452-2.8568 0.77366-5.8685 2.9375-7.8965 1.15-0.29104 1.3002 1.8504 1.6797 2.5234 2.0268 4.4032 4.1999 8.9792 7.8574 12.289 0.022678 0.016573 0.03573 0.030658 0.056641 0.046875 0.45091-0.14551 0.7018-0.49262-0.056641-1.0469-3.6575-3.3098-5.8306-7.8859-7.8574-12.289-0.35578-0.63094-0.511-2.5528-1.4766-2.5508zm32.652 13.225c-2.2542 0.19652-4.8291 0.521-6.5723 2.0566 0.025762 0.30194 0.085572 0.59149 0.16602 0.875 1.7384-1.4198 4.2197-1.741 6.4062-1.9316 1.8547 0.1493 1.3246-0.36897 0.33789-0.99805-0.12328-0.003541-0.18268 0.010541-0.33789-0.001953zm-1.4004 4.3223c-0.60473 0.27204-0.68551 0.69364 0.69141 1.4473 3.0768 1.4596 5.3418 4.0654 7.5449 6.5762 0.1304 0.18461 0.31981 0.54479 0.45898 0.9082 0.43282-0.3669-0.18302-1.5175-0.45898-1.9082-2.2031-2.5108-4.4681-5.1166-7.5449-6.5762-0.30269-0.16567-0.51708-0.31102-0.69141-0.44727z" fill="#fff" stroke-width="3.9454"/>
 </g>
</svg>
