<?xml version="1.0" encoding="UTF-8"?>
<!-- Created with Inkscape (http://www.inkscape.org/) -->
<svg id="svg2408" width="96" height="96" version="1.0" xmlns="http://www.w3.org/2000/svg" xmlns:cc="http://creativecommons.org/ns#" xmlns:dc="http://purl.org/dc/elements/1.1/" xmlns:rdf="http://www.w3.org/1999/02/22-rdf-syntax-ns#" xmlns:xlink="http://www.w3.org/1999/xlink">
 <metadata id="metadata93">
  <rdf:RDF>
   <cc:Work rdf:about="">
    <dc:format>image/svg+xml</dc:format>
    <dc:type rdf:resource="http://purl.org/dc/dcmitype/StillImage"/>
    <dc:title/>
   </cc:Work>
  </rdf:RDF>
 </metadata>
 <defs id="defs2410">
  <linearGradient id="linearGradient3833">
   <stop id="stop3835" stop-color="#fff" offset="0"/>
   <stop id="stop3837" stop-color="#fff" stop-opacity="0" offset="1"/>
  </linearGradient>
  <linearGradient id="linearGradient3675">
   <stop id="stop3677" stop-color="#666" offset="0"/>
   <stop id="stop3683" stop-color="#e6e6e6" offset=".25016"/>
   <stop id="stop3685" stop-color="#808080" offset=".51293"/>
   <stop id="stop3679" stop-color="#474747" offset="1"/>
  </linearGradient>
  <linearGradient id="ButtonShadow" x1="45.448" x2="45.448" y1="92.54" y2="7.0165" gradientTransform="scale(1.0059 .99417)" gradientUnits="userSpaceOnUse">
   <stop id="stop3750" offset="0"/>
   <stop id="stop3752" stop-opacity=".58824" offset="1"/>
  </linearGradient>
  <linearGradient id="linearGradient3188" x1="36.357" x2="36.357" y1="6" y2="63.893" gradientUnits="userSpaceOnUse" xlink:href="#linearGradient3833"/>
  <radialGradient id="radialGradient3619" cx="48" cy="90.172" r="42" gradientTransform="matrix(1.1573 0 0 .99591 -7.551 .19713)" gradientUnits="userSpaceOnUse" xlink:href="#linearGradient3833"/>
  <linearGradient id="linearGradient3761" x1="-16" x2="-16" y1="8" y2="88" gradientTransform="rotate(-90)" gradientUnits="userSpaceOnUse" xlink:href="#linearGradient3675"/>
  <linearGradient id="linearGradient3767" x1="-16" x2="-16" y1="8" y2="88" gradientTransform="matrix(0,1,1,0,0,96)" gradientUnits="userSpaceOnUse" xlink:href="#linearGradient3675"/>
  <linearGradient id="linearGradient3777" x1="32" x2="64" y1="6.05" y2="6.05" gradientUnits="userSpaceOnUse">
   <stop id="stop3790" stop-color="#008900" offset="0"/>
   <stop id="stop3792" stop-color="#00c600" offset=".25016"/>
   <stop id="stop3796" stop-color="#006900" offset="1"/>
  </linearGradient>
  <linearGradient id="linearGradient3839" x1="26" x2="26" y1="6" y2="120.02" gradientTransform="translate(-2)" gradientUnits="userSpaceOnUse" xlink:href="#linearGradient3833"/>
  <linearGradient id="linearGradient3843" x1="26" x2="26" y1="6" y2="72.022" gradientTransform="matrix(.57143 0 0 1 50.857 0)" gradientUnits="userSpaceOnUse" xlink:href="#linearGradient3833"/>
  <linearGradient id="linearGradient3873" x1="26" x2="26" y1="6" y2="72.022" gradientTransform="matrix(.2381 0 0 1 47.19 -96)" gradientUnits="userSpaceOnUse" xlink:href="#linearGradient3833"/>
  <linearGradient id="linearGradient3897" x1="6" x2="32.019" y1="63" y2="63" gradientTransform="matrix(-1,0,0,1,96,0)" gradientUnits="userSpaceOnUse">
   <stop id="stop3860" stop-color="#250" offset="0"/>
   <stop id="stop3862" stop-color="#250" stop-opacity="0" offset="1"/>
  </linearGradient>
  <radialGradient id="radialGradient3901" cx="48" cy="90.2" r="42" gradientTransform="matrix(1.3333 5.3333e-8 -3.8095e-8 .95238 -16 -5.9048)" gradientUnits="userSpaceOnUse">
   <stop id="stop3705" stop-color="#88ff02" offset="0"/>
   <stop id="stop3707" stop-color="#1f8000" offset="1"/>
  </radialGradient>
  <linearGradient id="linearGradient3938" x1="45.448" x2="45.448" y1="92.54" y2="7.0165" gradientTransform="scale(1.0059 .99417)" gradientUnits="userSpaceOnUse" xlink:href="#ButtonShadow"/>
  <filter id="filter3941" color-interpolation-filters="sRGB">
   <feGaussianBlur id="feGaussianBlur3943" stdDeviation="1.75"/>
  </filter>
  <clipPath id="clipPath3950">
   <path id="path3952" d="m0 0v16 64 16h96v-16-64-16h-96zm12.219 6.2812h71.562c3.3025 0 5.9375 2.635 5.9375 5.9375v3.7812h-1.7188v64h1.7188v3.7812c0 3.3025-2.635 5.9375-5.9375 5.9375h-71.562c-3.3025 0-5.9375-2.635-5.9375-5.9375v-3.7812h1.7188v-64h-1.7188v-3.7812c0-3.3025 2.635-5.9375 5.9375-5.9375z" fill="#f0f"/>
  </clipPath>
  <linearGradient id="linearGradient3794" x1="40" x2="40" y1="91" y2="3.3074" gradientUnits="userSpaceOnUse" xlink:href="#ButtonShadow"/>
 </defs>
 <g id="layer2" display="none">
  <path id="rect3745" d="m33.125 3c-1.1772 0-2.125 0.892-2.125 2v2h-20c-3.324 0-6 2.676-6 6v4h2v64h-2v5c0 3.324 2.676 6 6 6h74c3.324 0 6-2.676 6-6v-5h-2v-64h2v-4c0-3.324-2.676-6-6-6h-20v-2c0-1.108-0.94775-2-2.125-2h-29.75z" clip-path="url(#clipPath3950)" fill="url(#linearGradient3938)" filter="url(#filter3941)" opacity=".9"/>
 </g>
 <g id="layer3">
  <path id="path3823" d="m61.188 0c-0.39749 0.0082548-0.78585 0.028612-1.1562 0.0625-0.02924 0.0026749-0.06474-0.0027971-0.09375 0h-26.719-0.09375c-1.1688-0.084259-2.1448 0.30263-2.8125 0.875-0.68685 0.58883-1.0969 1.3061-1.4688 1.9062s-0.72214 1.0499-1.0312 1.25-0.61474 0.31483-1.4375 0.03125a0.86456 0.86456 0 0 0-0.3125-0.0625c-5.2558 0.097196-10.58-0.21631-15.938 0.1875a0.86456 0.86456 0 0 0-0.09375 0.03125c-5.3389 0.94296-8.4565 6.2879-7.9375 11.375 0.00856 0.08388-0.010568 0.16629 0 0.25-0.099401 0.80797-0.04588 1.6719 0.34375 2.4375 0.30702 0.6033 0.91991 1.0462 1.625 1.3125v58.75c-0.37658 0.14078-0.80378 0.20374-1.0625 0.46875-0.45526 0.46633-0.68768 1.0584-0.8125 1.625-0.24965 1.1332-0.14548 2.3232-0.125 3.125h0.03125c-0.73243 6.0642 4.4632 11.902 10.688 11.312 0.03195-3e-3 0.06174 0.0034 0.09375 0 24.014-0.03087 48.043 0.04687 72.062-0.0625a0.86456 0.86456 0 0 0 0.0625 0c5.8012-0.42419 9.5489-6.1575 8.9062-11.625h0.03125c0.0643-0.82529 0.14314-1.9428-0.15625-3-0.14969-0.52861-0.42304-1.0513-0.875-1.4688-0.24078-0.2224-0.63866-0.2529-0.96875-0.375v-58.812c0.37658-0.14078 0.80378-0.20374 1.0625-0.46875 0.45526-0.46633 0.68768-1.0584 0.8125-1.625 0.24217-1.0992 0.15054-2.2317 0.125-3.0312-2.63e-4 -0.0082 2.44e-4 -0.02309 0-0.03125 0.0015-0.02141-0.0013-0.04112 0-0.0625 0.38775-6.1852-5.5513-11.05-11.5-10.281v-0.03125h-14.719c-0.23986-1.1922-0.77224-2.2005-1.625-2.8125-1.0664-0.76532-2.4027-1.1083-3.6875-1.2188-0.41464-0.035657-0.82126-0.039505-1.2188-0.03125zm-27.188 2h28c1.108 0 2 0.892 2 2v1 1h8 12c3.324 0 6 2.676 6 6v2 2h-2v2 18 42 2h2v2 2c0 3.324-2.676 6-6 6h-72c-3.324 0-6-2.676-6-6v-2-2h2v-42-2-18-2h-2v-4c0-3.324 2.676-6 6-6h20v-1-1c0-1.108 0.892-2 2-2z" fill="url(#linearGradient3938)" opacity=".08"/>
  <path id="path3809" d="m61.156 0.875c-0.38987 0.005267-0.76142 0.027446-1.125 0.0625h-26.906c-4.0673-0.38301-3.0749 5.3636-7.0312 4-5.3001 0.098014-10.625-0.21052-15.906 0.1875-4.9158 0.86822-7.8479 5.9519-7.25 10.688-0.24848 1.398 0.33275 3.2201 2 3.25v59.875c-2.3992 0.14938-2.0434 2.9565-2 4.6562-0.76966 5.5857 4.1171 11.071 9.8438 10.469 24.048-0.0312 48.11 0.04699 72.156-0.0625 5.3179-0.38886 8.8139-5.7576 8.125-10.812 0.12523-1.6073 0.2016-4.1502-2-4.25v-59.875c2.3992-0.14938 2.0434-2.9565 2-4.6562 0.4155-5.6802-5.1516-10.249-10.625-9.4688h-15.375c-0.048983-3.2901-3.1771-4.0994-5.9062-4.0625zm-27.156 1.125h28c1.108 0 2 0.892 2 2v1 1h8 12c3.324 0 6 2.676 6 6v2 2h-2v2 18 42 2h2v2 2c0 3.324-2.676 6-6 6h-72c-3.324 0-6-2.676-6-6v-2-2h2v-42-2-18-2h-2v-4c0-3.324 2.676-6 6-6h20v-1-1c0-1.108 0.892-2 2-2z" fill="url(#linearGradient3938)" opacity=".1"/>
  <path id="path3800" d="m33.125 2c-1.685 0-3.125 1.3188-3.125 3v1h2v-1-1c0-1.108 0.892-2 2-2h-0.875zm28.875 0c1.108 0 2 0.892 2 2v1 1h2v-1c0-1.6812-1.44-3-3.125-3h-0.875zm-50.812 4.0312c-4.0335 0.40977-7.1875 3.8274-7.1875 7.9688v3a1.0053 1.0053 0 0 0 1 1h1v62h2v-42-2-18-2h-2v-4c0-3.1162 2.3421-5.6626 5.375-5.9688-0.06237 0.00487-0.12554-0.00629-0.1875 0zm-5.1875 73.969h-1a1.0053 1.0053 0 0 0-1 1v4c0 4.4175 3.5825 8 8 8h72c4.4175 0 8-3.5825 8-8v-4a1.0053 1.0053 0 0 0-1-1h-1v2 2c0 3.324-2.676 6-6 6h-72c-3.324 0-6-2.676-6-6v-2-2zm84 0v-62h1a1.0053 1.0053 0 0 0 1-1v-3c0-4.205-3.2525-7.6468-7.375-7.9688 3.0329 0.30617 5.375 2.8525 5.375 5.9688v2 2h-2v2 18 42 2h2z" fill="url(#linearGradient3938)" opacity=".2"/>
  <path id="path2956" d="m32.156 3.2188c-0.6911 0.32934-1.1562 0.99965-1.1562 1.7812v1h1v-1-1c0-0.277 0.05531-0.54181 0.15625-0.78125zm31.688 0c0.10094 0.23944 0.15625 0.50425 0.15625 0.78125v1 1h1v-1c0-0.7816-0.46515-1.4519-1.1562-1.7812zm-57.406 6.5312c-0.89949 1.1774-1.4375 2.6473-1.4375 4.25v3h2v63h1v-42-2-18-2h-2v-4c0-0.79638 0.15818-1.5559 0.4375-2.25zm83.125 0c0.27932 0.6941 0.4375 1.4536 0.4375 2.25v2 2h-2v2 18 42 2h1v-63h2v-3c0-1.6027-0.53801-3.0726-1.4375-4.25zm-84.562 71.25v4c0 3.878 3.122 7 7 7h72c3.878 0 7-3.122 7-7v-4h-1v1 2c0 3.324-2.676 6-6 6h-72c-3.324 0-6-2.676-6-6v-2-1h-1z" fill="url(#linearGradient3938)" opacity=".3"/>
  <path id="path3743" d="m6 16v1h2v-1h-2zm82 0v1h2v-1h-2zm-82 68v1c0 3.324 2.676 6 6 6h72c3.324 0 6-2.676 6-6v-1c0 3.324-2.676 6-6 6h-72c-3.324 0-6-2.676-6-6z" fill="url(#linearGradient3794)" opacity=".45"/>
 </g>
 <g id="layer4" transform="matrix(1 0 0 1.2386 0 -19.089)">
  <path id="rect3814" d="m8 36v44h80v-44z" fill="url(#radialGradient3901)"/>
  <path id="rect3845" d="m8 78v2h80v-2z" fill="#338000" opacity=".6"/>
  <path id="path3856" d="m48 36v44h40v-44z" fill="url(#linearGradient3897)"/>
  <path id="rect3829" d="m8 36v2h80v-2z" fill="#aad400" opacity=".4"/>
  <path id="rect3991" d="m8 36v44h2v-44zm78 0v44h2v-44z" fill="#aad400" opacity=".3"/>
 </g>
 <g id="layer1">
  <rect id="rect3769" x="32" y="2" width="32" height="8.1" rx="2" ry="2" fill="url(#linearGradient3777)"/>
  <path id="rect3754" d="m12 6c-3.324 0-6 2.676-6 6v4h84v-4c0-3.324-2.676-6-6-6h-72z" fill="url(#linearGradient3761)"/>
  <path id="path3765" d="m12 90c-3.324 0-6-2.676-6-6v-4h84v4c0 3.324-2.676 6-6 6h-72z" fill="url(#linearGradient3767)"/>
  <path id="rect3779" d="m34 2c-1.108 0-2 0.892-2 2v1c0-1.108 0.892-2 2-2h28c1.108 0 2 0.892 2 2v-1c0-1.108-0.892-2-2-2h-28z" fill="#fff" opacity=".5"/>
  <rect id="rect3798" x="32" y="5" width="32" height="1" fill="#083"/>
  <rect id="rect3831" x="14" y="6" width="21" height="84" fill="url(#linearGradient3839)" opacity=".4"/>
  <rect id="rect3841" x="60" y="6" width="12" height="84" fill="url(#linearGradient3843)" opacity=".2"/>
  <rect id="rect3847" x="6" y="80" width="84" height="2" fill="#fff" opacity=".29"/>
  <rect id="rect3854" x="6" y="14" width="84" height="2" opacity=".1"/>
  <path id="rect3869" d="m8 16v2h80v-2h-80z" opacity=".1"/>
  <rect id="rect3871" transform="scale(1,-1)" x="51" y="-90" width="5" height="84" fill="url(#linearGradient3873)" opacity=".1"/>
  <rect id="rect3987" x="8" y="16" width="2" height="9.5013" fill="#fff" opacity=".4"/>
  <rect id="rect3989" x="86" y="16" width="2" height="9.5013" fill="#fff" opacity=".3"/>
 </g>
 <g id="layer5">
  <path id="path3615" d="m10.156 6.3438c-0.30153 0.096803-0.59646 0.20414-0.875 0.34375-0.55709 0.27922-1.0601 0.66569-1.5 1.0938-0.21997 0.21403-0.40937 0.44186-0.59375 0.6875s-0.35541 0.50774-0.5 0.78125c-0.14012 0.26505-0.27614 0.52473-0.375 0.8125-0.010358 0.03015-0.02137 0.06337-0.03125 0.09375-0.09046 0.27808-0.1388 0.5794-0.1875 0.875-0.0524 0.31805-0.09375 0.63403-0.09375 0.96875v2 2h1v-3-2c0-0.3643 0.052121-0.72099 0.125-1.0625 0.023361-0.10947 0.063418-0.20588 0.09375-0.3125 0.026696-0.094419 0.030675-0.1893 0.0625-0.28125 0.007661-0.02195 0.02329-0.04069 0.03125-0.0625 0.075575-0.2093 0.18024-0.43029 0.28125-0.625 0.057272-0.10798 0.12274-0.20947 0.1875-0.3125 0.024054-0.03913 0.037411-0.08662 0.0625-0.125 0.094106-0.14096 0.20492-0.276 0.3125-0.40625 0.15254-0.18586 0.32207-0.36982 0.5-0.53125 0.099219-0.088888 0.20633-0.1692 0.3125-0.25 0.11273-0.086487 0.22336-0.1733 0.34375-0.25 0.031457-0.01999 0.061817-0.0432 0.09375-0.0625 0.00738-0.0045 0.02384 0.0044 0.03125 0 0.23204-0.13873 0.46255-0.27478 0.71875-0.375zm75.688 0c0.2562 0.10022 0.48671 0.23627 0.71875 0.375 0.0074 0.0044 0.02385-0.0045 0.03125 0 0.10818 0.065386 0.20993 0.1456 0.3125 0.21875 0.15241 0.10931 0.29911 0.21819 0.4375 0.34375 0.01127 0.0101 0.02008 0.02105 0.03125 0.03125 0.16561 0.153 0.32558 0.32555 0.46875 0.5 0.10758 0.13026 0.21839 0.26528 0.3125 0.40625 0.06073 0.0929 0.1329 0.18404 0.1875 0.28125 0.04596 0.080046 0.08342 0.1672 0.125 0.25 0.08037 0.1638 0.15601 0.35751 0.21875 0.53125 0.0079 0.02181 0.02355 0.04055 0.03125 0.0625 0.06787 0.19609 0.1121 0.38686 0.15625 0.59375 0.07288 0.34151 0.125 0.6982 0.125 1.0625v2 3h1v-2-2c0-0.33472-0.04135-0.6507-0.09375-0.96875-0.0487-0.2956-0.09704-0.59692-0.1875-0.875-0.00992-0.03101-0.02084-0.06297-0.03125-0.09375-0.098865-0.28777-0.23488-0.54745-0.375-0.8125-0.14459-0.27351-0.31562-0.53562-0.5-0.78125s-0.37378-0.47347-0.59375-0.6875c-0.43995-0.42806-0.94291-0.81453-1.5-1.0938-0.27854-0.13961-0.57347-0.24695-0.875-0.34375zm-79.844 73.656v2 2c0 3.324 2.676 6 6 6h72c3.324 0 6-2.676 6-6v-2-2h-1v1 2c0 2.7818-2.2182 5-5 5h-2-68-2c-2.7818 0-5-2.2182-5-5v-2-1h-1z" fill="url(#radialGradient3619)" opacity=".2"/>
  <path id="rect3728" d="m12 6c-3.324 0-6 2.676-6 6v2 2h1v-1-2c0-2.7818 2.2182-5 5-5h2 68 2c2.7818 0 5 2.2182 5 5v2 1h1v-2-2c0-3.324-2.676-6-6-6h-72zm-6 74v2 2c0 0.33472 0.04135 0.6507 0.09375 0.96875 0.0487 0.2956 0.09704 0.59692 0.1875 0.875 0.00988 0.03038 0.020892 0.0636 0.03125 0.09375 0.098865 0.28777 0.23488 0.54745 0.375 0.8125 0.14459 0.27351 0.31562 0.53562 0.5 0.78125s0.37378 0.47347 0.59375 0.6875c0.43995 0.42806 0.94291 0.81453 1.5 1.0938 0.27854 0.13961 0.57347 0.24695 0.875 0.34375-0.2562-0.10022-0.48671-0.23627-0.71875-0.375-0.00741-0.0044-0.023866 0.0045-0.03125 0-0.031933-0.0193-0.062293-0.04251-0.09375-0.0625-0.1204-0.0767-0.23102-0.16351-0.34375-0.25-0.10617-0.0808-0.21328-0.16111-0.3125-0.25-0.17793-0.16143-0.34746-0.34539-0.5-0.53125-0.10758-0.13026-0.21839-0.26528-0.3125-0.40625-0.025089-0.03838-0.038446-0.08587-0.0625-0.125-0.064763-0.10303-0.13023-0.20452-0.1875-0.3125-0.10101-0.19471-0.20567-0.4157-0.28125-0.625-0.00796-0.02181-0.023589-0.04055-0.03125-0.0625-0.031825-0.09195-0.035804-0.18683-0.0625-0.28125-0.030332-0.10662-0.070389-0.20303-0.09375-0.3125-0.072879-0.34151-0.125-0.6982-0.125-1.0625v-2-3h-1zm83 0v3 2c0 0.3643-0.05212 0.72099-0.125 1.0625-0.04415 0.20689-0.08838 0.39766-0.15625 0.59375-0.0077 0.02195-0.0233 0.04069-0.03125 0.0625-0.06274 0.17374-0.13838 0.36745-0.21875 0.53125-0.04158 0.0828-0.07904 0.16995-0.125 0.25-0.0546 0.09721-0.12677 0.18835-0.1875 0.28125-0.09411 0.14096-0.20492 0.276-0.3125 0.40625-0.14317 0.17445-0.30314 0.347-0.46875 0.5-0.01117 0.0102-0.01998 0.02115-0.03125 0.03125-0.13839 0.12556-0.28509 0.23444-0.4375 0.34375-0.10257 0.07315-0.20432 0.15336-0.3125 0.21875-0.0074 0.0045-0.02384-0.0044-0.03125 0-0.23204 0.13873-0.46255 0.27478-0.71875 0.375 0.30153-0.0968 0.59646-0.20414 0.875-0.34375 0.55709-0.27922 1.0601-0.66569 1.5-1.0938 0.21997-0.21403 0.40937-0.44186 0.59375-0.6875s0.35541-0.50774 0.5-0.78125c0.14012-0.26505 0.27614-0.52473 0.375-0.8125 0.01041-0.03078 0.02133-0.06274 0.03125-0.09375 0.09046-0.27808 0.1388-0.5794 0.1875-0.875 0.0524-0.31805 0.09375-0.63403 0.09375-0.96875v-2-2h-1z" fill="url(#linearGradient3188)" opacity=".2"/>
  <path id="path5890" d="m31.411 50.161h33.109" fill-rule="evenodd" stroke="#2e3436" stroke-width="3px"/>
  <path id="path5892" d="m31.411 68.161 33-33.005" fill-rule="evenodd" stroke="#2e3436" stroke-width="3px"/>
  <path id="path5894" d="m64.411 68.161-33-33" fill-rule="evenodd" stroke="#2e3436" stroke-width="3px"/>
  <ellipse id="path4919" cx="47.911" cy="42.661" rx="6" ry="9" fill="#192126" opacity=".97826"/>
  <ellipse id="path4941" cx="47.911" cy="59.161" rx="9" ry="10.5" fill="#192126" opacity=".97826"/>
 </g>
</svg>
