<?xml version="1.0" encoding="UTF-8"?>
<svg id="svg2408" width="96" height="96" version="1.0" xmlns="http://www.w3.org/2000/svg" xmlns:cc="http://creativecommons.org/ns#" xmlns:dc="http://purl.org/dc/elements/1.1/" xmlns:rdf="http://www.w3.org/1999/02/22-rdf-syntax-ns#" xmlns:xlink="http://www.w3.org/1999/xlink">
 <defs id="defs2410">
  <linearGradient id="ButtonShadow" x1="45.448" x2="45.448" y1="92.54" y2="7.0165" gradientTransform="scale(1.0059 .99417)" gradientUnits="userSpaceOnUse">
   <stop id="stop3750" offset="0"/>
   <stop id="stop3752" stop-opacity=".58824" offset="1"/>
  </linearGradient>
  <filter id="filter3174" color-interpolation-filters="sRGB">
   <feGaussianBlur id="feGaussianBlur3176" stdDeviation="1.71"/>
  </filter>
  <linearGradient id="linearGradient3188" x1="36.357" x2="36.357" y1="6" y2="63.893" gradientUnits="userSpaceOnUse">
   <stop id="stop3739" stop-color="#fefefe" offset="0"/>
   <stop id="stop3741" stop-color="#fefefe" stop-opacity="0" offset="1"/>
  </linearGradient>
  <linearGradient id="linearGradient3617" x1="48" x2="48" y1="90" y2="5.9877" gradientUnits="userSpaceOnUse">
   <stop id="stop5047" stop-color="#b2eb9a" offset="0"/>
   <stop id="stop5049" stop-color="#ceeeab" offset="1"/>
  </linearGradient>
  <linearGradient id="ButtonShadow-0" x1="45.448" x2="45.448" y1="92.54" y2="7.0165" gradientTransform="matrix(1.0059 0 0 .99417 100 0)" gradientUnits="userSpaceOnUse">
   <stop id="stop3750-8" offset="0"/>
   <stop id="stop3752-5" stop-opacity=".58824" offset="1"/>
  </linearGradient>
  <linearGradient id="linearGradient3780" x1="32.251" x2="32.251" y1="6.1317" y2="90.239" gradientTransform="matrix(1.0238 0 0 1.0119 -1.1429 -98.071)" gradientUnits="userSpaceOnUse" xlink:href="#ButtonShadow-0"/>
  <linearGradient id="linearGradient3721" x1="32.251" x2="32.251" y1="6.1317" y2="90.239" gradientTransform="translate(0,-97)" gradientUnits="userSpaceOnUse" xlink:href="#ButtonShadow-0"/>
  <linearGradient id="linearGradient4711" x1="6" x2="90" y1="48.172" y2="48.172" gradientUnits="userSpaceOnUse">
   <stop id="stop4715" stop-color="#06b5ff" offset="0"/>
   <stop id="stop4717" stop-color="#0ff" stop-opacity="0" offset="1"/>
  </linearGradient>
  <linearGradient id="linearGradient6614" x1="126.64" x2="179.96" y1="29.815" y2="137.2" gradientTransform="matrix(-.16289 .064256 .063867 -.14009 90.829 47.068)" gradientUnits="userSpaceOnUse">
   <stop id="stop6591-6" stop-color="#fff" offset="0"/>
   <stop id="stop6593-1" stop-color="#fff" stop-opacity="0" offset="1"/>
  </linearGradient>
  <linearGradient id="linearGradient6595" x1="126.64" x2="179.96" y1="29.815" y2="137.2" gradientTransform="matrix(.32387 0 0 .32387 3.8294 5.2814)" gradientUnits="userSpaceOnUse">
   <stop id="stop6591" stop-color="#fff" offset="0"/>
   <stop id="stop6593" stop-color="#fff" stop-opacity="0" offset="1"/>
  </linearGradient>
  <linearGradient id="linearGradient6279" x1="108" x2="133" y1="167.73" y2="150.38" gradientTransform="matrix(-.63754 -.63754 -.56421 .56421 196.92 62.772)" gradientUnits="userSpaceOnUse">
   <stop id="stop11510" offset="0"/>
   <stop id="stop11512" stop-opacity="0" offset="1"/>
  </linearGradient>
  <linearGradient id="linearGradient6244" x1="123" x2="133" y1="150.38" y2="150.38" gradientTransform="matrix(-.63754 -.63754 -.56421 .56421 196.92 62.772)" gradientUnits="userSpaceOnUse">
   <stop id="stop5764-6-1" stop-color="#2d3335" offset="0"/>
   <stop id="stop5770-3-6" stop-color="#4c464a" offset=".5"/>
   <stop id="stop5766-6-3" stop-color="#384042" offset="1"/>
  </linearGradient>
  <linearGradient id="linearGradient6247" x1="120" x2="136" y1="186.5" y2="186.5" gradientTransform="matrix(.31878 .31878 -.31878 .31878 46.885 -32.015)" gradientUnits="userSpaceOnUse">
   <stop id="stop5864-8" stop-color="#f9e295" offset="0"/>
   <stop id="stop5876-09" stop-color="#f7dd84" offset=".125"/>
   <stop id="stop5874-2" stop-color="#fff" offset=".20581"/>
   <stop id="stop5870-3" stop-color="#f4ce51" offset=".30113"/>
   <stop id="stop5872-1" stop-color="#f9e7aa" offset=".3412"/>
   <stop id="stop5866-8" stop-color="#efbb0e" offset="1"/>
  </linearGradient>
  <linearGradient id="linearGradient6250" x1="123" x2="133" y1="150.38" y2="150.38" gradientTransform="matrix(-.31878 -.31878 -.31878 .31878 128.49 49.59)" gradientUnits="userSpaceOnUse" xlink:href="#linearGradient5762"/>
  <linearGradient id="linearGradient5762">
   <stop id="stop5764" stop-color="#2d3335" offset="0"/>
   <stop id="stop5770" stop-color="#4c464a" offset=".5"/>
   <stop id="stop5766" stop-color="#384042" offset="1"/>
  </linearGradient>
  <linearGradient id="linearGradient6253" x1="128" x2="130.88" y1="134.36" y2="143.36" gradientTransform="matrix(.31878 .31878 -.31878 .31878 46.237 -31.296)" gradientUnits="userSpaceOnUse" xlink:href="#linearGradient5762"/>
  <linearGradient id="linearGradient6241" x1="120" x2="136" y1="186.5" y2="186.5" gradientTransform="matrix(.31878 .31878 -.31878 .31878 25.526 -10.658)" gradientUnits="userSpaceOnUse">
   <stop id="stop5864-0-0" stop-color="#f9e295" offset="0"/>
   <stop id="stop5876-0-12" stop-color="#f7dd84" offset=".125"/>
   <stop id="stop5874-6-6" stop-color="#fff" offset=".20581"/>
   <stop id="stop5870-4-4" stop-color="#f4ce51" offset=".30113"/>
   <stop id="stop5872-4-85" stop-color="#f9e7aa" offset=".3412"/>
   <stop id="stop5866-3-62" stop-color="#efbb0e" offset="1"/>
  </linearGradient>
  <clipPath id="clipPath5466">
   <path id="path5468" d="m9 12.25s7.5 13 11.75 27.75 6.25 25.5 6.25 25.5-5.5 12.75-8.25 24.75-5.75 23-5.75 23 5.75 16 9.25 30 3.75 24.25 3.75 24.25-4 10.25-7.5 24.25-5 30.75-5 30.75 9.25-2 28.5 1.25 32.25 6 32.25 6 12.75-2.75 24-6.25 16.25-6.5 16.25-6.5 5.5 0.5 22.5 6.25 29.25 8.5 29.25 8.5 13-2.75 26-5.75 26.5-8 26.5-8-0.75-5 4.25-24.5 8.75-28 8.75-28-0.5-4.5-3.75-19.75-10-29.75-10-29.75 1.75-10.5 6.75-23.75 10.25-26.75 10.25-26.75-4.75-15.25-7.5-29.75-8.25-25.75-8.25-25.75-24.25 9-31.75 10.5-21 5.25-21 5.25-9.75-4.25-22-8.5-29.75-5.5-29.75-5.5-3.25 3.5-22 8-27.5 5.75-27.5 5.75-18.5-9-31.5-11.5-24-2-24.75-1.75z" fill="#ceeeab"/>
  </clipPath>
  <clipPath id="clipPath5383">
   <path id="path5385" d="m9 12.25s7.5 13 11.75 27.75 6.25 25.5 6.25 25.5-5.5 12.75-8.25 24.75-5.75 23-5.75 23 5.75 16 9.25 30 3.75 24.25 3.75 24.25-4 10.25-7.5 24.25-5 30.75-5 30.75 9.25-2 28.5 1.25 32.25 6 32.25 6 12.75-2.75 24-6.25 16.25-6.5 16.25-6.5 5.5 0.5 22.5 6.25 29.25 8.5 29.25 8.5 13-2.75 26-5.75 26.5-8 26.5-8-0.75-5 4.25-24.5 8.75-28 8.75-28-0.5-4.5-3.75-19.75-10-29.75-10-29.75 1.75-10.5 6.75-23.75 10.25-26.75 10.25-26.75-4.75-15.25-7.5-29.75-8.25-25.75-8.25-25.75-24.25 9-31.75 10.5-21 5.25-21 5.25-9.75-4.25-22-8.5-29.75-5.5-29.75-5.5-3.25 3.5-22 8-27.5 5.75-27.5 5.75-18.5-9-31.5-11.5-24-2-24.75-1.75z" fill="#ceeeab"/>
  </clipPath>
  <clipPath id="clipPath5426">
   <path id="path5428" d="m9 12.25s7.5 13 11.75 27.75 6.25 25.5 6.25 25.5-5.5 12.75-8.25 24.75-5.75 23-5.75 23 5.75 16 9.25 30 3.75 24.25 3.75 24.25-4 10.25-7.5 24.25-5 30.75-5 30.75 9.25-2 28.5 1.25 32.25 6 32.25 6 12.75-2.75 24-6.25 16.25-6.5 16.25-6.5 5.5 0.5 22.5 6.25 29.25 8.5 29.25 8.5 13-2.75 26-5.75 26.5-8 26.5-8-0.75-5 4.25-24.5 8.75-28 8.75-28-0.5-4.5-3.75-19.75-10-29.75-10-29.75 1.75-10.5 6.75-23.75 10.25-26.75 10.25-26.75-4.75-15.25-7.5-29.75-8.25-25.75-8.25-25.75-24.25 9-31.75 10.5-21 5.25-21 5.25-9.75-4.25-22-8.5-29.75-5.5-29.75-5.5-3.25 3.5-22 8-27.5 5.75-27.5 5.75-18.5-9-31.5-11.5-24-2-24.75-1.75z" fill="#ceeeab"/>
  </clipPath>
  <radialGradient id="radialGradient2378" cx="55.157" cy="39.166" r="17.45" gradientTransform="matrix(1.7436 -.020893 .0042043 .74687 -39.643 14.581)" gradientUnits="userSpaceOnUse">
   <stop id="stop2372" stop-color="#fefefe" offset="0"/>
   <stop id="stop2374" stop-color="#fefefe" stop-opacity="0" offset="1"/>
  </radialGradient>
  <radialGradient id="radialGradient2453" cx="128" cy="86" r="47" gradientTransform="matrix(.32555 .32555 .32555 -.32555 -9.3969 22.528)" gradientUnits="userSpaceOnUse">
   <stop id="stop5747-3" stop-color="#d0e9f2" stop-opacity="0" offset="0"/>
   <stop id="stop5753-6" stop-color="#d0e9f2" stop-opacity="0" offset=".83933"/>
   <stop id="stop5755-9" stop-color="#d0e9f2" stop-opacity=".28185" offset=".94309"/>
   <stop id="stop5749-0" stop-color="#d0e9f2" offset="1"/>
  </radialGradient>
 </defs>
 <metadata id="metadata2413">
  <rdf:RDF>
   <cc:Work rdf:about="">
    <dc:format>image/svg+xml</dc:format>
    <dc:type rdf:resource="http://purl.org/dc/dcmitype/StillImage"/>
    <dc:title/>
   </cc:Work>
  </rdf:RDF>
 </metadata>
 <g id="layer2" display="none">
  <rect id="rect3745" x="5" y="7" width="86" height="85" rx="6" ry="6" fill="url(#ButtonShadow)" filter="url(#filter3174)" opacity=".9"/>
 </g>
 <g id="layer3">
  <path id="path3786" transform="scale(1,-1)" d="m12-95.031c-5.5111 0-10.031 4.5202-10.031 10.031v71c0 5.5111 4.5202 10.031 10.031 10.031h72c5.5111 0 10.031-4.5202 10.031-10.031v-71c0-5.5111-4.5202-10.031-10.031-10.031h-72z" fill="url(#linearGradient3780)" opacity=".08"/>
  <path id="path3778" transform="scale(1,-1)" d="m12-94.031c-4.9716 0-9.0312 4.0596-9.0312 9.0312v71c0 4.9716 4.0596 9.0312 9.0312 9.0312h72c4.9716 0 9.0312-4.0596 9.0312-9.0312v-71c0-4.9716-4.0596-9.0312-9.0312-9.0312h-72z" fill="url(#linearGradient3780)" opacity=".1"/>
  <path id="path3770" transform="scale(1,-1)" d="m12-93c-4.4091 0-8 3.5909-8 8v71c0 4.4091 3.5909 8 8 8h72c4.4091 0 8-3.5909 8-8v-71c0-4.4091-3.5909-8-8-8h-72z" fill="url(#linearGradient3780)" opacity=".2"/>
  <rect id="rect3723" transform="scale(1,-1)" x="5" y="-92" width="86" height="85" rx="7" ry="7" fill="url(#linearGradient3780)" opacity=".3"/>
  <rect id="rect3716" transform="scale(1,-1)" x="6" y="-91" width="84" height="84" rx="6" ry="6" fill="url(#linearGradient3721)" opacity=".45"/>
 </g>
 <g id="layer1">
  <rect id="rect2419" x="6" y="6" width="84" height="84" rx="6" ry="6" fill="url(#linearGradient3617)"/>
  <path id="rect3728" d="m12 6c-3.324 0-6 2.676-6 6v2 68 2c0 0.33472 0.04135 0.6507 0.09375 0.96875 0.0487 0.2956 0.09704 0.59692 0.1875 0.875 0.00988 0.03038 0.020892 0.0636 0.03125 0.09375 0.098865 0.28777 0.23488 0.54745 0.375 0.8125 0.14459 0.27351 0.31562 0.53562 0.5 0.78125s0.37378 0.47347 0.59375 0.6875c0.43995 0.42806 0.94291 0.81453 1.5 1.0938 0.27854 0.13961 0.57347 0.24695 0.875 0.34375-0.2562-0.10022-0.48671-0.23627-0.71875-0.375-0.00741-0.0044-0.023866 0.0045-0.03125 0-0.031933-0.0193-0.062293-0.04251-0.09375-0.0625-0.1204-0.0767-0.23102-0.16351-0.34375-0.25-0.10617-0.0808-0.21328-0.16111-0.3125-0.25-0.17793-0.16143-0.34746-0.34539-0.5-0.53125-0.10758-0.13026-0.21839-0.26528-0.3125-0.40625-0.025089-0.03838-0.038446-0.08587-0.0625-0.125-0.064763-0.10303-0.13023-0.20452-0.1875-0.3125-0.10101-0.19471-0.20567-0.4157-0.28125-0.625-0.00796-0.02181-0.023589-0.04055-0.03125-0.0625-0.031825-0.09195-0.035804-0.18683-0.0625-0.28125-0.030332-0.10662-0.070389-0.20303-0.09375-0.3125-0.072879-0.34151-0.125-0.6982-0.125-1.0625v-2-68-2c0-2.7818 2.2182-5 5-5h2 68 2c2.7818 0 5 2.2182 5 5v2 68 2c0 0.3643-0.05212 0.72099-0.125 1.0625-0.04415 0.20689-0.08838 0.39766-0.15625 0.59375-0.0077 0.02195-0.0233 0.04069-0.03125 0.0625-0.06274 0.17374-0.13838 0.36745-0.21875 0.53125-0.04158 0.0828-0.07904 0.16995-0.125 0.25-0.0546 0.09721-0.12677 0.18835-0.1875 0.28125-0.09411 0.14096-0.20492 0.276-0.3125 0.40625-0.14317 0.17445-0.30314 0.347-0.46875 0.5-0.01117 0.0102-0.01998 0.02115-0.03125 0.03125-0.13839 0.12556-0.28509 0.23444-0.4375 0.34375-0.10257 0.07315-0.20432 0.15336-0.3125 0.21875-0.0074 0.0045-0.02384-0.0044-0.03125 0-0.23204 0.13873-0.46255 0.27478-0.71875 0.375 0.30153-0.0968 0.59646-0.20414 0.875-0.34375 0.55709-0.27922 1.0601-0.66569 1.5-1.0938 0.21997-0.21403 0.40937-0.44186 0.59375-0.6875s0.35541-0.50774 0.5-0.78125c0.14012-0.26505 0.27614-0.52473 0.375-0.8125 0.01041-0.03078 0.02133-0.06274 0.03125-0.09375 0.09046-0.27808 0.1388-0.5794 0.1875-0.875 0.0524-0.31805 0.09375-0.63403 0.09375-0.96875v-2-68-2c0-3.324-2.676-6-6-6h-72z" fill="url(#linearGradient3188)" opacity=".35"/>
  <path id="path3615" d="m12 90c-3.324 0-6-2.676-6-6v-2-68-2c0-0.33472 0.04135-0.6507 0.09375-0.96875 0.0487-0.2956 0.09704-0.59692 0.1875-0.875 0.00988-0.03038 0.020892-0.0636 0.03125-0.09375 0.098865-0.28777 0.23488-0.54745 0.375-0.8125 0.14459-0.27351 0.31562-0.53562 0.5-0.78125s0.37378-0.47347 0.59375-0.6875c0.43995-0.42806 0.94291-0.81453 1.5-1.0938 0.27854-0.13961 0.57347-0.24695 0.875-0.34375-0.2562 0.10022-0.48671 0.23627-0.71875 0.375-0.00741 0.0044-0.023866-0.0045-0.03125 0-0.031933 0.0193-0.062293 0.04251-0.09375 0.0625-0.1204 0.0767-0.23102 0.16351-0.34375 0.25-0.10617 0.0808-0.21328 0.16111-0.3125 0.25-0.17793 0.16143-0.34746 0.34539-0.5 0.53125-0.10758 0.13026-0.21839 0.26528-0.3125 0.40625-0.025089 0.03838-0.038446 0.08587-0.0625 0.125-0.064763 0.10303-0.13023 0.20452-0.1875 0.3125-0.10101 0.19471-0.20567 0.4157-0.28125 0.625-0.00796 0.02181-0.023589 0.04055-0.03125 0.0625-0.031825 0.09195-0.035804 0.18683-0.0625 0.28125-0.030332 0.10662-0.070389 0.20303-0.09375 0.3125-0.072879 0.34151-0.125 0.6982-0.125 1.0625v2 68 2c0 2.7818 2.2182 5 5 5h2 68 2c2.7818 0 5-2.2182 5-5v-2-68-2c0-0.3643-0.05212-0.72099-0.125-1.0625-0.04415-0.20689-0.08838-0.39766-0.15625-0.59375-0.0077-0.02195-0.0233-0.04069-0.03125-0.0625-0.06274-0.17374-0.13838-0.36745-0.21875-0.53125-0.04158-0.0828-0.07904-0.16995-0.125-0.25-0.0546-0.09721-0.12677-0.18835-0.1875-0.28125-0.09411-0.14096-0.20492-0.276-0.3125-0.40625-0.14317-0.17445-0.30314-0.347-0.46875-0.5-0.01117-0.0102-0.01998-0.02115-0.03125-0.03125-0.13839-0.12556-0.28509-0.23444-0.4375-0.34375-0.10257-0.07315-0.20432-0.15336-0.3125-0.21875-0.0074-0.0045-0.02384 0.0044-0.03125 0-0.23204-0.13873-0.46255-0.27478-0.71875-0.375 0.30153 0.0968 0.59646 0.20414 0.875 0.34375 0.55709 0.27922 1.0601 0.66569 1.5 1.0938 0.21997 0.21403 0.40937 0.44186 0.59375 0.6875s0.35541 0.50774 0.5 0.78125c0.14012 0.26505 0.27614 0.52473 0.375 0.8125 0.01041 0.03078 0.02133 0.06274 0.03125 0.09375 0.09046 0.27808 0.1388 0.5794 0.1875 0.875 0.0524 0.31805 0.09375 0.63403 0.09375 0.96875v2 68 2c0 3.324-2.676 6-6 6h-72z" fill="url(#linearGradient4711)" opacity=".213"/>
  <g id="layer4" transform="matrix(.37936 0 0 .36233 1.9577 7.7933)">
   <g id="g5438" transform="matrix(.98672 0 0 1 3.0683 -10)" clip-path="url(#clipPath5466)">
    <path id="path5436" d="m110.75 5.5-4.25 7c-0.75 9-2.25 13.75-8.5 16.5s-12.25 3.5-11 7.5 13 9.25 14.25 13 8.25 1.75 11 7 2 15.25-3.75 17.25-17.5 0.5-20.25 9.5-4.75 10.5-9 12.75-7.25 10.5-3.5 16.5 12.25-1.25 15-6.5 7.25-8.75 7.25-8.75h23.75l59-1.75 3.25-3.75s3.25 4 2.75 8.75-3.75 14.75 0.25 17.25 19.5-2 24-7-4.75-28.25-10.5-29.5-18.5-1.75-17-7 11.75 4.5 17.25 3.25 16.75-21 12-25.25-24.25-5.25-25.75-8 21-8 22.25-11-2.5-7.25-6.25-8.5-14 16.25-21 15.75-20 5.75-17.25 11.5-6 11-14.5 6.5-24.75-13-21.75-24 21.5-18.75 21.5-18.75zm-13.562 107.22c-1.595 0.15-4.469 4.69-4.938 7.03-0.5 2.5-3.25 6.75-3.5 12.25s4.75 6.75 8.75 6.5 2.75-6.75 2-15c-0.25 0-0.5-10.25-2-10.75-0.094-0.03-0.206-0.04-0.312-0.03zm92.722 51.66c-6.34 0.29-6.63 7.46-7.41 8.87-1.25 2.25 2.25 13.75 2 18s-4.75 5.25-9.5 9.75 0.5 16 11.25 31l44.75 1.25-0.46386-36.965s4.2139-2.2853-21.286-22.285c-9.56-7.5-15.54-9.8-19.34-9.62zm-149.97 16.53c-4.03-0.11-8.282 5.71-9.688 7.59-1.5 2-6.25 5-17 9.5l-14.5 34.25 53 4.25s1.75-11-4.25-15.75-17.25-5.75-18.25-13.25 9.25-10 13.75-14.25 2-11.25-2.25-12.25c-0.266-0.06-0.544-0.09-0.812-0.09z" fill="#81cc8b"/>
   </g>
   <path id="path5280" d="m158.53 75.344c-4.76-0.015-9.03 0.968-11.53 3.156-8 7-35 0.75-48.5 7s-13.25 38-14.75 44.5-17.5 20.75-20 23.5-13.25 7.25-19.5 8.5-12.75 7.25-15.5 11c-2.021 2.76-7.406 6.45-10.125 8.22-0.046 0.18-0.079 0.35-0.125 0.53-0.134 0.53-0.247 1.08-0.375 1.63 4.98-1.61 11.18-8.18 16.625-13.63 6.25-6.25 20-7.75 27.75-11.5s14.25-19.75 26.5-23.75 21.25 11.75 24.25 18.5 1.75 12.75 3.75 17 11 11.75 11.5 13.5-5 6.5-6.25 8.5-10.5 7-11.75 8.75c-0.97 1.35-1.92 6.77-2.31 9.22 0.41-0.17 0.75-0.31 1.12-0.47 0.49-2.53 1.52-7.08 2.94-8.5 2-2 11.25-4.5 12.5-8.5s7-6.5 7-6.5 2.75 4 16 14c8.83 6.67 12.76 15.53 14.41 20.72 0.67 0.17 1.53 0.41 2.03 0.53-1.22-4.32-4.84-16.24-8.94-20.75-5-5.5-18.5-10.75-22.75-22s-24.5-34.25-17.5-40.25 16.5-4 28.5 7.5 46.25 5.75 57.75 3.75c9.95-1.73 20.83 14.88 23.91 26.03 0.59-2.09 1.12-4 1.65-5.75-1.74-1.92-3.69-4.62-5.31-8.28-3.75-8.5-12-13.25-12-13.25s8.75-5 14.75-7.75c1.62-0.74 3.01-1.68 4.19-2.66-0.16-0.77-0.26-1.25-0.44-2.09-0.03-0.15-0.06-0.29-0.09-0.44-4.77 5.56-19.24 9.62-21.66 10.94-2.75 1.5-18.25 3-35.75 4.5s-26.75-7.5-34.25-14.75-13-36-3-38 20 13.75 30 17 21.5-15.75 19.75-27c-1.2-7.734-14-12.625-24.47-12.656zm-53.34 13.281c1.27 1e-3 5.86 1.594 6.56 2.375 2.25 2.5 2 7.25 0 8s-12.75 8-10.5 14.25 1.75 18-3.5 18-8 0-10-2.5-2-12 0-19.75 3.5-15 8-18.25c3.094-2.234 6.63-2.128 9.44-2.125zm13.59 73.095c0.2 0.01 1.91 3.51 4.72 7.03 3 3.75 3.25 8.25 3.25 8.25s-4.25-4.75-6-8-2-7.25-2-7.25c0-0.03 0.02-0.03 0.03-0.03z" fill="#3ac3ff"/>
   <path id="path5319" d="m122.75 62.25c6.25 0.5 12.25-2.25 10.75-6.5s-12.5-7.25-13.25-3 2 10.5 2.5 9.5z" fill="none" opacity=".38696" stroke="#6d7f42" stroke-linecap="round" stroke-linejoin="round"/>
   <path id="path5321" d="m108.75 46.75c-8.5-5.5-8.5-7.25-7-8s10.25 5 12.75 8-2.25 2-5.75 0z" fill="none" opacity=".38696" stroke="#6d7f42" stroke-linecap="round" stroke-linejoin="round"/>
   <g id="g5373" transform="translate(0,-10)" clip-path="url(#clipPath5383)" fill="none" stroke="#6d7f42">
    <path id="path5323" d="m15.75 151.25c33-2.5 38.25-3.5 36.25-10.25s-8.75-23.5-23-22.5-22.75-6.75-22.75-6.75" opacity=".38696" stroke-linecap="round" stroke-linejoin="round"/>
    <path id="path5311" d="m17.5 177.25c18.25-10 28.75-8.5 35-11.5s13.25-5.75 15.75-9.5 5.75-11.5 5.75-18-3.5-36 3.25-43.5 17.25-26 26-23.25 12.25 9.75 22 9.5 21.75-4 24.25-12.25-15.75-16-16-23 5.5-14.25 20.25-17 23.5-11.5 23.5-11.5" opacity=".38696"/>
    <path id="path5313" d="m14.5 161c15.25-1.5 22.25 3.5 31.5 1.75s13.25-3 17.75-5.75 6-3.75 6.25-6.5 1-12.5-3-22-12.5-31.5-8.25-38.75 5.25-21.5 15.75-24.5 21-6.25 27.75-1.25 12.75 14.25 20 14.5 11.75-1.5 14.5-4.5 4.5-10.25 1.75-13.75-15.5-5.5-17.25-9.5-10.75-17-0.25-26.75 36.25-8.25 36.25-8.25" opacity=".38696" stroke-linecap="round" stroke-linejoin="round"/>
    <path id="path5315" d="m21.25 159c13.75 1 21.5 4.25 33.5-0.5s13.5-5.25 13.75-8.75-0.25-15.75-3-20-13-13.75-15.75-24.25 0.25-41 8.5-48.25 32-7.25 37.5-10.5 5.25-16.75 13-24.5 27-12.25 27-12.25" opacity=".38696" stroke-linecap="round" stroke-linejoin="round"/>
    <path id="path5317" d="m190 18.5c11.75 5 39 9.75 47.25 40.25" opacity=".38696" stroke-linecap="round" stroke-linejoin="round"/>
    <path id="path5325" d="m9.75 214c19-12.5 36-1.25 49-4s38.25-37.25 46-37 5.5-11.75 8.5-13.25 5.5 6 11.75 8 24.5-2.75 23.5-5.75-7-7.75-5.5-8.5 8.5 5 12.75 3.5 43.75-1 48.5-13.5 21.5-13.5 21.5-13.5" opacity=".38696" stroke-linecap="round" stroke-linejoin="round"/>
    <path id="path5327" d="m77.5 233.5c13.5-11.5 23.25-25 28.5-27s12.75-3.75 15.75-8 2.5-10.75 5.25-12 3.75 5.75 8.75 6 36.75-5 42.75-11.75 32.25-12.5 32.5-14.5-1-4.75 0.25-5.5 24.75-6 24.75-6" opacity=".38696" stroke-linecap="round" stroke-linejoin="round"/>
    <path id="path5329" d="m168.75 236c9-13.75 20.5-41 29.5-42s10.25-2.5 12.5-4.25 17 2.25 17 2.25" opacity=".38696" stroke-linecap="round" stroke-linejoin="round"/>
   </g>
   <g id="g5400" transform="translate(0,-10)" clip-path="url(#clipPath5426)" fill="none" stroke="#ff5787" stroke-linecap="round" stroke-width="2">
    <path id="path5387" d="m36.304 11.58-5.2832 35.547 36.229 7.3727 7.75 36.25-21 22.25 9 10.5-12 11.5 0.5 4.5 20.25 24.5 14-6.75 20.5 18.5-10.5 28.25 10.25 8.5-2.75 13" stroke-width="1.9987"/>
    <path id="path5389" d="m105.75 212.25 12.5-27.75 11-7 27.5 15.75 20.5-3.75-0.25-15.75-10.25-6 12.75-26.25 5.75-3.75 46.792 4.5947"/>
   </g>
  </g>
 </g>
 <g id="g2430" transform="translate(66)">
  <g id="g2451" transform="translate(-78,4)">
   <path id="rect5757-8-7-7-9" d="m19.378 82.188-1.5568 1.4736c-1.6216-1.7198-3.3164-3.4654-4.884-5.224l1.4545-1.3182c2.2117 2.1149 2.8734 2.7626 4.9863 5.0686z" fill="url(#linearGradient6241)"/>
   <path id="path5604-26" d="m44.333 52.142c-8.8015-8.8028-8.8015-23.076 0-31.879 8.8028-8.8028 23.076-8.8028 31.879 0 8.8028 8.8028 8.8028 23.076 0 31.879-8.8028 8.8028-23.076 8.8028-31.879 0zm0.95866-0.95866c8.4498 8.453 21.832 8.7704 30.282 0.32064 8.453-8.453 8.1324-21.834-0.31739-30.285-8.4498-8.4504-21.832-8.7694-30.285-0.31868-8.4498 8.4507-8.1324 21.833 0.32064 30.283z" fill="#2d3335" stroke="#2d3335" stroke-width="3"/>
   <path id="path5604-2-9" d="m44.333 52.142c-8.8015-8.8028-8.8015-23.076 0-31.879 0.055-0.0537 0.10688-0.10656 0.16194-0.15967-8.6438 8.8151-8.591 22.97 0.1587 31.718 8.7477 8.751 22.904 8.8028 31.717 0.1587-0.05182 0.055-0.10364 0.10688-0.1587 0.16194-8.8028 8.8028-23.076 8.8028-31.879 0zm0.79672-31.401c0.055-0.0541 0.10688-0.1059 0.16194-0.15934 8.4498-8.4508 21.832-8.132 30.282 0.31869 8.453 8.4507 8.7704 21.833 0.32063 30.283l-0.16194 0.16194c8.2878-8.4595 7.9219-21.729-0.47609-30.126-8.398-8.397-21.667-8.7649-30.126-0.47803z" fill="#9eaaac"/>
   <path id="path5604-9-13" d="m44.971 51.504c8.453 8.4498 22.153 8.4498 30.602 0 8.453-8.453 8.453-22.153 0-30.603-8.4498-8.4507-22.149-8.4507-30.602 0-8.4498 8.4507-8.4498 22.15 0 30.603z" fill="#d0e9f2" fill-opacity=".47594"/>
   <path id="path5604-9-1-3" d="m44.971 51.504c8.453 8.4498 22.153 8.4498 30.602 0 8.453-8.453 8.453-22.153 0-30.603-8.4498-8.4507-22.149-8.4507-30.602 0-8.4498 8.4507-8.4498 22.15 0 30.603z" fill="url(#radialGradient2453)"/>
   <path id="path5604-9-1-8-8-1" d="m40.767 46.575-1.8622 1.3246c1.0688 2.0112 2.4484 3.9026 4.1455 5.5965 1.6938 1.6971 3.5852 3.0768 5.5965 4.1455l1.3246-1.8623c-1.9173-0.98456-3.7213-2.2703-5.3277-3.8767-1.6064-1.6064-2.8922-3.4104-3.8767-5.3277z" fill="url(#linearGradient6253)"/>
   <path id="rect5757-5" d="m44.255 52.22c0.5603 0.56029 0.99752 1.1886 1.3344 1.8525l-8.4886 8.4886c-0.66395-0.33683-1.2916-0.77405-1.8519-1.3343-0.55997-0.5603-0.99881-1.1886-1.3347-1.8526l8.4883-8.4886c0.66394 0.33683 1.2922 0.77405 1.8525 1.3344z" fill="url(#linearGradient6250)"/>
   <path id="rect5757-8-7-2" d="m41.486 60.09-21.398 21.398c-1.2903-0.70927-1.8888-0.97161-3.0088-2.0922-1.12-1.1206-1.382-1.7165-2.0919-3.0088l21.398-21.398c1.6388 1.2145 3.9253 3.3682 5.101 5.101z" fill="url(#linearGradient6247)"/>
   <path id="rect5757-8-6" d="m38.088 58.435c1.1206 1.1206 2.4064 2.157 2.7594 3.569l-20.76 20.76c-2.1107-1.6712-4.7139-4.1423-6.3757-6.377l20.76-20.76c1.1306 0.0745 2.4799 1.6712 3.6005 2.7918l0.0162 0.0162z" fill="url(#linearGradient6244)"/>
   <path id="rect5757-8-6-3" d="m38.007 58.513c1.1206 1.1206 2.4873 2.0792 2.8403 3.4913l-20.76 20.76c-2.5511-2.2379-3.821-3.4427-6.3757-6.377l20.76-20.76c1.1306 0.0745 2.4021 1.7651 3.5227 2.8857h0.0129z" fill="url(#linearGradient6279)" opacity=".59565"/>
   <path id="path6587" d="m46.311 20.519c13.169-10.42 25.304-4.1222 25.191 1.7175-0.11335 5.8397-18.321 22.787-24.734 21.413-6.4126-1.3732-8.2425-17.291-0.45665-23.131z" fill="url(#linearGradient6595)" opacity=".60435"/>
   <text id="text6302" transform="matrix(.94271 -.16213 .14761 1.0354 0 0)" x="37.385895" y="35.589233" fill="url(#radialGradient2378)" font-family="Monospace" font-size="8.0035px" font-weight="bold" stroke-width="1.2481" xml:space="preserve"><tspan id="tspan6304" x="37.385895" y="35.589233" stroke-width="1.2481">01011001</tspan><tspan id="tspan6415" x="37.385895" y="45.593521" stroke-width="1.2481">00110101</tspan><tspan id="tspan6417" x="37.385895" y="55.597778" stroke-width="1.2481">10010011</tspan><tspan id="tspan6419" x="37.385895" y="65.602066"/></text>
   <path id="path6587-7" d="m72.465 48.905c-8.6765 7.1187-13.541 6.8045-12.33 4.2556 1.208-2.5489 13.706-13.492 16.663-14.169 2.9537-0.67785 0.73518 5.8426-4.3334 9.9137z" fill="url(#linearGradient6614)" opacity=".76522"/>
  </g>
 </g>
</svg>
