<?xml version="1.0" encoding="UTF-8"?>
<svg id="svg77" width="96" height="96" version="1.1" xmlns="http://www.w3.org/2000/svg" xmlns:cc="http://creativecommons.org/ns#" xmlns:dc="http://purl.org/dc/elements/1.1/" xmlns:rdf="http://www.w3.org/1999/02/22-rdf-syntax-ns#" xmlns:xlink="http://www.w3.org/1999/xlink">
 <metadata id="metadata81">
  <rdf:RDF>
   <cc:Work rdf:about="">
    <dc:format>image/svg+xml</dc:format>
    <dc:type rdf:resource="http://purl.org/dc/dcmitype/StillImage"/>
   </cc:Work>
  </rdf:RDF>
 </metadata>
 <defs id="defs2410">
  <filter id="filter3794" x="-.192" y="-.192" width="1.384" height="1.384">
   <feGaussianBlur id="feGaussianBlur3796" stdDeviation="5.28"/>
  </filter>
  <linearGradient id="linearGradient3613" x1="48" x2="48" y1="20.221" y2="138.66" gradientUnits="userSpaceOnUse">
   <stop id="stop3739" stop-color="#fff" offset="0"/>
   <stop id="stop3741" stop-color="#fff" stop-opacity="0" offset="1"/>
  </linearGradient>
  <linearGradient id="buttonGradient" x1="48" x2="48" y1="90" y2="5.9877" gradientUnits="userSpaceOnUse">
   <stop id="stop3702" stop-color="#e97300" offset="0"/>
   <stop id="stop3704" stop-color="#ff8209" offset="1"/>
  </linearGradient>
  <linearGradient id="ButtonShadow-0" x1="45.448" x2="45.448" y1="92.54" y2="7.0165" gradientTransform="matrix(1.0059 0 0 .99417 100 0)" gradientUnits="userSpaceOnUse">
   <stop id="stop3750-8" offset="0"/>
   <stop id="stop3752-5" stop-opacity=".58824" offset="1"/>
  </linearGradient>
  <linearGradient id="linearGradient3780" x1="32.251" x2="32.251" y1="6.1317" y2="90.239" gradientTransform="matrix(1.0238 0 0 1.0119 -1.1429 -98.071)" gradientUnits="userSpaceOnUse" xlink:href="#ButtonShadow-0"/>
  <linearGradient id="linearGradient3721" x1="32.251" x2="32.251" y1="6.1317" y2="90.239" gradientTransform="translate(0,-97)" gradientUnits="userSpaceOnUse" xlink:href="#ButtonShadow-0"/>
  <clipPath id="clipPath4355">
   <rect id="rect4357" x="6" y="6" width="84" height="84" rx="6" ry="6" fill="#fff"/>
  </clipPath>
  <linearGradient id="linearGradient4390" x1="48" x2="48" y1="88" y2="-40" gradientTransform="matrix(1,0,0,-1,0,92)" gradientUnits="userSpaceOnUse">
   <stop id="stop4386" stop-color="#fff" offset="0"/>
   <stop id="stop4388" stop-color="#fff" stop-opacity="0" offset="1"/>
  </linearGradient>
 </defs>
 <g id="layer3">
  <g id="g32" fill="url(#linearGradient3780)">
   <path id="path3786" transform="scale(1,-1)" d="m12-95.021c-5.5111 0-10.022 4.51-10.022 10.021v71c0 5.5111 4.5104 10.021 10.021 10.021h72c5.5111 0 10.021-4.5104 10.021-10.021v-71c0-5.5111-4.5104-10.021-10.021-10.021h-72z" opacity=".08"/>
   <path id="path3778" transform="scale(1,-1)" d="m12-94.035c-4.9716 0-9.0352 4.0635-9.0352 9.0352v71c0 4.9716 4.0635 9.0352 9.0352 9.0352h72c4.9716 0 9.0352-4.0635 9.0352-9.0352v-71c0-4.9716-4.0635-9.0352-9.0352-9.0352h-72z" opacity=".1"/>
   <path id="path3770" transform="scale(1,-1)" d="m12-92.99c-4.4091 0-7.9902 3.5811-7.9902 7.9902v71c0 4.4091 3.5811 7.9902 7.9902 7.9902h72c4.4091 0 7.9902-3.5811 7.9902-7.9902v-71c0-4.4091-3.5811-7.9902-7.9902-7.9902h-72z" opacity=".2"/>
   <rect id="rect3723" transform="scale(1,-1)" x="5" y="-92" width="86" height="85" rx="7" ry="7" opacity=".3"/>
  </g>
  <rect id="rect3716" transform="scale(1,-1)" x="6" y="-91" width="84" height="84" rx="6" ry="6" fill="url(#linearGradient3721)" opacity=".45"/>
 </g>
 <g id="layer1">
  <rect id="button" x="6" y="6" width="84" height="84" rx="6" ry="6" fill="url(#buttonGradient)"/>
  <path id="rect4377" d="m12 6c-3.324 0-6 2.676-6 6v72c0 3.324 2.676 6 6 6h72c3.324 0 6-2.676 6-6v-72c0-3.324-2.676-6-6-6zm0 2h72c2.805 0 5 2.195 5 5v70c0 2.805-2.195 5-5 5h-72c-2.805 0-5-2.195-5-5v-70c0-2.805 2.195-5 5-5z" fill="url(#linearGradient4390)" opacity=".3"/>
 </g>
 <g id="layer5">
  <rect id="rect3171" x="15" y="15" width="66" height="66" rx="12" ry="12" clip-path="url(#clipPath4355)" fill="url(#linearGradient3613)" filter="url(#filter3794)" opacity=".1" stroke="#fff" stroke-linecap="round" stroke-width=".5"/>
 </g>
 <defs id="defs53">
  <linearGradient id="a" x1="8" x2="8" y1="1.8186" y2="15" gradientUnits="userSpaceOnUse">
   <stop id="stop48" stop-color="#fafafa" offset="0"/>
   <stop id="stop50" stop-color="#ebebeb" offset="1"/>
  </linearGradient>
 </defs>
 <g id="g75">
  <path id="path55" transform="matrix(4,0,0,4,16,17)" d="m4.7148 1.5684a0.25002 0.25002 0 0 0-0.10742 0.029297c-2.3709 1.2557-3.8557 3.7195-3.8574 6.4023 7.2674e-4 1.6946 0.59506 3.3348 1.6797 4.6367a0.25002 0.25002 0 0 0 0.4375-0.11133l2.0977-10.639 0.0039062-0.019531a0.25002 0.25002 0 0 0-0.25391-0.29883zm3.2891 0.92578a0.25002 0.25002 0 0 0-0.025391 0.00195 0.25002 0.25002 0 0 0-0.00195 0c-0.28263-0.011699-0.57293-0.016509-0.86914 0.0039094a0.25002 0.25002 0 0 0-0.22852 0.20898l-0.875 5.25a0.25002 0.25002 0 0 0 0.23828 0.29102c0.54528 0.018178 1.1552-0.0029938 1.7578-0.095703 0.86658-0.13331 1.6406-0.46447 2.125-0.88672 0.48406-0.42198 0.75-1.0477 0.75-2.0645 0-1.1079-0.26652-1.6298-0.57422-1.9668-0.32763-0.35874-0.82814-0.58575-1.4297-0.68555a0.25002 0.25002 0 0 0-0.023438-0.00195c-0.27017-0.018187-0.55276-0.042009-0.84375-0.054691zm5.0645 0.4375a0.25002 0.25002 0 0 0-0.24805 0.29688c0.11968 0.63962 0.14219 1.3102 0.17969 1.9785-0.001883 1.5109-0.65925 2.2615-1.6504 3.0273-0.98905 0.7643-1.7663 1.0562-2.8437 1.2031-0.93155 0.12702-1.834 0.10467-2.5762 0.0625a0.25002 0.25002 0 0 0-0.26172 0.20703l-0.80859 4.6133a0.25002 0.25002 0 0 0 0.14062 0.27148c0.94101 0.43099 1.9631 0.65526 2.998 0.6582a0.25002 0.25002 0 0 0 0.0019531 0c4.0011 0 7.25-3.2489 7.25-7.25-0.0032-1.8582-0.71985-3.6451-2.002-4.9902a0.25002 0.25002 0 0 0-0.17969-0.078125z" opacity=".15"/>
  <g id="Bevel1"></g>
  <g id="Bevel2"></g>
  <path id="base" transform="translate(16,16) scale(4)" d="m4.7239 1.8186c-2.4826 8.7876-1.2413 4.3938 0 0zc-2.2896 1.2126-3.7222 3.5906-3.7239 6.1814 7.017e-4 1.6362 0.57454 3.2204 1.6218 4.4775zm8.5258 3.3821c0 1.5917-0.73044 2.4465-1.7466 3.2317-1.0161 0.7852-1.8564 1.1017-2.9634 1.2527-0.95669 0.13045-1.8763 0.10748-2.625 0.06494l-0.81006 4.6143c0.90856 0.41613 1.8957 0.6329 2.895 0.63574 3.866 0 7-3.134 7-7-0.0031-1.7942-0.69496-3.5188-1.9329-4.8176 0.12492 0.66761 0.14544 1.3518 0.18296 2.0182zm-5.2569-2.4558c-0.28515-0.012426-0.57542-0.015052-0.86816 0.005127l-0.875 5.25c0.5327 0.017759 1.1295-0.00261 1.7124-0.092285 0.82528-0.12696 1.5664-0.4528 1.9978-0.82886 0.43138-0.37605 0.6648-0.89789 0.6648-1.8748 0-1.0717-0.23306-1.4971-0.50928-1.7996-0.27622-0.30245-0.72257-0.51335-1.2852-0.60669-0.27223-0.018322-0.55225-0.040552-0.8374-0.052979z" fill="url(#a)"/>
  <path id="path65" transform="translate(0,2)" d="m34.896 22.273c-0.076091 0.040298-0.14704 0.087965-0.22266 0.12891l-8.1875 41.508c-4.0579-4.871-6.3313-10.971-6.4727-17.297-0.001873 0.1294-0.013587 0.25705-0.013672 0.38672 0.0028 6.5448 2.2973 12.882 6.4863 17.91l8.4102-42.637zm33.371 5.457c0.47924 2.5612 0.57155 5.1803 0.71094 7.7422 0.007527-0.22223 0.019531-0.44014 0.019531-0.66992-0.12772-2.2684-0.2223-4.5863-0.55078-6.873-0.061225-0.065483-0.11778-0.13427-0.17969-0.19922zm-9.7832 7.5547c-0.075525 3.5965-0.99212 5.5908-2.6445 7.0312-1.7256 1.5042-4.6911 2.8066-7.9922 3.3145-2.2727 0.34964-4.5942 0.43275-6.6836 0.37109l-0.16602 0.99805c2.1308 0.07104 4.518-0.010441 6.8496-0.36914 3.3011-0.50784 6.2666-1.8102 7.9922-3.3145 1.7255-1.5042 2.6582-3.5924 2.6582-7.5 0-0.19101-0.010037-0.35032-0.013672-0.53125zm17.502 11.219c-0.26977 15.231-12.693 27.496-27.988 27.496-3.9376-0.011191-7.8268-0.85637-11.416-2.4727l-0.16406 0.92969c3.6342 1.6645 7.5829 2.5316 11.58 2.543 15.464 0 28-12.536 28-28-2.87e-4 -0.16584-0.008497-0.33057-0.011719-0.49609z" opacity=".3" stroke-width="4"/>
  <path id="path70" transform="translate(0,2)" d="m34.896 21.273c-9.1584 4.8504-14.89 14.363-14.896 24.727 8.8e-5 0.20485 0.009105 0.40887 0.013672 0.61328 0.14656-10.126 5.7484-19.386 14.66-24.211l0.22266-1.1289zm11.35 3.668c-0.57922 0.00125-1.1626 0.018234-1.748 0.058594l-3.5 21c0.053838 0.001795 0.11186 3.55e-4 0.16602 0.001953l3.334-20.002c1.171-0.08072 2.3321-0.069231 3.4727-0.019531v-0.001953c1.1406 0.049708 2.2607 0.1396 3.3496 0.21289 2.2505 0.37336 4.0357 1.216 5.1406 2.4258 1.0556 1.1561 1.9455 2.7883 2.0234 6.668 0.003342-0.15913 0.013672-0.30318 0.013672-0.46875 0-4.2868-0.93223-5.9892-2.0371-7.1992-1.1049-1.2098-2.8901-2.0524-5.1406-2.4258-1.0889-0.07329-2.209-0.16318-3.3496-0.21289v0.001953c-0.5703-0.02485-1.1454-0.040313-1.7246-0.039063zm22.021 1.7891c0.07446 0.39794 0.12217 0.79879 0.17969 1.1992 4.7227 5.0511 7.4046 11.666 7.5391 18.574 0.00298-0.16822 0.011719-0.33497 0.011719-0.50391-0.0124-7.1768-2.7787-14.074-7.7305-19.27zm0.71094 8.7422c-0.20105 5.9353-3.0489 9.2304-6.9668 12.258-4.0644 3.1408-7.4255 4.4058-11.854 5.0098-3.8268 0.5218-7.5052 0.42993-10.5 0.25977l-3.2402 18.457c0.054158 0.024805 0.10976 0.045862 0.16406 0.070313l3.0762-17.527c2.9948 0.17016 6.6732 0.26203 10.5-0.25977 4.428-0.604 7.7891-1.869 11.854-5.0098 4.0646-3.1408 6.9863-6.5609 6.9863-12.928-0.006139-0.10903-0.013587-0.22082-0.019531-0.33008z" fill="#fff" stroke-width="4"/>
 </g>
</svg>
