<?xml version="1.0" encoding="UTF-8"?>
<!-- Created with Inkscape (http://www.inkscape.org/) -->
<svg id="svg2408" width="96" height="96" version="1.0" xmlns="http://www.w3.org/2000/svg" xmlns:cc="http://creativecommons.org/ns#" xmlns:dc="http://purl.org/dc/elements/1.1/" xmlns:rdf="http://www.w3.org/1999/02/22-rdf-syntax-ns#" xmlns:xlink="http://www.w3.org/1999/xlink">
 <defs id="defs2410">
  <linearGradient id="ButtonShadow" x1="45.448" x2="45.448" y1="92.54" y2="7.0165" gradientTransform="scale(1.0059 .99417)" gradientUnits="userSpaceOnUse">
   <stop id="stop3750" offset="0"/>
   <stop id="stop3752" stop-opacity=".58824" offset="1"/>
  </linearGradient>
  <linearGradient id="linearGradient3737">
   <stop id="stop3739" stop-color="#fff" offset="0"/>
   <stop id="stop3741" stop-color="#fff" stop-opacity="0" offset="1"/>
  </linearGradient>
  <filter id="filter3174">
   <feGaussianBlur id="feGaussianBlur3176" stdDeviation="1.71"/>
  </filter>
  <linearGradient id="linearGradient3188" x1="36.357" x2="36.357" y1="6" y2="63.893" gradientUnits="userSpaceOnUse" xlink:href="#linearGradient3737"/>
  <filter id="filter3794" x="-.192" y="-.192" width="1.384" height="1.384">
   <feGaussianBlur id="feGaussianBlur3796" stdDeviation="5.28"/>
  </filter>
  <linearGradient id="linearGradient3613" x1="48" x2="48" y1="20.221" y2="138.66" gradientUnits="userSpaceOnUse" xlink:href="#linearGradient3737"/>
  <radialGradient id="radialGradient3619" cx="48" cy="90.172" r="42" gradientTransform="matrix(1.1573 0 0 .99591 -7.551 .19713)" gradientUnits="userSpaceOnUse" xlink:href="#linearGradient3737"/>
  <clipPath id="clipPath3613">
   <rect id="rect3615" x="6" y="6" width="84" height="84" rx="6" ry="6" fill="#fff"/>
  </clipPath>
  <linearGradient id="linearGradient3617" x1="48" x2="48" y1="90" y2="5.9877" gradientUnits="userSpaceOnUse">
   <stop id="stop4174" stop-color="#828283" offset="0"/>
   <stop id="stop4176" stop-color="#c0c0c0" offset="1"/>
  </linearGradient>
  <linearGradient id="ButtonShadow-0" x1="45.448" x2="45.448" y1="92.54" y2="7.0165" gradientTransform="matrix(1.0059 0 0 .99417 100 0)" gradientUnits="userSpaceOnUse">
   <stop id="stop3750-8" offset="0"/>
   <stop id="stop3752-5" stop-opacity=".58824" offset="1"/>
  </linearGradient>
  <linearGradient id="linearGradient3780" x1="32.251" x2="32.251" y1="6.1317" y2="90.239" gradientTransform="matrix(1.0238 0 0 1.0119 -1.1429 -98.071)" gradientUnits="userSpaceOnUse" xlink:href="#ButtonShadow-0"/>
  <linearGradient id="linearGradient3721" x1="32.251" x2="32.251" y1="6.1317" y2="90.239" gradientTransform="translate(0,-97)" gradientUnits="userSpaceOnUse" xlink:href="#ButtonShadow-0"/>
  <radialGradient id="radialGradient4691" cx="473.91" cy="187.53" r="15.547" gradientTransform="matrix(2.9043 -.88066 .13621 .44919 -1356.8 383.48)" gradientUnits="userSpaceOnUse">
   <stop id="stop3612" offset="0"/>
   <stop id="stop3614" stop-opacity="0" offset="1"/>
  </radialGradient>
  <radialGradient id="radialGradient4694" cx="482.6" cy="189.28" r="3.496" gradientTransform="matrix(-1.6993 1.6044 -.60642 -.64229 996.54 -593.12)" gradientUnits="userSpaceOnUse">
   <stop id="stop3597" stop-color="#dbff26" offset="0"/>
   <stop id="stop3599" stop-color="#dbff26" stop-opacity="0" offset="1"/>
  </radialGradient>
  <radialGradient id="radialGradient4698" cx="491.5" cy="186.95" r="10.172" gradientTransform="matrix(.12867 -.09751 .48186 .63587 -95.601 -8.4267)" gradientUnits="userSpaceOnUse">
   <stop id="stop3583" offset="0"/>
   <stop id="stop3585" stop-color="#333" stop-opacity="0" offset="1"/>
  </radialGradient>
  <radialGradient id="radialGradient4701" cx="484.92" cy="200.06" r="8.4521" gradientTransform="matrix(.32834 -.34563 1.9975 1.8976 -495.47 -144.26)" gradientUnits="userSpaceOnUse">
   <stop id="stop3570" offset="0"/>
   <stop id="stop3572" stop-opacity="0" offset="1"/>
  </radialGradient>
  <linearGradient id="linearGradient4708" x1="144.87" x2="144.87" y1="77.389" y2="28.85" gradientTransform="translate(-90)" gradientUnits="userSpaceOnUse">
   <stop id="stop4562" stop-color="#444" offset="0"/>
   <stop id="stop4564" stop-color="#888" offset="1"/>
  </linearGradient>
 </defs>
 <metadata id="metadata2413">
  <rdf:RDF>
   <cc:Work rdf:about="">
    <dc:format>image/svg+xml</dc:format>
    <dc:type rdf:resource="http://purl.org/dc/dcmitype/StillImage"/>
    <dc:title/>
   </cc:Work>
  </rdf:RDF>
 </metadata>
 <g id="layer2" display="none">
  <rect id="rect3745" x="5" y="7" width="86" height="85" rx="6" ry="6" fill="url(#ButtonShadow)" filter="url(#filter3174)" opacity=".9"/>
 </g>
 <g id="layer3">
  <path id="path3786" transform="scale(1,-1)" d="m12-95.031c-5.5111 0-10.031 4.5202-10.031 10.031v71c0 5.5111 4.5202 10.031 10.031 10.031h72c5.5111 0 10.031-4.5202 10.031-10.031v-71c0-5.5111-4.5202-10.031-10.031-10.031h-72z" fill="url(#linearGradient3780)" opacity=".08"/>
  <path id="path3778" transform="scale(1,-1)" d="m12-94.031c-4.9716 0-9.0312 4.0596-9.0312 9.0312v71c0 4.9716 4.0596 9.0312 9.0312 9.0312h72c4.9716 0 9.0312-4.0596 9.0312-9.0312v-71c0-4.9716-4.0596-9.0312-9.0312-9.0312h-72z" fill="url(#linearGradient3780)" opacity=".1"/>
  <path id="path3770" transform="scale(1,-1)" d="m12-93c-4.4091 0-8 3.5909-8 8v71c0 4.4091 3.5909 8 8 8h72c4.4091 0 8-3.5909 8-8v-71c0-4.4091-3.5909-8-8-8h-72z" fill="url(#linearGradient3780)" opacity=".2"/>
  <rect id="rect3723" transform="scale(1,-1)" x="5" y="-92" width="86" height="85" rx="7" ry="7" fill="url(#linearGradient3780)" opacity=".3"/>
  <rect id="rect3716" transform="scale(1,-1)" x="6" y="-91" width="84" height="84" rx="6" ry="6" fill="url(#linearGradient3721)" opacity=".45"/>
 </g>
 <g id="layer1">
  <rect id="rect2419" x="6" y="6" width="84" height="84" rx="6" ry="6" fill="url(#linearGradient3617)"/>
  <path id="rect3728" d="m12 6c-3.324 0-6 2.676-6 6v2 68 2c0 0.33472 0.04135 0.6507 0.09375 0.96875 0.0487 0.2956 0.09704 0.59692 0.1875 0.875 0.00988 0.03038 0.020892 0.0636 0.03125 0.09375 0.098865 0.28777 0.23488 0.54745 0.375 0.8125 0.14459 0.27351 0.31562 0.53562 0.5 0.78125s0.37378 0.47347 0.59375 0.6875c0.43995 0.42806 0.94291 0.81453 1.5 1.0938 0.27854 0.13961 0.57347 0.24695 0.875 0.34375-0.2562-0.10022-0.48671-0.23627-0.71875-0.375-0.00741-0.0044-0.023866 0.0045-0.03125 0-0.031933-0.0193-0.062293-0.04251-0.09375-0.0625-0.1204-0.0767-0.23102-0.16351-0.34375-0.25-0.10617-0.0808-0.21328-0.16111-0.3125-0.25-0.17793-0.16143-0.34746-0.34539-0.5-0.53125-0.10758-0.13026-0.21839-0.26528-0.3125-0.40625-0.025089-0.03838-0.038446-0.08587-0.0625-0.125-0.064763-0.10303-0.13023-0.20452-0.1875-0.3125-0.10101-0.19471-0.20567-0.4157-0.28125-0.625-0.00796-0.02181-0.023589-0.04055-0.03125-0.0625-0.031825-0.09195-0.035804-0.18683-0.0625-0.28125-0.030332-0.10662-0.070389-0.20303-0.09375-0.3125-0.072879-0.34151-0.125-0.6982-0.125-1.0625v-2-68-2c0-2.7818 2.2182-5 5-5h2 68 2c2.7818 0 5 2.2182 5 5v2 68 2c0 0.3643-0.05212 0.72099-0.125 1.0625-0.04415 0.20689-0.08838 0.39766-0.15625 0.59375-0.0077 0.02195-0.0233 0.04069-0.03125 0.0625-0.06274 0.17374-0.13838 0.36745-0.21875 0.53125-0.04158 0.0828-0.07904 0.16995-0.125 0.25-0.0546 0.09721-0.12677 0.18835-0.1875 0.28125-0.09411 0.14096-0.20492 0.276-0.3125 0.40625-0.14317 0.17445-0.30314 0.347-0.46875 0.5-0.01117 0.0102-0.01998 0.02115-0.03125 0.03125-0.13839 0.12556-0.28509 0.23444-0.4375 0.34375-0.10257 0.07315-0.20432 0.15336-0.3125 0.21875-0.0074 0.0045-0.02384-0.0044-0.03125 0-0.23204 0.13873-0.46255 0.27478-0.71875 0.375 0.30153-0.0968 0.59646-0.20414 0.875-0.34375 0.55709-0.27922 1.0601-0.66569 1.5-1.0938 0.21997-0.21403 0.40937-0.44186 0.59375-0.6875s0.35541-0.50774 0.5-0.78125c0.14012-0.26505 0.27614-0.52473 0.375-0.8125 0.01041-0.03078 0.02133-0.06274 0.03125-0.09375 0.09046-0.27808 0.1388-0.5794 0.1875-0.875 0.0524-0.31805 0.09375-0.63403 0.09375-0.96875v-2-68-2c0-3.324-2.676-6-6-6h-72z" fill="url(#linearGradient3188)" opacity=".35"/>
  <path id="path3615" d="m12 90c-3.324 0-6-2.676-6-6v-2-68-2c0-0.33472 0.04135-0.6507 0.09375-0.96875 0.0487-0.2956 0.09704-0.59692 0.1875-0.875 0.00988-0.03038 0.020892-0.0636 0.03125-0.09375 0.098865-0.28777 0.23488-0.54745 0.375-0.8125 0.14459-0.27351 0.31562-0.53562 0.5-0.78125s0.37378-0.47347 0.59375-0.6875c0.43995-0.42806 0.94291-0.81453 1.5-1.0938 0.27854-0.13961 0.57347-0.24695 0.875-0.34375-0.2562 0.10022-0.48671 0.23627-0.71875 0.375-0.00741 0.0044-0.023866-0.0045-0.03125 0-0.031933 0.0193-0.062293 0.04251-0.09375 0.0625-0.1204 0.0767-0.23102 0.16351-0.34375 0.25-0.10617 0.0808-0.21328 0.16111-0.3125 0.25-0.17793 0.16143-0.34746 0.34539-0.5 0.53125-0.10758 0.13026-0.21839 0.26528-0.3125 0.40625-0.025089 0.03838-0.038446 0.08587-0.0625 0.125-0.064763 0.10303-0.13023 0.20452-0.1875 0.3125-0.10101 0.19471-0.20567 0.4157-0.28125 0.625-0.00796 0.02181-0.023589 0.04055-0.03125 0.0625-0.031825 0.09195-0.035804 0.18683-0.0625 0.28125-0.030332 0.10662-0.070389 0.20303-0.09375 0.3125-0.072879 0.34151-0.125 0.6982-0.125 1.0625v2 68 2c0 2.7818 2.2182 5 5 5h2 68 2c2.7818 0 5-2.2182 5-5v-2-68-2c0-0.3643-0.05212-0.72099-0.125-1.0625-0.04415-0.20689-0.08838-0.39766-0.15625-0.59375-0.0077-0.02195-0.0233-0.04069-0.03125-0.0625-0.06274-0.17374-0.13838-0.36745-0.21875-0.53125-0.04158-0.0828-0.07904-0.16995-0.125-0.25-0.0546-0.09721-0.12677-0.18835-0.1875-0.28125-0.09411-0.14096-0.20492-0.276-0.3125-0.40625-0.14317-0.17445-0.30314-0.347-0.46875-0.5-0.01117-0.0102-0.01998-0.02115-0.03125-0.03125-0.13839-0.12556-0.28509-0.23444-0.4375-0.34375-0.10257-0.07315-0.20432-0.15336-0.3125-0.21875-0.0074-0.0045-0.02384 0.0044-0.03125 0-0.23204-0.13873-0.46255-0.27478-0.71875-0.375 0.30153 0.0968 0.59646 0.20414 0.875 0.34375 0.55709 0.27922 1.0601 0.66569 1.5 1.0938 0.21997 0.21403 0.40937 0.44186 0.59375 0.6875s0.35541 0.50774 0.5 0.78125c0.14012 0.26505 0.27614 0.52473 0.375 0.8125 0.01041 0.03078 0.02133 0.06274 0.03125 0.09375 0.09046 0.27808 0.1388 0.5794 0.1875 0.875 0.0524 0.31805 0.09375 0.63403 0.09375 0.96875v2 68 2c0 3.324-2.676 6-6 6h-72z" fill="url(#radialGradient3619)" opacity=".2"/>
 </g>
 <g id="layer5">
  <rect id="rect3171" x="15" y="15" width="66" height="66" rx="12" ry="12" clip-path="url(#clipPath3613)" fill="url(#linearGradient3613)" filter="url(#filter3794)" opacity=".1" stroke="#fff" stroke-linecap="round" stroke-width=".5"/>
 </g>
 <g id="layer4">
  <path id="path3532" d="m44.441 28.564c-24.587 0.42437-34.088 24.987-34.441 26.562 1.6542 2.1532 15.761 12.156 34.3 12.156 2.6436 0 5.2985-0.19479 7.9067-0.50649l12.606 12.606 11.114-11.143-5.6838-5.6838c7.6456-2.6994 13.502-5.9774 15.757-8.1599-2.7704-4.1477-18.687-26.225-41.559-25.83z" fill="url(#linearGradient4708)"/>
  <path id="path4753" d="m44.438 28.562c-24.587 0.42437-34.085 24.988-34.438 26.562 1.6542 2.1532 15.773 12.156 34.312 12.156 2.6436 0 5.298-0.1883 7.9062-0.5l12.594 12.594 11.125-11.125-5.6875-5.6875c7.6456-2.6994 13.495-5.9738 15.75-8.1562-2.7704-4.1477-18.69-26.239-41.562-25.844zm0.0625 2.9062c10.488-0.18103 19.547 4.8424 26.406 10.562 5.4382 4.5349 8.8504 8.8785 10.906 11.688-2.5196 1.7074-6.7014 4.0354-12.531 6.0938a2.9117 2.9117 0 0 0-1.0938 4.8125l3.625 3.625-7 7-10.531-10.531a2.9117 2.9117 0 0 0-2.4062-0.84375c-2.5143 0.30048-5.0572 0.5-7.5625 0.5-8.7459 0-16.525-2.3663-22.281-5-2.8781-1.3169-5.2595-2.6951-6.9688-3.8438-1.0066-0.67646-1.1417-0.86216-1.625-1.2812 0.30205-0.70349 0.68348-1.5082 1.2188-2.5312 1.241-2.3719 3.121-5.4198 5.6875-8.4062 5.133-5.973 12.826-11.648 24.156-11.844z" opacity=".05"/>
  <path id="path4757" d="m44.438 28.562c-24.587 0.42437-34.085 24.988-34.438 26.562 1.6542 2.1532 15.773 12.156 34.312 12.156 2.6436 0 5.298-0.1883 7.9062-0.5l12.594 12.594 11.125-11.125-5.6875-5.6875c7.6456-2.6994 13.495-5.9738 15.75-8.1562-2.7704-4.1477-18.69-26.239-41.562-25.844zm0.03125 1.875c10.825-0.18686 20.118 4.9644 27.094 10.781 6.0682 5.0603 9.8759 10.098 11.75 12.75-2.4119 1.8292-7.1678 4.5106-13.688 6.8125a1.8751 1.8751 0 0 0-0.6875 3.0938l4.375 4.375-8.5 8.5-11.281-11.281a1.8751 1.8751 0 0 0-1.5312-0.5625c-2.5477 0.30447-5.1329 0.5-7.6875 0.5-8.9323 0-16.856-2.4116-22.719-5.0938-2.9311-1.3411-5.3358-2.7561-7.0938-3.9375-1.3408-0.90105-1.8504-1.4461-2.2812-1.8438 0.052998-0.14008 0.029796-0.095818 0.09375-0.25 0.31977-0.77091 0.77093-1.817 1.4062-3.0312 1.2706-2.4285 3.2133-5.5642 5.8438-8.625 5.2608-6.1217 13.233-11.986 24.906-12.188z" opacity=".08"/>
  <path id="path4761" d="m44.438 28.562c-24.587 0.42437-34.085 24.988-34.438 26.562 1.6542 2.1532 15.773 12.156 34.312 12.156 2.6436 0 5.298-0.1883 7.9062-0.5l12.594 12.594 11.125-11.125-5.6875-5.6875c7.6456-2.6994 13.495-5.9738 15.75-8.1562-2.7704-4.1477-18.69-26.239-41.562-25.844zm0.03125 1.0938c11.077-0.1912 20.532 5.0799 27.594 10.969 6.5273 5.4431 10.677 11.07 12.375 13.531-2.3265 1.9475-7.55 4.8991-14.562 7.375a1.1036 1.1036 0 0 0-0.40625 1.8125l4.9062 4.9062-9.5625 9.5625-11.812-11.812a1.1036 1.1036 0 0 0-0.90625-0.3125c-2.5726 0.30745-5.1901 0.5-7.7812 0.5-9.0711 0-17.09-2.4692-23.031-5.1875-2.9706-1.3591-5.4246-2.763-7.2188-3.9688-1.5619-1.0496-2.3866-1.8434-2.7812-2.25 0.086678-0.25299 0.12216-0.35362 0.3125-0.8125 0.3287-0.79243 0.82241-1.8584 1.4688-3.0938 1.2927-2.4706 3.2283-5.6338 5.9062-8.75 5.356-6.2324 13.572-12.263 25.5-12.469z" opacity=".15"/>
  <path id="path4749" d="m44.312 31.594c-8.4719-0.18479-16.361 6.8696-16.888 15.372-0.9636 8.6494 5.7491 17.426 14.537 18.222 3.4666 0.87833 8.0159-1.2664 10.445-1.6878-0.756 1.8714 1.2696 3.0027 2.2683 4.2106 3.2249 2.9052 6.2185 6.2429 9.3879 9.2582 1.6294 1.094 3.0487-0.53727 4.0593-1.6531 1.5666-1.7061 3.4621-3.1785 4.8157-5.0344 0.77594-2.047-1.5915-3.1648-2.66-4.511-3.0173-2.9701-5.9311-6.0592-8.9962-8.9577-1.0017-0.95446-3.4762 0.85731-1.7606-1.4737 3.5875-7.34 0.87034-17.044-6.2253-21.201-2.6784-1.6671-5.8302-2.5474-8.9829-2.5438zm0 8.8438c5.4778-0.209 9.8242 6.0618 7.5041 11.106-1.8019 4.9082-8.6611 6.723-12.608 3.2622-4.2139-3.1647-3.8504-10.306 0.65707-13.035 1.3082-0.87035 2.8759-1.3372 4.4465-1.334z" opacity=".08"/>
  <path id="path4745" d="m44.312 32.656c-4.059 2e-6 -8.1237 1.53-11.219 4.625-0.15589 0.15589-0.37335 0.3498-0.59375 0.59375-5.6264 6.228-5.4005 15.912 0.59375 21.906 5.3069 5.3069 13.382 5.8938 19.5 2.0938l1.375 1.3438-0.34375 0.34375a1.0532 1.0532 0 0 0-0.3125 0.75v0.03125a1.0532 1.0532 0 0 0 0.3125 0.75l1.125 1.0938v0.03125a1.0532 1.0532 0 0 0 0.0625 0.0625 1.0532 1.0532 0 0 0 0.1875 0.25l0.5 0.46875a1.0532 1.0532 0 0 0 0.09375 0.0625 1.0532 1.0532 0 0 0 0.0625 0.0625h0.03125a1.0532 1.0532 0 0 0 0.0625 0.03125l8.75 8.7812a1.0532 1.0532 0 0 0 1.5 0l5.7188-5.7188a1.0532 1.0532 0 0 0 0-1.5l-9.4688-9.5-1.4062-1.375a1.0532 1.0532 0 0 0-1.4688 0l-0.34375 0.34375-1.375-1.375c3.8024-6.1223 3.2143-14.223-2.0938-19.531-3.0977-3.0977-7.191-4.625-11.25-4.625zm0 6.7188c2.3449 2e-6 4.6776 0.8964 6.4688 2.6875 3.5803 3.5804 3.5803 9.3259 0 12.906-3.5803 3.5803-9.3611 3.6077-12.938 0.03125-3.5784-3.5784-3.5784-9.3591 0-12.938 1.7911-1.7911 4.1239-2.6875 6.4688-2.6875z" opacity=".15"/>
  <path id="path4719" d="m44.312 33.719c-3.7964 2e-6 -7.5762 1.42-10.469 4.3125-0.18077 0.18078-0.39301 0.3749-0.5625 0.5625-5.254 5.8157-5.0418 14.833 0.5625 20.438 5.1698 5.1698 13.187 5.664 18.969 1.5938l2.6562 2.5938-1.0938 1.0938v0.03125l1.375 1.3438-0.0312 0.0625 0.5 0.46875 0.0312-0.03125 9 9 5.7188-5.7188-9.4688-9.5-1.4062-1.375-1.0938 1.0625-2.5938-2.5938c4.0978-5.7847 3.5868-13.851-1.5938-19.031-2.8925-2.8925-6.7036-4.3125-10.5-4.3125zm0 4.5938c2.6157 2e-6 5.2278 1.0091 7.2188 3 3.9819 3.9819 3.9819 10.424 0 14.406-3.9819 3.9819-10.456 4.0131-14.438 0.03125-3.9819-3.9819-3.9819-10.456 0-14.438 1.991-1.991 4.603-3 7.2188-3z" opacity=".3"/>
  <g id="g4734">
   <path id="path3540" d="m55.755 64.701 9.4906 9.4906 5.7302-5.7302-9.4906-9.4906-5.7302 5.7302z" fill="#8fd400"/>
   <path id="path3558" d="m33.292 37.582c-5.254 5.8157-5.0671 14.829 0.53721 20.434 5.1805 5.1805 13.236 5.6895 19.021 1.5917l2.6064 2.6064-1.0943 1.0943 1.3928 1.3927 5.7302-5.7302-1.3927-1.3927-1.0943 1.0943-2.6064-2.6064c4.0978-5.7847 3.5888-13.84-1.5917-19.021-5.785-5.7851-15.186-5.785-20.971 0-0.18077 0.18078-0.36772 0.3496-0.53721 0.53721zm3.8002 2.7258c3.9819-3.9819 10.463-3.9819 14.445 0 3.9819 3.9819 3.962 10.443-0.0199 14.425-3.9819 3.9819-10.443 4.0018-14.425 0.01991-3.9819-3.9819-3.9819-10.463 0-14.445z" fill="#fff"/>
   <path id="path3566" d="m55.755 64.701 9.4906 9.4906 5.7302-5.7302-9.4906-9.4906-5.7302 5.7302z" fill="url(#radialGradient4701)" opacity=".43519"/>
   <path id="path3576" d="m56.385 56.055c-0.97528 1.372-2.1827 2.5981-3.5594 3.5735l2.6449 2.5887-1.0974 1.0974 1.3788 1.3787 5.7401-5.7119-1.4069-1.4069-1.0974 1.0974-2.6027-2.6168z" fill="url(#radialGradient4698)"/>
   <path id="rect3589" d="m54.375 63.342 5.7213-5.7213 0.57441 0.52296-5.8009 5.6534-0.49483-0.45503z" fill="#fff"/>
   <path id="path3593" d="m55.726 64.749 5.7213-5.7213 0.57441 0.52296-5.8009 5.6534-0.49483-0.45503z" fill="url(#radialGradient4694)"/>
   <path id="path3605" d="m44.328 33.488c-7.7319 0-14.013 6.2807-14.013 14.013 0 7.7319 6.2807 14.013 14.013 14.013 7.7319 0 13.984-6.2807 13.984-14.013 0-7.7319-6.2526-14.013-13.984-14.013zm0 2.87c6.1504 0 11.143 4.9922 11.143 11.143 0 6.1504-4.9922 11.143-11.143 11.143-6.1504 0-11.143-4.9922-11.143-11.143 0-6.1504 4.9922-11.143 11.143-11.143z" fill="url(#radialGradient4691)"/>
  </g>
  <path id="path4136" d="m44.406 28.625c-24.586 0.42436-34.054 24.988-34.406 26.562 0.05674 0.07386 0.16428 0.18958 0.25 0.28125 1.5809-4.3163 11.349-25.45 34.156-25.844 22.105-0.38156 37.632 20.093 41.156 25.219 0.14431-0.12528 0.31444-0.25589 0.4375-0.375-2.7704-4.1476-18.722-26.239-41.594-25.844z" opacity=".3"/>
  <path id="path4710" d="m85.562 54.781c-2.5002 2.1715-8.0878 5.2304-15.312 7.7812l0.71875 0.71875c7.2825-2.6464 12.85-5.7635 15.031-7.875-0.092058-0.13782-0.31664-0.44907-0.4375-0.625zm-75.312 0.625c-0.12351 0.33673-0.22451 0.60481-0.25 0.71875 1.6542 2.1532 15.773 12.156 34.312 12.156 2.6436 0 5.298-0.1883 7.9062-0.5l12.594 12.594 11.125-11.125-0.5-0.5-10.625 10.625-12.594-12.594c-2.6082 0.3117-5.2627 0.5-7.9062 0.5-17.903 0-31.649-9.2959-34.062-11.875z" fill="#fff" opacity=".2"/>
 </g>
</svg>
