<?xml version="1.0" encoding="UTF-8"?>
<!-- Created with Inkscape (http://www.inkscape.org/) -->
<svg id="svg2408" width="96" height="96" version="1.0" xmlns="http://www.w3.org/2000/svg" xmlns:cc="http://creativecommons.org/ns#" xmlns:dc="http://purl.org/dc/elements/1.1/" xmlns:rdf="http://www.w3.org/1999/02/22-rdf-syntax-ns#" xmlns:xlink="http://www.w3.org/1999/xlink">
 <defs id="defs2410">
  <linearGradient id="ButtonShadow" x1="45.448" x2="45.448" y1="92.54" y2="7.0165" gradientTransform="scale(1.0059 .99417)" gradientUnits="userSpaceOnUse">
   <stop id="stop3750" offset="0"/>
   <stop id="stop3752" stop-opacity=".58824" offset="1"/>
  </linearGradient>
  <linearGradient id="linearGradient3737">
   <stop id="stop3739" stop-color="#fff" offset="0"/>
   <stop id="stop3741" stop-color="#fff" stop-opacity="0" offset="1"/>
  </linearGradient>
  <filter id="filter3174">
   <feGaussianBlur id="feGaussianBlur3176" stdDeviation="1.71"/>
  </filter>
  <linearGradient id="linearGradient3188" x1="36.357" x2="36.357" y1="6" y2="63.893" gradientUnits="userSpaceOnUse" xlink:href="#linearGradient3737"/>
  <filter id="filter3794" x="-.192" y="-.192" width="1.384" height="1.384">
   <feGaussianBlur id="feGaussianBlur3796" stdDeviation="5.28"/>
  </filter>
  <linearGradient id="linearGradient3613" x1="48" x2="48" y1="20.221" y2="138.66" gradientUnits="userSpaceOnUse" xlink:href="#linearGradient3737"/>
  <radialGradient id="radialGradient3619" cx="48" cy="90.172" r="42" gradientTransform="matrix(1.1573 0 0 .99591 -7.551 .19713)" gradientUnits="userSpaceOnUse" xlink:href="#linearGradient3737"/>
  <clipPath id="clipPath3613">
   <rect id="rect3615" x="6" y="6" width="84" height="84" rx="6" ry="6" fill="#fff"/>
  </clipPath>
  <linearGradient id="linearGradient3617" x1="48" x2="48" y1="90" y2="5.9877" gradientUnits="userSpaceOnUse">
   <stop id="stop3702" stop-color="#e1e1e1" offset="0"/>
   <stop id="stop3704" stop-color="#f5f5f5" offset="1"/>
  </linearGradient>
  <linearGradient id="ButtonShadow-0" x1="45.448" x2="45.448" y1="92.54" y2="7.0165" gradientTransform="matrix(1.0059 0 0 .99417 100 0)" gradientUnits="userSpaceOnUse">
   <stop id="stop3750-8" offset="0"/>
   <stop id="stop3752-5" stop-opacity=".58824" offset="1"/>
  </linearGradient>
  <linearGradient id="linearGradient3780" x1="32.251" x2="32.251" y1="6.1317" y2="90.239" gradientTransform="matrix(1.0238 0 0 1.0119 -1.1429 -98.071)" gradientUnits="userSpaceOnUse" xlink:href="#ButtonShadow-0"/>
  <linearGradient id="linearGradient3721" x1="32.251" x2="32.251" y1="6.1317" y2="90.239" gradientTransform="translate(0,-97)" gradientUnits="userSpaceOnUse" xlink:href="#ButtonShadow-0"/>
  <radialGradient id="radialGradient3785" cx="47.728" cy="47.718" r="30.801" gradientUnits="userSpaceOnUse">
   <stop id="stop3767" stop-color="#fff" offset="0"/>
   <stop id="stop3769" stop-color="#fff" stop-opacity="0" offset="1"/>
  </radialGradient>
  <radialGradient id="radialGradient3803" cx="47.728" cy="47.718" r="30.801" gradientUnits="userSpaceOnUse">
   <stop id="stop3799" stop-color="#ffd80e" offset="0"/>
   <stop id="stop3801" stop-color="#ffee0e" stop-opacity="0" offset="1"/>
  </radialGradient>
  <radialGradient id="radialGradient3811" cx="47.728" cy="47.718" r="30.801" gradientUnits="userSpaceOnUse">
   <stop id="stop3807" stop-color="#7aff06" offset="0"/>
   <stop id="stop3809" stop-color="#6eff06" stop-opacity="0" offset="1"/>
  </radialGradient>
  <radialGradient id="radialGradient3819" cx="47.728" cy="47.718" r="30.801" gradientUnits="userSpaceOnUse">
   <stop id="stop3815" stop-color="#12d8ff" offset="0"/>
   <stop id="stop3817" stop-color="#12d8ff" stop-opacity="0" offset="1"/>
  </radialGradient>
 </defs>
 <metadata id="metadata2413">
  <rdf:RDF>
   <cc:Work rdf:about="">
    <dc:format>image/svg+xml</dc:format>
    <dc:type rdf:resource="http://purl.org/dc/dcmitype/StillImage"/>
    <dc:title/>
   </cc:Work>
  </rdf:RDF>
 </metadata>
 <g id="layer2" display="none">
  <rect id="rect3745" x="5" y="7" width="86" height="85" rx="6" ry="6" fill="url(#ButtonShadow)" filter="url(#filter3174)" opacity=".9"/>
 </g>
 <g id="layer3">
  <path id="path3786" transform="scale(1,-1)" d="m12-95.031c-5.5111 0-10.031 4.5202-10.031 10.031v71c0 5.5111 4.5202 10.031 10.031 10.031h72c5.5111 0 10.031-4.5202 10.031-10.031v-71c0-5.5111-4.5202-10.031-10.031-10.031h-72z" fill="url(#linearGradient3780)" opacity=".08"/>
  <path id="path3778" transform="scale(1,-1)" d="m12-94.031c-4.9716 0-9.0312 4.0596-9.0312 9.0312v71c0 4.9716 4.0596 9.0312 9.0312 9.0312h72c4.9716 0 9.0312-4.0596 9.0312-9.0312v-71c0-4.9716-4.0596-9.0312-9.0312-9.0312h-72z" fill="url(#linearGradient3780)" opacity=".1"/>
  <path id="path3770" transform="scale(1,-1)" d="m12-93c-4.4091 0-8 3.5909-8 8v71c0 4.4091 3.5909 8 8 8h72c4.4091 0 8-3.5909 8-8v-71c0-4.4091-3.5909-8-8-8h-72z" fill="url(#linearGradient3780)" opacity=".2"/>
  <rect id="rect3723" transform="scale(1,-1)" x="5" y="-92" width="86" height="85" rx="7" ry="7" fill="url(#linearGradient3780)" opacity=".3"/>
  <rect id="rect3716" transform="scale(1,-1)" x="6" y="-91" width="84" height="84" rx="6" ry="6" fill="url(#linearGradient3721)" opacity=".45"/>
 </g>
 <g id="layer1">
  <rect id="rect2419" x="6" y="6" width="84" height="84" rx="6" ry="6" fill="url(#linearGradient3617)"/>
  <path id="rect3728" d="m12 6c-3.324 0-6 2.676-6 6v2 68 2c0 0.33472 0.04135 0.6507 0.09375 0.96875 0.0487 0.2956 0.09704 0.59692 0.1875 0.875 0.00988 0.03038 0.020892 0.0636 0.03125 0.09375 0.098865 0.28777 0.23488 0.54745 0.375 0.8125 0.14459 0.27351 0.31562 0.53562 0.5 0.78125s0.37378 0.47347 0.59375 0.6875c0.43995 0.42806 0.94291 0.81453 1.5 1.0938 0.27854 0.13961 0.57347 0.24695 0.875 0.34375-0.2562-0.10022-0.48671-0.23627-0.71875-0.375-0.00741-0.0044-0.023866 0.0045-0.03125 0-0.031933-0.0193-0.062293-0.04251-0.09375-0.0625-0.1204-0.0767-0.23102-0.16351-0.34375-0.25-0.10617-0.0808-0.21328-0.16111-0.3125-0.25-0.17793-0.16143-0.34746-0.34539-0.5-0.53125-0.10758-0.13026-0.21839-0.26528-0.3125-0.40625-0.025089-0.03838-0.038446-0.08587-0.0625-0.125-0.064763-0.10303-0.13023-0.20452-0.1875-0.3125-0.10101-0.19471-0.20567-0.4157-0.28125-0.625-0.00796-0.02181-0.023589-0.04055-0.03125-0.0625-0.031825-0.09195-0.035804-0.18683-0.0625-0.28125-0.030332-0.10662-0.070389-0.20303-0.09375-0.3125-0.072879-0.34151-0.125-0.6982-0.125-1.0625v-2-68-2c0-2.7818 2.2182-5 5-5h2 68 2c2.7818 0 5 2.2182 5 5v2 68 2c0 0.3643-0.05212 0.72099-0.125 1.0625-0.04415 0.20689-0.08838 0.39766-0.15625 0.59375-0.0077 0.02195-0.0233 0.04069-0.03125 0.0625-0.06274 0.17374-0.13838 0.36745-0.21875 0.53125-0.04158 0.0828-0.07904 0.16995-0.125 0.25-0.0546 0.09721-0.12677 0.18835-0.1875 0.28125-0.09411 0.14096-0.20492 0.276-0.3125 0.40625-0.14317 0.17445-0.30314 0.347-0.46875 0.5-0.01117 0.0102-0.01998 0.02115-0.03125 0.03125-0.13839 0.12556-0.28509 0.23444-0.4375 0.34375-0.10257 0.07315-0.20432 0.15336-0.3125 0.21875-0.0074 0.0045-0.02384-0.0044-0.03125 0-0.23204 0.13873-0.46255 0.27478-0.71875 0.375 0.30153-0.0968 0.59646-0.20414 0.875-0.34375 0.55709-0.27922 1.0601-0.66569 1.5-1.0938 0.21997-0.21403 0.40937-0.44186 0.59375-0.6875s0.35541-0.50774 0.5-0.78125c0.14012-0.26505 0.27614-0.52473 0.375-0.8125 0.01041-0.03078 0.02133-0.06274 0.03125-0.09375 0.09046-0.27808 0.1388-0.5794 0.1875-0.875 0.0524-0.31805 0.09375-0.63403 0.09375-0.96875v-2-68-2c0-3.324-2.676-6-6-6h-72z" fill="url(#linearGradient3188)" opacity=".6"/>
  <path id="path3615" d="m12 90c-3.324 0-6-2.676-6-6v-2-68-2c0-0.33472 0.04135-0.6507 0.09375-0.96875 0.0487-0.2956 0.09704-0.59692 0.1875-0.875 0.00988-0.03038 0.020892-0.0636 0.03125-0.09375 0.098865-0.28777 0.23488-0.54745 0.375-0.8125 0.14459-0.27351 0.31562-0.53562 0.5-0.78125s0.37378-0.47347 0.59375-0.6875c0.43995-0.42806 0.94291-0.81453 1.5-1.0938 0.27854-0.13961 0.57347-0.24695 0.875-0.34375-0.2562 0.10022-0.48671 0.23627-0.71875 0.375-0.00741 0.0044-0.023866-0.0045-0.03125 0-0.031933 0.0193-0.062293 0.04251-0.09375 0.0625-0.1204 0.0767-0.23102 0.16351-0.34375 0.25-0.10617 0.0808-0.21328 0.16111-0.3125 0.25-0.17793 0.16143-0.34746 0.34539-0.5 0.53125-0.10758 0.13026-0.21839 0.26528-0.3125 0.40625-0.025089 0.03838-0.038446 0.08587-0.0625 0.125-0.064763 0.10303-0.13023 0.20452-0.1875 0.3125-0.10101 0.19471-0.20567 0.4157-0.28125 0.625-0.00796 0.02181-0.023589 0.04055-0.03125 0.0625-0.031825 0.09195-0.035804 0.18683-0.0625 0.28125-0.030332 0.10662-0.070389 0.20303-0.09375 0.3125-0.072879 0.34151-0.125 0.6982-0.125 1.0625v2 68 2c0 2.7818 2.2182 5 5 5h2 68 2c2.7818 0 5-2.2182 5-5v-2-68-2c0-0.3643-0.05212-0.72099-0.125-1.0625-0.04415-0.20689-0.08838-0.39766-0.15625-0.59375-0.0077-0.02195-0.0233-0.04069-0.03125-0.0625-0.06274-0.17374-0.13838-0.36745-0.21875-0.53125-0.04158-0.0828-0.07904-0.16995-0.125-0.25-0.0546-0.09721-0.12677-0.18835-0.1875-0.28125-0.09411-0.14096-0.20492-0.276-0.3125-0.40625-0.14317-0.17445-0.30314-0.347-0.46875-0.5-0.01117-0.0102-0.01998-0.02115-0.03125-0.03125-0.13839-0.12556-0.28509-0.23444-0.4375-0.34375-0.10257-0.07315-0.20432-0.15336-0.3125-0.21875-0.0074-0.0045-0.02384 0.0044-0.03125 0-0.23204-0.13873-0.46255-0.27478-0.71875-0.375 0.30153 0.0968 0.59646 0.20414 0.875 0.34375 0.55709 0.27922 1.0601 0.66569 1.5 1.0938 0.21997 0.21403 0.40937 0.44186 0.59375 0.6875s0.35541 0.50774 0.5 0.78125c0.14012 0.26505 0.27614 0.52473 0.375 0.8125 0.01041 0.03078 0.02133 0.06274 0.03125 0.09375 0.09046 0.27808 0.1388 0.5794 0.1875 0.875 0.0524 0.31805 0.09375 0.63403 0.09375 0.96875v2 68 2c0 3.324-2.676 6-6 6h-72z" fill="url(#radialGradient3619)" opacity=".4"/>
 </g>
 <g id="layer5">
  <rect id="rect3171" x="15" y="15" width="66" height="66" rx="12" ry="12" clip-path="url(#clipPath3613)" fill="url(#linearGradient3613)" filter="url(#filter3794)" opacity=".1" stroke="#fff" stroke-linecap="round" stroke-width=".5"/>
 </g>
 <g id="layer4">
  <path id="path3731" d="m48 12c-5.0055 0-9.7626 1.029-14.094 2.875l27.094 24.406v-24.844c-4.0352-1.5647-8.4121-2.4375-13-2.4375z" color="#000000" fill="#f93538"/>
  <path id="path3729" d="m65 16.25v41.75h17.594c0.91477-3.1727 1.4062-6.5328 1.4062-10 0-13.734-7.6907-25.68-19-31.75z" color="#000000" fill="#fe7d08"/>
  <path id="path3727" d="m30.031 16.812c-10.772 6.2217-18.031 17.854-18.031 31.188 0 3.7735 0.57952 7.4259 1.6562 10.844l31.719-28.219-15.344-13.812z" color="#000000" fill="#9864ae"/>
  <path id="path3723" d="m31 48.781-15.781 14.031c3.2708 7.2232 8.8269 13.205 15.781 16.938v-30.969z" color="#000000" fill="#1d58a6"/>
  <path id="path3697" d="m35 62v19.562c4.0352 1.5647 8.4121 2.4375 13 2.4375 14.912 0 27.691-9.0791 33.156-22h-46.156z" color="#000000" fill="#35a328"/>
  <rect id="rect3709" x="-97" y="58" width="71" height="4" color="#000000" fill="#f00" opacity=".72727"/>
  <rect id="rect3711" transform="rotate(-90)" x="-60.5" y="-69" width="71" height="4" color="#000000" fill="#f00" opacity=".72727"/>
  <rect id="rect3713" transform="matrix(-.74291 -.66939 .66939 -.74291 0 0)" x="19.744" y="-79.395" width="71" height="4" color="#000000" fill="#f00" opacity=".72727"/>
  <rect id="rect3715" transform="matrix(-.747 .66482 -.66482 -.747 0 0)" x="82.488" y="29.381" width="71" height="4" color="#000000" fill="#f00" opacity=".72727"/>
  <rect id="rect3717" transform="rotate(-90)" x="-114.5" y="-99" width="71" height="4" color="#000000" fill="#f00" opacity=".72727"/>
  <path id="path3733" d="m48-78c-5.0055 0-9.7626 1.029-14.094 2.875l27.094 24.406v-24.844c-4.0352-1.5647-8.4121-2.4375-13-2.4375z" color="#000000" fill="#f00" opacity=".87013"/>
  <path id="path3735" d="m65-73.75v41.75h17.594c0.91477-3.1727 1.4062-6.5328 1.4062-10 0-13.734-7.6907-25.68-19-31.75z" color="#000000" fill="#f00" opacity=".87013"/>
  <path id="path3737" d="m30.031-73.188c-10.772 6.2217-18.031 17.854-18.031 31.188 0 3.7735 0.57952 7.4259 1.6562 10.844l31.719-28.219-15.344-13.812z" color="#000000" fill="#f00" opacity=".87013"/>
  <path id="path3739" d="m48.375-56.656-13.375 11.875v12.781h26v-13.281l-12.625-11.375z" color="#000000" fill="#f00" opacity=".87013"/>
  <path id="path3741" d="m31-41.219-15.781 14.031c3.2708 7.2232 8.8269 13.205 15.781 16.938v-30.969z" color="#000000" fill="#f00" opacity=".87013"/>
  <path id="path3743" d="m35-28v19.562c4.0352 1.5647 8.4121 2.4375 13 2.4375 14.912 0 27.691-9.0791 33.156-22h-46.156z" color="#000000" fill="#f00" opacity=".87013"/>
  <path id="path3795" d="m47.719 16.906c-3.4189 0-6.7084 0.56549-9.7812 1.5938l23.062 20.781v-19.344c-4.0174-1.9201-8.5315-3.0312-13.281-3.0312z" color="#000000" fill="url(#radialGradient3785)" opacity=".8"/>
  <path id="path3793" d="m33.844 20.219c-10.039 5.0758-16.906 15.482-16.906 27.5 0 2.5564 0.31924 5.0312 0.90625 7.4062l27.531-24.5-11.531-10.406z" color="#000000" fill="url(#radialGradient3785)" opacity=".8"/>
  <path id="path3791" d="m65 22.219v35.781h11.75c1.1394-3.2168 1.7812-6.674 1.7812-10.281 0-10.607-5.3704-19.96-13.531-25.5z" color="#000000" fill="url(#radialGradient3803)" opacity=".8"/>
  <path id="path3789" d="m31 48.781-11.812 10.5c2.3895 5.895 6.5393 10.863 11.812 14.281v-24.781z" color="#000000" fill="url(#radialGradient3819)" opacity=".8"/>
  <path id="path3763" d="m35 62v13.75c3.8823 1.7658 8.1757 2.7812 12.719 2.7812 11.857 0 22.165-6.7103 27.312-16.531h-40.031z" color="#000000" fill="url(#radialGradient3811)" opacity=".7"/>
  <path id="path3846" d="m48 12c-5.0055 0-9.7626 1.029-14.094 2.875l27.094 24.406v-24.844c-4.0352-1.5647-8.4121-2.4375-13-2.4375zm0 2.0312c3.8521 0 7.5181 0.72243 10.969 1.9062v18.812l-21.094-19c3.217-1.0147 6.567-1.7188 10.125-1.7188zm17 2.2188v41.75h17.594c0.91477-3.1727 1.4062-6.5328 1.4062-10 0-13.734-7.6907-25.68-19-31.75zm-34.969 0.5625c-10.772 6.2217-18.031 17.854-18.031 31.188 0 3.7735 0.57952 7.4259 1.6562 10.844l31.719-28.219-15.344-13.812zm-0.1875 2.5312 12.5 11.281-27.469 24.438c-0.4835-2.2866-0.84375-4.6316-0.84375-7.0625 0-12.086 6.324-22.631 15.812-28.656zm37.188 0.5625c8.9971 6.1099 14.938 16.382 14.938 28.094 0 2.7553-0.38222 5.4057-1 7.9688h-13.938v-36.062zm-36.031 28.875-15.781 14.031c3.2708 7.2232 8.8269 13.205 15.781 16.938v-30.969zm-2.0312 4.5v22.75c-4.7292-3.2322-8.5813-7.6278-11.188-12.781l11.188-9.9688zm6.0312 8.7188v19.562c4.0352 1.5647 8.4121 2.4375 13 2.4375 14.912 0 27.691-9.0791 33.156-22h-46.156zm2.0312 2.0312h40.812c-5.7308 10.649-16.885 17.938-29.844 17.938-3.8521 0-7.5181-0.72243-10.969-1.9062v-16.031z" color="#000000" opacity=".05"/>
  <path id="path3821" d="m148 12c-5.0055 0-9.7626 1.029-14.094 2.875l27.094 24.406v-24.844c-4.0352-1.5647-8.4121-2.4375-13-2.4375zm17 4.25v41.75h17.594c0.91477-3.1727 1.4062-6.5328 1.4062-10 0-13.734-7.6907-25.68-19-31.75zm-34.969 0.5625c-10.772 6.2217-18.031 17.854-18.031 31.188 0 3.7735 0.57953 7.4259 1.6562 10.844l31.719-28.219-15.344-13.812zm0.96875 31.969-15.781 14.031c3.2708 7.2232 8.8269 13.205 15.781 16.938v-30.969zm4 13.219v19.562c4.0352 1.5647 8.4121 2.4375 13 2.4375 14.912 0 27.691-9.0791 33.156-22h-46.156z" color="#000000" fill="#f93538"/>
  <path id="path3832" d="m34.688 15.562c-0.25864 0.10325-0.52554 0.20351-0.78125 0.3125l27.094 24.406v-1l-26.312-23.719zm10.125 15.562-31.156 27.719c-1.0169-3.2281-1.5957-6.6678-1.6562-10.219-0.001302 0.12609 0 0.2486 0 0.375 0 3.7735 0.57952 7.4259 1.6562 10.844l31.719-28.219-0.5625-0.5zm39.156 17.375c-0.044978 3.2899-0.50435 6.4804-1.375 9.5h-17.594v1h17.594c0.91477-3.1727 1.4062-6.5328 1.4062-10 0-0.16764-0.028966-0.3329-0.03125-0.5zm-3.2812 14.5c-5.6933 12.379-18.169 21-32.688 21-4.5879 0-8.9648-0.87284-13-2.4375v1c4.0352 1.5647 8.4121 2.4375 13 2.4375 14.912 0 27.691-9.0791 33.156-22h-0.46875zm-65.125 0.53125-0.34375 0.28125c3.2708 7.2232 8.8269 13.205 15.781 16.938v-1c-6.7207-3.6071-12.129-9.32-15.438-16.219z" color="#000000" fill="#fff"/>
  <path id="path3837" d="m48 12c-5.0055 0-9.7626 1.029-14.094 2.875l0.78125 0.6875c4.1222-1.6456 8.6025-2.5625 13.312-2.5625 4.5879 0 8.9648 0.87284 13 2.4375v-1c-4.0352-1.5647-8.4121-2.4375-13-2.4375zm17 4.25v1c11.171 5.9958 18.784 17.728 18.969 31.25 0.00228-0.16674 0.03125-0.33275 0.03125-0.5 0-13.734-7.6907-25.68-19-31.75zm-34.969 0.5625c-10.772 6.2217-18.031 17.854-18.031 31.188 0 0.20954-0.00356 0.41623 0 0.625 0.136-13.175 7.3618-24.65 18.031-30.812l14.781 13.312 0.5625-0.5-15.344-13.812zm0.96875 31.969-15.781 14.031c0.10989 0.24269 0.22873 0.4789 0.34375 0.71875l15.438-13.75v-1zm4 13.219v1h45.688c0.15437-0.33564 0.32448-0.65891 0.46875-1h-46.156z" color="#000000" opacity=".3"/>
  <path id="path3842" d="m48 12c-5.0055 0-9.7626 1.029-14.094 2.875l27.094 24.406v-24.844c-4.0352-1.5647-8.4121-2.4375-13-2.4375zm0 1.0938c4.1885 0 8.1852 0.77126 11.906 2.125v21.625l-23.875-21.5c3.751-1.3799 7.7358-2.25 11.969-2.25zm17 3.1562v41.75h17.594c0.91477-3.1727 1.4062-6.5328 1.4062-10 0-13.734-7.6907-25.68-19-31.75zm-34.969 0.5625c-10.772 6.2217-18.031 17.854-18.031 31.188 0 3.7735 0.57952 7.4259 1.6562 10.844l31.719-28.219-15.344-13.812zm-0.09375 1.375 13.812 12.438-29.469 26.188c-0.73227-2.8189-1.1875-5.7643-1.1875-8.8125 0-12.668 6.7585-23.689 16.844-29.812zm36.156 0c10.067 6.1268 16.812 17.156 16.812 29.812 0 3.0873-0.43624 6.0565-1.1875 8.9062h-15.625v-38.719zm-35.094 30.594-15.781 14.031c3.2708 7.2232 8.8269 13.205 15.781 16.938v-30.969zm-1.0938 2.4375v26.562c-5.7485-3.5091-10.409-8.6051-13.344-14.719l13.344-11.844zm5.0938 10.781v19.562c4.0352 1.5647 8.4121 2.4375 13 2.4375 14.912 0 27.691-9.0791 33.156-22h-46.156zm1.0938 1.0938h43.281c-5.6383 11.702-17.506 19.812-31.375 19.812-4.1885 0-8.1852-0.77126-11.906-2.125v-17.688z" color="#000000" opacity=".1"/>
  <g id="text2920" fill="#333">
   <path id="path2939" d="m43.724 49.728h7.8656l-1.952-10.191-5.9135 10.191m-7.5642 7.7651 0.28706-1.5214h1.8803l11.511-19.908h2.4113l3.7893 19.908h2.0956l-0.28706 1.5214h-7.7938l0.28706-1.5214h2.3826l-0.87555-4.7079h-9.0138l-2.7128 4.7079h2.3539l-0.28706 1.5214h-6.0284" style=""/>
  </g>
 </g>
</svg>
