<?xml version="1.0" encoding="UTF-8"?>
<!-- Created with Inkscape (http://www.inkscape.org/) -->
<svg id="svg2408" width="96" height="96" version="1.0" xmlns="http://www.w3.org/2000/svg" xmlns:cc="http://creativecommons.org/ns#" xmlns:dc="http://purl.org/dc/elements/1.1/" xmlns:rdf="http://www.w3.org/1999/02/22-rdf-syntax-ns#" xmlns:xlink="http://www.w3.org/1999/xlink">
 <defs id="defs2410">
  <linearGradient id="linearGradient3806">
   <stop id="stop3808" stop-color="#f7e0c0" offset="0"/>
   <stop id="stop3810" stop-color="#b67e35" offset="1"/>
  </linearGradient>
  <linearGradient id="ButtonShadow" x1="45.448" x2="45.448" y1="92.54" y2="7.0165" gradientTransform="scale(1.0059 .99417)" gradientUnits="userSpaceOnUse">
   <stop id="stop3750" offset="0"/>
   <stop id="stop3752" stop-opacity=".58824" offset="1"/>
  </linearGradient>
  <linearGradient id="linearGradient3737">
   <stop id="stop3739" stop-color="#fff" offset="0"/>
   <stop id="stop3741" stop-color="#fff" stop-opacity="0" offset="1"/>
  </linearGradient>
  <filter id="filter3174">
   <feGaussianBlur id="feGaussianBlur3176" stdDeviation="1.71"/>
  </filter>
  <linearGradient id="linearGradient3188" x1="36.357" x2="36.357" y1="6" y2="63.893" gradientUnits="userSpaceOnUse" xlink:href="#linearGradient3737"/>
  <filter id="filter3794" x="-.192" y="-.192" width="1.384" height="1.384">
   <feGaussianBlur id="feGaussianBlur3796" stdDeviation="5.28"/>
  </filter>
  <linearGradient id="linearGradient3613" x1="48" x2="48" y1="20.221" y2="138.66" gradientUnits="userSpaceOnUse" xlink:href="#linearGradient3737"/>
  <radialGradient id="radialGradient3619" cx="48" cy="90.172" r="42" gradientTransform="matrix(1.1573 0 0 .99591 -7.551 .19713)" gradientUnits="userSpaceOnUse" xlink:href="#linearGradient3737"/>
  <clipPath id="clipPath3613">
   <rect id="rect3615" x="6" y="6" width="84" height="84" rx="6" ry="6" fill="#fff"/>
  </clipPath>
  <linearGradient id="ButtonShadow-0" x1="45.448" x2="45.448" y1="92.54" y2="7.0165" gradientTransform="matrix(1.0059 0 0 .99417 100 0)" gradientUnits="userSpaceOnUse">
   <stop id="stop3750-8" offset="0"/>
   <stop id="stop3752-5" stop-opacity=".58824" offset="1"/>
  </linearGradient>
  <linearGradient id="linearGradient3725" x1="32.251" x2="32.251" y1="6.1317" y2="90.239" gradientTransform="matrix(1.0238 0 0 -1.0119 -1.1429 98.071)" gradientUnits="userSpaceOnUse" xlink:href="#ButtonShadow-0"/>
  <linearGradient id="linearGradient3721" x1="32.251" x2="32.251" y1="6.1317" y2="90.239" gradientTransform="matrix(1,0,0,-1,0,97)" gradientUnits="userSpaceOnUse" xlink:href="#ButtonShadow-0"/>
  <linearGradient id="ButtonColor" x1="58.65" x2="58.65" y1="122" y2="5.4252" gradientTransform="matrix(1.0172 0 0 1.0172 -1.1034 -1.1034)" gradientUnits="userSpaceOnUse">
   <stop id="stop3189" offset="0"/>
   <stop id="stop3191" stop-color="#515151" offset="1"/>
  </linearGradient>
  <linearGradient id="linearGradient3686" x1="48" x2="48" y1="90" y2="5.9877" gradientTransform="translate(-110)" gradientUnits="userSpaceOnUse" xlink:href="#ButtonColor"/>
  <radialGradient id="radialGradient3804" cx="48" cy="48" r="28" gradientTransform="matrix(1.1429 0 0 .85714 -6.8571 3.8571)" gradientUnits="userSpaceOnUse" xlink:href="#linearGradient3806"/>
  <radialGradient id="radialGradient3832" cx="48" cy="48" r="28" gradientTransform="matrix(1.1429 0 0 -.85714 -6.8571 38.143)" gradientUnits="userSpaceOnUse" xlink:href="#linearGradient3806"/>
  <radialGradient id="radialGradient3834" cx="48" cy="48" r="28" gradientTransform="matrix(1.1429 0 0 .85714 -6.8571 57.857)" gradientUnits="userSpaceOnUse" xlink:href="#linearGradient3806"/>
  <linearGradient id="linearGradient3885" x1="48" x2="48" y1="90" y2="5.9877" gradientUnits="userSpaceOnUse" xlink:href="#ButtonColor"/>
  <linearGradient id="linearGradient3968" x1="48.495" x2="48.495" y1="90.435" y2="52.388" gradientUnits="userSpaceOnUse">
   <stop id="stop3923" stop-color="#6b3715" offset="0"/>
   <stop id="stop3925" stop-color="#6b3715" stop-opacity="0" offset="1"/>
  </linearGradient>
  <clipPath id="clipPath3972">
   <path id="path3974" d="m22 24c-1.108 0-2 0.93035-2 2.0938v9.9062h56v-9.9062c0-1.1634-0.892-2.0938-2-2.0938h-52z" fill="#f00"/>
  </clipPath>
  <clipPath id="clipPath4000">
   <path id="path4002" d="m22 72c-1.108 0-2-0.93035-2-2.0938v-9.9062h56v9.9062c0 1.1634-0.892 2.0938-2 2.0938h-52z" fill="#f00"/>
  </clipPath>
 </defs>
 <metadata id="metadata2413">
  <rdf:RDF>
   <cc:Work rdf:about="">
    <dc:format>image/svg+xml</dc:format>
    <dc:type rdf:resource="http://purl.org/dc/dcmitype/StillImage"/>
   </cc:Work>
  </rdf:RDF>
 </metadata>
 <g id="layer2" display="none">
  <path id="rect3745" d="m11 7c-3.324 0-6 2.676-6 6v73c0 3.324 2.676 6 6 6h74c3.324 0 6-2.676 6-6v-73c0-3.324-2.676-6-6-6h-74zm-1 4h6v4h-6v-4zm70 0h6v4h-6v-4zm-70 8h6v4h-6v-4zm70 0h6v4h-6v-4zm-70 8h6v4h-6v-4zm70 0h6v4h-6v-4zm-70 8h6v4h-6v-4zm70 0h6v4h-6v-4zm-70 8h6v4h-6v-4zm70 0h6v4h-6v-4zm-70 8h6v4h-6v-4zm70 0h6v4h-6v-4zm-70 8h6v4h-6v-4zm70 0h6v4h-6v-4zm-70 8h6v4h-6v-4zm70 0h6v4h-6v-4zm-70 8h6v4h-6v-4zm70 0h6v4h-6v-4zm-70 8h6v4h-6v-4zm70 0h6v4h-6v-4z" fill="url(#ButtonShadow)" filter="url(#filter3174)" opacity=".9"/>
 </g>
 <g id="layer3">
  <path id="path3717" d="m12 4c-5.5087 0-10 4.4913-10 10v71c0 5.5087 4.4913 10 10 10h72c5.5087 0 10-4.4913 10-10v-71c0-5.5087-4.4913-10-10-10h-72z" fill="url(#linearGradient3725)" opacity=".08"/>
  <path id="path3709" d="m12 5.0312c-4.9464 0-8.9688 4.0223-8.9688 8.9688v71c0 4.9464 4.0223 8.9688 8.9688 8.9688h72c4.9464 0 8.9688-4.0223 8.9688-8.9688v-71c0-4.9464-4.0223-8.9688-8.9688-8.9688h-72zm-0.03125 7.9375h2.0625v0.0625h-2.0625v-0.0625zm70 0h2.0625v0.0625h-2.0625v-0.0625zm-70 8h2.0625v0.0625h-2.0625v-0.0625zm70 0h2.0625v0.0625h-2.0625v-0.0625zm-70 8h2.0625v0.0625h-2.0625v-0.0625zm70 0h2.0625v0.0625h-2.0625v-0.0625zm-70 8h2.0625v0.0625h-2.0625v-0.0625zm70 0h2.0625v0.0625h-2.0625v-0.0625zm-70 8h2.0625v0.0625h-2.0625v-0.0625zm70 0h2.0625v0.0625h-2.0625v-0.0625zm-70 8h2.0625v0.0625h-2.0625v-0.0625zm70 0h2.0625v0.0625h-2.0625v-0.0625zm-70 8h2.0625v0.0625h-2.0625v-0.0625zm70 0h2.0625v0.0625h-2.0625v-0.0625zm-70 8h2.0625v0.0625h-2.0625v-0.0625zm70 0h2.0625v0.0625h-2.0625v-0.0625zm-70 8h2.0625v0.0625h-2.0625v-0.0625zm70 0h2.0625v0.0625h-2.0625v-0.0625zm-70 8h2.0625v0.0625h-2.0625v-0.0625zm70 0h2.0625v0.0625h-2.0625v-0.0625z" fill="url(#linearGradient3725)" opacity=".1"/>
  <path id="path3700" d="m12 6c-4.4202 0-8 3.5798-8 8v71c0 4.4202 3.5798 8 8 8h72c4.4202 0 8-3.5798 8-8v-71c0-4.4202-3.5798-8-8-8h-72zm-1 6h4v2h-4v-2zm70 0h4v2h-4v-2zm-70 8h4v2h-4v-2zm70 0h4v2h-4v-2zm-70 8h4v2h-4v-2zm70 0h4v2h-4v-2zm-70 8h4v2h-4v-2zm70 0h4v2h-4v-2zm-70 8h4v2h-4v-2zm70 0h4v2h-4v-2zm-70 8h4v2h-4v-2zm70 0h4v2h-4v-2zm-70 8h4v2h-4v-2zm70 0h4v2h-4v-2zm-70 8h4v2h-4v-2zm70 0h4v2h-4v-2zm-70 8h4v2h-4v-2zm70 0h4v2h-4v-2zm-70 8h4v2h-4v-2zm70 0h4v2h-4v-2z" fill="url(#linearGradient3725)" opacity=".2"/>
  <path id="rect3723" d="m12 7c-3.878 0-7 3.122-7 7v71c0 3.878 3.122 7 7 7h72c3.878 0 7-3.122 7-7v-71c0-3.878-3.122-7-7-7h-72zm-2 4h6v4h-6v-4zm70 0h6v4h-6v-4zm-70 8h6v4h-6v-4zm70 0h6v4h-6v-4zm-70 8h6v4h-6v-4zm70 0h6v4h-6v-4zm-70 8h6v4h-6v-4zm70 0h6v4h-6v-4zm-70 8h6v4h-6v-4zm70 0h6v4h-6v-4zm-70 8h6v4h-6v-4zm70 0h6v4h-6v-4zm-70 8h6v4h-6v-4zm70 0h6v4h-6v-4zm-70 8h6v4h-6v-4zm70 0h6v4h-6v-4zm-70 8h6v4h-6v-4zm70 0h6v4h-6v-4zm-70 8h6v4h-6v-4zm70 0h6v4h-6v-4z" fill="url(#linearGradient3725)" opacity=".3"/>
  <path id="rect3716" d="m12 7c-3.324 0-6 2.676-6 6v72c0 3.324 2.676 6 6 6h72c3.324 0 6-2.676 6-6v-72c0-3.324-2.676-6-6-6h-72zm-2 4h6v4h-6v-4zm70 0h6v4h-6v-4zm-70 8h6v4h-6v-4zm70 0h6v4h-6v-4zm-70 8h6v4h-6v-4zm70 0h6v4h-6v-4zm-70 8h6v4h-6v-4zm70 0h6v4h-6v-4zm-70 8h6v4h-6v-4zm70 0h6v4h-6v-4zm-70 8h6v4h-6v-4zm70 0h6v4h-6v-4zm-70 8h6v4h-6v-4zm70 0h6v4h-6v-4zm-70 8h6v4h-6v-4zm70 0h6v4h-6v-4zm-70 8h6v4h-6v-4zm70 0h6v4h-6v-4zm-70 8h6v4h-6v-4zm70 0h6v4h-6v-4z" fill="url(#linearGradient3721)" opacity=".45"/>
 </g>
 <g id="layer1">
  <path id="rect2419" d="m12 6c-3.324 0-6 2.676-6 6v72c0 3.324 2.676 6 6 6h72c3.324 0 6-2.676 6-6v-72c0-3.324-2.676-6-6-6h-72zm-2 4h6v4h-6v-4zm70 0h6v4h-6v-4zm-70 8h6v4h-6v-4zm70 0h6v4h-6v-4zm-70 8h6v4h-6v-4zm70 0h6v4h-6v-4zm-70 8h6v4h-6v-4zm70 0h6v4h-6v-4zm-70 8h6v4h-6v-4zm70 0h6v4h-6v-4zm-70 8h6v4h-6v-4zm70 0h6v4h-6v-4zm-70 8h6v4h-6v-4zm70 0h6v4h-6v-4zm-70 8h6v4h-6v-4zm70 0h6v4h-6v-4zm-70 8h6v4h-6v-4zm70 0h6v4h-6v-4zm-70 8h6v4h-6v-4zm70 0h6v4h-6v-4z" fill="url(#linearGradient3885)"/>
  <rect id="rect3684" x="-104" y="6" width="84" height="84" rx="6" ry="6" fill="url(#linearGradient3686)"/>
  <path id="path3747" d="m-100 10v4h6v-4h-6zm70 0v4h6v-4h-6zm-70 8v4h6v-4h-6zm70 0v4h6v-4h-6zm-70 8v4h6v-4h-6zm70 0v4h6v-4h-6zm-70 8v4h6v-4h-6zm70 0v4h6v-4h-6zm-70 8v4h6v-4h-6zm70 0v4h6v-4h-6zm-70 8v4h6v-4h-6zm70 0v4h6v-4h-6zm-70 8v4h6v-4h-6zm70 0v4h6v-4h-6zm-70 8v4h6v-4h-6zm70 0v4h6v-4h-6zm-70 8v4h6v-4h-6zm70 0v4h6v-4h-6zm-70 8v4h6v-4h-6zm70 0v4h6v-4h-6z" fill="#f00" opacity=".58874"/>
 </g>
 <g id="layer4">
  <rect id="rect3796" x="20" y="24" width="56" height="48" rx="2" ry="2.1" fill="url(#radialGradient3804)"/>
  <path id="rect3822" d="m22 78c-1.108 0-2 0.93035-2 2.0938v9.9062h56v-9.9062c0-1.1634-0.892-2.0938-2-2.0938h-52z" fill="url(#radialGradient3834)"/>
  <path id="path3830" d="m22 18c-1.108 0-2-0.93035-2-2.0938v-9.9062h56v9.9062c0 1.1634-0.892 2.0938-2 2.0938h-52z" fill="url(#radialGradient3832)"/>
  <path id="path3355" transform="matrix(2.0874 0 0 2.0874 -104.6 -105.19)" d="m82.204 73.388a9.1021 9.1021 0 1 1-18.204 0 9.1021 9.1021 0 1 1 18.204 0z" fill="#915b22" fill-rule="evenodd"/>
  <path id="path3357" transform="matrix(1.8677 0 0 1.8677 -88.532 -89.065)" d="m82.204 73.388a9.1021 9.1021 0 1 1-18.204 0 9.1021 9.1021 0 1 1 18.204 0z" fill="#bc8946" fill-rule="evenodd"/>
  <path id="path3359" transform="matrix(1.648 0 0 1.648 -72.47 -72.94)" d="m82.204 73.388a9.1021 9.1021 0 1 1-18.204 0 9.1021 9.1021 0 1 1 18.204 0z" fill="#d5c5aa" fill-rule="evenodd" opacity=".6"/>
  <path id="path3381" transform="matrix(.93434 0 0 .98915 -11.272 -15.312)" d="m64.562 48.844a0.14528 0.14528 0 0 0-0.03125 0.03125 0.14528 0.14528 0 0 0-0.03125 0.03125 0.14528 0.14528 0 0 0-0.03125 0.03125 0.14528 0.14528 0 0 0-0.03125 0.03125 0.14528 0.14528 0 0 0 0 0.03125v7.1562 7.125a0.14528 0.14528 0 0 0 0.03125 0.0625 0.14528 0.14528 0 0 0 0 0.03125 0.14528 0.14528 0 0 0 0.03125 0.03125 0.14528 0.14528 0 0 0 0.03125 0 0.14528 0.14528 0 0 0 0.0625 0.03125 0.14528 0.14528 0 0 0 0.03125 0 0.14528 0.14528 0 0 0 0.03125-0.03125l0.84375-0.46875c2.0325-1.1367 4.8509-2.7671 7.1562-4.125 1.1527-0.67897 2.1677-1.3001 2.9062-1.75 0.36927-0.22493 0.66844-0.39842 0.875-0.53125 0.10328-0.06641 0.19282-0.11572 0.25-0.15625 0.02859-0.02027 0.04307-0.0462 0.0625-0.0625 0.0097-0.0082 0.02015-0.01907 0.03125-0.03125 0.0056-0.0061 0.02316 0.01299 0.03125 0 4e-3 -0.0065-2.27e-4 -0.03066 0-0.03125 2.27e-4 -5.89e-4 0.03124-0.06204 0.03125-0.0625 0.0019-0.10025-0.04772-0.16292-0.09375-0.25-0.04603-0.08708-0.10876-0.196-0.1875-0.3125-0.15748-0.23301-0.37618-0.50341-0.625-0.8125-0.49765-0.61818-1.1214-1.3075-1.625-1.7812-2.3097-2.1728-5.3757-3.6608-8.2812-3.9688-0.40654-0.04308-0.88113-0.12214-1.0625-0.15625l-0.34375-0.0625a0.14528 0.14528 0 0 0-0.03125 0 0.14528 0.14528 0 0 0-0.03125 0z" fill="#f2ece2" opacity=".6"/>
  <path id="path3361" d="m59.5 48c0 6.348-5.152 11.5-11.5 11.5s-11.5-5.152-11.5-11.5 5.152-11.5 11.5-11.5 11.5 5.152 11.5 11.5z" fill="none" opacity=".5" stroke="#2b1100" stroke-linejoin="round"/>
  <path id="path3363" d="m48 24v48h1v-48h-1z" fill="#2b1100" fill-rule="evenodd" opacity=".5"/>
  <path id="path3369" d="m76 47h-56v1h56v-1z" fill="#2b1100" fill-rule="evenodd" opacity=".5"/>
  <path id="path3374" d="m60.937 40.312-13.312 7.6875 0.375 0.65625 13.359-7.7109c-0.1498-0.20387-0.29779-0.41342-0.42188-0.63281z" fill="#2b1100" fill-rule="evenodd" opacity=".5"/>
  <g id="text3865" transform="matrix(1.6856 0 0 1.6856 -33.044 -39.962)" fill="#20130b">
   <path id="path3870" d="m51.307 54.001c-7e-6 0.936-0.30801 1.668-0.924 2.196-0.584 0.488-1.352 0.732-2.304 0.732-0.936-1e-6 -1.696-0.244-2.28-0.732-0.632-0.52-0.948-1.236-0.948-2.148-1e-6 -0.152 8e-3 -0.304 0.024-0.456h2.208c-0.024 0.128-0.036 0.252-0.036 0.372-3e-6 0.328 0.092 0.592 0.276 0.792 0.184 0.2 0.44 0.3 0.768 0.3 0.312 1e-6 0.564-0.108 0.756-0.324 0.192-0.224 0.288-0.492 0.288-0.804-5e-6 -0.336-0.108-0.604-0.324-0.804-0.208-0.2-0.48-0.296-0.816-0.288v-1.62c0.312 8e-3 0.572-0.07999 0.78-0.264 0.216-0.18399 0.324-0.42799 0.324-0.732-5e-6 -0.29599-0.096-0.53599-0.288-0.72-0.192-0.18399-0.436-0.27599-0.732-0.276-0.296 7e-6 -0.536 0.08801-0.72 0.264-0.176 0.16801-0.272 0.39601-0.288 0.684h-2.028c-1e-6 -0.83999 0.296-1.512 0.888-2.016 0.56-0.47999 1.268-0.71999 2.124-0.72 0.84 9e-6 1.548 0.23601 2.124 0.708 0.62399 0.49601 0.93599 1.156 0.936 1.98-7e-6 0.832-0.30401 1.444-0.912 1.836 0.73599 0.408 1.104 1.088 1.104 2.04" fill="#20130b"/>
  </g>
  <g id="g3946" transform="translate(0,54)" clip-path="url(#clipPath3972)">
   <path id="path3948" transform="matrix(2.0874 0 0 2.0874 -104.6 -105.19)" d="m82.204 73.388c0 5.027-4.0752 9.1021-9.1021 9.1021s-9.1021-4.0752-9.1021-9.1021 4.0752-9.1021 9.1021-9.1021 9.1021 4.0752 9.1021 9.1021z" fill="#915b22" fill-rule="evenodd"/>
   <path id="path3950" transform="matrix(1.8677 0 0 1.8677 -88.532 -89.065)" d="m82.204 73.388c0 5.027-4.0752 9.1021-9.1021 9.1021s-9.1021-4.0752-9.1021-9.1021 4.0752-9.1021 9.1021-9.1021 9.1021 4.0752 9.1021 9.1021z" fill="#bc8946" fill-rule="evenodd"/>
   <path id="path3952" transform="matrix(1.648 0 0 1.648 -72.47 -72.94)" d="m82.204 73.388c0 5.027-4.0752 9.1021-9.1021 9.1021s-9.1021-4.0752-9.1021-9.1021 4.0752-9.1021 9.1021-9.1021 9.1021 4.0752 9.1021 9.1021z" fill="#d5c5aa" fill-rule="evenodd" opacity=".6"/>
   <path id="path3954" transform="matrix(.93434 0 0 .98915 -11.272 -15.312)" d="m64.562 48.844a0.14528 0.14528 0 0 0-0.03125 0.03125 0.14528 0.14528 0 0 0-0.03125 0.03125 0.14528 0.14528 0 0 0-0.03125 0.03125 0.14528 0.14528 0 0 0-0.03125 0.03125 0.14528 0.14528 0 0 0 0 0.03125v7.1562 7.125a0.14528 0.14528 0 0 0 0.03125 0.0625 0.14528 0.14528 0 0 0 0 0.03125 0.14528 0.14528 0 0 0 0.03125 0.03125 0.14528 0.14528 0 0 0 0.03125 0 0.14528 0.14528 0 0 0 0.0625 0.03125 0.14528 0.14528 0 0 0 0.03125 0 0.14528 0.14528 0 0 0 0.03125-0.03125l0.84375-0.46875c2.0325-1.1367 4.8509-2.7671 7.1562-4.125 1.1527-0.67897 2.1677-1.3001 2.9062-1.75 0.36927-0.22493 0.66844-0.39842 0.875-0.53125 0.10328-0.06641 0.19282-0.11572 0.25-0.15625 0.02859-0.02027 0.04307-0.0462 0.0625-0.0625 0.0097-0.0082 0.02015-0.01907 0.03125-0.03125 0.0056-0.0061 0.02316 0.01299 0.03125 0 4e-3 -0.0065-2.27e-4 -0.03066 0-0.03125 2.27e-4 -5.89e-4 0.03124-0.06204 0.03125-0.0625 0.0019-0.10025-0.04772-0.16292-0.09375-0.25-0.04603-0.08708-0.10876-0.196-0.1875-0.3125-0.15748-0.23301-0.37618-0.50341-0.625-0.8125-0.49765-0.61818-1.1214-1.3075-1.625-1.7812-2.3097-2.1728-5.3757-3.6608-8.2812-3.9688-0.40654-0.04308-0.88113-0.12214-1.0625-0.15625l-0.34375-0.0625a0.14528 0.14528 0 0 0-0.03125 0 0.14528 0.14528 0 0 0-0.03125 0z" fill="#f2ece2" opacity=".6"/>
   <path id="path3956" d="m59.5 48c0 6.348-5.152 11.5-11.5 11.5s-11.5-5.152-11.5-11.5 5.152-11.5 11.5-11.5 11.5 5.152 11.5 11.5z" fill="none" opacity=".5" stroke="#2b1100" stroke-linejoin="round"/>
   <path id="path3958" d="m48 24v48h1v-48h-1z" fill="#2b1100" fill-rule="evenodd" opacity=".5"/>
   <path id="path3960" d="m76 47h-56v1h56v-1z" fill="#2b1100" fill-rule="evenodd" opacity=".5"/>
   <path id="path3962" d="m60.937 40.312-13.312 7.6875 0.375 0.65625 13.359-7.7109c-0.1498-0.20387-0.29779-0.41342-0.42188-0.63281z" fill="#2b1100" fill-rule="evenodd" opacity=".5"/>
   <g id="g3964" transform="matrix(1.6856 0 0 1.6856 -33.044 -39.962)">
    <path id="path3966" d="m51.307 54.001c-7e-6 0.936-0.30801 1.668-0.924 2.196-0.584 0.488-1.352 0.732-2.304 0.732-0.936-1e-6 -1.696-0.244-2.28-0.732-0.632-0.52-0.948-1.236-0.948-2.148-1e-6 -0.152 8e-3 -0.304 0.024-0.456h2.208c-0.024 0.128-0.036 0.252-0.036 0.372-3e-6 0.328 0.092 0.592 0.276 0.792 0.184 0.2 0.44 0.3 0.768 0.3 0.312 1e-6 0.564-0.108 0.756-0.324 0.192-0.224 0.288-0.492 0.288-0.804-5e-6 -0.336-0.108-0.604-0.324-0.804-0.208-0.2-0.48-0.296-0.816-0.288v-1.62c0.312 8e-3 0.572-0.07999 0.78-0.264 0.216-0.18399 0.324-0.42799 0.324-0.732-5e-6 -0.29599-0.096-0.53599-0.288-0.72-0.192-0.18399-0.436-0.27599-0.732-0.276-0.296 7e-6 -0.536 0.08801-0.72 0.264-0.176 0.16801-0.272 0.39601-0.288 0.684h-2.028c-1e-6 -0.83999 0.296-1.512 0.888-2.016 0.56-0.47999 1.268-0.71999 2.124-0.72 0.84 9e-6 1.548 0.23601 2.124 0.708 0.62399 0.49601 0.93599 1.156 0.936 1.98-7e-6 0.832-0.30401 1.444-0.912 1.836 0.73599 0.408 1.104 1.088 1.104 2.04"/>
   </g>
  </g>
  <path id="rect3912" d="m20 48v21.906c0 1.1634 0.892 2.0938 2 2.0938h52c1.108 0 2-0.93035 2-2.0938v-21.906h-56zm2 30c-1.108 0-2 0.93035-2 2.0938v9.9062h56v-9.9062c0-1.1634-0.892-2.0938-2-2.0938h-52z" fill="url(#linearGradient3968)" opacity=".6"/>
  <g id="g3976" transform="translate(0,-54)" clip-path="url(#clipPath4000)">
   <path id="path3978" transform="matrix(2.0874 0 0 2.0874 -104.6 -105.19)" d="m82.204 73.388c0 5.027-4.0752 9.1021-9.1021 9.1021s-9.1021-4.0752-9.1021-9.1021 4.0752-9.1021 9.1021-9.1021 9.1021 4.0752 9.1021 9.1021z" fill="#915b22" fill-rule="evenodd"/>
   <path id="path3980" transform="matrix(1.8677 0 0 1.8677 -88.532 -89.065)" d="m82.204 73.388c0 5.027-4.0752 9.1021-9.1021 9.1021s-9.1021-4.0752-9.1021-9.1021 4.0752-9.1021 9.1021-9.1021 9.1021 4.0752 9.1021 9.1021z" fill="#bc8946" fill-rule="evenodd"/>
   <path id="path3982" transform="matrix(1.648 0 0 1.648 -72.47 -72.94)" d="m82.204 73.388c0 5.027-4.0752 9.1021-9.1021 9.1021s-9.1021-4.0752-9.1021-9.1021 4.0752-9.1021 9.1021-9.1021 9.1021 4.0752 9.1021 9.1021z" fill="#d5c5aa" fill-rule="evenodd" opacity=".6"/>
   <path id="path3984" transform="matrix(.93434 0 0 .98915 -11.272 -15.312)" d="m64.562 48.844a0.14528 0.14528 0 0 0-0.03125 0.03125 0.14528 0.14528 0 0 0-0.03125 0.03125 0.14528 0.14528 0 0 0-0.03125 0.03125 0.14528 0.14528 0 0 0-0.03125 0.03125 0.14528 0.14528 0 0 0 0 0.03125v7.1562 7.125a0.14528 0.14528 0 0 0 0.03125 0.0625 0.14528 0.14528 0 0 0 0 0.03125 0.14528 0.14528 0 0 0 0.03125 0.03125 0.14528 0.14528 0 0 0 0.03125 0 0.14528 0.14528 0 0 0 0.0625 0.03125 0.14528 0.14528 0 0 0 0.03125 0 0.14528 0.14528 0 0 0 0.03125-0.03125l0.84375-0.46875c2.0325-1.1367 4.8509-2.7671 7.1562-4.125 1.1527-0.67897 2.1677-1.3001 2.9062-1.75 0.36927-0.22493 0.66844-0.39842 0.875-0.53125 0.10328-0.06641 0.19282-0.11572 0.25-0.15625 0.02859-0.02027 0.04307-0.0462 0.0625-0.0625 0.0097-0.0082 0.02015-0.01907 0.03125-0.03125 0.0056-0.0061 0.02316 0.01299 0.03125 0 4e-3 -0.0065-2.27e-4 -0.03066 0-0.03125 2.27e-4 -5.89e-4 0.03124-0.06204 0.03125-0.0625 0.0019-0.10025-0.04772-0.16292-0.09375-0.25-0.04603-0.08708-0.10876-0.196-0.1875-0.3125-0.15748-0.23301-0.37618-0.50341-0.625-0.8125-0.49765-0.61818-1.1214-1.3075-1.625-1.7812-2.3097-2.1728-5.3757-3.6608-8.2812-3.9688-0.40654-0.04308-0.88113-0.12214-1.0625-0.15625l-0.34375-0.0625a0.14528 0.14528 0 0 0-0.03125 0 0.14528 0.14528 0 0 0-0.03125 0z" fill="#f2ece2" opacity=".6"/>
   <path id="path3986" d="m59.5 48c0 6.348-5.152 11.5-11.5 11.5s-11.5-5.152-11.5-11.5 5.152-11.5 11.5-11.5 11.5 5.152 11.5 11.5z" fill="none" opacity=".5" stroke="#2b1100" stroke-linejoin="round"/>
   <path id="path3988" d="m48 24v48h1v-48h-1z" fill="#2b1100" fill-rule="evenodd" opacity=".5"/>
   <path id="path3990" d="m76 47h-56v1h56v-1z" fill="#2b1100" fill-rule="evenodd" opacity=".5"/>
   <path id="path3992" d="m60.937 40.312-13.312 7.6875 0.375 0.65625 13.359-7.7109c-0.1498-0.20387-0.29779-0.41342-0.42188-0.63281z" fill="#2b1100" fill-rule="evenodd" opacity=".5"/>
   <g id="g3994" transform="matrix(1.6856 0 0 1.6856 -33.044 -39.962)">
    <path id="path3996" d="m51.307 54.001c-7e-6 0.936-0.30801 1.668-0.924 2.196-0.584 0.488-1.352 0.732-2.304 0.732-0.936-1e-6 -1.696-0.244-2.28-0.732-0.632-0.52-0.948-1.236-0.948-2.148-1e-6 -0.152 8e-3 -0.304 0.024-0.456h2.208c-0.024 0.128-0.036 0.252-0.036 0.372-3e-6 0.328 0.092 0.592 0.276 0.792 0.184 0.2 0.44 0.3 0.768 0.3 0.312 1e-6 0.564-0.108 0.756-0.324 0.192-0.224 0.288-0.492 0.288-0.804-5e-6 -0.336-0.108-0.604-0.324-0.804-0.208-0.2-0.48-0.296-0.816-0.288v-1.62c0.312 8e-3 0.572-0.07999 0.78-0.264 0.216-0.18399 0.324-0.42799 0.324-0.732-5e-6 -0.29599-0.096-0.53599-0.288-0.72-0.192-0.18399-0.436-0.27599-0.732-0.276-0.296 7e-6 -0.536 0.08801-0.72 0.264-0.176 0.16801-0.272 0.39601-0.288 0.684h-2.028c-1e-6 -0.83999 0.296-1.512 0.888-2.016 0.56-0.47999 1.268-0.71999 2.124-0.72 0.84 9e-6 1.548 0.23601 2.124 0.708 0.62399 0.49601 0.93599 1.156 0.936 1.98-7e-6 0.832-0.30401 1.444-0.912 1.836 0.73599 0.408 1.104 1.088 1.104 2.04"/>
   </g>
  </g>
  <g id="g2941" transform="translate(80)">
   <path id="rect3770" d="m22 24c-1.108 0-2 0.93035-2 2.0938v43.812c0 1.1634 0.892 2.0938 2 2.0938h52c1.108 0 2-0.93035 2-2.0938v-43.812c0-1.1634-0.892-2.0938-2-2.0938h-52zm0.03125 2.0312h51.938c-0.0018 0.0093 0 0.0198 0 0.0625v43.812c0 0.0427-0.0018 0.05324 0 0.0625h-51.938c0.0018-0.0093 0-0.0198 0-0.0625v-43.812c0-0.0427 0.0018-0.05324 0-0.0625z" opacity=".1"/>
   <path id="rect3763" d="m22 24c-1.108 0-2 0.93035-2 2.0938v43.812c0 1.1634 0.892 2.0938 2 2.0938h52c1.108 0 2-0.93035 2-2.0938v-43.812c0-1.1634-0.892-2.0938-2-2.0938h-52zm0 0.90625h52c0.60063 0 1.0938 0.48739 1.0938 1.1875v43.812c0 0.70011-0.49312 1.1875-1.0938 1.1875h-52c-0.60063 0-1.0938-0.48739-1.0938-1.1875v-43.812c0-0.70011 0.49312-1.1875 1.0938-1.1875z" opacity=".2"/>
   <path id="path3777" d="m20 6v9.9062c0 1.1634 0.892 2.0938 2 2.0938h52c1.108 0 2-0.93035 2-2.0938v-9.9062h-2.0312v9.9062c0 0.0427-0.0018 0.05324 0 0.0625h-51.938c0.0018-0.0093 0-0.0198 0-0.0625v-9.9062h-2.0312z" opacity=".1"/>
   <path id="path3779" d="m20 6v9.9062c0 1.1634 0.892 2.0938 2 2.0938h52c1.108 0 2-0.93035 2-2.0938v-9.9062h-0.90625v9.9062c0 0.70011-0.49312 1.1875-1.0938 1.1875h-52c-0.60063 0-1.0938-0.48739-1.0938-1.1875v-9.9062h-0.90625z" opacity=".2"/>
   <path id="path3787" d="m20 90v-9.9062c0-1.1634 0.892-2.0938 2-2.0938h52c1.108 0 2 0.93035 2 2.0938v9.9062h-2.0312v-9.9062c0-0.0427-0.0018-0.05324 0-0.0625h-51.938c0.0018 0.0093 0 0.0198 0 0.0625v9.9062h-2.0312z" opacity=".1"/>
   <path id="path3789" d="m20 90v-9.9062c0-1.1634 0.892-2.0938 2-2.0938h52c1.108 0 2 0.93035 2 2.0938v9.9062h-0.90625v-9.9062c0-0.70011-0.49312-1.1875-1.0938-1.1875h-52c-0.60063 0-1.0938 0.48739-1.0938 1.1875v9.9062h-0.90625z" opacity=".2"/>
  </g>
 </g>
 <g id="layer5">
  <rect id="rect3171" x="15" y="15" width="66" height="66" rx="12" ry="12" clip-path="url(#clipPath3613)" fill="url(#linearGradient3613)" filter="url(#filter3794)" opacity=".1" stroke="#fff" stroke-linecap="round" stroke-width=".5"/>
  <path id="rect3728" d="m12 6c-3.324 0-6 2.676-6 6v2 68 2c0 0.33472 0.04135 0.6507 0.09375 0.96875 0.0487 0.2956 0.09704 0.59692 0.1875 0.875 0.00988 0.03038 0.020892 0.0636 0.03125 0.09375 0.098865 0.28777 0.23488 0.54745 0.375 0.8125 0.14459 0.27351 0.31562 0.53562 0.5 0.78125s0.37378 0.47347 0.59375 0.6875c0.43995 0.42806 0.94291 0.81453 1.5 1.0938 0.27854 0.13961 0.57347 0.24695 0.875 0.34375-0.2562-0.10022-0.48671-0.23627-0.71875-0.375-0.00741-0.0044-0.023866 0.0045-0.03125 0-0.031933-0.0193-0.062293-0.04251-0.09375-0.0625-0.1204-0.0767-0.23102-0.16351-0.34375-0.25-0.10617-0.0808-0.21328-0.16111-0.3125-0.25-0.17793-0.16143-0.34746-0.34539-0.5-0.53125-0.10758-0.13026-0.21839-0.26528-0.3125-0.40625-0.025089-0.03838-0.038446-0.08587-0.0625-0.125-0.064763-0.10303-0.13023-0.20452-0.1875-0.3125-0.10101-0.19471-0.20567-0.4157-0.28125-0.625-0.00796-0.02181-0.023589-0.04055-0.03125-0.0625-0.031825-0.09195-0.035804-0.18683-0.0625-0.28125-0.030332-0.10662-0.070389-0.20303-0.09375-0.3125-0.072879-0.34151-0.125-0.6982-0.125-1.0625v-2-68-2c0-2.7818 2.2182-5 5-5h2 68 2c2.7818 0 5 2.2182 5 5v2 68 2c0 0.3643-0.05212 0.72099-0.125 1.0625-0.04415 0.20689-0.08838 0.39766-0.15625 0.59375-0.0077 0.02195-0.0233 0.04069-0.03125 0.0625-0.06274 0.17374-0.13838 0.36745-0.21875 0.53125-0.04158 0.0828-0.07904 0.16995-0.125 0.25-0.0546 0.09721-0.12677 0.18835-0.1875 0.28125-0.09411 0.14096-0.20492 0.276-0.3125 0.40625-0.14317 0.17445-0.30314 0.347-0.46875 0.5-0.01117 0.0102-0.01998 0.02115-0.03125 0.03125-0.13839 0.12556-0.28509 0.23444-0.4375 0.34375-0.10257 0.07315-0.20432 0.15336-0.3125 0.21875-0.0074 0.0045-0.02384-0.0044-0.03125 0-0.23204 0.13873-0.46255 0.27478-0.71875 0.375 0.30153-0.0968 0.59646-0.20414 0.875-0.34375 0.55709-0.27922 1.0601-0.66569 1.5-1.0938 0.21997-0.21403 0.40937-0.44186 0.59375-0.6875s0.35541-0.50774 0.5-0.78125c0.14012-0.26505 0.27614-0.52473 0.375-0.8125 0.01041-0.03078 0.02133-0.06274 0.03125-0.09375 0.09046-0.27808 0.1388-0.5794 0.1875-0.875 0.0524-0.31805 0.09375-0.63403 0.09375-0.96875v-2-68-2c0-3.324-2.676-6-6-6h-72z" fill="url(#linearGradient3188)" opacity=".25"/>
  <path id="path3615" d="m12 90c-3.324 0-6-2.676-6-6v-2-68-2c0-0.33472 0.04135-0.6507 0.09375-0.96875 0.0487-0.2956 0.09704-0.59692 0.1875-0.875 0.00988-0.03038 0.020892-0.0636 0.03125-0.09375 0.098865-0.28777 0.23488-0.54745 0.375-0.8125 0.14459-0.27351 0.31562-0.53562 0.5-0.78125s0.37378-0.47347 0.59375-0.6875c0.43995-0.42806 0.94291-0.81453 1.5-1.0938 0.27854-0.13961 0.57347-0.24695 0.875-0.34375-0.2562 0.10022-0.48671 0.23627-0.71875 0.375-0.00741 0.0044-0.023866-0.0045-0.03125 0-0.031933 0.0193-0.062293 0.04251-0.09375 0.0625-0.1204 0.0767-0.23102 0.16351-0.34375 0.25-0.10617 0.0808-0.21328 0.16111-0.3125 0.25-0.17793 0.16143-0.34746 0.34539-0.5 0.53125-0.10758 0.13026-0.21839 0.26528-0.3125 0.40625-0.025089 0.03838-0.038446 0.08587-0.0625 0.125-0.064763 0.10303-0.13023 0.20452-0.1875 0.3125-0.10101 0.19471-0.20567 0.4157-0.28125 0.625-0.00796 0.02181-0.023589 0.04055-0.03125 0.0625-0.031825 0.09195-0.035804 0.18683-0.0625 0.28125-0.030332 0.10662-0.070389 0.20303-0.09375 0.3125-0.072879 0.34151-0.125 0.6982-0.125 1.0625v2 68 2c0 2.7818 2.2182 5 5 5h2 68 2c2.7818 0 5-2.2182 5-5v-2-68-2c0-0.3643-0.05212-0.72099-0.125-1.0625-0.04415-0.20689-0.08838-0.39766-0.15625-0.59375-0.0077-0.02195-0.0233-0.04069-0.03125-0.0625-0.06274-0.17374-0.13838-0.36745-0.21875-0.53125-0.04158-0.0828-0.07904-0.16995-0.125-0.25-0.0546-0.09721-0.12677-0.18835-0.1875-0.28125-0.09411-0.14096-0.20492-0.276-0.3125-0.40625-0.14317-0.17445-0.30314-0.347-0.46875-0.5-0.01117-0.0102-0.01998-0.02115-0.03125-0.03125-0.13839-0.12556-0.28509-0.23444-0.4375-0.34375-0.10257-0.07315-0.20432-0.15336-0.3125-0.21875-0.0074-0.0045-0.02384 0.0044-0.03125 0-0.23204-0.13873-0.46255-0.27478-0.71875-0.375 0.30153 0.0968 0.59646 0.20414 0.875 0.34375 0.55709 0.27922 1.0601 0.66569 1.5 1.0938 0.21997 0.21403 0.40937 0.44186 0.59375 0.6875s0.35541 0.50774 0.5 0.78125c0.14012 0.26505 0.27614 0.52473 0.375 0.8125 0.01041 0.03078 0.02133 0.06274 0.03125 0.09375 0.09046 0.27808 0.1388 0.5794 0.1875 0.875 0.0524 0.31805 0.09375 0.63403 0.09375 0.96875v2 68 2c0 3.324-2.676 6-6 6h-72z" fill="url(#radialGradient3619)" opacity=".15"/>
 </g>
</svg>
