<?xml version="1.0" encoding="UTF-8"?>
<!-- Created with Inkscape (http://www.inkscape.org/) -->
<svg id="svg2408" width="96" height="96" version="1.0" xmlns="http://www.w3.org/2000/svg" xmlns:cc="http://creativecommons.org/ns#" xmlns:dc="http://purl.org/dc/elements/1.1/" xmlns:rdf="http://www.w3.org/1999/02/22-rdf-syntax-ns#" xmlns:xlink="http://www.w3.org/1999/xlink">
 <defs id="defs2410">
  <linearGradient id="ButtonShadow" x1="45.448" x2="45.448" y1="92.54" y2="7.0165" gradientTransform="scale(1.0059 .99417)" gradientUnits="userSpaceOnUse">
   <stop id="stop3750" offset="0"/>
   <stop id="stop3752" stop-opacity=".58824" offset="1"/>
  </linearGradient>
  <linearGradient id="linearGradient3737">
   <stop id="stop3739" stop-color="#fefefe" offset="0"/>
   <stop id="stop3741" stop-color="#fefefe" stop-opacity="0" offset="1"/>
  </linearGradient>
  <filter id="filter3174" color-interpolation-filters="sRGB">
   <feGaussianBlur id="feGaussianBlur3176" stdDeviation="1.71"/>
  </filter>
  <linearGradient id="ButtonShadow-0" x1="45.448" x2="45.448" y1="92.54" y2="7.0165" gradientTransform="matrix(1.0059 0 0 .99417 100 0)" gradientUnits="userSpaceOnUse">
   <stop id="stop3750-8" offset="0"/>
   <stop id="stop3752-5" stop-opacity=".58824" offset="1"/>
  </linearGradient>
  <linearGradient id="linearGradient3780" x1="32.251" x2="32.251" y1="6.1317" y2="90.239" gradientTransform="matrix(1.0238 0 0 1.0119 -1.1429 -98.071)" gradientUnits="userSpaceOnUse" xlink:href="#ButtonShadow-0"/>
  <linearGradient id="linearGradient3721" x1="32.251" x2="32.251" y1="6.1317" y2="90.239" gradientTransform="translate(0,-97)" gradientUnits="userSpaceOnUse" xlink:href="#ButtonShadow-0"/>
  <radialGradient id="radialGradient3215" cx="48" cy="90.172" r="42" gradientTransform="matrix(1.1573 0 0 .99591 -7.551 .19713)" gradientUnits="userSpaceOnUse" xlink:href="#linearGradient3737"/>
  <linearGradient id="linearGradient3218" x1="36.357" x2="36.357" y1="6" y2="63.893" gradientUnits="userSpaceOnUse" xlink:href="#linearGradient3737"/>
  <linearGradient id="linearGradient3221" x1="48" x2="48" y1="90" y2="5.9877" gradientUnits="userSpaceOnUse">
   <stop id="stop3690" stop-color="#242424" offset="0"/>
   <stop id="stop3692" stop-color="#606060" offset="1"/>
  </linearGradient>
  <radialGradient id="radialGradient4025" cx="-35.838" cy=".2093" r="25.694" gradientTransform="matrix(1.619 0 0 .97247 22.182 .0057613)" gradientUnits="userSpaceOnUse">
   <stop id="stop4021" stop-color="#b40d0d" offset="0"/>
   <stop id="stop4023" stop-color="#b40d0d" stop-opacity="0" offset="1"/>
  </radialGradient>
  <linearGradient id="linearGradient4044" x1="27.705" x2="67.577" y1="74.866" y2="19.005" gradientUnits="userSpaceOnUse">
   <stop id="stop4040" stop-color="#be0000" offset="0"/>
   <stop id="stop4042" stop-color="#ffa1a1" offset="1"/>
  </linearGradient>
 </defs>
 <metadata id="metadata2413">
  <rdf:RDF>
   <cc:Work rdf:about="">
    <dc:format>image/svg+xml</dc:format>
    <dc:type rdf:resource="http://purl.org/dc/dcmitype/StillImage"/>
    <dc:title/>
   </cc:Work>
  </rdf:RDF>
 </metadata>
 <g id="layer2" display="none">
  <rect id="rect3745" x="5" y="7" width="86" height="85" rx="6" ry="6" fill="url(#ButtonShadow)" filter="url(#filter3174)" opacity=".9"/>
 </g>
 <g id="layer3">
  <path id="path3786" transform="scale(1,-1)" d="m12-95.031c-5.5111 0-10.031 4.5202-10.031 10.031v71c0 5.5111 4.5202 10.031 10.031 10.031h72c5.5111 0 10.031-4.5202 10.031-10.031v-71c0-5.5111-4.5202-10.031-10.031-10.031h-72z" fill="url(#linearGradient3780)" opacity=".08"/>
  <path id="path3778" transform="scale(1,-1)" d="m12-94.031c-4.9716 0-9.0312 4.0596-9.0312 9.0312v71c0 4.9716 4.0596 9.0312 9.0312 9.0312h72c4.9716 0 9.0312-4.0596 9.0312-9.0312v-71c0-4.9716-4.0596-9.0312-9.0312-9.0312h-72z" fill="url(#linearGradient3780)" opacity=".1"/>
  <path id="path3770" transform="scale(1,-1)" d="m12-93c-4.4091 0-8 3.5909-8 8v71c0 4.4091 3.5909 8 8 8h72c4.4091 0 8-3.5909 8-8v-71c0-4.4091-3.5909-8-8-8h-72z" fill="url(#linearGradient3780)" opacity=".2"/>
  <rect id="rect3723" transform="scale(1,-1)" x="5" y="-92" width="86" height="85" rx="7" ry="7" fill="url(#linearGradient3780)" opacity=".3"/>
  <rect id="rect3716" transform="scale(1,-1)" x="6" y="-91" width="84" height="84" rx="6" ry="6" fill="url(#linearGradient3721)" opacity=".45"/>
 </g>
 <rect id="rect2419" x="6" y="6" width="84" height="84" rx="6" ry="6" fill="url(#linearGradient3221)"/>
 <path id="rect3728" d="m12 6c-3.324 0-6 2.676-6 6v2 68 2c0 0.33472 0.04135 0.6507 0.09375 0.96875 0.0487 0.2956 0.09704 0.59692 0.1875 0.875 0.00988 0.03038 0.020892 0.0636 0.03125 0.09375 0.098865 0.28777 0.23488 0.54745 0.375 0.8125 0.14459 0.27351 0.31562 0.53562 0.5 0.78125s0.37378 0.47347 0.59375 0.6875c0.43995 0.42806 0.94291 0.81453 1.5 1.0938 0.27854 0.13961 0.57347 0.24695 0.875 0.34375-0.2562-0.10022-0.48671-0.23627-0.71875-0.375-0.00741-0.0044-0.023866 0.0045-0.03125 0-0.031933-0.0193-0.062293-0.04251-0.09375-0.0625-0.1204-0.0767-0.23102-0.16351-0.34375-0.25-0.10617-0.0808-0.21328-0.16111-0.3125-0.25-0.17793-0.16143-0.34746-0.34539-0.5-0.53125-0.10758-0.13026-0.21839-0.26528-0.3125-0.40625-0.025089-0.03838-0.038446-0.08587-0.0625-0.125-0.064763-0.10303-0.13023-0.20452-0.1875-0.3125-0.10101-0.19471-0.20567-0.4157-0.28125-0.625-0.00796-0.02181-0.023589-0.04055-0.03125-0.0625-0.031825-0.09195-0.035804-0.18683-0.0625-0.28125-0.030332-0.10662-0.070389-0.20303-0.09375-0.3125-0.072879-0.34151-0.125-0.6982-0.125-1.0625v-2-68-2c0-2.7818 2.2182-5 5-5h2 68 2c2.7818 0 5 2.2182 5 5v2 68 2c0 0.3643-0.05212 0.72099-0.125 1.0625-0.04415 0.20689-0.08838 0.39766-0.15625 0.59375-0.0077 0.02195-0.0233 0.04069-0.03125 0.0625-0.06274 0.17374-0.13838 0.36745-0.21875 0.53125-0.04158 0.0828-0.07904 0.16995-0.125 0.25-0.0546 0.09721-0.12677 0.18835-0.1875 0.28125-0.09411 0.14096-0.20492 0.276-0.3125 0.40625-0.14317 0.17445-0.30314 0.347-0.46875 0.5-0.01117 0.0102-0.01998 0.02115-0.03125 0.03125-0.13839 0.12556-0.28509 0.23444-0.4375 0.34375-0.10257 0.07315-0.20432 0.15336-0.3125 0.21875-0.0074 0.0045-0.02384-0.0044-0.03125 0-0.23204 0.13873-0.46255 0.27478-0.71875 0.375 0.30153-0.0968 0.59646-0.20414 0.875-0.34375 0.55709-0.27922 1.0601-0.66569 1.5-1.0938 0.21997-0.21403 0.40937-0.44186 0.59375-0.6875s0.35541-0.50774 0.5-0.78125c0.14012-0.26505 0.27614-0.52473 0.375-0.8125 0.01041-0.03078 0.02133-0.06274 0.03125-0.09375 0.09046-0.27808 0.1388-0.5794 0.1875-0.875 0.0524-0.31805 0.09375-0.63403 0.09375-0.96875v-2-68-2c0-3.324-2.676-6-6-6h-72z" fill="url(#linearGradient3218)" opacity=".35"/>
 <path id="path3615" d="m12 90c-3.324 0-6-2.676-6-6v-2-68-2c0-0.33472 0.04135-0.6507 0.09375-0.96875 0.0487-0.2956 0.09704-0.59692 0.1875-0.875 0.00988-0.03038 0.020892-0.0636 0.03125-0.09375 0.098865-0.28777 0.23488-0.54745 0.375-0.8125 0.14459-0.27351 0.31562-0.53562 0.5-0.78125s0.37378-0.47347 0.59375-0.6875c0.43995-0.42806 0.94291-0.81453 1.5-1.0938 0.27854-0.13961 0.57347-0.24695 0.875-0.34375-0.2562 0.10022-0.48671 0.23627-0.71875 0.375-0.00741 0.0044-0.023866-0.0045-0.03125 0-0.031933 0.0193-0.062293 0.04251-0.09375 0.0625-0.1204 0.0767-0.23102 0.16351-0.34375 0.25-0.10617 0.0808-0.21328 0.16111-0.3125 0.25-0.17793 0.16143-0.34746 0.34539-0.5 0.53125-0.10758 0.13026-0.21839 0.26528-0.3125 0.40625-0.025089 0.03838-0.038446 0.08587-0.0625 0.125-0.064763 0.10303-0.13023 0.20452-0.1875 0.3125-0.10101 0.19471-0.20567 0.4157-0.28125 0.625-0.00796 0.02181-0.023589 0.04055-0.03125 0.0625-0.031825 0.09195-0.035804 0.18683-0.0625 0.28125-0.030332 0.10662-0.070389 0.20303-0.09375 0.3125-0.072879 0.34151-0.125 0.6982-0.125 1.0625v2 68 2c0 2.7818 2.2182 5 5 5h2 68 2c2.7818 0 5-2.2182 5-5v-2-68-2c0-0.3643-0.05212-0.72099-0.125-1.0625-0.04415-0.20689-0.08838-0.39766-0.15625-0.59375-0.0077-0.02195-0.0233-0.04069-0.03125-0.0625-0.06274-0.17374-0.13838-0.36745-0.21875-0.53125-0.04158-0.0828-0.07904-0.16995-0.125-0.25-0.0546-0.09721-0.12677-0.18835-0.1875-0.28125-0.09411-0.14096-0.20492-0.276-0.3125-0.40625-0.14317-0.17445-0.30314-0.347-0.46875-0.5-0.01117-0.0102-0.01998-0.02115-0.03125-0.03125-0.13839-0.12556-0.28509-0.23444-0.4375-0.34375-0.10257-0.07315-0.20432-0.15336-0.3125-0.21875-0.0074-0.0045-0.02384 0.0044-0.03125 0-0.23204-0.13873-0.46255-0.27478-0.71875-0.375 0.30153 0.0968 0.59646 0.20414 0.875 0.34375 0.55709 0.27922 1.0601 0.66569 1.5 1.0938 0.21997 0.21403 0.40937 0.44186 0.59375 0.6875s0.35541 0.50774 0.5 0.78125c0.14012 0.26505 0.27614 0.52473 0.375 0.8125 0.01041 0.03078 0.02133 0.06274 0.03125 0.09375 0.09046 0.27808 0.1388 0.5794 0.1875 0.875 0.0524 0.31805 0.09375 0.63403 0.09375 0.96875v2 68 2c0 3.324-2.676 6-6 6h-72z" fill="url(#radialGradient3215)" opacity=".2"/>
 <g id="g4014" transform="matrix(1.56 0 0 1.56 103.91 47.673)">
  <path id="path4032" transform="matrix(.64102 0 0 .64102 -66.607 -30.56)" d="m42.5 23.938c-6.4281 0.15447-12.646 2.6539-16.969 6.375 0 0-16.068 14.732-2.0625 34.281 0 0 4.7307 7.6187 16.531 7.2188 0 0 15.892 0.87851 19.594-14.188 0 0 2.7332-21.231-17.094-24.438 0 0-13.442-1.4433-15.094 13.781 0 0-2.1327 13.789 12.5 14.75 0 0 10.628-0.092471 10.156-10.188 0 0 0.34074-10.33-8.1562-10.25 0 0-6.7812-0.95329-6.7812 6.6562 0 0-0.47029 6.4216 4.5625 6.3438 0 0 2.6714 0.23571 2.75-2.9688 0 0-0.24619-3.6346-3-2.0312-0.87228-2.896 1.9947-2.7558 3.4688-1.9062 0.54828 0.21932 3.3294 3.2177 0.3125 7.375 0 0-4.2511 4.013-8.3438-1.0312 0 0-4.5466-5.4576 0.25-12.031 11.613-10.36 26.769 9.5018 12.281 20.031-20.358 11.035-29.298-17.81-15.844-27.312 0 0 9.2911-7.3786 19.281-0.96875 0 0 7.1644 3.2738 10.312 14.656 0 0 3.455-10.509 3.5312-10.75-5.3349-9.9468-13.923-13.605-22.188-13.406zm30.938 15.531c-0.15185 0.016704-0.29417 0.087458-0.4375 0.21875 0 0-0.53156 0.56025 0.375 1.8438 0 0 3.3297 5.1337 3.8438 6.9375 0.51051 1.7991 1.1496 6.1851-2.1562 8.75 0 0-4.9757 3.844-8.5938-3.25-1.3979-5.6266-0.56534-6.6369-1.2188-12.062-4.3602 17.593-1.3066 20.867-13.062 29.406 8.5938-0.77641 17.852-1.3013 24.438-7.5 3.0358-3.6449 4.1703-8.1304 5.7812-12.406 0.99132-2.6311 1.8038-5.0882 4.3438-7.1562l1.2188-1.0625s0.62158-1.1034-1.0312-0.78125c0 0-1.057 0.17056-2.4062 2.0625-0.32984 0.46251-1.8678 2.8948-2.5938 3.625 0 0-1.4966 1.2505-2.9375 0.15625-2.4466-2.6505-2.562-7.1907-5.0625-8.6875-0.18382-0.092492-0.34815-0.11045-0.5-0.09375zm-54.938 21.188c-0.6278 2.0631-1.2828 3.1228-2.1875 4.6875-1.5636 2.7008-8.4062 4.25-8.4062 4.25s2.3188 0.82909 5.375 1.4688c3.0562 0.63959 16.812 1 16.812 1-6.8363-2.1769-7.5287-5.7165-11.594-11.406z" fill="none" opacity=".03" stroke="#fefefe" stroke-width="4"/>
  <path id="path4030" transform="matrix(.64102 0 0 .64102 -66.607 -30.56)" d="m42.5 23.938c-6.4281 0.15447-12.646 2.6539-16.969 6.375 0 0-16.068 14.732-2.0625 34.281 0 0 4.7307 7.6187 16.531 7.2188 0 0 15.892 0.87851 19.594-14.188 0 0 2.7332-21.231-17.094-24.438 0 0-13.442-1.4433-15.094 13.781 0 0-2.1327 13.789 12.5 14.75 0 0 10.628-0.092471 10.156-10.188 0 0 0.34074-10.33-8.1562-10.25 0 0-6.7812-0.95329-6.7812 6.6562 0 0-0.47029 6.4216 4.5625 6.3438 0 0 2.6714 0.23571 2.75-2.9688 0 0-0.24619-3.6346-3-2.0312-0.87228-2.896 1.9947-2.7558 3.4688-1.9062 0.54828 0.21932 3.3294 3.2177 0.3125 7.375 0 0-4.2511 4.013-8.3438-1.0312 0 0-4.5466-5.4576 0.25-12.031 11.613-10.36 26.769 9.5018 12.281 20.031-20.358 11.035-29.298-17.81-15.844-27.312 0 0 9.2911-7.3786 19.281-0.96875 0 0 7.1644 3.2738 10.312 14.656 0 0 3.455-10.509 3.5312-10.75-5.3349-9.9468-13.923-13.605-22.188-13.406zm30.938 15.531c-0.15185 0.016704-0.29417 0.087458-0.4375 0.21875 0 0-0.53156 0.56025 0.375 1.8438 0 0 3.3297 5.1337 3.8438 6.9375 0.51051 1.7991 1.1496 6.1851-2.1562 8.75 0 0-4.9757 3.844-8.5938-3.25-1.3979-5.6266-0.56534-6.6369-1.2188-12.062-4.3602 17.593-1.3066 20.867-13.062 29.406 8.5938-0.77641 17.852-1.3013 24.438-7.5 3.0358-3.6449 4.1703-8.1304 5.7812-12.406 0.99132-2.6311 1.8038-5.0882 4.3438-7.1562l1.2188-1.0625s0.62158-1.1034-1.0312-0.78125c0 0-1.057 0.17056-2.4062 2.0625-0.32984 0.46251-1.8678 2.8948-2.5938 3.625 0 0-1.4966 1.2505-2.9375 0.15625-2.4466-2.6505-2.562-7.1907-5.0625-8.6875-0.18382-0.092492-0.34815-0.11045-0.5-0.09375zm-54.938 21.188c-0.6278 2.0631-1.2828 3.1228-2.1875 4.6875-1.5636 2.7008-8.4062 4.25-8.4062 4.25s2.3188 0.82909 5.375 1.4688c3.0562 0.63959 16.812 1 16.812 1-6.8363-2.1769-7.5287-5.7165-11.594-11.406z" fill="none" opacity=".05" stroke="#fefefe" stroke-width="2"/>
  <path id="path4008" transform="matrix(.64102 0 0 .64102 -66.607 -30.56)" d="m42.5 23.938c-6.4281 0.15447-12.646 2.6539-16.969 6.375 0 0-16.068 14.732-2.0625 34.281 0 0 4.7307 7.6187 16.531 7.2188 0 0 15.892 0.87851 19.594-14.188 0 0 2.7332-21.231-17.094-24.438 0 0-13.442-1.4433-15.094 13.781 0 0-2.1327 13.789 12.5 14.75 0 0 10.628-0.092471 10.156-10.188 0 0 0.34074-10.33-8.1562-10.25 0 0-6.7812-0.95329-6.7812 6.6562 0 0-0.47029 6.4216 4.5625 6.3438 0 0 2.6714 0.23571 2.75-2.9688 0 0-0.24619-3.6346-3-2.0312-0.87228-2.896 1.9947-2.7558 3.4688-1.9062 0.54828 0.21932 3.3294 3.2177 0.3125 7.375 0 0-4.2511 4.013-8.3438-1.0312 0 0-4.5466-5.4576 0.25-12.031 11.613-10.36 26.769 9.5018 12.281 20.031-20.358 11.035-29.298-17.81-15.844-27.312 0 0 9.2911-7.3786 19.281-0.96875 0 0 7.1644 3.2738 10.312 14.656 0 0 3.455-10.509 3.5312-10.75-5.3349-9.9468-13.923-13.605-22.188-13.406zm30.938 15.531c-0.15185 0.016704-0.29417 0.087458-0.4375 0.21875 0 0-0.53156 0.56025 0.375 1.8438 0 0 3.3297 5.1337 3.8438 6.9375 0.51051 1.7991 1.1496 6.1851-2.1562 8.75 0 0-4.9757 3.844-8.5938-3.25-1.3979-5.6266-0.56534-6.6369-1.2188-12.062-4.3602 17.593-1.3066 20.867-13.062 29.406 8.5938-0.77641 17.852-1.3013 24.438-7.5 3.0358-3.6449 4.1703-8.1304 5.7812-12.406 0.99132-2.6311 1.8038-5.0882 4.3438-7.1562l1.2188-1.0625s0.62158-1.1034-1.0312-0.78125c0 0-1.057 0.17056-2.4062 2.0625-0.32984 0.46251-1.8678 2.8948-2.5938 3.625 0 0-1.4966 1.2505-2.9375 0.15625-2.4466-2.6505-2.562-7.1907-5.0625-8.6875-0.18382-0.092492-0.34815-0.11045-0.5-0.09375zm-54.938 21.188c-0.6278 2.0631-1.2828 3.1228-2.1875 4.6875-1.5636 2.7008-8.4062 4.25-8.4062 4.25s2.3188 0.82909 5.375 1.4688c3.0562 0.63959 16.812 1 16.812 1-6.8363-2.1769-7.5287-5.7165-11.594-11.406z" fill="url(#linearGradient4044)"/>
 </g>
</svg>
