<?xml version="1.0" encoding="UTF-8"?>
<svg id="svg2408" width="96" height="96" version="1.0" xmlns="http://www.w3.org/2000/svg" xmlns:cc="http://creativecommons.org/ns#" xmlns:dc="http://purl.org/dc/elements/1.1/" xmlns:rdf="http://www.w3.org/1999/02/22-rdf-syntax-ns#" xmlns:xlink="http://www.w3.org/1999/xlink">
 <defs id="defs2410">
  <linearGradient id="ButtonShadow" x1="45.448" x2="45.448" y1="92.54" y2="7.0165" gradientTransform="scale(1.0059 .99417)" gradientUnits="userSpaceOnUse">
   <stop id="stop3750" offset="0"/>
   <stop id="stop3752" stop-opacity=".58824" offset="1"/>
  </linearGradient>
  <linearGradient id="linearGradient3737">
   <stop id="stop3739" stop-color="#fffac8" offset="0"/>
   <stop id="stop3741" stop-color="#feff67" stop-opacity="0" offset="1"/>
  </linearGradient>
  <filter id="filter3174" color-interpolation-filters="sRGB">
   <feGaussianBlur id="feGaussianBlur3176" stdDeviation="1.71"/>
  </filter>
  <linearGradient id="linearGradient3188" x1="36.357" x2="36.357" y1="6" y2="63.893" gradientUnits="userSpaceOnUse" xlink:href="#linearGradient3737"/>
  <filter id="filter3794" x="-.192" y="-.192" width="1.384" height="1.384" color-interpolation-filters="sRGB">
   <feGaussianBlur id="feGaussianBlur3796" stdDeviation="5.28"/>
  </filter>
  <linearGradient id="linearGradient3613" x1="48" x2="48" y1="20.221" y2="138.66" gradientUnits="userSpaceOnUse" xlink:href="#linearGradient3737"/>
  <radialGradient id="radialGradient3619" cx="48" cy="90.172" r="42" gradientTransform="matrix(1.1573 0 0 .99591 -7.551 .19713)" gradientUnits="userSpaceOnUse" xlink:href="#linearGradient3737"/>
  <clipPath id="clipPath3613">
   <rect id="rect3615" x="6" y="6" width="84" height="84" rx="6" ry="6" fill="#fefefe"/>
  </clipPath>
  <linearGradient id="linearGradient3617" x1="48" x2="48" y1="90" y2="5.9877" gradientUnits="userSpaceOnUse">
   <stop id="stop3702" stop-color="#da4714" offset="0"/>
   <stop id="stop3704" stop-color="#ee743e" offset="1"/>
  </linearGradient>
  <linearGradient id="ButtonShadow-0" x1="45.448" x2="45.448" y1="92.54" y2="7.0165" gradientTransform="matrix(1.0059 0 0 .99417 100 0)" gradientUnits="userSpaceOnUse">
   <stop id="stop3750-8" offset="0"/>
   <stop id="stop3752-5" stop-opacity=".58824" offset="1"/>
  </linearGradient>
  <linearGradient id="linearGradient3780" x1="32.251" x2="32.251" y1="6.1317" y2="90.239" gradientTransform="matrix(1.0238 0 0 1.0119 -1.1429 -98.071)" gradientUnits="userSpaceOnUse" xlink:href="#ButtonShadow-0"/>
  <linearGradient id="linearGradient3721" x1="32.251" x2="32.251" y1="6.1317" y2="90.239" gradientTransform="translate(0,-97)" gradientUnits="userSpaceOnUse" xlink:href="#ButtonShadow-0"/>
 </defs>
 <metadata id="metadata2413">
  <rdf:RDF>
   <cc:Work rdf:about="">
    <dc:format>image/svg+xml</dc:format>
    <dc:type rdf:resource="http://purl.org/dc/dcmitype/StillImage"/>
    <dc:title/>
   </cc:Work>
  </rdf:RDF>
 </metadata>
 <g id="layer2" display="none">
  <rect id="rect3745" x="5" y="7" width="86" height="85" rx="6" ry="6" fill="url(#ButtonShadow)" filter="url(#filter3174)" opacity=".9"/>
 </g>
 <g id="layer3">
  <path id="path3786" transform="scale(1,-1)" d="m12-95.031c-5.5111 0-10.031 4.5202-10.031 10.031v71c0 5.5111 4.5202 10.031 10.031 10.031h72c5.5111 0 10.031-4.5202 10.031-10.031v-71c0-5.5111-4.5202-10.031-10.031-10.031h-72z" fill="url(#linearGradient3780)" opacity=".08"/>
  <path id="path3778" transform="scale(1,-1)" d="m12-94.031c-4.9716 0-9.0312 4.0596-9.0312 9.0312v71c0 4.9716 4.0596 9.0312 9.0312 9.0312h72c4.9716 0 9.0312-4.0596 9.0312-9.0312v-71c0-4.9716-4.0596-9.0312-9.0312-9.0312h-72z" fill="url(#linearGradient3780)" opacity=".1"/>
  <path id="path3770" transform="scale(1,-1)" d="m12-93c-4.4091 0-8 3.5909-8 8v71c0 4.4091 3.5909 8 8 8h72c4.4091 0 8-3.5909 8-8v-71c0-4.4091-3.5909-8-8-8h-72z" fill="url(#linearGradient3780)" opacity=".2"/>
  <rect id="rect3723" transform="scale(1,-1)" x="5" y="-92" width="86" height="85" rx="7" ry="7" fill="url(#linearGradient3780)" opacity=".3"/>
  <rect id="rect3716" transform="scale(1,-1)" x="6" y="-91" width="84" height="84" rx="6" ry="6" fill="url(#linearGradient3721)" opacity=".45"/>
 </g>
 <g id="layer1">
  <rect id="rect2419" x="6" y="6" width="84" height="84" rx="6" ry="6" fill="url(#linearGradient3617)"/>
  <path id="rect3728" d="m12 6c-3.324 0-6 2.676-6 6v2 68 2c0 0.33472 0.04135 0.6507 0.09375 0.96875 0.0487 0.2956 0.09704 0.59692 0.1875 0.875 0.00988 0.03038 0.020892 0.0636 0.03125 0.09375 0.098865 0.28777 0.23488 0.54745 0.375 0.8125 0.14459 0.27351 0.31562 0.53562 0.5 0.78125s0.37378 0.47347 0.59375 0.6875c0.43995 0.42806 0.94291 0.81453 1.5 1.0938 0.27854 0.13961 0.57347 0.24695 0.875 0.34375-0.2562-0.10022-0.48671-0.23627-0.71875-0.375-0.00741-0.0044-0.023866 0.0045-0.03125 0-0.031933-0.0193-0.062293-0.04251-0.09375-0.0625-0.1204-0.0767-0.23102-0.16351-0.34375-0.25-0.10617-0.0808-0.21328-0.16111-0.3125-0.25-0.17793-0.16143-0.34746-0.34539-0.5-0.53125-0.10758-0.13026-0.21839-0.26528-0.3125-0.40625-0.025089-0.03838-0.038446-0.08587-0.0625-0.125-0.064763-0.10303-0.13023-0.20452-0.1875-0.3125-0.10101-0.19471-0.20567-0.4157-0.28125-0.625-0.00796-0.02181-0.023589-0.04055-0.03125-0.0625-0.031825-0.09195-0.035804-0.18683-0.0625-0.28125-0.030332-0.10662-0.070389-0.20303-0.09375-0.3125-0.072879-0.34151-0.125-0.6982-0.125-1.0625v-2-68-2c0-2.7818 2.2182-5 5-5h2 68 2c2.7818 0 5 2.2182 5 5v2 68 2c0 0.3643-0.05212 0.72099-0.125 1.0625-0.04415 0.20689-0.08838 0.39766-0.15625 0.59375-0.0077 0.02195-0.0233 0.04069-0.03125 0.0625-0.06274 0.17374-0.13838 0.36745-0.21875 0.53125-0.04158 0.0828-0.07904 0.16995-0.125 0.25-0.0546 0.09721-0.12677 0.18835-0.1875 0.28125-0.09411 0.14096-0.20492 0.276-0.3125 0.40625-0.14317 0.17445-0.30314 0.347-0.46875 0.5-0.01117 0.0102-0.01998 0.02115-0.03125 0.03125-0.13839 0.12556-0.28509 0.23444-0.4375 0.34375-0.10257 0.07315-0.20432 0.15336-0.3125 0.21875-0.0074 0.0045-0.02384-0.0044-0.03125 0-0.23204 0.13873-0.46255 0.27478-0.71875 0.375 0.30153-0.0968 0.59646-0.20414 0.875-0.34375 0.55709-0.27922 1.0601-0.66569 1.5-1.0938 0.21997-0.21403 0.40937-0.44186 0.59375-0.6875s0.35541-0.50774 0.5-0.78125c0.14012-0.26505 0.27614-0.52473 0.375-0.8125 0.01041-0.03078 0.02133-0.06274 0.03125-0.09375 0.09046-0.27808 0.1388-0.5794 0.1875-0.875 0.0524-0.31805 0.09375-0.63403 0.09375-0.96875v-2-68-2c0-3.324-2.676-6-6-6h-72z" fill="url(#linearGradient3188)" opacity=".35"/>
  <path id="path3615" d="m12 90c-3.324 0-6-2.676-6-6v-2-68-2c0-0.33472 0.04135-0.6507 0.09375-0.96875 0.0487-0.2956 0.09704-0.59692 0.1875-0.875 0.00988-0.03038 0.020892-0.0636 0.03125-0.09375 0.098865-0.28777 0.23488-0.54745 0.375-0.8125 0.14459-0.27351 0.31562-0.53562 0.5-0.78125s0.37378-0.47347 0.59375-0.6875c0.43995-0.42806 0.94291-0.81453 1.5-1.0938 0.27854-0.13961 0.57347-0.24695 0.875-0.34375-0.2562 0.10022-0.48671 0.23627-0.71875 0.375-0.00741 0.0044-0.023866-0.0045-0.03125 0-0.031933 0.0193-0.062293 0.04251-0.09375 0.0625-0.1204 0.0767-0.23102 0.16351-0.34375 0.25-0.10617 0.0808-0.21328 0.16111-0.3125 0.25-0.17793 0.16143-0.34746 0.34539-0.5 0.53125-0.10758 0.13026-0.21839 0.26528-0.3125 0.40625-0.025089 0.03838-0.038446 0.08587-0.0625 0.125-0.064763 0.10303-0.13023 0.20452-0.1875 0.3125-0.10101 0.19471-0.20567 0.4157-0.28125 0.625-0.00796 0.02181-0.023589 0.04055-0.03125 0.0625-0.031825 0.09195-0.035804 0.18683-0.0625 0.28125-0.030332 0.10662-0.070389 0.20303-0.09375 0.3125-0.072879 0.34151-0.125 0.6982-0.125 1.0625v2 68 2c0 2.7818 2.2182 5 5 5h2 68 2c2.7818 0 5-2.2182 5-5v-2-68-2c0-0.3643-0.05212-0.72099-0.125-1.0625-0.04415-0.20689-0.08838-0.39766-0.15625-0.59375-0.0077-0.02195-0.0233-0.04069-0.03125-0.0625-0.06274-0.17374-0.13838-0.36745-0.21875-0.53125-0.04158-0.0828-0.07904-0.16995-0.125-0.25-0.0546-0.09721-0.12677-0.18835-0.1875-0.28125-0.09411-0.14096-0.20492-0.276-0.3125-0.40625-0.14317-0.17445-0.30314-0.347-0.46875-0.5-0.01117-0.0102-0.01998-0.02115-0.03125-0.03125-0.13839-0.12556-0.28509-0.23444-0.4375-0.34375-0.10257-0.07315-0.20432-0.15336-0.3125-0.21875-0.0074-0.0045-0.02384 0.0044-0.03125 0-0.23204-0.13873-0.46255-0.27478-0.71875-0.375 0.30153 0.0968 0.59646 0.20414 0.875 0.34375 0.55709 0.27922 1.0601 0.66569 1.5 1.0938 0.21997 0.21403 0.40937 0.44186 0.59375 0.6875s0.35541 0.50774 0.5 0.78125c0.14012 0.26505 0.27614 0.52473 0.375 0.8125 0.01041 0.03078 0.02133 0.06274 0.03125 0.09375 0.09046 0.27808 0.1388 0.5794 0.1875 0.875 0.0524 0.31805 0.09375 0.63403 0.09375 0.96875v2 68 2c0 3.324-2.676 6-6 6h-72z" fill="url(#radialGradient3619)" opacity=".2"/>
  <circle id="path914" cx="52.546" cy="44.317" r="35" fill="#6c0000" fill-opacity=".23529" style="paint-order:stroke fill markers"/>
  <g id="g912" transform="matrix(.8772 0 0 .8772 1.6273 9.426)">
   <path id="path884" d="m79.279 30.288c-1.2076 1.055-2.0287 1.2507-4.9576 1.2507-5.8579 0-10.251-4.2148-10.251-10.073 1e-6 -5.8579 4.7487-10.607 10.607-10.607 2.9289 0 5.5806 1.1872 7.5 3.1066l-9.8625 8.161z" fill="#999" style="paint-order:stroke fill markers"/>
   <path id="path891" d="m66.407 27.661c1.4083 1.0668 1.8797 3.1028 1.322 6.2034-2.0285 9.5859-9.4174 18.445-19.424 26.949-11.799 10.524-18.088 14.234-24.915 18.61l1.8305 8.6441-8.8475-9.3559" fill="#999"/>
   <path id="path895" d="m71.441 22.271 7.1695 7.8814c6.4856-4.3232 6.9716-9.8464 1.9322-16.475" fill="#666"/>
   <path id="path899" d="m66.407 27.661c1.7602 2.5958 1.268 6.4271-1.4009 10.308l-19.775 19.559-8.9167 1.0067" fill="#666"/>
   <path id="path903" d="m66.407 27.661c-3.2897-1.8113-8.3409-1.2008-15.966 2.9492-6.6296 5.3811-10.731 10.973-15.915 16.475l6.5085 5.7458" fill="#ff931e"/>
   <path id="path882" d="m24.714 89.853c-0.24977 0-1.9978-1.633-4.9169-4.5935-2.4911-2.5264-4.531-4.66-4.5331-4.7412-0.58847-0.91588-0.34555-1.536-0.0037-2.037 0-0.19557 1.6225-2.0266 3.6442-4.1126 4.6119-4.311 9.3728-9.43 13.244-13.43 2.8528-2.9467 5.1484-5.3961 5.1013-5.4432-0.04706-0.0471-2.3207 0.40149-5.0524 0.99678-2.9027 0.63254-5.3041 1.0578-5.7783 1.0234-0.77542-0.0563-0.81374-0.089-0.86395-0.7359-0.04797-0.61796 0.17757-0.9466 2.5883-3.7716 1.4525-1.702 4.093-4.8353 5.8678-6.9628 4.1297-4.9504 7.1979-8.2705 10.131-10.962 5.1337-4.7117 9.4874-7.7282 12.605-8.7339 1.4675-0.4733 4.2346-0.90241 5.8191-0.90241h1.4167l-0.30452-0.82201c-0.41227-1.1129-0.57007-4.7176-0.26768-6.1149 0.40224-1.8586 1.506-3.8511 2.9073-5.2481 1.6294-1.6244 3.3843-2.3683 5.2153-2.7642 3.2175-0.69574 5.974-8e-3 7.748 0.7304 2.1813 0.90745 3.7287 2.8773 4.786 4.4352 1.9793 2.9165 1.5728 8.4604 0.0951 10.847-1.3 2.1-3.2496 4.025-5.7822 4.8548-1.5641 0.51244-1.945 0.56024-4.4194 0.55467-2.488-6e-3 -2.8059-0.0477-3.9166-0.51833l-1.2088-0.51224v0.92818c0 0.51049-0.13473 1.7008-0.29939 2.645-1.3908 7.9753-8.0611 17.187-19.525 26.965-1.9148 1.6331-4.4388 3.8037-5.609 4.8235-3.7314 3.2522-5.5379 4.73-8.5102 6.962-1.5957 1.1983-2.9888 2.287-3.096 2.4193-0.28637 0.35372-3.6217 2.5158-5.4638 3.5418-1.1384 0.63406-1.5712 0.97593-1.5074 1.1907 0.04921 0.16572 0.31558 1.3022 0.59194 2.5256 0.27635 1.2233 0.71534 3.1152 0.97553 4.204 0.26019 1.0889 0.47239 2.1333 0.47156 2.321-0.63734 0.81148-1.3871 0.60899-2.1496 0.43787zm-1.6122-7.0378c-0.39121-1.6489-0.68365-3.281-0.64988-3.6268 0.05696-0.58321 0.22139-0.71808 2.2693-1.8614 5.2772-2.9462 9.9007-6.4015 18.391-13.744 4.2113-3.6424 3.8434-3.2137 3.2779-3.8183-0.26036-0.27834-0.61464-0.58226-0.78729-0.67538-0.31941-0.17228-9.5982 1.387-10.089 1.6953-0.41477 0.26082-18.126 18.584-18.126 18.752 0 0.20658 6.2432 6.4591 6.3464 6.3558 0.04334-0.0433-0.24129-1.4279-0.6325-3.0768zm28.241-26.401c3.9264-3.5518 7.958-8.1417 10.555-12.017 1.1555-1.724 2.8033-4.638 2.6227-4.638-0.0445 0-3.9764 3.9797-8.7376 8.8439l-8.6566 8.8439 0.73716 0.63722c0.40544 0.35047 0.80621 0.61372 0.89061 0.58499 0.0844-0.0287 1.2493-1.0435 2.5886-2.2551zm-10.494 1.256c1.3618-0.25257 2.5127-0.49599 2.5577-0.54093 0.04494-0.0449-0.41869-0.57688-1.0303-1.1821l-1.112-1.1004-1.6348 1.6433c-0.89914 0.90383-1.5497 1.6424-1.4457 1.6413 0.10403-1e-3 1.3033-0.20867 2.6651-0.46123zm24.284-21.603c1.5972-2.0862 2.0163-3.037 2.0268-4.5983 8e-3 -1.2414-0.2977-2.2405-0.64843-2.1169-0.0938 0.0331-5.4824 5.4251-11.975 11.982l-11.804 11.922 2.9714 2.8225 9.1524-9.2718c5.0338-5.0995 9.6583-9.9325 10.277-10.74zm-30.773 17.885c2.3669-0.50332 4.3034-0.97759 4.3034-1.0539 0-0.27141-4.1195-4.067-4.2477-3.9138-0.07178 0.0858-1.1199 1.331-2.3292 2.767-1.2093 1.4361-2.3348 2.775-2.5011 2.9752-0.2806 0.33787-0.27451 0.3561 0.08437 0.25235 0.21275-0.0615 2.3234-0.52363 4.6903-1.0269zm20.785-16.372c5.3267-5.401 9.6215-9.8833 9.5441-9.9607s-1.1126-0.13827-2.3005-0.13526c-3.5172 9e-3 -6.0021 0.90194-9.7898 3.5182-4.7521 3.2824-9.8991 8.149-15.11 14.286l-1.4304 1.6848 5.0223 4.7606 2.1896-2.167c1.2043-1.1919 6.5478-6.586 11.874-11.987zm20.504-7.582c0.50281-0.0683 0.95572-0.19131 1.0065-0.2734 0.0507-0.0821-1.2954-1.622-2.9914-3.4219-4.1967-4.454-4.3012-3.6862 1.1822-8.6872 2.3322-2.127 4.2403-3.9201 4.2403-3.9847-2.6697-2.1244-5.6797-2.1076-8.3167-0.83325-3.6821 1.7532-5.7708 5.0754-5.572 8.8626 0.0701 1.3361 0.19989 1.8419 0.79294 3.0907 0.94099 1.9814 2.5019 3.5558 4.4362 4.4744 1.2946 0.61482 3.2927 1.088 4.0177 0.95155 0.15957-0.03 0.70151-0.11048 1.2043-0.17876zm4.2562-1.777c0.99159-0.68718 2.3485-2.5246 2.8457-3.8535 1.1428-3.0543 0.7886-5.6761-1.1467-8.4889l-0.60393-0.87779-3.9064 3.6014c-2.1485 1.9807-3.9064 3.6746-3.9064 3.7641 0 0.18617 5.6912 6.3694 5.8625 6.3694 0.0618 0 0.44668-0.23163 0.8552-0.51472zm-0.0346-3.6311c-0.27561-0.33209-0.19515-1.2314 0.19412-2.1698 0.2096-0.50526 0.20768-0.79898-0.0112-1.7113-0.36349-1.5152 0.0289-2.066 1.253-1.7588 0.92883 0.23312 1.1727 3.7801 0.35634 5.1833-0.42425 0.72923-1.3667 0.96933-1.7922 0.45659z" fill="#fefefe" stroke-width=".19341"/>
  </g>
 </g>
 <g id="layer5" transform="translate(54)">
  <rect id="rect3171" transform="translate(-54)" x="15" y="15" width="66" height="66" rx="12" ry="12" clip-path="url(#clipPath3613)" fill="url(#linearGradient3613)" filter="url(#filter3794)" opacity=".1" stroke="#fefefe" stroke-linecap="round" stroke-width=".5"/>
 </g>
</svg>
