<?xml version="1.0" encoding="UTF-8"?>
<!-- Created with Inkscape (http://www.inkscape.org/) -->
<svg id="svg2408" width="96" height="96" version="1.0" xmlns="http://www.w3.org/2000/svg" xmlns:cc="http://creativecommons.org/ns#" xmlns:dc="http://purl.org/dc/elements/1.1/" xmlns:rdf="http://www.w3.org/1999/02/22-rdf-syntax-ns#" xmlns:xlink="http://www.w3.org/1999/xlink">
 <defs id="defs2410">
  <linearGradient id="linearGradient3852">
   <stop id="stop3854" stop-color="#fff" offset="0"/>
   <stop id="stop3856" stop-color="#fff" stop-opacity="0" offset="1"/>
  </linearGradient>
  <linearGradient id="ButtonShadow" x1="45.448" x2="45.448" y1="92.54" y2="7.0165" gradientTransform="scale(1.0059 .99417)" gradientUnits="userSpaceOnUse">
   <stop id="stop3750" offset="0"/>
   <stop id="stop3752" stop-opacity=".58824" offset="1"/>
  </linearGradient>
  <filter id="filter3174">
   <feGaussianBlur id="feGaussianBlur3176" stdDeviation="1.71"/>
  </filter>
  <filter id="filter3794" x="-.192" y="-.192" width="1.384" height="1.384">
   <feGaussianBlur id="feGaussianBlur3796" stdDeviation="5.28"/>
  </filter>
  <linearGradient id="ButtonShadow-0" x1="45.448" x2="45.448" y1="92.54" y2="7.0165" gradientTransform="matrix(1.0059 0 0 .99417 100 0)" gradientUnits="userSpaceOnUse">
   <stop id="stop3750-8" offset="0"/>
   <stop id="stop3752-5" stop-opacity=".58824" offset="1"/>
  </linearGradient>
  <linearGradient id="linearGradient3780" x1="32.251" x2="32.251" y1="6.1317" y2="90.239" gradientTransform="matrix(1.0238 0 0 1.0119 -1.1429 -98.071)" gradientUnits="userSpaceOnUse" xlink:href="#ButtonShadow-0"/>
  <linearGradient id="linearGradient3721" x1="32.251" x2="32.251" y1="6.1317" y2="90.239" gradientTransform="translate(0,-97)" gradientUnits="userSpaceOnUse" xlink:href="#ButtonShadow-0"/>
  <clipPath id="clipPath4355">
   <rect id="rect4357" x="6" y="6" width="84" height="80" rx="6" ry="6" fill="#fff"/>
  </clipPath>
  <radialGradient id="radialGradient4375" cx="48" cy="87.792" r="42" gradientTransform="matrix(1 -6.7115e-8 8.4282e-8 1.2558 110 -24.506)" gradientUnits="userSpaceOnUse">
   <stop id="stop4369" stop-color="#fff" stop-opacity=".71756" offset="0"/>
   <stop id="stop4371" stop-color="#fff" offset="1"/>
  </radialGradient>
  <linearGradient id="linearGradient4390" x1="48" x2="48" y1="88" y2="-40" gradientTransform="matrix(1,0,0,-1,0,92)" gradientUnits="userSpaceOnUse" xlink:href="#linearGradient3852"/>
  <linearGradient id="linearGradient4429" x1="48" x2="112.12" y1="82" y2="82.455" gradientUnits="userSpaceOnUse" xlink:href="#linearGradient3852" spreadMethod="reflect"/>
  <linearGradient id="linearGradient3858" x1="49" x2="49" y1="46" y2="6" gradientTransform="matrix(1 0 0 .875 0 10.75)" gradientUnits="userSpaceOnUse" spreadMethod="reflect" xlink:href="#linearGradient3852"/>
  <radialGradient id="radialGradient3860" cx="48" cy="40.336" r="42" gradientTransform="matrix(1.9048 0 0 1.7143 -43.429 -37.148)" gradientUnits="userSpaceOnUse">
   <stop id="stop3702" stop-color="#7d9ccb" offset="0"/>
   <stop id="stop4252" stop-color="#6c8cbd" offset=".25"/>
   <stop id="stop4188" stop-color="#416cad" offset=".5"/>
   <stop id="stop3704" stop-color="#1e356e" offset="1"/>
  </radialGradient>
  <linearGradient id="linearGradient3909" x1="49" x2="49" y1="46" y2="6" gradientTransform="matrix(1 0 0 .875 6 10.75)" gradientUnits="userSpaceOnUse" spreadMethod="reflect" xlink:href="#linearGradient3852"/>
  <linearGradient id="linearGradient3913" x1="49" x2="49" y1="46" y2="6" gradientTransform="matrix(1 0 0 .875 12 10.75)" gradientUnits="userSpaceOnUse" spreadMethod="reflect" xlink:href="#linearGradient3852"/>
  <linearGradient id="linearGradient3917" x1="49" x2="49" y1="46" y2="6" gradientTransform="matrix(1 0 0 .875 14 10.75)" gradientUnits="userSpaceOnUse" spreadMethod="reflect" xlink:href="#linearGradient3852"/>
  <linearGradient id="linearGradient3921" x1="49" x2="49" y1="46" y2="6" gradientTransform="matrix(1 0 0 .875 18 10.75)" gradientUnits="userSpaceOnUse" spreadMethod="reflect" xlink:href="#linearGradient3852"/>
  <linearGradient id="linearGradient3925" x1="49" x2="49" y1="46" y2="9" gradientTransform="matrix(1 0 0 .875 22 10.75)" gradientUnits="userSpaceOnUse" spreadMethod="reflect" xlink:href="#linearGradient3852"/>
  <linearGradient id="linearGradient3941" x1="49" x2="49" y1="46" y2="6" gradientTransform="matrix(1 0 0 .875 -4 10.75)" gradientUnits="userSpaceOnUse" spreadMethod="reflect" xlink:href="#linearGradient3852"/>
  <linearGradient id="linearGradient3945" x1="49" x2="49" y1="46" y2="6" gradientTransform="matrix(1 0 0 .875 -8 10.75)" gradientUnits="userSpaceOnUse" spreadMethod="reflect" xlink:href="#linearGradient3852"/>
  <linearGradient id="linearGradient3949" x1="49" x2="49" y1="46" y2="6" gradientTransform="matrix(1 0 0 .875 -10 10.75)" gradientUnits="userSpaceOnUse" spreadMethod="reflect" xlink:href="#linearGradient3852"/>
  <linearGradient id="linearGradient3953" x1="49" x2="49" y1="46" y2="6" gradientTransform="matrix(1 0 0 .875 -16 10.75)" gradientUnits="userSpaceOnUse" spreadMethod="reflect" xlink:href="#linearGradient3852"/>
  <linearGradient id="linearGradient3957" x1="49" x2="49" y1="46" y2="6" gradientTransform="matrix(1 0 0 .875 -20 10.75)" gradientUnits="userSpaceOnUse" spreadMethod="reflect" xlink:href="#linearGradient3852"/>
  <linearGradient id="linearGradient3961" x1="49" x2="49" y1="46" y2="6" gradientTransform="matrix(1 0 0 .875 -22 10.75)" gradientUnits="userSpaceOnUse" spreadMethod="reflect" xlink:href="#linearGradient3852"/>
  <linearGradient id="linearGradient3965" x1="49" x2="49" y1="46" y2="6" gradientTransform="matrix(1 0 0 .875 -24 10.75)" gradientUnits="userSpaceOnUse" spreadMethod="reflect" xlink:href="#linearGradient3852"/>
  <linearGradient id="linearGradient3985" x1="49" x2="49" y1="46" y2="6" gradientTransform="matrix(1 0 0 .875 -2 10.75)" gradientUnits="userSpaceOnUse" spreadMethod="reflect" xlink:href="#linearGradient3852"/>
  <radialGradient id="radialGradient4236" cx="9" cy="46" r="1" gradientTransform="matrix(15 -1.2121e-5 2.7706e-5 26.25 -126 -1156.5)" gradientUnits="userSpaceOnUse" xlink:href="#linearGradient3852"/>
  <radialGradient id="radialGradient4238" cx="85" cy="46" r="1" gradientTransform="matrix(19 -1.2121e-5 2.1873e-5 26.25 -1530 -1156.5)" gradientUnits="userSpaceOnUse" xlink:href="#linearGradient3852"/>
  <radialGradient id="radialGradient4240" cx="83" cy="46" r="1" gradientTransform="matrix(13 1.6203e-5 -4.5582e-5 28 -996 -1237)" gradientUnits="userSpaceOnUse" xlink:href="#linearGradient3852"/>
  <radialGradient id="radialGradient4242" cx="79" cy="46" r="1" gradientTransform="matrix(11.095 -1.4517e-5 5.3834e-5 31.5 -797.51 -1398)" gradientUnits="userSpaceOnUse" xlink:href="#linearGradient3852"/>
  <radialGradient id="radialGradient4244" cx="77" cy="46" r="1" gradientTransform="matrix(15 -3.3574e-5 9.7206e-5 33.25 -1078 -1478.5)" gradientUnits="userSpaceOnUse" xlink:href="#linearGradient3852"/>
  <radialGradient id="radialGradient4246" cx="13" cy="46" r="1" gradientTransform="matrix(27 0 0 28 -338 -1237)" gradientUnits="userSpaceOnUse" xlink:href="#linearGradient3852"/>
  <radialGradient id="radialGradient4248" cx="17" cy="46" r="1" gradientTransform="matrix(19 1.4939e-5 -3.1451e-5 30.625 -306 -1357.8)" gradientUnits="userSpaceOnUse" xlink:href="#linearGradient3852"/>
  <radialGradient id="radialGradient4250" cx="19" cy="46" r="1" gradientTransform="matrix(15 -3.3574e-5 9.7206e-5 33.25 -266.01 -1478.5)" gradientUnits="userSpaceOnUse" xlink:href="#linearGradient3852"/>
  <linearGradient id="linearGradient3082" x1="8" x2="50" y1="1033.4" y2="1033.4" gradientTransform="translate(-2 -956.36)" gradientUnits="userSpaceOnUse" spreadMethod="reflect">
   <stop id="stop3845-6" stop-color="#523823" offset="0"/>
   <stop id="stop3847-1" stop-color="#79563a" offset=".1178"/>
   <stop id="stop3849-7" stop-color="#875c38" offset=".2381"/>
   <stop id="stop3851-6" stop-color="#a66e40" offset="1"/>
  </linearGradient>
  <linearGradient id="linearGradient3359" x1="48" x2="48" y1="20.221" y2="138.66" gradientUnits="userSpaceOnUse">
   <stop id="stop3739" stop-color="#fff" offset="0"/>
   <stop id="stop3741" stop-color="#fff" stop-opacity="0" offset="1"/>
  </linearGradient>
  <linearGradient id="linearGradient3398" x1="85" x2="85" y1="39" y2="7" gradientUnits="userSpaceOnUse">
   <stop id="stop4253" stop-color="#906038" offset="0"/>
   <stop id="stop4255" stop-color="#c6956c" offset="1"/>
  </linearGradient>
  <linearGradient id="linearGradient3420" x1="69" x2="61.891" y1="53" y2="-1" gradientTransform="translate(8 -8)" gradientUnits="userSpaceOnUse" xlink:href="#linearGradient4227"/>
  <linearGradient id="linearGradient4227">
   <stop id="stop4229" offset="0"/>
   <stop id="stop4232-7" stop-opacity="0" offset="1"/>
  </linearGradient>
  <linearGradient id="linearGradient4244" x1="70" x2="56.067" y1="52" gradientTransform="translate(8 -8)" gradientUnits="userSpaceOnUse" xlink:href="#linearGradient4227"/>
  <linearGradient id="linearGradient4162-2" x1="50" x2="66" y1="46" y2="30" gradientTransform="translate(8 -8)" gradientUnits="userSpaceOnUse">
   <stop id="stop4478" stop-color="#f1decd" offset="0"/>
   <stop id="stop4480" stop-color="#f6e8dd" offset=".41506"/>
   <stop id="stop4482" stop-color="#f0dcc9" offset=".625"/>
   <stop id="stop4484-2" stop-color="#dab693" offset=".87264"/>
   <stop id="stop4488-4" stop-color="#bf9d7a" offset=".94252"/>
   <stop id="stop4486-0" stop-color="#8f765e" offset="1"/>
  </linearGradient>
  <linearGradient id="linearGradient4331" x1="64" x2="52" y1="46.894" y2="45.314" gradientTransform="translate(8 -8)" gradientUnits="userSpaceOnUse" xlink:href="#linearGradient4227"/>
  <linearGradient id="linearGradient4323" x1="49" x2="49" y1="46" y2="20" gradientTransform="translate(8 -8)" gradientUnits="userSpaceOnUse">
   <stop id="stop4319" stop-color="#fff" offset="0"/>
   <stop id="stop4321" stop-color="#fff" stop-opacity="0" offset="1"/>
  </linearGradient>
  <linearGradient id="linearGradient4166-5" x1="48" x2="48" y1="88" y2="-40" gradientTransform="matrix(1,0,0,-1,0,92)" gradientUnits="userSpaceOnUse">
   <stop id="stop4386-3-8" stop-color="#fff" offset="0"/>
   <stop id="stop4388-7-5" stop-color="#fff" stop-opacity="0" offset="1"/>
  </linearGradient>
  <clipPath id="clipPath3512">
   <path id="path3514" d="m12 6c-3.324 0-6 2.676-6 6v68c0 3.324 2.676 6 6 6h72c3.324 0 6-2.676 6-6v-40.031l-33.219-32.125-2.5-1.8438h-42.281z" fill="#f0f" opacity=".55405"/>
  </clipPath>
  <clipPath id="clipPath3523">
   <path id="path3525" d="m12 6c-3.324 0-6 2.676-6 6v68c0 3.324 2.676 6 6 6h72c3.324 0 6-2.676 6-6v-40.031l-33.219-32.125-2.5-1.8438h-42.281z" fill="#f0f" opacity=".55405"/>
  </clipPath>
 </defs>
 <metadata id="metadata2413">
  <rdf:RDF>
   <cc:Work rdf:about="">
    <dc:format>image/svg+xml</dc:format>
    <dc:type rdf:resource="http://purl.org/dc/dcmitype/StillImage"/>
    <dc:title/>
   </cc:Work>
  </rdf:RDF>
 </metadata>
 <g id="layer2" display="none">
  <rect id="rect3745" x="5" y="7" width="86" height="85" rx="6" ry="6" fill="url(#ButtonShadow)" filter="url(#filter3174)" opacity=".9"/>
 </g>
 <g id="layer3">
  <path id="path3786" transform="scale(1,-1)" d="m12-95.031c-5.5111 0-10.031 4.5202-10.031 10.031v71c0 5.5111 4.5202 10.031 10.031 10.031h72c5.5111 0 10.031-4.5202 10.031-10.031v-71c0-5.5111-4.5202-10.031-10.031-10.031h-72z" fill="url(#linearGradient3780)" opacity=".08"/>
  <path id="path3778" transform="scale(1,-1)" d="m12-94.031c-4.9716 0-9.0312 4.0596-9.0312 9.0312v71c0 4.9716 4.0596 9.0312 9.0312 9.0312h72c4.9716 0 9.0312-4.0596 9.0312-9.0312v-71c0-4.9716-4.0596-9.0312-9.0312-9.0312h-72z" fill="url(#linearGradient3780)" opacity=".1"/>
  <path id="path3770" transform="scale(1,-1)" d="m12-93c-4.4091 0-8 3.5909-8 8v71c0 4.4091 3.5909 8 8 8h72c4.4091 0 8-3.5909 8-8v-71c0-4.4091-3.5909-8-8-8h-72z" fill="url(#linearGradient3780)" opacity=".2"/>
  <rect id="rect3723" transform="scale(1,-1)" x="5" y="-92" width="86" height="85" rx="7" ry="7" fill="url(#linearGradient3780)" opacity=".3"/>
  <rect id="rect3716" transform="scale(1,-1)" x="6" y="-91" width="84" height="84" rx="6" ry="6" fill="url(#linearGradient3721)" opacity=".45"/>
 </g>
 <g id="layer4">
  <rect id="rect2841" x="6" y="64" width="84" height="26" rx="6" ry="6" color="#000000" fill="url(#linearGradient3082)"/>
  <path id="rect4345" d="m6 82v2c0 3.324 2.676 6 6 6h72c3.324 0 6-2.676 6-6v-2c0 3.324-2.676 6-6 6h-72c-3.324 0-6-2.676-6-6z" color="#000000" opacity=".1"/>
  <path id="rect4336" d="m6 83v1c0 3.324 2.676 6 6 6h72c3.324 0 6-2.676 6-6v-1c0 3.324-2.676 6-6 6h-72c-3.324 0-6-2.676-6-6z" color="#000000" opacity=".1"/>
  <path id="path4412" d="m6 80v1c0 3.324 2.676 6 6 6h72c3.324 0 6-2.676 6-6v-1c0 3.324-2.676 6-6 6h-72c-3.324 0-6-2.676-6-6z" opacity=".2"/>
  <rect id="rect3472" x="37" y="6" width="53" height="45" rx="6" ry="6" color="#000000" fill="url(#linearGradient3398)"/>
 </g>
 <g id="layer1">
  <rect id="rect2419" x="6" y="6" width="84" height="80" rx="6" ry="6" clip-path="url(#clipPath3523)" fill="url(#radialGradient3860)"/>
  <path id="rect4359" d="m120.78 6.125c-2.739 0.55765-4.7812 2.9665-4.7812 5.875v68c0 3.324 2.676 6 6 6h72c3.324 0 6-2.676 6-6v-68c0-2.9085-2.0422-5.3174-4.7812-5.875 2.2051 0.53621 3.8125 2.4908 3.8125 4.875v68c0 2.8049-2.2264 5.0312-5.0312 5.0312h-72c-2.8049 0-5.0312-2.2264-5.0312-5.0312v-68c0-2.3842 1.6074-4.3388 3.8125-4.875z" fill="url(#radialGradient4375)" opacity=".2"/>
 </g>
 <g id="layer7" opacity=".8">
  <g id="g3481" clip-path="url(#clipPath3512)">
   <rect id="rect3082" x="48" y="16" width="2" height="70" color="#000000" fill="url(#linearGradient3858)" opacity=".15"/>
   <rect id="rect3907" x="54" y="16" width="2" height="70" color="#000000" fill="url(#linearGradient3909)" opacity=".2"/>
   <rect id="rect3911" x="60" y="16" width="2" height="70" color="#000000" fill="url(#linearGradient3913)" opacity=".12"/>
   <rect id="rect3915" x="62" y="16" width="2" height="70" color="#000000" fill="url(#linearGradient3917)" opacity=".16"/>
   <rect id="rect3919" x="66" y="16" width="2" height="70" color="#000000" fill="url(#linearGradient3921)" opacity=".08"/>
   <rect id="rect3923" x="70" y="16" width="2" height="70" color="#000000" fill="url(#linearGradient3925)" opacity=".2"/>
   <rect id="rect3927" x="76" y="16" width="2" height="70" color="#000000" fill="url(#radialGradient4244)" opacity=".15"/>
   <rect id="rect3931" x="82" y="16" width="2" height="70" color="#000000" fill="url(#radialGradient4240)" opacity=".12"/>
   <rect id="rect3935" x="84" y="16" width="2" height="70" color="#000000" fill="url(#radialGradient4238)" opacity=".06"/>
   <rect id="rect3939" x="44" y="16" width="2" height="70" color="#000000" fill="url(#linearGradient3941)" opacity=".1"/>
   <rect id="rect3943" x="40" y="16" width="2" height="70" color="#000000" fill="url(#linearGradient3945)" opacity=".2"/>
   <rect id="rect3947" x="38" y="16" width="2" height="70" color="#000000" fill="url(#linearGradient3949)" opacity=".15"/>
   <rect id="rect3951" x="32" y="16" width="2" height="70" color="#000000" fill="url(#linearGradient3953)" opacity=".1"/>
   <rect id="rect3955" x="28" y="16" width="2" height="70" color="#000000" fill="url(#linearGradient3957)" opacity=".16"/>
   <rect id="rect3959" x="26" y="16" width="2" height="70" color="#000000" fill="url(#linearGradient3961)" opacity=".1"/>
   <rect id="rect3963" x="24" y="16" width="2" height="70" color="#000000" fill="url(#linearGradient3965)" opacity=".06"/>
   <rect id="rect3967" x="18" y="16" width="2" height="70" color="#000000" fill="url(#radialGradient4250)" opacity=".2"/>
   <rect id="rect3971" x="16" y="16" width="2" height="70" color="#000000" fill="url(#radialGradient4248)" opacity=".15"/>
   <rect id="rect3975" x="12" y="16" width="2" height="70" color="#000000" fill="url(#radialGradient4246)" opacity=".15"/>
   <rect id="rect3979" x="8" y="16" width="2" height="70" color="#000000" fill="url(#radialGradient4236)" opacity=".1"/>
   <rect id="rect3983" x="46" y="16" width="2" height="70" color="#000000" fill="url(#linearGradient3985)" opacity=".05"/>
   <rect id="rect3987" x="78" y="16" width="2" height="70" color="#000000" fill="url(#radialGradient4242)" opacity=".05"/>
  </g>
 </g>
 <g id="layer5">
  <rect id="rect3171" transform="translate(-140)" x="15" y="15" width="66" height="62" rx="12" ry="12" clip-path="url(#clipPath4355)" fill="url(#linearGradient3359)" filter="url(#filter3794)" opacity=".1" stroke="#fff" stroke-linecap="round" stroke-width=".5"/>
  <path id="rect4377" d="m12 86c-3.324 0-6-2.676-6-6v-68c0-3.324 2.676-6 6-6h72c3.324 0 6 2.676 6 6v68c0 3.324-2.676 6-6 6zm0-0.96875h72c2.8049 0 5.0312-2.2264 5.0312-5.0312v-68c0-2.8049-2.2264-5.0312-5.0312-5.0312h-72c-2.8049 0-5.0312 2.2264-5.0312 5.0312v68c0 2.8049 2.2264 5.0312 5.0312 5.0312z" fill="url(#linearGradient4390)" opacity=".25"/>
  <path id="rect4414" d="m6 78v2c0 3.324 2.676 6 6 6h72c3.324 0 6-2.676 6-6v-2c0 3.324-2.676 6-6 6h-72c-3.324 0-6-2.676-6-6z" fill="url(#linearGradient4429)" opacity=".08"/>
 </g>
 <g id="layer6">
  <path id="rect3991" d="m12 6c-3.324 0-6 2.676-6 6v1 3.6562 2.3438c0-0.14172 0.01242-0.26986 0.03125-0.40625 0.00465-0.02283 0.025837-0.03997 0.03125-0.0625 0.22969-1.4308 1.44-2.5312 2.9375-2.5312h52.281l-4.125-8.1875-2.5625-1.8125h-42.594z" color="#000000"/>
  <path id="f-script-path" d="m17.437 9.5858c-0.75094-0.78114-1.9684-0.7811-2.7193 1.6e-5 -2.64e-4 2.72e-4 -5.89e-4 6.24e-4 -9.23e-4 8e-4l-0.71962 0.74856-0.71739-0.74624c-1.06e-4 -1.12e-4 -1.06e-4 -1.12e-4 -1.77e-4 -1.84e-4 -0.75092-0.78112-1.9654-0.78416-2.7162-0.0032-0.75099 0.78118-0.75098 2.0476-8.4e-5 2.8287 0.75082 0.78102 1.9683 0.78103 2.7192-1.52e-4 2.88e-4 -3.04e-4 5.27e-4 -5.52e-4 9.23e-4 -8e-4l0.7226-0.75166 0.71737 0.74622c1.63e-4 1.68e-4 2.25e-4 2.32e-4 3e-4 3.12e-4 0.75083 0.78102 1.9623 0.78718 2.7132 0.0064 0.75092-0.78112 0.75093-2.0475 1.07e-4 -2.8285zm-4.7978 2.1621c-0.39623 0.41099-1.0381 0.41061-1.434-8e-4 -0.3963-0.41224-0.39925-1.0837-0.0029-1.496 0.39644-0.41239 1.0479-0.4155 1.4442-0.0032 3.14e-4 3.36e-4 6.42e-4 6.72e-4 9.23e-4 8e-4l0.61489 0.63962c2e-4 2.08e-4 3.12e-4 3.28e-4 4.62e-4 4.88e-4 0.05598 0.05824 0.05607 0.15258 1.76e-4 0.21071-1.06e-4 1.12e-4 -1.76e-4 4e-5 -3.26e-4 2e-4l-0.6234 0.64848-2.2e-5 -2.4e-5zm2.7175 0.0016c-2.25e-4 -2.32e-4 -4.63e-4 -4.8e-4 -7.06e-4 -7.28e-4l-0.61528-0.64008c-1.38e-4 -1.44e-4 -3.01e-4 -3.12e-4 -3.62e-4 -3.84e-4 -0.05598-0.05824-0.05598-0.15244 4.8e-5 -0.21071l2.3e-5 -2.4e-5 0.6204-0.64535c0.39657-0.41111 1.0382-0.41072 1.4341 8e-4 0.3963 0.41224 0.3993 1.0838 0.0029 1.4961-0.39633 0.41227-1.0449 0.41221-1.4412-2.4e-5z" fill="#bebebe"/>
  <path id="rect4377-6" d="m12 6c-3.324 0-6 2.676-6 6v1 2.6562 2.3438c0-0.7322 0.38477-1.3703 0.96875-1.7188v-4.2812c0-2.8049 2.2264-5.0312 5.0312-5.0312h43.969l-1.375-0.96875h-42.594z" fill="url(#linearGradient4166-5)" opacity=".15"/>
  <path id="path4195" d="m37.102 12.38c0.11464 1e-6 0.20844-0.0087 0.28139-0.02605 0.07643-0.02084 0.13722-0.0469 0.18238-0.07816 0.04516-0.03474 0.07643-0.07469 0.0938-0.11985 0.01737-0.04516 0.02605-0.09553 0.02605-0.15112-2e-6 -0.11811-0.05559-0.21538-0.16675-0.29181-0.11117-0.0799-0.30224-0.16501-0.5732-0.25534-0.11812-0.04169-0.23623-0.08858-0.35434-0.1407-0.11812-0.05558-0.22407-0.12332-0.31787-0.20323-0.0938-0.08337-0.17022-0.18238-0.22928-0.29702-0.05906-0.11811-0.08859-0.26054-0.08859-0.4273-1e-6 -0.16675 0.03126-0.31613 0.0938-0.44814 0.06253-0.13548 0.15112-0.25012 0.26576-0.34392 0.11464-0.093793 0.2536-0.16501 0.41687-0.21365 0.16328-0.052106 0.34739-0.07816 0.55236-0.078164 0.24318 3.7e-6 0.45335 0.026058 0.63052 0.078164 0.17717 0.052113 0.32308 0.10943 0.43772 0.17196l-0.23449 0.64094c-0.10075-0.05211-0.21365-0.09727-0.33871-0.13548-0.12159-0.04168-0.26923-0.062528-0.44293-0.062531-0.19454 3e-6 -0.33524 0.027795-0.42208 0.083375-0.08338 0.05211-0.12506 0.13375-0.12506 0.24491-1e-6 0.06601 0.01563 0.12159 0.0469 0.16675 0.03126 0.04516 0.07469 0.08685 0.13027 0.12506 0.05906 0.03474 0.12506 0.06774 0.19802 0.09901 0.07643 0.02779 0.1598 0.05732 0.25012 0.08859 0.18759 0.06948 0.35087 0.13896 0.48983 0.20844 0.13896 0.06601 0.2536 0.14417 0.34392 0.23449 0.09379 0.09032 0.16327 0.19628 0.20844 0.31787 0.04516 0.12159 0.06774 0.26923 0.06774 0.44293-3e-6 0.33697-0.11812 0.59926-0.35434 0.78685-0.23623 0.18412-0.59231 0.27618-1.0682 0.27618-0.1598 0-0.30397-0.01042-0.43251-0.03127-0.12854-0.01737-0.24318-0.03995-0.34392-0.06774-0.09727-0.02779-0.18238-0.05732-0.25534-0.08859-0.06948-0.03127-0.12854-0.06079-0.17717-0.08859l0.22928-0.64616c0.10769 0.05906 0.2397 0.1129 0.39603 0.16154 0.1598 0.04516 0.35434 0.06774 0.58362 0.06774" fill="#bebebe"/>
  <path id="path4197" d="m41.438 12.906c-0.13201 0.03821-0.30224 0.07295-0.51067 0.10422-0.20844 0.03474-0.4273 0.05211-0.65658 0.05211-0.23276 0-0.4273-0.03126-0.58362-0.0938-0.15286-0.06253-0.27444-0.14938-0.36476-0.26055-0.09032-0.11464-0.15459-0.25012-0.1928-0.40645-0.03821-0.15633-0.05732-0.32829-0.05732-0.51588v-1.5268h0.77643v1.433c-1e-6 0.25013 0.033 0.43077 0.09901 0.54194 0.066 0.11117 0.18933 0.16675 0.36998 0.16675 0.05558 0 0.11464-0.0017 0.17717-0.0052 0.06253-0.0069 0.11811-0.01389 0.16675-0.02084v-2.1156h0.77643v2.6471" fill="#bebebe"/>
  <path id="path4199" d="m42.172 10.353c0.13201-0.03821 0.30223-0.07295 0.51067-0.10422 0.20844-0.03474 0.42729-0.05211 0.65658-0.05211 0.23275 3e-6 0.42556 0.03127 0.57841 0.0938 0.15632 0.05906 0.27965 0.14417 0.36998 0.25534 0.09032 0.11117 0.15459 0.24318 0.1928 0.39603 0.03821 0.15286 0.05732 0.32308 0.05732 0.51067v1.5476h-0.77643v-1.4538c-2e-6 -0.25012-0.03301-0.42729-0.09901-0.53151-0.06601-0.10422-0.18933-0.15632-0.36998-0.15633-0.05559 3e-6 -0.11464 0.0035-0.17717 0.01042-0.06253 0.0035-0.11812 0.0087-0.16675 0.01563v2.1156h-0.77643v-2.6471" fill="#bebebe"/>
  <g id="g4219" transform="translate(1)" fill="#bebebe">
   <path id="path4201" d="m46.497 10.139c0.10074-0.04168 0.20496-0.08858 0.31266-0.1407 0.11117-0.05558 0.21886-0.11464 0.32308-0.17717 0.10422-0.066002 0.20322-0.13374 0.29702-0.20323 0.09727-0.072949 0.18412-0.14938 0.26055-0.22928h0.54194v3.6112h-0.77643v-2.6003c-0.10422 0.06948-0.2206 0.13375-0.34913 0.1928-0.12854 0.05559-0.2536 0.10422-0.37519 0.14591l-0.23449-0.59926"/>
   <path id="path4203" d="m50.282 13.078c-0.0938 0-0.1928-0.0069-0.29702-0.02084-0.10422-0.01042-0.20496-0.02605-0.30223-0.0469-0.09727-0.02084-0.18586-0.04342-0.26576-0.06774-0.0799-0.02432-0.14243-0.0469-0.18759-0.06774l0.15112-0.64616c0.09032 0.03821 0.20496 0.0799 0.34392 0.12506 0.14243 0.04169 0.31786 0.06253 0.5263 0.06253 0.2397 0 0.41514-0.04516 0.5263-0.13548 0.11116-0.09032 0.16675-0.21191 0.16675-0.36476-2e-6 -0.0938-0.02085-0.17196-0.06253-0.23449-0.03822-0.066-0.09206-0.11811-0.16154-0.15633-0.06948-0.04169-0.15286-0.06948-0.25012-0.08338-0.0938-0.01737-0.19454-0.02605-0.30223-0.02605h-0.30223v-0.62531h0.34392c0.07643 3e-6 0.14938-0.0069 0.21886-0.02084 0.07295-0.01389 0.13722-0.03647 0.1928-0.06774 0.05558-0.03474 0.09901-0.0799 0.13027-0.13548 0.03474-0.05906 0.05211-0.13201 0.05211-0.21886-2e-6 -0.066-0.0139-0.12332-0.04169-0.17196-0.02779-0.04863-0.06427-0.08858-0.10943-0.11985-0.04169-0.03126-0.09206-0.05384-0.15112-0.067742-0.05558-0.017367-0.1129-0.026052-0.17196-0.026055-0.14938 3e-6 -0.28834 0.022584-0.41687 0.067742-0.12506 0.04516-0.2397 0.10075-0.34392 0.16675l-0.27618-0.568c0.05558-0.034736 0.11985-0.071212 0.1928-0.10943 0.07643-0.03821 0.1598-0.072949 0.25012-0.10422 0.09032-0.031262 0.18586-0.057316 0.2866-0.078164 0.10422-0.02084 0.21365-0.031262 0.32829-0.031266 0.21191 3.7e-6 0.39429 0.026058 0.54715 0.078164 0.15633 0.048639 0.28486 0.11985 0.38561 0.21365 0.10074 0.090326 0.17543 0.19802 0.22407 0.32308 0.04863 0.12159 0.07295 0.25534 0.07295 0.40124-2e-6 0.14244-0.03995 0.28139-0.11985 0.41687-0.0799 0.13201-0.1876 0.23276-0.32308 0.30223 0.18759 0.07643 0.33176 0.19107 0.43251 0.34392 0.10422 0.14938 0.15632 0.33003 0.15633 0.54194-2e-6 0.16675-0.02779 0.32134-0.08338 0.46377-0.05558 0.13896-0.14243 0.26055-0.26055 0.36476-0.11812 0.10074-0.26923 0.18064-0.45335 0.2397-0.18065 0.05558-0.39603 0.08337-0.64616 0.08337"/>
   <path id="path4205" d="m53.181 10.738c-1e-6 0.15633-0.05037 0.27618-0.15112 0.35955-0.09727 0.0799-0.20844 0.11985-0.3335 0.11985-0.12506 2e-6 -0.23797-0.03995-0.33871-0.11985-0.09727-0.08337-0.14591-0.20322-0.14591-0.35955 0-0.15632 0.04863-0.27444 0.14591-0.35434 0.10074-0.08337 0.21365-0.12506 0.33871-0.12506 0.12506 3e-6 0.23623 0.04169 0.3335 0.12506 0.10074 0.0799 0.15112 0.19802 0.15112 0.35434m0 1.8499c-1e-6 0.15633-0.05037 0.27618-0.15112 0.35955-0.09727 0.0799-0.20844 0.11985-0.3335 0.11985-0.12506 0-0.23797-0.03995-0.33871-0.11985-0.09727-0.08338-0.14591-0.20323-0.14591-0.35955 0-0.15633 0.04863-0.27444 0.14591-0.35434 0.10074-0.08337 0.21365-0.12506 0.33871-0.12506 0.12506 1e-6 0.23623 0.04169 0.3335 0.12506 0.10074 0.0799 0.15112 0.19802 0.15112 0.35434"/>
   <path id="path4207" d="m54.526 13.078c-0.0938 0-0.1928-0.0069-0.29702-0.02084-0.10422-0.01042-0.20496-0.02605-0.30223-0.0469-0.09727-0.02084-0.18586-0.04342-0.26576-0.06774s-0.14243-0.0469-0.18759-0.06774l0.15112-0.64616c0.09032 0.03821 0.20496 0.0799 0.34392 0.12506 0.14243 0.04169 0.31786 0.06253 0.5263 0.06253 0.2397 0 0.41514-0.04516 0.5263-0.13548 0.11116-0.09032 0.16675-0.21191 0.16675-0.36476-2e-6 -0.0938-0.02085-0.17196-0.06253-0.23449-0.03822-0.066-0.09206-0.11811-0.16154-0.15633-0.06948-0.04169-0.15286-0.06948-0.25012-0.08338-0.0938-0.01737-0.19454-0.02605-0.30223-0.02605h-0.30223v-0.62531h0.34392c0.07643 3e-6 0.14938-0.0069 0.21886-0.02084 0.07295-0.01389 0.13722-0.03647 0.1928-0.06774 0.05558-0.03474 0.09901-0.0799 0.13027-0.13548 0.03474-0.05906 0.05211-0.13201 0.05211-0.21886-2e-6 -0.066-0.0139-0.12332-0.04169-0.17196-0.02779-0.04863-0.06427-0.08858-0.10943-0.11985-0.04169-0.03126-0.09206-0.05384-0.15112-0.067742-0.05558-0.017367-0.1129-0.026052-0.17196-0.026055-0.14938 3e-6 -0.28834 0.022584-0.41687 0.067742-0.12506 0.04516-0.2397 0.10075-0.34392 0.16675l-0.27618-0.568c0.05558-0.034736 0.11985-0.071212 0.1928-0.10943 0.07643-0.03821 0.1598-0.072949 0.25012-0.10422 0.09032-0.031262 0.18586-0.057316 0.2866-0.078164 0.10422-0.02084 0.21365-0.031262 0.32829-0.031266 0.21191 3.7e-6 0.39429 0.026058 0.54715 0.078164 0.15633 0.048639 0.28486 0.11985 0.38561 0.21365 0.10074 0.090326 0.17543 0.19802 0.22407 0.32308 0.04863 0.12159 0.07295 0.25534 0.07295 0.40124-2e-6 0.14244-0.03995 0.28139-0.11985 0.41687-0.0799 0.13201-0.1876 0.23276-0.32308 0.30223 0.18759 0.07643 0.33176 0.19107 0.43251 0.34392 0.10422 0.14938 0.15633 0.33003 0.15633 0.54194-2e-6 0.16675-0.02779 0.32134-0.08337 0.46377-0.05559 0.13896-0.14243 0.26055-0.26055 0.36476-0.11812 0.10074-0.26923 0.18064-0.45335 0.2397-0.18065 0.05558-0.39603 0.08337-0.64616 0.08337"/>
   <path id="path4209" d="m57.04 13c0.02084-0.2536 0.06427-0.51762 0.13027-0.79206 0.066-0.27444 0.1459-0.54367 0.2397-0.80769 0.09727-0.26402 0.20496-0.5124 0.32308-0.74516 0.11811-0.23623 0.23796-0.43945 0.35955-0.60968h-1.5685v-0.66179h2.5273v0.56278c-0.11117 0.12159-0.23449 0.29008-0.36998 0.50546-0.13201 0.21539-0.25881 0.4603-0.3804 0.73474-0.11812 0.27097-0.22234 0.56278-0.31266 0.87544-0.086851 0.31266-0.1407 0.62531-0.16154 0.93797h-0.78685"/>
  </g>
 </g>
 <g id="layer8">
  <g id="g3433">
   <path id="path4250" d="m48.156 6c-0.0024 0.01001 3.2e-5 0.03116 0 0.03125-0.01981 0.05795-0.02351 0.0081-0.03125 0.03125-0.0077 0.02318-0.03079 0.09215-0.03125 0.09375l-0.03125 0.125c-1.3e-5 9e-5 0.0011 0.05037 0 0.0625-0.0022 0.02426 4.49e-4 0.05297 0 0.0625-8.98e-4 0.01907 1.15e-4 0.02415 0 0.03125-2.29e-4 0.0142-1.4e-5 0.02389 0 0.03125-0.0015 0.01979 2.62e-4 0.02404 0 0.03125 1.08e-4 0.01161-1.6e-5 0.02738 0 0.03125-0.0037 0.02964-0.03075 0.05413-0.03125 0.0625-0.0019 0.0097-3e-6 0.03127 0 0.03125-3.96e-4 0.01267 5.7e-5 0.02615 0 0.03125-1.13e-4 0.01021-5e-6 0.02491 0 0.03125-0.0049 0.0305-0.03125 0.06246-0.03125 0.0625-1.4e-4 0.0017-5.1e-5 0.13304 0 0.15625-5.8e-5 0.0017-9e-6 0.07054 0 0.09375s-0.0017-0.089 0 0.03125c-0.0022-0.14957 3.3e-5 8e-3 0 0.03125-3.3e-5 0.02321-1.06e-4 0.12334 0 0.125-1.4e-5 0.0058-1e-6 0.02565 0 0.03125 1e-6 0.0112-9.3e-5 0.12417 0 0.125 6e-6 5.5e-5 0.02488 0.0275 0.03125 0.0625 7.2e-5 0.0057-5.21e-4 0.01672 0 0.03125 0.0025 0.01279-0.0011 0.02719 0 0.03125 0.0045 0.01727-2e-3 0.02454 0 0.03125 4e-3 0.01343 0.02956 0.02598 0.03125 0.03125 0.0034 0.01053-0.0021 0.02486 0 0.03125 3e-3 0.0127-6.87e-4 0.02901 0 0.03125 0.0011 0.0074-4e-6 0.03123 0 0.03125 1.74e-4 8.14e-4 0.02761 0.11408 0.03125 0.125 0.0036 0.01092-0.0039 0.01967 0 0.03125 0.0075 0.02441 0.02532 0.07602 0.03125 0.09375 0.0039 0.01159 0.01904 0.04077 0.03125 0.0625 9.92e-4 9e-3 0.0026 0.03155 0 0.03125 0.0077 0.02319 0.03067 0.06094 0.03125 0.0625 5.83e-4 0.0016-0.0077 8e-3 0 0.03125 0.0038 0.0116 0.02063 0.03352 0.03125 0.0625-0.0076-0.02322 0.03191 0.06403 0.03125 0.0625 0.0013 0.0038-0.0031 0.02252 0 0.03125 0.0031 0.0087 0.03116 0.09356 0.03125 0.09375 9.2e-5 1.87e-4 0.05792 0.08658 0.0625 0.09375 0.0046 0.0072-0.0022 0.02798 0 0.03125 0.0043 0.0066 0.02768-0.0054 0.03125 0 1.2e-5 2.1e-5 0.02359 0.01971 0.03125 0.03125 0.0033 0.0087 0.02166 0.04047 0.03125 0.0625 0.0048 0.01102-4.2e-5 0.03117 0 0.03125 1.2e-5 2.3e-5 0.02321 0.01763 0.03125 0.03125 0.0158 0.01915 0.02461 0.02392 0.03125 0.03125 0.01327 0.01466 0.02615 0.02597 0.03125 0.03125 0.0031 0.0052-5e-6 0.03124 0 0.03125 0.0019 0.0027 0.09173 0.12236 0.09375 0.125 2.53e-4 3.31e-4 0.05666 0.08781 0.0625 0.09375 0.0029 3e-3 0.02909-0.0022 0.03125 0 0.0042 0.0064-0.0077 0.01963 0 0.03125 8e-3 8e-3 0.02347 0.02354 0.03125 0.03125 4e-3 0.0059 0.02527 0.02249 0.03125 0.03125 0.0081 0.0085-0.0036 0.02768 0 0.03125 0.0031 0.0037 0.03126 1.3e-5 0.03125 0 0.01038 0.01368 0.09367 0.12493 0.09375 0.125 7.5e-5 7.3e-5 0.08182 0.08485 0.09375 0.09375 0.0039 0.0039 0.02742-0.0038 0.03125 0 0.0026 0.0026 0.01741 0.01874 0.03125 0.03125 0.01148 0.0076 0.01963 0.02359 0.03125 0.03125 0.0065 0.0059 0.02718-0.0036 0.03125 0 0.0024 0.0024-0.0034 0.0279 0 0.03125 0.0085 8e-3 0.09358 0.09363 0.09375 0.09375l0.125 0.0625c3.3e-5 1.7e-5 0.023-4e-3 0.03125 0 0.0086 0.0057 0.01968 0.02352 0.03125 0.03125 0.02357 0.01044 0.05324 0.02766 0.0625 0.03125 0.01537 0.0098 0.0307 0.03093 0.03125 0.03125 8.64e-4 5.01e-4 -4.93e-4 -0.01643 0.03125 0 5e-3 0.0016 0.0266-0.0015 0.03125 0 0.01155 0.0078 0.02011 0.02382 0.03125 0.03125 0.0056 0.0037-0.0074 0.02641 0 0.03125 0.0037 0.0024 0.02267-0.0054 0.03125 0 0.0086 0.0054 0.12481 0.06241 0.125 0.0625 7.57e-4 3.45e-4 0.08293 0.02764 0.09375 0.03125 0.01082 0.0036 0.01964 0.02742 0.03125 0.03125 0.0031 0.0012 0.32754 0.08982 0.15625 0.03125 0.05795 0.01981 0.0081 0.02351 0.03125 0.03125 0.02318 0.0077 0.09215 0.03079 0.09375 0.03125 0.02317 0.0078 0.15463 0.03087 0.15625 0.03125 5e-3 0.0017 0.02546-2e-3 0.03125 0 0.01623 0.0027 0.03492-0.0044 0.0625 0 0.01655 0.0026 0.01868 0.02943 0.03125 0.03125 0.01047 0.0015 0.0274-2.93e-4 0.03125 0 0.02003 0.0015 0.02331-3.11e-4 0.03125 0 0.01356 0.0017 0.02006-0.0013 0.03125 0 0.03151 0.0062 0.06244 0.03124 0.0625 0.03125 4.12e-4 5.5e-5 0.11682-7e-5 0.125 0 0.0017 1.39e-4 0.13304 5.1e-5 0.15625 0 0.0017 5.8e-5 0.07054 9e-6 0.09375 0s-0.089 0.0017 0.03125 0c1.1913-0.0064 1.8343 0.22103 1.7812 0.1875 0.07062 0.04461 0.10044 0.05103 0.25 0.3125 0.14956 0.26146 0.37039 0.76818 0.59375 1.625 0.87502 3.3567 1.4062 11.447 1.4062 26.906-1.16e-4 0.0331-1.63e-4 0.15282 0 0.15625 9.03e-4 0.03257-9.87e-4 0.06893 0 0.09375-5.4e-5 0.01544 3e-6 0.01709 0 0.03125-1e-6 0.0071-6.3e-5 0.0228 0 0.03125 3.1e-5 0.0042-1.91e-4 0.02208 0 0.03125 1.91e-4 0.0092-3.2e-5 0.12479 0 0.125s0.02782 0.11362 0.03125 0.125c0.0017 0.0057 0.03022-0.0033 0.03125 0 1e-3 0.0033-7.5e-4 0.02892 0 0.03125 1.69e-4 0.0058-5.45e-4 0.02078 0 0.03125s-2.6e-5 0.03099 0 0.03125c8e-6 7.9e-5 0.02611 0.0374 0.03125 0.0625 0.0037 0.01118-0.0039 0.01966 0 0.03125 0.01122 0.05483 0.03123 0.12494 0.03125 0.125 0.0246 0.07871-3e-3 0.02209 0 0.03125 3e-3 0.0092-0.0039 0.01965 0 0.03125 0.0077 0.0232 0.03066 0.06089 0.03125 0.0625 3.7e-5 1.01e-4 0.05297 0.13956 0.0625 0.15625 0.0048 0.0083 0.02841-0.0047 0.03125 0 0.0028 0.0047-0.0019 0.02813 0 0.03125 0.0077 0.01248-0.0032 0.02638 0 0.03125 0.0019 0.0044 0.02919-0.0049 0.03125 0 0.0016 0.0049-0.0017 0.02627 0 0.03125 0.0052 0.01218-2.8e-5 0.03119 0 0.03125 0.0022 6e-3 -6e-3 0.01641 0 0.03125s0.06245 0.09366 0.0625 0.09375c8.33e-4 0.0015 0.04702 0.10186 0.0625 0.125 0.01548 0.02314 0.03034 0.0298 0.03125 0.03125 5.7e-5 9.1e-5 0.08056 0.10953 0.09375 0.125 0.01319 0.01547 0.02567 0.02518 0.03125 0.03125 0.0038 0.0055 0.02726-0.0058 0.03125 0 0.0029 0.0029-0.0024 0.02885 0 0.03125 0.0063 0.0092-0.0049 0.02415 0 0.03125 0.0038 0.0058 0.02745-0.0057 0.03125 0 0.0035 0.0051-3.09e-4 0.03085 0 0.03125 0.0035 0.0053-0.0043 0.02492 0 0.03125 0.0043 0.0063 0.09347 0.09343 0.09375 0.09375 0.0011 0.0013 0.04697 0.07828 0.0625 0.09375s0.03007-0.0012 0.03125 0c0.0024 0.0025 0.09126 0.09139 0.09375 0.09375 7.8e-5 7.4e-5 0.08254 0.08543 0.09375 0.09375 4e-3 4e-3 0.02724-4e-3 0.03125 0 4e-3 4e-3 0.02529 0.0254 0.03125 0.03125 0.01135 0.0076 0.01963 0.02358 0.03125 0.03125 0.02699 0.02353 0.06229 0.03109 0.0625 0.03125 2e-3 0.0015 0.05503 0.036 0.09375 0.0625 0.0057 0.0052 0.01563 0.01791 0.03125 0.03125 0.0052 0.0053 0.02037 0.02075 0.03125 0.03125 0.0054 0.0052 0.01615 0.01763 0.03125 0.03125 0.0075 0.0068 0.01169 0.0152 0.03125 0.03125 0.01159 0.0076 0.03067-3.6e-4 0.03125 0 0.0406 0.02862 0.12492 0.09371 0.125 0.09375 2.2e-5 1.2e-5 0.02322-0.0039 0.03125 0 0.02678 0.0129 0.05137 0.05805 0.0625 0.0625 0.0079 0.0044 0.03129 2.2e-5 0.03125 0 0.0051 0.0032 0.01795-0.0078 0.03125 0 0.0091 0.0038 0.01848-0.0053 0.03125 0 0.0073 0.0024 0.02428 0.02897 0.03125 0.03125 0.02782 0.01387 0.06245 0.03123 0.0625 0.03125 0.0016 6.68e-4 0.07053 0.05481 0.09375 0.0625 0.02322 0.0077 0.02964-5.87e-4 0.03125 0 0.0032 0.0012 0.15297 0.03024 0.15625 0.03125 0.0016 5.04e-4 -0.02319 0.02347 0 0.03125 0.02319 0.0078 0.12334 0.03083 0.125 0.03125 5.2e-5 1.3e-5 0.12489 0.03124 0.125 0.03125 1.07e-4 1.2e-5 0.05281-6.56e-4 0.0625 0 0.0055 0.0016 0.02989-0.0072 0.0625 0 0.03669 0.0081 0.06239 0.03123 0.0625 0.03125 2.12e-4 3.1e-5 0.11457-2.7e-4 0.125 0 0.01043 2.7e-4 0.02683-4.2e-5 0.03125 0 0.0052 0.0015 0.02276-0.0023 0.03125 0 8e-3 3e-4 0.01904-4.29e-4 0.03125 0 1.33e-4 2.9e-5 0.06241 0.03124 0.0625 0.03125 9.4e-5 1.5e-5 0.1562 0 0.15625 0s0.12489 1.5e-5 0.125 0 0.05346-0.02959 0.0625-0.03125c0.02601-0.0019 0.03653 0.0019 0.0625 0 13.904-0.99169 21.958-1.1946 25.75-0.5625 1.9023 0.31704 2.6257 0.86494 2.7188 0.96875 0.1849 0.20623 0.3125 0.43291 0.3125 1.625a0.99689 0.99689 0 0 0 0 0.03125c-5.9e-5 -0.0034 3.85e-4 0.15963 0 0.15625-3.85e-4 -0.0034 0.03196 0.19083 0.03125 0.1875-7.07e-4 -0.0033 0.06352 0.19074 0.0625 0.1875-1e-3 -0.0032 0.06383 0.15938 0.0625 0.15625-0.0013-0.0031 0.06412 0.15924 0.0625 0.15625-0.0016-3e-3 0.09565 0.15907 0.09375 0.15625-0.0019-0.0028 0.12716 0.15888 0.125 0.15625-0.0022-0.0026 0.1274 0.1274 0.125 0.125-0.0024-0.0024 0.12762 0.12716 0.125 0.125-0.0026-0.0022 0.15907 0.1269 0.15625 0.125-0.0028-0.0019 0.15924 0.09537 0.15625 0.09375-3e-3 -0.0016 0.15938 0.06383 0.15625 0.0625-0.0031-0.0013 0.15949 0.06352 0.15625 0.0625-0.0032-1e-3 0.19083 0.06321 0.1875 0.0625-0.0033-7.07e-4 0.19088 0.03164 0.1875 0.03125-0.0034-3.85e-4 0.15965 5.9e-5 0.15625 0a0.99689 0.99689 0 0 0 0.03125 0h1.0938v-11.625c-0.19743-0.21577-0.40949-0.43266-0.625-0.65625-2.4524-2.5444-6.4109-5.9619-13.312-12.719-6.9089-6.764-10.585-10.736-13.406-13.25-0.70074-0.62443-1.3862-1.1658-2.0625-1.625h-12.438z" enable-background="new" fill="url(#linearGradient3420)" opacity=".05"/>
   <path id="path4225" d="m49.281 6c-0.0017 0.0029-0.06097 0.09079-0.0625 0.09375-0.0015 3e-3 -0.02987 0.09072-0.03125 0.09375-0.0014 3e-3 -0.06127 0.09066-0.0625 0.09375-0.0012 0.0031-0.03017 0.05935-0.03125 0.0625-0.0011 0.0031-0.03033 0.09055-0.03125 0.09375-9.21e-4 0.0032 7.63e-4 0.09051 0 0.09375-7.63e-4 0.0032-0.03065 0.12173-0.03125 0.125-6.03e-4 0.0033 4.41e-4 0.09045 0 0.09375s-0.03097 0.09043-0.03125 0.09375c-2.79e-4 0.0033 1.16e-4 0.09042 0 0.09375-1.16e-4 0.0033-4.8e-5 0.09042 0 0.09375 4.8e-5 0.0033-2.11e-4 0.09043 0 0.09375 2.11e-4 0.0033-3.74e-4 0.09044 0 0.09375 3.74e-4 0.0033 0.03072 0.09047 0.03125 0.09375 5.35e-4 0.0033-6.96e-4 0.0905 0 0.09375 6.96e-4 0.0033 0.03039 0.09053 0.03125 0.09375 8.55e-4 0.0032 0.03024 0.09058 0.03125 0.09375 1e-3 0.0032 0.03008 0.09063 0.03125 0.09375 0.0012 0.0031 0.02993 0.09069 0.03125 0.09375 0.0013 0.0031 0.02978 0.09076 0.03125 0.09375 0.0015 3e-3 0.06089 0.09084 0.0625 0.09375 0.0016 0.0029 0.06075 0.05967 0.0625 0.0625 0.0018 0.0028 0.02936 0.09101 0.03125 0.09375 0.0019 0.0027 0.06048 0.0911 0.0625 0.09375 2e-3 0.0026 0.06035 0.05996 0.0625 0.0625 0.0021 0.0025 0.06023 0.06007 0.0625 0.0625 0.0023 0.0024 0.06011 0.09143 0.0625 0.09375 0.0024 0.0023 0.09125 0.0603 0.09375 0.0625s0.0599 0.06042 0.0625 0.0625c0.0026 0.0021 0.0598 0.06056 0.0625 0.0625 0.0027 0.0019 0.09096 0.02944 0.09375 0.03125 0.0028 0.0018 0.09087 0.06083 0.09375 0.0625 0.0029 0.0017 0.05954 0.02972 0.0625 0.03125 3e-3 0.0015 0.09072 0.06112 0.09375 0.0625 3e-3 0.0014 0.09066 0.03002 0.09375 0.03125 0.0031 0.0012 0.0906 0.03017 0.09375 0.03125 0.0031 0.0011 0.09055 0.03033 0.09375 0.03125 0.0032 9.21e-4 0.09051 0.03049 0.09375 0.03125 0.0032 7.63e-4 0.09048-6.03e-4 0.09375 0 0.0033 6.03e-4 0.09045 0.03081 0.09375 0.03125 0.0033 4.41e-4 0.09043-2.79e-4 0.09375 0 0.0033 2.79e-4 0.09042-1.16e-4 0.09375 0 0.0033 1.16e-4 0.09042 4.8e-5 0.09375 0 1.2689-0.0068 1.986 0.13751 2.3125 0.34375 0.36466 0.23033 0.80719 0.71271 1.2812 2.5312 0.9446 3.6236 1.4375 11.676 1.4375 27.156-1.2e-5 0.0034-1.63e-4 0.09032 0 0.09375 1.63e-4 0.0034-3.38e-4 0.09034 0 0.09375 3.38e-4 0.0034-5.11e-4 0.12161 0 0.125 5.11e-4 0.0034 0.03057 0.09039 0.03125 0.09375 6.84e-4 0.0034 0.0304 0.09043 0.03125 0.09375 8.54e-4 0.0033-1e-3 0.09048 0 0.09375 1e-3 0.0033 0.03006 0.09053 0.03125 0.09375 0.0012 0.0032 0.06115 0.0906 0.0625 0.09375 0.0014 0.0032 0.02974 0.09067 0.03125 0.09375 0.0015 0.0031 0.02958 0.09075 0.03125 0.09375 0.0017 3e-3 0.06068 0.09084 0.0625 0.09375 0.0018 0.0029 0.06054 0.05969 0.0625 0.0625 2e-3 0.0028 0.0604 0.09104 0.0625 0.09375 0.0021 0.0027 0.06026 0.09115 0.0625 0.09375 0.0022 0.0026 0.06013 0.06002 0.0625 0.0625 0.0024 0.0025 0.06001 0.06014 0.0625 0.0625 0.0025 0.0024 0.09114 0.06027 0.09375 0.0625 0.0026 0.0022 0.05978 0.06041 0.0625 0.0625 0.0027 0.0021 0.09093 0.06055 0.09375 0.0625 0.0028 0.0019 0.09083 0.0607 0.09375 0.0625 0.0029 0.0018 0.05949 0.06085 0.0625 0.0625 3e-3 0.0017 0.09067 0.02975 0.09375 0.03125 0.0031 0.0015 0.09059 0.06116 0.09375 0.0625 0.0032 0.0013 0.09053 0.03008 0.09375 0.03125 0.0032 0.0012 0.09047 0.03024 0.09375 0.03125 0.0033 1e-3 0.09043 0.03041 0.09375 0.03125 0.0033 8.39e-4 0.12164-6.69e-4 0.125 0 0.0034 6.69e-4 0.09036 0.03075 0.09375 0.03125 0.0034 4.96e-4 0.09034-3.22e-4 0.09375 0 0.0034 3.22e-4 0.09032-1.48e-4 0.09375 0 0.0034 1.48e-4 0.09032 0.03128 0.09375 0.03125 0.0034-2.7e-5 0.12158-0.03105 0.125-0.03125 13.969-0.99782 21.988-1.2051 26.031-0.53125 2.0237 0.33729 2.9502 0.87712 3.3125 1.2812 0.37686 0.42035 0.5625 0.99338 0.5625 2.2812a0.89051 0.89051 0 0 0 0.875 0.875h1.0938v-9.0625c-0.39094-0.48748-0.82739-0.99553-1.3437-1.5312-2.3885-2.4781-6.3637-5.9151-13.281-12.688-6.9218-6.7766-10.624-10.767-13.375-13.219-1.1772-1.049-2.2473-1.8276-3.3125-2.375h-9.4062z" enable-background="new" fill="url(#linearGradient3420)" opacity=".1"/>
   <path id="path4176" d="m50.531 6a1.0939 1.0939 0 0 0 0.46875 2.0938c1.3156-0.0071 2.1843 0.09171 2.7812 0.46875 0.59693 0.37704 1.185 1.135 1.6875 3.0625 1.0049 3.855 1.4375 11.878 1.4375 27.375a1.092 1.092 0 0 0 1.1562 1.0938c13.983-0.99882 21.996-1.2403 26.25-0.53125 2.1271 0.35452 3.2422 0.92635 3.8125 1.5625s0.78125 1.4963 0.78125 2.875h1.0938v-6.6562c-0.48182-0.75811-1.1252-1.5299-2-2.4375-2.3329-2.4204-6.3193-5.9022-13.25-12.688-6.933-6.7876-10.656-10.792-13.344-13.188-2.0162-1.7966-3.6046-2.7019-5.3438-3.0312h-5.5312z" enable-background="new" fill="url(#linearGradient4244)" opacity=".15"/>
   <path id="path4170" d="m51 7c5.398-0.02908 7 0.96895 7 32 28-2 32-1 32 5v-2.625c0-4.3624-2.1071-4.7734-16-18.375s-15.057-16.128-19.73-16.053z" enable-background="new" opacity=".3"/>
   <path id="path4154" d="m51 6c5.398-0.02908 7 0.96895 7 32 28-2 32-1 32 5v-2.625c0-4.3624-2.1071-4.7734-16-18.375s-15.057-16.128-19.73-16.053z" enable-background="new" fill="url(#linearGradient4162-2)"/>
   <path id="path4297" d="m54.281 5.9375-3.2812 0.0625c4.7232-0.02544 6.5258 0.73974 6.9062 21.719-0.23216-14.677-1.1139-19.946-3.125-21.75-0.17042-0.0053-0.3201-0.03415-0.5-0.03125zm23.562 30.125c-4.6729-0.02197-11.094 0.3125-19.844 0.9375 4.77e-4 0.36842 0 0.62275 0 1 28-2 32-1 32 5v-1c0-4.125-1.876-5.8892-12.156-5.9375z" enable-background="new" fill="url(#linearGradient4331)" opacity=".2"/>
   <path id="path4306" d="m54.281 5.9375-3.2812 0.0625c0.34929-0.0019 0.68191-0.01458 1 0l2.625-0.0625c-0.11879-0.0018-0.22037-2e-3 -0.34375 0zm-2.2812 0.0625c4.5978 0.21071 6 2.9769 6 32 0.37208-0.02658 0.63635-0.03699 1-0.0625-0.0024-30.962-1.6061-31.967-7-31.938z" enable-background="new" fill="url(#linearGradient4323)"/>
  </g>
 </g>
</svg>
