<?xml version="1.0" encoding="UTF-8"?>
<!-- Created with Inkscape (http://www.inkscape.org/) -->
<svg id="svg2408" width="96" height="96" version="1.0" xmlns="http://www.w3.org/2000/svg" xmlns:cc="http://creativecommons.org/ns#" xmlns:dc="http://purl.org/dc/elements/1.1/" xmlns:rdf="http://www.w3.org/1999/02/22-rdf-syntax-ns#" xmlns:xlink="http://www.w3.org/1999/xlink">
 <defs id="defs2410">
  <linearGradient id="linearGradient3726">
   <stop id="stop3728" stop-color="#fff" offset="0"/>
   <stop id="stop3730" stop-color="#fff" stop-opacity="0" offset="1"/>
  </linearGradient>
  <linearGradient id="ButtonShadow" x1="45.448" x2="45.448" y1="92.54" y2="7.0165" gradientTransform="scale(1.0059 .99417)" gradientUnits="userSpaceOnUse">
   <stop id="stop3750" offset="0"/>
   <stop id="stop3752" stop-opacity=".58824" offset="1"/>
  </linearGradient>
  <filter id="filter3174" color-interpolation-filters="sRGB">
   <feGaussianBlur id="feGaussianBlur3176" stdDeviation="1.71"/>
  </filter>
  <linearGradient id="linearGradient3188" x1="36.357" x2="36.357" y1="6" y2="63.893" gradientUnits="userSpaceOnUse" xlink:href="#linearGradient3726"/>
  <filter id="filter3794" x="-.192" y="-.192" width="1.384" height="1.384" color-interpolation-filters="sRGB">
   <feGaussianBlur id="feGaussianBlur3796" stdDeviation="5.28"/>
  </filter>
  <linearGradient id="linearGradient3613" x1="48" x2="48" y1="20.221" y2="138.66" gradientUnits="userSpaceOnUse" xlink:href="#linearGradient3726"/>
  <radialGradient id="radialGradient3619" cx="48" cy="90.172" r="42" gradientTransform="matrix(1.1573 0 0 .99591 -7.551 .19713)" gradientUnits="userSpaceOnUse" xlink:href="#linearGradient3726"/>
  <clipPath id="clipPath3613">
   <rect id="rect3615" x="6" y="6" width="84" height="84" rx="6" ry="6" fill="#fff"/>
  </clipPath>
  <linearGradient id="linearGradient3617" x1="48" x2="48" y1="90" y2="5.9877" gradientUnits="userSpaceOnUse">
   <stop id="stop3702" stop-color="#509528" offset="0"/>
   <stop id="stop3704" stop-color="#78cd46" offset="1"/>
  </linearGradient>
  <linearGradient id="ButtonShadow-0" x1="45.448" x2="45.448" y1="92.54" y2="7.0165" gradientTransform="matrix(1.0059 0 0 .99417 100 0)" gradientUnits="userSpaceOnUse">
   <stop id="stop3750-8" offset="0"/>
   <stop id="stop3752-5" stop-opacity=".58824" offset="1"/>
  </linearGradient>
  <linearGradient id="linearGradient3780" x1="32.251" x2="32.251" y1="6.1317" y2="90.239" gradientTransform="matrix(1.0238 0 0 1.0119 -1.1429 -98.071)" gradientUnits="userSpaceOnUse" xlink:href="#ButtonShadow-0"/>
  <linearGradient id="linearGradient3721" x1="32.251" x2="32.251" y1="6.1317" y2="90.239" gradientTransform="translate(0,-97)" gradientUnits="userSpaceOnUse" xlink:href="#ButtonShadow-0"/>
  <linearGradient id="linearGradient3724" x1="-45.877" x2="-3.8495" y1="75.985" y2="22.235" gradientTransform="matrix(.87247 0 0 .87247 96.796 21.701)" gradientUnits="userSpaceOnUse">
   <stop id="stop3720" stop-color="#b3b3b3" offset="0"/>
   <stop id="stop3722" stop-color="#efefef" offset="1"/>
  </linearGradient>
  <linearGradient id="linearGradient3732" x1="-16.228" x2="-49.582" y1="38.29" y2="66.304" gradientTransform="matrix(.87247 0 0 .87247 96.796 21.701)" gradientUnits="userSpaceOnUse" xlink:href="#linearGradient3726"/>
  <linearGradient id="linearGradient3740" x1="-11.67" x2="-33.249" y1="39.988" y2="72.852" gradientTransform="matrix(.87247 0 0 .87247 96.796 21.701)" gradientUnits="userSpaceOnUse" xlink:href="#linearGradient3726"/>
 </defs>
 <metadata id="metadata2413">
  <rdf:RDF>
   <cc:Work rdf:about="">
    <dc:format>image/svg+xml</dc:format>
    <dc:type rdf:resource="http://purl.org/dc/dcmitype/StillImage"/>
    <dc:title/>
   </cc:Work>
  </rdf:RDF>
 </metadata>
 <g id="layer2" display="none">
  <rect id="rect3745" x="5" y="7" width="86" height="85" rx="6" ry="6" fill="url(#ButtonShadow)" filter="url(#filter3174)" opacity=".9"/>
 </g>
 <g id="layer3">
  <path id="path3786" transform="scale(1,-1)" d="m12-95.031c-5.5111 0-10.031 4.5202-10.031 10.031v71c0 5.5111 4.5202 10.031 10.031 10.031h72c5.5111 0 10.031-4.5202 10.031-10.031v-71c0-5.5111-4.5202-10.031-10.031-10.031h-72z" fill="url(#linearGradient3780)" opacity=".08"/>
  <path id="path3778" transform="scale(1,-1)" d="m12-94.031c-4.9716 0-9.0312 4.0596-9.0312 9.0312v71c0 4.9716 4.0596 9.0312 9.0312 9.0312h72c4.9716 0 9.0312-4.0596 9.0312-9.0312v-71c0-4.9716-4.0596-9.0312-9.0312-9.0312h-72z" fill="url(#linearGradient3780)" opacity=".1"/>
  <path id="path3770" transform="scale(1,-1)" d="m12-93c-4.4091 0-8 3.5909-8 8v71c0 4.4091 3.5909 8 8 8h72c4.4091 0 8-3.5909 8-8v-71c0-4.4091-3.5909-8-8-8h-72z" fill="url(#linearGradient3780)" opacity=".2"/>
  <rect id="rect3723" transform="scale(1,-1)" x="5" y="-92" width="86" height="85" rx="7" ry="7" fill="url(#linearGradient3780)" opacity=".3"/>
  <rect id="rect3716" transform="scale(1,-1)" x="6" y="-91" width="84" height="84" rx="6" ry="6" fill="url(#linearGradient3721)" opacity=".45"/>
 </g>
 <g id="layer1">
  <rect id="rect2419" x="6" y="6" width="84" height="84" rx="6" ry="6" fill="url(#linearGradient3617)"/>
  <path id="rect3728" d="m12 6c-3.324 0-6 2.676-6 6v2 68 2c0 0.33472 0.04135 0.6507 0.09375 0.96875 0.0487 0.2956 0.09704 0.59692 0.1875 0.875 0.00988 0.03038 0.020892 0.0636 0.03125 0.09375 0.098865 0.28777 0.23488 0.54745 0.375 0.8125 0.14459 0.27351 0.31562 0.53562 0.5 0.78125s0.37378 0.47347 0.59375 0.6875c0.43995 0.42806 0.94291 0.81453 1.5 1.0938 0.27854 0.13961 0.57347 0.24695 0.875 0.34375-0.2562-0.10022-0.48671-0.23627-0.71875-0.375-0.00741-0.0044-0.023866 0.0045-0.03125 0-0.031933-0.0193-0.062293-0.04251-0.09375-0.0625-0.1204-0.0767-0.23102-0.16351-0.34375-0.25-0.10617-0.0808-0.21328-0.16111-0.3125-0.25-0.17793-0.16143-0.34746-0.34539-0.5-0.53125-0.10758-0.13026-0.21839-0.26528-0.3125-0.40625-0.025089-0.03838-0.038446-0.08587-0.0625-0.125-0.064763-0.10303-0.13023-0.20452-0.1875-0.3125-0.10101-0.19471-0.20567-0.4157-0.28125-0.625-0.00796-0.02181-0.023589-0.04055-0.03125-0.0625-0.031825-0.09195-0.035804-0.18683-0.0625-0.28125-0.030332-0.10662-0.070389-0.20303-0.09375-0.3125-0.072879-0.34151-0.125-0.6982-0.125-1.0625v-2-68-2c0-2.7818 2.2182-5 5-5h2 68 2c2.7818 0 5 2.2182 5 5v2 68 2c0 0.3643-0.05212 0.72099-0.125 1.0625-0.04415 0.20689-0.08838 0.39766-0.15625 0.59375-0.0077 0.02195-0.0233 0.04069-0.03125 0.0625-0.06274 0.17374-0.13838 0.36745-0.21875 0.53125-0.04158 0.0828-0.07904 0.16995-0.125 0.25-0.0546 0.09721-0.12677 0.18835-0.1875 0.28125-0.09411 0.14096-0.20492 0.276-0.3125 0.40625-0.14317 0.17445-0.30314 0.347-0.46875 0.5-0.01117 0.0102-0.01998 0.02115-0.03125 0.03125-0.13839 0.12556-0.28509 0.23444-0.4375 0.34375-0.10257 0.07315-0.20432 0.15336-0.3125 0.21875-0.0074 0.0045-0.02384-0.0044-0.03125 0-0.23204 0.13873-0.46255 0.27478-0.71875 0.375 0.30153-0.0968 0.59646-0.20414 0.875-0.34375 0.55709-0.27922 1.0601-0.66569 1.5-1.0938 0.21997-0.21403 0.40937-0.44186 0.59375-0.6875s0.35541-0.50774 0.5-0.78125c0.14012-0.26505 0.27614-0.52473 0.375-0.8125 0.01041-0.03078 0.02133-0.06274 0.03125-0.09375 0.09046-0.27808 0.1388-0.5794 0.1875-0.875 0.0524-0.31805 0.09375-0.63403 0.09375-0.96875v-2-68-2c0-3.324-2.676-6-6-6h-72z" fill="url(#linearGradient3188)" opacity=".4"/>
  <path id="path3615" d="m12 90c-3.324 0-6-2.676-6-6v-2-68-2c0-0.33472 0.04135-0.6507 0.09375-0.96875 0.0487-0.2956 0.09704-0.59692 0.1875-0.875 0.00988-0.03038 0.020892-0.0636 0.03125-0.09375 0.098865-0.28777 0.23488-0.54745 0.375-0.8125 0.14459-0.27351 0.31562-0.53562 0.5-0.78125s0.37378-0.47347 0.59375-0.6875c0.43995-0.42806 0.94291-0.81453 1.5-1.0938 0.27854-0.13961 0.57347-0.24695 0.875-0.34375-0.2562 0.10022-0.48671 0.23627-0.71875 0.375-0.00741 0.0044-0.023866-0.0045-0.03125 0-0.031933 0.0193-0.062293 0.04251-0.09375 0.0625-0.1204 0.0767-0.23102 0.16351-0.34375 0.25-0.10617 0.0808-0.21328 0.16111-0.3125 0.25-0.17793 0.16143-0.34746 0.34539-0.5 0.53125-0.10758 0.13026-0.21839 0.26528-0.3125 0.40625-0.025089 0.03838-0.038446 0.08587-0.0625 0.125-0.064763 0.10303-0.13023 0.20452-0.1875 0.3125-0.10101 0.19471-0.20567 0.4157-0.28125 0.625-0.00796 0.02181-0.023589 0.04055-0.03125 0.0625-0.031825 0.09195-0.035804 0.18683-0.0625 0.28125-0.030332 0.10662-0.070389 0.20303-0.09375 0.3125-0.072879 0.34151-0.125 0.6982-0.125 1.0625v2 68 2c0 2.7818 2.2182 5 5 5h2 68 2c2.7818 0 5-2.2182 5-5v-2-68-2c0-0.3643-0.05212-0.72099-0.125-1.0625-0.04415-0.20689-0.08838-0.39766-0.15625-0.59375-0.0077-0.02195-0.0233-0.04069-0.03125-0.0625-0.06274-0.17374-0.13838-0.36745-0.21875-0.53125-0.04158-0.0828-0.07904-0.16995-0.125-0.25-0.0546-0.09721-0.12677-0.18835-0.1875-0.28125-0.09411-0.14096-0.20492-0.276-0.3125-0.40625-0.14317-0.17445-0.30314-0.347-0.46875-0.5-0.01117-0.0102-0.01998-0.02115-0.03125-0.03125-0.13839-0.12556-0.28509-0.23444-0.4375-0.34375-0.10257-0.07315-0.20432-0.15336-0.3125-0.21875-0.0074-0.0045-0.02384 0.0044-0.03125 0-0.23204-0.13873-0.46255-0.27478-0.71875-0.375 0.30153 0.0968 0.59646 0.20414 0.875 0.34375 0.55709 0.27922 1.0601 0.66569 1.5 1.0938 0.21997 0.21403 0.40937 0.44186 0.59375 0.6875s0.35541 0.50774 0.5 0.78125c0.14012 0.26505 0.27614 0.52473 0.375 0.8125 0.01041 0.03078 0.02133 0.06274 0.03125 0.09375 0.09046 0.27808 0.1388 0.5794 0.1875 0.875 0.0524 0.31805 0.09375 0.63403 0.09375 0.96875v2 68 2c0 3.324-2.676 6-6 6h-72z" fill="url(#radialGradient3619)" opacity=".2"/>
 </g>
 <g id="layer5">
  <rect id="rect3171" x="15" y="15" width="66" height="66" rx="12" ry="12" clip-path="url(#clipPath3613)" fill="url(#linearGradient3613)" filter="url(#filter3794)" opacity=".1" stroke="#fff" stroke-linecap="round" stroke-width=".5"/>
 </g>
 <g id="layer4">
  <path id="path3752" d="m93.438 39.875c-1.6247 0.05732-2.2351 1.9074-3.3482 2.8071-6.2506 7.0065-14.295 12.127-22.802 15.96-5.0023 2.3528-10.636 4.7668-13.21 10.028-2.6587 4.8098-1.7409 10.51-0.55176 15.6 0.6204 1.9779 0.62553 4.2198 1.6301 6.0418 1.1091 1.2376 2.9676 0.59224 4.4191 0.77068 7.4275 0.0091 15.317-2.0391 20.48-7.703 6.1282-6.6187 8.1318-15.72 10.337-24.19 1.4153-5.6991 2.8815-11.412 5.0454-16.878 0.23195-1.2345-0.74171-2.4252-2-2.4375z" opacity=".05"/>
  <path id="path3748" d="m93.281 40.812a1.1254 1.1254 0 0 0-0.6875 0.40625c-7.7374 9.1404-15.426 13.584-21.938 16.812s-11.997 5.1556-14.938 9.625c-2.016 3.0647-2.6469 6.0714-2.4375 9.4375s1.1811 7.1181 2.3438 12.156a1.1254 1.1254 0 0 0 1.0312 0.875c7.9916 0.35225 13.901-1.0448 18.344-3.7812s7.3726-6.7743 9.5-11.469c4.2548-9.3889 5.5528-21.491 9.9688-32.531a1.1254 1.1254 0 0 0-1.1875-1.5312z" opacity=".15"/>
  <path id="path3742" d="m56.732 89.012c-2.3318-10.105-3.8834-14.955-0.086366-20.727 5.3117-8.0748 21.073-7.7727 36.791-26.341-8.9818 22.455-5.3546 48.45-36.705 47.068z" opacity=".3"/>
  <path id="path3706" d="m30.406 12.969c-6.2255-0.18408-12.202 3.4632-15.107 8.9354-3.7416 6.8272-4.061 15.151-2.2398 22.602 1.3672 5.3317 4.4771 10.547 9.6721 12.894 2.6822 1.7129 6.9172 0.38007 7.3275 4.3688 2.087 4.4403 7.4457 5.7857 11.956 5.2827 1.4835-0.01423 3.6915-0.24815 3.8282-2.1453-0.10477-1.7418 0.22206-3.5623-0.1875-5.25-0.65066-2.3484-4.237-0.03651-4.4369-2.5676-1.066-1.9207 1.22-2.7657 2.2807-3.9636 4.1511-5.0727 5.5179-11.961 5.0625-18.375 0.8335 0.82071 2.1035 0.44687 3.1562 0.53125 0.08133 5.0567-0.19675 10.129 0.21642 15.173 0.21704 3.7082 2.646 7.3021 6.3982 8.1399 3.7095 0.96131 7.7458 0.80134 11.385-0.31243 1.5756-1.0238 0.82637-3.101 1-4.6569-0.11782-1.5861 0.26418-3.2637-0.25-4.7806-1.2355-1.9161-3.7785-0.62489-5.6044-0.965-1.3128-0.5349-0.48583-2.7876-0.7081-4.0459v-8.5516c1.6683-0.12549 3.4333 0.27575 5.0312-0.25 1.6882-0.96516 0.92196-3.1353 1.0938-4.7194-0.12419-1.6892 0.2735-3.4742-0.25-5.0931-0.96516-1.6882-3.1353-0.92196-4.7194-1.0938-1.4273 0.45634-1.1945-0.74742-1.1556-1.7574-0.094757-2.1373 0.19572-4.3283-0.15625-6.4301-0.7934-1.8414-2.9941-1.1476-4.5553-1.214-1.5031 0.18271-3.1614-0.25254-4.5385 0.46401-1.2324 1.084-0.98347 2.9505-1.4759 4.4068-0.32054 1.5102-0.64108 3.0205-0.96162 4.5307-1.5338 0.10786-3.7051-0.51748-4.4688 1.2812-0.30964 0.98432-0.09032 2.0443-0.15625 3.0625-1.4273-6.6558-5.9105-13.174-12.803-14.906-1.5087-0.40641-3.0729-0.59423-4.6344-0.59373zm0 12c3.5069-0.1042 4.164 4.2346 4.5467 6.8832 0.36617 4.5039 0.5679 9.3393-1.4016 13.522-1.3624 3.1142-6.2753 2.1561-6.8718-1.0421-1.5274-4.7209-1.4986-9.9011-0.5197-14.735 0.51691-2.068 1.6091-4.9208 4.2464-4.6283z" opacity=".08"/>
  <path id="path3702" d="m30.406 14.031c-4.9478 4.4e-5 -9.0926 1.871-12.156 5.5-3.4792 4.116-5.1875 9.6552-5.1875 16.5-2e-6 5.0985 0.98613 9.5783 3 13.406a1.0378 1.0378 0 0 0 0 0.03125c2.9404 5.4783 7.6468 8.3643 13.625 8.5938 0.73684 2.7131 1.961 5.0254 4.1562 6.4062 2.4042 1.5123 5.6953 1.9436 10.062 1.2812a1.0378 1.0378 0 0 0 0.875-1.0312v-4.2188a1.0378 1.0378 0 0 0-1.125-1.0312c-1.7721 0.16333-2.489-0.17476-3-0.84375-0.47776-0.6255-0.74682-1.9279-0.90625-3.5938 1.046-0.73876 2.0367-1.5518 2.9062-2.5938a1.0378 1.0378 0 0 0 0.03125 0c3.3375-4.0075 4.9375-9.53 4.9375-16.406-3.6e-5 -5.1442-1.0339-9.6411-3.125-13.469-3.0981-5.575-7.9344-8.5312-14.094-8.5312zm31.625 1.6875-5.9375 0.15625a1.0378 1.0378 0 0 0-0.96875 0.8125l-1.8125 8.5h-3.375a1.0378 1.0378 0 0 0-1.0312 1.0312v6.9688a1.0378 1.0378 0 0 0 1.0312 1.0312h2.8438v12.312c-5e-6 3.7328 0.46827 6.4532 1.6875 8.25 0.0068 0.01 0.02442 0.02131 0.03125 0.03125 1.5625 2.3525 4.6793 3.3437 8.9688 3.3438 1.478-3e-6 3.2622-0.20747 5.375-0.65625a1.0378 1.0378 0 0 0 0.8125-1v-6.625a1.0378 1.0378 0 0 0-1.0938-1.0312c-1.4149 0.0791-2.4587 0.12501-3.125 0.125-1.0424 6e-6 -1.6407-0.2346-1.8125-0.375-0.02604-0.02074-0.1917-0.23224-0.3125-0.71875s-0.21876-1.2064-0.21875-2.125v-11.531h5.0938a1.0378 1.0378 0 0 0 1.0312-1.0312v-6.9688a1.0378 1.0378 0 0 0-1.0312-1.0312h-5.0938v-8.4375a1.0378 1.0378 0 0 0-1.0625-1.0312zm-31.625 8.1875c1.9607 1.5e-5 3.2352 0.79923 4.25 2.75s1.5937 5.1176 1.5938 9.4375c-1.2e-5 4.3199-0.57811 7.5094-1.5938 9.4688s-2.2917 2.75-4.25 2.75c-1.999 3e-6 -3.3084-0.8121-4.3438-2.7812s-1.625-5.1618-1.625-9.5c-1.2e-5 -0.34698-1.1e-5 -0.68479 0-1.0312v-0.03125c0.11122-3.9184 0.75988-6.7995 1.7812-8.5625 1.0245-1.7683 2.2829-2.5 4.1875-2.5z" opacity=".15"/>
  <path id="path3698" d="m30.406 15.062c-4.6962 4.2e-5 -8.4908 1.7085-11.375 5.125-3.291 3.8933-4.9375 9.1696-4.9375 15.844-2e-6 4.9659 0.95217 9.2826 2.875 12.938 2.9212 5.4426 7.4102 8.1562 13.438 8.1562 1.3023 5.816 4.8945 8.8753 13.344 7.5938v-4.2188c-3.9333 0.36252-4.7872-1.7993-5.0938-5.625v-0.25c1.1833-0.75481 2.2573-1.6917 3.2188-2.8438 3.1431-3.7741 4.7187-9.0361 4.7188-15.75-3.5e-5 -5.0056-1.0032-9.3138-3-12.969-2.9582-5.3234-7.3451-8-13.188-8zm31.656 1.6875-5.9375 0.15625-1.9688 9.3125h-4.2188v6.9688h3.875v13.344c-5e-6 3.6549 0.5213 6.2176 1.5312 7.6875 1.2718 1.9466 3.973 2.9062 8.125 2.9062 1.384-3e-6 3.0989-0.188 5.1562-0.625v-6.625c-1.4214 0.07946-2.4768 0.12501-3.1875 0.125-1.1596 7e-6 -1.9825-0.19647-2.4688-0.59375-0.5985-0.47672-0.90626-1.7096-0.90625-3.6562v-12.562h6.125v-6.9688h-6.125v-9.4688zm-31.656 6.125c4.5852 3.4e-5 6.875 4.3994 6.875 13.219-2.5e-5 8.8194-2.2898 13.25-6.875 13.25-4.6592 8e-6 -7-4.4534-7-13.312-1.2e-5 -0.35752-1.2e-5 -0.70494 0-1.0625 0.22185-8.0645 2.5627-12.094 7-12.094z" opacity=".3"/>
  <path id="path3665" d="m30.406 14.062c-4.6962 4.2e-5 -8.4908 1.7085-11.375 5.125-3.291 3.8933-4.9375 9.1696-4.9375 15.844-2e-6 4.9659 0.95217 9.2826 2.875 12.938 2.9212 5.4426 7.4102 8.1562 13.438 8.1562 1.3023 5.816 4.8945 8.8753 13.344 7.5938v-4.2188c-3.9333 0.36252-4.7872-1.7993-5.0938-5.625v-0.25c1.1833-0.75481 2.2573-1.6917 3.2188-2.8438 3.1431-3.7741 4.7187-9.0361 4.7188-15.75-3.5e-5 -5.0056-1.0032-9.3138-3-12.969-2.9582-5.3234-7.3451-8-13.188-8zm31.656 1.6875-5.9375 0.15625-1.9688 9.3125h-4.2188v6.9688h3.875v13.344c-5e-6 3.6549 0.5213 6.2176 1.5312 7.6875 1.2718 1.9466 3.973 2.9062 8.125 2.9062 1.384-3e-6 3.0989-0.188 5.1562-0.625v-6.625c-1.4214 0.07946-2.4768 0.12501-3.1875 0.125-1.1596 7e-6 -1.9825-0.19647-2.4688-0.59375-0.5985-0.47672-0.90626-1.7096-0.90625-3.6562v-12.562h6.125v-6.9688h-6.125v-9.4688zm-31.656 6.125c4.5852 3.4e-5 6.875 4.3994 6.875 13.219-2.5e-5 8.8194-2.2898 13.25-6.875 13.25-4.6592 8e-6 -7-4.4534-7-13.312-1.2e-5 -0.35752-1.2e-5 -0.70494 0-1.0625 0.22185-8.0645 2.5627-12.094 7-12.094z" fill="#fff"/>
  <path id="path3710" d="m56.732 88.012c-2.3318-10.105-3.8834-14.955-0.086366-20.727 5.3117-8.0748 21.073-7.7727 36.791-26.341-8.9818 22.455-5.3546 48.45-36.705 47.068z" fill="url(#linearGradient3724)"/>
  <path id="path3712" d="m56.732 86.803c15.027-18.223 30.918-37.827 30.918-37.827-16.409 12.091-25.695 12.899-29.796 18.05-4.8275 6.0655-2.0727 16.15-1.1227 19.777z" fill="url(#linearGradient3732)" opacity=".39394"/>
  <path id="path3714" d="m58.46 87.235 28.586-34.546c-0.51818 4.75-2.2484 20.651-8.8955 27.723-7.1868 7.6455-19.691 6.8227-19.691 6.8227z" fill="url(#linearGradient3740)" opacity=".45022"/>
  <path id="path3716" d="m58.287 86.63c0.77727 0.34546 28.673-35.236 28.673-35.236s-29.277 32.905-28.673 35.236z" fill="#9f9f9f"/>
 </g>
</svg>
