<?xml version="1.0" encoding="UTF-8"?>
<!-- Created with Inkscape (http://www.inkscape.org/) -->
<svg id="svg2408" width="96" height="96" version="1.0" xmlns="http://www.w3.org/2000/svg" xmlns:cc="http://creativecommons.org/ns#" xmlns:dc="http://purl.org/dc/elements/1.1/" xmlns:rdf="http://www.w3.org/1999/02/22-rdf-syntax-ns#" xmlns:xlink="http://www.w3.org/1999/xlink">
 <defs id="defs2410">
  <linearGradient id="ButtonShadow" x1="45.448" x2="45.448" y1="92.54" y2="7.0165" gradientTransform="scale(1.0059 .99417)" gradientUnits="userSpaceOnUse">
   <stop id="stop3750" offset="0"/>
   <stop id="stop3752" stop-opacity=".58824" offset="1"/>
  </linearGradient>
  <linearGradient id="linearGradient3737">
   <stop id="stop3739" stop-color="#fff" offset="0"/>
   <stop id="stop3741" stop-color="#fff" stop-opacity="0" offset="1"/>
  </linearGradient>
  <filter id="filter3174" color-interpolation-filters="sRGB">
   <feGaussianBlur id="feGaussianBlur3176" stdDeviation="1.71"/>
  </filter>
  <filter id="filter3794" x="-.192" y="-.192" width="1.384" height="1.384" color-interpolation-filters="sRGB">
   <feGaussianBlur id="feGaussianBlur3796" stdDeviation="5.28"/>
  </filter>
  <linearGradient id="linearGradient3613" x1="48" x2="48" y1="20.221" y2="138.66" gradientUnits="userSpaceOnUse" xlink:href="#linearGradient3737"/>
  <clipPath id="clipPath3613">
   <rect id="rect3615" x="6" y="6" width="84" height="84" rx="6" ry="6" fill="#fff"/>
  </clipPath>
  <linearGradient id="linearGradient3617" x1="48" x2="48" y1="90" y2="16" gradientUnits="userSpaceOnUse">
   <stop id="stop3702" stop-color="#006c5d" offset="0"/>
   <stop id="stop3704" stop-color="#000101" offset="1"/>
  </linearGradient>
  <linearGradient id="ButtonShadow-0" x1="45.448" x2="45.448" y1="92.54" y2="7.0165" gradientTransform="matrix(1.0059 0 0 .99417 100 0)" gradientUnits="userSpaceOnUse">
   <stop id="stop3750-8" offset="0"/>
   <stop id="stop3752-5" stop-opacity=".58824" offset="1"/>
  </linearGradient>
  <linearGradient id="linearGradient3845" x1="40" x2="40" y1="8" y2="64" gradientUnits="userSpaceOnUse">
   <stop id="stop3855" stop-color="#12ffd2" stop-opacity=".59055" offset="0"/>
   <stop id="stop3857" stop-color="#00e6ba" stop-opacity="0" offset="1"/>
  </linearGradient>
  <radialGradient id="radialGradient3851" cx="48" cy="92.422" r="42" gradientTransform="matrix(1.5238 3.8095e-8 -2.381e-8 .95238 -25.143 -.020538)" gradientUnits="userSpaceOnUse" xlink:href="#linearGradient3737"/>
  <linearGradient id="linearGradient3885-7" x1="35" x2="35" y1="45" y2="53" gradientTransform="translate(24,-1)" gradientUnits="userSpaceOnUse" xlink:href="#linearGradient3875-8"/>
  <linearGradient id="linearGradient3875-8">
   <stop id="stop3877-4" stop-color="#3b5947" offset="0"/>
   <stop id="stop3879-6" stop-color="#89c49b" offset="1"/>
  </linearGradient>
  <linearGradient id="linearGradient3881-3" x1="35" x2="35" y1="45" y2="53" gradientTransform="translate(0,-1)" gradientUnits="userSpaceOnUse" xlink:href="#linearGradient3875-8"/>
  <radialGradient id="radialGradient3921" cx="48" cy="47" r="20" gradientTransform="matrix(1,0,0,1.6,0,-29.2)" gradientUnits="userSpaceOnUse">
   <stop id="stop3867-7" stop-color="#002419" offset="0"/>
   <stop id="stop3869-0" stop-color="#202414" offset="1"/>
  </radialGradient>
  <radialGradient id="radialGradient4061" cx="48.129" cy="77.997" r="32.129" gradientTransform="matrix(1 0 0 .062155 0 73.149)" gradientUnits="userSpaceOnUse">
   <stop id="stop4057" stop-color="#1f2414" offset="0"/>
   <stop id="stop4059" stop-color="#1f2414" stop-opacity="0" offset="1"/>
  </radialGradient>
  <radialGradient id="radialGradient4063" cx="48" cy="78" r="42" gradientTransform="matrix(1.3333 1.1117e-8 0 .33333 -16 52)" gradientUnits="userSpaceOnUse">
   <stop id="stop4010" stop-color="#0affbd" offset="0"/>
   <stop id="stop4012" stop-color="#00d4af" stop-opacity="0" offset="1"/>
  </radialGradient>
  <linearGradient id="linearGradient4008-2">
   <stop id="stop4010-0" stop-color="#0affbd" offset="0"/>
   <stop id="stop4012-0" stop-color="#00d4af" stop-opacity="0" offset="1"/>
  </linearGradient>
  <radialGradient id="radialGradient4080" cx="48" cy="78" r="42" gradientTransform="matrix(1.3333 1.1117e-8 0 .33333 -16 52)" gradientUnits="userSpaceOnUse" xlink:href="#linearGradient4008-2"/>
  <radialGradient id="radialGradient4152" cx="32" cy="28" r="8" gradientTransform="matrix(1,0,0,1.5,0,-14)" gradientUnits="userSpaceOnUse" xlink:href="#linearGradient4008-2"/>
  <linearGradient id="linearGradient4173" x1="48" x2="48" y1="90" y2="7" gradientTransform="translate(0,1)" gradientUnits="userSpaceOnUse" xlink:href="#ButtonShadow"/>
  <linearGradient id="linearGradient4194" x1="48" x2="48" y1="90" y2="7" gradientTransform="matrix(1.0238 0 0 1 -1.1429 2)" gradientUnits="userSpaceOnUse" xlink:href="#ButtonShadow"/>
  <linearGradient id="linearGradient4219" x1="32.251" x2="32.251" y1="6.1317" y2="90.239" gradientTransform="matrix(1.0238 0 0 1.0119 -1.1429 -98.071)" gradientUnits="userSpaceOnUse" xlink:href="#ButtonShadow-0"/>
  <linearGradient id="linearGradient4225" x1="32.251" x2="32.251" y1="6.1317" y2="90.239" gradientTransform="matrix(1.0238 0 0 1.0119 108.86 -98.071)" gradientUnits="userSpaceOnUse" xlink:href="#ButtonShadow-0"/>
  <linearGradient id="linearGradient4227" x1="32.251" x2="32.251" y1="6.1317" y2="90.239" gradientTransform="translate(110,-97)" gradientUnits="userSpaceOnUse" xlink:href="#ButtonShadow-0"/>
 </defs>
 <metadata id="metadata2413">
  <rdf:RDF>
   <cc:Work rdf:about="">
    <dc:format>image/svg+xml</dc:format>
    <dc:type rdf:resource="http://purl.org/dc/dcmitype/StillImage"/>
    <dc:title/>
   </cc:Work>
  </rdf:RDF>
 </metadata>
 <g id="layer2" display="none">
  <rect id="rect3745" x="5" y="7" width="86" height="85" rx="6" ry="6" fill="url(#ButtonShadow)" filter="url(#filter3174)" opacity=".9"/>
 </g>
 <g id="layer3">
  <path id="path4293" d="m14.656 4.0625a0.86653 0.86653 0 0 0-0.1875 0.0625c-2.3659 0.84954-3.4984 3.0947-4.875 4.1875a0.86653 0.86653 0 0 0-0.09375 0.09375c-2.229 2.3744-4.9259 4.5731-7.0625 7.25a0.86653 0.86653 0 0 0-0.15625 0.40625c-0.47477 3.0696-0.090478 6.1734-0.21875 9.0312a0.86653 0.86653 0 0 0 0 0.03125c0.041806 18.883-0.0836 37.768 0.0625 56.656a0.86653 0.86653 0 0 0 0.15625 0.46875c1.6351 2.4436 4.0012 4.1804 5.75 6.1562a0.86653 0.86653 0 0 0 0.0625 0.0625c2.0764 1.8982 3.9217 4.4395 6.4688 6.2188a0.86653 0.86653 0 0 0 0.46875 0.15625c9.8427 0.21939 19.74 0.03126 29.562 0.09375 12.029-0.02087 24.059 0.04177 36.094-0.03125a0.86653 0.86653 0 0 0 0.375-0.09375c2.3964-1.1882 3.7348-3.5071 5.3438-4.875a0.86653 0.86653 0 0 0 0.0625-0.0625c2.2429-2.4287 4.9761-4.6842 7.125-7.4062a0.86653 0.86653 0 0 0 0.1875-0.46875c0.37415-4.1893 0.05289-8.3893 0.15625-12.469a0.86653 0.86653 0 0 0 0-0.03125c-0.02096-17.641 0.041858-35.294-0.03125-52.938a0.86653 0.86653 0 0 0-0.125-0.4375c-1.3595-2.3888-3.6467-3.8758-5.1562-5.625a0.86653 0.86653 0 0 0-0.0625-0.09375c-2.0695-1.8718-3.9065-4.3457-6.4375-6.0938a0.86653 0.86653 0 0 0-0.46875-0.15625c-8.913-0.22071-17.89-0.030405-26.781-0.09375h-40.125a0.86653 0.86653 0 0 0-0.09375 0z" fill="url(#linearGradient4194)" opacity=".08"/>
  <path id="path4279" d="m14.75 4.9375c-1.9419 0.6973-3.038 2.793-4.6299 4.0567-2.2822 2.431-4.9372 4.615-6.9951 7.1933-0.44893 2.9025-0.054582 5.9632-0.1875 8.9246 0.041817 18.888-0.083536 37.789 0.0625 56.669 1.5195 2.2708 3.8663 4.0013 5.6993 6.0723 2.1635 1.9779 3.9768 4.4482 6.3632 6.1152 9.8188 0.21886 19.687 0.03117 29.524 0.09375 12.033-0.02088 24.072 0.04173 36.101-0.03125 2.0841-1.0334 3.3929-3.2369 5.1614-4.7404 2.2967-2.4869 4.9868-4.7305 7.0574-7.3533 0.36556-4.0931 0.0514-8.3043 0.15625-12.442-0.020963-17.643 0.04184-35.294-0.03125-52.933-1.2205-2.1446-3.4494-3.6127-5.0681-5.4884-2.1569-1.9509-3.9686-4.4063-6.3382-6.0429-8.8863-0.22005-17.828-0.030288-26.736-0.09375h-40.139z" fill="url(#linearGradient4194)" opacity=".1"/>
  <path id="path4271" d="m14.906 6a0.99091 0.99091 0 0 0-0.59375 0.3125l-10 10a0.99091 0.99091 0 0 0-0.3125 0.6875v64.188a0.99091 0.99091 0 0 0 0.28125 0.6875l10.688 10.812a0.99091 0.99091 0 0 0 0.71875 0.3125h64.594a0.99091 0.99091 0 0 0 0.71875-0.3125l10.719-10.844a0.99091 0.99091 0 0 0 0.28125-0.6875v-64.156a0.99091 0.99091 0 0 0-0.3125-0.6875l-10-10a0.99091 0.99091 0 0 0-0.6875-0.3125h-66a0.99091 0.99091 0 0 0-0.09375 0z" fill="url(#linearGradient4194)" opacity=".2"/>
  <path id="path4192" d="m15 7-10 10v64.188l10.688 10.812h64.594l10.719-10.844v-64.156l-10-10h-66z" fill="url(#linearGradient4194)" opacity=".3"/>
  <g id="g4212">
   <path id="path3786" transform="matrix(1,0,0,-1,110,0)" d="m12-95.031c-5.5111 0-10.031 4.5202-10.031 10.031v71c0 5.5111 4.5202 10.031 10.031 10.031h72c5.5111 0 10.031-4.5202 10.031-10.031v-71c0-5.5111-4.5202-10.031-10.031-10.031h-72z" fill="url(#linearGradient4219)" opacity=".08"/>
   <path id="path3778" transform="matrix(1,0,0,-1,110,0)" d="m12-94.031c-4.9716 0-9.0312 4.0596-9.0312 9.0312v71c0 4.9716 4.0596 9.0312 9.0312 9.0312h72c4.9716 0 9.0312-4.0596 9.0312-9.0312v-71c0-4.9716-4.0596-9.0312-9.0312-9.0312h-72z" fill="url(#linearGradient4219)" opacity=".1"/>
   <path id="path3770" transform="matrix(1,0,0,-1,110,0)" d="m12-93c-4.4091 0-8 3.5909-8 8v71c0 4.4091 3.5909 8 8 8h72c4.4091 0 8-3.5909 8-8v-71c0-4.4091-3.5909-8-8-8h-72z" fill="url(#linearGradient4219)" opacity=".2"/>
   <rect id="rect3723" transform="scale(1,-1)" x="115" y="-92" width="86" height="85" rx="7" ry="7" fill="url(#linearGradient4225)" opacity=".3"/>
   <rect id="rect3716" transform="scale(1,-1)" x="116" y="-91" width="84" height="84" rx="6" ry="6" fill="url(#linearGradient4227)" opacity=".45"/>
  </g>
  <path id="rect2419-5" d="m16 7-10 10v64l10 10h64l10-10v-64l-10-10h-64z" fill="url(#linearGradient4173)" opacity=".45"/>
 </g>
 <g id="layer1">
  <path id="rect2419" d="m16 6-10 10v64l10 10h64l10-10v-64l-10-10h-64z" fill="url(#linearGradient3617)"/>
  <path id="rect3966" d="m6 56v1h84v-1h-84zm0 2v1h84v-1h-84zm0 2v1h84v-1h-84zm0 2v1h84v-1h-84zm0 2v1h84v-1h-84zm0 2v1h84v-1h-84zm0 2v1h84v-1h-84zm0 2v1h84v-1h-84zm0 2v1h84v-1h-84zm0 2v1h84v-1h-84zm0 2v1h84v-1h-84zm0 2v1h84v-1h-84zm0 2 1 1h82l1-1h-84zm2 2 1 1h78l1-1h-80zm2 2 1 1h74l1-1h-76zm2 2 1 1h70l1-1h-72zm2 2 1 1h66l1-1h-68z" color="#000000" fill="#00362f" opacity=".3"/>
  <path id="path4006" d="m6 48v32l10 10h64l10-10v-32h-84z" fill="url(#radialGradient4063)" opacity=".8"/>
  <path id="path3064" d="m16 6-10 10v64l0.65625 0.65625v-63.375l9.625-9.625h63.438l9.625 9.625v63.375l0.65625-0.65625v-64l-10-10h-64z" fill="url(#linearGradient3845)" opacity=".3"/>
  <path id="path3847" d="m16 90-10-10v-64l0.65625-0.65625v63.375l9.625 9.625h63.438l9.625-9.625v-63.375l0.65625 0.65625v64l-10 10h-64z" fill="url(#radialGradient3851)" opacity=".2"/>
 </g>
 <g id="layer4">
  <path id="path4053" transform="matrix(1.1827 0 0 1 -8.9235 0)" d="m80.259 77.997a32.129 1.997 0 1 1-64.259 0 32.129 1.997 0 1 1 64.259 0z" color="#000000" fill="url(#radialGradient4061)" opacity=".8"/>
  <path id="path3859" d="m28 24 10-10h20l10 10v54h-10v-7h-5v7h-10v-7h-5v7h-10z" fill="url(#radialGradient3921)"/>
  <path id="path4142" d="m33.688 26.031c-0.94614 0.20056-1.6479 1.0819-1.5938 2.0938 5.91e-4 0.01103-7.71e-4 0.02019 0 0.03125-0.0024 0.01417 0.0012 0.0161 0 0.03125-0.0028 0.03463-0.03603 0.0229-0.03125 0.0625v4.9062a0.50879 0.50879 0 0 0 0 0.0625c-1.08e-4 -1e-3 1.79e-4 0.06351 0 0.0625-1.79e-4 -1e-3 0.0315 0.06349 0.03125 0.0625-2.48e-4 -9.93e-4 3.17e-4 0.06347 0 0.0625 0.0072 0.02562 0.02336 0.03746 0.03125 0.0625 0.34217 1.0859 1.3118 1.6448 1.5312 1.9062a0.50879 0.50879 0 0 0 0 0.03125c-4.71e-4 -5.18e-4 0.03175 0.03175 0.03125 0.03125-4.95e-4 -4.95e-4 0.03177 0.03172 0.03125 0.03125 1.3593 1.3384 2.6747 2.718 4.0938 4.0625-6.78e-4 -5.83e-4 0.06321 0.06304 0.0625 0.0625-7.12e-4 -5.4e-4 0.03199 0.03175 0.03125 0.03125-7.44e-4 -4.96e-4 0.06327 0.0317 0.0625 0.03125-3.09e-4 -1.8e-4 0.02113-0.0055 0.03125 0 0.01518 0.0082 0.03173 0.03149 0.03125 0.03125 0.49457 0.26595 0.98513 0.25711 1.3438 0.25 0.36205-0.0072 0.69758-0.01731 0.875 0a0.50879 0.50879 0 0 0 0.03125 0c-6.59e-4 -2.2e-5 0.04288-7e-6 0.0625 0 0.0098 4e-6 0.03158-1.1e-5 0.03125 0h3.75a0.50879 0.50879 0 0 0 0.0625 0c-1e-3 1.08e-4 0.06351-1.79e-4 0.0625 0-1e-3 1.79e-4 0.06349-0.0315 0.0625-0.03125-9.93e-4 2.48e-4 0.06347-3.17e-4 0.0625 0 0.01815-0.0052 0.04385-0.02559 0.0625-0.03125 0.2537-0.07702 0.57246-0.20577 0.84375-0.4375 0.21416-0.18293 0.253-0.44483 0.34375-0.6875a0.50879 0.50879 0 0 0 0.03125-0.03125 0.50879 0.50879 0 0 0 0.1875-0.28125c-0.0022 0.0081-0.02882-0.0075-0.03125 0 0.0045-0.0089-0.0044-0.02124 0-0.03125h0.03125c0.0087-0.0209-0.0068-0.03754 0-0.0625 0.0082-0.02995 0.02835-0.02741 0.03125-0.0625a0.50879 0.50879 0 0 0-0.0625-0.28125c0.0076-0.53576-0.18905-0.9644-0.5-1.3125 2.6e-5 1.09e-4 0.0032-0.02314 0-0.03125-2.7e-5 -1.08e-4 0.0034-0.02283 0-0.03125-0.01972-0.02111-0.04224-0.0424-0.0625-0.0625 4e-5 7.1e-5 0.0047-0.02545 0-0.03125-1.57e-4 -2.74e-4 -0.06014-0.0222-0.09375-0.0625-0.0067-0.0081 0.0054-0.02479 0-0.03125l-9.75-9.8125a0.50879 0.50879 0 0 0-0.0625-0.03125 0.50879 0.50879 0 0 0-0.0625-0.0625 0.50879 0.50879 0 0 0-0.09375-0.0625c-0.01266-0.0097-0.04943 0.0097-0.0625 0-0.31317-0.23213-0.73054-0.45705-1.25-0.4375-0.02225 8.37e-4 -0.03992-0.0017-0.0625 0 4.95e-4 0-0.01464-5.59e-4 -0.03125 0s-0.03174 3.3e-5 -0.03125 0a0.50879 0.50879 0 0 0-0.0625 0zm27.906 0.03125a0.50879 0.50879 0 0 0-0.0625 0.03125c5.12e-4 -2.1e-4 -0.03175 2.29e-4 -0.03125 0-0.02604 0.0081-0.03728 0.02234-0.0625 0.03125 4.86e-4 -2.66e-4 -0.03173 0.03153-0.03125 0.03125-0.40159 0.1525-0.72737 0.40328-0.9375 0.625-0.21761 0.22961-0.38064 0.45765-0.46875 0.53125a0.50879 0.50879 0 0 0-0.03125 0l-9.3125 9.2812c-0.32833 0.32181-0.5169 0.74138-0.5625 1.1562-0.04324 0.39344-0.0046 0.87011 0.25 1.2812 0.44157 0.68637 1.2642 0.98469 2.0312 0.90625h0.0625 4.7188a0.50879 0.50879 0 0 0 0.0625 0c-1e-3 1.08e-4 0.06351-1.79e-4 0.0625 0-1e-3 1.79e-4 0.06349-0.0315 0.0625-0.03125-9.93e-4 2.48e-4 0.06347-3.17e-4 0.0625 0 0.02562-0.0072 0.03746-0.02336 0.0625-0.03125 1.0859-0.34217 1.6448-1.3118 1.9062-1.5312a0.50879 0.50879 0 0 0 0.03125 0c-5.18e-4 4.71e-4 0.03175-0.03175 0.03125-0.03125-4.95e-4 4.95e-4 0.03172-0.03177 0.03125-0.03125 1.3384-1.3593 2.718-2.6747 4.0625-4.0938-5.83e-4 6.78e-4 0.06304-0.06321 0.0625-0.0625-5.4e-4 7.12e-4 0.03175-0.03199 0.03125-0.03125-4.96e-4 7.44e-4 0.0317-0.06327 0.03125-0.0625-1.8e-4 3.09e-4 -0.0055-0.02113 0-0.03125 0.0082-0.01518 0.03149-0.03173 0.03125-0.03125 0.26595-0.49457 0.25711-0.98513 0.25-1.3438-0.0072-0.36205-0.01731-0.69758 0-0.875a0.50879 0.50879 0 0 0 0-0.03125c-2.2e-5 6.59e-4 -7e-6 -0.04288 0-0.0625-1.54e-4 -0.0099 1.44e-4 -0.02135 0-0.03125-0.01827-1.2567 0.04424-2.6173-0.03125-3.9688a0.50879 0.50879 0 0 0 0-0.03125c1.08e-4 1e-3 -1.79e-4 -0.06351 0-0.0625 1.79e-4 1e-3 -0.0315-0.06349-0.03125-0.0625 2.48e-4 9.93e-4 -3.17e-4 -0.06347 0-0.0625 1.9e-4 5.84e-4 -0.02449-0.01268-0.03125-0.03125-0.0029-0.0083 3e-3 -0.023 0-0.03125h-0.03125c-0.33195-0.8948-1.2178-1.4483-2.1562-1.3125a0.50879 0.50879 0 0 0-0.0625 0z" fill="#2afbc7" opacity=".07"/>
  <path id="path4138" d="m33.781 26.531c-0.70332 0.14909-1.2411 0.82378-1.1875 1.5938 0.0017 0.02467-0.03426 0.03757-0.03125 0.0625v4.9688a0.46461 0.46461 0 0 0 0.03125 0.125c0.25463 0.90291 1.0794 1.3546 1.4375 1.7812a0.46461 0.46461 0 0 0 0.03125 0.03125c1.3668 1.3458 2.687 2.7296 4.0938 4.0625a0.46461 0.46461 0 0 0 0.09375 0.0625c0.38426 0.2172 0.77281 0.22573 1.125 0.21875 0.35219-7e-3 0.69185-0.02396 0.9375 0a0.46461 0.46461 0 0 0 0.03125 0h3.7812a0.46461 0.46461 0 0 0 0.125-0.03125c0.23157-0.06653 0.47501-0.16225 0.6875-0.34375 0.18666-0.15944 0.31718-0.43233 0.375-0.71875h0.03125c0.0018-0.0098-0.0016-0.02134 0-0.03125 0.0039-0.02517 0.02911-0.03654 0.03125-0.0625h-0.03125c0.13062-0.59501-0.15027-1.1079-0.53125-1.4375-0.0061-0.0053 0.0062-0.02604 0-0.03125l-9.7812-9.8125a0.46461 0.46461 0 0 0-0.03125 0c-0.28016-0.24397-0.67748-0.48293-1.1562-0.4375a0.46461 0.46461 0 0 0-0.0625 0zm27.938 0.03125a0.46461 0.46461 0 0 0-0.0625 0.03125c-0.35595 0.1108-0.61575 0.32365-0.8125 0.53125s-0.37097 0.4286-0.53125 0.5625l-9.3125 9.2812c-0.2396 0.23484-0.37256 0.53726-0.40625 0.84375-0.03369 0.30649 0.0087 0.64877 0.1875 0.9375 0.32465 0.50464 0.93606 0.74837 1.5312 0.6875 0.02085-0.0021 0.04167 0.0029 0.0625 0h4.7812a0.46461 0.46461 0 0 0 0.125-0.03125c0.90291-0.25463 1.3546-1.0794 1.7812-1.4375a0.46461 0.46461 0 0 0 0.03125-0.03125c1.3458-1.3668 2.7296-2.687 4.0625-4.0938a0.46461 0.46461 0 0 0 0.0625-0.09375c0.2172-0.38426 0.22573-0.77281 0.21875-1.125-7e-3 -0.35219-0.02396-0.69185 0-0.9375a0.46461 0.46461 0 0 0 0-0.03125c-0.02005-1.2872 0.04286-2.6419-0.03125-3.9688a0.46461 0.46461 0 0 0-0.03125-0.125c-0.23738-0.68903-0.93902-1.1038-1.6562-1z" fill="#2afbc7" opacity=".15"/>
  <path id="path4132" d="m33.875 27c-0.5121 0.10855-0.91063 0.57454-0.84375 1.129v5.0273c0.18192 0.64506 0.89036 1.0563 1.33 1.58 1.3737 1.3525 2.712 2.7541 4.1075 4.0763 0.53554 0.30271 1.259 0.09514 1.8854 0.15625h3.7708c0.35192-0.10111 0.74887-0.3575 0.78125-0.75 0.12895-0.42905-0.08412-0.82169-0.40114-1.0886l-9.8176-9.8176c-0.23403-0.2038-0.48757-0.34333-0.8125-0.3125zm27.906 0.03125c-0.46897 0.14598-0.7388 0.64872-1.1538 0.99539-3.105 3.0953-6.21 6.1906-9.315 9.2859-0.2766 0.27111-0.34398 0.8339-0.125 1.1875 0.22821 0.35473 0.67502 0.53223 1.1349 0.46875h4.8338c0.64506-0.18192 1.0563-0.89036 1.58-1.33 1.3525-1.3737 2.7541-2.712 4.0763-4.1075 0.30271-0.53554 0.09514-1.259 0.15625-1.8854-0.02035-1.3067 0.04105-2.6327-0.03125-3.9271-0.16333-0.47408-0.65134-0.76055-1.1562-0.6875z" fill="#2afbc7" opacity=".3"/>
  <path id="path4144" transform="matrix(1.105 -.8479 .8479 1.105 -21.971 29.453)" d="m40 28a8 12 0 1 1-16 0 8 12 0 1 1 16 0z" color="#000000" fill="url(#radialGradient4152)" opacity=".2"/>
  <path id="path4128" d="m33.844 27.469a0.54331 0.54331 0 0 0-0.375 0.53125v5a0.54331 0.54331 0 0 0 0.15625 0.375l5 5a0.54331 0.54331 0 0 0 0.375 0.15625h5a0.54331 0.54331 0 0 0 0.375-0.90625l-10-10a0.54331 0.54331 0 0 0-0.53125-0.15625zm28.031 0a0.54331 0.54331 0 0 0-0.25 0.15625l-10 10a0.54331 0.54331 0 0 0 0.375 0.90625h5a0.54331 0.54331 0 0 0 0.375-0.15625l5-5a0.54331 0.54331 0 0 0 0.15625-0.375v-5a0.54331 0.54331 0 0 0-0.65625-0.53125z" fill="#2afbc7" opacity=".6"/>
  <path id="path4154" transform="matrix(-1.105 -.8479 -.8479 1.105 118.23 29.453)" d="m40 28a8 12 0 1 1-16 0 8 12 0 1 1 16 0z" color="#000000" fill="url(#radialGradient4152)" opacity=".2"/>
  <path id="rect4103" d="m28 24v1h40v-1h-40zm0 2v1h40v-1h-40zm0 2v1h40v-1h-40zm0 2v1h40v-1h-40zm0 2v1h40v-1h-40zm0 2v1h40v-1h-40zm0 2v1h40v-1h-40zm0 2v1h40v-1h-40zm0 2v1h40v-1h-40zm0 2v1h40v-1h-40z" color="#000000" fill="#202414" opacity=".15"/>
  <path id="path3861" d="m34 28v5l5 5h5l-10-10zm28 0-10 10h5l5-5v-5z" fill="#fff"/>
  <rect id="rect3887" x="28" y="44" width="40" height="16" color="#000000"/>
  <path id="path3863" d="m28 44 8 8 8-8z" fill="url(#linearGradient3881-3)"/>
  <path id="path3883" d="m52 44 8 8 8-8z" fill="url(#linearGradient3885-7)"/>
  <path id="path4006-1" d="m28 48v30h10v-7h5v7h10v-7h5v7h10v-30h-40z" fill="url(#radialGradient4080)" opacity=".3"/>
 </g>
 <g id="layer5" display="none">
  <rect id="rect3171" x="15" y="15" width="66" height="66" rx="12" ry="12" clip-path="url(#clipPath3613)" fill="url(#linearGradient3613)" filter="url(#filter3794)" opacity=".1" stroke="#fff" stroke-linecap="round" stroke-width=".5"/>
 </g>
</svg>
