<?xml version="1.0" encoding="UTF-8"?>
<svg id="svg2408" width="96" height="96" version="1.0" xmlns="http://www.w3.org/2000/svg" xmlns:cc="http://creativecommons.org/ns#" xmlns:dc="http://purl.org/dc/elements/1.1/" xmlns:rdf="http://www.w3.org/1999/02/22-rdf-syntax-ns#" xmlns:xlink="http://www.w3.org/1999/xlink">
 <defs id="defs2410">
  <linearGradient id="ButtonShadow" x1="45.448" x2="45.448" y1="92.54" y2="7.0165" gradientTransform="scale(1.0059 .99417)" gradientUnits="userSpaceOnUse">
   <stop id="stop3750" offset="0"/>
   <stop id="stop3752" stop-opacity=".58824" offset="1"/>
  </linearGradient>
  <linearGradient id="linearGradient3737">
   <stop id="stop3739" stop-color="#fff" offset="0"/>
   <stop id="stop3741" stop-color="#fff" stop-opacity="0" offset="1"/>
  </linearGradient>
  <filter id="filter3174" color-interpolation-filters="sRGB">
   <feGaussianBlur id="feGaussianBlur3176" stdDeviation="1.71"/>
  </filter>
  <filter id="filter3794" x="-.192" y="-.192" width="1.384" height="1.384" color-interpolation-filters="sRGB">
   <feGaussianBlur id="feGaussianBlur3796" stdDeviation="5.28"/>
  </filter>
  <linearGradient id="linearGradient3613" x1="48" x2="48" y1="20.221" y2="138.66" gradientUnits="userSpaceOnUse" xlink:href="#linearGradient3737"/>
  <clipPath id="clipPath3613">
   <rect id="rect3615" x="6" y="6" width="84" height="84" rx="6" ry="6" fill="#fff"/>
  </clipPath>
  <linearGradient id="linearGradient3617" x1="48" x2="48" y1="90" y2="5.9877" gradientTransform="translate(0,1)" gradientUnits="userSpaceOnUse">
   <stop id="stop3702" stop-color="#a5aaaf" offset="0"/>
   <stop id="stop3704" stop-color="#d4d7d9" offset="1"/>
  </linearGradient>
  <linearGradient id="ButtonShadow-0" x1="45.448" x2="45.448" y1="92.54" y2="7.0165" gradientTransform="matrix(1.0059 0 0 .99417 100 0)" gradientUnits="userSpaceOnUse">
   <stop id="stop3750-8" offset="0"/>
   <stop id="stop3752-5" stop-opacity=".58824" offset="1"/>
  </linearGradient>
  <linearGradient id="linearGradient3780" x1="32.251" x2="32.251" y1="6.1317" y2="90.239" gradientTransform="matrix(1.0238 0 0 1.0119 -1.1429 -98.071)" gradientUnits="userSpaceOnUse" xlink:href="#ButtonShadow-0"/>
  <linearGradient id="linearGradient3721" x1="32.251" x2="32.251" y1="6.1317" y2="90.239" gradientTransform="translate(0,-97)" gradientUnits="userSpaceOnUse" xlink:href="#ButtonShadow-0"/>
  <linearGradient id="linearGradient4390" x1="48" x2="48" y1="88" y2="-40" gradientTransform="matrix(1,0,0,-1,0,92)" gradientUnits="userSpaceOnUse" xlink:href="#linearGradient3737"/>
  <linearGradient id="linearGradient4429" x1="48" x2="112.12" y1="82" y2="82.455" gradientUnits="userSpaceOnUse" spreadMethod="reflect" xlink:href="#linearGradient3737"/>
  <linearGradient id="linearGradient3228" x1="90" x2="48" y1="88" y2="88" gradientUnits="userSpaceOnUse" spreadMethod="reflect">
   <stop id="stop3894" stop-opacity=".58824" offset="0"/>
   <stop id="stop3896" stop-opacity=".47059" offset=".1178"/>
   <stop id="stop3898" stop-opacity=".39216" offset=".2381"/>
   <stop id="stop3900" stop-opacity=".31373" offset="1"/>
  </linearGradient>
 </defs>
 <metadata id="metadata2413">
  <rdf:RDF>
   <cc:Work rdf:about="">
    <dc:format>image/svg+xml</dc:format>
    <dc:type rdf:resource="http://purl.org/dc/dcmitype/StillImage"/>
    <dc:title/>
   </cc:Work>
  </rdf:RDF>
 </metadata>
 <g id="layer2" display="none">
  <rect id="rect3745" x="5" y="7" width="86" height="85" rx="6" ry="6" fill="url(#ButtonShadow)" filter="url(#filter3174)" opacity=".9"/>
 </g>
 <g id="layer3">
  <path id="path3786" transform="scale(1,-1)" d="m12-95.031c-5.5111 0-10.031 4.5202-10.031 10.031v71c0 5.5111 4.5202 10.031 10.031 10.031h72c5.5111 0 10.031-4.5202 10.031-10.031v-71c0-5.5111-4.5202-10.031-10.031-10.031h-72z" fill="url(#linearGradient3780)" opacity=".08"/>
  <path id="path3778" transform="scale(1,-1)" d="m12-94.031c-4.9716 0-9.0312 4.0596-9.0312 9.0312v71c0 4.9716 4.0596 9.0312 9.0312 9.0312h72c4.9716 0 9.0312-4.0596 9.0312-9.0312v-71c0-4.9716-4.0596-9.0312-9.0312-9.0312h-72z" fill="url(#linearGradient3780)" opacity=".1"/>
  <path id="path3770" transform="scale(1,-1)" d="m12-93c-4.4091 0-8 3.5909-8 8v71c0 4.4091 3.5909 8 8 8h72c4.4091 0 8-3.5909 8-8v-71c0-4.4091-3.5909-8-8-8h-72z" fill="url(#linearGradient3780)" opacity=".2"/>
  <rect id="rect3723" transform="scale(1,-1)" x="5" y="-92" width="86" height="85" rx="7" ry="7" fill="url(#linearGradient3780)" opacity=".3"/>
  <rect id="rect3716" transform="scale(1,-1)" x="6" y="-91" width="84" height="84" rx="6" ry="6" fill="url(#linearGradient3721)" opacity=".45"/>
 </g>
 <rect id="rect2419" x="6" y="7" width="84" height="84" rx="6" ry="6" fill="url(#linearGradient3617)"/>
 <g id="layer5">
  <rect id="rect3171" x="15" y="15" width="66" height="66" rx="12" ry="12" clip-path="url(#clipPath3613)" fill="url(#linearGradient3613)" filter="url(#filter3794)" opacity=".1" stroke="#fff" stroke-linecap="round" stroke-width=".5"/>
 </g>
 <g id="g947" transform="translate(0 -2.9998)">
  <path id="path4595" d="m45.728 79.604c-0.98169-1.2587-2.7452-2.9352-3.919-3.7256-1.8353-1.2359-2.514-1.4363-4.8477-1.4318-1.4925 0.0031-3.808 0.29899-5.1456 0.65801-1.3376 0.35902-2.5531 0.65512-2.7013 0.65801-0.14811 3e-3 -0.37391-1.6715-0.50177-3.7209-0.3787-6.0701-2.9372-9.2473-8.9809-11.152l-2.395-0.75494 0.89554-1.3583c4.5884-6.9596 4.5928-10.522 0.0213-17.253l-0.88509-1.3034 3.3381-1.2888c4.4987-1.7369 6.9403-4.0733 7.6194-7.2911 0.27197-1.2887 0.49449-3.4278 0.49449-4.7534 0-1.3256 0.14923-2.4078 0.33163-2.4049 0.18239 0.0029 1.426 0.29899 2.7636 0.65801 1.3376 0.35902 3.6366 0.65513 5.109 0.65801 3.3485 0.0066 5.8196-1.4241 8.6497-5.0078 1.0662-1.35 2.038-2.4546 2.1596-2.4546 0.1216 0 1.0934 1.1046 2.1596 2.4546 2.8302 3.5837 5.3013 5.0143 8.6497 5.0078 1.4724-0.0029 3.7714-0.29899 5.109-0.65801 1.3376-0.35902 2.5812-0.65512 2.7636-0.65801 0.1824-0.0029 0.33163 1.0793 0.33163 2.4049 0 1.3256 0.22252 3.4646 0.49449 4.7534 0.67906 3.2178 3.1207 5.5542 7.6194 7.2911l3.3381 1.2888-0.88509 1.3034c-2.1732 3.2002-3.5436 6.4983-3.5596 8.567-0.01605 2.0719 1.2588 5.1644 3.5809 8.6865l0.89555 1.3583-2.395 0.75494c-6.0437 1.9051-8.6022 5.0823-8.9809 11.152-0.12785 2.0494-0.35365 3.7238-0.50177 3.7209-0.14811-3e-3 -1.3637-0.29899-2.7013-0.65801-1.3376-0.35902-3.6531-0.65512-5.1456-0.65801-2.3337-0.0045-3.0124 0.19593-4.8477 1.4318-1.1738 0.79039-2.9373 2.4669-3.919 3.7256-0.98169 1.2587-1.8844 2.2885-2.006 2.2885-0.1216 0-1.0243-1.0298-2.006-2.2885z" fill="#d33e37" stroke="#000" stroke-width="2"/>
  <path id="path4608" d="m50.015 64.45c-4.1347-1.3546-7.2861-4.4357-8.5274-8.3371-0.6445-2.0256-0.53949-5.9153 0.21643-8.0175l0.64352-1.7896-2.7356-3.7267 2.0457-1.4202c1.1251-0.7811 2.0476-1.5281 2.05-1.6599 3e-3 -0.13186-0.58558-0.75776-1.3067-1.3909-2.0796-1.8259-4.2818-1.3793-5.5803 1.1317-0.79641 1.5401-0.72164 5.472 0.19989 10.513 0.89186 4.879 0.97163 8.709 0.21197 10.178-0.30987 0.59922-1.0662 1.2358-1.7528 1.4751-1.0193 0.35532-1.3538 0.31519-2.144-0.25724-1.1106-0.80457-2.4648-3.3763-3.1544-5.9903-0.77362-2.9326-0.053-2.5337 0.82713 0.45793 0.9096 3.0917 2.2069 5.2167 3.28 5.3728 0.41293 0.06007 1.1905-0.23663 1.7278-0.65933 1.5128-1.19 1.6112-3.0885 0.4972-9.5914-1.4394-8.402-1.285-10.946 0.79625-13.128 1.8191-1.9069 4.627-1.6166 6.2774 0.64906l0.69394 0.95263 1.847-1.3131c1.0158-0.72223 1.931-1.3128 2.0336-1.3124 0.10265 4.08e-4 0.74085 0.81389 1.4182 1.8078l1.2316 1.807 2.292-0.01791c6.786-0.05303 12.033 4.8516 12.409 11.6 0.19786 3.5495-0.74768 6.2501-3.1072 8.8744-2.3436 2.6066-5.0196 3.8426-8.6273 3.9847-1.5583 0.06139-3.2516-0.02545-3.7629-0.19294zm10.388-8.44v-2.4594l-1.2054 0.21495c-0.66299 0.11822-2.3738 0.4641-3.8017 0.76862-1.428 0.30452-4.3478 0.7432-6.4884 0.97485-2.1407 0.23165-3.9379 0.46693-3.9938 0.52286-0.0559 0.05593 1.4452 0.2128 3.3358 0.34861 1.8906 0.13581 5.2734 0.64238 7.5174 1.1257 2.244 0.48333 4.2051 0.89778 4.3581 0.92099 0.153 0.02321 0.27818-1.0645 0.27818-2.4172zm-9.8121-4.7563c1.1228-1.1228 1.1506-1.9388 0.10394-3.0529-0.99115-1.055-2.2888-1.1013-3.2735-0.11663-1.0351 1.0351-0.93897 2.3874 0.23547 3.3112 1.2662 0.99597 1.8233 0.96907 2.9341-0.14167zm6.591 0.48397c1.0318-0.54309 1.3537-1.0345 1.3608-2.0772 0.0077-1.1356-1.2573-2.3156-2.4979-2.3299l-1.02-0.01175 0.99124-0.74005c2.4073-1.7973 2.7232-2.1455 2.3193-2.5573-0.28734-0.29296-0.90798-0.02166-2.2254 0.97278-2.2438 1.6937-2.5094 2.0575-1.859 2.5459 0.43297 0.32511 0.43192 0.49073-7e-3 1.0909-0.73385 1.0036-0.64709 1.5825 0.393 2.6226 1.0245 1.0245 1.387 1.0934 2.5448 0.48397zm-5.8661-4.6852c0-0.70966-3.9912-3.4708-4.4107-3.0513-0.43109 0.43109-0.33985 0.5391 1.9998 2.3673 1.641 1.2822 2.4109 1.5007 2.4109 0.68405zm-23.552 10.873c0-0.47277 1.2897-2.7944 1.5523-2.7944 0.42043 0 0.38819 0.16543-0.32284 1.6565-0.5258 1.1026-1.2295 1.7539-1.2295 1.1379zm5.0649-2.4667c-0.78424-0.41373-1.3429-0.83526-1.2414-0.93674 0.19911-0.19911 3.2236 1.2494 3.2236 1.5438 0 0.32045-0.53407 0.15688-1.9822-0.6071zm-7.2903-0.27393c0-0.45278 2.4308-1.29 3.0632-1.0551 0.26443 0.09826 0.0657 0.32668-0.46686 0.53666-1.8655 0.73551-2.5963 0.88142-2.5963 0.5184zm6.3053-1.8246c0-0.39328 2.943-1.3443 3.2402-1.047 0.19191 0.19191-0.59847 0.56127-2.4057 1.1243-0.45899 0.14298-0.83454 0.10824-0.83454-0.07721zm-4.9145-1.0377c-1.6162-0.87681-1.1842-1.3703 0.46363-0.52966 0.81599 0.41628 1.4836 0.83694 1.4836 0.9348 0 0.33939-0.93247 0.14538-1.9472-0.40514zm4.1727-0.14617c0-0.71838 1.2435-2.9428 1.542-2.7583 0.16887 0.10436-0.0289 0.84829-0.43956 1.6532-0.73515 1.441-1.1024 1.8092-1.1024 1.1051zm-1.8213-0.93984c-0.7319-1.9112-0.75074-2.0112-0.4178-2.217 0.39-0.24103 1.2585 2.214 1.015 2.8693-0.0941 0.25322-0.36283-0.04032-0.59719-0.65231z"/>
 </g>
 <g id="g873" transform="translate(0 .81356)">
  <path id="rect4377" d="m12 86c-3.324 0-6-2.676-6-6v-68c0-3.324 2.676-6 6-6h72c3.324 0 6 2.676 6 6v68c0 3.324-2.676 6-6 6zm0-0.96875h72c2.8049 0 5.0312-2.2264 5.0312-5.0312v-68c0-2.8049-2.226-5.0312-5.031-5.0312h-72c-2.8049 0-5.0312 2.2263-5.0312 5.0312v68c0 2.8049 2.2264 5.0312 5.0312 5.0312z" fill="url(#linearGradient4390)" opacity=".3"/>
  <path id="rect4414" d="m6 78v2c0 3.324 2.676 6 6 6h72c3.324 0 6-2.676 6-6v-2c0 3.324-2.676 6-6 6h-72c-3.324 0-6-2.676-6-6z" fill="url(#linearGradient4429)" opacity=".1"/>
  <g id="layer4">
   <path id="path3888" d="m6 80v4c0 3.324 2.676 6 6 6h72c3.324 0 6-2.676 6-6v-4c0 3.324-2.676 6-6 6h-72c-3.324 0-6-2.676-6-6z" fill="url(#linearGradient3228)"/>
   <path id="rect4345" d="m6 82v2c0 3.324 2.676 6 6 6h72c3.324 0 6-2.676 6-6v-2c0 3.324-2.676 6-6 6h-72c-3.324 0-6-2.676-6-6z" color="#000000" opacity=".1"/>
   <path id="rect4336" d="m6 83v1c0 3.324 2.676 6 6 6h72c3.324 0 6-2.676 6-6v-1c0 3.324-2.676 6-6 6h-72c-3.324 0-6-2.676-6-6z" color="#000000" opacity=".15"/>
  </g>
 </g>
</svg>
