<?xml version="1.0" encoding="UTF-8"?>
<svg id="svg77" width="96" height="96" version="1.1" xmlns="http://www.w3.org/2000/svg" xmlns:cc="http://creativecommons.org/ns#" xmlns:dc="http://purl.org/dc/elements/1.1/" xmlns:rdf="http://www.w3.org/1999/02/22-rdf-syntax-ns#" xmlns:xlink="http://www.w3.org/1999/xlink">
 <metadata id="metadata92">
  <rdf:RDF>
   <cc:Work rdf:about="">
    <dc:format>image/svg+xml</dc:format>
    <dc:type rdf:resource="http://purl.org/dc/dcmitype/StillImage"/>
   </cc:Work>
  </rdf:RDF>
 </metadata>
 <defs id="defs2410">
  <filter id="filter3794" x="-.192" y="-.192" width="1.384" height="1.384">
   <feGaussianBlur id="feGaussianBlur3796" stdDeviation="5.28"/>
  </filter>
  <linearGradient id="linearGradient3613" x1="48" x2="48" y1="20.221" y2="138.66" gradientUnits="userSpaceOnUse">
   <stop id="stop3739" stop-color="#fff" offset="0"/>
   <stop id="stop3741" stop-color="#fff" stop-opacity="0" offset="1"/>
  </linearGradient>
  <linearGradient id="buttonGradient" x1="48" x2="48" y1="90" y2="5.9877" gradientUnits="userSpaceOnUse">
   <stop id="stop3702" stop-color="#3c3c3c" offset="0"/>
   <stop id="stop3704" stop-color="#505050" offset="1"/>
  </linearGradient>
  <linearGradient id="ButtonShadow-0" x1="45.448" x2="45.448" y1="92.54" y2="7.0165" gradientTransform="matrix(1.0059 0 0 .99417 100 0)" gradientUnits="userSpaceOnUse">
   <stop id="stop3750-8" offset="0"/>
   <stop id="stop3752-5" stop-opacity=".58824" offset="1"/>
  </linearGradient>
  <linearGradient id="linearGradient3780" x1="32.251" x2="32.251" y1="6.1317" y2="90.239" gradientTransform="matrix(1.0238 0 0 1.0119 -1.1429 -98.071)" gradientUnits="userSpaceOnUse" xlink:href="#ButtonShadow-0"/>
  <linearGradient id="linearGradient3721" x1="32.251" x2="32.251" y1="6.1317" y2="90.239" gradientTransform="translate(0,-97)" gradientUnits="userSpaceOnUse" xlink:href="#ButtonShadow-0"/>
  <clipPath id="clipPath4355">
   <rect id="rect4357" x="6" y="6" width="84" height="84" rx="6" ry="6" fill="#fff"/>
  </clipPath>
  <linearGradient id="linearGradient4390" x1="48" x2="48" y1="88" y2="-40" gradientTransform="matrix(1,0,0,-1,0,92)" gradientUnits="userSpaceOnUse">
   <stop id="stop4386" stop-color="#fff" offset="0"/>
   <stop id="stop4388" stop-color="#fff" stop-opacity="0" offset="1"/>
  </linearGradient>
 </defs>
 <g id="layer3">
  <g id="g32" fill="url(#linearGradient3780)">
   <path id="path3786" transform="scale(1,-1)" d="m12-95.021c-5.5111 0-10.022 4.51-10.022 10.021v71c0 5.5111 4.5104 10.021 10.021 10.021h72c5.5111 0 10.021-4.5104 10.021-10.021v-71c0-5.5111-4.5104-10.021-10.021-10.021h-72z" opacity=".08"/>
   <path id="path3778" transform="scale(1,-1)" d="m12-94.035c-4.9716 0-9.0352 4.0635-9.0352 9.0352v71c0 4.9716 4.0635 9.0352 9.0352 9.0352h72c4.9716 0 9.0352-4.0635 9.0352-9.0352v-71c0-4.9716-4.0635-9.0352-9.0352-9.0352h-72z" opacity=".1"/>
   <path id="path3770" transform="scale(1,-1)" d="m12-92.99c-4.4091 0-7.9902 3.5811-7.9902 7.9902v71c0 4.4091 3.5811 7.9902 7.9902 7.9902h72c4.4091 0 7.9902-3.5811 7.9902-7.9902v-71c0-4.4091-3.5811-7.9902-7.9902-7.9902h-72z" opacity=".2"/>
   <rect id="rect3723" transform="scale(1,-1)" x="5" y="-92" width="86" height="85" rx="7" ry="7" opacity=".3"/>
  </g>
  <rect id="rect3716" transform="scale(1,-1)" x="6" y="-91" width="84" height="84" rx="6" ry="6" fill="url(#linearGradient3721)" opacity=".45"/>
 </g>
 <g id="layer1">
  <rect id="button" x="6" y="6" width="84" height="84" rx="6" ry="6" fill="url(#buttonGradient)"/>
  <path id="rect4377" d="m12 6c-3.324 0-6 2.676-6 6v72c0 3.324 2.676 6 6 6h72c3.324 0 6-2.676 6-6v-72c0-3.324-2.676-6-6-6zm0 2h72c2.805 0 5 2.195 5 5v70c0 2.805-2.195 5-5 5h-72c-2.805 0-5-2.195-5-5v-70c0-2.805 2.195-5 5-5z" fill="url(#linearGradient4390)" opacity=".3"/>
 </g>
 <g id="layer5">
  <rect id="rect3171" x="15" y="15" width="66" height="66" rx="12" ry="12" clip-path="url(#clipPath4355)" fill="url(#linearGradient3613)" filter="url(#filter3794)" opacity=".1" stroke="#fff" stroke-linecap="round" stroke-width=".5"/>
 </g>
 <defs id="defs53">
  <linearGradient id="a" x1="8" x2="8" y1="1.0005" y2="15.001" gradientUnits="userSpaceOnUse">
   <stop id="stop48" stop-color="#00d480" offset="0"/>
   <stop id="stop50" stop-color="#00a765" offset="1"/>
  </linearGradient>
 </defs>
 <g id="g86">
  <path id="base" transform="translate(16,16) scale(4)" d="m4.9434 14.627c-0.70529-0.76917-2.2732-3.3827-3.4192-5.6992-0.57648-1.1654-0.59986-1.2362-0.43723-1.3244 0.11784-0.063861 0.2969-0.064742 0.56988-0.00273 1.0951 0.24853 1.3656 0.49592 2.2368 2.0457 0.62763 1.1165 0.90062 1.481 1.1607 1.5499 0.35037 0.09278 0.57727-0.31305 0.86724-1.5512 0.22308-0.95253 0.47956-1.5413 1.0454-2.4 0.87371-1.3259 2.1344-2.2354 4.4911-3.2402 1.1744-0.50069 1.884-0.94665 2.4984-1.5701 0.31802-0.32275 0.66841-0.77749 0.77864-1.0105 0.11023-0.23306 0.21883-0.42374 0.24133-0.42374 0.08559 0-0.07715 2.0547-0.2473 3.1223-0.40151 2.5192-1.3082 4.4979-2.6283 5.7356-0.66142 0.62015-1.437 1.0579-2.2427 1.2656-0.52281 0.13484-1.457 0.18586-1.457 0.07958 0-0.03071 0.24541-0.52175 0.54535-1.0912 0.78592-1.4921 1.6498-2.7569 2.5035-3.6654l0.74523-0.79307-0.19893-0.14111c-0.10941-0.077604-0.26406-0.14111-0.34368-0.14111-0.29012 0-1.4122 0.6474-1.8924 1.0918-0.87868 0.81327-1.3355 1.6162-2.2463 3.9485-0.61914 1.5854-1.7482 4.2908-1.8709 4.4827-0.12848 0.20103-0.34659 0.11762-0.69985-0.26762z" fill="url(#a)"/>
  <path id="path66" transform="translate(0,2)" d="m75.906 18.002c-0.09 0-0.52392 0.76307-0.96484 1.6953-0.44092 0.93204-1.8432 2.75-3.1152 4.041-2.4576 2.4938-5.2965 4.2785-9.9941 6.2812-9.4268 4.0192-14.47 7.6573-17.965 12.961-2.2634 3.4348-3.2893 5.7895-4.1816 9.5996-1.1599 4.9526-2.0673 6.5762-3.4688 6.2051-1.0403-0.2756-2.1321-1.7332-4.6426-6.1992-3.4848-6.1991-4.5669-7.1895-8.9473-8.1836-1.0919-0.24805-1.8079-0.24372-2.2793 0.011718-0.33551 0.18196-0.45515 0.37371-0.19336 1.1289 0.053595-0.046928 0.11669-0.087326 0.19336-0.12891 0.47136-0.25544 1.1874-0.25977 2.2793-0.011718 4.3804 0.99412 5.4625 1.9845 8.9473 8.1836 2.5105 4.466 3.6023 5.9236 4.6426 6.1992 1.4015 0.37112 2.3089-1.2525 3.4688-6.2051 0.89232-3.8101 1.9183-6.1648 4.1816-9.5996 3.4948-5.3036 8.538-8.9417 17.965-12.961 4.6976-2.0028 7.5365-3.7874 9.9941-6.2812 1.2721-1.291 2.6743-3.109 3.1152-4.041 0.44092-0.93224 0.87484-1.6953 0.96484-1.6953 0.043723 0 0.070656 0.14005 0.083984 0.38281 0.024642-0.85138 0.002419-1.3828-0.083984-1.3828zm-11.689 19.213-2.416 2.5723c-3.4148 3.634-6.8719 8.6937-10.016 14.662-1.1998 2.2778-2.1797 4.2424-2.1797 4.3652 0 0.079598 0.162 0.13056 0.38867 0.16797 0.36561-0.76535 0.95442-1.9449 1.791-3.5332 3.1437-5.9684 6.6008-11.028 10.016-14.662l2.9805-3.1719-0.56445-0.40039z" opacity=".3" stroke-width="4"/>
  <path id="path71" transform="translate(0,2)" d="m75.906 17.002c-0.09 0-0.52392 0.76307-0.96484 1.6953-0.44092 0.93204-1.8432 2.75-3.1152 4.041-2.4576 2.4938-5.2965 4.2785-9.9941 6.2812-9.4268 4.0192-14.47 7.6573-17.965 12.961-2.2634 3.4348-3.2893 5.7895-4.1816 9.5996-1.1599 4.9526-2.0673 6.5762-3.4688 6.2051-1.0403-0.2756-2.1321-1.7332-4.6426-6.1992-3.4848-6.1991-4.5669-7.1895-8.9473-8.1836-1.0919-0.24805-1.8079-0.24372-2.2793 0.011718-0.33551 0.18196-0.45515 0.37371-0.19336 1.1289 0.053595-0.046928 0.11669-0.087326 0.19336-0.12891 0.47136-0.25544 1.1874-0.25977 2.2793-0.011718 4.3804 0.99412 5.4625 1.9845 8.9473 8.1836 2.5105 4.466 3.6023 5.9236 4.6426 6.1992 1.4015 0.37112 2.3089-1.2525 3.4688-6.2051 0.89232-3.8101 1.9183-6.1648 4.1816-9.5996 3.4948-5.3036 8.538-8.9417 17.965-12.961 4.6976-2.0028 7.5365-3.7874 9.9941-6.2812 1.2721-1.291 2.6743-3.109 3.1152-4.041 0.44092-0.93224 0.87484-1.6953 0.96484-1.6953 0.043723 0 0.070656 0.14005 0.083984 0.38281 0.024642-0.85138 0.002419-1.3828-0.083984-1.3828zm-11.689 19.213-2.416 2.5723c-3.4148 3.634-6.8719 8.6937-10.016 14.662-1.1998 2.2778-2.1797 4.2424-2.1797 4.3652 0 0.079598 0.162 0.13056 0.38867 0.16797 0.36561-0.76535 0.95442-1.9449 1.791-3.5332 3.1437-5.9684 6.6008-11.028 10.016-14.662l2.9805-3.1719-0.56445-0.40039z" opacity=".4" stroke-width="4"/>
  <path id="path76" transform="translate(0,2)" d="m75.99 19.385c-0.072996 2.5221-0.56538 7.9148-1.0742 11.107-1.606 10.077-5.2313 17.991-10.512 22.941-2.6457 2.4806-5.7479 4.2317-8.9707 5.0625-1.6997 0.43837-4.4555 0.64872-5.4395 0.48633-0.15871 0.33224-0.38867 0.79485-0.38867 0.83203 0 0.42512 3.7369 0.221 5.8281-0.31836 3.2228-0.8308 6.325-2.5819 8.9707-5.0625 5.2804-4.9508 8.9057-12.865 10.512-22.941 0.59368-3.725 1.1652-10.449 1.0742-12.107zm-13.379 16.102c-1.1605 0-5.6495 2.5896-7.5703 4.3672-3.5147 3.2531-5.3412 6.4657-8.9844 15.795-2.4766 6.3416-6.9936 17.162-7.4844 17.93-0.51392 0.80412-1.3858 0.47065-2.7988-1.0703-2.8212-3.0767-9.0918-13.531-13.676-22.797-1.1166-2.2573-1.6976-3.4589-1.9434-4.168-0.40115 0.35125-0.090792 1.0558 1.9434 5.168 4.584 9.266 10.855 19.72 13.676 22.797 1.413 1.541 2.2849 1.8744 2.7988 1.0703 0.4908-0.7676 5.0078-11.588 7.4844-17.93 3.6432-9.3292 5.4697-12.542 8.9844-15.795 1.9208-1.7776 6.4098-4.3672 7.5703-4.3672 0.31848 0 0.93541 0.25404 1.373 0.56445l0.23242 0.16406 0.56445-0.59961-0.79688-0.56445c-0.43764-0.31042-1.0546-0.56445-1.373-0.56445z" fill="#fff" opacity=".1" stroke-width="4"/>
  <path id="path81" transform="translate(0,2)" d="m75.99 18.385c-0.072996 2.5221-0.56538 7.9148-1.0742 11.107-1.606 10.077-5.2313 17.991-10.512 22.941-2.6457 2.4806-5.7479 4.2317-8.9707 5.0625-1.6997 0.43837-4.4555 0.64872-5.4395 0.48633-0.15871 0.33224-0.38867 0.79485-0.38867 0.83203 0 0.42512 3.7369 0.221 5.8281-0.31836 3.2228-0.8308 6.325-2.5819 8.9707-5.0625 5.2804-4.9508 8.9057-12.865 10.512-22.941 0.59368-3.725 1.1652-10.449 1.0742-12.107zm-13.379 16.102c-1.1605 0-5.6495 2.5896-7.5703 4.3672-3.5147 3.2531-5.3412 6.4657-8.9844 15.795-2.4766 6.3416-6.9936 17.162-7.4844 17.93-0.51392 0.80412-1.3858 0.47065-2.7988-1.0703-2.8212-3.0767-9.0918-13.531-13.676-22.797-1.1166-2.2573-1.6976-3.4589-1.9434-4.168-0.40115 0.35125-0.090792 1.0558 1.9434 5.168 4.584 9.266 10.855 19.72 13.676 22.797 1.413 1.541 2.2849 1.8744 2.7988 1.0703 0.4908-0.7676 5.0078-11.588 7.4844-17.93 3.6432-9.3292 5.4697-12.542 8.9844-15.795 1.9208-1.7776 6.4098-4.3672 7.5703-4.3672 0.31848 0 0.93541 0.25404 1.373 0.56445l0.23242 0.16406 0.56445-0.59961-0.79688-0.56445c-0.43764-0.31042-1.0546-0.56445-1.373-0.56445z" fill="#fff" opacity=".15" stroke-width="4"/>
 </g>
</svg>
