<?xml version="1.0" encoding="UTF-8"?>
<svg id="svg88" width="96" height="96" version="1.1" xmlns="http://www.w3.org/2000/svg" xmlns:cc="http://creativecommons.org/ns#" xmlns:dc="http://purl.org/dc/elements/1.1/" xmlns:rdf="http://www.w3.org/1999/02/22-rdf-syntax-ns#" xmlns:xlink="http://www.w3.org/1999/xlink">
 <metadata id="metadata92">
  <rdf:RDF>
   <cc:Work rdf:about="">
    <dc:format>image/svg+xml</dc:format>
    <dc:type rdf:resource="http://purl.org/dc/dcmitype/StillImage"/>
   </cc:Work>
  </rdf:RDF>
 </metadata>
 <defs id="defs2410">
  <filter id="filter3794" x="-.192" y="-.192" width="1.384" height="1.384">
   <feGaussianBlur id="feGaussianBlur3796" stdDeviation="5.28"/>
  </filter>
  <linearGradient id="linearGradient3613" x1="48" x2="48" y1="20.221" y2="138.66" gradientUnits="userSpaceOnUse">
   <stop id="stop3739" stop-color="#fff" offset="0"/>
   <stop id="stop3741" stop-color="#fff" stop-opacity="0" offset="1"/>
  </linearGradient>
  <linearGradient id="buttonGradient" x1="48" x2="48" y1="90" y2="5.9877" gradientUnits="userSpaceOnUse">
   <stop id="stop3702" stop-color="#323232" offset="0"/>
   <stop id="stop3704" stop-color="#505050" offset="1"/>
  </linearGradient>
  <linearGradient id="ButtonShadow-0" x1="45.448" x2="45.448" y1="92.54" y2="7.0165" gradientTransform="matrix(1.0059 0 0 .99417 100 0)" gradientUnits="userSpaceOnUse">
   <stop id="stop3750-8" offset="0"/>
   <stop id="stop3752-5" stop-opacity=".58824" offset="1"/>
  </linearGradient>
  <linearGradient id="linearGradient3780" x1="32.251" x2="32.251" y1="6.1317" y2="90.239" gradientTransform="matrix(1.0238 0 0 1.0119 -1.1429 -98.071)" gradientUnits="userSpaceOnUse" xlink:href="#ButtonShadow-0"/>
  <linearGradient id="linearGradient3721" x1="32.251" x2="32.251" y1="6.1317" y2="90.239" gradientTransform="translate(0,-97)" gradientUnits="userSpaceOnUse" xlink:href="#ButtonShadow-0"/>
  <clipPath id="clipPath4355">
   <rect id="rect4357" x="6" y="6" width="84" height="84" rx="6" ry="6" fill="#fff"/>
  </clipPath>
  <linearGradient id="linearGradient4390" x1="48" x2="48" y1="88" y2="-40" gradientTransform="matrix(1,0,0,-1,0,92)" gradientUnits="userSpaceOnUse">
   <stop id="stop4386" stop-color="#fff" offset="0"/>
   <stop id="stop4388" stop-color="#fff" stop-opacity="0" offset="1"/>
  </linearGradient>
 </defs>
 <g id="layer3">
  <g id="g32" fill="url(#linearGradient3780)">
   <path id="path3786" transform="scale(1,-1)" d="m12-95.021c-5.5111 0-10.022 4.51-10.022 10.021v71c0 5.5111 4.5104 10.021 10.021 10.021h72c5.5111 0 10.021-4.5104 10.021-10.021v-71c0-5.5111-4.5104-10.021-10.021-10.021h-72z" opacity=".08"/>
   <path id="path3778" transform="scale(1,-1)" d="m12-94.035c-4.9716 0-9.0352 4.0635-9.0352 9.0352v71c0 4.9716 4.0635 9.0352 9.0352 9.0352h72c4.9716 0 9.0352-4.0635 9.0352-9.0352v-71c0-4.9716-4.0635-9.0352-9.0352-9.0352h-72z" opacity=".1"/>
   <path id="path3770" transform="scale(1,-1)" d="m12-92.99c-4.4091 0-7.9902 3.5811-7.9902 7.9902v71c0 4.4091 3.5811 7.9902 7.9902 7.9902h72c4.4091 0 7.9902-3.5811 7.9902-7.9902v-71c0-4.4091-3.5811-7.9902-7.9902-7.9902h-72z" opacity=".2"/>
   <rect id="rect3723" transform="scale(1,-1)" x="5" y="-92" width="86" height="85" rx="7" ry="7" opacity=".3"/>
  </g>
  <rect id="rect3716" transform="scale(1,-1)" x="6" y="-91" width="84" height="84" rx="6" ry="6" fill="url(#linearGradient3721)" opacity=".45"/>
 </g>
 <g id="layer1">
  <rect id="button" x="6" y="6" width="84" height="84" rx="6" ry="6" fill="url(#buttonGradient)"/>
  <path id="rect4377" d="m12 6c-3.324 0-6 2.676-6 6v72c0 3.324 2.676 6 6 6h72c3.324 0 6-2.676 6-6v-72c0-3.324-2.676-6-6-6zm0 2h72c2.805 0 5 2.195 5 5v70c0 2.805-2.195 5-5 5h-72c-2.805 0-5-2.195-5-5v-70c0-2.805 2.195-5 5-5z" fill="url(#linearGradient4390)" opacity=".3"/>
 </g>
 <g id="layer5">
  <rect id="rect3171" x="15" y="15" width="66" height="66" rx="12" ry="12" clip-path="url(#clipPath4355)" fill="url(#linearGradient3613)" filter="url(#filter3794)" opacity=".1" stroke="#fff" stroke-linecap="round" stroke-width=".5"/>
 </g>
 <defs id="defs53">
  <linearGradient id="a" x1="8" x2="8" y1="1" y2="15" gradientTransform="matrix(4,0,0,4,16,16)" gradientUnits="userSpaceOnUse">
   <stop id="stop48" stop-color="#ffbf11" offset="0"/>
   <stop id="stop50" stop-color="#fb0" offset="1"/>
  </linearGradient>
 </defs>
 <g id="g871" stroke-width="4">
  <path id="base" d="m36 20a16 16 0 0 0-16 16 16 16 0 0 0 16 16 16 16 0 0 0 16-16 16 16 0 0 0-16-16zm0 8 8 12h-16zm24 16a16 16 0 0 0-16 16 16 16 0 0 0 16 16 16 16 0 0 0 16-16 16 16 0 0 0-16-16zm-8 12h16l-8 12z" fill="url(#a)"/>
  <path id="path56" d="m36 20a16 16 0 0 0-16 16 16 16 0 0 0 16 16 16 16 0 0 0 16-16 16 16 0 0 0-16-16zm0 2c3.6652 0 7.3068 1.5099 9.8984 4.1016 2.5917 2.5916 4.1016 6.2332 4.1016 9.8984s-1.5099 7.3068-4.1016 9.8984c-2.5916 2.5917-6.2332 4.1016-9.8984 4.1016s-7.3068-1.5099-9.8984-4.1016c-2.5917-2.5916-4.1016-6.2332-4.1016-9.8984s1.5099-7.3068 4.1016-9.8984c2.5916-2.5917 6.2332-4.1016 9.8984-4.1016zm0.031 4a2.0002 2.0002 0 0 0-1.6954 0.8906l-8 12a2.0002 2.0002 0 0 0 1.6641 3.1094h16a2.0002 2.0002 0 0 0 1.6641-3.1094l-8-12a2.0002 2.0002 0 0 0-1.6328-0.8906zm-0.031 2 8 12h-16zm24 16a16 16 0 0 0-16 16 16 16 0 0 0 16 16 16 16 0 0 0 16-16 16 16 0 0 0-16-16zm0 2c3.6652 0 7.3068 1.5099 9.8984 4.1016 2.5917 2.5916 4.1016 6.2332 4.1016 9.8984s-1.5099 7.3068-4.1016 9.8984c-2.5916 2.5917-6.2332 4.1016-9.8984 4.1016s-7.3068-1.5099-9.8984-4.1016c-2.5917-2.5916-4.1016-6.2332-4.1016-9.8984s1.5099-7.3068 4.1016-9.8984c2.5916-2.5917 6.2332-4.1016 9.8984-4.1016zm-8.123 8a2.0002 2.0002 0 0 0-1.5411 3.1094l8 12a2.0002 2.0002 0 0 0 3.3282 0l8-12a2.0002 2.0002 0 0 0-1.6641-3.1094h-16a2.0002 2.0002 0 0 0-0.1172 0 2.0002 2.0002 0 0 0-0.01 0zm0.123 2h16l-8 12z" opacity=".08"/>
  <path id="path61" d="m36 20a16 16 0 0 0-16 16 16 16 0 0 0 16 16 16 16 0 0 0 16-16 16 16 0 0 0-16-16zm0 1c3.927 0 7.8326 1.6138 10.609 4.3906s4.3906 6.6824 4.3906 10.609-1.6138 7.8326-4.3906 10.609-6.6824 4.3906-10.609 4.3906-7.8326-1.6138-10.609-4.3906-4.3906-6.6824-4.3906-10.609 1.6138-7.8326 4.3906-10.609 6.6824-4.3906 10.609-4.3906zm0.014 5.9961a1.0001 1.0001 0 0 0-0.1 0 1.0001 1.0001 0 0 0-0.75 0.4453l-8 12a1.0001 1.0001 0 0 0 0.8359 1.5547h16a1.0001 1.0001 0 0 0 0.8359-1.5547l-8-12a1.0001 1.0001 0 0 0-0.8222-0.4492zm-0.014 1.0039 8 12h-16zm24 16a16 16 0 0 0-16 16 16 16 0 0 0 16 16 16 16 0 0 0 16-16 16 16 0 0 0-16-16zm0 1c3.927 0 7.8326 1.6138 10.609 4.3906s4.3906 6.6824 4.3906 10.609-1.6138 7.8326-4.3906 10.609-6.6824 4.3906-10.609 4.3906-7.8326-1.6138-10.609-4.3906-4.3906-6.6824-4.3906-10.609 1.6138-7.8326 4.3906-10.609 6.6824-4.3906 10.609-4.3906zm-8.0645 10a1.0001 1.0001 0 0 0-0.7714 1.5547l8 12a1.0001 1.0001 0 0 0 1.6718 0l8-12a1.0001 1.0001 0 0 0-0.8359-1.5547h-16a1.0001 1.0001 0 0 0-0.055 0 1.0001 1.0001 0 0 0-0.01 0zm0.065 1h16l-8 12z" opacity=".1"/>
  <path id="path66" d="m36 20a16 16 0 0 0-16 16 16 16 0 0 0 0.021 0.4199 16 16 0 0 1 15.978-15.42 16 16 0 0 1 15.978 15.58 16 16 0 0 0 0.022-0.5801 16 16 0 0 0-16-16zm-7.334 20-0.666 1h16l-0.666-1zm31.334 4a16 16 0 0 0-16 16 16 16 0 0 0 0.022 0.4199 16 16 0 0 1 15.978-15.42 16 16 0 0 1 15.978 15.58 16 16 0 0 0 0.022-0.5801 16 16 0 0 0-16-16zm-8 13 8 12 8-12h-0.666l-7.334 11-7.334-11z" opacity=".3"/>
  <path id="path71" d="m36 20a16 16 0 0 0-16 16 16 16 0 0 0 0.021 0.4199 16 16 0 0 1 15.978-15.42 16 16 0 0 1 15.978 15.58 16 16 0 0 0 0.022-0.5801 16 16 0 0 0-16-16zm-7.334 20-0.666 1h16l-0.666-1zm31.334 4a16 16 0 0 0-16 16 16 16 0 0 0 0.022 0.4199 16 16 0 0 1 15.978-15.42 16 16 0 0 1 15.978 15.58 16 16 0 0 0 0.022-0.5801 16 16 0 0 0-16-16zm-8 13 8 12 8-12h-0.666l-7.334 11-7.334-11z" opacity=".4"/>
  <path id="path76" d="m36 28-8 12h0.666l7.334-11 7.334 11h0.666zm-15.978 8.4199a16 16 0 0 0-0.021 0.5801 16 16 0 0 0 16 16 16 16 0 0 0 16-16 16 16 0 0 0-0.022-0.4199 16 16 0 0 1-15.978 15.42 16 16 0 0 1-15.978-15.58zm31.978 19.58 0.666 1h14.668l0.666-1zm-7.9785 4.4199a16 16 0 0 0-0.022 0.5801 16 16 0 0 0 16 16 16 16 0 0 0 16-16 16 16 0 0 0-0.022-0.4199 16 16 0 0 1-15.978 15.42 16 16 0 0 1-15.978-15.58z" fill="#fff" opacity=".1"/>
  <path id="path81" d="m36 27-8 12h0.666l7.334-11 7.334 11h0.666zm-15.978 8.4199a16 16 0 0 0-0.021 0.5801 16 16 0 0 0 16 16 16 16 0 0 0 16-16 16 16 0 0 0-0.022-0.4199 16 16 0 0 1-15.978 15.42 16 16 0 0 1-15.978-15.58zm31.978 19.58 0.666 1h14.668l0.666-1zm-7.9785 4.4199a16 16 0 0 0-0.022 0.5801 16 16 0 0 0 16 16 16 16 0 0 0 16-16 16 16 0 0 0-0.022-0.4199 16 16 0 0 1-15.978 15.42 16 16 0 0 1-15.978-15.58z" fill="#fff" opacity=".15"/>
 </g>
</svg>
