<?xml version="1.0" encoding="UTF-8"?>
<!-- Created with Inkscape (http://www.inkscape.org/) -->
<svg id="svg2408" width="96" height="96" version="1.0" xmlns="http://www.w3.org/2000/svg" xmlns:cc="http://creativecommons.org/ns#" xmlns:dc="http://purl.org/dc/elements/1.1/" xmlns:rdf="http://www.w3.org/1999/02/22-rdf-syntax-ns#" xmlns:xlink="http://www.w3.org/1999/xlink">
 <defs id="defs2410">
  <linearGradient id="ButtonShadow" x1="45.448" x2="45.448" y1="92.54" y2="7.0165" gradientTransform="scale(1.0059 .99417)" gradientUnits="userSpaceOnUse">
   <stop id="stop3750" offset="0"/>
   <stop id="stop3752" stop-opacity=".58824" offset="1"/>
  </linearGradient>
  <linearGradient id="linearGradient3737">
   <stop id="stop3739" stop-color="#fefefe" offset="0"/>
   <stop id="stop3741" stop-color="#fefefe" stop-opacity="0" offset="1"/>
  </linearGradient>
  <filter id="filter3174" color-interpolation-filters="sRGB">
   <feGaussianBlur id="feGaussianBlur3176" stdDeviation="1.71"/>
  </filter>
  <linearGradient id="linearGradient3188" x1="36.357" x2="36.357" y1="6" y2="63.893" gradientUnits="userSpaceOnUse" xlink:href="#linearGradient3737"/>
  <filter id="filter3794" x="-.192" y="-.192" width="1.384" height="1.384" color-interpolation-filters="sRGB">
   <feGaussianBlur id="feGaussianBlur3796" stdDeviation="5.28"/>
  </filter>
  <linearGradient id="linearGradient3613" x1="48" x2="48" y1="20.221" y2="138.66" gradientUnits="userSpaceOnUse" xlink:href="#linearGradient3737"/>
  <radialGradient id="radialGradient3619" cx="48" cy="90.172" r="42" gradientTransform="matrix(1.1573 0 0 .99591 -7.551 .19713)" gradientUnits="userSpaceOnUse" xlink:href="#linearGradient3737"/>
  <clipPath id="clipPath3613">
   <rect id="rect3615" x="6" y="6" width="84" height="84" rx="6" ry="6" fill="#fefefe"/>
  </clipPath>
  <linearGradient id="linearGradient3617" x1="48" x2="48" y1="90" y2="5.9877" gradientUnits="userSpaceOnUse">
   <stop id="stop3702" stop-color="#0a0a0a" offset="0"/>
   <stop id="stop3704" stop-color="#282828" offset="1"/>
  </linearGradient>
  <linearGradient id="ButtonShadow-0" x1="45.448" x2="45.448" y1="92.54" y2="7.0165" gradientTransform="matrix(1.0059 0 0 .99417 100 0)" gradientUnits="userSpaceOnUse">
   <stop id="stop3750-8" offset="0"/>
   <stop id="stop3752-5" stop-opacity=".58824" offset="1"/>
  </linearGradient>
  <linearGradient id="linearGradient3780" x1="32.251" x2="32.251" y1="6.1317" y2="90.239" gradientTransform="matrix(1.0238 0 0 1.0119 -1.1429 -98.071)" gradientUnits="userSpaceOnUse" xlink:href="#ButtonShadow-0"/>
  <linearGradient id="linearGradient3721" x1="32.251" x2="32.251" y1="6.1317" y2="90.239" gradientTransform="translate(0,-97)" gradientUnits="userSpaceOnUse" xlink:href="#ButtonShadow-0"/>
  <linearGradient id="linearGradient3908" x1="-24" x2="-16" y2="32" gradientTransform="translate(170,-10)" gradientUnits="userSpaceOnUse" spreadMethod="reflect">
   <stop id="stop3904" stop-color="#727272" offset="0"/>
   <stop id="stop3906" stop-color="#ddd" offset="1"/>
  </linearGradient>
  <clipPath id="clipPath3940-2">
   <path id="path3942-9" d="m-95.162 21.901c-4.3623 0.23861-8.877-0.66368-13.185 2.6532-0.11373-4.0903 0.81066-6.4791-1.2122-8.6364-1.7279-1.8426-5.0515-1.68-7.5775-1.6678-9.6951 0.04709-17.9-0.24766-27.947-0.22775-0.52004 1e-3 -2.2064 0.34994-2.6595 0.60522-0.40328-0.18807-0.81889 0.18772-1.0719 0.82646-2.1812-0.32792-2.0632 2.328-3.1872 3.4774-0.93065 0.1943-2.2834 0.43119-2.2568 1.909 0.0291 1.6171 1.4204 1.6055 1.8982 2.3666 0.80608 3.1104 2.4861 6.3226 2.8741 9.6061 0.29048 2.4581-0.54293 4.9862 1.026 6.8518 2.0274 2.4107 5.7503 2.8284 8.9002 2.8444 11.626 0.0592 24.933 0.30306 36.974 0.30306 6.995 0 13.032 4.1617 13.032 9.5465 0 10.435-0.10812 22.234-0.10812 32.731 0 6.6071-5.217 10.947-10.348 11.365-17.236 1.4055-34.337 0.75766-51.672 0.75766-7.8187 0-14.944-3.3137-15.835-8.6807-0.97301-5.862-0.98539-12.572-0.98539-18.292 7.2716 0 13.337 0.30306 18.79 0.30306 0 3.002-0.063 4.8781 0.19496 7.5447 0.2257 2.3334 2.1235 4.1233 3.8964 4.1233 10.363 0 20.997 0.30306 31.822 0.30306 3.7793 0 5.4445-3.2009 5.4445-5.9531v-15.759c0-2.8991-1.8524-4.9571-4.5353-4.9571-12.076 0-27.183-0.13026-40.135-0.13026-6.335 0-15.326-3.861-15.326-11.992 0-11.112 0.15153-23.184 0.15153-33.337 0-5.0422 6.3341-10.28 11.375-10.369 18.384-0.32434 37.215-0.40638 55.601 0.21622 5.7399 0.19437 9.9566 3.8823 10.824 9.8389 0.63317 4.3465 0.72131 8.5988 0.82235 12.393-0.52834 0.23927-0.82797-0.72982-1.6908-0.75804-0.78126 0.02615-0.0321 1.1563-0.52925 1.1078-0.66031-0.61952-1.0987-0.4057-1.6177-0.41771-0.51897-0.01205-2.0158 0.51151-1.7477-0.49476z" fill="#f0f" opacity=".69869"/>
  </clipPath>
 </defs>
 <metadata id="metadata2413">
  <rdf:RDF>
   <cc:Work rdf:about="">
    <dc:format>image/svg+xml</dc:format>
    <dc:type rdf:resource="http://purl.org/dc/dcmitype/StillImage"/>
    <dc:title/>
   </cc:Work>
  </rdf:RDF>
 </metadata>
 <g id="layer2" display="none">
  <rect id="rect3745" x="5" y="7" width="86" height="85" rx="6" ry="6" fill="url(#ButtonShadow)" filter="url(#filter3174)" opacity=".9"/>
 </g>
 <g id="layer3">
  <path id="path3786" transform="scale(1,-1)" d="m12-95.031c-5.5111 0-10.031 4.5202-10.031 10.031v71c0 5.5111 4.5202 10.031 10.031 10.031h72c5.5111 0 10.031-4.5202 10.031-10.031v-71c0-5.5111-4.5202-10.031-10.031-10.031h-72z" fill="url(#linearGradient3780)" opacity=".08"/>
  <path id="path3778" transform="scale(1,-1)" d="m12-94.031c-4.9716 0-9.0312 4.0596-9.0312 9.0312v71c0 4.9716 4.0596 9.0312 9.0312 9.0312h72c4.9716 0 9.0312-4.0596 9.0312-9.0312v-71c0-4.9716-4.0596-9.0312-9.0312-9.0312h-72z" fill="url(#linearGradient3780)" opacity=".1"/>
  <path id="path3770" transform="scale(1,-1)" d="m12-93c-4.4091 0-8 3.5909-8 8v71c0 4.4091 3.5909 8 8 8h72c4.4091 0 8-3.5909 8-8v-71c0-4.4091-3.5909-8-8-8h-72z" fill="url(#linearGradient3780)" opacity=".2"/>
  <rect id="rect3723" transform="scale(1,-1)" x="5" y="-92" width="86" height="85" rx="7" ry="7" fill="url(#linearGradient3780)" opacity=".3"/>
  <rect id="rect3716" transform="scale(1,-1)" x="6" y="-91" width="84" height="84" rx="6" ry="6" fill="url(#linearGradient3721)" opacity=".45"/>
 </g>
 <g id="layer1">
  <rect id="rect2419" x="6" y="6" width="84" height="84" rx="6" ry="6" fill="url(#linearGradient3617)"/>
  <path id="rect3728" d="m12 6c-3.324 0-6 2.676-6 6v2 68 2c0 0.33472 0.04135 0.6507 0.09375 0.96875 0.0487 0.2956 0.09704 0.59692 0.1875 0.875 0.00988 0.03038 0.020892 0.0636 0.03125 0.09375 0.098865 0.28777 0.23488 0.54745 0.375 0.8125 0.14459 0.27351 0.31562 0.53562 0.5 0.78125s0.37378 0.47347 0.59375 0.6875c0.43995 0.42806 0.94291 0.81453 1.5 1.0938 0.27854 0.13961 0.57347 0.24695 0.875 0.34375-0.2562-0.10022-0.48671-0.23627-0.71875-0.375-0.00741-0.0044-0.023866 0.0045-0.03125 0-0.031933-0.0193-0.062293-0.04251-0.09375-0.0625-0.1204-0.0767-0.23102-0.16351-0.34375-0.25-0.10617-0.0808-0.21328-0.16111-0.3125-0.25-0.17793-0.16143-0.34746-0.34539-0.5-0.53125-0.10758-0.13026-0.21839-0.26528-0.3125-0.40625-0.025089-0.03838-0.038446-0.08587-0.0625-0.125-0.064763-0.10303-0.13023-0.20452-0.1875-0.3125-0.10101-0.19471-0.20567-0.4157-0.28125-0.625-0.00796-0.02181-0.023589-0.04055-0.03125-0.0625-0.031825-0.09195-0.035804-0.18683-0.0625-0.28125-0.030332-0.10662-0.070389-0.20303-0.09375-0.3125-0.072879-0.34151-0.125-0.6982-0.125-1.0625v-2-68-2c0-2.7818 2.2182-5 5-5h2 68 2c2.7818 0 5 2.2182 5 5v2 68 2c0 0.3643-0.05212 0.72099-0.125 1.0625-0.04415 0.20689-0.08838 0.39766-0.15625 0.59375-0.0077 0.02195-0.0233 0.04069-0.03125 0.0625-0.06274 0.17374-0.13838 0.36745-0.21875 0.53125-0.04158 0.0828-0.07904 0.16995-0.125 0.25-0.0546 0.09721-0.12677 0.18835-0.1875 0.28125-0.09411 0.14096-0.20492 0.276-0.3125 0.40625-0.14317 0.17445-0.30314 0.347-0.46875 0.5-0.01117 0.0102-0.01998 0.02115-0.03125 0.03125-0.13839 0.12556-0.28509 0.23444-0.4375 0.34375-0.10257 0.07315-0.20432 0.15336-0.3125 0.21875-0.0074 0.0045-0.02384-0.0044-0.03125 0-0.23204 0.13873-0.46255 0.27478-0.71875 0.375 0.30153-0.0968 0.59646-0.20414 0.875-0.34375 0.55709-0.27922 1.0601-0.66569 1.5-1.0938 0.21997-0.21403 0.40937-0.44186 0.59375-0.6875s0.35541-0.50774 0.5-0.78125c0.14012-0.26505 0.27614-0.52473 0.375-0.8125 0.01041-0.03078 0.02133-0.06274 0.03125-0.09375 0.09046-0.27808 0.1388-0.5794 0.1875-0.875 0.0524-0.31805 0.09375-0.63403 0.09375-0.96875v-2-68-2c0-3.324-2.676-6-6-6h-72z" fill="url(#linearGradient3188)" opacity=".2"/>
  <path id="path3615" d="m12 90c-3.324 0-6-2.676-6-6v-2-68-2c0-0.33472 0.04135-0.6507 0.09375-0.96875 0.0487-0.2956 0.09704-0.59692 0.1875-0.875 0.00988-0.03038 0.020892-0.0636 0.03125-0.09375 0.098865-0.28777 0.23488-0.54745 0.375-0.8125 0.14459-0.27351 0.31562-0.53562 0.5-0.78125s0.37378-0.47347 0.59375-0.6875c0.43995-0.42806 0.94291-0.81453 1.5-1.0938 0.27854-0.13961 0.57347-0.24695 0.875-0.34375-0.2562 0.10022-0.48671 0.23627-0.71875 0.375-0.00741 0.0044-0.023866-0.0045-0.03125 0-0.031933 0.0193-0.062293 0.04251-0.09375 0.0625-0.1204 0.0767-0.23102 0.16351-0.34375 0.25-0.10617 0.0808-0.21328 0.16111-0.3125 0.25-0.17793 0.16143-0.34746 0.34539-0.5 0.53125-0.10758 0.13026-0.21839 0.26528-0.3125 0.40625-0.025089 0.03838-0.038446 0.08587-0.0625 0.125-0.064763 0.10303-0.13023 0.20452-0.1875 0.3125-0.10101 0.19471-0.20567 0.4157-0.28125 0.625-0.00796 0.02181-0.023589 0.04055-0.03125 0.0625-0.031825 0.09195-0.035804 0.18683-0.0625 0.28125-0.030332 0.10662-0.070389 0.20303-0.09375 0.3125-0.072879 0.34151-0.125 0.6982-0.125 1.0625v2 68 2c0 2.7818 2.2182 5 5 5h2 68 2c2.7818 0 5-2.2182 5-5v-2-68-2c0-0.3643-0.05212-0.72099-0.125-1.0625-0.04415-0.20689-0.08838-0.39766-0.15625-0.59375-0.0077-0.02195-0.0233-0.04069-0.03125-0.0625-0.06274-0.17374-0.13838-0.36745-0.21875-0.53125-0.04158-0.0828-0.07904-0.16995-0.125-0.25-0.0546-0.09721-0.12677-0.18835-0.1875-0.28125-0.09411-0.14096-0.20492-0.276-0.3125-0.40625-0.14317-0.17445-0.30314-0.347-0.46875-0.5-0.01117-0.0102-0.01998-0.02115-0.03125-0.03125-0.13839-0.12556-0.28509-0.23444-0.4375-0.34375-0.10257-0.07315-0.20432-0.15336-0.3125-0.21875-0.0074-0.0045-0.02384 0.0044-0.03125 0-0.23204-0.13873-0.46255-0.27478-0.71875-0.375 0.30153 0.0968 0.59646 0.20414 0.875 0.34375 0.55709 0.27922 1.0601 0.66569 1.5 1.0938 0.21997 0.21403 0.40937 0.44186 0.59375 0.6875s0.35541 0.50774 0.5 0.78125c0.14012 0.26505 0.27614 0.52473 0.375 0.8125 0.01041 0.03078 0.02133 0.06274 0.03125 0.09375 0.09046 0.27808 0.1388 0.5794 0.1875 0.875 0.0524 0.31805 0.09375 0.63403 0.09375 0.96875v2 68 2c0 3.324-2.676 6-6 6h-72z" fill="url(#radialGradient3619)" opacity=".1"/>
  <rect id="rect3898" x="114" y="-26" width="128" height="128" color="#000000"/>
  <path id="path3900" d="m214.84 11.901c-4.3623 0.2386-8.877-0.66368-13.185 2.6532-0.11373-4.0903 0.81066-6.4791-1.2122-8.6364-1.7279-1.8426-5.0515-1.68-7.5775-1.6678-9.6951 0.04709-17.9-0.24766-27.947-0.22775-0.52004 1e-3 -2.2064 0.34993-2.6595 0.60522-0.40328-0.18807-0.81889 0.18772-1.0719 0.82646-2.1812-0.32792-2.0632 2.328-3.1872 3.4774-0.93065 0.1943-2.2834 0.43118-2.2568 1.909 0.0291 1.6171 1.4204 1.6055 1.8982 2.3666 0.80608 3.1104 2.4861 6.3226 2.8741 9.6061 0.29048 2.4581-0.54293 4.9862 1.026 6.8518 2.0274 2.4107 5.7503 2.8284 8.9002 2.8444 11.626 0.0592 24.933 0.30306 36.974 0.30306 6.995 0 13.032 4.1617 13.032 9.5465 0 10.435-0.10812 22.234-0.10812 32.731 0 6.6071-5.217 10.947-10.348 11.365-17.236 1.4055-34.337 0.75766-51.672 0.75766-7.8187 0-14.944-3.3137-15.835-8.6807-0.97301-5.862-0.98539-12.572-0.98539-18.292 7.2716 0 13.337 0.30306 18.79 0.30306 0 3.002-0.063 4.8781 0.19496 7.5447 0.2257 2.3334 2.1235 4.1233 3.8964 4.1233 10.363 0 20.997 0.30306 31.822 0.30306 3.7793 0 5.4445-3.2009 5.4445-5.9531v-15.759c0-2.8991-1.8524-4.9571-4.5353-4.9571-12.076 0-27.183-0.13026-40.135-0.13026-6.335 0-15.326-3.861-15.326-11.992 0-11.112 0.15153-23.184 0.15153-33.337 0-5.0422 6.3341-10.28 11.375-10.369 18.384-0.32434 37.215-0.40638 55.601 0.21622 5.7399 0.19437 9.9566 3.8823 10.824 9.8389 0.63317 4.3465 0.72131 8.5988 0.82235 12.393-0.52834 0.23927-0.82797-0.72982-1.6908-0.75804-0.78126 0.02616-0.0321 1.1563-0.52925 1.1078-0.66031-0.61952-1.0987-0.4057-1.6177-0.41771s-2.0158 0.51151-1.7477-0.49476z" fill="url(#linearGradient3908)"/>
  <path id="path3912" d="m180.97-10.219c-9.3041-0.01677-18.589 0.08783-27.781 0.25-5.0414 0.08894-11.375 5.3016-11.375 10.344 0 10.152-0.15625 22.231-0.15625 33.344 0 4.2364 2.4535 7.3052 5.6875 9.2812-2.8294-1.872-4.8438-4.561-4.8438-8.2812 0-11.104 0.15625-23.183 0.15625-33.344 0-2.1647 1.4139-4.5424 3.5-6.375s4.7975-3.0856 7.0312-3.125c9.1882-0.1621 18.485-0.26676 27.781-0.25 9.2984 0.01676 18.601 0.12663 27.781 0.4375 5.3895 0.1825 9.1816 3.5069 10 9.125 0.54864 3.7663 0.7149 7.4511 0.8125 10.875 0.31751 0.25974 0.56174 0.54811 0.875 0.40625-0.10104-3.794-0.21058-8.0597-0.84375-12.406-0.86771-5.9566-5.0726-9.6494-10.812-9.8438-9.1932-0.3113-18.508-0.42073-27.812-0.4375zm-19.438 15.125c-0.15167 0.045542-0.29775 0.09613-0.40625 0.1875-0.11872 0.099971-0.20998 0.21729-0.28125 0.34375 0.1106 3.2e-5 0.21871 0.012451 0.34375 0.03125 0.091-0.22979 0.21879-0.41478 0.34375-0.5625zm38.188 0.40625c0.26118 0.17188 0.50276 0.36342 0.71875 0.59375 2.0229 2.1572 1.105 4.5659 1.2188 8.6562 0.28928-0.22272 0.58397-0.43871 0.875-0.625 0.0384-1.2201 0.12139-2.4211 0.0937-3.4375-0.0403-1.4836-0.39898-2.9467-1.5625-4.1875-0.39694-0.4233-0.85111-0.74443-1.3438-1zm-40 0.5625c-0.0976 0.031207-0.19957 0.067629-0.28125 0.125-0.49006 0.34422-0.77825 0.83943-1 1.2812-0.35903 0.71534-0.59346 1.3485-0.84375 1.75 0.13767-0.031021 0.27966-0.067321 0.40625-0.09375 0.7753-0.79272 0.96327-2.3097 1.7188-3.0625zm-3.5625 3.7812c-0.0209 0.01183-0.0414 0.018668-0.0625 0.03125-0.63505 0.378-1.2054 1.1583-1.1875 2.1562 0.0189 1.0485 0.61066 1.8113 1.125 2.1875 0.49349 0.36091 0.77939 0.51719 0.84375 0.59375 0.85623 3.1847 2.4263 6.2779 2.7812 9.2812 0.1302 1.1017 4e-3 2.3138 0.0312 3.5625 0.0271 1.2487 0.23403 2.6163 1.1875 3.75 2.3272 2.7672 6.3409 3.1086 9.5625 3.125 11.617 0.05915 24.916 0.3125 36.969 0.3125 3.3293 0 6.4389 1.0032 8.6562 2.5938s3.5312 3.7194 3.5312 6.0938c0 10.43-0.0937 22.249-0.0937 32.75 0 3.7691-1.8224 6.7166-4.3125 8.5312 2.9484-1.9251 5.1562-5.24 5.1562-9.5312 0-10.496 0.0937-22.315 0.0937-32.75 0-5.3848-6.0362-9.5312-13.031-9.5312-12.041 0-25.343-0.2533-36.969-0.3125-3.1499-0.01604-6.8788-0.43302-8.9062-2.8438-1.569-1.8656-0.74077-4.3857-1.0312-6.8438-0.38802-3.2836-2.0689-6.4833-2.875-9.5938-0.47785-0.76115-1.8459-0.75795-1.875-2.375-0.01-0.5339 0.14074-0.92103 0.40625-1.1875zm62.219 2.2812c-0.27644 0.09623-0.5358 0.29832-0.6875 0.53125 0.1618 0.06528 0.3394 0.16376 0.53125 0.34375 0.36279 0.03542 0.0418-0.54211 0.15625-0.875zm-3.5625 0.125c-0.0286 0.41791 0.34698 0.4721 0.78125 0.4375a0.85126 0.85126 0 0 0-0.78125-0.4375zm-15 34.688c1.1341 0.86814 1.8438 2.3048 1.8438 4.0625v15.75c0 2.7522-1.6894 5.9375-5.4688 5.9375-10.825 0-21.45-0.28125-31.812-0.28125-1.7729 0-3.6806-1.7916-3.9062-4.125-0.25796-2.6665-0.1875-4.5605-0.1875-7.5625-5.4525 0-11.51-0.28125-18.781-0.28125 0 5.7199-4e-3 12.419 0.96875 18.281 0.36416 2.194 1.8057 4.0159 3.875 5.4375-1.6619-1.2575-2.7388-2.8005-3.0312-4.5625-0.91131-5.4903-0.96665-11.779-0.96875-17.312 6.5134 0.022 12.081 0.26003 17.125 0.28125-0.01 2.4726-0.0778 4.3926 0.15625 6.8125 0.26593 2.7493 2.4037 4.875 4.75 4.875 10.348 0 20.973 0.28125 31.812 0.28125 2.1288 0 3.7766-0.92978 4.8125-2.25s1.5-2.981 1.5-4.5312v-15.75c0-2.204-1.0524-4.0753-2.6875-5.0625z" opacity=".3"/>
  <path id="path3926" d="m148.53-8.6875c-3.6051 1.8832-6.7188 5.5224-6.7188 9.0625 0 10.152-0.15625 22.231-0.15625 33.344 0 8.1313 8.9775 12 15.312 12 12.952 0 28.049 0.125 40.125 0.125 2.6828 0 4.5625 2.0697 4.5625 4.9688v15.75c0 1.7922-0.71378 3.7725-2.25 4.9375 0.63309-0.3752 1.1626-0.85678 1.5938-1.4062 1.0365-1.3209 1.5-2.9803 1.5-4.5312v-15.75c0-3.2684-2.2839-5.8125-5.4062-5.8125-12.07 0-27.168-0.125-40.125-0.125-2.9935 0-6.6951-0.93922-9.5625-2.8125s-4.9062-4.5926-4.9062-8.3438c0-11.104 0.15625-23.183 0.15625-33.344 0-2.1633 1.4457-4.5429 3.5312-6.375 0.72889-0.6403 1.5138-1.2157 2.3438-1.6875zm66.5 0.9375c1.9545 1.5628 3.2776 3.9093 3.7188 6.9375 0.55679 3.8222 0.71532 7.5643 0.8125 11.031-0.2603-0.15274-0.41129-0.33063-0.8125-0.34375a0.85462 0.85462 0 0 0-0.0625 0c-0.40318 0.0135-0.93331 0.33232-1.0938 0.71875-0.0485-0.0083-0.10988-0.05845-0.15625-0.0625-0.42072-0.03677-0.68222 0.03426-0.8125 0.03125-0.28137-0.0065-0.48262 0.03199-0.6875 0.0625-0.10838 0.01614-0.18784 0.02123-0.28125 0.03125a0.85462 0.85462 0 0 0-0.84375-0.59375c-3.7881 0.2072-8.1106-0.38986-12.281 2.0312 0.0365-1.271 0.12257-2.5337 0.0937-3.5938-0.0404-1.484-0.39838-2.9461-1.5625-4.1875-1.0593-1.1296-2.541-1.5823-4-1.7812-1.4589-0.19892-2.9423-0.13105-4.1874-0.125-9.6759 0.046997-17.904-0.23869-27.969-0.21875-0.44309 8.52e-4 -0.95586 0.095274-1.5312 0.21875-0.48293 0.10363-0.87436 0.22334-1.2812 0.40625-0.37047 7.21e-4 -0.73363 0.083252-0.96875 0.28125-0.21464 0.18074-0.30748 0.42724-0.4375 0.65625-0.4475 0.038298-0.92283 0.02019-1.25 0.25-0.49076 0.34471-0.77813 0.83919-1 1.2812-0.41701 0.83086-0.70138 1.5694-1 1.9375-0.41554 0.086177-0.84617 0.17257-1.3438 0.46875-0.63578 0.37844-1.2055 1.1572-1.1875 2.1562 0.0189 1.0494 0.57898 1.811 1.0938 2.1875s0.86287 0.58715 0.90625 0.65625c0.86047 3.1619 2.3977 6.2371 2.75 9.2188 0.13014 1.1012 4e-3 2.3135 0.0312 3.5625 0.0271 1.249 0.23336 2.6155 1.1875 3.75 0.56313 0.6696 1.2436 1.1785 1.9688 1.5938-0.4844-0.32236-0.93236-0.70424-1.3125-1.1562-1.569-1.8656-0.74077-4.3857-1.0312-6.8438-0.38802-3.2836-2.0689-6.4833-2.875-9.5938-0.47785-0.76115-1.8459-0.75795-1.875-2.375-0.0266-1.4778 1.3194-1.7119 2.25-1.9062 1.1241-1.1493 1.0063-3.7967 3.1875-3.4688 0.25297-0.63874 0.65922-1.0318 1.0625-0.84375 0.45306-0.25529 2.1362-0.59275 2.6562-0.59375 10.047-0.019907 18.274 0.26584 27.969 0.21875 2.526-0.012269 5.8346-0.18637 7.5625 1.6562 2.0229 2.1572 1.105 4.5659 1.2188 8.6562 4.3081-3.3168 8.8252-2.4176 13.188-2.6562-0.26812 1.0063 1.231 0.48799 1.75 0.5s0.96469-0.21327 1.625 0.40625c0.49715 0.04853-0.28126-1.0676 0.5-1.0938 0.86282 0.02822 1.1904 0.98927 1.7188 0.75-0.10104-3.794-0.21058-8.0597-0.84375-12.406-0.505-3.4667-2.1487-6.1241-4.5625-7.8125zm1.0312 43c2.2167 1.5901 3.5312 3.7207 3.5312 6.0938 0 10.43-0.0937 22.249-0.0937 32.75 0 6.1576-4.8634 10.148-9.5625 10.531-17.169 1.4-34.269 0.75-51.625 0.75-3.7884 0-7.4079-0.83006-10.125-2.25s-4.4853-3.3707-4.875-5.7188c-0.90298-5.4398-0.96569-11.659-0.9688-17.156-0.29-9.5e-4 -0.54985 0-0.84375 0 0 5.7199-4e-3 12.419 0.96875 18.281 0.89083 5.367 8.025 8.6875 15.844 8.6875 17.335 0 34.451 0.65546 51.688-0.75 5.1306-0.41835 10.344-4.7679 10.344-11.375 0-10.496 0.0937-22.315 0.0937-32.75 0-2.8712-1.7123-5.3635-4.375-7.0938zm-56.594 25.281c-0.0119 2.3923-0.0726 4.2911 0.15625 6.6562 0.18863 1.9501 1.3351 3.557 2.8125 4.3438-1.0087-0.72946-1.8277-1.9791-1.9688-3.4375-0.25796-2.6665-0.1875-4.5605-0.1875-7.5625-0.26251 0-0.54708 0.0013-0.8125 0z" fill="#fefefe" opacity=".2"/>
 </g>
 <g id="layer5">
  <rect id="rect3171" x="15" y="15" width="66" height="66" rx="12" ry="12" clip-path="url(#clipPath3613)" fill="url(#linearGradient3613)" filter="url(#filter3794)" opacity=".1" stroke="#fefefe" stroke-linecap="round" stroke-width=".5"/>
 </g>
 <g id="layer4">
  <path id="path3984" d="m48 14.031c-6.621 0.0993-13.352-0.17372-20.062 0.375a0.99131 0.99131 0 0 0-0.125 0.03125c-5.7496 1.2647-9.3633 7.0151-8.4375 12.719h-0.03125c0.09811 6.7669-0.37369 13.673 0.09375 20.562a0.99131 0.99131 0 0 0 0.03125 0.15625c0.78935 3.3991 3.1987 5.7873 6.0625 7.1875 2.8352 1.3862 6.1275 1.8814 9.125 1.5938 0.03024-0.0029 0.06357 0.0031 0.09375 0 7.8619 0.05772 15.703 0.01535 23.531 0.15625 0.22622 0.51318 0.39265 1.0602 0.375 1.8438-0.02059 0.9139-0.13319 1.978-0.03125 3.0625h-0.03125c-0.18473 2.3481 0.21009 4.4499-0.28125 6.1875-3.3225 0.8522-7.4961 0.01157-11.562 0.28125-1.8337-0.35792-3.8087-0.05539-5.5625 0.0625-1.7127 0.11513-2.9809-0.04384-3.7188-0.65625-0.1296-0.71226-0.04724-1.7123 0-2.875 0.02618-0.64454 0.01984-1.311-0.1875-2-0.20734-0.68903-0.64786-1.3869-1.3438-1.875a0.99131 0.99131 0 0 0-0.4375-0.15625c-4.1871-0.57168-8.3958-0.23895-12.406-0.4375v0.03125c-1.3179-0.28082-2.5764 0.24374-3.2812 1.1562-0.69048 0.89391-0.90882 2.1139-0.625 3.2812h-0.03125c0.18562 2.3566-0.01399 5.1251 0.1875 7.8438 0.20149 2.7186 0.84792 5.4739 2.9375 7.6562a0.99131 0.99131 0 0 0 0.0625 0.0625c2.954 2.5601 6.4832 3.3494 10 3.5625s7.0846-0.10697 10.281 0.09375a0.99131 0.99131 0 0 0 0.0625 0c8.678-9e-3 17.502 0.27932 26.25-0.875a0.99131 0.99131 0 0 0 0.09375 0c3.0612-0.72174 5.2521-2.7964 6.5-5.3125 1.234-2.488 1.5889-5.3998 1.2188-8.125h0.03125c-0.13341-6.5862 0.38625-13.308-0.1875-20.031a0.99131 0.99131 0 0 0-0.0625-0.1875c-0.98579-3.2754-3.4629-5.2522-6.2812-6.25-2.7778-0.98342-5.9162-1.1192-8.625-0.90625-0.0419-8.8e-4 -0.0831 8.56e-4 -0.125 0-7.4712-0.15262-14.923 0.06381-22.281-0.375-0.83569-0.20881-1.2037-0.55985-1.5-1.1562-0.30605-0.61609-0.47116-1.5242-0.5625-2.5938-0.1806-2.1147-0.0461-4.8301-1.75-6.8125-0.09444-0.13051-0.09361-0.2642 0.09375-0.59375 0.18736-0.32955 0.58403-0.65358 0.84375-0.75a0.99131 0.99131 0 0 0 0.28125-0.15625c0.65448-0.53062 1.5229-0.64964 2.6562-0.59375 1.0772 0.05312 2.3205 0.24421 3.5938 0.09375v0.03125c5.2868 0.2429 10.538-0.1299 15.594 0.375 0.10367 0.13198 0.19062 0.23387 0.21875 0.53125 0.03838 0.40575-7e-3 0.98497-0.0625 1.625-0.05553 0.64003-0.12605 1.3478 0.0625 2.0938s0.73915 1.516 1.5938 1.9375a0.99131 0.99131 0 0 0 0.0625 0.03125c0.75234 0.2994 1.5231 0.2831 2.1562 0.09375s1.1547-0.5023 1.625-0.78125c0.94061-0.5579 1.5934-0.91567 2.2812-0.75a0.99131 0.99131 0 0 0 0.34375 0c1.2054-0.16949 2.457 0.07303 3.8125 0.28125 1.3555 0.20822 2.8464 0.38594 4.4375-0.15625a0.99131 0.99131 0 0 0 0.15625-0.0625c0.75682-0.42249 1.2917-1.1182 1.5312-1.8125s0.25742-1.3711 0.21875-2.0312c-0.07734-1.3203-0.35688-2.5986-0.25-3.25a0.99131 0.99131 0 0 0 0.03125-0.15625c0.01988-2.3518-0.36765-4.8829-1.4062-7.125s-2.7766-4.2023-5.375-5.125a0.99131 0.99131 0 0 0-0.09375-0.03125c-5.1886-1.3782-10.494-0.67125-15.438-0.96875a0.99131 0.99131 0 0 0-0.0625 0c-2.1116-0.025011-4.2082-0.027454-6.3125-0.03125z" opacity=".05"/>
  <path id="path3978" d="m48 15.031c-6.6574 0.09985-13.354-0.1698-19.984 0.37235-5.2761 1.1605-8.6237 6.5156-7.6782 11.763 0.09891 6.8217-0.35287 13.679 0.10846 20.478 1.4277 6.148 8.5424 8.5903 14.224 8.0142 8.1129 0.0605 16.24 8.2e-5 24.344 0.15817 1.1368 1.6532 0.34134 3.9988 0.57953 5.9585-0.18218 2.3158 0.42747 4.788-0.4375 6.9748-3.7714 1.2118-8.275 0.15958-12.333 0.42872-3.2134-0.761-8.173 1.2715-10.292-0.99122-0.63302-2.0791 0.91054-5.0817-1.1562-6.5312-4.0404-0.55164-8.2561-0.20117-12.356-0.40414-2.0527-0.56837-3.4432 1.5596-2.8639 3.4038 0.38968 4.9473-0.90398 10.948 2.8459 14.864 5.4735 4.7436 13.081 3.0028 19.696 3.4182 8.7019-9e-3 17.476 0.28964 26.114-0.85028 5.5146-1.3002 7.7031-7.3039 6.974-12.426-0.13471-6.6505 0.37579-13.354-0.18883-19.97-1.7746-5.8964-8.7187-6.8883-13.998-6.4517-7.5102-0.15772-15.051 0.079943-22.542-0.37249-4.5767-1.05-1.6116-7.7523-4.4627-10.961-0.72773-1.0057 0.33789-2.4784 1.4062-2.875 1.8757-1.5208 4.6757-0.35414 6.9105-0.68682 5.3537 0.24597 10.771-0.18327 16.084 0.40339 1.8208 1.4368-0.7514 5.0623 1.7246 6.2834 2.1457 0.85392 3.662-2.0273 5.916-1.4845 2.8262-0.3974 5.3564 1.0595 8.0528 0.14074 2.2348-1.2476 0.67799-4.4166 1.0015-6.388 0.03781-4.4726-1.4828-9.636-6.1256-11.285-4.9384-1.3118-10.177-0.63566-15.249-0.94092-2.1045-0.024928-4.2092-0.038813-6.3139-0.04261zm-15.156 16.562c-0.2543 0.28069-1.3171 0.05527 0 0zm39.156 0.125c0.87251 0.08773-0.16241 0.73899 0 0zm-3.4375 0.875c0.72872 1.0286-0.03212 0.41842 0 0z" opacity=".15"/>
  <path id="path3974" d="m48 16.094c-6.1086-0.01101-12.217 0.04982-18.25 0.15625-1.9642 0.03465-3.9722 1.0034-5.5625 2.4062s-2.7812 3.2751-2.7812 5.3125c0 6.6492-0.09375 14.549-0.09375 21.844 0 3.0024 1.7056 5.2669 3.875 6.6875s4.7986 2.0938 7.0625 2.0938c8.4867 0 18.417 0.09375 26.344 0.09375 0.64578 0 1.1169 0.23771 1.4688 0.625s0.59375 0.96225 0.59375 1.7188v10.312c0 0.71918-0.22606 1.5063-0.65625 2.0625s-1.0195 0.9375-2 0.9375c-7.0827 0-14.062-0.1875-20.875-0.1875-0.55525 0-1.5516-0.79306-1.6562-1.875-0.16366-1.6918-0.125-2.8927-0.125-4.875a0.91534 0.91534 0 0 0-0.90625-0.90625c-3.5436 0-7.52-0.1875-12.312-0.1875a0.91534 0.91534 0 0 0-0.90625 0.90625c0 3.7488-0.0319 8.1986 0.625 12.156 0.35197 2.1205 1.9152 3.7442 3.9688 4.8125s4.6511 1.625 7.3438 1.625c11.345 0 22.563 0.42749 33.938-0.5 3.8283-0.31216 7.625-3.561 7.625-8.375 0-6.8777 0.0625-14.589 0.0625-21.438 0-2.1064-1.1687-3.9609-2.9062-5.2188s-4.0548-1.9688-6.5312-1.9688c-7.8847 0-16.618-0.14864-24.25-0.1875-1.9855-0.010111-4.1483-0.36398-5.1562-1.5625-0.32989-0.39225-0.39587-0.8442-0.40625-1.5312s0.08064-1.5219-0.03125-2.4688c-0.2832-2.3965-1.4498-4.5244-1.9375-6.4062a0.91534 0.91534 0 0 0-0.09375-0.28125c-0.36286-0.57798-0.82246-0.70371-0.96875-0.8125s-0.12004-0.0059-0.125-0.28125c-0.0037-0.20808-0.03045-0.06936 0.0625-0.125s0.36857-0.12091 0.6875-0.1875a0.91534 0.91534 0 0 0 0.46875-0.28125c0.62578-0.63984 0.7491-1.3434 0.9375-1.7188 0.0942-0.18765 0.17145-0.26995 0.1875-0.28125 0.01605-0.0113 0.0085-0.02692 0.1875 0a0.91534 0.91534 0 0 0 0.96875-0.53125 0.91534 0.91534 0 0 0 0.28125-0.09375c-0.11512 0.06487 0.30224-0.11482 0.625-0.1875s0.72815-0.12508 0.6875-0.125c6.5692-0.01301 11.964 0.18724 18.344 0.15625 0.84592-0.0041 1.7759-0.01488 2.5625 0.09375 0.78656 0.10863 1.3929 0.33792 1.75 0.71875 0.49986 0.53306 0.576 0.95625 0.59375 1.75 0.01775 0.79375-0.10188 1.896-0.0625 3.3125a0.91534 0.91534 0 0 0 1.4688 0.6875c2.3239-1.7892 4.7687-1.4616 7.5-1.5312 0.02358 0.02652 0.0044 0.07002 0.03125 0.09375 0.35891 0.31777 0.71108 0.31036 0.9375 0.3125 0.22642 0.0021 0.38995-0.04268 0.53125-0.0625s0.25753-0.02962 0.1875-0.03125c0.29519 0.0068 0.44067 3.48e-4 0.4375 0-0.0032-3.48e-4 -0.07481-0.06826 0.03125 0.03125a0.91534 0.91534 0 0 0 0.53125 0.25c0.20598 0.02011 0.56884-0.04777 0.8125-0.28125 0.03899-0.03736 0.03285-0.05568 0.0625-0.09375 0.01842 0.0099 0.01101 0.02131 0.03125 0.03125 0.23668 0.11627 0.70011 0.18121 1.0312 0.03125a0.91534 0.91534 0 0 0 0.53125-0.875c-0.0661-2.482-0.10527-5.2945-0.53125-8.2188-0.62217-4.2711-3.8308-7.0786-7.9688-7.2188-6.0398-0.20452-12.171-0.30148-18.281-0.3125z" opacity=".3"/>
  <path id="path3938" d="m70.209 31.515c-2.8607 0.15647-5.8213-0.43522-8.6465 1.7399-0.07458-2.6823 0.53161-4.2489-0.79497-5.6635-1.1331-1.2084-3.3126-1.1017-4.9691-1.0937-6.3578 0.03088-11.738-0.16241-18.327-0.14935-0.34103 6.56e-4 -1.4469 0.22948-1.744 0.39689-0.26446-0.12333-0.53701 0.1231-0.7029 0.54197-1.4304-0.21505-1.353 1.5267-2.0901 2.2804-0.6103 0.12742-1.4974 0.28276-1.4799 1.2519 0.01908 1.0604 0.93147 1.0529 1.2448 1.552 0.52861 2.0398 1.6303 4.1462 1.8848 6.2995 0.19049 1.612-0.35604 3.2698 0.67284 4.4932 1.3295 1.5809 3.7709 1.8548 5.8365 1.8653 7.6238 0.03882 16.35 0.19874 24.246 0.19874 4.5872 0 8.5459 2.7292 8.5459 6.2604 0 6.8434-0.0709 14.581-0.0709 21.464 0 4.3328-3.4212 7.1785-6.7857 7.4528-11.303 0.92167-22.518 0.49685-33.885 0.49685-5.1273 0-9.7998-2.1731-10.384-5.6926-0.63808-3.8442-0.6462-8.2444-0.6462-11.995 4.7685 0 8.7464 0.19874 12.322 0.19874 0 1.9686-0.04131 3.199 0.12785 4.9476 0.14801 1.5302 1.3925 2.7039 2.5552 2.7039 6.7958 0 13.769 0.19874 20.868 0.19874 2.4784 0 3.5704-2.0991 3.5704-3.9039v-10.335c0-1.9012-1.2148-3.2508-2.9741-3.2508-7.9193 0-17.826-0.08542-26.319-0.08542-4.1543 0-10.05-2.5319-10.05-7.8642 0-7.2873 0.09937-15.204 0.09937-21.862 0-3.3066 4.1537-6.7413 7.4598-6.7996 12.056-0.21269 24.405-0.2665 36.462 0.1418 3.7641 0.12746 6.5293 2.5459 7.0983 6.4521 0.41522 2.8504 0.47302 5.6389 0.53928 8.1269-0.34647 0.15691-0.54296-0.4786-1.1088-0.4971-0.51233 0.01715-0.02105 0.7583-0.34707 0.72647-0.43302-0.40627-0.72051-0.26605-1.0608-0.27392-0.34033-0.0079-1.3219 0.33544-1.1461-0.32446z" opacity=".69869"/>
  <image id="image3051" transform="matrix(.65578 0 0 .65578 132.61 16.153)" x="-193.47" y="-16" width="129.47" height="129.47" clip-path="url(#clipPath3940-2)" xlink:href="file:///usr/local/games/survivor/Survivor.xpm"/>
 </g>
</svg>
