<?xml version="1.0" encoding="UTF-8"?>
<!-- Created with Inkscape (http://www.inkscape.org/) -->
<svg id="svg2408" width="96" height="96" version="1.0" xmlns="http://www.w3.org/2000/svg" xmlns:cc="http://creativecommons.org/ns#" xmlns:dc="http://purl.org/dc/elements/1.1/" xmlns:rdf="http://www.w3.org/1999/02/22-rdf-syntax-ns#" xmlns:xlink="http://www.w3.org/1999/xlink">
 <defs id="defs2410">
  <linearGradient id="ButtonShadow" x1="45.448" x2="45.448" y1="92.54" y2="7.0165" gradientTransform="scale(1.0059 .99417)" gradientUnits="userSpaceOnUse">
   <stop id="stop3750" offset="0"/>
   <stop id="stop3752" stop-opacity=".58824" offset="1"/>
  </linearGradient>
  <filter id="filter3174" color-interpolation-filters="sRGB">
   <feGaussianBlur id="feGaussianBlur3176" stdDeviation="1.71"/>
  </filter>
  <filter id="filter3794" x="-.192" y="-.192" width="1.384" height="1.384" color-interpolation-filters="sRGB">
   <feGaussianBlur id="feGaussianBlur3796" stdDeviation="5.28"/>
  </filter>
  <linearGradient id="linearGradient3613" x1="48" x2="48" y1="20.221" y2="138.66" gradientUnits="userSpaceOnUse">
   <stop id="stop3739" stop-color="#fff" offset="0"/>
   <stop id="stop3741" stop-color="#fff" stop-opacity="0" offset="1"/>
  </linearGradient>
  <linearGradient id="ButtonShadow-0" x1="45.448" x2="45.448" y1="92.54" y2="7.0165" gradientTransform="matrix(1.0059 0 0 .99417 100 0)" gradientUnits="userSpaceOnUse">
   <stop id="stop3750-8" offset="0"/>
   <stop id="stop3752-5" stop-opacity=".58824" offset="1"/>
  </linearGradient>
  <linearGradient id="linearGradient3780" x1="32.251" x2="32.251" y1="6.1317" y2="90.239" gradientTransform="matrix(1.0238 0 0 1.0119 -1.1429 -98.071)" gradientUnits="userSpaceOnUse" xlink:href="#ButtonShadow-0"/>
  <linearGradient id="linearGradient3721" x1="32.251" x2="32.251" y1="6.1317" y2="90.239" gradientTransform="translate(0,-97)" gradientUnits="userSpaceOnUse" xlink:href="#ButtonShadow-0"/>
  <clipPath id="clipPath4355">
   <rect id="rect4357" x="6" y="6" width="84" height="84" rx="6" ry="6" fill="#fff"/>
  </clipPath>
  <linearGradient id="linearGradient4390" x1="48" x2="48" y1="88" y2="-40" gradientTransform="matrix(1,0,0,-1,0,92)" gradientUnits="userSpaceOnUse">
   <stop id="stop4386" stop-color="#fff" offset="0"/>
   <stop id="stop4388" stop-color="#fff" stop-opacity="0" offset="1"/>
  </linearGradient>
  <linearGradient id="linearGradient3920" x1="301.57" x2="301.57" y1="70.042" y2="443.59" gradientTransform="matrix(.22574 0 0 .22574 -9.7844 -9.7903)" gradientUnits="userSpaceOnUse">
   <stop id="stop3974" stop-color="#0b9879" offset="0"/>
   <stop id="stop3976" stop-color="#60e7dc" offset="1"/>
  </linearGradient>
  <linearGradient id="linearGradient3089" x1="40" x2="40" y1="8" y2="88" gradientUnits="userSpaceOnUse">
   <stop id="stop3928" stop-color="#e9e6e8" offset="0"/>
   <stop id="stop3930" stop-color="#92838d" offset="1"/>
  </linearGradient>
 </defs>
 <metadata id="metadata2413">
  <rdf:RDF>
   <cc:Work rdf:about="">
    <dc:format>image/svg+xml</dc:format>
    <dc:type rdf:resource="http://purl.org/dc/dcmitype/StillImage"/>
    <dc:title/>
   </cc:Work>
  </rdf:RDF>
 </metadata>
 <g id="layer2" display="none">
  <rect id="rect3745" x="5" y="7" width="86" height="85" rx="6" ry="6" fill="url(#ButtonShadow)" filter="url(#filter3174)" opacity=".9"/>
 </g>
 <g id="layer3">
  <path id="path3786" transform="scale(1,-1)" d="m12-95.031c-5.5111 0-10.031 4.5202-10.031 10.031v71c0 5.5111 4.5202 10.031 10.031 10.031h72c5.5111 0 10.031-4.5202 10.031-10.031v-71c0-5.5111-4.5202-10.031-10.031-10.031h-72z" fill="url(#linearGradient3780)" opacity=".08"/>
  <path id="path3778" transform="scale(1,-1)" d="m12-94.031c-4.9716 0-9.0312 4.0596-9.0312 9.0312v71c0 4.9716 4.0596 9.0312 9.0312 9.0312h72c4.9716 0 9.0312-4.0596 9.0312-9.0312v-71c0-4.9716-4.0596-9.0312-9.0312-9.0312h-72z" fill="url(#linearGradient3780)" opacity=".1"/>
  <path id="path3770" transform="scale(1,-1)" d="m12-93c-4.4091 0-8 3.5909-8 8v71c0 4.4091 3.5909 8 8 8h72c4.4091 0 8-3.5909 8-8v-71c0-4.4091-3.5909-8-8-8h-72z" fill="url(#linearGradient3780)" opacity=".2"/>
  <rect id="rect3723" transform="scale(1,-1)" x="5" y="-92" width="86" height="85" rx="7" ry="7" fill="url(#linearGradient3780)" opacity=".3"/>
  <rect id="rect3716" transform="scale(1,-1)" x="6" y="-91" width="84" height="84" rx="6" ry="6" fill="url(#linearGradient3721)" opacity=".45"/>
 </g>
 <g id="layer1">
  <rect id="rect2419" x="6" y="6" width="84" height="84" rx="6" ry="6" fill="url(#linearGradient3089)"/>
  <path id="path4189" d="m48.006 27.94c-9.974 0-18.06 8.0456-18.06 18.06 0 0-0.1197 1.6964 0.3991 3.6119h27.734c-0.7488 2.0914-2.0917 3.9678-3.9153 5.2203-4.1954 3.3123-10.549 2.1079-14.123-1.6084h-8.5853c2.788 6.3754 9.1463 10.836 16.55 10.836 9.9739 0 18.059-8.0855 18.059-18.06 0 0 0-1.856-0.3591-3.6119h-27.746c1.5613-3.9464 5.2895-7.1443 9.6223-7.1815 0.2168-0.01 0.4328-0.011 0.649-0.01 2.9045 0.059 5.7228 1.4363 7.6823 3.5767h8.6418c-2.788-6.3754-9.1464-10.836-16.55-10.836zm-4.1066-21.94v7.4516c-13.444 1.6755-24.36 11.484-27.671 24.347h8.5055c3.4883-9.2847 12.724-16.526 22.818-16.458 0.2447-0.01 0.4925-0.01 0.7368-0.01 3.6646 0.022 7.2667 0.9317 10.532 2.5629 5.8811 2.6474 10.248 7.8793 12.382 13.904h8.5696c-3.3108-12.863-14.228-22.672-27.671-24.347v-7.4516zm-27.671 48.201c3.3108 12.863 14.228 22.672 27.671 24.347v11.452h8.2012v-11.452c13.444-1.6755 24.36-11.484 27.671-24.347h-8.4495c-3.3154 9.7804-13.562 16.814-23.923 16.45-10.087 0.051-19.238-7.1549-22.649-16.45z" fill="url(#linearGradient3920)"/>
  <path id="path3936" d="m43.906 6v7.4375c-13.444 1.6755-24.377 11.512-27.688 24.375h8.5c3.4882-9.2847 12.75-16.536 22.844-16.469 0.2447-0.01 0.4744 0 0.7188 0 3.6645 0.022 7.2661 0.9313 10.531 2.5625 5.8811 2.6474 10.241 7.882 12.375 13.906h8.5938c-3.3108-12.863-14.244-22.7-27.688-24.375v-7.4375h-1.9063v7.4375c-0.01 0.9201 0.7441 1.7859 1.6563 1.9062 11.808 1.4717 21.492 9.6467 25.281 20.563h-4.75c-2.427-5.8907-6.7731-11.02-12.719-13.719-0.021-0.01-0.042-0.021-0.062-0.031-3.4966-1.7356-7.3637-2.6953-11.312-2.7188-0.2076 0-0.4478-0.01-0.7188 0-0.024 5e-4 -0.038-6e-4 -0.062 0-10.52-0.042-19.916 7.089-24 16.469h-4.625c3.7894-10.916 13.474-19.091 25.281-20.563 0.9121-0.1203 1.6644-0.9861 1.6562-1.9062v-7.4375zm4.0937 21.938c-9.974 0-18.062 8.0486-18.062 18.062 0 0-0.1125 1.7095 0.4063 3.625h27.75c-0.7488 2.0914-2.114 3.9662-3.9375 5.2188-4.1954 3.3122-10.551 2.0912-14.125-1.625h-8.5625c2.788 6.3753 9.1278 10.844 16.531 10.844 9.974 0 18.062-8.0885 18.062-18.062 0 0 0.015-1.8691-0.3437-3.625h-27.75c1.5612-3.9464 5.2921-7.1191 9.625-7.1562 0.2168-0.011 0.4088-0.036 0.625-0.031 2.9044 0.059 5.7279 1.4534 7.6875 3.5938h8.6562c-2.788-6.3754-9.159-10.844-16.562-10.844zm0 1.9063c5.5087 0 10.24 2.8349 13.156 7.0312h-4.6875c-2.2326-2.0816-5.0894-3.5303-8.2188-3.5937-0.3553-0.01-0.5556 0.022-0.6875 0.031-0.012 9e-4 -0.052-5e-4 -0.062 0-5.2246 0.075-9.5051 3.8065-11.312 8.375-0.4455 1.1506 0.5474 2.5964 1.7813 2.5938h26.031c0.044 0.6691 0.1563 1.6875 0.1563 1.6875-1e-4 0.01-1e-4 0.021 0 0.031 0 8.9438-7.2125 16.156-16.156 16.156-5.5087 0-10.215-2.8334-13.125-7.0313h4.5938c4.2651 3.8012 10.96 5.0074 15.781 1.2813 0.031-0.021 0.063-0.041 0.094-0.062v-0.031c2.132-1.5012 3.6714-3.6295 4.5312-6.0312 0.4201-1.1442-0.5625-2.5577-1.7812-2.5625h-26.062c-0.042-0.6144-0.1875-1.5938-0.1875-1.5938v-0.125c0-8.9878 7.2073-16.156 16.156-16.156zm-31.781 24.344c3.3107 12.863 14.244 22.7 27.688 24.375v11.438h1.9687v-1.9062h-0.062v-9.5313c0.01-0.9201-0.7441-1.7859-1.6562-1.9062-11.808-1.4717-21.492-9.6468-25.281-20.562h4.6563c4.0056 9.3874 13.305 16.493 23.812 16.469 0.021 0 0.041 1e-4 0.062 0 10.772 0.3497 21.132-6.5493 25.156-16.469h4.5625c-3.7894 10.916-13.474 19.091-25.281 20.562-0.9122 0.1203-1.6645 0.9861-1.6563 1.9062v9.5313h-0.062v1.9062h1.9688v-11.438c13.444-1.6755 24.377-11.512 27.688-24.375h-8.4688c-3.3154 9.7804-13.546 16.832-23.906 16.469-10.087 0.051-19.245-7.1733-22.656-16.469z" opacity=".1"/>
  <path id="path3932" d="m43.906 6v7.4375c-13.444 1.6755-24.377 11.512-27.688 24.375h8.5c3.4882-9.2847 12.75-16.536 22.844-16.469 0.2447-0.01 0.4744 0 0.7188 0 3.6645 0.022 7.2661 0.9313 10.531 2.5625 5.8811 2.6474 10.241 7.882 12.375 13.906h8.5938c-3.3108-12.863-14.244-22.7-27.688-24.375v-7.4375h-1.0938v1.0625h0.031v6.375c0 0.5165 0.4248 0.9997 0.9375 1.0625 12.522 1.5606 22.708 10.487 26.312 22.25h-6.4375c-2.3064-5.949-6.6405-11.138-12.562-13.812h-0.031c-3.3969-1.6923-7.1417-2.6334-10.969-2.6562-0.2242 0-0.4561-0.01-0.7188 0-0.011 2e-4 -0.02-4e-4 -0.031 0-10.339-0.055-19.67 7.1235-23.5 16.469h-6.3125c3.6047-11.762 13.791-20.689 26.312-22.25 0.5126-0.063 0.939-0.546 0.9375-1.0625v-6.375h0.031v-1.0625zm4.0937 21.938c-9.974 0-18.062 8.0486-18.062 18.062 0 0-0.1125 1.7095 0.4063 3.625h27.75c-0.7488 2.0914-2.114 3.9662-3.9375 5.2188-4.1954 3.3122-10.551 2.0912-14.125-1.625h-8.5625c2.788 6.3753 9.1278 10.844 16.531 10.844 9.974 0 18.062-8.0885 18.062-18.062 0 0 0.015-1.8691-0.3437-3.625h-27.75c1.5612-3.9464 5.2921-7.1191 9.625-7.1562 0.2168-0.011 0.4088-0.036 0.625-0.031 2.9044 0.059 5.7279 1.4534 7.6875 3.5938h8.6562c-2.788-6.3754-9.159-10.844-16.562-10.844zm0 1.0625c6.339 0 11.734 3.5828 14.656 8.7188h-6.4375c-2.1204-2.1062-4.9353-3.5323-7.9688-3.5938-0.2851-0.01-0.4967 0.021-0.6562 0.031-0.015 9e-4 -0.048-7e-4 -0.062 0-4.8204 0.071-8.8668 3.5261-10.562 7.8125-0.2634 0.6483 0.3002 1.4761 1 1.4687h26.781c0.1383 1.188 0.25 2.5625 0.25 2.5625 0 9.3971-7.6029 17-17 17-6.339 0-11.706-3.5812-14.625-8.7187h6.3125c3.9678 3.7726 10.506 4.9809 15.062 1.4375 0.019-0.013 0.044-0.018 0.062-0.031v-0.031c1.9909-1.3921 3.4719-3.3956 4.2813-5.6563 0.2375-0.642-0.3155-1.4369-1-1.4375h-26.812c-0.18-1.191-0.2813-2.5-0.2813-2.5 6e-4 -0.021 6e-4 -0.042 0-0.062 0-9.4393 7.6001-17 17-17zm-31.781 25.188c3.3107 12.863 14.244 22.7 27.688 24.375v11.438h1.0937v-1.0625h-0.031v-10.375c0-0.5165-0.4249-0.9997-0.9375-1.0625-12.522-1.5606-22.708-10.488-26.312-22.25h6.3437c3.7518 9.354 12.984 16.506 23.312 16.469 0.011-1e-4 0.021 0 0.031 0 10.593 0.357 20.868-6.6063 24.594-16.469h6.2813c-3.6048 11.762-13.791 20.689-26.312 22.25-0.5127 0.063-0.9391 0.546-0.9375 1.0625v10.375h-0.031v1.0625h1.0938v-11.438c13.444-1.6755 24.377-11.512 27.688-24.375h-8.4688c-3.3154 9.7804-13.546 16.832-23.906 16.469-10.087 0.051-19.245-7.1733-22.656-16.469z" opacity=".15"/>
  <path id="path3922" d="m43.906 13.438c-13.444 1.6755-24.377 11.512-27.688 24.375h0.3125c3.6107-12.363 14.286-21.744 27.375-23.375zm8.1875 0v1c13.089 1.6313 23.764 11.012 27.375 23.375h0.3125c-3.3108-12.863-14.244-22.7-27.688-24.375zm-4.0938 14.5c-9.974 0-18.062 8.0486-18.062 18.062 0 0-0.022 0.4321 0 1 0-10.014 8.0885-18.062 18.062-18.062 7.0145 0 13.103 4.0006 16.094 9.8438h0.4687c-2.788-6.3754-9.159-10.844-16.562-10.844zm-9.5625 14.438c-0.1683 0.3315-0.3325 0.6555-0.4687 1h27.75c0.2571 1.2573 0.2917 2.327 0.3125 2.9688 0-0.116 0.031-0.2273 0.031-0.3438 0 0 0.015-1.8691-0.3437-3.625zm19.219 8.25c-0.7864 1.6737-1.9804 3.175-3.5 4.2188-4.1954 3.3122-10.551 2.0912-14.125-1.625h-8.5625c0.1464 0.3349 0.3029 0.676 0.4687 1h8.0938c3.5738 3.7162 9.9296 4.9372 14.125 1.625 1.8235-1.2526 3.1887-3.1274 3.9375-5.2188zm-41.438 3.5625c0.087 0.3394 0.2146 0.6649 0.3125 1h8.2187c3.4117 9.2955 12.569 16.52 22.656 16.469 10.36 0.3633 20.591-6.6884 23.906-16.469h8.1563c0.098-0.3351 0.2251-0.6606 0.3125-1h-8.4688c-3.3154 9.7804-13.546 16.832-23.906 16.469-10.087 0.051-19.245-7.1733-22.656-16.469z" opacity=".3"/>
  <path id="path3963" d="m47.562 21.344c-10.094-0.068-19.356 7.184-22.844 16.469h-8.1875c-0.098 0.3351-0.2252 0.6606-0.3125 1h8.5c3.4882-9.2847 12.75-16.536 22.844-16.469 0.2447-0.01 0.4744 0 0.7188 0 3.6645 0.022 7.2661 0.9313 10.531 2.5625 5.8811 2.6474 10.241 7.882 12.375 13.906h8.5938c-0.087-0.3394-0.2147-0.6649-0.3125-1h-8.2813c-2.1339-6.0242-6.4939-11.259-12.375-13.906-3.2651-1.6312-6.8667-2.5407-10.531-2.5625-0.2444 0-0.4741-0.01-0.7188 0zm0.6563 13.844c-0.2162 0-0.4082 0.021-0.625 0.031-4.3329 0.037-8.0638 3.2098-9.625 7.1562h0.4687c1.7594-3.4658 5.2017-6.1224 9.1563-6.1562 0.2168-0.011 0.4088-0.036 0.625-0.031 2.9044 0.059 5.7279 1.4534 7.6875 3.5938h8.6562c-0.1465-0.335-0.303-0.6761-0.4687-1h-8.1875c-1.9596-2.1404-4.7831-3.5349-7.6875-3.5938zm17.812 11.156c-0.1858 9.813-8.1738 17.719-18.031 17.719-7.0145 0-13.072-4.0006-16.062-9.8437h-0.4687c2.788 6.3753 9.1278 10.844 16.531 10.844 9.974 0 18.062-8.0885 18.062-18.062 0 0-0.023-0.4018-0.031-0.6562zm-36.094 0.75c-0.01 0.1365-0.09 1.6978 0.4063 3.5312h27.312c0.1572-0.3347 0.3127-0.6514 0.4375-1h-27.75c-0.2594-0.9577-0.3714-1.8677-0.4063-2.5312zm-13.719 8.0937c3.3107 12.863 14.244 22.7 27.688 24.375v-1c-13.089-1.6313-23.764-11.012-27.375-23.375zm63.25 0c-3.6108 12.363-14.286 21.744-27.375 23.375v1c13.444-1.6755 24.377-11.512 27.688-24.375z" fill="#fff" opacity=".3"/>
  <path id="rect4377" d="m12 6c-3.324 0-6 2.676-6 6v72c0 3.324 2.676 6 6 6h72c3.324 0 6-2.676 6-6v-72c0-3.324-2.676-6-6-6zm0 2h72c2.805 0 5 2.195 5 5v70c0 2.805-2.195 5-5 5h-72c-2.805 0-5-2.195-5-5v-70c0-2.805 2.195-5 5-5z" fill="url(#linearGradient4390)" opacity=".4"/>
 </g>
 <g id="layer5" display="none">
  <rect id="rect3171" x="15" y="15" width="66" height="66" rx="12" ry="12" clip-path="url(#clipPath4355)" fill="url(#linearGradient3613)" filter="url(#filter3794)" opacity=".1" stroke="#fff" stroke-linecap="round" stroke-width=".5"/>
 </g>
</svg>
