<?xml version="1.0" encoding="UTF-8"?>
<svg id="svg77" width="96" height="96" version="1.1" xmlns="http://www.w3.org/2000/svg" xmlns:cc="http://creativecommons.org/ns#" xmlns:dc="http://purl.org/dc/elements/1.1/" xmlns:rdf="http://www.w3.org/1999/02/22-rdf-syntax-ns#" xmlns:xlink="http://www.w3.org/1999/xlink">
 <metadata id="metadata81">
  <rdf:RDF>
   <cc:Work rdf:about="">
    <dc:format>image/svg+xml</dc:format>
    <dc:type rdf:resource="http://purl.org/dc/dcmitype/StillImage"/>
   </cc:Work>
  </rdf:RDF>
 </metadata>
 <defs id="defs2410">
  <filter id="filter3794" x="-.192" y="-.192" width="1.384" height="1.384">
   <feGaussianBlur id="feGaussianBlur3796" stdDeviation="5.28"/>
  </filter>
  <linearGradient id="linearGradient3613" x1="48" x2="48" y1="20.221" y2="138.66" gradientUnits="userSpaceOnUse">
   <stop id="stop3739" stop-color="#fff" offset="0"/>
   <stop id="stop3741" stop-color="#fff" stop-opacity="0" offset="1"/>
  </linearGradient>
  <linearGradient id="buttonGradient" x1="48" x2="48" y1="90" y2="5.9877" gradientUnits="userSpaceOnUse">
   <stop id="stop3702" stop-color="#465674" offset="0"/>
   <stop id="stop3704" stop-color="#798bac" offset="1"/>
  </linearGradient>
  <linearGradient id="ButtonShadow-0" x1="45.448" x2="45.448" y1="92.54" y2="7.0165" gradientTransform="matrix(1.0059 0 0 .99417 100 0)" gradientUnits="userSpaceOnUse">
   <stop id="stop3750-8" offset="0"/>
   <stop id="stop3752-5" stop-opacity=".58824" offset="1"/>
  </linearGradient>
  <linearGradient id="linearGradient3780" x1="32.251" x2="32.251" y1="6.1317" y2="90.239" gradientTransform="matrix(1.0238 0 0 1.0119 -1.1429 -98.071)" gradientUnits="userSpaceOnUse" xlink:href="#ButtonShadow-0"/>
  <linearGradient id="linearGradient3721" x1="32.251" x2="32.251" y1="6.1317" y2="90.239" gradientTransform="translate(0,-97)" gradientUnits="userSpaceOnUse" xlink:href="#ButtonShadow-0"/>
  <clipPath id="clipPath4355">
   <rect id="rect4357" x="6" y="6" width="84" height="84" rx="6" ry="6" fill="#fff"/>
  </clipPath>
  <linearGradient id="linearGradient4390" x1="48" x2="48" y1="88" y2="-40" gradientTransform="matrix(1,0,0,-1,0,92)" gradientUnits="userSpaceOnUse">
   <stop id="stop4386" stop-color="#fff" offset="0"/>
   <stop id="stop4388" stop-color="#fff" stop-opacity="0" offset="1"/>
  </linearGradient>
 </defs>
 <g id="layer3">
  <g id="g32" fill="url(#linearGradient3780)">
   <path id="path3786" transform="scale(1,-1)" d="m12-95.021c-5.5111 0-10.022 4.51-10.022 10.021v71c0 5.5111 4.5104 10.021 10.021 10.021h72c5.5111 0 10.021-4.5104 10.021-10.021v-71c0-5.5111-4.5104-10.021-10.021-10.021h-72z" opacity=".08"/>
   <path id="path3778" transform="scale(1,-1)" d="m12-94.035c-4.9716 0-9.0352 4.0635-9.0352 9.0352v71c0 4.9716 4.0635 9.0352 9.0352 9.0352h72c4.9716 0 9.0352-4.0635 9.0352-9.0352v-71c0-4.9716-4.0635-9.0352-9.0352-9.0352h-72z" opacity=".1"/>
   <path id="path3770" transform="scale(1,-1)" d="m12-92.99c-4.4091 0-7.9902 3.5811-7.9902 7.9902v71c0 4.4091 3.5811 7.9902 7.9902 7.9902h72c4.4091 0 7.9902-3.5811 7.9902-7.9902v-71c0-4.4091-3.5811-7.9902-7.9902-7.9902h-72z" opacity=".2"/>
   <rect id="rect3723" transform="scale(1,-1)" x="5" y="-92" width="86" height="85" rx="7" ry="7" opacity=".3"/>
  </g>
  <rect id="rect3716" transform="scale(1,-1)" x="6" y="-91" width="84" height="84" rx="6" ry="6" fill="url(#linearGradient3721)" opacity=".45"/>
 </g>
 <g id="layer1">
  <rect id="button" x="6" y="6" width="84" height="84" rx="6" ry="6" fill="url(#buttonGradient)"/>
  <path id="rect4377" d="m12 6c-3.324 0-6 2.676-6 6v72c0 3.324 2.676 6 6 6h72c3.324 0 6-2.676 6-6v-72c0-3.324-2.676-6-6-6zm0 2h72c2.805 0 5 2.195 5 5v70c0 2.805-2.195 5-5 5h-72c-2.805 0-5-2.195-5-5v-70c0-2.805 2.195-5 5-5z" fill="url(#linearGradient4390)" opacity=".3"/>
 </g>
 <g id="layer5">
  <rect id="rect3171" x="15" y="15" width="66" height="66" rx="12" ry="12" clip-path="url(#clipPath4355)" fill="url(#linearGradient3613)" filter="url(#filter3794)" opacity=".1" stroke="#fff" stroke-linecap="round" stroke-width=".5"/>
 </g>
 <defs id="defs53">
  <linearGradient id="a" x1="8" x2="8" y1=".99996" y2="15" gradientUnits="userSpaceOnUse">
   <stop id="stop48" stop-color="#fafafa" offset="0"/>
   <stop id="stop50" stop-color="#ebebeb" offset="1"/>
  </linearGradient>
 </defs>
 <g id="g75">
  <path id="path55" transform="matrix(4,0,0,4,16,17)" d="m9.4668 0.75-0.76953 0.033203a0.25002 0.25002 0 0 0-0.00195 0c-1.0304 0.044814-2.197 0.25827-2.9453 0.54688l-0.56445 0.2168a0.25002 0.25002 0 0 0-0.15234 0.17188l-0.13867 0.56445c-0.13774 0.55952-0.34475 1.5161-0.51758 2.3398-0.086416 0.41189-0.16434 0.79087-0.2207 1.0684-0.028181 0.13875-0.050559 0.25172-0.066406 0.33203-0.00581 0.029448-0.00977 0.049973-0.013672 0.070312-0.047517 0.065518-0.12884 0.11348-0.24219 0.22461l0.027344-0.023437c-0.69755 0.51787-1.1101 1.3363-1.1113 2.2051 0 1.5158 1.2342 2.75 2.75 2.75s2.75-1.2342 2.75-2.75c-0.0015059-0.68952-0.2562-1.3532-0.70703-1.8145-0.16188-0.16559-0.23888-0.32188-0.28711-0.78125s-0.046398-1.1891-0.03125-2.3789l0.023438-1.8027 0.36914-0.10938c0.27722-0.083523 0.83794-0.20675 1.2031-0.26172l0.51562-0.078125-0.082031-0.16016zm-1.4883 1a0.25002 0.25002 0 0 0-0.22852 0.25391v3.6758a0.25002 0.25002 0 0 0 0.10352 0.20117l0.48828 0.35742c1.824 1.3325 2.6952 3.1544 2.4238 4.9727-0.19817 1.3279-0.73129 2.3029-1.7676 3.2207l-0.42969 0.38086a0.25002 0.25002 0 0 0 0.16602 0.4375h0.85742c0.52995 0 1.0414-0.03887 1.3535-0.11719a0.25002 0.25002 0 0 0 2e-3 0c0.27238-0.06899 0.53579-0.2081 0.74609-0.37109 0.10515-0.08149 0.19655-0.16924 0.26953-0.26562 0.07298-0.09638 0.13677-0.20347 0.13672-0.35156-5.3e-5 -0.12613-0.02879-0.17814-0.0625-0.2793-0.03371-0.10115-0.0781-0.21669-0.12891-0.33008-0.07525-0.16796-0.10144-0.25369-0.10352-0.2793-0.0021-0.02561-6.6e-4 -0.03624 0.04883-0.13672 0.02183-0.04435 0.06036-0.10055 0.09766-0.14453 0.0373-0.04398 0.08255-0.07555 0.06836-0.06836 0.03917-0.01988 0.07112-0.03377 0.11328-0.0625 0.02108-0.01436 0.04662-0.03337 0.07617-0.07031s0.06203-0.1042 0.06055-0.17774c-3e-3 -0.14707-0.08366-0.19774-0.12109-0.22852-0.03744-0.03078-0.06939-0.05186-0.10938-0.07813-0.0033-0.0022-0.0065-0.0037-0.0098-0.0059l0.26758-0.19141a0.25002 0.25002 0 0 0 0.05859-0.3457l-0.15039-0.2168c-0.07755-0.11176-0.10803-0.23801-0.10352-0.33008 0.0045-0.09207 0.03279-0.13431 0.06641-0.1543 0.04754-0.02823 0.2313-0.0792 0.2793-0.08008 0.16481-5.01e-4 0.31856-0.01847 0.45508-0.10352 0.13651-0.08505 0.22049-0.21892 0.28516-0.36328 0.03689-0.08236 0.06993-0.19518 0.05859-0.31641-0.01133-0.12123-0.05656-0.2337-0.12891-0.36133-0.14469-0.25525-0.40789-0.59721-0.89063-1.2148-0.43579-0.55762-0.64724-0.86685-0.67969-0.96875-0.01623-0.050952-0.01551-0.023002-0.0039-0.042969s0.06763-0.080506 0.16602-0.16602a0.25002 0.25002 0 0 0 0-0.00195l0.3125-0.27344a0.25002 0.25002 0 0 0 0.07031-0.27344l-0.18166-0.50191c-0.10049-0.27625-0.26061-0.71496-0.35547-0.97461-0.53318-1.4594-1.8589-2.9348-3.1777-3.5098l-0.27734-0.12109a0.25002 0.25002 0 0 0-0.12109-0.021484zm-2.4785 5.5c0.69332 0 1.25 0.55668 1.25 1.25s-0.55668 1.25-1.25 1.25-1.25-0.55668-1.25-1.25 0.55668-1.25 1.25-1.25zm0 0.25c-0.2618 0-0.52191 0.10785-0.70703 0.29297-0.18512 0.18512-0.29297 0.44523-0.29297 0.70703s0.10785 0.52191 0.29297 0.70703c0.18512 0.18512 0.44523 0.29297 0.70703 0.29297s0.52191-0.10785 0.70703-0.29297c0.18512-0.18512 0.29297-0.44523 0.29297-0.70703s-0.10785-0.52191-0.29297-0.70703c-0.18512-0.18512-0.44523-0.29297-0.70703-0.29297zm5.4355 7.6348-0.04883 0.0059a0.25002 0.25002 0 0 0 0.04883-0.0059z" opacity=".15"/>
  <g id="Bevel1"></g>
  <g id="Bevel2"></g>
  <path id="base" transform="translate(16,16) scale(4)" d="m9.4766 1-0.76953 0.033203c-1.0032 0.043633-2.1638 0.25801-2.8672 0.5293l-0.56445 0.2168-0.13867 0.56445c-0.27154 1.103-0.82617 3.827-0.82617 3.8574-0.086081 0.14576-0.23236 0.22784-0.30078 0.29492-0.6343 0.47091-1.0087 1.2139-1.0098 2.0039 0 1.3807 1.1193 2.5 2.5 2.5s2.5-1.1193 2.5-2.5c-0.0013697-0.62714-0.23743-1.2302-0.63672-1.6387-0.39929-0.40844-0.41899-0.95833-0.38867-3.3398l0.025391-1.9844 0.54492-0.16406c0.29971-0.0903 0.85707-0.21215 1.2383-0.26953l0.69336-0.10352zm-1.4766 1v3.6796l0.49023 0.35742c1.8817 1.3747 2.81 3.2907 2.5234 5.2109-0.20545 1.3767-0.77818 2.4222-1.8496 3.3711l-0.42969 0.38086h0.85742c0.51589 0 1.0305-0.043511 1.293-0.10938h0.001953c0.45703-0.11576 0.96297-0.50803 0.96289-0.74609-2.9e-5 -0.06841-0.075588-0.29728-0.16992-0.50781-0.15424-0.34429-0.15937-0.40648-0.050782-0.62695 0.06637-0.1348 0.19058-0.2822 0.27734-0.32617 0.15287-0.07756 0.15294-0.082537-0.003906-0.18555-0.0889-0.05855-0.20372-0.12206-0.25586-0.14062-0.05212-0.01853 0.038444-0.13202 0.20312-0.25195l0.30078-0.2168-0.15039-0.2168c-0.21522-0.31014-0.19579-0.70103 0.041016-0.8418 0.10454-0.06207 0.2873-0.11465 0.40625-0.11523 0.28991-8.8e-4 0.4006-0.07028 0.51172-0.31836 0.11518-0.25714 0.034062-0.40364-0.92969-1.6367-0.87295-1.117-0.88972-1.1692-0.48438-1.5215l0.3125-0.27344-0.18164-0.50195c-0.10039-0.27598-0.26064-0.71505-0.35547-0.97461-0.50464-1.3813-1.8162-2.8324-3.043-3.3672l-0.27734-0.12109zm-2.5 5c0.82843 0 1.5 0.67157 1.5 1.5s-0.67157 1.5-1.5 1.5-1.5-0.67157-1.5-1.5 0.67157-1.5 1.5-1.5zm0 0.75a0.75 0.75 0 0 0-0.75 0.75 0.75 0.75 0 0 0 0.75 0.75 0.75 0.75 0 0 0 0.75-0.75 0.75 0.75 0 0 0-0.75-0.75z" fill="url(#a)"/>
  <path id="path65" transform="translate(0,2)" d="m53.906 19-3.0781 0.13281c-1.7508 0.076149-3.616 0.28759-5.4023 0.58594l-1.4258 0.42969-0.10156 7.9375c-0.031685 2.4886-0.048429 4.4573-0.029297 6.0664-0.005646-1.4401 0.003158-3.0134 0.029297-5.0664l0.10156-7.9375 2.1797-0.65625c1.1988-0.3612 3.4282-0.84861 4.9531-1.0781l2.7734-0.41406zm-5.9062 17.719v1l1.9609 1.4297c6.451 4.7129 10.09 11.017 10.279 17.559 0.17239-6.8958-3.5001-13.606-10.279-18.559l-1.9609-1.4297zm-10 5.2812c-3.3137 0-6 2.6863-6 6 0 0.16885 0.011714 0.33468 0.025391 0.5 0.25474-3.0791 2.8297-5.5 5.9746-5.5s5.7199 2.4209 5.9746 5.5c0.013677-0.16532 0.025391-0.33115 0.025391-0.5 0-3.3137-2.6863-6-6-6zm25.154 0.099609-0.97461 0.85352c-0.83882 0.72906-1.2117 1.1458-0.90625 1.9883 0.15702-0.31382 0.46738-0.60684 0.90625-0.98828l1.25-1.0938-0.27539-0.75977zm-28.111 6.3867a3 3 0 0 0-0.042969 0.51367 3 3 0 0 0 3 3 3 3 0 0 0 3-3 3 3 0 0 0-0.042969-0.48633 3 3 0 0 1-2.957 2.4863 3 3 0 0 1-2.957-2.5137zm12.932 0.00586c-0.25854 5.2924-4.6181 9.5078-9.9746 9.5078-5.338 0-9.6868-4.1865-9.9727-9.4531-0.007115 0.15151-0.027132 0.30064-0.027344 0.45312 0 5.5228 4.4772 10 10 10s10-4.4772 10-10c-3.73e-4 -0.17022-0.016462-0.33869-0.025391-0.50781zm19.918 6.9297c-0.020033 0.054324-0.031474 0.10788-0.05664 0.16406-0.44448 0.99232-0.88724 1.2699-2.0469 1.2734-0.4758 0.00232-1.2068 0.21266-1.625 0.46094-0.63005 0.37453-0.86669 1.1922-0.70703 2.0625 0.097669-0.45602 0.33103-0.83899 0.70703-1.0625 0.41816-0.24828 1.1492-0.45862 1.625-0.46094 1.1596-0.0035 1.6024-0.28112 2.0469-1.2734 0.16544-0.36935 0.22082-0.68711 0.05664-1.1641zm-3.7539 6.4668-0.74023 0.5332c-0.65872 0.47972-1.021 0.93369-0.8125 1.0078 0.11188 0.039826 0.29657 0.1336 0.49805 0.24609 0.098347-0.083215 0.19496-0.16688 0.31445-0.25391l1.2031-0.86719-0.46289-0.66602zm-0.7168 2.9902c-0.31882 0.25388-0.6884 0.7177-0.90625 1.1602-0.29093 0.59067-0.35505 0.91684-0.19531 1.4688 0.049609-0.14298 0.1061-0.28762 0.19531-0.46875 0.26548-0.5392 0.76234-1.1288 1.1094-1.3047 0.61148-0.31024 0.61174-0.33015-0.015625-0.74219-0.058877-0.038777-0.12455-0.074324-0.1875-0.11328zm-0.1582 6.1543c-0.46565 0.93535-2.1568 2.1342-3.7168 2.5293h-0.007813c-1.05 0.26348-3.1083 0.4375-5.1719 0.4375h-2.3008l-1.1289 1h3.4297c2.0636 0 4.1219-0.17402 5.1719-0.4375h0.007813c1.8281-0.46304 3.8519-2.0321 3.8516-2.9844-4e-5 -0.092912-0.073952-0.33202-0.13477-0.54492z" opacity=".3" stroke-width="4"/>
  <path id="path70" transform="translate(0,2)" d="m53.906 18-3.0781 0.13281c-4.0128 0.17453-8.6552 1.032-11.469 2.1172l-2.2578 0.86719-0.55469 2.2578c-1.0862 4.412-3.3047 15.308-3.3047 15.43-0.34432 0.58304-0.92945 0.91137-1.2031 1.1797-2.5372 1.8836-4.0347 4.8556-4.0391 8.0156 0 0.1848 0.017446 0.36454 0.027344 0.54688 0.14034-2.9882 1.5969-5.7698 4.0117-7.5625 0.27368-0.26832 0.8588-0.59665 1.2031-1.1797 0-0.1216 2.2185-11.018 3.3047-15.43l0.55469-2.2578 2.2578-0.86719c1.586-0.6117 3.7585-1.1458 6.0664-1.5312l0.75391-0.22656c1.1988-0.3612 3.4282-0.84861 4.9531-1.0781l2.7734-0.41406zm-5.9062 4v1l1.1094 0.48438c4.9072 2.1392 10.153 7.9436 12.172 13.469 0.37932 1.0382 1.0203 2.7945 1.4219 3.8984l0.45117 1.248 0.27539-0.24023-0.72656-2.0078c-0.40156-1.1039-1.0426-2.8602-1.4219-3.8984-2.0186-5.5252-7.2647-11.33-12.172-13.469l-1.1094-0.48438zm-4.1309 12.152c0.020549 5.2419 0.33104 7.0113 1.584 8.293 1.4888 1.5231 2.3988 3.7236 2.5215 6.0469 0.008029-0.16434 0.025391-0.32586 0.025391-0.49219-0.0055-2.5086-0.94972-4.9207-2.5469-6.5547-1.1799-1.2069-1.5299-2.7427-1.584-7.293zm17.404 10.789c-0.42308 0.84555 0.29711 1.8391 2.8438 5.0977 2.4707 3.1611 3.4824 4.5315 3.7754 5.3828 0.34671-0.94018-0.13097-1.72-3.7754-6.3828-1.6853-2.1565-2.5588-3.3117-2.8438-4.0977zm-23.273 0.058594a3 3 0 0 0-3 3 3 3 0 0 0 0.042969 0.48633 3 3 0 0 1 2.957-2.4863 3 3 0 0 1 2.957 2.5137 3 3 0 0 0 0.042969-0.51367 3 3 0 0 0-3-3zm-5.9746 3.5c-0.013677 0.16532-0.025391 0.33115-0.025391 0.5 0 3.3137 2.6863 6 6 6s6-2.6863 6-6c0-0.16885-0.011714-0.33468-0.025391-0.5-0.25474 3.0791-2.8297 5.5-5.9746 5.5s-5.7199-2.4209-5.9746-5.5zm28.215 8.207c-0.019009 0.76043-0.071685 1.5223-0.18555 2.2852-0.8218 5.5068-3.1128 9.6888-7.3984 13.484l-1.7188 1.5234h1.1289l0.58984-0.52344c4.2857-3.7956 6.5766-7.9776 7.3984-13.484 0.16385-1.0978 0.21719-2.1943 0.18555-3.2852zm3.2168 2.6758c-0.14838 0.6928 0.023812 1.5566 0.54297 2.3047l0.13867 0.20117 0.46289-0.33398-0.60156-0.86719c-0.28827-0.41541-0.46259-0.86653-0.54297-1.3047zm-0.37305 4.293c-0.44378 0.37551-0.66871 0.69323-0.49805 0.75391 0.17403 0.061948 0.51867 0.25288 0.83594 0.44922 0.069705-0.055508 0.14086-0.11298 0.20312-0.14453 0.61148-0.31024 0.61174-0.33015-0.015625-0.74219-0.16484-0.10856-0.3513-0.2192-0.52539-0.31641zm-0.76367 3.832c-0.19192 0.55314-0.091801 0.94477 0.39844 2.0391 0.2492 0.55619 0.42663 1.0722 0.54492 1.4863 0.080037-0.16077 0.13481-0.31541 0.13477-0.45508-1.16e-4 -0.27364-0.30237-1.1891-0.67969-2.0312-0.20373-0.45476-0.31968-0.76696-0.39844-1.0391z" fill="#fff" stroke-width="4"/>
 </g>
</svg>
