<?xml version="1.0" encoding="UTF-8"?>
<!-- Created with Inkscape (http://www.inkscape.org/) -->
<svg id="svg2408" width="96" height="96" version="1.0" xmlns="http://www.w3.org/2000/svg" xmlns:cc="http://creativecommons.org/ns#" xmlns:dc="http://purl.org/dc/elements/1.1/" xmlns:rdf="http://www.w3.org/1999/02/22-rdf-syntax-ns#" xmlns:xlink="http://www.w3.org/1999/xlink">
 <defs id="defs2410">
  <linearGradient id="linearGradient3674">
   <stop id="stop3676" stop-color="#fff" offset="0"/>
   <stop id="stop3684" stop-color="#fff" offset=".3"/>
   <stop id="stop3925" stop-color="#f0f0f0" offset=".9"/>
   <stop id="stop3678" stop-color="#d2d2d2" offset="1"/>
  </linearGradient>
  <linearGradient id="ButtonShadow" x1="45.448" x2="45.448" y1="92.54" y2="7.0165" gradientTransform="scale(1.0059 .99417)" gradientUnits="userSpaceOnUse">
   <stop id="stop3750" offset="0"/>
   <stop id="stop3752" stop-opacity=".58824" offset="1"/>
  </linearGradient>
  <linearGradient id="linearGradient3737">
   <stop id="stop3739" stop-color="#fff" offset="0"/>
   <stop id="stop3741" stop-color="#fff" stop-opacity="0" offset="1"/>
  </linearGradient>
  <filter id="filter3174" color-interpolation-filters="sRGB">
   <feGaussianBlur id="feGaussianBlur3176" stdDeviation="1.71"/>
  </filter>
  <linearGradient id="linearGradient3188" x1="36.357" x2="36.357" y1="6" y2="63.893" gradientUnits="userSpaceOnUse" xlink:href="#linearGradient3737"/>
  <filter id="filter3794" x="-.192" y="-.192" width="1.384" height="1.384" color-interpolation-filters="sRGB">
   <feGaussianBlur id="feGaussianBlur3796" stdDeviation="5.28"/>
  </filter>
  <linearGradient id="linearGradient3613" x1="48" x2="48" y1="20.221" y2="138.66" gradientUnits="userSpaceOnUse" xlink:href="#linearGradient3737"/>
  <radialGradient id="radialGradient3619" cx="48" cy="90.172" r="42" gradientTransform="matrix(1.1573 0 0 .99591 -7.551 .19713)" gradientUnits="userSpaceOnUse" xlink:href="#linearGradient3737"/>
  <clipPath id="clipPath3613">
   <rect id="rect3615" x="6" y="6" width="84" height="84" rx="6" ry="6" fill="#fff"/>
  </clipPath>
  <linearGradient id="ButtonShadow-0" x1="45.448" x2="45.448" y1="92.54" y2="7.0165" gradientTransform="matrix(1.0059 0 0 .99417 100 0)" gradientUnits="userSpaceOnUse">
   <stop id="stop3750-8" offset="0"/>
   <stop id="stop3752-5" stop-opacity=".58824" offset="1"/>
  </linearGradient>
  <linearGradient id="linearGradient3780" x1="32.251" x2="32.251" y1="6.1317" y2="90.239" gradientTransform="matrix(1.0238 0 0 1.0119 -1.1429 -98.071)" gradientUnits="userSpaceOnUse" xlink:href="#ButtonShadow-0"/>
  <linearGradient id="linearGradient3721" x1="32.251" x2="32.251" y1="6.1317" y2="90.239" gradientTransform="translate(0,-97)" gradientUnits="userSpaceOnUse" xlink:href="#ButtonShadow-0"/>
  <radialGradient id="radialGradient3682" cx="48" cy="48" r="32" gradientUnits="userSpaceOnUse" xlink:href="#linearGradient3674"/>
  <radialGradient id="radialGradient3901" cx="48.001" cy="46.058" r="3" gradientUnits="userSpaceOnUse">
   <stop id="stop3895" stop-color="#fff" offset="0"/>
   <stop id="stop3897" stop-color="#a2a2a2" offset="1"/>
  </radialGradient>
  <linearGradient id="linearGradient3918" x1="56" x2="56" y1="48" y2="16" gradientUnits="userSpaceOnUse" xlink:href="#linearGradient3737"/>
  <linearGradient id="linearGradient3926" x1="48" x2="48" y1="90" y2="5.9877" gradientUnits="userSpaceOnUse">
   <stop id="stop3702" stop-color="#1f1f1f" offset="0"/>
   <stop id="stop3704" stop-color="#2f2f2f" offset="1"/>
  </linearGradient>
  <filter id="filter3944" color-interpolation-filters="sRGB">
   <feGaussianBlur id="feGaussianBlur3946" stdDeviation="0.4359375"/>
  </filter>
  <linearGradient id="linearGradient3879" x1="16" x2="80" y1="48" y2="48" gradientUnits="userSpaceOnUse">
   <stop id="stop3875" stop-color="#f0f0f0" offset="0"/>
   <stop id="stop3877" stop-color="#b4b4b4" offset="1"/>
  </linearGradient>
  <linearGradient id="linearGradient3905" x1="13" x2="83" y1="48" y2="48" gradientTransform="matrix(0,1,-1,0,96,0)" gradientUnits="userSpaceOnUse">
   <stop id="stop3901" stop-color="#fff" offset="0"/>
   <stop id="stop3981" stop-color="#fff" stop-opacity=".41221" offset=".5"/>
   <stop id="stop3903" stop-color="#868686" offset="1"/>
  </linearGradient>
  <linearGradient id="linearGradient3923" x1="17" x2="120" y1="48" y2="48" gradientTransform="matrix(0,1,-1,0,96,0)" gradientUnits="userSpaceOnUse">
   <stop id="stop3919" offset="0"/>
   <stop id="stop3921" stop-opacity="0" offset="1"/>
  </linearGradient>
  <linearGradient id="linearGradient3973" x1="43" x2="53" y1="60" y2="60" gradientUnits="userSpaceOnUse">
   <stop id="stop3985" stop-color="#fff" offset="0"/>
   <stop id="stop3989" stop-color="#868686" offset="1"/>
  </linearGradient>
  <radialGradient id="radialGradient3979" cx="48" cy="60" r="5" gradientUnits="userSpaceOnUse" xlink:href="#linearGradient3674"/>
 </defs>
 <metadata id="metadata2413">
  <rdf:RDF>
   <cc:Work rdf:about="">
    <dc:format>image/svg+xml</dc:format>
    <dc:type rdf:resource="http://purl.org/dc/dcmitype/StillImage"/>
    <dc:title/>
   </cc:Work>
  </rdf:RDF>
 </metadata>
 <g id="layer2" display="none">
  <rect id="rect3745" x="5" y="7" width="86" height="85" rx="6" ry="6" fill="url(#ButtonShadow)" filter="url(#filter3174)" opacity=".9"/>
 </g>
 <g id="layer3">
  <path id="path3786" transform="scale(1,-1)" d="m12-95.031c-5.5111 0-10.031 4.5202-10.031 10.031v71c0 5.5111 4.5202 10.031 10.031 10.031h72c5.5111 0 10.031-4.5202 10.031-10.031v-71c0-5.5111-4.5202-10.031-10.031-10.031h-72z" fill="url(#linearGradient3780)" opacity=".08"/>
  <path id="path3778" transform="scale(1,-1)" d="m12-94.031c-4.9716 0-9.0312 4.0596-9.0312 9.0312v71c0 4.9716 4.0596 9.0312 9.0312 9.0312h72c4.9716 0 9.0312-4.0596 9.0312-9.0312v-71c0-4.9716-4.0596-9.0312-9.0312-9.0312h-72z" fill="url(#linearGradient3780)" opacity=".1"/>
  <path id="path3770" transform="scale(1,-1)" d="m12-93c-4.4091 0-8 3.5909-8 8v71c0 4.4091 3.5909 8 8 8h72c4.4091 0 8-3.5909 8-8v-71c0-4.4091-3.5909-8-8-8h-72z" fill="url(#linearGradient3780)" opacity=".2"/>
  <rect id="rect3723" transform="scale(1,-1)" x="5" y="-92" width="86" height="85" rx="7" ry="7" fill="url(#linearGradient3780)" opacity=".3"/>
  <rect id="rect3716" transform="scale(1,-1)" x="6" y="-91" width="84" height="84" rx="6" ry="6" fill="url(#linearGradient3721)" opacity=".45"/>
 </g>
 <g id="layer1">
  <rect id="rect2419" x="6" y="6" width="84" height="84" rx="6" ry="6" fill="url(#linearGradient3926)"/>
  <path id="path3907" d="m12 6c-3.324 0-6 2.676-6 6v30.062c12.212 4.6685 26.585 7.375 42 7.375s29.788-2.7065 42-7.375v-30.062c0-3.324-2.676-6-6-6h-72z" color="#000000" fill="url(#linearGradient3918)" opacity=".1"/>
  <path id="path3615" d="m12 90c-3.324 0-6-2.676-6-6v-2-68-2c0-0.33472 0.04135-0.6507 0.09375-0.96875 0.0487-0.2956 0.09704-0.59692 0.1875-0.875 0.00988-0.03038 0.020892-0.0636 0.03125-0.09375 0.098865-0.28777 0.23488-0.54745 0.375-0.8125 0.14459-0.27351 0.31562-0.53562 0.5-0.78125s0.37378-0.47347 0.59375-0.6875c0.43995-0.42806 0.94291-0.81453 1.5-1.0938 0.27854-0.13961 0.57347-0.24695 0.875-0.34375-0.2562 0.10022-0.48671 0.23627-0.71875 0.375-0.00741 0.0044-0.023866-0.0045-0.03125 0-0.031933 0.0193-0.062293 0.04251-0.09375 0.0625-0.1204 0.0767-0.23102 0.16351-0.34375 0.25-0.10617 0.0808-0.21328 0.16111-0.3125 0.25-0.17793 0.16143-0.34746 0.34539-0.5 0.53125-0.10758 0.13026-0.21839 0.26528-0.3125 0.40625-0.025089 0.03838-0.038446 0.08587-0.0625 0.125-0.064763 0.10303-0.13023 0.20452-0.1875 0.3125-0.10101 0.19471-0.20567 0.4157-0.28125 0.625-0.00796 0.02181-0.023589 0.04055-0.03125 0.0625-0.031825 0.09195-0.035804 0.18683-0.0625 0.28125-0.030332 0.10662-0.070389 0.20303-0.09375 0.3125-0.072879 0.34151-0.125 0.6982-0.125 1.0625v2 68 2c0 2.7818 2.2182 5 5 5h2 68 2c2.7818 0 5-2.2182 5-5v-2-68-2c0-0.3643-0.05212-0.72099-0.125-1.0625-0.04415-0.20689-0.08838-0.39766-0.15625-0.59375-0.0077-0.02195-0.0233-0.04069-0.03125-0.0625-0.06274-0.17374-0.13838-0.36745-0.21875-0.53125-0.04158-0.0828-0.07904-0.16995-0.125-0.25-0.0546-0.09721-0.12677-0.18835-0.1875-0.28125-0.09411-0.14096-0.20492-0.276-0.3125-0.40625-0.14317-0.17445-0.30314-0.347-0.46875-0.5-0.01117-0.0102-0.01998-0.02115-0.03125-0.03125-0.13839-0.12556-0.28509-0.23444-0.4375-0.34375-0.10257-0.07315-0.20432-0.15336-0.3125-0.21875-0.0074-0.0045-0.02384 0.0044-0.03125 0-0.23204-0.13873-0.46255-0.27478-0.71875-0.375 0.30153 0.0968 0.59646 0.20414 0.875 0.34375 0.55709 0.27922 1.0601 0.66569 1.5 1.0938 0.21997 0.21403 0.40937 0.44186 0.59375 0.6875s0.35541 0.50774 0.5 0.78125c0.14012 0.26505 0.27614 0.52473 0.375 0.8125 0.01041 0.03078 0.02133 0.06274 0.03125 0.09375 0.09046 0.27808 0.1388 0.5794 0.1875 0.875 0.0524 0.31805 0.09375 0.63403 0.09375 0.96875v2 68 2c0 3.324-2.676 6-6 6h-72z" fill="url(#radialGradient3619)" opacity=".1"/>
  <path id="rect3728" d="m12 6c-3.324 0-6 2.676-6 6v2 68 2c0 0.33472 0.04135 0.6507 0.09375 0.96875 0.0487 0.2956 0.09704 0.59692 0.1875 0.875 0.00988 0.03038 0.020892 0.0636 0.03125 0.09375 0.098865 0.28777 0.23488 0.54745 0.375 0.8125 0.14459 0.27351 0.31562 0.53562 0.5 0.78125s0.37378 0.47347 0.59375 0.6875c0.43995 0.42806 0.94291 0.81453 1.5 1.0938 0.27854 0.13961 0.57347 0.24695 0.875 0.34375-0.2562-0.10022-0.48671-0.23627-0.71875-0.375-0.00741-0.0044-0.023866 0.0045-0.03125 0-0.031933-0.0193-0.062293-0.04251-0.09375-0.0625-0.1204-0.0767-0.23102-0.16351-0.34375-0.25-0.10617-0.0808-0.21328-0.16111-0.3125-0.25-0.17793-0.16143-0.34746-0.34539-0.5-0.53125-0.10758-0.13026-0.21839-0.26528-0.3125-0.40625-0.025089-0.03838-0.038446-0.08587-0.0625-0.125-0.064763-0.10303-0.13023-0.20452-0.1875-0.3125-0.10101-0.19471-0.20567-0.4157-0.28125-0.625-0.00796-0.02181-0.023589-0.04055-0.03125-0.0625-0.031825-0.09195-0.035804-0.18683-0.0625-0.28125-0.030332-0.10662-0.070389-0.20303-0.09375-0.3125-0.072879-0.34151-0.125-0.6982-0.125-1.0625v-2-68-2c0-2.7818 2.2182-5 5-5h2 68 2c2.7818 0 5 2.2182 5 5v2 68 2c0 0.3643-0.05212 0.72099-0.125 1.0625-0.04415 0.20689-0.08838 0.39766-0.15625 0.59375-0.0077 0.02195-0.0233 0.04069-0.03125 0.0625-0.06274 0.17374-0.13838 0.36745-0.21875 0.53125-0.04158 0.0828-0.07904 0.16995-0.125 0.25-0.0546 0.09721-0.12677 0.18835-0.1875 0.28125-0.09411 0.14096-0.20492 0.276-0.3125 0.40625-0.14317 0.17445-0.30314 0.347-0.46875 0.5-0.01117 0.0102-0.01998 0.02115-0.03125 0.03125-0.13839 0.12556-0.28509 0.23444-0.4375 0.34375-0.10257 0.07315-0.20432 0.15336-0.3125 0.21875-0.0074 0.0045-0.02384-0.0044-0.03125 0-0.23204 0.13873-0.46255 0.27478-0.71875 0.375 0.30153-0.0968 0.59646-0.20414 0.875-0.34375 0.55709-0.27922 1.0601-0.66569 1.5-1.0938 0.21997-0.21403 0.40937-0.44186 0.59375-0.6875s0.35541-0.50774 0.5-0.78125c0.14012-0.26505 0.27614-0.52473 0.375-0.8125 0.01041-0.03078 0.02133-0.06274 0.03125-0.09375 0.09046-0.27808 0.1388-0.5794 0.1875-0.875 0.0524-0.31805 0.09375-0.63403 0.09375-0.96875v-2-68-2c0-3.324-2.676-6-6-6h-72z" fill="url(#linearGradient3188)" opacity=".25"/>
 </g>
 <g id="layer5" display="none">
  <rect id="rect3171" x="15" y="15" width="66" height="66" rx="12" ry="12" clip-path="url(#clipPath3613)" fill="url(#linearGradient3613)" filter="url(#filter3794)" opacity=".1" stroke="#fff" stroke-linecap="round" stroke-width=".5"/>
 </g>
 <g id="layer4">
  <path id="path3882" transform="matrix(0 1.0938 -1.0938 0 100.5 -3.5)" d="m80 48a32 32 0 1 1-64 0 32 32 0 1 1 64 0z" color="#000000"/>
  <path id="path3649" transform="matrix(0 1.0938 -1.0938 0 100.5 -4.5)" d="m80 48a32 32 0 1 1-64 0 32 32 0 1 1 64 0z" color="#000000" fill="url(#linearGradient3879)"/>
  <path id="path3647" transform="matrix(0 .96875 -.96875 0 94.5 1.5)" d="m80 48a32 32 0 1 1-64 0 32 32 0 1 1 64 0z" color="#000000" fill="url(#radialGradient3682)"/>
  <path id="path3937" d="m36.938 28.844-0.875 0.5 9.6875 16.781-12.969-6.7812-0.75 1.3125 13.875 8.8125-2.4062 3.5 0.53125 0.53125 4.1875-2.8438 4.7812 1.6562 0.375-0.625-3.2188-2.7812 15.344-16.344-1.0625-1.0625-16.688 15.656-0.3125-0.15625-10.5-18.156z" filter="url(#filter3944)" opacity=".3"/>
  <path id="path3887" d="m64.438 30.5-15.594 14.656c-0.27356-0.082119-0.54344-0.15625-0.84375-0.15625-1.6569 0-3 1.3431-3 3 0 0.47347 0.11716 0.91429 0.3125 1.3125l-1.8125 2.6562 0.53125 0.53125 2.6562-1.8125c0.39821 0.19534 0.83903 0.3125 1.3125 0.3125 1.6569 0 3-1.3431 3-3 0-0.3003-0.07413-0.57019-0.15625-0.84375l14.656-15.594-1.0625-1.0625z"/>
  <g id="text3691" transform="translate(0,2)">
   <path id="path3871" d="m46.196 24h-0.71207v-3.6939c-3e-6 -0.11598-3e-6 -0.24005 0-0.37222 0.0027-0.13216 0.0054-0.26298 0.0081-0.39245 0.0054-0.13216 0.0094-0.25758 0.01214-0.37626 0.0054-0.12137 0.0094-0.22791 0.01214-0.31962-0.04586 0.04856-0.08631 0.09036-0.12138 0.12542-0.03507 0.03507-0.07148 0.06878-0.10924 0.10115-0.03507 0.03237-0.07283 0.06744-0.11328 0.10519-0.04046 0.03507-0.08901 0.07688-0.14565 0.12542l-0.59879 0.48955-0.3884-0.49764 1.5496-1.2097h0.60688v5.915"/>
   <path id="path3873" d="m51.961 24h-3.6898v-0.63115l1.416-1.5415c0.20229-0.21847 0.383-0.41807 0.54214-0.59879 0.15913-0.18071 0.294-0.35738 0.40458-0.53001 0.11328-0.17262 0.19959-0.34524 0.25894-0.51787 0.05934-0.17532 0.08901-0.36547 0.08901-0.57046-3e-6 -0.15913-0.02293-0.29939-0.06878-0.42077-0.04586-0.12137-0.11194-0.22387-0.19825-0.30748-0.08362-0.08631-0.18341-0.15104-0.29939-0.1942-0.11598-0.04315-0.24545-0.06473-0.3884-0.06473-0.25624 6e-6 -0.4882 0.0526-0.69589 0.15779-0.20499 0.1025-0.40054 0.23466-0.58665 0.39649l-0.41268-0.48146c0.10789-0.09709 0.22387-0.18745 0.34794-0.27107 0.12407-0.08631 0.25758-0.16048 0.40054-0.22252 0.14295-0.06203 0.294-0.11058 0.45314-0.14565 0.15914-0.03776 0.32636-0.05664 0.50169-0.05664 0.25893 6e-6 0.49224 0.03642 0.69993 0.10924 0.21038 0.07283 0.3884 0.17802 0.53405 0.31558 0.14565 0.13487 0.25758 0.30075 0.33581 0.49764 0.08091 0.1942 0.12137 0.41403 0.12138 0.65947-4e-6 0.22927-0.03642 0.44774-0.10924 0.65543-0.07013 0.20769-0.16858 0.41268-0.29535 0.61497-0.12408 0.1996-0.27377 0.40054-0.44909 0.60283-0.17263 0.20229-0.36008 0.41268-0.56237 0.63115l-1.1369 1.2097v0.03237h2.7876v0.67161"/>
  </g>
  <g id="text3789" transform="translate(0,-2)">
   <path id="path3868" d="m46.058 75.471c-1e-6 -0.28321 0.01349-0.56507 0.04046-0.84558 0.02967-0.28051 0.07957-0.54888 0.1497-0.80512 0.07282-0.25893 0.17127-0.49898 0.29535-0.72016 0.12407-0.22117 0.28186-0.41267 0.47336-0.57451 0.1915-0.16453 0.42077-0.29264 0.6878-0.38436 0.26702-0.0944 0.5799-0.1416 0.93864-0.1416 0.05124 6e-6 0.10789 0.0014 0.16993 4e-3 0.06203 0.0027 0.12407 0.0081 0.18611 0.01618 0.06473 0.0054 0.12542 0.01349 0.18206 0.02428 0.05934 0.0081 0.11193 0.01889 0.15779 0.03237v0.62711c-0.09441-0.03236-0.20095-0.05664-0.31962-0.07283-0.11868-0.01618-0.23601-0.02427-0.35199-0.02428-0.24275 5e-6 -0.45718 0.02968-0.64329 0.08901-0.18341 0.05665-0.34255 0.13756-0.47741 0.24275-0.13486 0.1052-0.24815 0.23062-0.33985 0.37626-0.08901 0.14566-0.16184 0.30749-0.21848 0.4855-0.05664 0.17532-0.09845 0.36278-0.12542 0.56237-0.02697 0.1996-0.04451 0.40729-0.0526 0.62306h0.04855c0.05394-0.0971 0.11868-0.18746 0.1942-0.27107 0.07822-0.08631 0.16858-0.15913 0.27107-0.21848 0.10249-0.06203 0.21712-0.11058 0.3439-0.14565 0.12946-0.03506 0.27377-0.05259 0.43291-0.0526 0.25624 3e-6 0.4882 0.04046 0.69589 0.12138 0.20768 0.07822 0.38435 0.1942 0.53001 0.34794 0.14565 0.15374 0.25758 0.34255 0.33581 0.56642 0.08091 0.22118 0.12137 0.47472 0.12138 0.76062-4e-6 0.30749-0.04181 0.58395-0.12542 0.8294-0.08362 0.24545-0.20364 0.45448-0.36008 0.62711-0.15644 0.16993-0.34525 0.30074-0.56642 0.39245-0.22118 0.09171-0.46932 0.13756-0.74444 0.13756-0.26973 0-0.52327-0.0526-0.76062-0.15779-0.23466-0.10519-0.4383-0.26568-0.61092-0.48146-0.17262-0.21578-0.30883-0.48685-0.40863-0.81322-0.0998-0.32636-0.1497-0.71207-0.1497-1.1571m1.9218 1.9906c0.16183 0 0.30883-0.02697 0.441-0.08092 0.13486-0.05664 0.25084-0.14026 0.34794-0.25084 0.0971-0.11328 0.17127-0.25489 0.22252-0.42482 0.05394-0.17262 0.08091-0.37626 0.08092-0.61092-3e-6 -0.1888-0.02293-0.35738-0.06878-0.50573-0.04316-0.15104-0.10924-0.27916-0.19825-0.38436-0.08901-0.10519-0.20095-0.18611-0.33581-0.24275-0.13217-0.05664-0.28726-0.08496-0.46527-0.08496-0.18072 3e-6 -0.3466 0.03237-0.49764 0.0971-0.14835 0.06204-0.27512 0.1443-0.38031 0.2468-0.10519 0.0998-0.18746 0.21443-0.2468 0.3439-0.05664 0.12947-0.08496 0.25894-0.08496 0.3884-1e-6 0.18072 0.02427 0.36143 0.07283 0.54214 0.05125 0.17802 0.12542 0.3385 0.22252 0.48146 0.0998 0.14296 0.22387 0.26028 0.37222 0.35199 0.14835 0.08901 0.32097 0.13351 0.51787 0.13351"/>
  </g>
  <g id="text3793" transform="translate(-2)">
   <path id="path3865" d="m76.489 46.469c-4e-6 0.1969-0.03102 0.37627-0.09305 0.5381-0.06204 0.16184-0.1497 0.30209-0.26298 0.42077-0.11059 0.11868-0.2441 0.21713-0.40054 0.29535-0.15644 0.07553-0.33041 0.12947-0.52192 0.16183v0.02428c0.47741 0.05934 0.84018 0.21174 1.0883 0.45718 0.24814 0.24275 0.37221 0.55968 0.37222 0.95078-5e-6 0.25894-0.04451 0.49629-0.13351 0.71207-0.08631 0.21578-0.21848 0.40189-0.39649 0.55833-0.17802 0.15644-0.40324 0.27782-0.67566 0.36413-0.27242 0.08631-0.59474 0.12947-0.96696 0.12947-0.294 0-0.57182-0.02293-0.83345-0.06878-0.25894-0.04585-0.50304-0.12947-0.7323-0.25084v-0.6878c0.23466 0.12407 0.4882 0.21982 0.76062 0.28726 0.27512 0.06743 0.5381 0.10115 0.78894 0.10115 0.24814 0 0.46257-0.02697 0.64329-0.08092 0.18071-0.05395 0.32906-0.13082 0.44504-0.23061 0.11868-0.0998 0.20499-0.22252 0.25893-0.36817 0.05664-0.14565 0.08496-0.30883 0.08496-0.48955-3e-6 -0.18341-0.03642-0.33985-0.10924-0.46932-0.07013-0.13216-0.17128-0.24005-0.30344-0.32367-0.13217-0.08631-0.294-0.14969-0.4855-0.19016-0.18881-0.04046-0.40324-0.06068-0.64329-0.06069h-0.5381v-0.61092h0.5381c0.21847 4e-6 0.41268-0.02697 0.5826-0.08092 0.16992-0.05394 0.31153-0.13081 0.42481-0.23061 0.11598-0.09979 0.20364-0.21847 0.26298-0.35604 0.05934-0.13755 0.08901-0.2886 0.08901-0.45314-3e-6 -0.14025-0.02428-0.26567-0.07283-0.37626-0.04855-0.11058-0.11733-0.20364-0.20634-0.27916-0.08901-0.07822-0.19555-0.13755-0.31962-0.17802-0.12408-0.04045-0.26163-0.06068-0.41268-0.06069-0.28861 6e-6 -0.54349 0.04586-0.76467 0.13756-0.21848 0.08901-0.42751 0.20634-0.62711 0.35199l-0.37222-0.50573c0.10249-0.08361 0.21578-0.16183 0.33985-0.23466 0.12677-0.07282 0.26433-0.1362 0.41268-0.19016 0.14835-0.05664 0.30614-0.10114 0.47336-0.13351 0.16992-0.03236 0.34929-0.04854 0.5381-0.04855 0.2913 6e-6 0.54619 0.03642 0.76467 0.10924 0.22117 0.07283 0.40593 0.17533 0.55428 0.30748 0.14834 0.12947 0.26028 0.28456 0.33581 0.46527 0.07552 0.17802 0.11328 0.37357 0.11328 0.58665"/>
  </g>
  <g id="text3797" transform="translate(2)">
   <path id="path3862" d="m22.76 47.61c-4e-6 0.28321-0.01484 0.56642-0.0445 0.84963-0.02698 0.28052-0.07688 0.54889-0.1497 0.80512-0.07013 0.25624-0.16723 0.49629-0.2913 0.72016-0.12408 0.22117-0.28186 0.41268-0.47336 0.57451-0.19151 0.16183-0.42077 0.28995-0.6878 0.38436-0.26703 0.09171-0.57991 0.13756-0.93864 0.13756-0.05125 0-0.10789-0.0013-0.16993-4e-3 -0.06204-0.0027-0.12407-0.0081-0.18611-0.01618-0.06204-0.0054-0.12272-0.01214-0.18206-0.02023-0.05934-0.0081-0.11194-0.01888-0.15779-0.03237v-0.63115c0.0944 0.03506 0.20094 0.06069 0.31962 0.07687 0.11868 0.01618 0.23601 0.02428 0.35199 0.02428 0.36412 0 0.66352-0.06338 0.89818-0.19016 0.23466-0.12677 0.42077-0.29804 0.55833-0.51382 0.13756-0.21848 0.23466-0.47202 0.2913-0.76062 0.05934-0.2886 0.09575-0.59339 0.10924-0.91436h-0.0526c-0.05395 0.0971-0.11868 0.18746-0.1942 0.27107-0.07552 0.08362-0.16453 0.15644-0.26703 0.21848-0.1025 0.06204-0.21848 0.11059-0.34794 0.14565-0.12947 0.03507-0.27377 0.0526-0.43291 0.0526-0.25624 3e-6 -0.4882-0.03911-0.69589-0.11733-0.20769-0.080968-0.38436-0.1983-0.53001-0.35204-0.14565-0.15374-0.25894-0.3412-0.33985-0.56237-0.07822-0.22387-0.11733-0.47876-0.11733-0.76467-1e-6 -0.30748 0.04181-0.58395 0.12542-0.8294 0.08631-0.24814 0.20634-0.45718 0.36008-0.62711 0.15644-0.17262 0.34524-0.30478 0.56642-0.39649 0.22387-0.0917 0.47336-0.13755 0.74848-0.13756 0.27242 6e-6 0.52596 0.0526 0.76062 0.15779 0.23466 0.1052 0.4383 0.26568 0.61092 0.48146 0.17262 0.21578 0.30883 0.4882 0.40863 0.81726 0.09979 0.32637 0.14969 0.71072 0.1497 1.1531m-1.9218-1.9865c-0.16184 6e-6 -0.31018 0.02698-0.44504 0.08092-0.13217 0.05395-0.2468 0.13756-0.3439 0.25084-0.0971 0.11329-0.17262 0.25624-0.22657 0.42886-0.05125 0.16993-0.07687 0.37222-0.07687 0.60688-1e-6 0.18881 0.02158 0.35874 0.06473 0.50978 0.04585 0.14835 0.11328 0.27512 0.20229 0.38031 0.08901 0.1052 0.19959 0.18611 0.33176 0.24275 0.13486 0.05664 0.2913 0.08497 0.46932 0.08496 0.18341 3e-6 0.34929-0.03101 0.49764-0.09305 0.14834-0.06473 0.27512-0.147 0.38031-0.2468 0.10519-0.10249 0.18611-0.21847 0.24275-0.34794 0.05934-0.12946 0.08901-0.25893 0.08901-0.3884-4e-6 -0.18071-0.02563-0.36008-0.07687-0.5381-0.04855-0.18071-0.12273-0.34254-0.22252-0.4855-0.0971-0.14565-0.21983-0.26298-0.36817-0.35199-0.14835-0.089-0.32097-0.13351-0.51787-0.13351"/>
  </g>
  <path id="path3877" d="m47.25 49.299-15.213-9.6495 0.75-1.299 15.963 8.3505 4.6337 3.9743-0.375 0.64952-5.7587-2.0257z"/>
  <path id="path3875" transform="matrix(.66667 0 0 .66667 16 16)" d="m51 48a3 3 0 1 1-6 0 3 3 0 1 1 6 0z" color="#000000"/>
  <path id="path3881" transform="translate(-80)" d="m51 48a3 3 0 1 1-6 0 3 3 0 1 1 6 0z" color="#000000"/>
  <path id="path3883" d="m-34 46 1-16h2l1 16h-4z"/>
  <path id="path3885" d="m-30 46 22 1v2l-22 1v-4z"/>
  <path id="path3889" transform="matrix(.5 0 0 .5 24 24)" d="m51 48a3 3 0 1 1-6 0 3 3 0 1 1 6 0z" color="#000000" fill="#f00"/>
  <path id="rect3905" d="m36.938 27.844-0.875 0.5 10.531 18.25c-0.36193 0.36193-0.59375 0.85396-0.59375 1.4062 0 1.1046 0.89543 2 2 2s2-0.89543 2-2-0.89543-2-2-2c-0.18294 0-0.3629 0.01649-0.53125 0.0625l-10.531-18.219z" color="#000000" fill="#f00"/>
  <path id="path3891" transform="matrix(.66667 0 0 .66667 16 16)" d="m51 48a3 3 0 1 1-6 0 3 3 0 1 1 6 0z" color="#000000" fill="url(#radialGradient3901)"/>
  <path id="path3886" d="m83 48c0-19.33-15.67-35-35-35s-35 15.67-35 35 15.67 35 35 35 35-15.67 35-35zm-1 0c0 18.778-15.222 34-34 34s-34-15.222-34-34 15.222-34 34-34 34 15.222 34 34z" color="#000000" fill="url(#linearGradient3905)"/>
  <path id="path3908" d="m79 48c0-17.121-13.879-31-31-31s-31 13.879-31 31 13.879 31 31 31 31-13.879 31-31zm-1 0c0 16.569-13.431 30-30 30s-30-13.431-30-30 13.431-30 30-30 30 13.431 30 30z" color="#000000" fill="url(#linearGradient3923)" opacity=".3"/>
  <path id="path3927" transform="matrix(.86603 .5 -.5 .86603 30.931 -18.435)" d="m49 24a1 1 0 1 1-2 0 1 1 0 1 1 2 0z" color="#000000" opacity=".5"/>
  <path id="path3935" transform="matrix(.5 .86603 -.86603 .5 66.435 -18.069)" d="m49 24a1 1 0 1 1-2 0 1 1 0 1 1 2 0z" color="#000000" opacity=".5"/>
  <path id="path3938" transform="matrix(-.5 .86603 -.86603 -.5 114.44 30.931)" d="m49 24a1 1 0 1 1-2 0 1 1 0 1 1 2 0z" color="#000000" opacity=".5"/>
  <path id="path3940" transform="matrix(-.86603 .5 -.5 -.86603 114.07 66.435)" d="m49 24a1 1 0 1 1-2 0 1 1 0 1 1 2 0z" color="#000000" opacity=".5"/>
  <path id="path3942" transform="matrix(-.86603 -.5 .5 -.86603 65.069 114.44)" d="m49 24a1 1 0 1 1-2 0 1 1 0 1 1 2 0z" color="#000000" opacity=".5"/>
  <path id="path3944" transform="matrix(-.5 -.86603 .86603 -.5 29.565 114.07)" d="m49 24a1 1 0 1 1-2 0 1 1 0 1 1 2 0z" color="#000000" opacity=".5"/>
  <path id="path3946" transform="matrix(.5 -.86603 .86603 .5 -18.435 65.069)" d="m49 24a1 1 0 1 1-2 0 1 1 0 1 1 2 0z" color="#000000" opacity=".5"/>
  <path id="path3948" transform="matrix(.86603 -.5 .5 .86603 -18.069 29.565)" d="m49 24a1 1 0 1 1-2 0 1 1 0 1 1 2 0z" color="#000000" opacity=".5"/>
  <path id="path3965" transform="matrix(0,-1.2,1.2,0,-24,118.6)" d="m53 60a5 5 0 1 1-10 0 5 5 0 1 1 10 0z" color="#000000" fill="url(#linearGradient3973)" opacity=".6"/>
  <path id="path3975" transform="matrix(0,-1,1,0,-12,109)" d="m53 60a5 5 0 1 1-10 0 5 5 0 1 1 10 0z" color="#000000" fill="url(#radialGradient3979)"/>
  <g id="g4008" transform="matrix(.73723 0 0 .73723 -48.957 43.732)" opacity=".4">
   <path id="path3999" d="m130.96 26h-3.6898v-0.63115l1.416-1.5415c0.20229-0.21847 0.38301-0.41807 0.54215-0.59879 0.15913-0.18071 0.29399-0.35738 0.40458-0.53001 0.11328-0.17262 0.19959-0.34524 0.25894-0.51787 0.0593-0.17532 0.089-0.36547 0.089-0.57046-1e-5 -0.15913-0.0229-0.29939-0.0688-0.42077-0.0459-0.12137-0.11194-0.22387-0.19825-0.30748-0.0836-0.08631-0.18342-0.15104-0.29939-0.1942-0.11599-0.04315-0.24545-0.06473-0.38841-0.06473-0.25624 6e-6 -0.4882 0.0526-0.69588 0.15779-0.20499 0.1025-0.40054 0.23466-0.58665 0.39649l-0.41268-0.48146c0.10789-0.09709 0.22387-0.18745 0.34794-0.27107 0.12408-0.08631 0.25759-0.16048 0.40054-0.22252 0.14296-0.06203 0.294-0.11058 0.45314-0.14565 0.15913-0.03776 0.32636-0.05664 0.50169-0.05664 0.25893 6e-6 0.49224 0.03642 0.69993 0.10924 0.21038 0.07283 0.3884 0.17802 0.53405 0.31558 0.14565 0.13487 0.25758 0.30075 0.33581 0.49764 0.0809 0.1942 0.12137 0.41403 0.12137 0.65947 0 0.22927-0.0364 0.44774-0.10924 0.65543-0.0701 0.20769-0.16858 0.41268-0.29534 0.61497-0.12408 0.1996-0.27378 0.40054-0.44909 0.60283-0.17263 0.20229-0.36009 0.41268-0.56238 0.63115l-1.1369 1.2097v0.03237h2.7876v0.67161"/>
   <path id="path4003" d="m135.6 22.529c-1e-5 0.28321-0.0148 0.56642-0.0445 0.84963-0.027 0.28052-0.0769 0.54889-0.1497 0.80512-0.0701 0.25624-0.16723 0.49629-0.2913 0.72016-0.12408 0.22117-0.28187 0.41268-0.47337 0.57451-0.1915 0.16183-0.42077 0.28995-0.68779 0.38436-0.26703 0.09171-0.57991 0.13756-0.93864 0.13756-0.0512 0-0.10789-0.0013-0.16993-4e-3 -0.062-0.0027-0.12407-0.0081-0.1861-0.01618-0.062-0.0054-0.12273-0.01214-0.18207-0.02023-0.0593-0.0081-0.11193-0.01888-0.15779-0.03237v-0.63115c0.0944 0.03506 0.20095 0.06069 0.31963 0.07687 0.11867 0.01618 0.236 0.02428 0.35199 0.02428 0.36412 0 0.66351-0.06338 0.89817-0.19016 0.23466-0.12677 0.42077-0.29804 0.55833-0.51382 0.13756-0.21848 0.23466-0.47202 0.2913-0.76062 0.0593-0.2886 0.0958-0.59339 0.10924-0.91436h-0.0526c-0.054 0.0971-0.11868 0.18746-0.1942 0.27107-0.0755 0.08362-0.16453 0.15644-0.26702 0.21848-0.1025 0.06204-0.21848 0.11059-0.34795 0.14565-0.12947 0.03507-0.27377 0.0526-0.4329 0.0526-0.25624 3e-6 -0.48821-0.03911-0.69589-0.11733-0.20769-0.08097-0.38436-0.1983-0.53001-0.35204-0.14565-0.15374-0.25893-0.3412-0.33985-0.56237-0.0782-0.22387-0.11733-0.47876-0.11733-0.76467 0-0.30748 0.0418-0.58395 0.12542-0.8294 0.0863-0.24814 0.20634-0.45718 0.36008-0.62711 0.15644-0.17262 0.34525-0.30478 0.56642-0.39649 0.22387-0.0917 0.47337-0.13755 0.74848-0.13756 0.27242 6e-6 0.52596 0.0526 0.76063 0.15779 0.23465 0.1052 0.43829 0.26568 0.61092 0.48146 0.17262 0.21578 0.30883 0.4882 0.40863 0.81726 0.0998 0.32637 0.14969 0.71072 0.1497 1.1531m-1.9218-1.9865c-0.16184 6e-6 -0.31019 0.02698-0.44505 0.08092-0.13216 0.05395-0.24679 0.13756-0.34389 0.25084-0.0971 0.11329-0.17263 0.25624-0.22657 0.42886-0.0512 0.16993-0.0769 0.37222-0.0769 0.60688 0 0.18881 0.0216 0.35874 0.0647 0.50978 0.0459 0.14835 0.11328 0.27512 0.20229 0.38031 0.089 0.1052 0.1996 0.18611 0.33176 0.24275 0.13486 0.05664 0.2913 0.08497 0.46932 0.08496 0.18341 3e-6 0.34929-0.03101 0.49764-0.09305 0.14834-0.06473 0.27512-0.147 0.38031-0.2468 0.10519-0.10249 0.18611-0.21847 0.24275-0.34794 0.0593-0.12946 0.089-0.25893 0.089-0.3884 0-0.18071-0.0256-0.36008-0.0769-0.5381-0.0486-0.18071-0.12273-0.34254-0.22252-0.4855-0.0971-0.14565-0.21983-0.26298-0.36817-0.35199-0.14835-0.089-0.32098-0.13351-0.51787-0.13351"/>
  </g>
 </g>
</svg>
