<?xml version="1.0" encoding="UTF-8"?>
<!-- Created with Inkscape (http://www.inkscape.org/) -->
<svg id="svg2408" width="96" height="96" version="1.0" xmlns="http://www.w3.org/2000/svg" xmlns:cc="http://creativecommons.org/ns#" xmlns:dc="http://purl.org/dc/elements/1.1/" xmlns:rdf="http://www.w3.org/1999/02/22-rdf-syntax-ns#" xmlns:xlink="http://www.w3.org/1999/xlink">
 <defs id="defs2410">
  <linearGradient id="ButtonShadow" x1="45.448" x2="45.448" y1="92.54" y2="7.0165" gradientTransform="scale(1.0059 .99417)" gradientUnits="userSpaceOnUse">
   <stop id="stop3750" offset="0"/>
   <stop id="stop3752" stop-opacity=".58824" offset="1"/>
  </linearGradient>
  <filter id="filter3174" color-interpolation-filters="sRGB">
   <feGaussianBlur id="feGaussianBlur3176" stdDeviation="1.71"/>
  </filter>
  <filter id="filter3794" x="-.192" y="-.192" width="1.384" height="1.384" color-interpolation-filters="sRGB">
   <feGaussianBlur id="feGaussianBlur3796" stdDeviation="5.28"/>
  </filter>
  <linearGradient id="linearGradient3613" x1="48" x2="48" y1="20.221" y2="138.66" gradientUnits="userSpaceOnUse">
   <stop id="stop3739" stop-color="#fff" offset="0"/>
   <stop id="stop3741" stop-color="#fff" stop-opacity="0" offset="1"/>
  </linearGradient>
  <linearGradient id="ButtonShadow-0" x1="45.448" x2="45.448" y1="92.54" y2="7.0165" gradientTransform="matrix(1.0059 0 0 .99417 100 0)" gradientUnits="userSpaceOnUse">
   <stop id="stop3750-8" offset="0"/>
   <stop id="stop3752-5" stop-opacity=".58824" offset="1"/>
  </linearGradient>
  <linearGradient id="linearGradient3780" x1="32.251" x2="32.251" y1="6.1317" y2="90.239" gradientTransform="matrix(1.0238 0 0 1.0119 -1.1429 -98.071)" gradientUnits="userSpaceOnUse" xlink:href="#ButtonShadow-0"/>
  <linearGradient id="linearGradient3721" x1="32.251" x2="32.251" y1="6.1317" y2="90.239" gradientTransform="translate(0,-97)" gradientUnits="userSpaceOnUse" xlink:href="#ButtonShadow-0"/>
  <clipPath id="clipPath4355">
   <rect id="rect4357" x="6" y="6" width="84" height="84" rx="6" ry="6" fill="#fff"/>
  </clipPath>
  <linearGradient id="linearGradient4390" x1="48" x2="48" y1="88" y2="-40" gradientTransform="matrix(1,0,0,-1,0,92)" gradientUnits="userSpaceOnUse">
   <stop id="stop4386" stop-color="#fff" offset="0"/>
   <stop id="stop4388" stop-color="#fff" stop-opacity="0" offset="1"/>
  </linearGradient>
  <clipPath id="clipPath3800">
   <path id="path3802" d="m62 6c-3.324 0-6 2.676-6 6v0.53125c0-3.6106 2.9207-6.5312 6.5312-6.5312h-0.53125zm71.469 0c3.6106 0 6.5312 2.9207 6.5312 6.5312v-0.53125c0-3.324-2.676-6-6-6h-0.53125zm6.5312 6.5312c0 36.735-3.5426 60.105-7.8438 69.938-10.816 5.0308-35.677 7.5312-69.625 7.5312h71.469c3.324 0 6-2.676 6-6v-71.469zm-77.469 77.469c-3.6106-0.0055-6.5312-2.9207-6.5312-6.5312v0.53125c0 3.324 2.676 6 6 6h0.53125z" fill="url(#linearGradient3804)"/>
  </clipPath>
  <filter id="filter3810" color-interpolation-filters="sRGB">
   <feGaussianBlur id="feGaussianBlur3812" stdDeviation="1.2600071"/>
  </filter>
  <linearGradient id="linearGradient3186" x1="59.388" x2="133.34" y1="44.471" y2="136.89" gradientTransform="matrix(.71186 0 0 .71186 2.4407 -1.5593)" gradientUnits="userSpaceOnUse">
   <stop id="stop3768" stop-color="#e7ba26" stop-opacity="0" offset="0"/>
   <stop id="stop3770" stop-color="#e9ab2c" offset=".48412"/>
   <stop id="stop3772" stop-color="#eaa82e" offset=".69663"/>
   <stop id="stop3774" stop-color="#ebba3f" offset=".84266"/>
   <stop id="stop3776" stop-color="#f3e38c" offset="1"/>
  </linearGradient>
  <linearGradient id="linearGradient3189" x1="48" x2="48" y1="90" y2="5.9877" gradientTransform="matrix(1.0172 0 0 1.0172 -1.1034 -1.1034)" gradientUnits="userSpaceOnUse">
   <stop id="stop3189" stop-color="#e4b31e" offset="0"/>
   <stop id="stop3191" stop-color="#ffef64" offset="1"/>
  </linearGradient>
  <linearGradient id="linearGradient3951">
   <stop id="stop3953" offset="0"/>
   <stop id="stop3955" stop-opacity="0" offset="1"/>
  </linearGradient>
  <filter id="filter3963" color-interpolation-filters="sRGB">
   <feGaussianBlur id="feGaussianBlur3965" stdDeviation="0.91605611"/>
  </filter>
  <linearGradient id="linearGradient3595" x1="61.295" x2="104.63" y1="121.33" y2="41.347" gradientUnits="userSpaceOnUse" xlink:href="#linearGradient3951"/>
  <linearGradient id="linearGradient3522" x1="136.41" x2="149.53" y1="115.49" y2="115.49" gradientUnits="userSpaceOnUse">
   <stop id="stop3487" stop-color="#e6605b" offset="0"/>
   <stop id="stop3489" stop-color="#f08682" offset="1"/>
  </linearGradient>
  <filter id="filter3495" x="-.42857" y="-.16667" width="1.8571" height="1.3333" color-interpolation-filters="sRGB">
   <feGaussianBlur id="feGaussianBlur3497" stdDeviation="0.55242721"/>
  </filter>
  <filter id="filter3509" x="-.18344" y="-.17668" width="1.3669" height="1.3534" color-interpolation-filters="sRGB">
   <feGaussianBlur id="feGaussianBlur3511" stdDeviation="0.65925"/>
  </filter>
  <linearGradient id="linearGradient3524" x1="137.41" x2="148.53" y1="116.47" y2="116.47" gradientTransform="matrix(1.0894 0 0 1 -13.276 0)" gradientUnits="userSpaceOnUse" xlink:href="#linearGradient3339"/>
  <linearGradient id="linearGradient3339">
   <stop id="stop3341" offset="0"/>
   <stop id="stop3347" stop-opacity=".49804" offset=".7"/>
   <stop id="stop3343" stop-opacity="0" offset="1"/>
  </linearGradient>
  <linearGradient id="linearGradient3526" x1="136" x2="150" y1="60" y2="60" gradientTransform="translate(-23.733)" gradientUnits="userSpaceOnUse">
   <stop id="stop3280" stop-color="#165016" offset="0"/>
   <stop id="stop3290" stop-color="#165016" offset=".25"/>
   <stop id="stop3286" stop-color="#217821" offset=".3"/>
   <stop id="stop3288" stop-color="#217821" offset=".7"/>
   <stop id="stop3292" stop-color="#2ca02c" offset=".75"/>
   <stop id="stop3282" stop-color="#217821" offset="1"/>
  </linearGradient>
  <linearGradient id="linearGradient3528" x1="143" x2="143" y1="2.4e-6" y2="120.02" gradientTransform="translate(-23.733)" gradientUnits="userSpaceOnUse">
   <stop id="stop3256" offset="0"/>
   <stop id="stop3266" offset=".065884"/>
   <stop id="stop3264" stop-color="#ad5f1b" offset=".07"/>
   <stop id="stop3268" stop-color="#ad601a" offset=".19137"/>
   <stop id="stop3262" stop-color="#134613" offset=".20983"/>
   <stop id="stop3258" stop-color="#124312" offset="1"/>
  </linearGradient>
  <linearGradient id="linearGradient3530" x1="141.25" x2="144.81" y1="4.9219" y2="4.9219" gradientTransform="translate(-23.733)" gradientUnits="userSpaceOnUse">
   <stop id="stop3396" offset="0"/>
   <stop id="stop3402" stop-color="#7d7d7d" offset=".5"/>
   <stop id="stop3398" offset="1"/>
  </linearGradient>
  <linearGradient id="linearGradient3532" x1="136.99" x2="149" y1="17.043" y2="17.043" gradientTransform="translate(-23.733)" gradientUnits="userSpaceOnUse">
   <stop id="stop3310" stop-color="#da8539" offset="0"/>
   <stop id="stop3312" stop-color="#fadfc7" offset="1"/>
  </linearGradient>
  <linearGradient id="linearGradient3534" x1="146.11" x2="146.08" y1="118.94" y2="66" gradientTransform="matrix(1 0 0 1.2654 -23.733 -54.364)" gradientUnits="userSpaceOnUse" xlink:href="#linearGradient5452"/>
  <linearGradient id="linearGradient5452">
   <stop id="stop5454" stop-color="#fff" offset="0"/>
   <stop id="stop5456" stop-color="#fff" stop-opacity="0" offset="1"/>
  </linearGradient>
  <linearGradient id="linearGradient3536" x1="146.11" x2="146.08" y1="118.94" y2="66" gradientTransform="matrix(1 0 0 1.2654 -29.858 -54.364)" gradientUnits="userSpaceOnUse" xlink:href="#linearGradient5452"/>
  <filter id="filter3382" x="-.43161" y="-.11371" width="1.8632" height="1.2274" color-interpolation-filters="sRGB">
   <feGaussianBlur id="feGaussianBlur3384" stdDeviation="0.73914765"/>
  </filter>
  <filter id="filter3390" x="-.6098" y="-.1494" width="2.2196" height="1.2988" color-interpolation-filters="sRGB">
   <feGaussianBlur id="feGaussianBlur3392" stdDeviation="0.77812506"/>
  </filter>
  <linearGradient id="linearGradient3538" x1="136" x2="150" y1="106" y2="106" gradientUnits="userSpaceOnUse">
   <stop id="stop3403" stop-color="#404040" offset="0"/>
   <stop id="stop3447" stop-color="#808080" offset=".2"/>
   <stop id="stop3410" stop-color="#efefef" offset=".7"/>
   <stop id="stop3405" stop-color="#dcdcdc" offset="1"/>
  </linearGradient>
  <linearGradient id="linearGradient3540" x1="136" x2="150" y1="106" y2="106" gradientUnits="userSpaceOnUse">
   <stop id="stop3463" stop-color="#444542" offset="0"/>
   <stop id="stop3482" stop-color="#71746e" offset="1"/>
  </linearGradient>
  <linearGradient id="linearGradient3542" x1="142.96" x2="148.96" y1="98.951" y2="98.951" gradientTransform="translate(.042252 1.5494)" gradientUnits="userSpaceOnUse" spreadMethod="reflect" xlink:href="#linearGradient3339"/>
  <linearGradient id="linearGradient3544" x1="142.96" x2="148.96" y1="98.951" y2="98.951" gradientTransform="translate(.042252 2.5494)" gradientUnits="userSpaceOnUse" spreadMethod="reflect" xlink:href="#linearGradient3355"/>
  <linearGradient id="linearGradient3355">
   <stop id="stop3357" stop-color="#fff" offset="0"/>
   <stop id="stop3359" stop-color="#fff" stop-opacity=".49804" offset=".7"/>
   <stop id="stop3361" stop-color="#fff" stop-opacity="0" offset="1"/>
  </linearGradient>
  <linearGradient id="linearGradient3546" x1="142.96" x2="148.96" y1="98.951" y2="98.951" gradientTransform="translate(.042252 3.5494)" gradientUnits="userSpaceOnUse" spreadMethod="reflect" xlink:href="#linearGradient3339"/>
  <linearGradient id="linearGradient3548" x1="142.96" x2="148.96" y1="98.951" y2="98.951" gradientTransform="translate(.042252 4.5494)" gradientUnits="userSpaceOnUse" spreadMethod="reflect" xlink:href="#linearGradient3355"/>
  <linearGradient id="linearGradient3550" x1="142.96" x2="148.96" y1="98.951" y2="98.951" gradientTransform="translate(.042252 9.5494)" gradientUnits="userSpaceOnUse" spreadMethod="reflect" xlink:href="#linearGradient3339"/>
  <linearGradient id="linearGradient3552" x1="142.96" x2="148.96" y1="98.951" y2="98.951" gradientTransform="translate(.042252 10.549)" gradientUnits="userSpaceOnUse" spreadMethod="reflect" xlink:href="#linearGradient3355"/>
  <linearGradient id="linearGradient3554" x1="142.96" x2="148.96" y1="98.951" y2="98.951" gradientTransform="translate(.042252 11.549)" gradientUnits="userSpaceOnUse" spreadMethod="reflect" xlink:href="#linearGradient3339"/>
  <linearGradient id="linearGradient3556" x1="142.96" x2="148.96" y1="98.951" y2="98.951" gradientTransform="translate(.042252 12.549)" gradientUnits="userSpaceOnUse" spreadMethod="reflect" xlink:href="#linearGradient3355"/>
  <linearGradient id="linearGradient3558" x1="137" x2="139.03" y1="106" y2="106" gradientUnits="userSpaceOnUse" spreadMethod="repeat">
   <stop id="stop3441" stop-color="#3d3d3d" offset="0"/>
   <stop id="stop3443" stop-color="#fff" offset="1"/>
  </linearGradient>
  <filter id="filter3451" x="-1.035" y="-.13574" width="3.0699" height="1.2715" color-interpolation-filters="sRGB">
   <feGaussianBlur id="feGaussianBlur3453" stdDeviation="0.9498173"/>
  </filter>
  <filter id="filter3457" x="-.93333" y="-.1377" width="2.8667" height="1.2754" color-interpolation-filters="sRGB">
   <feGaussianBlur id="feGaussianBlur3459" stdDeviation="0.92807767"/>
  </filter>
  <linearGradient id="linearGradient3593" x1="61.295" x2="117.36" y1="121.33" y2="18.868" gradientUnits="userSpaceOnUse" xlink:href="#linearGradient3951"/>
  <linearGradient id="linearGradient4065" x1="80.28" x2="85" y1="76.743" y2="82" gradientUnits="userSpaceOnUse">
   <stop id="stop4061" stop-color="#ad760e" offset="0"/>
   <stop id="stop4104" stop-color="#c28510" offset=".15"/>
   <stop id="stop4063" stop-color="#c28510" stop-opacity="0" offset="1"/>
  </linearGradient>
  <linearGradient id="linearGradient4044" x1="78.783" x2="71.39" y1="78.28" y2="70.227" gradientUnits="userSpaceOnUse">
   <stop id="stop4041" stop-color="#d7951b" offset="0"/>
   <stop id="stop4043" stop-color="#e9b42f" offset=".19094"/>
   <stop id="stop4045" stop-color="#f3e38c" offset="1"/>
  </linearGradient>
  <radialGradient id="radialGradient4085" cx="90" cy="87.922" r="17.001" gradientTransform="matrix(1.3529 -1.3725e-7 1.1935e-7 1.1764 -31.76 -17.434)" gradientUnits="userSpaceOnUse">
   <stop id="stop4069" stop-color="#8d400e" offset="0"/>
   <stop id="stop4087" stop-color="#8d400e" offset=".5"/>
   <stop id="stop4071" stop-color="#8d400e" stop-opacity="0" offset="1"/>
  </radialGradient>
 </defs>
 <metadata id="metadata2413">
  <rdf:RDF>
   <cc:Work rdf:about="">
    <dc:format>image/svg+xml</dc:format>
    <dc:type rdf:resource="http://purl.org/dc/dcmitype/StillImage"/>
    <dc:title/>
   </cc:Work>
  </rdf:RDF>
 </metadata>
 <g id="layer2" display="none">
  <rect id="rect3745" x="5" y="7" width="86" height="85" rx="6" ry="6" fill="url(#ButtonShadow)" filter="url(#filter3174)" opacity=".9"/>
 </g>
 <g id="layer3">
  <path id="path3786" transform="scale(1,-1)" d="m12-95.031c-5.5111 0-10.031 4.5202-10.031 10.031v71c0 5.5111 4.5202 10.031 10.031 10.031h72c5.5111 0 10.031-4.5202 10.031-10.031v-71c0-5.5111-4.5202-10.031-10.031-10.031h-72z" fill="url(#linearGradient3780)" opacity=".08"/>
  <path id="path3778" transform="scale(1,-1)" d="m12-94.031c-4.9716 0-9.0312 4.0596-9.0312 9.0312v71c0 4.9716 4.0596 9.0312 9.0312 9.0312h72c4.9716 0 9.0312-4.0596 9.0312-9.0312v-71c0-4.9716-4.0596-9.0312-9.0312-9.0312h-72z" fill="url(#linearGradient3780)" opacity=".1"/>
  <path id="path3770" transform="scale(1,-1)" d="m12-93c-4.4091 0-8 3.5909-8 8v71c0 4.4091 3.5909 8 8 8h72c4.4091 0 8-3.5909 8-8v-71c0-4.4091-3.5909-8-8-8h-72z" fill="url(#linearGradient3780)" opacity=".2"/>
  <rect id="rect3723" transform="scale(1,-1)" x="5" y="-92" width="86" height="85" rx="7" ry="7" fill="url(#linearGradient3780)" opacity=".3"/>
  <rect id="rect3716" transform="scale(1,-1)" x="6" y="-91" width="84" height="84" rx="6" ry="6" fill="url(#linearGradient3721)" opacity=".45"/>
 </g>
 <g id="layer1">
  <rect id="rect2419-5" x="6" y="6" width="84" height="84" rx="6" ry="6" fill="url(#linearGradient3189)"/>
  <path id="path3785" d="m-88 6c-3.324 0-6 2.676-6 6v67.469c0 3.6105 2.9207 6.5257 6.5312 6.5312 33.948 0 61.13 0.1782 73.375-3.7812 3.1242-9.6846 4.0384-35.309 4.0937-70.219 8e-5 -0.053-1e-4 -0.1031 0-0.1563-0.082-3.2518-2.7278-5.8437-6-5.8437z" clip-path="url(#clipPath3800)" fill="#a14b09" filter="url(#filter3810)" opacity=".5"/>
  <path id="rect3839" d="m12 6c-3.324 0-6 2.676-6 6v6h84v-6c0-3.324-2.676-6-6-6z" fill="#fff" opacity=".35"/>
  <path id="rect4047" d="m66 64v22h18c3.324 0 6-2.676 6-6v-16z" fill="url(#linearGradient4065)"/>
  <path id="path3177" d="m12 6c-3.324 0-6 2.676-6 6v67.469c0 3.6105 2.9207 6.5257 6.5312 6.5312 16.974 0 41.61 0.1209 53.487 0.1209 4.1952 0 4.9488-1.4338 14.138-9.6521 8.326-7.4464 9.8437-8.725 9.8437-14.469 0-11.675-0.1004-32.843 0-50.281-0.1444-3.1938-2.7693-5.7187-6-5.7187z" fill="url(#linearGradient3186)"/>
  <g id="text4313" transform="translate(0,-4)" opacity=".5">
   <path id="path4345" d="m25.399 29.225c-0.1635 0.1635-0.3633 0.2907-0.5995 0.3815-0.2271 0.091-0.4723 0.1635-0.7358 0.218-0.2543 0.054-0.5086 0.1-0.763 0.1363-0.2543 0.027-0.4905 0.068-0.7085 0.1226 0.109 0.4815 0.1726 1.0083 0.1907 1.5806 0.018 0.5723 0.027 1.1627 0.027 1.7713 0 0.5995 0.01 1.2036 0.027 1.8122 0.018 0.5995 0.082 1.1718 0.1908 1.7168 0.327 0.054 0.6495 0.068 0.9674 0.041 0.327-0.036 0.6404-0.059 0.9402-0.068 0.3088-0.018 0.6086 0 0.8993 0.054 0.2997 0.054 0.5859 0.1907 0.8584 0.4087 0 0.1-0.036 0.1817-0.109 0.2453-0.073 0.054-0.1726 0.1-0.2998 0.1362-0.1181 0.036-0.2543 0.073-0.4088 0.109-0.1544 0.027-0.3134 0.068-0.4769 0.1227-0.5359 0-1.0855 0.036-1.6486 0.109-0.5632 0.064-1.1264 0.1317-1.6896 0.2044-0.5632 0.063-1.1264 0.118-1.6896 0.1635-0.5632 0.036-1.1127 0.027-1.6487-0.027-0.1-0.1-0.1589-0.2135-0.1771-0.3406-0.018-0.1363-0.027-0.3089-0.027-0.5178 0.2634-0.109 0.5268-0.1726 0.7902-0.1908 0.2726-0.018 0.5451-0.032 0.8176-0.041 0.2725-0.018 0.5405-0.05 0.8039-0.095 0.2725-0.045 0.5405-0.1499 0.8039-0.3134-0.1-0.4905-0.1635-1.0355-0.1908-1.6351-0.018-0.5995-0.036-1.2081-0.054-1.8258-0.01-0.6177-0.041-1.2217-0.095-1.8122-0.045-0.5904-0.1498-1.1263-0.3133-1.6078-0.209 0.055-0.4451 0.091-0.7086 0.109-0.2543 0.018-0.5177 0.014-0.7902-0.014-0.2726-0.027-0.5405-0.082-0.804-0.1635-0.2543-0.091-0.4859-0.218-0.6949-0.3815-0.055-0.055-0.082-0.1181-0.082-0.1908 0-0.073 0.023-0.1408 0.068-0.2044 0.036-0.073 0.095-0.1317 0.1772-0.1771 0.073-0.045 0.1635-0.068 0.2725-0.068 0.218 0 0.4542 0.01 0.7085 0.027 0.2543 0.018 0.5087 0.023 0.763 0.014 0.2634-0.018 0.5087-0.054 0.7358-0.109 0.2362-0.064 0.436-0.1771 0.5995-0.3406 0.2089 0.109 0.4315 0.1726 0.6677 0.1908 0.2361 0.01 0.4723 0 0.7085-0.027 0.2453-0.027 0.4905-0.054 0.7358-0.082 0.2452-0.036 0.4814-0.05 0.7085-0.041 0.2362 0.01 0.4587 0.059 0.6677 0.1499 0.2089 0.082 0.4042 0.2316 0.5859 0.4496"/>
   <path id="path4347" d="m27.621 34.198v0.7494c0.01 0.2635 0.027 0.5314 0.054 0.8039 0.027 0.2635 0.073 0.5178 0.1362 0.7631 0.064 0.2361 0.1499 0.4405 0.2589 0.6131 0.1635-0.2271 0.2725-0.495 0.327-0.8039 0.064-0.3088 0.1363-0.6041 0.218-0.8857 0.091-0.2815 0.2226-0.5177 0.3952-0.7085 0.1726-0.1998 0.4541-0.2997 0.8448-0.2997 0.227 0.1635 0.3905 0.3451 0.4905 0.545 0.1 0.1907 0.1771 0.3906 0.2316 0.5995 0.055 0.2089 0.1045 0.4269 0.1499 0.654 0.054 0.218 0.1362 0.4406 0.2452 0.6677 0.1726-0.1635 0.3225-0.3679 0.4497-0.6132 0.1272-0.2543 0.2589-0.4859 0.3951-0.6949 0.1454-0.218 0.3089-0.3815 0.4905-0.4905 0.1817-0.109 0.4133-0.109 0.6949 0 0.2271 0.2816 0.3861 0.5768 0.4769 0.8857 0.091 0.3088 0.1363 0.6267 0.1363 0.9538 0 0.327-0.041 0.6585-0.1226 0.9946-0.073 0.327-0.1681 0.6586-0.2862 0.9947-0.1 0.109-0.2089 0.1817-0.327 0.218-0.109 0.036-0.218 0.1135-0.327 0.2316-0.109-0.1726-0.1726-0.3315-0.1908-0.4769-0.018-0.1453-0.023-0.2861-0.014-0.4224 0.018-0.1453 0.032-0.2861 0.041-0.4224 0.01-0.1453-0.018-0.2997-0.082-0.4632-0.109 0.109-0.1998 0.218-0.2725 0.327-0.064 0.109-0.1317 0.2225-0.2043 0.3406-0.064 0.109-0.1408 0.218-0.2317 0.327-0.091 0.1181-0.218 0.2317-0.3815 0.3407-0.2362 0-0.4633-0.01-0.6813-0.027-0.218-0.018-0.4451-0.091-0.6812-0.218l-0.2317-1.7849c-0.109 0.1726-0.2089 0.3588-0.2997 0.5586-0.091 0.1908-0.1863 0.3952-0.2862 0.6132-0.091 0.2089-0.1998 0.4224-0.327 0.6404-0.1181 0.218-0.2589 0.4405-0.4224 0.6676-0.1635 0-0.3088 0-0.436-0.014-0.1181 0-0.2271-0.014-0.327-0.041-0.1-0.027-0.1953-0.073-0.2861-0.1362-0.091-0.064-0.1953-0.1499-0.3134-0.2589-0.2271-0.7994-0.3588-1.626-0.3952-2.4799-0.036-0.8538-0.055-1.6714-0.055-2.4526 0-0.2816 0.059-0.4587 0.1772-0.5314 0.118-0.082 0.2498-0.095 0.3951-0.041s0.2771 0.1589 0.3951 0.3133c0.1181 0.1454 0.1772 0.2998 0.1772 0.4633"/>
   <path id="path4349" d="m38.002 32.794c0.1998 0.3543 0.2861 0.6949 0.2589 1.0219-0.018 0.327-0.1045 0.645-0.2589 0.9538s-0.3452 0.6041-0.5723 0.8857c-0.2271 0.2725-0.4405 0.5359-0.6404 0.7902-0.3542 0.1-0.5995 0.2816-0.7357 0.5451-0.1272 0.2543-0.2044 0.5495-0.2317 0.8856-0.027 0.327-0.032 0.6722-0.014 1.0356 0.027 0.3633 0.014 0.6949-0.041 0.9946v3.4745c-0.1 0.1-0.1998 0.159-0.2997 0.1772-0.1 0.018-0.209 0.027-0.3271 0.027-0.2452-0.1998-0.4178-0.436-0.5177-0.7085-0.091-0.2725-0.1545-0.5587-0.1908-0.8584-0.036-0.2907-0.068-0.5859-0.095-0.8857-0.018-0.2907-0.082-0.5586-0.1907-0.8039 0-0.7176-0.023-1.417-0.068-2.0983-0.045-0.6904-0.05-1.3626-0.014-2.0166 0.045-0.6631 0.159-1.3126 0.3407-1.9484 0.1816-0.6359 0.5041-1.2627 0.9674-1.8804 0.1453-0.1544 0.3451-0.277 0.5995-0.3679 0.2543-0.1 0.5132-0.1407 0.7766-0.1226 0.2725 0.01 0.5223 0.086 0.7494 0.2316 0.2362 0.1363 0.4043 0.3589 0.5042 0.6677m-1.0219 0.1635c-0.2998 0.055-0.5314 0.1681-0.6949 0.3406-0.1635 0.1636-0.2771 0.3543-0.3407 0.5723-0.064 0.218-0.091 0.4497-0.082 0.6949 0.018 0.2362 0.054 0.4587 0.109 0.6677 0.1544-0.1545 0.3043-0.3089 0.4496-0.4633 0.1454-0.1635 0.268-0.3361 0.3679-0.5178 0.1-0.1816 0.1681-0.3769 0.2044-0.5859 0.045-0.2089 0.041-0.4451-0.014-0.7085"/>
   <path id="path4351" d="m43.75 34.225c0.2362 0.6268 0.3452 1.1945 0.327 1.7032-0.018 0.5087-0.218 1.0128-0.5995 1.5124-0.4905 0.4905-1.031 0.8084-1.6214 0.9538-0.5905 0.1453-1.1991 0.1499-1.8259 0.014-0.1271-0.054-0.2407-0.1226-0.3406-0.2044-0.091-0.091-0.1817-0.1907-0.2725-0.2997-0.091-0.109-0.1862-0.2226-0.2861-0.3407-0.091-0.1181-0.1953-0.2407-0.3134-0.3679-0.073-0.2452-0.109-0.5177-0.109-0.8175 0-0.2997 0.032-0.595 0.095-0.8856 0.064-0.2998 0.1545-0.5814 0.2726-0.8448 0.118-0.2634 0.2679-0.486 0.4496-0.6677 0.3088-0.436 0.6676-0.7585 1.0764-0.9674 0.4088-0.218 0.813-0.3179 1.2127-0.2997 0.4087 0.01 0.7857 0.1408 1.1309 0.3951 0.3452 0.2453 0.6131 0.6177 0.8039 1.1173m-1.2535 0.981c0.054-0.1271 0.059-0.2589 0.014-0.3951-0.045-0.1363-0.1226-0.2407-0.2316-0.3134-0.1091-0.082-0.2362-0.1135-0.3816-0.095-0.1362 0.018-0.2725 0.1181-0.4087 0.2998-0.1-0.1181-0.218-0.1363-0.3543-0.055-0.1272 0.082-0.2498 0.1907-0.3679 0.327-0.055 0.1272-0.1362 0.268-0.2452 0.4224-0.1 0.1453-0.1908 0.3043-0.2725 0.4769-0.082 0.1726-0.1318 0.3497-0.1499 0.5314-0.01 0.1816 0.045 0.3679 0.1635 0.5586h1.2263c0.3815-0.1362 0.6449-0.3679 0.7903-0.6949 0.1453-0.3361 0.218-0.6903 0.218-1.0628"/>
   <path id="path4353" d="m46.595 33.762v0.5178c0.2452-0.3179 0.4814-0.6041 0.7085-0.8584 0.2362-0.2544 0.4815-0.4724 0.7358-0.6541 0.2543-0.1907 0.5268-0.3497 0.8175-0.4768 0.2907-0.1272 0.6223-0.218 0.9947-0.2726 0.082 0.2907 0.091 0.5587 0.027 0.804-0.064 0.2361-0.1771 0.4632-0.3406 0.6812-0.1544 0.209-0.3406 0.4133-0.5586 0.6132-0.2181 0.1998-0.4361 0.3997-0.6541 0.5995-0.2089 0.1998-0.4042 0.4088-0.5859 0.6268-0.1816 0.2089-0.3134 0.4405-0.3951 0.6949-0.1272 0.1907-0.2271 0.4042-0.2998 0.6404-0.073 0.2361-0.1498 0.4723-0.2316 0.7085-0.073 0.2362-0.1635 0.4587-0.2725 0.6676-0.109 0.209-0.2589 0.377-0.4497 0.5042-0.073 0-0.1544 0-0.2452-0.014-0.082 0-0.1726-0.014-0.2725-0.041-0.091-0.036-0.1817-0.091-0.2725-0.1635-0.091-0.073-0.1681-0.1726-0.2317-0.2998-0.064-0.436-0.1-0.8766-0.109-1.3217 0-0.4451 0.014-0.9038 0.041-1.3761 0.036-0.4724 0.082-0.9629 0.1363-1.4716 0.063-0.5087 0.1317-1.0492 0.2043-1.6214 0-0.054 0.014-0.1227 0.041-0.2044 0.036-0.091 0.082-0.1771 0.1363-0.2589 0.064-0.082 0.1408-0.1499 0.2316-0.2044 0.1-0.055 0.2135-0.082 0.3407-0.082 0.1907 0.1271 0.3088 0.2816 0.3542 0.4632 0.054 0.1817 0.082 0.377 0.082 0.5859 0 0.1999 0 0.4043-0.014 0.6132-0.01 0.2089 0.018 0.4088 0.082 0.5995"/>
   <path id="path4355" d="m52.725 29.197c0.055 0.3542 0.073 0.7176 0.055 1.09-0.01 0.3724-0.032 0.7494-0.068 1.1309-0.027 0.3725-0.064 0.7449-0.1091 1.1173-0.036 0.3725-0.055 0.7358-0.055 1.0901 0.1 0.109 0.2181 0.1953 0.3543 0.2588 0.1363 0.064 0.268 0.1272 0.3952 0.1908 0.1271 0.064 0.2316 0.1408 0.3133 0.2316 0.091 0.082 0.1363 0.1953 0.1363 0.3407-0.1 0.045-0.1999 0.073-0.2998 0.082-0.091 0.01-0.1907 0.014-0.2997 0.014-0.1 1e-4 -0.1999 0-0.2998 0.014-0.1 0-0.1998 0.023-0.2998 0.068 0 0.2544-0.01 0.5314-0.027 0.8312-0.018 0.2997-0.036 0.6086-0.054 0.9265-0.01 0.3088-0.014 0.6268-0.014 0.9538 0.01 0.3179 0.041 0.6313 0.095 0.9401-0.209 0.091-0.3816 0.1363-0.5178 0.1363-0.1363 0-0.3043-0.045-0.5042-0.1363-0.1453-0.3633-0.2316-0.6994-0.2588-1.0082-0.018-0.3089-0.014-0.6086 0.014-0.8993 0.027-0.2907 0.054-0.5768 0.082-0.8584 0.027-0.2816 0.014-0.5768-0.041-0.8857-0.064-0.1-0.1499-0.159-0.2589-0.1771-0.1-0.027-0.2135-0.032-0.3407-0.014-0.1271 0.01-0.2634 0.027-0.4087 0.055-0.1363 0.018-0.268 0.023-0.3952 0.014-0.1271-0.01-0.2452-0.045-0.3542-0.109-0.1-0.073-0.1817-0.1953-0.2453-0.3679-0.054-0.1454-0.05-0.2589 0.014-0.3407 0.064-0.082 0.1545-0.1407 0.2725-0.1771 0.1272-0.045 0.2726-0.068 0.4361-0.068 0.1635-0.01 0.3224-0.014 0.4769-0.014h0.8039l0.4224-4.6463c0-0.2998 0.05-0.4724 0.1498-0.5178 0.1-0.055 0.209-0.041 0.327 0.041 0.1272 0.073 0.2408 0.1862 0.3407 0.3406 0.109 0.1454 0.1635 0.2635 0.1635 0.3543"/>
   <path id="path4357" d="m59.452 33.953c0.1 0.1907 0.1544 0.3906 0.1635 0.5995 0.01 0.2089 0 0.4178-0.027 0.6268-0.018 0.1998-0.045 0.3996-0.082 0.5995-0.027 0.1907-0.036 0.3724-0.027 0.545 0.01 0.1726 0.054 0.3316 0.1363 0.4769 0.082 0.1453 0.2225 0.268 0.4224 0.3679 0.2906 0 0.5631-0.027 0.8175-0.082 0.2634-0.063 0.5132-0.1226 0.7494-0.1771 0.2452-0.064 0.4769-0.1045 0.6949-0.1226 0.2271-0.027 0.4496 0 0.6676 0.068 0.073 0.082 0.1408 0.1771 0.2044 0.2861 0.064 0.1 0.1136 0.2044 0.1499 0.3134 0.036 0.109 0.05 0.218 0.041 0.327 0 0.1-0.036 0.1863-0.109 0.2589-0.2907 0.073-0.5814 0.1726-0.8721 0.2998-0.2906 0.1181-0.5859 0.2225-0.8856 0.3134-0.2907 0.091-0.5814 0.1453-0.872 0.1635-0.2907 0.018-0.5814-0.045-0.8721-0.1908-0.1453-0.073-0.2952-0.1726-0.4496-0.2997-0.1454-0.1272-0.2952-0.2453-0.4497-0.3543-0.1453-0.109-0.2952-0.1908-0.4496-0.2453-0.1453-0.054-0.2907-0.045-0.436 0.027-0.1363 0.2907-0.3089 0.4814-0.5178 0.5723-0.2089 0.091-0.436 0.118-0.6813 0.082-0.2361-0.036-0.4814-0.1181-0.7357-0.2452-0.2453-0.1272-0.4769-0.2635-0.6949-0.4088-0.073-0.073-0.1772-0.1454-0.3134-0.218-0.1272-0.082-0.2544-0.1681-0.3815-0.2589-0.1272-0.091-0.2408-0.1908-0.3407-0.2998-0.091-0.1181-0.1362-0.2543-0.1362-0.4087 0.218-0.3634 0.4859-0.6949 0.8039-0.9947 0.327-0.2998 0.6722-0.5859 1.0355-0.8584 0.3724-0.2725 0.7539-0.5405 1.1445-0.8039 0.3906-0.2725 0.7676-0.5541 1.131-0.8448 0.1362 0 0.2588 0.032 0.3679 0.095 0.118 0.064 0.2225 0.1408 0.3133 0.2316 0.1 0.082 0.1863 0.1772 0.2589 0.2862 0.082 0.1 0.159 0.1907 0.2317 0.2725m-2.9431 2.9022c0.082-0.1453 0.1998-0.2589 0.3542-0.3406 0.1544-0.091 0.2952-0.1908 0.4224-0.2998s0.2135-0.2453 0.2589-0.4088c0.045-0.1725 0-0.4042-0.1363-0.6949l-1.1854 1.458c0 0.1453 0.01 0.2316 0.027 0.2589 0.027 0.018 0.1135 0.027 0.2588 0.027"/>
   <path id="path4359" d="m66.1 34.321c0 0.1362 0.014 0.2588 0.041 0.3678 0.036 0.1091 0.068 0.2044 0.095 0.2862 0.036 0.082 0.068 0.1589 0.095 0.2316 0.036 0.073 0.055 0.1454 0.055 0.218 0.064-0.1362 0.1408-0.2543 0.2316-0.3542 0.1-0.109 0.1999-0.209 0.2998-0.2998 0.1-0.091 0.1953-0.168 0.2861-0.2316 0.1-0.073 0.1817-0.1454 0.2453-0.218 0.4087-0.073 0.7403-0.032 0.9946 0.1226 0.2635 0.1453 0.4815 0.3543 0.6541 0.6268 0.1725 0.2725 0.3179 0.5859 0.436 0.9401 0.1271 0.3543 0.2589 0.6995 0.3951 1.0356 0 0.2725 0.014 0.5314 0.041 0.7766 0.027 0.2453 0.045 0.486 0.055 0.7222 0.018 0.2452 0.023 0.4859 0.014 0.7221-0.01 0.2453-0.045 0.5042-0.109 0.7767-0.1362 0-0.2452 0.027-0.327 0.082-0.082 0.054-0.159 0.1045-0.2316 0.1499-0.064 0.054-0.1363 0.091-0.218 0.109-0.073 0.027-0.1772 0.01-0.3134-0.054-0.1363-0.2725-0.218-0.5904-0.2453-0.9538-0.027-0.3542-0.05-0.7176-0.068-1.09-0.018-0.3815-0.059-0.7494-0.1226-1.1037-0.055-0.3542-0.1863-0.6676-0.3952-0.9401-0.1817 0.091-0.3406 0.2225-0.4769 0.3951-0.1271 0.1635-0.2452 0.3406-0.3542 0.5314-0.109 0.1907-0.218 0.3815-0.327 0.5723-0.1091 0.1816-0.2362 0.3406-0.3816 0.4769-0.1362 0.1271-0.2997 0.218-0.4905 0.2725-0.1907 0.045-0.4224 0.023-0.6949-0.068-0.2271-0.091-0.3951-0.2134-0.5041-0.3679-0.1-0.1635-0.1635-0.3497-0.1908-0.5586-0.027-0.2089-0.027-0.4315 0-0.6677 0.027-0.2452 0.059-0.495 0.095-0.7494 0.036-0.2543 0.064-0.5086 0.082-0.763 0.027-0.2543 0.018-0.495-0.027-0.7221 0-0.1999 0.059-0.377 0.1771-0.5314 0.1181-0.1545 0.2498-0.2589 0.3952-0.3134 0.1544-0.054 0.3043-0.041 0.4496 0.041 0.1544 0.082 0.268 0.2588 0.3407 0.5314"/>
   <path id="path4361" d="m74.44 29.197c0.055 0.3542 0.073 0.7176 0.055 1.09-0.01 0.3724-0.032 0.7494-0.068 1.1309-0.027 0.3725-0.064 0.7449-0.109 1.1173-0.036 0.3725-0.054 0.7358-0.054 1.0901 0.1 0.109 0.218 0.1953 0.3543 0.2588 0.1362 0.064 0.2679 0.1272 0.3951 0.1908 0.1272 0.064 0.2316 0.1408 0.3134 0.2316 0.091 0.082 0.1362 0.1953 0.1362 0.3407-0.1 0.045-0.1998 0.073-0.2997 0.082-0.091 0.01-0.1908 0.014-0.2998 0.014-0.1 1e-4 -0.1998 0-0.2997 0.014-0.1 0-0.1999 0.023-0.2998 0.068 0 0.2544-0.01 0.5314-0.027 0.8312-0.018 0.2997-0.036 0.6086-0.054 0.9265-0.01 0.3088-0.014 0.6268-0.014 0.9538 0.01 0.3179 0.041 0.6313 0.095 0.9401-0.2089 0.091-0.3815 0.1363-0.5178 0.1363-0.1362 0-0.3043-0.045-0.5041-0.1363-0.1454-0.3633-0.2316-0.6994-0.2589-1.0082-0.018-0.3089-0.014-0.6086 0.014-0.8993 0.027-0.2907 0.055-0.5768 0.082-0.8584s0.014-0.5768-0.041-0.8857c-0.064-0.1-0.1499-0.159-0.2589-0.1771-0.1-0.027-0.2134-0.032-0.3406-0.014-0.1272 0.01-0.2634 0.027-0.4088 0.055-0.1362 0.018-0.268 0.023-0.3951 0.014-0.1272-0.01-0.2453-0.045-0.3543-0.109-0.1-0.073-0.1817-0.1953-0.2452-0.3679-0.055-0.1454-0.05-0.2589 0.014-0.3407 0.064-0.082 0.1544-0.1407 0.2725-0.1771 0.1272-0.045 0.2725-0.068 0.436-0.068 0.1635-0.01 0.3225-0.014 0.4769-0.014h0.8039l0.4224-4.6463c0-0.2998 0.05-0.4724 0.1499-0.5178 0.1-0.055 0.2089-0.041 0.327 0.041 0.1272 0.073 0.2407 0.1862 0.3406 0.3406 0.109 0.1454 0.1635 0.2635 0.1635 0.3543"/>
   <path id="path4363" d="m17.969 46.229c0.055 0.3542 0.073 0.7176 0.055 1.09-0.01 0.3724-0.032 0.7494-0.068 1.1309-0.027 0.3724-0.064 0.7449-0.109 1.1173-0.036 0.3724-0.055 0.7358-0.054 1.09 0.1 0.1091 0.218 0.1953 0.3542 0.2589 0.1363 0.064 0.268 0.1272 0.3952 0.1908 0.1271 0.064 0.2316 0.1408 0.3133 0.2316 0.091 0.082 0.1363 0.1953 0.1363 0.3407-0.1 0.045-0.1998 0.073-0.2998 0.082-0.091 0.01-0.1907 0.014-0.2997 0.014-0.1 0-0.1999 0-0.2998 0.014-0.1 0-0.1998 0.023-0.2997 0.068-1e-4 0.2543-0.01 0.5314-0.027 0.8311-0.018 0.2998-0.036 0.6086-0.055 0.9266-0.01 0.3088-0.014 0.6268-0.014 0.9538 0.01 0.3179 0.041 0.6313 0.095 0.9401-0.209 0.091-0.3816 0.1363-0.5178 0.1363-0.1363 0-0.3043-0.045-0.5042-0.1363-0.1453-0.3633-0.2316-0.6994-0.2588-1.0083-0.018-0.3088-0.014-0.6086 0.014-0.8993 0.027-0.2906 0.055-0.5768 0.082-0.8584 0.027-0.2815 0.014-0.5768-0.041-0.8856-0.064-0.1-0.1499-0.159-0.2589-0.1771-0.1-0.027-0.2135-0.032-0.3407-0.014-0.1271 0.01-0.2634 0.027-0.4087 0.055-0.1363 0.018-0.268 0.023-0.3952 0.014-0.1271-0.01-0.2452-0.046-0.3542-0.1091-0.1-0.073-0.1817-0.1952-0.2453-0.3678-0.054-0.1454-0.05-0.2589 0.014-0.3407 0.064-0.082 0.1545-0.1408 0.2725-0.1771 0.1272-0.045 0.2726-0.068 0.4361-0.068 0.1635-0.01 0.3224-0.014 0.4769-0.014h0.8039l0.4224-4.6463c-1e-4 -0.2997 0.05-0.4723 0.1498-0.5177 0.1-0.054 0.209-0.041 0.327 0.041 0.1272 0.073 0.2408 0.1863 0.3407 0.3407 0.109 0.1453 0.1635 0.2634 0.1635 0.3542"/>
   <path id="path4365" d="m20.881 46.42c0.064 0.4542 0.1226 0.8948 0.1771 1.3217 0.055 0.4178 0.095 0.8266 0.1227 1.2263 0.036 0.3997 0.05 0.7948 0.041 1.1854 0 0.3906-0.032 0.7812-0.095 1.1718h0.2589c0.1271-0.064 0.2407-0.1544 0.3406-0.2725 0.109-0.1181 0.2089-0.2362 0.2998-0.3543 0.1-0.1181 0.1998-0.218 0.2997-0.2997 0.109-0.082 0.2271-0.1227 0.3543-0.1227 0.1907-0.055 0.3679-0.055 0.5314 0 0.1635 0.054 0.3179 0.1408 0.4632 0.2589 0.1454 0.109 0.2816 0.2362 0.4088 0.3815 0.1272 0.1454 0.2543 0.2816 0.3815 0.4088 0.064 0.3906 0.1136 0.7403 0.1499 1.0492 0.036 0.2997 0.055 0.5949 0.055 0.8856 0 0.2816-0.018 0.5768-0.055 0.8857-0.036 0.2997-0.086 0.6449-0.1499 1.0355-0.1181 0.1363-0.2543 0.2544-0.4087 0.3543-0.1454 0.1-0.3452 0.1499-0.5996 0.1499-0.1271-0.2544-0.2044-0.5224-0.2316-0.804-0.018-0.2815-0.027-0.5677-0.027-0.8584-1e-4 -0.2906-0.014-0.5768-0.041-0.8584-0.018-0.2816-0.091-0.5541-0.218-0.8175-0.3906 0.3906-0.7267 0.8312-1.0083 1.3217-0.2725 0.4905-0.5405 0.9946-0.8039 1.5124-0.1272 0.1908-0.2544 0.2998-0.3815 0.327-0.1272 0.027-0.2544 0.018-0.3816-0.027-0.1271-0.055-0.2543-0.1181-0.3815-0.1908-0.1271-0.073-0.2543-0.109-0.3815-0.109-0.073-0.7085-0.1044-1.4034-0.095-2.0847 0.018-0.6903 0.041-1.3807 0.068-2.0711 0.036-0.6903 0.064-1.3898 0.082-2.0983 0.018-0.7176 0-1.4625-0.055-2.2346l0.2316-0.7766c0.1363-0.064 0.2635-0.086 0.3816-0.068 0.1271 0.018 0.2407 0.064 0.3406 0.1363 0.1 0.064 0.1771 0.1408 0.2316 0.2316 0.064 0.082 0.095 0.1499 0.095 0.2044"/>
   <path id="path4367" d="m27.141 46.638v0.872c-0.082 1e-4 -0.1454-0.014-0.1908-0.041-0.036-0.027-0.064-0.059-0.082-0.095-0.027-0.036-0.041-0.086-0.041-0.1499-0.1453 0.1454-0.2907 0.2317-0.436 0.2589-0.1454 0.018-0.2952 0.027-0.4497 0.027-0.073-0.073-0.1453-0.1589-0.218-0.2588-0.064-0.109-0.1135-0.218-0.1499-0.3271-0.027-0.1089-0.041-0.2134-0.041-0.3133 0.01-0.109 0.045-0.2044 0.109-0.2862 0.073-0.1453 0.1771-0.2271 0.3134-0.2452 0.1362-0.018 0.277 0 0.4224 0.068 0.1544 0.054 0.2997 0.1317 0.436 0.2316 0.1362 0.091 0.2452 0.1772 0.327 0.2589m-0.3134 3.5563c0.082 0.436 0.109 0.8765 0.082 1.3216-0.018 0.4361-0.055 0.8675-0.109 1.2945-0.055 0.4269-0.1135 0.8402-0.1771 1.2399-0.055 0.3997-0.082 0.7812-0.082 1.1445-0.1545 0.1545-0.2907 0.2407-0.4088 0.2589-0.1181 0.018-0.2316 0.01-0.3406-0.027-0.1091-0.045-0.2226-0.095-0.3407-0.1499-0.109-0.055-0.2316-0.082-0.3679-0.082-0.1544-1.0264-0.1589-1.9938-0.014-2.9022 0.1453-0.9174 0.436-1.8167 0.872-2.6978 0.1454 0 0.2589 0.018 0.3407 0.054 0.091 0.036 0.1635 0.082 0.218 0.1362 0.054 0.055 0.1044 0.1181 0.1499 0.1908 0.045 0.073 0.1044 0.1453 0.1771 0.218"/>
   <path id="path4369" d="m29.668 51.352c0 0.1363 0.014 0.2589 0.041 0.3679 0.036 0.109 0.068 0.2044 0.095 0.2862 0.036 0.082 0.068 0.1589 0.095 0.2316 0.036 0.073 0.055 0.1453 0.055 0.218 0.064-0.1362 0.1408-0.2543 0.2317-0.3543 0.1-0.109 0.1998-0.2089 0.2997-0.2997 0.1-0.091 0.1953-0.1681 0.2861-0.2316 0.1-0.073 0.1817-0.1454 0.2453-0.2181 0.4088-0.073 0.7403-0.032 0.9947 0.1227 0.2634 0.1453 0.4814 0.3542 0.654 0.6267 0.1726 0.2726 0.3179 0.5859 0.436 0.9402 0.1272 0.3543 0.2589 0.6995 0.3951 1.0355 0 0.2726 0.014 0.5314 0.041 0.7767s0.045 0.486 0.055 0.7222c0.018 0.2452 0.023 0.4859 0.014 0.7221-0.01 0.2453-0.046 0.5041-0.109 0.7767-0.1363 0-0.2453 0.027-0.3271 0.082-0.082 0.054-0.1589 0.1045-0.2316 0.1499-0.064 0.054-0.1363 0.091-0.218 0.109-0.073 0.027-0.1771 0.01-0.3134-0.054-0.1362-0.2725-0.218-0.5904-0.2452-0.9538-0.027-0.3543-0.05-0.7176-0.068-1.09-0.018-0.3815-0.059-0.7494-0.1226-1.1037-0.055-0.3543-0.1862-0.6676-0.3951-0.9402-0.1817 0.091-0.3407 0.2226-0.4769 0.3952-0.1272 0.1635-0.2453 0.3406-0.3543 0.5314-0.109 0.1907-0.218 0.3815-0.327 0.5722-0.109 0.1817-0.2362 0.3407-0.3815 0.4769-0.1363 0.1272-0.2998 0.218-0.4905 0.2725-0.1908 0.046-0.4224 0.023-0.6949-0.068-0.2271-0.091-0.3952-0.2134-0.5042-0.3679-0.1-0.1635-0.1635-0.3497-0.1907-0.5586-0.027-0.2089-0.027-0.4315 0-0.6677 0.027-0.2452 0.059-0.495 0.095-0.7494 0.036-0.2543 0.064-0.5087 0.082-0.763 0.027-0.2543 0.018-0.4951-0.027-0.7222 0-0.1998 0.059-0.3769 0.1772-0.5313 0.1181-0.1545 0.2498-0.2589 0.3951-0.3134 0.1544-0.054 0.3043-0.041 0.4496 0.041 0.1545 0.082 0.268 0.2589 0.3407 0.5314"/>
   <path id="path4371" d="m38.104 54.118c0.045 0.4996 0.082 1.0219 0.109 1.567 0.036 0.5541 0.045 1.1082 0.027 1.6623s-0.077 1.0945-0.1771 1.6214c-0.1 0.5359-0.2635 1.0355-0.4906 1.4988-0.218 0.4724-0.5086 0.8993-0.872 1.2808-0.3633 0.3906-0.8175 0.7131-1.3625 0.9674-0.3815 0.3815-0.8085 0.5768-1.2808 0.5859-0.4815 0.018-0.9811-0.1045-1.4988-0.3679 0.5086-0.3088 1.0173-0.654 1.526-1.0355s0.9583-0.8039 1.3489-1.2672c0.3997-0.4542 0.7086-0.9538 0.9266-1.4988 0.2271-0.5359 0.3088-1.1173 0.2452-1.7441v-2.0029c-0.1271 0.064-0.2679 0.1-0.4224 0.109-0.1544 0-0.3133-0.014-0.4768-0.041-0.1545-0.036-0.3089-0.082-0.4633-0.1362-0.1454-0.064-0.2816-0.1318-0.4088-0.2044-0.2543-0.4996-0.3724-0.9992-0.3542-1.4988 0.018-0.4996 0.2134-1.0083 0.5859-1.5261 0.2725-0.2452 0.5768-0.4178 0.9129-0.5178 0.3361-0.109 0.6313-0.1 0.8856 0.027 0.3089 0.1272 0.5223 0.2952 0.6404 0.5041 0.1272 0.1999 0.2135 0.4179 0.2589 0.6541 0.055 0.2361 0.095 0.4769 0.1226 0.7221 0.027 0.2362 0.1 0.4497 0.218 0.6404m-2.2618 0.2862c0.109-0.1181 0.1908-0.2408 0.2453-0.3679 0.063-0.1272 0.1181-0.2498 0.1635-0.3679 0.045-0.1272 0.1-0.2544 0.1635-0.3815 0.064-0.1272 0.1499-0.2544 0.2589-0.3816-0.109 0.1272-0.2362 0.2589-0.3815 0.3952-0.1454 0.1362-0.2726 0.268-0.3816 0.3951-0.1 0.1272-0.168 0.2544-0.2043 0.3815-0.027 0.1181 0.018 0.2271 0.1362 0.3271"/>
   <path id="path4373" d="m41.571 49.2c0.054 0.1181 0.068 0.2226 0.041 0.3134-0.018 0.082-0.068 0.1544-0.1499 0.218-0.073 0.054-0.1681 0.1-0.2861 0.1363-0.109 0.027-0.2226 0.041-0.3407 0.041 0.2362 0.2453 0.4815 0.4951 0.7358 0.7494 0.2543 0.2453 0.4814 0.5042 0.6813 0.7767 0.1998 0.2725 0.3497 0.5632 0.4496 0.872 0.109 0.3089 0.1317 0.6404 0.068 0.9947 0 0.3724-0.068 0.6858-0.2043 0.9402-0.1363 0.2452-0.3089 0.4496-0.5178 0.6131s-0.4451 0.2952-0.7085 0.3951c-0.2544 0.091-0.5042 0.1681-0.7494 0.2317-0.3634 0.1271-0.7176 0.1408-1.0628 0.041-0.3361-0.109-0.6223-0.2862-0.8584-0.5314-0.064-0.2362-0.023-0.3952 0.1226-0.4769 0.1544-0.091 0.3406-0.1499 0.5586-0.1772 0.2271-0.027 0.4588-0.05 0.6949-0.068 0.2453-0.027 0.427-0.1045 0.5451-0.2316 0.2452-0.1272 0.436-0.2589 0.5722-0.3952 0.1454-0.1453 0.2816-0.3361 0.4088-0.5722 0.036-0.318-0.032-0.6041-0.2044-0.8584-0.1726-0.2544-0.3815-0.486-0.6268-0.6949-0.2452-0.218-0.4996-0.427-0.763-0.6268-0.2543-0.1999-0.4496-0.4042-0.5859-0.6132-0.1362-0.218-0.1817-0.4496-0.1362-0.6949 0.045-0.2543 0.2498-0.545 0.6131-0.872 0.1817 0 0.3588-0.018 0.5314-0.054 0.1817-0.045 0.3452-0.068 0.4905-0.068 0.1544 0 0.2907 0.041 0.4088 0.1226 0.1181 0.082 0.2089 0.2453 0.2725 0.4905"/>
   <path id="path4375" d="m53.683 46.229c0.055 0.3542 0.073 0.7176 0.055 1.09-0.01 0.3724-0.032 0.7494-0.068 1.1309-0.027 0.3724-0.064 0.7449-0.109 1.1173-0.036 0.3724-0.054 0.7358-0.054 1.09 0.1 0.1091 0.218 0.1953 0.3543 0.2589 0.1362 0.064 0.2679 0.1272 0.3951 0.1908 0.1272 0.064 0.2316 0.1408 0.3134 0.2316 0.091 0.082 0.1362 0.1953 0.1362 0.3407-0.1 0.045-0.1998 0.073-0.2997 0.082-0.091 0.01-0.1908 0.014-0.2998 0.014-0.1 0-0.1998 0-0.2997 0.014-0.1 0-0.1999 0.023-0.2998 0.068 0 0.2543-0.01 0.5314-0.027 0.8311-0.018 0.2998-0.036 0.6086-0.054 0.9266-0.01 0.3088-0.014 0.6268-0.014 0.9538 0.01 0.3179 0.041 0.6313 0.095 0.9401-0.2089 0.091-0.3815 0.1363-0.5178 0.1363-0.1362 0-0.3043-0.045-0.5041-0.1363-0.1454-0.3633-0.2316-0.6994-0.2589-1.0083-0.018-0.3088-0.014-0.6086 0.014-0.8993 0.027-0.2906 0.055-0.5768 0.082-0.8584 0.027-0.2815 0.014-0.5768-0.041-0.8856-0.064-0.1-0.1499-0.159-0.2589-0.1771-0.1-0.027-0.2135-0.032-0.3406-0.014-0.1272 0.01-0.2634 0.027-0.4088 0.055-0.1362 0.018-0.268 0.023-0.3951 0.014-0.1272-0.01-0.2453-0.046-0.3543-0.1091-0.1-0.073-0.1817-0.1952-0.2452-0.3678-0.055-0.1454-0.05-0.2589 0.014-0.3407 0.064-0.082 0.1544-0.1408 0.2725-0.1771 0.1272-0.045 0.2725-0.068 0.436-0.068 0.1635-0.01 0.3225-0.014 0.4769-0.014h0.8039l0.4224-4.6463c0-0.2997 0.05-0.4723 0.1499-0.5177 0.1-0.054 0.2089-0.041 0.327 0.041 0.1272 0.073 0.2407 0.1863 0.3406 0.3407 0.109 0.1453 0.1635 0.2634 0.1635 0.3542"/>
   <path id="path4377" d="m60.356 51.257c0.2362 0.6267 0.3452 1.1945 0.327 1.7032-0.018 0.5086-0.218 1.0128-0.5995 1.5124-0.4905 0.4905-1.031 0.8084-1.6215 0.9538-0.5904 0.1453-1.199 0.1498-1.8258 0.014-0.1271-0.055-0.2407-0.1226-0.3406-0.2044-0.091-0.091-0.1817-0.1907-0.2725-0.2997-0.091-0.109-0.1862-0.2226-0.2862-0.3407-0.091-0.1181-0.1953-0.2407-0.3133-0.3679-0.073-0.2452-0.109-0.5177-0.109-0.8175s0.032-0.595 0.095-0.8857c0.064-0.2997 0.1545-0.5813 0.2725-0.8447 0.1181-0.2635 0.268-0.486 0.4497-0.6677 0.3088-0.436 0.6676-0.7585 1.0764-0.9674 0.4088-0.218 0.813-0.3179 1.2127-0.2998 0.4087 0.01 0.7857 0.1408 1.1309 0.3952 0.3452 0.2452 0.6131 0.6177 0.8039 1.1173m-1.2536 0.981c0.055-0.1272 0.059-0.2589 0.014-0.3951-0.045-0.1363-0.1227-0.2408-0.2317-0.3134-0.109-0.082-0.2361-0.1136-0.3815-0.095-0.1362 0.018-0.2725 0.1181-0.4087 0.2998-0.1-0.1181-0.2181-0.1363-0.3543-0.055-0.1272 0.082-0.2498 0.1907-0.3679 0.327-0.054 0.1271-0.1363 0.2679-0.2453 0.4224-0.1 0.1453-0.1907 0.3043-0.2725 0.4769-0.082 0.1725-0.1317 0.3497-0.1498 0.5313-0.01 0.1817 0.045 0.3679 0.1635 0.5587h1.2263c0.3815-0.1363 0.6449-0.3679 0.7902-0.6949 0.1454-0.3361 0.218-0.6904 0.218-1.0628"/>
   <path id="path4379" d="m74.006 43.64c0.1453 0.3543 0.2362 0.754 0.2725 1.199 0.045 0.4361 0.064 0.8903 0.055 1.3626 0 0.4633-0.014 0.9356-0.041 1.4171-0.027 0.4723-0.041 0.922-0.041 1.3489-0.1999 0.4996-0.2953 0.9992-0.2862 1.4988 0.01 0.4905 0.045 0.981 0.109 1.4715 0.073 0.4906 0.1408 0.9811 0.2044 1.4716 0.064 0.4905 0.055 0.9856-0.027 1.4852-0.3361 0.2089-0.6768 0.3542-1.022 0.436-0.3451 0.082-0.7039 0.1226-1.0764 0.1226-0.3633 0-0.7448-0.027-1.1445-0.082-0.3906-0.064-0.7994-0.1317-1.2263-0.2044-0.1453-0.1453-0.3179-0.2907-0.5178-0.436-0.1907-0.1454-0.3815-0.2998-0.5722-0.4633-0.1908-0.1635-0.3679-0.3315-0.5314-0.5041-0.1635-0.1817-0.2816-0.377-0.3543-0.5859v-0.6541c0.01-0.2361 0.032-0.4678 0.068-0.6949 0.036-0.2361 0.091-0.4587 0.1635-0.6676 0.073-0.2089 0.1772-0.3861 0.3134-0.5314 0.2089-0.1998 0.436-0.3543 0.6813-0.4633 0.2453-0.1181 0.4905-0.1998 0.7358-0.2452 0.2452-0.054 0.4859-0.086 0.7221-0.095 0.2453-0.01 0.4724-0.014 0.6813-0.014 0.1362 0 0.2861 0.054 0.4496 0.1635 0.1635 0.109 0.3134 0.1998 0.4497 0.2725 0.1453 0.073 0.2634 0.091 0.3542 0.054 0.1-0.036 0.1499-0.1999 0.1499-0.4905l0.3407-6.1724c0.064-0.2089 0.1453-0.3406 0.2452-0.3951 0.1-0.064 0.1999-0.077 0.2998-0.041 0.1 0.036 0.1953 0.1 0.2861 0.1907 0.1 0.082 0.1862 0.1636 0.2589 0.2453m-1.7304 8.7339c-0.1363-0.218-0.3316-0.4042-0.5859-0.5586-0.2453-0.1635-0.4996-0.2725-0.7631-0.327-0.2543-0.055-0.4905-0.041-0.7085 0.041s-0.3633 0.2589-0.436 0.5314c-0.1272 0.1544-0.1908 0.3451-0.1908 0.5722s0.064 0.4088 0.1908 0.5451c0.436 0.2906 0.8584 0.5041 1.2672 0.6404 0.4178 0.1271 0.8266 0.1907 1.2263 0.1907v-1.635"/>
   <path id="path4381" d="m79.703 51.257c0.2362 0.6267 0.3452 1.1945 0.3271 1.7032-0.018 0.5086-0.2181 1.0128-0.5996 1.5124-0.4905 0.4905-1.031 0.8084-1.6214 0.9538-0.5904 0.1453-1.199 0.1498-1.8258 0.014-0.1272-0.055-0.2407-0.1226-0.3407-0.2044-0.091-0.091-0.1816-0.1907-0.2725-0.2997-0.091-0.109-0.1862-0.2226-0.2861-0.3407-0.091-0.1181-0.1953-0.2407-0.3134-0.3679-0.073-0.2452-0.109-0.5177-0.109-0.8175s0.032-0.595 0.095-0.8857c0.064-0.2997 0.1544-0.5813 0.2725-0.8447 0.1181-0.2635 0.268-0.486 0.4496-0.6677 0.3089-0.436 0.6677-0.7585 1.0765-0.9674 0.4087-0.218 0.8129-0.3179 1.2126-0.2998 0.4088 0.01 0.7858 0.1408 1.1309 0.3952 0.3452 0.2452 0.6132 0.6177 0.804 1.1173m-1.2536 0.981c0.054-0.1272 0.059-0.2589 0.014-0.3951-0.045-0.1363-0.1226-0.2408-0.2316-0.3134-0.109-0.082-0.2362-0.1136-0.3815-0.095-0.1363 0.018-0.2725 0.1181-0.4088 0.2998-0.1-0.1181-0.218-0.1363-0.3542-0.055-0.1272 0.082-0.2498 0.1907-0.3679 0.327-0.055 0.1271-0.1363 0.2679-0.2453 0.4224-0.1 0.1453-0.1908 0.3043-0.2725 0.4769-0.082 0.1725-0.1317 0.3497-0.1499 0.5313-0.01 0.1817 0.045 0.3679 0.1635 0.5587h1.2263c0.3815-0.1363 0.645-0.3679 0.7903-0.6949 0.1453-0.3361 0.218-0.6904 0.218-1.0628"/>
  </g>
  <path id="path4055" d="m56 56v30.094c3.2698 0.01 7.6334 0.031 10.031 0.031 4.1951 0 4.9357-1.4379 14.125-9.6562 8.326-7.4464 9.8437-8.725 9.8437-14.469v-6z" fill="url(#radialGradient4085)"/>
  <path id="path3254" d="m89.219 66.844c-1.0103 1.5063-4.9079 1.3336-9.9375 1.2812-4.7128-0.049-9.2813-0.125-9.2813-0.125s0.059 4.4033 0 8.8438c-0.071 5.3867 0.1116 8.198-1.4375 8.9687 0.05-0.015 0.1066-0.015 0.1563-0.031 2.4125-0.7886 4.5455-3.1488 11.438-9.3125 5.4081-4.8368 7.9494-7.0788 9.0625-9.625z" fill="url(#linearGradient4044)"/>
  <path id="path4046" d="m89.219 66.844c-1.0103 1.5063-4.9079 1.3336-9.9375 1.2812-4.7128-0.049-9.2813-0.125-9.2813-0.125s0.059 4.4033 0 8.8438c-0.071 5.3867 0.1116 8.198-1.4375 8.9687 0.05-0.015 0.1066-0.015 0.1563-0.031 0.6563-0.2146 1.3147-0.5391 2.0312-1.0313 0.2664-1.4955 0.2084-3.7513 0.25-6.9062 0.059-4.4405 0-8.8438 0-8.8438s4.5685 0.076 9.2813 0.125c3.1275 0.033 5.8261 0.1195 7.6562-0.1875 0.5494-0.712 0.9761-1.3958 1.2813-2.0937z" fill="#fff" opacity=".1"/>
  <path id="rect4377" d="m12 6c-3.324 0-6 2.676-6 6v72c0 3.324 2.676 6 6 6h72c3.324 0 6-2.676 6-6v-72c0-3.324-2.676-6-6-6zm0 2h72c2.805 0 5 2.195 5 5v70c0 2.805-2.195 5-5 5h-72c-2.805 0-5-2.195-5-5v-70c0-2.805 2.195-5 5-5z" fill="url(#linearGradient4390)" opacity=".3"/>
 </g>
 <g id="layer5">
  <rect id="rect3171" x="15" y="15" width="66" height="66" rx="12" ry="12" clip-path="url(#clipPath4355)" fill="url(#linearGradient3613)" filter="url(#filter3794)" opacity=".1" stroke="#fff" stroke-linecap="round" stroke-width=".5"/>
 </g>
 <g id="layer6">
  <path id="path3589" transform="matrix(.71418 .12539 -.12539 .71418 2.6569 -15.448)" d="m118.38 11.031c-0.52336-0.06895-1.0579-0.0102-1.5625 0.125-1.0064 0.26967-1.8855 0.91897-2.4375 1.875l-2.0625 3.5625a1.0492 1.0492 0 0 0-0.84375 0.53125l-9.5 16.469-36 62.344a1.0492 1.0492 0 0 0-0.09375 0.25l-6.375 24.031a1.0492 1.0492 0 0 0 1.75 1.0312l17.625-17.531a1.0492 1.0492 0 0 0 0.15625-0.21875l36-62.344 9.5-16.469a1.0492 1.0492 0 0 0 0.0625-0.90625l2.0938-3.625c1.1113-1.9248 0.4576-4.4191-1.4688-5.5312l-5.3125-3.0625c-0.47927-0.2767-1.0079-0.4623-1.5312-0.53125z" fill="url(#linearGradient3593)" filter="url(#filter3963)" opacity=".3"/>
  <path id="path3712" transform="matrix(.62741 .3635 -.3635 .62741 36.873 -19.139)" d="m118.38 11.031c-0.52336-0.06895-1.0579-0.0102-1.5625 0.125-1.0064 0.26967-1.8855 0.91897-2.4375 1.875l-2.0625 3.5625a1.0492 1.0492 0 0 0-0.84375 0.53125l-9.5 16.469-36 62.344a1.0492 1.0492 0 0 0-0.09375 0.25l-6.375 24.031a1.0492 1.0492 0 0 0 1.75 1.0312l17.625-17.531a1.0492 1.0492 0 0 0 0.15625-0.21875l36-62.344 9.5-16.469a1.0492 1.0492 0 0 0 0.0625-0.90625l2.0938-3.625c1.1113-1.9248 0.4576-4.4191-1.4688-5.5312l-5.3125-3.0625c-0.47927-0.2767-1.0079-0.4623-1.5312-0.53125z" fill="url(#linearGradient3595)" filter="url(#filter3963)" opacity=".5"/>
  <g id="g3643" transform="matrix(-.62795 -.36255 .36255 -.62795 120.29 131.31)">
   <g id="g3537">
    <rect id="rect3483" x="136.91" y="107.49" width="12.116" height="16" rx="3" ry="3" fill="url(#linearGradient3522)" stroke="#df453f" stroke-linejoin="round" stroke-width="1.3791"/>
    <path id="path3493" transform="matrix(1.8857 0 0 1 -123.51 -1.9445)" d="m141.24 118.19a1.5468 3.9775 0 1 1-3.0936 0 1.5468 3.9775 0 1 1 3.0936 0z" fill="#701300" filter="url(#filter3495)" opacity=".3"/>
    <path id="path3499" d="m146.31 113.12c-0.85193 9.5067-3.9375 8.3125-6.5 8.9375 4.0763 0.0625 8.625-0.0625 8.625-0.0625-2.4375-0.5625-1.8125-2.375-2.125-8.875z" fill="#fff" fill-rule="evenodd" filter="url(#filter3509)" opacity=".8"/>
    <rect id="rect3525" x="136.41" y="115.97" width="12.119" height="1" fill="url(#linearGradient3524)" opacity=".2"/>
   </g>
   <g id="g3311" transform="translate(23.733)">
    <path id="rect2480" d="m112.77 24.5 6.5-24 6.5 24v72h-13v-72z" fill="url(#linearGradient3526)" stroke="url(#linearGradient3528)" stroke-linejoin="round" stroke-width="1.3791"/>
    <path id="path3272" d="m117.69 8.0717 3.1426 0.022097-1.5824-5.7913" fill="url(#linearGradient3530)" fill-rule="evenodd"/>
    <path id="path3274" d="m117.73 8.0902-3.7676 13.91s-0.46779 1.6535-0.698 2.6083c-0.19122 0.64228 1.9589 1.6113 3.0182-1.6083 1.2153 4.5138 5.5759 3.438 5.9883 0.01105 0.3425 1.7015 1.754 2.95 2.9886 1.5219-0.23478-0.90874-0.43641-1.5219-0.43641-1.5219l-4.0217-14.921h-3.0715z" fill="url(#linearGradient3532)" fill-rule="evenodd"/>
    <path id="path3294" d="m122.37 96.305v-67.217" fill="none" opacity=".5" stroke="url(#linearGradient3534)" stroke-width="1.3791px"/>
    <path id="path3304" d="m116.25 96.305v-67.217" fill="none" opacity=".5" stroke="url(#linearGradient3536)" stroke-width="1.3791px"/>
    <path id="path3372" d="m118.7 5.9799-4.773 17.899 1.9887-0.83969 2.7842-17.059z" fill="#ac4311" fill-rule="evenodd" filter="url(#filter3382)" opacity=".4"/>
    <path id="path3386" d="m113.08 24.625s1.4867 1.7649 3.25-1.5312c2 5.25 5.1686 2.0871 5.9375-0.03125 1.375 3.4375 3.125 1.4375 3.125 1.4375" fill="none" opacity=".15" stroke="#4d2600" stroke-width="1.3791px"/>
    <path id="path3388" transform="matrix(1.1224 0 0 1.345 -41.703 -4.7709)" d="m144.06 8.9375-0.375 12.5 3.0625-0.3125-2.6875-12.188z" fill="#fff" fill-rule="evenodd" filter="url(#filter3390)" opacity=".8"/>
   </g>
   <g id="g3620">
    <rect id="rect3333" x="136.5" y="96.5" width="13" height="19" fill="url(#linearGradient3538)" stroke="url(#linearGradient3540)" stroke-linejoin="round" stroke-width="1.3791"/>
    <rect id="rect3337" x="137" y="100" width="12" height="1" fill="url(#linearGradient3542)" opacity=".4"/>
    <rect id="rect3351" x="137" y="101" width="12" height="1" fill="url(#linearGradient3544)" opacity=".6"/>
    <rect id="rect3369" x="137" y="102" width="12" height="1" fill="url(#linearGradient3546)" opacity=".4"/>
    <rect id="rect3371" x="137" y="103" width="12" height="1" fill="url(#linearGradient3548)" opacity=".6"/>
    <rect id="rect3379" x="137" y="108" width="12" height="1" fill="url(#linearGradient3550)" opacity=".4"/>
    <rect id="rect3381" x="137" y="109" width="12" height="1" fill="url(#linearGradient3552)" opacity=".6"/>
    <rect id="rect3385" x="137" y="110" width="12" height="1" fill="url(#linearGradient3554)" opacity=".4"/>
    <rect id="rect3387" x="137" y="111" width="12" height="1" fill="url(#linearGradient3556)" opacity=".6"/>
    <rect id="rect3437" x="137" y="104" width="12" height="4" fill="url(#linearGradient3558)" opacity=".3"/>
    <path id="path3449" transform="matrix(1.2554 0 0 1 -35.754 0)" d="m140 106.08a1.1013 8.3969 0 1 1-2.2026 0 1.1013 8.3969 0 1 1 2.2026 0z" filter="url(#filter3451)" opacity=".6"/>
    <path id="path3455" d="m147.34 106.04a1.1932 8.0875 0 1 1-2.3865 0 1.1932 8.0875 0 1 1 2.3865 0z" fill="#fff" filter="url(#filter3457)" opacity=".8"/>
   </g>
  </g>
 </g>
</svg>
