<?xml version="1.0" encoding="UTF-8"?>
<!-- Created with Inkscape (http://www.inkscape.org/) -->
<svg id="svg2408" width="96" height="96" version="1.0" xmlns="http://www.w3.org/2000/svg" xmlns:cc="http://creativecommons.org/ns#" xmlns:dc="http://purl.org/dc/elements/1.1/" xmlns:rdf="http://www.w3.org/1999/02/22-rdf-syntax-ns#" xmlns:xlink="http://www.w3.org/1999/xlink">
 <defs id="defs2410">
  <linearGradient id="ButtonShadow" x1="45.448" x2="45.448" y1="92.54" y2="7.0165" gradientTransform="scale(1.0059 .99417)" gradientUnits="userSpaceOnUse">
   <stop id="stop3750" offset="0"/>
   <stop id="stop3752" stop-opacity=".58824" offset="1"/>
  </linearGradient>
  <linearGradient id="linearGradient3737">
   <stop id="stop3739" stop-color="#fefefe" offset="0"/>
   <stop id="stop3741" stop-color="#fefefe" stop-opacity="0" offset="1"/>
  </linearGradient>
  <filter id="filter3174" color-interpolation-filters="sRGB">
   <feGaussianBlur id="feGaussianBlur3176" stdDeviation="1.71"/>
  </filter>
  <linearGradient id="linearGradient3188" x1="36.357" x2="36.357" y1="6" y2="63.893" gradientUnits="userSpaceOnUse" xlink:href="#linearGradient3737"/>
  <filter id="filter3794" x="-.192" y="-.192" width="1.384" height="1.384" color-interpolation-filters="sRGB">
   <feGaussianBlur id="feGaussianBlur3796" stdDeviation="5.28"/>
  </filter>
  <linearGradient id="linearGradient3613" x1="48" x2="48" y1="20.221" y2="138.66" gradientUnits="userSpaceOnUse" xlink:href="#linearGradient3737"/>
  <radialGradient id="radialGradient3619" cx="48" cy="90.172" r="42" gradientTransform="matrix(1.1573 0 0 .99591 -7.551 .19713)" gradientUnits="userSpaceOnUse" xlink:href="#linearGradient3737"/>
  <clipPath id="clipPath3613">
   <rect id="rect3615" x="6" y="6" width="84" height="84" rx="6" ry="6" fill="#fefefe"/>
  </clipPath>
  <linearGradient id="linearGradient3617" x1="48" x2="48" y1="90" y2="5.9877" gradientTransform="translate(0,-96)" gradientUnits="userSpaceOnUse">
   <stop id="stop4035" stop-color="#d9cce6" offset="0"/>
   <stop id="stop4037" stop-color="#a895b9" offset="1"/>
  </linearGradient>
  <linearGradient id="ButtonShadow-0" x1="45.448" x2="45.448" y1="92.54" y2="7.0165" gradientTransform="matrix(1.0059 0 0 .99417 100 0)" gradientUnits="userSpaceOnUse">
   <stop id="stop3750-8" offset="0"/>
   <stop id="stop3752-5" stop-opacity=".58824" offset="1"/>
  </linearGradient>
  <linearGradient id="linearGradient3780" x1="32.251" x2="32.251" y1="6.1317" y2="90.239" gradientTransform="matrix(1.0238 0 0 1.0119 -1.1429 -98.071)" gradientUnits="userSpaceOnUse" xlink:href="#ButtonShadow-0"/>
  <linearGradient id="linearGradient3721" x1="32.251" x2="32.251" y1="6.1317" y2="90.239" gradientTransform="translate(0,-97)" gradientUnits="userSpaceOnUse" xlink:href="#ButtonShadow-0"/>
  <linearGradient id="path2536-6_1_" x1="390.42" x2="390.42" y1="-68.191" y2="53.156" gradientTransform="matrix(1 0 0 -1.0679 -116.93 158.81)" gradientUnits="userSpaceOnUse">
   <stop id="stop6" stop-color="#482957" offset="0"/>
   <stop id="stop8" stop-color="#C19ED3" offset="1"/>
  </linearGradient>
 </defs>
 <metadata id="metadata2413">
  <rdf:RDF>
   <cc:Work rdf:about="">
    <dc:format>image/svg+xml</dc:format>
    <dc:type rdf:resource="http://purl.org/dc/dcmitype/StillImage"/>
    <dc:title/>
   </cc:Work>
  </rdf:RDF>
 </metadata>
 <g id="layer2" display="none">
  <rect id="rect3745" x="5" y="7" width="86" height="85" rx="6" ry="6" fill="url(#ButtonShadow)" filter="url(#filter3174)" opacity=".9"/>
 </g>
 <g id="layer3">
  <path id="path3786" transform="scale(1,-1)" d="m12-95.031c-5.5111 0-10.031 4.5202-10.031 10.031v71c0 5.5111 4.5202 10.031 10.031 10.031h72c5.5111 0 10.031-4.5202 10.031-10.031v-71c0-5.5111-4.5202-10.031-10.031-10.031h-72z" fill="url(#linearGradient3780)" opacity=".08"/>
  <path id="path3778" transform="scale(1,-1)" d="m12-94.031c-4.9716 0-9.0312 4.0596-9.0312 9.0312v71c0 4.9716 4.0596 9.0312 9.0312 9.0312h72c4.9716 0 9.0312-4.0596 9.0312-9.0312v-71c0-4.9716-4.0596-9.0312-9.0312-9.0312h-72z" fill="url(#linearGradient3780)" opacity=".1"/>
  <path id="path3770" transform="scale(1,-1)" d="m12-93c-4.4091 0-8 3.5909-8 8v71c0 4.4091 3.5909 8 8 8h72c4.4091 0 8-3.5909 8-8v-71c0-4.4091-3.5909-8-8-8h-72z" fill="url(#linearGradient3780)" opacity=".2"/>
  <rect id="rect3723" transform="scale(1,-1)" x="5" y="-92" width="86" height="85" rx="7" ry="7" fill="url(#linearGradient3780)" opacity=".3"/>
  <rect id="rect3716" transform="scale(1,-1)" x="6" y="-91" width="84" height="84" rx="6" ry="6" fill="url(#linearGradient3721)" opacity=".45"/>
 </g>
 <g id="layer1">
  <rect id="rect2419" transform="scale(1,-1)" x="6" y="-90" width="84" height="84" rx="6" ry="6" fill="url(#linearGradient3617)"/>
  <path id="rect3728" d="m12 6c-3.324 0-6 2.676-6 6v2 68 2c0 0.33472 0.04135 0.6507 0.09375 0.96875 0.0487 0.2956 0.09704 0.59692 0.1875 0.875 0.00988 0.03038 0.020892 0.0636 0.03125 0.09375 0.098865 0.28777 0.23488 0.54745 0.375 0.8125 0.14459 0.27351 0.31562 0.53562 0.5 0.78125s0.37378 0.47347 0.59375 0.6875c0.43995 0.42806 0.94291 0.81453 1.5 1.0938 0.27854 0.13961 0.57347 0.24695 0.875 0.34375-0.2562-0.10022-0.48671-0.23627-0.71875-0.375-0.00741-0.0044-0.023866 0.0045-0.03125 0-0.031933-0.0193-0.062293-0.04251-0.09375-0.0625-0.1204-0.0767-0.23102-0.16351-0.34375-0.25-0.10617-0.0808-0.21328-0.16111-0.3125-0.25-0.17793-0.16143-0.34746-0.34539-0.5-0.53125-0.10758-0.13026-0.21839-0.26528-0.3125-0.40625-0.025089-0.03838-0.038446-0.08587-0.0625-0.125-0.064763-0.10303-0.13023-0.20452-0.1875-0.3125-0.10101-0.19471-0.20567-0.4157-0.28125-0.625-0.00796-0.02181-0.023589-0.04055-0.03125-0.0625-0.031825-0.09195-0.035804-0.18683-0.0625-0.28125-0.030332-0.10662-0.070389-0.20303-0.09375-0.3125-0.072879-0.34151-0.125-0.6982-0.125-1.0625v-2-68-2c0-2.7818 2.2182-5 5-5h2 68 2c2.7818 0 5 2.2182 5 5v2 68 2c0 0.3643-0.05212 0.72099-0.125 1.0625-0.04415 0.20689-0.08838 0.39766-0.15625 0.59375-0.0077 0.02195-0.0233 0.04069-0.03125 0.0625-0.06274 0.17374-0.13838 0.36745-0.21875 0.53125-0.04158 0.0828-0.07904 0.16995-0.125 0.25-0.0546 0.09721-0.12677 0.18835-0.1875 0.28125-0.09411 0.14096-0.20492 0.276-0.3125 0.40625-0.14317 0.17445-0.30314 0.347-0.46875 0.5-0.01117 0.0102-0.01998 0.02115-0.03125 0.03125-0.13839 0.12556-0.28509 0.23444-0.4375 0.34375-0.10257 0.07315-0.20432 0.15336-0.3125 0.21875-0.0074 0.0045-0.02384-0.0044-0.03125 0-0.23204 0.13873-0.46255 0.27478-0.71875 0.375 0.30153-0.0968 0.59646-0.20414 0.875-0.34375 0.55709-0.27922 1.0601-0.66569 1.5-1.0938 0.21997-0.21403 0.40937-0.44186 0.59375-0.6875s0.35541-0.50774 0.5-0.78125c0.14012-0.26505 0.27614-0.52473 0.375-0.8125 0.01041-0.03078 0.02133-0.06274 0.03125-0.09375 0.09046-0.27808 0.1388-0.5794 0.1875-0.875 0.0524-0.31805 0.09375-0.63403 0.09375-0.96875v-2-68-2c0-3.324-2.676-6-6-6h-72z" fill="url(#linearGradient3188)" opacity=".5"/>
  <path id="path3615" d="m12 90c-3.324 0-6-2.676-6-6v-2-68-2c0-0.33472 0.04135-0.6507 0.09375-0.96875 0.0487-0.2956 0.09704-0.59692 0.1875-0.875 0.00988-0.03038 0.020892-0.0636 0.03125-0.09375 0.098865-0.28777 0.23488-0.54745 0.375-0.8125 0.14459-0.27351 0.31562-0.53562 0.5-0.78125s0.37378-0.47347 0.59375-0.6875c0.43995-0.42806 0.94291-0.81453 1.5-1.0938 0.27854-0.13961 0.57347-0.24695 0.875-0.34375-0.2562 0.10022-0.48671 0.23627-0.71875 0.375-0.00741 0.0044-0.023866-0.0045-0.03125 0-0.031933 0.0193-0.062293 0.04251-0.09375 0.0625-0.1204 0.0767-0.23102 0.16351-0.34375 0.25-0.10617 0.0808-0.21328 0.16111-0.3125 0.25-0.17793 0.16143-0.34746 0.34539-0.5 0.53125-0.10758 0.13026-0.21839 0.26528-0.3125 0.40625-0.025089 0.03838-0.038446 0.08587-0.0625 0.125-0.064763 0.10303-0.13023 0.20452-0.1875 0.3125-0.10101 0.19471-0.20567 0.4157-0.28125 0.625-0.00796 0.02181-0.023589 0.04055-0.03125 0.0625-0.031825 0.09195-0.035804 0.18683-0.0625 0.28125-0.030332 0.10662-0.070389 0.20303-0.09375 0.3125-0.072879 0.34151-0.125 0.6982-0.125 1.0625v2 68 2c0 2.7818 2.2182 5 5 5h2 68 2c2.7818 0 5-2.2182 5-5v-2-68-2c0-0.3643-0.05212-0.72099-0.125-1.0625-0.04415-0.20689-0.08838-0.39766-0.15625-0.59375-0.0077-0.02195-0.0233-0.04069-0.03125-0.0625-0.06274-0.17374-0.13838-0.36745-0.21875-0.53125-0.04158-0.0828-0.07904-0.16995-0.125-0.25-0.0546-0.09721-0.12677-0.18835-0.1875-0.28125-0.09411-0.14096-0.20492-0.276-0.3125-0.40625-0.14317-0.17445-0.30314-0.347-0.46875-0.5-0.01117-0.0102-0.01998-0.02115-0.03125-0.03125-0.13839-0.12556-0.28509-0.23444-0.4375-0.34375-0.10257-0.07315-0.20432-0.15336-0.3125-0.21875-0.0074-0.0045-0.02384 0.0044-0.03125 0-0.23204-0.13873-0.46255-0.27478-0.71875-0.375 0.30153 0.0968 0.59646 0.20414 0.875 0.34375 0.55709 0.27922 1.0601 0.66569 1.5 1.0938 0.21997 0.21403 0.40937 0.44186 0.59375 0.6875s0.35541 0.50774 0.5 0.78125c0.14012 0.26505 0.27614 0.52473 0.375 0.8125 0.01041 0.03078 0.02133 0.06274 0.03125 0.09375 0.09046 0.27808 0.1388 0.5794 0.1875 0.875 0.0524 0.31805 0.09375 0.63403 0.09375 0.96875v2 68 2c0 3.324-2.676 6-6 6h-72z" fill="url(#radialGradient3619)" opacity=".2"/>
 </g>
 <g id="layer5">
  <rect id="rect3171" x="15" y="15" width="66" height="66" rx="12" ry="12" clip-path="url(#clipPath3613)" fill="url(#linearGradient3613)" filter="url(#filter3794)" opacity=".1" stroke="#fefefe" stroke-linecap="round" stroke-width=".5"/>
 </g>
 <g id="g3060" transform="matrix(.80578 0 0 .68732 -155.38 -73.372)">
  <path id="path2534-7" d="m243.46 135.54 10.996 4.8716c0 2.9858-0.227 12.093 1.521 14.779 18.287 25.152 15.21 75.567-3.705 76.86-28.804 0-39.79-20.895-39.79-40.101 0-17.514 19.661-29.156 31.403-39.505 2.982-2.7872 2.464-8.9445-0.425-16.906z" fill="#fffcdb" stroke-width="1.0334"/>
  <path id="path2536-6" d="m254.45 140.24 3.963 2.1592c-0.372 2.785 0.187 8.9563 2.795 10.547 11.555 7.662 22.457 16.02 26.744 24.38 15.282 29.454-10.717 56.719-33.174 54.132 12.207-9.6525 15.749-29.454 11.183-51.048-1.864-8.4586-4.753-16.121-9.879-24.778-2.22-4.2501-1.445-9.5212-1.632-15.392z" fill="url(#path2536-6_1_)" stroke-width="1.0334"/>
  <g id="g4942" transform="matrix(1.0997 0 0 .93682 41.298 45.921)">
   <path id="path2554-7" d="m197.76 74.04-3.019 11.991c4.277-8.469 11.069-14.842 18.868-20.461-5.702 6.625-10.901 13.25-14.088 19.875 5.367-7.548 12.578-11.74 20.712-14.508-10.817 9.644-19.404 19.992-25.946 30.391l-5.199-2.264c0.923-8.302 4.059-16.805 8.672-25.024z" fill="#abcd03"/>
   <path id="path4724" d="m213.62 65.563c-3.878 4.14-10.59 11.403-14.188 17.75-3.068 5.414-5.173 10.23-6.344 13.469-0.749 2.072-3.782 2.051-2.906-1.375 9e-3 -0.034 0.022-0.059 0.031-0.094 1.168-2.759 2.939-6.611 4.719-10l2.812-11.281c-1.386 4.762-3.372 9.099-4.593 14.031 1e-3 0-2.147 4.934-2.719 6.187-0.195 0.426-0.357 0.836-0.5 1.219-0.01 0.025-0.023 0.039-0.031 0.063-0.243 0.541-0.407 1.133-0.531 1.656-0.02 0.085-0.014 0.137-0.031 0.219-0.161 0.741-0.251 1.312-0.251 1.312 0.874 0.754 5.188 2.625 5.188 2.625 6.541-10.398 15.15-20.763 25.969-30.406-8.135 2.768-15.352 6.952-20.719 14.5 3.187-6.625 8.392-13.251 14.094-19.875z" fill="#437202"/>
   <path id="path4720" d="m193.34 100.64 0.941 0.708c6.541-10.398 15.15-20.763 25.969-30.406-6.205 5.076-14.537 12.069-18.063 16.688-4.459 5.842-1.835 0.354-1.835 0.354s2.362-6.11 6.521-9.943c-2.417 1.154-6.604 6.364-7.342 7.401 0 0-3.145 6.105-4.898 11.626-0.471 1.481-1.293 3.572-1.293 3.572z" fill="#153902"/>
  </g>
  <path id="path4748" d="m251.3 139.01v93.039c0.327 5e-3 0.641 0 0.972 0 18.916-1.2932 22.003-51.719 3.716-76.871-1.748-2.6868-1.528-11.772-1.528-14.759z" fill="#f3ecaa" stroke-width="1.0334"/>
  <g id="layer4-3" transform="matrix(.6823 0 0 .72861 78.405 51.648)">
   <path id="path2538-6" d="m255.23 120.59 12.018 1.639c-3.551 11.745 6.967 19.939 10.381 21.852 7.647 4.234 15.022 8.604 20.896 13.93 11.063 10.106 17.345 24.31 17.345 39.333 0 14.886-6.829 29.226-18.301 38.786-10.789 9.014-25.676 12.838-40.152 12.838-9.014 0-17.072-0.409-25.812-3.277-19.939-6.693-34.826-23.764-36.055-44.25-1.093-15.979 2.458-28.135 14.887-40.836 6.418-6.692 19.393-14.34 28.271-20.486 4.371-3.005 9.014-11.473 0.136-27.451l1.776-1.366 13.156 8.812-11.107-4.578c0.956 1.366 3.551 7.512 4.098 9.287 1.229 5.053 0.683 9.971-0.41 12.155-5.599 10.107-15.159 12.838-22.124 18.574-12.292 10.106-25.676 18.164-24.174 45.889 0.683 13.656 11.336 30.318 27.314 38.104 9.014 4.371 19.394 6.146 29.91 6.691 9.423 0.41 27.451-5.189 37.284-13.384 10.516-8.739 16.389-21.987 16.389-35.508 0-13.658-5.463-26.632-15.706-35.783-5.873-5.326-15.569-11.745-21.577-15.16-6.01-3.414-13.521-12.974-11.063-22.124z"/>
   <path id="path2540-5" d="m251.54 140.8c-1.229 6.283-2.595 17.618-8.058 21.852-2.322 1.638-4.644 3.278-7.102 4.916-9.833 6.693-19.667 12.974-24.173 29.09-0.956 3.414-0.136 7.102 0.684 10.516 2.458 9.833 9.423 20.486 14.886 26.77 0 0.272 1.093 0.955 1.093 1.229 4.507 5.327 5.873 6.829 22.944 10.652l-0.41 1.912c-10.243-2.73-18.71-5.188-24.037-11.336 0-0.136-0.956-1.093-0.956-1.093-5.736-6.556-12.702-17.481-15.296-27.724-0.956-4.098-1.775-7.238-0.683-11.473 4.643-16.662 14.75-23.218 24.993-30.183 2.322-1.502 5.053-2.869 7.238-4.644 4.233-3.138 6.554-12.7 8.877-20.484z"/>
   <path id="path2542-6" d="m255.91 166.75c0.137 7.102-0.557 10.665 1.219 15.719 1.092 3.004 4.782 7.102 5.875 11.063 1.502 5.326 3.139 11.199 3 14.75 0 4.098-0.256 11.742-2.031 19.938-1.354 6.771-4.473 12.581-9.719 15.875-5.373-1.107-11.682-2.996-15.406-6.188-7.238-6.282-13.649-16.787-14.469-25.938-0.682-7.512 6.272-18.589 15.969-24.188 8.194-4.78 10.099-10.228 11.875-18.969-2.457 7.648-4.766 14.059-12.687 18.156-11.472 6.008-17.359 16.096-16.812 25.657 0.819 12.291 5.741 20.619 15.438 27.312 4.097 2.867 11.751 5.898 16.531 6.719v-0.625c3.625-0.68 8.318-6.633 10.656-14.688 2.049-7.238 2.857-16.502 2.719-22.375-0.137-3.414-1.643-10.809-4.375-17.5-1.502-3.688-3.809-7.374-5.312-9.969-1.639-2.596-1.651-8.194-2.471-14.749z"/>
   <path id="path2544-3" d="m255.09 193.53c0.137 4.779 2.057 10.904 2.875 17.188 0.684 4.644 0.387 9.308 0.25 13.406-0.135 4.742-1.715 13.242-3.875 17.375-2.037-0.935-2.832-2-4.156-3.719-1.638-2.322-2.75-4.645-3.843-7.375-0.819-2.049-1.777-4.395-2.188-7.125-0.546-4.098-0.393-10.507 4.25-17.062 3.55-5.19 4.365-5.586 5.593-11.594-1.64 5.326-2.862 5.869-6.687 10.375-4.233 4.916-4.938 12.158-4.938 18.031 0 2.459 0.98 5.187 1.938 7.781 1.092 2.731 2.029 5.451 3.531 7.5 2.257 3.32 5.148 5.209 6.562 5.562 0.01 2e-3 0.022-3e-3 0.031 0 0.031 7e-3 0.064 0.025 0.094 0.031v-0.156c2.65-2.955 4.244-5.89 4.781-8.844 0.684-3.551 0.84-7.11 1.25-11.344 0.409-3.551 0.112-8.334-0.844-13.25-1.364-6.145-3.668-12.411-4.624-16.78z"/>
   <path id="path2550-9" d="m255.5 135.06c0.137 7.101 0.682 20.35 2.594 25.539 0.547 1.775 5.6 9.56 9.149 18.983 2.459 6.556 3.005 12.564 3.415 14.34 1.639 7.785-0.41 20.896-3.143 33.324-1.364 6.691-6.008 15.023-11.334 18.301l-1.092 1.912c3.004-0.137 10.379-7.375 12.974-16.389 4.37-15.297 6.146-22.398 4.098-39.334-0.272-1.64-0.956-7.237-3.551-13.248-3.824-9.151-9.287-17.891-9.97-19.667-1.228-2.866-2.867-15.294-3.14-23.761z"/>
   <path id="path2552-4" d="m258.06 125.35c-0.406 7.298-0.514 9.986 0.851 15.312 1.503 5.873 9.151 14.34 12.292 24.037 6.01 18.574 4.508 42.884 0.137 61.867-1.639 6.691-9.424 16.39-17.209 19.529l5.736 1.366c3.141-0.138 11.198-7.647 14.34-16.252 5.053-13.521 6.01-29.636 3.961-46.571-0.138-1.639-2.869-16.252-5.464-22.398-3.688-9.15-10.243-17.345-10.926-19.119-1.228-3.006-3.927-9.244-3.718-17.771z"/>
   <path id="rect2556-8" d="m253.72 120.22c0.06-6e-3 0.119 3.265 0.168 9.562 0.048 6.297 0.086 15.614 0.106 27.251 0.021 11.637 0.026 25.584 0.018 40.798-0.01 15.215-0.033 31.684-0.063 48.18h0.094c0-15.527 5e-3 -31.045 0.016-45.526 0.01-14.481 0.024-27.917 0.044-39.414s0.041-21.049 0.066-28.013 0.053-11.337 0.081-12.816c-0.347 7e-3 -0.531-8e-3 -0.53-0.022-1e-3 -0.014 0.183-0.028 0.571-0.021 0.029 1.424 0.057 5.75 0.081 12.697 0.025 6.947 0.048 16.511 0.067 28.057 0.019 11.545 0.033 25.065 0.043 39.65 0.011 14.585 0.016 30.226 0.016 45.865h-1.006c-0.03-16.556-0.055-33.097-0.063-48.376-0.01-15.279-5e-3 -29.284 0.017-40.963 0.021-11.679 0.059-21.022 0.107-27.332 0.049-6.311 0.108-9.583 0.167-9.577z"/>
  </g>
 </g>
</svg>
