<?xml version="1.0" encoding="UTF-8"?>
<svg id="svg2408" width="96" height="96" version="1.0" xmlns="http://www.w3.org/2000/svg" xmlns:cc="http://creativecommons.org/ns#" xmlns:dc="http://purl.org/dc/elements/1.1/" xmlns:rdf="http://www.w3.org/1999/02/22-rdf-syntax-ns#" xmlns:xlink="http://www.w3.org/1999/xlink">
 <defs id="defs2410">
  <linearGradient id="ButtonShadow" x1="45.448" x2="45.448" y1="92.54" y2="7.0165" gradientTransform="scale(1.0059 .99417)" gradientUnits="userSpaceOnUse">
   <stop id="stop3750" offset="0"/>
   <stop id="stop3752" stop-opacity=".58824" offset="1"/>
  </linearGradient>
  <linearGradient id="linearGradient3737">
   <stop id="stop3739" stop-color="#fefefe" offset="0"/>
   <stop id="stop3741" stop-color="#fefefe" stop-opacity="0" offset="1"/>
  </linearGradient>
  <filter id="filter3174" color-interpolation-filters="sRGB">
   <feGaussianBlur id="feGaussianBlur3176" stdDeviation="1.71"/>
  </filter>
  <linearGradient id="linearGradient3188" x1="36.357" x2="36.357" y1="6" y2="63.893" gradientUnits="userSpaceOnUse" xlink:href="#linearGradient3737"/>
  <filter id="filter3794" x="-.192" y="-.192" width="1.384" height="1.384" color-interpolation-filters="sRGB">
   <feGaussianBlur id="feGaussianBlur3796" stdDeviation="5.28"/>
  </filter>
  <linearGradient id="linearGradient3613" x1="48" x2="48" y1="20.221" y2="138.66" gradientUnits="userSpaceOnUse" xlink:href="#linearGradient3737"/>
  <radialGradient id="radialGradient3619" cx="48" cy="90.172" r="42" gradientTransform="matrix(1.1573 0 0 .99591 -7.551 .19713)" gradientUnits="userSpaceOnUse" xlink:href="#linearGradient3737"/>
  <clipPath id="clipPath3613">
   <rect id="rect3615" x="6" y="6" width="84" height="84" rx="6" ry="6" fill="#fefefe"/>
  </clipPath>
  <linearGradient id="linearGradient3617" x1="48" x2="48" y1="90" y2="5.9877" gradientUnits="userSpaceOnUse">
   <stop id="stop4859" stop-color="#2671d0" offset="0"/>
   <stop id="stop4861" stop-color="#42b4da" offset="1"/>
  </linearGradient>
  <linearGradient id="ButtonShadow-0" x1="45.448" x2="45.448" y1="92.54" y2="7.0165" gradientTransform="matrix(1.0059 0 0 .99417 100 0)" gradientUnits="userSpaceOnUse">
   <stop id="stop3750-8" offset="0"/>
   <stop id="stop3752-5" stop-opacity=".58824" offset="1"/>
  </linearGradient>
  <linearGradient id="linearGradient3780" x1="32.251" x2="32.251" y1="6.1317" y2="90.239" gradientTransform="matrix(1.0238 0 0 1.0119 -1.1429 -98.071)" gradientUnits="userSpaceOnUse" xlink:href="#ButtonShadow-0"/>
  <linearGradient id="linearGradient3721" x1="32.251" x2="32.251" y1="6.1317" y2="90.239" gradientTransform="translate(0,-97)" gradientUnits="userSpaceOnUse" xlink:href="#ButtonShadow-0"/>
  <linearGradient id="linearGradient3604" x1="36.357" x2="36.357" y1="6" y2="63.893" gradientTransform="rotate(180 47.975 47.93)" gradientUnits="userSpaceOnUse" xlink:href="#linearGradient3737"/>
  <linearGradient id="linearGradient953" x1="151.72" x2="215.7" y1="52.39" y2="49.949" gradientUnits="userSpaceOnUse">
   <stop id="stop947" stop-color="#2166ce" offset="0"/>
   <stop id="stop949" stop-color="#77bafb" stop-opacity=".98195" offset="1"/>
  </linearGradient>
  <linearGradient id="linearGradient953-7" x1="151.72" x2="215.7" y1="52.39" y2="49.949" gradientTransform="matrix(.76053 0 0 .76053 51.067 23.218)" gradientUnits="userSpaceOnUse">
   <stop id="stop979" stop-color="#91c8f3" offset="0"/>
   <stop id="stop981" stop-color="#8bd5fd" offset="1"/>
  </linearGradient>
  <linearGradient id="linearGradient953-7-6" x1="151.72" x2="215.7" y1="52.39" y2="49.949" gradientTransform="matrix(.43459 0 0 .43459 120.09 53.996)" gradientUnits="userSpaceOnUse">
   <stop id="stop1009" stop-color="#d5e3f3" offset="0"/>
   <stop id="stop1011" stop-color="#e2f2fd" offset="1"/>
  </linearGradient>
 </defs>
 <metadata id="metadata2413">
  <rdf:RDF>
   <cc:Work rdf:about="">
    <dc:format>image/svg+xml</dc:format>
    <dc:type rdf:resource="http://purl.org/dc/dcmitype/StillImage"/>
    <dc:title/>
   </cc:Work>
  </rdf:RDF>
 </metadata>
 <g id="layer2" display="none">
  <rect id="rect3745" x="5" y="7" width="86" height="85" rx="6" ry="6" fill="url(#ButtonShadow)" filter="url(#filter3174)" opacity=".9"/>
 </g>
 <g id="layer3">
  <path id="path3786" transform="scale(1,-1)" d="m12-95.031c-5.5111 0-10.031 4.5202-10.031 10.031v71c0 5.5111 4.5202 10.031 10.031 10.031h72c5.5111 0 10.031-4.5202 10.031-10.031v-71c0-5.5111-4.5202-10.031-10.031-10.031h-72z" fill="url(#linearGradient3780)" opacity=".08"/>
  <path id="path3778" transform="scale(1,-1)" d="m12-94.031c-4.9716 0-9.0312 4.0596-9.0312 9.0312v71c0 4.9716 4.0596 9.0312 9.0312 9.0312h72c4.9716 0 9.0312-4.0596 9.0312-9.0312v-71c0-4.9716-4.0596-9.0312-9.0312-9.0312h-72z" fill="url(#linearGradient3780)" opacity=".1"/>
  <path id="path3770" transform="scale(1,-1)" d="m12-93c-4.4091 0-8 3.5909-8 8v71c0 4.4091 3.5909 8 8 8h72c4.4091 0 8-3.5909 8-8v-71c0-4.4091-3.5909-8-8-8h-72z" fill="url(#linearGradient3780)" opacity=".2"/>
  <rect id="rect3723" transform="scale(1,-1)" x="5" y="-92" width="86" height="85" rx="7" ry="7" fill="url(#linearGradient3780)" opacity=".3"/>
  <rect id="rect3716" transform="scale(1,-1)" x="6" y="-91" width="84" height="84" rx="6" ry="6" fill="url(#linearGradient3721)" opacity=".45"/>
 </g>
 <g id="layer1">
  <rect id="rect2419" x="6" y="6" width="84" height="84" rx="6" ry="6" fill="url(#linearGradient3617)"/>
  <path id="path3615" d="m12 90c-3.324 0-6-2.676-6-6v-72c0-0.33472 0.04135-0.6507 0.09375-0.96875 0.0487-0.2956 0.09704-0.59692 0.1875-0.875 0.00988-0.03038 0.020892-0.0636 0.03125-0.09375 0.098865-0.28777 0.23488-0.54745 0.375-0.8125 0.14459-0.27351 0.31562-0.53562 0.5-0.78125s0.37378-0.47347 0.59375-0.6875c0.43995-0.42806 0.94291-0.81453 1.5-1.0938 0.27854-0.13961 0.57347-0.24695 0.875-0.34375-0.2562 0.10022-0.48671 0.23627-0.71875 0.375-0.00741 0.0044-0.023866-0.0045-0.03125 0-0.031933 0.0193-0.062293 0.04251-0.09375 0.0625-0.1204 0.0767-0.23102 0.16351-0.34375 0.25-0.10617 0.0808-0.21328 0.16111-0.3125 0.25-0.17793 0.16143-0.34746 0.34539-0.5 0.53125-0.10758 0.13026-0.21839 0.26528-0.3125 0.40625-0.025089 0.03838-0.038446 0.08587-0.0625 0.125-0.064763 0.10303-0.13023 0.20452-0.1875 0.3125-0.10101 0.19471-0.20567 0.4157-0.28125 0.625-0.00796 0.02181-0.023589 0.04055-0.03125 0.0625-0.031825 0.09195-0.035804 0.18683-0.0625 0.28125-0.030332 0.10662-0.070389 0.20303-0.09375 0.3125-0.072879 0.34151-0.125 0.6982-0.125 1.0625v72c0 2.7818 2.2182 5 5 5h72c2.7818 0 5-2.2182 5-5v-72c0-0.3643-0.05212-0.72099-0.125-1.0625-0.04415-0.20689-0.08838-0.39766-0.15625-0.59375-0.0077-0.02195-0.0233-0.04069-0.03125-0.0625-0.06274-0.17374-0.13838-0.36745-0.21875-0.53125-0.04158-0.0828-0.07904-0.16995-0.125-0.25-0.0546-0.09721-0.12677-0.18835-0.1875-0.28125-0.09411-0.14096-0.20492-0.276-0.3125-0.40625-0.14317-0.17445-0.30314-0.347-0.46875-0.5-0.01117-0.0102-0.01998-0.02115-0.03125-0.03125-0.13839-0.12556-0.28509-0.23444-0.4375-0.34375-0.10257-0.07315-0.20432-0.15336-0.3125-0.21875-0.0074-0.0045-0.02384 0.0044-0.03125 0-0.23204-0.13873-0.46255-0.27478-0.71875-0.375 0.30153 0.0968 0.59646 0.20414 0.875 0.34375 0.55709 0.27922 1.0601 0.66569 1.5 1.0938 0.21997 0.21403 0.40937 0.44186 0.59375 0.6875s0.35541 0.50774 0.5 0.78125c0.14012 0.26505 0.27614 0.52473 0.375 0.8125 0.01041 0.03078 0.02133 0.06274 0.03125 0.09375 0.09046 0.27808 0.1388 0.5794 0.1875 0.875 0.0524 0.31805 0.09375 0.63403 0.09375 0.96875v72c0 3.324-2.676 6-6 6z" fill="url(#radialGradient3619)" opacity=".2"/>
  <path id="rect3728" d="m12 6c-3.324 0-6 2.676-6 6v72c0 0.33472 0.04135 0.6507 0.09375 0.96875 0.0487 0.2956 0.09704 0.59692 0.1875 0.875 0.00988 0.03038 0.020892 0.0636 0.03125 0.09375 0.098865 0.28777 0.23488 0.54745 0.375 0.8125 0.14459 0.27351 0.31562 0.53562 0.5 0.78125s0.37378 0.47347 0.59375 0.6875c0.43995 0.42806 0.94291 0.81453 1.5 1.0938 0.27854 0.13961 0.57347 0.24695 0.875 0.34375-0.2562-0.10022-0.48671-0.23627-0.71875-0.375-0.00741-0.0044-0.023866 0.0045-0.03125 0-0.031933-0.0193-0.062293-0.04251-0.09375-0.0625-0.1204-0.0767-0.23102-0.16351-0.34375-0.25-0.10617-0.0808-0.21328-0.16111-0.3125-0.25-0.17793-0.16143-0.34746-0.34539-0.5-0.53125-0.10758-0.13026-0.21839-0.26528-0.3125-0.40625-0.025089-0.03838-0.038446-0.08587-0.0625-0.125-0.064763-0.10303-0.13023-0.20452-0.1875-0.3125-0.10101-0.19471-0.20567-0.4157-0.28125-0.625-0.00796-0.02181-0.023589-0.04055-0.03125-0.0625-0.031825-0.09195-0.035804-0.18683-0.0625-0.28125-0.030332-0.10662-0.070389-0.20303-0.09375-0.3125-0.072879-0.34151-0.125-0.6982-0.125-1.0625v-72c0-2.7818 2.2182-5 5-5h72c2.7818 0 5 2.2182 5 5v72c0 0.3643-0.05212 0.72099-0.125 1.0625-0.04415 0.20689-0.08838 0.39766-0.15625 0.59375-0.0077 0.02195-0.0233 0.04069-0.03125 0.0625-0.06274 0.17374-0.13838 0.36745-0.21875 0.53125-0.04158 0.0828-0.07904 0.16995-0.125 0.25-0.0546 0.09721-0.12677 0.18835-0.1875 0.28125-0.09411 0.14096-0.20492 0.276-0.3125 0.40625-0.14317 0.17445-0.30314 0.347-0.46875 0.5-0.01117 0.0102-0.01998 0.02115-0.03125 0.03125-0.13839 0.12556-0.28509 0.23444-0.4375 0.34375-0.10257 0.07315-0.20432 0.15336-0.3125 0.21875-0.0074 0.0045-0.02384-0.0044-0.03125 0-0.23204 0.13873-0.46255 0.27478-0.71875 0.375 0.30153-0.0968 0.59646-0.20414 0.875-0.34375 0.55709-0.27922 1.0601-0.66569 1.5-1.0938 0.21997-0.21403 0.40937-0.44186 0.59375-0.6875s0.35541-0.50774 0.5-0.78125c0.14012-0.26505 0.27614-0.52473 0.375-0.8125 0.01041-0.03078 0.02133-0.06274 0.03125-0.09375 0.09046-0.27808 0.1388-0.5794 0.1875-0.875 0.0524-0.31805 0.09375-0.63403 0.09375-0.96875v-72c0-3.324-2.676-6-6-6z" fill="url(#linearGradient3188)" opacity=".5"/>
 </g>
 <g id="g1019" transform="matrix(.69724 0 0 .69724 -72.655 15.172)">
  <path id="path915" d="m199.81 100.01c-16.179-2.8103-52.794-16.08-68.695-24.895-14.063-7.7965-15.32-11.19-7.8319-21.151 5.6156-7.4704 21.159-22.44 34.111-32.852 24.994-20.092 37.974-26.693 42.867-21.801 10.288 10.288 23.903 91.732 17.022 98.455-4.6244 4.842-10.116 3.4359-17.474 2.2437z" fill="#32373c" style="paint-order:fill markers stroke"/>
  <path id="path915-6" d="m197.64 95.753c-14.503-2.5193-48.549-15.206-62.803-23.108-12.607-6.9891-13.877-8.8808-7.1647-17.81 5.0341-6.6968 20.334-20.475 31.945-29.81 22.406-18.012 33.838-25.81 38.225-21.424 9.2228 9.2228 22.445 85.436 16.277 91.463-4.1455 4.3406-9.8822 1.758-16.478 0.68934z" fill="url(#linearGradient953)" stroke-width=".89645"/>
  <path id="path915-6-5" d="m201.37 96.04c-11.03-1.916-36.923-11.564-47.764-17.574-9.5878-5.3154-10.554-6.7541-5.449-13.545 3.8286-5.0931 15.464-15.572 24.295-22.671 17.04-13.698 25.735-19.63 29.071-16.294 7.0142 7.0142 17.07 64.976 12.379 69.56-3.1528 3.3011-7.5157 1.337-12.532 0.52426z" fill="url(#linearGradient953-7)" stroke-width=".68177"/>
  <path id="path915-6-5-1" d="m205.98 95.609c-6.3029-1.0948-21.099-6.6082-27.294-10.042-5.4787-3.0374-6.0308-3.8595-3.1137-7.7401 2.1878-2.9104 8.8368-8.8984 13.883-12.955 9.7374-7.8276 14.706-11.217 16.612-9.3108 4.0081 4.0081 9.7542 37.129 7.0736 39.749-1.8016 1.8864-4.2947 0.76403-7.1613 0.29958z" fill="url(#linearGradient953-7-6)" stroke-width=".38958"/>
 </g>
 <path id="rect3728-6" d="m83.949 89.86c3.324 0 6-2.676 6-6v-72c0-0.33472-0.04135-0.6507-0.09375-0.96875-0.0487-0.2956-0.09704-0.59691-0.1875-0.875-0.0099-0.03038-0.02089-0.0636-0.03125-0.09375-0.09886-0.28777-0.23488-0.54745-0.375-0.8125-0.14459-0.27351-0.31562-0.53562-0.5-0.78125-0.18438-0.24564-0.37378-0.47347-0.59375-0.6875-0.43995-0.42806-0.94291-0.81453-1.5-1.0938-0.27854-0.13961-0.57347-0.24695-0.875-0.34375 0.2562 0.10022 0.48671 0.23627 0.71875 0.375 0.0074 0.0044 0.02387-0.0045 0.03125 0 0.03193 0.0193 0.06229 0.04251 0.09375 0.0625 0.1204 0.0767 0.23102 0.16351 0.34375 0.25 0.10617 0.0808 0.21328 0.16111 0.3125 0.25 0.17793 0.16143 0.34746 0.34539 0.5 0.53125 0.10758 0.13026 0.21839 0.26528 0.3125 0.40625 0.02509 0.03838 0.03845 0.08587 0.0625 0.125 0.06476 0.10303 0.13023 0.20452 0.1875 0.3125 0.10101 0.19471 0.20567 0.4157 0.28125 0.625 8e-3 0.02181 0.02359 0.04055 0.03125 0.0625 0.03182 0.09195 0.0358 0.18683 0.0625 0.28125 0.03033 0.10662 0.07039 0.20303 0.09375 0.3125 0.07288 0.34151 0.125 0.69821 0.125 1.0625v72c0 2.7818-2.2182 5-5 5h-72c-2.7819 0-5-2.2182-5-5v-72c0-0.3643 0.0521-0.72099 0.125-1.0625 0.0442-0.20689 0.0884-0.39766 0.15625-0.59375 8e-3 -0.02195 0.0233-0.04069 0.0312-0.0625 0.0627-0.17374 0.13838-0.36745 0.21875-0.53125 0.0416-0.0828 0.079-0.16995 0.125-0.25 0.0546-0.09721 0.12677-0.18835 0.1875-0.28125 0.0941-0.14096 0.20492-0.276 0.3125-0.40625 0.14317-0.17445 0.30314-0.347 0.46875-0.5 0.0112-0.0102 0.02-0.02115 0.0312-0.03125 0.13838-0.12556 0.28509-0.23444 0.4375-0.34375 0.10257-0.07315 0.20431-0.15336 0.3125-0.21875 7e-3 -0.0045 0.0238 0.0044 0.0312 0 0.23203-0.13873 0.46254-0.27478 0.71875-0.375-0.30153 0.0968-0.59646 0.20414-0.875 0.34375-0.55709 0.27922-1.0601 0.66569-1.5 1.0938-0.21998 0.21403-0.40937 0.44186-0.59375 0.6875-0.18439 0.24564-0.35541 0.50774-0.5 0.78125-0.14012 0.26505-0.27614 0.52473-0.375 0.8125-0.0104 0.03078-0.0213 0.06274-0.0312 0.09375-0.0905 0.27808-0.1388 0.5794-0.1875 0.875-0.0524 0.31805-0.0937 0.63403-0.0937 0.96875v72c0 3.324 2.676 6 6 6z" fill="url(#linearGradient3604)" opacity=".084"/>
 <g id="layer5" transform="translate(8)">
  <rect id="rect3171" transform="translate(-118)" x="15" y="15" width="66" height="66" rx="12" ry="12" clip-path="url(#clipPath3613)" fill="url(#linearGradient3613)" filter="url(#filter3794)" opacity=".1" stroke="#fefefe" stroke-linecap="round" stroke-width=".5"/>
 </g>
</svg>
