<?xml version="1.0" encoding="UTF-8"?>
<svg id="svg136" width="96" height="96" version="1.0" xmlns="http://www.w3.org/2000/svg" xmlns:cc="http://creativecommons.org/ns#" xmlns:dc="http://purl.org/dc/elements/1.1/" xmlns:rdf="http://www.w3.org/1999/02/22-rdf-syntax-ns#" xmlns:xlink="http://www.w3.org/1999/xlink">
 <metadata id="metadata140">
  <rdf:RDF>
   <cc:Work rdf:about="">
    <dc:format>image/svg+xml</dc:format>
    <dc:type rdf:resource="http://purl.org/dc/dcmitype/StillImage"/>
   </cc:Work>
  </rdf:RDF>
 </metadata>
 <defs id="defs49">
  <linearGradient id="ButtonShadow" x1="45.448" x2="45.448" y1="92.54" y2="7.0165" gradientTransform="scale(1.0059 .99417)" gradientUnits="userSpaceOnUse">
   <stop id="stop7" offset="0"/>
   <stop id="stop9" stop-opacity=".58824" offset="1"/>
  </linearGradient>
  <filter id="filter3174">
   <feGaussianBlur id="feGaussianBlur12" stdDeviation="1.71"/>
  </filter>
  <filter id="filter3794" x="-.192" y="-.192" width="1.384" height="1.384">
   <feGaussianBlur id="feGaussianBlur15" stdDeviation="5.28"/>
  </filter>
  <linearGradient id="linearGradient3613" x1="48" x2="48" y1="20.221" y2="138.66" gradientUnits="userSpaceOnUse">
   <stop id="stop18" stop-color="#fff" offset="0"/>
   <stop id="stop20" stop-color="#fff" stop-opacity="0" offset="1"/>
  </linearGradient>
  <linearGradient id="linearGradient3617" x1="48" x2="48" y1="90" y2="5.9877" gradientUnits="userSpaceOnUse">
   <stop id="stop23" stop-color="#50a925" offset="0"/>
   <stop id="stop25" stop-color="#88cd5a" offset="1"/>
  </linearGradient>
  <linearGradient id="ButtonShadow-0" x1="45.448" x2="45.448" y1="92.54" y2="7.0165" gradientTransform="matrix(1.0059 0 0 .99417 100 0)" gradientUnits="userSpaceOnUse">
   <stop id="stop28" offset="0"/>
   <stop id="stop30" stop-opacity=".58824" offset="1"/>
  </linearGradient>
  <linearGradient id="linearGradient3780" x1="32.251" x2="32.251" y1="6.1317" y2="90.239" gradientTransform="matrix(1.0238 0 0 1.0119 -1.1429 -98.071)" gradientUnits="userSpaceOnUse" xlink:href="#ButtonShadow-0"/>
  <linearGradient id="linearGradient3721" x1="32.251" x2="32.251" y1="6.1317" y2="90.239" gradientTransform="translate(0,-97)" gradientUnits="userSpaceOnUse" xlink:href="#ButtonShadow-0"/>
  <clipPath id="clipPath4355">
   <rect id="rect35" x="6" y="6" width="84" height="84" rx="6" ry="6" fill="#fff"/>
  </clipPath>
  <linearGradient id="linearGradient4390" x1="48" x2="48" y1="88" y2="-40" gradientTransform="matrix(1,0,0,-1,0,92)" gradientUnits="userSpaceOnUse">
   <stop id="stop2" stop-color="#fff" offset="0"/>
   <stop id="stop4" stop-color="#fff" stop-opacity="0" offset="1"/>
  </linearGradient>
 </defs>
 <g id="g53" display="none">
  <rect id="rect51" x="5" y="7" width="86" height="85" rx="6" ry="6" fill="url(#ButtonShadow)" filter="url(#filter3174)" opacity=".9"/>
 </g>
 <g id="g67">
  <g id="g63" fill="url(#linearGradient3780)">
   <path id="path55" transform="scale(1,-1)" d="m12-95.031c-5.5111 0-10.031 4.5202-10.031 10.031v71c0 5.5111 4.5202 10.031 10.031 10.031h72c5.5111 0 10.031-4.5202 10.031-10.031v-71c0-5.5111-4.5202-10.031-10.031-10.031h-72z" opacity=".08"/>
   <path id="path57" transform="scale(1,-1)" d="m12-94.031c-4.9716 0-9.0312 4.0596-9.0312 9.0312v71c0 4.9716 4.0596 9.0312 9.0312 9.0312h72c4.9716 0 9.0312-4.0596 9.0312-9.0312v-71c0-4.9716-4.0596-9.0312-9.0312-9.0312h-72z" opacity=".1"/>
   <path id="path59" transform="scale(1,-1)" d="m12-93c-4.4091 0-8 3.5909-8 8v71c0 4.4091 3.5909 8 8 8h72c4.4091 0 8-3.5909 8-8v-71c0-4.4091-3.5909-8-8-8h-72z" opacity=".2"/>
   <rect id="rect61" transform="scale(1,-1)" x="5" y="-92" width="86" height="85" rx="7" ry="7" opacity=".3"/>
  </g>
  <rect id="rect65" transform="scale(1,-1)" x="6" y="-91" width="84" height="84" rx="6" ry="6" fill="url(#linearGradient3721)" opacity=".45"/>
 </g>
 <g id="g87">
  <rect id="rect81" x="6" y="6" width="84" height="84" rx="6" ry="6" fill="url(#linearGradient3617)"/>
  <path id="path83" d="m12 6c-3.324 0-6 2.676-6 6v72c0 3.324 2.676 6 6 6h72c3.324 0 6-2.676 6-6v-72c0-3.324-2.676-6-6-6zm0 2h72c2.805 0 5 2.195 5 5v70c0 2.805-2.195 5-5 5h-72c-2.805 0-5-2.195-5-5v-70c0-2.805 2.195-5 5-5z" fill="url(#linearGradient4390)" opacity=".3"/>
 </g>
 <g id="g91">
  <rect id="rect89" x="15" y="15" width="66" height="66" rx="12" ry="12" clip-path="url(#clipPath4355)" fill="url(#linearGradient3613)" filter="url(#filter3794)" opacity=".1" stroke="#fff" stroke-linecap="round" stroke-width=".5"/>
 </g>
 <defs id="defs101">
  <linearGradient id="a" x1="8" x2="8" y1="2" y2="14" gradientTransform="matrix(4,0,0,4,16,16)" gradientUnits="userSpaceOnUse">
   <stop id="stop96" stop-color="#3e5530" offset="0"/>
   <stop id="stop98" stop-color="#28371f" offset="1"/>
  </linearGradient>
 </defs>
 <g id="g878" stroke-width="4">
  <path id="base" d="m38 24c-3.324 0-6 2.676-6 6v26h-2c-1.108 0-2-0.892-2-2v-14h-8v18c0 3.324 2.676 6 6 6h6v2c0 3.324 2.676 6 6 6h32c3.324 0 6-2.676 6-6v-22h-16v4h6l-14 16-14-16h6v-16h16v8h16v-10c0-3.324-2.676-6-6-6z" fill="url(#a)"/>
  <path id="path104" d="m38 24c-3.324 0-6 2.676-6 6v26h-2c-1.108 0-2-0.892-2-2v-14h-8v18c0 3.324 2.676 6 6 6h6v2c0 3.324 2.676 6 6 6h32c3.324 0 6-2.676 6-6v-22h-16v4h6l-14 16-14-16h6v-16h16v8h16v-10c0-3.324-2.676-6-6-6zm0 2h32c2.2506 0 4 1.7494 4 4v8h-12v-6a2.0002 2.0002 0 0 0-2-2h-16a2.0002 2.0002 0 0 0-2 2v14h-4a2.0002 2.0002 0 0 0-1.5078 3.3203l14 16a2.0002 2.0002 0 0 0 3.0156 0l14-16a2.0002 2.0002 0 0 0-1.5078-3.3203h8v20c0 2.2506-1.7494 4-4 4h-32c-2.2506 0-4-1.7494-4-4v-2a2.0002 2.0002 0 0 0-2-2h-6c-2.2506 0-4-1.7494-4-4v-16h4v12c0 2.1814 1.8186 4 4 4h2a2.0002 2.0002 0 0 0 2-2v-26c0-2.2506 1.7494-4 4-4z" opacity=".08"/>
  <path id="path109" d="m38 24c-3.324 0-6 2.676-6 6v26h-2c-1.108 0-2-0.892-2-2v-14h-8v18c0 3.324 2.676 6 6 6h6v2c0 3.324 2.676 6 6 6h32c3.324 0 6-2.676 6-6v-22h-16v4h6l-14 16-14-16h6v-16h16v8h16v-10c0-3.324-2.676-6-6-6zm0 1h32c2.7873 0 5 2.2127 5 5v9h-14v-7a1.0001 1.0001 0 0 0-1-1h-16a1.0001 1.0001 0 0 0-1 1v15h-5a1.0001 1.0001 0 0 0-0.75 1.6563l14 16a1.0001 1.0001 0 0 0 1.5 0l14-16a1.0001 1.0001 0 0 0-0.75-1.6563h-5v-2h14v21c0 2.7873-2.2127 5-5 5h-32c-2.7873 0-5-2.2127-5-5v-2a1.0001 1.0001 0 0 0-1-1h-6c-2.7873 0-5-2.2127-5-5v-17h6v13c0 1.6447 1.3553 3 3 3h2a1.0001 1.0001 0 0 0 1-1v-26c0-2.7873 2.2127-5 5-5z" opacity=".1"/>
  <path id="path114" d="m38 24c-3.324 0-6 2.676-6 6v1c0-3.324 2.676-6 6-6h32c3.324 0 6 2.676 6 6v-1c0-3.324-2.676-6-6-6zm-18 16v1h8v-1zm40 4v1h16v-1zm-22 5 14 16 14-16h-0.875l-13.125 15-13.125-15zm-10 5v1c0 1.108 0.892 2 2 2h2v-1h-2c-1.108 0-2-0.892-2-2z" opacity=".3"/>
  <path id="path119" d="m38 24c-3.324 0-6 2.676-6 6v1c0-3.324 2.676-6 6-6h32c3.324 0 6 2.676 6 6v-1c0-3.324-2.676-6-6-6zm-18 16v1h8v-1zm40 4v1h16v-1zm-22 5 14 16 14-16h-0.875l-13.125 15-13.125-15zm-10 5v1c0 1.108 0.892 2 2 2h2v-1h-2c-1.108 0-2-0.892-2-2z" opacity=".4"/>
  <path id="path124" d="m44 32v1h16v-1zm16 8v1h16v-1zm-22 8 0.875 1h5.125v-1zm22 0v1h5.125l0.875-1zm-40 10v1c0 3.324 2.676 6 6 6h6v-1h-6c-3.324 0-6-2.676-6-6zm12 8v1c0 3.324 2.676 6 6 6h32c3.324 0 6-2.676 6-6v-1c0 3.324-2.676 6-6 6h-32c-3.324 0-6-2.676-6-6z" fill="#fff" opacity=".3"/>
  <path id="path129" d="m44 31v1h16v-1zm16 8v1h16v-1zm-22 8 0.875 1h5.125v-1zm22 0v1h5.125l0.875-1zm-40 10v1c0 3.324 2.676 6 6 6h6v-1h-6c-3.324 0-6-2.676-6-6zm12 8v1c0 3.324 2.676 6 6 6h32c3.324 0 6-2.676 6-6v-1c0 3.324-2.676 6-6 6h-32c-3.324 0-6-2.676-6-6z" fill="#fff" opacity=".15"/>
 </g>
</svg>
