<?xml version="1.0" encoding="UTF-8"?>
<svg id="svg77" width="96" height="96" version="1.1" xmlns="http://www.w3.org/2000/svg" xmlns:cc="http://creativecommons.org/ns#" xmlns:dc="http://purl.org/dc/elements/1.1/" xmlns:rdf="http://www.w3.org/1999/02/22-rdf-syntax-ns#" xmlns:xlink="http://www.w3.org/1999/xlink">
 <metadata id="metadata81">
  <rdf:RDF>
   <cc:Work rdf:about="">
    <dc:format>image/svg+xml</dc:format>
    <dc:type rdf:resource="http://purl.org/dc/dcmitype/StillImage"/>
   </cc:Work>
  </rdf:RDF>
 </metadata>
 <defs id="defs2410">
  <filter id="filter3794" x="-.192" y="-.192" width="1.384" height="1.384">
   <feGaussianBlur id="feGaussianBlur3796" stdDeviation="5.28"/>
  </filter>
  <linearGradient id="linearGradient3613" x1="48" x2="48" y1="20.221" y2="138.66" gradientUnits="userSpaceOnUse">
   <stop id="stop3739" stop-color="#fff" offset="0"/>
   <stop id="stop3741" stop-color="#fff" stop-opacity="0" offset="1"/>
  </linearGradient>
  <linearGradient id="buttonGradient" x1="48" x2="48" y1="90" y2="5.9877" gradientUnits="userSpaceOnUse">
   <stop id="stop3702" stop-color="#631428" offset="0"/>
   <stop id="stop3704" stop-color="#8d2a42" offset="1"/>
  </linearGradient>
  <linearGradient id="ButtonShadow-0" x1="45.448" x2="45.448" y1="92.54" y2="7.0165" gradientTransform="matrix(1.0059 0 0 .99417 100 0)" gradientUnits="userSpaceOnUse">
   <stop id="stop3750-8" offset="0"/>
   <stop id="stop3752-5" stop-opacity=".58824" offset="1"/>
  </linearGradient>
  <linearGradient id="linearGradient3780" x1="32.251" x2="32.251" y1="6.1317" y2="90.239" gradientTransform="matrix(1.0238 0 0 1.0119 -1.1429 -98.071)" gradientUnits="userSpaceOnUse" xlink:href="#ButtonShadow-0"/>
  <linearGradient id="linearGradient3721" x1="32.251" x2="32.251" y1="6.1317" y2="90.239" gradientTransform="translate(0,-97)" gradientUnits="userSpaceOnUse" xlink:href="#ButtonShadow-0"/>
  <clipPath id="clipPath4355">
   <rect id="rect4357" x="6" y="6" width="84" height="84" rx="6" ry="6" fill="#fff"/>
  </clipPath>
  <linearGradient id="linearGradient4390" x1="48" x2="48" y1="88" y2="-40" gradientTransform="matrix(1,0,0,-1,0,92)" gradientUnits="userSpaceOnUse">
   <stop id="stop4386" stop-color="#fff" offset="0"/>
   <stop id="stop4388" stop-color="#fff" stop-opacity="0" offset="1"/>
  </linearGradient>
 </defs>
 <g id="layer3">
  <g id="g32" fill="url(#linearGradient3780)">
   <path id="path3786" transform="scale(1,-1)" d="m12-95.021c-5.5111 0-10.022 4.51-10.022 10.021v71c0 5.5111 4.5104 10.021 10.021 10.021h72c5.5111 0 10.021-4.5104 10.021-10.021v-71c0-5.5111-4.5104-10.021-10.021-10.021h-72z" opacity=".08"/>
   <path id="path3778" transform="scale(1,-1)" d="m12-94.035c-4.9716 0-9.0352 4.0635-9.0352 9.0352v71c0 4.9716 4.0635 9.0352 9.0352 9.0352h72c4.9716 0 9.0352-4.0635 9.0352-9.0352v-71c0-4.9716-4.0635-9.0352-9.0352-9.0352h-72z" opacity=".1"/>
   <path id="path3770" transform="scale(1,-1)" d="m12-92.99c-4.4091 0-7.9902 3.5811-7.9902 7.9902v71c0 4.4091 3.5811 7.9902 7.9902 7.9902h72c4.4091 0 7.9902-3.5811 7.9902-7.9902v-71c0-4.4091-3.5811-7.9902-7.9902-7.9902h-72z" opacity=".2"/>
   <rect id="rect3723" transform="scale(1,-1)" x="5" y="-92" width="86" height="85" rx="7" ry="7" opacity=".3"/>
  </g>
  <rect id="rect3716" transform="scale(1,-1)" x="6" y="-91" width="84" height="84" rx="6" ry="6" fill="url(#linearGradient3721)" opacity=".45"/>
 </g>
 <g id="layer1">
  <rect id="button" x="6" y="6" width="84" height="84" rx="6" ry="6" fill="url(#buttonGradient)"/>
  <path id="rect4377" d="m12 6c-3.324 0-6 2.676-6 6v72c0 3.324 2.676 6 6 6h72c3.324 0 6-2.676 6-6v-72c0-3.324-2.676-6-6-6zm0 2h72c2.805 0 5 2.195 5 5v70c0 2.805-2.195 5-5 5h-72c-2.805 0-5-2.195-5-5v-70c0-2.805 2.195-5 5-5z" fill="url(#linearGradient4390)" opacity=".3"/>
 </g>
 <g id="layer5">
  <rect id="rect3171" x="15" y="15" width="66" height="66" rx="12" ry="12" clip-path="url(#clipPath4355)" fill="url(#linearGradient3613)" filter="url(#filter3794)" opacity=".1" stroke="#fff" stroke-linecap="round" stroke-width=".5"/>
 </g>
 <defs id="defs53">
  <linearGradient id="a" x1="8" x2="8" y1="5" y2="11" gradientUnits="userSpaceOnUse">
   <stop id="stop48" stop-color="#fafafa" offset="0"/>
   <stop id="stop50" stop-color="#ebebeb" offset="1"/>
  </linearGradient>
 </defs>
 <g id="g75">
  <path id="path55" transform="matrix(4,0,0,4,16,17)" d="m1 4.75a0.25002 0.25002 0 0 0-0.23828 0.32812l1.9629 6a0.25002 0.25002 0 0 0 0.23828 0.17188h1.4004a0.25002 0.25002 0 0 0 0.23828-0.17383l1.9316-6a0.25002 0.25002 0 0 0-0.23828-0.32617h-1.3223a0.25002 0.25002 0 0 0-0.23828 0.16992l-1.0859 3.2441-1.0723-3.2422a0.25002 0.25002 0 0 0-0.23633-0.17188zm6.5898 0a0.25002 0.25002 0 0 0-0.23828 0.17188c-0.65893 2.0093-1.3275 4.0062-2.0215 5.9961a0.25002 0.25002 0 0 0 0.23438 0.33203h1.4004a0.25002 0.25002 0 0 0 0.23828-0.17188l1.0703-3.2188 1.0566 3.2188a0.25002 0.25002 0 0 0 0.23828 0.17188h1.3984a0.25002 0.25002 0 0 0 0.23828-0.17383l1.0605-3.3164 1.0977 3.3184a0.25002 0.25002 0 0 0 0.23633 0.17188h1.4004a0.25002 0.25002 0 0 0 0.23633-0.33203c-0.69432-1.991-1.3786-3.9878-2.0371-5.9961a0.25002 0.25002 0 0 0-0.23828-0.17188h-1.4004a0.25002 0.25002 0 0 0-0.23828 0.17188l-1.0586 3.2383-1.084-3.2402a0.25002 0.25002 0 0 0-0.23633-0.16992z" opacity=".15"/>
  <g id="Bevel1"></g>
  <g id="Bevel2"></g>
  <path id="base" transform="translate(16,16) scale(4)" d="m1 5 1.963 6h1.4l1.9326-6h-1.3239l-1.3239 3.9562-1.3087-3.9562zm6.5891 0c-0.65928 2.0104-1.3293 4.0082-2.0239 6h1.4l1.3087-3.9375 1.2935 3.9375h1.4l1.2935-4.05 1.3391 4.05h1.4c-0.6946-1.9918-1.3799-3.9896-2.0391-6h-1.4001l-1.2935 3.9562-1.3239-3.9562h-1.3543z" fill="url(#a)"/>
  <path id="path65" transform="translate(0,2)" d="m20 35 7.8516 24h5.5996l7.7305-24h-0.32227l-7.4082 23h-5.5996l-7.5234-23h-0.32812zm45.043 6.8008-5.1738 16.199h-5.5996l-5.1738-15.75-5.2344 15.75h-5.2578c-0.11567 0.33275-0.22579 0.66734-0.3418 1h5.5996l5.2344-15.75 5.1738 15.75h5.5996l5.1738-16.199 5.3574 16.199h5.5996c-0.11606-0.33279-0.22978-0.66712-0.3457-1h-5.2539l-5.3574-16.199z" opacity=".3" stroke-width="4"/>
  <path id="path70" transform="translate(0,2)" d="m20 34 0.32812 1h5.0273l5.2363 15.824 5.2949-15.824h4.9727l0.32227-1h-5.2949l-5.2949 15.824-5.2363-15.824h-5.3555zm26.355 0c-2.6371 8.0416-5.3154 16.033-8.0938 24h0.3418c2.6546-7.6365 5.2249-15.294 7.752-23h0.001953 5.416l5.2949 15.824 5.1758-15.824h0.24219 5.0527 0.30469c2.5267 7.7057 5.1513 15.364 7.8105 23h0.3457c-2.7784-7.9672-5.5194-15.958-8.1562-24h-0.30469-5.0527-0.24219l-5.1758 15.824-5.2949-15.824h-5.416-0.001953z" fill="#fff" stroke-width="4"/>
 </g>
</svg>
