<?xml version="1.0" encoding="UTF-8"?>
<svg id="svg77" width="96" height="96" version="1.1" xmlns="http://www.w3.org/2000/svg" xmlns:cc="http://creativecommons.org/ns#" xmlns:dc="http://purl.org/dc/elements/1.1/" xmlns:rdf="http://www.w3.org/1999/02/22-rdf-syntax-ns#" xmlns:xlink="http://www.w3.org/1999/xlink">
 <metadata id="metadata81">
  <rdf:RDF>
   <cc:Work rdf:about="">
    <dc:format>image/svg+xml</dc:format>
    <dc:type rdf:resource="http://purl.org/dc/dcmitype/StillImage"/>
   </cc:Work>
  </rdf:RDF>
 </metadata>
 <defs id="defs2410">
  <linearGradient id="linearGradient4384">
   <stop id="stop4386" stop-color="#fff" offset="0"/>
   <stop id="stop4388" stop-color="#fff" stop-opacity="0" offset="1"/>
  </linearGradient>
  <filter id="filter3794" x="-.192" y="-.192" width="1.384" height="1.384">
   <feGaussianBlur id="feGaussianBlur3796" stdDeviation="5.28"/>
  </filter>
  <linearGradient id="linearGradient3613" x1="48" x2="48" y1="20.221" y2="138.66" gradientUnits="userSpaceOnUse">
   <stop id="stop3739" stop-color="#fff" offset="0"/>
   <stop id="stop3741" stop-color="#fff" stop-opacity="0" offset="1"/>
  </linearGradient>
  <linearGradient id="buttonGradient" x1="48" x2="48" y1="90" y2="5.9877" gradientUnits="userSpaceOnUse">
   <stop id="stop3702" stop-color="#e21838" offset="0"/>
   <stop id="stop3704" stop-color="#f51d30" offset="1"/>
  </linearGradient>
  <linearGradient id="ButtonShadow-0" x1="45.448" x2="45.448" y1="92.54" y2="7.0165" gradientTransform="matrix(1.0059 0 0 .99417 100 0)" gradientUnits="userSpaceOnUse">
   <stop id="stop3750-8" offset="0"/>
   <stop id="stop3752-5" stop-opacity=".58824" offset="1"/>
  </linearGradient>
  <linearGradient id="linearGradient3780" x1="32.251" x2="32.251" y1="6.1317" y2="90.239" gradientTransform="matrix(1.0238 0 0 1.0119 -1.1429 -98.071)" gradientUnits="userSpaceOnUse" xlink:href="#ButtonShadow-0"/>
  <linearGradient id="linearGradient3721" x1="32.251" x2="32.251" y1="6.1317" y2="90.239" gradientTransform="translate(0,-97)" gradientUnits="userSpaceOnUse" xlink:href="#ButtonShadow-0"/>
  <clipPath id="clipPath4355">
   <rect id="rect4357" x="6" y="6" width="84" height="84" rx="6" ry="6" fill="#fff"/>
  </clipPath>
  <linearGradient id="linearGradient4390" x1="48" x2="48" y1="88" y2="-40" gradientTransform="matrix(1,0,0,-1,0,92)" gradientUnits="userSpaceOnUse" xlink:href="#linearGradient4384"/>
  <linearGradient id="linearGradient3930" x1="65" x2="65" y1="6" y2="86" gradientTransform="rotate(-90 47.922 48.078)" gradientUnits="userSpaceOnUse" xlink:href="#linearGradient4384"/>
 </defs>
 <g id="layer3">
  <g id="g32" fill="url(#linearGradient3780)">
   <path id="path3786" transform="scale(1,-1)" d="m12-95.021c-5.5111 0-10.022 4.51-10.022 10.021v71c0 5.5111 4.5104 10.021 10.021 10.021h72c5.5111 0 10.021-4.5104 10.021-10.021v-71c0-5.5111-4.5104-10.021-10.021-10.021h-72z" opacity=".08"/>
   <path id="path3778" transform="scale(1,-1)" d="m12-94.035c-4.9716 0-9.0352 4.0635-9.0352 9.0352v71c0 4.9716 4.0635 9.0352 9.0352 9.0352h72c4.9716 0 9.0352-4.0635 9.0352-9.0352v-71c0-4.9716-4.0635-9.0352-9.0352-9.0352h-72z" opacity=".1"/>
   <path id="path3770" transform="scale(1,-1)" d="m12-92.99c-4.4091 0-7.9902 3.5811-7.9902 7.9902v71c0 4.4091 3.5811 7.9902 7.9902 7.9902h72c4.4091 0 7.9902-3.5811 7.9902-7.9902v-71c0-4.4091-3.5811-7.9902-7.9902-7.9902h-72z" opacity=".2"/>
   <rect id="rect3723" transform="scale(1,-1)" x="5" y="-92" width="86" height="85" rx="7" ry="7" opacity=".3"/>
  </g>
  <rect id="rect3716" transform="scale(1,-1)" x="6" y="-91" width="84" height="84" rx="6" ry="6" fill="url(#linearGradient3721)" opacity=".45"/>
 </g>
 <g id="layer1">
  <rect id="button" x="6" y="6" width="84" height="84" rx="6" ry="6" fill="url(#buttonGradient)"/>
  <path id="rect4377" d="m12 6c-3.324 0-6 2.676-6 6v72c0 3.324 2.676 6 6 6h72c3.324 0 6-2.676 6-6v-72c0-3.324-2.676-6-6-6zm0 2h72c2.805 0 5 2.195 5 5v70c0 2.805-2.195 5-5 5h-72c-2.805 0-5-2.195-5-5v-70c0-2.805 2.195-5 5-5z" fill="url(#linearGradient4390)" opacity=".3"/>
 </g>
 <g id="layer5">
  <rect id="rect3171" x="15" y="15" width="66" height="66" rx="12" ry="12" clip-path="url(#clipPath4355)" fill="url(#linearGradient3613)" filter="url(#filter3794)" opacity=".1" stroke="#fff" stroke-linecap="round" stroke-width=".5"/>
 </g>
 <defs id="defs53">
  <linearGradient id="a" x1="8" x2="8" y1="1.9993" y2="15" gradientUnits="userSpaceOnUse">
   <stop id="stop48" stop-color="#fafafa" offset="0"/>
   <stop id="stop50" stop-color="#ebebeb" offset="1"/>
  </linearGradient>
 </defs>
 <g id="g75">
  <path id="path55" transform="matrix(4,0,0,4,16,17)" d="m13.469 1.75c-0.40513-0.01277-0.8177 0.12265-1.2266 0.38086-0.39775 0.25119-0.66249 0.62542-0.75391 1.0879-0.09142 0.46247-0.02773 1.0024 0.16211 1.6445 0.29186 0.98738 0.18034 1.8818-0.2168 2.543s-1.0777 1.1005-1.9902 1.1758c-0.77536 0.063955-1.3697-0.1353-1.9082-0.63281-0.31548-0.29147-0.71319-0.88595-1.6777-2.5879-0.73467-1.2964-1.1518-2.0254-1.4336-2.4707-0.28179-0.44533-0.44809-0.62709-0.63281-0.76758-0.69401-0.52774-1.7182-0.48426-2.3867 0.09375-0.44955 0.38868-0.6543 0.86691-0.6543 1.5 0 0.336 0.068199 0.66134 0.4707 1.4668 0.4025 0.80545 1.1472 2.1413 2.541 4.6211 1.5105 2.6874 2.2261 3.9736 2.6758 4.6328 0.22485 0.3296 0.38832 0.51408 0.57617 0.62695s0.36166 0.12594 0.53516 0.15625c0.55113 0.09628 1.2099-0.01662 1.625-0.32031 0.20969-0.1535 0.38874-0.42192 0.86328-1.2168 0.47454-0.79488 1.2285-2.1193 2.4902-4.3633 1.1889-2.1144 1.8606-3.3318 2.2422-4.1094 0.38155-0.77761 0.48047-1.1475 0.48047-1.4961 0-0.63271-0.20511-1.1097-0.6543-1.498-0.33589-0.29043-0.722-0.45403-1.127-0.4668z" opacity=".15"/>
  <g id="Bevel1"></g>
  <g id="Bevel2"></g>
  <path id="base" transform="translate(16,16) scale(4)" d="m13.461 2c-0.3446-0.010862-0.70785 0.10303-1.0859 0.3418-0.69814 0.4409-0.8507 1.212-0.48438 2.4512 0.6171 2.0877-0.45808 3.8768-2.4258 4.0391-0.8318 0.06861-1.5154-0.15957-2.0996-0.69922-0.36-0.3326-0.75816-0.94314-1.7246-2.6484-1.4688-2.5918-1.6734-2.9137-2-3.1621-0.5907-0.44918-1.4976-0.41286-2.0723 0.083984-0.40872 0.35338-0.56836 0.72272-0.56836 1.3105 0 0.6201 0.19307 1.0058 2.9805 5.9648 3.0213 5.3753 2.8771 5.1647 3.6113 5.293 0.47163 0.08239 1.1131-0.0409 1.4336-0.27539 0.2717-0.1989 0.7602-1.0148 3.2832-5.502 2.377-4.2275 2.6914-4.871 2.6914-5.4824 0-0.58738-0.15975-0.95531-0.56836-1.3086-0.3009-0.26017-0.6261-0.39539-0.9707-0.40625z" fill="url(#a)"/>
  <path id="path65" transform="translate(0,2)" d="m62.82 28.982c-0.10502 1.4415 0.14094 3.1556 0.74219 5.1895 0.41598 1.4073 0.62506 2.7758 0.67188 4.0898 0.054192-1.6112-0.149-3.3209-0.67188-5.0898-0.46983-1.5893-0.70263-2.967-0.74219-4.1895zm13.154 0.20508c-0.11623 2.376-1.6422 5.4208-10.74 21.602-10.092 17.949-12.046 21.212-13.133 22.008-1.282 0.93796-3.8479 1.4311-5.7344 1.1016-2.9369-0.51304-2.3602 0.32916-14.445-21.172-10.569-18.803-11.798-21.166-11.898-23.475-0.010933 0.20085-0.023438 0.40042-0.023438 0.61524 0 2.4804 0.77228 4.0234 11.922 23.859 12.085 21.501 11.508 20.659 14.445 21.172 1.8865 0.32956 4.4524-0.1636 5.7344-1.1016 1.0868-0.7956 3.0408-4.059 13.133-22.008 9.5081-16.91 10.766-19.484 10.766-21.93 0-0.23441-0.012315-0.45412-0.025391-0.67188z" opacity=".3" stroke-width="4"/>
  <path id="path70" transform="translate(0,2)" d="m69.844 22c-1.3784-0.043448-2.8314 0.41211-4.3438 1.3672-1.8972 1.1981-2.7635 3.025-2.6797 5.6152 0.15093-2.0716 1.033-3.5753 2.6797-4.6152 1.5124-0.95508 2.9653-1.4106 4.3438-1.3672 1.3784 0.043448 2.6792 0.58433 3.8828 1.625 1.4714 1.2721 2.1301 2.5977 2.248 4.5625 0.005239-0.10708 0.025391-0.22266 0.025391-0.32812 0-2.3495-0.639-3.8213-2.2734-5.2344-1.2036-1.0407-2.5044-1.5816-3.8828-1.625zm-43.449 0.037109c-1.4896 0.060155-2.9718 0.59421-4.1211 1.5879-1.6349 1.4135-2.2734 2.8909-2.2734 5.2422 0 0.12914 0.017895 0.25799 0.023438 0.38476 0.10873-1.9975 0.76448-3.3426 2.25-4.627 2.2986-1.9874 5.9263-2.1327 8.2891-0.33594 1.3066 0.99368 2.1248 2.2812 8 12.648 3.8658 6.8212 5.4584 9.2634 6.8984 10.594 2.3366 2.1586 5.0712 3.0713 8.3984 2.7969 6.5444-0.53976 10.606-5.5831 10.375-12.066-0.20164 5.9951-4.1715 10.555-10.375 11.066-3.3272 0.27444-6.0618-0.63828-8.3984-2.7969-1.44-1.3304-3.0326-3.7726-6.8984-10.594-5.8752-10.367-6.6934-11.655-8-12.648-1.1814-0.89836-2.6784-1.3121-4.168-1.252z" fill="#fff" stroke-width="4"/>
 </g>
 <path id="rect3155" d="m5.8437 48 80-24v-17.656c-0.62577-0.22014-1.2971-0.34375-2-0.34375h-72c-3.324 0-6 2.676-6 6z" enable-background="new" fill="url(#linearGradient3930)" opacity=".15"/>
</svg>
