<?xml version="1.0" encoding="UTF-8"?>
<svg id="svg2408" width="96" height="96" version="1.0" xmlns="http://www.w3.org/2000/svg" xmlns:cc="http://creativecommons.org/ns#" xmlns:dc="http://purl.org/dc/elements/1.1/" xmlns:rdf="http://www.w3.org/1999/02/22-rdf-syntax-ns#" xmlns:xlink="http://www.w3.org/1999/xlink">
 <defs id="defs2410">
  <linearGradient id="ButtonShadow" x1="45.448" x2="45.448" y1="92.54" y2="7.0165" gradientTransform="scale(1.0059 .99417)" gradientUnits="userSpaceOnUse">
   <stop id="stop3750" offset="0"/>
   <stop id="stop3752" stop-opacity=".58824" offset="1"/>
  </linearGradient>
  <filter id="filter3174" color-interpolation-filters="sRGB">
   <feGaussianBlur id="feGaussianBlur3176" stdDeviation="1.71"/>
  </filter>
  <linearGradient id="linearGradient3188" x1="36.357" x2="36.357" y1="6" y2="63.893" gradientUnits="userSpaceOnUse">
   <stop id="stop3739" stop-color="#fefefe" offset="0"/>
   <stop id="stop3741" stop-color="#fefefe" stop-opacity="0" offset="1"/>
  </linearGradient>
  <radialGradient id="radialGradient3619" cx="48" cy="90.172" r="42" gradientTransform="matrix(1.1573 0 0 1.0038 -7.551 .14842)" gradientUnits="userSpaceOnUse">
   <stop id="stop6298" stop-color="#0a0a0a" offset="0"/>
   <stop id="stop6300" stop-color="#505050" offset="1"/>
  </radialGradient>
  <linearGradient id="linearGradient3617" x1="48" x2="48" y1="90" y2="5.9877" gradientUnits="userSpaceOnUse">
   <stop id="stop6292" stop-color="#141414" offset="0"/>
   <stop id="stop6294" stop-color="#3c3c3c" offset="1"/>
  </linearGradient>
  <linearGradient id="ButtonShadow-0" x1="45.448" x2="45.448" y1="92.54" y2="7.0165" gradientTransform="matrix(1.0059 0 0 .99417 100 0)" gradientUnits="userSpaceOnUse">
   <stop id="stop3750-8" offset="0"/>
   <stop id="stop3752-5" stop-opacity=".58824" offset="1"/>
  </linearGradient>
  <linearGradient id="linearGradient3780" x1="32.251" x2="32.251" y1="6.1317" y2="90.239" gradientTransform="matrix(1.0238 0 0 1.0119 -1.1429 -98.071)" gradientUnits="userSpaceOnUse" xlink:href="#ButtonShadow-0"/>
  <linearGradient id="linearGradient3721" x1="32.251" x2="32.251" y1="6.1317" y2="90.239" gradientTransform="translate(0,-97)" gradientUnits="userSpaceOnUse" xlink:href="#ButtonShadow-0"/>
  <linearGradient id="linearGradient2043" x1="-543.21" x2="-202.03" y1="51.11" y2="-28.676" gradientTransform="matrix(.24708 0 0 .24708 139.53 36.804)" gradientUnits="userSpaceOnUse">
   <stop id="stop2003" stop-color="#2a66a2" offset="0"/>
   <stop id="stop2005" stop-color="#76caf7" offset="1"/>
  </linearGradient>
  <linearGradient id="linearGradient2066" x1="-345.79" x2="-341.2" y1="-143.15" y2="-86.113" gradientTransform="matrix(.24708 0 0 .24708 139.53 36.804)" gradientUnits="userSpaceOnUse">
   <stop id="stop2060" stop-color="#2c6aa6" offset="0"/>
   <stop id="stop2062" stop-color="#2c6aa6" stop-opacity="0" offset="1"/>
  </linearGradient>
  <linearGradient id="linearGradient2106" x1="-322.99" x2="-247.74" y1="-38.119" y2="-51.874" gradientUnits="userSpaceOnUse">
   <stop id="stop2100" stop-color="#3b7cb6" stop-opacity="0" offset="0"/>
   <stop id="stop2102" stop-color="#3b7cb6" offset="1"/>
  </linearGradient>
  <linearGradient id="linearGradient2127" x1="-516.36" x2="-420.05" y1="15.59" y2="-102.92" gradientUnits="userSpaceOnUse">
   <stop id="stop2121" stop-color="#73c5f3" stop-opacity="0" offset="0"/>
   <stop id="stop2123" stop-color="#73c5f3" offset="1"/>
  </linearGradient>
  <linearGradient id="linearGradient2159" x1="-473" x2="-381.5" y1="18.252" y2="8.6275" gradientUnits="userSpaceOnUse">
   <stop id="stop2153" stop-color="#78caf7" stop-opacity="0" offset="0"/>
   <stop id="stop2155" stop-color="#78caf7" offset="1"/>
  </linearGradient>
  <linearGradient id="linearGradient2180" x1="-471.93" x2="-307.64" y1="154.81" y2="119.56" gradientUnits="userSpaceOnUse">
   <stop id="stop2174" stop-color="#3372ac" offset="0"/>
   <stop id="stop2176" stop-color="#5eb6de" offset="1"/>
  </linearGradient>
  <linearGradient id="linearGradient2201" x1="-338.08" x2="-179.14" y1="216.78" y2="132.08" gradientTransform="matrix(.24708 0 0 .24708 139.53 36.804)" gradientUnits="userSpaceOnUse">
   <stop id="stop2195" stop-color="#4c93c8" stop-opacity=".78431" offset="0"/>
   <stop id="stop2197" stop-color="#265f9a" offset="1"/>
  </linearGradient>
  <linearGradient id="linearGradient2222" x1="-208.3" x2="-216.24" y1="140.89" y2="-43.099" gradientTransform="matrix(.24708 0 0 .24708 139.53 36.804)" gradientUnits="userSpaceOnUse">
   <stop id="stop2216" stop-color="#3676b1" stop-opacity="0" offset="0"/>
   <stop id="stop2218" stop-color="#3676b1" offset="1"/>
  </linearGradient>
  <linearGradient id="linearGradient2028" x1="-139.97" x2="-103.11" y1="58.758" y2="29.816" gradientUnits="userSpaceOnUse">
   <stop id="stop2022" stop-color="#2c3546" offset="0"/>
   <stop id="stop2024" stop-color="#65758e" offset="1"/>
  </linearGradient>
 </defs>
 <metadata id="metadata2413">
  <rdf:RDF>
   <cc:Work rdf:about="">
    <dc:format>image/svg+xml</dc:format>
    <dc:type rdf:resource="http://purl.org/dc/dcmitype/StillImage"/>
    <dc:title/>
   </cc:Work>
  </rdf:RDF>
 </metadata>
 <g id="layer2" display="none">
  <rect id="rect3745" x="5" y="7" width="86" height="85" rx="6" ry="6" fill="url(#ButtonShadow)" filter="url(#filter3174)" opacity=".9"/>
 </g>
 <g id="layer3">
  <path id="path3786" transform="scale(1,-1)" d="m12-95.031c-5.5111 0-10.031 4.5202-10.031 10.031v71c0 5.5111 4.5202 10.031 10.031 10.031h72c5.5111 0 10.031-4.5202 10.031-10.031v-71c0-5.5111-4.5202-10.031-10.031-10.031h-72z" fill="url(#linearGradient3780)" opacity=".08"/>
  <path id="path3778" transform="scale(1,-1)" d="m12-94.031c-4.9716 0-9.0312 4.0596-9.0312 9.0312v71c0 4.9716 4.0596 9.0312 9.0312 9.0312h72c4.9716 0 9.0312-4.0596 9.0312-9.0312v-71c0-4.9716-4.0596-9.0312-9.0312-9.0312h-72z" fill="url(#linearGradient3780)" opacity=".1"/>
  <path id="path3770" transform="scale(1,-1)" d="m12-93c-4.4091 0-8 3.5909-8 8v71c0 4.4091 3.5909 8 8 8h72c4.4091 0 8-3.5909 8-8v-71c0-4.4091-3.5909-8-8-8h-72z" fill="url(#linearGradient3780)" opacity=".2"/>
  <rect id="rect3723" transform="scale(1,-1)" x="5" y="-92" width="86" height="85" rx="7" ry="7" fill="url(#linearGradient3780)" opacity=".3"/>
  <rect id="rect3716" transform="scale(1,-1)" x="6" y="-91" width="84" height="84" rx="6" ry="6" fill="url(#linearGradient3721)" opacity=".45"/>
 </g>
 <g id="layer1">
  <rect id="rect2419" x="6" y="6" width="84" height="84" rx="6" ry="6" fill="url(#linearGradient3617)"/>
  <g id="g2285" transform="matrix(1.2338 0 0 1.2338 209.19 -12.22)">
   <path id="_Path_" d="m-102.37 79.423c1.6619-1.5941 3.1653-3.3402 4.4855-5.2147 1.8374-5.3702 1.2855-20.587 1.2855-20.587 0-19.455-11.455-34.344-31.732-34.344-20.277 0-35.418 15.856-35.418 35.311-5e-3 2.4343 0 7.0276 0 7.0276s0.63758 4.5078 1.5649 6.6158c0.9273 2.108 2.0629 4.1109 3.382 5.9852 1.3191 1.8743 2.8217 3.62 4.483 5.2135 1.6613 1.5935 2.2309 2.0119 4.1848 3.2777l43.376 0.05776s3.66-2.6486 4.3887-3.3425z" fill="url(#linearGradient2028)" stroke-width=".080858" data-name="&lt;Path&gt;"/>
   <g id="g2246" transform="matrix(.20026 0 0 .20026 -56.455 39.734)">
    <path id="path2035" transform="matrix(4.0473 0 0 4.0473 -564.74 -148.96)" d="m43.881 5.9824c-0.41527 0.62606-0.78224 1.27-1.0469 1.9277-0.23232 0.57737-0.48278 1.1202-0.55664 1.207-0.073857 0.086855-1.072 0.37208-2.2188 0.63281-6.5337 1.4856-13.401 4.8905-18.562 9.2031-8.255 6.8972-13.599 16.133-15.58 26.875v15.561c1.7671 9.6562 6.3401 18.16 13.449 24.955 1.3341 1.2751 2.7534 2.4575 4.2383 3.5527h53.396c5.2779-3.9295 9.757-9.0341 12.789-14.58v-38.105c-1.956-3.7394-2.6227-6.0516-2.8164-9.3984l-0.13672-2.373-1.5488 0.80274c-5.4366 2.8157-9.638 7.8005-11.426 13.557-0.67976 2.1886-1.2079 6.2275-1.0469 8.0059 0.23318 2.5746 0.71616 4.723 1.6367 7.2832 1.374 3.8212 1.8619 5.3908 2.1816 7.0078 0.38084 1.9262 0.3791 6.6897-0.003906 8.8672-0.64756 3.6816-2.3377 7.7778-4.4336 10.746-0.88509 1.2535-4.4755 5.126-4.6191 4.9824-0.035426-0.035426 0.2498-0.78609 0.63281-1.6699 0.89846-2.0733 1.6271-5.1011 1.8008-7.4863 0.47168-6.4782-2.5895-13.963-7.418-18.137l-1.1875-1.0273-0.007813 2.6309c-0.005769 1.9249-0.10509 2.9504-0.36719 3.8301-1.8875 6.3347-7.4943 10.854-13.959 11.252-8.1082 0.49899-15.696-4.6517-18.369-12.471-1.0989-3.2146-1.1398-7.7325-0.097656-10.736 1.2468-3.5936 3.8374-6.7193 7.084-8.5449 2.4254-1.3638 5.9621-2.1882 8.3438-1.9453 0.68838 0.070192 1.252-0.046875 1.252-0.046875s-0.74409-0.91865-1.6523-1.8281c-3.034-3.038-7.1908-5.3229-11.164-6.1348l-0.70117-0.14258 1.3887-0.4707c5.5324-1.8757 11.498-2.6633 20.238-2.6719 3.6487-0.003569 6.0262-0.099351 7.3105-0.29297 6.314-0.95183 11.924-4.4433 15.387-9.5762 0.93992-1.3933 2.2344-4.0957 2.2344-4.0957s-0.93663-0.17139-2.0781-0.18945c-3.6959-0.058508-6.301-0.97264-12.539-4.4004-1.597-0.87756-3.5802-1.8757-4.4062-2.2188-1.3765-0.5717-4.6157-1.5151-4.748-1.3828-0.0308 0.030801 0.037633 0.81447 0.15234 1.7422 0.22978 1.8583 0.77603 3.8799 1.5098 5.584l0.47852 1.1094-0.70312-0.80078c-1.0394-1.1821-2.2498-3.768-2.623-5.6074-0.32056-1.5797-0.27694-3.3117 0.060546-4.9805h-9.5469z" fill="url(#linearGradient2043)" stroke-width=".20026"/>
    <path id="path2022" transform="matrix(4.0473 0 0 4.0473 -564.74 -148.96)" d="m49.668 5.9766c-0.82248 1.5087-1.3913 3.1341-1.5664 4.6426-0.28313 2.4395 0.60675 5.9268 1.918 7.5176l5.2109-2.6094-0.70117-1.2793s-0.68836-1.2897-1.2266-3.7109c-0.28692-1.5976-0.18022-3.1483 0.125-4.5605h-3.7598z" fill="url(#linearGradient2066)" stroke-width=".20026"/>
    <path id="path2098" d="m-325.75-52.269c29.054 0.80588 52.866-6.0793 73.887-24.608 2.2678-2.0389 4.1215-2.7658 4.1215-2.7658s-4.5425 10.053-9.1538 16.741c-10.3 16.891-39.696 38.752-64.803 38.798-5.2088-12.265-4.0521-15.486-4.0518-28.165z" fill="url(#linearGradient2106)" stroke-width=".8105"/>
    <path id="path2119" d="m-513.42 27.587-19.642-20.261c15.679-42.163 33.773-60.826 55.416-79.594 34.04-28.524 78.61-39.431 83.958-39.664 0 0-7.7915 3.5246-13.809 5.7277-25.888 9.4767-47.177 22.237-63.485 38.05-24.923 24.168-37.871 52.54-39.869 87.366-0.52279 9.1118-2.5692 8.3763-2.5692 8.3763z" fill="url(#linearGradient2127)" stroke-width=".8105"/>
    <path id="path2151" d="m-475.81-5.0295c0.28202-2.9185-0.62905-2.562 13.223-5.1738 4.5516-0.8582 16.012-1.4587 26.417-0.19807 16.525 3.0882 39.174 12.947 54.67 32.801-16.007-5.718-27.928-9.1525-41.694-10.326-22.018-1.8777-38.784 2.464-51.931 13.448-1.8809 1.5715-3.6149 2.8572-3.8532 2.8572-0.0213-10.599 1.9702-22.217 3.1683-33.408z" fill="url(#linearGradient2159)" stroke-width=".8105"/>
    <path id="path2172" d="m-382.39 202c-12.162-0.67951-20.198-2.016-31.204-5.1896-11.059-3.1888-18.186-6.2901-27.081-11.785-3.6051-2.2271-7.277-4.4952-8.1599-5.0403-8.5506-5.279-22.632-19.358-29.294-29.289-1.9507-2.9078-3.5466-5.4789-3.5466-5.7136 14.46-16.159 22.177-29.998 30.003-50.948 0.36195 6.2761 3.385 15.975 6.1091 21.512 5.7309 11.649 12.825 22.29 24.035 29.75 13.509 8.9904 29.789 14.563 46.232 13.801 24.137-1.2472 50.912-16.843 58.513-50.349 0.40591-2.5009 0.57528-4.9497 0.56949-21.46 0 0 0.98692 1.1691 4.5966 10.347 5.8809 19.372 9.5882 44.497 4.3268 61.473-6.302 20.069-19.191 32.975-39.549 39.598-9.4466 3.0736-20.748 4.1208-35.549 3.2939z" fill="url(#linearGradient2180)" stroke-width=".8105"/>
    <path id="path2193" transform="matrix(4.0473 0 0 4.0473 -564.74 -148.96)" d="m61.406 58.395c2.6284 4.6915 3.414 14.135 1.916 18.621-0.90174 2.5981-4.4025 7.2346-8.9219 8.7031 0 1.2127 0.25082 2.6819 0.60156 4.1777h21.939c5.2884-3.9324 9.7195-8.9379 12.904-14.707v-4.832c-0.048718 0.074717-0.093709 0.15201-0.14258 0.22656-1.6546 2.5242-6.0322 7.1497-8.5859 9.0723-3.9688 2.9408-8.594 5.1791-13.574 7.043 1.0499-2.1056 1.4356-3.9298 2.0098-6.2363 1.0078-4.4307 0.28272-7.4822-0.074218-9.1094-0.99274-4.5255-3.3794-8.6052-6.3203-11.467-1.2608-1.1287-1.752-1.4922-1.752-1.4922z" fill="url(#linearGradient2201)" stroke-width=".20188"/>
    <path id="path2214" transform="matrix(4.0473 0 0 4.0473 -564.74 -148.96)" d="m86.836 25.439-1.0293 1.1016c-1.9073 2.0418-3.7826 5.2986-4.7305 8.2109-1.712 5.2601-1.6224 11.327 0.27148 18.223 1.3054 4.7527 1.4668 6.3085 1.0391 10.078-0.38757 3.191-1.3841 6.6298-2.3438 9.748-0.33879 0.64331 8.4087-1.2426 9.6504-2.2539 0.097232-0.12633 0.20357-0.28649 0.30469-0.42578v-32.555c-0.88297-1.7243-1.7743-3.6273-2.1465-4.7383-0.67008-2.0241-0.90645-4.6881-1.0156-7.3887z" fill="url(#linearGradient2222)" stroke-width=".20026"/>
    <path id="path2235" d="m-436.17-10.401c-3.9319-0.62212-18.37-0.85276-18.37-0.85276 3.8795-2.1731 27.556-8.8044 35.221-10.001 21.211-2.9843 34.413-0.53032 34.413-0.53032-17.121 1.1853-40.592 7.2807-51.264 11.384z" fill="#255e9a" stroke-width=".8105"/>
   </g>
  </g>
  <path id="rect3728" d="m12 6c-3.324 0-6 2.676-6 6v72c0 0.33472 0.04135 0.6507 0.09375 0.96875 0.0487 0.2956 0.09704 0.59692 0.1875 0.875 0.00988 0.03038 0.020892 0.0636 0.03125 0.09375 0.098865 0.28777 0.23488 0.54745 0.375 0.8125 0.14459 0.27351 0.31562 0.53562 0.5 0.78125s0.37378 0.47347 0.59375 0.6875c0.43995 0.42806 0.94291 0.81453 1.5 1.0938 0.27854 0.13961 0.57347 0.24695 0.875 0.34375-0.2562-0.10022-0.48671-0.23627-0.71875-0.375-0.00741-0.0044-0.023866 0.0045-0.03125 0-0.031933-0.0193-0.062293-0.04251-0.09375-0.0625-0.1204-0.0767-0.23102-0.16351-0.34375-0.25-0.10617-0.0808-0.21328-0.16111-0.3125-0.25-0.17793-0.16143-0.34746-0.34539-0.5-0.53125-0.10758-0.13026-0.21839-0.26528-0.3125-0.40625-0.025089-0.03838-0.038446-0.08587-0.0625-0.125-0.064763-0.10303-0.13023-0.20452-0.1875-0.3125-0.10101-0.19471-0.20567-0.4157-0.28125-0.625-0.00796-0.02181-0.023589-0.04055-0.03125-0.0625-0.031825-0.09195-0.035804-0.18683-0.0625-0.28125-0.030332-0.10662-0.070389-0.20303-0.09375-0.3125-0.072879-0.34151-0.125-0.6982-0.125-1.0625v-72c0-2.7818 2.2182-5 5-5h72c2.7818 0 5 2.2182 5 5v72c0 0.3643-0.05212 0.72099-0.125 1.0625-0.04415 0.20689-0.08838 0.39766-0.15625 0.59375-0.0077 0.02195-0.0233 0.04069-0.03125 0.0625-0.06274 0.17374-0.13838 0.36745-0.21875 0.53125-0.04158 0.0828-0.07904 0.16995-0.125 0.25-0.0546 0.09721-0.12677 0.18835-0.1875 0.28125-0.09411 0.14096-0.20492 0.276-0.3125 0.40625-0.14317 0.17445-0.30314 0.347-0.46875 0.5-0.01117 0.0102-0.01998 0.02115-0.03125 0.03125-0.13839 0.12556-0.28509 0.23444-0.4375 0.34375-0.10257 0.07315-0.20432 0.15336-0.3125 0.21875-0.0074 0.0045-0.02384-0.0044-0.03125 0-0.23204 0.13873-0.46255 0.27478-0.71875 0.375 0.30153-0.0968 0.59646-0.20414 0.875-0.34375 0.55709-0.27922 1.0601-0.66569 1.5-1.0938 0.21997-0.21403 0.40937-0.44186 0.59375-0.6875s0.35541-0.50774 0.5-0.78125c0.14012-0.26505 0.27614-0.52473 0.375-0.8125 0.01041-0.03078 0.02133-0.06274 0.03125-0.09375 0.09046-0.27808 0.1388-0.5794 0.1875-0.875 0.0524-0.31805 0.09375-0.63403 0.09375-0.96875v-72c0-3.324-2.676-6-6-6z" fill="url(#linearGradient3188)" opacity=".35"/>
  <path id="path3615" d="m12 90.663c-3.324 0-6-2.6972-6-6.0475v-72.571c0-0.33737 0.04135-0.65586 0.09375-0.97643 0.0487-0.29794 0.09704-0.60164 0.1875-0.88193 0.00988-0.03062 0.020892-0.0641 0.03125-0.09449 0.098865-0.29005 0.23488-0.55179 0.375-0.81894 0.14459-0.27567 0.31562-0.53986 0.5-0.78744s0.37378-0.47722 0.59375-0.69295c0.43995-0.43145 0.94291-0.82098 1.5-1.1024 0.27854-0.14072 0.57347-0.2489 0.875-0.34647-0.2562 0.10102-0.48671 0.23814-0.71875 0.37797-0.00741 0.00443-0.023866-0.00454-0.03125 0-0.031933 0.019453-0.062293 0.042847-0.09375 0.062995-0.1204 0.077308-0.23102 0.16481-0.34375 0.25198-0.10617 0.08144-0.21328 0.16239-0.3125 0.25198-0.17793 0.16271-0.34746 0.34812-0.5 0.53546-0.10758 0.13129-0.21839 0.26739-0.3125 0.40947-0.025089 0.038684-0.038446 0.08655-0.0625 0.12599-0.064763 0.10385-0.13023 0.20614-0.1875 0.31498-0.10101 0.19625-0.20567 0.419-0.28125 0.62995-0.00796 0.021983-0.023589 0.040871-0.03125 0.062995-0.031825 0.092679-0.035804 0.18831-0.0625 0.28348-0.030332 0.10746-0.070389 0.20464-0.09375 0.31498-0.072879 0.34422-0.125 0.70374-0.125 1.0709v72.571c0 2.8039 2.2182 5.0396 5 5.0396h72c2.7818 0 5-2.2357 5-5.0396v-72.571c0-0.36718-0.05212-0.7267-0.125-1.0709-0.04415-0.20853-0.08838-0.40081-0.15625-0.59846-0.0077-0.022124-0.0233-0.041012-0.03125-0.062995-0.06274-0.17512-0.13838-0.37036-0.21875-0.53546-0.04158-0.083456-0.07904-0.1713-0.125-0.25198-0.0546-0.09798-0.12677-0.18984-0.1875-0.28348-0.09411-0.14208-0.20492-0.27818-0.3125-0.40947-0.14317-0.17583-0.30314-0.34975-0.46875-0.50396-0.01117-0.010281-0.01998-0.021318-0.03125-0.031498-0.13839-0.12655-0.28509-0.23629-0.4375-0.34647-0.10257-0.07373-0.20432-0.15458-0.3125-0.22048-0.0074-0.00454-0.02384 0.00443-0.03125 0-0.23204-0.13983-0.46255-0.27696-0.71875-0.37797 0.30153 0.097567 0.59646 0.20576 0.875 0.34647 0.55709 0.28144 1.0601 0.67097 1.5 1.1024 0.21997 0.21572 0.40937 0.44537 0.59375 0.69295s0.35541 0.51177 0.5 0.78744c0.14012 0.26715 0.27614 0.52889 0.375 0.81894 0.01041 0.03102 0.02133 0.06324 0.03125 0.09449 0.09046 0.28029 0.1388 0.584 0.1875 0.88193 0.0524 0.32057 0.09375 0.63906 0.09375 0.97643v72.571c0 3.3503-2.676 6.0475-6 6.0475z" fill="url(#radialGradient3619)" opacity=".2"/>
 </g>
</svg>
