<?xml version="1.0" encoding="UTF-8"?>
<svg id="svg2408" width="96" height="96" version="1.0" xmlns="http://www.w3.org/2000/svg" xmlns:cc="http://creativecommons.org/ns#" xmlns:dc="http://purl.org/dc/elements/1.1/" xmlns:rdf="http://www.w3.org/1999/02/22-rdf-syntax-ns#" xmlns:xlink="http://www.w3.org/1999/xlink">
 <defs id="defs2410">
  <linearGradient id="ButtonShadow" x1="45.448" x2="45.448" y1="92.54" y2="7.0165" gradientTransform="scale(1.0059 .99417)" gradientUnits="userSpaceOnUse">
   <stop id="stop3750" offset="0"/>
   <stop id="stop3752" stop-opacity=".58824" offset="1"/>
  </linearGradient>
  <linearGradient id="linearGradient3737">
   <stop id="stop3739" stop-color="#fefefe" offset="0"/>
   <stop id="stop3741" stop-color="#fefefe" stop-opacity="0" offset="1"/>
  </linearGradient>
  <filter id="filter3174" color-interpolation-filters="sRGB">
   <feGaussianBlur id="feGaussianBlur3176" stdDeviation="1.71"/>
  </filter>
  <linearGradient id="linearGradient3188" x1="36.357" x2="36.357" y1="6" y2="63.893" gradientUnits="userSpaceOnUse" xlink:href="#linearGradient3737"/>
  <filter id="filter3794" x="-.192" y="-.192" width="1.384" height="1.384" color-interpolation-filters="sRGB">
   <feGaussianBlur id="feGaussianBlur3796" stdDeviation="5.28"/>
  </filter>
  <linearGradient id="linearGradient3613" x1="48" x2="48" y1="20.221" y2="138.66" gradientUnits="userSpaceOnUse" xlink:href="#linearGradient3737"/>
  <radialGradient id="radialGradient3619" cx="48" cy="90.172" r="42" gradientTransform="matrix(1.1573 0 0 .99591 -7.551 .19713)" gradientUnits="userSpaceOnUse" xlink:href="#linearGradient3737"/>
  <clipPath id="clipPath3613">
   <rect id="rect3615" x="6" y="6" width="84" height="84" rx="6" ry="6" fill="#fefefe"/>
  </clipPath>
  <linearGradient id="linearGradient3617" x1="48" x2="48" y1="90" y2="5.9877" gradientUnits="userSpaceOnUse">
   <stop id="stop3780" stop-color="#911935" offset="0"/>
   <stop id="stop3782" stop-color="#dd6876" offset="1"/>
  </linearGradient>
  <linearGradient id="ButtonShadow-0" x1="45.448" x2="45.448" y1="92.54" y2="7.0165" gradientTransform="matrix(1.0059 0 0 .99417 100 0)" gradientUnits="userSpaceOnUse">
   <stop id="stop3750-8" offset="0"/>
   <stop id="stop3752-5" stop-opacity=".58824" offset="1"/>
  </linearGradient>
  <linearGradient id="linearGradient3780" x1="32.251" x2="32.251" y1="6.1317" y2="90.239" gradientTransform="matrix(1.0238 0 0 1.0119 -1.1429 -98.071)" gradientUnits="userSpaceOnUse" xlink:href="#ButtonShadow-0"/>
  <linearGradient id="linearGradient3721" x1="32.251" x2="32.251" y1="6.1317" y2="90.239" gradientTransform="translate(0,-97)" gradientUnits="userSpaceOnUse" xlink:href="#ButtonShadow-0"/>
  <filter id="filter3789" x="-.18971" y="-.11607" width="1.3794" height="1.2321" color-interpolation-filters="sRGB">
   <feGaussianBlur id="feGaussianBlur3791" stdDeviation="1.8477742"/>
  </filter>
  <linearGradient id="linearGradient3703" x1="46.125" x2="46.125" y1="63.048" y2="24.84" gradientUnits="userSpaceOnUse" xlink:href="#linearGradient3697"/>
  <linearGradient id="linearGradient3697">
   <stop id="stop3699-3" stop-color="#dcdcdc" offset="0"/>
   <stop id="stop3701-6" stop-color="#f0f0f0" offset="1"/>
  </linearGradient>
  <linearGradient id="linearGradient3777" x1="15" x2="106.51" y1="47.277" y2="47.025" gradientTransform="translate(-.77343 1.5312)" gradientUnits="userSpaceOnUse">
   <stop id="stop5354" stop-color="#911229" offset="0"/>
   <stop id="stop5356" stop-color="#a23f5f" offset="1"/>
  </linearGradient>
  <clipPath id="clipPath3644">
   <path id="path3646" d="m12 96c-3.324 0-6 2.676-6 6v72c0 3.324 2.676 6 6 6h72c3.324 0 6-2.676 6-6v-72c0-3.324-2.676-6-6-6zm36 11c18.225 0 33 12.088 33 27s-14.775 27-33 27c-2.7139 0-5.3515-0.27575-7.875-0.78125-3.3926 3.5412-9.7833 8.2333-19.406 7.1875 7.4297-2.1002 8.9991-8.2412 9.3438-10.75-9.0627-4.8128-15.062-13.158-15.062-22.656 0-14.912 14.775-27 33-27z" fill="url(#linearGradient3648)"/>
  </clipPath>
  <filter id="filter3678" x="-.17257" y="-.18809" width="1.3451" height="1.3762" color-interpolation-filters="sRGB">
   <feGaussianBlur id="feGaussianBlur3680" stdDeviation="4.745809"/>
  </filter>
 </defs>
 <metadata id="metadata2413">
  <rdf:RDF>
   <cc:Work rdf:about="">
    <dc:format>image/svg+xml</dc:format>
    <dc:type rdf:resource="http://purl.org/dc/dcmitype/StillImage"/>
    <dc:title/>
   </cc:Work>
  </rdf:RDF>
 </metadata>
 <g id="layer2" display="none">
  <rect id="rect3745" x="5" y="7" width="86" height="85" rx="6" ry="6" fill="url(#ButtonShadow)" filter="url(#filter3174)" opacity=".9"/>
 </g>
 <g id="layer4">
  <path id="path3786-6" transform="scale(1,-1)" d="m12-95.031c-5.5111 0-10.031 4.5202-10.031 10.031v71c0 5.5111 4.5202 10.031 10.031 10.031h72c5.5111 0 10.031-4.5202 10.031-10.031v-71c0-5.5111-4.5202-10.031-10.031-10.031h-72z" fill="url(#linearGradient3780)" opacity=".08"/>
  <path id="path3778" transform="scale(1,-1)" d="m12-94.031c-4.9716 0-9.0312 4.0596-9.0312 9.0312v71c0 4.9716 4.0596 9.0312 9.0312 9.0312h72c4.9716 0 9.0312-4.0596 9.0312-9.0312v-71c0-4.9716-4.0596-9.0312-9.0312-9.0312h-72z" fill="url(#linearGradient3780)" opacity=".1"/>
  <path id="path3770" transform="scale(1,-1)" d="m12-93c-4.4091 0-8 3.5909-8 8v71c0 4.4091 3.5909 8 8 8h72c4.4091 0 8-3.5909 8-8v-71c0-4.4091-3.5909-8-8-8h-72z" fill="url(#linearGradient3780)" opacity=".2"/>
  <rect id="rect3723" transform="scale(1,-1)" x="5" y="-92" width="86" height="85" rx="7" ry="7" fill="url(#linearGradient3780)" opacity=".3"/>
  <rect id="rect3716" transform="scale(1,-1)" x="6" y="-91" width="84" height="84" rx="6" ry="6" fill="url(#linearGradient3721)" opacity=".45"/>
 </g>
 <g id="layer1">
  <rect id="rect2419" x="6" y="6" width="84" height="84" rx="6" ry="6" fill="url(#linearGradient3617)"/>
  <path id="rect3728" d="m12 6c-3.324 0-6 2.676-6 6v2 68 2c0 0.33472 0.04135 0.6507 0.09375 0.96875 0.0487 0.2956 0.09704 0.59692 0.1875 0.875 0.00988 0.03038 0.020892 0.0636 0.03125 0.09375 0.098865 0.28777 0.23488 0.54745 0.375 0.8125 0.14459 0.27351 0.31562 0.53562 0.5 0.78125s0.37378 0.47347 0.59375 0.6875c0.43995 0.42806 0.94291 0.81453 1.5 1.0938 0.27854 0.13961 0.57347 0.24695 0.875 0.34375-0.2562-0.10022-0.48671-0.23627-0.71875-0.375-0.00741-0.0044-0.023866 0.0045-0.03125 0-0.031933-0.0193-0.062293-0.04251-0.09375-0.0625-0.1204-0.0767-0.23102-0.16351-0.34375-0.25-0.10617-0.0808-0.21328-0.16111-0.3125-0.25-0.17793-0.16143-0.34746-0.34539-0.5-0.53125-0.10758-0.13026-0.21839-0.26528-0.3125-0.40625-0.025089-0.03838-0.038446-0.08587-0.0625-0.125-0.064763-0.10303-0.13023-0.20452-0.1875-0.3125-0.10101-0.19471-0.20567-0.4157-0.28125-0.625-0.00796-0.02181-0.023589-0.04055-0.03125-0.0625-0.031825-0.09195-0.035804-0.18683-0.0625-0.28125-0.030332-0.10662-0.070389-0.20303-0.09375-0.3125-0.072879-0.34151-0.125-0.6982-0.125-1.0625v-2-68-2c0-2.7818 2.2182-5 5-5h2 68 2c2.7818 0 5 2.2182 5 5v2 68 2c0 0.3643-0.05212 0.72099-0.125 1.0625-0.04415 0.20689-0.08838 0.39766-0.15625 0.59375-0.0077 0.02195-0.0233 0.04069-0.03125 0.0625-0.06274 0.17374-0.13838 0.36745-0.21875 0.53125-0.04158 0.0828-0.07904 0.16995-0.125 0.25-0.0546 0.09721-0.12677 0.18835-0.1875 0.28125-0.09411 0.14096-0.20492 0.276-0.3125 0.40625-0.14317 0.17445-0.30314 0.347-0.46875 0.5-0.01117 0.0102-0.01998 0.02115-0.03125 0.03125-0.13839 0.12556-0.28509 0.23444-0.4375 0.34375-0.10257 0.07315-0.20432 0.15336-0.3125 0.21875-0.0074 0.0045-0.02384-0.0044-0.03125 0-0.23204 0.13873-0.46255 0.27478-0.71875 0.375 0.30153-0.0968 0.59646-0.20414 0.875-0.34375 0.55709-0.27922 1.0601-0.66569 1.5-1.0938 0.21997-0.21403 0.40937-0.44186 0.59375-0.6875s0.35541-0.50774 0.5-0.78125c0.14012-0.26505 0.27614-0.52473 0.375-0.8125 0.01041-0.03078 0.02133-0.06274 0.03125-0.09375 0.09046-0.27808 0.1388-0.5794 0.1875-0.875 0.0524-0.31805 0.09375-0.63403 0.09375-0.96875v-2-68-2c0-3.324-2.676-6-6-6h-72z" fill="url(#linearGradient3188)" opacity=".5"/>
  <path id="path3615" d="m12 90c-3.324 0-6-2.676-6-6v-2-68-2c0-0.33472 0.04135-0.6507 0.09375-0.96875 0.0487-0.2956 0.09704-0.59692 0.1875-0.875 0.00988-0.03038 0.020892-0.0636 0.03125-0.09375 0.098865-0.28777 0.23488-0.54745 0.375-0.8125 0.14459-0.27351 0.31562-0.53562 0.5-0.78125s0.37378-0.47347 0.59375-0.6875c0.43995-0.42806 0.94291-0.81453 1.5-1.0938 0.27854-0.13961 0.57347-0.24695 0.875-0.34375-0.2562 0.10022-0.48671 0.23627-0.71875 0.375-0.00741 0.0044-0.023866-0.0045-0.03125 0-0.031933 0.0193-0.062293 0.04251-0.09375 0.0625-0.1204 0.0767-0.23102 0.16351-0.34375 0.25-0.10617 0.0808-0.21328 0.16111-0.3125 0.25-0.17793 0.16143-0.34746 0.34539-0.5 0.53125-0.10758 0.13026-0.21839 0.26528-0.3125 0.40625-0.025089 0.03838-0.038446 0.08587-0.0625 0.125-0.064763 0.10303-0.13023 0.20452-0.1875 0.3125-0.10101 0.19471-0.20567 0.4157-0.28125 0.625-0.00796 0.02181-0.023589 0.04055-0.03125 0.0625-0.031825 0.09195-0.035804 0.18683-0.0625 0.28125-0.030332 0.10662-0.070389 0.20303-0.09375 0.3125-0.072879 0.34151-0.125 0.6982-0.125 1.0625v2 68 2c0 2.7818 2.2182 5 5 5h2 68 2c2.7818 0 5-2.2182 5-5v-2-68-2c0-0.3643-0.05212-0.72099-0.125-1.0625-0.04415-0.20689-0.08838-0.39766-0.15625-0.59375-0.0077-0.02195-0.0233-0.04069-0.03125-0.0625-0.06274-0.17374-0.13838-0.36745-0.21875-0.53125-0.04158-0.0828-0.07904-0.16995-0.125-0.25-0.0546-0.09721-0.12677-0.18835-0.1875-0.28125-0.09411-0.14096-0.20492-0.276-0.3125-0.40625-0.14317-0.17445-0.30314-0.347-0.46875-0.5-0.01117-0.0102-0.01998-0.02115-0.03125-0.03125-0.13839-0.12556-0.28509-0.23444-0.4375-0.34375-0.10257-0.07315-0.20432-0.15336-0.3125-0.21875-0.0074-0.0045-0.02384 0.0044-0.03125 0-0.23204-0.13873-0.46255-0.27478-0.71875-0.375 0.30153 0.0968 0.59646 0.20414 0.875 0.34375 0.55709 0.27922 1.0601 0.66569 1.5 1.0938 0.21997 0.21403 0.40937 0.44186 0.59375 0.6875s0.35541 0.50774 0.5 0.78125c0.14012 0.26505 0.27614 0.52473 0.375 0.8125 0.01041 0.03078 0.02133 0.06274 0.03125 0.09375 0.09046 0.27808 0.1388 0.5794 0.1875 0.875 0.0524 0.31805 0.09375 0.63403 0.09375 0.96875v2 68 2c0 3.324-2.676 6-6 6h-72z" fill="url(#radialGradient3619)" opacity=".2"/>
 </g>
 <g id="layer5">
  <rect id="rect3171" x="15" y="15" width="66" height="66" rx="12" ry="12" clip-path="url(#clipPath3613)" fill="url(#linearGradient3613)" filter="url(#filter3794)" opacity=".1" stroke="#fefefe" stroke-linecap="round" stroke-width=".5"/>
 </g>
 <path id="path3620" d="m47.227 18.531c-18.225 0-33 12.088-33 27 0 9.4984 5.9998 17.843 15.063 22.656-0.34462 2.5088-1.914 8.6498-9.3438 10.75 9.6229 1.0458 16.014-3.6463 19.406-7.1875 2.5235 0.5055 5.1611 0.78125 7.875 0.78125 18.225 0 33-12.088 33-27s-14.775-27-33-27z" fill="url(#linearGradient3777)" opacity=".6"/>
 <path id="path3779" d="m14.227 45.937c-0.0053 0.20007 0 0.39263 0 0.59375 0 9.4416 5.9343 17.737 14.906 22.562 0.06714-0.3293 0.12055-0.64637 0.15625-0.90625-8.9337-4.7443-14.895-12.92-15.063-22.25zm66 0.09375c-0.33036 14.678-14.982 26.5-33 26.5-2.7139 0-5.3515-0.27575-7.875-0.78125-3.1139 3.2502-8.7477 7.4495-17.094 7.3125-0.70061 0.3324-1.4669 0.63597-2.3125 0.875 9.6229 1.0458 16.014-3.6463 19.406-7.1875 2.5235 0.5055 5.1611 0.78125 7.875 0.78125 18.225 0 33-12.088 33-27 0-0.16936 0.0038-0.33138 0-0.5z" fill="#fefefe" opacity=".2"/>
 <path id="path3811" d="m47.227 18.531c-18.225 0-33 12.088-33 27 0 9.4984 5.9998 17.843 15.063 22.656-0.34462 2.5088-1.914 8.6498-9.3438 10.75 9.6229 1.0458 16.014-3.6463 19.406-7.1875 2.5235 0.5055 5.1611 0.78125 7.875 0.78125 18.225 0 33-12.088 33-27s-14.775-27-33-27zm0 2.9375c16.92 0 30.062 11.1 30.062 24.062s-13.142 24.062-30.062 24.062c-2.514 0-4.9434-0.28169-7.2812-0.75a2.9518 2.9518 0 0 0-2.7188 0.875c-1.6209 1.6918-4.0041 3.5676-7.125 4.875 1.3415-2.3539 1.9347-4.6148 2.125-6a2.9518 2.9518 0 0 0-1.5625-3c-8.2911-4.403-13.5-11.807-13.5-20.062 0-12.962 13.142-24.062 30.063-24.062z" opacity=".05"/>
 <path id="path3804" d="m47.227 18.531c-18.225 0-33 12.088-33 27 0 9.4984 5.9998 17.843 15.063 22.656-0.34462 2.5088-1.914 8.6498-9.3438 10.75 9.6229 1.0458 16.014-3.6463 19.406-7.1875 2.5235 0.5055 5.1611 0.78125 7.875 0.78125 18.225 0 33-12.088 33-27s-14.775-27-33-27zm0 1.875c17.393 0 31.125 11.456 31.125 25.125s-13.732 25.125-31.125 25.125c-2.5865 0-5.0949-0.26822-7.5-0.75a1.8822 1.8822 0 0 0-1.7188 0.53125c-2.2298 2.3274-5.8621 5.105-10.906 6.2188 0.60301-0.63671 1.3199-1.2405 1.75-1.9062 1.5731-2.4349 2.1159-4.8817 2.3125-6.3125a1.8822 1.8822 0 0 0-1-1.9062c-8.5707-4.5515-14.063-12.294-14.063-21 0-13.669 13.732-25.125 31.125-25.125z" opacity=".08"/>
 <path id="path3797" d="m47.227 18.531c-18.225 0-33 12.088-33 27 0 9.4984 5.9998 17.843 15.063 22.656-0.34462 2.5088-1.914 8.6498-9.3438 10.75 9.6229 1.0458 16.014-3.6463 19.406-7.1875 2.5235 0.5055 5.1611 0.78125 7.875 0.78125 18.225 0 33-12.088 33-27s-14.775-27-33-27zm0 1.0625c17.757 0 31.938 11.725 31.938 25.938s-14.18 25.938-31.938 25.938c-2.6422 0-5.1994-0.25784-7.6562-0.75a1.0589 1.0589 0 0 0-0.96875 0.3125c-2.6438 2.7595-7.2489 6.0491-13.781 6.7188 1.4426-1.0373 2.5503-2.2407 3.3438-3.4688 1.4817-2.2934 2.0015-4.5838 2.1875-5.9375a1.0589 1.0589 0 0 0-0.5625-1.0938c-8.7859-4.6658-14.5-12.666-14.5-21.719 0-14.212 14.18-25.938 31.938-25.938z" opacity=".15"/>
 <g id="layer4-5" transform="translate(-.77343 1.5312)">
  <g id="g3741" transform="matrix(.94114 0 0 .94221 4.5901 4.5954)" filter="url(#filter3789)" opacity=".8">
   <path id="path3743" d="m57.813 34.824c-2.4e-5 2.4-0.73602 4.464-2.208 6.192-0.44802 0.57602-1.792 1.744-4.032 3.504-1.472 1.184-2.208 2.288-2.208 3.312v1.68h-8.88v-2.736c-6e-6 -1.824 0.70399-3.52 2.112-5.088 0.03199-0.06398 1.328-1.248 3.888-3.552 1.408-1.248 2.112-2.4 2.112-3.456-1.5e-5 -0.70397-0.27201-1.28-0.816-1.728-0.54401-0.47997-1.184-0.71997-1.92-0.72-0.96001 2.8e-5 -1.68 0.35203-2.16 1.056-0.48001 0.70403-0.70401 1.552-0.672 2.544h-8.592v-0.768c0-3.168 1.168-5.696 3.504-7.584 2.144-1.76 4.832-2.64 8.064-2.64 3.2 3.6e-5 5.92 0.84804 8.16 2.544 2.432 1.856 3.648 4.336 3.648 7.44m-7.872 23.328c-1.6e-5 1.44-0.46402 2.608-1.392 3.504-0.89601 0.928-2.064 1.392-3.504 1.392-1.44-3e-6 -2.624-0.464-3.552-1.392-0.89601-0.896-1.344-2.064-1.344-3.504-6e-6 -1.44 0.44799-2.624 1.344-3.552 0.92799-0.92799 2.112-1.392 3.552-1.392 1.44 7e-6 2.608 0.46401 3.504 1.392 0.92798 0.928 1.392 2.112 1.392 3.552"/>
  </g>
  <g id="text3688" transform="matrix(.94114 0 0 .94221 4.5901 3.5954)" fill="url(#linearGradient3703)">
   <path id="path3695" d="m57.813 34.824c-2.4e-5 2.4-0.73602 4.464-2.208 6.192-0.44802 0.57602-1.792 1.744-4.032 3.504-1.472 1.184-2.208 2.288-2.208 3.312v1.68h-8.88v-2.736c-6e-6 -1.824 0.70399-3.52 2.112-5.088 0.03199-0.06398 1.328-1.248 3.888-3.552 1.408-1.248 2.112-2.4 2.112-3.456-1.5e-5 -0.70397-0.27201-1.28-0.816-1.728-0.54401-0.47997-1.184-0.71997-1.92-0.72-0.96001 2.8e-5 -1.68 0.35203-2.16 1.056-0.48001 0.70403-0.70401 1.552-0.672 2.544h-8.592v-0.768c0-3.168 1.168-5.696 3.504-7.584 2.144-1.76 4.832-2.64 8.064-2.64 3.2 3.6e-5 5.92 0.84804 8.16 2.544 2.432 1.856 3.648 4.336 3.648 7.44m-7.872 23.328c-1.6e-5 1.44-0.46402 2.608-1.392 3.504-0.89601 0.928-2.064 1.392-3.504 1.392-1.44-3e-6 -2.624-0.464-3.552-1.392-0.89601-0.896-1.344-2.064-1.344-3.504-6e-6 -1.44 0.44799-2.624 1.344-3.552 0.92799-0.92799 2.112-1.392 3.552-1.392 1.44 7e-6 2.608 0.46401 3.504 1.392 0.92798 0.928 1.392 2.112 1.392 3.552" fill="url(#linearGradient3703)"/>
  </g>
  <path id="path3737" d="m47.875 27c-3.0418 3.4e-5 -5.5447 0.84174-7.5625 2.5-2.1985 1.7789-3.3125 4.1401-3.3125 7.125v0.71875h0.09375c0.28005-2.3875 1.3451-4.3277 3.2188-5.8438 2.0178-1.6583 4.5207-2.5 7.5625-2.5 3.0116 3.4e-5 5.5793 0.80829 7.6875 2.4062 2.0363 1.5558 3.1496 3.5778 3.375 6.0625 0.03484-0.34621 0.0625-0.70047 0.0625-1.0625-2.3e-5 -2.9246-1.1487-5.2512-3.4375-7-2.1082-1.598-4.6759-2.4062-7.6875-2.4062zm2.2188 10.312c-0.28962 0.70006-0.86887 1.4369-1.75 2.2188-2.4093 2.1709-3.6261 3.2835-3.6562 3.3438-1.3251 1.4774-2 3.0627-2 4.7812v2c-6e-6 -1.7186 0.67487-3.3038 2-4.7812 0.03011-0.06028 1.2469-1.1729 3.6562-3.3438 1.3251-1.1759 1.9687-2.255 1.9688-3.25-8e-6 -0.35828-0.07419-0.68167-0.21875-0.96875zm-3.125 16.406c-1.3552 7e-6 -2.4391 0.43814-3.3125 1.3125-0.84326 0.87438-1.2813 1.987-1.2812 3.3438-1e-6 0.3392 0.03951 0.66056 0.09375 0.96875 0.16965-0.89956 0.56922-1.6714 1.1875-2.3125 0.87337-0.87436 1.9573-1.3125 3.3125-1.3125 1.3552 7e-6 2.4692 0.43814 3.3125 1.3125 0.6406 0.64135 1.0473 1.4125 1.2188 2.3125 0.05482-0.30819 0.09375-0.62955 0.09375-0.96875-1.5e-5 -1.3568-0.43914-2.4694-1.3125-3.3438-0.84327-0.87436-1.9573-1.3125-3.3125-1.3125z" fill="#fefefe"/>
 </g>
 <g id="layer3" transform="translate(-.58368 1.4897)">
  <path id="path3642" transform="translate(0,-90)" d="m48 107c-18.225 0-33 12.088-33 27 0 9.4984 5.9998 17.843 15.062 22.656-0.34462 2.5088-1.914 8.6498-9.3438 10.75 9.6229 1.0458 16.014-3.6463 19.406-7.1875 2.5235 0.5055 5.1611 0.78125 7.875 0.78125 18.225 0 33-12.088 33-27s-14.775-27-33-27z" clip-path="url(#clipPath3644)" fill="#fefefe" filter="url(#filter3678)" opacity=".2"/>
 </g>
</svg>
