<?xml version="1.0" encoding="UTF-8"?>
<!-- Created with Inkscape (http://www.inkscape.org/) -->
<svg id="svg2408" width="96" height="96" enable-background="new" version="1.0" xmlns="http://www.w3.org/2000/svg" xmlns:cc="http://creativecommons.org/ns#" xmlns:dc="http://purl.org/dc/elements/1.1/" xmlns:rdf="http://www.w3.org/1999/02/22-rdf-syntax-ns#" xmlns:xlink="http://www.w3.org/1999/xlink">
 <defs id="defs2410">
  <linearGradient id="linearGradient4134">
   <stop id="stop4136" stop-color="#fff" offset="0"/>
   <stop id="stop4138" stop-color="#fff" stop-opacity="0" offset="1"/>
  </linearGradient>
  <linearGradient id="ButtonShadow" x1="45.448" x2="45.448" y1="92.54" y2="7.0165" gradientTransform="scale(1.0059 .99417)" gradientUnits="userSpaceOnUse">
   <stop id="stop3750" offset="0"/>
   <stop id="stop3752" stop-opacity=".58824" offset="1"/>
  </linearGradient>
  <filter id="filter3174" color-interpolation-filters="sRGB">
   <feGaussianBlur id="feGaussianBlur3176" stdDeviation="1.71"/>
  </filter>
  <linearGradient id="linearGradient3188" x1="36.357" x2="36.357" y1="6" y2="63.893" gradientUnits="userSpaceOnUse" xlink:href="#linearGradient4134"/>
  <linearGradient id="linearGradient3436" x1="43.179" x2="43.179" y1="13" y2="83.295" gradientTransform="matrix(1.0294 0 0 1.0294 -1.4118 -1.4118)" gradientUnits="userSpaceOnUse">
   <stop id="stop3467" stop-color="#919191" offset="0"/>
   <stop id="stop3469" stop-color="#fdfdfd" offset="1"/>
  </linearGradient>
  <linearGradient id="linearGradient3466" x1="48" x2="48" y1="90" y2="5.9877" gradientUnits="userSpaceOnUse">
   <stop id="stop3189" stop-color="#b4b4b4" offset="0"/>
   <stop id="stop3191" stop-color="#e6e6e6" offset="1"/>
  </linearGradient>
  <linearGradient id="linearGradient3693" x1="76.451" x2="76.451" y1="8.0625" y2="72.766" gradientUnits="userSpaceOnUse">
   <stop id="stop3689" stop-color="#fff" offset="0"/>
   <stop id="stop3691" stop-color="#fff" stop-opacity="0" offset="1"/>
  </linearGradient>
  <linearGradient id="linearGradient3701" x1="65.156" x2="65.156" y1="16.125" y2="69.688" gradientUnits="userSpaceOnUse">
   <stop id="stop3489" stop-color="#9cb7d2" offset="0"/>
   <stop id="stop3491" stop-color="#e7edf3" stop-opacity="0" offset="1"/>
  </linearGradient>
  <linearGradient id="linearGradient2675" x1="65.156" x2="65.156" y1="16.125" y2="69.688" gradientTransform="translate(1)" gradientUnits="userSpaceOnUse" xlink:href="#linearGradient4134"/>
  <radialGradient id="radialGradient2893" cx="48" cy="90.172" r="42" gradientTransform="matrix(1.1573 0 0 .99591 -7.551 .19713)" gradientUnits="userSpaceOnUse">
   <stop id="stop3739-7" stop-color="#fff" offset="0"/>
   <stop id="stop3741-2" stop-color="#fff" stop-opacity="0" offset="1"/>
  </radialGradient>
  <linearGradient id="linearGradient3721" x1="32.251" x2="32.251" y1="6.1317" y2="90.239" gradientTransform="translate(0,-97)" gradientUnits="userSpaceOnUse" xlink:href="#ButtonShadow-0"/>
  <linearGradient id="ButtonShadow-0" x1="45.448" x2="45.448" y1="92.54" y2="7.0165" gradientTransform="matrix(1.0059 0 0 .99417 100 0)" gradientUnits="userSpaceOnUse">
   <stop id="stop3750-8" offset="0"/>
   <stop id="stop3752-5" stop-opacity=".58824" offset="1"/>
  </linearGradient>
  <linearGradient id="linearGradient3725" x1="32.251" x2="32.251" y1="6.1317" y2="90.239" gradientTransform="matrix(1.0238 0 0 1.0119 -1.1429 -98.071)" gradientUnits="userSpaceOnUse" xlink:href="#ButtonShadow-0"/>
  <radialGradient id="radialGradient4510" cx="56.066" cy="-15.871" r="35.938" gradientTransform="matrix(.0022597 .92548 -1.3844 0 25.902 -30.211)" gradientUnits="userSpaceOnUse">
   <stop id="stop3177-6" stop-color="#4490e6" offset="0"/>
   <stop id="stop3179-3" stop-color="#103d8f" offset="1"/>
  </radialGradient>
  <linearGradient id="linearGradient4140" x1="32" x2="32" y1="46" y2="-24" gradientTransform="translate(0,-64)" gradientUnits="userSpaceOnUse" xlink:href="#linearGradient4134"/>
 </defs>
 <metadata id="metadata2413">
  <rdf:RDF>
   <cc:Work rdf:about="">
    <dc:format>image/svg+xml</dc:format>
    <dc:type rdf:resource="http://purl.org/dc/dcmitype/StillImage"/>
    <dc:title/>
   </cc:Work>
  </rdf:RDF>
 </metadata>
 <g id="layer2" display="none">
  <rect id="rect3745" x="5" y="7" width="86" height="85" rx="6" ry="6" fill="url(#ButtonShadow)" filter="url(#filter3174)" opacity=".9"/>
 </g>
 <g id="layer4">
  <path id="path3786" transform="scale(1,-1)" d="m12-95.031c-5.5111 0-10.031 4.5202-10.031 10.031v71c0 5.5111 4.5202 10.031 10.031 10.031h72c5.5111 0 10.031-4.5202 10.031-10.031v-71c0-5.5111-4.5202-10.031-10.031-10.031h-72z" fill="url(#linearGradient3725)" opacity=".08"/>
  <path id="path3778" transform="scale(1,-1)" d="m12-94.031c-4.9716 0-9.0312 4.0596-9.0312 9.0312v71c0 4.9716 4.0596 9.0312 9.0312 9.0312h72c4.9716 0 9.0312-4.0596 9.0312-9.0312v-71c0-4.9716-4.0596-9.0312-9.0312-9.0312h-72z" fill="url(#linearGradient3725)" opacity=".1"/>
  <path id="path3770" transform="scale(1,-1)" d="m12-93c-4.4091 0-8 3.5909-8 8v71c0 4.4091 3.5909 8 8 8h72c4.4091 0 8-3.5909 8-8v-71c0-4.4091-3.5909-8-8-8h-72z" fill="url(#linearGradient3725)" opacity=".2"/>
  <rect id="rect3723" transform="scale(1,-1)" x="5" y="-92" width="86" height="85" rx="7" ry="7" fill="url(#linearGradient3725)" opacity=".3"/>
  <rect id="rect3716" transform="scale(1,-1)" x="6" y="-91" width="84" height="84" rx="6" ry="6" fill="url(#linearGradient3721)" opacity=".45"/>
 </g>
 <g id="layer3">
  <path id="path3215-5" transform="matrix(-1.0009 0 0 -1.334 96.01 99.966)" d="m12.062 12.062v53.875h71.875v-53.875h-71.875z" fill="url(#radialGradient4510)"/>
  <path id="rect3222" d="m19 13c-3.2894 0-6 2.7106-6 6v58c0 3.2894 2.7106 6 6 6h58c3.2894 0 6-2.7106 6-6v-58c0-3.2894-2.7106-6-6-6h-58zm0 4h58c1.1426 0 2 0.85741 2 2v58c0 1.1426-0.85741 2-2 2h-58c-1.1426 0-2-0.85741-2-2v-58c0-1.1426 0.85741-2 2-2z" color="#000000" enable-background="accumulate" opacity=".08" style="block-progression:tb;text-indent:0;text-transform:none"/>
  <path id="rect3981" d="m17 14c-1.662 0-3 1.338-3 3v62c0 1.662 1.338 3 3 3h62c1.662 0 3-1.338 3-3v-62c0-1.662-1.338-3-3-3h-62zm0 1.9375h62c0.61816 0 1.0625 0.44434 1.0625 1.0625v62c0 0.61816-0.44434 1.0625-1.0625 1.0625h-62c-0.61816 0-1.0625-0.44434-1.0625-1.0625v-62c0-0.61816 0.44434-1.0625 1.0625-1.0625z" color="#000000" enable-background="accumulate" opacity=".1"/>
  <path id="rect3977" d="m17 14c-1.662 0-3 1.338-3 3v62c0 1.662 1.338 3 3 3h62c1.662 0 3-1.338 3-3v-62c0-1.662-1.338-3-3-3h-62zm0 0.96875h62c1.1401 0 2.0312 0.89117 2.0312 2.0312v62c0 1.1401-0.89117 2.0312-2.0312 2.0312h-62c-1.1401 0-2.0312-0.89117-2.0312-2.0312v-62c0-1.1401 0.89117-2.0312 2.0312-2.0312z" color="#000000" enable-background="accumulate" opacity=".25"/>
  <g id="g4128">
   <rect id="rect3889" transform="scale(1,-1)" x="18" y="-46" width="28" height="28" rx="2" ry="2" fill="url(#linearGradient4140)" opacity=".3"/>
   <path id="path4125" d="m20 16c-2.1807 0-4 1.8193-4 4v24c0 2.1807 1.8193 4 4 4h24c2.1807 0 4-1.8193 4-4v-24c0-2.1807-1.8193-4-4-4h-24zm0 2h24c1.108 0 2 0.892 2 2v24c0 1.108-0.892 2-2 2h-24c-1.108 0-2-0.892-2-2v-24c0-1.108 0.892-2 2-2z" fill="#0f2e61" opacity=".15"/>
   <path id="rect4107" d="m20 18c-1.108 0-2 0.892-2 2v24c0 1.108 0.892 2 2 2h24c1.108 0 2-0.892 2-2v-24c0-1.108-0.892-2-2-2h-24zm0 1.0312h24c0.54712 0 0.96875 0.42163 0.96875 0.96875v24c0 0.54712-0.42163 0.96875-0.96875 0.96875h-24c-0.54712 0-0.96875-0.42163-0.96875-0.96875v-24c0-0.54712 0.42163-0.96875 0.96875-0.96875z" fill="#fff" opacity=".3"/>
   <path id="path4118" d="m20 16.969c-1.6603 0-3.0312 1.371-3.0312 3.0312v24c0 1.6603 1.371 3.0312 3.0312 3.0312h24c1.6603 0 3.0312-1.371 3.0312-3.0312v-24c0-1.6603-1.371-3.0312-3.0312-3.0312h-24zm0 1.0312h24c1.108 0 2 0.892 2 2v24c0 1.108-0.892 2-2 2h-24c-1.108 0-2-0.892-2-2v-24c0-1.108 0.892-2 2-2z" fill="#0c1752" opacity=".3"/>
  </g>
  <g id="g4142" transform="translate(0,32)">
   <rect id="rect4144" transform="scale(1,-1)" x="18" y="-46" width="28" height="28" rx="2" ry="2" fill="url(#linearGradient4140)" opacity=".2"/>
   <path id="path4146" d="m20 16c-2.1807 0-4 1.8193-4 4v24c0 2.1807 1.8193 4 4 4h24c2.1807 0 4-1.8193 4-4v-24c0-2.1807-1.8193-4-4-4h-24zm0 2h24c1.108 0 2 0.892 2 2v24c0 1.108-0.892 2-2 2h-24c-1.108 0-2-0.892-2-2v-24c0-1.108 0.892-2 2-2z" fill="#0f2e61" opacity=".15"/>
   <path id="path4148" d="m20 18c-1.108 0-2 0.892-2 2v24c0 1.108 0.892 2 2 2h24c1.108 0 2-0.892 2-2v-24c0-1.108-0.892-2-2-2h-24zm0 1.0312h24c0.54712 0 0.96875 0.42163 0.96875 0.96875v24c0 0.54712-0.42163 0.96875-0.96875 0.96875h-24c-0.54712 0-0.96875-0.42163-0.96875-0.96875v-24c0-0.54712 0.42163-0.96875 0.96875-0.96875z" fill="#fff" opacity=".3"/>
   <path id="path4150" d="m20 16.969c-1.6603 0-3.0312 1.371-3.0312 3.0312v24c0 1.6603 1.371 3.0312 3.0312 3.0312h24c1.6603 0 3.0312-1.371 3.0312-3.0312v-24c0-1.6603-1.371-3.0312-3.0312-3.0312h-24zm0 1.0312h24c1.108 0 2 0.892 2 2v24c0 1.108-0.892 2-2 2h-24c-1.108 0-2-0.892-2-2v-24c0-1.108 0.892-2 2-2z" fill="#0c1752" opacity=".3"/>
  </g>
  <g id="g4154" transform="translate(32,32)">
   <rect id="rect4156" transform="scale(1,-1)" x="18" y="-46" width="28" height="28" rx="2" ry="2" fill="url(#linearGradient4140)" opacity=".2"/>
   <path id="path4158" d="m20 16c-2.1807 0-4 1.8193-4 4v24c0 2.1807 1.8193 4 4 4h24c2.1807 0 4-1.8193 4-4v-24c0-2.1807-1.8193-4-4-4h-24zm0 2h24c1.108 0 2 0.892 2 2v24c0 1.108-0.892 2-2 2h-24c-1.108 0-2-0.892-2-2v-24c0-1.108 0.892-2 2-2z" fill="#0f2e61" opacity=".15"/>
   <path id="path4160" d="m20 18c-1.108 0-2 0.892-2 2v24c0 1.108 0.892 2 2 2h24c1.108 0 2-0.892 2-2v-24c0-1.108-0.892-2-2-2h-24zm0 1.0312h24c0.54712 0 0.96875 0.42163 0.96875 0.96875v24c0 0.54712-0.42163 0.96875-0.96875 0.96875h-24c-0.54712 0-0.96875-0.42163-0.96875-0.96875v-24c0-0.54712 0.42163-0.96875 0.96875-0.96875z" fill="#fff" opacity=".3"/>
   <path id="path4162" d="m20 16.969c-1.6603 0-3.0312 1.371-3.0312 3.0312v24c0 1.6603 1.371 3.0312 3.0312 3.0312h24c1.6603 0 3.0312-1.371 3.0312-3.0312v-24c0-1.6603-1.371-3.0312-3.0312-3.0312h-24zm0 1.0312h24c1.108 0 2 0.892 2 2v24c0 1.108-0.892 2-2 2h-24c-1.108 0-2-0.892-2-2v-24c0-1.108 0.892-2 2-2z" fill="#0c1752" opacity=".3"/>
  </g>
  <g id="g4166" transform="translate(32)">
   <rect id="rect4168" transform="scale(1,-1)" x="18" y="-46" width="28" height="28" rx="2" ry="2" fill="url(#linearGradient4140)" opacity=".2"/>
   <path id="path4170" d="m20 16c-2.1807 0-4 1.8193-4 4v24c0 2.1807 1.8193 4 4 4h24c2.1807 0 4-1.8193 4-4v-24c0-2.1807-1.8193-4-4-4h-24zm0 2h24c1.108 0 2 0.892 2 2v24c0 1.108-0.892 2-2 2h-24c-1.108 0-2-0.892-2-2v-24c0-1.108 0.892-2 2-2z" fill="#0f2e61" opacity=".15"/>
   <path id="path4172" d="m20 18c-1.108 0-2 0.892-2 2v24c0 1.108 0.892 2 2 2h24c1.108 0 2-0.892 2-2v-24c0-1.108-0.892-2-2-2h-24zm0 1.0312h24c0.54712 0 0.96875 0.42163 0.96875 0.96875v24c0 0.54712-0.42163 0.96875-0.96875 0.96875h-24c-0.54712 0-0.96875-0.42163-0.96875-0.96875v-24c0-0.54712 0.42163-0.96875 0.96875-0.96875z" fill="#fff" opacity=".3"/>
   <path id="path4174" d="m20 16.969c-1.6603 0-3.0312 1.371-3.0312 3.0312v24c0 1.6603 1.371 3.0312 3.0312 3.0312h24c1.6603 0 3.0312-1.371 3.0312-3.0312v-24c0-1.6603-1.371-3.0312-3.0312-3.0312h-24zm0 1.0312h24c1.108 0 2 0.892 2 2v24c0 1.108-0.892 2-2 2h-24c-1.108 0-2-0.892-2-2v-24c0-1.108 0.892-2 2-2z" fill="#0c1752" opacity=".3"/>
  </g>
 </g>
 <g id="layer1">
  <path id="rect2419" d="m12 6c-3.324 0-6 2.676-6 6v72c0 3.324 2.676 6 6 6h72c3.324 0 6-2.676 6-6v-72c0-3.324-2.676-6-6-6h-72zm5 8h1 60 1c1.6838 0 3 1.3162 3 3v1 60 1c1e-6 1.6838-1.3162 3-3 3h-1-60-1c-1.6838 1e-6 -3-1.3162-3-3v-1-60-1c0-1.6838 1.3162-3 3-3z" fill="url(#linearGradient3466)"/>
  <path id="rect3728" d="m12 6c-3.324 0-6 2.676-6 6v2 68 2c0 0.33472 0.04135 0.6507 0.09375 0.96875 0.0487 0.2956 0.09704 0.59692 0.1875 0.875 0.00988 0.03038 0.020892 0.0636 0.03125 0.09375 0.098865 0.28777 0.23488 0.54745 0.375 0.8125 0.14459 0.27351 0.31562 0.53562 0.5 0.78125s0.37378 0.47347 0.59375 0.6875c0.43995 0.42806 0.94291 0.81453 1.5 1.0938 0.27854 0.13961 0.57347 0.24695 0.875 0.34375-0.2562-0.10022-0.48671-0.23627-0.71875-0.375-0.00741-0.0044-0.023866 0.0045-0.03125 0-0.031933-0.0193-0.062293-0.04251-0.09375-0.0625-0.1204-0.0767-0.23102-0.16351-0.34375-0.25-0.10617-0.0808-0.21328-0.16111-0.3125-0.25-0.17793-0.16143-0.34746-0.34539-0.5-0.53125-0.10758-0.13026-0.21839-0.26528-0.3125-0.40625-0.025089-0.03838-0.038446-0.08587-0.0625-0.125-0.064763-0.10303-0.13023-0.20452-0.1875-0.3125-0.10101-0.19471-0.20567-0.4157-0.28125-0.625-0.00796-0.02181-0.023589-0.04055-0.03125-0.0625-0.031825-0.09195-0.035804-0.18683-0.0625-0.28125-0.030332-0.10662-0.070389-0.20303-0.09375-0.3125-0.072879-0.34151-0.125-0.6982-0.125-1.0625v-2-68-2c0-2.7818 2.2182-5 5-5h2 68 2c2.7818 0 5 2.2182 5 5v2 68 2c0 0.3643-0.05212 0.72099-0.125 1.0625-0.04415 0.20689-0.08838 0.39766-0.15625 0.59375-0.0077 0.02195-0.0233 0.04069-0.03125 0.0625-0.06274 0.17374-0.13838 0.36745-0.21875 0.53125-0.04158 0.0828-0.07904 0.16995-0.125 0.25-0.0546 0.09721-0.12677 0.18835-0.1875 0.28125-0.09411 0.14096-0.20492 0.276-0.3125 0.40625-0.14317 0.17445-0.30314 0.347-0.46875 0.5-0.01117 0.0102-0.01998 0.02115-0.03125 0.03125-0.13839 0.12556-0.28509 0.23444-0.4375 0.34375-0.10257 0.07315-0.20432 0.15336-0.3125 0.21875-0.0074 0.0045-0.02384-0.0044-0.03125 0-0.23204 0.13873-0.46255 0.27478-0.71875 0.375 0.30153-0.0968 0.59646-0.20414 0.875-0.34375 0.55709-0.27922 1.0601-0.66569 1.5-1.0938 0.21997-0.21403 0.40937-0.44186 0.59375-0.6875s0.35541-0.50774 0.5-0.78125c0.14012-0.26505 0.27614-0.52473 0.375-0.8125 0.01041-0.03078 0.02133-0.06274 0.03125-0.09375 0.09046-0.27808 0.1388-0.5794 0.1875-0.875 0.0524-0.31805 0.09375-0.63403 0.09375-0.96875v-2-68-2c0-3.324-2.676-6-6-6h-72z" fill="url(#linearGradient3188)" opacity=".7"/>
  <rect id="rect3425" x="13" y="13" width="70" height="70" rx="4" ry="4" fill="none" stroke="url(#linearGradient3436)" stroke-linecap="square" stroke-linejoin="round" stroke-opacity=".69658" stroke-width="2"/>
  <path id="path3615" d="m12 90c-3.324 0-6-2.676-6-6v-2-68-2c0-0.33472 0.04135-0.6507 0.09375-0.96875 0.0487-0.2956 0.09704-0.59692 0.1875-0.875 0.00988-0.03038 0.020892-0.0636 0.03125-0.09375 0.098865-0.28777 0.23488-0.54745 0.375-0.8125 0.14459-0.27351 0.31562-0.53562 0.5-0.78125s0.37378-0.47347 0.59375-0.6875c0.43995-0.42806 0.94291-0.81453 1.5-1.0938 0.27854-0.13961 0.57347-0.24695 0.875-0.34375-0.2562 0.10022-0.48671 0.23627-0.71875 0.375-0.00741 0.0044-0.023866-0.0045-0.03125 0-0.031933 0.0193-0.062293 0.04251-0.09375 0.0625-0.1204 0.0767-0.23102 0.16351-0.34375 0.25-0.10617 0.0808-0.21328 0.16111-0.3125 0.25-0.17793 0.16143-0.34746 0.34539-0.5 0.53125-0.10758 0.13026-0.21839 0.26528-0.3125 0.40625-0.025089 0.03838-0.038446 0.08587-0.0625 0.125-0.064763 0.10303-0.13023 0.20452-0.1875 0.3125-0.10101 0.19471-0.20567 0.4157-0.28125 0.625-0.00796 0.02181-0.023589 0.04055-0.03125 0.0625-0.031825 0.09195-0.035804 0.18683-0.0625 0.28125-0.030332 0.10662-0.070389 0.20303-0.09375 0.3125-0.072879 0.34151-0.125 0.6982-0.125 1.0625v2 68 2c0 2.7818 2.2182 5 5 5h2 68 2c2.7818 0 5-2.2182 5-5v-2-68-2c0-0.3643-0.05212-0.72099-0.125-1.0625-0.04415-0.20689-0.08838-0.39766-0.15625-0.59375-0.0077-0.02195-0.0233-0.04069-0.03125-0.0625-0.06274-0.17374-0.13838-0.36745-0.21875-0.53125-0.04158-0.0828-0.07904-0.16995-0.125-0.25-0.0546-0.09721-0.12677-0.18835-0.1875-0.28125-0.09411-0.14096-0.20492-0.276-0.3125-0.40625-0.14317-0.17445-0.30314-0.347-0.46875-0.5-0.01117-0.0102-0.01998-0.02115-0.03125-0.03125-0.13839-0.12556-0.28509-0.23444-0.4375-0.34375-0.10257-0.07315-0.20432-0.15336-0.3125-0.21875-0.0074-0.0045-0.02384 0.0044-0.03125 0-0.23204-0.13873-0.46255-0.27478-0.71875-0.375 0.30153 0.0968 0.59646 0.20414 0.875 0.34375 0.55709 0.27922 1.0601 0.66569 1.5 1.0938 0.21997 0.21403 0.40937 0.44186 0.59375 0.6875s0.35541 0.50774 0.5 0.78125c0.14012 0.26505 0.27614 0.52473 0.375 0.8125 0.01041 0.03078 0.02133 0.06274 0.03125 0.09375 0.09046 0.27808 0.1388 0.5794 0.1875 0.875 0.0524 0.31805 0.09375 0.63403 0.09375 0.96875v2 68 2c0 3.324-2.676 6-6 6h-72z" fill="url(#radialGradient2893)" opacity=".4"/>
 </g>
 <g id="layer5" fill-rule="evenodd" opacity=".7">
  <path id="path3660" d="m44.844 8.0625 1.3438 3.875h31.812 1c2.754 0 5.0625 2.3085 5.0625 5.0625v1 60 1c2e-6 2.754-2.3085 5.0625-5.0625 5.0625h-1-6.875l1.3438 3.875h11.531c2.2218 0 3.9375-1.7157 3.9375-3.9375v-72c0-2.2218-1.7157-3.9375-3.9375-3.9375h-39.156z" fill="url(#linearGradient3693)" opacity=".4"/>
  <path id="path3664" d="m48.656 16.125 22.031 63.75h8.3125c0.5388 0 0.875-0.3362 0.875-0.875v-62c0-0.5388-0.33619-0.875-0.875-0.875z" fill="url(#linearGradient3701)" opacity=".7"/>
  <path id="path2669" d="m48.656 16.125 22.031 63.75h1l-22.031-63.75h-1z" fill="url(#linearGradient2675)" opacity=".5"/>
 </g>
</svg>
