<?xml version="1.0" encoding="UTF-8"?>
<!-- Created with Inkscape (http://www.inkscape.org/) -->
<svg id="svg2408" width="96" height="96" version="1.0" xmlns="http://www.w3.org/2000/svg" xmlns:cc="http://creativecommons.org/ns#" xmlns:dc="http://purl.org/dc/elements/1.1/" xmlns:rdf="http://www.w3.org/1999/02/22-rdf-syntax-ns#" xmlns:xlink="http://www.w3.org/1999/xlink">
 <defs id="defs2410">
  <linearGradient id="linearGradient3701">
   <stop id="stop3703" stop-color="#fff" offset="0"/>
   <stop id="stop3705" stop-color="#fff" stop-opacity="0" offset="1"/>
  </linearGradient>
  <linearGradient id="ButtonShadow" x1="45.448" x2="45.448" y1="92.54" y2="7.0165" gradientTransform="scale(1.0059 .99417)" gradientUnits="userSpaceOnUse">
   <stop id="stop3750" offset="0"/>
   <stop id="stop3752" stop-opacity=".58824" offset="1"/>
  </linearGradient>
  <filter id="filter3174">
   <feGaussianBlur id="feGaussianBlur3176" stdDeviation="1.71"/>
  </filter>
  <filter id="filter3794" x="-.192" y="-.192" width="1.384" height="1.384">
   <feGaussianBlur id="feGaussianBlur3796" stdDeviation="5.28"/>
  </filter>
  <clipPath id="clipPath3613">
   <rect id="rect3615" x="6" y="6" width="84" height="84" rx="6" ry="6" fill="#fff"/>
  </clipPath>
  <linearGradient id="linearGradient3617" x1="48" x2="48" y1="90" y2="5.9877" gradientUnits="userSpaceOnUse">
   <stop id="stop3189" stop-color="#787878" offset="0"/>
   <stop id="stop3191" stop-color="#b4b4b4" offset="1"/>
  </linearGradient>
  <linearGradient id="ButtonShadow-0" x1="45.448" x2="45.448" y1="92.54" y2="7.0165" gradientTransform="matrix(1.0059 0 0 .99417 100 0)" gradientUnits="userSpaceOnUse">
   <stop id="stop3750-8" offset="0"/>
   <stop id="stop3752-5" stop-opacity=".58824" offset="1"/>
  </linearGradient>
  <linearGradient id="linearGradient3780" x1="32.251" x2="32.251" y1="6.1317" y2="90.239" gradientTransform="matrix(1.0238 0 0 1.0119 -1.1429 -98.071)" gradientUnits="userSpaceOnUse" xlink:href="#ButtonShadow-0"/>
  <linearGradient id="linearGradient3721" x1="32.251" x2="32.251" y1="6.1317" y2="90.239" gradientTransform="translate(0,-97)" gradientUnits="userSpaceOnUse" xlink:href="#ButtonShadow-0"/>
  <clipPath id="clipPath4403">
   <path id="path4405" d="m30.916 135.97c-0.93727 0.54113-1.2283 1.7475-0.67792 2.7008l1.9375 3.3558c-1.4181 1.4141-2.6223 3.012-3.5955 4.71l-3.7836-0.99095c-0.53163-0.14245-1.0379-0.11751-1.4762 0.13061-0.43816 0.24835-0.79654 0.66758-0.9366 1.1903l-1.9788 7.3851c-0.2801 1.0454 0.36595 2.0654 1.4291 2.3503l3.7722 1.0336c-0.0062 1.9571 0.23771 3.943 0.75876 5.8767l-3.3558 1.9375c-0.95328 0.55037-1.3044 1.7407-0.7633 2.6779l3.8125 6.6034c0.54113 0.93727 1.7475 1.2283 2.7008 0.67793l3.3558-1.9375c1.4141 1.4181 3.012 2.6223 4.71 3.5954l-0.99094 3.7836c-0.28489 1.0632 0.27543 2.1328 1.3209 2.4128l7.3851 1.9788c1.0454 0.28011 2.0654-0.36588 2.3503-1.4291l1.0336-3.7722c1.9571 6e-3 3.943-0.23771 5.8767-0.75876l1.9375 3.3558c0.55038 0.95328 1.7407 1.3044 2.6779 0.7633l6.6034-3.8125c0.93726-0.54113 1.2283-1.7475 0.67792-2.7008l-1.9375-3.3558c1.4181-1.4141 2.6223-3.012 3.5955-4.71l3.7836 0.99094c1.0632 0.2849 2.1327-0.27549 2.4128-1.3209l1.9788-7.3851c0.2801-1.0454-0.36595-2.0654-1.4291-2.3503l-3.7722-1.0336c0.0062-1.9571-0.2377-3.943-0.75875-5.8767l3.3558-1.9375c0.95327-0.55037 1.3044-1.7407 0.7633-2.6779l-3.8125-6.6034c-0.54113-0.93726-1.7475-1.2283-2.7008-0.67792l-3.3558 1.9375c-1.4141-1.4181-3.012-2.6223-4.71-3.5955l0.99094-3.7836c0.28489-1.0632-0.27542-2.1328-1.3209-2.4128l-7.3851-1.9788c-1.0454-0.28011-2.0654 0.36588-2.3503 1.4291l-1.0336 3.7722c-1.9571-6e-3 -3.943 0.2377-5.8767 0.75875l-1.9375-3.3558c-0.55038-0.95328-1.7407-1.3044-2.6779-0.7633l-6.6034 3.8125zm10.052 9.7851c6.6961-3.866 15.258-1.5718 19.124 5.1244s1.5717 15.258-5.1244 19.124c-6.6961 3.866-15.258 1.5717-19.124-5.1244s-1.5717-15.258 5.1244-19.124z" display="block" fill="url(#linearGradient4407)"/>
  </clipPath>
  <linearGradient id="linearGradient4213" x1="48.234" x2="126.14" y1="48.047" y2="66.233" gradientUnits="userSpaceOnUse" xlink:href="#linearGradient4071-3"/>
  <linearGradient id="linearGradient4071-3">
   <stop id="stop4073-8" offset="0"/>
   <stop id="stop4075-4" stop-opacity="0" offset="1"/>
  </linearGradient>
  <linearGradient id="linearGradient4215" x1="48.055" x2="126.67" y1="48.032" y2="62.839" gradientUnits="userSpaceOnUse" xlink:href="#linearGradient4071-3"/>
  <linearGradient id="linearGradient4217" x1="47.997" x2="127.05" y1="48.029" y2="60.29" gradientUnits="userSpaceOnUse" xlink:href="#linearGradient4071-3"/>
  <linearGradient id="linearGradient4219" x1="47.998" x2="127.42" y1="48.029" y2="57.665" gradientUnits="userSpaceOnUse" xlink:href="#linearGradient4071-3"/>
  <linearGradient id="linearGradient4221" x1="48.234" x2="126.14" y1="48.047" y2="66.233" gradientUnits="userSpaceOnUse" xlink:href="#linearGradient3701"/>
  <linearGradient id="linearGradient4223" x1="48.055" x2="126.67" y1="48.032" y2="62.839" gradientUnits="userSpaceOnUse" xlink:href="#linearGradient3701"/>
  <linearGradient id="linearGradient4225" x1="47.997" x2="127.05" y1="48.029" y2="60.29" gradientUnits="userSpaceOnUse" xlink:href="#linearGradient3701"/>
  <linearGradient id="linearGradient4227" x1="47.998" x2="127.42" y1="48.029" y2="57.665" gradientUnits="userSpaceOnUse" xlink:href="#linearGradient3701"/>
  <linearGradient id="linearGradient3141" x1="20.759" x2="20.759" y1="1" y2="45.017" gradientTransform="matrix(1.2791 0 0 1.2791 17.302 18.582)" gradientUnits="userSpaceOnUse">
   <stop id="stop3311" stop-color="#f0f0f0" offset="0"/>
   <stop id="stop3313" stop-color="#aaa" offset="1"/>
  </linearGradient>
  <linearGradient id="linearGradient3917" x1="48" x2="48" y1="20.221" y2="138.66" gradientUnits="userSpaceOnUse">
   <stop id="stop3739" stop-color="#fff" offset="0"/>
   <stop id="stop3741" stop-color="#fff" stop-opacity="0" offset="1"/>
  </linearGradient>
  <radialGradient id="radialGradient3217-7" cx="63.938" cy="95.866" r="20.688" gradientTransform="matrix(.14332 -.14331 .83745 .8374 38.232 -15.648)" gradientUnits="userSpaceOnUse">
   <stop id="stop3407-7" stop-color="#d0d0d0" offset="0"/>
   <stop id="stop3409-2" stop-color="#a1a1a1" offset="1"/>
  </radialGradient>
  <linearGradient id="linearGradient3219-7" x1="40.113" x2="40.113" y1="2.6025" y2="75.04" gradientUnits="userSpaceOnUse">
   <stop id="stop3555-2" stop-color="#5496b4" stop-opacity=".61832" offset="0"/>
   <stop id="stop3557-6" stop-color="#dfecf2" stop-opacity=".30534" offset="1"/>
  </linearGradient>
  <linearGradient id="linearGradient3221-1" x1="12.75" x2="63.25" y1="11.75" y2="64" gradientUnits="userSpaceOnUse">
   <stop id="stop3194-6" stop-color="#404040" offset="0"/>
   <stop id="stop3200-1" stop-color="#b7b7b7" offset=".5"/>
   <stop id="stop3196-5" stop-color="#404040" offset="1"/>
  </linearGradient>
  <filter id="filter3274-9" color-interpolation-filters="sRGB">
   <feGaussianBlur id="feGaussianBlur3276-4" stdDeviation="1.9857422"/>
  </filter>
  <linearGradient id="linearGradient3223-9" x1="31.623" x2="24.881" y1="-4.4534" y2="48.321" gradientTransform="matrix(.9931 0 0 .9931 .51207 .51034)" gradientUnits="userSpaceOnUse" xlink:href="#linearGradient3701"/>
  <linearGradient id="linearGradient3225-7" x1="124.34" x2="10.007" y1="42.894" y2="21.098" gradientUnits="userSpaceOnUse" xlink:href="#linearGradient3701"/>
  <radialGradient id="radialGradient3227-7" cx="31.357" cy="22.818" r="7.357" gradientTransform="matrix(1 4.829e-8 -3.481e-8 .72085 -6.5191e-6 6.3697)" gradientUnits="userSpaceOnUse" xlink:href="#linearGradient3701"/>
  <linearGradient id="linearGradient3229-1" x1="53.797" x2="61.487" y1="73.685" y2="81.817" gradientTransform="matrix(.68752 -.68749 .68752 .68749 23.861 39.569)" gradientUnits="userSpaceOnUse">
   <stop id="stop3427-5" offset="0"/>
   <stop id="stop3429-9" stop-opacity="0" offset="1"/>
  </linearGradient>
  <linearGradient id="linearGradient3231-7" x1="72" x2="55.941" y1="129.12" y2="129.12" gradientTransform="matrix(.97228 0 0 .97228 -11.108 44.853)" gradientUnits="userSpaceOnUse">
   <stop id="stop3365-6" offset="0"/>
   <stop id="stop3377-7" stop-color="#646464" offset=".2"/>
   <stop id="stop3371-3" stop-color="#c8c8c8" offset=".3"/>
   <stop id="stop3373-6" stop-color="#646464" offset=".4"/>
   <stop id="stop3367-5" offset="1"/>
  </linearGradient>
  <linearGradient id="linearGradient3233-6" x1="64.414" x2="64.414" y1="87.406" y2="75.818" gradientTransform="matrix(.68752 -.68749 .68752 .68749 23.861 39.569)" gradientUnits="userSpaceOnUse" xlink:href="#linearGradient3701"/>
  <filter id="filter3439-3" x="-.09373" y="-.16673" width="1.1875" height="1.3335" color-interpolation-filters="sRGB">
   <feGaussianBlur id="feGaussianBlur3441-9" stdDeviation="0.31930287"/>
  </filter>
  <linearGradient id="linearGradient4132-4" x1="22.221" x2="83.447" y1="14.908" y2="78.168" gradientTransform="rotate(22.965 24.823 24.388)" gradientUnits="userSpaceOnUse" xlink:href="#linearGradient4071-3"/>
  <linearGradient id="linearGradient4207" x1="22.221" x2="83.447" y1="14.908" y2="78.168" gradientTransform="rotate(10.104 8.8536 21.979)" gradientUnits="userSpaceOnUse" xlink:href="#linearGradient4071-3"/>
  <linearGradient id="linearGradient4390" x1="48" x2="48" y1="88" y2="-40" gradientTransform="matrix(1,0,0,-1,0,92)" gradientUnits="userSpaceOnUse" xlink:href="#linearGradient3701"/>
  <linearGradient id="linearGradient4429" x1="48" x2="112.12" y1="82" y2="82.455" gradientUnits="userSpaceOnUse" spreadMethod="reflect" xlink:href="#linearGradient3701"/>
  <linearGradient id="linearGradient3228" x1="90" x2="48" y1="88" y2="88" gradientUnits="userSpaceOnUse" spreadMethod="reflect">
   <stop id="stop3894" stop-opacity=".58824" offset="0"/>
   <stop id="stop3896" stop-opacity=".47059" offset=".1178"/>
   <stop id="stop3898" stop-opacity=".39216" offset=".2381"/>
   <stop id="stop3900" stop-opacity=".31373" offset="1"/>
  </linearGradient>
 </defs>
 <metadata id="metadata2413">
  <rdf:RDF>
   <cc:Work rdf:about="">
    <dc:format>image/svg+xml</dc:format>
    <dc:type rdf:resource="http://purl.org/dc/dcmitype/StillImage"/>
    <dc:title/>
   </cc:Work>
  </rdf:RDF>
 </metadata>
 <g id="layer2" display="none">
  <rect id="rect3745" x="5" y="7" width="86" height="85" rx="6" ry="6" fill="url(#ButtonShadow)" filter="url(#filter3174)" opacity=".9"/>
 </g>
 <g id="layer4">
  <path id="path3786-1" transform="scale(1,-1)" d="m12-95.031c-5.5111 0-10.031 4.5202-10.031 10.031v71c0 5.5111 4.5202 10.031 10.031 10.031h72c5.5111 0 10.031-4.5202 10.031-10.031v-71c0-5.5111-4.5202-10.031-10.031-10.031h-72z" fill="url(#linearGradient3780)" opacity=".08"/>
  <path id="path3778" transform="scale(1,-1)" d="m12-94.031c-4.9716 0-9.0312 4.0596-9.0312 9.0312v71c0 4.9716 4.0596 9.0312 9.0312 9.0312h72c4.9716 0 9.0312-4.0596 9.0312-9.0312v-71c0-4.9716-4.0596-9.0312-9.0312-9.0312h-72z" fill="url(#linearGradient3780)" opacity=".1"/>
  <path id="path3770" transform="scale(1,-1)" d="m12-93c-4.4091 0-8 3.5909-8 8v71c0 4.4091 3.5909 8 8 8h72c4.4091 0 8-3.5909 8-8v-71c0-4.4091-3.5909-8-8-8h-72z" fill="url(#linearGradient3780)" opacity=".2"/>
  <rect id="rect3723" transform="scale(1,-1)" x="5" y="-92" width="86" height="85" rx="7" ry="7" fill="url(#linearGradient3780)" opacity=".3"/>
  <rect id="rect3716" transform="scale(1,-1)" x="6" y="-91" width="84" height="84" rx="6" ry="6" fill="url(#linearGradient3721)" opacity=".45"/>
 </g>
 <g id="layer1">
  <rect id="rect2419" x="6" y="6" width="84" height="84" rx="6" ry="6" fill="url(#linearGradient3617)"/>
  <g id="g907">
   <path id="rect4377" d="m12 86c-3.324 0-6-2.676-6-6v-68c0-3.324 2.676-6 6-6h72c3.324 0 6 2.676 6 6v68c0 3.324-2.676 6-6 6zm0-0.96875h72c2.8049 0 5.0312-2.2264 5.0312-5.0312v-68c0-2.8049-2.226-5.0312-5.031-5.0312h-72c-2.8049 0-5.0312 2.2263-5.0312 5.0312v68c0 2.8049 2.2264 5.0312 5.0312 5.0312z" fill="url(#linearGradient4390)" opacity=".3"/>
   <path id="rect4414" d="m6 78v2c0 3.324 2.676 6 6 6h72c3.324 0 6-2.676 6-6v-2c0 3.324-2.676 6-6 6h-72c-3.324 0-6-2.676-6-6z" fill="url(#linearGradient4429)" opacity=".1"/>
   <g id="layer4-3">
    <path id="path3888" d="m6 80v4c0 3.324 2.676 6 6 6h72c3.324 0 6-2.676 6-6v-4c0 3.324-2.676 6-6 6h-72c-3.324 0-6-2.676-6-6z" fill="url(#linearGradient3228)"/>
    <path id="rect4345" d="m6 82v2c0 3.324 2.676 6 6 6h72c3.324 0 6-2.676 6-6v-2c0 3.324-2.676 6-6 6h-72c-3.324 0-6-2.676-6-6z" color="#000000" opacity=".1"/>
    <path id="rect4336" d="m6 83v1c0 3.324 2.676 6 6 6h72c3.324 0 6-2.676 6-6v-1c0 3.324-2.676 6-6 6h-72c-3.324 0-6-2.676-6-6z" color="#000000" opacity=".15"/>
   </g>
  </g>
 </g>
 <g id="layer5">
  <rect id="rect3171" x="15" y="15" width="66" height="66" rx="12" ry="12" clip-path="url(#clipPath3613)" fill="url(#linearGradient3917)" filter="url(#filter3794)" opacity=".15" stroke="#fff" stroke-linecap="round" stroke-width=".5"/>
 </g>
 <g id="layer3">
  <g id="g1144" transform="translate(0 -2.9996)">
   <path id="path4367" d="m44.188 18.398c-2.8121 0-5.0391 2.3571-5.0391 5.1016v1.8711c-0.55913 0.20879-1.1113 0.4374-1.6543 0.68555l-1.3223-1.3223c-0.81542-0.81542-2.0206-1.5421-3.5059-1.5547-1.3033-0.01113-2.6037 0.50802-3.5879 1.4922l-5.4062 5.4062c-1.984 1.984-1.8462 5.1848 0.0625 7.0938l1.3223 1.3223c-0.24815 0.54299-0.47676 1.0952-0.68555 1.6543h-1.8711c-2.7445 0-5.1016 2.2269-5.1016 5.0391v7.625c0 2.8121 2.3571 5.0391 5.1016 5.0391h1.8711c0.20879 0.55913 0.4374 1.1113 0.68555 1.6543l-1.3223 1.3223c-1.9089 1.9089-2.0467 5.1098-0.0625 7.0938l5.4062 5.4062c1.9839 1.984 5.1848 1.8465 7.0938-0.0625l1.3223-1.3223c0.54299 0.24815 1.0952 0.47676 1.6543 0.68555v1.8711c0 2.7445 2.2269 5.1016 5.0391 5.1016h7.625c2.8121 0 5.0391-2.3571 5.0391-5.1016v-1.8711c0.55913-0.20879 1.1113-0.43739 1.6543-0.68555l1.3223 1.3223c1.909 1.909 5.1098 2.0464 7.0938 0.0625l5.4062-5.4062c1.984-1.984 1.8462-5.1848-0.0625-7.0938l-1.3223-1.3223c0.24815-0.54299 0.47676-1.0952 0.68555-1.6543h1.8711c2.7445 0 5.1016-2.2269 5.1016-5.0391v-7.625c0-2.8121-2.3571-5.0391-5.1016-5.0391h-1.8711c-0.20879-0.55913-0.43739-1.1113-0.68555-1.6543l1.3223-1.3223c1.9089-1.9089 2.0467-5.1098 0.0625-7.0938l-5.4062-5.4062c-1.9839-1.9839-5.1848-1.8465-7.0938 0.0625l-1.3223 1.3223c-0.54299-0.24815-1.0952-0.47676-1.6543-0.68555v-1.8711c0-2.7445-2.2269-5.1016-5.0391-5.1016zm3.8125 19.703c6.0753 0 10.898 4.8231 10.898 10.898s-4.8231 10.898-10.898 10.898-10.898-4.8231-10.898-10.898 4.8231-10.898 10.898-10.898z" display="block" opacity=".05"/>
   <path id="path4363" d="m44.188 19.449c-2.2266 0-3.9883 1.8697-3.9883 4.0508v2.5449c-1.0091 0.34665-1.986 0.75558-2.9297 1.2246l-1.834-1.8086 0.0039 0.0059c-0.67148-0.67147-1.629-1.2266-2.7754-1.2363-1.0221-0.0087-2.0632 0.38354-2.8535 1.1738l-5.4062 5.4062c-1.5703 1.5704-1.4554 4.1108 0.0625 5.6289l-0.0059-0.0039 1.8086 1.834c-0.46898 0.94366-0.87791 1.9206-1.2246 2.9296h-2.5449c-2.1811 0-4.0508 1.7617-4.0508 3.9883v7.625c0 2.2266 1.8697 3.9883 4.0508 3.9883h2.5449c0.34665 1.0091 0.75558 1.986 1.2246 2.9297l-1.8086 1.834 0.0059-0.0039c-1.5181 1.5181-1.633 4.0586-0.0625 5.6289l5.4062 5.4062c1.5703 1.5703 4.1108 1.4556 5.6289-0.0625l-0.0039 0.0059 1.834-1.8086c0.94371 0.46903 1.9206 0.87796 2.9297 1.2246v2.5449c0 2.1811 1.7617 4.0508 3.9883 4.0508h7.625c2.2266 0 3.9883-1.8697 3.9883-4.0508v-2.5449c1.0091-0.34665 1.986-0.75558 2.9297-1.2246l1.834 1.8086-0.0039-0.0059c1.5181 1.5181 4.0586 1.6328 5.6289 0.0625l5.4062-5.4062c1.5703-1.5704 1.4554-4.1108-0.0625-5.6289l0.0059 0.0039-1.8086-1.834c0.46903-0.94371 0.87796-1.9206 1.2246-2.9297h2.5448c2.1811 0 4.0508-1.7617 4.0508-3.9883v-7.625c0-2.2266-1.8697-3.9883-4.0508-3.9883h-2.5449c-0.34665-1.009-0.75558-1.9859-1.2246-2.9296l1.8086-1.834-0.0059 0.0039c1.5181-1.5181 1.633-4.0586 0.0625-5.6289l-5.4062-5.4062c-1.5703-1.5703-4.1108-1.4556-5.6289 0.0625l0.0039-0.0059-1.834 1.8086c-0.94366-0.46898-1.9206-0.87791-2.9296-1.2246v-2.5449c0-2.1811-1.7617-4.0508-3.9883-4.0508zm3.8125 17.602c6.63 0 11.949 5.3192 11.949 11.949s-5.3192 11.949-11.949 11.949-11.949-5.3192-11.949-11.949 5.3192-11.949 11.949-11.949z" display="block" opacity=".08"/>
   <path id="path4359" d="m44.188 20.477c-1.6496 0-2.9609 1.3921-2.9609 3.0234v3.2012c-1.4691 0.45018-2.8746 1.0405-4.2031 1.7539l-2.2988-2.2734c-0.52527-0.52527-1.2482-0.91694-2.0605-0.92383-0.75932-0.0065-1.5442 0.2668-2.1387 0.86133l-5.4062 5.4062c-1.1615 1.1615-1.0746 3.062 0.0625 4.1992l2.2734 2.2988c-0.71337 1.3285-1.3037 2.734-1.7539 4.2031h-3.2012c-1.6313 0-3.0234 1.3113-3.0234 2.9609v7.625c0 1.6496 1.3921 2.9609 3.0234 2.9609h3.2012c0.45019 1.4691 1.0405 2.8746 1.7539 4.2031l-2.2734 2.2988c-1.1372 1.1372-1.2241 3.0378-0.0625 4.1992l5.4062 5.4062c1.1614 1.1615 3.062 1.0747 4.1992-0.0625l2.2988-2.2734c1.3285 0.71337 2.734 1.3037 4.2031 1.7539v3.2012c0 1.6313 1.3113 3.0234 2.9609 3.0234h7.625c1.6496 0 2.9609-1.3921 2.9609-3.0234v-3.2012c1.4691-0.45018 2.8746-1.0405 4.2031-1.7539l2.2988 2.2734c1.1372 1.1372 3.0378 1.2239 4.1992 0.0625l5.4062-5.4062c1.1615-1.1615 1.0746-3.062-0.0625-4.1992l-2.2734-2.2988c0.71337-1.3285 1.3037-2.734 1.7539-4.2031h3.2012c1.6313 0 3.0234-1.3113 3.0234-2.9609v-7.625c0-1.6496-1.3921-2.9609-3.0234-2.9609h-3.2012c-0.45018-1.4691-1.0405-2.8747-1.7539-4.2031l2.2734-2.2988c1.1372-1.1372 1.2241-3.0378 0.0625-4.1992l-5.4062-5.4062c-1.1614-1.1614-3.062-1.0747-4.1992 0.0625l-2.2988 2.2734c-1.3285-0.71337-2.734-1.3037-4.2031-1.7539v-3.2012c0-1.6313-1.3113-3.0234-2.9609-3.0234zm3.8125 15.547c7.1784 0 12.977 5.7981 12.977 12.977s-5.7981 12.977-12.977 12.977-12.977-5.7981-12.977-12.977 5.7981-12.977 12.977-12.977z" display="block" opacity=".2"/>
   <path id="path4353" d="m44.188 21.5c-1.0823 0-1.9375 0.89924-1.9375 2v3.875c-1.9351 0.5156-3.7769 1.2973-5.4688 2.2812l-2.7812-2.75c-0.38918-0.38918-0.84012-0.62073-1.3438-0.625-0.50363-0.0043-1.0236 0.17987-1.4062 0.5625l-5.4062 5.4062c-0.76526 0.76527-0.71577 1.9716 0.0625 2.75l2.75 2.7812c-0.98393 1.6918-1.7656 3.5336-2.2812 5.4688h-3.875c-1.1008 0-2 0.85524-2 1.9375v7.625c0 1.0823 0.89925 1.9375 2 1.9375h3.875c0.51561 1.9352 1.2973 3.7769 2.2812 5.4688l-2.75 2.7812c-0.77835 0.77835-0.82784 1.9847-0.0625 2.75l5.4062 5.4062c0.76526 0.76527 1.9717 0.71585 2.75-0.0625l2.7812-2.75c1.6918 0.98394 3.5336 1.7657 5.4688 2.2812v3.875c0 1.1008 0.85524 2 1.9375 2h7.625c1.0823 0 1.9375-0.89925 1.9375-2v-3.875c1.9351-0.5156 3.7769-1.2973 5.4688-2.2812l2.7812 2.75c0.77835 0.77835 1.9847 0.82777 2.75 0.0625l5.4062-5.4062c0.76526-0.76527 0.71577-1.9716-0.0625-2.75l-2.75-2.7812c0.98393-1.6918 1.7657-3.5336 2.2812-5.4688h3.875c1.1007 0 2-0.85524 2-1.9375v-7.625c0-1.0823-0.89926-1.9375-2-1.9375h-3.875c-0.5156-1.9352-1.2973-3.7769-2.2812-5.4688l2.75-2.7812c0.77835-0.77835 0.82786-1.9847 0.0625-2.75l-5.4062-5.4062c-0.76527-0.76527-1.9717-0.71585-2.75 0.0625l-2.7812 2.75c-1.6918-0.98394-3.5336-1.7657-5.4688-2.2812v-3.875c0-1.1008-0.85525-2-1.9375-2zm3.8125 13.5c7.732 0 14 6.268 14 14s-6.268 14-14 14-14-6.268-14-14 6.268-14 14-14z" display="block" opacity=".3"/>
   <path id="rect3267" d="m44.188 20.5c-1.0823 0-1.9375 0.89924-1.9375 2v3.875c-1.9351 0.5156-3.7769 1.2973-5.4688 2.2812l-2.7812-2.75c-0.38918-0.38918-0.84012-0.62073-1.3438-0.625-0.50363-0.0043-1.0236 0.17987-1.4062 0.5625l-5.4062 5.4062c-0.76526 0.76527-0.71577 1.9716 0.0625 2.75l2.75 2.7812c-0.98393 1.6918-1.7656 3.5336-2.2812 5.4688h-3.875c-1.1008 0-2 0.85524-2 1.9375v7.625c0 1.0823 0.89925 1.9375 2 1.9375h3.875c0.51561 1.9352 1.2973 3.7769 2.2812 5.4688l-2.75 2.7812c-0.77835 0.77835-0.82784 1.9847-0.0625 2.75l5.4062 5.4062c0.76526 0.76527 1.9717 0.71585 2.75-0.0625l2.7812-2.75c1.6918 0.98394 3.5336 1.7657 5.4688 2.2812v3.875c0 1.1008 0.85524 2 1.9375 2h7.625c1.0823 0 1.9375-0.89925 1.9375-2v-3.875c1.9351-0.5156 3.7769-1.2973 5.4688-2.2812l2.7812 2.75c0.77835 0.77835 1.9847 0.82777 2.75 0.0625l5.4062-5.4062c0.76526-0.76527 0.71577-1.9716-0.0625-2.75l-2.75-2.7812c0.98393-1.6918 1.7657-3.5336 2.2812-5.4688h3.875c1.1007 0 2-0.85524 2-1.9375v-7.625c0-1.0823-0.89926-1.9375-2-1.9375h-3.875c-0.5156-1.9352-1.2973-3.7769-2.2812-5.4688l2.75-2.7812c0.77835-0.77835 0.82786-1.9847 0.0625-2.75l-5.4062-5.4062c-0.76527-0.76527-1.9717-0.71585-2.75 0.0625l-2.7812 2.75c-1.6918-0.98394-3.5336-1.7657-5.4688-2.2812v-3.875c0-1.1008-0.85525-2-1.9375-2zm3.8125 13.5c7.732 0 14 6.268 14 14s-6.268 14-14 14-14-6.268-14-14 6.268-14 14-14z" display="block" fill="url(#linearGradient3141)"/>
   <g id="g4176" transform="rotate(30 253.02 103)" clip-path="url(#clipPath4403)">
    <g id="g4011" transform="matrix(.14137 .99272 -1.1652 .12045 96.937 104.81)" opacity=".9">
     <path id="path4009" transform="rotate(-6.2214 47.948 50.203)" d="m108.9 48a60.896 60.896 0 0 1-6.5462 27.467l-54.35-27.467z" color="#000000" fill="url(#linearGradient4213)" opacity=".05"/>
     <path id="path4007" transform="rotate(-3.7483 47.985 48.898)" d="m108.9 48a60.896 60.896 0 0 1-4.4572 22.869l-56.439-22.869z" color="#000000" fill="url(#linearGradient4215)" opacity=".07"/>
     <path id="path4005" transform="rotate(-1.898 48 48)" d="m108.9 48a60.896 60.896 0 0 1-3.1299 19.272l-57.766-19.272z" color="#000000" fill="url(#linearGradient4217)" opacity=".1"/>
     <path id="path4003" d="m108.9 48a60.896 60.896 0 0 1-2.075 15.761l-58.821-15.761z" color="#000000" fill="url(#linearGradient4219)" opacity=".05"/>
    </g>
    <g id="g4027" transform="matrix(1.0628 -.13088 -.7401 3.2275 32.525 9.3323)" opacity=".9">
     <path id="path4029" transform="rotate(-6.2214 47.948 50.203)" d="m108.9 48a60.896 60.896 0 0 1-6.5462 27.467l-54.35-27.467z" color="#000000" fill="url(#linearGradient4221)" opacity=".2"/>
     <path id="path4031" transform="rotate(-3.7483 47.985 48.898)" d="m108.9 48a60.896 60.896 0 0 1-4.4572 22.869l-56.439-22.869z" color="#000000" fill="url(#linearGradient4223)" opacity=".4"/>
     <path id="path4033" transform="rotate(-1.898 48 48)" d="m108.9 48a60.896 60.896 0 0 1-3.1299 19.272l-57.766-19.272z" color="#000000" fill="url(#linearGradient4225)" opacity=".6"/>
     <path id="path4035" d="m108.9 48a60.896 60.896 0 0 1-2.075 15.761l-58.821-15.761z" color="#000000" fill="url(#linearGradient4227)" opacity=".8"/>
    </g>
    <g id="g4079" transform="rotate(128.08 20.984 103)" opacity=".5">
     <path id="path4081" transform="rotate(-6.2214 47.948 50.203)" d="m108.9 48a60.896 60.896 0 0 1-6.5462 27.467l-54.35-27.467z" color="#000000" fill="url(#linearGradient4213)" opacity=".05"/>
     <path id="path4083" transform="rotate(-3.7483 47.985 48.898)" d="m108.9 48a60.896 60.896 0 0 1-4.4572 22.869l-56.439-22.869z" color="#000000" fill="url(#linearGradient4215)" opacity=".07"/>
     <path id="path4085" transform="rotate(-1.898 48 48)" d="m108.9 48a60.896 60.896 0 0 1-3.1299 19.272l-57.766-19.272z" color="#000000" fill="url(#linearGradient4217)" opacity=".1"/>
     <path id="path4087" d="m108.9 48a60.896 60.896 0 0 1-2.075 15.761l-58.821-15.761z" color="#000000" fill="url(#linearGradient4219)" opacity=".1"/>
    </g>
    <g id="g4097" transform="matrix(-.068172 -1.046 2.7107 .60163 -79.095 179.08)" opacity=".8">
     <path id="path4099" transform="rotate(-6.2214 47.948 50.203)" d="m108.9 48a60.896 60.896 0 0 1-6.5462 27.467l-54.35-27.467z" color="#000000" fill="url(#linearGradient4213)" opacity=".05"/>
     <path id="path4101" transform="rotate(-3.7483 47.985 48.898)" d="m108.9 48a60.896 60.896 0 0 1-4.4572 22.869l-56.439-22.869z" color="#000000" fill="url(#linearGradient4215)" opacity=".07"/>
     <path id="path4103" transform="rotate(-1.898 48 48)" d="m108.9 48a60.896 60.896 0 0 1-3.1299 19.272l-57.766-19.272z" color="#000000" fill="url(#linearGradient4217)" opacity=".1"/>
     <path id="path4105" d="m108.9 48a60.896 60.896 0 0 1-2.075 15.761l-58.821-15.761z" color="#000000" fill="url(#linearGradient4219)" opacity=".1"/>
    </g>
    <g id="g4147" transform="matrix(-1.0628 .13088 .7401 -3.2275 62.997 306.67)" opacity=".9">
     <path id="path4149" transform="rotate(-6.2214 47.948 50.203)" d="m108.9 48a60.896 60.896 0 0 1-6.5462 27.467l-54.35-27.467z" color="#000000" fill="url(#linearGradient4221)" opacity=".2"/>
     <path id="path4151" transform="rotate(-3.7483 47.985 48.898)" d="m108.9 48a60.896 60.896 0 0 1-4.4572 22.869l-56.439-22.869z" color="#000000" fill="url(#linearGradient4223)" opacity=".4"/>
     <path id="path4153" transform="rotate(-1.898 48 48)" d="m108.9 48a60.896 60.896 0 0 1-3.1299 19.272l-57.766-19.272z" color="#000000" fill="url(#linearGradient4225)" opacity=".6"/>
     <path id="path4155" d="m108.9 48a60.896 60.896 0 0 1-2.075 15.761l-58.821-15.761z" color="#000000" fill="url(#linearGradient4227)" opacity=".8"/>
    </g>
   </g>
   <path id="path4382" d="m44.188 20.5c-1.0823 0-1.9375 0.89924-1.9375 2v1c0-1.1008 0.85524-2 1.9375-2h7.625c1.0823 0 1.9375 0.89924 1.9375 2v-1c0-1.1008-0.85525-2-1.9375-2zm-11.531 4.7812c-0.50363-0.0043-1.0236 0.17987-1.4062 0.5625l-5.4062 5.4062c-0.49644 0.49645-0.6346 1.1821-0.46875 1.8125 0.0841-0.29163 0.23476-0.5785 0.46875-0.8125l5.4062-5.4062c0.38263-0.38263 0.90262-0.5668 1.4062-0.5625 0.50363 0.0043 0.95457 0.23582 1.3438 0.625l2.7812 2.75c1.6918-0.98394 3.5336-1.7657 5.4688-2.2812v-1c-1.9351 0.5156-3.7769 1.2973-5.4688 2.2812l-2.7812-2.75c-0.38918-0.38918-0.84012-0.62073-1.3438-0.625zm30.719 0c-0.49455 0.01399-0.98583 0.23583-1.375 0.625l-2.7812 2.75c-1.6918-0.98394-3.5336-1.7657-5.4688-2.2812v1c1.9351 0.5156 3.7769 1.2973 5.4688 2.2812l2.7812-2.75c0.77835-0.77835 1.9847-0.82777 2.75-0.0625l5.4062 5.4062c0.23402 0.234 0.38464 0.52087 0.46875 0.8125 0.16587-0.63044 0.02775-1.3161-0.46875-1.8125l-5.4062-5.4062c-0.38264-0.38264-0.88045-0.57649-1.375-0.5625zm-35.062 12.156c-0.81276 1.5089-1.4876 3.1238-1.9375 4.8125h-3.875c-1.1008 0-2 0.85524-2 1.9375v1c0-1.0823 0.89925-1.9375 2-1.9375h3.875c0.51561-1.9352 1.2973-3.7769 2.2812-5.4688zm39.375 0-0.34375 0.34375c0.98393 1.6918 1.7657 3.5336 2.2812 5.4688h3.875c1.1007 0 2 0.85524 2 1.9375v-1c0-1.0823-0.89926-1.9375-2-1.9375h-3.875c-0.44992-1.6887-1.1247-3.3036-1.9375-4.8125zm-33.656 11.062c-0.0059 0.16679-0.03125 0.33178-0.03125 0.5 0 7.732 6.268 14 14 14s14-6.268 14-14c0-0.16822-0.02537-0.33321-0.03125-0.5-0.26459 7.4992-6.405 13.5-13.969 13.5s-13.704-6.0008-13.969-13.5zm-5.7188 11.062-2.4062 2.4375c-0.54035 0.54036-0.72222 1.2754-0.53125 1.9375 0.08981-0.34138 0.25783-0.66408 0.53125-0.9375l2.75-2.7812c-0.12532-0.21548-0.22512-0.43602-0.34375-0.65625zm39.375 0c-0.11863 0.22023-0.21843 0.44077-0.34375 0.65625l2.75 2.7812c0.27339 0.27342 0.44144 0.59612 0.53125 0.9375 0.19094-0.66213 9e-3 -1.3971-0.53125-1.9375z" display="block" fill="#fff" opacity=".7"/>
   <path id="path4391" d="m25.375 32.062c-0.19094 0.66213-9e-3 1.3971 0.53125 1.9375l2.4062 2.4375c0.11863-0.22023 0.21843-0.44077 0.34375-0.65625l-2.75-2.7812c-0.27339-0.27342-0.44144-0.59612-0.53125-0.9375zm45.25 0c-0.08982 0.34138-0.25783 0.66408-0.53125 0.9375l-2.75 2.7812c0.12532 0.21548 0.22512 0.43602 0.34375 0.65625l2.4062-2.4375c0.54035-0.54036 0.72222-1.2754 0.53125-1.9375zm-22.625 0.9375c-7.732 0-14 6.268-14 14 0 0.16822 0.02537 0.33321 0.03125 0.5 0.26459-7.4992 6.405-13.5 13.969-13.5s13.704 6.0008 13.969 13.5c0.0059-0.16679 0.03125-0.33178 0.03125-0.5 0-7.732-6.268-14-14-14zm-27.5 17.812v1c0 1.0823 0.89925 1.9375 2 1.9375h3.875c0.44994 1.6887 1.1247 3.3036 1.9375 4.8125l0.34375-0.34375c-0.98393-1.6918-1.7656-3.5336-2.2812-5.4688h-3.875c-1.1008 0-2-0.85524-2-1.9375zm55 0c0 1.0823-0.89926 1.9375-2 1.9375h-3.875c-0.5156 1.9352-1.2973 3.7769-2.2812 5.4688l0.34375 0.34375c0.81276-1.5089 1.4876-3.1238 1.9375-4.8125h3.875c1.1007 0 2-0.85524 2-1.9375zm-50.125 12.125c-0.16586 0.63044-0.02775 1.3161 0.46875 1.8125l5.4062 5.4062c0.76526 0.76527 1.9717 0.71585 2.75-0.0625l2.7812-2.75c1.6918 0.98394 3.5336 1.7657 5.4688 2.2812v-1c-1.9351-0.5156-3.7769-1.2973-5.4688-2.2812l-2.7812 2.75c-0.77835 0.77835-1.9847 0.82777-2.75 0.0625l-5.4062-5.4062c-0.23402-0.234-0.38464-0.52087-0.46875-0.8125zm45.25 0c-0.0841 0.29163-0.23476 0.5785-0.46875 0.8125l-5.4062 5.4062c-0.76527 0.76527-1.9717 0.71585-2.75-0.0625l-2.7812-2.75c-1.6918 0.98394-3.5336 1.7657-5.4688 2.2812v1c1.9351-0.5156 3.7769-1.2973 5.4688-2.2812l2.7812 2.75c0.77835 0.77835 1.9847 0.82777 2.75 0.0625l5.4062-5.4062c0.49644-0.49645 0.6346-1.1821 0.46875-1.8125zm-28.375 9.5625v1c0 1.1008 0.85524 2 1.9375 2h7.625c1.0823 0 1.9375-0.89925 1.9375-2v-1c0 1.1008-0.85525 2-1.9375 2h-7.625c-1.0823 0-1.9375-0.89925-1.9375-2z" display="block" opacity=".2"/>
  </g>
 </g>
 <g id="layer6">
  <g id="g1160" transform="translate(0 -3)">
   <path id="path3188" d="m50.012 48.471c-2.6476 3.0982-6.0171 5.2393-9.6322 6.3918 1.8279 0.34134 3.7679 1.1565 5.2624 2.9203-0.52614 0.67745-0.71291 1.592-0.20015 2.3237l19.454 27.742c0.62896 0.89738 1.913 1.1163 2.8143 0.49079l4.5217-3.1374c0.90137-0.62567 1.1199-1.9169 0.49079-2.8143l-19.409-27.745c-0.5309-0.75745-1.5208-0.90349-2.3576-0.59645-1.0616-1.8929-1.1895-3.8383-0.94328-5.5746z" fill="url(#linearGradient4207)" opacity=".6"/>
   <g id="g3204" transform="matrix(.52466 0 0 .52466 -13.243 24.786)">
    <path id="path3310" d="m101.04 56.585s14.868-7.1322 24.665 2.6645l5.844-5.6718c-9.8966-9.8961-2.7505-24.75-2.7505-24.75-2.1751 6.4212-2.9688 10.531-10.055 17.617-7.1292 7.1288-17.704 10.14-17.704 10.14z" fill="url(#radialGradient3217-7)" fill-rule="evenodd" stroke="#404141" stroke-width="1.906px"/>
    <circle id="path2420" transform="matrix(.99114 0 0 .99108 55.641 -16.41)" cx="38" cy="37.75" r="36.25" fill="url(#linearGradient3219-7)" stroke="url(#linearGradient3221-1)" stroke-width="3.8462"/>
    <path id="path3261" transform="matrix(.99802 0 0 .99797 55.503 -16.793)" d="m56.375 13.757c5.1373 5.4535 8.3125 12.862 8.3125 21.031-2e-6 16.735-13.28 30.344-29.625 30.344-6.3178 0-12.159-2.0437-16.969-5.5 5.3809 5.6651 12.897 9.1875 21.219 9.1875 16.345 0 29.625-13.577 29.625-30.312 0-10.231-4.974-19.259-12.562-24.75z" fill="#b0cedd" filter="url(#filter3274-9)" opacity=".6"/>
    <g id="g3184" transform="rotate(-15 94.2 21.964)">
     <path id="path3262" transform="matrix(.99802 0 0 .99797 54.75 -17.441)" d="m38.25 3.4609c-16.615 0-30.386 11.796-33.686 27.416a0.44507 0.44507 0 0 0 0.22656 0.48438c8.1907 4.3501 19.476 7.1777 32.084 7.1777 13.928 0 26.268-3.4488 34.547-8.5996a0.44507 0.44507 0 0 0 0.19727-0.48828c-3.8192-14.901-17.263-25.99-33.369-25.99z" fill="url(#linearGradient3223-9)" stroke="url(#linearGradient3225-7)" stroke-width="1.9098"/>
     <ellipse id="path3278" transform="matrix(1.433 0 0 1.4329 36.223 -31.24)" cx="31.357" cy="22.818" rx="7.357" ry="5.3033" fill="url(#radialGradient3227-7)" opacity=".6"/>
    </g>
    <path id="path3423" d="m122.72 43.55c-9.3346 9.4619 0.48615 13.368 0.48615 13.368-4.2538-3.2814-15.314-3.0383-15.314-3.0383s3.6461-0.97226 14.828-10.33z" fill="url(#linearGradient3229-1)" fill-rule="evenodd" opacity=".6"/>
    <rect id="rect3361" transform="matrix(.70713 -.70709 .70713 .70709 0 0)" x="43.826" y="130.9" width="14.584" height="69.032" rx="1.9446" ry="1.9446" fill="url(#linearGradient3231-7)" stroke="#000" stroke-width="1.906"/>
    <path id="path3413" d="m127.25 56.327-5.3812-5.2594s-1.3996-3.8332 2.4592-7.631c0.3507 6.974 5.092 10.763 5.092 10.763z" fill="url(#linearGradient3233-6)" fill-rule="evenodd"/>
    <path id="path3433" transform="matrix(.68752 -.68749 .68752 .68749 23.861 39.569)" d="m62.358 89.065 8.1759 0.04419s-2.9027 0.51644-3.403 4.552c-0.35355-4.0659-4.773-4.5962-4.773-4.5962z" fill="#fff" fill-rule="evenodd" filter="url(#filter3439-3)" opacity=".4"/>
    <path id="path3443" transform="matrix(.68752 -.68749 -.68752 -.68749 194.53 210.23)" d="m62.358 89.065 8.1759 0.04419s-2.9027 0.51644-3.403 4.552c-0.35355-4.0659-4.773-4.5962-4.773-4.5962z" fill="#fff" fill-rule="evenodd" filter="url(#filter3439-3)" opacity=".4"/>
   </g>
   <path id="path4130" d="m45.288 50.929c-3.2708 2.4311-7.0323 3.7684-10.813 4.0873 1.7061 0.73967 3.4159 1.9662 4.4803 4.0184-0.66374 0.54334-1.0494 1.3933-0.71237 2.2208l12.79 31.376c0.41342 1.0149 1.6165 1.5142 2.6344 1.1049l5.1066-2.0522c1.018-0.40932 1.5185-1.6195 1.1049-2.6344l-12.746-31.37c-0.34897-0.85662-1.2815-1.2193-2.1657-1.1063-0.61363-2.0818-0.30523-4.0068 0.32128-5.6447z" fill="url(#linearGradient4132-4)" opacity=".2"/>
  </g>
 </g>
</svg>
