<?xml version="1.0" encoding="UTF-8"?>
<svg id="svg77" width="96" height="96" version="1.1" xmlns="http://www.w3.org/2000/svg" xmlns:cc="http://creativecommons.org/ns#" xmlns:dc="http://purl.org/dc/elements/1.1/" xmlns:rdf="http://www.w3.org/1999/02/22-rdf-syntax-ns#" xmlns:xlink="http://www.w3.org/1999/xlink">
 <metadata id="metadata129">
  <rdf:RDF>
   <cc:Work rdf:about="">
    <dc:format>image/svg+xml</dc:format>
    <dc:type rdf:resource="http://purl.org/dc/dcmitype/StillImage"/>
   </cc:Work>
  </rdf:RDF>
 </metadata>
 <defs id="defs49">
  <linearGradient id="ButtonShadow" x1="45.448" x2="45.448" y1="92.54" y2="7.0165" gradientTransform="scale(1.0059 .99417)" gradientUnits="userSpaceOnUse">
   <stop id="stop7" offset="0"/>
   <stop id="stop9" stop-opacity=".58824" offset="1"/>
  </linearGradient>
  <filter id="filter3174">
   <feGaussianBlur id="feGaussianBlur12" stdDeviation="1.71"/>
  </filter>
  <filter id="filter3794" x="-.192" y="-.192" width="1.384" height="1.384">
   <feGaussianBlur id="feGaussianBlur15" stdDeviation="5.28"/>
  </filter>
  <linearGradient id="linearGradient3613" x1="48" x2="48" y1="20.221" y2="138.66" gradientUnits="userSpaceOnUse">
   <stop id="stop18" stop-color="#fff" offset="0"/>
   <stop id="stop20" stop-color="#fff" stop-opacity="0" offset="1"/>
  </linearGradient>
  <linearGradient id="linearGradient3617" x1="48" x2="48" y1="90" y2="5.9877" gradientUnits="userSpaceOnUse">
   <stop id="stop23" stop-color="#204a87" offset="0"/>
   <stop id="stop25" stop-color="#729fcf" offset="1"/>
  </linearGradient>
  <linearGradient id="ButtonShadow-0" x1="45.448" x2="45.448" y1="92.54" y2="7.0165" gradientTransform="matrix(1.0059 0 0 .99417 100 0)" gradientUnits="userSpaceOnUse">
   <stop id="stop28" offset="0"/>
   <stop id="stop30" stop-opacity=".58824" offset="1"/>
  </linearGradient>
  <linearGradient id="linearGradient3780" x1="32.251" x2="32.251" y1="6.1317" y2="90.239" gradientTransform="matrix(1.0238 0 0 1.0119 -1.1429 -98.071)" gradientUnits="userSpaceOnUse" xlink:href="#ButtonShadow-0"/>
  <linearGradient id="linearGradient3721" x1="32.251" x2="32.251" y1="6.1317" y2="90.239" gradientTransform="translate(0,-97)" gradientUnits="userSpaceOnUse" xlink:href="#ButtonShadow-0"/>
  <clipPath id="clipPath4355">
   <rect id="rect35" x="6" y="6" width="84" height="84" rx="6" ry="6" fill="#fff"/>
  </clipPath>
  <linearGradient id="linearGradient4390" x1="48" x2="48" y1="88" y2="-40" gradientTransform="matrix(1,0,0,-1,0,92)" gradientUnits="userSpaceOnUse">
   <stop id="stop2" stop-color="#fff" offset="0"/>
   <stop id="stop4" stop-color="#fff" stop-opacity="0" offset="1"/>
  </linearGradient>
 </defs>
 <g id="g53" display="none">
  <rect id="rect51" x="5" y="7" width="86" height="85" rx="6" ry="6" fill="url(#ButtonShadow)" filter="url(#filter3174)" opacity=".9"/>
 </g>
 <g id="g67">
  <g id="g63" fill="url(#linearGradient3780)">
   <path id="path55" transform="scale(1,-1)" d="m12-95.031c-5.5111 0-10.031 4.5202-10.031 10.031v71c0 5.5111 4.5202 10.031 10.031 10.031h72c5.5111 0 10.031-4.5202 10.031-10.031v-71c0-5.5111-4.5202-10.031-10.031-10.031h-72z" opacity=".08"/>
   <path id="path57" transform="scale(1,-1)" d="m12-94.031c-4.9716 0-9.0312 4.0596-9.0312 9.0312v71c0 4.9716 4.0596 9.0312 9.0312 9.0312h72c4.9716 0 9.0312-4.0596 9.0312-9.0312v-71c0-4.9716-4.0596-9.0312-9.0312-9.0312h-72z" opacity=".1"/>
   <path id="path59" transform="scale(1,-1)" d="m12-93c-4.4091 0-8 3.5909-8 8v71c0 4.4091 3.5909 8 8 8h72c4.4091 0 8-3.5909 8-8v-71c0-4.4091-3.5909-8-8-8h-72z" opacity=".2"/>
   <rect id="rect61" transform="scale(1,-1)" x="5" y="-92" width="86" height="85" rx="7" ry="7" opacity=".3"/>
  </g>
  <rect id="rect65" transform="scale(1,-1)" x="6" y="-91" width="84" height="84" rx="6" ry="6" fill="url(#linearGradient3721)" opacity=".45"/>
 </g>
 <g id="g87">
  <rect id="rect81" x="6" y="6" width="84" height="84" rx="6" ry="6" fill="url(#linearGradient3617)"/>
  <path id="path83" d="m12 6c-3.324 0-6 2.676-6 6v72c0 3.324 2.676 6 6 6h72c3.324 0 6-2.676 6-6v-72c0-3.324-2.676-6-6-6zm0 2h72c2.805 0 5 2.195 5 5v70c0 2.805-2.195 5-5 5h-72c-2.805 0-5-2.195-5-5v-70c0-2.805 2.195-5 5-5z" fill="url(#linearGradient4390)" opacity=".3"/>
 </g>
 <g id="g91">
  <rect id="rect89" x="15" y="15" width="66" height="66" rx="12" ry="12" clip-path="url(#clipPath4355)" fill="url(#linearGradient3613)" filter="url(#filter3794)" opacity=".1" stroke="#fff" stroke-linecap="round" stroke-width=".5"/>
 </g>
 <defs id="defs101">
  <linearGradient id="a" x1="8" x2="8" y1="1" y2="15" gradientUnits="userSpaceOnUse">
   <stop id="stop96" stop-color="#fafafa" offset="0"/>
   <stop id="stop98" stop-color="#ebebeb" offset="1"/>
  </linearGradient>
 </defs>
 <g id="g123">
  <path id="path103" transform="matrix(4,0,0,4,16,17)" d="m3.75 0.75c-0.17632 1.875e-5 -0.3719 0.011359-0.5918 0.025391-0.22372 0.014269-0.46532 0.036464-0.7207 0.066406l0.00781-0.001953c-0.24625 0.021292-0.49805 0.048594-0.75781 0.078125a0.25002 0.25002 0 0 0-0.00195 0c-0.253 0.029652-0.48987 0.060521-0.7168 0.089844a0.25002 0.25002 0 0 0-0.21875 0.26758l0.044922 0.58398a0.25002 0.25002 0 0 0 0.24805 0.23047c0.32005 1.7e-5 0.58768 0.016789 0.7832 0.042969 0.19924 0.027688 0.35266 0.065924 0.45117 0.10938a0.25002 0.25002 0 0 0 0.015625 0.00586c0.12004 0.043899 0.20008 0.091766 0.25977 0.14258a0.25002 0.25002 0 0 0 0.00977 0.00781c0.065202 0.050049 0.12685 0.11293 0.1875 0.18164 0.26976 0.34698 0.58334 0.77618 0.93359 1.2871a0.25002 0.25002 0 0 0 0 0.00195c0.35823 0.51115 0.728 1.0638 1.1016 1.6621 0.37395 0.59902 0.73685 1.2152 1.0957 1.8516a0.25002 0.25002 0 0 0 0.00195 0c0.34868 0.61126 0.66192 1.2026 0.94336 1.7773v4.4609c0-0.06268 0.02544-0.05891-0.019531-0.01953-0.044589 0.03905-0.13632 0.10038-0.26562 0.16797-0.2283 0.11613-0.71337 0.26478-1.416 0.40234a0.25002 0.25002 0 0 0-0.20312 0.24414v0.58398a0.25002 0.25002 0 0 0 0.25 0.25h6.0566a0.25002 0.25002 0 0 0 0.25-0.25v-0.58398a0.25002 0.25002 0 0 0-0.20703-0.24609c-0.36075-0.06462-0.66556-0.13518-0.9043-0.20508h-2e-3c-0.234-0.070913-0.41366-0.13931-0.54292-0.20312-0.12643-0.06647-0.21463-0.12677-0.24609-0.15625l0.00977 0.0098c-0.042672-0.04489-0.027344-0.07117-0.027344 0.0059v-4.461l3.8535-6.6074c0.07272-0.12183 0.20966-0.23476 0.44727-0.32422 0.25913-0.094521 0.66142-0.19501 1.1855-0.28906a0.25002 0.25002 0 0 0 0.20508-0.24609v-0.58398a0.25002 0.25002 0 0 0-0.25-0.25h-4.7344a0.25002 0.25002 0 0 0-0.25 0.25v0.58398a0.25002 0.25002 0 0 0 0.21875 0.24805c0.59139 0.07204 0.97575 0.17755 1.0859 0.24219a0.25002 0.25002 0 0 0 0.0039 0.00195c0.06061 0.034076 0.05841 0.047961 0.05664 0.041016-0.0018-0.00695 0.0074 0.00682-0.0293 0.066406a0.25002 0.25002 0 0 0-2e-3 0.00391l-2.7968 4.7012c-0.21714-0.40881-0.43434-0.81764-0.67969-1.2441l-0.0019531-0.0039062c-0.31472-0.5679-0.6445-1.1177-0.98242-1.6484l-0.00195-0.00391c-0.33025-0.53808-0.65893-1.0466-0.99024-1.5273-0.3316-0.48119-0.64222-0.90479-0.9375-1.2715a0.25002 0.25002 0 0 0-0.00977-0.011719c-0.157-0.1732-0.34848-0.3068-0.5625-0.39453-0.16746-0.077105-0.34868-0.1058-0.53125-0.11914a0.25002 0.25002 0 0 0-0.10547-0.023438z" opacity=".15"/>
  <g id="Bevel1"></g>
  <g id="Bevel2"></g>
  <path id="base" transform="translate(16,16) scale(4)" d="m3.7504 1c-0.16457 1.75e-5 -0.35694 0.011638-0.57634 0.025638-0.2195 0.014-0.45691 0.034738-0.70767 0.064138-0.24287 0.021-0.49284 0.0476-0.75145 0.077-0.25085 0.0294-0.48769 0.060463-0.71495 0.089828l0.043797 0.58359c0.32912 1.75e-5 0.60548 0.016363 0.81708 0.0448 0.21156 0.0294 0.38477 0.069563 0.518 0.12833 0.14093 0.051538 0.24924 0.11247 0.33558 0.18597 0.0863 0.066238 0.16296 0.14373 0.23333 0.22446 0.27426 0.35271 0.58849 0.78752 0.94111 1.3019 0.36048 0.51436 0.73275 1.0713 1.1089 1.6738 0.37615 0.60254 0.74115 1.2206 1.1016 1.8598 0.36046 0.63191 0.68764 1.2454 0.97759 1.8406v4.5213c0 0.10291-0.14095 0.22494-0.42313 0.37196-0.27431 0.13954-0.76787 0.28367-1.481 0.42329v0.58358h6.0553v-0.58358c-0.36831-0.06597-0.68307-0.13814-0.93382-0.21164-0.24287-0.0735-0.43476-0.14443-0.58364-0.21793-0.14095-0.0735-0.24367-0.14-0.30642-0.1988-0.06271-0.06597-0.09476-0.12274-0.09476-0.16684v-4.5277l3.8885-6.6697c0.10962-0.18364 0.30206-0.32681 0.57634-0.42968 0.2821-0.1029 0.69276-0.2058 1.2256-0.30142v-0.58361h-4.7348v0.58361c0.60338 0.0735 0.99378 0.16543 1.1819 0.27578 0.19589 0.11014 0.23437 0.2643 0.11679 0.45533l-3.0203 5.0792c-0.27428-0.52904-0.56875-1.0705-0.89006-1.6289-0.31344-0.56579-0.64062-1.1127-0.97758-1.6418-0.32913-0.53639-0.65576-1.0423-0.9849-1.5199-0.32912-0.47759-0.63656-0.89691-0.92652-1.257-0.13326-0.147-0.29398-0.25998-0.4742-0.33348-0.17254-0.080763-0.35181-0.12179-0.53987-0.12179z" fill="url(#a)"/>
  <path id="path113" transform="translate(0,2)" d="m20.074 20.018c-0.023665 0.00306-0.050606 0.006715-0.074219 0.009766l0.17578 2.334c1.3165 7e-5 2.4212 0.063984 3.2676 0.17773 0.84624 0.1176 1.5393 0.2786 2.0723 0.51367 0.56372 0.20615 0.99644 0.45014 1.3418 0.74414 0.3452 0.26495 0.65211 0.57552 0.93359 0.89844 1.097 1.4108 2.3532 3.1495 3.7637 5.207 1.4419 2.0574 2.9309 4.2853 4.4355 6.6953 1.5046 2.4102 2.9664 4.8827 4.4082 7.4395 1.4418 2.5276 2.7504 4.9825 3.9102 7.3633v-1c-1.1598-2.3808-2.4683-4.8356-3.9102-7.3633-1.4418-2.5568-2.9036-5.0293-4.4082-7.4395-1.5046-2.41-2.9936-4.6379-4.4355-6.6953-1.4105-2.0575-2.6666-3.7962-3.7637-5.207-0.28148-0.32292-0.58839-0.63348-0.93359-0.89844-0.34536-0.294-0.77808-0.53799-1.3418-0.74414-0.53292-0.23507-1.226-0.39607-2.0723-0.51367-0.8464-0.11375-1.9511-0.17766-3.2676-0.17773l-0.10156-1.3438zm36.986 0.75391v1c2.4135 0.294 3.976 0.66016 4.7285 1.1016 0.27698 0.15573 0.46998 0.33473 0.58984 0.5332 0.26455-0.62863 0.089971-1.151-0.58984-1.5332-0.75248-0.4414-2.315-0.80756-4.7285-1.1016zm18.939 0c-2.1314 0.38248-3.7739 0.79348-4.9023 1.2051-1.0971 0.41148-1.8662 0.98419-2.3047 1.7188l-15.555 26.678v1l15.555-26.678c0.43848-0.73456 1.2076-1.3073 2.3047-1.7188 1.1284-0.4116 2.771-0.8226 4.9023-1.2051v-1zm-39.309 53.229v1h24.221v-1h-24.221z" opacity=".3" stroke-width="4"/>
  <path id="path118" transform="translate(0,2)" d="m31.002 18c-0.65828 7e-5 -1.429 0.047514-2.3066 0.10352-0.878 0.056-1.827 0.13826-2.8301 0.25586-0.97148 0.084-1.9714 0.19099-3.0059 0.30859-1.0034 0.1176-1.9503 0.24192-2.8594 0.35938l0.074219 0.99023c0.88738-0.11474 1.8078-0.23506 2.7852-0.34961 1.0344-0.1176 2.0344-0.22459 3.0059-0.30859 1.003-0.1176 1.9521-0.19986 2.8301-0.25586 0.8776-0.056002 1.6484-0.10345 2.3066-0.10352 0.75224 0 1.468 0.16523 2.1582 0.48828 0.72088 0.294 1.3654 0.74598 1.8984 1.334 1.1598 1.4404 2.3886 3.117 3.7051 5.0273 1.3166 1.9104 2.6229 3.9345 3.9395 6.0801 1.3478 2.1164 2.6564 4.3032 3.9102 6.5664 1.2852 2.2336 2.4634 4.3995 3.5605 6.5156l12.082-20.316c0.30407-0.49401 0.34227-0.92607 0.12305-1.2891-0.040372 0.095935-0.060775 0.18789-0.12305 0.28906l-12.082 20.316c-1.0971-2.1162-2.2753-4.282-3.5605-6.5156-1.2538-2.2632-2.5623-4.45-3.9102-6.5664-1.3165-2.1456-2.6229-4.1697-3.9395-6.0801-1.3165-1.9104-2.5452-3.587-3.7051-5.0273-0.53304-0.588-1.1776-1.04-1.8984-1.334-0.69016-0.32305-1.406-0.48828-2.1582-0.48828zm26.059 0.43555v1h18.939v-1h-18.939zm-12.752 50.049c0 0.41164-0.56464 0.9002-1.6934 1.4883-1.0972 0.55816-3.0713 1.1349-5.9238 1.6934v1c2.8525-0.55848 4.8266-1.1352 5.9238-1.6934 1.1287-0.58808 1.6934-1.0766 1.6934-1.4883v-1zm8.9297 0v1c0 0.1764 0.12807 0.40409 0.37891 0.66797 0.251 0.2352 0.66081 0.50092 1.2246 0.79492 0.59552 0.294 1.3645 0.57709 2.3359 0.87109 1.003 0.294 2.2611 0.58378 3.7344 0.84766v-1c-1.4732-0.26388-2.7314-0.55366-3.7344-0.84766-0.97148-0.294-1.7404-0.57709-2.3359-0.87109-0.5638-0.294-0.97361-0.55972-1.2246-0.79492-0.25084-0.26388-0.37891-0.49157-0.37891-0.66797z" fill="#fff" stroke-width="4"/>
 </g>
</svg>
