<?xml version="1.0" encoding="UTF-8"?>
<!-- Created with Inkscape (http://www.inkscape.org/) -->
<svg id="svg2408" width="96" height="96" version="1.0" xmlns="http://www.w3.org/2000/svg" xmlns:cc="http://creativecommons.org/ns#" xmlns:dc="http://purl.org/dc/elements/1.1/" xmlns:rdf="http://www.w3.org/1999/02/22-rdf-syntax-ns#" xmlns:xlink="http://www.w3.org/1999/xlink">
 <defs id="defs2410">
  <linearGradient id="linearGradient4037">
   <stop id="stop4039" stop-color="#fff" offset="0"/>
   <stop id="stop4041" stop-color="#fff" stop-opacity="0" offset="1"/>
  </linearGradient>
  <linearGradient id="linearGradient3899">
   <stop id="stop3901" stop-color="#fff" offset="0"/>
   <stop id="stop3904" stop-color="#dbdbdb" offset=".66667"/>
   <stop id="stop3906" stop-color="#979797" offset="1"/>
  </linearGradient>
  <linearGradient id="linearGradient3995">
   <stop id="stop3997" stop-color="#fff" offset="0"/>
   <stop id="stop3897" stop-color="#dbdbdb" offset=".5"/>
   <stop id="stop3999" stop-color="#979797" offset="1"/>
  </linearGradient>
  <linearGradient id="linearGradient3941">
   <stop id="stop3943" stop-color="#872525" offset="0"/>
   <stop id="stop3945" stop-color="#501616" offset="1"/>
  </linearGradient>
  <linearGradient id="linearGradient3901">
   <stop id="stop3903" stop-color="#ebebeb" offset="0"/>
   <stop id="stop3905" stop-color="#b4b4b4" offset="1"/>
  </linearGradient>
  <linearGradient id="ButtonShadow" x1="45.448" x2="45.448" y1="92.54" y2="7.0165" gradientTransform="scale(1.0059 .99417)" gradientUnits="userSpaceOnUse">
   <stop id="stop3750" offset="0"/>
   <stop id="stop3752" stop-opacity=".58824" offset="1"/>
  </linearGradient>
  <filter id="filter3174" color-interpolation-filters="sRGB">
   <feGaussianBlur id="feGaussianBlur3176" stdDeviation="1.71"/>
  </filter>
  <filter id="filter3794" x="-.192" y="-.192" width="1.384" height="1.384" color-interpolation-filters="sRGB">
   <feGaussianBlur id="feGaussianBlur3796" stdDeviation="5.28"/>
  </filter>
  <linearGradient id="linearGradient3613" x1="48" x2="48" y1="20.221" y2="138.66" gradientUnits="userSpaceOnUse" xlink:href="#linearGradient4037"/>
  <clipPath id="clipPath3613">
   <rect id="rect3615" x="6" y="6" width="84" height="84" rx="6" ry="6" fill="#fff"/>
  </clipPath>
  <linearGradient id="linearGradient3617" x1="48" x2="48" y1="90" y2="5.9877" gradientUnits="userSpaceOnUse">
   <stop id="stop3702" stop-color="#1e1e1e" offset="0"/>
   <stop id="stop3704" stop-color="#464646" offset="1"/>
  </linearGradient>
  <linearGradient id="ButtonShadow-0" x1="45.448" x2="45.448" y1="92.54" y2="7.0165" gradientTransform="matrix(1.0059 0 0 .99417 100 0)" gradientUnits="userSpaceOnUse">
   <stop id="stop3750-8" offset="0"/>
   <stop id="stop3752-5" stop-opacity=".58824" offset="1"/>
  </linearGradient>
  <linearGradient id="linearGradient3780" x1="32.251" x2="32.251" y1="6.1317" y2="90.239" gradientTransform="matrix(1.0238 0 0 1.0119 -1.1429 -98.071)" gradientUnits="userSpaceOnUse" xlink:href="#ButtonShadow-0"/>
  <linearGradient id="linearGradient3721" x1="32.251" x2="32.251" y1="6.1317" y2="90.239" gradientTransform="translate(0,-97)" gradientUnits="userSpaceOnUse" xlink:href="#ButtonShadow-0"/>
  <radialGradient id="radialGradient3907" cx="53" cy="53.571" r="39" gradientTransform="matrix(.15385 0 0 .10256 44.846 -35.494)" gradientUnits="userSpaceOnUse" xlink:href="#linearGradient3995"/>
  <radialGradient id="radialGradient3947" cx="48" cy="48" r="12" gradientUnits="userSpaceOnUse" xlink:href="#linearGradient3941"/>
  <radialGradient id="radialGradient3985" cx="40" cy="25.714" r="39" gradientTransform="matrix(1 0 0 .35897 0 -49.231)" gradientUnits="userSpaceOnUse" xlink:href="#linearGradient3901"/>
  <radialGradient id="radialGradient3991" cx="41.5" cy="25.714" r="39" gradientTransform="matrix(.15385 1.2842e-8 0 .1282 40.615 -43.297)" gradientUnits="userSpaceOnUse" xlink:href="#linearGradient3995"/>
  <radialGradient id="radialGradient3993" cx="42" cy="53.571" r="39" gradientTransform="matrix(.1282 0 0 .10256 36.615 -35.494)" gradientUnits="userSpaceOnUse" xlink:href="#linearGradient3995"/>
  <radialGradient id="radialGradient3835" cx="47.721" cy="16.354" r="39" gradientTransform="matrix(2.389e-8 .17949 -.15385 2.0477e-8 49.516 28.435)" gradientUnits="userSpaceOnUse" xlink:href="#linearGradient3899"/>
  <radialGradient id="radialGradient3847" cx="40.582" cy="50.077" r="39" gradientTransform="matrix(-3.6031e-8 .17949 -.15385 -3.0883e-8 61.704 41.716)" gradientUnits="userSpaceOnUse" xlink:href="#linearGradient3899"/>
  <radialGradient id="radialGradient3851" cx="61.268" cy="37.918" r="39" gradientTransform="matrix(-2.8744e-8 .17949 -.15385 0 45.834 38.003)" gradientUnits="userSpaceOnUse" xlink:href="#linearGradient3899"/>
  <radialGradient id="radialGradient3876" cx="35.525" cy="37.269" r="19" gradientTransform="matrix(2.1053 -2.1943e-7 1.4263e-7 1.3684 -39.789 -14)" gradientUnits="userSpaceOnUse" xlink:href="#linearGradient3995"/>
  <radialGradient id="radialGradient3878" cx="36" cy="23" r="40" gradientTransform="matrix(1.175 0 0 .425 -6.3 28.225)" gradientUnits="userSpaceOnUse" xlink:href="#linearGradient3901"/>
  <linearGradient id="linearGradient3895" x1="46" x2="68" y1="45.371" y2="60" gradientUnits="userSpaceOnUse" xlink:href="#linearGradient4037" spreadMethod="reflect"/>
  <radialGradient id="radialGradient4043" cx="48" cy="48.5" r="42" gradientTransform="matrix(1 0 0 .67857 0 15.589)" gradientUnits="userSpaceOnUse" xlink:href="#linearGradient4037"/>
  <linearGradient id="linearGradient4390" x1="48" x2="48" y1="88" y2="-40" gradientTransform="matrix(1,0,0,-1,0,92)" gradientUnits="userSpaceOnUse" xlink:href="#linearGradient4037"/>
  <linearGradient id="linearGradient4429" x1="48" x2="112.12" y1="82" y2="82.455" gradientUnits="userSpaceOnUse" spreadMethod="reflect" xlink:href="#linearGradient4037"/>
  <linearGradient id="linearGradient3228" x1="90" x2="48" y1="88" y2="88" gradientUnits="userSpaceOnUse" spreadMethod="reflect">
   <stop id="stop3894" stop-opacity=".58824" offset="0"/>
   <stop id="stop3896" stop-opacity=".47059" offset=".1178"/>
   <stop id="stop3898" stop-opacity=".39216" offset=".2381"/>
   <stop id="stop3900" stop-opacity=".31373" offset="1"/>
  </linearGradient>
 </defs>
 <metadata id="metadata2413">
  <rdf:RDF>
   <cc:Work rdf:about="">
    <dc:format>image/svg+xml</dc:format>
    <dc:type rdf:resource="http://purl.org/dc/dcmitype/StillImage"/>
    <dc:title/>
   </cc:Work>
  </rdf:RDF>
 </metadata>
 <g id="layer2" display="none">
  <rect id="rect3745" x="5" y="7" width="86" height="85" rx="6" ry="6" fill="url(#ButtonShadow)" filter="url(#filter3174)" opacity=".9"/>
 </g>
 <g id="layer3">
  <path id="path3786" transform="scale(1,-1)" d="m12-95.031c-5.5111 0-10.031 4.5202-10.031 10.031v71c0 5.5111 4.5202 10.031 10.031 10.031h72c5.5111 0 10.031-4.5202 10.031-10.031v-71c0-5.5111-4.5202-10.031-10.031-10.031h-72z" fill="url(#linearGradient3780)" opacity=".08"/>
  <path id="path3778" transform="scale(1,-1)" d="m12-94.031c-4.9716 0-9.0312 4.0596-9.0312 9.0312v71c0 4.9716 4.0596 9.0312 9.0312 9.0312h72c4.9716 0 9.0312-4.0596 9.0312-9.0312v-71c0-4.9716-4.0596-9.0312-9.0312-9.0312h-72z" fill="url(#linearGradient3780)" opacity=".1"/>
  <path id="path3770" transform="scale(1,-1)" d="m12-93c-4.4091 0-8 3.5909-8 8v71c0 4.4091 3.5909 8 8 8h72c4.4091 0 8-3.5909 8-8v-71c0-4.4091-3.5909-8-8-8h-72z" fill="url(#linearGradient3780)" opacity=".2"/>
  <rect id="rect3723" transform="scale(1,-1)" x="5" y="-92" width="86" height="85" rx="7" ry="7" fill="url(#linearGradient3780)" opacity=".3"/>
  <rect id="rect3716" transform="scale(1,-1)" x="6" y="-91" width="84" height="84" rx="6" ry="6" fill="url(#linearGradient3721)" opacity=".45"/>
 </g>
 <rect id="rect2419" x="6" y="6" width="84" height="84" rx="6" ry="6" fill="url(#linearGradient3617)"/>
 <path id="rect3970" d="m6 20v1h84v-1zm0 2v1h84v-1zm0 2v1h84v-1zm0 2v1h84v-1zm0 2v1h84v-1zm0 2v1h84v-1zm0 2v1h84v-1zm0 2v1h84v-1zm0 2v1h84v-1zm0 2v1h84v-1zm0 2v1h84v-1zm0 2v1h84v-1zm0 2v1h84v-1zm0 2v1h84v-1zm0 2v1h84v-1zm0 2v1h84v-1zm0 2v1h84v-1zm0 2v1h84v-1zm0 2v1h84v-1zm0 2v1h84v-1zm0 2v1h84v-1zm0 2v1h84v-1zm0 2v1h84v-1zm0 2v1h84v-1zm0 2v1h84v-1zm0 2v1h84v-1zm0 2v1h84v-1zm0 2v1h84v-1zm0 2v1h84v-1z" color="#000000" fill="url(#radialGradient4043)" opacity=".2"/>
 <g id="layer5" display="none">
  <rect id="rect3171" x="15" y="15" width="66" height="66" rx="12" ry="12" clip-path="url(#clipPath3613)" fill="url(#linearGradient3613)" filter="url(#filter3794)" opacity=".05" stroke="#fff" stroke-linecap="round" stroke-width=".5"/>
 </g>
 <g id="layer4">
  <path id="path3862" transform="matrix(1.25,0,0,1.25,-12,-13)" d="m60 48a12 12 0 1 1-24 0 12 12 0 1 1 24 0z" color="#000000" fill="url(#radialGradient3947)"/>
  <path id="path3968" d="m47.969 37a0.48955 0.48955 0 0 0-0.40625 0.25l-0.875 1.5-7 12-0.875 1.5a0.48955 0.48955 0 0 0 0.4375 0.75h1.75 14 1.75a0.48955 0.48955 0 0 0 0.4375-0.75l-0.875-1.5-7-12-0.875-1.5a0.48955 0.48955 0 0 0-0.46875-0.25zm0.03125 5.5 4.375 7.5h-8.75l4.375-7.5z" color="#000000" opacity=".15" style="block-progression:tb;text-indent:0;text-transform:none"/>
  <path id="path3964" d="m48 37.5-0.875 1.5-7 12-0.875 1.5h1.75 14 1.75l-0.875-1.5-7-12-0.875-1.5zm0 4 5.25 9h-10.5l5.25-9z" color="#000000" opacity=".3" style="block-progression:tb;text-indent:0;text-transform:none"/>
  <path id="path3929" d="m48 26.938c-4.7579-0.02298-9.4489 1.756-13.125 4.75-1.1763-1.3324-3.2033-0.52972-4.7613-0.75-7.5059 0.02093-15.018-0.0418-22.52 0.03125-2.2067 0.49027-1.6328 3.1436-1.5927 4.79 0.00856 1.6224 0.27627 3.4138 0.6865 4.835 0.19791 2.6394 1.0973 5.304 2.2188 7.6875 0.797 0.44284 0.26482 1.5007 0.91704 2.1531 1.3896 2.3275 2.8889 4.8537 5.1142 6.4406 1.3064-0.16747 0.85352 1.2399 1.7812 1.75 4.0088 3.1428 8.7888 5.3602 13.75 6.4375 1.4473-0.18866 3.3335 0.52825 4.4062-0.75 6.6309 5.6267 16.855 6.3454 24.126 1.5205 1.4156-1.4912 2.2237-1.3277 3.8746-0.77045 2.0993 0.13107 4.1697-0.06461 6.114-0.95084 3.8836-1.3917 7.7932-3.2326 10.823-6.0492 0.07044-1.5523 2.053-0.91058 2.6355-2.3941 1.6126-2.0039 3.611-4.0879 4.2083-6.6371 0.55907-1.1014 1.4203-2.5403 1.7054-3.9701 0.6615-1.6178 0.77656-3.5512 1.1071-5.0924 0.60909-2.4356 0.65263-5.0728 0.5-7.5625-0.65379-2.0828-3.1548-1.3371-4.7912-1.4688-7.6402 0.041949-15.299-0.083715-22.928 0.0625-1.7159 1.456-2.9507-1.2151-4.7633-1.7054-2.9126-1.5319-6.1931-2.364-9.4867-2.3571zm0 8.125c7.1704-0.22189 13.508 6.4582 12.921 13.606-0.14667 7.1716-7.1438 13.147-14.249 12.203-7.154-0.51264-12.756-7.8032-11.461-14.849 0.82282-6.1754 6.5603-11.087 12.789-10.96z" color="#000000" opacity=".1"/>
  <path id="path3925" d="m48 28c-5.5155 0-10.505 2.2552-14.125 5.875-0.83665 0.83665-1.5713 1.7454-2.25 2.7188 0.67353-0.97924 1.414-1.8822 2.25-2.7188 0.04739-0.04742 0.07711-0.10934 0.125-0.15625a0.99476 0.99476 0 0 0-0.6875-1.7188h-25.312a0.99476 0.99476 0 0 0-1 1c0 2.0901 0.10428 4.1257 0.375 6.125a0.99476 0.99476 0 0 0 1 0.875h0.25a0.99476 0.99476 0 0 0-0.875 1.1875c0.41236 2.1553 1.0282 4.2184 1.8438 6.1875a0.99476 0.99476 0 0 0 0.90625 0.625h0.8125a0.99476 0.99476 0 0 0-0.78125 1.4688c1.1642 2.2598 2.6477 4.3358 4.5 6.2188a0.99476 0.99476 0 0 0 0.71875 0.3125h2.125a0.99476 0.99476 0 0 0-0.53125 1.7812c3.3286 2.6628 7.5879 4.7793 12.875 6.1875a0.99476 0.99476 0 0 0 0.25 0.03125h2.8438a0.99476 0.99476 0 0 0 0.6875-1.7188c-0.04789-0.04691-0.07761-0.10883-0.125-0.15625-0.83599-0.83652-1.5765-1.7395-2.25-2.7188 0.67868 0.97333 1.4133 1.8821 2.25 2.7188 3.6198 3.6198 8.6095 5.875 14.125 5.875s10.505-2.2552 14.125-5.875c0.83665-0.83665 1.5713-1.7454 2.25-2.7188-0.67353 0.97924-1.414 1.8822-2.25 2.7188-0.04739 0.04742-0.07711 0.10934-0.125 0.15625a0.99476 0.99476 0 0 0 0.6875 1.7188h2.8438a0.99476 0.99476 0 0 0 0.25-0.03125c5.2871-1.4082 9.5464-3.5247 12.875-6.1875a0.99476 0.99476 0 0 0-0.5625-1.7812h2.1562a0.99476 0.99476 0 0 0 0.71875-0.3125c1.8523-1.8829 3.3358-3.959 4.5-6.2188a0.99476 0.99476 0 0 0-0.84375-1.4688h0.875a0.99476 0.99476 0 0 0 0.90625-0.625c0.81553-1.9691 1.4314-4.0322 1.8438-6.1875a0.99476 0.99476 0 0 0-0.90625-1.1875h0.28125a0.99476 0.99476 0 0 0 1-0.875c0.27072-1.9993 0.375-4.0349 0.375-6.125a0.99476 0.99476 0 0 0-1-1h-25.312a0.99476 0.99476 0 0 0-0.6875 1.7188c0.04789 0.04691 0.07761 0.10883 0.125 0.15625 0.83599 0.83652 1.5765 1.7395 2.25 2.7188-0.67868-0.97333-1.4133-1.8821-2.25-2.7188-3.6198-3.6198-8.6095-5.875-14.125-5.875zm0 6c7.7467 0 14 6.2533 14 14s-6.2533 14-14 14-14-6.2533-14-14 6.2533-14 14-14zm-17.344 4.25c-0.67051 1.1903-1.2073 2.4564-1.625 3.7812 0.07007-0.22096 0.04778-0.46925 0.125-0.6875a0.99476 0.99476 0 0 0-0.8125-1.3438h0.71875a0.99476 0.99476 0 0 0 0.90625-0.5625c0.19771-0.41534 0.4646-0.78831 0.6875-1.1875zm34.688 0c0.2229 0.39919 0.48979 0.77216 0.6875 1.1875a0.99476 0.99476 0 0 0 0.90625 0.5625h0.75a0.99476 0.99476 0 0 0-0.84375 1.3438c0.07722 0.21825 0.05493 0.46654 0.125 0.6875-0.41773-1.3249-0.95449-2.591-1.625-3.7812zm-37.188 8.0938c-0.04629 0.55433-0.15625 1.0901-0.15625 1.6562s0.10996 1.1019 0.15625 1.6562c-0.01993-0.23814-0.11384-0.44662-0.125-0.6875a0.99476 0.99476 0 0 0-0.875-0.96875 0.99476 0.99476 0 0 0 0.875-0.96875c0.01116-0.24088 0.10507-0.44936 0.125-0.6875zm39.688 0c0.01993 0.23814 0.11384 0.44662 0.125 0.6875a0.99476 0.99476 0 0 0 0.875 0.96875 0.99476 0.99476 0 0 0-0.875 0.96875c-0.01116 0.24088-0.10507 0.44936-0.125 0.6875 0.04629-0.55433 0.15625-1.0901 0.15625-1.6562s-0.10996-1.1019-0.15625-1.6562zm-38.812 7.625c0.41773 1.3249 0.95449 2.591 1.625 3.7812-0.2229-0.39919-0.48979-0.77216-0.6875-1.1875a0.99476 0.99476 0 0 0-0.90625-0.5625h-0.75a0.99476 0.99476 0 0 0 0.84375-1.3438c-0.07722-0.21825-0.05493-0.46654-0.125-0.6875zm37.938 0c-0.07007 0.22096-0.04778 0.46925-0.125 0.6875a0.99476 0.99476 0 0 0 0.8125 1.3438h-0.71875a0.99476 0.99476 0 0 0-0.90625 0.5625c-0.19771 0.41534-0.4646 0.78831-0.6875 1.1875 0.67051-1.1903 1.2073-2.4564 1.625-3.7812z" color="#000000" opacity=".15"/>
  <path id="path3919" d="m48 29c-10.493 0-19 8.5066-19 19s8.5066 19 19 19 19-8.5066 19-19-8.5066-19-19-19zm-40 4c0 2.0541 0.11144 4.0536 0.375 6h20.688c1.0683-2.2442 2.4948-4.2808 4.25-6h-25.312zm40 0c8.2843 0 15 6.7157 15 15s-6.7157 15-15 15-15-6.7157-15-15 6.7157-15 15-15zm14.688 0c1.7552 1.7192 3.1817 3.7558 4.25 6h20.688c0.26356-1.9464 0.375-3.9459 0.375-6h-25.312zm-53.969 8c0.40035 2.0925 0.99272 4.0961 1.7812 6h16.531c0.09739-2.1015 0.51668-4.1042 1.1875-6h-19.5zm59.062 0c0.67082 1.8958 1.0901 3.8985 1.1875 6h16.531c0.78853-1.9039 1.3809-3.9075 1.7812-6h-19.5zm-56.375 8c1.1196 2.1732 2.5619 4.1888 4.3438 6h12.469c-0.67082-1.8958-1.0901-3.8985-1.1875-6h-15.625zm57.562 0c-0.0974 2.1015-0.51668 4.1042-1.1875 6h12.469c1.7818-1.8112 3.2242-3.8268 4.3438-6h-15.625zm-51 8c3.2067 2.5653 7.3238 4.6213 12.5 6h2.8438c-1.7552-1.7192-3.1817-3.7558-4.25-6h-11.094zm48.969 0c-1.0683 2.2442-2.4948 4.2808-4.25 6h2.8438c5.1762-1.3787 9.2933-3.4347 12.5-6h-11.094z" color="#000000" opacity=".3"/>
  <path id="path3939" transform="translate(0,-80)" d="m60 48a12 12 0 1 1-24 0 12 12 0 1 1 24 0z" color="#000000" fill="url(#radialGradient3947)"/>
  <path id="path3983" d="m9-46c-1.094e-4 0.03132 0 0.06241 0 0.09375 0 1.2997 0.11168 2.6059 0.34375 3.9062h26.156c1.3073-1.6331 2.9382-2.9817 4.7812-4h-31.281zm46.719 0c1.843 1.0183 3.4739 2.3669 4.7812 4h26.156c0.22852-1.2913 0.34375-2.6065 0.34375-3.9062 0-0.03134 1.09e-4 -0.06243 0-0.09375h-31.281zm-45.906 6c0.36896 1.3524 0.87614 2.691 1.5 4h21.219c0.36628-1.4165 0.90895-2.7642 1.625-4h-24.344zm52.031 0c0.71605 1.2358 1.2587 2.5835 1.625 4h21.219c0.6284-1.3092 1.1302-2.6407 1.5-4h-24.344zm-49.469 6c0.8215 1.3869 1.7831 2.72 2.9062 4h16.875c-0.082996-0.66024-0.15625-1.3173-0.15625-2s0.07325-1.3398 0.15625-2h-19.781zm51.469 0c0.083 0.66024 0.15625 1.3173 0.15625 2s-0.07325 1.3398-0.15625 2h16.812c1.145-1.2822 2.1344-2.6053 2.9688-4h-19.781zm-46.625 6c1.5435 1.4496 3.3024 2.796 5.2812 4h11.656c-0.71605-1.2358-1.2587-2.5835-1.625-4h-15.312zm46.25 0c-0.36628 1.4165-0.90895 2.7642-1.625 4h11.469c2.0184-1.1989 3.8031-2.5533 5.375-4h-15.219zm-37.219 6c3.8584 1.7692 8.3774 3.0677 13.531 3.7188-1.6357-0.9829-3.0942-2.2359-4.2812-3.7188h-9.25zm34.25 0c-1.1309 1.4127-2.5215 2.6006-4.0625 3.5625 4.9259-0.68318 9.2651-1.896 13-3.5625h-8.9375z" color="#000000" fill="url(#radialGradient3985)"/>
  <path id="path3981" d="m48-46c-7.732 0-14 6.268-14 14s6.268 14 14 14 14-6.268 14-14-6.268-14-14-14zm0 2c6.6274 0 12 5.3726 12 12s-5.3726 12-12 12-12-5.3726-12-12 5.3726-12 12-12z" color="#000000" fill="url(#radialGradient3985)"/>
  <path id="path3975" d="m48-43c-2.4853 0-4.5 2.0147-4.5 4.5s2.0147 4.5 4.5 4.5 4.5-2.0147 4.5-4.5-2.0147-4.5-4.5-4.5z" color="#000000" fill="url(#radialGradient3991)"/>
  <path id="path3969" d="m44.125-35.219-0.8125 1.4688c0.99258 0.18977 1.9491 0.64403 2.6875 1.375l0.65625-1.2188c-0.99957-0.27628-1.8781-0.85499-2.5312-1.625z" color="#000000" opacity=".5"/>
  <path id="path3967" d="m51.875-35.219c-0.65317 0.77001-1.5317 1.3487-2.5312 1.625l0.65625 1.2188c0.73845-0.73097 1.6949-1.1852 2.6875-1.375l-0.8125-1.4688z" color="#000000" opacity=".5"/>
  <path id="path3961" d="m42.688-33.25c-0.86459-0.0611-1.7554 0.12776-2.5625 0.59375-2.1523 1.2426-2.8989 4.0039-1.6562 6.1562s4.0039 2.8989 6.1562 1.6562 2.8989-4.0039 1.6562-6.1562c-0.77665-1.3452-2.1528-2.1482-3.5938-2.25z" color="#000000" fill="url(#radialGradient3993)"/>
  <path id="path3959" d="m53.312-33.25c-1.441 0.10184-2.8171 0.9048-3.5938 2.25-1.2426 2.1523-0.49607 4.9136 1.6562 6.1562s4.9136 0.49607 6.1562-1.6562 0.49607-4.9136-1.6562-6.1562c-0.80712-0.46599-1.6979-0.65485-2.5625-0.59375z" color="#000000" fill="url(#radialGradient3907)"/>
  <path id="path3957" d="m47.375-29.906c0.23177 1.0121 0.11657 2.0504-0.25 3h1.75c-0.36657-0.94958-0.48177-1.9879-0.25-3h-1.25z" color="#000000" opacity=".5"/>
  <path id="path4024" d="m9-46c-1.094e-4 0.03132 0 0.06241 0 0.09375 0 0.30376 0.018939 0.60194 0.03125 0.90625h29.656c0.51077-0.36286 1.042-0.69513 1.5938-1h-31.281zm39 0c-7.732 0-14 6.268-14 14 0 0.16822 0.02537 0.33321 0.03125 0.5 0.26459-7.4992 6.405-13.5 13.969-13.5s13.704 6.0008 13.969 13.5c0.005885-0.16679 0.03125-0.33178 0.03125-0.5 0-7.732-6.268-14-14-14zm7.7188 0c0.55179 0.30487 1.083 0.63714 1.5938 1h29.656c0.01217-0.30012 0.03125-0.60728 0.03125-0.90625 0-0.03134 1.09e-4 -0.06243 0-0.09375h-31.281zm-7.7188 3c-2.4853 0-4.5 2.0147-4.5 4.5 0 0.17178 0.04376 0.33323 0.0625 0.5 0.25239-2.2461 2.124-4 4.4375-4s4.1851 1.7539 4.4375 4c0.01874-0.16677 0.0625-0.32822 0.0625-0.5 0-2.4853-2.0147-4.5-4.5-4.5zm-38.188 3c0.09054 0.33188 0.20563 0.67002 0.3125 1h23.5c0.16587-0.34372 0.34079-0.6713 0.53125-1h-24.344zm52.031 0c0.19046 0.3287 0.36538 0.65628 0.53125 1h23.5c0.10656-0.3303 0.22176-0.66643 0.3125-1h-24.344zm-49.469 6c0.19813 0.33449 0.41028 0.67176 0.625 1h19.062c0.02869-0.33213 0.05225-0.66988 0.09375-1h-19.781zm51.469 0c0.0415 0.33012 0.06506 0.66787 0.09375 1h19.062c0.21927-0.32847 0.42378-0.66362 0.625-1h-19.781zm-21.812 0.75c-0.65312 0.04918-1.3009 0.24426-1.9062 0.59375-1.6046 0.92644-2.4186 2.7045-2.2188 4.4375 0.1499-1.3841 0.92351-2.6897 2.2188-3.4375 0.60534-0.34949 1.2531-0.54457 1.9062-0.59375 0.21771-0.0164 0.4401-0.01528 0.65625 0 1.441 0.10184 2.8171 0.9048 3.5938 2.25 0.31066 0.53808 0.49138 1.1065 0.5625 1.6875 0.09188-0.90638-0.07323-1.8401-0.5625-2.6875-0.77665-1.3452-2.1528-2.1482-3.5938-2.25-0.21615-0.01528-0.43854-0.0164-0.65625 0zm11.281 0c-1.441 0.10184-2.8171 0.9048-3.5938 2.25-0.48927 0.84744-0.65438 1.7811-0.5625 2.6875 0.07113-0.58096 0.25184-1.1494 0.5625-1.6875 0.77665-1.3452 2.1528-2.1482 3.5938-2.25 0.86459-0.0611 1.7554 0.12776 2.5625 0.59375 1.2952 0.74781 2.0689 2.0534 2.2188 3.4375 0.19986-1.733-0.61411-3.5111-2.2188-4.4375-0.80712-0.46599-1.6979-0.65485-2.5625-0.59375zm-21.281 1.75c-0.008164 0.16792-0.03125 0.32931-0.03125 0.5 0 0.34138 0.03381 0.66787 0.0625 1h0.09375c-0.06225-0.49518-0.10051-0.99623-0.125-1.5zm4 0c-0.007003 0.16831-0.03125 0.32997-0.03125 0.5 0 6.6274 5.3726 12 12 12s12-5.3726 12-12c0-0.17003-0.02425-0.33169-0.03125-0.5-0.26596 6.392-5.5114 11.5-11.969 11.5s-11.703-5.108-11.969-11.5zm27.938 0c-0.02449 0.50377-0.06275 1.0048-0.125 1.5h0.09375c0.028688-0.33213 0.0625-0.65862 0.0625-1 0-0.17069-0.02309-0.33208-0.03125-0.5zm-46.75 3.5c0.36451 0.34234 0.73641 0.6697 1.125 1h14.188c0.26885 1.0398 0.63601 2.0515 1.0938 3h0.53125c-0.71605-1.2358-1.2587-2.5835-1.625-4h-15.312zm46.25 0c-0.36628 1.4165-0.90895 2.7642-1.625 4h0.53125c0.45774-0.94854 0.8249-1.9602 1.0938-3h14.062c0.3956-0.3308 0.7847-0.65804 1.1562-1h-15.219zm-37.219 6c0.76197 0.34938 1.5617 0.68869 2.375 1h6.875c0.7349 0.91805 1.5794 1.7365 2.5 2.4688 0.58403 0.09331 1.1799 0.17404 1.7812 0.25-1.6357-0.9829-3.0942-2.2359-4.2812-3.7188h-9.25zm34.25 0c-1.1309 1.4127-2.5215 2.6006-4.0625 3.5625 0.595-0.08252 1.1721-0.1834 1.75-0.28125 0.8436-0.6864 1.6328-1.4322 2.3125-2.2812h6.4375c0.86043-0.31611 1.6955-0.64103 2.5-1h-8.9375z" color="#000000" fill="#fff" opacity=".4"/>
  <path id="rect3053" d="m8 32c0 2.0541 0.11144 4.0536 0.375 6h20.688c1.0683-2.2442 2.4948-4.2808 4.25-6h-25.312zm54.688 0c1.7552 1.7192 3.1817 3.7558 4.25 6h20.688c0.26356-1.9464 0.375-3.9459 0.375-6h-25.312zm-53.969 8c0.40035 2.0925 0.99272 4.0961 1.7812 6h16.531c0.09739-2.1015 0.51668-4.1042 1.1875-6h-19.5zm59.062 0c0.67082 1.8958 1.0901 3.8985 1.1875 6h16.531c0.78853-1.9039 1.3809-3.9075 1.7812-6h-19.5zm-56.375 8c1.1196 2.1732 2.5619 4.1888 4.3438 6h12.469c-0.67082-1.8958-1.0901-3.8985-1.1875-6h-15.625zm57.562 0c-0.0974 2.1015-0.51668 4.1042-1.1875 6h12.469c1.7818-1.8112 3.2242-3.8268 4.3438-6h-15.625zm-51 8c3.2067 2.5653 7.3238 4.6213 12.5 6h2.8438c-1.7552-1.7192-3.1817-3.7558-4.25-6h-11.094zm48.969 0c-1.0683 2.2442-2.4948 4.2808-4.25 6h2.8438c5.1762-1.3787 9.2933-3.4347 12.5-6h-11.094z" color="#000000" fill="url(#radialGradient3878)"/>
  <path id="path3829" d="m48 28c-10.493 0-19 8.5066-19 19s8.5066 19 19 19 19-8.5066 19-19-8.5066-19-19-19zm0 4c8.2843 0 15 6.7157 15 15s-6.7157 15-15 15-15-6.7157-15-15 6.7157-15 15-15z" color="#000000" fill="url(#radialGradient3876)"/>
  <path id="path3908" d="m48 37-0.875 1.5-7 12-0.875 1.5h1.75 14 1.75l-0.875-1.5-7-12-0.875-1.5zm0 4 5.25 9h-10.5l5.25-9z" color="#000000" fill="#ccc" style="block-progression:tb;text-indent:0;text-transform:none"/>
  <path id="path3962" d="m48 33.281c-3.4132 0-6.2188 2.8056-6.2188 6.2188s2.8056 6.2188 6.2188 6.2188 6.2188-2.8056 6.2188-6.2188-2.8056-6.2188-6.2188-6.2188zm-6.5312 12c-1.1981-0.08467-2.3986 0.20786-3.5 0.84375-2.9598 1.7089-3.9535 5.5182-2.25 8.4688 1.7032 2.9501 5.4836 3.9867 8.4375 2.2812 2.9559-1.7066 3.9884-5.5118 2.2812-8.4688-1.0671-1.8483-2.9775-2.9843-4.9688-3.125zm13.062 0c-1.9913 0.14073-3.9016 1.2767-4.9688 3.125-1.7072 2.9569-0.67464 6.7622 2.2812 8.4688 2.9539 1.7054 6.7343 0.66882 8.4375-2.2812 1.7035-2.9506 0.70984-6.7599-2.25-8.4688-1.1014-0.63589-2.3019-0.92842-3.5-0.84375z" color="#000000" opacity=".1"/>
  <path id="path3958" d="m48 33.938c-3.0594 0-5.5625 2.5032-5.5625 5.5625s2.5032 5.5625 5.5625 5.5625 5.5625-2.5032 5.5625-5.5625-2.5032-5.5625-5.5625-5.5625zm-6.5625 12c-1.0655-0.0753-2.1628 0.17644-3.1562 0.75-2.6519 1.531-3.5291 4.9452-2 7.5938 1.5282 2.6469 4.9127 3.5611 7.5625 2.0312 2.65-1.53 3.5622-4.9421 2.0312-7.5938-0.95707-1.6577-2.6579-2.6555-4.4375-2.7812zm13.125 0c-1.7796 0.12577-3.4804 1.1235-4.4375 2.7812-1.5309 2.6516-0.6188 6.0637 2.0312 7.5938 2.6498 1.5299 6.0343 0.61568 7.5625-2.0312 1.5291-2.6485 0.65185-6.0627-2-7.5938-0.99344-0.57356-2.0908-0.8253-3.1562-0.75z" color="#000000" opacity=".15"/>
  <path id="path3942" d="m48 34.489c-2.7614 0-5 2.2386-5 5s2.2386 5 5 5 5-2.2386 5-5-2.2386-5-5-5zm-6.5938 12c-0.96065-0.06789-1.947 0.13848-2.8438 0.65625-2.3915 1.3807-3.1932 4.4523-1.8125 6.8438s4.421 3.2245 6.8125 1.8438c2.3915-1.3807 3.2245-4.4523 1.8438-6.8438-0.86294-1.4947-2.3989-2.3868-4-2.5zm13.188 0c-1.6011 0.11315-3.1371 1.0053-4 2.5-1.3807 2.3915-0.54771 5.463 1.8438 6.8438 2.3915 1.3807 5.4318 0.54771 6.8125-1.8438s0.57896-5.463-1.8125-6.8438c-0.8968-0.51777-1.8831-0.72414-2.8438-0.65625z" color="#000000" opacity=".3"/>
  <path id="path3833" d="m48 34c-2.7614 0-5 2.2386-5 5s2.2386 5 5 5 5-2.2386 5-5-2.2386-5-5-5z" color="#000000" fill="url(#radialGradient3835)"/>
  <path id="path3845" d="m59.258 53.5c1.3807-2.3915 0.56134-5.4494-1.8301-6.8301-2.3915-1.3807-5.4494-0.56134-6.8301 1.8301s-0.56134 5.4494 1.8301 6.8301c2.3915 1.3807 5.4494 0.56134 6.8301-1.8301z" color="#000000" fill="url(#radialGradient3847)"/>
  <path id="path3849" d="m36.742 53.5c1.3807 2.3915 4.4387 3.2108 6.8301 1.8301 2.3915-1.3807 3.2108-4.4387 1.8301-6.8301s-4.4387-3.2108-6.8301-1.8301c-2.3915 1.3807-3.2108 4.4387-1.8301 6.8301z" color="#000000" fill="url(#radialGradient3851)"/>
  <path id="path3886" d="m48 28c-10.493 0-19 8.5066-19 19s8.5066 19 19 19 19-8.5066 19-19-8.5066-19-19-19zm-40 4c0 2.0541 0.11144 4.0536 0.375 6h20.688c1.0683-2.2442 2.4948-4.2808 4.25-6h-25.312zm40 0c8.2843 0 15 6.7157 15 15s-6.7157 15-15 15-15-6.7157-15-15 6.7157-15 15-15zm14.688 0c1.7552 1.7192 3.1817 3.7558 4.25 6h20.688c0.26356-1.9464 0.375-3.9459 0.375-6h-25.312zm-53.969 8c0.40035 2.0925 0.99272 4.0961 1.7812 6h16.531c0.09739-2.1015 0.51668-4.1042 1.1875-6h-19.5zm59.062 0c0.67082 1.8958 1.0901 3.8985 1.1875 6h16.531c0.78853-1.9039 1.3809-3.9075 1.7812-6h-19.5zm-56.375 8c1.1196 2.1732 2.5619 4.1888 4.3438 6h12.469c-0.67082-1.8958-1.0901-3.8985-1.1875-6h-15.625zm57.562 0c-0.0974 2.1015-0.51668 4.1042-1.1875 6h12.469c1.7818-1.8112 3.2242-3.8268 4.3438-6h-15.625zm-51 8c3.2067 2.5653 7.3238 4.6213 12.5 6h2.8438c-1.7552-1.7192-3.1817-3.7558-4.25-6h-11.094zm48.969 0c-1.0683 2.2442-2.4948 4.2808-4.25 6h2.8438c5.1762-1.3787 9.2933-3.4347 12.5-6h-11.094z" color="#000000" fill="url(#linearGradient3895)"/>
  <path id="path3933" d="m48 28c-10.493 0-19 8.5066-19 19 0 0.16936 0.02685 0.3317 0.03125 0.5 0.26849-10.259 8.6447-18.5 18.969-18.5s18.7 8.2407 18.969 18.5c0.004405-0.1683 0.03125-0.33064 0.03125-0.5 0-10.493-8.5066-19-19-19zm-40 4c0 0.33882 0.025003 0.66414 0.03125 1h24.344c0.30462-0.34243 0.60977-0.67898 0.9375-1h-25.312zm54.688 0c0.32773 0.32102 0.63288 0.65757 0.9375 1h24.344c0.006247-0.33586 0.03125-0.66118 0.03125-1h-25.312zm-53.969 8c0.064039 0.33472 0.14487 0.66988 0.21875 1h18.969c0.10074-0.33476 0.1963-0.67161 0.3125-1h-19.5zm59.062 0c0.1162 0.32839 0.21176 0.66524 0.3125 1h18.969c0.07388-0.33012 0.15471-0.66528 0.21875-1h-19.5zm-34.75 7.5c-0.00556 0.16786-0.03125 0.33078-0.03125 0.5 0 8.2843 6.7157 15 15 15s15-6.7157 15-15c0-0.16922-0.02569-0.33214-0.03125-0.5-0.26665 8.0502-6.8537 14.5-14.969 14.5s-14.702-6.4498-14.969-14.5zm-21.625 0.5c0.17516 0.34 0.37148 0.6679 0.5625 1h15.062c0.08053 1.7375 0.39417 3.4022 0.875 5h0.3125c-0.67082-1.8958-1.0901-3.8985-1.1875-6h-15.625zm57.562 0c-0.0974 2.1015-0.51668 4.1042-1.1875 6h0.3125c0.48083-1.5978 0.79447-3.2625 0.875-5h15.062c0.19102-0.3321 0.38734-0.66 0.5625-1h-15.625zm-51 8c0.42947 0.34357 0.88126 0.67511 1.3438 1h9.75c0.86881 1.8252 1.9857 3.5085 3.3125 5h0.9375c-1.7552-1.7192-3.1817-3.7558-4.25-6h-11.094zm48.969 0c-1.0683 2.2442-2.4948 4.2808-4.25 6h0.9375c1.3268-1.4915 2.4437-3.1748 3.3125-5h9.75c0.46248-0.32489 0.91428-0.65643 1.3438-1h-11.094z" color="#000000" fill="#fff" opacity=".6"/>
 </g>
 <g id="g873">
  <path id="rect4377" d="m12 86c-3.324 0-6-2.676-6-6v-68c0-3.324 2.676-6 6-6h72c3.324 0 6 2.676 6 6v68c0 3.324-2.676 6-6 6zm0-0.96875h72c2.8049 0 5.0312-2.2264 5.0312-5.0312v-68c0-2.8049-2.226-5.0312-5.031-5.0312h-72c-2.8049 0-5.0312 2.2263-5.0312 5.0312v68c0 2.8049 2.2264 5.0312 5.0312 5.0312z" fill="url(#linearGradient4390)" opacity=".3"/>
  <path id="rect4414" d="m6 78v2c0 3.324 2.676 6 6 6h72c3.324 0 6-2.676 6-6v-2c0 3.324-2.676 6-6 6h-72c-3.324 0-6-2.676-6-6z" fill="url(#linearGradient4429)" opacity=".1"/>
  <g id="layer4-3">
   <path id="path3888" d="m6 80v4c0 3.324 2.676 6 6 6h72c3.324 0 6-2.676 6-6v-4c0 3.324-2.676 6-6 6h-72c-3.324 0-6-2.676-6-6z" fill="url(#linearGradient3228)"/>
   <path id="rect4345" d="m6 82v2c0 3.324 2.676 6 6 6h72c3.324 0 6-2.676 6-6v-2c0 3.324-2.676 6-6 6h-72c-3.324 0-6-2.676-6-6z" color="#000000" opacity=".1"/>
   <path id="rect4336" d="m6 83v1c0 3.324 2.676 6 6 6h72c3.324 0 6-2.676 6-6v-1c0 3.324-2.676 6-6 6h-72c-3.324 0-6-2.676-6-6z" color="#000000" opacity=".15"/>
  </g>
 </g>
</svg>
