<?xml version="1.0" encoding="UTF-8"?>
<svg id="svg2" width="24" height="24" version="1.0" xmlns="http://www.w3.org/2000/svg" xmlns:cc="http://creativecommons.org/ns#" xmlns:dc="http://purl.org/dc/elements/1.1/" xmlns:rdf="http://www.w3.org/1999/02/22-rdf-syntax-ns#" xmlns:xlink="http://www.w3.org/1999/xlink">
 <defs id="defs4">
  <linearGradient id="linearGradient3335" x1="11.375" x2="11.375" y1="22" y2="-9.8173" gradientUnits="userSpaceOnUse">
   <stop id="stop3330" offset="0"/>
   <stop id="stop3333" stop-opacity="0" offset="1"/>
  </linearGradient>
  <linearGradient id="linearGradient3181" x1="-3.0608" x2="-3.0608" y1="27.258" y2="7.2537" gradientTransform="translate(12.119 -7.2582)" gradientUnits="userSpaceOnUse">
   <stop id="stop3189" stop-color="#e6e6e6" offset="0"/>
   <stop id="stop3191" stop-color="#f5f5f5" offset="1"/>
  </linearGradient>
  <filter id="filter3194" x="-.18" y="-.18" width="1.36" height="1.36" color-interpolation-filters="sRGB">
   <feGaussianBlur id="feGaussianBlur3196" stdDeviation="1.2"/>
  </filter>
  <clipPath id="clipPath2849">
   <rect id="rect2851" x="1" y="1" width="20" height="20" rx="2" ry="2" fill="#fff" fill-rule="evenodd"/>
  </clipPath>
  <linearGradient id="linearGradient5627" x1="174.07" x2="132.28" y1="215.55" y2="141.75" gradientUnits="userSpaceOnUse">
   <stop id="stop6" stop-color="#FB7655" offset="0"/>
   <stop id="stop10" stop-color="#E42B1E" offset=".41"/>
   <stop id="stop12" stop-color="#900" offset=".99"/>
   <stop id="stop14" stop-color="#900" offset="1"/>
  </linearGradient>
  <linearGradient id="linearGradient5629" x1="194.9" x2="141.03" y1="153.56" y2="117.41" gradientUnits="userSpaceOnUse">
   <stop id="stop19" stop-color="#871101" offset="0"/>
   <stop id="stop23" stop-color="#911209" offset=".99"/>
   <stop id="stop25" stop-color="#911209" offset="1"/>
  </linearGradient>
  <linearGradient id="linearGradient5631" x1="151.8" x2="97.93" y1="217.79" y2="181.64" gradientUnits="userSpaceOnUse">
   <stop id="stop30" stop-color="#871101" offset="0"/>
   <stop id="stop34" stop-color="#911209" offset=".99"/>
   <stop id="stop36" stop-color="#911209" offset="1"/>
  </linearGradient>
  <linearGradient id="linearGradient5633" x1="38.696" x2="47.047" y1="127.39" y2="181.66" gradientUnits="userSpaceOnUse">
   <stop id="stop41" stop-color="#fff" offset="0"/>
   <stop id="stop45" stop-color="#E57252" offset=".23"/>
   <stop id="stop47" stop-color="#DE3B20" offset=".46"/>
   <stop id="stop49" stop-color="#A60003" offset=".99"/>
   <stop id="stop51" stop-color="#A60003" offset="1"/>
  </linearGradient>
  <linearGradient id="linearGradient5635" x1="96.133" x2="99.21" y1="76.715" y2="132.1" gradientUnits="userSpaceOnUse">
   <stop id="stop56" stop-color="#fff" offset="0"/>
   <stop id="stop60" stop-color="#E4714E" offset=".23"/>
   <stop id="stop62" stop-color="#BE1A0D" offset=".56"/>
   <stop id="stop64" stop-color="#A80D00" offset=".99"/>
   <stop id="stop66" stop-color="#A80D00" offset="1"/>
  </linearGradient>
  <linearGradient id="linearGradient5637" x1="147.1" x2="156.31" y1="25.521" y2="65.216" gradientUnits="userSpaceOnUse">
   <stop id="stop71" stop-color="#fff" offset="0"/>
   <stop id="stop75" stop-color="#E46342" offset=".18"/>
   <stop id="stop77" stop-color="#C82410" offset=".4"/>
   <stop id="stop79" stop-color="#A80D00" offset=".99"/>
   <stop id="stop81" stop-color="#A80D00" offset="1"/>
  </linearGradient>
  <linearGradient id="linearGradient5639" x1="118.98" x2="158.67" y1="11.542" y2="-8.3048" gradientUnits="userSpaceOnUse">
   <stop id="stop86" stop-color="#fff" offset="0"/>
   <stop id="stop90" stop-color="#C81F11" offset=".54"/>
   <stop id="stop92" stop-color="#BF0905" offset=".99"/>
   <stop id="stop94" stop-color="#BF0905" offset="1"/>
  </linearGradient>
  <linearGradient id="linearGradient5641" x1="3.9033" x2="7.1702" y1="113.55" y2="146.26" gradientUnits="userSpaceOnUse">
   <stop id="stop99" stop-color="#fff" offset="0"/>
   <stop id="stop103" stop-color="#DE4024" offset=".31"/>
   <stop id="stop105" stop-color="#BF190B" offset=".99"/>
   <stop id="stop107" stop-color="#BF190B" offset="1"/>
  </linearGradient>
  <linearGradient id="linearGradient5643" x1="-18.556" x2="135.02" y1="155.1" y2="-2.8093" gradientTransform="translate(144,-77.58)" gradientUnits="userSpaceOnUse">
   <stop id="stop114" stop-color="#BD0012" offset="0"/>
   <stop id="stop118" stop-color="#fff" offset=".07"/>
   <stop id="stop120" stop-color="#fff" offset=".17"/>
   <stop id="stop122" stop-color="#C82F1C" offset=".27"/>
   <stop id="stop124" stop-color="#820C01" offset=".33"/>
   <stop id="stop126" stop-color="#A31601" offset=".46"/>
   <stop id="stop128" stop-color="#B31301" offset=".72"/>
   <stop id="stop130" stop-color="#E82609" offset=".99"/>
   <stop id="stop132" stop-color="#E82609" offset="1"/>
  </linearGradient>
  <linearGradient id="linearGradient5645" x1="99.075" x2="52.818" y1="171.03" y2="159.62" gradientTransform="translate(144,-77.58)" gradientUnits="userSpaceOnUse">
   <stop id="stop137" stop-color="#8C0C01" offset="0"/>
   <stop id="stop141" stop-color="#990C00" offset=".54"/>
   <stop id="stop143" stop-color="#A80D0E" offset=".99"/>
   <stop id="stop145" stop-color="#A80D0E" offset="1"/>
  </linearGradient>
  <linearGradient id="linearGradient5647" x1="178.53" x2="137.43" y1="115.51" y2="78.684" gradientTransform="translate(144,-77.58)" gradientUnits="userSpaceOnUse">
   <stop id="stop150" stop-color="#7E110B" offset="0"/>
   <stop id="stop154" stop-color="#9E0C00" offset=".99"/>
   <stop id="stop156" stop-color="#9E0C00" offset="1"/>
  </linearGradient>
  <linearGradient id="linearGradient5649" x1="193.62" x2="173.15" y1="47.937" y2="26.054" gradientTransform="translate(144,-77.58)" gradientUnits="userSpaceOnUse">
   <stop id="stop161" stop-color="#79130D" offset="0"/>
   <stop id="stop165" stop-color="#9E120B" offset=".99"/>
   <stop id="stop167" stop-color="#9E120B" offset="1"/>
  </linearGradient>
  <radialGradient id="radialGradient5651" cx="143.83" cy="79.388" r="50.358" gradientTransform="translate(144,-77.58)" gradientUnits="userSpaceOnUse">
   <stop id="stop174" stop-color="#A80D00" offset="0"/>
   <stop id="stop178" stop-color="#7E0E08" offset=".99"/>
   <stop id="stop180" stop-color="#7E0E08" offset="1"/>
  </radialGradient>
  <radialGradient id="radialGradient5653" cx="74.092" cy="145.75" r="66.944" gradientTransform="translate(144,-77.58)" gradientUnits="userSpaceOnUse">
   <stop id="stop185" stop-color="#A30C00" offset="0"/>
   <stop id="stop189" stop-color="#800E08" offset=".99"/>
   <stop id="stop191" stop-color="#800E08" offset="1"/>
  </radialGradient>
  <linearGradient id="linearGradient5655" x1="26.67" x2="9.9887" y1="197.34" y2="140.74" gradientTransform="translate(144,-77.58)" gradientUnits="userSpaceOnUse">
   <stop id="stop196" stop-color="#8B2114" offset="0"/>
   <stop id="stop200" stop-color="#9E100A" offset=".43"/>
   <stop id="stop202" stop-color="#B3100C" offset=".99"/>
   <stop id="stop204" stop-color="#B3100C" offset="1"/>
  </linearGradient>
  <linearGradient id="linearGradient3658" x1="154.64" x2="192.04" y1="9.7979" y2="26.306" gradientTransform="translate(144,-77.58)" gradientUnits="userSpaceOnUse">
   <stop id="stop209" stop-color="#B31000" offset="0"/>
   <stop id="stop213" stop-color="#910F08" offset=".44"/>
   <stop id="stop215" stop-color="#791C12" offset=".99"/>
   <stop id="stop217" stop-color="#791C12" offset="1"/>
  </linearGradient>
  <linearGradient id="linearGradient3845" x1="11" x2="21" y1="19.5" y2="19.5" gradientTransform="translate(1,-1)" gradientUnits="userSpaceOnUse" spreadMethod="reflect">
   <stop id="stop3833" stop-color="#fff" offset="0"/>
   <stop id="stop3821" stop-color="#fff" stop-opacity=".49804" offset=".75"/>
   <stop id="stop3835" stop-color="#fff" stop-opacity="0" offset="1"/>
  </linearGradient>
  <linearGradient id="linearGradient3859" x1="10" x2="10" y1="1" y2="16" gradientTransform="translate(1,-1)" gradientUnits="userSpaceOnUse">
   <stop id="stop3825" stop-color="#fff" offset="0"/>
   <stop id="stop3829" stop-color="#fff" stop-opacity="0" offset="1"/>
  </linearGradient>
 </defs>
 <metadata id="metadata7">
  <rdf:RDF>
   <cc:Work rdf:about="">
    <dc:format>image/svg+xml</dc:format>
    <dc:type rdf:resource="http://purl.org/dc/dcmitype/StillImage"/>
    <dc:title/>
   </cc:Work>
  </rdf:RDF>
 </metadata>
 <g id="layer1" transform="translate(0,2)">
  <g id="g3337" transform="translate(1,-1)">
   <rect id="rect3371" x=".5" y=".5" width="21" height="21.5" rx="2.5" ry="2.5" fill="url(#linearGradient3335)" opacity=".3"/>
   <rect id="rect2553" x="1" y="2" width="20" height="20" rx="2.381" ry="2.3256" opacity=".5"/>
  </g>
  <rect id="rect3173" x="2" width="20" height="20" rx="2" ry="2" fill="url(#linearGradient3181)" fill-rule="evenodd"/>
  <path id="rect3050" d="m4 0c-1.108 0-2 0.892-2 2v16c0 1.108 0.892 2 2 2h16c1.108 0 2-0.892 2-2v-16c0-1.108-0.892-2-2-2h-16zm0 1.0312h16c0.5497 0 0.96875 0.41905 0.96875 0.96875v16c0 0.5497-0.41905 0.96875-0.96875 0.96875h-16c-0.5497 0-0.96875-0.41905-0.96875-0.96875v-16c0-0.5497 0.41905-0.96875 0.96875-0.96875z" fill="url(#linearGradient3859)" fill-rule="evenodd" opacity=".6"/>
  <path id="path3235" d="m4 20c-1.108 0-2-0.892-2-2v-1c0 1.108 0.892 2 2 2h16c1.108 0 2-0.892 2-2v1c0 1.108-0.892 2-2 2h-16z" fill="url(#linearGradient3845)" fill-rule="evenodd" opacity=".35"/>
 </g>
 <g id="layer2" transform="translate(0,2)">
  <rect id="rect2410" transform="translate(1,-1)" x="3" y="3" width="16" height="16" rx="2" ry="2" clip-path="url(#clipPath2849)" fill="#fff" filter="url(#filter3194)" opacity=".15"/>
 </g>
 <g id="layer3" transform="translate(0,2)">
  <g id="g5607" transform="matrix(.080755 0 0 .08098 -7.6287 8.2824)" clip-rule="evenodd" fill-rule="evenodd">
   <polygon id="polygon16" transform="translate(144,-77.58)" points="40.38 197.58 186.85 187.64 198.13 39.95 153.5 130.41" fill="url(#linearGradient5627)"/>
   <polygon id="polygon27" transform="translate(144,-77.58)" points="174.5 100.65 140.21 145.93 187.09 187.54" fill="url(#linearGradient5629)"/>
   <polygon id="polygon38" transform="translate(144,-77.58)" points="95.03 180.3 40.87 197.39 187.26 187.54" fill="url(#linearGradient5631)"/>
   <polygon id="polygon53" transform="translate(144,-77.58)" points="64.04 121.93 13.34 132.77 41 197.41" fill="url(#linearGradient5633)"/>
   <polygon id="polygon68" transform="translate(144,-77.58)" points="119 63.14 58.33 120.01 140.2 146.18" fill="url(#linearGradient5635)"/>
   <polygon id="polygon83" transform="translate(144,-77.58)" points="135.97 17.47 120 69.1 193.32 64.31" fill="url(#linearGradient5637)"/>
   <polygon id="polygon96" transform="translate(144,-77.58)" points="132.77 19.41 111.49 0.52 166.5 0.77" fill="url(#linearGradient5639)"/>
   <polygon id="polygon109" transform="translate(144,-77.58)" points="14.13 132.32 2.7 101.62 0 158.09" fill="url(#linearGradient5641)"/>
   <path id="path111" d="m145.94 23.07 11.5 32.62 49.97-11.211 57.05-53.02 16.1-51.139-25.351-17.9-43.1 16.13c-13.579 12.63-39.929 37.62-40.879 38.09-0.94 0.48-17.4 31.59-25.29 46.43z" fill="#fff"/>
   <path id="path134" d="m186.32-35.53c29.43-29.18 67.37-46.42 81.93-31.73 14.551 14.69-0.88 50.39-30.31 79.56s-66.9 47.36-81.45 32.67c-14.56-14.68 0.4-51.33 29.83-80.5z" fill="url(#linearGradient5643)"/>
   <path id="path147" d="m185 119.8 22.86-75.72 75.92 24.39c-27.45 25.74-57.98 47.5-98.78 51.33z" fill="url(#linearGradient5645)"/>
   <path id="path158" d="m264.56-8.69 19.49 77.2c22.93-24.11 43.51-50.03 53.589-82.09l-73.079 4.89z" fill="url(#linearGradient5647)"/>
   <path id="path169" d="m337.44-13.19c7.8-23.54 9.6-57.31-27.181-63.58l-30.18 16.67 57.361 46.91z" fill="url(#linearGradient5649)"/>
   <path id="path171" d="m144 80.17c1.08 38.851 29.11 39.43 41.05 39.771l-27.58-64.411-13.47 24.64z" fill="#9e1209"/>
   <path id="path182" d="m264.67-8.57c17.62 10.83 53.131 32.58 53.851 32.98 1.119 0.63 15.31-23.93 18.53-37.81l-72.381 4.83z" fill="url(#radialGradient5651)"/>
   <path id="path193" d="m207.83 44.08 30.56 58.96c18.07-9.8 32.22-21.74 45.18-34.53l-75.74-24.43z" fill="url(#radialGradient5653)"/>
   <path id="path206" d="m157.35 55.61-4.33 51.56c8.17 11.16 19.41 12.13 31.2 11.26-8.53-21.23-25.57-63.68-26.87-62.82z" fill="url(#linearGradient5655)"/>
   <path id="path219" d="m279.9-59.97 60.71 8.52c-3.24-13.73-13.19-22.59-30.15-25.36l-30.56 16.84z" fill="url(#linearGradient3658)"/>
  </g>
 </g>
</svg>
