<?xml version="1.0" encoding="UTF-8"?>
<svg id="svg2" width="24" height="24" version="1.0" xmlns="http://www.w3.org/2000/svg" xmlns:cc="http://creativecommons.org/ns#" xmlns:dc="http://purl.org/dc/elements/1.1/" xmlns:rdf="http://www.w3.org/1999/02/22-rdf-syntax-ns#" xmlns:xlink="http://www.w3.org/1999/xlink">
 <defs id="defs4">
  <linearGradient id="linearGradient3335" x1="11.375" x2="11.375" y1="22" y2="-9.8173" gradientUnits="userSpaceOnUse">
   <stop id="stop3330" offset="0"/>
   <stop id="stop3333" stop-opacity="0" offset="1"/>
  </linearGradient>
  <linearGradient id="linearGradient3181" x1="-3.0608" x2="-3.0608" y1="27.258" y2="7.2537" gradientTransform="translate(12.119 -7.2582)" gradientUnits="userSpaceOnUse">
   <stop id="stop3201" stop-color="#dcdcdc" offset="0"/>
   <stop id="stop3203" stop-color="#fafafa" offset="1"/>
  </linearGradient>
  <filter id="filter3194" x="-.18" y="-.18" width="1.36" height="1.36" color-interpolation-filters="sRGB">
   <feGaussianBlur id="feGaussianBlur3196" stdDeviation="1.2"/>
  </filter>
  <clipPath id="clipPath2849">
   <rect id="rect2851" x="1" y="1" width="20" height="20" rx="2" ry="2" fill="#fff" fill-rule="evenodd"/>
  </clipPath>
  <linearGradient id="linearGradient3845" x1="11" x2="21" y1="19.5" y2="19.5" gradientTransform="translate(1,-1)" gradientUnits="userSpaceOnUse" spreadMethod="reflect">
   <stop id="stop3833" stop-color="#fff" offset="0"/>
   <stop id="stop3821" stop-color="#fff" stop-opacity=".49804" offset=".75"/>
   <stop id="stop3835" stop-color="#fff" stop-opacity="0" offset="1"/>
  </linearGradient>
  <linearGradient id="linearGradient3961" x1="10" x2="10" y1="1" y2="16" gradientTransform="translate(1,-1)" gradientUnits="userSpaceOnUse">
   <stop id="stop3825" stop-color="#fff" offset="0"/>
   <stop id="stop3829" stop-color="#fff" stop-opacity="0" offset="1"/>
  </linearGradient>
  <linearGradient id="linearGradient3721" x1="17" x2="17" y1="1" y2="4" gradientUnits="userSpaceOnUse">
   <stop id="stop3717" stop-color="#ccc" offset="0"/>
   <stop id="stop3719" stop-color="#ededed" offset="1"/>
  </linearGradient>
  <linearGradient id="linearGradient3740" x1="19" x2="19" y1="14" y2="2" gradientTransform="translate(0,-2)" gradientUnits="userSpaceOnUse">
   <stop id="stop3736" stop-color="#fff" offset="0"/>
   <stop id="stop3738" stop-color="#fff" stop-opacity="0" offset="1"/>
  </linearGradient>
 </defs>
 <metadata id="metadata7">
  <rdf:RDF>
   <cc:Work rdf:about="">
    <dc:format>image/svg+xml</dc:format>
    <dc:type rdf:resource="http://purl.org/dc/dcmitype/StillImage"/>
    <dc:title/>
   </cc:Work>
  </rdf:RDF>
 </metadata>
 <g id="layer1" transform="translate(0,2)">
  <g id="g3337" transform="translate(1,-1)">
   <rect id="rect3371" x=".5" y=".5" width="21" height="21.5" rx="2.5" ry="2.5" fill="url(#linearGradient3335)" opacity=".3"/>
   <rect id="rect2553" x="1" y="2" width="20" height="20" rx="2.381" ry="2.3256" opacity=".5"/>
  </g>
  <rect id="rect3173" x="2" width="20" height="20" rx="2" ry="2" fill="url(#linearGradient3181)" fill-rule="evenodd"/>
  <path id="path3018" d="m-26-1.8e-7c-1.108 0-2 0.892-2 2v1c0-1.108 0.892-2 2-2h16c1.108 0 2 0.892 2 2v-1c0-1.108-0.892-2-2-2h-16z" fill="#fff" fill-rule="evenodd" opacity=".25"/>
  <path id="path3020" d="m-26 20c-1.108 0-2-0.892-2-2v-1c0 1.108 0.892 2 2 2h16c1.108 0 2-0.892 2-2v1c0 1.108-0.892 2-2 2h-16z" fill-rule="evenodd" opacity=".15"/>
  <path id="rect3050" d="m4 0c-1.108 0-2 0.892-2 2v16c0 1.108 0.892 2 2 2h16c1.108 0 2-0.892 2-2v-16c0-1.108-0.892-2-2-2h-16zm0 1.0312h16c0.5497 0 0.96875 0.41905 0.96875 0.96875v16c0 0.5497-0.41905 0.96875-0.96875 0.96875h-16c-0.5497 0-0.96875-0.41905-0.96875-0.96875v-16c0-0.5497 0.41905-0.96875 0.96875-0.96875z" fill="url(#linearGradient3961)" fill-rule="evenodd" opacity=".8"/>
  <path id="path3235" d="m4 20c-1.108 0-2-0.892-2-2v-1c0 1.108 0.892 2 2 2h16c1.108 0 2-0.892 2-2v1c0 1.108-0.892 2-2 2h-16z" fill="url(#linearGradient3845)" fill-rule="evenodd" opacity=".4"/>
 </g>
 <g id="layer2" transform="translate(0,2)">
  <rect id="rect2410" transform="translate(1,-1)" x="3" y="3" width="16" height="16" rx="2" ry="2" clip-path="url(#clipPath2849)" fill="#fff" filter="url(#filter3194)" opacity=".15"/>
 </g>
 <g id="layer3" transform="translate(0,2)">
  <path id="path3729" d="m14 0v14c0 1.0955 0.90445 2 2 2h2c1.0955 0 2-0.90445 2-2v-14z" color="#000000" fill="url(#linearGradient3740)" opacity=".6"/>
  <path id="rect3682" d="m15 0v14c0 0.554 0.446 1 1 1h2c0.554 0 1-0.446 1-1v-14z" color="#000000" fill="#1a1a1a"/>
  <rect id="rect3687" x="16" width="2" height="1" color="#000000" fill="#808080"/>
  <rect id="rect3689" x="16" y="1" width="2" height="3" color="#000000" fill="url(#linearGradient3721)"/>
  <rect id="rect3691" x="16" y="4" width="1" height="1" color="#000000" fill="#ccc"/>
  <rect id="rect3693" x="17" y="4" width="1" height="1" color="#000000" fill="#7e7e7e"/>
  <rect id="rect3695" transform="scale(-1,1)" x="-18" y="5" width="1" height="1" color="#000000" fill="#ccc"/>
  <rect id="rect3697" transform="scale(-1,1)" x="-17" y="5" width="1" height="1" color="#000000" fill="#7e7e7e"/>
  <rect id="rect3699" x="16" y="6" width="1" height="1" color="#000000" fill="#ccc"/>
  <rect id="rect3701" x="17" y="6" width="1" height="1" color="#000000" fill="#7e7e7e"/>
  <rect id="rect3703" transform="scale(-1,1)" x="-18" y="7" width="1" height="1" color="#000000" fill="#ccc"/>
  <rect id="rect3705" transform="scale(-1,1)" x="-17" y="7" width="1" height="1" color="#000000" fill="#7e7e7e"/>
  <rect id="rect3707" x="16" y="8" width="1" height="1" color="#000000" fill="#ccc"/>
  <rect id="rect3709" x="17" y="8" width="1" height="1" color="#000000" fill="#7e7e7e"/>
  <rect id="rect3711" transform="scale(-1,1)" x="-18" y="9" width="1" height="1" color="#000000" fill="#ccc"/>
  <rect id="rect3713" transform="scale(-1,1)" x="-17" y="9" width="1" height="1" color="#000000" fill="#7e7e7e"/>
  <rect id="rect3723" x="16" y="4" width="2" height="1" color="#000000" opacity=".6"/>
  <rect id="rect3884" x="16" y="10" width="1" height="1" color="#000000" fill="#ccc"/>
  <rect id="rect3886" x="17" y="10" width="1" height="1" color="#000000" fill="#7e7e7e"/>
  <rect id="rect3888" transform="scale(-1,1)" x="-18" y="11" width="1" height="1" color="#000000" fill="#ccc"/>
  <rect id="rect3890" transform="scale(-1,1)" x="-17" y="11" width="1" height="1" color="#000000" fill="#7e7e7e"/>
  <rect id="rect3892" x="16" y="12" width="1" height="1" color="#000000" fill="#ccc"/>
  <rect id="rect3894" x="17" y="12" width="1" height="1" color="#000000" fill="#7e7e7e"/>
  <rect id="rect3896" transform="scale(-1,1)" x="-18" y="13" width="1" height="1" color="#000000" fill="#ccc"/>
  <rect id="rect3898" transform="scale(-1,1)" x="-17" y="13" width="1" height="1" color="#000000" fill="#7e7e7e"/>
  <path id="path3883" d="m8.0601 14.906v-2.9964l-1.9349 0.0078v0.72165h1.2286v1.0589c-0.06867 0.07845-0.14714 0.14904-0.23542 0.21179-0.08829 0.06275-0.18392 0.11766-0.28692 0.16472-0.0981 0.04706-0.20109 0.08367-0.30899 0.10982-0.103 0.02615-0.20354 0.03922-0.30163 0.03922-0.27956 0-0.51253-0.06537-0.6989-0.1961-0.18638-0.13596-0.33597-0.31114-0.44877-0.52555-0.1079-0.2144-0.18638-0.45495-0.23542-0.72165-0.04414-0.26669-0.06621-0.53339-0.06621-0.80009-1e-6 -0.26669 0.02207-0.53339 0.06621-0.80009 0.04904-0.26669 0.12752-0.50724 0.23542-0.72165 0.1128-0.21963 0.25994-0.39481 0.44141-0.52555 0.18637-0.13596 0.41934-0.20394 0.6989-0.20394 0.17656 5e-6 0.32615 0.03138 0.44877 0.09413 0.12752 0.05753 0.23542 0.14381 0.3237 0.25885 0.09318 0.11505 0.1692 0.25363 0.22806 0.41573 0.06376 0.16211 0.11771 0.34514 0.16185 0.54908l0.62534-0.22748c-0.05395-0.27192-0.12752-0.52031-0.22071-0.74518-0.08829-0.22486-0.206-0.41834-0.35313-0.58046-0.14224-0.1621-0.3139-0.28499-0.51498-0.36867-0.20109-0.08889-0.43651-0.13334-0.70626-0.13335-0.40218 5.8e-6 -0.7406 0.094134-1.0153 0.28238-0.27466 0.18303-0.49536 0.42097-0.66212 0.7138-0.16676 0.28762-0.28692 0.61184-0.36049 0.97266-0.07357 0.36083-0.11035 0.71642-0.11035 1.0668 0 0.3556 0.03924 0.71119 0.11771 1.0668 0.07847 0.35037 0.20599 0.66674 0.38256 0.94912 0.17656 0.28238 0.40463 0.51247 0.68419 0.69027 0.27956 0.1778 0.61798 0.2667 1.0153 0.2667 0.20109 0 0.39236-0.04968 0.57384-0.14904 0.18637-0.09413 0.36294-0.19348 0.5297-0.29807v0.35298h0.6989" fill="#333"/>
  <path id="path3885" d="m12.824 14.906v-0.76087h-2.8238c0.16211-0.22486 0.32945-0.46541 0.50202-0.72165 0.17257-0.25624 0.34252-0.5177 0.50986-0.7844 0.17257-0.26669 0.34252-0.53339 0.50986-0.80009 0.16734-0.26669 0.32683-0.52032 0.47848-0.76087 0.15165-0.24054 0.29022-0.46279 0.41573-0.66674 0.13073-0.20917 0.24316-0.38697 0.33729-0.53339v-0.79224h-3.3415v0.74518h2.4709c-0.07844 0.10459-0.15427 0.20918-0.22748 0.31376-0.06798 0.10459-0.13858 0.21179-0.21179 0.3216l-2.2904 3.6239v0.81578h3.671" fill="#333"/>
 </g>
</svg>
