<?xml version="1.0" encoding="UTF-8"?>
<svg id="svg2" width="24" height="24" version="1.0" xmlns="http://www.w3.org/2000/svg" xmlns:cc="http://creativecommons.org/ns#" xmlns:dc="http://purl.org/dc/elements/1.1/" xmlns:rdf="http://www.w3.org/1999/02/22-rdf-syntax-ns#" xmlns:xlink="http://www.w3.org/1999/xlink">
 <defs id="defs4">
  <linearGradient id="linearGradient3335" x1="11.375" x2="11.375" y1="22" y2="-9.8173" gradientUnits="userSpaceOnUse">
   <stop id="stop3330" offset="0"/>
   <stop id="stop3333" stop-opacity="0" offset="1"/>
  </linearGradient>
  <linearGradient id="linearGradient3181" x1="-3.0608" x2="-3.0608" y1="27.258" y2="7.2537" gradientTransform="translate(12.119 -7.2582)" gradientUnits="userSpaceOnUse">
   <stop id="stop3189" stop-color="#ccc" offset="0"/>
   <stop id="stop3191" stop-color="#f5f5f5" offset="1"/>
  </linearGradient>
  <filter id="filter3194" x="-.18" y="-.18" width="1.36" height="1.36" color-interpolation-filters="sRGB">
   <feGaussianBlur id="feGaussianBlur3196" stdDeviation="1.2"/>
  </filter>
  <clipPath id="clipPath2849">
   <rect id="rect2851" x="1" y="1" width="20" height="20" rx="2" ry="2" fill="#fff" fill-rule="evenodd"/>
  </clipPath>
  <linearGradient id="linearGradient3661" x1="-3.0608" x2="-3.0608" y1="19.258" y2="7.2537" gradientTransform="translate(12.119 -7.2582)" gradientUnits="userSpaceOnUse">
   <stop id="stop3201" stop-color="#dcdcdc" offset="0"/>
   <stop id="stop3203" stop-color="#fafafa" offset="1"/>
  </linearGradient>
  <linearGradient id="linearGradient3236">
   <stop id="stop3238" stop-color="#818181" offset="0"/>
   <stop id="stop3242" stop-color="#f9f9f9" offset=".2"/>
   <stop id="stop3240" stop-color="#dcdcdc" stop-opacity="0" offset="1"/>
  </linearGradient>
  <linearGradient id="linearGradient3781" x1="2" x2="10" y1="17" y2="17" gradientTransform="translate(0,18)" gradientUnits="userSpaceOnUse" xlink:href="#linearGradient3236"/>
  <linearGradient id="linearGradient3785" x1="2" x2="10" y1="17" y2="17" gradientTransform="matrix(-1,0,0,1,24,18)" gradientUnits="userSpaceOnUse" xlink:href="#linearGradient3236"/>
  <linearGradient id="linearGradient3845" x1="11" x2="21" y1="19.5" y2="19.5" gradientTransform="translate(1,-1)" gradientUnits="userSpaceOnUse" spreadMethod="reflect">
   <stop id="stop3833" stop-color="#fff" offset="0"/>
   <stop id="stop3821" stop-color="#fff" stop-opacity=".49804" offset=".75"/>
   <stop id="stop3835" stop-color="#fff" stop-opacity="0" offset="1"/>
  </linearGradient>
  <linearGradient id="linearGradient3859" x1="10" x2="10" y1="1" y2="16" gradientTransform="translate(1,-1)" gradientUnits="userSpaceOnUse">
   <stop id="stop3825" stop-color="#fff" offset="0"/>
   <stop id="stop3829" stop-color="#fff" stop-opacity="0" offset="1"/>
  </linearGradient>
 </defs>
 <metadata id="metadata7">
  <rdf:RDF>
   <cc:Work rdf:about="">
    <dc:format>image/svg+xml</dc:format>
    <dc:type rdf:resource="http://purl.org/dc/dcmitype/StillImage"/>
    <dc:title/>
   </cc:Work>
  </rdf:RDF>
 </metadata>
 <g id="layer1" transform="translate(0,2)">
  <g id="g3337" transform="translate(1,-1)">
   <rect id="rect3371" x=".5" y=".5" width="21" height="21.5" rx="2.5" ry="2.5" fill="url(#linearGradient3335)" opacity=".3"/>
   <rect id="rect2553" x="1" y="2" width="20" height="20" rx="2.381" ry="2.3256" opacity=".5"/>
  </g>
  <rect id="rect3173" x="2" width="20" height="20" rx="2" ry="2" fill="url(#linearGradient3181)" fill-rule="evenodd"/>
  <path id="path3783" d="m22 30v8c0 1.108-0.892 2-2 2h-6v-10h8z" fill="url(#linearGradient3785)" fill-rule="evenodd" opacity=".7"/>
  <path id="rect3763" d="m2 30v8c0 1.108 0.892 2 2 2h6v-10h-8z" fill="url(#linearGradient3781)" fill-rule="evenodd"/>
  <rect id="rect3659" x="2" width="20" height="12" rx="2" ry="2" fill="url(#linearGradient3661)" fill-rule="evenodd"/>
  <path id="rect3663" d="m2 10v1c0 1.108 0.892 2 2 2h16c1.108 0 2-0.892 2-2v-1c0 1.108-0.892 2-2 2h-16c-1.108 0-2-0.892-2-2z" fill="#fff" fill-rule="evenodd" opacity=".7"/>
  <path id="path3674" d="m2 12v1c0 1.108 0.892 2 2 2h16c1.108 0 2-0.892 2-2v-1c0 1.108-0.892 2-2 2h-16c-1.108 0-2-0.892-2-2z" fill-rule="evenodd" opacity=".2"/>
  <path id="path3676" d="m2 13v1c0 1.108 0.892 2 2 2h16c1.108 0 2-0.892 2-2v-1c0 1.108-0.892 2-2 2h-16c-1.108 0-2-0.892-2-2z" fill="#fff" fill-rule="evenodd" opacity=".7"/>
  <path id="path3678" d="m2 15v1c0 1.108 0.892 2 2 2h16c1.108 0 2-0.892 2-2v-1c0 1.108-0.892 2-2 2h-16c-1.108 0-2-0.892-2-2z" fill-rule="evenodd" opacity=".2"/>
  <path id="path3680" d="m2 16v1c0 1.108 0.892 2 2 2h16c1.108 0 2-0.892 2-2v-1c0 1.108-0.892 2-2 2h-16c-1.108 0-2-0.892-2-2z" fill="#fff" fill-rule="evenodd" opacity=".7"/>
  <path id="rect3050" d="m4 0c-1.108 0-2 0.892-2 2v16c0 1.108 0.892 2 2 2h16c1.108 0 2-0.892 2-2v-16c0-1.108-0.892-2-2-2h-16zm0 1.0312h16c0.5497 0 0.96875 0.41905 0.96875 0.96875v16c0 0.5497-0.41905 0.96875-0.96875 0.96875h-16c-0.5497 0-0.96875-0.41905-0.96875-0.96875v-16c0-0.5497 0.41905-0.96875 0.96875-0.96875z" fill="url(#linearGradient3859)" fill-rule="evenodd" opacity=".6"/>
  <path id="path3235" d="m4 20c-1.108 0-2-0.892-2-2v-1c0 1.108 0.892 2 2 2h16c1.108 0 2-0.892 2-2v1c0 1.108-0.892 2-2 2h-16z" fill="url(#linearGradient3845)" fill-rule="evenodd" opacity=".35"/>
 </g>
 <g id="layer2" transform="translate(0,2)">
  <rect id="rect2410" transform="translate(1,-1)" x="3" y="3" width="16" height="16" rx="2" ry="2" clip-path="url(#clipPath2849)" fill="#fff" filter="url(#filter3194)" opacity=".15"/>
 </g>
</svg>
