<?xml version="1.0" encoding="UTF-8"?>
<svg id="svg2" width="24" height="24" version="1.0" xmlns="http://www.w3.org/2000/svg" xmlns:cc="http://creativecommons.org/ns#" xmlns:dc="http://purl.org/dc/elements/1.1/" xmlns:rdf="http://www.w3.org/1999/02/22-rdf-syntax-ns#" xmlns:xlink="http://www.w3.org/1999/xlink">
 <defs id="defs4">
  <linearGradient id="linearGradient3335" x1="11.375" x2="11.375" y1="22" y2="-9.8173" gradientUnits="userSpaceOnUse">
   <stop id="stop3330" offset="0"/>
   <stop id="stop3333" stop-opacity="0" offset="1"/>
  </linearGradient>
  <linearGradient id="linearGradient3181" x1="-3.0608" x2="-3.0608" y1="27.258" y2="7.2537" gradientTransform="translate(12.119 -7.2582)" gradientUnits="userSpaceOnUse">
   <stop id="stop3189" stop-color="#e6e6e6" offset="0"/>
   <stop id="stop3191" stop-color="#f5f5f5" offset="1"/>
  </linearGradient>
  <filter id="filter3194" x="-.18" y="-.18" width="1.36" height="1.36" color-interpolation-filters="sRGB">
   <feGaussianBlur id="feGaussianBlur3196" stdDeviation="1.2"/>
  </filter>
  <clipPath id="clipPath2849">
   <rect id="rect2851" x="1" y="1" width="20" height="20" rx="2" ry="2" fill="#fff" fill-rule="evenodd"/>
  </clipPath>
  <linearGradient id="linearGradient3022" x1="2128.6" x2="2128.6" y1="15027" y2="14845" gradientTransform="matrix(-.069912 0 0 .069055 160.81 -1019.8)" gradientUnits="userSpaceOnUse">
   <stop id="stop7991" stop-color="#42699a" offset="0"/>
   <stop id="stop7989" stop-color="#99b8e1" offset="1"/>
  </linearGradient>
  <linearGradient id="linearGradient3845" x1="11" x2="21" y1="19.5" y2="19.5" gradientTransform="translate(1,-1)" gradientUnits="userSpaceOnUse" spreadMethod="reflect">
   <stop id="stop3833" stop-color="#fff" offset="0"/>
   <stop id="stop3821" stop-color="#fff" stop-opacity=".49804" offset=".75"/>
   <stop id="stop3835" stop-color="#fff" stop-opacity="0" offset="1"/>
  </linearGradient>
  <linearGradient id="linearGradient3859" x1="10" x2="10" y1="1" y2="16" gradientTransform="translate(1,-1)" gradientUnits="userSpaceOnUse">
   <stop id="stop3825" stop-color="#fff" offset="0"/>
   <stop id="stop3829" stop-color="#fff" stop-opacity="0" offset="1"/>
  </linearGradient>
 </defs>
 <metadata id="metadata7">
  <rdf:RDF>
   <cc:Work rdf:about="">
    <dc:format>image/svg+xml</dc:format>
    <dc:type rdf:resource="http://purl.org/dc/dcmitype/StillImage"/>
    <dc:title/>
   </cc:Work>
  </rdf:RDF>
 </metadata>
 <g id="layer1" transform="translate(0,2)">
  <g id="g3337" transform="translate(1,-1)">
   <rect id="rect3371" x=".5" y=".5" width="21" height="21.5" rx="2.5" ry="2.5" fill="url(#linearGradient3335)" opacity=".3"/>
   <rect id="rect2553" x="1" y="2" width="20" height="20" rx="2.381" ry="2.3256" opacity=".5"/>
  </g>
  <rect id="rect3173" x="2" width="20" height="20" rx="2" ry="2" fill="url(#linearGradient3181)" fill-rule="evenodd"/>
  <path id="rect3050" d="m4 0c-1.108 0-2 0.892-2 2v16c0 1.108 0.892 2 2 2h16c1.108 0 2-0.892 2-2v-16c0-1.108-0.892-2-2-2h-16zm0 1.0312h16c0.5497 0 0.96875 0.41905 0.96875 0.96875v16c0 0.5497-0.41905 0.96875-0.96875 0.96875h-16c-0.5497 0-0.96875-0.41905-0.96875-0.96875v-16c0-0.5497 0.41905-0.96875 0.96875-0.96875z" fill="url(#linearGradient3859)" fill-rule="evenodd" opacity=".6"/>
  <path id="path3235" d="m4 20c-1.108 0-2-0.892-2-2v-1c0 1.108 0.892 2 2 2h16c1.108 0 2-0.892 2-2v1c0 1.108-0.892 2-2 2h-16z" fill="url(#linearGradient3845)" fill-rule="evenodd" opacity=".35"/>
 </g>
 <g id="layer2" transform="translate(0,2)">
  <rect id="rect2410" transform="translate(1,-1)" x="3" y="3" width="16" height="16" rx="2" ry="2" clip-path="url(#clipPath2849)" fill="#fff" filter="url(#filter3194)" opacity=".15"/>
 </g>
 <g id="layer3" transform="translate(0,2)" fill-rule="evenodd">
  <path id="path3603" d="m18.535 2.364c-1.1764 0.48149-4.9488 2.0494-5.0429 2.0885-1.0554-0.8591-2.4282-1.5266-3.8499-1.6021-3.4488-0.21617-6.621 2.8366-6.6309 6.2231-0.15141 3.0489 1.2447 5.8687 2.5059 8.5625 1.0552-0.43877 4.8919-2.0327 4.9886-2.0731 1.0359 0.8628 2.3625 1.4986 3.7454 1.5982 3.3936 0.28382 6.5476-2.6383 6.72-5.9451 0.24633-3.0933-1.1844-5.9549-2.3859-8.7208-0.01749-0.04316-0.03289-0.0881-0.05035-0.13126z" fill="url(#linearGradient3022)"/>
  <path id="path3709" d="m9.1875 4.8875c-0.25762 2.92e-5 -0.51332 0.033947-0.78125 0.09375-0.53585 0.11961-1.0902 0.35012-1.5938 0.6875s-0.97038 0.78576-1.3438 1.3125c-0.093957 0.13145-0.16806 0.26406-0.25 0.40625-0.24582 0.42657-0.45276 0.89083-0.5625 1.4062-0.07316 0.34361-0.096583 0.71501-0.09375 1.0938 0.010966 1.4663 0.25131 2.6071 0.59375 3.5938 0.17086 0.49354 0.36527 0.92814 0.5625 1.375 0.00378 0.0086-0.00378 0.02269 0 0.03125 0.19354 0.43774 0.41131 0.87231 0.59375 1.3125l2.1875-0.90625c-0.19552-0.3992-0.41818-0.78743-0.625-1.1562-0.19068-0.34011-0.3217-0.60943-0.46875-0.875-0.11919-0.21399-0.24686-0.419-0.3125-0.5625-0.16366-0.35784-0.29264-0.65916-0.40625-0.9375-0.10719-0.26793-0.21794-0.52075-0.28125-0.75-0.00284-0.01003 0.00276-0.02126 0-0.03125-0.12813-0.47378-0.15233-0.89202-0.125-1.4375 0.013212-0.26369 0.041929-0.50109 0.09375-0.71875 0.10364-0.43532 0.27997-0.79792 0.53125-1.125 0.12564-0.16354 0.27665-0.3133 0.4375-0.46875 0.31789-0.30233 0.69956-0.55136 1.125-0.6875 0.42735-0.13592 0.90609-0.16705 1.4375-0.09375 0.26611 0.036747 0.49479 0.085252 0.71875 0.15625 0.20079 0.063653 0.39299 0.13282 0.5625 0.21875 0.01956 0.00991 0.04334 0.021076 0.0625 0.03125 0.02005 0.010737 0.04288 0.020241 0.0625 0.03125 0.16037 0.089508 0.30469 0.20725 0.4375 0.3125 0.02768 0.021884 0.06721 0.040086 0.09375 0.0625 0.11438 0.097511 0.21825 0.20679 0.3125 0.3125 0.19088 0.21304 0.35347 0.43539 0.46875 0.65625 0.05348 0.10245 0.08592 0.21329 0.125 0.3125 0.0032 0.00909-0.0035 0.022146 0 0.03125-1.8783 0.22998-2.5635 1.5741-2.7188 2.8438-0.73636-0.25299-1.1562-0.8515-1.2188-1.7188-0.059704-0.82807 0.76116-1.6411 2.0625-1.2188 0.20945 0.067935 0.2055-0.30984-0.03125-0.5-0.60948-0.48956-3.0082-0.32925-3 1.5938 0.00644 1.5173 1.0255 2.6098 2.1875 2.9063 0.20995 1.7134 2.346 3.7192 4.7812 3.7188 2.061-1.12e-4 4.6477-1.9701 4.625-5-0.02194-2.9327-1.0057-4.5167-1.75-6.3125l-2.1875 0.9375c0.50581 1.0329 1.1724 2.0511 1.4062 2.5625 0.65464 1.4313 0.86715 2.0652 0.8125 3.1563-0.05284 1.0546-0.38784 1.7219-1.0312 2.3438-0.6434 0.62176-1.5309 0.92792-2.5938 0.78125-1.708-0.23567-2.5191-1.2761-2.8438-2.125 0.5501-0.06683 1.0132-0.23947 1.375-0.46875 0.03971-0.02506 0.08728-0.03598 0.125-0.0625 0.07336-0.05171 0.12161-0.09911 0.1875-0.15625 0.02368-0.01996 0.03972-0.04193 0.0625-0.0625 0.06435-0.05997 0.13042-0.12273 0.1875-0.1875 0.03106-0.03428 0.03344-0.08951 0.0625-0.125 0.10618-0.13294 0.2323-0.25926 0.3125-0.40625 0.01102-0.0202 0.02069-0.04209 0.03125-0.0625 0.0653-0.12202 0.10708-0.24658 0.15625-0.375 0.07895-0.20623 0.14555-0.41065 0.1875-0.625 0.0201-0.10273 0.04993-0.20966 0.0625-0.3125 0.71488 0.25955 1.1259 0.83382 1.1875 1.6875 0.0597 0.82802-0.76117 1.6724-2.0625 1.25-0.20946-0.06788-0.20549 0.30984 0.03125 0.5 0.60949 0.48961 3.0082 0.29794 3-1.625-0.0064-1.5181-1.0248-2.6105-2.1875-2.9063-0.02685-0.21938-0.06927-0.43226-0.15625-0.65625-0.08714-0.22439-0.20324-0.43688-0.34375-0.65625-0.11142-0.17845-0.23254-0.36149-0.375-0.53125-0.02813-0.032843-0.06453-0.061364-0.09375-0.09375-0.15402-0.17386-0.31731-0.34233-0.5-0.5-0.02815-0.023883-0.06499-0.039078-0.09375-0.0625-0.02863-0.02369-0.06452-0.03929-0.09375-0.0625-0.16944-0.13243-0.34372-0.2609-0.53125-0.375-0.25021-0.15458-0.50407-0.29285-0.78125-0.40625-0.02098-0.00842-0.04139-0.023096-0.0625-0.03125-0.54599-0.21476-1.1412-0.34382-1.75-0.34375zm3.7188 4.6875c-0.03231 0.28656-0.09569 0.60297-0.28125 0.9375-0.27573 0.5088-0.75257 0.93145-1.5312 1 0.07818-0.71306 0.53971-1.826 1.8125-1.9375z" opacity=".2"/>
  <path id="path3607" d="m6.3044 15.66c-0.74425-1.7957-1.7309-3.3782-1.7529-6.3109-0.022658-3.0299 2.585-4.9916 4.646-4.9918 2.4953-3e-4 4.6907 2.1 4.8064 3.8396 0.10448 1.57-0.45603 3.8532-3.3491 3.8363-1.3814-8e-3 -2.8168-1.2058-2.8244-2.9878-0.00821-1.923 2.4087-2.1106 3.0182-1.621 0.23675 0.19016 0.22951 0.56647 0.02006 0.49854-1.3013-0.42232-2.1053 0.41001-2.0456 1.2381 0.081045 1.1236 0.74983 1.792 1.9487 1.8489 1.7293 0.08188 2.2134-1.5945 2.1692-2.2748-0.05373-0.8272-0.77733-2.5285-3.0282-2.8394-1.0628-0.1466-1.9437 0.17069-2.5871 0.79245-0.6434 0.62181-1.0051 1.2648-1.058 2.3195-0.054653 1.091 0.18431 1.7311 0.83895 3.1624 0.23384 0.51119 0.887 1.5426 1.3928 2.5753l-2.1951 0.91461z" fill="#eeeeec"/>
  <path id="path3611" d="m17.696 4.3575c0.74425 1.7958 1.7309 3.3783 1.7529 6.311 0.02266 3.0299-2.585 4.9916-4.646 4.9917-2.4953 4.1e-4 -4.6907-2.0999-4.8064-3.8394-0.10447-1.5701 0.45603-3.8535 3.3491-3.8364 1.3814 8e-3 2.8168 1.2058 2.8244 2.9878 0.0082 1.9229-2.4087 2.1107-3.0182 1.621-0.23674-0.19016-0.22952-0.56641-0.02006-0.49854 1.3013 0.42238 2.1053-0.41007 2.0456-1.2381-0.08104-1.1236-0.74982-1.7919-1.9486-1.8488-1.7293-0.08187-2.2134 1.5945-2.1692 2.2748 0.05373 0.8272 0.77733 2.5287 3.0282 2.8392 1.0628 0.14666 1.9437-0.17063 2.5871-0.79238 0.64341-0.62187 1.0051-1.2649 1.058-2.3194 0.05465-1.091-0.18432-1.7311-0.83896-3.1624-0.23383-0.51136-0.887-1.5425-1.3928-2.5754l2.1951-0.91473z" fill="#a9c4e3"/>
  <path id="path3613" d="m9.194 4.3511c-2.061 2.34e-4 -4.6644 1.9625-4.6418 4.9925 0.021949 2.9327 1.0128 4.5168 1.757 6.3125l2.1898-0.91485c-0.19552-0.3992-0.40946-0.78128-0.61628-1.1501h-0.48516v-0.87564c-0.11919-0.21399-0.22283-0.40542-0.28847-0.54891-0.65464-1.4313-0.89384-2.0718-0.83919-3.1628 0.052853-1.0547 0.4187-1.6915 1.0621-2.3133 0.64341-0.62176 1.5203-0.94383 2.5831-0.79723 1.0644 0.14699 1.7833 0.60761 2.2553 1.137h0.44582v0.65346c0.20294 0.39052 0.30971 0.76686 0.32781 1.0455 0.01964 0.30227-0.07602 0.80073-0.32781 1.2547v1.5552c1.1959-0.75462 1.4642-2.23 1.3899-3.3457-0.11576-1.7397-2.317-3.8427-4.8122-3.8424z" fill="#eeeeec"/>
  <path id="path2919" transform="translate(0,-2)" d="m3.0312 11.844c-0.0032386 0.074041-0.031033 0.14436-0.03125 0.21875-0.15141 3.0489 1.27 5.8687 2.5312 8.5625 1.0552-0.43877 4.872-2.0222 4.9688-2.0625 1.0359 0.8628 2.3671 1.4941 3.75 1.5938 3.3936 0.28382 6.5463-2.6306 6.7188-5.9375 0.035955-0.4515 0.029574-0.9017 0-1.3438-0.00462 0.11424 0.009148 0.22888 0 0.34375-0.1724 3.3069-3.3252 6.2213-6.7188 5.9375-1.3829-0.099644-2.7141-0.73095-3.75-1.5938-0.096738 0.040346-3.9136 1.6237-4.9688 2.0625-1.1547-2.4662-2.4102-5.0247-2.5-7.7812z" fill="#fff"/>
  <path id="path2928" transform="translate(0,-2)" d="m18.531 4.375c-1.1764 0.48149-4.9372 2.0234-5.0312 2.0625-1.0554-0.8591-2.422-1.5182-3.8438-1.5938-3.4488-0.21617-6.6464 2.8322-6.6562 6.2188-0.012792 0.2576 0.022963 0.52686 0.03125 0.78125 0.14419-3.2964 3.2519-6.2114 6.625-6 1.4218 0.075504 2.7883 0.73465 3.8438 1.5938 0.094055-0.039129 3.8548-1.581 5.0312-2.0625 0.01746 0.043157 0.04501 0.08184 0.0625 0.125 1.0261 2.3622 2.202 4.7885 2.375 7.375 0.11979-2.9621-1.2181-5.7118-2.375-8.375-0.01749-0.04316-0.04504-0.081843-0.0625-0.125z" opacity=".3"/>
 </g>
</svg>
