<?xml version="1.0" encoding="UTF-8"?>
<svg id="svg2" width="24" height="24" version="1.0" xmlns="http://www.w3.org/2000/svg" xmlns:cc="http://creativecommons.org/ns#" xmlns:dc="http://purl.org/dc/elements/1.1/" xmlns:rdf="http://www.w3.org/1999/02/22-rdf-syntax-ns#" xmlns:xlink="http://www.w3.org/1999/xlink">
 <defs id="defs4">
  <linearGradient id="linearGradient3335" x1="11.375" x2="11.375" y1="22" y2="-9.8173" gradientUnits="userSpaceOnUse">
   <stop id="stop3330" offset="0"/>
   <stop id="stop3333" stop-opacity="0" offset="1"/>
  </linearGradient>
  <filter id="filter3194" x="-.18" y="-.18" width="1.36" height="1.36" color-interpolation-filters="sRGB">
   <feGaussianBlur id="feGaussianBlur3196" stdDeviation="1.2"/>
  </filter>
  <clipPath id="clipPath2849">
   <rect id="rect2851" x="1" y="1" width="20" height="20" rx="2" ry="2" fill="#fff" fill-rule="evenodd"/>
  </clipPath>
  <linearGradient id="linearGradient3666" x1="-3.0608" x2="-3.0608" y1="27.258" y2="7.2537" gradientTransform="translate(12.119 -5.2582)" gradientUnits="userSpaceOnUse">
   <stop id="stop3189" stop-color="#e6e6e6" offset="0"/>
   <stop id="stop3191" stop-color="#f5f5f5" offset="1"/>
  </linearGradient>
  <linearGradient id="linearGradient3675" x1="5" x2="5" y1="22" y2="2" gradientUnits="userSpaceOnUse">
   <stop id="stop3744-8" stop-color="#778aa6" offset="0"/>
   <stop id="stop3746-3" stop-color="#a0afc5" offset="1"/>
  </linearGradient>
  <linearGradient id="linearGradient3730" x1="14" x2="15" y1="17" y2="5" gradientTransform="translate(1,-1)" gradientUnits="userSpaceOnUse">
   <stop id="stop3744-1" stop-color="#778aa6" offset="0"/>
   <stop id="stop3746-5" stop-color="#a0afc5" offset="1"/>
  </linearGradient>
  <linearGradient id="linearGradient3845" x1="11" x2="21" y1="19.5" y2="19.5" gradientTransform="translate(1,-1)" gradientUnits="userSpaceOnUse" spreadMethod="reflect">
   <stop id="stop3833" stop-color="#fff" offset="0"/>
   <stop id="stop3821" stop-color="#fff" stop-opacity=".49804" offset=".75"/>
   <stop id="stop3835" stop-color="#fff" stop-opacity="0" offset="1"/>
  </linearGradient>
  <linearGradient id="linearGradient3836-8" x1="10" x2="10" y1="1" y2="16" gradientTransform="translate(1,-1)" gradientUnits="userSpaceOnUse">
   <stop id="stop3825-2" stop-color="#fff" offset="0"/>
   <stop id="stop3829-8" stop-color="#fff" stop-opacity="0" offset="1"/>
  </linearGradient>
 </defs>
 <metadata id="metadata7">
  <rdf:RDF>
   <cc:Work rdf:about="">
    <dc:format>image/svg+xml</dc:format>
    <dc:type rdf:resource="http://purl.org/dc/dcmitype/StillImage"/>
    <dc:title/>
   </cc:Work>
  </rdf:RDF>
 </metadata>
 <g id="layer1" transform="translate(0,2)">
  <g id="g3337" transform="translate(1,-1)">
   <rect id="rect3371" x=".5" y=".5" width="21" height="21.5" rx="2.5" ry="2.5" fill="url(#linearGradient3335)" opacity=".3"/>
   <rect id="rect2553" x="1" y="2" width="20" height="20" rx="2.381" ry="2.3256" opacity=".5"/>
  </g>
  <path id="rect3173" transform="translate(0,-2)" d="m6 2v20h14c1.108 0 2-0.892 2-2v-16c0-1.108-0.892-2-2-2h-14z" fill="url(#linearGradient3666)" fill-rule="evenodd"/>
  <path id="rect3661" transform="translate(0,-2)" d="m4 2c-1.108 0-2 0.892-2 2v16c0 1.108 0.892 2 2 2h3v-20h-3z" color="#000000" fill="url(#linearGradient3675)"/>
  <rect id="rect3687" transform="translate(0,-2)" x="6" y="2" width="1" height="20" color="#000000" opacity=".05"/>
  <rect id="rect3689" x="7" width="1" height="20" color="#000000" fill="#fff" opacity=".4"/>
  <path id="rect3050" d="m7 0v1.0312h13c0.5497 0 0.96875 0.41905 0.96875 0.96875v16c0 0.5497-0.41905 0.96875-0.96875 0.96875h-13v1.0312h13c1.108 0 2-0.892 2-2v-16c0-1.108-0.892-2-2-2h-13z" fill="url(#linearGradient3836-8)" fill-rule="evenodd" opacity=".6"/>
  <path id="path3235" d="m22 17c0 1.108-0.892 2-2 2h-13v1h13c1.108 0 2-0.892 2-2v-1z" fill="url(#linearGradient3845)" fill-rule="evenodd" opacity=".35"/>
  <path id="rect3050-4" d="m4 0c-1.108 0-2 0.892-2 2v16c0 1.108 0.892 2 2 2h3v-1.0312h-3c-0.5497 0-0.96875-0.41905-0.96875-0.96875v-16c0-0.5497 0.41905-0.96875 0.96875-0.96875h3v-1.0312h-3z" fill="url(#linearGradient3836-8)" fill-rule="evenodd" opacity=".3"/>
  <path id="path3235-7" d="m2 17v1c0 1.108 0.892 2 2 2h3v-1h-3c-1.108 0-2-0.892-2-2z" fill="url(#linearGradient3845)" fill-rule="evenodd" opacity=".15"/>
 </g>
 <g id="layer2" transform="translate(0,2)">
  <rect id="rect2410" transform="translate(1,-1)" x="3" y="3" width="16" height="16" rx="2" ry="2" clip-path="url(#clipPath2849)" fill="#fff" filter="url(#filter3194)" opacity=".15"/>
 </g>
 <g id="layer3" transform="translate(0,2)">
  <path id="path3703" d="m19 4h-9l4 6-4 6h9v-3s-0.38426 2-2 2h-3.798l2.798-4.0407-3.4544-4.9593h5.4544c0.90886 0 1 1 1 1v-3z" fill="url(#linearGradient3730)"/>
 </g>
</svg>
