<?xml version="1.0" encoding="UTF-8"?>
<svg id="svg2" width="24" height="24" version="1.0" xmlns="http://www.w3.org/2000/svg" xmlns:cc="http://creativecommons.org/ns#" xmlns:dc="http://purl.org/dc/elements/1.1/" xmlns:rdf="http://www.w3.org/1999/02/22-rdf-syntax-ns#" xmlns:xlink="http://www.w3.org/1999/xlink">
 <defs id="defs4">
  <linearGradient id="linearGradient3335" x1="11.375" x2="11.375" y1="22" y2="-9.8173" gradientUnits="userSpaceOnUse">
   <stop id="stop3330" offset="0"/>
   <stop id="stop3333" stop-opacity="0" offset="1"/>
  </linearGradient>
  <linearGradient id="linearGradient3181" x1="-3.0608" x2="-3.0608" y1="27.258" y2="7.2537" gradientTransform="translate(12.119 -7.2582)" gradientUnits="userSpaceOnUse">
   <stop id="stop3189" stop-color="#e6e6e6" offset="0"/>
   <stop id="stop3191" stop-color="#f5f5f5" offset="1"/>
  </linearGradient>
  <filter id="filter3194" x="-.18" y="-.18" width="1.36" height="1.36" color-interpolation-filters="sRGB">
   <feGaussianBlur id="feGaussianBlur3196" stdDeviation="1.2"/>
  </filter>
  <clipPath id="clipPath2849">
   <rect id="rect2851" x="1" y="1" width="20" height="20" rx="2" ry="2" fill="#fff" fill-rule="evenodd"/>
  </clipPath>
  <linearGradient id="linearGradient3697">
   <stop id="stop3699" stop-color="#bababa" offset="0"/>
   <stop id="stop3701" stop-color="#d2d2d2" offset="1"/>
  </linearGradient>
  <linearGradient id="linearGradient2952" x1="56" x2="56" y1="72" y2="24" gradientTransform="matrix(.3 0 0 .30794 -32.4 -5.3906)" gradientUnits="userSpaceOnUse" xlink:href="#linearGradient3697"/>
  <linearGradient id="linearGradient3845" x1="11" x2="21" y1="19.5" y2="19.5" gradientTransform="translate(1,-1)" gradientUnits="userSpaceOnUse" spreadMethod="reflect">
   <stop id="stop3833" stop-color="#fff" offset="0"/>
   <stop id="stop3821" stop-color="#fff" stop-opacity=".49804" offset=".75"/>
   <stop id="stop3835" stop-color="#fff" stop-opacity="0" offset="1"/>
  </linearGradient>
  <linearGradient id="linearGradient3859" x1="10" x2="10" y1="1" y2="16" gradientTransform="translate(1,-1)" gradientUnits="userSpaceOnUse">
   <stop id="stop3825" stop-color="#fff" offset="0"/>
   <stop id="stop3829" stop-color="#fff" stop-opacity="0" offset="1"/>
  </linearGradient>
  <linearGradient id="linearGradient3818" x1="13" x2="13" y1="17" y2="3" gradientUnits="userSpaceOnUse" xlink:href="#linearGradient3697"/>
 </defs>
 <metadata id="metadata7">
  <rdf:RDF>
   <cc:Work rdf:about="">
    <dc:format>image/svg+xml</dc:format>
    <dc:type rdf:resource="http://purl.org/dc/dcmitype/StillImage"/>
    <dc:title/>
   </cc:Work>
  </rdf:RDF>
 </metadata>
 <g id="layer1" transform="translate(0,2)">
  <g id="g3337" transform="translate(1,-1)">
   <rect id="rect3371" x=".5" y=".5" width="21" height="21.5" rx="2.5" ry="2.5" fill="url(#linearGradient3335)" opacity=".3"/>
   <rect id="rect2553" x="1" y="2" width="20" height="20" rx="2.381" ry="2.3256" opacity=".5"/>
  </g>
  <rect id="rect3173" x="2" width="20" height="20" rx="2" ry="2" fill="url(#linearGradient3181)" fill-rule="evenodd"/>
  <path id="rect3050" d="m4 0c-1.108 0-2 0.892-2 2v16c0 1.108 0.892 2 2 2h16c1.108 0 2-0.892 2-2v-16c0-1.108-0.892-2-2-2h-16zm0 1.0312h16c0.5497 0 0.96875 0.41905 0.96875 0.96875v16c0 0.5497-0.41905 0.96875-0.96875 0.96875h-16c-0.5497 0-0.96875-0.41905-0.96875-0.96875v-16c0-0.5497 0.41905-0.96875 0.96875-0.96875z" fill="url(#linearGradient3859)" fill-rule="evenodd" opacity=".6"/>
  <path id="path3235" d="m4 20c-1.108 0-2-0.892-2-2v-1c0 1.108 0.892 2 2 2h16c1.108 0 2-0.892 2-2v1c0 1.108-0.892 2-2 2h-16z" fill="url(#linearGradient3845)" fill-rule="evenodd" opacity=".35"/>
  <path id="path3159" d="m12 3c-2.0754 0-3.7386 1.563-3.7386 3.5 0.00468 0.20627 0.020092 0.50441 0.039773 0.75568-0.3549 0.15062-0.3808 0.84134-0.079546 1.5511 0.11946 0.28147 0.27161 0.4976 0.4375 0.67614 0.040306 0.19948 0.029731 0.28904 0.079545 0.51704 0.13901 0.41702 0.68706 1.2343 1.1932 1.9091 0.049629 0.5182 0.10111 1.0412 0 1.6307-1.4584 1.2099-5.2158 1.7304-5.2102 2.983l-0.079546 0.47727h14.716l-0.07955-0.47727c-6e-3 -1.0721-3.7697-1.7304-5.2102-2.983-0.05828-0.4795-0.0694-0.95954-0.03977-1.4318 0.46119-0.71171 1.0781-1.6435 1.233-2.108 0.05564-0.23521 0.0759-0.39406 0.11932-0.59659 0.1382-0.1674 0.25615-0.35673 0.35796-0.59659 0.28619-0.67431 0.26769-1.318-0.03977-1.5114 0.01813-0.27169 0.03179-0.56078 0.03977-0.79545 0-1.937-1.6633-3.5-3.7386-3.5z" fill="url(#linearGradient3818)"/>
  <path id="path3048" transform="translate(0,-2)" d="m12 5c-2.0754 0-3.75 1.563-3.75 3.5 0.0039054 0.17213 0.047404 0.40554 0.0625 0.625 0.19866-1.7595 1.7481-3.125 3.6875-3.125 1.9394 0 3.4888 1.3655 3.6875 3.125 0.013065-0.22096 0.056106-0.43696 0.0625-0.625 0-1.937-1.6746-3.5-3.75-3.5zm-3.7188 4.2812c-0.26239 0.14848-0.30419 0.61284-0.15625 1.1562 0.045906-0.077138 0.1112-0.15512 0.1875-0.1875-0.019681-0.25127-0.05782-0.54373-0.0625-0.75 0-0.073808 0.026489-0.14609 0.03125-0.21875zm7.4375 0.0625c0.002475 0.052519 0.03125 0.10314 0.03125 0.15625-0.00798 0.23468-0.04437 0.50956-0.0625 0.78125 0.066104 0.041569 0.11702 0.13972 0.15625 0.21875 0.1513-0.51668 0.092554-0.96554-0.125-1.1562zm-1.6875 5.8125c-0.024949 0.45241-0.024501 0.91631 0.03125 1.375 1.1985 1.0422 3.9936 1.6688 4.9062 2.4688h0.375l-0.0625-0.46875c-6e-3 -1.0721-3.7783-1.7474-5.2188-3-0.015199-0.12505-0.022352-0.25003-0.03125-0.375zm-4.0625 0.0625c-0.0092407 0.10519-0.01249 0.20312-0.03125 0.3125-1.4584 1.2099-5.2243 1.7474-5.2188 3l-0.0625 0.46875h0.3125c0.85295-0.89806 3.7345-1.4447 4.9688-2.4688 0.080858-0.47144 0.066575-0.8946 0.03125-1.3125z" opacity=".2"/>
  <path id="path3821" transform="translate(0,-2)" d="m8.3125 9.125c-0.0058283 0.051622-0.027825 0.10397-0.03125 0.15625 0.011616-0.0065728 0.018828-0.025978 0.03125-0.03125-0.0032575-0.04159 0.0029943-0.081471 0-0.125zm7.375 0c-0.00324 0.054803 0.003603 0.10226 0 0.15625 0.01691 0.010634 0.016091 0.049211 0.03125 0.0625-0.003439-0.072992-0.02315-0.147-0.03125-0.21875zm-7.5625 1.3125c-0.16761 0.28164-0.14273 0.81781 0.09375 1.375 0.11946 0.28147 0.27161 0.47771 0.4375 0.65625 0.040306 0.19948 0.043936 0.30324 0.09375 0.53125 0.13901 0.41702 0.68137 1.2315 1.1875 1.9062 0.0099416 0.10381 0.022401 0.20782 0.03125 0.3125 0.040564-0.46176 0.0091709-0.89044-0.03125-1.3125-0.50613-0.67476-1.0485-1.4892-1.1875-1.9062-0.049814-0.22801-0.053444-0.33177-0.09375-0.53125-0.16589-0.17854-0.31804-0.37478-0.4375-0.65625-0.052527-0.12376-0.061125-0.25516-0.09375-0.375zm7.7188 0.0625c-0.029846 0.10192-0.049192 0.20751-0.09375 0.3125-0.1018 0.23986-0.2368 0.42635-0.375 0.59375-0.043417 0.20253-0.06936 0.35854-0.125 0.59375-0.15483 0.46449-0.75756 1.382-1.2188 2.0938-0.020624 0.32873-0.021024 0.66654 0 1 0.46119-0.71171 1.0639-1.6293 1.2188-2.0938 0.05564-0.23521 0.081583-0.39122 0.125-0.59375 0.1382-0.1674 0.2732-0.35389 0.375-0.59375 0.22466-0.52933 0.237-1.0239 0.09375-1.3125zm-10.875 8.5c-0.15488 0.16307-0.25086 0.33876-0.25 0.53125l-0.0625 0.46875h14.688l-0.0625-0.46875c-0.001008-0.1801-0.12823-0.36973-0.3125-0.53125h-14z" fill="#fff"/>
 </g>
 <g id="layer2" transform="translate(0,2)">
  <rect id="rect2410" transform="translate(1,-1)" x="3" y="3" width="16" height="16" rx="2" ry="2" clip-path="url(#clipPath2849)" fill="#fff" filter="url(#filter3194)" opacity=".15"/>
 </g>
 <g id="layer3" transform="translate(0,2)">
  <path id="path3798" d="m-18 2c-1.6034 0-2.9032 1.2344-2.9032 2.757 0.0039 0.1745 0.0063 0.37375 0.0242 0.5908-0.25375 0.13764-0.28683 0.67589-0.06049 1.2185 0.08728 0.20924 0.20632 0.37925 0.32661 0.51695 4e-3 0.00458 0.0081 0.00783 0.0121 0.012291 0.02871 0.14337 0.04995 0.25676 0.08468 0.41848 0.10758 0.32837 0.5521 0.94602 0.94355 1.477 0.03903 0.4096 0.04225 0.81414-0.03629 1.2801-1.1267 0.95113-4.0084 1.3785-4.004 2.3632l-0.3871 2.5601c0 0.52452 0.7701 1.0048 1.996 1.3293l0.16936 0.70157a0.42159 0.42896 0 0 0 0.26613 0.28309c0.05441 0.02142 0.09281 0.06672 0.24194 0.11077 0.78554 0.23205 1.9817 0.39386 3.3266 0.39386s2.5532-0.16181 3.3387-0.39386c0.14912-0.04406 0.18752-0.08936 0.24194-0.11077a0.42159 0.42896 0 0 0 0.25403-0.27078l0.20565-0.7385c1.1959-0.324 1.9597-0.78754 1.9597-1.3047l-0.3871-2.5601c-0.0046-0.84274-2.9032-1.3785-4.0161-2.3632-0.04506-0.37718-0.04713-0.74855-0.0242-1.12 0.3559-0.55859 0.82446-1.2735 0.94355-1.637 0.04377-0.18826 0.06278-0.31837 0.09677-0.48002 0.1051-0.1307 0.20064-0.28172 0.27822-0.46771 0.21495-0.5153 0.19488-1.0143-0.0242-1.1816 0.01531-0.2239 0.02989-0.43636 0.03629-0.62772 3e-6 -1.5227-1.2998-2.757-2.9032-2.757z" enable-background="new" fill="url(#linearGradient2952)"/>
  <path id="path2887" d="m-18 2c-1.6034 0-2.9062 1.2273-2.9062 2.75 0.0039 0.1745 0.01339 0.3767 0.03125 0.59375 0.20545-1.3316 1.4158-2.3438 2.875-2.3438 1.4702 0 2.6833 1.0287 2.875 2.375 0.01531-0.2239 0.02485-0.43364 0.03125-0.625 3e-6 -1.5227-1.3028-2.75-2.9062-2.75zm2.875 3.375c0.01737 0.12198 0.03125 0.2485 0.03125 0.375-0.0064 0.19136-0.01594 0.4011-0.03125 0.625 0.02739 0.020914 0.0414 0.063087 0.0625 0.09375 0.17334-0.47932 0.14262-0.9371-0.0625-1.0938zm-5.75-0.03125c-0.23901 0.12964-0.27866 0.61564-0.09375 1.125 0.02913-0.040851 0.05319-0.103 0.09375-0.125-0.01786-0.21705-0.02739-0.41925-0.03125-0.59375 0-0.13695 0.01095-0.27465 0.03125-0.40625zm1.3125 4.6562c-0.0098 0.09499-0.0144 0.18126-0.03125 0.28125-1.1267 0.95113-4.0356 1.3591-4.0312 2.3438l-0.375 2.5625c0 0.10928 0.02974 0.20808 0.09375 0.3125l0.28125-1.875c-0.0043-0.98466 2.9045-1.3926 4.0312-2.3438 0.07854-0.46592 0.07028-0.87164 0.03125-1.2812zm3.1562 0.125c-0.0073 0.01139-0.02407 0.01998-0.03125 0.03125-0.02293 0.3715-0.01381 0.74782 0.03125 1.125 1.1129 0.98466 4.0266 1.501 4.0312 2.3438l0.28125 1.875c0.0633-0.10231 0.09375-0.20476 0.09375-0.3125l-0.375-2.5625c-0.0046-0.84274-2.9183-1.3591-4.0312-2.3438-0.0062-0.05222 0.0046-0.10423 0-0.15625z" enable-background="new" opacity=".2"/>
  <path id="path3668" d="m-20.969 6.4688c-0.15309 0.21473-0.15891 0.63786 0.03125 1.0938 0.08728 0.20924 0.19221 0.39356 0.3125 0.53125 4e-3 0.00458 0.02721-0.00446 0.03125 0 0.02871 0.14337 0.02778 0.24453 0.0625 0.40625 0.10758 0.32837 0.5773 0.96903 0.96875 1.5 0.03579-0.34764 0.03065-0.6783 0-1-0.39145-0.53097-0.86118-1.1716-0.96875-1.5-0.03472-0.16172-0.03379-0.26288-0.0625-0.40625-4e-3 -0.00446-0.02722 0.00458-0.03125 0-0.12029-0.13769-0.22522-0.32201-0.3125-0.53125-0.01315-0.031531-0.01984-0.062326-0.03125-0.09375zm5.9062 0c-0.0118 0.032624-0.01755 0.060912-0.03125 0.09375-0.07758 0.18599-0.17615 0.33805-0.28125 0.46875-0.03399 0.16166-0.04998 0.28049-0.09375 0.46875-0.11909 0.36352-0.61285 1.0977-0.96875 1.6562-0.01975 0.32006 0.0024 0.64508 0.03125 0.96875 0.35299-0.5533 0.82081-1.2688 0.9375-1.625 0.04377-0.18826 0.05976-0.3071 0.09375-0.46875 0.1051-0.1307 0.20367-0.28276 0.28125-0.46875 0.18808-0.45089 0.17892-0.87911 0.03125-1.0938zm-8.8438 9.0312-0.09375 0.6875c0 0.52452 0.77413 1.0192 2 1.3438l0.15625 0.6875a0.42159 0.42896 0 0 0 0.28125 0.28125c0.05441 0.02142 0.10088 0.08095 0.25 0.125 0.78554 0.23205 1.9676 0.375 3.3125 0.375s2.5582-0.14295 3.3438-0.375c0.14912-0.04406 0.19559-0.10359 0.25-0.125a0.42159 0.42896 0 0 0 0.25-0.25l0.1875-0.75c1.1959-0.324 1.9688-0.79537 1.9688-1.3125l-0.09375-0.6875c-0.24054 0.38877-0.92823 0.7435-1.875 1l-0.1875 0.75a0.42159 0.42896 0 0 1-0.25 0.25c-0.05441 0.02141-0.10088 0.08094-0.25 0.125-0.78554 0.23205-1.9988 0.375-3.3438 0.375s-2.527-0.14295-3.3125-0.375c-0.14912-0.04405-0.19559-0.10358-0.25-0.125a0.42159 0.42896 0 0 1-0.28125-0.28125l-0.15625-0.6875c-0.97048-0.25691-1.663-0.63444-1.9062-1.0312z" enable-background="new" fill="#fff"/>
 </g>
</svg>
