<?xml version="1.0" encoding="UTF-8"?>
<svg id="svg2" width="24" height="24" version="1.0" xmlns="http://www.w3.org/2000/svg" xmlns:cc="http://creativecommons.org/ns#" xmlns:dc="http://purl.org/dc/elements/1.1/" xmlns:rdf="http://www.w3.org/1999/02/22-rdf-syntax-ns#" xmlns:xlink="http://www.w3.org/1999/xlink">
 <defs id="defs4">
  <linearGradient id="linearGradient3335" x1="11.375" x2="11.375" y1="22" y2="-9.8173" gradientUnits="userSpaceOnUse">
   <stop id="stop3330" offset="0"/>
   <stop id="stop3333" stop-opacity="0" offset="1"/>
  </linearGradient>
  <linearGradient id="linearGradient3181" x1="-3.0608" x2="-3.0608" y1="27.258" y2="7.2537" gradientTransform="translate(12.119 -7.2582)" gradientUnits="userSpaceOnUse">
   <stop id="stop3702" stop-color="#a16331" offset="0"/>
   <stop id="stop3704" stop-color="#d2aa57" offset="1"/>
  </linearGradient>
  <clipPath id="clipPath2849">
   <rect id="rect2851" x="1" y="1" width="20" height="20" rx="2" ry="2" fill="#fff" fill-rule="evenodd"/>
  </clipPath>
  <linearGradient id="linearGradient3845" x1="11" x2="21" y1="19.5" y2="19.5" gradientTransform="translate(1,-1)" gradientUnits="userSpaceOnUse" spreadMethod="reflect">
   <stop id="stop3833" stop-color="#fff" offset="0"/>
   <stop id="stop3821" stop-color="#fff" stop-opacity=".49804" offset=".75"/>
   <stop id="stop3835" stop-color="#fff" stop-opacity="0" offset="1"/>
  </linearGradient>
  <linearGradient id="linearGradient3961" x1="10" x2="10" y1="1" y2="16" gradientTransform="translate(1,-1)" gradientUnits="userSpaceOnUse">
   <stop id="stop3825" stop-color="#fff" offset="0"/>
   <stop id="stop3829" stop-color="#fff" stop-opacity="0" offset="1"/>
  </linearGradient>
  <filter id="filter4098" x="-.24" y="-.24" width="1.48" height="1.48">
   <feGaussianBlur id="feGaussianBlur4100" stdDeviation="1.6"/>
  </filter>
  <linearGradient id="linearGradient4127" x1="45.485" x2="48.069" y1="31.18" y2="55.88" gradientTransform="matrix(.33333 0 0 .2381 -4 .57143)" gradientUnits="userSpaceOnUse" spreadMethod="reflect">
   <stop id="stop4386-6" stop-color="#fff" offset="0"/>
   <stop id="stop4388-2" stop-color="#fff" stop-opacity="0" offset="1"/>
  </linearGradient>
  <linearGradient id="linearGradient3256" x1="42" x2="47.927" y1="48" y2="48" gradientTransform="matrix(.33333 0 0 .2381 -4 .57143)" gradientUnits="userSpaceOnUse" spreadMethod="reflect">
   <stop id="stop4148" stop-color="#e3c979" offset="0"/>
   <stop id="stop4150" stop-color="#d3b762" offset=".7371"/>
   <stop id="stop4152" stop-color="#b0984d" stop-opacity=".61417" offset="1"/>
  </linearGradient>
  <linearGradient id="linearGradient4144" x1="13" x2="13" y1="2" y2="22" gradientUnits="userSpaceOnUse">
   <stop id="stop4140" stop-color="#fff" offset="0"/>
   <stop id="stop4142" stop-color="#fff" stop-opacity="0" offset="1"/>
  </linearGradient>
  <linearGradient id="linearGradient4158" x1="34" x2="38" y1="20" y2="24" gradientTransform="matrix(.23077 0 0 .25 .23077 -8)" gradientUnits="userSpaceOnUse">
   <stop id="stop4154" stop-color="#fff" offset="0"/>
   <stop id="stop4156" stop-color="#ebebeb" offset="1"/>
  </linearGradient>
  <linearGradient id="linearGradient4142">
   <stop id="stop4144" stop-color="#402a1a" offset="0"/>
   <stop id="stop4146" stop-color="#402a1a" stop-opacity="0" offset="1"/>
  </linearGradient>
  <linearGradient id="linearGradient3360" x1="70" x2="70" y1="77.8" y2="9.4" gradientTransform="matrix(.55556 0 0 .55556 -23.444 -3.2222)" gradientUnits="userSpaceOnUse" xlink:href="#linearGradient4142"/>
  <linearGradient id="linearGradient4352" x1="70" x2="70" y1="77.8" y2="23.8" gradientTransform="matrix(.38889 0 0 .38889 9.8889 -11.556)" gradientUnits="userSpaceOnUse" xlink:href="#linearGradient4142"/>
 </defs>
 <metadata id="metadata7">
  <rdf:RDF>
   <cc:Work rdf:about="">
    <dc:format>image/svg+xml</dc:format>
    <dc:type rdf:resource="http://purl.org/dc/dcmitype/StillImage"/>
    <dc:title/>
   </cc:Work>
  </rdf:RDF>
 </metadata>
 <g id="layer1" transform="translate(0,2)">
  <g id="g3337" transform="translate(1,-1)">
   <rect id="rect3371" x=".5" y=".5" width="21" height="21.5" rx="2.5" ry="2.5" fill="url(#linearGradient3335)" opacity=".3"/>
   <rect id="rect2553" x="1" y="2" width="20" height="20" rx="2.381" ry="2.3256" opacity=".5"/>
  </g>
  <rect id="rect3173" x="2" width="20" height="20" rx="2" ry="2" fill="url(#linearGradient3181)" fill-rule="evenodd"/>
  <path id="path3018" d="m-26-1.8e-7c-1.108 0-2 0.892-2 2v1c0-1.108 0.892-2 2-2h16c1.108 0 2 0.892 2 2v-1c0-1.108-0.892-2-2-2h-16z" fill="#fff" fill-rule="evenodd" opacity=".25"/>
  <path id="path3020" d="m-26 20c-1.108 0-2-0.892-2-2v-1c0 1.108 0.892 2 2 2h16c1.108 0 2-0.892 2-2v1c0 1.108-0.892 2-2 2h-16z" fill-rule="evenodd" opacity=".15"/>
  <path id="rect3050" d="m4 0c-1.108 0-2 0.892-2 2v16c0 1.108 0.892 2 2 2h16c1.108 0 2-0.892 2-2v-16c0-1.108-0.892-2-2-2h-16zm0 1.0312h16c0.5497 0 0.96875 0.41905 0.96875 0.96875v16c0 0.5497-0.41905 0.96875-0.96875 0.96875h-16c-0.5497 0-0.96875-0.41905-0.96875-0.96875v-16c0-0.5497 0.41905-0.96875 0.96875-0.96875z" fill="url(#linearGradient3961)" fill-rule="evenodd" opacity=".25"/>
  <path id="path3235" d="m4 20c-1.108 0-2-0.892-2-2v-1c0 1.108 0.892 2 2 2h16c1.108 0 2-0.892 2-2v1c0 1.108-0.892 2-2 2h-16z" fill="url(#linearGradient3845)" fill-rule="evenodd" opacity=".15"/>
 </g>
 <g id="layer2" transform="translate(0,2)">
  <rect id="rect2410" transform="translate(1,-1)" x="3" y="3" width="16" height="16" rx="2" ry="2" clip-path="url(#clipPath2849)" fill="#ffe680" filter="url(#filter4098)" opacity=".15"/>
 </g>
 <g id="layer4">
  <rect id="rect4011" x="10" y="2" width="4" height="20" color="#000000" fill="url(#linearGradient3256)" opacity=".7"/>
  <rect id="rect4125" x="10" y="2" width="4" height="20" color="#000000" fill="url(#linearGradient4127)" opacity=".2"/>
  <rect id="rect4132" x="9" y="2" width="1" height="20" color="#000000" opacity=".02"/>
  <rect id="rect4134" x="14" y="2" width="1" height="20" color="#000000" opacity=".05"/>
  <rect id="rect4136" x="12" y="2" width="1" height="20" color="#000000" fill="url(#linearGradient4144)" opacity=".2"/>
 </g>
 <g id="layer3" transform="translate(0,2)">
  <path id="path4253" transform="scale(1,-1)" d="m3.5-7.5938c-0.59981 0-1.0938 0.49394-1.0938 1.0938v4c0 0.59981 0.49394 1.0938 1.0938 1.0938h5c0.59981 0 1.0938-0.49394 1.0938-1.0938v-4c0-0.59981-0.49394-1.0938-1.0938-1.0938h-5z" color="#000000" opacity=".05"/>
  <rect id="rect4150" transform="scale(1,-1)" x="3" y="-7" width="6" height="5" rx=".5" color="#000000" fill="url(#linearGradient4158)"/>
  <g id="g4312" transform="matrix(.19048 0 0 .19048 8.9524 4.8571)" fill="#333">
   <rect id="rect4168" x="-26" y="-2" width="1" height="8" color="#000000"/>
   <rect id="rect4170" x="-24" y="-2" width="1" height="8" color="#000000" opacity=".6"/>
   <rect id="rect4172" x="-22" y="-2" width="1" height="6" color="#000000"/>
   <rect id="rect4174" x="-20" y="-2" width="1" height="6" color="#000000" opacity=".8"/>
   <rect id="rect4176" x="-18" y="-2" width="1" height="6" color="#000000" opacity=".6"/>
   <rect id="rect4178" x="-16" y="-2" width="1" height="6" color="#000000"/>
   <rect id="rect4180" x="-14" y="-2" width="1" height="6" color="#000000" opacity=".6"/>
   <rect id="rect4182" x="-12" y="-2" width="1" height="6" color="#000000" opacity=".8"/>
   <rect id="rect4184" x="-10" y="-2" width="1" height="6" color="#000000"/>
   <rect id="rect4186" x="-8" y="-2" width="1" height="6" color="#000000" opacity=".6"/>
   <rect id="rect4188" x="-6" y="-2" width="1" height="8" color="#000000"/>
   <rect id="rect4192" x="-22" y="5" width="1" height="1" color="#000000" opacity=".2"/>
   <rect id="rect4194" x="-20" y="5" width="1" height="1" color="#000000" opacity=".2"/>
   <rect id="rect4196" x="-18" y="5" width="1" height="1" color="#000000" opacity=".2"/>
   <rect id="rect4198" x="-16" y="5" width="1" height="1" color="#000000" opacity=".2"/>
   <rect id="rect4200" x="-14" y="5" width="1" height="1" color="#000000" opacity=".2"/>
   <rect id="rect4202" x="-12" y="5" width="1" height="1" color="#000000" opacity=".2"/>
   <rect id="rect4204" x="-10" y="5" width="1" height="1" color="#000000" opacity=".2"/>
   <rect id="rect4206" x="-8" y="5" width="1" height="1" color="#000000" opacity=".2"/>
  </g>
  <rect id="rect4213" x="4" y="3" width="4" height="1" color="#000000" fill="#d72123"/>
  <rect id="rect4257" x="4" y="-5" width="1" height="1" color="#000000" fill="#333" opacity=".6"/>
  <rect id="rect4259" x="5" y="-5" width="1" height="1" color="#000000" fill="#333" opacity=".2"/>
  <rect id="rect4261" x="6" y="-5" width="1" height="1" color="#000000" fill="#333" opacity=".4"/>
  <rect id="rect4263" x="7" y="-5" width="1" height="1" color="#000000" fill="#333" opacity=".6"/>
  <g id="text4208" transform="matrix(.23057 0 0 .23057 .23316 .053159)" fill="#724d28">
   <path id="path4452" d="m12.818 35.706c0.33131 3e-6 0.58568 0.05878 0.76309 0.17634 0.17741 0.11543 0.26612 0.30567 0.26612 0.57072-2e-6 0.26719-0.08978 0.46064-0.26933 0.58034-0.17955 0.11756-0.43605 0.17635-0.7695 0.17634h-0.15711v0.74386h-0.50018v-2.1899c0.10901-0.02137 0.22444-0.03634 0.34628-0.04489 0.12184-0.0085 0.22871-0.01282 0.32063-0.01282m0.03206 0.42643c-0.03634 2e-6 -0.07268 0.0011-0.10901 0.0032-0.0342 0.0021-0.06413 0.0043-0.08978 0.0064v0.64125h0.15711c0.17314 1e-6 0.30352-0.02351 0.39116-0.07054 0.08764-0.04702 0.13146-0.13466 0.13146-0.26291-2e-6 -0.06199-0.01176-0.11329-0.03527-0.1539-0.02138-0.04061-0.05344-0.07267-0.09619-0.09619-0.04061-0.02565-0.09085-0.04275-0.1507-0.0513-0.05985-0.01069-0.12611-0.01603-0.19879-0.01603" fill="#724d28"/>
   <path id="path4454" d="m15.486 37.954c-0.02351-0.07695-0.05023-0.15604-0.08016-0.23726-0.02779-0.08123-0.05558-0.16245-0.08336-0.24368h-0.86569c-0.02779 0.08123-0.05664 0.16245-0.08657 0.24368-0.02779 0.08122-0.05344 0.16031-0.07695 0.23726h-0.51942c0.08336-0.2394 0.16245-0.46063 0.23726-0.6637 0.07481-0.20306 0.14749-0.39437 0.21803-0.57392 0.07268-0.17955 0.14321-0.34948 0.21161-0.5098 0.07054-0.16245 0.14321-0.32062 0.21803-0.47453h0.47773c0.07267 0.1539 0.14428 0.31208 0.21482 0.47453 0.07054 0.16032 0.14107 0.33025 0.21161 0.5098 0.07267 0.17955 0.14642 0.37086 0.22123 0.57392 0.07481 0.20306 0.1539 0.4243 0.23726 0.6637h-0.53545m-0.59957-1.7186c-0.01069 0.03206-0.02672 0.07588-0.04809 0.13146-0.02138 0.05558-0.04596 0.1197-0.07375 0.19238-0.02779 0.07268-0.05878 0.15283-0.09298 0.24047-0.03206 0.08764-0.06519 0.17955-0.09939 0.27574h0.63164c-0.0342-0.09619-0.06733-0.1881-0.09939-0.27574s-0.06306-0.16779-0.09298-0.24047c-0.02779-0.07267-0.05237-0.1368-0.07374-0.19238-0.02138-0.05557-0.03848-0.09939-0.0513-0.13146" fill="#724d28"/>
   <path id="path4456" d="m17.241 37.999c-0.36124 0-0.63698-0.10046-0.82722-0.30139-0.1881-0.20093-0.28215-0.48628-0.28215-0.85607 0-0.18382 0.02886-0.34734 0.08657-0.49056 0.05771-0.14535 0.1368-0.26719 0.23726-0.36552 0.10046-0.10046 0.22016-0.17634 0.3591-0.22764 0.13894-0.0513 0.28963-0.07695 0.45208-0.07695 0.09405 2e-6 0.17955 0.0075 0.2565 0.02244 0.07695 0.01283 0.14428 0.02886 0.202 0.04809 0.05771 0.0171 0.10581 0.03527 0.14428 0.05451 0.03847 0.01924 0.06626 0.0342 0.08336 0.04489l-0.14428 0.40399c-0.0684-0.03634-0.14856-0.06733-0.24047-0.09298-0.08978-0.02565-0.19238-0.03847-0.3078-0.03848-0.07695 2e-6 -0.15283 0.01283-0.22764 0.03848-0.07268 0.02565-0.13787 0.06733-0.19558 0.12504-0.05558 0.05558-0.10046 0.12825-0.13466 0.21803-0.0342 0.08978-0.0513 0.19879-0.0513 0.32704-1e-6 0.1026 0.01069 0.19879 0.03206 0.28856 0.02351 0.08764 0.05985 0.16352 0.10901 0.22765 0.0513 0.06413 0.11756 0.11543 0.19879 0.1539 0.08122 0.03634 0.17955 0.05451 0.29498 0.05451 0.07268 1e-6 0.13787-0.0043 0.19558-0.01282 0.05771-0.0085 0.10901-0.01817 0.1539-0.02886 0.04489-0.01282 0.08443-0.02672 0.11863-0.04168 0.0342-0.01496 0.06519-0.02886 0.09298-0.04168l0.13787 0.40078c-0.07054 0.04275-0.16993 0.08123-0.29818 0.11543-0.12825 0.0342-0.27681 0.0513-0.44567 0.0513" fill="#724d28"/>
   <path id="path4458" d="m19.618 37.954c-0.04489-0.07268-0.09833-0.1507-0.16031-0.23406-0.05985-0.0855-0.12611-0.16993-0.19879-0.2533-0.07054-0.0855-0.14428-0.16673-0.22123-0.24368-0.07695-0.07909-0.1539-0.14856-0.23085-0.20841v0.93944h-0.50018v-2.2219h0.50018v0.84004c0.13039-0.1368 0.26078-0.27894 0.39116-0.42643 0.13252-0.14962 0.25543-0.28749 0.36872-0.41361h0.59316c-0.15176 0.17955-0.3046 0.35269-0.4585 0.51942-0.15176 0.16673-0.31208 0.33452-0.48094 0.50338 0.17741 0.14749 0.34841 0.32276 0.513 0.52583 0.16672 0.20306 0.32597 0.4275 0.47774 0.67332h-0.59316" fill="#724d28"/>
   <path id="path4460" d="m22.067 37.954c-0.02351-0.07695-0.05023-0.15604-0.08016-0.23726-0.02779-0.08123-0.05558-0.16245-0.08336-0.24368h-0.86569c-0.02779 0.08123-0.05664 0.16245-0.08657 0.24368-0.02779 0.08122-0.05344 0.16031-0.07695 0.23726h-0.51942c0.08336-0.2394 0.16245-0.46063 0.23726-0.6637 0.07481-0.20306 0.14749-0.39437 0.21803-0.57392 0.07268-0.17955 0.14321-0.34948 0.21161-0.5098 0.07054-0.16245 0.14321-0.32062 0.21803-0.47453h0.47773c0.07267 0.1539 0.14428 0.31208 0.21482 0.47453 0.07054 0.16032 0.14107 0.33025 0.21161 0.5098 0.07267 0.17955 0.14642 0.37086 0.22123 0.57392 0.07481 0.20306 0.1539 0.4243 0.23726 0.6637h-0.53545m-0.59957-1.7186c-0.01069 0.03206-0.02672 0.07588-0.04809 0.13146-0.02138 0.05558-0.04596 0.1197-0.07374 0.19238-0.02779 0.07268-0.05878 0.15283-0.09298 0.24047-0.03206 0.08764-0.06519 0.17955-0.0994 0.27574h0.63164c-0.0342-0.09619-0.06733-0.1881-0.09939-0.27574s-0.06306-0.16779-0.09298-0.24047c-0.02779-0.07267-0.05237-0.1368-0.07374-0.19238-0.02138-0.05557-0.03848-0.09939-0.0513-0.13146" fill="#724d28"/>
   <path id="path4462" d="m23.893 36.117c-0.23299 2e-6 -0.40185 0.0652-0.50659 0.19558-0.1026 0.12825-0.1539 0.3046-0.1539 0.52904 0 0.10901 0.01282 0.20841 0.03848 0.29818 0.02565 0.08764 0.06413 0.16352 0.11543 0.22764 0.0513 0.06413 0.11542 0.11436 0.19238 0.1507 0.07695 0.0342 0.16672 0.0513 0.26933 0.0513 0.05557 1e-6 0.1026-0.0011 0.14108-0.0032 0.04061-0.0021 0.07588-0.0064 0.10581-0.01282v-0.77271h0.50018v1.0998c-0.05985 0.02351-0.15604 0.04809-0.28856 0.07374-0.13253 0.02779-0.29605 0.04168-0.49056 0.04168-0.16673 0-0.31849-0.02565-0.45529-0.07695-0.13466-0.0513-0.25009-0.12611-0.34628-0.22444-0.09619-0.09833-0.171-0.2191-0.22444-0.36231-0.0513-0.14321-0.07695-0.30673-0.07695-0.49056 0-0.18596 0.02886-0.35055 0.08657-0.49377 0.05771-0.14321 0.1368-0.26398 0.23726-0.36231 0.10046-0.10046 0.21802-0.17634 0.35269-0.22764 0.1368-0.0513 0.28215-0.07695 0.43605-0.07695 0.10474 2e-6 0.19879 0.0075 0.28215 0.02244 0.0855 0.01283 0.15817 0.02886 0.21803 0.04809 0.06199 0.0171 0.11222 0.03527 0.1507 0.05451 0.04061 0.01924 0.06947 0.0342 0.08657 0.04489l-0.14428 0.40078c-0.0684-0.03634-0.14749-0.06733-0.23726-0.09298-0.08764-0.02779-0.18383-0.04168-0.28856-0.04168" fill="#724d28"/>
   <path id="path4464" d="m25.057 37.954v-2.2219h1.5005v0.42002h-1.0004v0.43605h0.88814v0.4104h-0.88814v0.53545h1.0741v0.42002h-1.5743" fill="#724d28"/>
   <path id="path4466" d="m27.769 35.732h0.50018v2.2219h-0.50018v-2.2219" fill="#724d28"/>
   <path id="path4468" d="m30.274 37.954c-0.14322-0.25436-0.29818-0.50552-0.46491-0.75347-0.16673-0.24795-0.34414-0.48201-0.53224-0.70217v1.4556h-0.49376v-2.2219h0.4072c0.07054 0.07054 0.14856 0.15711 0.23406 0.25971 0.0855 0.1026 0.17207 0.21268 0.25971 0.33025 0.08977 0.11543 0.17848 0.2362 0.26612 0.36231 0.08764 0.12398 0.16993 0.24368 0.24688 0.3591v-1.3114h0.49697v2.2219h-0.42002" fill="#724d28"/>
   <path id="path4470" d="m31.813 37.572c0.07054 1e-6 0.12825-0.0053 0.17314-0.01603 0.04702-0.01282 0.08443-0.02886 0.11222-0.04809 0.02779-0.02137 0.04702-0.04596 0.05771-0.07374 0.01069-0.02779 0.01603-0.05878 0.01603-0.09298-2e-6 -0.07267-0.0342-0.13252-0.1026-0.17955-0.0684-0.04916-0.18596-0.10153-0.35269-0.15711-0.07268-0.02565-0.14535-0.05451-0.21803-0.08657-0.07268-0.0342-0.13787-0.07588-0.19558-0.12504-0.05771-0.0513-0.10474-0.11222-0.14108-0.18276-0.03634-0.07267-0.05451-0.16031-0.05451-0.26291 0-0.1026 0.01924-0.19451 0.05771-0.27574 0.03847-0.08336 0.09298-0.1539 0.16352-0.21161 0.07054-0.05771 0.15604-0.10153 0.2565-0.13146 0.10046-0.03206 0.21375-0.04809 0.33986-0.04809 0.14962 2e-6 0.27894 0.01603 0.38796 0.04809 0.10901 0.03206 0.19879 0.06733 0.26933 0.10581l-0.14428 0.39437c-0.06199-0.03206-0.13146-0.05985-0.20841-0.08336-0.07481-0.02565-0.16566-0.03847-0.27253-0.03848-0.1197 2e-6 -0.20627 0.0171-0.25971 0.0513-0.0513 0.03206-0.07695 0.0823-0.07695 0.1507-1e-6 0.04061 0.0096 0.07482 0.02886 0.1026 0.01924 0.02779 0.04595 0.05344 0.08016 0.07695 0.03634 0.02138 0.07695 0.04168 0.12184 0.06092 0.04702 0.0171 0.09832 0.03527 0.1539 0.05451 0.11542 0.04275 0.21589 0.0855 0.30139 0.12825 0.0855 0.04061 0.15604 0.08871 0.21161 0.14428 0.05771 0.05558 0.10046 0.12077 0.12825 0.19558 0.02779 0.07481 0.04168 0.16566 0.04168 0.27253-2e-6 0.20734-0.07268 0.36872-0.21803 0.48415-0.14535 0.11329-0.36445 0.16993-0.65729 0.16993-0.09833 0-0.18703-0.0064-0.26612-0.01924-0.07909-0.01069-0.14963-0.02458-0.21161-0.04168-0.05985-0.0171-0.11222-0.03527-0.15711-0.05451-0.04275-0.01924-0.07909-0.03741-0.10901-0.05451l0.14108-0.39758c0.06626 0.03634 0.14749 0.06947 0.24368 0.09939 0.09832 0.02779 0.21803 0.04168 0.3591 0.04168" fill="#724d28"/>
   <path id="path4472" d="m33.073 35.732h0.50018v2.2219h-0.50018v-2.2219" fill="#724d28"/>
   <path id="path4474" d="m34.588 37.547c0.02351 0.0021 0.05023 0.0043 0.08016 0.0064h0.11222c0.25009 0 0.43498-0.06306 0.55468-0.18917 0.12184-0.12611 0.18276-0.30032 0.18276-0.52262-2e-6 -0.23299-0.05771-0.40933-0.17314-0.52904-0.11543-0.1197-0.29818-0.17955-0.54827-0.17955-0.0342 2e-6 -0.06947 0.0011-0.10581 0.0032-0.03634 1e-6 -0.07054 0.0021-0.1026 0.0064v1.4043m1.446-0.70538c-3e-6 0.19238-0.02993 0.36017-0.08978 0.50338-0.05985 0.14321-0.14535 0.26185-0.2565 0.3559-0.10902 0.09405-0.24261 0.16459-0.40078 0.21161-0.15818 0.04702-0.33559 0.07054-0.53224 0.07054-0.08978 0-0.19452-0.0043-0.31422-0.01282-0.1197-0.0064-0.23726-0.02137-0.35269-0.04489v-2.1642c0.11542-0.02137 0.23513-0.03527 0.3591-0.04168 0.12611-0.0085 0.23406-0.01282 0.32383-0.01282 0.19024 3e-6 0.36231 0.02138 0.51621 0.06413 0.15604 0.04275 0.28963 0.11008 0.40078 0.202 0.11115 0.09192 0.19665 0.20948 0.2565 0.35269 0.05985 0.14322 0.08977 0.31528 0.08978 0.51621" fill="#724d28"/>
   <path id="path4476" d="m36.448 37.954v-2.2219h1.5005v0.42002h-1.0004v0.43605h0.88814v0.4104h-0.88814v0.53545h1.0741v0.42002h-1.5743" fill="#724d28"/>
   <path id="path4478" d="m12.686 41.74c0.3249 1e-6 0.48735-0.11115 0.48735-0.33345-1e-6 -0.0684-0.01496-0.12611-0.04489-0.17314-0.02779-0.04916-0.06626-0.09084-0.11543-0.12504-0.04916-0.03634-0.10581-0.06733-0.16993-0.09298-0.06199-0.02565-0.12825-0.0513-0.19879-0.07695-0.08123-0.02779-0.15818-0.05878-0.23085-0.09298-0.07268-0.03634-0.13573-0.07802-0.18917-0.12504-0.05344-0.04916-0.09619-0.10688-0.12825-0.17314-0.02993-0.06626-0.04489-0.14642-0.04489-0.24047 0-0.19451 0.06626-0.34628 0.19879-0.45529 0.13252-0.10901 0.31528-0.16352 0.54827-0.16352 0.13466 2e-6 0.2565 0.01496 0.36552 0.04489 0.11115 0.02779 0.19237 0.05878 0.24368 0.09298l-0.09939 0.2533c-0.04489-0.02779-0.11222-0.0545-0.202-0.08016-0.08764-0.02779-0.19024-0.04168-0.3078-0.04168-0.05985 2e-6 -0.11543 0.0064-0.16673 0.01924-0.0513 0.01283-0.09619 0.03207-0.13466 0.05771-0.03848 0.02565-0.06947 0.05878-0.09298 0.09939-0.02138 0.03848-0.03206 0.08443-0.03206 0.13787-1e-6 0.05985 0.01176 0.11008 0.03527 0.15069 0.02351 0.04061 0.05664 0.07695 0.09939 0.10901 0.04275 0.02993 0.09191 0.05771 0.14749 0.08336 0.05771 0.02565 0.12077 0.0513 0.18917 0.07695 0.09619 0.03848 0.18382 0.07695 0.26291 0.11543 0.08122 0.03848 0.15069 0.08443 0.20841 0.13787 0.05985 0.05344 0.10581 0.11756 0.13787 0.19238 0.03206 0.07268 0.04809 0.16138 0.04809 0.26612-2e-6 0.19451-0.07161 0.34414-0.21482 0.44888-0.14108 0.10474-0.34094 0.15711-0.59957 0.15711-0.08764 0-0.16886-0.0064-0.24368-0.01924-0.07268-0.01069-0.13787-0.02351-0.19558-0.03848-0.05771-0.0171-0.10794-0.0342-0.15069-0.0513-0.04061-0.01924-0.07268-0.03527-0.09619-0.04809l0.09298-0.2565c0.04916 0.02779 0.12398 0.05878 0.22444 0.09298s0.22337 0.0513 0.36872 0.0513"/>
   <path id="path4480" d="m13.854 41.962v-2.4368l0.29818-0.0513v0.85287c0.05558-0.02137 0.11436-0.0374 0.17634-0.04809 0.06412-0.01282 0.12718-0.01924 0.18917-0.01924 0.13252 1e-6 0.24261 0.01924 0.33025 0.05771 0.08764 0.03634 0.15711 0.08871 0.20841 0.15711 0.05344 0.06626 0.09084 0.14642 0.11222 0.24047 0.02137 0.09405 0.03206 0.19772 0.03206 0.31101v0.93623h-0.29818v-0.8721c-1e-6 -0.1026-0.0075-0.19024-0.02244-0.26291-0.01283-0.07267-0.03527-0.13146-0.06733-0.17634-0.03206-0.04489-0.07481-0.07695-0.12825-0.09619-0.05344-0.02137-0.1197-0.03206-0.19879-0.03206-0.03206 1e-6 -0.0652 0.0021-0.09939 0.0064-0.0342 0.0043-0.06733 0.0096-0.09939 0.01603-0.02993 0.0043-0.05771 0.0096-0.08336 0.01603-0.02351 0.0064-0.04061 0.01176-0.0513 0.01603v1.3851h-0.29818"/>
   <path id="path4482" d="m15.981 41.962h-0.29818v-1.6673h0.29818v1.6673m-0.1507-1.9686c-0.05344 2e-6 -0.09939-0.0171-0.13787-0.0513-0.03634-0.03634-0.05451-0.08443-0.05451-0.14428 0-0.05985 0.01817-0.10687 0.05451-0.14108 0.03848-0.03634 0.08443-0.0545 0.13787-0.05451 0.05344 3e-6 0.09832 0.01817 0.13466 0.05451 0.03847 0.0342 0.05771 0.08123 0.05771 0.14108 0 0.05985-0.01924 0.10795-0.05771 0.14428-0.03634 0.0342-0.08123 0.0513-0.13466 0.0513"/>
   <path id="path4484" d="m17.654 41.131c-1e-6 -0.19451-0.04809-0.34414-0.14428-0.44888-0.09619-0.10474-0.22444-0.1571-0.38475-0.15711-0.08978 2e-6 -0.16031 0.0032-0.21161 0.0096-0.04916 0.0064-0.08871 0.01389-0.11863 0.02244v1.0517c0.03634 0.02993 0.08871 0.05878 0.15711 0.08657 0.0684 0.02779 0.14321 0.04168 0.22444 0.04168 0.0855 0 0.15818-0.01496 0.21803-0.04489 0.06199-0.03206 0.11222-0.07481 0.15069-0.12825 0.03847-0.05557 0.06626-0.1197 0.08336-0.19238 0.0171-0.07481 0.02565-0.15497 0.02565-0.24047m0.31101 0c-2e-6 0.12611-0.0171 0.24261-0.0513 0.34948-0.03206 0.10688-0.08016 0.19879-0.14428 0.27574-0.06413 0.07695-0.14322 0.1368-0.23726 0.17955-0.09191 0.04275-0.19772 0.06412-0.31742 0.06412-0.09619 0-0.18169-0.01282-0.2565-0.03847-0.07268-0.02565-0.12718-0.05023-0.16352-0.07374v0.6669h-0.29818v-2.2091c0.07054-0.0171 0.15818-0.03527 0.26291-0.05451 0.10688-0.02137 0.22978-0.03206 0.36872-0.03206 0.12825 1e-6 0.24368 0.02031 0.34628 0.06092 0.1026 0.04061 0.19024 0.09833 0.26291 0.17314 0.07267 0.07482 0.12825 0.16673 0.16673 0.27574 0.04061 0.10688 0.06092 0.22765 0.06092 0.36231"/>
   <path id="path4486" d="m19.406 40.294h0.63164v0.25009h-0.63164v0.7695c-1e-6 0.08336 0.0064 0.15283 0.01924 0.20841 0.01282 0.05344 0.03206 0.09619 0.05771 0.12825 0.02565 0.02992 0.05771 0.0513 0.09619 0.06413 0.03847 0.01283 0.08336 0.01924 0.13466 0.01924 0.08977 0 0.16138-0.0096 0.21482-0.02886 0.05557-0.02137 0.09405-0.03634 0.11542-0.04489l0.05771 0.24688c-0.02993 0.01496-0.08229 0.03313-0.15711 0.05451-0.07481 0.02351-0.16031 0.03527-0.2565 0.03527-0.11329 0-0.20734-0.01389-0.28215-0.04168-0.07268-0.02993-0.13146-0.07375-0.17634-0.13146-0.04489-0.05771-0.07695-0.12825-0.09619-0.21161-0.0171-0.0855-0.02565-0.18383-0.02565-0.29498v-1.4877l0.29818-0.0513v0.51621"/>
   <path id="path4488" d="m21.845 41.128c-1e-6 0.13253-0.01924 0.25223-0.05771 0.3591-0.03848 0.10688-0.09298 0.19879-0.16352 0.27574-0.0684 0.07695-0.1507 0.1368-0.24688 0.17955-0.09619 0.04061-0.20093 0.06092-0.31422 0.06092-0.11329 0-0.21803-0.02031-0.31421-0.06092-0.09619-0.04275-0.17955-0.1026-0.25009-0.17955-0.0684-0.07695-0.12184-0.16886-0.16031-0.27574-0.03848-0.10688-0.05771-0.22658-0.05771-0.3591-1e-6 -0.13039 0.01924-0.24902 0.05771-0.3559 0.03847-0.10901 0.09191-0.20199 0.16031-0.27895 0.07054-0.07695 0.1539-0.13573 0.25009-0.17634 0.09619-0.04275 0.20092-0.06412 0.31421-0.06413 0.11329 2e-6 0.21803 0.02138 0.31422 0.06413 0.09619 0.04061 0.17848 0.0994 0.24688 0.17634 0.07054 0.07695 0.12504 0.16993 0.16352 0.27895 0.03847 0.10688 0.05771 0.22551 0.05771 0.3559m-0.31101 0c-1e-6 -0.1881-0.04275-0.33666-0.12825-0.44567-0.08336-0.11115-0.19772-0.16672-0.34307-0.16673-0.14535 2e-6 -0.26078 0.05558-0.34628 0.16673-0.08336 0.10902-0.12504 0.25757-0.12504 0.44567-1e-6 0.1881 0.04168 0.33773 0.12504 0.44888 0.0855 0.10901 0.20093 0.16352 0.34628 0.16352 0.14535 1e-6 0.25971-0.05451 0.34307-0.16352 0.0855-0.11115 0.12825-0.26078 0.12825-0.44888"/>
   <path id="path4490" d="m22.617 41.788c0 0.05771-0.01924 0.10794-0.05771 0.15069s-0.09084 0.06413-0.15711 0.06413c-0.06626 0-0.11863-0.02138-0.15711-0.06413-0.03848-0.04275-0.05771-0.09298-0.05771-0.15069 0-0.05771 0.01924-0.10794 0.05771-0.1507 0.03848-0.04275 0.09084-0.06412 0.15711-0.06413 0.06626 1e-6 0.11863 0.02138 0.15711 0.06413 0.03848 0.04275 0.05771 0.09298 0.05771 0.1507m0-1.2793c0 0.05771-0.01924 0.10795-0.05771 0.15069-0.03847 0.04275-0.09084 0.06413-0.15711 0.06413-0.06626 1e-6 -0.11863-0.02137-0.15711-0.06413-0.03848-0.04275-0.05771-0.09298-0.05771-0.15069 0-0.05771 0.01924-0.10794 0.05771-0.1507 0.03848-0.04275 0.09084-0.06412 0.15711-0.06412 0.06626 1e-6 0.11863 0.02138 0.15711 0.06412 0.03848 0.04275 0.05771 0.09298 0.05771 0.1507"/>
  </g>
  <path id="path3280" d="m15.323 29c-0.19678 0-0.38194 0.16444-0.38194 0.36458v0.7118c-0.35184 0.09374-0.68198 0.23777-0.98958 0.41667l-0.48611-0.52083c-0.14152-0.14151-0.3817-0.13914-0.52083 0l-0.97222 0.97222c-0.13914 0.13914-0.1415 0.37931 0 0.52083l0.52083 0.48611c-0.1789 0.3076-0.32292 0.63774-0.41667 0.98958h-0.7118c-0.20014-3e-6 -0.36458 0.18517-0.36458 0.38194v1.3542c0 0.19677 0.16445 0.38194 0.36458 0.38194h0.7118c0.09376 0.35185 0.23777 0.68198 0.41667 0.98958l-0.52083 0.48611c-0.14151 0.14151-0.13916 0.38169 0 0.52083l0.97222 0.97222c0.13914 0.13914 0.37931 0.1415 0.52083 0l0.48611-0.52083c0.3076 0.1789 0.63774 0.32292 0.98958 0.41667v0.7118c0 0.20014 0.18517 0.36458 0.38194 0.36458h1.3542c0.19678 0 0.38194-0.16445 0.38194-0.36458v-0.7118c0.35184-0.09376 0.68198-0.23777 0.98958-0.41667l0.48611 0.52083c0.07076 0.07076 0.16885 0.08604 0.26042 0.08681 0.09157 8.33e-4 0.19085-0.01726 0.26042-0.08681l0.97222-0.97222c0.13914-0.13914 0.14151-0.37931 0-0.52083l-0.52083-0.48611c0.1789-0.3076 0.32292-0.63774 0.41667-0.98958h0.7118c0.20014 0 0.36458-0.18517 0.36458-0.38194v-1.3542c0-0.19677-0.16445-0.38194-0.36458-0.38194h-0.7118c-0.093743-0.35185-0.23777-0.68198-0.41667-0.98958l0.52083-0.48611c0.14151-0.14151 0.13914-0.38169 0-0.52083l-0.97222-0.97222c-0.13914-0.13914-0.37931-0.14151-0.52083 0l-0.48611 0.52083c-0.3076-0.1789-0.63774-0.32292-0.98958-0.41666v-0.7118c0-0.20014-0.18517-0.36458-0.38194-0.36458h-1.3542zm0.67708 3.125c1.0355 0 1.875 0.83947 1.875 1.875s-0.83947 1.875-1.875 1.875-1.875-0.83947-1.875-1.875 0.83947-1.875 1.875-1.875z" color="#000000" fill="url(#linearGradient3360)" opacity=".57444"/>
  <path id="path4350" d="m37.026 11c-0.13774 0-0.26736 0.11512-0.26736 0.25521v0.49826c-0.24629 0.06561-0.47739 0.16644-0.69271 0.29167l-0.34028-0.36458c-0.09906-0.09906-0.26719-0.0974-0.36458 0l-0.68056 0.68056c-0.09741 0.09739-0.09905 0.26552 0 0.36458l0.36458 0.34028c-0.12523 0.21532-0.22604 0.44642-0.29167 0.69271h-0.49826c-0.1401-2e-6 -0.25521 0.12962-0.25521 0.26736v0.94792c0 0.13774 0.11512 0.26736 0.25521 0.26736h0.49826c0.06564 0.24629 0.16644 0.47739 0.29167 0.69271l-0.36458 0.34028c-0.09906 0.09906-0.09741 0.26718 0 0.36458l0.68056 0.68056c0.09739 0.0974 0.26552 0.09905 0.36458 0l0.34028-0.36458c0.21532 0.12523 0.44642 0.22604 0.69271 0.29167v0.49826c0 0.1401 0.12962 0.25521 0.26736 0.25521h0.94792c0.13774 0 0.26736-0.11512 0.26736-0.25521v-0.49826c0.24629-0.06564 0.47739-0.16644 0.69271-0.29167l0.34028 0.36458c0.04954 0.04954 0.1182 0.06022 0.18229 0.06077 0.0641 5.84e-4 0.1336-0.01209 0.18229-0.06077l0.68056-0.68056c0.0974-0.09739 0.09906-0.26552 0-0.36458l-0.36458-0.34028c0.12523-0.21532 0.22604-0.44642 0.29167-0.69271h0.49826c0.1401 0 0.25521-0.12962 0.25521-0.26736v-0.94792c0-0.13774-0.11512-0.26736-0.25521-0.26736h-0.49826c-0.06562-0.24629-0.16644-0.47739-0.29167-0.69271l0.36458-0.34028c0.09906-0.09906 0.0974-0.26718 0-0.36458l-0.68056-0.68056c-0.09739-0.0974-0.26552-0.09906-0.36458 0l-0.34028 0.36458c-0.21532-0.12523-0.44642-0.22604-0.69271-0.29166v-0.49826c0-0.1401-0.12962-0.25521-0.26736-0.25521h-0.94792zm0.47396 2.1875c0.72487 0 1.3125 0.58763 1.3125 1.3125s-0.58763 1.3125-1.3125 1.3125-1.3125-0.58763-1.3125-1.3125 0.58763-1.3125 1.3125-1.3125z" color="#000000" fill="url(#linearGradient4352)" opacity=".57444"/>
 </g>
</svg>
