<?xml version="1.0" encoding="UTF-8"?>
<svg id="svg2" width="24" height="24" version="1.0" xmlns="http://www.w3.org/2000/svg" xmlns:cc="http://creativecommons.org/ns#" xmlns:dc="http://purl.org/dc/elements/1.1/" xmlns:rdf="http://www.w3.org/1999/02/22-rdf-syntax-ns#" xmlns:xlink="http://www.w3.org/1999/xlink">
 <defs id="defs4">
  <linearGradient id="linearGradient3335" x1="11.375" x2="11.375" y1="22" y2="-9.8173" gradientUnits="userSpaceOnUse">
   <stop id="stop3330" offset="0"/>
   <stop id="stop3333" stop-opacity="0" offset="1"/>
  </linearGradient>
  <linearGradient id="linearGradient3181" x1="-3.0608" x2="-3.0608" y1="27.258" y2="7.2537" gradientTransform="translate(12.119 -7.2582)" gradientUnits="userSpaceOnUse">
   <stop id="stop3189" stop-color="#e6e6e6" offset="0"/>
   <stop id="stop3191" stop-color="#f5f5f5" offset="1"/>
  </linearGradient>
  <filter id="filter3194" x="-.18" y="-.18" width="1.36" height="1.36" color-interpolation-filters="sRGB">
   <feGaussianBlur id="feGaussianBlur3196" stdDeviation="1.2"/>
  </filter>
  <clipPath id="clipPath2849">
   <rect id="rect2851" x="1" y="1" width="20" height="20" rx="2" ry="2" fill="#fff" fill-rule="evenodd"/>
  </clipPath>
  <linearGradient id="linearGradient4346" x1="16" x2="16" y1="60" y2="35.917" gradientTransform="matrix(.30769 0 0 .30769 1.5385 -4.7462)" gradientUnits="userSpaceOnUse">
   <stop id="stop3726-5" stop-color="#f59" offset="0"/>
   <stop id="stop3728-3" stop-color="#ff75ac" offset="1"/>
  </linearGradient>
  <linearGradient id="linearGradient3845" x1="11" x2="21" y1="19.5" y2="19.5" gradientTransform="translate(1,-1)" gradientUnits="userSpaceOnUse" spreadMethod="reflect">
   <stop id="stop3833" stop-color="#fff" offset="0"/>
   <stop id="stop3821" stop-color="#fff" stop-opacity=".49804" offset=".75"/>
   <stop id="stop3835" stop-color="#fff" stop-opacity="0" offset="1"/>
  </linearGradient>
  <linearGradient id="linearGradient3859" x1="10" x2="10" y1="1" y2="16" gradientTransform="translate(1,-1)" gradientUnits="userSpaceOnUse">
   <stop id="stop3825" stop-color="#fff" offset="0"/>
   <stop id="stop3829" stop-color="#fff" stop-opacity="0" offset="1"/>
  </linearGradient>
 </defs>
 <metadata id="metadata7">
  <rdf:RDF>
   <cc:Work rdf:about="">
    <dc:format>image/svg+xml</dc:format>
    <dc:type rdf:resource="http://purl.org/dc/dcmitype/StillImage"/>
    <dc:title/>
   </cc:Work>
  </rdf:RDF>
 </metadata>
 <g id="layer1" transform="translate(0,2)">
  <g id="g3337" transform="translate(1,-1)">
   <rect id="rect3371" x=".5" y=".5" width="21" height="21.5" rx="2.5" ry="2.5" fill="url(#linearGradient3335)" opacity=".3"/>
   <rect id="rect2553" x="1" y="2" width="20" height="20" rx="2.381" ry="2.3256" opacity=".5"/>
  </g>
  <rect id="rect3173" x="2" width="20" height="20" rx="2" ry="2" fill="url(#linearGradient3181)" fill-rule="evenodd"/>
  <path id="rect3050" d="m4 0c-1.108 0-2 0.892-2 2v16c0 1.108 0.892 2 2 2h16c1.108 0 2-0.892 2-2v-16c0-1.108-0.892-2-2-2h-16zm0 1.0312h16c0.5497 0 0.96875 0.41905 0.96875 0.96875v16c0 0.5497-0.41905 0.96875-0.96875 0.96875h-16c-0.5497 0-0.96875-0.41905-0.96875-0.96875v-16c0-0.5497 0.41905-0.96875 0.96875-0.96875z" fill="url(#linearGradient3859)" fill-rule="evenodd" opacity=".6"/>
  <path id="path3235" d="m4 20c-1.108 0-2-0.892-2-2v-1c0 1.108 0.892 2 2 2h16c1.108 0 2-0.892 2-2v1c0 1.108-0.892 2-2 2h-16z" fill="url(#linearGradient3845)" fill-rule="evenodd" opacity=".35"/>
 </g>
 <g id="layer2" transform="translate(0,2)">
  <rect id="rect2410" transform="translate(1,-1)" x="3" y="3" width="16" height="16" rx="2" ry="2" clip-path="url(#clipPath2849)" fill="#fff" filter="url(#filter3194)" opacity=".15"/>
 </g>
 <g id="layer4">
  <rect id="rect2897" x="4" y="4" width="4" height="1" color="#000000" opacity=".15"/>
  <rect id="rect2899" transform="translate(0,2)" x="9" y="2" width="3" height="1" color="#000000" opacity=".15"/>
  <rect id="rect2901" transform="translate(0,2)" x="4" y="4" width="4" height="1" color="#000000" opacity=".15"/>
  <rect id="rect2903" transform="translate(0,2)" x="9" y="4" width="2" height="1" color="#000000" opacity=".15"/>
  <rect id="rect2910" x="4" y="9" width="16" height="1" color="#000000" opacity=".15"/>
  <rect id="rect2912" x="6" y="11" width="10" height="1" color="#000000" opacity=".15"/>
  <rect id="rect2914" x="6" y="13" width="7" height="1" color="#000000" opacity=".15"/>
  <rect id="rect2916" x="6" y="15" width="12" height="1" color="#000000" opacity=".15"/>
  <rect id="rect2918" x="6" y="17" width="4" height="1" color="#000000" opacity=".15"/>
  <rect id="rect2920" x="4" y="19" width="3" height="1" color="#000000" opacity=".15"/>
 </g>
 <g id="layer3" transform="translate(0,2)">
  <path id="path3722" d="m8.3077 5.7154-4.3077 4.3077 4.3077 4.3077v-1.8462l-2.4615-2.4615 2.4615-2.4615v-1.8462zm4.4615 0-3.0769 8.6154h1.5385l3.0769-8.6154h-1.5385zm2.9231 0v1.8462l2.4615 2.4615-2.4615 2.4615v1.8462l4.3077-4.3077-4.3077-4.3077z" fill="url(#linearGradient4346)"/>
 </g>
</svg>
