<?xml version="1.0" encoding="UTF-8"?>
<svg id="svg2" width="24" height="24" version="1.0" xmlns="http://www.w3.org/2000/svg" xmlns:cc="http://creativecommons.org/ns#" xmlns:dc="http://purl.org/dc/elements/1.1/" xmlns:rdf="http://www.w3.org/1999/02/22-rdf-syntax-ns#" xmlns:xlink="http://www.w3.org/1999/xlink">
 <defs id="defs4">
  <linearGradient id="linearGradient3335" x1="11.375" x2="11.375" y1="22" y2="-9.8173" gradientUnits="userSpaceOnUse">
   <stop id="stop3330" offset="0"/>
   <stop id="stop3333" stop-opacity="0" offset="1"/>
  </linearGradient>
  <linearGradient id="linearGradient3181" x1="-3.0608" x2="-3.0608" y1="27.258" y2="7.2537" gradientTransform="translate(12.119 -7.2582)" gradientUnits="userSpaceOnUse">
   <stop id="stop3189" stop-color="#e6e6e6" offset="0"/>
   <stop id="stop3191" stop-color="#f5f5f5" offset="1"/>
  </linearGradient>
  <filter id="filter3194" x="-.18" y="-.18" width="1.36" height="1.36" color-interpolation-filters="sRGB">
   <feGaussianBlur id="feGaussianBlur3196" stdDeviation="1.2"/>
  </filter>
  <clipPath id="clipPath2849">
   <rect id="rect2851" x="1" y="1" width="20" height="20" rx="2" ry="2" fill="#fff" fill-rule="evenodd"/>
  </clipPath>
  <linearGradient id="linearGradient2972" x1="48" x2="48" y1="72" y2="23.99" gradientTransform="matrix(.33333 0 0 .33333 -4 -6)" gradientUnits="userSpaceOnUse">
   <stop id="stop3699" stop-color="#bababa" offset="0"/>
   <stop id="stop3701" stop-color="#d2d2d2" offset="1"/>
  </linearGradient>
  <linearGradient id="linearGradient3845-3" x1="11" x2="21" y1="19.5" y2="19.5" gradientTransform="translate(1,-1)" gradientUnits="userSpaceOnUse" spreadMethod="reflect">
   <stop id="stop3833" stop-color="#fff" offset="0"/>
   <stop id="stop3821" stop-color="#fff" stop-opacity=".49804" offset=".75"/>
   <stop id="stop3835" stop-color="#fff" stop-opacity="0" offset="1"/>
  </linearGradient>
  <linearGradient id="linearGradient3859" x1="10" x2="10" y1="1" y2="16" gradientTransform="translate(1,-1)" gradientUnits="userSpaceOnUse">
   <stop id="stop3825" stop-color="#fff" offset="0"/>
   <stop id="stop3829" stop-color="#fff" stop-opacity="0" offset="1"/>
  </linearGradient>
 </defs>
 <metadata id="metadata7">
  <rdf:RDF>
   <cc:Work rdf:about="">
    <dc:format>image/svg+xml</dc:format>
    <dc:type rdf:resource="http://purl.org/dc/dcmitype/StillImage"/>
    <dc:title/>
   </cc:Work>
  </rdf:RDF>
 </metadata>
 <g id="layer1" transform="translate(0,2)">
  <g id="g3337" transform="translate(1,-1)">
   <rect id="rect3371" x=".5" y=".5" width="21" height="21.5" rx="2.5" ry="2.5" fill="url(#linearGradient3335)" opacity=".3"/>
   <rect id="rect2553" x="1" y="2" width="20" height="20" rx="2.381" ry="2.3256" opacity=".5"/>
  </g>
  <rect id="rect3173" x="2" width="20" height="20" rx="2" ry="2" fill="url(#linearGradient3181)" fill-rule="evenodd"/>
  <path id="rect3050" d="m4 0c-1.108 0-2 0.892-2 2v16c0 1.108 0.892 2 2 2h16c1.108 0 2-0.892 2-2v-16c0-1.108-0.892-2-2-2h-16zm0 1.0312h16c0.5497 0 0.96875 0.41905 0.96875 0.96875v16c0 0.5497-0.41905 0.96875-0.96875 0.96875h-16c-0.5497 0-0.96875-0.41905-0.96875-0.96875v-16c0-0.5497 0.41905-0.96875 0.96875-0.96875z" fill="url(#linearGradient3859)" fill-rule="evenodd" opacity=".6"/>
  <path id="path3235" d="m4 20c-1.108 0-2-0.892-2-2v-1c0 1.108 0.892 2 2 2h16c1.108 0 2-0.892 2-2v1c0 1.108-0.892 2-2 2h-16z" fill="url(#linearGradient3845-3)" fill-rule="evenodd" opacity=".35"/>
 </g>
 <g id="layer2" transform="translate(0,2)">
  <rect id="rect2410" transform="translate(1,-1)" x="3" y="3" width="16" height="16" rx="2" ry="2" clip-path="url(#clipPath2849)" fill="#fff" filter="url(#filter3194)" opacity=".15"/>
 </g>
 <g id="layer3" transform="translate(0,2)">
  <path id="path3836" d="m12 2c-4.4183 0-8 3.5817-8 8s3.5817 8 8 8 8-3.5817 8-8-3.5817-8-8-8zm0 2c3.3137 0 6 2.6863 6 6 0 3.3137-2.6863 6-6 6-3.3137 0-6-2.6863-6-6 0-3.3137 2.6863-6 6-6zm0.15625 1.3333c-0.76384 1e-5 -1.4232 0.11449-1.9896 0.33333-0.56215 0.21457-1.0268 0.5133-1.3958 0.91667-0.36904 0.39909-0.64881 0.88761-0.83333 1.4583-0.18023 0.57073-0.27083 1.2086-0.27083 1.9167-1e-6 0.6823 0.0906 1.3104 0.27083 1.8854 0.18452 0.57502 0.46 1.0795 0.83333 1.5 0.37762 0.41625 0.85206 0.74315 1.4271 0.97917 0.57502 0.23172 1.2564 0.34375 2.0417 0.34375 0.60076 0 1.1309-0.07285 1.5729-0.21875 0.44628-0.15019 0.82399-0.34303 1.1458-0.58333 0.32183-0.2403 0.58752-0.52008 0.80208-0.83333 0.21455-0.31326 0.3878-0.6322 0.52083-0.95833l-1.6458-0.625c-0.08154 0.21027-0.19419 0.41902-0.32292 0.625-0.12445 0.20598-0.27565 0.38902-0.46875 0.55208-0.18882 0.16307-0.41533 0.29285-0.67708 0.39583-0.25748 0.0987-0.57092 0.15625-0.92708 0.15625-0.47204 2e-6 -0.86933-0.08081-1.2083-0.23958-0.33472-0.15877-0.61878-0.38345-0.83333-0.66667-0.21456-0.28322-0.36576-0.61992-0.46875-1.0104-0.0987-0.39479-0.14584-0.83005-0.14583-1.3021-2e-6 -0.47632 0.04713-0.89933 0.14583-1.2812 0.10298-0.3862 0.25848-0.71494 0.46875-0.98958 0.21456-0.27463 0.48208-0.48951 0.8125-0.63542 0.33042-0.15018 0.72834-0.22916 1.1875-0.22917 0.32612 7e-6 0.61752 0.0496 0.875 0.13542 0.25746 0.08154 0.47785 0.18561 0.66667 0.32292 0.1931 0.13732 0.35472 0.29894 0.47917 0.47917 0.12444 0.17594 0.22117 0.35899 0.28125 0.55208l1.6667-0.45833c-0.12016-0.36904-0.28545-0.70574-0.5-1.0104-0.21028-0.30896-0.47596-0.56852-0.80208-0.79167-0.32185-0.22742-0.70997-0.4068-1.1562-0.53125-0.442-0.12444-0.9599-0.18749-1.5521-0.1875z" color="#000000" fill="url(#linearGradient2972)"/>
  <path id="path2887" transform="translate(0,-2)" d="m12 4c-4.4183 0-8 3.5817-8 8 0 0.17009 0.02079 0.33255 0.03125 0.5 0.26124-4.1823 3.7206-7.5 7.9688-7.5 4.2482 0 7.7075 3.3177 7.9688 7.5 0.01046-0.16745 0.03125-0.32991 0.03125-0.5 0-4.4183-3.5817-8-8-8zm0.15625 3.3438c-0.76384 1e-5 -1.4336 0.093658-2 0.3125-0.56215 0.21457-1.006 0.53414-1.375 0.9375-0.36904 0.39909-0.65923 0.86678-0.84375 1.4375-0.18023 0.57073-0.28125 1.2295-0.28125 1.9375-2e-7 0.1646 0.020719 0.31045 0.03125 0.46875 0.034538-0.49956 0.11606-0.9821 0.25-1.4062 0.18452-0.57072 0.47471-1.0384 0.84375-1.4375 0.36904-0.40336 0.81285-0.72293 1.375-0.9375 0.56643-0.21884 1.2362-0.31249 2-0.3125 0.59218 1e-5 1.1205 0.063065 1.5625 0.1875 0.44628 0.12445 0.8344 0.30383 1.1562 0.53125 0.32612 0.22315 0.57097 0.47229 0.78125 0.78125 0.027345 0.038832 0.036747 0.085127 0.0625 0.125l0.4375-0.125c-0.12016-0.36904-0.28545-0.69532-0.5-1-0.21028-0.30896-0.45513-0.5581-0.78125-0.78125-0.32185-0.22742-0.70997-0.4068-1.1562-0.53125-0.442-0.12444-0.97032-0.18749-1.5625-0.1875zm-6.125 5.2812c-0.0074712 0.12259-0.03125 0.25053-0.03125 0.375 0 3.3137 2.6863 6 6 6 3.3137 0 6-2.6863 6-6 0-0.12447-0.023779-0.25241-0.03125-0.375-0.30726 3.0255-2.8621 5.375-5.9688 5.375-3.1066 0-5.6615-2.3495-5.9688-5.375zm3.5938 0c-0.0059853 0.11283-0.03125 0.22442-0.03125 0.34375-2e-6 0.47204 0.0263 0.88646 0.125 1.2812 0.10298 0.3905 0.25419 0.74804 0.46875 1.0312 0.21456 0.28322 0.50903 0.49748 0.84375 0.65625 0.339 0.15877 0.74672 0.25 1.2188 0.25 0.35616 2e-6 0.64877-0.05755 0.90625-0.15625 0.26176-0.10299 0.49868-0.24318 0.6875-0.40625 0.1931-0.16306 0.3443-0.35652 0.46875-0.5625 0.12873-0.20598 0.23096-0.41473 0.3125-0.625l1.2188 0.46875c0.17501-0.27126 0.32288-0.56278 0.4375-0.84375l-1.6562-0.625c-0.08154 0.21027-0.18377 0.41902-0.3125 0.625-0.12445 0.20598-0.27565 0.39944-0.46875 0.5625-0.18882 0.16307-0.42574 0.30326-0.6875 0.40625-0.25748 0.0987-0.55009 0.15625-0.90625 0.15625-0.47204 2e-6 -0.87975-0.091227-1.2188-0.25-0.33472-0.15877-0.62919-0.37303-0.84375-0.65625-0.21456-0.28322-0.36576-0.64075-0.46875-1.0312-0.04935-0.19739-0.069629-0.40783-0.09375-0.625z" color="#000000" opacity=".2"/>
  <path id="path3668" transform="translate(0,-2)" d="m12 6c-3.3137 0-6 2.6863-6 6 0 0.12447 0.023779 0.25241 0.03125 0.375 0.30726-3.0255 2.8621-5.375 5.9688-5.375 3.1066 0 5.6615 2.3495 5.9688 5.375 0.007471-0.12259 0.03125-0.25053 0.03125-0.375 0-3.3137-2.6863-6-6-6zm0.1875 2.8125c-0.45916 7e-6 -0.85708 0.099816-1.1875 0.25-0.33042 0.14591-0.59794 0.35037-0.8125 0.625-0.21027 0.27464-0.36576 0.6138-0.46875 1-0.098704 0.38192-0.125 0.80493-0.125 1.2812-5e-7 0.11267 0.025819 0.20407 0.03125 0.3125 0.024121-0.21303 0.044398-0.40279 0.09375-0.59375 0.10298-0.3862 0.25848-0.72536 0.46875-1 0.21456-0.27463 0.48208-0.47909 0.8125-0.625 0.33042-0.15018 0.72834-0.24999 1.1875-0.25 0.32612 7e-6 0.61752 0.070434 0.875 0.15625 0.25746 0.08154 0.49868 0.17519 0.6875 0.3125 0.1931 0.13732 0.3443 0.28853 0.46875 0.46875 0.12444 0.17594 0.22117 0.3694 0.28125 0.5625l1.6562-0.46875c-0.10485-0.322-0.26119-0.60202-0.4375-0.875l-1.2188 0.34375c-0.060084-0.1931-0.15681-0.38656-0.28125-0.5625-0.12445-0.18022-0.27565-0.33142-0.46875-0.46875-0.18882-0.13731-0.43004-0.23096-0.6875-0.3125-0.25748-0.085816-0.54888-0.15624-0.875-0.15625zm-4.5 3.625c-0.011936 0.17264-0.03125 0.3494-0.03125 0.53125-1e-6 0.6823 0.10102 1.3 0.28125 1.875 0.18452 0.57502 0.47042 1.0795 0.84375 1.5 0.37762 0.41625 0.83123 0.73274 1.4062 0.96875 0.57502 0.23172 1.2772 0.34375 2.0625 0.34375 0.60076 0 1.1205-0.07285 1.5625-0.21875 0.44628-0.15019 0.8344-0.32219 1.1562-0.5625 0.32183-0.2403 0.56668-0.53049 0.78125-0.84375 0.21455-0.31326 0.39821-0.64262 0.53125-0.96875l-0.4375-0.15625c-0.028126 0.043596-0.064043 0.081626-0.09375 0.125-0.21457 0.31326-0.45942 0.60344-0.78125 0.84375-0.32185 0.24031-0.70997 0.41231-1.1562 0.5625-0.442 0.1459-0.96174 0.21875-1.5625 0.21875-0.78529 0-1.4875-0.11203-2.0625-0.34375-0.57502-0.23602-1.0286-0.5525-1.4062-0.96875-0.37333-0.42054-0.65923-0.92498-0.84375-1.5-0.13675-0.4363-0.21688-0.90834-0.25-1.4062zm-3.6562 0.0625c-0.01046 0.16745-0.03125 0.32991-0.03125 0.5 0 4.4183 3.5817 8 8 8s8-3.5817 8-8c0-0.17009-0.02079-0.33255-0.03125-0.5-0.26124 4.1823-3.7206 7.5-7.9688 7.5-4.2482 0-7.7075-3.3177-7.9688-7.5z" color="#000000" fill="#fff" opacity=".6"/>
 </g>
</svg>
