<?xml version="1.0" encoding="UTF-8"?>
<svg id="svg36" width="16" height="16" version="1.1" xmlns="http://www.w3.org/2000/svg" xmlns:cc="http://creativecommons.org/ns#" xmlns:dc="http://purl.org/dc/elements/1.1/" xmlns:rdf="http://www.w3.org/1999/02/22-rdf-syntax-ns#">
 <metadata id="metadata40">
  <rdf:RDF>
   <cc:Work rdf:about="">
    <dc:format>image/svg+xml</dc:format>
    <dc:type rdf:resource="http://purl.org/dc/dcmitype/StillImage"/>
   </cc:Work>
  </rdf:RDF>
 </metadata>
 <defs id="defs7">
  <radialGradient id="gr0" cx="9" cy="10" r="11" gradientTransform="matrix(1 0 0 .63636 0 3.6364)" gradientUnits="userSpaceOnUse">
   <stop id="stop2" stop-opacity=".23529" offset="0"/>
   <stop id="stop4" stop-opacity=".54902" offset="1"/>
  </radialGradient>
 </defs>
 <path id="path9" d="m2 1c-1.0907 0-2 0.909-2 2v10c0 1.09 0.9093 2 2 2h12c1.09 0 2-0.91 2-2v-10c0-1.091-0.91-2-2-2h-12zm0 1h12c0.55 0 1 0.446 1 1v10c0 0.55-0.45 1-1 1h-12c-0.554 0-1-0.45-1-1v-10c0-0.554 0.446-1 1-1zm0 2v2h3v-2h-3zm4 0v2h2v-2h-2zm3 0v2h2v-2h-2zm3 0v2h2v-2h-2zm-10 3v2h2v-2h-2zm3 0v2h2v-2h-2zm3 0v2h2v-2h-2zm3 0v2h3v-2h-3zm-9 3v2h2v-2h-2zm3 0v2h6v-2h-6zm7 0v2h2v-2h-2z" fill="#fff" opacity=".05"/>
 <path id="base" d="m2 2c-0.554 0-1 0.446-1 1v10c0 0.554 0.446 1 1 1h12c0.554 0 1-0.446 1-1v-10c0-0.554-0.446-1-1-1zm0 2h3v2h-3zm4 0h2v2h-2zm3 0h2v2h-2zm3 0h2v2h-2zm-10 3h2v2h-2zm3 0h2v2h-2zm3 0h2v2h-2zm3 0h3v2h-3zm-9 3h2v2h-2zm3 0h6v2h-6zm7 0h2v2h-2z" fill="url(#gr0)"/>
 <path id="path17" d="m2 2c-0.554 0-1 0.446-1 1v10c0 0.55 0.446 1 1 1h12c0.55 0 1-0.45 1-1v-10c0-0.554-0.45-1-1-1h-12zm0 0.5h12c0.29 0 0.5 0.214 0.5 0.5v1a0.5 0.5 0 0 0-0.5-0.5h-2a0.5 0.5 0 0 0-0.5 0.5 0.5 0.5 0 0 0-0.5-0.5h-2a0.5 0.5 0 0 0-0.5 0.5 0.5 0.5 0 0 0-0.5-0.5h-2a0.5 0.5 0 0 0-0.5 0.5 0.5 0.5 0 0 0-0.5-0.5h-3a0.5 0.5 0 0 0-0.5 0.5v-1c0-0.286 0.214-0.5 0.5-0.5zm0 1.5h3v2h-3v-2zm4 0h2v2h-2v-2zm3 0h2v2h-2v-2zm3 0h2v2h-2v-2zm-10.5 2a0.5 0.5 0 0 0 0.5 0.5 0.5 0.5 0 0 0-0.5 0.5v-1zm4 0a0.5 0.5 0 0 0 0.5 0.5h-1a0.5 0.5 0 0 0-0.5 0.5 0.5 0.5 0 0 0-0.5-0.5h1a0.5 0.5 0 0 0 0.5-0.5zm3 0a0.5 0.5 0 0 0 0.5 0.5h-1a0.5 0.5 0 0 0-0.5 0.5 0.5 0.5 0 0 0-0.5-0.5h1a0.5 0.5 0 0 0 0.5-0.5zm3 0a0.5 0.5 0 0 0 0.5 0.5h-1a0.5 0.5 0 0 0-0.5 0.5 0.5 0.5 0 0 0-0.5-0.5h1a0.5 0.5 0 0 0 0.5-0.5zm3 0v1a0.5 0.5 0 0 0-0.5-0.5 0.5 0.5 0 0 0 0.5-0.5zm-12.5 1h2v2h-2v-2zm3 0h2v2h-2v-2zm3 0h2v2h-2v-2zm3 0h3v2h-3v-2zm-9.5 2a0.5 0.5 0 0 0 0.5 0.5 0.5 0.5 0 0 0-0.5 0.5v-1zm3 0a0.5 0.5 0 0 0 0.5 0.5 0.5 0.5 0 0 0-0.5 0.5 0.5 0.5 0 0 0-0.5-0.5 0.5 0.5 0 0 0 0.5-0.5zm3 0a0.5 0.5 0 0 0 0.5 0.5h-1a0.5 0.5 0 0 0 0.5-0.5zm3 0a0.5 0.5 0 0 0 0.5 0.5h1a0.5 0.5 0 0 0-0.5 0.5 0.5 0.5 0 0 0-0.5-0.5h-1a0.5 0.5 0 0 0 0.5-0.5zm4 0v1a0.5 0.5 0 0 0-0.5-0.5 0.5 0.5 0 0 0 0.5-0.5zm-12.5 1h2v2h-2v-2zm3 0h6v2h-6v-2zm7 0h2v2h-2v-2zm-10.5 2a0.5 0.5 0 0 0 0.5 0.5h2a0.5 0.5 0 0 0 0.5-0.5 0.5 0.5 0 0 0 0.5 0.5h6a0.5 0.5 0 0 0 0.5-0.5 0.5 0.5 0 0 0 0.5 0.5h2a0.5 0.5 0 0 0 0.5-0.5v1c0 0.29-0.21 0.5-0.5 0.5h-12c-0.286 0-0.5-0.21-0.5-0.5v-1z" opacity=".3"/>
 <path id="path24" d="m2 4v1h3v-1h-3zm4 0v1h2v-1h-2zm3 0v1h2v-1h-2zm3 0v1h2v-1h-2zm-10 3v1h2v-1h-2zm3 0v1h2v-1h-1-1zm3 0v1h2v-1h-1-1zm3 0v1h3v-1h-2-1zm-9 3v1h2v-1h-2zm3 0v1h6v-1h-1-2-1-2zm7 0v1h2v-1h-2zm-11 3v1c0 0.55 0.446 1 1 1h12c0.55 0 1-0.45 1-1v-1c0 0.55-0.45 1-1 1h-12c-0.554 0-1-0.45-1-1z" fill="#fff" opacity=".2"/>
 <path id="path31" d="m2 2c-0.554 0-1 0.446-1 1v1c0-0.554 0.446-1 1-1h12c0.55 0 1 0.446 1 1v-1c0-0.554-0.45-1-1-1h-12zm0 4v1h2 1v-1h-3zm4 0v1h1 1v-1h-2zm3 0v1h1 1v-1h-2zm3 0v1h2v-1h-2zm-10 3v1h2v-1h-2zm3 0v1h2v-1h-2zm3 0v1h2v-1h-2zm3 0v1h1 2v-1h-3zm-9 3v1h2v-1h-2zm3 0v1h6v-1h-6zm7 0v1h2v-1h-2z" opacity=".3"/>
</svg>
