<?xml version="1.0" encoding="UTF-8"?>
<svg id="svg36" width="16" height="16" version="1.1" xmlns="http://www.w3.org/2000/svg" xmlns:cc="http://creativecommons.org/ns#" xmlns:dc="http://purl.org/dc/elements/1.1/" xmlns:rdf="http://www.w3.org/1999/02/22-rdf-syntax-ns#">
 <metadata id="metadata40">
  <rdf:RDF>
   <cc:Work rdf:about="">
    <dc:format>image/svg+xml</dc:format>
    <dc:type rdf:resource="http://purl.org/dc/dcmitype/StillImage"/>
   </cc:Work>
  </rdf:RDF>
 </metadata>
 <defs id="defs7">
  <radialGradient id="gr0" cx="9" cy="10" r="11" gradientTransform="matrix(1 0 0 .72727 0 2.7273)" gradientUnits="userSpaceOnUse">
   <stop id="stop2" stop-opacity=".23529" offset="0"/>
   <stop id="stop4" stop-opacity=".54902" offset="1"/>
  </radialGradient>
 </defs>
 <path id="path9" d="m3 0c-1.645 0-3 1.355-3 3v10c0 1.64 1.355 3 3 3a1 1 0 0 0 0.5-0.13 1 1 0 0 0 0.5 0.13h8a1 1 0 0 0 0.5-0.13 1 1 0 0 0 0.5 0.13c1.64 0 3-1.36 3-3v-10c0-1.645-1.36-3-3-3h-1v1h1c1.11 0 2 0.892 2 2v10c0 1.11-0.89 2-2 2v-8h-10v8c-1.108 0-2-0.89-2-2v-10c0-1.108 0.892-2 2-2h3v-1h-3zm3 1c-0.554 0-1 0.446-1 1v3c0 0.554 0.446 1 1 1h6c0.55 0 1-0.446 1-1v-3c0-0.554-0.45-1-1-1v0.105c-0.1-0.02-0.15-0.105-0.25-0.105h-1.5c-0.675 0-1.25 0.575-1.25 1.25v2.5c0 0.1 0.08 0.159 0.105 0.25h-3.105v-3-1zm4.25 1h1.5c0.14 0 0.25 0.112 0.25 0.25v2.5c0 0.138-0.11 0.25-0.25 0.25h-1.5c-0.14 0-0.25-0.112-0.25-0.25v-2.5c0-0.138 0.11-0.25 0.25-0.25zm-6.25 6h8v4h-8v-4zm0 5h8v2h-8v-2z" fill="#fff" opacity=".05"/>
 <path id="base" d="m3 1c-1.108 0-2 0.892-2 2v10c0 1.108 0.892 2 2 2v-8h10v8c1.108 0 2-0.892 2-2v-10c0-1.108-0.892-2-2-2h-1c0.554 0 1 0.446 1 1v3c0 0.554-0.446 1-1 1h-6c-0.554 0-1-0.446-1-1v-3c0-0.554 0.446-1 1-1h-3zm7.25 1c-0.1385 0-0.25 0.1115-0.25 0.25v2.5c0 0.1385 0.1115 0.25 0.25 0.25h1.5c0.1385 0 0.25-0.1115 0.25-0.25v-2.5c0-0.1385-0.1115-0.25-0.25-0.25h-1.5zm-6.25 11v2h8v-2h-8z" fill="url(#gr0)"/>
 <path id="path17" d="m3 1c-1.108 0-2 0.892-2 2v10c0 1.11 0.892 2 2 2v-8h10v8c1.11 0 2-0.89 2-2v-10c0-1.108-0.89-2-2-2h-1c0.55 0 1 0.446 1 1v3c0 0.554-0.45 1-1 1h-6c-0.554 0-1-0.446-1-1v-3c0-0.554 0.446-1 1-1h-3zm0 0.5h1.709c-0.069 0.171-0.209 0.306-0.209 0.5v3c0 0.822 0.678 1.5 1.5 1.5h-3a0.5 0.5 0 0 0-0.5 0.5v7.29c-0.558-0.21-1-0.65-1-1.29v-10c0-0.84 0.66-1.5 1.5-1.5zm10.35 0.145c0.64 0.171 1.15 0.654 1.15 1.355v10c0 0.64-0.44 1.08-1 1.29v-7.29a0.5 0.5 0 0 0-0.5-0.5h-1c0.82 0 1.5-0.678 1.5-1.5v-3c0-0.138-0.15-0.228-0.15-0.355zm-3.1 0.355c-0.14 0-0.25 0.112-0.25 0.25v2.5c0 0.138 0.11 0.25 0.25 0.25h1.5c0.14 0 0.25-0.112 0.25-0.25v-2.5c0-0.138-0.11-0.25-0.25-0.25h-1.5zm0.25 0.5h1v2h-1v-2zm-6.5 10.5v2h8v-2h-8zm0.5 0.5h7v1h-7v-1z" opacity=".3"/>
 <path id="path24" d="m5 2v1c0-0.554 0.446-1 1-1h-1zm7 0c0.55 0 1 0.446 1 1v-1h-1zm-2 2.75v1c0 0.138 0.11 0.25 0.25 0.25h1.5c0.14 0 0.25-0.112 0.25-0.25v-1c0 0.138-0.11 0.25-0.25 0.25h-1.5c-0.14 0-0.25-0.112-0.25-0.25zm-7 2.25v1h10v-1h-1-6-3zm-2 6v1c0 1.11 0.892 2 2 2v-1c-1.108 0-2-0.89-2-2zm14 0c0 1.11-0.89 2-2 2v1c1.11 0 2-0.89 2-2v-1zm-11 2v1h8v-1h-8z" fill="#fff" opacity=".2"/>
 <path id="path31" d="m3 1c-1.108 0-2 0.892-2 2v1c0-1.108 0.892-2 2-2h2c0-0.554 0.446-1 1-1h-3zm9 0c0.55 0 1 0.446 1 1 1.11 0 2 0.892 2 2v-1c0-1.108-0.89-2-2-2h-1zm-1.75 1c-0.14 0-0.25 0.112-0.25 0.25v1c0-0.138 0.11-0.25 0.25-0.25h1.5c0.14 0 0.25 0.112 0.25 0.25v-1c0-0.138-0.11-0.25-0.25-0.25h-1.5zm-5.25 3v1c0 0.554 0.446 1 1 1h6c0.55 0 1-0.446 1-1v-1c0 0.554-0.45 1-1 1h-0.25-1.5-4.25c-0.554 0-1-0.446-1-1zm-1 8v1h8v-1h-8z" opacity=".3"/>
</svg>
