<?xml version="1.0" encoding="UTF-8"?>
<svg id="svg2408" width="96" height="96" version="1.0" xmlns="http://www.w3.org/2000/svg" xmlns:cc="http://creativecommons.org/ns#" xmlns:dc="http://purl.org/dc/elements/1.1/" xmlns:rdf="http://www.w3.org/1999/02/22-rdf-syntax-ns#" xmlns:xlink="http://www.w3.org/1999/xlink">
 <defs id="defs2410">
  <linearGradient id="ButtonShadow" x1="45.448" x2="45.448" y1="92.54" y2="7.0165" gradientTransform="scale(1.0059 .99417)" gradientUnits="userSpaceOnUse">
   <stop id="stop3750" offset="0"/>
   <stop id="stop3752" stop-opacity=".58824" offset="1"/>
  </linearGradient>
  <linearGradient id="linearGradient3737">
   <stop id="stop3739" stop-color="#fff" offset="0"/>
   <stop id="stop3741" stop-color="#fff" stop-opacity="0" offset="1"/>
  </linearGradient>
  <filter id="filter3174">
   <feGaussianBlur id="feGaussianBlur3176" stdDeviation="1.71"/>
  </filter>
  <linearGradient id="linearGradient3188" x1="36.357" x2="36.357" y1="6" y2="63.893" gradientUnits="userSpaceOnUse" xlink:href="#linearGradient3737"/>
  <filter id="filter3794" x="-.192" y="-.192" width="1.384" height="1.384">
   <feGaussianBlur id="feGaussianBlur3796" stdDeviation="5.28"/>
  </filter>
  <linearGradient id="linearGradient3613" x1="48" x2="48" y1="20.221" y2="138.66" gradientUnits="userSpaceOnUse" xlink:href="#linearGradient3737"/>
  <radialGradient id="radialGradient3619" cx="48" cy="90.172" r="42" gradientTransform="matrix(1.1573 0 0 .99591 -7.551 .19713)" gradientUnits="userSpaceOnUse" xlink:href="#linearGradient3737"/>
  <clipPath id="clipPath3613">
   <rect id="rect3615" x="6" y="6" width="84" height="84" rx="6" ry="6" fill="#fff"/>
  </clipPath>
  <linearGradient id="linearGradient3617" x1="48" x2="48" y1="90" y2="5.9877" gradientUnits="userSpaceOnUse">
   <stop id="stop3702" stop-color="#4c6d37" offset="0"/>
   <stop id="stop3704" stop-color="#75ac54" offset="1"/>
  </linearGradient>
  <linearGradient id="ButtonShadow-0" x1="45.448" x2="45.448" y1="92.54" y2="7.0165" gradientTransform="matrix(1.0059 0 0 .99417 100 0)" gradientUnits="userSpaceOnUse">
   <stop id="stop3750-8" offset="0"/>
   <stop id="stop3752-5" stop-opacity=".58824" offset="1"/>
  </linearGradient>
  <linearGradient id="linearGradient3780" x1="32.251" x2="32.251" y1="6.1317" y2="90.239" gradientTransform="matrix(1.0238 0 0 1.0119 -1.1429 -98.071)" gradientUnits="userSpaceOnUse" xlink:href="#ButtonShadow-0"/>
  <linearGradient id="linearGradient3721" x1="32.251" x2="32.251" y1="6.1317" y2="90.239" gradientTransform="translate(0,-97)" gradientUnits="userSpaceOnUse" xlink:href="#ButtonShadow-0"/>
  <linearGradient id="linearGradient3146" x1="48" x2="48" y1="6" y2="109.11" gradientUnits="userSpaceOnUse">
   <stop id="stop3739-4" stop-color="#fffec0" offset="0"/>
   <stop id="stop3741-3" stop-color="#fff" stop-opacity="0" offset="1"/>
  </linearGradient>
  <linearGradient id="linearGradient4053" x1="37.875" x2="37.875" y1="-62" y2="8.875" gradientTransform="matrix(.88889 0 0 .88889 5.3333 71.111)" gradientUnits="userSpaceOnUse">
   <stop id="stop4090" stop-color="#d5b742" offset="0"/>
   <stop id="stop4094" stop-color="#f5e6aa" offset=".34921"/>
   <stop id="stop4096" stop-color="#e0bf55" offset=".57143"/>
   <stop id="stop4092" stop-color="#8a6e24" offset="1"/>
  </linearGradient>
 </defs>
 <metadata id="metadata2413">
  <rdf:RDF>
   <cc:Work rdf:about="">
    <dc:format>image/svg+xml</dc:format>
    <dc:type rdf:resource="http://purl.org/dc/dcmitype/StillImage"/>
    <dc:title/>
   </cc:Work>
  </rdf:RDF>
 </metadata>
 <g id="layer2" display="none">
  <rect id="rect3745" x="5" y="7" width="86" height="85" rx="6" ry="6" fill="url(#ButtonShadow)" filter="url(#filter3174)" opacity=".9"/>
 </g>
 <g id="layer3">
  <path id="path3786" transform="scale(1,-1)" d="m12-95.031c-5.5111 0-10.031 4.5202-10.031 10.031v71c0 5.5111 4.5202 10.031 10.031 10.031h72c5.5111 0 10.031-4.5202 10.031-10.031v-71c0-5.5111-4.5202-10.031-10.031-10.031h-72z" fill="url(#linearGradient3780)" opacity=".08"/>
  <path id="path3778" transform="scale(1,-1)" d="m12-94.031c-4.9716 0-9.0312 4.0596-9.0312 9.0312v71c0 4.9716 4.0596 9.0312 9.0312 9.0312h72c4.9716 0 9.0312-4.0596 9.0312-9.0312v-71c0-4.9716-4.0596-9.0312-9.0312-9.0312h-72z" fill="url(#linearGradient3780)" opacity=".1"/>
  <path id="path3770" transform="scale(1,-1)" d="m12-93c-4.4091 0-8 3.5909-8 8v71c0 4.4091 3.5909 8 8 8h72c4.4091 0 8-3.5909 8-8v-71c0-4.4091-3.5909-8-8-8h-72z" fill="url(#linearGradient3780)" opacity=".2"/>
  <rect id="rect3723" transform="scale(1,-1)" x="5" y="-92" width="86" height="85" rx="7" ry="7" fill="url(#linearGradient3780)" opacity=".3"/>
  <rect id="rect3716" transform="scale(1,-1)" x="6" y="-91" width="84" height="84" rx="6" ry="6" fill="url(#linearGradient3721)" opacity=".45"/>
 </g>
 <g id="layer1">
  <rect id="rect2419" x="6" y="6" width="84" height="84" rx="6" ry="6" fill="url(#linearGradient3617)"/>
  <path id="rect3728" d="m12 6c-3.324 0-6 2.676-6 6v2 68 2c0 0.33472 0.04135 0.6507 0.09375 0.96875 0.0487 0.2956 0.09704 0.59692 0.1875 0.875 0.00988 0.03038 0.020892 0.0636 0.03125 0.09375 0.098865 0.28777 0.23488 0.54745 0.375 0.8125 0.14459 0.27351 0.31562 0.53562 0.5 0.78125s0.37378 0.47347 0.59375 0.6875c0.43995 0.42806 0.94291 0.81453 1.5 1.0938 0.27854 0.13961 0.57347 0.24695 0.875 0.34375-0.2562-0.10022-0.48671-0.23627-0.71875-0.375-0.00741-0.0044-0.023866 0.0045-0.03125 0-0.031933-0.0193-0.062293-0.04251-0.09375-0.0625-0.1204-0.0767-0.23102-0.16351-0.34375-0.25-0.10617-0.0808-0.21328-0.16111-0.3125-0.25-0.17793-0.16143-0.34746-0.34539-0.5-0.53125-0.10758-0.13026-0.21839-0.26528-0.3125-0.40625-0.025089-0.03838-0.038446-0.08587-0.0625-0.125-0.064763-0.10303-0.13023-0.20452-0.1875-0.3125-0.10101-0.19471-0.20567-0.4157-0.28125-0.625-0.00796-0.02181-0.023589-0.04055-0.03125-0.0625-0.031825-0.09195-0.035804-0.18683-0.0625-0.28125-0.030332-0.10662-0.070389-0.20303-0.09375-0.3125-0.072879-0.34151-0.125-0.6982-0.125-1.0625v-2-68-2c0-2.7818 2.2182-5 5-5h2 68 2c2.7818 0 5 2.2182 5 5v2 68 2c0 0.3643-0.05212 0.72099-0.125 1.0625-0.04415 0.20689-0.08838 0.39766-0.15625 0.59375-0.0077 0.02195-0.0233 0.04069-0.03125 0.0625-0.06274 0.17374-0.13838 0.36745-0.21875 0.53125-0.04158 0.0828-0.07904 0.16995-0.125 0.25-0.0546 0.09721-0.12677 0.18835-0.1875 0.28125-0.09411 0.14096-0.20492 0.276-0.3125 0.40625-0.14317 0.17445-0.30314 0.347-0.46875 0.5-0.01117 0.0102-0.01998 0.02115-0.03125 0.03125-0.13839 0.12556-0.28509 0.23444-0.4375 0.34375-0.10257 0.07315-0.20432 0.15336-0.3125 0.21875-0.0074 0.0045-0.02384-0.0044-0.03125 0-0.23204 0.13873-0.46255 0.27478-0.71875 0.375 0.30153-0.0968 0.59646-0.20414 0.875-0.34375 0.55709-0.27922 1.0601-0.66569 1.5-1.0938 0.21997-0.21403 0.40937-0.44186 0.59375-0.6875s0.35541-0.50774 0.5-0.78125c0.14012-0.26505 0.27614-0.52473 0.375-0.8125 0.01041-0.03078 0.02133-0.06274 0.03125-0.09375 0.09046-0.27808 0.1388-0.5794 0.1875-0.875 0.0524-0.31805 0.09375-0.63403 0.09375-0.96875v-2-68-2c0-3.324-2.676-6-6-6h-72z" fill="url(#linearGradient3188)" opacity=".5"/>
  <path id="path3615" d="m12 90c-3.324 0-6-2.676-6-6v-2-68-2c0-0.33472 0.04135-0.6507 0.09375-0.96875 0.0487-0.2956 0.09704-0.59692 0.1875-0.875 0.00988-0.03038 0.020892-0.0636 0.03125-0.09375 0.098865-0.28777 0.23488-0.54745 0.375-0.8125 0.14459-0.27351 0.31562-0.53562 0.5-0.78125s0.37378-0.47347 0.59375-0.6875c0.43995-0.42806 0.94291-0.81453 1.5-1.0938 0.27854-0.13961 0.57347-0.24695 0.875-0.34375-0.2562 0.10022-0.48671 0.23627-0.71875 0.375-0.00741 0.0044-0.023866-0.0045-0.03125 0-0.031933 0.0193-0.062293 0.04251-0.09375 0.0625-0.1204 0.0767-0.23102 0.16351-0.34375 0.25-0.10617 0.0808-0.21328 0.16111-0.3125 0.25-0.17793 0.16143-0.34746 0.34539-0.5 0.53125-0.10758 0.13026-0.21839 0.26528-0.3125 0.40625-0.025089 0.03838-0.038446 0.08587-0.0625 0.125-0.064763 0.10303-0.13023 0.20452-0.1875 0.3125-0.10101 0.19471-0.20567 0.4157-0.28125 0.625-0.00796 0.02181-0.023589 0.04055-0.03125 0.0625-0.031825 0.09195-0.035804 0.18683-0.0625 0.28125-0.030332 0.10662-0.070389 0.20303-0.09375 0.3125-0.072879 0.34151-0.125 0.6982-0.125 1.0625v2 68 2c0 2.7818 2.2182 5 5 5h2 68 2c2.7818 0 5-2.2182 5-5v-2-68-2c0-0.3643-0.05212-0.72099-0.125-1.0625-0.04415-0.20689-0.08838-0.39766-0.15625-0.59375-0.0077-0.02195-0.0233-0.04069-0.03125-0.0625-0.06274-0.17374-0.13838-0.36745-0.21875-0.53125-0.04158-0.0828-0.07904-0.16995-0.125-0.25-0.0546-0.09721-0.12677-0.18835-0.1875-0.28125-0.09411-0.14096-0.20492-0.276-0.3125-0.40625-0.14317-0.17445-0.30314-0.347-0.46875-0.5-0.01117-0.0102-0.01998-0.02115-0.03125-0.03125-0.13839-0.12556-0.28509-0.23444-0.4375-0.34375-0.10257-0.07315-0.20432-0.15336-0.3125-0.21875-0.0074-0.0045-0.02384 0.0044-0.03125 0-0.23204-0.13873-0.46255-0.27478-0.71875-0.375 0.30153 0.0968 0.59646 0.20414 0.875 0.34375 0.55709 0.27922 1.0601 0.66569 1.5 1.0938 0.21997 0.21403 0.40937 0.44186 0.59375 0.6875s0.35541 0.50774 0.5 0.78125c0.14012 0.26505 0.27614 0.52473 0.375 0.8125 0.01041 0.03078 0.02133 0.06274 0.03125 0.09375 0.09046 0.27808 0.1388 0.5794 0.1875 0.875 0.0524 0.31805 0.09375 0.63403 0.09375 0.96875v2 68 2c0 3.324-2.676 6-6 6h-72z" fill="url(#radialGradient3619)" opacity=".2"/>
  <path id="path4141" d="M 20.875,6 46.65625,46.65625 6,20.5 6,39 46.21875,48 6,56.75 6,75.125 46.65625,49.34375 20.5,90 39,90 48,49.78125 56.75,90 75.125,90 49.34375,49.34375 90,75.5 90,57 49.78125,48 90,39.25 90,20.875 49.34375,46.65625 75.5,6 57,6 48,46.21875 39.25,6 20.875,6 z" fill="url(#linearGradient3146)" opacity=".3"/>
 </g>
 <g id="layer5">
  <rect id="rect3171" x="15" y="15" width="66" height="66" rx="12" ry="12" clip-path="url(#clipPath3613)" fill="url(#linearGradient3613)" filter="url(#filter3794)" opacity=".1" stroke="#fff" stroke-linecap="round" stroke-width=".5"/>
 </g>
 <g id="layer4">
  <path id="path4034" d="m44 13.969c-2.4382 0.20266-2.9298 2.882-2.7188 4.8396v2.9729c-6.406 1.364-11.981 6.4784-13.193 13.012-1.5345 6.5695 1.0304 14.194 6.9121 17.741 1.6262 1.3487 5.901 2.7144 6.2817 3.241-3.8948 1.27e-4 -7.7987-0.18776-11.688 6e-3 -3.1163 0.81834-2.3123 4.496-1.9114 6.8437 0.99551 5.4141 4.7404 10.475 9.8802 12.438 1.5934 1.2109 4.9654 0.16386 3.7057 3.295-0.10007 1.996-0.26506 4.8159 2.1503 5.522 2.6796 0.31184 5.4305 0.12267 8.1391 0.12797 2.4634 0.17592 3.6399-2.6154 3.1612-4.7085v-3.299c6.1241-1.4269 11.714-5.9491 13.291-12.19 1.8621-6.1091 0.15777-13.656-5.0095-17.528-1.5261-1.7341-6.2835-3.4416-6.4676-4.0309 3.117-0.19079 6.3784 0.40027 9.4172-0.29067 2.8421-1.6439 1.4371-5.3756 1.1179-7.9552-1.155-5.2797-5.1159-9.9348-10.313-11.524-3.2887-0.0052-1.5587-3.7215-2.0905-5.8129-0.15223-2.3683-2.8809-3.037-4.8406-2.6986h-5.8234zm3.1562 22.594c2.5773-1.1949 4.2574 4.8429 1.0426 2.4491-1.3233-0.52985-4.2681-1.518-1.0426-2.4491zm-2.7812 20.281c2.0293 0.86922 4.4397 1.3093 6.0625 2.8438-1.0363 1.8663-4.768 1.6593-5.1419-0.68112-0.24222-0.77582-0.082214-1.69-0.9206-2.1626z" opacity=".05"/>
  <path id="path4028" d="m44.094 15c-1.4557 0.11775-2.0096 1.7137-1.7812 2.9742v4.5883c-5.4643 1.0022-10.545 4.6308-12.472 9.9631-2.4944 6.357-0.88 14.451 4.8537 18.528 4.6171 3.3922 10.452 4.355 15.422 7.0477 3.4979 1.7351-0.61733 4.6529-2.9885 3.7545-2.1495-0.06756-2.8971-2.1041-3.0966-3.887-0.67012-1.6037-2.6442-1.1313-4.0126-1.199-3.3984 0.02696-6.8247-0.12456-10.206 0.01155-1.4393 0.3324-1.7483 2.0551-1.4245 3.3062 0.36344 5.9309 3.8241 11.901 9.5547 14.053 1.2203 1.1059 4.5313 0.29051 4.3698 2.2404 0.09966 1.7691-0.19764 3.5972 0.14345 5.3312 0.52792 1.4993 2.3113 1.3408 3.5853 1.2884 2.0648-0.06559 4.1654 0.12936 6.2088-0.09375 1.3894-0.35967 1.5903-1.9618 1.4375-3.1635v-4.4928c5.4482-1.1412 10.643-4.5791 12.701-9.9224 2.5904-6.1288 1.3695-14.01-4.0065-18.271-4.7578-3.9899-11.103-5.0235-16.442-7.9376-3.3985-1.5051 0.60783-4.5999 2.8365-3.4984 1.9051 0.47445 2.2218 2.5246 2.3167 4.1603 0.35967 1.3894 1.9618 1.5903 3.1635 1.4375 3.58-0.021133 7.167 0.042069 10.743-0.031251 1.46-0.27621 1.9079-1.9762 1.5807-3.2511-0.18104-5.4592-2.8872-11.153-8.0173-13.546-1.3387-1.1938-4.3971-0.84549-4.8759-2.3938-0.06631-1.848 0.13044-3.7323-0.09375-5.5589-0.35967-1.3894-1.9618-1.5903-3.1635-1.4375h-6.3365z" opacity=".08"/>
  <path id="path4024" d="m44.219 16a0.99382 0.99382 0 0 0-0.90625 1v6.2812c-3.7511 0.66306-6.9832 2.1784-9.4375 4.7188-2.7528 2.8928-4.1563 6.5493-4.1562 10.75-4e-6 5.13 2.1641 9.2761 6.3438 12.062 1.6939 1.1807 5.2961 2.6895 11.188 4.8438 1.9046 0.69838 3.3062 1.4327 4.1562 2.1562s1.125 1.3479 1.125 1.9688c-2e-5 1.0031-0.37116 1.6405-1.375 2.25a0.99382 0.99382 0 0 0-0.03125 0.03125c-0.87257 0.58171-1.8794 0.84376-3.125 0.84375-1.4348 7e-6 -2.526-0.3593-3.4375-1.125-0.88711-0.74516-1.3063-1.6829-1.3438-3.0312a0.99382 0.99382 0 0 0-1-0.96875l-11.906-0.0625a0.99382 0.99382 0 0 0-1 1.0312c0.13688 4.5173 1.5263 8.3228 4.1562 11.188 2.4393 2.6136 5.8125 4.124 9.8438 4.7812v6.2812a0.99382 0.99382 0 0 0 1 1h7.375a0.99382 0.99382 0 0 0 1-1v-6.4375c3.9541-0.81109 7.2814-2.4136 9.75-4.9688 2.7975-2.9374 4.25-6.6876 4.25-11.062-4e-5 -4.9718-2.2301-9.0233-6.4375-11.844-1.8345-1.2891-5.5221-2.9061-11.375-5.0625-1.9364-0.74475-3.3477-1.4889-4.2188-2.1875s-1.125-1.2559-1.125-1.6875c-1.2e-5 -1.0313 0.35475-1.6679 1.25-2.3125a0.99382 0.99382 0 0 0 0-0.03125c0.79627-0.61528 1.69-0.90622 2.8125-0.90625 1.4537 3.2e-5 2.4519 0.40985 3.2188 1.2812a0.99382 0.99382 0 0 0 0.03125 0c0.78111 0.85217 1.1562 1.9615 1.1562 3.4375a0.99382 0.99382 0 0 0 1 1h11.625a0.99382 0.99382 0 0 0 1-1c-0.0455-4.4571-1.1979-8.1343-3.5312-10.875-2.1728-2.5522-5.4065-4.1687-9.4062-5.0312v-6.3125a0.99382 0.99382 0 0 0-1-1h-7.375a0.99382 0.99382 0 0 0-0.09375 0z" opacity=".15"/>
  <path id="path4011" d="m51.68 73.838v7.1622h-7.3593v-7.0308c-4.293-0.52567-7.666-2.1027-10.119-4.731-2.4531-2.6721-3.7454-6.1766-3.8768-10.513l11.893 0.06571c0.04379 1.577 0.61326 2.8255 1.7084 3.7454 1.0951 0.91993 2.4531 1.3799 4.0739 1.3799 1.4018 8e-6 2.6283-0.35044 3.6797-1.0513 1.2265-0.74469 1.8398-1.7741 1.8398-3.0883-2.6e-5 -1.9274-1.9713-3.6139-5.9138-5.0595-5.87-2.1465-9.5277-3.7235-10.973-4.731-3.9425-2.6283-5.9138-6.3737-5.9138-11.236-4e-6 -3.9863 1.2923-7.3374 3.8768-10.053 2.4969-2.5845 5.7385-4.1396 9.7248-4.6653v-7.0308h7.3593v7.0308c8.5421 1.5332 12.857 6.5928 12.945 15.179h-11.63c-2.6e-5 -1.6646-0.48189-3.0226-1.4456-4.0739-0.96375-1.0951-2.2779-1.6427-3.9425-1.6427-1.3142 3.7e-5 -2.4531 0.37238-3.4168 1.117-1.0952 0.78854-1.6427 1.8399-1.6427 3.154-1.5e-5 1.6646 1.9931 3.2635 5.9795 4.7967 5.8261 2.1465 9.5496 3.7892 11.17 4.9281 3.9863 2.6722 5.9794 6.3518 5.9795 11.039-3.8e-5 4.1615-1.3142 7.6222-3.9425 10.382-2.497 2.5845-5.8481 4.2272-10.053 4.9281" opacity=".3"/>
  <path id="path3104" d="m51.68 72.838v7.1622h-7.3593v-7.0308c-4.293-0.52567-7.666-2.1027-10.119-4.731-2.4531-2.6721-3.7454-6.1766-3.8768-10.513l11.893 0.06571c0.04379 1.577 0.61326 2.8255 1.7084 3.7454 1.0951 0.91993 2.4531 1.3799 4.0739 1.3799 1.4018 8e-6 2.6283-0.35044 3.6797-1.0513 1.2265-0.74469 1.8398-1.7741 1.8398-3.0883-2.6e-5 -1.9274-1.9713-3.6139-5.9138-5.0595-5.87-2.1465-9.5277-3.7235-10.973-4.731-3.9425-2.6283-5.9138-6.3737-5.9138-11.236-4e-6 -3.9863 1.2923-7.3374 3.8768-10.053 2.4969-2.5845 5.7385-4.1396 9.7248-4.6653v-7.0308h7.3593v7.0308c8.5421 1.5332 12.857 6.5928 12.945 15.179h-11.63c-2.6e-5 -1.6646-0.48189-3.0226-1.4456-4.0739-0.96375-1.0951-2.2779-1.6427-3.9425-1.6427-1.3142 3.7e-5 -2.4531 0.37238-3.4168 1.117-1.0952 0.78854-1.6427 1.8399-1.6427 3.154-1.5e-5 1.6646 1.9931 3.2635 5.9795 4.7967 5.8261 2.1465 9.5496 3.7892 11.17 4.9281 3.9863 2.6722 5.9794 6.3518 5.9795 11.039-3.8e-5 4.1615-1.3142 7.6222-3.9425 10.382-2.497 2.5845-5.8481 4.2272-10.053 4.9281" fill="url(#linearGradient4053)"/>
  <path id="path4055" d="m44.312 16v1h7.375v-1h-7.375zm0 7.0312c-3.9863 0.52572-7.2218 2.0718-9.7188 4.6562-2.5845 2.716-3.875 6.0762-3.875 10.062 0 0.14943 0.027527 0.29018 0.03125 0.4375 0.11786-3.7374 1.383-6.9141 3.8438-9.5 2.4969-2.5845 5.7324-4.1305 9.7188-4.6562v-1zm7.375 0v1c8.2005 1.4719 12.498 6.2157 12.906 14.188h0.03125c-0.087649-8.5859-4.3954-13.654-12.938-15.188zm-9.0938 14.125c-0.027564 0.19526-0.062502 0.38526-0.0625 0.59375-1.5e-5 1.6646 2.0137 3.2793 6 4.8125 5.8261 2.1465 9.5354 3.7986 11.156 4.9375 3.8593 2.5871 5.8458 6.118 5.9688 10.594 0.00555-0.18825 0.031248-0.37129 0.03125-0.5625-3.8e-5 -4.6872-2.0137-8.3591-6-11.031-1.6208-1.1389-5.3301-2.791-11.156-4.9375-3.6623-1.4085-5.6398-2.8868-5.9375-4.4062zm-12.281 20.562c0.010319 0.34054 0.069115 0.66972 0.09375 1l11.812 0.0625c0.04379 1.577 0.62359 2.8301 1.7188 3.75 1.0951 0.91993 2.4417 1.375 4.0625 1.375 1.4018 8e-6 2.6361-0.33035 3.6875-1.0312 1.2265-0.74469 1.8437-1.7796 1.8438-3.0938-2e-6 -0.13659-0.0427-0.27208-0.0625-0.40625-0.16374 1.0297-0.74931 1.8735-1.7812 2.5-1.0514 0.7009-2.2857 1.0313-3.6875 1.0312-1.6208 8e-6 -2.9674-0.45507-4.0625-1.375-1.0952-0.91991-1.675-2.173-1.7188-3.75l-11.906-0.0625z" fill="#fff" opacity=".3"/>
  <path id="path4098" d="m47.594 31.5c-1.3142 3.7e-5 -2.4425 0.38034-3.4062 1.125-1.0952 0.78854-1.6563 1.8109-1.6562 3.125-1e-6 0.13533 0.036155 0.27179 0.0625 0.40625 0.14617-1.0355 0.67234-1.8678 1.5938-2.5312 0.9637-0.74466 2.0921-1.125 3.4062-1.125 1.6646 3.7e-5 3.005 0.5299 3.9688 1.625 0.9637 1.0514 1.4375 2.4292 1.4375 4.0938h11.625c-0.003505-0.34331-0.014228-0.66796-0.03125-1h-11.594c-2.6e-5 -1.6646-0.4738-3.0424-1.4375-4.0938-0.96375-1.0951-2.3042-1.625-3.9688-1.625zm-16.844 5.6875c-0.005929 0.18802-0.03125 0.37156-0.03125 0.5625-4e-6 4.8624 1.9637 8.6217 5.9062 11.25 1.4456 1.0075 5.0988 2.5723 10.969 4.7188 3.6631 1.3432 5.6154 2.8971 5.875 4.6562 0.030877-0.19416 0.062496-0.38525 0.0625-0.59375-2.6e-5 -1.9274-1.995-3.6169-5.9375-5.0625-5.87-2.1465-9.5232-3.7112-10.969-4.7188-3.8214-2.5475-5.7576-6.166-5.875-10.812zm34.906 19.906c-0.11525 3.9089-1.43 7.1796-3.9375 9.8125-2.497 2.5845-5.8259 4.2366-10.031 4.9375v1c4.2053-0.70089 7.5343-2.353 10.031-4.9375 2.6283-2.7597 3.9687-6.2135 3.9688-10.375-1e-6 -0.14928-0.027206-0.29027-0.03125-0.4375zm-35.344 0.625c0.13141 4.3368 1.4219 7.8591 3.875 10.531 2.4531 2.6283 5.832 4.1931 10.125 4.7188v-1c-4.293-0.52567-7.6719-2.0904-10.125-4.7188-2.2605-2.4623-3.4922-5.6555-3.7812-9.5312h-0.09375zm14 21.281v1h7.375v-1h-7.375z" fill="#503a16" opacity=".4"/>
 </g>
</svg>
