<?xml version="1.0" encoding="UTF-8"?>
<svg id="svg2" width="96" height="96" version="1.0" xmlns="http://www.w3.org/2000/svg" xmlns:cc="http://creativecommons.org/ns#" xmlns:dc="http://purl.org/dc/elements/1.1/" xmlns:rdf="http://www.w3.org/1999/02/22-rdf-syntax-ns#" xmlns:xlink="http://www.w3.org/1999/xlink">
 <defs id="defs4">
  <linearGradient id="linearGradient3760" x1="10" x2="10" y1="4" y2="18" gradientTransform="matrix(4,0,0,4,0,-70)" gradientUnits="userSpaceOnUse">
   <stop id="stop3906" stop-color="#323232" offset="0"/>
   <stop id="stop3908" stop-color="#787878" offset="1"/>
  </linearGradient>
  <clipPath id="clipPath3720">
   <path id="path3722" d="m-100-74v96h96v-96h-96zm48.25 20.375c5.3103 0 10.283 1.5321 14.5 4.125l-4.75 7.875c-2.8172-1.7428-6.188-2.75-9.75-2.75-9.6302 0-17.523 7.3449-18.375 16.75h9.875l-13.875 20.75-13.875-20.75h8.625c0.89419-14.496 12.905-26 27.625-26zm21.875 8 13.875 20.75h-8.625c-0.89419 14.496-12.905 26-27.625 26-5.3103 0-10.283-1.5321-14.5-4.125l4.75-7.875c2.8172 1.7428 6.188 2.75 9.75 2.75 9.6302 0 17.523-7.3449 18.375-16.75h-9.875l13.875-20.75z" color="#000000" fill="#f00" opacity=".3"/>
  </clipPath>
  <filter id="filter3724">
   <feGaussianBlur id="feGaussianBlur3726" stdDeviation="0.950625"/>
  </filter>
  <clipPath id="clipPath3266">
   <path id="path3268" d="m0 0v96h96v-96h-96zm12 6h72c3.324 0 6 2.676 6 6v72c0 3.324-2.676 6-6 6h-72c-3.324 0-6-2.676-6-6v-72c0-3.324 2.676-6 6-6z" color="#000000" fill="#f00" opacity=".3"/>
  </clipPath>
  <linearGradient id="linearGradient3101" x1="32.251" x2="32.251" y1="6.1317" y2="90.239" gradientTransform="matrix(1.0238 0 0 1.0119 -1.1429 -98.071)" gradientUnits="userSpaceOnUse" xlink:href="#ButtonShadow-0"/>
  <linearGradient id="ButtonShadow-0" x1="45.448" x2="45.448" y1="92.54" y2="7.0165" gradientTransform="matrix(1.0059 0 0 .99417 100 0)" gradientUnits="userSpaceOnUse">
   <stop id="stop3750-8" offset="0"/>
   <stop id="stop3752-5" stop-opacity=".58824" offset="1"/>
  </linearGradient>
  <linearGradient id="linearGradient3052" x1="48" x2="48" y1="90" y2="5.9877" gradientUnits="userSpaceOnUse">
   <stop id="stop3189-4" stop-color="#c8c8c8" offset="0"/>
   <stop id="stop3191-0" stop-color="#e6e6e6" offset="1"/>
  </linearGradient>
  <linearGradient id="linearGradient3188" x1="36.357" x2="36.357" y1="6" y2="63.893" gradientUnits="userSpaceOnUse" xlink:href="#linearGradient3737"/>
  <linearGradient id="linearGradient3737">
   <stop id="stop3739" stop-color="#fff" offset="0"/>
   <stop id="stop3741" stop-color="#fff" stop-opacity="0" offset="1"/>
  </linearGradient>
  <radialGradient id="radialGradient3619" cx="48" cy="90.172" r="42" gradientTransform="matrix(1.1573 0 0 .99591 -7.551 .19713)" gradientUnits="userSpaceOnUse" xlink:href="#linearGradient3737"/>
  <linearGradient id="linearGradient4256" x1="32.251" x2="32.251" y1="6.1317" y2="90.239" gradientTransform="translate(0,-97)" gradientUnits="userSpaceOnUse" xlink:href="#ButtonShadow-0"/>
 </defs>
 <metadata id="metadata7">
  <rdf:RDF>
   <cc:Work rdf:about="">
    <dc:format>image/svg+xml</dc:format>
    <dc:type rdf:resource="http://purl.org/dc/dcmitype/StillImage"/>
    <dc:title/>
   </cc:Work>
  </rdf:RDF>
 </metadata>
 <g id="layer2">
  <g id="g3202" clip-path="url(#clipPath3266)">
   <path id="path3786" transform="scale(1,-1)" d="m12-95.031c-5.5111 0-10.031 4.5202-10.031 10.031v71c0 5.5111 4.5202 10.031 10.031 10.031h72c5.5111 0 10.031-4.5202 10.031-10.031v-71c0-5.5111-4.5202-10.031-10.031-10.031h-72z" fill="url(#linearGradient3101)" opacity=".08"/>
   <path id="path3778" transform="scale(1,-1)" d="m12-94.031c-4.9716 0-9.0312 4.0596-9.0312 9.0312v71c0 4.9716 4.0596 9.0312 9.0312 9.0312h72c4.9716 0 9.0312-4.0596 9.0312-9.0312v-71c0-4.9716-4.0596-9.0312-9.0312-9.0312h-72z" fill="url(#linearGradient3101)" opacity=".1"/>
   <path id="path3770" transform="scale(1,-1)" d="m12-93c-4.4091 0-8 3.5909-8 8v71c0 4.4091 3.5909 8 8 8h72c4.4091 0 8-3.5909 8-8v-71c0-4.4091-3.5909-8-8-8h-72z" fill="url(#linearGradient3101)" opacity=".2"/>
   <rect id="rect3723" transform="scale(1,-1)" x="5" y="-92" width="86" height="85" rx="7" ry="7" fill="url(#linearGradient3101)" opacity=".3"/>
   <rect id="rect3716" transform="scale(1,-1)" x="6" y="-91" width="84" height="84" rx="6" ry="6" fill="url(#linearGradient4256)" opacity=".45"/>
  </g>
  <rect id="rect2419" x="6" y="6" width="84" height="84" rx="6" ry="6" fill="url(#linearGradient3052)" opacity=".75"/>
  <path id="rect3728" d="m12 6c-3.324 0-6 2.676-6 6v2 68 2c0 0.33472 0.04135 0.6507 0.09375 0.96875 0.0487 0.2956 0.09704 0.59692 0.1875 0.875 0.00988 0.03038 0.020892 0.0636 0.03125 0.09375 0.098865 0.28777 0.23488 0.54745 0.375 0.8125 0.14459 0.27351 0.31562 0.53562 0.5 0.78125s0.37378 0.47347 0.59375 0.6875c0.43995 0.42806 0.94291 0.81453 1.5 1.0938 0.27854 0.13961 0.57347 0.24695 0.875 0.34375-0.2562-0.10022-0.48671-0.23627-0.71875-0.375-0.00741-0.0044-0.023866 0.0045-0.03125 0-0.031933-0.0193-0.062293-0.04251-0.09375-0.0625-0.1204-0.0767-0.23102-0.16351-0.34375-0.25-0.10617-0.0808-0.21328-0.16111-0.3125-0.25-0.17793-0.16143-0.34746-0.34539-0.5-0.53125-0.10758-0.13026-0.21839-0.26528-0.3125-0.40625-0.025089-0.03838-0.038446-0.08587-0.0625-0.125-0.064763-0.10303-0.13023-0.20452-0.1875-0.3125-0.10101-0.19471-0.20567-0.4157-0.28125-0.625-0.00796-0.02181-0.023589-0.04055-0.03125-0.0625-0.031825-0.09195-0.035804-0.18683-0.0625-0.28125-0.030332-0.10662-0.070389-0.20303-0.09375-0.3125-0.072879-0.34151-0.125-0.6982-0.125-1.0625v-2-68-2c0-2.7818 2.2182-5 5-5h2 68 2c2.7818 0 5 2.2182 5 5v2 68 2c0 0.3643-0.05212 0.72099-0.125 1.0625-0.04415 0.20689-0.08838 0.39766-0.15625 0.59375-0.0077 0.02195-0.0233 0.04069-0.03125 0.0625-0.06274 0.17374-0.13838 0.36745-0.21875 0.53125-0.04158 0.0828-0.07904 0.16995-0.125 0.25-0.0546 0.09721-0.12677 0.18835-0.1875 0.28125-0.09411 0.14096-0.20492 0.276-0.3125 0.40625-0.14317 0.17445-0.30314 0.347-0.46875 0.5-0.01117 0.0102-0.01998 0.02115-0.03125 0.03125-0.13839 0.12556-0.28509 0.23444-0.4375 0.34375-0.10257 0.07315-0.20432 0.15336-0.3125 0.21875-0.0074 0.0045-0.02384-0.0044-0.03125 0-0.23204 0.13873-0.46255 0.27478-0.71875 0.375 0.30153-0.0968 0.59646-0.20414 0.875-0.34375 0.55709-0.27922 1.0601-0.66569 1.5-1.0938 0.21997-0.21403 0.40937-0.44186 0.59375-0.6875s0.35541-0.50774 0.5-0.78125c0.14012-0.26505 0.27614-0.52473 0.375-0.8125 0.01041-0.03078 0.02133-0.06274 0.03125-0.09375 0.09046-0.27808 0.1388-0.5794 0.1875-0.875 0.0524-0.31805 0.09375-0.63403 0.09375-0.96875v-2-68-2c0-3.324-2.676-6-6-6h-72z" fill="url(#linearGradient3188)" opacity=".5"/>
  <path id="path3615" d="m12 90c-3.324 0-6-2.676-6-6v-2-68-2c0-0.33472 0.04135-0.6507 0.09375-0.96875 0.0487-0.2956 0.09704-0.59692 0.1875-0.875 0.00988-0.03038 0.020892-0.0636 0.03125-0.09375 0.098865-0.28777 0.23488-0.54745 0.375-0.8125 0.14459-0.27351 0.31562-0.53562 0.5-0.78125s0.37378-0.47347 0.59375-0.6875c0.43995-0.42806 0.94291-0.81453 1.5-1.0938 0.27854-0.13961 0.57347-0.24695 0.875-0.34375-0.2562 0.10022-0.48671 0.23627-0.71875 0.375-0.00741 0.0044-0.023866-0.0045-0.03125 0-0.031933 0.0193-0.062293 0.04251-0.09375 0.0625-0.1204 0.0767-0.23102 0.16351-0.34375 0.25-0.10617 0.0808-0.21328 0.16111-0.3125 0.25-0.17793 0.16143-0.34746 0.34539-0.5 0.53125-0.10758 0.13026-0.21839 0.26528-0.3125 0.40625-0.025089 0.03838-0.038446 0.08587-0.0625 0.125-0.064763 0.10303-0.13023 0.20452-0.1875 0.3125-0.10101 0.19471-0.20567 0.4157-0.28125 0.625-0.00796 0.02181-0.023589 0.04055-0.03125 0.0625-0.031825 0.09195-0.035804 0.18683-0.0625 0.28125-0.030332 0.10662-0.070389 0.20303-0.09375 0.3125-0.072879 0.34151-0.125 0.6982-0.125 1.0625v2 68 2c0 2.7818 2.2182 5 5 5h2 68 2c2.7818 0 5-2.2182 5-5v-2-68-2c0-0.3643-0.05212-0.72099-0.125-1.0625-0.04415-0.20689-0.08838-0.39766-0.15625-0.59375-0.0077-0.02195-0.0233-0.04069-0.03125-0.0625-0.06274-0.17374-0.13838-0.36745-0.21875-0.53125-0.04158-0.0828-0.07904-0.16995-0.125-0.25-0.0546-0.09721-0.12677-0.18835-0.1875-0.28125-0.09411-0.14096-0.20492-0.276-0.3125-0.40625-0.14317-0.17445-0.30314-0.347-0.46875-0.5-0.01117-0.0102-0.01998-0.02115-0.03125-0.03125-0.13839-0.12556-0.28509-0.23444-0.4375-0.34375-0.10257-0.07315-0.20432-0.15336-0.3125-0.21875-0.0074-0.0045-0.02384 0.0044-0.03125 0-0.23204-0.13873-0.46255-0.27478-0.71875-0.375 0.30153 0.0968 0.59646 0.20414 0.875 0.34375 0.55709 0.27922 1.0601 0.66569 1.5 1.0938 0.21997 0.21403 0.40937 0.44186 0.59375 0.6875s0.35541 0.50774 0.5 0.78125c0.14012 0.26505 0.27614 0.52473 0.375 0.8125 0.01041 0.03078 0.02133 0.06274 0.03125 0.09375 0.09046 0.27808 0.1388 0.5794 0.1875 0.875 0.0524 0.31805 0.09375 0.63403 0.09375 0.96875v2 68 2c0 3.324-2.676 6-6 6h-72z" fill="url(#radialGradient3619)" opacity=".2"/>
 </g>
 <g id="layer1" transform="translate(0,74)">
  <path id="path3711" transform="translate(100)" d="m-51.75-53.625c-14.72-3e-6 -26.731 11.504-27.625 26h-8.625l13.875 20.75 13.875-20.75h-9.875c0.85226-9.4051 8.7448-16.75 18.375-16.75 3.562 1e-6 6.9328 1.0072 9.75 2.75l4.75-7.875c-4.2173-2.5929-9.1897-4.125-14.5-4.125zm21.875 8-13.875 20.75h9.875c-0.85226 9.4051-8.7448 16.75-18.375 16.75-3.562 0-6.9328-1.0072-9.75-2.75l-4.75 7.875c4.2173 2.5929 9.1897 4.125 14.5 4.125 14.72 4e-6 26.731-11.504 27.625-26h8.625l-13.875-20.75z" clip-path="url(#clipPath3720)" fill="none" filter="url(#filter3724)" opacity=".2" stroke="#fff" stroke-width="4"/>
  <path id="Symbol" d="m48.25-53.625c-14.72-3e-6 -26.731 11.504-27.625 26h-8.625l13.875 20.75 13.875-20.75h-9.875c0.85226-9.4051 8.7448-16.75 18.375-16.75 3.562 1e-6 6.9328 1.0072 9.75 2.75l4.75-7.875c-4.2173-2.5929-9.1897-4.125-14.5-4.125zm21.875 8-13.875 20.75h9.875c-0.85226 9.4051-8.7448 16.75-18.375 16.75-3.562 0-6.9328-1.0072-9.75-2.75l-4.75 7.875c4.2173 2.5929 9.1897 4.125 14.5 4.125 14.72 4e-6 26.731-11.504 27.625-26h8.625l-13.875-20.75z" fill="url(#linearGradient3760)"/>
  <rect id="rect3709" x="-100" y="-74" width="96" height="96" color="#000000" fill="#f00" opacity=".3"/>
  <path id="path3950" transform="translate(0,-74)" d="m48.25 20.375c-14.72-3e-6 -26.731 11.504-27.625 26h-8.625l13.875 20.75 13.875-20.75h-9.875c0.85226-9.4051 8.7448-16.75 18.375-16.75 3.562 1e-6 6.9328 1.0072 9.75 2.75l4.75-7.875c-4.2173-2.5929-9.1897-4.125-14.5-4.125zm0 1.9375c4.2535 0 8.1763 1.225 11.719 3.0625l-2.75 4.5312c-2.7319-1.3391-5.7398-2.2187-8.9688-2.2188-10.623 0-19.371 8.1074-20.312 18.5a1.9517 1.9517 0 0 0 1.9375 2.125h6.2188l-10.219 15.281-10.219-15.281h4.9688a1.9517 1.9517 0 0 0 1.9375-1.8125c0.83199-13.488 11.984-24.188 25.688-24.188zm21.875 6.0625-13.875 20.75h9.875c-0.85226 9.4051-8.7448 16.75-18.375 16.75-3.562 0-6.9328-1.0072-9.75-2.75l-4.75 7.875c4.2173 2.5929 9.1897 4.125 14.5 4.125 14.72 4e-6 26.731-11.504 27.625-26h8.625l-13.875-20.75zm0 3.5312 10.219 15.281h-4.9688a1.9517 1.9517 0 0 0-1.9375 1.8125c-0.83198 13.488-11.984 24.188-25.688 24.188-4.2535 0-8.1763-1.225-11.719-3.0625l2.75-4.5312c2.7319 1.3391 5.7398 2.2188 8.9688 2.2188 10.623 0 19.371-8.1074 20.312-18.5a1.9517 1.9517 0 0 0-1.9375-2.125h-6.2188l10.219-15.281z" opacity=".1"/>
  <path id="path3178" transform="translate(0,-74)" d="m48.25 20.375c-14.72-3e-6 -26.731 11.504-27.625 26h-8.625l13.875 20.75 13.875-20.75h-9.875c0.85226-9.4051 8.7448-16.75 18.375-16.75 3.562 1e-6 6.9328 1.0072 9.75 2.75l4.75-7.875c-4.2173-2.5929-9.1897-4.125-14.5-4.125zm0 1.0312c4.7526 0 9.1604 1.3767 13.031 3.5625l-3.6875 6.125c-2.7871-1.5251-5.9525-2.5-9.3438-2.5-10.148 0-18.476 7.7673-19.375 17.688a1.018 1.018 0 0 0 1 1.125h7.9688l-11.969 17.906-11.969-17.906h6.7188a1.018 1.018 0 0 0 1.0312-0.96875c0.86175-13.97 12.404-25.031 26.594-25.031zm21.875 6.9688-13.875 20.75h9.875c-0.85226 9.4051-8.7448 16.75-18.375 16.75-3.562 0-6.9328-1.0072-9.75-2.75l-4.75 7.875c4.2173 2.5929 9.1897 4.125 14.5 4.125 14.72 4e-6 26.731-11.504 27.625-26h8.625l-13.875-20.75zm0 1.8125 11.969 17.906h-6.7188a1.018 1.018 0 0 0-1.0312 0.96875c-0.86174 13.97-12.404 25.031-26.594 25.031-4.7526 0-9.1604-1.3767-13.031-3.5625l3.6875-6.125c2.7871 1.5251 5.9525 2.5 9.3438 2.5 10.148 0 18.476-7.7673 19.375-17.688a1.018 1.018 0 0 0-1-1.125h-7.9688l11.969-17.906z" opacity=".2"/>
  <path id="path3960" transform="translate(0,-74)" d="m48.25 20.375c-14.72-3e-6 -26.731 11.504-27.625 26h-8.625l0.65625 1h7.9688c0.89419-14.496 12.905-26 27.625-26 5.1306 0 9.939 1.4398 14.062 3.875l0.4375-0.75c-4.2173-2.5929-9.1897-4.125-14.5-4.125zm21.875 8-13.875 20.75h0.65625l13.219-19.75 13.219 19.75h0.65625l-13.875-20.75zm-40.094 18c-0.048279 0.33101-0.12576 0.66347-0.15625 1h9.2188l0.65625-1h-9.7188zm35.938 3.75c-1.301 8.9199-8.9331 15.75-18.219 15.75-3.562 0-6.9328-1.0072-9.75-2.75l-4.75 7.875c0.14276 0.08777 0.29303 0.16468 0.4375 0.25l4.3125-7.125c2.8172 1.7428 6.188 2.75 9.75 2.75 9.6302 0 17.523-7.3449 18.375-16.75h-0.15625z" opacity=".3"/>
  <path id="path3969" transform="translate(0,-74)" d="m62.312 25.25-4.3125 7.125c-2.8172-1.7428-6.188-2.75-9.75-2.75-9.6302 0-17.523 7.3449-18.375 16.75h0.15625c1.301-8.9199 8.9331-15.75 18.219-15.75 3.562 1e-6 6.9328 1.0072 9.75 2.75l4.75-7.875c-0.14276-0.08777-0.29303-0.16468-0.4375-0.25zm-50.312 22.125 13.875 20.75 13.875-20.75h-0.65625l-13.219 19.75-13.219-19.75h-0.65625zm44.906 1.75-0.65625 1h9.7188c0.048279-0.33101 0.12576-0.66347 0.15625-1h-9.2188zm18.469 0c-0.89419 14.496-12.905 26-27.625 26-5.1306 0-9.939-1.4398-14.062-3.875l-0.4375 0.75c4.2173 2.5929 9.1897 4.125 14.5 4.125 14.72 4e-6 26.731-11.504 27.625-26h8.625l-0.65625-1h-7.9688z" fill="#fff" opacity=".5"/>
 </g>
</svg>
