<?xml version="1.0" encoding="UTF-8"?>
<svg id="svg2408" width="96" height="96" version="1.0" xmlns="http://www.w3.org/2000/svg" xmlns:cc="http://creativecommons.org/ns#" xmlns:dc="http://purl.org/dc/elements/1.1/" xmlns:rdf="http://www.w3.org/1999/02/22-rdf-syntax-ns#" xmlns:xlink="http://www.w3.org/1999/xlink">
 <defs id="defs2410">
  <clipPath id="clipPath3266">
   <path id="path3268" d="m0 0v96h96v-96h-96zm12 6h72c3.324 0 6 2.676 6 6v72c0 3.324-2.676 6-6 6h-72c-3.324 0-6-2.676-6-6v-72c0-3.324 2.676-6 6-6z" color="#000000" fill="#f00" opacity=".3"/>
  </clipPath>
  <linearGradient id="linearGradient3101" x1="32.251" x2="32.251" y1="6.1317" y2="90.239" gradientTransform="matrix(1.0238 0 0 1.0119 -1.1429 -98.071)" gradientUnits="userSpaceOnUse" xlink:href="#ButtonShadow-0-5"/>
  <linearGradient id="ButtonShadow-0-5" x1="45.448" x2="45.448" y1="92.54" y2="7.0165" gradientTransform="matrix(1.0059 0 0 .99417 100 0)" gradientUnits="userSpaceOnUse">
   <stop id="stop3750-8-9" offset="0"/>
   <stop id="stop3752-5-7" stop-opacity=".58824" offset="1"/>
  </linearGradient>
  <linearGradient id="linearGradient3052" x1="48" x2="48" y1="90" y2="5.9877" gradientUnits="userSpaceOnUse">
   <stop id="stop3189-4" stop-color="#c8c8c8" offset="0"/>
   <stop id="stop3191-0" stop-color="#e6e6e6" offset="1"/>
  </linearGradient>
  <linearGradient id="linearGradient3188-6" x1="36.357" x2="36.357" y1="6" y2="63.893" gradientUnits="userSpaceOnUse" xlink:href="#linearGradient3737-5"/>
  <linearGradient id="linearGradient3737-5">
   <stop id="stop3739-6" stop-color="#fff" offset="0"/>
   <stop id="stop3741-3" stop-color="#fff" stop-opacity="0" offset="1"/>
  </linearGradient>
  <radialGradient id="radialGradient3619-9" cx="48" cy="90.172" r="42" gradientTransform="matrix(1.1573 0 0 .99591 -7.551 .19713)" gradientUnits="userSpaceOnUse" xlink:href="#linearGradient3737-5"/>
  <linearGradient id="linearGradient4256" x1="32.251" x2="32.251" y1="6.1317" y2="90.239" gradientTransform="translate(0,-97)" gradientUnits="userSpaceOnUse" xlink:href="#ButtonShadow-0-5"/>
  <linearGradient id="linearGradient3915" x1="56" x2="56" y1="16" y2="80" gradientUnits="userSpaceOnUse">
   <stop id="stop3906" stop-color="#323232" offset="0"/>
   <stop id="stop3908" stop-color="#787878" offset="1"/>
  </linearGradient>
  <filter id="filter3951">
   <feGaussianBlur id="feGaussianBlur3953" stdDeviation="0.98454545"/>
  </filter>
 </defs>
 <metadata id="metadata2413">
  <rdf:RDF>
   <cc:Work rdf:about="">
    <dc:format>image/svg+xml</dc:format>
    <dc:type rdf:resource="http://purl.org/dc/dcmitype/StillImage"/>
    <dc:title/>
   </cc:Work>
  </rdf:RDF>
 </metadata>
 <g id="layer1">
  <g id="g3202" clip-path="url(#clipPath3266)">
   <path id="path3786" transform="scale(1,-1)" d="m12-95.031c-5.5111 0-10.031 4.5202-10.031 10.031v71c0 5.5111 4.5202 10.031 10.031 10.031h72c5.5111 0 10.031-4.5202 10.031-10.031v-71c0-5.5111-4.5202-10.031-10.031-10.031h-72z" fill="url(#linearGradient3101)" opacity=".08"/>
   <path id="path3778" transform="scale(1,-1)" d="m12-94.031c-4.9716 0-9.0312 4.0596-9.0312 9.0312v71c0 4.9716 4.0596 9.0312 9.0312 9.0312h72c4.9716 0 9.0312-4.0596 9.0312-9.0312v-71c0-4.9716-4.0596-9.0312-9.0312-9.0312h-72z" fill="url(#linearGradient3101)" opacity=".1"/>
   <path id="path3770" transform="scale(1,-1)" d="m12-93c-4.4091 0-8 3.5909-8 8v71c0 4.4091 3.5909 8 8 8h72c4.4091 0 8-3.5909 8-8v-71c0-4.4091-3.5909-8-8-8h-72z" fill="url(#linearGradient3101)" opacity=".2"/>
   <rect id="rect3723" transform="scale(1,-1)" x="5" y="-92" width="86" height="85" rx="7" ry="7" fill="url(#linearGradient3101)" opacity=".3"/>
   <rect id="rect3716" transform="scale(1,-1)" x="6" y="-91" width="84" height="84" rx="6" ry="6" fill="url(#linearGradient4256)" opacity=".45"/>
  </g>
  <rect id="rect2419" x="6" y="6" width="84" height="84" rx="6" ry="6" fill="url(#linearGradient3052)" opacity=".75"/>
  <path id="rect3728" d="m12 6c-3.324 0-6 2.676-6 6v2 68 2c0 0.33472 0.04135 0.6507 0.09375 0.96875 0.0487 0.2956 0.09704 0.59692 0.1875 0.875 0.00988 0.03038 0.020892 0.0636 0.03125 0.09375 0.098865 0.28777 0.23488 0.54745 0.375 0.8125 0.14459 0.27351 0.31562 0.53562 0.5 0.78125s0.37378 0.47347 0.59375 0.6875c0.43995 0.42806 0.94291 0.81453 1.5 1.0938 0.27854 0.13961 0.57347 0.24695 0.875 0.34375-0.2562-0.10022-0.48671-0.23627-0.71875-0.375-0.00741-0.0044-0.023866 0.0045-0.03125 0-0.031933-0.0193-0.062293-0.04251-0.09375-0.0625-0.1204-0.0767-0.23102-0.16351-0.34375-0.25-0.10617-0.0808-0.21328-0.16111-0.3125-0.25-0.17793-0.16143-0.34746-0.34539-0.5-0.53125-0.10758-0.13026-0.21839-0.26528-0.3125-0.40625-0.025089-0.03838-0.038446-0.08587-0.0625-0.125-0.064763-0.10303-0.13023-0.20452-0.1875-0.3125-0.10101-0.19471-0.20567-0.4157-0.28125-0.625-0.00796-0.02181-0.023589-0.04055-0.03125-0.0625-0.031825-0.09195-0.035804-0.18683-0.0625-0.28125-0.030332-0.10662-0.070389-0.20303-0.09375-0.3125-0.072879-0.34151-0.125-0.6982-0.125-1.0625v-2-68-2c0-2.7818 2.2182-5 5-5h2 68 2c2.7818 0 5 2.2182 5 5v2 68 2c0 0.3643-0.05212 0.72099-0.125 1.0625-0.04415 0.20689-0.08838 0.39766-0.15625 0.59375-0.0077 0.02195-0.0233 0.04069-0.03125 0.0625-0.06274 0.17374-0.13838 0.36745-0.21875 0.53125-0.04158 0.0828-0.07904 0.16995-0.125 0.25-0.0546 0.09721-0.12677 0.18835-0.1875 0.28125-0.09411 0.14096-0.20492 0.276-0.3125 0.40625-0.14317 0.17445-0.30314 0.347-0.46875 0.5-0.01117 0.0102-0.01998 0.02115-0.03125 0.03125-0.13839 0.12556-0.28509 0.23444-0.4375 0.34375-0.10257 0.07315-0.20432 0.15336-0.3125 0.21875-0.0074 0.0045-0.02384-0.0044-0.03125 0-0.23204 0.13873-0.46255 0.27478-0.71875 0.375 0.30153-0.0968 0.59646-0.20414 0.875-0.34375 0.55709-0.27922 1.0601-0.66569 1.5-1.0938 0.21997-0.21403 0.40937-0.44186 0.59375-0.6875s0.35541-0.50774 0.5-0.78125c0.14012-0.26505 0.27614-0.52473 0.375-0.8125 0.01041-0.03078 0.02133-0.06274 0.03125-0.09375 0.09046-0.27808 0.1388-0.5794 0.1875-0.875 0.0524-0.31805 0.09375-0.63403 0.09375-0.96875v-2-68-2c0-3.324-2.676-6-6-6h-72z" fill="url(#linearGradient3188-6)" opacity=".5"/>
  <path id="path3615" d="m12 90c-3.324 0-6-2.676-6-6v-2-68-2c0-0.33472 0.04135-0.6507 0.09375-0.96875 0.0487-0.2956 0.09704-0.59692 0.1875-0.875 0.00988-0.03038 0.020892-0.0636 0.03125-0.09375 0.098865-0.28777 0.23488-0.54745 0.375-0.8125 0.14459-0.27351 0.31562-0.53562 0.5-0.78125s0.37378-0.47347 0.59375-0.6875c0.43995-0.42806 0.94291-0.81453 1.5-1.0938 0.27854-0.13961 0.57347-0.24695 0.875-0.34375-0.2562 0.10022-0.48671 0.23627-0.71875 0.375-0.00741 0.0044-0.023866-0.0045-0.03125 0-0.031933 0.0193-0.062293 0.04251-0.09375 0.0625-0.1204 0.0767-0.23102 0.16351-0.34375 0.25-0.10617 0.0808-0.21328 0.16111-0.3125 0.25-0.17793 0.16143-0.34746 0.34539-0.5 0.53125-0.10758 0.13026-0.21839 0.26528-0.3125 0.40625-0.025089 0.03838-0.038446 0.08587-0.0625 0.125-0.064763 0.10303-0.13023 0.20452-0.1875 0.3125-0.10101 0.19471-0.20567 0.4157-0.28125 0.625-0.00796 0.02181-0.023589 0.04055-0.03125 0.0625-0.031825 0.09195-0.035804 0.18683-0.0625 0.28125-0.030332 0.10662-0.070389 0.20303-0.09375 0.3125-0.072879 0.34151-0.125 0.6982-0.125 1.0625v2 68 2c0 2.7818 2.2182 5 5 5h2 68 2c2.7818 0 5-2.2182 5-5v-2-68-2c0-0.3643-0.05212-0.72099-0.125-1.0625-0.04415-0.20689-0.08838-0.39766-0.15625-0.59375-0.0077-0.02195-0.0233-0.04069-0.03125-0.0625-0.06274-0.17374-0.13838-0.36745-0.21875-0.53125-0.04158-0.0828-0.07904-0.16995-0.125-0.25-0.0546-0.09721-0.12677-0.18835-0.1875-0.28125-0.09411-0.14096-0.20492-0.276-0.3125-0.40625-0.14317-0.17445-0.30314-0.347-0.46875-0.5-0.01117-0.0102-0.01998-0.02115-0.03125-0.03125-0.13839-0.12556-0.28509-0.23444-0.4375-0.34375-0.10257-0.07315-0.20432-0.15336-0.3125-0.21875-0.0074-0.0045-0.02384 0.0044-0.03125 0-0.23204-0.13873-0.46255-0.27478-0.71875-0.375 0.30153 0.0968 0.59646 0.20414 0.875 0.34375 0.55709 0.27922 1.0601 0.66569 1.5 1.0938 0.21997 0.21403 0.40937 0.44186 0.59375 0.6875s0.35541 0.50774 0.5 0.78125c0.14012 0.26505 0.27614 0.52473 0.375 0.8125 0.01041 0.03078 0.02133 0.06274 0.03125 0.09375 0.09046 0.27808 0.1388 0.5794 0.1875 0.875 0.0524 0.31805 0.09375 0.63403 0.09375 0.96875v2 68 2c0 3.324-2.676 6-6 6h-72z" fill="url(#radialGradient3619-9)" opacity=".2"/>
 </g>
 <g id="layer4">
  <path id="path3949" d="m48 16c-9.4874 0-17.091 7.1451-17.091 16 0.0214 0.94293 0.09185 2.3059 0.18182 3.4545-1.6224 0.68857-1.7408 3.8461-0.36364 7.0909 0.54611 1.2867 1.2417 2.2747 2 3.0909 0.18426 0.91192 0.13591 1.3213 0.36364 2.3636 0.63546 1.9064 3.1408 5.6427 5.4545 8.7273 0.22688 2.3689 0.46223 4.7596 0 7.4545-6.6668 5.5312-23.844 7.9102-23.818 13.636l-0.36364 2.1818h67.273l-0.36365-2.1818c-0.027327-4.9008-17.233-7.9102-23.818-13.636-0.26644-2.192-0.31723-4.3865-0.1818-6.5455 2.1083-3.2535 4.9286-7.513 5.6364-9.6364 0.25438-1.0753 0.34696-1.8014 0.54545-2.7273 0.63176-0.76525 1.171-1.6308 1.6364-2.7273 1.3083-3.0826 1.2237-6.0252-0.1818-6.9091 0.08287-1.242 0.14531-2.5635 0.1818-3.6364 0-8.8549-7.6035-16-17.091-16z" fill="none" filter="url(#filter3951)" opacity=".2" stroke="#fff" stroke-width="4"/>
  <path id="path3159" d="m48 16c-9.4874 0-17.091 7.1451-17.091 16 0.0214 0.94293 0.09185 2.3059 0.18182 3.4545-1.6224 0.68857-1.7408 3.8461-0.36364 7.0909 0.54611 1.2867 1.2417 2.2747 2 3.0909 0.18426 0.91192 0.13591 1.3213 0.36364 2.3636 0.63546 1.9064 3.1408 5.6427 5.4545 8.7273 0.22688 2.3689 0.46223 4.7596 0 7.4545-6.6668 5.5312-23.844 7.9102-23.818 13.636l-0.36364 2.1818h67.273l-0.36365-2.1818c-0.027327-4.9008-17.233-7.9102-23.818-13.636-0.26644-2.192-0.31723-4.3865-0.1818-6.5455 2.1083-3.2535 4.9286-7.513 5.6364-9.6364 0.25438-1.0753 0.34696-1.8014 0.54545-2.7273 0.63176-0.76525 1.171-1.6308 1.6364-2.7273 1.3083-3.0826 1.2237-6.0252-0.1818-6.9091 0.08287-1.242 0.14531-2.5635 0.1818-3.6364 0-8.8549-7.6035-16-17.091-16z" fill="url(#linearGradient3915)"/>
  <path id="path3921" d="m48 16c-9.4874 0-17.094 7.1451-17.094 16 0.0214 0.94293 0.097528 2.3201 0.1875 3.4688-1.6224 0.68857-1.7522 3.8177-0.375 7.0625 0.54611 1.2867 1.2417 2.2776 2 3.0938 0.18426 0.91192 0.14728 1.3327 0.375 2.375 0.63546 1.9064 3.1238 5.6341 5.4375 8.7188 0.22688 2.3689 0.46223 4.7738 0 7.4688-6.6668 5.5312-23.838 7.8988-23.812 13.625l-0.34375 2.1875h67.25l-0.34375-2.1875c-0.027327-4.9008-17.227-7.8988-23.812-13.625-0.26644-2.192-0.32293-4.4035-0.1875-6.5625 2.1083-3.2535 4.9172-7.5016 5.625-9.625 0.25438-1.0753 0.36401-1.7929 0.5625-2.7188 0.63176-0.76525 1.1596-1.6535 1.625-2.75 1.3083-3.0826 1.218-6.0224-0.1875-6.9062 0.08287-1.242 0.151-2.5522 0.1875-3.625 0-8.8549-7.6063-16-17.094-16zm0 2.1562c8.3862 0 14.901 6.1847 14.938 13.781 5e-5 0.010591-2.5e-5 0.020654 0 0.03125-3.18e-4 0.009229 3.22e-4 0.021982 0 0.03125-0.035898 1.0317-0.10754 2.2703-0.1875 3.4688a2.1469 2.1469 0 0 0 0.9375 1.9375c0.003295 0.03549 0.16999 0.28542 0.1875 0.90625 0.023352 0.82777-0.19868 2.076-0.75 3.375-0.40019 0.94292-0.82619 1.6297-1.3125 2.2188a2.1469 2.1469 0 0 0-0.4375 0.9375c-0.20213 0.94281-0.3171 1.6047-0.53125 2.5312-0.23572 0.6793-1.0522 2.2443-2.0625 3.9062-1.0263 1.6882-2.2536 3.5534-3.3125 5.1875a2.1469 2.1469 0 0 0-0.34375 1.0312c-0.1435 2.2876-0.064176 4.6099 0.21875 6.9375a2.1469 2.1469 0 0 0 0.71875 1.375c3.8509 3.3486 9.8931 5.4428 14.969 7.5 2.5378 1.0286 4.8195 2.0172 6.3125 2.9375 0.74652 0.46014 1.2977 0.91232 1.5625 1.2188s0.21883 0.35835 0.21875 0.34375a2.1469 2.1469 0 0 0 0 0.03125h-62.25a2.1469 2.1469 0 0 0 0-0.03125c-0.001598-0.35802 0.32989-1.0238 1.7812-1.9688s3.7281-1.9222 6.25-2.9062c5.0437-1.9682 11.085-3.846 15-7.0938a2.1469 2.1469 0 0 0 0.75-1.2812c0.51872-3.0244 0.22659-5.6966 0-8.0625a2.1469 2.1469 0 0 0-0.40625-1.0625c-2.2425-2.9897-4.6968-6.9214-5.0938-8.0625-0.15138-0.76038-0.13787-1.1685-0.34375-2.1875a2.1469 2.1469 0 0 0-0.53125-1.0312c-0.61418-0.66104-1.1489-1.4206-1.5938-2.4688-0.58215-1.3716-0.79143-2.6947-0.75-3.5312 0.031075-0.62744 0.16936-0.78988 0.125-0.78125a2.1469 2.1469 0 0 0 1.1562-2.0625c-0.085297-1.089-0.13478-2.4362-0.15625-3.3125 0-0.021203-1.01e-4 -0.041318 0-0.0625 0.036218-7.5966 6.5513-13.781 14.938-13.781z" opacity=".1"/>
  <path id="path3917" d="m48 16c-9.4874 0-17.094 7.1451-17.094 16 0.0214 0.94293 0.097528 2.3201 0.1875 3.4688-1.6224 0.68857-1.7522 3.8177-0.375 7.0625 0.54611 1.2867 1.2417 2.2776 2 3.0938 0.18426 0.91192 0.14728 1.3327 0.375 2.375 0.63546 1.9064 3.1238 5.6341 5.4375 8.7188 0.22688 2.3689 0.46223 4.7738 0 7.4688-6.6668 5.5312-23.838 7.8988-23.812 13.625l-0.34375 2.1875h67.25l-0.34375-2.1875c-0.027327-4.9008-17.227-7.8988-23.812-13.625-0.26644-2.192-0.32293-4.4035-0.1875-6.5625 2.1083-3.2535 4.9172-7.5016 5.625-9.625 0.25438-1.0753 0.36401-1.7929 0.5625-2.7188 0.63176-0.76525 1.1596-1.6535 1.625-2.75 1.3083-3.0826 1.218-6.0224-0.1875-6.9062 0.08287-1.242 0.151-2.5522 0.1875-3.625 0-8.8549-7.6063-16-17.094-16zm0 1.0312c8.9576 0 16.044 6.6884 16.062 14.938 2.3e-5 0.010532 0 0.020713 0 0.03125-0.036214 1.0527-0.10605 2.3418-0.1875 3.5625a1.0325 1.0325 0 0 0 0.46875 0.9375c0.27452 0.17263 0.627 0.7443 0.65625 1.7812s-0.23905 2.419-0.84375 3.8438c-0.43403 1.0226-0.90695 1.8195-1.4688 2.5a1.0325 1.0325 0 0 0-0.21875 0.4375c-0.20003 0.93304-0.29787 1.6267-0.53125 2.625-0.005889 0.025189-0.025196 0.03691-0.03125 0.0625-0.30196 0.87724-1.1309 2.4072-2.1562 4.0938-1.0408 1.7121-2.2873 3.5885-3.3438 5.2188a1.0325 1.0325 0 0 0-0.15625 0.5c-0.13931 2.2208-0.08687 4.4928 0.1875 6.75a1.0325 1.0325 0 0 0 0.34375 0.65625c3.5611 3.0966 9.5542 5.2445 14.656 7.3125 2.551 1.034 4.8895 2.0386 6.5 3.0312 0.80522 0.49633 1.433 0.96707 1.8125 1.4062s0.49827 0.7828 0.5 1.0938a1.0325 1.0325 0 0 0 0 0.15625l0.15625 1h-64.812l0.15625-1a1.0325 1.0325 0 0 0 0-0.15625c-0.004084-0.91524 0.72669-1.8737 2.3125-2.9062s3.8951-2.0391 6.4375-3.0312c5.0849-1.9842 11.075-3.9088 14.688-6.9062a1.0325 1.0325 0 0 0 0.375-0.59375c0.4894-2.8534 0.22674-5.3825 0-7.75a1.0325 1.0325 0 0 0-0.21875-0.53125c-2.2605-3.0137-4.7028-6.7543-5.25-8.3125-0.005402-0.024724 0.005079-0.038502 0-0.0625-0.002706-0.007928-0.028648-0.023444-0.03125-0.03125-0.18311-0.88176-0.15015-1.3231-0.34375-2.2812a1.0325 1.0325 0 0 0-0.25-0.46875c-0.68901-0.74157-1.3151-1.6405-1.8125-2.8125-0.63739-1.5018-0.89643-2.9676-0.84375-4.0312s0.38493-1.5591 0.6875-1.6875a1.0325 1.0325 0 0 0 0.625-1.0312c-0.087686-1.1195-0.16604-2.4648-0.1875-3.375-1.98e-4 -0.008402 1.89e-4 -0.022925 0-0.03125 0.018055-8.2491 7.1049-14.938 16.062-14.938z" opacity=".2"/>
  <path id="path3931" d="m48 16c-9.4874 0-17.094 7.1451-17.094 16 0.003278 0.14445 0.025776 0.36937 0.03125 0.53125 0.26753-8.6329 7.7462-15.531 17.062-15.531 9.3163 0 16.795 6.8984 17.062 15.531 0.006448-0.16694 0.025899-0.37397 0.03125-0.53125 0-8.8549-7.6063-16-17.094-16zm-16.969 19.5c-0.92516 0.4417-1.3211 1.7113-1.2188 3.3438 0.095158-1.1789 0.51365-2.0492 1.2812-2.375-0.025141-0.32098-0.041052-0.62815-0.0625-0.96875zm33.938 0.15625c-0.019133 0.33723-0.040339 0.63662-0.0625 0.96875 0.62766 0.3947 0.99934 1.2363 1.0938 2.2812 0.086455-1.4894-0.25516-2.7171-1.0312-3.25zm-7.75 25.25c-0.001198 1.4185 0.076561 2.8544 0.25 4.2812 6.5851 5.7262 23.785 8.7242 23.812 13.625l0.1875 1.1875h0.15625l-0.34375-2.1875c-0.027327-4.9008-17.227-7.8988-23.812-13.625-0.13322-1.096-0.22093-2.1888-0.25-3.2812zm-18.406 0.1875c-0.006845 0.99876-0.096344 2.0157-0.28125 3.0938-6.6668 5.5312-23.838 7.8988-23.812 13.625l-0.34375 2.1875h0.15625l0.1875-1.1875c-0.025552-5.7262 17.146-8.0938 23.812-13.625 0.24674-1.4386 0.32466-2.7856 0.28125-4.0938z" opacity=".3"/>
  <path id="path3940" d="m30.938 32.531c-0.004914 0.15858-0.03125 0.30902-0.03125 0.46875 0.01542 0.67944 0.069692 1.6217 0.125 2.5 0.021449-0.01024 0.040498-0.021912 0.0625-0.03125-0.076189-0.9727-0.12599-2.0426-0.15625-2.9375zm34.125 0c-0.037536 0.97175-0.085529 2.0338-0.15625 3.0938 0.019326 0.012153 0.043674 0.018323 0.0625 0.03125 0.052415-0.92384 0.098264-1.8703 0.125-2.6562 0-0.15973-0.026336-0.31017-0.03125-0.46875zm-35.25 6.3125c-0.10597 1.3128 0.18066 2.9779 0.90625 4.6875 0.54611 1.2867 1.2417 2.2776 2 3.0938 0.18426 0.91192 0.14728 1.3327 0.375 2.375 0.63546 1.9064 3.1238 5.6341 5.4375 8.7188 0.10577 1.1044 0.24333 2.2326 0.28125 3.375 0.010266-1.498-0.14513-2.9537-0.28125-4.375-2.3137-3.0846-4.802-6.8124-5.4375-8.7188-0.22772-1.0423-0.19074-1.4631-0.375-2.375-0.75834-0.81619-1.4539-1.807-2-3.0938-0.55291-1.3028-0.83603-2.567-0.90625-3.6875zm36.188 0.0625c-0.063974 1.1021-0.35751 2.3321-0.90625 3.625-0.46538 1.0965-0.99324 1.9848-1.625 2.75-0.19849 0.92585-0.30812 1.6435-0.5625 2.7188-0.70779 2.1234-3.5167 6.3715-5.625 9.625-0.054299 0.86562-0.069969 1.7504-0.0625 2.625 0.01012-0.54359 0.028643-1.0853 0.0625-1.625 2.1083-3.2535 4.9172-7.5016 5.625-9.625 0.25438-1.0753 0.36401-1.7929 0.5625-2.7188 0.63176-0.76525 1.1596-1.6535 1.625-2.75 0.72406-1.706 1.0232-3.33 0.90625-4.625zm-51.469 41.094-0.15625 1h67.25l-0.15625-1h-66.938z" fill="#fff" opacity=".5"/>
 </g>
</svg>
