<?xml version="1.0" encoding="UTF-8"?>
<svg id="svg2" width="96" height="96" version="1.0" xmlns="http://www.w3.org/2000/svg" xmlns:cc="http://creativecommons.org/ns#" xmlns:dc="http://purl.org/dc/elements/1.1/" xmlns:rdf="http://www.w3.org/1999/02/22-rdf-syntax-ns#" xmlns:xlink="http://www.w3.org/1999/xlink">
 <defs id="defs4">
  <linearGradient id="linearGradient3714" x1="14" x2="14" y1="1" y2="21.025" gradientTransform="matrix(3.1351 0 0 3.1351 9.3243 -60.135)" gradientUnits="userSpaceOnUse">
   <stop id="stop4530" stop-color="#323232" offset="0"/>
   <stop id="stop4532" stop-color="#787878" offset="1"/>
  </linearGradient>
  <clipPath id="clipPath3266">
   <path id="path3268" d="m0 0v96h96v-96h-96zm12 6h72c3.324 0 6 2.676 6 6v72c0 3.324-2.676 6-6 6h-72c-3.324 0-6-2.676-6-6v-72c0-3.324 2.676-6 6-6z" color="#000000" fill="#f00" opacity=".3"/>
  </clipPath>
  <linearGradient id="linearGradient3101" x1="32.251" x2="32.251" y1="6.1317" y2="90.239" gradientTransform="matrix(1.0238 0 0 1.0119 -1.1429 -98.071)" gradientUnits="userSpaceOnUse" xlink:href="#ButtonShadow-0"/>
  <linearGradient id="ButtonShadow-0" x1="45.448" x2="45.448" y1="92.54" y2="7.0165" gradientTransform="matrix(1.0059 0 0 .99417 100 0)" gradientUnits="userSpaceOnUse">
   <stop id="stop3750-8" offset="0"/>
   <stop id="stop3752-5" stop-opacity=".58824" offset="1"/>
  </linearGradient>
  <linearGradient id="linearGradient3052" x1="48" x2="48" y1="90" y2="5.9877" gradientUnits="userSpaceOnUse">
   <stop id="stop3189-4" stop-color="#c8c8c8" offset="0"/>
   <stop id="stop3191-0" stop-color="#e6e6e6" offset="1"/>
  </linearGradient>
  <linearGradient id="linearGradient3188" x1="36.357" x2="36.357" y1="6" y2="63.893" gradientUnits="userSpaceOnUse" xlink:href="#linearGradient3737-1"/>
  <linearGradient id="linearGradient3737-1">
   <stop id="stop3739" stop-color="#fff" offset="0"/>
   <stop id="stop3741" stop-color="#fff" stop-opacity="0" offset="1"/>
  </linearGradient>
  <radialGradient id="radialGradient3619" cx="48" cy="90.172" r="42" gradientTransform="matrix(1.1573 0 0 .99591 -7.551 .19713)" gradientUnits="userSpaceOnUse" xlink:href="#linearGradient3737-1"/>
  <linearGradient id="linearGradient4256" x1="32.251" x2="32.251" y1="6.1317" y2="90.239" gradientTransform="translate(0,-97)" gradientUnits="userSpaceOnUse" xlink:href="#ButtonShadow-0"/>
  <filter id="filter3998">
   <feGaussianBlur id="feGaussianBlur4000" stdDeviation="0.78264169"/>
  </filter>
 </defs>
 <metadata id="metadata7">
  <rdf:RDF>
   <cc:Work rdf:about="">
    <dc:format>image/svg+xml</dc:format>
    <dc:type rdf:resource="http://purl.org/dc/dcmitype/StillImage"/>
    <dc:title/>
   </cc:Work>
  </rdf:RDF>
 </metadata>
 <g id="layer2">
  <g id="g3202" clip-path="url(#clipPath3266)">
   <path id="path3786" transform="scale(1,-1)" d="m12-95.031c-5.5111 0-10.031 4.5202-10.031 10.031v71c0 5.5111 4.5202 10.031 10.031 10.031h72c5.5111 0 10.031-4.5202 10.031-10.031v-71c0-5.5111-4.5202-10.031-10.031-10.031h-72z" fill="url(#linearGradient3101)" opacity=".08"/>
   <path id="path3778" transform="scale(1,-1)" d="m12-94.031c-4.9716 0-9.0312 4.0596-9.0312 9.0312v71c0 4.9716 4.0596 9.0312 9.0312 9.0312h72c4.9716 0 9.0312-4.0596 9.0312-9.0312v-71c0-4.9716-4.0596-9.0312-9.0312-9.0312h-72z" fill="url(#linearGradient3101)" opacity=".1"/>
   <path id="path3770" transform="scale(1,-1)" d="m12-93c-4.4091 0-8 3.5909-8 8v71c0 4.4091 3.5909 8 8 8h72c4.4091 0 8-3.5909 8-8v-71c0-4.4091-3.5909-8-8-8h-72z" fill="url(#linearGradient3101)" opacity=".2"/>
   <rect id="rect3723" transform="scale(1,-1)" x="5" y="-92" width="86" height="85" rx="7" ry="7" fill="url(#linearGradient3101)" opacity=".3"/>
   <rect id="rect3716" transform="scale(1,-1)" x="6" y="-91" width="84" height="84" rx="6" ry="6" fill="url(#linearGradient4256)" opacity=".45"/>
  </g>
  <rect id="rect2419" x="6" y="6" width="84" height="84" rx="6" ry="6" fill="url(#linearGradient3052)" opacity=".75"/>
  <path id="rect3728" d="m12 6c-3.324 0-6 2.676-6 6v2 68 2c0 0.33472 0.04135 0.6507 0.09375 0.96875 0.0487 0.2956 0.09704 0.59692 0.1875 0.875 0.00988 0.03038 0.020892 0.0636 0.03125 0.09375 0.098865 0.28777 0.23488 0.54745 0.375 0.8125 0.14459 0.27351 0.31562 0.53562 0.5 0.78125s0.37378 0.47347 0.59375 0.6875c0.43995 0.42806 0.94291 0.81453 1.5 1.0938 0.27854 0.13961 0.57347 0.24695 0.875 0.34375-0.2562-0.10022-0.48671-0.23627-0.71875-0.375-0.00741-0.0044-0.023866 0.0045-0.03125 0-0.031933-0.0193-0.062293-0.04251-0.09375-0.0625-0.1204-0.0767-0.23102-0.16351-0.34375-0.25-0.10617-0.0808-0.21328-0.16111-0.3125-0.25-0.17793-0.16143-0.34746-0.34539-0.5-0.53125-0.10758-0.13026-0.21839-0.26528-0.3125-0.40625-0.025089-0.03838-0.038446-0.08587-0.0625-0.125-0.064763-0.10303-0.13023-0.20452-0.1875-0.3125-0.10101-0.19471-0.20567-0.4157-0.28125-0.625-0.00796-0.02181-0.023589-0.04055-0.03125-0.0625-0.031825-0.09195-0.035804-0.18683-0.0625-0.28125-0.030332-0.10662-0.070389-0.20303-0.09375-0.3125-0.072879-0.34151-0.125-0.6982-0.125-1.0625v-2-68-2c0-2.7818 2.2182-5 5-5h2 68 2c2.7818 0 5 2.2182 5 5v2 68 2c0 0.3643-0.05212 0.72099-0.125 1.0625-0.04415 0.20689-0.08838 0.39766-0.15625 0.59375-0.0077 0.02195-0.0233 0.04069-0.03125 0.0625-0.06274 0.17374-0.13838 0.36745-0.21875 0.53125-0.04158 0.0828-0.07904 0.16995-0.125 0.25-0.0546 0.09721-0.12677 0.18835-0.1875 0.28125-0.09411 0.14096-0.20492 0.276-0.3125 0.40625-0.14317 0.17445-0.30314 0.347-0.46875 0.5-0.01117 0.0102-0.01998 0.02115-0.03125 0.03125-0.13839 0.12556-0.28509 0.23444-0.4375 0.34375-0.10257 0.07315-0.20432 0.15336-0.3125 0.21875-0.0074 0.0045-0.02384-0.0044-0.03125 0-0.23204 0.13873-0.46255 0.27478-0.71875 0.375 0.30153-0.0968 0.59646-0.20414 0.875-0.34375 0.55709-0.27922 1.0601-0.66569 1.5-1.0938 0.21997-0.21403 0.40937-0.44186 0.59375-0.6875s0.35541-0.50774 0.5-0.78125c0.14012-0.26505 0.27614-0.52473 0.375-0.8125 0.01041-0.03078 0.02133-0.06274 0.03125-0.09375 0.09046-0.27808 0.1388-0.5794 0.1875-0.875 0.0524-0.31805 0.09375-0.63403 0.09375-0.96875v-2-68-2c0-3.324-2.676-6-6-6h-72z" fill="url(#linearGradient3188)" opacity=".5"/>
  <path id="path3615" d="m12 90c-3.324 0-6-2.676-6-6v-2-68-2c0-0.33472 0.04135-0.6507 0.09375-0.96875 0.0487-0.2956 0.09704-0.59692 0.1875-0.875 0.00988-0.03038 0.020892-0.0636 0.03125-0.09375 0.098865-0.28777 0.23488-0.54745 0.375-0.8125 0.14459-0.27351 0.31562-0.53562 0.5-0.78125s0.37378-0.47347 0.59375-0.6875c0.43995-0.42806 0.94291-0.81453 1.5-1.0938 0.27854-0.13961 0.57347-0.24695 0.875-0.34375-0.2562 0.10022-0.48671 0.23627-0.71875 0.375-0.00741 0.0044-0.023866-0.0045-0.03125 0-0.031933 0.0193-0.062293 0.04251-0.09375 0.0625-0.1204 0.0767-0.23102 0.16351-0.34375 0.25-0.10617 0.0808-0.21328 0.16111-0.3125 0.25-0.17793 0.16143-0.34746 0.34539-0.5 0.53125-0.10758 0.13026-0.21839 0.26528-0.3125 0.40625-0.025089 0.03838-0.038446 0.08587-0.0625 0.125-0.064763 0.10303-0.13023 0.20452-0.1875 0.3125-0.10101 0.19471-0.20567 0.4157-0.28125 0.625-0.00796 0.02181-0.023589 0.04055-0.03125 0.0625-0.031825 0.09195-0.035804 0.18683-0.0625 0.28125-0.030332 0.10662-0.070389 0.20303-0.09375 0.3125-0.072879 0.34151-0.125 0.6982-0.125 1.0625v2 68 2c0 2.7818 2.2182 5 5 5h2 68 2c2.7818 0 5-2.2182 5-5v-2-68-2c0-0.3643-0.05212-0.72099-0.125-1.0625-0.04415-0.20689-0.08838-0.39766-0.15625-0.59375-0.0077-0.02195-0.0233-0.04069-0.03125-0.0625-0.06274-0.17374-0.13838-0.36745-0.21875-0.53125-0.04158-0.0828-0.07904-0.16995-0.125-0.25-0.0546-0.09721-0.12677-0.18835-0.1875-0.28125-0.09411-0.14096-0.20492-0.276-0.3125-0.40625-0.14317-0.17445-0.30314-0.347-0.46875-0.5-0.01117-0.0102-0.01998-0.02115-0.03125-0.03125-0.13839-0.12556-0.28509-0.23444-0.4375-0.34375-0.10257-0.07315-0.20432-0.15336-0.3125-0.21875-0.0074-0.0045-0.02384 0.0044-0.03125 0-0.23204-0.13873-0.46255-0.27478-0.71875-0.375 0.30153 0.0968 0.59646 0.20414 0.875 0.34375 0.55709 0.27922 1.0601 0.66569 1.5 1.0938 0.21997 0.21403 0.40937 0.44186 0.59375 0.6875s0.35541 0.50774 0.5 0.78125c0.14012 0.26505 0.27614 0.52473 0.375 0.8125 0.01041 0.03078 0.02133 0.06274 0.03125 0.09375 0.09046 0.27808 0.1388 0.5794 0.1875 0.875 0.0524 0.31805 0.09375 0.63403 0.09375 0.96875v2 68 2c0 3.324-2.676 6-6 6h-72z" fill="url(#radialGradient3619)" opacity=".2"/>
 </g>
 <g id="layer1" transform="translate(0,74)">
  <path id="path3996" d="m50.081-57v6.2703 6.2703 29.294c-3.322-1.3023-7.5024-1.4231-11.659 0-7.4956 2.5664-11.918 9.0116-9.7973 14.5 2.1203 5.4884 9.9436 7.857 17.439 5.2905 6.1336-2.1001 10.186-6.7973 10.287-11.463 0.0069-0.32328 0.03135-0.65821 0-0.97973v-33.703c5.513 3.5012 12.655 10.782 12.541 25.277 4.6448-28.612-9.8927-25.522-18.811-40.757z" color="#000000" fill="none" filter="url(#filter3998)" opacity=".2" stroke="#fff" stroke-width="4"/>
  <path id="path2928" d="m50.081-57v6.2703 6.2703 29.294c-3.322-1.3023-7.5024-1.4231-11.659 0-7.4956 2.5664-11.918 9.0116-9.7973 14.5 2.1203 5.4884 9.9436 7.857 17.439 5.2905 6.1336-2.1001 10.186-6.7973 10.287-11.463 0.0069-0.32328 0.03135-0.65821 0-0.97973v-33.703c5.513 3.5012 12.655 10.782 12.541 25.277 4.6448-28.612-9.8927-25.522-18.811-40.757z" color="#000000" fill="url(#linearGradient3714)"/>
  <rect id="rect3708" x="-100" y="-74" width="96" height="96" color="#000000" fill="#f00" opacity=".3"/>
  <path id="path3968" transform="translate(0,-74)" d="m50.094 17v6.2812 6.25 29.312c-3.322-1.3023-7.4999-1.4231-11.656 0-7.4956 2.5664-11.933 9.0116-9.8125 14.5 2.1203 5.4884 9.9419 7.8477 17.438 5.2812 6.1336-2.1001 10.18-6.8032 10.281-11.469 0.0069-0.32328 0.03135-0.64723 0-0.96875v-33.719c5.513 3.5012 12.677 10.786 12.562 25.281 4.6448-28.612-9.8944-25.515-18.812-40.75zm2.125 6.5312c3.8655 4.417 7.9367 7.0739 10.75 10.25 1.4444 1.6306 2.5371 3.5926 3.375 5.9375-2.6372-4.2585-5.9343-7.2148-8.8438-9.0625a2.1408 2.1408 0 0 0-3.2812 1.8125v33.719a2.1408 2.1408 0 0 0 0 0.21875c0.007441 0.076314 0.008551 0.31811 0 0.71875-0.074919 3.4598-3.3638 7.5924-8.8438 9.4688-3.3417 1.1442-6.7597 1.185-9.4375 0.375s-4.534-2.3913-5.3125-4.4062c-0.77776-2.0132-0.41471-4.2037 1.0625-6.375s4.0868-4.1652 7.4375-5.3125c3.7053-1.2687 7.3914-1.1273 10.188-0.03125a2.1408 2.1408 0 0 0 2.9062-2v-29.312-6z" color="#000000" opacity=".1"/>
  <path id="path3196" transform="translate(0,-74)" d="m50.094 17v6.2812 6.25 29.312c-3.322-1.3023-7.4999-1.4231-11.656 0-7.4956 2.5664-11.933 9.0116-9.8125 14.5 2.1203 5.4884 9.9419 7.8477 17.438 5.2812 6.1336-2.1001 10.18-6.8032 10.281-11.469 0.0069-0.32328 0.03135-0.64723 0-0.96875v-33.719c5.513 3.5012 12.677 10.786 12.562 25.281 4.6448-28.612-9.8944-25.515-18.812-40.75zm1.1562 3.5938c4.2301 5.6622 9.074 8.6987 12.469 12.531 2.7594 3.1152 4.624 7.0513 4.8125 13.781-2.4531-7.986-7.4337-12.784-11.562-15.406a1.1517 1.1517 0 0 0-1.7812 0.96875v33.719a1.1517 1.1517 0 0 0 0 0.125c0.018488 0.18961 0.007788 0.4476 0 0.8125-0.086983 4.0169-3.718 8.4265-9.5 10.406-3.5293 1.2084-7.1319 1.252-10.031 0.375s-5.0601-2.6169-5.9688-4.9688c-0.90824-2.3509-0.43017-4.9035 1.1875-7.2812s4.4033-4.5087 7.9375-5.7188c3.9137-1.34 7.8359-1.2226 10.875-0.03125a1.1517 1.1517 0 0 0 1.5625-1.0625v-29.312-6.25-2.6875z" color="#000000" opacity=".2"/>
  <path id="path3978" transform="translate(0,-74)" d="m50.094 17v1c7.709 13.169 19.6 12.653 19.688 30.75 0.35407-19.126-11.838-18.341-19.688-31.75zm-5.5312 40.812c-1.9799-0.015107-4.0468 0.3197-6.125 1.0312-6.4485 2.2079-10.622 7.2858-10.312 12.156 0.2736-4.5501 4.3055-9.0995 10.312-11.156 4.1564-1.4231 8.3343-1.3023 11.656 0v-1c-1.661-0.65113-3.5513-1.0161-5.5312-1.0312z" color="#000000" opacity=".3"/>
  <path id="path3987" transform="translate(0,-74)" d="m56.344 32.469v1c5.513 3.5012 12.677 10.786 12.562 25.281 0.62976-3.8793 0.88867-7.1616 0.875-10-0.048225 2.6049-0.3182 5.5701-0.875 9 0.11413-14.496-7.0495-21.78-12.562-25.281zm0 34.719c-0.11831 4.6553-4.1613 9.3421-10.281 11.438-7.4956 2.5664-15.317 0.2071-17.438-5.2812-0.2962-0.76669-0.44969-1.5529-0.5-2.3438-0.067798 1.1275 0.078919 2.2538 0.5 3.3438 2.1203 5.4884 9.9419 7.8477 17.438 5.2812 6.1336-2.1001 10.18-6.8032 10.281-11.469 0.0069-0.32328 0.03135-0.64723 0-0.96875z" color="#000000" fill="#fff" opacity=".5"/>
 </g>
</svg>
