<?xml version="1.0" encoding="UTF-8"?>
<svg id="svg2" width="96" height="96" version="1.0" xmlns="http://www.w3.org/2000/svg" xmlns:cc="http://creativecommons.org/ns#" xmlns:dc="http://purl.org/dc/elements/1.1/" xmlns:rdf="http://www.w3.org/1999/02/22-rdf-syntax-ns#" xmlns:xlink="http://www.w3.org/1999/xlink">
 <defs id="defs4">
  <linearGradient id="linearGradient4427" x1="20.759" x2="20.759" y1="1" y2="45.017" gradientTransform="matrix(1.4884 0 0 1.4884 12.279 -60.232)" gradientUnits="userSpaceOnUse">
   <stop id="stop3906" stop-color="#323232" offset="0"/>
   <stop id="stop3908" stop-color="#787878" offset="1"/>
  </linearGradient>
  <clipPath id="clipPath3266">
   <path id="path3268" d="m0 0v96h96v-96h-96zm12 6h72c3.324 0 6 2.676 6 6v72c0 3.324-2.676 6-6 6h-72c-3.324 0-6-2.676-6-6v-72c0-3.324 2.676-6 6-6z" color="#000000" fill="#f00" opacity=".3"/>
  </clipPath>
  <linearGradient id="linearGradient3101" x1="32.251" x2="32.251" y1="6.1317" y2="90.239" gradientTransform="matrix(1.0238 0 0 1.0119 -1.1429 -98.071)" gradientUnits="userSpaceOnUse" xlink:href="#ButtonShadow-0"/>
  <linearGradient id="ButtonShadow-0" x1="45.448" x2="45.448" y1="92.54" y2="7.0165" gradientTransform="matrix(1.0059 0 0 .99417 100 0)" gradientUnits="userSpaceOnUse">
   <stop id="stop3750-8" offset="0"/>
   <stop id="stop3752-5" stop-opacity=".58824" offset="1"/>
  </linearGradient>
  <linearGradient id="linearGradient3052" x1="48" x2="48" y1="90" y2="5.9877" gradientUnits="userSpaceOnUse">
   <stop id="stop3189-4" stop-color="#c8c8c8" offset="0"/>
   <stop id="stop3191-0" stop-color="#e6e6e6" offset="1"/>
  </linearGradient>
  <linearGradient id="linearGradient3188" x1="36.357" x2="36.357" y1="6" y2="63.893" gradientUnits="userSpaceOnUse" xlink:href="#linearGradient3737"/>
  <linearGradient id="linearGradient3737">
   <stop id="stop3739" stop-color="#fff" offset="0"/>
   <stop id="stop3741" stop-color="#fff" stop-opacity="0" offset="1"/>
  </linearGradient>
  <radialGradient id="radialGradient3619" cx="48" cy="90.172" r="42" gradientTransform="matrix(1.1573 0 0 .99591 -7.551 .19713)" gradientUnits="userSpaceOnUse" xlink:href="#linearGradient3737"/>
  <linearGradient id="linearGradient4256" x1="32.251" x2="32.251" y1="6.1317" y2="90.239" gradientTransform="translate(0,-97)" gradientUnits="userSpaceOnUse" xlink:href="#ButtonShadow-0"/>
  <filter id="filter3970">
   <feGaussianBlur id="feGaussianBlur3972" stdDeviation="0.96000046"/>
  </filter>
 </defs>
 <metadata id="metadata7">
  <rdf:RDF>
   <cc:Work rdf:about="">
    <dc:format>image/svg+xml</dc:format>
    <dc:type rdf:resource="http://purl.org/dc/dcmitype/StillImage"/>
    <dc:title/>
   </cc:Work>
  </rdf:RDF>
 </metadata>
 <g id="layer2">
  <g id="g3202" clip-path="url(#clipPath3266)">
   <path id="path3786" transform="scale(1,-1)" d="m12-95.031c-5.5111 0-10.031 4.5202-10.031 10.031v71c0 5.5111 4.5202 10.031 10.031 10.031h72c5.5111 0 10.031-4.5202 10.031-10.031v-71c0-5.5111-4.5202-10.031-10.031-10.031h-72z" fill="url(#linearGradient3101)" opacity=".08"/>
   <path id="path3778" transform="scale(1,-1)" d="m12-94.031c-4.9716 0-9.0312 4.0596-9.0312 9.0312v71c0 4.9716 4.0596 9.0312 9.0312 9.0312h72c4.9716 0 9.0312-4.0596 9.0312-9.0312v-71c0-4.9716-4.0596-9.0312-9.0312-9.0312h-72z" fill="url(#linearGradient3101)" opacity=".1"/>
   <path id="path3770" transform="scale(1,-1)" d="m12-93c-4.4091 0-8 3.5909-8 8v71c0 4.4091 3.5909 8 8 8h72c4.4091 0 8-3.5909 8-8v-71c0-4.4091-3.5909-8-8-8h-72z" fill="url(#linearGradient3101)" opacity=".2"/>
   <rect id="rect3723" transform="scale(1,-1)" x="5" y="-92" width="86" height="85" rx="7" ry="7" fill="url(#linearGradient3101)" opacity=".3"/>
   <rect id="rect3716" transform="scale(1,-1)" x="6" y="-91" width="84" height="84" rx="6" ry="6" fill="url(#linearGradient4256)" opacity=".45"/>
  </g>
  <rect id="rect2419" x="6" y="6" width="84" height="84" rx="6" ry="6" fill="url(#linearGradient3052)" opacity=".75"/>
  <path id="rect3728" d="m12 6c-3.324 0-6 2.676-6 6v2 68 2c0 0.33472 0.04135 0.6507 0.09375 0.96875 0.0487 0.2956 0.09704 0.59692 0.1875 0.875 0.00988 0.03038 0.020892 0.0636 0.03125 0.09375 0.098865 0.28777 0.23488 0.54745 0.375 0.8125 0.14459 0.27351 0.31562 0.53562 0.5 0.78125s0.37378 0.47347 0.59375 0.6875c0.43995 0.42806 0.94291 0.81453 1.5 1.0938 0.27854 0.13961 0.57347 0.24695 0.875 0.34375-0.2562-0.10022-0.48671-0.23627-0.71875-0.375-0.00741-0.0044-0.023866 0.0045-0.03125 0-0.031933-0.0193-0.062293-0.04251-0.09375-0.0625-0.1204-0.0767-0.23102-0.16351-0.34375-0.25-0.10617-0.0808-0.21328-0.16111-0.3125-0.25-0.17793-0.16143-0.34746-0.34539-0.5-0.53125-0.10758-0.13026-0.21839-0.26528-0.3125-0.40625-0.025089-0.03838-0.038446-0.08587-0.0625-0.125-0.064763-0.10303-0.13023-0.20452-0.1875-0.3125-0.10101-0.19471-0.20567-0.4157-0.28125-0.625-0.00796-0.02181-0.023589-0.04055-0.03125-0.0625-0.031825-0.09195-0.035804-0.18683-0.0625-0.28125-0.030332-0.10662-0.070389-0.20303-0.09375-0.3125-0.072879-0.34151-0.125-0.6982-0.125-1.0625v-2-68-2c0-2.7818 2.2182-5 5-5h2 68 2c2.7818 0 5 2.2182 5 5v2 68 2c0 0.3643-0.05212 0.72099-0.125 1.0625-0.04415 0.20689-0.08838 0.39766-0.15625 0.59375-0.0077 0.02195-0.0233 0.04069-0.03125 0.0625-0.06274 0.17374-0.13838 0.36745-0.21875 0.53125-0.04158 0.0828-0.07904 0.16995-0.125 0.25-0.0546 0.09721-0.12677 0.18835-0.1875 0.28125-0.09411 0.14096-0.20492 0.276-0.3125 0.40625-0.14317 0.17445-0.30314 0.347-0.46875 0.5-0.01117 0.0102-0.01998 0.02115-0.03125 0.03125-0.13839 0.12556-0.28509 0.23444-0.4375 0.34375-0.10257 0.07315-0.20432 0.15336-0.3125 0.21875-0.0074 0.0045-0.02384-0.0044-0.03125 0-0.23204 0.13873-0.46255 0.27478-0.71875 0.375 0.30153-0.0968 0.59646-0.20414 0.875-0.34375 0.55709-0.27922 1.0601-0.66569 1.5-1.0938 0.21997-0.21403 0.40937-0.44186 0.59375-0.6875s0.35541-0.50774 0.5-0.78125c0.14012-0.26505 0.27614-0.52473 0.375-0.8125 0.01041-0.03078 0.02133-0.06274 0.03125-0.09375 0.09046-0.27808 0.1388-0.5794 0.1875-0.875 0.0524-0.31805 0.09375-0.63403 0.09375-0.96875v-2-68-2c0-3.324-2.676-6-6-6h-72z" fill="url(#linearGradient3188)" opacity=".5"/>
  <path id="path3615" d="m12 90c-3.324 0-6-2.676-6-6v-2-68-2c0-0.33472 0.04135-0.6507 0.09375-0.96875 0.0487-0.2956 0.09704-0.59692 0.1875-0.875 0.00988-0.03038 0.020892-0.0636 0.03125-0.09375 0.098865-0.28777 0.23488-0.54745 0.375-0.8125 0.14459-0.27351 0.31562-0.53562 0.5-0.78125s0.37378-0.47347 0.59375-0.6875c0.43995-0.42806 0.94291-0.81453 1.5-1.0938 0.27854-0.13961 0.57347-0.24695 0.875-0.34375-0.2562 0.10022-0.48671 0.23627-0.71875 0.375-0.00741 0.0044-0.023866-0.0045-0.03125 0-0.031933 0.0193-0.062293 0.04251-0.09375 0.0625-0.1204 0.0767-0.23102 0.16351-0.34375 0.25-0.10617 0.0808-0.21328 0.16111-0.3125 0.25-0.17793 0.16143-0.34746 0.34539-0.5 0.53125-0.10758 0.13026-0.21839 0.26528-0.3125 0.40625-0.025089 0.03838-0.038446 0.08587-0.0625 0.125-0.064763 0.10303-0.13023 0.20452-0.1875 0.3125-0.10101 0.19471-0.20567 0.4157-0.28125 0.625-0.00796 0.02181-0.023589 0.04055-0.03125 0.0625-0.031825 0.09195-0.035804 0.18683-0.0625 0.28125-0.030332 0.10662-0.070389 0.20303-0.09375 0.3125-0.072879 0.34151-0.125 0.6982-0.125 1.0625v2 68 2c0 2.7818 2.2182 5 5 5h2 68 2c2.7818 0 5-2.2182 5-5v-2-68-2c0-0.3643-0.05212-0.72099-0.125-1.0625-0.04415-0.20689-0.08838-0.39766-0.15625-0.59375-0.0077-0.02195-0.0233-0.04069-0.03125-0.0625-0.06274-0.17374-0.13838-0.36745-0.21875-0.53125-0.04158-0.0828-0.07904-0.16995-0.125-0.25-0.0546-0.09721-0.12677-0.18835-0.1875-0.28125-0.09411-0.14096-0.20492-0.276-0.3125-0.40625-0.14317-0.17445-0.30314-0.347-0.46875-0.5-0.01117-0.0102-0.01998-0.02115-0.03125-0.03125-0.13839-0.12556-0.28509-0.23444-0.4375-0.34375-0.10257-0.07315-0.20432-0.15336-0.3125-0.21875-0.0074-0.0045-0.02384 0.0044-0.03125 0-0.23204-0.13873-0.46255-0.27478-0.71875-0.375 0.30153 0.0968 0.59646 0.20414 0.875 0.34375 0.55709 0.27922 1.0601 0.66569 1.5 1.0938 0.21997 0.21403 0.40937 0.44186 0.59375 0.6875s0.35541 0.50774 0.5 0.78125c0.14012 0.26505 0.27614 0.52473 0.375 0.8125 0.01041 0.03078 0.02133 0.06274 0.03125 0.09375 0.09046 0.27808 0.1388 0.5794 0.1875 0.875 0.0524 0.31805 0.09375 0.63403 0.09375 0.96875v2 68 2c0 3.324-2.676 6-6 6h-72z" fill="url(#radialGradient3619)" opacity=".2"/>
 </g>
 <g id="layer1" transform="translate(0,74)">
  <path id="path3968" d="m43.581-58c-1.2594 0-2.2791 1.0447-2.2791 2.3256v4.5116c-2.2518 0.59997-4.4034 1.5062-6.3721 2.6512l-3.2093-3.2093c-0.45287-0.45284-0.99534-0.69271-1.5814-0.69767-0.58605-5e-3 -1.1827 0.20594-1.6279 0.65116l-6.2791 6.2791c-0.89049 0.8905-0.85921 2.3036 0.04646 3.2093l3.2093 3.2093c-1.145 1.9687-2.0512 4.1203-2.6512 6.3721h-4.5116c-1.2809 0-2.3256 1.0197-2.3256 2.2791v8.8372c0 1.2594 1.0447 2.2791 2.3256 2.2791h4.5116c0.59998 2.2518 1.5062 4.4034 2.6512 6.3721l-3.2093 3.2093c-0.90572 0.90572-0.937 2.3188-0.04644 3.2093l6.2791 6.2791c0.89049 0.8905 2.3036 0.8592 3.2093-0.046507l3.2093-3.2093c1.9686 1.145 4.1203 2.0512 6.3721 2.6512v4.5116c0 1.2809 1.0197 2.3256 2.2791 2.3256h8.8372c1.2594 0 2.2791-1.0447 2.2791-2.3256v-4.5116c2.2518-0.59997 4.4034-1.5062 6.3721-2.6512l3.2093 3.2093c0.90571 0.90571 2.3188 0.93701 3.2093 0.046471l6.2791-6.2791c0.89049-0.8905 0.8592-2.3036-0.0464-3.2093l-3.2093-3.2093c1.1449-1.9686 2.0512-4.1203 2.6512-6.3721h4.5116c1.2809 2.9e-5 2.3256-1.0197 2.3256-2.279v-8.8372c0-1.2593-1.0447-2.2791-2.3256-2.2791h-4.5116c-0.59997-2.2518-1.5062-4.4034-2.6512-6.3721l3.2093-3.2093c0.90571-0.90572 0.937-2.3188 0.0464-3.2093l-6.279-6.2791c-0.89052-0.89049-2.3036-0.8592-3.2093 0.0464l-3.2093 3.2093c-1.9687-1.145-4.1203-2.0512-6.3721-2.6512v-4.5116c0-1.2809-1.0197-2.3256-2.2791-2.3256h-8.8372zm4.4186 22.326c5.3403 0 9.6744 4.3341 9.6744 9.6744 0 5.3403-4.3341 9.6744-9.6744 9.6744-5.3403 0-9.6744-4.3341-9.6744-9.6744 0-5.3403 4.3341-9.6744 9.6744-9.6744z" display="block" fill="none" filter="url(#filter3970)" opacity=".2" stroke="#fff" stroke-width="4"/>
  <path id="rect3267" d="m43.581-58c-1.2594 0-2.2791 1.0447-2.2791 2.3256v4.5116c-2.2518 0.59997-4.4034 1.5062-6.3721 2.6512l-3.2093-3.2093c-0.45287-0.45284-0.99534-0.69271-1.5814-0.69767-0.58605-5e-3 -1.1827 0.20594-1.6279 0.65116l-6.2791 6.2791c-0.89049 0.8905-0.85921 2.3036 0.04646 3.2093l3.2093 3.2093c-1.145 1.9687-2.0512 4.1203-2.6512 6.3721h-4.5116c-1.2809 0-2.3256 1.0197-2.3256 2.2791v8.8372c0 1.2594 1.0447 2.2791 2.3256 2.2791h4.5116c0.59998 2.2518 1.5062 4.4034 2.6512 6.3721l-3.2093 3.2093c-0.90572 0.90572-0.937 2.3188-0.04644 3.2093l6.2791 6.2791c0.89049 0.8905 2.3036 0.8592 3.2093-0.046507l3.2093-3.2093c1.9686 1.145 4.1203 2.0512 6.3721 2.6512v4.5116c0 1.2809 1.0197 2.3256 2.2791 2.3256h8.8372c1.2594 0 2.2791-1.0447 2.2791-2.3256v-4.5116c2.2518-0.59997 4.4034-1.5062 6.3721-2.6512l3.2093 3.2093c0.90571 0.90571 2.3188 0.93701 3.2093 0.046471l6.2791-6.2791c0.89049-0.8905 0.8592-2.3036-0.0464-3.2093l-3.2093-3.2093c1.1449-1.9686 2.0512-4.1203 2.6512-6.3721h4.5116c1.2809 2.9e-5 2.3256-1.0197 2.3256-2.279v-8.8372c0-1.2593-1.0447-2.2791-2.3256-2.2791h-4.5116c-0.59997-2.2518-1.5062-4.4034-2.6512-6.3721l3.2093-3.2093c0.90571-0.90572 0.937-2.3188 0.0464-3.2093l-6.279-6.2791c-0.89052-0.89049-2.3036-0.8592-3.2093 0.0464l-3.2093 3.2093c-1.9687-1.145-4.1203-2.0512-6.3721-2.6512v-4.5116c0-1.2809-1.0197-2.3256-2.2791-2.3256h-8.8372zm4.4186 22.326c5.3403 0 9.6744 4.3341 9.6744 9.6744 0 5.3403-4.3341 9.6744-9.6744 9.6744-5.3403 0-9.6744-4.3341-9.6744-9.6744 0-5.3403 4.3341-9.6744 9.6744-9.6744z" display="block" fill="url(#linearGradient4427)"/>
  <rect id="rect3698" x="-100" y="-74" width="96" height="96" color="#000000" fill="#f00" opacity=".3"/>
  <path id="path3940" transform="translate(0,-74)" d="m43.594 16c-1.2594 0-2.2812 1.0316-2.2812 2.3125v4.5312c-2.2518 0.59997-4.4063 1.5113-6.375 2.6562l-3.2188-3.2188c-0.45287-0.45284-1.0077-0.68254-1.5938-0.6875-0.58605-5e-3 -1.1798 0.17978-1.625 0.625l-6.2812 6.2812c-0.89049 0.8905-0.84317 2.313 0.0625 3.2188l3.2188 3.2188c-1.145 1.9687-2.0563 4.1232-2.6562 6.375h-4.5312c-1.2809 0-2.3125 1.0219-2.3125 2.2812v8.8125c0 1.2594 1.0316 2.2812 2.3125 2.2812h4.5312c0.59998 2.2518 1.5113 4.4064 2.6562 6.375l-3.2188 3.2188c-0.90572 0.90572-0.95306 2.3283-0.0625 3.2188l6.2812 6.2812c0.89049 0.8905 2.313 0.84321 3.2188-0.0625l3.2188-3.2188c1.9686 1.145 4.1232 2.0563 6.375 2.6562v4.5312c0 1.2809 1.0219 2.3125 2.2812 2.3125h8.8125c1.2594 0 2.2812-1.0316 2.2812-2.3125v-4.5312c2.2518-0.59997 4.4064-1.5113 6.375-2.6562l3.2188 3.2188c0.90571 0.90571 2.3283 0.95304 3.2188 0.0625l6.2812-6.2812c0.89049-0.8905 0.8431-2.313-0.0625-3.2188l-3.2188-3.2188c1.1449-1.9686 2.0563-4.1232 2.6562-6.375h4.5312c1.2809 2.9e-5 2.3125-1.0219 2.3125-2.2812v-8.8125c0-1.2593-1.0316-2.2812-2.3125-2.2812h-4.5312c-0.59997-2.2518-1.5113-4.4063-2.6562-6.375l3.2188-3.2188c0.90571-0.90572 0.9531-2.3283 0.0625-3.2188l-6.2812-6.2812c-0.89052-0.89049-2.313-0.8431-3.2188 0.0625l-3.2188 3.2188c-1.9687-1.145-4.1232-2.0563-6.375-2.6562v-4.5312c0-1.2809-1.0219-2.3125-2.2812-2.3125h-8.8125zm0 2.0625h8.8125c0.12815 0 0.21875 0.070819 0.21875 0.25v4.5312a2.0716 2.0716 0 0 0 1.5312 2c2.0652 0.55025 4.0612 1.3826 5.875 2.4375a2.0716 2.0716 0 0 0 2.5-0.3125l3.2188-3.2188c0.16442-0.16439 0.19663-0.14712 0.28125-0.0625l6.2812 6.2812c0.084643 0.084633 0.10194 0.11681-0.0625 0.28125l-3.2188 3.2188a2.0716 2.0716 0 0 0-0.3125 2.5c1.0549 1.8138 1.8873 3.8098 2.4375 5.875a2.0716 2.0716 0 0 0 2 1.5312h4.5312c0.17914 0 0.25 0.090625 0.25 0.21875v8.8125c0 0.12814-0.070906 0.21875-0.25 0.21875h-4.5312a2.0716 2.0716 0 0 0-2 1.5312c-0.55025 2.0652-1.3826 4.0612-2.4375 5.875a2.0716 2.0716 0 0 0 0.3125 2.5l3.2188 3.2188c0.16437 0.16439 0.14709 0.19666 0.0625 0.28125l-6.2812 6.2812c-0.084635 0.084639-0.11686 0.10188-0.28125-0.0625l-3.2188-3.2188a2.0716 2.0716 0 0 0-2.5-0.3125c-1.8138 1.0549-3.8098 1.8872-5.875 2.4375a2.0716 2.0716 0 0 0-1.5312 2v4.5312c0 0.17917-0.090595 0.25-0.21875 0.25h-8.8125c-0.12816 0-0.21875-0.070824-0.21875-0.25v-4.5312a2.0716 2.0716 0 0 0-1.5312-2c-2.0652-0.55025-4.0612-1.3826-5.875-2.4375a2.0716 2.0716 0 0 0-2.5 0.3125l-3.2188 3.2188c-0.16438 0.16438-0.19662 0.14713-0.28125 0.0625l-6.2812-6.2812c-0.084648-0.084642-0.10192-0.11683 0.0625-0.28125l3.2188-3.2188a2.0716 2.0716 0 0 0 0.3125-2.5c-1.0549-1.8138-1.8872-3.8098-2.4375-5.875a2.0716 2.0716 0 0 0-2-1.5312h-4.5312c-0.17916 0-0.25-0.090607-0.25-0.21875v-8.8125c0-0.12815 0.07083-0.21875 0.25-0.21875h4.5312a2.0716 2.0716 0 0 0 2-1.5312c0.55026-2.0652 1.3826-4.0612 2.4375-5.875a2.0716 2.0716 0 0 0-0.3125-2.5l-3.2188-3.2188c-0.16438-0.16439-0.14712-0.19663-0.0625-0.28125l6.2812-6.2812c0.014301-0.008355 0.055625-0.031842 0.125-0.03125 0.055935 4.73e-4 0.053901-0.008593 0.15625 0.09375l3.2188 3.2188a2.0716 2.0716 0 0 0 2.5 0.3125c1.8138-1.0549 3.8098-1.8873 5.875-2.4375a2.0716 2.0716 0 0 0 1.5312-2v-4.5312c0-0.17918 0.090585-0.25 0.21875-0.25zm4.4062 18.188c-6.4644 0-11.75 5.2856-11.75 11.75 0 6.4644 5.2856 11.75 11.75 11.75 6.4644 0 11.75-5.2856 11.75-11.75 0-6.4644-5.2856-11.75-11.75-11.75zm0 2.0625c5.3403 0 9.6875 4.3472 9.6875 9.6875 0 5.3403-4.3472 9.6875-9.6875 9.6875-5.3403 0-9.6875-4.3472-9.6875-9.6875 0-5.3403 4.3472-9.6875 9.6875-9.6875z" display="block" opacity=".1"/>
  <path id="path3168" transform="translate(0,-74)" d="m43.594 16c-1.2594 0-2.2812 1.0316-2.2812 2.3125v4.5312c-2.2518 0.59997-4.4063 1.5113-6.375 2.6562l-3.2188-3.2188c-0.45287-0.45284-1.0077-0.68254-1.5938-0.6875-0.58605-5e-3 -1.1798 0.17978-1.625 0.625l-6.2812 6.2812c-0.89049 0.8905-0.84317 2.313 0.0625 3.2188l3.2188 3.2188c-1.145 1.9687-2.0563 4.1232-2.6562 6.375h-4.5312c-1.2809 0-2.3125 1.0219-2.3125 2.2812v8.8125c0 1.2594 1.0316 2.2812 2.3125 2.2812h4.5312c0.59998 2.2518 1.5113 4.4064 2.6562 6.375l-3.2188 3.2188c-0.90572 0.90572-0.95306 2.3283-0.0625 3.2188l6.2812 6.2812c0.89049 0.8905 2.313 0.84321 3.2188-0.0625l3.2188-3.2188c1.9686 1.145 4.1232 2.0563 6.375 2.6562v4.5312c0 1.2809 1.0219 2.3125 2.2812 2.3125h8.8125c1.2594 0 2.2812-1.0316 2.2812-2.3125v-4.5312c2.2518-0.59997 4.4064-1.5113 6.375-2.6562l3.2188 3.2188c0.90571 0.90571 2.3283 0.95304 3.2188 0.0625l6.2812-6.2812c0.89049-0.8905 0.8431-2.313-0.0625-3.2188l-3.2188-3.2188c1.1449-1.9686 2.0563-4.1232 2.6562-6.375h4.5312c1.2809 2.9e-5 2.3125-1.0219 2.3125-2.2812v-8.8125c0-1.2593-1.0316-2.2812-2.3125-2.2812h-4.5312c-0.59997-2.2518-1.5113-4.4063-2.6562-6.375l3.2188-3.2188c0.90571-0.90572 0.9531-2.3283 0.0625-3.2188l-6.2812-6.2812c-0.89052-0.89049-2.313-0.8431-3.2188 0.0625l-3.2188 3.2188c-1.9687-1.145-4.1232-2.0563-6.375-2.6562v-4.5312c0-1.2809-1.0219-2.3125-2.2812-2.3125h-8.8125zm0 1.0625h8.8125c0.67592 0 1.2188 0.53733 1.2188 1.25v4.5312a1.0684 1.0684 0 0 0 0.78125 1.0312c2.1556 0.57433 4.2362 1.464 6.125 2.5625a1.0684 1.0684 0 0 0 1.2812-0.1875l3.2188-3.2188c0.52338-0.52331 1.2439-0.53735 1.7188-0.0625l6.2812 6.2812c0.47492 0.47486 0.46089 1.1954-0.0625 1.7188l-3.2188 3.2188a1.0684 1.0684 0 0 0-0.1875 1.2812c1.0985 1.8888 1.9882 3.9694 2.5625 6.125a1.0684 1.0684 0 0 0 1.0312 0.78125h4.5312c0.71264 0 1.25 0.54284 1.25 1.2188v8.8125c0 0.67592-0.53738 1.2188-1.25 1.2188h-4.5312a1.0684 1.0684 0 0 0-1.0312 0.78125c-0.57432 2.1556-1.464 4.2362-2.5625 6.125a1.0684 1.0684 0 0 0 0.1875 1.2812l3.2188 3.2188c0.5233 0.52337 0.53734 1.2439 0.0625 1.7188l-6.2812 6.2812c-0.47486 0.47488-1.1954 0.46086-1.7188-0.0625l-3.2188-3.2188a1.0684 1.0684 0 0 0-1.2812-0.1875c-1.8888 1.0985-3.9694 1.9882-6.125 2.5625a1.0684 1.0684 0 0 0-0.78125 1.0312v4.5312c0 0.71266-0.54282 1.25-1.2188 1.25h-8.8125c-0.67593 0-1.2188-0.53734-1.2188-1.25v-4.5312a1.0684 1.0684 0 0 0-0.78125-1.0312c-2.1556-0.57433-4.2362-1.464-6.125-2.5625a1.0684 1.0684 0 0 0-1.2812 0.1875l-3.2188 3.2188c-0.52337 0.52336-1.2439 0.53736-1.7188 0.0625l-6.2812-6.2812c-0.4749-0.47487-0.46088-1.1954 0.0625-1.7188l3.2188-3.2188a1.0684 1.0684 0 0 0 0.1875-1.2812c-1.0985-1.8888-1.9882-3.9694-2.5625-6.125a1.0684 1.0684 0 0 0-1.0312-0.78125h-4.5312c-0.71266 0-1.25-0.54283-1.25-1.2188v-8.8125c0-0.67592 0.53734-1.2188 1.25-1.2188h4.5312a1.0684 1.0684 0 0 0 1.0312-0.78125c0.57434-2.1556 1.464-4.2362 2.5625-6.125a1.0684 1.0684 0 0 0-0.1875-1.2812l-3.2188-3.2188c-0.52334-0.52337-0.53735-1.2439-0.0625-1.7188l6.2812-6.2812c0.21398-0.21396 0.51965-0.31553 0.875-0.3125 0.31264 0.002646 0.57167 0.10293 0.84375 0.375l3.2188 3.2188a1.0684 1.0684 0 0 0 1.2812 0.1875c1.8888-1.0985 3.9694-1.9882 6.125-2.5625a1.0684 1.0684 0 0 0 0.78125-1.0312v-4.5312c0-0.71266 0.54282-1.25 1.2188-1.25zm4.4062 20.188c-5.9201 0-10.75 4.8299-10.75 10.75 0 5.9201 4.8299 10.75 10.75 10.75 5.9201 0 10.75-4.8299 10.75-10.75 0-5.9201-4.8299-10.75-10.75-10.75zm0 1.0625c5.3403 0 9.6875 4.3472 9.6875 9.6875 0 5.3403-4.3472 9.6875-9.6875 9.6875-5.3403 0-9.6875-4.3472-9.6875-9.6875 0-5.3403 4.3472-9.6875 9.6875-9.6875z" display="block" opacity=".2"/>
  <path id="path3950" transform="translate(0,-74)" d="m43.594 16c-1.2594 0-2.2812 1.0316-2.2812 2.3125v1c0-1.2809 1.0219-2.3125 2.2812-2.3125h8.8125c1.2593 0 2.2812 1.0316 2.2812 2.3125v-1c0-1.2809-1.0219-2.3125-2.2812-2.3125h-8.8125zm-13.469 5.5938c-0.58605-5e-3 -1.1798 0.17978-1.625 0.625l-6.2812 6.2812c-0.58071 0.58071-0.75264 1.3854-0.5625 2.125 0.085455-0.40317 0.24537-0.80786 0.5625-1.125l6.2812-6.2812c0.44525-0.44522 1.039-0.63 1.625-0.625 0.58605 0.00496 1.1409 0.23466 1.5938 0.6875l3.2188 3.2188c1.9687-1.145 4.1232-2.0563 6.375-2.6562v-1c-2.2518 0.59997-4.4063 1.5113-6.375 2.6562l-3.2188-3.2188c-0.45287-0.45284-1.0077-0.68254-1.5938-0.6875zm35.75 0c-0.5778 0.009711-1.1409 0.2347-1.5938 0.6875l-3.2188 3.2188c-1.9687-1.145-4.1232-2.0563-6.375-2.6562v1c2.2518 0.59997 4.4063 1.5113 6.375 2.6562l3.2188-3.2188c0.90572-0.9056 2.3282-0.95299 3.2188-0.0625l6.2812 6.2812c0.31717 0.31714 0.47703 0.72183 0.5625 1.125 0.19015-0.73956 0.018283-1.5443-0.5625-2.125l-6.2812-6.2812c-0.44526-0.44524-1.0472-0.63471-1.625-0.625zm-40.719 14c-0.97376 1.7895-1.7776 3.7114-2.3125 5.7188h-4.5312c-1.2809 0-2.3125 1.0219-2.3125 2.2812v1c0-1.2594 1.0316-2.2812 2.3125-2.2812h4.5312c0.59998-2.2518 1.5113-4.4063 2.6562-6.375l-0.34375-0.34375zm45.688 0-0.34375 0.34375c1.1449 1.9687 2.0563 4.1232 2.6562 6.375h4.5312c1.2809 0 2.3125 1.0219 2.3125 2.2812v-1c0-1.2593-1.0316-2.2812-2.3125-2.2812h-4.5312c-0.53484-2.0074-1.3388-3.9293-2.3125-5.7188zm-32.5 12.906c-0.008364 0.16482-0.03125 0.33312-0.03125 0.5 0 5.3403 4.3472 9.6875 9.6875 9.6875 5.3403 0 9.6875-4.3472 9.6875-9.6875 0-0.16688-0.022886-0.33518-0.03125-0.5-0.25927 5.1093-4.4829 9.1875-9.6562 9.1875-5.1734 0-9.397-4.0782-9.6562-9.1875zm-13.188 12.906-2.875 2.875c-0.58316 0.58316-0.77951 1.3648-0.625 2.0938 0.10144-0.39452 0.30992-0.77867 0.625-1.0938l3.2188-3.2188c-0.12429-0.21371-0.22517-0.43833-0.34375-0.65625zm45.688 0c-0.11858 0.21792-0.21946 0.44254-0.34375 0.65625l3.2188 3.2188c0.31504 0.31508 0.52358 0.69923 0.625 1.0938 0.1545-0.72891-0.041913-1.5106-0.625-2.0938l-2.875-2.875z" display="block" opacity=".3"/>
  <path id="path3959" transform="translate(0,-74)" d="m21.656 30.625c-0.1545 0.72892 0.04187 1.5106 0.625 2.0938l2.875 2.875c0.11858-0.21792 0.21946-0.44254 0.34375-0.65625l-3.2188-3.2188c-0.31506-0.31508-0.52357-0.69923-0.625-1.0938zm52.688 0c-0.10144 0.39452-0.30992 0.77867-0.625 1.0938l-3.2188 3.2188c0.12429 0.21371 0.22517 0.43833 0.34375 0.65625l2.875-2.875c0.58316-0.58316 0.77952-1.3648 0.625-2.0938zm-26.344 7.6875c-5.3403 0-9.6875 4.3472-9.6875 9.6875 0 0.16688 0.022886 0.33518 0.03125 0.5 0.25927-5.1093 4.4829-9.1875 9.6562-9.1875 5.1734 0 9.397 4.0782 9.6562 9.1875 0.008364-0.16482 0.03125-0.33312 0.03125-0.5 0-5.3403-4.3472-9.6875-9.6875-9.6875zm-32 14.094v1c0 1.2594 1.0316 2.2812 2.3125 2.2812h4.5312c0.53485 2.0074 1.3388 3.9293 2.3125 5.7188l0.34375-0.34375c-1.1449-1.9686-2.0563-4.1232-2.6562-6.375h-4.5312c-1.2809 0-2.3125-1.0219-2.3125-2.2812zm64 0c0 1.2594-1.0316 2.2813-2.3125 2.2812h-4.5312c-0.59997 2.2518-1.5113 4.4064-2.6562 6.375l0.34375 0.34375c0.97374-1.7895 1.7777-3.7114 2.3125-5.7188h4.5312c1.2809 2.9e-5 2.3125-1.0219 2.3125-2.2812v-1zm-58.344 13.969c-0.19015 0.73956-0.018256 1.5443 0.5625 2.125l6.2812 6.2812c0.89049 0.8905 2.313 0.84321 3.2188-0.0625l3.2188-3.2188c1.9686 1.145 4.1232 2.0563 6.375 2.6562v-1c-2.2518-0.59997-4.4064-1.5113-6.375-2.6562l-3.2188 3.2188c-0.90572 0.90571-2.3283 0.953-3.2188 0.0625l-6.2812-6.2812c-0.31716-0.31714-0.47704-0.72183-0.5625-1.125zm52.688 0c-0.085458 0.40317-0.24537 0.80786-0.5625 1.125l-6.2812 6.2812c-0.8905 0.89054-2.313 0.84321-3.2188-0.0625l-3.2188-3.2188c-1.9686 1.145-4.1232 2.0563-6.375 2.6562v1c2.2518-0.59997 4.4064-1.5113 6.375-2.6562l3.2188 3.2188c0.90571 0.90571 2.3283 0.95304 3.2188 0.0625l6.2812-6.2812c0.58071-0.58072 0.75263-1.3854 0.5625-2.125zm-33.031 11.312v1c0 1.2809 1.0219 2.3125 2.2812 2.3125h8.8125c1.2594 0 2.2812-1.0316 2.2812-2.3125v-1c0 1.2809-1.0219 2.3125-2.2812 2.3125h-8.8125c-1.2594 0-2.2812-1.0316-2.2812-2.3125z" display="block" fill="#fff" opacity=".5"/>
 </g>
</svg>
