<?xml version="1.0" encoding="UTF-8"?>
<svg id="svg2" width="96" height="96" version="1.0" xmlns="http://www.w3.org/2000/svg" xmlns:cc="http://creativecommons.org/ns#" xmlns:dc="http://purl.org/dc/elements/1.1/" xmlns:rdf="http://www.w3.org/1999/02/22-rdf-syntax-ns#" xmlns:xlink="http://www.w3.org/1999/xlink">
 <defs id="defs4">
  <radialGradient id="radialGradient3619" cx="48" cy="90.172" r="42" gradientTransform="matrix(1.1573 0 0 .99591 -7.551 .19713)" gradientUnits="userSpaceOnUse" xlink:href="#linearGradient3737"/>
  <linearGradient id="linearGradient3737">
   <stop id="stop3739" stop-color="#fff" offset="0"/>
   <stop id="stop3741" stop-color="#fff" stop-opacity="0" offset="1"/>
  </linearGradient>
  <linearGradient id="linearGradient3188" x1="36.357" x2="36.357" y1="6" y2="63.893" gradientUnits="userSpaceOnUse" xlink:href="#linearGradient3737"/>
  <linearGradient id="linearGradient3052" x1="48" x2="48" y1="90" y2="5.9877" gradientUnits="userSpaceOnUse">
   <stop id="stop3189-4" stop-color="#c8c8c8" offset="0"/>
   <stop id="stop3191-0" stop-color="#e6e6e6" offset="1"/>
  </linearGradient>
  <clipPath id="clipPath3266">
   <path id="path3268" d="m0 0v96h96v-96h-96zm12 6h72c3.324 0 6 2.676 6 6v72c0 3.324-2.676 6-6 6h-72c-3.324 0-6-2.676-6-6v-72c0-3.324 2.676-6 6-6z" color="#000000" fill="#f00" opacity=".3"/>
  </clipPath>
  <linearGradient id="linearGradient3101" x1="32.251" x2="32.251" y1="6.1317" y2="90.239" gradientTransform="matrix(1.0238 0 0 1.0119 -1.1429 -98.071)" gradientUnits="userSpaceOnUse" xlink:href="#ButtonShadow-0"/>
  <linearGradient id="ButtonShadow-0" x1="45.448" x2="45.448" y1="92.54" y2="7.0165" gradientTransform="matrix(1.0059 0 0 .99417 100 0)" gradientUnits="userSpaceOnUse">
   <stop id="stop3750-8" offset="0"/>
   <stop id="stop3752-5" stop-opacity=".58824" offset="1"/>
  </linearGradient>
  <linearGradient id="linearGradient4396" x1="32.251" x2="32.251" y1="6.1317" y2="90.239" gradientTransform="translate(0,-97)" gradientUnits="userSpaceOnUse" xlink:href="#ButtonShadow-0"/>
  <linearGradient id="linearGradient3124" x1="128" x2="128" y1="272.01" y2="39.99" gradientTransform="matrix(.28151 0 0 -.27584 8.2465 17.031)" gradientUnits="userSpaceOnUse">
   <stop id="stop5046" stop-color="#323232" offset="0"/>
   <stop id="stop5048" stop-color="#787878" offset="1"/>
  </linearGradient>
  <filter id="filter4005">
   <feGaussianBlur id="feGaussianBlur4007" stdDeviation="0.83447898"/>
  </filter>
 </defs>
 <metadata id="metadata7">
  <rdf:RDF>
   <cc:Work rdf:about="">
    <dc:format>image/svg+xml</dc:format>
    <dc:type rdf:resource="http://purl.org/dc/dcmitype/StillImage"/>
    <dc:title/>
   </cc:Work>
  </rdf:RDF>
 </metadata>
 <g id="layer2">
  <g id="g3202" clip-path="url(#clipPath3266)">
   <path id="path3786" transform="scale(1,-1)" d="m12-95.031c-5.5111 0-10.031 4.5202-10.031 10.031v71c0 5.5111 4.5202 10.031 10.031 10.031h72c5.5111 0 10.031-4.5202 10.031-10.031v-71c0-5.5111-4.5202-10.031-10.031-10.031h-72z" fill="url(#linearGradient3101)" opacity=".08"/>
   <path id="path3778" transform="scale(1,-1)" d="m12-94.031c-4.9716 0-9.0312 4.0596-9.0312 9.0312v71c0 4.9716 4.0596 9.0312 9.0312 9.0312h72c4.9716 0 9.0312-4.0596 9.0312-9.0312v-71c0-4.9716-4.0596-9.0312-9.0312-9.0312h-72z" fill="url(#linearGradient3101)" opacity=".1"/>
   <path id="path3770" transform="scale(1,-1)" d="m12-93c-4.4091 0-8 3.5909-8 8v71c0 4.4091 3.5909 8 8 8h72c4.4091 0 8-3.5909 8-8v-71c0-4.4091-3.5909-8-8-8h-72z" fill="url(#linearGradient3101)" opacity=".2"/>
   <rect id="rect3723" transform="scale(1,-1)" x="5" y="-92" width="86" height="85" rx="7" ry="7" fill="url(#linearGradient3101)" opacity=".3"/>
   <rect id="rect3716" transform="scale(1,-1)" x="6" y="-91" width="84" height="84" rx="6" ry="6" fill="url(#linearGradient4396)" opacity=".45"/>
  </g>
  <rect id="rect2419" x="6" y="6" width="84" height="84" rx="6" ry="6" fill="url(#linearGradient3052)" opacity=".75"/>
  <path id="rect3728" d="m12 6c-3.324 0-6 2.676-6 6v2 68 2c0 0.33472 0.04135 0.6507 0.09375 0.96875 0.0487 0.2956 0.09704 0.59692 0.1875 0.875 0.00988 0.03038 0.020892 0.0636 0.03125 0.09375 0.098865 0.28777 0.23488 0.54745 0.375 0.8125 0.14459 0.27351 0.31562 0.53562 0.5 0.78125s0.37378 0.47347 0.59375 0.6875c0.43995 0.42806 0.94291 0.81453 1.5 1.0938 0.27854 0.13961 0.57347 0.24695 0.875 0.34375-0.2562-0.10022-0.48671-0.23627-0.71875-0.375-0.00741-0.0044-0.023866 0.0045-0.03125 0-0.031933-0.0193-0.062293-0.04251-0.09375-0.0625-0.1204-0.0767-0.23102-0.16351-0.34375-0.25-0.10617-0.0808-0.21328-0.16111-0.3125-0.25-0.17793-0.16143-0.34746-0.34539-0.5-0.53125-0.10758-0.13026-0.21839-0.26528-0.3125-0.40625-0.025089-0.03838-0.038446-0.08587-0.0625-0.125-0.064763-0.10303-0.13023-0.20452-0.1875-0.3125-0.10101-0.19471-0.20567-0.4157-0.28125-0.625-0.00796-0.02181-0.023589-0.04055-0.03125-0.0625-0.031825-0.09195-0.035804-0.18683-0.0625-0.28125-0.030332-0.10662-0.070389-0.20303-0.09375-0.3125-0.072879-0.34151-0.125-0.6982-0.125-1.0625v-2-68-2c0-2.7818 2.2182-5 5-5h2 68 2c2.7818 0 5 2.2182 5 5v2 68 2c0 0.3643-0.05212 0.72099-0.125 1.0625-0.04415 0.20689-0.08838 0.39766-0.15625 0.59375-0.0077 0.02195-0.0233 0.04069-0.03125 0.0625-0.06274 0.17374-0.13838 0.36745-0.21875 0.53125-0.04158 0.0828-0.07904 0.16995-0.125 0.25-0.0546 0.09721-0.12677 0.18835-0.1875 0.28125-0.09411 0.14096-0.20492 0.276-0.3125 0.40625-0.14317 0.17445-0.30314 0.347-0.46875 0.5-0.01117 0.0102-0.01998 0.02115-0.03125 0.03125-0.13839 0.12556-0.28509 0.23444-0.4375 0.34375-0.10257 0.07315-0.20432 0.15336-0.3125 0.21875-0.0074 0.0045-0.02384-0.0044-0.03125 0-0.23204 0.13873-0.46255 0.27478-0.71875 0.375 0.30153-0.0968 0.59646-0.20414 0.875-0.34375 0.55709-0.27922 1.0601-0.66569 1.5-1.0938 0.21997-0.21403 0.40937-0.44186 0.59375-0.6875s0.35541-0.50774 0.5-0.78125c0.14012-0.26505 0.27614-0.52473 0.375-0.8125 0.01041-0.03078 0.02133-0.06274 0.03125-0.09375 0.09046-0.27808 0.1388-0.5794 0.1875-0.875 0.0524-0.31805 0.09375-0.63403 0.09375-0.96875v-2-68-2c0-3.324-2.676-6-6-6h-72z" fill="url(#linearGradient3188)" opacity=".5"/>
  <path id="path3615" d="m12 90c-3.324 0-6-2.676-6-6v-2-68-2c0-0.33472 0.04135-0.6507 0.09375-0.96875 0.0487-0.2956 0.09704-0.59692 0.1875-0.875 0.00988-0.03038 0.020892-0.0636 0.03125-0.09375 0.098865-0.28777 0.23488-0.54745 0.375-0.8125 0.14459-0.27351 0.31562-0.53562 0.5-0.78125s0.37378-0.47347 0.59375-0.6875c0.43995-0.42806 0.94291-0.81453 1.5-1.0938 0.27854-0.13961 0.57347-0.24695 0.875-0.34375-0.2562 0.10022-0.48671 0.23627-0.71875 0.375-0.00741 0.0044-0.023866-0.0045-0.03125 0-0.031933 0.0193-0.062293 0.04251-0.09375 0.0625-0.1204 0.0767-0.23102 0.16351-0.34375 0.25-0.10617 0.0808-0.21328 0.16111-0.3125 0.25-0.17793 0.16143-0.34746 0.34539-0.5 0.53125-0.10758 0.13026-0.21839 0.26528-0.3125 0.40625-0.025089 0.03838-0.038446 0.08587-0.0625 0.125-0.064763 0.10303-0.13023 0.20452-0.1875 0.3125-0.10101 0.19471-0.20567 0.4157-0.28125 0.625-0.00796 0.02181-0.023589 0.04055-0.03125 0.0625-0.031825 0.09195-0.035804 0.18683-0.0625 0.28125-0.030332 0.10662-0.070389 0.20303-0.09375 0.3125-0.072879 0.34151-0.125 0.6982-0.125 1.0625v2 68 2c0 2.7818 2.2182 5 5 5h2 68 2c2.7818 0 5-2.2182 5-5v-2-68-2c0-0.3643-0.05212-0.72099-0.125-1.0625-0.04415-0.20689-0.08838-0.39766-0.15625-0.59375-0.0077-0.02195-0.0233-0.04069-0.03125-0.0625-0.06274-0.17374-0.13838-0.36745-0.21875-0.53125-0.04158-0.0828-0.07904-0.16995-0.125-0.25-0.0546-0.09721-0.12677-0.18835-0.1875-0.28125-0.09411-0.14096-0.20492-0.276-0.3125-0.40625-0.14317-0.17445-0.30314-0.347-0.46875-0.5-0.01117-0.0102-0.01998-0.02115-0.03125-0.03125-0.13839-0.12556-0.28509-0.23444-0.4375-0.34375-0.10257-0.07315-0.20432-0.15336-0.3125-0.21875-0.0074-0.0045-0.02384 0.0044-0.03125 0-0.23204-0.13873-0.46255-0.27478-0.71875-0.375 0.30153 0.0968 0.59646 0.20414 0.875 0.34375 0.55709 0.27922 1.0601 0.66569 1.5 1.0938 0.21997 0.21403 0.40937 0.44186 0.59375 0.6875s0.35541 0.50774 0.5 0.78125c0.14012 0.26505 0.27614 0.52473 0.375 0.8125 0.01041 0.03078 0.02133 0.06274 0.03125 0.09375 0.09046 0.27808 0.1388 0.5794 0.1875 0.875 0.0524 0.31805 0.09375 0.63403 0.09375 0.96875v2 68 2c0 3.324-2.676 6-6 6h-72z" fill="url(#radialGradient3619)" opacity=".2"/>
 </g>
 <g id="layer1" transform="translate(0,74)">
  <path id="path3998" d="m59.799 5.9975c-5.6742 0.00414-10.933-4.8041-11.004-10.572-0.09199-3.2975-0.97518-6.9065-3.9022-8.8278-4.3334-3.4958-10.263-0.0088-14.861-2.7631-4.979-2.4798-7.4803-8.941-5.1735-14.067 1.8425-4.4883 6.7635-7.39 11.599-6.7638 3.4269 0.42004 7.3043 0.03167 9.719-2.7209 3.8485-3.6863 1.3394-9.8242 4.7335-13.764 3.6948-5.0986 11.701-6.0549 16.442-1.8782 4.8364 3.7818 5.2855 11.683 0.882 15.968-2.6108 2.8999-6.679 3.8427-10.443 3.3387-3.8204-0.57007-8.007 0.97743-9.9229 4.458-1.8073 3.7652-1.792 8.6659 0.64145 12.155 2.1132 2.8675 5.8447 3.9606 9.2814 3.491 3.7645-0.50404 7.8327 0.4388 10.443 3.3386 4.2859 4.182 3.9981 11.823-0.56359 15.691-2.1225 1.9358-5.0035 2.9849-7.8712 2.9148z" color="#000000" fill="none" filter="url(#filter4005)" opacity=".2" stroke="#fff" stroke-width="4"/>
  <path id="path3984-0-3-4-7" d="m59.799 5.9975c-2.5231-0.0537-5.0478-0.93101-7.1082-2.6722-6.6261-5.5995-1.4795-11.417-7.2578-16.3-5.7782-4.8829-10.898 0.95338-17.524-4.6461v-0.0086c-1.4717-1.2437-2.5337-2.7837-3.1758-4.4478-0.0043-0.01085-0.0046-0.02353-0.0088-0.03449-0.12932-0.33843-0.23983-0.67816-0.3343-1.0258-0.04193-0.15433-0.08812-0.30972-0.12317-0.46547-0.0039-0.01702-0.0051-0.03467-0.0088-0.05173-0.07224-0.32849-0.12568-0.65826-0.16715-0.99128-3.64e-4 -0.0028 3.38e-4 -0.0057 0-0.0086-0.0022-0.01735-0.0067-0.03437-0.0088-0.05172-0.01845-0.15512-0.03226-0.30975-0.04399-0.46547-9e-3 -0.11708-0.02122-0.23621-0.02639-0.35341-0.0025-0.05966-0.0072-0.12131-0.0088-0.18102-5.65e-4 -0.01988 4.49e-4 -0.04044 0-0.06034-0.0032-0.15624-0.0033-0.30915 0-0.46547 0.0015-0.07997 0.0054-0.16146 0.0088-0.24136 0.0053-0.1172 0.01741-0.23633 0.02639-0.35341 0.01336-0.17342 0.0311-0.34431 0.0528-0.51719 3.39e-4 -0.0028-3.65e-4 -0.0057 0-0.0086 0.04146-0.33303 0.09492-0.66279 0.16715-0.99128 0.0038-0.01718 5e-3 -0.03456 0.0088-0.05171 0.03556-0.15669 0.08051-0.31001 0.12317-0.46547 0.09447-0.3476 0.20497-0.68733 0.3343-1.0258 0.0043-0.01099 0.0046-0.02341 0.0088-0.03449 0.64217-1.6642 1.7041-3.2042 3.1758-4.4478v-0.0086c6.6261-5.5995 11.746 0.23683 17.524-4.6461 5.7782-4.8829 0.63163-10.701 7.2578-16.3 4.7095-3.9799 11.817-3.4595 15.879 1.155 4.0617 4.6145 3.5394 11.579-1.17 15.559-6.6261 5.5995-11.746-0.24545-17.524 4.6375-2.9189 2.4667-3.0468 5.1782-3.3166 7.9734 0.26978 2.7952 0.39765 5.5067 3.3166 7.9734 5.7782 4.8829 10.898-0.962 17.524 4.6375 4.7094 3.9797 5.2317 10.944 1.17 15.559-2.2847 2.5956-5.5269 3.8963-8.7709 3.8272z" color="#000000" fill="url(#linearGradient3124)" fill-rule="evenodd"/>
  <path id="path3969" transform="translate(0,-74)" d="m59.781 16c-2.5226 0.052457-5.0334 0.94631-7.0938 2.6875-6.6261 5.5995-1.4718 11.398-7.25 16.281-5.7782 4.8829-10.905-0.94323-17.531 4.6562-1.4717 1.2437-2.5453 2.8046-3.1875 4.4688-0.0042 0.01108 0.0043 0.02026 0 0.03125-0.12932 0.33843-0.24928 0.6524-0.34375 1-0.042662 0.15546-0.05819 0.31206-0.09375 0.46875-0.0038 0.01715-0.02745 0.04532-0.03125 0.0625-0.072229 0.32849-0.11479 0.66697-0.15625 1-0.0217 0.17288-0.04914 0.35783-0.0625 0.53125-0.00898 0.11708-0.02595 0.22655-0.03125 0.34375-0.0034 0.079899 0.0015 0.17003 0 0.25-0.0033 0.15632-0.0032 0.28126 0 0.4375 4.49e-4 0.0199-5.65e-4 0.04262 0 0.0625 0.0016 0.059709-0.0025 0.12784 0 0.1875 0.00517 0.11721 0.02225 0.25792 0.03125 0.375 0.01173 0.15572 0.04405 0.28238 0.0625 0.4375 0.0021 0.01735-0.0022 0.04515 0 0.0625 0.041471 0.33303 0.08401 0.67151 0.15625 1 0.0037 0.01706 0.02735 0.04548 0.03125 0.0625 0.035052 0.15575 0.05182 0.31442 0.09375 0.46875 0.094467 0.3476 0.21443 0.66157 0.34375 1 0.0042 0.01096-0.0043 0.05165 0 0.0625 0.64217 1.6642 1.7158 3.1938 3.1875 4.4375 6.6261 5.5995 11.753-0.22668 17.531 4.6562 5.7782 4.8829 0.62386 10.682 7.25 16.281 2.0604 1.7411 4.6019 2.6338 7.125 2.6875 3.244 0.069044 6.4653-1.2481 8.75-3.8438 4.0617-4.6145 3.5532-11.552-1.1562-15.531-6.6261-5.5995-11.753 0.22668-17.531-4.6562-2.9189-2.4667-3.0427-5.1736-3.3125-7.9688 0.26978-2.7952 0.39357-5.5021 3.3125-7.9688 5.7782-4.8829 10.905 0.94322 17.531-4.6562 4.7094-3.9798 5.2179-10.917 1.1562-15.531-2.2847-2.5956-5.5379-3.9112-8.7812-3.8438zm0.0625 2c0.29626-0.006349 0.57904 0.009681 0.875 0.03125 2.3669 0.1725 4.6686 1.2532 6.3438 3.1562 3.3455 3.8008 2.9144 9.3748-0.96875 12.656-2.8546 2.4123-4.8688 2.2689-7.6562 2.125s-6.4602-0.35446-9.875 2.5312c-3.4521 2.9172-3.7365 6.5824-4 9.3125a2.0134 2.0134 0 0 0 0 0.375c0.2635 2.7301 0.54791 6.3953 4 9.3125 3.4148 2.8857 7.0876 2.6752 9.875 2.5312s4.8016-0.28734 7.6562 2.125c3.8831 3.2814 4.3142 8.8555 0.96875 12.656-1.8878 2.1447-4.5476 3.2444-7.2188 3.1875-2.0774-0.044213-4.1476-0.78544-5.8438-2.2188-2.8548-2.4125-2.9925-4.3493-3.25-7.0625s-0.5854-6.3332-4-9.2188c-3.4148-2.8857-7.0876-2.6752-9.875-2.5312s-4.8016 0.28734-7.6562-2.125c-1.1994-1.0136-2.071-2.2395-2.5938-3.5625-0.007755-0.025509-0.026668-0.047778-0.03125-0.0625a2.0134 2.0134 0 0 0 0-0.03125c-0.001109-0.00353 2.2e-5 -0.031192 0-0.03125-0.1293-0.33838-0.21944-0.58507-0.28125-0.8125 0.014009 0.05156 0.006666-0.067675-0.0625-0.375-0.015035-0.065616-0.017168-0.010158-0.03125-0.0625-0.00663-0.03057 0.006434-0.003745 0-0.03125-0.04329-0.20439-0.085271-0.46221-0.125-0.78125-0.003099-0.037416 0.006026-0.012711 0-0.0625-0.035836-0.30129-0.065434-0.3827-0.0625-0.34375-0.014471-0.18824-0.031556-0.31944-0.03125-0.3125 0.004039 0.096389 0.005165 0.036511 0-0.15625 0.002616 0.092033 0.00277 0.091532 0-0.03125-0.002768-0.13513-0.002804-0.24216 0-0.375 0.003574-0.19052 0.002827-0.25394 0-0.1875-9.05e-4 0.020018 0.014798-0.066744 0.03125-0.28125 0.005564-0.072228 0.036778-0.23258 0.0625-0.4375 0.039703-0.31891 0.081691-0.57674 0.125-0.78125 0.001691-0.007984-0.001712-0.023465 0-0.03125 0.013954-0.053145 0.016523 0.003964 0.03125-0.0625 0.071637-0.31566 0.078152-0.43204 0.0625-0.375 0.061819-0.22746 0.15196-0.47415 0.28125-0.8125 0.006322-0.016158-0.005793-0.01517 0-0.03125 0.52306-1.3555 1.4189-2.637 2.625-3.6562 2.8546-2.4123 4.8688-2.2689 7.6562-2.125s6.4602 0.35447 9.875-2.5312c3.4146-2.8855 3.7425-6.5055 4-9.2188s0.39518-4.65 3.25-7.0625c1.6993-1.436 3.7699-2.1743 5.8438-2.2188z" color="#000000" fill-rule="evenodd" opacity=".1"/>
  <path id="path3965" d="m59.781-58c-5.6629 0.01345-10.914 4.8205-10.986 10.578-0.0889 3.2946-0.97401 6.8987-3.8979 8.8175-4.335 3.4963-10.268 0.0172-14.868 2.7729-4.8683 2.422-7.382 8.6422-5.3107 13.706 1.6815 4.6825 6.7943 7.7613 11.739 7.1225 3.4287-0.41625 7.3068-0.02666 9.7228 2.7263 3.8464 3.6804 1.3342 9.8119 4.726 13.746 3.6549 5.0219 11.523 6.0862 16.278 2.0113 4.7739-3.6168 5.5272-11.25 1.4351-15.663-2.4831-2.991-6.4966-4.2744-10.297-3.7898-3.3839 0.44588-7.1418-0.25515-9.417-2.9954-2.782-3.307-2.837-8.264-1.2904-12.133 1.6839-3.5773 5.8-5.4818 9.6497-4.9814 3.7318 0.46563 7.8352-0.1245 10.57-2.9248 4.5671-4.0052 4.5804-11.801 0.05976-15.846-2.146-2.0727-5.1343-3.2193-8.114-3.1476zm0.03125 1.0938c5.851-0.30221 11.19 5.2802 10.315 11.139-0.5693 5.3184-5.9329 9.46-11.23 8.668-3.7364-0.44126-7.9457 0.08687-10.568 3.0631-3.3041 3.6062-3.5027 9.2729-1.6814 13.624 1.8244 3.981 6.3964 6.1031 10.655 5.589 3.2694-0.37459 6.8866-0.1055 9.3843 2.2913 4.3741 3.43 4.6754 10.589 0.63448 14.395-3.8992 4.2152-11.209 3.9397-14.937-0.35472-3.8775-3.6721-1.3751-9.8054-4.7305-13.763-2.4222-3.3411-6.7921-4.3925-10.717-3.8715-3.9912 0.61698-8.1834-1.1638-10.319-4.6293-2.865-4.3046-1.492-10.627 2.852-13.436 3.2579-2.6597 7.561-1.3509 11.356-1.6977 4.733-0.41256 8.6266-4.6217 8.853-9.3435 0.18798-3.2509 0.66311-6.8661 3.448-8.9956 1.8147-1.6533 4.2278-2.6338 6.685-2.6793z" color="#000000" fill-rule="evenodd" opacity=".2"/>
  <path id="path3980" transform="translate(0,-74)" d="m59.781 16c-2.5226 0.052457-5.0334 0.94631-7.0938 2.6875-6.6261 5.5995-1.4718 11.398-7.25 16.281-5.7782 4.8829-10.905-0.94323-17.531 4.6562-1.4717 1.2437-2.5453 2.8046-3.1875 4.4688-0.0042 0.01108 0.0043 0.02026 0 0.03125-0.12932 0.33843-0.24928 0.6524-0.34375 1-0.042662 0.15546-0.05819 0.31206-0.09375 0.46875-0.0038 0.01715-0.02745 0.04532-0.03125 0.0625-0.072229 0.32849-0.11479 0.66697-0.15625 1-0.0217 0.17288-0.04914 0.35783-0.0625 0.53125-0.00898 0.11708-0.02595 0.22655-0.03125 0.34375-0.0034 0.079899 0.0015 0.17003 0 0.25-0.0033 0.15632-0.0032 0.28126 0 0.4375 4.49e-4 0.0199-5.65e-4 0.04262 0 0.0625 0.0016 0.059709-0.0025 0.12784 0 0.1875 0.006092-0.096531 0.023889-0.18528 0.03125-0.28125 0.01336-0.17342 0.0408-0.35837 0.0625-0.53125 0.04146-0.33303 0.084021-0.67151 0.15625-1 0.0038-0.01718 0.02745-0.04535 0.03125-0.0625 0.03556-0.15669 0.051088-0.31329 0.09375-0.46875 0.09447-0.3476 0.21443-0.66157 0.34375-1 0.0043-0.01099-0.0042-0.02017 0-0.03125 0.64217-1.6642 1.7158-3.2251 3.1875-4.4688 6.6261-5.5995 11.753 0.22668 17.531-4.6562 5.7782-4.8829 0.62386-10.682 7.25-16.281 4.7095-3.9799 11.813-3.4582 15.875 1.1562 1.7171 1.9507 2.6102 4.2998 2.7188 6.6875 0.12612-2.7168-0.7625-5.465-2.7188-7.6875-2.2847-2.5956-5.5379-3.9112-8.7812-3.8438zm-13.156 32.5c-0.015993 0.16909-0.046117 0.33026-0.0625 0.5 0.26978 2.7952 0.39357 5.5021 3.3125 7.9688 5.7782 4.8829 10.905-0.94322 17.531 4.6562 2.4412 2.0629 3.7393 4.9198 3.875 7.8438 0.14829-3.2603-1.1565-6.5465-3.875-8.8438-6.6261-5.5995-11.753 0.22668-17.531-4.6562-2.7443-2.3191-3.0025-4.8508-3.25-7.4688z" color="#000000" fill-rule="evenodd" opacity=".3"/>
  <path id="path3989" transform="translate(0,-74)" d="m71.281 27.531c-0.13574 2.924-1.4338 5.7808-3.875 7.8438-6.6261 5.5995-11.753-0.22667-17.531 4.6562-2.9189 2.4667-3.0427 5.1736-3.3125 7.9688 0.01614 0.16723 0.046747 0.3334 0.0625 0.5 0.24737-2.6153 0.50833-5.1519 3.25-7.4688 5.7782-4.8829 10.905 0.94322 17.531-4.6562 2.7185-2.2973 4.0233-5.5834 3.875-8.8438zm-47.281 21c-0.0034 0.079899 0.0015 0.17003 0 0.25-0.0033 0.15632-0.0032 0.28126 0 0.4375 4.49e-4 0.0199-5.65e-4 0.04262 0 0.0625 0.0016 0.059709-0.0025 0.12784 0 0.1875 0.00517 0.11721 0.02225 0.25792 0.03125 0.375 0.01173 0.15572 0.04405 0.28238 0.0625 0.4375 0.0021 0.01735-0.0022 0.04515 0 0.0625 0.041471 0.33303 0.08401 0.67151 0.15625 1 0.0037 0.01706 0.02735 0.04548 0.03125 0.0625 0.035052 0.15575 0.05182 0.31442 0.09375 0.46875 0.094467 0.3476 0.21443 0.66157 0.34375 1 0.0042 0.01096-0.0043 0.05165 0 0.0625 0.64217 1.6642 1.7158 3.1938 3.1875 4.4375 6.6261 5.5995 11.753-0.22668 17.531 4.6562 5.7782 4.8829 0.62386 10.682 7.25 16.281 2.0604 1.7411 4.6019 2.6338 7.125 2.6875 3.244 0.069044 6.4653-1.2481 8.75-3.8438 1.9562-2.2225 2.8449-4.9708 2.7188-7.6875-0.1086 2.3877-1.0017 4.7368-2.7188 6.6875-2.2847 2.5956-5.506 3.9128-8.75 3.8438-2.5231-0.0537-5.0646-0.94636-7.125-2.6875-6.6261-5.5995-1.4718-11.398-7.25-16.281-5.7782-4.8829-10.905 0.94323-17.531-4.6562-1.4717-1.2437-2.5453-2.7733-3.1875-4.4375-0.0043-0.01085 0.0042-0.05154 0-0.0625-0.12932-0.33843-0.24928-0.6524-0.34375-1-0.04193-0.15433-0.058698-0.313-0.09375-0.46875-0.0039-0.01702-0.02755-0.04544-0.03125-0.0625-0.07224-0.32849-0.11478-0.66697-0.15625-1-0.0022-0.01735 0.0021-0.04515 0-0.0625-0.01845-0.15512-0.05077-0.28178-0.0625-0.4375-0.00751-0.0977-0.025223-0.21425-0.03125-0.3125z" color="#000000" fill="#fff" fill-rule="evenodd" opacity=".5"/>
 </g>
</svg>
