<?xml version="1.0" encoding="UTF-8"?>
<svg width="16" height="16" version="1.1" xmlns="http://www.w3.org/2000/svg">
 <path d="m9.79 1c-0.658 1.45-1.16 2.94-1.49 4.44-0.172 0.137-0.346 0.264-0.525 0.394-2.04 1.48-4.49 2.44-6.78 2.38v1.09c2.03 0.192 3.38 0.535 4.3 1.76 0.91 1.21 1.42 2.41 1.42 3.93h0.7c0-1.52-0.659-3.32-1.55-4.34-0.88-1.01-1.99-1.48-3.49-1.82 2-0.268 4-1.16 5.71-2.38-0.494 2.87-0.414 5.78 0.197 8.55h4.83c-2.42-2.19-3.46-6.12-3.46-9.82 1.36-1.27 2.42-2.72 2.98-4.18h-0.744c-0.461 1.07-1.23 2.16-2.21 3.17 0.0594-1.12 0.238-2.19 0.481-3.17z" fill="#bebebe"/>
</svg>
