<?xml version="1.0" encoding="UTF-8"?>
<svg width="16" height="16" version="1.1" xmlns="http://www.w3.org/2000/svg">
 <path d="m5.66 1c-1.58-0.066-2.94 1-4.66 1v13h14v-13c-1.72 0-3.08-1.06-4.66-1-0.72 0.03-1.48 0.3-2.34 1-0.858-0.7-1.62-0.967-2.34-1zm-0.06 1.5c0.387 0.02 0.769 0.121 1.4 0.62v6.83c-1.08-0.386-2.13-0.463-2.96-0.25-0.674 0.172-1.04 0.25-1.54 0.41v-6.93c0.45-0.116 1.01-0.168 1.37-0.29 0.751-0.255 1.29-0.409 1.73-0.39zm4.8 0c0.44-0.02 0.98 0.135 1.73 0.39 0.36 0.122 0.92 0.174 1.37 0.29v6.93c-0.5-0.16-0.86-0.238-1.54-0.41-0.83-0.213-1.88-0.136-2.96 0.25v-6.83c0.629-0.5 1.01-0.604 1.4-0.62zm-4.73 8.5c0.718 0 1.47 0.3 2.33 1 2.17-1.76 3.72-0.76 5.5-0.25v1.25h-11v-1.25c1.08-0.3 2.08-0.8 3.17-0.75z" fill="#bebebe"/>
</svg>
