<?xml version="1.0" encoding="UTF-8"?>
<svg width="16" height="16" version="1.1" xmlns="http://www.w3.org/2000/svg">
 <path d="m2 1c-0.554 0-1 0.446-1 1v12c0 0.55 0.446 1 1 1h12c0.55 0 1-0.45 1-1v-12c0-0.554-0.45-1-1-1zm1.5 1h9c0.28 0 0.5 0.223 0.5 0.5v2c0 0.277-0.22 0.5-0.5 0.5h-9c-0.277 0-0.5-0.223-0.5-0.5v-2c0-0.277 0.223-0.5 0.5-0.5zm0 4h1c0.277 0 0.5 0.223 0.5 0.5v1c0 0.277-0.223 0.5-0.5 0.5h-1c-0.277 0-0.5-0.223-0.5-0.5v-1c0-0.277 0.223-0.5 0.5-0.5zm4 0h1c0.277 0 0.5 0.223 0.5 0.5v1c0 0.277-0.223 0.5-0.5 0.5h-1c-0.277 0-0.5-0.223-0.5-0.5v-1c0-0.277 0.223-0.5 0.5-0.5zm4 0h1c0.28 0 0.5 0.223 0.5 0.5v1c0 0.277-0.22 0.5-0.5 0.5h-1c-0.28 0-0.5-0.223-0.5-0.5v-1c0-0.277 0.22-0.5 0.5-0.5zm-8 3h1c0.277 0 0.5 0.223 0.5 0.5v1c0 0.28-0.223 0.5-0.5 0.5h-1c-0.277 0-0.5-0.22-0.5-0.5v-1c0-0.277 0.223-0.5 0.5-0.5zm4 0h1c0.277 0 0.5 0.223 0.5 0.5v1c0 0.28-0.223 0.5-0.5 0.5h-1c-0.277 0-0.5-0.22-0.5-0.5v-1c0-0.277 0.223-0.5 0.5-0.5zm4 0h1c0.28 0 0.5 0.223 0.5 0.5v4c0 0.28-0.22 0.5-0.5 0.5h-1c-0.28 0-0.5-0.22-0.5-0.5v-4c0-0.281 0.25-0.464 0.5-0.5zm-8 3h1c0.277 0 0.5 0.22 0.5 0.5v1c0 0.28-0.223 0.5-0.5 0.5h-1c-0.277 0-0.5-0.22-0.5-0.5v-1c0-0.28 0.223-0.5 0.5-0.5zm4 0h1c0.277 0 0.5 0.22 0.5 0.5v1c0 0.28-0.223 0.5-0.5 0.5h-1c-0.277 0-0.5-0.22-0.5-0.5v-1c0-0.28 0.223-0.5 0.5-0.5z" fill="#bebebe"/>
</svg>
