<?xml version="1.0" encoding="UTF-8"?>
<svg width="16" height="16" version="1.1" xmlns="http://www.w3.org/2000/svg">
 <path d="m8 1a7 7 0 0 0-7 7 7 7 0 0 0 7 7 7 7 0 0 0 7-7 7 7 0 0 0-7-7zm0 1.03a5.97 5.97 0 0 1 5.97 5.97 5.97 5.97 0 0 1-4.69 5.82c0.1-0.165-0.109-0.404-0.0977-0.582 0.0143-0.23 0.0279-0.533 0.0566-0.791 0.0287-0.258 0.129-2.43 0.502-3 0.373-0.574 1.44-1.26 1.81-1.33 0.373-0.0718 0.301-0.217 0.301-0.346s-0.0557-0.418-0.156-0.461c-0.1-0.0431-0.492 0.217-0.621 0.246-0.129 0.0287-0.748 0.0713-0.834-0.0723-0.0861-0.144 0.696-1.61 0.797-1.78 0.101-0.172 0.144-0.4-0.043-0.645-0.187-0.244-0.315-0.488-0.387-0.488-0.237 0-0.697 0.545-0.869 0.631-0.172 0.0861-1.54 1.06-1.67 1.23-0.129 0.172-0.302 0.245-0.488 0.23-0.187-0.0143-0.778-0.0192-0.979 0.0957-0.201 0.115-1.12 1.05-1.35 1.17-0.23 0.115-0.53 0.173-0.674 0.188-0.144 0.0143-0.619 0.544-0.748 0.645s-1.15 0.543-1.29 0.629c-0.144 0.0861 1.05 1.29 1.22 1.32 0.172 0.0288-0.164 0.515-0.451 0.682-0.0583 0.0338-0.0952 0.0768-0.121 0.125a5.97 5.97 0 0 1-1.16-3.52 5.97 5.97 0 0 1 5.97-5.97zm-0.586 5.24c0.183-0.0191 0.328 0.00195 0.328 0.00195 0.0657 0.153-0.243 0.636-0.527 0.701-0.284 0.0656-0.941 1.03-0.963 0.809-0.0219-0.219 0.264-0.939 0.592-1.27 0.164-0.164 0.387-0.225 0.57-0.244z" fill="#bebebe"/>
</svg>
