<?xml version="1.0" encoding="UTF-8"?>
<svg width="16" height="16" version="1.1" xmlns="http://www.w3.org/2000/svg">
 <path d="m8.02 2c-1.52 0-3.22 0.56-3.58 2.41-0.0376 0.197 0.106 0.299 0.238 0.328l1.55 0.164c0.145-0.0074 0.251-0.147 0.279-0.289 0.133-0.638 0.677-0.943 1.29-0.943 0.329 0 0.704 0.118 0.898 0.408 0.224 0.323 0.193 0.767 0.193 1.14v0.207c-0.928 0.102-2.14 0.168-3.01 0.543-1 0.427-1.71 1.3-1.71 2.57 0 1.64 1.05 2.46 2.4 2.46 1.14 0 1.76-0.264 2.64-1.14 0.291 0.415 0.386 0.614 0.918 1.05 0.119 0.0626 0.271 0.0574 0.377-0.0371l0.00391 0.00391c0.32-0.28 0.901-0.775 1.23-1.04 0.131-0.105 0.106-0.277 0.00391-0.42-0.292-0.397-0.604-0.72-0.604-1.46v-2.45c0-1.04 0.0757-1.99-0.703-2.71-0.613-0.58-1.63-0.785-2.41-0.785zm0.869 4.69v0.34c0 0.614 0.0155 1.13-0.299 1.67-0.254 0.444-0.66 0.717-1.11 0.717-0.613 0-0.973-0.461-0.973-1.14 0-1.34 1.22-1.59 2.38-1.59zm5.08 4.16c-0.49 0.00669-1.07 0.116-1.51 0.424-0.135 0.0954-0.113 0.226 0.0371 0.209 0.494-0.0596 1.59-0.192 1.79 0.0586 0.196 0.251-0.218 1.29-0.402 1.75-0.0559 0.14 0.065 0.196 0.191 0.0898 0.822-0.687 1.04-2.13 0.867-2.34-0.0836-0.103-0.487-0.198-0.977-0.191zm-12.9 0.275c-0.102 0.0134-0.147 0.139-0.0391 0.236 1.83 1.65 4.24 2.64 6.92 2.64 1.91 0 4.14-0.602 5.67-1.73 0.254-0.187 0.0365-0.467-0.223-0.357-1.72 0.729-3.59 1.08-5.29 1.08-2.52 0-4.96-0.69-6.93-1.84-0.043-0.0252-0.0832-0.0338-0.117-0.0293z" fill="#bebebe"/>
</svg>
