<?xml version="1.0" encoding="UTF-8"?>
<svg width="16" height="16" version="1.1" xmlns="http://www.w3.org/2000/svg">
 <path d="m9.99 1c-0.571 0.019-1.07 0.23-1.3 0.598-0.295 0.466-0.0695 1.04 0.5 1.44l-0.98 1.04c-0.359-0.216-0.75-0.399-1.18-0.539-0.902-0.297-1.82-0.364-2.66-0.234l-0.365-0.674c0.223-0.0628 0.409-0.181 0.512-0.344 0.246-0.389-0.0547-0.894-0.672-1.13-0.617-0.237-1.32-0.118-1.56 0.271-0.246 0.389 0.0547 0.898 0.672 1.13 0.204 0.0784 0.42 0.118 0.623 0.121l0.375 0.699c-1.3 0.314-2.35 1.13-2.77 2.29-0.718 2.01 0.734 4.3 3.24 5.13 1.75 0.576 3.55 0.288 4.72-0.619l1.04 0.975c-0.125 0.127-0.234 0.267-0.316 0.428-0.543 1.06 0.121 2.44 1.48 3.09 1.36 0.645 2.91 0.31 3.46-0.75s-0.121-2.44-1.48-3.09c-0.999-0.473-2.1-0.418-2.83 0.0625l-1.04-0.979c0.362-0.35 0.642-0.768 0.814-1.25 0.556-1.55-0.191-3.28-1.72-4.37l0.998-1.05c0.0493 0.0226 0.1 0.0424 0.152 0.0625 0.934 0.358 1.99 0.175 2.37-0.414 0.372-0.589-0.082-1.36-1.02-1.72-0.35-0.134-0.72-0.191-1.06-0.18zm-4.65 3.69c0.275-0.00719 0.551-0.00183 0.828 0.0156 0.753 0.0475 1.3 0.189 1.62 0.436 0.343 0.261 0.475 0.679 0.375 1.28l-0.441 2.64-1.88-0.418 0.203-0.705c-0.306 0.235-0.62 0.39-0.938 0.463-0.314 0.0697-0.659 0.0625-1.03-0.0215-0.478-0.109-0.793-0.325-0.951-0.637-0.146-0.296-0.124-0.621 0.0547-0.971 0.206-0.404 0.501-0.666 0.896-0.803 0.398-0.137 0.947-0.168 1.68-0.0859l0.852 0.0957 0.0234-0.0859c0.0493-0.172-0.00602-0.302-0.162-0.395-0.152-0.0918-0.407-0.154-0.762-0.186-0.28-0.0248-0.542-0.0274-0.791-0.00781-0.246 0.0194-0.483 0.061-0.711 0.123l0.33-0.682c0.269-0.0274 0.537-0.0433 0.807-0.0488zm-0.123 1.84c-0.12 0.00475-0.224 0.0224-0.314 0.0527-0.178 0.0611-0.299 0.173-0.367 0.338-0.0636 0.155-0.0554 0.289 0.0273 0.402 0.0883 0.114 0.244 0.194 0.471 0.236 0.289 0.0535 0.567 0.00747 0.828-0.139 0.26-0.148 0.427-0.354 0.502-0.613l0.041-0.143-0.783-0.109c-0.151-0.0211-0.285-0.0301-0.404-0.0254z" fill="#bebebe"/>
</svg>
