<?xml version="1.0" encoding="UTF-8"?>
<svg width="16" height="16" version="1.1" xmlns="http://www.w3.org/2000/svg">
 <path d="m4.15 5.08c-0.112 0.09-0.112 0.248-0.02 0.42l0.937 1.69c-1.82 0.95-3.06 2.75-3.06 4.81h12c0-2.07-1.24-3.86-3.06-4.81l0.94-1.69c0-0.11 0.1-0.221-0.1-0.339-0.14-0.08-0.28 0.02-0.35 0.144l-1 1.69c-0.783-0.348-1.63-0.563-2.56-0.563s-1.58 0.152-2.36 0.5l-0.958-1.7c-0.127-0.197-0.313-0.216-0.417-0.15zm1.35 3.67c0.414 0 0.75 0.336 0.75 0.75s-0.336 0.748-0.75 0.748-0.75-0.334-0.75-0.748 0.336-0.75 0.75-0.75zm5 0c0.41 0 0.75 0.336 0.75 0.75s-0.34 0.748-0.75 0.748-0.75-0.334-0.75-0.748 0.34-0.75 0.75-0.75zm-8.5 4.25v2h12v-2z" fill="#bebebe"/>
</svg>
