<?xml version="1.0" encoding="UTF-8"?>
<svg width="16" height="16" version="1.1" xmlns="http://www.w3.org/2000/svg">
 <path d="m2.5 1c-0.831 0-1.5 0.669-1.5 1.5v11c0 0.831 0.669 1.5 1.5 1.5h11c0.831 0 1.5-0.669 1.5-1.5v-11c0-0.831-0.669-1.5-1.5-1.5h-11zm1 2h9c0.277 0 0.5 0.223 0.5 0.5v9c0 0.277-0.223 0.5-0.5 0.5h-9c-0.277 0-0.5-0.223-0.5-0.5v-9c0-0.277 0.223-0.5 0.5-0.5zm7 2c-0.292 0-0.556 0.0406-0.586 0.0898-0.0296 0.0493-0.179 0.878-0.332 1.84-0.293 1.84-0.354 2.17-0.4 2.12-0.0157-0.0172-0.187-0.899-0.381-1.96l-0.354-1.93h-0.516c-0.283 0-0.532 0.0276-0.553 0.0625-0.0204 0.035-0.192 0.865-0.383 1.84-0.191 0.978-0.373 1.81-0.404 1.84s-0.158-0.632-0.283-1.48c-0.125-0.85-0.248-1.67-0.273-1.82-0.0458-0.275-0.0463-0.275-0.539-0.275h-0.494l0.0547 0.318c0.0299 0.175 0.218 1.19 0.418 2.27 0.2 1.07 0.387 2.11 0.416 2.3s0.0763 0.386 0.105 0.434c0.0292 0.0474 0.28 0.114 0.559 0.146l0.506 0.0605 0.127-0.58c0.0691-0.318 0.227-1.11 0.35-1.76 0.123-0.652 0.248-1.22 0.279-1.25s0.218 0.771 0.414 1.79c0.349 1.82 0.361 1.86 0.568 1.9 0.391 0.0625 0.996 0.0602 0.996-0.00391 6e-4 -0.0541 1.07-5.21 1.19-5.76 0.0414-0.183 0.021-0.191-0.488-0.191z" fill="#bebebe"/>
</svg>
