<?xml version="1.0" encoding="UTF-8"?>
<svg width="16" height="16" version="1.1" xmlns="http://www.w3.org/2000/svg">
 <path d="m2.5 1c-0.831 0-1.5 0.669-1.5 1.5v11c0 0.831 0.669 1.5 1.5 1.5h4.83c-0.0968-0.0488-0.194-0.0983-0.273-0.178l-0.883-0.883c-0.247-0.247-0.326-0.594-0.297-0.939h-2.38c-0.277 0-0.5-0.223-0.5-0.5v-9c0-0.277 0.223-0.5 0.5-0.5h9c0.277 0 0.5 0.223 0.5 0.5v2.38c0.346-0.029 0.693 0.05 0.939 0.297l0.883 0.883c0.0643 0.0643 0.12 0.162 0.178 0.252v-4.81c0-0.831-0.669-1.5-1.5-1.5h-11zm7.38 5c-0.177 0-0.32 0.142-0.32 0.322v0.643c-0.317 0.0844-0.608 0.2-0.885 0.361l-0.463-0.441c-0.127-0.127-0.316-0.125-0.441 0l-0.883 0.883c-0.125 0.125-0.127 0.316 0 0.443l0.441 0.461c-0.161 0.277-0.277 0.568-0.361 0.885h-0.643c-0.18 0-0.322 0.143-0.322 0.32v1.25c6.42e-5 0.177 0.142 0.322 0.322 0.322h0.643c0.0844 0.317 0.2 0.606 0.361 0.883l-0.441 0.463c-0.127 0.127-0.125 0.316 0 0.441l0.883 0.883c0.125 0.125 0.314 0.127 0.441 0l0.463-0.441c0.277 0.161 0.568 0.277 0.885 0.361v0.643c-2.6e-6 0.18 0.143 0.322 0.32 0.322h1.25c0.177 0 0.32-0.142 0.32-0.322v-0.643c0.317-0.0844 0.608-0.2 0.885-0.361l0.463 0.441c0.127 0.127 0.316 0.125 0.441 0l0.883-0.883c0.125-0.125 0.127-0.314 0-0.441l-0.441-0.463c0.161-0.277 0.277-0.568 0.361-0.885h0.643c0.18 0 0.322-0.143 0.322-0.32v-1.25c0-0.177-0.142-0.32-0.322-0.32h-0.643c-0.0844-0.317-0.2-0.608-0.361-0.885l0.441-0.463c0.0637-0.0637 0.101-0.138 0.102-0.221 7.07e-4 -0.0824-0.039-0.158-0.102-0.221l-0.883-0.883c-0.125-0.125-0.314-0.127-0.441 0l-0.463 0.441c-0.277-0.161-0.568-0.277-0.885-0.361v-0.643c0-0.18-0.143-0.322-0.32-0.322h-1.25zm0.623 2.57c1.07 0 1.93 0.863 1.93 1.93 0 1.07-0.863 1.93-1.93 1.93-1.07 0-1.93-0.865-1.93-1.93 0-1.07 0.863-1.93 1.93-1.93z" fill="#bebebe"/>
</svg>
