<?xml version="1.0" encoding="UTF-8"?>
<svg width="16" height="16" version="1.1" xmlns="http://www.w3.org/2000/svg">
 <path d="m6.63 1c-0.985 0-1.78 0.553-1.78 1.24 0.0287 0.255 0.19 0.576 0.275 0.686 0.412 0.549 0.412 0.892 0.309 1.1h-3.33c-0.608 0-1.1 0.49-1.1 1.1v2.78c0.206 0.103 0.549 0.103 1.1-0.309 0.11-0.0849 0.432-0.246 0.686-0.274 0.682 0 1.24 0.799 1.24 1.78 0 0.985-0.553 1.78-1.24 1.78-0.209-3e-3 -0.528-0.19-0.686-0.274-0.549-0.412-0.892-0.412-1.1-0.309v3.6c0 0.608 0.49 1.1 1.1 1.1h4.43c0.103-0.206 0.103-0.549-0.309-1.1-0.0849-0.11-0.246-0.432-0.275-0.686 0-0.682 0.799-1.24 1.78-1.24 0.985 0 1.78 0.553 1.78 1.24-0.00357 0.209-0.191 0.528-0.275 0.686-0.412 0.549-0.412 0.892-0.309 1.1h1.96c0.608 0 1.1-0.49 1.1-1.1v-3.05c0.206-0.103 0.549-0.103 1.1 0.309 0.159 0.0837 0.477 0.271 0.686 0.275 0.683 0 1.24-0.798 1.24-1.78 0-0.986-0.553-1.78-1.24-1.78-0.255 0.0287-0.576 0.19-0.687 0.275-0.549 0.412-0.892 0.412-1.1 0.309v-3.33c0-0.608-0.49-1.1-1.1-1.1h-3.05c-0.103-0.206-0.103-0.549 0.309-1.1 0.0837-0.159 0.271-0.477 0.274-0.686 0-0.682-0.799-1.24-1.78-1.24z" fill="#bebebe"/>
</svg>
