<?xml version="1.0" encoding="UTF-8"?>
<svg width="16" height="16" version="1.1" xmlns="http://www.w3.org/2000/svg">
 <path d="m4 4a3 4 0 0 0-3 4 3 4 0 0 0 3 4 3 4 0 0 0 2.6-2h2.81a3 4 0 0 0 2.59 2 3 4 0 0 0 3-4 3 4 0 0 0-3-4h-8zm6.49 1.5h4e-3c0.552 0.00216 0.998 0.449 0.998 1s-0.447 0.998-0.998 1h-4e-3c-0.552-0.00216-0.998-0.449-0.998-1 0-0.414 0.254-0.77 0.613-0.922 0.119-0.0497 0.248-0.0781 0.385-0.0781zm-6.5 0.5h1v1h1v1h-1v1h-1v-1h-1v-1h1zm8.5 1.5c0.552 0 1 0.448 1 1s-0.448 1-1 1-1-0.448-1-1 0.448-1 1-1z" fill="#bebebe"/>
</svg>
