<?xml version="1.0" encoding="UTF-8"?>
<svg width="16" height="16" version="1.1" xmlns="http://www.w3.org/2000/svg">
 <path d="m2.5 1c-0.831 0-1.5 0.669-1.5 1.5v11c0 0.831 0.669 1.5 1.5 1.5h11c0.831 0 1.5-0.669 1.5-1.5v-11c0-0.831-0.669-1.5-1.5-1.5h-11zm1 2h1.53c-0.0794 0.0853-0.152 0.167-0.242 0.258-0.522 0.526-1.13 0.902-1.78 1.13v-0.893c0-0.277 0.223-0.5 0.5-0.5zm4.26 0h4.74c0.277 0 0.5 0.223 0.5 0.5v0.68l-0.121-0.0371-0.387 0.471-0.166 0.387-0.0273 0.139-0.58-0.084v-0.139l-0.0547-0.414-0.25-0.553h-0.387l-0.221 0.553-0.082 0.414 0.0273 0.139-0.607 0.084-0.0273-0.139-0.166-0.387-0.387-0.471-0.359 0.111-0.084 0.58 0.0273 0.414 0.0566 0.139-0.553 0.248-0.0566-0.139-0.275-0.33-0.471-0.359-0.33 0.193 0.0547 0.607 0.166 0.359 0.082 0.139-0.496 0.359-0.084-0.111-0.332-0.221-0.553-0.25-0.275 0.277 0.221 0.58 0.221 0.305 0.139 0.109-0.387 0.471-0.111-0.084-0.387-0.137-0.607-0.084-0.193 0.359 0.359 0.471 0.332 0.248 0.137 0.082-0.248 0.553-0.139-0.0547-0.387-0.0273-0.607 0.082-0.111 0.359 0.498 0.387 0.359 0.166 0.139 0.0273-0.0566 0.582h-0.164l-0.389 0.0547-0.58 0.248v0.387l0.58 0.221 0.389 0.084 0.164-0.0273 0.0566 0.607-0.139 0.0273-0.359 0.166-0.498 0.359 0.0918 0.318h-0.904c-0.277 0-0.5-0.223-0.5-0.5v-5.34l0.0977 0.133 0.414-0.111 0.084-0.662-0.0293-0.441-0.0547-0.139 0.607-0.277 0.0566 0.166 0.275 0.332 0.525 0.387 0.387-0.193-0.082-0.664-0.166-0.414-0.111-0.137 0.525-0.389 0.111 0.111 0.357 0.248 0.609 0.25 0.303-0.305-0.248-0.58-0.248-0.387-0.139-0.084 0.414-0.523 0.139 0.082 0.414 0.166 0.637 0.082 0.221-0.387-0.336-0.424zm3.46 2.99c0.626 1e-7 1.23 0.129 1.78 0.338v0.158l-1.03 1.96c-0.24-0.0703-0.483-0.109-0.746-0.109-0.521 0-0.996 0.157-1.41 0.414l-1.63-1.74c0.846-0.638 1.9-1.02 3.04-1.02zm-3.79 1.71 1.6 1.74c-0.325 0.444-0.498 1.01-0.498 1.6 0 0.219 0.00543 0.433 0.0547 0.637l-2.15 0.994c-0.174-0.511-0.277-1.06-0.277-1.63 3e-7 -1.27 0.491-2.46 1.27-3.34zm5.56 1.01v0.352c-0.0421-0.0379-0.0767-0.0839-0.121-0.119l0.121-0.232zm-1.78 0.959c0.756 4.47e-4 1.37 0.613 1.37 1.37-4.47e-4 0.755-0.612 1.37-1.37 1.37-0.755-4.46e-4 -1.37-0.612-1.37-1.37-6.32e-4 -0.756 0.612-1.37 1.37-1.37zm-2.18 2.95c0.0984 0.137 0.215 0.258 0.336 0.373h-1.17l0.832-0.373z" fill="#bebebe"/>
</svg>
