<?xml version="1.0" encoding="UTF-8"?>
<svg width="16" height="16" version="1.1" xmlns="http://www.w3.org/2000/svg">
 <path d="m7.49 2.5c-0.022 0.0106-0.411 1.05-0.982 2.09-1.37 2.48-2.24 3.56-3.65 4.5-0.609 0.404-1.57 0.913-1.78 1.19-0.2 0.264-0.0778 0.102 0.734-0.13 2.03-0.58 1.88-1.04 0.343 0.79-2.09 2.49-1.04 1.72 1.15-0.318 1-0.934 2.1-1.59 2.38-1.7 0.305-0.117 0.496-0.198 0.876-0.224 0.45-0.0307 0.709 0.0147 0.876 0.507 0.142 0.419 0.464 1.18 0.971 1.78 0.205 0.242 0.387 0.359 0.574 0.474 0.172 0.107 0.347 0.22 0.587 0.268 0.48 0.106 0.8 0.0518 1.14 0.0363 0.72-0.0427 1.94-0.697 2.78-1.37 1.34-1.07 1.52-1.4 1.5-2.76l6.81e-4 -1.57-0.652 0.973c-1.38 2.04-3.02 3.4-4.13 3.4-2.45 0-2.78-1.89-0.45-2.84 2.01-0.824 4.52-2.48 5.16-3.51 0.0014-0.0776-2e-3 -0.162-3e-3 -0.233-0.0153-0.242-0.0726-0.426-0.152-0.611-0.0931-0.189-0.261-0.317-0.398-0.443-0.126-0.0876-0.201-0.138-0.295-0.128-0.12 0.0403-0.168 0.102-0.206 0.212-0.299 0.873-4.73 4.34-5.9 4.34-0.112 0-0.158-0.89-0.254-2.24-0.101-1.4-0.0651-2.55-0.231-2.47zm-0.497 2.86 0.0947 1.08c-0.0179 0.71-0.412 1.11-0.849 1.29-0.433 0.181-0.859 0.49-0.819 0.00691 0.0208-0.256 0.408-0.663 0.873-1.32z" fill="#bebebe"/>
</svg>
