<?xml version="1.0" encoding="UTF-8"?>
<svg width="16" height="16" version="1.1" xmlns="http://www.w3.org/2000/svg">
 <path d="m7.5 1c-1.38 0-2.5 1.12-2.5 2.5v4c0 1.38 1.12 2.5 2.5 2.5s2.5-1.12 2.5-2.5v-4c0-1.38-1.12-2.5-2.5-2.5zm-4 4c-0.276 0-0.5 0.224-0.5 0.5v2c0 1.96 1.25 3.61 3 4.22v1.28h-2c-0.554 0-1 0.446-1 1v1h9v-1c0-0.554-0.446-1-1-1h-2v-1.28c1.75-0.618 3-2.26 3-4.22v-2c0-0.276-0.224-0.5-0.5-0.5s-0.5 0.224-0.5 0.5v2c0 1.94-1.56 3.5-3.5 3.5s-3.5-1.56-3.5-3.5v-2c0-0.276-0.224-0.5-0.5-0.5z" fill="#bebebe"/>
</svg>
