<?xml version="1.0" encoding="UTF-8"?>
<svg width="16" height="16" version="1.1" xmlns="http://www.w3.org/2000/svg">
 <path d="m3 1c-0.554 0-1 0.446-1 1v1h12c0-0.554-0.446-1-1-1h-6c0-0.554-0.446-1-1-1h-3zm-0.5 3c-0.831 0-1.5 0.669-1.5 1.5v6c0 0.831 0.669 1.5 1.5 1.5h3.92a5 5 0 0 1-0.424-2 5 5 0 0 1 5-5 5 5 0 0 1 4 2v-2.51c0-0.831-0.669-1.5-1.5-1.5h-11zm8.57 3a4 4 0 0 0-3.4 1.78 4 4 0 0 0 0.152 4.66 4 4 0 0 0 4.46 1.35 4 4 0 0 0 2.71-3.79h-4l1.04-3.86a4 4 0 0 0-0.963-0.137z" fill="#bebebe"/>
</svg>
