<?xml version="1.0" encoding="UTF-8"?>
<svg width="16" height="16" version="1.1" xmlns="http://www.w3.org/2000/svg">
 <path d="m7.01 1v5.6l-2.36-2.37-0.848 0.859 2.89 2.89-2.92 2.92 0.858 0.848 2.38-2.38v5.62l1.99-1.99v-1.38c0-0.14 0.0293-0.268 0.0684-0.391l-0.967 0.965v-2.93l1.35 1.38c0.16-0.154 0.344-0.289 0.553-0.388v-0.668l-1.64-1.64 2.84-2.82-4.19-4.13zm1.09 2.68 1.45 1.47-1.45 1.45v-2.92zm3.52 4.32c-0.346 0-0.625 0.279-0.625 0.625v2.38h-0.375c-0.346 0-0.625 0.279-0.625 0.625v2.75c0 0.346 0.279 0.625 0.625 0.625h3.75c0.346 0 0.625-0.279 0.625-0.625v-2.75c0-0.346-0.279-0.625-0.625-0.625h-0.375v-2.38c0-0.346-0.279-0.625-0.625-0.625h-1.75zm0.375 1h1v2h-1v-2z" fill="#bebebe"/>
</svg>
