<?xml version="1.0" encoding="UTF-8"?>
<svg width="16" height="16" version="1.1" xmlns="http://www.w3.org/2000/svg">
 <path d="m7.98 2c-1.19 0.00214-2.31 0.804-3.06 2.19-2.26 0.496-3.91 2-3.91 3.81 0 0.348 0.0789 0.679 0.193 1 0.383 0.487 0.82 0.472 1.31 0 0.199-0.193 0.5 0.223 0.5 0.5s-0.223 0.5-0.5 0.5h-0.746c0.694 0.861 1.81 1.52 3.16 1.81 0.754 1.38 1.88 2.19 3.07 2.19 0.00846 4.1e-5 0.0169 4.1e-5 0.0254 0-0.245-0.621-0.451-1.32-0.611-2.06 1.78-0.21 3.25-1.03 4.02-2.17 0.668 1.37 2.05 2.23 3.56 2.23 0.0085 2.7e-5 0.0169 2.7e-5 0.0254 0-0.654-1.1-1.02-2.52-1.02-4 0.0018-1.48 0.364-2.9 1.02-4-0.0078-6.74e-4 -0.0156-0.00133-0.0234-0.00195-1.51 8.34e-4 -2.89 0.865-3.56 2.23-0.77-1.13-2.24-1.96-4.02-2.17 0.16-0.747 0.364-1.44 0.607-2.06-0.00781-0.00134-0.0156-0.00264-0.0234-0.00391zm-4.48 4.75c0.414 0 0.75 0.336 0.75 0.75s-0.336 0.75-0.75 0.75-0.75-0.336-0.75-0.75 0.336-0.75 0.75-0.75z" fill="#bebebe"/>
</svg>
