<?xml version="1.0" encoding="UTF-8"?>
<svg width="16" height="16" version="1.1" xmlns="http://www.w3.org/2000/svg">
 <path d="m3.38 1.21-1.6 1.2 3.91 5.2c0.499 0.664 1.44 0.796 2.1 0.297l3.6-2.7 1.2 1.6 1.42-4.8-5.02 0.0039 1.2 1.6-2.8 2.1c-0.221 0.166-0.533 0.122-0.699-0.0996l-3.3-4.4zm3.99 7.79c-0.39 0.0021-0.738 0.0286-1.12 0.0801-0.638 0.0861-1.68 0.38-2.26 0.637-0.418 0.185-1.42 0.711-1.63 0.853-0.359 0.244-0.896 0.951-1.11 1.46-0.206 0.486-0.303 1.26-0.205 1.64 0.0968 0.375 0.637 1.18 0.809 1.21 0.053 9e-3 0.256-0.031 0.449-0.09s0.786-0.234 1.32-0.391c1.14-0.333 1.15-0.339 1.21-0.505 0.0555-0.163 0.0576-0.875 0.0039-1.47-0.0458-0.508-0.0261-0.618 0.139-0.774 0.116-0.109 0.911-0.351 1.55-0.472 1.24-0.235 2.47-0.155 3.73 0.244 0.621 0.195 0.663 0.252 0.656 0.883-7e-3 0.567 0.093 1.16 0.221 1.32 0.078 0.093 1.98 1.1 2.47 1.31 0.308 0.131 0.398 0.093 0.849-0.364 0.354-0.359 0.402-0.427 0.469-0.65 0.237-0.787-0.088-2.01-0.742-2.79-0.328-0.39-0.521-0.54-1.08-0.85-1.22-0.672-2.65-1.07-4.35-1.21-0.554-0.0464-0.988-0.0685-1.38-0.0664z" fill="#bebebe"/>
</svg>
