<?xml version="1.0" encoding="UTF-8"?>
<svg width="16" height="16" version="1.1" xmlns="http://www.w3.org/2000/svg">
 <path d="m2.5 1c-0.831 0-1.5 0.669-1.5 1.5v11c0 0.831 0.669 1.5 1.5 1.5h6.04c-0.0635-0.338-0.00581-0.745 0.316-1.07 0.0596-0.0596 0.127-0.111 0.199-0.154l0.186-0.109c-0.201-0.21-0.381-0.436-0.545-0.67h-5.2c-0.277 0-0.5-0.223-0.5-0.5v-2.03c1.18 1.31 3.3 2.32 5.68 2.5-0.144-0.208-0.268-0.424-0.371-0.65-0.623-0.571-1.31-1.25-1.31-2.32 0-1.52 1.15-2.22 2-3-3.3 0.421-5.06 0.0736-6-0.322v-3.18c0-0.277 0.223-0.5 0.5-0.5h9c0.277 0 0.5 0.223 0.5 0.5v3.65c0.685 0.18 1.33 0.525 1.83 1.03 0.0642 0.0642 0.112 0.142 0.172 0.211v-5.88c0-0.831-0.669-1.5-1.5-1.5h-11zm10.5 4.99c-0.00806-1.1-1.12-1.99-2.5-1.99-1.38-1.89e-5 -2.49 0.888-2.5 1.99-1.43e-5 0.00391-1.43e-5 0.00781 0 0.0117 4.76e-4 0.0137 0.00113 0.0273 0.00195 0.041 0.504-0.642 1.47-1.04 2.52-1.04 1.02 0.00133 1.96 0.377 2.47 0.988zm-5 0c-0.00806-1.1-1.12-1.99-2.5-1.99-1.38 0-2.5 0.895-2.5 2 4.76e-4 0.0137 0.00113 0.0273 0.00195 0.041 0.504-0.642 1.47-1.04 2.52-1.04 1.02 0.00133 1.96 0.377 2.47 0.988zm4 2.01c-1.66 0-3 1.34-3 3 8.26e-4 1.26 0.786 2.38 1.97 2.81l-1.4 0.826c-0.115 0.115-0.0219 0.353 0.141 0.359h4.59c0.162-6e-3 0.256-0.244 0.141-0.359l-1.4-0.828c1.18-0.432 1.97-1.56 1.97-2.81 0-1.66-1.34-3-3-3zm0 0.5c0.138 0 0.25 0.112 0.25 0.25s-0.112 0.25-0.25 0.25-0.25-0.112-0.25-0.25 0.112-0.25 0.25-0.25zm0 1c0.828 0 1.5 0.672 1.5 1.5s-0.672 1.5-1.5 1.5-1.5-0.672-1.5-1.5 0.672-1.5 1.5-1.5zm0 0.75a0.75 0.75 0 0 0-0.75 0.75 0.75 0.75 0 0 0 0.75 0.75 0.75 0.75 0 0 0 0.75-0.75 0.75 0.75 0 0 0-0.75-0.75z" fill="#bebebe"/>
</svg>
