<?xml version="1.0" encoding="UTF-8"?>
<svg width="16" height="16" version="1.1" xmlns="http://www.w3.org/2000/svg">
 <path d="m8 1a7 7 0 0 0-5.08 2.2l2.23 3.87a3 3 0 0 1 2.85-2.07h6.32a7 7 0 0 0-6.32-4zm-5.76 3.02a7 7 0 0 0-1.24 3.98 7 7 0 0 0 5.38 6.8l2.23-3.87a3 3 0 0 1-0.617 0.0664 3 3 0 0 1-2.59-1.5l-0.00391 0.00195-3.16-5.48zm5.76 1.98a2 2 0 0 0-2 2 2 2 0 0 0 2 2 2 2 0 0 0 2-2 2 2 0 0 0-2-2zm2.23 0a3 3 0 0 1 0.77 2 3 3 0 0 1-0.404 1.5l0.00195 0.00195-3.16 5.47a7 7 0 0 0 0.561 0.0273 7 7 0 0 0 7-7 7 7 0 0 0-0.299-2h-4.47z" fill="#bebebe"/>
</svg>
