<?xml version="1.0" encoding="UTF-8"?>
<svg width="16" height="16" version="1.1" xmlns="http://www.w3.org/2000/svg">
 <path d="m8.5 1c-1.78 0-3.19 1.34-3.19 3 4e-3 0.177 0.0144 0.441 0.0312 0.656-0.304 0.129-0.321 0.704-0.0625 1.31 0.102 0.241 0.233 0.441 0.375 0.594 0.0345 0.171 0.0198 0.242 0.0625 0.438 0.119 0.357 0.566 1.05 1 1.62 0.0416 0.435 0.0793 0.883 0 1.38h0.281a0.986 0.986 0 0 1 1 1v2h6.81l-0.0625-0.406c-5e-3 -0.919-3.23-1.49-4.47-2.56-0.05-0.411-0.0566-0.814-0.0312-1.22 0.395-0.61 0.93-1.41 1.06-1.81 0.0477-0.202 0.0565-0.326 0.0937-0.5 0.118-0.143 0.225-0.326 0.312-0.531 0.245-0.578 0.232-1.12-0.0312-1.28 0.0155-0.233 0.0244-0.486 0.0312-0.688 0-1.66-1.44-3-3.22-3zm-5.5 8v2h-2v2h2v2h2v-2h2v-2h-2v-2h-2z" fill="#bebebe"/>
</svg>
