<?xml version="1.0" encoding="UTF-8"?>
<svg width="16" height="16" version="1.1" xmlns="http://www.w3.org/2000/svg">
 <path d="m2 1c-0.554 0-1 0.446-1 1v13h2.88l-0.777-1.55a1 1 0 0 1-0.105-0.447v-0.211c-0.551-0.224-1-0.668-1-1.29s0.449-1.06 1-1.29v-2.21a1 1 0 0 1 0-0.00781v-3.99h3.46c0.326-0.571 0.845-1 1.54-1v-1h1v1h-1c0.7 0 1.22 0.429 1.55 1h3.45v6.21c0.551 0.224 1 0.668 1 1.29s-0.449 1.06-1 1.29v0.211a1 1 0 0 1-0.105 0.447l-0.777 1.55h2.88v-13c0-0.554-0.446-1-1-1h-12zm8 1h1v1h-1v-1zm2 0h1v1h-1v-1zm-4 2c-0.549 0-0.99 0.439-0.998 0.986a2.25 2.25 0 0 0-1.25 2.01 2.25 2.25 0 0 0 0.00586 0.121l-1.76 0.879v3h-0.5c-0.277 0-0.5 0.223-0.5 0.5s0.223 0.5 0.5 0.5h0.5v1l1 2v-3h2c0 0.554 0.446 1 1 1s1-0.446 1-1h2v3l1-2v-1h0.5c0.277 0 0.5-0.223 0.5-0.5s-0.223-0.5-0.5-0.5h-0.5v-3l-1.75-0.877a2.25 2.25 0 0 0 0.00391-0.123 2.25 2.25 0 0 0-1.25-2.02c-0.00992-0.545-0.448-0.982-0.996-0.982zm0 2a1 1 0 0 1 1 1 1 1 0 0 1-1 1 1 1 0 0 1-1-1 1 1 0 0 1 1-1zm-2.01 2.01a2.25 2.25 0 0 0 2.01 1.24 2.25 2.25 0 0 0 2.01-1.24l0.99 0.99v2h-2c0-0.554-0.446-1-1-1s-1 0.446-1 1h-2v-2l0.992-0.992zm0.00781 4.99v2h4v-2h-0.42c-0.357 0.561-0.877 1-1.58 1s-1.22-0.439-1.58-1h-0.42z" fill="#bebebe"/>
</svg>
