<?xml version="1.0" encoding="UTF-8"?>
<svg width="16" height="16" version="1.1" xmlns="http://www.w3.org/2000/svg">
 <path d="m3.43 3.94c-0.847 0.963-1 2.2-1 3.56 0 1.74 0.307 3.28 1.62 4.96 1.47 1.89 3.1 2.35 3.88 2.44 0.243 0.11 0.782 0.11 0.782 0.11l0.09-0.11v-0.1l-0.09-0.1s-0.8-0.11-2.34-1.14l-0.09-0.11s-0.941-0.81-1.31-1.36c-0.391-0.62-0.558-1.24-0.782-1.83-0.568-0.6-0.874-1.37-0.828-2.12-0.186-1.48 0.325-3.09 1.22-4 0.736-0.5 1.26-0.978 1.98-1.27 0.849-0.55 1.81-0.61 2.73-0.521 1.53 0.39 2.66 1.51 2.9 3.13 0 0.179 0.1 0.284 0 0.523-0.1 0.374 0 0.663 0 0.869-0.11 1.57-1.77 2.76-3.31 2.4-0.604-0.13-1.21-0.694-1.52-1.4-0.251-0.593-0.3-1.56 0.224-2.09 0.968-1 2.15-0.594 2.42-0.486 0.1 0.04 0.13 0.06 0.13 0.06l0.13-0.05v-0.136c-0.26-0.368-0.879-0.547-1.41-0.551-0.922 0-1.65 0.564-1.99 1.32-0.633 1.27 0 2.56 0.382 2.96 0.317 0.307 0.615 0.475 0.615 0.475h-0.09l-0.121-0.09c-0.09-0.09-0.14-0.09-0.14-0.09l-0.288-0.196h-0.122l-0.09 0.09 0.09 0.167c0.541 0.554 0.922 0.7 1.63 0.864 0.168 0 0.317 0.1 0.317 0.1 0.475 0.11 0.816 0 0.816 0l-0.09-0.18s-0.243 0.11-0.774-0.105c1.43 0.175 2.9-0.585 3.49-1.59 0.1-0.196 0.23-0.333 0.32-0.455 0.15-0.284 0.26-0.585 0.52-1.22 0-0.623 0.1-0.744-0.1-1.41-0.11-0.381-0.24-0.584-0.17-0.735 0.33 0.1 0.23 0.424 0.27 0.552 0 0.1 0.11 0.193 0.11 0.193s0.1 0.03 0.12-0.03v-0.13s0-0.557-0.14-1.02c-0.26-1-1.07-1.74-1.9-2.26-0.76-0.473-1.28-0.367-1.99-0.575-0.279-0.08-0.633-0.124-0.893-0.124-0.251 0-0.81-0.03-1.03-0.128-1.22-0.02-3.19 1.03-4.08 2.51z" fill="#bebebe"/>
</svg>
