<?xml version="1.0" encoding="UTF-8"?>
<svg width="16" height="16" version="1.1" xmlns="http://www.w3.org/2000/svg">
 <path d="m8 1c-0.623 1.53-0.999 2.53-1.69 4.01 0.426 0.451 0.948 0.976 1.8 1.57-0.912-0.375-1.6-0.658-2.06-1.05-0.888 1.85-2.22 4.4-5.04 9.47 2.22-1.28 3.94-2.07 5.54-2.37-0.0688-0.296-0.108-0.616-0.105-0.95l0.00263-0.0711c0.0352-1.42 0.775-2.51 1.65-2.44 0.876 0.0742 1.56 1.29 1.52 2.71-0.00665 0.267-0.0368 0.525-0.0895 0.763 1.59 0.31 3.29 1.1 5.48 2.36-0.432-0.795-0.817-1.51-1.18-2.19-0.58-0.449-1.18-1.03-2.42-1.67 0.848 0.22 1.39 0.397 1.87 0.681-3.74-6.96-3.98-7.81-5.26-10.8z" fill="#bebebe"/>
</svg>
