<?xml version="1.0" encoding="UTF-8"?>
<svg width="16" height="16" version="1.1" xmlns="http://www.w3.org/2000/svg">
 <path d="m4.5 4c-0.277 0-0.5 0.223-0.5 0.5v7c0 0.277 0.223 0.5 0.5 0.5h7c0.277 0 0.5-0.223 0.5-0.5v-7c0-0.277-0.223-0.5-0.5-0.5h-7zm1.79 1.85h3.43v1.14h-2.29v0.57h1.71v1.14h-1.71v1.71h-1.14v-4.57z" fill="#bebebe"/>
 <path d="m4.2637 1.0059c-.2822.0389-.5171.2634-.5957.5566l-2.6446 9.8765c-.10475.391.1461.79.5371.895l9.8775 2.643c.391.104.789-.147.894-.538l2.645-9.8765c.104-.3910-.146-.7878-.538-.8926l-9.8765-2.6445c-.0978-.0262-.2048-.03252-.2988-.0195zm.2363 2.9961h7c.277 0 .5.223.5.5v6.998c0 .277-.223.5-.5.5h-7c-.277 0-.5-.223-.5-0.5v-6.998c0-.277.223-.5.5-.5z" fill="#bebebe" opacity=".45"/>
</svg>
