<?xml version="1.0" encoding="UTF-8"?>
<svg width="16" height="16" version="1.1" xmlns="http://www.w3.org/2000/svg">
 <path d="m8 1c-1.66 3.75e-4 -3 1.34-3 3 0 1.3 0.838 2.4 2 2.82v1.18h-2v1h2v4c-1.47 0-2.79-0.51-3.7-1.32l1.2-0.682-3.5-2v4l1.19-0.678a7 6 0 0 0 5.81 2.68 7 6 0 0 0 5.82-2.68l1.18 0.676v-4l-3.5 2 1.2 0.682c-0.908 0.809-2.22 1.32-3.7 1.32v-4h2v-1h-2v-1.18c1.16-0.414 2-1.51 2-2.82 0-1.66-1.34-3-3-3zm0 1.5c0.814 0 1.5 0.686 1.5 1.5s-0.686 1.5-1.5 1.5-1.5-0.686-1.5-1.5 0.686-1.5 1.5-1.5z" fill="#bebebe"/>
</svg>
