<?xml version="1.0" encoding="UTF-8"?>
<svg width="16" height="16" version="1.1" xmlns="http://www.w3.org/2000/svg">
 <path d="m4.52 1c-0.827 0-1.49 0.669-1.49 1.5v4.53h-0.529c-0.827-1e-4 -1.49 0.669-1.49 1.5v3.03c0 0.831 0.666 1.5 1.49 1.5h0.529v0.438c0 0.831 0.666 1.5 1.49 1.5h6.97c0.259 0 0.504-0.072 0.716-0.188l-0.809-0.812-0.591-0.594-0.062-0.062 0.031-0.032c-0.242-0.261-0.261-0.525-0.311-0.781-1.68 0.807-3.75 0.574-5.13-0.812-0.16-0.161-0.273-0.353-0.404-0.531-0.0038-6e-3 -0.0274 5e-3 -0.0311 0-0.0278-0.04-0.035-0.086-0.0618-0.126-0.0853-0.124-0.178-0.244-0.249-0.374-0.0268-0.052-0.0375-0.106-0.0622-0.158-0.107-0.214-0.209-0.428-0.28-0.656-0.0746-0.238-0.121-0.473-0.156-0.719-0.136-0.967 0.0497-1.94 0.529-2.81 0.118-0.216 0.248-0.428 0.404-0.625v-2.22c0-0.277 0.222-0.5 0.498-0.5h4.98c0.276 0 0.498 0.223 0.498 0.5v1.22c0.012 0.00768 0.0192 0.0234 0.0311 0.0312 0.119 0.0778 0.229 0.161 0.342 0.25 0.127 0.102 0.256 0.195 0.373 0.312 1.38 1.38 1.6 3.44 0.809 5.12 0.278 0.0489 0.57 0.0348 0.84 0.312 0.0122 0.0126 0.0192 0.018 0.0311 0.0312l1.43 1.44c0.0941-0.197 0.156-0.423 0.156-0.656v-3.06c0-0.831-0.666-1.5-1.49-1.5h-0.529v-4.5c0-0.831-0.666-1.5-1.49-1.5h-6.97zm4.01 4c-0.9 0-1.8 0.345-2.49 1.03-1.37 1.37-1.37 3.6 0 4.97 1.2 1.2 3.06 1.36 4.42 0.469 0.232 0.0116 0.583 0.0368 0.716 0.188 0.181 0.205-0.0666 0.687 0.28 1l2.15 2.19s0.404 0.436 1.03-0.188c0.623-0.623 0.187-1.03 0.187-1.03l-2.15-2.19c-0.312-0.347-0.791-0.0692-0.996-0.25-0.151-0.133-0.175-0.518-0.187-0.75 0.889-1.36 0.729-3.21-0.467-4.41-0.686-0.686-1.59-1.03-2.49-1.03zm0 1.19c1.29 0 2.36 1.05 2.36 2.34 0 1.29-1.07 2.34-2.36 2.34s-2.33-1.05-2.33-2.34c0-0.647 0.26-1.26 0.684-1.69 0.424-0.424 1-0.656 1.65-0.656z" fill="#bebebe"/>
</svg>
