<?xml version="1.0" encoding="UTF-8"?>
<svg width="16" height="16" version="1.1" xmlns="http://www.w3.org/2000/svg">
 <path d="m5.5 1c-0.831 0-1.5 0.669-1.5 1.5v5.2l2-1.98v-2.21c0-0.277 0.223-0.5 0.5-0.5h5c0.277 0 0.5 0.223 0.5 0.5v7c0 0.277-0.223 0.5-0.5 0.5h-2.33l-1.97 2h5.3c0.831 0 1.5-0.669 1.5-1.5v-9c0-0.831-0.669-1.5-1.5-1.5h-7zm2.57 5c-0.142 0-0.284 0.0553-0.393 0.164l-1.26 1.25 2.16 2.16 1.25-1.25c0.218-0.218 0.218-0.568 0-0.785l-1.38-1.37c-0.109-0.109-0.25-0.164-0.393-0.164zm-2.21 1.96-4.15 4.14-0.715 2.9 2.85-0.76 4.13-4.16-2.13-2.12z" fill="#bebebe"/>
</svg>
