<?xml version="1.0" encoding="UTF-8"?>
<svg width="16" height="16" version="1.1" xmlns="http://www.w3.org/2000/svg">
 <path d="m4.5 1c-0.831 0-1.5 0.669-1.5 1.5v4.53h-0.531c-0.831 0-1.5 0.669-1.5 1.5v3.03c0 0.831 0.669 1.5 1.5 1.5h0.531v0.438c0 0.831 0.669 1.5 1.5 1.5h7c0.831 0 1.5-0.669 1.5-1.5v-0.438h0.531c0.831 0 1.5-0.669 1.5-1.5v-3.06c0-0.831-0.669-1.5-1.5-1.5h-0.531v-4.5c0-0.83-0.669-1.5-1.5-1.5h-7zm1 2h5c0.277 0 0.5 0.223 0.5 0.5v4.5h-6v-4.5c0-0.277 0.223-0.5 0.5-0.5zm0.5 1v1h4.01v-1h-4.01zm0 2v1h3v-1h-3zm7.5 3c0.276-2e-7 0.5 0.224 0.5 0.5s-0.224 0.5-0.5 0.5-0.5-0.224-0.5-0.5 0.224-0.5 0.5-0.5zm-8.5 3h6v0.5c0 0.277-0.223 0.5-0.5 0.5h-5c-0.277 0-0.5-0.223-0.5-0.5v-0.5z" fill="#bebebe"/>
</svg>
