<?xml version="1.0" encoding="UTF-8"?>
<svg width="16" height="16" version="1.1" xmlns="http://www.w3.org/2000/svg">
 <path d="m3.5 1c-0.104 0-0.215 0.0113-0.312 0.0312-0.327 0.0666-0.604 0.228-0.812 0.469-0.0195 0.0219-0.0443 0.0395-0.0625 0.0625-0.0847 0.11-0.136 0.243-0.188 0.375-0.012 0.0302-0.0211 0.0626-0.0312 0.0937-0.0476 0.147-0.0938 0.306-0.0938 0.469v11c0 0.163 0.0462 0.322 0.0938 0.469 0.0101 0.0312 0.0192 0.0635 0.0312 0.0938 0.0517 0.132 0.103 0.265 0.188 0.375 0.0182 0.023 0.043 0.0406 0.0625 0.0625 0.209 0.241 0.486 0.402 0.812 0.469 0.0978 0.02 0.209 0.031 0.312 0.031h9c0.286 0 0.554-0.0812 0.781-0.219 0.02-0.0122 0.0432-0.0182 0.0625-0.0312 0.104-0.0703 0.198-0.156 0.281-0.25 0.0191-0.022 0.0447-0.0393 0.0625-0.0625 0.0885-0.112 0.134-0.24 0.188-0.375 0.0124-0.0315 0.021-0.0612 0.0312-0.0938 0.048-0.147 0.094-0.306 0.094-0.469v-2.5l-2 2h-7.5c-0.277 0-0.5-0.223-0.5-0.5v-9c0-0.277 0.223-0.5 0.5-0.5h7.5l2 2v-2.5c0-0.163-0.046-0.322-0.094-0.469-0.01-0.0325-0.019-0.0622-0.031-0.0937-0.054-0.135-0.099-0.263-0.187-0.375-0.018-0.0232-0.044-0.0405-0.063-0.0625-0.099-0.112-0.215-0.203-0.344-0.281-0.059-0.0362-0.123-0.0661-0.187-0.0938-0.18-0.0757-0.386-0.125-0.594-0.125h-8.5zm7.5 3v3h-4v2h4v3l4-4z" fill="#bebebe"/>
</svg>
