<?xml version="1.0" encoding="UTF-8"?>
<svg width="16" height="16" version="1.1" xmlns="http://www.w3.org/2000/svg">
 <path d="m1 1v3h1.38c0.363 0.626 0.778 1.43 1.08 2.34 0.322 0.984 0.496 2.05 0.336 3.05-0.153 0.948-0.603 1.84-1.55 2.62h-1.24v3h3v-1.04h3v-0.942h-3v-1.02h-0.367c0.632-0.759 0.991-1.61 1.13-2.46 0.195-1.21-0.0194-2.43-0.373-3.51-0.272-0.832-0.582-1.48-0.887-2.04h0.498v-1.01h4v-0.977h-4v-1.01h-3zm9.34 0.0176-2.18 5.63 0.529 0.791 3.95 1.62 1.04-0.342 1.33-3.69c-1.67 0-0.333-4.02-4.67-4.02zm-1.72 7.38-0.467 1.34 3.33 1.27 0.469-1.27-3.33-1.34zm0.283 2.45-0.861 2.28c-0.28 0.821 0.868 1.26 1.16 0.408l0.979-2.26-1.28-0.431zm-2.36 3.91v2e-3 -2e-3z" fill="#bebebe"/>
</svg>
