<?xml version="1.0" encoding="UTF-8"?>
<svg width="16" height="16" version="1.1" xmlns="http://www.w3.org/2000/svg">
 <path d="m6.77 1a0.75 0.75 0 0 0-0.713 0.471l-5 12.5a0.75 0.75 0 0 0 0.697 1.03h12.5a0.75 0.75 0 0 0 0.75-0.75v-1.42a0.75 0.75 0 1 0-1.5 0v0.672h-4.91a0.75 0.75 0 0 0 0.152-0.604c-0.173-1.24-0.688-2.32-1.34-3.13-0.652-0.811-1.42-1.39-2.3-1.51a0.75 0.75 0 0 0-0.139-0.0059l2.22-5.56 0.83 0.275a0.75 0.75 0 1 0 0.473-1.42l-1.5-0.5a0.75 0.75 0 0 0-0.221-0.0391zm-2.32 8.52a0.75 0.75 0 0 0 0.453 0.223c0.269 0.0351 0.846 0.357 1.33 0.959 0.484 0.602 0.893 1.45 1.03 2.4a0.75 0.75 0 0 0 0.16 0.396h-4.56l1.59-3.98z" fill="#bebebe"/>
</svg>
