<?xml version="1.0" encoding="UTF-8"?>
<svg width="16" height="16" version="1.1" xmlns="http://www.w3.org/2000/svg">
 <path d="m8 1c-3.87 0-7 3.13-7 7s3.13 7 7 7c3.23 0 5.94-2.19 6.75-5.16-0.235 0.104-0.488 0.164-0.748 0.164-1.05 0-2-0.953-2-2s0.953-2 2-2c0.26 0 0.513 0.0599 0.748 0.164-0.462-1.7-1.55-3.14-3-4.07 0.153 0.278 0.25 0.585 0.25 0.904 0 1.05-0.953 2-2 2-1.05 0-2-0.953-2-2 0-0.821 0.588-1.58 1.35-1.87-0.436-0.085-0.885-0.133-1.35-0.133zm2 1a1 1 0 0 0-1 1 1 1 0 0 0 1 1 1 1 0 0 0 1-1 1 1 0 0 0-1-1zm4 5a1 1 0 0 0-1 1 1 1 0 0 0 1 1 1 1 0 0 0 1-1 1 1 0 0 0-1-1z" fill="#bebebe"/>
</svg>
