<?xml version="1.0" encoding="UTF-8"?>
<svg width="16" height="16" version="1.1" xmlns="http://www.w3.org/2000/svg">
 <path d="m2.5 1c-0.831 0-1.5 0.669-1.5 1.5v11c0 0.831 0.669 1.5 1.5 1.5h11c0.831 0 1.5-0.669 1.5-1.5v-11c0-0.831-0.669-1.5-1.5-1.5h-11zm1.5 2a1 1 0 0 1 1 1 1 1 0 0 1-1 1 1 1 0 0 1-1-1 1 1 0 0 1 1-1zm2.83 0h5.17c0.554 0 1 0.446 1 1v8c0 0.554-0.446 1-1 1h-8c-0.554 0-1-0.446-1-1v-5.18a3 3 0 0 0 1 0.176 3 3 0 0 0 3-3 3 3 0 0 0-0.174-1zm0.174 4v1h5v-1h-5zm-3 2v1h8v-1h-8zm0 2v1h8v-1h-8z" fill="#bebebe" fill-rule="evenodd"/>
</svg>
