<?xml version="1.0" encoding="UTF-8"?>
<svg width="16" height="16" version="1.1" xmlns="http://www.w3.org/2000/svg">
 <path d="m2.45 2.44c-1.93 1.92-1.93 5.04 0 6.96 1.68 1.68 4.27 1.9 6.19 0.653 0.326 0.0163 0.851 0.0611 1.04 0.272 0.254 0.287-0.105 0.959 0.382 1.4l3.03 3.07s0.562 0.6 1.44-0.272c0.876-0.873 0.273-1.43 0.273-1.43l-3.03-3.07c-0.44-0.486-1.11-0.128-1.4-0.381-0.212-0.186-0.257-0.709-0.273-1.03 1.25-1.91 1.03-4.49-0.655-6.17-1.93-1.92-5.06-1.92-6.99 0zm1.18 1.14c0.596-0.594 1.42-0.943 2.33-0.943 1.82 0 3.29 1.47 3.29 3.28s-1.48 3.28-3.29 3.28c-1.82 1e-6 -3.29-1.47-3.29-3.28 1e-7 -0.906 0.368-1.75 0.965-2.34z" fill="#bebebe"/>
</svg>
