<?xml version="1.0" encoding="UTF-8"?>
<svg width="16" height="16" version="1.1" xmlns="http://www.w3.org/2000/svg">
 <path d="m5.94 0.996c-1.27 0-2.54 0.476-3.5 1.44-1.93 1.92-1.93 5.05 0 6.97 1.68 1.68 4.27 1.9 6.19 0.656 0.326 0.0163 0.876 0.0703 1.06 0.281 0.254 0.287-0.112 0.937 0.375 1.38l3.03 3.09s0.562 0.591 1.44-0.281 0.281-1.44 0.281-1.44l-3.03-3.06c-0.439-0.486-1.12-0.123-1.41-0.376-0.212-0.186-0.265-0.738-0.281-1.06 1.25-1.91 1.02-4.48-0.657-6.16-0.965-0.961-2.23-1.44-3.5-1.44zm0.0312 1.66c1.82 0 3.28 1.47 3.28 3.28s-1.46 3.28-3.28 3.28c-1.82 1.5e-6 -3.31-1.47-3.31-3.28 0-0.906 0.372-1.75 0.969-2.34 0.596-0.594 1.43-0.938 2.34-0.938zm-3.97 10.3c-0.552 0-1 0.448-1 1s0.448 1 1 1 1-0.448 1-1-0.448-1-1-1zm3 0c-0.552 0-1 0.448-1 1s0.448 1 1 1 1-0.448 1-1-0.448-1-1-1zm3 0c-0.552 0-1 0.448-1 1s0.448 1 1 1 1-0.448 1-1-0.448-1-1-1z" fill="#bebebe"/>
</svg>
