<?xml version="1.0" encoding="UTF-8"?>
<svg width="16" height="16" version="1.1" xmlns="http://www.w3.org/2000/svg">
 <path d="m3 5c-0.256 0-0.511 0.095-0.707 0.283-0.392 0.376-0.392 0.981 0 1.36l1.41 1.36-1.41 1.36c-0.392 0.376-0.392 0.981 0 1.36 0.392 0.376 1.02 0.376 1.41 0l2.12-2.04 0.709-0.68-0.709-0.68-2.12-2.04c-0.196-0.188-0.451-0.283-0.707-0.283zm10 0c-0.256 0-0.511 0.095-0.707 0.283l-2.12 2.04-0.709 0.68 0.709 0.68 2.12 2.04c0.392 0.376 1.02 0.376 1.41 0 0.392-0.377 0.392-0.981 0-1.36l-1.41-1.36 1.41-1.36c0.392-0.376 0.392-0.981 0-1.36-0.196-0.188-0.451-0.283-0.707-0.283z" fill="#bebebe"/>
</svg>
