<?xml version="1.0" encoding="UTF-8"?>
<svg width="16" height="16" version="1.1" xmlns="http://www.w3.org/2000/svg">
 <path d="m7.5 2c-0.277 0-0.5 0.223-0.5 0.5v3.77l-3.26-1.88c-0.24-0.138-0.543-0.0582-0.682 0.182l-0.5 0.867c-0.138 0.24-0.0582 0.543 0.182 0.682l3.27 1.88-3.27 1.88c-0.24 0.138-0.32 0.442-0.182 0.682l0.5 0.867c0.138 0.24 0.442 0.32 0.682 0.182l3.26-1.88v3.77c0 0.277 0.223 0.5 0.5 0.5h1c0.277 0 0.5-0.223 0.5-0.5v-3.77l3.26 1.88c0.24 0.138 0.543 0.0582 0.682-0.182l0.5-0.867c0.138-0.24 0.0582-0.543-0.182-0.682l-3.27-1.88 3.27-1.88c0.24-0.138 0.32-0.442 0.182-0.682l-0.5-0.867c-0.138-0.24-0.442-0.32-0.682-0.182l-3.26 1.88v-3.77c0-0.277-0.223-0.5-0.5-0.5h-1z" fill="#bebebe" fill-rule="evenodd"/>
</svg>
