<?xml version="1.0" encoding="UTF-8"?>
<svg width="16" height="16" version="1.1" xmlns="http://www.w3.org/2000/svg">
 <path d="m9.81 3.01c-4.6 0.192-9.67 5.05-7.34 7.28 0.428 0.41 0.92 0.754 1.47 1.04-1.25 1.17-2.37 2.18-2.94 2.67 0 0 1.48-1.07 3.3-2.49 2.41 1.09 5.92 1.08 10.7-0.0449v-1.8c-1.52 0.667-3.63 1.48-5.58 1.78-1.08 0.129-2.94 0.0241-4.18-0.67 3.9-3.12 8.62-7.42 5.48-7.74-0.3-0.0309-0.605-0.0382-0.912-0.0254zm-0.273 1.14c1.43 0.114-1.75 3.5-4.71 6.34-0.867-0.686-1.22-1.79-0.281-3.51 1.19-2.2 3.86-2.92 4.99-2.83z" fill="#bebebe"/>
</svg>
