<?xml version="1.0" encoding="UTF-8"?>
<svg width="16" height="16" version="1.1" xmlns="http://www.w3.org/2000/svg">
 <path d="m8 1a7 7 0 0 0-6.98 6.7c1.3-0.995 2.62-1.53 3.9-1.66 1.86-0.193 3.55 0.432 4.98 1.3 1.43 0.873 2.63 2 3.6 2.96 0.345 0.34 0.53 0.501 0.795 0.748a7 7 0 0 0 0.707-3.04 7 7 0 0 0-7-7zm3 2a2 2 0 0 1 2 2 2 2 0 0 1-2 2 2 2 0 0 1-2-2 2 2 0 0 1 2-2zm-5.4 5c-0.16-2.84e-4 -0.322 0.00861-0.484 0.0254-1.14 0.118-2.4 0.666-3.8 2.04a7 7 0 0 0 6.68 4.94 7 7 0 0 0 5.12-2.24c-0.316-0.318-0.644-0.661-1.03-1.04-0.937-0.923-2.05-1.95-3.24-2.68-1.05-0.638-2.13-1.05-3.25-1.05z" fill="#bebebe"/>
</svg>
