<?xml version="1.0" encoding="UTF-8"?>
<svg width="16" height="16" version="1.1" xmlns="http://www.w3.org/2000/svg">
 <path d="m3 1c-0.554 0-1 0.446-1 1v1h12c0-0.554-0.446-1-1-1h-6c0-0.554-0.446-1-1-1h-3zm-0.5 3c-0.831 0-1.5 0.669-1.5 1.5v8c0 0.831 0.669 1.5 1.5 1.5h11c0.831 0 1.5-0.669 1.5-1.5v-8c0-0.831-0.669-1.5-1.5-1.5h-11zm6.03 1c2.48 0 4.47 2.02 4.47 4.5s-1.99 4.5-4.47 4.5c-0.818 0-1.59-0.212-2.25-0.594l0.594-1.06c0.478 0.273 1.04 0.438 1.62 0.438 1.81 0 3.28-1.47 3.28-3.28s-1.47-3.28-3.28-3.28-3.28 1.47-3.28 3.28h1.53l-2 3.38-2.03-3.38h1.31c0-2.48 2.02-4.5 4.5-4.5zm-0.531 2h1v2h1v1h-2v-3z" fill="#bebebe"/>
</svg>
