<?xml version="1.0" encoding="UTF-8"?>
<svg width="16" height="16" version="1.1" xmlns="http://www.w3.org/2000/svg">
 <path d="m3 1c-0.554 0-1 0.446-1 1v1h12c0-0.554-0.446-1-1-1h-6c0-0.554-0.446-1-1-1h-3zm-0.5 3c-0.831 0-1.5 0.669-1.5 1.5v8c0 0.831 0.669 1.5 1.5 1.5h11c0.831 0 1.5-0.669 1.5-1.5v-8c0-0.831-0.669-1.5-1.5-1.5h-11zm3 1c0.822 0 1.54 0.388 2 1 0.456-0.612 1.18-1 2-1 1.38 0 2.5 1.12 2.5 2.5 0 0.822-0.388 1.54-1 2v0.906l2.03-1.41v3.84l-2.03-1.38v1.03c0 0.277-0.223 0.5-0.5 0.5h-5c-0.277 0-0.5-0.223-0.5-0.5v-2.56c-1.14-0.233-2-1.23-2-2.44 0-1.38 1.12-2.5 2.5-2.5zm0 1.5c-0.552 0-1 0.448-1 1s0.448 1 1 1 1-0.448 1-1-0.448-1-1-1zm4 0c-0.552 0-1 0.448-1 1s0.448 1 1 1 1-0.448 1-1-0.448-1-1-1z" fill="#bebebe"/>
</svg>
