<?xml version="1.0" encoding="UTF-8"?>
<svg width="16" height="16" version="1.1" xmlns="http://www.w3.org/2000/svg">
 <path d="m1.22 3.6c0.216 0.03 0.383-0.223 0.489-0.37 0.611-1.02 1.5-0.967 2.46-1.08 3.34-0.15 4.91 1.35 5.24 3.94 0.344 1.84-0.99 2.9-2.02 3.75-1.54 0.913-1.61 2.3-1.49 3.66 0.02 0.57 0.712 0.8 0.553-0.1-0.218-1.19 0.05-1.84 0.522-2.27 1.65-1.21 2.77-1.78 3.23-3.57 0.3-2.11-0.9-4.98-3.14-6.06-2.12-0.794-4.06-0.746-5.98 0.252-0.141 0.626-0.165 1.63 0.124 1.84zm1.79 3.41c-0.539 0.456-0.367 1.13-0.317 1.72 0.09 0.835 0.656 0.691 0.534 0.01-0.1-0.73-0.05-1.45 0.266-1.5 0.546-0.142 0.351 0.763 0.6 1.17 0.265-0.193 0.564-0.415 0.799-0.589 0.911-0.336 0.274 0.962-0.382 1.68-0.252 0.628 0.23 0.618 0.324 0.378 0.247-0.357 0.519-0.733 0.749-1.05 0.731-1.4-0.135-2.55-1.33-0.989 0.07-0.808-0.743-1.15-1.24-0.841zm-1.57 3.7c0.06 0.32 0.323 0.57 0.572 0.76 1.18 0.85 2.66 0.87 3.28 0.46 0.383-0.35-0.09-0.53-0.342-0.28-1.24 0.34-1.88 0-2.65-1.03-0.586-0.815-1.01-0.16-0.858 0.1zm-0.184 1.53c1.11 1.16 2.79 1.55 3.79 1.46 0.701-0.1 0.51-0.9-0.09-0.74-1.26 0.1-1.9-0.1-2.97-0.88-0.397-0.64-1.08-0.23-0.726 0.16zm0.278 0.85c-0.706 0.3-0.219 0.95 0.143 1.16 1.55 0.78 3.05 1.04 3.94 0.27 0.395-0.63-0.582 0-1 0-0.704 0-1.63-0.37-2.23-0.62-0.344-0.19-0.607-0.95-0.848-0.81z" fill="#bebebe"/>
</svg>
