<?xml version="1.0" encoding="UTF-8"?>
<svg width="16" height="16" version="1.1" xmlns="http://www.w3.org/2000/svg">
 <path d="m7.41 4.81c-0.0865 0.107-0.17 0.219-0.281 0.344-0.646 0.726-1.2 0.797-2.09 0.813-1.13 0-2.03 1.07-2.03 2.06 0 0.995 0.872 2 1.97 2 0.851 0 1.52 0.349 2.06 0.906 0.104 0.107 0.216 0.208 0.312 0.312a4 4 1.57 0 0 0.906-0.906c-0.159-0.129-0.324-0.258-0.5-0.438-0.843-0.861-0.897-2.87 0.0938-3.78 0.176-0.162 0.293-0.285 0.437-0.406a4 4 1.57 0 0-0.437-0.563 4 4 1.57 0 0-0.438-0.344z" fill="#bebebe"/>
 <path d="m9.97 1c-1.1 0-1.97 0.891-1.97 2 0 0.92-0.178 1.3-0.594 1.81a4 4 0.0274 0 1 0.438 0.344 4 4 0.0274 0 1 0.438 0.562c0.67-0.56 1.1-0.719 1.69-0.719 1.1 0 1.97-0.891 1.97-2-1e-3 -0.554-0.204-1.07-0.563-1.44s-0.858-0.562-1.41-0.562zm-3.78 4.81c-0.165 0.0563-0.344 0.104-0.531 0.125 0.202-0.0217 0.354-0.062 0.531-0.125zm2.06 4.53a4 4 0.0274 0 1-0.906 0.906c0.403 0.437 0.719 0.885 0.719 1.75 0 1.11 0.872 2 1.97 2 0.548 0 1.05-0.199 1.41-0.562 0.359-0.364 0.562-0.883 0.562-1.44 0-1.11-0.872-2-1.97-2-0.655 0-1.18-0.167-1.78-0.656z" fill="#bebebe" opacity=".45"/>
</svg>
