<?xml version="1.0" encoding="UTF-8"?>
<svg width="16" height="16" version="1.1" xmlns="http://www.w3.org/2000/svg">
 <path d="m11.4 1.58c-0.359-0.363-0.856-0.577-1.4-0.577-1.1 0-1.97 0.888-1.97 2 0 1.11-0.21 1.43-0.856 2.15-0.646 0.726-1.19 0.805-2.08 0.821-1.13 0-2.04 1.07-2.04 2.06 0 0.995 0.878 2 1.97 2 0.851 0 1.52 0.343 2.06 0.9 0.54 0.557 1.01 1 1.01 2.07 0 1.11 0.878 2 1.97 2 0.548 0 1.04-0.213 1.4-0.577 0.359-0.363 0.57-0.865 0.57-1.42 0-1.11-0.878-2-1.97-2-0.828 0-1.43-0.239-2.27-1.1-0.843-0.861-0.912-2.87 0.078-3.78 0.99-0.913 1.41-1.13 2.13-1.13 1.1 0 1.97-0.888 1.97-2-3e-5 -0.554-0.211-1.06-0.571-1.42l-1e-5 -4e-5z" fill="#bebebe" opacity=".45"/>
</svg>
