<?xml version="1.0" encoding="UTF-8"?>
<svg width="16" height="16" version="1.1" xmlns="http://www.w3.org/2000/svg">
 <path d="m12.2 2c-0.633 2e-3 -1.31 0.045-1.9 0.045-1.3 0-2.58-0.0462-3.72 0.0375-1.75 0.129-3.05 0.893-3.94 1.86-0.915 0.985-1.63 2.38-1.63 4.09 0 1.78 0.693 3.12 1.63 4.09 0.891 0.927 2.21 1.75 3.87 1.86 3.06 0.205 5.09-1.51 5.99-3.68 0.582-1.41 1.29-3.1 1.9-4.59 0.184-0.448 0.546-1.02 0.606-1.55 0.121-1.07-0.451-1.69-1.18-1.97-0.406-0.16-0.995-0.198-1.63-0.196zm0.541 0.683c0.429-0.0184 0.877 0.274 0.822 0.84-0.0617 0.644-0.705 1.09-0.985 1.52h0.985c0.0592 0.0869 0.0592 0.368 0 0.455-0.495-0.0486-1.05-0.0404-1.59-0.0387-0.232-0.851 1.21-1.42 1.06-2.12-0.0685-0.33-0.539-0.341-0.454 0.151h-0.569c-0.01-0.528 0.353-0.786 0.731-0.803zm-5.69 0.503c1.46 5e-3 2.51 0.583 3.25 1.25 0.929 0.834 1.79 2.53 1.48 4.4-0.255 1.52-1.11 2.73-2.5 3.49-1.51 0.823-3.42 0.7-4.78-0.114-1.31-0.785-2.54-2.31-2.35-4.7 0.103-1.27 0.656-2.16 1.36-2.88 0.66-0.675 1.59-1.26 2.88-1.4 0.225-0.0241 0.442-0.0357 0.65-0.035zm-1.67 1.29v1.02h0.873c0.0836 0.295 0.237 0.52 0.302 0.834-0.748 1.28-1.6 2.67-2.35 3.9-0.0963 0.16-0.239 0.351-0.228 0.531h1.29c0.656-0.936 1.22-1.96 1.9-2.88 0.375 1.07 0.821 2.06 1.18 3.15 0.717-0.179 1.44-0.351 2.05-0.644-0.17-0.284-0.197-0.713-0.379-0.986-0.286 0.118-0.582 0.227-0.91 0.304-0.613-1.79-1.36-3.44-1.97-5.23z" fill="#bebebe"/>
</svg>
