<?xml version="1.0" encoding="UTF-8"?>
<svg width="16" height="16" version="1.1" xmlns="http://www.w3.org/2000/svg">
 <path d="m8 2c-2.42-7e-3 -4.98 1.01-6.31 3.12-0.972 1.5-0.899 3.55 0.152 4.99 0.606 0.871 1.46 1.55 2.41 2.02 0.276 1.12-0.446 2.19-1.25 2.91 1.53-0.098 2.9-1.01 3.91-2.12 2.17 0.321 4.49-0.264 6.2-1.65 1.42-1.13 2.25-3.07 1.75-4.86-0.584-2.19-2.66-3.64-4.78-4.14-0.68-0.166-1.38-0.248-2.08-0.248zm0.0684 2.02c0.586 0 1.08 0.169 1.49 0.508 0.446 0.371 0.666 0.867 0.666 1.49 0 0.479-0.135 0.891-0.405 1.24-0.082 0.115-0.326 0.348-0.736 0.699-0.269 0.236-0.404 0.458-0.404 0.662v0.334h-1.62v-0.545c0-0.364 0.129-0.704 0.387-1.02 0.0059-0.0128 0.242-0.249 0.711-0.709 0.258-0.249 0.387-0.479 0.387-0.69 0-0.14-0.0509-0.256-0.15-0.346-0.0996-0.0958-0.217-0.143-0.352-0.143-0.176 0-0.307 0.0704-0.394 0.211-0.0879 0.14-0.129 0.31-0.123 0.508h-1.57v-0.154c0-0.632 0.213-1.14 0.641-1.51 0.392-0.351 0.885-0.527 1.48-0.527zm-0.0977 5.98c0.286 0 0.519 0.0929 0.697 0.277 0.185 0.185 0.277 0.421 0.277 0.707 0 0.287-0.0927 0.519-0.277 0.698-0.178 0.185-0.411 0.277-0.697 0.277s-0.522-0.092-0.707-0.277c-0.178-0.179-0.268-0.411-0.268-0.698 0-0.286 0.0893-0.522 0.268-0.707 0.185-0.184 0.42-0.277 0.707-0.277z" fill="#bebebe"/>
</svg>
