<?xml version="1.0" encoding="UTF-8"?>
<svg width="16" height="16" version="1.1" xmlns="http://www.w3.org/2000/svg">
 <path d="m3.47 3-2.44 7h1.72l0.406-1.25h2.66l0.438 1.25h1.72l-2.47-7zm5.53 0v7h2.02v-0.719c0.243 0.308 0.331 0.508 0.626 0.656 0.295 0.145 0.616 0.219 1 0.219 0.679-1e-6 1.25-0.234 1.69-0.75 0.437-0.519 0.656-1.19 0.656-2-6e-6 -0.814-0.22-1.48-0.656-2-0.437-0.519-1.01-0.781-1.69-0.781-0.384 5.4e-6 -0.705 0.071-1 0.219-0.295 0.145-0.383 0.379-0.626 0.688v-2.53zm-4.5 1.66 0.906 2.78h-1.81zm7.49 1.19c0.377 4.2e-6 0.678 0.142 0.875 0.406 0.2 0.264 0.281 0.653 0.281 1.16-5e-6 0.503-0.081 0.892-0.281 1.16-0.197 0.264-0.498 0.375-0.875 0.375-0.378 1.1e-6 -0.485-0.111-0.689-0.375-0.2-0.267-0.281-0.656-0.281-1.16-3e-6 -0.5 0.081-0.892 0.281-1.16 0.204-0.267 0.311-0.406 0.689-0.406zm-7 6.16 3 3 3-3z" fill="#bebebe"/>
</svg>
