<?xml version="1.0" encoding="UTF-8"?>
<svg width="16" height="16" version="1.1" xmlns="http://www.w3.org/2000/svg">
 <path d="m5.49 1c-0.681-0.0199-1.29 0.232-1.71 0.737-0.412 0.505-0.598 1.17-0.674 1.86-0.153 1.37 0.0824 2.97 0.326 4.54 0.243 1.57 0.504 3.12 0.506 4.13 0 0.505-0.0759 0.849-0.135 0.963-0.0593 0.114-0.038 0.135-0.294 0.127-0.578-0.0179-0.776-0.254-0.982-0.78-0.205-0.525-0.296-1.38-0.277-2.26 0.038-1.77 0.228-2.33 0.228-2.33h-1.48s0.0529 0.629 0.00943 2.67c-0.0213 1.02-0.038 1.7 0.323 2.62 0.361 0.923 1.14 1.67 2.15 1.7 0.588 0.0179 1.17-0.333 1.45-0.887 0.286-0.554 0.341-1.18 0.34-1.84 0-1.32-0.291-2.89-0.53-4.43-0.239-1.55-0.419-3.07-0.313-4.02 0.0528-0.474 0.165-0.768 0.295-0.928 0.13-0.159 0.305-0.272 0.732-0.26 0.421 0.0119 0.64 0.124 0.761 0.238 0.121 0.114 0.192 0.252 0.243 0.528 0.101 0.553-0.0111 1.58-0.197 2.64-0.185 1.07-0.427 2.17-0.405 3.2 0.0111 0.513 0.0907 1.05 0.383 1.5 0.292 0.452 0.778 0.708 1.29 0.741 0.427 0.0268 0.816-0.0507 1.15-0.272 0.329-0.222 0.567-0.587 0.697-0.953 0.261-0.733 0.22-1.47 0.197-2.14-0.0232-0.671-0.038-1.29 0.0194-1.56 0.0287-0.135 0.0519-0.154 0.0528-0.155 5.56e-4 -5.96e-4 0.0204-0.0338 0.186-0.0288 0.202 0 0.221 0.0427 0.251 0.0736 0.0306 0.0308 0.0852 0.122 0.18 0.321 0.0946 0.199 0.23 0.505 0.498 0.77s0.651 0.436 1.09 0.459c1.49-0.274 2.12-0.998 3.15-0.0835v-1.65c-1.38-0.732-2.12-0.16-3.1 0.105-0.222-0.0119-0.266-0.0586-0.306-0.0984-0.0398-0.0398-0.0929-0.129-0.184-0.321-0.0917-0.193-0.218-0.49-0.48-0.756-0.262-0.266-0.644-0.434-1.07-0.447-0.383-0.0119-0.761 0.107-1.05 0.386-0.286 0.279-0.437 0.664-0.512 1.02-0.15 0.71-0.0843 1.4-0.062 2.04 0.0222 0.638-0.00926 1.2-0.0861 1.42-0.0398 0.111-0.0611 0.137-0.118 0.175-0.0565 0.0378-0.182 0.0895-0.437 0.0736-0.255-0.0159-0.284-0.0696-0.318-0.122-0.0343-0.0527-0.0907-0.215-0.097-0.532-0.0139-0.633 0.185-1.71 0.377-2.81 0.192-1.11 0.392-2.25 0.194-3.34-0.0992-0.543-0.332-1.09-0.733-1.47-0.402-0.377-0.926-0.558-1.54-0.576z" color="#000000" color-rendering="auto" fill="#bebebe" image-rendering="auto" shape-rendering="auto" solid-color="#000000" style="isolation:auto;mix-blend-mode:normal;paint-order:normal;text-decoration-color:#000000;text-decoration-line:none;text-decoration-style:solid;text-indent:0;text-transform:none;white-space:normal"/>
</svg>
