<?xml version="1.0" encoding="UTF-8"?>
<svg width="16" height="16" version="1.1" viewBox="0 0 16 16" xmlns="http://www.w3.org/2000/svg">
 <path d="m2.5 1a1.5 1.5 0 0 0-1.5 1.5 1.5 1.5 0 0 0 1.5 1.5 1.5 1.5 0 0 0 1.41-1h1.67l0.707 0.707 0.707-0.707-1-1h-2.09a1.5 1.5 0 0 0-1.41-1zm7.5 0v1h-1v1h-1v1h1v1h-1v1h1v1h1v1h1v-1h1v1h1v-1h1v-1h1v-1h-1v-1h1v-1h-1v-1h-1v-1h-1v1h-1v-1h-1zm-7.5 1a0.5 0.5 0 0 1 0.5 0.5 0.5 0.5 0 0 1-0.5 0.5 0.5 0.5 0 0 1-0.5-0.5 0.5 0.5 0 0 1 0.5-0.5zm-1.5 3v1h2.59l0.668 0.668a1.5 1.5 0 0 0-0.254 0.832 1.5 1.5 0 0 0 1.5 1.5 1.5 1.5 0 0 0 1.5-1.5 1.5 1.5 0 0 0-1.5-1.5 1.5 1.5 0 0 0-0.447 0.0684l-1.05-1.07h-3zm4.5 2a0.5 0.5 0 0 1 0.5 0.5 0.5 0.5 0 0 1-0.5 0.5 0.5 0.5 0 0 1-0.5-0.5 0.5 0.5 0 0 1 0.5-0.5zm-4.5 1v1h1.42l1.71 2h0.867l0.709 1.23a1.5 1.5 0 0 0-0.621 0.771h-0.355l-1.73-1h-2v1h1.42l1.71 1h0.955a1.5 1.5 0 0 0 1.41 1 1.5 1.5 0 0 0 1.5-1.5 1.5 1.5 0 0 0-1.26-1.48l-0.588-1.02h2.85l0.709 1.23a1.5 1.5 0 0 0-0.709 1.27 1.5 1.5 0 0 0 1.5 1.5 1.5 1.5 0 0 0 1.5-1.5 1.5 1.5 0 0 0-1.26-1.48l-0.588-1.02h1.93a1.5 1.5 0 0 0 1.41 1 1.5 1.5 0 0 0 1.5-1.5 1.5 1.5 0 0 0-1.5-1.5 1.5 1.5 0 0 0-1.41 1h-7.36l-1.73-2h-2zm12.5 2a0.5 0.5 0 0 1 0.5 0.5 0.5 0.5 0 0 1-0.5 0.5 0.5 0.5 0 0 1-0.5-0.5 0.5 0.5 0 0 1 0.5-0.5zm-7 3a0.5 0.5 0 0 1 0.5 0.5 0.5 0.5 0 0 1-0.5 0.5 0.5 0.5 0 0 1-0.5-0.5 0.5 0.5 0 0 1 0.5-0.5zm4 0a0.5 0.5 0 0 1 0.5 0.5 0.5 0.5 0 0 1-0.5 0.5 0.5 0.5 0 0 1-0.5-0.5 0.5 0.5 0 0 1 0.5-0.5z" fill="#bebebe"/>
</svg>
