<?xml version="1.0" encoding="UTF-8"?>
<svg width="16" height="16" version="1.1" xmlns="http://www.w3.org/2000/svg">
 <path d="m8 1c-3.87 0-7 3.13-7 7 0 3.87 3.13 7 7 7s7-3.13 7-7c0-3.87-3.13-7-7-7zm-1.91 4.27c0.719 0.0264 1.42 0.279 2 0.793 0.217 0.195 0.415 0.423 0.602 0.738s0.393 0.733 0.711 1.45c0.331 0.748 0.496 1.19 0.629 1.45 0.133 0.261 0.203 0.32 0.301 0.41 0.212 0.196 0.373 0.273 0.766 0.273 0.31 0 0.558-0.104 0.738-0.246 0.181-0.142 0.301-0.313 0.301-0.547 0-0.213-0.0362-0.325-0.164-0.438-0.128-0.113-0.386-0.208-0.82-0.355-0.675-0.23-1.12-0.483-1.42-0.766-0.304-0.283-0.437-0.629-0.438-1.07-5.77e-4 -0.469 0.145-0.826 0.465-1.15 0.477-0.481 1.29-0.617 2-0.383 0.179 0.0596 0.382 0.226 0.574 0.383 0.0962 0.0783 0.179 0.144 0.246 0.219 0.0337 0.0372 0.0586 0.0721 0.082 0.109s0.0547 0.0715 0.0547 0.137c0 0.0648-0.0369 0.0858-0.0547 0.109-0.0178 0.0235-0.0331 0.0625-0.0547 0.082-0.0431 0.0391-0.105 0.0706-0.164 0.109-0.118 0.0776-0.258 0.159-0.383 0.191-0.0799 0.0204-0.179 0.00658-0.246-0.0273-0.0675-0.0339-0.0764-0.0817-0.137-0.137-0.216-0.197-0.367-0.246-0.629-0.246-0.215 0-0.362 0.0676-0.465 0.164-0.103 0.0965-0.164 0.218-0.164 0.41 0 0.201 0.0255 0.3 0.164 0.41 0.139 0.11 0.432 0.232 0.902 0.383 0.663 0.212 1.08 0.4 1.37 0.684 0.288 0.284 0.405 0.663 0.41 1.12 0.0087 0.799-0.395 1.41-1.15 1.75-0.333 0.15-0.477 0.165-1.01 0.164-0.772-0.0011-1.2-0.155-1.64-0.629-0.314-0.336-0.602-0.914-1.53-3.01-0.374-0.844-0.796-1.23-1.59-1.39-0.375-0.0759-0.968 0.0194-1.31 0.191-0.329 0.164-0.725 0.56-0.902 0.902-0.159 0.307-0.191 0.319-0.191 0.848 0 0.505 0.0343 0.605 0.164 0.875 0.186 0.388 0.567 0.729 0.984 0.93 0.316 0.152 0.372 0.191 0.875 0.191 0.485 0 0.593-0.0346 0.875-0.164 0.291-0.134 0.705-0.468 0.875-0.711l0.0273-0.0273 0.0547-0.137a0.135 0.135 0 0 1 0.0273-0.0273 0.135 0.135 0 0 1 0.0273-0.0273 0.135 0.135 0 0 1 0-0.0273 0.135 0.135 0 0 1 0.0273 0 0.135 0.135 0 0 1 0.0273 0 0.135 0.135 0 0 1 0.0273 0 0.135 0.135 0 0 1 0.0273 0 0.135 0.135 0 0 1 0.0273 0.0273 0.135 0.135 0 0 1 0.0273 0.0273 0.135 0.135 0 0 1 0 0.0273l0.219 0.41a0.135 0.135 0 0 1 0.0273 0c0.0529 0.114 0.102 0.21 0.137 0.301 0.0175 0.0453 0.0167 0.0762 0.0273 0.109 0.0106 0.0331 0.0273 0.0502 0.0273 0.109 0 0.0583-0.0085 0.105-0.0273 0.137-0.0188 0.0317-0.0552 0.0508-0.082 0.082-0.0538 0.0625-0.137 0.147-0.219 0.219-0.164 0.143-0.344 0.264-0.547 0.383-0.617 0.362-1.35 0.508-2.11 0.41-0.228-0.0298-0.562-0.129-0.82-0.246-1.65-0.748-2.37-2.68-1.56-4.27 0.466-0.911 1.36-1.47 2.3-1.64 0.235-0.0429 0.471-0.0635 0.711-0.0547z" fill="#bebebe"/>
</svg>
