<?xml version="1.0" encoding="UTF-8"?>
<svg width="16" height="16" version="1.1" xmlns="http://www.w3.org/2000/svg">
 <path d="m8.3 1c-0.197 3e-3 -0.399 0.077-0.535 0.219l-5.28 5.25c-0.19 0.184-0.262 0.474-0.194 0.729s0.254 0.443 0.511 0.511c0.257 0.0675 0.544-0.0051 0.729-0.194l5.06-5.03h4.13v4.23l-6.54 6.52-2.63-2.63 4.3-4.28h0.997v1.05l-2.72 2.72c-0.19 0.184-0.262 0.449-0.194 0.705s0.278 0.443 0.535 0.511c0.257 0.067 0.52-6e-3 0.705-0.195l2.94-2.94c0.142-0.135 0.24-0.314 0.243-0.511v-2.07c3e-3 -0.199-0.078-0.394-0.219-0.535s-0.335-0.222-0.535-0.219h-2.04c-0.197 3e-3 -0.399 0.077-0.535 0.219l-5.06 5.03c-0.287 0.286-0.288 0.759 0 1.04l3.67 3.65c0.288 0.287 0.758 0.286 1.05 0l7.29-7.27c0.143-0.135 0.241-0.314 0.244-0.511l-0.025-5.25c-1e-3 -0.229-0.107-0.445-0.291-0.584-0.13-0.104-0.272-0.169-0.438-0.17h-5.18z" fill="#bebebe"/>
</svg>
