<?xml version="1.0" encoding="UTF-8"?>
<svg width="16" height="16" version="1.1" xmlns="http://www.w3.org/2000/svg">
 <path d="m10.8 2.03c-0.229 0.17-0.905 1.36-1.58 2.78-0.274 0.578-0.661 1.33-0.856 1.68-0.58 1.03-2 2.9-2.65 3.5l-0.612 0.563 0.457 0.463c0.28 0.285 0.65 0.878 0.957 1.54 0.583 1.26 0.684 1.44 0.795 1.44 0.0528 0 0.351-0.157 0.684-0.354 0.743-0.448 1.44-1.05 2.38-2.07 1.47-1.6 2.58-1.93 3.94-1.2 0.368 0.199 0.671 0.324 0.671 0.278 0-0.049-0.187-0.53-0.412-1.07-0.225-0.541-0.839-2.07-1.36-3.4-0.372-0.582-1.59-4.56-2.41-4.15m-2.94 3.27c-0.783 0.226-1.52 0.648-2.09 1.09-0.242 0.221-0.439 0.455-0.439 0.524 0 0.213 0.982 0.782 1.14 0.662 0.0781-0.0585 0.385-0.477 0.682-0.932 0.524-0.811 0.795-1.33 0.703-1.34m-3.49 2.3c-0.213 0-3.23 1.08-3.37 1.21-0.042 0.037 0.00215 0.106 0.0991 0.157 0.0969 0.0525 0.648 0.403 1.23 0.78 0.583 0.377 1.09 0.684 1.13 0.686 0.0355 0 0.303-0.133 0.589-0.297 0.601-0.344 1.76-1.41 1.76-1.61-0.00431-0.182-1.16-0.928-1.43-0.928" fill="#bebebe"/>
</svg>
