<?xml version="1.0" encoding="UTF-8"?>
<svg width="16" height="16" version="1.1" xmlns="http://www.w3.org/2000/svg">
 <path d="m11 2v2h-1.03c-3.57 0-4.14 2.51-6.25 4.31-0.51 0.437-0.988 0.688-1.75 0.688h-0.969v2h0.969c1.26 0 2.3-0.505 3.06-1.19 1.79-1.6 2.57-3.81 4.94-3.81h1.03v2l4-3-4-3zm0 6v2h-1.03c-1.12 0-1.88-0.524-2.56-1.22-0.383 0.464-0.82 0.951-1.34 1.47 0.902 0.98 1.94 1.75 3.91 1.75h1.03v2l4-3-4-3zm-10-3v2h0.969c0.514 0 0.898 0.136 1.25 0.344 0.481-0.447 0.898-0.966 1.34-1.5-0.704-0.493-1.57-0.844-2.59-0.844h-0.969z" fill="#bebebe"/>
</svg>
