<?xml version="1.0" encoding="UTF-8"?>
<svg width="16" height="16" version="1.1" xmlns="http://www.w3.org/2000/svg">
 <path d="m6.5 1c-3.04 0-5.5 2.46-5.5 5.5 0 1.76 0.842 3.31 2.12 4.31-0.0866-0.422-0.125-0.864-0.125-1.31 0-3.59 2.91-6.5 6.5-6.5 0.449 0 0.89 0.0384 1.31 0.125-1.01-1.28-2.56-2.12-4.31-2.12zm3 3c-3.04 0-5.5 2.46-5.5 5.5 0 3.04 2.46 5.5 5.5 5.5 3.04 0 5.5-2.46 5.5-5.5 0-3.04-2.46-5.5-5.5-5.5zm0 4c0.828 0 1.5 0.672 1.5 1.5 0 0.828-0.672 1.5-1.5 1.5-0.828 0-1.5-0.672-1.5-1.5 0-0.828 0.672-1.5 1.5-1.5z" fill="#bebebe"/>
</svg>
