<?xml version="1.0" encoding="UTF-8"?>
<svg width="16" height="16" version="1.1" xmlns="http://www.w3.org/2000/svg">
 <path d="m3 1c-1.11 0-2 0.895-2 2s0.89 2 2 2c1.1 0 2-0.895 2-2s-0.9-2-2-2zm7.5 0c-1.38 0-2.5 1.12-2.5 2.5v4c0 1.38 1.12 2.5 2.5 2.5 1.39 0 2.5-1.12 2.5-2.5v-4c0-1.38-1.11-2.5-2.5-2.5zm-7.5 1c0.55 0 1 0.448 1 1s-0.45 1-1 1-1-0.448-1-1 0.45-1 1-1zm11.5 3c-0.28 0-0.5 0.226-0.5 0.502v2c0 1.94-1.56 3.5-3.5 3.5-1.94 0-3.5-1.56-3.5-3.5v-2c0-0.276-0.224-0.501-0.5-0.5-0.276 0-0.5 0.224-0.5 0.5v2c0 1.96 1.25 3.6 3 4.22v1.28h-2c-0.554 0-1 0.45-1 1v1h9v-1c0-0.55-0.45-1-1-1h-2v-1.28c1.75-0.62 3-2.26 3-4.22v-2c0-0.276-0.22-0.502-0.5-0.502zm-11.5 1c-1.11 0-2 0.895-2 2s0.89 2 2 2c1.1 0 2-0.895 2-2s-0.9-2-2-2zm0 1c0.55 0 1 0.448 1 1s-0.45 1-1 1-1-0.448-1-1 0.45-1 1-1zm0 4c-1.1 0-2 0.9-2 2s0.895 2 2 2 2-0.9 2-2-0.895-2-2-2z" fill="#bebebe"/>
</svg>
