<?xml version="1.0" encoding="UTF-8"?>
<svg width="16" height="16" version="1.1" xmlns="http://www.w3.org/2000/svg">
 <path d="m8 13a1 1 0 0 0-1 1 1 1 0 0 0 1 1 1 1 0 0 0 1-1 1 1 0 0 0-1-1zm3 0a1 1 0 0 0-1 1 1 1 0 0 0 1 1 1 1 0 0 0 1-1 1 1 0 0 0-1-1zm3 0a1 1 0 0 0-1 1 1 1 0 0 0 1 1 1 1 0 0 0 1-1 1 1 0 0 0-1-1z" fill="#bebebe"/>
 <path d="m14.2 1c-0.202 0-0.405 0.0791-0.562 0.236l-1.75 1.75h-1.88c-0.165 0.0033-0.322 0.0706-0.438 0.188l-2.38 2.38c-0.236 0.244-0.236 0.631 0 0.875l2.38 2.38c0.151 0.162 0.376 0.233 0.594 0.188 0.109-0.0359 0.206-0.101 0.281-0.188l2.38-2.38c0.117-0.116 0.185-0.273 0.188-0.438v-1.88l1.75-1.75c0.314-0.314 0.314-0.811 0-1.12-0.158-0.157-0.36-0.236-0.563-0.236zm-8.37 6.01c-0.109 0.0359-0.206 0.101-0.281 0.188l-2.38 2.38c-0.117 0.116-0.185 0.273-0.188 0.438v1.88l-1.75 1.75c-0.314 0.314-0.314 0.81 0 1.12 0.314 0.314 0.811 0.314 1.12 0l1.75-1.75h1.88c0.165-4e-3 0.322-0.071 0.438-0.188l2.38-2.38c0.236-0.244 0.236-0.63 0-0.875l-2.38-2.38c-0.151-0.162-0.376-0.233-0.594-0.188z" fill="#bebebe" opacity=".45"/>
</svg>
