<?xml version="1.0" encoding="UTF-8"?>
<svg width="16" height="16" version="1.1" xmlns="http://www.w3.org/2000/svg">
 <path d="m9 5c-0.554 0-1 0.446-1 1v5.62c0-0.642 0.446-1.1 1-1.36v-1.64c0-0.432 0.172-0.925 0.522-1.23 0.151-0.133 0.315-0.218 0.478-0.279v-1.11c0-0.554-0.446-1-1-1zm-3 2c-0.554 0-1 0.446-1 1v4c0 0.554 0.446 1 1 1s1-0.446 1-1v-4c0-0.554-0.446-1-1-1zm4.62 1c-0.346 0-0.625 0.172-0.625 0.625v2.38h-0.375c-0.346 0-0.625 0.279-0.625 0.625v2.75c0 0.346 0.279 0.625 0.625 0.625h4.75c0.346 0 0.625-0.279 0.625-0.625v-2.75c0-0.346-0.279-0.625-0.625-0.625h-0.375v-2.38c0-0.346-0.279-0.625-0.625-0.625h-2.75zm-7.62 1c-0.554 0-1 0.446-1 1v2c0 0.554 0.446 1 1 1s1-0.446 1-1v-2c0-0.554-0.446-1-1-1zm8 0h2v2h-2v-2z" fill="#bebebe"/>
 <path d="m12 2c-0.554 0-1 0.446-1 1v4h2v-4c0-0.554-0.446-1-1-1z" fill="#bebebe" opacity=".45"/>
</svg>
