<?xml version="1.0" encoding="UTF-8"?>
<svg width="16" height="16" version="1.1" xmlns="http://www.w3.org/2000/svg">
 <path d="m8 5a9 9 0 0 0-5.16 1.63l1.15 1.64a7 7 0 0 1 4.01-1.27 7 7 0 0 1 4.01 1.27l1.14-1.63a9 9 0 0 0-5.15-1.64zm0 3a6 6 0 0 0-3.44 1.09l1.15 1.64a4 4 0 0 1 2.29-0.727 4 4 0 0 1 2.3 0.725l1.14-1.64a6 6 0 0 0-3.44-1.09zm0 3a3 3 0 0 0-1.72 0.543l1.72 2.46 1.72-2.46a3 3 0 0 0-1.72-0.545z" fill="#bebebe"/>
 <path d="m8 2a12 12 0 0 0-6.88 2.17l1.15 1.64a10 10 0 0 1 5.73-1.82 10 10 0 0 1 5.73 1.81l1.14-1.63a12 12 0 0 0-6.87-2.18z" fill="#bebebe" opacity=".45"/>
</svg>
