<?xml version="1.0" encoding="UTF-8"?>
<svg width="16" height="16" version="1.1" xmlns="http://www.w3.org/2000/svg">
 <path d="m5 4v2h4v2h-2v4h2v-2h2v-6zm2 9v2h2v-2z" fill="#bebebe"/>
 <path d="m8 1c-2.46 0.00187-4.86 0.761-6.88 2.17l1.15 1.64c0.545-0.383 1.13-0.711 1.74-0.979 0.0787-0.485 0.497-0.84 0.988-0.84h6c0.487 0.00108 0.903 0.353 0.984 0.834 0.615 0.266 1.2 0.593 1.75 0.976l1.14-1.63c-2.01-1.42-4.41-2.18-6.88-2.18zm-4 3.96c-0.402 0.196-0.788 0.422-1.16 0.676l1.15 1.64c0.188-0.133 0.383-0.256 0.584-0.369-0.352-0.164-0.577-0.516-0.578-0.904zm8 0.0039v2.3c0.0053 0.00326 0.0107 0.00653 0.016 0.0098l1.14-1.63c-0.368-0.254-0.754-0.481-1.16-0.678zm-5.65 2.28c-0.639 0.182-1.24 0.469-1.79 0.85l1.15 1.64c0.0937-0.0647 0.19-0.125 0.289-0.182v-1.54c-1.04e-4 -0.293 0.128-0.572 0.352-0.762z" fill="#bebebe" opacity=".45"/>
</svg>
