<?xml version="1.0" encoding="UTF-8"?>
<svg width="16" height="16" version="1.1" xmlns="http://www.w3.org/2000/svg">
 <path class="error" d="m10.5 9-1.5 1.5 1.5 1.5-1.5 1.5 1.5 1.5 1.5-1.5 1.5 1.5 1.5-1.5-1.5-1.5 1.5-1.5-1.5-1.5-1.5 1.5z" fill="#d40000"/>
 <path d="m14.2 1c-0.21 0-0.419 0.0793-0.577 0.236l-0.761 0.762h-1.6c-0.153 8e-4 -0.3 0.0618-0.408 0.17l-2.17 2.17c-0.225 0.226-0.225 0.591 0 0.816l2.17 2.17c0.11 0.111 0.261 0.172 0.418 0.17 0.15-0.0027 0.294-0.0636 0.4-0.17l2.17-2.17c0.109-0.108 0.17-0.255 0.17-0.408v-1.6l0.762-0.754c0.314-0.315 0.314-0.837 0-1.15-0.158-0.157-0.367-0.236-0.576-0.236zm-9.45 7.51c-0.15 0.0027-0.294 0.0636-0.4 0.17l-2.17 2.17c-0.109 0.108-0.17 0.255-0.17 0.408v1.6l-0.762 0.754c-0.314 0.315-0.314 0.838 0 1.15 0.314 0.314 0.838 0.314 1.15 0l0.762-0.762h1.6c0.153-1e-3 0.3-0.062 0.408-0.17l2.17-2.17c0.225-0.226 0.225-0.591 0-0.816l-2.17-2.17c-0.111-0.111-0.261-0.172-0.418-0.17z" fill="#bebebe" opacity=".45"/>
</svg>
