<?xml version="1.0" encoding="UTF-8"?>
<svg width="16" height="16" version="1.1" xmlns="http://www.w3.org/2000/svg">
 <path d="m14.5 0.998a0.502 0.502 0 0 0-0.482 0.457c-0.376 3.97-2.1 6.57-4.78 8.67l0.742 0.729c2.78-2.25 4.64-5.12 5.04-9.3a0.502 0.502 0 0 0-0.518-0.551zm-13 0.0118a0.502 0.502 0 0 0-0.404 0.266 0.502 0.502 0 0 0 0.154 0.648c3.08 2.19 4.49 4.8 5.04 7.94l0.654-0.642a1 1 0 0 1 0.217-0.162c-0.692-3.09-2.25-5.77-5.33-7.95a0.502 0.502 0 0 0-0.332-0.0937zm6.15 8.92-0.264 0.259-2.3 2.26 2.6 2.55 2.57-2.52-1.77-1.74-0.82-0.802z" fill="#bebebe"/>
</svg>
