<?xml version="1.0" encoding="UTF-8"?>
<svg width="16" height="16" version="1.1" xmlns="http://www.w3.org/2000/svg">
 <path d="m8 1.7-2.16 4.38-4.84 0.701 3.5 3.41-0.828 4.81 4.33-2.27 4.33 2.27-0.824-4.81 3.5-3.41-4.84-0.703-2.16-4.38zm-2e-3 3.38 0.818 1.66a1.5 1.5 0 0 0 1.13 0.82l1.83 0.266-1.32 1.28a1.5 1.5 0 0 0-0.434 1.33l0.311 1.82-1.64-0.861a1.5 1.5 0 0 0-1.39 0l-1.63 0.857 0.312-1.82a1.5 1.5 0 0 0-0.431-1.33l-1.32-1.29 1.83-0.266a1.5 1.5 0 0 0 1.13-0.82l0.818-1.66z" fill="#bebebe"/>
</svg>
