<?xml version="1.0" encoding="UTF-8"?>
<svg width="16" height="16" version="1.1" xmlns="http://www.w3.org/2000/svg">
 <path d="m8 1-7 7 7 7 7-7c-2.33-2.33-7-7-7-7zm0.225 2.11c0.826 0.0389 1.49 0.502 1.59 1.05 0.0127 0.0661 0.00823 0.127 0.00781 0.189h0.15c0.101 7e-6 0.184 0.0823 0.184 0.184-0.0016 0.072-0.0273 0.176-0.182 0.182h-0.146v0.293c-0.0124-0.0185-0.028-0.0293-0.043-0.0293-0.0222-3.72e-4 -0.0453 0.0099-0.0586 0.0196-0.0439 0.0607-0.0289 0.118-0.0273 0.223v1.12h0.129v0.291c-0.213-0.0528-0.417-0.103-0.617-0.152v-1.04c-0.0325-0.404-0.227-0.567-0.525-0.576-0.29 0-0.525 0.258-0.525 0.576v0.824h-0.498v-1.04c-0.00403-0.15-0.134-0.245-0.25-0.242-0.139-0.00106-0.266 0.0954-0.266 0.242v1.12h0.414v1.94c1.01-0.0684 2 0.208 2.65 0.648 0.186 0.772 0.539 2.29 0.539 2.29l-0.367 0.367-4.83-1.15 0.734-3.21v-2.5h-0.174c-0.0904-4e-3 -0.174-0.0684-0.184-0.182 0-0.101 0.0826-0.184 0.184-0.184h0.174c0.00278-0.0967 0.0202-0.189 0.0488-0.275 0.2-0.606 0.982-0.957 1.64-0.963 0.116-0.00455 0.153 0.00119 0.246 0.00192zm-1.64 1.89c-0.0957-3.3e-6 -0.154 0.0744-0.154 0.229-5.25e-5 0.378-3.58e-4 1.13-3.58e-4 1.13h0.314v-1.12c0.00712-0.175-0.0555-0.24-0.16-0.244zm1.22 1.51h0.248v0.0801c0.883-0.0623 3.28 0.527 3.33 1.38-9.74e-4 0.234 3.04e-4 0.748 3.28e-4 1-4.34e-4 0.193-0.318 0.414-0.789 0.502-0.059-0.256-0.0984-0.404-0.158-0.658-0.234-0.449-1.51-0.755-2.38-0.826v0.0391h-0.248zm-2.17 2.4c-0.123 0.546-0.383 1.7-0.383 1.7l4.92 1.18-1.23 1.23-2.36-0.479-2.24-2.24s-7.51e-4 -0.297 0-0.445c0.01-0.287 0.616-0.661 1.3-0.941zm1.29 3.96 1.8 0.358-0.725 0.725z" fill="#bebebe"/>
</svg>
