<?xml version="1.0" encoding="UTF-8"?>
<svg width="16" height="16" version="1.1" xmlns="http://www.w3.org/2000/svg">
 <path d="m7 1a6 6 0 0 0-6 6 6 6 0 0 0 6 6 6 6 0 0 0 6-6 6 6 0 0 0-6-6zm6.7 8c-0.333 1.11-0.935 2.13-1.75 2.95-0.817 0.817-1.84 1.42-2.95 1.75v1.3h6v-6h-1.3z" fill="#bebebe"/>
 <path d="m13.3 4c0.154 0.324 0.289 0.657 0.393 1h1.3v-1zm0.691 3c0 0.335-0.0347 0.669-0.084 1h1.08v-1zm-10 6.31v1.69h1v-1.3c-0.343-0.103-0.676-0.239-1-0.393zm4 0.607c-0.331 0.0493-0.665 0.084-1 0.084v1h1z" fill="#bebebe" opacity=".45"/>
</svg>
