<?xml version="1.0" encoding="UTF-8"?>
<svg width="16" height="16" version="1.1" xmlns="http://www.w3.org/2000/svg">
 <path d="m4.5 1.94a7 7 0 0 0-3.5 6.06h7l-3.5-6.06zm3.5 6.06h7a7 7 0 0 0-3.5-6.06l-3.5 6.06zl-3.5 6.06a7 7 0 0 0 7 0l-3.5-6.06z" fill="#bebebe"/>
 <path d="m8 1a7 7 0 0 0-3.5 0.945l3.5 6.05 3.5-6.06a7 7 0 0 0-3.5-0.943zm0 7 3.5 6.06a7 7 0 0 0 3.5-6.06h-7zh-7a7 7 0 0 0 3.5 6.06l3.5-6.06zm7 0a7 7 0 0 0-0.029-0.6 7 7 0 0 1 0.029 0.6zm-10.6-5.97a7 7 0 0 0-0.266 0.17 7 7 0 0 1 0.266-0.17zm7.52 0.141a7 7 0 0 1 0.254 0.182 7 7 0 0 0-0.254-0.182zm-8.11 0.262a7 7 0 0 0-0.242 0.193 7 7 0 0 1 0.242-0.193zm8.68 0.156a7 7 0 0 1 0.241 0.213 7 7 0 0 0-0.241-0.213zm-9.2 0.281a7 7 0 0 0-0.242 0.236 7 7 0 0 1 0.242-0.236zm9.7 0.18a7 7 0 0 1 0.237 0.254 7 7 0 0 0-0.237-0.254zm-10.2 0.318a7 7 0 0 0-0.227 0.27 7 7 0 0 1 0.227-0.27zm10.7 0.205a7 7 0 0 1 0.197 0.258 7 7 0 0 0-0.197-0.258zm-11.1 0.334a7 7 0 0 0-0.195 0.287 7 7 0 0 1 0.195-0.287zm11.5 0.23a7 7 0 0 1 0.186 0.301 7 7 0 0 0-0.186-0.301zm-11.9 0.383a7 7 0 0 0-0.142 0.262 7 7 0 0 1 0.142-0.262zm12.3 0.205a7 7 0 0 1 0.156 0.324 7 7 0 0 0-0.156-0.324zm-12.6 0.41a7 7 0 0 0-0.129 0.303 7 7 0 0 1 0.129-0.303zm12.9 0.238a7 7 0 0 1 0.112 0.301 7 7 0 0 0-0.112-0.301zm-13.1 0.398a7 7 0 0 0-0.104 0.342 7 7 0 0 1 0.104-0.342zm13.3 0.266a7 7 0 0 1 0.078 0.299 7 7 0 0 0-0.078-0.299zm-13.5 0.394a7 7 0 0 0-0.0742 0.373 7 7 0 0 1 0.0742-0.373zm13.7 0.283a7 7 0 0 1 0.051 0.336 7 7 0 0 0-0.051-0.336zm-13.8 0.41a7 7 0 0 0-0.0351 0.357 7 7 0 0 1 0.0351-0.357zm3.52 6.98a7 7 0 0 0 0.297 0.151 7 7 0 0 1-0.297-0.151zm6.61 0.125a7 7 0 0 1-0.287 0.129 7 7 0 0 0 0.287-0.129zm-6 0.178a7 7 0 0 0 0.336 0.133 7 7 0 0 1-0.336-0.133zm5.36 0.108a7 7 0 0 1-0.27 0.091 7 7 0 0 0 0.27-0.091zm-4.7 0.144a7 7 0 0 0 0.33 0.094 7 7 0 0 1-0.33-0.094zm0.67 0.18a7 7 0 0 0 0.34 0.06 7 7 0 0 1-0.34-0.06zm0.701 0.113a7 7 0 0 0 0.322 0.024 7 7 0 0 1-0.322-0.024zm1.27 0.029a7 7 0 0 1-0.578 0.014 7 7 0 0 0 0.082 4e-3 7 7 0 0 0 0.496-0.018z" fill="#bebebe" opacity=".45"/>
</svg>
