<?xml version="1.0" encoding="UTF-8"?>
<svg width="16" height="16" version="1.1" xmlns="http://www.w3.org/2000/svg">
 <path d="m7 1a6 6 0 0 0-6 6 6 6 0 0 0 6 6 6 6 0 0 0 6-6 6 6 0 0 0-6-6zm6.92 5c0.0493 0.331 0.084 0.665 0.084 1 0 1.83-0.755 3.65-2.05 4.95-1.3 1.3-3.12 2.05-4.95 2.05-0.335 0-0.669-0.0347-1-0.084v1.08h9v-9h-1.08z" fill="#bebebe"/>
 <path d="m13.3 4c8.76e-4 0.00185 0.0011 0.00401 2e-3 0.00586 0.152 0.322 0.288 0.653 0.391 0.994h1.3v-1zm-9.31 9.31v1.69h1v-1.3c-0.341-0.103-0.672-0.238-0.994-0.391-0.0019-8.81e-4 -4e-3 -0.0011-0.0059-2e-3z" fill="#bebebe" opacity=".45"/>
</svg>
