<?xml version="1.0" encoding="UTF-8"?>
<svg width="16" height="16" version="1.1" xmlns="http://www.w3.org/2000/svg">
 <path d="m4.93 1c-1.12-0.00923-2.34 0.513-3.6 1.73a0.82 0.861 0 1 0 1.1 1.26c1.22-1.18 2.04-1.37 2.77-1.26s1.5 0.629 2.36 1.29c0.858 0.662 1.78 1.44 2.97 1.8 1.2 0.364 2.64 0.19 4.12-0.889a0.828 0.87 0 0 0-0.947-1.43c-1.18 0.86-1.94 0.911-2.72 0.674-0.778-0.237-1.6-0.88-2.48-1.56s-1.85-1.41-3.1-1.59c-0.156-0.0225-0.313-0.0339-0.473-0.0352zm0.0723 7 3 3 3-3h-6zm-3.21 5a0.821 1 0 1 0 0.0761 2h12.3a0.821 1 0 1 0 0-2h-12.3a0.821 1 0 0 0-0.0758 0z" fill="#bebebe"/>
</svg>
