<?xml version="1.0" encoding="UTF-8"?>
<svg width="16" height="16" version="1.1" xmlns="http://www.w3.org/2000/svg">
 <path d="m1 2v2c1.75 0 2.39 0.54 3.22 1.26s1.94 1.74 3.78 1.74 2.94-1.02 3.78-1.74c0.839-0.719 1.47-1.26 3.22-1.26v-2c-2.25 0-3.61 0.96-4.53 1.74-0.911 0.781-1.31 1.26-2.47 1.26s-1.56-0.479-2.47-1.26-2.28-1.74-4.53-1.74zm7 7c-1.83 0-2.94 1.02-3.78 1.74-0.839 0.719-1.47 1.26-3.22 1.26v2c2.25 0 3.61-0.96 4.53-1.74 0.911-0.781 1.31-1.26 2.47-1.26s1.56 0.479 2.47 1.26c0.911 0.781 2.28 1.74 4.53 1.74v-2c-1.75 0-2.39-0.54-3.22-1.26-0.839-0.719-1.94-1.74-3.78-1.74z" fill="#bebebe"/>
</svg>
