<?xml version="1.0" encoding="UTF-8"?>
<svg width="16" height="16" version="1.1" xmlns="http://www.w3.org/2000/svg">
 <path d="m6 1a5 5 0 0 0-5 5 5 5 0 0 0 4 4.9v3e-3a5 5 0 0 0 0.0625 0.01 5 5 0 0 0 0.279 0.043 5 5 0 0 0 0.221 0.028 5 5 0 0 0 0.416 0.021 5 5 0 0 0 0.0215 0 5 5 0 0 0 4.9-4h3e-3a5 5 0 0 0 0.01-0.0625 5 5 0 0 0 0.043-0.279 5 5 0 0 0 0.028-0.221 5 5 0 0 0 0.021-0.416 5 5 0 0 0 0-0.0137 5 5 0 0 0 0-0.0078 5 5 0 0 0-5-5zm0 2a3 3 0 0 1 2.83 2h-2e-3a3 3 0 0 1 0.086 0.287 3 3 0 0 1 0.0566 0.285 3 3 0 0 1 2e-3 0.0097 3 3 0 0 1 0.0039 0.043 3 3 0 0 1 0.0214 0.213 3 3 0 0 1 0.0059 0.162 3 3 0 0 1-0.0605 0.596 3 3 0 0 1-0.0957 0.35 3 3 0 0 1-1.84 1.88v-2e-3a3 3 0 0 1-0.287 0.086 3 3 0 0 1-0.285 0.0566 3 3 0 0 1-0.0097 2e-3 3 3 0 0 1-0.043 0.0039 3 3 0 0 1-0.213 0.0214 3 3 0 0 1-0.162 0.0059 3 3 0 0 1-0.596-0.0605 3 3 0 0 1-0.35-0.0957 3 3 0 0 1-2.05-2.84 3 3 0 0 1 3-3zm-1 2v2.73a2 2 0 0 0 1 0.27 2 2 0 0 0 1-0.272v-0.728h0.73a2 2 0 0 0 0.27-1 2 2 0 0 0-0.272-1h-2.73zm6.91 0a6 6 0 0 1 0.09 1 6 6 0 0 1-0.086 1h1.09v6h-6v-1.09a6 6 0 0 1-1 0.09 6 6 0 0 1-1-0.086v3.09h10v-10h-3.09z" fill="#bebebe"/>
</svg>
