<?xml version="1.0" encoding="UTF-8"?>
<svg width="16" height="16" version="1.1" xmlns="http://www.w3.org/2000/svg">
 <path d="m6 1a5 5 0 0 0-5 5 5 5 0 0 0 4 4.9v-2.07a3 3 0 0 0 0.113 0.041 3 3 0 0 0 0.291 0.0743 3 3 0 0 0 0.297 0.0449 3 3 0 0 0 0.299 0.0156 3 3 0 0 0 0.213-0.0078 3 3 0 0 0 0.297-0.0352 3 3 0 0 0 0.293-0.0664 3 3 0 0 0 0.285-0.0937 3 3 0 0 0 0.273-0.123 3 3 0 0 0 0.26-0.15 3 3 0 0 0 0.244-0.174 3 3 0 0 0 0.225-0.197 3 3 0 0 0 0.205-0.219 3 3 0 0 0 0.182-0.24 3 3 0 0 0 0.156-0.256 3 3 0 0 0 0.131-0.27 3 3 0 0 0 0.102-0.281 3 3 0 0 0 0.0743-0.291 3 3 0 0 0 0.0449-0.297 3 3 0 0 0 0.0156-0.299 3 3 0 0 0-0.0078-0.213 3 3 0 0 0-0.0352-0.297 3 3 0 0 0-0.0664-0.293 3 3 0 0 0-0.0644-0.197h2.07a5 5 0 0 0-4.9-4zm-1 9.9v3.1h9v-9h-3.1a5 5 0 0 1 2e-3 0.0059 5 5 0 0 1 0.01 0.0683 5 5 0 0 1 0.014 0.086 5 5 0 0 1 0.029 0.189 5 5 0 0 1 0.022 0.15 5 5 0 0 1 0.025 0.5 5 5 0 0 1-0.012 0.354 5 5 0 0 1-9e-3 0.0879 5 5 0 0 1-0.026 0.209 5 5 0 0 1-0.025 0.199 5 5 0 0 1-0.018 0.0762 5 5 0 0 1-0.053 0.236 5 5 0 0 1-0.039 0.176 5 5 0 0 1-0.021 0.0664 5 5 0 0 1-0.084 0.25 5 5 0 0 1-0.053 0.158 5 5 0 0 1-0.109 0.242 5 5 0 0 1-0.037 0.082 5 5 0 0 1-0.059 0.131 5 5 0 0 1-0.027 0.0469 5 5 0 0 1-0.106 0.186 5 5 0 0 1-0.039 0.0684 5 5 0 0 1-0.076 0.133 5 5 0 0 1-0.039 0.0547 5 5 0 0 1-0.158 0.221 5 5 0 0 1-0.094 0.131 5 5 0 0 1-0.201 0.228 5 5 0 0 1-0.0058 0.0079 5 5 0 0 1-0.123 0.141 5 5 0 0 1-0.0527 0.0488 5 5 0 0 1-0.0664 0.0625 5 5 0 0 1-0.111 0.104 5 5 0 0 1-0.135 0.125 5 5 0 0 1-0.0645 0.0488 5 5 0 0 1-0.135 0.104 5 5 0 0 1-0.0449 0.0334 5 5 0 0 1-0.154 0.117 5 5 0 0 1-0.0664 0.041 5 5 0 0 1-0.188 0.115 5 5 0 0 1-0.172 0.106 5 5 0 0 1-0.082 0.039 5 5 0 0 1-0.178 0.086 5 5 0 0 1-0.189 0.091 5 5 0 0 1-0.0723 0.028 5 5 0 0 1-0.221 0.08 5 5 0 0 1-0.176 0.064 5 5 0 0 1-0.242 0.063 5 5 0 0 1-0.0742 0.017 5 5 0 0 1-0.168 0.043 5 5 0 0 1-0.0683 0.01 5 5 0 0 1-0.086 0.014 5 5 0 0 1-0.34 0.051 5 5 0 0 1-0.0586 4e-3 5 5 0 0 1-0.441 0.021 5 5 0 0 1-0.354-0.012 5 5 0 0 1-0.0879-9e-3 5 5 0 0 1-0.209-0.026 5 5 0 0 1-0.199-0.025 5 5 0 0 1-0.15-0.033z" fill="#bebebe"/>
</svg>
