<?xml version="1.0" encoding="UTF-8"?>
<svg width="16" height="16" version="1.1" xmlns="http://www.w3.org/2000/svg">
 <path d="m4.5 1.5-0.744 2.26-2.26 0.744 2.26 0.744 0.744 2.26 0.744-2.26 2.26-0.744-2.26-0.744-0.744-2.26zm4 0.25c-0.416 0-0.75 0.334-0.75 0.75s0.334 0.75 0.75 0.75 0.75-0.334 0.75-0.75-0.334-0.75-0.75-0.75zm4 1c-0.416 0-0.75 0.334-0.75 0.75s0.334 0.75 0.75 0.75 0.75-0.334 0.75-0.75-0.334-0.75-0.75-0.75zm-1.39 2.25c0.62 0.751 0.994 1.71 0.994 2.76 0 2.4-1.94 4.34-4.34 4.34-1.05 0-2.01-0.374-2.76-0.994 0.525 2.24 2.53 3.89 4.93 3.89 2.8 0 5.07-2.27 5.07-5.07 0-2.4-1.65-4.41-3.89-4.93zm-1.61 1.75c-0.416 0-0.75 0.334-0.75 0.75s0.334 0.75 0.75 0.75 0.75-0.334 0.75-0.75-0.334-0.75-0.75-0.75z" color="#bebebe" fill="#bebebe"/>
</svg>
