<?xml version="1.0" encoding="UTF-8"?>
<svg width="16" height="16" version="1.1" xmlns="http://www.w3.org/2000/svg">
 <path d="m4 1a3 3 0 0 0-0.912 0.144l1.62 1.62c0.392 0.392 0.392 1.02 0 1.41l-0.529 0.529c-0.392 0.392-1.02 0.392-1.41 0l-1.62-1.62a3 3 0 0 0-0.144 0.912 3 3 0 0 0 3 3 3 3 0 0 0 0.936-0.154l1.15 1.15 1.91-1.91-1.15-1.15a3 3 0 0 0 0.152-0.938 3 3 0 0 0-3-3zm9.02 0.0195-0.555 0.555c-0.453 0.453-0.575 1.1-0.36 1.62l-5.91 5.91c-0.521-0.216-1.16-0.0941-1.62 0.359l-3.11 3.11c-0.588 0.588-0.623 1.5-0.0801 2.04 0.543 0.544 1.45 0.508 2.04-0.08l3.11-3.11c0.452-0.453 0.574-1.1 0.359-1.62l5.91-5.91c0.52 0.215 1.16 0.0935 1.62-0.359l0.554-0.555-1.33-1.33-0.628-0.629zm-3.11 6.98-1.91 1.91 1.15 1.15a3 3 0 0 0-0.152 0.938 3 3 0 0 0 3 3 3 3 0 0 0 0.912-0.145l-1.62-1.62c-0.392-0.391-0.392-1.02 0-1.41l0.529-0.529c0.392-0.392 1.02-0.392 1.41 0l1.62 1.62a3 3 0 0 0 0.145-0.912 3 3 0 0 0-3-3 3 3 0 0 0-0.936 0.154l-1.15-1.15z" fill="#bebebe"/>
</svg>
