<?xml version="1.0" encoding="UTF-8"?>
<svg width="16" height="16" version="1.1" xmlns="http://www.w3.org/2000/svg">
 <path d="m2 1v1h1v-1h-1zm2 0v1h1v-1h-1zm2 0v1h1v-1h-1zm2 0v1h1v-1h-1zm2 0v1h1v-1h-1zm2 0v1h1v-1h-1zm2 0v1h1v-1h-1zm-13 2v1h1v-1h-1zm4 0-2 3h8l2-3h-8zm9 0v1h1v-1h-1zm-13 2v1h1v-1h-1zm13 0v1h1v-1h-1zm-13 2v1h1v-1h-1zm2 0v1h1v-1h-1zm2 0v1h1v-1h-1zm2 0v2h-2l3 2.99 3-2.99h-2v-2h-2zm3 0v1h1v-1h-1zm2 0v1h1v-1h-1zm2 0v1h1v-1h-1zm-10 5-2 3h10l2-3h-4.6l-0.699 0.697a1 1 0 0 1-1.41 0l-0.699-0.697h-2.6z" fill="#bebebe"/>
</svg>
