<?xml version="1.0" encoding="UTF-8"?>
<svg width="16" height="16" version="1.1" xmlns="http://www.w3.org/2000/svg">
 <path d="m4.82 1c-2.1 0-3.82 1.72-3.82 3.82 0 0.647 0.163 1.26 0.449 1.8-0.09 0.449-0.112 0.907-0.112 1.38 0 3.69 2.98 6.66 6.66 6.66 0.478 0 0.936 0 1.38-0.11 0.535 0.29 1.14 0.45 1.8 0.45 2.1 0 3.82-1.72 3.82-3.82 0-0.65-0.16-1.26-0.45-1.8 0.1-0.449 0.11-0.907 0.11-1.38 0-3.69-2.97-6.66-6.66-6.66-0.478 0-0.936 0.05-1.38 0.15-0.533-0.286-1.15-0.487-1.8-0.487zm5.58 3.18c0.56 0.386 0.86 0.857 0.86 1.27 0 0.355-0.1 0.597-0.27 0.749-0.52 0.338-0.88 0.3-1.38-0.04-0.159-0.134-0.247-0.303-0.375-0.449-1.27-0.987-2.54-1.05-2.73 0.299 0 0.238 0.115 0.369 0.411 0.524 1.39 0.409 2.61 0.794 3.79 1.35 0.61 0.419 0.97 1.05 0.97 1.95 0 0.869-0.37 1.54-1.01 1.99-1.58 1.02-3.67 0.82-5.28-0.1-0.937-0.62-1.2-1.2-0.786-2.13 0.874-0.679 1.42 0.08 1.91 0.523 0.323 0.35 0.69 0.68 1.61 0.68 0.798 0 1.18-0.22 1.38-0.904 0.06-0.212-0.109-0.41-0.15-0.561-0.134-0.13-0.451-0.27-1.12-0.45-0.73-0.1-1.68-0.254-2.47-0.636-0.793-0.382-1.42-1.02-1.42-1.98 0-0.867 0.353-1.58 0.974-2.06 1.55-0.933 3.44-0.879 5.1-0.01z" fill="#bebebe"/>
</svg>
