<?xml version="1.0" encoding="UTF-8"?>
<svg width="16" height="16" version="1.1" xmlns="http://www.w3.org/2000/svg">
 <path d="m14.5 0.996a0.5 0.5 0 0 0-0.344 0.15l-4.41 4.41a3 3 0 0 1 0.705 0.709l4.41-4.41a0.5 0.5 0 0 0-0.364-0.857zm0.01 4a0.5 0.5 0 0 0-0.18 0.0352l-3.74 1.44a3 3 0 0 1 0.36 0.934l3.74-1.44a0.5 0.5 0 0 0-0.18-0.969zm-6.5 1a2 2 0 0 0-2 2 2 2 0 0 0 2 2 2 2 0 0 0 2-2 2 2 0 0 0-2-2zm-2.94 2.59-3.74 1.44a0.5 0.5 0 1 0 0.359 0.934l3.74-1.44a3 3 0 0 1-0.359-0.934zm0.496 1.14-4.41 4.41a0.5 0.5 0 1 0 0.707 0.708l4.41-4.41a3 3 0 0 1-0.705-0.709z" fill="#bebebe" fill-rule="evenodd"/>
</svg>
