<?xml version="1.0" encoding="UTF-8"?>
<svg width="16" height="16" version="1.1" xmlns="http://www.w3.org/2000/svg">
 <path d="m8 1a7 7 0 0 0-3.77 1.11l1.83 1.83a4.5 4.5 0 0 1 1.94-0.443 4.5 4.5 0 0 1 4.5 4.5 4.5 4.5 0 0 1-0.443 1.94l1.84 1.84a7 7 0 0 0 1.11-3.77 7 7 0 0 0-7-7zm-5.89 3.23a7 7 0 0 0-1.11 3.77 7 7 0 0 0 7 7 7 7 0 0 0 3.77-1.11l-1.83-1.83a4.5 4.5 0 0 1-1.94 0.443 4.5 4.5 0 0 1-4.5-4.5 4.5 4.5 0 0 1 0.443-1.94l-1.84-1.84zm5.89 1.77a2 2 0 0 0-2 2 2 2 0 0 0 2 2 2 2 0 0 0 2-2 2 2 0 0 0-2-2z" fill="#bebebe"/>
</svg>
