<?xml version="1.0" encoding="UTF-8"?>
<svg width="16" height="16" version="1.1" xmlns="http://www.w3.org/2000/svg">
 <path d="m1.09 4c-0.0306 0.0595-0.0611 0.119-0.0904 0.178 0.464 0.256 1.8 0.924 2.44 1.32 0.803 0.488 1.89 1.49 1.97 1.65-0.835 1.44-0.456 2.72-0.555 2.86-0.071 0.114-0.727 0.83-0.516 0.936 0.21 0.104 0.543-0.0595 0.593-0.0915 0.105-0.064 0.213-0.157 0.168 0.0271-0.0887 0.377-0.491 1.28 0.0644 1.09 0.0677-0.0386 0.962-1.02 1.07-1.05 1.78 0.461 3.77 0.25 4.14 0.0783 0.192 0.0127 0.735 0.352 1.04 0.514 0.309 0.16 1.15 0.562 0.903-0.168-0.0776-0.231-0.632-0.82-0.542-0.859 0.198-0.0783 0.688 0.203 0.877 0.256 0.564 0.157 0.64-0.0607 0.284-0.54-0.352-0.479-0.404-0.405-0.516-0.626-0.0871-0.178 0-0.375 0.0644-0.423 0.114-0.0865 1.8-1.02 2.19-1.37 0.585-0.529 0-1.19-0.144-1.28-1.21-0.868-2.46-0.683-2.48-0.82-0.0083-0.157-5e-3 -0.61-0.026-0.767-0.121-1.06-0.616-0.796-0.683-0.796-0.495 0.0771-0.313 0.83-0.103 1.54 0.0161 0.181-0.172 0.101-0.284-0.0898-0.38-1.01-0.54-0.997-0.645-1.03-0.102-0.0226-0.459 0.194-0.453 0.604 0.00165 0.117 0.142 0.675 0.142 0.846-0.233 0.203-0.245 0.665-0.49 0.833-0.714 0.147-2.43-0.351-2.64-0.373-0.742-0.138-1.07 0.415-1.18 0.282-0.962-1.1-2.43-1.91-3.07-2.05-0.247-0.0529-1.08-0.418-1.38-0.602-0.0482-0.0287-0.103-0.0496-0.156-0.0771m13.2 0.961c-0.232 0.248-0.192 1.18-0.144 1.17 0.237-0.048 0.215-1.24 0.144-1.17m0.672 0.141c-0.0272-0.0755-0.638 0.777-0.53 1.09 0.0483 0.136 0.612-0.852 0.53-1.09m-3.17 1.45c0.0083-0.0082 0.0177 0.00328 0.0272 0.0127 0.071 0.234 0.15 0.457 0.617 0.513 0.0549 0.00656-0.26 0.189-0.475 0.0771-0.197-0.119-0.215-0.55-0.169-0.603m1.21 1.18c0.0433-0.00656 0.0743-0.00492 0.105 0 0.114 0.0287-0.829 0.518-0.903 0.45-0.045-0.0431 0.503-0.396 0.8-0.45m0.245 0.309c0.0982 0.0082-0.546 0.671-0.619 0.603-0.0532-0.048 0.418-0.619 0.619-0.603" fill="#bebebe"/>
</svg>
