<?xml version="1.0" encoding="UTF-8"?>
<svg width="16" height="16" version="1.1" xmlns="http://www.w3.org/2000/svg">
 <path d="m9.38 2.13v3.32c-0.0511 0.0117-0.566 0.131-1 0.305-0.437 0.175-0.932 0.438-0.932 0.438l0.465 0.887s0.507-0.28 0.828-0.4c0.212-0.0796 0.449-0.145 0.639-0.193v3.27h-5.38v-2l-3 2.87 3 2.88v-2h1.44c0.0849 0.326 0.176 0.615 0.176 0.615l0.953-0.295s-0.0535-0.212-0.0859-0.32h5.02v-4.88c0.348 0.127 0.754 0.305 0.754 0.305l0.398-0.922s-0.534-0.254-1.01-0.391c-0.0661-0.0192-0.0783-0.0157-0.146-0.0332v-3.45zm4.27 4.62-0.746 0.645s0.414 0.478 0.609 0.76c0.235 0.337 0.441 0.791 0.441 0.791l0.877-0.463s-0.246-0.514-0.52-0.922c-0.262-0.391-0.662-0.811-0.662-0.811zm-7.13 0.254s-0.399 0.47-0.631 0.902c-0.222 0.415-0.42 0.914-0.42 0.914l0.916 0.402c1e-7 0 0.207-0.541 0.375-0.84 0.202-0.359 0.559-0.781 0.559-0.781zm8.62 2.68-1.01 0.0137s0.0421 0.616-0.0059 0.996c-0.0515 0.409-0.172 0.869-0.172 0.869l0.977 0.211s0.146-0.505 0.193-0.998c0.045-0.468 0.0156-1.09 0.0156-1.09zm-1.52 2.59s-0.381 0.515-0.633 0.748c-0.317 0.293-0.691 0.566-0.691 0.566l0.617 0.777s0.488-0.341 0.83-0.693c0.328-0.338 0.654-0.789 0.654-0.789zm-6.67 0.232-0.73 0.688s0.368 0.437 0.758 0.77c0.371 0.316 0.838 0.59 0.838 0.59l0.557-0.826s-0.498-0.313-0.758-0.537c-0.315-0.271-0.664-0.684-0.664-0.684zm4.62 1.42s-0.499 0.144-0.84 0.184c-0.183 0.0212-0.531 0.04-0.855 0.0156-0.4-0.0301-0.768-0.107-0.768-0.107l-0.152 0.986s0.383 0.0865 0.814 0.117c0.407 0.0289 0.854 0.0032 1.09-0.0293 0.466-0.0641 0.924-0.195 0.924-0.195z" fill="#bebebe"/>
</svg>
