<?xml version="1.0" encoding="UTF-8"?>
<svg width="16" height="16" version="1.1" xmlns="http://www.w3.org/2000/svg">
 <path d="m1 1v12c1.49-0.074 2.92-0.351 4.24-0.824l-0.0762-0.0527-0.445-0.367 0.637-0.771 0.412 0.34 0.326 0.176-0.236 0.432c2.54-1.06 4.64-2.9 5.89-5.62l-0.111 0.0605-0.324-0.598-0.143-0.174 0.771-0.637 0.17 0.207 0.0547 0.0801 0.00586 0.00977c0.447-1.26 0.737-2.67 0.822-4.26h-12zm13 0c-0.0989 2.29-0.623 4.31-1.46 6.04l0.342-0.107 0.00781 0.0215 0.0195 0.0977 0.0918 0.906v0.102l-0.0312 0.299-0.994-0.102 0.0195-0.209c-1.07 1.77-2.5 3.18-4.21 4.18l-0.0781 0.756-0.666-0.0664-0.0977-0.0195-0.285-0.0879c-1.71 0.778-3.62 1.2-5.66 1.2v1h14v-14h-1zm-5.82 2.02 0.781 0.0781 0.0977 0.0195 0.205 0.0645-0.297 0.955-0.152-0.0469-0.736-0.0762 0.102-0.994zm-1.1 0.0742 0.0684 0.674 0.0938 0.305-0.803 0.25-0.0215 0.0117-0.00195-0.00391-0.0195 0.00586-0.0293-0.0977-0.426-0.783 0.0684-0.0371 0.0898-0.0371 0.846-0.264 0.0977-0.0195 0.0371-0.00391zm3.2 0.482 0.475 0.256 0.0801 0.0547 0.355 0.293-0.637 0.771-0.322-0.266-0.428-0.23 0.477-0.879zm-5.28 0.443 0.637 0.771-0.467 0.387-0.189 0.229-0.771-0.637 0.219-0.266 0.0684-0.0684 0.504-0.416zm-1.4 1.65 0.879 0.477-0.16 0.293-0.168 0.543-0.955-0.297 0.182-0.586 0.0371-0.0898 0.186-0.34zm-0.578 2.1 0.994 0.0996-0.0117 0.131 0.0762 0.764-0.996 0.102-0.082-0.812v-0.102l0.0195-0.182zm8.79 1.36 0.955 0.297-0.148 0.475-0.0371 0.0898-0.24 0.443-0.879-0.477 0.215-0.395 0.135-0.434zm-7.51 0.402 0.379 0.699 0.0684 0.084-0.771 0.637-0.0957-0.117-0.0547-0.0801-0.404-0.746 0.879-0.477zm6.64 1.16 0.771 0.637-0.145 0.176-0.0684 0.0684-0.594 0.49-0.637-0.771 0.557-0.459 0.115-0.141zm-1.37 0.992 0.297 0.955-0.809 0.252-0.0977 0.0195-0.152 0.0156-0.0996-0.996 0.107-0.0117 0.754-0.234z" fill="#bebebe"/>
</svg>
