<?xml version="1.0" encoding="UTF-8"?>
<svg width="16" height="16" version="1.1" xmlns="http://www.w3.org/2000/svg">
 <path d="m7.03 1c-0.275 0-0.499 0.229-0.499 0.509v0.987c-0.492 0.131-0.963 0.33-1.39 0.58l-0.702-0.702c-0.0991-0.0991-0.218-0.152-0.346-0.153-0.128-0.0011-0.259 0.045-0.356 0.142l-1.37 1.37c-0.195 0.195-0.188 0.504 0.0101 0.702l0.702 0.702c-0.25 0.431-0.449 0.901-0.58 1.39h-0.987c-0.28 0-0.509 0.223-0.509 0.498v1.93c0 0.275 0.229 0.499 0.509 0.499h0.987c0.131 0.493 0.329 0.963 0.58 1.39l-0.702 0.702c-0.198 0.198-0.205 0.507-0.0102 0.702l1.37 1.37c0.195 0.195 0.504 0.188 0.702-0.0102l0.702-0.702c0.431 0.25 0.901 0.449 1.39 0.58v0.987c0 0.28 0.223 0.509 0.499 0.509h1.93c0.275 0 0.499-0.229 0.499-0.509v-0.987c0.493-0.131 0.963-0.329 1.39-0.58l0.702 0.702c0.198 0.198 0.507 0.205 0.702 0.0102l1.37-1.37c0.195-0.195 0.188-0.504-0.0102-0.702l-0.702-0.702c0.25-0.431 0.449-0.901 0.58-1.39h0.987c0.28 1e-3 0.509-0.222 0.509-0.498v-1.93c0-0.275-0.229-0.498-0.509-0.498h-0.987c-0.131-0.493-0.329-0.963-0.58-1.39l0.702-0.702c0.198-0.198 0.205-0.507 0.0102-0.702l-1.37-1.37c-0.195-0.195-0.504-0.188-0.702 0.0102l-0.702 0.702c-0.431-0.25-0.901-0.449-1.39-0.58v-0.987c0-0.28-0.223-0.509-0.499-0.509h-1.93zm0.967 4.88c1.17 0 2.12 0.948 2.12 2.12s-0.948 2.12-2.12 2.12-2.12-0.948-2.12-2.12 0.948-2.12 2.12-2.12z" fill="#bebebe"/>
</svg>
