<?xml version="1.0" encoding="UTF-8"?>
<svg width="16" height="16" version="1.1" xmlns="http://www.w3.org/2000/svg">
 <path d="m9.48 1-0.77 0.0332c-1 0.0436-2.16 0.258-2.87 0.529l-0.564 0.217-0.139 0.564c-0.272 1.1-0.826 3.83-0.826 3.86-0.0861 0.146-0.232 0.228-0.301 0.295-0.634 0.471-1.01 1.21-1.01 2 0 1.38 1.12 2.5 2.5 2.5s2.5-1.12 2.5-2.5c-0.00137-0.627-0.237-1.23-0.637-1.64-0.399-0.408-0.419-0.958-0.389-3.34l0.0254-1.98 0.545-0.164c0.3-0.0903 0.857-0.212 1.24-0.27l0.693-0.104zm-1.48 1v3.68l0.49 0.357c1.88 1.37 2.81 3.29 2.52 5.21-0.205 1.38-0.778 2.42-1.85 3.37l-0.43 0.381h0.857c0.516 0 1.03-0.0435 1.29-0.109h0.00195c0.457-0.116 0.963-0.508 0.963-0.746-2.9e-5 -0.0684-0.0756-0.297-0.17-0.508-0.154-0.344-0.159-0.406-0.0508-0.627 0.0664-0.135 0.191-0.282 0.277-0.326 0.153-0.0776 0.153-0.0825-0.00391-0.186-0.0889-0.0586-0.204-0.122-0.256-0.141-0.0521-0.0185 0.0384-0.132 0.203-0.252l0.301-0.217-0.15-0.217c-0.215-0.31-0.196-0.701 0.041-0.842 0.105-0.0621 0.287-0.115 0.406-0.115 0.29-8.8e-4 0.401-0.0703 0.512-0.318 0.115-0.257 0.0341-0.404-0.93-1.64-0.873-1.12-0.89-1.17-0.484-1.52l0.312-0.273-0.182-0.502c-0.1-0.276-0.261-0.715-0.355-0.975-0.505-1.38-1.82-2.83-3.04-3.37l-0.277-0.121zm-2.5 5c0.828 0 1.5 0.672 1.5 1.5s-0.672 1.5-1.5 1.5-1.5-0.672-1.5-1.5 0.672-1.5 1.5-1.5zm0 0.75a0.75 0.75 0 0 0-0.75 0.75 0.75 0.75 0 0 0 0.75 0.75 0.75 0.75 0 0 0 0.75-0.75 0.75 0.75 0 0 0-0.75-0.75z" fill="#bebebe"/>
</svg>
