<?xml version="1.0" encoding="UTF-8"?>
<svg width="16" height="16" version="1.1" xmlns="http://www.w3.org/2000/svg">
 <path d="m2.5 1c-0.831 0-1.5 0.669-1.5 1.5v11c0 0.831 0.669 1.5 1.5 1.5h11c0.831 0 1.5-0.669 1.5-1.5v-11c0-0.831-0.669-1.5-1.5-1.5h-11zm1 2h9c0.277 0 0.5 0.223 0.5 0.5v9c0 0.277-0.223 0.5-0.5 0.5h-9c-0.277 0-0.5-0.223-0.5-0.5v-9c0-0.277 0.223-0.5 0.5-0.5zm5.77 2c-0.697 5.8e-6 -1.24 0.151-1.61 0.461-0.372 0.31-0.557 0.758-0.557 1.33 0 0.46 0.136 0.826 0.402 1.1 0.269 0.271 0.687 0.466 1.27 0.59l0.582 0.127c0.351 0.0775 0.581 0.164 0.697 0.262 0.119 0.0982 0.182 0.241 0.182 0.422-4e-6 0.201-0.0887 0.354-0.262 0.463-0.173 0.108-0.425 0.166-0.75 0.166-0.32 9e-7 -0.652-0.0483-0.998-0.146-0.344-0.101-0.697-0.253-1.07-0.449v1.26c0.369 0.137 0.736 0.239 1.11 0.309 0.369 0.0698 0.739 0.107 1.11 0.107 0.778 0 1.35-0.153 1.73-0.463 0.38-0.313 0.568-0.79 0.568-1.43-5e-6 -0.486-0.129-0.862-0.4-1.12-0.271-0.263-0.73-0.461-1.37-0.59l-0.637-0.127c-0.302-0.062-0.515-0.135-0.631-0.221-0.114-0.0878-0.166-0.206-0.166-0.361-2.2e-6 -0.207 0.0834-0.365 0.254-0.463 0.17-0.0982 0.435-0.146 0.791-0.146 0.269 5.1e-6 0.555 0.041 0.857 0.113 0.302 0.0723 0.612 0.18 0.93 0.322v-1.23c-0.359-0.0956-0.709-0.168-1.04-0.215-0.336-0.0491-0.659-0.0723-0.977-0.0723zm-4.4 0.00586v5.06c-0.0677 0.76-0.405 1.12-1.19 1.05h-0.242v1.17h0.316c0.818-2e-6 1.43-0.181 1.83-0.549 0.405-0.368 0.609-0.924 0.609-1.67v-5.06h-1.33z" fill="#bebebe"/>
</svg>
