<?xml version="1.0" encoding="UTF-8"?>
<svg width="16" height="16" version="1.1" xmlns="http://www.w3.org/2000/svg">
 <path d="m3 1v13h10v-9.13c0-1.88-1.12-3.87-3.69-3.87h-6.31zm2 2h4.19c1.31 0 1.82 0.805 1.82 1.93v7.07h-6.01v-1h1.49c0.283 0 0.51-0.223 0.51-0.5s-0.227-0.5-0.51-0.5h-1.49v-1h2.49c0.283 0 0.51-0.223 0.51-0.5s-0.227-0.5-0.51-0.5h-2.49v-1h1.49c0.283 0 0.51-0.223 0.51-0.5s-0.227-0.5-0.51-0.5h-1.49v-1h1.49c0.283 0 0.51-0.223 0.51-0.5s-0.227-0.5-0.51-0.5h-1.49v-1z" fill="#bebebe"/>
</svg>
