<?xml version="1.0" encoding="UTF-8"?>
<svg width="16" height="16" version="1.1" xmlns="http://www.w3.org/2000/svg">
 <path d="m2 1a1 1 0 1 0 0 2h6c1.83 0 3.07 0.454 3.84 1.13 0.769 0.673 1.16 1.6 1.16 2.87a1 1 0 1 0 2 0c0-1.72-0.611-3.3-1.84-4.38-1.23-1.08-2.99-1.62-5.16-1.62h-6zm-0.492 3.99a0.5 0.5 0 1 0 0 1h6c1.14-0.0027 1.74 0.327 2.07 0.666 0.336 0.339 0.418 0.759 0.418 0.842a0.5 0.5 0 1 0 1 0c0-0.417-0.17-1-0.707-1.54-0.537-0.541-1.44-0.966-2.79-0.963h-6zm10.5 4.01v2h-3v2h3v2l3-3-3-3zm-7 1.98v2.02h3v-2.02h-3zm-4 0.02v2.02h3v-2.02h-3z" fill="#bebebe"/>
</svg>
