<?xml version="1.0" encoding="UTF-8"?>
<svg width="16" height="16" version="1.1" xmlns="http://www.w3.org/2000/svg">
 <path d="m2.38 3c-0.213 0-0.385 0.169-0.385 0.379v1.24c0 0.21 0.172 0.379 0.385 0.379h2.23c0.213 0 0.385-0.169 0.385-0.379v-1.24c0-0.21-0.172-0.379-0.385-0.379h-2.23zm4.62 0v2h6v-2h-6zm-4.62 4c-0.213 0-0.385 0.169-0.385 0.379v1.24c0 0.21 0.172 0.379 0.385 0.379h2.23c0.213 0 0.385-0.169 0.385-0.379v-1.24c0-0.21-0.172-0.379-0.385-0.379h-2.23zm4.62 0v2h6v-2h-6zm-4.62 4c-0.213 0-0.385 0.169-0.385 0.379v1.24c0 0.21 0.172 0.379 0.385 0.379h2.23c0.213 0 0.385-0.169 0.385-0.379v-1.24c0-0.21-0.172-0.379-0.385-0.379h-2.23zm4.62 0v2h6v-2h-6z" fill="#bebebe"/>
</svg>
