<?xml version="1.0" encoding="UTF-8"?>
<svg width="16" height="16" version="1.1" xmlns="http://www.w3.org/2000/svg">
 <path d="m1.38 1c-0.277 0-0.439 0.201-0.363 0.451l3.97 13.1c0.0758 0.25 0.36 0.451 0.637 0.451h4.75c0.277 0 0.561-0.201 0.637-0.451l0.264-0.871c-0.176-0.185-0.275-0.432-0.275-0.688 8.75e-4 -0.18 0.0501-0.356 0.143-0.51-0.0472 0.0067-0.0949 0.0099-0.143 0.0098-0.552 0-1-0.448-1-1s0.448-1 1-1c0.0478 4.97e-4 0.0954 0.0044 0.143 0.0117-0.0928-0.155-0.142-0.331-0.143-0.512 0-0.552 0.448-1 1-1 0.18 8.74e-4 0.356 0.0501 0.51 0.143-0.0067-0.0472-0.0099-0.0949-0.0098-0.143 2.23e-4 -0.336 0.169-0.649 0.449-0.834l2.03-6.71c0.0758-0.25-0.0862-0.451-0.363-0.451h-2.99c-0.277 0-0.563 0.201-0.639 0.451l-2.99 8.55-2.99-8.55c-0.0758-0.25-0.36-0.451-0.637-0.451z" fill="#bebebe"/>
</svg>
