<?xml version="1.0" encoding="UTF-8"?>
<svg width="16" height="16" version="1.1" xmlns="http://www.w3.org/2000/svg">
 <path d="m13.5 2c-0.345-0.0109-0.708 0.103-1.09 0.342-0.698 0.441-0.851 1.21-0.484 2.45 0.617 2.09-0.458 3.88-2.43 4.04-0.832 0.0686-1.52-0.16-2.1-0.699-0.36-0.333-0.758-0.943-1.72-2.65-1.47-2.59-1.67-2.91-2-3.16-0.591-0.449-1.5-0.413-2.07 0.084-0.409 0.353-0.568 0.723-0.568 1.31 0 0.62 0.193 1.01 2.98 5.96 3.02 5.38 2.88 5.16 3.61 5.29 0.472 0.0824 1.11-0.0409 1.43-0.275 0.272-0.199 0.76-1.01 3.28-5.5 2.38-4.23 2.69-4.87 2.69-5.48 0-0.587-0.16-0.955-0.568-1.31-0.301-0.26-0.626-0.395-0.971-0.406z" fill="#bebebe"/>
</svg>
