<?xml version="1.0" encoding="UTF-8"?>
<svg width="16" height="16" version="1.1" xmlns="http://www.w3.org/2000/svg">
 <path d="m8 1c-0.554 0-1 0.446-1 1v1c0 0.554 0.446 1 1 1s1-0.446 1-1v-1c0-0.554-0.446-1-1-1zm-4.24 1.76c-0.256 0-0.511 0.099-0.707 0.295-0.392 0.392-0.392 1.02 0 1.41l0.707 0.707c0.392 0.392 1.02 0.392 1.41 0 0.392-0.392 0.392-1.02 0-1.41l-0.707-0.707c-0.196-0.196-0.451-0.295-0.707-0.295zm8.48 0c-0.255 0-0.511 0.099-0.707 0.295l-0.707 0.707c-0.392 0.392-0.392 1.02 0 1.41 0.392 0.392 1.02 0.392 1.41 0l0.707-0.707c0.392-0.392 0.392-1.02 0-1.41-0.196-0.196-0.451-0.295-0.707-0.295zm-4.2 2.24a3 3 0 0 0-2.16 0.879 3 3 0 0 0 0.158 4.33c0.46-0.423 1.03-0.737 1.66-0.902 0.67-1.16 1.79-2.03 3.14-2.25a3 3 0 0 0-2.8-2.05zm-6.04 2c-0.554 0-1 0.446-1 1s0.446 1 1 1h1c0.554 0 1-0.446 1-1s-0.446-1-1-1h-1zm11 0c-0.173 0-0.327 0.0545-0.469 0.131 0.908 0.216 1.7 0.71 2.31 1.38 0.094-0.152 0.162-0.323 0.162-0.516 0-0.554-0.446-1-1-1h-1zm-1.5 1c-1.41 0-2.6 0.831-3.16 2.03-1.31 0.084-2.34 1.14-2.34 2.47 0 1.38 1.12 2.5 2.5 2.5h3c1.93 0 3.5-1.57 3.5-3.5s-1.57-3.5-3.5-3.5zm-7.04 2.54c-0.256 0-0.511 0.097-0.707 0.293l-0.707 0.707c-0.392 0.392-0.392 1.02 0 1.41 0.392 0.392 1.02 0.392 1.41 0l0.545-0.545c0.0146-0.479 0.139-0.915 0.342-1.31-0.0473-0.096-0.1-0.19-0.18-0.27-0.196-0.196-0.451-0.293-0.707-0.293z" fill="#bebebe"/>
</svg>
