<?xml version="1.0" encoding="UTF-8"?>
<svg width="16" height="16" version="1.1" xmlns="http://www.w3.org/2000/svg">
 <path d="m7.5 1c-2.34 0-4.25 1.79-4.47 4.06-1.15 0.221-2.03 1.22-2.03 2.44 0 1.38 1.12 2.5 2.5 2.5h0.719l0.81-3.24a1 1 0 0 1 0.971-0.758h3a1 1 0 0 1 0.894 1.45l-0.277 0.553h0.383a1 1 0 0 1 0.832 1.55l-0.297 0.445h0.965c1.93 0 3.5-1.57 3.5-3.5s-1.57-3.5-3.5-3.5c-0.084 0-0.167 0.0254-0.25 0.0312-0.803-1.23-2.17-2.03-3.75-2.03zm-1.5 6-1 4h2l-1 4 4-6h-2l1-2h-3z" fill="#bebebe"/>
</svg>
