<?xml version="1.0" encoding="UTF-8"?>
<svg width="16" height="16" version="1.1" xmlns="http://www.w3.org/2000/svg">
 <path d="m1.1 3c-0.07 0-0.1 0.07-0.1 0.207-0.037 0.116 0.09 0.207 0.137 0.207 0.386 0.05 0.688 0.178 0.904 0.387s0.422 0.577 0.617 1.1l3.12 8.48c0.03 0.1 0.09 0.12 0.18 0.12 0.08 0 0.134 0 0.176-0.12l2.05-4.41 1.78 4.41c0.04 0.1 0.103 0.12 0.173 0.12 0.1 0 0.15 0 0.17-0.12l3.18-8.48c0.21-0.561 0.41-0.941 0.61-1.14 0.19-0.2 0.44-0.315 0.75-0.35 0.12-0.03 0.16-0.108 0.2-0.232 0-0.119 0-0.178-0.1-0.178-0.2 0-0.42 0.02-0.67 0.04-0.24 0.03-0.45 0.04-0.63 0.04s-0.4-0.01-0.65-0.04c-0.28-0.03-0.52-0.04-0.73-0.04-0.1 0-0.11 0.07-0.11 0.207 0 0.138 0 0.207 0.1 0.207 0.55 0.03 0.83 0.285 0.83 0.768 0 0.201 0 0.421-0.12 0.662l-2.4 6.58-1.62-3.9 1.2-2.62c0.29-0.61 0.54-1 0.74-1.17 0.2-0.172 0.46-0.277 0.78-0.316 0.1 0 0.14-0.08 0.14-0.236 0-0.119 0-0.178-0.1-0.178-0.21 0-0.47 0.02-0.79 0.05-0.42 0.07-0.65 0.05-1.25 0-0.291-0.03-0.535-0.04-0.734-0.04-0.101 0.02-0.11 0.139-0.114 0.207 0 0.138 0.03 0.207 0.08 0.207 0.557 0.03 0.834 0.27 0.834 0.723 0 0.192-0.06 0.427-0.187 0.707l-0.897 1.99-0.902-2.17c-0.129-0.31-0.193-0.538-0.193-0.685 0-0.33 0.277-0.517 0.834-0.561 0.04 0 0.06-0.07 0.06-0.207 0-0.138-0.03-0.207-0.1-0.207-0.279 0-0.561 0.02-0.848 0.04-0.518 0.07-0.921 0.05-1.51 0-0.232-0.03-0.487-0.04-0.766-0.04-0.06 0-0.09 0.07-0.09 0.207 0 0.1 0.03 0.192 0.125 0.207 0.32 0.04 0.559 0.146 0.716 0.32 0.158 0.175 0.359 0.565 0.604 1.17l1.36 3.39-1.46 3.28-2.58-6.9c-0.195-0.423-0.06-0.852 0.139-1 0.16-0.143 0.38-0.225 0.658-0.25 0.04 0 0.06-0.07 0.06-0.207 0-0.138-0.03-0.207-0.1-0.207-0.278 0-0.599 0.02-0.961 0.04-0.576 0.07-1.19 0.06-1.69 0-0.36-0.04-0.576-0.03-0.908-0.05z" fill="#bebebe"/>
</svg>
