<?xml version="1.0" encoding="UTF-8"?>
<svg width="16" height="16" version="1.1" xmlns="http://www.w3.org/2000/svg">
 <path d="m7.23 1c-0.916 0-1.66 0.514-1.66 1.15 0.03 0.236 0.176 0.535 0.255 0.637 0.382 0.51 0.382 0.829 0.286 1.02h-3.09c-0.565 0-1.02 0.454-1.02 1.02v2.58c0.191 0.1 0.51 0.1 1.02-0.287 0.102-0.08 0.401-0.228 0.637-0.255 0.633 0 1.15 0.742 1.15 1.66s-0.514 1.66-1.15 1.66c-0.195 0-0.49-0.18-0.637-0.26-0.51-0.381-0.829-0.381-1.02-0.286v3.35c0 0.57 0.455 1.02 1.02 1.02h4.11c0.1-0.19 0.1-0.51-0.287-1.02-0.08-0.1-0.228-0.4-0.255-0.64 0-0.63 0.742-1.14 1.66-1.14s1.66 0.51 1.66 1.14c0 0.2-0.177 0.49-0.255 0.64-0.383 0.51-0.383 0.83-0.287 1.02h1.82c0.56 0 1.02-0.45 1.02-1.02v-2.84c0.19-0.1 0.51-0.1 1.02 0.29 0.14 0.1 0.44 0.25 0.63 0.26 0.64 0 1.15-0.75 1.15-1.66 0-0.915-0.51-1.66-1.15-1.66-0.23 0.03-0.53 0.176-0.63 0.255-0.51 0.382-0.83 0.382-1.02 0.287v-3.09c0-0.565-0.46-1.02-1.02-1.02h-2.84c-0.1-0.191-0.1-0.509 0.286-1.02 0.08-0.147 0.252-0.443 0.255-0.637 0-0.634-0.742-1.15-1.66-1.15z" fill="#bebebe"/>
</svg>
