<?xml version="1.0" encoding="UTF-8"?>
<svg id="svg25" width="16" height="16" version="1.1" xmlns="http://www.w3.org/2000/svg" xmlns:cc="http://creativecommons.org/ns#" xmlns:dc="http://purl.org/dc/elements/1.1/" xmlns:rdf="http://www.w3.org/1999/02/22-rdf-syntax-ns#">
 <metadata id="metadata29">
  <rdf:RDF>
   <cc:Work rdf:about="">
    <dc:format>image/svg+xml</dc:format>
    <dc:type rdf:resource="http://purl.org/dc/dcmitype/StillImage"/>
   </cc:Work>
  </rdf:RDF>
 </metadata>
 <defs id="defs7">
  <linearGradient id="gr0" x1="8" x2="8" y1="1" y2="15" gradientUnits="userSpaceOnUse">
   <stop id="stop2" stop-color="#ebebeb" offset="0"/>
   <stop id="stop4" stop-color="#aaa" offset="1"/>
  </linearGradient>
 </defs>
 <path id="path9" d="m12.68 0.0019531a1.0001 1.0001 0 0 0-0.5762 0.22266l-1.5644 1.2734 1.3535 0.18554 0.8418-0.68359a12 12 0 0 1 2.2656 7 12 12 0 0 1-2.2715 7l-0.834-0.6797-1.3554 0.1856 1.5566 1.2695a1.0001 1.0001 0 0 0 1.4434-0.1895c1.5813-2.1897 2.4552-4.8829 2.4609-7.584a1.0001 1.0001 0 0 0 0-0.0039c-0.0039-2.7004-0.876-5.3915-2.4551-7.582a1.0001 1.0001 0 0 0-0.8652-0.41406zm-2.2793 1.8984a1.0001 1.0001 0 0 0-0.63282 0.22461l-1.5606 1.2715 1.332 0.20508 0.86134-0.70117a9 9 0 0 1 1.5996 5.0996 9 9 0 0 1-1.6113 5.0938l-0.84964-0.6915-1.334 0.2032 1.5508 1.2636a1.0001 1.0001 0 0 0 1.4531-0.205c0.1138-0.1637 0.2187-0.3337 0.3222-0.5039a10 10 0 0 0 0.1036-0.1661c0.1008-0.1733 0.193-0.3502 0.2832-0.5293a10 10 0 0 0 0.1074-0.2187c0.0852-0.1798 0.1678-0.3623 0.2422-0.5469a10 10 0 0 0 0.0683-0.1855c0.1251-0.3285 0.232-0.6623 0.3223-1.002a10 10 0 0 0 0.0859-0.3359c0.0348-0.1514 0.0622-0.30421 0.0899-0.45705a10 10 0 0 0 0.0722-0.46289c0.0176-0.13192 0.0366-0.26396 0.0489-0.39648a10 10 0 0 0 0.0449-0.85352 1.0001 1.0001 0 0 0 0-0.00781v-0.00196c-2e-4 -0.06785-0.0062-0.13529-0.0078-0.20312a10 10 0 0 0-0.0508-0.78516c-0.0081-0.07761-0.0175-0.15501-0.0273-0.23242a10 10 0 0 0-0.125-0.74609c-0.0112-0.05449-0.0192-0.10977-0.0313-0.16407a10 10 0 0 0-0.25-0.91992 10 10 0 0 0-0.3437-0.90234c-0.0097-0.02225-0.0195-0.04423-0.0293-0.06641a10 10 0 0 0-0.9649-1.7031l0.0059-0.00391a1.0001 1.0001 0 0 0-0.7754-0.36914zm-5.4297 1.0996a1.0001 1.0001 0 0 0-0.67773 0.29297l-1.707 1.707h-0.58594-0.5c-0.8137 0-1.5 0.6863-1.5 1.5v3c-1.0871e-16 0.8137 0.6863 1.5 1.5 1.5h0.5 0.58594l1.707 1.707a1.0001 1.0001 0 0 0 1.707-0.707v-1.1914l1.4336 1.166a1.0001 1.0001 0 0 0 1.4043-0.1445 7 7 0 0 0 0.18164-0.3008c0.07799-0.1326 0.14976-0.2688 0.21875-0.4063a7 7 0 0 0 0.17774-0.3632c0.10439-0.242 0.19667-0.4881 0.27343-0.7403a7 7 0 0 0 0.07032-0.2695c0.05112-0.19518 0.09466-0.39298 0.1289-0.5918a7 7 0 0 0 0.04883-0.31054c0.03491-0.27644 0.06118-0.55335 0.0625-0.83204a7 7 0 0 0 0-0.01171 1.0001 1.0001 0 0 0 0-0.00391 7 7 0 0 0 0-0.00586c-2e-5 -0.00325 0-0.00652 0-0.00976-0.00176-0.27242-0.02868-0.54427-0.0625-0.81446a7 7 0 0 0-0.03516-0.26562c-0.04621-0.28129-0.10376-0.56033-0.18359-0.83399a7 7 0 0 0-0.00195-0.0039 7 7 0 0 0-0.02149-0.06446c-0.07972-0.26327-0.17921-0.52125-0.28906-0.77343a7 7 0 0 0-0.09766-0.21094c-0.10006-0.21033-0.21128-0.41403-0.33203-0.61328a7 7 0 0 0-0.11133-0.18946 1.0001 1.0001 0 0 0-0.80468-0.4082 1.0001 1.0001 0 0 0-0.63282 0.22461l-1.4277 1.1641v-1.1953a1.0001 1.0001 0 0 0-1.0293-1zm0.0293 1v8l-2-2h-1-0.5c-0.277 0-0.5-0.223-0.5-0.5v-3c0-0.277 0.223-0.5 0.5-0.5h0.5 1l2-2zm3.0606 0.80664a6 6 0 0 1 0.93945 3.1934 6 6 0 0 1-0.93555 3.1992l-0.91601-0.7461-1.1484 0.2227v-5.3477l1.1484 0.22266 0.91211-0.74414z" opacity=".25"/>
 <path id="base" d="m12.734 1-1.5645 1.2734a10 10 0 0 1 1.8301 5.7266 10 10 0 0 1-1.8281 5.7305l1.5566 1.2695a12 12 0 0 0 2.2715-7 12 12 0 0 0-2.2656-7zm-2.334 1.9004-1.5605 1.2715a7 7 0 0 1 1.1602 3.8281 7 7 0 0 1-1.1621 3.8301l1.5508 1.2637a9 9 0 0 0 1.6113-5.0938 9 9 0 0 0-1.5996-5.0996zm-5.4004 1.0996-2 2h-1.5c-0.277 0-0.5 0.223-0.5 0.5v3c0 0.277 0.223 0.5 0.5 0.5h1.5l2 2v-8zm3.0605 0.80664-1.5605 1.2715a4 4 0 0 1 0.5 1.9219 4 4 0 0 1-0.5 1.9258l1.5645 1.2734a6 6 0 0 0 0.93555-3.1992 6 6 0 0 0-0.93945-3.1934z" fill="url(#gr0)"/>
 <path id="path15" d="m11.588 2.9336-0.418 0.33985a10 10 0 0 1 1.8028 5.2344 10 10 0 0 0 0.0273-0.50781 10 10 0 0 0-1.4121-5.0664zm-2.3555 1.918-0.39258 0.32032a7 7 0 0 1 1.1348 3.2715 7 7 0 0 0 0.02539-0.44336 7 7 0 0 0-0.76758-3.1484zm-2.416 1.9688-0.31641 0.25781a4 4 0 0 1 0.46289 1.4238 4 4 0 0 0 0.03711-0.50195 4 4 0 0 0-0.18359-1.1797zm5.1563 1.6621a9 9 0 0 1-1.584 4.6114l-1.1621-0.9473a7 7 0 0 1-0.38867 0.6836l1.5508 1.2637a9 9 0 0 0 1.6113-5.0938 9 9 0 0 0-0.0273-0.51758zm-3 0.01758a6 6 0 0 1-0.90821 2.6992l-1.2461-1.0156a4 4 0 0 1-0.31836 0.7422l1.5644 1.2734a6 6 0 0 0 0.93555-3.1992 6 6 0 0 0-0.02734-0.5zm6.0039 0.04492a12 12 0 0 1-2.2481 6.4551l-1.1406-0.9297a10 10 0 0 1-0.416 0.6602l1.5566 1.2695a12 12 0 0 0 2.2715-7 12 12 0 0 0-0.0234-0.45508zm-13.977 0.95508v1c0 0.277 0.223 0.5 0.5 0.5h0.5 1l2 2v-1l-2-2h-1-0.5c-0.277 0-0.5-0.223-0.5-0.5z" opacity=".45"/>
 <path id="path20" d="m12.734 1-1.5645 1.2734a10 10 0 0 1 0.418 0.66015l1.1465-0.93359a12 12 0 0 1 2.2422 6.5449 12 12 0 0 0 0.0234-0.54492 12 12 0 0 0-2.2656-7zm-2.334 1.9004-1.5606 1.2715a7 7 0 0 1 0.39258 0.67968l1.168-0.95117a9 9 0 0 1 1.5723 4.582 9 9 0 0 0 0.0273-0.48242 9 9 0 0 0-1.5996-5.0996zm-5.4004 1.0996-2 2h-1-0.5c-0.277 0-0.5 0.223-0.5 0.5v1c0-0.277 0.223-0.5 0.5-0.5h0.5 1l2-2v-1zm3.0606 0.80664-1.5606 1.2715a4 4 0 0 1 0.31641 0.74219l1.2441-1.0137a6 6 0 0 1 0.91211 2.6934 6 6 0 0 0 0.02734-0.5 6 6 0 0 0-0.93945-3.1934zm1.9141 3.6426a7 7 0 0 1-1.1367 3.3809l0.38867 0.3164a7 7 0 0 0 0.77344-3.1465 7 7 0 0 0-0.02539-0.55078zm-3.0117 0.05273a4 4 0 0 1-0.46289 1.4238l0.31836 0.25782a4 4 0 0 0 0.18164-1.1836 4 4 0 0 0-0.03711-0.49805zm6.0098 0.00586a10 10 0 0 1-1.8008 5.2227l0.416 0.3398a10 10 0 0 0 1.4121-5.0703 10 10 0 0 0-0.0273-0.49219z" fill="#fff" opacity=".6"/>
</svg>
