<?xml version="1.0" encoding="UTF-8"?>
<svg id="svg29" width="16" height="16" version="1.1" xmlns="http://www.w3.org/2000/svg" xmlns:cc="http://creativecommons.org/ns#" xmlns:dc="http://purl.org/dc/elements/1.1/" xmlns:rdf="http://www.w3.org/1999/02/22-rdf-syntax-ns#">
 <metadata id="metadata33">
  <rdf:RDF>
   <cc:Work rdf:about="">
    <dc:format>image/svg+xml</dc:format>
    <dc:type rdf:resource="http://purl.org/dc/dcmitype/StillImage"/>
   </cc:Work>
  </rdf:RDF>
 </metadata>
 <defs id="defs7">
  <linearGradient id="gr0" x1="8" x2="8" y1="1" y2="15" gradientUnits="userSpaceOnUse">
   <stop id="stop2" stop-color="#ebebeb" offset="0"/>
   <stop id="stop4" stop-color="#aaa" offset="1"/>
  </linearGradient>
 </defs>
 <path id="path9" d="m3 0c-1.645 0-3 1.355-3 3v10c0 1.64 1.355 3 3 3h10c1.64 0 3-1.36 3-3v-10c0-1.645-1.36-3-3-3h-10zm0 1h10c1.11 0 2 0.892 2 2v10c0 1.11-0.89 2-2 2h-10c-1.108 0-2-0.89-2-2v-10c0-1.108 0.892-2 2-2zm1 2c-0.554 0-1 0.446-1 1v8c0 0.55 0.446 1 1 1h8c0.55 0 1-0.45 1-1v-8c0-0.554-0.45-1-1-1h-8zm0 1h2c-1.091 0-2 0.909-2 2v-2zm6 0h2v2c0-1.091-0.91-2-2-2zm-4 1h4c0.55 0 1 0.446 1 1v4c0 0.55-0.45 1-1 1h-4c-0.554 0-1-0.45-1-1v-4c0-0.554 0.446-1 1-1zm-2 5c0 1.09 0.909 2 2 2h-2v-2zm8 0v2h-2c1.09 0 2-0.91 2-2z" opacity=".25"/>
 <path id="base" d="m3 1c-1.108 0-2 0.892-2 2v10c0 1.108 0.892 2 2 2h10c1.108 0 2-0.892 2-2v-10c0-1.108-0.892-2-2-2h-10zm1 2h8c0.554 0 1 0.446 1 1v8c0 0.554-0.446 1-1 1h-8c-0.554 0-1-0.446-1-1v-8c0-0.554 0.446-1 1-1zm2 2c-0.554 0-1 0.446-1 1v4c0 0.554 0.446 1 1 1h4c0.554 0 1-0.446 1-1v-4c0-0.554-0.446-1-1-1h-4z" fill="url(#gr0)"/>
 <path id="path17" d="m4 3c-0.554 0-1 0.446-1 1v1c0-0.554 0.446-1 1-1h8c0.55 0 1 0.446 1 1v-1c0-0.554-0.45-1-1-1h-8zm1 7v1c0 0.55 0.446 1 1 1h4c0.55 0 1-0.45 1-1v-1c0 0.55-0.45 1-1 1h-4c-0.554 0-1-0.45-1-1zm-4 3v1c0 1.11 0.892 2 2 2h10c1.11 0 2-0.89 2-2v-1c0 1.11-0.89 2-2 2h-10c-1.108 0-2-0.89-2-2z" opacity=".45"/>
 <path id="path24" d="m3 1c-1.108 0-2 0.892-2 2v1c0-1.108 0.892-2 2-2h10c1.11 0 2 0.892 2 2v-1c0-1.108-0.89-2-2-2h-10zm3 4c-0.554 0-1 0.446-1 1v1c0-0.554 0.446-1 1-1h4c0.55 0 1 0.446 1 1v-1c0-0.554-0.45-1-1-1h-4zm-3 7v1c0 0.55 0.446 1 1 1h8c0.55 0 1-0.45 1-1v-1c0 0.55-0.45 1-1 1h-8c-0.554 0-1-0.45-1-1z" fill="#fff" opacity=".6"/>
</svg>
