<?xml version="1.0" encoding="UTF-8"?>
<svg id="svg29" width="16" height="16" version="1.1" xmlns="http://www.w3.org/2000/svg" xmlns:cc="http://creativecommons.org/ns#" xmlns:dc="http://purl.org/dc/elements/1.1/" xmlns:rdf="http://www.w3.org/1999/02/22-rdf-syntax-ns#">
 <metadata id="metadata33">
  <rdf:RDF>
   <cc:Work rdf:about="">
    <dc:format>image/svg+xml</dc:format>
    <dc:type rdf:resource="http://purl.org/dc/dcmitype/StillImage"/>
   </cc:Work>
  </rdf:RDF>
 </metadata>
 <defs id="defs7">
  <linearGradient id="gr0" x1="8" x2="8" y1="6" y2="10" gradientUnits="userSpaceOnUse">
   <stop id="stop2" stop-color="#ebebeb" offset="0"/>
   <stop id="stop4" stop-color="#aaa" offset="1"/>
  </linearGradient>
 </defs>
 <path id="path9" d="m3 5c-1.645 0-3 1.355-3 3s1.355 3 3 3c1.179 0 2.011-0.8 2.5-1.801 0.489 1.001 1.321 1.801 2.5 1.801s2.01-0.8 2.5-1.801c0.49 1.001 1.32 1.801 2.5 1.801 1.64 0 3-1.355 3-3s-1.36-3-3-3c-1.18 0-2.01 0.801-2.5 1.801-0.49-1-1.321-1.801-2.5-1.801s-2.011 0.801-2.5 1.801c-0.489-1-1.321-1.801-2.5-1.801zm0 1c1.108 0 2 0.892 2 2s-0.892 2-2 2-2-0.892-2-2 0.892-2 2-2zm5 0c1.108 0 2 0.892 2 2s-0.892 2-2 2-2-0.892-2-2 0.892-2 2-2zm5 0c1.11 0 2 0.892 2 2s-0.89 2-2 2-2-0.892-2-2 0.89-2 2-2z" opacity=".25"/>
 <path id="base" d="m3 6c-1.108 0-2 .892-2 2s.892 2 2 2 2-.892 2-2-.892-2-2-2zm5 0c-1.108 0-2 .892-2 2s.892 2 2 2 2-.892 2-2-.892-2-2-2zm5 0c-1.108 0-2 .892-2 2s.892 2 2 2 2-.892 2-2-.892-2-2-2z" fill="url(#gr0)"/>
 <path id="path17" d="m1.07 8.5c-0.041 0.161-0.07 0.326-0.07 0.5 0 1.11 0.892 2 2 2s2-0.89 2-2c0-0.174-0.029-0.339-0.07-0.5-0.222 0.863-0.996 1.5-1.93 1.5s-1.708-0.637-1.93-1.5zm5 0c-0.041 0.161-0.07 0.326-0.07 0.5 0 1.11 0.892 2 2 2s2-0.89 2-2c0-0.174-0.029-0.339-0.07-0.5-0.222 0.863-0.996 1.5-1.93 1.5s-1.708-0.637-1.93-1.5zm5 0c-0.04 0.161-0.07 0.326-0.07 0.5 0 1.11 0.89 2 2 2s2-0.89 2-2c0-0.174-0.03-0.339-0.07-0.5-0.22 0.863-0.99 1.5-1.93 1.5s-1.71-0.637-1.93-1.5z" opacity=".45"/>
 <path id="path24" d="m3 6c-1.108 0-2 0.892-2 2 0 0.174 0.029 0.339 0.07 0.5 0.222-0.863 0.996-1.5 1.93-1.5s1.708 0.637 1.93 1.5c0.041-0.161 0.07-0.326 0.07-0.5 0-1.108-0.892-2-2-2zm5 0c-1.108 0-2 0.892-2 2 0 0.174 0.029 0.339 0.07 0.5 0.222-0.863 0.996-1.5 1.93-1.5s1.708 0.637 1.93 1.5c0.041-0.161 0.07-0.326 0.07-0.5 0-1.108-0.892-2-2-2zm5 0c-1.11 0-2 0.892-2 2 0 0.174 0.03 0.339 0.07 0.5 0.22-0.863 0.99-1.5 1.93-1.5s1.71 0.637 1.93 1.5c0.04-0.161 0.07-0.326 0.07-0.5 0-1.108-0.89-2-2-2z" fill="#fff" opacity=".6"/>
</svg>
