<?xml version="1.0" encoding="UTF-8"?>
<svg id="svg29" width="16" height="16" version="1.1" xmlns="http://www.w3.org/2000/svg" xmlns:cc="http://creativecommons.org/ns#" xmlns:dc="http://purl.org/dc/elements/1.1/" xmlns:rdf="http://www.w3.org/1999/02/22-rdf-syntax-ns#">
 <metadata id="metadata33">
  <rdf:RDF>
   <cc:Work rdf:about="">
    <dc:format>image/svg+xml</dc:format>
    <dc:type rdf:resource="http://purl.org/dc/dcmitype/StillImage"/>
   </cc:Work>
  </rdf:RDF>
 </metadata>
 <defs id="defs7">
  <linearGradient id="gr0" x1="8" x2="8" y1="1" y2="15" gradientUnits="userSpaceOnUse">
   <stop id="stop2" stop-color="#ebebeb" offset="0"/>
   <stop id="stop4" stop-color="#aaa" offset="1"/>
  </linearGradient>
 </defs>
 <path id="path9" d="m8.008 0a1 1 0 0 0-0.903 0.5527l-1.197 2.3963-2.541-0.847a1 1 0 0 0-1.265 1.265l0.847 2.541-2.3963 1.197a1 1 0 0 0 0 1.79l2.3963 1.195-0.847 2.54a1 1 0 0 0 1.265 1.27l2.541-0.85 1.197 2.4a1 1 0 0 0 1.79 0l1.195-2.4 2.54 0.85a1 1 0 0 0 1.27-1.27l-0.85-2.54 2.4-1.195a1 1 0 0 0 0-1.79l-2.4-1.197 0.85-2.541a1 1 0 0 0-1.27-1.265l-2.54 0.847-1.195-2.3963a1 1 0 0 0-0.887-0.5527zm-8e-3 1 1.5 3h-3l1.5-3zm-4.949 2.051 3.181 1.06-2.121 2.121-1.06-3.181zm9.899 0-1.06 3.181-2.122-2.121 3.182-1.06zm-4.95 1.949c1.657 0 3 1.343 3 3s-1.343 3-3 3-3-1.343-3-3 1.343-3 3-3zm-4 1.5v3l-3-1.5 3-1.5zm8 0 3 1.5-3 1.5v-3zm-7.889 3.268 2.121 2.122-3.181 1.06 1.06-3.182zm7.779 0 1.06 3.182-3.182-1.06 2.122-2.122zm-5.39 2.232h3l-1.5 3-1.5-3z" opacity=".25"/>
 <path id="base" d="m8 1-1.5 3h3l-1.5-3zm-4.9492 2.0508 1.0605 3.1816 2.1211-2.1211-3.1816-1.0605zm9.8984 0-3.1816 1.0605 2.1211 2.1211 1.0605-3.1816zm-4.9492 1.9492c-1.6569 0-3 1.3431-3 3s1.3431 3 3 3 3-1.3431 3-3-1.3431-3-3-3zm-4 1.5-3 1.5 3 1.5v-3zm8 0v3l3-1.5-3-1.5zm-7.8887 3.2676-1.0605 3.1816 3.1816-1.0605-2.1211-2.1211zm7.7773 0-2.1211 2.1211 3.1816 1.0605-1.0605-3.1816zm-5.3887 2.2324 1.5 3 1.5-3h-3z" fill="url(#gr0)"/>
 <path id="path17" d="m7 4-0.5 1h1.5 1.5l-0.5-1h-2zm-3.949 0.051 0.836 2.506 0.113-0.057v0.398l0.111 0.334 2.121-2.121-0.75-0.25-1.371 1.371-0.685-2.056-0.375-0.125zm9.899 0-0.38 0.125-0.68 2.056-1.37-1.371-0.752 0.25 2.122 2.121 0.11-0.328v-0.404l0.12 0.057 0.83-2.506zm-10.95 4.449-1 0.5 2.887 1.44 0.113-0.34v-0.6l-2-1zm3.051 0c-0.028 0.163-0.051 0.329-0.051 0.5 0 1.66 1.343 3 3 3s3-1.34 3-3c0-0.171-0.02-0.337-0.05-0.5-0.24 1.418-1.464 2.5-2.95 2.5s-2.71-1.082-2.949-2.5zm8.949 0-2 1v0.6l0.12 0.34 2.88-1.44-1-0.5zm-8.518 3.64-2.056 0.68-0.375 1.13 3.181-1.06-0.75-0.75zm5.038 0-0.752 0.75 3.182 1.06-0.38-1.13-2.05-0.68zm-4.02 0.86 1.5 3 1.5-3h-0.5l-1 2-1-2h-0.5z" opacity=".45"/>
 <path id="path24" d="m8 1-1.5 3h0.5l1-2 1 2h0.5l-1.5-3zm-4.949 2.051 0.375 1.125 2.056 0.685 0.75-0.75-3.181-1.06zm9.899 0-3.182 1.06 0.752 0.75 2.05-0.685 0.38-1.125zm-4.95 1.949c-1.657 0-3 1.343-3 3 0 0.171 0.023 0.337 0.051 0.5 0.239-1.418 1.463-2.5 2.949-2.5s2.71 1.082 2.95 2.5c0.03-0.163 0.05-0.329 0.05-0.5 0-1.657-1.343-3-3-3zm-4.113 1.557-2.887 1.443 1 0.5 2-1v-0.602l-0.113-0.341zm8.233 0-0.12 0.347v0.596l2 1 1-0.5-2.88-1.443zm-8.009 3.211-0.111 0.332v0.4l-0.113-0.06-0.836 2.51 0.375-0.13 0.685-2.05 1.371 1.37 0.75-0.25-2.121-2.122zm7.779 0-2.122 2.122 0.752 0.25 1.37-1.37 0.68 2.05 0.38 0.13-0.83-2.51-0.12 0.06v-0.4l-0.11-0.332zm-5.39 2.232 0.5 1h2l0.5-1h-1.5-1.5z" fill="#fff" opacity=".6"/>
</svg>
