<?xml version="1.0" encoding="UTF-8"?>
<!-- Created with Inkscape (http://www.inkscape.org/) -->
<svg id="svg2" width="16" height="16" version="1.0" xmlns="http://www.w3.org/2000/svg" xmlns:cc="http://creativecommons.org/ns#" xmlns:dc="http://purl.org/dc/elements/1.1/" xmlns:rdf="http://www.w3.org/1999/02/22-rdf-syntax-ns#" xmlns:xlink="http://www.w3.org/1999/xlink">
 <metadata id="metadata7">
  <rdf:RDF>
   <cc:Work rdf:about="">
    <dc:format>image/svg+xml</dc:format>
    <dc:type rdf:resource="http://purl.org/dc/dcmitype/StillImage"/>
    <dc:title/>
   </cc:Work>
  </rdf:RDF>
 </metadata>
 <g id="layer1" transform="translate(0,-6)">
  <path id="path3699" d="m8 6.5c-4.1421 0-7.5 2.6834-7.5 6.6875 0 4.0041 3.3579 6.6875 7.5 6.6875 1.141 0 2.2193-0.24688 3.1875-0.6875l4.3125 1.8125-1.5312-3.9688c0.96768-1.221 1.5312-2.1868 1.5312-3.8438 0-4.0041-3.3579-6.6875-7.5-6.6875zm0 0.5c3.866 0 7 2.4101 7 6 0 1.4856-0.53433 2.3428-1.4375 3.4375l1.4375 3.5625-4.0312-1.625c-0.90366 0.39504-1.9038 0.625-2.9688 0.625-3.866 0-7-2.4101-7-6s3.134-6 7-6z" opacity=".25"/>
  <path id="path3695" d="m14.969 13.531c-0.11462 1.1743-0.61598 1.9484-1.4062 2.9062l0.25 0.65625c0.73244-0.93938 1.1875-1.769 1.1875-3.0938 0-0.16041-0.01895-0.31316-0.03125-0.46875zm-13.938 0.125c-0.0066608 0.11518-0.03125 0.22598-0.03125 0.34375 0 3.5899 3.134 6 7 6 1.065 0 2.0651-0.22996 2.9688-0.625l4.0312 1.625-0.46875-1.1875-3.5625-1.4375c-0.90366 0.39504-1.9038 0.625-2.9688 0.625-3.6244 0-6.6103-2.121-6.9688-5.3438z" opacity=".45"/>
  <path id="path2892" d="m8 7c-3.866 0-7 2.4101-7 6s3.134 6 7 6c1.065 0 2.0651-0.22996 2.9688-0.625l4.0312 1.625-1.4375-3.5625c0.90317-1.0947 1.4375-1.9519 1.4375-3.4375 0-3.5899-3.134-6-7-6z" fill="#b3b3b3" opacity=".6"/>
  <path id="path2893" d="m8 7c-3.866 0-7 2.4101-7 6 0 0.11777 0.02459 0.22857 0.03125 0.34375 0.35847-3.2227 3.3444-5.3438 6.9688-5.3438 3.6244 0 6.6103 2.121 6.9688 5.3438 0.006929-0.11259 0.03125-0.22337 0.03125-0.34375 0-3.5899-3.134-6-7-6zm5.8125 10.094c-0.08893 0.11405-0.15222 0.22523-0.25 0.34375l0.96875 2.375 0.46875 0.1875-1.1875-2.9062z" fill="#fff" opacity=".35"/>
 </g>
</svg>
