<?xml version="1.0" encoding="UTF-8"?>
<svg id="svg25" width="16" height="16" version="1.1" xmlns="http://www.w3.org/2000/svg" xmlns:cc="http://creativecommons.org/ns#" xmlns:dc="http://purl.org/dc/elements/1.1/" xmlns:rdf="http://www.w3.org/1999/02/22-rdf-syntax-ns#">
 <metadata id="metadata29">
  <rdf:RDF>
   <cc:Work rdf:about="">
    <dc:format>image/svg+xml</dc:format>
    <dc:type rdf:resource="http://purl.org/dc/dcmitype/StillImage"/>
   </cc:Work>
  </rdf:RDF>
 </metadata>
 <defs id="defs7">
  <linearGradient id="gr0" x1="8" x2="8" y1="1" y2="15" gradientUnits="userSpaceOnUse">
   <stop id="stop2" stop-color="#f3604d" offset="0"/>
   <stop id="stop4" stop-color="#c81700" offset="1"/>
  </linearGradient>
 </defs>
 <path id="path9" d="m8.5 0c-2.4734 0-4.5 2.0266-4.5 4.5 0 1.5108 0.84666 2.7424 2 3.5566v5.4434a1.0001 1.0001 0 0 0 0.29297 0.707l1.5 1.5a1.0001 1.0001 0 0 0 1.4141 0l1.5-1.5a1.0001 1.0001 0 0 0 0.293-0.707v-1.5a1.0001 1.0001 0 0 0-0.293-0.707l-0.2929-0.293 0.2929-0.293a1.0001 1.0001 0 0 0 0.293-0.707v-1.9434c1.1533-0.81425 2-2.0458 2-3.5566 0-2.4734-2.0266-4.5-4.5-4.5zm0 1c1.933 0 3.5 1.567 3.5 3.5 0 1.3994-0.8131 2.5962-2 3.1562v2.3438l-1 1 1 1v1.5l-1.5 1.5-1.5-1.5v-5.8438c-1.1869-0.56-2-1.7568-2-3.1562 0-1.933 1.567-3.5 3.5-3.5zm0 1.5c-0.55228 0-1 0.44772-1 1s0.44772 1 1 1c0.55229 0 1-0.44772 1-1s-0.44771-1-1-1z" opacity=".25"/>
 <path id="base" d="m8.5 1c-1.933 0-3.5 1.567-3.5 3.5 0 1.3994.81310 2.5962 2 3.1562v5.8438l1.5 1.5 1.5-1.5v-1.5l-1-1 1-1v-2.3438c1.1869-.56004 2-1.7568 2-3.1562 0-1.933-1.567-3.5-3.5-3.5zm0 1.5c.55229 0 1 .44772 1 1s-.44771 1-1 1c-.55228 0-1-.44772-1-1s.44772-1 1-1z" fill="url(#gr0)"/>
 <path id="path15" d="m8.5 2.5c-0.55228 0-1 0.44772-1 1 0 0.18617 0.06374 0.35074 0.15234 0.5 0.17425-0.29353 0.48155-0.5 0.84766-0.5 0.36612 0 0.67341 0.20647 0.84766 0.5 0.0886-0.14926 0.15234-0.31383 0.15234-0.5 0-0.55228-0.44771-1-1-1zm-3.4551 2.5488c-0.01943 0.14931-0.04492 0.29656-0.04492 0.45117 0 1.3994 0.8131 2.5962 2 3.1562v-1c-1.0279-0.48498-1.7732-1.4492-1.9551-2.6074zm6.9102 0c-0.1819 1.1582-0.9272 2.1224-1.9551 2.6074v1c1.1869-0.56004 2-1.7568 2-3.1562 0-0.15461-0.0255-0.30186-0.0449-0.45117zm-1.9551 4.9512-1 1 0.5 0.5 0.5-0.5v-1zm-3 3.5v1l1.5 1.5 1.5-1.5v-1l-1.5 1.5-1.5-1.5z" opacity=".55"/>
 <path id="path20" d="m8.5 1c-1.933 0-3.5 1.567-3.5 3.5 0 0.18747 0.01679 0.36968 0.04492 0.54883 0.22356-1.7175 1.6767-3.0488 3.4551-3.0488 1.7784 0 3.2315 1.3314 3.4551 3.0488 0.0281-0.17915 0.0449-0.36136 0.0449-0.54883 0-1.933-1.567-3.5-3.5-3.5zm-0.84766 3c-0.0886 0.14926-0.15234 0.31383-0.15234 0.5 0 0.55228 0.44772 1 1 1 0.55229 0 1-0.44772 1-1 0-0.18617-0.06374-0.35074-0.15234-0.5-0.17425 0.29353-0.48154 0.5-0.84766 0.5-0.36611 0-0.67341-0.20647-0.84766-0.5zm1.8477 7.5-0.5 0.5 1 1v-1l-0.5-0.5z" fill="#fff" opacity=".3"/>
</svg>
