<?xml version="1.0" encoding="UTF-8"?>
<svg id="svg29" width="16" height="16" version="1.1" xmlns="http://www.w3.org/2000/svg" xmlns:cc="http://creativecommons.org/ns#" xmlns:dc="http://purl.org/dc/elements/1.1/" xmlns:rdf="http://www.w3.org/1999/02/22-rdf-syntax-ns#">
 <metadata id="metadata33">
  <rdf:RDF>
   <cc:Work rdf:about="">
    <dc:format>image/svg+xml</dc:format>
    <dc:type rdf:resource="http://purl.org/dc/dcmitype/StillImage"/>
   </cc:Work>
  </rdf:RDF>
 </metadata>
 <defs id="defs7">
  <linearGradient id="gr0" x1="8" x2="8" y1="1" y2="15" gradientUnits="userSpaceOnUse">
   <stop id="stop2" stop-color="#ebebeb" offset="0"/>
   <stop id="stop4" stop-color="#aaa" offset="1"/>
  </linearGradient>
 </defs>
 <path id="path9" d="m3 0c-1.645 0-3 1.355-3 3 0 1.179 0.8002 2.011 1.801 2.5-1.0008 0.489-1.801 1.321-1.801 2.5 0 1.18 0.8011 2.01 1.803 2.5-1.0023 0.49-1.803 1.32-1.803 2.5 0 1.64 1.352 3 3 3 0.784 0 1.477-0.34 2.014-0.84a1 1 0 0 0 0.986 0.84h9a1 1 0 0 0 1-1v-1c0-1.1-0.9-2-2-2h-0.43c1.45-0.98 2.43-2.614 2.43-4.5v-2c0-0.807-0.68-1.502-1.5-1.502-0.19 0-0.33 0.143-0.5 0.213v-0.711c0-1.919-1.58-3.5-3.5-3.5-1.922 0-3.5 1.578-3.5 3.5v0.711c-0.172-0.07-0.307-0.211-0.502-0.211-0.333 0-0.64 0.119-0.891 0.309 0.243-0.376 0.393-0.809 0.393-1.309 0-1.645-1.355-3-3-3zm0 1c1.105 0 2 0.895 2 2s-0.895 2-2 2-2-0.895-2-2 0.895-2 2-2zm7.5 0c1.39 0 2.5 1.115 2.5 2.5v4c0 1.385-1.11 2.5-2.5 2.5-1.385 0-2.5-1.115-2.5-2.5v-4c0-1.385 1.115-2.5 2.5-2.5zm-5.338 3.846c-0.1 0.199-0.162 0.419-0.162 0.654v0.334c-0.214-0.197-0.537-0.205-0.801-0.334 0.356-0.174 0.685-0.393 0.963-0.654zm9.338 0.152c0.28 0 0.5 0.226 0.5 0.502v2c0 1.963-1.25 3.6-3 4.22v1.28h2c0.55 0 1 0.45 1 1v1h-9v-1c0-0.55 0.446-1 1-1h2v-1.28c-1.747-0.62-3-2.257-3-4.22v-2c0-0.276 0.224-0.5 0.5-0.5 0.276-1e-3 0.5 0.224 0.5 0.5v2c0 1.939 1.561 3.5 3.5 3.5 1.94 0 3.5-1.561 3.5-3.5v-2c0-0.276 0.22-0.502 0.5-0.502zm-11.5 1.002c1.105 0 2 0.895 2 2s-0.895 2-2 2-2-0.895-2-2 0.895-2 2-2zm2.396 3.447c0.407 1.053 1.116 1.933 2.036 2.553h-0.432c-0.469 0-0.864 0.23-1.207 0.51-0.181-0.94-0.757-1.6-1.596-2.01 0.524-0.26 0.898-0.556 1.199-1.053zm-2.396 1.553c1.105 0 2 0.9 2 2s-0.895 2-2 2-2-0.9-2-2 0.895-2 2-2z" opacity=".25"/>
 <path id="base" d="m3 1c-1.105 0-2 0.895-2 2s0.895 2 2 2 2-0.895 2-2-0.895-2-2-2zm7.5 0c-1.385 0-2.5 1.115-2.5 2.5v4c0 1.385 1.115 2.5 2.5 2.5 1.39 0 2.5-1.115 2.5-2.5v-4c0-1.385-1.11-2.5-2.5-2.5zm-4.5 4.5v2c0 1.963 1.253 3.6 3 4.22v1.28h-2c-0.554 0-1 0.45-1 1v1h9v-1c0-0.55-0.45-1-1-1h-2v-1.28c1.75-0.62 3-2.257 3-4.22v-2c0-0.276-0.22-0.501-0.5-0.501s-0.5 0.225-0.5 0.501v2c0 1.939-1.56 3.5-3.5 3.5-1.939 0-3.5-1.561-3.5-3.5v-2c0-0.276-0.224-0.501-0.5-0.5-0.276 0-0.5 0.224-0.5 0.5zm-3 0.5c-1.105 0-2 0.895-2 2s0.895 2 2 2 2-0.895 2-2-0.895-2-2-2zm0 5c-1.105 0-2 0.9-2 2s0.895 2 2 2 2-0.9 2-2-0.895-2-2-2z" fill="url(#gr0)"/>
 <path id="path17" d="m1.07 3.5c-0.041 0.161-0.07 0.326-0.07 0.5 0 1.105 0.895 2 2 2s2-0.895 2-2c0-0.174-0.029-0.339-0.07-0.5-0.223 0.861-0.999 1.5-1.93 1.5s-1.707-0.639-1.93-1.5zm4.93 4v1c0 1.96 1.253 3.6 3 4.22v-1c-1.747-0.62-3-2.257-3-4.22zm2 0v1c0 1.212 0.853 2.22 1.994 2.45 0.166 0.02 0.336 0.05 0.506 0.05s0.34-0.03 0.51-0.05c1.14-0.23 1.99-1.238 1.99-2.45v-1c0 1.385-1.11 2.5-2.5 2.5-1.385 0-2.5-1.115-2.5-2.5zm7 0c0 1.963-1.25 3.6-3 4.22v1c1.75-0.62 3-2.26 3-4.22v-1zm-13.93 1c-0.041 0.161-0.07 0.326-0.07 0.5 0 1.11 0.895 2 2 2s2-0.89 2-2c0-0.174-0.029-0.339-0.07-0.5-0.223 0.861-0.999 1.5-1.93 1.5s-1.707-0.639-1.93-1.5zm0 5c-0.041 0.16-0.07 0.33-0.07 0.5 0 1.1 0.895 2 2 2s2-0.9 2-2c0-0.17-0.029-0.34-0.07-0.5-0.224 0.86-0.999 1.5-1.93 1.5s-1.706-0.64-1.93-1.5zm4.93 1.5v1h9v-1h-9z" opacity=".45"/>
 <path id="path24" d="m3 1c-1.105 0-2 0.895-2 2 0 0.174 0.029 0.339 0.07 0.5 0.223-0.861 0.999-1.5 1.93-1.5s1.707 0.639 1.93 1.5c0.041-0.161 0.07-0.326 0.07-0.5 0-1.105-0.895-2-2-2zm7.5 0c-1.385 0-2.5 1.115-2.5 2.5v1c0-1.385 1.115-2.5 2.5-2.5 1.39 0 2.5 1.115 2.5 2.5v-1c0-1.385-1.11-2.5-2.5-2.5zm4 3.998c-0.28 0-0.5 0.226-0.5 0.502v1c0-0.276 0.22-0.502 0.5-0.502s0.5 0.226 0.5 0.502v-1c0-0.276-0.22-0.502-0.5-0.502zm-8 2e-3c-0.276 0-0.5 0.224-0.5 0.5v1c0-0.276 0.224-0.5 0.5-0.5 0.276-1e-3 0.5 0.224 0.5 0.5v-1c0-0.276-0.224-0.501-0.5-0.5zm-3.5 1c-1.105 0-2 0.895-2 2 0 0.174 0.029 0.339 0.07 0.5 0.223-0.861 0.999-1.5 1.93-1.5s1.707 0.639 1.93 1.5c0.041-0.161 0.07-0.326 0.07-0.5 0-1.105-0.895-2-2-2zm4 1.5v1c0 1.94 1.561 3.5 3.5 3.5 1.94 0 3.5-1.56 3.5-3.5v-1c0 1.766-1.3 3.2-2.99 3.45-0.17 0.03-0.34 0.05-0.51 0.05s-0.34-0.02-0.506-0.05c-1.695-0.25-2.994-1.684-2.994-3.45zm-4 3.5c-1.105 0-2 0.9-2 2 0 0.17 0.029 0.34 0.07 0.5 0.224-0.86 0.999-1.5 1.93-1.5s1.706 0.64 1.93 1.5c0.041-0.16 0.07-0.33 0.07-0.5 0-1.1-0.895-2-2-2zm4 2c-0.554 0-1 0.45-1 1v1c0-0.55 0.446-1 1-1h2v-1h-2zm5 0v1h2c0.55 0 1 0.45 1 1v-1c0-0.55-0.45-1-1-1h-2z" fill="#fff" opacity=".6"/>
</svg>
