<?xml version="1.0" encoding="UTF-8"?>
<svg id="svg29" width="16" height="16" version="1.1" xmlns="http://www.w3.org/2000/svg" xmlns:cc="http://creativecommons.org/ns#" xmlns:dc="http://purl.org/dc/elements/1.1/" xmlns:rdf="http://www.w3.org/1999/02/22-rdf-syntax-ns#">
 <metadata id="metadata33">
  <rdf:RDF>
   <cc:Work rdf:about="">
    <dc:format>image/svg+xml</dc:format>
    <dc:type rdf:resource="http://purl.org/dc/dcmitype/StillImage"/>
   </cc:Work>
  </rdf:RDF>
 </metadata>
 <defs id="defs7">
  <linearGradient id="gr0" x1="8" x2="8" y1="2" y2="13" gradientUnits="userSpaceOnUse">
   <stop id="stop2" stop-color="#ebebeb" offset="0"/>
   <stop id="stop4" stop-color="#aaa" offset="1"/>
  </linearGradient>
 </defs>
 <path id="path9" d="m12 1c-1.09 0-2 0.909-2 2v1.42c-0.309-0.197-0.613-0.42-1-0.42-1.091 0-2 0.909-2 2v0.42c-0.309-0.197-0.613-0.42-1-0.42-1.091 0-2 0.909-2 2v0.42c-0.309-0.197-0.613-0.42-1-0.42-1.091 0-2 0.909-2 2v2c0 1.09 0.909 2 2 2 0.63 0 1.131-0.34 1.5-0.81 0.369 0.47 0.87 0.81 1.5 0.81s1.131-0.34 1.5-0.81c0.369 0.47 0.87 0.81 1.5 0.81s1.13-0.34 1.5-0.81c0.37 0.47 0.87 0.81 1.5 0.81 1.09 0 2-0.91 2-2v-9c0-1.091-0.91-2-2-2zm0 1c0.55 0 1 0.446 1 1v9c0 0.55-0.45 1-1 1s-1-0.45-1-1v-9c0-0.554 0.45-1 1-1zm-3 3c0.554 0 1 0.446 1 1v6c0 0.55-0.446 1-1 1s-1-0.45-1-1v-6c0-0.554 0.446-1 1-1zm-3 2c0.554 0 1 0.446 1 1v4c0 0.55-0.446 1-1 1s-1-0.45-1-1v-4c0-0.554 0.446-1 1-1zm-3 2c0.554 0 1 0.446 1 1v2c0 0.55-0.446 1-1 1s-1-0.45-1-1v-2c0-0.554 0.446-1 1-1z" opacity=".25"/>
 <path id="base" d="m12 2c-0.554 0-1 0.446-1 1v9c0 0.554 0.446 1 1 1s1-0.446 1-1v-9c0-0.554-0.446-1-1-1zm-3 3c-0.554 0-1 0.446-1 1v6c0 0.554 0.446 1 1 1s1-0.446 1-1v-6c0-0.554-0.446-1-1-1zm-3 2c-0.554 0-1 0.446-1 1v4c0 0.554 0.446 1 1 1s1-0.446 1-1v-4c0-0.554-0.446-1-1-1zm-3 2c-0.554 0-1 0.446-1 1v2c0 0.554 0.446 1 1 1s1-0.446 1-1v-2c0-0.554-0.446-1-1-1z" fill="url(#gr0)"/>
 <path id="path17" d="m2 12v1c0 0.55 0.446 1 1 1s1-0.45 1-1v-1c0 0.55-0.446 1-1 1s-1-0.45-1-1zm3 0v1c0 0.55 0.446 1 1 1s1-0.45 1-1v-1c0 0.55-0.446 1-1 1s-1-0.45-1-1zm3 0v1c0 0.55 0.446 1 1 1s1-0.45 1-1v-1c0 0.55-0.446 1-1 1s-1-0.45-1-1zm3 0v1c0 0.55 0.45 1 1 1s1-0.45 1-1v-1c0 0.55-0.45 1-1 1s-1-0.45-1-1z" opacity=".45"/>
 <path id="path24" d="m12 2c-0.55 0-1 0.446-1 1v1c0-0.554 0.45-1 1-1s1 0.446 1 1v-1c0-0.554-0.45-1-1-1zm-3 3c-0.554 0-1 0.446-1 1v1c0-0.554 0.446-1 1-1s1 0.446 1 1v-1c0-0.554-0.446-1-1-1zm-3 2c-0.554 0-1 0.446-1 1v1c0-0.554 0.446-1 1-1s1 0.446 1 1v-1c0-0.554-0.446-1-1-1zm-3 2c-0.554 0-1 0.446-1 1v1c0-0.55 0.446-1 1-1s1 0.45 1 1v-1c0-0.554-0.446-1-1-1z" fill="#fff" opacity=".6"/>
</svg>
