<?xml version="1.0" encoding="UTF-8"?>
<svg id="svg27" width="16" height="16" version="1.1" xmlns="http://www.w3.org/2000/svg" xmlns:cc="http://creativecommons.org/ns#" xmlns:dc="http://purl.org/dc/elements/1.1/" xmlns:rdf="http://www.w3.org/1999/02/22-rdf-syntax-ns#">
 <metadata id="metadata31">
  <rdf:RDF>
   <cc:Work rdf:about="">
    <dc:format>image/svg+xml</dc:format>
    <dc:type rdf:resource="http://purl.org/dc/dcmitype/StillImage"/>
   </cc:Work>
  </rdf:RDF>
 </metadata>
 <defs id="defs7">
  <linearGradient id="gr0" x1="8" x2="8" y1="1.0005" y2="9.0004" gradientUnits="userSpaceOnUse">
   <stop id="stop2" stop-color="#ebebeb" offset="0"/>
   <stop id="stop4" stop-color="#aaa" offset="1"/>
  </linearGradient>
 </defs>
 <path id="path9" d="m14.199 0c-0.463 0-0.9265 0.18582-1.2695 0.5293l-1.4551 1.457h-1.4609a1.0001 1.0001 0 0 0-0.02151 0c-0.42404 0.00847-0.82837 0.18295-1.127 0.48437l-2.373 2.3711a1.0001 1.0001 0 0 0-0.01172 0.01367c-0.60092 0.62336-0.60092 1.6403 0 2.2637a1.0001 1.0001 0 0 0 0.01172 0.01172l2.3516 2.3516c0.38971 0.41755 0.9735 0.59948 1.5312 0.48242a1.0001 1.0001 0 0 0 0.1074-0.02734c0.2812-0.09261 0.5317-0.26112 0.7246-0.48438l2.3223-2.3184 0.0019-0.00391c0.2987-0.29712 0.4747-0.69828 0.4825-1.125a1.0001 1.0001 0 0 0 0-0.01953v-1.4609l1.457-1.457c0.6858-0.68663 0.6858-1.8524 0-2.5391a1.0001 1.0001 0 0 0-0.0019-0.001953c-0.3414-0.33947-0.8068-0.52734-1.2696-0.52734zm0 1c0.203 0 0.4065 0.07913 0.5645 0.23633 0.314 0.3144 0.314 0.8106 0 1.125l-1.75 1.75v1.875c-3e-3 0.1647-0.0725 0.3217-0.1895 0.4375l-2.375 2.375c-0.075 0.0868-0.1703 0.1516-0.2793 0.1875-0.21728 0.0456-0.44253-0.0255-0.59373-0.1875l-2.375-2.375c-0.2356-0.2444-0.2356-0.6306 0-0.875l2.375-2.375c0.1158-0.1169 0.2724-0.1845 0.43753-0.1875h1.875l1.75-1.75c0.157-0.1572 0.3585-0.23633 0.5605-0.23633z" opacity=".25"/>
 <path id="base" d="m14.2 1.0005c-0.202 0-0.405 0.0791-0.562 0.2363l-1.75 1.75h-1.875c-0.1651 0.0033-0.322 0.0706-0.4378 0.1875l-2.375 2.375c-0.2356 0.2444-0.2356 0.6306 0 0.875l2.375 2.375c0.1512 0.162 0.3765 0.2331 0.5938 0.1875 0.109-0.0359 0.206-0.1007 0.281-0.1875l2.375-2.375c0.117-0.1158 0.185-0.2728 0.188-0.4375v-1.875l1.75-1.75c0.314-0.3144 0.314-0.8106 0-1.125-0.158-0.1572-0.36-0.2363-0.563-0.2363z" fill="url(#gr0)"/>
 <path id="path15" d="m5.8296 7.0142c-0.1091 0.0359-0.2063 0.1007-0.2813 0.1875l-2.375 2.375c-0.1173 0.1158-0.1846 0.2728-0.1875 0.4378v1.875l-1.75 1.75c-0.31439 0.314-0.31439 0.81 0 1.125 0.3144 0.314 0.8106 0.314 1.125 0l1.75-1.75h1.875c0.1648-4e-3 0.3217-0.071 0.4375-0.188l2.375-2.375c0.2356-0.244 0.2356-0.6304 0-0.8748l-2.375-2.375c-0.1512-0.162-0.3765-0.2331-0.5937-0.1875z" fill="#fff" opacity=".4"/>
 <path id="path17" d="m14.805 2.2988c-0.0163 0.01973-0.0225 0.04396-0.041 0.0625l-1.75 1.75v1l1.75-1.75c0.2955-0.29595 0.3019-0.74765 0.041-1.0625zm-1.791 3.6875c-3e-3 0.1647-0.0725 0.3217-0.1895 0.4375l-2.375 2.375c-0.075 0.0868-0.1703 0.1516-0.2793 0.1875-0.21728 0.0456-0.44253-0.0255-0.59373-0.1875l-2.3125-2.3125-0.0625 0.0625c-0.2356 0.2444-0.2356 0.6306 0 0.875l2.375 2.375c0.1512 0.162 0.37645 0.23307 0.59373 0.1875 0.109-0.0359 0.2043-0.1007 0.2793-0.1875l2.375-2.375c0.117-0.1158 0.1865-0.2728 0.1895-0.4375v-1z" opacity=".45"/>
 <path id="path22" d="m14.199 1c-0.202 0-0.4035 0.07913-0.5605 0.23633l-1.75 1.75h-1.875c-0.16513 3e-3 -0.32173 0.0706-0.43753 0.1875l-2.375 2.375c-0.2356 0.2444-0.2356 0.6306 0 0.875l0.0625 0.0625 2.3125-2.3125c0.1158-0.1169 0.2724-0.1845 0.43753-0.1875h1.875l1.75-1.75c0.157-0.1572 0.3585-0.23633 0.5605-0.23633 0.203 0 0.4065 0.07913 0.5645 0.23633 0.0184 0.01845 0.0247 0.04287 0.041 0.0625 0.2606-0.31485 0.2545-0.76664-0.041-1.0625-0.158-0.1572-0.3615-0.23633-0.5645-0.23633z" fill="#fff" opacity=".6"/>
</svg>
