<?xml version="1.0" encoding="UTF-8"?>
<svg id="svg27" width="16" height="16" version="1.1" xmlns="http://www.w3.org/2000/svg" xmlns:cc="http://creativecommons.org/ns#" xmlns:dc="http://purl.org/dc/elements/1.1/" xmlns:rdf="http://www.w3.org/1999/02/22-rdf-syntax-ns#">
 <metadata id="metadata31">
  <rdf:RDF>
   <cc:Work rdf:about="">
    <dc:format>image/svg+xml</dc:format>
    <dc:type rdf:resource="http://purl.org/dc/dcmitype/StillImage"/>
   </cc:Work>
  </rdf:RDF>
 </metadata>
 <defs id="defs7">
  <linearGradient id="gr0" x1="8" x2="8" y1="11" y2="14" gradientUnits="userSpaceOnUse">
   <stop id="stop2" stop-color="#ebebeb" offset="0"/>
   <stop id="stop4" stop-color="#aaa" offset="1"/>
  </linearGradient>
 </defs>
 <path id="path9" d="m8.002 10a1.0001 1.0001 0 0 0-0.57226 0.1816c-0.6029 0.0943-1.2188 0.1928-1.7188 0.543a1.0001 1.0001 0 0 0-0.2461 1.3906l1.7188 2.4571a1.0001 1.0001 0 0 0 1.6387 0.0019l1.7187-2.4551a1.0001 1.0001 0 0 0-0.2441-1.3925c-0.66616-0.4679-1.479-0.7251-2.293-0.7266a1.0001 1.0001 0 0 0-0.00196 0zm0 1a3 3 0 0 1 1.7207 0.5449l-1.7207 2.4551-1.7188-2.457a3 3 0 0 1 1.7188-0.543z" opacity=".25"/>
 <path id="base" d="m8.0029 11a3 3 0 0 0-1.7188 0.54297l1.7188 2.457 1.7188-2.455a3 3 0 0 0-1.7188-0.545z" fill="url(#gr0)"/>
 <path id="path15" d="m8.002 2a12 12 0 0 0-6.879 2.1738l1.1504 1.6446a10 10 0 0 1 5.7286-1.8184 10 10 0 0 1 5.732 1.8105l1.143-1.6289a12 12 0 0 0-6.875-2.1816zm0 3a9 9 0 0 0-5.1582 1.6309l1.1503 1.6425a7 7 0 0 1 4.0079-1.2734 7 7 0 0 1 4.014 1.2676l1.14-1.6309a9 9 0 0 0-5.154-1.6367zm0 3a6 6 0 0 0-3.4375 1.0879l1.1464 1.6391a4 4 0 0 1 2.2911-0.727 4 4 0 0 1 2.295 0.725l1.142-1.6352a6 6 0 0 0-3.437-1.0898z" fill="#fff" opacity=".4"/>
 <path id="path17" d="m6.7852 12.262a3 3 0 0 0-0.50196 0.2813l1.7188 2.457 1.7207-2.4551a3 3 0 0 0-0.50196-0.2832l-1.2188 1.7383-1.2168-1.7383z" opacity=".45"/>
 <path id="path22" d="m8.002 11a3 3 0 0 0-1.7188 0.543l0.50196 0.7187a3 3 0 0 1 1.2168-0.2617 3 3 0 0 1 1.2188 0.2617l0.50196-0.7168a3 3 0 0 0-1.7207-0.5449z" fill="#fff" opacity=".6"/>
</svg>
