<?xml version="1.0" encoding="UTF-8"?>
<svg id="svg29" width="16" height="16" version="1.1" xmlns="http://www.w3.org/2000/svg" xmlns:cc="http://creativecommons.org/ns#" xmlns:dc="http://purl.org/dc/elements/1.1/" xmlns:rdf="http://www.w3.org/1999/02/22-rdf-syntax-ns#">
 <metadata id="metadata33">
  <rdf:RDF>
   <cc:Work rdf:about="">
    <dc:format>image/svg+xml</dc:format>
    <dc:type rdf:resource="http://purl.org/dc/dcmitype/StillImage"/>
   </cc:Work>
  </rdf:RDF>
 </metadata>
 <defs id="defs7">
  <linearGradient id="gr0" x1="8" x2="8" y1="1" y2="15" gradientUnits="userSpaceOnUse">
   <stop id="stop2" stop-color="#f7c15a" offset="0"/>
   <stop id="stop4" stop-color="#df880b" offset="1"/>
  </linearGradient>
 </defs>
 <path id="path9" d="m3 0c-1.645 0-3 1.355-3 3v10c0 1.64 1.355 3 3 3h10c1.64 0 3-1.36 3-3v-10c0-1.645-1.36-3-3-3h-10zm0 1h10c1.11 0 2 0.892 2 2v10c0 1.11-0.89 2-2 2h-10c-1.108 0-2-0.89-2-2v-10c0-1.108 0.892-2 2-2zm5 2.662c-1.56 0-3.07 0.498-4.438 1.248l-0.443-0.633a10 10 0 0 0-0.849 0.534l0.841 1.203c-0.277 0.2 0.839-0.548 0.246-0.166-0.645 0.417 0.939-0.561 0.278-0.17-0.459 0.273-0.012 9e-3 0.193-0.112l0.182 0.03-0.071-0.09c-0.253 0.143 0.886-0.445 0.262-0.137-0.689 0.34 0.994-0.451 0.293-0.137s1.012-0.414 0.299-0.127 1.026-0.374 0.303-0.115 1.041-0.334 0.308-0.103c-0.732 0.232 1.052-0.297 0.311-0.09-0.741 0.203 1.062-0.253 0.314-0.08-0.748 0.175 1.071-0.216 0.317-0.071-0.754 0.147 1.079-0.174 0.32-0.06-0.759 0.117 1.083-0.131 0.32-0.039-0.763 0.09 1.09-0.091 0.325-0.031-0.766 0.06 1.089-0.05 0.322-0.02-0.768 0.03 1.094 0 0.326 0l0.043 4e-3c-0.768 0 1.092 0.04 0.324 0-0.767-0.03 1.09 0.08 0.324 0.02-0.765-0.06 1.086 0.124 0.323 0.031-0.763-0.09 1.077 0.16 0.32 0.039-0.759-0.119 1.077 0.204 0.32 0.06-0.754-0.147 1.067 0.246 0.317 0.071-0.748-0.176 1.06 0.284 0.32 0.08-0.746-0.205 1.04 0.324 0.31 0.09-0.736-0.232 1.03 0.363 0.3 0.103-0.72-0.26 1.02 0.403 0.31 0.115-0.72-0.287 1 0.442 0.29 0.127-0.7-0.314 0.99 0.48 0.3 0.139-0.63-0.309 0.51 0.279 0.26 0.137l-0.1 0.08 0.16-0.03c0.14 0.09 0.7 0.413 0.21 0.12-0.66-0.392 0.92 0.588 0.27 0.17-0.64-0.417 0.9 0.623 0.27 0.181a1 1 0 0 0-0.56-0.179 8.333 8.333 0 0 1 0.51 0.322l0.95-1.358a10 10 0 0 0-0.85-0.531l-0.43 0.619c-1.37-0.749-2.889-1.243-4.45-1.244zm-4.375 2.186a1 1 0 0 0-0.514 0.168l0.118 0.166a8.333 8.333 0 0 1 0.525-0.328 1 1 0 0 0-0.129-6e-3zm4.336 0.306c-1.051 0-2.067 0.326-3.008 0.795l-0.412-0.59a7.5 7.5 0 0 0-0.834 0.5l0.957 1.37a5.833 5.833 0 0 1 0.563-0.35 1 1 0 0 0-0.563 0.141c-0.018 0.022-0.019 0.01 0.147-0.094 0.048-0.017 0.423-0.22 0.593-0.319l0.117 0.02-0.048-0.07c0.028-4e-3 -0.018 4e-3 0.134-0.061 7e-3 9e-3 0.402-0.128 0.647-0.225 0.153-0.04 0.287-0.08 0.435-0.119 0.154-0.03 0.292-0.05 0.444-0.09 0.157-0.019 0.302-0.028 0.459-0.048 0.157 0 0.298-0.012 0.453-0.022l-0.043 0.029c0.153 0 0.289 0.02 0.445 0.02 0.158 0.02 0.311 0.041 0.471 0.051 0.152 0.03 0.287 0.06 0.439 0.08 0.149 0.04 0.283 0.08 0.436 0.121 0.201 0.08 0.477 0.174 0.597 0.211 0.1 0.03 0.16 0.068 0.18 0.068v0.051l0.1-0.019c0.2 0.113 0.56 0.306 0.6 0.322 0.14 0.085 0.08 0.057 0.13 0.082a1 1 0 0 0-0.6-0.123 5.833 5.833 0 0 1 0.55 0.338l0.95-1.36a7.5 7.5 0 0 0-0.9-0.533l-0.43 0.615c-0.94-0.468-1.957-0.79-3.009-0.791zm-1.899 2.244a5 5 0 0 0-0.921 0.508l0.957 1.364a3.333 3.333 0 0 1 0.554-0.311 1 1 0 0 0-0.591 0.141c0.106-0.102 0.386-0.244 0.164-0.112-0.305 0.182 0.552-0.286 0.234-0.129-0.318 0.161 0.573-0.239 0.244-0.107-0.223 0.09 0.03-1e-3 0.17-0.061h0.039l-0.01-0.019c0.01 0 0.12-0.04 0.051-0.02-0.338 0.107 0.603-0.151 0.258-0.07-0.345 0.08 0.612-0.106 0.262-0.051-0.351 0.05 0.619-0.059 0.265-0.029-0.353 0.03 0.621-0.01 0.266-0.01l-2e-3 8e-3c-0.355-1e-3 0.622 0.04 0.268 0.01-0.353-0.03 0.615 0.089 0.265 0.029-0.35-0.05 0.607 0.135 0.262 0.051-0.345-0.08 0.596 0.177 0.258 0.07-0.07-0.02 0.04 0.01 0.05 0.02l-9e-3 9e-3h0.039c0.131 0.05 0.409 0.157 0.177 0.061-0.329-0.133 0.56 0.27 0.243 0.109-0.318-0.157 0.535 0.311 0.236 0.129-0.191-0.113 0 0 0.139 0.102a1 1 0 0 0-0.555-0.127 3.333 3.333 0 0 1 0.543 0.307l0.952-1.362a5 5 0 0 0-0.86-0.484l-0.485 0.683c-0.492-0.188-0.955-0.47-1.482-0.47-0.526 0-0.991 0.281-1.482 0.47l-0.499-0.709zm2.44 2.152-0.494 0.71-0.494-0.71a2.5 2.5 0 0 0-0.93 0.4l1.432 2.05 1.433-2.04a2.5 2.5 0 0 0-0.947-0.41z" opacity=".25"/>
 <path id="base" d="m3 1c-1.108 0-2 .892-2 2v10c0 1.108.892 2 2 2h10c1.108 0 2-.892 2-2v-10c0-1.108-.892-2-2-2zm5.002 2a10 10 0 0 1 5.728 1.8184l-.951 1.3574a8.3334 8.3334 0 0 0 -4.777-1.5098 8.3334 8.3334 0 0 0 -4.7735 1.5156l-.959-1.3711a10 10 0 0 1 5.7325-1.8105zm0 2.5a7.5 7.5 0 0 1 4.295 1.3633l-.951 1.3594a5.8333 5.8333 0 0 0 -3.344-1.0567 5.8333 5.8333 0 0 0 -3.3418 1.0625l-.9571-1.3691a7.5 7.5 0 0 1 4.2989-1.3594zm0 2.5a5 5 0 0 1 2.865.9082l-.9529 1.3628a3.3333 3.3333 0 0 0 -1.9121-.605 3.3333 3.3333 0 0 0 -1.9082.607l-.9571-1.3668a5 5 0 0 1 2.8653-.9062zm0 2.5a2.5 2.5 0 0 1 1.4335.455l-1.4335 2.045-1.4317-2.047a2.5 2.5 0 0 1 1.4317-.453z" fill="url(#gr0)"/>
 <path id="path17" d="m7.896 3a10 10 0 0 0-5.626 1.811l0.486 0.695a10 10 0 0 1 5.14-1.506 10 10 0 0 1 0.106 0 10 10 0 0 1 5.238 1.512l0.49-0.694a10 10 0 0 0-5.728-1.818 10 10 0 0 0-0.106 0zm0.106 2.666a8.333 8.333 0 0 0-4.283 1.209l0.472 0.678a7.5 7.5 0 0 1 3.735-1.053 7.5 7.5 0 0 1 0.08 0 7.5 7.5 0 0 1 3.804 1.059l0.48-0.688a8.333 8.333 0 0 0-4.288-1.205zm4e-3 2.5a5.833 5.833 0 0 0-2.854 0.758l0.481 0.683a5 5 0 0 1 2.32-0.607h2e-3a5 5 0 0 1 0.051 0 5 5 0 0 1 2.374 0.607l0.48-0.691a5.833 5.833 0 0 0-2.854-0.75zm0 2.504a3.333 3.333 0 0 0-1.399 0.31l0.487 0.7a2.5 2.5 0 0 1 0.892-0.18h4e-3a2.5 2.5 0 0 1 0.026 0 2.5 2.5 0 0 1 0.925 0.18l0.487-0.69a3.333 3.333 0 0 0-1.422-0.32zm-7.006 2.33v1c0 1.11 0.892 2 2 2h10c1.11 0 2-0.89 2-2v-1c0 1.11-0.89 2-2 2h-10c-1.108 0-2-0.89-2-2z" opacity=".55"/>
 <path id="path24" d="m3 1c-1.108 0-2 0.892-2 2v1c0-1.108 0.892-2 2-2h10c1.11 0 2 0.892 2 2v-1c0-1.108-0.89-2-2-2h-10zm5.002 3.666a8.333 8.333 0 0 0-4.773 1.516l-0.473-0.678a10 10 0 0 0-0.486 0.307l0.959 1.371a8.333 8.333 0 0 1 0.486-0.305l-0.012-0.018a7.5 7.5 0 0 1 4.299-1.359 7.5 7.5 0 0 1 4.298 1.363l-0.01 8e-3a8.333 8.333 0 0 1 0.49 0.305l0.95-1.358a10 10 0 0 0-0.49-0.306l-0.46 0.664a8.333 8.333 0 0 0-4.778-1.51zm0 2.5a5.833 5.833 0 0 0-3.342 1.063l-0.472-0.676a7.5 7.5 0 0 0-0.485 0.306l0.957 1.37a5.833 5.833 0 0 1 0.488-0.305l-0.011-0.018a5 5 0 0 1 2.865-0.906 5 5 0 0 1 2.868 0.908l-0.01 8e-3a5.833 5.833 0 0 1 0.49 0.307l0.95-1.36a7.5 7.5 0 0 0-0.49-0.304l-0.46 0.664a5.833 5.833 0 0 0-3.348-1.057zm2.378 2.439-0.466 0.665a3.333 3.333 0 0 0-1.912-0.604 3.333 3.333 0 0 0-1.908 0.604l-0.465-0.663a5 5 0 0 0-0.492 0.299l0.957 1.364a3.333 3.333 0 0 1 0.502-0.28l-0.026-0.04a2.5 2.5 0 0 1 1.432-0.45 2.5 2.5 0 0 1 1.434 0.46l-0.018 0.03a3.333 3.333 0 0 1 0.496 0.28l0.956-1.362a5 5 0 0 0-0.49-0.303zm-3.3 2.075a2.5 2.5 0 0 0-0.51 0.27l1.432 2.05 1.434-2.04a2.5 2.5 0 0 0-0.508-0.28l-0.926 1.32-0.922-1.32z" fill="#fff" opacity=".3"/>
</svg>
