<?xml version="1.0" encoding="UTF-8"?>
<svg id="svg29" width="16" height="16" version="1.1" xmlns="http://www.w3.org/2000/svg" xmlns:cc="http://creativecommons.org/ns#" xmlns:dc="http://purl.org/dc/elements/1.1/" xmlns:rdf="http://www.w3.org/1999/02/22-rdf-syntax-ns#">
 <metadata id="metadata33">
  <rdf:RDF>
   <cc:Work rdf:about="">
    <dc:format>image/svg+xml</dc:format>
    <dc:type rdf:resource="http://purl.org/dc/dcmitype/StillImage"/>
   </cc:Work>
  </rdf:RDF>
 </metadata>
 <defs id="defs7">
  <linearGradient id="gr0" x1="8" x2="8" y1="1.699" y2="14.999" gradientUnits="userSpaceOnUse">
   <stop id="stop2" stop-color="#ebebeb" offset="0"/>
   <stop id="stop4" stop-color="#aaa" offset="1"/>
  </linearGradient>
 </defs>
 <path id="path9" d="m8.014 0.6992a1 1 0 0 0-0.909 0.5568l-1.931 3.906-4.3166 0.625a1 1 0 0 0-0.5547 1.707l3.1213 3.046-0.74 4.29a1 1 0 0 0 1.451 1.05l3.861-2.02 3.864 2.02a1 1 0 0 0 1.45-1.05l-0.74-4.29 3.13-3.042a1 1 0 0 0-0.56-1.707l-4.31-0.627-1.932-3.908a1 1 0 0 0-0.884-0.5568zm-0.012 0.9998 2.158 4.379 4.84 0.703-3.5 3.409 0.82 4.81-4.324-2.27-4.326 2.27 0.828-4.81-3.498-3.413 4.838-0.701 2.164-4.377zm0 3.389-0.82 1.652a1.5 1.5 0 0 1-1.129 0.821l-1.828 0.265 1.322 1.285a1.5 1.5 0 0 1 0.43 1.329l-0.313 1.82 1.635-0.86a1.5 1.5 0 0 1 1.394 0l1.637 0.86-0.31-1.82a1.5 1.5 0 0 1 0.43-1.329l1.32-1.283-1.823-0.266a1.5 1.5 0 0 1-1.129-0.82l-0.816-1.654zm2e-3 2.187c0.353 0.632 0.977 1.089 1.687 1.231-0.49 0.531-0.728 1.264-0.644 1.984-0.657-0.31-1.432-0.31-2.09 0 0.08-0.712-0.155-1.445-0.643-1.976 0.709-0.142 1.337-0.597 1.69-1.229v-0.01z" opacity=".25"/>
 <path id="base" d="m8.002 1.6992-2.1641 4.377-4.8379.7011 3.498 3.4087-.8281 4.81 4.3262-2.269 4.3259 2.273-.824-4.812 3.502-3.4067-4.836-.7032-2.162-4.3789zm-.0020 3.3848.8184 1.6582a1.5002 1.5002 0 0 0 1.1289 .82031l1.8262.26562-1.3203 1.2832a1.5002 1.5002 0 0 0 -.43359 1.3301l.31055 1.8184-1.6367-.86133a1.5002 1.5002 0 0 0 -1.3945 0l-1.6348.85742.3125-1.8164a1.5002 1.5002 0 0 0 -.4311 -1.3277l-1.3203-1.2851 1.8281-.2657a1.5002 1.5002 0 0 0 1.1289 -.8203l.8184-1.6562z" fill="url(#gr0)"/>
 <path id="path17" d="m8.002 5.088-0.82 1.652a1.5 1.5 0 0 1-1.129 0.821l-1.828 0.265 0.894 0.869 0.934-0.134a1.5 1.5 0 0 0 1.129-0.821l0.82-1.652 0.816 1.654a1.5 1.5 0 0 0 1.129 0.82l0.933 0.135 0.89-0.869-1.823-0.266a1.5 1.5 0 0 1-1.129-0.82l-0.816-1.654zm-6.109 2.56-0.893 0.129 3.352 3.263 0.146-0.85-2.605-2.542zm12.217 4e-3 -2.61 2.538 0.15 0.86 3.35-3.269-0.89-0.129zm-8.182 3.078-0.264 1.53 0.19-0.1 0.123-0.72a1.5 1.5 0 0 0-0.049-0.71zm4.142 0a1.5 1.5 0 0 0-0.05 0.71l0.12 0.72 0.19 0.1-0.26-1.53zm-2.074 2-4.137 2.17-0.189 1.1 4.326-2.27 4.324 2.27-0.19-1.1-4.134-2.17z" opacity=".45"/>
 <path id="path24" d="m8.002 1.699-2.164 4.377-4.838 0.701 0.893 0.871 3.945-0.572 2.164-4.377 2.158 4.379 3.95 0.574 0.89-0.871-4.84-0.703-2.158-4.379zm-2.881 6.996-0.894 0.131 1.322 1.284a1.5 1.5 0 0 1 0.381 0.62l0.049-0.29a1.5 1.5 0 0 0-0.43-1.329l-0.428-0.416zm5.759 2e-3 -0.43 0.414a1.5 1.5 0 0 0-0.43 1.329l0.05 0.29a1.5 1.5 0 0 1 0.38-0.62l1.32-1.282-0.89-0.131zm-6.528 2.343-0.682 3.96 0.189-0.1 0.639-3.71-0.146-0.15zm7.298 0.01-0.15 0.14 0.63 3.71 0.19 0.1-0.67-3.95zm-3.677 0.18a1.5 1.5 0 0 0-0.672 0.17l-1.446 0.76-0.189 1.1 1.635-0.86a1.5 1.5 0 0 1 1.394 0l1.635 0.86-0.19-1.1-1.445-0.76a1.5 1.5 0 0 0-0.722-0.17z" fill="#fff" opacity=".6"/>
</svg>
