<?xml version="1.0" encoding="UTF-8"?>
<svg id="svg29" width="16" height="16" version="1.1" xmlns="http://www.w3.org/2000/svg" xmlns:cc="http://creativecommons.org/ns#" xmlns:dc="http://purl.org/dc/elements/1.1/" xmlns:rdf="http://www.w3.org/1999/02/22-rdf-syntax-ns#">
 <metadata id="metadata33">
  <rdf:RDF>
   <cc:Work rdf:about="">
    <dc:format>image/svg+xml</dc:format>
    <dc:type rdf:resource="http://purl.org/dc/dcmitype/StillImage"/>
   </cc:Work>
  </rdf:RDF>
 </metadata>
 <defs id="defs7">
  <linearGradient id="gr0" x1="8" x2="8" y1="1" y2="15" gradientUnits="userSpaceOnUse">
   <stop id="stop2" stop-color="#ebebeb" offset="0"/>
   <stop id="stop4" stop-color="#aaa" offset="1"/>
  </linearGradient>
 </defs>
 <path id="path9" d="m8 0c-4.401 0-8 3.599-8 8 0 4.4 3.599 8 8 8 4.4 0 8-3.6 8-8 0-4.401-3.6-8-8-8zm0 1c3.86 0 7 3.142 7 7 0 3.86-3.14 7-7 7-3.858 0-7-3.14-7-7 0-3.858 3.142-7 7-7zm0 2c-2.761 0-5 2.239-5 5 0 2.76 2.239 5 5 5 2.76 0 5-2.24 5-5 0-2.761-2.24-5-5-5zm0 1c1.219 0 2.27 0.565 3 1.416-0.34-0.137-0.61-0.416-1-0.416h-4c-0.388 0-0.658 0.279-1 0.416 0.732-0.851 1.781-1.416 3-1.416zm-2 2h4c1.11 0 2 0.892 2 2s-0.89 2-2 2h-4c-1.108 0-2-0.892-2-2s0.892-2 2-2zm-1 4.58c0.342 0.14 0.612 0.42 1 0.42h4c0.39 0 0.66-0.28 1-0.42-0.73 0.85-1.781 1.42-3 1.42s-2.268-0.57-3-1.42z" opacity=".25"/>
 <path id="base" d="m8 1c-3.8578 0-7 3.1422-7 7 0 3.858 3.1422 7 7 7 3.858 0 7-3.142 7-7 0-3.8578-3.142-7-7-7zm0 2c2.7614-1e-7 5 2.2386 5 5s-2.2386 5-5 5-5-2.2386-5-5 2.2386-5 5-5zm-2 3c-1.108 0-2 0.892-2 2s0.892 2 2 2h4c1.108 0 2-0.892 2-2s-0.892-2-2-2h-4z" fill="url(#gr0)"/>
 <path id="path17" d="m8 3c-2.761 0-5 2.239-5 5 0 0.169 9e-3 0.336 0.025 0.5 0.251-2.527 2.383-4.5 4.975-4.5 2.59 0 4.72 1.973 4.97 4.5 0.02-0.164 0.03-0.331 0.03-0.5 0-2.761-2.24-5-5-5zm-6.975 5.5c-0.011 0.166-0.025 0.331-0.025 0.5 0 3.86 3.142 7 7 7 3.86 0 7-3.14 7-7 0-0.169-0.01-0.334-0.03-0.5-0.25 3.63-3.28 6.5-6.97 6.5-3.689 0-6.716-2.87-6.975-6.5zm3.045 0c-0.041 0.161-0.07 0.326-0.07 0.5 0 1.11 0.892 2 2 2h4c1.11 0 2-0.89 2-2 0-0.174-0.03-0.339-0.07-0.5-0.22 0.863-0.99 1.5-1.93 1.5h-4c-0.934 0-1.708-0.637-1.93-1.5z" opacity=".45"/>
 <path id="path24" d="m8 1c-3.858 0-7 3.142-7 7 0 0.169 0.014 0.334 0.025 0.5 0.259-3.625 3.286-6.5 6.975-6.5 3.69 0 6.72 2.875 6.97 6.5 0.02-0.166 0.03-0.331 0.03-0.5 0-3.858-3.14-7-7-7zm-2 5c-1.108 0-2 0.892-2 2 0 0.174 0.029 0.339 0.07 0.5 0.222-0.863 0.996-1.5 1.93-1.5h4c0.94 0 1.71 0.637 1.93 1.5 0.04-0.161 0.07-0.326 0.07-0.5 0-1.108-0.89-2-2-2h-4zm-2.975 2.5c-0.016 0.164-0.025 0.331-0.025 0.5 0 2.76 2.239 5 5 5 2.76 0 5-2.24 5-5 0-0.169-0.01-0.336-0.03-0.5-0.25 2.53-2.38 4.5-4.97 4.5-2.592 0-4.724-1.97-4.975-4.5z" fill="#fff" opacity=".6"/>
</svg>
