<?xml version="1.0" encoding="UTF-8"?>
<svg id="svg27" width="16" height="16" version="1.1" xmlns="http://www.w3.org/2000/svg" xmlns:cc="http://creativecommons.org/ns#" xmlns:dc="http://purl.org/dc/elements/1.1/" xmlns:rdf="http://www.w3.org/1999/02/22-rdf-syntax-ns#">
 <metadata id="metadata31">
  <rdf:RDF>
   <cc:Work rdf:about="">
    <dc:format>image/svg+xml</dc:format>
    <dc:type rdf:resource="http://purl.org/dc/dcmitype/StillImage"/>
   </cc:Work>
  </rdf:RDF>
 </metadata>
 <defs id="defs7">
  <linearGradient id="gr0" x1="8" x2="8" y1="4.641" y2="15.001" gradientUnits="userSpaceOnUse">
   <stop id="stop2" stop-color="#ebebeb" offset="0"/>
   <stop id="stop4" stop-color="#aaa" offset="1"/>
  </linearGradient>
 </defs>
 <path id="path9" d="m8 3.641c-1.312 0-2.43 1.061-2.43 2.384 0 1.132 0.879 1.934 1.936 2.182-0.828 0.244-1.506 0.89-1.506 1.793v4c0 1.1 0.905 2 2 2 1.096 0 2-0.92 2-2v-4c0-0.894-0.677-1.547-1.506-1.793 1.061-0.248 1.946-1.05 1.946-2.182 0-1.323-1.125-2.384-2.44-2.384zm0 1c0.8 0 1.439 0.617 1.439 1.384 0 0.766-0.639 1.383-1.439 1.383-0.79 0-1.43-0.617-1.43-1.383 0-0.767 0.64-1.384 1.43-1.384zm0 4.359c0.56 0 1 0.446 1 1v4c0 0.55-0.44 1-1 1-0.55 0-1-0.45-1-1v-4c0-0.554 0.45-1 1-1z" opacity=".25"/>
 <path id="base" d="m8 4.641c-0.79 0-1.43 0.618-1.43 1.385 0 0.766 0.64 1.383 1.43 1.383 0.8 0 1.44-0.617 1.44-1.383 0-0.767-0.64-1.385-1.44-1.385zm0 4.359c-0.55 0-1 0.446-1 1v4c0 0.55 0.45 1 1 1 0.56 0 1-0.45 1-1v-4c0-0.554-0.44-1-1-1z" fill="url(#gr0)"/>
 <path id="path15" d="m3.04 1.24c-2.722 2.626-2.721 6.915 0 9.54 0.306 0.3 0.883 0.3 1.19 0 0.306-0.29 0.307-0.825 0-1.12-2.093-2.02-2.093-5.261 0-7.28 0.278-0.255 0.334-0.713 0.12-1.02-0.15-0.221-0.443-0.361-0.69-0.36s-0.468 0.09-0.62 0.24zm8.61 0.12c-0.21 0.307-0.16 0.765 0.12 1.02 2.09 2.019 2.09 5.261 0 7.28-0.31 0.295-0.31 0.83 0 1.12 0.3 0.3 0.88 0.3 1.19 0 2.72-2.625 2.72-6.914 0-9.54-0.15-0.154-0.37-0.238-0.62-0.2401-0.25 0-0.54 0.139-0.69 0.36zm-6.55 1.87c-1.6 1.542-1.6 4.078 0 5.62 0.302 0.303 0.846 0.297 1.154 0 0.309-0.297 0.31-0.818 0-1.11-0.97-0.936-0.97-2.434 0-3.37 0.31-0.289 0.305-0.842 0-1.14-0.151-0.155-0.373-0.239-0.61-0.23-0.237 0.01-0.411 0.1-0.544 0.23zm4.646 0c-0.3 0.3-0.305 0.851 0 1.14 0.974 0.936 0.974 2.434 0 3.37-0.314 0.291-0.311 0.812 0 1.11 0.304 0.297 0.854 0.303 1.154 0 1.56-1.542 1.6-4.078 0-5.62-0.15-0.155-0.34-0.239-0.59-0.23-0.26 0.01-0.431 0.1-0.564 0.23z" fill="#fff" opacity=".4"/>
 <path id="path17" d="m6.67 6.525c-0.062 0.156-0.1 0.323-0.1 0.5 0 0.766 0.64 1.383 1.43 1.383 0.8 0 1.439-0.617 1.439-1.383 0-0.177-0.037-0.344-0.099-0.5-0.208 0.517-0.725 0.883-1.34 0.883-0.607 0-1.123-0.366-1.33-0.883zm0.33 7.475v1c0 0.55 0.45 1 1 1 0.56 0 1-0.45 1-1v-1c0 0.55-0.44 1-1 1-0.55 0-1-0.45-1-1z" opacity=".45"/>
 <path id="path22" d="m8 4.641c-0.79 0-1.43 0.617-1.43 1.384 0 0.178 0.038 0.345 0.1 0.5 0.207-0.517 0.723-0.884 1.33-0.884 0.615 0 1.132 0.367 1.34 0.884 0.062-0.155 0.099-0.322 0.099-0.5 0-0.767-0.639-1.384-1.439-1.384zm0 4.359c-0.55 0-1 0.446-1 1v1c0-0.55 0.45-1 1-1 0.56 0 1 0.45 1 1v-1c0-0.554-0.44-1-1-1z" fill="#fff" opacity=".6"/>
</svg>
