<?xml version="1.0" encoding="UTF-8"?>
<svg id="svg29" width="16" height="16" version="1.1" xmlns="http://www.w3.org/2000/svg" xmlns:cc="http://creativecommons.org/ns#" xmlns:dc="http://purl.org/dc/elements/1.1/" xmlns:rdf="http://www.w3.org/1999/02/22-rdf-syntax-ns#">
 <metadata id="metadata33">
  <rdf:RDF>
   <cc:Work rdf:about="">
    <dc:format>image/svg+xml</dc:format>
    <dc:type rdf:resource="http://purl.org/dc/dcmitype/StillImage"/>
   </cc:Work>
  </rdf:RDF>
 </metadata>
 <defs id="defs7">
  <linearGradient id="gr0" x1="8" x2="8" y1="1" y2="15" gradientUnits="userSpaceOnUse">
   <stop id="stop2" stop-color="#ebebeb" offset="0"/>
   <stop id="stop4" stop-color="#aaa" offset="1"/>
  </linearGradient>
 </defs>
 <path id="path9" d="m8.02 0a1 1 0 0 0-0.815 0.3945s-1.643 2.2305-5.205 2.2305a1 1 0 0 0-1 1c0 5.02 1.597 8.155 3.262 9.975 1.664 1.82 3.459 2.36 3.459 2.36a1 1 0 0 0 0.558 0s1.791-0.54 3.461-2.36c1.66-1.82 3.26-4.955 3.26-9.975a1 1 0 0 0-1-1c-3.56 0-5.205-2.2305-5.205-2.2305a1 1 0 0 0-0.775-0.3945zm-0.02 1s2 2.625 6 2.625c0 9.625-6 11.375-6 11.375s-6-1.75-6-11.375c4 0 6-2.625 6-2.625zm0 2.625c-0.9 0.647-2.082 1.16-3.688 1.531 0.28 3.433 1.384 5.444 2.407 6.564 0.535 0.58 0.94 0.91 1.281 1.12 0.341-0.21 0.746-0.54 1.281-1.12 1.019-1.12 2.129-3.131 2.409-6.564-1.61-0.371-2.79-0.883-3.69-1.531zm0 1.057c0.702 0.434 1.581 0.769 2.54 1.064-0.35 2.738-1.208 4.434-1.995 5.294-0.248 0.28-0.367 0.33-0.543 0.49-0.176-0.16-0.295-0.21-0.543-0.49-0.787-0.86-1.644-2.556-2-5.294 0.96-0.294 1.839-0.631 2.541-1.064z" opacity=".25"/>
 <path id="base" d="m8 1s-2 2.625-6 2.625c0 9.625 6 11.375 6 11.375s6-1.75 6-11.375c-4 0-6-2.625-6-2.625zm0 2.625c.9002.64768 2.082 1.16 3.688 1.5312-.28 3.4327-1.384 5.4434-2.4068 6.5625-.5348.585-.9398.908-1.2812 1.121-.3414-.213-.7464-.536-1.2812-1.121-1.0232-1.119-2.1266-3.13-2.4063-6.5628 1.6054-.3712 2.7873-.8835 3.6875-1.5312z" fill="url(#gr0)"/>
 <path id="path17" d="m8 3.625c-0.9 0.647-2.082 1.16-3.688 1.531 0.028 0.341 0.069 0.657 0.112 0.971 1.546-0.369 2.698-0.871 3.576-1.502 0.878 0.632 2.03 1.133 3.58 1.502 0.04-0.314 0.08-0.63 0.11-0.971-1.61-0.371-2.79-0.883-3.69-1.531zm-5.961 0.998c-0.013 0-0.026 2e-3 -0.039 2e-3 0 9.625 6 11.375 6 11.375s6-1.75 6-11.375c-0.01 0-0.03-2e-3 -0.04-2e-3 -0.4 8.727-5.96 10.377-5.96 10.377s-5.556-1.65-5.961-10.377z" opacity=".45"/>
 <path id="path24" d="m8 1s-2 2.625-6 2.625c0 0.35 0.024 0.668 0.039 0.998 3.973-0.017 5.961-2.623 5.961-2.623s1.988 2.606 5.96 2.623c0.02-0.33 0.04-0.648 0.04-0.998-4 0-6-2.625-6-2.625zm-3.576 5.127c-0.039 9e-3 -0.072 0.02-0.112 0.029 0.28 3.433 1.384 5.444 2.407 6.564 0.535 0.58 0.94 0.91 1.281 1.12 0.341-0.21 0.746-0.54 1.281-1.12 1.019-1.12 2.129-3.131 2.409-6.564-0.04-9e-3 -0.07-0.02-0.11-0.029-0.39 2.842-1.38 4.583-2.299 5.593-0.535 0.58-0.94 0.91-1.281 1.12-0.341-0.21-0.746-0.54-1.281-1.12-0.922-1.01-1.904-2.751-2.295-5.593z" fill="#fff" opacity=".6"/>
</svg>
