<?xml version="1.0" encoding="UTF-8"?>
<svg id="svg49" width="16" height="16" version="1.1" xmlns="http://www.w3.org/2000/svg" xmlns:cc="http://creativecommons.org/ns#" xmlns:dc="http://purl.org/dc/elements/1.1/" xmlns:rdf="http://www.w3.org/1999/02/22-rdf-syntax-ns#">
 <metadata id="metadata53">
  <rdf:RDF>
   <cc:Work rdf:about="">
    <dc:format>image/svg+xml</dc:format>
    <dc:type rdf:resource="http://purl.org/dc/dcmitype/StillImage"/>
   </cc:Work>
  </rdf:RDF>
 </metadata>
 <defs id="defs12">
  <linearGradient id="gr0" x1="8" x2="8" y1="2.213" y2="15.003" gradientUnits="userSpaceOnUse">
   <stop id="stop2" stop-color="#ebebeb" offset="0"/>
   <stop id="stop4" stop-color="#aaa" offset="1"/>
  </linearGradient>
  <linearGradient id="gr1" x1="8" x2="8" y1="1" y2="9" gradientUnits="userSpaceOnUse">
   <stop id="stop7" stop-color="#f3604d" offset="0"/>
   <stop id="stop9" stop-color="#c81700" offset="1"/>
  </linearGradient>
 </defs>
 <path id="path14" d="m8.51-0.003906-1.01 0.003906c-0.814 0-1.5 0.6863-1.5 1.5v0.182a1 1 0 0 0-0.355 0.06s-0.208 0.1-0.28 0.125l-0.22-0.209c-0.249-0.248-0.634-0.443-1.036-0.449a1 1 0 0 0-0.736 0.311c-0.1 0.06-0.251 0.059-0.326 0.138l-1.375 1.375c-0.547 0.547-0.552 1.55 0 2.102l0.23 0.24c-0.02 0.05-0.04 0.1-0.06 0.146h-0.338c-0.8158 0-1.5001 0.692-1.5001 1.5v1.94c0 0.808 0.68429 1.499 1.5001 1.499h0.34c0.02 0 0.04 0.1 0.06 0.14l-0.234 0.25c-0.553 0.56-0.554 1.55 0.01 2.11l1.363 1.37a1 1 0 0 0 0.01 0c0.555 0.54 1.521 0.53 2.076 0l0.258-0.25 0.144 0.1v0.34c0 0.82 0.692 1.5 1.5 1.5h1.938c0.808 0 1.501-0.68 1.501-1.5v-0.34s0.1 0 0.14-0.1l0.26 0.25c0.56 0.53 1.52 0.54 2.09 0l1.38-1.38c0.26-0.27 0.44-0.65 0.44-1.05 0-0.64-0.3-0.89-0.25-0.8a1 1 0 0 0-0.18-0.24l-0.25-0.26s0-0.1 0.1-0.14h0.34c0.82 0 1.5-0.691 1.5-1.499v-1.94c0-0.808-0.68-1.5-1.5-1.5h-0.34c0-0.05 0-0.1-0.1-0.146l0.25-0.256c0.53-0.555 0.54-1.521 0-2.076a1 1 0 0 0 0-0.01l-1.37-1.363c-0.56-0.568-1.55-0.567-2.11-0.01l-0.23 0.215c-0.1-0.03-0.27-0.125-0.27-0.125a1 1 0 0 0-0.36-0.07v-0.184c0-0.8136-0.686-1.4999-1.5-1.4999zm-1.01 1.0039h1c0.277 0 0.5 0.223 0.5 0.5v4c0 0.277-0.223 0.5-0.5 0.5h-1c-0.277 0-0.5-0.223-0.5-0.5v-4c0-0.277 0.223-0.5 0.5-0.5zm-3.406 1.209c0.126 2e-3 0.244 0.056 0.344 0.156l0.718 0.688c0.272-0.158 0.844-0.375 0.844-0.375v3.095c-0.609 0.549-1 1.335-1 2.219 0 1.657 1.343 3.008 3 3.008s3-1.349 3-3.006c0-0.884-0.39-1.67-1-2.219v-3.095s0.57 0.217 0.84 0.375l0.72-0.688c0.2-0.198 0.5-0.195 0.69 0l1.38 1.375c0.19 0.195 0.19 0.489 0 0.688l-0.69 0.716c0.25 0.431 0.43 0.885 0.56 1.379h1c0.28 0 0.5 0.225 0.5 0.5v1.94c0 0.275-0.22 0.5-0.5 0.5h-1c-0.13 0.492-0.31 0.945-0.56 1.375l0.69 0.72c0.05 0.1 0.15 0.22 0.15 0.35 0 0.12-0.05 0.24-0.15 0.34l-1.38 1.38c-0.19 0.19-0.49 0.19-0.69 0l-0.72-0.69c-0.43 0.25-0.879 0.43-1.371 0.56v1c0 0.28-0.225 0.5-0.5 0.5h-1.938c-0.275 0-0.5-0.22-0.5-0.5v-1c-0.492-0.13-0.944-0.31-1.375-0.56l-0.718 0.69c-0.199 0.19-0.493 0.19-0.688 0l-1.375-1.38c-0.195-0.19-0.198-0.49 0-0.69l0.687-0.72c-0.25-0.43-0.431-0.883-0.562-1.375h-1c-0.28 0-0.5-0.225-0.5-0.5v-1.94c0-0.275 0.22-0.5 0.5-0.5h1c0.131-0.492 0.312-0.948 0.562-1.379l-0.687-0.714c-0.198-0.198-0.195-0.493 0-0.688l1.375-1.375c0.097-0.096 0.217-0.156 0.344-0.156v-4e-3zm3.906 4.791c0.552 0 1 0.448 1 1s-0.448 1-1 1-1-0.448-1-1 0.448-1 1-1zm-1.959 1.41c0.161 0.769 0.773 1.383 1.539 1.551-0.779-0.163-1.382-0.769-1.539-1.551zm3.918 0c-0.158 0.789-0.77 1.4-1.559 1.555 0.776-0.161 1.396-0.78 1.559-1.555z" opacity=".25"/>
 <path id="base" d="m4.094 2.217c-0.127 0-0.247 0.06-0.344 0.156l-1.375 1.375c-0.195 0.195-0.198 0.489 0 0.687l0.688 0.715c-0.251 0.431-0.432 0.888-0.563 1.38h-1c-0.28 0-0.5 0.225-0.5 0.5v1.938c0 0.275 0.22 0.5 0.5 0.5h1c0.131 0.492 0.312 0.942 0.563 1.372l-0.688 0.72c-0.198 0.2-0.195 0.5 0 0.69l1.375 1.38c0.195 0.19 0.489 0.19 0.687 0l0.719-0.69c0.431 0.25 0.883 0.43 1.375 0.56v1c0 0.28 0.225 0.5 0.5 0.5h1.938c0.275 0 0.5-0.22 0.5-0.5v-1c0.492-0.13 0.941-0.31 1.371-0.56l0.72 0.69c0.2 0.19 0.5 0.19 0.69 0l1.38-1.38c0.1-0.1 0.15-0.22 0.15-0.34 0-0.13-0.1-0.25-0.15-0.35l-0.69-0.72c0.25-0.43 0.43-0.88 0.56-1.372h1c0.28 0 0.5-0.225 0.5-0.5v-1.938c0-0.275-0.22-0.5-0.5-0.5h-1c-0.13-0.494-0.31-0.949-0.56-1.38l0.69-0.716c0.19-0.199 0.19-0.493 0-0.688l-1.38-1.375c-0.19-0.195-0.49-0.198-0.69 0l-0.72 0.688c-0.27-0.158-0.84-0.375-0.84-0.375v3.096c0.61 0.549 1 1.334 1 2.218 0 1.657-1.343 3.002-3 3-1.657 0-3-1.345-3-3.002 0-0.884 0.391-1.669 1-2.218v-3.096s-0.572 0.217-0.844 0.375l-0.719-0.688c-0.1-0.1-0.217-0.154-0.343-0.156z" fill="url(#gr0)"/>
 <path id="path26" class="alert" d="m7.5 1c-.277 0-.5.223-.5.5v4c0 .277.223.5.5.5h1c.277 0 .5-.223.5-.5v-4c0-.277-.223-.5-.5-.5h-1zm.5 6c-.5523 0-1 .4477-1 1s.4477 1 1 1 1-.4477 1-1-.4477-1-1-1z" fill="url(#gr1)"/>
 <path id="path28" d="m13.48 4.59-0.54 0.556c0.12 0.215 0.23 0.436 0.32 0.665l0.37-0.381c0.19-0.199 0.19-0.493 0-0.688l-0.15-0.152zm-10.953 2e-3 -0.152 0.152c-0.195 0.195-0.198 0.49 0 0.688l0.363 0.377c0.093-0.228 0.2-0.448 0.324-0.663l-0.535-0.554zm4.473 0.908v1c0 0.277 0.223 0.5 0.5 0.5h0.5 0.5c0.277 0 0.5-0.223 0.5-0.5v-1c0 0.277-0.223 0.5-0.5 0.5h-1c-0.277 0-0.5-0.223-0.5-0.5zm-1 0.273c-0.609 0.549-1 1.335-1 2.219 0 0.179 0.023 0.353 0.053 0.524 0.113-0.687 0.451-1.295 0.947-1.743v-1zm4 2e-3v1c0.5 0.448 0.83 1.056 0.95 1.743 0.03-0.171 0.05-0.345 0.05-0.524 0-0.884-0.39-1.67-1-2.219zm-2.848 2.725c-0.088 0.149-0.152 0.314-0.152 0.5 0 0.552 0.448 1 1 1s1-0.448 1-1c0-0.186-0.064-0.351-0.152-0.5-0.175 0.294-0.482 0.5-0.848 0.5s-0.673-0.206-0.848-0.5zm-6.152 0.465v1c0 0.275 0.22 0.505 0.5 0.505h1c0.066 0.25 0.145 0.48 0.238 0.71l0.324-0.34c-0.25-0.43-0.431-0.883-0.562-1.375h-1c-0.28 0-0.5-0.225-0.5-0.5zm14 0c0 0.275-0.22 0.5-0.5 0.5h-1c-0.13 0.492-0.31 0.945-0.56 1.375l0.33 0.34c0.09-0.23 0.16-0.46 0.23-0.71h1c0.28 0 0.5-0.23 0.5-0.505v-1zm-12.475 3.435-0.15 0.16c-0.198 0.2-0.195 0.5 0 0.69l1.375 1.38c0.195 0.19 0.489 0.19 0.688 0l0.718-0.69c0.431 0.25 0.883 0.43 1.375 0.56v-1c-0.492-0.13-0.944-0.31-1.375-0.56l-0.718 0.69c-0.199 0.19-0.493 0.19-0.688 0l-1.225-1.23zm4.006 2.1v1c0 0.28 0.225 0.5 0.5 0.5h1.938c0.275 0 0.5-0.22 0.5-0.5v-1c0 0.28-0.225 0.5-0.5 0.5h-1.938c-0.275 0-0.5-0.22-0.5-0.5zm2.938 0c0.492-0.13 0.941-0.31 1.371-0.56l0.72 0.69c0.2 0.19 0.5 0.19 0.69 0l1.38-1.38c0.1-0.1 0.15-0.22 0.15-0.34 0-0.13-0.1-0.25-0.15-0.35l-0.15-0.16-1.23 1.23c-0.19 0.19-0.49 0.19-0.69 0l-0.72-0.69c-0.43 0.25-0.879 0.43-1.371 0.56v1z" opacity=".45"/>
 <path id="path39" d="m4.094 2.213v4e-3c-0.127 0-0.247 0.06-0.344 0.156l-1.375 1.375c-0.195 0.195-0.198 0.49 0 0.688l0.152 0.16 1.223-1.223c0.097-0.096 0.217-0.156 0.344-0.156v-4e-3c0.126 2e-3 0.244 0.056 0.344 0.156l0.718 0.688c0.272-0.158 0.844-0.375 0.844-0.375v-1s-0.572 0.217-0.844 0.375l-0.718-0.688c-0.1-0.1-0.218-0.154-0.344-0.156zm7.816 0.01c-0.13-1e-3 -0.25 0.049-0.35 0.148l-0.72 0.688c-0.27-0.158-0.84-0.375-0.84-0.375v1s0.57 0.217 0.84 0.375l0.72-0.688c0.2-0.198 0.5-0.195 0.69 0l1.23 1.223 0.15-0.16c0.19-0.199 0.19-0.493 0-0.688l-1.38-1.375c-0.09-0.097-0.22-0.148-0.34-0.148zm-9.172 3.589c-0.093 0.231-0.172 0.47-0.238 0.717h-1c-0.28 0-0.5 0.225-0.5 0.5v1c0-0.275 0.22-0.5 0.5-0.5h1c0.131-0.492 0.312-0.948 0.562-1.379l-0.324-0.338zm10.522 2e-3 -0.32 0.336c0.25 0.431 0.43 0.885 0.56 1.379h1c0.28 0 0.5 0.225 0.5 0.5v-1c0-0.275-0.22-0.5-0.5-0.5h-1c-0.07-0.248-0.14-0.484-0.24-0.715zm-8.207 2.706c-0.026 0.156-0.053 0.312-0.053 0.476 0 1.654 1.343 3.004 3 3.004s3-1.34 3-3.002c0-0.164-0.03-0.32-0.05-0.477-0.25 1.407-1.472 2.479-2.95 2.479s-2.699-1.073-2.947-2.48zm-2.315 2.66-0.363 0.38c-0.198 0.2-0.195 0.5 0 0.69l0.15 0.15 0.537-0.56c-0.125-0.21-0.231-0.43-0.324-0.66zm10.532 0c-0.1 0.23-0.21 0.45-0.33 0.66l0.54 0.56 0.15-0.15c0.1-0.1 0.15-0.22 0.15-0.34 0-0.13-0.1-0.25-0.15-0.35l-0.36-0.38z" fill="#fff" opacity=".6"/>
 <path id="path44" d="m7.5 1c-0.277 0-0.5 0.223-0.5 0.5v1c0-0.277 0.223-0.5 0.5-0.5h1c0.277 0 0.5 0.223 0.5 0.5v-1c0-0.277-0.223-0.5-0.5-0.5h-1zm0.5 6c-0.552 0-1 0.448-1 1 0 0.186 0.064 0.351 0.152 0.5 0.175-0.294 0.482-0.5 0.848-0.5s0.673 0.206 0.848 0.5c0.088-0.149 0.152-0.314 0.152-0.5 0-0.552-0.448-1-1-1z" fill="#fff" opacity=".3"/>
</svg>
