<?xml version="1.0" encoding="UTF-8"?>
<svg id="svg2" width="16" height="16" version="1.0" xmlns="http://www.w3.org/2000/svg" xmlns:cc="http://creativecommons.org/ns#" xmlns:dc="http://purl.org/dc/elements/1.1/" xmlns:rdf="http://www.w3.org/1999/02/22-rdf-syntax-ns#" xmlns:xlink="http://www.w3.org/1999/xlink">
 <defs id="defs4">
  <linearGradient id="linearGradient3232" x1="5.2562" x2="5.2562" y1="16" y2="-.075534" gradientUnits="userSpaceOnUse">
   <stop id="stop3228" stop-color="#6e6e6e" offset="0"/>
   <stop id="stop3230" stop-color="#b4b4b4" offset="1"/>
  </linearGradient>
  <linearGradient id="linearGradient3094" x1="80.304" x2="83.1" y1="34.651" y2="45.085" gradientUnits="userSpaceOnUse" xlink:href="#linearGradient5044"/>
  <linearGradient id="linearGradient5044">
   <stop id="stop5046" stop-color="#dcdcdc" offset="0"/>
   <stop id="stop5048" stop-color="#a5a5a5" offset="1"/>
  </linearGradient>
  <linearGradient id="linearGradient3092" x1="43.476" x2="43.476" y1="27.054" y2="45.451" gradientTransform="translate(-.24986 .99944)" gradientUnits="userSpaceOnUse" xlink:href="#linearGradient5044"/>
  <linearGradient id="linearGradient3090" x1="48.972" x2="48.972" y1="23.558" y2="48.326" gradientTransform="matrix(1.1667 0 0 1.1681 -10.536 -6.8598)" gradientUnits="userSpaceOnUse">
   <stop id="stop5038" stop-color="#a2a2a2" offset="0"/>
   <stop id="stop5040" stop-color="#838383" offset="1"/>
  </linearGradient>
  <linearGradient id="linearGradient4467" x1="60.414" x2="46.921" y1="106.16" y2="110.66" gradientUnits="userSpaceOnUse" xlink:href="#linearGradient4368"/>
  <linearGradient id="linearGradient4465" x1="43.245" x2="48.194" y1="104.22" y2="93.471" gradientUnits="userSpaceOnUse" xlink:href="#linearGradient4360"/>
  <linearGradient id="linearGradient4463" x1="66.74" x2="75.281" y1="63.589" y2="80.815" gradientUnits="userSpaceOnUse" xlink:href="#linearGradient4360"/>
  <linearGradient id="linearGradient4461" x1="52.106" x2="61.13" y1="76.541" y2="68.296" gradientUnits="userSpaceOnUse" xlink:href="#linearGradient4368"/>
  <linearGradient id="linearGradient4368">
   <stop id="stop4370" stop-color="#828282" offset="0"/>
   <stop id="stop4372" stop-color="#5a5a5a" offset="1"/>
  </linearGradient>
  <linearGradient id="linearGradient4459" x1="82.856" x2="86.749" y1="87.433" y2="97.972" gradientUnits="userSpaceOnUse" xlink:href="#linearGradient4368"/>
  <linearGradient id="linearGradient4360">
   <stop id="stop4362" stop-color="#6e6e6e" offset="0"/>
   <stop id="stop4364" stop-color="#8c8c8c" offset="1"/>
  </linearGradient>
  <linearGradient id="linearGradient4457" x1="87.229" x2="69.921" y1="103.55" y2="103.55" gradientUnits="userSpaceOnUse" xlink:href="#linearGradient4360"/>
  <linearGradient id="linearGradient4347" x1="48.223" x2="48.223" y1="13.313" y2="47.795" gradientUnits="userSpaceOnUse">
   <stop id="stop7099" stop-color="#919191" offset="0"/>
   <stop id="stop7101" stop-color="#fff" offset="1"/>
  </linearGradient>
  <linearGradient id="linearGradient7175">
   <stop id="stop7177" offset="0"/>
   <stop id="stop7179" stop-opacity="0" offset="1"/>
  </linearGradient>
  <linearGradient id="linearGradient7155">
   <stop id="stop7157" stop-color="#fff" offset="0"/>
   <stop id="stop7159" stop-color="#fff" stop-opacity="0" offset="1"/>
  </linearGradient>
  <linearGradient id="linearGradient3204" x1="1" x2="15" y1="9" y2="9" gradientTransform="translate(0,-1)" gradientUnits="userSpaceOnUse">
   <stop id="stop3174" stop-color="#a0a0a0" offset="0"/>
   <stop id="stop3188" stop-color="#dcdcdc" offset=".13621"/>
   <stop id="stop3180" stop-color="#f5f5f5" offset=".30236"/>
   <stop id="stop3190" stop-color="#dcdcdc" offset=".61225"/>
   <stop id="stop3176" stop-color="#b4b4b4" offset="1"/>
  </linearGradient>
  <radialGradient id="radialGradient5079" cx="65.038" cy="38.695" r="51.413" gradientTransform="matrix(.11461 0 0 .072359 .46763 3.4145)" gradientUnits="userSpaceOnUse">
   <stop id="stop7107" stop-color="#515151" offset="0"/>
   <stop id="stop7113" stop-color="#1b1b1b" offset="1"/>
  </radialGradient>
  <clipPath id="clipPath4509">
   <path id="path4511" transform="matrix(.72248 0 0 .84099 2.4717 -.25939)" d="m103.44 30.554a40.477 16.241 0 1 1-80.955 0 40.477 16.241 0 1 1 80.955 0z" fill="#fff" fill-rule="evenodd"/>
  </clipPath>
  <linearGradient id="linearGradient2816" x1="26.985" x2="26.985" y1="5" y2="176.65" gradientTransform="matrix(.046804 0 0 .11829 11.512 .45035)" gradientUnits="userSpaceOnUse" xlink:href="#linearGradient7175"/>
  <linearGradient id="linearGradient2819" x1="26.985" x2="26.985" y1="5" y2="68.695" gradientTransform="matrix(.023641 0 0 .11829 12.854 .40855)" gradientUnits="userSpaceOnUse" xlink:href="#linearGradient7155"/>
  <linearGradient id="linearGradient2822" x1="26.985" x2="26.985" y1="5" y2="120.64" gradientTransform="matrix(.1293 0 0 -.11829 5.368 15.591)" gradientUnits="userSpaceOnUse" xlink:href="#linearGradient7175"/>
  <linearGradient id="linearGradient2825" x1="26.985" x2="26.985" y1="5" y2="70.167" gradientTransform="matrix(.16011 0 0 -.11829 .94177 15.55)" gradientUnits="userSpaceOnUse" xlink:href="#linearGradient7175"/>
  <linearGradient id="linearGradient2828" x1="26.985" x2="26.985" y1="5" y2="68.695" gradientTransform="matrix(.058859 0 0 -.11829 1.6209 15.55)" gradientUnits="userSpaceOnUse" xlink:href="#linearGradient7155"/>
  <linearGradient id="linearGradient2831" x1="26.985" x2="26.985" y1="54.295" y2="96.04" gradientTransform="matrix(.047853 0 0 -.11829 5.9147 15.55)" gradientUnits="userSpaceOnUse" spreadMethod="reflect" xlink:href="#linearGradient7155"/>
  <linearGradient id="linearGradient2834" x1="26.985" x2="26.985" y1="5" y2="110.74" gradientTransform="matrix(.11829 0 0 .11829 8.0266 .40855)" gradientUnits="userSpaceOnUse" xlink:href="#linearGradient7155"/>
  <linearGradient id="linearGradient2841" x1="26.985" x2="26.985" y1="5" y2="110.67" gradientTransform="matrix(.014836 0 0 .11829 1.8191 .40855)" gradientUnits="userSpaceOnUse" xlink:href="#linearGradient7155"/>
 </defs>
 <metadata id="metadata7">
  <rdf:RDF>
   <cc:Work rdf:about="">
    <dc:format>image/svg+xml</dc:format>
    <dc:type rdf:resource="http://purl.org/dc/dcmitype/StillImage"/>
    <dc:title/>
   </cc:Work>
  </rdf:RDF>
 </metadata>
 <g id="layer1">
  <rect id="rect4872" width="16" height="16" rx="2" ry="2" fill="url(#linearGradient3232)"/>
  <rect id="rect3196" x="1" y="1" width="14" height="14" rx="1.5" ry="1.5" fill="url(#linearGradient3204)"/>
  <path id="rect7153" d="m10.099 1v1.6004c0.9039 0.14735 1.683 0.39007 2.2531 0.7v-2.3004zm2.2531 4.4625c-0.23328 0.17088-0.52658 0.32265-0.85312 0.45938-0.40825 0.17093-0.87733 0.30908-1.4 0.41562v8.6188h2.2531z" fill="url(#linearGradient2834)" fill-rule="evenodd" opacity=".6"/>
  <path id="rect7163" d="m6.7525 1v1.1375c0.29848-0.032817 0.60157-0.05436 0.91875-0.065625v-1.0719zm0 5.5125v8.4438h0.91875v-8.4c-0.31086-0.00413-0.62389-0.017689-0.91875-0.04375z" fill="url(#linearGradient2831)" fill-rule="evenodd" opacity=".3"/>
  <path id="rect7167" d="m2.6619 1v3.0625c0.062327-0.21462 0.18396-0.42614 0.37188-0.6125 0.18998-0.18841 0.42667-0.36992 0.72188-0.525v-1.925zm0 3.6094v10.347h1.0938v-9.2312c-0.2952-0.15514-0.53189-0.31499-0.72188-0.50312-0.18792-0.18609-0.30955-0.39901-0.37188-0.6125z" fill="url(#linearGradient2828)" fill-rule="evenodd" opacity=".4"/>
  <path id="rect7171" d="m3.7338 1v2.0125c0.69544-0.42517 1.7823-0.739 3.0406-0.875v-1.1375zm0 4.2875v9.6688h3.0406v-8.7938c-1.2649-0.13671-2.3455-0.44646-3.0406-0.875z" fill="url(#linearGradient2825)" fill-rule="evenodd" opacity=".15"/>
  <path id="rect7185" d="m7.6275 1.0438v1.0281c0.16928-0.00659 0.32953-0.021875 0.50312-0.021875 0.69181 0 1.3419 0.055869 1.9469 0.15312v-1.1594zm2.45 5.0531c-0.60501 0.097256-1.2551 0.15312-1.9469 0.15312-0.17359 0-0.33384-0.015289-0.50312-0.021875v8.7719h2.45z" fill="url(#linearGradient2822)" fill-rule="evenodd" opacity=".1"/>
  <path id="rect7189" d="m13.281 1.0312v13.938h0.125c0.1076-0.02191 0.21203-0.05541 0.3125-0.09375v-13.75c-0.13772-0.052557-0.28689-0.072588-0.4375-0.09375z" fill="url(#linearGradient2819)" fill-rule="evenodd" opacity=".4"/>
  <path id="rect7193" d="m12.331 1.0438v2.3673c0.41903 0.22404 0.7285 0.4852 0.89688 0.76562v-3.133zm0.89688 3.5875c-0.16686 0.28093-0.47859 0.54104-0.89688 0.76562v9.6031h0.89688z" fill="url(#linearGradient2816)" fill-rule="evenodd" opacity=".1"/>
  <path id="rect7197" d="m2.375 1.0938c-0.097393 0.031758-0.19115 0.079381-0.28125 0.125v13.562c0.090097 0.04562 0.18386 0.09324 0.28125 0.125z" fill="url(#linearGradient2841)" fill-rule="evenodd" opacity=".4"/>
  <path id="rect3344" d="m7.9375 2.5c-2.9923 0-5.4375 1.1337-5.4375 2.5312 0 1.3976 2.4452 2.5313 5.4375 2.5312 2.9923 0 5.4062-1.1337 5.4062-2.5312 0-1.3976-2.414-2.5312-5.4062-2.5312z" fill="url(#radialGradient5079)" fill-rule="evenodd"/>
  <g id="g3029" transform="matrix(.18536 0 0 .18536 -.96211 .30884)" clip-path="url(#clipPath4509)" fill-rule="evenodd">
   <g id="g5181" transform="matrix(.73519 0 0 .73519 1.8455 1.5183)">
    <path id="path5030" d="m35.813 50.722-0.58301-16.053 5.2471 0.87562-2.332-6.7131 12.826-7.5887-7.2876 7.8806 4.9556 1.4594 4.3726-2.335 6.9961 4.0862 3.7896-3.7943 4.3726-0.29187 2.0405 2.0431 5.1013-7.5887-0.14575 10.216 3.4981-0.58374-0.87451-2.335 6.1216 1.1675-1.4575 2.9187 8.7451 4.9618-3.4981 17.804-27.984 3.5025z" fill="url(#linearGradient3090)"/>
    <g id="g5150">
     <path id="path5146" d="m53.092 28.618 3.1802 12.191 4.1519-7.6855 3.2686 8.0389v-12.279l-3.4452 3.5336z" fill="#6c6c6c"/>
     <path id="path5144" d="m48.145 31.622-7.0671 3.7102 5.5654-1.1484s-0.4417 17.314-0.53004 16.696c-0.08834-0.61838 2.1201-19.258 2.0318-19.258z" fill="#696969"/>
     <path id="path5148" d="m77.915 30.032 4.7703 3.6219-5.3887 0.79505-0.61838-1.6343 2.076-0.39753z" fill="#6b6b6b"/>
     <path id="path5142" d="m49.823 21.993-11.484 6.8905 3.5336 0.17668-2.4735 2.1201h8.6572l-5.8304-1.2367z" fill="#bdbdbd"/>
    </g>
   </g>
   <g id="g5165" transform="matrix(.73519 0 0 .73519 1.8455 1.5183)">
    <path id="path5026" d="m31.482 47.295-4.7474-6.4964 6.7462-3.7479 2.2488 3.2482 1.9989-1.2493v-4.7474l4.9972 5.4969 1.749-3.9978 2.4986 2.2487 3.2482-6.9961 3.9978-0.24986 3.9978 3.7479-1.749 2.4986 5.2471 2.9983 2.9983 5.9967-1.749 5.9967z" fill="url(#linearGradient3092)"/>
    <g id="g5095">
     <path id="path5082" d="m44.611 37.099 1.3251 9.1873 0.79505-7.2438z" fill="#a6a6a6"/>
     <path id="path5078" d="m50.53 31.975 3.2686-0.61837-2.3852 3.7102 4.1519 1.7668-7.7739 4.7703 5.1237-4.682-3.6219-2.0318z" fill="#f9f9f9"/>
     <path id="path5080" d="m38.163 35.862-0.08834 6.8905 4.417-1.8551z" fill="#e6e6e6"/>
    </g>
   </g>
   <g id="g5156" transform="matrix(.73519 0 0 .73519 1.8455 1.5183)">
    <path id="path5028" d="m62.715 50.043-3.9978-5.6219 3.2482-5.9967 5.1222-1.2493-1.4992-2.8109 3.623-2.5611-6.7462-4.7474s5.1243 0.60828 7.121 0.87451c1.874 0.24986 7.6208 0.12493 7.6208 0.12493l-1.2493 1.9989 2.7485 5.4969 2.4986-2.7485 3.9978 0.49972 2.9983 5.2471 0.49972-4.7474 3.7479-2.7485 2.2488 2.7485 3.9978 3.2482-4.4975 0.99944 5.4969 6.4964-16.491 7.9956z" fill="url(#linearGradient3094)"/>
    <g id="g5089">
     <path id="path5060" d="m75.088 30.297-4.947 1.5901 5.8304 2.1201-4.417 2.6502 8.8339 7.5972-6.0071-7.0671 2.4735-3.1802-3.5336-2.1201z" fill="#b3b3b3"/>
     <path id="path5064" d="m66.608 34.537 3.4452-2.3852 5.477 1.7668z" fill="#fff"/>
     <path id="path5066" d="m81.537 33.919-2.7385 2.8269 3.6219 7.7739z" fill="#f7f7f7"/>
     <path id="path5068" d="m82.862 34.625 3.9753 9.0989 3.6219-3.3569-0.70671-5.9187 3.2686 6.8021-6.2721 7.5088z" fill="#909090"/>
    </g>
   </g>
   <g id="g5173" transform="matrix(.73519 0 0 .73519 4.7862 1.5183)">
    <path id="path5034" d="m44.975 51.293-3.4981-5.4969 5.2471-2.9983 2.7485 1.2493 2.2488-2.7485 3.9978-2.7485 3.7479 4.2476 2.7485-1.9989 1.2493 3.9978 4.4975-5.4969 5.4969 0.74958 7.4958 10.994-22.487 7.246z" fill="#f2f2f2"/>
    <g id="g5084">
     <path id="path5070" d="m55.565 39.484 0.97173 12.986 2.2085-9.364c0.47887 0.33164-2.1201-2.4146-3.1802-3.6219z" fill="#c9c9c9"/>
     <path id="path5072" d="m61.749 41.693s-0.4417 10.866-0.35336 10.071c0.08834-0.79505 1.6784-6.2721 1.6784-6.2721z" fill="#c9c9c9"/>
     <path id="path5074" d="m68.286 39.926 1.7668 6.6254 3.1802-5.9187z" fill="#dbdbdb"/>
    </g>
   </g>
  </g>
  <path id="path4513" d="m2.5312 4.8125c-0.011341 0.066819-0.03125 0.15058-0.03125 0.21875 0 1.3976 2.4452 2.5313 5.4375 2.5312 2.9923 0 5.4062-1.1337 5.4062-2.5312 0-0.068173-0.01991-0.15193-0.03125-0.21875-0.27776 1.0647-2.5697 1.9062-5.375 1.9062-2.8053 2e-7 -5.1285-0.84159-5.4062-1.9062z" fill-rule="evenodd" opacity=".3"/>
  <ellipse id="path7095" transform="matrix(.13392 0 0 .15589 -.50395 .26076)" cx="62.965" cy="30.554" rx="40.477" ry="16.241" fill="none" stroke="url(#linearGradient4347)" stroke-linecap="round" stroke-linejoin="round" stroke-width="4.1526"/>
  <g id="g3350" transform="matrix(.10232 0 0 .10232 1.4518 1.9977)">
   <path id="path3292" d="m66.74 106.88 6.3317-11.357 0.0301 4.1536 13.326-0.03009c2.3811-0.25234 4.4687-1.2201 5.9805-3.0399-4.825 9.8683-6.2147 16.851-16.226 16.855h-3.0806l-0.0301 4.6151z" fill="url(#linearGradient4457)"/>
   <path id="path3290" d="m81.24 97.921-5.8802-10.835 11.881-7.1935 5.7497 11.518c0.17409 2.7563-4.2769 6.592-7.0396 6.5622z" fill="url(#linearGradient4459)"/>
   <path id="path3288" d="m45.109 73.92 6.07-9.0957c5.8874-2.1923 9.2977 2.5406 11.45 5.524l-5.7196 10.976z" fill="url(#linearGradient4461)"/>
   <path id="path3286" d="m69.091 78.447c-1.2209-2.8777-2.8521-6.1695-4.8919-9.0316-1.8262-2.5624-4.0328-4.798-5.7044-5.7969l15.353-0.03009c2.7572 0.24748 4.0968 1.8546 5.5591 4.0532l2.2076 3.8827 3.4117-2.1771-6.422 11.437-13.848 0.03009z" fill="url(#linearGradient4463)"/>
   <path id="path3284" d="m47.847 82.694 7.3428 10.731-3.7316-1.8255-5.9163 11.938c-0.83607 2.2434-0.90083 4.5431 0.05403 6.7077-6.682-8.719-12.313-13.077-7.8518-22.037l1.3739-2.7568-4.1179-2.0852z" fill="url(#linearGradient4465)"/>
   <path id="path4068" d="m49.529 99.667 13.538-0.42958-0.07542 13.84-12.875 9e-3c-2.5451-1.0735-3.9936-6.7673-2.7347-9.2263z" fill="url(#linearGradient4467)"/>
  </g>
  <path id="rect4089" d="m2.5 1c-0.831 0-1.5 0.669-1.5 1.5v1c0-0.831 0.669-1.5 1.5-1.5h11c0.831 0 1.5 0.669 1.5 1.5v-1c0-0.831-0.669-1.5-1.5-1.5z" fill="#fff" opacity=".5"/>
 </g>
</svg>
