<?xml version="1.0" encoding="UTF-8"?>
<svg id="svg30" width="16" height="16" version="1.1" xmlns="http://www.w3.org/2000/svg" xmlns:cc="http://creativecommons.org/ns#" xmlns:dc="http://purl.org/dc/elements/1.1/" xmlns:rdf="http://www.w3.org/1999/02/22-rdf-syntax-ns#">
 <metadata id="metadata34">
  <rdf:RDF>
   <cc:Work rdf:about="">
    <dc:format>image/svg+xml</dc:format>
    <dc:type rdf:resource="http://purl.org/dc/dcmitype/StillImage"/>
   </cc:Work>
  </rdf:RDF>
 </metadata>
 <defs id="defs7">
  <radialGradient id="gr0" cx="9" cy="10" r="11" gradientTransform="matrix(1 0 0 .63636 0 3.6364)" gradientUnits="userSpaceOnUse">
   <stop id="stop2" stop-opacity=".23529" offset="0"/>
   <stop id="stop4" stop-opacity=".54902" offset="1"/>
  </radialGradient>
 </defs>
 <path id="path9" d="m4.4668 1a1 1.0001 0 0 0-0.58594 0.21484l-3.5 2.7559a1.0001 1.0001 0 0 0 0.058594 1.6133l2.4414 1.6504-2.5508 2.2949a1.0001 1.0001 0 0 0 0.10938 1.5723l7 4.7265a1.0001 1.0001 0 0 0 1.1211 0l7-4.7265a1.0001 1.0001 0 0 0 0.1094-1.5723l-2.5508-2.2949 2.4414-1.6504a1.0001 1.0001 0 0 0 0.0586-1.6133l-3.5-2.7559a1.0001 1.0001 0 0 0-1.2382 0l-2.8809 2.2676-2.8809-2.2676a1.0001 1.0001 0 0 0-0.65234-0.21484zm0.0332 1 3.5 2.7559 3.5-2.7559 3.5 2.7559-3.5 2.3652 3.5 3.1523-7 4.7266-7-4.7266 3.5-3.1523-3.5-2.3652 3.5-2.7559zm3.5 4c-1.6569 0-3 1.3431-3 3h-1.1992l2 2.5 2-2.5h-1.3008c0-0.8284 0.6716-1.5 1.5-1.5s1.5 0.6716 1.5 1.5-0.6716 1.5-1.5 1.5v1.5c1.6569 0 3-1.343 3-3 0-1.6569-1.3431-3-3-3zm-2.25 3.6602a1.0001 1.0001 0 0 0 0.13867 0.1289l-0.08789 0.10938-0.12695-0.16016a1.0001 1.0001 0 0 0 0.07617-0.07812z" fill="#fff" opacity=".05"/>
 <path id="base" d="m4.5 2l-3.5 2.7559 3.5 2.3652-3.5 3.1519 7 4.727 7-4.727-3.5-3.1519 3.5-2.3652-3.5-2.7559-3.5 2.7559-3.5-2.7559zm3.5 4c1.6569 0 3 1.3431 3 3 0 1.657-1.3431 3-3 3v-1.5c.8284 0 1.5-.6716 1.5-1.5s-.6716-1.5-1.5-1.5-1.5.6716-1.5 1.5h1.3008l-2 2.5-2-2.5h1.1992c0-1.6569 1.3431-3 3-3z" fill="url(#gr0)"/>
 <path id="path15" d="m4.5 2-3.5 2.7559 3.5 2.3652-3.5 3.1523 7 4.7266 7-4.7266-3.5-3.1523 3.5-2.3652-3.5-2.7559-3.5 2.7559-3.5-2.7559zm0 0.63477 3.1914 2.5137a0.50005 0.50005 0 0 0 0.61718 0l3.1914-2.5117 2.6543 2.0879-2.9336 1.9824a0.50005 0.50005 0 0 0-0.1934 0.57031c0.0294 0.05121 0.0573 0.10348 0.084 0.15625a0.50005 0.50005 0 0 0 0.0547 0.0586l3.0254 2.7246-6.1914 4.1797-6.1914-4.1797 1.5137-1.3633a0.50005 0.50005 0 0 0 0.08789 0.45898l2 2.5a0.50005 0.50005 0 0 0 0.78125 0l2-2.5a0.50005 0.50005 0 0 0-0.39063-0.8125h-0.5957c0.17551-0.28206 0.43356-0.5 0.79492-0.5 0.55816 0 1 0.44184 1 1s-0.44184 1-1 1a0.50005 0.50005 0 0 0-0.5 0.5v1.5a0.50005 0.50005 0 0 0 0.5 0.5c1.9271 0 3.5-1.5728 3.5-3.5 0-0.5656-0.1485-1.0926-0.3887-1.5664a0.50005 0.50005 0 0 1-0.084-0.15625c-0.604-1.0554-1.7288-1.7773-3.0273-1.7773-1.7499 0-3.1451 1.3186-3.3984 3h-0.80078a0.50005 0.50005 0 0 0-0.09766 0.01172l1.1309-1.0195a0.50005 0.50005 0 0 0-0.05468-0.78516l-2.9336-1.9824 2.6543-2.0898zm3.5 3.3652c1.6569 0 3 1.3431 3 3 0 1.657-1.3431 3-3 3v-1.5c0.8284 0 1.5-0.6716 1.5-1.5s-0.6716-1.5-1.5-1.5-1.5 0.6716-1.5 1.5h1.3008l-2 2.5-2-2.5h1.1992c0-1.6569 1.3431-3 3-3z" opacity=".3"/>
 <path id="path20" d="m1.6836 5.2168-0.68359 0.53906 2.8652 1.9375 0.63477-0.57227-2.8164-1.9043zm12.633 0-2.8164 1.9043 0.6348 0.57227 2.8652-1.9375-0.6836-0.53906zm-6.3164 0.7832c-1.6569 0-3 1.3431-3 3h-1.1992l0.80078 1h0.39844c0-1.6569 1.3431-3 3-3 1.4858 0 2.7104 1.0821 2.9492 2.5 0.0275-0.16325 0.0508-0.32893 0.0508-0.5 0-1.6569-1.3431-3-3-3zm-1.1113 3c-0.23938 0.26579-0.38867 0.61415-0.38867 1h0.5l0.80078-1h-0.91211zm2.5195 0.5c-0.2066 0.5813-0.75601 1-1.4082 1v1c0.8284 0 1.5-0.6716 1.5-1.5 0-0.17621-0.03598-0.34294-0.0918-0.5zm-7.7734 1.2012-0.63477 0.5722 7 4.7266 7-4.7266-0.6348-0.5722-6.3652 4.2988-6.3652-4.2988z" fill="#fff" opacity=".2"/>
 <path id="path25" d="m4.5 2-3.5 2.7559 0.68359 0.46094 2.8164-2.2168 3.5 2.7559 3.5-2.7559 2.8164 2.2168 0.6836-0.46094-3.5-2.7559-3.5 2.7559-3.5-2.7559zm3.5 5.5c-0.8284 0-1.5 0.6716-1.5 1.5h0.38867c0.27456-0.30486 0.66878-0.5 1.1113-0.5 0.65219 0 1.2016 0.41866 1.4082 1 0.05582-0.15706 0.0918-0.32379 0.0918-0.5 0-0.8284-0.6716-1.5-1.5-1.5zm-4.1348 0.19336-2.8652 2.58 0.63477 0.4278 2.8652-2.5801-0.63477-0.42773zm8.2696 0-0.6348 0.42773 2.8652 2.5801 0.6348-0.4278-2.8652-2.58zm-1.1856 1.8066c-0.2388 1.418-1.4634 2.5-2.9492 2.5v1c1.6569 0 3-1.343 3-3 0-0.17106-0.0233-0.33676-0.0508-0.5zm-7.1484 0.5 2 2.5 2-2.5h-0.80078l-1.1992 1.5-1.1992-1.5h-0.80078z" opacity=".3"/>
</svg>
