<?xml version="1.0" encoding="UTF-8"?>
<svg id="svg32" width="16" height="16" version="1.1" xmlns="http://www.w3.org/2000/svg" xmlns:cc="http://creativecommons.org/ns#" xmlns:dc="http://purl.org/dc/elements/1.1/" xmlns:rdf="http://www.w3.org/1999/02/22-rdf-syntax-ns#">
 <metadata id="metadata36">
  <rdf:RDF>
   <cc:Work rdf:about="">
    <dc:format>image/svg+xml</dc:format>
    <dc:type rdf:resource="http://purl.org/dc/dcmitype/StillImage"/>
   </cc:Work>
  </rdf:RDF>
 </metadata>
 <defs id="defs7">
  <radialGradient id="gr0" cx="9" cy="10" r="11" gradientTransform="matrix(1 0 0 .18181 0 8.1819)" gradientUnits="userSpaceOnUse">
   <stop id="stop2" stop-opacity=".23529" offset="0"/>
   <stop id="stop4" stop-opacity=".54902" offset="1"/>
  </radialGradient>
 </defs>
 <path id="path9" d="m6 6c-1.0907 0-2 0.9093-2 2v0.41992c-0.30892-0.19664-0.61278-0.41992-1-0.41992-1.0907 0-2 0.9093-2 2v2c0 1.0907 0.9093 2 2 2 0.63005 0 1.1313-0.344 1.5-0.8105 0.36868 0.4665 0.86995 0.8105 1.5 0.8105 1.0907 0 2-0.9093 2-2v-4c0-1.0907-0.9093-2-2-2zm0 1c0.554 0 1 0.446 1 1v4c0 0.554-0.446 1-1 1s-1-0.446-1-1v-4c0-0.554 0.446-1 1-1zm-3 2c0.554 0 1 0.446 1 1v2c0 0.554-0.446 1-1 1s-1-0.446-1-1v-2c0-0.554 0.446-1 1-1z" fill="#fff" opacity=".05"/>
 <path id="base" d="m6 7c-0.554 0-1 0.446-1 1v4c0 0.554 0.446 1 1 1s1-0.446 1-1v-4c0-0.554-0.446-1-1-1zm-3 2c-0.554 0-1 0.446-1 1v2c0 0.554 0.446 1 1 1s1-0.446 1-1v-2c0-0.554-0.446-1-1-1z" fill="url(#gr0)"/>
 <path id="path15" d="m0 1v1h1l1 1v3h1v-3l1-1h1v-1zm12 1c-0.554 0-1 0.446-1 1v9c0 0.554 0.446 1 1 1s1-0.446 1-1v-9c0-0.554-0.446-1-1-1zm-3 3c-0.554 0-1 0.446-1 1v6c0 0.554 0.446 1 1 1s1-0.446 1-1v-6c0-0.554-0.446-1-1-1z" opacity=".2"/>
 <path id="path17" d="m6 7c-0.554 0-1 0.446-1 1v4c0 0.554 0.446 1 1 1s1-0.446 1-1v-4c0-0.554-0.446-1-1-1zm0 0.5c0.28565 0 0.5 0.21435 0.5 0.5v4c0 0.2856-0.21435 0.5-0.5 0.5s-0.5-0.2144-0.5-0.5v-4c0-0.28565 0.21435-0.5 0.5-0.5zm-3 1.5c-0.554 0-1 0.446-1 1v2c0 0.554 0.446 1 1 1s1-0.446 1-1v-2c0-0.554-0.446-1-1-1zm0 0.5c0.28565 0 0.5 0.21435 0.5 0.5v2c0 0.2856-0.21435 0.5-0.5 0.5s-0.5-0.2144-0.5-0.5v-2c0-0.28565 0.21435-0.5 0.5-0.5z" opacity=".3"/>
 <path id="path22" d="m2 12v1c0 0.554 0.446 1 1 1s1-0.446 1-1v-1c0 0.554-0.446 1-1 1s-1-0.446-1-1zm3 0v1c0 0.554 0.446 1 1 1s1-0.446 1-1v-1c0 0.554-0.446 1-1 1s-1-0.446-1-1z" fill="#fff" opacity=".2"/>
 <path id="path27" d="m6 7c-0.554 0-1 0.446-1 1v1c0-0.554 0.446-1 1-1s1 0.446 1 1v-1c0-0.554-0.446-1-1-1zm-3 2c-0.554 0-1 0.446-1 1v1c0-0.554 0.446-1 1-1s1 0.446 1 1v-1c0-0.554-0.446-1-1-1z" opacity=".3"/>
</svg>
