<?xml version="1.0" encoding="UTF-8"?>
<svg id="svg32" width="16" height="16" version="1.1" xmlns="http://www.w3.org/2000/svg" xmlns:cc="http://creativecommons.org/ns#" xmlns:dc="http://purl.org/dc/elements/1.1/" xmlns:rdf="http://www.w3.org/1999/02/22-rdf-syntax-ns#">
 <metadata id="metadata36">
  <rdf:RDF>
   <cc:Work rdf:about="">
    <dc:format>image/svg+xml</dc:format>
    <dc:type rdf:resource="http://purl.org/dc/dcmitype/StillImage"/>
   </cc:Work>
  </rdf:RDF>
 </metadata>
 <defs id="defs7">
  <radialGradient id="gr1" cx="9" cy="10" r="11" gradientTransform="matrix(1 0 0 .72727 0 2.7273)" gradientUnits="userSpaceOnUse">
   <stop id="stop2" stop-opacity=".23529" offset="0"/>
   <stop id="stop4" stop-opacity=".54902" offset="1"/>
  </radialGradient>
 </defs>
 <path id="path9" d="m9.9688 0c-1.6383 0-2.9688 1.3668-2.9688 3 0 0.97407 0.00411 0.78691-0.62305 1.4922-0.02872 0.0323-0.07161 0.06365-0.21093 0.18164a1 1.0001 0 0 0-0.13282 1.3887c0.1443 0.17984 0.30103 0.34959 0.46875 0.50781a1.0001 1.0001 0 0 0 0.01367 0.01367c0.2067 0.18739 0.42904 0.35749 0.66407 0.50782a1.0001 1.0001 0 0 0 1.2852-0.17578c0.00723-0.00809 0.02722-0.02759 0.05664-0.05469a1.0001 1.0001 0 0 0 0-0.00195c0.4723-0.43539 0.77559-0.66048 0.95313-0.75391s0.23305-0.10547 0.49414-0.10547c1.6386 0 2.9688-1.3668 2.9688-3a1.0001 1.0001 0 0 0 0-0.00195c-0.0014-0.79744-0.2901-1.5703-0.8516-2.1387-0.5562-0.56307-1.3268-0.85937-2.1172-0.85938zm0 1c0.54825 0 1.0472 0.1991 1.4062 0.5625s0.5625 0.883 0.5625 1.4375c0 1.1091-0.8714 2-1.9688 2-0.7188 0-1.1346 0.212-2.125 1.125-0.043 0.0396-0.086 0.0814-0.125 0.125a4 3.9984 1.5676 0 1-0.53125-0.40625 4 3.9984 1.5676 0 1-0.375-0.40625c0.1025-0.0868 0.2067-0.16225 0.3125-0.28125 0.6455-0.7259 0.875-1.0446 0.875-2.1562 0-1.1091 0.87195-2 1.9688-2z" fill="#fff" opacity=".05"/>
 <path id="base" d="m8.5625 1.5938c-0.26745 0.27043-0.4528 0.60875-0.53125 1 0.07795-0.39151 0.26494-0.72897 0.53125-1zm-0.5625 1.4062c0 0.5559-0.0542 0.9104-0.1875 1.2188 0.1381-0.3094 0.1875-0.6629 0.1875-1.2188zm-1.1875 2.4375c-0.523 0.4428-1.0369 0.5181-1.7813 0.5313-1.1349 0-2.0312 1.067-2.0312 2.0624 0 0.99547 0.8719 2 1.9688 2 0.85072 0 1.5225 0.34899 2.0625 0.90625 0.53997 0.55726 1.0312 0.99157 1.0312 2.0625 0 1.1091 0.8719 2 1.9688 2 0.54841 0 1.0468-0.19908 1.4062-0.5625 0.359-0.363 0.562-0.882 0.562-1.437 0-1.109-0.872-2-1.969-2-0.8274 0-1.4383-0.232-2.281-1.0938-0.8062-0.8239-0.8912-2.6958-0.0312-3.6562a4 3.9984 0.027361 0 1-0.5313-0.4062 4 3.9984 0.027361 0 1-0.375-0.4063z" opacity=".2"/>
 <path id="path15" d="m9.9687 1c-1.0968 0-1.9687 0.8909-1.9687 2 0 1.1117-0.2295 1.4303-0.875 2.1562-0.1058 0.119-0.21 0.1945-0.3125 0.2813a4 3.9984 1.5676 0 0 0.375 0.4063 4 3.9984 1.5676 0 0 0.5313 0.4062c0.039-0.0436 0.082-0.0854 0.125-0.125 0.9904-0.913 1.4061-1.125 2.1249-1.125 1.0973 0 1.9693-0.8909 1.9693-2-1e-3 -0.5545-0.204-1.0741-0.563-1.4375s-0.858-0.5625-1.4063-0.5625z" fill="url(#gr1)"/>
 <path id="path17" d="m9.9688 1c-1.0968 0-1.9688 0.8909-1.9688 2 0 1.1117-0.2295 1.4304-0.875 2.1562-0.1058 0.119-0.21 0.19445-0.3125 0.28125a4 3.9984 1.5676 0 0 0.375 0.40625 4 3.9984 1.5676 0 0 0.53125 0.40625c0.039-0.0436 0.082-0.0854 0.125-0.125 0.9904-0.913 1.4062-1.125 2.125-1.125 1.0974 0 1.9688-0.8909 1.9688-2 0-0.5545-0.2035-1.0741-0.5625-1.4375s-0.858-0.5625-1.4062-0.5625zm0 0.5c0.42725 0 0.79045 0.1505 1.0508 0.41406 0.2578 0.26092 0.4172 0.65291 0.418 1.0859 0 0.84703-0.6421 1.5-1.4688 1.5-0.40856 0-0.80577 0.07337-1.1934 0.27734-0.3284 0.17283-0.67787 0.47427-1.0762 0.83008-0.05709-0.04551-0.11971-0.08382-0.17383-0.13281l-0.00195-0.00195c-0.00302-0.00287-0.00481-0.00689-0.00782-0.00977 0.63979-0.72382 0.98438-1.2963 0.98438-2.4629 0-0.84706 0.64271-1.5 1.4688-1.5z" opacity=".3"/>
 <path id="path22" d="m11.871 3.4922c-0.2145 0.86758-0.9743 1.5078-1.9024 1.5078-0.7188 0-1.1346 0.212-2.125 1.125-0.043 0.0396-0.086 0.0814-0.125 0.125a4 3.9984 1.5676 0 1-0.41211-0.30859c-0.06155 0.07204-0.11014 0.13443-0.18164 0.21484-0.1058 0.119-0.21 0.19445-0.3125 0.28125a4 3.9984 1.5676 0 0 0.375 0.40625 4 3.9984 1.5676 0 0 0.53125 0.40625c0.039-0.0436 0.082-0.0854 0.125-0.125 0.9904-0.913 1.4062-1.125 2.125-1.125 1.0974 0 1.9688-0.8909 1.9688-2 0-0.17478-0.0274-0.34377-0.0664-0.50781z" fill="#fff" opacity=".2"/>
 <path id="path27" d="m9.9688 1c-1.0968 0-1.9688 0.8909-1.9688 2 0 1.1117-0.2295 1.4304-0.875 2.1562-0.1058 0.119-0.21 0.19445-0.3125 0.28125a4 3.9984 1.5676 0 0 0.375 0.40625 4 3.9984 1.5676 0 0 0.11914 0.09766c0.49408-0.57835 0.69336-0.95286 0.69336-1.9414 0-1.1091 0.87195-2 1.9688-2 0.54825 0 1.0472 0.1991 1.4062 0.5625 0.2458 0.24886 0.4114 0.57328 0.4961 0.92969 0.0391-0.15821 0.0664-0.32113 0.0664-0.49219 0-0.5545-0.2035-1.0741-0.5625-1.4375s-0.858-0.5625-1.4062-0.5625z" opacity=".3"/>
</svg>
