<?xml version="1.0" encoding="UTF-8"?>
<svg id="svg30" width="16" height="16" version="1.1" xmlns="http://www.w3.org/2000/svg" xmlns:cc="http://creativecommons.org/ns#" xmlns:dc="http://purl.org/dc/elements/1.1/" xmlns:rdf="http://www.w3.org/1999/02/22-rdf-syntax-ns#">
 <metadata id="metadata34">
  <rdf:RDF>
   <cc:Work rdf:about="">
    <dc:format>image/svg+xml</dc:format>
    <dc:type rdf:resource="http://purl.org/dc/dcmitype/StillImage"/>
   </cc:Work>
  </rdf:RDF>
 </metadata>
 <defs id="defs7">
  <radialGradient id="gr0" cx="9" cy="10" r="11" gradientTransform="matrix(1 0 0 .72727 0 2.7273)" gradientUnits="userSpaceOnUse">
   <stop id="stop2" stop-opacity=".23529" offset="0"/>
   <stop id="stop4" stop-opacity=".54902" offset="1"/>
  </radialGradient>
 </defs>
 <path id="path9" d="m8.2871 0c-0.43694 0.0066538-0.8842 0.15381-1.2422 0.52734l-5.248 5.2246c-0.47537 0.46036-0.62734 1.0972-0.4668 1.7031 0.11735 0.44293 0.53575 0.7117 0.93945 0.93945l-0.99414 0.99024c-0.67725 0.67443-0.67957 1.7878 0 2.4629l3.6719 3.6464c0.67427 0.6722 1.782 0.6701 2.4551 0a1 1.0001 0 0 0 0.00196 0l7.2734-7.2519c0.2967-0.28094 0.5487-0.70293 0.5567-1.2227a1.0001 1.0001 0 0 0 0-0.01953l-0.0235-5.25v-0.00195c-0.0028-0.52952-0.2573-1.0377-0.6855-1.3652-0.2487-0.19452-0.621-0.37882-1.0352-0.38281a1.0001 1.0001 0 0 0-0.0097 0h-5.1778a1.0001 1.0001 0 0 0-0.01562 0zm0.01562 1h5.1778c0.166 0.0016 0.3094 0.06622 0.4394 0.16992 0.184 0.1384 0.291 0.35459 0.291 0.58399l0.0235 5.252c-3e-3 0.1963-0.1012 0.37437-0.2442 0.50976l-7.2929 7.2696c-0.2873 0.286-0.75703 0.287-1.0449 0l-3.6719-3.6465c-0.2879-0.286-0.2872-0.759 0-1.0449l5.0586-5.0332c0.1359-0.1418 0.33611-0.21575 0.53321-0.21875h2.043c0.1995-0.0031 0.39417 0.07805 0.53517 0.21875s0.2187 0.33645 0.2187 0.53515v2.0664c-3e-3 0.1963-0.1001 0.37436-0.2421 0.50977l-2.9434 2.9414c-0.1849 0.185-0.44817 0.2623-0.70507 0.1953-0.257-0.068-0.46736-0.2538-0.53516-0.5098s0.00511-0.5211 0.19531-0.705l2.7227-2.7247v-1.0449h-0.9961l-4.3047 4.2793 2.627 2.625 6.5391-6.5156v-4.2305h-4.1328l-5.0566 5.0332c-0.1849 0.1895-0.47162 0.26282-0.72852 0.19532-0.257-0.0676-0.44391-0.25582-0.51171-0.51172-0.06781-0.2559 0.00511-0.54432 0.19531-0.72852l5.2754-5.252c0.1359-0.1418 0.33815-0.21575 0.53515-0.21875zm0.70508 2.4824h2.7188v2.8164l-0.3575 0.35547v-1.0449c0.0073-0.48028-0.1803-0.92522-0.5136-1.2578-0.33-0.32927-0.7751-0.51723-1.2559-0.50976h-0.95313l0.36133-0.35938zm-3.8594 6.9512c-0.01307 0.0963-0.07734 0.1723-0.07422 0.2695l-0.09766-0.0976 0.17188-0.1719z" fill="#fff" opacity=".05"/>
 <path id="base" d="m8.3023 1c-0.197 3e-3 -0.3989 0.077-0.5348 0.2188l-5.2759 5.2515c-0.1902 0.1842-0.2623 0.4735-0.1945 0.7294s0.2536 0.443 0.5106 0.5106c0.2569 0.0675 0.5445-0.0051 0.7294-0.1945l5.057-5.0327h4.1329v4.2304l-6.5399 6.5155-2.6257-2.626 4.3033-4.2786h0.9968v1.0455l-2.723 2.7231c-0.1902 0.184-0.2623 0.449-0.1945 0.705s0.2779 0.443 0.5349 0.511c0.2569 0.067 0.5201-6e-3 0.705-0.195l2.9421-2.9418c0.142-0.1354 0.24-0.3143 0.243-0.5106v-2.0665c3e-3 -0.1987-0.078-0.3942-0.219-0.5349s-0.3353-0.2219-0.5348-0.2188h-2.0422c-0.1971 3e-3 -0.399 0.077-0.5349 0.2188l-5.057 5.0328c-0.2872 0.286-0.2879 0.759 0 1.045l3.6712 3.647c0.2879 0.287 0.7581 0.286 1.0454 0l7.2933-7.2692c0.143-0.1354 0.241-0.3143 0.244-0.5106l-0.025-5.2515c-1e-3 -0.2294-0.107-0.4451-0.291-0.5835-0.13-0.1037-0.272-0.1686-0.438-0.1702h-5.1787z" fill="url(#gr0)"/>
 <path id="path15" d="m8.3027 1c-0.197 3e-3 -0.39925 0.07695-0.53515 0.21875l-5.2754 5.252c-0.1902 0.1842-0.26312 0.47262-0.19531 0.72852 0.0678 0.2559 0.25471 0.44412 0.51171 0.51172 0.2569 0.0675 0.54362-0.00582 0.72852-0.19532l5.0566-5.0332h4.1328v4.2305l-6.5391 6.5156-2.627-2.625 4.3047-4.2793h0.9961v1.0449l-2.7227 2.7247c-0.1902 0.1839-0.26311 0.449-0.19531 0.705s0.27816 0.4418 0.53516 0.5098c0.2569 0.067 0.52017-0.0103 0.70507-0.1953l2.9434-2.9414c0.142-0.13541 0.2391-0.31347 0.2421-0.50977v-2.0664c0-0.1987-0.0777-0.39445-0.2187-0.53515s-0.33567-0.22185-0.53517-0.21875h-2.043c-0.1971 3e-3 -0.39731 0.07695-0.53321 0.21875l-5.0586 5.0332c-0.2872 0.2859-0.2879 0.7589 0 1.0449l3.6719 3.6465c0.2879 0.287 0.75763 0.286 1.0449 0l7.2929-7.2696c0.143-0.13539 0.2412-0.31346 0.2442-0.50976l-0.0235-5.252c0-0.2294-0.107-0.44559-0.291-0.58399-0.13-0.1037-0.2734-0.16832-0.4394-0.16992h-5.1778zm0.00782 0.5h5.166c0.0384 3.7e-4 0.0601 0.00411 0.1308 0.06055a0.50005 0.50005 0 0 0 0.0117 0.00976c0.0583 0.04384 0.0915 0.1088 0.0918 0.18555l0.0235 5.2422c-6e-4 0.03458-0.0218 0.09166-0.0879 0.15429a0.50005 0.50005 0 0 0-0.0078 0.00977l-7.293 7.2676c-0.0944 0.094-0.24513 0.0964-0.33984 0.0019a0.50005 0.50005 0 0 1-0.00195-0.0019l-3.6699-3.6465c-0.09206-0.0915-0.09217-0.2441 0-0.3359l5.0566-5.0332a0.50005 0.50005 0 0 0 0.00782-0.00781c0.02485-0.02593 0.10445-0.06328 0.18164-0.06445h2.0352a0.50005 0.50005 0 0 0 0.00782 0c0.05883-9.2e-4 0.12731 0.02585 0.17383 0.07226 0.04484 0.04475 0.07314 0.11592 0.07226 0.17383a0.50005 0.50005 0 0 0 0 0.00781v2.0586c-5.3e-4 0.03458-0.02193 0.09335-0.08789 0.15625a0.50005 0.50005 0 0 0-0.00781 0.00781l-2.9434 2.9414a0.50005 0.50005 0 0 0-0.00391 0.0039c-0.06404 0.0654-0.13031 0.0841-0.2207 0.0605-0.10081-0.0277-0.16016-0.0879-0.17774-0.1543-0.02347-0.0886-0.00456-0.1557 0.0586-0.2168a0.50005 0.50005 0 0 0 0.00586-0.0058l2.7226-2.7246a0.50005 0.50005 0 0 0 0.14649-0.35352v-1.0449a0.50005 0.50005 0 0 0-0.5-0.5h-0.9961a0.50005 0.50005 0 0 0-0.35351 0.14648l-4.3027 4.2773a0.50005 0.50005 0 0 0-0.00195 0.709l2.627 2.625a0.50005 0.50005 0 0 0 0.70508 2e-3l6.541-6.5156a0.50005 0.50005 0 0 0 0.1465-0.35547v-4.2305a0.50005 0.50005 0 0 0-0.5-0.5h-4.1328a0.50005 0.50005 0 0 0-0.35156 0.14649l-5.0586 5.0332a0.50005 0.50005 0 0 0-0.0039 0.00391c-0.04848 0.04965-0.16117 0.08234-0.24414 0.06054-0.09484-0.02494-0.12897-0.05867-0.1543-0.15429-0.02143-0.08089 0.01097-0.19607 0.05859-0.24219a0.50005 0.50005 0 0 0 0.00391-0.00586l5.2773-5.252a0.50005 0.50005 0 0 0 0.00782-0.00782c0.02485-0.02593 0.1046-0.06328 0.18164-0.06445z" opacity=".3"/>
 <path id="path20" d="m8.5938 2.4824-5.0566 5.0332c-0.1849 0.1895-0.47162 0.26282-0.72852 0.19532-0.13771-0.03623-0.25217-0.10999-0.34179-0.20703-0.16827 0.18462-0.23414 0.45294-0.16992 0.69531 0.0678 0.2559 0.25471 0.44412 0.51171 0.51172 0.2569 0.0675 0.54362-0.00582 0.72852-0.19532l5.0566-5.0332h4.1328v-1h-4.1328zm-0.72852 3.8418-4.3047 4.2793 0.50195 0.502 3.8027-3.7813h0.9961v-1h-0.9961zm6.3653 0.69922c-0.0087 0.18902-0.1018 0.36105-0.2403 0.49218l-7.2929 7.2696c-0.2873 0.286-0.75703 0.287-1.0449 0l-3.6719-3.6465c-0.00652-0.0065-0.0094-0.0148-0.01563-0.0215-0.26667 0.2877-0.26529 0.7424 0.01563 1.0215l3.6719 3.6465c0.2879 0.287 0.75763 0.286 1.0449 0l7.2929-7.2696c0.143-0.1354 0.2412-0.31346 0.2442-0.50976l-0.0039-0.98242zm-3.8614 0.63867c-3e-3 0.1963-0.1001 0.37436-0.2421 0.50977l-2.9434 2.9414c-0.1849 0.185-0.44817 0.2623-0.70507 0.1953-0.13552-0.0359-0.25612-0.1065-0.35157-0.2012-0.18038 0.1834-0.24981 0.4414-0.18359 0.6914 0.0678 0.256 0.27816 0.4418 0.53516 0.5098 0.2569 0.067 0.52017-0.0103 0.70507-0.1953l2.9434-2.9414c0.142-0.13541 0.2391-0.31347 0.2421-0.50977v-1z" fill="#fff" opacity=".2"/>
 <path id="path25" d="m8.3027 1c-0.197 3e-3 -0.39925 0.07695-0.53515 0.21875l-5.2754 5.252c-0.1902 0.1842-0.26312 0.47262-0.19531 0.72852 0.03146 0.11877 0.09228 0.22062 0.16992 0.30469 0.00939-0.01031 0.01533-0.02347 0.02539-0.03321l5.2754-5.252c0.1359-0.1418 0.33815-0.21575 0.53515-0.21875h5.1778c0.166 0.0016 0.3094 0.06622 0.4394 0.16992 0.184 0.1384 0.291 0.35459 0.291 0.58399l0.0196 4.2695c3e-4 -0.00615 0.0038-0.01139 0.0039-0.01758l-0.0235-5.252c0-0.2294-0.107-0.44559-0.291-0.58399-0.13-0.1037-0.2734-0.16832-0.4394-0.16992h-5.1778zm-0.73046 3.8418c-0.1971 3e-3 -0.39731 0.07695-0.53321 0.21875l-5.0586 5.0332c-0.2807 0.2795-0.28424 0.7358-0.01563 1.0234 0.00663-0.0072 0.00866-0.0165 0.01563-0.0234l5.0586-5.0332c0.1359-0.1418 0.33611-0.21575 0.53321-0.21875h2.043c0.1995-0.0031 0.39417 0.07805 0.53517 0.21875s0.2187 0.33645 0.2187 0.53515v-1c0-0.1987-0.0777-0.39445-0.2187-0.53515s-0.33567-0.22185-0.53517-0.21875h-2.043zm5.1543 1.8711-6.5391 6.5156-2.125-2.123-0.50195 0.498 2.627 2.625 6.5391-6.5156v-1zm-3.8653 0.65625-2.7227 2.7247c-0.1902 0.1839-0.26311 0.449-0.19531 0.705 0.03205 0.121 0.09803 0.2237 0.18359 0.3086 0.00431-0.0044 0.00729-0.0094 0.01172-0.0136l2.7227-2.7247v-1z" opacity=".3"/>
</svg>
