<?xml version="1.0" encoding="UTF-8"?>
<svg id="svg32" width="16" height="16" version="1.1" xmlns="http://www.w3.org/2000/svg" xmlns:cc="http://creativecommons.org/ns#" xmlns:dc="http://purl.org/dc/elements/1.1/" xmlns:rdf="http://www.w3.org/1999/02/22-rdf-syntax-ns#">
 <metadata id="metadata36">
  <rdf:RDF>
   <cc:Work rdf:about="">
    <dc:format>image/svg+xml</dc:format>
    <dc:type rdf:resource="http://purl.org/dc/dcmitype/StillImage"/>
   </cc:Work>
  </rdf:RDF>
 </metadata>
 <defs id="defs7">
  <radialGradient id="gr0" cx="9" cy="10" r="11" gradientTransform="matrix(1 0 0 .72727 0 2.7273)" gradientUnits="userSpaceOnUse">
   <stop id="stop2" stop-opacity=".23529" offset="0"/>
   <stop id="stop4" stop-opacity=".54902" offset="1"/>
  </radialGradient>
 </defs>
 <path id="path9" d="m6.0176 0a1 1.0001 0 0 0-0.93164 0.63672s-0.00801 0.046251-0.16992 0.26953c-0.16192 0.22328-0.44959 0.5535-0.93555 0.91797-1.2786 0.95894-2.7409 3.0699-1.9609 5.9961a1.0001 1.0001 0 0 0 1.959-0.38672c-0.05088-0.39436 0.02892-1.0539 0.32031-1.5195 0.16078-0.25694 0.39431-0.46636 0.71875-0.62695v6.2129c0 1.9212 1.5788 3.5 3.5 3.5 1.9211 0 3.5-1.5788 3.5-3.5 0-1.9212-1.5789-3.5-3.5-3.5-0.18721 0-0.32038 0.13727-0.5 0.16602v-7.166a1.0001 1.0001 0 0 0-1-1h-1zm0 1h1v8.5c0.41644-0.31019 0.94081-0.5 1.5-0.5 1.3807 0 2.5 1.1193 2.5 2.5s-1.1193 2.5-2.5 2.5-2.5-1.1193-2.5-2.5v-7.4688c-2.6461 0.12399-3.1894 2.3051-3.0312 3.5312-0.67571-2.5351 0.54255-4.1491 1.5938-4.9375 1.1362-0.85216 1.4375-1.625 1.4375-1.625z" fill="#fff" opacity=".05"/>
 <path id="base" d="m6.0176 1s-0.30129 0.77284-1.4375 1.625c-1.0512 0.7884-2.2695 2.4024-1.5938 4.9375-0.15817-1.2262 0.38519-3.4073 3.0312-3.5312v7.4688c0 1.3807 1.1193 2.5 2.5 2.5s2.5-1.1193 2.5-2.5-1.1193-2.5-2.5-2.5c-0.55919 0-1.0836 0.18981-1.5 0.5v-8.5h-1z" fill="url(#gr0)"/>
 <path id="path15" d="m8.5176 7c2.4853 0 4.5 2.0147 4.5 4.5 0 2.4853-2.0147 4.5-4.5 4.5-2.4853 0-4.5-2.0147-4.5-4.5 0-1.0631 0.38361-2.0425 1-2.8125v2.3125h0.03125c-0.022813 0.16144-0.03125 0.33227-0.03125 0.5 0 1.933 1.567 3.5 3.5 3.5 1.933 0 3.5-1.567 3.5-3.5 0-1.933-1.567-3.5-3.5-3.5-0.16773 0-0.33856 0.00844-0.5 0.03125v-0.96875c0.16677-0.01874 0.32822-0.0625 0.5-0.0625z" opacity=".2"/>
 <path id="path17" d="m6.0176 1s-0.30129 0.77284-1.4375 1.625c-1.0512 0.7884-2.2695 2.4024-1.5938 4.9375-0.15817-1.2262 0.38519-3.4073 3.0312-3.5312v7.4688c0 1.3807 1.1193 2.5 2.5 2.5s2.5-1.1193 2.5-2.5-1.1193-2.5-2.5-2.5c-0.55919 0-1.0836 0.18981-1.5 0.5v-8.5h-1zm0.2793 0.5h0.2207v2.5215a0.50005 0.50005 0 0 0-0.52344-0.49023c-1.0623 0.04978-1.7867 0.47642-2.3516 1 0.31563-0.67187 0.79062-1.1701 1.2383-1.5059 0.60918-0.45688 1.003-0.90032 1.248-1.2383 0.1161-0.16011 0.11013-0.17972 0.16797-0.28711zm2.2207 8c1.1105 0 2 0.8895 2 2s-0.88953 2-2 2-2-0.8895-2-2v-1.9941a0.50005 0.50005 0 0 0 0.79883 0.39453c0.33354-0.24845 0.75512-0.40039 1.2012-0.40039z" opacity=".3"/>
 <path id="path22" d="m6.0176 4.0312c-2.6461 0.12399-3.1894 2.3051-3.0312 3.5312-0.08121-0.30466-0.13204-0.59483-0.16211-0.87305-0.05696 0.55848-0.02312 1.1781 0.16211 1.873-0.15817-1.2262 0.38519-3.4073 3.0312-3.5312v-1zm0 7.4688v1c0 1.3807 1.1193 2.5 2.5 2.5s2.5-1.1193 2.5-2.5c0-0.1699-0.0185-0.3357-0.0508-0.4961-0.2331 1.1392-1.2411 1.9961-2.4492 1.9961-1.3807 0-2.5-1.1193-2.5-2.5z" fill="#fff" opacity=".2"/>
 <path id="path27" d="m6.0176 1s-0.30129 0.77284-1.4375 1.625c-0.92487 0.69365-1.976 2.0276-1.7559 4.0644 0.15083-1.4788 0.99282-2.4922 1.7559-3.0644 1.1362-0.85216 1.4375-1.625 1.4375-1.625h1v-1h-1zm2.5 8c-0.55919 0-1.0836 0.18981-1.5 0.5v1c0.41644-0.3102 0.94081-0.5 1.5-0.5 1.2081 0 2.2161 0.8569 2.4492 1.9961 0.0323-0.1604 0.0508-0.3262 0.0508-0.4961 0-1.3807-1.1193-2.5-2.5-2.5z" opacity=".3"/>
</svg>
