<?xml version="1.0" encoding="UTF-8"?>
<svg id="svg30" width="16" height="16" version="1.1" xmlns="http://www.w3.org/2000/svg" xmlns:cc="http://creativecommons.org/ns#" xmlns:dc="http://purl.org/dc/elements/1.1/" xmlns:rdf="http://www.w3.org/1999/02/22-rdf-syntax-ns#">
 <metadata id="metadata34">
  <rdf:RDF>
   <cc:Work rdf:about="">
    <dc:format>image/svg+xml</dc:format>
    <dc:type rdf:resource="http://purl.org/dc/dcmitype/StillImage"/>
   </cc:Work>
  </rdf:RDF>
 </metadata>
 <defs id="defs7">
  <radialGradient id="gr0" cx="9" cy="10" r="11" gradientTransform="matrix(1 0 0 .63636 0 3.6364)" gradientUnits="userSpaceOnUse">
   <stop id="stop2" stop-opacity=".23529" offset="0"/>
   <stop id="stop4" stop-opacity=".54902" offset="1"/>
  </radialGradient>
 </defs>
 <path id="path9" d="m2 1c-1.0907 0-2 0.9093-2 2v10c-1.4572e-16 1.0907 0.9093 2 2 2h12c1.0907 0 2-0.9093 2-2v-10c0-1.0907-0.9093-2-2-2h-12zm0 1h12c0.554 0 1 0.446 1 1v10c0 0.554-0.446 1-1 1h-12c-0.554 0-1-0.446-1-1v-10c0-0.554 0.446-1 1-1zm3.5 2c-0.277 0-0.5 0.223-0.5 0.5v7c0 0.277 0.223 0.5 0.5 0.5h5c0.277 0 0.5-0.223 0.5-0.5v-7c0-0.277-0.223-0.5-0.5-0.5h-1.5v6h-2v-6h-1.5zm0.5 6a1 1.0001 0 0 0 1 1h-1v-1zm4 0v1h-1a1.0001 1.0001 0 0 0 1-1z" fill="#fff" opacity=".05"/>
 <path id="base" d="m2 2c-0.554 0-1 0.446-1 1v10c0 0.554 0.446 1 1 1h12c0.554 0 1-0.446 1-1v-10c0-0.554-0.446-1-1-1h-12zm3.5 2h1.5v6h2v-6h1.5c0.277 0 0.5 0.223 0.5 0.5v7c0 0.277-0.223 0.5-0.5 0.5h-5c-0.277 0-0.5-0.223-0.5-0.5v-7c0-0.277 0.223-0.5 0.5-0.5z" fill="url(#gr0)"/>
 <path id="path15" d="m2 2c-0.554 0-1 0.446-1 1v10c0 0.554 0.446 1 1 1h12c0.554 0 1-0.446 1-1v-10c0-0.554-0.446-1-1-1h-12zm0 0.5h12c0.2856 0 0.5 0.21435 0.5 0.5v10c0 0.2856-0.2144 0.5-0.5 0.5h-12c-0.28565 0-0.5-0.2144-0.5-0.5v-10c0-0.28565 0.21435-0.5 0.5-0.5zm3.5 1c-0.54535 0-1 0.45465-1 1v7c0 0.5454 0.45465 1 1 1h5c0.5454 0 1-0.4546 1-1v-7c0-0.54535-0.4546-1-1-1h-1.5a0.50005 0.50005 0 0 0-0.5 0.5v5.5h-1v-5.5a0.50005 0.50005 0 0 0-0.5-0.5h-1.5zm0 0.5h1.5v6h2v-6h1.5c0.277 0 0.5 0.223 0.5 0.5v7c0 0.277-0.223 0.5-0.5 0.5h-5c-0.277 0-0.5-0.223-0.5-0.5v-7c0-0.277 0.223-0.5 0.5-0.5z" opacity=".3"/>
 <path id="path20" d="m5.5 4c-0.277 0-0.5 0.223-0.5 0.5v1c0-0.277 0.223-0.5 0.5-0.5h1.5v-1h-1.5zm3.5 0v1h1.5c0.277 0 0.5 0.223 0.5 0.5v-1c0-0.277-0.223-0.5-0.5-0.5h-1.5zm-2 6v1h2v-1h-2zm-6 3v1c0 0.554 0.446 1 1 1h12c0.554 0 1-0.446 1-1v-1c0 0.554-0.446 1-1 1h-12c-0.554 0-1-0.446-1-1z" fill="#fff" opacity=".2"/>
 <path id="path25" d="m2 2c-0.554 0-1 0.446-1 1v1c0-0.554 0.446-1 1-1h12c0.554 0 1 0.446 1 1v-1c0-0.554-0.446-1-1-1h-12zm3 9.5v1c0 0.277 0.223 0.5 0.5 0.5h5c0.277 0 0.5-0.223 0.5-0.5v-1c0 0.277-0.223 0.5-0.5 0.5h-5c-0.277 0-0.5-0.223-0.5-0.5z" opacity=".3"/>
</svg>
