<?xml version="1.0" encoding="UTF-8"?>
<svg id="svg38" width="16" height="16" version="1.1" xmlns="http://www.w3.org/2000/svg" xmlns:cc="http://creativecommons.org/ns#" xmlns:dc="http://purl.org/dc/elements/1.1/" xmlns:rdf="http://www.w3.org/1999/02/22-rdf-syntax-ns#">
 <metadata id="metadata42">
  <rdf:RDF>
   <cc:Work rdf:about="">
    <dc:format>image/svg+xml</dc:format>
    <dc:type rdf:resource="http://purl.org/dc/dcmitype/StillImage"/>
   </cc:Work>
  </rdf:RDF>
 </metadata>
 <defs id="defs7">
  <radialGradient id="gr0" cx="9" cy="10" r="11" gradientTransform="matrix(1 0 0 .0909 0 9.0901)" gradientUnits="userSpaceOnUse">
   <stop id="stop2" stop-opacity=".23529" offset="0"/>
   <stop id="stop4" stop-opacity=".54902" offset="1"/>
  </radialGradient>
 </defs>
 <path id="path9" d="m10.62 7c-0.33 0-0.749 0.08-1.099 0.393-0.349 0.307-0.521 0.8-0.521 1.232v1.635c-0.554 0.26-1 0.72-1 1.36v2.76c0 0.88 0.741 1.62 1.625 1.62h4.755c0.88 0 1.62-0.74 1.62-1.62v-2.76c0-0.64-0.45-1.1-1-1.36v-1.635c0-0.883-0.74-1.625-1.62-1.625h-2.76zm0.01 1h2.75c0.34 0 0.62 0.279 0.62 0.625v2.375h0.38c0.34 0 0.62 0.28 0.62 0.63v2.75c0 0.34-0.28 0.62-0.62 0.62h-4.755c-0.346 0-0.625-0.28-0.625-0.62v-2.75c0-0.35 0.279-0.63 0.625-0.63h0.375v-2.375c0-0.453 0.28-0.625 0.63-0.625zm0.37 1v2h2v-2h-2z" fill="#fff" opacity=".05"/>
 <path id="base" d="m10.625 8c-0.346 0-0.625 0.1716-0.625 0.625v2.375h-0.375c-0.346 0-0.625 0.279-0.625 0.625v2.75c0 0.346 0.279 0.625 0.625 0.625h4.75c0.346 0 0.625-0.279 0.625-0.625v-2.75c0-0.346-0.279-0.625-0.625-0.625h-0.375v-2.375c0-0.3462-0.279-0.625-0.625-0.625h-2.75zm0.375 1h2v2h-2v-2z" fill="url(#gr0)"/>
 <path id="path17" d="m12 2c-0.554 0-1 0.446-1 1v4h2v-4c0-0.554-0.446-1-1-1zm-3 3c-0.554 0-1 0.446-1 1v5.625c0-0.642 0.4465-1.101 1-1.363v-1.637c0-0.4318 0.1723-0.9247 0.5215-1.2324 0.1507-0.1328 0.3146-0.2184 0.4785-0.2793v-1.1133c0-0.554-0.446-1-1-1zm-3 2c-0.554 0-1 0.446-1 1v4c0 0.554 0.446 1 1 1s1-0.446 1-1v-4c0-0.554-0.446-1-1-1zm-3 2c-0.554 0-1 0.446-1 1v2c0 0.554 0.446 1 1 1s1-0.446 1-1v-2c0-0.554-0.446-1-1-1z" opacity=".2"/>
 <path id="path19" d="m10.63 8c-0.35 0-0.63 0.172-0.63 0.625v2.375h-0.375c-0.346 0-0.625 0.28-0.625 0.63v2.75c0 0.34 0.279 0.62 0.625 0.62h4.755c0.34 0 0.62-0.28 0.62-0.62v-2.75c0-0.35-0.28-0.63-0.62-0.63h-0.38v-2.375c0-0.346-0.28-0.625-0.62-0.625h-2.75zm-0.01 0.5 0.39 2e-3a0.5 0.5 0 0 0-0.5 0.5v-0.375-0.107s0.01-0.02 0.11-0.02zm2.38 0h0.38c0.02 0 0.12 0.045 0.12 0.125v0.375a0.5 0.5 0 0 0-0.5-0.5zm-2 0.5h2v2h-2v-2zm-0.5 2a0.5 0.5 0 0 0 0.5 0.5h2a0.5 0.5 0 0 0 0.5-0.5 0.5 0.5 0 0 0 0.5 0.5h0.38c0.02 0 0.12 0.02 0.12 0.12v2.76c0 0.02-0.02 0.12-0.12 0.12h-4.755c-0.075 0-0.125-0.02-0.125-0.12v-2.76c0-0.02 0.045-0.12 0.125-0.12h0.375a0.5 0.5 0 0 0 0.5-0.5z" opacity=".3"/>
 <path id="path26" d="m11 9v1h2v-1h-2zm-2 5.38v1c0 0.34 0.279 0.62 0.625 0.62h4.755c0.34 0 0.62-0.28 0.62-0.62v-1c0 0.34-0.28 0.62-0.62 0.62h-4.755c-0.346 0-0.625-0.28-0.625-0.62z" fill="#fff" opacity=".2"/>
 <path id="path33" d="m10.63 8c-0.35 0-0.63 0.172-0.63 0.625v1c0-0.453 0.28-0.625 0.63-0.625h0.37 2 0.38c0.34 0 0.62 0.279 0.62 0.625v-1c0-0.346-0.28-0.625-0.62-0.625h-2.75zm-1.005 3c-0.346 0-0.625 0.28-0.625 0.63v1c0-0.35 0.279-0.63 0.625-0.63h0.375v-1h-0.375zm1.375 0v1h2v-1h-2zm3 0v1h0.38c0.34 0 0.62 0.28 0.62 0.63v-1c0-0.35-0.28-0.63-0.62-0.63h-0.38z" opacity=".3"/>
</svg>
