<?xml version="1.0" encoding="UTF-8"?>
<svg id="svg30" width="16" height="16" version="1.1" xmlns="http://www.w3.org/2000/svg" xmlns:cc="http://creativecommons.org/ns#" xmlns:dc="http://purl.org/dc/elements/1.1/" xmlns:rdf="http://www.w3.org/1999/02/22-rdf-syntax-ns#">
 <metadata id="metadata34">
  <rdf:RDF>
   <cc:Work rdf:about="">
    <dc:format>image/svg+xml</dc:format>
    <dc:type rdf:resource="http://purl.org/dc/dcmitype/StillImage"/>
   </cc:Work>
  </rdf:RDF>
 </metadata>
 <defs id="defs7">
  <radialGradient id="gr0" cx="9" cy="10" r="11" gradientTransform="matrix(1 0 0 .63636 0 3.6364)" gradientUnits="userSpaceOnUse">
   <stop id="stop2" stop-opacity=".23529" offset="0"/>
   <stop id="stop4" stop-opacity=".54902" offset="1"/>
  </radialGradient>
 </defs>
 <path id="path9" d="m2 1c-1.0907 0-2 0.9093-2 2v10c-1.4572e-16 1.0907 0.9093 2 2 2h12c1.0907 0 2-0.9093 2-2v-10c0-1.0907-0.9093-2-2-2h-12zm0 1h12c0.554 0 1 0.446 1 1v10c0 0.554-0.446 1-1 1h-12c-0.554 0-1-0.446-1-1v-10c0-0.554 0.446-1 1-1zm1 2c-0.554 0-1 0.446-1 1v4h3v3h1c0.554 0 1-0.446 1-1v-3-1-3h-2v3h-1v-3h-1zm5.5 0c-0.277 0-0.5 0.223-0.5 0.5v7c0 0.277 0.223 0.5 0.5 0.5h5c0.277 0 0.5-0.223 0.5-0.5v-4.5h-3v2h1v1h-2v-1-2-1h4v-1.5c0-0.277-0.223-0.5-0.5-0.5h-5zm0.5 1h1a1 1.0001 0 0 0-1 1v-1zm-6 2a1.0001 1.0001 0 0 0 1 1h-1v-1zm3 0v1 1a1.0001 1.0001 0 0 0-1-1 1.0001 1.0001 0 0 0 1-1zm6 1h1v1a1.0001 1.0001 0 0 0-1-1zm-3 2a1.0001 1.0001 0 0 0 1 1h-1v-1zm4 0v1h-1a1.0001 1.0001 0 0 0 1-1z" fill="#fff" opacity=".05"/>
 <path id="base" d="m2 2c-.554 0-1 .446-1 1v10c0 .554.446 1 1 1h12c.554 0 1-.446 1-1v-10c0-.554-.446-1-1-1h-12zm1 2h1v3h1v-3h2v3 1 3c0 .554-.446 1-1 1h-1v-3h-3v-4c0-.554.446-1 1-1zm5.5 0h5c.277 0 .5.223.5.5v1.5h-4v1 2 1h2v-1h-1v-2h3v4.5c0 .277-.223.5-.5.5h-5c-.277 0-.5-.223-.5-.5v-7c0-.277.223-.5.5-.5z" fill="url(#gr0)"/>
 <path id="path15" d="m2 2c-0.554 0-1 0.446-1 1v10c0 0.554 0.446 1 1 1h12c0.554 0 1-0.446 1-1v-10c0-0.554-0.446-1-1-1h-12zm0 0.5h12c0.2856 0 0.5 0.21435 0.5 0.5v1.5c0-0.54535-0.4546-1-1-1h-5c-0.54535 0-1 0.45465-1 1v-0.5a0.50005 0.50005 0 0 0-0.5-0.5h-2a0.50005 0.50005 0 0 0-0.5 0.5 0.50005 0.50005 0 0 0-0.5-0.5h-1c-0.82235 0-1.5 0.67765-1.5 1.5v-2c0-0.28565 0.21435-0.5 0.5-0.5zm1 1.5h1v3h1v-3h2v3 1 3c0 0.554-0.446 1-1 1h-1v-3h-3v-4c0-0.554 0.446-1 1-1zm5.5 0h5c0.277 0 0.5 0.223 0.5 0.5v1.5h-4v1 2 1h2v-1h-1v-2h3v4.5c0 0.277-0.223 0.5-0.5 0.5h-5c-0.277 0-0.5-0.223-0.5-0.5v-7c0-0.277 0.223-0.5 0.5-0.5zm6 2v1a0.50005 0.50005 0 0 0-0.5-0.5 0.50005 0.50005 0 0 0 0.5-0.5zm-4 0.5h0.5a0.50005 0.50005 0 0 0-0.5 0.5v-0.5zm-9 2.5a0.50005 0.50005 0 0 0 0.5 0.5h2.5v2.5a0.50005 0.50005 0 0 0 0.5 0.5h1c0.82235 0 1.5-0.6776 1.5-1.5v0.5c0 0.5454 0.45465 1 1 1h5c0.5454 0 1-0.4546 1-1v1.5c0 0.2856-0.2144 0.5-0.5 0.5h-12c-0.28565 0-0.5-0.2144-0.5-0.5v-4zm9 0a0.50005 0.50005 0 0 0 0.5 0.5h-0.5v-0.5z" opacity=".3"/>
 <path id="path20" d="m3 4c-0.554 0-1 0.446-1 1v1c0-0.554 0.446-1 1-1h1v-1h-1zm2 0v1h2v-1h-2zm3.5 0c-0.277 0-0.5 0.223-0.5 0.5v1c0-0.277 0.223-0.5 0.5-0.5h5c0.277 0 0.5 0.223 0.5 0.5v-1c0-0.277-0.223-0.5-0.5-0.5h-5zm-4.5 3v1h1v-1h-1zm7 0v1h3v-1h-3zm-1 3v1h2v-1h-1-1zm-9 3v1c0 0.554 0.446 1 1 1h12c0.554 0 1-0.446 1-1v-1c0 0.554-0.446 1-1 1h-12c-0.554 0-1-0.446-1-1z" fill="#fff" opacity=".2"/>
 <path id="path25" d="m2 2c-0.554 0-1 0.446-1 1v1c0-0.554 0.446-1 1-1h12c0.554 0 1 0.446 1 1v-1c0-0.554-0.446-1-1-1h-12zm8 4v1h1 3v-1h-4zm-8 3v1h3v-1h-3zm9 0v1h1v-1h-1zm-4 2c0 0.554-0.446 1-1 1h-1v1h1c0.554 0 1-0.446 1-1v-1zm1 0.5v1c0 0.277 0.223 0.5 0.5 0.5h5c0.277 0 0.5-0.223 0.5-0.5v-1c0 0.277-0.223 0.5-0.5 0.5h-5c-0.277 0-0.5-0.223-0.5-0.5z" opacity=".3"/>
</svg>
