<?xml version="1.0" encoding="UTF-8"?>
<svg id="svg32" width="16" height="16" version="1.1" xmlns="http://www.w3.org/2000/svg" xmlns:cc="http://creativecommons.org/ns#" xmlns:dc="http://purl.org/dc/elements/1.1/" xmlns:rdf="http://www.w3.org/1999/02/22-rdf-syntax-ns#">
 <metadata id="metadata36">
  <rdf:RDF>
   <cc:Work rdf:about="">
    <dc:format>image/svg+xml</dc:format>
    <dc:type rdf:resource="http://purl.org/dc/dcmitype/StillImage"/>
   </cc:Work>
  </rdf:RDF>
 </metadata>
 <defs id="defs7">
  <radialGradient id="gr0" cx="9" cy="10" r="11" gradientTransform="matrix(.8 0 0 .8 2.041 2.7)" gradientUnits="userSpaceOnUse">
   <stop id="stop2" stop-color="#e64b36" offset="0"/>
   <stop id="stop4" stop-color="#a31414" offset="1"/>
  </radialGradient>
 </defs>
 <path id="path9" d="m10.484 8a1 1.0001 0 0 0-0.69143 0.29297l-1.5 1.5a1.0001 1.0001 0 0 0 0 1.414l0.79297 0.793-0.79297 0.793a1.0001 1.0001 0 0 0 0 1.414l1.5 1.5a1.0001 1.0001 0 0 0 1.414 0l0.793-0.7929 0.793 0.7929a1.0001 1.0001 0 0 0 1.414 0l1.5-1.5a1.0001 1.0001 0 0 0 0-1.414l-0.7929-0.793 0.7929-0.793a1.0001 1.0001 0 0 0 0-1.414l-1.5-1.5a1.0001 1.0001 0 0 0-1.414 0l-0.793 0.79297-0.793-0.79297a1.0001 1.0001 0 0 0-0.7226-0.29297zm0.0156 1 1.5 1.5 1.5-1.5 1.5 1.5-1.5 1.5 1.5 1.5-1.5 1.5-1.5-1.5-1.5 1.5-1.5-1.5 1.5-1.5-1.5-1.5 1.5-1.5z" fill="#fff" opacity=".05"/>
 <path id="base" class="error" d="m10.5 9-1.5 1.5 1.5 1.5-1.5 1.5 1.5 1.5 1.5-1.5 1.5 1.5 1.5-1.5-1.5-1.5 1.5-1.5-1.5-1.5-1.5 1.5z" fill="url(#gr0)"/>
 <path id="path15" d="m8.002 2a12 12 0 0 0-6.879 2.1738l1.1504 1.6446a10 10 0 0 1 5.7286-1.8184 10 10 0 0 1 5.732 1.8105l1.143-1.6289a12 12 0 0 0-6.875-2.1816zm0 3a9 9 0 0 0-5.1582 1.6309l1.1503 1.6425a7 7 0 0 1 4.0079-1.2734 7 7 0 0 1 4.014 1.2676l1.14-1.6309a9 9 0 0 0-5.154-1.6367zm0 3a6 6 0 0 0-3.4375 1.0879l1.1464 1.6391a4 4 0 0 1 2.2911-0.727 4 4 0 0 1 0.1289 6e-3 1 1.0001 0 0 1 0.1621-0.213l1.5-1.5a1.0001 1.0001 0 0 1 0.0117-0.0098 6 6 0 0 0-1.8027-0.2832zm0 3a3 3 0 0 0-1.7188 0.543l1.7188 2.457 0.0781-0.111a1.0001 1.0001 0 0 1 0.2129-1.096l0.7949-0.793-0.7949-0.793a1.0001 1.0001 0 0 1-0.1543-0.201 3 3 0 0 0-0.1367-6e-3z" opacity=".2"/>
 <path id="path17" d="m10.5 9-1.5 1.5 1.5 1.5-1.5 1.5 1.5 1.5 1.5-1.5 1.5 1.5 1.5-1.5-1.5-1.5 1.5-1.5-1.5-1.5-1.5 1.5-1.5-1.5zm0 0.70703 1.1465 1.1465a0.50005 0.50005 0 0 0 0.707 0l1.1465-1.1465 0.793 0.79297-1.1465 1.1465a0.50005 0.50005 0 0 0 0 0.707l1.1465 1.1465-0.793 0.793-1.1465-1.1465a0.50005 0.50005 0 0 0-0.707 0l-1.1465 1.1465-0.79297-0.793 1.1465-1.1465a0.50005 0.50005 0 0 0 0-0.707l-1.1465-1.1465 0.79297-0.79297z" opacity=".3"/>
 <path id="path22" d="m9.5 11-0.5 0.5 1 1 0.5-0.5-1-1zm5 0-1 1 0.5 0.5 1-1-0.5-0.5zm-2.5 2.5-1.5 1.5-1-1-0.5 0.5 1.5 1.5 1.5-1.5 1.5 1.5 1.5-1.5-0.5-0.5-1 1-1.5-1.5z" fill="#fff" opacity=".2"/>
 <path id="path27" d="m10.5 9-1.5 1.5 0.5 0.5 1-1 1.5 1.5 1.5-1.5 1 1 0.5-0.5-1.5-1.5-1.5 1.5-1.5-1.5zm-0.5 3.5-1 1 0.5 0.5 1-1-0.5-0.5zm4 0-0.5 0.5 1 1 0.5-0.5-1-1z" opacity=".3"/>
</svg>
