<?xml version="1.0" encoding="UTF-8"?>
<svg id="svg30" width="16" height="16" version="1.1" xmlns="http://www.w3.org/2000/svg" xmlns:cc="http://creativecommons.org/ns#" xmlns:dc="http://purl.org/dc/elements/1.1/" xmlns:rdf="http://www.w3.org/1999/02/22-rdf-syntax-ns#">
 <metadata id="metadata34">
  <rdf:RDF>
   <cc:Work rdf:about="">
    <dc:format>image/svg+xml</dc:format>
    <dc:type rdf:resource="http://purl.org/dc/dcmitype/StillImage"/>
   </cc:Work>
  </rdf:RDF>
 </metadata>
 <defs id="defs7">
  <radialGradient id="gr0" cx="9" cy="10" r="11" gradientTransform="matrix(1 0 0 .72727 0 2.7273)" gradientUnits="userSpaceOnUse">
   <stop id="stop2" stop-color="#df880b" offset="0"/>
   <stop id="stop4" stop-color="#f7c15a" offset="1"/>
  </radialGradient>
 </defs>
 <path id="path9" d="m4.5 0c-1.3677 0-2.5 1.1323-2.5 2.5v3.709c-1.101 0.26007-2 1.1172-2 2.291v3c0 1.2308 0.96621 2.1576 2.1465 2.3535 0.19593 1.1803 1.1227 2.1465 2.3535 2.1465h7c1.2308 0 2.1576-0.9662 2.3535-2.1465 1.1803-0.1959 2.1465-1.1227 2.1465-2.3535v-3c0-1.1738-0.899-2.031-2-2.291v-3.709c0-1.3677-1.1323-2.5-2.5-2.5h-7zm0 1h7c0.831 0 1.5 0.669 1.5 1.5v4.5h0.5c0.831 0 1.5 0.669 1.5 1.5v1 2c0 0.831-0.669 1.5-1.5 1.5h-0.5v0.5c0 0.831-0.669 1.5-1.5 1.5h-7c-0.831 0-1.5-0.669-1.5-1.5v-0.5h-0.5c-0.831 0-1.5-0.669-1.5-1.5v-3c0-0.831 0.669-1.5 1.5-1.5h0.5v-4.5c0-0.831 0.669-1.5 1.5-1.5zm1 2c-0.277 0-0.5 0.223-0.5 0.5v4.5h6v-4.5c0-0.277-0.223-0.5-0.5-0.5h-5zm0.5 1h4.0117v1h-4.0117v-1zm0 2h3v1h-3v-1zm-1 6v0.5c0 0.277 0.223 0.5 0.5 0.5h5c0.277 0 0.5-0.223 0.5-0.5v-0.5h-6z" fill="#fff" opacity=".05"/>
 <path id="base" d="m4.5 1c-0.831 0-1.5 0.669-1.5 1.5v4.5h-0.5c-0.831 0-1.5 0.669-1.5 1.5v3c0 0.831 0.669 1.5 1.5 1.5h0.5v0.5c0 0.831 0.669 1.5 1.5 1.5h7c0.831 0 1.5-0.669 1.5-1.5v-0.5h0.5c0.831 0 1.5-0.669 1.5-1.5v-3c0-0.831-0.669-1.5-1.5-1.5h-0.5v-4.5c0-0.831-0.669-1.5-1.5-1.5zm1 2h5c0.277 0 0.5 0.223 0.5 0.5v4.5h-6v-4.5c0-0.277 0.223-0.5 0.5-0.5zm0.5 1v1h4.0117v-1zm0 2v1h3v-1zm7.5 3a0.5 0.5 0 0 1 0.5 0.5 0.5 0.5 0 0 1-0.5 0.5 0.5 0.5 0 0 1-0.5-0.5 0.5 0.5 0 0 1 0.5-0.5zm-8.5 3h6v0.5c0 0.277-0.223 0.5-0.5 0.5h-5c-0.277 0-0.5-0.223-0.5-0.5z" fill="url(#gr0)"/>
 <path id="path15" d="m4.5 1c-0.831 0-1.5 0.669-1.5 1.5v4.5h-0.5c-0.831 0-1.5 0.669-1.5 1.5v3c0 0.831 0.669 1.5 1.5 1.5h0.5v0.5c0 0.831 0.669 1.5 1.5 1.5h7c0.831 0 1.5-0.669 1.5-1.5v-0.5h0.5c0.831 0 1.5-0.669 1.5-1.5v-3c0-0.831-0.669-1.5-1.5-1.5h-0.5v-4.5c0-0.831-0.669-1.5-1.5-1.5h-7zm0 0.5h7c0.5626 0 1 0.43735 1 1v4.5a0.50005 0.50005 0 0 0 0.5 0.5h0.5c0.5626 0 1 0.43735 1 1v3c0 0.5626-0.4374 1-1 1h-0.5a0.50005 0.50005 0 0 0-0.5 0.5v0.5c0 0.5626-0.4374 1-1 1h-7c-0.56265 0-1-0.4374-1-1v-0.5a0.50005 0.50005 0 0 0-0.5-0.5h-0.5c-0.56265 0-1-0.4374-1-1v-3c0-0.56265 0.43735-1 1-1h0.5a0.50005 0.50005 0 0 0 0.5-0.5v-4.5c0-0.56265 0.43735-1 1-1zm1 1c-0.54535 0-1 0.45465-1 1v4.5a0.50005 0.50005 0 0 0 0.5 0.5h6a0.50005 0.50005 0 0 0 0.5-0.5v-4.5c0-0.54535-0.4546-1-1-1h-5zm0 0.5h5c0.277 0 0.5 0.223 0.5 0.5v4.5h-6v-4.5c0-0.277 0.223-0.5 0.5-0.5zm0.5 1v1h4.0117v-1h-4.0117zm0 2v1h3v-1h-3zm-1 5.5a0.50005 0.50005 0 0 0-0.5 0.5v0.5c0 0.5454 0.45465 1 1 1h5c0.5454 0 1-0.4546 1-1v-0.5a0.50005 0.50005 0 0 0-0.5-0.5h-6zm0 0.5h6v0.5c0 0.277-0.223 0.5-0.5 0.5h-5c-0.277 0-0.5-0.223-0.5-0.5v-0.5z" opacity=".3"/>
 <path id="path20" d="m5.5 3c-0.277 0-0.5 0.223-0.5 0.5v1c0-0.277 0.223-0.5 0.5-0.5h0.5 4.0117 0.4883c0.277 0 0.5 0.223 0.5 0.5v-1c0-0.277-0.223-0.5-0.5-0.5h-5zm0.5 2v1h3 1.0117v-1h-4.0117zm0 2v1h3v-1h-3zm7.5 2a0.5 0.5 0 0 0-0.5 0.5 0.5 0.5 0 0 0 0.5 0.5 0.5 0.5 0 0 0 0.5-0.5 0.5 0.5 0 0 0-0.5-0.5zm-12.5 2.5v1c0 0.831 0.669 1.5 1.5 1.5h0.5v0.5c0 0.831 0.669 1.5 1.5 1.5h7c0.831 0 1.5-0.669 1.5-1.5v-0.5h0.5c0.831 0 1.5-0.669 1.5-1.5v-1c0 0.831-0.669 1.5-1.5 1.5h-0.5v0.5c0 0.831-0.669 1.5-1.5 1.5h-7c-0.831 0-1.5-0.669-1.5-1.5v-0.5h-0.5c-0.831 0-1.5-0.669-1.5-1.5zm4 0.5v0.5c0 0.277 0.223 0.5 0.5 0.5h5c0.277 0 0.5-0.223 0.5-0.5v-0.5h-6z" fill="#fff" opacity=".2"/>
 <path id="path25" d="m4.5 1c-0.831 0-1.5 0.669-1.5 1.5v1c0-0.831 0.669-1.5 1.5-1.5h7c0.831 0 1.5 0.669 1.5 1.5v-1c0-0.831-0.669-1.5-1.5-1.5h-7zm1.5 3v1h4.0117v-1h-4.0117zm0 2v1h3v-1h-3zm-3.5 1c-0.831 0-1.5 0.669-1.5 1.5v1c0-0.831 0.669-1.5 1.5-1.5h0.5v-1h-0.5zm10.5 0v1h0.5c0.831 0 1.5 0.669 1.5 1.5v-1c0-0.831-0.669-1.5-1.5-1.5h-0.5zm-8 1v1h6v-1h-2-3-1zm8.5 2a0.5 0.5 0 0 0-0.5 0.5 0.5 0.5 0 0 0 0.5 0.5 0.5 0.5 0 0 0 0.5-0.5 0.5 0.5 0 0 0-0.5-0.5zm-8.5 3v0.5c0 0.277 0.223 0.5 0.5 0.5h5c0.277 0 0.5-0.223 0.5-0.5v-0.5h-0.5-5-0.5z" opacity=".3"/>
</svg>
