<?xml version="1.0" encoding="UTF-8"?>
<svg id="svg36" width="16" height="16" version="1.1" xmlns="http://www.w3.org/2000/svg" xmlns:cc="http://creativecommons.org/ns#" xmlns:dc="http://purl.org/dc/elements/1.1/" xmlns:rdf="http://www.w3.org/1999/02/22-rdf-syntax-ns#">
 <metadata id="metadata40">
  <rdf:RDF>
   <cc:Work rdf:about="">
    <dc:format>image/svg+xml</dc:format>
    <dc:type rdf:resource="http://purl.org/dc/dcmitype/StillImage"/>
   </cc:Work>
  </rdf:RDF>
 </metadata>
 <defs id="defs7">
  <radialGradient id="gr0" cx="9" cy="10" r="11" gradientTransform="matrix(1 0 0 .63636 0 3.6364)" gradientUnits="userSpaceOnUse">
   <stop id="stop2" stop-opacity=".23529" offset="0"/>
   <stop id="stop4" stop-opacity=".54902" offset="1"/>
  </radialGradient>
 </defs>
 <path id="path9" d="m8.014 0.6992a1 1 0 0 0-0.909 0.5568l-1.931 3.906-4.3166 0.625a1 1 0 0 0-0.5547 1.707l3.1213 3.046-0.74 4.29a1 1 0 0 0 1.451 1.05l3.861-2.02 3.864 2.02a1 1 0 0 0 1.45-1.05l-0.74-4.29 3.13-3.042a1 1 0 0 0-0.56-1.707l-4.31-0.627-1.932-3.908a1 1 0 0 0-0.884-0.5568zm-0.012 0.9998 2.158 4.379 4.84 0.703-3.5 3.409 0.82 4.81-4.324-2.27-4.326 2.27 0.828-4.81-3.498-3.413 4.838-0.701 2.164-4.377zm0 3.385 6e-3 6.146c0.236 0 0.471 0.06 0.687 0.17l1.635 0.86-0.31-1.82c-0.082-0.488 0.08-0.984 0.43-1.329l1.32-1.283-1.821-0.266c-0.488-0.071-0.91-0.377-1.129-0.82l-0.818-1.658zm1.002 3.143c0.217 0.117 0.437 0.23 0.684 0.279-0.497 0.536-0.73 1.252-0.643 1.974h-0.039l-2e-3 -2.253z" fill="#fff" opacity=".05"/>
 <path id="base" d="m8.002 1.6992-2.1641 4.377-4.8379.7011 3.498 3.4087-.8281 4.81 4.3262-2.269 4.3259 2.273-.824-4.812 3.502-3.4068-4.836-.7031zm-.0020 3.3848.8184 1.6582c.2184.4425.6405.7492 1.1289.8203l1.8257.2656-1.32 1.2832c-.355.3447-.5172.8424-.433 1.3297l.31055 1.8184-1.6367-.86133c-.2158-.113-.4517-.170-.6879-.171z" fill="url(#gr0)"/>
 <path id="path17" d="m8.002 1.699-2.164 4.377-4.838 0.701 3.498 3.413-0.828 4.81 4.326-2.27 4.324 2.27-0.82-4.81 3.5-3.409-4.84-0.703-2.158-4.379zm0 1.129 1.713 3.471a0.5 0.5 0 0 0 0.375 0.273l3.83 0.557-2.77 2.701a0.5 0.5 0 0 0-0.14 0.44l0.65 3.82-3.431-1.8a0.5 0.5 0 0 0-0.465 0l-3.43 1.79 0.656-3.81a0.5 0.5 0 0 0-0.142-0.442l-2.774-2.701 3.836-0.557a0.5 0.5 0 0 0 0.375-0.273l1.717-3.469zm0.01 1.756a0.5 0.5 0 0 0-0.508 0.5v6.146a0.5 0.5 0 0 0 0.498 0.5c0.157 0 0.313 0.01 0.457 0.11l1.641 0.86a0.5 0.5 0 0 0 0.72-0.52l-0.31-1.82c-0.05-0.33 0.05-0.659 0.29-0.889l1.32-1.283a0.5 0.5 0 0 0-0.27-0.854l-1.83-0.266c-0.329-0.047-0.609-0.251-0.754-0.547l-0.819-1.658a0.5 0.5 0 0 0-0.429-0.279h-4e-3 -2e-3zm-0.01 0.5 0.818 1.658c0.219 0.443 0.641 0.749 1.129 0.82l1.821 0.266-1.32 1.283c-0.35 0.345-0.512 0.841-0.43 1.329l0.31 1.82-1.635-0.86c-0.216-0.11-0.451-0.17-0.687-0.17l-6e-3 -6.146z" opacity=".3"/>
 <path id="path24" d="m8.002 5.084v1 2e-3l0.818 1.656c0.219 0.443 0.641 0.75 1.129 0.82l0.931 0.135 0.89-0.869-1.821-0.266c-0.488-0.071-0.91-0.377-1.129-0.82l-0.818-1.658zm-6.109 2.564-0.893 0.129 3.352 3.263 0.146-0.85-2.605-2.542zm12.217 4e-3 -2.61 2.538 0.15 0.86 3.35-3.269-0.89-0.129zm-4.04 3.078c-0.071 0.23-0.091 0.47-0.05 0.71l0.12 0.72 0.19 0.1-0.26-1.53zm-2.074 2-4.137 2.17-0.189 1.1 4.326-2.27 4.324 2.27-0.19-1.1-4.134-2.17z" fill="#fff" opacity=".2"/>
 <path id="path31" d="m8.002 1.699-2.164 4.377-4.838 0.701 0.893 0.871 3.945-0.572 2.164-4.377 2.158 4.379 3.95 0.574 0.89-0.871-4.84-0.703-2.158-4.379zm2.878 6.998-0.43 0.414c-0.35 0.345-0.512 0.842-0.43 1.329l0.05 0.29c0.07-0.23 0.2-0.44 0.38-0.62l1.32-1.282-0.89-0.131zm-6.528 2.343-0.682 3.96 0.189-0.1 0.639-3.71-0.146-0.15zm7.298 0.01-0.15 0.14 0.63 3.71 0.19 0.1-0.67-3.95zm-3.642 0.18v1c0.236 0 0.471 0.06 0.687 0.17l1.635 0.86-0.19-1.1-1.445-0.76c-0.216-0.11-0.451-0.17-0.687-0.17z" opacity=".3"/>
</svg>
