<?xml version="1.0" encoding="UTF-8"?>
<svg id="svg30" width="16" height="16" version="1.1" xmlns="http://www.w3.org/2000/svg" xmlns:cc="http://creativecommons.org/ns#" xmlns:dc="http://purl.org/dc/elements/1.1/" xmlns:rdf="http://www.w3.org/1999/02/22-rdf-syntax-ns#">
 <metadata id="metadata34">
  <rdf:RDF>
   <cc:Work rdf:about="">
    <dc:format>image/svg+xml</dc:format>
    <dc:type rdf:resource="http://purl.org/dc/dcmitype/StillImage"/>
   </cc:Work>
  </rdf:RDF>
 </metadata>
 <defs id="defs7">
  <radialGradient id="gr0" cx="9" cy="10" r="11" gradientTransform="matrix(1 0 0 .72727 0 2.7273)" gradientUnits="userSpaceOnUse">
   <stop id="stop2" stop-opacity=".23529" offset="0"/>
   <stop id="stop4" stop-opacity=".54902" offset="1"/>
  </radialGradient>
 </defs>
 <path id="path9" d="m8.041-0.015625c-0.49595-0.010331-0.99451 0.1868-1.3477 0.53516a1 1.0001 0 0 0-0.00391 0.00586l-6.1484 6.1484a1.0001 1.0001 0 0 0-0.00586 0.00586c-0.67461 0.68736-0.67461 1.922 0 2.6094a1.0001 1.0001 0 0 0 0.00586 0.00586l6.125 6.125c0.23887 0.2562 0.54978 0.4426 0.88867 0.5313 0.02032 0.0066 0.04001 0.0156 0.06054 0.0215a1.0001 1.0001 0 0 0 0.1836 0.0351c0.56745 0.0525 1.1528-0.1727 1.5391-0.5918l6.1211-6.1211a1.0001 1.0001 0 0 0 0.0058-0.00586c0.6747-0.68736 0.6747-1.922 0-2.6094a1.0001 1.0001 0 0 0-0.0058-0.00586l-6.1484-6.1484a1.0001 1.0001 0 0 0-0.00391-0.003907c-0.33312-0.32868-0.79388-0.52563-1.2617-0.53711a1.0001 1.0001 0 0 0-0.0039 0zm-0.02149 1a0.86158 0.86158 0 0 1 0.58399 0.24804l6.1485 6.1484a0.86158 0.86158 0 0 1 0 1.207l-6.1485 6.1504a0.86158 0.86158 0 0 1-0.7129 0.2734 0.86158 0.86158 0 0 1-0.08203-0.0273 0.86158 0.86158 0 0 1-0.41211-0.2461l-6.1484-6.1504a0.86158 0.86158 0 0 1 0-1.207l6.1484-6.1484a0.86158 0.86158 0 0 1 0.62305-0.24804zm-0.01953 2.0156-3 3 2.1211-0.00586v4.0059h-2.1211l3 3 3-3h-2.1211v-4.0059l2.1211 0.00586-3-3zm0 1.4141 0.61523 0.61524a1.0001 1.0001 0 0 0-0.61523 0.48828 1.0001 1.0001 0 0 0-0.61523-0.48828l0.61523-0.61524zm0 6.0605a1.0001 1.0001 0 0 0 0.62109 0.4902l-0.62109 0.6211-0.62109-0.6211a1.0001 1.0001 0 0 0 0.62109-0.4902z" fill="#fff" opacity=".05"/>
 <path id="base" d="m8.0195.98438a.86158 .86158 0 0 0 -.6230 .24802l-6.1485 6.1485a.86158 .86158 0 0 0 0 1.207l6.1485 6.1501a.86158 .86158 0 0 0 .4121 .246 .86158 .86158 0 0 0 .0820 .028 .86158 .86158 0 0 0 .7129 -.274l6.1485-6.1501a.86158 .86158 0 0 0 0 -1.207l-6.1485-6.1485a.86158 .86158 0 0 0 -.5840 -.24802zm-.0195 2.0156l3 3-2.1211-.0059v4.0059h2.1211l-3 3-3-3h2.1211v-4.0059l-2.1211.0059 3-3z" fill="url(#gr0)"/>
 <path id="path15" d="m8.0195 0.98438a0.86158 0.86158 0 0 0-0.62305 0.24804l-6.1484 6.1484a0.86158 0.86158 0 0 0 0 1.207l6.1484 6.1504a0.86158 0.86158 0 0 0 0.41211 0.2461 0.86158 0.86158 0 0 0 0.08203 0.0273 0.86158 0.86158 0 0 0 0.7129-0.2734l6.1485-6.1504a0.86158 0.86158 0 0 0 0-1.207l-6.1485-6.1484a0.86158 0.86158 0 0 0-0.58399-0.24804zm-0.01172 0.5h0.00196c0.09023 0.00269 0.17792 0.0401 0.24218 0.10351l6.1426 6.1426c0.1311 0.13351 0.1311 0.3743 0 0.50781l-6.1445 6.1465a0.50005 0.50005 0 0 0-0.01367 0.0136c-0.07052 0.0765-0.17737 0.111-0.28125 0.1075a0.50005 0.50005 0 0 0-0.01953-0.0059c-0.06583-0.0172-0.12743-0.0537-0.17383-0.1035a0.50005 0.50005 0 0 0-0.01172-0.0117l-6.1445-6.1465c-0.13103-0.13351-0.13103-0.3743 0-0.50781l6.1426-6.1426c0.06815-0.06723 0.16405-0.10499 0.25976-0.10351zm0 1.0156a0.50005 0.50005 0 0 0-0.36133 0.14648l-3 3a0.50005 0.50005 0 0 0 0.35547 0.85352l1.6191-0.00391v3.0039h-1.6211a0.50005 0.50005 0 0 0-0.35352 0.8535l3 3a0.50005 0.50005 0 0 0 0.70704 0l3-3a0.50005 0.50005 0 0 0-0.3535-0.8535h-1.6211v-3.0039l1.6191 0.00391a0.50005 0.50005 0 0 0 0.3555-0.85352l-3-3a0.50005 0.50005 0 0 0-0.34571-0.14648zm-0.00781 0.5 3 3-2.1211-0.00586v4.0059h2.1211l-3 3-3-3h2.1211v-4.0059l-2.1211 0.00586 3-3z" opacity=".3"/>
 <path id="path20" d="m8 3-3 3 1.002-0.00195 1.998-1.998 1.998 1.998 1.002 0.00195-3-3zm6.8379 5.4824a0.86158 0.86158 0 0 1-0.0859 0.10547l-6.1485 6.1504a0.86158 0.86158 0 0 1-0.7129 0.2734 0.86158 0.86158 0 0 1-0.08203-0.0273 0.86158 0.86158 0 0 1-0.41211-0.2461l-6.1484-6.1504a0.86158 0.86158 0 0 1-0.08594-0.10156 0.86158 0.86158 0 0 0 0.08594 1.1016l6.1484 6.1504a0.86158 0.86158 0 0 0 0.41211 0.2461 0.86158 0.86158 0 0 0 0.08203 0.0273 0.86158 0.86158 0 0 0 0.7129-0.2734l6.1485-6.1504a0.86158 0.86158 0 0 0 0.0859-1.1055zm-9.8379 1.5176 1 1h1.1211v-1h-2.1211zm3.8789 0v1h1.1211l1-1h-2.1211z" fill="#fff" opacity=".2"/>
 <path id="path25" d="m8.0195 0.98438a0.86158 0.86158 0 0 0-0.62305 0.24804l-6.1484 6.1484a0.86158 0.86158 0 0 0-0.08594 1.1055 0.86158 0.86158 0 0 1 0.08594-0.10547l6.1484-6.1484a0.86158 0.86158 0 0 1 0.62305-0.24804 0.86158 0.86158 0 0 1 0.58399 0.24804l6.1485 6.1484a0.86158 0.86158 0 0 1 0.0859 0.10156 0.86158 0.86158 0 0 0-0.0859-1.1016l-6.1485-6.1484a0.86158 0.86158 0 0 0-0.58399-0.24804zm-0.89844 5.0098-1.1191 0.00391-1.002 1.002 2.1211-0.00586v-1zm1.7578 0v1l2.1211 0.00586-1.002-1.002-1.1191-0.00391zm-3.8789 5.0059 3 3 3-3h-1l-2 2-2-2h-1z" opacity=".3"/>
</svg>
