<?xml version="1.0" encoding="UTF-8"?>
<svg id="svg30" width="16" height="16" version="1.1" xmlns="http://www.w3.org/2000/svg" xmlns:cc="http://creativecommons.org/ns#" xmlns:dc="http://purl.org/dc/elements/1.1/" xmlns:rdf="http://www.w3.org/1999/02/22-rdf-syntax-ns#">
 <metadata id="metadata34">
  <rdf:RDF>
   <cc:Work rdf:about="">
    <dc:format>image/svg+xml</dc:format>
    <dc:type rdf:resource="http://purl.org/dc/dcmitype/StillImage"/>
   </cc:Work>
  </rdf:RDF>
 </metadata>
 <defs id="defs7">
  <radialGradient id="gr0" cx="9" cy="10" r="11" gradientTransform="matrix(1 0 0 .63636 0 3.6364)" gradientUnits="userSpaceOnUse">
   <stop id="stop2" stop-opacity=".23529" offset="0"/>
   <stop id="stop4" stop-opacity=".54902" offset="1"/>
  </radialGradient>
 </defs>
 <path id="path9" d="m8 1c-2.1408 0-4.1174 0.66438-5.5879 1.8848-1.4705 1.2204-2.4121 3.0293-2.4121 5.1152 0 2.086 0.94156 3.8949 2.4121 5.1152 1.4706 1.2204 3.4471 1.8848 5.5879 1.8848 1.0197 0 1.9502-0.2714 2.8418-0.5977l3.7852 1.5254a1 1.0001 0 0 0 1.3007-1.3027l-1.2461-3.084c0.7412-0.9999 1.3184-2.0686 1.3184-3.541 0-2.086-0.9416-3.8948-2.4121-5.1152-1.4706-1.2204-3.4471-1.8848-5.5879-1.8848zm0 1c3.866 0 7 2.4101 7 6 0 1.4856-0.5335 2.3425-1.4375 3.4375l1.4375 3.5625-4.0312-1.625c-0.904 0.395-1.9038 0.625-2.9688 0.625-3.866 0-7-2.41-7-6 0-3.5899 3.134-6 7-6zm0 2c-2.7614 0-5 1.7909-5 4 0 2.209 2.2386 4 5 4 2.761 0 5-1.791 5-4 0-2.2091-2.239-4-5-4zm0 1 3.5 3-3.5 2.9668v-1.9668h-3v-2h3v-2zm-1 0.1582v0.8418h-1.9375c0.49928-0.41689 1.1735-0.68814 1.9375-0.8418zm3.1992 0.41016c0.6069 0.31514 1.108 0.71628 1.4102 1.209l-1.4102-1.209zm1.4258 3.6387c-0.3109 0.51562-0.8406 0.93297-1.4824 1.2539l1.4824-1.2539zm-6.5625 0.79297h1.9375v0.8418c-0.764-0.1537-1.4382-0.4249-1.9375-0.8418z" fill="#fff" opacity=".05"/>
 <path id="base" d="m8 2c-3.866 0-7 2.4101-7 6 0 3.59 3.134 6 7 6 1.065 0 2.065-0.23 2.969-0.625l4.031 1.625-1.438-3.562c0.904-1.095 1.438-1.9524 1.438-3.438 0-3.5899-3.134-6-7-6zm0 2c2.761 0 5 1.7909 5 4 0 2.209-2.239 4-5 4-2.7614 0-5-1.791-5-4 0-2.2091 2.2386-4 5-4zm0 1v2h-3v2h3v1.967l3.5-2.967-3.5-3z" fill="url(#gr0)"/>
 <path id="path15" d="m8 2c-3.866 0-7 2.4101-7 6 0 3.59 3.134 6 7 6 1.065 0 2.0648-0.23 2.9688-0.625l4.0312 1.625-1.4375-3.5625c0.904-1.095 1.4375-1.9519 1.4375-3.4375 0-3.5899-3.134-6-7-6zm0 0.5c1.8291 0 3.466 0.57236 4.6309 1.5391 1.1648 0.9667 1.8691 2.3115 1.8691 3.9609 0 1.3658-0.4403 2.0484-1.3242 3.1191a0.50005 0.50005 0 0 0-0.0781 0.5059l0.998 2.4727-2.9395-1.1856a0.50005 0.50005 0 0 0-0.3867 0.0039c-0.84522 0.3694-1.7765 0.584-2.7695 0.584-1.8291 0-3.466-0.5724-4.6309-1.5391-1.1648-0.9666-1.8691-2.3114-1.8691-3.9609 0-1.6494 0.70429-2.9942 1.8691-3.9609s2.8018-1.5391 4.6309-1.5391zm0 1c-2.9776 0-5.5 1.9531-5.5 4.5 0 2.5468 2.5224 4.5 5.5 4.5 2.9772 0 5.5-1.9531 5.5-4.5 0-2.5469-2.5228-4.5-5.5-4.5zm0 0.5c2.761 0 5 1.7909 5 4 0 2.209-2.239 4-5 4-2.7614 0-5-1.791-5-4 0-2.2091 2.2386-4 5-4zm0 1v2h-3v2h3v1.9668l3.5-2.9668-3.5-3zm0.5 1.0879 2.2285 1.9102-2.2285 1.8887v-0.88672a0.50005 0.50005 0 0 0-0.5-0.5h-2.5v-1h2.5a0.50005 0.50005 0 0 0 0.5-0.5v-0.91211z" opacity=".3"/>
 <path id="path20" d="m8 4c-2.7614 0-5 1.7909-5 4 0 0.16987 0.01727 0.3357 0.04297 0.5 0.30845-1.9724 2.408-3.5 4.957-3.5 2.5487 0 4.6485 1.5276 4.957 3.5 0.0257-0.1643 0.043-0.33013 0.043-0.5 0-2.2091-2.239-4-5-4zm2.9141 4.498-2.9141 2.4688v1l3.5-2.9668-0.5859-0.50195zm-9.8868 0.00195c-0.01387 0.16497-0.02734 0.32958-0.02734 0.5 0 3.59 3.134 6 7 6 1.065 0 2.0648-0.23 2.9688-0.625l4.0312 1.625-0.4824-1.1934-3.5488-1.4316c-0.904 0.395-1.9038 0.625-2.9688 0.625-3.6825 0-6.6944-2.1898-6.9727-5.5zm13.947 0.03516c-0.1157 1.171-0.6224 1.9458-1.4121 2.9023l0.2637 0.6563c0.732-0.9388 1.1738-1.77 1.1738-3.0938 0-0.15844-0.0134-0.31111-0.0254-0.46484zm-9.9746 0.46484v1h3v-1h-3z" fill="#fff" opacity=".2"/>
 <path id="path25" d="m8 2c-3.866 0-7 2.4101-7 6 0 0.17043 0.01347 0.33502 0.02734 0.5 0.27828-3.3101 3.2902-5.5 6.9727-5.5 3.6954 0 6.7147 2.2055 6.9746 5.5352 0.0168-0.16957 0.0254-0.34725 0.0254-0.53516 0-3.5899-3.134-6-7-6zm0 3v1l2.9141 2.498 0.5859-0.49805-3.5-3zm-3 2v1h3v-1h-3zm-1.957 1.5c-0.0257 0.16431-0.04297 0.33012-0.04297 0.5 0 2.209 2.2386 4 5 4 2.761 0 5-1.791 5-4 0-0.16988-0.0173-0.33569-0.043-0.5-0.3085 1.9723-2.4083 3.5-4.957 3.5-2.549 0-4.6486-1.5277-4.957-3.5zm10.783 3.5938c-0.0895 0.1147-0.1653 0.2245-0.2637 0.3437l0.9551 2.3691 0.4824 0.1934-1.1738-2.9062z" opacity=".3"/>
</svg>
