<?xml version="1.0" encoding="UTF-8"?>
<svg id="svg30" width="16" height="16" version="1.1" xmlns="http://www.w3.org/2000/svg" xmlns:cc="http://creativecommons.org/ns#" xmlns:dc="http://purl.org/dc/elements/1.1/" xmlns:rdf="http://www.w3.org/1999/02/22-rdf-syntax-ns#">
 <metadata id="metadata34">
  <rdf:RDF>
   <cc:Work rdf:about="">
    <dc:format>image/svg+xml</dc:format>
    <dc:type rdf:resource="http://purl.org/dc/dcmitype/StillImage"/>
   </cc:Work>
  </rdf:RDF>
 </metadata>
 <defs id="defs7">
  <radialGradient id="gr0" cx="9" cy="10" r="11" gradientTransform="matrix(1 0 0 .72727 0 2.7273)" gradientUnits="userSpaceOnUse">
   <stop id="stop2" stop-opacity=".23529" offset="0"/>
   <stop id="stop4" stop-opacity=".54902" offset="1"/>
  </radialGradient>
 </defs>
 <path id="path9" d="m8 0c-1.0907-1.4572e-16 -2 0.9093-2 2v1c0 0.08163 0.01569 0.15813 0.02734 0.23633-0.0471-0.06325-0.09092-0.12803-0.14843-0.18555l-0.70703-0.70703c-0.38433-0.38452-0.90025-0.58789-1.4141-0.58789-0.51381 0-1.0297 0.20337-1.4141 0.58789-0.77131 0.77111-0.77131 2.057 0 2.8281l0.70703 0.70703c0.05674 0.05673 0.12135 0.09955 0.1836 0.14648-0.07752-0.01126-0.1536-0.02539-0.23438-0.02539h-1c-1.0907 0-2 0.9093-2 2-1.4572e-16 1.0907 0.9093 2 2 2h1c0.07954 0 0.15554-0.01529 0.23242-0.02539-0.0616 0.04719-0.12541 0.09019-0.18164 0.14649l-0.70703 0.707c-0.77051 0.7709-0.77051 2.0573 0 2.8281 0.77101 0.7717 2.0571 0.7718 2.8281 0l0.05273-0.0527c0.47062 1.3793 1.7448 2.3965 3.2754 2.3965h3c2.4734 0 4.5-2.0266 4.5-4.5 0-0.7896-0.2614-1.4955-0.623-2.1426a1 1.0001 0 0 0 0.3125-0.3164c0.1552-0.25188 0.3105-0.61313 0.3105-1.041 0-1.0907-0.9093-2-2-2h-1c-0.0894 0-0.1632 0.0251-0.2461 0.03711 0.0667-0.05041 0.1347-0.09761 0.1953-0.1582l0.707-0.70703c0.7717-0.77103 0.7718-2.0571 0-2.8281-0.3834-0.38339-0.9002-0.58789-1.414-0.58789s-1.0293 0.2033-1.4141 0.58789l-0.707 0.70703c-0.0579 0.05788-0.1 0.12445-0.14844 0.1875 0.01062-0.07903 0.02734-0.15597 0.02734-0.23828v-1c0-1.0907-0.9093-2-2-2zm0 1c0.554 0 1 0.446 1 1v1c0 0.554-0.446 1-1 1s-1-0.446-1-1v-1c0-0.554 0.446-1 1-1zm-4.2422 1.7559c0.2556 0 0.51123 0.09902 0.70703 0.29492l0.70704 0.70703c0.3917 0.3917 0.3917 1.0223 0 1.4141-0.3918 0.3917-1.0224 0.3917-1.4141 0l-0.70703-0.70704c-0.3918-0.3917-0.3918-1.0224 0-1.4141 0.1958-0.1959 0.45143-0.29492 0.70703-0.29492zm8.4844 0c0.256 0 0.511 0.09902 0.707 0.29492 0.392 0.3917 0.392 1.0224 0 1.4141l-0.707 0.70704c-0.392 0.3917-1.0221 0.3917-1.4141 0-0.392-0.3918-0.392-1.0224 0-1.4141l0.7071-0.70703c0.196-0.1959 0.452-0.29492 0.707-0.29492zm-5.8652 1.3184c0.05245 0.0734 0.10467 0.14736 0.16407 0.21484-0.04579 0.01803-0.08381 0.0448-0.12891 0.06446-0.00551-0.09344-0.01948-0.1867-0.03516-0.2793zm3.2109 0.08789c-0.01577 0.11908-0.02511 0.23876-0.02148 0.35937-0.07619-0.03518-0.15625-0.04964-0.23438-0.08007 0.09323-0.08592 0.17858-0.17973 0.25586-0.2793zm-1.5449 0.83789a3 3 0 0 1 2.8027 2.0547c-1.3596 0.2163-2.4745 1.0916-3.1445 2.248-0.6318 0.165-1.2045 0.47975-1.6641 0.90237a3 3 0 0 1-0.1582-4.3262 3 3 0 0 1 2.1641-0.87891zm-3.9492 1.3867c0.09327 0.01527 0.18715 0.02871 0.28125 0.0332-0.01932 0.04573-0.05657 0.08056-0.07422 0.12696-0.06513-0.05809-0.13614-0.10875-0.20703-0.16016zm7.7422 0.02734a1.0001 1.0001 0 0 0-0.1484 0.18164c-0.0237-0.06083-0.0884-0.09489-0.1152-0.15429 0.0884-0.00175 0.1759-0.01497 0.2636-0.02735zm-9.8359 0.58594h1c0.554 0 1 0.446 1 1s-0.446 1-1 1h-1c-0.554 0-1-0.446-1-1s0.446-1 1-1zm11 0h1c0.554 0 1 0.446 1 1 0 0.193-0.0681 0.36313-0.1621 0.51562-0.604-0.6748-1.3987-1.1689-2.3067-1.3848 0.142-0.0764 0.2958-0.13086 0.4688-0.13086zm-1.5 1c1.933 0 3.5 1.567 3.5 3.5s-1.567 3.5-3.5 3.5h-3c-1.3807 0-2.5-1.119-2.5-2.5 0-1.326 1.0386-2.3848 2.3438-2.4688 0.5546-1.2 1.7472-2.0312 3.1562-2.0312zm-7.1406 1.4277c0.01747 0.04386 0.01421 0.09349 0.0332 0.13672-0.07965 0.00317-0.15878 0.01577-0.23828 0.02735 0.06991-0.05255 0.1418-0.10398 0.20508-0.16407zm0.10546 1.1075c0.2557 0 0.51114 0.0969 0.70704 0.2929 0.07949 0.08 0.13238 0.1736 0.17968 0.2696-0.2031 0.391-0.32719 0.8276-0.34179 1.3066l-0.54493 0.5449c-0.3917 0.392-1.0224 0.392-1.4141 0-0.3918-0.392-0.3918-1.022 0-1.414l0.70703-0.7071c0.1959-0.196 0.45143-0.2929 0.70703-0.2929z" fill="#fff" opacity=".05"/>
 <path id="base" d="m8 1c-.554 0-1 .446-1 1v1c0 .554.446 1 1 1s1-.446 1-1v-1c0-.5540-.446-1-1-1zm-4.2422 1.7559c-.2556 0-.5112.0990-.7070.2949-.3918.3917-.3918 1.0223 0 1.414l.7070.7071c.3917.3917 1.0223.3917 1.4141 0 .3917-.3918.3917-1.0224 0-1.4141l-.7071-.7070c-.1958-.1959-.4514-.2949-.7070-.2949zm8.4842 0c-.255 0-.511.0990-.707.2949l-.707.7070c-.392.3917-.392 1.0223 0 1.4141.392.3917 1.022.3917 1.414 0l.707-.7071c.392-.3917.392-1.0223 0-1.414-.196-.1959-.451-.2949-.707-.2949zm-4.199 2.2441a3 3 0 0 0 -2.1641 .8789 3 3 0 0 0 .1582 4.3261c.4596-.4226 1.0323-.7373 1.6641-.9023 0.67-1.1564 1.7852-2.0317 3.1448-2.248a3 3 0 0 0 -2.803 -2.0547zm-6.043 2c-.554 0-1 .4460-1 1s.446 1 1 1h1c.554 0 1-.4460 1-1s-.446-1-1-1h-1zm11 0c-.173 0-.327.0545-.469.1309.908.2159 1.703.7099 2.307 1.3847.094-.1525.162-.3226.162-.5156 0-.5540-.446-1-1-1h-1zm-1.5 1c-1.409 0-2.6016.8310-3.1562 2.031-1.3052.084-2.3438 1.143-2.3438 2.469 0 1.381 1.1193 2.5 2.5 2.5h3c1.933 0 3.5-1.567 3.5-3.5s-1.567-3.5-3.5-3.5zm-7.0352 2.535c-.2556 0-.5111.097-.7070.293l-.7070.707c-.3918.392-.3918 1.022 0 1.414.3917.392 1.0223.392 1.414 0l.5450-.545c.0146-.479.1387-.915.3418-1.306-.0473-.096-.1002-.190-.1797-.270-.1959-.196-.4514-.293-.7071-.293z" fill="url(#gr0)"/>
 <path id="path15" d="m8 1c-0.554 0-1 0.446-1 1v1c0 0.554 0.446 1 1 1s1-0.446 1-1v-1c0-0.554-0.446-1-1-1zm0 0.5c0.28565 0 0.5 0.21435 0.5 0.5v1c0 0.28565-0.21435 0.5-0.5 0.5s-0.5-0.21435-0.5-0.5v-1c0-0.28565 0.21435-0.5 0.5-0.5zm-4.2422 1.2559c-0.2556 0-0.51123 0.09902-0.70703 0.29492-0.3918 0.3917-0.3918 1.0224 0 1.4141l0.70703 0.70704c0.3917 0.3917 1.0223 0.3917 1.4141 0 0.3917-0.3918 0.3917-1.0224 0-1.4141l-0.70704-0.70703c-0.1958-0.1959-0.45143-0.29492-0.70703-0.29492zm8.4844 0c-0.255 0-0.511 0.09902-0.707 0.29492l-0.7071 0.70703c-0.392 0.3917-0.392 1.0223 0 1.4141 0.392 0.3917 1.0221 0.3917 1.4141 0l0.707-0.70704c0.392-0.3917 0.392-1.0224 0-1.4141-0.196-0.1959-0.451-0.29492-0.707-0.29492zm-8.4844 0.5c0.12649 0 0.25198 0.04685 0.35352 0.14844l0.70703 0.70703c0.20197 0.20197 0.20204 0.50493 0 0.70703-0.2021 0.20204-0.50506 0.20197-0.70703 0l-0.70703-0.70703c-0.20205-0.202-0.20205-0.50504 0-0.70703 0.10153-0.10159 0.22702-0.14844 0.35351-0.14844zm8.4844 0c0.1271 0 0.2513 0.04628 0.3535 0.14844 0.2022 0.20204 0.2022 0.50498 0 0.70703l-0.707 0.70703c-0.2026 0.20237-0.5045 0.20237-0.7071 0-0.2022-0.20217-0.2022-0.50499 0-0.70703l0.7071-0.70703c0.1016-0.10156 0.2279-0.14844 0.3535-0.14844zm-4.1992 1.7441a3 3 0 0 0-2.1641 0.87891 3 3 0 0 0 0.1582 4.3262c0.4596-0.42262 1.0323-0.73737 1.6641-0.90237 0.67-1.1564 1.7849-2.0317 3.1445-2.248a3 3 0 0 0-2.8027-2.0547zm-0.00781 0.5c0.84211 0.01243 1.5632 0.55899 2.0078 1.2695-1.109 0.37079-2.0021 1.1432-2.6172 2.1074-0.47092 0.1412-0.89528 0.36932-1.2852 0.64649-0.34245-0.42031-0.58563-0.92453-0.60546-1.4668-0.02449-0.66973 0.23582-1.3439 0.70117-1.8262 0.47095-0.46946 1.1339-0.73984 1.7988-0.73047zm-6.0352 1.5c-0.554 0-1 0.446-1 1s0.446 1 1 1h1c0.554 0 1-0.446 1-1s-0.446-1-1-1h-1zm11 0c-0.173 0-0.3268 0.05446-0.4688 0.13086 0.908 0.2159 1.7027 0.70996 2.3067 1.3848 0.094-0.15249 0.1621-0.32262 0.1621-0.51562 0-0.554-0.446-1-1-1h-1zm-11 0.5h1c0.28565 0 0.5 0.21435 0.5 0.5s-0.21435 0.5-0.5 0.5h-1c-0.28565 0-0.5-0.21435-0.5-0.5s0.21435-0.5 0.5-0.5zm9.5 0.5c-1.409 0-2.6016 0.83125-3.1562 2.0312-1.3052 0.084-2.3438 1.1428-2.3438 2.4688 0 1.381 1.1193 2.5 2.5 2.5h3c1.933 0 3.5-1.567 3.5-3.5s-1.567-3.5-3.5-3.5zm0 0.5c1.6628 0 3 1.3372 3 3 0 1.6628-1.3372 3-3 3h-3c-1.1106 0-2-0.8892-2-2 0-1.0649 0.82162-1.9029 1.875-1.9707a0.50005 0.50005 0 0 0 0.42188-0.2891c0.47695-1.0319 1.4907-1.7402 2.7031-1.7402zm-7.0352 2.0352c-0.2556 0-0.51113 0.0969-0.70703 0.2929l-0.70703 0.7071c-0.3918 0.392-0.3918 1.022 0 1.414 0.3917 0.392 1.0224 0.392 1.4141 0l0.54493-0.5449c0.0146-0.479 0.13869-0.9156 0.34179-1.3066-0.0473-0.096-0.10019-0.1896-0.17968-0.2696-0.1959-0.196-0.45134-0.2929-0.70704-0.2929zm0 0.5c0.12925 0 0.25298 0.0458 0.35352 0.1464 0.00139 0.0015 0.0044 0.0082 0.00586 0.0098-0.12029 0.2941-0.20919 0.6042-0.2461 0.9375l-0.46679 0.4668c-0.20205 0.2022-0.50499 0.2022-0.70703 0-0.20245-0.2025-0.20245-0.5045 0-0.707l0.70703-0.7071c0.10054-0.1006 0.22441-0.1464 0.35351-0.1464z" opacity=".3"/>
 <path id="path20" d="m7 3v1c0 0.554 0.446 1 1 1s1-0.446 1-1v-1c0 0.554-0.446 1-1 1s-1-0.446-1-1zm-4.0859 1.2578c-0.2279 0.38377-0.19413 0.87627 0.13672 1.207l0.70703 0.70704c0.3917 0.3917 1.0223 0.3917 1.4141 0 0.33076-0.33085 0.36456-0.82327 0.13671-1.207-0.04197 0.07072-0.07578 0.14608-0.13671 0.20704-0.3918 0.3917-1.0224 0.3917-1.4141 0l-0.70703-0.70704c-0.06095-0.06093-0.09473-0.13633-0.13672-0.20703zm10.172 0c-0.042 0.0707-0.0757 0.1461-0.1367 0.20703l-0.707 0.70704c-0.392 0.3917-1.0221 0.3917-1.4141 0-0.061-0.06096-0.0947-0.13632-0.1367-0.20704-0.228 0.38377-0.1943 0.87619 0.1367 1.207 0.392 0.3917 1.0221 0.3917 1.4141 0l0.707-0.70704c0.331-0.33076 0.3648-0.82326 0.1367-1.207zm-2.7207 2.9043c-1.1412 0.32515-2.0748 1.1237-2.664 2.1406-0.6318 0.165-1.2045 0.47975-1.6641 0.90237a3 3 0 0 1-0.96094-1.7481 3 3 0 0 0 0.96094 2.7481c0.25357-0.2332 0.54407-0.4294 0.85742-0.5899 0.26621-0.2213 0.57622-0.391 0.91992-0.4882 0.67857-1.0672 1.7427-1.8673 3.0312-2.0723a3 3 0 0 0-0.4805-0.89258zm2.6348 0.83789c-0.173 0-0.3268 0.05446-0.4688 0.13086 0.908 0.2159 1.7027 0.70996 2.3067 1.3848 0.094-0.15249 0.1621-0.32262 0.1621-0.51562 0-0.18735-0.0654-0.35238-0.1543-0.50195-0.0033 0.00549-0.0045 0.01213-0.0078 0.01757-0.1409-0.15735-0.2945-0.30299-0.4551-0.43945-0.1178-0.04855-0.2471-0.07617-0.3828-0.07617h-1zm-11.848 0.5c-0.08807 0.14906-0.15234 0.31363-0.15234 0.5 0 0.554 0.446 1 1 1h1c0.554 0 1-0.446 1-1 0-0.18637-0.06427-0.35094-0.15234-0.5-0.17375 0.29403-0.48003 0.5-0.84766 0.5h-1c-0.36763 0-0.67391-0.20597-0.84766-0.5zm3.9473 3.2812c-0.04898 0.1997-0.08321 0.4055-0.08984 0.6231l-0.54493 0.5449c-0.3917 0.392-1.0224 0.392-1.4141 0-0.06122-0.0612-0.09658-0.136-0.13867-0.207-0.22668 0.3836-0.19166 0.8765 0.13867 1.207 0.3917 0.392 1.0224 0.392 1.4141 0l0.54493-0.5449c0.0146-0.479 0.13869-0.9156 0.34179-1.3066-0.0473-0.096-0.10019-0.1896-0.17968-0.2696-0.02117-0.0211-0.04979-0.028-0.07227-0.0469zm9.8496 0.2188c-0.2446 1.6939-1.6876 3-3.4492 3h-3c-1.2081 0-2.2161-0.8567-2.4492-1.9961-0.03279 0.1604-0.05078 0.3254-0.05078 0.4961 0 1.381 1.1193 2.5 2.5 2.5h3c1.933 0 3.5-1.567 3.5-3.5 0-0.1714-0.027-0.3352-0.0508-0.5z" fill="#fff" opacity=".2"/>
 <path id="path25" d="m8 1c-0.554 0-1 0.446-1 1v1c0-0.554 0.446-1 1-1s1 0.446 1 1v-1c0-0.554-0.446-1-1-1zm-4.2422 1.7559c-0.2556 0-0.51123 0.09902-0.70703 0.29492-0.33085 0.33076-0.36462 0.82327-0.13672 1.207 0.04199-0.0707 0.07577-0.14609 0.13672-0.20703 0.1958-0.1959 0.45143-0.29492 0.70703-0.29492s0.51123 0.09902 0.70703 0.29492l0.70704 0.70703c0.06093 0.06094 0.09474 0.13633 0.13671 0.20703 0.22785-0.38382 0.19405-0.87626-0.13671-1.207l-0.70704-0.70703c-0.1958-0.1959-0.45143-0.29492-0.70703-0.29492zm8.4844 0c-0.255 0-0.511 0.09902-0.707 0.29492l-0.7071 0.70703c-0.331 0.33077-0.3647 0.82321-0.1367 1.207 0.042-0.0707 0.0757-0.14609 0.1367-0.20703l0.7071-0.70703c0.196-0.1959 0.452-0.29492 0.707-0.29492 0.256 0 0.511 0.09902 0.707 0.29492 0.061 0.06094 0.0947 0.13633 0.1367 0.20703 0.2281-0.38376 0.1943-0.87627-0.1367-1.207-0.196-0.1959-0.451-0.29492-0.707-0.29492zm-4.1992 2.2441a3 3 0 0 0-2.1641 0.87891 3 3 0 0 0-0.80274 2.5781 3 3 0 0 1 0.80274-1.5781 3 3 0 0 1 2.1641-0.87891 3 3 0 0 1 2.3222 1.1621c0.1565-0.04459 0.3165-0.08134 0.4805-0.10742a3 3 0 0 0-2.8027-2.0547zm-6.043 2c-0.554 0-1 0.446-1 1 0 0.18637 0.06427 0.35094 0.15234 0.5 0.17375-0.29403 0.48003-0.5 0.84766-0.5h1c0.36763 0 0.67391 0.20597 0.84766 0.5 0.08807-0.14906 0.15234-0.31363 0.15234-0.5 0-0.554-0.446-1-1-1h-1zm11 0c-0.173 0-0.3268 0.05446-0.4688 0.13086 0.6963 0.16555 1.3234 0.49659 1.8516 0.94531 0.2004 0.08263 0.3533 0.23749 0.4629 0.42188 0.0888-0.14827 0.1543-0.31195 0.1543-0.49805 0-0.554-0.446-1-1-1h-1zm-1.5 1c-1.409 0-2.6016 0.83125-3.1562 2.0312-0.18336 0.0119-0.3586 0.0474-0.5293 0.0958-0.03743 0.0588-0.07825 0.1153-0.11328 0.1757-0.28322 0.074-0.55203 0.1822-0.80664 0.3125-0.54269 0.4513-0.89453 1.1202-0.89453 1.8848 0 0.1726 0.01748 0.3411 0.05078 0.5039 0.22189-1.0851 1.1558-1.8995 2.293-1.9727 0.5546-1.2 1.7472-2.0312 3.1562-2.0312 1.7616 0 3.2046 1.3061 3.4492 3 0.0238-0.1648 0.0508-0.3286 0.0508-0.5 0-1.933-1.567-3.5-3.5-3.5zm-7.0352 2.5352c-0.2556 0-0.51113 0.0969-0.70703 0.2929l-0.70703 0.7071c-0.33058 0.3307-0.36595 0.8233-0.13867 1.207 0.04218-0.0714 0.0772-0.1455 0.13867-0.207l0.70703-0.7071c0.1959-0.196 0.45143-0.2929 0.70703-0.2929 0.22808 0 0.44916 0.0903 0.63477 0.246 0.05882-0.2398 0.14113-0.4702 0.25195-0.6835-0.0473-0.096-0.10019-0.1896-0.17968-0.2696-0.1959-0.196-0.45134-0.2929-0.70704-0.2929z" opacity=".3"/>
</svg>
