<?xml version="1.0" encoding="UTF-8"?>
<svg id="svg30" width="16" height="16" version="1.1" xmlns="http://www.w3.org/2000/svg" xmlns:cc="http://creativecommons.org/ns#" xmlns:dc="http://purl.org/dc/elements/1.1/" xmlns:rdf="http://www.w3.org/1999/02/22-rdf-syntax-ns#">
 <metadata id="metadata34">
  <rdf:RDF>
   <cc:Work rdf:about="">
    <dc:format>image/svg+xml</dc:format>
    <dc:type rdf:resource="http://purl.org/dc/dcmitype/StillImage"/>
   </cc:Work>
  </rdf:RDF>
 </metadata>
 <defs id="defs7">
  <radialGradient id="gr0" cx="9" cy="10" r="11" gradientTransform="matrix(1 0 0 .72727 0 2.7273)" gradientUnits="userSpaceOnUse">
   <stop id="stop2" stop-opacity=".23529" offset="0"/>
   <stop id="stop4" stop-opacity=".54902" offset="1"/>
  </radialGradient>
 </defs>
 <path id="path9" d="m6.9629 0c-3.8303 0.022711-6.9629 3.1646-6.9629 7 4.2716e-17 1.1443 0.26526 2.2403 0.76953 3.2109a1 1.0001 0 0 0 0.042969 0.0762c-0.50259 0.602-0.8125 1.3702-0.8125 2.2129 0 1.9213 1.579 3.5 3.5 3.5h4 4c2.4734 0 4.5-2.0266 4.5-4.5 0-2.4437-1.9832-4.4344-4.416-4.4824-0.9373-1.1011-2.2389-1.8442-3.7715-1.9375a1.0001 1.0001 0 0 0-0.01172-0.16797c-0.03195-0.21063-0.05078-0.33305-0.05078-0.41211 0-0.61239 0.2192-1.1724 0.60352-1.668a1.0001 1.0001 0 0 0 0.00195-0.00391l0.9375-1.2187a1.0001 1.0001 0 0 0-0.79297-1.6094h-1.5312a1.0001 1.0001 0 0 0-0.00586 0zm0.00586 1h1.5312l-0.9375 1.2188c-0.5002 0.645-0.8125 1.4256-0.8125 2.2812 0 0.1954 0.0341 0.3753 0.0625 0.5625-0.5181 0.0678-1.0098 0.20005-1.4688 0.40625-0.0595-0.314-0.09375-0.63745-0.09375-0.96875 0-0.5994 0.1225-1.1554 0.3125-1.6875-1.776 0.6015-3.0625 2.2026-3.0625 4.1875 0 0.3924 0.06295 0.7627 0.15625 1.125-0.2069 0.4285-0.37395 0.86445-0.46875 1.3438-0.1867 0.082-0.35935 0.17525-0.53125 0.28125-0.4288-0.8254-0.65625-1.7586-0.65625-2.75 0-3.2928 2.68-5.9805 5.9688-6zm-2.6816 3.8887c0.01754 0.25898 0.02792 0.52128 0.07422 0.76563a1.0001 1.0001 0 0 0 0.13867 0.34961c-0.32467 0.21858-0.63741 0.43187-0.9082 0.71289 0.06251-0.70051 0.28044-1.3277 0.69531-1.8281zm3.2129 1.1113c1.578 0 2.947 0.80275 3.75 2.0312 0.083-0.0058 0.166-0.03125 0.25-0.03125 1.933 0 3.5 1.567 3.5 3.5s-1.567 3.5-3.5 3.5h-4-4c-1.3807 0-2.5-1.119-2.5-2.5 0-1.219 0.87715-2.2155 2.0312-2.4375 0.2226-2.2768 2.133-4.0625 4.4688-4.0625z" fill="#fff" opacity=".05"/>
 <path id="base" d="m6.9688 1c-3.2887.0195-5.9688 2.7072-5.9688 6 0 .9914.2274 1.9246.6562 2.75.1719-.106.3446-.199.5313-.281.0948-.4793.2618-.9155.4687-1.344-.0933-.3623-.1562-.7326-.1562-1.125 0-1.9849 1.2865-3.586 3.0625-4.1875-0.19.5321-.3125 1.0881-.3125 1.6875 0 .3313.0343.6548.0938.9688.4590-.2062.9506-.3385 1.4687-.4063-.0284-.1872-.0625-.3671-.0625-.5625 0-.8557.3123-1.6362.8125-2.2812l.9375-1.2188h-1.5312zm.5312 5c-2.3358 0-4.2462 1.7852-4.4688 4.062-1.1541.222-2.0312 1.219-2.0312 2.438 0 1.381 1.1193 2.5 2.5 2.5h4 4c1.933 0 3.5-1.567 3.5-3.5s-1.567-3.5-3.5-3.5c-.084 0-.167.0254-.250.0312-.803-1.2285-2.172-2.0312-3.75-2.0312z" fill="url(#gr0)"/>
 <path id="path15" d="m6.9688 1c-3.2887 0.0195-5.9688 2.7072-5.9688 6 0 0.9914 0.22745 1.9246 0.65625 2.75 0.1719-0.106 0.34455-0.19925 0.53125-0.28125 0.0948-0.4793 0.26185-0.91525 0.46875-1.3438-0.0933-0.3623-0.15625-0.7326-0.15625-1.125 0-1.9849 1.2865-3.586 3.0625-4.1875-0.19 0.5321-0.3125 1.0881-0.3125 1.6875 0 0.3313 0.03425 0.65475 0.09375 0.96875 0.459-0.2062 0.95065-0.33845 1.4688-0.40625-0.0284-0.1872-0.0625-0.3671-0.0625-0.5625 0-0.8557 0.3123-1.6362 0.8125-2.2812l0.9375-1.2188h-1.5312zm0 0.5h0.00391 0.51172l-0.31641 0.41211-0.00195 0.00195c-0.55722 0.71935-0.91602 1.6095-0.91602 2.5859 0 0.07934 0.01508 0.12834 0.02148 0.19922-0.16603 0.03536-0.327 0.0853-0.48828 0.13476-0.00855-0.11189-0.0332-0.22068-0.0332-0.33398 0-0.53128 0.10741-1.0272 0.2832-1.5195a0.50005 0.50005 0 0 0-0.63086-0.64063c-1.9618 0.66445-3.4023 2.4592-3.4023 4.6602 0 0.38317 0.06988 0.73338 0.14844 1.0742-0.11725 0.25583-0.19812 0.536-0.28321 0.81445-0.21626-0.59141-0.36523-1.2143-0.36523-1.8887 0-3.0202 2.4527-5.48 5.4688-5.5zm0.53125 4.5c-2.3358 0-4.2462 1.7857-4.4688 4.0625-1.1541 0.222-2.0312 1.2185-2.0312 2.4375 0 1.381 1.1193 2.5 2.5 2.5h4 4c1.933 0 3.5-1.567 3.5-3.5s-1.567-3.5-3.5-3.5c-0.084 0-0.167 0.02545-0.25 0.03125-0.803-1.2285-2.172-2.0312-3.75-2.0312zm0 0.5c1.4084 0 2.6169 0.71054 3.332 1.8047a0.50005 0.50005 0 0 0 0.4532 0.22461c0.1611-0.01126 0.2316-0.0293 0.2148-0.0293 1.6628 0 3 1.3372 3 3 0 1.6628-1.3372 3-3 3h-4-4c-1.1106 0-2-0.8892-2-2 0-0.9792 0.69744-1.7688 1.625-1.9473a0.50005 0.50005 0 0 0 0.4043-0.4414c0.1981-2.0262 1.8897-3.6113 3.9707-3.6113z" opacity=".3"/>
 <path id="path20" d="m7.7305 2-0.16797 0.21875c-0.5002 0.645-0.8125 1.4256-0.8125 2.2812 0 0.15608 0.02755 0.3013 0.05078 0.44922 0.10238-0.63969 0.3714-1.2272 0.76172-1.7305l0.9375-1.2188h-0.76953zm-2.168 0.8125c-1.776 0.6015-3.0625 2.2026-3.0625 4.1875 0 0.17752 0.01633 0.34975 0.03906 0.51953 0.18021-1.6626 1.2714-2.9928 2.7676-3.5996 0.05039-0.38155 0.12926-0.75286 0.25586-1.1074zm-0.26367 2.1934c-0.01854 0.16382-0.04883 0.32375-0.04883 0.49414 0 0.3313 0.03425 0.65475 0.09375 0.96875 0.3641-0.16357 0.75417-0.26849 1.1562-0.34375 0.09185-0.02104 0.18342-0.03939 0.27734-0.05469 0.01208-0.00165 0.02306-0.00623 0.03516-0.00781-0.0284-0.1872-0.0625-0.3671-0.0625-0.5625 0-0.14794 0.02103-0.29046 0.03906-0.43359-0.50931 0.06871-0.99338 0.19932-1.4453 0.40234-0.02843-0.15004-0.02899-0.3087-0.04492-0.46289zm-4.2715 2.4609c-0.01569 0.17612-0.02734 0.35312-0.02734 0.5332 0 0.9914 0.22745 1.9246 0.65625 2.75 0.05746-0.0354 0.1196-0.0611 0.17773-0.0938 0.11764-0.1044 0.24286-0.2 0.37891-0.2812 0.09736-0.44157 0.25047-0.85051 0.44336-1.25-0.05934-0.23044-0.09862-0.46649-0.125-0.70703-0.14525 0.33629-0.27025 0.67917-0.34375 1.0508-0.1867 0.082-0.35935 0.17525-0.53125 0.28125-0.36048-0.69389-0.56854-1.4664-0.62891-2.2832zm13.922 4.5332c-0.2446 1.6939-1.6876 3-3.4492 3h-4-4c-1.2066 0-2.2125-0.855-2.4473-1.9922-0.03231 0.1595-0.05273 0.3227-0.05273 0.4922 0 1.381 1.1193 2.5 2.5 2.5h4 4c1.933 0 3.5-1.567 3.5-3.5 0-0.1714-0.027-0.3352-0.0508-0.5z" fill="#fff" opacity=".2"/>
 <path id="path25" d="m6.9688 1c-3.2887 0.0195-5.9688 2.7072-5.9688 6 0 0.15796 0.0159 0.31199 0.02734 0.4668 0.27125-3.0443 2.8326-5.4484 5.9414-5.4668h0.76172l0.76953-1h-1.5312zm-1.4062 2.8125c-0.08854 0.02999-0.16985 0.07254-0.25586 0.10742-0.02523 0.19106-0.05664 0.38008-0.05664 0.58008 0 0.17299 0.03142 0.33736 0.04883 0.50586 0.04666-0.41248 0.12768-0.81252 0.26367-1.1934zm1.2383 1.1367c-0.00613 0.03834-0.00684 0.07847-0.01172 0.11719 0.00797-0.00108 0.01546-0.00287 0.02344-0.00391-0.00571-0.03767-0.00587-0.07602-0.01172-0.11328zm0.69922 1.0508c-0.24724 0-0.48645 0.03185-0.72266 0.07031-0.09479 0.01299-0.18438 0.03729-0.27734 0.05469-1.8595 0.42593-3.2791 1.9975-3.4688 3.9375-0.29425 0.0566-0.57007 0.1643-0.81836 0.3125-0.00707 0.0321-0.01897 0.0613-0.02539 0.0938-0.12429 0.0545-0.23774 0.1225-0.35352 0.1874-0.50967 0.4526-0.83398 1.1059-0.83398 1.8438 0 0.1741 0.01886 0.3437 0.05273 0.5078 0.20005-0.9871 0.98493-1.7542 1.9785-1.9453 0.2226-2.2768 2.133-4.0625 4.4688-4.0625 1.578 0 2.947 0.80275 3.75 2.0312 0.083-0.0058 0.166-0.03125 0.25-0.03125 1.7616 0 3.2046 1.3061 3.4492 3 0.0238-0.1648 0.0508-0.3286 0.0508-0.5 0-1.933-1.567-3.5-3.5-3.5-0.084 0-0.167 0.02545-0.25 0.03125-0.803-1.2285-2.172-2.0312-3.75-2.0312zm-4.9609 1.5195c-0.01722 0.1589-0.03906 0.31595-0.03906 0.48047 0 0.14281 0.01615 0.28033 0.03125 0.41797 0.04209-0.09745 0.07852-0.1967 0.125-0.29297-0.05109-0.1984-0.08966-0.39996-0.11719-0.60547z" opacity=".3"/>
</svg>
