<?xml version="1.0" encoding="UTF-8"?>
<svg id="svg36" width="16" height="16" version="1.1" xmlns="http://www.w3.org/2000/svg" xmlns:cc="http://creativecommons.org/ns#" xmlns:dc="http://purl.org/dc/elements/1.1/" xmlns:rdf="http://www.w3.org/1999/02/22-rdf-syntax-ns#">
 <metadata id="metadata40">
  <rdf:RDF>
   <cc:Work rdf:about="">
    <dc:format>image/svg+xml</dc:format>
    <dc:type rdf:resource="http://purl.org/dc/dcmitype/StillImage"/>
   </cc:Work>
  </rdf:RDF>
 </metadata>
 <defs id="defs7">
  <radialGradient id="gr0" cx="9" cy="10" r="11" gradientTransform="matrix(1 0 0 .72727 0 2.7273)" gradientUnits="userSpaceOnUse">
   <stop id="stop2" stop-opacity=".23529" offset="0"/>
   <stop id="stop4" stop-opacity=".54902" offset="1"/>
  </radialGradient>
 </defs>
 <path id="path9" d="m7.227 0c-0.645 0-1.247 0.1705-1.743 0.5137-0.495 0.3432-0.916 0.9263-0.916 1.6323a1 1 0 0 0 0 0.127c0.03 0.253 0.154 0.372 0.217 0.532h-1.773c-1.101 0-2.0198 0.915-2.0198 2.017v2.582a1 1 0 0 0 0.5368 0.885c0.596 0.312 1.418 0.133 2.088-0.375a1 1 0 0 0 0.01-0.01c-0.02 0.01 0.02-0.01 0.01 0 0 0.01-0.02-0.01 0 0.02 0.07 0.104 0.16 0.332 0.16 0.603 0 0.268-0.091 0.496-0.16 0.602-0.05-0.03-0.091-0.05-0.149-0.08l0.121 0.08c-0.67-0.501-1.474-0.673-2.062-0.381a1 1 0 0 0-0.5568 0.897v3.345c0 1.1 0.9258 2.02 2.0218 2.02h4.109a1 1 0 0 0 0.887-0.54c0.315-0.59 0.131-1.41-0.377-2.08h0.01c0.104-0.1 0.329-0.16 0.601-0.16 0.27 0 0.499 0.1 0.604 0.16-0.03 0.1-0.05 0.1-0.09 0.16l0.09-0.14c-0.504 0.67-0.681 1.48-0.381 2.07a1 1 0 0 0 0.89 0.55h1.825c1.1 0 2.02-0.91 2.02-2.02v-1.52c0.17 0.1 0.26 0.21 0.6 0.23 0.71 0 1.3-0.43 1.64-0.92 0.34-0.5 0.51-1.099 0.51-1.741 0-0.643-0.17-1.244-0.51-1.741-0.35-0.497-0.93-0.916-1.64-0.916a1 1 0 0 0-0.13 0c-0.25 0.03-0.37 0.155-0.52 0.215v-1.771c0-1.108-0.92-2.02-2.02-2.02h-1.464c0.07-0.154 0.159-0.305 0.164-0.64a1 1 0 0 0 0-0.02c0-0.707-0.422-1.2918-0.918-1.6348-0.34-0.2352-0.774-0.2779-1.193-0.3515a1 1 0 0 0-0.545-0.16212l0.053-0.01758zm0 1-2e-3 2e-3c0.915 0 1.658 0.512 1.658 1.146-3e-3 0.194-0.176 0.49-0.256 0.637-0.386 0.51-0.385 0.829-0.285 1.02h2.838c0.56 0 1.02 0.454 1.02 1.019v3.09c0.19 0.095 0.51 0.097 1.02-0.285 0.1-0.079 0.4-0.226 0.63-0.256 0.64 0 1.15 0.741 1.15 1.656 0 0.91-0.51 1.661-1.15 1.661-0.19-0.01-0.49-0.16-0.63-0.26-0.51-0.39-0.83-0.39-1.02-0.29v2.84c0 0.57-0.46 1.02-1.02 1.02h-1.821c-0.096-0.19-0.096-0.51 0.287-1.02 0.078-0.15 0.256-0.44 0.256-0.64 0-0.63-0.743-1.14-1.658-1.14s-1.656 0.51-1.656 1.14c0.027 0.24 0.176 0.54 0.256 0.64 0.387 0.51 0.387 0.83 0.287 1.02h-4.111c-0.565 0-1.02-0.45-1.02-1.02v-3.345c0.191-0.095 0.51-0.096 1.02 0.285 0.147 0.08 0.441 0.26 0.636 0.26 0.633 0 1.149-0.745 1.149-1.66s-0.516-1.659-1.149-1.659c-0.236 0.027-0.534 0.176-0.636 0.256-0.51 0.387-0.829 0.387-1.02 0.287v-2.582c0-0.565 0.455-1.017 1.02-1.017h3.089c0.096-0.191 0.097-0.512-0.285-1.022-0.079-0.102-0.226-0.401-0.256-0.637 0-0.633 0.743-1.146 1.659-1.146z" fill="#fff" opacity=".05"/>
 <path id="base" d="m7.226 1c-0.916 0-1.657 0.514-1.657 1.147 0.03 0.236 0.176 0.535 0.255 0.637 0.382 0.51 0.382 0.829 0.286 1.02h-3.09c-0.565 0-1.02 0.454-1.02 1.019v2.581c0.191 0.1 0.51 0.1 1.02-0.287 0.102-0.08 0.401-0.228 0.637-0.255 0.633 0 1.147 0.742 1.147 1.657s-0.514 1.661-1.147 1.661c-0.195 0-0.49-0.18-0.637-0.26-0.51-0.381-0.829-0.381-1.02-0.286v3.346c0 0.57 0.455 1.02 1.02 1.02h4.11c0.1-0.19 0.1-0.51-0.287-1.02-0.08-0.1-0.228-0.4-0.255-0.64 0-0.63 0.742-1.14 1.657-1.14s1.657 0.51 1.657 1.14c0 0.2-0.177 0.49-0.255 0.64-0.383 0.51-0.383 0.83-0.287 1.02h1.82c0.56 0 1.02-0.45 1.02-1.02v-2.84c0.19-0.1 0.51-0.1 1.02 0.29 0.14 0.1 0.44 0.25 0.63 0.26 0.64 0 1.15-0.75 1.15-1.66 0-0.915-0.51-1.657-1.15-1.657-0.23 0.03-0.53 0.176-0.63 0.255-0.51 0.382-0.83 0.382-1.02 0.287v-3.091c0-0.565-0.46-1.02-1.02-1.02h-2.839c-0.1-0.191-0.1-0.509 0.286-1.019 0.08-0.147 0.252-0.443 0.255-0.637 0-0.634-0.742-1.147-1.657-1.147z" fill="url(#gr0)"/>
 <path id="path17" d="m7.227 1c-0.916 0-1.659 0.513-1.659 1.146 0.03 0.236 0.177 0.535 0.256 0.637 0.382 0.51 0.381 0.831 0.285 1.022h-3.089c-0.565 0-1.02 0.452-1.02 1.017v2.582c0.191 0.1 0.51 0.1 1.02-0.287 0.102-0.08 0.4-0.229 0.636-0.256 0.633 0 1.149 0.744 1.149 1.659s-0.516 1.66-1.149 1.66c-0.195 0-0.489-0.18-0.636-0.26-0.51-0.381-0.829-0.38-1.02-0.285v3.345c0 0.57 0.455 1.02 1.02 1.02h4.111c0.1-0.19 0.1-0.51-0.287-1.02-0.08-0.1-0.229-0.4-0.256-0.64 0-0.63 0.741-1.14 1.656-1.14s1.658 0.51 1.658 1.14c0 0.2-0.178 0.49-0.256 0.64-0.383 0.51-0.383 0.83-0.287 1.02h1.821c0.56 0 1.02-0.45 1.02-1.02v-2.84c0.19-0.1 0.51-0.1 1.02 0.29 0.14 0.1 0.44 0.25 0.63 0.26 0.64 0 1.15-0.751 1.15-1.661 0-0.915-0.51-1.656-1.15-1.656-0.23 0.03-0.53 0.177-0.63 0.256-0.51 0.382-0.83 0.38-1.02 0.285v-3.09c0-0.565-0.46-1.019-1.02-1.019h-2.838c-0.1-0.191-0.101-0.51 0.285-1.02 0.08-0.147 0.253-0.443 0.256-0.637 0-0.634-0.743-1.146-1.658-1.146l2e-3 -2e-3zm-6e-3 0.502 0.054 0.021c0.364 0 0.685 0.107 0.887 0.247 0.2 0.139 0.27 0.277 0.27 0.398 0-0.033-9e-3 0.039-0.049 0.129-0.04 0.091-0.101 0.191-0.141 0.271-0.405 0.566-0.488 1.111-0.291 1.489a0.5 0.5 0 0 0 0.445 0.269h2.834c0.29 0 0.52 0.227 0.52 0.52v3.09a0.5 0.5 0 0 0 0.28 0.447c0.39 0.196 0.95 0.109 1.54-0.334-0.04 0.032 0.22-0.093 0.34-0.133 0.12 6e-3 0.25 0.064 0.38 0.256 0.14 0.201 0.25 0.523 0.25 0.887 0 0.362-0.11 0.685-0.25 0.888-0.13 0.163-0.27 0.263-0.39 0.263 0.01-0.01-0.25-0.16-0.35-0.16-0.59-0.449-1.16-0.54-1.55-0.333a0.5 0.5 0 0 0-0.27 0.443v2.84c0 0.3-0.23 0.52-0.52 0.52h-1.237c0.017-0.07-0.035-0.03 0.107-0.22a0.5 0.5 0 0 0 0-0.1c0.03-0.05 0.07-0.18 0.17-0.32 0.04-0.14 0.14-0.3 0.14-0.55 0-0.51-0.3-0.95-0.697-1.22-0.398-0.27-0.904-0.42-1.455-0.42-0.55 0-1.057 0.15-1.455 0.42s-0.701 0.71-0.701 1.22a0.5 0.5 0 0 0 0 0.1c0.044 0.39 0.164 0.65 0.361 0.89 0.15 0.22 0.09 0.12 0.11 0.22h-3.535c-0.3 0-0.52-0.22-0.52-0.52v-2.77c0.075 0.01 0.03-0.03 0.221 0.11a0.5 0.5 0 0 0 0.06 0c0.059 0.03 0.183 0.07 0.326 0.17 0.144 0.05 0.298 0.15 0.549 0.15 0.513 0 0.948-0.3 1.223-0.703 0.275-0.399 0.426-0.906 0.426-1.457 0-0.552-0.151-1.061-0.426-1.459-0.275-0.396-0.711-0.702-1.223-0.702a0.5 0.5 0 0 0-0.06 0c-0.394 0.045-0.649 0.172-0.889 0.36-0.181 0.135-0.141 0.083-0.211 0.103v-2.006c0-0.296 0.222-0.515 0.52-0.515h3.09a0.5 0.5 0 0 0 0.447-0.278c0.196-0.39 0.11-0.954-0.332-1.544 0.025 0.032-0.097-0.231-0.137-0.352 7e-3 -0.117 0.064-0.246 0.256-0.379 0.2-0.139 0.521-0.245 0.883-0.246z" opacity=".3"/>
 <path id="path24" d="m8.703 2.639c-0.027 0.05-0.057 0.11-0.076 0.146-0.386 0.51-0.385 0.829-0.285 1.02h0.273c5e-3 -7e-3 7e-3 -0.013 0.012-0.02 0.08-0.147 0.253-0.443 0.256-0.637 0-0.183-0.069-0.355-0.18-0.509zm-2.957 2e-3c-0.11 0.153-0.178 0.323-0.178 0.505 0.03 0.236 0.177 0.535 0.256 0.637 6e-3 8e-3 8e-3 0.014 0.014 0.022h0.271c0.096-0.191 0.097-0.512-0.285-1.022-0.021-0.027-0.051-0.092-0.078-0.142zm-2.09 4.22c-0.236 0.027-0.534 0.176-0.636 0.256-0.51 0.387-0.829 0.387-1.02 0.287v1c0.191 0.1 0.51 0.1 1.02-0.287 0.102-0.08 0.4-0.229 0.636-0.256 0.51 0 0.929 0.492 1.078 1.159 0.036-0.161 0.071-0.324 0.071-0.5 0-0.915-0.516-1.659-1.149-1.659zm11.274 2.668c-0.15 0.661-0.56 1.161-1.08 1.161-0.19-0.01-0.49-0.16-0.63-0.26-0.51-0.39-0.83-0.39-1.02-0.29v1c0.19-0.1 0.51-0.1 1.02 0.29 0.14 0.1 0.44 0.25 0.63 0.26 0.64 0 1.15-0.75 1.15-1.66 0-0.178-0.03-0.34-0.07-0.501zm-6.686 1.671c-0.915 0-1.656 0.51-1.656 1.14 0.02 0.18 0.102 0.36 0.178 0.5 0.27-0.38 0.827-0.64 1.478-0.64 0.65 0 1.207 0.26 1.479 0.63 0.083-0.15 0.179-0.34 0.179-0.49 0-0.63-0.743-1.14-1.658-1.14zm-6.244 1.78v1c0 0.57 0.455 1.02 1.02 1.02h4.111c0.098-0.19 0.096-0.5-0.276-1h-3.835c-0.565 0-1.02-0.45-1.02-1.02zm10.2 0c0 0.57-0.46 1.02-1.02 1.02h-1.545c-0.368 0.5-0.37 0.81-0.276 1h1.821c0.56 0 1.02-0.45 1.02-1.02v-1z" fill="#fff" opacity=".2"/>
 <path id="path31" d="m7.227 1c-0.916 0-1.659 0.513-1.659 1.146 0.022 0.174 0.103 0.356 0.178 0.495 0.271-0.378 0.829-0.641 1.481-0.641l-2e-3 2e-3c0.649 0 1.207 0.26 1.478 0.637 0.083-0.155 0.178-0.344 0.18-0.491 0-0.634-0.743-1.146-1.658-1.146l2e-3 -2e-3zm-4.207 2.805c-0.565 0-1.02 0.452-1.02 1.017v1c0-0.565 0.455-1.017 1.02-1.017h3.089c0.095-0.188 0.093-0.504-0.271-1h-2.818zm5.595 0c-0.37 0.497-0.372 0.811-0.273 1h2.838c0.56 0 1.02 0.454 1.02 1.019v-1c0-0.565-0.46-1.019-1.02-1.019h-2.565zm5.235 3.568c-0.23 0.03-0.53 0.177-0.63 0.256-0.51 0.382-0.83 0.38-1.02 0.285v1c0.19 0.095 0.51 0.097 1.02-0.285 0.1-0.079 0.4-0.226 0.63-0.256 0.52 0 0.93 0.49 1.08 1.156 0.04-0.16 0.07-0.323 0.07-0.5 0-0.915-0.51-1.656-1.15-1.656zm-9.116 1.647c-0.148 0.667-0.567 1.16-1.078 1.16-0.195 0-0.489-0.18-0.636-0.26-0.51-0.381-0.829-0.38-1.02-0.285v0.995c0.191-0.09 0.51-0.09 1.02 0.29 0.147 0.08 0.441 0.26 0.636 0.26 0.633 0 1.149-0.75 1.149-1.66 0-0.178-0.035-0.34-0.071-0.5zm4.989 3.82c-0.027 0.04-0.058 0.1-0.077 0.14-0.383 0.51-0.383 0.83-0.287 1.02h0.276c5e-3 -0.01 6e-3 -0.01 0.011-0.02 0.078-0.15 0.256-0.44 0.256-0.64 0-0.18-0.069-0.35-0.179-0.5zm-2.957 0c-0.11 0.15-0.178 0.32-0.178 0.5 0.027 0.24 0.176 0.54 0.256 0.64 5e-3 0.01 6e-3 0.01 0.011 0.02h0.276c0.1-0.19 0.1-0.51-0.287-1.02-0.022-0.03-0.051-0.09-0.078-0.14z" opacity=".3"/>
</svg>
