<?xml version="1.0" encoding="UTF-8"?>
<svg id="svg2408" width="96" height="96" version="1.0" xmlns="http://www.w3.org/2000/svg" xmlns:cc="http://creativecommons.org/ns#" xmlns:dc="http://purl.org/dc/elements/1.1/" xmlns:rdf="http://www.w3.org/1999/02/22-rdf-syntax-ns#" xmlns:xlink="http://www.w3.org/1999/xlink">
 <defs id="defs2410">
  <linearGradient id="ButtonShadow" x1="45.448" x2="45.448" y1="92.54" y2="7.0165" gradientTransform="scale(1.0059 .99417)" gradientUnits="userSpaceOnUse">
   <stop id="stop3750" offset="0"/>
   <stop id="stop3752" stop-opacity=".58824" offset="1"/>
  </linearGradient>
  <linearGradient id="linearGradient3737">
   <stop id="stop3739" stop-color="#fff" offset="0"/>
   <stop id="stop3741" stop-color="#fff" stop-opacity="0" offset="1"/>
  </linearGradient>
  <filter id="filter3174" color-interpolation-filters="sRGB">
   <feGaussianBlur id="feGaussianBlur3176" stdDeviation="1.71"/>
  </filter>
  <linearGradient id="linearGradient3188" x1="36.357" x2="36.357" y1="6" y2="63.893" gradientUnits="userSpaceOnUse" xlink:href="#linearGradient3737"/>
  <radialGradient id="radialGradient3619" cx="48" cy="90.172" r="42" gradientTransform="matrix(1.1573 0 0 .99591 -7.551 .19713)" gradientUnits="userSpaceOnUse" xlink:href="#linearGradient3737"/>
  <linearGradient id="linearGradient2843" x1="48" x2="48" y1="90" y2="5.9877" gradientTransform="translate(0,100)" gradientUnits="userSpaceOnUse">
   <stop id="stop3702" stop-color="#2276c5" offset="0"/>
   <stop id="stop3704" stop-color="#68baf4" offset="1"/>
  </linearGradient>
  <clipPath id="clipPath3625">
   <path id="path3627" d="m0 0v96h96v-96h-96zm12 6h72c3.324 0 6 2.676 6 6v72c0 3.324-2.676 6-6 6h-72c-3.324 0-6-2.676-6-6v-72c0-3.324 2.676-6 6-6z" fill="#fff"/>
  </clipPath>
  <linearGradient id="linearGradient3643" x1="44.512" x2="44.512" y1="6" y2="90.015" gradientUnits="userSpaceOnUse">
   <stop id="stop3639" stop-color="#f0f0f0" offset="0"/>
   <stop id="stop3641" stop-color="#dcdcdc" offset="1"/>
  </linearGradient>
  <clipPath id="clipPath3649">
   <rect id="rect3651" x="10" y="10" width="76" height="76" rx="4" ry="4" fill="#fff"/>
  </clipPath>
  <filter id="filter3657" color-interpolation-filters="sRGB">
   <feGaussianBlur id="feGaussianBlur3659" stdDeviation="1.14"/>
  </filter>
  <linearGradient id="linearGradient2869" x1="18.449" x2="18.449" y1="17.478" y2=".92195" gradientTransform="matrix(2.4659 0 0 2.8992 10.507 21.327)" gradientUnits="userSpaceOnUse">
   <stop id="stop4083" stop-color="#aaa" offset="0"/>
   <stop id="stop4085" stop-color="#f0f0f0" offset="1"/>
  </linearGradient>
  <linearGradient id="ButtonShadow-0" x1="45.448" x2="45.448" y1="92.54" y2="7.0165" gradientTransform="matrix(1.0059 0 0 .99417 100 0)" gradientUnits="userSpaceOnUse">
   <stop id="stop3750-8" offset="0"/>
   <stop id="stop3752-5" stop-opacity=".58824" offset="1"/>
  </linearGradient>
  <linearGradient id="linearGradient3780" x1="32.251" x2="32.251" y1="6.1317" y2="90.239" gradientTransform="matrix(1.0238 0 0 -1.0119 -1.1429 98.071)" gradientUnits="userSpaceOnUse" xlink:href="#ButtonShadow-0"/>
  <linearGradient id="linearGradient3721-6" x1="32.251" x2="32.251" y1="6.1317" y2="90.239" gradientTransform="matrix(1,0,0,-1,0,97)" gradientUnits="userSpaceOnUse" xlink:href="#ButtonShadow-0"/>
  <radialGradient id="radialGradient3619-3" cx="48" cy="90.172" r="42" gradientTransform="matrix(1.1573 0 0 .99591 -7.551 .19713)" gradientUnits="userSpaceOnUse" xlink:href="#linearGradient3737"/>
 </defs>
 <metadata id="metadata2413">
  <rdf:RDF>
   <cc:Work rdf:about="">
    <dc:format>image/svg+xml</dc:format>
    <dc:type rdf:resource="http://purl.org/dc/dcmitype/StillImage"/>
   </cc:Work>
  </rdf:RDF>
 </metadata>
 <g id="layer2" display="none">
  <rect id="rect3745" x="5" y="7" width="86" height="85" rx="6" ry="6" clip-path="url(#clipPath3625)" fill="url(#ButtonShadow)" filter="url(#filter3174)" opacity=".9"/>
 </g>
 <g id="layer6">
  <path id="path3786" d="m12 3.9688c-5.5111 0-10.031 4.5202-10.031 10.031v71c0 5.5111 4.5202 10.031 10.031 10.031h72c5.5111 0 10.031-4.5202 10.031-10.031v-71c0-5.5111-4.5202-10.031-10.031-10.031h-72zm0 2.0312h72c3.324 0 6 2.676 6 6v72c0 3.324-2.676 6-6 6h-72c-3.324 0-6-2.676-6-6v-72c0-3.324 2.676-6 6-6z" fill="url(#linearGradient3780)" opacity=".08"/>
  <path id="path3778" d="m12 4.9688c-4.9716 0-9.0312 4.0596-9.0312 9.0312v71c0 4.9716 4.0596 9.0312 9.0312 9.0312h72c4.9716 0 9.0312-4.0596 9.0312-9.0312v-71c0-4.9716-4.0596-9.0312-9.0312-9.0312h-72zm0 1.0312h72c3.324 0 6 2.676 6 6v72c0 3.324-2.676 6-6 6h-72c-3.324 0-6-2.676-6-6v-72c0-3.324 2.676-6 6-6z" fill="url(#linearGradient3780)" opacity=".1"/>
  <path id="path3770" d="m11.188 6.0312c-4.0275 0.41065-7.1875 3.8352-7.1875 7.9688v71c0 4.4091 3.5909 8 8 8h72c4.4091 0 8-3.5909 8-8v-71c0-4.1971-3.259-7.646-7.375-7.9688 3.0329 0.30617 5.375 2.8525 5.375 5.9688v72c0 3.324-2.676 6-6 6h-72c-3.324 0-6-2.676-6-6v-72c0-3.1162 2.3421-5.6626 5.375-5.9688-0.06227 0.00488-0.12563-0.00631-0.1875 0z" fill="url(#linearGradient3780)" opacity=".2"/>
  <path id="rect3723" d="m6.4375 9.75c-0.89949 1.1774-1.4375 2.6473-1.4375 4.25v71c0 3.878 3.122 7 7 7h72c3.878 0 7-3.122 7-7v-71c0-1.6027-0.53801-3.0726-1.4375-4.25 0.27932 0.6941 0.4375 1.4536 0.4375 2.25v72c0 3.324-2.676 6-6 6h-72c-3.324 0-6-2.676-6-6v-72c0-0.79638 0.15818-1.5559 0.4375-2.25z" fill="url(#linearGradient3780)" opacity=".3"/>
  <path id="rect3716" d="m6 84v1c0 3.324 2.676 6 6 6h72c3.324 0 6-2.676 6-6v-1c0 3.324-2.676 6-6 6h-72c-3.324 0-6-2.676-6-6z" fill="url(#linearGradient3721-6)" opacity=".45"/>
 </g>
 <g id="layer1" display="none">
  <rect id="rect2419" x="6" y="6" width="84" height="84" rx="6" ry="6" opacity=".7"/>
  <path id="rect3726" d="m14 10c-2.216 0-4 1.784-4 4v68c0 2.216 1.784 4 4 4h68c2.216 0 4-1.784 4-4v-68c0-2.216-1.784-4-4-4h-68zm0 3.0625h68c0.57877 0 0.9375 0.35873 0.9375 0.9375v68c0 0.57877-0.35873 0.9375-0.9375 0.9375h-68c-0.57877 0-0.9375-0.35873-0.9375-0.9375v-68c0-0.57877 0.35873-0.9375 0.9375-0.9375z" opacity=".08"/>
  <path id="rect3629" d="m12 6c-3.324 0-6 2.676-6 6v72c0 3.324 2.676 6 6 6h72c3.324 0 6-2.676 6-6v-72c0-3.324-2.676-6-6-6h-72zm2 4h68c2.216 0 4 1.784 4 4v68c0 2.216-1.784 4-4 4h-68c-2.216 0-4-1.784-4-4v-68c0-2.216 1.784-4 4-4z" fill="url(#linearGradient3643)"/>
  <path id="rect3728" d="m12 6c-3.324 0-6 2.676-6 6v2 68 2c0 0.33472 0.04135 0.6507 0.09375 0.96875 0.0487 0.2956 0.09704 0.59692 0.1875 0.875 0.00988 0.03038 0.020892 0.0636 0.03125 0.09375 0.098865 0.28777 0.23488 0.54745 0.375 0.8125 0.14459 0.27351 0.31562 0.53562 0.5 0.78125s0.37378 0.47347 0.59375 0.6875c0.43995 0.42806 0.94291 0.81453 1.5 1.0938 0.27854 0.13961 0.57347 0.24695 0.875 0.34375-0.2562-0.10022-0.48671-0.23627-0.71875-0.375-0.00741-0.0044-0.023866 0.0045-0.03125 0-0.031933-0.0193-0.062293-0.04251-0.09375-0.0625-0.1204-0.0767-0.23102-0.16351-0.34375-0.25-0.10617-0.0808-0.21328-0.16111-0.3125-0.25-0.17793-0.16143-0.34746-0.34539-0.5-0.53125-0.10758-0.13026-0.21839-0.26528-0.3125-0.40625-0.025089-0.03838-0.038446-0.08587-0.0625-0.125-0.064763-0.10303-0.13023-0.20452-0.1875-0.3125-0.10101-0.19471-0.20567-0.4157-0.28125-0.625-0.00796-0.02181-0.023589-0.04055-0.03125-0.0625-0.031825-0.09195-0.035804-0.18683-0.0625-0.28125-0.030332-0.10662-0.070389-0.20303-0.09375-0.3125-0.072879-0.34151-0.125-0.6982-0.125-1.0625v-2-68-2c0-2.7818 2.2182-5 5-5h2 68 2c2.7818 0 5 2.2182 5 5v2 68 2c0 0.3643-0.05212 0.72099-0.125 1.0625-0.04415 0.20689-0.08838 0.39766-0.15625 0.59375-0.0077 0.02195-0.0233 0.04069-0.03125 0.0625-0.06274 0.17374-0.13838 0.36745-0.21875 0.53125-0.04158 0.0828-0.07904 0.16995-0.125 0.25-0.0546 0.09721-0.12677 0.18835-0.1875 0.28125-0.09411 0.14096-0.20492 0.276-0.3125 0.40625-0.14317 0.17445-0.30314 0.347-0.46875 0.5-0.01117 0.0102-0.01998 0.02115-0.03125 0.03125-0.13839 0.12556-0.28509 0.23444-0.4375 0.34375-0.10257 0.07315-0.20432 0.15336-0.3125 0.21875-0.0074 0.0045-0.02384-0.0044-0.03125 0-0.23204 0.13873-0.46255 0.27478-0.71875 0.375 0.30153-0.0968 0.59646-0.20414 0.875-0.34375 0.55709-0.27922 1.0601-0.66569 1.5-1.0938 0.21997-0.21403 0.40937-0.44186 0.59375-0.6875s0.35541-0.50774 0.5-0.78125c0.14012-0.26505 0.27614-0.52473 0.375-0.8125 0.01041-0.03078 0.02133-0.06274 0.03125-0.09375 0.09046-0.27808 0.1388-0.5794 0.1875-0.875 0.0524-0.31805 0.09375-0.63403 0.09375-0.96875v-2-68-2c0-3.324-2.676-6-6-6h-72z" fill="url(#linearGradient3188)"/>
  <path id="path3615" d="m12 90c-3.324 0-6-2.676-6-6v-2-68-2c0-0.33472 0.04135-0.6507 0.09375-0.96875 0.0487-0.2956 0.09704-0.59692 0.1875-0.875 0.00988-0.03038 0.020892-0.0636 0.03125-0.09375 0.098865-0.28777 0.23488-0.54745 0.375-0.8125 0.14459-0.27351 0.31562-0.53562 0.5-0.78125s0.37378-0.47347 0.59375-0.6875c0.43995-0.42806 0.94291-0.81453 1.5-1.0938 0.27854-0.13961 0.57347-0.24695 0.875-0.34375-0.2562 0.10022-0.48671 0.23627-0.71875 0.375-0.00741 0.0044-0.023866-0.0045-0.03125 0-0.031933 0.0193-0.062293 0.04251-0.09375 0.0625-0.1204 0.0767-0.23102 0.16351-0.34375 0.25-0.10617 0.0808-0.21328 0.16111-0.3125 0.25-0.17793 0.16143-0.34746 0.34539-0.5 0.53125-0.10758 0.13026-0.21839 0.26528-0.3125 0.40625-0.025089 0.03838-0.038446 0.08587-0.0625 0.125-0.064763 0.10303-0.13023 0.20452-0.1875 0.3125-0.10101 0.19471-0.20567 0.4157-0.28125 0.625-0.00796 0.02181-0.023589 0.04055-0.03125 0.0625-0.031825 0.09195-0.035804 0.18683-0.0625 0.28125-0.030332 0.10662-0.070389 0.20303-0.09375 0.3125-0.072879 0.34151-0.125 0.6982-0.125 1.0625v2 68 2c0 2.7818 2.2182 5 5 5h2 68 2c2.7818 0 5-2.2182 5-5v-2-68-2c0-0.3643-0.05212-0.72099-0.125-1.0625-0.04415-0.20689-0.08838-0.39766-0.15625-0.59375-0.0077-0.02195-0.0233-0.04069-0.03125-0.0625-0.06274-0.17374-0.13838-0.36745-0.21875-0.53125-0.04158-0.0828-0.07904-0.16995-0.125-0.25-0.0546-0.09721-0.12677-0.18835-0.1875-0.28125-0.09411-0.14096-0.20492-0.276-0.3125-0.40625-0.14317-0.17445-0.30314-0.347-0.46875-0.5-0.01117-0.0102-0.01998-0.02115-0.03125-0.03125-0.13839-0.12556-0.28509-0.23444-0.4375-0.34375-0.10257-0.07315-0.20432-0.15336-0.3125-0.21875-0.0074-0.0045-0.02384 0.0044-0.03125 0-0.23204-0.13873-0.46255-0.27478-0.71875-0.375 0.30153 0.0968 0.59646 0.20414 0.875 0.34375 0.55709 0.27922 1.0601 0.66569 1.5 1.0938 0.21997 0.21403 0.40937 0.44186 0.59375 0.6875s0.35541 0.50774 0.5 0.78125c0.14012 0.26505 0.27614 0.52473 0.375 0.8125 0.01041 0.03078 0.02133 0.06274 0.03125 0.09375 0.09046 0.27808 0.1388 0.5794 0.1875 0.875 0.0524 0.31805 0.09375 0.63403 0.09375 0.96875v2 68 2c0 3.324-2.676 6-6 6h-72z" fill="url(#radialGradient3619)" opacity=".6"/>
  <rect id="rect2841" x="6" y="106" width="84" height="84" rx="6" ry="6" fill="url(#linearGradient2843)"/>
  <rect id="rect3634" x="10" y="110" width="76" height="76" rx="4" ry="4" fill="#f00"/>
  <path id="rect3647" transform="translate(-110)" d="m14 9c-2.7527 0-5 2.2473-5 5v68c0 2.7527 2.2473 5 5 5h68c2.7527 0 5-2.2473 5-5v-68c0-2.7527-2.2473-5-5-5h-68zm0 2h68c1.6793 0 3 1.3207 3 3v68c0 1.6793-1.3207 3-3 3h-68c-1.6793 0-3-1.3207-3-3v-68c0-1.6793 1.3207-3 3-3z" clip-path="url(#clipPath3649)" color="#000000" display="inline" filter="url(#filter3657)" style="block-progression:tb;text-indent:0;text-transform:none"/>
  <path id="path3709" d="m14.089 10c-2.216 0-4 1.784-4 4v68c0 2.216 1.784 4 4 4h68c2.216 0 4-1.784 4-4v-68c0-2.216-1.784-4-4-4h-68zm0 2h68c1.1403 0 2 0.8597 2 2v68c0 1.1403-0.8597 2-2 2h-68c-1.1403 0-2-0.8597-2-2v-68c0-1.1403 0.8597-2 2-2z" opacity=".16"/>
  <path id="path3707" d="m14 10c-2.216 0-4 1.784-4 4v68c0 2.216 1.784 4 4 4h68c2.216 0 4-1.784 4-4v-68c0-2.216-1.784-4-4-4h-68zm0 1h68c1.6738 0 3 1.3262 3 3v68c0 1.6738-1.3262 3-3 3h-68c-1.6738 0-3-1.3262-3-3v-68c0-1.6738 1.3262-3 3-3z" opacity=".36"/>
 </g>
 <g id="layer9">
  <rect id="rect2419-8" x="6" y="6" width="84" height="84" rx="6" ry="6" opacity=".6"/>
  <path id="rect3728-6" d="m12 6c-3.324 0-6 2.676-6 6v2 68 2c0 0.33472 0.04135 0.6507 0.09375 0.96875 0.0487 0.2956 0.09704 0.59692 0.1875 0.875 0.00988 0.03038 0.020892 0.0636 0.03125 0.09375 0.098865 0.28777 0.23488 0.54745 0.375 0.8125 0.14459 0.27351 0.31562 0.53562 0.5 0.78125s0.37378 0.47347 0.59375 0.6875c0.43995 0.42806 0.94291 0.81453 1.5 1.0938 0.27854 0.13961 0.57347 0.24695 0.875 0.34375-0.2562-0.10022-0.48671-0.23627-0.71875-0.375-0.00741-0.0044-0.023866 0.0045-0.03125 0-0.031933-0.0193-0.062293-0.04251-0.09375-0.0625-0.1204-0.0767-0.23102-0.16351-0.34375-0.25-0.10617-0.0808-0.21328-0.16111-0.3125-0.25-0.17793-0.16143-0.34746-0.34539-0.5-0.53125-0.10758-0.13026-0.21839-0.26528-0.3125-0.40625-0.025089-0.03838-0.038446-0.08587-0.0625-0.125-0.064763-0.10303-0.13023-0.20452-0.1875-0.3125-0.10101-0.19471-0.20567-0.4157-0.28125-0.625-0.00796-0.02181-0.023589-0.04055-0.03125-0.0625-0.031825-0.09195-0.035804-0.18683-0.0625-0.28125-0.030332-0.10662-0.070389-0.20303-0.09375-0.3125-0.072879-0.34151-0.125-0.6982-0.125-1.0625v-2-68-2c0-2.7818 2.2182-5 5-5h2 68 2c2.7818 0 5 2.2182 5 5v2 68 2c0 0.3643-0.05212 0.72099-0.125 1.0625-0.04415 0.20689-0.08838 0.39766-0.15625 0.59375-0.0077 0.02195-0.0233 0.04069-0.03125 0.0625-0.06274 0.17374-0.13838 0.36745-0.21875 0.53125-0.04158 0.0828-0.07904 0.16995-0.125 0.25-0.0546 0.09721-0.12677 0.18835-0.1875 0.28125-0.09411 0.14096-0.20492 0.276-0.3125 0.40625-0.14317 0.17445-0.30314 0.347-0.46875 0.5-0.01117 0.0102-0.01998 0.02115-0.03125 0.03125-0.13839 0.12556-0.28509 0.23444-0.4375 0.34375-0.10257 0.07315-0.20432 0.15336-0.3125 0.21875-0.0074 0.0045-0.02384-0.0044-0.03125 0-0.23204 0.13873-0.46255 0.27478-0.71875 0.375 0.30153-0.0968 0.59646-0.20414 0.875-0.34375 0.55709-0.27922 1.0601-0.66569 1.5-1.0938 0.21997-0.21403 0.40937-0.44186 0.59375-0.6875s0.35541-0.50774 0.5-0.78125c0.14012-0.26505 0.27614-0.52473 0.375-0.8125 0.01041-0.03078 0.02133-0.06274 0.03125-0.09375 0.09046-0.27808 0.1388-0.5794 0.1875-0.875 0.0524-0.31805 0.09375-0.63403 0.09375-0.96875v-2-68-2c0-3.324-2.676-6-6-6h-72z" fill="url(#linearGradient3188)" opacity=".01"/>
  <path id="path3615-5" d="m12 90c-3.324 0-6-2.676-6-6v-2-68-2c0-0.33472 0.04135-0.6507 0.09375-0.96875 0.0487-0.2956 0.09704-0.59692 0.1875-0.875 0.00988-0.03038 0.020892-0.0636 0.03125-0.09375 0.098865-0.28777 0.23488-0.54745 0.375-0.8125 0.14459-0.27351 0.31562-0.53562 0.5-0.78125s0.37378-0.47347 0.59375-0.6875c0.43995-0.42806 0.94291-0.81453 1.5-1.0938 0.27854-0.13961 0.57347-0.24695 0.875-0.34375-0.2562 0.10022-0.48671 0.23627-0.71875 0.375-0.00741 0.0044-0.023866-0.0045-0.03125 0-0.031933 0.0193-0.062293 0.04251-0.09375 0.0625-0.1204 0.0767-0.23102 0.16351-0.34375 0.25-0.10617 0.0808-0.21328 0.16111-0.3125 0.25-0.17793 0.16143-0.34746 0.34539-0.5 0.53125-0.10758 0.13026-0.21839 0.26528-0.3125 0.40625-0.025089 0.03838-0.038446 0.08587-0.0625 0.125-0.064763 0.10303-0.13023 0.20452-0.1875 0.3125-0.10101 0.19471-0.20567 0.4157-0.28125 0.625-0.00796 0.02181-0.023589 0.04055-0.03125 0.0625-0.031825 0.09195-0.035804 0.18683-0.0625 0.28125-0.030332 0.10662-0.070389 0.20303-0.09375 0.3125-0.072879 0.34151-0.125 0.6982-0.125 1.0625v2 68 2c0 2.7818 2.2182 5 5 5h2 68 2c2.7818 0 5-2.2182 5-5v-2-68-2c0-0.3643-0.05212-0.72099-0.125-1.0625-0.04415-0.20689-0.08838-0.39766-0.15625-0.59375-0.0077-0.02195-0.0233-0.04069-0.03125-0.0625-0.06274-0.17374-0.13838-0.36745-0.21875-0.53125-0.04158-0.0828-0.07904-0.16995-0.125-0.25-0.0546-0.09721-0.12677-0.18835-0.1875-0.28125-0.09411-0.14096-0.20492-0.276-0.3125-0.40625-0.14317-0.17445-0.30314-0.347-0.46875-0.5-0.01117-0.0102-0.01998-0.02115-0.03125-0.03125-0.13839-0.12556-0.28509-0.23444-0.4375-0.34375-0.10257-0.07315-0.20432-0.15336-0.3125-0.21875-0.0074-0.0045-0.02384 0.0044-0.03125 0-0.23204-0.13873-0.46255-0.27478-0.71875-0.375 0.30153 0.0968 0.59646 0.20414 0.875 0.34375 0.55709 0.27922 1.0601 0.66569 1.5 1.0938 0.21997 0.21403 0.40937 0.44186 0.59375 0.6875s0.35541 0.50774 0.5 0.78125c0.14012 0.26505 0.27614 0.52473 0.375 0.8125 0.01041 0.03078 0.02133 0.06274 0.03125 0.09375 0.09046 0.27808 0.1388 0.5794 0.1875 0.875 0.0524 0.31805 0.09375 0.63403 0.09375 0.96875v2 68 2c0 3.324-2.676 6-6 6h-72z" fill="url(#radialGradient3619-3)" opacity=".15"/>
 </g>
 <g id="layer3">
  <path id="path3748" d="m33.344 22.969c-3.3071 0-6.0312 2.7241-6.0312 6.0312v12.781c-2.9725 0.35926-5.3438 2.8111-5.3438 5.875v13.344c0 3.0639 2.3712 5.5157 5.3438 5.875v2.125c0 3.3071 2.7241 6.0312 6.0312 6.0312h29.312c3.3071 0 6.0312-2.7241 6.0312-6.0312v-2.125c2.9725-0.35926 5.3438-2.8111 5.3438-5.875v-13.344c0-3.0639-2.3712-5.5157-5.3438-5.875v-12.781c0-3.3071-2.7241-6.0312-6.0312-6.0312h-29.312zm3.3438 9.4062h22.625v1.3438c-0.03775-0.0092-0.19002-0.06299-0.1875-0.0625 0.0029 5.64e-4 -0.19044-2.75e-4 -0.1875 0 0.0029 2.75e-4 -0.19046-0.03123-0.1875-0.03125h-21.344c8.31e-4 4e-5 -0.03943-1.7e-5 -0.0625 0-0.01154 9e-6 -0.01732-3e-6 -0.03125 0 0.0017 8.1e-5 -0.0693 1.2e-5 -0.125 0-0.04178-9e-6 -0.095 6.1e-5 -0.09375 0a1.053 1.053 0 0 0-0.125 0.03125c0.0026-4.95e-4 -0.19002 0.03197-0.1875 0.03125 0.0015-4.22e-4 -0.04534 0.01514-0.09375 0.03125v-1.3438zm22.625 7.9062v3.375 0.65625h-4.0625c0.01073-0.03027 0.03155-0.06349 0.03125-0.0625-8.48e-4 0.0028 0.06306-0.22165 0.0625-0.21875-5.64e-4 0.0029 2.75e-4 -0.19044 0-0.1875-2.75e-4 0.0029 0.03123-0.19046 0.03125-0.1875v-2.6562c-1.7e-5 3e-3 -0.03153-0.19044-0.03125-0.1875 2.75e-4 0.0029-5.64e-4 -0.1904 0-0.1875 5.64e-4 0.0029-0.06335-0.22158-0.0625-0.21875 1.27e-4 4.25e-4 0.0025-0.02417 0-0.03125h3.4688c-3e-3 -1.7e-5 0.19044-0.03153 0.1875-0.03125-0.0029 2.75e-4 0.1904-5.64e-4 0.1875 0-0.0025 4.9e-4 0.14975-0.0533 0.1875-0.0625zm0.6875 12.031c0.37104 0 0.6875 0.31646 0.6875 0.6875s-0.31646 0.6875-0.6875 0.6875-0.6875-0.31646-0.6875-0.6875c-2e-6 -0.37106 0.31644-0.6875 0.6875-0.6875zm5.3438 0c0.37106 0 0.6875 0.31644 0.6875 0.6875-2e-6 0.37103-0.31647 0.6875-0.6875 0.6875-0.13903 0-0.38185-0.08967-0.53125-0.25-0.1494-0.16033-0.1875-0.3464-0.1875-0.4375 0-0.09112 0.03811-0.27718 0.1875-0.4375 0.14939-0.16032 0.3922-0.25 0.53125-0.25zm-28.656 12.062h22.625v0.625 0.625h-22.625v-0.625-0.625z" opacity=".1"/>
  <path id="path3744" d="m33.344 24.031c-2.7329 0-4.9688 2.2359-4.9688 4.9688v13.688h-0.375c-2.7329 0-4.9688 2.2359-4.9688 4.9688v13.344c0 2.7329 2.2359 4.9688 4.9688 4.9688h0.375v3.0312c0 2.7329 2.2359 4.9688 4.9688 4.9688h29.312c2.7329 0 4.9688-2.2359 4.9688-4.9688v-3.0312h0.375c2.7329 0 4.9688-2.2359 4.9688-4.9688v-13.344c0-2.7329-2.2359-4.9688-4.9688-4.9688h-0.375v-13.688c0-2.7329-2.2359-4.9688-4.9688-4.9688h-29.312zm2.6562 7.2812h24c0.23989 0 0.375 0.13102 0.375 0.34375v12 1.7188h-24.75v-1.7188-12c0-0.21273 0.13511-0.34375 0.375-0.34375zm1.25 3.375a0.96317 0.96317 0 0 0-0.875 0.96875v2.6875a0.96317 0.96317 0 0 0 0.96875 0.96875h21.406a0.96317 0.96317 0 0 0 0.96875-0.96875v-2.6875a0.96317 0.96317 0 0 0-0.96875-0.96875h-21.406a0.96317 0.96317 0 0 0-0.09375 0zm0 5.3438a0.96317 0.96317 0 0 0-0.875 0.96875v2.6562a0.96317 0.96317 0 0 0 0.96875 0.96875h16a0.96317 0.96317 0 0 0 0.96875-0.96875v-2.6562a0.96317 0.96317 0 0 0-0.96875-0.96875h-16a0.96317 0.96317 0 0 0-0.09375 0zm22.75 12.594c0.20583 0 0.375 0.16917 0.375 0.375 1e-6 0.20583-0.16917 0.375-0.375 0.375s-0.375-0.16917-0.375-0.375 0.16917-0.375 0.375-0.375zm5.3438 0c0.20584 0 0.34375 0.14191 0.34375 0.375 1e-6 0.23309-0.13792 0.375-0.34375 0.375-0.20583 0-0.375-0.16917-0.375-0.375 1e-6 -0.20584 0.16917-0.375 0.375-0.375zm-29.719 10.688h24.75v1.6875 1.3438c0 0.21273-0.13511 0.34375-0.375 0.34375h-24c-0.23989 0-0.375-0.13102-0.375-0.34375v-1.3438-1.6875z" opacity=".15"/>
  <path id="path3738" d="m33.333 25c-2.216 0-4 1.784-4 4v14.667h-1.3333c-2.216 0-4 1.784-4 4v13.333c0 2.216 1.784 4 4 4h1.3333v4c0 2.216 1.784 4 4 4h29.333c2.216 0 4-1.784 4-4v-4h1.3333c2.216 0 4-1.784 4-4v-13.333c0-2.216-1.784-4-4-4h-1.25-0.08334v-14.667c0-2.216-1.784-4-4-4h-29.333zm2.6667 5.3333h24c0.73867 0 1.3333 0.59467 1.3333 1.3333v12 2.6667h-26.667v-2.6667-12c0-0.73867 0.59467-1.3333 1.3333-1.3333zm1.3333 5.3333v2.6667h21.417v-2.6667h-21.417zm0 5.3333v2.6667h16v-2.6667h-16zm22.667 10.667c0.736 0 1.3333 0.59733 1.3333 1.3333 2e-6 0.736-0.59733 1.3333-1.3333 1.3333s-1.3333-0.59733-1.3333-1.3333 0.59733-1.3333 1.3333-1.3333zm5.3333 0c0.736 0 1.3333 0.59733 1.3333 1.3333 4e-6 0.736-0.59733 1.3333-1.3333 1.3333-0.736 0-1.3333-0.59733-1.3333-1.3333 2e-6 -0.736 0.59733-1.3333 1.3333-1.3333zm-30.667 10.667h26.667v2.6667 1.3333c0 0.73867-0.59467 1.3333-1.3333 1.3333h-24c-0.73867 0-1.3333-0.59467-1.3333-1.3333v-1.3333-2.6667z" opacity=".3"/>
  <path id="Symbol" d="m33.333 24c-2.216 0-4 1.784-4 4v14.667h-1.3333c-2.216 0-4 1.784-4 4v13.333c0 2.216 1.784 4 4 4h1.3333v4c0 2.216 1.784 4 4 4h29.333c2.216 0 4-1.784 4-4v-4h1.3333c2.216 0 4-1.784 4-4v-13.333c0-2.216-1.784-4-4-4h-1.25-0.08334v-14.667c0-2.216-1.784-4-4-4h-29.333zm2.6667 5.3333h24c0.73867 0 1.3333 0.59467 1.3333 1.3333v12 2.6667h-26.667v-2.6667-12c0-0.73867 0.59467-1.3333 1.3333-1.3333zm1.3333 5.3333v2.6667h21.417v-2.6667h-21.417zm0 5.3333v2.6667h16v-2.6667h-16zm22.667 10.667c0.736 0 1.3333 0.59733 1.3333 1.3333 2e-6 0.736-0.59733 1.3333-1.3333 1.3333s-1.3333-0.59733-1.3333-1.3333 0.59733-1.3333 1.3333-1.3333zm5.3333 0c0.736 0 1.3333 0.59733 1.3333 1.3333 4e-6 0.736-0.59733 1.3333-1.3333 1.3333-0.736 0-1.3333-0.59733-1.3333-1.3333 2e-6 -0.736 0.59733-1.3333 1.3333-1.3333zm-30.667 10.667h26.667v2.6667 1.3333c0 0.73867-0.59467 1.3333-1.3333 1.3333h-24c-0.73867 0-1.3333-0.59467-1.3333-1.3333v-1.3333-2.6667z" fill="url(#linearGradient2869)"/>
  <path id="path3719" d="m33.344 24c-2.216 0-4 1.784-4 4v1c0-2.216 1.784-4 4-4h29.312c2.216 0 4 1.784 4 4v-1c0-2.216-1.784-4-4-4h-29.312zm4 10.656v1h21.406v-1h-21.406zm0 5.3438v1h16v-1h-16zm-9.3438 2.6562c-2.216 0-4 1.784-4 4v1c0-2.216 1.784-4 4-4h1.3438v-1h-1.3438zm38.656 0v1h0.09375 1.25c2.216 0 4 1.784 4 4v-1c0-2.216-1.784-4-4-4h-1.25-0.09375zm-32 2.6875v1h26.688v-1h-26.688zm24.125 7.1562c-0.06066 0.15238-0.125 0.32608-0.125 0.5 0 0.736 0.60775 1.3438 1.3438 1.3438s1.3438-0.60775 1.3438-1.3438c0-0.17392-0.06434-0.34762-0.125-0.5-0.19603 0.49248-0.65667 0.84375-1.2188 0.84375s-1.0227-0.35128-1.2188-0.84375zm5.3125 0.03125c-0.053208 0.14394-0.09375 0.3064-0.09375 0.46875 0 0.736 0.60775 1.3438 1.3438 1.3438 0.736 0 1.3125-0.60775 1.3125-1.3438 0-0.16235-0.04054-0.32482-0.09375-0.46875-0.2025 0.4785-0.66675 0.8125-1.2188 0.8125-0.552 0-1.0475-0.334-1.25-0.8125zm-29.438 12.812v1c0 0.73867 0.60508 1.3125 1.3438 1.3125h24c0.73867 0 1.3438-0.57383 1.3438-1.3125v-1c0 0.73867-0.60508 1.3125-1.3438 1.3125h-24c-0.73867 0-1.3438-0.57383-1.3438-1.3125z" fill="#fff" opacity=".75"/>
  <path id="path3729" d="m36 28.344c-0.73867 0-1.3438 0.57383-1.3438 1.3125v1c0-0.73867 0.60508-1.3125 1.3438-1.3125h24c0.73867 0 1.3438 0.57383 1.3438 1.3125v-1c0-0.73867-0.60508-1.3125-1.3438-1.3125h-24zm1.3438 8v1h21.406v-1h-21.406zm0 5.3125v1h16v-1h-16zm22.656 8c-0.736 0-1.3438 0.60775-1.3438 1.3438 0 0.17392 0.06434 0.34762 0.125 0.5 0.19603-0.49248 0.65667-0.84375 1.2188-0.84375s1.0227 0.35128 1.2188 0.84375c0.06066-0.15238 0.125-0.32608 0.125-0.5 0-0.736-0.60775-1.3438-1.3438-1.3438zm5.3438 0c-0.736 0-1.3437 0.60775-1.3438 1.3438 0 0.16235 0.04054 0.32482 0.09375 0.46875 0.2025-0.4785 0.698-0.8125 1.25-0.8125 0.552 0 1.0163 0.334 1.2188 0.8125 0.05321-0.14394 0.09375-0.3064 0.09375-0.46875 0-0.736-0.5765-1.3438-1.3125-1.3438zm-41.344 9.3438v1c0 2.216 1.784 4 4 4h1.3438v-1h-1.3438c-2.216 0-4-1.784-4-4zm48 0c0 2.216-1.784 4-4 4h-1.3438v1h1.3438c2.216 0 4-1.784 4-4v-1zm-37.344 1.3438v1h26.688v-1h-26.688zm-5.3125 6.6562v1c0 2.216 1.784 4 4 4h29.312c2.216 0 4-1.784 4-4v-1c0 2.216-1.784 4-4 4h-29.312c-2.216 0-4-1.784-4-4z" opacity=".15"/>
 </g>
</svg>
