<?xml version="1.0" encoding="UTF-8"?>
<svg id="svg2408" width="96" height="96" version="1.0" xmlns="http://www.w3.org/2000/svg" xmlns:cc="http://creativecommons.org/ns#" xmlns:dc="http://purl.org/dc/elements/1.1/" xmlns:rdf="http://www.w3.org/1999/02/22-rdf-syntax-ns#" xmlns:xlink="http://www.w3.org/1999/xlink">
 <defs id="defs2410">
  <linearGradient id="linearGradient3637">
   <stop id="stop3639" stop-color="#f0f0f0" offset="0"/>
   <stop id="stop3641" stop-color="#aaa" offset="1"/>
  </linearGradient>
  <linearGradient id="ButtonShadow" x1="45.448" x2="45.448" y1="92.54" y2="7.0165" gradientTransform="scale(1.0059 .99417)" gradientUnits="userSpaceOnUse">
   <stop id="stop3750" offset="0"/>
   <stop id="stop3752" stop-opacity=".58824" offset="1"/>
  </linearGradient>
  <linearGradient id="linearGradient3737">
   <stop id="stop3739" stop-color="#fff" offset="0"/>
   <stop id="stop3741" stop-color="#fff" stop-opacity="0" offset="1"/>
  </linearGradient>
  <filter id="filter3174" color-interpolation-filters="sRGB">
   <feGaussianBlur id="feGaussianBlur3176" stdDeviation="1.71"/>
  </filter>
  <linearGradient id="linearGradient3188" x1="36.357" x2="36.357" y1="6" y2="63.893" gradientUnits="userSpaceOnUse" xlink:href="#linearGradient3737"/>
  <radialGradient id="radialGradient3619" cx="48" cy="90.172" r="42" gradientTransform="matrix(1.1573 0 0 .99591 -7.551 .19713)" gradientUnits="userSpaceOnUse" xlink:href="#linearGradient3737"/>
  <linearGradient id="linearGradient2843" x1="48" x2="48" y1="90" y2="5.9877" gradientTransform="translate(0,100)" gradientUnits="userSpaceOnUse">
   <stop id="stop3702" stop-color="#2276c5" offset="0"/>
   <stop id="stop3704" stop-color="#68baf4" offset="1"/>
  </linearGradient>
  <clipPath id="clipPath3625">
   <path id="path3627" d="m0 0v96h96v-96h-96zm12 6h72c3.324 0 6 2.676 6 6v72c0 3.324-2.676 6-6 6h-72c-3.324 0-6-2.676-6-6v-72c0-3.324 2.676-6 6-6z" fill="#fff"/>
  </clipPath>
  <linearGradient id="linearGradient3643" x1="44.512" x2="44.512" y1="6" y2="90.015" gradientUnits="userSpaceOnUse" xlink:href="#linearGradient3637"/>
  <clipPath id="clipPath3649">
   <rect id="rect3651" x="10" y="10" width="76" height="76" rx="4" ry="4" fill="#fff"/>
  </clipPath>
  <filter id="filter3657" color-interpolation-filters="sRGB">
   <feGaussianBlur id="feGaussianBlur3659" stdDeviation="1.14"/>
  </filter>
  <linearGradient id="ButtonShadow-0" x1="45.448" x2="45.448" y1="92.54" y2="7.0165" gradientTransform="matrix(1.0059 0 0 .99417 100 0)" gradientUnits="userSpaceOnUse">
   <stop id="stop3750-8" offset="0"/>
   <stop id="stop3752-5" stop-opacity=".58824" offset="1"/>
  </linearGradient>
  <linearGradient id="linearGradient3780" x1="32.251" x2="32.251" y1="6.1317" y2="90.239" gradientTransform="matrix(1.0238 0 0 -1.0119 -1.1429 98.071)" gradientUnits="userSpaceOnUse" xlink:href="#ButtonShadow-0"/>
  <linearGradient id="linearGradient3721-7" x1="32.251" x2="32.251" y1="6.1317" y2="90.239" gradientTransform="matrix(1,0,0,-1,0,97)" gradientUnits="userSpaceOnUse" xlink:href="#ButtonShadow-0"/>
  <radialGradient id="radialGradient3619-2" cx="48" cy="90.172" r="42" gradientTransform="matrix(1.1573 0 0 .99591 -7.551 .19713)" gradientUnits="userSpaceOnUse" xlink:href="#linearGradient3737"/>
  <linearGradient id="linearGradient4002" x1="38" x2="38" y1="24" y2="72" gradientUnits="userSpaceOnUse" xlink:href="#linearGradient3637"/>
 </defs>
 <metadata id="metadata2413">
  <rdf:RDF>
   <cc:Work rdf:about="">
    <dc:format>image/svg+xml</dc:format>
    <dc:type rdf:resource="http://purl.org/dc/dcmitype/StillImage"/>
    <dc:title/>
   </cc:Work>
  </rdf:RDF>
 </metadata>
 <g id="layer2" display="none">
  <rect id="rect3745" x="5" y="7" width="86" height="85" rx="6" ry="6" clip-path="url(#clipPath3625)" fill="url(#ButtonShadow)" filter="url(#filter3174)" opacity=".9"/>
 </g>
 <g id="layer4">
  <path id="path3786" d="m12 3.9688c-5.5111 0-10.031 4.5202-10.031 10.031v71c0 5.5111 4.5202 10.031 10.031 10.031h72c5.5111 0 10.031-4.5202 10.031-10.031v-71c0-5.5111-4.5202-10.031-10.031-10.031h-72zm0 2.0312h72c3.324 0 6 2.676 6 6v72c0 3.324-2.676 6-6 6h-72c-3.324 0-6-2.676-6-6v-72c0-3.324 2.676-6 6-6z" fill="url(#linearGradient3780)" opacity=".08"/>
  <path id="path3778" d="m12 4.9688c-4.9716 0-9.0312 4.0596-9.0312 9.0312v71c0 4.9716 4.0596 9.0312 9.0312 9.0312h72c4.9716 0 9.0312-4.0596 9.0312-9.0312v-71c0-4.9716-4.0596-9.0312-9.0312-9.0312h-72zm0 1.0312h72c3.324 0 6 2.676 6 6v72c0 3.324-2.676 6-6 6h-72c-3.324 0-6-2.676-6-6v-72c0-3.324 2.676-6 6-6z" fill="url(#linearGradient3780)" opacity=".1"/>
  <path id="path3770" d="m11.188 6.0312c-4.0275 0.41065-7.1875 3.8352-7.1875 7.9688v71c0 4.4091 3.5909 8 8 8h72c4.4091 0 8-3.5909 8-8v-71c0-4.1971-3.259-7.646-7.375-7.9688 3.0329 0.30617 5.375 2.8525 5.375 5.9688v72c0 3.324-2.676 6-6 6h-72c-3.324 0-6-2.676-6-6v-72c0-3.1162 2.3421-5.6626 5.375-5.9688-0.06227 0.00488-0.12563-0.00631-0.1875 0z" fill="url(#linearGradient3780)" opacity=".2"/>
  <path id="rect3723" d="m6.4375 9.75c-0.89949 1.1774-1.4375 2.6473-1.4375 4.25v71c0 3.878 3.122 7 7 7h72c3.878 0 7-3.122 7-7v-71c0-1.6027-0.53801-3.0726-1.4375-4.25 0.27932 0.6941 0.4375 1.4536 0.4375 2.25v72c0 3.324-2.676 6-6 6h-72c-3.324 0-6-2.676-6-6v-72c0-0.79638 0.15818-1.5559 0.4375-2.25z" fill="url(#linearGradient3780)" opacity=".3"/>
  <path id="rect3716" d="m6 84v1c0 3.324 2.676 6 6 6h72c3.324 0 6-2.676 6-6v-1c0 3.324-2.676 6-6 6h-72c-3.324 0-6-2.676-6-6z" fill="url(#linearGradient3721-7)" opacity=".45"/>
 </g>
 <g id="layer1" display="none">
  <rect id="rect2419" x="6" y="6" width="84" height="84" rx="6" ry="6" opacity=".7"/>
  <path id="rect3726" d="m14 10c-2.216 0-4 1.784-4 4v68c0 2.216 1.784 4 4 4h68c2.216 0 4-1.784 4-4v-68c0-2.216-1.784-4-4-4h-68zm0 3.0625h68c0.57877 0 0.9375 0.35873 0.9375 0.9375v68c0 0.57877-0.35873 0.9375-0.9375 0.9375h-68c-0.57877 0-0.9375-0.35873-0.9375-0.9375v-68c0-0.57877 0.35873-0.9375 0.9375-0.9375z" opacity=".08"/>
  <path id="rect3629" d="m12 6c-3.324 0-6 2.676-6 6v72c0 3.324 2.676 6 6 6h72c3.324 0 6-2.676 6-6v-72c0-3.324-2.676-6-6-6h-72zm2 4h68c2.216 0 4 1.784 4 4v68c0 2.216-1.784 4-4 4h-68c-2.216 0-4-1.784-4-4v-68c0-2.216 1.784-4 4-4z" fill="url(#linearGradient3643)"/>
  <path id="rect3728" d="m12 6c-3.324 0-6 2.676-6 6v2 68 2c0 0.33472 0.04135 0.6507 0.09375 0.96875 0.0487 0.2956 0.09704 0.59692 0.1875 0.875 0.00988 0.03038 0.020892 0.0636 0.03125 0.09375 0.098865 0.28777 0.23488 0.54745 0.375 0.8125 0.14459 0.27351 0.31562 0.53562 0.5 0.78125s0.37378 0.47347 0.59375 0.6875c0.43995 0.42806 0.94291 0.81453 1.5 1.0938 0.27854 0.13961 0.57347 0.24695 0.875 0.34375-0.2562-0.10022-0.48671-0.23627-0.71875-0.375-0.00741-0.0044-0.023866 0.0045-0.03125 0-0.031933-0.0193-0.062293-0.04251-0.09375-0.0625-0.1204-0.0767-0.23102-0.16351-0.34375-0.25-0.10617-0.0808-0.21328-0.16111-0.3125-0.25-0.17793-0.16143-0.34746-0.34539-0.5-0.53125-0.10758-0.13026-0.21839-0.26528-0.3125-0.40625-0.025089-0.03838-0.038446-0.08587-0.0625-0.125-0.064763-0.10303-0.13023-0.20452-0.1875-0.3125-0.10101-0.19471-0.20567-0.4157-0.28125-0.625-0.00796-0.02181-0.023589-0.04055-0.03125-0.0625-0.031825-0.09195-0.035804-0.18683-0.0625-0.28125-0.030332-0.10662-0.070389-0.20303-0.09375-0.3125-0.072879-0.34151-0.125-0.6982-0.125-1.0625v-2-68-2c0-2.7818 2.2182-5 5-5h2 68 2c2.7818 0 5 2.2182 5 5v2 68 2c0 0.3643-0.05212 0.72099-0.125 1.0625-0.04415 0.20689-0.08838 0.39766-0.15625 0.59375-0.0077 0.02195-0.0233 0.04069-0.03125 0.0625-0.06274 0.17374-0.13838 0.36745-0.21875 0.53125-0.04158 0.0828-0.07904 0.16995-0.125 0.25-0.0546 0.09721-0.12677 0.18835-0.1875 0.28125-0.09411 0.14096-0.20492 0.276-0.3125 0.40625-0.14317 0.17445-0.30314 0.347-0.46875 0.5-0.01117 0.0102-0.01998 0.02115-0.03125 0.03125-0.13839 0.12556-0.28509 0.23444-0.4375 0.34375-0.10257 0.07315-0.20432 0.15336-0.3125 0.21875-0.0074 0.0045-0.02384-0.0044-0.03125 0-0.23204 0.13873-0.46255 0.27478-0.71875 0.375 0.30153-0.0968 0.59646-0.20414 0.875-0.34375 0.55709-0.27922 1.0601-0.66569 1.5-1.0938 0.21997-0.21403 0.40937-0.44186 0.59375-0.6875s0.35541-0.50774 0.5-0.78125c0.14012-0.26505 0.27614-0.52473 0.375-0.8125 0.01041-0.03078 0.02133-0.06274 0.03125-0.09375 0.09046-0.27808 0.1388-0.5794 0.1875-0.875 0.0524-0.31805 0.09375-0.63403 0.09375-0.96875v-2-68-2c0-3.324-2.676-6-6-6h-72z" fill="url(#linearGradient3188)"/>
  <path id="path3615" d="m12 90c-3.324 0-6-2.676-6-6v-2-68-2c0-0.33472 0.04135-0.6507 0.09375-0.96875 0.0487-0.2956 0.09704-0.59692 0.1875-0.875 0.00988-0.03038 0.020892-0.0636 0.03125-0.09375 0.098865-0.28777 0.23488-0.54745 0.375-0.8125 0.14459-0.27351 0.31562-0.53562 0.5-0.78125s0.37378-0.47347 0.59375-0.6875c0.43995-0.42806 0.94291-0.81453 1.5-1.0938 0.27854-0.13961 0.57347-0.24695 0.875-0.34375-0.2562 0.10022-0.48671 0.23627-0.71875 0.375-0.00741 0.0044-0.023866-0.0045-0.03125 0-0.031933 0.0193-0.062293 0.04251-0.09375 0.0625-0.1204 0.0767-0.23102 0.16351-0.34375 0.25-0.10617 0.0808-0.21328 0.16111-0.3125 0.25-0.17793 0.16143-0.34746 0.34539-0.5 0.53125-0.10758 0.13026-0.21839 0.26528-0.3125 0.40625-0.025089 0.03838-0.038446 0.08587-0.0625 0.125-0.064763 0.10303-0.13023 0.20452-0.1875 0.3125-0.10101 0.19471-0.20567 0.4157-0.28125 0.625-0.00796 0.02181-0.023589 0.04055-0.03125 0.0625-0.031825 0.09195-0.035804 0.18683-0.0625 0.28125-0.030332 0.10662-0.070389 0.20303-0.09375 0.3125-0.072879 0.34151-0.125 0.6982-0.125 1.0625v2 68 2c0 2.7818 2.2182 5 5 5h2 68 2c2.7818 0 5-2.2182 5-5v-2-68-2c0-0.3643-0.05212-0.72099-0.125-1.0625-0.04415-0.20689-0.08838-0.39766-0.15625-0.59375-0.0077-0.02195-0.0233-0.04069-0.03125-0.0625-0.06274-0.17374-0.13838-0.36745-0.21875-0.53125-0.04158-0.0828-0.07904-0.16995-0.125-0.25-0.0546-0.09721-0.12677-0.18835-0.1875-0.28125-0.09411-0.14096-0.20492-0.276-0.3125-0.40625-0.14317-0.17445-0.30314-0.347-0.46875-0.5-0.01117-0.0102-0.01998-0.02115-0.03125-0.03125-0.13839-0.12556-0.28509-0.23444-0.4375-0.34375-0.10257-0.07315-0.20432-0.15336-0.3125-0.21875-0.0074-0.0045-0.02384 0.0044-0.03125 0-0.23204-0.13873-0.46255-0.27478-0.71875-0.375 0.30153 0.0968 0.59646 0.20414 0.875 0.34375 0.55709 0.27922 1.0601 0.66569 1.5 1.0938 0.21997 0.21403 0.40937 0.44186 0.59375 0.6875s0.35541 0.50774 0.5 0.78125c0.14012 0.26505 0.27614 0.52473 0.375 0.8125 0.01041 0.03078 0.02133 0.06274 0.03125 0.09375 0.09046 0.27808 0.1388 0.5794 0.1875 0.875 0.0524 0.31805 0.09375 0.63403 0.09375 0.96875v2 68 2c0 3.324-2.676 6-6 6h-72z" fill="url(#radialGradient3619)" opacity=".6"/>
  <rect id="rect2841" x="6" y="106" width="84" height="84" rx="6" ry="6" fill="url(#linearGradient2843)"/>
  <rect id="rect3634" x="10" y="110" width="76" height="76" rx="4" ry="4" fill="#f00"/>
  <path id="rect3647" transform="translate(-110)" d="m14 9c-2.7527 0-5 2.2473-5 5v68c0 2.7527 2.2473 5 5 5h68c2.7527 0 5-2.2473 5-5v-68c0-2.7527-2.2473-5-5-5h-68zm0 2h68c1.6793 0 3 1.3207 3 3v68c0 1.6793-1.3207 3-3 3h-68c-1.6793 0-3-1.3207-3-3v-68c0-1.6793 1.3207-3 3-3z" clip-path="url(#clipPath3649)" color="#000000" display="inline" filter="url(#filter3657)" style="block-progression:tb;text-indent:0;text-transform:none"/>
  <path id="path3709" d="m14.089 10c-2.216 0-4 1.784-4 4v68c0 2.216 1.784 4 4 4h68c2.216 0 4-1.784 4-4v-68c0-2.216-1.784-4-4-4h-68zm0 2h68c1.1403 0 2 0.8597 2 2v68c0 1.1403-0.8597 2-2 2h-68c-1.1403 0-2-0.8597-2-2v-68c0-1.1403 0.8597-2 2-2z" opacity=".16"/>
  <path id="path3707" d="m14 10c-2.216 0-4 1.784-4 4v68c0 2.216 1.784 4 4 4h68c2.216 0 4-1.784 4-4v-68c0-2.216-1.784-4-4-4h-68zm0 1h68c1.6738 0 3 1.3262 3 3v68c0 1.6738-1.3262 3-3 3h-68c-1.6738 0-3-1.3262-3-3v-68c0-1.6738 1.3262-3 3-3z" opacity=".36"/>
 </g>
 <g id="layer11">
  <rect id="rect2419-6" x="6" y="6" width="84" height="84" rx="6" ry="6" opacity=".6"/>
  <path id="rect3728-9" d="m12 6c-3.324 0-6 2.676-6 6v2 68 2c0 0.33472 0.04135 0.6507 0.09375 0.96875 0.0487 0.2956 0.09704 0.59692 0.1875 0.875 0.00988 0.03038 0.020892 0.0636 0.03125 0.09375 0.098865 0.28777 0.23488 0.54745 0.375 0.8125 0.14459 0.27351 0.31562 0.53562 0.5 0.78125s0.37378 0.47347 0.59375 0.6875c0.43995 0.42806 0.94291 0.81453 1.5 1.0938 0.27854 0.13961 0.57347 0.24695 0.875 0.34375-0.2562-0.10022-0.48671-0.23627-0.71875-0.375-0.00741-0.0044-0.023866 0.0045-0.03125 0-0.031933-0.0193-0.062293-0.04251-0.09375-0.0625-0.1204-0.0767-0.23102-0.16351-0.34375-0.25-0.10617-0.0808-0.21328-0.16111-0.3125-0.25-0.17793-0.16143-0.34746-0.34539-0.5-0.53125-0.10758-0.13026-0.21839-0.26528-0.3125-0.40625-0.025089-0.03838-0.038446-0.08587-0.0625-0.125-0.064763-0.10303-0.13023-0.20452-0.1875-0.3125-0.10101-0.19471-0.20567-0.4157-0.28125-0.625-0.00796-0.02181-0.023589-0.04055-0.03125-0.0625-0.031825-0.09195-0.035804-0.18683-0.0625-0.28125-0.030332-0.10662-0.070389-0.20303-0.09375-0.3125-0.072879-0.34151-0.125-0.6982-0.125-1.0625v-2-68-2c0-2.7818 2.2182-5 5-5h2 68 2c2.7818 0 5 2.2182 5 5v2 68 2c0 0.3643-0.05212 0.72099-0.125 1.0625-0.04415 0.20689-0.08838 0.39766-0.15625 0.59375-0.0077 0.02195-0.0233 0.04069-0.03125 0.0625-0.06274 0.17374-0.13838 0.36745-0.21875 0.53125-0.04158 0.0828-0.07904 0.16995-0.125 0.25-0.0546 0.09721-0.12677 0.18835-0.1875 0.28125-0.09411 0.14096-0.20492 0.276-0.3125 0.40625-0.14317 0.17445-0.30314 0.347-0.46875 0.5-0.01117 0.0102-0.01998 0.02115-0.03125 0.03125-0.13839 0.12556-0.28509 0.23444-0.4375 0.34375-0.10257 0.07315-0.20432 0.15336-0.3125 0.21875-0.0074 0.0045-0.02384-0.0044-0.03125 0-0.23204 0.13873-0.46255 0.27478-0.71875 0.375 0.30153-0.0968 0.59646-0.20414 0.875-0.34375 0.55709-0.27922 1.0601-0.66569 1.5-1.0938 0.21997-0.21403 0.40937-0.44186 0.59375-0.6875s0.35541-0.50774 0.5-0.78125c0.14012-0.26505 0.27614-0.52473 0.375-0.8125 0.01041-0.03078 0.02133-0.06274 0.03125-0.09375 0.09046-0.27808 0.1388-0.5794 0.1875-0.875 0.0524-0.31805 0.09375-0.63403 0.09375-0.96875v-2-68-2c0-3.324-2.676-6-6-6h-72z" fill="url(#linearGradient3188)" opacity=".01"/>
  <path id="path3615-4" d="m12 90c-3.324 0-6-2.676-6-6v-2-68-2c0-0.33472 0.04135-0.6507 0.09375-0.96875 0.0487-0.2956 0.09704-0.59692 0.1875-0.875 0.00988-0.03038 0.020892-0.0636 0.03125-0.09375 0.098865-0.28777 0.23488-0.54745 0.375-0.8125 0.14459-0.27351 0.31562-0.53562 0.5-0.78125s0.37378-0.47347 0.59375-0.6875c0.43995-0.42806 0.94291-0.81453 1.5-1.0938 0.27854-0.13961 0.57347-0.24695 0.875-0.34375-0.2562 0.10022-0.48671 0.23627-0.71875 0.375-0.00741 0.0044-0.023866-0.0045-0.03125 0-0.031933 0.0193-0.062293 0.04251-0.09375 0.0625-0.1204 0.0767-0.23102 0.16351-0.34375 0.25-0.10617 0.0808-0.21328 0.16111-0.3125 0.25-0.17793 0.16143-0.34746 0.34539-0.5 0.53125-0.10758 0.13026-0.21839 0.26528-0.3125 0.40625-0.025089 0.03838-0.038446 0.08587-0.0625 0.125-0.064763 0.10303-0.13023 0.20452-0.1875 0.3125-0.10101 0.19471-0.20567 0.4157-0.28125 0.625-0.00796 0.02181-0.023589 0.04055-0.03125 0.0625-0.031825 0.09195-0.035804 0.18683-0.0625 0.28125-0.030332 0.10662-0.070389 0.20303-0.09375 0.3125-0.072879 0.34151-0.125 0.6982-0.125 1.0625v2 68 2c0 2.7818 2.2182 5 5 5h2 68 2c2.7818 0 5-2.2182 5-5v-2-68-2c0-0.3643-0.05212-0.72099-0.125-1.0625-0.04415-0.20689-0.08838-0.39766-0.15625-0.59375-0.0077-0.02195-0.0233-0.04069-0.03125-0.0625-0.06274-0.17374-0.13838-0.36745-0.21875-0.53125-0.04158-0.0828-0.07904-0.16995-0.125-0.25-0.0546-0.09721-0.12677-0.18835-0.1875-0.28125-0.09411-0.14096-0.20492-0.276-0.3125-0.40625-0.14317-0.17445-0.30314-0.347-0.46875-0.5-0.01117-0.0102-0.01998-0.02115-0.03125-0.03125-0.13839-0.12556-0.28509-0.23444-0.4375-0.34375-0.10257-0.07315-0.20432-0.15336-0.3125-0.21875-0.0074-0.0045-0.02384 0.0044-0.03125 0-0.23204-0.13873-0.46255-0.27478-0.71875-0.375 0.30153 0.0968 0.59646 0.20414 0.875 0.34375 0.55709 0.27922 1.0601 0.66569 1.5 1.0938 0.21997 0.21403 0.40937 0.44186 0.59375 0.6875s0.35541 0.50774 0.5 0.78125c0.14012 0.26505 0.27614 0.52473 0.375 0.8125 0.01041 0.03078 0.02133 0.06274 0.03125 0.09375 0.09046 0.27808 0.1388 0.5794 0.1875 0.875 0.0524 0.31805 0.09375 0.63403 0.09375 0.96875v2 68 2c0 3.324-2.676 6-6 6h-72z" fill="url(#radialGradient3619-2)" opacity=".15"/>
 </g>
 <g id="layer3">
  <path id="path3752" d="m27.594 23c-3.0718 0-5.5938 2.5219-5.5938 5.5938v26.844c0 3.0691 2.5055 5.625 5.5938 5.625h20.812c0.0016 0.0411 0 0.09375 0 0.09375l0.03125 0.125 0.03125 0.15625 0.03125 0.125 0.03125 0.15625 0.1875 0.375 0.09375 0.125 0.09375 0.09375 10.75 12 0.0625 0.09375 0.09375 0.0625 0.0625 0.0625 0.375 0.25 0.1875 0.0625 0.09375 0.0625 0.09375 0.03125h0.125l0.09375 0.03125h0.09375l0.125 0.03125h0.09375 0.09375l0.125-0.03125h0.09375l0.09375-0.03125h0.125l0.09375-0.03125 0.09375-0.0625 0.1875-0.0625 0.375-0.25 0.0625-0.0625 0.09375-0.0625 0.0625-0.09375 10.844-12 0.09375-0.09375 0.09375-0.125 0.1875-0.375 0.03125-0.15625 0.03125-0.125 0.03125-0.15625 0.03125-0.125v-0.15625-0.125l-0.03125-0.15625-0.03125-0.125-0.03125-0.15625-0.03125-0.125-0.0625-0.125-0.0625-0.15625-0.0625-0.09375-0.1875-0.25-0.1875-0.1875-0.125-0.09375-0.09375-0.09375-0.25-0.125-0.15625-0.0625-0.25-0.0625-0.15625-0.03125-0.125-0.03125h-0.15625-4v-3.8438-0.1875l-0.03125-0.1875-0.0625-0.21875-0.0625-0.15625-0.09375-0.1875c-1e-6 -3e-6 -0.07355-0.12251-0.09375-0.15625-0.0031-0.0052 0-0.03125 0-0.03125 0.0202-0.03374 0.09375-0.15625 0.09375-0.15625l0.09375-0.1875 0.0625-0.15625 0.0625-0.21875 0.03125-0.1875v-0.1875-3.8438-0.1875l-0.03125-0.1875-0.0625-0.21875-0.0625-0.15625-0.09375-0.1875c-1e-6 -2e-6 -0.03668-0.11312-0.0625-0.15625 0.02988-0.04992 0.0625-0.125 0.0625-0.125l0.09375-0.1875 0.0625-0.15625 0.0625-0.21875 0.03125-0.1875v-0.1875-1.9062-0.1875l-0.03125-0.1875-0.0625-0.21875-0.0625-0.15625-0.1875-0.375-0.125-0.15625-0.25-0.25-0.15625-0.125-0.375-0.1875-0.15625-0.0625-0.21875-0.0625-0.1875-0.03125h-0.1875-9.875-0.03125-0.0625-0.0625-0.09375a0.99834 0.99834 0 0 0-0.15625 0.03125l-0.15625 0.03125-0.1875 0.0625-0.15625 0.0625-0.15625 0.09375-0.125 0.09375-0.15625 0.09375-0.25 0.25-0.09375 0.15625-0.09375 0.125-0.0625 0.15625-0.0625 0.1875-0.0625 0.15625-0.03125 0.15625-0.03125 0.1875c0 2e-6 1e-3 0.11575 0 0.15625-2e-4 0.0081 0 0.03125 0 0.03125v1.875 0.1875l0.03125 0.1875 0.0625 0.21875 0.0625 0.15625 0.09375 0.1875c1e-6 2e-6 0.03262 0.07508 0.0625 0.125-0.02659 0.04329-0.0625 0.09375-0.0625 0.09375l-0.0625 0.15625-0.0625 0.1875-0.0625 0.15625-0.03125 0.15625-0.03125 0.1875c0 2e-6 1e-3 0.11575 0 0.15625-2e-4 0.0081 0 0.03125 0 0.03125v3.8125 0.1875l0.03125 0.1875 0.0625 0.21875 0.0625 0.15625 0.09375 0.1875c1e-6 3e-6 0.07355 0.12251 0.09375 0.15625 0.0031 0.0052 0 0.03125 0 0.03125-0.02068 0.03367-0.09375 0.09375-0.09375 0.09375l-0.0625 0.15625-0.0625 0.1875-0.0625 0.15625-0.03125 0.15625-0.03125 0.1875c0 2e-6 1e-3 0.11575 0 0.15625-2e-4 0.0081 0 0.03125 0 0.03125v3.8125h-1.375c0.81357-0.97954 1.3438-2.205 1.3438-3.5625v-26.844c0-3.0718-2.5219-5.5938-5.5938-5.5938h-20.875zm4.375 9.9688h12.125v18.125h-12.125v-18.125zm-4.9688 32c-2.7612 0-5.0312 2.27-5.0312 5.0312s2.27 5.0312 5.0312 5.0312c2.7056 0 4.9112-2.1895 5-4.875 0.08875 2.6855 2.2944 4.875 5 4.875s4.9112-2.1895 5-4.875c0.08875 2.6855 2.2944 4.875 5 4.875 2.7612 0 5.0312-2.27 5.0312-5.0312s-2.27-5.0312-5.0312-5.0312c-2.7056 0-4.9112 2.1895-5 4.875-0.08875-2.6855-2.2944-4.875-5-4.875s-4.9112 2.1895-5 4.875c-0.08875-2.6855-2.2944-4.875-5-4.875z" opacity=".1"/>
  <path id="path3748" d="m27.594 24c-2.5281 0-4.5938 2.0657-4.5938 4.5938v26.844c0 2.5281 2.0552 4.625 4.5938 4.625h20.875c2.5385 0 4.5938-2.0969 4.5938-4.625v-26.844c0-2.5281-2.0657-4.5938-4.5938-4.5938h-20.875zm3.5938 7.9688h13.719c0.11027 0 0.1875 0.0772 0.1875 0.21875v19.688c0 0.14155-0.07723 0.21875-0.1875 0.21875h-13.719c-0.11027 0-0.21875-0.10848-0.21875-0.21875v-19.688c0-0.11027 0.10848-0.21875 0.21875-0.21875zm24.719 12.062a0.99834 0.99834 0 0 0-0.8125 1v1.9062a0.99834 0.99834 0 0 0 1 1h9.9062a0.99834 0.99834 0 0 0 1-1v-1.9062a0.99834 0.99834 0 0 0-1-1h-9.9062a0.99834 0.99834 0 0 0-0.09375 0 0.99834 0.99834 0 0 0-0.09375 0zm0 4.0625a0.99834 0.99834 0 0 0-0.8125 1v3.8438a0.99834 0.99834 0 0 0 1 1h9.9062a0.99834 0.99834 0 0 0 1-1v-3.8438a0.99834 0.99834 0 0 0-1-1h-9.9062a0.99834 0.99834 0 0 0-0.09375 0 0.99834 0.99834 0 0 0-0.09375 0zm0 6.0625a0.99834 0.99834 0 0 0-0.8125 1v4.8438h-4.6875a0.99834 0.99834 0 0 0-0.75 1.6562l10.75 12a0.99834 0.99834 0 0 0 1.5 0l10.844-12a0.99834 0.99834 0 0 0-0.75-1.6562h-5v-4.8438a0.99834 0.99834 0 0 0-1-1h-9.9062a0.99834 0.99834 0 0 0-0.09375 0 0.99834 0.99834 0 0 0-0.09375 0zm-28.906 11.812c-2.2158 0-4.0312 1.8155-4.0312 4.0312s1.8155 4.0312 4.0312 4.0312 4.0312-1.8155 4.0312-4.0312-1.8155-4.0312-4.0312-4.0312zm10 0c-2.2158 0-4.0312 1.8155-4.0312 4.0312s1.8155 4.0312 4.0312 4.0312 4.0312-1.8155 4.0312-4.0312-1.8155-4.0312-4.0312-4.0312zm10 0c-2.2158 0-4.0312 1.8155-4.0312 4.0312s1.8155 4.0312 4.0312 4.0312 4.0312-1.8155 4.0312-4.0312-1.8155-4.0312-4.0312-4.0312z" opacity=".15"/>
  <path id="path3744" d="m27.594 25c-1.9944 0-3.5938 1.5994-3.5938 3.5938v26.844c0 1.9944 1.5994 3.625 3.5938 3.625h20.875c1.9944 0 3.5938-1.6306 3.5938-3.625v-26.844c0-1.9944-1.5994-3.5938-3.5938-3.5938h-20.875zm3.5938 5.9688h13.719c0.6648 0 1.1875 0.55395 1.1875 1.2188v19.688c0 0.6648-0.5227 1.2188-1.1875 1.2188h-13.719c-0.6648 0-1.2188-0.55395-1.2188-1.2188v-19.688c0-0.6648 0.55395-1.2188 1.2188-1.2188zm24.906 14.062v1.9062h9.9062v-1.9062h-9.9062zm0 4.0625v3.8438h9.9062v-3.8438h-9.9062zm0 6.0625v5.8438h-5.6875l10.75 12 10.844-12h-6v-5.8438h-9.9062zm-29.094 11.844c-1.6569 0-3 1.3431-3 3s1.3431 3 3 3 3-1.3431 3-3-1.3431-3-3-3zm10 0c-1.6569 0-3 1.3431-3 3s1.3431 3 3 3 3-1.3431 3-3-1.3431-3-3-3zm10 0c-1.6569 0-3 1.3431-3 3s1.3431 3 3 3 3-1.3431 3-3-1.3431-3-3-3z" opacity=".3"/>
  <path id="path3164" d="m27.594 24c-1.9944 0-3.5938 1.5994-3.5938 3.5938v26.844c0 1.9944 1.5994 3.625 3.5938 3.625h20.875c1.9944 0 3.5938-1.6306 3.5938-3.625v-26.844c0-1.9944-1.5994-3.5938-3.5938-3.5938h-20.875zm3.5938 5.9688h13.719c0.6648 0 1.1875 0.55395 1.1875 1.2188v19.688c0 0.6648-0.5227 1.2188-1.1875 1.2188h-13.719c-0.6648 0-1.2188-0.55395-1.2188-1.2188v-19.688c0-0.6648 0.55395-1.2188 1.2188-1.2188zm24.906 14.062v1.9062h9.9062v-1.9062h-9.9062zm0 4.0625v3.8438h9.9062v-3.8438h-9.9062zm0 6.0625v5.8438h-5.6875l10.75 12 10.844-12h-6v-5.8438h-9.9062zm-29.094 11.844c-1.6569 0-3 1.3431-3 3s1.3431 3 3 3 3-1.3431 3-3-1.3431-3-3-3zm10 0c-1.6569 0-3 1.3431-3 3s1.3431 3 3 3 3-1.3431 3-3-1.3431-3-3-3zm10 0c-1.6569 0-3 1.3431-3 3s1.3431 3 3 3 3-1.3431 3-3-1.3431-3-3-3z" color="#000000" fill="url(#linearGradient4002)"/>
  <path id="path3939" d="m27.594 24c-1.9944 0-3.5938 1.5994-3.5938 3.5938v1c0-1.9944 1.5994-3.5938 3.5938-3.5938h20.875c1.9944 0 3.5938 1.5994 3.5938 3.5938v-1c0-1.9944-1.5994-3.5938-3.5938-3.5938h-20.875zm28.5 20.031v1h9.9062v-1h-9.9062zm0 4.0625v1h9.9062v-1h-9.9062zm-26.125 2.7812v1c0 0.6648 0.55395 1.2188 1.2188 1.2188h13.719c0.6648 0 1.1875-0.55395 1.1875-1.2188v-1c0 0.6648-0.5227 1.2188-1.1875 1.2188h-13.719c-0.6648 0-1.2188-0.55395-1.2188-1.2188zm26.125 3.2812v1h9.9062v-1h-9.9062zm-5.6875 5.8438 0.90625 1h4.7812v-1h-5.6875zm15.594 0v1h5.0938l0.90625-1h-6zm-39 6c-1.6569 0-3 1.3431-3 3 0 0.17476 0.03382 0.33342 0.0625 0.5 0.24322-1.4126 1.4554-2.5 2.9375-2.5s2.6943 1.0874 2.9375 2.5c0.028679-0.16658 0.0625-0.32524 0.0625-0.5 0-1.6569-1.3431-3-3-3zm10 0c-1.6569 0-3 1.3431-3 3 0 0.17476 0.03382 0.33342 0.0625 0.5 0.24322-1.4126 1.4554-2.5 2.9375-2.5s2.6943 1.0874 2.9375 2.5c0.028679-0.16658 0.0625-0.32524 0.0625-0.5 0-1.6569-1.3431-3-3-3zm10 0c-1.6569 0-3 1.3431-3 3 0 0.17476 0.03382 0.33342 0.0625 0.5 0.24322-1.4126 1.4554-2.5 2.9375-2.5s2.6943 1.0874 2.9375 2.5c0.028679-0.16658 0.0625-0.32524 0.0625-0.5 0-1.6569-1.3431-3-3-3z" color="#000000" fill="#fff" opacity=".75"/>
  <path id="path3944" d="m31.188 28.969c-0.6648 0-1.2188 0.55395-1.2188 1.2188v1c0-0.6648 0.55395-1.2188 1.2188-1.2188h13.719c0.6648 0 1.1875 0.55395 1.1875 1.2188v-1c0-0.6648-0.5227-1.2188-1.1875-1.2188h-13.719zm24.906 15.969v1h9.9062v-1h-9.9062zm0 6v1h9.9062v-1h-9.9062zm-32.094 2.5v1c0 1.9944 1.5994 3.625 3.5938 3.625h20.875c1.9944 0 3.5938-1.6306 3.5938-3.625v-1c0 1.9944-1.5994 3.625-3.5938 3.625h-20.875c-1.9944 0-3.5938-1.6306-3.5938-3.625zm26.406 6.5625 10.75 12 10.844-12h-0.90625l-9.9375 11-9.8438-11h-0.90625zm-26.344 8.5c-0.028679 0.16658-0.0625 0.32524-0.0625 0.5 0 1.6569 1.3431 3 3 3s3-1.3431 3-3c0-0.17476-0.03382-0.33342-0.0625-0.5-0.24322 1.4126-1.4554 2.5-2.9375 2.5s-2.6943-1.0874-2.9375-2.5zm10 0c-0.028679 0.16658-0.0625 0.32524-0.0625 0.5 0 1.6569 1.3431 3 3 3s3-1.3431 3-3c0-0.17476-0.03382-0.33342-0.0625-0.5-0.24322 1.4126-1.4554 2.5-2.9375 2.5s-2.6943-1.0874-2.9375-2.5zm10 0c-0.028679 0.16658-0.0625 0.32524-0.0625 0.5 0 1.6569 1.3431 3 3 3s3-1.3431 3-3c0-0.17476-0.03382-0.33342-0.0625-0.5-0.24322 1.4126-1.4554 2.5-2.9375 2.5s-2.6943-1.0874-2.9375-2.5z" color="#000000" opacity=".15"/>
 </g>
</svg>
