<?xml version="1.0" encoding="UTF-8"?>
<svg id="svg2408" width="96" height="96" version="1.0" xmlns="http://www.w3.org/2000/svg" xmlns:cc="http://creativecommons.org/ns#" xmlns:dc="http://purl.org/dc/elements/1.1/" xmlns:rdf="http://www.w3.org/1999/02/22-rdf-syntax-ns#" xmlns:xlink="http://www.w3.org/1999/xlink">
 <defs id="defs2410">
  <linearGradient id="linearGradient3637">
   <stop id="stop3639" stop-color="#f0f0f0" offset="0"/>
   <stop id="stop3641" stop-color="#aaa" offset="1"/>
  </linearGradient>
  <linearGradient id="ButtonShadow" x1="45.448" x2="45.448" y1="92.54" y2="7.0165" gradientTransform="scale(1.0059 .99417)" gradientUnits="userSpaceOnUse">
   <stop id="stop3750" offset="0"/>
   <stop id="stop3752" stop-opacity=".58824" offset="1"/>
  </linearGradient>
  <linearGradient id="linearGradient3737">
   <stop id="stop3739" stop-color="#fff" offset="0"/>
   <stop id="stop3741" stop-color="#fff" stop-opacity="0" offset="1"/>
  </linearGradient>
  <filter id="filter3174" color-interpolation-filters="sRGB">
   <feGaussianBlur id="feGaussianBlur3176" stdDeviation="1.71"/>
  </filter>
  <linearGradient id="linearGradient3188" x1="36.357" x2="36.357" y1="6" y2="63.893" gradientUnits="userSpaceOnUse" xlink:href="#linearGradient3737"/>
  <filter id="filter3794" x="-.192" y="-.192" width="1.384" height="1.384" color-interpolation-filters="sRGB">
   <feGaussianBlur id="feGaussianBlur3796" stdDeviation="5.28"/>
  </filter>
  <linearGradient id="linearGradient3613" x1="48" x2="48" y1="20.221" y2="138.66" gradientUnits="userSpaceOnUse" xlink:href="#linearGradient3737"/>
  <radialGradient id="radialGradient3619" cx="48" cy="90.172" r="42" gradientTransform="matrix(1.1573 0 0 .99591 -7.551 .19713)" gradientUnits="userSpaceOnUse" xlink:href="#linearGradient3737"/>
  <clipPath id="clipPath3613">
   <rect id="rect3615" x="6" y="6" width="84" height="84" rx="6" ry="6" fill="#fff"/>
  </clipPath>
  <linearGradient id="linearGradient2843" x1="48" x2="48" y1="90" y2="5.9877" gradientTransform="translate(0,100)" gradientUnits="userSpaceOnUse">
   <stop id="stop3702" stop-color="#2276c5" offset="0"/>
   <stop id="stop3704" stop-color="#68baf4" offset="1"/>
  </linearGradient>
  <clipPath id="clipPath3625">
   <path id="path3627" d="m0 0v96h96v-96h-96zm12 6h72c3.324 0 6 2.676 6 6v72c0 3.324-2.676 6-6 6h-72c-3.324 0-6-2.676-6-6v-72c0-3.324 2.676-6 6-6z" fill="#fff"/>
  </clipPath>
  <linearGradient id="linearGradient3643" x1="44.512" x2="44.512" y1="6" y2="90.015" gradientUnits="userSpaceOnUse" xlink:href="#linearGradient3637"/>
  <clipPath id="clipPath3649">
   <rect id="rect3651" x="10" y="10" width="76" height="76" rx="4" ry="4" fill="#fff"/>
  </clipPath>
  <filter id="filter3657" color-interpolation-filters="sRGB">
   <feGaussianBlur id="feGaussianBlur3659" stdDeviation="1.14"/>
  </filter>
  <linearGradient id="ButtonShadow-0" x1="45.448" x2="45.448" y1="92.54" y2="7.0165" gradientTransform="matrix(1.0059 0 0 .99417 100 0)" gradientUnits="userSpaceOnUse">
   <stop id="stop3750-8" offset="0"/>
   <stop id="stop3752-5" stop-opacity=".58824" offset="1"/>
  </linearGradient>
  <linearGradient id="linearGradient3780" x1="32.251" x2="32.251" y1="6.1317" y2="90.239" gradientTransform="matrix(1.0238 0 0 -1.0119 -1.1429 98.071)" gradientUnits="userSpaceOnUse" xlink:href="#ButtonShadow-0"/>
  <linearGradient id="linearGradient3721" x1="32.251" x2="32.251" y1="6.1317" y2="90.239" gradientTransform="matrix(1,0,0,-1,0,97)" gradientUnits="userSpaceOnUse" xlink:href="#ButtonShadow-0"/>
  <radialGradient id="radialGradient3619-3" cx="48" cy="90.172" r="42" gradientTransform="matrix(1.1573 0 0 .99591 -7.551 .19713)" gradientUnits="userSpaceOnUse" xlink:href="#linearGradient3737"/>
  <linearGradient id="linearGradient3905" x1="104" x2="120" y1="8" y2="8" gradientTransform="translate(-104,104)" gradientUnits="userSpaceOnUse" xlink:href="#linearGradient3637"/>
  <linearGradient id="linearGradient3913" x1="104" x2="120" y1="8" y2="8" gradientTransform="translate(-144,104)" gradientUnits="userSpaceOnUse">
   <stop id="stop3185-9" stop-color="#c80000" offset="0"/>
   <stop id="stop3187-6" stop-color="#f3604d" offset="1"/>
  </linearGradient>
  <linearGradient id="linearGradient3919" x1="8.4921" x2="8.4921" y1="21.511" y2="10.134" gradientTransform="matrix(-4.3842 0 0 -2.1096 82.231 77.379)" gradientUnits="userSpaceOnUse" xlink:href="#linearGradient3637"/>
 </defs>
 <metadata id="metadata2413">
  <rdf:RDF>
   <cc:Work rdf:about="">
    <dc:format>image/svg+xml</dc:format>
    <dc:type rdf:resource="http://purl.org/dc/dcmitype/StillImage"/>
    <dc:title/>
   </cc:Work>
  </rdf:RDF>
 </metadata>
 <g id="layer2" display="none">
  <rect id="rect3745" x="5" y="7" width="86" height="85" rx="6" ry="6" clip-path="url(#clipPath3625)" fill="url(#ButtonShadow)" filter="url(#filter3174)" opacity=".9"/>
 </g>
 <g id="layer3">
  <path id="path3786" d="m12 3.9688c-5.5111 0-10.031 4.5202-10.031 10.031v71c0 5.5111 4.5202 10.031 10.031 10.031h72c5.5111 0 10.031-4.5202 10.031-10.031v-71c0-5.5111-4.5202-10.031-10.031-10.031h-72zm0 2.0312h72c3.324 0 6 2.676 6 6v72c0 3.324-2.676 6-6 6h-72c-3.324 0-6-2.676-6-6v-72c0-3.324 2.676-6 6-6z" fill="url(#linearGradient3780)" opacity=".08"/>
  <path id="path3778" d="m12 4.9688c-4.9716 0-9.0312 4.0596-9.0312 9.0312v71c0 4.9716 4.0596 9.0312 9.0312 9.0312h72c4.9716 0 9.0312-4.0596 9.0312-9.0312v-71c0-4.9716-4.0596-9.0312-9.0312-9.0312h-72zm0 1.0312h72c3.324 0 6 2.676 6 6v72c0 3.324-2.676 6-6 6h-72c-3.324 0-6-2.676-6-6v-72c0-3.324 2.676-6 6-6z" fill="url(#linearGradient3780)" opacity=".1"/>
  <path id="path3770" d="m11.188 6.0312c-4.0275 0.41065-7.1875 3.8352-7.1875 7.9688v71c0 4.4091 3.5909 8 8 8h72c4.4091 0 8-3.5909 8-8v-71c0-4.1971-3.259-7.646-7.375-7.9688 3.0329 0.30617 5.375 2.8525 5.375 5.9688v72c0 3.324-2.676 6-6 6h-72c-3.324 0-6-2.676-6-6v-72c0-3.1162 2.3421-5.6626 5.375-5.9688-0.06227 0.00488-0.12563-0.00631-0.1875 0z" fill="url(#linearGradient3780)" opacity=".2"/>
  <path id="rect3723" d="m6.4375 9.75c-0.89949 1.1774-1.4375 2.6473-1.4375 4.25v71c0 3.878 3.122 7 7 7h72c3.878 0 7-3.122 7-7v-71c0-1.6027-0.53801-3.0726-1.4375-4.25 0.27932 0.6941 0.4375 1.4536 0.4375 2.25v72c0 3.324-2.676 6-6 6h-72c-3.324 0-6-2.676-6-6v-72c0-0.79638 0.15818-1.5559 0.4375-2.25z" fill="url(#linearGradient3780)" opacity=".3"/>
  <path id="rect3716" d="m6 84v1c0 3.324 2.676 6 6 6h72c3.324 0 6-2.676 6-6v-1c0 3.324-2.676 6-6 6h-72c-3.324 0-6-2.676-6-6z" fill="url(#linearGradient3721)" opacity=".45"/>
 </g>
 <g id="layer1" display="none">
  <rect id="rect2419" x="6" y="6" width="84" height="84" rx="6" ry="6" opacity=".8"/>
  <path id="rect3726" d="m14 10c-2.216 0-4 1.784-4 4v68c0 2.216 1.784 4 4 4h68c2.216 0 4-1.784 4-4v-68c0-2.216-1.784-4-4-4h-68zm0 3.0625h68c0.57877 0 0.9375 0.35873 0.9375 0.9375v68c0 0.57877-0.35873 0.9375-0.9375 0.9375h-68c-0.57877 0-0.9375-0.35873-0.9375-0.9375v-68c0-0.57877 0.35873-0.9375 0.9375-0.9375z" opacity=".08"/>
  <path id="rect3629" d="m12 6c-3.324 0-6 2.676-6 6v72c0 3.324 2.676 6 6 6h72c3.324 0 6-2.676 6-6v-72c0-3.324-2.676-6-6-6h-72zm2 4h68c2.216 0 4 1.784 4 4v68c0 2.216-1.784 4-4 4h-68c-2.216 0-4-1.784-4-4v-68c0-2.216 1.784-4 4-4z" fill="url(#linearGradient3643)"/>
  <path id="rect3728" d="m12 6c-3.324 0-6 2.676-6 6v2 68 2c0 0.33472 0.04135 0.6507 0.09375 0.96875 0.0487 0.2956 0.09704 0.59692 0.1875 0.875 0.00988 0.03038 0.020892 0.0636 0.03125 0.09375 0.098865 0.28777 0.23488 0.54745 0.375 0.8125 0.14459 0.27351 0.31562 0.53562 0.5 0.78125s0.37378 0.47347 0.59375 0.6875c0.43995 0.42806 0.94291 0.81453 1.5 1.0938 0.27854 0.13961 0.57347 0.24695 0.875 0.34375-0.2562-0.10022-0.48671-0.23627-0.71875-0.375-0.00741-0.0044-0.023866 0.0045-0.03125 0-0.031933-0.0193-0.062293-0.04251-0.09375-0.0625-0.1204-0.0767-0.23102-0.16351-0.34375-0.25-0.10617-0.0808-0.21328-0.16111-0.3125-0.25-0.17793-0.16143-0.34746-0.34539-0.5-0.53125-0.10758-0.13026-0.21839-0.26528-0.3125-0.40625-0.025089-0.03838-0.038446-0.08587-0.0625-0.125-0.064763-0.10303-0.13023-0.20452-0.1875-0.3125-0.10101-0.19471-0.20567-0.4157-0.28125-0.625-0.00796-0.02181-0.023589-0.04055-0.03125-0.0625-0.031825-0.09195-0.035804-0.18683-0.0625-0.28125-0.030332-0.10662-0.070389-0.20303-0.09375-0.3125-0.072879-0.34151-0.125-0.6982-0.125-1.0625v-2-68-2c0-2.7818 2.2182-5 5-5h2 68 2c2.7818 0 5 2.2182 5 5v2 68 2c0 0.3643-0.05212 0.72099-0.125 1.0625-0.04415 0.20689-0.08838 0.39766-0.15625 0.59375-0.0077 0.02195-0.0233 0.04069-0.03125 0.0625-0.06274 0.17374-0.13838 0.36745-0.21875 0.53125-0.04158 0.0828-0.07904 0.16995-0.125 0.25-0.0546 0.09721-0.12677 0.18835-0.1875 0.28125-0.09411 0.14096-0.20492 0.276-0.3125 0.40625-0.14317 0.17445-0.30314 0.347-0.46875 0.5-0.01117 0.0102-0.01998 0.02115-0.03125 0.03125-0.13839 0.12556-0.28509 0.23444-0.4375 0.34375-0.10257 0.07315-0.20432 0.15336-0.3125 0.21875-0.0074 0.0045-0.02384-0.0044-0.03125 0-0.23204 0.13873-0.46255 0.27478-0.71875 0.375 0.30153-0.0968 0.59646-0.20414 0.875-0.34375 0.55709-0.27922 1.0601-0.66569 1.5-1.0938 0.21997-0.21403 0.40937-0.44186 0.59375-0.6875s0.35541-0.50774 0.5-0.78125c0.14012-0.26505 0.27614-0.52473 0.375-0.8125 0.01041-0.03078 0.02133-0.06274 0.03125-0.09375 0.09046-0.27808 0.1388-0.5794 0.1875-0.875 0.0524-0.31805 0.09375-0.63403 0.09375-0.96875v-2-68-2c0-3.324-2.676-6-6-6h-72z" fill="url(#linearGradient3188)"/>
  <path id="path3615" d="m12 90c-3.324 0-6-2.676-6-6v-2-68-2c0-0.33472 0.04135-0.6507 0.09375-0.96875 0.0487-0.2956 0.09704-0.59692 0.1875-0.875 0.00988-0.03038 0.020892-0.0636 0.03125-0.09375 0.098865-0.28777 0.23488-0.54745 0.375-0.8125 0.14459-0.27351 0.31562-0.53562 0.5-0.78125s0.37378-0.47347 0.59375-0.6875c0.43995-0.42806 0.94291-0.81453 1.5-1.0938 0.27854-0.13961 0.57347-0.24695 0.875-0.34375-0.2562 0.10022-0.48671 0.23627-0.71875 0.375-0.00741 0.0044-0.023866-0.0045-0.03125 0-0.031933 0.0193-0.062293 0.04251-0.09375 0.0625-0.1204 0.0767-0.23102 0.16351-0.34375 0.25-0.10617 0.0808-0.21328 0.16111-0.3125 0.25-0.17793 0.16143-0.34746 0.34539-0.5 0.53125-0.10758 0.13026-0.21839 0.26528-0.3125 0.40625-0.025089 0.03838-0.038446 0.08587-0.0625 0.125-0.064763 0.10303-0.13023 0.20452-0.1875 0.3125-0.10101 0.19471-0.20567 0.4157-0.28125 0.625-0.00796 0.02181-0.023589 0.04055-0.03125 0.0625-0.031825 0.09195-0.035804 0.18683-0.0625 0.28125-0.030332 0.10662-0.070389 0.20303-0.09375 0.3125-0.072879 0.34151-0.125 0.6982-0.125 1.0625v2 68 2c0 2.7818 2.2182 5 5 5h2 68 2c2.7818 0 5-2.2182 5-5v-2-68-2c0-0.3643-0.05212-0.72099-0.125-1.0625-0.04415-0.20689-0.08838-0.39766-0.15625-0.59375-0.0077-0.02195-0.0233-0.04069-0.03125-0.0625-0.06274-0.17374-0.13838-0.36745-0.21875-0.53125-0.04158-0.0828-0.07904-0.16995-0.125-0.25-0.0546-0.09721-0.12677-0.18835-0.1875-0.28125-0.09411-0.14096-0.20492-0.276-0.3125-0.40625-0.14317-0.17445-0.30314-0.347-0.46875-0.5-0.01117-0.0102-0.01998-0.02115-0.03125-0.03125-0.13839-0.12556-0.28509-0.23444-0.4375-0.34375-0.10257-0.07315-0.20432-0.15336-0.3125-0.21875-0.0074-0.0045-0.02384 0.0044-0.03125 0-0.23204-0.13873-0.46255-0.27478-0.71875-0.375 0.30153 0.0968 0.59646 0.20414 0.875 0.34375 0.55709 0.27922 1.0601 0.66569 1.5 1.0938 0.21997 0.21403 0.40937 0.44186 0.59375 0.6875s0.35541 0.50774 0.5 0.78125c0.14012 0.26505 0.27614 0.52473 0.375 0.8125 0.01041 0.03078 0.02133 0.06274 0.03125 0.09375 0.09046 0.27808 0.1388 0.5794 0.1875 0.875 0.0524 0.31805 0.09375 0.63403 0.09375 0.96875v2 68 2c0 3.324-2.676 6-6 6h-72z" fill="url(#radialGradient3619)" opacity=".6"/>
  <rect id="rect2841" x="6" y="106" width="84" height="84" rx="6" ry="6" fill="url(#linearGradient2843)"/>
  <rect id="rect3634" x="10" y="110" width="76" height="76" rx="4" ry="4" fill="#f00"/>
  <path id="rect3647" transform="translate(-110)" d="m14 9c-2.7527 0-5 2.2473-5 5v68c0 2.7527 2.2473 5 5 5h68c2.7527 0 5-2.2473 5-5v-68c0-2.7527-2.2473-5-5-5h-68zm0 2h68c1.6793 0 3 1.3207 3 3v68c0 1.6793-1.3207 3-3 3h-68c-1.6793 0-3-1.3207-3-3v-68c0-1.6793 1.3207-3 3-3z" clip-path="url(#clipPath3649)" color="#000000" display="inline" filter="url(#filter3657)" style="block-progression:tb;text-indent:0;text-transform:none"/>
  <path id="path3709" d="m14.089 10c-2.216 0-4 1.784-4 4v68c0 2.216 1.784 4 4 4h68c2.216 0 4-1.784 4-4v-68c0-2.216-1.784-4-4-4h-68zm0 2h68c1.1403 0 2 0.8597 2 2v68c0 1.1403-0.8597 2-2 2h-68c-1.1403 0-2-0.8597-2-2v-68c0-1.1403 0.8597-2 2-2z" opacity=".16"/>
  <path id="path3707" d="m14 10c-2.216 0-4 1.784-4 4v68c0 2.216 1.784 4 4 4h68c2.216 0 4-1.784 4-4v-68c0-2.216-1.784-4-4-4h-68zm0 1h68c1.6738 0 3 1.3262 3 3v68c0 1.6738-1.3262 3-3 3h-68c-1.6738 0-3-1.3262-3-3v-68c0-1.6738 1.3262-3 3-3z" opacity=".36"/>
 </g>
 <g id="layer4">
  <rect id="rect2419-9" x="6" y="6" width="84" height="84" rx="6" ry="6" opacity=".6"/>
  <path id="rect3728-4" d="m12 6c-3.324 0-6 2.676-6 6v2 68 2c0 0.33472 0.04135 0.6507 0.09375 0.96875 0.0487 0.2956 0.09704 0.59692 0.1875 0.875 0.00988 0.03038 0.020892 0.0636 0.03125 0.09375 0.098865 0.28777 0.23488 0.54745 0.375 0.8125 0.14459 0.27351 0.31562 0.53562 0.5 0.78125s0.37378 0.47347 0.59375 0.6875c0.43995 0.42806 0.94291 0.81453 1.5 1.0938 0.27854 0.13961 0.57347 0.24695 0.875 0.34375-0.2562-0.10022-0.48671-0.23627-0.71875-0.375-0.00741-0.0044-0.023866 0.0045-0.03125 0-0.031933-0.0193-0.062293-0.04251-0.09375-0.0625-0.1204-0.0767-0.23102-0.16351-0.34375-0.25-0.10617-0.0808-0.21328-0.16111-0.3125-0.25-0.17793-0.16143-0.34746-0.34539-0.5-0.53125-0.10758-0.13026-0.21839-0.26528-0.3125-0.40625-0.025089-0.03838-0.038446-0.08587-0.0625-0.125-0.064763-0.10303-0.13023-0.20452-0.1875-0.3125-0.10101-0.19471-0.20567-0.4157-0.28125-0.625-0.00796-0.02181-0.023589-0.04055-0.03125-0.0625-0.031825-0.09195-0.035804-0.18683-0.0625-0.28125-0.030332-0.10662-0.070389-0.20303-0.09375-0.3125-0.072879-0.34151-0.125-0.6982-0.125-1.0625v-2-68-2c0-2.7818 2.2182-5 5-5h2 68 2c2.7818 0 5 2.2182 5 5v2 68 2c0 0.3643-0.05212 0.72099-0.125 1.0625-0.04415 0.20689-0.08838 0.39766-0.15625 0.59375-0.0077 0.02195-0.0233 0.04069-0.03125 0.0625-0.06274 0.17374-0.13838 0.36745-0.21875 0.53125-0.04158 0.0828-0.07904 0.16995-0.125 0.25-0.0546 0.09721-0.12677 0.18835-0.1875 0.28125-0.09411 0.14096-0.20492 0.276-0.3125 0.40625-0.14317 0.17445-0.30314 0.347-0.46875 0.5-0.01117 0.0102-0.01998 0.02115-0.03125 0.03125-0.13839 0.12556-0.28509 0.23444-0.4375 0.34375-0.10257 0.07315-0.20432 0.15336-0.3125 0.21875-0.0074 0.0045-0.02384-0.0044-0.03125 0-0.23204 0.13873-0.46255 0.27478-0.71875 0.375 0.30153-0.0968 0.59646-0.20414 0.875-0.34375 0.55709-0.27922 1.0601-0.66569 1.5-1.0938 0.21997-0.21403 0.40937-0.44186 0.59375-0.6875s0.35541-0.50774 0.5-0.78125c0.14012-0.26505 0.27614-0.52473 0.375-0.8125 0.01041-0.03078 0.02133-0.06274 0.03125-0.09375 0.09046-0.27808 0.1388-0.5794 0.1875-0.875 0.0524-0.31805 0.09375-0.63403 0.09375-0.96875v-2-68-2c0-3.324-2.676-6-6-6h-72z" fill="url(#linearGradient3188)" opacity=".01"/>
  <path id="path3615-6" d="m12 90c-3.324 0-6-2.676-6-6v-2-68-2c0-0.33472 0.04135-0.6507 0.09375-0.96875 0.0487-0.2956 0.09704-0.59692 0.1875-0.875 0.00988-0.03038 0.020892-0.0636 0.03125-0.09375 0.098865-0.28777 0.23488-0.54745 0.375-0.8125 0.14459-0.27351 0.31562-0.53562 0.5-0.78125s0.37378-0.47347 0.59375-0.6875c0.43995-0.42806 0.94291-0.81453 1.5-1.0938 0.27854-0.13961 0.57347-0.24695 0.875-0.34375-0.2562 0.10022-0.48671 0.23627-0.71875 0.375-0.00741 0.0044-0.023866-0.0045-0.03125 0-0.031933 0.0193-0.062293 0.04251-0.09375 0.0625-0.1204 0.0767-0.23102 0.16351-0.34375 0.25-0.10617 0.0808-0.21328 0.16111-0.3125 0.25-0.17793 0.16143-0.34746 0.34539-0.5 0.53125-0.10758 0.13026-0.21839 0.26528-0.3125 0.40625-0.025089 0.03838-0.038446 0.08587-0.0625 0.125-0.064763 0.10303-0.13023 0.20452-0.1875 0.3125-0.10101 0.19471-0.20567 0.4157-0.28125 0.625-0.00796 0.02181-0.023589 0.04055-0.03125 0.0625-0.031825 0.09195-0.035804 0.18683-0.0625 0.28125-0.030332 0.10662-0.070389 0.20303-0.09375 0.3125-0.072879 0.34151-0.125 0.6982-0.125 1.0625v2 68 2c0 2.7818 2.2182 5 5 5h2 68 2c2.7818 0 5-2.2182 5-5v-2-68-2c0-0.3643-0.05212-0.72099-0.125-1.0625-0.04415-0.20689-0.08838-0.39766-0.15625-0.59375-0.0077-0.02195-0.0233-0.04069-0.03125-0.0625-0.06274-0.17374-0.13838-0.36745-0.21875-0.53125-0.04158-0.0828-0.07904-0.16995-0.125-0.25-0.0546-0.09721-0.12677-0.18835-0.1875-0.28125-0.09411-0.14096-0.20492-0.276-0.3125-0.40625-0.14317-0.17445-0.30314-0.347-0.46875-0.5-0.01117-0.0102-0.01998-0.02115-0.03125-0.03125-0.13839-0.12556-0.28509-0.23444-0.4375-0.34375-0.10257-0.07315-0.20432-0.15336-0.3125-0.21875-0.0074-0.0045-0.02384 0.0044-0.03125 0-0.23204-0.13873-0.46255-0.27478-0.71875-0.375 0.30153 0.0968 0.59646 0.20414 0.875 0.34375 0.55709 0.27922 1.0601 0.66569 1.5 1.0938 0.21997 0.21403 0.40937 0.44186 0.59375 0.6875s0.35541 0.50774 0.5 0.78125c0.14012 0.26505 0.27614 0.52473 0.375 0.8125 0.01041 0.03078 0.02133 0.06274 0.03125 0.09375 0.09046 0.27808 0.1388 0.5794 0.1875 0.875 0.0524 0.31805 0.09375 0.63403 0.09375 0.96875v2 68 2c0 3.324-2.676 6-6 6h-72z" fill="url(#radialGradient3619-3)" opacity=".15"/>
 </g>
 <g id="layer5" display="none">
  <rect id="rect3171" x="15" y="15" width="66" height="66" rx="12" ry="12" clip-path="url(#clipPath3613)" fill="url(#linearGradient3613)" filter="url(#filter3794)" opacity=".1" stroke="#fff" stroke-linecap="round" stroke-width=".5"/>
 </g>
 <g id="layer6">
  <path id="path3949" d="m50.125 30.938c-6.0029-0.02456-11.932 2.1002-16.812 6.0938l-4.6562-4.625v0.03125c5.8e-4 5.99e-4 -0.02679 0.0043-0.03125 0l0.03125-0.03125c-0.0223-0.02138-0.09685-0.06529-0.09375-0.0625 0.0037 0.0033-0.09769-0.09683-0.09375-0.09375 0.0039 0.0031-0.12914-0.09655-0.125-0.09375 0.0041 0.0028-0.09808-0.06501-0.09375-0.0625 0.0043 0.0025-0.12949-0.06471-0.125-0.0625 0.0045 0.0022-0.12963-0.06439-0.125-0.0625 0.0046 0.0019-0.12975-0.03282-0.125-0.03125 0.0048 0.0016-0.1611-0.06374-0.15625-0.0625 0.0049 0.0012-0.12992-0.03215-0.125-0.03125 0.0049 8.98e-4 -0.12997-5.56e-4 -0.125 0 5e-3 5.56e-4 -0.16125-0.03146-0.15625-0.03125 5e-3 2.12e-4 -0.13 1.34e-4 -0.125 0 5e-3 -1.34e-4 -0.12998 0.03173-0.125 0.03125 5e-3 -4.78e-4 -0.16119 8.21e-4 -0.15625 0 0.0049-8.21e-4 -0.12987 0.03241-0.125 0.03125 0.0049-0.0012-0.12978 0.03274-0.125 0.03125 0.0048-0.0015-0.12966 0.06432-0.125 0.0625 0.0047-0.0018-0.12953 0.03339-0.125 0.03125 0.0045-0.0021-0.12937 0.06494-0.125 0.0625 0.0044-0.0024-0.12919 0.09649-0.125 0.09375 0.0042-0.0027-0.09774 0.06552-0.09375 0.0625 4e-3 -3e-3 -0.12877 0.09704-0.125 0.09375 0.0038-0.0033-0.09729 0.09729-0.09375 0.09375 0.0035-0.0035-0.09703 0.09753-0.09375 0.09375 0.0033-0.0038-0.09677 0.09775-0.09375 0.09375 3e-3 -4e-3 -0.06523 0.12919-0.0625 0.125 0.0027-0.0042-0.06494 0.12937-0.0625 0.125 0.0024-0.0044-0.06463 0.12953-0.0625 0.125 0.0021-0.0045-0.06431 0.12967-0.0625 0.125 0.0018-0.0047-0.06398 0.12978-0.0625 0.125 0.0015-0.0048-0.0324 0.12987-0.03125 0.125 0.0012-0.0049-0.03206 0.12994-0.03125 0.125l-4.2188 23.156h0.03125c-0.0053 0.03307-0.03169 0.09711-0.03125 0.09375 5.78e-4 -0.0044-3.09e-4 0.12942 0 0.125 3.09e-4 -0.0044-0.03129 0.12943-0.03125 0.125 3.9e-5 -0.0044 2.32e-4 0.12942 0 0.125-2.32e-4 -0.0044 0.03175 0.1294 0.03125 0.125-5.01e-4 -0.0044 7.69e-4 0.09811 0 0.09375-7.69e-4 -0.0044 0.03228 0.12931 0.03125 0.125-1e-3 -0.0043 0.03254 0.12923 0.03125 0.125-0.0013-0.0042 0.0328 0.12915 0.03125 0.125-0.0016-0.0041 0.0643 0.09779 0.0625 0.09375-0.0018-4e-3 0.06454 0.12893 0.0625 0.125-2e-3 -0.0039 0.03353 0.09754 0.03125 0.09375-0.0023-0.0038 0.09626 0.0974 0.09375 0.09375-0.0025-0.0036 0.06523 0.09724 0.0625 0.09375-0.0027-0.0035 0.06543 0.09707 0.0625 0.09375-0.0029-0.0033 0.09688 0.09688 0.09375 0.09375-0.0031-0.0031 0.09707 0.09668 0.09375 0.09375-0.0033-0.0029 0.09724 0.06523 0.09375 0.0625-0.0035-0.0027 0.0974 0.06501 0.09375 0.0625-0.0036-0.0025 0.09755 0.09603 0.09375 0.09375-0.0038-0.0023 0.09768 0.0333 0.09375 0.03125-0.0039-2e-3 0.12904 0.0643 0.125 0.0625-4e-3 -0.0018 0.0979 0.06405 0.09375 0.0625-0.0041-0.0016 0.12923 0.03254 0.125 0.03125-0.0042-0.0013 0.12931 0.03228 0.125 0.03125-0.0043-1e-3 0.12936 0.03202 0.125 0.03125-0.0044-7.69e-4 0.09815 5.01e-4 0.09375 0s0.12942 0.03148 0.125 0.03125c-0.0044-2.32e-4 0.12943-3.9e-5 0.125 0-0.0044 3.9e-5 0.12942-0.03156 0.125-0.03125-0.0044 3.09e-4 0.12939-5.78e-4 0.125 0-0.0034 4.42e-4 0.06068-0.02592 0.09375-0.03125v0.03125l23.219-4.2188c-0.0049 8.13e-4 0.12987-0.0324 0.125-0.03125-0.0049 0.0012 0.12978-0.03274 0.125-0.03125-0.0048 0.0015 0.12967-0.06431 0.125-0.0625-0.0047 0.0018 0.12953-0.06463 0.125-0.0625-0.0045 0.0021 0.12937-0.06494 0.125-0.0625-0.0044 0.0024 0.12919-0.06523 0.125-0.0625-0.0042 0.0027 0.129-0.06551 0.125-0.0625-4e-3 3e-3 0.09753-0.09703 0.09375-0.09375-0.0038 0.0033 0.09729-0.09729 0.09375-0.09375-0.0035 0.0035 0.09704-0.09752 0.09375-0.09375-0.0033 0.0038 0.09677-0.12899 0.09375-0.125-3e-3 4e-3 0.06524-0.09794 0.0625-0.09375-0.0027 0.0042 0.09619-0.12937 0.09375-0.125-0.0024 0.0044 0.06464-0.12953 0.0625-0.125-0.0021 0.0045 0.03307-0.12966 0.03125-0.125-0.0018 0.0047 0.06399-0.12978 0.0625-0.125-0.0015 0.0048 0.03241-0.12987 0.03125-0.125-0.0012 0.0049 0.03207-0.12994 0.03125-0.125-8.21e-4 0.0049 4.78e-4 -0.16123 0-0.15625-4.78e-4 5e-3 0.03138-0.13 0.03125-0.125-1.34e-4 5e-3 -2.12e-4 -0.13 0-0.125s-0.03181-0.16122-0.03125-0.15625c5.56e-4 5e-3 -8.98e-4 -0.12992 0-0.125 8.98e-4 0.0049-0.03249-0.12985-0.03125-0.125 0.0012 0.0048-0.06407-0.161-0.0625-0.15625 0.0016 0.0048-0.03314-0.12963-0.03125-0.125 0.0019 0.0046-0.06471-0.12949-0.0625-0.125 0.0022 0.0045-0.06501-0.12933-0.0625-0.125 0.0025 0.0043-0.0653-0.0979-0.0625-0.09375 0.0028 0.0041-0.09683-0.12894-0.09375-0.125 0.0031 0.0039-0.0971-0.09747-0.09375-0.09375 0.0028 0.0031-0.07237-0.0402-0.09375-0.0625l0.03125-0.03125h-0.03125l-4.4375-4.4375c4.8448-3.1762 11.309-2.8635 15.562 1.375 1.3803 1.3753 2.372 2.9872 2.9688 4.7188-0.0022-0.0064 0.06531 0.19371 0.0625 0.1875-0.0028-0.0062 0.09714 0.16217 0.09375 0.15625-0.0034-0.0059 0.09768 0.16182 0.09375 0.15625-0.0039-0.0056 0.12943 0.16143 0.125 0.15625-0.0044-0.0052 0.1299 0.12974 0.125 0.125-0.0049-0.0047 0.13032 0.12926 0.125 0.125-0.0053-0.0043 0.16195 0.12874 0.15625 0.125-0.0057-0.0037 0.16228 0.09694 0.15625 0.09375-6e-3 -0.0032 0.16255 0.06511 0.15625 0.0625-0.0063-0.0026 0.19402 0.06451 0.1875 0.0625-0.0065-2e-3 0.19418 0.06389 0.1875 0.0625-0.0067-0.0014 0.19428 0.032 0.1875 0.03125-0.0068-7.53e-4 0.19432 1.13e-4 0.1875 0-0.0068-1.13e-4 0.1943-5.27e-4 0.1875 0-0.0068 5.27e-4 0.16297-0.03241 0.15625-0.03125-0.0067 0.0012 0.19408-0.03304 0.1875-0.03125l9.4375-2.5312c-7e-3 0.0018 0.19429-0.065 0.1875-0.0625-0.0068 0.0025 0.194-0.06567 0.1875-0.0625-0.0065 0.0032 0.1624-0.09755 0.15625-0.09375-0.0062 0.0038 0.162-0.12939 0.15625-0.125-0.0057 0.0044 0.16153-0.12994 0.15625-0.125-0.0053 0.0049 0.16101-0.16169 0.15625-0.15625-0.0048 0.0054 0.09795-0.16214 0.09375-0.15625-0.0042 0.0059 0.12859-0.16253 0.125-0.15625-0.0036 0.0063 0.09669-0.16286 0.09375-0.15625-0.0029 0.0066 0.06477-0.19437 0.0625-0.1875-0.0023 0.0069 0.06408-0.19456 0.0625-0.1875-0.0016 0.0071 0.03212-0.22593 0.03125-0.21875-8.66e-4 0.0072 1.47e-4 -0.19473 0-0.1875-1.47e-4 0.0072-5.74e-4 -0.19471 0-0.1875 5.74e-4 0.0072-0.03254-0.22587-0.03125-0.21875 0.0013 0.0071-0.03324-0.19445-0.03125-0.1875-1.2101-3.9574-3.4048-7.6973-6.5312-10.812-5.0279-5.0097-11.657-7.5041-18.281-7.5312z" opacity=".1"/>
  <path id="path3945" d="m50.125 32.031c-6.0729-0.02485-12.117 2.1682-16.938 6.4375l-5.3125-5.2812a0.87956 0.87956 0 0 0-1.5 0.46875l-4.2188 23.156a0.87956 0.87956 0 0 0 1.0312 1.0312l23.219-4.2188a0.87956 0.87956 0 0 0 0.46875-1.5l-5.5-5.4688c5.3349-4.3423 13.188-4.1062 18.156 0.84375 1.5037 1.4983 2.5706 3.2754 3.2188 5.1562a0.87956 0.87956 0 0 0 1.0625 0.5625l9.4375-2.5312a0.87956 0.87956 0 0 0 0.625-1.0938c-1.1583-3.7881-3.2521-7.3567-6.25-10.344-4.8166-4.7991-11.148-7.1928-17.5-7.2188z" opacity=".15"/>
  <path id="path3939" d="m27.251 33.825-4.2239 23.131 23.215-4.2086-6.1951-6.1727c5.664-5.3011 14.569-5.1913 20.095 0.31424 1.6026 1.5968 2.7568 3.4748 3.4467 5.4768l9.4391-2.514c-1.1167-3.652-3.1192-7.1033-6.0149-9.9885-9.296-9.2623-24.435-9.2386-33.927-0.22447l-5.8346-5.8135z" opacity=".3"/>
  <rect id="rect3897" transform="matrix(0,1,1,0,0,0)" y="104" width="16" height="16" color="#000000" fill="url(#linearGradient3905)"/>
  <text id="text3907" x="104" y="48" fill="#000000" font-family="Liberation Sans" font-size="4px" letter-spacing="0px" word-spacing="0px" style="line-height:125%" xml:space="preserve"><tspan id="tspan3909" x="104" y="48">Shadow opacity : 30, 15, 10, (8)</tspan></text>
  <rect id="rect3911" transform="rotate(-90)" x="-40" y="104" width="16" height="16" color="#000000" fill="url(#linearGradient3913)"/>
  <text id="text3951" x="124" y="32" fill="#000000" font-family="Liberation Sans" font-size="4px" letter-spacing="0px" word-spacing="0px" style="line-height:125%" xml:space="preserve"><tspan id="tspan3953" x="124" y="32">Bevel opacity : 30 / 10</tspan></text>
  <text id="text3955" x="124" y="8" fill="#000000" font-family="Liberation Sans" font-size="4px" letter-spacing="0px" word-spacing="0px" style="line-height:125%" xml:space="preserve"><tspan id="tspan3957" x="124" y="8">Bevel opacity : 75 / 15</tspan></text>
  <path id="path3917" d="m27.251 32.825-4.2239 23.131 23.215-4.2086-6.1951-6.1727c5.664-5.3011 14.569-5.1913 20.095 0.31424 1.6026 1.5968 2.7568 3.4748 3.4467 5.4768l9.4391-2.514c-1.1167-3.652-3.1192-7.1033-6.0149-9.9885-9.296-9.2623-24.435-9.2386-33.927-0.22447l-5.8346-5.8135z" fill="url(#linearGradient3919)"/>
  <path id="path3921" d="m48.969 31.906c-5.7474 0.24406-11.426 2.4934-15.875 6.7188l-5.8438-5.8125-4.2188 23.156 0.1875-0.03125 4.0312-22.125 5.8438 5.8125c9.492-9.0142 24.61-9.0123 33.906 0.25 2.6519 2.6423 4.5594 5.7513 5.7188 9.0625l0.3125-0.09375c-1.1167-3.652-3.1355-7.0835-6.0312-9.9688-4.9385-4.9206-11.517-7.2453-18.031-6.9688zm-8.375 14.219c-0.18056 0.15313-0.3879 0.27409-0.5625 0.4375l5.375 5.3438 0.84375-0.15625-5.6562-5.625z" fill="#fff" opacity=".75"/>
  <path id="path3930" d="m50.156 40.688c-3.625-0.053-7.293 1.2245-10.125 3.875l0.5625 0.5625c5.677-4.8144 14.207-4.5858 19.562 0.75 1.6026 1.5968 2.7476 3.4979 3.4375 5.5l9.4375-2.5312c-0.09402-0.30748-0.20591-0.60183-0.3125-0.90625l-9.125 2.4375c-0.68995-2.0021-1.8349-3.9032-3.4375-5.5-2.7628-2.7528-6.375-4.1345-10-4.1875zm-4.75 10.219-22.188 4.0312-0.1875 1.0312 23.219-4.2188-0.84375-0.84375z" opacity=".15"/>
 </g>
</svg>
