<?xml version="1.0" encoding="UTF-8"?>
<svg id="svg2408" width="96" height="96" version="1.0" xmlns="http://www.w3.org/2000/svg" xmlns:cc="http://creativecommons.org/ns#" xmlns:dc="http://purl.org/dc/elements/1.1/" xmlns:rdf="http://www.w3.org/1999/02/22-rdf-syntax-ns#" xmlns:xlink="http://www.w3.org/1999/xlink">
 <defs id="defs2410">
  <linearGradient id="linearGradient3637">
   <stop id="stop3639" stop-color="#f0f0f0" offset="0"/>
   <stop id="stop3641" stop-color="#aaa" offset="1"/>
  </linearGradient>
  <linearGradient id="ButtonShadow" x1="45.448" x2="45.448" y1="92.54" y2="7.0165" gradientTransform="scale(1.0059 .99417)" gradientUnits="userSpaceOnUse">
   <stop id="stop3750" offset="0"/>
   <stop id="stop3752" stop-opacity=".58824" offset="1"/>
  </linearGradient>
  <linearGradient id="linearGradient3737">
   <stop id="stop3739" stop-color="#fff" offset="0"/>
   <stop id="stop3741" stop-color="#fff" stop-opacity="0" offset="1"/>
  </linearGradient>
  <filter id="filter3174" color-interpolation-filters="sRGB">
   <feGaussianBlur id="feGaussianBlur3176" stdDeviation="1.71"/>
  </filter>
  <linearGradient id="linearGradient3188" x1="36.357" x2="36.357" y1="6" y2="63.893" gradientUnits="userSpaceOnUse" xlink:href="#linearGradient3737"/>
  <filter id="filter3794" x="-.192" y="-.192" width="1.384" height="1.384" color-interpolation-filters="sRGB">
   <feGaussianBlur id="feGaussianBlur3796" stdDeviation="5.28"/>
  </filter>
  <linearGradient id="linearGradient3613" x1="48" x2="48" y1="20.221" y2="138.66" gradientUnits="userSpaceOnUse" xlink:href="#linearGradient3737"/>
  <radialGradient id="radialGradient3619" cx="48" cy="90.172" r="42" gradientTransform="matrix(1.1573 0 0 .99591 -7.551 .19713)" gradientUnits="userSpaceOnUse" xlink:href="#linearGradient3737"/>
  <clipPath id="clipPath3613">
   <rect id="rect3615" x="6" y="6" width="84" height="84" rx="6" ry="6" fill="#fff"/>
  </clipPath>
  <linearGradient id="linearGradient2843" x1="48" x2="48" y1="90" y2="5.9877" gradientTransform="translate(0,100)" gradientUnits="userSpaceOnUse">
   <stop id="stop3702" stop-color="#2276c5" offset="0"/>
   <stop id="stop3704" stop-color="#68baf4" offset="1"/>
  </linearGradient>
  <clipPath id="clipPath3625">
   <path id="path3627" d="m0 0v96h96v-96h-96zm12 6h72c3.324 0 6 2.676 6 6v72c0 3.324-2.676 6-6 6h-72c-3.324 0-6-2.676-6-6v-72c0-3.324 2.676-6 6-6z" fill="#fff"/>
  </clipPath>
  <linearGradient id="linearGradient3643" x1="44.512" x2="44.512" y1="6" y2="90.015" gradientUnits="userSpaceOnUse" xlink:href="#linearGradient3637"/>
  <clipPath id="clipPath3649">
   <rect id="rect3651" x="10" y="10" width="76" height="76" rx="4" ry="4" fill="#fff"/>
  </clipPath>
  <filter id="filter3657" color-interpolation-filters="sRGB">
   <feGaussianBlur id="feGaussianBlur3659" stdDeviation="1.14"/>
  </filter>
  <linearGradient id="ButtonShadow-0" x1="45.448" x2="45.448" y1="92.54" y2="7.0165" gradientTransform="matrix(1.0059 0 0 .99417 100 0)" gradientUnits="userSpaceOnUse">
   <stop id="stop3750-8" offset="0"/>
   <stop id="stop3752-5" stop-opacity=".58824" offset="1"/>
  </linearGradient>
  <linearGradient id="linearGradient3780" x1="32.251" x2="32.251" y1="6.1317" y2="90.239" gradientTransform="matrix(1.0238 0 0 -1.0119 -1.1429 98.071)" gradientUnits="userSpaceOnUse" xlink:href="#ButtonShadow-0"/>
  <linearGradient id="linearGradient3721" x1="32.251" x2="32.251" y1="6.1317" y2="90.239" gradientTransform="matrix(1,0,0,-1,0,97)" gradientUnits="userSpaceOnUse" xlink:href="#ButtonShadow-0"/>
  <radialGradient id="radialGradient3619-3" cx="48" cy="90.172" r="42" gradientTransform="matrix(1.1573 0 0 .99591 -7.551 .19713)" gradientUnits="userSpaceOnUse" xlink:href="#linearGradient3737"/>
  <linearGradient id="linearGradient3905" x1="104" x2="120" y1="8" y2="8" gradientTransform="translate(-104,104)" gradientUnits="userSpaceOnUse" xlink:href="#linearGradient3637"/>
  <linearGradient id="linearGradient3913" x1="104" x2="120" y1="8" y2="8" gradientTransform="translate(-144,104)" gradientUnits="userSpaceOnUse">
   <stop id="stop3185-9" stop-color="#c80000" offset="0"/>
   <stop id="stop3187-6" stop-color="#f3604d" offset="1"/>
  </linearGradient>
  <linearGradient id="linearGradient3823" x1="12.07" x2="12.07" y1="3.1332" y2="19.053" gradientTransform="matrix(3,0,0,3,15,20)" gradientUnits="userSpaceOnUse" xlink:href="#linearGradient3637"/>
 </defs>
 <metadata id="metadata2413">
  <rdf:RDF>
   <cc:Work rdf:about="">
    <dc:format>image/svg+xml</dc:format>
    <dc:type rdf:resource="http://purl.org/dc/dcmitype/StillImage"/>
    <dc:title/>
   </cc:Work>
  </rdf:RDF>
 </metadata>
 <g id="layer2" display="none">
  <rect id="rect3745" x="5" y="7" width="86" height="85" rx="6" ry="6" clip-path="url(#clipPath3625)" fill="url(#ButtonShadow)" filter="url(#filter3174)" opacity=".9"/>
 </g>
 <g id="layer3">
  <path id="path3786" d="m12 3.9688c-5.5111 0-10.031 4.5202-10.031 10.031v71c0 5.5111 4.5202 10.031 10.031 10.031h72c5.5111 0 10.031-4.5202 10.031-10.031v-71c0-5.5111-4.5202-10.031-10.031-10.031h-72zm0 2.0312h72c3.324 0 6 2.676 6 6v72c0 3.324-2.676 6-6 6h-72c-3.324 0-6-2.676-6-6v-72c0-3.324 2.676-6 6-6z" fill="url(#linearGradient3780)" opacity=".08"/>
  <path id="path3778" d="m12 4.9688c-4.9716 0-9.0312 4.0596-9.0312 9.0312v71c0 4.9716 4.0596 9.0312 9.0312 9.0312h72c4.9716 0 9.0312-4.0596 9.0312-9.0312v-71c0-4.9716-4.0596-9.0312-9.0312-9.0312h-72zm0 1.0312h72c3.324 0 6 2.676 6 6v72c0 3.324-2.676 6-6 6h-72c-3.324 0-6-2.676-6-6v-72c0-3.324 2.676-6 6-6z" fill="url(#linearGradient3780)" opacity=".1"/>
  <path id="path3770" d="m11.188 6.0312c-4.0275 0.41065-7.1875 3.8352-7.1875 7.9688v71c0 4.4091 3.5909 8 8 8h72c4.4091 0 8-3.5909 8-8v-71c0-4.1971-3.259-7.646-7.375-7.9688 3.0329 0.30617 5.375 2.8525 5.375 5.9688v72c0 3.324-2.676 6-6 6h-72c-3.324 0-6-2.676-6-6v-72c0-3.1162 2.3421-5.6626 5.375-5.9688-0.06227 0.00488-0.12563-0.00631-0.1875 0z" fill="url(#linearGradient3780)" opacity=".2"/>
  <path id="rect3723" d="m6.4375 9.75c-0.89949 1.1774-1.4375 2.6473-1.4375 4.25v71c0 3.878 3.122 7 7 7h72c3.878 0 7-3.122 7-7v-71c0-1.6027-0.53801-3.0726-1.4375-4.25 0.27932 0.6941 0.4375 1.4536 0.4375 2.25v72c0 3.324-2.676 6-6 6h-72c-3.324 0-6-2.676-6-6v-72c0-0.79638 0.15818-1.5559 0.4375-2.25z" fill="url(#linearGradient3780)" opacity=".3"/>
  <path id="rect3716" d="m6 84v1c0 3.324 2.676 6 6 6h72c3.324 0 6-2.676 6-6v-1c0 3.324-2.676 6-6 6h-72c-3.324 0-6-2.676-6-6z" fill="url(#linearGradient3721)" opacity=".45"/>
 </g>
 <g id="layer1" display="none">
  <rect id="rect2419" x="6" y="6" width="84" height="84" rx="6" ry="6" opacity=".8"/>
  <path id="rect3726" d="m14 10c-2.216 0-4 1.784-4 4v68c0 2.216 1.784 4 4 4h68c2.216 0 4-1.784 4-4v-68c0-2.216-1.784-4-4-4h-68zm0 3.0625h68c0.57877 0 0.9375 0.35873 0.9375 0.9375v68c0 0.57877-0.35873 0.9375-0.9375 0.9375h-68c-0.57877 0-0.9375-0.35873-0.9375-0.9375v-68c0-0.57877 0.35873-0.9375 0.9375-0.9375z" opacity=".08"/>
  <path id="rect3629" d="m12 6c-3.324 0-6 2.676-6 6v72c0 3.324 2.676 6 6 6h72c3.324 0 6-2.676 6-6v-72c0-3.324-2.676-6-6-6h-72zm2 4h68c2.216 0 4 1.784 4 4v68c0 2.216-1.784 4-4 4h-68c-2.216 0-4-1.784-4-4v-68c0-2.216 1.784-4 4-4z" fill="url(#linearGradient3643)"/>
  <path id="rect3728" d="m12 6c-3.324 0-6 2.676-6 6v2 68 2c0 0.33472 0.04135 0.6507 0.09375 0.96875 0.0487 0.2956 0.09704 0.59692 0.1875 0.875 0.00988 0.03038 0.020892 0.0636 0.03125 0.09375 0.098865 0.28777 0.23488 0.54745 0.375 0.8125 0.14459 0.27351 0.31562 0.53562 0.5 0.78125s0.37378 0.47347 0.59375 0.6875c0.43995 0.42806 0.94291 0.81453 1.5 1.0938 0.27854 0.13961 0.57347 0.24695 0.875 0.34375-0.2562-0.10022-0.48671-0.23627-0.71875-0.375-0.00741-0.0044-0.023866 0.0045-0.03125 0-0.031933-0.0193-0.062293-0.04251-0.09375-0.0625-0.1204-0.0767-0.23102-0.16351-0.34375-0.25-0.10617-0.0808-0.21328-0.16111-0.3125-0.25-0.17793-0.16143-0.34746-0.34539-0.5-0.53125-0.10758-0.13026-0.21839-0.26528-0.3125-0.40625-0.025089-0.03838-0.038446-0.08587-0.0625-0.125-0.064763-0.10303-0.13023-0.20452-0.1875-0.3125-0.10101-0.19471-0.20567-0.4157-0.28125-0.625-0.00796-0.02181-0.023589-0.04055-0.03125-0.0625-0.031825-0.09195-0.035804-0.18683-0.0625-0.28125-0.030332-0.10662-0.070389-0.20303-0.09375-0.3125-0.072879-0.34151-0.125-0.6982-0.125-1.0625v-2-68-2c0-2.7818 2.2182-5 5-5h2 68 2c2.7818 0 5 2.2182 5 5v2 68 2c0 0.3643-0.05212 0.72099-0.125 1.0625-0.04415 0.20689-0.08838 0.39766-0.15625 0.59375-0.0077 0.02195-0.0233 0.04069-0.03125 0.0625-0.06274 0.17374-0.13838 0.36745-0.21875 0.53125-0.04158 0.0828-0.07904 0.16995-0.125 0.25-0.0546 0.09721-0.12677 0.18835-0.1875 0.28125-0.09411 0.14096-0.20492 0.276-0.3125 0.40625-0.14317 0.17445-0.30314 0.347-0.46875 0.5-0.01117 0.0102-0.01998 0.02115-0.03125 0.03125-0.13839 0.12556-0.28509 0.23444-0.4375 0.34375-0.10257 0.07315-0.20432 0.15336-0.3125 0.21875-0.0074 0.0045-0.02384-0.0044-0.03125 0-0.23204 0.13873-0.46255 0.27478-0.71875 0.375 0.30153-0.0968 0.59646-0.20414 0.875-0.34375 0.55709-0.27922 1.0601-0.66569 1.5-1.0938 0.21997-0.21403 0.40937-0.44186 0.59375-0.6875s0.35541-0.50774 0.5-0.78125c0.14012-0.26505 0.27614-0.52473 0.375-0.8125 0.01041-0.03078 0.02133-0.06274 0.03125-0.09375 0.09046-0.27808 0.1388-0.5794 0.1875-0.875 0.0524-0.31805 0.09375-0.63403 0.09375-0.96875v-2-68-2c0-3.324-2.676-6-6-6h-72z" fill="url(#linearGradient3188)"/>
  <path id="path3615" d="m12 90c-3.324 0-6-2.676-6-6v-2-68-2c0-0.33472 0.04135-0.6507 0.09375-0.96875 0.0487-0.2956 0.09704-0.59692 0.1875-0.875 0.00988-0.03038 0.020892-0.0636 0.03125-0.09375 0.098865-0.28777 0.23488-0.54745 0.375-0.8125 0.14459-0.27351 0.31562-0.53562 0.5-0.78125s0.37378-0.47347 0.59375-0.6875c0.43995-0.42806 0.94291-0.81453 1.5-1.0938 0.27854-0.13961 0.57347-0.24695 0.875-0.34375-0.2562 0.10022-0.48671 0.23627-0.71875 0.375-0.00741 0.0044-0.023866-0.0045-0.03125 0-0.031933 0.0193-0.062293 0.04251-0.09375 0.0625-0.1204 0.0767-0.23102 0.16351-0.34375 0.25-0.10617 0.0808-0.21328 0.16111-0.3125 0.25-0.17793 0.16143-0.34746 0.34539-0.5 0.53125-0.10758 0.13026-0.21839 0.26528-0.3125 0.40625-0.025089 0.03838-0.038446 0.08587-0.0625 0.125-0.064763 0.10303-0.13023 0.20452-0.1875 0.3125-0.10101 0.19471-0.20567 0.4157-0.28125 0.625-0.00796 0.02181-0.023589 0.04055-0.03125 0.0625-0.031825 0.09195-0.035804 0.18683-0.0625 0.28125-0.030332 0.10662-0.070389 0.20303-0.09375 0.3125-0.072879 0.34151-0.125 0.6982-0.125 1.0625v2 68 2c0 2.7818 2.2182 5 5 5h2 68 2c2.7818 0 5-2.2182 5-5v-2-68-2c0-0.3643-0.05212-0.72099-0.125-1.0625-0.04415-0.20689-0.08838-0.39766-0.15625-0.59375-0.0077-0.02195-0.0233-0.04069-0.03125-0.0625-0.06274-0.17374-0.13838-0.36745-0.21875-0.53125-0.04158-0.0828-0.07904-0.16995-0.125-0.25-0.0546-0.09721-0.12677-0.18835-0.1875-0.28125-0.09411-0.14096-0.20492-0.276-0.3125-0.40625-0.14317-0.17445-0.30314-0.347-0.46875-0.5-0.01117-0.0102-0.01998-0.02115-0.03125-0.03125-0.13839-0.12556-0.28509-0.23444-0.4375-0.34375-0.10257-0.07315-0.20432-0.15336-0.3125-0.21875-0.0074-0.0045-0.02384 0.0044-0.03125 0-0.23204-0.13873-0.46255-0.27478-0.71875-0.375 0.30153 0.0968 0.59646 0.20414 0.875 0.34375 0.55709 0.27922 1.0601 0.66569 1.5 1.0938 0.21997 0.21403 0.40937 0.44186 0.59375 0.6875s0.35541 0.50774 0.5 0.78125c0.14012 0.26505 0.27614 0.52473 0.375 0.8125 0.01041 0.03078 0.02133 0.06274 0.03125 0.09375 0.09046 0.27808 0.1388 0.5794 0.1875 0.875 0.0524 0.31805 0.09375 0.63403 0.09375 0.96875v2 68 2c0 3.324-2.676 6-6 6h-72z" fill="url(#radialGradient3619)" opacity=".6"/>
  <rect id="rect2841" x="6" y="106" width="84" height="84" rx="6" ry="6" fill="url(#linearGradient2843)"/>
  <rect id="rect3634" x="10" y="110" width="76" height="76" rx="4" ry="4" fill="#f00"/>
  <path id="rect3647" transform="translate(-110)" d="m14 9c-2.7527 0-5 2.2473-5 5v68c0 2.7527 2.2473 5 5 5h68c2.7527 0 5-2.2473 5-5v-68c0-2.7527-2.2473-5-5-5h-68zm0 2h68c1.6793 0 3 1.3207 3 3v68c0 1.6793-1.3207 3-3 3h-68c-1.6793 0-3-1.3207-3-3v-68c0-1.6793 1.3207-3 3-3z" clip-path="url(#clipPath3649)" color="#000000" display="inline" filter="url(#filter3657)" style="block-progression:tb;text-indent:0;text-transform:none"/>
  <path id="path3709" d="m14.089 10c-2.216 0-4 1.784-4 4v68c0 2.216 1.784 4 4 4h68c2.216 0 4-1.784 4-4v-68c0-2.216-1.784-4-4-4h-68zm0 2h68c1.1403 0 2 0.8597 2 2v68c0 1.1403-0.8597 2-2 2h-68c-1.1403 0-2-0.8597-2-2v-68c0-1.1403 0.8597-2 2-2z" opacity=".16"/>
  <path id="path3707" d="m14 10c-2.216 0-4 1.784-4 4v68c0 2.216 1.784 4 4 4h68c2.216 0 4-1.784 4-4v-68c0-2.216-1.784-4-4-4h-68zm0 1h68c1.6738 0 3 1.3262 3 3v68c0 1.6738-1.3262 3-3 3h-68c-1.6738 0-3-1.3262-3-3v-68c0-1.6738 1.3262-3 3-3z" opacity=".36"/>
 </g>
 <g id="layer4">
  <rect id="rect2419-9" x="6" y="6" width="84" height="84" rx="6" ry="6" opacity=".6"/>
  <path id="rect3728-4" d="m12 6c-3.324 0-6 2.676-6 6v2 68 2c0 0.33472 0.04135 0.6507 0.09375 0.96875 0.0487 0.2956 0.09704 0.59692 0.1875 0.875 0.00988 0.03038 0.020892 0.0636 0.03125 0.09375 0.098865 0.28777 0.23488 0.54745 0.375 0.8125 0.14459 0.27351 0.31562 0.53562 0.5 0.78125s0.37378 0.47347 0.59375 0.6875c0.43995 0.42806 0.94291 0.81453 1.5 1.0938 0.27854 0.13961 0.57347 0.24695 0.875 0.34375-0.2562-0.10022-0.48671-0.23627-0.71875-0.375-0.00741-0.0044-0.023866 0.0045-0.03125 0-0.031933-0.0193-0.062293-0.04251-0.09375-0.0625-0.1204-0.0767-0.23102-0.16351-0.34375-0.25-0.10617-0.0808-0.21328-0.16111-0.3125-0.25-0.17793-0.16143-0.34746-0.34539-0.5-0.53125-0.10758-0.13026-0.21839-0.26528-0.3125-0.40625-0.025089-0.03838-0.038446-0.08587-0.0625-0.125-0.064763-0.10303-0.13023-0.20452-0.1875-0.3125-0.10101-0.19471-0.20567-0.4157-0.28125-0.625-0.00796-0.02181-0.023589-0.04055-0.03125-0.0625-0.031825-0.09195-0.035804-0.18683-0.0625-0.28125-0.030332-0.10662-0.070389-0.20303-0.09375-0.3125-0.072879-0.34151-0.125-0.6982-0.125-1.0625v-2-68-2c0-2.7818 2.2182-5 5-5h2 68 2c2.7818 0 5 2.2182 5 5v2 68 2c0 0.3643-0.05212 0.72099-0.125 1.0625-0.04415 0.20689-0.08838 0.39766-0.15625 0.59375-0.0077 0.02195-0.0233 0.04069-0.03125 0.0625-0.06274 0.17374-0.13838 0.36745-0.21875 0.53125-0.04158 0.0828-0.07904 0.16995-0.125 0.25-0.0546 0.09721-0.12677 0.18835-0.1875 0.28125-0.09411 0.14096-0.20492 0.276-0.3125 0.40625-0.14317 0.17445-0.30314 0.347-0.46875 0.5-0.01117 0.0102-0.01998 0.02115-0.03125 0.03125-0.13839 0.12556-0.28509 0.23444-0.4375 0.34375-0.10257 0.07315-0.20432 0.15336-0.3125 0.21875-0.0074 0.0045-0.02384-0.0044-0.03125 0-0.23204 0.13873-0.46255 0.27478-0.71875 0.375 0.30153-0.0968 0.59646-0.20414 0.875-0.34375 0.55709-0.27922 1.0601-0.66569 1.5-1.0938 0.21997-0.21403 0.40937-0.44186 0.59375-0.6875s0.35541-0.50774 0.5-0.78125c0.14012-0.26505 0.27614-0.52473 0.375-0.8125 0.01041-0.03078 0.02133-0.06274 0.03125-0.09375 0.09046-0.27808 0.1388-0.5794 0.1875-0.875 0.0524-0.31805 0.09375-0.63403 0.09375-0.96875v-2-68-2c0-3.324-2.676-6-6-6h-72z" fill="url(#linearGradient3188)" opacity=".01"/>
  <path id="path3615-6" d="m12 90c-3.324 0-6-2.676-6-6v-2-68-2c0-0.33472 0.04135-0.6507 0.09375-0.96875 0.0487-0.2956 0.09704-0.59692 0.1875-0.875 0.00988-0.03038 0.020892-0.0636 0.03125-0.09375 0.098865-0.28777 0.23488-0.54745 0.375-0.8125 0.14459-0.27351 0.31562-0.53562 0.5-0.78125s0.37378-0.47347 0.59375-0.6875c0.43995-0.42806 0.94291-0.81453 1.5-1.0938 0.27854-0.13961 0.57347-0.24695 0.875-0.34375-0.2562 0.10022-0.48671 0.23627-0.71875 0.375-0.00741 0.0044-0.023866-0.0045-0.03125 0-0.031933 0.0193-0.062293 0.04251-0.09375 0.0625-0.1204 0.0767-0.23102 0.16351-0.34375 0.25-0.10617 0.0808-0.21328 0.16111-0.3125 0.25-0.17793 0.16143-0.34746 0.34539-0.5 0.53125-0.10758 0.13026-0.21839 0.26528-0.3125 0.40625-0.025089 0.03838-0.038446 0.08587-0.0625 0.125-0.064763 0.10303-0.13023 0.20452-0.1875 0.3125-0.10101 0.19471-0.20567 0.4157-0.28125 0.625-0.00796 0.02181-0.023589 0.04055-0.03125 0.0625-0.031825 0.09195-0.035804 0.18683-0.0625 0.28125-0.030332 0.10662-0.070389 0.20303-0.09375 0.3125-0.072879 0.34151-0.125 0.6982-0.125 1.0625v2 68 2c0 2.7818 2.2182 5 5 5h2 68 2c2.7818 0 5-2.2182 5-5v-2-68-2c0-0.3643-0.05212-0.72099-0.125-1.0625-0.04415-0.20689-0.08838-0.39766-0.15625-0.59375-0.0077-0.02195-0.0233-0.04069-0.03125-0.0625-0.06274-0.17374-0.13838-0.36745-0.21875-0.53125-0.04158-0.0828-0.07904-0.16995-0.125-0.25-0.0546-0.09721-0.12677-0.18835-0.1875-0.28125-0.09411-0.14096-0.20492-0.276-0.3125-0.40625-0.14317-0.17445-0.30314-0.347-0.46875-0.5-0.01117-0.0102-0.01998-0.02115-0.03125-0.03125-0.13839-0.12556-0.28509-0.23444-0.4375-0.34375-0.10257-0.07315-0.20432-0.15336-0.3125-0.21875-0.0074-0.0045-0.02384 0.0044-0.03125 0-0.23204-0.13873-0.46255-0.27478-0.71875-0.375 0.30153 0.0968 0.59646 0.20414 0.875 0.34375 0.55709 0.27922 1.0601 0.66569 1.5 1.0938 0.21997 0.21403 0.40937 0.44186 0.59375 0.6875s0.35541 0.50774 0.5 0.78125c0.14012 0.26505 0.27614 0.52473 0.375 0.8125 0.01041 0.03078 0.02133 0.06274 0.03125 0.09375 0.09046 0.27808 0.1388 0.5794 0.1875 0.875 0.0524 0.31805 0.09375 0.63403 0.09375 0.96875v2 68 2c0 3.324-2.676 6-6 6h-72z" fill="url(#radialGradient3619-3)" opacity=".15"/>
 </g>
 <g id="layer5" display="none">
  <rect id="rect3171" x="15" y="15" width="66" height="66" rx="12" ry="12" clip-path="url(#clipPath3613)" fill="url(#linearGradient3613)" filter="url(#filter3794)" opacity=".1" stroke="#fff" stroke-linecap="round" stroke-width=".5"/>
 </g>
 <g id="layer6">
  <path id="path4030" d="m47.719 27.969c-4.5104 0.08827-9.0184 1.0392-13.219 2.6562-1.3705 0.95184-0.77934 2.7507-0.90625 4.1606 0.11913 1.3043-0.28751 2.7224 0.3125 3.9331 0.715 1.1389 2.325 1.1156 3.3097 0.33682 4.1155-2.0767 8.9964-2.8354 13.504-1.7801 1.8578 0.28106 4.5878 2.7631 3.7262 4.1933-5.9726 0.05705-12.358-0.522-17.705 2.6626-1.7912 1.1646-3.2821 2.8742-4.2099 4.8374-2.0403 0.03851-4.0926-0.07909-6.125 0.0625-1.2908 0.37193-1.574 1.774-1.4375 2.9455 0.03834 1.871-0.07887 3.7539 0.0625 5.617 0.37193 1.2908 1.774 1.574 2.9455 1.4375h3.742c0.6662 3.0517 2.6281 5.7452 5.4178 7.1719 4.4566 2.374 9.9383 2.304 14.637 0.69238 1.2473-0.01536 2.9511-2.2259 3.3829-1.7792-0.14153 1.1466 0.19307 2.4922 1.4375 2.8525 2.2504 0.11951 4.5273 0.0663 6.7812 0.03125 1.355-0.19074 1.8344-1.6544 1.6562-2.8547v-6.1141c1.5197-0.03564 3.0506 0.07507 4.5625-0.0625 1.2908-0.37193 1.574-1.774 1.4375-2.9455-0.03834-1.871 0.07887-3.7539-0.0625-5.617-0.37193-1.2908-1.774-1.574-2.9455-1.4375h-2.992c0.06489-4.8779 0.07296-10.062-2.6579-14.321-3.0225-4.9965-9.1285-6.7587-14.655-6.6787zm-3.0938 31.062h3.1875c-1.046 0.33803-2.1362 0.29678-3.1875 0z" opacity=".1"/>
  <path id="path4026" d="m47.719 29c-1.9887 3.8e-5 -4.0367 0.26951-6.0938 0.6875-2.0424 0.39434-4.1429 0.89845-6.3438 1.7188a0.98877 0.98877 0 0 0-0.65625 0.9375v5.25a0.98877 0.98877 0 0 0 1.4688 0.875c1.7195-0.90892 3.452-1.6162 5.2812-2.0625 1.8329-0.44717 3.7186-0.62497 5.6875-0.625 3.0421 2.9e-5 5.2497 0.69069 6.7812 1.9375 1.4399 1.1417 2.1437 2.6934 2.25 4.7812h-7.1562c-5.4242 2.1e-5 -9.5679 0.9543-12.5 3.0938a0.98877 0.98877 0 0 0 0 0.03125c-1.5539 1.1428-2.5661 2.6736-3.2812 4.375h-6.1562a0.98877 0.98877 0 0 0-1 1v6a0.98877 0.98877 0 0 0 1 1h5.4688c0.46626 2.2404 1.3672 4.2698 3.0312 5.8125a0.98877 0.98877 0 0 0 0.03125 0c2.3685 2.1519 5.567 3.1875 9.375 3.1875 2.9945 0 5.5982-0.56434 7.75-1.625 1.3272-0.66783 2.4805-1.6181 3.5312-2.7188v3.3438a0.98877 0.98877 0 0 0 1 1h5.8125a0.98877 0.98877 0 0 0 1-1v-8h5a0.98877 0.98877 0 0 0 1-1v-6a0.98877 0.98877 0 0 0-1-1h-5v-4.4375c-3.4e-5 -5.3893-1.3542-9.5978-4.125-12.406-2.7658-2.8033-6.8556-4.1562-12.156-4.1562zm3.6562 19.906h4.8125v0.21875c-3e-6 0.30767-0.01736 0.58673-0.03125 0.875h-13.25c1.6719-0.6655 4.4045-1.0937 8.4688-1.0938zm-10.375 9.0938h11.469c-1.6293 1.4296-3.5396 2.3125-6.0625 2.3125-2.1607 6e-6 -3.6985-0.54389-4.875-1.5312-0.2513-0.21984-0.33962-0.53135-0.53125-0.78125z" opacity=".15"/>
  <path id="path4020" d="m47.719 30c-1.9028 3.6e-5 -3.8978 0.24813-5.9062 0.65625-2.0085 0.38779-4.0522 0.89162-6.1875 1.6875v5.25c1.7759-0.93875 3.6073-1.6868 5.5312-2.1562 1.9239-0.46936 3.8766-0.65622 5.9062-0.65625 3.1924 3e-5 5.6515 0.72771 7.4062 2.1562 1.7759 1.4082 2.7187 3.4082 2.7188 6v0.5625h-8.25c-5.3066 2.1e-5 -9.2213 0.94709-11.906 2.9062-1.5968 1.1744-2.6314 2.7391-3.2812 4.5938h-6.75v6h6.1875c0.33809 2.4416 1.2924 4.5107 3 6.0938 2.1564 1.9592 5.0824 2.9062 8.7188 2.9062 2.8753 0 5.3252-0.52041 7.3125-1.5 1.9873-1 3.6368-2.5121 4.9688-4.5938v6.0938h5.8125v-9h6v-6h-6v-5.4375c-3.3e-5 -5.2245-1.3068-9.1473-3.8438-11.719-2.537-2.5714-6.3001-3.8437-11.438-3.8438zm3.6562 17.906h5.8125v1.2188c-6e-6 0.65498-0.0285 1.2679-0.09375 1.875h-17.25c0.42936-0.62384 0.98568-1.192 1.6875-1.5938 1.8182-1.0408 5.1291-1.5 9.8438-1.5zm-12.188 9.0938h15.656c-0.22278 0.31076-0.4021 0.64996-0.65625 0.9375-1.9451 2.2041-4.5466 3.375-7.7812 3.375-2.3467 6e-6 -4.1571-0.61798-5.5312-1.7812-0.79899-0.69896-1.3509-1.546-1.6875-2.5312z" opacity=".3"/>
  <rect id="rect3897" transform="matrix(0,1,1,0,0,0)" y="104" width="16" height="16" color="#000000" fill="url(#linearGradient3905)"/>
  <text id="text3907" x="104" y="48" fill="#000000" font-family="Liberation Sans" font-size="4px" letter-spacing="0px" word-spacing="0px" style="line-height:125%" xml:space="preserve"><tspan id="tspan3909" x="104" y="48">Shadow opacity : 30, 15, 10, (8)</tspan></text>
  <rect id="rect3911" transform="rotate(-90)" x="-40" y="104" width="16" height="16" color="#000000" fill="url(#linearGradient3913)"/>
  <text id="text3951" x="124" y="32" fill="#000000" font-family="Liberation Sans" font-size="4px" letter-spacing="0px" word-spacing="0px" style="line-height:125%" xml:space="preserve"><tspan id="tspan3953" x="124" y="32">Bevel opacity : 30 / 10</tspan></text>
  <text id="text3955" x="124" y="8" fill="#000000" font-family="Liberation Sans" font-size="4px" letter-spacing="0px" word-spacing="0px" style="line-height:125%" xml:space="preserve"><tspan id="tspan3957" x="124" y="8">Bevel opacity : 75 / 15</tspan></text>
  <path id="path2871" d="m47.719 29c-1.9028 3.6e-5 -3.8978 0.24813-5.9062 0.65625-2.0085 0.38779-4.0522 0.89162-6.1875 1.6875v5.25c1.7759-0.93875 3.6073-1.6868 5.5312-2.1562 1.9239-0.46936 3.8766-0.65622 5.9062-0.65625 3.1924 3e-5 5.6515 0.72771 7.4062 2.1562 1.7759 1.4082 2.7187 3.4082 2.7188 6v0.5625h-8.25c-5.3066 2.1e-5 -9.2213 0.94709-11.906 2.9062-1.5968 1.1744-2.6314 2.7391-3.2812 4.5938h-6.75v6h6.1875c0.33809 2.4416 1.2924 4.5107 3 6.0938 2.1564 1.9592 5.0824 2.9062 8.7188 2.9062 2.8753 0 5.3252-0.52041 7.3125-1.5 1.9873-1 3.6368-2.5121 4.9688-4.5938v6.0938h5.8125v-9h6v-6h-6v-5.4375c-3.3e-5 -5.2245-1.3068-9.1473-3.8438-11.719-2.537-2.5714-6.3001-3.8437-11.438-3.8438zm3.6562 17.906h5.8125v1.2188c-6e-6 0.65498-0.0285 1.2679-0.09375 1.875h-17.25c0.42936-0.62384 0.98568-1.192 1.6875-1.5938 1.8182-1.0408 5.1291-1.5 9.8438-1.5zm-12.188 9.0938h15.656c-0.22278 0.31076-0.4021 0.64996-0.65625 0.9375-1.9451 2.2041-4.5466 3.375-7.7812 3.375-2.3467 6e-6 -4.1571-0.61798-5.5312-1.7812-0.79899-0.69896-1.3509-1.546-1.6875-2.5312z" fill="url(#linearGradient3823)"/>
  <path id="path4002" d="m47.719 29c-1.9028 3.6e-5 -3.8978 0.24813-5.9062 0.65625-2.0085 0.38779-4.0522 0.89162-6.1875 1.6875v1c2.1353-0.79588 4.179-1.2997 6.1875-1.6875 2.0084-0.40812 4.0035-0.65621 5.9062-0.65625 5.1374 3.6e-5 8.9005 1.2724 11.438 3.8438 2.537 2.5715 3.8437 6.4943 3.8438 11.719v-1c-3.3e-5 -5.2245-1.3068-9.1473-3.8438-11.719-2.537-2.5714-6.3001-3.8437-11.438-3.8438zm1.2188 13.5c-5.3066 2.1e-5 -9.2213 0.94709-11.906 2.9062-1.5968 1.1744-2.6314 2.7391-3.2812 4.5938h-6.75v1h6.75c0.64984-1.8547 1.6845-3.4194 3.2812-4.5938 2.685-1.9592 6.5997-2.9062 11.906-2.9062h8.25v-0.5625c-2e-6 -0.15102 0.0064-0.2905 0-0.4375h-8.25zm8.25 5.625c-6e-6 0.65498-0.0285 1.2679-0.09375 1.875h-16.344c-0.3431 0.30534-0.65432 0.63395-0.90625 1h17.25c0.06525-0.60712 0.09374-1.22 0.09375-1.875v-1zm5.8125 1.875v1h6v-1h-6zm-23.812 7c0.33658 0.98524 0.88851 1.8323 1.6875 2.5312 1.3742 1.1633 3.1845 1.7813 5.5312 1.7812 3.2347 6e-6 5.8362-1.1709 7.7812-3.375 0.25415-0.28754 0.43347-0.62674 0.65625-0.9375h-0.71875c-1.9385 2.1607-4.5171 3.3125-7.7188 3.3125-2.3467 6e-6 -4.1571-0.61798-5.5312-1.7812-0.51422-0.44984-0.93199-0.96136-1.25-1.5312h-0.4375z" fill="#fff" opacity=".75"/>
  <path id="path4011" d="m47.062 32.781c-2.0296 3e-5 -3.9824 0.18689-5.9062 0.65625-1.9239 0.46942-3.7554 1.2175-5.5312 2.1562v1c1.7759-0.93875 3.6073-1.6868 5.5312-2.1562 1.9239-0.46936 3.8766-0.65622 5.9062-0.65625 3.1924 3e-5 5.6515 0.72771 7.4062 2.1562 1.6724 1.3261 2.6156 3.1867 2.7188 5.5625v-0.5625c-3e-5 -2.5918-0.94288-4.5918-2.7188-6-1.7548-1.4285-4.2139-2.1562-7.4062-2.1562zm4.3125 13.125c-4.7146 1.5e-5 -8.0256 0.45919-9.8438 1.5-0.70182 0.40176-1.2581 0.96991-1.6875 1.5938h0.90625c0.24163-0.21504 0.49123-0.42773 0.78125-0.59375 1.8182-1.0408 5.1291-1.5 9.8438-1.5h5.8125v-1h-5.8125zm-24.375 9.0938v1h6.1875c0.33809 2.4416 1.2924 4.5107 3 6.0938 2.1564 1.9592 5.0824 2.9062 8.7188 2.9062 2.8753 0 5.3252-0.52041 7.3125-1.5 1.9873-1 3.6368-2.5121 4.9688-4.5938v-1c-1.332 2.0816-2.9815 3.5938-4.9688 4.5938-1.9873 0.97959-4.4372 1.5-7.3125 1.5-3.6364 0-6.5623-0.94707-8.7188-2.9062-1.7076-1.583-2.6619-3.6521-3-6.0938h-6.1875zm12.188 0c0.11996 0.35115 0.26139 0.68441 0.4375 1h14.5c0.01998-0.02227 0.04266-0.04002 0.0625-0.0625 0.25415-0.28754 0.43347-0.62674 0.65625-0.9375h-15.656zm23.812 0v1h6v-1h-6zm-5.8125 9v1h5.8125v-1h-5.8125z" opacity=".15"/>
 </g>
</svg>
