<?xml version="1.0" encoding="UTF-8"?>
<svg id="svg2" width="96" height="96" version="1.0" xmlns="http://www.w3.org/2000/svg" xmlns:cc="http://creativecommons.org/ns#" xmlns:dc="http://purl.org/dc/elements/1.1/" xmlns:rdf="http://www.w3.org/1999/02/22-rdf-syntax-ns#" xmlns:xlink="http://www.w3.org/1999/xlink">
 <defs id="defs4">
  <linearGradient id="linearGradient2902" x1="10.735" x2="12.34" y1="5.3143" y2="15.422" gradientUnits="userSpaceOnUse">
   <stop id="stop3653" stop-color="#f3840c" offset="0"/>
   <stop id="stop3655" stop-color="#f9ba3f" offset="1"/>
  </linearGradient>
  <clipPath id="clipPath3266">
   <path id="path3268" d="m0 0v96h96v-96h-96zm12 6h72c3.324 0 6 2.676 6 6v72c0 3.324-2.676 6-6 6h-72c-3.324 0-6-2.676-6-6v-72c0-3.324 2.676-6 6-6z" color="#000000" fill="#f00" opacity=".3"/>
  </clipPath>
  <linearGradient id="linearGradient3101" x1="32.251" x2="32.251" y1="6.1317" y2="90.239" gradientTransform="matrix(1.0238 0 0 1.0119 -1.1429 -98.071)" gradientUnits="userSpaceOnUse" xlink:href="#ButtonShadow-0"/>
  <linearGradient id="ButtonShadow-0" x1="45.448" x2="45.448" y1="92.54" y2="7.0165" gradientTransform="matrix(1.0059 0 0 .99417 100 0)" gradientUnits="userSpaceOnUse">
   <stop id="stop3750-8" offset="0"/>
   <stop id="stop3752-5" stop-opacity=".58824" offset="1"/>
  </linearGradient>
  <linearGradient id="linearGradient3052" x1="48" x2="48" y1="90" y2="5.9877" gradientUnits="userSpaceOnUse">
   <stop id="stop3189-4" stop-color="#c8c8c8" offset="0"/>
   <stop id="stop3191-0" stop-color="#e6e6e6" offset="1"/>
  </linearGradient>
  <linearGradient id="linearGradient3188" x1="36.357" x2="36.357" y1="6" y2="63.893" gradientUnits="userSpaceOnUse" xlink:href="#linearGradient3737"/>
  <linearGradient id="linearGradient3737">
   <stop id="stop3739" stop-color="#fff" offset="0"/>
   <stop id="stop3741" stop-color="#fff" stop-opacity="0" offset="1"/>
  </linearGradient>
  <radialGradient id="radialGradient3619" cx="48" cy="90.172" r="42" gradientTransform="matrix(1.1573 0 0 .99591 -7.551 .19713)" gradientUnits="userSpaceOnUse" xlink:href="#linearGradient3737"/>
  <linearGradient id="linearGradient4186" x1="32.251" x2="32.251" y1="6.1317" y2="90.239" gradientTransform="translate(0,-97)" gradientUnits="userSpaceOnUse" xlink:href="#ButtonShadow-0"/>
  <filter id="filter3851" color-interpolation-filters="sRGB">
   <feGaussianBlur id="feGaussianBlur3853" stdDeviation="0.15745957"/>
  </filter>
 </defs>
 <metadata id="metadata7">
  <rdf:RDF>
   <cc:Work rdf:about="">
    <dc:format>image/svg+xml</dc:format>
    <dc:type rdf:resource="http://purl.org/dc/dcmitype/StillImage"/>
    <dc:title/>
   </cc:Work>
  </rdf:RDF>
 </metadata>
 <g id="layer2">
  <g id="g3202" clip-path="url(#clipPath3266)">
   <path id="path3786" transform="scale(1,-1)" d="m12-95.031c-5.5111 0-10.031 4.5202-10.031 10.031v71c0 5.5111 4.5202 10.031 10.031 10.031h72c5.5111 0 10.031-4.5202 10.031-10.031v-71c0-5.5111-4.5202-10.031-10.031-10.031h-72z" fill="url(#linearGradient3101)" opacity=".08"/>
   <path id="path3778" transform="scale(1,-1)" d="m12-94.031c-4.9716 0-9.0312 4.0596-9.0312 9.0312v71c0 4.9716 4.0596 9.0312 9.0312 9.0312h72c4.9716 0 9.0312-4.0596 9.0312-9.0312v-71c0-4.9716-4.0596-9.0312-9.0312-9.0312h-72z" fill="url(#linearGradient3101)" opacity=".1"/>
   <path id="path3770" transform="scale(1,-1)" d="m12-93c-4.4091 0-8 3.5909-8 8v71c0 4.4091 3.5909 8 8 8h72c4.4091 0 8-3.5909 8-8v-71c0-4.4091-3.5909-8-8-8h-72z" fill="url(#linearGradient3101)" opacity=".2"/>
   <rect id="rect3723" transform="scale(1,-1)" x="5" y="-92" width="86" height="85" rx="7" ry="7" fill="url(#linearGradient3101)" opacity=".3"/>
   <rect id="rect3716" transform="scale(1,-1)" x="6" y="-91" width="84" height="84" rx="6" ry="6" fill="url(#linearGradient4186)" opacity=".45"/>
  </g>
  <rect id="rect2419" x="6" y="6" width="84" height="84" rx="6" ry="6" fill="url(#linearGradient3052)" opacity=".75"/>
  <path id="rect3728" d="m12 6c-3.324 0-6 2.676-6 6v2 68 2c0 0.33472 0.04135 0.6507 0.09375 0.96875 0.0487 0.2956 0.09704 0.59692 0.1875 0.875 0.00988 0.03038 0.020892 0.0636 0.03125 0.09375 0.098865 0.28777 0.23488 0.54745 0.375 0.8125 0.14459 0.27351 0.31562 0.53562 0.5 0.78125s0.37378 0.47347 0.59375 0.6875c0.43995 0.42806 0.94291 0.81453 1.5 1.0938 0.27854 0.13961 0.57347 0.24695 0.875 0.34375-0.2562-0.10022-0.48671-0.23627-0.71875-0.375-0.00741-0.0044-0.023866 0.0045-0.03125 0-0.031933-0.0193-0.062293-0.04251-0.09375-0.0625-0.1204-0.0767-0.23102-0.16351-0.34375-0.25-0.10617-0.0808-0.21328-0.16111-0.3125-0.25-0.17793-0.16143-0.34746-0.34539-0.5-0.53125-0.10758-0.13026-0.21839-0.26528-0.3125-0.40625-0.025089-0.03838-0.038446-0.08587-0.0625-0.125-0.064763-0.10303-0.13023-0.20452-0.1875-0.3125-0.10101-0.19471-0.20567-0.4157-0.28125-0.625-0.00796-0.02181-0.023589-0.04055-0.03125-0.0625-0.031825-0.09195-0.035804-0.18683-0.0625-0.28125-0.030332-0.10662-0.070389-0.20303-0.09375-0.3125-0.072879-0.34151-0.125-0.6982-0.125-1.0625v-2-68-2c0-2.7818 2.2182-5 5-5h2 68 2c2.7818 0 5 2.2182 5 5v2 68 2c0 0.3643-0.05212 0.72099-0.125 1.0625-0.04415 0.20689-0.08838 0.39766-0.15625 0.59375-0.0077 0.02195-0.0233 0.04069-0.03125 0.0625-0.06274 0.17374-0.13838 0.36745-0.21875 0.53125-0.04158 0.0828-0.07904 0.16995-0.125 0.25-0.0546 0.09721-0.12677 0.18835-0.1875 0.28125-0.09411 0.14096-0.20492 0.276-0.3125 0.40625-0.14317 0.17445-0.30314 0.347-0.46875 0.5-0.01117 0.0102-0.01998 0.02115-0.03125 0.03125-0.13839 0.12556-0.28509 0.23444-0.4375 0.34375-0.10257 0.07315-0.20432 0.15336-0.3125 0.21875-0.0074 0.0045-0.02384-0.0044-0.03125 0-0.23204 0.13873-0.46255 0.27478-0.71875 0.375 0.30153-0.0968 0.59646-0.20414 0.875-0.34375 0.55709-0.27922 1.0601-0.66569 1.5-1.0938 0.21997-0.21403 0.40937-0.44186 0.59375-0.6875s0.35541-0.50774 0.5-0.78125c0.14012-0.26505 0.27614-0.52473 0.375-0.8125 0.01041-0.03078 0.02133-0.06274 0.03125-0.09375 0.09046-0.27808 0.1388-0.5794 0.1875-0.875 0.0524-0.31805 0.09375-0.63403 0.09375-0.96875v-2-68-2c0-3.324-2.676-6-6-6h-72z" fill="url(#linearGradient3188)" opacity=".5"/>
  <path id="path3615" d="m12 90c-3.324 0-6-2.676-6-6v-2-68-2c0-0.33472 0.04135-0.6507 0.09375-0.96875 0.0487-0.2956 0.09704-0.59692 0.1875-0.875 0.00988-0.03038 0.020892-0.0636 0.03125-0.09375 0.098865-0.28777 0.23488-0.54745 0.375-0.8125 0.14459-0.27351 0.31562-0.53562 0.5-0.78125s0.37378-0.47347 0.59375-0.6875c0.43995-0.42806 0.94291-0.81453 1.5-1.0938 0.27854-0.13961 0.57347-0.24695 0.875-0.34375-0.2562 0.10022-0.48671 0.23627-0.71875 0.375-0.00741 0.0044-0.023866-0.0045-0.03125 0-0.031933 0.0193-0.062293 0.04251-0.09375 0.0625-0.1204 0.0767-0.23102 0.16351-0.34375 0.25-0.10617 0.0808-0.21328 0.16111-0.3125 0.25-0.17793 0.16143-0.34746 0.34539-0.5 0.53125-0.10758 0.13026-0.21839 0.26528-0.3125 0.40625-0.025089 0.03838-0.038446 0.08587-0.0625 0.125-0.064763 0.10303-0.13023 0.20452-0.1875 0.3125-0.10101 0.19471-0.20567 0.4157-0.28125 0.625-0.00796 0.02181-0.023589 0.04055-0.03125 0.0625-0.031825 0.09195-0.035804 0.18683-0.0625 0.28125-0.030332 0.10662-0.070389 0.20303-0.09375 0.3125-0.072879 0.34151-0.125 0.6982-0.125 1.0625v2 68 2c0 2.7818 2.2182 5 5 5h2 68 2c2.7818 0 5-2.2182 5-5v-2-68-2c0-0.3643-0.05212-0.72099-0.125-1.0625-0.04415-0.20689-0.08838-0.39766-0.15625-0.59375-0.0077-0.02195-0.0233-0.04069-0.03125-0.0625-0.06274-0.17374-0.13838-0.36745-0.21875-0.53125-0.04158-0.0828-0.07904-0.16995-0.125-0.25-0.0546-0.09721-0.12677-0.18835-0.1875-0.28125-0.09411-0.14096-0.20492-0.276-0.3125-0.40625-0.14317-0.17445-0.30314-0.347-0.46875-0.5-0.01117-0.0102-0.01998-0.02115-0.03125-0.03125-0.13839-0.12556-0.28509-0.23444-0.4375-0.34375-0.10257-0.07315-0.20432-0.15336-0.3125-0.21875-0.0074-0.0045-0.02384 0.0044-0.03125 0-0.23204-0.13873-0.46255-0.27478-0.71875-0.375 0.30153 0.0968 0.59646 0.20414 0.875 0.34375 0.55709 0.27922 1.0601 0.66569 1.5 1.0938 0.21997 0.21403 0.40937 0.44186 0.59375 0.6875s0.35541 0.50774 0.5 0.78125c0.14012 0.26505 0.27614 0.52473 0.375 0.8125 0.01041 0.03078 0.02133 0.06274 0.03125 0.09375 0.09046 0.27808 0.1388 0.5794 0.1875 0.875 0.0524 0.31805 0.09375 0.63403 0.09375 0.96875v2 68 2c0 3.324-2.676 6-6 6h-72z" fill="url(#radialGradient3619)" opacity=".2"/>
 </g>
 <g id="layer1" transform="translate(0,74)">
  <path id="path3081" transform="matrix(5.7899 .91933 -.91933 5.7899 -5.5804 -96.639)" d="m15 15-3.5575-1.2064-3.0106 2.2467 0.048011-3.7562-3.0671-2.169 3.5872-1.1151 1.1151-3.5872 2.169 3.0671 3.7562-0.048011-2.2467 3.0106z" color="#000000" fill="none" filter="url(#filter3851)" opacity=".2" stroke="#fff" stroke-width=".68231"/>
  <path id="path3649" transform="matrix(5.7899 .91933 -.91933 5.7899 -5.5804 -96.639)" d="m15 15-3.5575-1.2064-3.0106 2.2467 0.048011-3.7562-3.0671-2.169 3.5872-1.1151 1.1151-3.5872 2.169 3.0671 3.7562-0.048011-2.2467 3.0106z" color="#000000" fill="url(#linearGradient2902)"/>
  <path id="path3660" d="m147.88-62-11.125 22.375-24.625 3.625 3.625 3.5 21-3.125 11.125-22.375 11 22.375 21.125 3.125 3.625-3.5-24.75-3.625-11-22.375zm-18.5 46.75-3.625 21.25 0.75-0.375 3.5-20.25-0.625-0.625zm36.875 0-0.625 0.625 3.5 20.25 0.75 0.375-3.625-21.25z" color="#000000" fill="#d45500" opacity=".5"/>
  <rect id="rect2910" x="-100" y="-74" width="96" height="96" color="#000000" fill="#f0f" opacity=".3"/>
  <path id="path3899" transform="translate(0,-74)" d="m48 18-9.75 19.75-21.781 3.1562 15.75 15.375-3.7188 21.719 19.5-10.25 19.469 10.25-3.7188-21.719 15.781-15.344-21.781-3.1875-9.75-19.75zm-0.03125 4.0312 8.1562 16.5a1.7703 1.7703 0 0 0 1.3438 0.96875l18.094 2.6875-13.125 12.75a1.7703 1.7703 0 0 0-0.28125 0.5 1.7703 1.7703 0 0 0-0.1875 1.0938l3.2188 18.312-16.406-8.7188a1.7703 1.7703 0 0 0-1.6562-0.0625l-16.219 8.5312 3.0625-18.062a1.7703 1.7703 0 0 0-0.5-1.5625l-13.156-12.844 18.219-2.6562a1.7703 1.7703 0 0 0 1.0312-0.59375 1.7703 1.7703 0 0 0 0.25-0.34375l8.1562-16.5z" color="#000000" fill="#d45500" opacity=".1"/>
  <path id="path3127" transform="translate(0,-74)" d="m48 18-9.75 19.75-21.781 3.1562 15.75 15.375-3.7188 21.719 19.5-10.25 19.469 10.25-3.7188-21.719 15.781-15.344-21.781-3.1875-9.75-19.75zm-0.03125 1.8125 8.9688 18.312a0.81396 0.81396 0 0 0 0.1875 0.03125 0.81396 0.81396 0 0 0 0.125 0.1875 0.81396 0.81396 0 0 0 0.1875 0.03125 0.81396 0.81396 0 0 0 0.1875 0.03125l20.125 3-14.688 14.188a0.81396 0.81396 0 0 0-0.03125 0.1875 0.81396 0.81396 0 0 0-0.03125 0.1875 0.81396 0.81396 0 0 0-0.03125 0.15625 0.81396 0.81396 0 0 0-0.03125 0.1875l3.4688 20.219-18.125-9.5625a0.81396 0.81396 0 0 0-0.1875-0.03125 0.81396 0.81396 0 0 0-0.1875-0.03125 0.81396 0.81396 0 0 0-0.1875-0.03125 0.81396 0.81396 0 0 0-0.1875-0.03125l-18 9.5938 3.3438-20.062a0.81396 0.81396 0 0 0 0.03125-0.1875 0.81396 0.81396 0 0 0 0.03125-0.1875 0.81396 0.81396 0 0 0-0.15625-0.1875 0.81396 0.81396 0 0 0 0.03125-0.1875l-14.625-14.188 20.125-2.9375a0.81396 0.81396 0 0 0 0.1875 0.03125 0.81396 0.81396 0 0 0 0.21875-0.15625 0.81396 0.81396 0 0 0 0.1875-0.15625 0.81396 0.81396 0 0 0 0.03125-0.1875l9.0312-18.219z" color="#000000" fill="#d45500" opacity=".2"/>
  <path id="path3925" transform="translate(0,-74)" d="m48 18-9.75 19.75-21.781 3.1562 0.90625 0.875 20.875-3.0312 9.75-19.75 9.75 19.75 20.875 3.0625 0.90625-0.875-21.781-3.1875-9.75-19.75zm-15.938 39.125-3.5625 20.875 0.1875-0.09375 3.5312-20.625-0.15625-0.15625zm31.844 0-0.15625 0.15625 3.5312 20.625 0.1875 0.09375-3.5625-20.875z" color="#000000" fill="#d45500" opacity=".5"/>
  <path id="path3934" transform="translate(0,-74)" d="m17.375 41.781-0.90625 0.125 15.594 15.219 0.15625-0.84375-14.844-14.5zm61.25 0.03125-14.875 14.469 0.15625 0.84375 15.625-15.188-0.90625-0.125zm-30.625 25.938-19.312 10.156-0.1875 1.0938 19.5-10.25 19.469 10.25-0.1875-1.0938-19.281-10.156z" color="#000000" fill="#fff" opacity=".5"/>
 </g>
</svg>
