<?xml version="1.0" encoding="UTF-8"?>
<svg id="svg2408" width="96" height="96" version="1.0" xmlns="http://www.w3.org/2000/svg" xmlns:cc="http://creativecommons.org/ns#" xmlns:dc="http://purl.org/dc/elements/1.1/" xmlns:rdf="http://www.w3.org/1999/02/22-rdf-syntax-ns#" xmlns:xlink="http://www.w3.org/1999/xlink">
 <defs id="defs2410">
  <linearGradient id="linearGradient3637">
   <stop id="stop3639" stop-color="#f0f0f0" offset="0"/>
   <stop id="stop3641" stop-color="#aaa" offset="1"/>
  </linearGradient>
  <linearGradient id="ButtonShadow" x1="45.448" x2="45.448" y1="92.54" y2="7.0165" gradientTransform="scale(1.0059 .99417)" gradientUnits="userSpaceOnUse">
   <stop id="stop3750" offset="0"/>
   <stop id="stop3752" stop-opacity=".58824" offset="1"/>
  </linearGradient>
  <linearGradient id="linearGradient3737">
   <stop id="stop3739" stop-color="#fff" offset="0"/>
   <stop id="stop3741" stop-color="#fff" stop-opacity="0" offset="1"/>
  </linearGradient>
  <filter id="filter3174" color-interpolation-filters="sRGB">
   <feGaussianBlur id="feGaussianBlur3176" stdDeviation="1.71"/>
  </filter>
  <linearGradient id="linearGradient3188" x1="36.357" x2="36.357" y1="6" y2="63.893" gradientUnits="userSpaceOnUse" xlink:href="#linearGradient3737"/>
  <filter id="filter3794" x="-.192" y="-.192" width="1.384" height="1.384" color-interpolation-filters="sRGB">
   <feGaussianBlur id="feGaussianBlur3796" stdDeviation="5.28"/>
  </filter>
  <linearGradient id="linearGradient3613" x1="48" x2="48" y1="20.221" y2="138.66" gradientUnits="userSpaceOnUse" xlink:href="#linearGradient3737"/>
  <radialGradient id="radialGradient3619" cx="48" cy="90.172" r="42" gradientTransform="matrix(1.1573 0 0 .99591 -7.551 .19713)" gradientUnits="userSpaceOnUse" xlink:href="#linearGradient3737"/>
  <clipPath id="clipPath3613">
   <rect id="rect3615" x="6" y="6" width="84" height="84" rx="6" ry="6" fill="#fff"/>
  </clipPath>
  <linearGradient id="linearGradient2843" x1="48" x2="48" y1="90" y2="5.9877" gradientTransform="translate(0,100)" gradientUnits="userSpaceOnUse">
   <stop id="stop3702" stop-color="#2276c5" offset="0"/>
   <stop id="stop3704" stop-color="#68baf4" offset="1"/>
  </linearGradient>
  <clipPath id="clipPath3625">
   <path id="path3627" d="m0 0v96h96v-96h-96zm12 6h72c3.324 0 6 2.676 6 6v72c0 3.324-2.676 6-6 6h-72c-3.324 0-6-2.676-6-6v-72c0-3.324 2.676-6 6-6z" fill="#fff"/>
  </clipPath>
  <linearGradient id="linearGradient3643" x1="44.512" x2="44.512" y1="6" y2="90.015" gradientUnits="userSpaceOnUse" xlink:href="#linearGradient3637"/>
  <clipPath id="clipPath3649">
   <rect id="rect3651" x="10" y="10" width="76" height="76" rx="4" ry="4" fill="#fff"/>
  </clipPath>
  <filter id="filter3657" color-interpolation-filters="sRGB">
   <feGaussianBlur id="feGaussianBlur3659" stdDeviation="1.14"/>
  </filter>
  <linearGradient id="ButtonShadow-0" x1="45.448" x2="45.448" y1="92.54" y2="7.0165" gradientTransform="matrix(1.0059 0 0 .99417 100 0)" gradientUnits="userSpaceOnUse">
   <stop id="stop3750-8" offset="0"/>
   <stop id="stop3752-5" stop-opacity=".58824" offset="1"/>
  </linearGradient>
  <linearGradient id="linearGradient3780" x1="32.251" x2="32.251" y1="6.1317" y2="90.239" gradientTransform="matrix(1.0238 0 0 -1.0119 -1.1429 98.071)" gradientUnits="userSpaceOnUse" xlink:href="#ButtonShadow-0"/>
  <linearGradient id="linearGradient3721" x1="32.251" x2="32.251" y1="6.1317" y2="90.239" gradientTransform="matrix(1,0,0,-1,0,97)" gradientUnits="userSpaceOnUse" xlink:href="#ButtonShadow-0"/>
  <radialGradient id="radialGradient3619-3" cx="48" cy="90.172" r="42" gradientTransform="matrix(1.1573 0 0 .99591 -7.551 .19713)" gradientUnits="userSpaceOnUse" xlink:href="#linearGradient3737"/>
  <linearGradient id="linearGradient3905" x1="104" x2="120" y1="8" y2="8" gradientTransform="translate(-104,104)" gradientUnits="userSpaceOnUse" xlink:href="#linearGradient3637"/>
  <linearGradient id="linearGradient3913" x1="104" x2="120" y1="8" y2="8" gradientTransform="translate(-144,104)" gradientUnits="userSpaceOnUse">
   <stop id="stop3185-9" stop-color="#c80000" offset="0"/>
   <stop id="stop3187-6" stop-color="#f3604d" offset="1"/>
  </linearGradient>
  <linearGradient id="linearGradient3887" x1="9.1735" x2="9.1735" y1="3.1499" y2="18.002" gradientTransform="matrix(3,0,0,3,16,22)" gradientUnits="userSpaceOnUse" xlink:href="#linearGradient3637"/>
 </defs>
 <metadata id="metadata2413">
  <rdf:RDF>
   <cc:Work rdf:about="">
    <dc:format>image/svg+xml</dc:format>
    <dc:type rdf:resource="http://purl.org/dc/dcmitype/StillImage"/>
    <dc:title/>
   </cc:Work>
  </rdf:RDF>
 </metadata>
 <g id="layer2" display="none">
  <rect id="rect3745" x="5" y="7" width="86" height="85" rx="6" ry="6" clip-path="url(#clipPath3625)" fill="url(#ButtonShadow)" filter="url(#filter3174)" opacity=".9"/>
 </g>
 <g id="layer3">
  <path id="path3786" d="m12 3.9688c-5.5111 0-10.031 4.5202-10.031 10.031v71c0 5.5111 4.5202 10.031 10.031 10.031h72c5.5111 0 10.031-4.5202 10.031-10.031v-71c0-5.5111-4.5202-10.031-10.031-10.031h-72zm0 2.0312h72c3.324 0 6 2.676 6 6v72c0 3.324-2.676 6-6 6h-72c-3.324 0-6-2.676-6-6v-72c0-3.324 2.676-6 6-6z" fill="url(#linearGradient3780)" opacity=".08"/>
  <path id="path3778" d="m12 4.9688c-4.9716 0-9.0312 4.0596-9.0312 9.0312v71c0 4.9716 4.0596 9.0312 9.0312 9.0312h72c4.9716 0 9.0312-4.0596 9.0312-9.0312v-71c0-4.9716-4.0596-9.0312-9.0312-9.0312h-72zm0 1.0312h72c3.324 0 6 2.676 6 6v72c0 3.324-2.676 6-6 6h-72c-3.324 0-6-2.676-6-6v-72c0-3.324 2.676-6 6-6z" fill="url(#linearGradient3780)" opacity=".1"/>
  <path id="path3770" d="m11.188 6.0312c-4.0275 0.41065-7.1875 3.8352-7.1875 7.9688v71c0 4.4091 3.5909 8 8 8h72c4.4091 0 8-3.5909 8-8v-71c0-4.1971-3.259-7.646-7.375-7.9688 3.0329 0.30617 5.375 2.8525 5.375 5.9688v72c0 3.324-2.676 6-6 6h-72c-3.324 0-6-2.676-6-6v-72c0-3.1162 2.3421-5.6626 5.375-5.9688-0.06227 0.00488-0.12563-0.00631-0.1875 0z" fill="url(#linearGradient3780)" opacity=".2"/>
  <path id="rect3723" d="m6.4375 9.75c-0.89949 1.1774-1.4375 2.6473-1.4375 4.25v71c0 3.878 3.122 7 7 7h72c3.878 0 7-3.122 7-7v-71c0-1.6027-0.53801-3.0726-1.4375-4.25 0.27932 0.6941 0.4375 1.4536 0.4375 2.25v72c0 3.324-2.676 6-6 6h-72c-3.324 0-6-2.676-6-6v-72c0-0.79638 0.15818-1.5559 0.4375-2.25z" fill="url(#linearGradient3780)" opacity=".3"/>
  <path id="rect3716" d="m6 84v1c0 3.324 2.676 6 6 6h72c3.324 0 6-2.676 6-6v-1c0 3.324-2.676 6-6 6h-72c-3.324 0-6-2.676-6-6z" fill="url(#linearGradient3721)" opacity=".45"/>
 </g>
 <g id="layer1" display="none">
  <rect id="rect2419" x="6" y="6" width="84" height="84" rx="6" ry="6" opacity=".8"/>
  <path id="rect3726" d="m14 10c-2.216 0-4 1.784-4 4v68c0 2.216 1.784 4 4 4h68c2.216 0 4-1.784 4-4v-68c0-2.216-1.784-4-4-4h-68zm0 3.0625h68c0.57877 0 0.9375 0.35873 0.9375 0.9375v68c0 0.57877-0.35873 0.9375-0.9375 0.9375h-68c-0.57877 0-0.9375-0.35873-0.9375-0.9375v-68c0-0.57877 0.35873-0.9375 0.9375-0.9375z" opacity=".08"/>
  <path id="rect3629" d="m12 6c-3.324 0-6 2.676-6 6v72c0 3.324 2.676 6 6 6h72c3.324 0 6-2.676 6-6v-72c0-3.324-2.676-6-6-6h-72zm2 4h68c2.216 0 4 1.784 4 4v68c0 2.216-1.784 4-4 4h-68c-2.216 0-4-1.784-4-4v-68c0-2.216 1.784-4 4-4z" fill="url(#linearGradient3643)"/>
  <path id="rect3728" d="m12 6c-3.324 0-6 2.676-6 6v2 68 2c0 0.33472 0.04135 0.6507 0.09375 0.96875 0.0487 0.2956 0.09704 0.59692 0.1875 0.875 0.00988 0.03038 0.020892 0.0636 0.03125 0.09375 0.098865 0.28777 0.23488 0.54745 0.375 0.8125 0.14459 0.27351 0.31562 0.53562 0.5 0.78125s0.37378 0.47347 0.59375 0.6875c0.43995 0.42806 0.94291 0.81453 1.5 1.0938 0.27854 0.13961 0.57347 0.24695 0.875 0.34375-0.2562-0.10022-0.48671-0.23627-0.71875-0.375-0.00741-0.0044-0.023866 0.0045-0.03125 0-0.031933-0.0193-0.062293-0.04251-0.09375-0.0625-0.1204-0.0767-0.23102-0.16351-0.34375-0.25-0.10617-0.0808-0.21328-0.16111-0.3125-0.25-0.17793-0.16143-0.34746-0.34539-0.5-0.53125-0.10758-0.13026-0.21839-0.26528-0.3125-0.40625-0.025089-0.03838-0.038446-0.08587-0.0625-0.125-0.064763-0.10303-0.13023-0.20452-0.1875-0.3125-0.10101-0.19471-0.20567-0.4157-0.28125-0.625-0.00796-0.02181-0.023589-0.04055-0.03125-0.0625-0.031825-0.09195-0.035804-0.18683-0.0625-0.28125-0.030332-0.10662-0.070389-0.20303-0.09375-0.3125-0.072879-0.34151-0.125-0.6982-0.125-1.0625v-2-68-2c0-2.7818 2.2182-5 5-5h2 68 2c2.7818 0 5 2.2182 5 5v2 68 2c0 0.3643-0.05212 0.72099-0.125 1.0625-0.04415 0.20689-0.08838 0.39766-0.15625 0.59375-0.0077 0.02195-0.0233 0.04069-0.03125 0.0625-0.06274 0.17374-0.13838 0.36745-0.21875 0.53125-0.04158 0.0828-0.07904 0.16995-0.125 0.25-0.0546 0.09721-0.12677 0.18835-0.1875 0.28125-0.09411 0.14096-0.20492 0.276-0.3125 0.40625-0.14317 0.17445-0.30314 0.347-0.46875 0.5-0.01117 0.0102-0.01998 0.02115-0.03125 0.03125-0.13839 0.12556-0.28509 0.23444-0.4375 0.34375-0.10257 0.07315-0.20432 0.15336-0.3125 0.21875-0.0074 0.0045-0.02384-0.0044-0.03125 0-0.23204 0.13873-0.46255 0.27478-0.71875 0.375 0.30153-0.0968 0.59646-0.20414 0.875-0.34375 0.55709-0.27922 1.0601-0.66569 1.5-1.0938 0.21997-0.21403 0.40937-0.44186 0.59375-0.6875s0.35541-0.50774 0.5-0.78125c0.14012-0.26505 0.27614-0.52473 0.375-0.8125 0.01041-0.03078 0.02133-0.06274 0.03125-0.09375 0.09046-0.27808 0.1388-0.5794 0.1875-0.875 0.0524-0.31805 0.09375-0.63403 0.09375-0.96875v-2-68-2c0-3.324-2.676-6-6-6h-72z" fill="url(#linearGradient3188)"/>
  <path id="path3615" d="m12 90c-3.324 0-6-2.676-6-6v-2-68-2c0-0.33472 0.04135-0.6507 0.09375-0.96875 0.0487-0.2956 0.09704-0.59692 0.1875-0.875 0.00988-0.03038 0.020892-0.0636 0.03125-0.09375 0.098865-0.28777 0.23488-0.54745 0.375-0.8125 0.14459-0.27351 0.31562-0.53562 0.5-0.78125s0.37378-0.47347 0.59375-0.6875c0.43995-0.42806 0.94291-0.81453 1.5-1.0938 0.27854-0.13961 0.57347-0.24695 0.875-0.34375-0.2562 0.10022-0.48671 0.23627-0.71875 0.375-0.00741 0.0044-0.023866-0.0045-0.03125 0-0.031933 0.0193-0.062293 0.04251-0.09375 0.0625-0.1204 0.0767-0.23102 0.16351-0.34375 0.25-0.10617 0.0808-0.21328 0.16111-0.3125 0.25-0.17793 0.16143-0.34746 0.34539-0.5 0.53125-0.10758 0.13026-0.21839 0.26528-0.3125 0.40625-0.025089 0.03838-0.038446 0.08587-0.0625 0.125-0.064763 0.10303-0.13023 0.20452-0.1875 0.3125-0.10101 0.19471-0.20567 0.4157-0.28125 0.625-0.00796 0.02181-0.023589 0.04055-0.03125 0.0625-0.031825 0.09195-0.035804 0.18683-0.0625 0.28125-0.030332 0.10662-0.070389 0.20303-0.09375 0.3125-0.072879 0.34151-0.125 0.6982-0.125 1.0625v2 68 2c0 2.7818 2.2182 5 5 5h2 68 2c2.7818 0 5-2.2182 5-5v-2-68-2c0-0.3643-0.05212-0.72099-0.125-1.0625-0.04415-0.20689-0.08838-0.39766-0.15625-0.59375-0.0077-0.02195-0.0233-0.04069-0.03125-0.0625-0.06274-0.17374-0.13838-0.36745-0.21875-0.53125-0.04158-0.0828-0.07904-0.16995-0.125-0.25-0.0546-0.09721-0.12677-0.18835-0.1875-0.28125-0.09411-0.14096-0.20492-0.276-0.3125-0.40625-0.14317-0.17445-0.30314-0.347-0.46875-0.5-0.01117-0.0102-0.01998-0.02115-0.03125-0.03125-0.13839-0.12556-0.28509-0.23444-0.4375-0.34375-0.10257-0.07315-0.20432-0.15336-0.3125-0.21875-0.0074-0.0045-0.02384 0.0044-0.03125 0-0.23204-0.13873-0.46255-0.27478-0.71875-0.375 0.30153 0.0968 0.59646 0.20414 0.875 0.34375 0.55709 0.27922 1.0601 0.66569 1.5 1.0938 0.21997 0.21403 0.40937 0.44186 0.59375 0.6875s0.35541 0.50774 0.5 0.78125c0.14012 0.26505 0.27614 0.52473 0.375 0.8125 0.01041 0.03078 0.02133 0.06274 0.03125 0.09375 0.09046 0.27808 0.1388 0.5794 0.1875 0.875 0.0524 0.31805 0.09375 0.63403 0.09375 0.96875v2 68 2c0 3.324-2.676 6-6 6h-72z" fill="url(#radialGradient3619)" opacity=".6"/>
  <rect id="rect2841" x="6" y="106" width="84" height="84" rx="6" ry="6" fill="url(#linearGradient2843)"/>
  <rect id="rect3634" x="10" y="110" width="76" height="76" rx="4" ry="4" fill="#f00"/>
  <path id="rect3647" transform="translate(-110)" d="m14 9c-2.7527 0-5 2.2473-5 5v68c0 2.7527 2.2473 5 5 5h68c2.7527 0 5-2.2473 5-5v-68c0-2.7527-2.2473-5-5-5h-68zm0 2h68c1.6793 0 3 1.3207 3 3v68c0 1.6793-1.3207 3-3 3h-68c-1.6793 0-3-1.3207-3-3v-68c0-1.6793 1.3207-3 3-3z" clip-path="url(#clipPath3649)" color="#000000" display="inline" filter="url(#filter3657)" style="block-progression:tb;text-indent:0;text-transform:none"/>
  <path id="path3709" d="m14.089 10c-2.216 0-4 1.784-4 4v68c0 2.216 1.784 4 4 4h68c2.216 0 4-1.784 4-4v-68c0-2.216-1.784-4-4-4h-68zm0 2h68c1.1403 0 2 0.8597 2 2v68c0 1.1403-0.8597 2-2 2h-68c-1.1403 0-2-0.8597-2-2v-68c0-1.1403 0.8597-2 2-2z" opacity=".16"/>
  <path id="path3707" d="m14 10c-2.216 0-4 1.784-4 4v68c0 2.216 1.784 4 4 4h68c2.216 0 4-1.784 4-4v-68c0-2.216-1.784-4-4-4h-68zm0 1h68c1.6738 0 3 1.3262 3 3v68c0 1.6738-1.3262 3-3 3h-68c-1.6738 0-3-1.3262-3-3v-68c0-1.6738 1.3262-3 3-3z" opacity=".36"/>
 </g>
 <g id="layer4">
  <rect id="rect2419-9" x="6" y="6" width="84" height="84" rx="6" ry="6" opacity=".6"/>
  <path id="rect3728-4" d="m12 6c-3.324 0-6 2.676-6 6v2 68 2c0 0.33472 0.04135 0.6507 0.09375 0.96875 0.0487 0.2956 0.09704 0.59692 0.1875 0.875 0.00988 0.03038 0.020892 0.0636 0.03125 0.09375 0.098865 0.28777 0.23488 0.54745 0.375 0.8125 0.14459 0.27351 0.31562 0.53562 0.5 0.78125s0.37378 0.47347 0.59375 0.6875c0.43995 0.42806 0.94291 0.81453 1.5 1.0938 0.27854 0.13961 0.57347 0.24695 0.875 0.34375-0.2562-0.10022-0.48671-0.23627-0.71875-0.375-0.00741-0.0044-0.023866 0.0045-0.03125 0-0.031933-0.0193-0.062293-0.04251-0.09375-0.0625-0.1204-0.0767-0.23102-0.16351-0.34375-0.25-0.10617-0.0808-0.21328-0.16111-0.3125-0.25-0.17793-0.16143-0.34746-0.34539-0.5-0.53125-0.10758-0.13026-0.21839-0.26528-0.3125-0.40625-0.025089-0.03838-0.038446-0.08587-0.0625-0.125-0.064763-0.10303-0.13023-0.20452-0.1875-0.3125-0.10101-0.19471-0.20567-0.4157-0.28125-0.625-0.00796-0.02181-0.023589-0.04055-0.03125-0.0625-0.031825-0.09195-0.035804-0.18683-0.0625-0.28125-0.030332-0.10662-0.070389-0.20303-0.09375-0.3125-0.072879-0.34151-0.125-0.6982-0.125-1.0625v-2-68-2c0-2.7818 2.2182-5 5-5h2 68 2c2.7818 0 5 2.2182 5 5v2 68 2c0 0.3643-0.05212 0.72099-0.125 1.0625-0.04415 0.20689-0.08838 0.39766-0.15625 0.59375-0.0077 0.02195-0.0233 0.04069-0.03125 0.0625-0.06274 0.17374-0.13838 0.36745-0.21875 0.53125-0.04158 0.0828-0.07904 0.16995-0.125 0.25-0.0546 0.09721-0.12677 0.18835-0.1875 0.28125-0.09411 0.14096-0.20492 0.276-0.3125 0.40625-0.14317 0.17445-0.30314 0.347-0.46875 0.5-0.01117 0.0102-0.01998 0.02115-0.03125 0.03125-0.13839 0.12556-0.28509 0.23444-0.4375 0.34375-0.10257 0.07315-0.20432 0.15336-0.3125 0.21875-0.0074 0.0045-0.02384-0.0044-0.03125 0-0.23204 0.13873-0.46255 0.27478-0.71875 0.375 0.30153-0.0968 0.59646-0.20414 0.875-0.34375 0.55709-0.27922 1.0601-0.66569 1.5-1.0938 0.21997-0.21403 0.40937-0.44186 0.59375-0.6875s0.35541-0.50774 0.5-0.78125c0.14012-0.26505 0.27614-0.52473 0.375-0.8125 0.01041-0.03078 0.02133-0.06274 0.03125-0.09375 0.09046-0.27808 0.1388-0.5794 0.1875-0.875 0.0524-0.31805 0.09375-0.63403 0.09375-0.96875v-2-68-2c0-3.324-2.676-6-6-6h-72z" fill="url(#linearGradient3188)" opacity=".01"/>
  <path id="path3615-6" d="m12 90c-3.324 0-6-2.676-6-6v-2-68-2c0-0.33472 0.04135-0.6507 0.09375-0.96875 0.0487-0.2956 0.09704-0.59692 0.1875-0.875 0.00988-0.03038 0.020892-0.0636 0.03125-0.09375 0.098865-0.28777 0.23488-0.54745 0.375-0.8125 0.14459-0.27351 0.31562-0.53562 0.5-0.78125s0.37378-0.47347 0.59375-0.6875c0.43995-0.42806 0.94291-0.81453 1.5-1.0938 0.27854-0.13961 0.57347-0.24695 0.875-0.34375-0.2562 0.10022-0.48671 0.23627-0.71875 0.375-0.00741 0.0044-0.023866-0.0045-0.03125 0-0.031933 0.0193-0.062293 0.04251-0.09375 0.0625-0.1204 0.0767-0.23102 0.16351-0.34375 0.25-0.10617 0.0808-0.21328 0.16111-0.3125 0.25-0.17793 0.16143-0.34746 0.34539-0.5 0.53125-0.10758 0.13026-0.21839 0.26528-0.3125 0.40625-0.025089 0.03838-0.038446 0.08587-0.0625 0.125-0.064763 0.10303-0.13023 0.20452-0.1875 0.3125-0.10101 0.19471-0.20567 0.4157-0.28125 0.625-0.00796 0.02181-0.023589 0.04055-0.03125 0.0625-0.031825 0.09195-0.035804 0.18683-0.0625 0.28125-0.030332 0.10662-0.070389 0.20303-0.09375 0.3125-0.072879 0.34151-0.125 0.6982-0.125 1.0625v2 68 2c0 2.7818 2.2182 5 5 5h2 68 2c2.7818 0 5-2.2182 5-5v-2-68-2c0-0.3643-0.05212-0.72099-0.125-1.0625-0.04415-0.20689-0.08838-0.39766-0.15625-0.59375-0.0077-0.02195-0.0233-0.04069-0.03125-0.0625-0.06274-0.17374-0.13838-0.36745-0.21875-0.53125-0.04158-0.0828-0.07904-0.16995-0.125-0.25-0.0546-0.09721-0.12677-0.18835-0.1875-0.28125-0.09411-0.14096-0.20492-0.276-0.3125-0.40625-0.14317-0.17445-0.30314-0.347-0.46875-0.5-0.01117-0.0102-0.01998-0.02115-0.03125-0.03125-0.13839-0.12556-0.28509-0.23444-0.4375-0.34375-0.10257-0.07315-0.20432-0.15336-0.3125-0.21875-0.0074-0.0045-0.02384 0.0044-0.03125 0-0.23204-0.13873-0.46255-0.27478-0.71875-0.375 0.30153 0.0968 0.59646 0.20414 0.875 0.34375 0.55709 0.27922 1.0601 0.66569 1.5 1.0938 0.21997 0.21403 0.40937 0.44186 0.59375 0.6875s0.35541 0.50774 0.5 0.78125c0.14012 0.26505 0.27614 0.52473 0.375 0.8125 0.01041 0.03078 0.02133 0.06274 0.03125 0.09375 0.09046 0.27808 0.1388 0.5794 0.1875 0.875 0.0524 0.31805 0.09375 0.63403 0.09375 0.96875v2 68 2c0 3.324-2.676 6-6 6h-72z" fill="url(#radialGradient3619-3)" opacity=".15"/>
 </g>
 <g id="layer5" display="none">
  <rect id="rect3171" x="15" y="15" width="66" height="66" rx="12" ry="12" clip-path="url(#clipPath3613)" fill="url(#linearGradient3613)" filter="url(#filter3794)" opacity=".1" stroke="#fff" stroke-linecap="round" stroke-width=".5"/>
 </g>
 <g id="layer6">
  <path id="path3939" d="m53.875 29.938c-1.602 0.03059-2.0821 1.7901-1.875 3.108 0.02082 8.7131-0.04165 17.433 0.03125 26.142 0.10212 1.6125 1.8974 1.9542 3.2038 1.7812 2.0108-0.08908 4.0648 0.18764 6.0462-0.15625 1.4372-1.5868 3.4222 1.1176 5.4128 0.60846 4.0749 0.35226 7.9874-2.1668 9.6334-5.8361 2.4201-4.882 2.09-11.337-1.39-15.616-2.5481-3.0106-6.7814-4.607-10.629-3.3319-1.5915 1.0213-2.0923 0.83255-1.809-0.84478-0.14654-1.6489 0.33976-3.436-0.34375-4.9796-1.1016-1.4262-3.0936-0.69361-4.6325-0.875h-3.6487zm-22.688 0.09375c-1.7177 0.02646-1.9928 1.9483-2.5045 3.2077-3.1601 8.5081-6.4434 16.981-9.5267 25.511-0.24036 1.4221 1.2355 2.4865 2.5707 2.2188 2.3237-0.0809 4.7031 0.16348 6.9918-0.125 1.5835-0.57032 1.5448-2.5888 2.22-3.8978 0.02358-1.3471 1.3202-0.87939 2.242-0.94597h6.288c0.65374 1.4746 0.79882 3.2445 1.8438 4.5 1.329 0.88336 3.0628 0.29976 4.5741 0.46875 1.5608-0.11629 3.2075 0.25074 4.7071-0.21875 1.2918-0.63743 1.1988-2.2619 0.57243-3.3579-3.3359-8.8233-6.5943-17.689-9.9787-26.486-1.0886-1.4334-3.0966-0.69051-4.6325-0.875h-5.3675zm4.2188 14.25c0.32292 0.9375 0.64583 1.875 0.96875 2.8125-0.82402-0.09871-2.5501 0.44598-1.6282-0.89797 0.21982-0.63818 0.43963-1.2764 0.65945-1.9145zm29.438 0.65625c3.2145 0.34771 2.7957 5.5194 1.3411 7.5583-3.5751 1.7927-4.2238-3.3384-3.4684-5.69 0.20016-1.0321 0.90455-2.1486 2.1272-1.8683zm-29.031 22.094c-1.6681 0.04491-2.4285 2.3809-1.1562 3.4062 4.0881 4.0571 8.1378 8.1573 12.25 12.188 1.4701 1.0512 2.8037-0.47485 3.7296-1.4828 3.6804-3.733 7.467-7.4018 11.083-11.173 0.92295-1.4489-0.5913-3.2789-2.1936-2.9375h-23.713z" opacity=".1"/>
  <path id="path3935" d="m53.969 31.031a0.86371 0.86371 0 0 0-0.875 0.875v27.094a0.86371 0.86371 0 0 0 0.875 0.875h6.5625a0.86371 0.86371 0 0 0 0.875-0.875v-0.78125c0.53892 0.46689 1.118 0.87665 1.7188 1.1875a0.86371 0.86371 0 0 0 0.03125 0c1.2198 0.61775 2.5846 0.9375 4.125 0.9375 2.7308 0 5.0831-1.0676 6.8438-3.2188a0.86371 0.86371 0 0 0 0-0.03125c1.7583-2.1615 2.6562-4.9454 2.6562-8.2188-2.5e-5 -3.2627-0.90628-6.0692-2.6562-8.2188-0.0054-0.0067-0.02581 0.0067-0.03125 0-1.7514-2.1423-4.0716-3.3437-6.8125-3.3438-1.5247 2.2e-5 -2.9039 0.31143-4.125 0.9375-0.0087 0.0045-0.02257-0.0045-0.03125 0v0.03125c-0.5922 0.30406-1.1901 0.69673-1.7188 1.1562v-7.5312a0.86371 0.86371 0 0 0-0.875-0.875h-6.5625zm-22.75 0.09375a0.86371 0.86371 0 0 0-0.8125 0.5625l-10.125 27a0.86371 0.86371 0 0 0 0.8125 1.1875h7.0312a0.86371 0.86371 0 0 0 0.8125-0.59375l1.5625-4.375h9.75l1.5 4.375a0.86371 0.86371 0 0 0 0.8125 0.59375h7.125a0.86371 0.86371 0 0 0 0.8125-1.1875l-10.125-27a0.86371 0.86371 0 0 0-0.8125-0.5625h-8.3438zm4.2188 9.8125 2.4375 7.25h-4.9688l2.5312-7.25zm29.406 2.9062c1.1985 1.3e-5 1.9248 0.32702 2.5 1.125 0.59109 0.80657 0.93748 2.0918 0.9375 3.9062-1.7e-5 1.8145-0.34642 3.0997-0.9375 3.9062-0.57525 0.798-1.3015 1.125-2.5 1.125-1.1985 3e-6 -1.8923-0.34045-2.5-1.1562-0.58683-0.82291-0.93751-2.0882-0.9375-3.875-8e-6 -1.8017 0.34832-3.1023 0.9375-3.9062 0.60644-0.82384 1.2965-1.125 2.5-1.125zm-28.844 24.281a0.86371 0.86371 0 0 0-0.625 1.5l12 12a0.86371 0.86371 0 0 0 1.25 0l12-12a0.86371 0.86371 0 0 0-0.625-1.5h-24z" opacity=".15"/>
  <path id="path3929" d="m53.969 31.906v27.094h6.5625v-3c0.90026 1.1814 1.9051 2.0584 3 2.625 1.0949 0.5545 2.3266 0.84375 3.75 0.84375 2.5183 0 4.5694-0.92924 6.1875-2.9062 1.618-1.9891 2.4375-4.5653 2.4375-7.6875-2.4e-5 -3.1222-0.81947-5.7105-2.4375-7.6875-1.6181-1.989-3.6692-3-6.1875-3-1.4234 2.1e-5 -2.6551 0.2772-3.75 0.84375-1.0949 0.55455-2.0997 1.4436-3 2.625v-9.75h-6.5625zm-22.75 0.09375-10.125 27h7.0312l1.7812-4.9688h10.969l1.6875 4.9688h7.125l-10.125-27h-8.3438zm4.2188 6.2812 3.6562 10.781h-7.4062l3.75-10.781zm29.406 4.6875c1.3991 1.5e-5 2.4575 0.4874 3.1875 1.5 0.7421 1.0126 1.125 2.4775 1.125 4.4062-1.8e-5 1.9288-0.3829 3.3936-1.125 4.4062-0.72997 1.0126-1.7884 1.5-3.1875 1.5-1.3991 3e-6 -2.4332-0.48738-3.1875-1.5-0.74212-1.0247-1.125-2.4895-1.125-4.4062-9e-6 -1.9167 0.38288-3.3936 1.125-4.4062 0.75427-1.0247 1.7884-1.5 3.1875-1.5zm-28.844 26.031 12 12 12-12h-24z" opacity=".3"/>
  <rect id="rect3897" transform="matrix(0,1,1,0,0,0)" y="104" width="16" height="16" color="#000000" fill="url(#linearGradient3905)"/>
  <text id="text3907" x="104" y="48" fill="#000000" font-family="Liberation Sans" font-size="4px" letter-spacing="0px" word-spacing="0px" style="line-height:125%" xml:space="preserve"><tspan id="tspan3909" x="104" y="48">Shadow opacity : 30, 15, 10, (8)</tspan></text>
  <rect id="rect3911" transform="rotate(-90)" x="-40" y="104" width="16" height="16" color="#000000" fill="url(#linearGradient3913)"/>
  <text id="text3951" x="124" y="32" fill="#000000" font-family="Liberation Sans" font-size="4px" letter-spacing="0px" word-spacing="0px" style="line-height:125%" xml:space="preserve"><tspan id="tspan3953" x="124" y="32">Bevel opacity : 30 / 10</tspan></text>
  <text id="text3955" x="124" y="8" fill="#000000" font-family="Liberation Sans" font-size="4px" letter-spacing="0px" word-spacing="0px" style="line-height:125%" xml:space="preserve"><tspan id="tspan3957" x="124" y="8">Bevel opacity : 75 / 15</tspan></text>
  <path id="path3108" d="m53.969 30.906v27.094h6.5625v-3c0.90026 1.1814 1.9051 2.0584 3 2.625 1.0949 0.5545 2.3266 0.84375 3.75 0.84375 2.5183 0 4.5694-0.92924 6.1875-2.9062 1.618-1.9891 2.4375-4.5653 2.4375-7.6875-2.4e-5 -3.1222-0.81947-5.7105-2.4375-7.6875-1.6181-1.989-3.6692-3-6.1875-3-1.4234 2.1e-5 -2.6551 0.2772-3.75 0.84375-1.0949 0.55455-2.0997 1.4436-3 2.625v-9.75h-6.5625zm-22.75 0.09375-10.125 27h7.0312l1.7812-4.9688h10.969l1.6875 4.9688h7.125l-10.125-27h-8.3438zm4.2188 6.2812 3.6562 10.781h-7.4062l3.75-10.781zm29.406 4.6875c1.3991 1.5e-5 2.4575 0.4874 3.1875 1.5 0.7421 1.0126 1.125 2.4775 1.125 4.4062-1.8e-5 1.9288-0.3829 3.3936-1.125 4.4062-0.72997 1.0126-1.7884 1.5-3.1875 1.5-1.3991 3e-6 -2.4332-0.48738-3.1875-1.5-0.74212-1.0247-1.125-2.4895-1.125-4.4062-9e-6 -1.9167 0.38288-3.3936 1.125-4.4062 0.75427-1.0247 1.7884-1.5 3.1875-1.5zm-28.844 26.031 12 12 12-12h-24z" fill="url(#linearGradient3887)"/>
  <path id="path3143" d="m53.969 30.906v1h6.5625v-1h-6.5625zm-22.75 0.09375-10.125 27h0.375l9.75-26h8.3438l9.75 26h0.375l-10.125-27h-8.3438zm36.062 6.1875c-1.4234 2.1e-5 -2.6551 0.2772-3.75 0.84375-1.0949 0.55455-2.0997 1.4436-3 2.625v1c0.90026-1.1814 1.9051-2.0705 3-2.625 1.0949-0.56655 2.3266-0.84373 3.75-0.84375 2.5183 2.1e-5 4.5694 1.011 6.1875 3 1.5306 1.8702 2.3538 4.2887 2.4375 7.1875 0.0048-0.16545-1e-6 -0.33135 0-0.5-2.4e-5 -3.1222-0.81947-5.7105-2.4375-7.6875-1.6181-1.989-3.6692-3-6.1875-3zm-35.25 10.875-0.34375 1h7.4062l-0.34375-1h-6.7188zm28.531 0.3125c-0.0066 0.17079-0.03125 0.32157-0.03125 0.5-9e-6 1.9167 0.38288 3.3816 1.125 4.4062 0.75427 1.0126 1.7884 1.5 3.1875 1.5 1.3991 3e-6 2.4575-0.48738 3.1875-1.5 0.7421-1.0126 1.125-2.4775 1.125-4.4062-2e-6 -0.17548-0.02493-0.33219-0.03125-0.5-0.06317 1.6767-0.41917 2.9858-1.0938 3.9062-0.72997 1.0126-1.7884 1.5-3.1875 1.5-1.3991 3e-6 -2.4332-0.48738-3.1875-1.5-0.67304-0.92927-1.0293-2.2442-1.0938-3.9062zm-24.562 19.625 1 1h22l1-1h-24z" fill="#fff" opacity=".75"/>
  <path id="path3920" d="m35.438 36.281-3.75 10.781h0.34375l3.4062-9.7812 3.3125 9.7812h0.34375l-3.6562-10.781zm29.406 4.6875c-1.3991 1.5e-5 -2.4332 0.47534-3.1875 1.5-0.74212 1.0126-1.125 2.4895-1.125 4.4062-1e-6 0.17843 0.02463 0.32939 0.03125 0.5 0.06446-1.6638 0.42071-2.9879 1.0938-3.9062 0.75427-1.0247 1.7884-1.5 3.1875-1.5 1.3991 1.5e-5 2.4575 0.4874 3.1875 1.5 0.67458 0.9205 1.0306 2.2296 1.0938 3.9062 0.0063-0.16781 0.03125-0.32452 0.03125-0.5-1.8e-5 -1.9288-0.3829-3.3936-1.125-4.4062-0.72997-1.0126-1.7884-1.5-3.1875-1.5zm11.062 6.4062c-0.0837 2.8977-0.90687 5.3059-2.4375 7.1875-1.6181 1.977-3.6692 2.9062-6.1875 2.9062-1.4234 0-2.6551-0.28925-3.75-0.84375-1.0949-0.56658-2.0997-1.4436-3-2.625v1c0.90026 1.1814 1.9051 2.0584 3 2.625 1.0949 0.5545 2.3266 0.84375 3.75 0.84375 2.5183 0 4.5694-0.92924 6.1875-2.9062 1.618-1.9891 2.4375-4.5653 2.4375-7.6875-1e-6 -0.16864 0.0048-0.33448 0-0.5zm-46 4.6562-1.7812 4.9688h-6.6562l-0.375 1h7.0312l1.7812-4.9688h10.969l1.6875 4.9688h7.125l-0.375-1h-6.75l-1.6875-4.9688h-10.969zm24.062 4.9688v1h6.5625v-1h-6.5625zm-17.969 11 12 12 12-12h-1l-11 11-11-11h-1z" opacity=".15"/>
 </g>
</svg>
