<?xml version="1.0" encoding="UTF-8"?>
<svg id="svg2408" width="96" height="96" version="1.0" xmlns="http://www.w3.org/2000/svg" xmlns:cc="http://creativecommons.org/ns#" xmlns:dc="http://purl.org/dc/elements/1.1/" xmlns:rdf="http://www.w3.org/1999/02/22-rdf-syntax-ns#" xmlns:xlink="http://www.w3.org/1999/xlink">
 <defs id="defs2410">
  <filter id="filter3794" x="-.192" y="-.192" width="1.384" height="1.384" color-interpolation-filters="sRGB">
   <feGaussianBlur id="feGaussianBlur3796" stdDeviation="5.28"/>
  </filter>
  <linearGradient id="linearGradient3613" x1="48" x2="48" y1="20.221" y2="138.66" gradientUnits="userSpaceOnUse">
   <stop id="stop3739" stop-color="#fff" offset="0"/>
   <stop id="stop3741" stop-color="#fff" stop-opacity="0" offset="1"/>
  </linearGradient>
  <clipPath id="clipPath3613">
   <rect id="rect3615" x="6" y="6" width="84" height="84" rx="6" ry="6" fill="#fff"/>
  </clipPath>
  <filter id="filter3174-2" color-interpolation-filters="sRGB">
   <feGaussianBlur id="feGaussianBlur3176-2" stdDeviation="1.71"/>
  </filter>
  <linearGradient id="linearGradient2875" x1="45.448" x2="45.448" y1="92.54" y2="7.0165" gradientTransform="scale(1.0059 .99417)" gradientUnits="userSpaceOnUse">
   <stop id="stop3750-6" offset="0"/>
   <stop id="stop3752-9" stop-opacity=".58824" offset="1"/>
  </linearGradient>
  <linearGradient id="linearGradient3737-1">
   <stop id="stop3739-1" stop-color="#fff" offset="0"/>
   <stop id="stop3741-0" stop-color="#fff" stop-opacity="0" offset="1"/>
  </linearGradient>
  <linearGradient id="linearGradient2982" x1="48" x2="48" y1="90" y2="5.9877" gradientUnits="userSpaceOnUse" xlink:href="#ButtonColor-6"/>
  <linearGradient id="linearGradient2984" x1="31.714" x2="31.714" y1="6" y2="74.093" gradientUnits="userSpaceOnUse" xlink:href="#linearGradient3737-1"/>
  <radialGradient id="radialGradient2986" cx="47.967" cy="89.689" r="42" gradientTransform="matrix(1.3341 0 0 .95759 -16.026 2.1113)" gradientUnits="userSpaceOnUse" xlink:href="#linearGradient3737-1"/>
  <linearGradient id="ButtonColor-6" x1="58.65" x2="58.65" y1="122" y2="5.4252" gradientUnits="userSpaceOnUse">
   <stop id="stop3189-4" stop-color="#dcdcdc" offset="0"/>
   <stop id="stop3191-0" stop-color="#f5f5f5" offset="1"/>
  </linearGradient>
  <clipPath id="clipPath4175">
   <path id="path4177" d="m11.098 2.9904c-4.5114 0-8.1709 3.4413-8.5275 7.8578 3.528 0.02442 6.3844 2.8954 6.3844 6.4291 0 3.5489-2.8802 6.4291-6.4291 6.4291v10.001c3.5489 0 6.4291 2.8802 6.4291 6.4291 0 3.5489-2.8802 6.4291-6.4291 6.4291v10.001c3.5489 0 6.4291 2.8802 6.4291 6.4291 0 3.5489-2.8802 6.4291-6.4291 6.4291v10.001c3.5489 0 6.4291 2.8802 6.4291 6.4291 0 3.5489-2.8802 6.4291-6.4291 6.4291v10.001c3.5489-1e-5 6.4291 2.8802 6.4291 6.4291 0 3.5337-2.8564 6.4047-6.3844 6.4291 0.35653 4.4165 4.0161 7.8578 8.5275 7.8578 0-3.5489 2.8802-6.4291 6.4291-6.4291 3.5489 0 6.4291 2.8802 6.4291 6.4291h10.001c0-3.5489 2.8802-6.4291 6.4291-6.4291 3.5489 0 6.4291 2.8802 6.4291 6.4291h10.001c0-3.5489 2.8802-6.4291 6.4291-6.4291 3.5489 0 6.4291 2.8802 6.4291 6.4291h10.001c0-3.5489 2.8802-6.4291 6.4291-6.4291 3.5489 0 6.4291 2.8802 6.4291 6.4291h10.001c-1e-5 -3.5489 2.8802-6.4291 6.4291-6.4291 3.5034 0 6.3567 2.809 6.4291 6.2952 3.8411-0.63593 6.7806-3.7817 7.0988-7.7238-3.528-0.0244-6.3844-2.8954-6.3844-6.4291 0-3.5489 2.8802-6.4291 6.4291-6.4291v-10.001c-3.5489 2e-6 -6.4291-2.8802-6.4291-6.4291s2.8802-6.4291 6.4291-6.4291v-10.001c-3.5489 1e-6 -6.4291-2.8802-6.4291-6.4291 0-3.5489 2.8802-6.4291 6.4291-6.4291v-10.001c-3.5489 2e-6 -6.4291-2.8802-6.4291-6.4291s2.8802-6.4291 6.4291-6.4291v-10.001c-3.5489 1e-6 -6.4291-2.8802-6.4291-6.4291 0-3.5337 2.8564-6.4047 6.3844-6.4291-0.31823-3.9421-3.2577-7.0879-7.0988-7.7238-0.0724 3.4862-2.9256 6.2951-6.4291 6.2951-3.5489 0-6.4291-2.8802-6.4291-6.4291h-10.001c1e-6 3.5489-2.8802 6.4291-6.4291 6.4291-3.5489 0-6.4291-2.8802-6.4291-6.4291h-10.001c2e-6 3.5489-2.8802 6.4291-6.4291 6.4291s-6.4291-2.8802-6.4291-6.4291h-10.001c1e-6 3.5489-2.8802 6.4291-6.4291 6.4291-3.5489 0-6.4291-2.8802-6.4291-6.4291h-10.001c2e-6 3.5489-2.8802 6.4291-6.4291 6.4291s-6.4291-2.8802-6.4291-6.4291z" fill="url(#linearGradient4179)"/>
  </clipPath>
  <linearGradient id="linearGradient4179" x1="48" x2="48" y1="90" y2="5.9877" gradientTransform="matrix(1.4287 0 0 1.4287 -6.0462 -5.5817)" gradientUnits="userSpaceOnUse" xlink:href="#ButtonColor-6"/>
  <linearGradient id="linearGradient3660" x1="40.716" x2="40.716" y1="91.151" y2="7.2913" gradientTransform="matrix(1.0238 0 0 1.0119 -1.1429 -.083333)" gradientUnits="userSpaceOnUse" xlink:href="#linearGradient2875"/>
  <linearGradient id="linearGradient3643" x1="40.716" x2="40.716" y1="91.151" y2="7.2913" gradientUnits="userSpaceOnUse" xlink:href="#linearGradient2875"/>
  <linearGradient id="linearGradient3652" x1="40.716" x2="40.716" y1="91.151" y2="7.2913" gradientTransform="matrix(1.0238 0 0 1.0119 -1.1429 -.083333)" gradientUnits="userSpaceOnUse" xlink:href="#linearGradient2875"/>
  <linearGradient id="linearGradient4073" x1="47.727" x2="47.727" y1="78.923" y2="16.641" gradientUnits="userSpaceOnUse">
   <stop id="stop3823" stop-color="#4d81cf" offset="0"/>
   <stop id="stop3825" stop-color="#9cb8e4" offset="1"/>
  </linearGradient>
  <linearGradient id="linearGradient3982" x1="39.819" x2="44.586" y1="13.056" y2="29.471" gradientTransform="matrix(-.96032 .27889 .27889 .96032 111.44 15.295)" gradientUnits="userSpaceOnUse" xlink:href="#linearGradient3737-1"/>
  <linearGradient id="linearGradient3980" x1="35.838" x2="35.838" y1="56.924" y2="89.995" gradientTransform="translate(-10,-3)" gradientUnits="userSpaceOnUse" xlink:href="#linearGradient3737-1"/>
  <linearGradient id="linearGradient3929" x1="45.967" x2="45.967" y1="28.946" y2="48.086" gradientTransform="translate(44.277 16.233)" gradientUnits="userSpaceOnUse" xlink:href="#linearGradient3737-1"/>
  <linearGradient id="linearGradient3926" x1="76.758" x2="76.758" y1="27.41" y2="56.865" gradientTransform="matrix(-1 0 0 1 80.942 38.325)" gradientUnits="userSpaceOnUse" xlink:href="#linearGradient3737-1"/>
  <linearGradient id="linearGradient3235" x1="75.918" x2="75.918" y1="63.139" y2="76.55" gradientTransform="matrix(-1 0 0 1 85.594 12)" gradientUnits="userSpaceOnUse">
   <stop id="stop3864-9" stop-color="#fff" offset="0"/>
   <stop id="stop3866-2" stop-color="#fff" stop-opacity="0" offset="1"/>
  </linearGradient>
  <clipPath id="clipPath4146">
   <rect id="rect4148" x="16" y="26" width="64" height="64" fill="#f0f"/>
  </clipPath>
  <linearGradient id="linearGradient4184" x1="49.191" x2="49.191" y1="68.262" y2="27.219" gradientUnits="userSpaceOnUse" xlink:href="#ButtonColor-6"/>
 </defs>
 <metadata id="metadata2413">
  <rdf:RDF>
   <cc:Work rdf:about="">
    <dc:format>image/svg+xml</dc:format>
    <dc:type rdf:resource="http://purl.org/dc/dcmitype/StillImage"/>
    <dc:title/>
   </cc:Work>
  </rdf:RDF>
 </metadata>
 <g id="layer2" display="none">
  <path id="rect3745" d="m11 7c-2.8841 0-5.26 2.0143-5.8438 4.7187 2.5086 0.0336 4.5313 2.0773 4.5312 4.5938 0 2.5374-2.0563 4.5938-4.5938 4.5938-0.031404 0-0.062496 6.28e-4 -0.09375 0v7.1562c0.031254-6.28e-4 0.062346 0 0.09375 0 2.5374 0 4.5938 2.0563 4.5938 4.5938 0 2.5374-2.0563 4.5937-4.5938 4.5938-0.031404 0-0.062496 6.28e-4 -0.09375 0v7.1562c0.031254-6.28e-4 0.062346 0 0.09375 0 2.5374 0 4.5938 2.0563 4.5938 4.5938 0 2.5374-2.0563 4.5937-4.5938 4.5938-0.031404 0-0.062496 6.28e-4 -0.09375 0v7.1562c0.031254-6.28e-4 0.062346 0 0.09375 0 2.5374 0 4.5938 2.0563 4.5938 4.5938 0 2.5374-2.0563 4.5938-4.5938 4.5938-0.031404 0-0.062496 6.28e-4 -0.09375 0v7.1562c0.031254-6.28e-4 0.062346 0 0.09375 0 2.5374-4e-6 4.5938 2.0563 4.5938 4.5938 0 2.5374-2.0563 4.5938-4.5938 4.5938-0.031404 0-0.062496 6.28e-4 -0.09375 0 0.14439 3.1939 2.7693 5.7188 6 5.7188h0.21875c-6.28e-4 -0.03125 0-0.06235 0-0.09375 0-2.5374 2.0563-4.5937 4.5938-4.5938 2.5374 0 4.5938 2.0563 4.5938 4.5938 0 0.0314 6.28e-4 0.0625 0 0.09375h7.1562c-6.28e-4 -0.03125 0-0.06235 0-0.09375 0-2.5374 2.0563-4.5937 4.5938-4.5938 2.5374 0 4.5938 2.0563 4.5938 4.5938 0 0.0314 6.28e-4 0.0625 0 0.09375h7.1562c-6.28e-4 -0.03125 0-0.06235 0-0.09375 0-2.5374 2.0563-4.5937 4.5938-4.5938 2.5374 0 4.5937 2.0563 4.5938 4.5938 0 0.0314 6.28e-4 0.0625 0 0.09375h7.1562c-6.28e-4 -0.03125 0-0.06235 0-0.09375 0-2.5374 2.0563-4.5937 4.5938-4.5938 2.5374 0 4.5937 2.0563 4.5938 4.5938 0 0.0314 6.28e-4 0.0625 0 0.09375h7.1562c-6.28e-4 -0.03125 0-0.06235 0-0.09375-5e-6 -2.5374 2.0563-4.5937 4.5938-4.5938 2.5374 0 4.5937 2.0563 4.5938 4.5938 0 0.01047 7e-5 0.0208 0 0.03125 2.8652-0.36646 5.0861-2.7222 5.2188-5.6562-0.03125 6.28e-4 -0.06235 0-0.09375 0-2.5374-3e-6 -4.5937-2.0563-4.5938-4.5938 0-2.5374 2.0563-4.5938 4.5938-4.5938 0.0314 0 0.0625-6.28e-4 0.09375 0v-7.1562c-0.03125 6.28e-4 -0.06235 0-0.09375 0-2.5374 1e-6 -4.5937-2.0563-4.5938-4.5938 0-2.5374 2.0563-4.5937 4.5938-4.5938 0.0314 0 0.0625-6.28e-4 0.09375 0v-7.1562c-0.03125 6.28e-4 -0.06235 0-0.09375 0-2.5374 1e-6 -4.5937-2.0563-4.5938-4.5938 0-2.5374 2.0563-4.5937 4.5938-4.5938 0.0314 0 0.0625-6.28e-4 0.09375 0v-7.1562c-0.03125 6.28e-4 -0.06235 0-0.09375 0-2.5374 1e-6 -4.5937-2.0563-4.5938-4.5938 0-2.5374 2.0563-4.5937 4.5938-4.5938 0.0314 0 0.0625-6.28e-4 0.09375 0v-7.1562c-0.03125 6.28e-4 -0.06235 0-0.09375 0-2.5374 1e-6 -4.5937-2.0563-4.5938-4.5938 0-2.5165 2.0227-4.5602 4.5312-4.5938-0.53737-2.4896-2.5803-4.4006-5.1562-4.6875-0.42886 2.094-2.2798 3.6562-4.5 3.6562-2.2307 0-4.0826-1.5787-4.5-3.6875h-7.3438c-0.41736 2.1088-2.2693 3.6875-4.5 3.6875-2.2307 0-4.0826-1.5787-4.5-3.6875h-7.3438c-0.41736 2.1088-2.2693 3.6875-4.5 3.6875-2.2307 0-4.0826-1.5787-4.5-3.6875h-7.3438c-0.41736 2.1088-2.2693 3.6875-4.5 3.6875-2.2307 0-4.0826-1.5787-4.5-3.6875h-7.3438c-0.41736 2.1088-2.2693 3.6875-4.5 3.6875-2.2307 0-4.0826-1.5787-4.5-3.6875h-0.3125z" display="inline" fill="url(#linearGradient2875)" filter="url(#filter3174-2)" opacity=".9"/>
 </g>
 <g id="layer6">
  <path id="path3680" d="m43.094 3.9688c-1.141 0.014346-2.1829 0.19865-2.7812 0.09375a1.0282 1.0282 0 0 0-0.34375-0.03125c-0.5569 0.080559-1.6355-0.067926-2.7812-0.03125-0.57289 0.018338-1.1871 0.076135-1.7812 0.375s-1.1507 0.8705-1.4375 1.5938a1.0282 1.0282 0 0 0-0.0625 0.4375c0.05783 0.78087-0.42867 1.5622-1.0625 1.9375-0.62576 0.37054-1.2096 0.42673-1.875-0.21875-0.16161-0.17175-0.31674-0.83717-0.5625-1.7188-0.12288-0.44079-0.28374-0.94612-0.65625-1.4062s-0.99342-0.83168-1.6875-0.9375a1.0282 1.0282 0 0 0-0.125 0c-2.6713-0.075814-5.3481-0.0095778-7.9688-0.03125a1.0282 1.0282 0 0 0-0.1875 0.03125c-0.83314 0.14967-1.492 0.67343-1.8438 1.25s-0.48214 1.1395-0.59375 1.625-0.22338 0.87129-0.34375 1.0938-0.17077 0.29426-0.46875 0.375a1.0282 1.0282 0 0 0-0.125 0.0625c-0.47038 0.1983-0.74997 0.18205-0.96875 0.125s-0.40616-0.18125-0.625-0.4375c-0.43768-0.51249-0.82532-1.5275-1.0312-2.4062a1.0282 1.0282 0 0 0-0.1875-0.375c-0.54947-0.69753-1.3332-1.1236-2.0938-1.25s-1.4999-0.023477-2.1875 0.1875c-1.3753 0.42195-2.5798 1.2525-3.4062 1.8125a1.0282 1.0282 0 0 0-0.125 0.09375c-0.87453 0.79943-1.9388 1.8655-2.6875 3.1562-0.74869 1.2907-1.2127 2.8842-0.625 4.4688a1.0282 1.0282 0 0 0 0.0625 0.15625c0.37719 0.67375 1.0135 1.0911 1.5625 1.3125s1.0353 0.29996 1.4375 0.40625 0.69191 0.24059 0.8125 0.34375 0.18774 0.15511 0.21875 0.59375a1.0282 1.0282 0 0 0 0.03125 0.15625c0.19955 0.89464 0.017971 1.0621-0.5 1.4062-0.51797 0.34418-1.4681 0.59106-2.3438 0.8125a1.0282 1.0282 0 0 0-0.34375 0.15625c-1.2183 0.85237-1.4607 2.2644-1.4375 3.375s0.1985 2.1295 0.09375 2.7188a1.0282 1.0282 0 0 0-0.03125 0.3125c0.072376 0.56562-0.088933 1.6885-0.03125 2.8438 0.028841 0.5776 0.11137 1.1929 0.4375 1.7812s0.94203 1.095 1.6875 1.3438a1.0282 1.0282 0 0 0 0.46875 0.0625c1.0626-0.1515 1.6996 0.54319 1.9062 1.4062 0.1033 0.43153 0.041959 0.85436-0.125 1.1562s-0.43526 0.56104-1.0625 0.6875v0.03125c-1.0546-0.02393-2.0396 0.41056-2.625 1.1562-0.61957 0.78921-0.84227 1.8254-0.625 2.875h-0.03125c0.15284 2.1057-0.36508 4.6155 0.25 7.1562a1.0282 1.0282 0 0 0 0.09375 0.21875c0.3742 0.70785 1.021 1.1515 1.5938 1.375s1.1092 0.30769 1.5312 0.40625c0.42206 0.09856 0.68617 0.20954 0.8125 0.3125s0.21441 0.19159 0.25 0.65625a1.0282 1.0282 0 0 0 0.03125 0.125c0.20307 0.89644 0.017796 1.0626-0.5 1.4062-0.5178 0.34363-1.4661 0.59178-2.3438 0.8125a1.0282 1.0282 0 0 0-0.34375 0.15625c-1.2183 0.85237-1.4607 2.2644-1.4375 3.375s0.1985 2.1295 0.09375 2.7188a1.0282 1.0282 0 0 0-0.03125 0.3125c0.072376 0.56562-0.088933 1.6885-0.03125 2.8438 0.028841 0.5776 0.11137 1.1929 0.4375 1.7812s0.94203 1.095 1.6875 1.3438a1.0282 1.0282 0 0 0 0.46875 0.0625c1.0626-0.1515 1.6996 0.54319 1.9062 1.4062 0.1033 0.43153 0.041959 0.85436-0.125 1.1562s-0.43526 0.56104-1.0625 0.6875v0.03125c-1.0546-0.02393-2.0396 0.41056-2.625 1.1562-0.61957 0.78921-0.84227 1.8254-0.625 2.875h-0.03125c0.15284 2.1057-0.36508 4.6155 0.25 7.1562a1.0282 1.0282 0 0 0 0.09375 0.21875c0.3742 0.70785 1.021 1.1515 1.5938 1.375s1.1092 0.30769 1.5312 0.40625c0.42206 0.09856 0.68617 0.20954 0.8125 0.3125s0.21441 0.19159 0.25 0.65625a1.0282 1.0282 0 0 0 0.03125 0.125c0.10799 0.46781 0.04831 0.70773-0.03125 0.875s-0.2118 0.32193-0.5 0.5c-0.57639 0.35614-1.6309 0.62824-2.5938 1.0625a1.0282 1.0282 0 0 0-0.28125 0.1875c-0.62925 0.6133-0.94979 1.4261-1 2.1875-0.050212 0.76137 0.13559 1.4682 0.40625 2.125 0.54132 1.3135 1.4312 2.4512 2.0312 3.2188a1.0282 1.0282 0 0 0 0.09375 0.125c0.88451 0.82949 2.1003 1.8002 3.5 2.4375s3.1206 0.95183 4.6562 0.09375a1.0282 1.0282 0 0 0 0.1875-0.125c1.0396-0.93062 1.0836-2.2025 1.2812-2.9062 0.09884-0.3519 0.21373-0.55218 0.3125-0.65625 0.09877-0.10407 0.22233-0.18502 0.65625-0.21875a1.0282 1.0282 0 0 0 0.125-0.03125c0.87351-0.20438 1.0535-0.01428 1.4062 0.5 0.35273 0.51428 0.6193 1.4406 0.84375 2.3125a1.0282 1.0282 0 0 0 0.15625 0.34375c0.85237 1.2183 2.2644 1.4607 3.375 1.4375 1.1106-0.02322 2.1295-0.1985 2.7188-0.09375a1.0282 1.0282 0 0 0 0.34375 0.03125c0.55882-0.08213 1.6617 0.06587 2.8125 0.03125 0.57541-0.01731 1.1843-0.07664 1.7812-0.375 0.59699-0.29836 1.1484-0.86811 1.4375-1.5938a1.0282 1.0282 0 0 0 0.0625-0.46875c-0.07824-0.87736 0.48509-1.6337 1.1875-1.9688 0.67636-0.32264 1.2894-0.31387 1.875 0.46875 0.14177 0.47096 0.2528 1.2287 0.59375 2.0312 0.18639 0.43874 0.46589 0.88029 0.90625 1.25s1.0602 0.61566 1.7188 0.625a1.0282 1.0282 0 0 0 0.0625 0c2.5333-0.14176 5.355 0.29659 8.2188-0.21875a1.0282 1.0282 0 0 0 0.21875-0.0625c0.69338-0.31119 1.1684-0.89434 1.4062-1.4375s0.32065-1.0522 0.40625-1.4688c0.0856-0.41652 0.18478-0.74608 0.28125-0.90625 0.09647-0.16017 0.1282-0.20292 0.4375-0.28125a1.0282 1.0282 0 0 0 0.15625-0.0625c0.83396-0.35534 1.2067-0.17432 1.6562 0.28125s0.79703 1.3275 0.84375 2.0938a1.0282 1.0282 0 0 0 0.125 0.4375c0.36628 0.65994 0.93549 1.1296 1.5312 1.375s1.1916 0.31039 1.75 0.3125c1.1168 0.0042 2.1778-0.18648 2.75-0.09375a1.0282 1.0282 0 0 0 0.3125 0c0.57872-0.09628 1.6489 0.09405 2.7812 0.09375 0.56617-1.5e-4 1.1777-0.06885 1.7812-0.3125 0.60356-0.24365 1.1886-0.71007 1.5625-1.375a1.0282 1.0282 0 0 0 0.125-0.4375c0.04672-0.76622 0.39424-1.6382 0.84375-2.0938s0.82229-0.6366 1.6562-0.28125a1.0282 1.0282 0 0 0 0.15625 0.0625c0.26654 0.06883 0.3119 0.10706 0.4375 0.34375s0.22053 0.6863 0.34375 1.1875 0.27262 1.0808 0.65625 1.6562 1.1116 1.0677 1.9688 1.1562a1.0282 1.0282 0 0 0 0.125 0c2.6168-0.05044 5.4672 0.27427 8.3125-0.125a1.0282 1.0282 0 0 0 0.21875-0.0625c0.72991-0.27414 1.2377-0.85419 1.5-1.4062s0.3453-1.0688 0.4375-1.5c0.0922-0.43122 0.17926-0.76722 0.28125-0.9375s0.15586-0.2362 0.46875-0.3125a1.0282 1.0282 0 0 0 0.15625-0.0625c0.51021-0.21876 0.75453-0.18009 0.9375-0.125 0.18297 0.05509 0.37504 0.18252 0.59375 0.46875 0.43742 0.57246 0.83712 1.6491 1.3438 2.625a1.0282 1.0282 0 0 0 0.1875 0.25c0.58526 0.58622 1.3435 0.89645 2.0625 0.9375 0.71901 0.04105 1.3914-0.14727 2-0.40625 1.2171-0.51795 2.2316-1.3465 2.9375-1.9062a1.0282 1.0282 0 0 0 0.125-0.125c0.70479-0.77748 1.6609-1.8343 2.3125-3.0938s1.0266-2.8804 0.21875-4.3438a1.0282 1.0282 0 0 0-0.09375-0.125c-0.86384-1.1486-2.1414-1.2325-2.875-1.4375-0.3668-0.10252-0.61028-0.21359-0.71875-0.3125s-0.18682-0.1718-0.21875-0.59375a1.0282 1.0282 0 0 0-0.03125-0.15625c-0.19955-0.89464-0.01797-1.0621 0.5-1.4062 0.51797-0.34418 1.4681-0.59106 2.3438-0.8125a1.0282 1.0282 0 0 0 0.34375-0.15625c1.2183-0.85237 1.4607-2.2644 1.4375-3.375-0.02322-1.1106-0.1985-2.1295-0.09375-2.7188a1.0282 1.0282 0 0 0 0.03125-0.3125c-0.072376-0.56562 0.088933-1.6885 0.03125-2.8438-0.028841-0.5776-0.11137-1.1929-0.4375-1.7812s-0.94202-1.095-1.6875-1.3438a1.0282 1.0282 0 0 0-0.46875-0.0625c-1.0626 0.1515-1.6996-0.54319-1.9062-1.4062-0.1033-0.43153-0.04196-0.85436 0.125-1.1562 0.16696-0.30189 0.43526-0.56104 1.0625-0.6875v-0.03125c1.0546 0.02393 2.0396-0.41056 2.625-1.1562 0.61958-0.78921 0.84227-1.8254 0.625-2.875h0.03125c-0.15284-2.1057 0.36508-4.6155-0.25-7.1562a1.0282 1.0282 0 0 0-0.09375-0.21875c-0.3742-0.70785-1.021-1.1515-1.5938-1.375s-1.1092-0.30769-1.5312-0.40625c-0.42206-0.09856-0.68617-0.20954-0.8125-0.3125s-0.21441-0.19159-0.25-0.65625a1.0282 1.0282 0 0 0-0.03125-0.125c-0.20306-0.89644-0.0178-1.0626 0.5-1.4062 0.5178-0.34363 1.4661-0.59178 2.3438-0.8125a1.0282 1.0282 0 0 0 0.34375-0.15625c1.2183-0.85237 1.4607-2.2644 1.4375-3.375-0.02322-1.1106-0.1985-2.1295-0.09375-2.7188a1.0282 1.0282 0 0 0 0.03125-0.3125c-0.072376-0.56562 0.088933-1.6885 0.03125-2.8438-0.028841-0.5776-0.11137-1.1929-0.4375-1.7812s-0.94202-1.095-1.6875-1.3438a1.0282 1.0282 0 0 0-0.46875-0.0625c-1.0626 0.1515-1.6996-0.54319-1.9062-1.4062-0.1033-0.43153-0.04196-0.85436 0.125-1.1562 0.16696-0.30189 0.43526-0.56104 1.0625-0.6875v-0.03125c1.0546 0.02393 2.0396-0.41056 2.625-1.1562 0.61958-0.78921 0.84227-1.8254 0.625-2.875h0.03125c-0.15284-2.1057 0.36508-4.6155-0.25-7.1562a1.0282 1.0282 0 0 0-0.09375-0.21875c-0.3742-0.70785-1.021-1.1515-1.5938-1.375s-1.1092-0.30769-1.5312-0.40625c-0.42206-0.09856-0.68617-0.20954-0.8125-0.3125s-0.21441-0.19159-0.25-0.65625a1.0282 1.0282 0 0 0-0.03125-0.125c-0.10799-0.46781-0.04831-0.70773 0.03125-0.875s0.2118-0.32193 0.5-0.5c0.57639-0.35614 1.6309-0.62824 2.5938-1.0625a1.0282 1.0282 0 0 0 0.28125-0.1875c0.60285-0.56559 0.92704-1.3163 1-2.0312s-0.085-1.3808-0.3125-2c-0.45501-1.2384-1.2389-2.3258-1.75-3.0625a1.0282 1.0282 0 0 0-0.09375-0.125c-0.74447-0.76113-1.7729-1.7583-3-2.4688s-2.8106-1.1607-4.3125-0.4375a1.0282 1.0282 0 0 0-0.125 0.09375c-1.1854 0.79984-1.3662 2.0785-1.5938 2.8125-0.11379 0.36699-0.20928 0.60535-0.3125 0.71875s-0.2035 0.18783-0.59375 0.21875a1.0282 1.0282 0 0 0-0.125 0.03125c-0.82158 0.18514-1.0752-0.020962-1.4375-0.5-0.3623-0.47904-0.62815-1.3324-0.75-2.125a1.0282 1.0282 0 0 0-0.15625-0.375c-0.40497-0.64775-1.0138-1.1181-1.625-1.3438s-1.212-0.25718-1.7812-0.25c-1.1384 0.014351-2.1848 0.19831-2.7812 0.09375a1.0282 1.0282 0 0 0-0.34375-0.03125c-0.5569 0.080559-1.6355-0.067926-2.7812-0.03125-0.57289 0.018338-1.1871 0.076135-1.7812 0.375s-1.1507 0.8705-1.4375 1.5938a1.0282 1.0282 0 0 0-0.0625 0.46875c0.07824 0.87737-0.48509 1.6337-1.1875 1.9688-0.67636 0.32264-1.2894 0.31387-1.875-0.46875-0.14177-0.47096-0.2528-1.2287-0.59375-2.0312-0.18639-0.43874-0.46589-0.88029-0.90625-1.25s-1.0602-0.61566-1.7188-0.625a1.0282 1.0282 0 0 0-0.0625 0c-2.5333 0.14176-5.355-0.29659-8.2188 0.21875a1.0282 1.0282 0 0 0-0.25 0.0625c-0.69051 0.31449-1.136 0.89614-1.375 1.4375s-0.31768 1.0536-0.40625 1.4688c-0.08857 0.41516-0.18244 0.71433-0.28125 0.875-0.09881 0.16067-0.15409 0.23383-0.46875 0.3125a1.0282 1.0282 0 0 0-0.15625 0.0625c-0.87552 0.37554-1.1879 0.1928-1.625-0.28125s-0.77832-1.4068-0.875-2.2188a1.0282 1.0282 0 0 0-0.15625-0.40625c-0.40642-0.65006-1.0117-1.1188-1.625-1.3438s-1.2108-0.25717-1.7812-0.25z" fill="url(#linearGradient3660)" opacity=".08"/>
  <path id="path3658" d="m20.156 6a1.0087 1.0087 0 0 0-0.8125 1c0 1.965-1.5923 3.5625-3.5938 3.5625-1.9839 0-3.5666-1.5597-3.5938-3.5a1.0087 1.0087 0 0 0-1.125-1c-3.4231 0.40961-6.182 2.9512-6.875 6.2812a1.0087 1.0087 0 0 0 0.96875 1.2188c1.9396 0.0644 3.4688 1.6383 3.4688 3.5625 0 1.965-1.5923 3.5625-3.5938 3.5625a1.0087 1.0087 0 0 0-1 1v7.0625a1.0087 1.0087 0 0 0 1 1c2.0014 0 3.5938 1.5975 3.5938 3.5625s-1.5923 3.5625-3.5938 3.5625a1.0087 1.0087 0 0 0-1 1v7.0625a1.0087 1.0087 0 0 0 1 1c2.0014 0 3.5938 1.5975 3.5938 3.5625 0 1.965-1.5923 3.5625-3.5938 3.5625a1.0087 1.0087 0 0 0-1 1v7.0625a1.0087 1.0087 0 0 0 1 1c2.0014 0 3.5938 1.5975 3.5938 3.5625 0 1.965-1.5923 3.5625-3.5938 3.5625a1.0087 1.0087 0 0 0-1 1v7.0625a1.0087 1.0087 0 0 0 1 1c2.0014-3e-6 3.5938 1.5975 3.5938 3.5625 0 1.9242-1.5291 3.4981-3.4688 3.5625a1.0087 1.0087 0 0 0-0.96875 1.2188c0.69297 3.3301 3.4519 5.8716 6.875 6.2812a1.0087 1.0087 0 0 0 1.125-1c0.02717-1.9403 1.6099-3.5 3.5938-3.5 2.0014 0 3.5938 1.5975 3.5938 3.5625a1.0087 1.0087 0 0 0 1 1h7.1875a1.0087 1.0087 0 0 0 1-1c0-1.965 1.5923-3.5625 3.5938-3.5625 2.0014 0 3.625 1.6058 3.625 3.5625a1.0087 1.0087 0 0 0 1 1h7.1562a1.0087 1.0087 0 0 0 1-1c0-1.965 1.5923-3.5625 3.5938-3.5625 2.0014 0 3.625 1.6058 3.625 3.5625a1.0087 1.0087 0 0 0 1 1h7.1562a1.0087 1.0087 0 0 0 1-1c0-1.9567 1.6236-3.5625 3.625-3.5625 2.0014 0 3.5938 1.5975 3.5938 3.5625a1.0087 1.0087 0 0 0 1 1h7.1562a1.0087 1.0087 0 0 0 1-1c-8e-6 -1.9567 1.6236-3.5625 3.625-3.5625 1.9308 0 3.4569 1.5015 3.5625 3.375a1.0087 1.0087 0 0 0 1.25 0.90625c2.8884-0.78106 5.136-3.112 5.75-6.0625a1.0087 1.0087 0 0 0-0.96875-1.2188c-1.9396-0.06441-3.4688-1.6383-3.4688-3.5625 0-1.965 1.5923-3.5625 3.5938-3.5625a1.0087 1.0087 0 0 0 1-1v-7.0625a1.0087 1.0087 0 0 0-1-1c-2.0014 1e-6 -3.5938-1.5975-3.5938-3.5625 0-1.965 1.5923-3.5625 3.5938-3.5625a1.0087 1.0087 0 0 0 1-1v-7.0625a1.0087 1.0087 0 0 0-1-1c-2.0014 1e-6 -3.5938-1.5975-3.5938-3.5625s1.5923-3.5625 3.5938-3.5625a1.0087 1.0087 0 0 0 1-1v-7.0625a1.0087 1.0087 0 0 0-1-1c-2.0014 1e-6 -3.5938-1.5975-3.5938-3.5625 0-1.965 1.5923-3.5625 3.5938-3.5625a1.0087 1.0087 0 0 0 1-1v-7.0625a1.0087 1.0087 0 0 0-1-1c-2.0014 1e-6 -3.5938-1.5975-3.5938-3.5625 0-1.9242 1.5291-3.4981 3.4688-3.5625a1.0087 1.0087 0 0 0 0.96875-1.2188c-0.61397-2.9505-2.8616-5.2814-5.75-6.0625a1.0087 1.0087 0 0 0-1.25 0.90625c-0.10557 1.8735-1.6317 3.375-3.5625 3.375-2.0014 0-3.625-1.6058-3.625-3.5625a1.0087 1.0087 0 0 0-1-1h-7.1562a1.0087 1.0087 0 0 0-1 1c0 1.965-1.5923 3.5625-3.5938 3.5625-2.0014 0-3.625-1.6058-3.625-3.5625a1.0087 1.0087 0 0 0-1-1h-7.1562a1.0087 1.0087 0 0 0-1 1c0 1.9567-1.6236 3.5625-3.625 3.5625-2.0014 0-3.5938-1.5975-3.5938-3.5625a1.0087 1.0087 0 0 0-1-1h-7.1562a1.0087 1.0087 0 0 0-1 1c8e-6 1.9567-1.6236 3.5625-3.625 3.5625s-3.5938-1.5975-3.5938-3.5625a1.0087 1.0087 0 0 0-1-1h-7.1875a1.0087 1.0087 0 0 0-0.1875 0z" fill="url(#linearGradient3660)" opacity=".2"/>
  <path id="path2860" d="m12 7c-3.1577 0-5.7192 2.4087-5.9688 5.5 2.4694 0.017094 4.4688 2.0266 4.4688 4.5 0 2.484-2.016 4.5-4.5 4.5v7c2.484 0 4.5 2.016 4.5 4.5 0 2.484-2.016 4.5-4.5 4.5v7c2.484 0 4.5 2.016 4.5 4.5 0 2.484-2.016 4.5-4.5 4.5v7c2.484 0 4.5 2.016 4.5 4.5 0 2.484-2.016 4.5-4.5 4.5v7c2.484-4e-6 4.5 2.016 4.5 4.5 0 2.4734-1.9993 4.4829-4.4688 4.5 0.24955 3.0913 2.8111 5.5 5.9688 5.5 0-2.484 2.016-4.5 4.5-4.5 2.484 0 4.5 2.016 4.5 4.5h7c0-2.484 2.016-4.5 4.5-4.5 2.484 0 4.5 2.016 4.5 4.5h7c0-2.484 2.016-4.5 4.5-4.5 2.484 0 4.5 2.016 4.5 4.5h7c0-2.484 2.016-4.5 4.5-4.5 2.484 0 4.5 2.016 4.5 4.5h7c-4e-6 -2.484 2.016-4.5 4.5-4.5 2.4522 0 4.4493 1.9661 4.5 4.4062 2.6885-0.44512 4.746-2.647 4.9688-5.4062-2.4694-0.0171-4.4688-2.0266-4.4688-4.5 0-2.484 2.016-4.5 4.5-4.5v-7c-2.484 1e-6 -4.5-2.016-4.5-4.5s2.016-4.5 4.5-4.5v-7c-2.484 1e-6 -4.5-2.016-4.5-4.5s2.016-4.5 4.5-4.5v-7c-2.484 1e-6 -4.5-2.016-4.5-4.5s2.016-4.5 4.5-4.5v-7c-2.484 1e-6 -4.5-2.016-4.5-4.5 0-2.4734 1.9993-4.4829 4.4688-4.5-0.22275-2.7593-2.2802-4.9611-4.9688-5.4062-0.05068 2.4401-2.0478 4.4062-4.5 4.4062-2.484 0-4.5-2.016-4.5-4.5h-7c1e-6 2.484-2.016 4.5-4.5 4.5s-4.5-2.016-4.5-4.5h-7c1e-6 2.484-2.016 4.5-4.5 4.5s-4.5-2.016-4.5-4.5h-7c1e-6 2.484-2.016 4.5-4.5 4.5s-4.5-2.016-4.5-4.5h-7c1e-6 2.484-2.016 4.5-4.5 4.5s-4.5-2.016-4.5-4.5z" fill="url(#linearGradient3643)" opacity=".45"/>
  <path id="path3645" d="m20.344 7c0 2.5136-2.0506 4.5625-4.5938 4.5625-2.5214 0-4.559-2.016-4.5938-4.5-2.9961 0.35852-5.3943 2.5891-6 5.5 2.4704 0.08203 4.4375 2.1009 4.4375 4.5625 0 2.5136-2.0506 4.5625-4.5938 4.5625v7.0625c2.5431 0 4.5938 2.0489 4.5938 4.5625s-2.0506 4.5625-4.5938 4.5625v7.0625c2.5431 0 4.5938 2.0489 4.5938 4.5625 0 2.5136-2.0506 4.5625-4.5938 4.5625v7.0625c2.5431 0 4.5938 2.0489 4.5938 4.5625 0 2.5136-2.0506 4.5625-4.5938 4.5625v7.0625c2.5431-4e-6 4.5938 2.0489 4.5938 4.5625 0 2.4615-1.9671 4.4805-4.4375 4.5625 0.60574 2.9109 3.0039 5.1415 6 5.5 0.03479-2.484 2.0723-4.5 4.5938-4.5 2.5431 0 4.5938 2.0489 4.5938 4.5625h7.1875c0-2.5136 2.0506-4.5625 4.5938-4.5625 2.5432 0 4.625 2.0489 4.625 4.5625h7.1562c0-2.5136 2.0506-4.5625 4.5938-4.5625 2.5432 0 4.625 2.0489 4.625 4.5625h7.1562c0-2.5136 2.0818-4.5625 4.625-4.5625 2.5431 0 4.5938 2.0489 4.5938 4.5625h7.1562c-1e-5 -2.5136 2.0819-4.5625 4.625-4.5625 2.456 0 4.4276 1.9182 4.5625 4.3125 2.5226-0.68216 4.4631-2.7322 5-5.3125-2.4704-0.08204-4.4375-2.1009-4.4375-4.5625 0-2.5136 2.0506-4.5625 4.5938-4.5625v-7.0625c-2.5431 1e-6 -4.5938-2.0489-4.5938-4.5625 0-2.5136 2.0506-4.5625 4.5938-4.5625v-7.0625c-2.5431 1e-6 -4.5938-2.0489-4.5938-4.5625s2.0506-4.5625 4.5938-4.5625v-7.0625c-2.5431 1e-6 -4.5938-2.0489-4.5938-4.5625 0-2.5136 2.0506-4.5625 4.5938-4.5625v-7.0625c-2.5431 1e-6 -4.5938-2.0489-4.5938-4.5625 0-2.4616 1.9671-4.4805 4.4375-4.5625-0.53694-2.5803-2.4774-4.6303-5-5.3125-0.13492 2.3943-2.1065 4.3125-4.5625 4.3125-2.5432 0-4.625-2.0489-4.625-4.5625h-7.1562c0 2.5136-2.0506 4.5625-4.5938 4.5625-2.5432 0-4.625-2.0489-4.625-4.5625h-7.1562c0 2.5136-2.0818 4.5625-4.625 4.5625-2.5431 0-4.5938-2.0489-4.5938-4.5625h-7.1562c1e-5 2.5136-2.0819 4.5625-4.625 4.5625s-4.5938-2.0489-4.5938-4.5625h-7.1875z" fill="url(#linearGradient3652)" opacity=".3"/>
  <path id="path3666" d="m19.969 5.0625c-2.3303 0.41863-0.95096 3.7558-3.1706 4.3572-2.521 1.0628-3.5692-1.5089-4.0169-3.4197-1.6068-2.0397-4.7156-0.11869-6.3251 0.97178-1.6613 1.5187-3.9137 4.1149-3.0187 6.5282 0.96298 1.7201 3.9861 0.53171 4.168 3.1048 0.54612 2.4484-1.8751 2.9888-3.6055 3.4264-1.7286 1.2095-0.62574 3.6943-0.9375 5.4482 0.21323 1.6664-0.76888 4.399 1.375 5.1143 3.2092-0.45753 4.5988 4.5868 1.1075 5.2907-1.6977-0.25008-2.9027 1.4136-2.4825 3.0017 0.16713 2.3025-0.32294 4.7199 0.21875 6.9576 0.96651 1.8283 4.1171 0.44392 4.3224 3.1252 0.55531 2.4514-1.8692 3.0011-3.6037 3.4373-1.7286 1.2095-0.62574 3.6943-0.9375 5.4482 0.21323 1.6664-0.76888 4.399 1.375 5.1143 3.2092-0.45753 4.5988 4.5868 1.1075 5.2907-1.6977-0.25008-2.9027 1.4136-2.4825 3.0017 0.16713 2.3025-0.32294 4.7199 0.21875 6.9576 0.96651 1.8283 4.1171 0.44392 4.3224 3.1252 0.58707 2.5432-2.0477 2.8495-3.6974 3.5935-1.8374 1.7909 0.35339 4.6396 1.5459 6.1651 1.6687 1.5649 4.5831 3.6735 6.9229 2.3661 1.3306-1.1911 0.3527-3.8497 2.8337-4.0425 2.4103-0.56396 3.0303 1.8314 3.4788 3.5738 1.2095 1.7286 3.6943 0.62574 5.4482 0.9375 1.6851-0.24764 4.3808 0.79517 5.2081-1.2812-0.23945-2.6851 3.2899-4.6155 5.0134-2.118 0.43748 1.222 0.47558 3.3734 2.2991 3.3992 2.6837-0.15018 5.4625 0.286 8.0938-0.1875 1.7982-0.80704 0.55575-3.6262 2.7018-4.1697 2.3284-0.99212 3.8016 1.2694 3.9232 3.2634 1.0438 1.8806 3.5773 0.81635 5.2892 1.0938 1.7341-0.28848 4.3004 0.80315 5.3671-1.0938 0.12159-1.994 1.5948-4.2556 3.9232-3.2634 2.1693 0.56016 0.85508 4.077 3.2643 4.326 2.707-0.05218 5.5157 0.24993 8.1875-0.125 1.9165-0.7198 0.63725-3.665 2.823-4.1981 2.6673-1.1436 3.2884 1.7364 4.177 3.4481 1.678 1.6808 4.2499-0.3415 5.6605-1.46 1.387-1.5301 3.5645-4.0962 2.3707-6.2587-1.089-1.448-3.8563-0.44971-4.043-2.9173-0.54612-2.4484 1.8751-2.9888 3.6055-3.4264 1.7286-1.2095 0.62574-3.6943 0.9375-5.4482-0.21323-1.6664 0.76888-4.399-1.375-5.1143-3.2092 0.45752-4.5988-4.5868-1.1075-5.2907 1.6977 0.25007 2.9027-1.4136 2.4825-3.0017-0.16713-2.3025 0.32294-4.7199-0.21875-6.9576-0.96651-1.8283-4.1171-0.44392-4.3224-3.1252-0.5553-2.4514 1.8692-3.0011 3.6037-3.4373 1.7286-1.2095 0.62574-3.6943 0.9375-5.4482-0.21323-1.6664 0.76888-4.399-1.375-5.1143-3.2092 0.45752-4.5988-4.5868-1.1075-5.2907 1.6977 0.25007 2.9027-1.4136 2.4825-3.0017-0.16713-2.3025 0.32294-4.7199-0.21875-6.9576-0.96651-1.8283-4.1171-0.44392-4.3224-3.1252-0.58707-2.5432 2.0477-2.8495 3.6974-3.5935 1.7378-1.6304-0.15896-4.2635-1.1931-5.7541-1.4525-1.485-3.8929-3.7556-6.1194-2.6834-1.5013 1.013-0.60947 3.7622-2.9761 3.9497-2.3064 0.51971-3.1568-1.7031-3.4301-3.481-1.1583-1.8528-3.7343-0.71984-5.5107-1.0312-1.6761 0.24245-4.3567-0.7866-5.1768 1.2812 0.23945 2.6851-3.2899 4.6155-5.0134 2.118-0.43748-1.222-0.47558-3.3734-2.2991-3.3992-2.6837 0.15017-5.4625-0.286-8.0938 0.1875-1.7942 0.81717-0.56996 3.6269-2.7293 4.1668-2.4003 1.0296-3.6922-1.3519-3.927-3.3231-1.1583-1.8528-3.7343-0.71984-5.5107-1.0312-1.6761 0.24245-4.3567-0.7866-5.1768 1.2812 0.17964 2.4257-2.7375 4.4713-4.7034 2.515-0.99568-1.0581-0.4129-3.4731-2.3278-3.765-2.6347-0.074775-5.2942-0.00939-7.9375-0.03125z" fill="url(#linearGradient3652)" opacity=".1"/>
 </g>
 <g id="layer1">
  <path id="rect2419" d="m12 6c-3.1577 0-5.7192 2.4087-5.9688 5.5 2.4694 0.017094 4.4688 2.0266 4.4688 4.5 0 2.484-2.016 4.5-4.5 4.5v7c2.484 0 4.5 2.016 4.5 4.5 0 2.484-2.016 4.5-4.5 4.5v7c2.484 0 4.5 2.016 4.5 4.5 0 2.484-2.016 4.5-4.5 4.5v7c2.484 0 4.5 2.016 4.5 4.5 0 2.484-2.016 4.5-4.5 4.5v7c2.484-4e-6 4.5 2.016 4.5 4.5 0 2.4734-1.9993 4.4829-4.4688 4.5 0.24955 3.0913 2.8111 5.5 5.9688 5.5 0-2.484 2.016-4.5 4.5-4.5 2.484 0 4.5 2.016 4.5 4.5h7c0-2.484 2.016-4.5 4.5-4.5 2.484 0 4.5 2.016 4.5 4.5h7c0-2.484 2.016-4.5 4.5-4.5 2.484 0 4.5 2.016 4.5 4.5h7c0-2.484 2.016-4.5 4.5-4.5 2.484 0 4.5 2.016 4.5 4.5h7c-4e-6 -2.484 2.016-4.5 4.5-4.5 2.4522 0 4.4493 1.9661 4.5 4.4062 2.6885-0.44512 4.746-2.647 4.9688-5.4062-2.4694-0.017097-4.4688-2.0266-4.4688-4.5 0-2.484 2.016-4.5 4.5-4.5v-7c-2.484 1e-6 -4.5-2.016-4.5-4.5s2.016-4.5 4.5-4.5v-7c-2.484 1e-6 -4.5-2.016-4.5-4.5s2.016-4.5 4.5-4.5v-7c-2.484 1e-6 -4.5-2.016-4.5-4.5s2.016-4.5 4.5-4.5v-7c-2.484 1e-6 -4.5-2.016-4.5-4.5 0-2.4734 1.9993-4.4829 4.4688-4.5-0.22275-2.7593-2.2802-4.9611-4.9688-5.4062-0.050679 2.4401-2.0478 4.4062-4.5 4.4062-2.484 0-4.5-2.016-4.5-4.5h-7c1e-6 2.484-2.016 4.5-4.5 4.5s-4.5-2.016-4.5-4.5h-7c1e-6 2.484-2.016 4.5-4.5 4.5s-4.5-2.016-4.5-4.5h-7c1e-6 2.484-2.016 4.5-4.5 4.5s-4.5-2.016-4.5-4.5h-7c1e-6 2.484-2.016 4.5-4.5 4.5s-4.5-2.016-4.5-4.5z" fill="url(#linearGradient2982)"/>
  <path id="path3421" d="m12 6c-3.1577 0-5.7192 2.4087-5.9688 5.5 0.38756 0.0027 0.76651 0.06132 1.125 0.15625 0.50609-1.9479 2.0913-3.3648 4.125-3.6562 0.51358 2.4581 2.6136 4.375 5.2188 4.375 2.6501 0 4.7867-1.9789 5.25-4.5h5.5c0.46326 2.5211 2.5999 4.5 5.25 4.5s4.7867-1.9789 5.25-4.5h5.5c0.46326 2.5211 2.5999 4.5 5.25 4.5s4.7867-1.9789 5.25-4.5h5.5c0.46326 2.5211 2.5999 4.5 5.25 4.5s4.7867-1.9789 5.25-4.5h5.5c0.46326 2.5211 2.5999 4.5 5.25 4.5 2.5338 0 4.5992-1.7976 5.1875-4.1562 1.5651 0.55239 2.7347 1.8127 3.1562 3.4375 0.35849-0.09493 0.73744-0.15357 1.125-0.15625-0.22275-2.7593-2.2802-4.9611-4.9688-5.4062-0.050679 2.4401-2.0478 4.4062-4.5 4.4062-2.484 0-4.5-2.016-4.5-4.5h-7c1e-6 2.484-2.016 4.5-4.5 4.5s-4.5-2.016-4.5-4.5h-7c1e-6 2.484-2.016 4.5-4.5 4.5s-4.5-2.016-4.5-4.5h-7c1e-6 2.484-2.016 4.5-4.5 4.5s-4.5-2.016-4.5-4.5h-7c1e-6 2.484-2.016 4.5-4.5 4.5s-4.5-2.016-4.5-4.5zm-3.9688 6c1.4652 0.74242 2.4688 2.2462 2.4688 4 0 2.484-2.016 4.5-4.5 4.5v7c0.32107 0 0.63541 0.02973 0.9375 0.09375v-5.4062c2.5211-0.46326 4.5-2.5999 4.5-5.25 0-2.2513-1.4321-4.1336-3.4062-4.9375zm79.938 0c-1.9742 0.80387-3.4062 2.6862-3.4062 4.9375 0 2.6501 1.9789 4.7867 4.5 5.25v5.4062c0.30209-0.06402 0.61643-0.09375 0.9375-0.09375v-7c-2.484 1e-6 -4.5-2.016-4.5-4.5 0-1.7538 1.0035-3.2576 2.4688-4zm-79.781 16.094c1.3692 0.77192 2.3125 2.2234 2.3125 3.9062 0 2.484-2.016 4.5-4.5 4.5v7c0.32107 0 0.63541 0.02973 0.9375 0.09375v-5.4062c2.5211-0.46326 4.5-2.5999 4.5-5.25 0-2.1892-1.3591-4.0092-3.25-4.8438zm79.625 0c-1.8909 0.83456-3.25 2.6546-3.25 4.8438 0 2.6501 1.9789 4.7867 4.5 5.25v5.4062c0.30209-0.06402 0.61643-0.09375 0.9375-0.09375v-7c-2.484 1e-6 -4.5-2.016-4.5-4.5 0-1.6828 0.94331-3.1343 2.3125-3.9062zm-79.625 16c1.3692 0.77192 2.3125 2.2234 2.3125 3.9062 0 2.484-2.016 4.5-4.5 4.5v7c0.32107 0 0.63541 0.02973 0.9375 0.09375v-5.4062c2.5211-0.46326 4.5-2.5999 4.5-5.25 0-2.1892-1.3591-4.0092-3.25-4.8438zm79.625 0c-1.8909 0.83456-3.25 2.6546-3.25 4.8438 0 2.6501 1.9789 4.7867 4.5 5.25v5.4062c0.30209-0.06402 0.61643-0.09375 0.9375-0.09375v-7c-2.484 1e-6 -4.5-2.016-4.5-4.5 0-1.6828 0.94331-3.1343 2.3125-3.9062zm-79.625 16c1.3692 0.77192 2.3125 2.2234 2.3125 3.9062 0 2.484-2.016 4.5-4.5 4.5v7c0.32107-1e-6 0.63541 0.02973 0.9375 0.09375v-5.4062c2.5211-0.46326 4.5-2.5999 4.5-5.25 0-2.1892-1.3591-4.0092-3.25-4.8438zm79.625 0c-1.8909 0.83456-3.25 2.6546-3.25 4.8438 0 2.6501 1.9789 4.7867 4.5 5.25v5.4062c0.30209-0.06402 0.61643-0.09375 0.9375-0.09375v-7c-2.484 1e-6 -4.5-2.016-4.5-4.5 0-1.6828 0.94331-3.1343 2.3125-3.9062zm-79.625 16c1.3692 0.77192 2.3125 2.2234 2.3125 3.9062 0 2.4734-1.9993 4.4829-4.4688 4.5 0.24955 3.0913 2.8111 5.5 5.9688 5.5 0-2.1629 1.5274-3.975 3.5625-4.4062-2.1542 0.40051-3.8319 2.1304-4.2812 4.2812-2.0542-0.29442-3.6355-1.7406-4.125-3.7188 2.4131-0.54808 4.2812-2.6458 4.2812-5.2188 0-2.1892-1.3591-4.0092-3.25-4.8438zm79.625 0c-1.8909 0.83456-3.25 2.6546-3.25 4.8438 0 2.5729 1.8681 4.6707 4.2812 5.2188-0.40866 1.6533-1.5722 2.9409-3.1562 3.5-0.51472-2.0638-2.1492-3.6862-4.25-4.0625 2.0106 0.42121 3.5184 2.1881 3.5625 4.3125 2.6885-0.44512 4.746-2.647 4.9688-5.4062-2.4694-0.017097-4.4688-2.0266-4.4688-4.5 0-1.6828 0.94331-3.1343 2.3125-3.9062zm-70.344 9.5c2.0202 0.44254 3.5312 2.2539 3.5312 4.4062h0.75c-0.40535-2.2059-2.0906-3.993-4.2812-4.4062zm14.062 0c-2.1906 0.41324-3.8759 2.2003-4.2812 4.4062h0.75c0-2.1524 1.5111-3.9637 3.5312-4.4062zm1.9375 0c2.0202 0.44254 3.5312 2.2539 3.5312 4.4062h0.75c-0.40535-2.2059-2.0906-3.993-4.2812-4.4062zm14.062 0c-2.1906 0.41324-3.8759 2.2003-4.2812 4.4062h0.75c0-2.1524 1.5111-3.9637 3.5312-4.4062zm1.9375 0c2.0202 0.44254 3.5312 2.2539 3.5312 4.4062h0.75c-0.40535-2.2059-2.0906-3.993-4.2812-4.4062zm14.062 0c-2.1906 0.41324-3.8759 2.2003-4.2812 4.4062h0.75c0-2.1524 1.5111-3.9637 3.5312-4.4062zm1.9375 0c2.0202 0.44254 3.5312 2.2539 3.5312 4.4062h0.75c-0.40535-2.2059-2.0906-3.993-4.2812-4.4062zm14.062 0c-2.1906 0.41324-3.8759 2.2003-4.2812 4.4062h0.75c-3e-6 -2.1524 1.5111-3.9637 3.5312-4.4062z" fill="url(#linearGradient2984)" opacity=".8"/>
  <path id="path2901" d="m6.5312 9.5625c-0.26604 0.60176-0.44441 1.2489-0.5 1.9375 2.1261 0.01472 3.8906 1.507 4.3438 3.5 0.07377-0.3231 0.125-0.65465 0.125-1 0-2.3024-1.7373-4.172-3.9688-4.4375zm82.938 0c-2.2314 0.2655-3.9688 2.135-3.9688 4.4375 0 0.34535 0.05123 0.6769 0.125 1 0.45319-1.993 2.2177-3.4853 4.3438-3.5-0.05569-0.68982-0.23378-1.3361-0.5-1.9375zm-83.469 15.938v2c2.1387 0 3.9181 1.4991 4.375 3.5 0.07377-0.3231 0.125-0.65465 0.125-1 0-2.484-2.016-4.5-4.5-4.5zm84 0c-2.484 0-4.5 2.016-4.5 4.5 0 0.34535 0.05123 0.6769 0.125 1 0.45687-2.0009 2.2363-3.5 4.375-3.5v-2zm-84 16v2c2.1387 0 3.9181 1.4991 4.375 3.5 0.07377-0.3231 0.125-0.65465 0.125-1 0-2.484-2.016-4.5-4.5-4.5zm84 0c-2.484 0-4.5 2.016-4.5 4.5 0 0.34535 0.05123 0.6769 0.125 1 0.45687-2.0009 2.2363-3.5 4.375-3.5v-2zm-84 16v2c2.1387 0 3.9181 1.4991 4.375 3.5 0.07377-0.3231 0.125-0.65465 0.125-1 0-2.484-2.016-4.5-4.5-4.5zm84 0c-2.484 0-4.5 2.016-4.5 4.5 0 0.34535 0.05123 0.6769 0.125 1 0.45687-2.0009 2.2363-3.5 4.375-3.5v-2zm-84 16v2c2.1387-3e-6 3.9181 1.4991 4.375 3.5 0.07318-0.32183 0.125-0.65612 0.125-1 0-2.484-2.016-4.5-4.5-4.5zm84 0c-2.484 0-4.5 2.016-4.5 4.5 0 0.34388 0.05182 0.67817 0.125 1 0.45687-2.0009 2.2363-3.5 4.375-3.5v-2zm-73.5 10c-2.484 0-4.5 2.016-4.5 4.5-2.4543 0-4.5404-1.4627-5.4688-3.5625-0.16568 0.019713-0.32932 0.061319-0.5 0.0625 0.24955 3.0913 2.8111 5.5 5.9688 5.5 0-2.484 2.016-4.5 4.5-4.5 2.484 0 4.5 2.016 4.5 4.5h7c0-2.484 2.016-4.5 4.5-4.5 2.484 0 4.5 2.016 4.5 4.5h7c0-2.484 2.016-4.5 4.5-4.5 2.484 0 4.5 2.016 4.5 4.5h7c0-2.484 2.016-4.5 4.5-4.5 2.484 0 4.5 2.016 4.5 4.5h7c-4e-6 -2.484 2.016-4.5 4.5-4.5 2.4522 0 4.4493 1.9661 4.5 4.4062 2.6885-0.44512 4.746-2.647 4.9688-5.4062-0.17068-0.0012-0.33432-0.04279-0.5-0.0625-0.79866 1.8042-2.4523 3.1349-4.4688 3.4688-0.050676-2.4401-2.0478-4.4062-4.5-4.4062-2.484 0-4.5 2.016-4.5 4.5h-7c0-2.484-2.016-4.5-4.5-4.5-2.484 0-4.5 2.016-4.5 4.5h-7c0-2.484-2.016-4.5-4.5-4.5-2.484 0-4.5 2.016-4.5 4.5h-7c0-2.484-2.016-4.5-4.5-4.5-2.484 0-4.5 2.016-4.5 4.5h-7c0-2.484-2.016-4.5-4.5-4.5z" fill="url(#radialGradient2986)" opacity=".3"/>
 </g>
 <g id="layer3">
  <rect id="rect2411" x="16" y="16" width="64" height="64" fill="url(#linearGradient4073)"/>
  <g id="g3963" transform="translate(0,-10)" clip-path="url(#clipPath4146)" opacity=".8">
   <path id="path3870" d="m63.176 37.577c1.3695-0.39771 2.8078 0.36799 3.2055 1.7375 0.26277 0.90483 0.01648 1.8361-0.58162 2.4793 0.58655 0.47866 1.0897 1.0561 1.5055 1.7105 0.67528-0.47186 1.3964-0.88205 2.1926-1.19-0.06956-0.13999-0.14562-0.27731-0.19075-0.43272-0.40846-1.4065 0.40358-2.8832 1.8101-3.2917 1.0305-0.29927 2.09 0.06539 2.7465 0.82944 0.71646-1.3394 1.9296-2.4116 3.4859-2.8997-0.36546-1.2584 0.35998-2.5777 1.6184-2.9431 1.1849-0.34412 2.4063 0.29254 2.8521 1.4171 0.32427-0.23589 0.70211-0.43169 1.1094-0.54996 1.8877-0.54819 3.8665 0.53996 4.4147 2.4276 0.01796 0.06184 0.0078 0.1268 0.02228 0.18878 0.5619-0.24483 1.1335-0.45935 1.7357-0.63424 1.6025-0.46537 3.1983-0.63221 4.7794-0.57446 0.79208-1.3548 2.0873-2.4285 3.7134-2.9007 3.3682-0.97815 6.8831 0.9547 7.8612 4.3229 0.14672 0.50522 0.22646 1.0197 0.24699 1.5228 2.1491-0.3304 4.2499 0.9638 4.8726 3.1082 0.12227 0.42102 0.17183 0.83567 0.16855 1.2527 0.2622 0.12185 0.51679 0.24917 0.76579 0.39589 0.63234-0.96454 1.5939-1.732 2.8112-2.0855 2.6279-0.76317 5.3354 0.66766 6.0663 3.1845s-0.78897 5.1754-3.4169 5.9385c-0.39479 0.11465-0.79196 0.1614-1.184 0.18113 0.12908 3.8894-2.3625 7.5197-6.2725 8.6552-1.2289 0.3569-2.4795 0.42203-3.669 0.252-1.92 2.7901-4.7482 4.9584-8.2544 5.9767-4.7374 1.3758-9.6028 0.33061-13.287-2.3892-0.58501 0.61766-1.3331 1.103-2.2091 1.3574-2.331 0.67695-4.7547-0.41753-5.8058-2.5117-0.02951 0.0088-0.06039 0.01754-0.09003 0.02614-3.47 1.0077-7.0196 0.12201-9.6027-2.0274-0.85466 1.6019-2.3363 2.8588-4.2177 3.4051-3.3969 0.98648-6.954-0.7078-8.3443-3.8572-0.39834 0.22718-0.80841 0.43002-1.2682 0.56353-3.1461 0.91365-6.4442-0.89994-7.3578-4.046-0.91365-3.1461 0.89994-6.4442 4.046-7.3578 0.32887-0.09551 0.65822-0.15163 0.98647-0.18886 0.33617-0.60813 0.87158-1.0666 1.5527-1.2644 0.70433-0.20454 1.4424-0.08217 2.0659 0.27864-0.12887-3.2244 1.9287-6.2548 5.1671-7.1953 0.70473-0.20466 1.4091-0.26407 2.1065-0.25381-0.06387-1.1722 0.66728-2.2764 1.843-2.6179z" color="#000000" fill="url(#linearGradient3982)"/>
   <path id="path3739" d="m20.5 50.312c-0.95045 0-1.8285 0.30559-2.5312 0.8125-0.58004-0.08942-1.1762-0.15625-1.7812-0.15625-2.6437 0-5.0504 0.91554-7 2.4062-0.2252-0.03559-0.45167-0.0625-0.6875-0.0625-2.3125 0-4.1875 1.7719-4.1875 3.9688 0 0.82384 0.26727 1.5839 0.71875 2.2188-0.268 0.97769-0.40625 1.9997-0.40625 3.0625 0 1.0735 0.13301 2.1073 0.40625 3.0938-0.61992-0.27902-1.3073-0.4375-2.0312-0.4375-2.7365 0-4.9375 2.201-4.9375 4.9375 0 2.7365 2.201 4.9688 4.9375 4.9688 0.36612 0 0.719-0.04965 1.0625-0.125-6.43e-4 0.04129 0 0.08355 0 0.125 0 4.3167 3.4958 7.8125 7.8125 7.8125 2.786 0 5.2097-1.4621 6.5938-3.6562 2.0411 1.841 4.7536 2.9688 7.7188 2.9688 4.015 0 7.533-2.072 9.5938-5.1875 1.2942 0.97115 2.8824 1.5625 4.625 1.5625 2.725 0 5.1192-1.4353 6.5-3.5625 0.69317 0.55616 1.5421 0.90625 2.5 0.90625 1.3093 0 2.4789-0.6295 3.2188-1.5938 0.32267 0.20323 0.71549 0.34375 1.125 0.34375 1.1563 0 2.0938-0.93749 2.0938-2.0938s-0.93749-2.0938-2.0938-2.0938c-0.18067 0-0.36401 0.01947-0.53125 0.0625-0.50733-1.456-1.8198-2.5264-3.4062-2.6875-0.08623-1.3481-1.1927-2.4062-2.5625-2.4062-0.3812 0-0.73681 0.07047-1.0625 0.21875-1.4183-1.5835-3.4881-2.5938-5.7812-2.5938-1.0245 0-1.9799 0.20126-2.875 0.5625-0.22426-2.3734-2.2241-4.25-4.6562-4.25-0.28018 0-0.54588 0.04651-0.8125 0.09375 0.03207-0.21766 0.0625-0.42967 0.0625-0.65625 0-2.5052-2.0573-4.5312-4.5625-4.5312-0.93946 0-1.8073 0.2609-2.5312 0.75-0.12466-0.14758-0.24323-0.29637-0.375-0.4375 0.01212-0.12327 0.03125-0.24872 0.03125-0.375 0-2.1969-1.875-3.9688-4.1875-3.9688z" color="#000000" fill="url(#linearGradient3980)"/>
   <path id="path3772" d="m94.09 34.889c-1.7951 0-3.2871 1.3348-3.5312 3.0625-0.99024 0.39781-1.8962 0.90849-2.7188 1.5625-0.48316-0.50848-1.1494-0.84375-1.9062-0.84375-1.4646 0-2.6562 1.1917-2.6562 2.6562 0 0.01073-1.3e-4 0.02055 0 0.03125-1.0357 0.06809-2.0271 0.26679-2.9688 0.59375-0.55027-0.63705-1.3734-1.0312-2.2813-1.0312-1.6368 0-2.9673 1.3085-3 2.9375-0.04347-0.0022-0.08097-0.03125-0.125-0.03125-1.2037 0-2.2233 0.86986-2.4688 2-2.4536 0.16605-4.5626 1.5198-5.7812 3.5-0.4926-0.20835-1.0253-0.3125-1.5938-0.3125-2.274 0-4.125 1.851-4.125 4.125s1.851 4.0938 4.125 4.0938c0.53425 0 1.0316-0.09607 1.5-0.28125 1.2861 2.1833 3.6578 3.625 6.375 3.625 0.87777 0 1.7188-0.15691 2.5-0.4375 2.0858 2.4103 5.156 3.9375 8.5938 3.9375 3.5742 0 6.7584-1.6406 8.8438-4.2188 1.215 1.3833 2.9829 2.2812 4.9688 2.2812 1.5447 0 2.9666-0.55175 4.0938-1.4375 1.0575 0.54918 2.2573 0.875 3.5312 0.875 1.5489 0 2.9813-0.46094 4.1875-1.25 0.49805 0.25713 1.0571 0.40625 1.6562 0.40625 1.7433 0 3.213-1.236 3.5625-2.875 0.23611 1.5401 1.5501 2.7188 3.1562 2.7188 1.7729 0 3.2188-1.4146 3.2188-3.1875 0-1.6151-1.1974-2.9623-2.75-3.1875 0.0458-0.25866 0.0937-0.54069 0.0937-0.8125 0-2.5052-2.026-4.5312-4.5312-4.5312-0.84008 0-1.6378 0.25822-2.3125 0.65625-0.22398-0.31986-0.44981-0.65593-0.71875-0.9375 0.10594-0.25048 0.15625-0.52343 0.15625-0.8125 0-1.1563-0.93749-2.0938-2.0938-2.0938-0.0932 0-0.1913 0.01945-0.28125 0.03125-0.0172-1.7967-1.4805-3.25-3.2812-3.25-0.47744 0-0.93457 0.09784-1.3438 0.28125-1.4251-2.523-3.8275-4.4148-6.6875-5.1875-0.40134-1.5259-1.7544-2.6562-3.4062-2.6562z" color="#000000" fill="url(#linearGradient3929)"/>
   <path id="path3671" d="m10.661 61.763c3.0264 0.30734 5.375 2.8925 5.375 6 0 0.50225-0.07128 0.97124-0.1875 1.4375 1.3556-0.82923 2.9508-1.3125 4.6562-1.3125 0.69713 0 1.3801 0.09893 2.0312 0.25 0.47506-1.3625 1.7568-2.3438 3.2812-2.3438 1.9271 0 3.4688 1.5729 3.4688 3.5 0 0.92305-0.35225 1.751-0.9375 2.375 0.19649-0.02238 0.39127 0 0.59375 0 2.8907 0 5.25 2.3281 5.25 5.2188s-2.3593 5.25-5.25 5.25c-0.40398 0-0.77855-0.06962-1.1562-0.15625-1.0117 1.427-2.4356 2.5193-4.0938 3.1562 0.0042 0.11543 0.03125 0.2273 0.03125 0.34375 0 5.2417-4.2583 9.4688-9.5 9.4688-1.5304 0-2.9698-0.3566-4.25-1-2.6246 1.7834-5.8064 2.8438-9.2188 2.8438-6.8387 0-12.693-4.2051-15.156-10.156-4.7852-0.59661-8.5-4.647-8.5-9.5938 0-5.3573 4.3302-9.7188 9.6875-9.7188 1.1595 0 2.2818 0.22061 3.3125 0.59375 0.85422-0.73119 1.7894-1.3932 2.7812-1.9375-0.0827-0.23333-0.15625-0.48833-0.15625-0.75 0-1.2333 1.0166-2.2188 2.25-2.2188 0.94828 0 1.7699 0.57244 2.0938 1.4062 1.0568-0.24278 2.1573-0.40621 3.2813-0.4375 0.31043-1.2856 1.4628-2.2188 2.8438-2.2188 1.1744 0 2.1886 0.6901 2.6562 1.6875 1.0788-1.0542 2.5545-1.6875 4.1875-1.6875 0.20716 0 0.42324-0.02049 0.625 0z" color="#000000" fill="url(#linearGradient3926)" opacity=".8"/>
   <path id="path3713" d="m7.6562 74.656c3.5005 0 6.464 2.1862 7.625 5.2812 2.9227 0.05208 5.2812 2.4399 5.2812 5.375 0 2.9677-2.4073 5.375-5.375 5.375-1.1753 0-2.2405-0.3911-3.125-1.0312-1.2736 0.82112-2.7782 1.3125-4.4062 1.3125-0.41217 0-0.82299-0.03481-1.2188-0.09375-0.4608 0.55836-1.157 0.9375-1.9375 0.9375-1.11 0-2.0426-0.72039-2.375-1.7188-0.573 0.1721-1.1834 0.28125-1.8125 0.28125-3.4688 0-6.2812-2.8125-6.2812-6.2812 0-2.9051 1.9776-5.3448 4.6562-6.0625-0.02473-0.15323-0.0625-0.30854-0.0625-0.46875 0-1.6188 1.3187-2.9062 2.9375-2.9062 0.86619 0 1.6509 0.37137 2.1875 0.96875 1.1569-0.62848 2.4971-0.96875 3.9062-0.96875z" color="#000000" fill="url(#linearGradient3235)" opacity=".8"/>
  </g>
  <path id="path4176" d="m48.375 24.75c-7.7226-0.07249-15.798 3.4311-19.938 10.344-0.0077 0.01286-0.02358 0.01837-0.03125 0.03125-3.9344 6.2714-4.3603 14.018-2.9062 20.938 1.5718 7.5922 7.5874 13.872 15.031 15.938 5.6578 1.6447 11.806 1.6681 17.469 0.03125a1.2346 1.2346 0 0 0 0.09375-0.03125c0.97134-0.36554 1.6047-1.2061 1.8438-2.0312 0.23282-0.80369 0.17039-1.6136-0.03125-2.3438-0.0036-0.01513 0.0033-0.04693 0-0.0625-0.1898-0.88579 0.03727-2.4601-0.9375-4 1.2847-0.08728 2.5629-0.25608 3.6875-0.65625a1.2346 1.2346 0 0 0 0.03125 0c5.1586-1.938 7.5778-7.3138 8.2812-12.125 1.0492-6.696-0.67811-13.926-5.4375-19-4.395-4.75-10.877-7.0365-17.156-7.0312zm11.719 18.969c0.4882 2.0621 0.49301 4.2187 0.03125 6.3125 2e-3 -2.0975-0.02961-4.2077-0.03125-6.3125zm-10.844 0.96875c-0.03425 0.25078-0.07725 0.49366-0.03125 0.9375h-0.03125c-0.01872 2.5613 0.03874 5.214 0 7.6562-1.5497 0.13666-3.0133-0.84835-3.1875-2.5a1.2346 1.2346 0 0 0 0-0.09375c-0.21501-1.1175-0.2469-2.4575 0.03125-3.5312 0.27392-1.0574 0.7757-1.8034 1.6875-2.25 0.42202-0.156 0.9564-0.20346 1.5312-0.21875z" fill="#072045" opacity=".05"/>
  <path id="path4170" d="m48.375 26c-7.3552-0.06904-15.05 3.2664-18.909 9.7453-3.7294 5.9191-4.1461 13.375-2.7374 20.077 1.4712 7.1061 7.1554 13.062 14.138 14.999 5.4298 1.5784 11.353 1.6066 16.783 0.0371 1.1803-0.44416 1.3865-1.8748 1.0725-2.9605-0.29872-1.2463-0.077113-2.6853-0.81573-3.7734-0.78437-1.0043-2.1416-0.7377-3.1806-0.37364-5.6401 1.1668-12.295 0.78825-16.617-3.457-4.1857-4.5521-4.6981-11.456-3.1021-17.195 1.2366-4.2108 4.6398-7.7068 8.9188-8.819 4.6494-1.3257 10.143-0.63813 13.794 2.7194-4.1229-1.3814-8.7067-1.8691-12.945-0.7319-5.0961 1.3848-8.595 6.4983-8.7451 11.686-0.27409 3.8055 0.76494 7.7756 3.3548 10.638 2.2485 2.6408 5.8608 3.5832 9.2101 3.6577 1.9154 0.15813 3.9749-0.70808 5.5987-0.95063 2.3101 1.6188 5.5032 1.3471 8.0526 0.44001 4.5587-1.7127 6.8373-6.5947 7.5007-11.132 0.99567-6.3541-0.64675-13.225-5.1054-17.979-4.1149-4.4472-10.287-6.6336-16.265-6.6286zm10.344 12.062c3.4427 3.9101 3.8482 9.7672 2.0386 14.49-0.31787 1.4787-2.3025 2.7928-1.8823 0.52944-0.0212-4.8597 0.042161-9.7277-0.03125-14.582-0.02821-0.14965-0.05573-0.30008-0.125-0.4375zm-9.25 5.3438c1.5467-0.41026 0.79399 1.3487 0.96875 2.2268-0.02098 2.8714 0.04182 5.9636-0.03125 8.6795-2.5303 0.91796-5.3372-0.66784-5.6243-3.3909-0.48613-2.5266-0.20294-5.9282 2.4269-7.1702 0.71719-0.28222 1.4967-0.34215 2.2599-0.34511z" fill="#072045" opacity=".1"/>
  <path id="rect4183" d="m16.438 16c-0.03654 0.0073-0.06024 0.01707-0.09375 0.03125-0.07367 0.02998-0.13462 0.06872-0.1875 0.125-0.09518 0.1013-0.15946 0.22767-0.15625 0.375v62.906 0.03125c0.0019 0.05425 0.01433 0.10669 0.03125 0.15625 0.01558 0.04455 0.03654 0.08657 0.0625 0.125 0.01089 0.01749 0.01848 0.04637 0.03125 0.0625 0.0088 0.01017 0.02176 0.02176 0.03125 0.03125 0.05288 0.05628 0.11383 0.09502 0.1875 0.125 0.02947 0.01199 0.06172 0.02443 0.09375 0.03125 0.03461 0.0069 0.05711-4e-6 0.09375 0h16.062 3.8125 1.6562 27.969 13.438c0.07531-7e-6 0.12225-0.0036 0.1875-0.03125 0.19576-0.08281 0.34373-0.27407 0.34375-0.5 5.91e-4 -0.0104-1e-6 -0.02071 0-0.03125v-62.906c-7e-6 -0.07531-0.0036-0.12225-0.03125-0.1875-0.08281-0.19576-0.27407-0.34373-0.5-0.34375h-13.438-27.969-1.6562-3.8125-16.062c-0.03777-4e-3 -0.05597-4e-3 -0.09375 0zm0.65625 1.0938h14.688 4.1562 1.125 30.75 11.094v61.812h-11.094-30.75-1.125-4.1562-14.688v-61.812z" fill="#3365a8" opacity=".6"/>
  <path id="path4166" d="m48.375 27c-2.8386 3.5e-5 -5.5447 0.4594-8.125 1.375-2.5591 0.92024-4.8577 2.278-6.8438 4.125-1.9683 1.8281-3.5346 4.1629-4.6875 6.9062-1.1681 2.7795-1.7188 5.9805-1.7188 9.5938-3e-6 3.7395 0.55123 7 1.7188 9.8125a1.0055 1.0055 0 0 0 0 0.03125c1.1888 2.7481 2.8341 5.0471 4.875 6.8438 2.0273 1.819 4.3707 3.1492 7.0625 4 2.6717 0.87828 5.5045 1.3125 8.5 1.3125 1.7055-7e-6 3.3217-0.10687 4.8125-0.34375 1.4833-0.23048 2.5082-0.43702 3.2188-0.6875a1.0055 1.0055 0 0 0 0.65625-1.0625l-0.5-3.625a1.0055 1.0055 0 0 0-1.3438-0.8125c-0.21848 0.07935-1.0431 0.27801-2.2812 0.5-1.1444 0.21055-2.6845 0.34375-4.5625 0.34375-2.3691-4e-6 -4.5038-0.35716-6.4688-1.0625-1.9255-0.6716-3.6064-1.6676-5.0312-3-1.3863-1.3546-2.449-3.0315-3.25-5.0625-0.79259-2.0401-1.2188-4.4312-1.2188-7.1875-7e-6 -2.6285 0.38996-4.9497 1.125-6.9688 0.77258-2.0373 1.8027-3.6804 3.125-5.0312a1.0055 1.0055 0 0 0 0-0.03125c1.3296-1.3884 2.9229-2.4259 4.7812-3.1562 1.8544-0.75908 3.8971-1.1562 6.1562-1.1562 2.2676 3e-5 4.2882 0.37336 6.0312 1.0938 1.8033 0.73272 3.2984 1.7074 4.5312 2.9688 1.2371 1.2658 2.1733 2.7641 2.8438 4.4688 0.66861 1.6697 1.0312 3.4525 1.0312 5.375-3.7e-5 1.1706-0.12444 2.3414-0.3125 3.5-0.1847 1.1067-0.43355 2.0618-0.8125 2.9062a1.0055 1.0055 0 0 0-0.03125 0.03125c-0.34466 0.83188-0.79636 1.4735-1.3125 1.9375a1.0055 1.0055 0 0 0 0 0.03125c-0.45378 0.42938-0.88466 0.59375-1.5 0.59375-0.3175 3e-6 -0.4755-0.09911-0.65625-0.3125-0.09411-0.11108-0.31253-0.60371-0.3125-1.5312v-14.906a1.0055 1.0055 0 0 0-0.65625-0.9375c-0.83184-0.28896-1.9483-0.5786-3.375-0.84375-1.4457-0.27502-3.0137-0.37497-4.7188-0.375-1.8669 2.7e-5 -3.5848 0.29354-5.125 0.9375a1.0055 1.0055 0 0 0-0.03125 0c-1.4869 0.63652-2.7442 1.5493-3.8125 2.6875-1.0374 1.1077-1.8435 2.4157-2.375 3.9375-0.53007 1.4824-0.78126 3.0603-0.78125 4.7188-1.4e-5 1.946 0.27264 3.6857 0.84375 5.2188 0.56155 1.5075 1.3572 2.8223 2.4062 3.9062a1.0055 1.0055 0 0 0 0 0.03125c1.0369 1.0357 2.2572 1.8376 3.6562 2.375a1.0055 1.0055 0 0 0 0.03125 0c1.4328 0.53668 2.9958 0.78125 4.6562 0.78125 1.0847 2e-6 2.1847-0.12359 3.2812-0.40625a1.0055 1.0055 0 0 0 0.03125 0c0.83836-0.24312 1.4984-0.55826 2.1562-0.875 0.44986 0.35853 0.89538 0.7367 1.4375 0.96875 0.85627 0.36657 1.8658 0.5 3 0.5 1.4504 2e-6 2.8243-0.31917 4.125-0.96875 1.3076-0.65307 2.4724-1.6195 3.4062-2.875 0.93032-1.2867 1.6433-2.8491 2.1562-4.625 0.55639-1.8063 0.81246-3.837 0.8125-6.125-4.5e-5 -3.0431-0.55033-5.799-1.6562-8.25-1.0934-2.4572-2.5761-4.5626-4.4688-6.2812-1.8899-1.7504-4.1003-3.0504-6.5938-3.9375-2.4896-0.91971-5.1302-1.375-7.9062-1.375zm1.0938 15.406c0.65466 1.9e-5 1.2165 0.03476 1.7188 0.09375 0.14225 0.01672 0.13278 0.01387 0.25 0.03125v10.625c-3.4e-5 0.4414 0.02978 0.85683 0.0625 1.2812 0.01352 0.17567 0.071 0.35552 0.09375 0.53125-0.31958 0.12761-0.61829 0.25495-1 0.34375-0.6132 0.11666-1.2486 0.18751-1.875 0.1875-1.6492 5e-6 -2.7566-0.50768-3.6875-1.6562-0.92694-1.1437-1.4375-2.76-1.4375-4.9062-1.7e-5 -2.0071 0.48869-3.5506 1.4688-4.7812 0.92612-1.1629 2.2993-1.75 4.4062-1.75z" fill="#072045" opacity=".15"/>
  <g id="text4154" transform="scale(1.0006 .99942)" fill="#072045" opacity=".3">
   <path id="path4159" d="m58.454 60.485c-1.0401 2e-6 -1.9014-0.14626-2.5839-0.43877-0.68256-0.29251-1.2513-0.68253-1.7063-1.1701-0.71506 0.39002-1.5763 0.73129-2.5839 1.0238-1.0076 0.26001-2.0151 0.39002-3.0226 0.39002-1.5601 2e-6 -2.9902-0.24376-4.2902-0.73128-1.2676-0.48752-2.3726-1.2026-3.3151-2.1451-0.94256-0.97504-1.6738-2.1613-2.1938-3.5589-0.52004-1.3976-0.78005-3.0226-0.78004-4.8752-1.3e-5 -1.5601 0.24375-3.0226 0.73128-4.3877 0.48751-1.3975 1.2025-2.6001 2.1451-3.6077 0.97503-1.04 2.1451-1.8526 3.5102-2.4376 1.3975-0.585 2.9739-0.87751 4.729-0.87754 1.6575 2.5e-5 3.1689 0.13003 4.534 0.39002 1.3975 0.26004 2.4701 0.52005 3.2176 0.78004v14.918c-3.2e-5 1.0401 0.17873 1.7713 0.53627 2.1938 0.35748 0.42252 0.82875 0.63378 1.4138 0.63378 0.845 6e-6 1.5763-0.29251 2.1938-0.87754 0.64999-0.58502 1.17-1.3488 1.5601-2.2914 0.42248-0.94253 0.73124-1.9988 0.92629-3.1689 0.19497-1.2025 0.29247-2.4213 0.29251-3.6564-3.9e-5 -2.0476-0.35755-3.9652-1.0725-5.7528-0.71507-1.8201-1.7389-3.4126-3.0714-4.7777-1.3326-1.365-2.9577-2.4376-4.8752-3.2176-1.8851-0.78-4.014-1.17-6.3865-1.1701-2.3726 3.1e-5 -4.5502 0.4063-6.5328 1.2188-1.9826 0.78006-3.6889 1.9176-5.119 3.4127-1.4301 1.4626-2.5514 3.2664-3.3639 5.4115-0.78004 2.1451-1.1701 4.5827-1.1701 7.3128-7e-6 2.8601 0.42251 5.379 1.2676 7.5566 0.84503 2.1451 2.0151 3.9489 3.5102 5.4115 1.5276 1.4301 3.3151 2.5026 5.3627 3.2176 2.0801 0.74753 4.3552 1.1213 6.8253 1.1213 1.9176-4e-6 3.4939-0.11376 4.729-0.34126 1.2675-0.22751 2.0801-0.40627 2.4376-0.53627l0.48752 3.6077c-0.55256 0.195-1.5601 0.40626-3.0226 0.63378-1.4301 0.2275-2.9739 0.34126-4.6315 0.34126-2.8927-7e-6 -5.6228-0.42253-8.1904-1.2676-2.5676-0.81254-4.8102-2.0801-6.7278-3.8027-1.9176-1.6901-3.4452-3.8514-4.5827-6.484-1.1051-2.6651-1.6576-5.8178-1.6576-9.4579-3e-6 -3.5101 0.55252-6.5815 1.6576-9.2142 1.105-2.6326 2.5839-4.8102 4.4364-6.5328 1.8851-1.755 4.0464-3.0714 6.484-3.9489 2.4701-0.8775 5.0702-1.3163 7.8004-1.3163 2.6651 3.4e-5 5.184 0.4388 7.5566 1.3163 2.3726 0.84507 4.4527 2.0964 6.2403 3.7539 1.7875 1.6251 3.2014 3.6077 4.2414 5.9478 1.04 2.3076 1.56 4.924 1.5601 7.8491-4.3e-5 2.2101-0.26005 4.1602-0.78004 5.8503-0.48756 1.6901-1.1538 3.1201-1.9988 4.2902-0.84508 1.1376-1.8526 1.9988-3.0226 2.5839-1.1701 0.58503-2.4051 0.87754-3.7052 0.87754m-9.7504-3.9489c0.68251 6e-6 1.365-0.065 2.0476-0.19501 0.715-0.1625 1.3488-0.39001 1.9013-0.68253-0.09753-0.42251-0.16254-0.84503-0.19501-1.2676-0.03253-0.42251-0.04878-0.82878-0.04875-1.2188v-11.457c-0.19504-0.06498-0.5688-0.12998-1.1213-0.19501-0.55255-0.06498-1.1701-0.09748-1.8526-0.0975-2.3076 2.1e-5 -4.0302 0.71505-5.1677 2.1451-1.1376 1.4301-1.7063 3.2339-1.7063 5.4115-1.8e-5 2.3076 0.55251 4.1439 1.6576 5.509 1.105 1.3651 2.6001 2.0476 4.4852 2.0476" fill="#072045"/>
  </g>
  <text id="text4150" transform="scale(1.0006 .99942)" x="24.717358" y="61.580971" fill="url(#linearGradient4184)" font-family="Ubuntu" font-size="48.752px" letter-spacing="0px" word-spacing="0px" style="line-height:125%" xml:space="preserve"><tspan id="tspan4152" x="24.717358" y="61.580971" fill="url(#linearGradient4184)">@</tspan></text>
  <path id="text4186" d="m48.375 27c-2.7317 3.5e-5 -5.3097 0.4355-7.7812 1.3125-2.439 0.87706-4.6138 2.1835-6.5 3.9375-1.8537 1.7216-3.3318 3.9002-4.4375 6.5312-1.1057 2.6311-1.6563 5.7106-1.6562 9.2188 0 0.16912-0.0024 0.33298 0 0.5 0.05127-3.2964 0.60446-6.2159 1.6562-8.7188 1.1057-2.6311 2.5838-4.8096 4.4375-6.5312 1.8862-1.754 4.061-3.0604 6.5-3.9375 2.4715-0.877 5.0495-1.3125 7.7812-1.3125 2.6666 3.5e-5 5.1885 0.4355 7.5625 1.3125 2.374 0.84458 4.4613 2.0934 6.25 3.75 1.7886 1.6242 3.2093 3.5988 4.25 5.9375 0.97169 2.1535 1.4669 4.5896 1.5312 7.2812 0.0024-0.1465 0.03125-0.28864 0.03125-0.4375-4.3e-5 -2.9234-0.52189-5.5375-1.5625-7.8438-1.0407-2.3387-2.4614-4.3133-4.25-5.9375-1.7887-1.6566-3.876-2.9054-6.25-3.75-2.374-0.877-4.8959-1.3125-7.5625-1.3125zm0.75 9.6562c-1.7561 2.5e-5 -3.3516 0.29034-4.75 0.875-1.3659 0.58471-2.5244 1.3981-3.5 2.4375-0.9431 1.007-1.6685 2.197-2.1562 3.5938-0.48782 1.3643-0.71876 2.8158-0.71875 4.375-1e-6 0.12646 0.02882 0.25066 0.03125 0.375 0.05836-1.3192 0.26748-2.5753 0.6875-3.75 0.48779-1.3967 1.2131-2.5868 2.1562-3.5938 0.97559-1.0394 2.1341-1.8528 3.5-2.4375 1.3984-0.58466 2.9939-0.87498 4.75-0.875 1.6585 2.5e-5 3.1654 0.11516 4.5312 0.375 1.3983 0.25988 2.4708 0.52141 3.2188 0.78125v-1c-0.748-0.25984-1.8204-0.52136-3.2188-0.78125-1.3659-0.25984-2.8727-0.37498-4.5312-0.375zm14.656 9.3438c-0.02045 1.0843-0.10934 2.1596-0.28125 3.2188-0.19516 1.1694-0.48352 2.2143-0.90625 3.1562-0.39028 0.942-0.91213 1.7278-1.5625 2.3125-0.61792 0.58469-1.342 0.87501-2.1875 0.875-0.5854 6e-6 -1.0798-0.23397-1.4375-0.65625-0.35776-0.42227-0.53128-1.148-0.53125-2.1875v1c-3.2e-5 1.0395 0.17349 1.7652 0.53125 2.1875 0.35769 0.42228 0.8521 0.65626 1.4375 0.65625 0.84549 6e-6 1.5696-0.29031 2.1875-0.875 0.65037-0.58468 1.1722-1.3705 1.5625-2.3125 0.42273-0.94198 0.71109-1.9869 0.90625-3.1562 0.19508-1.2018 0.31246-2.4219 0.3125-3.6562-4e-6 -0.19196-0.02495-0.37283-0.03125-0.5625zm-21.156 2.4688c-0.0064 0.15919-0.03125 0.30535-0.03125 0.46875-1.8e-5 2.3063 0.55054 4.167 1.6562 5.5312 1.1057 1.3643 2.5825 2.0313 4.4688 2.0312 0.6829 6e-6 1.3795-0.05756 2.0625-0.1875 0.71542-0.16241 1.3534-0.39515 1.9062-0.6875-0.07301-0.31593-0.08843-0.62157-0.125-0.9375-0.52463 0.26331-1.1161 0.47401-1.7812 0.625-0.68295 0.12994-1.3796 0.18751-2.0625 0.1875-1.8862 6e-6 -3.3631-0.66697-4.4688-2.0312-1.0186-1.2568-1.5448-2.9437-1.625-5zm-10.406 0.03125c-0.0031 0.16837-0.03125 0.32934-0.03125 0.5-7e-6 2.8585 0.43571 5.3862 1.2812 7.5625 0.84552 2.1439 2.0041 3.9445 3.5 5.4062 1.5284 1.4292 3.3262 2.5041 5.375 3.2188 2.0813 0.7471 4.3409 1.125 6.8125 1.125 1.9187-4e-6 3.5142-0.11638 4.75-0.34375 1.2683-0.22738 2.0797-0.43257 2.4375-0.5625l0.375 2.6562c0.03151-0.01031 0.096-0.02103 0.125-0.03125l-0.5-3.625c-0.35776 0.12993-1.1692 0.33512-2.4375 0.5625-1.2358 0.22738-2.8313 0.34375-4.75 0.34375-2.4716-4e-6 -4.7312-0.3779-6.8125-1.125-2.0488-0.71462-3.8466-1.7895-5.375-3.2188-1.4959-1.4617-2.6545-3.2624-3.5-5.4062-0.79502-2.0463-1.2025-4.4131-1.25-7.0625z" fill="#fff"/>
 </g>
 <g id="layer4" display="none">
  <g id="g4297" transform="matrix(.69994 0 0 .69994 4.232 3.9069)" clip-path="url(#clipPath4175)" display="inline" opacity=".4">
   <path id="path4086" d="m78.328 146.13c24.651-4.6178 40.943-28.381 36.325-53.033-4.6178-24.651-28.406-40.907-53.057-36.289-24.651 4.6178-40.912 28.376-36.295 53.027 4.6178 24.651 28.376 40.912 53.027 36.295zm-0.27619-1.4744c-23.853 4.4684-46.808-11.243-51.276-35.096-4.4684-23.853 11.243-46.808 35.096-51.276 23.853-4.4684 46.839 11.237 51.307 35.091 4.4684 23.853-11.274 46.814-35.127 51.282z" display="inline"/>
   <path id="path4088" d="m76.058 133.99c17.941-3.3608 29.794-20.678 26.433-38.619-3.3608-17.941-20.674-29.772-38.615-26.411-17.941 3.3608-29.776 20.652-26.415 38.593 3.3608 17.941 20.656 29.798 38.597 26.437zm-0.27884-1.4886c-17.143 3.2114-33.64-8.0801-36.852-25.223-3.2114-17.143 8.0801-33.64 25.223-36.852 17.143-3.2114 33.663 8.0759 36.874 25.219 3.2114 17.143-8.1023 33.644-25.246 36.856z" display="inline"/>
   <path id="path4090" transform="matrix(-.77311 .14482 -.14482 -.77311 112.48 175.15)" d="m80.565 102.03a44.7 44.7 0 1 1-89.399 0 44.7 44.7 0 1 1 89.399 0z" display="inline" fill="none"/>
   <path id="text4092" d="m30.263 108.52-0.55415-4.6704 0.9877-0.1172 0.19935 1.6801 4.0798-0.48408 0.15505 1.3068-4.0798 0.48408 0.19975 1.6835-0.9877 0.11719m2.2617-9.7969 2.3306 0.04837-0.02553 1.2302-0.37931-0.0079-1.3976-0.02901c-0.33489-0.0069-0.56514-0.0038-0.69078 0.0096-0.12558 0.01107-0.21836 0.03421-0.27836 0.06943-0.08073 0.0462-0.14358 0.10984-0.18857 0.19095-0.04726 0.0811-0.07198 0.17401-0.07416 0.2788-0.0053 0.25515 0.08965 0.45769 0.28482 0.6076 0.1929 0.14987 0.46362 0.22842 0.81218 0.23566l1.8829 0.0391-0.02539 1.2234-5.3172-0.11037 0.02539-1.2234 2.0503 0.0426c-0.21943-0.18916-0.37939-0.38849-0.47988-0.59798-0.10277-0.20953-0.15155-0.43959-0.14635-0.69019 0.0092-0.44197 0.15168-0.77404 0.4275-0.99623 0.27588-0.22446 0.67239-0.33133 1.1895-0.3206m0.96155-1.2962-2.3066-0.3811 0.20058-1.214 0.37769 0.0624c0.20459 0.0338 0.46182 0.07746 0.77169 0.13096 0.30763 0.05314 0.51315 0.08825 0.61656 0.10533 0.3035 0.05015 0.524 0.0785 0.66149 0.08504 0.13524 0.0062 0.23637-0.0048 0.30339-0.03302 0.08686-0.03646 0.15814-0.0905 0.21386-0.16213 0.05609-0.07388 0.09267-0.16252 0.10976-0.26594 0.0416-0.25179-0.02238-0.4656-0.19195-0.64143-0.16957-0.17582-0.42634-0.29215-0.77031-0.34899l-1.8649-0.30812 0.19947-1.2073 3.7769 0.62403-0.19947 1.2073-0.5463-0.09026c0.19023 0.21851 0.32128 0.43878 0.39314 0.66082 0.06998 0.21942 0.08473 0.45166 0.04425 0.69671-0.07206 0.43615-0.2608 0.74677-0.56622 0.93188-0.30505 0.18286-0.71274 0.23214-1.2231 0.14782m1.3127-9.0821 2.2225 0.70309-0.37113 1.1732-1.7011-0.53814c-0.31502-0.09965-0.53467-0.16078-0.65897-0.18337-0.12361-0.02476-0.21916-0.0287-0.28664-0.01181-0.09047 0.02157-0.16872 0.06493-0.23474 0.13008-0.06819 0.06447-0.11809 0.14667-0.14971 0.2466-0.07697 0.24333-0.04295 0.4644 0.10207 0.66324 0.14285 0.19815 0.38048 0.3498 0.71287 0.45495l1.7956 0.56804-0.36907 1.1666-3.6498-1.1546 0.36907-1.1666 0.53444 0.16907c-0.15723-0.24333-0.25455-0.47965-0.29194-0.70897-0.03956-0.23-0.02155-0.46449 0.05405-0.70347 0.13334-0.42146 0.36363-0.69993 0.69089-0.8354 0.32795-0.13763 0.7385-0.12845 1.2317 0.02756m0.8323-4.1264-1.8479-0.88934 0.53361-1.1087 4.7922 2.3064-0.5336 1.1087-0.49894-0.24012c0.13015 0.24977 0.19847 0.48875 0.20497 0.71694 0.0065 0.2282-0.04805 0.46241-0.16367 0.70263-0.20455 0.42502-0.5409 0.69304-1.0091 0.80406-0.47021 0.11003-0.97121 0.03708-1.503-0.21885-0.53178-0.25593-0.90033-0.60147-1.1056-1.0366-0.20736-0.43612-0.20876-0.8667-0.0042-1.2917 0.11463-0.23817 0.26417-0.42541 0.44861-0.5617 0.18338-0.13933 0.41225-0.23655 0.68659-0.29165m1.8831 1.8015c0.11364-0.23612 0.11387-0.45728 6.85e-4 -0.66348-0.11219-0.20825-0.33255-0.39143-0.66107-0.54954-0.32852-0.1581-0.60915-0.21603-0.8419-0.1738-0.23176 0.04019-0.40446 0.17835-0.5181 0.41447-0.11265 0.23407-0.11288 0.45523-6.83e-4 0.66348 0.11318 0.2062 0.33403 0.38835 0.66255 0.54646 0.32852 0.15811 0.60866 0.21707 0.84042 0.17688 0.23275-0.04224 0.40545-0.1804 0.5181-0.41447m2.7028-6.7683 0.29036 0.19297-1.5835 2.3826c0.25552 0.13425 0.49224 0.16708 0.71018 0.09851 0.21794-0.06857 0.41519-0.23569 0.59176-0.50138 0.14252-0.21444 0.25688-0.45445 0.34308-0.72001 0.08556-0.26871 0.14264-0.56456 0.17125-0.88755l0.78568 0.52215c-0.06908 0.30156-0.16094 0.58798-0.27557 0.85926-0.11273 0.27255-0.24919 0.52933-0.40936 0.77035-0.38342 0.57692-0.82782 0.92863-1.3332 1.0551-0.50604 0.12334-1.0238 0.0091-1.5533-0.34282-0.51999-0.34558-0.8249-0.77394-0.91475-1.2851-0.08858-0.51304 0.05-1.0447 0.41576-1.5951 0.33297-0.501 0.74996-0.80117 1.251-0.90048 0.50228-0.1012 1.0058 0.01593 1.5106 0.35142m-1.035 0.82244c-0.19357-0.12864-0.38703-0.17513-0.58036-0.13946-0.19397 0.03252-0.3515 0.13986-0.47258 0.32204-0.13117 0.19737-0.18176 0.39494-0.15177 0.5927 0.02809 0.19651 0.13642 0.37931 0.325 0.54841l0.87971-1.3237m2.9464-4.4367c-0.10746 0.04936-0.20448 0.10755-0.29106 0.17456-0.08685 0.06381-0.16488 0.13659-0.23407 0.21833-0.20316 0.24002-0.28256 0.49075-0.23818 0.75222 0.04411 0.25826 0.20965 0.50884 0.49662 0.75175l1.3461 1.1395-0.79057 0.93396-2.9219-2.4733 0.79057-0.93396 0.48002 0.40633c-0.08973-0.28194-0.11256-0.53712-0.0685-0.76552 0.0438-0.23161 0.15771-0.45611 0.34174-0.67352 0.0265-0.0313 0.05695-0.06374 0.09134-0.09733 0.03266-0.03505 0.08278-0.08368 0.15036-0.14589l0.84746 0.71288m3.5-0.62187c0.19205-0.17828 0.27306-0.38406 0.24305-0.61736-0.02835-0.23484-0.16655-0.48587-0.41459-0.75307-0.24804-0.2672-0.48811-0.42366-0.7202-0.46938-0.23042-0.04726-0.44166 0.01825-0.63371 0.19652-0.19205 0.17828-0.27396 0.38646-0.24573 0.62452 0.02835 0.23485 0.16577 0.48504 0.41226 0.75057 0.24649 0.26553 0.48656 0.42199 0.7202 0.46938 0.23376 0.04417 0.44667-0.02289 0.63872-0.20117m-2.2821-1.2627c-0.02834-0.27838-3e-3 -0.52574 0.07597-0.74208 0.07744-0.21801 0.21386-0.4177 0.40924-0.59909 0.34569-0.3209 0.75749-0.44666 1.2354-0.3773 0.47635 0.0677 0.91529 0.31782 1.3168 0.75035 0.40151 0.43254 0.61911 0.88967 0.6528 1.3714 0.03213 0.48007-0.12465 0.88055-0.47034 1.2015-0.19539 0.18138-0.4039 0.30342-0.62551 0.36612-0.22316 0.06103-0.4725 0.06708-0.748 0.01814l0.37671 0.40581-0.8968 0.83249-3.6183-3.8978 0.8968-0.83249 1.3952 1.503m2.7961-3.1528 0.9796-0.73325 2.294 3.0647-0.9796 0.73325-2.294-3.0647m-0.89301-1.193 0.9796-0.73325 0.59807 0.799-0.9796 0.73325-0.59807-0.799m6.0649-1.0323c-0.11739 0.01426-0.22752 0.04012-0.33042 0.07756-0.10217 0.03431-0.19866 0.07985-0.28947 0.13661-0.26664 0.16669-0.41867 0.3813-0.45609 0.64385-0.03669 0.25942 0.04461 0.54853 0.2439 0.86734l0.93487 1.4955-1.0376 0.64861-2.0292-3.2461 1.0376-0.64861 0.33336 0.53328c4.58e-4 -0.29588 0.05647-0.54587 0.16805-0.74998 0.1123-0.20724 0.28921-0.38636 0.53073-0.53734 0.03478-0.02174 0.07366-0.04336 0.11666-0.06486 0.04178-0.02343 0.10434-0.05447 0.18767-0.09313l0.58991 0.93723m2.9904-2.0084-0.86832-1.8579 1.1147-0.52099 2.2518 4.8181-1.1147 0.52099-0.23445-0.50163c-0.05725 0.27576-0.15554 0.50406-0.29488 0.68488-0.13934 0.18083-0.32978 0.32768-0.5713 0.44056-0.42731 0.19971-0.85736 0.19446-1.2901-0.01577-0.43375-0.21229-0.77556-0.58577-1.0254-1.1204-0.24988-0.53466-0.31666-1.0354-0.20034-1.5023 0.11536-0.46893 0.3867-0.80325 0.81401-1.003 0.23946-0.11191 0.47372-0.16229 0.7028-0.15114 0.23017 0.0081 0.46891 0.07765 0.71622 0.20855m0.31845 2.5865c0.23739-0.11095 0.3775-0.28207 0.42032-0.51336 0.04488-0.23225-0.0099-0.51353-0.16423-0.84382-0.15437-0.33029-0.33504-0.55271-0.542-0.66726-0.2049-0.11551-0.42605-0.11779-0.66345-0.0068-0.23533 0.10999-0.37544 0.28111-0.42032 0.51336-0.04282 0.23129 0.01296 0.51208 0.16733 0.84237 0.15437 0.33029 0.334 0.55319 0.5389 0.66871 0.20696 0.11455 0.42811 0.11683 0.66345 0.0068m4.6446-6.4022 1.6422-0.32908 1.6761 2.4494 0.60956-2.9074 1.6388-0.3284 1.0027 5.0036-1.2199 0.24446-0.73337-3.6597-0.61224 2.9289-0.81773 0.16387-1.6935-2.4668 0.73337 3.6597-1.2232 0.24513-1.0027-5.0036m9.4797 2.0518c-0.25508 0.0083-0.44612 0.0578-0.57312 0.14856-0.12473 0.09068-0.18436 0.22029-0.17888 0.38882 5e-3 0.15487 0.06022 0.27505 0.16559 0.36054 0.10757 0.08314 0.25359 0.12172 0.43807 0.11573 0.23002-0.0075 0.42094-0.09574 0.57276-0.26482 0.15174-0.17135 0.22359-0.38115 0.21553-0.6294l-0.0045-0.14006-0.63541 0.02063m1.8537-0.52185 0.07086 2.1829-1.2332 0.04003-0.01841-0.56708c-0.15644 0.23762-0.3354 0.41328-0.5369 0.52698-0.20157 0.11142-0.44925 0.17189-0.74304 0.18143-0.39628 0.01286-0.72227-0.09168-0.97798-0.31365-0.25351-0.22432-0.38625-0.52094-0.39822-0.88989-0.01456-0.44866 0.12848-0.78274 0.42913-1.0022 0.30293-0.21958 0.78462-0.34009 1.4451-0.36153l0.72081-0.0234-0.0031-0.09565c-0.0063-0.19358-0.08716-0.3323-0.24264-0.41618-0.15555-0.08614-0.39502-0.12396-0.71842-0.11347-0.26191 0.0085-0.50474 0.04261-0.72851 0.1023-0.22377 0.0597-0.43074 0.14508-0.62092 0.25612l-0.03028-0.93261c0.25984-0.07227 0.52133-0.12863 0.78448-0.1691 0.26307-0.04273 0.5267-0.06839 0.79089-0.07697 0.69006-0.0224 1.1921 0.09809 1.5062 0.36148 0.31625 0.26104 0.48432 0.69787 0.50421 1.3105m1.4824-1.5541 1.2207 0.08508-0.26618 3.8189-1.2207-0.08508 0.26618-3.8189m0.10362-1.4866 1.2207 0.08508-0.0694 0.99563-1.2207-0.08508 0.0694-0.99563m2.7621 0.24586 1.2119 0.16904-0.73469 5.2674-1.2119-0.16904 0.73469-5.2674m8.0152 7.1423c-0.26853 0.04405-0.53724 0.05567-0.80613 0.03487s-0.5387-0.07546-0.80943-0.16399c-0.80785-0.26416-1.3742-0.69868-1.699-1.3036-0.32413-0.60704-0.35977-1.2972-0.10694-2.0703 0.25354-0.77535 0.69003-1.3111 1.3095-1.6072 0.62016-0.29826 1.3341-0.31531 2.142-0.05115 0.27072 0.08853 0.5207 0.20384 0.74994 0.34592 0.22922 0.14209 0.43916 0.31023 0.62979 0.50441l-0.32826 1.0038c-0.1801-0.23391-0.3707-0.42449-0.57186-0.57179-0.20117-0.14729-0.42628-0.26166-0.67535-0.3431-0.44615-0.14589-0.84375-0.11768-1.1928 0.08464-0.34905 0.20232-0.60573 0.55471-0.77002 1.0572-0.1636 0.5003-0.16436 0.93517-0.0023 1.3046 0.16208 0.36945 0.46619 0.62713 0.91236 0.77302 0.24906 0.08144 0.49826 0.12217 0.74758 0.12219s0.5157-0.04114 0.79914-0.12346l-0.32826 1.0038m3.0392-4.1309 1.1156 0.50264-2.1846 4.8489-1.1156-0.50264 2.1846-4.8489m1.7988 2.4987 1.0788 0.57742-1.8065 3.3751-1.0788-0.57742 1.8065-3.3751m0.70323-1.3139 1.0788 0.57742-0.47097 0.87993-1.0788-0.57742 0.47097-0.87993m3.8588 6.3638-0.19468 0.28922-2.3733-1.5975c-0.13575 0.25472-0.16998 0.49124-0.1027 0.70958 0.06728 0.21834 0.23324 0.41657 0.49788 0.59471 0.2136 0.14378 0.45293 0.25955 0.71797 0.34732 0.2682 0.08714 0.56372 0.14597 0.88653 0.17648l-0.52678 0.78258c-0.30114-0.07086-0.58702-0.16441-0.85762-0.28063-0.27188-0.11434-0.52786-0.2523-0.76792-0.4139-0.57465-0.38681-0.92374-0.83329-1.0472-1.3394-0.12034-0.50676-3e-3 -1.0238 0.35198-1.5512 0.34863-0.51794 0.77878-0.82033 1.2905-0.90716 0.51355-0.08556 1.0444 0.05617 1.5926 0.42516 0.49903 0.33591 0.79673 0.75467 0.89309 1.2563 0.09824 0.50287-0.02186 1.0057-0.36032 1.5085m-0.81632-1.0398c0.12978-0.19281 0.17741-0.38599 0.14288-0.57953-0.03137-0.19416-0.13779-0.35231-0.31925-0.47446-0.1966-0.13233-0.39387-0.18408-0.5918-0.15526-0.19667 0.02693-0.38011 0.13419-0.55032 0.32176l1.3185 0.8875m4.8915 4.0427-1.5545 1.737-0.91689-0.82058 0.25301-0.28271 0.93683-1.0468c0.22034-0.2462 0.36636-0.42132 0.43806-0.52534 0.07339-0.1025 0.11626-0.18799 0.1286-0.25645 0.01752-0.09134 0.01016-0.18049-0.02209-0.26746-0.03074-0.08867-0.08516-0.16795-0.16326-0.23785-0.19017-0.17019-0.40569-0.23006-0.64657-0.17959-0.23936 0.04877-0.47528 0.20305-0.70778 0.46283l-1.256 1.4034-0.91181-0.81603 2.5529-2.8526 0.9118 0.81603-0.37382 0.4177c0.28645-0.04331 0.54189-0.03487 0.7663 0.0253 0.22593 0.05848 0.43228 0.1713 0.61906 0.33846 0.32939 0.2948 0.48858 0.61922 0.47755 0.97323-0.0093 0.35554-0.18649 0.72602-0.53144 1.1115m3.7868 0.3371-0.81537 0.71873 0.83401 0.94612-0.6564 0.5786-0.83399-0.94612-1.2179 1.0736c-0.13333 0.11753-0.20057 0.22388-0.20172 0.31906 5.55e-4 0.09367 0.07014 0.21914 0.20877 0.3764l0.41587 0.47178-0.65638 0.5786-0.69387-0.78715c-0.31944-0.36238-0.471-0.68594-0.45468-0.97066 0.01954-0.28453 0.21049-0.58651 0.57288-0.90594l1.2179-1.0736-0.4023-0.45639 0.65639-0.5786 0.4023 0.45639 0.81536-0.71873 0.80915 0.91792" display="inline"/>
   <g id="g4118" transform="matrix(1.1 -.86862 .86862 1.1 -60.967 18.73)">
    <path id="path4102" transform="matrix(1.5606 .41815 -.41815 1.5606 33.235 -70.873)" d="m29.682 99.378-2.3266 1.8416 0.98506 2.8318-2.4704-1.6437-2.3888 1.8119 0.79983-2.8574-2.4614-1.712 2.9647-0.12231 0.86754-2.87 1.0325 2.7818z" display="inline"/>
    <path id="path4104" transform="matrix(1.5606 .41815 -.41815 1.5606 47.387 -67.081)" d="m29.682 99.378-2.3266 1.8416 0.98506 2.8318-2.4704-1.6437-2.3888 1.8119 0.79983-2.8574-2.4614-1.712 2.9647-0.12231 0.86754-2.87 1.0325 2.7818z" display="inline"/>
    <path id="path4106" transform="matrix(1.5606 .41815 -.41815 1.5606 36.915 -57.344)" d="m29.682 99.378-2.3266 1.8416 0.98506 2.8318-2.4704-1.6437-2.3888 1.8119 0.79983-2.8574-2.4614-1.712 2.9647-0.12231 0.86754-2.87 1.0325 2.7818z" display="inline"/>
   </g>
  </g>
 </g>
 <g id="layer5">
  <rect id="rect3171" x="15" y="15" width="66" height="66" rx="12" ry="12" clip-path="url(#clipPath3613)" fill="url(#linearGradient3613)" filter="url(#filter3794)" opacity=".1" stroke="#fff" stroke-linecap="round" stroke-width=".5"/>
 </g>
</svg>
