<?xml version="1.0" encoding="UTF-8"?>
<svg id="svg2408" width="96" height="96" version="1.0" xmlns="http://www.w3.org/2000/svg" xmlns:cc="http://creativecommons.org/ns#" xmlns:dc="http://purl.org/dc/elements/1.1/" xmlns:rdf="http://www.w3.org/1999/02/22-rdf-syntax-ns#" xmlns:xlink="http://www.w3.org/1999/xlink">
 <defs id="defs2410">
  <linearGradient id="ButtonShadow" x1="45.448" x2="45.448" y1="92.54" y2="7.0165" gradientTransform="scale(1.0059 .99417)" gradientUnits="userSpaceOnUse">
   <stop id="stop3750" offset="0"/>
   <stop id="stop3752" stop-opacity=".58824" offset="1"/>
  </linearGradient>
  <linearGradient id="linearGradient3737">
   <stop id="stop3739" stop-color="#fff" offset="0"/>
   <stop id="stop3741" stop-color="#fff" stop-opacity="0" offset="1"/>
  </linearGradient>
  <filter id="filter3174" color-interpolation-filters="sRGB">
   <feGaussianBlur id="feGaussianBlur3176" stdDeviation="1.71"/>
  </filter>
  <linearGradient id="linearGradient3188" x1="36.357" x2="36.357" y1="6" y2="63.893" gradientUnits="userSpaceOnUse" xlink:href="#linearGradient3737"/>
  <filter id="filter3794" x="-.192" y="-.192" width="1.384" height="1.384" color-interpolation-filters="sRGB">
   <feGaussianBlur id="feGaussianBlur3796" stdDeviation="5.28"/>
  </filter>
  <linearGradient id="linearGradient3613" x1="48" x2="48" y1="20.221" y2="138.66" gradientUnits="userSpaceOnUse" xlink:href="#linearGradient3737"/>
  <radialGradient id="radialGradient3619" cx="48" cy="90.172" r="42" gradientTransform="matrix(1.1573 0 0 .99591 -7.551 .19713)" gradientUnits="userSpaceOnUse" xlink:href="#linearGradient3737"/>
  <clipPath id="clipPath3613">
   <rect id="rect3615" x="6" y="6" width="84" height="84" rx="6" ry="6" fill="#fff"/>
  </clipPath>
  <linearGradient id="linearGradient3617" x1="48" x2="48" y1="90" y2="5.9877" gradientUnits="userSpaceOnUse">
   <stop id="stop4083" stop-color="#8c8c8c" offset="0"/>
   <stop id="stop4085" stop-color="#dcdcdc" offset="1"/>
  </linearGradient>
  <linearGradient id="ButtonShadow-0" x1="45.448" x2="45.448" y1="92.54" y2="7.0165" gradientTransform="matrix(1.0059 0 0 .99417 100 0)" gradientUnits="userSpaceOnUse">
   <stop id="stop3750-8" offset="0"/>
   <stop id="stop3752-5" stop-opacity=".58824" offset="1"/>
  </linearGradient>
  <linearGradient id="linearGradient3780" x1="32.251" x2="32.251" y1="6.1317" y2="90.239" gradientTransform="matrix(1.0238 0 0 1.0119 -1.1429 -98.071)" gradientUnits="userSpaceOnUse" xlink:href="#ButtonShadow-0"/>
  <linearGradient id="linearGradient3721" x1="32.251" x2="32.251" y1="6.1317" y2="90.239" gradientTransform="translate(0,-97)" gradientUnits="userSpaceOnUse" xlink:href="#ButtonShadow-0"/>
  <linearGradient id="linearGradient4281-6">
   <stop id="stop4283-9" stop-color="#1e1e1e" offset="0"/>
   <stop id="stop4285-8" stop-color="#505050" offset="1"/>
  </linearGradient>
  <clipPath id="clipPath4194-1">
   <rect id="rect4196-1" x="6" y="6" width="84" height="84" rx="6" ry="6" fill="#f0f"/>
  </clipPath>
  <linearGradient id="linearGradient4077-0" x1="48.234" x2="126.14" y1="48.047" y2="66.233" gradientUnits="userSpaceOnUse" xlink:href="#linearGradient4071-3"/>
  <linearGradient id="linearGradient4071-3">
   <stop id="stop4073-8" offset="0"/>
   <stop id="stop4075-4" stop-opacity="0" offset="1"/>
  </linearGradient>
  <linearGradient id="linearGradient4069-9" x1="48.055" x2="126.67" y1="48.032" y2="62.839" gradientUnits="userSpaceOnUse" xlink:href="#linearGradient4071-3"/>
  <linearGradient id="linearGradient4061-6" x1="47.997" x2="127.05" y1="48.029" y2="60.29" gradientUnits="userSpaceOnUse" xlink:href="#linearGradient4071-3"/>
  <linearGradient id="linearGradient4053-2" x1="47.998" x2="127.42" y1="48.029" y2="57.665" gradientUnits="userSpaceOnUse" xlink:href="#linearGradient4071-3"/>
  <linearGradient id="linearGradient4145-0" x1="48.234" x2="126.14" y1="48.047" y2="66.233" gradientUnits="userSpaceOnUse" xlink:href="#linearGradient3737"/>
  <linearGradient id="linearGradient4137-7" x1="48.055" x2="126.67" y1="48.032" y2="62.839" gradientUnits="userSpaceOnUse" xlink:href="#linearGradient3737"/>
  <linearGradient id="linearGradient4129-8" x1="47.997" x2="127.05" y1="48.029" y2="60.29" gradientUnits="userSpaceOnUse" xlink:href="#linearGradient3737"/>
  <linearGradient id="linearGradient4121-6" x1="47.998" x2="127.42" y1="48.029" y2="57.665" gradientUnits="userSpaceOnUse" xlink:href="#linearGradient3737"/>
  <radialGradient id="radialGradient3619-8" cx="48" cy="90.172" r="42" gradientTransform="matrix(1.1573 0 0 .99591 -7.551 .19713)" gradientUnits="userSpaceOnUse" xlink:href="#linearGradient3737"/>
  <radialGradient id="radialGradient3814-9" cx="48.41" cy="47.598" r="30.64" gradientTransform="matrix(1 0 0 .98496 -30 .71591)" gradientUnits="userSpaceOnUse">
   <stop id="stop3798-4" stop-color="#fff" stop-opacity="0" offset="0"/>
   <stop id="stop3800-9" stop-color="#fff" offset="1"/>
  </radialGradient>
  <radialGradient id="radialGradient5008" cx="48.265" cy="47.887" r="28.879" gradientTransform="matrix(1 0 0 1.0138 -30 -.66141)" gradientUnits="userSpaceOnUse">
   <stop id="stop3782-4" stop-opacity="0" offset="0"/>
   <stop id="stop3784-9" offset="1"/>
  </radialGradient>
  <linearGradient id="linearGradient3935" x1="38" x2="38" y1="28" y2="68" gradientTransform="translate(-90)" gradientUnits="userSpaceOnUse" xlink:href="#linearGradient4281-6"/>
  <linearGradient id="linearGradient4057" x1="7.9407" x2="7.9407" y1="5.099" y2="19.219" gradientTransform="matrix(3.5301 0 0 2.5495 16 18)" gradientUnits="userSpaceOnUse" xlink:href="#linearGradient4281-6"/>
 </defs>
 <metadata id="metadata2413">
  <rdf:RDF>
   <cc:Work rdf:about="">
    <dc:format>image/svg+xml</dc:format>
    <dc:type rdf:resource="http://purl.org/dc/dcmitype/StillImage"/>
    <dc:title/>
   </cc:Work>
  </rdf:RDF>
 </metadata>
 <g id="layer2" display="none">
  <rect id="rect3745" x="5" y="7" width="86" height="85" rx="6" ry="6" fill="url(#ButtonShadow)" filter="url(#filter3174)" opacity=".9"/>
 </g>
 <g id="layer3">
  <path id="path3786" transform="scale(1,-1)" d="m12-95.031c-5.5111 0-10.031 4.5202-10.031 10.031v71c0 5.5111 4.5202 10.031 10.031 10.031h72c5.5111 0 10.031-4.5202 10.031-10.031v-71c0-5.5111-4.5202-10.031-10.031-10.031h-72z" fill="url(#linearGradient3780)" opacity=".08"/>
  <path id="path3778" transform="scale(1,-1)" d="m12-94.031c-4.9716 0-9.0312 4.0596-9.0312 9.0312v71c0 4.9716 4.0596 9.0312 9.0312 9.0312h72c4.9716 0 9.0312-4.0596 9.0312-9.0312v-71c0-4.9716-4.0596-9.0312-9.0312-9.0312h-72z" fill="url(#linearGradient3780)" opacity=".1"/>
  <path id="path3770" transform="scale(1,-1)" d="m12-93c-4.4091 0-8 3.5909-8 8v71c0 4.4091 3.5909 8 8 8h72c4.4091 0 8-3.5909 8-8v-71c0-4.4091-3.5909-8-8-8h-72z" fill="url(#linearGradient3780)" opacity=".2"/>
  <rect id="rect3723" transform="scale(1,-1)" x="5" y="-92" width="86" height="85" rx="7" ry="7" fill="url(#linearGradient3780)" opacity=".3"/>
  <rect id="rect3716" transform="scale(1,-1)" x="6" y="-91" width="84" height="84" rx="6" ry="6" fill="url(#linearGradient3721)" opacity=".45"/>
 </g>
 <g id="layer1" opacity=".9">
  <rect id="rect2419" x="6" y="6" width="84" height="84" rx="6" ry="6" fill="url(#linearGradient3617)"/>
 </g>
 <g id="layer5" display="none">
  <rect id="rect3171" x="15" y="15" width="66" height="66" rx="12" ry="12" clip-path="url(#clipPath3613)" fill="url(#linearGradient3613)" filter="url(#filter3794)" opacity=".3" stroke="#fff" stroke-linecap="round" stroke-width=".5"/>
 </g>
 <g id="layer7">
  <g id="g4165" clip-path="url(#clipPath4194-1)">
   <g id="g4011" transform="matrix(.14137 .99272 -1.1652 .12045 96.937 -5.1947)" opacity=".9">
    <path id="path4009" transform="matrix(.99411 -.10837 .10837 .99411 -5.1582 5.4919)" d="m108.9 48a60.896 60.896 0 0 1-6.5462 27.467l-54.35-27.467z" color="#000000" fill="url(#linearGradient4077-0)" opacity=".05"/>
    <path id="path4007" transform="matrix(.99786 -.065374 .065374 .99786 -3.094 3.2416)" d="m108.9 48a60.896 60.896 0 0 1-4.4572 22.869l-56.439-22.869z" color="#000000" fill="url(#linearGradient4069-9)" opacity=".07"/>
    <path id="path4005" transform="matrix(.99945 -.033121 .033121 .99945 -1.5635 1.6161)" d="m108.9 48a60.896 60.896 0 0 1-3.1299 19.272l-57.766-19.272z" color="#000000" fill="url(#linearGradient4061-6)" opacity=".1"/>
    <path id="path4003" d="m108.9 48a60.896 60.896 0 0 1-2.075 15.761l-58.821-15.761z" color="#000000" fill="url(#linearGradient4053-2)" opacity=".1"/>
   </g>
   <g id="g3802" transform="matrix(1.8327 0 0 1.8327 14.258 -39.234)" fill="none" stroke-width=".47875">
    <path id="path2875" d="m19.196 49.867c-3.7383 2.563-5.6052-4.8991-1.155-4.812 4.3871-0.23608 3.9791 6.8014-0.14484 6.6146-3.1737 0.24264-5.0987-3.8987-3.1036-6.2853 2.0277-2.9808 7.1712-1.6842 7.7389 1.8175 0.96896 3.6362-3.1572 7.0386-6.5673 5.5229-3.9462-1.2697-4.4898-7.147-1.1071-9.3662 3.5697-2.7958 9.3917 0.23728 9.2058 4.7583 0.25677 4.3508-4.6893 7.6722-8.6482 5.9348-4.7194-1.5512-5.692-8.4202-1.9094-11.473 3.6589-3.435 10.363-1.4582 11.675 3.3588 1.5931 4.5594-2.0643 9.9214-6.9194 10.009-4.9341 0.46502-9.3835-4.3388-8.5226-9.2263 0.48048-5.0458 6.044-8.5972 10.839-7.0428 5.1784 1.2462 7.9642 7.5811 5.6619 12.315-2.0703 5.1795-9.0655 7.066-13.621 4.0018-5.1934-3.0203-5.926-10.894-1.7483-15.071 4.2959-4.8288 12.904-3.7852 16.129 1.7404 3.5882 5.4367 0.74553 13.65-5.4452 15.695-6.0859 2.3964-13.647-1.7424-14.738-8.2363-1.4747-6.4104 3.513-13.363 10.125-13.809 6.5474-0.84769 13.055 4.594 13.184 11.238 0.52354 6.584-5.0158 12.887-11.659 13.025-6.7954 0.53795-13.3-5.1805-13.44-12.038-0.5524-7.0079 5.3458-13.715 12.417-13.857 7.2229-0.57054 14.129 5.5183 14.275 12.799 0.54402 7.0708-5.0782 13.91-12.15 14.606-7.0606 1.0192-14.41-3.9622-15.813-11.012-1.7657-7.2328 2.7908-15.364 10.015-17.38 7.3952-2.3954 16.204 1.8723 18.685 9.2931 2.8286 7.4575-1.1147 16.692-8.5779 19.625-7.6239 3.3457-17.458-0.45113-20.71-8.1542-3.6267-7.7301 0.02753-17.902 7.8317-21.439 7.8269-3.9174 18.336-0.41907 22.166 7.4766 4.2173 7.9142 0.88881 18.76-7.0878 22.891-7.991 4.5265-19.171 1.3818-23.61-6.6655-4.8444-8.0574-1.8982-19.571 6.2087-24.326 7.972-5.0732 19.561-2.5467 24.767 5.3185 5.6225 7.8764 3.5991 19.843-4.1517 25.573-7.6181 6.0527-19.659 4.7318-25.992-2.5748-6.5368-7.0449-6.3481-18.848 0.0059-25.943 5.9692-7.1413 17.094-8.6939 25.012-3.9877 7.8697 4.2873 11.778 14.219 9.3246 22.775-2.1034 8.6536-10.4 15.24-19.316 15.262-9.3512 0.37506-18.515-6.176-20.825-15.313-2.8406-9.826 2.376-21.277 11.857-25.283 9.7995-4.5304 22.58-0.43912 27.807 9.0408 5.6264 9.4566 2.7082 22.79-6.297 29.089-8.8465 6.6167-22.359 5.1232-29.763-2.9918-7.4442-7.667-7.9887-20.556-1.7344-29.099 5.6922-8.3323 17.147-11.703 26.557-8.2884 9.3407 3.0049 16.04 12.41 15.837 22.219 0.14356 10.289-6.9822 20.253-16.957 23.048-10.921 3.4263-23.853-1.9204-28.876-12.274-5.5969-10.683-1.9007-25.099 8.1678-31.749 9.8776-6.9651 24.558-5.161 32.664 3.7252 8.12 8.3877 8.8715 22.382 2.2644 31.88-5.8718 9.0287-17.788 13.194-28.077 10.261-10.334-2.561-18.453-12.028-19.261-22.667-1.2478-11.538 5.8422-23.477 16.82-27.472 11.762-4.6715 26.426 0.21401 32.851 11.167 6.963 11.11 4.2544 26.939-5.8485 35.24-9.0175 7.8078-23.123 8.4362-33.025 1.9041-9.3105-5.7727-14.27-17.436-12.265-28.168 1.6441-10.785 10.062-20.171 20.686-22.756 11.827-3.1698 25.393 2.0493 31.78 12.56 6.786 10.594 5.3792 25.435-2.9509 34.783-7.2056 8.4619-19.472 11.822-30.072 8.7098-10.58-2.8065-19.155-11.944-21.08-22.747-2.4683-12.198 3.3554-25.652 14.214-31.864 11.255-6.7882 26.724-4.9539 36.275 3.9991 8.6483 7.7558 11.835 20.656 8.3267 31.654-2.022 6.6789-6.3258 12.653-12.119 16.565" opacity=".2" stroke="url(#radialGradient3814-9)"/>
    <path id="path3650" d="m16.909 49.337c-3.8859-1.8589 1.3687-6.9414 3.4117-3.2373 2.279 3.4987-3.7071 6.5071-5.513 3.024-1.7078-2.4969 0.78598-6.0492 3.6983-5.5412 3.4169 0.25246 4.7939 5.102 2.1816 7.2332-2.5323 2.5254-7.2934 0.74614-7.6664-2.7808-0.83017-3.8513 3.7489-7.0916 7.1828-5.362 3.9974 1.6095 4.2675 7.8427 0.45822 9.8381-3.459 2.2788-8.5429-0.21377-8.9943-4.2978-0.96594-4.6215 4.2255-8.6861 8.5353-7.0233 4.5659 1.3792 6.1246 7.8364 2.7832 11.205-2.9956 3.4778-9.1468 3.0156-11.526-0.93872-2.7274-3.8401-0.88788-9.785 3.5439-11.399 4.3813-2.0023 9.9481 0.8892 10.947 5.5743 1.435 4.8543-2.4551 10.158-7.4458 10.512-5.2468 0.75731-10.124-4.1037-9.7664-9.3095 0.01802-5.7097 6.1502-10.054 11.573-8.6004 6.0158 1.2412 9.2475 8.8224 6.232 14.102-2.7696 5.5367-10.88 7.1-15.506 2.9765-4.8644-3.8703-5.051-12.061-0.2246-16.044 4.5753-4.26 12.667-3.4584 16.177 1.7717 3.809 4.9861 2.4225 12.928-2.9849 16.191-5.1702 3.5596-12.99 1.9956-16.261-3.4066-3.6719-5.3374-2.0563-13.409 3.5211-16.782 5.5054-3.7848 13.829-2.1176 17.306 3.6355 3.9019 5.6738 2.1722 14.252-3.7509 17.832-5.5611 3.8078-13.862 2.4304-17.795-3.0599-4.1939-5.327-3.5862-13.743 1.5491-18.248 5.114-4.8903 13.972-5.0041 19.064-0.0154 5.4857 4.9484 6.1591 14.227 1.2302 19.795-4.7938 5.8719-14.268 7.0146-20.228 2.2654-6.3765-4.6851-7.9245-14.583-3.1301-20.921 4.6389-6.6583 14.748-8.4844 21.367-3.7419 6.9435 4.5805 9.0581 14.893 4.3795 21.797-4.5098 7.2319-15.018 9.6462-22.208 5.0438-7.5228-4.4262-10.247-15.123-5.7334-22.6 4.3297-7.8161 15.206-10.862 22.972-6.4494 7.9638 4.1507 11.391 14.89 7.3919 22.912-3.8109 8.3704-14.622 12.392-23.021 8.7351-8.6018-3.3939-13.236-13.932-10.232-22.617 2.6921-8.7278 12.496-14.181 21.356-12.323 8.7143 1.5195 15.279 9.9382 15.168 18.692 0.21089 8.5145-6.1061 16.451-14.314 18.497-8.122 2.3809-17.486-1.3179-21.74-8.6461-4.7523-7.5184-3.7152-18.174 2.7076-24.417 6.7375-7.0073 18.641-8.1551 26.444-2.2552 8.3854 5.9128 11.091 18.376 5.7724 27.183-5.1097 9.1246-17.471 13.059-26.935 8.6403-9.6497-4.137-14.841-15.968-11.681-25.919 2.773-9.7704 13.122-16.343 23.126-15.255 9.5629 0.72554 17.78 8.5518 19.442 17.919 1.9654 9.1159-2.5919 19.099-10.762 23.593-8.4001 5.0074-19.988 3.8776-27.028-3.004-8.0094-7.3602-9.754-20.545-3.6192-29.599 6.1331-9.683 19.755-13.491 30.012-8.3642 10.426 4.82 15.918 17.76 12.456 28.655-3.045 10.669-14.206 17.938-25.163 17.013-10.221-0.54244-19.312-8.3705-21.788-18.233-2.8025-9.7221 1.1311-20.904 9.5036-26.624 8.9031-6.5096 22.099-6.3475 30.604 0.789 9.4344 7.4613 12.381 21.852 6.4198 32.345-5.8354 11.01-20.151 16.303-31.784 11.932-10.711-3.7117-17.931-15.023-17.261-26.277 0.32698-10.406 7.5699-20.031 17.356-23.48 9.6577-3.7716 21.383-1.3033 28.559 6.212 8.2292 8.2284 10.38 21.874 4.7639 32.125-5.4946 10.619-18.378 16.514-30.03 14.1-10.389-1.9096-18.983-10.409-21.459-20.612-2.7174-10.041 0.72816-21.441 8.7052-28.16 8.8671-7.8282 22.708-9.4281 32.98-3.4424 10.935 6.0377 16.776 19.641 13.946 31.757-2.2738 10.804-11.377 19.557-22.096 21.895-6.458 1.5095-13.42 0.80619-19.393-2.1031" opacity=".1" stroke="url(#radialGradient5008)"/>
   </g>
   <g id="g4027" transform="matrix(1.0628 -.13088 -.7401 3.2275 32.525 -100.67)" opacity=".9">
    <path id="path4029" transform="matrix(.99411 -.10837 .10837 .99411 -5.1582 5.4919)" d="m108.9 48a60.896 60.896 0 0 1-6.5462 27.467l-54.35-27.467z" color="#000000" fill="url(#linearGradient4145-0)" opacity=".2"/>
    <path id="path4031" transform="matrix(.99786 -.065374 .065374 .99786 -3.094 3.2416)" d="m108.9 48a60.896 60.896 0 0 1-4.4572 22.869l-56.439-22.869z" color="#000000" fill="url(#linearGradient4137-7)" opacity=".4"/>
    <path id="path4033" transform="matrix(.99945 -.033121 .033121 .99945 -1.5635 1.6161)" d="m108.9 48a60.896 60.896 0 0 1-3.1299 19.272l-57.766-19.272z" color="#000000" fill="url(#linearGradient4129-8)" opacity=".6"/>
    <path id="path4035" d="m108.9 48a60.896 60.896 0 0 1-2.075 15.761l-58.821-15.761z" color="#000000" fill="url(#linearGradient4121-6)" opacity=".8"/>
   </g>
   <g id="g4079" transform="matrix(-.61679 .78713 -.78713 -.61679 115 40.012)" opacity=".5">
    <path id="path4081" transform="matrix(.99411 -.10837 .10837 .99411 -5.1582 5.4919)" d="m108.9 48a60.896 60.896 0 0 1-6.5462 27.467l-54.35-27.467z" color="#000000" fill="url(#linearGradient4077-0)" opacity=".05"/>
    <path id="path4083" transform="matrix(.99786 -.065374 .065374 .99786 -3.094 3.2416)" d="m108.9 48a60.896 60.896 0 0 1-4.4572 22.869l-56.439-22.869z" color="#000000" fill="url(#linearGradient4069-9)" opacity=".07"/>
    <path id="path4085" transform="matrix(.99945 -.033121 .033121 .99945 -1.5635 1.6161)" d="m108.9 48a60.896 60.896 0 0 1-3.1299 19.272l-57.766-19.272z" color="#000000" fill="url(#linearGradient4061-6)" opacity=".1"/>
    <path id="path4087" d="m108.9 48a60.896 60.896 0 0 1-2.075 15.761l-58.821-15.761z" color="#000000" fill="url(#linearGradient4053-2)" opacity=".1"/>
   </g>
   <g id="g4097" transform="matrix(-.068172 -1.046 2.7107 .60163 -79.095 69.08)" opacity=".8">
    <path id="path4099" transform="matrix(.99411 -.10837 .10837 .99411 -5.1582 5.4919)" d="m108.9 48a60.896 60.896 0 0 1-6.5462 27.467l-54.35-27.467z" color="#000000" fill="url(#linearGradient4077-0)" opacity=".05"/>
    <path id="path4101" transform="matrix(.99786 -.065374 .065374 .99786 -3.094 3.2416)" d="m108.9 48a60.896 60.896 0 0 1-4.4572 22.869l-56.439-22.869z" color="#000000" fill="url(#linearGradient4069-9)" opacity=".07"/>
    <path id="path4103" transform="matrix(.99945 -.033121 .033121 .99945 -1.5635 1.6161)" d="m108.9 48a60.896 60.896 0 0 1-3.1299 19.272l-57.766-19.272z" color="#000000" fill="url(#linearGradient4061-6)" opacity=".1"/>
    <path id="path4105" d="m108.9 48a60.896 60.896 0 0 1-2.075 15.761l-58.821-15.761z" color="#000000" fill="url(#linearGradient4053-2)" opacity=".1"/>
   </g>
   <g id="g4147" transform="matrix(-1.0628 .13088 .7401 -3.2275 62.997 196.67)" opacity=".9">
    <path id="path4149" transform="matrix(.99411 -.10837 .10837 .99411 -5.1582 5.4919)" d="m108.9 48a60.896 60.896 0 0 1-6.5462 27.467l-54.35-27.467z" color="#000000" fill="url(#linearGradient4145-0)" opacity=".2"/>
    <path id="path4151" transform="matrix(.99786 -.065374 .065374 .99786 -3.094 3.2416)" d="m108.9 48a60.896 60.896 0 0 1-4.4572 22.869l-56.439-22.869z" color="#000000" fill="url(#linearGradient4137-7)" opacity=".4"/>
    <path id="path4153" transform="matrix(.99945 -.033121 .033121 .99945 -1.5635 1.6161)" d="m108.9 48a60.896 60.896 0 0 1-3.1299 19.272l-57.766-19.272z" color="#000000" fill="url(#linearGradient4129-8)" opacity=".6"/>
    <path id="path4155" d="m108.9 48a60.896 60.896 0 0 1-2.075 15.761l-58.821-15.761z" color="#000000" fill="url(#linearGradient4121-6)" opacity=".8"/>
   </g>
  </g>
 </g>
 <g id="layer6">
  <path id="path3615" d="m12 90c-3.324 0-6-2.676-6-6v-2-68-2c0-0.33472 0.04135-0.6507 0.09375-0.96875 0.0487-0.2956 0.09704-0.59692 0.1875-0.875 0.00988-0.03038 0.020892-0.0636 0.03125-0.09375 0.098865-0.28777 0.23488-0.54745 0.375-0.8125 0.14459-0.27351 0.31562-0.53562 0.5-0.78125s0.37378-0.47347 0.59375-0.6875c0.43995-0.42806 0.94291-0.81453 1.5-1.0938 0.27854-0.13961 0.57347-0.24695 0.875-0.34375-0.2562 0.10022-0.48671 0.23627-0.71875 0.375-0.00741 0.0044-0.023866-0.0045-0.03125 0-0.031933 0.0193-0.062293 0.04251-0.09375 0.0625-0.1204 0.0767-0.23102 0.16351-0.34375 0.25-0.10617 0.0808-0.21328 0.16111-0.3125 0.25-0.17793 0.16143-0.34746 0.34539-0.5 0.53125-0.10758 0.13026-0.21839 0.26528-0.3125 0.40625-0.025089 0.03838-0.038446 0.08587-0.0625 0.125-0.064763 0.10303-0.13023 0.20452-0.1875 0.3125-0.10101 0.19471-0.20567 0.4157-0.28125 0.625-0.00796 0.02181-0.023589 0.04055-0.03125 0.0625-0.031825 0.09195-0.035804 0.18683-0.0625 0.28125-0.030332 0.10662-0.070389 0.20303-0.09375 0.3125-0.072879 0.34151-0.125 0.6982-0.125 1.0625v2 68 2c0 2.7818 2.2182 5 5 5h2 68 2c2.7818 0 5-2.2182 5-5v-2-68-2c0-0.3643-0.05212-0.72099-0.125-1.0625-0.04415-0.20689-0.08838-0.39766-0.15625-0.59375-0.0077-0.02195-0.0233-0.04069-0.03125-0.0625-0.06274-0.17374-0.13838-0.36745-0.21875-0.53125-0.04158-0.0828-0.07904-0.16995-0.125-0.25-0.0546-0.09721-0.12677-0.18835-0.1875-0.28125-0.09411-0.14096-0.20492-0.276-0.3125-0.40625-0.14317-0.17445-0.30314-0.347-0.46875-0.5-0.01117-0.0102-0.01998-0.02115-0.03125-0.03125-0.13839-0.12556-0.28509-0.23444-0.4375-0.34375-0.10257-0.07315-0.20432-0.15336-0.3125-0.21875-0.0074-0.0045-0.02384 0.0044-0.03125 0-0.23204-0.13873-0.46255-0.27478-0.71875-0.375 0.30153 0.0968 0.59646 0.20414 0.875 0.34375 0.55709 0.27922 1.0601 0.66569 1.5 1.0938 0.21997 0.21403 0.40937 0.44186 0.59375 0.6875s0.35541 0.50774 0.5 0.78125c0.14012 0.26505 0.27614 0.52473 0.375 0.8125 0.01041 0.03078 0.02133 0.06274 0.03125 0.09375 0.09046 0.27808 0.1388 0.5794 0.1875 0.875 0.0524 0.31805 0.09375 0.63403 0.09375 0.96875v2 68 2c0 3.324-2.676 6-6 6h-72z" display="none" fill="url(#radialGradient3619)" opacity=".25"/>
  <path id="rect3728" d="m12 6c-3.324 0-6 2.676-6 6v2 68 2c0 0.33472 0.04135 0.6507 0.09375 0.96875 0.0487 0.2956 0.09704 0.59692 0.1875 0.875 0.0099 0.03038 0.02089 0.0636 0.03125 0.09375 0.09886 0.28777 0.23488 0.54745 0.375 0.8125 0.14459 0.27351 0.31562 0.53562 0.5 0.78125s0.37378 0.47347 0.59375 0.6875c0.43995 0.42806 0.94291 0.81453 1.5 1.0938 0.27854 0.13961 0.57347 0.24695 0.875 0.34375-0.2562-0.10022-0.48671-0.23627-0.71875-0.375-0.0074-0.0044-0.02387 0.0045-0.03125 0-0.03193-0.0193-0.06229-0.04251-0.09375-0.0625-0.1204-0.0767-0.23102-0.16351-0.34375-0.25-0.10617-0.0808-0.21328-0.16111-0.3125-0.25-0.17793-0.16143-0.34746-0.34539-0.5-0.53125-0.10758-0.13026-0.21839-0.26528-0.3125-0.40625-0.02509-0.03838-0.03845-0.08587-0.0625-0.125-0.06476-0.10303-0.13023-0.20452-0.1875-0.3125-0.10101-0.19471-0.20568-0.4157-0.28125-0.625-8e-3 -0.02181-0.02359-0.04055-0.03125-0.0625-0.03183-0.09195-0.0358-0.18683-0.0625-0.28125-0.030332-0.10662-0.070389-0.20303-0.09375-0.3125-0.072879-0.34151-0.125-0.6982-0.125-1.0625v-2-68-2c0-2.7818 2.2182-5 5-5h2 68 2c2.7818 0 5 2.2182 5 5v2 68 2c0 0.3643-0.0521 0.72099-0.125 1.0625-0.0442 0.20689-0.0884 0.39766-0.15625 0.59375-8e-3 0.02195-0.0233 0.04069-0.0312 0.0625-0.0627 0.17374-0.13838 0.36745-0.21875 0.53125-0.0416 0.0828-0.079 0.16995-0.125 0.25-0.0546 0.09721-0.12677 0.18835-0.1875 0.28125-0.0941 0.14096-0.20492 0.276-0.3125 0.40625-0.14317 0.17445-0.30314 0.347-0.46875 0.5-0.0112 0.0102-0.02 0.02115-0.0312 0.03125-0.13839 0.12556-0.28509 0.23444-0.4375 0.34375-0.10257 0.07315-0.20432 0.15336-0.3125 0.21875-7e-3 0.0045-0.0238-0.0044-0.0312 0-0.23204 0.13873-0.46255 0.27478-0.71875 0.375 0.30153-0.0968 0.59646-0.20414 0.875-0.34375 0.55709-0.27922 1.06-0.66569 1.5-1.0938 0.21997-0.21403 0.40937-0.44186 0.59375-0.6875s0.35541-0.50774 0.5-0.78125c0.14012-0.26505 0.27613-0.52473 0.375-0.8125 0.0104-0.03078 0.0213-0.06274 0.0312-0.09375 0.0905-0.27808 0.1388-0.5794 0.1875-0.875 0.0523-0.31805 0.09365-0.63403 0.09365-0.96875v-2-68-2c0-3.324-2.676-6-6-6h-72z" display="none" fill="url(#linearGradient3188)" opacity=".5"/>
  <path id="rect3728-1" d="m12 6c-3.324 0-6 2.676-6 6v2 68 2c0 0.33472 0.04135 0.6507 0.09375 0.96875 0.0487 0.2956 0.09704 0.59692 0.1875 0.875 0.00988 0.03038 0.020892 0.0636 0.03125 0.09375 0.098865 0.28777 0.23488 0.54745 0.375 0.8125 0.14459 0.27351 0.31562 0.53562 0.5 0.78125s0.37378 0.47347 0.59375 0.6875c0.43995 0.42806 0.94291 0.81453 1.5 1.0938 0.27854 0.13961 0.57347 0.24695 0.875 0.34375-0.2562-0.10022-0.48671-0.23627-0.71875-0.375-0.00741-0.0044-0.023866 0.0045-0.03125 0-0.031933-0.0193-0.062293-0.04251-0.09375-0.0625-0.1204-0.0767-0.23102-0.16351-0.34375-0.25-0.10617-0.0808-0.21328-0.16111-0.3125-0.25-0.17793-0.16143-0.34746-0.34539-0.5-0.53125-0.10758-0.13026-0.21839-0.26528-0.3125-0.40625-0.025089-0.03838-0.038446-0.08587-0.0625-0.125-0.064763-0.10303-0.13023-0.20452-0.1875-0.3125-0.10101-0.19471-0.20567-0.4157-0.28125-0.625-0.00796-0.02181-0.023589-0.04055-0.03125-0.0625-0.031825-0.09195-0.035804-0.18683-0.0625-0.28125-0.030332-0.10662-0.070389-0.20303-0.09375-0.3125-0.072879-0.34151-0.125-0.6982-0.125-1.0625v-2-68-2c0-2.7818 2.2182-5 5-5h2 68 2c2.7818 0 5 2.2182 5 5v2 68 2c0 0.3643-0.05212 0.72099-0.125 1.0625-0.04415 0.20689-0.08838 0.39766-0.15625 0.59375-0.0077 0.02195-0.0233 0.04069-0.03125 0.0625-0.06274 0.17374-0.13838 0.36745-0.21875 0.53125-0.04158 0.0828-0.07904 0.16995-0.125 0.25-0.0546 0.09721-0.12677 0.18835-0.1875 0.28125-0.09411 0.14096-0.20492 0.276-0.3125 0.40625-0.14317 0.17445-0.30314 0.347-0.46875 0.5-0.01117 0.0102-0.01998 0.02115-0.03125 0.03125-0.13839 0.12556-0.28509 0.23444-0.4375 0.34375-0.10257 0.07315-0.20432 0.15336-0.3125 0.21875-0.0074 0.0045-0.02384-0.0044-0.03125 0-0.23204 0.13873-0.46255 0.27478-0.71875 0.375 0.30153-0.0968 0.59646-0.20414 0.875-0.34375 0.55709-0.27922 1.0601-0.66569 1.5-1.0938 0.21997-0.21403 0.40937-0.44186 0.59375-0.6875s0.35541-0.50774 0.5-0.78125c0.14012-0.26505 0.27614-0.52473 0.375-0.8125 0.01041-0.03078 0.02133-0.06274 0.03125-0.09375 0.09046-0.27808 0.1388-0.5794 0.1875-0.875 0.0524-0.31805 0.09375-0.63403 0.09375-0.96875v-2-68-2c0-3.324-2.676-6-6-6h-72z" fill="url(#linearGradient3188)" opacity=".5"/>
  <path id="path3615-9" d="m12 90c-3.324 0-6-2.676-6-6v-2-68-2c0-0.33472 0.04135-0.6507 0.09375-0.96875 0.0487-0.2956 0.09704-0.59692 0.1875-0.875 0.00988-0.03038 0.020892-0.0636 0.03125-0.09375 0.098865-0.28777 0.23488-0.54745 0.375-0.8125 0.14459-0.27351 0.31562-0.53562 0.5-0.78125s0.37378-0.47347 0.59375-0.6875c0.43995-0.42806 0.94291-0.81453 1.5-1.0938 0.27854-0.13961 0.57347-0.24695 0.875-0.34375-0.2562 0.10022-0.48671 0.23627-0.71875 0.375-0.00741 0.0044-0.023866-0.0045-0.03125 0-0.031933 0.0193-0.062293 0.04251-0.09375 0.0625-0.1204 0.0767-0.23102 0.16351-0.34375 0.25-0.10617 0.0808-0.21328 0.16111-0.3125 0.25-0.17793 0.16143-0.34746 0.34539-0.5 0.53125-0.10758 0.13026-0.21839 0.26528-0.3125 0.40625-0.025089 0.03838-0.038446 0.08587-0.0625 0.125-0.064763 0.10303-0.13023 0.20452-0.1875 0.3125-0.10101 0.19471-0.20567 0.4157-0.28125 0.625-0.00796 0.02181-0.023589 0.04055-0.03125 0.0625-0.031825 0.09195-0.035804 0.18683-0.0625 0.28125-0.030332 0.10662-0.070389 0.20303-0.09375 0.3125-0.072879 0.34151-0.125 0.6982-0.125 1.0625v2 68 2c0 2.7818 2.2182 5 5 5h2 68 2c2.7818 0 5-2.2182 5-5v-2-68-2c0-0.3643-0.05212-0.72099-0.125-1.0625-0.04415-0.20689-0.08838-0.39766-0.15625-0.59375-0.0077-0.02195-0.0233-0.04069-0.03125-0.0625-0.06274-0.17374-0.13838-0.36745-0.21875-0.53125-0.04158-0.0828-0.07904-0.16995-0.125-0.25-0.0546-0.09721-0.12677-0.18835-0.1875-0.28125-0.09411-0.14096-0.20492-0.276-0.3125-0.40625-0.14317-0.17445-0.30314-0.347-0.46875-0.5-0.01117-0.0102-0.01998-0.02115-0.03125-0.03125-0.13839-0.12556-0.28509-0.23444-0.4375-0.34375-0.10257-0.07315-0.20432-0.15336-0.3125-0.21875-0.0074-0.0045-0.02384 0.0044-0.03125 0-0.23204-0.13873-0.46255-0.27478-0.71875-0.375 0.30153 0.0968 0.59646 0.20414 0.875 0.34375 0.55709 0.27922 1.0601 0.66569 1.5 1.0938 0.21997 0.21403 0.40937 0.44186 0.59375 0.6875s0.35541 0.50774 0.5 0.78125c0.14012 0.26505 0.27614 0.52473 0.375 0.8125 0.01041 0.03078 0.02133 0.06274 0.03125 0.09375 0.09046 0.27808 0.1388 0.5794 0.1875 0.875 0.0524 0.31805 0.09375 0.63403 0.09375 0.96875v2 68 2c0 3.324-2.676 6-6 6h-72z" fill="url(#radialGradient3619-8)" opacity=".2"/>
 </g>
 <g id="layer4">
  <path id="rect3156" d="m-60 28c-1.108 0-2 0.892-2 2v36c0 1.108 0.892 2 2 2h12c1.108 0 2-0.892 2-2v-36c0-1.108-0.892-2-2-2h-12zm24 0c-1.108 0-2 0.892-2 2v36c0 1.108 0.892 2 2 2h12c1.108 0 2-0.892 2-2v-36c0-1.108-0.892-2-2-2h-12z" color="#000000" fill="url(#linearGradient3935)"/>
  <path id="path3950" d="m-60 28c-1.108 0-2 0.892-2 2v36c0 1.108 0.892 2 2 2h12c1.108 0 2-0.892 2-2v-36c0-1.108-0.892-2-2-2h-12zm24 0c-1.108 0-2 0.892-2 2v36c0 1.108 0.892 2 2 2h12c1.108 0 2-0.892 2-2v-36c0-1.108-0.892-2-2-2h-12zm-24.062 1.9375c0.0066-0.0066 0.02636 0 0.0625 0h12c0.07229 0 0.0625-0.0098 0.0625 0.0625v36c0 0.07228 0.0098 0.0625-0.0625 0.0625h-12c-0.07229 0-0.0625 0.0098-0.0625-0.0625v-36c0-0.03614-0.0066-0.05591 0-0.0625zm24 0c0.0066-0.0066 0.02636 0 0.0625 0h12c0.07229 0 0.0625-0.0098 0.0625 0.0625v36c0 0.07228 0.0098 0.0625-0.0625 0.0625h-12c-0.07229 0-0.0625 0.0098-0.0625-0.0625v-36c0-0.03614-0.0066-0.05591 0-0.0625z" color="#000000" opacity=".1"/>
  <path id="path3946" d="m-60 28c-1.108 0-2 0.892-2 2v36c0 1.108 0.892 2 2 2h12c1.108 0 2-0.892 2-2v-36c0-1.108-0.892-2-2-2h-12zm24 0c-1.108 0-2 0.892-2 2v36c0 1.108 0.892 2 2 2h12c1.108 0 2-0.892 2-2v-36c0-1.108-0.892-2-2-2h-12zm-24 1.0625h12c0.54611 0 0.9375 0.39139 0.9375 0.9375v36c0 0.54611-0.39139 0.9375-0.9375 0.9375h-12c-0.54611 0-0.9375-0.39139-0.9375-0.9375v-36c0-0.54611 0.39139-0.9375 0.9375-0.9375zm24 0h12c0.54611 0 0.9375 0.39139 0.9375 0.9375v36c0 0.54611-0.39139 0.9375-0.9375 0.9375h-12c-0.54611 0-0.9375-0.39139-0.9375-0.9375v-36c0-0.54611 0.39139-0.9375 0.9375-0.9375z" color="#000000" opacity=".2"/>
  <path id="path3937" d="m-60 28c-1.108 0-2 0.892-2 2v1c0-1.108 0.892-2 2-2h12c1.108 0 2 0.892 2 2v-1c0-1.108-0.892-2-2-2h-12zm24 0c-1.108 0-2 0.892-2 2v1c0-1.108 0.892-2 2-2h12c1.108 0 2 0.892 2 2v-1c0-1.108-0.892-2-2-2h-12z" color="#000000" opacity=".6"/>
  <path id="path3960" d="m-62 66v1c0 1.108 0.892 2 2 2h12c1.108 0 2-0.892 2-2v-1c0 1.108-0.892 2-2 2h-12c-1.108 0-2-0.892-2-2zm24 0v1c0 1.108 0.892 2 2 2h12c1.108 0 2-0.892 2-2v-1c0 1.108-0.892 2-2 2h-12c-1.108 0-2-0.892-2-2z" color="#000000" fill="#fff" opacity=".6"/>
  <path id="path4034" d="m61 30v6h-6.0938c-3.6807 0-6.7697 1.6213-9 3.6562-1.4595 1.3316-2.5899 2.822-3.6562 4.3125l-4.2188 5.9062c-0.62444 0.77441-1.2356 1.4974-1.875 2.0625-1.5097 1.3344-2.9638 2.0625-5.25 2.0625h-8.9062v6h8.9062c3.7695 0 6.8862-1.5284 9.1875-3.5625 0.62936-0.55627 1.1531-1.1716 1.6875-1.7812 1.3212-1.7394 2.6262-3.5001 3.9375-5.25 1.4445-2.1364 2.8207-4.0682 4.2188-5.3438 1.4615-1.3335 2.8322-2.0625 4.9688-2.0625h6.0938v6l15-9-15-9zm-39 8v6h8.9062c2.2862 0 3.7403 0.72813 5.25 2.0625 0.2451 0.21664 0.47961 0.46172 0.71875 0.71875l3.1562-4.4062c0.11968-0.16729 0.25139-0.33032 0.375-0.5-0.10631-0.10273-0.20011-0.21317-0.3125-0.3125-2.3013-2.0341-5.418-3.5625-9.1875-3.5625h-8.9062zm39 12v6h-6.0938c-2.1366 0-3.5073-0.72903-4.9688-2.0625-0.76011-0.69355-1.5196-1.5848-2.2812-2.5938-1.2205 1.6295-2.443 3.2987-3.6875 4.9375 0.59054 0.71345 1.2191 1.407 1.9375 2.0625 2.2303 2.035 5.3193 3.6562 9 3.6562h6.0938v6l15-9-15-9z" fill="url(#linearGradient4057)"/>
  <path id="path4059" d="m75.156 39.5-14.156 8.5v1l15-9-0.84375-0.5zm-20.25 2.5c-2.1366 0-3.5073 0.72903-4.9688 2.0625-1.398 1.2756-2.7742 3.2074-4.2188 5.3438-1.3113 1.7499-2.6163 3.5106-3.9375 5.25-0.53436 0.6096-1.0581 1.225-1.6875 1.7812-2.3013 2.0341-5.418 3.5625-9.1875 3.5625h-8.9062v1h8.9062c3.7695 0 6.8862-1.5284 9.1875-3.5625 0.62936-0.55627 1.1531-1.1716 1.6875-1.7812 1.3212-1.7394 2.6262-3.5001 3.9375-5.25 1.4445-2.1364 2.8207-4.0682 4.2188-5.3438 1.4615-1.3335 2.8322-2.0625 4.9688-2.0625h6.0938v-1h-6.0938zm-14.938 0.46875-3.0938 4.3125c-0.23914-0.25702-0.47365-0.50211-0.71875-0.71875-1.5097-1.3344-2.9638-2.0625-5.25-2.0625h-8.9062v1h8.9062c2.2862 0 3.7403 0.72813 5.25 2.0625 0.2451 0.21664 0.47961 0.46172 0.71875 0.71875l3.1562-4.4062c0.11968-0.16729 0.25139-0.33032 0.375-0.5-0.10631-0.10273-0.20011-0.21317-0.3125-0.3125-0.03817-0.03373-0.08639-0.0603-0.125-0.09375zm4.4062 14.281c-0.13456 0.17846-0.2712 0.35341-0.40625 0.53125 0.59054 0.71345 1.2191 1.407 1.9375 2.0625 2.2303 2.035 5.3193 3.6562 9 3.6562h6.0938v-1h-6.0938c-3.6807 0-6.7697-1.6213-9-3.6562-0.55883-0.50989-1.0567-1.0463-1.5312-1.5938zm30.781 2.75-14.156 8.5v1l15-9-0.84375-0.5z" fill="#fff" opacity=".6"/>
  <path id="path4082" d="m61 30v6h-6.0938c-3.6807 0-6.7697 1.6213-9 3.6562-1.4595 1.3316-2.5899 2.822-3.6562 4.3125l-4.2188 5.9062c-0.62444 0.77441-1.2356 1.4974-1.875 2.0625-1.5097 1.3344-2.9638 2.0625-5.25 2.0625h-8.9062v6h8.9062c3.7695 0 6.8862-1.5284 9.1875-3.5625 0.62936-0.55627 1.1531-1.1716 1.6875-1.7812 1.3212-1.7394 2.6262-3.5001 3.9375-5.25 1.4445-2.1364 2.8207-4.0682 4.2188-5.3438 1.4615-1.3335 2.8322-2.0625 4.9688-2.0625h6.0938v6l15-9-15-9zm1.625 2.8438 10.25 6.1562-10.25 6.1562v-3.1562a1.6218 1.6218 0 0 0-1.625-1.625h-6.0938c-2.5054 0-4.4455 1.0246-6.0625 2.5-1.594 1.4544-2.9937 3.4285-4.4375 5.5625-0.01336 0.01975-0.01788 0.04272-0.03125 0.0625-1.2781 1.7059-2.5358 3.4114-3.8125 5.0938-0.02258 0.02975-0.03991 0.06401-0.0625 0.09375-0.51155 0.58411-0.97536 1.0952-1.4688 1.5312-2.059 1.8199-4.7938 3.1562-8.125 3.1562h-7.2812v-2.75h7.2812c2.6306 0 4.635-0.98606 6.3125-2.4688 0.76939-0.68004 1.4231-1.457 2.0625-2.25a1.6218 1.6218 0 0 0 0.0625-0.09375l4.2188-5.9062c1.0484-1.4654 2.115-2.8559 3.4375-4.0625 1.9963-1.8215 4.7018-3.2188 7.9062-3.2188h6.0938a1.6218 1.6218 0 0 0 1.625-1.625v-3.1562zm-40.625 5.1562v6h8.9062c2.2862 0 3.7403 0.72813 5.25 2.0625 0.2451 0.21664 0.47961 0.46172 0.71875 0.71875l3.1562-4.4062c0.11968-0.16729 0.25139-0.33032 0.375-0.5-0.10631-0.10273-0.20011-0.21317-0.3125-0.3125-2.3013-2.0341-5.418-3.5625-9.1875-3.5625h-8.9062zm1.625 1.625h7.2812c2.9226 0 5.3013 1.1125 7.25 2.5938l-1.5938 2.2188c-1.5547-1.2011-3.333-2.0625-5.6562-2.0625h-7.2812v-2.75zm37.375 10.375v6h-6.0938c-2.1366 0-3.5073-0.72903-4.9688-2.0625-0.76011-0.69355-1.5196-1.5848-2.2812-2.5938-1.2205 1.6295-2.443 3.2987-3.6875 4.9375 0.59054 0.71345 1.2191 1.407 1.9375 2.0625 2.2303 2.035 5.3193 3.6562 9 3.6562h6.0938v6l15-9-15-9zm1.625 2.8438 10.25 6.1562-10.25 6.1562v-3.1562a1.6218 1.6218 0 0 0-1.625-1.625h-6.0938c-3.2045 0-5.9099-1.3973-7.9062-3.2188-0.33916-0.30946-0.62894-0.66621-0.9375-1 0.56939-0.75966 1.1587-1.4959 1.7188-2.25 0.35811 0.4001 0.68496 0.87427 1.0625 1.2188 1.617 1.4754 3.5571 2.5 6.0625 2.5h6.0938a1.6218 1.6218 0 0 0 1.625-1.625v-3.1562z" opacity=".1"/>
  <path id="path4077" d="m61 30v6h-6.0938c-3.6807 0-6.7697 1.6213-9 3.6562-1.4595 1.3316-2.5899 2.822-3.6562 4.3125l-4.2188 5.9062c-0.62444 0.77441-1.2356 1.4974-1.875 2.0625-1.5097 1.3344-2.9638 2.0625-5.25 2.0625h-8.9062v6h8.9062c3.7695 0 6.8862-1.5284 9.1875-3.5625 0.62936-0.55627 1.1531-1.1716 1.6875-1.7812 1.3212-1.7394 2.6262-3.5001 3.9375-5.25 1.4445-2.1364 2.8207-4.0682 4.2188-5.3438 1.4615-1.3335 2.8322-2.0625 4.9688-2.0625h6.0938v6l15-9-15-9zm0.875 1.5312 12.438 7.4688-12.438 7.4688v-4.4688a0.86497 0.86497 0 0 0-0.875-0.875h-6.0938c-2.3333 0-4.0181 0.90333-5.5625 2.3125-1.5016 1.3701-2.8699 3.305-4.3125 5.4375-0.0085 0.01257-0.02275 0.01867-0.03125 0.03125-1.2955 1.729-2.5756 3.4763-3.875 5.1875-0.0088 0.01156-0.02247 0.01969-0.03125 0.03125-0.52813 0.60293-1.0027 1.1615-1.5625 1.6562-2.1721 1.9198-5.0893 3.3438-8.625 3.3438h-8.0312v-4.25h8.0312c2.4699 0 4.2133-0.86778 5.8125-2.2812 0.70873-0.62642 1.3676-1.4032 2-2.1875a0.86497 0.86497 0 0 0 0.03125-0.03125l4.2188-5.9062c1.0567-1.4772 2.1449-2.9225 3.5312-4.1875 2.1055-1.9211 4.9796-3.4062 8.4062-3.4062h6.0938a0.86497 0.86497 0 0 0 0.875-0.875v-4.4688zm-39.875 6.4688v6h8.9062c2.2862 0 3.7403 0.72813 5.25 2.0625 0.2451 0.21664 0.47961 0.46172 0.71875 0.71875l3.1562-4.4062c0.11968-0.16729 0.25139-0.33032 0.375-0.5-0.10631-0.10273-0.20011-0.21317-0.3125-0.3125-2.3013-2.0341-5.418-3.5625-9.1875-3.5625h-8.9062zm0.875 0.875h8.0312c3.3929 0 6.1714 1.3538 8.3125 3.1562l-2.4375 3.4375c-0.02222-0.02017-0.0399-0.04252-0.0625-0.0625-1.5992-1.4135-3.3426-2.2812-5.8125-2.2812h-8.0312v-4.25zm38.125 11.125v6h-6.0938c-2.1366 0-3.5073-0.72903-4.9688-2.0625-0.76011-0.69355-1.5196-1.5848-2.2812-2.5938-1.2205 1.6295-2.443 3.2987-3.6875 4.9375 0.59054 0.71345 1.2191 1.407 1.9375 2.0625 2.2303 2.035 5.3193 3.6562 9 3.6562h6.0938v6l15-9-15-9zm0.875 1.5312 12.438 7.4688-12.438 7.4688v-4.4688a0.86497 0.86497 0 0 0-0.875-0.875h-6.0938c-3.4267 0-6.3008-1.4851-8.4062-3.4062-0.50965-0.46501-0.96332-0.99233-1.4062-1.5 0.88345-1.1725 1.7591-2.337 2.625-3.5 0.53958 0.65804 1.0626 1.3306 1.625 1.8438 1.5444 1.4092 3.2292 2.3125 5.5625 2.3125h6.0938a0.86497 0.86497 0 0 0 0.875-0.875v-4.4688z" opacity=".2"/>
  <path id="path4068" d="m61 30v1l14.156 8.5 0.84375-0.5-15-9zm-6.0938 6c-3.6807 0-6.7697 1.6213-9 3.6562-1.4595 1.3316-2.5899 2.822-3.6562 4.3125l-4.2188 5.9062c-0.62444 0.77441-1.2356 1.4974-1.875 2.0625-1.5097 1.3344-2.9638 2.0625-5.25 2.0625h-8.9062v1h8.9062c2.2862 0 3.7403-0.72813 5.25-2.0625 0.6394-0.56515 1.2506-1.2881 1.875-2.0625l4.2188-5.9062c1.0663-1.4906 2.1968-2.9809 3.6562-4.3125 2.2303-2.035 5.3193-3.6562 9-3.6562h6.0938v-1h-6.0938zm-32.906 2v1h8.9062c3.707 0 6.7728 1.4852 9.0625 3.4688l0.0625-0.09375c0.11968-0.16729 0.25139-0.33032 0.375-0.5-0.10631-0.10273-0.20011-0.21317-0.3125-0.3125-2.3013-2.0341-5.418-3.5625-9.1875-3.5625h-8.9062zm39 12v1l14.156 8.5 0.84375-0.5-15-9zm-13.344 1.3438c-1.2205 1.6295-2.443 3.2987-3.6875 4.9375 0.13115 0.15844 0.27078 0.31246 0.40625 0.46875 1.1054-1.4661 2.1932-2.9536 3.2812-4.4062 0.7617 1.0089 1.5211 1.9002 2.2812 2.5938 1.4615 1.3335 2.8322 2.0625 4.9688 2.0625h6.0938v-1h-6.0938c-2.1366 0-3.5073-0.72903-4.9688-2.0625-0.76011-0.69355-1.5196-1.5848-2.2812-2.5938z" opacity=".6"/>
 </g>
</svg>
