<?xml version="1.0" encoding="UTF-8"?>
<svg id="svg2408" width="96" height="96" version="1.0" xmlns="http://www.w3.org/2000/svg" xmlns:cc="http://creativecommons.org/ns#" xmlns:dc="http://purl.org/dc/elements/1.1/" xmlns:rdf="http://www.w3.org/1999/02/22-rdf-syntax-ns#" xmlns:xlink="http://www.w3.org/1999/xlink">
 <defs id="defs2410">
  <linearGradient id="linearGradient3637">
   <stop id="stop3639" stop-color="#f0f0f0" offset="0"/>
   <stop id="stop3641" stop-color="#aaa" offset="1"/>
  </linearGradient>
  <linearGradient id="ButtonShadow" x1="45.448" x2="45.448" y1="92.54" y2="7.0165" gradientTransform="scale(1.0059 .99417)" gradientUnits="userSpaceOnUse">
   <stop id="stop3750" offset="0"/>
   <stop id="stop3752" stop-opacity=".58824" offset="1"/>
  </linearGradient>
  <linearGradient id="linearGradient3737">
   <stop id="stop3739" stop-color="#fff" offset="0"/>
   <stop id="stop3741" stop-color="#fff" stop-opacity="0" offset="1"/>
  </linearGradient>
  <filter id="filter3174" color-interpolation-filters="sRGB">
   <feGaussianBlur id="feGaussianBlur3176" stdDeviation="1.71"/>
  </filter>
  <linearGradient id="linearGradient3188" x1="36.357" x2="36.357" y1="6" y2="63.893" gradientUnits="userSpaceOnUse" xlink:href="#linearGradient3737"/>
  <filter id="filter3794" x="-.192" y="-.192" width="1.384" height="1.384" color-interpolation-filters="sRGB">
   <feGaussianBlur id="feGaussianBlur3796" stdDeviation="5.28"/>
  </filter>
  <linearGradient id="linearGradient3613" x1="48" x2="48" y1="20.221" y2="138.66" gradientUnits="userSpaceOnUse" xlink:href="#linearGradient3737"/>
  <radialGradient id="radialGradient3619" cx="48" cy="90.172" r="42" gradientTransform="matrix(1.1573 0 0 .99591 -7.551 .19713)" gradientUnits="userSpaceOnUse" xlink:href="#linearGradient3737"/>
  <clipPath id="clipPath3613">
   <rect id="rect3615" x="6" y="6" width="84" height="84" rx="6" ry="6" fill="#fff"/>
  </clipPath>
  <linearGradient id="linearGradient2843" x1="48" x2="48" y1="90" y2="5.9877" gradientTransform="translate(0,100)" gradientUnits="userSpaceOnUse">
   <stop id="stop3702" stop-color="#2276c5" offset="0"/>
   <stop id="stop3704" stop-color="#68baf4" offset="1"/>
  </linearGradient>
  <clipPath id="clipPath3625">
   <path id="path3627" d="m0 0v96h96v-96h-96zm12 6h72c3.324 0 6 2.676 6 6v72c0 3.324-2.676 6-6 6h-72c-3.324 0-6-2.676-6-6v-72c0-3.324 2.676-6 6-6z" fill="#fff"/>
  </clipPath>
  <linearGradient id="linearGradient3643" x1="44.512" x2="44.512" y1="6" y2="90.015" gradientUnits="userSpaceOnUse" xlink:href="#linearGradient3637"/>
  <clipPath id="clipPath3649">
   <rect id="rect3651" x="10" y="10" width="76" height="76" rx="4" ry="4" fill="#fff"/>
  </clipPath>
  <filter id="filter3657" color-interpolation-filters="sRGB">
   <feGaussianBlur id="feGaussianBlur3659" stdDeviation="1.14"/>
  </filter>
  <linearGradient id="ButtonShadow-0" x1="45.448" x2="45.448" y1="92.54" y2="7.0165" gradientTransform="matrix(1.0059 0 0 .99417 100 0)" gradientUnits="userSpaceOnUse">
   <stop id="stop3750-8" offset="0"/>
   <stop id="stop3752-5" stop-opacity=".58824" offset="1"/>
  </linearGradient>
  <linearGradient id="linearGradient3780" x1="32.251" x2="32.251" y1="6.1317" y2="90.239" gradientTransform="matrix(1.0238 0 0 -1.0119 -1.1429 98.071)" gradientUnits="userSpaceOnUse" xlink:href="#ButtonShadow-0"/>
  <linearGradient id="linearGradient3721" x1="32.251" x2="32.251" y1="6.1317" y2="90.239" gradientTransform="matrix(1,0,0,-1,0,97)" gradientUnits="userSpaceOnUse" xlink:href="#ButtonShadow-0"/>
  <radialGradient id="radialGradient3619-3" cx="48" cy="90.172" r="42" gradientTransform="matrix(1.1573 0 0 .99591 -7.551 .19713)" gradientUnits="userSpaceOnUse" xlink:href="#linearGradient3737"/>
  <linearGradient id="linearGradient3905" x1="104" x2="120" y1="8" y2="8" gradientTransform="translate(-104,104)" gradientUnits="userSpaceOnUse" xlink:href="#linearGradient3637"/>
  <linearGradient id="linearGradient3913" x1="104" x2="120" y1="8" y2="8" gradientTransform="translate(-144,104)" gradientUnits="userSpaceOnUse">
   <stop id="stop3185-9" stop-color="#c80000" offset="0"/>
   <stop id="stop3187-6" stop-color="#f3604d" offset="1"/>
  </linearGradient>
  <linearGradient id="linearGradient3053" x1="24" x2="24" y1="44.5" y2="1.4999" gradientTransform="matrix(1.2558 0 0 -1.2558 17.861 76.884)" gradientUnits="userSpaceOnUse" xlink:href="#linearGradient3637"/>
 </defs>
 <metadata id="metadata2413">
  <rdf:RDF>
   <cc:Work rdf:about="">
    <dc:format>image/svg+xml</dc:format>
    <dc:type rdf:resource="http://purl.org/dc/dcmitype/StillImage"/>
    <dc:title/>
   </cc:Work>
  </rdf:RDF>
 </metadata>
 <g id="layer2" display="none">
  <rect id="rect3745" x="5" y="7" width="86" height="85" rx="6" ry="6" clip-path="url(#clipPath3625)" fill="url(#ButtonShadow)" filter="url(#filter3174)" opacity=".9"/>
 </g>
 <g id="layer3">
  <path id="path3786" d="m12 3.9688c-5.5111 0-10.031 4.5202-10.031 10.031v71c0 5.5111 4.5202 10.031 10.031 10.031h72c5.5111 0 10.031-4.5202 10.031-10.031v-71c0-5.5111-4.5202-10.031-10.031-10.031h-72zm0 2.0312h72c3.324 0 6 2.676 6 6v72c0 3.324-2.676 6-6 6h-72c-3.324 0-6-2.676-6-6v-72c0-3.324 2.676-6 6-6z" fill="url(#linearGradient3780)" opacity=".08"/>
  <path id="path3778" d="m12 4.9688c-4.9716 0-9.0312 4.0596-9.0312 9.0312v71c0 4.9716 4.0596 9.0312 9.0312 9.0312h72c4.9716 0 9.0312-4.0596 9.0312-9.0312v-71c0-4.9716-4.0596-9.0312-9.0312-9.0312h-72zm0 1.0312h72c3.324 0 6 2.676 6 6v72c0 3.324-2.676 6-6 6h-72c-3.324 0-6-2.676-6-6v-72c0-3.324 2.676-6 6-6z" fill="url(#linearGradient3780)" opacity=".1"/>
  <path id="path3770" d="m11.188 6.0312c-4.0275 0.41065-7.1875 3.8352-7.1875 7.9688v71c0 4.4091 3.5909 8 8 8h72c4.4091 0 8-3.5909 8-8v-71c0-4.1971-3.259-7.646-7.375-7.9688 3.0329 0.30617 5.375 2.8525 5.375 5.9688v72c0 3.324-2.676 6-6 6h-72c-3.324 0-6-2.676-6-6v-72c0-3.1162 2.3421-5.6626 5.375-5.9688-0.06227 0.00488-0.12563-0.00631-0.1875 0z" fill="url(#linearGradient3780)" opacity=".2"/>
  <path id="rect3723" d="m6.4375 9.75c-0.89949 1.1774-1.4375 2.6473-1.4375 4.25v71c0 3.878 3.122 7 7 7h72c3.878 0 7-3.122 7-7v-71c0-1.6027-0.53801-3.0726-1.4375-4.25 0.27932 0.6941 0.4375 1.4536 0.4375 2.25v72c0 3.324-2.676 6-6 6h-72c-3.324 0-6-2.676-6-6v-72c0-0.79638 0.15818-1.5559 0.4375-2.25z" fill="url(#linearGradient3780)" opacity=".3"/>
  <path id="rect3716" d="m6 84v1c0 3.324 2.676 6 6 6h72c3.324 0 6-2.676 6-6v-1c0 3.324-2.676 6-6 6h-72c-3.324 0-6-2.676-6-6z" fill="url(#linearGradient3721)" opacity=".45"/>
 </g>
 <g id="layer1" display="none">
  <rect id="rect2419" x="6" y="6" width="84" height="84" rx="6" ry="6" opacity=".8"/>
  <path id="rect3726" d="m14 10c-2.216 0-4 1.784-4 4v68c0 2.216 1.784 4 4 4h68c2.216 0 4-1.784 4-4v-68c0-2.216-1.784-4-4-4h-68zm0 3.0625h68c0.57877 0 0.9375 0.35873 0.9375 0.9375v68c0 0.57877-0.35873 0.9375-0.9375 0.9375h-68c-0.57877 0-0.9375-0.35873-0.9375-0.9375v-68c0-0.57877 0.35873-0.9375 0.9375-0.9375z" opacity=".08"/>
  <path id="rect3629" d="m12 6c-3.324 0-6 2.676-6 6v72c0 3.324 2.676 6 6 6h72c3.324 0 6-2.676 6-6v-72c0-3.324-2.676-6-6-6h-72zm2 4h68c2.216 0 4 1.784 4 4v68c0 2.216-1.784 4-4 4h-68c-2.216 0-4-1.784-4-4v-68c0-2.216 1.784-4 4-4z" fill="url(#linearGradient3643)"/>
  <path id="rect3728" d="m12 6c-3.324 0-6 2.676-6 6v2 68 2c0 0.33472 0.04135 0.6507 0.09375 0.96875 0.0487 0.2956 0.09704 0.59692 0.1875 0.875 0.00988 0.03038 0.020892 0.0636 0.03125 0.09375 0.098865 0.28777 0.23488 0.54745 0.375 0.8125 0.14459 0.27351 0.31562 0.53562 0.5 0.78125s0.37378 0.47347 0.59375 0.6875c0.43995 0.42806 0.94291 0.81453 1.5 1.0938 0.27854 0.13961 0.57347 0.24695 0.875 0.34375-0.2562-0.10022-0.48671-0.23627-0.71875-0.375-0.00741-0.0044-0.023866 0.0045-0.03125 0-0.031933-0.0193-0.062293-0.04251-0.09375-0.0625-0.1204-0.0767-0.23102-0.16351-0.34375-0.25-0.10617-0.0808-0.21328-0.16111-0.3125-0.25-0.17793-0.16143-0.34746-0.34539-0.5-0.53125-0.10758-0.13026-0.21839-0.26528-0.3125-0.40625-0.025089-0.03838-0.038446-0.08587-0.0625-0.125-0.064763-0.10303-0.13023-0.20452-0.1875-0.3125-0.10101-0.19471-0.20567-0.4157-0.28125-0.625-0.00796-0.02181-0.023589-0.04055-0.03125-0.0625-0.031825-0.09195-0.035804-0.18683-0.0625-0.28125-0.030332-0.10662-0.070389-0.20303-0.09375-0.3125-0.072879-0.34151-0.125-0.6982-0.125-1.0625v-2-68-2c0-2.7818 2.2182-5 5-5h2 68 2c2.7818 0 5 2.2182 5 5v2 68 2c0 0.3643-0.05212 0.72099-0.125 1.0625-0.04415 0.20689-0.08838 0.39766-0.15625 0.59375-0.0077 0.02195-0.0233 0.04069-0.03125 0.0625-0.06274 0.17374-0.13838 0.36745-0.21875 0.53125-0.04158 0.0828-0.07904 0.16995-0.125 0.25-0.0546 0.09721-0.12677 0.18835-0.1875 0.28125-0.09411 0.14096-0.20492 0.276-0.3125 0.40625-0.14317 0.17445-0.30314 0.347-0.46875 0.5-0.01117 0.0102-0.01998 0.02115-0.03125 0.03125-0.13839 0.12556-0.28509 0.23444-0.4375 0.34375-0.10257 0.07315-0.20432 0.15336-0.3125 0.21875-0.0074 0.0045-0.02384-0.0044-0.03125 0-0.23204 0.13873-0.46255 0.27478-0.71875 0.375 0.30153-0.0968 0.59646-0.20414 0.875-0.34375 0.55709-0.27922 1.0601-0.66569 1.5-1.0938 0.21997-0.21403 0.40937-0.44186 0.59375-0.6875s0.35541-0.50774 0.5-0.78125c0.14012-0.26505 0.27614-0.52473 0.375-0.8125 0.01041-0.03078 0.02133-0.06274 0.03125-0.09375 0.09046-0.27808 0.1388-0.5794 0.1875-0.875 0.0524-0.31805 0.09375-0.63403 0.09375-0.96875v-2-68-2c0-3.324-2.676-6-6-6h-72z" fill="url(#linearGradient3188)"/>
  <path id="path3615" d="m12 90c-3.324 0-6-2.676-6-6v-2-68-2c0-0.33472 0.04135-0.6507 0.09375-0.96875 0.0487-0.2956 0.09704-0.59692 0.1875-0.875 0.00988-0.03038 0.020892-0.0636 0.03125-0.09375 0.098865-0.28777 0.23488-0.54745 0.375-0.8125 0.14459-0.27351 0.31562-0.53562 0.5-0.78125s0.37378-0.47347 0.59375-0.6875c0.43995-0.42806 0.94291-0.81453 1.5-1.0938 0.27854-0.13961 0.57347-0.24695 0.875-0.34375-0.2562 0.10022-0.48671 0.23627-0.71875 0.375-0.00741 0.0044-0.023866-0.0045-0.03125 0-0.031933 0.0193-0.062293 0.04251-0.09375 0.0625-0.1204 0.0767-0.23102 0.16351-0.34375 0.25-0.10617 0.0808-0.21328 0.16111-0.3125 0.25-0.17793 0.16143-0.34746 0.34539-0.5 0.53125-0.10758 0.13026-0.21839 0.26528-0.3125 0.40625-0.025089 0.03838-0.038446 0.08587-0.0625 0.125-0.064763 0.10303-0.13023 0.20452-0.1875 0.3125-0.10101 0.19471-0.20567 0.4157-0.28125 0.625-0.00796 0.02181-0.023589 0.04055-0.03125 0.0625-0.031825 0.09195-0.035804 0.18683-0.0625 0.28125-0.030332 0.10662-0.070389 0.20303-0.09375 0.3125-0.072879 0.34151-0.125 0.6982-0.125 1.0625v2 68 2c0 2.7818 2.2182 5 5 5h2 68 2c2.7818 0 5-2.2182 5-5v-2-68-2c0-0.3643-0.05212-0.72099-0.125-1.0625-0.04415-0.20689-0.08838-0.39766-0.15625-0.59375-0.0077-0.02195-0.0233-0.04069-0.03125-0.0625-0.06274-0.17374-0.13838-0.36745-0.21875-0.53125-0.04158-0.0828-0.07904-0.16995-0.125-0.25-0.0546-0.09721-0.12677-0.18835-0.1875-0.28125-0.09411-0.14096-0.20492-0.276-0.3125-0.40625-0.14317-0.17445-0.30314-0.347-0.46875-0.5-0.01117-0.0102-0.01998-0.02115-0.03125-0.03125-0.13839-0.12556-0.28509-0.23444-0.4375-0.34375-0.10257-0.07315-0.20432-0.15336-0.3125-0.21875-0.0074-0.0045-0.02384 0.0044-0.03125 0-0.23204-0.13873-0.46255-0.27478-0.71875-0.375 0.30153 0.0968 0.59646 0.20414 0.875 0.34375 0.55709 0.27922 1.0601 0.66569 1.5 1.0938 0.21997 0.21403 0.40937 0.44186 0.59375 0.6875s0.35541 0.50774 0.5 0.78125c0.14012 0.26505 0.27614 0.52473 0.375 0.8125 0.01041 0.03078 0.02133 0.06274 0.03125 0.09375 0.09046 0.27808 0.1388 0.5794 0.1875 0.875 0.0524 0.31805 0.09375 0.63403 0.09375 0.96875v2 68 2c0 3.324-2.676 6-6 6h-72z" fill="url(#radialGradient3619)" opacity=".6"/>
  <rect id="rect2841" x="6" y="106" width="84" height="84" rx="6" ry="6" fill="url(#linearGradient2843)"/>
  <rect id="rect3634" x="10" y="110" width="76" height="76" rx="4" ry="4" fill="#f00"/>
  <path id="rect3647" transform="translate(-110)" d="m14 9c-2.7527 0-5 2.2473-5 5v68c0 2.7527 2.2473 5 5 5h68c2.7527 0 5-2.2473 5-5v-68c0-2.7527-2.2473-5-5-5h-68zm0 2h68c1.6793 0 3 1.3207 3 3v68c0 1.6793-1.3207 3-3 3h-68c-1.6793 0-3-1.3207-3-3v-68c0-1.6793 1.3207-3 3-3z" clip-path="url(#clipPath3649)" color="#000000" display="inline" filter="url(#filter3657)" style="block-progression:tb;text-indent:0;text-transform:none"/>
  <path id="path3709" d="m14.089 10c-2.216 0-4 1.784-4 4v68c0 2.216 1.784 4 4 4h68c2.216 0 4-1.784 4-4v-68c0-2.216-1.784-4-4-4h-68zm0 2h68c1.1403 0 2 0.8597 2 2v68c0 1.1403-0.8597 2-2 2h-68c-1.1403 0-2-0.8597-2-2v-68c0-1.1403 0.8597-2 2-2z" opacity=".16"/>
  <path id="path3707" d="m14 10c-2.216 0-4 1.784-4 4v68c0 2.216 1.784 4 4 4h68c2.216 0 4-1.784 4-4v-68c0-2.216-1.784-4-4-4h-68zm0 1h68c1.6738 0 3 1.3262 3 3v68c0 1.6738-1.3262 3-3 3h-68c-1.6738 0-3-1.3262-3-3v-68c0-1.6738 1.3262-3 3-3z" opacity=".36"/>
 </g>
 <g id="layer4">
  <rect id="rect2419-9" x="6" y="6" width="84" height="84" rx="6" ry="6" opacity=".6"/>
  <path id="rect3728-4" d="m12 6c-3.324 0-6 2.676-6 6v2 68 2c0 0.33472 0.04135 0.6507 0.09375 0.96875 0.0487 0.2956 0.09704 0.59692 0.1875 0.875 0.00988 0.03038 0.020892 0.0636 0.03125 0.09375 0.098865 0.28777 0.23488 0.54745 0.375 0.8125 0.14459 0.27351 0.31562 0.53562 0.5 0.78125s0.37378 0.47347 0.59375 0.6875c0.43995 0.42806 0.94291 0.81453 1.5 1.0938 0.27854 0.13961 0.57347 0.24695 0.875 0.34375-0.2562-0.10022-0.48671-0.23627-0.71875-0.375-0.00741-0.0044-0.023866 0.0045-0.03125 0-0.031933-0.0193-0.062293-0.04251-0.09375-0.0625-0.1204-0.0767-0.23102-0.16351-0.34375-0.25-0.10617-0.0808-0.21328-0.16111-0.3125-0.25-0.17793-0.16143-0.34746-0.34539-0.5-0.53125-0.10758-0.13026-0.21839-0.26528-0.3125-0.40625-0.025089-0.03838-0.038446-0.08587-0.0625-0.125-0.064763-0.10303-0.13023-0.20452-0.1875-0.3125-0.10101-0.19471-0.20567-0.4157-0.28125-0.625-0.00796-0.02181-0.023589-0.04055-0.03125-0.0625-0.031825-0.09195-0.035804-0.18683-0.0625-0.28125-0.030332-0.10662-0.070389-0.20303-0.09375-0.3125-0.072879-0.34151-0.125-0.6982-0.125-1.0625v-2-68-2c0-2.7818 2.2182-5 5-5h2 68 2c2.7818 0 5 2.2182 5 5v2 68 2c0 0.3643-0.05212 0.72099-0.125 1.0625-0.04415 0.20689-0.08838 0.39766-0.15625 0.59375-0.0077 0.02195-0.0233 0.04069-0.03125 0.0625-0.06274 0.17374-0.13838 0.36745-0.21875 0.53125-0.04158 0.0828-0.07904 0.16995-0.125 0.25-0.0546 0.09721-0.12677 0.18835-0.1875 0.28125-0.09411 0.14096-0.20492 0.276-0.3125 0.40625-0.14317 0.17445-0.30314 0.347-0.46875 0.5-0.01117 0.0102-0.01998 0.02115-0.03125 0.03125-0.13839 0.12556-0.28509 0.23444-0.4375 0.34375-0.10257 0.07315-0.20432 0.15336-0.3125 0.21875-0.0074 0.0045-0.02384-0.0044-0.03125 0-0.23204 0.13873-0.46255 0.27478-0.71875 0.375 0.30153-0.0968 0.59646-0.20414 0.875-0.34375 0.55709-0.27922 1.0601-0.66569 1.5-1.0938 0.21997-0.21403 0.40937-0.44186 0.59375-0.6875s0.35541-0.50774 0.5-0.78125c0.14012-0.26505 0.27614-0.52473 0.375-0.8125 0.01041-0.03078 0.02133-0.06274 0.03125-0.09375 0.09046-0.27808 0.1388-0.5794 0.1875-0.875 0.0524-0.31805 0.09375-0.63403 0.09375-0.96875v-2-68-2c0-3.324-2.676-6-6-6h-72z" fill="url(#linearGradient3188)" opacity=".01"/>
  <path id="path3615-6" d="m12 90c-3.324 0-6-2.676-6-6v-2-68-2c0-0.33472 0.04135-0.6507 0.09375-0.96875 0.0487-0.2956 0.09704-0.59692 0.1875-0.875 0.00988-0.03038 0.020892-0.0636 0.03125-0.09375 0.098865-0.28777 0.23488-0.54745 0.375-0.8125 0.14459-0.27351 0.31562-0.53562 0.5-0.78125s0.37378-0.47347 0.59375-0.6875c0.43995-0.42806 0.94291-0.81453 1.5-1.0938 0.27854-0.13961 0.57347-0.24695 0.875-0.34375-0.2562 0.10022-0.48671 0.23627-0.71875 0.375-0.00741 0.0044-0.023866-0.0045-0.03125 0-0.031933 0.0193-0.062293 0.04251-0.09375 0.0625-0.1204 0.0767-0.23102 0.16351-0.34375 0.25-0.10617 0.0808-0.21328 0.16111-0.3125 0.25-0.17793 0.16143-0.34746 0.34539-0.5 0.53125-0.10758 0.13026-0.21839 0.26528-0.3125 0.40625-0.025089 0.03838-0.038446 0.08587-0.0625 0.125-0.064763 0.10303-0.13023 0.20452-0.1875 0.3125-0.10101 0.19471-0.20567 0.4157-0.28125 0.625-0.00796 0.02181-0.023589 0.04055-0.03125 0.0625-0.031825 0.09195-0.035804 0.18683-0.0625 0.28125-0.030332 0.10662-0.070389 0.20303-0.09375 0.3125-0.072879 0.34151-0.125 0.6982-0.125 1.0625v2 68 2c0 2.7818 2.2182 5 5 5h2 68 2c2.7818 0 5-2.2182 5-5v-2-68-2c0-0.3643-0.05212-0.72099-0.125-1.0625-0.04415-0.20689-0.08838-0.39766-0.15625-0.59375-0.0077-0.02195-0.0233-0.04069-0.03125-0.0625-0.06274-0.17374-0.13838-0.36745-0.21875-0.53125-0.04158-0.0828-0.07904-0.16995-0.125-0.25-0.0546-0.09721-0.12677-0.18835-0.1875-0.28125-0.09411-0.14096-0.20492-0.276-0.3125-0.40625-0.14317-0.17445-0.30314-0.347-0.46875-0.5-0.01117-0.0102-0.01998-0.02115-0.03125-0.03125-0.13839-0.12556-0.28509-0.23444-0.4375-0.34375-0.10257-0.07315-0.20432-0.15336-0.3125-0.21875-0.0074-0.0045-0.02384 0.0044-0.03125 0-0.23204-0.13873-0.46255-0.27478-0.71875-0.375 0.30153 0.0968 0.59646 0.20414 0.875 0.34375 0.55709 0.27922 1.0601 0.66569 1.5 1.0938 0.21997 0.21403 0.40937 0.44186 0.59375 0.6875s0.35541 0.50774 0.5 0.78125c0.14012 0.26505 0.27614 0.52473 0.375 0.8125 0.01041 0.03078 0.02133 0.06274 0.03125 0.09375 0.09046 0.27808 0.1388 0.5794 0.1875 0.875 0.0524 0.31805 0.09375 0.63403 0.09375 0.96875v2 68 2c0 3.324-2.676 6-6 6h-72z" fill="url(#radialGradient3619-3)" opacity=".15"/>
 </g>
 <g id="layer5" display="none">
  <rect id="rect3171" x="15" y="15" width="66" height="66" rx="12" ry="12" clip-path="url(#clipPath3613)" fill="url(#linearGradient3613)" filter="url(#filter3794)" opacity=".1" stroke="#fff" stroke-linecap="round" stroke-width=".5"/>
 </g>
 <g id="layer6">
  <path id="path3857" d="m44.25 19.906c-2.2444 0-3.9688 1.9011-3.9688 4.0625v2.4062c-0.97527 0.31762-1.937 0.71035-2.875 1.1562l-1.6875-1.6875c-4.1e-5 -4.1e-5 -0.02916 0.0012-0.03125 0-0.02224-0.01297-0.12574-0.08477-0.25-0.15625-1.5002-1.2808-3.8434-1.4379-5.3438 0.0625l-5.3438 5.3438c-1.5705 1.5704-1.3592 4.0792 0.09375 5.5625l1.6875 1.75c-0.44589 0.93797-0.83863 1.8997-1.1562 2.875h-2.4062c-2.1614 0-4.0625 1.7243-4.0625 3.9688v7.5c0 2.2444 1.9011 3.9688 4.0625 3.9688h2.4062c0.31762 0.97527 0.71035 1.937 1.1562 2.875l-1.6875 1.75c-1.4529 1.4833-1.6641 3.9921-0.09375 5.5625l5.3438 5.3438c0.7304 0.73037 1.7345 1.1654 2.8125 1.1562 1.0699-0.0091 1.8494-0.51835 2.4375-1.0312 0.02268-0.01978 0.07181-0.01147 0.09375-0.03125a1.1273 1.1273 0 0 0 0.21875-0.1875 1.1273 1.1273 0 0 0 0.03125 0l1.7188-1.6875c0.93797 0.4459 1.8997 0.83863 2.875 1.1562v2.4062c0 2.1614 1.7243 4.0625 3.9688 4.0625h7.5c2.2444 0 3.9688-1.9011 3.9688-4.0625v-2.4062c0.97527-0.31762 1.937-0.71035 2.875-1.1562l1.75 1.6875c1.4833 1.4527 3.9921 1.6641 5.5625 0.09375l5.3438-5.3438c1.4465-1.4463 1.3095-3.6532 0.15625-5.1562a1.1273 1.1273 0 0 0-0.03125-0.0625c-0.0055-0.0069 0.0056-0.02436 0-0.03125a1.1273 1.1273 0 0 0-0.21875-0.3125 1.1273 1.1273 0 0 0 0-0.03125l-1.6875-1.7188c0.4459-0.93797 0.83863-1.8997 1.1562-2.875h2.4062c2.1614 0 4.0625-1.7243 4.0625-3.9688v-7.5c0-2.2444-1.901-3.9688-4.0625-3.9688h-2.4062c-0.31762-0.97527-0.71035-1.937-1.1562-2.875l1.6875-1.7188a1.1273 1.1273 0 0 0 0-0.03125c0.0209-0.02134 0.04212-0.04075 0.0625-0.0625a1.1273 1.1273 0 0 0 0.125-0.1875 1.1273 1.1273 0 0 0 0.09375-0.1875c1.1271-1.5025 1.2475-3.69-0.1875-5.125l-5.3438-5.3438c-1.5004-1.5005-3.8436-1.3433-5.3438-0.0625-0.12426 0.07148-0.22776 0.14328-0.25 0.15625-0.0021 0.0012-0.03121-4.1e-5 -0.03125 0l-1.6875 1.6875c-0.93797-0.4459-1.8997-0.83863-2.875-1.1562v-2.4062c0-2.1614-1.7243-4.0625-3.9688-4.0625h-7.5zm3.75 17.094 9.9062 9.9062h-1.9062c0.0056 6e-5 -0.19307 4.96e-4 -0.1875 0 0.0056-4.96e-4 -0.22425 0.0323-0.21875 0.03125 0.0055-1e-3 -0.19286 0.06409-0.1875 0.0625 0.0054-0.0016-0.22393 0.06461-0.21875 0.0625 0.0052-0.0021-0.19244 0.09637-0.1875 0.09375 0.0049-0.0026-0.16091 0.09685-0.15625 0.09375 0.0047-0.0031-0.19183 0.12854-0.1875 0.125 0.0043-0.0035-0.16021 0.12896-0.15625 0.125 4e-3 -4e-3 -0.12854 0.16058-0.125 0.15625 0.0035-0.0043-0.1281 0.19216-0.125 0.1875 0.0031-0.0047-0.09637 0.1612-0.09375 0.15625 0.0026-0.0049-0.09586 0.19268-0.09375 0.1875 0.0021-0.0052-0.06409 0.22412-0.0625 0.21875 0.0016-0.0054-0.06355 0.193-0.0625 0.1875 1e-3 -0.0055-0.03175 0.22432-0.03125 0.21875 4.96e-4 -0.0056 6e-5 0.1931 0 0.1875v9.9062h-11.812v-9.9062c-6e-5 0.0056-4.96e-4 -0.19307 0-0.1875 4.96e-4 0.0056-0.0323-0.22425-0.03125-0.21875 1e-3 0.0055-0.06409-0.19286-0.0625-0.1875 0.0016 0.0054-0.06461-0.22393-0.0625-0.21875 0.0021 0.0052-0.09637-0.19244-0.09375-0.1875 0.0026 0.0049-0.09685-0.16091-0.09375-0.15625 0.0031 0.0047-0.12854-0.19183-0.125-0.1875 0.0035 0.0043-0.12896-0.16021-0.125-0.15625 4e-3 4e-3 -0.16058-0.12854-0.15625-0.125 0.0043 0.0035-0.19216-0.1281-0.1875-0.125 0.0047 0.0031-0.1612-0.09637-0.15625-0.09375 0.0049 0.0026-0.19268-0.09586-0.1875-0.09375 0.0052 0.0021-0.22412-0.06409-0.21875-0.0625 0.0054 0.0016-0.193-0.06355-0.1875-0.0625 0.0055 1e-3 -0.22432-0.03175-0.21875-0.03125 0.0056 4.96e-4 -0.1931 6e-5 -0.1875 0h-1.9062l9.9062-9.9062z" display="block" opacity=".1"/>
  <path id="path3853" d="m44.25 21.031c-1.5966 0-2.8438 1.3764-2.8438 2.9375v3.1875c-1.4666 0.42859-2.8931 0.97426-4.25 1.6875l-2.25-2.1875c-0.0071-0.0071-0.0241 7e-3 -0.03125 0-1.0708-1.0488-2.8669-1.1956-3.9688-0.09375l-5.3438 5.3438c-1.102 1.1019-0.95508 2.898 0.09375 3.9688l2.1875 2.2812c-0.71324 1.3569-1.2589 2.7834-1.6875 4.25h-3.1875c-1.5611 0-2.9375 1.2472-2.9375 2.8438v7.5c0 1.5966 1.3764 2.8438 2.9375 2.8438h3.1875c0.4286 1.4666 0.97425 2.8931 1.6875 4.25l-2.1875 2.2812c-1.0488 1.0708-1.1956 2.8668-0.09375 3.9688l5.3438 5.3438c0.52679 0.52677 1.2538 0.85009 2 0.84375 0.82861-7e-3 1.4899-0.46377 1.9688-0.9375h0.03125l2.25-2.1875c1.3569 0.71324 2.7834 1.2589 4.25 1.6875v3.1875c0 1.5611 1.2472 2.9375 2.8438 2.9375h7.5c1.5965 0 2.8438-1.3764 2.8438-2.9375v-3.1875c1.4666-0.42859 2.8931-0.97425 4.25-1.6875l2.2812 2.1875c1.0708 1.0487 2.8668 1.1956 3.9688 0.09375l5.3438-5.3438c1.102-1.1019 0.95506-2.898-0.09375-3.9688v-0.03125l-2.1875-2.25c0.71324-1.3569 1.2589-2.7834 1.6875-4.25h3.1875c1.5611 0 2.9375-1.2472 2.9375-2.8438v-7.5c0-1.5966-1.3764-2.8438-2.9375-2.8438h-3.1875c-0.42859-1.4666-0.97426-2.8931-1.6875-4.25l2.1875-2.25v-0.03125c1.0487-1.0708 1.1957-2.8668 0.09375-3.9688l-5.3438-5.3438c-1.1019-1.1019-2.898-0.95508-3.9688 0.09375-0.0071 7e-3 -0.02417-0.0071-0.03125 0l-2.25 2.1875c-1.3569-0.71324-2.7834-1.2589-4.25-1.6875v-3.1875c0-1.5611-1.2472-2.9375-2.8438-2.9375h-7.5zm3.75 14.344 12.656 12.656h-4.6562a0.95852 0.95852 0 0 0-0.96875 0.96875v11.031h-14.062v-11.031a0.95852 0.95852 0 0 0-0.96875-0.96875h-4.6562l12.656-12.656z" display="block" opacity=".15"/>
  <path id="path3847" d="m44.25 76c-1.0626 0-1.875-0.88801-1.875-1.9688v-3.8438c-1.9-0.50622-3.7765-1.1902-5.4375-2.1562l-2.7188 2.625c-0.38211 0.38209-0.81802 0.65206-1.3125 0.65625-0.49448 0.0042-0.93682-0.18684-1.3125-0.5625l-5.3438-5.3438c-0.75135-0.75136-0.6704-1.8608 0.09375-2.625l2.625-2.7188c-0.96606-1.661-1.65-3.5375-2.1562-5.4375h-3.8438c-1.0807 0-1.9688-0.81242-1.9688-1.875v-7.5c0-1.0626 0.88801-1.875 1.9688-1.875h3.8438c0.50624-1.9 1.1902-3.7765 2.1562-5.4375l-2.625-2.7188c-0.7642-0.7642-0.84517-1.8736-0.09375-2.625l5.3438-5.3438c0.75135-0.75136 1.8608-0.67044 2.625 0.09375l2.7188 2.625c1.661-0.96605 3.5375-1.65 5.4375-2.1562v-3.8438c0-1.0807 0.81242-1.9688 1.875-1.9688h7.5c1.0626 0 1.875 0.88801 1.875 1.9688v3.8438c1.9 0.50623 3.7765 1.1902 5.4375 2.1562l2.7188-2.625c0.76419-0.76419 1.8736-0.84514 2.625-0.09375l5.3438 5.3438c0.75135 0.75136 0.67035 1.8608-0.09375 2.625l-2.625 2.7188c0.96605 1.661 1.65 3.5375 2.1562 5.4375h3.8438c1.0807-2.4e-5 1.9688 0.81242 1.9688 1.875v7.5c0 1.0626-0.88802 1.875-1.9688 1.875h-3.8438c-0.50622 1.9-1.1902 3.7764-2.1562 5.4375l2.625 2.7188c0.76419 0.7642 0.8452 1.8736 0.09375 2.625l-5.3438 5.3438c-0.75137 0.75135-1.8608 0.67035-2.625-0.09375l-2.7188-2.625c-1.661 0.96606-3.5375 1.65-5.4375 2.1562v3.8438c0 1.0807-0.81243 1.9688-1.875 1.9688zm-4.25-15h16v-12h7l-15-15-15 15h7z" display="block" opacity=".3"/>
  <rect id="rect3897" transform="matrix(0,1,1,0,0,0)" y="104" width="16" height="16" color="#000000" fill="url(#linearGradient3905)"/>
  <text id="text3907" x="104" y="48" fill="#000000" font-family="Liberation Sans" font-size="4px" letter-spacing="0px" word-spacing="0px" style="line-height:125%" xml:space="preserve"><tspan id="tspan3909" x="104" y="48">Shadow opacity : 30, 15, 10, (8)</tspan></text>
  <rect id="rect3911" transform="rotate(-90)" x="-40" y="104" width="16" height="16" color="#000000" fill="url(#linearGradient3913)"/>
  <text id="text3951" x="124" y="32" fill="#000000" font-family="Liberation Sans" font-size="4px" letter-spacing="0px" word-spacing="0px" style="line-height:125%" xml:space="preserve"><tspan id="tspan3953" x="124" y="32">Bevel opacity : 30 / 10</tspan></text>
  <text id="text3955" x="124" y="8" fill="#000000" font-family="Liberation Sans" font-size="4px" letter-spacing="0px" word-spacing="0px" style="line-height:125%" xml:space="preserve"><tspan id="tspan3957" x="124" y="8">Bevel opacity : 75 / 15</tspan></text>
  <path id="rect3267" d="m44.25 75c-1.0626 0-1.875-0.88801-1.875-1.9688v-3.8438c-1.9-0.50622-3.7765-1.1902-5.4375-2.1562l-2.7188 2.625c-0.38211 0.38209-0.81802 0.65206-1.3125 0.65625-0.49448 0.0042-0.93682-0.18684-1.3125-0.5625l-5.3438-5.3438c-0.75135-0.75136-0.6704-1.8608 0.09375-2.625l2.625-2.7188c-0.96606-1.661-1.65-3.5375-2.1562-5.4375h-3.8438c-1.0807 0-1.9688-0.81242-1.9688-1.875v-7.5c0-1.0626 0.88801-1.875 1.9688-1.875h3.8438c0.50624-1.9 1.1902-3.7765 2.1562-5.4375l-2.625-2.7188c-0.7642-0.7642-0.84517-1.8736-0.09375-2.625l5.3438-5.3438c0.75135-0.75136 1.8608-0.67044 2.625 0.09375l2.7188 2.625c1.661-0.96605 3.5375-1.65 5.4375-2.1562v-3.8438c0-1.0807 0.81242-1.9688 1.875-1.9688h7.5c1.0626 0 1.875 0.88801 1.875 1.9688v3.8438c1.9 0.50623 3.7765 1.1902 5.4375 2.1562l2.7188-2.625c0.76419-0.76419 1.8736-0.84514 2.625-0.09375l5.3438 5.3438c0.75135 0.75136 0.67035 1.8608-0.09375 2.625l-2.625 2.7188c0.96605 1.661 1.65 3.5375 2.1562 5.4375h3.8438c1.0807-2.4e-5 1.9688 0.81242 1.9688 1.875v7.5c0 1.0626-0.88802 1.875-1.9688 1.875h-3.8438c-0.50622 1.9-1.1902 3.7764-2.1562 5.4375l2.625 2.7188c0.76419 0.7642 0.8452 1.8736 0.09375 2.625l-5.3438 5.3438c-0.75137 0.75135-1.8608 0.67035-2.625-0.09375l-2.7188-2.625c-1.661 0.96606-3.5375 1.65-5.4375 2.1562v3.8438c0 1.0807-0.81243 1.9688-1.875 1.9688zm-4.25-15h16v-12h7l-15-15-15 15h7z" display="block" fill="url(#linearGradient3053)"/>
  <path id="path3868" d="m44.25 75c-1.0626 0-1.875-0.88801-1.875-1.9688v-1c0 1.0807 0.81242 1.9688 1.875 1.9688h7.5c1.0626 0 1.875-0.888 1.875-1.9688v1c0 1.0807-0.81243 1.9688-1.875 1.9688h-7.5zm-11.344-4.6875c-0.49448 0.0042-0.93682-0.18684-1.3125-0.5625l-5.3438-5.3438c-0.49496-0.49496-0.62229-1.1453-0.4375-1.75 0.08058 0.26611 0.21571 0.5282 0.4375 0.75l5.3438 5.3438c0.37568 0.37566 0.81802 0.5667 1.3125 0.5625s0.93039-0.27416 1.3125-0.65625l2.7188-2.625c1.661 0.96605 3.5375 1.65 5.4375 2.1562v1c-1.9-0.50622-3.7765-1.1902-5.4375-2.1562l-2.7188 2.625c-0.38211 0.38209-0.81802 0.65206-1.3125 0.65625zm30.188-0.03125c-0.4668-0.02184-0.9304-0.24295-1.3125-0.625l-2.7188-2.625c-1.661 0.96606-3.5375 1.65-5.4375 2.1562v-1c1.9-0.50623 3.7765-1.1902 5.4375-2.1562l2.7188 2.625c0.7642 0.7641 1.8736 0.8451 2.625 0.09375l5.3438-5.3438c0.22182-0.2218 0.35692-0.48389 0.4375-0.75 0.18481 0.60469 0.05752 1.255-0.4375 1.75l-5.3438 5.3438c-0.37569 0.37567-0.8457 0.55309-1.3125 0.53125zm-34.469-11.875c-0.78178-1.4947-1.3707-3.1233-1.8125-4.7812h-3.8438c-1.0807 0-1.9688-0.81242-1.9688-1.875v-1c0 1.0626 0.88801 1.875 1.9688 1.875h3.8438c0.50624 1.9 1.1902 3.7765 2.1562 5.4375l-0.34375 0.34375zm38.75 0-0.34375-0.34375c0.96605-1.6611 1.65-3.5375 2.1562-5.4375h3.8438c1.0807 0 1.9688-0.81243 1.9688-1.875v1c0 1.0626-0.88802 1.875-1.9688 1.875h-3.8438c-0.44175 1.658-1.0307 3.2866-1.8125 4.7812zm-34.375-11.406 15-15 15 15h-1l-14-14-14 14h-1zm-4.375-10.406-2.2812-2.375c-0.53861-0.53861-0.72365-1.2396-0.53125-1.875 0.09573 0.31323 0.27047 0.61422 0.53125 0.875l2.625 2.7188c-0.12304 0.21156-0.22964 0.43809-0.34375 0.65625zm38.75 0c-0.11411-0.21816-0.22071-0.44469-0.34375-0.65625l2.625-2.7188c0.26074-0.26078 0.43553-0.56177 0.53125-0.875 0.19238 0.63537 0.0073 1.3364-0.53125 1.875l-2.2812 2.375z" display="block" opacity=".15"/>
  <path id="path3877" d="m25.812 63.656c-0.19239-0.63537-0.0073-1.3364 0.53125-1.875l2.2812-2.375c0.11411 0.21816 0.22071 0.44469 0.34375 0.65625l-2.625 2.7188c-0.26076 0.26078-0.43553 0.56177-0.53125 0.875zm44.375 0c-0.09573-0.31323-0.27048-0.61422-0.53125-0.875l-2.625-2.7188c0.12304-0.21156 0.22964-0.43809 0.34375-0.65625l2.2812 2.375c0.53861 0.53861 0.72365 1.2396 0.53125 1.875zm-30.188-2.6562v-1h16v1h-16zm-7-12 1-1h6v1h-7zm23 0v-1h6l1 1h-7zm-35-3.75v-1c0-1.0626 0.88801-1.875 1.9688-1.875h3.8438c0.44176-1.658 1.0307-3.2866 1.8125-4.7812l0.34375 0.34375c-0.96604 1.661-1.65 3.5375-2.1562 5.4375h-3.8438c-1.0807 0-1.9688 0.81242-1.9688 1.875zm54 0c0-1.0626-0.88802-1.875-1.9688-1.875h-3.8438c-0.50622-1.9-1.1902-3.7765-2.1562-5.4375l0.34375-0.34375c0.78178 1.4947 1.3708 3.1233 1.8125 4.7812h3.8438c1.0807-2.4e-5 1.9688 0.81242 1.9688 1.875v1zm-49.188-11.906c-0.18481-0.60469-0.0575-1.255 0.4375-1.75l5.3438-5.3438c0.75135-0.75136 1.8608-0.67044 2.625 0.09375l2.7188 2.625c1.661-0.96605 3.5375-1.65 5.4375-2.1562v1c-1.9 0.50623-3.7765 1.1902-5.4375 2.1562l-2.7188-2.625c-0.7642-0.76419-1.8736-0.84511-2.625-0.09375l-5.3438 5.3438c-0.22181 0.2218-0.35692 0.48389-0.4375 0.75zm44.375 0c-0.08057-0.26611-0.21571-0.5282-0.4375-0.75l-5.3438-5.3438c-0.75136-0.75139-1.8608-0.67044-2.625 0.09375l-2.7188 2.625c-1.661-0.96605-3.5375-1.65-5.4375-2.1562v-1c1.9 0.50623 3.7765 1.1902 5.4375 2.1562l2.7188-2.625c0.76419-0.76419 1.8736-0.84514 2.625-0.09375l5.3438 5.3438c0.49496 0.49496 0.62229 1.1453 0.4375 1.75zm-27.812-9.375v-1c0-1.0807 0.81242-1.9688 1.875-1.9688h7.5c1.0626 0 1.875 0.88801 1.875 1.9688v1c0-1.0807-0.81242-1.9688-1.875-1.9688h-7.5c-1.0626 0-1.875 0.88801-1.875 1.9688z" display="block" fill="#fff" opacity=".75"/>
 </g>
</svg>
