<?xml version="1.0" encoding="UTF-8"?>
<svg id="svg2408" width="96" height="96" version="1.0" xmlns="http://www.w3.org/2000/svg" xmlns:cc="http://creativecommons.org/ns#" xmlns:dc="http://purl.org/dc/elements/1.1/" xmlns:rdf="http://www.w3.org/1999/02/22-rdf-syntax-ns#" xmlns:xlink="http://www.w3.org/1999/xlink">
 <defs id="defs2410">
  <linearGradient id="linearGradient3637">
   <stop id="stop3639" stop-color="#f0f0f0" offset="0"/>
   <stop id="stop3641" stop-color="#aaa" offset="1"/>
  </linearGradient>
  <linearGradient id="ButtonShadow" x1="45.448" x2="45.448" y1="92.54" y2="7.0165" gradientTransform="scale(1.0059 .99417)" gradientUnits="userSpaceOnUse">
   <stop id="stop3750" offset="0"/>
   <stop id="stop3752" stop-opacity=".58824" offset="1"/>
  </linearGradient>
  <linearGradient id="linearGradient3737">
   <stop id="stop3739" stop-color="#fff" offset="0"/>
   <stop id="stop3741" stop-color="#fff" stop-opacity="0" offset="1"/>
  </linearGradient>
  <filter id="filter3174" color-interpolation-filters="sRGB">
   <feGaussianBlur id="feGaussianBlur3176" stdDeviation="1.71"/>
  </filter>
  <linearGradient id="linearGradient3188" x1="36.357" x2="36.357" y1="6" y2="63.893" gradientUnits="userSpaceOnUse" xlink:href="#linearGradient3737"/>
  <filter id="filter3794" x="-.192" y="-.192" width="1.384" height="1.384" color-interpolation-filters="sRGB">
   <feGaussianBlur id="feGaussianBlur3796" stdDeviation="5.28"/>
  </filter>
  <linearGradient id="linearGradient3613" x1="48" x2="48" y1="20.221" y2="138.66" gradientUnits="userSpaceOnUse" xlink:href="#linearGradient3737"/>
  <radialGradient id="radialGradient3619" cx="48" cy="90.172" r="42" gradientTransform="matrix(1.1573 0 0 .99591 -7.551 .19713)" gradientUnits="userSpaceOnUse" xlink:href="#linearGradient3737"/>
  <clipPath id="clipPath3613">
   <rect id="rect3615" x="6" y="6" width="84" height="84" rx="6" ry="6" fill="#fff"/>
  </clipPath>
  <linearGradient id="linearGradient2843" x1="48" x2="48" y1="90" y2="5.9877" gradientTransform="translate(0,100)" gradientUnits="userSpaceOnUse">
   <stop id="stop3702" stop-color="#2276c5" offset="0"/>
   <stop id="stop3704" stop-color="#68baf4" offset="1"/>
  </linearGradient>
  <clipPath id="clipPath3625">
   <path id="path3627" d="m0 0v96h96v-96h-96zm12 6h72c3.324 0 6 2.676 6 6v72c0 3.324-2.676 6-6 6h-72c-3.324 0-6-2.676-6-6v-72c0-3.324 2.676-6 6-6z" fill="#fff"/>
  </clipPath>
  <linearGradient id="linearGradient3643" x1="44.512" x2="44.512" y1="6" y2="90.015" gradientUnits="userSpaceOnUse" xlink:href="#linearGradient3637"/>
  <clipPath id="clipPath3649">
   <rect id="rect3651" x="10" y="10" width="76" height="76" rx="4" ry="4" fill="#fff"/>
  </clipPath>
  <filter id="filter3657" color-interpolation-filters="sRGB">
   <feGaussianBlur id="feGaussianBlur3659" stdDeviation="1.14"/>
  </filter>
  <linearGradient id="ButtonShadow-0" x1="45.448" x2="45.448" y1="92.54" y2="7.0165" gradientTransform="matrix(1.0059 0 0 .99417 100 0)" gradientUnits="userSpaceOnUse">
   <stop id="stop3750-8" offset="0"/>
   <stop id="stop3752-5" stop-opacity=".58824" offset="1"/>
  </linearGradient>
  <linearGradient id="linearGradient3780" x1="32.251" x2="32.251" y1="6.1317" y2="90.239" gradientTransform="matrix(1.0238 0 0 -1.0119 -1.1429 98.071)" gradientUnits="userSpaceOnUse" xlink:href="#ButtonShadow-0"/>
  <linearGradient id="linearGradient3721" x1="32.251" x2="32.251" y1="6.1317" y2="90.239" gradientTransform="matrix(1,0,0,-1,0,97)" gradientUnits="userSpaceOnUse" xlink:href="#ButtonShadow-0"/>
  <radialGradient id="radialGradient3619-3" cx="48" cy="90.172" r="42" gradientTransform="matrix(1.1573 0 0 .99591 -7.551 .19713)" gradientUnits="userSpaceOnUse" xlink:href="#linearGradient3737"/>
  <linearGradient id="linearGradient3905" x1="104" x2="120" y1="8" y2="8" gradientTransform="translate(-104,104)" gradientUnits="userSpaceOnUse" xlink:href="#linearGradient3637"/>
  <linearGradient id="linearGradient3913" x1="104" x2="120" y1="8" y2="8" gradientTransform="translate(-144,104)" gradientUnits="userSpaceOnUse">
   <stop id="stop3185-9" stop-color="#c80000" offset="0"/>
   <stop id="stop3187-6" stop-color="#f3604d" offset="1"/>
  </linearGradient>
  <linearGradient id="linearGradient3133" x1="11.999" x2="11.999" y1="5.5317" y2="20.283" gradientTransform="matrix(2.7659 0 0 3.254 10 10)" gradientUnits="userSpaceOnUse" xlink:href="#linearGradient3637"/>
 </defs>
 <metadata id="metadata2413">
  <rdf:RDF>
   <cc:Work rdf:about="">
    <dc:format>image/svg+xml</dc:format>
    <dc:type rdf:resource="http://purl.org/dc/dcmitype/StillImage"/>
    <dc:title/>
   </cc:Work>
  </rdf:RDF>
 </metadata>
 <g id="layer2" display="none">
  <rect id="rect3745" x="5" y="7" width="86" height="85" rx="6" ry="6" clip-path="url(#clipPath3625)" fill="url(#ButtonShadow)" filter="url(#filter3174)" opacity=".9"/>
 </g>
 <g id="layer3">
  <path id="path3786" d="m12 3.9688c-5.5111 0-10.031 4.5202-10.031 10.031v71c0 5.5111 4.5202 10.031 10.031 10.031h72c5.5111 0 10.031-4.5202 10.031-10.031v-71c0-5.5111-4.5202-10.031-10.031-10.031h-72zm0 2.0312h72c3.324 0 6 2.676 6 6v72c0 3.324-2.676 6-6 6h-72c-3.324 0-6-2.676-6-6v-72c0-3.324 2.676-6 6-6z" fill="url(#linearGradient3780)" opacity=".08"/>
  <path id="path3778" d="m12 4.9688c-4.9716 0-9.0312 4.0596-9.0312 9.0312v71c0 4.9716 4.0596 9.0312 9.0312 9.0312h72c4.9716 0 9.0312-4.0596 9.0312-9.0312v-71c0-4.9716-4.0596-9.0312-9.0312-9.0312h-72zm0 1.0312h72c3.324 0 6 2.676 6 6v72c0 3.324-2.676 6-6 6h-72c-3.324 0-6-2.676-6-6v-72c0-3.324 2.676-6 6-6z" fill="url(#linearGradient3780)" opacity=".1"/>
  <path id="path3770" d="m11.188 6.0312c-4.0275 0.41065-7.1875 3.8352-7.1875 7.9688v71c0 4.4091 3.5909 8 8 8h72c4.4091 0 8-3.5909 8-8v-71c0-4.1971-3.259-7.646-7.375-7.9688 3.0329 0.30617 5.375 2.8525 5.375 5.9688v72c0 3.324-2.676 6-6 6h-72c-3.324 0-6-2.676-6-6v-72c0-3.1162 2.3421-5.6626 5.375-5.9688-0.06227 0.00488-0.12563-0.00631-0.1875 0z" fill="url(#linearGradient3780)" opacity=".2"/>
  <path id="rect3723" d="m6.4375 9.75c-0.89949 1.1774-1.4375 2.6473-1.4375 4.25v71c0 3.878 3.122 7 7 7h72c3.878 0 7-3.122 7-7v-71c0-1.6027-0.53801-3.0726-1.4375-4.25 0.27932 0.6941 0.4375 1.4536 0.4375 2.25v72c0 3.324-2.676 6-6 6h-72c-3.324 0-6-2.676-6-6v-72c0-0.79638 0.15818-1.5559 0.4375-2.25z" fill="url(#linearGradient3780)" opacity=".3"/>
  <path id="rect3716" d="m6 84v1c0 3.324 2.676 6 6 6h72c3.324 0 6-2.676 6-6v-1c0 3.324-2.676 6-6 6h-72c-3.324 0-6-2.676-6-6z" fill="url(#linearGradient3721)" opacity=".45"/>
 </g>
 <g id="layer1" display="none">
  <rect id="rect2419" x="6" y="6" width="84" height="84" rx="6" ry="6" opacity=".8"/>
  <path id="rect3726" d="m14 10c-2.216 0-4 1.784-4 4v68c0 2.216 1.784 4 4 4h68c2.216 0 4-1.784 4-4v-68c0-2.216-1.784-4-4-4h-68zm0 3.0625h68c0.57877 0 0.9375 0.35873 0.9375 0.9375v68c0 0.57877-0.35873 0.9375-0.9375 0.9375h-68c-0.57877 0-0.9375-0.35873-0.9375-0.9375v-68c0-0.57877 0.35873-0.9375 0.9375-0.9375z" opacity=".08"/>
  <path id="rect3629" d="m12 6c-3.324 0-6 2.676-6 6v72c0 3.324 2.676 6 6 6h72c3.324 0 6-2.676 6-6v-72c0-3.324-2.676-6-6-6h-72zm2 4h68c2.216 0 4 1.784 4 4v68c0 2.216-1.784 4-4 4h-68c-2.216 0-4-1.784-4-4v-68c0-2.216 1.784-4 4-4z" fill="url(#linearGradient3643)"/>
  <path id="rect3728" d="m12 6c-3.324 0-6 2.676-6 6v2 68 2c0 0.33472 0.04135 0.6507 0.09375 0.96875 0.0487 0.2956 0.09704 0.59692 0.1875 0.875 0.00988 0.03038 0.020892 0.0636 0.03125 0.09375 0.098865 0.28777 0.23488 0.54745 0.375 0.8125 0.14459 0.27351 0.31562 0.53562 0.5 0.78125s0.37378 0.47347 0.59375 0.6875c0.43995 0.42806 0.94291 0.81453 1.5 1.0938 0.27854 0.13961 0.57347 0.24695 0.875 0.34375-0.2562-0.10022-0.48671-0.23627-0.71875-0.375-0.00741-0.0044-0.023866 0.0045-0.03125 0-0.031933-0.0193-0.062293-0.04251-0.09375-0.0625-0.1204-0.0767-0.23102-0.16351-0.34375-0.25-0.10617-0.0808-0.21328-0.16111-0.3125-0.25-0.17793-0.16143-0.34746-0.34539-0.5-0.53125-0.10758-0.13026-0.21839-0.26528-0.3125-0.40625-0.025089-0.03838-0.038446-0.08587-0.0625-0.125-0.064763-0.10303-0.13023-0.20452-0.1875-0.3125-0.10101-0.19471-0.20567-0.4157-0.28125-0.625-0.00796-0.02181-0.023589-0.04055-0.03125-0.0625-0.031825-0.09195-0.035804-0.18683-0.0625-0.28125-0.030332-0.10662-0.070389-0.20303-0.09375-0.3125-0.072879-0.34151-0.125-0.6982-0.125-1.0625v-2-68-2c0-2.7818 2.2182-5 5-5h2 68 2c2.7818 0 5 2.2182 5 5v2 68 2c0 0.3643-0.05212 0.72099-0.125 1.0625-0.04415 0.20689-0.08838 0.39766-0.15625 0.59375-0.0077 0.02195-0.0233 0.04069-0.03125 0.0625-0.06274 0.17374-0.13838 0.36745-0.21875 0.53125-0.04158 0.0828-0.07904 0.16995-0.125 0.25-0.0546 0.09721-0.12677 0.18835-0.1875 0.28125-0.09411 0.14096-0.20492 0.276-0.3125 0.40625-0.14317 0.17445-0.30314 0.347-0.46875 0.5-0.01117 0.0102-0.01998 0.02115-0.03125 0.03125-0.13839 0.12556-0.28509 0.23444-0.4375 0.34375-0.10257 0.07315-0.20432 0.15336-0.3125 0.21875-0.0074 0.0045-0.02384-0.0044-0.03125 0-0.23204 0.13873-0.46255 0.27478-0.71875 0.375 0.30153-0.0968 0.59646-0.20414 0.875-0.34375 0.55709-0.27922 1.0601-0.66569 1.5-1.0938 0.21997-0.21403 0.40937-0.44186 0.59375-0.6875s0.35541-0.50774 0.5-0.78125c0.14012-0.26505 0.27614-0.52473 0.375-0.8125 0.01041-0.03078 0.02133-0.06274 0.03125-0.09375 0.09046-0.27808 0.1388-0.5794 0.1875-0.875 0.0524-0.31805 0.09375-0.63403 0.09375-0.96875v-2-68-2c0-3.324-2.676-6-6-6h-72z" fill="url(#linearGradient3188)"/>
  <path id="path3615" d="m12 90c-3.324 0-6-2.676-6-6v-2-68-2c0-0.33472 0.04135-0.6507 0.09375-0.96875 0.0487-0.2956 0.09704-0.59692 0.1875-0.875 0.00988-0.03038 0.020892-0.0636 0.03125-0.09375 0.098865-0.28777 0.23488-0.54745 0.375-0.8125 0.14459-0.27351 0.31562-0.53562 0.5-0.78125s0.37378-0.47347 0.59375-0.6875c0.43995-0.42806 0.94291-0.81453 1.5-1.0938 0.27854-0.13961 0.57347-0.24695 0.875-0.34375-0.2562 0.10022-0.48671 0.23627-0.71875 0.375-0.00741 0.0044-0.023866-0.0045-0.03125 0-0.031933 0.0193-0.062293 0.04251-0.09375 0.0625-0.1204 0.0767-0.23102 0.16351-0.34375 0.25-0.10617 0.0808-0.21328 0.16111-0.3125 0.25-0.17793 0.16143-0.34746 0.34539-0.5 0.53125-0.10758 0.13026-0.21839 0.26528-0.3125 0.40625-0.025089 0.03838-0.038446 0.08587-0.0625 0.125-0.064763 0.10303-0.13023 0.20452-0.1875 0.3125-0.10101 0.19471-0.20567 0.4157-0.28125 0.625-0.00796 0.02181-0.023589 0.04055-0.03125 0.0625-0.031825 0.09195-0.035804 0.18683-0.0625 0.28125-0.030332 0.10662-0.070389 0.20303-0.09375 0.3125-0.072879 0.34151-0.125 0.6982-0.125 1.0625v2 68 2c0 2.7818 2.2182 5 5 5h2 68 2c2.7818 0 5-2.2182 5-5v-2-68-2c0-0.3643-0.05212-0.72099-0.125-1.0625-0.04415-0.20689-0.08838-0.39766-0.15625-0.59375-0.0077-0.02195-0.0233-0.04069-0.03125-0.0625-0.06274-0.17374-0.13838-0.36745-0.21875-0.53125-0.04158-0.0828-0.07904-0.16995-0.125-0.25-0.0546-0.09721-0.12677-0.18835-0.1875-0.28125-0.09411-0.14096-0.20492-0.276-0.3125-0.40625-0.14317-0.17445-0.30314-0.347-0.46875-0.5-0.01117-0.0102-0.01998-0.02115-0.03125-0.03125-0.13839-0.12556-0.28509-0.23444-0.4375-0.34375-0.10257-0.07315-0.20432-0.15336-0.3125-0.21875-0.0074-0.0045-0.02384 0.0044-0.03125 0-0.23204-0.13873-0.46255-0.27478-0.71875-0.375 0.30153 0.0968 0.59646 0.20414 0.875 0.34375 0.55709 0.27922 1.0601 0.66569 1.5 1.0938 0.21997 0.21403 0.40937 0.44186 0.59375 0.6875s0.35541 0.50774 0.5 0.78125c0.14012 0.26505 0.27614 0.52473 0.375 0.8125 0.01041 0.03078 0.02133 0.06274 0.03125 0.09375 0.09046 0.27808 0.1388 0.5794 0.1875 0.875 0.0524 0.31805 0.09375 0.63403 0.09375 0.96875v2 68 2c0 3.324-2.676 6-6 6h-72z" fill="url(#radialGradient3619)" opacity=".6"/>
  <rect id="rect2841" x="6" y="106" width="84" height="84" rx="6" ry="6" fill="url(#linearGradient2843)"/>
  <rect id="rect3634" x="10" y="110" width="76" height="76" rx="4" ry="4" fill="#f00"/>
  <path id="rect3647" transform="translate(-110)" d="m14 9c-2.7527 0-5 2.2473-5 5v68c0 2.7527 2.2473 5 5 5h68c2.7527 0 5-2.2473 5-5v-68c0-2.7527-2.2473-5-5-5h-68zm0 2h68c1.6793 0 3 1.3207 3 3v68c0 1.6793-1.3207 3-3 3h-68c-1.6793 0-3-1.3207-3-3v-68c0-1.6793 1.3207-3 3-3z" clip-path="url(#clipPath3649)" color="#000000" display="inline" filter="url(#filter3657)" style="block-progression:tb;text-indent:0;text-transform:none"/>
  <path id="path3709" d="m14.089 10c-2.216 0-4 1.784-4 4v68c0 2.216 1.784 4 4 4h68c2.216 0 4-1.784 4-4v-68c0-2.216-1.784-4-4-4h-68zm0 2h68c1.1403 0 2 0.8597 2 2v68c0 1.1403-0.8597 2-2 2h-68c-1.1403 0-2-0.8597-2-2v-68c0-1.1403 0.8597-2 2-2z" opacity=".16"/>
  <path id="path3707" d="m14 10c-2.216 0-4 1.784-4 4v68c0 2.216 1.784 4 4 4h68c2.216 0 4-1.784 4-4v-68c0-2.216-1.784-4-4-4h-68zm0 1h68c1.6738 0 3 1.3262 3 3v68c0 1.6738-1.3262 3-3 3h-68c-1.6738 0-3-1.3262-3-3v-68c0-1.6738 1.3262-3 3-3z" opacity=".36"/>
 </g>
 <g id="layer4">
  <rect id="rect2419-9" x="6" y="6" width="84" height="84" rx="6" ry="6" opacity=".6"/>
  <path id="rect3728-4" d="m12 6c-3.324 0-6 2.676-6 6v2 68 2c0 0.33472 0.04135 0.6507 0.09375 0.96875 0.0487 0.2956 0.09704 0.59692 0.1875 0.875 0.00988 0.03038 0.020892 0.0636 0.03125 0.09375 0.098865 0.28777 0.23488 0.54745 0.375 0.8125 0.14459 0.27351 0.31562 0.53562 0.5 0.78125s0.37378 0.47347 0.59375 0.6875c0.43995 0.42806 0.94291 0.81453 1.5 1.0938 0.27854 0.13961 0.57347 0.24695 0.875 0.34375-0.2562-0.10022-0.48671-0.23627-0.71875-0.375-0.00741-0.0044-0.023866 0.0045-0.03125 0-0.031933-0.0193-0.062293-0.04251-0.09375-0.0625-0.1204-0.0767-0.23102-0.16351-0.34375-0.25-0.10617-0.0808-0.21328-0.16111-0.3125-0.25-0.17793-0.16143-0.34746-0.34539-0.5-0.53125-0.10758-0.13026-0.21839-0.26528-0.3125-0.40625-0.025089-0.03838-0.038446-0.08587-0.0625-0.125-0.064763-0.10303-0.13023-0.20452-0.1875-0.3125-0.10101-0.19471-0.20567-0.4157-0.28125-0.625-0.00796-0.02181-0.023589-0.04055-0.03125-0.0625-0.031825-0.09195-0.035804-0.18683-0.0625-0.28125-0.030332-0.10662-0.070389-0.20303-0.09375-0.3125-0.072879-0.34151-0.125-0.6982-0.125-1.0625v-2-68-2c0-2.7818 2.2182-5 5-5h2 68 2c2.7818 0 5 2.2182 5 5v2 68 2c0 0.3643-0.05212 0.72099-0.125 1.0625-0.04415 0.20689-0.08838 0.39766-0.15625 0.59375-0.0077 0.02195-0.0233 0.04069-0.03125 0.0625-0.06274 0.17374-0.13838 0.36745-0.21875 0.53125-0.04158 0.0828-0.07904 0.16995-0.125 0.25-0.0546 0.09721-0.12677 0.18835-0.1875 0.28125-0.09411 0.14096-0.20492 0.276-0.3125 0.40625-0.14317 0.17445-0.30314 0.347-0.46875 0.5-0.01117 0.0102-0.01998 0.02115-0.03125 0.03125-0.13839 0.12556-0.28509 0.23444-0.4375 0.34375-0.10257 0.07315-0.20432 0.15336-0.3125 0.21875-0.0074 0.0045-0.02384-0.0044-0.03125 0-0.23204 0.13873-0.46255 0.27478-0.71875 0.375 0.30153-0.0968 0.59646-0.20414 0.875-0.34375 0.55709-0.27922 1.0601-0.66569 1.5-1.0938 0.21997-0.21403 0.40937-0.44186 0.59375-0.6875s0.35541-0.50774 0.5-0.78125c0.14012-0.26505 0.27614-0.52473 0.375-0.8125 0.01041-0.03078 0.02133-0.06274 0.03125-0.09375 0.09046-0.27808 0.1388-0.5794 0.1875-0.875 0.0524-0.31805 0.09375-0.63403 0.09375-0.96875v-2-68-2c0-3.324-2.676-6-6-6h-72z" fill="url(#linearGradient3188)" opacity=".01"/>
  <path id="path3615-6" d="m12 90c-3.324 0-6-2.676-6-6v-2-68-2c0-0.33472 0.04135-0.6507 0.09375-0.96875 0.0487-0.2956 0.09704-0.59692 0.1875-0.875 0.00988-0.03038 0.020892-0.0636 0.03125-0.09375 0.098865-0.28777 0.23488-0.54745 0.375-0.8125 0.14459-0.27351 0.31562-0.53562 0.5-0.78125s0.37378-0.47347 0.59375-0.6875c0.43995-0.42806 0.94291-0.81453 1.5-1.0938 0.27854-0.13961 0.57347-0.24695 0.875-0.34375-0.2562 0.10022-0.48671 0.23627-0.71875 0.375-0.00741 0.0044-0.023866-0.0045-0.03125 0-0.031933 0.0193-0.062293 0.04251-0.09375 0.0625-0.1204 0.0767-0.23102 0.16351-0.34375 0.25-0.10617 0.0808-0.21328 0.16111-0.3125 0.25-0.17793 0.16143-0.34746 0.34539-0.5 0.53125-0.10758 0.13026-0.21839 0.26528-0.3125 0.40625-0.025089 0.03838-0.038446 0.08587-0.0625 0.125-0.064763 0.10303-0.13023 0.20452-0.1875 0.3125-0.10101 0.19471-0.20567 0.4157-0.28125 0.625-0.00796 0.02181-0.023589 0.04055-0.03125 0.0625-0.031825 0.09195-0.035804 0.18683-0.0625 0.28125-0.030332 0.10662-0.070389 0.20303-0.09375 0.3125-0.072879 0.34151-0.125 0.6982-0.125 1.0625v2 68 2c0 2.7818 2.2182 5 5 5h2 68 2c2.7818 0 5-2.2182 5-5v-2-68-2c0-0.3643-0.05212-0.72099-0.125-1.0625-0.04415-0.20689-0.08838-0.39766-0.15625-0.59375-0.0077-0.02195-0.0233-0.04069-0.03125-0.0625-0.06274-0.17374-0.13838-0.36745-0.21875-0.53125-0.04158-0.0828-0.07904-0.16995-0.125-0.25-0.0546-0.09721-0.12677-0.18835-0.1875-0.28125-0.09411-0.14096-0.20492-0.276-0.3125-0.40625-0.14317-0.17445-0.30314-0.347-0.46875-0.5-0.01117-0.0102-0.01998-0.02115-0.03125-0.03125-0.13839-0.12556-0.28509-0.23444-0.4375-0.34375-0.10257-0.07315-0.20432-0.15336-0.3125-0.21875-0.0074-0.0045-0.02384 0.0044-0.03125 0-0.23204-0.13873-0.46255-0.27478-0.71875-0.375 0.30153 0.0968 0.59646 0.20414 0.875 0.34375 0.55709 0.27922 1.0601 0.66569 1.5 1.0938 0.21997 0.21403 0.40937 0.44186 0.59375 0.6875s0.35541 0.50774 0.5 0.78125c0.14012 0.26505 0.27614 0.52473 0.375 0.8125 0.01041 0.03078 0.02133 0.06274 0.03125 0.09375 0.09046 0.27808 0.1388 0.5794 0.1875 0.875 0.0524 0.31805 0.09375 0.63403 0.09375 0.96875v2 68 2c0 3.324-2.676 6-6 6h-72z" fill="url(#radialGradient3619-3)" opacity=".15"/>
 </g>
 <g id="layer5" display="none">
  <rect id="rect3171" x="15" y="15" width="66" height="66" rx="12" ry="12" clip-path="url(#clipPath3613)" fill="url(#linearGradient3613)" filter="url(#filter3794)" opacity=".1" stroke="#fff" stroke-linecap="round" stroke-width=".5"/>
 </g>
 <g id="layer6">
  <path id="path3932" d="m33.75 23c-2.4061 0.40902-4.0686 2.8256-3.75 5.2273 0.02111 4.3919-0.04206 8.7922 0.03125 13.179 0.37935 2.3578 2.6556 3.6309 4.1122 5.331l4.3253 4.3253c-2.9432-0.14408-5.9192-0.022478-8.875-0.0625-1.5321 0.31784-1.7422 2.0046-1.5938 3.2983v4.7017c-2.1945 0.05888-4.418-0.12008-6.5938 0.09375-1.88 0.56352-1.3325 2.7903-1.4062 4.2819 0.06007 2.0692-0.12181 4.1678 0.09375 6.2181 0.56352 1.88 2.7903 1.3325 4.2819 1.4062h3.6244c0.05888 2.1945-0.12008 4.418 0.09375 6.5938 0.56352 1.88 2.7903 1.3325 4.2819 1.4062 2.0692-0.06006 4.1678 0.12181 6.2181-0.09375 1.88-0.56352 1.3325-2.7903 1.4062-4.2819v-3.6244c2.1945-0.05888 4.418 0.12008 6.5938-0.09375 1.88-0.56352 1.3325-2.7903 1.4062-4.2819-0.04147-2.0285 0.08314-4.0774-0.0625-6.0931 2.6084 2.545 5.1016 5.2279 7.7812 7.6875 0.24212 0.15874 1.2257 0.70941 1.875 0.71875 1.0379 0.23376 2.5886-0.25755 3.1195-0.68493 2.8962-2.5992 5.5407-5.4969 8.3395-8.2116l5.8848-5.8848c0.18169-0.24693 0.76296-0.9917 0.90625-1.7812 0.31195-1.2482 0.09023-2.635-0.64296-3.6736-0.21604-0.33617-1.1442-1.2435-1.6644-1.7588-7.6935-7.6728-15.352-15.394-23.068-23.036-1.9655-1.461-4.5537-0.73002-6.8365-0.90625-3.2941 2e-6 -6.5882-2e-6 -9.8822 0zm8.75 10c4.2948-0.02805 2.1786 7.0042-1.4128 4.5819-2.0187-1.2624-1.0077-4.7113 1.4128-4.5819zm-2.5625 19.531 6.5312 6.5312c-2.1412-0.14376-4.3149-0.022352-6.4688-0.0625-0.04048-2.1532 0.08174-4.3286-0.0625-6.4688z" opacity=".1"/>
  <path id="path3928" d="m33.969 24.062a0.9318 0.9318 0 0 0-0.0625 0.03125c-0.04588 0.0085-0.26754 0.05003-0.3125 0.0625s-0.23756 0.07737-0.28125 0.09375c-0.04369 0.01638-0.23917 0.10484-0.28125 0.125-0.04208 0.02015-0.24111 0.10122-0.28125 0.125-0.04014 0.02378-0.21211 0.16029-0.25 0.1875-0.03789 0.02721-0.1834 0.15706-0.21875 0.1875-0.03535 0.03044-0.21747 0.15407-0.25 0.1875-0.03253 0.03343-0.15804 0.21384-0.1875 0.25-0.02946 0.03616-0.16134 0.18014-0.1875 0.21875-0.02616 0.03861-0.13358 0.24049-0.15625 0.28125-0.02267 0.04076-0.10601 0.20741-0.125 0.25-0.01899 0.04259-0.10983 0.23716-0.125 0.28125-0.01517 0.04409-0.08252 0.26724-0.09375 0.3125-0.01123 0.04526-0.05529 0.23518-0.0625 0.28125-0.0072 0.04607-0.02812 0.26598-0.03125 0.3125-0.0028 0.04187 9.9e-5 0.21271 0 0.28125-1.1e-5 0.0076-9.8e-5 0.02659 0 0.03125v13.188c1.28e-4 0.02604-0.0014 0.1615 0 0.1875 0.0014 0.026 0.02856 0.13035 0.03125 0.15625 0.0027 0.0259-4e-3 0.13051 0 0.15625 4e-3 0.02574 0.02603 0.16199 0.03125 0.1875 0.0052 0.02551 0.05603 0.13102 0.0625 0.15625 0.0065 0.02523 0.02355 0.13137 0.03125 0.15625 0.0077 0.02488 0.05359 0.13178 0.0625 0.15625 0.0089 0.02447 0.05239 0.13225 0.0625 0.15625 0.01011 0.024 0.05122 0.13277 0.0625 0.15625 0.01128 0.02348 0.08133 0.13336 0.09375 0.15625 0.01242 0.02289 0.04897 0.13399 0.0625 0.15625 0.01353 0.02226 0.07914 0.13468 0.09375 0.15625 0.01461 0.02157 0.0781 0.10418 0.09375 0.125 0.01565 0.02082 0.10834 0.10497 0.125 0.125 0.01666 0.02003 0.07613 0.10581 0.09375 0.125 0.01762 0.01919 0.10646 0.1067 0.125 0.125l23.719 23.719c0.01838 0.01835 0.10574 0.10757 0.125 0.125 0.01926 0.01743 0.10491 0.07729 0.125 0.09375 0.02009 0.01646 0.10412 0.10954 0.125 0.125 0.02087 0.01546 0.13464 0.07933 0.15625 0.09375 0.02161 0.01442 0.10271 0.08041 0.125 0.09375s0.13333 0.05027 0.15625 0.0625c0.02292 0.01223 0.13276 0.08265 0.15625 0.09375s0.13224 0.05257 0.15625 0.0625c0.02401 0.0099 0.13178 0.05376 0.15625 0.0625 0.02446 0.0087 0.13138 0.05497 0.15625 0.0625 0.02486 0.0075 0.13105 0.02494 0.15625 0.03125 0.0252 0.0063 0.13077 0.02619 0.15625 0.03125 0.02548 0.0051 0.1618 0.02744 0.1875 0.03125 0.0257 0.0038 0.13039 0.02871 0.15625 0.03125 0.02586 0.0025 0.16155-0.0013 0.1875 0 0.02595 0.0013 0.13027 0 0.15625 0 0.02598 0 0.1303 0.0013 0.15625 0 0.02595-0.0013 0.16164 0.0025 0.1875 0 0.02586-0.0025 0.13055-0.02744 0.15625-0.03125 0.0257-0.0038 0.16202-0.02619 0.1875-0.03125 0.02548-0.0051 0.13105-0.02494 0.15625-0.03125 0.0252-0.0063 0.13138-0.02372 0.15625-0.03125 0.02486-0.0075 0.13178-0.05376 0.15625-0.0625 0.02446-0.0087 0.13224-0.05257 0.15625-0.0625 0.02401-0.0099 0.13276-0.0514 0.15625-0.0625s0.13333-0.08152 0.15625-0.09375c0.02292-0.01223 0.13396-0.04916 0.15625-0.0625s0.10339-0.07933 0.125-0.09375c0.02161-0.01442 0.13538-0.07829 0.15625-0.09375 0.02087-0.01546 0.10491-0.10854 0.125-0.125 0.02009-0.01646 0.10574-0.07632 0.125-0.09375 0.01926-0.01743 0.10662-0.10665 0.125-0.125l13.219-13.219c0.01837-0.01838 0.10756-0.10574 0.125-0.125 0.01744-0.01926 0.07727-0.10491 0.09375-0.125 0.01648-0.02009 0.10953-0.10413 0.125-0.125 0.01547-0.02087 0.07932-0.13465 0.09375-0.15625 0.01443-0.0216 0.0804-0.10272 0.09375-0.125 0.01335-0.02228 0.05026-0.13334 0.0625-0.15625 0.01224-0.02291 0.08265-0.13277 0.09375-0.15625 0.0111-0.02348 0.05256-0.13225 0.0625-0.15625 0.0099-0.024 0.05375-0.13179 0.0625-0.15625 0.0087-0.02446 0.05496-0.13139 0.0625-0.15625 0.0075-0.02486 0.02494-0.13105 0.03125-0.15625 0.0063-0.0252 0.02618-0.13078 0.03125-0.15625 0.0051-0.02548 0.02744-0.16181 0.03125-0.1875 0.0038-0.02569 0.02871-0.1304 0.03125-0.15625 0.0025-0.02585-0.0013-0.16156 0-0.1875 0.0013-0.02594 0-0.13028 0-0.15625 0-0.02597 0.0013-0.13031 0-0.15625-0.0013-0.02594 0.0025-0.16165 0-0.1875-0.0025-0.02585-0.02744-0.13056-0.03125-0.15625-0.0038-0.02569-0.02618-0.16202-0.03125-0.1875-0.0051-0.02548-0.02494-0.13105-0.03125-0.15625-0.0063-0.0252-0.02371-0.13139-0.03125-0.15625-0.0075-0.02486-0.05375-0.13179-0.0625-0.15625-0.0087-0.02446-0.05256-0.13225-0.0625-0.15625-0.0099-0.024-0.0514-0.13277-0.0625-0.15625-0.0111-0.02348-0.08151-0.13334-0.09375-0.15625-0.01224-0.02291-0.04915-0.13397-0.0625-0.15625-0.01335-0.02228-0.07932-0.1034-0.09375-0.125-0.01443-0.0216-0.07828-0.13538-0.09375-0.15625s-0.10852-0.10491-0.125-0.125c-0.01648-0.02009-0.07631-0.10574-0.09375-0.125-0.01744-0.01926-0.10663-0.10662-0.125-0.125l-23.719-23.719c-0.0183-0.01854-0.10581-0.10738-0.125-0.125-0.01919-0.01761-0.10497-0.0771-0.125-0.09375-0.02003-0.01665-0.10418-0.10935-0.125-0.125-0.02082-0.01565-0.10343-0.07915-0.125-0.09375-0.02157-0.0146-0.13399-0.08022-0.15625-0.09375-0.02226-0.01353-0.13335-0.05008-0.15625-0.0625s-0.13277-0.08247-0.15625-0.09375c-0.02348-0.01128-0.13224-0.05239-0.15625-0.0625s-0.13177-0.05358-0.15625-0.0625c-0.02448-0.0089-0.13136-0.0548-0.15625-0.0625-0.02489-0.0077-0.13101-0.02478-0.15625-0.03125-0.02524-0.0065-0.13073-0.05728-0.15625-0.0625-0.02552-0.0052-0.16175-0.02729-0.1875-0.03125-0.02575-4e-3 -0.13034 0.0027-0.15625 0-0.02591-0.0027-0.13023-0.02983-0.15625-0.03125-0.02602-0.0014-0.16145 1.35e-4 -0.1875 0h-13.125c-0.01473-0.0014-0.05716 2e-3 -0.09375 0-0.08538-0.0046-0.18422 0-0.21875 0-0.04933 0-0.29464-0.0046-0.34375 0zm8.5312 7.875c1.9826 0 3.5625 1.5805 3.5625 3.5625 0 1.982-1.5799 3.5625-3.5625 3.5625s-3.5625-1.5805-3.5625-3.5625c0-1.982 1.5799-3.5625 3.5625-3.5625zm-12.594 20.125a0.9318 0.9318 0 0 0-0.84375 0.9375v7.0625h-7.0625a0.9318 0.9318 0 0 0-0.9375 0.9375v8a0.9318 0.9318 0 0 0 0.9375 0.9375h7.0625v7.0625a0.9318 0.9318 0 0 0 0.9375 0.9375h8a0.9318 0.9318 0 0 0 0.9375-0.9375v-7.0625h7.0625a0.9318 0.9318 0 0 0 0.9375-0.9375v-8a0.9318 0.9318 0 0 0-0.9375-0.9375h-7.0625v-7.0625a0.9318 0.9318 0 0 0-0.9375-0.9375h-8a0.9318 0.9318 0 0 0-0.09375 0z" opacity=".15"/>
  <path id="path3922" d="m34.062 25a2.5208 2.5201 0 0 0-2.0625 2.5312v13.219a2.5208 2.5201 0 0 0 0.75 1.7812l23.719 23.719a2.5208 2.5201 0 0 0 3.5625 0l13.219-13.219a2.5208 2.5201 0 0 0 0-3.5625l-23.719-23.719a2.5208 2.5201 0 0 0-1.7812-0.75h-13.219a2.5208 2.5201 0 0 0-0.46875 0zm8.4375 6c2.486 0 4.5 2.0146 4.5 4.5 0 2.4854-2.014 4.5-4.5 4.5s-4.5-2.0146-4.5-4.5c0-2.4854 2.014-4.5 4.5-4.5zm-12.5 22v8h-8v8h8v8h8v-8h8v-8h-8v-8h-8z" opacity=".3"/>
  <rect id="rect3897" transform="matrix(0,1,1,0,0,0)" y="104" width="16" height="16" color="#000000" fill="url(#linearGradient3905)"/>
  <text id="text3907" x="104" y="48" fill="#000000" font-family="Liberation Sans" font-size="4px" letter-spacing="0px" word-spacing="0px" style="line-height:125%" xml:space="preserve"><tspan id="tspan3909" x="104" y="48">Shadow opacity : 30, 15, 10, (8)</tspan></text>
  <rect id="rect3911" transform="rotate(-90)" x="-40" y="104" width="16" height="16" color="#000000" fill="url(#linearGradient3913)"/>
  <text id="text3951" x="124" y="32" fill="#000000" font-family="Liberation Sans" font-size="4px" letter-spacing="0px" word-spacing="0px" style="line-height:125%" xml:space="preserve"><tspan id="tspan3953" x="124" y="32">Bevel opacity : 30 / 10</tspan></text>
  <text id="text3955" x="124" y="8" fill="#000000" font-family="Liberation Sans" font-size="4px" letter-spacing="0px" word-spacing="0px" style="line-height:125%" xml:space="preserve"><tspan id="tspan3957" x="124" y="8">Bevel opacity : 75 / 15</tspan></text>
  <path id="path3102" d="m34.062 24a2.5208 2.5201 0 0 0-2.0625 2.5312v13.219a2.5208 2.5201 0 0 0 0.75 1.7812l23.719 23.719a2.5208 2.5201 0 0 0 3.5625 0l13.219-13.219a2.5208 2.5201 0 0 0 0-3.5625l-23.719-23.719a2.5208 2.5201 0 0 0-1.7812-0.75h-13.219a2.5208 2.5201 0 0 0-0.46875 0zm8.4375 6c2.486 0 4.5 2.0146 4.5 4.5 0 2.4854-2.014 4.5-4.5 4.5s-4.5-2.0146-4.5-4.5c0-2.4854 2.014-4.5 4.5-4.5zm-12.5 22v8h-8v8h8v8h8v-8h8v-8h-8v-8h-8z" fill="url(#linearGradient3133)"/>
  <path id="path3136" d="m34.062 24a2.5208 2.5201 0 0 0-2.0625 2.5312v0.71875a2.5208 2.5201 0 0 1 2.0625-2.25 2.5208 2.5201 0 0 1 0.46875 0h13.219a2.5208 2.5201 0 0 1 1.7812 0.75l23.719 23.719a2.5208 2.5201 0 0 1 0.6875 1.25 2.5208 2.5201 0 0 0-0.6875-2.25l-23.719-23.719a2.5208 2.5201 0 0 0-1.7812-0.75h-13.219a2.5208 2.5201 0 0 0-0.46875 0zm4 11c-0.018734 0.16678-0.0625 0.32822-0.0625 0.5 0 2.4854 2.014 4.5 4.5 4.5s4.5-2.0146 4.5-4.5c0-0.17178-0.04377-0.33322-0.0625-0.5-0.25231 2.2462-2.1233 4-4.4375 4s-4.1852-1.7538-4.4375-4zm-8.0625 17v1h8v-1h-8zm-8 8v1h8v-1h-8zm16 0v1h8v-1h-8z" fill="#fff" opacity=".75"/>
  <path id="path3913" d="m42.5 29c-2.486 0-4.5 2.0146-4.5 4.5 0 0.17178 0.04377 0.33322 0.0625 0.5 0.25231-2.2462 2.1233-4 4.4375-4s4.1852 1.7538 4.4375 4c0.018734-0.16678 0.0625-0.32822 0.0625-0.5 0-2.4854-2.014-4.5-4.5-4.5zm-10.5 10v0.75a2.5208 2.5201 0 0 0 0.75 1.7812l23.719 23.719a2.5208 2.5201 0 0 0 3.5625 0l13.219-13.219a2.5208 2.5201 0 0 0 0.6875-2.3125 2.5208 2.5201 0 0 1-0.6875 1.3125l-13.219 13.219a2.5208 2.5201 0 0 1-3.5625 0l-23.719-23.719a2.5208 2.5201 0 0 1-0.75-1.5312zm-10 28v1h8v-1h-8zm16 0v1h8v-1h-8zm-8 8v1h8v-1h-8z" opacity=".15"/>
 </g>
</svg>
