<?xml version="1.0" encoding="UTF-8"?>
<svg id="svg23" width="16" height="16" version="1.1" xmlns="http://www.w3.org/2000/svg" xmlns:cc="http://creativecommons.org/ns#" xmlns:dc="http://purl.org/dc/elements/1.1/" xmlns:rdf="http://www.w3.org/1999/02/22-rdf-syntax-ns#">
 <metadata id="metadata27">
  <rdf:RDF>
   <cc:Work rdf:about="">
    <dc:format>image/svg+xml</dc:format>
    <dc:type rdf:resource="http://purl.org/dc/dcmitype/StillImage"/>
   </cc:Work>
  </rdf:RDF>
 </metadata>
 <defs id="defs7">
  <linearGradient id="gr0" x1="8" x2="8" y1="1" y2="15" gradientUnits="userSpaceOnUse">
   <stop id="stop2" stop-color="#ebebeb" offset="0"/>
   <stop id="stop4" stop-color="#aaa" offset="1"/>
  </linearGradient>
 </defs>
 <path id="path9" d="m3.5 0c-1.3677 0-2.5 1.1323-2.5 2.5v0.5a1 1.0001 0 0 0 0.019531 0.20312c-0.5611 0.21907-1.0195 0.66855-1.0195 1.2969 0 0.38571 0.17299 0.73107 0.42188 1-0.24888 0.26893-0.42188 0.61429-0.42188 1s0.17299 0.73107 0.42188 1c-0.24888 0.26893-0.42188 0.61429-0.42188 1s0.17299 0.73107 0.42188 1c-0.24888 0.26893-0.42188 0.61429-0.42188 1 0 0.62923 0.45913 1.0804 1.0215 1.2988a1.0001 1.0001 0 0 0-0.021484 0.20117v1.5c0 1.3677 1.1323 2.5 2.5 2.5h10c1.3677 0 2.5-1.1323 2.5-2.5v-11c0-1.3677-1.1323-2.5-2.5-2.5zm1.2891 4h1.0078c-0.15306 0.11713-0.34212 0.18196-0.47852 0.31836-0.28282 0.28282-0.46293 0.64443-0.66016 0.99219 0.1709-0.24331 0.3418-0.49793 0.3418-0.81055 0-0.19285-0.14128-0.3289-0.21094-0.5zm3.7109 0c-0.10184 0 0.09377 0.0063 0.23633 0.023437l0.20117 0.875a1.0001 1.0001 0 0 0 0.54883-0.74023c0.24964 0.076987 0.50011 0.16814 0.35352 0.10742-0.2721-0.11271 0.85036 0.48785 0.60547 0.32422-0.24489-0.16363 0.73756 0.64381 0.5293 0.43555-0.20826-0.20826 0.59918 0.77418 0.43555 0.5293s0.43693 0.87757 0.32422 0.60547c-0.11271-0.2721 0.25668 0.94512 0.19922 0.65625-0.05401-0.27154 0.04947 0.75395 0.0625 0.64258-5e-6 0.057679-2e-6 0.072768 0 0.13086v0.00195c-1.18e-4 -0.0032 1.48e-4 0.00479 0 0.00195v0.00195c-0.0042-0.05666 0.02514-0.25772-2e-3 0.044922l-2e-3 0.023437c-0.08779 0.79782-0.6899 1.3367-1.4922 1.3359-6.17e-4 0-0.0013 9e-7 -2e-3 0-0.37515-5.362e-4 -0.72563-0.17926-0.99805-0.43555-0.27286 0.25671-0.62418 0.43555-1 0.43555-0.7854 0-1.5-0.7146-1.5-1.5s0.7146-1.5 1.5-1.5 1.5 0.7146 1.5 1.5h1c0-1.309-1.191-2.5-2.5-2.5s-2.5 1.191-2.5 2.5 1.191 2.5 2.5 2.5v1c0.29452 0-0.97246-0.12386-0.68359-0.06641 0.28887 0.05746-0.92835-0.31193-0.65625-0.19922 0.2721 0.11271-0.85036-0.48785-0.60547-0.32422s-0.73756-0.64381-0.5293-0.43555c0.20826 0.20826-0.59918-0.77418-0.43555-0.5293 0.16363 0.24489-0.43693-0.87757-0.32422-0.60547 0.11271 0.2721-0.25668-0.94512-0.19922-0.65625 0.057459 0.28887-0.066406-0.97812-0.066406-0.68359s0.12387-0.97246 0.066406-0.68359c-0.057459 0.28887 0.31193-0.92835 0.19922-0.65625-0.11271 0.2721 0.48785-0.85036 0.32422-0.60547-0.16363 0.24489 0.64381-0.73756 0.43555-0.5293-0.20826 0.20826 0.77418-0.59918 0.5293-0.43555-0.24489 0.16363 0.87757-0.43693 0.60547-0.32422-0.2721 0.11271 0.94512-0.25668 0.65625-0.19922-0.28887 0.057459 0.97812-0.066406 0.68359-0.066406zm2.7188 0h0.78125v0.80469c-0.13739-0.18011-0.22507-0.39582-0.38867-0.55273-0.11296-0.10834-0.26875-0.15641-0.39258-0.25195zm1.7676 3.248 0.0059 0.058594c-2.05e-4 -0.00476-0.0037-0.00891-0.0039-0.013672-0.0013-0.014977-4.21e-4 -0.02997-2e-3 -0.044922zm-0.98828 0.23047c1.94e-4 -0.00514 0.0019 0.024709 2e-3 0.017578 8e-6 -0.00157 0 0.00557 0 0.00391 0.0053 0.15751-0.0091 0.10944-2e-3 0.039063-4.2e-5 -0.052783 4e-5 -0.013176 0-0.060547zm2e-3 1.8672v2.6543h-1.5c0.8137 0 1.5-0.6863 1.5-1.5 0-0.37604-0.17412-0.70815-0.41211-0.97461 0.13382-0.075722 0.29277-0.081763 0.41211-0.17969zm-7.3418 0.34375c0.19723 0.34776 0.37733 0.70936 0.66016 0.99219 0.83304 0.83304 2.0035 1.3184 3.1816 1.3184h-3.5a1.0001 1.0001 0 0 0-0.32227-0.73438c0.15397-0.23498 0.32227-0.47042 0.32227-0.76562 0-0.31261-0.1709-0.56724-0.3418-0.81055z" opacity=".25"/>
 <path id="base" d="m3.5 1c-0.831 0-1.5 0.669-1.5 1.5v0.5h10.5c0.277 0 0.5 0.223 0.5 0.5v9c0 0.277-0.223 0.5-0.5 0.5h-8c-0.277 0-0.5-0.223-0.5-0.5v-0.5h-2v1.5c0 0.831 0.669 1.5 1.5 1.5h10c0.831 0 1.5-0.669 1.5-1.5v-11c0-0.831-0.669-1.5-1.5-1.5h-10zm-2 3c-0.277 0-0.5 0.223-0.5 0.5s0.223 0.5 0.5 0.5h2c0.277 0 0.5-0.223 0.5-0.5s-0.223-0.5-0.5-0.5h-2zm7 0a3.5 3.5 0 0 0-3.5 3.5 3.5 3.5 0 0 0 3.5 3.5h2c0.277 0 0.5-0.223 0.5-0.5s-0.223-0.5-0.5-0.5h-2a2.5 2.5 0 0 1-2.5-2.5 2.5 2.5 0 0 1 2.5-2.5 2.5 2.5 0 0 1 2.5 2.5 0.5 0.5 0 0 1-0.001953 0.050781 2.5 2.5 0 0 1 0 0.0039063 0.5 0.5 0 0 1-0.49805 0.44531 0.5 0.5 0 0 1-0.5-0.5 1.5 1.5 0 0 0-1.5-1.5 1.5 1.5 0 0 0-1.5 1.5 1.5 1.5 0 0 0 1.5 1.5 1.5 1.5 0 0 0 1-0.38477 1.5 1.5 0 0 0 1 0.38477 1.5 1.5 0 0 0 1.5-1.5 1.5 1.5 0 0 0-0.007812-0.15039 3.5 3.5 0 0 0-3.4922-3.3496zm-7 2c-0.277 0-0.5 0.223-0.5 0.5s0.223 0.5 0.5 0.5h2c0.277 0 0.5-0.223 0.5-0.5s-0.223-0.5-0.5-0.5h-2zm7 1a0.5 0.5 0 0 1 0.5 0.5 0.5 0.5 0 0 1-0.5 0.5 0.5 0.5 0 0 1-0.5-0.5 0.5 0.5 0 0 1 0.5-0.5zm-7 1c-0.277 0-0.5 0.223-0.5 0.5s0.223 0.5 0.5 0.5h2c0.277 0 0.5-0.223 0.5-0.5s-0.223-0.5-0.5-0.5h-2zm0 2c-0.277 0-0.5 0.223-0.5 0.5s0.223 0.5 0.5 0.5h2c0.277 0 0.5-0.223 0.5-0.5s-0.223-0.5-0.5-0.5h-2z" fill="url(#gr0)"/>
 <path id="path13" d="m3.5 1c-0.831 0-1.5 0.669-1.5 1.5v0.5h0.091797c0.20601-0.58192 0.75396-1 1.4082-1h10c0.831 0 1.5 0.669 1.5 1.5v-1c0-0.831-0.669-1.5-1.5-1.5h-10zm-2 3c-0.277 0-0.5 0.223-0.5 0.5s0.223 0.5 0.5 0.5h2c0.277 0 0.5-0.223 0.5-0.5s-0.223-0.5-0.5-0.5h-1.5-0.5zm7 0a3.5 3.5 0 0 0-3.5 3.5 3.5 3.5 0 0 0 0.039062 0.49414 3.5 3.5 0 0 1 3.2422-2.9824 2.5 2.5 0 0 1 0.21875-0.011719 3.5 3.5 0 0 1 0.16602 0.0078125 2.5 2.5 0 0 1 0.11719 0.0097656 3.5 3.5 0 0 1 3.1582 2.8945 1.5 1.5 0 0 0 0.058594-0.41211 1.5 1.5 0 0 0-0.007812-0.15039 3.5 3.5 0 0 0-3.4922-3.3496zm-7 2c-0.277 0-0.5 0.223-0.5 0.5s0.223 0.5 0.5 0.5h2c0.277 0 0.5-0.223 0.5-0.5s-0.223-0.5-0.5-0.5h-2zm7 0a1.5 1.5 0 0 0-1.5 1.5 1.5 1.5 0 0 0 0.087891 0.5 1.5 1.5 0 0 1 1.377-0.99805 0.5 0.5 0 0 1 0.035156-0.0019531 0.5 0.5 0 0 1 0.050781 0.0019531 1.5 1.5 0 0 1 1.4492 1.498 0.5 0.5 0 0 0 0.5 0.5 1.5 1.5 0 0 0 0.056641-0.0039062 0.5 0.5 0 0 0 0.44141-0.44141 2.5 2.5 0 0 0 0-0.0039063 0.5 0.5 0 0 0 0.001953-0.050781 2.5 2.5 0 0 0-0.10156-0.69727 0.5 0.5 0 0 1-0.39844 0.19727 0.5 0.5 0 0 1-0.5-0.5 1.5 1.5 0 0 0-1.3789-1.4941 2.5 2.5 0 0 0-0.12109-0.0058594zm-2.4473 1.9961a2.5 2.5 0 0 0-0.052734 0.50391 2.5 2.5 0 0 0 2.5 2.5h2c0.277 0 0.5-0.223 0.5-0.5s-0.223-0.5-0.5-0.5h-0.044922-1.9551a1.5 1.5 0 0 1-0.12109-0.0058594 2.5 2.5 0 0 1-2.3262-1.998zm-4.5527 0.0039062c-0.277 0-0.5 0.223-0.5 0.5s0.223 0.5 0.5 0.5h2c0.277 0 0.5-0.223 0.5-0.5s-0.223-0.5-0.5-0.5h-2zm7 0a0.5 0.5 0 0 0-0.5 0.5 0.5 0.5 0 0 0 0.44922 0.49805 0.5 0.5 0 0 0 0.050781 0.0019531 0.5 0.5 0 0 0 0.035156-0.0019531 0.5 0.5 0 0 0 0.46484-0.49805 0.5 0.5 0 0 0-0.5-0.5zm-7 2c-0.277 0-0.5 0.223-0.5 0.5s0.223 0.5 0.5 0.5h2c0.277 0 0.5-0.223 0.5-0.5s-0.223-0.5-0.5-0.5h-2zm0.5 2v1h2v0.5c0 0.277 0.223 0.5 0.5 0.5h8c0.277 0 0.5-0.223 0.5-0.5v-1c0 0.277-0.223 0.5-0.5 0.5h-8c-0.277 0-0.5-0.223-0.5-0.5v-0.5h-0.5-1.5z" fill="#fff" opacity=".6"/>
 <path id="path18" d="m2.0918 3c-0.055658 0.15722-0.091797 0.32324-0.091797 0.5v0.5h1.5 1 0.5 3.5 4c0.277 0 0.5 0.223 0.5 0.5v-1c0-0.277-0.223-0.5-0.5-0.5h-7.5-0.5-2.4082zm-0.5918 2c-0.277 0-0.5 0.223-0.5 0.5s0.223 0.5 0.5 0.5h2c0.277 0 0.5-0.223 0.5-0.5s-0.223-0.5-0.5-0.5h-2zm7 0a3.5 3.5 0 0 0-0.21875 0.011719 2.5 2.5 0 0 0-2.2812 2.4883 2.5 2.5 0 0 0 0.052734 0.49609 2.5 2.5 0 0 1 2.4473-1.9961 1.5 1.5 0 0 1 0.12109 0.0058594 2.5 2.5 0 0 1 2.2773 1.7969 0.5 0.5 0 0 0 0.099609-0.24805 2.5 2.5 0 0 0 0-0.0039063 0.5 0.5 0 0 0 0.001953-0.050781 2.5 2.5 0 0 0-2.2168-2.4824 3.5 3.5 0 0 0-0.11719-0.0097656 2.5 2.5 0 0 0-0.16602-0.0078125zm-7 2c-0.277 0-0.5 0.223-0.5 0.5s0.223 0.5 0.5 0.5h2c0.277 0 0.5-0.223 0.5-0.5s-0.223-0.5-0.5-0.5h-2zm7 0a0.5 0.5 0 0 0-0.035156 0.0019531 0.5 0.5 0 0 0-0.46484 0.49805 0.5 0.5 0 0 0 0.5 0.5 0.5 0.5 0 0 0 0.5-0.5 0.5 0.5 0 0 0-0.44922-0.49805 0.5 0.5 0 0 0-0.050781-0.0019531zm3.4414 0.91211a1.5 1.5 0 0 1-1.3848 1.084 0.5 0.5 0 0 1-0.056641 0.0039062 1.5 1.5 0 0 1-1-0.38477 1.5 1.5 0 0 1-0.96484 0.38281 1.5 1.5 0 0 1-0.035156 0.0019531 1.5 1.5 0 0 1-0.050781-0.0019531 1.5 1.5 0 0 1-1.3613-0.99805 1.5 1.5 0 0 0-0.087891 0.5 1.5 1.5 0 0 0 1.3789 1.4941 2.5 2.5 0 0 0 0.12109 0.0058594 1.5 1.5 0 0 0 1-0.38477 1.5 1.5 0 0 0 0.95508 0.38477h0.044922a1.5 1.5 0 0 0 1.5-1.5 1.5 1.5 0 0 0-0.007812-0.15039 3.5 3.5 0 0 0-0.050782-0.4375zm-6.9023 0.082031a3.5 3.5 0 0 0-0.039062 0.50586 3.5 3.5 0 0 0 3.5 3.5h2c0.277 0 0.5-0.223 0.5-0.5s-0.223-0.5-0.5-0.5h-2a3.5 3.5 0 0 1-3.4609-3.0059zm-3.5391 1.0059c-0.277 0-0.5 0.223-0.5 0.5s0.223 0.5 0.5 0.5h2c0.277 0 0.5-0.223 0.5-0.5s-0.223-0.5-0.5-0.5h-2zm0 2c-0.277 0-0.5 0.223-0.5 0.5s0.223 0.5 0.5 0.5h0.5 1.5c0.277 0 0.5-0.223 0.5-0.5s-0.223-0.5-0.5-0.5h-2zm0.5 2.5v1c0 0.831 0.669 1.5 1.5 1.5h10c0.831 0 1.5-0.669 1.5-1.5v-1c0 0.831-0.669 1.5-1.5 1.5h-10c-0.831 0-1.5-0.669-1.5-1.5z" opacity=".45"/>
</svg>
