<?xml version="1.0" encoding="UTF-8"?>
<svg id="svg23" width="16" height="16" version="1.1" xmlns="http://www.w3.org/2000/svg" xmlns:cc="http://creativecommons.org/ns#" xmlns:dc="http://purl.org/dc/elements/1.1/" xmlns:rdf="http://www.w3.org/1999/02/22-rdf-syntax-ns#">
 <metadata id="metadata27">
  <rdf:RDF>
   <cc:Work rdf:about="">
    <dc:format>image/svg+xml</dc:format>
    <dc:type rdf:resource="http://purl.org/dc/dcmitype/StillImage"/>
   </cc:Work>
  </rdf:RDF>
 </metadata>
 <defs id="defs7">
  <linearGradient id="gr0" x1="8" x2="8" y1="1" y2="15" gradientUnits="userSpaceOnUse">
   <stop id="stop2" stop-color="#ebebeb" offset="0"/>
   <stop id="stop4" stop-color="#aaa" offset="1"/>
  </linearGradient>
 </defs>
 <path id="path9" d="m3.5 0c-1.3677 0-2.5 1.1323-2.5 2.5v11c0 1.3677 1.1323 2.5 2.5 2.5h9c1.3677 0 2.5-1.1323 2.5-2.5v-11c0-1.3677-1.1323-2.5-2.5-2.5zm4.873 4h2.627v1.7637l-0.10547-0.21094a1 1.0001 0 0 0-1.7891 0l-0.77344 1.5449c0.38123-0.43949 0.66797-0.97752 0.66797-1.5977 0-0.58221-0.28645-1.0725-0.62695-1.5zm-0.12695 3.2715-0.69336 1.3867-1.1055-0.55273a1.0001 1.0001 0 0 0-1.3965 0.57812l-0.050781 0.15234v-1.4629c0.42746 0.3405 0.91779 0.62695 1.5 0.62695 0.67755 0 1.2934-0.28261 1.7461-0.72852z" opacity=".25"/>
 <path id="base" d="m3.5 1c-0.831 0-1.5 0.669-1.5 1.5v11c0 0.831 0.669 1.5 1.5 1.5h9c0.831 0 1.5-0.669 1.5-1.5v-11c0-0.831-0.669-1.5-1.5-1.5h-9zm1 2h7c0.277 0 0.5 0.223 0.5 0.5v9c0 0.277-0.223 0.5-0.5 0.5h-7c-0.277 0-0.5-0.223-0.5-0.5v-9c0-0.277 0.223-0.5 0.5-0.5zm2 1c-0.82843 0-1.5 0.67157-1.5 1.5s0.67157 1.5 1.5 1.5 1.5-0.67157 1.5-1.5-0.67157-1.5-1.5-1.5zm3.5 2-2 4-2-1-1 3h6v-4l-1-2z" fill="url(#gr0)"/>
 <path id="path13" d="m3.5 1c-0.831 0-1.5 0.669-1.5 1.5v1c0-0.831 0.669-1.5 1.5-1.5h9c0.831 0 1.5 0.669 1.5 1.5v-1c0-0.831-0.669-1.5-1.5-1.5h-9zm3 3c-0.82843 0-1.5 0.67157-1.5 1.5 0 0.17621 0.035981 0.34293 0.091797 0.5 0.20659-0.58135 0.75599-1 1.4082-1s1.2016 0.41865 1.4082 1c0.055816-0.15707 0.091797-0.32379 0.091797-0.5 0-0.82843-0.67157-1.5-1.5-1.5zm3.5 2-2 4-2-1-1 3h0.33398l0.66602-2 2 1 2-4 1 2v-1l-1-2zm-6 6.5v1c0 0.277 0.223 0.5 0.5 0.5h7c0.277 0 0.5-0.223 0.5-0.5v-1c0 0.277-0.223 0.5-0.5 0.5h-0.5-6-0.5c-0.277 0-0.5-0.223-0.5-0.5z" fill="#fff" opacity=".6"/>
 <path id="path18" d="m4.5 3c-0.277 0-0.5 0.223-0.5 0.5v1c0-0.277 0.223-0.5 0.5-0.5h2 5c0.277 0 0.5 0.223 0.5 0.5v-1c0-0.277-0.223-0.5-0.5-0.5h-7zm0.5918 3c-0.055816 0.15707-0.091797 0.32379-0.091797 0.5 0 0.82843 0.67157 1.5 1.5 1.5s1.5-0.67157 1.5-1.5c0-0.17621-0.035981-0.34293-0.091797-0.5-0.20659 0.58135-0.75599 1-1.4082 1s-1.2016-0.41865-1.4082-1zm0.24219 6-0.33398 1h6v-1h-5.666zm-3.334 1.5v1c0 0.831 0.669 1.5 1.5 1.5h9c0.831 0 1.5-0.669 1.5-1.5v-1c0 0.831-0.669 1.5-1.5 1.5h-9c-0.831 0-1.5-0.669-1.5-1.5z" opacity=".45"/>
</svg>
