<?xml version="1.0" encoding="UTF-8"?>
<svg width="22" height="22" version="1.1" xmlns="http://www.w3.org/2000/svg">
 <path d="m10 1c-1.11 0-2 0.892-2 2h9c0.554 0 1 0.446 1 1v10c0 0.554-0.446 1-1 1h-9c0 1.11 0.892 2 2 2h3v1h-1v1h-3v1h3v1h4v-1h3v-1h-3v-1h-1v-1h3c1.11 0 2-0.892 2-2v-12c0-1.11-0.892-2-2-2h-8zm-6.03 2.09c-0.554 0-1 0.446-1 1v1h10c0-0.554-0.446-1-1-1h-5c0-0.554-0.446-1-1-1h-2zm-0.5 3c-0.831 0-1.5 0.669-1.5 1.5v5c0 0.831 0.669 1.5 1.5 1.5h1.5 8.03v-0.0938c0.572-0.211 0.969-0.759 0.969-1.41v-5c0-0.831-0.669-1.5-1.5-1.5h-1-5-3z" fill="#bebebe"/>
</svg>
