<?xml version="1.0" encoding="UTF-8"?>
<svg width="22" height="22" version="1.1" xmlns="http://www.w3.org/2000/svg">
 <path d="m10 1c-1.11 0-2 0.892-2 2h9c0.554 0 1 0.446 1 1v10c0 0.554-0.446 1-1 1h-9c0 1.11 0.892 2 2 2h3v1h-1v1h-3v1h3v1h4v-1h3v-1h-3v-1h-1v-1h3c1.11 0 2-0.892 2-2v-12c0-1.11-0.892-2-2-2h-8zm-6.5 3c-0.831 0-1.5 0.669-1.5 1.5v7c0 0.831 0.669 1.5 1.5 1.5h2c-0.831 0-1.5-0.669-1.5-1.5v-1-5-1c0-0.831 0.669-1.5 1.5-1.5h-2zm3 0c-0.831 0-1.5 0.669-1.5 1.5v7c0 0.831 0.669 1.5 1.5 1.5h6c0.831 0 1.5-0.669 1.5-1.5v-7c0-0.831-0.669-1.5-1.5-1.5h-6zm1 2h4c0.277 0 0.5 0.223 0.5 0.5v5c0 0.277-0.223 0.5-0.5 0.5h-4c-0.277 0-0.5-0.223-0.5-0.5v-5c0-0.277 0.223-0.5 0.5-0.5z" fill="#bebebe"/>
</svg>
