<?xml version="1.0" encoding="UTF-8"?>
<svg width="22" height="22" version="1.1" xmlns="http://www.w3.org/2000/svg">
 <path d="m12 2c-4.42 0-8 3.58-8 8 0 0.34 0.0213 0.671 0.0625 1h2.03c-0.0538-0.323-0.0938-0.662-0.0938-1 0-3.31 2.69-6 6-6 3.31 0 6 2.69 6 6 0 3.31-2.69 6-6 6-0.338 0-0.677-0.04-1-0.094v2.03c0.329 0.041 0.66 0.062 1 0.062 4.42 0 8-3.58 8-8 0-4.42-3.58-8-8-8zm-0.062 3c-0.516 0-0.938 0.422-0.938 0.938v4.12c0 0.516 0.422 0.938 0.938 0.938 0.021 1e-3 0.04 0 0.062 0h3.5c0.554 0 1-0.446 1-1s-0.446-1-1-1h-2.5v-3.06c0-0.516-0.422-0.938-0.938-0.938h-0.124zm-7.94 7v3h-3v3h3v3h3v-3h3v-3h-3v-3h-3z" fill="#bebebe"/>
</svg>
