<?xml version="1.0" encoding="UTF-8"?>
<svg width="22" height="22" version="1.1" xmlns="http://www.w3.org/2000/svg">
 <path d="m11 1-2 4h4l-2-4zm-7.07 2.93 1.41 4.24 2.83-2.83-4.24-1.41zm14.1 0-4.24 1.41 2.83 2.83 1.41-4.24zm-7.07 3.07a4 4 0 0 0-4 4 4 4 0 0 0 4 4 4 4 0 0 0 4-4 4 4 0 0 0-4-4zm-6 2-4 2 4 2v-4zm6 0a2 2 0 0 1 2 2 2 2 0 0 1-2 2 2 2 0 0 1-2-2 2 2 0 0 1 2-2zm6 0v4l4-2-4-2zm-11.7 4.83-1.41 4.24 4.24-1.41-2.83-2.83zm11.3 0-2.83 2.83 4.24 1.41-1.41-4.24zm-7.66 3.17 2 4 2-4h-4z" fill="#bebebe"/>
</svg>
