<?xml version="1.0" encoding="UTF-8"?>
<svg width="22" height="22" version="1.1" xmlns="http://www.w3.org/2000/svg">
 <path d="m5.5 1c-0.831 0-1.5 0.669-1.5 1.5v12c0 0.831 0.669 1.5 1.5 1.5h5.5a1 1 0 0 1 1-1h1v-1h-6.5c-0.277 0-0.5-0.223-0.5-0.5v-10c0-0.277 0.223-0.5 0.5-0.5h7c0.277 0 0.5 0.223 0.5 0.5v3.53h2v-4.53c0-0.831-0.669-1.5-1.5-1.5h-9zm-3 3c-0.831 0-1.5 0.669-1.5 1.5v12c0 0.831 0.669 1.5 1.5 1.5h9c0.522 0 0.98-0.265 1.25-0.668l-1.19-1.33h-8.06c-0.277 0-0.5-0.223-0.5-0.5v-12.5h-0.5zm11.5 4.03v1h5v-1h-5zm0 2v2h5v-2h-5zm0 3v2.97h-2l4.49 5 4.51-5h-2v-2.97h-5z" fill="#bebebe"/>
</svg>
