<?xml version="1.0" encoding="UTF-8"?>
<svg width="22" height="22" version="1.1" xmlns="http://www.w3.org/2000/svg">
 <path d="m9 2c-1.54 0-3.08 0.583-4.25 1.75-2.34 2.33-2.34 6.13 0 8.47 2.04 2.03 5.2 2.29 7.53 0.781 0.395 0.0198 1.02 0.0876 1.25 0.344 0.309 0.349-0.123 1.16 0.469 1.69l3.69 3.72c1e-6 0 0.687 0.747 1.75-0.312 1.06-1.06 0.312-1.75 0.312-1.75l-3.69-3.72c-0.534-0.59-1.34-0.161-1.69-0.469-0.257-0.226-0.324-0.856-0.344-1.25 1.52-2.32 1.26-5.47-0.781-7.5-1.17-1.17-2.71-1.75-4.25-1.75zm0.0312 2c2.21 0 4 1.77 4 3.97 0 2.2-1.79 4-4 4-2.21 1e-6 -4-1.8-4-4 2e-7 -1.1 0.432-2.12 1.16-2.84 0.724-0.722 1.74-1.12 2.84-1.12zm-5.03 13c-0.552 0-1 0.448-1 1 0 0.552 0.448 1 1 1 0.552 0 1-0.448 1-1 0-0.552-0.448-1-1-1zm3 0c-0.552 0-1 0.448-1 1 0 0.552 0.448 1 1 1 0.552 0 1-0.448 1-1 0-0.552-0.448-1-1-1zm3 0c-0.552 0-1 0.448-1 1 0 0.552 0.448 1 1 1 0.552 0 1-0.448 1-1 0-0.552-0.448-1-1-1z" fill="#bebebe"/>
</svg>
