<?xml version="1.0" encoding="UTF-8"?>
<svg width="22" height="22" version="1.1" xmlns="http://www.w3.org/2000/svg">
 <path d="m4.76 3.75c-2.34 2.33-2.34 6.12 0 8.46 2.04 2.03 5.19 2.31 7.52 0.793 0.395 0.0198 1.03 0.0742 1.26 0.33 0.309 0.349-0.128 1.16 0.464 1.7l3.68 3.73s0.683 0.729 1.75-0.33c1.06-1.06 0.332-1.74 0.332-1.74l-3.68-3.73c-0.534-0.59-1.35-0.155-1.7-0.462-0.257-0.226-0.312-0.861-0.332-1.26 1.52-2.32 1.25-5.45-0.796-7.49-2.34-2.33-6.15-2.33-8.49 0zm1.44 1.39c0.724-0.722 1.72-1.15 2.83-1.15 2.21-1e-7 4 1.79 4 3.99 0 2.2-1.79 3.99-4 3.99-2.21 1e-6 -4-1.79-4-3.99 2e-7 -1.1 0.447-2.12 1.17-2.84z" fill="#bebebe"/>
</svg>
