<?xml version="1.0" encoding="UTF-8"?>
<svg width="22" height="22" version="1.1" xmlns="http://www.w3.org/2000/svg">
 <path d="m3.5 2c-0.831 0-1.5 0.669-1.5 1.5v15c0 0.831 0.669 1.5 1.5 1.5h13c0.831 0 1.5-0.669 1.5-1.5v-8.5a1 1 0 0 1-1 1h-1v6.5c0 0.277-0.223 0.5-0.5 0.5h-11c-0.277 0-0.5-0.223-0.5-0.5v-13c0-0.277 0.223-0.5 0.5-0.5h6.88l0.789-1.37a1 1 0 0 1 1.37-0.365l0.465 0.268v-0.537h-10.5zm11.5 0v2.27l-1.96-1.13-1 1.73 1.97 1.13-1.97 1.13 1 1.73 1.96-1.13v2.27h2v-2.27l1.96 1.13 1-1.73-1.97-1.13 1.97-1.13-1-1.73-1.96 1.13v-2.27h-2zm-9 4v2h5.38l-0.211-0.365a1 1 0 0 1 0.365-1.37l0.467-0.27h-6zm0 4v2h8v-2h-8zm0 4v2h8v-2h-8z" fill="#bebebe"/>
</svg>
