<?xml version="1.0" encoding="UTF-8"?>
<svg width="22" height="22" version="1.1" xmlns="http://www.w3.org/2000/svg">
 <path d="m3 1c-0.554 0-1 0.446-1 1v1h11c0-0.554-0.446-1-1-1h-5c0-0.554-0.446-1-1-1h-3zm-0.5 3c-0.831 0-1.5 0.669-1.5 1.5v4.5 1.5c0 0.831 0.669 1.5 1.5 1.5h4.53v-0.5c0-0.846 0.497-1.49 1.16-1.94a0.97 0.97 0 0 1-0.156-0.562v-1c0-1.07 0.894-1.97 1.97-1.97h3c0.389 0 0.722 0.126 1 0.344v-1.88c0-0.831-0.669-1.5-1.5-1.5h-10zm7.5 4c-0.554 0-1 0.446-1 1v1h11c0-0.554-0.446-1-1-1h-5c0-0.554-0.446-1-1-1h-3zm-0.5 3c-0.831 0-1.5 0.669-1.5 1.5v4.5 1.5c0 0.831 0.669 1.5 1.5 1.5h6.5 3.5c0.831 0 1.5-0.669 1.5-1.5v-1.5-4.5c0-0.831-0.669-1.5-1.5-1.5h-10z" fill="#bebebe"/>
</svg>
