<?xml version="1.0" encoding="UTF-8"?>
<svg width="22" height="22" version="1.1" xmlns="http://www.w3.org/2000/svg">
 <path d="m10.9 6c-0.79 0-1.58 0.05-2.36 0.152-0.789 0.1-1.58 0.24-2.36 0.43v2.78c0.578-0.313 1.2-0.546 1.88-0.703 0.673-0.156 1.4-0.236 2.18-0.236 0.97 0 1.68 0.136 2.13 0.408 0.46 0.265 0.69 0.687 0.69 1.26v0.29h-2.16c-1.97 0-3.42 0.31-4.34 0.94-0.918 0.62-1.38 1.61-1.38 2.95 0 1.1 0.369 1.99 1.1 2.69 0.742 0.69 1.7 1.03 2.89 1.03 0.881 0 1.62-0.16 2.23-0.47 0.62-0.32 1.17-0.83 1.66-1.52v1.99h3.68v-6.82c0-1.83-0.46-3.15-1.38-3.96-0.91-0.816-2.4-1.22-4.46-1.22zm0.26 6.56h1.9v0.42c0 0.74-0.24 1.36-0.71 1.86-0.47 0.49-1.05 0.73-1.73 0.73-0.55 0-0.986-0.13-1.3-0.39-0.306-0.26-0.459-0.63-0.459-1.09 0-0.5 0.191-0.88 0.572-1.14 0.388-0.26 0.966-0.39 1.73-0.39z" fill="#bebebe"/>
</svg>
