<?xml version="1.0" encoding="UTF-8"?>
<svg width="22" height="22" version="1.1" xmlns="http://www.w3.org/2000/svg">
 <path d="m3.5 5c-0.831 0-1.5 0.669-1.5 1.5v9c0 0.831 0.669 1.5 1.5 1.5h13c0.831 0 1.5-0.669 1.5-1.5v-2.5h1c0.554 0 1-0.446 1-1v-2c0-0.554-0.446-1-1-1h-1v-2.5c0-0.831-0.669-1.5-1.5-1.5h-13zm1.5 2h10c0.554 0 1 0.446 1 1v6c0 0.554-0.446 1-1 1h-10c-0.554 0-1-0.446-1-1v-6c0-0.554 0.446-1 1-1zm7.15 1.17-3.15 3.39-1.59-1.7-1.13 1.22 2.72 2.92 4.28-4.61-1.13-1.22z" fill="#bebebe"/>
 <path class="fill" d="m5 7c-0.14 0-0.273 0.03-0.393 0.08-0.238 0.101-0.428 0.292-0.529 0.531-0.05 0.12-0.08 0.252-0.08 0.391v6c0 0.14 0.03 0.27 0.08 0.39 0.01 0 0.04 0 0.05 0.1 0.107 0.2 0.267 0.36 0.476 0.45 0.12 0.1 0.252 0.1 0.391 0.1h10c0.55 0 1-0.45 1-1v-6c0-0.415-0.25-0.77-0.61-0.922-0.12-0.05-0.25-0.08-0.39-0.08zm7.15 1.17 1.13 1.22-4.28 4.61-2.72-2.92 1.13-1.22 1.59 1.7z" fill="#008000"/>
</svg>
