<?xml version="1.0" encoding="UTF-8"?>
<svg width="22" height="22" version="1.1" xmlns="http://www.w3.org/2000/svg">
 <path d="m3 6c-1.11 0-2 0.892-2 2v4c0 1.11 0.892 2 2 2h5c1.11 0 2-0.892 2-2h-2.5-1.5-2.5c-0.277 0-0.5-0.223-0.5-0.5v-3c0-0.277 0.223-0.5 0.5-0.5h2.5 1.5 2.5c0-1.11-0.892-2-2-2h-5zm11 0c-1.11 0-2 0.892-2 2h2.5 1.5 2.5c0.277 0 0.5 0.223 0.5 0.5v3c0 0.277-0.223 0.5-0.5 0.5h-2.5-1.5-2.5c0 1.11 0.892 2 2 2h5c1.11 0 2-0.892 2-2v-4c0-1.11-0.892-2-2-2h-5zm-7 3c-0.554 0-1 0.446-1 1s0.446 1 1 1h8c0.554 0 1-0.446 1-1s-0.446-1-1-1h-8zm0 7 4 4 4-4h-8z" fill="#bebebe"/>
</svg>
