<?xml version="1.0" encoding="UTF-8"?>
<svg width="22" height="22" version="1.1" xmlns="http://www.w3.org/2000/svg">
 <path d="m15 3c-2.21 0-4 1.79-4 4 0 0.346 0.0737 0.68 0.156 1l-7.16 7.16v2.84h2.84l1.69-1.72v-1.41h1.41l0.719-0.719v-1.41h1.41l1.94-1.91c0.32 0.0826 0.654 0.156 1 0.156 2.21 0 4-1.79 4-4s-1.79-4-4-4zm1 2c0.552 0 1 0.448 1 1s-0.448 1-1 1-1-0.448-1-1 0.448-1 1-1z" fill="#bebebe"/>
 <path d="m4 4v2l4.56 4.56 2-2-4.56-4.56h-2zm9.41 7.41-1.34 1.34h-1.31l5.25 5.25h2v-2l-4.59-4.59z" fill="#bebebe" opacity=".45"/>
</svg>
