<?xml version="1.0" encoding="UTF-8"?>
<svg width="22" height="22" version="1.1" xmlns="http://www.w3.org/2000/svg">
 <path d="m11.4 2c-0.253 0.00382-0.512 0.099-0.686 0.281l-6.77 6.75c-0.244 0.237-0.337 0.609-0.25 0.938 0.087 0.329 0.325 0.57 0.655 0.656 0.33 0.0868 0.699-0.0064 0.936-0.25l6.49-6.47h5.3v5.44l-8.39 8.38-3.37-3.38 5.52-5.5h1.28v1.34l-3.49 3.5c-0.244 0.237-0.337 0.577-0.25 0.907 0.087 0.329 0.357 0.57 0.686 0.656 0.33 0.0868 0.667-0.0064 0.905-0.25l3.77-3.78c0.183-0.174 0.308-0.404 0.312-0.656v-2.66c0.00399-0.255-0.0995-0.507-0.281-0.688-0.181-0.181-0.43-0.285-0.686-0.281h-2.62c-0.253 0.00386-0.512 0.099-0.686 0.281l-6.49 6.47c-0.369 0.368-0.369 0.975 0 1.34l4.71 4.69c0.369 0.369 0.973 0.368 1.34 0l9.36-9.35c0.183-0.174 0.308-0.404 0.312-0.656l-0.0312-6.75c-0.00119-0.295-0.138-0.572-0.374-0.75-0.166-0.133-0.349-0.217-0.562-0.219h-6.64z" fill="#bebebe"/>
</svg>
