<?xml version="1.0" encoding="UTF-8"?>
<svg width="22" height="22" version="1.1" xmlns="http://www.w3.org/2000/svg">
 <path d="m7.88 0.812c-0.129 0.016-0.255 0.056-0.375 0.125-0.478 0.276-0.651 0.897-0.375 1.38 0.182 0.316 0.535 0.464 0.875 0.469l1.84 3.22h-4.84c-1.11 0-2 0.892-2 2v9c0 1.11 0.892 2 2 2h13c1.11 0 2-0.892 2-2v-9c0-1.11-0.892-2-2-2h-5.84l1.84-3.22c0.34-0.00522 0.693-0.153 0.875-0.469 0.276-0.478 0.103-1.1-0.375-1.38s-1.1-0.103-1.38 0.375c-0.182 0.316-0.134 0.672 0.0312 0.969l-2.16 3.72-2.16-3.72c0.166-0.297 0.214-0.653 0.0312-0.969-0.207-0.359-0.613-0.548-1-0.5zm-1.88 7.19h9c0.554 0 1 0.446 1 1v7c0 0.554-0.446 1-1 1h-9c-0.554 0-1-0.446-1-1v-7c0-0.554 0.446-1 1-1zm12 0c0.552 0 1 0.448 1 1 0 0.552-0.448 1-1 1s-1-0.448-1-1c0-0.552 0.448-1 1-1zm0 3c0.552 0 1 0.448 1 1s-0.448 1-1 1-1-0.448-1-1 0.448-1 1-1z" fill="#bebebe"/>
</svg>
