<?xml version="1.0" encoding="UTF-8"?>
<svg width="22" height="22" version="1.1" xmlns="http://www.w3.org/2000/svg">
 <path d="m11 2c-4.97 0-9 4.03-9 9 0 4.97 4.03 9 9 9 0.331 0 0.647 0.00367 0.969-0.0312-0.542-0.506-0.906-1.18-0.906-1.97 0-1.73 1.66-2.94 3.44-2.94 0.209 0 0.364 0.125 0.562 0.156v-7.22a0.926 0.926 0 0 1 0.938-0.938h1a0.926 0.926 0 0 1 0.938 0.938v8.72c1.28-1.56 2.06-3.54 2.06-5.72 0-4.97-4.03-9-9-9zm0 6c1.66 0 3 1.34 3 3 0 1.66-1.34 3-3 3s-3-1.34-3-3c0-1.66 1.34-3 3-3zm5 0v8.41c-0.417-0.25-0.939-0.406-1.5-0.406-1.38 0-2.5 0.895-2.5 2s1.12 2 2.5 2 2.5-0.895 2.5-2v-10h-1z" fill="#bebebe"/>
</svg>
