<?xml version="1.0" encoding="UTF-8"?>
<svg width="22" height="22" version="1.1" xmlns="http://www.w3.org/2000/svg">
 <path d="m6.5 3c-0.831 0-1.5 0.669-1.5 1.5v4.5h-0.5c-0.831 0-1.5 0.669-1.5 1.5v4c0 0.831 0.669 1.5 1.5 1.5h0.5v1.5c0 0.831 0.669 1.5 1.5 1.5h9c0.831 0 1.5-0.669 1.5-1.5v-1.5h0.5c0.831 0 1.5-0.669 1.5-1.5v-4c0-0.831-0.669-1.5-1.5-1.5h-0.469-0.0312v-4.5c0-0.831-0.669-1.5-1.5-1.5h-9zm1 2h7c0.277 0 0.5 0.223 0.5 0.5v3.5 1h-8v-1-3.5c0-0.277 0.223-0.5 0.5-0.5zm0.5 1v1h6.03v-1h-6.03zm0 2v1h4v-1h-4zm6.5 4c0.276 0 0.5 0.224 0.5 0.5 1e-6 0.276-0.224 0.5-0.5 0.5s-0.5-0.224-0.5-0.5 0.224-0.5 0.5-0.5zm2 0c0.276 0 0.5 0.224 0.5 0.5 1e-6 0.276-0.224 0.5-0.5 0.5-0.276 0-0.5-0.224-0.5-0.5 1e-6 -0.276 0.224-0.5 0.5-0.5zm-9.5 3h8v1 0.5c0 0.277-0.223 0.5-0.5 0.5h-7c-0.277 0-0.5-0.223-0.5-0.5v-0.5-1z" fill="#ff9000"/>
</svg>
