<?xml version="1.0" encoding="UTF-8"?>
<svg width="22" height="22" version="1.1" xmlns="http://www.w3.org/2000/svg">
 <path d="m11 2c-0.8 1.96-1.29 3.25-2.18 5.16 0.547 0.58 1.22 1.26 2.31 2.02-1.17-0.482-2.05-0.846-2.65-1.35-1.14 2.39-2.85 5.66-6.48 12.2 2.85-1.65 5.06-2.66 7.13-3.05-0.09-0.38-0.139-0.79-0.135-1.22v-0.1c0.04-1.83 0.996-3.24 2.13-3.14 1.12 0.1 2 1.65 1.95 3.48 0 0.35-0 0.68-0.11 0.98 2.04 0.4 4.23 1.42 7.04 3.04-0.55-1.02-1.05-1.94-1.52-2.82-0.75-0.58-1.53-1.33-3.11-2.14 1.09 0.28 1.79 0.51 2.4 0.87-4.81-8.95-5.12-10-6.77-13.9z" fill="#bebebe"/>
</svg>
