<?xml version="1.0" encoding="UTF-8"?>
<svg width="22" height="22" version="1.1" xmlns="http://www.w3.org/2000/svg">
 <path d="m11 1a10 10 0 0 0-5.38 1.58l2.62 2.62a6.43 6.43 0 0 1 2.77-0.633 6.43 6.43 0 0 1 6.43 6.43 6.43 6.43 0 0 1-0.633 2.77l2.62 2.62a10 10 0 0 0 1.58-5.39 10 10 0 0 0-10-10zm-8.42 4.61a10 10 0 0 0-1.58 5.39 10 10 0 0 0 10 10 10 10 0 0 0 5.38-1.58l-2.62-2.62a6.43 6.43 0 0 1-2.77 0.633 6.43 6.43 0 0 1-6.43-6.43 6.43 6.43 0 0 1 0.633-2.77l-2.62-2.62zm8.42 2.39a3 3 0 0 0-3 3 3 3 0 0 0 3 3 3 3 0 0 0 3-3 3 3 0 0 0-3-3z" fill="#bebebe"/>
</svg>
