<?xml version="1.0" encoding="UTF-8"?>
<svg width="22" height="22" version="1.1" xmlns="http://www.w3.org/2000/svg">
 <path d="m15.5 4.4c-0.15-1e-3 -0.29 0.05-0.41 0.165l-0.78 0.815c-0.4-0.232-0.83-0.418-1.28-0.563v3.97c0.61 0.549 1 1.34 1 2.22 0 1.66-1.34 3-3 3-1.66 0-3-1.34-3-3 0-0.88 0.391-1.67 1-2.22v-3.97c-0.448 0.145-0.882 0.331-1.28 0.563l-0.782-0.815c-0.113-0.113-0.261-0.151-0.406-0.154-0.144-0-0.295 0.04-0.406 0.154l-1.56 1.56c-0.223 0.223-0.231 0.594 0 0.815l0.815 0.78c-0.286 0.492-0.505 1.03-0.655 1.59h-1.13c-0.321 0-0.594 0.278-0.594 0.593v2.18c0 0.32 0.273 0.6 0.594 0.6h1.13c0.15 0.56 0.369 1.1 0.655 1.59l-0.815 0.78c-0.226 0.23-0.223 0.59 0 0.82l1.56 1.56c0.223 0.22 0.586 0.23 0.812 0l0.782-0.81c0.492 0.28 1.03 0.5 1.59 0.65v1.13c0 0.32 0.279 0.59 0.594 0.59h2.18c0.32 0 0.6-0.27 0.6-0.59v-1.13c0.56-0.15 1.1-0.37 1.59-0.65l0.78 0.81c0.23 0.23 0.59 0.22 0.81 0l1.57-1.56c0.22-0.23 0.23-0.59 0-0.82l-0.82-0.78c0.29-0.49 0.51-1.03 0.66-1.59h1.13c0.32 0 0.59-0.28 0.59-0.6v-2.18c0-0.315-0.27-0.593-0.59-0.593h-1.13c-0.15-0.563-0.37-1.1-0.66-1.59l0.82-0.78c0.27-0.288 0.25-0.545 0-0.815l-1.57-1.56c-0.11-0.111-0.25-0.165-0.4-0.165z" fill="#bebebe"/>
 <path d="m10.5 3c-0.277 0-0.5 0.223-0.5 0.5v5c0 0.277 0.223 0.5 0.5 0.5h1c0.277 0 0.5-0.223 0.5-0.5v-5c0-0.277-0.223-0.5-0.5-0.5zm0.5 7c-0.552 0-1 0.448-1 1s0.448 1 1 1 1-0.448 1-1-0.448-1-1-1z" fill="#d40000"/>
</svg>
