<?xml version="1.0" encoding="UTF-8"?>
<svg width="22" height="22" version="1.1" xmlns="http://www.w3.org/2000/svg">
 <path d="m9.75 2c-0.354 0-0.625 0.296-0.625 0.656v1.28c-0.633 0.169-1.26 0.397-1.81 0.719l-0.906-0.875c-0.255-0.255-0.624-0.282-0.875-0.0312l-1.78 1.78c-0.25 0.25-0.223 0.62 0.0312 0.875l0.875 0.906c-0.322 0.554-0.55 1.18-0.719 1.81h-1.28c-0.36 0-0.656 0.271-0.656 0.625v2.5c0 0.354 0.296 0.625 0.656 0.625h1.28c0.169 0.633 0.397 1.26 0.719 1.81l-0.875 0.906c-0.255 0.254-0.282 0.624-0.0312 0.875l1.78 1.78c0.125 0.125 0.273 0.188 0.438 0.188 0.165-2e-3 0.31-0.0918 0.438-0.219l0.906-0.875c0.554 0.322 1.18 0.55 1.81 0.719v1.28c1e-4 0.36 0.271 0.656 0.625 0.656h2.5c0.354 0 0.626-0.296 0.627-0.656v-1.28c0.633-0.169 1.26-0.397 1.81-0.719l0.906 0.875c0.255 0.255 0.625 0.282 0.875 0.0312l1.78-1.78c0.25-0.25 0.223-0.62-0.0312-0.875l-0.875-0.906c0.322-0.554 0.55-1.18 0.719-1.81h1.28c0.36-1e-3 0.656-0.272 0.656-0.626v-2.5c0-0.354-0.296-0.625-0.656-0.625h-1.28c-0.169-0.633-0.397-1.26-0.719-1.81l0.875-0.906c0.254-0.255 0.281-0.624 0.031-0.875l-1.78-1.78c-0.251-0.25-0.621-0.223-0.875 0.0312l-0.906 0.875c-0.554-0.322-1.18-0.55-1.81-0.719v-1.28c0-0.36-0.271-0.656-0.625-0.656h-2.5zm1.25 4 5 5h-2v4h-6v-4h-2l5-5z" fill="#bebebe"/>
</svg>
