<?xml version="1.0" encoding="UTF-8"?>
<svg width="22" height="22" version="1.1" xmlns="http://www.w3.org/2000/svg">
 <path d="m12.7 3.97v9.03h2.19v-1c0.3 0.394 0.635 0.686 1 0.875 0.365 0.185 0.776 0.281 1.25 0.281 0.839 0 1.52-0.31 2.06-0.969 0.539-0.663 0.812-1.52 0.812-2.56-8e-6 -1.04-0.273-1.9-0.812-2.56-0.539-0.663-1.22-1-2.06-1-0.474 7e-6 -0.885 0.0924-1.25 0.281-0.365 0.185-0.7 0.481-1 0.875v-3.25h-2.19zm-7.25 0.0312-3.38 9h2.34l0.594-1.66h3.66l0.562 1.66h2.38l-3.38-9h-2.78zm1.41 2.09 1.22 3.59h-2.47l1.25-3.59zm9.47 1.56c0.466 5.4e-6 0.819 0.162 1.06 0.5 0.247 0.338 0.375 0.826 0.375 1.47-6e-6 0.643-0.128 1.13-0.375 1.47-0.243 0.338-0.596 0.5-1.06 0.5-0.466 1e-6 -0.811-0.162-1.06-0.5-0.247-0.342-0.375-0.83-0.375-1.47-3e-6 -0.639 0.128-1.13 0.375-1.47 0.251-0.342 0.596-0.5 1.06-0.5zm-12.3 7.34-2 2v2l2-2 2 2 2-2 2 2 2-2 2 2 2-2 2 2 2-2v-2l-2 2-2-2-2 2-2-2-2 2-2-2-2 2-2-2z" fill="#bebebe"/>
</svg>
