<?xml version="1.0" encoding="UTF-8"?>
<svg width="22" height="22" version="1.1" xmlns="http://www.w3.org/2000/svg">
 <path id="path2" d="m11 1.48a1.17 1.17 0 0 0-0.845 0.337l-8.34 8.34a1.17 1.17 0 0 0 0 1.64l8.34 8.35a1.17 1.17 0 0 0 0.559 0.334 1.17 1.17 0 0 0 0.111 0.038 1.17 1.17 0 0 0 0.967-0.372l8.34-8.35a1.17 1.17 0 0 0 0-1.64l-8.34-8.34a1.17 1.17 0 0 0-0.792-0.337zm-0.0265 2.74 4.07 4.07-2.88-0.00801v5.44h2.88l-4.07 4.07-4.07-4.07h2.88v-5.44l-2.88 0.00801z" fill="#bebebe" stroke-width="1.36"/>
</svg>
