<?xml version="1.0" encoding="UTF-8"?>
<svg width="22" height="22" version="1.1" xmlns="http://www.w3.org/2000/svg">
 <path d="m7.9 3c-1.07 0-1.9 0.892-1.9 2v7h-0.4c-0.357 0-0.598-0.33-0.6-0.7v-3.3h-3v5c0 0.45 0.156 0.86 0.4 1.2 0.358-0.13 0.722-0.2 1.1-0.2 0.914 0 1.83 0.35 2.5 1s1 1.57 1 2.5c0 0.1 0.01 0.21 0 0.3 0.271 0.15 0.57 0.2 0.9 0.2h10.2c1.07 0 1.9-0.89 1.9-2v-6.5h-5v1.5h2l-4.5 4-4.5-4h2v-5h5v2h5v-3c0-1.11-0.83-2-1.9-2z" fill="#bebebe"/>
 <path class="error" d="m3.5 15c-1.38 0-2.5 1.12-2.5 2.5s1.12 2.5 2.5 2.5 2.5-1.12 2.5-2.5-1.12-2.5-2.5-2.5z" fill="#d40000"/>
</svg>
