<?xml version="1.0" encoding="UTF-8"?>
<svg width="22" height="22" version="1.1" xmlns="http://www.w3.org/2000/svg">
 <path d="m11 5c-3.87 0-7 2.41-7 6 0 3.59 3.13 6 7 6 1.06 0 2.06-0.23 2.97-0.625l4.03 1.62-1.44-3.56c0.904-1.1 1.44-1.95 1.44-3.44 0-3.59-3.13-6-7-6zm0 2c2.76 0 5 1.79 5 4 0 2.21-2.24 4-5 4-2.76 0-5-1.79-5-4 0-2.21 2.24-4 5-4zm0 1c-0.554 0-1 0.445-1 0.998v3c0 0.553 0.446 0.998 1 0.998h2c0.554 0 1-0.445 1-0.998 0-0.553-0.446-1-1-1h-1v-2c0-0.553-0.446-0.998-1-0.998z" fill="#bebebe"/>
</svg>
