<?xml version="1.0" encoding="UTF-8"?>
<svg width="22" height="22" version="1.1" xmlns="http://www.w3.org/2000/svg">
 <path d="m12 3c-3.87 0-7 3.13-7 7 0 0.517 0.0812 1.02 0.188 1.5 0.539-0.294 1.15-0.469 1.81-0.469 1.11 0 2.06 0.535 2.78 1.28 0.186-0.067 0.348-0.191 0.531-0.25-0.818-0.96-1.31-2.2-1.31-3.56 0-2.63 1.87-4.81 4.34-5.34-0.437-0.0854-0.882-0.156-1.34-0.156zm-5 9c-1.66 0-3 1.34-3 3-1.1 0-2 0.895-2 2s0.895 2 2 2h8c1.1 0 2-0.895 2-2s-0.895-2-2-2h-0.094c0.054-0.154 0.094-0.327 0.094-0.5 0-0.828-0.672-1.5-1.5-1.5-0.374 0-0.706 0.149-0.969 0.375-0.534-0.83-1.47-1.38-2.53-1.38zm11.7 0.094c-1.01 1.17-2.52 1.91-4.19 1.91-0.603 0-1.18-0.102-1.72-0.281 0.079 0.23 0.149 0.465 0.157 0.719 0.914 0.348 1.68 0.993 1.94 1.91 1.8-0.816 3.22-2.34 3.81-4.25z" fill="#bebebe"/>
</svg>
