<?xml version="1.0" encoding="UTF-8"?>
<svg width="22" height="22" version="1.1" xmlns="http://www.w3.org/2000/svg">
 <path d="m10 3c-2.21 0-4 1.79-4 4-1.66 0-3 1.34-3 3 0 1.66 1.34 3 3 3h4.15c0.79-1.42 1.63-2.92 2.41-4.31 0.41-0.485 0.79-0.719 1.33-0.695 0.69-0.03 1.37 0.361 1.7 0.955l2.19 3.93c1.28-0.34 2.22-1.5 2.22-2.88 0-1.66-1.34-3-3-3 0-1.1-0.9-2-2-2-0.49 0-0.93 0.202-1.28 0.5-0.59-1.47-2.04-2.5-3.72-2.5z" fill="#bebebe"/>
 <path class="error" d="m13.3 9.44c-0.1 0.163-5.16 9.25-5.16 9.25-0.318 0.58 0.08 1.29 0.719 1.31h10.3c0.64 0 1.03-0.73 0.72-1.31 0 0-5.07-9.1-5.16-9.25-0.1-0.154-0.37-0.439-0.72-0.438-0.34 1e-3 -0.64 0.275-0.72 0.438zm-0.28 2.56h2v4h-2zm0 5h2v2h-2z" fill="#d40000"/>
</svg>
