<?xml version="1.0" encoding="UTF-8"?>
<svg width="22" height="22" version="1.1" xmlns="http://www.w3.org/2000/svg">
 <path d="m10 3c-2.21 0-4 1.79-4 4-1.66 0-3 1.34-3 3 0 1.66 1.34 3 3 3h11c1.66 0 3-1.34 3-3 0-1.66-1.34-3-3-3 0-1.1-0.895-2-2-2-0.495 0-0.932 0.202-1.28 0.5-0.592-1.47-2.04-2.5-3.72-2.5zm-3.53 11.1c-0.193 0.027-0.36 0.167-0.414 0.367l-0.26 0.965c-0.0717 0.268 0.0859 0.542 0.354 0.614 0.268 0.071 0.542-0.086 0.613-0.354l0.258-0.967c0.0717-0.267-0.086-0.539-0.354-0.611-0.0669-0.018-0.133-0.023-0.197-0.014zm2 0c-0.193 0.027-0.36 0.167-0.414 0.367l-0.26 0.965c-0.0717 0.268 0.0859 0.542 0.354 0.614 0.268 0.071 0.542-0.086 0.613-0.354l0.258-0.967c0.0717-0.267-0.086-0.539-0.354-0.611-0.0669-0.018-0.133-0.023-0.197-0.014zm2 0c-0.193 0.027-0.36 0.167-0.414 0.367l-0.26 0.965c-0.0717 0.268 0.0864 0.542 0.353 0.614 0.268 0.071 0.542-0.086 0.614-0.354l0.258-0.967c0.071-0.267-0.086-0.539-0.354-0.611-0.067-0.018-0.133-0.023-0.197-0.014zm2 0c-0.193 0.027-0.36 0.167-0.414 0.367l-0.26 0.965c-0.072 0.268 0.086 0.542 0.353 0.614 0.268 0.071 0.542-0.086 0.614-0.354l0.258-0.967c0.071-0.267-0.086-0.539-0.354-0.611-0.067-0.018-0.133-0.023-0.197-0.014zm2 0c-0.193 0.027-0.36 0.167-0.414 0.367l-0.26 0.965c-0.072 0.268 0.086 0.542 0.353 0.614 0.268 0.071 0.542-0.086 0.614-0.354l0.258-0.967c0.071-0.267-0.086-0.539-0.354-0.611-0.067-0.018-0.133-0.023-0.197-0.014zm2 0c-0.193 0.027-0.36 0.167-0.414 0.367l-0.26 0.965c-0.072 0.268 0.086 0.542 0.353 0.614 0.268 0.071 0.542-0.086 0.614-0.354l0.258-0.967c0.071-0.267-0.086-0.539-0.354-0.611-0.067-0.018-0.133-0.023-0.197-0.014zm-10.8 2.9c-0.193 0.026-0.36 0.164-0.414 0.365l-0.258 0.967c-0.0717 0.267 0.0859 0.539 0.354 0.611s0.54-0.086 0.611-0.353l0.26-0.965c0.0717-0.268-0.086-0.542-0.354-0.614-0.0669-0.018-0.135-0.02-0.199-0.011zm2 0c-0.193 0.026-0.36 0.164-0.414 0.365l-0.258 0.967c-0.0717 0.267 0.0859 0.539 0.354 0.611s0.54-0.086 0.611-0.353l0.26-0.965c0.0717-0.268-0.086-0.542-0.354-0.614-0.0669-0.018-0.135-0.02-0.199-0.011zm2 0c-0.193 0.026-0.36 0.164-0.414 0.365l-0.258 0.967c-0.0717 0.267 0.0859 0.539 0.354 0.611s0.54-0.086 0.611-0.353l0.26-0.965c0.072-0.268-0.086-0.542-0.353-0.614-0.0669-0.018-0.135-0.02-0.199-0.011zm2 0c-0.193 0.026-0.36 0.164-0.414 0.365l-0.257 0.967c-0.072 0.267 0.085 0.539 0.353 0.611s0.54-0.086 0.611-0.353l0.26-0.965c0.072-0.268-0.086-0.542-0.353-0.614-0.067-0.018-0.135-0.02-0.2-0.011zm2 0c-0.193 0.026-0.36 0.164-0.414 0.365l-0.257 0.967c-0.072 0.267 0.086 0.539 0.353 0.611 0.268 0.072 0.54-0.086 0.611-0.353l0.26-0.965c0.072-0.268-0.086-0.542-0.353-0.614-0.067-0.018-0.135-0.02-0.2-0.011zm2 0c-0.193 0.026-0.36 0.164-0.414 0.365l-0.257 0.967c-0.072 0.267 0.086 0.539 0.353 0.611 0.268 0.072 0.54-0.086 0.611-0.353l0.26-0.965c0.072-0.268-0.086-0.542-0.353-0.614-0.067-0.018-0.135-0.02-0.2-0.011z" fill="#bebebe"/>
</svg>
