<?xml version="1.0" encoding="UTF-8"?>
<svg id="svg36" width="16" height="16" version="1.1" xmlns="http://www.w3.org/2000/svg" xmlns:cc="http://creativecommons.org/ns#" xmlns:dc="http://purl.org/dc/elements/1.1/" xmlns:rdf="http://www.w3.org/1999/02/22-rdf-syntax-ns#">
 <metadata id="metadata40">
  <rdf:RDF>
   <cc:Work rdf:about="">
    <dc:format>image/svg+xml</dc:format>
    <dc:type rdf:resource="http://purl.org/dc/dcmitype/StillImage"/>
   </cc:Work>
  </rdf:RDF>
 </metadata>
 <defs id="defs7">
  <radialGradient id="gr0" cx="9" cy="10" r="11" gradientTransform="matrix(1 0 0 .72727 0 2.7273)" gradientUnits="userSpaceOnUse">
   <stop id="stop2" stop-opacity=".23529" offset="0"/>
   <stop id="stop4" stop-opacity=".54902" offset="1"/>
  </radialGradient>
 </defs>
 <path id="path9" d="m9.793 0a1 1 0 0 0-0.91 0.5859c-0.627 1.3791-1.074 2.8031-1.418 4.2361-0.09 0.07-0.173 0.131-0.27 0.201-1.899 1.375-4.172 2.245-6.17 2.196a1 1 0 0 0-1.025 1v1.093a1 1 0 0 0 0.9062 0.998c1.9608 0.18 2.9048 0.44 3.5958 1.36 0.827 1.1 1.217 2.03 1.217 3.33a1 1 0 0 0 1 1h0.701a1 1 0 0 0 0.432-0.1 1 1 0 0 0 0.433 0.1h4.835a1 1 0 0 0 0.67-1.74c-2.02-1.83-3.02-5.346-3.08-8.762 1.26-1.257 2.3-2.654 2.86-4.143a1 1 0 0 0-0.93-1.355h-0.75a1 1 0 0 0-0.86 0.5 1 1 0 0 0-0.86-0.5h-0.377zm2e-3 1h0.375c-0.248 0.987-0.426 2.055-0.486 3.172 0.976-1.011 1.746-2.105 2.206-3.172h0.75c-0.56 1.456-1.62 2.91-2.978 4.178-4e-3 3.706 1.038 7.632 3.458 9.822h-4.837c-0.61-2.77-0.689-5.683-0.195-8.553-1.713 1.224-3.704 2.115-5.709 2.383 1.499 0.347 2.609 0.816 3.49 1.83 0.891 1.02 1.551 2.82 1.551 4.34h-0.699c0-1.52-0.51-2.72-1.42-3.93-0.92-1.222-2.27-1.565-4.301-1.758v-1.093c2.295 0.057 4.741-0.908 6.781-2.385 0.179-0.129 0.354-0.257 0.526-0.393 0.331-1.502 0.83-2.992 1.488-4.441zm-2.836 7.227c-0.06 0.697-0.155 1.394-0.152 2.093-0.07-0.1-0.107-0.23-0.184-0.322-0.37-0.424-0.825-0.688-1.269-0.973 0.56-0.219 1.075-0.51 1.605-0.798z" fill="#fff" opacity=".05"/>
 <path id="base" d="m9.7937 1.0001c-0.65802 1.4486-1.1567 2.9389-1.4875 4.4406-0.17172 0.13666-0.34621 0.26434-0.525 0.39375-2.0397 1.4764-4.4865 2.4411-6.7812 2.3844v1.0937c2.0306 0.1917 3.3814 0.53534 4.301 1.7583 0.90951 1.2096 1.4187 2.4056 1.4187 3.9291h0.7c0-1.519-0.65908-3.3233-1.55-4.3448-0.88044-1.0094-1.9924-1.477-3.4916-1.8239 2.0049-0.26843 3.9956-1.1599 5.7093-2.3844-0.49424 2.8701-0.41368 5.7847 0.19687 8.5531h4.8343c-2.4156-2.1902-3.4606-6.1162-3.4562-9.8218 1.3621-1.268 2.4207-2.7218 2.975-4.1781h-0.74374c-0.46086 1.0667-1.2333 2.1614-2.2094 3.1719 0.059428-1.1165 0.23754-2.1851 0.48125-3.1719z" fill="url(#gr0)"/>
 <path id="path17" d="m9.795 1c-0.658 1.449-1.157 2.939-1.488 4.441-0.172 0.136-0.347 0.264-0.526 0.393-2.04 1.477-4.486 2.442-6.781 2.385v1.093c2.031 0.193 3.381 0.536 4.301 1.758 0.91 1.21 1.42 2.41 1.42 3.93h0.699c0-1.52-0.66-3.32-1.551-4.34-0.881-1.014-1.991-1.483-3.49-1.83 2.005-0.268 3.996-1.159 5.709-2.383-0.494 2.87-0.415 5.783 0.195 8.553h4.837c-2.42-2.19-3.462-6.116-3.458-9.822 1.358-1.268 2.418-2.722 2.978-4.178h-0.75c-0.46 1.067-1.23 2.161-2.206 3.172 0.06-1.117 0.238-2.185 0.486-3.172h-0.375zm-0.588 3.318a0.5 0.5 0 0 0 0.277 0.311c-0.06 0.058-0.102 0.124-0.162 0.183a0.5 0.5 0 0 0-0.16 0.366c-4e-3 3.395 0.898 6.922 2.918 9.322h-3.353c-0.522-2.59-0.607-5.296-0.147-7.969a0.5 0.5 0 0 0-0.223-0.504c0.087-0.064 0.17-0.125 0.26-0.195a0.5 0.5 0 0 0 0.178-0.283c0.091-0.416 0.294-0.817 0.412-1.231zm-7.295 4.327a0.5 0.5 0 0 0-0.01 0.335c-0.141-0.02-0.255-0.06-0.402-0.08v-0.224c0.137 0 0.275-0.021 0.412-0.031z" opacity=".3"/>
 <path id="path24" d="m9.967 2c-0.133 0.699-0.243 1.418-0.283 2.172 0.042-0.044 0.079-0.09 0.121-0.135 0.089-0.704 0.205-1.393 0.365-2.037h-0.203zm2.203 0c-0.56 1.039-1.36 2.05-2.311 2.975-0.06 0.065-0.113 0.132-0.175 0.197 0-6e-3 1e-3 -0.012 2e-3 -0.018-9e-3 8e-3 -0.016 0.016-0.024 0.024 0 0.32 0.018 0.642 0.033 0.965 1.345-1.26 2.395-2.7 2.945-4.143h-0.47zm-4.108 4.625c-0.093 0.07-0.185 0.14-0.281 0.209-1.443 1.045-3.091 1.824-4.744 2.176 0.403 0.115 0.78 0.248 1.125 0.406 1.325-0.412 2.605-1.057 3.766-1.865 0.037-0.309 0.084-0.618 0.134-0.926zm-7.062 2.687v0.998c2.031 0.19 3.381 0.54 4.301 1.76 0.91 1.21 1.42 2.41 1.42 3.93h0.699c0-0.32-0.036-0.66-0.092-1h-0.607c0-1.48-0.489-2.65-1.352-3.83-0.794-0.68-1.76-1.05-2.99-1.34 0.271-0.036 0.541-0.086 0.81-0.144-0.626-0.184-1.346-0.294-2.189-0.374zm6.771 1.448c-0.037 1.77 0.136 3.53 0.512 5.24h4.837c-0.33-0.3-0.63-0.64-0.91-1h-3.927c-0.305-1.38-0.477-2.81-0.512-4.24z" fill="#fff" opacity=".2"/>
 <path id="path31" d="m9.795 1c-0.658 1.449-1.157 2.939-1.488 4.441-0.172 0.136-0.347 0.264-0.526 0.393-2.04 1.477-4.486 2.442-6.781 2.385v1c0.67 0.016 1.352-0.063 2.033-0.207-0.215-0.062-0.421-0.128-0.654-0.182 2.005-0.268 3.996-1.159 5.709-2.383-0.01 0.059-0.016 0.119-0.026 0.178 0.082-0.061 0.165-0.12 0.245-0.184 0.331-1.502 0.83-2.992 1.488-4.441h0.172c0.063-0.337 0.123-0.679 0.203-1h-0.375zm2.095 0c-0.44 1.02-1.17 2.064-2.085 3.037-0.047 0.369-0.099 0.736-0.119 1.117 0.061-0.058 0.113-0.121 0.173-0.179 0.891-0.956 1.601-1.976 2.031-2.975h0.28c0.18-0.332 0.34-0.665 0.47-1h-0.75zm-2.195 5.143c-0.012 0.011-0.021 0.024-0.033 0.035-3e-3 3.197 0.778 6.552 2.548 8.822h0.91c-2.21-2-3.261-5.45-3.425-8.857zm-1.607 1.304c-0.052 0.037-0.11 0.067-0.162 0.104-0.126 1.045-0.176 2.093-0.155 3.139 0.026-1.083 0.132-2.165 0.317-3.243zm-3.928 1.969c-0.322 0.1-0.644 0.199-0.971 0.27 0.883 0.259 1.574 0.674 2.112 1.384 0.025 0.03 0.042 0.07 0.066 0.1 0.175 0.15 0.343 0.31 0.502 0.49 0.701 0.8 1.253 2.09 1.459 3.34h0.092c0-1.52-0.66-3.32-1.551-4.34-0.487-0.56-1.054-0.945-1.709-1.244z" opacity=".3"/>
</svg>
