<?xml version="1.0" encoding="UTF-8"?>
<svg id="svg36" width="16" height="16" version="1.1" xmlns="http://www.w3.org/2000/svg" xmlns:cc="http://creativecommons.org/ns#" xmlns:dc="http://purl.org/dc/elements/1.1/" xmlns:rdf="http://www.w3.org/1999/02/22-rdf-syntax-ns#">
 <metadata id="metadata40">
  <rdf:RDF>
   <cc:Work rdf:about="">
    <dc:format>image/svg+xml</dc:format>
    <dc:type rdf:resource="http://purl.org/dc/dcmitype/StillImage"/>
   </cc:Work>
  </rdf:RDF>
 </metadata>
 <defs id="defs7">
  <radialGradient id="gr0" cx="9" cy="10" r="11" gradientTransform="matrix(1 0 0 .72727 0 2.7273)" gradientUnits="userSpaceOnUse">
   <stop id="stop2" stop-opacity=".23529" offset="0"/>
   <stop id="stop4" stop-opacity=".54902" offset="1"/>
  </radialGradient>
 </defs>
 <path id="path9" d="m3 0c-1.645 0-3 1.355-3 3v10c0 1.64 1.355 3 3 3h10c1.64 0 3-1.36 3-3v-10c0-1.645-1.36-3-3-3h-10zm0 1h10c1.11 0 2 0.892 2 2v10c0 1.11-0.89 2-2 2h-10c-1.108 0-2-0.89-2-2v-10c0-1.108 0.892-2 2-2zm1 1c-0.554 0-1 0.446-1 1v8c0 0.55 0.446 1 1 1h8c0.55 0 1-0.45 1-1v-8c0-0.554-0.45-1-1-1h-8zm0 1h4a1 1 0 0 0-1 1v1a1 1 0 0 0-1 1v1a1 1 0 0 0 0.168 0.557c-0.661 0.452-1.168 1.091-1.168 1.943 0 0.58 0.286 1.07 0.627 1.5h-1.627v-8zm6.09 0h1.91v4.486 0.01c0-0.853-0.51-1.491-1.17-1.943a1 1 0 0 0 0.17-0.557v-1a1 1 0 0 0-0.91-0.996zm-2.09 1h2v1h-2v-1zm-1 2 2.5 4e-3c0.83 0 1.5 0.672 1.5 1.5v0.039 3.457h-3.5c-0.828 0-1.5-0.67-1.5-1.5 0-0.828 0.672-1.5 1.5-1.5h2.5v-0.5c0-0.277-0.223-0.5-0.5-0.5h-2.5v-1zm0.5 3c-0.277 0-0.5 0.223-0.5 0.5s0.223 0.5 0.5 0.5h2.5v-1h-2.5z" fill="#fff" opacity=".05"/>
 <path id="base" d="m3 1c-1.108 0-2 0.892-2 2v10c0 1.108 0.892 2 2 2h10c1.108 0 2-0.892 2-2v-10c0-1.108-0.892-2-2-2zm1 1h8c0.554 0 1 0.446 1 1v8c0 0.554-0.446 1-1 1h-8c-0.554 0-1-0.446-1-1v-8c0-0.554 0.446-1 1-1zm4 2v1h2v-1zm-1 2v1h2.5c0.277 0 0.5 0.223 0.5 0.5v0.5h-2.5c-0.82843 0-1.5 0.67157-1.5 1.5s0.67157 1.5 1.5 1.5h3.5v-3.457c2.05e-4 -0.014322 2.05e-4 -0.028647 0-0.042969 0-0.82843-0.67157-1.5-1.5-1.5zm0.5 3h2.5v1h-2.5c-0.277 0-0.5-0.223-0.5-0.5s0.223-0.5 0.5-0.5z" fill="url(#gr0)"/>
 <path id="path17" d="m3 1c-1.108 0-2 0.892-2 2v10c0 1.11 0.892 2 2 2h10c1.11 0 2-0.89 2-2v-10c0-1.108-0.89-2-2-2h-10zm0 0.5h1c-0.822 0-1.5 0.678-1.5 1.5v8c0 0.82 0.678 1.5 1.5 1.5h8c0.82 0 1.5-0.68 1.5-1.5v-8c0-0.822-0.68-1.5-1.5-1.5h1c0.84 0 1.5 0.66 1.5 1.5v10c0 0.84-0.66 1.5-1.5 1.5h-10c-0.84 0-1.5-0.66-1.5-1.5v-10c0-0.84 0.66-1.5 1.5-1.5zm1 0.5h8c0.55 0 1 0.446 1 1v8c0 0.55-0.45 1-1 1h-8c-0.554 0-1-0.45-1-1v-8c0-0.554 0.446-1 1-1zm4 2v1h2v-1h-2zm-1 2v1h2.5c0.277 0 0.5 0.223 0.5 0.5v0.5h-2.5c-0.828 0-1.5 0.672-1.5 1.5 0 0.83 0.672 1.5 1.5 1.5h3.5v-3.457-0.039c0-0.828-0.67-1.5-1.5-1.5l-2.5-4e-3zm2.797 0.545c0.19 0.058 0.353 0.17 0.473 0.32-0.12-0.148-0.285-0.261-0.473-0.32zm0.703 1.455v1a0.5 0.5 0 0 0-0.5-0.5 0.5 0.5 0 0 0 0.5-0.5zm-3 0.5c-0.545 0-1 0.455-1 1 0-0.558 0.442-1 1-1zm0 0.5h2.5v1h-2.5c-0.277 0-0.5-0.223-0.5-0.5s0.223-0.5 0.5-0.5zm-0.955 0.797c0.059 0.188 0.172 0.353 0.32 0.473-0.15-0.12-0.262-0.283-0.32-0.473zm3.955 0.203v0.5h-0.5a0.5 0.5 0 0 0 0.5-0.5z" opacity=".3"/>
 <path id="path24" d="m4 2c-0.554 0-1 0.446-1 1v1c0-0.554 0.446-1 1-1h8c0.55 0 1 0.446 1 1v-1c0-0.554-0.45-1-1-1h-8zm4 3v1h2v-1h-2zm-1 2v1h0.5 2 0.5v-0.5c0-0.264-0.204-0.472-0.463-0.492-0.013-1e-3 -0.024-4e-3 -0.037-4e-3l-2.5-4e-3zm0.5 2c-0.277 0-0.5 0.223-0.5 0.5s0.223 0.5 0.5 0.5h2.5v-1h-2.5zm-1.408 1c-0.056 0.16-0.092 0.32-0.092 0.5 0 0.83 0.672 1.5 1.5 1.5h3.5v-1h-1-2.5c-0.652 0-1.202-0.42-1.408-1zm-5.092 3v1c0 1.11 0.892 2 2 2h10c1.11 0 2-0.89 2-2v-1c0 1.11-0.89 2-2 2h-10c-1.108 0-2-0.89-2-2z" fill="#fff" opacity=".2"/>
 <path id="path31" d="m3 1c-1.108 0-2 0.892-2 2v1c0-1.108 0.892-2 2-2h1 8 1c1.11 0 2 0.892 2 2v-1c0-1.108-0.89-2-2-2h-10zm5 3v1h2v-1h-2zm-1 2v1h2.5c0.013 0 0.024 7e-3 0.037 8e-3 0.813 0.02 1.463 0.681 1.463 1.496v-0.961-0.039c0-0.828-0.67-1.5-1.5-1.5l-2.5-4e-3zm0.5 2c-0.828 0-1.5 0.672-1.5 1.5 0 0.177 0.036 0.343 0.092 0.5 0.206-0.581 0.756-1 1.408-1h2.5v-0.5c0-0.277-0.223-0.5-0.5-0.5h-2zm0 2c-0.277 0-0.5 0.22-0.5 0.5s0.223 0.5 0.5 0.5h2.5v-1h-2.5zm-4.5 1v1c0 0.55 0.446 1 1 1h8c0.55 0 1-0.45 1-1v-1c0 0.55-0.45 1-1 1h-1-3.5-3.5c-0.554 0-1-0.45-1-1z" opacity=".3"/>
</svg>
