<?xml version="1.0" encoding="UTF-8"?>
<svg id="svg36" width="16" height="16" version="1.1" xmlns="http://www.w3.org/2000/svg" xmlns:cc="http://creativecommons.org/ns#" xmlns:dc="http://purl.org/dc/elements/1.1/" xmlns:rdf="http://www.w3.org/1999/02/22-rdf-syntax-ns#">
 <metadata id="metadata40">
  <rdf:RDF>
   <cc:Work rdf:about="">
    <dc:format>image/svg+xml</dc:format>
    <dc:type rdf:resource="http://purl.org/dc/dcmitype/StillImage"/>
   </cc:Work>
  </rdf:RDF>
 </metadata>
 <defs id="defs7">
  <radialGradient id="gr0" cx="9" cy="10" r="11" gradientTransform="matrix(1 0 0 .72727 0 2.7273)" gradientUnits="userSpaceOnUse">
   <stop id="stop2" stop-opacity=".23529" offset="0"/>
   <stop id="stop4" stop-opacity=".54902" offset="1"/>
  </radialGradient>
 </defs>
 <path id="path9" d="m6.004-0.007812-3.004 0.007812c-1.091 0-2 0.9093-2 2v1a1 1 0 0 0 0.168 0.557c-0.6609 0.452-1.168 1.092-1.168 1.943v4.5 1.5c0 1.37 1.132 2.5 2.5 2.5h3.924l-0.893-0.58c-0.055-0.14-0.123-0.3-0.172-0.42h-7e-3c-1e-3 0 0.018 0.05 0.015 0.04 0.011 0.03-0.022-0.04 0.024 0.08 0.142 0.37 0.037 0.11-0.041-0.12h-2.85c-0.831 0-1.5-0.67-1.5-1.5v-1.5-4.5c0-0.831 0.669-1.5 1.5-1.5v-0.01h11c0.83 0 1.5 0.669 1.5 1.5v1.09c0.11 0.109 0.23 0.221 0.33 0.309 0.15 0.181 0.37 0.445 0.5 0.582l0.17 0.521v-2.51c0-0.849-0.51-1.486-1.16-1.939a1 1 0 0 0 0.16-0.551c0-1.091-0.91-1.9998-2-1.9998h-5.416c-0.357-0.5612-0.877-1-1.58-1zm-3.004 1.0078h3c0.554 0 1 0.446 1 1h6c0.55 0 1 0.446 1 1h-12v-1c0-0.554 0.446-1 1-1zm8 5a5 5 0 0 0-0.07 2e-3c-0.18 3e-3 -0.35 0.017-0.53 0.039a5 5 0 0 0-0.07 0.01c-0.978 0.14-1.91 0.571-2.65 1.219a5 5 0 0 0-0.069 0.06c-0.102 0.093-0.197 0.194-0.291 0.295a5 5 0 0 0-0.14 0.15 5 5 0 0 0-0.307 0.403 5 5 0 0 0-0.094 0.152c-0.108 0.172-0.208 0.349-0.293 0.533a5 5 0 0 0-0.023 0.049c-0.73 1.638-0.53 3.688 0.57 5.118 1.262 1.65 3.617 2.36 5.577 1.69 1.96-0.66 3.39-2.66 3.39-4.73a1 1 0 0 0-1-0.996h-2.7l0.7-2.603a1 1 0 0 0-0.61-1.19 5 5 0 0 0-0.29-0.074c-0.06-0.015-0.13-0.029-0.19-0.041a5 5 0 0 0-0.38-0.057c-0.03-3e-3 -0.06-5e-3 -0.09-8e-3a5 5 0 0 0-0.44-0.021zm0.07 1a4 4 0 0 1 0.97 0.137l-1.04 3.863h4a4 4 0 0 1-2.71 3.79 4 4 0 0 1-4.464-1.35 4 4 0 0 1-0.152-4.663 4 4 0 0 1 3.396-1.777z" fill="#fff" opacity=".05"/>
 <path id="base" d="m3 1c-0.554 0-1 0.446-1 1v1h12c0-0.554-0.446-1-1-1h-6c0-0.554-0.446-1-1-1h-3zm-0.5 3c-0.831 0-1.5 0.669-1.5 1.5v6c0 0.831 0.669 1.5 1.5 1.5h3.9238a5 5 0 0 1-0.4238-2 5 5 0 0 1 5-5 5 5 0 0 1 4 2v-2.51c0-0.831-0.669-1.5-1.5-1.5h-11zm8.5723 3a4 4 0 0 0-3.3984 1.7773 4 4 0 0 0 0.15234 4.6582 4 4 0 0 0 4.459 1.3516 4 4 0 0 0 2.7148-3.7871h-4l1.0352-3.8633a4 4 0 0 0-0.9629-0.13672z" fill="url(#gr0)"/>
 <path id="path17" d="m3 1c-0.554 0-1 0.446-1 1v1h12c0-0.554-0.45-1-1-1h-6c0-0.554-0.446-1-1-1h-3zm0 0.5h3c0.286 0 0.5 0.214 0.5 0.5a0.5 0.5 0 0 0 0.5 0.5h-4.5v-0.5c0-0.286 0.214-0.5 0.5-0.5zm-0.5 2.49v0.01c-0.831 0-1.5 0.669-1.5 1.5v4.5 1.5c0 0.83 0.669 1.5 1.5 1.5h3.924a5 5 0 0 1-0.188-0.5h-3.732c-0.563 0-1-0.44-1-1v-1.5-4.5c0-0.563 0.437-1 1-1a0.5 0.5 0 0 0 0.09-0.01l10.926-0.023c0.56 0 1 0.438 1 1v1.986a5 5 0 0 1 0.48 0.547v-2.51c0-0.831-0.67-1.5-1.5-1.5h-11zm8.57 3.01a4 4 0 0 0-3.396 1.777 4 4 0 0 0 0.152 4.663 4 4 0 0 0 4.464 1.35 4 4 0 0 0 2.71-3.79h-4l1.04-3.863a4 4 0 0 0-0.97-0.137zm-0.01 0.498c0.12 0 0.23 0.041 0.35 0.051l-0.89 3.321a0.5 0.5 0 0 0 0.48 0.63h3.42c-0.2 1.26-1.08 2.4-2.3 2.81-1.37 0.47-3.014-0.03-3.897-1.18-0.884-1.15-0.94-2.87-0.133-4.075 0.648-0.97 1.808-1.575 2.97-1.555v-2e-3z" opacity=".3"/>
 <path id="path24" d="m2 3v1h0.5v-0.01h11c0.03 0 0.07 8e-3 0.1 0.01h0.4c0-0.554-0.45-1-1-1h-6-5zm9 3a5 5 0 0 0-5 5 5 5 0 0 0 0.027 0.48 5 5 0 0 1 4.973-4.48 5 5 0 0 1 0.03 2e-3 4 4 0 0 1 0.04-2e-3 4 4 0 0 1 0.26 0.018 5 5 0 0 1 3.67 1.982v-1a5 5 0 0 0-4-2zm0.79 2.082-0.79 2.918h0.27l0.77-2.863a4 4 0 0 0-0.25-0.055zm-10.79 3.418v1c0 0.83 0.669 1.5 1.5 1.5h3.924a5 5 0 0 1-0.317-1h-3.607c-0.831 0-1.5-0.67-1.5-1.5zm6.033 0.01a4 4 0 0 0 0.793 2.93 4 4 0 0 0 4.464 1.35 4 4 0 0 0 2.71-3.79h-0.13a4 4 0 0 1-2.58 2.79 4 4 0 0 1-4.464-1.35 4 4 0 0 1-0.793-1.93z" fill="#fff" opacity=".2"/>
 <path id="path31" d="m3 1c-0.554 0-1 0.446-1 1v1c0-0.554 0.446-1 1-1h3c0.554 0 1 0.446 1 1h6 1c0-0.554-0.45-1-1-1h-6c0-0.554-0.446-1-1-1h-3zm-0.5 3c-0.831 0-1.5 0.669-1.5 1.5v1c0-0.831 0.669-1.5 1.5-1.5v-0.01h11c0.83 0 1.5 0.669 1.5 1.5v-1c0-0.796-0.62-1.437-1.4-1.49h-11.1zm8.53 3.002a4 4 0 0 0-3.356 1.775 4 4 0 0 0-0.641 2.733 4 4 0 0 1 0.641-1.733 4 4 0 0 1 3.396-1.777 4 4 0 0 1 0.72 0.082l0.25-0.945a4 4 0 0 0-0.71-0.119 5 5 0 0 0-0.3-0.016zm0.24 3.998-0.27 1h3.87a4 4 0 0 0 0.13-1h-3.73zm-5.243 0.48a5 5 0 0 0-0.027 0.52 5 5 0 0 0 0.107 1h0.317a5 5 0 0 1-0.397-1.52z" opacity=".3"/>
</svg>
