<?xml version="1.0" encoding="UTF-8"?>
<svg id="svg36" width="16" height="16" version="1.1" xmlns="http://www.w3.org/2000/svg" xmlns:cc="http://creativecommons.org/ns#" xmlns:dc="http://purl.org/dc/elements/1.1/" xmlns:rdf="http://www.w3.org/1999/02/22-rdf-syntax-ns#">
 <metadata id="metadata40">
  <rdf:RDF>
   <cc:Work rdf:about="">
    <dc:format>image/svg+xml</dc:format>
    <dc:type rdf:resource="http://purl.org/dc/dcmitype/StillImage"/>
   </cc:Work>
  </rdf:RDF>
 </metadata>
 <defs id="defs7">
  <radialGradient id="gr0" cx="9" cy="10" r="11" gradientTransform="matrix(1 0 0 .72727 0 2.7273)" gradientUnits="userSpaceOnUse">
   <stop id="stop2" stop-opacity=".23529" offset="0"/>
   <stop id="stop4" stop-opacity=".54902" offset="1"/>
  </radialGradient>
 </defs>
 <path id="path9" d="m7.207 0a1 1 0 0 0-0.799 0.3789c-0.567 0.7161-0.984 1.2811-1.228 1.9321-0.05 0.142-0.09 0.29-0.112 0.441a1 1 0 0 0-1.642-0.488c-0.524 0.481-0.923 0.844-1.203 1.377-0.281 0.532-0.229 1.366 0.099 1.863 0.341 0.521 0.651 0.701 0.723 0.801 0.07 0.1 0.11-0.01-0.022 0.379a1 1 0 0 0-0.048 0.316h-0.973a1 1 0 0 0-1 1v3.5c0 2.48 2.024 4.5 4.5 4.5h3c1.938 0 3.528-1.27 4.148-3h0.35c1.09 0 2-0.91 2-2v-2c0-1.091-0.91-2-2-2h-1-0.52c0.22-0.264 0.4-0.551 0.48-0.898 0.17-0.74-0.24-1.439-0.64-1.831-0.24-0.231-0.32-0.354-0.34-0.416 0-0.06-0.1-0.161 0.1-0.539a1 1 0 0 0-1.623-1.052c-0.403 0.369-0.667 0.696-0.924 1.056-0.21-0.333-0.378-0.609-0.431-0.822-0.06-0.258-0.081-0.585 0.089-1.254a1 1 0 0 0-0.955-1.244h-0.029zm-0.016 1c-0.384 1.528-0.048 2.097 0.563 3.035 0.601 0.922 9e-3 2.065-0.756 2.965 0.466-1.847-0.479-2.254-0.838-3.053-0.395-0.881-0.065-1.563 1.031-2.947zm-3.089 2c-0.339 1.017-0.022 1.467 0.523 1.992 0.559 0.539 0.609 1.156-0.652 2.008 0.411-1.23-0.471-1.514-0.817-2.043-0.382-0.583-0.062-1.031 0.946-1.957zm5.998 0c-0.337 1.017-0.02 1.467 0.53 1.992 0.55 0.539 0.6 1.156-0.657 2.008 0.407-1.23-0.471-1.514-0.817-2.043-0.382-0.583-0.061-1.031 0.944-1.957zm-5.045 0.303c0.02 0.299 0.09 0.597 0.187 0.875-0.133-0.143-0.249-0.275-0.265-0.323-0.02-0.06-0.05-0.161 0.07-0.539a1 1 0 0 0 0-9e-3l8e-3 -4e-3zm0.828 2.052c0.03 0.04 0.1 0.146 0.117 0.184 0.128 0.248 0.218 0.466 0.029 1.217a1 1 0 0 0-0.029 0.244h-0.5-0.02c0.221-0.264 0.393-0.551 0.473-0.898 0.06-0.264-0.01-0.505-0.07-0.747zm2.867 0.627h2e-3c0.09 0.08 0.26 0.283 0.289 0.323 0.07 0.1 0.113-0.01-0.02 0.379a1 1 0 0 0-0.05 0.316h-0.473-0.353c0.224-0.323 0.459-0.632 0.605-1.018zm-3.199 2.008h3 3.499 1c0.55 0 1 0.446 1 1v2c0 0.55-0.45 1-1 1h-1-0.1c-0.24 1.7-1.68 3.01-3.45 3.01h-3c-1.939 0-3.5-1.56-3.5-3.5v-3.5l3.551-0.01zm6.449 1.01v2h1v-2h-1z" fill="#fff" opacity=".05"/>
 <path id="base" d="m7.1914 1c-1.0962 1.3842-1.4267 2.0662-1.0312 2.9473.3584.7986 1.3037 1.2057.8378 3.0527.7651-.8999 1.3567-2.0429.7559-2.9648-.6110-.9377-.9467-1.5072-.5625-3.0352zm-3.0898 2c-1.0071.9256-1.3272 1.3738-.9454 1.957.3462.5287 1.2275.8134.8165 2.043 1.2615-.8517 1.2109-1.4688.6523-2.0078-.5446-.5255-.8624-.9750-.5234-1.9922zm6.0004 0c-1.0075.9256-1.3276 1.3738-.9458 1.957.3462.5287 1.2278.8134.8165 2.043 1.2613-.8517 1.2113-1.4688.6523-2.0078-.545-.5255-.8624-.9750-.523-1.9922zm-8.102 5v3.5c0 1.939 1.561 3.5 3.5 3.5h3c1.771 0 3.212-1.307 3.451-3.01.017.001.032.010.049.010h1c.554 0 1-.446 1-1v-2c0-.554-.446-1-1-1h-1-3.5-3-3.5zm10 1h1v2h-1v-2z" fill="url(#gr0)"/>
 <path id="path17" d="m7.191 1c-1.096 1.384-1.426 2.066-1.031 2.947 0.359 0.799 1.304 1.206 0.838 3.053 0.765-0.9 1.357-2.043 0.756-2.965-0.611-0.938-0.947-1.507-0.563-3.035zm-0.584 1.785h0.012c0 3e-3 -8e-3 9e-3 -0.012 0.014v0.056c0.137 0.547 0.413 0.979 0.721 1.452 0.182 0.276 0.182 0.566 0.102 0.908-0.046-0.117-0.056-0.265-0.106-0.365-0.27-0.525-0.59-0.833-0.715-1.112-0.154-0.349-0.164-0.547-0.031-0.902 7e-3 -7e-3 0.02-0.024 0.029-0.037v-0.014zm-2.505 0.215c-1.008 0.926-1.328 1.374-0.946 1.957 0.346 0.529 1.228 0.813 0.817 2.043 1.261-0.852 1.211-1.469 0.652-2.008-0.545-0.525-0.862-0.975-0.523-1.992zm5.998 0c-1.005 0.926-1.326 1.374-0.944 1.957 0.346 0.529 1.224 0.813 0.817 2.043 1.257-0.852 1.207-1.469 0.657-2.008-0.55-0.525-0.867-0.975-0.53-1.992zm-6.541 1.33h2e-3c1e-3 0 0 0.01 0 0.01 0.147 0.426 0.428 0.729 0.716 1.008 0.217 0.208 0.247 0.293 0.217 0.416 0 0.01-0.068 0.06-0.068 0.08-0.054-0.146-0.088-0.312-0.168-0.422-0.282-0.387-0.59-0.602-0.68-0.738-0.12-0.189-0.119-0.16-0.019-0.344v-0.01zm6 0h0.035v0.01c0.146 0.427 0.426 0.729 0.716 1.008 0.21 0.208 0.21 0.293 0.21 0.416 0 0.01-0.1 0.06-0.1 0.08-0.05-0.146-0.07-0.312-0.17-0.422-0.275-0.387-0.582-0.602-0.672-0.738-0.12-0.189-0.119-0.16-0.019-0.344 0-0.01-1e-3 -0.01 0-0.01zm-4.008 3.66-3.551 0.01v3.5c0 1.94 1.561 3.5 3.5 3.5h3c1.77 0 3.21-1.31 3.45-3.01h0.1 1c0.55 0 1-0.45 1-1v-2c0-0.554-0.45-1-1-1h-1-3.499-3zm-3.051 0.51h3 3 3.5a0.5 0.5 0 0 0-0.5 0.5v2a0.5 0.5 0 0 0 0.41 0.49 0.5 0.5 0 0 0-0.45 0.43c-0.21 1.46-1.44 2.58-2.96 2.58h-3c-1.671 0-3-1.33-3-3v-3zm9.5 0.5h1v2h-1v-2z" opacity=".3"/>
 <path id="path24" d="m7.191 2c-0.062 0.079-0.098 0.136-0.156 0.211 4e-3 0.133 0.018 0.259 0.039 0.377 0.027-0.181 0.063-0.373 0.117-0.588zm-1.099 1.752c-0.135 0.415-0.116 0.785 0.068 1.195 0.244 0.543 0.749 0.914 0.908 1.668 0.242-1.512-0.576-1.93-0.908-2.668-0.03-0.066-0.047-0.13-0.068-0.195zm-1.99 0.248c-0.037 0.034-0.057 0.057-0.092 0.09 0.012 0.046 0.028 0.089 0.045 0.133 0.019-0.078 0.018-0.138 0.047-0.223zm5.998 0c-0.04 0.033-0.06 0.056-0.09 0.088 0.01 0.045 0.03 0.088 0.04 0.131 0.02-0.076 0.02-0.135 0.05-0.219zm-6.909 0.996c-0.22 0.347-0.247 0.636-0.035 0.961 0.216 0.33 0.639 0.565 0.828 0.992 0.357-1.152-0.435-1.458-0.793-1.953zm6 0c-0.219 0.347-0.247 0.636-0.035 0.961 0.216 0.33 0.64 0.565 0.828 0.994 0.356-1.153-0.435-1.459-0.793-1.955zm-1.269 0.387c-0.134 0.505-0.445 1.007-0.811 1.463 0.03 0.31 5e-3 0.682-0.111 1.144h6e-3c0.668-0.788 1.2-1.76 0.916-2.607zm2.898 0.832c-0.15 0.235-0.42 0.489-0.826 0.769 0.106 0.252 0.126 0.568-0.019 1.006h0.011c1.074-0.732 1.174-1.291 0.834-1.775zm-6 2e-3c-0.155 0.234-0.416 0.486-0.826 0.765 0.103 0.253 0.127 0.57-0.019 1.012h5e-3c1.081-0.733 1.189-1.292 0.84-1.777zm7.18 2.783v1h1v-1h-1zm2.05 1.99c0 0.55-0.45 1-1 1h-0.05v0.01h-1v-0.01h-0.05c-0.24 1.7-1.68 3.01-3.45 3.01h-3c-1.939 0-3.5-1.56-3.5-3.5v1c0 1.94 1.561 3.5 3.5 3.5h3c1.77 0 3.21-1.31 3.45-3.01h0.1 1c0.55 0 1-0.45 1-1v-1z" fill="#fff" opacity=".2"/>
 <path id="path31" d="m7.191 1c-1.013 1.279-1.363 1.961-1.099 2.752 0.138-0.425 0.463-0.918 0.943-1.541-0.01-0.336 0.033-0.721 0.156-1.211zm-0.117 1.588c-0.163 1.104 0.155 1.641 0.68 2.447 0.073 0.113 0.128 0.229 0.168 0.348 0.123-0.466 0.105-0.929-0.168-1.348-0.338-0.519-0.585-0.929-0.68-1.447zm-2.972 0.412c-1.008 0.926-1.328 1.374-0.946 1.957 9e-3 0.014 0.026 0.025 0.035 0.039 0.161-0.253 0.429-0.543 0.819-0.906-0.076-0.288-0.062-0.629 0.092-1.09zm5.998 0c-1.005 0.926-1.326 1.374-0.944 1.957 9e-3 0.014 0.026 0.025 0.035 0.039 0.161-0.254 0.429-0.544 0.819-0.908-0.076-0.287-0.063-0.628 0.09-1.088zm-0.05 1.219c-0.209 0.852 0.08 1.291 0.58 1.773 0.08 0.073 0.14 0.147 0.19 0.223 0.31-0.472 0.18-0.866-0.19-1.223-0.26-0.25-0.46-0.487-0.58-0.773zm-5.995 4e-3c-0.213 0.849 0.071 1.288 0.57 1.769 0.076 0.074 0.14 0.148 0.195 0.225 0.313-0.473 0.176-0.867-0.195-1.225-0.259-0.249-0.46-0.485-0.57-0.769zm3.013 2.392c-0.02 0.126-0.034 0.244-0.07 0.385 0.041-0.049 0.073-0.104 0.113-0.154-8e-3 -0.085-0.027-0.155-0.043-0.231zm-3.084 0.334c-5e-3 0.018-5e-3 0.032-0.011 0.051 8e-3 -6e-3 0.013-0.012 0.021-0.018-4e-3 -0.01-5e-3 -0.023-0.01-0.033zm6 4e-3c-5e-3 0.017-6e-3 0.03-0.011 0.047 8e-3 -5e-3 0.013-0.01 0.021-0.016-4e-3 -9e-3 -5e-3 -0.021-0.01-0.031zm-4.433 1.037-1.571 4e-3c-2e-3 2e-3 -4e-3 4e-3 -7e-3 6e-3 0-2e-3 1e-3 -4e-3 2e-3 -6e-3l-1.975 6e-3v1l3.551-0.01h3 3.499 1c0.55 0 1 0.446 1 1v-1c0-0.554-0.45-1-1-1h-1-2.064c-5e-3 4e-3 -8e-3 7e-3 -0.013 0.01 1e-3 -4e-3 0-6e-3 2e-3 -0.01h-1.424-1.545c-3e-3 3e-3 -5e-3 7e-3 -8e-3 0.01 1e-3 -4e-3 1e-3 -6e-3 2e-3 -0.01h-1.449zm6.449 3.01v0.99h0.05 0.95v-0.99h-1z" opacity=".3"/>
</svg>
