<?xml version="1.0" encoding="UTF-8"?>
<svg id="svg36" width="16" height="16" version="1.1" xmlns="http://www.w3.org/2000/svg" xmlns:cc="http://creativecommons.org/ns#" xmlns:dc="http://purl.org/dc/elements/1.1/" xmlns:rdf="http://www.w3.org/1999/02/22-rdf-syntax-ns#">
 <metadata id="metadata40">
  <rdf:RDF>
   <cc:Work rdf:about="">
    <dc:format>image/svg+xml</dc:format>
    <dc:type rdf:resource="http://purl.org/dc/dcmitype/StillImage"/>
   </cc:Work>
  </rdf:RDF>
 </metadata>
 <defs id="defs7">
  <radialGradient id="gr0" cx="9" cy="10" r="11" gradientTransform="matrix(1 0 0 .72727 0 2.7273)" gradientUnits="userSpaceOnUse">
   <stop id="stop2" stop-opacity=".23529" offset="0"/>
   <stop id="stop4" stop-opacity=".54902" offset="1"/>
  </radialGradient>
 </defs>
 <path id="path9" d="m2.5 0c-1.368 0-2.5 1.132-2.5 2.5v1.5 9.5c0 1.37 1.132 2.5 2.5 2.5h11c1.37 0 2.5-1.13 2.5-2.5v-11c0-1.368-1.13-2.5-2.5-2.5h-9.5-1.5zm0 1h1.5 9.5c0.83 0 1.5 0.669 1.5 1.5v11c0 0.83-0.67 1.5-1.5 1.5h-11c-0.831 0-1.5-0.67-1.5-1.5v-9.5-1.5c0-0.831 0.669-1.5 1.5-1.5zm4.326 2a3 3 0 0 1 0.174 1 3 3 0 0 1-3 3 3 3 0 0 1-1-0.176v5.176c0 0.55 0.446 1 1 1h8c0.55 0 1-0.45 1-1v-8c0-0.554-0.45-1-1-1h-5.174zm1.174 1h4v2h-4.621c0.361-0.614 0.621-1.287 0.621-2zm-1 3h5v1h-5v-1zm-1 0.379v0.621h-2c0.713 0 1.386-0.26 2-0.621zm-2 1.621h8v1h-8v-1zm0 2h8v1h-8v-1z" fill="#fff" fill-rule="evenodd" opacity=".05"/>
 <path id="base" d="m2.5 1c-0.831 0-1.5 0.669-1.5 1.5v11c0 0.831 0.669 1.5 1.5 1.5h11c0.831 0 1.5-0.669 1.5-1.5v-11c0-0.831-0.669-1.5-1.5-1.5h-11zm1.5 2a1 1 0 0 1 1 1 1 1 0 0 1-1 1 1 1 0 0 1-1-1 1 1 0 0 1 1-1zm2.8262 0h5.1738c0.554 0 1 0.446 1 1v8c0 0.554-0.446 1-1 1h-8c-0.554 0-1-0.446-1-1v-5.1758a3 3 0 0 0 1 0.17578 3 3 0 0 0 3-3 3 3 0 0 0-0.17383-1zm0.17383 4v1h5v-1h-5zm-3 2v1h8v-1h-8zm0 2v1h8v-1h-8z" fill="url(#gr0)" fill-rule="evenodd"/>
 <path id="path17" d="m2.5 1c-0.831 0-1.5 0.669-1.5 1.5v1.5 9.5c0 0.83 0.669 1.5 1.5 1.5h11c0.83 0 1.5-0.67 1.5-1.5v-11c0-0.831-0.67-1.5-1.5-1.5h-9.5-1.5zm0 0.5h1.5 9.5c0.56 0 1 0.437 1 1v11c0 0.56-0.44 1-1 1h-11c-0.563 0-1-0.44-1-1v-9.5-1.5c0-0.563 0.437-1 1-1zm4.318 1-7e-3 2e-3a0.5 0.5 0 0 0-0.463 0.668c0.095 0.266 0.144 0.549 0.144 0.832-1e-3 0.654-0.27 1.303-0.732 1.766-0.463 0.462-1.112 0.732-1.766 0.732-0.283-1e-3 -0.567-0.056-0.834-0.146a0.5 0.5 0 0 0-0.668 0.47v5.176c0 0.82 0.678 1.5 1.5 1.5h7.998c0.82 0 1.5-0.68 1.5-1.5v-8c0-0.822-0.68-1.5-1.5-1.5h-5.172zm8e-3 0.5h5.174c0.55 0 1 0.446 1 1v8c0 0.55-0.45 1-1 1h-8c-0.554 0-1-0.45-1-1v-5.176a3 3 0 0 0 1 0.176 3 3 0 0 0 3-3 3 3 0 0 0-0.174-1zm0.174 4v1h5v-1h-5zm-3 2v1h8v-1h-8zm0 2v1h8v-1h-8z" fill-rule="evenodd" opacity=".3"/>
 <path id="path24" d="m4 3a1 1 0 0 0-1 1 1 1 0 0 0 0.135 0.5 1 1 0 0 1 0.865-0.5 1 1 0 0 1 0.865 0.5 1 1 0 0 0 0.135-0.5 1 1 0 0 0-1-1zm2.826 0a3 3 0 0 1 0.174 1h5c0.55 0 1 0.446 1 1v-1c0-0.554-0.45-1-1-1h-5.174zm0.131 1.514a3 3 0 0 1-2.957 2.486 3 3 0 0 1-1-0.176v1a3 3 0 0 0 1 0.176 3 3 0 0 0 3-3 3 3 0 0 0-0.043-0.486zm0.043 3.486v1h5v-1h-5zm-3 2v1h8v-1h-8zm0 2v1h8v-1h-8zm-3 1.5v1c0 0.83 0.669 1.5 1.5 1.5h11c0.83 0 1.5-0.67 1.5-1.5v-1c0 0.83-0.67 1.5-1.5 1.5h-11c-0.831 0-1.5-0.67-1.5-1.5z" fill="#fff" fill-rule="evenodd" opacity=".2"/>
 <path id="path31" d="m2.5 1c-0.831 0-1.5 0.669-1.5 1.5v1c0-0.831 0.669-1.5 1.5-1.5h1.5 9.5c0.83 0 1.5 0.669 1.5 1.5v-1c0-0.831-0.67-1.5-1.5-1.5h-9.5-1.5zm4.326 3a3 3 0 0 1 0.131 0.514 3 3 0 0 0 0.043-0.514h-0.174zm-3.691 0.5a1 1 0 0 0-0.135 0.5 1 1 0 0 0 1 1 1 1 0 0 0 1-1 1 1 0 0 0-0.135-0.5 1 1 0 0 1-0.865 0.5 1 1 0 0 1-0.865-0.5zm3.865 2.5v1h5v-1h-5zm-3 2v1h8v-1h-5-3zm0 2v1h8v-1h-8zm-1 1v1c0 0.55 0.446 1 1 1h8c0.55 0 1-0.45 1-1v-1c0 0.55-0.45 1-1 1h-8c-0.554 0-1-0.45-1-1z" fill-rule="evenodd" opacity=".3"/>
</svg>
