<?xml version="1.0" encoding="UTF-8"?>
<svg id="svg30" width="16" height="16" version="1.1" xmlns="http://www.w3.org/2000/svg" xmlns:cc="http://creativecommons.org/ns#" xmlns:dc="http://purl.org/dc/elements/1.1/" xmlns:rdf="http://www.w3.org/1999/02/22-rdf-syntax-ns#">
 <metadata id="metadata34">
  <rdf:RDF>
   <cc:Work rdf:about="">
    <dc:format>image/svg+xml</dc:format>
    <dc:type rdf:resource="http://purl.org/dc/dcmitype/StillImage"/>
   </cc:Work>
  </rdf:RDF>
 </metadata>
 <defs id="defs7">
  <radialGradient id="a" cx="9" cy="10" r="11" gradientTransform="matrix(1 0 0 .7 0 2.7)" gradientUnits="userSpaceOnUse">
   <stop id="stop2" stop-opacity=".23529" offset="0"/>
   <stop id="stop4" stop-opacity=".54902" offset="1"/>
  </radialGradient>
 </defs>
 <path id="path9" d="m2.5 0c-1.368 0-2.5 1.132-2.5 2.5v11c0 1.37 1.132 2.5 2.5 2.5h11c1.37 0 2.5-1.13 2.5-2.5v-11c0-1.369-1.13-2.5-2.5-2.5h-11zm0 1h11c0.83 0 1.5 0.669 1.5 1.5v11c0 0.83-0.67 1.5-1.5 1.5h-11c-0.83 0-1.5-0.67-1.5-1.5v-11c0-0.83 0.67-1.5 1.5-1.5zm0.5 4v8h10v-8h-10zm1 1h0.641c-0.222 0.146-0.458 0.273-0.641 0.467v-0.467zm4.125 0h2.445l-1.591 0.793c-0.24-0.319-0.526-0.575-0.854-0.793zm3.875 0.402v5.198h-1.73v-2.598h-0.87v-1.301l2.6-1.299zm-5.619 6e-3c1.305 0 2.379 1.16 2.379 2.592 0 1.44-1.074 2.6-2.379 2.6-1.316 0-2.381-1.16-2.381-2.6-1e-3 -1.432 1.063-2.588 2.379-2.588l2e-3 -4e-3zm0 1.414c-0.605 0-1.072 0.528-1.072 1.18 0 0.646 0.467 1.198 1.072 1.198 0.596 0 1.062-0.552 1.062-1.198 0-0.652-0.462-1.18-1.062-1.18zm0 1c0.013 0 0.062 1e-3 0.062 0.18 0 0.164-0.086 0.199-0.062 0.199 5e-3 0-0.072-0.034-0.072-0.199 0-0.176 0.049-0.18 0.072-0.18zm2.889 1.928v0.85a1 1 0 0 0 0.084 0.4h-1.219c0.474-0.32 0.858-0.74 1.135-1.25zm-5.27 0.79c0.179 0.19 0.411 0.32 0.627 0.46h-0.627v-0.46z" fill="#fff" opacity=".05"/>
 <path id="base" d="m2.5 1c-0.83 0-1.5 0.67-1.5 1.5v11c0 0.83 0.67 1.5 1.5 1.5h11c0.83 0 1.5-0.67 1.5-1.5v-11c0-0.831-0.67-1.5-1.5-1.5zm0.5 4h10v8h-10zm3.379 1.412c-1.316 0-2.38 1.156-2.379 2.588 0 1.44 1.064 2.6 2.38 2.6 1.305 0 2.38-1.16 2.38-2.6 0-1.432-1.075-2.592-2.38-2.592zm5.621-0.01-2.6 1.3v1.3h0.87v2.6h1.73zm-5.62 1.42c0.6 0 1.063 0.528 1.063 1.18 0 0.646-0.467 1.2-1.063 1.2-0.605 0-1.071-0.554-1.071-1.2 0-0.652 0.466-1.18 1.071-1.18z" fill="url(#a)"/>
 <path id="path15" d="m2.5 1c-0.83 0-1.5 0.67-1.5 1.5v11c0 0.83 0.67 1.5 1.5 1.5h11c0.83 0 1.5-0.67 1.5-1.5v-11c0-0.831-0.67-1.5-1.5-1.5h-11zm0 0.5h11c0.56 0 1 0.438 1 1v11c0 0.56-0.44 1-1 1h-11c-0.561 0-1-0.44-1-1v-11c0-0.561 0.439-1 1-1zm0.5 3a0.5 0.5 0 0 0-0.5 0.5v8a0.5 0.5 0 0 0 0.5 0.5h10a0.5 0.5 0 0 0 0.5-0.5v-8a0.5 0.5 0 0 0-0.5-0.5h-10zm0 0.5h10v8h-10v-8zm9 1.402-2.6 1.299v1.301h0.87v2.598h1.73v-5.198zm-5.619 6e-3 -2e-3 4e-3c-1.316 0-2.38 1.156-2.379 2.588 0 1.44 1.065 2.6 2.381 2.6 1.305 0 2.379-1.16 2.379-2.6 0-1.432-1.074-2.592-2.379-2.592zm-2e-3 0.504a0.5 0.5 0 0 0 0.017 0c1.002 0.01 1.864 0.913 1.864 2.088 0 1.19-0.87 2.1-1.879 2.1-1.022 0-1.881-0.91-1.881-2.1-1e-3 -1.184 0.856-2.088 1.879-2.088zm5.121 0.299v3.889h-0.73v-2.098a0.5 0.5 0 0 0-0.5-0.5h-0.37v-0.49l1.6-0.801zm-5.119 0.111c-0.896 0-1.572 0.79-1.572 1.68 0 0.886 0.662 1.698 1.572 1.698 0.906 0 1.562-0.811 1.562-1.698 0-0.889-0.669-1.68-1.562-1.68zm0 0.5c0.6 0 1.062 0.528 1.062 1.18 0 0.646-0.466 1.198-1.062 1.198-0.605 0-1.072-0.552-1.072-1.198 0-0.652 0.467-1.18 1.072-1.18z" opacity=".3"/>
 <path id="path20" d="m2.5 1c-0.83 0-1.5 0.67-1.5 1.5v1c0-0.83 0.67-1.5 1.5-1.5h11c0.83 0 1.5 0.669 1.5 1.5v-1c0-0.831-0.67-1.5-1.5-1.5h-11zm9.5 5.402-2.6 1.299v1l2.6-1.299v-1zm-5.619 6e-3 -2e-3 4e-3c-1.316 0-2.38 1.156-2.379 2.588 0 0.172 0.018 0.339 0.047 0.502 0.213-1.192 1.173-2.09 2.332-2.09l2e-3 -4e-3c1.149 0 2.116 0.899 2.332 2.092 0.029-0.162 0.047-0.329 0.047-0.5 0-1.432-1.074-2.592-2.379-2.592zm-0.967 3.094c-0.064 0.152-0.105 0.319-0.105 0.498 0 0.65 0.467 1.2 1.072 1.2 0.596 0 1.062-0.55 1.062-1.2 0-0.179-0.041-0.346-0.105-0.498-0.168 0.404-0.526 0.698-0.957 0.698-0.438 0-0.799-0.294-0.967-0.698zm-2.414 3.498v1h10v-1h-10z" opacity=".3"/>
 <path id="path25" d="m3 5v1h10v-1h-10zm3.381 2.822c-0.605 0-1.072 0.528-1.072 1.18 0 0.179 0.041 0.345 0.105 0.5 0.168-0.399 0.529-0.68 0.967-0.68 0.434 0 0.79 0.281 0.957 0.68 0.064-0.155 0.105-0.321 0.105-0.5 0-0.652-0.462-1.18-1.062-1.18zm3.019 1.18v0.998h0.87v-0.998h-0.87zm-0.687 0.498c-0.215 1.2-1.182 2.1-2.332 2.1-1.159 0-2.121-0.9-2.334-2.098-0.029 0.162-0.047 0.327-0.047 0.498 0 1.44 1.065 2.6 2.381 2.6 1.305 0 2.379-1.16 2.379-2.6 0-0.171-0.018-0.338-0.047-0.5zm1.557 2.1v1h1.73v-1h-1.73zm-9.27 1.9v1c0 0.83 0.67 1.5 1.5 1.5h11c0.83 0 1.5-0.67 1.5-1.5v-1c0 0.83-0.67 1.5-1.5 1.5h-11c-0.83 0-1.5-0.67-1.5-1.5z" fill="#fff" opacity=".2"/>
</svg>
