<?xml version="1.0" encoding="UTF-8"?>
<svg id="svg36" width="16" height="16" version="1.1" xmlns="http://www.w3.org/2000/svg" xmlns:cc="http://creativecommons.org/ns#" xmlns:dc="http://purl.org/dc/elements/1.1/" xmlns:rdf="http://www.w3.org/1999/02/22-rdf-syntax-ns#">
 <metadata id="metadata40">
  <rdf:RDF>
   <cc:Work rdf:about="">
    <dc:format>image/svg+xml</dc:format>
    <dc:type rdf:resource="http://purl.org/dc/dcmitype/StillImage"/>
   </cc:Work>
  </rdf:RDF>
 </metadata>
 <defs id="defs7">
  <radialGradient id="gr0" cx="9" cy="10" r="11" gradientTransform="matrix(1 0 0 .54545 0 4.5455)" gradientUnits="userSpaceOnUse">
   <stop id="stop2" stop-opacity=".23529" offset="0"/>
   <stop id="stop4" stop-opacity=".54902" offset="1"/>
  </radialGradient>
 </defs>
 <path id="path9" d="m14.97 2a1 1 0 0 0-0.55 0.186l-14.002 10.004a1 1 0 0 0 0.582 1.81h14a1 1 0 0 0 1-1v-10a1 1 0 0 0-1.03-1zm0.03 1v10h-14l14-10zm-2 4-5.895 4h5.895v-4zm-1 1.887v1.113h-1.64l1.64-1.113z" fill="#fff" opacity=".05"/>
 <path id="base" d="m15 3-14 10h14zm-2 4v4h-5.8945z" fill="url(#gr0)"/>
 <path id="path17" d="m15 3-14 10h14v-10zm-0.5 0.971v8.529h-11.939l11.939-8.529zm-1.5 2.525a0.5 0.5 0 0 0-0.28 0.09l-5.896 4.004a0.5 0.5 0 0 0 0.281 0.91h5.895a0.5 0.5 0 0 0 0.5-0.5v-4a0.5 0.5 0 0 0-0.5-0.5v-4e-3zm0 0.504v4h-5.895l5.895-4z" opacity=".3"/>
 <path id="path24" d="m13 7-5.895 4h1.473l4.422-3v-1zm-10.6 6-1.4 1h14v-1h-12.6z" fill="#fff" opacity=".2"/>
 <path id="path31" d="m15 3-14 10h1.4l12.6-9v-1zm-6.422 8-1.473 1h5.895v-1h-4.422z" opacity=".3"/>
</svg>
