<?xml version="1.0" encoding="UTF-8"?>
<svg id="svg36" width="16" height="16" version="1.1" xmlns="http://www.w3.org/2000/svg" xmlns:cc="http://creativecommons.org/ns#" xmlns:dc="http://purl.org/dc/elements/1.1/" xmlns:rdf="http://www.w3.org/1999/02/22-rdf-syntax-ns#">
 <metadata id="metadata40">
  <rdf:RDF>
   <cc:Work rdf:about="">
    <dc:format>image/svg+xml</dc:format>
    <dc:type rdf:resource="http://purl.org/dc/dcmitype/StillImage"/>
   </cc:Work>
  </rdf:RDF>
 </metadata>
 <defs id="defs7">
  <radialGradient id="gr0" cx="9" cy="10" r="11" gradientTransform="matrix(1 0 0 .72727 0 2.7273)" gradientUnits="userSpaceOnUse">
   <stop id="stop2" stop-opacity=".23529" offset="0"/>
   <stop id="stop4" stop-opacity=".54902" offset="1"/>
  </radialGradient>
 </defs>
 <path id="path9" d="m3 0c-1.091 0-2 0.9093-2 2v12c0 1.09 0.909 2 2 2h0.283a1 1 0 0 0 0.791-0.39c0.294 0.17 0.568 0.39 0.926 0.39h0.283a1 1 0 0 0 0.791-0.39c0.294 0.17 0.568 0.39 0.926 0.39h7c1.09 0 2-0.91 2-2v-12c0-1.0907-0.91-2-2-2h-7c-0.358 0-0.632 0.2181-0.926 0.3887a1 1 0 0 0-0.791-0.3887h-0.283c-0.358 0-0.632 0.2181-0.926 0.3887a1 1 0 0 0-0.791-0.3887h-0.283zm0 1h0.283c-0.175 0.297-0.283 0.636-0.283 1v12c0 0.36 0.108 0.7 0.283 1h-0.283c-0.554 0-1-0.45-1-1v-12c0-0.554 0.446-1 1-1zm2 0h0.283c-0.175 0.297-0.283 0.636-0.283 1v12c0 0.36 0.108 0.7 0.283 1h-0.283c-0.554 0-1-0.45-1-1v-12c0-0.554 0.446-1 1-1zm2 0h7c0.55 0 1 0.446 1 1v12c0 0.55-0.45 1-1 1h-7c-0.554 0-1-0.45-1-1v-12c0-0.554 0.446-1 1-1zm1.891 4c-1.041 0-1.891 0.838-1.891 1.875 0 0.54 0.228 1.032 0.594 1.375l2.906 2.75 2.91-2.75c0.36-0.343 0.59-0.835 0.59-1.375 0-1.037-0.85-1.875-1.89-1.875-0.69 0-1.28 0.361-1.61 0.906-0.33-0.545-0.924-0.906-1.609-0.906zm0 1h2e-3 2e-3c0.333 1e-3 0.594 0.167 0.75 0.424a1 1 0 0 0 1.715 0c0.15-0.258 0.41-0.424 0.75-0.424 0.5 0 0.89 0.384 0.89 0.875 0 0.259-0.11 0.487-0.28 0.645l-2.22 2.099-2.219-2.099c-0.168-0.158-0.277-0.387-0.277-0.645 0-0.49 0.384-0.873 0.887-0.875z" fill="#fff" fill-rule="evenodd" opacity=".05"/>
 <path id="base" d="m3 1c-0.554 0-1 0.446-1 1v12c0 0.554 0.446 1 1 1h0.2832c-0.17546-0.29652-0.2832-0.63603-0.2832-1v-12c0-0.36397 0.10774-0.70348 0.2832-1h-0.2832zm2 0c-0.554 0-1 0.446-1 1v12c0 0.554 0.446 1 1 1h0.2832c-0.17546-0.29652-0.2832-0.63603-0.2832-1v-12c0-0.36397 0.10774-0.70348 0.2832-1h-0.2832zm2 0c-0.554 0-1 0.446-1 1v12c0 0.554 0.446 1 1 1h7c0.554 0 1-0.446 1-1v-12c0-0.554-0.446-1-1-1h-7zm1.8906 4c0.68569 0 1.2797 0.36056 1.6094 0.90625 0.32974-0.54564 0.92354-0.90625 1.6094-0.90625 1.0405 0 1.8906 0.83751 1.8906 1.875 0 0.53989-0.22776 1.0324-0.59375 1.375l-2.9062 2.75-2.9062-2.75c-0.36587-0.34264-0.59375-0.83516-0.59375-1.375 0-1.0375 0.84974-1.875 1.8906-1.875z" fill="url(#gr0)" fill-rule="evenodd"/>
 <path id="path17" d="m3 1c-0.554 0-1 0.446-1 1v12c0 0.55 0.446 1 1 1h0.283c-0.175-0.3-0.283-0.64-0.283-1v-12c0-0.364 0.108-0.703 0.283-1h-0.283zm2 0c-0.554 0-1 0.446-1 1v12c0 0.55 0.446 1 1 1h0.283c-0.175-0.3-0.283-0.64-0.283-1v-12c0-0.364 0.108-0.703 0.283-1h-0.283zm2 0c-0.554 0-1 0.446-1 1v12c0 0.55 0.446 1 1 1h7c0.55 0 1-0.45 1-1v-12c0-0.554-0.45-1-1-1h-7zm7 0.492c0.29 0 0.5 0.214 0.5 0.5v4.875c0-1.311-1.08-2.375-2.39-2.375-0.65 0-1.18 0.313-1.61 0.731-0.37-0.364-0.831-0.608-1.377-0.668a0.5 0.5 0 0 0-0.232-0.061 0.5 0.5 0 0 0-0.178 0.041c-1.224 0.096-2.213 1.092-2.213 2.34 0 0.68 0.286 1.303 0.75 1.738l2.91 2.747a0.5 0.5 0 0 0 0.68 0l2.91-2.745c0.46-0.435 0.75-1.059 0.75-1.74v7.125c0 0.29-0.21 0.5-0.5 0.5h-7c-0.286 0-0.5-0.21-0.5-0.5v-7.125-4.875c0-0.286 0.214-0.5 0.5-0.5l7-8e-3zm-5.109 3.508c0.685 0 1.279 0.361 1.609 0.906 0.33-0.545 0.92-0.906 1.61-0.906 1.04 0 1.89 0.838 1.89 1.875 0 0.54-0.23 1.032-0.59 1.375l-2.91 2.75-2.906-2.75c-0.366-0.343-0.594-0.835-0.594-1.375 0-1.037 0.85-1.875 1.891-1.875z" fill-rule="evenodd" opacity=".3"/>
 <path id="path24" d="m3 2v1c0-0.364 0.108-0.703 0.283-1h-0.283zm2 0v1c0-0.364 0.108-0.703 0.283-1h-0.283zm3.891 3c-1.041 0-1.891 0.838-1.891 1.875 0 0.175 0.032 0.341 0.076 0.502 0.222-0.793 0.948-1.377 1.815-1.377 0.685 0 1.279 0.361 1.609 0.906 0.33-0.545 0.92-0.906 1.61-0.906 0.87 0 1.59 0.584 1.81 1.377 0.05-0.161 0.08-0.327 0.08-0.502 0-1.037-0.85-1.875-1.89-1.875-0.69 0-1.28 0.361-1.61 0.906-0.33-0.545-0.924-0.906-1.609-0.906zm-6.891 9v1c0 0.55 0.446 1 1 1h0.283c-0.175-0.3-0.283-0.64-0.283-1-0.554 0-1-0.45-1-1zm2 0v1c0 0.55 0.446 1 1 1h0.283c-0.175-0.3-0.283-0.64-0.283-1-0.554 0-1-0.45-1-1zm2 0v1c0 0.55 0.446 1 1 1h7c0.55 0 1-0.45 1-1v-1c0 0.55-0.45 1-1 1h-7c-0.554 0-1-0.45-1-1z" fill="#fff" fill-rule="evenodd" opacity=".2"/>
 <path id="path31" d="m3 1c-0.554 0-1 0.446-1 1v1c0-0.554 0.446-1 1-1 0-0.364 0.108-0.703 0.283-1h-0.283zm2 0c-0.554 0-1 0.446-1 1v1c0-0.554 0.446-1 1-1 0-0.364 0.108-0.703 0.283-1h-0.283zm2 0c-0.554 0-1 0.446-1 1v1c0-0.554 0.446-1 1-1h7c0.55 0 1 0.446 1 1v-1c0-0.554-0.45-1-1-1h-7zm0.076 6.377c-0.044 0.159-0.076 0.324-0.076 0.498 0 0.54 0.228 1.032 0.594 1.375l2.906 2.75 2.91-2.75c0.36-0.343 0.59-0.835 0.59-1.375 0-0.174-0.03-0.339-0.08-0.498-0.09 0.337-0.27 0.641-0.51 0.873l-2.91 2.75-2.906-2.75c-0.248-0.232-0.424-0.536-0.518-0.873zm-4.076 6.623v1h0.283c-0.175-0.3-0.283-0.64-0.283-1zm2 0v1h0.283c-0.175-0.3-0.283-0.64-0.283-1z" fill-rule="evenodd" opacity=".3"/>
</svg>
