<?xml version="1.0" encoding="UTF-8"?>
<svg id="svg36" width="16" height="16" version="1.1" xmlns="http://www.w3.org/2000/svg" xmlns:cc="http://creativecommons.org/ns#" xmlns:dc="http://purl.org/dc/elements/1.1/" xmlns:rdf="http://www.w3.org/1999/02/22-rdf-syntax-ns#">
 <metadata id="metadata40">
  <rdf:RDF>
   <cc:Work rdf:about="">
    <dc:format>image/svg+xml</dc:format>
    <dc:type rdf:resource="http://purl.org/dc/dcmitype/StillImage"/>
   </cc:Work>
  </rdf:RDF>
 </metadata>
 <defs id="defs7">
  <radialGradient id="gr0" cx="9" cy="10" r="11" gradientTransform="matrix(1 0 0 .72727 0 2.7273)" gradientUnits="userSpaceOnUse">
   <stop id="stop2" stop-opacity=".23529" offset="0"/>
   <stop id="stop4" stop-opacity=".54902" offset="1"/>
  </radialGradient>
 </defs>
 <path id="path9" d="m2.5 0c-1.368 0-2.5 1.132-2.5 2.5v11c0 1.37 1.132 2.5 2.5 2.5h5.5a1 1 0 0 0 0.5-0.13 1 1 0 0 0 1.207-0.16l6.003-6.003a1 1 0 0 0 0.16-1.209 1 1 0 0 0 0.13-0.498v-5.5c0-1.368-1.13-2.5-2.5-2.5h-11zm0 1h11c0.83 0 1.5 0.669 1.5 1.5v5.5h-5.5c-0.831 0-1.5 0.669-1.5 1.5v5.5h-5.5c-0.831 0-1.5-0.67-1.5-1.5v-11c0-0.831 0.669-1.5 1.5-1.5zm7.5 8h5l-6 6v-5c0-0.554 0.446-1 1-1z" fill="#fff" fill-rule="evenodd" opacity=".05"/>
 <path id="base" d="m2.5 1c-0.831 0-1.5 0.669-1.5 1.5v11c0 0.831 0.669 1.5 1.5 1.5h5.5v-5.5c0-0.831 0.669-1.5 1.5-1.5h5.5v-5.5c0-0.831-0.669-1.5-1.5-1.5h-11zm7.5 8c-0.554 0-1 0.446-1 1v5l6-6h-5z" fill="url(#gr0)" fill-rule="evenodd"/>
 <path id="path17" d="m2.5 1c-0.831 0-1.5 0.669-1.5 1.5v11c0 0.83 0.669 1.5 1.5 1.5h5.5v-5.5c0-0.831 0.669-1.5 1.5-1.5h5.5v-5.5c0-0.831-0.67-1.5-1.5-1.5h-11zm0 0.5h11c0.56 0 1 0.437 1 1v5h-5c-1.099 0-2 0.901-2 2v5h-5c-0.563 0-1-0.44-1-1v-11c0-0.563 0.437-1 1-1zm7.5 7.5c-0.554 0-1 0.446-1 1v5l6-6h-5zm0 0.5h3.79l-4.29 4.29v-3.79c0-0.286 0.214-0.5 0.5-0.5z" fill-rule="evenodd" opacity=".3"/>
 <path id="path24" d="m9.5 8c-0.831 0-1.5 0.669-1.5 1.5v1c0-0.831 0.669-1.5 1.5-1.5h0.5 5v-1h-5.5zm4.5 2-5 5v1l6-6h-1zm-13 3.5v1c0 0.83 0.669 1.5 1.5 1.5h5.5v-1h-5.5c-0.831 0-1.5-0.67-1.5-1.5z" fill="#fff" fill-rule="evenodd" opacity=".2"/>
 <path id="path31" d="m2.5 1c-0.831 0-1.5 0.669-1.5 1.5v1c0-0.831 0.669-1.5 1.5-1.5h11c0.83 0 1.5 0.669 1.5 1.5v-1c0-0.831-0.67-1.5-1.5-1.5h-11zm7.5 8c-0.554 0-1 0.446-1 1v1c0-0.55 0.446-1 1-1h4l1-1h-5z" fill-rule="evenodd" opacity=".3"/>
</svg>
