<?xml version="1.0" encoding="UTF-8"?>
<svg id="svg36" width="16" height="16" version="1.1" xmlns="http://www.w3.org/2000/svg" xmlns:cc="http://creativecommons.org/ns#" xmlns:dc="http://purl.org/dc/elements/1.1/" xmlns:rdf="http://www.w3.org/1999/02/22-rdf-syntax-ns#">
 <metadata id="metadata40">
  <rdf:RDF>
   <cc:Work rdf:about="">
    <dc:format>image/svg+xml</dc:format>
    <dc:type rdf:resource="http://purl.org/dc/dcmitype/StillImage"/>
   </cc:Work>
  </rdf:RDF>
 </metadata>
 <defs id="defs7">
  <radialGradient id="gr0" cx="9" cy="10" r="11" gradientTransform="matrix(1 0 0 .72727 0 2.7273)" gradientUnits="userSpaceOnUse">
   <stop id="stop2" stop-opacity=".23529" offset="0"/>
   <stop id="stop4" stop-opacity=".54902" offset="1"/>
  </radialGradient>
 </defs>
 <path id="path9" d="m12.98-0.009766-0.01 0.009766a1 1 0 0 0-0.18 0.02148l-3.001 0.64652a1 1 0 0 0-0.789 0.978v8.814c0 0.52-0.112 0.73-0.25 0.86-1e-3 0-0.742 0.34-1.207 0.34h-0.537a1 1 0 0 0-1 1v2.33a1 1 0 0 0 1 1h0.697c1.964 0 3.577-0.39 4.737-1.33 1.2-0.98 1.57-2.5 1.57-4.12v-9.5498a1 1 0 0 0-1.03-0.99997zm0.02 1.0098v9.55c0 1.49-0.3 2.6-1.21 3.34-0.9 0.74-2.262 1.11-4.093 1.11h-0.697v-2.33h0.537c0.716 0 1.545-0.27 1.908-0.63 0.37-0.36 0.555-0.89 0.555-1.58v-8.814l3-0.646z" fill="#fff" opacity=".05"/>
 <path id="base" d="m13 1-3 0.64648v8.8125c0 0.69521-0.18499 1.2218-0.55469 1.5801-0.3638 0.35827-1.1926 0.62695-1.9082 0.62695h-0.53711v2.334h0.69727c1.8306 0 3.1972-0.36949 4.0977-1.1074 0.90636-0.738 1.2051-1.8518 1.2051-3.3438v-9.5488z" fill="url(#gr0)"/>
 <path id="path17" d="m13 1-3 0.646v8.814c0 0.69-0.185 1.22-0.555 1.58-0.363 0.36-1.192 0.63-1.908 0.63h-0.537v2.33h0.697c1.831 0 3.193-0.37 4.093-1.11 0.91-0.74 1.21-1.85 1.21-3.34v-9.55zm-0.5 0.619v8.941c0 1.42-0.26 2.34-1.02 2.95-0.77 0.63-2.023 0.99-3.787 0.99h-0.197v-1.33h0.041c0.84 0 1.713-0.24 2.258-0.77 0.485-0.47 0.705-1.16 0.705-1.94v-8.409l2-0.432z" opacity=".3"/>
 <path id="path24" d="m13 10.55c0 1.49-0.3 2.6-1.21 3.34-0.9 0.74-2.262 1.11-4.093 1.11h-0.697v1h0.697c1.831 0 3.193-0.37 4.093-1.11 0.91-0.74 1.21-1.85 1.21-3.34v-1z" fill="#fff" opacity=".2"/>
 <path id="path31" d="m13 1-3 0.646v1l3-0.646v-1zm-3 9.46c0 0.69-0.185 1.22-0.555 1.58-0.363 0.36-1.192 0.63-1.908 0.63h-0.537v1h0.537c0.716 0 1.545-0.27 1.908-0.63 0.37-0.36 0.555-0.89 0.555-1.58v-1z" opacity=".3"/>
</svg>
