<?xml version="1.0" encoding="UTF-8"?>
<svg id="svg36" width="16" height="16" version="1.1" xmlns="http://www.w3.org/2000/svg" xmlns:cc="http://creativecommons.org/ns#" xmlns:dc="http://purl.org/dc/elements/1.1/" xmlns:rdf="http://www.w3.org/1999/02/22-rdf-syntax-ns#">
 <metadata id="metadata40">
  <rdf:RDF>
   <cc:Work rdf:about="">
    <dc:format>image/svg+xml</dc:format>
    <dc:type rdf:resource="http://purl.org/dc/dcmitype/StillImage"/>
   </cc:Work>
  </rdf:RDF>
 </metadata>
 <defs id="defs7">
  <radialGradient id="gr0" cx="9" cy="10" r="11" gradientTransform="matrix(1 0 0 .72727 0 2.7273)" gradientUnits="userSpaceOnUse">
   <stop id="stop2" stop-opacity=".23529" offset="0"/>
   <stop id="stop4" stop-opacity=".54902" offset="1"/>
  </radialGradient>
 </defs>
 <path id="path9" d="m3.5 0c-1.368 0-2.5 1.132-2.5 2.5v11c0 1.37 1.132 2.5 2.5 2.5h9c1.37 0 2.5-1.13 2.5-2.5v-5.5a1 1 0 0 0-0.29-0.707l-0.36-0.357a1 1 0 0 0 0.65-0.936v-3.5c0-1.368-1.13-2.5-2.5-2.5h-3.5a1 1 0 0 0-0.936 0.6504l-0.357-0.3574a1 1 0 0 0-0.707-0.293h-3.5zm0 1h3.5l7 7v5.5c0 0.83-0.67 1.5-1.5 1.5h-9c-0.831 0-1.5-0.67-1.5-1.5v-11c0-0.831 0.669-1.5 1.5-1.5zm5.5 0h3.5c0.83 0 1.5 0.669 1.5 1.5v3.5l-5-5zm-4.5 2c-0.277 0-0.5 0.223-0.5 0.5v9c0 0.28 0.223 0.5 0.5 0.5h7c0.28 0 0.5-0.22 0.5-0.5v-4.5l-1-1v4 1h-6v-1-5-1h4l-2-2h-2.5zm1.5 3v5h4v-5h-4zm1 1h2v1h-2v-1zm0 2h2v1h-2v-1z" fill="#fff" opacity=".05"/>
 <path id="base" d="m3.5 1c-0.831 0-1.5 0.669-1.5 1.5v11c0 0.831 0.669 1.5 1.5 1.5h9c0.831 0 1.5-0.669 1.5-1.5v-5.5l-7-7h-3.5zm5.5 0 5 5v-3.5c0-0.831-0.669-1.5-1.5-1.5h-3.5zm-4.5 2h2.5l2 2h-4v7h6v-5l1 1v4.5c0 0.277-0.223 0.5-0.5 0.5h-7c-0.277 0-0.5-0.223-0.5-0.5v-9c0-0.277 0.223-0.5 0.5-0.5zm1.5 3h4v5h-4v-5zm1 1v1h2v-1h-2zm0 2v1h2v-1h-2z" fill="url(#gr0)"/>
 <path id="path17" d="m3.5 1c-0.831 0-1.5 0.669-1.5 1.5v11c0 0.83 0.669 1.5 1.5 1.5h9c0.83 0 1.5-0.67 1.5-1.5v-5.5l-7-7h-3.5zm5.5 0 5 5v-3.5c0-0.831-0.67-1.5-1.5-1.5h-3.5zm-5.5 0.5h3.293l6.707 6.707v5.293c0 0.56-0.44 1-1 1h-9c-0.563 0-1-0.44-1-1v-11c0-0.563 0.437-1 1-1zm6.71 0h2.29c0.56 0 1 0.437 1 1v2.293l-3.29-3.293zm-5.71 1c-0.545 0-1 0.455-1 1v9c0 0.55 0.455 1 1 1h7c0.55 0 1-0.45 1-1v-4.5a0.5 0.5 0 0 0-0.15-0.354l-1-1a0.5 0.5 0 0 0-0.85 0.354v-1a0.5 0.5 0 0 0-0.5-0.5h-0.969a0.5 0.5 0 0 0 0.323-0.854l-2-2a0.5 0.5 0 0 0-0.354-0.146h-2.5zm0 0.5h2.5l2 2h-4v1 5 1h6v-1-4l1 1v4.5c0 0.28-0.22 0.5-0.5 0.5h-7c-0.277 0-0.5-0.22-0.5-0.5v-9c0-0.277 0.223-0.5 0.5-0.5zm1 2.5h0.5a0.5 0.5 0 0 0-0.5 0.5v-0.5zm0.5 0.5h4v5h-4v-5zm1 1v1h2v-1h-2zm0 2v1h2v-1h-2zm-1.5 2a0.5 0.5 0 0 0 0.5 0.5h-0.5v-0.5zm5 0v0.5h-0.5a0.5 0.5 0 0 0 0.5-0.5z" opacity=".3"/>
 <path id="path24" d="m9 2 5 5v-1l-4-4h-1zm-4.5 1c-0.277 0-0.5 0.223-0.5 0.5v1c0-0.277 0.223-0.5 0.5-0.5h2.5l1 1h1l-2-2h-2.5zm1.5 3v1h1 2 1v-1h-1-3zm5 1v1l1 1v-1l-1-1zm-4 1v1h2v-1h-2zm0 2v1h2v-1h-2zm-2 2v1h6v-1h-1-4-1zm-3 1.5v1c0 0.83 0.669 1.5 1.5 1.5h9c0.83 0 1.5-0.67 1.5-1.5v-1c0 0.83-0.67 1.5-1.5 1.5h-9c-0.831 0-1.5-0.67-1.5-1.5z" fill="#fff" opacity=".2"/>
 <path id="path31" d="m3.5 1c-0.831 0-1.5 0.669-1.5 1.5v1c0-0.831 0.669-1.5 1.5-1.5h3.5l7 7v-1l-7-7h-3.5zm5.5 0 1 1h2.5c0.83 0 1.5 0.669 1.5 1.5v-1c0-0.831-0.67-1.5-1.5-1.5h-3.5zm-4 4v1h1 3l-1-1h-3zm2 2v1h2v-1h-2zm0 2v1h2v-1h-2zm-1 2v1h4v-1h-1-2-1zm-2 1.5v1c0 0.28 0.223 0.5 0.5 0.5h7c0.28 0 0.5-0.22 0.5-0.5v-1c0 0.28-0.22 0.5-0.5 0.5h-0.5-6-0.5c-0.277 0-0.5-0.22-0.5-0.5z" opacity=".3"/>
</svg>
