<?xml version="1.0" encoding="UTF-8"?>
<svg id="svg36" width="16" height="16" version="1.1" xmlns="http://www.w3.org/2000/svg" xmlns:cc="http://creativecommons.org/ns#" xmlns:dc="http://purl.org/dc/elements/1.1/" xmlns:rdf="http://www.w3.org/1999/02/22-rdf-syntax-ns#">
 <metadata id="metadata40">
  <rdf:RDF>
   <cc:Work rdf:about="">
    <dc:format>image/svg+xml</dc:format>
    <dc:type rdf:resource="http://purl.org/dc/dcmitype/StillImage"/>
   </cc:Work>
  </rdf:RDF>
 </metadata>
 <defs id="defs7">
  <radialGradient id="gr0" cx="9" cy="10" r="11" gradientTransform="matrix(1 0 0 .63636 0 3.6364)" gradientUnits="userSpaceOnUse">
   <stop id="stop2" stop-opacity=".23529" offset="0"/>
   <stop id="stop4" stop-opacity=".54902" offset="1"/>
  </radialGradient>
 </defs>
 <path id="path9" d="m8.029 1.24a1 1 0 0 0-0.523 0.133l-3.998 2.305-2.004 1.144a1 1 0 0 0-0.504 0.871v2.309 4.608a1 1 0 0 0 0.5 0.86l2 1.16a1 1 0 0 0 1 0l2-1.16a1 1 0 0 0 0.5-0.86v-2.31a1 1 0 0 0-0.5-0.862l-1.5-0.868v-1.146l1.502-0.858 1.5-0.865 1.5 0.865 1.488 0.858v1.152l-1.492 0.869a1 1 0 0 0-0.498 0.865v2.3a1 1 0 0 0 0.5 0.86l2 1.16a1 1 0 0 0 1 0l2-1.16a1 1 0 0 0 0.5-0.86v-6.917a1 1 0 0 0-0.5-0.867l-2-1.146-3.994-2.305a1 1 0 0 0-0.477-0.133v-2e-3zm-0.023 1 4.014 2.305 1.99 1.146v6.919l-2 1.15-2-1.15v-2.3l1.99-1.162v-2.304l-1.99-1.147-2.004-1.152-2 1.152-2.006 1.147v2.304l2 1.152v2.31l-2 1.15-2-1.15v-4.608-2.311l2.006-1.146 4-2.305z" fill="#fff" opacity=".05"/>
 <path id="base" d="m8.0059 2.2402-4 2.3047-2.0059 1.1465 0.0058594 2.3105-0.0058594 4.6055 2 1.1523 2-1.1523v-2.3047l-2-1.1543v-2.3047l2.0059-1.1465 2-1.1523 2 1.1523 1.9941 1.1465v2.3047l-1.9941 1.1602-0.005859 2.2988 2 1.1523 2-1.1523v-6.916l-1.9941-1.1465-4-2.3047z" fill="url(#gr0)"/>
 <path id="path17" d="m8.006 2.24-4 2.305-2.006 1.146v2.311 4.608l2 1.15 2-1.15v-2.31l-2-1.152v-2.304l2.006-1.147 2-1.152 2.004 1.152 1.99 1.147v2.304l-1.99 1.162v2.3l2 1.15 2-1.15v-6.919l-1.99-1.146-4.014-2.305zm0 0.578 3.764 2.159 1.74 1.002v6.341l-1.5 0.86-1.5-0.86v-1.72l1.74-1.022a0.5 0.5 0 0 0 0.25-0.432v-2.304a0.5 0.5 0 0 0-0.25-0.434l-1.99-1.146-2.002-1.153a0.5 0.5 0 0 0-0.5 0l-1.998 1.153-2.006 1.146a0.5 0.5 0 0 0-0.252 0.434v2.304a0.5 0.5 0 0 0 0.25 0.434l1.75 1.01v1.73l-1.5 0.86-1.5-0.86v-4.32-2.02l1.754-1.001 3.75-2.161z" opacity=".3"/>
 <path id="path24" d="m8.006 4.545-2 1.152-2.006 1.147v1l2.006-1.147 2-1.152 2.004 1.152 1.99 1.147v-1l-1.99-1.147-2.004-1.152zm-6.006 8.065v1l2 1.15 2-1.15v-1l-2 1.15-2-1.15zm8.01 0v1l2 1.15 2-1.15v-1l-2 1.15-2-1.15z" fill="#fff" opacity=".2"/>
 <path id="path31" d="m8.006 2.24-4 2.305-2.006 1.146v1l2.006-1.146 4-2.305 4.014 2.305 1.99 1.146v-1l-1.99-1.146-4.014-2.305zm-4.006 6.908v1.002l2 1.15v-1l-2-1.152zm8 0-1.99 1.162v1l1.99-1.16v-1.002z" opacity=".3"/>
</svg>
