<?xml version="1.0" encoding="UTF-8"?>
<svg id="svg36" width="16" height="16" version="1.1" xmlns="http://www.w3.org/2000/svg" xmlns:cc="http://creativecommons.org/ns#" xmlns:dc="http://purl.org/dc/elements/1.1/" xmlns:rdf="http://www.w3.org/1999/02/22-rdf-syntax-ns#">
 <metadata id="metadata40">
  <rdf:RDF>
   <cc:Work rdf:about="">
    <dc:format>image/svg+xml</dc:format>
    <dc:type rdf:resource="http://purl.org/dc/dcmitype/StillImage"/>
   </cc:Work>
  </rdf:RDF>
 </metadata>
 <defs id="defs7">
  <radialGradient id="gr0" cx="9" cy="10" r="11" gradientTransform="matrix(1 0 0 .45454 0 5.4546)" gradientUnits="userSpaceOnUse">
   <stop id="stop2" stop-opacity=".23529" offset="0"/>
   <stop id="stop4" stop-opacity=".54902" offset="1"/>
  </radialGradient>
 </defs>
 <path id="path9" d="m5.1 3c-0.469 0-0.933 0.13-1.36 0.348-1.323 0.673-1.871 2.259-1.515 3.756 0.05 0.208 0.09 0.499 0.105 0.744 0.01 0.192 0 0.287 0 0.318h-0.07c-1.088 1e-3 -1.9841 0.71-2.2014 1.787-0.16369 0.807 0.04201 1.697 0.62691 2.307 0.6665 0.69 1.7435 0.94 2.6265 0.51 0.565-0.27 1.028-0.77 1.221-1.36 0.194-0.59 0.139-1.22-0.06-1.82-0.06-0.171-0.061-0.194-0.061-0.186-0.01 0.04-0.028 0.019 0.092-0.041 0.121-0.06 0.353-0.128 0.59-0.136 0.237 0 0.474 0.039 0.607 0.099 0.111 0.05 0.103 0.061 0.102 0.051 0 0.02-0.011 0.06-0.071 0.223-0.131 0.335-0.195 0.77-0.173 1.12 0.05 0.85 0.611 1.69 1.39 2.05 0.399 0.19 0.725 0.21 1.069 0.21s0.666 0 1.068-0.21c1.174-0.56 1.704-2.04 1.194-3.239v-0.142c0-0.01 0 0 0.1-0.03 0.36-0.186 1.18-0.051 1.29 0.049v0.031c0-0.02 0 1e-3 -0.1 0.206-0.39 1.145 0 2.505 1.05 3.085 0.42 0.23 0.74 0.24 1.08 0.24 0.33 0 0.65 0 1.07-0.24 0.51-0.28 0.83-0.57 1.07-1.17 0.45-1.12 0.2-2.415-0.89-3.074-0.3-0.18-0.72-0.28-1.13-0.316 0 0-0.1-0.012-0.12-0.022 0 0.05 0.1-0.863 0.13-1.074 0.23-0.798 0.21-1.464-0.14-2.248-0.74-1.682-2.86-2.36-4.387-1.338-0.284 0.189-0.473 0.352-0.69 0.633-0.129 0.167-0.323 0.387-0.488 0.557l-0.08 0.08c-0.04-0.03-0.05-0.03-0.149-0.137-0.344-0.401-0.544-0.636-0.75-0.836-0.205-0.199-0.455-0.362-0.646-0.459-0.275-0.139-0.587-0.16-0.891-0.209a1 1 0 0 0-0.47-0.109l-0.039-8e-3zm0.011 1h4e-3c0.304-3e-3 0.604 0.069 0.887 0.213 0.305 0.155 0.406 0.255 1.09 1.053 0.453 0.532 0.864 0.689 1.267 0.492 0.16-0.078 0.68-0.614 1.002-1.033 0.093-0.119 0.296-0.306 0.453-0.411 1.006-0.669 2.416-0.223 2.926 0.911 0.2 0.37 0.22 1.155 0.1 1.574-0.16 0.404-0.16 1.164-0.16 1.469 0.04 0.335 0.2 0.637 0.4 0.759 0.11 0.057 0.32 0.107 0.62 0.137 0.38 0.033 0.51 0.067 0.7 0.178 0.48 0.323 0.76 1.168 0.48 1.838-0.09 0.23-0.37 0.54-0.63 0.68-0.28 0.15-0.89 0.15-1.17 0-0.69-0.36-0.87-1.07-0.59-1.895 0.21-0.621 0.15-0.933-0.25-1.293-0.55-0.503-1.66-0.594-2.424-0.199-0.607 0.314-0.751 0.769-0.462 1.451 0.336 0.796 0.05 1.576-0.711 1.946-0.31 0.14-0.967 0.14-1.282 0-0.519-0.25-0.776-0.64-0.816-1.21-0.019-0.31-7e-3 -0.41 0.105-0.695 0.18-0.47 0.2-0.655 0.1-0.924-0.422-1.137-2.994-1.052-3.307 0.109-0.074 0.275-0.067 0.333 0.08 0.766 0.304 0.904 0.071 1.624-0.644 1.964-0.493 0.24-1.064 0.12-1.475-0.31-0.345-0.36-0.4761-0.86-0.365-1.41 0.109-0.545 0.662-0.988 1.223-0.988 0.568-1e-3 0.92-0.228 1.035-0.664 0.081-0.307 0.035-1.071-0.1-1.635-0.281-1.181 0.091-2.172 0.996-2.633 0.303-0.16 0.614-0.24 0.918-0.24zm2.901 2.311c-0.41 0-0.715 0.137-0.996 0.451-0.27 0.301-0.36 0.528-0.36 0.929-4e-3 0.6 0.386 1.169 0.905 1.334 0.298 0.102 0.562 0.1 0.882 0 0.374-0.113 0.75-0.504 0.864-0.908 0.262-0.928-0.368-1.799-1.295-1.799v-7e-3zm-0.145 1.015c0.02-0.01 0.05 0 0.147 0 0.298 0 0.433 0.161 0.33 0.528 0 0.02-0.25 0.241-0.19 0.222-0.183 0.06-0.164 0.05-0.291 0.01-0.02 0-0.208-0.211-0.207-0.375 0-0.259-0.07-0.08 0.104-0.27 0.069-0.079 0.081-0.105 0.107-0.115z" fill="#fff" opacity=".05"/>
 <path id="base" d="m5.1162 4.0002c-0.30656 0.0049648-0.61923 0.084757-0.92297 0.23939-0.90556 0.461-1.2769 1.4521-0.99601 2.6332 0.1343 0.56466 0.18074 1.3277 0.099601 1.6347-0.115 0.43504-0.46784 0.66285-1.0359 0.66344-0.56112 5.884e-4 -1.1128 0.44443-1.2218 0.9849-0.11143 0.55289 0.01596 1.0538 0.3652 1.4158 0.41066 0.42562 0.98045 0.54561 1.4741 0.30778 0.71472-0.34434 0.94889-1.0637 0.64409-1.963-0.14693-0.43347-0.15365-0.49167-0.079677-0.76603 0.31311-1.1614 2.8852-1.2465 3.3068-0.10943 0.099654 0.26878 0.083207 0.45267-0.0996 0.92335-0.1119 0.28811-0.1255 0.38847-0.10624 0.69764 0.035183 0.56475 0.29799 0.96048 0.81673 1.2038 0.31565 0.14804 0.97188 0.14738 1.2815 0 0.76107-0.36225 1.0468-1.1478 0.71049-1.9424-0.28885-0.68259-0.14288-1.1361 0.46481-1.45 0.76443-0.39485 1.8688-0.30475 2.4236 0.19835 0.39701 0.35997 0.45636 0.67157 0.24568 1.2927-0.27961 0.82436-0.05557 1.5374 0.59097 1.8946 0.27911 0.15418 0.89643 0.15425 1.1753 0 0.25254-0.13969 0.53766-0.44678 0.63081-0.67712 0.27171-0.67189 0.04953-1.5173-0.48472-1.8399-0.18455-0.1114-0.32382-0.14538-0.69721-0.17783-0.30363-0.026391-0.51613-0.075787-0.61753-0.13679-0.20268-0.12193-0.36438-0.42397-0.40505-0.7592-0.037012-0.30513 0.045556-1.0658 0.15936-1.4705 0.11766-0.41836 0.070676-1.203-0.092962-1.5731-0.50137-1.134-1.9177-1.5781-2.9216-0.90967-0.15746 0.10483-0.35945 0.29102-0.45152 0.41038-0.32279 0.41843-0.8427 0.9546-1.0027 1.0328-0.40249 0.19673-0.81565 0.03552-1.2683-0.49245-0.68416-0.79807-0.78429-0.8988-1.089-1.0533-0.28625-0.14515-0.58985-0.21695-0.89641-0.21203zm2.8951 2.3255c0.92671-0.0015245 1.5566 0.87109 1.2948 1.7988-0.11419 0.40459-0.48881 0.79648-0.86321 0.90967-0.32032 0.096842-0.58461 0.10163-0.88313 0.0068395-0.51901-0.16476-0.90664-0.73443-0.90305-1.3337 0.00233-0.40109 0.089428-0.62943 0.35856-0.93019 0.28107-0.31408 0.5853-0.45072 0.99601-0.45141z" fill="url(#gr0)"/>
 <path id="path17" d="m5.111 4c-0.304 0-0.615 0.08-0.918 0.24-0.905 0.461-1.277 1.452-0.996 2.633 0.135 0.564 0.181 1.328 0.1 1.635-0.115 0.436-0.467 0.663-1.035 0.664-0.561 0-1.114 0.443-1.223 0.988-0.1111 0.55 0.02 1.05 0.365 1.41 0.411 0.43 0.982 0.55 1.475 0.31 0.715-0.34 0.948-1.06 0.644-1.964-0.147-0.433-0.154-0.491-0.08-0.766 0.313-1.161 2.885-1.246 3.307-0.109 0.1 0.269 0.08 0.454-0.1 0.924-0.112 0.285-0.124 0.385-0.105 0.695 0.04 0.57 0.297 0.96 0.816 1.21 0.315 0.14 0.972 0.14 1.282 0 0.761-0.37 1.047-1.15 0.711-1.946-0.289-0.682-0.145-1.137 0.462-1.451 0.764-0.395 1.874-0.304 2.424 0.199 0.4 0.36 0.46 0.672 0.25 1.293-0.28 0.825-0.1 1.535 0.59 1.895 0.28 0.15 0.89 0.15 1.17 0 0.26-0.14 0.54-0.45 0.63-0.68 0.28-0.67 0-1.515-0.48-1.838-0.19-0.111-0.32-0.145-0.7-0.178-0.3-0.03-0.51-0.08-0.62-0.137-0.2-0.122-0.36-0.424-0.4-0.759 0-0.305 0-1.065 0.16-1.469 0.12-0.419 0.1-1.204-0.1-1.574-0.51-1.134-1.92-1.58-2.926-0.911-0.157 0.105-0.36 0.292-0.453 0.411-0.322 0.419-0.842 0.955-1.002 1.033-0.403 0.197-0.814 0.04-1.267-0.492-0.684-0.798-0.785-0.898-1.09-1.053-0.283-0.144-0.583-0.216-0.887-0.213h-4e-3zm0.012 0.5h2e-3c0.222-4e-3 0.443 0.048 0.66 0.158 0.133 0.068 0.159 0.081 0.279 0.197 0.121 0.117 0.316 0.339 0.657 0.737 0.159 0.186 0.347 0.282 0.525 0.406-0.226 0.105-0.434 0.253-0.605 0.445-0.318 0.355-0.487 0.79-0.487 1.262 0 0.088 0.061 0.16 0.071 0.24-0.375-0.151-0.783-0.221-1.192-0.211-0.428 0.015-0.852 0.109-1.226 0.303 0-0.096 0.019-0.176 0.019-0.281-0.02-0.327-0.072-0.679-0.142-0.998-0.244-1.024 0.039-1.718 0.736-2.072 0.241-0.126 0.479-0.186 0.703-0.186zm5.577 0.01s-0.01 1e-3 -0.01 2e-3c0.63-0.067 1.29 0.275 1.57 0.914 0.1 0.163 0.2 1.006 0.1 1.234-0.15 0.424-0.15 0.954-0.15 1.41-0.71-0.424-1.62-0.425-2.405-0.09 0.108-0.819-0.274-1.601-0.963-1.957 0.01-0.01 0.029-0.019 0.039-0.029 0.09-0.08 0.185-0.175 0.287-0.279 0.203-0.209 0.422-0.456 0.6-0.686 0.029-0.038 0.232-0.24 0.332-0.3 0.19-0.116 0.38-0.186 0.59-0.217-0.01 0-0.01-1e-3 -0.02 0l0.03-2e-3zm-2.688 1.801v7e-3c0.927 0 1.557 0.871 1.295 1.799-0.114 0.404-0.49 0.795-0.864 0.908-0.32 0.1-0.584 0.102-0.882 0-0.519-0.165-0.909-0.734-0.905-1.334 0-0.401 0.09-0.628 0.36-0.929 0.281-0.314 0.586-0.451 0.996-0.451zm0.797 3.052 9e-3 6e-3 -9e-3 6e-3c8e-3 0.246-0.025 0.488 0.08 0.735 0.25 0.59 0.086 1.03-0.465 1.29-0.032 0-0.233 0.1-0.424 0.1s-0.392-0.1-0.432-0.1c-0.389-0.18-0.499-0.35-0.529-0.78-0.02-0.29-0.032-0.22 0.07-0.49 0.098-0.242 0.168-0.442 0.188-0.657 0-0.01-1e-3 -0.021 0-0.041 0.041 0.01 0.061 0.06 0.111 0.08 0.384 0.126 0.791 0.117 1.18 0 0.086-0.027 0.145-0.096 0.221-0.137-1e-3 -4e-3 0-8e-3 0-0.012zm-5.909 0.141h4e-3c-1e-3 0-2e-3 1e-3 -4e-3 2e-3v0.017c0.02 0.185 0.077 0.33 0.147 0.557 0.13 0.37 0.13 0.66 0.06 0.87-0.067 0.21-0.191 0.36-0.445 0.48-0.299 0.14-0.616 0.09-0.898-0.21-0.235-0.24-0.315-0.54-0.235-0.97 0.055-0.27 0.435-0.58 0.733-0.58 0.233 0 0.433-0.094 0.638-0.164v-2e-3zm10.12 0h0.02v6e-3c0.18 0.07 0.36 0.129 0.6 0.148 0.35 0.028 0.35 0.028 0.48 0.108 0.28 0.154 0.46 0.784 0.28 1.224-0.02 0.05-0.29 0.33-0.41 0.43 0 0-0.18 0.1-0.34 0.1-0.17 0-0.35-0.1-0.35-0.1-0.46-0.24-0.58-0.63-0.36-1.3 0.1-0.214 0.1-0.409 0.1-0.61-0.01-3e-3 -0.01-4e-3 -0.02-6e-3z" opacity=".3"/>
 <path id="path24" d="m8.668 6.486c-0.12 0.115-0.253 0.244-0.309 0.272-0.331 0.162-0.67 0.07-1.031-0.258-0.109 0.069-0.213 0.151-0.312 0.262-0.27 0.301-0.36 0.528-0.36 0.929-1e-3 0.168 0.034 0.329 0.088 0.483 0.057-0.139 0.141-0.267 0.272-0.412 0.281-0.314 0.586-0.451 0.996-0.451v7e-3c0.6 0 1.07 0.368 1.259 0.877 0.01-0.026 0.028-0.051 0.036-0.078 0.193-0.684-0.101-1.335-0.639-1.631zm-5.514 0.143c-0.075 0.375-0.063 0.795 0.043 1.244 0.048 0.2 0.07 0.427 0.094 0.648 1e-3 -5e-3 5e-3 -8e-3 6e-3 -0.013 0.081-0.307 0.035-1.071-0.1-1.635-0.02-0.083-0.029-0.163-0.043-0.244zm9.716 0.012c-0.01 0.052-0.02 0.113-0.03 0.158-0.16 0.404-0.16 1.164-0.16 1.469 0.01 0.047 0.03 0.085 0.04 0.13 0.02-0.221 0.06-0.439 0.12-0.599 0.08-0.297 0.1-0.772 0.03-1.158zm-7.815 1.593c-0.735 0.025-1.455 0.336-1.612 0.916-0.074 0.275-0.067 0.333 0.08 0.766 4e-3 0.01 3e-3 0.018 6e-3 0.027 0.517-0.911 2.596-0.962 3.143-0.052 0.095-0.26 0.141-0.444 0.131-0.596-0.054-0.117-0.088-0.237-0.11-0.365-0.263-0.49-0.955-0.718-1.638-0.696zm6.055 2e-3c-0.44-0.036-0.91 0.039-1.294 0.237-0.231 0.119-0.376 0.268-0.474 0.433-0.01 0.07-0.015 0.14-0.035 0.211-0.017 0.059-0.05 0.115-0.077 0.172-7e-3 0.181 0.021 0.379 0.116 0.609 0.099-0.162 0.242-0.307 0.47-0.425 0.764-0.395 1.874-0.304 2.424 0.199 0.11 0.099 0.19 0.197 0.25 0.297v-4e-3c0.21-0.621 0.15-0.933-0.25-1.293-0.27-0.252-0.69-0.399-1.13-0.436zm-10.02 2.804c-0.015 0.04-0.042 0.08-0.051 0.12-0.1111 0.55 0.02 1.05 0.365 1.41 0.411 0.43 0.982 0.55 1.475 0.31 0.652-0.31 0.881-0.94 0.689-1.74-0.114 0.32-0.345 0.58-0.689 0.74-0.493 0.24-1.064 0.12-1.475-0.31-0.147-0.15-0.247-0.34-0.314-0.53zm5.531 0.02c-0.071 0.21-0.092 0.34-0.076 0.6 0.04 0.57 0.297 0.96 0.816 1.21 0.315 0.14 0.972 0.14 1.282 0 0.712-0.35 1-1.05 0.759-1.8-0.127 0.34-0.385 0.62-0.759 0.8-0.31 0.14-0.967 0.14-1.282 0-0.386-0.19-0.625-0.45-0.74-0.81zm8.289 0.03-0.03 0.09c-0.09 0.23-0.37 0.54-0.63 0.68-0.28 0.15-0.89 0.15-1.17 0-0.32-0.17-0.52-0.41-0.63-0.7-0.19 0.74 0 1.37 0.63 1.7 0.28 0.15 0.89 0.15 1.17 0 0.26-0.14 0.54-0.45 0.63-0.68 0.15-0.35 0.14-0.74 0.03-1.09z" fill="#fff" opacity=".2"/>
 <path id="path31" d="m5.111 4c-0.304 1e-3 -0.615 0.081-0.918 0.24-0.841 0.429-1.215 1.317-1.039 2.389 0.123-0.613 0.478-1.103 1.039-1.389 0.303-0.159 0.614-0.239 0.918-0.24h4e-3c0.304-3e-3 0.604 0.069 0.887 0.213 0.305 0.155 0.406 0.255 1.09 1.053 0.082 0.097 0.162 0.168 0.242 0.24 0.198-0.123 0.415-0.188 0.678-0.188v8e-3c0.241 0 0.46 0.061 0.65 0.164 0.224-0.213 0.488-0.49 0.699-0.765 0.093-0.119 0.296-0.306 0.453-0.411 1.006-0.669 2.416-0.223 2.926 0.911 0.06 0.108 0.1 0.256 0.13 0.416 0.08-0.436 0.05-1.086-0.13-1.416-0.51-1.134-1.92-1.58-2.926-0.911-0.157 0.105-0.36 0.292-0.453 0.411-0.322 0.419-0.842 0.955-1.002 1.033-0.403 0.197-0.814 0.04-1.267-0.492-0.684-0.798-0.785-0.898-1.09-1.053-0.283-0.144-0.583-0.216-0.887-0.213h-4e-3zm1.633 4.184c-0.06 0.148-0.088 0.309-0.088 0.515 0 0.078 0.023 0.153 0.035 0.229 0.021 0.037 0.044 0.073 0.059 0.113 0.034 0.092 0.048 0.177 0.053 0.264 0.156 0.341 0.423 0.621 0.758 0.725 0.298 0.11 0.562 0.1 0.882 0 0.32-0.094 0.63-0.394 0.787-0.731 5e-3 -0.144 0.042-0.276 0.112-0.393 0.034-0.249 0.01-0.488-0.071-0.703-0.137 0.375-0.478 0.725-0.828 0.83-0.32 0.1-0.584 0.102-0.882 0-0.375-0.119-0.677-0.45-0.817-0.849zm5.976 0.214c-0.04 0.338-0.04 0.686-0.04 0.87 0.04 0.335 0.2 0.636 0.4 0.762 0.11 0.03 0.32 0.13 0.62 0.13 0.38 0.04 0.51 0.07 0.7 0.18 0.23 0.16 0.41 0.44 0.51 0.75 0.22-0.65-0.05-1.439-0.51-1.748-0.19-0.111-0.32-0.145-0.7-0.178-0.3-0.03-0.51-0.08-0.62-0.137-0.17-0.104-0.3-0.352-0.36-0.629zm-9.429 0.123c-0.119 0.426-0.468 0.65-1.029 0.651-0.561 0-1.114 0.443-1.223 0.988-0.0637 0.32-0.0393 0.61 0.051 0.88 0.164-0.49 0.656-0.87 1.172-0.87 0.568 0 0.92-0.226 1.035-0.662 0.052-0.198 0.037-0.585-6e-3 -0.987zm3.381 1.37c-0.011 0.03-9e-3 0.041-0.022 0.074-0.112 0.285-0.124 0.385-0.105 0.695 0.01 0.15 0.034 0.28 0.074 0.4 0.013-0.03 0.014-0.06 0.031-0.1 0.18-0.47 0.2-0.65 0.1-0.92-0.02-0.054-0.049-0.101-0.078-0.149zm2.674 7e-3c-0.165 0.272-0.173 0.602 8e-3 1.022 0.021 0.05 0.032 0.1 0.048 0.15 0.13-0.34 0.122-0.74-0.048-1.146-4e-3 -9e-3 -5e-3 -0.016-8e-3 -0.026zm-5.817 0.045c-0.036 0.067-0.066 0.137-0.086 0.207-0.074 0.28-0.067 0.33 0.08 0.77 0.027 0.08 0.027 0.15 0.045 0.22 0.121-0.33 0.109-0.74-0.039-1.197zm8.961 0.026c-0.15 0.441-0.16 0.851-0.04 1.191 0.02-0.07 0.02-0.13 0.04-0.2 0.15-0.45 0.16-0.73 0-0.991z" opacity=".3"/>
</svg>
