<?xml version="1.0" encoding="UTF-8"?>
<svg id="svg36" width="16" height="16" version="1.1" xmlns="http://www.w3.org/2000/svg" xmlns:cc="http://creativecommons.org/ns#" xmlns:dc="http://purl.org/dc/elements/1.1/" xmlns:rdf="http://www.w3.org/1999/02/22-rdf-syntax-ns#">
 <metadata id="metadata40">
  <rdf:RDF>
   <cc:Work rdf:about="">
    <dc:format>image/svg+xml</dc:format>
    <dc:type rdf:resource="http://purl.org/dc/dcmitype/StillImage"/>
   </cc:Work>
  </rdf:RDF>
 </metadata>
 <defs id="defs7">
  <radialGradient id="gr0" cx="9" cy="10" r="11" gradientTransform="matrix(1 0 0 .72727 0 2.7273)" gradientUnits="userSpaceOnUse">
   <stop id="stop2" stop-opacity=".23529" offset="0"/>
   <stop id="stop4" stop-opacity=".54902" offset="1"/>
  </radialGradient>
 </defs>
 <path id="path9" d="m7 0a1 1 0 0 0-1 1 1 1 0 0 0 0 0.029v2.149c-3.273 0.562-5.7187 3.129-5.7188 3.129a1 1 0 0 0-0.23237 1.005s1.5832 4.588 5.9512 5.448v2.24a1 1 0 0 0 1 1h8a1 1 0 0 0 1-1v-5.678-7.32c0-1.0907-0.91-2-2-2l-7-0.001953zm0 1.029h7c0.55 0 1 0.446 1 1v7.293 0.01 0.022 5.656h-8v-3.01h0.227c2.2 0 6.073-1.19 7.753-2.66-0.27-0.267-1.42-0.842-1.71-1.084-1.76 1.6-3.582 2.954-6.094 2.954h-0.176v0.77h-0.328c-4.188-0.41-5.67-4.96-5.67-4.96s2.627-2.724 5.67-2.981c0.067-0.02 0.131-0.019 0.201-0.019h0.127v0.769 0.01c2.415 1e-3 3.99 2.246 3.99 2.246s-1.756 2.572-3.646 2.572c-0.12 0-0.235-9e-3 -0.344-0.029v0.652h-0.33c-2.322-0.434-2.963-2.974-2.963-2.974s1.11-1.296 2.963-1.506c0.108-0.01 0.219-0.031 0.33-0.031v-0.926h-0.129c-0.069 0.02-0.131 0.019-0.201 0.019-2.749 0.221-4.123 2.358-4.123 2.358s1.05 3.58 4.123 3.99h0.33v-0.85h0.291c2.698 0 5.289-3.32 5.289-3.32s-2.19-3.034-5.58-2.994v-2.977zm0 4.703v0.94c-0.106-0.03-0.198-0.08-0.33-0.1-0.122-0.01-0.24-0.01-0.354 0-0.797 0.102-1.378 0.834-1.378 0.834-2e-3 0 0.421 1.627 1.732 2.092 0.104 0.04 0.214 0.06 0.33 0.08v-2.894c0.62 0.206 0.868 0.661 1.354 1.511l1.294-1.15s-0.946-1.313-2.541-1.313h-0.107z" fill="#fff" opacity=".05"/>
 <path id="base" d="m7 1v3.0059c3.3876-0.04025 5.5762 2.9941 5.5762 2.9941s-2.5875 3.3164-5.2852 3.3164c-0.10442 0-0.19409-0.021026-0.29102-0.033203v0.88867c0.05889 0.00327 0.11442 0.011719 0.17578 0.011719 2.5119 0 4.3332-1.361 6.0918-2.9609 0.29238 0.24624 1.4863 0.83805 1.7324 1.0996v-7.3223c0-0.554-0.446-1-1-1h-7zm8 8.3223c-1.6725 1.4786-5.5647 2.6777-7.7734 2.6777-0.076913 0-0.15093-0.008921-0.22656-0.013672v3.0137h8v-5.6777zm-8 2.6641v-0.81445c-0.11062-0.006142-0.2229-0.010112-0.33008-0.023437-3.073-0.40567-4.123-3.9883-4.123-3.9883s1.3742-2.1361 4.123-2.3574c0.067308-0.00454 0.13171-0.015309 0.20117-0.017578 0.043868-0.0014504 0.085573 0.0038806 0.12891 0.0039063v-0.7832c-0.042884 5.095e-4 -0.083686-0.0034622-0.12695-0.0019532h-0.0019531c-0.066666 0.0024079-0.13451 0.013084-0.20117 0.017578-3.0434 0.25702-5.6699 2.9785-5.6699 2.9785s1.4823 4.5507 5.6699 4.9648c0.1073 0.010432 0.21986 0.014561 0.33008 0.021484zm0-7.1973v0.94336c0.03621-0.0020436 0.07078-0.0097657 0.10742-0.0097657 1.5944 0 2.541 1.3125 2.541 1.3125l-1.2949 1.1523c-0.48527-0.85011-0.73375-1.3077-1.3535-1.5137v2.9043c0.10948 0.017639 0.22409 0.029297 0.34375 0.029297 1.8905 0 3.6504-2.5723 3.6504-2.5723 0 1e-7 -1.5796-2.2447-3.9941-2.2461zm0 4.7891c-0.11566-0.018634-0.22635-0.0449-0.33008-0.078125-1.3106-0.46525-1.7324-2.0918-1.7324-2.0918s0.58144-0.73186 1.3789-0.83398c0.11362-0.01305 0.23182-0.015319 0.35352 0 0.13217 0.020013 0.22433 0.064459 0.33008 0.099609v-0.94141c-0.11119 0.006275-0.22203 0.01536-0.33008 0.027344-1.8528 0.21049-2.9629 1.5059-2.9629 1.5059s0.64104 2.5416 2.9629 2.9785c0.10505 0.017791 0.22009 0.025244 0.33008 0.039062v-0.70508z" fill="url(#gr0)"/>
 <path id="path24" d="m7 4.006v0.014 0.769 0.01c0.788 0 1.475 0.248 2.059 0.57 1.461 0.531 2.541 1.521 3.091 2.125 0.26-0.286 0.43-0.494 0.43-0.494s-2.19-3.034-5.58-2.994zm-0.127 1.014c-0.07 0-0.134-1e-3 -0.201 0.019-1.114 0.094-2.169 0.521-3.063 1.022-0.706 0.57-1.062 1.119-1.062 1.119s0.085 0.272 0.258 0.662c0.399-0.474 1.275-1.313 2.601-1.75 0.055-0.023 0.117-0.041 0.174-0.063 0.047-0.013 0.087-0.032 0.135-0.045 0.293-0.1 0.606-0.185 0.955-0.224 0.108-0.01 0.219-0.031 0.33-0.031v-0.709h-0.127zm0.127 0.75v0.033 0.869 0.012c0.037 0.012 0.063 0.034 0.098 0.048h9e-3c0.91 0 1.578 0.417 2.01 0.784l0.531-0.471s-0.46-0.622-1.265-1.01c-0.423-0.154-0.88-0.265-1.383-0.265zm0 0.941c-0.111 0-0.222 0.019-0.33 0.029-0.586 0.067-1.088 0.245-1.514 0.453-0.083 0.085-0.218 0.213-0.218 0.213-1e-3 0 0.101 0.319 0.292 0.698 0.241-0.224 0.588-0.487 1.086-0.551 0.114-0.01 0.232-0.01 0.354 0 0.132 0.02 0.224 0.069 0.33 0.099v-0.92-0.021zm3.59 0.836c-0.611 0.745-1.882 2.07-3.246 2.07-0.12 0-0.235-9e-3 -0.344-0.029v0.652 0.08h0.291c0.726 0 1.439-0.25 2.102-0.601 0.937-0.747 1.597-1.703 1.597-1.703s-0.15-0.199-0.4-0.469zm-9.289 0.193c-0.13 0.122-0.299 0.28-0.299 0.28s1.482 4.55 5.67 4.96h0.328v-0.77-0.04h-0.33c-0.652-0.09-1.208-0.32-1.688-0.63-2.045-0.87-3.189-2.758-3.681-3.8zm2.683 0.242c-0.167 0.153-0.277 0.264-0.277 0.264s0.523 2.054 2.316 2.784c0.206 0.06 0.419 0.11 0.647 0.14h0.33v-0.58-0.01c-0.116 0-0.226 0-0.33-0.1-0.306-0.11-0.559-0.28-0.774-0.484-1.032-0.47-1.611-1.373-1.912-2.014zm9.286 0.274c-1.35 1.23-2.74 2.304-4.456 2.744-0.492 0.2-1.005 0.32-1.523 0.32h-0.291v0.66 0.02h0.227c0.751 0 1.703-0.15 2.691-0.39 1.232-0.54 2.302-1.4 3.352-2.354 0.16 0.137 0.6 0.377 1 0.611 0.26-0.171 0.5-0.346 0.71-0.527-0.27-0.267-1.42-0.842-1.71-1.084zm-6.27 6.754v1h8v-1h-8z" fill="#fff" opacity=".2"/>
 <path id="path31" d="m7 1.029v1h7c0.55 0 1 0.446 1 1v-1c0-0.554-0.45-1-1-1h-7zm-0.127 2.991c-0.07 0-0.134 9e-3 -0.201 0.019-3.043 0.257-5.67 2.979-5.67 2.979s0.094 0.286 0.299 0.72c0.375-0.352 1.157-1.034 2.308-1.677 0.687-0.555 1.705-1.13 3.061-1.239 0.07 0 0.132-9e-3 0.201-0.019h0.129v-4e-3 -0.01-0.769h-0.127zm0.127 0.986v0.014 0.71 2e-3h0.107c0.491 0 0.911 0.129 1.27 0.301 1.022 0.371 1.793 1.049 2.223 1.514 0.23-0.287 0.39-0.502 0.39-0.502s-0.73-1.011-1.931-1.676c-0.622-0.226-1.309-0.372-2.059-0.363zm-0.129 0.797c-0.069 0.01-0.131 0.019-0.201 0.019-0.342 0.028-0.662 0.086-0.961 0.164-0.031 9e-3 -0.057 0.023-0.088 0.032-0.076 0.021-0.142 0.052-0.215 0.076-1.081 0.453-1.699 1.172-1.699 1.172s0.084 0.308 0.275 0.716c0.24-0.217 0.632-0.523 1.174-0.789 0.214-0.218 0.587-0.547 1.16-0.621 0.114-0.01 0.232-0.01 0.354 0 0.132 0.02 0.224 0.07 0.33 0.1v-0.869h-0.129zm0.129 0.929v0.92 0.032c0.62 0.206 0.868 0.661 1.354 1.511l1.294-1.15s-0.205-0.253-0.531-0.529l-0.763 0.679c-0.457-0.798-0.714-1.24-1.256-1.463h-0.098zm5.15 0.762c-0.53 0.594-1.54 1.581-2.757 2.225-0.6 0.481-1.312 0.871-2.049 0.871h-0.344v0.58 0.04h0.176c0.581 0 1.123-0.08 1.638-0.21 2.076-0.83 3.766-3 3.766-3s-0.15-0.206-0.43-0.506zm-9.343 0.348c-0.173 0.204-0.26 0.338-0.26 0.338s0.656 2.22 2.435 3.36c0.509 0.22 1.065 0.38 1.69 0.44h0.328v-0.66-0.1h-0.33c-0.234-0.04-0.446-0.11-0.647-0.19-1.821-0.56-2.797-2.243-3.216-3.188zm2.423 0.262c-0.143 0.133-0.292 0.283-0.292 0.283-1e-3 0 0.251 0.952 0.958 1.609 0.235 0.104 0.491 0.194 0.774 0.244h0.33v-0.652-0.01c-0.116-0.02-0.226-0.04-0.33-0.08-0.749-0.266-1.184-0.89-1.44-1.394zm9.04 1.763c-1.16 0.743-2.8 1.363-4.348 1.743-0.831 0.37-1.731 0.6-2.746 0.6h-0.176v0.77h2e-3l-2e-3 0.01v0.01h0.227c2.2 0 6.073-1.19 7.753-2.66-0.12-0.12-0.4-0.29-0.71-0.473z" opacity=".3"/>
</svg>
