<?xml version="1.0" encoding="UTF-8"?>
<svg id="svg36" width="16" height="16" version="1.1" xmlns="http://www.w3.org/2000/svg" xmlns:cc="http://creativecommons.org/ns#" xmlns:dc="http://purl.org/dc/elements/1.1/" xmlns:rdf="http://www.w3.org/1999/02/22-rdf-syntax-ns#">
 <metadata id="metadata40">
  <rdf:RDF>
   <cc:Work rdf:about="">
    <dc:format>image/svg+xml</dc:format>
    <dc:type rdf:resource="http://purl.org/dc/dcmitype/StillImage"/>
   </cc:Work>
  </rdf:RDF>
 </metadata>
 <defs id="defs7">
  <radialGradient id="gr0" cx="9" cy="10" r="11" gradientTransform="matrix(1 0 0 .72727 0 2.7273)" gradientUnits="userSpaceOnUse">
   <stop id="stop2" stop-opacity=".23529" offset="0"/>
   <stop id="stop4" stop-opacity=".54902" offset="1"/>
  </radialGradient>
 </defs>
 <path id="path9" d="m9.029 0.005859c-0.199 0.005201-0.393 0.027211-0.582 0.066411-0.879 0.18233-1.571 0.68883-2.181 1.2617a1 1 0 0 0-0.912 0.314c-1.071 1.185-1.931 3.109-2.395 5.264s-0.515 4.538 0.496 6.518c0.338 0.66 0.867 1.39 1.65 1.93 0.784 0.53 1.904 0.84 3.049 0.47 1.743-0.57 3.026-2.13 3.916-3.98s1.38-4.029 1.27-6.088c-0.12-2.053-0.66-4.3-2.5-5.3108-0.59-0.3207-1.214-0.46104-1.811-0.44534zm0.033 0.99614v2e-3c0.419-0.014 0.851 0.081 1.298 0.324 1.3 0.713 1.87 2.6 1.98 4.49 0.21 3.708-1.84 8.202-4.494 9.062-1.68 0.54-2.951-0.83-3.5-1.91-1.696-3.304 0.019-8.736 1.75-10.652-0.331 0.811-0.85 1.437-1.067 2.362 0.655-1.352 1.995-3.29 3.621-3.627 0.136-0.03 0.274-0.051 0.412-0.051zm-0.154 1.117v2e-3c-0.274 8e-3 -0.577 0.095-0.91 0.275-2.409 1.298-4.306 7.904-2.359 10.804 0.496 0.69 1.868 1.54 2.74 0.69-2.008 0.3-2.77-1.69-2.893-3.27 0.302 1.41 1.339 3.13 2.969 2.43 2.425-1.03 3.615-6.224 2.585-9.282 0.22 1.293 0.15 3.052-0.45 3.959 0.62-1.662 0.35-4.637-0.945-5.415-0.217-0.133-0.462-0.193-0.737-0.193zm0.043 0.99c0.07 7e-3 0.123 0.026 0.18 0.061 0.192 0.115 0.586 0.769 0.715 1.66 0.128 0.891 0.03 1.943-0.196 2.545a1 1 0 0 0 0.47 1.232v0.309c-0.435 1.644-1.308 2.914-2.018 3.214-0.47 0.2-0.566 0.12-0.872-0.2s-0.605-0.96-0.724-1.52a1 1 0 0 0-0.529-0.681c0.01-0.747 0.028-1.516 0.22-2.29 0.492-2.012 1.642-3.797 2.317-4.162 0.219-0.118 0.346-0.16 0.437-0.168z" fill="#fff" opacity=".05"/>
 <path id="base" d="m8.6504 1.0508c-1.6266 0.33738-2.9661 2.2757-3.6211 3.627 0.21684-0.9249 0.73539-1.5486 1.0664-2.3594-1.7311 1.9155-3.4453 7.3442-1.75 10.656 0.549 1.0726 1.8202 2.4456 3.5 1.9023 2.6568-0.8591 4.7028-5.351 4.4922-9.0586-0.1074-1.8902-0.67907-3.7774-1.9805-4.4902-0.59153-0.3241-1.1648-0.3898-1.707-0.27734zm0.99414 1.2578c1.2976 0.77723 1.5657 3.7527 0.94141 5.4141 0.6063-0.9065 0.67212-2.666 0.45703-3.959 1.0311 3.0579-0.16779 8.2524-2.5879 9.2871-1.6297 0.6967-2.667-1.0164-2.9688-2.4355 0.1226 1.5812 0.88448 3.5743 2.8926 3.2715-0.8717 0.85805-2.2435 0.056266-2.7402-0.68359-1.947-2.8994-0.045525-9.5121 2.3594-10.811 0.66599-0.35955 1.2139-0.34306 1.6465-0.083984z" fill="url(#gr0)"/>
 <path id="path17" d="m9.062 1.002c-0.138 0-0.276 0.021-0.412 0.051-1.626 0.337-2.966 2.275-3.621 3.627 0.217-0.925 0.736-1.551 1.067-2.362-1.731 1.916-3.446 7.348-1.75 10.652 0.549 1.08 1.82 2.45 3.5 1.91 2.654-0.86 4.704-5.354 4.494-9.062-0.11-1.89-0.68-3.777-1.98-4.49-0.447-0.243-0.879-0.338-1.298-0.324v-2e-3zm0.018 0.492c0.11 0 0.22 2e-3 0.332 0.022 0.225 0.033 0.455 0.113 0.708 0.25 0.52 0.283 0.92 0.857 1.21 1.586a0.5 0.5 0 0 0-0.37-0.081c-0.24-0.578-0.55-1.088-1.058-1.392-0.526-0.315-1.22-0.293-1.916 0.01 0.254-0.15 0.511-0.3 0.766-0.35 0.109-0.02 0.218-0.039 0.328-0.039v-6e-3zm-0.172 0.625c0.275 0 0.52 0.06 0.737 0.193 1.295 0.778 1.565 3.753 0.945 5.415 0.6-0.907 0.67-2.666 0.45-3.959 1.03 3.058-0.16 8.252-2.585 9.282-1.63 0.7-2.667-1.02-2.969-2.43 0.123 1.58 0.885 3.57 2.893 3.27-0.872 0.85-2.244 0-2.74-0.69-1.947-2.9-0.05-9.506 2.359-10.804 0.333-0.18 0.636-0.267 0.91-0.275v-2e-3zm-3.299 2.58c-0.35 0.748-0.697 1.515-0.908 2.379-0.504 2.061-0.534 4.282 0.299 5.912-0.054-0.09-0.169-0.14-0.209-0.24-0.766-1.5-0.785-3.583-0.367-5.521 0.159-0.74 0.423-1.405 0.681-2.057a0.5 0.5 0 0 0 0.374-0.276c0.029-0.06 0.1-0.137 0.13-0.197zm3.971 8.201c-0.243 0.29-0.477 0.58-0.738 0.8a0.5 0.5 0 0 0-0.158-0.21c0.327-0.14 0.623-0.35 0.896-0.59z" opacity=".3"/>
 <path id="path24" d="m8.908 2.119v2e-3c-0.274 8e-3 -0.577 0.095-0.91 0.275-1.811 0.976-3.332 4.952-3.148 8.094 0.138-2.934 1.524-6.219 3.148-7.094 0.333-0.18 0.636-0.267 0.91-0.275v-2e-3c0.275 0 0.52 0.061 0.737 0.193 0.765 0.461 1.165 1.697 1.245 2.971 0.12-1.573-0.28-3.388-1.245-3.971-0.217-0.133-0.462-0.193-0.737-0.193zm2.132 1.649c0.07 0.418 0.1 0.884 0.1 1.355 0.14 0.53 0.21 1.117 0.24 1.723 0.05-1.103-0.04-2.184-0.34-3.078zm0.09 1.863c-0.03 0.511-0.1 1.003-0.24 1.428-0.03 0.608-0.12 1.192-0.3 1.668 0.47-0.718 0.61-1.964 0.54-3.096zm1.21 1.178c-0.16 3.481-2.07 7.291-4.494 8.071-0.04 0.01-0.076 0.01-0.116 0.02 0.201 0.03 0.416 0.03 0.649-0.01-0.58 0.57-1.377 0.37-1.994-0.02-0.948-0.31-1.665-1.16-2.039-1.9-0.419-0.81-0.628-1.76-0.682-2.75-0.059 1.35 0.124 2.66 0.682 3.75 0.549 1.08 1.82 2.45 3.5 1.91 2.654-0.86 4.704-5.35 4.494-9.062v-9e-3zm-6.854 4.811c0.052 0.66 0.224 1.38 0.541 1.99 0.473 0.41 1.154 0.73 1.766 0.59-1.248 0.05-2.048-1.37-2.307-2.58z" fill="#fff" opacity=".2"/>
 <path id="path31" d="m9.062 1.002c-0.139 5e-3 -0.276 0.021-0.412 0.049-1.626 0.337-2.966 2.275-3.621 3.627 0.217-0.925 0.736-1.549 1.067-2.36-1.305 1.444-2.598 4.881-2.432 7.902 0.12-2.748 1.269-5.615 2.432-6.902-0.331 0.811-0.85 1.435-1.067 2.36 0.655-1.352 1.995-3.29 3.621-3.627 0.543-0.113 1.115-0.047 1.71 0.277 1.3 0.712 1.87 2.594 1.98 4.481 0.01-0.334 0.02-0.666 0-0.991-0.11-1.89-0.68-3.777-1.98-4.49-0.446-0.243-0.879-0.3399-1.298-0.326zm1.978 3.762c0.04 0.269 0.07 0.567 0.09 0.865 0.01-0.169 0.01-0.338 0.01-0.508-0.03-0.12-0.06-0.243-0.1-0.357zm-0.15 1.521c-0.04 0.525-0.15 1.022-0.3 1.438 0.12-0.188 0.22-0.416 0.3-0.664 0.01-0.257 0.01-0.514 0-0.774zm0.49 0.557c-0.13 2.667-1.21 5.478-2.925 6.208-1.63 0.7-2.667-1.02-2.969-2.43 0.123 1.58 0.885 3.57 2.893 3.27-0.178 0.17-0.379 0.26-0.586 0.31 0.209-0.01 0.428-0.05 0.662-0.15 1.935-0.82 3.065-4.284 2.925-7.208zm-6.53 3.648c-0.067 1.42 0.154 2.76 0.789 3.71 0.166 0.23 0.435 0.47 0.746 0.67 0.408 0.13 0.857 0.16 1.345 0.03-0.805-0.09-1.347-0.61-1.703-1.29-0.153-0.14-0.291-0.28-0.388-0.41-0.483-0.72-0.729-1.67-0.789-2.71z" opacity=".3"/>
</svg>
