<?xml version="1.0" encoding="UTF-8"?>
<svg id="svg36" width="16" height="16" version="1.1" xmlns="http://www.w3.org/2000/svg" xmlns:cc="http://creativecommons.org/ns#" xmlns:dc="http://purl.org/dc/elements/1.1/" xmlns:rdf="http://www.w3.org/1999/02/22-rdf-syntax-ns#">
 <metadata id="metadata40">
  <rdf:RDF>
   <cc:Work rdf:about="">
    <dc:format>image/svg+xml</dc:format>
    <dc:type rdf:resource="http://purl.org/dc/dcmitype/StillImage"/>
   </cc:Work>
  </rdf:RDF>
 </metadata>
 <defs id="defs7">
  <radialGradient id="gr0" cx="9" cy="10" r="11" gradientTransform="matrix(1 0 0 .72727 0 2.7273)" gradientUnits="userSpaceOnUse">
   <stop id="stop2" stop-opacity=".23529" offset="0"/>
   <stop id="stop4" stop-opacity=".54902" offset="1"/>
  </radialGradient>
 </defs>
 <path id="path9" d="m4.5 0c-1.178 0-2.349 0.4861-3.182 1.318-0.8319 0.833-1.318 2.004-1.318 3.182s0.4861 2.349 1.318 3.182c0.832 0.832 2.001 1.317 3.178 1.318a4.5 4.5 0 0 0 4e-3 0h2e-3c0.283 0 0.564-0.03 0.842-0.084a4.5 4.5 0 0 0 0.082-0.02c0.264-0.056 0.525-0.133 0.775-0.236a4.5 4.5 0 0 0 0.051-0.023c0.251-0.107 0.494-0.234 0.723-0.383a4.5 4.5 0 0 0 0.068-0.049c0.22-0.15 0.427-0.318 0.617-0.506a4.5 4.5 0 0 0 0.061-0.066c0.184-0.19 0.356-0.393 0.504-0.613a4.5 4.5 0 0 0 0.043-0.071c0.148-0.231 0.281-0.473 0.386-0.726a4.5 4.5 0 0 0 0-2e-3c1e-3 -2e-3 2e-3 -3e-3 2e-3 -4e-3 0.111-0.269 0.196-0.548 0.254-0.832a4.5 4.5 0 0 0 4e-3 -0.033c0.05-0.256 0.074-0.517 0.078-0.778a4.5 4.5 0 0 0 4e-3 -0.074 4.5 4.5 0 0 0 0-0.023c-7e-3 -0.192-0.087-0.374-0.115-0.565l1.062-0.029c0 0.052 2e-3 0.076 8e-3 0.119h3.549c0.83 0 1.5 0.669 1.5 1.5v5.998c0 0.83-0.67 1.5-1.5 1.5h-1.5l-2.504 2-2.5-2h-1.5c-0.831 0-1.5-0.67-1.5-1.5v-1.541c-0.049-3e-3 -0.083-9e-3 -0.142-0.018l-0.866-0.97v2.529c0 1.37 1.132 2.5 2.5 2.5h1.149l2.226 1.78a1 1 0 0 0 1.247 0l2.23-1.78h1.15c1.37 0 2.5-1.13 2.5-2.5v-5.998c0-1.368-1.13-2.5-2.5-2.5h-4.535a1 1 0 0 0-0.262 0.039c-0.223-0.638-0.545-1.238-1.023-1.717-0.833-0.8321-2.004-1.3181-3.182-1.3181l0.012-0.005859zm0 1a3.5 3.5 0 0 1 3.5 3.5 3.5 3.5 0 0 1-3.5 3.5 3.5 3.5 0 0 1-3.5-3.5 3.5 3.5 0 0 1 3.5-3.5zm-0.5 1v1.633l-1.416-0.817-0.5 0.868 1.414 0.816-1.414 0.816 0.5 0.868 1.416-0.817v1.633h1v-1.633l1.416 0.817 0.5-0.868-1.414-0.816 1.414-0.816-0.5-0.868-1.416 0.817v-1.633h-1z" fill="#fff" opacity=".05"/>
 <path id="base" d="m4.5 1a3.5 3.5 0 0 0-3.5 3.5 3.5 3.5 0 0 0 3.5 3.5 3.5 3.5 0 0 0 3.5-3.5 3.5 3.5 0 0 0-3.5-3.5zm-0.5 1h1v1.6328l1.416-0.81641 0.5 0.86719-1.4141 0.81641 1.4141 0.81641-0.5 0.86719-1.416-0.81641v1.6328h-1v-1.6328l-1.416 0.81641-0.5-0.86719 1.4141-0.81641-1.4141-0.81641 0.5-0.86719 1.416 0.81641v-1.6328zm4.9668 2a4.5 4.5 0 0 1 0.033203 0.5 4.5 4.5 0 0 1-4.5 4.5 4.5 4.5 0 0 1-0.5-0.03125v2.5312c0 0.831 0.669 1.5 1.5 1.5h1.5l2.5 2 2.5-2h1.5c0.831 0 1.5-0.669 1.5-1.5v-6c0-0.831-0.669-1.5-1.5-1.5h-4.5332z" fill="url(#gr0)"/>
 <path id="path17" d="m4.5 1a3.5 3.5 0 0 0-3.5 3.5 3.5 3.5 0 0 0 3.5 3.5 3.5 3.5 0 0 0 3.5-3.5 3.5 3.5 0 0 0-3.5-3.5zm-0.883 0.674v4e-3c-1e-3 0-2e-3 1e-3 -4e-3 2e-3a0.5 0.5 0 0 0-0.113 0.314v0.77l-0.666-0.385a0.5 0.5 0 0 0-0.395-0.041c0.332-0.315 0.739-0.521 1.174-0.658a0.5 0.5 0 0 1 4e-3 -6e-3zm1.764 4e-3a0.5 0.5 0 0 1 8e-3 8e-3c0.435 0.137 0.84 0.344 1.172 0.658a0.5 0.5 0 0 0-0.395 0.039l-0.666 0.385v-0.768a0.5 0.5 0 0 0-0.111-0.314c-3e-3 -1e-3 -6e-3 -2e-3 -8e-3 -2e-3v-6e-3zm-1.381 0.322h1v1.633l1.416-0.817 0.5 0.868-1.414 0.816 1.414 0.816-0.5 0.868-1.416-0.817v1.633h-1v-1.633l-1.416 0.817-0.5-0.868 1.414-0.816-1.414-0.816 0.5-0.868 1.416 0.817v-1.633zm-2.375 1.881a0.5 0.5 0 0 0 0.209 0.234l0.662 0.383-0.662 0.385a0.5 0.5 0 0 0-0.209 0.236c-0.045-0.208-0.125-0.408-0.125-0.621 0-0.212 0.085-0.41 0.125-0.617zm5.75 0c0.045 0.208 0.125 0.408 0.125 0.621 0 0.212-0.085 0.41-0.125 0.617a0.5 0.5 0 0 0-0.209-0.234l-0.662-0.383 0.662-0.385a0.5 0.5 0 0 0 0.209-0.236zm1.592 0.121a4.5 4.5 0 0 1 0.029 0.498 4.5 4.5 0 0 1-2e-3 0.041 0.5 0.5 0 0 0 0.453-0.43l-0.019 0.422h4.062c0.56 0 1 0.437 1 1v5.997c0 0.56-0.44 1-1 1h-1.5a0.5 0.5 0 0 0-0.31 0.11l-2.19 1.75-2.187-1.75a0.5 0.5 0 0 0-0.313-0.11h-1.5c-0.563 0-1-0.44-1-1v-2.526a0.5 0.5 0 0 0 0-4e-3 4.5 4.5 0 0 1-0.494-0.029v2.529c0 0.83 0.669 1.5 1.5 1.5h1.5l2.5 2 2.504-2h1.5c0.83 0 1.5-0.67 1.5-1.5v-5.998c0-0.831-0.67-1.5-1.5-1.5h-4.533zm-5.467 2.228v0.764a0.5 0.5 0 0 0 0.119 0.322c-0.438-0.137-0.847-0.344-1.18-0.66a0.5 0.5 0 0 0 0.395-0.041l0.666-0.385zm2 0 0.666 0.391a0.5 0.5 0 0 0 0.395 0.039c-0.333 0.316-0.741 0.523-1.178 0.66a0.5 0.5 0 0 0 0.117-0.322v-0.768z" opacity=".3"/>
 <path id="path24" d="m4.5 2a3.5 3.5 0 0 0-0.5 0.041v0.959h1v-0.961a3.5 3.5 0 0 0-0.5-0.039zm-1.916 0.816-0.5 0.868 0.432 0.25 0.068-0.118 1.416 0.817v-1l-1.416-0.817zm3.832 0-1.416 0.817v1l1.416-0.817 0.068 0.118 0.432-0.25-0.5-0.868zm-5.377 2.178a3.5 3.5 0 0 0-0.039 0.506 3.5 3.5 0 0 0 3.184 3.484 4.5 4.5 0 0 0 0.306 0.016 4.5 4.5 0 0 0 6e-3 0 4.5 4.5 0 0 0 4e-3 0 3.5 3.5 0 0 0 0.01 0 3.5 3.5 0 0 0 3.49-3.5 3.5 3.5 0 0 0-0.039-0.494 3.5 3.5 0 0 1-2.961 2.953v0.041h-0.5-0.5v-0.039a3.5 3.5 0 0 1-2.961-2.967zm1.594 6e-3 -0.549 0.316 0.432 0.75 0.982-0.566-0.865-0.5zm3.734 0-0.865 0.5 0.982 0.566 0.432-0.75-0.549-0.316zm-2.371 6.5v1c0 0.83 0.669 1.5 1.5 1.5h1.5l2.5 2 2.504-2h1.5c0.83 0 1.5-0.67 1.5-1.5v-1c0 0.83-0.67 1.5-1.5 1.5h-1.5l-2.504 2-2.5-2h-1.5c-0.831 0-1.5-0.67-1.5-1.5z" fill="#fff" opacity=".2"/>
 <path id="path31" d="m4.5 1a3.5 3.5 0 0 0-3.5 3.5 3.5 3.5 0 0 0 0.039 0.494 3.5 3.5 0 0 1 2.961-2.953v-0.041h0.5 0.5v0.039a3.5 3.5 0 0 1 2.961 2.967 3.5 3.5 0 0 0 0.039-0.506 3.5 3.5 0 0 0-3.5-3.5zm-1.984 2.934-0.432 0.75 0.549 0.316 0.865-0.5-0.982-0.566zm3.968 0-0.982 0.566 0.865 0.5 0.549-0.316-0.432-0.75zm2.483 0.068a4.5 4.5 0 0 1 0.029 0.498 4.5 4.5 0 0 1-0.029 0.502h4.533c0.83 0 1.5 0.669 1.5 1.5v-1c0-0.831-0.67-1.5-1.5-1.5h-4.533zm0 1a4.5 4.5 0 0 1-4.457 3.998 3.5 3.5 0 0 1-0.01 0 4.5 4.5 0 0 1-4e-3 0 4.5 4.5 0 0 1-6e-3 0 3.5 3.5 0 0 1-0.306-0.016 4.5 4.5 0 0 1-0.188-0.013v1a4.5 4.5 0 0 0 0.5 0.029 4.5 4.5 0 0 0 4.5-4.5 4.5 4.5 0 0 0-0.029-0.498zm-4.967 0.365-1.416 0.817-0.068-0.118-0.432 0.25 0.5 0.868 1.416-0.817v-1zm1 0v1l1.416 0.817 0.5-0.868-0.432-0.25-0.068 0.118-1.416-0.817zm-1 1.633v0.961a3.5 3.5 0 0 0 0.5 0.039 3.5 3.5 0 0 0 0.5-0.041v-0.959h-1z" opacity=".3"/>
</svg>
