<?xml version="1.0" encoding="UTF-8"?>
<svg id="svg36" width="16" height="16" version="1.1" xmlns="http://www.w3.org/2000/svg" xmlns:cc="http://creativecommons.org/ns#" xmlns:dc="http://purl.org/dc/elements/1.1/" xmlns:rdf="http://www.w3.org/1999/02/22-rdf-syntax-ns#">
 <metadata id="metadata40">
  <rdf:RDF>
   <cc:Work rdf:about="">
    <dc:format>image/svg+xml</dc:format>
    <dc:type rdf:resource="http://purl.org/dc/dcmitype/StillImage"/>
   </cc:Work>
  </rdf:RDF>
 </metadata>
 <defs id="defs7">
  <radialGradient id="gr0" cx="9" cy="10" r="11" gradientTransform="matrix(1 0 0 .72727 0 2.7273)" gradientUnits="userSpaceOnUse">
   <stop id="stop2" stop-opacity=".23529" offset="0"/>
   <stop id="stop4" stop-opacity=".54902" offset="1"/>
  </radialGradient>
 </defs>
 <path id="path9" d="m8.004 0.005859c-2.977-0.075599-5.412 2.7011-4.942 5.6441 0.061 1.004 0.56 1.766 0.995 2.323 0.425 0.545 0.752 0.95 0.902 1.316 0.06 0.473 0.019 1.041 0.039 1.741a1 1 0 0 0 0.137 0.47 1 1 0 0 0-0.137 0.5v1a1 1 0 0 0 1 1v1a1 1 0 0 0 1 1h2a1 1 0 0 0 1-1v-1a1 1 0 0 0 1.002-1v-1a1 1 0 0 0-0.13-0.5 1 1 0 0 0 0.13-0.46c0-0.77 0-1.365 0.1-1.819 0.2-0.378 0.54-0.791 0.95-1.334 0.43-0.566 0.89-1.33 0.94-2.305 0.41-2.926-1.99-5.6286-4.947-5.5761h-0.039zm-4e-3 0.99414h8e-3c2.332-0.0558 4.312 2.173 3.972 4.482-0.05 1.444-1.34 2.227-1.88 3.409-0.175 0.69-0.106 1.409-0.106 2.109h-4c-0.01-0.66 0.053-1.328-0.049-1.982-0.451-1.259-1.852-2.006-1.902-3.481-0.401-2.304 1.623-4.611 3.957-4.537zm0 2c-1.333-0.035-2.35 1.387-1.895 2.635 0.56 1.175 1.895 1.866 1.895 3.365 0.068-1.432 1.415-2.236 1.91-3.408 0.43-1.223-0.614-2.642-1.91-2.592zm-0.027 1h2e-3a1 1 0 0 0 0.058 0c0.542-0.02 1.091 0.722 0.928 1.238-0.157 0.348-0.517 0.772-0.936 1.311-0.428-0.534-0.79-0.931-0.976-1.289-0.178-0.564 0.325-1.276 0.924-1.26zm-1.973 8h4v1h-4v-1zm1 2h2v1h-2v-1z" fill="#fff" opacity=".05"/>
 <path id="base" d="m8 1c-2.3343-0.07384-4.3577 2.233-3.957 4.5371 0.053901 1.4747 1.4512 2.2214 1.9019 3.4796 0.10191 0.6547 0.036716 1.3223 0.055146 1.9833h4c0.025-0.70375-0.067991-1.4199 0.0901-2.1105 0.54387-1.1815 1.8251-1.9639 1.8767-3.4071 0.34526-2.3091-1.6338-4.5382-3.9668-4.4824zm0 2c1.2964-0.049349 2.3407 1.3679 1.9095 2.5909-0.49487 1.1725-1.8411 1.9769-1.9095 3.4091 0.0074126-1.4993-1.3347-2.1912-1.8954-3.3657-0.4549-1.2482 0.56253-2.6688 1.8954-2.6343zm-2 9v1h4v-1zm1 2v1h2v-1z" fill="url(#gr0)"/>
 <path id="path17" d="m8 1c-2.334-0.074-4.358 2.233-3.957 4.537 0.05 1.475 1.451 2.222 1.902 3.481 0.102 0.654 0.039 1.322 0.049 1.982h4c0-0.7-0.069-1.419 0.106-2.109 0.54-1.182 1.83-1.965 1.88-3.409 0.34-2.309-1.64-4.5378-3.972-4.482h-8e-3zm-0.029 0.494a0.5 0.5 0 0 0 0.019 0 0.5 0.5 0 0 0 0.01 0c2.01-0.048 3.76 1.922 3.46 3.908a0.5 0.5 0 0 0 0 0.061c-0.02 0.577-0.28 1.021-0.66 1.516-0.37 0.496-0.859 1.011-1.175 1.699a0.5 0.5 0 0 0-0.029 0.099c-0.14 0.63-0.09 1.183-0.08 1.723h-3.037c0-0.5 0.039-0.998-0.051-1.561a0.5 0.5 0 0 0-0.02-0.089c-0.27-0.754-0.78-1.291-1.176-1.797-0.395-0.507-0.677-0.95-0.697-1.532a0.5 0.5 0 0 0 0-0.07c-0.342-1.968 1.453-4.011 3.449-3.951l-0.013-6e-3zm0.023 1.01 0.01 4e-3c-1.686-0.032-2.94 1.718-2.363 3.301a0.5 0.5 0 0 0 0.019 0.039c0.331 0.692 0.842 1.183 1.221 1.658s0.625 0.89 0.625 1.49a0.5002 0.5002 0 0 0 1 0.029c0.027-0.564 0.303-1.015 0.691-1.517s0.893-1.023 1.183-1.721a0.5 0.5 0 0 0 0-0.029c0.55-1.57-0.725-3.304-2.386-3.254zm6e-3 0.496c1.296-0.05 2.34 1.369 1.91 2.592-0.495 1.172-1.842 1.976-1.91 3.408 0-1.499-1.335-2.19-1.895-3.365-0.455-1.248 0.562-2.67 1.895-2.635zm-2 9v1h4v-1h-4zm1 2v1h2v-1h-2z" opacity=".3"/>
 <path id="path24" d="m8 3c-1.287-0.034-2.266 1.289-1.924 2.504 0.23-0.84 0.994-1.528 1.924-1.504 0.916-0.035 1.693 0.666 1.926 1.51 0.354-1.204-0.659-2.559-1.926-2.51zm-3.961 2.492c-0.044 0.344-0.057 0.693 4e-3 1.045 0.05 1.475 1.451 2.221 1.902 3.483 0.044 0.28 0.049 0.56 0.051 0.84-1e-3 -0.61 0.044-1.233-0.051-1.842-0.451-1.259-1.852-2.006-1.902-3.481-3e-3 -0.015-2e-3 -0.03-4e-3 -0.045zm7.941 0.014c-0.07 1.428-1.34 2.209-1.88 3.385-0.156 0.613-0.118 1.249-0.108 1.879 8e-3 -0.3 0.038-0.59 0.108-0.879 0.54-1.182 1.83-1.965 1.88-3.409 0.05-0.33 0.04-0.656 0-0.976zm-5.976 5.494c-1e-3 0.33-0.015 0.67-0.01 1h6e-3 3.994c0-0.33-0.014-0.67-0.012-1h-3.978zm-4e-3 2v1h1 2 1v-1h-4zm1 2v1h2v-1h-2z" fill="#fff" opacity=".2"/>
 <path id="path31" d="m8 1c-2.319-0.0735-4.328 2.203-3.961 4.492 0.247-1.904 1.984-3.551 3.961-3.492h6e-3c2.004-0.048 3.724 1.585 3.974 3.506v-0.024c0.34-2.309-1.64-4.5378-3.974-4.482h-6e-3zm-1.924 4.502c-0.1 0.364-0.108 0.755 0.029 1.133 0.56 1.175 1.895 1.866 1.895 3.365 0.068-1.432 1.415-2.236 1.91-3.408 0.13-0.359 0.11-0.732 0.016-1.082-8e-3 0.027-6e-3 0.055-0.016 0.082-0.495 1.172-1.842 1.976-1.91 3.408 0-1.499-1.335-2.19-1.895-3.365-0.015-0.044-0.016-0.089-0.029-0.133zm3.916 5.268c-3e-3 0.07-9e-3 0.15-0.01 0.23h0.012c0-0.08-1e-3 -0.16-2e-3 -0.23zm-3.996 0.09c0 0.05-3e-3 0.09-2e-3 0.14h0.01c0-0.05-8e-3 -0.09-8e-3 -0.14zm4e-3 1.14v1h4v-1h-6e-3 -3.994zm1 2v1h2v-1h-2z" opacity=".3"/>
</svg>
