<?xml version="1.0" encoding="UTF-8"?>
<svg id="svg36" width="16" height="16" version="1.1" xmlns="http://www.w3.org/2000/svg" xmlns:cc="http://creativecommons.org/ns#" xmlns:dc="http://purl.org/dc/elements/1.1/" xmlns:rdf="http://www.w3.org/1999/02/22-rdf-syntax-ns#">
 <metadata id="metadata40">
  <rdf:RDF>
   <cc:Work rdf:about="">
    <dc:format>image/svg+xml</dc:format>
    <dc:type rdf:resource="http://purl.org/dc/dcmitype/StillImage"/>
   </cc:Work>
  </rdf:RDF>
 </metadata>
 <defs id="defs7">
  <radialGradient id="gr0" cx="9" cy="10" r="11" gradientTransform="matrix(1 0 0 .45454 0 5.4546)" gradientUnits="userSpaceOnUse">
   <stop id="stop2" stop-opacity=".23529" offset="0"/>
   <stop id="stop4" stop-opacity=".54902" offset="1"/>
  </radialGradient>
 </defs>
 <path id="path9" d="m11.26 2.98c-0.18 1e-3 -0.23 0.01-0.29 0.02h-1.308c-0.284 0-0.627 0.03-0.951 0.324-0.324 0.291-0.381 0.759-0.381 0.865v0.122c-0.02 0.201 0.119 0.383 0.219 0.57h-1.291l-0.039-0.643c0-0.44-0.208-0.703-0.405-0.881-0.198-0.177-0.433-0.32-0.816-0.32h-4.67c-0.372 0-0.7027 0.2-0.8866 0.416s-0.2725 0.452-0.291 0.717l-0.14454 1.828c-0.067119 0.737 0.47524 1.301 1.1951 1.285h0.143c0.37 0 0.648-0.161 0.834-0.342 0.02-0.02 0.019-0.078 0.049-0.099v1.81 0.071c-0.253 0.07-0.521 0.149-0.655 0.312-0.182 0.223-0.269 0.455-0.269 0.754v0.199c0 0.212 0.039 0.492 0.261 0.772 0.222 0.27 0.623 0.42 0.907 0.42h2.099c-0.06 0.14-0.187 0.23-0.187 0.4v0.2c0 0.65 0.544 1.2 1.199 1.2h4.236c0.402 0 0.892-0.35 1.032-0.62 0.15-0.28 0.14-0.46 0.14-0.46l0.1-0.74h-0.18c0.36 0 0.64-0.15 0.84-0.35 0.13-0.13 0.18-0.35 0.24-0.55 0 0.14-0.1 0.22 0.15 0.47 0.32 0.39 0.73 0.42 0.97 0.41h1.65c0.1 0 0.27 0.1 0.67-0.15 0.2-0.12 0.39-0.34 0.47-0.53 0.1-0.19 0.1-0.34 0.11-0.45a1 1 0 0 0 0-0.061v-0.211c0-0.416-0.25-0.765-0.5-0.939-0.18-0.129-0.39-0.142-0.6-0.158-0.43-0.665-0.8-1.24-1.21-1.858l0.75-1.131s-0.1-0.038 0.1-0.048h-0.1c0.29 0 0.66-0.109 0.92-0.393 0.25-0.285 0.33-0.687 0.29-0.988v-0.047c0-0.449-0.4-0.924-0.71-1.057-0.26-0.106-0.46-0.11-0.65-0.099h-1.31c-0.36 0-0.64 0.15-0.84 0.339 0 0.04 0 0.131-0.1 0.176-0.1-0.137-0.12-0.331-0.23-0.394-0.26-0.142-0.42-0.155-0.56-0.161zm-0.02 0.997c0.09 3e-3 0.19 0.034 0.19 0.134 0.04 0.27 0.02 0.34-0.1 0.44-0.22 0-0.22 0.099-0.22 0.099 0.29 0.46 1.05 1.614 1.05 1.614l0.9-1.364c0.25-0.39-0.25-0.15-0.25-0.49v-0.209c0-0.08 0.09-0.18 0.2-0.18h1.31c0.22-0.03 0.36 0.033 0.36 0.153v0.197c0.02 0.13-0.06 0.233-0.22 0.233-0.51 0.03-0.59 0.187-0.76 0.337l-1.21 1.84c0.58 0.87 1 1.54 1.58 2.42 0.19 0.279 0.25 0.379 0.42 0.379h0.29c0.11-0.01 0.22 0.06 0.22 0.16v0.211c-0.01 0.189-0.09 0.189-0.25 0.189h-1.65c-0.22 0.01-0.22-0.07-0.22-0.189v-0.211c0-0.228 0.24-0.126 0.34-0.226-0.62-0.95-1.27-1.961-1.27-1.961s-0.37 0.568-0.71 1.095v0.04c0-3e-3 -0.01-7e-3 -0.02-0.01-0.1 0.153-0.09 0.142-0.2 0.312-0.11 0.2-0.45 0.58-0.11 0.58 0.07 0.01 0.19 0.101 0.19 0.201v0.202c0 0.087-0.09 0.187-0.2 0.187h-0.69l-0.22 1.61c-0.01 0.07-0.023 0.22-0.178 0.22h-4.236c-0.109 0-0.199-0.09-0.199-0.2v-0.2c0-0.09 0.083-0.19 0.242-0.19h0.42c0-1.548-0.01-3.21-0.01-4.91h-0.435c-0.11 0-0.211-0.087-0.211-0.197v-0.232c0-0.089 0.102-0.19 0.211-0.19h0.185c-0.06-0.52-0.094-0.85-0.224-1-0.07-0.07-0.147-0.151-0.323-0.191-0.372-0.08-0.726-0.08-1.087-0.08 0 1.64-0.02 3.27 0 4.91 0.233 0.101 0.338 0.099 0.644 0.099 0.146-0.04 0.277 0.092 0.277 0.192v0.199c0 0.09-0.072 0.19-0.287 0.19h-2.314c-0.118 0-0.168-0.08-0.168-0.19v-0.199c0-0.08 0.061-0.182 0.166-0.182 0.305-0.101 0.343 1e-3 0.758-0.099v-4.913c-0.416 0-0.724 4e-3 -1.135 0.104-0.16 0.03-0.226 0.097-0.326 0.197-0.113 0.18-0.153 0.529-0.223 1.199-7e-3 0.08-0.094 0.18-0.199 0.18h-0.141c-0.109 0.01-0.209-0.087-0.199-0.197l0.147-1.852c7e-3 -0.1 0.077-0.201 0.181-0.201h4.67c0.1 0 0.219 0.101 0.219 0.201l0.111 1.643h3.328c0.1 0 0.203 0.08 0.213 0.18l0.193 1.859c0.01 0.11-0.086 0.211-0.203 0.211h-0.15c-0.099 0-0.179-0.07-0.189-0.17-0.06-0.55-0.114-0.901-0.274-1.111-0.127-0.24-0.378-0.352-1.033-0.352h-1.25v2.039c0.356 0 0.725 0 0.996-0.099 0.165-0.031 0.235-0.331 0.215-0.741 0-0.089 0.084-0.187 0.189-0.187h0.131c0.113 0 0.203 0.087 0.203 0.187v2.211c-2e-3 0.08-0.091 0.182-0.199 0.182h-0.131c-0.099 0-0.189-0.08-0.189-0.182 0-0.35-0.02-0.528-0.09-0.648-0.162-0.17-0.257-0.17-0.566-0.17h-0.561v2.32h1.27c0.62 0 0.919-0.13 1.099-0.36 0.16-0.19 0.22-0.51 0.32-0.91h-0.218c-0.11 0.01-0.211-0.08-0.211-0.193v-0.199c0-0.089 0.092-0.187 0.201-0.187 0.14 0 0.557-4e-3 0.86-0.454l1.34-2.046-1.49-2.291c-0.06-0.1-0.07-0.11-0.181-0.17h-0.437c-0.104 0-0.194-0.079-0.184-0.209v-0.203c0-0.071 0.016-0.19 0.332-0.19h1.33c0.04 0 0.15-0.019 0.25-0.019v-2e-3zm-6.67 4.66 0.01 0.019c-0.02 0-0.04-0.02-0.06-0.01l0.05-9e-3z" fill="#fff" opacity=".05"/>
 <path id="base" d="m9.66 4c-0.316 0-0.331 0.12-0.331 0.19v0.2c-0.01 0.13 0.08 0.21 0.182 0.21h0.438c0.109 0.06 0.119 0.07 0.179 0.17l1.49 2.29-1.34 2.05c-0.299 0.45-0.719 0.45-0.859 0.45-0.109 0-0.2 0.1-0.2 0.19v0.2c0 0.11 0.1 0.2 0.21 0.19h0.22c-0.1 0.4-0.16 0.72-0.32 0.91-0.18 0.23-0.48 0.36-1.1 0.36h-1.27v-2.32h0.56c0.309 0 0.405 0 0.567 0.17 0.07 0.12 0.09 0.3 0.09 0.65 0 0.1 0.09 0.18 0.19 0.18h0.13c0.108 0 0.198-0.1 0.2-0.18v-2.21c0-0.1-0.09-0.19-0.204-0.19h-0.13c-0.105 0-0.19 0.1-0.19 0.19 0.02 0.41-0.05 0.71-0.214 0.74-0.271 0.1-0.641 0.1-0.997 0.1v-2.04h1.25c0.655 0 0.906 0.11 1.033 0.35 0.16 0.21 0.213 0.56 0.273 1.11 0.01 0.1 0.09 0.17 0.19 0.17h0.15c0.117 0 0.211-0.1 0.201-0.21l-0.19-1.86c-0.01-0.1-0.114-0.18-0.214-0.18h-3.328l-0.112-1.64c0-0.1-0.117-0.2-0.217-0.2h-4.67c-0.104 0-0.176 0.1-0.183 0.2l-0.1465 1.85c-0.01 0.11 0.091 0.21 0.2005 0.2h0.14c0.105 0 0.193-0.1 0.2-0.18 0.07-0.67 0.109-1.02 0.222-1.2 0.1-0.1 0.165-0.17 0.325-0.2 0.411-0.1 0.719-0.1 1.135-0.1v4.91c-0.415 0.1-0.452 0-0.757 0.1-0.105 0-0.167 0.1-0.167 0.18v0.2c0 0.11 0.05 0.19 0.169 0.19h2.315c0.215 0 0.286-0.1 0.286-0.19v-0.2c0-0.1-0.13-0.23-0.276-0.19-0.306 0-0.413 0-0.646-0.1-0.02-1.64 0-3.27 0-4.91 0.361 0 0.716 0 1.088 0.08 0.176 0.04 0.252 0.123 0.322 0.193 0.13 0.15 0.165 0.48 0.225 1h-0.185c-0.109 0-0.211 0.1-0.211 0.19v0.23c0 0.11 0.101 0.2 0.211 0.2h0.436c0 1.7 0.01 3.36 0.01 4.907h-0.421c-0.159 0-0.243 0.1-0.243 0.19v0.2c0 0.11 0.09 0.2 0.2 0.2h4.236c0.155 0 0.168-0.15 0.178-0.22l0.218-1.61h0.69c0.11 0 0.2-0.1 0.2-0.187v-0.2c0-0.1-0.12-0.19-0.19-0.2-0.34 0 0-0.38 0.11-0.58 0.51-0.78 0.93-1.44 0.93-1.44s0.65 1.01 1.27 1.96c-0.1 0.1-0.34 0-0.34 0.23v0.21c0 0.117 0 0.197 0.22 0.187h1.65c0.16 0 0.24 0 0.25-0.187v-0.21c0-0.1-0.11-0.17-0.22-0.16h-0.29c-0.17 0-0.23-0.1-0.42-0.38-0.58-0.88-1-1.55-1.58-2.42l1.21-1.84c0.17-0.15 0.25-0.31 0.76-0.34 0.16 0 0.24-0.1 0.22-0.23v-0.2c0-0.12-0.14-0.18-0.36-0.15h-1.31c-0.11 0-0.2 0.1-0.2 0.18v0.21c0 0.34 0.5 0.1 0.25 0.49l-0.9 1.36s-0.76-1.15-1.05-1.61c0 0 0-0.1 0.22-0.1 0.12-0.1 0.14-0.17 0.1-0.44 0-0.2-0.37-0.12-0.44-0.11z" fill="url(#gr0)"/>
 <path id="path17" d="m11.24 3.977v2e-3c-0.1 0-0.21 0.019-0.25 0.019h-1.33c-0.316 0-0.332 0.119-0.332 0.19v0.203c-0.01 0.13 0.08 0.209 0.184 0.209h0.437c0.111 0.06 0.121 0.07 0.181 0.17l1.49 2.291-1.34 2.046c-0.303 0.45-0.72 0.454-0.86 0.454-0.109 0-0.201 0.098-0.201 0.187v0.199c0 0.113 0.101 0.203 0.211 0.193h0.218c-0.1 0.4-0.16 0.72-0.32 0.91-0.18 0.23-0.479 0.36-1.099 0.36h-1.27v-2.32h0.561c0.309 0 0.404 0 0.566 0.17 0.07 0.12 0.09 0.298 0.09 0.648 0 0.102 0.09 0.182 0.189 0.182h0.131c0.108 0 0.197-0.102 0.199-0.182v-2.211c0-0.1-0.09-0.187-0.203-0.187h-0.131c-0.105 0-0.189 0.098-0.189 0.187 0.02 0.41-0.05 0.71-0.215 0.741-0.271 0.099-0.64 0.099-0.996 0.099v-2.039h1.25c0.655 0 0.906 0.112 1.033 0.352 0.16 0.21 0.214 0.561 0.274 1.111 0.01 0.1 0.09 0.17 0.189 0.17h0.15c0.117 0 0.213-0.101 0.203-0.211l-0.193-1.859c-0.01-0.1-0.113-0.18-0.213-0.18h-3.328l-0.111-1.643c0-0.1-0.119-0.201-0.219-0.201h-4.67c-0.104 0-0.174 0.101-0.181 0.201l-0.147 1.852c-0.01 0.11 0.09 0.207 0.199 0.197h0.141c0.105 0 0.192-0.1 0.199-0.18 0.07-0.67 0.11-1.019 0.223-1.199 0.1-0.1 0.166-0.167 0.326-0.197 0.411-0.1 0.719-0.104 1.135-0.104v4.913c-0.415 0.1-0.453-2e-3 -0.758 0.099-0.105 0-0.166 0.102-0.166 0.182v0.199c0 0.11 0.05 0.19 0.168 0.19h2.314c0.215 0 0.287-0.1 0.287-0.19v-0.199c0-0.1-0.131-0.232-0.277-0.192-0.306 0-0.411 2e-3 -0.644-0.099-0.02-1.64 0-3.27 0-4.91 0.361 0 0.715 0 1.087 0.08 0.176 0.04 0.253 0.121 0.323 0.191 0.13 0.15 0.164 0.48 0.224 1h-0.185c-0.109 0-0.211 0.101-0.211 0.19v0.232c0 0.11 0.101 0.197 0.211 0.197h0.435c0 1.7 0.01 3.362 0.01 4.91h-0.42c-0.159 0-0.242 0.1-0.242 0.19v0.2c0 0.11 0.09 0.2 0.199 0.2h4.236c0.155 0 0.168-0.15 0.178-0.22l0.22-1.61h0.69c0.11 0 0.2-0.1 0.2-0.187v-0.202c0-0.1-0.12-0.191-0.19-0.201-0.34 0 0-0.38 0.11-0.58 0.51-0.78 0.93-1.437 0.93-1.437s0.65 1.011 1.27 1.961c-0.1 0.1-0.34-2e-3 -0.34 0.226v0.211c0 0.119 0 0.199 0.22 0.189h1.65c0.16 0 0.24 0 0.25-0.189v-0.211c0-0.1-0.11-0.17-0.22-0.16h-0.29c-0.17 0-0.23-0.1-0.42-0.379-0.58-0.88-1-1.55-1.58-2.42l1.21-1.84c0.17-0.15 0.25-0.307 0.76-0.337 0.16 0 0.24-0.103 0.22-0.233v-0.197c0-0.12-0.14-0.183-0.36-0.153h-1.31c-0.11 0-0.2 0.1-0.2 0.18v0.209c0 0.34 0.5 0.1 0.25 0.49l-0.9 1.364s-0.76-1.154-1.05-1.614c0 0 0-0.099 0.22-0.099 0.12-0.1 0.14-0.17 0.1-0.44 0-0.1-0.1-0.131-0.19-0.134zm-0.7 0.521h0.1v0.104l-0.1-0.09v-0.01-4e-3zm-0.897 2.049 0.041 0.07c0-0.01-0.022-0.019-0.022-0.019-0.01-0.01-9e-3 -0.031-0.019-0.051zm-3.11 2.252a0.5 0.5 0 0 0 0.01 0.019 0.5 0.5 0 0 0-0.01 0.01v-0.029zm1.547 0.109h0.051l-0.08 0.02c0.01 0 0.019-0.02 0.029-0.02zm5.63 0.658c0.1 0.02 0.1 0.041 0.1 0.071h-0.1a0.5 0.5 0 0 0 0-0.071z" opacity=".3"/>
 <path id="path24" d="m9.66 4.998c-0.316 0-0.332 0.119-0.332 0.19v0.203c-0.01 0.13 0.08 0.209 0.184 0.209h0.437c0.111 0.06 0.121 0.07 0.181 0.17l1.16 1.789 0.33-0.498-1.34-2.063h-0.62zm1.68 2e-3c0.04 0.06 0.05 0.081 0.09 0.145v-0.034c0-0.062-0.04-0.092-0.09-0.111zm2.31 0.021-1.16 1.76c0.12 0.181 0.22 0.335 0.33 0.502l0.88-1.342c0.17-0.15 0.25-0.307 0.76-0.337 0.16 0 0.24-0.103 0.22-0.233v-0.197c0-0.12-0.14-0.183-0.36-0.153h-0.67zm-11.929 0.016c-0.079 0.2-0.125 0.504-0.184 1.07-7e-3 0.08-0.094 0.18-0.199 0.18h-0.141c-0.05 5e-3 -0.096-0.017-0.133-0.049l-0.066 0.852c-0.01 0.11 0.09 0.207 0.199 0.197h0.141c0.105 0 0.192-0.1 0.199-0.18 0.07-0.67 0.11-1.019 0.223-1.199 0.1-0.1 0.166-0.167 0.326-0.197 0.411-0.1 0.719-0.104 1.135-0.104v-0.57h-1.5zm2.424 0c-1e-3 0.188 0 0.375 0 0.563 0.361 0 0.715 0 1.087 0.08 0.176 0.04 0.253 0.121 0.323 0.191 3e-3 4e-3 5e-3 0.01 7e-3 0.014 0.012-2e-3 0.02-0.014 0.032-0.014h0.185c-0.043-0.378-0.073-0.653-0.136-0.834h-1.498zm8.825 2e-3c-0.09 0.023-0.16 0.094-0.16 0.162v0.078l0.16-0.24zm-7.241 1.451c0.016 0.122 0.032 0.226 0.05 0.381h-0.185c-0.109 0-0.211 0.101-0.211 0.19v0.232c0 0.11 0.101 0.197 0.211 0.197h0.435c0 1.354 6e-3 2.64 8e-3 3.91h2e-3c0-1.548-0.01-3.21-0.01-4.91h-0.3zm1.232 0.391v0.617h1.25c0.089 0 0.154 8e-3 0.228 0.012h0.053c3e-3 0 5e-3 4e-3 8e-3 4e-3 0.434 0.032 0.639 0.137 0.744 0.336 0.16 0.21 0.214 0.561 0.274 1.111 0.01 0.1 0.09 0.17 0.189 0.17h0.15c0.117 0 0.213-0.101 0.203-0.211l-0.087-0.84c-0.035 0.025-0.07 0.051-0.116 0.051h-0.15c-0.099 0-0.179-0.07-0.189-0.17-0.058-0.527-0.112-0.867-0.256-1.08h-2.301zm4.989 0.672s-0.42 0.657-0.93 1.437c-0.11 0.2-0.45 0.58-0.11 0.58 0.07 0.01 0.19 0.101 0.19 0.201v0.096c0.45-0.69 0.85-1.314 0.85-1.314s0.5 0.777 0.94 1.447c0-0.016-0.01-0.028-0.01-0.049v-0.211c0-0.228 0.24-0.126 0.34-0.226-0.62-0.95-1.27-1.961-1.27-1.961zm-4.991 1.537v1h0.561c0.309 0 0.404 0 0.566 0.17 0.07 0.12 0.09 0.3 0.09 0.65 0 0.1 0.09 0.18 0.189 0.18h0.131c0.108 0 0.197-0.1 0.199-0.18v-1.002c-2e-3 0.08-0.091 0.182-0.199 0.182h-0.131c-0.099 0-0.189-0.08-0.189-0.182 0-0.324-0.022-0.493-0.08-0.613-0.035 0.075-0.079 0.132-0.139 0.143-0.271 0.099-0.64 0.099-0.996 0.099v-0.447h-2e-3zm6.001 1.02c0.12 0.19 0.13 0.2 0.26 0.4-0.1 0.1-0.34 0-0.34 0.23v0.21c0 0.12 0 0.2 0.22 0.19h1.65c0.16 0 0.24 0 0.25-0.19v-0.21c0-0.1-0.11-0.17-0.22-0.16h-0.29c-0.17 0-0.23-0.1-0.42-0.38-0.01-0.02-0.02-0.04-0.04-0.06h-0.93c-0.08 0-0.11-0.02-0.14-0.03zm-2.04 0.04c-0.01 0-0.01 0.01-0.02 0.01h-0.67c-0.01 0.01-0.01 0.02-0.02 0.03l-0.22 1.58c-0.01 0.07-0.023 0.22-0.178 0.22h-0.455c-0.011 0.02-0.016 0.05-0.029 0.06-0.18 0.23-0.479 0.36-1.099 0.36h-1.27v-0.42h-0.92v0.41h-0.42c-0.159 0-0.242 0.1-0.242 0.19v0.2c0 0.11 0.09 0.2 0.199 0.2h4.236c0.155 0 0.168-0.15 0.178-0.22l0.22-1.61h0.69c0.11 0 0.2-0.1 0.2-0.19v-0.2c0-0.1-0.12-0.19-0.19-0.2-0.27 0-0.12-0.22 0.01-0.42zm-7.699 0.04v0.33c-0.415 0.1-0.453 0-0.758 0.1-0.105 0-0.166 0.1-0.166 0.18v0.2c0 0.11 0.05 0.19 0.168 0.19h2.314c0.215 0 0.287-0.1 0.287-0.19v-0.2c0-0.1-0.131-0.23-0.277-0.19-0.306 0-0.411 0-0.644-0.1-2e-3 -0.11 1e-3 -0.21 0-0.32h-0.924zm6.324 0.35c-0.038 0-0.101 0.02-0.125 0.02-0.109 0-0.201 0.1-0.201 0.19v0.2c0 0.06 0.026 0.11 0.066 0.14 0.013-0.01 0.031-0.02 0.043-0.04 0.1-0.12 0.161-0.3 0.217-0.51z" fill="#fff" opacity=".2"/>
 <path id="path31" d="m11.24 3.979c-0.1-4e-3 -0.21 0.02-0.25 0.025l-1.33-4e-3c-0.316 0-0.332 0.119-0.332 0.189v0.202c-0.01 0.13 0.082 0.209 0.184 0.209h0.437c0.111 0.06 0.121 0.07 0.181 0.17l0.15 0.232 0.71 2e-3c0.05-7e-3 0.23-0.043 0.35-2e-3 -0.1-0.146-0.17-0.25-0.23-0.35 0 0 0-0.099 0.22-0.099 0.12-0.1 0.14-0.17 0.1-0.44 0-0.1-0.09-0.131-0.19-0.134zm1.77 0.044c-0.11 0-0.2 0.1-0.2 0.18v0.209c0 0.34 0.5 0.1 0.25 0.49l-0.09 0.139c0.01-4e-3 0.02-0.018 0.04-0.018h0.64l0.05-0.08c0.17-0.15 0.25-0.309 0.76-0.339 0.16 0 0.24-0.101 0.22-0.231v-0.199c0-0.12-0.14-0.181-0.36-0.151h-1.31zm-11.684 0.016c-0.104 0-0.174 0.101-0.181 0.201l-0.147 1.85c-0.0054 0.059 0.023 0.11 0.066 0.148l0.081-0.998c7e-3 -0.1 0.077-0.201 0.181-0.201h0.395c0.014-0.037 0.021-0.101 0.039-0.129 0.1-0.1 0.166-0.169 0.326-0.199 0.411-0.1 0.719-0.102 1.135-0.102v0.43h0.924v-0.439c0.361 0 0.715 0 1.087 0.08 0.176 0.04 0.253 0.123 0.323 0.193 0.035 0.041 0.062 0.098 0.086 0.166h0.355c0.1 0 0.219 0.101 0.219 0.201l0.111 1.641h0.635v-0.381h1.25c0.655 0 0.906 0.11 1.033 0.35 7e-3 9e-3 0.011 0.021 0.018 0.031h0.392c0.1 0 0.203 0.08 0.213 0.18l0.106 1.019c0.057-0.039 0.097-0.093 0.087-0.16l-0.193-1.859c-0.01-0.1-0.113-0.18-0.213-0.18h-3.328l-0.111-1.641c0-0.1-0.119-0.201-0.219-0.201h-4.67zm10.104 1.106c0.03 0.234 0.01 0.313-0.1 0.408-0.22 0-0.22 0.099-0.22 0.099 0.29 0.46 1.05 1.612 1.05 1.612l0.9-1.362c0.25-0.39-0.25-0.15-0.25-0.49v-0.131l-0.65 0.983s-0.41-0.627-0.73-1.119zm-5.868 0.742c-0.094 0.018-0.179 0.095-0.179 0.175v0.231c0 0.11 0.101 0.199 0.211 0.199h0.135c-0.038-0.276-0.081-0.498-0.167-0.605zm7.258 1.398-0.33 0.498c0.57 0.849 0.98 1.512 1.54 2.357h0.72c0.16 0 0.24 0 0.25-0.187v-0.211c0-0.1-0.11-0.17-0.22-0.16h-0.29c-0.17 0-0.23-0.099-0.42-0.379-0.46-0.697-0.83-1.28-1.25-1.918zm-4.459 0.225c-0.105 0-0.189 0.099-0.189 0.189 0.02 0.41-0.051 0.71-0.215 0.74-0.271 0.1-0.64 0.1-0.996 0.1v0.551h0.559c0.309 0 0.404 0 0.566 0.17 5e-3 9e-3 7e-3 0.025 0.012 0.035 0.06-0.131 0.086-0.337 0.074-0.596 0-0.09 0.084-0.189 0.189-0.189h0.131c0.114 0 0.203 0.089 0.203 0.189v-1c0-0.095-0.083-0.175-0.189-0.183-0.032-3e-3 -0.069-5e-3 -0.104-6e-3h-0.041zm2.929 0.049-1.01 1.55c-0.302 0.45-0.72 0.452-0.86 0.452-0.109 0-0.201 0.099-0.201 0.189v0.199c0 0.111 0.101 0.201 0.211 0.191h0.218c-0.037 0.15-0.069 0.28-0.103 0.4 0.169-0.01 0.423-0.06 0.665-0.35v-0.03h0.02l0.05-0.05 1.34-2.049-0.33-0.502zm-7.145 1.951c0 0.226-3e-3 0.453 0 0.68h0.634c0.215 0 0.287-0.1 0.287-0.19v-0.199c0-0.1-0.131-0.232-0.277-0.192-0.306 0-0.411 1e-3 -0.644-0.099zm-0.924 0.01c-0.415 0.1-0.453-1e-3 -0.758 0.099-0.105 0-0.166 0.102-0.166 0.182v0.199c0 0.11 0.049 0.19 0.168 0.19h0.756v-0.67zm7.879 0.349c-0.04 0.065-0.04 0.056-0.08 0.123-0.02 0.048-0.06 0.108-0.1 0.158 0.1-0.01 0.18-0.1 0.18-0.177v-0.104zm1.79 0.131c0 0.05 0.03 0.08 0.07 0.11-0.03-0.05-0.04-0.06-0.07-0.11zm-3.605 1.09c-0.184 0.2-0.478 0.32-1.056 0.32h-1.27v0.58h2.398c0.134-0.19 0.199-0.48 0.291-0.85h-0.218c-0.054 0.01-0.106-0.01-0.145-0.05zm-3.666 0.31c-0.159 0-0.242 0.1-0.242 0.19v0.2c0 0.11 0.089 0.2 0.199 0.2h0.463c0-0.19-2e-3 -0.4-2e-3 -0.59h-0.418z" opacity=".3"/>
</svg>
