<?xml version="1.0" encoding="UTF-8"?>
<svg id="svg36" width="16" height="16" version="1.1" xmlns="http://www.w3.org/2000/svg" xmlns:cc="http://creativecommons.org/ns#" xmlns:dc="http://purl.org/dc/elements/1.1/" xmlns:rdf="http://www.w3.org/1999/02/22-rdf-syntax-ns#">
 <metadata id="metadata40">
  <rdf:RDF>
   <cc:Work rdf:about="">
    <dc:format>image/svg+xml</dc:format>
    <dc:type rdf:resource="http://purl.org/dc/dcmitype/StillImage"/>
   </cc:Work>
  </rdf:RDF>
 </metadata>
 <defs id="defs7">
  <radialGradient id="gr0" cx="9" cy="10" r="11" gradientTransform="matrix(1 0 0 .72727 0 2.7273)" gradientUnits="userSpaceOnUse">
   <stop id="stop2" stop-opacity=".23529" offset="0"/>
   <stop id="stop4" stop-opacity=".54902" offset="1"/>
  </radialGradient>
 </defs>
 <path id="path9" d="m7.953 0.007812c-0.391 0.005778-0.778 0.077118-1.141 0.24609-0.139 0.066-0.217 0.2634-0.349 0.3672a1 1 0 0 0-0.586 0.6169 1 1 0 0 0 0 0.02c-0.03 0.09-0.051 0.195-0.061 0.297l0.01-0.1-0.531 2.682a1 1 0 0 0 0.385 1c0.693 0.512 1.511 0.654 2.324 0.654s1.63-0.142 2.316-0.654a1 1 0 0 0 0.39-1l-0.54-2.686v0.127c0-0.112 0-0.223-0.1-0.326a1 1 0 0 0 0-0.01c-0.164-0.5164-0.554-0.8088-0.929-0.9842-0.377-0.17511-0.781-0.24965-1.186-0.24999h-2e-3zm0.041 0.97849a1.196 0.6713 0 0 1 1.176 0.5487 1.196 0.6713 0 0 1 0.019 0.09l0.538 2.686c-0.828 0.612-2.63 0.612-3.457 0l0.535-2.682a1.196 0.6713 0 0 1 0.019-0.08 1.196 0.6713 0 0 1 1.174-0.549l-4e-3 -0.0137zm-2.123 0.2697a1 1 0 0 0-0.029 0.139l0.029-0.139zm4.589 4.519v4e-3a1 1 0 0 0-0.4 0.08c-1.52 0.618-2.463 0.758-4.08 0.02l-0.214 0.982c1.736 0.738 3.082 0.563 4.674-0.082l0.55 2.203h0.91c0.24 0 0.45 0.149 0.55 0.377l1.5 4.791c0.17 0.41-0.12 0.85-0.55 0.85h-10.8c-0.428 0-0.718-0.44-0.553-0.85l1.5-4.793c0.093-0.228 0.311-0.377 0.553-0.377h0.906l0.365-1.441-0.775-0.998-0.367 1.447h-0.129c-0.653 0-1.237 0.406-1.479 0.998a1 1 0 0 0-0.029 0.08l-1.481 4.734c-0.3825 1.01 0.382 2.18 1.489 2.18h10.8c1.12 0 1.9-1.21 1.48-2.23v0.1l-1.5-4.791a1 1 0 0 0 0-0.08c-0.24-0.593-0.83-1-1.48-1h-0.13l-0.36-1.448a1 1 0 0 0-0.95-0.756zm0.62 3.496c-2.611 1.619-5.538 0.467-6.184 0.081l-0.47 1.348c-0.073 0.26 0.019 0.53 0.23 0.68 0.925 0.66 2.125 0.91 3.321 0.91 1.195-0.01 2.393-0.3 3.333-0.89 0.26-0.15 0.36-0.43 0.26-0.7l-0.49-1.427v-2e-3zm-5.547 1.289c0.499 0.19 0.846 0.41 1.602 0.5 0.571 0.1 1.224 0 1.888-0.1-0.373 0.1-0.666 0.28-1.056 0.28-0.938 0-1.782-0.26-2.459-0.66l0.025-0.02zm4.927 0v0.1c-0.19 0.1-0.46 0.1-0.679 0.18 0.219-0.1 0.439-0.17 0.649-0.25l0.03-0.03z" fill="#fff" fill-rule="evenodd" opacity=".05"/>
 <path id="base" d="m8 1.0039a1.1964 0.67134 0 0 0-1.1738 0.5488 1.1964 0.67134 0 0 0-2e-3 0l-0.0019 0.0118a1.1964 0.67134 0 0 0-0.0176 0.0839l-0.5332 2.6817c0.8272 0.6122 2.6298 0.6122 3.457 0l-0.5351-2.6856a1.1964 0.67134 0 0 0-0.0176-0.0918 1.1964 0.67134 0 0 0-1.1758-0.5488zm-2.4355 5.7754-0.5586 2.2012h-0.9063c-0.242 0-0.4595 0.1489-0.5527 0.3769l-1.5 4.7946c-0.1647 0.404 0.1247 0.848 0.5527 0.848h10.8c0.428 0 0.718-0.444 0.553-0.848l-1.5-4.7926c-0.093-0.228-0.311-0.377-0.553-0.377h-0.906l-0.556-2.2031c-1.6502 0.6696-3.0364 0.8417-4.8735 0zm5.5155 2.4961 0.494 1.4276c0.077 0.266-0.028 0.551-0.26 0.695-0.941 0.59-2.1422 0.879-3.3374 0.891-1.1956 0.011-2.3958-0.254-3.3204-0.912-0.2116-0.15-0.3036-0.422-0.2304-0.674l0.4707-1.3495c0.646 0.3866 3.5724 1.5355 6.1835-0.0781z" fill="url(#gr0)" fill-rule="evenodd"/>
 <path id="path17" d="m7.994 0.9863 4e-3 0.0137a1.196 0.6713 0 0 0-1.174 0.549 1.196 0.6713 0 0 0-0.019 0.08l-0.535 2.682c0.827 0.612 2.629 0.612 3.457 0l-0.538-2.686a1.196 0.6713 0 0 0-0.019-0.09 1.196 0.6713 0 0 0-1.176-0.5487zm0.018 0.5157c0.212 0 0.421 0.047 0.552 0.107 0.124 0.06 0.145 0.12 0.145 0.1a0.5 0.5 0 0 0 0 0.029l0.449 2.256c-0.306 0.146-0.685 0.291-1.152 0.291s-0.846-0.145-1.152-0.291l0.447-2.252a0.5 0.5 0 0 0 0-0.029c-0.01 0.026 0.018-0.04 0.148-0.1 0.131-0.059 0.34-0.109 0.551-0.109l0.012-2e-3zm-2.448 5.277-0.558 2.201h-0.906c-0.242 0-0.46 0.149-0.553 0.377l-1.5 4.793c-0.165 0.41 0.125 0.85 0.553 0.85h10.8c0.43 0 0.72-0.44 0.55-0.85l-1.5-4.791c-0.1-0.228-0.31-0.377-0.55-0.377h-0.91l-0.55-2.203c-1.655 0.67-3.039 0.842-4.876 0zm0.352 0.641c1.496 0.545 2.822 0.461 4.164 0l0.4 1.555c-1.09 0.559-2.211 0.702-3.169 0.589-0.82-0.096-1.431-0.326-1.813-0.498l0.418-1.646zm5.164 1.851v2e-3l0.49 1.427c0.1 0.27 0 0.55-0.26 0.7-0.94 0.59-2.138 0.88-3.333 0.89-1.196 0-2.396-0.25-3.321-0.91-0.211-0.15-0.303-0.42-0.23-0.68l0.47-1.348c0.646 0.386 3.573 1.538 6.184-0.081zm-6.74 0.208-0.369 1.061c-0.131 0.46 0.034 0.95 0.422 1.23 1.04 0.73 2.341 1 3.613 1 1.272-0.01 2.554-0.32 3.594-0.97 0.37-0.26 0.61-0.78 0.47-1.26l-0.37-1.06h0.22s0.1 0.031 0.1 0.071l1.48 4.749c0.03 0.06 0 0.16-0.1 0.16h-10.796c-0.09 0-0.13-0.06-0.09-0.16a0.5 0.5 0 0 0 9e-3 0l1.487-4.749c0.02-0.05 0.05-0.071 0.09-0.071l0.24-1e-3z" fill-rule="evenodd" opacity=".3"/>
 <path id="path24" d="m6.449 4.412-0.179 0.899c0.827 0.612 2.629 0.612 3.457 0l-0.18-0.897c-0.824 0.466-2.275 0.464-3.098-2e-3zm4.401 4.988c-2.326 1.29-4.812 0.508-5.715 0.073l-0.129 0.507h-0.328l-0.252 0.72c-0.06 0.21-3e-3 0.43 0.135 0.59l0.335-0.97c0.646 0.39 3.573 1.54 6.184-0.1v0.03l0.36 1.04c0.16-0.15 0.21-0.37 0.13-0.59l-0.25-0.718h-0.33l-0.14-0.582zm-8.688 5.39-0.115 0.36c-0.165 0.41 0.125 0.85 0.553 0.85h10.8c0.43 0 0.72-0.44 0.55-0.85l-0.11-0.36c-0.11 0.12-0.26 0.21-0.44 0.21h-10.8c-0.184 0-0.33-0.09-0.438-0.21z" fill="#fff" fill-rule="evenodd" opacity=".2"/>
 <path id="path31" d="m7.998 1 2e-3 4e-3a1.196 0.6713 0 0 0-1.174 0.549v9e-3a1.196 0.6713 0 0 0-0.019 0.081l-0.534 2.681c0.053 0.039 0.119 0.068 0.178 0.102l0.356-1.783a1.196 0.6713 0 0 1 0.019-0.081v-9e-3a1.196 0.6713 0 0 1 1.174-0.549l-2e-3 -4e-3a1.196 0.6713 0 0 1 1.176 0.549 1.196 0.6713 0 0 1 0.019 0.09l0.358 1.787c0.06-0.034 0.127-0.063 0.179-0.102l-0.537-2.685a1.196 0.6713 0 0 0-0.019-0.09 1.196 0.6713 0 0 0-1.176-0.549zm-2.434 5.779-0.558 2.201h-0.906c-0.242 0-0.46 0.149-0.553 0.377l-1.5 4.793c-0.095 0.23-0.029 0.47 0.115 0.64l1.385-4.43c0.093-0.23 0.311-0.38 0.553-0.38h0.578l0.218-0.626c0.057 0.033 0.15 0.078 0.239 0.121l0.429-1.696c1.837 0.842 3.222 0.67 4.876 0l0.41 1.623c0.07-0.043 0.15-0.08 0.23-0.129v2e-3l0.24 0.707h0.58c0.24 0 0.45 0.148 0.55 0.378l1.39 4.43c0.14-0.17 0.21-0.4 0.11-0.64l-1.5-4.791c-0.1-0.228-0.31-0.377-0.55-0.377h-0.91l-0.55-2.203c-1.654 0.67-3.039 0.842-4.876 0zm-0.996 4.511-0.142 0.41c-0.073 0.26 0.019 0.53 0.23 0.68 0.925 0.66 2.125 0.91 3.321 0.91 1.195-0.01 2.393-0.3 3.333-0.89 0.26-0.15 0.36-0.43 0.26-0.7l-0.14-0.4c-0.04 0.04-0.07 0.07-0.12 0.1-0.94 0.59-2.138 0.88-3.333 0.89-1.196 0-2.396-0.25-3.321-0.91-0.034-0.02-0.06-0.06-0.088-0.09z" fill-rule="evenodd" opacity=".3"/>
</svg>
