<?xml version="1.0" encoding="UTF-8"?>
<svg id="svg36" width="16" height="16" version="1.1" xmlns="http://www.w3.org/2000/svg" xmlns:cc="http://creativecommons.org/ns#" xmlns:dc="http://purl.org/dc/elements/1.1/" xmlns:rdf="http://www.w3.org/1999/02/22-rdf-syntax-ns#">
 <metadata id="metadata40">
  <rdf:RDF>
   <cc:Work rdf:about="">
    <dc:format>image/svg+xml</dc:format>
    <dc:type rdf:resource="http://purl.org/dc/dcmitype/StillImage"/>
   </cc:Work>
  </rdf:RDF>
 </metadata>
 <defs id="defs7">
  <radialGradient id="gr0" cx="9" cy="10" r="11" gradientTransform="matrix(1 0 0 .72727 0 2.7273)" gradientUnits="userSpaceOnUse">
   <stop id="stop2" stop-opacity=".23529" offset="0"/>
   <stop id="stop4" stop-opacity=".54902" offset="1"/>
  </radialGradient>
 </defs>
 <path id="path9" d="m8.014-0.08789-2e-3 0.07227a1 1 0 0 0-0.432 0.10156c-4.204 0.23126-7.58 3.6541-7.58 7.9141 0.0029 1.155 0.2565 2.3 0.7441 3.35a1 1 0 0 0 0.3009 0.37 1 1 0 0 0 0.961 1.28h0.492l-0.289 0.5c-0.402 0.7-0.154 1.64 0.549 2.04l0.433 0.25c0.702 0.41 1.641 0.16 2.049-0.54l0.586-1.02 0.471 0.47a1 1 0 0 0 0.029 0 1 1 0 0 0 0.863 1.21h0.815a1 1 0 0 0 0.01 0c4.406 0 7.996-3.59 7.996-7.998 0-4.409-3.59-7.9999-7.996-7.9999zm-0.022 1.043c3.848 0 6.978 3.1299 6.978 6.9999 0 3.865-3.13 6.995-6.978 6.995h-0.711c0.422-0.13 0.711-0.51 0.711-0.96v-1c0.89 0 1.707-0.25 2.408-0.65l-0.25 0.12h-0.11v-0.15l-0.087-0.41c-0.082-0.23-0.139-0.45-0.219-0.69 0-0.17 0.02-0.36 0.03-0.53l0.09-0.25-0.157-0.28 0.032-0.373-0.221-0.218 0.125-0.342-0.188-0.158h-0.283l-0.09-0.123-0.25 0.185-0.125-0.125-0.281 0.221c-0.125-0.141-0.25-0.28-0.375-0.42v-1.75c0.046-0.061 0.086-0.121 0.156-0.201l0.5-0.19 0.407-0.058 0.25 0.058 0.375 0.406 0.156-0.185h0.125l0.26 0.068a1 1 0 0 0 0.07 4e-3h-0.05l0.07 0.018h0.25c0.1-0.086 0.19-0.16 0.29-0.25l-0.22-0.75h-0.32c-0.08-0.12-0.17-0.269-0.28-0.375l-0.1 0.058-0.058 0.315-0.156-0.221-0.061-0.25-0.219-0.154h-0.058l0.185 0.219-0.058 0.216-0.19 0.061 0.09-0.219-0.154-0.09-0.156-0.187-0.315 0.06-0.059 0.09-0.191 0.125-0.09 0.25-0.25 0.125-0.125-0.125h-0.125v-0.404l0.25-0.156h0.221l-0.031-0.157-0.188-0.156 0.281-0.06 0.157-0.188 0.154-0.219h0.221l-0.061-0.156 0.156-0.09v0.188l0.313 0.06 0.312-0.25v-0.125l0.209-0.142-2e-3 -0.03c-0.066 0.012-0.131 0.023-0.207 0.045v-0.218l0.09-0.219h-0.09l-0.25 0.219-0.06 0.089 0.06 0.157-0.089 0.281-0.159-0.09-0.156-0.156-0.25 0.156-0.059-0.344 0.376-0.281v-0.125l0.281-0.187 0.127-0.03c-0.423-0.142-0.862-0.239-1.323-0.269l0.36 0.144-0.225 0.575c-0.281 0.13-0.546 0.242-0.842 0.332l-0.199 0.308-0.15 0.09-0.225-0.465 0.182-0.178v-0.175l-0.444-0.287 0.131-0.133 0.692-0.196c-0.898 0.078-1.724 0.389-2.422 0.877h0.049l0.125 0.061-0.03 0.25-0.218 0.219-0.471 0.25 0.029 0.185 0.408 0.158 0.03 0.282 0.125-0.282 0.218-0.089v-0.159l0.188-0.341 0.281 0.125-0.029 0.185 0.219-0.058 0.09 0.185-0.032 0.125 0.125 0.031 0.125 0.125-0.058 0.125-0.315 0.125h-0.25l-0.279 0.125h0.5l-0.188 0.25-0.343 0.061-0.125 0.25-0.282 0.09-0.158 0.343-0.375 0.282-0.029 0.435-0.188-0.281-0.281-0.059-0.06 0.125-0.219 0.03-0.281 0.187-0.03 0.281v0.219l0.188 0.09 0.125-0.029 0.156-0.156 0.125-0.032c-0.02 0.152-0.04 0.317-0.06 0.469l0.218-0.029v0.218l0.03 0.12-0.153 0.152-0.029-0.02-0.125-0.187-0.439-0.125-0.377-0.25s-0.039-0.06-0.059-0.1v0.129c1e-3 0.473 0.064 0.94 0.195 1.391l-1.549 1.549c-0.427-0.92-0.6519-1.92-0.6519-2.93 0-3.87 3.1299-7 6.9999-7l-0.019-0.041 0.015-0.0039zm-3.027 3.1059c-0.049 0.037-0.089 0.067-0.129 0.107 0.041-0.02 0.102-0.041 0.102-0.041l0.027-0.066zm2.566 1.617a1 1 0 0 0 0.051 0.049l-0.051-0.039v-0.01zm4.949 0.136c0.06 0.138 0.09 0.277 0.19 0.43-0.06-0.148-0.09-0.289-0.19-0.43zm-5.464 0.166a1 1 0 0 0 0 0.022 1 1 0 0 0-0.022 0 1 1 0 0 0 0.022-0.022zm-0.901 0.741v9e-3h-0.039a1 1 0 0 0 0.039-9e-3zm5.935 0.213-0.02 0.31 0.19 0.125 0.12 0.156 0.16-0.185c0.02 0.078 0.12 0.139 0.12 0.219v0.216l-0.18 0.219-0.35 0.25-0.25 0.25c0.12-0.01 0.26-0.019 0.38-0.029v0.156l-0.28 0.594-0.19 0.281-0.22 0.406v0.658l0.1 0.25-0.1 0.12-0.22 0.13-0.25 0.22 0.19 0.19-0.25 0.25 0.1 0.15-0.28 0.28c1.33-0.9 2.21-2.424 2.21-4.154 0-0.234-0.1-0.463-0.1-0.689l-0.13 0.158c-0.1-0.112-0.21-0.213-0.32-0.313h-0.21l-0.22-0.218zm-5.044 0.06v7.006l-1.391-1.39-1.238 2.14c-0.139 0.28-0.446 0.32-0.686 0.18l-0.433-0.25c-0.242-0.14-0.32-0.44-0.182-0.68l1.151-2h-2.221l5-5.006zm1.529 2.211a1 1 0 0 0-0.058 0.35h-0.022l-0.039-0.03 0.119-0.32zm-0.512 0.783a1 1 0 0 0 0.461 0.102l-0.089-0.06a1 1 0 0 0 0.248 0.07 1 1 0 0 0 0.019 0 1 1 0 0 0 0.016 0 1 1 0 0 0 0.06 0.24l0.061-0.17a1 1 0 0 0-0.051 0.2 1 1 0 0 0-0.01 0.1c0 0.14-0.031 0.34-0.031 0.59a1 1 0 0 0 0.061 0.34c0.02 0.1 0.05 0.16 0.07 0.22-0.274 0.1-0.521 0.22-0.815 0.22v-1.852zm0.78 0.01a1 1 0 0 0 0.051 0l-0.125 0.102h-0.047a1 1 0 0 0 0.121-0.102z" fill="#fff" opacity=".05"/>
 <path id="base" d="m8 1c-3.87 0-7 3.13-7 7 0.0025 1.01 0.225 2.01 0.652 2.93l1.55-1.55c-0.131-0.451-0.198-0.917-0.199-1.39 0-0.0435 0.00476-0.0857 0.00586-0.129 0.0203 0.0365 0.0566 0.0977 0.0566 0.0977l0.375 0.25 0.438 0.125 0.125 0.188 0.0332 0.0215 0.152-0.152-0.0293-0.119v-0.219l-0.219 0.0312c0.0202-0.152 0.0422-0.317 0.0625-0.469l-0.125 0.0312-0.156 0.156-0.125 0.0312-0.188-0.0938v-0.219l0.0312-0.281 0.281-0.188 0.219-0.0312 0.0625-0.125 0.281 0.0625 0.188 0.281 0.0312-0.438 0.375-0.281 0.156-0.344 0.281-0.0938 0.125-0.25 0.344-0.0625 0.188-0.25h-0.5l0.281-0.125h0.25l0.312-0.125 0.0625-0.125-0.125-0.125-0.125-0.0312 0.0312-0.125-0.0938-0.188-0.219 0.0625 0.0312-0.188-0.281-0.125-0.188 0.344v0.156l-0.219 0.0938-0.125 0.281-0.0312-0.281-0.406-0.156-0.0312-0.188 0.469-0.25 0.219-0.219 0.0312-0.25-0.125-0.0625h-0.0469c0.726-0.508 1.59-0.829 2.53-0.891l-0.0938 0.0117-0.707 0.199-0.133 0.133 0.443 0.287v0.176l-0.178 0.178 0.221 0.465 0.154-0.0898 0.199-0.309c0.296-0.0914 0.561-0.202 0.842-0.332l0.221-0.574-0.357-0.146c0.461 0.0255 0.897 0.129 1.32 0.271l-0.127 0.0273-0.281 0.188v0.125l-0.375 0.281 0.0625 0.344 0.25-0.156 0.156 0.156 0.156 0.0938 0.0938-0.281-0.0625-0.156 0.0625-0.0938 0.25-0.219h0.0938l-0.0938 0.219v0.219c0.0954-0.026 0.184-0.0505 0.281-0.0625l-0.281 0.188v0.125l-0.312 0.25-0.312-0.0625v-0.188l-0.156 0.0938 0.0625 0.156h-0.219l-0.156 0.219-0.156 0.188-0.281 0.0625 0.188 0.156 0.0312 0.156h-0.219l-0.25 0.156v0.406h0.125l0.125 0.125 0.25-0.125 0.0938-0.25 0.188-0.125 0.0625-0.0938 0.312-0.0625 0.156 0.188 0.156 0.0938-0.0938 0.219 0.188-0.0625 0.0625-0.219-0.188-0.219h0.0625l0.219 0.156 0.0625 0.25 0.156 0.219 0.0625-0.312 0.0938-0.0625c0.102 0.106 0.194 0.255 0.281 0.375h0.312l0.219 0.75c-0.096 0.088-0.183 0.164-0.281 0.25h-0.25l-0.375-0.0938h-0.156l-0.156 0.188-0.375-0.406-0.25-0.0625-0.406 0.0625-0.5 0.188c-0.0708 0.0802-0.11 0.14-0.156 0.201v1.75c0.125 0.14 0.25 0.279 0.375 0.42l0.281-0.219 0.125 0.125 0.25-0.188 0.0938 0.125h0.281l0.188 0.156-0.125 0.344 0.219 0.219-0.0312 0.375 0.156 0.281-0.0938 0.25c-0.0102 0.172-0.0312 0.358-0.0312 0.531 0.0851 0.234 0.138 0.452 0.219 0.688l0.0938 0.406v0.156h0.125l0.25-0.125h0.0566c-0.723 0.406-1.54 0.656-2.43 0.656v1c-1.56e-4 0.441-0.289 0.83-0.711 0.957 0.236 0.0264 0.473 0.0407 0.711 0.043 3.87 0 7-3.13 7-7s-3.13-7-7-7zm2.22 2.56h0.0391c0.115 0.0587 0.23 0.116 0.34 0.184l-0.0977 0.0977-0.281-0.281zm-5.25 0.484-0.0332 0.0781s-0.0555 0.0194-0.102 0.0352c0.0453-0.0374 0.0882-0.0775 0.135-0.113zm7.51 1.77c0.069 0.141 0.134 0.282 0.189 0.43-0.0603-0.153-0.125-0.292-0.189-0.43zm-0.414 1.12 0.219 0.219h0.219c0.109 0.0988 0.218 0.2 0.312 0.312l0.135-0.158c0.0312 0.226 0.0527 0.455 0.0527 0.689 0 1.73-0.879 3.25-2.21 4.15l0.275-0.275-0.0625-0.156 0.25-0.25-0.188-0.188 0.25-0.219 0.219-0.125 0.0938-0.125-0.0625-0.25v-0.656l0.219-0.406 0.188-0.281 0.281-0.594v-0.156c-0.117 0.014-0.26 0.0222-0.375 0.0312l0.25-0.25 0.344-0.25 0.188-0.219v-0.219c-0.041-0.0784-0.083-0.141-0.125-0.219l-0.156 0.188-0.125-0.156-0.188-0.125v-0.312zm-5.06 0.0625-5 5h2.22l-1.15 2c-0.138 0.24-0.0582 0.543 0.182 0.682l0.434 0.25c0.24 0.138 0.545 0.0582 0.684-0.182l1.24-2.14 1.39 1.39v-7z" fill="url(#gr0)"/>
 <path id="path17" d="m7.938 0.9551 0.025 0.0039 0.041 0.041c-3.87 0-7 3.13-7 7 0 1.01 0.223 2.01 0.65 2.93l1.549-1.549c-0.131-0.451-0.194-0.918-0.195-1.391v-0.129c0.02 0.04 0.058 0.1 0.058 0.1l0.377 0.25 0.44 0.125 0.125 0.187 0.029 0.02 0.152-0.152-0.029-0.12v-0.218l-0.219 0.029c0.02-0.152 0.041-0.317 0.061-0.469l-0.125 0.032-0.156 0.156-0.125 0.029-0.188-0.09v-0.219l0.03-0.281 0.281-0.187 0.219-0.03 0.06-0.125 0.281 0.059 0.188 0.281 0.029-0.435 0.375-0.282 0.158-0.343 0.282-0.09 0.125-0.25 0.343-0.061 0.188-0.25h-0.5l0.279-0.125h0.25l0.315-0.125 0.058-0.125-0.125-0.125-0.125-0.031 0.031-0.125-0.089-0.185-0.219 0.058 0.029-0.185-0.281-0.125-0.188 0.341v0.159l-0.218 0.089-0.125 0.282-0.03-0.282-0.408-0.158-0.029-0.185 0.47-0.25 0.219-0.219 0.03-0.25-0.125-0.061h-0.049c0.698-0.488 1.524-0.799 2.422-0.877l-0.692 0.196-0.131 0.133 0.444 0.287v0.175l-0.182 0.178 0.225 0.465 0.15-0.09 0.199-0.308c0.296-0.09 0.561-0.202 0.842-0.332l0.225-0.575-0.36-0.144c0.461 0.03 0.9 0.127 1.323 0.269l-0.127 0.03-0.282 0.187v0.125l-0.375 0.281 0.061 0.344 0.25-0.156 0.154 0.156 0.158 0.09 0.09-0.281-0.06-0.157 0.06-0.089 0.25-0.219h0.09l-0.09 0.219v0.218c0.1-0.03 0.186-0.05 0.279-0.06l-0.279 0.187v0.125l-0.207 0.166 0.047 0.129-0.068 0.041a0.5 0.5 0 0 0 9e-3 -0.16l-0.093 0.074-0.313-0.06v-0.188l-0.154 0.09 0.059 0.156h-0.221l-0.154 0.219-0.157 0.188-0.281 0.06 0.188 0.156 0.031 0.157h-0.221l-0.25 0.156v0.404h0.125l0.125 0.125 0.25-0.125 0.092-0.25 0.189-0.125 0.061-0.09 0.312-0.06 0.157 0.187 0.156 0.09-0.092 0.219 0.19-0.061 0.058-0.216-0.185-0.219h0.058l0.219 0.154 0.06 0.25 0.157 0.221 0.058-0.315 0.104-0.058c0.11 0.106 0.2 0.255 0.28 0.375h0.32l0.22 0.75c-0.1 0.09-0.19 0.164-0.29 0.25h-0.25l-0.35-0.09h-0.151l-0.156 0.185-0.375-0.406-0.25-0.058-0.406 0.058-0.5 0.19c-0.07 0.08-0.111 0.14-0.157 0.201v1.75c0.125 0.14 0.25 0.279 0.375 0.42l0.282-0.221 0.125 0.125 0.25-0.185 0.089 0.123h0.282l0.187 0.158-0.125 0.342 0.217 0.218-0.029 0.373 0.156 0.28-0.09 0.25c-0.01 0.17-0.029 0.36-0.029 0.53 0.08 0.24 0.14 0.46 0.221 0.69l0.094 0.41v0.15h0.1c-0.674 0.33-1.402 0.53-2.192 0.53v1c0 0.45-0.289 0.83-0.711 0.96h0.711c3.882 0 7.022-3.13 7.022-6.995 0-3.87-3.14-6.9999-7.022-6.9999zm0.144 0.4569c3.568 0.041 6.428 2.917 6.428 6.492 0 3.486-2.72 6.286-6.156 6.466 0.055-0.16 0.156-0.29 0.156-0.47v-0.56c0.785-0.08 1.53-0.29 2.18-0.65a0.5 0.5 0 0 0 0.14-0.13 0.5 0.5 0 0 0 0.24-0.1c1.47-0.99 2.43-2.665 2.43-4.564 0-0.265-0.1-0.516-0.1-0.757a0.5 0.5 0 0 0-0.58-0.424v-0.029a0.5 0.5 0 0 0-0.1-0.051 0.5 0.5 0 0 0 0.37-0.66c-0.07-0.171-0.11-0.329-0.21-0.477a0.5 0.5 0 0 0-0.9 0.43c0.06 0.139 0.17 0.268 0.17 0.404a0.5 0.5 0 0 0 0.19 0.227l-0.21 0.459 0.14 0.134h0.21c0.11 0.1 0.22 0.201 0.32 0.313l0.13-0.158c0 0.226 0.1 0.455 0.1 0.689 0 1.73-0.88 3.254-2.21 4.154l0.28-0.28-0.1-0.15 0.25-0.25-0.19-0.19 0.25-0.22 0.22-0.13 0.1-0.12-0.1-0.25v-0.658l0.22-0.406 0.19-0.281 0.28-0.594v-0.156c-0.12 0.01-0.26 0.019-0.38 0.029l0.25-0.25 0.35-0.25 0.18-0.219v-0.216c0-0.08-0.1-0.141-0.12-0.219l-0.16 0.185-0.12-0.156-0.19-0.123-0.04 0.094-0.44-0.031a0.5 0.5 0 0 0 0.19 0.253l0.13 0.081v0.031l-0.1 0.068a0.5 0.5 0 0 0-0.1 0.051l-0.25 0.25a0.5 0.5 0 0 0 0 0.748v0.08l-0.17 0.252a0.5 0.5 0 0 0 0 0.039l-0.22 0.406a0.5 0.5 0 0 0-0.1 0.239v0.653a0.5 0.5 0 0 0 0 0.1 0.5 0.5 0 0 0-0.1 0.1l-0.25 0.22a0.5 0.5 0 0 0-0.15 0.53 0.5 0.5 0 0 0-0.11 0.28c0 0.01 0.01 0.02 0.01 0.03v0.1a0.5 0.5 0 0 1-0.01-0.13c-0.05-0.17-0.08-0.36-0.18-0.56v-0.36l0.1-0.18a0.5 0.5 0 0 0 0-0.42l-0.1-0.15v-0.215a0.5 0.5 0 0 0-0.154-0.397v-0.039a0.5 0.5 0 0 0-0.144-0.557l-0.192-0.156a0.5 0.5 0 0 0-0.318-0.115h-0.029l0.051 0.07a0.5 0.5 0 0 0-0.586-0.152l0.146 0.148a0.5 0.5 0 0 0-0.221-0.113 0.5 0.5 0 0 0-0.039 0.029l0.03-0.029a0.5 0.5 0 0 0-0.262 0.01v-1.27l0.281-0.107 0.258-0.039 0.271 0.297a0.5 0.5 0 0 0 0.731 0l0.197 0.049a0.5 0.5 0 0 0 0.12 9e-3h0.25a0.5 0.5 0 0 0 0.33-0.123c0.1-0.086 0.19-0.168 0.29-0.258a0.5 0.5 0 0 0 0.14-0.507l-0.21-0.75a0.5 0.5 0 0 0-0.48-0.362h-0.1c-0.05-0.076-0.07-0.13-0.17-0.22a0.5 0.5 0 0 0-0.428-0.149l-0.22-0.152a0.5 0.5 0 0 0-0.02-0.012l0.311-0.25a0.5 0.5 0 0 0 0.187-0.365v0.117l0.1-0.039a0.5 0.5 0 0 0 0.1-0.041 0.5 0.5 0 0 0 0.46-0.137l0.1-0.099a0.5 0.5 0 0 0-0.1-0.78c-0.13-0.084-0.26-0.143-0.37-0.203a0.5 0.5 0 0 0-0.23-0.051 0.5 0.5 0 0 0-0.15 0.02 0.5 0.5 0 0 0-0.302-0.283c-0.452-0.152-0.934-0.267-1.454-0.297a0.5 0.5 0 0 0-0.334 0.103 0.5 0.5 0 0 0-0.335-0.101c-1.033 0.068-1.99 0.42-2.788 0.978a0.5 0.5 0 0 0-0.117 0.12 0.5 0.5 0 0 0-0.068 0.039 0.5 0.5 0 0 0-0.051 0.041c-0.041 0.03-0.081 0.06-0.101 0.08a0.5 0.5 0 0 0-0.172 0.47 0.5 0.5 0 0 0-0.243 0.516l0.032 0.188a0.5 0.5 0 0 0 0.312 0.384l0.121 0.049v-8e-3a0.5 0.5 0 0 0 0.242 0.362 0.5 0.5 0 0 0-0.232 0.242l-0.101 0.224-0.274 0.204a0.5 0.5 0 0 0-0.029 0.019l-0.071-0.01a0.5 0.5 0 0 0-0.476 0.153 0.5 0.5 0 0 0-0.08 0.113l0.049-0.109a0.5 0.5 0 0 0-0.164 0.07l-0.282 0.187a0.5 0.5 0 0 0-0.218 0.362l-0.02 0.183a0.5 0.5 0 0 0-0.414 0.479v0.142c1e-3 0.411 0.082 0.812 0.172 1.209l-0.811 0.809c-0.215-0.65-0.365-1.321-0.365-2.008 0-3.6 2.9-6.5 6.5-6.5a0.5 0.5 0 0 0 0.09 0l-4e-3 -0.08zm2.138 2.149c0.11 0.06 0.23 0.115 0.34 0.183l-0.1 0.1-0.28-0.282 0.04-1e-3zm-5.255 0.5-0.027 0.066s-0.061 0.021-0.102 0.041c0.04-0.04 0.08-0.07 0.129-0.107zm1.015 1.158-0.179 0.051-0.012-0.022a0.5 0.5 0 0 0 0.012-0.01 0.5 0.5 0 0 0 0.179-0.019zm6.5 0.595c0.1 0.141 0.13 0.282 0.19 0.43-0.1-0.153-0.13-0.292-0.19-0.43zm-5.474 1.18-5 5.006h2.221l-1.151 2c-0.138 0.24-0.06 0.54 0.182 0.68l0.433 0.25c0.24 0.14 0.547 0.1 0.686-0.18l1.238-2.14 1.391 1.39v-7.006zm-0.5 1.209-2e-3 4.587-0.537-0.54a0.5 0.5 0 0 0-0.785 0.11l-1.243 2.14-0.429-0.25 1.148-2a0.5 0.5 0 0 0-0.431-0.75h-1.014l3.293-3.297z" opacity=".3"/>
 <path id="path24" d="m8.273 3.008 0.36 0.144-0.225 0.575c-0.281 0.13-0.546 0.242-0.842 0.332l-0.199 0.308-0.15 0.09-0.143-0.297-0.207 0.059-0.131 0.133 0.444 0.287v0.175l-0.182 0.176 0.225 0.465 0.15-0.09 0.199-0.306c0.296-0.09 0.561-0.202 0.842-0.332l0.225-0.577-0.36-0.142c0.193 0.012 0.38 0.042 0.565 0.076l-0.032-0.184 0.376-0.281v-0.125l0.281-0.187 0.127-0.03c-0.423-0.142-0.862-0.239-1.323-0.269zm-0.72 0.015c-0.898 0.078-1.724 0.389-2.422 0.877h0.049l0.125 0.061-0.03 0.25-0.218 0.219-0.471 0.25 0.029 0.185 0.408 0.158 0.03 0.282 0.125-0.282 0.131-0.054 2e-3 -0.01-0.125-0.061h-0.049c0.092-0.064 0.192-0.117 0.289-0.175l0.158-0.289 0.199 0.087c0.394-0.194 0.817-0.334 1.262-0.419l-0.053-0.11 0.182-0.178v-0.175l-0.444-0.287 0.131-0.133 0.692-0.196zm2.667 0.538-0.04 1e-3 0.28 0.282 0.1-0.1c-0.11-0.068-0.23-0.123-0.34-0.183zm-0.445 0.027-0.25 0.219-0.06 0.089 0.06 0.157-0.058 0.185c0.044 0.014 0.09 0.023 0.135 0.037l-0.127 0.032-0.039 0.025v2e-3h-2e-3l-0.221 0.145 0.25 0.048 0.312-0.25v-0.125l0.275-0.187c-0.089 0.01-0.175 0.03-0.275 0.06v-0.218l0.09-0.219h-0.09zm-4.81 0.473c-0.049 0.037-0.089 0.067-0.129 0.107 0.041-0.02 0.102-0.041 0.102-0.041l0.027-0.066zm4.156 0.027-0.062 0.039c0.047 0.011 0.093 0.027 0.14 0.039l-0.078-0.078zm0.024 1.252-0.143 0.027 0.059 0.156h-0.221l-0.154 0.219-0.157 0.19-0.281 0.058 0.188 0.156 0.031 0.159h-0.221l-0.25 0.156v0.402h0.125l0.035 0.035c0.015-0.018 0.023-0.031 0.041-0.052l0.356-0.135 0.035-0.098 0.189-0.125 0.061-0.09 0.312-0.058 0.157 0.185 0.156 0.09-0.045 0.11 0.068 0.074 0.075-0.024 0.058-0.218-0.185-0.219h0.058l0.219 0.156 0.06 0.25 0.104 0.145 0.01-0.012h0.058l0.043-0.227 0.104-0.06c0.11 0.106 0.2 0.255 0.28 0.375h0.24c0.1-0.085 0.19-0.159 0.29-0.248l-0.22-0.75h-0.32c-0.08-0.12-0.17-0.269-0.28-0.375l-0.1 0.058-0.058 0.315-0.156-0.221-0.061-0.25-0.105-0.074-0.063 0.051 0.076 0.088-0.058 0.216-0.19 0.061 0.09-0.219-0.154-0.09-0.033-0.039-0.112-0.021v-0.113l-0.011-0.014zm-3.512 0.111-0.071 0.031-0.025 0.045h0.268l-0.172-0.076zm0.221 0.221-0.081 0.105-0.343 0.061-0.028 0.055v0.039l-0.025 9e-3 -0.072 0.147-0.176 0.057-0.07 0.158-0.014-0.133-0.022 8e-3 -0.158 0.343-0.375 0.282-0.029 0.435-0.188-0.281-0.281-0.059-0.06 0.125-0.219 0.03-0.281 0.187-0.03 0.281v0.219l0.188 0.09 0.125-0.029 0.156-0.156 0.125-0.032c-0.017 0.128-0.034 0.263-0.051 0.393l0.053-0.11 0.281 0.061 0.188 0.281 0.029-0.437 0.375-0.281 0.158-0.344 0.282-0.09 0.125-0.25 0.343-0.061 0.188-0.25h-0.5l0.279-0.125h0.25l0.315-0.125 0.058-0.125-0.125-0.125-0.125-0.029 0.031-0.125-0.089-0.187-0.219 0.06 0.012-0.072zm6.626 0.142c0.06 0.138 0.09 0.277 0.19 0.43-0.06-0.148-0.09-0.289-0.19-0.43zm-0.43 1.12-0.02 0.31 0.19 0.125 0.12 0.156 0.16-0.185c0.02 0.078 0.12 0.139 0.12 0.219v0.216l-0.18 0.219-0.19 0.137 0.02 0.021h0.21c0.11 0.1 0.22 0.201 0.32 0.313l0.13-0.158c0 0.12 0.03 0.241 0.05 0.363 0.03-0.221 0.05-0.445 0.05-0.674 0-0.234-0.1-0.463-0.1-0.689l-0.13 0.158c-0.1-0.112-0.21-0.213-0.32-0.313h-0.21l-0.22-0.218zm-9.048 0.927v0.129c1e-3 0.34 0.046 0.673 0.113 1.002l0.328 0.219 0.44 0.125 0.125 0.185 0.029 0.022 0.152-0.152-0.029-0.121v-0.217l-0.219 0.029c0.02-0.152 0.041-0.317 0.061-0.469l-0.125 0.03-0.156 0.156-0.125 0.029-0.188-0.09v-0.218l0.03-0.282 0.029-0.019-0.029-8e-3 -0.377-0.25s-0.039-0.06-0.059-0.1zm5.039 0.164c-4e-3 6e-3 -0.011 0.014-0.016 0.02v1.75c0.125 0.14 0.25 0.285 0.375 0.425l0.282-0.224 0.125 0.134 0.25-0.196 0.089 0.126h0.282l0.187 0.16-0.125 0.34 0.217 0.22-0.029 0.37 0.086 0.15c-0.01-0.03-0.019-0.06-0.03-0.09 0-0.17 0.02-0.36 0.03-0.53l0.09-0.25-0.157-0.28 0.032-0.373-0.221-0.218 0.125-0.342-0.188-0.158h-0.283l-0.09-0.123-0.25 0.185-0.125-0.125-0.281 0.221c-0.125-0.141-0.25-0.28-0.375-0.42v-0.772zm4.029 0.243-0.23 0.226c0.12-0.01 0.26-0.019 0.38-0.029v0.156l-0.28 0.594-0.19 0.281-0.22 0.406v0.658l0.08 0.2 0.14-0.26 0.19-0.28 0.28-0.599v-0.156c-0.12 0.01-0.26 0.019-0.38 0.029l0.25-0.25 0.35-0.25 0.18-0.219v-0.216c0-0.08-0.1-0.141-0.12-0.219l-0.16 0.185-0.12-0.156-0.15-0.101zm-11.043 0.267c-0.01 0.154-0.023 0.306-0.023 0.463 0 1.012 0.223 2.012 0.65 2.932l1.549-1.55c-0.08-0.28-0.127-0.56-0.158-0.847l-1.397 1.397c-0.351-0.76-0.556-1.569-0.621-2.395zm13.913 0.108c-0.35 3.537-3.33 6.307-6.948 6.307h-0.054v0.04c0 0.45-0.289 0.83-0.711 0.96h0.711c3.882 0 7.022-3.13 7.022-6.995 0-0.105-0.02-0.208-0.02-0.312zm-3.41 2.287-0.22 0.13-0.25 0.22 0.19 0.19-0.25 0.25 0.1 0.15-0.28 0.28c0.26-0.17 0.49-0.38 0.71-0.59v-0.63zm-1.712 0.54-0.074 0.21c-0.01 0.17-0.029 0.36-0.029 0.53 0.047 0.14 0.088 0.27 0.129 0.4 0.196-0.08 0.376-0.17 0.556-0.27l-0.25 0.12h-0.11v-0.15l-0.087-0.41c-0.051-0.14-0.092-0.28-0.135-0.43zm-6.814 0.53-0.998 1h1.646l0.575-1h-1.223zm2.611 0.61-1.238 2.14c-0.139 0.28-0.446 0.32-0.686 0.18l-0.431-0.25-0.184 0.32c-0.138 0.24-0.06 0.54 0.182 0.68l0.433 0.25c0.24 0.14 0.547 0.1 0.686-0.18l1.238-2.14 1.391 1.39v-1l-1.391-1.39zm2.377 1.38h-0.054v0.33c0.035-0.1 0.054-0.21 0.054-0.33z" fill="#fff" opacity=".2"/>
 <path id="path31" d="m7.947 0.959 0.053 0.041c-3.87 0-7 3.13-7 7 0 0.159 0.014 0.316 0.025 0.475 0.269-3.624 3.282-6.475 6.975-6.475l-0.053-0.041c3.693 0 6.703 2.865 6.963 6.5 0.01-0.166 0.02-0.331 0.02-0.5 0-3.87-3.13-7-6.983-7zm-0.398 3.061c-0.173 0.015-0.343 0.038-0.51 0.07l0.031 0.064 0.479-0.134zm1.291 0.062 0.027 0.16 0.188-0.117c-0.071-0.017-0.143-0.029-0.215-0.043zm0.355 0.082 0.078 0.078 0.153 0.088 6e-3 -4e-3 0.029-0.09c-0.087-0.027-0.177-0.049-0.266-0.072zm-0.049 0.115-0.156 0.09 0.061 0.156h-0.221l-0.154 0.219-0.156 0.188-0.282 0.06 0.188 0.156 0.029 0.157h-0.219l-0.25 0.156v0.404h0.125l0.125 0.125 0.25-0.125 0.09-0.25 0.19-0.125 0.058-0.09 0.166-0.031 0.156-0.09v0.075l0.114 0.134 0.197 0.039 0.074-0.058-0.111-0.129h0.059l0.113 0.08 0.178-0.143v-0.125l0.28-0.187c-0.095 0.01-0.18 0.028-0.28 0.058v-0.218l0.089-0.219h-0.089l-0.25 0.219-0.059 0.09 0.059 0.156-0.09 0.281-0.157-0.09-0.156-0.156-0.25 0.156-0.058-0.344 0.375-0.281v-0.125l0.021-0.013-0.059-0.012v-0.188zm-3.369 0.239c-0.122 0.06-0.237 0.129-0.353 0.199l-0.031 0.056v0.157l-0.094 0.039-0.028 0.238-0.218 0.219-0.471 0.25 0.031 0.187 0.407 0.157 0.015 0.15 0.084-0.025 0.055-0.125 0.201-0.082 0.018-0.036v-0.129l0.134-0.248h-0.07l0.094-0.041 0.029-0.054 0.047 0.019 0.111-0.049h0.25l0.313-0.125 0.06-0.125-0.125-0.125-0.125-0.029 0.03-0.125-0.09-0.187-0.219 0.058 0.029-0.187-0.084-0.037zm4.443 0.043-0.04 1e-3 0.28 0.282 0.1-0.1c-0.11-0.068-0.23-0.123-0.34-0.183zm-5.253 0.496c-0.044 0.032-0.091 0.069-0.129 0.107 0.042-0.02 0.101-0.041 0.101-0.041l0.028-0.066zm0.828 0.468 0.066 0.03-0.019 0.125 0.115-0.155h-0.162zm3.264 1.075-0.407 0.06-0.107 0.039-0.059 0.166-0.25 0.125-0.109-0.109c-0.051 0.062-0.092 0.117-0.131 0.168v1c0.046-0.061 0.086-0.121 0.156-0.201l0.5-0.188 0.407-0.06 0.25 0.06 0.375 0.406 0.156-0.187h0.156l0.354 0.09h0.25c0.1-0.086 0.19-0.16 0.29-0.25l-0.22-0.75h-0.07-0.25l-0.354-0.09h-0.064l-0.018 0.086-0.06-0.086h-0.014l-0.156 0.187-0.237-0.255-0.088 0.027 0.036-0.084-0.086-0.094-0.25-0.06zm3.421 0.214c0.06 0.138 0.09 0.277 0.19 0.43-0.06-0.148-0.09-0.289-0.19-0.43zm-5.474 0.18-5 5.006h0.998l4.002-4.006v-1zm5.044 0.94v0.31l0.04 0.024 0.02-0.024 0.16-0.113-0.2-0.197h-0.02zm-8.105 0.056-0.015 0.033-0.219 0.03-0.248 0.166 0.414 0.117 0.125 0.187 0.029 0.022 0.153-0.152-0.032-0.12v-0.218l-0.218 0.029c4e-3 -0.03 7e-3 -0.063 0.011-0.094zm9.055 0.68c-0.15 1.125-0.68 2.13-1.45 2.88v0.01l0.1 0.25-0.1 0.12-0.22 0.13-0.25 0.22 0.19 0.19-0.25 0.25 0.1 0.15-0.28 0.28c1.33-0.9 2.21-2.42 2.21-4.154 0-0.11-0.02-0.218-0.05-0.326zm-9.996 0.191v0.129c0 0.185 0.019 0.367 0.039 0.549l0.158-0.158c-0.036-0.125-0.055-0.254-0.082-0.381l-0.057-0.039c1e-3 0-0.038-0.06-0.058-0.1zm8.626 1.899-0.08 0.14v0.03l0.1-0.12-0.02-0.05zm-1.942 0.46c0.033 0.1 0.062 0.19 0.091 0.29l0.028-0.08-0.119-0.21zm0.124 1.39c-0.571 0.24-1.197 0.38-1.865 0.38v1c0.789 0 1.516-0.21 2.163-0.53h-0.116v-0.15l-0.09-0.41c-0.034-0.1-0.062-0.19-0.092-0.29zm-1.865 1.38c0 0.45-0.289 0.83-0.711 0.96h0.711v-0.96zm-4.295-0.99-0.576 1c-0.138 0.24-0.06 0.54 0.182 0.68h2e-3l0.967-1.68h-0.575z" opacity=".3"/>
</svg>
