<?xml version="1.0" encoding="UTF-8"?>
<svg id="svg36" width="16" height="16" version="1.1" xmlns="http://www.w3.org/2000/svg" xmlns:cc="http://creativecommons.org/ns#" xmlns:dc="http://purl.org/dc/elements/1.1/" xmlns:rdf="http://www.w3.org/1999/02/22-rdf-syntax-ns#">
 <metadata id="metadata40">
  <rdf:RDF>
   <cc:Work rdf:about="">
    <dc:format>image/svg+xml</dc:format>
    <dc:type rdf:resource="http://purl.org/dc/dcmitype/StillImage"/>
   </cc:Work>
  </rdf:RDF>
 </metadata>
 <defs id="defs7">
  <radialGradient id="gr0" cx="9" cy="10" r="11" gradientTransform="matrix(1 0 0 .45454 0 5.4546)" gradientUnits="userSpaceOnUse">
   <stop id="stop2" stop-opacity=".23529" offset="0"/>
   <stop id="stop4" stop-opacity=".54902" offset="1"/>
  </radialGradient>
 </defs>
 <path id="path9" d="m11.85 3.064-0.19 0.03c-0.13-0.01-0.24 0-0.33 0-0.1 0-0.1 0.019-0.13 0.029v0.012c-0.24 0.04-0.42 0.256-0.62 0.433-0.48-0.105-0.616 0.032-0.775 0.108-0.16 0.08-0.292 0.176-0.42 0.306-0.256 0.258-0.484 0.683-0.477 1.18 0 0.218 0.021 0.243 0.041 0.328 0.02 0.09 0.029 0.173 0.049 0.258 0 0.04 2e-3 0.021 0.012 0.061-0.213-0.01-0.418-0.01-0.766-0.08-0.253-0.05-0.495-0.108-0.695-0.157-0.175-0.04-0.255-0.069-0.461-0.099-0.468-0.08-0.799 0.068-1.109 0.181-0.449-0.424-0.909-0.853-1.374-1.146-0.634-0.4-1.17-0.678-1.726-0.801 0.113 0.02-0.228-0.078-0.479-0.187-0.252-0.11-0.539-0.258-0.588-0.288a1 1 0 0 0-9e-3 0c-0.152-0.09-0.22-0.111-0.207-0.105l-0.44 0.867c0.05 0.027 0.1 0.048 0.147 0.076 0.3 0.184 1.132 0.554 1.379 0.604 0.637 0.142 2.104 0.955 3.066 2.051 0.12 0.133 0.446-0.422 1.188-0.284 0.214 0.023 1.926 0.521 2.64 0.373 0.245-0.168 0.259-0.629 0.494-0.832 0-0.172-0.142-0.728-0.142-0.845-6e-3 -0.41 0.352-0.626 0.452-0.606 0.11 0.031 0.27 0.014 0.65 1.028 0.11 0.191 0.28 0.27 0.28 0.089-0.22-0.708-0.4-1.457 0.1-1.537 0.07 0 0.57-0.269 0.68 0.795v0.77c0.02 0.137 1.26-0.05 2.49 0.818 0.14 0.093 0.73 0.754 0.14 1.283-0.25 0.229-0.93 0.629-1.49 0.955l0.01 6e-3h-0.02c-0.05 0.033-0.08 0.047-0.13 0.076-0.06 0.055-0.08 0.076-0.08 0.084 0 0 0-0.028 0.1-0.058 0.1-0.06 0.31-0.128 0.19-0.106a1 1 0 0 0 0.38-0.154c0 0.04 0.1 0.122 0.1 0.152 0 0.141 0 0.193-0.1 0.237 0 0.04 0 0.118-0.39 0.09-0.1 0-0.17-0.021-0.27-0.061 0-0.016-0.09-0.049-0.13-0.064-0.11 0.063-0.34 0.198-0.36 0.214-0.1 0.048-0.2 0.244-0.1 0.422 0.12 0.221 0.17 0.146 0.52 0.62 0.36 0.44 0.28 0.7-0.28 0.54-0.19-0.05-0.68-0.35-0.88-0.25-0.09 0.04 0.44 0.62 0.54 0.86 0.25 0.73-0.59 0.32-0.9 0.16s-0.85-0.51-1.05-0.51c-0.36 0.15-2.358 0.36-4.138-0.1-0.108 0.03-0.998 1.05-1.068 1.05-0.561 0.2-0.16-0.71-0.07-1.09 0.046-0.16-0.061-0.1-0.166 0-0.051 0-0.384 0.2-0.594 0.1-0.211-0.11 0.443-0.82 0.513-0.94 0.099-0.129-0.28-1.409 0.555-2.854-0.086-0.168-1.168-1.164-1.971-1.652-0.622-0.388-1.904-1.031-2.392-1.297l-0.3556 0.701-0.4434-1.347c-0.03 0.06-0.0646 0.121-0.0996 0.191a1 1 0 0 0 0.4121 1.318c0.5325 0.294 1.8645 0.963 2.3925 1.293a1 1 0 0 0 0.012 0c0.314 0.191 0.765 0.543 1.119 0.85 0.111 0.1 0.187 0.169 0.273 0.25-0.195 0.562-0.437 1.16-0.455 1.576-0.01 0.267 0 0.465 0 0.625-0.06 0.08-0.118 0.151-0.187 0.248-0.1 0.138-0.192 0.268-0.285 0.508-0.05 0.12-0.11 0.27-0.09 0.54 0.02 0.28 0.269 0.73 0.59 0.89h0.07c-0.02 0.17-0.09 0.3 0.09 0.61 0.151 0.25 0.488 0.48 0.775 0.52 0.287 0 0.494 0 0.66-0.1a1 1 0 0 0 0.168-0.1c0.194-0.11 0.171-0.12 0.198-0.14 0.03 0 0.05 0 0.07-0.1 0.04 0 0.091-0.1 0.137-0.14 0.101-0.1 0.221-0.23 0.341-0.35 0.07-0.1 0.124-0.12 0.186-0.19 0.795 0.15 1.605 0.26 2.266 0.25 0.42 0 0.791 0 1.103-0.1 0.124 0 0.224-0.1 0.324-0.1l0.1 0.1c0.17 0.1 0.38 0.22 0.58 0.32 0.18 0.1 0.47 0.29 0.99 0.36 0.26 0 0.79 0.1 1.17-0.44 0.18-0.23 0.1-0.4 0.1-0.61 0.28-0.1 0.67-0.18 0.86-0.57 0.21-0.44 0.1-0.79 0-1-0.1-0.214-0.19-0.372-0.31-0.535v-0.019c0.1-0.05 0.17-0.101 0.27-0.157 0.5-0.295 0.96-0.542 1.36-0.904 0.57-0.514 0.66-1.404 0.47-1.898-0.1-0.139-0.12-0.223-0.19-0.328v-0.049c0.1-0.166 0.17-0.343 0.24-0.541 0.1-0.198 0.24-0.344 0-0.938a1 1 0 0 0 0-0.01v-0.019a1 1 0 0 0-0.1-0.135 1 1 0 0 0 0-0.01v-0.019a1 1 0 0 0-0.12-0.16 1 1 0 0 0-0.42-0.252 1 1 0 0 0-0.12-0.022h-0.18v-0.01l-0.48-0.138-0.49 0.109s-0.12 0.07-0.16 0.104c-0.1 0.04-0.1 0.07-0.11 0.101a1 1 0 0 0 0 0.01c-0.24 0.258-0.28 0.459-0.32 0.646-0.1-0.01-0.18-0.079-0.24-0.099v-0.029c-0.1-0.692-0.35-1.328-0.95-1.594-0.14-0.07-0.29-0.101-0.42-0.11zm1.73 1.225a1 1 0 0 0-0.15 0.215l0.15-0.215zm0.8 0.658c0.07-0.074 0.09 1.118-0.14 1.168-0.05 8e-3 -0.09-0.92 0.14-1.168zm0.67 0.143c0.08 0.239-0.53 1.227-0.53 1.09-0.11-0.313 0.53-1.17 0.53-1.09zm-3.25 1.56c0 0.027-0.01 0.049 0 0.084l0.47 0.346a1 1 0 0 0 0 0.051c-0.05 0.014-0.05 0.024-0.07 0.037 0.17-0.02 0.32-0.106 0.25-0.106-0.32-0.038-0.43-0.167-0.51-0.314l-0.14-0.098zm1.26 1.067c-0.04 8e-3 -0.1 0.033-0.15 0.053 0.04 0.018 0.08 0.038 0.13 0.06 0.09-0.058 0.15-0.105 0.12-0.113h-0.1zm0.25 0.308c-0.02-1e-3 -0.05 0.022-0.07 0.03v0.099c0.06-0.074 0.1-0.129 0.07-0.129zm-1.03 0.121c0 4e-3 -0.03 0.02-0.03 0.022 0 3e-3 0.03-9e-3 0.04-8e-3 0-4e-3 -0.01-0.01-0.01-0.014z" fill="#fff" opacity=".05"/>
 <path id="base" d="m1.0904 4.0016c-.0306.0595-.0611.1186-.0904.1780.4642.2564 1.802.9245 2.437 1.3204.8026.4885 1.8874 1.4851 1.9728 1.6529-.8348 1.445-.4560 2.7239-.5546 2.8601-.070972.11361-.72705.82975-.51579.93557.20962.10418.54302-.05947.59336-.09147.10481-.06398.21292-.15709.16753.02707-.088715.37653-.49144 1.2817.06437 1.0894.067671-.03856.96225-1.0188 1.0704-1.0525 1.7797.46143 3.7702.24979 4.1387.07834.19187.01272.73489.35233 1.0444.51434.30947.16037 1.1525.56233.90283-.16816-.07757-.23092-.63174-.82032-.54178-.85887.19806-.07834.68827.20344.87684.25635.56406.15709.63999-.0607.28389-.53977-.35156-.47907-.40438-.40524-.51579-.62631-.08706-.17801 0-.37489.06437-.42287.11430-.086544 1.7987-1.016 2.1935-1.3716.58511-.52870 0-1.1886-.14360-1.2817-1.2135-.86831-2.4597-.68251-2.4758-.82032-.0083-.15709-.005-.61032-.026-.76741-.1209-1.064-.61564-.79612-.68331-.79612-.49474.07711-.31277.82975-.10316 1.5381.01609.18088-.17248.10090-.28389-.089825-.38044-1.0143-.54013-.99669-.64494-1.027-.10151-.022559-.45926.19401-.45307.60416.00165.11690.14194.67471.14194.84616-.2334.2032-.2449.6646-0.49.8328-.7139.1472-2.4292-.3507-2.6433-.3733-.7415-.1378-1.0654.4151-1.1847.2822-.9622-1.0959-2.4324-1.9097-3.0691-2.0508-.2468-.0529-1.0799-.4183-1.3799-.6025-.0482-.0287-.1031-.0496-.1563-.0771m13.233.96141c-.23231.24815-.19187 1.1759-.14360 1.1681.23685-.047989.21457-1.2428.14360-1.1681m.67217.14109c-.02723-.075469-.63834.77725-.53023 1.091.04828.13617.61234-.85231.53023-1.091m-3.1735 1.4499c.0083-.0082.01774.00328.02723.012715.07097.23379.14978.45651.61729.51270.05488.00656-.25954.18908-.47535.07711-.19682-.11854-.21457-.54961-.16918-.60252m1.2123 1.1776c.04333-.00656.07427-.00492.10481 0 .11430.028711-.82938.51762-.90283.45035-.04498-.043067 0.503-.39580.79968-.45035m.24510.30926c.09821.0082-.54632.67143-.61894.60252-.05323-.047989.41758-.61852.61894-.60252" fill="url(#gr0)"/>
 <path id="path17" d="m1.143 3.986-0.049 0.02c-0.03 0.06-0.06 0.118-0.09 0.178 0.464 0.256 1.802 0.924 2.437 1.32 0.803 0.488 1.885 1.484 1.971 1.652-0.835 1.445-0.456 2.725-0.555 2.854-0.07 0.12-0.724 0.83-0.513 0.94 0.21 0.1 0.543-0.1 0.594-0.1 0.105-0.1 0.212-0.16 0.166 0-0.09 0.38-0.491 1.29 0.07 1.09 0.07 0 0.96-1.02 1.068-1.05 1.78 0.46 3.778 0.25 4.138 0.1 0.2 0 0.74 0.35 1.05 0.51s1.15 0.57 0.9-0.16c-0.1-0.24-0.63-0.82-0.54-0.86 0.2-0.1 0.69 0.2 0.88 0.25 0.56 0.16 0.64-0.1 0.28-0.54-0.35-0.474-0.4-0.399-0.52-0.62-0.1-0.178 0-0.374 0.1-0.422 0.11-0.09 1.8-1.016 2.19-1.371 0.59-0.529 0-1.19-0.14-1.283-1.23-0.868-2.47-0.681-2.49-0.818v-0.77c-0.11-1.064-0.61-0.795-0.68-0.795-0.5 0.08-0.32 0.829-0.1 1.537 0 0.181-0.17 0.102-0.28-0.089-0.38-1.014-0.54-0.997-0.65-1.028-0.1-0.02-0.458 0.196-0.452 0.606 0 0.117 0.142 0.673 0.142 0.845-0.235 0.203-0.249 0.664-0.494 0.832-0.714 0.148-2.426-0.35-2.64-0.373-0.742-0.138-1.068 0.417-1.188 0.284-0.962-1.096-2.429-1.909-3.066-2.051-0.247-0.05-1.079-0.42-1.379-0.604-0.05-0.03-0.104-0.05-0.157-0.08l-3e-3 -4e-3zm10.297 0.618v9e-3h-0.1c0.1 0 0.1-9e-3 0.1-9e-3zm2.94 0.343c-0.23 0.248-0.19 1.176-0.14 1.168 0.23-0.05 0.21-1.242 0.14-1.168zm0.67 0.143c0-0.08-0.64 0.777-0.53 1.09 0 0.137 0.61-0.851 0.53-1.09zm-4.71 0.441 0.12 0.131v0.199c0.08 0.094 0.17 0.177 0.33 0.235 0.12 0.045 0.37 0.067 0.57-0.102 0.1-0.083 0.1-0.16 0.1-0.25 0.02 0.073 0.12 0.146 0.12 0.186a0.5 0.5 0 0 0-0.14 0.039v0.01a0.5 0.5 0 0 0-0.1 0.031v0.019a0.5 0.5 0 0 0 0 0.039 0.5 0.5 0 0 0 0 0.032c-0.13 0.14-0.13 0.199-0.13 0.259v0.149 0.281c0.04 0.2 0.09 0.472 0.41 0.666a0.5 0.5 0 0 0 0 0.012c0.15 0.08 0.24 0.019 0.36 0.019-0.04 0.03-0.14 0.06-0.14 0.09-0.03 0.027-0.03 0.057-0.13 0.127 0 0.033-0.1 0.071-0.1 0.178v0.099 0.135c0 1e-3 0.1 0.157 0.1 0.158s0.1 0.137 0.1 0.137c0.13 0.113 0.2 0.113 0.3 0.113v0.081 0.019c-0.18 0.155-0.18 0.275-0.28 0.443 0 0.168 0 0.388 0.1 0.602 0.05 0.098 0.06 0.147 0.16 0.217-0.1-0.01-0.1-0.022-0.1-0.022-0.13-0.03-0.27-0.058-0.48 0.022-0.15 0.06-0.31 0.265-0.31 0.395v0.25c0 0.09 0.1 0.19 0.1 0.19l0.1 0.1c-0.12-0.06-0.23-0.1-0.37-0.2-0.11-0.06-0.21-0.06-0.31-0.16-0.11 0-0.19-0.1-0.37-0.1a0.5 0.5 0 0 0-0.25 0.1c0.03 0-0.162 0.1-0.405 0.1-0.244 0.1-0.566 0.1-0.931 0.1-0.73 0.01-1.633-0.05-2.461-0.26a0.5 0.5 0 0 0-0.276 0c-0.122 0.1-0.142 0.1-0.172 0.1-0.03 0.1-0.06 0.1-0.08 0.1-0.048 0.04-0.098 0.04-0.148 0.14-0.03 0-0.072 0.1-0.102 0.1 0.01-0.06 0.04-0.09 0-0.21-0.036-0.1-0.152-0.22-0.298-0.32h-0.02c0.161-0.22 0.111-0.3 0.111-0.378v-0.233c-0.01-0.163-9e-3 -0.359-9e-3 -0.59 0.02-0.463 0.117-1.054 0.486-1.693a0.5 0.5 0 0 0 0.06-0.189c0.051-0.02 0.121-0.029 0.151-0.049 0.109-0.061 0.166-0.103 0.236-0.143 0.137-0.08 0.252-0.13 0.492-0.09a0.5 0.5 0 0 0 0.039 0c-0.068 0 0.139 0.03 0.342 0.08 0.203 0.048 0.466 0.106 0.748 0.166 0.564 0.122 1.163 0.235 1.707 0.123a0.5 0.5 0 0 0 0.184-0.08c0.296-0.202 0.336-0.467 0.436-0.634 0.1-0.165 0.1-0.255 0.1-0.235a0.5 0.5 0 0 0 0.17-0.377v-0.127c-0.04-0.053-0.08-0.106-0.12-0.17a0.5 0.5 0 0 1 0-0.08v-0.08zm1.91 0.701c0.15 0.02 0.33 0.031 0.54 0.071 0.42 0.071 0.95 0.22 1.48 0.597a0.5 0.5 0 0 0 0 0.01c-0.1-0.04 0 0.011 0 0.061 0.01 0.05 0.11 0.115 0.11 0.175 0.01 0.116 0.05 0.12-0.1 0.256-0.06 0.048-0.38 0.248-0.62 0.403 0-0.021-0.1-0.072-0.1-0.112v-0.099c0-2e-3 -0.11-0.2-0.11-0.201 0 0-0.1-0.051-0.1-0.071 0-0.01-0.1-0.031-0.1-0.041-0.01-0.02-0.11-0.039-0.11-0.039-0.05-9e-3 -0.14-8e-3 -0.23 0v4e-3 0.024l0.22 0.316c-0.09 0.01-0.12 0.03-0.22 0.07v-0.386l-0.02-0.028c0.01-1e-3 0.01 1e-3 0.02 0v-0.015-0.141-0.188s-0.1-0.163-0.1-0.164l-0.13-0.099-0.1-0.039c0-0.01-0.1-0.01-0.1-0.01-0.15-0.02-0.15-0.041-0.15-0.041v-0.125a0.5 0.5 0 0 0-0.1-0.178l0.02-0.01zm-0.45 0.305 0.04 2e-3v0.01c0.1 0.234 0.15 0.457 0.61 0.513 0.1 0-0.26 0.191-0.48 0.081-0.19-0.119-0.22-0.553-0.17-0.606zm1.26 1.18h0.1c0.11 0.03-0.83 0.518-0.91 0.451 0-0.04 0.51-0.397 0.81-0.451zm0.25 0.308c0.1 0-0.56 0.673-0.62 0.604-0.1-0.05 0.42-0.62 0.62-0.604z" opacity=".3"/>
 <path id="path24" d="m1.143 4.986-0.049 0.02c-0.03 0.06-0.06 0.118-0.09 0.178 0.464 0.256 1.802 0.924 2.437 1.32 0.629 0.382 1.302 0.982 1.661 1.346 0.06-0.171 0.135-0.346 0.228-0.526-0.931-0.881-2.095-1.527-2.648-1.65-0.247-0.05-1.079-0.42-1.379-0.604-0.05-0.03-0.104-0.05-0.157-0.08l-3e-3 -4e-3zm10.057 0.252c-0.08 0.091-0.11 0.221-0.11 0.383 0.1 0.124 0.22 0.178 0.22 0.027-0.04-0.137-0.08-0.274-0.11-0.41zm-1.16 0.547c-0.065 0.095-0.114 0.206-0.112 0.352 0 4e-3 5e-3 0.025 6e-3 0.031 0.037-0.071 0.076-0.137 0.136-0.186 0-0.04-0.02-0.125-0.03-0.197zm4.34 0.162c-0.06 0.071-0.11 0.2-0.13 0.344 0.05 0.033 0.11 0.07 0.17 0.107 0.01-0.256-0.01-0.484-0.04-0.451zm0.67 0.143c0-0.046-0.2 0.221-0.36 0.514 0.04 0.047 0.08 0.103 0.12 0.175 0.15-0.26 0.28-0.569 0.24-0.689zm-3.25 0.447c-0.05 0.053-0.02 0.487 0.17 0.606 0.22 0.11 0.58-0.081 0.48-0.081-0.46-0.056-0.51-0.279-0.61-0.513v-0.01l-0.04-2e-3zm2.97 1.176c-0.02 0.021-0.03 0.043-0.05 0.064-0.39 0.355-2.08 1.281-2.19 1.371-0.1 0.048-0.2 0.244-0.1 0.422 0.09 0.167 0.18 0.228 0.35 0.422 0.41-0.247 1.6-0.905 1.94-1.215 0.42-0.374 0.24-0.806 0.05-1.064zm-1.71 4e-3c-0.22 0.039-0.49 0.213-0.65 0.334 0.01 3e-3 0.02 9e-3 0.04 0.011 0.06 0-0.05 0.061-0.18 0.092 0 2e-3 -0.02 0.013-0.02 0.014 0.08 0.067 1.02-0.421 0.91-0.451h-0.1zm0.25 0.308c-0.2-0.016-0.72 0.554-0.62 0.604 0.06 0.069 0.72-0.604 0.62-0.604zm0 1c0.1 0-0.56 0.673-0.62 0.604-0.1-0.05 0.42-0.62 0.62-0.604zm-1.33 1.445c-0.07-0.01-0.14-0.01-0.19 0.01-0.09 0.04 0.44 0.62 0.54 0.86 0.04 0.12 0.04 0.2 0.03 0.26 0.12 0.05 0.24 0.11 0.31 0.13 0.56 0.16 0.64-0.1 0.28-0.54-0.28-0.38-0.36-0.43-0.45-0.53-0.15-0.07-0.34-0.16-0.52-0.19zm-6.904 0.28c-0.034 0.01-0.086 0.05-0.138 0.1-8e-3 0-0.055 0.02-0.075 0.03-1e-3 0.04 5e-3 0.12-6e-3 0.13-0.07 0.12-0.724 0.83-0.513 0.94 0.193 0.09 0.471-0.06 0.556-0.09-0.073-0.22 0.14-0.74 0.204-1.01 0.023-0.08 6e-3 -0.11-0.028-0.1zm1.166 0.14c-0.108 0.03-0.998 1.05-1.068 1.05-0.042 0.01-0.068 0.01-0.1 0.02-0.118 0.41-0.422 1.17 0.1 0.98 0.07 0 0.96-1.02 1.068-1.05 1.78 0.46 3.778 0.25 4.138 0.1 0.2 0 0.74 0.35 1.05 0.51s1.15 0.57 0.9-0.16c-0.07-0.16-0.3-0.45-0.44-0.65-0.18-0.06-0.35-0.13-0.46-0.19-0.31-0.16-0.85-0.51-1.05-0.51-0.36 0.15-2.358 0.36-4.138-0.1z" fill="#fff" opacity=".2"/>
 <path id="path31" d="m1.143 3.986-0.053 0.016c-0.03 0.06-0.06 0.118-0.09 0.178 0.464 0.256 1.803 0.924 2.438 1.32 0.803 0.488 1.886 1.484 1.972 1.652-0.033 0.057-0.053 0.112-0.082 0.168 0.141 0.134 0.292 0.257 0.418 0.401 0.12 0.133 0.444-0.421 1.186-0.283 0.214 0.023 1.928 0.521 2.642 0.373 0.245-0.168 0.258-0.629 0.496-0.832 0-0.166-0.13-0.669-0.14-0.813-0.118 0.224-0.17 0.517-0.356 0.645-0.714 0.148-2.428-0.35-2.642-0.373-0.742-0.138-1.066 0.416-1.186 0.283-0.962-1.096-2.431-1.909-3.068-2.051-0.247-0.05-1.079-0.42-1.379-0.604-0.05-0.03-0.103-0.05-0.156-0.08zm10.387 0.096c-0.06 9e-3 -0.1 0.025-0.12 0.025-0.4 0.065-0.36 0.566-0.21 1.127 0.05-0.062 0.11-0.111 0.21-0.127 0.07 0 0.57-0.269 0.68 0.795v0.77c0.02 0.137 1.26-0.05 2.49 0.818 0.04 0.027 0.12 0.113 0.19 0.219 0.31-0.33 0.2-0.685 0.04-0.932-0.14 0.26-0.29 0.471-0.29 0.403-0.05-0.133 0.05-0.364 0.17-0.58-0.04-0.043-0.09-0.094-0.11-0.11-0.05-0.037-0.11-0.062-0.16-0.095-0.01 0.32-0.05 0.692-0.18 0.72-0.04 6e-3 -0.06-0.465 0.01-0.826-1.11-0.626-2.14-0.493-2.16-0.617v-0.77c-0.08-0.798-0.38-0.845-0.56-0.82zm-1.15 0.445c-0.1-0.02-0.462 0.196-0.456 0.606 0 0.089 0.071 0.409 0.116 0.644 0.11-0.17 0.28-0.262 0.34-0.25 0.11 0.031 0.27 0.014 0.65 1.028 0.11 0.191 0.28 0.271 0.28 0.09-0.11-0.365-0.21-0.738-0.22-1.028-0.02-0.025-0.04-0.03-0.06-0.062-0.38-1.014-0.54-0.997-0.65-1.028zm4 0.42c-0.23 0.248-0.19 1.176-0.14 1.168 0.23-0.05 0.21-1.242 0.14-1.168zm0.67 0.143c0-0.08-0.64 0.777-0.53 1.09 0 0.137 0.61-0.851 0.53-1.09zm-3.21 2.449c-0.05 0.053-0.02 0.485 0.17 0.604 0.07 0.037 0.16 0.034 0.25 0.021 0-0.013 0.09-0.075 0.16-0.121-0.38-0.073-0.45-0.276-0.54-0.494v-0.01h-0.04zm-6.742 0.307c-0.402 1.139-0.16 2.053-0.243 2.164-0.07 0.12-0.726 0.83-0.515 0.94 0.177 0.08 0.41-0.03 0.519-0.07 0.012-0.34-0.19-1.444 0.551-2.728-0.019-0.036-0.212-0.205-0.312-0.306zm7.962 0.871c-0.3 0.054-0.81 0.411-0.81 0.451 0.08 0.067 1.02-0.421 0.91-0.451h-0.1zm-0.28 1.275c-0.06 0.038-0.24 0.138-0.25 0.148-0.1 0.05-0.2 0.25-0.1 0.43 0.03 0.05 0.05 0.06 0.07 0.09 0.06 0.03 0.13 0.06 0.17 0.07 0.56 0.16 0.64-0.1 0.28-0.54-0.09-0.12-0.11-0.13-0.17-0.198zm-0.8 1.478c-0.07-0.01-0.14-0.01-0.19 0.01-0.03 0.01 0.02 0.1 0.1 0.21 0.23 0.08 0.44 0.1 0.47-0.09-0.13-0.05-0.25-0.11-0.38-0.13zm-6.908 0.28c-0.034 0.01-0.086 0.05-0.138 0.1-4e-3 0-0.029 0.01-0.036 0.01 0.023 0.07 0.078 0.1 0.172 0.1 9e-3 -0.04 0.023-0.08 0.03-0.11 0.023-0.08 7e-3 -0.11-0.028-0.1z" opacity=".3"/>
</svg>
