<?xml version="1.0" encoding="UTF-8"?>
<svg id="svg36" width="16" height="16" version="1.1" xmlns="http://www.w3.org/2000/svg" xmlns:cc="http://creativecommons.org/ns#" xmlns:dc="http://purl.org/dc/elements/1.1/" xmlns:rdf="http://www.w3.org/1999/02/22-rdf-syntax-ns#">
 <metadata id="metadata40">
  <rdf:RDF>
   <cc:Work rdf:about="">
    <dc:format>image/svg+xml</dc:format>
    <dc:type rdf:resource="http://purl.org/dc/dcmitype/StillImage"/>
   </cc:Work>
  </rdf:RDF>
 </metadata>
 <defs id="defs7">
  <radialGradient id="gr0" cx="9" cy="10" r="11" gradientTransform="matrix(1 0 0 .72727 0 2.7273)" gradientUnits="userSpaceOnUse">
   <stop id="stop2" stop-opacity=".23529" offset="0"/>
   <stop id="stop4" stop-opacity=".54902" offset="1"/>
  </radialGradient>
 </defs>
 <path id="path9" d="m12.79-0.02734-0.03 0.031246c-0.59-0.028296-1.17 0.13239-1.71 0.41409-0.57 0.297-1.05 0.746-1.343 1.307a1 1 0 0 0-0.01 0.019c-0.138 0.282-0.461 0.774-0.951 1.389-0.159 0.197-0.208 0.225-0.342 0.379-0.12-0.159-0.114-0.137-0.259-0.34-0.613-0.885-1.141-1.568-1.618-2.07-0.479-0.5038-0.825-0.9451-1.654-0.9848-0.58-0.02781-1.113 0.021-1.611 0.2441-0.493 0.2211-0.92 0.6787-1.096 1.2027-0.17 0.497 0 0.964 0.18 1.262 0.186 0.301 0.417 0.536 0.701 0.785 0.335 0.296 0.924 0.967 1.66 1.948 0.352 0.468 0.603 0.823 0.777 1.084-1.131 1.545-2.123 2.931-2.8 3.967-0.766 1.17-1.238 1.96-1.469 2.66-0.195 0.57-0.3524 1.09-0.1 1.73 0.136 0.35 0.432 0.64 0.729 0.79 0.296 0.14 0.585 0.19 0.873 0.2 0.498 0 0.997 0 1.445-0.29 0.445-0.26 0.783-0.7 0.938-1.17 0.06-0.18 0.131-0.26 0.289-0.36a1 1 0 0 0 0.08-0.1c-0.06 0 0.229-0.14 0.633-0.34a1 1 0 0 0 9e-3 0c0.308-0.16 0.552-0.3 0.758-0.43 0.103-0.1 0.196-0.13 0.295-0.22 0.1-0.1 0.219-0.16 0.348-0.46a1 1 0 0 0 0.041-0.1c0.101-0.32 0.079-0.71-0.041-1.05-0.07-0.2-0.351-0.28-0.559-0.45 0.171-0.3 0.233-0.46 0.463-0.83 0.294-0.462 0.401-0.561 0.613-0.85 1.015 1.13 1.832 2.01 2.431 2.6 0.3 0.31 0.55 0.54 0.77 0.73 0.11 0.1 0.21 0.17 0.33 0.24 0.12 0.1 0.22 0.19 0.62 0.21 0.51 0 1-0.1 1.49-0.29 0.52-0.23 1.04-0.59 1.25-1.22 0.15-0.45 0-0.71 0-0.89-0.1-0.18-0.17-0.32-0.27-0.47-0.21-0.313-0.49-0.649-0.86-1.057-0.67-0.733-1.72-1.773-2.98-2.974 0-0.04 0.1-0.06 0.1-0.1 0.98-0.965 1.74-1.763 2.3-2.416 0.55-0.646 0.91-1.066 1.11-1.674 0.14-0.413 0.16-1.0572-0.23-1.5075-0.39-0.45282-0.88-0.52834-1.3-0.54884zm-0.08 1.0293c0.64 0.028 0.8 0.274 0.64 0.736-0.19 0.561-1.24 1.795-3.17 3.701-0.507 0.496-0.785 0.776-0.825 0.846 0.049 0.052 0.177 0.168 0.387 0.348 2.948 2.791 4.368 4.357 4.248 4.687-0.08 0.25-0.31 0.46-0.7 0.63-0.39 0.12-0.75 0.22-1.06 0.22-0.25-0.02-1.42-1.19-3.525-3.531-0.424-0.491-0.678-0.772-0.748-0.832-0.308 0.305-0.768 0.934-1.381 1.884-0.599 0.939-1.015 1.689-1.248 2.239 0.408-0.23 0.742-0.33 1.002-0.33 0.13 0 0.22 0.08 0.26 0.22 0.06 0.13 0.06 0.28 0.01 0.44-0.047 0.1-0.361 0.31-0.944 0.61-0.419 0.21-0.684 0.34-0.795 0.44-0.341 0.22-0.576 0.52-0.707 0.9-0.181 0.56-0.644 0.79-1.386 0.79-0.391-0.02-0.631-0.14-0.721-0.37-0.09-0.22-0.051-0.57 0.111-1.04 0.312-0.95 1.813-3.24 4.502-6.879-0.015-0.161-0.401-0.744-1.156-1.75-0.756-1.006-1.355-1.706-1.799-2.098-0.481-0.423-0.681-0.746-0.601-0.972 0.181-0.562 0.754-0.822 1.718-0.772 0.469 0.023 1.305 0.901 2.508 2.639 0.514 0.714 0.849 1.151 1.008 1.308 0.277-0.236 0.674-0.673 1.187-1.308 0.515-0.645 0.865-1.168 1.065-1.569 0.2-0.37 0.5-0.665 0.92-0.884 0.42-0.223 0.82-0.321 1.2-0.303z" fill="#fff" opacity=".05"/>
 <path id="base" d="m12.709 1.002c-0.37782-0.01812-0.77539 0.082954-1.1953 0.30273-0.41997 0.2198-0.727 0.51422-0.92188 0.88477-0.19696 0.4005-0.55242 0.92319-1.0664 1.5684-0.51334 0.63526-0.91017 1.072-1.1875 1.3086-0.15931-0.1576-0.4941-0.59406-1.0078-1.3086-1.2027-1.7374-2.0389-2.6162-2.5078-2.6387-0.96391-0.04626-1.5371 0.21033-1.7188 0.77148-0.08061 0.2261 0.12044 0.54965 0.60156 0.97266 0.4441 0.3913 1.0434 1.0917 1.7988 2.0977 0.75545 1.0061 1.141 1.5893 1.1562 1.75-2.6894 3.6401-4.1899 5.9321-4.502 6.877-0.16248 0.47208-0.20075 0.82067-0.11133 1.0449 0.08941 0.22424 0.32991 0.34448 0.7207 0.36328 0.74253 0.03564 1.2051-0.22595 1.3867-0.78711 0.13044-0.38366 0.3659-0.68291 0.70703-0.89648 0.11025-0.08469 0.37564-0.23158 0.79492-0.44141 0.58231-0.30197 0.89686-0.50748 0.94336-0.61524 0.050271-0.15757 0.046596-0.30286-0.0097656-0.43555-0.0427-0.14201-0.12952-0.21666-0.25977-0.22266-0.26055-0.0125-0.59436 0.097745-1.002 0.32812 0.233-0.5487 0.64874-1.2933 1.248-2.2344 0.61296-0.95039 1.0728-1.5796 1.3809-1.8848 0.07412 0.06356 0.32374 0.34177 0.74805 0.83203 2.1029 2.3405 3.2779 3.5155 3.5254 3.5273 0.31257 0.01501 0.66481-0.05751 1.0547-0.21875 0.39051-0.17122 0.62702-0.37898 0.70898-0.625 0.114-0.3345-1.304-1.8985-4.252-4.6895-0.21003-0.18004-0.33791-0.29536-0.38672-0.34766h-0.0019532c0.04378-0.06787 0.31835-0.34999 0.82227-0.8457 1.9321-1.9068 2.9883-3.14 3.1699-3.7012 0.16185-0.46211-0.050569-0.70823-0.63672-0.73633z" fill="url(#gr0)"/>
 <path id="path17" d="m12.71 1.002c-0.38-0.018-0.78 0.08-1.2 0.303-0.42 0.219-0.72 0.514-0.92 0.884-0.2 0.401-0.55 0.924-1.065 1.569-0.513 0.635-0.91 1.072-1.187 1.308-0.159-0.157-0.494-0.594-1.008-1.308-1.203-1.738-2.039-2.616-2.508-2.639-0.964-0.05-1.537 0.21-1.718 0.772-0.08 0.226 0.12 0.549 0.601 0.972 0.444 0.392 1.043 1.092 1.799 2.098 0.755 1.006 1.141 1.589 1.156 1.75-2.689 3.639-4.19 5.929-4.502 6.879-0.162 0.47-0.201 0.82-0.111 1.04 0.09 0.23 0.33 0.35 0.721 0.37 0.742 0 1.205-0.23 1.386-0.79 0.131-0.38 0.366-0.68 0.707-0.9 0.111-0.1 0.376-0.23 0.795-0.44 0.583-0.3 0.897-0.51 0.944-0.61 0.05-0.16 0.05-0.31-0.01-0.44-0.04-0.14-0.13-0.22-0.26-0.22-0.26 0-0.594 0.1-1.002 0.33 0.233-0.55 0.649-1.3 1.248-2.239 0.613-0.95 1.073-1.579 1.381-1.884 0.07 0.06 0.324 0.341 0.748 0.832 2.105 2.341 3.275 3.511 3.525 3.531 0.31 0 0.67-0.1 1.06-0.22 0.39-0.17 0.62-0.38 0.7-0.63 0.12-0.33-1.3-1.896-4.248-4.687-0.21-0.18-0.338-0.296-0.387-0.348 0.04-0.07 0.318-0.35 0.825-0.846 1.93-1.906 2.98-3.14 3.17-3.701 0.16-0.462 0-0.708-0.64-0.736zm0 0.502c0.09 0 0.19 0.019 0.19 0.029l-0.07 0.08v0.041a0.5 0.5 0 0 0 0 0.01c-0.04 0.113-0.32 0.577-0.83 1.176-0.52 0.599-1.26 1.376-2.217 2.324-0.253 0.249-0.448 0.444-0.59 0.59-0.071 0.073-0.123 0.134-0.173 0.184-0.047 0.05-0.077 0.076-0.127 0.156a0.5 0.5 0 0 0 0.06 0.613 0.5 0.5 0 0 0 0.07 0.061c0.083 0.082 0.175 0.164 0.34 0.306l0.022 0.022c1.455 1.38 2.545 2.463 3.235 3.214 0.34 0.39 0.59 0.69 0.73 0.89 0.1 0 0.1 0.1 0.1 0.1-0.04 0.07-0.1 0.15-0.35 0.26-0.31 0.17-0.56 0.17-0.77 0.17-0.03 0-0.03-0.1-0.13-0.1-0.16-0.13-0.38-0.34-0.67-0.63-0.58-0.57-1.4-1.445-2.446-2.611-0.213-0.247-0.383-0.44-0.512-0.582-0.128-0.143-0.189-0.211-0.289-0.301a0.5 0.5 0 0 0-0.678 0.019c-0.375 0.372-0.829 1.007-1.449 1.969-0.607 0.956-1.034 1.706-1.287 2.306a0.5 0.5 0 0 0 0.551 0.68c-0.394 0.19-0.638 0.32-0.826 0.46-0.422 0.27-0.738 0.67-0.899 1.15-0.06 0.19-0.132 0.24-0.254 0.34-0.123 0.11-0.324 0.11-0.632 0.11-0.149-0.1-0.242-0.1-0.272-0.1-5e-3 -0.02-0.027-0.28 0.119-0.7 0.119-0.36 0.561-1.17 1.303-2.31 0.741-1.13 1.786-2.605 3.127-4.42a0.5 0.5 0 0 0 0.1-0.344c-0.02-0.209-0.079-0.276-0.139-0.391-0.062-0.114-0.14-0.243-0.242-0.396-0.202-0.307-0.492-0.709-0.873-1.217-0.764-1.018-1.371-1.732-1.87-2.172-0.219-0.192-0.356-0.359-0.416-0.449l-0.019-0.029c0.048-0.126 0.11-0.208 0.273-0.278 0.181-0.083 0.491-0.133 0.924-0.113-0.063-3e-3 0.254 0.116 0.641 0.524 0.388 0.407 0.887 1.045 1.48 1.902 0.517 0.72 0.825 1.137 1.063 1.373a0.5 0.5 0 0 0 0.676 0.029c0.329-0.281 0.73-0.729 1.252-1.375 0.524-0.66 0.894-1.2 1.124-1.66v0.01c0.14-0.276 0.36-0.493 0.71-0.674 0.36-0.186 0.66-0.256 0.94-0.246zm-9.101 0.504h0.01c-0.01-0.02 1e-3 -1e-3 -0.029 0.049a0.5 0.5 0 0 0 0-0.01c0-0.02 9e-3 -0.019 0.019-0.039zm1.83 10.462h0.03a0.5 0.5 0 0 1-0.045 0.01c8e-3 0 8e-3 -0.01 0.015-0.01z" opacity=".3"/>
 <path id="path24" d="m13.15 2.096c-0.39 0.653-1.36 1.749-2.97 3.343-0.507 0.496-0.785 0.776-0.825 0.846 0.049 0.052 0.177 0.168 0.387 0.348 0.05 0.047 0.081 0.079 0.129 0.125 0.125-0.126 0.118-0.132 0.309-0.319 1.93-1.906 2.98-3.14 3.17-3.701 0.11-0.321 0.05-0.53-0.2-0.642zm-9.802 0.406c-0.109 0.108-0.195 0.235-0.244 0.389-0.08 0.226 0.12 0.549 0.601 0.972 0.444 0.392 1.043 1.092 1.799 2.098 0.373 0.497 0.653 0.887 0.846 1.178 0.111-0.153 0.194-0.271 0.31-0.428-0.015-0.161-0.401-0.744-1.156-1.75-0.756-1.006-1.355-1.706-1.799-2.098-0.149-0.131-0.262-0.249-0.357-0.361zm4.609 5.305c-0.308 0.305-0.768 0.934-1.381 1.884-0.599 0.939-1.015 1.689-1.248 2.239 0.253-0.14 0.468-0.22 0.664-0.27 0.176-0.3 0.355-0.61 0.584-0.97 0.613-0.951 1.073-1.578 1.381-1.883 0.07 0.06 0.324 0.341 0.748 0.832 2.105 2.341 3.275 3.511 3.525 3.531 0.31 0 0.67-0.1 1.06-0.22 0.39-0.17 0.62-0.38 0.7-0.63 0.03-0.09-0.09-0.32-0.31-0.61-0.1 0.09-0.23 0.17-0.39 0.24-0.39 0.12-0.75 0.22-1.06 0.22-0.25-0.02-1.42-1.19-3.525-3.531-0.424-0.491-0.678-0.772-0.748-0.832zm-1.627 4.793c-0.084 0-0.188 0.03-0.287 0.05-0.123 0.07-0.219 0.13-0.387 0.22-0.419 0.21-0.684 0.34-0.795 0.44-0.341 0.22-0.576 0.52-0.707 0.9-0.181 0.56-0.644 0.79-1.386 0.79-0.317-0.02-0.53-0.1-0.649-0.25-0.114 0.38-0.151 0.69-0.072 0.88 0.09 0.23 0.33 0.35 0.721 0.37 0.742 0 1.205-0.23 1.386-0.79 0.131-0.38 0.366-0.68 0.707-0.9 0.111-0.1 0.376-0.23 0.795-0.44 0.583-0.3 0.897-0.51 0.944-0.61 0.05-0.16 0.05-0.31-0.01-0.44-0.04-0.14-0.13-0.22-0.26-0.22z" fill="#fff" opacity=".2"/>
 <path id="path31" d="m12.71 1.002c-0.38-0.018-0.78 0.08-1.2 0.303-0.42 0.219-0.72 0.514-0.92 0.884-0.2 0.401-0.55 0.924-1.065 1.569-0.513 0.635-0.91 1.072-1.187 1.308-0.159-0.157-0.494-0.594-1.008-1.308-1.203-1.738-2.039-2.616-2.508-2.639-0.964-0.05-1.537 0.21-1.718 0.772-0.056 0.156 0.032 0.362 0.244 0.611 0.287-0.287 0.775-0.419 1.474-0.383 0.469 0.023 1.305 0.901 2.508 2.639 0.514 0.714 0.849 1.151 1.008 1.308 0.277-0.236 0.674-0.673 1.187-1.308 0.515-0.645 0.865-1.168 1.065-1.569 0.2-0.37 0.5-0.665 0.92-0.884 0.42-0.223 0.82-0.323 1.2-0.303 0.2 9e-3 0.33 0.045 0.44 0.094 0.08-0.128 0.17-0.266 0.2-0.358 0.16-0.462 0-0.708-0.64-0.736zm-2.839 5.756c-0.208 0.209-0.491 0.483-0.516 0.527 0.049 0.052 0.177 0.168 0.387 0.348 2.108 1.993 3.398 3.337 3.938 4.077 0.15-0.12 0.26-0.25 0.31-0.39 0.12-0.32-1.27-1.858-4.119-4.562zm-3.521 0.381c-2.475 3.371-3.893 5.541-4.192 6.451-0.162 0.47-0.201 0.82-0.111 1.04 0.017 0.04 0.044 0.08 0.072 0.12 0.017-0.06 0.019-0.1 0.039-0.16 0.312-0.95 1.813-3.24 4.502-6.879-7e-3 -0.081-0.113-0.275-0.31-0.572zm-0.02 4.461c-0.099 0-0.218 0.03-0.338 0.06-0.283 0.49-0.52 0.93-0.664 1.27 0.277-0.16 0.506-0.23 0.715-0.28 0.305-0.18 0.523-0.32 0.557-0.39 0.05-0.16 0.05-0.31-0.01-0.44-0.04-0.14-0.13-0.22-0.26-0.22z" opacity=".3"/>
</svg>
