<?xml version="1.0" encoding="UTF-8"?>
<svg id="svg36" width="16" height="16" version="1.1" xmlns="http://www.w3.org/2000/svg" xmlns:cc="http://creativecommons.org/ns#" xmlns:dc="http://purl.org/dc/elements/1.1/" xmlns:rdf="http://www.w3.org/1999/02/22-rdf-syntax-ns#">
 <metadata id="metadata40">
  <rdf:RDF>
   <cc:Work rdf:about="">
    <dc:format>image/svg+xml</dc:format>
    <dc:type rdf:resource="http://purl.org/dc/dcmitype/StillImage"/>
   </cc:Work>
  </rdf:RDF>
 </metadata>
 <defs id="defs7">
  <radialGradient id="gr0" cx="9" cy="10" r="11" gradientTransform="matrix(1 0 0 .72727 0 2.7273)" gradientUnits="userSpaceOnUse">
   <stop id="stop2" stop-opacity=".23529" offset="0"/>
   <stop id="stop4" stop-opacity=".54902" offset="1"/>
  </radialGradient>
 </defs>
 <path id="path9" d="m5.502-0.06836-2e-3 0.06836a1 1 0 0 0-0.389 0.07812c-1.04 0.09568-2.054 0.50208-2.793 1.2399-0.833 0.833-1.318 2.004-1.318 3.182 1e-3 0.545 0.27 1.033 0.469 1.539-0.05-0.02-0.05-0.041-0.219-0.041-0.6752 0-1.25 0.575-1.25 1.25v6.502c0 0.68 0.5748 1.25 1.25 1.25 0.287 0 0.32-0.1 0.381-0.1 0.06 0 0.1 0 0.14-0.1 0.08 0 0.161-0.1 0.25-0.13 0.18-0.1 0.402-0.22 0.661-0.38 0.105-0.1 0.259-0.16 0.375-0.23 0.08 1.02 0.904 1.87 1.943 1.87h9c1.09 0 2-0.91 2-2v-6c0-0.545-0.23-1.046-0.59-1.409 0.35-0.651 0.59-1.351 0.59-2.089 0-1.178-0.49-2.351-1.32-3.184-0.83-0.8323-2-1.3164-3.18-1.3164-1.15 2e-3 -2.169 0.57996-3 1.3614-0.831-0.7814-1.855-1.3599-2.998-1.3614zm-0.016 1.0684h0.014a3.5 3.5 0 0 1 2.951 1.705 3.5 3.5 0 0 1 2.999-1.705 3.5 3.5 0 0 1 3.5 3.5 3.5 3.5 0 0 1-1.05 2.5h0.1c0.55 0 1 0.446 1 1v6c0 0.55-0.45 1-1 1h-8.998c-0.554 0-1-0.45-1-1v-1.62c-1.327 0.83-2.632 1.62-2.75 1.62-0.139 0-0.25-0.11-0.25-0.25v-6.5c0-0.139 0.111-0.25 0.25-0.25 0.118 0 1.423 0.792 2.75 1.615v-0.615c0-0.112 0.03-0.214 0.06-0.314a3.5 3.5 0 0 1-2.062-3.186 3.5 3.5 0 0 1 3.486-3.5zm3.01 5.295a3.5 3.5 0 0 1-0.558 0.705h1.119a3.5 3.5 0 0 1-0.561-0.705z" fill="#fff" opacity=".05"/>
 <path id="base" d="m5.5 1a3.5 3.5 0 0 0-3.5 3.5 3.5 3.5 0 0 0 2.0625 3.1855c-0.033357 0.099969-0.0625 0.20299-0.0625 0.31445v0.61523c-1.3272-0.82364-2.632-1.6152-2.75-1.6152-0.1385 0-0.25 0.1115-0.25 0.25v6.5c0 0.1385 0.1115 0.25 0.25 0.25 0.11803 0 1.4228-0.79159 2.75-1.6152v1.6152c0 0.554 0.446 1 1 1h9c0.554 0 1-0.446 1-1v-6c0-0.554-0.446-1-1-1h-0.054688a3.5 3.5 0 0 0 1.0547-2.5 3.5 3.5 0 0 0-3.5-3.5 3.5 3.5 0 0 0-3 1.7051 3.5 3.5 0 0 0-3-1.7051zm0 2a1.5 1.5 0 0 1 1.5 1.5 1.5 1.5 0 0 1-1.5 1.5 1.5 1.5 0 0 1-1.5-1.5 1.5 1.5 0 0 1 1.5-1.5zm6 0a1.5 1.5 0 0 1 1.5 1.5 1.5 1.5 0 0 1-1.5 1.5 1.5 1.5 0 0 1-1.5-1.5 1.5 1.5 0 0 1 1.5-1.5zm-3 3.2949a3.5 3.5 0 0 0 0.56055 0.70508h-1.1191a3.5 3.5 0 0 0 0.55859-0.70508z" fill="url(#gr0)"/>
 <path id="path17" d="m5.486 1a3.5 3.5 0 0 0-3.486 3.5 3.5 3.5 0 0 0 2.062 3.186c-0.03 0.1-0.06 0.202-0.06 0.314v0.615c-1.327-0.823-2.632-1.615-2.75-1.615-0.139 0-0.25 0.111-0.25 0.25v6.5c0 0.14 0.111 0.25 0.25 0.25 0.118 0 1.423-0.79 2.75-1.62v1.62c0 0.55 0.446 1 1 1h8.998c0.55 0 1-0.45 1-1v-6c0-0.554-0.45-1-1-1h-0.1a3.5 3.5 0 0 0 1.05-2.5 3.5 3.5 0 0 0-3.5-3.5 3.5 3.5 0 0 0-2.999 1.705 3.5 3.5 0 0 0-2.951-1.705h-0.014zm-0.039 0.5h0.053c-7e-3 0-0.014 2e-3 -0.021 2e-3 1.02 0.012 2.016 0.583 2.539 1.459a0.5 0.5 0 0 0 0.859 0c0.528-0.885 1.543-1.46 2.573-1.461 0.79 0 1.57 0.324 2.12 0.879 0.56 0.555 0.88 1.336 0.88 2.121 0 0.796-0.33 1.586-0.9 2.143a0.5 0.5 0 0 0 0.35 0.857h0.1c0.29 0 0.5 0.214 0.5 0.5v6c0 0.29-0.21 0.5-0.5 0.5h-9.004c-0.286 0-0.5-0.21-0.5-0.5v-1.62a0.5 0.5 0 0 0-0.764-0.42c-0.662 0.41-1.319 0.81-1.82 1.11-0.17 0.1-0.289 0.14-0.416 0.24v-5.621c0.127 0.073 0.246 0.138 0.416 0.239 0.501 0.297 1.158 0.7 1.82 1.111a0.5 0.5 0 0 0 0.764-0.424v-0.615c0-0.024 0.011-0.076 0.041-0.156a0.5 0.5 0 0 0-0.269-0.614c-1.045-0.47-1.768-1.584-1.768-2.73 0-0.785 0.324-1.566 0.879-2.121 0.55-0.55 1.322-0.871 2.1-0.877-0.011 0-0.021-2e-3 -0.032-2e-3zm2.625 4.537c-0.132 0.221-0.296 0.426-0.48 0.606a0.5 0.5 0 0 0 0.349 0.857h1.12a0.5 0.5 0 0 0 0.347-0.859c-0.185-0.18-0.347-0.383-0.48-0.604l-0.276 0.49a3.5 3.5 0 0 0 0.405 0.473h-1.119a3.5 3.5 0 0 0 0.408-0.48l-0.274-0.483z" opacity=".3"/>
 <path id="path24" d="m5.496 3a1.5 1.5 0 0 0-1.5 1.5 1.5 1.5 0 0 0 0.088 0.5 1.5 1.5 0 0 1 1.412-1 1.5 1.5 0 0 1 1.412 1 1.5 1.5 0 0 0 0.088-0.5 1.5 1.5 0 0 0-1.5-1.5zm6.004 0a1.5 1.5 0 0 0-1.504 1.5 1.5 1.5 0 0 0 0.084 0.5 1.5 1.5 0 0 1 1.42-1 1.5 1.5 0 0 1 1.41 1 1.5 1.5 0 0 0 0.09-0.5 1.5 1.5 0 0 0-1.5-1.5zm-9.461 1.994a3.5 3.5 0 0 0-0.039 0.506 3.5 3.5 0 0 0 1.188 2.617c0.28 0.172 0.518 0.315 0.814 0.498v-0.615c0-0.112 0.03-0.214 0.06-0.314a3.5 3.5 0 0 1-2.023-2.692zm12.871 4e-3a3.5 3.5 0 0 1-1.01 2.002h0.1c0.2 0 0.37 0.072 0.53 0.17a3.5 3.5 0 0 0 0.42-1.67 3.5 3.5 0 0 0-0.04-0.502zm-6.414 1.297a3.5 3.5 0 0 1-0.558 0.705h1.119a3.5 3.5 0 0 1-0.561-0.705zm-4.494 6.085c-1.327 0.83-2.632 1.62-2.75 1.62-0.139 0-0.25-0.11-0.25-0.25v1c0 0.14 0.111 0.25 0.25 0.25 0.118 0 1.423-0.79 2.75-1.62v-1zm0 1.62v1c0 0.55 0.446 1 1 1h8.998c0.55 0 1-0.45 1-1v-1c0 0.55-0.45 1-1 1h-8.998c-0.554 0-1-0.45-1-1z" fill="#fff" opacity=".2"/>
 <path id="path31" d="m5.486 1a3.5 3.5 0 0 0-3.486 3.5 3.5 3.5 0 0 0 0.039 0.494 3.5 3.5 0 0 1 3.447-2.994h0.014a3.5 3.5 0 0 1 2.951 1.705 3.5 3.5 0 0 1 2.999-1.705 3.5 3.5 0 0 1 3.46 2.998 3.5 3.5 0 0 0 0.04-0.498 3.5 3.5 0 0 0-3.5-3.5 3.5 3.5 0 0 0-2.999 1.705 3.5 3.5 0 0 0-2.951-1.705h-0.014zm-1.398 4a1.5 1.5 0 0 0-0.088 0.5 1.5 1.5 0 0 0 1.5 1.5 1.5 1.5 0 0 0 1.5-1.5 1.5 1.5 0 0 0-0.088-0.5 1.5 1.5 0 0 1-1.412 1 1.5 1.5 0 0 1-1.412-1zm6.002 0a1.5 1.5 0 0 0-0.09 0.5 1.5 1.5 0 0 0 1.5 1.5 1.5 1.5 0 0 0 1.5-1.5 1.5 1.5 0 0 0-0.09-0.5 1.5 1.5 0 0 1-1.41 1 1.5 1.5 0 0 1-1.41-1zm-8.838 2c-0.139 0-0.25 0.111-0.25 0.25v1c0-0.139 0.111-0.25 0.25-0.25 0.118 0 1.423 0.792 2.75 1.615v-0.615c0-0.112 0.03-0.214 0.06-0.314a3.5 3.5 0 0 1-0.871-0.567c-0.98-0.601-1.847-1.119-1.939-1.119zm13.278 0.17a3.5 3.5 0 0 1-0.63 0.83h0.1c0.55 0 1 0.446 1 1v-1c0-0.356-0.2-0.653-0.47-0.83zm-6.03 0.125a3.5 3.5 0 0 1-0.559 0.705h1.12a3.5 3.5 0 0 1-0.561-0.705z" opacity=".3"/>
</svg>
