<?xml version="1.0" encoding="UTF-8"?>
<svg id="svg36" width="16" height="16" version="1.1" xmlns="http://www.w3.org/2000/svg" xmlns:cc="http://creativecommons.org/ns#" xmlns:dc="http://purl.org/dc/elements/1.1/" xmlns:rdf="http://www.w3.org/1999/02/22-rdf-syntax-ns#">
 <metadata id="metadata40">
  <rdf:RDF>
   <cc:Work rdf:about="">
    <dc:format>image/svg+xml</dc:format>
    <dc:type rdf:resource="http://purl.org/dc/dcmitype/StillImage"/>
   </cc:Work>
  </rdf:RDF>
 </metadata>
 <defs id="defs7">
  <radialGradient id="gr0" cx="9" cy="10" r="11" gradientTransform="matrix(1 0 0 .72727 0 2.7273)" gradientUnits="userSpaceOnUse">
   <stop id="stop2" stop-opacity=".23529" offset="0"/>
   <stop id="stop4" stop-opacity=".54902" offset="1"/>
  </radialGradient>
 </defs>
 <path id="path9" d="m3.406 0c-1.55 0-2.822 1.272-2.822 2.822v10.358c0 1.55 1.272 2.82 2.822 2.82h9.184c1.55 0 2.83-1.27 2.83-2.82v-9.227-0.474a1 1 0 0 0-0.3-0.708l-0.31-0.316-1.66-1.7655-0.32-0.3575a1 1 0 0 0-0.75-0.332h-0.51-8.164zm0 1h8.164 0.51l0.33 0.365 1.68 1.785 0.33 0.329v0.474 9.227c0 0.99-0.84 1.82-1.83 1.82h-9.184c-0.989 0-1.822-0.83-1.822-1.82v-10.358c0-0.989 0.833-1.822 1.822-1.822zm0.51 2.334v9.336h8.164v-8.242l-1.02-1.094h-7.144zm2.258 1.246h3.654c0.602 0 1.092 0.486 1.092 1.09v2.391c0 0.603-0.49 1.087-1.092 1.087h-3.654c-0.604 0-1.09-0.484-1.09-1.087v-2.391c0-0.604 0.486-1.09 1.09-1.09zm4.906 5.041v2.049h-6.164v-2.047c0.358 0.287 0.772 0.527 1.258 0.527h3.654c0.482 0 0.902-0.242 1.252-0.529z" fill="#fff" opacity=".05"/>
 <path id="base" d="m3.4062 1c-0.9897 0-1.8223 0.83257-1.8223 1.8223v10.355c0 0.98971 0.83255 1.8223 1.8223 1.8223h9.1875c0.98973 0 1.8223-0.83254 1.8223-1.8223v-9.6992l-0.32812-0.32812-1.6758-1.7852-0.32812-0.36523h-0.51172zm0.50977 2.334h7.1465l1.0215 1.0938v8.2383h-8.168zm2.2578 1.2461c-0.60349 0-1.0898 0.48635-1.0898 1.0898v2.3906c0 0.60348 0.48635 1.0879 1.0898 1.0879h3.6543c0.60349 0 1.0879-0.48441 1.0879-1.0879v-2.3906c0-0.60349-0.4844-1.0898-1.0879-1.0898z" fill="url(#gr0)"/>
 <path id="path17" d="m3.406 1c-0.989 0-1.822 0.833-1.822 1.822v10.358c0 0.99 0.833 1.82 1.822 1.82h9.184c0.99 0 1.83-0.83 1.83-1.82v-9.227-0.474l-0.33-0.329-1.68-1.785-0.33-0.365h-0.51-8.164zm0 0.5 8.184 0.01h0.29l0.18 0.199 1.67 1.785a0.5 0.5 0 0 0 0 0.01l0.19 0.182v0.267 9.227c0 0.71-0.62 1.32-1.33 1.32h-9.184c-0.709 0-1.322-0.61-1.322-1.32v-10.358c0-0.709 0.613-1.322 1.322-1.322zm0.51 1.334a0.5 0.5 0 0 0-0.5 0.5v9.336a0.5 0.5 0 0 0 0.5 0.5h8.164a0.5 0.5 0 0 0 0.5-0.5v-8.242a0.5 0.5 0 0 0-0.13-0.342l-1.02-1.094a0.5 0.5 0 0 0-0.37-0.158h-7.144zm0 0.5h7.144l1.02 1.094v8.242h-8.164v-9.336zm2.258 1.246c-0.604 0-1.09 0.486-1.09 1.09v2.391c0 0.603 0.486 1.087 1.09 1.087h3.654c0.602 0 1.092-0.484 1.092-1.087v-2.391c0-0.604-0.49-1.09-1.092-1.09h-3.654zm0 0.5h3.654c0.332 0 0.592 0.254 0.592 0.59v2.391c0 0.335-0.26 0.587-0.592 0.587h-3.654c-0.336 0-0.59-0.253-0.59-0.587v-2.391c0-0.335 0.255-0.59 0.59-0.59z" opacity=".3"/>
 <path id="path24" d="m3.916 3.334v1h7.144l1.02 1.094v-1l-1.02-1.094h-7.144zm1.168 4.727v1c0 0.603 0.486 1.089 1.09 1.089h3.654c0.602 0 1.092-0.486 1.092-1.089v-1c0 0.603-0.49 1.087-1.092 1.087h-3.654c-0.604 0-1.09-0.484-1.09-1.087zm-3.5 5.119v1c0 0.99 0.833 1.82 1.822 1.82h9.184c0.99 0 1.83-0.83 1.83-1.82v-1c0 0.99-0.84 1.82-1.83 1.82h-9.184c-0.989 0-1.822-0.83-1.822-1.82z" fill="#fff" opacity=".2"/>
 <path id="path31" d="m3.406 1c-0.989 0-1.822 0.833-1.822 1.822v1c0-0.989 0.833-1.822 1.822-1.822h8.164 0.51l0.33 0.365 1.68 1.785 0.33 0.329v-0.526-0.474l-0.33-0.329-1.68-1.785-0.33-0.365h-0.51-8.164zm2.768 3.58c-0.604 0-1.09 0.486-1.09 1.09v1c0-0.604 0.486-1.09 1.09-1.09h3.654c0.602 0 1.092 0.486 1.092 1.09v-1c0-0.604-0.49-1.09-1.092-1.09h-3.654zm-2.258 8.09v1h8.164v-1h-8.164z" opacity=".3"/>
</svg>
