<?xml version="1.0" encoding="UTF-8"?>
<svg id="svg2" width="96" height="96" version="1.0" xmlns="http://www.w3.org/2000/svg" xmlns:cc="http://creativecommons.org/ns#" xmlns:dc="http://purl.org/dc/elements/1.1/" xmlns:rdf="http://www.w3.org/1999/02/22-rdf-syntax-ns#" xmlns:xlink="http://www.w3.org/1999/xlink">
 <defs id="defs4">
  <linearGradient id="linearGradient3736" x1="8.4488" x2="8.4488" y1="-17.352" y2="-27.198" gradientTransform="matrix(4.4444 0 0 4.4444 3.5556 147.04)" gradientUnits="userSpaceOnUse">
   <stop id="stop4083" stop-color="#aaa" offset="0"/>
   <stop id="stop4085" stop-color="#f0f0f0" offset="1"/>
  </linearGradient>
 </defs>
 <metadata id="metadata7">
  <rdf:RDF>
   <cc:Work rdf:about="">
    <dc:format>image/svg+xml</dc:format>
    <dc:type rdf:resource="http://purl.org/dc/dcmitype/StillImage"/>
   </cc:Work>
  </rdf:RDF>
 </metadata>
 <g id="layer1" transform="translate(0,74)">
  <path id="path2953" d="m51.438-45.281a0.93185 0.93185 0 0 0-0.21875 0.0625c-1.2142 0.38252-2.0737 1.1768-2.8125 1.9688s-1.4005 1.6004-2.0625 2.125a0.93185 0.93185 0 0 0-0.125 0.15625c-0.48551 0.6191-1.2727 1.1952-2.0312 1.9062s-1.5314 1.5991-1.8438 2.8125a0.93185 0.93185 0 0 0 0 0.375c0.25413 1.5462 1.108 2.7265 1.8438 3.8125s1.335 2.0633 1.4375 3.1562a0.93185 0.93185 0 0 0 0.03125 0.15625c1.3313 4.5644-0.07167 9.6362-3.0625 13.312a0.93185 0.93185 0 0 0-0.15625 0.28125c-0.24032 0.71033-0.2181 1.4325 0 2.0312s0.58271 1.0933 0.96875 1.5c0.77208 0.8135 1.6485 1.4504 2.0312 1.9688a0.93185 0.93185 0 0 0 0.125 0.125c1.4874 1.3052 2.8106 3.2425 4.8125 4.5312a0.93185 0.93185 0 0 0 0.25 0.125c0.7557 0.22263 1.5146 0.12665 2.125-0.15625s1.0793-0.72434 1.4688-1.1875c0.77882-0.92631 1.3364-2.0126 1.7812-2.5312a0.93185 0.93185 0 0 0 0.0625-0.0625c7.2643-10.756 6.2206-26.194-2.5625-35.781a0.93185 0.93185 0 0 0-0.1875-0.15625c-0.52135-0.33068-1.1762-0.56884-1.875-0.53125z" opacity=".08"/>
  <path id="path2947" d="m30.531-49.938c-1.7927 0.20235-3.165 1.1756-4.3125 2.2188s-2.1164 2.1735-3.125 2.9375c-1.3093 1.0352-2.306 2.2779-3.2812 2.8438-3.1967 0.12508-6.712-0.46705-10.219 0.53125a0.98188 0.98188 0 0 0-0.0625 0.03125c-1.9385 0.74179-3.1866 2.253-3.8438 3.9375-0.64541 1.6544-0.76937 3.4767-0.625 5.1562 3.985e-4 0.03101-3.817e-4 0.06273 0 0.09375 0.07303 5.9352-0.15928 11.925 0.125 17.938a0.98188 0.98188 0 0 0 0 0.125c0.65414 4.195 4.8514 6.5249 8.75 6.0312 0.04188-0.0053 0.0832 0.00596 0.125 0h6.0312c2.5473 2.3332 4.9775 4.876 7.7188 7.1562a0.98188 0.98188 0 0 0 0.125 0.09375c1.2974 0.75429 2.6636 0.94414 3.875 0.65625s2.2461-1.0182 3.0625-1.9375c1.5915-1.7921 2.4321-4.3555 2.0625-6.7188-0.0096-0.061362 0.01126-0.12643 0-0.1875-0.01371-11.239 0.01905-22.472-0.03125-33.719a0.98188 0.98188 0 0 0 0-0.0625c-0.09064-1.6312-0.64935-3.3148-1.6875-4.6875s-2.6298-2.4185-4.5625-2.4375a0.98188 0.98188 0 0 0-0.125 0z" opacity=".08"/>
  <path id="path2945" d="m73.219-40.094c3.6946 9.7771 3.637 20.959-0.25 30.656 3.7613-9.7364 3.8836-20.844 0.25-30.656z" opacity=".08"/>
  <path id="path2943" d="m58.75-36.281c2.5863 5.8295 2.9423 12.533 1.25 18.688-0.36512 1.3278-0.78826 2.648-1.3438 3.9062 0.52599-1.274 1.0059-2.5724 1.3438-3.9062 1.559-6.1554 1.1169-12.803-1.25-18.688z" opacity=".08"/>
  <path id="path3818" d="m72.875-9.2188c-0.42312 1.0375-0.92516 2.0327-1.4375 3.0312 0.49139-1.0053 1.0287-1.9906 1.4375-3.0312z" opacity=".08"/>
  <path id="path2958" d="m51.5-44.344c-1.9416 0.61165-2.9994 2.6989-4.5625 3.9375-1.1709 1.4931-3.1985 2.4753-3.6875 4.375 0.4175 2.5403 3.0555 4.2918 3.3125 7.0312 1.4319 4.9093-0.08683 10.268-3.25 14.156-0.71681 2.1188 1.8189 3.1947 2.875 4.625 1.609 1.4119 2.9014 3.2877 4.6875 4.4375 2.2435 0.66094 3.2615-2.228 4.4062-3.5625 7.0079-10.376 6-25.381-2.4688-34.625-0.39629-0.25136-0.84017-0.40041-1.3125-0.375z" opacity=".1"/>
  <path id="path2956" d="m30.656-48.969c-3.0019 0.33882-4.7128 3.2599-6.9688 4.9688-1.2032 0.95134-2.2258 2.343-3.5312 3.0312-3.4223 0.18072-6.9621-0.44488-10.281 0.5-3.3271 1.2732-4.1366 5.0136-3.8438 8.1875 0.077082 5.9996-0.15809 12.013 0.125 18 0.56836 3.6449 4.3264 5.7115 7.7812 5.2188h6.5312c2.6823 2.4328 5.1878 5.0617 7.9688 7.375 4.4375 2.5799 8.2838-3.0759 7.5312-7.1562-0.01432-11.305 0.01931-22.602-0.03125-33.906-0.15915-2.8643-2.0944-6.1874-5.2812-6.2188z" opacity=".1"/>
  <path id="path2965" d="m30.656-47.906c-0.3458-5e-5 -0.63266 0.11439-0.84375 0.1875a0.90419 0.90419 0 0 0-0.03125 0c-0.37429 0.14485-0.86239 0.3615-1.2812 0.75l-7.7188 7.0625h-8.4688c-2.8962 0-5.2188 2.3526-5.2188 5.3125v19.031c0 2.9599 2.2915 5.4375 5.2188 5.4375h8.5938l7.5938 7.125a0.90419 0.90419 0 0 0 0.03125 0.03125c0.634 0.5504 1.402 0.87554 2.1875 0.875s1.5537-0.32731 2.1875-0.875c1.2774-1.1038 2.0074-2.9672 2-4.9375v-7.7188-18.719-7.6875c0.01644-1.6858-0.51911-3.2944-1.4688-4.4375-0.7279-0.87616-1.724-1.4373-2.7812-1.4375z" opacity=".15"/>
  <path id="path3804" d="m51.531-43.25a0.90419 0.90419 0 0 0-0.5 0.28125l-6.4375 6.4375a0.90419 0.90419 0 0 0-0.09375 1.1875c2.2552 2.8565 3.6562 6.3802 3.6562 10.281 0 3.969-1.4079 7.5693-3.7188 10.438a0.90419 0.90419 0 0 0 0.0625 1.1875l6.375 6.4062a0.90419 0.90419 0 0 0 1.3438-0.03125c4.1505-4.8337 6.6562-11.142 6.6562-18 0-6.7919-2.4539-13.06-6.5312-17.875a0.90419 0.90419 0 0 0-0.8125-0.3125z" opacity=".15"/>
  <path id="path3798" d="m30.656-47c-0.24295-3.5e-5 -0.32115 0.04141-0.5625 0.125-0.31499 0.1219-0.69237 0.30615-0.96875 0.5625l-8 7.3125h-8.8125c-2.4234 0-4.3125 1.9007-4.3125 4.4062v19.031c0 2.5055 1.8891 4.5312 4.3125 4.5312h8.9375l7.875 7.375c0.9997 0.86788 2.1866 0.86486 3.1875 0 1.0009-0.86487 1.694-2.5239 1.6875-4.25v-7.7188-18.719-7.6875c0.01442-1.4791-0.47854-2.9464-1.25-3.875-0.5786-0.69644-1.3649-1.0936-2.0938-1.0938zm21 4.6562-6.4375 6.4375c2.3678 2.999 3.8438 6.7266 3.8438 10.844 0 4.1816-1.4748 7.9821-3.9062 11l6.375 6.4062c4.0147-4.6755 6.4375-10.769 6.4375-17.406 0-6.5747-2.3693-12.624-6.3125-17.281z" opacity=".3"/>
  <path id="path3000" d="m72.156-63.844-6.0938 6.375c8.0184 8.0184 12.906 19.174 12.906 31.406 0 12.374-5.005 23.617-13.188 31.656l6.25 6.25c9.8171-9.6745 15.969-23.045 15.969-37.906 0-14.791-6.1086-28.117-15.844-37.781z" fill="#fff" opacity=".3"/>
  <path id="path2959" d="m61.969-53.656-6.375 6.375c5.2122 5.5589 8.4688 12.972 8.4688 21.188 0 8.282-3.3062 15.77-8.5938 21.344l6.3125 6.3125c6.9014-7.1872 11.156-16.912 11.156-27.656 0-10.671-4.1545-20.385-10.969-27.562z" fill="#fff" opacity=".3"/>
  <path id="path2957" transform="translate(0,-74)" d="m30.656 26c-0.24295-3.5e-5 -0.32115 0.04141-0.5625 0.125-0.31499 0.1219-0.69237 0.30615-0.96875 0.5625l-8 7.3125h-8.8125c-2.4234 0-4.3125 1.9007-4.3125 4.4062v19.031c0 2.5055 1.8891 4.5312 4.3125 4.5312h8.9375l7.875 7.375c0.9997 0.86788 2.1866 0.86486 3.1875 0 1.0009-0.86487 1.694-2.5239 1.6875-4.25v-7.7188-18.719-7.6875c0.01442-1.4791-0.47854-2.9464-1.25-3.875-0.5786-0.69644-1.3649-1.0936-2.0938-1.0938zm21 4.6562-6.4375 6.4375c2.3678 2.999 3.8438 6.7266 3.8438 10.844 0 4.1816-1.4748 7.9821-3.9062 11l6.375 6.4062c4.0147-4.6755 6.4375-10.769 6.4375-17.406 0-6.5747-2.3693-12.624-6.3125-17.281z" fill="url(#linearGradient3736)"/>
  <path id="path2983" transform="translate(0,-74)" d="m30.656 26c-0.24295-3.5e-5 -0.32115 0.04141-0.5625 0.125-0.31499 0.1219-0.69237 0.30615-0.96875 0.5625l-8 7.3125h-8.8125c-2.4234 0-4.3125 1.9007-4.3125 4.4062v2c0-2.5055 1.8891-4.4062 4.3125-4.4062h8.8125l8-7.3125c0.27638-0.25635 0.65376-0.4406 0.96875-0.5625 0.24135-0.08359 0.31955-0.12504 0.5625-0.125 0.72886 1.11e-4 1.5152 0.3973 2.0938 1.0938 0.77146 0.92859 1.2644 2.3959 1.25 3.875v-2c0.01442-1.4791-0.47854-2.9464-1.25-3.875-0.5786-0.69644-1.3649-1.0936-2.0938-1.0938zm21 4.6562-6.4375 6.4375c0.29597 0.37488 0.57679 0.75927 0.84375 1.1562l5.5938-5.5938c3.6968 4.3658 6.0065 9.9634 6.2812 16.062 0.0074-0.25766 0.03125-0.52187 0.03125-0.78125 0-6.5747-2.3693-12.624-6.3125-17.281zm-2.625 18.281c-0.21397 3.7887-1.638 7.2234-3.875 10l0.875 0.875c1.9197-2.8105 3.0312-6.2072 3.0312-9.875 0-0.33596-0.01191-0.66941-0.03125-1z" fill="#fff" opacity=".6"/>
 </g>
</svg>
