<?xml version="1.0" encoding="UTF-8"?>
<svg id="svg2" width="96" height="96" version="1.0" xmlns="http://www.w3.org/2000/svg" xmlns:cc="http://creativecommons.org/ns#" xmlns:dc="http://purl.org/dc/elements/1.1/" xmlns:rdf="http://www.w3.org/1999/02/22-rdf-syntax-ns#" xmlns:xlink="http://www.w3.org/1999/xlink">
 <defs id="defs4">
  <linearGradient id="linearGradient2955" x1="4.8829" x2="4.8829" y1="-33.968" y2="-43.829" gradientTransform="matrix(4.4444 0 0 4.4444 3.5556 147.04)" gradientUnits="userSpaceOnUse">
   <stop id="stop4083" stop-color="#aaa" offset="0"/>
   <stop id="stop4085" stop-color="#f0f0f0" offset="1"/>
  </linearGradient>
  <linearGradient id="linearGradient2927" x1="11" x2="19" y1="11.016" y2="11.016" gradientTransform="matrix(0 -3 2.9653 0 27.336 19)" gradientUnits="userSpaceOnUse">
   <stop id="stop3185" stop-color="#c80000" offset="0"/>
   <stop id="stop3187" stop-color="#f3604d" offset="1"/>
  </linearGradient>
 </defs>
 <metadata id="metadata7">
  <rdf:RDF>
   <cc:Work rdf:about="">
    <dc:format>image/svg+xml</dc:format>
    <dc:type rdf:resource="http://purl.org/dc/dcmitype/StillImage"/>
   </cc:Work>
  </rdf:RDF>
 </metadata>
 <g id="layer1" transform="translate(0,74)">
  <path id="path3761" d="m53.844-38.969c7.23e-4 -8.4e-5 -0.09447 0.03137-0.09375 0.03125 7.18e-4 -1.2e-4 -0.09446 1.55e-4 -0.09375 0 7.11e-4 -1.55e-4 -0.09445 0.03144-0.09375 0.03125 1e-3 -2.62e-4 -0.126 0.03158-0.125 0.03125 1e-3 -3.35e-4 -0.12598 0.06291-0.125 0.0625 9.78e-4 -4.08e-4 -0.1572 0.06298-0.15625 0.0625 9.46e-4 -4.78e-4 -0.12591 0.06305-0.125 0.0625 9.08e-4 -5.45e-4 -0.09462 0.09436-0.09375 0.09375 8.66e-4 -6.1e-4 -0.12582 0.06317-0.125 0.0625 8.2e-4 -6.71e-4 -0.09452 0.09448-0.09375 0.09375 5.77e-4 -5.47e-4 -0.06575 0.06523-0.09375 0.09375-0.0093 0.0095-0.03143 0.03145-0.03125 0.03125l-6 6.0625c9.53e-4 -1e-3 -0.12585 0.15734-0.125 0.15625 8.53e-4 -0.0011-0.0945 0.12616-0.09375 0.125 7.46e-4 -0.0012-0.09438 0.15748-0.09375 0.15625 6.32e-4 -0.0012-0.09426 0.18878-0.09375 0.1875 5.13e-4 -0.0013-0.06289 0.15758-0.0625 0.15625 3.89e-4 -0.0013-0.03151 0.18886-0.03125 0.1875 2.61e-4 -0.0014-0.03138 0.18888-0.03125 0.1875 1.31e-4 -0.0014 0 0.18888 0 0.1875 0-0.0014 1.31e-4 0.18888 0 0.1875-1.31e-4 -0.0014 0.03151 0.18886 0.03125 0.1875-2.61e-4 -0.0014 0.03164 0.18883 0.03125 0.1875-3.89e-4 -0.0013 0.06301 0.15754 0.0625 0.15625-5.13e-4 -0.0013 0.09438 0.18873 0.09375 0.1875-6.32e-4 -0.0012 0.0945 0.15742 0.09375 0.15625-7.46e-4 -0.0012 0.0946 0.12609 0.09375 0.125-8.53e-4 -0.0011 0.12595 0.15725 0.125 0.15625l4.5 4.5625-4.5 4.5625c9.53e-4 -1e-3 -0.12585 0.15734-0.125 0.15625 8.53e-4 -0.0011-0.0945 0.12616-0.09375 0.125 7.46e-4 -0.0012-0.09438 0.15748-0.09375 0.15625 6.32e-4 -0.0012-0.09426 0.18878-0.09375 0.1875 5.13e-4 -0.0013-0.06289 0.15758-0.0625 0.15625 3.89e-4 -0.0013-0.03151 0.18886-0.03125 0.1875 2.61e-4 -0.0014-0.03138 0.18888-0.03125 0.1875 1.31e-4 -0.0014 0 0.18888 0 0.1875 0-0.0014 1.31e-4 0.18888 0 0.1875-1.31e-4 -0.0014 0.03151 0.18886 0.03125 0.1875-2.61e-4 -0.0014 0.03164 0.18883 0.03125 0.1875-3.89e-4 -0.0013 0.06301 0.15754 0.0625 0.15625-5.13e-4 -0.0013 0.09438 0.18873 0.09375 0.1875-6.32e-4 -0.0012 0.0945 0.15742 0.09375 0.15625-7.46e-4 -0.0012 0.0946 0.12609 0.09375 0.125-8.53e-4 -0.0011 0.12595 0.15725 0.125 0.15625l6.0312 6.0938c-9.87e-4 -1e-3 0.12608 0.12593 0.125 0.125-0.0011-9.27e-4 0.15742 0.12582 0.15625 0.125-0.0012-8.17e-4 0.15749 0.09445 0.15625 0.09375-0.0012-6.99e-4 0.1888 0.09432 0.1875 0.09375-0.0013-5.74e-4 0.18885 0.06294 0.1875 0.0625-0.0014-4.44e-4 0.15764 0.06281 0.15625 0.0625-0.0014-3.1e-4 0.18892 0.03142 0.1875 0.03125-0.0014-1.72e-4 0.22018 3.3e-5 0.21875 0-0.0014-3.3e-5 0.18892-1.06e-4 0.1875 0-0.0014 1.06e-4 0.1889-0.03149 0.1875-0.03125-0.0014 2.45e-4 0.18887-0.03163 0.1875-0.03125-0.0014 3.81e-4 0.15758-0.06301 0.15625-0.0625-0.0013 5.13e-4 0.18877-0.06314 0.1875-0.0625-0.0013 6.41e-4 0.15746-0.09451 0.15625-0.09375-0.0012 7.62e-4 0.15737-0.12588 0.15625-0.125-0.0011 8.76e-4 0.15728-0.12598 0.15625-0.125l4.5938-4.5625 4.4062 4.5c-5.08e-4 -5.29e-4 0.06303 0.063 0.0625 0.0625-5.34e-4 -5.03e-4 0.09431 0.06298 0.09375 0.0625-5.59e-4 -4.76e-4 0.06308 0.06295 0.0625 0.0625-5.82e-4 -4.47e-4 0.09435 0.06292 0.09375 0.0625-6.04e-4 -4.17e-4 0.06312 0.06289 0.0625 0.0625-6.24e-4 -3.86e-4 0.09439 0.06285 0.09375 0.0625-6.43e-4 -3.54e-4 0.09441 0.03157 0.09375 0.03125-6.6e-4 -3.21e-4 0.09443 0.03154 0.09375 0.03125-6.75e-4 -2.88e-4 0.06319 0.0315 0.0625 0.03125-6.89e-4 -2.53e-4 0.09445 0.03147 0.09375 0.03125-7e-4 -2.18e-4 0.09446 0.03143 0.09375 0.03125-7.11e-4 -1.83e-4 0.12572 0.0314 0.125 0.03125-7.19e-4 -1.47e-4 0.09448 0.03136 0.09375 0.03125-7.25e-4 -1.1e-4 0.09448 7.4e-5 0.09375 0s0.09448 3.7e-5 0.09375 0c-7.33e-4 -3.7e-5 0.09448 0 0.09375 0-7.34e-4 0 0.09448-3.7e-5 0.09375 0-7.33e-4 3.7e-5 0.09448-7.4e-5 0.09375 0s0.09448-1.1e-4 0.09375 0c-7.25e-4 1.1e-4 0.09447-0.0314 0.09375-0.03125-7.19e-4 1.47e-4 0.12571-0.03143 0.125-0.03125-7.11e-4 1.83e-4 0.09445-0.03147 0.09375-0.03125-7e-4 2.18e-4 0.09444-0.0315 0.09375-0.03125-6.89e-4 2.53e-4 0.06318-0.03154 0.0625-0.03125-6.75e-4 2.88e-4 0.09441-0.03157 0.09375-0.03125-6.6e-4 3.21e-4 0.09439-0.0316 0.09375-0.03125-6.43e-4 3.54e-4 0.09437-0.06289 0.09375-0.0625-6.24e-4 3.86e-4 0.0631-0.06292 0.0625-0.0625-6.04e-4 4.17e-4 0.09433-0.06295 0.09375-0.0625-5.82e-4 4.47e-4 0.06306-0.06298 0.0625-0.0625-5.59e-4 4.76e-4 0.09428-0.063 0.09375-0.0625-5.34e-4 5.03e-4 0.06301-0.06303 0.0625-0.0625l6.2188-6.2812c-9.82e-4 1e-3 0.12588-0.15737 0.125-0.15625-8.76e-4 0.0011 0.12576-0.15746 0.125-0.15625-7.62e-4 0.0012 0.09439-0.15752 0.09375-0.15625-6.41e-4 0.0013 0.06301-0.18883 0.0625-0.1875-5.13e-4 0.0013 0.06288-0.15762 0.0625-0.15625-3.81e-4 0.0014 0.0315-0.1889 0.03125-0.1875-2.45e-4 0.0014 0.03136-0.18892 0.03125-0.1875-1.06e-4 0.0014-3.3e-5 -0.18892 0-0.1875 3.3e-5 0.0014-1.72e-4 -0.22016 0-0.21875 1.72e-4 0.0014-0.03156-0.18889-0.03125-0.1875 3.1e-4 0.0014-0.06294-0.1576-0.0625-0.15625 4.44e-4 0.0014-0.06307-0.1888-0.0625-0.1875 5.74e-4 0.0013-0.09445-0.18874-0.09375-0.1875 6.99e-4 0.0012-0.09457-0.15742-0.09375-0.15625 8.17e-4 0.0012-0.12593-0.15733-0.125-0.15625 9.27e-4 0.0011-0.12603-0.12599-0.125-0.125l-4.4062-4.3125 4.4062-4.3125c-1e-3 9.87e-4 0.12593-0.12608 0.125-0.125-9.27e-4 0.0011 0.12582-0.15742 0.125-0.15625-8.17e-4 0.0012 0.09445-0.15749 0.09375-0.15625-6.99e-4 0.0012 0.09432-0.1888 0.09375-0.1875-5.74e-4 0.0013 0.06294-0.18885 0.0625-0.1875-4.44e-4 0.0014 0.06281-0.15764 0.0625-0.15625-3.1e-4 0.0014 0.03142-0.18892 0.03125-0.1875-1.72e-4 0.0014 3.3e-5 -0.22018 0-0.21875-3.3e-5 0.0014-1.06e-4 -0.18892 0-0.1875 1.06e-4 0.0014-0.0315-0.1889-0.03125-0.1875 2.45e-4 0.0014-0.03163-0.18887-0.03125-0.1875 3.81e-4 0.0014-0.06301-0.15758-0.0625-0.15625 5.13e-4 0.0013-0.06314-0.18877-0.0625-0.1875 6.41e-4 0.0013-0.09451-0.15746-0.09375-0.15625 7.62e-4 0.0012-0.12588-0.15737-0.125-0.15625 8.76e-4 0.0011-0.12598-0.15728-0.125-0.15625l-6.2188-6.2812c5.08e-4 5.29e-4 -0.06303-0.063-0.0625-0.0625 5.34e-4 5.03e-4 -0.09431-0.06298-0.09375-0.0625 5.59e-4 4.76e-4 -0.06308-0.06295-0.0625-0.0625 5.82e-4 4.47e-4 -0.09435-0.06292-0.09375-0.0625 6.04e-4 4.17e-4 -0.06312-0.06289-0.0625-0.0625 6.24e-4 3.86e-4 -0.09439-0.06285-0.09375-0.0625 6.43e-4 3.54e-4 -0.09441-0.03157-0.09375-0.03125 6.6e-4 3.21e-4 -0.09443-0.03154-0.09375-0.03125 6.75e-4 2.88e-4 -0.06319-0.0315-0.0625-0.03125 6.89e-4 2.53e-4 -0.09445-0.03147-0.09375-0.03125 7e-4 2.18e-4 -0.09446-0.03143-0.09375-0.03125 7.11e-4 1.83e-4 -0.12572-0.0314-0.125-0.03125 7.19e-4 1.47e-4 -0.09448-0.03136-0.09375-0.03125 7.25e-4 1.1e-4 -0.09448-7.4e-5 -0.09375 0s-0.09448-3.7e-5 -0.09375 0c7.33e-4 3.7e-5 -0.09448 0-0.09375 0 7.34e-4 0-0.09448 3.7e-5 -0.09375 0 7.33e-4 -3.7e-5 -0.09448 7.4e-5 -0.09375 0s-0.09448 1.1e-4 -0.09375 0c7.25e-4 -1.1e-4 -0.09447 0.0314-0.09375 0.03125 7.19e-4 -1.47e-4 -0.12571 0.03143-0.125 0.03125 7.11e-4 -1.83e-4 -0.09445 0.03147-0.09375 0.03125 7e-4 -2.18e-4 -0.09444 0.0315-0.09375 0.03125 6.89e-4 -2.53e-4 -0.06318 0.03154-0.0625 0.03125 6.75e-4 -2.88e-4 -0.09441 0.03157-0.09375 0.03125 6.6e-4 -3.21e-4 -0.09439 0.0316-0.09375 0.03125 6.43e-4 -3.54e-4 -0.09437 0.06289-0.09375 0.0625 6.24e-4 -3.86e-4 -0.0631 0.06292-0.0625 0.0625 6.04e-4 -4.17e-4 -0.09433 0.06295-0.09375 0.0625 5.82e-4 -4.47e-4 -0.06306 0.06298-0.0625 0.0625 5.59e-4 -4.76e-4 -0.09428 0.063-0.09375 0.0625 5.34e-4 -5.03e-4 -0.06301 0.06303-0.0625 0.0625l-4.4062 4.5-4.5625-4.5312c1.71e-4 1.72e-4 -0.02075-0.0212-0.03125-0.03125-0.021-0.0201-0.06286-0.06283-0.0625-0.0625 5.39e-4 4.91e-4 -0.06306-0.06296-0.0625-0.0625 5.63e-4 4.63e-4 -0.06309-0.06294-0.0625-0.0625 5.85e-4 4.35e-4 -0.09436-0.03166-0.09375-0.03125 6.06e-4 4.05e-4 -0.09438-0.06287-0.09375-0.0625 6.26e-4 3.74e-4 -0.06314-0.06284-0.0625-0.0625 6.44e-4 3.42e-4 -0.09441-0.03156-0.09375-0.03125 6.6e-4 3.09e-4 -0.09443-0.03153-0.09375-0.03125 6.75e-4 2.76e-4 -0.09444-0.03149-0.09375-0.03125 6.88e-4 2.42e-4 -0.09445-0.03146-0.09375-0.03125 6.99e-4 2.07e-4 -0.09446-0.03142-0.09375-0.03125 7.08e-4 1.72e-4 -0.09447-0.03139-0.09375-0.03125 7.16e-4 1.36e-4 -0.09447-1e-4 -0.09375 0 7.22e-4 1e-4 -0.09448-0.03131-0.09375-0.03125 7.26e-4 6.4e-5 -0.09448-2.8e-5 -0.09375 0 7.28e-4 2.8e-5 -0.09448 9e-6 -0.09375 0a0.99658 0.99658 0 0 0-0.0625 0c7.26e-4 -4.7e-5 -0.09447 8.4e-5 -0.09375 0z" fill-rule="evenodd" opacity=".1"/>
  <path id="path3757" d="m53.812-37.938a0.95278 0.95278 0 0 0-0.46875 0.28125l-6.0312 6.0938a0.95278 0.95278 0 0 0 0 1.3125l5.1875 5.25-5.1875 5.25a0.95278 0.95278 0 0 0 0 1.3125l6.0312 6.0938a0.95278 0.95278 0 0 0 1.3438 0.03125l5.2812-5.25 5.125 5.2188a0.95278 0.95278 0 0 0 1.375 0l6.2188-6.2812a0.95278 0.95278 0 0 0-0.03125-1.3438l-5.1562-5.0312 5.1562-5.0312a0.95278 0.95278 0 0 0 0.03125-1.3438l-6.2188-6.2812a0.95278 0.95278 0 0 0-1.375 0l-5.125 5.2188-5.2812-5.25a0.95278 0.95278 0 0 0-0.875-0.25z" fill-rule="evenodd" opacity=".15"/>
  <path id="path3751" d="m48-19.094 6.0232 6.0937 5.9305-5.9062 5.8378 5.9062 6.2085-6.2812-5.8378-5.7188 5.8378-5.7188-6.2085-6.2813-5.8378 5.9062-5.9305-5.9062-6.0232 6.0938 5.8378 5.9063-5.8378 5.9062z" fill-rule="evenodd" opacity=".3"/>
  <path id="path2947" d="m30.531-49.938c-1.7927 0.20235-3.165 1.1756-4.3125 2.2188s-2.1164 2.1735-3.125 2.9375c-1.3093 1.0352-2.306 2.2779-3.2812 2.8438-3.1967 0.12508-6.712-0.46705-10.219 0.53125a0.98188 0.98188 0 0 0-0.0625 0.03125c-1.9385 0.74179-3.1866 2.253-3.8438 3.9375-0.64541 1.6544-0.76937 3.4767-0.625 5.1562 3.985e-4 0.03101-3.817e-4 0.06273 0 0.09375 0.07303 5.9352-0.15928 11.925 0.125 17.938a0.98188 0.98188 0 0 0 0 0.125c0.65414 4.195 4.8514 6.5249 8.75 6.0312 0.04188-0.0053 0.0832 0.00596 0.125 0h6.0312c2.5473 2.3332 4.9775 4.876 7.7188 7.1562a0.98188 0.98188 0 0 0 0.125 0.09375c1.2974 0.75429 2.6636 0.94414 3.875 0.65625s2.2461-1.0182 3.0625-1.9375c1.5915-1.7921 2.4321-4.3555 2.0625-6.7188-0.0096-0.061362 0.01126-0.12643 0-0.1875-0.01371-11.239 0.01905-22.472-0.03125-33.719a0.98188 0.98188 0 0 0 0-0.0625c-0.09064-1.6312-0.64935-3.3148-1.6875-4.6875s-2.6298-2.4185-4.5625-2.4375a0.98188 0.98188 0 0 0-0.125 0z" opacity=".08"/>
  <path id="path2956" d="m30.656-48.969c-3.0019 0.33882-4.7128 3.2599-6.9688 4.9688-1.2032 0.95134-2.2258 2.343-3.5312 3.0312-3.4223 0.18072-6.9621-0.44488-10.281 0.5-3.3271 1.2732-4.1366 5.0136-3.8438 8.1875 0.077082 5.9996-0.15809 12.013 0.125 18 0.56836 3.6449 4.3264 5.7115 7.7812 5.2188h6.5312c2.6823 2.4328 5.1878 5.0617 7.9688 7.375 4.4375 2.5799 8.2838-3.0759 7.5312-7.1562-0.01432-11.305 0.01931-22.602-0.03125-33.906-0.15915-2.8643-2.0944-6.1874-5.2812-6.2188z" opacity=".1"/>
  <path id="path2965" d="m30.656-47.906c-0.3458-5e-5 -0.63266 0.11439-0.84375 0.1875a0.90419 0.90419 0 0 0-0.03125 0c-0.37429 0.14485-0.86239 0.3615-1.2812 0.75l-7.7188 7.0625h-8.4688c-2.8962 0-5.2188 2.3526-5.2188 5.3125v19.031c0 2.9599 2.2915 5.4375 5.2188 5.4375h8.5938l7.5938 7.125a0.90419 0.90419 0 0 0 0.03125 0.03125c0.634 0.5504 1.402 0.87554 2.1875 0.875s1.5537-0.32731 2.1875-0.875c1.2774-1.1038 2.0074-2.9672 2-4.9375v-7.7188-18.719-7.6875c0.01644-1.6858-0.51911-3.2944-1.4688-4.4375-0.7279-0.87616-1.724-1.4373-2.7812-1.4375z" opacity=".15"/>
  <path id="path3798" d="m30.656-47c-0.24295-3.5e-5 -0.32115 0.04141-0.5625 0.125-0.31499 0.1219-0.69237 0.30615-0.96875 0.5625l-8 7.3125h-8.8125c-2.4234 0-4.3125 1.9007-4.3125 4.4062v19.031c0 2.5055 1.8891 4.5312 4.3125 4.5312h8.9375l7.875 7.375c0.9997 0.86788 2.1866 0.86486 3.1875 0 1.0009-0.86487 1.694-2.5239 1.6875-4.25v-7.7188-18.719-7.6875c0.01442-1.4791-0.47854-2.9464-1.25-3.875-0.5786-0.69644-1.3649-1.0936-2.0938-1.0938z" opacity=".3"/>
  <path id="path2953" d="m30.656-48c-0.24295-3.5e-5 -0.32115 0.04141-0.5625 0.125-0.31499 0.1219-0.69237 0.30615-0.96875 0.5625l-8 7.3125h-8.8125c-2.4234 0-4.3125 1.9007-4.3125 4.4062v19.031c0 2.5055 1.8891 4.5312 4.3125 4.5312h8.9375l7.875 7.375c0.9997 0.86788 2.1866 0.86486 3.1875 0 1.0009-0.86487 1.694-2.5239 1.6875-4.25v-7.7188-18.719-7.6875c0.01442-1.4791-0.47854-2.9464-1.25-3.875-0.5786-0.69644-1.3649-1.0936-2.0938-1.0938z" fill="url(#linearGradient2955)"/>
  <path id="path2983" transform="translate(0,-74)" d="m30.656 26c-0.24295-3.5e-5 -0.32115 0.04141-0.5625 0.125-0.31499 0.1219-0.69237 0.30615-0.96875 0.5625l-8 7.3125h-8.8125c-2.4234 0-4.3125 1.9007-4.3125 4.4062v2c0-2.5055 1.8891-4.4062 4.3125-4.4062h8.8125l8-7.3125c0.27638-0.25635 0.65376-0.4406 0.96875-0.5625 0.24135-0.08359 0.31955-0.12504 0.5625-0.125 0.72886 1.11e-4 1.5152 0.3973 2.0938 1.0938 0.77146 0.92859 1.2644 2.3959 1.25 3.875v-2c0.01442-1.4791-0.47854-2.9464-1.25-3.875-0.5786-0.69644-1.3649-1.0936-2.0938-1.0938z" fill="#fff" opacity=".6"/>
  <path id="path7165" d="m48-20.094 6.0232 6.0937 5.9305-5.9062 5.8378 5.9062 6.2085-6.2812-5.8378-5.7188 5.8378-5.7188-6.2085-6.2813-5.8378 5.9062-5.9305-5.9062-6.0232 6.0938 5.8378 5.9063-5.8378 5.9062z" fill="url(#linearGradient2927)" fill-rule="evenodd"/>
  <path id="path2970" transform="translate(0,-74)" d="m54.031 36-6.0312 6.0938 1 1 5.0312-5.0938 5.9375 5.9062 5.8125-5.9062 5.2188 5.25 1-0.96875-6.2188-6.2812-5.8125 5.9062-5.9375-5.9062zm-0.19483 11.976-5.8364 5.9304 1 1 4.8438-4.9062-0.007326-2.0242zm12.343 0.04727-0.022819 1.9769 4.8438 4.75 1-1.0312-5.8209-5.6957z" fill="#fff" fill-rule="evenodd" opacity=".2"/>
 </g>
</svg>
