<?xml version="1.0" encoding="UTF-8"?>
<svg id="svg2" width="96" height="96" version="1.0" xmlns="http://www.w3.org/2000/svg" xmlns:cc="http://creativecommons.org/ns#" xmlns:dc="http://purl.org/dc/elements/1.1/" xmlns:rdf="http://www.w3.org/1999/02/22-rdf-syntax-ns#" xmlns:xlink="http://www.w3.org/1999/xlink">
 <defs id="defs4">
  <linearGradient id="linearGradient4081">
   <stop id="stop4083" stop-color="#aaa" offset="0"/>
   <stop id="stop4085" stop-color="#f0f0f0" offset="1"/>
  </linearGradient>
  <linearGradient id="linearGradient3763" x1="39" x2="39.196" y1="72" y2="24.267" gradientUnits="userSpaceOnUse" xlink:href="#linearGradient4081"/>
  <linearGradient id="linearGradient3636" x1="44" x2="44" y1="66" y2="30.943" gradientUnits="userSpaceOnUse" xlink:href="#linearGradient4081"/>
 </defs>
 <metadata id="metadata7">
  <rdf:RDF>
   <cc:Work rdf:about="">
    <dc:format>image/svg+xml</dc:format>
    <dc:type rdf:resource="http://purl.org/dc/dcmitype/StillImage"/>
    <dc:title/>
   </cc:Work>
  </rdf:RDF>
 </metadata>
 <g id="layer1" transform="translate(0,74)">
  <rect id="rect3799" x="10" y="-46" width="16" height="40" fill="#fff" opacity=".5"/>
  <path id="path3672" d="m47.688-37.969a1.0164 1.0164 0 0 0-0.125 0.03125c-2.683 0.84535-5.334 1.8865-7.9375 2.7812-6.9302 2.488-13.887 4.9061-20.812 7.4375a1.0164 1.0164 0 0 0-0.0625 0.03125c-2.411 1.086-2.0802 4.8612 0.46875 5.5312a1.0164 1.0164 0 0 0 0.15625 0.03125c2.1747 0.2262 4.2656 0.06903 6.25 0.125a1.0164 1.0164 0 0 0 0.03125 0h11.344c0.0031 2.4377-0.03387 4.9034 0.03125 7.375a1.0164 1.0164 0 0 0 0.03125 0.125c0.30211 2.0551 2.5916 2.9968 4.3438 2.1875 0.06014-0.02778 0.12873-0.03052 0.1875-0.0625 9.8765-3.3085 19.782-6.5633 29.656-9.9062a1.0164 1.0164 0 0 0 0.09375-0.03125c2.4773-1.1183 2.0001-5.0666-0.65625-5.5938a1.0164 1.0164 0 0 0-0.15625 0c-3.4438-0.1467-6.8829-0.053529-10.25-0.09375h-9.2812c-0.0031-2.4272 0.03396-4.8824-0.03125-7.3438a1.0164 1.0164 0 0 0-0.03125-0.15625c-0.26463-1.4697-1.5709-2.5837-3.125-2.4688a1.0164 1.0164 0 0 0-0.125 0z" opacity=".08"/>
  <path id="path3666" d="m47.875-36.969c-2.6351 0.83024-5.2624 1.865-7.8963 2.7702-6.9366 2.4903-13.907 4.9209-20.822 7.4486-1.5496 0.69803-1.3231 3.1951 0.3125 3.625 2.0465 0.21287 4.1317 0.0356 6.1936 0.09375h12.369c0.02114 2.7903-0.0421 5.5911 0.03125 8.375 0.20421 1.3891 1.8656 2.0217 3.0413 1.3819 9.9423-3.3313 19.903-6.6135 29.834-9.9756 1.5949-0.71998 1.2708-3.3172-0.4375-3.6562-3.3902-0.14442-6.8047-0.02189-10.204-0.0625h-10.327c-0.02124-2.7799 0.04223-5.5703-0.03125-8.3438-0.17522-0.97309-1.0597-1.7304-2.0625-1.6562z" opacity=".1"/>
  <path id="path3662" d="m47.875-36.031a1.0405 1.0405 0 0 0-0.21875 0.0625l-28 10a1.0405 1.0405 0 0 0 0.34375 2h18.969v8.9688a1.0405 1.0405 0 0 0 1.375 1l30-10a1.0405 1.0405 0 0 0-0.34375-2.0312h-20.969v-8.9688a1.0405 1.0405 0 0 0-1.1562-1.0312z" opacity=".15"/>
  <path id="path3656" d="m20-25 28-10v10h22l-30 10v-10h-20z" opacity=".3"/>
  <path id="path3797" d="m12-52.031c-4.9542 0-9.0312 4.077-9.0312 9.0312v36c0 4.9542 4.077 9.0312 9.0312 9.0312h66c4.9542 0 9.0312-4.077 9.0312-9.0312v-6.9688h0.96875c2.7526 0 5.0312-2.2787 5.0312-5.0312v-12c0-2.7526-2.2787-5.0312-5.0312-5.0312h-0.96875v-6.9688c0-4.9542-4.077-9.0312-9.0312-9.0312h-66zm4 12.062h58c0.6901 0 0.96875 0.27864 0.96875 0.96875v28c0 0.69011-0.27864 0.96875-0.96875 0.96875h-58c-0.69011 0-0.96875-0.27864-0.96875-0.96875v-28c0-0.6901 0.27864-0.96875 0.96875-0.96875z" opacity=".08"/>
  <path id="path3793" d="m12-50.969c-4.3781 0-7.9688 3.5907-7.9688 7.9688v36c0 4.3781 3.5907 7.9688 7.9688 7.9688h66c4.3781 0 7.9688-3.5907 7.9688-7.9688v-8.0312h2.0312c2.1707 0 3.9688-1.7981 3.9688-3.9688v-12c0-2.1707-1.7981-3.9688-3.9688-3.9688h-2.0312v-8.0312c0-4.3781-3.5907-7.9688-7.9688-7.9688h-66zm4 9.9375h58c1.1884 0 2.0312 0.84288 2.0312 2.0312v28c0 1.1884-0.84288 2.0312-2.0312 2.0312h-58c-1.1884 0-2.0312-0.84288-2.0312-2.0312v-28c0-1.1884 0.84288-2.0312 2.0312-2.0312z" opacity=".1"/>
  <path id="path3789" d="m12-50.031c-3.8714 0-7.0312 3.1598-7.0312 7.0312v36c0 3.8714 3.1598 7.0312 7.0312 7.0312h66c3.8714 0 7.0312-3.1598 7.0312-7.0312v-8.9688h2.9688c1.6533 0 3.0312-1.3779 3.0312-3.0312v-12c0-1.6533-1.3779-3.0312-3.0312-3.0312h-2.9688v-8.9688c0-3.8714-3.1598-7.0312-7.0312-7.0312h-66zm4 8.0625h58c1.6707 0 2.9688 1.2981 2.9688 2.9688v28c0 1.6707-1.2981 2.9688-2.9688 2.9688h-58c-1.6707 0-2.9688-1.2981-2.9688-2.9688v-28c0-1.6707 1.2981-2.9688 2.9688-2.9688z" opacity=".15"/>
  <path id="path3783" d="m12-49c-3.3273 0-6 2.6727-6 6v36c0 3.3273 2.6727 6 6 6h66c3.3273 0 6-2.6727 6-6v-10h4c1.108 0 2-0.892 2-2v-12c0-1.108-0.892-2-2-2h-4v-10c0-3.3273-2.6727-6-6-6h-66zm4 6h58c2.216 0 4 1.784 4 4v28c0 2.216-1.784 4-4 4h-58c-2.216 0-4-1.784-4-4v-28c0-2.216 1.784-4 4-4z" opacity=".3"/>
  <path id="rect2975" transform="translate(0,-74)" d="m12 24c-3.3273 0-6 2.6727-6 6v36c0 3.3273 2.6727 6 6 6h66c3.3273 0 6-2.6727 6-6v-10h4c1.108 0 2-0.892 2-2v-12c0-1.108-0.892-2-2-2h-4v-10c0-3.3273-2.6727-6-6-6h-66zm4 6h58c2.216 0 4 1.784 4 4v28c0 2.216-1.784 4-4 4h-58c-2.216 0-4-1.784-4-4v-28c0-2.216 1.784-4 4-4z" fill="url(#linearGradient3763)"/>
  <path id="path3765" transform="translate(0,-74)" d="m12 24c-3.3273 0-6 2.6727-6 6v1c0-3.3273 2.6727-6 6-6h66c3.3273 0 6 2.6727 6 6v-1c0-3.3273-2.6727-6-6-6h-66zm72 16v1h4c1.108 0 2 0.892 2 2v-1c0-1.108-0.892-2-2-2h-4zm-72 22v1c0 2.216 1.784 4 4 4h58c2.216 0 4-1.784 4-4v-1c0 2.216-1.784 4-4 4h-58c-2.216 0-4-1.784-4-4z" fill="#fff" opacity=".75"/>
  <path id="path3774" transform="translate(0,-74)" d="m16 29c-2.216 0-4 1.784-4 4v1c0-2.216 1.784-4 4-4h58c2.216 0 4 1.784 4 4v-1c0-2.216-1.784-4-4-4h-58zm74 24c0 1.108-0.892 2-2 2h-4v1h4c1.108 0 2-0.892 2-2v-1zm-84 12v1c0 3.3273 2.6727 6 6 6h66c3.3273 0 6-2.6727 6-6v-1c0 3.3273-2.6727 6-6 6h-66c-3.3273 0-6-2.6727-6-6z" opacity=".15"/>
  <path id="path2856" transform="translate(0,-74)" d="m20 48 28-10v10h22l-30 10v-10h-20z" fill="url(#linearGradient3636)"/>
  <path id="path3638" transform="translate(0,-74)" d="m48 38-28 10h2.8125l25.188-9v-1zm0 10v1h19l3-1h-22z" fill="#fff" opacity=".75"/>
  <path id="path3647" transform="translate(0,-74)" d="m22.812 47-2.8125 1h20v-1h-17.188zm44.188 1-27 9v1l30-10h-3z" opacity=".15"/>
 </g>
</svg>
