<?xml version="1.0" encoding="UTF-8"?>
<svg id="svg2408" width="96" height="96" version="1.0" xmlns="http://www.w3.org/2000/svg" xmlns:cc="http://creativecommons.org/ns#" xmlns:dc="http://purl.org/dc/elements/1.1/" xmlns:rdf="http://www.w3.org/1999/02/22-rdf-syntax-ns#" xmlns:xlink="http://www.w3.org/1999/xlink">
 <defs id="defs2410">
  <linearGradient id="ButtonShadow" x1="45.448" x2="45.448" y1="92.54" y2="7.0165" gradientTransform="scale(1.0059 .99417)" gradientUnits="userSpaceOnUse">
   <stop id="stop3750" offset="0"/>
   <stop id="stop3752" stop-opacity=".58824" offset="1"/>
  </linearGradient>
  <linearGradient id="linearGradient3737">
   <stop id="stop3739" stop-color="#fff" offset="0"/>
   <stop id="stop3741" stop-color="#fff" stop-opacity="0" offset="1"/>
  </linearGradient>
  <filter id="filter3174" color-interpolation-filters="sRGB">
   <feGaussianBlur id="feGaussianBlur3176" stdDeviation="1.71"/>
  </filter>
  <linearGradient id="linearGradient3188" x1="36.357" x2="36.357" y1="6" y2="63.893" gradientUnits="userSpaceOnUse" xlink:href="#linearGradient3737"/>
  <filter id="filter3794" x="-.192" y="-.192" width="1.384" height="1.384" color-interpolation-filters="sRGB">
   <feGaussianBlur id="feGaussianBlur3796" stdDeviation="5.28"/>
  </filter>
  <linearGradient id="linearGradient3613" x1="48" x2="48" y1="20.221" y2="138.66" gradientUnits="userSpaceOnUse" xlink:href="#linearGradient3737"/>
  <radialGradient id="radialGradient3619" cx="48" cy="90.172" r="42" gradientTransform="matrix(1.1573 0 0 .99591 -7.551 .19713)" gradientUnits="userSpaceOnUse" xlink:href="#linearGradient3737"/>
  <clipPath id="clipPath3613">
   <rect id="rect3615" x="6" y="6" width="84" height="84" rx="6" ry="6" fill="#fff"/>
  </clipPath>
  <linearGradient id="ButtonShadow-0" x1="45.448" x2="45.448" y1="92.54" y2="7.0165" gradientTransform="matrix(1.0059 0 0 .99417 100 0)" gradientUnits="userSpaceOnUse">
   <stop id="stop3750-8" offset="0"/>
   <stop id="stop3752-5" stop-opacity=".58824" offset="1"/>
  </linearGradient>
  <linearGradient id="linearGradient3780" x1="32.251" x2="32.251" y1="6.1317" y2="90.239" gradientTransform="matrix(1.0238 0 0 -1.0119 -1.1429 98.071)" gradientUnits="userSpaceOnUse" xlink:href="#ButtonShadow-0"/>
  <linearGradient id="linearGradient3721" x1="32.251" x2="32.251" y1="6.1317" y2="90.239" gradientTransform="matrix(1,0,0,-1,0,97)" gradientUnits="userSpaceOnUse" xlink:href="#ButtonShadow-0"/>
 </defs>
 <metadata id="metadata2413">
  <rdf:RDF>
   <cc:Work rdf:about="">
    <dc:format>image/svg+xml</dc:format>
    <dc:type rdf:resource="http://purl.org/dc/dcmitype/StillImage"/>
    <dc:title/>
   </cc:Work>
  </rdf:RDF>
 </metadata>
 <g id="layer2" display="none">
  <rect id="rect3745" x="5" y="7" width="86" height="85" rx="6" ry="6" fill="url(#ButtonShadow)" filter="url(#filter3174)" opacity=".9"/>
 </g>
 <g id="layer3">
  <path id="path3786" d="m12 3.9688c-5.5111 0-10.031 4.5202-10.031 10.031v71c0 5.5111 4.5202 10.031 10.031 10.031h72c5.5111 0 10.031-4.5202 10.031-10.031v-71c0-5.5111-4.5202-10.031-10.031-10.031h-72zm0 2.0312h72c3.324 0 6 2.676 6 6v72c0 3.324-2.676 6-6 6h-72c-3.324 0-6-2.676-6-6v-72c0-3.324 2.676-6 6-6z" fill="url(#linearGradient3780)" opacity=".08"/>
  <path id="path3778" d="m12 4.9688c-4.9716 0-9.0312 4.0596-9.0312 9.0312v71c0 4.9716 4.0596 9.0312 9.0312 9.0312h72c4.9716 0 9.0312-4.0596 9.0312-9.0312v-71c0-4.9716-4.0596-9.0312-9.0312-9.0312h-72zm0 1.0312h72c3.324 0 6 2.676 6 6v72c0 3.324-2.676 6-6 6h-72c-3.324 0-6-2.676-6-6v-72c0-3.324 2.676-6 6-6z" fill="url(#linearGradient3780)" opacity=".1"/>
  <path id="path3770" d="m11.188 6.0312c-4.0275 0.41065-7.1875 3.8352-7.1875 7.9688v71c0 4.4091 3.5909 8 8 8h72c4.4091 0 8-3.5909 8-8v-71c0-4.1971-3.259-7.646-7.375-7.9688 3.0329 0.30617 5.375 2.8525 5.375 5.9688v72c0 3.324-2.676 6-6 6h-72c-3.324 0-6-2.676-6-6v-72c0-3.1162 2.3421-5.6626 5.375-5.9688-0.06227 0.00488-0.12563-0.00631-0.1875 0z" fill="url(#linearGradient3780)" opacity=".2"/>
  <path id="rect3723" d="m6.4375 9.75c-0.89949 1.1774-1.4375 2.6473-1.4375 4.25v71c0 3.878 3.122 7 7 7h72c3.878 0 7-3.122 7-7v-71c0-1.6027-0.53801-3.0726-1.4375-4.25 0.27932 0.6941 0.4375 1.4536 0.4375 2.25v72c0 3.324-2.676 6-6 6h-72c-3.324 0-6-2.676-6-6v-72c0-0.79638 0.15818-1.5559 0.4375-2.25z" fill="url(#linearGradient3780)" opacity=".3"/>
  <path id="rect3716" d="m6 84v1c0 3.324 2.676 6 6 6h72c3.324 0 6-2.676 6-6v-1c0 3.324-2.676 6-6 6h-72c-3.324 0-6-2.676-6-6z" fill="url(#linearGradient3721)" opacity=".45"/>
 </g>
 <g id="layer1">
  <rect id="rect2419" x="6" y="6" width="84" height="84" rx="6" ry="6" opacity=".6"/>
  <path id="rect3728" d="m12 6c-3.324 0-6 2.676-6 6v2 68 2c0 0.33472 0.04135 0.6507 0.09375 0.96875 0.0487 0.2956 0.09704 0.59692 0.1875 0.875 0.00988 0.03038 0.020892 0.0636 0.03125 0.09375 0.098865 0.28777 0.23488 0.54745 0.375 0.8125 0.14459 0.27351 0.31562 0.53562 0.5 0.78125s0.37378 0.47347 0.59375 0.6875c0.43995 0.42806 0.94291 0.81453 1.5 1.0938 0.27854 0.13961 0.57347 0.24695 0.875 0.34375-0.2562-0.10022-0.48671-0.23627-0.71875-0.375-0.00741-0.0044-0.023866 0.0045-0.03125 0-0.031933-0.0193-0.062293-0.04251-0.09375-0.0625-0.1204-0.0767-0.23102-0.16351-0.34375-0.25-0.10617-0.0808-0.21328-0.16111-0.3125-0.25-0.17793-0.16143-0.34746-0.34539-0.5-0.53125-0.10758-0.13026-0.21839-0.26528-0.3125-0.40625-0.025089-0.03838-0.038446-0.08587-0.0625-0.125-0.064763-0.10303-0.13023-0.20452-0.1875-0.3125-0.10101-0.19471-0.20567-0.4157-0.28125-0.625-0.00796-0.02181-0.023589-0.04055-0.03125-0.0625-0.031825-0.09195-0.035804-0.18683-0.0625-0.28125-0.030332-0.10662-0.070389-0.20303-0.09375-0.3125-0.072879-0.34151-0.125-0.6982-0.125-1.0625v-2-68-2c0-2.7818 2.2182-5 5-5h2 68 2c2.7818 0 5 2.2182 5 5v2 68 2c0 0.3643-0.05212 0.72099-0.125 1.0625-0.04415 0.20689-0.08838 0.39766-0.15625 0.59375-0.0077 0.02195-0.0233 0.04069-0.03125 0.0625-0.06274 0.17374-0.13838 0.36745-0.21875 0.53125-0.04158 0.0828-0.07904 0.16995-0.125 0.25-0.0546 0.09721-0.12677 0.18835-0.1875 0.28125-0.09411 0.14096-0.20492 0.276-0.3125 0.40625-0.14317 0.17445-0.30314 0.347-0.46875 0.5-0.01117 0.0102-0.01998 0.02115-0.03125 0.03125-0.13839 0.12556-0.28509 0.23444-0.4375 0.34375-0.10257 0.07315-0.20432 0.15336-0.3125 0.21875-0.0074 0.0045-0.02384-0.0044-0.03125 0-0.23204 0.13873-0.46255 0.27478-0.71875 0.375 0.30153-0.0968 0.59646-0.20414 0.875-0.34375 0.55709-0.27922 1.0601-0.66569 1.5-1.0938 0.21997-0.21403 0.40937-0.44186 0.59375-0.6875s0.35541-0.50774 0.5-0.78125c0.14012-0.26505 0.27614-0.52473 0.375-0.8125 0.01041-0.03078 0.02133-0.06274 0.03125-0.09375 0.09046-0.27808 0.1388-0.5794 0.1875-0.875 0.0524-0.31805 0.09375-0.63403 0.09375-0.96875v-2-68-2c0-3.324-2.676-6-6-6h-72z" fill="url(#linearGradient3188)" opacity=".01"/>
  <path id="path3615" d="m12 90c-3.324 0-6-2.676-6-6v-2-68-2c0-0.33472 0.04135-0.6507 0.09375-0.96875 0.0487-0.2956 0.09704-0.59692 0.1875-0.875 0.00988-0.03038 0.020892-0.0636 0.03125-0.09375 0.098865-0.28777 0.23488-0.54745 0.375-0.8125 0.14459-0.27351 0.31562-0.53562 0.5-0.78125s0.37378-0.47347 0.59375-0.6875c0.43995-0.42806 0.94291-0.81453 1.5-1.0938 0.27854-0.13961 0.57347-0.24695 0.875-0.34375-0.2562 0.10022-0.48671 0.23627-0.71875 0.375-0.00741 0.0044-0.023866-0.0045-0.03125 0-0.031933 0.0193-0.062293 0.04251-0.09375 0.0625-0.1204 0.0767-0.23102 0.16351-0.34375 0.25-0.10617 0.0808-0.21328 0.16111-0.3125 0.25-0.17793 0.16143-0.34746 0.34539-0.5 0.53125-0.10758 0.13026-0.21839 0.26528-0.3125 0.40625-0.025089 0.03838-0.038446 0.08587-0.0625 0.125-0.064763 0.10303-0.13023 0.20452-0.1875 0.3125-0.10101 0.19471-0.20567 0.4157-0.28125 0.625-0.00796 0.02181-0.023589 0.04055-0.03125 0.0625-0.031825 0.09195-0.035804 0.18683-0.0625 0.28125-0.030332 0.10662-0.070389 0.20303-0.09375 0.3125-0.072879 0.34151-0.125 0.6982-0.125 1.0625v2 68 2c0 2.7818 2.2182 5 5 5h2 68 2c2.7818 0 5-2.2182 5-5v-2-68-2c0-0.3643-0.05212-0.72099-0.125-1.0625-0.04415-0.20689-0.08838-0.39766-0.15625-0.59375-0.0077-0.02195-0.0233-0.04069-0.03125-0.0625-0.06274-0.17374-0.13838-0.36745-0.21875-0.53125-0.04158-0.0828-0.07904-0.16995-0.125-0.25-0.0546-0.09721-0.12677-0.18835-0.1875-0.28125-0.09411-0.14096-0.20492-0.276-0.3125-0.40625-0.14317-0.17445-0.30314-0.347-0.46875-0.5-0.01117-0.0102-0.01998-0.02115-0.03125-0.03125-0.13839-0.12556-0.28509-0.23444-0.4375-0.34375-0.10257-0.07315-0.20432-0.15336-0.3125-0.21875-0.0074-0.0045-0.02384 0.0044-0.03125 0-0.23204-0.13873-0.46255-0.27478-0.71875-0.375 0.30153 0.0968 0.59646 0.20414 0.875 0.34375 0.55709 0.27922 1.0601 0.66569 1.5 1.0938 0.21997 0.21403 0.40937 0.44186 0.59375 0.6875s0.35541 0.50774 0.5 0.78125c0.14012 0.26505 0.27614 0.52473 0.375 0.8125 0.01041 0.03078 0.02133 0.06274 0.03125 0.09375 0.09046 0.27808 0.1388 0.5794 0.1875 0.875 0.0524 0.31805 0.09375 0.63403 0.09375 0.96875v2 68 2c0 3.324-2.676 6-6 6h-72z" fill="url(#radialGradient3619)" opacity=".15"/>
 </g>
 <g id="layer5" display="none">
  <rect id="rect3171" x="15" y="15" width="66" height="66" rx="12" ry="12" clip-path="url(#clipPath3613)" fill="url(#linearGradient3613)" filter="url(#filter3794)" opacity=".1" stroke="#fff" stroke-linecap="round" stroke-width=".5"/>
 </g>
 <defs id="defs54">
  <linearGradient id="gr0" x1="48" x2="48" y1="46" y2="74" gradientUnits="userSpaceOnUse">
   <stop id="stop49" stop-color="#ebebeb" offset="0"/>
   <stop id="stop51" stop-color="#aaa" offset="1"/>
  </linearGradient>
 </defs>
 <path id="path2" transform="translate(0,1)" d="m47.76 45c-5.0863 0.0068-10.158 1.6124-14.322 4.5332a1.0001 1.0001 0 0 0-0.24414 1.3906l4.584 6.5566 0.24609-1.3906c-1.4506 1.0191 2.0255-1.3263 0.53711-0.36328-1.4884 0.96304 2.0748-1.2474 0.55078-0.3418s2.1219-1.1671 0.56445-0.32031c-1.5574 0.84679 2.1628-1.0856 0.57422-0.29883s2.2053-1.001 0.58789-0.27539c-1.6175 0.72562 2.2397-0.91927 0.5957-0.25586s2.2735-0.8307 0.60547-0.23047c-1.6681 0.60023 2.305-0.74321 0.61524-0.20703s2.33-0.65689 0.62109-0.18555c-1.709 0.47134 2.3546-0.56598 0.62891-0.16016-1.7257 0.40583 2.3727-0.47644 0.63281-0.13672-1.7399 0.33972 2.3903-0.38444 0.63867-0.11133-1.7516 0.27312 2.4033-0.294 0.64258-0.08789-1.7607 0.20612 2.4138-0.20131 0.64648-0.0625-1.7673 0.13882 2.4178-0.11037 0.64648-0.03906-1.7713 0.07131 2.4212-0.01738 0.64844-0.01367h0.0078c-3.7692-0.02374 4.3037 0.15433 0.53711 0.01172-3.7666-0.14262 4.2953 0.29064 0.53516 0.0293-3.7602-0.26135 4.2852 0.42474 0.53516 0.04492-3.7501-0.37982 4.2675 0.56041 0.53125 0.0625-3.7362-0.49791 4.2499 0.69559 0.53125 0.08008-3.7187-0.61551 4.2247 0.8282 0.52734 0.0957-3.6974-0.7325 4.1978 0.96008 0.52539 0.11133-3.6725-0.84876 4.1634 1.0931 0.51953 0.12891l0.74414 0.9668v-6.0312c0-0.53649 0.1166-1.1506 0.30859-1.7773a1.0001 1.0001 0 0 0-0.76758-1.2754c-1.4904-0.28609-3.0078-0.43585-4.5254-0.44727a1.0001 1.0001 0 0 0-0.0098 0zm10.494 0c-0.85732 0-1.7415 0.2139-2.4297 0.82031-0.68817 0.60641-1.0703 1.5678-1.0703 2.6797v8.5h-0.5c-1.9216 0-3.5 1.5784-3.5 3.5v11c0 1.9216 1.5784 3.5 3.5 3.5h19c1.9216 0 3.5-1.5784 3.5-3.5v-11c0-1.9216-1.5784-3.5-3.5-3.5h-0.5v-8.5c0-1.9221-1.5788-3.5-3.5-3.5zm2.5 6h6v6h-6zm-12.992 6c-2.6445 0.0023-5.2834 0.83612-7.4492 2.3535a1.0001 1.0001 0 0 0-0.24609 1.3906l6.8672 9.8203a1.0001 1.0001 0 0 0 1.8203-0.57226v-9.4922c0-0.71766 0.21939-1.3366 0.57227-1.9785a1.0001 1.0001 0 0 0-0.79102-1.4785c-0.24767-0.02156-0.49564-0.03565-0.74414-0.04297a1.0001 1.0001 0 0 0-0.0293 0z" opacity=".15" stroke-width="4"/>
 <path id="path58" transform="translate(0,1)" d="m47.76 44c-5.2897 7e-3 -10.566 1.6772-14.896 4.7148a2.0002 2.0002 0 0 0-0.49023 2.7832l4.5859 6.5566 0.48828-2.7832c-1.3539 0.95116 1.9595-1.2836 0.57031-0.38476s2.0044-1.2065 0.58203-0.36133c-1.4224 0.8452 2.0513-1.1302 0.59766-0.33984s2.0921-1.0507 0.60938-0.31641c-1.4827 0.73433 2.1307-0.97022 0.62109-0.29297s2.1652-0.88676 0.63086-0.26758c-1.5344 0.61918 2.1994-0.80631 0.64258-0.24609s2.2275-0.71918 0.65039-0.21875c-1.5771 0.50043 2.2532-0.63523 0.6582-0.19531-1.595 0.43992 2.2767-0.54869 0.66602-0.16992-1.6106 0.37877 2.2938-0.4616 0.66992-0.14453-1.6239 0.31707 2.3106-0.37405 0.67578-0.11914-1.6348 0.25491 2.325-0.28612 0.68164-0.09375-1.6434 0.19237 2.3331-0.19597 0.68359-0.06641-1.6495 0.12956 2.3388-0.10757 0.68555-0.04102-1.6532 0.06656 2.3401-0.01713 0.68555-0.01367h0.01758c-3.5179-0.02216 4.0819 0.14483 0.56641 0.01172-3.5155-0.13311 4.0779 0.27517 0.56836 0.03125s4.0645 0.40333 0.56445 0.04883c-3.5001-0.3545 4.0516 0.53113 0.56445 0.06641-3.4871-0.46472 4.0333 0.65846 0.5625 0.08398-3.4708-0.57448 4.0095 0.78523 0.55859 0.10156s3.9823 0.91131 0.55469 0.11914c-3.4276-0.79217 3.9517 1.0347 0.55078 0.13476l1.4883 1.9336v1.5723c-1.423 0.16958-2.6185 0.9907-3.3203 2.1816a2.0002 2.0002 0 0 0-1.8105-2.2383c-0.26672-0.02322-0.53512-0.03899-0.80274-0.04687a2.0002 2.0002 0 0 0-0.06055 0c-2.8479 0.0025-5.689 0.89908-8.0215 2.5332a2.0002 2.0002 0 0 0-0.49023 2.7852l6.8672 9.8203a2.0002 2.0002 0 0 0 3.6387-1.0859v1.4473c0 2.4591 2.0409 4.5 4.5 4.5h19c2.4591 0 4.5-2.0409 4.5-4.5v-11c0-2.2824-1.7811-4.1321-4-4.3965v-7.6035c0-2.4593-2.0416-4.5-4.5-4.5h-11c-1.0226 0-2.1675 0.25579-3.0918 1.0703-0.92434 0.81453-1.4082 2.1127-1.4082 3.4297 0-0.39818 0.09129-0.92161 0.26367-1.4844a2.0002 2.0002 0 0 0-1.5352-2.5508c-1.5501-0.29753-3.1268-0.45297-4.7051-0.46484a2.0002 2.0002 0 0 0-0.01758 0zm13.994 8h4v4h-4z" opacity=".1" stroke-width="4"/>
 <path id="path61" transform="translate(0,1)" d="m47.758 43c-5.4932 0.0073-10.972 1.742-15.469 4.8965a3.0003 3.0003 0 0 0-0.73633 4.1738l4.5859 6.5566 0.73438-4.1738c-2.5143 1.7664 3.8584-2.3568 1.2168-0.78711-2.6416 1.5697 4.027-2.0552 1.2734-0.69141-2.7536 1.3638 4.1718-1.7437 1.3223-0.59375-2.8495 1.1499 4.2922-1.4196 1.3633-0.49023s4.3877-1.0902 1.3965-0.38672c-2.9912 0.70343 4.4599-0.75074 1.4238-0.27734-3.0361 0.4734 4.5028-0.40858 1.4395-0.16797-3.0634 0.24061 4.52-0.06502 1.4473-0.05859h0.02539c-3.2666-0.02058 3.864 0.13727 0.59961 0.01367-3.2643-0.1236 3.8565 0.25775 0.59766 0.03125s3.8477 0.37996 0.59766 0.05078c-3.2501-0.32918 3.8338 0.50184 0.5957 0.07031-3.2381-0.43153 3.8146 0.62134 0.5918 0.08789-3.2228-0.53344 3.7943 0.74226 0.58984 0.10742-3.2044-0.63483 3.7687 0.86254 0.58594 0.12695s3.74 0.97819 0.58203 0.14258l0.23242 0.30274v3.375c-0.69531 0.20699-1.3176 0.53092-1.873 0.97852a3.0003 3.0003 0 0 0-2.1719-1.2363c-0.28578-0.02488-0.57264-0.04038-0.85938-0.04883a3.0003 3.0003 0 0 0-0.08984-2e-3c-3.0514 0.0026-6.0947 0.964-8.5938 2.7148a3.0003 3.0003 0 0 0-0.73828 4.1758l6.8672 9.8203a3.0003 3.0003 0 0 0 3.709 1.0059c0.57917 2.4109 2.6826 4.2832 5.25 4.2832h19c2.9967 0 5.5-2.5033 5.5-5.5v-11c0-2.4674-1.7277-4.5149-4-5.1914v-6.8086c0-2.9966-2.5044-5.5-5.5-5.5h-11c-1.188 0-2.5914 0.29572-3.752 1.3184-0.05047 0.04448-0.06498 0.11928-0.11328 0.16602a3.0003 3.0003 0 0 0-1.7168-1.002c-1.6097-0.30898-3.2477-0.47009-4.8867-0.48242a3.0003 3.0003 0 0 0-0.02734 0zm14.996 10h2v2h-2z" opacity=".08" stroke-width="4"/>
 <path id="path64" d="m51.867 47.396c-0.069808 0.37186-0.11328 0.74211-0.11328 1.1035v1c0-0.6748 0.13996-1.3795 0.35156-2.0703a24 24 0 0 0-0.23828-0.033204zm7.8867 2.6035v1h8v-1h-8zm-25.26 1.041a24 24 0 0 0-0.48242 0.31055l4.5859 6.5566a16 16 0 0 1 9.1641-2.9082 16 16 0 0 1 3.9922 0.53125v-1a16 16 0 0 0-3.9922-0.53125 16 16 0 0 0-9.1641 2.9082l-4.1035-5.8672zm13.523 7.9727c-0.15984 0.46184-0.26367 0.95075-0.26367 1.4863v1c0-0.928 0.29291-1.7289 0.69531-2.4609a12 12 0 0 0-0.43164-0.02539zm-6.6445 1.8516a12 12 0 0 0-0.48633 0.30664l6.8672 9.8203v-1l-6.3809-9.127zm10.381 10.635v1c0 1.384 1.116 2.5 2.5 2.5h19c1.384 0 2.5-1.116 2.5-2.5v-1c0 1.384-1.116 2.5-2.5 2.5h-19c-1.384 0-2.5-1.116-2.5-2.5z" opacity=".45" stroke-width="4"/>
 <path id="base" d="m47.762 46a24 24 0 0 0-13.75 4.3516l4.5856 6.5564a16 16 0 0 1 9.1644-2.908 16 16 0 0 1 3.992 0.532v-6.032c0-0.6748 0.14-1.3796 0.3516-2.0704a24 24 0 0 0-4.3436-0.4296zm10.492 0c-1.384 0-2.5 0.6864-2.5 2.5v9.5h-1.5c-1.384 0-2.5 1.116-2.5 2.5v11c0 1.384 1.116 2.5 2.5 2.5h19c1.384 0 2.5-1.116 2.5-2.5v-11c0-1.384-1.116-2.5-2.5-2.5h-1.5v-9.5c0-1.3848-1.116-2.5-2.5-2.5zm1.5 4h8v8h-8zm-11.992 8a12 12 0 0 0-6.8752 2.172l6.8672 9.82v-9.492c0-0.928 0.2928-1.728 0.6952-2.46a12 12 0 0 0-0.6872-0.04z" fill="url(#gr0)" stroke-width="4"/>
 <path id="path70" d="m47.762 46a24 24 0 0 0-13.75 4.3516l0.48242 0.68945a24 24 0 0 1 13.268-4.041 24 24 0 0 1 4.1055 0.39648c0.060533-0.32246 0.14001-0.64597 0.23828-0.9668a24 24 0 0 0-4.3438-0.42969zm10.492 0c-1.384 0-2.5 0.6864-2.5 2.5v1c0-1.8136 1.116-2.5 2.5-2.5h11c1.384 0 2.5 1.1152 2.5 2.5v-1c0-1.3848-1.116-2.5-2.5-2.5h-11zm-10.492 12a12 12 0 0 0-6.875 2.1719l0.48633 0.69336a12 12 0 0 1 6.3887-1.8652 12 12 0 0 1 0.25586 0.013672c0.11711-0.33839 0.26148-0.66507 0.43164-0.97461a12 12 0 0 0-0.6875-0.039062zm6.4922 0c-1.384 0-2.5 1.116-2.5 2.5v1c0-1.384 1.116-2.5 2.5-2.5h1.5v-1h-1.5zm5.5 0v1h8v-1h-8zm12 0v1h1.5c1.384 0 2.5 1.116 2.5 2.5v-1c0-1.384-1.116-2.5-2.5-2.5h-1.5z" fill="#fff" opacity=".6" stroke-width="4"/>
 <path id="path75" d="m47.762 22a48 48 0 0 0-27.516 8.6952l4.6016 6.5784a40 40 0 0 1 22.914-7.2736 40 40 0 0 1 22.928 7.242l4.572-6.5156a48 48 0 0 0-27.5-8.7264zm0 12a36 36 0 0 0-20.633 6.5236l4.6012 6.57a28 28 0 0 1 16.032-5.0936 28 28 0 0 1 6.992 0.9296c1.172-0.6956 2.432-0.9296 3.5-0.9296h9.108l1.016-1.4532a36 36 0 0 0-20.616-6.5468z" fill="#fff" opacity=".2" stroke-width="4"/>
</svg>
