<?xml version="1.0" encoding="UTF-8"?>
<svg id="svg2408" width="96" height="96" version="1.0" xmlns="http://www.w3.org/2000/svg" xmlns:cc="http://creativecommons.org/ns#" xmlns:dc="http://purl.org/dc/elements/1.1/" xmlns:rdf="http://www.w3.org/1999/02/22-rdf-syntax-ns#" xmlns:xlink="http://www.w3.org/1999/xlink">
 <defs id="defs2410">
  <linearGradient id="linearGradient4129">
   <stop id="stop4131" stop-color="#0c0c0c" offset="0"/>
   <stop id="stop4133" stop-color="#2c2c2c" offset=".08693"/>
   <stop id="stop4135" stop-color="#353535" offset=".09784"/>
   <stop id="stop4137" stop-color="#383838" offset=".5972"/>
   <stop id="stop4139" stop-color="#484848" offset=".60162"/>
   <stop id="stop4141" stop-color="#151515" offset="1"/>
  </linearGradient>
  <linearGradient id="linearGradient3759">
   <stop id="stop3761" offset="0"/>
   <stop id="stop3763" stop-opacity="0" offset="1"/>
  </linearGradient>
  <linearGradient id="ButtonShadow" x1="45.448" x2="45.448" y1="92.54" y2="7.0165" gradientTransform="scale(1.0059 .99417)" gradientUnits="userSpaceOnUse">
   <stop id="stop3750" offset="0"/>
   <stop id="stop3752" stop-opacity=".58824" offset="1"/>
  </linearGradient>
  <linearGradient id="linearGradient3737">
   <stop id="stop3739" stop-color="#fff" offset="0"/>
   <stop id="stop3741" stop-color="#fff" stop-opacity="0" offset="1"/>
  </linearGradient>
  <filter id="filter3174" color-interpolation-filters="sRGB">
   <feGaussianBlur id="feGaussianBlur3176" stdDeviation="1.71"/>
  </filter>
  <linearGradient id="linearGradient3188" x1="36.357" x2="36.357" y1="6" y2="63.893" gradientUnits="userSpaceOnUse" xlink:href="#linearGradient3737"/>
  <filter id="filter3794" x="-.192" y="-.192" width="1.384" height="1.384" color-interpolation-filters="sRGB">
   <feGaussianBlur id="feGaussianBlur3796" stdDeviation="5.28"/>
  </filter>
  <linearGradient id="linearGradient3613" x1="48" x2="48" y1="20.221" y2="138.66" gradientUnits="userSpaceOnUse" xlink:href="#linearGradient3737"/>
  <radialGradient id="radialGradient3619" cx="48" cy="90.172" r="42" gradientTransform="matrix(1.1573 0 0 .99591 -7.551 .19713)" gradientUnits="userSpaceOnUse" xlink:href="#linearGradient3737"/>
  <clipPath id="clipPath3613">
   <rect id="rect3615" x="6" y="6" width="84" height="84" rx="6" ry="6" fill="#fff"/>
  </clipPath>
  <linearGradient id="linearGradient3642" x1="48" x2="48" y1="61.848" y2="11.465" gradientTransform="matrix(.9038 0 0 .9038 4.6178 4.6178)" gradientUnits="userSpaceOnUse" xlink:href="#linearGradient4129"/>
  <linearGradient id="linearGradient3765" x1="11" x2="11" y1="84" y2="46.896" gradientTransform="matrix(1 0 0 .58612 10 -14.334)" gradientUnits="userSpaceOnUse" xlink:href="#linearGradient3759"/>
  <clipPath id="clipPath3782">
   <path id="path3784" d="m20.156 18c-1.1871 0-2.1562 0.892-2.1562 2v70h60v-70c0-1.108-0.96911-2-2.1562-2h-55.688z" fill="#f0f"/>
  </clipPath>
  <radialGradient id="radialGradient3886" cx="12" cy="64.02" r="4" gradientTransform="matrix(1.0714 0 0 .4375 -.85714 4.4375)" gradientUnits="userSpaceOnUse">
   <stop id="stop3882" stop-color="#59d338" offset="0"/>
   <stop id="stop3884" stop-color="#289140" offset="1"/>
  </radialGradient>
  <linearGradient id="linearGradient4039" x1="19" x2="19" y1="54" y2="15.672" gradientUnits="userSpaceOnUse">
   <stop id="stop4035" stop-color="#fff" offset="0"/>
   <stop id="stop4037" stop-color="#fff" stop-opacity="0" offset="1"/>
  </linearGradient>
  <linearGradient id="linearGradient3556" x1="16" x2="20.179" y1="85.062" y2="85.062" gradientUnits="userSpaceOnUse">
   <stop id="stop3378-8" stop-color="#767676" offset="0"/>
   <stop id="stop3380-0" stop-color="#fdfdfd" offset="1"/>
  </linearGradient>
  <radialGradient id="radialGradient2984" cx="18.089" cy="85.062" r="2.0893" gradientTransform="matrix(1 0 0 1.0043 0 -.36352)" gradientUnits="userSpaceOnUse">
   <stop id="stop3368-6" stop-color="#c1ff97" offset="0"/>
   <stop id="stop3370-5" stop-color="#30c700" offset="1"/>
  </radialGradient>
  <linearGradient id="linearGradient3251" x1="48" x2="48" y1="90" y2="5.9877" gradientUnits="userSpaceOnUse">
   <stop id="stop3624" stop-color="#bebebe" offset="0"/>
   <stop id="stop3626" stop-color="#e6e6e6" offset="1"/>
  </linearGradient>
  <linearGradient id="linearGradient3254" x1="48" x2="48" y1="66.469" y2="51.892" gradientUnits="userSpaceOnUse">
   <stop id="stop3821" stop-color="#969696" offset="0"/>
   <stop id="stop3823" stop-color="#808080" stop-opacity="0" offset="1"/>
  </linearGradient>
  <linearGradient id="linearGradient4078" x1="27.829" x2="27.829" y1="65.136" y2="56.171" gradientUnits="userSpaceOnUse" xlink:href="#linearGradient3759"/>
  <linearGradient id="linearGradient4088" x1="58.929" x2="58.929" y1="72.179" y2="61.4" gradientUnits="userSpaceOnUse">
   <stop id="stop4084" offset="0"/>
   <stop id="stop4086" stop-color="#1f1f1f" offset="1"/>
  </linearGradient>
  <radialGradient id="radialGradient4115" cx="48" cy="62.5" r="28" gradientTransform="matrix(1 0 0 .030612 .17857 60.83)" gradientUnits="userSpaceOnUse" xlink:href="#linearGradient3737"/>
  <filter id="filter4143" x="-.112" y="-.084" width="1.224" height="1.168" color-interpolation-filters="sRGB">
   <feGaussianBlur id="feGaussianBlur4145" stdDeviation="2.8"/>
  </filter>
  <linearGradient id="linearGradient3236">
   <stop id="stop3238" stop-color="#818181" offset="0"/>
   <stop id="stop3242" stop-color="#f9f9f9" offset=".2"/>
   <stop id="stop3240" stop-color="#dcdcdc" stop-opacity="0" offset="1"/>
  </linearGradient>
  <linearGradient id="linearGradient4186" x1="6" x2="24" y1="73" y2="73" gradientUnits="userSpaceOnUse" xlink:href="#linearGradient3236"/>
  <linearGradient id="linearGradient4188" x1="6" x2="24" y1="73" y2="73" gradientTransform="matrix(-1,0,0,1,96,0)" gradientUnits="userSpaceOnUse" xlink:href="#linearGradient3236"/>
  <linearGradient id="linearGradient4192" x1="48" x2="48" y1="59.609" y2="18.171" gradientTransform="translate(100)" gradientUnits="userSpaceOnUse" xlink:href="#linearGradient4129"/>
  <linearGradient id="linearGradient3977" x1="27.321" x2="27.321" y1="61.397" y2="69.628" gradientTransform="translate(1 .53571)" gradientUnits="userSpaceOnUse" xlink:href="#linearGradient3737"/>
  <linearGradient id="ButtonShadow-0" x1="45.448" x2="45.448" y1="92.54" y2="7.0165" gradientTransform="matrix(1.0059 0 0 .99417 100 0)" gradientUnits="userSpaceOnUse">
   <stop id="stop3750-8" offset="0"/>
   <stop id="stop3752-5" stop-opacity=".58824" offset="1"/>
  </linearGradient>
  <linearGradient id="linearGradient3780" x1="32.251" x2="32.251" y1="6.1317" y2="90.239" gradientTransform="matrix(1.0238 0 0 1.0119 -1.1429 -98.071)" gradientUnits="userSpaceOnUse" xlink:href="#ButtonShadow-0"/>
  <linearGradient id="linearGradient3721" x1="32.251" x2="32.251" y1="6.1317" y2="90.239" gradientTransform="translate(0,-97)" gradientUnits="userSpaceOnUse" xlink:href="#ButtonShadow-0"/>
  <linearGradient id="linearGradient3290">
   <stop id="stop3292" stop-color="#ba0000" offset="0"/>
   <stop id="stop3294" stop-color="#ff331e" offset="1"/>
  </linearGradient>
  <linearGradient id="linearGradient3330" x1="68.458" x2="68.458" y1="8" y2="120.01" gradientTransform="matrix(-.25893 0 0 -.25893 64.571 56.571)" gradientUnits="userSpaceOnUse" xlink:href="#linearGradient3290"/>
  <linearGradient id="linearGradient3082" x1="68.458" x2="68.458" y1="8" y2="120.01" gradientTransform="matrix(.25893 0 0 .25893 -38.571 23.429)" gradientUnits="userSpaceOnUse" xlink:href="#linearGradient3290"/>
  <linearGradient id="linearGradient3084" x1="64.154" x2="64.154" y1="119.02" y2="50.721" gradientTransform="matrix(.26126 0 0 .26126 -38.721 23.279)" gradientUnits="userSpaceOnUse" xlink:href="#linearGradient3737"/>
  <linearGradient id="linearGradient3086" x1="59.438" x2="59.438" y1="8.9688" y2="87.507" gradientTransform="matrix(.26126 0 0 .26126 -38.721 23.279)" gradientUnits="userSpaceOnUse" xlink:href="#linearGradient3737"/>
  <linearGradient id="linearGradient3871" x1="51.466" x2="51.466" y1="25.606" y2="73.433" gradientUnits="userSpaceOnUse">
   <stop id="stop3867" stop-color="#fff6d5" offset="0"/>
   <stop id="stop3869" stop-color="#fff6d5" stop-opacity="0" offset="1"/>
  </linearGradient>
 </defs>
 <metadata id="metadata2413">
  <rdf:RDF>
   <cc:Work rdf:about="">
    <dc:format>image/svg+xml</dc:format>
    <dc:type rdf:resource="http://purl.org/dc/dcmitype/StillImage"/>
    <dc:title/>
   </cc:Work>
  </rdf:RDF>
 </metadata>
 <g id="layer2" display="none">
  <rect id="rect3745" x="5" y="7" width="86" height="85" rx="6" ry="6" fill="url(#ButtonShadow)" filter="url(#filter3174)" opacity=".9"/>
 </g>
 <g id="layer8">
  <path id="path3786" transform="scale(1,-1)" d="m12-95.031c-5.5111 0-10.031 4.5202-10.031 10.031v71c0 5.5111 4.5202 10.031 10.031 10.031h72c5.5111 0 10.031-4.5202 10.031-10.031v-71c0-5.5111-4.5202-10.031-10.031-10.031h-72z" fill="url(#linearGradient3780)" opacity=".08"/>
  <path id="path3778" transform="scale(1,-1)" d="m12-94.031c-4.9716 0-9.0312 4.0596-9.0312 9.0312v71c0 4.9716 4.0596 9.0312 9.0312 9.0312h72c4.9716 0 9.0312-4.0596 9.0312-9.0312v-71c0-4.9716-4.0596-9.0312-9.0312-9.0312h-72z" fill="url(#linearGradient3780)" opacity=".1"/>
  <path id="path3770" transform="scale(1,-1)" d="m12-93c-4.4091 0-8 3.5909-8 8v71c0 4.4091 3.5909 8 8 8h72c4.4091 0 8-3.5909 8-8v-71c0-4.4091-3.5909-8-8-8h-72z" fill="url(#linearGradient3780)" opacity=".2"/>
  <rect id="rect3723" transform="scale(1,-1)" x="5" y="-92" width="86" height="85" rx="7" ry="7" fill="url(#linearGradient3780)" opacity=".3"/>
  <rect id="rect3716" transform="scale(1,-1)" x="6" y="-91" width="84" height="84" rx="6" ry="6" fill="url(#linearGradient3721)" opacity=".45"/>
 </g>
 <g id="layer1" opacity=".98">
  <rect id="rect3631" x="10.041" y="10.041" width="75.919" height="75.919" rx="5.4228" ry="5.4228" fill="url(#linearGradient3642)"/>
  <path id="rect3662" d="m21 13.8v42.2h1v-42.2h-1zm3 0v42.2h1v-42.2h-1zm3 0v42.2h1v-42.2h-1zm3 0v42.2h1v-42.2h-1zm3 0v42.2h1v-42.2h-1zm3 0v42.2h1v-42.2h-1zm3 0v42.2h1v-42.2h-1zm3 0v42.2h1v-42.2h-1zm3 0v42.2h1v-42.2h-1zm3 0v42.2h1v-42.2h-1zm3 0v42.2h1v-42.2h-1zm3 0v42.2h1v-42.2h-1zm3 0v42.2h1v-42.2h-1zm3 0v42.2h1v-42.2h-1zm3 0v42.2h1v-42.2h-1zm3 0v42.2h1v-42.2h-1zm3 0v42.2h1v-42.2h-1zm3 0v42.2h1v-42.2h-1zm3 0v42.2h1v-42.2h-1z" fill="url(#linearGradient3765)" opacity=".2"/>
  <path id="rect3658" d="m19 14v42h1v-42h-1zm3 0v42h1v-42h-1zm3 0v42h1v-42h-1zm3 0v42h1v-42h-1zm3 0v42h1v-42h-1zm3 0v42h1v-42h-1zm3 0v42h1v-42h-1zm3 0v42h1v-42h-1zm3 0v42h1v-42h-1zm3 0v42h1v-42h-1zm3 0v42h1v-42h-1zm3 0v42h1v-42h-1zm3 0v42h1v-42h-1zm3 0v42h1v-42h-1zm3 0v42h1v-42h-1zm3 0v42h1v-42h-1zm3 0v42h1v-42h-1zm3 0v42h1v-42h-1zm3 0v42h1v-42h-1zm3 0v42h1v-42h-1z" fill="url(#linearGradient4039)" opacity=".1"/>
  <rect id="rect3650" x="15" y="48" width="66" height="1" fill="#111"/>
  <rect id="rect3804" x="44" y="49" width="8" height="4" fill="#111"/>
  <rect id="rect4190" x="106" y="6" width="84" height="84" rx="6" ry="6" fill="url(#linearGradient4192)"/>
  <rect id="rect4199" x="21" y="16" width="54" height="1" rx=".5" ry=".5"/>
 </g>
 <g id="layer5">
  <rect id="rect3171" x="15" y="15" width="66" height="66" rx="12" ry="12" clip-path="url(#clipPath3613)" fill="url(#linearGradient3613)" filter="url(#filter3794)" opacity=".1" stroke="#fff" stroke-linecap="round" stroke-width=".5"/>
 </g>
 <g id="layer4">
  <rect id="rect3774" transform="translate(0,-4)" x="18" y="18" width="60" height="80" rx="2.1429" ry="2" clip-path="url(#clipPath3782)" fill="none" filter="url(#filter4143)" opacity=".7" stroke="#000" stroke-width="2"/>
 </g>
 <g id="layer3">
  <path id="path3875" d="m48 24.062c-9.3395 0-16.938 7.598-16.938 16.938s7.598 16.938 16.938 16.938 16.938-7.598 16.938-16.938-7.598-16.938-16.938-16.938zm1.5 10.375c2.5647 0.58049 4.482 2.4978 5.0625 5.0625l-5.0625-5.0625zm-8.1562 7.625 5.5938 5.5938c-2.9228-0.46475-5.129-2.6709-5.5938-5.5938z" opacity=".1"/>
  <path id="path4113" d="m48 25.094c-8.773 0-15.906 7.1332-15.906 15.906s7.1332 15.906 15.906 15.906 15.906-7.1332 15.906-15.906-7.1332-15.906-15.906-15.906zm0 8c4.3785 0 7.9062 3.5277 7.9062 7.9062 0 0.37998-0.15087 0.752-0.21875 1.125l-8.8125-8.8125c0.37278-0.06781 0.74369-0.21875 1.125-0.21875zm-7.625 6.5 9.0312 9.0312c-0.46412 0.10114-0.91798 0.28125-1.4062 0.28125-4.3785 0-7.9062-3.5277-7.9062-7.9062 0-0.48671 0.18002-0.9417 0.28125-1.4062z" opacity=".15"/>
  <path id="path4111" d="m48 25.969c-8.2964 0-15.031 6.7348-15.031 15.031s6.7348 15.031 15.031 15.031 15.031-6.7348 15.031-15.031-6.7348-15.031-15.031-15.031zm0 6.25c4.8536 0 8.7812 3.9276 8.7812 8.7812 0 1.0266-0.24246 1.9913-0.5625 2.9062l-11.125-11.125c0.91447-0.32038 1.877-0.5625 2.9062-0.5625zm-8.125 5.625 11.281 11.281c-0.98742 0.38815-2.0277 0.65625-3.1562 0.65625-4.8536 0-8.7812-3.9276-8.7812-8.7812 0-1.126 0.26857-2.1684 0.65625-3.1562z" opacity=".3"/>
  <path id="rect2419" d="m12 6c-3.324 0-6 2.676-6 6v38 24c0 3.324 2.676 6 6 6h72c3.324 0 6-2.676 6-6v-24-38c0-3.324-2.676-6-6-6h-72zm8.1562 8h55.688c1.1871 0 2.1562 0.892 2.1562 2v32l-2 2v6 6h-56v-6-6l-2-2v-32c0-1.108 0.96911-2 2.1562-2z" fill="url(#linearGradient3251)"/>
  <path id="path3237" d="m6 50v24c0 3.324 2.676 6 6 6h72c3.324 0 6-2.676 6-6v-24c0 3.324-2.676 6-6 6h-4-4v6h-56v-6h-4-4c-3.324 0-6-2.676-6-6z" fill="url(#linearGradient3254)" opacity=".98"/>
  <path id="rect3728" d="m12 6c-3.324 0-6 2.676-6 6v2 68 2c0 0.33472 0.04135 0.6507 0.09375 0.96875 0.0487 0.2956 0.09704 0.59692 0.1875 0.875 0.00988 0.03038 0.020892 0.0636 0.03125 0.09375 0.098865 0.28777 0.23488 0.54745 0.375 0.8125 0.14459 0.27351 0.31562 0.53562 0.5 0.78125s0.37378 0.47347 0.59375 0.6875c0.43995 0.42806 0.94291 0.81453 1.5 1.0938 0.27854 0.13961 0.57347 0.24695 0.875 0.34375-0.2562-0.10022-0.48671-0.23627-0.71875-0.375-0.00741-0.0044-0.023866 0.0045-0.03125 0-0.031933-0.0193-0.062293-0.04251-0.09375-0.0625-0.1204-0.0767-0.23102-0.16351-0.34375-0.25-0.10617-0.0808-0.21328-0.16111-0.3125-0.25-0.17793-0.16143-0.34746-0.34539-0.5-0.53125-0.10758-0.13026-0.21839-0.26528-0.3125-0.40625-0.025089-0.03838-0.038446-0.08587-0.0625-0.125-0.064763-0.10303-0.13023-0.20452-0.1875-0.3125-0.10101-0.19471-0.20567-0.4157-0.28125-0.625-0.00796-0.02181-0.023589-0.04055-0.03125-0.0625-0.031825-0.09195-0.035804-0.18683-0.0625-0.28125-0.030332-0.10662-0.070389-0.20303-0.09375-0.3125-0.072879-0.34151-0.125-0.6982-0.125-1.0625v-2-68-2c0-2.7818 2.2182-5 5-5h2 68 2c2.7818 0 5 2.2182 5 5v2 68 2c0 0.3643-0.05212 0.72099-0.125 1.0625-0.04415 0.20689-0.08838 0.39766-0.15625 0.59375-0.0077 0.02195-0.0233 0.04069-0.03125 0.0625-0.06274 0.17374-0.13838 0.36745-0.21875 0.53125-0.04158 0.0828-0.07904 0.16995-0.125 0.25-0.0546 0.09721-0.12677 0.18835-0.1875 0.28125-0.09411 0.14096-0.20492 0.276-0.3125 0.40625-0.14317 0.17445-0.30314 0.347-0.46875 0.5-0.01117 0.0102-0.01998 0.02115-0.03125 0.03125-0.13839 0.12556-0.28509 0.23444-0.4375 0.34375-0.10257 0.07315-0.20432 0.15336-0.3125 0.21875-0.0074 0.0045-0.02384-0.0044-0.03125 0-0.23204 0.13873-0.46255 0.27478-0.71875 0.375 0.30153-0.0968 0.59646-0.20414 0.875-0.34375 0.55709-0.27922 1.0601-0.66569 1.5-1.0938 0.21997-0.21403 0.40937-0.44186 0.59375-0.6875s0.35541-0.50774 0.5-0.78125c0.14012-0.26505 0.27614-0.52473 0.375-0.8125 0.01041-0.03078 0.02133-0.06274 0.03125-0.09375 0.09046-0.27808 0.1388-0.5794 0.1875-0.875 0.0524-0.31805 0.09375-0.63403 0.09375-0.96875v-2-68-2c0-3.324-2.676-6-6-6h-72z" fill="url(#linearGradient3188)" opacity=".5"/>
  <path id="path4028" d="m6 72v12c0 3.324 2.676 6 6 6h72c3.324 0 6-2.676 6-6v-12c0 3.324-2.676 6-6 6h-72c-3.324 0-6-2.676-6-6z" fill="#424242" opacity=".98"/>
  <path id="path3615" d="m12 90c-3.324 0-6-2.676-6-6v-2-68-2c0-0.33472 0.04135-0.6507 0.09375-0.96875 0.0487-0.2956 0.09704-0.59692 0.1875-0.875 0.00988-0.03038 0.020892-0.0636 0.03125-0.09375 0.098865-0.28777 0.23488-0.54745 0.375-0.8125 0.14459-0.27351 0.31562-0.53562 0.5-0.78125s0.37378-0.47347 0.59375-0.6875c0.43995-0.42806 0.94291-0.81453 1.5-1.0938 0.27854-0.13961 0.57347-0.24695 0.875-0.34375-0.2562 0.10022-0.48671 0.23627-0.71875 0.375-0.00741 0.0044-0.023866-0.0045-0.03125 0-0.031933 0.0193-0.062293 0.04251-0.09375 0.0625-0.1204 0.0767-0.23102 0.16351-0.34375 0.25-0.10617 0.0808-0.21328 0.16111-0.3125 0.25-0.17793 0.16143-0.34746 0.34539-0.5 0.53125-0.10758 0.13026-0.21839 0.26528-0.3125 0.40625-0.025089 0.03838-0.038446 0.08587-0.0625 0.125-0.064763 0.10303-0.13023 0.20452-0.1875 0.3125-0.10101 0.19471-0.20567 0.4157-0.28125 0.625-0.00796 0.02181-0.023589 0.04055-0.03125 0.0625-0.031825 0.09195-0.035804 0.18683-0.0625 0.28125-0.030332 0.10662-0.070389 0.20303-0.09375 0.3125-0.072879 0.34151-0.125 0.6982-0.125 1.0625v2 68 2c0 2.7818 2.2182 5 5 5h2 68 2c2.7818 0 5-2.2182 5-5v-2-68-2c0-0.3643-0.05212-0.72099-0.125-1.0625-0.04415-0.20689-0.08838-0.39766-0.15625-0.59375-0.0077-0.02195-0.0233-0.04069-0.03125-0.0625-0.06274-0.17374-0.13838-0.36745-0.21875-0.53125-0.04158-0.0828-0.07904-0.16995-0.125-0.25-0.0546-0.09721-0.12677-0.18835-0.1875-0.28125-0.09411-0.14096-0.20492-0.276-0.3125-0.40625-0.14317-0.17445-0.30314-0.347-0.46875-0.5-0.01117-0.0102-0.01998-0.02115-0.03125-0.03125-0.13839-0.12556-0.28509-0.23444-0.4375-0.34375-0.10257-0.07315-0.20432-0.15336-0.3125-0.21875-0.0074-0.0045-0.02384 0.0044-0.03125 0-0.23204-0.13873-0.46255-0.27478-0.71875-0.375 0.30153 0.0968 0.59646 0.20414 0.875 0.34375 0.55709 0.27922 1.0601 0.66569 1.5 1.0938 0.21997 0.21403 0.40937 0.44186 0.59375 0.6875s0.35541 0.50774 0.5 0.78125c0.14012 0.26505 0.27614 0.52473 0.375 0.8125 0.01041 0.03078 0.02133 0.06274 0.03125 0.09375 0.09046 0.27808 0.1388 0.5794 0.1875 0.875 0.0524 0.31805 0.09375 0.63403 0.09375 0.96875v2 68 2c0 3.324-2.676 6-6 6h-72z" fill="url(#radialGradient3619)" opacity=".2"/>
  <path id="path3837" d="m19.156 13c-1.1871 0-2.1562 0.892-2.1562 2v32l1 1v-32c0-1.108 0.96911-2 2.1562-2h55.688c1.1871 0 2.1562 0.892 2.1562 2v32l1-1v-32c0-1.108-0.96911-2-2.1562-2h-57.688zm-0.15625 36v6l-1 1h2v-6l-1-1zm58 0-1 1v6h2l-1-1v-6z" fill="#fff" opacity=".6"/>
  <g id="text3840" transform="translate(0,-1)" fill="#666">
   <path id="path3866" d="m42.075 10.044h1.4943v0.42027h-0.88724v0.34155h0.75782v0.39492h-0.75782v0.79918h-0.60706v-1.9559"/>
   <path id="path3868" d="m44.845 11.677h-0.68844l-0.094728 0.32288h-0.61773l0.73514-1.9559h0.65909l0.73514 1.9559h-0.63241l-0.09606-0.32288m-0.12675-0.42294-0.21614-0.70312-0.2148 0.70312h0.43094"/>
   <path id="path3870" d="m45.764 10.044h1.6197v0.4176h-1.014v0.31087h0.94061v0.39892h-0.94061v0.38558h1.0433v0.44295h-1.6491v-1.9559"/>
   <path id="path3872" d="m47.744 10.044h0.56436l0.73648 1.082v-1.082h0.5697v1.9559h-0.5697l-0.73247-1.074v1.074h-0.56837v-1.9559"/>
   <path id="path3874" d="m49.969 10.044h1.7104v0.39092l-1.0967 1.1447h1.1367v0.42027h-1.8559v-0.4056l1.0847-1.1327h-0.9793v-0.4176"/>
   <path id="path3876" d="m53.197 11.677h-0.68844l-0.094728 0.32288h-0.61773l0.73514-1.9559h0.65909l0.73514 1.9559h-0.63241l-0.09606-0.32288m-0.12675-0.42294-0.21614-0.70312-0.21481 0.70312h0.43095"/>
  </g>
  <rect id="rect3246" x="110" y="56" width="56" height="6" fill="#f00" opacity=".7"/>
  <path id="rect3222" d="m6 50v34c0 3.324 2.676 6 6 6h12v-34h-4-4-4c-3.324 0-6-2.676-6-6z" fill="url(#linearGradient4186)" opacity=".15"/>
  <path id="path4080" d="m20 62c0 5.54 12.488 10 28 10s28-4.46 28-10h-56z" fill="url(#linearGradient4088)"/>
  <path id="path3244" d="m90 50c0 3.324-2.676 6-6 6h-4-4-4v34h12c3.324 0 6-2.676 6-6v-34z" fill="url(#linearGradient4188)" opacity=".15"/>
  <path id="path4090" d="m21 62.536c0 2.2329 2.0623 4.2768 5.5 5.9375 6.264-2.5934 14.152-4.6463 23.062-5.9375h-28.562z" fill="url(#linearGradient3977)" opacity=".6"/>
  <path id="path4060" d="m20 56v6c0 5.54 12.488 10 28 10s28-4.46 28-10v-6h-1v1 0.4375 4.5625c0 1.0055-0.56954 2.0455-1.8438 3.125s-3.234 2.1237-5.6875 3c-4.9071 1.7525-11.81 2.875-19.469 2.875s-14.562-1.1225-19.469-2.875c-2.4535-0.87626-4.4133-1.9205-5.6875-3s-1.8438-2.1195-1.8438-3.125v-4.5625-0.4375-1h-1z" fill="url(#linearGradient4078)"/>
  <rect id="rect4070" x="21" y="61" width="54" height="1"/>
  <path id="path4117" d="m19 56v7c0 5.54 12.934 10 29 10s29-4.46 29-10v-7h-1v6c0 5.54-12.488 10-28 10s-28-4.46-28-10v-6h-1z" fill="#fff" opacity=".4"/>
  <path id="path4123" d="m6 71v2c0 3.324 2.676 6 6 6h72c3.324 0 6-2.676 6-6v-2c0 3.324-2.676 6-6 6h-72c-3.324 0-6-2.676-6-6z" opacity=".3"/>
  <path id="path3974" d="m6 49v1c0 3.324 2.676 6 6 6h8v-1h-8c-3.324 0-6-2.676-6-6zm84 0c0 3.324-2.676 6-6 6h-8v1h8c3.324 0 6-2.676 6-6v-1z" fill="#fff" opacity=".5"/>
  <path id="path4104" d="m20.179 61.886c0 0.57611 0.06646 1.1531 0.15625 1.7143h55.688c0.08979-0.56119 0.15625-1.1382 0.15625-1.7143h-56z" fill="url(#radialGradient4115)"/>
  <path id="path2424" d="m48 54.5c8.004 0 14.5-6.496 14.5-14.5s-6.496-14.5-14.5-14.5-14.5 6.496-14.5 14.5c0 8.004 6.496 14.5 14.5 14.5zm0-5.1786c-5.1454 0-9.3214-4.176-9.3214-9.3214 0-1.3905 0.31101-2.7064 0.8577-3.892l12.364 12.356c-1.1874 0.54863-2.507 0.8577-3.9001 0.8577zm8.3504-5.1948-12.485-12.477c1.2469-0.61916 2.649-0.97098 4.1348-0.97098 5.1454 0 9.3214 4.176 9.3214 9.3214 0 1.4832-0.35382 2.8814-0.97098 4.1267z" fill="url(#linearGradient3330)" stroke="#a00000" stroke-linecap="round"/>
  <path id="path3072" transform="translate(-70)" d="m48 25.094c-8.773 0-15.906 7.1332-15.906 15.906s7.1332 15.906 15.906 15.906 15.906-7.1332 15.906-15.906-7.1332-15.906-15.906-15.906zm0 8c4.3785 0 7.9062 3.5277 7.9062 7.9062 0 0.37998-0.15087 0.752-0.21875 1.125l-8.8125-8.8125c0.37278-0.06781 0.74369-0.21875 1.125-0.21875zm-7.625 6.5 9.0312 9.0312c-0.46412 0.10114-0.91798 0.28125-1.4062 0.28125-4.3785 0-7.9062-3.5277-7.9062-7.9062 0-0.48671 0.18002-0.9417 0.28125-1.4062z" opacity=".15"/>
  <path id="path3074" transform="translate(-70)" d="m48 25.969c-8.2964 0-15.031 6.7348-15.031 15.031s6.7348 15.031 15.031 15.031 15.031-6.7348 15.031-15.031-6.7348-15.031-15.031-15.031zm0 6.25c4.8536 0 8.7812 3.9276 8.7812 8.7812 0 1.0266-0.24246 1.9913-0.5625 2.9062l-11.125-11.125c0.91447-0.32038 1.877-0.5625 2.9062-0.5625zm-8.125 5.625 11.281 11.281c-0.98742 0.38815-2.0277 0.65625-3.1562 0.65625-4.8536 0-8.7812-3.9276-8.7812-8.7812 0-1.126 0.26857-2.1684 0.65625-3.1562z" opacity=".3"/>
  <path id="path3076" d="m-22 25.5c-8.004 0-14.5 6.496-14.5 14.5s6.496 14.5 14.5 14.5 14.5-6.496 14.5-14.5-6.496-14.5-14.5-14.5zm0 5.1786c5.1454 0 9.3214 4.176 9.3214 9.3214 0 1.3905-0.31101 2.7064-0.8577 3.892l-12.364-12.356c1.1874-0.54863 2.507-0.8577 3.9001-0.8577zm-8.3504 5.1948 12.485 12.477c-1.2469 0.61916-2.649 0.97098-4.1348 0.97098-5.1454 0-9.3214-4.176-9.3214-9.3214 0-1.4832 0.35382-2.8814 0.97098-4.1267z" fill="url(#linearGradient3082)" stroke="#a00000" stroke-linecap="round"/>
  <path id="path3078" d="m-22 25.631c-7.9319 0-14.369 6.4375-14.369 14.369s6.4375 14.369 14.369 14.369c7.9319 0 14.369-6.4375 14.369-14.369s-6.4375-14.369-14.369-14.369zm0 0.78378c7.4992 0 13.586 6.0863 13.586 13.586s-6.0863 13.586-13.586 13.586c-7.4992 0-13.586-6.0863-13.586-13.586s6.0863-13.586 13.586-13.586z" fill="url(#linearGradient3084)" opacity=".6"/>
  <path id="path3080" d="m-22 25.622c-7.3072 0-13.344 5.4635-14.255 12.524 1.5333 0.42889 3.1541 0.78259 4.8415 1.0695 0.10037-1.2126 0.43142-2.3559 0.94707-3.3964 0.01469-0.03079 0.04116-0.05436 0.07348-0.06532 0.04622-0.01518 0.09701-0.0025 0.13063 0.03264l4.0577 4.0577c1.3729 0.0989 2.7773 0.15512 4.2047 0.15512 1.4357 0 2.8486-0.0551 4.2292-0.15512l-8.2216-8.2216c-0.02899-0.0298-0.04082-0.07352-0.03266-0.1143 0.0082-0.04078 0.03525-0.07343 0.07348-0.08981 1.2034-0.55604 2.5398-0.86543 3.9516-0.86543 4.9498 0 9.0146 3.8149 9.4136 8.6624 1.6874-0.28695 3.3082-0.64065 4.8415-1.0695-0.91095-7.0607-6.9479-12.524-14.255-12.524z" fill="url(#linearGradient3086)" opacity=".8"/>
  <path id="path3088" d="m48 25.5c-8.004 0-14.5 6.496-14.5 14.5 0 0.17044 0.025407 0.33097 0.03125 0.5 0.26856-7.7685 6.6352-14 14.469-14s14.2 6.2315 14.469 14c0.005843-0.16903 0.03125-0.32956 0.03125-0.5 0-8.004-6.496-14.5-14.5-14.5zm-3.4062 6.875c-0.23899 0.095143-0.48979 0.16755-0.71875 0.28125l12.469 12.469c0.61716-1.2453 0.96875-2.6418 0.96875-4.125 0-0.21451-0.016966-0.41409-0.03125-0.625-0.054922 1.3421-0.37332 2.6116-0.9375 3.75l-11.75-11.75zm-5.875 8.2812c-0.004292 0.11502-0.03125 0.22766-0.03125 0.34375 0 5.1454 4.1671 9.3125 9.3125 9.3125 1.3932 0 2.7189-0.29512 3.9062-0.84375l-0.71875-0.71875c-0.99378 0.36285-2.0684 0.5625-3.1875 0.5625-4.9202 0-8.9376-3.8231-9.2812-8.6562z" fill="url(#linearGradient3871)" opacity=".6"/>
 </g>
 <g id="layer7">
  <rect id="rect3888" x="8" y="31" width="8" height="4" rx="1" ry="1" fill="#fff" opacity=".4"/>
  <rect id="rect3878" x="8.25" y="30.25" width="7.5" height="3.5" rx=".53571" ry=".4375" fill="url(#radialGradient3886)" stroke="#008033" stroke-width=".5"/>
  <path id="rect3987" d="m8.75 36c-0.4155 0-0.75 0.3345-0.75 0.75v2.5c0 0.4155 0.3345 0.75 0.75 0.75-0.4155 0-0.75 0.3345-0.75 0.75v2.5c0 0.4155 0.3345 0.75 0.75 0.75h2.5c0.4155 0 0.75-0.3345 0.75-0.75 0 0.4155 0.3345 0.75 0.75 0.75h2.5c0.4155 0 0.75-0.3345 0.75-0.75v-2.5c0-0.4155-0.3345-0.75-0.75-0.75 0.4155 0 0.75-0.3345 0.75-0.75v-2.5c0-0.4155-0.3345-0.75-0.75-0.75h-2.5c-0.4155 0-0.75 0.3345-0.75 0.75 0-0.4155-0.3345-0.75-0.75-0.75h-2.5zm3.25 3.25c0 0.4155 0.3345 0.75 0.75 0.75-0.4155 0-0.75 0.3345-0.75 0.75 0-0.4155-0.3345-0.75-0.75-0.75 0.4155 0 0.75-0.3345 0.75-0.75z" opacity=".18376"/>
  <rect id="rect4019" transform="rotate(-90)" x="-43" y="8" width="3" height="3" rx=".5" ry=".5" fill="#fff"/>
  <g id="g3318" transform="matrix(.99998 0 0 1 -7.4997 -34.5)">
   <path id="path3374" transform="matrix(0 1.6709 1.6638 0 -122.04 53.283)" d="m20.18 85.06a2.089 2.098 0 0 1-2.09 2.1 2.089 2.098 0 0 1-2.09-2.1 2.089 2.098 0 0 1 2.09-2.1 2.089 2.098 0 0 1 2.09 2.1z" fill="url(#linearGradient3556)"/>
   <path id="path3364" transform="matrix(1.1923 0 0 1.1872 -2.0769 -17.48)" d="m20.18 85.06a2.089 2.098 0 0 1-2.09 2.1 2.089 2.098 0 0 1-2.09-2.1 2.089 2.098 0 0 1 2.09-2.1 2.089 2.098 0 0 1 2.09 2.1z" fill="url(#radialGradient2984)" stroke="#000" stroke-linecap="square" stroke-opacity=".53182" stroke-width=".84051"/>
  </g>
  <rect id="rect4080" x="8" y="25" width="1" height="1" fill="#ff7600"/>
  <g id="text4082" transform="translate(0,-26)" fill="#4d4d4d">
   <path id="path4110" d="m10.638 52-0.39385-0.69597c0.0021 0.01882 0.0041 0.03763 0.0058 0.05645 0.0017 0.01625 3e-3 0.03378 0.0038 0.0526 0.0013 0.01882 0.0019 0.03678 0.0019 0.05388v0.53304h-0.16806v-0.9038h0.21617l0.39962 0.70174c-0.0021-0.01796-0.0041-0.03678-0.0058-0.05645-0.0017-0.01668-0.0032-0.03549-0.0045-0.05645-8.56e-4 -0.02095-0.0013-0.04212-0.0013-0.0635v-0.52534h0.16806v0.9038h-0.22194"/>
   <path id="path4112" d="m11.325 52.013c-0.05003 0-0.09515-0.0073-0.13534-0.02181-0.03977-0.01497-0.07377-0.03742-0.10199-0.06735-0.02822-0.03036-0.04982-0.06821-0.06479-0.11354-0.01497-0.04576-0.02245-0.09921-0.02245-0.16036 0-0.06628 0.0088-0.12209 0.0263-0.16742 0.01796-0.04533 0.04191-0.08189 0.07184-0.10969 0.03036-0.02822 0.06521-0.04854 0.10456-0.06094 0.03934-0.0124 0.08082-0.0186 0.12444-0.0186 0.05474 1e-6 0.10135 0.0096 0.13983 0.02886 0.03891 0.01882 0.07077 0.04533 0.09558 0.07954 0.0248 0.03421 0.04298 0.07526 0.05452 0.12316 0.01155 0.04747 0.01732 0.10006 0.01732 0.1578v0.0051h-0.44516c0 0.02908 0.0026 0.05623 0.0077 0.08146 0.0051 0.0248 0.01347 0.0464 0.02502 0.06479 0.01154 0.01796 0.02651 0.03229 0.0449 0.04298 0.01839 0.01026 0.04062 0.01539 0.06671 0.01539 0.03164 0 0.05752-0.0066 0.07761-0.01988 0.0201-0.01368 0.03442-0.03464 0.04298-0.06286l0.16998 0.01475c-0.0077 0.01967-0.0186 0.04062-0.03271 0.06286-0.01369 0.02224-0.03207 0.04276-0.05517 0.06158-0.02309 0.01839-0.05196 0.03378-0.08659 0.04618-0.03421 0.01197-0.0759 0.01796-0.12508 0.01796m0-0.60616c-0.01839 1e-6 -0.03571 0.0032-0.05196 0.0096-0.01582 6e-3 -0.02972 0.01582-0.04169 0.02951-0.01155 0.01326-0.02095 0.03058-0.02822 0.05196-0.0073 0.02138-0.01133 0.04704-0.01219 0.07697h0.26941c-0.0034-0.05602-0.01689-0.09793-0.04041-0.12572-0.02352-0.02822-0.05517-0.04233-0.09493-0.04234"/>
   <path id="path4114" d="m11.95 52.012c-0.05303 0-0.09387-0.01433-0.12252-0.04298-0.02865-0.02908-0.04298-0.07291-0.04298-0.1315v-0.40924h-0.08788v-0.12188h0.09686l0.05645-0.16293h0.11289v0.16293h0.1315v0.12188h-0.1315v0.36049c0 0.03378 0.0064 0.0588 0.01924 0.07505 0.01283 0.01582 0.03271 0.02373 0.05965 0.02373 0.01112 0 0.02117-8.55e-4 0.03015-0.0026 9e-3 -0.0017 0.01903-0.0038 0.03015-0.0064v0.11161c-0.02224 0.0073-0.04576 0.01262-0.07056 0.01604-0.0248 0.0038-0.05196 0.0058-0.08146 0.0058"/>
   <path id="path4116" d="m12.962 52h-0.19051l-0.11033-0.42335c-0.0034-0.01326-0.0068-0.02801-0.01026-0.04426-0.0034-0.01668-0.0066-0.03229-0.0096-0.04682l-0.01026-0.05132c-0.0038 0.01711-0.0077 0.03421-0.01155 0.05132-0.0034 0.01454-0.0071 0.03015-0.0109 0.04682-0.0038 0.01668-0.0075 0.03186-0.0109 0.04554l-0.11164 0.42207h-0.19051l-0.1796-0.69404h0.16934l0.08788 0.40796c0.0026 0.01155 0.0053 0.02459 0.0083 0.03913 3e-3 0.01411 0.0058 0.02737 0.0083 0.03977 3e-3 0.01454 0.0062 0.02908 0.0096 0.04362 3e-3 -0.01625 6e-3 -0.03207 9e-3 -0.04747 0.0026-0.01326 0.0053-0.02673 0.0083-0.04041s0.0056-0.02523 0.0077-0.03464l0.10904-0.40796h0.19308l0.10648 0.40796c3e-3 0.01112 6e-3 0.02373 9e-3 0.03785 3e-3 0.01411 0.0058 0.02737 0.0083 0.03977 3e-3 0.01454 6e-3 0.02951 9e-3 0.0449 0.0034-0.0154 0.0066-0.03036 0.0096-0.0449 0.0026-0.0124 0.0053-0.02566 0.0083-0.03977s0.0058-0.02673 0.0083-0.03785l0.09173-0.40796h0.16678l-0.18196 0.69404"/>
   <path id="path4118" d="m13.892 51.652c-1e-6 0.05303-0.0075 0.10156-0.02245 0.14561-0.01454 0.04405-0.03656 0.0821-0.06607 0.11418-0.02951 0.03165-0.06628 0.05645-0.11033 0.07441-0.04405 0.01753-0.09536 0.0263-0.15395 0.0263-0.05645 0-0.10627-0.0088-0.14946-0.0263-0.04319-0.01753-0.07954-0.04212-0.10904-0.07377-0.02908-0.03165-0.0511-0.06949-0.06607-0.11354-0.01497-0.04447-0.02245-0.09344-0.02245-0.14689 0-0.05174 0.0071-0.09942 0.02117-0.14304 0.01454-0.04405 0.03635-0.0821 0.06543-0.11418 0.02908-0.03207 0.06564-0.05709 0.10969-0.07505 0.04405-0.01796 0.09557-0.02694 0.15459-0.02694 0.06243 1e-6 0.11567 9e-3 0.15972 0.02694 0.04405 0.01796 0.07997 0.04298 0.10776 0.07505 0.02822 0.03165 0.04875 0.06949 0.06158 0.11354 0.01326 0.04362 0.01988 0.09151 0.01988 0.14368m-0.18858 0c-1e-6 -0.08253-0.01347-0.1424-0.04041-0.1796-0.02694-0.0372-0.06607-0.0558-0.11738-0.05581-0.05303 1e-6 -0.09365 0.01882-0.12187 0.05645-0.02822 0.03763-0.04234 0.09729-0.04233 0.17896-1e-6 0.04148 0.0036 0.07719 0.0109 0.10712 0.0077 0.02993 0.01839 0.05452 0.03207 0.07377 0.01368 0.01924 0.03015 0.03357 0.04939 0.04298 0.01924 9e-3 0.04041 0.01347 0.0635 0.01347 0.02651 0 0.05003-0.0045 0.07056-0.01347 0.02095-0.0094 0.03849-0.02373 0.0526-0.04298 0.01411-0.01924 0.0248-0.04383 0.03207-0.07377 0.0073-0.02993 0.0109-0.06564 0.01091-0.10712"/>
   <path id="path4120" d="m14.035 52v-0.53112c0-0.01497-2.14e-4 -0.03079-6.42e-4 -0.04747 0-0.01668-4.27e-4 -0.0325-0.0013-0.04747-4.27e-4 -0.01539-8.55e-4 -0.02908-0.0013-0.04105-4.28e-4 -0.0124-0.0011-0.02138-0.0019-0.02694h0.17191c8.55e-4 0.0051 0.0017 0.01411 0.0026 0.02694 8.55e-4 0.0124 0.0017 0.02609 0.0026 0.04105 8.55e-4 0.01497 0.0015 0.02994 0.0019 0.0449 8.55e-4 0.01454 0.0013 0.0263 0.0013 0.03528h0.0026c9e-3 -0.02523 0.01796-0.04768 0.02694-0.06735 9e-3 -0.0201 0.01946-0.03699 0.03143-0.05067 0.0124-0.01411 0.02715-0.0248 0.04426-0.03207 0.0171-0.0077 0.03827-0.01154 0.0635-0.01155 0.01069 1e-6 0.02117 0.0011 0.03143 0.0032 0.01069 0.0017 0.01882 0.0038 0.02438 0.0064v0.15074c-0.01155-0.0026-0.02331-0.0047-0.03528-0.0064-0.01155-0.0021-0.02544-0.0032-0.04169-0.0032-0.0449 1e-6 -0.07997 0.01817-0.1052 0.05452-0.0248 0.03635-0.0372 0.09023-0.0372 0.16164v0.34061h-0.18025"/>
   <path id="path4122" d="m14.989 52-0.18538-0.31431-0.07761 0.05388v0.26043h-0.18025v-0.9519h0.18025v0.54523l0.2476-0.28737h0.19372l-0.24375 0.27069 0.26235 0.42336h-0.19692"/>
  </g>
  <rect id="rect4086" x="8" y="27" width="1" height="1" fill="#f00"/>
  <g id="text4088" transform="translate(0,-26)" fill="#4d4d4d">
   <path id="path4099" d="m10.088 54v-0.9038h0.71072v0.14625h-0.52149v0.22707h0.48237v0.14625h-0.48237v0.23798h0.54779v0.14625h-0.73702"/>
   <path id="path4101" d="m10.969 54v-0.53112c0-0.01497-2.14e-4 -0.03079-6.41e-4 -0.04747 0-0.01668-4.28e-4 -0.0325-0.0013-0.04747-4.28e-4 -0.01539-8.55e-4 -0.02908-0.0013-0.04105-4.28e-4 -0.0124-0.0011-0.02138-0.0019-0.02694h0.17191c8.55e-4 0.0051 0.0017 0.01411 0.0026 0.02694 8.55e-4 0.0124 0.0017 0.02609 0.0026 0.04105 8.55e-4 0.01497 0.0015 0.02994 0.0019 0.0449 8.55e-4 0.01454 0.0013 0.0263 0.0013 0.03528h0.0026c9e-3 -0.02523 0.01796-0.04768 0.02694-0.06735 9e-3 -0.0201 0.01946-0.03699 0.03143-0.05067 0.0124-0.01411 0.02715-0.0248 0.04426-0.03207 0.01711-0.0077 0.03827-0.01154 0.0635-0.01155 0.01069 1e-6 0.02117 0.0011 0.03143 0.0032 0.01069 0.0017 0.01882 0.0038 0.02438 0.0064v0.15074c-0.01155-0.0026-0.02331-0.0047-0.03528-0.0064-0.01155-0.0021-0.02544-0.0032-0.04169-0.0032-0.0449 1e-6 -0.07997 0.01817-0.1052 0.05452-0.0248 0.03635-0.0372 0.09023-0.0372 0.16164v0.34061h-0.18025"/>
   <path id="path4103" d="m11.48 54v-0.53112c0-0.01497-2.14e-4 -0.03079-6.42e-4 -0.04747 0-0.01668-4.27e-4 -0.0325-0.0013-0.04747-4.28e-4 -0.01539-8.56e-4 -0.02908-0.0013-0.04105-4.28e-4 -0.0124-0.0011-0.02138-0.0019-0.02694h0.17191c8.55e-4 0.0051 0.0017 0.01411 0.0026 0.02694 8.55e-4 0.0124 0.0017 0.02609 0.0026 0.04105 8.55e-4 0.01497 0.0015 0.02994 0.0019 0.0449 8.55e-4 0.01454 0.0013 0.0263 0.0013 0.03528h0.0026c9e-3 -0.02523 0.01796-0.04768 0.02694-0.06735 9e-3 -0.0201 0.01946-0.03699 0.03143-0.05067 0.0124-0.01411 0.02715-0.0248 0.04426-0.03207 0.0171-0.0077 0.03827-0.01154 0.0635-0.01155 0.01069 1e-6 0.02117 0.0011 0.03143 0.0032 0.01069 0.0017 0.01882 0.0038 0.02437 0.0064v0.15074c-0.01155-0.0026-0.02331-0.0047-0.03528-0.0064-0.01155-0.0021-0.02544-0.0032-0.04169-0.0032-0.0449 1e-6 -0.07997 0.01817-0.1052 0.05452-0.0248 0.03635-0.0372 0.09023-0.0372 0.16164v0.34061h-0.18025"/>
   <path id="path4105" d="m12.65 53.652c-1e-6 0.05303-0.0075 0.10156-0.02245 0.14561-0.01454 0.04405-0.03656 0.0821-0.06607 0.11418-0.02951 0.03165-0.06628 0.05645-0.11033 0.07441-0.04405 0.01753-0.09536 0.0263-0.15395 0.0263-0.05645 0-0.10627-0.0088-0.14946-0.0263-0.04319-0.01753-0.07954-0.04212-0.10904-0.07377-0.02908-0.03165-0.0511-0.06949-0.06607-0.11354-0.01497-0.04447-0.02245-0.09344-0.02245-0.14689-1e-6 -0.05174 0.0071-0.09942 0.02117-0.14304 0.01454-0.04405 0.03635-0.0821 0.06543-0.11418 0.02908-0.03207 0.06564-0.05709 0.10969-0.07505 0.04405-0.01796 0.09558-0.02694 0.15459-0.02694 0.06243 1e-6 0.11567 9e-3 0.15972 0.02694 0.04405 0.01796 0.07997 0.04298 0.10776 0.07505 0.02822 0.03165 0.04875 0.06949 0.06158 0.11354 0.01326 0.04362 0.01988 0.09151 0.01989 0.14368m-0.18858 0c-1e-6 -0.08253-0.01347-0.1424-0.04041-0.1796-0.02694-0.0372-0.06607-0.0558-0.11738-0.05581-0.05303 1e-6 -0.09365 0.01882-0.12187 0.05645-0.02822 0.03763-0.04234 0.09729-0.04233 0.17896-1e-6 0.04148 0.0036 0.07719 0.0109 0.10712 0.0077 0.02993 0.01839 0.05452 0.03207 0.07377 0.01368 0.01924 0.03015 0.03357 0.04939 0.04298 0.01924 9e-3 0.04041 0.01347 0.0635 0.01347 0.02651 0 0.05003-0.0045 0.07056-0.01347 0.02095-0.0094 0.03849-0.02373 0.0526-0.04298 0.01411-0.01924 0.0248-0.04383 0.03207-0.07377 0.0073-0.02993 0.0109-0.06564 0.0109-0.10712"/>
   <path id="path4107" d="m12.793 54v-0.53112c0-0.01497-2.14e-4 -0.03079-6.42e-4 -0.04747 0-0.01668-4.27e-4 -0.0325-0.0013-0.04747-4.27e-4 -0.01539-8.55e-4 -0.02908-0.0013-0.04105-4.27e-4 -0.0124-0.0011-0.02138-0.0019-0.02694h0.17191c8.55e-4 0.0051 0.0017 0.01411 0.0026 0.02694 8.55e-4 0.0124 0.0017 0.02609 0.0026 0.04105 8.55e-4 0.01497 0.0015 0.02994 0.0019 0.0449 8.55e-4 0.01454 0.0013 0.0263 0.0013 0.03528h0.0026c9e-3 -0.02523 0.01796-0.04768 0.02694-0.06735 9e-3 -0.0201 0.01946-0.03699 0.03143-0.05067 0.0124-0.01411 0.02715-0.0248 0.04426-0.03207 0.01711-0.0077 0.03827-0.01154 0.0635-0.01155 0.01069 1e-6 0.02117 0.0011 0.03143 0.0032 0.01069 0.0017 0.01882 0.0038 0.02437 0.0064v0.15074c-0.01155-0.0026-0.02331-0.0047-0.03528-0.0064-0.01155-0.0021-0.02544-0.0032-0.04169-0.0032-0.0449 1e-6 -0.07997 0.01817-0.1052 0.05452-0.0248 0.03635-0.0372 0.09023-0.0372 0.16164v0.34061h-0.18025"/>
  </g>
  <rect id="rect4092" x="8" y="23" width="1" height="1" fill="#ff7600"/>
  <g id="text4094" transform="translate(0,-26)" fill="#4d4d4d">
   <path id="path4125" d="m10.831 49.382c-1e-6 0.03892-0.0066 0.07655-0.01989 0.11289-0.01283 0.03592-0.03271 0.06778-0.05965 0.09558s-0.06115 0.05003-0.10263 0.06671c-0.04148 0.01625-0.09066 0.02437-0.14753 0.02437h-0.2245v0.31816h-0.18923v-0.9038h0.40603c0.05773 1e-6 0.10776 0.0071 0.1501 0.02117 0.04233 0.01369 0.0774 0.03314 0.1052 0.05837 0.02779 0.02523 0.04832 0.05538 0.06158 0.09044 0.01368 0.03507 0.02052 0.07377 0.02053 0.1161m-0.19051 0.0032c-1e-6 -0.04661-0.01411-0.08189-0.04234-0.10584-0.0278-0.02437-0.0697-0.03656-0.12572-0.03656h-0.19564v0.29314h0.20077c0.02822 0 0.05238-0.0036 0.07248-0.01091 0.02053-0.0073 0.03742-0.01753 0.05067-0.03079 0.01368-0.01326 0.02373-0.02908 0.03015-0.04747 0.0064-0.01881 0.0096-0.03934 0.0096-0.06158"/>
   <path id="path4127" d="m11.629 49.652c-1e-6 0.05303-0.0075 0.10156-0.02245 0.14561-0.01454 0.04405-0.03656 0.0821-0.06607 0.11418-0.02951 0.03165-0.06628 0.05645-0.11033 0.07441-0.04405 0.01753-0.09536 0.0263-0.15395 0.0263-0.05645 0-0.10627-0.0088-0.14946-0.0263-0.04319-0.01753-0.07954-0.04212-0.10904-0.07377-0.02908-0.03165-0.0511-0.06949-0.06607-0.11354-0.01497-0.04447-0.02245-0.09344-0.02245-0.14689 0-0.05174 0.0071-0.09942 0.02117-0.14304 0.01454-0.04405 0.03635-0.0821 0.06543-0.11418 0.02908-0.03207 0.06564-0.05709 0.10969-0.07505 0.04405-0.01796 0.09558-0.02694 0.15459-0.02694 0.06243 1e-6 0.11567 9e-3 0.15972 0.02694 0.04405 0.01796 0.07997 0.04298 0.10776 0.07505 0.02822 0.03165 0.04875 0.06949 0.06158 0.11354 0.01326 0.04362 0.01988 0.09151 0.01989 0.14368m-0.18858 0c0-0.08253-0.01347-0.1424-0.04041-0.1796-0.02694-0.0372-0.06607-0.0558-0.11738-0.05581-0.05303 1e-6 -0.09365 0.01882-0.12187 0.05645-0.02822 0.03763-0.04234 0.09729-0.04234 0.17896 0 0.04148 0.0036 0.07719 0.01091 0.10712 0.0077 0.02993 0.01839 0.05452 0.03207 0.07377 0.01368 0.01924 0.03015 0.03357 0.04939 0.04298 0.01924 9e-3 0.04041 0.01347 0.0635 0.01347 0.02651 0 0.05003-0.0045 0.07056-0.01347 0.02095-0.0094 0.03849-0.02373 0.0526-0.04298 0.01411-0.01924 0.0248-0.04383 0.03207-0.07377 0.0073-0.02993 0.0109-0.06564 0.0109-0.10712"/>
   <path id="path4129" d="m12.523 50h-0.19051l-0.11033-0.42335c-0.0034-0.01326-0.0068-0.02801-0.01026-0.04426-0.0034-0.01668-0.0066-0.03229-0.0096-0.04682l-0.01026-0.05132c-0.0038 0.01711-0.0077 0.03421-0.01155 0.05132-0.0034 0.01454-0.0071 0.03015-0.0109 0.04682-0.0038 0.01668-0.0075 0.03186-0.0109 0.04554l-0.11164 0.42207h-0.19051l-0.1796-0.69404h0.16934l0.08788 0.40796c0.0026 0.01155 0.0053 0.02459 0.0083 0.03913 3e-3 0.01411 0.0058 0.02737 0.0083 0.03977 3e-3 0.01454 0.0062 0.02908 0.0096 0.04362 3e-3 -0.01625 6e-3 -0.03207 9e-3 -0.04747 0.0026-0.01326 0.0053-0.02673 0.0083-0.04041s0.0056-0.02523 0.0077-0.03464l0.10904-0.40796h0.19308l0.10648 0.40796c3e-3 0.01112 6e-3 0.02373 9e-3 0.03785 3e-3 0.01411 0.0058 0.02737 0.0083 0.03977 3e-3 0.01454 6e-3 0.02951 9e-3 0.0449 0.0034-0.0154 0.0066-0.03036 0.0096-0.0449 0.0026-0.0124 0.0053-0.02566 0.0083-0.03977s0.0058-0.02673 0.0083-0.03785l0.09173-0.40796h0.16678l-0.18196 0.69404"/>
   <path id="path4131" d="m13.078 50.013c-0.05003 0-0.09515-0.0073-0.13534-0.02181-0.03977-0.01497-0.07377-0.03742-0.10199-0.06735-0.02822-0.03036-0.04982-0.06821-0.06479-0.11354-0.01497-0.04576-0.02245-0.09921-0.02245-0.16036 0-0.06628 0.0088-0.12209 0.0263-0.16742 0.01796-0.04533 0.04191-0.08189 0.07184-0.10969 0.03036-0.02822 0.06521-0.04854 0.10456-0.06094 0.03934-0.0124 0.08082-0.0186 0.12444-0.0186 0.05474 1e-6 0.10135 0.0096 0.13984 0.02886 0.03891 0.01882 0.07077 0.04533 0.09558 0.07954 0.0248 0.03421 0.04298 0.07526 0.05452 0.12316 0.01154 0.04747 0.01732 0.10006 0.01732 0.1578v0.0051h-0.44516c-1e-6 0.02908 0.0026 0.05623 0.0077 0.08146 0.0051 0.0248 0.01347 0.0464 0.02502 0.06479 0.01155 0.01796 0.02651 0.03229 0.0449 0.04298 0.01839 0.01026 0.04063 0.01539 0.06671 0.01539 0.03164 0 0.05752-0.0066 0.07761-0.01988 0.0201-0.01368 0.03442-0.03464 0.04298-0.06286l0.16998 0.01475c-0.0077 0.01967-0.0186 0.04062-0.03271 0.06286-0.01368 0.02224-0.03207 0.04276-0.05516 0.06158-0.02309 0.01839-0.05196 0.03378-0.0866 0.04618-0.03421 0.01197-0.07591 0.01796-0.12508 0.01796m0-0.60616c-0.01839 1e-6 -0.03571 0.0032-0.05196 0.0096-0.01582 6e-3 -0.02972 0.01582-0.04169 0.02951-0.01155 0.01326-0.02095 0.03058-0.02822 0.05196-0.0073 0.02138-0.01133 0.04704-0.01219 0.07697h0.26941c-0.0034-0.05602-0.01689-0.09793-0.04041-0.12572-0.02352-0.02822-0.05516-0.04233-0.09493-0.04234"/>
   <path id="path4133" d="m13.525 50v-0.53112c0-0.01497-2.14e-4 -0.03079-6.41e-4 -0.04747 0-0.01668-4.28e-4 -0.0325-0.0013-0.04747-4.28e-4 -0.01539-8.56e-4 -0.02908-0.0013-0.04105-4.28e-4 -0.0124-0.0011-0.02138-0.0019-0.02694h0.17191c8.55e-4 0.0051 0.0017 0.01411 0.0026 0.02694 8.55e-4 0.0124 0.0017 0.02609 0.0026 0.04105 8.55e-4 0.01497 0.0015 0.02994 0.0019 0.0449 8.55e-4 0.01454 0.0013 0.0263 0.0013 0.03528h0.0026c9e-3 -0.02523 0.01796-0.04768 0.02694-0.06735 9e-3 -0.0201 0.01946-0.03699 0.03143-0.05067 0.0124-0.01411 0.02715-0.0248 0.04426-0.03207 0.01711-0.0077 0.03827-0.01154 0.0635-0.01155 0.01069 1e-6 0.02117 0.0011 0.03143 0.0032 0.01069 0.0017 0.01882 0.0038 0.02437 0.0064v0.15074c-0.01155-0.0026-0.02331-0.0047-0.03528-0.0064-0.01155-0.0021-0.02544-0.0032-0.04169-0.0032-0.0449 1e-6 -0.07997 0.01817-0.1052 0.05452-0.0248 0.03635-0.0372 0.09023-0.0372 0.16164v0.34061h-0.18025"/>
  </g>
  <rect id="rect3995" transform="rotate(-90)" x="-43" y="12" width="3" height="3" rx=".5" ry=".5" fill="#fff"/>
  <rect id="rect3999" transform="rotate(-90)" x="-39" y="8" width="3" height="3" rx=".5" ry=".5" fill="#fff"/>
  <rect id="rect4004" transform="rotate(-90)" x="-39" y="12" width="3" height="3" rx=".5" ry=".5" fill="#fff"/>
 </g>
</svg>
