<?xml version="1.0" encoding="UTF-8"?>
<svg id="svg2408" width="96" height="96" version="1.0" xmlns="http://www.w3.org/2000/svg" xmlns:cc="http://creativecommons.org/ns#" xmlns:dc="http://purl.org/dc/elements/1.1/" xmlns:rdf="http://www.w3.org/1999/02/22-rdf-syntax-ns#" xmlns:xlink="http://www.w3.org/1999/xlink">
 <defs id="defs2410">
  <linearGradient id="ButtonShadow" x1="45.448" x2="45.448" y1="92.54" y2="7.0165" gradientTransform="scale(1.0059 .99417)" gradientUnits="userSpaceOnUse">
   <stop id="stop3750" offset="0"/>
   <stop id="stop3752" stop-opacity=".58824" offset="1"/>
  </linearGradient>
  <linearGradient id="linearGradient3737">
   <stop id="stop3739" stop-color="#fffec8" offset="0"/>
   <stop id="stop3741" stop-color="#feffd4" stop-opacity="0" offset="1"/>
  </linearGradient>
  <filter id="filter3174">
   <feGaussianBlur id="feGaussianBlur3176" stdDeviation="1.71"/>
  </filter>
  <linearGradient id="linearGradient3188" x1="36.357" x2="36.357" y1="6" y2="63.893" gradientUnits="userSpaceOnUse" xlink:href="#linearGradient3737"/>
  <filter id="filter3794" x="-.192" y="-.192" width="1.384" height="1.384">
   <feGaussianBlur id="feGaussianBlur3796" stdDeviation="5.28"/>
  </filter>
  <linearGradient id="linearGradient3613" x1="48" x2="48" y1="20.221" y2="138.66" gradientUnits="userSpaceOnUse" xlink:href="#linearGradient3737"/>
  <radialGradient id="radialGradient3619" cx="48" cy="90.172" r="42" gradientTransform="matrix(1.1573 0 0 .99591 -7.551 .19713)" gradientUnits="userSpaceOnUse" xlink:href="#linearGradient3737"/>
  <clipPath id="clipPath3613">
   <rect id="rect3615" x="6" y="6" width="84" height="84" rx="6" ry="6" fill="#fff"/>
  </clipPath>
  <linearGradient id="linearGradient3617" x1="48" x2="48" y1="90" y2="5.9877" gradientTransform="translate(0,-96)" gradientUnits="userSpaceOnUse">
   <stop id="stop3724" stop-color="#f79169" offset="0"/>
   <stop id="stop3728" stop-color="#c6262e" offset="1"/>
  </linearGradient>
  <linearGradient id="ButtonShadow-0" x1="45.448" x2="45.448" y1="92.54" y2="7.0165" gradientTransform="matrix(1.0059 0 0 .99417 100 0)" gradientUnits="userSpaceOnUse">
   <stop id="stop3750-8" offset="0"/>
   <stop id="stop3752-5" stop-opacity=".58824" offset="1"/>
  </linearGradient>
  <linearGradient id="linearGradient3780" x1="32.251" x2="32.251" y1="6.1317" y2="90.239" gradientTransform="matrix(1.0238 0 0 1.0119 -1.1429 -98.071)" gradientUnits="userSpaceOnUse" xlink:href="#ButtonShadow-0"/>
  <linearGradient id="linearGradient3721" x1="32.251" x2="32.251" y1="6.1317" y2="90.239" gradientTransform="translate(0,-97)" gradientUnits="userSpaceOnUse" xlink:href="#ButtonShadow-0"/>
  <linearGradient id="linearGradient3746" x1="56" x2="40" y1="80" y2="16" gradientUnits="userSpaceOnUse">
   <stop id="stop3244" stop-color="#f8b17e" offset="0"/>
   <stop id="stop3246" stop-color="#e35d4f" offset=".26238"/>
   <stop id="stop3248" stop-color="#c6262e" offset="1"/>
  </linearGradient>
  <linearGradient id="linearGradient3738" x1="32" x2="64" y1="24" y2="64" gradientUnits="userSpaceOnUse" xlink:href="#linearGradient3737"/>
  <linearGradient id="linearGradient3773" x1="80" x2="48" y1="80" y2="48" gradientUnits="userSpaceOnUse" xlink:href="#linearGradient3737"/>
  <linearGradient id="linearGradient3781" x1="16" x2="48" y1="16" y2="48" gradientUnits="userSpaceOnUse" xlink:href="#linearGradient3737"/>
 </defs>
 <metadata id="metadata2413">
  <rdf:RDF>
   <cc:Work rdf:about="">
    <dc:format>image/svg+xml</dc:format>
    <dc:type rdf:resource="http://purl.org/dc/dcmitype/StillImage"/>
    <dc:title/>
   </cc:Work>
  </rdf:RDF>
 </metadata>
 <g id="layer2" display="none">
  <rect id="rect3745" x="5" y="7" width="86" height="85" rx="6" ry="6" fill="url(#ButtonShadow)" filter="url(#filter3174)" opacity=".9"/>
 </g>
 <g id="layer3">
  <path id="path3786" transform="scale(1,-1)" d="m12-95.031c-5.5111 0-10.031 4.5202-10.031 10.031v71c0 5.5111 4.5202 10.031 10.031 10.031h72c5.5111 0 10.031-4.5202 10.031-10.031v-71c0-5.5111-4.5202-10.031-10.031-10.031h-72z" fill="url(#linearGradient3780)" opacity=".08"/>
  <path id="path3778" transform="scale(1,-1)" d="m12-94.031c-4.9716 0-9.0312 4.0596-9.0312 9.0312v71c0 4.9716 4.0596 9.0312 9.0312 9.0312h72c4.9716 0 9.0312-4.0596 9.0312-9.0312v-71c0-4.9716-4.0596-9.0312-9.0312-9.0312h-72z" fill="url(#linearGradient3780)" opacity=".1"/>
  <path id="path3770" transform="scale(1,-1)" d="m12-93c-4.4091 0-8 3.5909-8 8v71c0 4.4091 3.5909 8 8 8h72c4.4091 0 8-3.5909 8-8v-71c0-4.4091-3.5909-8-8-8h-72z" fill="url(#linearGradient3780)" opacity=".2"/>
  <rect id="rect3723" transform="scale(1,-1)" x="5" y="-92" width="86" height="85" rx="7" ry="7" fill="url(#linearGradient3780)" opacity=".3"/>
  <rect id="rect3716" transform="scale(1,-1)" x="6" y="-91" width="84" height="84" rx="6" ry="6" fill="url(#linearGradient3721)" opacity=".45"/>
 </g>
 <g id="layer1">
  <rect id="rect2419" transform="scale(1,-1)" x="6" y="-90" width="84" height="84" rx="6" ry="6" fill="url(#linearGradient3617)"/>
  <path id="rect3728" d="m12 6c-3.324 0-6 2.676-6 6v2 68 2c0 0.33472 0.04135 0.6507 0.09375 0.96875 0.0487 0.2956 0.09704 0.59692 0.1875 0.875 0.00988 0.03038 0.020892 0.0636 0.03125 0.09375 0.098865 0.28777 0.23488 0.54745 0.375 0.8125 0.14459 0.27351 0.31562 0.53562 0.5 0.78125s0.37378 0.47347 0.59375 0.6875c0.43995 0.42806 0.94291 0.81453 1.5 1.0938 0.27854 0.13961 0.57347 0.24695 0.875 0.34375-0.2562-0.10022-0.48671-0.23627-0.71875-0.375-0.00741-0.0044-0.023866 0.0045-0.03125 0-0.031933-0.0193-0.062293-0.04251-0.09375-0.0625-0.1204-0.0767-0.23102-0.16351-0.34375-0.25-0.10617-0.0808-0.21328-0.16111-0.3125-0.25-0.17793-0.16143-0.34746-0.34539-0.5-0.53125-0.10758-0.13026-0.21839-0.26528-0.3125-0.40625-0.025089-0.03838-0.038446-0.08587-0.0625-0.125-0.064763-0.10303-0.13023-0.20452-0.1875-0.3125-0.10101-0.19471-0.20567-0.4157-0.28125-0.625-0.00796-0.02181-0.023589-0.04055-0.03125-0.0625-0.031825-0.09195-0.035804-0.18683-0.0625-0.28125-0.030332-0.10662-0.070389-0.20303-0.09375-0.3125-0.072879-0.34151-0.125-0.6982-0.125-1.0625v-2-68-2c0-2.7818 2.2182-5 5-5h2 68 2c2.7818 0 5 2.2182 5 5v2 68 2c0 0.3643-0.05212 0.72099-0.125 1.0625-0.04415 0.20689-0.08838 0.39766-0.15625 0.59375-0.0077 0.02195-0.0233 0.04069-0.03125 0.0625-0.06274 0.17374-0.13838 0.36745-0.21875 0.53125-0.04158 0.0828-0.07904 0.16995-0.125 0.25-0.0546 0.09721-0.12677 0.18835-0.1875 0.28125-0.09411 0.14096-0.20492 0.276-0.3125 0.40625-0.14317 0.17445-0.30314 0.347-0.46875 0.5-0.01117 0.0102-0.01998 0.02115-0.03125 0.03125-0.13839 0.12556-0.28509 0.23444-0.4375 0.34375-0.10257 0.07315-0.20432 0.15336-0.3125 0.21875-0.0074 0.0045-0.02384-0.0044-0.03125 0-0.23204 0.13873-0.46255 0.27478-0.71875 0.375 0.30153-0.0968 0.59646-0.20414 0.875-0.34375 0.55709-0.27922 1.0601-0.66569 1.5-1.0938 0.21997-0.21403 0.40937-0.44186 0.59375-0.6875s0.35541-0.50774 0.5-0.78125c0.14012-0.26505 0.27614-0.52473 0.375-0.8125 0.01041-0.03078 0.02133-0.06274 0.03125-0.09375 0.09046-0.27808 0.1388-0.5794 0.1875-0.875 0.0524-0.31805 0.09375-0.63403 0.09375-0.96875v-2-68-2c0-3.324-2.676-6-6-6h-72z" fill="url(#linearGradient3188)" opacity=".4"/>
  <path id="path3615" d="m12 90c-3.324 0-6-2.676-6-6v-2-68-2c0-0.33472 0.04135-0.6507 0.09375-0.96875 0.0487-0.2956 0.09704-0.59692 0.1875-0.875 0.00988-0.03038 0.020892-0.0636 0.03125-0.09375 0.098865-0.28777 0.23488-0.54745 0.375-0.8125 0.14459-0.27351 0.31562-0.53562 0.5-0.78125s0.37378-0.47347 0.59375-0.6875c0.43995-0.42806 0.94291-0.81453 1.5-1.0938 0.27854-0.13961 0.57347-0.24695 0.875-0.34375-0.2562 0.10022-0.48671 0.23627-0.71875 0.375-0.00741 0.0044-0.023866-0.0045-0.03125 0-0.031933 0.0193-0.062293 0.04251-0.09375 0.0625-0.1204 0.0767-0.23102 0.16351-0.34375 0.25-0.10617 0.0808-0.21328 0.16111-0.3125 0.25-0.17793 0.16143-0.34746 0.34539-0.5 0.53125-0.10758 0.13026-0.21839 0.26528-0.3125 0.40625-0.025089 0.03838-0.038446 0.08587-0.0625 0.125-0.064763 0.10303-0.13023 0.20452-0.1875 0.3125-0.10101 0.19471-0.20567 0.4157-0.28125 0.625-0.00796 0.02181-0.023589 0.04055-0.03125 0.0625-0.031825 0.09195-0.035804 0.18683-0.0625 0.28125-0.030332 0.10662-0.070389 0.20303-0.09375 0.3125-0.072879 0.34151-0.125 0.6982-0.125 1.0625v2 68 2c0 2.7818 2.2182 5 5 5h2 68 2c2.7818 0 5-2.2182 5-5v-2-68-2c0-0.3643-0.05212-0.72099-0.125-1.0625-0.04415-0.20689-0.08838-0.39766-0.15625-0.59375-0.0077-0.02195-0.0233-0.04069-0.03125-0.0625-0.06274-0.17374-0.13838-0.36745-0.21875-0.53125-0.04158-0.0828-0.07904-0.16995-0.125-0.25-0.0546-0.09721-0.12677-0.18835-0.1875-0.28125-0.09411-0.14096-0.20492-0.276-0.3125-0.40625-0.14317-0.17445-0.30314-0.347-0.46875-0.5-0.01117-0.0102-0.01998-0.02115-0.03125-0.03125-0.13839-0.12556-0.28509-0.23444-0.4375-0.34375-0.10257-0.07315-0.20432-0.15336-0.3125-0.21875-0.0074-0.0045-0.02384 0.0044-0.03125 0-0.23204-0.13873-0.46255-0.27478-0.71875-0.375 0.30153 0.0968 0.59646 0.20414 0.875 0.34375 0.55709 0.27922 1.0601 0.66569 1.5 1.0938 0.21997 0.21403 0.40937 0.44186 0.59375 0.6875s0.35541 0.50774 0.5 0.78125c0.14012 0.26505 0.27614 0.52473 0.375 0.8125 0.01041 0.03078 0.02133 0.06274 0.03125 0.09375 0.09046 0.27808 0.1388 0.5794 0.1875 0.875 0.0524 0.31805 0.09375 0.63403 0.09375 0.96875v2 68 2c0 3.324-2.676 6-6 6h-72z" fill="url(#radialGradient3619)" opacity=".2"/>
  <path id="path3814" d="m-66.609 16c-9.6 0-17.391 7.7913-17.391 17.391 0 2.9652 0.73316 5.7736 2.0435 8.2174-0.43745 2.0593-0.65217 4.2023-0.65217 6.3913 0 16.896 13.713 30.609 30.609 30.609 2.189 0 4.332-0.21472 6.3913-0.65217 2.4521 1.3221 5.238 2.0435 8.2174 2.0435 9.6 0 17.391-7.7913 17.391-17.391 0-2.9794-0.72141-5.7653-2.0435-8.2174 0.43745-2.0593 0.65217-4.2023 0.65217-6.3913 0-16.896-13.713-30.609-30.609-30.609-2.1896 0-4.3316 0.258-6.3913 0.69565-2.444-1.3106-5.2519-2.087-8.2174-2.087z" fill="#f00"/>
  <path id="path3816" d="m-52.565 28.674c-9.5652 0-15.217 4.3043-15.217 11.696 0 8.0404 10.48 10.117 16.957 11 6.0617 1.6242 6.2609 2.5695 6.2609 5.2174 0 3.3001-4.1674 4.5652-7 4.5652-8.5525 0-7.921-6.2174-12.478-6.2174-2.3478 0-3.4783 0.78261-3.4783 3.7391s6.087 8.6522 15.652 8.6522c9.5652 0 15.652-3.6957 15.652-11.087 0-7.6092-6.2958-9.8595-14.609-12.087-5.5294-1.3424-8.6087-2.3087-8.6087-4.9565 0-3.3001 3.5152-4.5652 6.3478-4.5652 8.5525 0 6.6601 5.4783 11.217 5.4783 2.3478 0 3.7826-0.47826 3.7826-3.4348 0-2.9565-4.913-8-14.478-8z" fill="#fff" fill-rule="evenodd"/>
 </g>
 <g id="layer5">
  <rect id="rect3171" x="15" y="15" width="66" height="66" rx="12" ry="12" clip-path="url(#clipPath3613)" fill="url(#linearGradient3613)" filter="url(#filter3794)" opacity=".1" stroke="#fff" stroke-linecap="round" stroke-width=".5"/>
 </g>
 <g id="layer4">
  <path id="path3789" d="m33.406 13.031c-11.201 0-20.375 9.174-20.375 20.375 0 3.0781 0.81359 5.943 2.0312 8.5312-0.36216 1.9699-0.625 3.9843-0.625 6.0625 0 18.491 15.072 33.562 33.562 33.562 2.0782 0 4.0926-0.26284 6.0625-0.625 2.5932 1.2252 5.4487 2.0312 8.5312 2.0312 11.201 0 20.375-9.174 20.375-20.375 0-3.0826-0.80604-5.9381-2.0312-8.5312 0.36216-1.9699 0.625-3.9843 0.625-6.0625 0-18.491-15.072-33.562-33.562-33.562-2.1185 0-4.1356 0.32069-6.0625 0.6875-2.5622-1.2185-5.4179-2.0938-8.5312-2.0938z" fill="#791235" opacity=".1"/>
  <path id="path3785" d="m33.406 14.031c-10.663 0-19.375 8.7122-19.375 19.375 0 3.0389 0.77865 5.8806 2.0312 8.4375-0.38296 2.0108-0.625 4.0575-0.625 6.1562 0 17.955 14.607 32.562 32.562 32.562 2.0988 0 4.1455-0.24204 6.1562-0.625 2.5621 1.261 5.3918 2.0312 8.4375 2.0312 10.663 0 19.375-8.7122 19.375-19.375 0-3.0457-0.77022-5.8754-2.0312-8.4375 0.38296-2.0108 0.625-4.0575 0.625-6.1562 0-17.955-14.607-32.562-32.562-32.562-2.1229 0-4.1814 0.30251-6.1562 0.6875-2.5383-1.2527-5.3733-2.0938-8.4375-2.0938z" fill="#791235" opacity=".15"/>
  <path id="path3818" d="m33.406 16c-9.6 0-17.406 7.8063-17.406 17.406 0 2.9652 0.72093 5.7437 2.0312 8.1875-0.43745 2.0593-0.625 4.2172-0.625 6.4062 0 16.896 13.698 30.594 30.594 30.594 2.189 0 4.347-0.18755 6.4062-0.625 2.4521 1.3221 5.2081 2.0312 8.1875 2.0312 9.6 0 17.406-7.8062 17.406-17.406 0-2.9794-0.70918-5.7354-2.0312-8.1875 0.43745-2.0593 0.625-4.2172 0.625-6.4062 0-16.896-13.698-30.594-30.594-30.594-2.1896 0-4.3465 0.24984-6.4062 0.6875-2.444-1.3106-5.222-2.0938-8.1875-2.0938z" fill="url(#linearGradient3746)"/>
  <path id="path3689" d="m-66.609 16c-9.6 0-17.391 7.7913-17.391 17.391 0 2.9652 0.73316 5.7736 2.0435 8.2174-0.43745 2.0593-0.65217 4.2023-0.65217 6.3913 0 16.896 13.713 30.609 30.609 30.609 2.189 0 4.332-0.21472 6.3913-0.65217 2.4521 1.3221 5.238 2.0435 8.2174 2.0435 9.6 0 17.391-7.7913 17.391-17.391 0-2.9794-0.72141-5.7653-2.0435-8.2174 0.43745-2.0593 0.65217-4.2023 0.65217-6.3913 0-16.896-13.713-30.609-30.609-30.609-2.1896 0-4.3316 0.258-6.3913 0.69565-2.444-1.3106-5.2519-2.087-8.2174-2.087z" fill="#f00"/>
  <path id="path3691" d="m-52.565 28.674c-9.5652 0-15.217 4.3043-15.217 11.696 0 8.0404 10.48 10.117 16.957 11 6.0617 1.6242 6.2609 2.5695 6.2609 5.2174 0 3.3001-4.1674 4.5652-7 4.5652-8.5525 0-7.921-6.2174-12.478-6.2174-2.3478 0-3.4783 0.78261-3.4783 3.7391s6.087 8.6522 15.652 8.6522c9.5652 0 15.652-3.6957 15.652-11.087 0-7.6092-6.2958-9.8595-14.609-12.087-5.5294-1.3424-8.6087-2.3087-8.6087-4.9565 0-3.3001 3.5152-4.5652 6.3478-4.5652 8.5525 0 6.6601 5.4783 11.217 5.4783 2.3478 0 3.7826-0.47826 3.7826-3.4348 0-2.9565-4.913-8-14.478-8z" fill="#fff" fill-rule="evenodd"/>
  <path id="path3727" d="m33.406 16c-9.6 0-17.406 7.8063-17.406 17.406 0 2.9652 0.72093 5.7437 2.0312 8.1875-0.43745 2.0593-0.625 4.2172-0.625 6.4062 0 4.3817 0.93294 8.5426 2.5938 12.312 16.555-13.712 43.222-18.149 57.75-19.594-3.2685-13.387-15.361-23.312-29.75-23.312-2.1896 0-4.3465 0.24984-6.4062 0.6875-2.444-1.3106-5.222-2.0938-8.1875-2.0938z" fill="url(#linearGradient3738)" opacity=".6"/>
  <path id="path3779" d="m30 42.562c-1.8903 0-3.4375 1.5472-3.4375 3.4375v4c0 1.8903 1.5472 3.4375 3.4375 3.4375h36c1.8903 0 3.4375-1.5472 3.4375-3.4375v-4c0-1.8903-1.5472-3.4375-3.4375-3.4375h-36z" color="#000000" fill="#a8252e" opacity=".3"/>
  <path id="path3781" d="m33.406 15.062c-10.104 0-18.344 8.2401-18.344 18.344 0 2.9972 0.74773 5.8076 2.0312 8.3125-0.40864 2.0419-0.625 4.1454-0.625 6.2812 0 17.398 14.133 31.531 31.531 31.531 2.1358 0 4.2393-0.21636 6.2812-0.625 2.511 1.2931 5.3055 2.0312 8.3125 2.0312 10.104 0 18.344-8.2401 18.344-18.344 0-3.007-0.73818-5.8015-2.0312-8.3125 0.40864-2.0419 0.625-4.1454 0.625-6.2812 0-17.398-14.133-31.531-31.531-31.531-2.1532 0-4.2541 0.27619-6.2812 0.6875-2.495-1.283-5.303-2.0938-8.3125-2.0938zm0 0.9375c-0.6 0-1.1967 0.03423-1.7812 0.09375-0.49975 0.05089-0.98231 0.12635-1.4688 0.21875 0.48778-0.0922 0.96772-0.16804 1.4688-0.21875 0.5849-0.0592 1.1811-0.09375 1.7812-0.09375zm3.4062 0.34375c0.64612 0.13139 1.2859 0.29786 1.9062 0.5-0.61832-0.20328-1.2599-0.36655-1.9062-0.5zm-7.1562 0.0625c-0.47838 0.10565-0.94344 0.23078-1.4062 0.375 0.45955-0.14201 0.93146-0.27078 1.4062-0.375zm-1.625 0.4375c-0.47068 0.15341-0.95405 0.33971-1.4062 0.53125 0.46235-0.19546 0.92461-0.37551 1.4062-0.53125zm18.344 0.59375c-0.54231 0.03026-1.0898 0.09767-1.625 0.15625 0.54057-0.0614 1.0801-0.125 1.625-0.15625zm-12.969 0.5c2.6228 0 5.094 0.70209 7.2812 1.875a1.9466 1.9466 0 0 0 1.3125 0.1875c1.9368-0.41154 3.9585-0.65625 6-0.65625 15.844 0 28.656 12.812 28.656 28.656 0 2.0779-0.19023 4.1005-0.59375 6a1.9466 1.9466 0 0 0 0.1875 1.3438c1.171 2.1718 1.8125 4.5795 1.8125 7.25 0 8.5448-6.9239 15.469-15.469 15.469-2.6705 0-5.0782-0.64156-7.25-1.8125a1.9466 1.9466 0 0 0-1.3438-0.1875c-1.8995 0.40352-3.9221 0.59375-6 0.59375-15.844 0-28.656-12.812-28.656-28.656 0-2.0779 0.19023-4.1005 0.59375-6a1.9466 1.9466 0 0 0-0.1875-1.3125c-1.1605-2.1643-1.8125-4.6316-1.8125-7.2812 0-8.5448 6.9239-15.469 15.469-15.469zm-8.2812 0.15625c-0.49323 0.26823-0.97443 0.56193-1.4375 0.875-0.40779 0.2757-0.80524 0.56667-1.1875 0.875 0.38072-0.30562 0.78143-0.60172 1.1875-0.875 0.46302-0.3116 0.94431-0.60813 1.4375-0.875zm34.781 1.7188c0.91539 0.38739 1.8201 0.80986 2.6875 1.2812-0.86698-0.47098-1.7725-0.89421-2.6875-1.2812zm-37.562 0.15625c-0.42998 0.35498-0.85605 0.73106-1.25 1.125-0.29002 0.29002-0.57464 0.59649-0.84375 0.90625 0.27183-0.31322 0.55037-0.61332 0.84375-0.90625 0.39793-0.3973 0.8151-0.7676 1.25-1.125zm43.969 3.5c0.78574 0.58774 1.5251 1.2161 2.25 1.875-0.72441-0.65841-1.4647-1.2877-2.25-1.875zm4.3438 3.9688c0.65888 0.72488 1.2873 1.4643 1.875 2.25-0.58729-0.78529-1.2166-1.5256-1.875-2.25zm-53.875 0.8125c-0.16675 0.53514-0.32249 1.0692-0.4375 1.625 0.11385-0.55592 0.27193-1.0897 0.4375-1.625zm58.125 5.1562c0.47139 0.86739 0.89386 1.7721 1.2812 2.6875-0.38704-0.91504-0.81027-1.8205-1.2812-2.6875zm-55.094 26.5c0.38704 0.91504 0.81027 1.8205 1.2812 2.6875-0.47139-0.86739-0.89386-1.7721-1.2812-2.6875zm60.094 4.4688c-0.0595 0.58452-0.1339 1.1526-0.25 1.7188 0.1161-0.5661 0.19048-1.1342 0.25-1.7188zm-0.25 1.75c-0.11501 0.55577-0.27075 1.0899-0.4375 1.625 0.16675-0.53514 0.32249-1.0692 0.4375-1.625zm-56.188 0.1875c0.58729 0.78529 1.2166 1.5256 1.875 2.25-0.65888-0.72488-1.2873-1.4643-1.875-2.25zm3.9688 4.3438c0.72441 0.65841 1.4647 1.2877 2.25 1.875-0.78574-0.58774-1.5251-1.2161-2.25-1.875zm5.9688 4.25c0.86698 0.47098 1.7725 0.89421 2.6875 1.2812-0.91539-0.38739-1.8201-0.80986-2.6875-1.2812z" fill="#b6202d" fill-opacity=".94902"/>
  <path id="path3750" transform="matrix(1.0261 0 0 1.0261 88.747 -1.2529)" d="m47.438 26.938c-5.0422 0-9.2277 1.0918-12.25 3.4062-3.0331 2.3227-4.7188 5.8749-4.7188 10.031 0 4.7993 3.2604 7.9544 7.0312 9.75 3.7278 1.7751 8.0845 2.5495 11.375 3 0.0181 0.0025 0.04446-0.0025 0.0625 0 2.774 0.75966 4.1578 1.5121 4.4062 1.75 0.21567 0.20653 0.18926 0.17454 0.25 0.4375 0.0508 0.21993 0.09375 0.65574 0.09375 1.2812 0 0.47596-0.11398 0.76908-0.34375 1.0625s-0.60698 0.5885-1.1562 0.875c-1.0406 0.5428-2.6187 0.875-3.75 0.875-3.8749 0-5.1029-1.1263-6.4688-2.5625-0.66411-0.69834-1.3058-1.5363-2.2188-2.2812-0.93494-0.76298-2.2054-1.375-3.7812-1.375-1.3757 0-2.8122 0.21198-3.875 1.25-1.0647 1.0398-1.375 2.5508-1.375 4.25 0 1.2992 0.57295 2.5197 1.4375 3.6562 0.86256 1.1339 2.0548 2.2591 3.5625 3.25 3.0127 1.9801 7.2774 3.4688 12.406 3.4688 5.0074 0 9.2674-0.93592 12.406-3.0625 3.156-2.1382 5-5.5595 5-9.75 0-4.3067-1.9307-7.4543-4.9062-9.5-2.8457-1.9563-6.5593-3.0437-10.562-4.125-0.02301-0.0062-0.03947-0.02504-0.0625-0.03125-0.02303-0.0062-0.03945-0.02504-0.0625-0.03125a0.63709 0.63709 0 0 0-0.03125 0 0.63709 0.63709 0 0 0-0.03125-0.03125c-1.29e-4 -6.2e-5 -0.0179 0.0061-0.03125 0s1.31e-4 -0.03119 0-0.03125c-2.63e-4 -1.13e-4 -0.06223 1e-4 -0.0625 0-2.67e-4 -1e-4 -0.06223-0.03116-0.0625-0.03125-2.72e-4 -8.8e-5 -0.06222 7.6e-5 -0.0625 0-1.65e-4 -4.5e-5 -0.01485-0.02715-0.03125-0.03125-0.01109-0.0027-0.02018 0.0027-0.03125 0-2.7278-0.66293-4.8879-1.2636-6.0312-1.8438-0.55874-0.28351-0.84861-0.57726-1.0312-0.8125-0.20329-0.26183-0.21875-0.2314-0.21875-0.59375 0-1.0765 0.35101-1.4686 1.25-2 0.83292-0.49231 2.194-0.8125 3.3438-0.8125 1.9616 0 3.1616 0.28141 3.9688 0.65625 0.80708 0.37479 1.2592 0.85664 1.7812 1.4688 0.48533 0.56908 1.0086 1.3455 1.8438 2.0625 0.87801 0.75375 2.1065 1.2812 3.625 1.2812 1.266 0 2.6385-0.06937 3.8125-0.9375 1.2241-0.90518 1.7188-2.4389 1.7188-4.2188 0-2.3804-1.6724-4.7218-4.4062-6.5625-2.7473-1.8498-6.7198-3.1875-11.812-3.1875z" fill="#00aff0" fill-rule="evenodd" opacity=".1"/>
  <path id="path3746" transform="matrix(1.0261 0 0 1.0261 88.747 -1.2529)" d="m47.438 27.562c-4.9494 0-9.0023 1.0814-11.875 3.2812-2.8763 2.2026-4.4688 5.5445-4.4688 9.5312 0 4.5128 3.0445 7.4528 6.6875 9.1875 3.636 1.7314 7.9745 2.4908 11.25 2.9375 2.8623 0.7773 4.2721 1.4486 4.75 1.9062 0.25836 0.24741 0.35976 0.41344 0.4375 0.75 0.07593 0.32874 0.09375 0.80012 0.09375 1.4375 0 1.1872-0.65758 1.8813-1.8438 2.5-1.1713 0.61094-2.7884 0.9375-4.0312 0.9375-4.0104 0-5.5391-1.2795-6.9375-2.75-0.69414-0.72993-1.3126-1.5302-2.1562-2.2188-0.85284-0.69599-1.9661-1.25-3.375-1.25-1.3023 0-2.548 0.22502-3.4375 1.0938-0.88989 0.8691-1.1875 2.16-1.1875 3.7812 0 1.1076 0.49993 2.213 1.3125 3.2812 0.81281 1.0686 1.9533 2.1388 3.4062 3.0938 2.9049 1.9092 7.0581 3.375 12.062 3.375 4.926 0 9.0741-0.94413 12.062-2.9688 2.9939-2.0284 4.7188-5.211 4.7188-9.2188 0-4.1192-1.8187-7.018-4.6562-8.9688-2.7626-1.8992-6.442-3.0005-10.5-4.0938a0.65581 0.65581 0 0 0-0.03125-0.03125c-0.01009-0.0027-0.02116 0.0027-0.03125 0a0.65581 0.65581 0 0 0-0.21875-0.09375c-2.7534-0.66845-4.9196-1.2629-6.1875-1.9062-0.62803-0.31867-1.0066-0.65524-1.25-0.96875-0.24422-0.31454-0.34375-0.54479-0.34375-1 0-1.2652 0.56228-1.9713 1.5625-2.5625 0.98373-0.58145 2.4067-0.875 3.6562-0.875 2.0231 0 3.3338 0.29327 4.25 0.71875s1.4626 0.99485 2 1.625c0.52605 0.61683 0.99667 1.3533 1.75 2 0.76718 0.65861 1.8444 1.125 3.2188 1.125 1.2392 0 2.4442-0.07797 3.4375-0.8125 1.0129-0.74899 1.4688-2.0552 1.4688-3.7188 0-2.073-1.5002-4.264-4.125-6.0312-2.6297-1.7706-6.4889-3.0938-11.469-3.0938z" fill="#00aff0" fill-rule="evenodd" opacity=".3"/>
  <path id="path3742" transform="matrix(1.0261 0 0 1.0261 88.747 -1.2529)" d="m47.438 28.219c-4.8526 0-8.7497 1.0741-11.469 3.1562s-4.2188 5.1851-4.2188 9c0 4.2236 2.7943 6.9184 6.3125 8.5938s7.8094 2.4314 11.062 2.875c2.9534 0.79605 4.4512 1.4485 5.125 2.0938 0.34012 0.3257 0.49734 0.6451 0.59375 1.0625 0.09641 0.4174 0.125 0.93733 0.125 1.5938 0 1.4532-0.88452 2.4141-2.1875 3.0938s-2.9969 1-4.3438 1c-4.1629 0-5.964-1.4522-7.4062-2.9688-0.72112-0.75829-1.3234-1.5275-2.0938-2.1562s-1.7231-1.0938-2.9688-1.0938c-1.2266 0-2.2584 0.21254-2.9688 0.90625s-1 1.7735-1 3.3125c0 0.89967 0.42782 1.8763 1.1875 2.875s1.8521 2.0188 3.25 2.9375c2.7957 1.8375 6.8125 3.2812 11.688 3.2812 4.8424 0 8.8563-0.9256 11.688-2.8438s4.4375-4.8634 4.4375-8.6875c0-3.9332-1.673-6.5799-4.375-8.4375s-6.3963-2.9774-10.562-4.0938a0.46759 0.46759 0 0 0 0-0.03125c-2.7588-0.66978-4.925-1.2334-6.3125-1.9375-0.69377-0.35203-1.1823-0.74702-1.5-1.1562s-0.46875-0.83539-0.46875-1.4062c0-1.4842 0.74352-2.4562 1.875-3.125s2.6531-0.96875 4-0.96875c4.1766 0 5.6268 1.2455 6.75 2.5625 0.5616 0.65852 1.0241 1.368 1.6875 1.9375s1.5484 0.96875 2.7812 0.96875c1.2038 0 2.2649-0.09769 3.0625-0.6875 0.79764-0.58981 1.1875-1.6337 1.1875-3.1875 0-1.7367-1.3359-3.8115-3.8438-5.5s-6.229-2.9688-11.094-2.9688z" fill="#00aff0" fill-rule="evenodd" opacity=".6"/>
  <path id="path3757" d="m137.42 28.169c-9.8149 0-15.615 4.4167-15.615 12.001 0 8.2502 10.754 10.381 17.399 11.287 6.2199 1.6666 6.4243 2.6366 6.4243 5.3536 0 3.3862-4.2761 4.6844-7.1827 4.6844-8.7757 0-8.1278-6.3797-12.804-6.3797-2.4091 0-3.569 0.80304-3.569 3.8367s6.2458 8.878 16.061 8.878 16.061-3.7921 16.061-11.376c0-7.8078-6.4601-10.117-14.99-12.402-5.6738-1.3775-8.8334-2.3689-8.8334-5.0859 0-3.3862 3.6069-4.6844 6.5135-4.6844 8.7757 0 6.834 5.6213 11.51 5.6213 2.4091 0 3.8813-0.49074 3.8813-3.5244 0-3.0337-5.0413-8.2088-14.856-8.2088z" fill="#fff" fill-rule="evenodd"/>
  <path id="path3760" d="m33.406 16c-9.6017 0-17.406 7.8045-17.406 17.406 0 2.8437 0.68416 5.5212 1.9062 7.9062 0.09573 0.18024 0.12928 0.39278 0.09375 0.59375-0.39701 1.9838-0.59375 4.0203-0.59375 6.0938 0 8.4253 3.4288 16.03 8.9375 21.562-4.9378-5.4329-7.9375-12.641-7.9375-20.562 0-0.16581-0.0025-0.33467 0-0.5-0.0027-0.16603 0-0.33332 0-0.5 0-1.9241 0.19127-3.7969 0.53125-5.5938 1.76e-4 -0.01042 1.76e-4 -0.02083 0-0.03125-0.0096-0.02122-0.02005-0.04207-0.03125-0.0625-1.2221-2.3851-1.9062-5.0626-1.9062-7.9062 0-0.12654 0.02855-0.2491 0.03125-0.375-0.008045-0.21022-0.03125-0.41267-0.03125-0.625 0-9.0435 7.3628-16.406 16.406-16.406 0.21131 0 0.41564 0.02261 0.625 0.03125 0.1259-0.002697 0.24846-0.03125 0.375-0.03125 2.8437 0 5.4898 0.7422 7.875 1.9688 0.02043 0.0112 0.04128 0.02163 0.0625 0.03125 0.01042 1.76e-4 0.02083 1.76e-4 0.03125 0 1.6431-0.32128 3.3369-0.52498 5.0625-0.5625 0.18618-4e-3 0.37574-0.03125 0.5625-0.03125 0.16668 0 0.33397-0.0027 0.5 0 0.16537-0.0032 0.33412 0 0.5 0 7.921 0 15.13 2.9997 20.562 7.9375-5.5324-5.5087-13.137-8.9375-21.562-8.9375-2.0743 0-4.1094 0.25364-6.0938 0.65625-0.2107 0.04282-0.43613 9e-3 -0.625-0.09375-2.3852-1.2265-5.0313-1.9688-7.875-1.9688z" fill="url(#linearGradient3781)" opacity=".5"/>
  <path id="path3784" d="m30 41.438c-2.4999 0-4.5625 2.0626-4.5625 4.5625v4c0 2.4999 2.0626 4.5625 4.5625 4.5625h36c2.4999 0 4.5625-2.0626 4.5625-4.5625v-4c0-2.4999-2.0626-4.5625-4.5625-4.5625h-36z" color="#000000" fill="#a8252e" opacity=".1"/>
  <path id="path3765" d="m62.594 80c9.6017 0 17.406-7.8045 17.406-17.406 0-2.8437-0.68416-5.5212-1.9062-7.9062-0.09573-0.18024-0.12928-0.39278-0.09375-0.59375 0.39701-1.9838 0.59375-4.0203 0.59375-6.0938 0-8.4253-3.4288-16.03-8.9375-21.562 4.9378 5.4329 7.9375 12.641 7.9375 20.562 0 0.16581 0.0025 0.33467 0 0.5 0.0027 0.16603 0 0.33332 0 0.5 0 1.9241-0.19127 3.7969-0.53125 5.5938-1.76e-4 0.01042-1.76e-4 0.02083 0 0.03125 0.0096 0.02122 0.02005 0.04207 0.03125 0.0625 1.2221 2.3851 1.9062 5.0626 1.9062 7.9062 0 0.12654-0.02855 0.2491-0.03125 0.375 0.008045 0.21022 0.03125 0.41267 0.03125 0.625 0 9.0435-7.3628 16.406-16.406 16.406-0.21131 0-0.41564-0.02261-0.625-0.03125-0.1259 0.002697-0.24846 0.03125-0.375 0.03125-2.8437 0-5.4898-0.7422-7.875-1.9688-0.02043-0.0112-0.04128-0.02163-0.0625-0.03125-0.01042-1.76e-4 -0.02083-1.76e-4 -0.03125 0-1.6431 0.32128-3.3369 0.52498-5.0625 0.5625-0.18618 4e-3 -0.37574 0.03125-0.5625 0.03125-0.16668 0-0.33397 0.0027-0.5 0-0.16537 0.0032-0.33412 0-0.5 0-7.921 0-15.13-2.9997-20.562-7.9375 5.5324 5.5087 13.137 8.9375 21.562 8.9375 2.0743 0 4.1094-0.25364 6.0938-0.65625 0.2107-0.04282 0.43613-9e-3 0.625 0.09375 2.3852 1.2265 5.0313 1.9688 7.875 1.9688z" fill="url(#linearGradient3773)" opacity=".5"/>
  <path id="path3783" d="m33.406 16.938c-8.5448 0-15.469 6.9239-15.469 15.469 0 0.21747 0.02255 0.44131 0.03125 0.65625 0.18354-8.3853 7.0081-15.125 15.438-15.125 2.6228 0 5.094 0.70209 7.2812 1.875a1.9466 1.9466 0 0 0 1.3125 0.1875c1.9368-0.41154 3.9585-0.65625 6-0.65625 15.676 0 28.388 12.546 28.656 28.156 0.0024-0.16542 0-0.33384 0-0.5 0-15.844-12.812-28.656-28.656-28.656-2.0415 0-4.0632 0.24471-6 0.65625a1.9466 1.9466 0 0 1-1.3125-0.1875c-2.1872-1.1729-4.6584-1.875-7.2812-1.875zm-18.312 16.125c-0.0022 0.11551-0.03125 0.22774-0.03125 0.34375 0 2.8901 0.70577 5.5949 1.9062 8.0312 0.04255-0.24084 0.07713-0.47955 0.125-0.71875-1.1899-2.3222-1.8999-4.9036-2-7.6562zm4.8125 8.0312c-0.38975 1.8718-0.5625 3.8632-0.5625 5.9062 0 0.16848-0.0029 0.33222 0 0.5 0.02813-1.9032 0.2225-3.7524 0.59375-5.5a1.9466 1.9466 0 0 0-0.03125-0.90625zm-3.4375 6.4062c-0.0026 0.16704 0 0.33255 0 0.5 0 17.398 14.133 31.531 31.531 31.531 2.1358 0 4.2393-0.21636 6.2812-0.625 2.511 1.2931 5.3055 2.0312 8.3125 2.0312 10.104 0 18.344-8.2401 18.344-18.344 0-0.21938-0.02346-0.43916-0.03125-0.65625-0.18622 9.9445-8.3249 18-18.312 18-3.007 0-5.8015-0.7382-8.3125-2.0312-2.0419 0.40864-4.1454 0.625-6.2812 0.625-17.231 0-31.263-13.864-31.531-31.031zm63.062 0c-0.03113 1.9635-0.2484 3.8994-0.625 5.7812 0.0462 0.08972 0.08022 0.19081 0.125 0.28125 0.32071-1.8151 0.5-3.6769 0.5-5.5625 0-0.16723 0.0026-0.33338 0-0.5zm-3.4375 6.4062c-0.0066 0.03187-0.02449 0.06195-0.03125 0.09375a1.9466 1.9466 0 0 0 0.1875 1.3438c1.0748 1.9936 1.6853 4.1818 1.7812 6.5938 0.0025-0.1148 0.03125-0.22834 0.03125-0.34375 0-2.6705-0.64155-5.0782-1.8125-7.25a1.9466 1.9466 0 0 1-0.15625-0.4375z" fill="#791235"/>
  <path id="path3775" d="m30 43.438c-1.407 0-2.5625 1.1555-2.5625 2.5625v4c0 1.407 1.1555 2.5625 2.5625 2.5625h36c1.407 0 2.5625-1.1555 2.5625-2.5625v-4c0-1.407-1.1555-2.5625-2.5625-2.5625h-36z" color="#000000" fill="#a8252e" opacity=".6"/>
  <rect id="rect3771" x="28" y="44" width="40" height="8" rx="2" ry="2" color="#000000" fill="#fff" fill-opacity=".94902"/>
 </g>
</svg>
