<?xml version="1.0" encoding="UTF-8"?>
<svg id="svg2408" width="96" height="96" version="1.0" xmlns="http://www.w3.org/2000/svg" xmlns:cc="http://creativecommons.org/ns#" xmlns:dc="http://purl.org/dc/elements/1.1/" xmlns:rdf="http://www.w3.org/1999/02/22-rdf-syntax-ns#" xmlns:xlink="http://www.w3.org/1999/xlink">
 <defs id="defs2410">
  <linearGradient id="ButtonShadow" x1="45.448" x2="45.448" y1="92.54" y2="7.0165" gradientTransform="scale(1.0059 .99417)" gradientUnits="userSpaceOnUse">
   <stop id="stop3750" offset="0"/>
   <stop id="stop3752" stop-opacity=".58824" offset="1"/>
  </linearGradient>
  <linearGradient id="linearGradient3737">
   <stop id="stop3739" stop-color="#fff" offset="0"/>
   <stop id="stop3741" stop-color="#fff" stop-opacity="0" offset="1"/>
  </linearGradient>
  <filter id="filter3174" color-interpolation-filters="sRGB">
   <feGaussianBlur id="feGaussianBlur3176" stdDeviation="1.71"/>
  </filter>
  <linearGradient id="linearGradient3188" x1="36.357" x2="36.357" y1="6" y2="63.893" gradientUnits="userSpaceOnUse" xlink:href="#linearGradient3737"/>
  <filter id="filter3794" x="-.192" y="-.192" width="1.384" height="1.384" color-interpolation-filters="sRGB">
   <feGaussianBlur id="feGaussianBlur3796" stdDeviation="5.28"/>
  </filter>
  <linearGradient id="linearGradient3613" x1="48" x2="48" y1="20.221" y2="138.66" gradientUnits="userSpaceOnUse" xlink:href="#linearGradient3737"/>
  <radialGradient id="radialGradient3619" cx="48" cy="90.172" r="42" gradientTransform="matrix(1.1573 0 0 .99591 -7.551 .19713)" gradientUnits="userSpaceOnUse" xlink:href="#linearGradient3737"/>
  <clipPath id="clipPath3613">
   <rect id="rect3615" x="6" y="6" width="84" height="84" rx="6" ry="6" fill="#fff"/>
  </clipPath>
  <linearGradient id="ButtonShadow-0" x1="45.448" x2="45.448" y1="92.54" y2="7.0165" gradientTransform="matrix(1.0059 0 0 .99417 100 0)" gradientUnits="userSpaceOnUse">
   <stop id="stop3750-8" offset="0"/>
   <stop id="stop3752-5" stop-opacity=".58824" offset="1"/>
  </linearGradient>
  <linearGradient id="linearGradient3780" x1="32.251" x2="32.251" y1="6.1317" y2="90.239" gradientTransform="matrix(1.0238 0 0 -1.0119 -1.1429 98.071)" gradientUnits="userSpaceOnUse" xlink:href="#ButtonShadow-0"/>
  <linearGradient id="linearGradient3721" x1="32.251" x2="32.251" y1="6.1317" y2="90.239" gradientTransform="matrix(1,0,0,-1,0,97)" gradientUnits="userSpaceOnUse" xlink:href="#ButtonShadow-0"/>
 </defs>
 <metadata id="metadata2413">
  <rdf:RDF>
   <cc:Work rdf:about="">
    <dc:format>image/svg+xml</dc:format>
    <dc:type rdf:resource="http://purl.org/dc/dcmitype/StillImage"/>
    <dc:title/>
   </cc:Work>
  </rdf:RDF>
 </metadata>
 <g id="layer2" display="none">
  <rect id="rect3745" x="5" y="7" width="86" height="85" rx="6" ry="6" fill="url(#ButtonShadow)" filter="url(#filter3174)" opacity=".9"/>
 </g>
 <g id="layer3">
  <path id="path3786" d="m12 3.9688c-5.5111 0-10.031 4.5202-10.031 10.031v71c0 5.5111 4.5202 10.031 10.031 10.031h72c5.5111 0 10.031-4.5202 10.031-10.031v-71c0-5.5111-4.5202-10.031-10.031-10.031h-72zm0 2.0312h72c3.324 0 6 2.676 6 6v72c0 3.324-2.676 6-6 6h-72c-3.324 0-6-2.676-6-6v-72c0-3.324 2.676-6 6-6z" fill="url(#linearGradient3780)" opacity=".08"/>
  <path id="path3778" d="m12 4.9688c-4.9716 0-9.0312 4.0596-9.0312 9.0312v71c0 4.9716 4.0596 9.0312 9.0312 9.0312h72c4.9716 0 9.0312-4.0596 9.0312-9.0312v-71c0-4.9716-4.0596-9.0312-9.0312-9.0312h-72zm0 1.0312h72c3.324 0 6 2.676 6 6v72c0 3.324-2.676 6-6 6h-72c-3.324 0-6-2.676-6-6v-72c0-3.324 2.676-6 6-6z" fill="url(#linearGradient3780)" opacity=".1"/>
  <path id="path3770" d="m11.188 6.0312c-4.0275 0.41065-7.1875 3.8352-7.1875 7.9688v71c0 4.4091 3.5909 8 8 8h72c4.4091 0 8-3.5909 8-8v-71c0-4.1971-3.259-7.646-7.375-7.9688 3.0329 0.30617 5.375 2.8525 5.375 5.9688v72c0 3.324-2.676 6-6 6h-72c-3.324 0-6-2.676-6-6v-72c0-3.1162 2.3421-5.6626 5.375-5.9688-0.06227 0.00488-0.12563-0.00631-0.1875 0z" fill="url(#linearGradient3780)" opacity=".2"/>
  <path id="rect3723" d="m6.4375 9.75c-0.89949 1.1774-1.4375 2.6473-1.4375 4.25v71c0 3.878 3.122 7 7 7h72c3.878 0 7-3.122 7-7v-71c0-1.6027-0.53801-3.0726-1.4375-4.25 0.27932 0.6941 0.4375 1.4536 0.4375 2.25v72c0 3.324-2.676 6-6 6h-72c-3.324 0-6-2.676-6-6v-72c0-0.79638 0.15818-1.5559 0.4375-2.25z" fill="url(#linearGradient3780)" opacity=".3"/>
  <path id="rect3716" d="m6 84v1c0 3.324 2.676 6 6 6h72c3.324 0 6-2.676 6-6v-1c0 3.324-2.676 6-6 6h-72c-3.324 0-6-2.676-6-6z" fill="url(#linearGradient3721)" opacity=".45"/>
 </g>
 <g id="layer1">
  <rect id="rect2419" x="6" y="6" width="84" height="84" rx="6" ry="6" opacity=".6"/>
  <path id="rect3728" d="m12 6c-3.324 0-6 2.676-6 6v2 68 2c0 0.33472 0.04135 0.6507 0.09375 0.96875 0.0487 0.2956 0.09704 0.59692 0.1875 0.875 0.00988 0.03038 0.020892 0.0636 0.03125 0.09375 0.098865 0.28777 0.23488 0.54745 0.375 0.8125 0.14459 0.27351 0.31562 0.53562 0.5 0.78125s0.37378 0.47347 0.59375 0.6875c0.43995 0.42806 0.94291 0.81453 1.5 1.0938 0.27854 0.13961 0.57347 0.24695 0.875 0.34375-0.2562-0.10022-0.48671-0.23627-0.71875-0.375-0.00741-0.0044-0.023866 0.0045-0.03125 0-0.031933-0.0193-0.062293-0.04251-0.09375-0.0625-0.1204-0.0767-0.23102-0.16351-0.34375-0.25-0.10617-0.0808-0.21328-0.16111-0.3125-0.25-0.17793-0.16143-0.34746-0.34539-0.5-0.53125-0.10758-0.13026-0.21839-0.26528-0.3125-0.40625-0.025089-0.03838-0.038446-0.08587-0.0625-0.125-0.064763-0.10303-0.13023-0.20452-0.1875-0.3125-0.10101-0.19471-0.20567-0.4157-0.28125-0.625-0.00796-0.02181-0.023589-0.04055-0.03125-0.0625-0.031825-0.09195-0.035804-0.18683-0.0625-0.28125-0.030332-0.10662-0.070389-0.20303-0.09375-0.3125-0.072879-0.34151-0.125-0.6982-0.125-1.0625v-2-68-2c0-2.7818 2.2182-5 5-5h2 68 2c2.7818 0 5 2.2182 5 5v2 68 2c0 0.3643-0.05212 0.72099-0.125 1.0625-0.04415 0.20689-0.08838 0.39766-0.15625 0.59375-0.0077 0.02195-0.0233 0.04069-0.03125 0.0625-0.06274 0.17374-0.13838 0.36745-0.21875 0.53125-0.04158 0.0828-0.07904 0.16995-0.125 0.25-0.0546 0.09721-0.12677 0.18835-0.1875 0.28125-0.09411 0.14096-0.20492 0.276-0.3125 0.40625-0.14317 0.17445-0.30314 0.347-0.46875 0.5-0.01117 0.0102-0.01998 0.02115-0.03125 0.03125-0.13839 0.12556-0.28509 0.23444-0.4375 0.34375-0.10257 0.07315-0.20432 0.15336-0.3125 0.21875-0.0074 0.0045-0.02384-0.0044-0.03125 0-0.23204 0.13873-0.46255 0.27478-0.71875 0.375 0.30153-0.0968 0.59646-0.20414 0.875-0.34375 0.55709-0.27922 1.0601-0.66569 1.5-1.0938 0.21997-0.21403 0.40937-0.44186 0.59375-0.6875s0.35541-0.50774 0.5-0.78125c0.14012-0.26505 0.27614-0.52473 0.375-0.8125 0.01041-0.03078 0.02133-0.06274 0.03125-0.09375 0.09046-0.27808 0.1388-0.5794 0.1875-0.875 0.0524-0.31805 0.09375-0.63403 0.09375-0.96875v-2-68-2c0-3.324-2.676-6-6-6h-72z" fill="url(#linearGradient3188)" opacity=".01"/>
  <path id="path3615" d="m12 90c-3.324 0-6-2.676-6-6v-2-68-2c0-0.33472 0.04135-0.6507 0.09375-0.96875 0.0487-0.2956 0.09704-0.59692 0.1875-0.875 0.00988-0.03038 0.020892-0.0636 0.03125-0.09375 0.098865-0.28777 0.23488-0.54745 0.375-0.8125 0.14459-0.27351 0.31562-0.53562 0.5-0.78125s0.37378-0.47347 0.59375-0.6875c0.43995-0.42806 0.94291-0.81453 1.5-1.0938 0.27854-0.13961 0.57347-0.24695 0.875-0.34375-0.2562 0.10022-0.48671 0.23627-0.71875 0.375-0.00741 0.0044-0.023866-0.0045-0.03125 0-0.031933 0.0193-0.062293 0.04251-0.09375 0.0625-0.1204 0.0767-0.23102 0.16351-0.34375 0.25-0.10617 0.0808-0.21328 0.16111-0.3125 0.25-0.17793 0.16143-0.34746 0.34539-0.5 0.53125-0.10758 0.13026-0.21839 0.26528-0.3125 0.40625-0.025089 0.03838-0.038446 0.08587-0.0625 0.125-0.064763 0.10303-0.13023 0.20452-0.1875 0.3125-0.10101 0.19471-0.20567 0.4157-0.28125 0.625-0.00796 0.02181-0.023589 0.04055-0.03125 0.0625-0.031825 0.09195-0.035804 0.18683-0.0625 0.28125-0.030332 0.10662-0.070389 0.20303-0.09375 0.3125-0.072879 0.34151-0.125 0.6982-0.125 1.0625v2 68 2c0 2.7818 2.2182 5 5 5h2 68 2c2.7818 0 5-2.2182 5-5v-2-68-2c0-0.3643-0.05212-0.72099-0.125-1.0625-0.04415-0.20689-0.08838-0.39766-0.15625-0.59375-0.0077-0.02195-0.0233-0.04069-0.03125-0.0625-0.06274-0.17374-0.13838-0.36745-0.21875-0.53125-0.04158-0.0828-0.07904-0.16995-0.125-0.25-0.0546-0.09721-0.12677-0.18835-0.1875-0.28125-0.09411-0.14096-0.20492-0.276-0.3125-0.40625-0.14317-0.17445-0.30314-0.347-0.46875-0.5-0.01117-0.0102-0.01998-0.02115-0.03125-0.03125-0.13839-0.12556-0.28509-0.23444-0.4375-0.34375-0.10257-0.07315-0.20432-0.15336-0.3125-0.21875-0.0074-0.0045-0.02384 0.0044-0.03125 0-0.23204-0.13873-0.46255-0.27478-0.71875-0.375 0.30153 0.0968 0.59646 0.20414 0.875 0.34375 0.55709 0.27922 1.0601 0.66569 1.5 1.0938 0.21997 0.21403 0.40937 0.44186 0.59375 0.6875s0.35541 0.50774 0.5 0.78125c0.14012 0.26505 0.27614 0.52473 0.375 0.8125 0.01041 0.03078 0.02133 0.06274 0.03125 0.09375 0.09046 0.27808 0.1388 0.5794 0.1875 0.875 0.0524 0.31805 0.09375 0.63403 0.09375 0.96875v2 68 2c0 3.324-2.676 6-6 6h-72z" fill="url(#radialGradient3619)" opacity=".15"/>
 </g>
 <g id="layer5" display="none">
  <rect id="rect3171" x="15" y="15" width="66" height="66" rx="12" ry="12" clip-path="url(#clipPath3613)" fill="url(#linearGradient3613)" filter="url(#filter3794)" opacity=".1" stroke="#fff" stroke-linecap="round" stroke-width=".5"/>
 </g>
 <defs id="defs54">
  <linearGradient id="gr0" x1="48" x2="48" y1="19.997" y2="75.997" gradientUnits="userSpaceOnUse">
   <stop id="stop49" stop-color="#ebebeb" offset="0"/>
   <stop id="stop51" stop-color="#aaa" offset="1"/>
  </linearGradient>
 </defs>
 <path id="path2" transform="translate(0,1)" d="m44.125 18.998a1.0001 1.0001 0 0 0-0.71094 0.29883c-1.258 0.35217-2.2891 1.3267-2.2891 2.7031v3.3379c-1.4916 0.44672-2.9121 1.0204-4.2715 1.7461l-2.3965-2.291c-1.1469-1.1468-3.0325-1.1317-4.1641 0l-5.5 5.5c-1.1316 1.1316-1.1469 3.0172 0 4.1641l2.293 2.3965c-0.72617 1.3599-1.3011 2.7792-1.748 4.2715h-3.3379c-1.655 0-3 1.3661-3 3v7.75c5.93e-4 1.6337 1.3448 3 3 3h3.3379c0.44654 1.4911 1.0227 2.9106 1.748 4.2695l-2.293 2.3965c-1.1469 1.1469-1.1316 3.0324 0 4.1641l5.5 5.5c1.1316 1.1316 3.0172 1.1468 4.1641 0l2.3984-2.293c1.3592 0.7256 2.778 1.2994 4.2695 1.7461v3.3398c-1.8e-5 1.655 1.3661 3 3 3h7.75c1.6339 0 3-1.345 3-3v-3.3398c1.4911-0.44653 2.9107-1.0208 4.2695-1.7461l2.3984 2.293c1.1469 1.1469 3.0324 1.1317 4.1641 0l5.5-5.5c1.1316-1.1316 1.1467-3.0171 0-4.1641l-2.293-2.3965c0.72597-1.3595 1.3012-2.7797 1.748-4.2715h3.3379c1.655 0 3-1.3661 3-3v-7.75c0-1.6339-1.345-3-3-3h-3.3379c-0.4467-1.4917-1.0204-2.9121-1.7461-4.2715l2.291-2.3965c0.53993-0.53993 0.91117-1.2749 0.91797-2.0742 0.0071-0.82984-0.38762-1.5594-0.91797-2.0898l-5.5-5.5c-1.1316-1.1316-3.0172-1.1469-4.1641 0l-2.3965 2.291c-1.3593-0.72568-2.7798-1.2994-4.2715-1.7461v-3.3379c0-1.655-1.3662-3-3-3zm3.875 18.002c6.0872 0 11 4.9128 11 11s-4.9128 11-11 11-11-4.9128-11-11 4.9128-11 11-11z" display="block" opacity=".15" stroke-width="4"/>
 <path id="path58" transform="translate(0,1)" d="m44.125 17.998a2.0002 2.0002 0 0 0-0.79297 0.16602c-1.7906 0.38578-3.207 1.9288-3.207 3.8359v2.6758c-1.0431 0.34625-2.0575 0.76243-3.041 1.2461l-1.9199-1.8359c-1.5013-1.5012-4.0941-1.4841-5.5781 0l-5.5 5.5c-1.484 1.484-1.5012 4.0768 0 5.5781l1.8359 1.9199c-0.48373 0.98361-0.90177 1.9978-1.248 3.041h-2.6738c-2.1892 0-4 1.8342-4 4v7.75c7.86e-4 2.1654 1.8104 4 4 4h2.6758c0.34606 1.0426 0.76277 2.0561 1.2461 3.0391l-1.8672 1.9492 0.03125-0.0293c-1.5013 1.5013-1.484 4.0941 0 5.5781l5.5 5.5c1.4841 1.484 4.0768 1.5012 5.5781 0l1.9199-1.8359c0.98351 0.48367 1.9979 0.89985 3.041 1.2461v2.6758c-2.3e-5 2.1892 1.8342 4 4 4h7.75c2.1658 0 4-1.8108 4-4v-2.6758c1.0431-0.34625 2.0575-0.76242 3.041-1.2461l1.9199 1.8359c1.5013 1.5013 4.0941 1.4842 5.5781 0l5.5-5.5c1.484-1.484 1.5011-4.0768 0-5.5781l-1.8359-1.9199c0.4837-0.98336 0.8998-1.998 1.2461-3.041h2.6758c2.1892 0 4-1.8342 4-4v-7.75c0-2.1658-1.8108-4-4-4h-2.6738c-0.34647-1.0438-0.76397-2.0588-1.248-3.043l1.8359-1.918 2e-3 -2e-3c0.68271-0.68358 1.1998-1.6866 1.209-2.7715 0.0098-1.1469-0.53979-2.1335-1.2109-2.8047l-5.5-5.5c-1.484-1.484-4.0768-1.5012-5.5781 0l-1.918 1.834c-0.98402-0.48401-1.9993-0.89966-3.043-1.2461v-2.6738c0-2.1892-1.8342-4-4-4zm3.875 20.002c5.5468 0 10 4.4532 10 10s-4.4532 10-10 10-10-4.4532-10-10 4.4532-10 10-10z" display="block" opacity=".1" stroke-width="4"/>
 <path id="path61" transform="translate(0,1)" d="m44.125 16.998a3.0003 3.0003 0 0 0-1.1973 0.25c-2.134 0.56161-3.8027 2.4531-3.8027 4.752v2.0137c-0.61336 0.22296-1.218 0.4718-1.8125 0.74219l-1.4883-1.4238 0.04687 0.04687c-1.8557-1.8556-5.1558-1.8365-6.9922 0l-5.5 5.5c-1.8364 1.8364-1.8556 5.1365 0 6.9922l-0.04687-0.04687 1.4238 1.4902c-0.27004 0.59381-0.51946 1.1979-0.74219 1.8105h-2.0137c-2.7234 0-5 2.3022-5 5v7.75a3.0003 3.0003 0 0 0 0 2e-3c9.79e-4 2.6971 2.2761 4.998 5 4.998h2.0137c0.22296 0.61337 0.4718 1.218 0.74219 1.8125l-1.377 1.4395c-1.8557 1.8557-1.8364 5.1557 0 6.9922l5.5 5.5c1.8365 1.8364 5.1365 1.8555 6.9922 0l-0.04687 0.04687 1.4902-1.4258c0.59374 0.27002 1.198 0.51948 1.8105 0.74219v2.0156c-2.9e-5 2.7234 2.3022 5 5 5h7.75c2.6978 0 5-2.2766 5-5v-2.0137c0.61297-0.22281 1.2164-0.47396 1.8105-0.74414l1.4902 1.4258-0.04687-0.04687c1.8556 1.8556 5.1557 1.8367 6.9922 0l5.5-5.5c1.8364-1.8365 1.8554-5.1365 0-6.9922l0.04687 0.04687-1.4238-1.4902c0.27004-0.59381 0.51946-1.1979 0.74219-1.8105h2.0137c2.7234 0 5-2.3022 5-5v-7.75c0-2.6978-2.2766-5-5-5h-2.0137c-0.22289-0.61321-0.4719-1.2181-0.74219-1.8125l1.377-1.4414c0.82731-0.82731 1.4922-2.0983 1.5039-3.4707 0.01256-1.4639-0.69196-2.7095-1.5039-3.5215l-5.5-5.5c-1.8364-1.8364-5.1365-1.8556-6.9922 0l0.04687-0.04687-1.4883 1.4238c-0.59444-0.27036-1.1992-0.51924-1.8125-0.74219v-2.0137c0-2.7234-2.3023-5-5-5zm3.875 22.002c5.0064 0 9 3.9936 9 9s-3.9936 9-9 9-9-3.9936-9-9 3.9936-9 9-9z" display="block" opacity=".08" stroke-width="4"/>
 <path id="path64" d="m71.041 32.869c-0.097338 0.31845-0.2775 0.61539-0.54102 0.87891l-2.75 2.875c0.12265 0.21089 0.2293 0.42706 0.34375 0.64062l2.4062-2.5156c0.39624-0.39624 0.62064-0.8622 0.625-1.375 0.00149-0.17365-0.033128-0.34113-0.083984-0.50391zm-46.053 0.007812c-0.17962 0.64077-0.018728 1.3426 0.51172 1.873l2.4062 2.5156c0.11445-0.21357 0.2211-0.42974 0.34375-0.64062l-2.75-2.875c-0.25846-0.25848-0.42329-0.55973-0.51172-0.87305zm23.012 3.123c-6.6276 0-12 5.3724-12 12 0 0.16886 0.018484 0.33284 0.025391 0.5 0.26417-6.3938 5.5159-11.5 11.975-11.5s11.71 5.1062 11.975 11.5c0.006907-0.16716 0.025391-0.33114 0.025391-0.5 0-6.6276-5.3724-12-12-12zm28 15.873c0 1.1019-0.87924 2-2 2h-4c-0.52496 1.9703-1.2482 3.7774-2.25 5.5l0.34375 0.35938c0.82057-1.5311 1.4455-3.13 1.9062-4.8594h4c1.1208 0 2-0.89808 2-2v-1zm-56 0.001953v1c4e-4 1.102 0.8792 2 2 2h4c0.4605 1.7284 1.0864 3.3271 1.9062 4.8574l0.34375-0.35742c-1.0018-1.7226-1.725-3.5297-2.25-5.5h-4c-1.1208 0-1.9996-0.898-2-2zm51.012 12.246c-0.088773 0.3163-0.25426 0.61948-0.51172 0.87695l-5.5 5.5c-0.7792 0.77928-1.9575 0.79248-2.75 0l-2.875-2.75c-1.7226 1.0018-3.5297 1.725-5.5 2.25v1c1.9703-0.52496 3.7774-1.2482 5.5-2.25l2.875 2.75c0.79248 0.79248 1.9708 0.77928 2.75 0l5.5-5.5c0.52474-0.52477 0.6939-1.2299 0.51172-1.877zm-46.021 0.001953c-0.18146 0.64662-0.014577 1.3507 0.50977 1.875l5.5 5.5c0.7792 0.77916 1.9575 0.7924 2.75 0l2.875-2.75c1.7226 1.0018 3.5297 1.725 5.5 2.25v-1c-1.9703-0.52496-3.7774-1.2482-5.5-2.25l-2.875 2.75c-0.79248 0.7924-1.9708 0.77916-2.75 0l-5.5-5.5c-0.25683-0.25683-0.42078-0.55956-0.50977-0.875zm17.135 9.875v1c-1.2e-5 1.1208 0.89808 2 2 2h7.75c1.1019 0 2-0.87924 2-2v-1c0 1.1208-0.89808 2-2 2h-7.75c-1.1019 0-2-0.87924-2-2z" display="block" opacity=".45" stroke-width="4"/>
 <path id="base" d="m44.125 20c-1.1019 0-2 0.87924-2 2v4c-1.9703 0.525-3.7774 1.2482-5.5 2.25l-2.875-2.75c-0.79252-0.79248-1.9708-0.77924-2.75 0l-5.5 5.5c-0.7792 0.7792-0.79248 1.9575 0 2.75l2.75 2.875c-1.0018 1.7226-1.725 3.5297-2.25 5.5h-4c-1.1208 0-2 0.89808-2 2v7.75c4e-4 1.102 0.8796 2.0004 2.0004 2.0004h4c0.52496 1.9703 1.2482 3.7774 2.25 5.5l-2.75 2.872c-0.79248 0.79248-0.7792 1.9708 0 2.75l5.5 5.5c0.7792 0.77916 1.9575 0.7924 2.75 0l2.875-2.75c1.7226 1.0018 3.5297 1.725 5.5 2.25v4c-1.2e-5 1.1208 0.89808 2 2 2h7.75c1.1019 0 2-0.87924 2-2v-4c1.9703-0.52496 3.7774-1.2482 5.5-2.25l2.875 2.75c0.79248 0.79248 1.9708 0.77928 2.75 0l5.5-5.5c0.77916-0.7792 0.7924-1.9575 0-2.75l-2.75-2.875c1.0018-1.7226 1.725-3.5297 2.25-5.5h4c1.1208 0 2-0.89808 2-2v-7.75c0-1.1019-0.87924-2-2-2h-4c-0.52496-1.9703-1.2482-3.7774-2.25-5.5l2.75-2.875c0.39624-0.39624 0.62064-0.8622 0.625-1.375 0.0044-0.5128-0.23544-0.9854-0.625-1.375l-5.5-5.5c-0.7792-0.7792-1.9575-0.79248-2.75 0l-2.875 2.75c-1.7226-1.0018-3.5297-1.725-5.5-2.25v-4c0-1.1208-0.89808-2-2-2h-7.75zm3.875 16c6.6276 0 12 5.3724 12 12s-5.3724 12-12 12-12-5.3724-12-12 5.3724-12 12-12z" display="block" fill="url(#gr0)" stroke-width="4"/>
 <path id="path70" d="m44.125 19.998v0.001953c-1.1019 0-2 0.87924-2 2v1c0-1.1208 0.89808-2 2-2v-0.001953h7.75c1.1019 0 2 0.8792 2 2v-1c0-1.1208-0.89808-2-2-2h-7.75zm19.506 4.9102c-0.49104-0.00166-0.9846 0.1936-1.3809 0.58984l-2.875 2.75c-1.7226-1.0018-3.5297-1.725-5.5-2.25v1c1.9703 0.525 3.7774 1.2482 5.5 2.25l2.875-2.75c0.79252-0.79248 1.9708-0.7792 2.75 0l5.5 5.5c0.25764 0.25767 0.44169 0.5532 0.54102 0.87109 0.049027-0.1604 0.082524-0.32432 0.083984-0.49609 0.0044-0.5128-0.23544-0.9854-0.625-1.375l-5.5-5.5c-0.3896-0.3896-0.87811-0.58818-1.3691-0.58984zm-31.262 0.001953c-0.49104 0.001655-0.97954 0.20022-1.3691 0.58984l-5.5 5.5c-0.52507 0.52507-0.69442 1.2296-0.51172 1.877 0.088728-0.31653 0.25408-0.61931 0.51172-0.87695l5.5-5.5c0.7792-0.77924 1.9575-0.79248 2.75 0l2.875 2.75c1.7226-1.0018 3.5297-1.725 5.5-2.25v-1c-1.9703 0.525-3.7774 1.2482-5.5 2.25l-2.875-2.75c-0.39626-0.39624-0.88982-0.5915-1.3809-0.58984zm35.725 12.354-0.34375 0.35938c1.0018 1.7226 1.725 3.5297 2.25 5.5h4c1.1208 0 2 0.89808 2 2v-1c0-1.1019-0.87924-2-2-2h-4c-0.46069-1.7291-1.0859-3.3285-1.9062-4.8594zm-40.188 0.001953c-0.82037 1.5309-1.4456 3.1303-1.9062 4.8594h-4c-1.1208 0-2 0.89808-2 2v1c0-1.1019 0.87924-2 2-2h4c0.52496-1.9703 1.2482-3.7774 2.25-5.5l-0.34375-0.35938zm8.1191 11.234c-0.006907 0.16716-0.025391 0.33114-0.025391 0.5 0 6.6276 5.3724 12 12 12s12-5.3724 12-12c0-0.16886-0.018484-0.33284-0.025391-0.5-0.26417 6.3938-5.5159 11.5-11.975 11.5s-11.71-5.1062-11.975-11.5zm-8.1191 11.232-2.4062 2.5156c-0.53127 0.53127-0.69075 1.2334-0.50977 1.875 0.088197-0.31429 0.25057-0.6158 0.50977-0.875l2.75-2.873c-0.12302-0.21152-0.22898-0.42836-0.34375-0.64258zm40.188 0c-0.11432 0.21332-0.22124 0.42998-0.34375 0.64062l2.75 2.875c0.25874 0.25878 0.42339 0.55933 0.51172 0.87305 0.17989-0.64094 0.018851-1.3424-0.51172-1.873l-2.4062-2.5156z" display="block" fill="#fff" opacity=".6" stroke-width="4"/>
</svg>
