<?xml version="1.0" encoding="UTF-8"?>
<svg id="svg2408" width="96" height="96" version="1.0" xmlns="http://www.w3.org/2000/svg" xmlns:cc="http://creativecommons.org/ns#" xmlns:dc="http://purl.org/dc/elements/1.1/" xmlns:rdf="http://www.w3.org/1999/02/22-rdf-syntax-ns#" xmlns:xlink="http://www.w3.org/1999/xlink">
 <defs id="defs2410">
  <linearGradient id="linearGradient3729">
   <stop id="stop3731" stop-color="#fff" offset="0"/>
   <stop id="stop3733" stop-color="#fff" stop-opacity="0" offset="1"/>
  </linearGradient>
  <linearGradient id="ButtonShadow" x1="45.448" x2="45.448" y1="92.54" y2="7.0165" gradientTransform="scale(1.0059 .99417)" gradientUnits="userSpaceOnUse">
   <stop id="stop3750" offset="0"/>
   <stop id="stop3752" stop-opacity=".58824" offset="1"/>
  </linearGradient>
  <filter id="filter3174">
   <feGaussianBlur id="feGaussianBlur3176" stdDeviation="1.71"/>
  </filter>
  <linearGradient id="linearGradient3188" x1="36.357" x2="36.357" y1="6" y2="63.893" gradientUnits="userSpaceOnUse" xlink:href="#linearGradient3729"/>
  <filter id="filter3794" x="-.192" y="-.192" width="1.384" height="1.384">
   <feGaussianBlur id="feGaussianBlur3796" stdDeviation="5.28"/>
  </filter>
  <linearGradient id="linearGradient3613" x1="48" x2="48" y1="20.221" y2="138.66" gradientUnits="userSpaceOnUse" xlink:href="#linearGradient3729"/>
  <radialGradient id="radialGradient3619" cx="48" cy="90.172" r="42" gradientTransform="matrix(1.1573 0 0 .99591 -7.551 .19713)" gradientUnits="userSpaceOnUse" xlink:href="#linearGradient3729"/>
  <clipPath id="clipPath3613">
   <rect id="rect3615" x="6" y="6" width="84" height="84" rx="6" ry="6" fill="#fff"/>
  </clipPath>
  <linearGradient id="linearGradient3617" x1="48" x2="48" y1="90" y2="5.9877" gradientUnits="userSpaceOnUse">
   <stop id="stop3702" stop-color="#808080" offset="0"/>
   <stop id="stop3704" stop-color="#cecece" offset="1"/>
  </linearGradient>
  <linearGradient id="ButtonShadow-0" x1="45.448" x2="45.448" y1="92.54" y2="7.0165" gradientTransform="matrix(1.0059 0 0 .99417 100 0)" gradientUnits="userSpaceOnUse">
   <stop id="stop3750-8" offset="0"/>
   <stop id="stop3752-5" stop-opacity=".58824" offset="1"/>
  </linearGradient>
  <linearGradient id="linearGradient3780" x1="32.251" x2="32.251" y1="6.1317" y2="90.239" gradientTransform="matrix(1.0238 0 0 1.0119 -1.1429 -98.071)" gradientUnits="userSpaceOnUse" xlink:href="#ButtonShadow-0"/>
  <linearGradient id="linearGradient3721" x1="32.251" x2="32.251" y1="6.1317" y2="90.239" gradientTransform="translate(0,-97)" gradientUnits="userSpaceOnUse" xlink:href="#ButtonShadow-0"/>
  <clipPath id="clipPath4076">
   <rect id="rect4078" x="6" y="6" width="84" height="84" rx="6" ry="6" fill="#f0f"/>
  </clipPath>
  <radialGradient id="radialGradient3619-6" cx="48" cy="90.172" r="42" gradientTransform="matrix(1.1573 0 0 .99591 -7.551 .19713)" gradientUnits="userSpaceOnUse" xlink:href="#linearGradient3729"/>
  <radialGradient id="radialGradient3735" cx="46.917" cy="37.73" r="57.435" gradientTransform="matrix(1 0 0 .2936 0 26.652)" gradientUnits="userSpaceOnUse" xlink:href="#linearGradient3729"/>
  <filter id="filter3850" x="-.14674" y="-.65842" width="1.2935" height="2.3168">
   <feGaussianBlur id="feGaussianBlur3852" stdDeviation="6.333489"/>
  </filter>
  <filter id="filter3866" x="-.12864" y="-.29965" width="1.2573" height="1.5993">
   <feGaussianBlur id="feGaussianBlur3868" stdDeviation="3.5967545"/>
  </filter>
  <filter id="filter3886" x="-.091876" y="-.17294" width="1.1838" height="1.3459">
   <feGaussianBlur id="feGaussianBlur3888" stdDeviation="2.6148777"/>
  </filter>
  <filter id="filter3895" x="-.071157" y="-.38268" width="1.1423" height="1.7654">
   <feGaussianBlur id="feGaussianBlur3897" stdDeviation="1.9987577"/>
  </filter>
  <filter id="filter3966" x="-.15231" y="-.56575" width="1.3046" height="2.1315">
   <feGaussianBlur id="feGaussianBlur3968" stdDeviation="3.3648619"/>
  </filter>
 </defs>
 <metadata id="metadata2413">
  <rdf:RDF>
   <cc:Work rdf:about="">
    <dc:format>image/svg+xml</dc:format>
    <dc:type rdf:resource="http://purl.org/dc/dcmitype/StillImage"/>
    <dc:title/>
   </cc:Work>
  </rdf:RDF>
 </metadata>
 <g id="layer2" display="none">
  <rect id="rect3745" x="5" y="7" width="86" height="85" rx="6" ry="6" fill="url(#ButtonShadow)" filter="url(#filter3174)" opacity=".9"/>
 </g>
 <g id="layer3">
  <path id="path3786" transform="scale(1,-1)" d="m12-95.031c-5.5111 0-10.031 4.5202-10.031 10.031v71c0 5.5111 4.5202 10.031 10.031 10.031h72c5.5111 0 10.031-4.5202 10.031-10.031v-71c0-5.5111-4.5202-10.031-10.031-10.031h-72z" fill="url(#linearGradient3780)" opacity=".08"/>
  <path id="path3778" transform="scale(1,-1)" d="m12-94.031c-4.9716 0-9.0312 4.0596-9.0312 9.0312v71c0 4.9716 4.0596 9.0312 9.0312 9.0312h72c4.9716 0 9.0312-4.0596 9.0312-9.0312v-71c0-4.9716-4.0596-9.0312-9.0312-9.0312h-72z" fill="url(#linearGradient3780)" opacity=".1"/>
  <path id="path3770" transform="scale(1,-1)" d="m12-93c-4.4091 0-8 3.5909-8 8v71c0 4.4091 3.5909 8 8 8h72c4.4091 0 8-3.5909 8-8v-71c0-4.4091-3.5909-8-8-8h-72z" fill="url(#linearGradient3780)" opacity=".2"/>
  <rect id="rect3723" transform="scale(1,-1)" x="5" y="-92" width="86" height="85" rx="7" ry="7" fill="url(#linearGradient3780)" opacity=".3"/>
  <rect id="rect3716" transform="scale(1,-1)" x="6" y="-91" width="84" height="84" rx="6" ry="6" fill="url(#linearGradient3721)" opacity=".45"/>
 </g>
 <g id="layer1">
  <rect id="rect2419" x="6" y="6" width="84" height="84" rx="6" ry="6" fill="url(#linearGradient3617)"/>
 </g>
 <g id="layer4">
  <g id="g4062" clip-path="url(#clipPath4076)">
   <path id="path3761" transform="matrix(1.2791 0 0 1.4084 -17.935 22.541)" d="m104.35 37.73a57.435 16.863 0 1 1-114.87 0 57.435 16.863 0 1 1 114.87 0z" color="#000000" fill="url(#radialGradient3735)" opacity=".4"/>
   <path id="path2955" transform="matrix(1 0 0 .83663 0 8.9187)" d="m104.35 37.73a57.435 16.863 0 1 1-114.87 0 57.435 16.863 0 1 1 114.87 0z" color="#000000" fill="url(#radialGradient3735)" opacity=".3"/>
   <path id="path3737" transform="matrix(1 0 0 1.0198 -20.87 19.955)" d="m104.35 37.73a57.435 16.863 0 1 1-114.87 0 57.435 16.863 0 1 1 114.87 0z" color="#000000" fill="url(#radialGradient3735)" opacity=".4"/>
   <path id="path3749" transform="matrix(1 0 0 .83663 -9.6839 56.336)" d="m104.35 37.73a57.435 16.863 0 1 1-114.87 0 57.435 16.863 0 1 1 114.87 0z" color="#000000" fill="url(#radialGradient3735)" opacity=".3"/>
   <path id="path3753" transform="matrix(.70388 0 0 .71782 36.744 -14.149)" d="m104.35 37.73a57.435 16.863 0 1 1-114.87 0 57.435 16.863 0 1 1 114.87 0z" color="#000000" fill="url(#radialGradient3735)" opacity=".4"/>
   <path id="path3757" transform="matrix(.94049 0 0 .30888 19.076 41.019)" d="m104.35 37.73a57.435 16.863 0 1 1-114.87 0 57.435 16.863 0 1 1 114.87 0z" color="#000000" fill="url(#radialGradient3735)" opacity=".2"/>
   <path id="path3789" d="m60.107 22.536c-12.444-0.96838-24.995-0.11413-37.387-1.8308-1.0872 2.848 7.2073 5.1241 1.9631 6.5651-6.663 0.29957-13.57-1.6999-20.029 0.72023-3.0093-1.9162-12.023 0.31463-7.3489 4.2227 4.2478 1.6913 8.4882-1.5443 12.806-0.68058 7.56-0.02414 15.438-1.2992 22.695 1.4798 3.5759 2.8759 5.452 9.8227 11.215 8.3557 13.124-1.8173 26.393-1.2454 39.564-0.36128 4.5354 0.25513 9.0758 0.4672 13.619 0.46099 3.8269 1.9617 2.5203-5.6487-0.45914-2.7119-7.9777 0.03327-15.795-3.692-23.786-1.8433-3.7243-1.5914 0.7425-11.04-5.6427-7.8654-5.2755 0.84648-4.6422-8.358 0.65412-5.6777 3.5556 0.60586 10.825 3.0378 11.16-2.5553-2.9854-4.4681-8.3899-0.44889-12.446-0.34985-2.2725 0.36518-4.6006 0.82921-6.5785 2.0716z" fill="#fff" filter="url(#filter3850)" opacity=".2"/>
   <path id="path3854" d="m-1.3357 52.089c6.7325-1.2111 13.59-0.48593 20.382-0.66785-0.39192 2.1712-6.5855 1.0721-4.3429 3.4948 4.264 0.86118 8.6545 0.3193 12.955 0.60079 1.6735-0.71233 6.1403 1.4816 2.6598 2.3976-1.0253-0.20768-4.3455-0.26456-3.2909 1.0763 3.9797 0.45924 7.992 0.68318 11.985 0.31094 8.7176 0.05365 17.433-0.20634 26.15-0.15853 2.4574 2.0801-3.2324 2.2528-4.6868 2.115-1.2123-0.29603-5.7351-0.25417-3.988 1.5112 1.3115 0.18199 5.5629-0.09401 3.8831 1.9302-5.4228 1.3808-11.102-0.20408-16.537 1.183-5.338 0.80643-10.831 0.99872-15.96 2.8339-2.1351 3.2596 3.4472 3.4221 5.4632 2.8981 3.4668 0.14215 6.9765-0.2141 10.416 0.16043 1.3655 0.02787 5.3206 1.086 2.4968 2.4582-5.0295 1.0518-10.208 0.33561-15.284 0.96121-5.8098 0.25646-11.627 0.29084-17.441 0.26958-0.15892 3.2826 5.9322 0.50962 5.1344 3.8826-5.0568 1.3826-10.33 0.5674-15.49 0.78737-2.7813-0.67634-2.2887-4.1082-1.3012-6.079 2.7885-5.1886 2.3413-11.268 2.358-16.963-0.011994-3.3033-3.779-3.9478-5.5611-5.0027z" fill="#fff" filter="url(#filter3866)" opacity=".1"/>
   <path id="path3870" d="m61.609 37.563c-11.632 5.2e-5 -23.264-6.9e-5 -34.895 0-1.1592 0.39416-5.9743 1.1874-2.4362 1.8967 1.3143-0.4398 5.8997 0.50655 3.0568 1.8631-4.4092 1.3563-9.3486-0.05556-13.533 2.2139-1.0609 2.3581 3.8513 1.4557 5.2423 1.8231 5.3035 0.11736 10.616-0.53703 15.907-0.28829 2.1389-0.88829 5.9738 2.4885 2.5807 3.1065-2.0022-1.1659-5.8366 2.553-2.0767 2.4299 3.2758 0.22068 2.7471 3.8825-0.41596 3.5408-3.1759 0.70278-7.1585 0.1808-9.4416 2.9504-1.6599 4.0175 4.4412 3.8587 6.7907 2.8184 4.0154-0.51134 8.0847-0.15809 12.097-0.23408 2.7172 0.15516 2.5784 2.9883 0.54003 3.7162 0.20367 3.3714 4.7291 1.956 6.9344 1.8548 5.6853-0.70677 11.388-1.2749 17.082-1.914 3.1443-2.1521-2.5866-2.4302-3.8858-3.1378-2.1732-1.122-8.8522-1.5608-5.5567-5.0519 2.1878-1.2975 4.9308-0.9706 7.1439-2.2253 2.3354-0.70316 6.9755 0.45947 7.0801-3.0825-1.0387-2.054-8.3019-0.50878-5.0339-3.789 2.952-1.5886 6.3983-1.5898 9.5527-2.5447 2.9105 0.64508 5.6562-4.0841 1.4906-4.2109-3.381-0.87674-7.3275 1.5465-10.338-0.58233-1.637-4.0268 4.0944-3.7485 6.4447-4.7047 3.5778-1.0328 1.5138-4.4809-1.3512-4.1579-5.858-0.69136-11.777-0.03738-17.66-0.32597-2.2525-0.92216-4.4147 1.916-1.5652 2.9482 2.7714 0.8796 6.5956-0.36339 8.5837 2.5558 1.3991 2.0204-0.15623 4.0418-2.3364 2.5312z" fill="#fff" filter="url(#filter3886)" opacity=".1"/>
   <path id="path3890" d="m101.35 70.515c-6.8465 1.1037-13.797 0.51946-20.696 0.67319-7.6959 0.05407-15.406-0.1274-23.093 0.07721-1.3348 1.1204 3.0284 1.2818 3.9967 1.8302 1.1651 0.58194 3.4983-0.2084 3.996 0.77634-3.4936 1.025-7.2358 0.51318-10.837 0.65866-3.8505 0.1159-7.7676-0.42478-11.534 0.58809-2.397 0.57156-5.0812 0.67258-7.3881 0.85141 2.591 0.79426 5.3834 0.64082 7.9422 1.5599 0.78493 1.8088-4.1599 1.1778-1.2064 1.9589 5.3235 0.30332 10.695-0.6129 15.987 0.16036 2.4463 1.4072-2.9625 2.156-0.16865 2.8531 2.8531 0.53757 5.7684-0.46173 8.6701-0.26657 5.0262-0.0535 10.059-0.07789 15.083 0.02261 3.467 0.78443 7.0322 0.5879 10.562 0.66844 2.9495 0.18298 5.9177 0.12236 8.8698 0.07116 2.8637-0.63014 1.2838-4.0366 0.85863-5.9304-0.72639-2.1243 0.15351-4.5903-1.0418-6.5527z" fill="#fff" filter="url(#filter3895)" opacity=".1"/>
   <path id="path3956" d="m25.711 35.71c3.9141 0.53607 7.9394-0.3611 11.796 0.65862 2.1362 0.26651 4.4161-0.45551 6.4383 0.52899-0.90778 1.6466-3.3526 0.87869-4.9089 1.4534-3.0971 0.43488-6.2737-0.03452-9.3437 0.57676-1.7318 1.53 2.5997 2.1125 3.788 1.7851 2.8476-0.02599 5.6792-0.56714 8.5301-0.32537 6.0819-0.20901 12.152 0.50343 18.098 1.7458 1.8071-0.20297 4.3391 2.8561 1.4543 3.2883-3.4852-0.013-6.9678 0.31206-10.451 0.01957-7.2543-0.13258-14.51 0.0075-21.766-0.04741-3.4381 1e-6 -6.8763 1e-6 -10.314 2e-6 -0.17215 2.3605 3.4711 0.48896 4.8271 1.4841 1.3959 0.02418 5.4395 0.01145 3.7897 2.2776-1.7479 1.421-4.0867 0.52338-6.1095 0.53658-2.7529-0.76962-5.5598-1.3222-8.3279-2.0316-2.1632 0.71455-5.2555-2.5186-1.8421-3.1364 2.2404-0.96449 4.6993-1.4679 7.1412-1.3147 1.8789-0.61709 4.3138 0.10693 5.7727-1.5044 0.45892-2.9301-4.2421-2.2272-5.915-3.5991 0.70403-2.5108 4.1766-1.1543 6.0237-2.2402 0.65078-0.13864 1.3212-0.22552 1.9866-0.15571" fill="#fff" filter="url(#filter3966)" opacity=".3"/>
  </g>
 </g>
 <g id="layer5">
  <rect id="rect3171" x="15" y="15" width="66" height="66" rx="12" ry="12" clip-path="url(#clipPath3613)" fill="url(#linearGradient3613)" filter="url(#filter3794)" opacity=".1" stroke="#fff" stroke-linecap="round" stroke-width=".5"/>
 </g>
 <g id="layer6">
  <path id="rect3728" d="m12 6c-3.324 0-6 2.676-6 6v2 68 2c0 0.33472 0.04135 0.6507 0.09375 0.96875 0.0487 0.2956 0.09704 0.59692 0.1875 0.875 0.00988 0.03038 0.020892 0.0636 0.03125 0.09375 0.098865 0.28777 0.23488 0.54745 0.375 0.8125 0.14459 0.27351 0.31562 0.53562 0.5 0.78125s0.37378 0.47347 0.59375 0.6875c0.43995 0.42806 0.94291 0.81453 1.5 1.0938 0.27854 0.13961 0.57347 0.24695 0.875 0.34375-0.2562-0.10022-0.48671-0.23627-0.71875-0.375-0.00741-0.0044-0.023866 0.0045-0.03125 0-0.031933-0.0193-0.062293-0.04251-0.09375-0.0625-0.1204-0.0767-0.23102-0.16351-0.34375-0.25-0.10617-0.0808-0.21328-0.16111-0.3125-0.25-0.17793-0.16143-0.34746-0.34539-0.5-0.53125-0.10758-0.13026-0.21839-0.26528-0.3125-0.40625-0.025089-0.03838-0.038446-0.08587-0.0625-0.125-0.064763-0.10303-0.13023-0.20452-0.1875-0.3125-0.10101-0.19471-0.20567-0.4157-0.28125-0.625-0.00796-0.02181-0.023589-0.04055-0.03125-0.0625-0.031825-0.09195-0.035804-0.18683-0.0625-0.28125-0.030332-0.10662-0.070389-0.20303-0.09375-0.3125-0.072879-0.34151-0.125-0.6982-0.125-1.0625v-2-68-2c0-2.7818 2.2182-5 5-5h2 68 2c2.7818 0 5 2.2182 5 5v2 68 2c0 0.3643-0.05212 0.72099-0.125 1.0625-0.04415 0.20689-0.08838 0.39766-0.15625 0.59375-0.0077 0.02195-0.0233 0.04069-0.03125 0.0625-0.06274 0.17374-0.13838 0.36745-0.21875 0.53125-0.04158 0.0828-0.07904 0.16995-0.125 0.25-0.0546 0.09721-0.12677 0.18835-0.1875 0.28125-0.09411 0.14096-0.20492 0.276-0.3125 0.40625-0.14317 0.17445-0.30314 0.347-0.46875 0.5-0.01117 0.0102-0.01998 0.02115-0.03125 0.03125-0.13839 0.12556-0.28509 0.23444-0.4375 0.34375-0.10257 0.07315-0.20432 0.15336-0.3125 0.21875-0.0074 0.0045-0.02384-0.0044-0.03125 0-0.23204 0.13873-0.46255 0.27478-0.71875 0.375 0.30153-0.0968 0.59646-0.20414 0.875-0.34375 0.55709-0.27922 1.0601-0.66569 1.5-1.0938 0.21997-0.21403 0.40937-0.44186 0.59375-0.6875s0.35541-0.50774 0.5-0.78125c0.14012-0.26505 0.27614-0.52473 0.375-0.8125 0.01041-0.03078 0.02133-0.06274 0.03125-0.09375 0.09046-0.27808 0.1388-0.5794 0.1875-0.875 0.0524-0.31805 0.09375-0.63403 0.09375-0.96875v-2-68-2c0-3.324-2.676-6-6-6h-72z" display="none" fill="url(#linearGradient3188)" opacity=".5"/>
  <path id="path3615" d="m12 90c-3.324 0-6-2.676-6-6v-2-68-2c0-0.33472 0.04135-0.6507 0.09375-0.96875 0.0487-0.2956 0.09704-0.59692 0.1875-0.875 0.00988-0.03038 0.020892-0.0636 0.03125-0.09375 0.098865-0.28777 0.23488-0.54745 0.375-0.8125 0.14459-0.27351 0.31562-0.53562 0.5-0.78125s0.37378-0.47347 0.59375-0.6875c0.43995-0.42806 0.94291-0.81453 1.5-1.0938 0.27854-0.13961 0.57347-0.24695 0.875-0.34375-0.2562 0.10022-0.48671 0.23627-0.71875 0.375-0.00741 0.0044-0.023866-0.0045-0.03125 0-0.031933 0.0193-0.062293 0.04251-0.09375 0.0625-0.1204 0.0767-0.23102 0.16351-0.34375 0.25-0.10617 0.0808-0.21328 0.16111-0.3125 0.25-0.17793 0.16143-0.34746 0.34539-0.5 0.53125-0.10758 0.13026-0.21839 0.26528-0.3125 0.40625-0.025089 0.03838-0.038446 0.08587-0.0625 0.125-0.064763 0.10303-0.13023 0.20452-0.1875 0.3125-0.10101 0.19471-0.20567 0.4157-0.28125 0.625-0.00796 0.02181-0.023589 0.04055-0.03125 0.0625-0.031825 0.09195-0.035804 0.18683-0.0625 0.28125-0.030332 0.10662-0.070389 0.20303-0.09375 0.3125-0.072879 0.34151-0.125 0.6982-0.125 1.0625v2 68 2c0 2.7818 2.2182 5 5 5h2 68 2c2.7818 0 5-2.2182 5-5v-2-68-2c0-0.3643-0.05212-0.72099-0.125-1.0625-0.04415-0.20689-0.08838-0.39766-0.15625-0.59375-0.0077-0.02195-0.0233-0.04069-0.03125-0.0625-0.06274-0.17374-0.13838-0.36745-0.21875-0.53125-0.04158-0.0828-0.07904-0.16995-0.125-0.25-0.0546-0.09721-0.12677-0.18835-0.1875-0.28125-0.09411-0.14096-0.20492-0.276-0.3125-0.40625-0.14317-0.17445-0.30314-0.347-0.46875-0.5-0.01117-0.0102-0.01998-0.02115-0.03125-0.03125-0.13839-0.12556-0.28509-0.23444-0.4375-0.34375-0.10257-0.07315-0.20432-0.15336-0.3125-0.21875-0.0074-0.0045-0.02384 0.0044-0.03125 0-0.23204-0.13873-0.46255-0.27478-0.71875-0.375 0.30153 0.0968 0.59646 0.20414 0.875 0.34375 0.55709 0.27922 1.0601 0.66569 1.5 1.0938 0.21997 0.21403 0.40937 0.44186 0.59375 0.6875s0.35541 0.50774 0.5 0.78125c0.14012 0.26505 0.27614 0.52473 0.375 0.8125 0.01041 0.03078 0.02133 0.06274 0.03125 0.09375 0.09046 0.27808 0.1388 0.5794 0.1875 0.875 0.0524 0.31805 0.09375 0.63403 0.09375 0.96875v2 68 2c0 3.324-2.676 6-6 6h-72z" display="none" fill="url(#radialGradient3619)" opacity=".2"/>
  <path id="rect3728-8" d="m12 6c-3.324 0-6 2.676-6 6v2 68 2c0 0.33472 0.04135 0.6507 0.09375 0.96875 0.0487 0.2956 0.09704 0.59692 0.1875 0.875 0.00988 0.03038 0.020892 0.0636 0.03125 0.09375 0.098865 0.28777 0.23488 0.54745 0.375 0.8125 0.14459 0.27351 0.31562 0.53562 0.5 0.78125s0.37378 0.47347 0.59375 0.6875c0.43995 0.42806 0.94291 0.81453 1.5 1.0938 0.27854 0.13961 0.57347 0.24695 0.875 0.34375-0.2562-0.10022-0.48671-0.23627-0.71875-0.375-0.00741-0.0044-0.023866 0.0045-0.03125 0-0.031933-0.0193-0.062293-0.04251-0.09375-0.0625-0.1204-0.0767-0.23102-0.16351-0.34375-0.25-0.10617-0.0808-0.21328-0.16111-0.3125-0.25-0.17793-0.16143-0.34746-0.34539-0.5-0.53125-0.10758-0.13026-0.21839-0.26528-0.3125-0.40625-0.025089-0.03838-0.038446-0.08587-0.0625-0.125-0.064763-0.10303-0.13023-0.20452-0.1875-0.3125-0.10101-0.19471-0.20567-0.4157-0.28125-0.625-0.00796-0.02181-0.023589-0.04055-0.03125-0.0625-0.031825-0.09195-0.035804-0.18683-0.0625-0.28125-0.030332-0.10662-0.070389-0.20303-0.09375-0.3125-0.072879-0.34151-0.125-0.6982-0.125-1.0625v-2-68-2c0-2.7818 2.2182-5 5-5h2 68 2c2.7818 0 5 2.2182 5 5v2 68 2c0 0.3643-0.05212 0.72099-0.125 1.0625-0.04415 0.20689-0.08838 0.39766-0.15625 0.59375-0.0077 0.02195-0.0233 0.04069-0.03125 0.0625-0.06274 0.17374-0.13838 0.36745-0.21875 0.53125-0.04158 0.0828-0.07904 0.16995-0.125 0.25-0.0546 0.09721-0.12677 0.18835-0.1875 0.28125-0.09411 0.14096-0.20492 0.276-0.3125 0.40625-0.14317 0.17445-0.30314 0.347-0.46875 0.5-0.01117 0.0102-0.01998 0.02115-0.03125 0.03125-0.13839 0.12556-0.28509 0.23444-0.4375 0.34375-0.10257 0.07315-0.20432 0.15336-0.3125 0.21875-0.0074 0.0045-0.02384-0.0044-0.03125 0-0.23204 0.13873-0.46255 0.27478-0.71875 0.375 0.30153-0.0968 0.59646-0.20414 0.875-0.34375 0.55709-0.27922 1.0601-0.66569 1.5-1.0938 0.21997-0.21403 0.40937-0.44186 0.59375-0.6875s0.35541-0.50774 0.5-0.78125c0.14012-0.26505 0.27614-0.52473 0.375-0.8125 0.01041-0.03078 0.02133-0.06274 0.03125-0.09375 0.09046-0.27808 0.1388-0.5794 0.1875-0.875 0.0524-0.31805 0.09375-0.63403 0.09375-0.96875v-2-68-2c0-3.324-2.676-6-6-6h-72z" fill="url(#linearGradient3188)" opacity=".4"/>
  <path id="path3615-7" d="m12 90c-3.324 0-6-2.676-6-6v-2-68-2c0-0.33472 0.04135-0.6507 0.09375-0.96875 0.0487-0.2956 0.09704-0.59692 0.1875-0.875 0.00988-0.03038 0.020892-0.0636 0.03125-0.09375 0.098865-0.28777 0.23488-0.54745 0.375-0.8125 0.14459-0.27351 0.31562-0.53562 0.5-0.78125s0.37378-0.47347 0.59375-0.6875c0.43995-0.42806 0.94291-0.81453 1.5-1.0938 0.27854-0.13961 0.57347-0.24695 0.875-0.34375-0.2562 0.10022-0.48671 0.23627-0.71875 0.375-0.00741 0.0044-0.023866-0.0045-0.03125 0-0.031933 0.0193-0.062293 0.04251-0.09375 0.0625-0.1204 0.0767-0.23102 0.16351-0.34375 0.25-0.10617 0.0808-0.21328 0.16111-0.3125 0.25-0.17793 0.16143-0.34746 0.34539-0.5 0.53125-0.10758 0.13026-0.21839 0.26528-0.3125 0.40625-0.025089 0.03838-0.038446 0.08587-0.0625 0.125-0.064763 0.10303-0.13023 0.20452-0.1875 0.3125-0.10101 0.19471-0.20567 0.4157-0.28125 0.625-0.00796 0.02181-0.023589 0.04055-0.03125 0.0625-0.031825 0.09195-0.035804 0.18683-0.0625 0.28125-0.030332 0.10662-0.070389 0.20303-0.09375 0.3125-0.072879 0.34151-0.125 0.6982-0.125 1.0625v2 68 2c0 2.7818 2.2182 5 5 5h2 68 2c2.7818 0 5-2.2182 5-5v-2-68-2c0-0.3643-0.05212-0.72099-0.125-1.0625-0.04415-0.20689-0.08838-0.39766-0.15625-0.59375-0.0077-0.02195-0.0233-0.04069-0.03125-0.0625-0.06274-0.17374-0.13838-0.36745-0.21875-0.53125-0.04158-0.0828-0.07904-0.16995-0.125-0.25-0.0546-0.09721-0.12677-0.18835-0.1875-0.28125-0.09411-0.14096-0.20492-0.276-0.3125-0.40625-0.14317-0.17445-0.30314-0.347-0.46875-0.5-0.01117-0.0102-0.01998-0.02115-0.03125-0.03125-0.13839-0.12556-0.28509-0.23444-0.4375-0.34375-0.10257-0.07315-0.20432-0.15336-0.3125-0.21875-0.0074-0.0045-0.02384 0.0044-0.03125 0-0.23204-0.13873-0.46255-0.27478-0.71875-0.375 0.30153 0.0968 0.59646 0.20414 0.875 0.34375 0.55709 0.27922 1.0601 0.66569 1.5 1.0938 0.21997 0.21403 0.40937 0.44186 0.59375 0.6875s0.35541 0.50774 0.5 0.78125c0.14012 0.26505 0.27614 0.52473 0.375 0.8125 0.01041 0.03078 0.02133 0.06274 0.03125 0.09375 0.09046 0.27808 0.1388 0.5794 0.1875 0.875 0.0524 0.31805 0.09375 0.63403 0.09375 0.96875v2 68 2c0 3.324-2.676 6-6 6h-72z" fill="url(#radialGradient3619-6)" opacity=".2"/>
 </g>
</svg>
