<?xml version="1.0" encoding="UTF-8"?>
<svg id="svg2" width="24" height="24" version="1.0" xmlns="http://www.w3.org/2000/svg" xmlns:cc="http://creativecommons.org/ns#" xmlns:dc="http://purl.org/dc/elements/1.1/" xmlns:rdf="http://www.w3.org/1999/02/22-rdf-syntax-ns#" xmlns:xlink="http://www.w3.org/1999/xlink">
 <defs id="defs4">
  <linearGradient id="linearGradient4036" x1="11.64" x2="11.64" y1="4.0776" y2="17.924" gradientUnits="userSpaceOnUse">
   <stop id="stop4038" stop-color="#282828" offset="0"/>
   <stop id="stop4040" stop-color="#787878" offset="1"/>
  </linearGradient>
  <linearGradient id="linearGradient4042" x1="11.64" x2="11.64" y1="4.0776" y2="17.924" gradientTransform="translate(-30)" gradientUnits="userSpaceOnUse" xlink:href="#linearGradient4036"/>
  <radialGradient id="radialGradient3972" cx="12" cy="26.75" r="8" gradientTransform="matrix(1 0 0 .5 0 4.625)" gradientUnits="userSpaceOnUse" xlink:href="#linearGradient3949"/>
  <linearGradient id="linearGradient3949">
   <stop id="stop3951" stop-color="#fff" offset="0"/>
   <stop id="stop3953" stop-color="#fff" stop-opacity="0" offset="1"/>
  </linearGradient>
  <linearGradient id="linearGradient3955" x1="4" x2="16" y1="12" y2="12" gradientTransform="matrix(0,1,-1,0,24,-2)" gradientUnits="userSpaceOnUse" xlink:href="#linearGradient3949"/>
  <linearGradient id="linearGradient3181" x1="-3.0608" x2="-3.0608" y1="27.258" y2="7.2537" gradientTransform="matrix(.8 0 0 .8 12.095 -3.8066)" gradientUnits="userSpaceOnUse">
   <stop id="stop3189-4" stop-color="#c8c8c8" offset="0"/>
   <stop id="stop3191-0" stop-color="#e6e6e6" offset="1"/>
  </linearGradient>
  <linearGradient id="linearGradient3146" x1="-3.0608" x2="-3.0608" y1="27.258" y2="7.2582" gradientTransform="matrix(.9 0 0 .9 12.107 -5.5324)" gradientUnits="userSpaceOnUse">
   <stop id="stop3277" stop-opacity=".70588" offset="0"/>
   <stop id="stop3279" stop-opacity=".15686" offset="1"/>
  </linearGradient>
  <linearGradient id="linearGradient3072" x1="11.64" x2="11.64" y1="6" y2="16" gradientTransform="translate(1,-1)" gradientUnits="userSpaceOnUse" xlink:href="#linearGradient4036"/>
 </defs>
 <metadata id="metadata7">
  <rdf:RDF>
   <cc:Work rdf:about="">
    <dc:format>image/svg+xml</dc:format>
    <dc:type rdf:resource="http://purl.org/dc/dcmitype/StillImage"/>
   </cc:Work>
  </rdf:RDF>
 </metadata>
 <g id="layer3" transform="translate(0,2)">
  <path id="path4120" d="m-21.125 3a1.0493 1.0493 0 0 0-0.96875 1.0625v3.875h-3.8438a1.0493 1.0493 0 0 0-1.0625 1.0625v4.0625a1.0493 1.0493 0 0 0 1.0625 1.0625h3.8438v3.8125a1.0493 1.0493 0 0 0 1.0625 1.0625h4.0312a1.0493 1.0493 0 0 0 1.0625-1.0625v-3.8125h3.875a1.0493 1.0493 0 0 0 1.0625-1.0625v-4.0625a1.0493 1.0493 0 0 0-1.0625-1.0625h-3.875v-3.875a1.0493 1.0493 0 0 0-1.0625-1.0625h-4.0312a1.0493 1.0493 0 0 0-0.09375 0zm0.09375 1.0625h4.0312v4.9375h4.9375v4.0625h-4.9375v4.875h-4.0312v-4.875h-4.9062v-4.0625h4.9062v-4.9375z" fill="#fff" opacity=".15"/>
  <path id="Symbol" d="m-21.03 4.0776v4.9354h-4.8925v4.0476h4.8925v4.8619h4.0299v-4.8619h4.9224v-4.0476h-4.9224v-4.9354h-4.0299z" fill="url(#linearGradient4042)"/>
  <path id="BevelShadow" d="m-21.031 4.0625v1.0938h4.0312v-1.0938h-4.0312zm-4.9062 4.9375v1.0938h4.9062v-1.0938h-4.9062zm8.9375 0v1.0938h4.9375v-1.0938h-4.9375z" opacity=".5"/>
  <path id="BevelHighlight" d="m-25.938 13.062v1.0625h4.9062v-1.0625h-4.9062zm8.9375 0v1.0625h4.9375v-1.0625h-4.9375zm-4.0312 4.875v1.0625h4.0312v-1.0625h-4.0312z" fill="#fff" opacity=".3"/>
  <path id="rect3918" d="m5.5 1c-1.385 0-2.5 1.115-2.5 2.5v13c0 1.385 1.115 2.5 2.5 2.5h13c1.385 0 2.5-1.115 2.5-2.5v-13c0-1.385-1.115-2.5-2.5-2.5h-13zm0 1h13c0.831 0 1.5 0.669 1.5 1.5v13c0 0.831-0.669 1.5-1.5 1.5h-13c-0.831 0-1.5-0.669-1.5-1.5v-13c0-0.831 0.669-1.5 1.5-1.5z" fill="url(#linearGradient3146)" fill-rule="evenodd" opacity=".5"/>
  <rect id="rect3173" x="4" y="2" width="16" height="16" rx="1.5" ry="1.5" fill="url(#linearGradient3181)" fill-rule="evenodd" opacity=".75"/>
  <path id="rect3925" d="m4 16.5v1c0 0.831 0.669 1.5 1.5 1.5h13c0.831 0 1.5-0.669 1.5-1.5v-1c0 0.831-0.669 1.5-1.5 1.5h-13c-0.831 0-1.5-0.669-1.5-1.5z" fill-rule="evenodd" opacity=".2"/>
  <path id="rect3936" d="m20 3.5c0-0.831-0.669-1.5-1.5-1.5h-13c-0.831 0-1.5 0.669-1.5 1.5v13c0 0.831 0.669 1.5 1.5 1.5h13c0.831 0 1.5-0.669 1.5-1.5v-13zm-0.96875 0v13c0 0.31781-0.21344 0.53125-0.53125 0.53125h-13c-0.31781 0-0.53125-0.21344-0.53125-0.53125v-13c0-0.31781 0.21344-0.53125 0.53125-0.53125h13c0.31781 0 0.53125 0.21344 0.53125 0.53125z" fill="url(#linearGradient3955)" fill-rule="evenodd" opacity=".6"/>
  <path id="rect3957" d="m4 15.5v1c0 0.831 0.669 1.5 1.5 1.5h13c0.831 0 1.5-0.669 1.5-1.5v-1c0 0.831-0.669 1.5-1.5 1.5h-13c-0.831 0-1.5-0.669-1.5-1.5z" fill="url(#radialGradient3972)" fill-rule="evenodd" opacity=".35"/>
  <path id="path3070" d="m10.97 5.0776v3.9354h-3.8925v2.0476h3.8925v3.8619h2.0299v-3.8619h3.9224v-2.0476h-3.9224v-3.9354z" fill="url(#linearGradient3072)"/>
  <path id="path3074" transform="translate(0,-2)" d="m10.969 7.0625v1h2.0312v-1h-2.0312zm-3.9062 3.9375v1h3.9062v-1h-3.9062zm5.9375 0v1h3.9375v-1h-3.9375z" opacity=".5"/>
  <path id="path3851" d="m10.969 16v-1h2.0312v1h-2.0312zm-3.9062-3.9375v-1h3.9062v1h-3.9062zm5.9375 0v-1h3.9375v1h-3.9375z" fill="#fff" opacity=".5"/>
 </g>
</svg>
