<?xml version="1.0" encoding="UTF-8"?>
<svg id="svg2" width="24" height="24" version="1.0" xmlns="http://www.w3.org/2000/svg" xmlns:cc="http://creativecommons.org/ns#" xmlns:dc="http://purl.org/dc/elements/1.1/" xmlns:rdf="http://www.w3.org/1999/02/22-rdf-syntax-ns#" xmlns:xlink="http://www.w3.org/1999/xlink">
 <defs id="defs4">
  <linearGradient id="linearGradient3949">
   <stop id="stop3951" stop-color="#fff" offset="0"/>
   <stop id="stop3953" stop-color="#fff" stop-opacity="0" offset="1"/>
  </linearGradient>
  <linearGradient id="linearGradient3181" x1="-3.0608" x2="-3.0608" y1="27.258" y2="7.2537" gradientTransform="matrix(.8 0 0 .8 12.095 -3.8066)" gradientUnits="userSpaceOnUse">
   <stop id="stop3189-4" stop-color="#c8c8c8" offset="0"/>
   <stop id="stop3191-0" stop-color="#e6e6e6" offset="1"/>
  </linearGradient>
  <linearGradient id="linearGradient3934" x1="-3.0608" x2="-3.0608" y1="27.258" y2="7.2582" gradientTransform="matrix(.9 0 0 .9 12.107 -3.5324)" gradientUnits="userSpaceOnUse">
   <stop id="stop3277" stop-opacity=".70588" offset="0"/>
   <stop id="stop3279" stop-opacity=".15686" offset="1"/>
  </linearGradient>
  <linearGradient id="linearGradient3955" x1="4" x2="16" y1="12" y2="12" gradientTransform="matrix(0,1,-1,0,24,-2)" gradientUnits="userSpaceOnUse" xlink:href="#linearGradient3949"/>
  <radialGradient id="radialGradient3972" cx="12" cy="26.75" r="8" gradientTransform="matrix(1 0 0 .5 0 6.625)" gradientUnits="userSpaceOnUse" xlink:href="#linearGradient3949"/>
 </defs>
 <metadata id="metadata7">
  <rdf:RDF>
   <cc:Work rdf:about="">
    <dc:format>image/svg+xml</dc:format>
    <dc:type rdf:resource="http://purl.org/dc/dcmitype/StillImage"/>
    <dc:title/>
   </cc:Work>
  </rdf:RDF>
 </metadata>
 <g id="layer2" transform="translate(0,2)" fill-rule="evenodd">
  <path id="rect3918" transform="translate(0,-2)" d="m5.5 3c-1.385 0-2.5 1.115-2.5 2.5v13c0 1.385 1.115 2.5 2.5 2.5h13c1.385 0 2.5-1.115 2.5-2.5v-13c0-1.385-1.115-2.5-2.5-2.5h-13zm0 1h13c0.831 0 1.5 0.669 1.5 1.5v13c0 0.831-0.669 1.5-1.5 1.5h-13c-0.831 0-1.5-0.669-1.5-1.5v-13c0-0.831 0.669-1.5 1.5-1.5z" fill="url(#linearGradient3934)" opacity=".5"/>
  <rect id="rect3173" x="4" y="2" width="16" height="16" rx="1.5" ry="1.5" fill="url(#linearGradient3181)" opacity=".75"/>
  <path id="rect3925" transform="translate(0,-2)" d="m4 18.5v1c0 0.831 0.669 1.5 1.5 1.5h13c0.831 0 1.5-0.669 1.5-1.5v-1c0 0.831-0.669 1.5-1.5 1.5h-13c-0.831 0-1.5-0.669-1.5-1.5z" opacity=".2"/>
  <path id="rect3936" d="m20 3.5c0-0.831-0.669-1.5-1.5-1.5h-13c-0.831 0-1.5 0.669-1.5 1.5v13c0 0.831 0.669 1.5 1.5 1.5h13c0.831 0 1.5-0.669 1.5-1.5v-13zm-0.96875 0v13c0 0.31781-0.21344 0.53125-0.53125 0.53125h-13c-0.31781 0-0.53125-0.21344-0.53125-0.53125v-13c0-0.31781 0.21344-0.53125 0.53125-0.53125h13c0.31781 0 0.53125 0.21344 0.53125 0.53125z" fill="url(#linearGradient3955)" opacity=".6"/>
  <path id="rect3957" transform="translate(0,-2)" d="m4 17.5v1c0 0.831 0.669 1.5 1.5 1.5h13c0.831 0 1.5-0.669 1.5-1.5v-1c0 0.831-0.669 1.5-1.5 1.5h-13c-0.831 0-1.5-0.669-1.5-1.5z" fill="url(#radialGradient3972)" opacity=".35"/>
 </g>
 <g id="layer1" transform="translate(0,2)">
  <path id="path4470" d="m11.453 4.84c-2.6086 0.25888-4.6812 2.4194-4.8438 5.0937h-1.9375l2.7188 4.0937 2.9062-4.0937h-1.875c0.16528-1.8508 1.6636-3.2812 3.5312-3.2812 0.81376 4e-7 1.5525 0.28805 2.1562 0.75l1.0312-1.4687c-0.89449-0.67124-1.988-1.0938-3.1875-1.0938-0.17842 0-0.32609-0.017258-0.5 0z" opacity=".3"/>
  <path id="Symbol" d="m16.609 6.0311-2.9062 4.0937h1.875c-0.16528 1.8508-1.6636 3.2812-3.5312 3.2812-0.81376 0-1.5525-0.28805-2.1562-0.75l-1.0312 1.4688c0.89449 0.67124 1.988 1.0938 3.1875 1.0938 0.17842 0 0.32609 0.01726 0.5 0 2.6086-0.25888 4.6812-2.4194 4.8438-5.0938h1.9375l-2.7188-4.0937z" opacity=".3"/>
 </g>
</svg>
