<?xml version="1.0" encoding="UTF-8"?>
<svg id="svg2" width="24" height="24" version="1.0" xmlns="http://www.w3.org/2000/svg" xmlns:cc="http://creativecommons.org/ns#" xmlns:dc="http://purl.org/dc/elements/1.1/" xmlns:rdf="http://www.w3.org/1999/02/22-rdf-syntax-ns#" xmlns:xlink="http://www.w3.org/1999/xlink">
 <defs id="defs4">
  <linearGradient id="linearGradient4427" x1="20.759" x2="20.759" y1="1" y2="45.017" gradientTransform="matrix(.4186 0 0 .4186 -29.046 1.3721)" gradientUnits="userSpaceOnUse" xlink:href="#linearGradient4036"/>
  <linearGradient id="linearGradient4036" x1="11.64" x2="11.64" y1="4.0776" y2="17.924" gradientUnits="userSpaceOnUse">
   <stop id="stop4038" stop-color="#282828" offset="0"/>
   <stop id="stop4040" stop-color="#787878" offset="1"/>
  </linearGradient>
  <radialGradient id="radialGradient3972" cx="12" cy="26.75" r="8" gradientTransform="matrix(1 0 0 .5 0 4.625)" gradientUnits="userSpaceOnUse" xlink:href="#linearGradient3949"/>
  <linearGradient id="linearGradient3949">
   <stop id="stop3951" stop-color="#fff" offset="0"/>
   <stop id="stop3953" stop-color="#fff" stop-opacity="0" offset="1"/>
  </linearGradient>
  <linearGradient id="linearGradient3955" x1="4" x2="16" y1="12" y2="12" gradientTransform="matrix(0,1,-1,0,24,-2)" gradientUnits="userSpaceOnUse" xlink:href="#linearGradient3949"/>
  <linearGradient id="linearGradient3181" x1="-3.0608" x2="-3.0608" y1="27.258" y2="7.2537" gradientTransform="matrix(.8 0 0 .8 12.095 -3.8066)" gradientUnits="userSpaceOnUse">
   <stop id="stop3189-4" stop-color="#c8c8c8" offset="0"/>
   <stop id="stop3191-0" stop-color="#e6e6e6" offset="1"/>
  </linearGradient>
  <linearGradient id="linearGradient3182" x1="-3.0608" x2="-3.0608" y1="27.258" y2="7.2582" gradientTransform="matrix(.9 0 0 .9 12.107 -5.5324)" gradientUnits="userSpaceOnUse">
   <stop id="stop3277-0" stop-opacity=".70588" offset="0"/>
   <stop id="stop3279-5" stop-opacity=".15686" offset="1"/>
  </linearGradient>
  <linearGradient id="linearGradient3122" x1="20.759" x2="20.759" y1="1" y2="45.017" gradientTransform="matrix(.27907 0 0 .27907 5.3023 3.5815)" gradientUnits="userSpaceOnUse" xlink:href="#linearGradient4036"/>
 </defs>
 <metadata id="metadata7">
  <rdf:RDF>
   <cc:Work rdf:about="">
    <dc:format>image/svg+xml</dc:format>
    <dc:type rdf:resource="http://purl.org/dc/dcmitype/StillImage"/>
    <dc:title/>
   </cc:Work>
  </rdf:RDF>
 </metadata>
 <g id="layer1" transform="translate(0,2)">
  <path id="path4171" d="m-20.25 1c-0.90828 0-1.625 0.7976-1.625 1.6562v0.59375c-0.20164 0.070252-0.39492 0.16289-0.59375 0.25l-0.40625-0.4375c-0.0052-0.00522-0.02587 0.00526-0.03125 0-0.23071-0.22587-0.61505-0.49568-1.125-0.5-0.42611-0.00366-0.87425 0.18677-1.1562 0.46875l-1.7812 1.7812c-0.61433 0.61433-0.52041 1.7057 0.03125 2.2812l0.4375 0.4375c-0.08711 0.19883-0.17975 0.39211-0.25 0.59375h-0.59375c-0.85865 0-1.6562 0.71672-1.6562 1.625v2.5c0 0.90828 0.7976 1.625 1.6562 1.625h0.59375c0.07025 0.20164 0.16289 0.39492 0.25 0.59375l-0.4375 0.4375c-0.55168 0.57556-0.64562 1.6669-0.03125 2.2812l1.7812 1.7812c0.61432 0.61433 1.7057 0.52044 2.2812-0.03125h0.03125l0.40625-0.4375c0.19883 0.08711 0.39211 0.17975 0.59375 0.25v0.59375c0 0.85865 0.71672 1.6562 1.625 1.6562h2.5c0.90828 0 1.625-0.7976 1.625-1.6562v-0.59375c0.20164-0.07025 0.39492-0.16289 0.59375-0.25l0.4375 0.4375c0.57557 0.55169 1.6669 0.6456 2.2812 0.03125l1.7812-1.7812c0.61434-0.61435 0.52037-1.7057-0.03125-2.2812l-0.4375-0.4375c0.08711-0.19883 0.17975-0.3921 0.25-0.59375h0.59375c0.85868 1.9e-5 1.6562-0.71671 1.6562-1.625v-2.5c0-0.90829-0.7976-1.625-1.6562-1.625h-0.59375c-0.07025-0.20164-0.16289-0.39492-0.25-0.59375l0.4375-0.40625v-0.03125c0.55167-0.57556 0.64565-1.6669 0.03125-2.2812l-1.7812-1.7812c-0.61435-0.61433-1.7057-0.52036-2.2812 0.03125-7e-3 0.00674-0.02437-0.00688-0.03125 0l-0.40625 0.4375c-0.19883-0.087113-0.39211-0.17975-0.59375-0.25v-0.59375c0-0.85865-0.71672-1.6562-1.625-1.6562h-2.5zm0 1h2.5c0.35419 0 0.625 0.296 0.625 0.65625v1.2812c0.63332 0.16874 1.2588 0.39673 1.8125 0.71875l0.90625-0.875c0.25473-0.2547 0.62454-0.2817 0.875-0.03125l1.7812 1.7812c0.25048 0.25045 0.22348 0.62027-0.03125 0.875l-0.875 0.90625c0.32202 0.55368 0.55001 1.1792 0.71875 1.8125h1.2812c0.36024 0 0.65625 0.27081 0.65625 0.625v2.5c0 0.35419-0.29601 0.62501-0.65625 0.625h-1.2812c-0.16874 0.63332-0.39673 1.2588-0.71875 1.8125l0.875 0.90625c0.2547 0.25473 0.2817 0.62455 0.03125 0.875l-1.7812 1.7812c-0.25045 0.25046-0.62027 0.22348-0.875-0.03125l-0.90625-0.875c-0.55368 0.32202-1.1792 0.55001-1.8125 0.71875v1.2812c0 0.36025-0.27081 0.65625-0.625 0.65625h-2.5c-0.3542 0-0.625-0.296-0.625-0.65625v-1.2812c-0.63332-0.16874-1.2588-0.39673-1.8125-0.71875l-0.90625 0.875c-0.25473 0.25473-0.62455 0.2817-0.875 0.03125l-1.7812-1.7812c-0.25047-0.25045-0.22348-0.62027 0.03125-0.875l0.875-0.90625c-0.32202-0.55368-0.55-1.1792-0.71875-1.8125h-1.2812c-0.36025 0-0.65625-0.27081-0.65625-0.625v-2.5c0-0.35419 0.296-0.625 0.65625-0.625h1.2812c0.16874-0.63332 0.39673-1.2588 0.71875-1.8125l-0.875-0.90625c-0.25472-0.25473-0.2817-0.62455-0.03125-0.875l1.7812-1.7812c0.12522-0.12522 0.27268-0.18891 0.4375-0.1875 0.16483 0.0014 0.31013 0.091387 0.4375 0.21875l0.90625 0.875c0.55368-0.32202 1.1792-0.55001 1.8125-0.71875v-1.2812c0-0.36025 0.2708-0.65625 0.625-0.65625zm1.25 6.2812c-1.5019 0-2.7188 1.2168-2.7188 2.7188 0 1.502 1.2168 2.7188 2.7188 2.7188s2.7188-1.2168 2.7188-2.7188c0-1.5019-1.2168-2.7188-2.7188-2.7188zm0 1c0.96481 0 1.7188 0.75394 1.7188 1.7188 0 0.96481-0.75394 1.7188-1.7188 1.7188-0.96481 0-1.7188-0.75394-1.7188-1.7188 0-0.96481 0.75394-1.7188 1.7188-1.7188z" display="block" fill="#fff" opacity=".15"/>
  <path id="rect3267" d="m-20.243 2.0001c-0.3542 0-0.64099 0.29382-0.64099 0.65407v1.2689c-0.63332 0.16874-1.2385 0.42362-1.7921 0.74564l-0.90262-0.90261c-0.12737-0.12736-0.27994-0.19483-0.44476-0.19622-0.16482-0.00141-0.33262 0.057921-0.45785 0.18314l-1.766 1.766c-0.25045 0.25045-0.24165 0.64788 0.01307 0.90262l0.90261 0.90261c-0.32202 0.55368-0.5769 1.1588-0.74564 1.7921h-1.2689c-0.36025 0-0.65407 0.2868-0.65407 0.64099v2.4855c0 0.35419 0.29382 0.64099 0.65407 0.64099h1.2689c0.16874 0.63332 0.42362 1.2385 0.74564 1.7921l-0.90262 0.90261c-0.25473 0.25473-0.26353 0.65216-0.01306 0.90261l1.766 1.766c0.25045 0.25045 0.64788 0.24165 0.90261-0.01308l0.90261-0.90261c0.55368 0.32202 1.1588 0.5769 1.7921 0.74564v1.2689c0 0.36025 0.28679 0.65407 0.64099 0.65407h2.4855c0.35419 0 0.64099-0.29382 0.64099-0.65407v-1.2689c0.63332-0.16874 1.2385-0.42362 1.7921-0.74564l0.90262 0.90262c0.25473 0.25473 0.65216 0.26353 0.90261 0.01307l1.766-1.766c0.25045-0.25045 0.24165-0.64788-0.01305-0.90261l-0.90261-0.90262c0.32202-0.55368 0.5769-1.1588 0.74564-1.7921h1.2689c0.36024 8e-6 0.65407-0.28679 0.65407-0.64098v-2.4855c0-0.35419-0.29382-0.64099-0.65407-0.64099h-1.2689c-0.16874-0.63332-0.42362-1.2385-0.74564-1.7921l0.90261-0.90261c0.25473-0.25473 0.26353-0.65216 0.01305-0.90261l-1.766-1.766c-0.25046-0.25045-0.64788-0.24165-0.90262 0.01305l-0.90262 0.90262c-0.55368-0.32202-1.1588-0.5769-1.7921-0.74564v-1.2689c0-0.36025-0.28679-0.65407-0.64098-0.65407h-2.4855zm1.2427 6.279c1.502 0 2.7209 1.219 2.7209 2.7209 0 1.502-1.219 2.7209-2.7209 2.7209s-2.7209-1.219-2.7209-2.7209c0-1.5019 1.219-2.7209 2.7209-2.7209z" display="block" fill="url(#linearGradient4427)"/>
  <path id="path4379" d="m-20.25 2c-0.3542 0-0.625 0.296-0.625 0.65625v1c0-0.36025 0.2708-0.65625 0.625-0.65625h2.5c0.35419 0 0.625 0.296 0.625 0.65625v-1c0-0.36025-0.27081-0.65625-0.625-0.65625h-2.5zm-3.7812 1.5625c-0.16482-0.00141-0.31227 0.062283-0.4375 0.1875l-1.7812 1.7812c-0.25045 0.25045-0.22347 0.62027 0.03125 0.875l0.03125 0.0625 1.7188-1.7188c0.12523-0.12522 0.27268-0.18891 0.4375-0.1875 0.16483 0.00139 0.31013 0.091387 0.4375 0.21875l0.90625 0.875c0.55368-0.32202 1.1792-0.55001 1.8125-0.71875v-1c-0.63332 0.16874-1.2588 0.39673-1.8125 0.71875l-0.90625-0.875c-0.12737-0.12736-0.27267-0.21736-0.4375-0.21875zm10.062 0c-0.1625 0.00273-0.31013 0.0914-0.4375 0.21875l-0.90625 0.875c-0.55368-0.32202-1.1792-0.55001-1.8125-0.71875v1c0.63332 0.16874 1.2588 0.39673 1.8125 0.71875l0.90625-0.875c0.25473-0.2547 0.62454-0.2817 0.875-0.03125l1.7188 1.7188 0.03125-0.0625c0.25473-0.25473 0.28173-0.62455 0.03125-0.875l-1.7812-1.7812c-0.12523-0.12522-0.275-0.19023-0.4375-0.1875zm-11.688 4.4375c-0.16222 0.35932-0.30355 0.73956-0.40625 1.125h-1.2812c-0.36025 0-0.65625 0.27081-0.65625 0.625v1c0-0.35419 0.296-0.625 0.65625-0.625h1.2812c0.16874-0.63332 0.39673-1.2588 0.71875-1.8125l-0.3125-0.3125zm13.312 0-0.3125 0.3125c0.32202 0.55368 0.55001 1.1792 0.71875 1.8125h1.2812c0.36024 0 0.65625 0.27081 0.65625 0.625v-1c0-0.35419-0.29601-0.625-0.65625-0.625h-1.2812c-0.1027-0.38544-0.24403-0.76568-0.40625-1.125zm-9.3125 3.5625c-0.02234 0.14028-0.0625 0.29097-0.0625 0.4375 0 1.502 1.2168 2.7188 2.7188 2.7188s2.7188-1.2168 2.7188-2.7188c0-0.14653-0.04016-0.29722-0.0625-0.4375-0.25385 1.2395-1.342 2.1562-2.6562 2.1562s-2.4024-0.91674-2.6562-2.1562zm-4 3.4375-0.5625 0.59375c-0.25473 0.25473-0.28172 0.62455-0.03125 0.875l0.0625 0.0625 0.84375-0.84375c-0.12604-0.21671-0.20817-0.45642-0.3125-0.6875zm13.312 0c-0.10433 0.23108-0.18646 0.47079-0.3125 0.6875l0.84375 0.84375 0.0625-0.0625c0.25045-0.25045 0.22345-0.62027-0.03125-0.875l-0.5625-0.59375z" display="block" opacity=".5"/>
  <path id="path4388" d="m-26.188 6.4688-0.0625 0.0625c-0.25045 0.25045-0.22347 0.62027 0.03125 0.875l0.5625 0.59375c0.10433-0.23108 0.18646-0.47079 0.3125-0.6875l-0.84375-0.84375zm14.375 0-0.84375 0.84375c0.12604 0.21671 0.20817 0.45642 0.3125 0.6875l0.5625-0.59375c0.25473-0.25473 0.28173-0.62455 0.03125-0.875l-0.0625-0.0625zm-7.1875 1.8125c-1.5019 0-2.7188 1.2168-2.7188 2.7187 0 0.14653 0.04016 0.29722 0.0625 0.4375 0.25385-1.2395 1.342-2.1562 2.6562-2.1562 1.3142 0 2.4024 0.91674 2.6562 2.1562 0.02234-0.14028 0.0625-0.29097 0.0625-0.4375 0-1.5019-1.2168-2.7187-2.7188-2.7187zm-9 3.9687v1c0 0.35419 0.296 0.625 0.65625 0.625h1.2812c0.1027 0.38544 0.24403 0.76568 0.40625 1.125l0.3125-0.3125c-0.32202-0.55368-0.55-1.1792-0.71875-1.8125h-1.2812c-0.36025 0-0.65625-0.27081-0.65625-0.625zm18 0c0 0.35419-0.29601 0.62501-0.65625 0.625h-1.2812c-0.16874 0.63332-0.39673 1.2588-0.71875 1.8125l0.3125 0.3125c0.16222-0.35932 0.30355-0.73956 0.40625-1.125h1.2812c0.36024 8e-6 0.65625-0.27081 0.65625-0.625v-1zm-16.188 4.2812-0.03125 0.0625c-0.25473 0.25473-0.28172 0.62455-0.03125 0.875l1.7812 1.7812c0.25045 0.25045 0.62027 0.22348 0.875-0.03125l0.90625-0.875c0.55368 0.32202 1.1792 0.55001 1.8125 0.71875v-1c-0.63332-0.16874-1.2588-0.39673-1.8125-0.71875l-0.90625 0.875c-0.25473 0.25473-0.62455 0.2817-0.875 0.03125l-1.7188-1.7188zm14.375 0-1.7188 1.7188c-0.25045 0.25046-0.62027 0.22348-0.875-0.03125l-0.90625-0.875c-0.55368 0.32202-1.1792 0.55001-1.8125 0.71875v1c0.63332-0.16874 1.2588-0.39673 1.8125-0.71875l0.90625 0.875c0.25473 0.25473 0.62455 0.28171 0.875 0.03125l1.7812-1.7812c0.25045-0.25045 0.22345-0.62027-0.03125-0.875l-0.03125-0.0625zm-9.0625 2.8125v1c0 0.36025 0.2708 0.65625 0.625 0.65625h2.5c0.35419 0 0.625-0.296 0.625-0.65625v-1c0 0.36025-0.27081 0.65625-0.625 0.65625h-2.5c-0.3542 0-0.625-0.296-0.625-0.65625z" display="block" fill="#fff" opacity=".3"/>
  <path id="rect3918" d="m5.5 1c-1.385 0-2.5 1.115-2.5 2.5v13c0 1.385 1.115 2.5 2.5 2.5h13c1.385 0 2.5-1.115 2.5-2.5v-13c0-1.385-1.115-2.5-2.5-2.5h-13zm0 1h13c0.831 0 1.5 0.669 1.5 1.5v13c0 0.831-0.669 1.5-1.5 1.5h-13c-0.831 0-1.5-0.669-1.5-1.5v-13c0-0.831 0.669-1.5 1.5-1.5z" fill="url(#linearGradient3182)" fill-rule="evenodd" opacity=".5"/>
  <rect id="rect3173" x="4" y="2" width="16" height="16" rx="1.5" ry="1.5" fill="url(#linearGradient3181)" fill-rule="evenodd" opacity=".75"/>
  <path id="rect3925" d="m4 16.5v1c0 0.831 0.669 1.5 1.5 1.5h13c0.831 0 1.5-0.669 1.5-1.5v-1c0 0.831-0.669 1.5-1.5 1.5h-13c-0.831 0-1.5-0.669-1.5-1.5z" fill-rule="evenodd" opacity=".2"/>
  <path id="rect3936" d="m20 3.5c0-0.831-0.669-1.5-1.5-1.5h-13c-0.831 0-1.5 0.669-1.5 1.5v13c0 0.831 0.669 1.5 1.5 1.5h13c0.831 0 1.5-0.669 1.5-1.5v-13zm-0.96875 0v13c0 0.31781-0.21344 0.53125-0.53125 0.53125h-13c-0.31781 0-0.53125-0.21344-0.53125-0.53125v-13c0-0.31781 0.21344-0.53125 0.53125-0.53125h13c0.31781 0 0.53125 0.21344 0.53125 0.53125z" fill="url(#linearGradient3955)" fill-rule="evenodd" opacity=".6"/>
  <path id="rect3957" d="m4 15.5v1c0 0.831 0.669 1.5 1.5 1.5h13c0.831 0 1.5-0.669 1.5-1.5v-1c0 0.831-0.669 1.5-1.5 1.5h-13c-0.831 0-1.5-0.669-1.5-1.5z" fill="url(#radialGradient3972)" fill-rule="evenodd" opacity=".35"/>
  <path id="path3120" d="m11.171 4.0001c-0.23613 0-0.42732 0.19588-0.42732 0.43604v0.84593c-0.42221 0.11249-0.82564 0.28241-1.1948 0.49709l-0.60174-0.60174c-0.084912-0.084908-0.18663-0.12988-0.29651-0.13081-0.10988-9.4e-4 -0.22175 0.038614-0.30523 0.12209l-1.1773 1.1773c-0.16697 0.16697-0.1611 0.43192 0.0087133 0.60174l0.60174 0.60174c-0.21468 0.36912-0.3846 0.77255-0.49709 1.1948h-0.84592c-0.24017 0-0.43605 0.1912-0.43605 0.42732v1.657c0 0.23613 0.19588 0.42732 0.43604 0.42732h0.84592c0.1125 0.42221 0.28242 0.82564 0.49709 1.1948l-0.60174 0.60174c-0.16982 0.16982-0.17569 0.43477-0.00871 0.60174l1.1773 1.1773c0.16697 0.16697 0.43192 0.1611 0.60174-0.0088l0.60174-0.60174c0.36912 0.21468 0.77255 0.3846 1.1948 0.49709v0.84592c0 0.24016 0.1912 0.43604 0.42732 0.43604h1.657c0.23613 0 0.42732-0.19588 0.42732-0.43604v-0.84592c0.42221-0.11249 0.82564-0.28241 1.1948-0.49709l0.60174 0.60174c0.16982 0.16982 0.43477 0.17569 0.60174 0.0087l1.1773-1.1773c0.16697-0.16697 0.1611-0.43192-0.0087-0.60174l-0.60174-0.60174c0.21468-0.36912 0.3846-0.77255 0.49709-1.1948h0.84593c0.2402 6e-6 0.43608-0.19119 0.43608-0.42732v-1.657c0-0.23613-0.19588-0.42732-0.43604-0.42732h-0.84593c-0.11253-0.42212-0.28245-0.82555-0.49712-1.1947l0.60174-0.60174c0.16982-0.16982 0.17569-0.43477 0.0087-0.60174l-1.1773-1.1773c-0.16697-0.16697-0.43192-0.1611-0.60174 0.0087l-0.60178 0.60174c-0.36912-0.21468-0.77255-0.3846-1.1948-0.49709v-0.84592c0-0.24017-0.1912-0.43604-0.42732-0.43604h-1.657zm0.82848 4.186c1.0013 0 1.8139 0.81265 1.8139 1.8139 0 1.0013-0.81265 1.8139-1.8139 1.8139s-1.8139-0.81264-1.8139-1.8139c0-1.0013 0.81265-1.8139 1.8139-1.8139z" display="block" fill="url(#linearGradient3122)"/>
  <path id="path3124" transform="translate(0,-2)" d="m11.156 6c-0.23613 0-0.40625 0.19734-0.40625 0.4375v0.84375c-0.42221 0.11249-0.81838 0.28532-1.1875 0.5l-0.625-0.59375c-0.084912-0.084908-0.17137-0.15532-0.28125-0.15625-0.10988-9.4e-4 -0.22902 0.041522-0.3125 0.125l-1.1875 1.1875c-0.16697 0.16697-0.13856 0.42393 0.03125 0.59375l0.1875 0.1875 0.96875-0.96875c0.083484-0.083478 0.20262-0.12594 0.3125-0.125 0.10988 9.3e-4 0.19634 0.071342 0.28125 0.15625l0.625 0.59375c0.36912-0.21468 0.76529-0.38751 1.1875-0.5v-0.84375c0-0.24016 0.17012-0.4375 0.40625-0.4375h1.6875c0.23613 0 0.40625 0.19733 0.40625 0.4375v0.84375c0.42221 0.11249 0.81838 0.28532 1.1875 0.5l0.625-0.59375c0.16982-0.1698 0.42678-0.19822 0.59375-0.03125l0.96875 0.96875 0.1875-0.1875c0.16982-0.16982 0.19824-0.42678 0.03125-0.59375l-1.1875-1.1875c-0.16697-0.16697-0.42393-0.13855-0.59375 0.03125l-0.625 0.59375c-0.36912-0.21468-0.76529-0.38751-1.1875-0.5v-0.84375c0-0.24017-0.17012-0.4375-0.40625-0.4375h-1.6875zm-3.6875 4.2188c-0.067662 0.17161-0.13964 0.35164-0.1875 0.53125h-0.84375c-0.24017 0-0.4375 0.17012-0.4375 0.40625v1c0-0.23613 0.19733-0.40625 0.4375-0.40625h0.84375c0.1125-0.42221 0.28532-0.81838 0.5-1.1875l-0.3125-0.34375zm9.0625 0-0.3125 0.34375c0.21468 0.36912 0.38747 0.76538 0.5 1.1875h0.84375c0.24016 0 0.4375 0.17012 0.4375 0.40625v-1c0-0.23613-0.19734-0.40625-0.4375-0.40625h-0.84375c-0.047868-0.17957-0.11983-0.35965-0.1875-0.53125zm-6.2812 2.2812c-0.043307 0.15526-0.0625 0.33099-0.0625 0.5 0 1.0013 0.8112 1.8125 1.8125 1.8125s1.8125-0.8112 1.8125-1.8125c0-0.16901-0.019193-0.34474-0.0625-0.5-0.21326 0.76457-0.91772 1.3125-1.75 1.3125s-1.5367-0.54793-1.75-1.3125zm-2.7812 2.2812-0.28125 0.28125c-0.16982 0.16982-0.19823 0.42678-0.03125 0.59375l0.21875 0.21875 0.40625-0.4375c-0.12336-0.2121-0.2211-0.42444-0.3125-0.65625zm9.0625 0c-0.091396 0.23181-0.18914 0.44415-0.3125 0.65625l0.40625 0.4375 0.21875-0.21875c0.16697-0.16697 0.13855-0.42393-0.03125-0.59375l-0.28125-0.28125z" display="block" opacity=".5"/>
  <path id="path3901" transform="translate(0,-2)" d="m7.375 9.125-0.21875 0.21875c-0.16697 0.16697-0.13856 0.42393 0.03125 0.59375l0.28125 0.28125c0.091397-0.23181 0.18914-0.44415 0.3125-0.65625l-0.40625-0.4375zm9.25 0-0.40625 0.4375c0.12336 0.2121 0.2211 0.42446 0.3125 0.65625l0.28125-0.28125c0.16982-0.16982 0.19824-0.42678 0.03125-0.59375l-0.21875-0.21875zm-4.625 1.0625c-1.0013 0-1.8125 0.8112-1.8125 1.8125 0 0.16902 0.019193 0.34474 0.0625 0.5 0.21326-0.76457 0.91772-1.3125 1.75-1.3125 0.83228 0 1.5367 0.54793 1.75 1.3125 0.043307-0.15526 0.0625-0.33098 0.0625-0.5 0-1.0013-0.8112-1.8125-1.8125-1.8125zm-6 2.6562v1c0 0.23613 0.19734 0.40625 0.4375 0.40625h0.84375c0.047855 0.1796 0.11984 0.35964 0.1875 0.53125l0.3125-0.34375c-0.21468-0.36912-0.3875-0.76529-0.5-1.1875h-0.84375c-0.24016 0-0.4375-0.17012-0.4375-0.40625zm12 0c0 0.23613-0.1973 0.40626-0.4375 0.40625h-0.84375c-0.11249 0.42221-0.28532 0.81838-0.5 1.1875l0.3125 0.34375c0.067661-0.17161 0.13965-0.35164 0.1875-0.53125h0.84375c0.2402 6e-6 0.4375-0.17012 0.4375-0.40625v-1zm-10.625 3.0312-0.1875 0.1875c-0.16982 0.16982-0.19823 0.42678-0.03125 0.59375l1.1875 1.1875c0.16697 0.16697 0.42393 0.13865 0.59375-0.03125l0.625-0.59375c0.36912 0.21468 0.76529 0.38751 1.1875 0.5v0.84375c0 0.24016 0.17012 0.4375 0.40625 0.4375h1.6875c0.23613 0 0.40625-0.19734 0.40625-0.4375v-0.84375c0.42221-0.11249 0.81838-0.28532 1.1875-0.5l0.625 0.59375c0.16982 0.16982 0.42678 0.19824 0.59375 0.03125l1.1875-1.1875c0.16697-0.16697 0.13855-0.42393-0.03125-0.59375l-0.1875-0.1875-0.96875 0.96875c-0.16697 0.16699-0.42393 0.13857-0.59375-0.03125l-0.625-0.59375c-0.36912 0.21468-0.76529 0.38751-1.1875 0.5v0.84375c0 0.24016-0.17012 0.4375-0.40625 0.4375h-1.6875c-0.23613 0-0.40625-0.19734-0.40625-0.4375v-0.84375c-0.42221-0.11249-0.81838-0.28532-1.1875-0.5l-0.625 0.59375c-0.16982 0.1699-0.42678 0.19822-0.59375 0.03125l-0.96875-0.96875z" display="block" fill="#fff" opacity=".5"/>
 </g>
</svg>
