<?xml version="1.0" encoding="UTF-8"?>
<svg id="svg29" width="16" height="16" version="1.1" xmlns="http://www.w3.org/2000/svg" xmlns:cc="http://creativecommons.org/ns#" xmlns:dc="http://purl.org/dc/elements/1.1/" xmlns:rdf="http://www.w3.org/1999/02/22-rdf-syntax-ns#">
 <metadata id="metadata33">
  <rdf:RDF>
   <cc:Work rdf:about="">
    <dc:format>image/svg+xml</dc:format>
    <dc:type rdf:resource="http://purl.org/dc/dcmitype/StillImage"/>
   </cc:Work>
  </rdf:RDF>
 </metadata>
 <defs id="defs7">
  <linearGradient id="gr0" x1="8" x2="8" y1="1" y2="15" gradientUnits="userSpaceOnUse">
   <stop id="stop2" stop-color="#ebebeb" offset="0"/>
   <stop id="stop4" stop-color="#aaa" offset="1"/>
  </linearGradient>
 </defs>
 <path id="path9" d="m6.97 0.00195c-3.91 0-7.04 3.34-6.97 6.74 0.0291 1.43 0.28 1.77 0.465 2.46 0.016 0.09 0.033 0.209 0.082 0.362l0.426 1.34c0.449 1.42 1.85 2.42 3.3 2.01 0.138 0 0.167-0.19 0.289-0.25-0.334 0.36-0.564 0.82-0.564 1.34 0 1.09 0.909 2 2 2h2c0.704 0 1.22-0.44 1.58-1h2.42c1.64 0 3-1.35 3-3v-3a1 1 0 0 0-1-1h-0.2c0.1-0.373 0.2-0.508 0.2-1.19 0-3.34-2.92-6.5-6.63-6.73a1 1 0 0 0-0.4-0.084zm-0.031 1c3.28 0.015 6 2.99 6 5.81 0 1.34-0.17 1.57-0.36 2.19h1.36v3c0 1.11-0.89 2-2 2h-3c0 0.56-0.446 1-1 1h-2c-0.554 0-1-0.44-1-1 0-0.55 0.446-1 1-1h6c0.56 0 1-0.44 1-1v-2h-0.69l-0.17 0.602c-0.32 0.98-1.24 1.58-2.09 1.35-0.842-0.23-1.26-1.21-0.953-2.2l0.428-1.35c0.288-0.909 1.1-1.48 1.89-1.38 0.1-0.338 0.1 0.306 0.1-0.121 0.01-2.45-2.01-4.38-4.5-4.38-2.44 0-4.41 1.88-4.48 4.2 0.01-0.014 0.021 0.015 0.041 0.322 0.818-0.179 1.7 0.406 2 1.36l0.426 1.35c0.312 0.988-0.112 1.97-0.951 2.2-0.838 0.23-1.76-0.37-2.08-1.35l-0.426-1.35c-0.03-0.093-0.04-0.185-0.06-0.275-0.219-0.837-0.408-0.905-0.438-2.26-0.0554-2.7 2.65-5.71 5.94-5.72zm0.031 2.53c1.76 0 3.11 1.2 3.38 2.82-0.803 0.315-1.5 0.876-1.78 1.76l-0.425 1.34c-0.298 0.939 0.03 1.84 0.603 2.55h-2.75c-0.333 0-0.638 0.1-0.91 0.26 0.789-0.67 1.16-1.75 0.82-2.81l-0.426-1.34c-0.293-0.925-1.04-1.49-1.89-1.78 0.268-1.56 1.62-2.79 3.38-2.79z" opacity=".25"/>
 <path id="base" d="m6.97 1c-3.3 0-6.02 3.01-5.97 5.72 0.0276 1.36 0.22 1.42 0.439 2.26 0.0166 0.0919 0.0331 0.183 0.0625 0.275l0.426 1.34c0.312 0.983 1.24 1.59 2.08 1.35 0.839-0.234 1.26-1.21 0.951-2.2l-0.426-1.34c-0.303-0.953-1.18-1.54-2-1.36-0.0227-0.307-0.0336-0.336-0.041-0.322 0.0672-2.32 2.04-4.19 4.48-4.19 2.48 0 4.5 1.92 4.49 4.38-6e-3 0.427-0.0212-0.217-0.0527 0.121-0.784-0.103-1.6 0.472-1.89 1.38l-0.426 1.34c-0.312 0.983 0.112 1.96 0.951 2.2 0.839 0.234 1.77-0.369 2.08-1.35l0.189-0.598h0.686v2c0 0.554-0.446 1-1 1h-6c-0.554 0-1 0.446-1 1s0.446 1 1 1h2c0.554 0 1-0.446 1-1h3c1.11 0 2-0.892 2-2v-3h-1.37c0.2-0.614 0.375-0.845 0.375-2.19 0-2.83-2.73-5.81-6.03-5.81z" fill="url(#gr0)"/>
 <path id="path17" d="m6.96 2.53c-2.44 0-4.41 1.88-4.48 4.2 0.01-0.014 0.021 0.015 0.041 0.322 0.017-4e-3 0.034-3e-3 0.051-6e-3 0.395-1.99 2.2-3.51 4.39-3.51 2.17 0 3.99 1.47 4.41 3.48 0.09-0.247 0.09 0.305 0.09-0.104 0.01-2.45-2.01-4.38-4.5-4.38zm-5.94 4.64c-0.02 0.184-0.0306 0.368-0.0269 0.551 0.0299 1.36 0.219 1.42 0.438 2.26 0.02 0.091 0.03 0.181 0.06 0.281l0.426 1.34c0.313 0.98 1.24 1.58 2.08 1.35 0.797-0.22 1.21-1.12 0.984-2.05-0.137 0.51-0.485 0.91-0.984 1.05-0.838 0.23-1.76-0.37-2.08-1.35l-0.426-1.35c-0.03-0.093-0.04-0.185-0.06-0.275-0.189-0.721-0.349-0.919-0.411-1.81zm11.9 0.268c-0.05 0.789-0.19 1.07-0.34 1.56h0.28c0.05-0.282 0.08-0.626 0.08-1.19 0-0.125-0.01-0.251-0.02-0.376zm-0.67 2.56-0.17 0.602c-0.32 0.98-1.24 1.58-2.09 1.35-0.501-0.14-0.848-0.54-0.986-1.05-0.228 0.93 0.186 1.83 0.986 2.05 0.848 0.23 1.77-0.37 2.09-1.35l0.17-0.6h0.69v-1h-0.69zm1.69 2c0 1.11-0.89 2-2 2h-3c0 0.56-0.446 1-1 1h-2c-0.367 0-0.674-0.2-0.847-0.5-0.088 0.15-0.153 0.32-0.153 0.5 0 0.56 0.446 1 1 1h2c0.554 0 1-0.44 1-1h3c1.11 0 2-0.89 2-2v-1z" opacity=".45"/>
 <path id="path24" d="m6.92 1c9e-3 0 0.017 2e-3 0.025 2e-3 9e-3 0 0.017-2e-3 0.026-2e-3h-0.051zm0.025 2e-3c-3.29 0.015-6 3.01-5.94 5.72 4e-3 0.189 0.017 0.306 0.027 0.451 0.285-2.55 2.84-5.15 5.91-5.17-8e-3 0-0.016-2e-3 -0.025-2e-3h0.051c-9e-3 0-0.017 2e-3 -0.026 2e-3 3.15 0.015 5.76 2.73 5.99 5.43 0.01-0.185 0.02-0.369 0.02-0.624 0-2.82-2.72-5.8-6.01-5.81zm4.43 6.01c0 0.011-0.01 3e-3 -0.01 0.017-0.79-0.102-1.6 0.472-1.89 1.38l-0.426 1.35c-0.127 0.396-0.128 0.796-0.033 1.15 0.012-0.05 0.017-0.1 0.033-0.15l0.426-1.34c0.288-0.909 1.1-1.48 1.89-1.38 0.1-0.338 0.1 0.306 0.1-0.121 0-0.308-0.03-0.608-0.09-0.896zm-8.53 6e-3c-0.086-1e-3 -0.172 0.012-0.258 0.027-0.044 0.224-0.085 0.449-0.092 0.684 0.01-0.014 0.021 0.015 0.041 0.322 0.818-0.179 1.7 0.406 2 1.36l0.426 1.34c0.016 0.05 0.021 0.1 0.033 0.15 0.094-0.35 0.093-0.75-0.033-1.15l-0.426-1.35c-0.265-0.834-0.972-1.39-1.69-1.39zm10 1.99c-0.07 0.392-0.17 0.642-0.29 0.998h1.37v-0.998h-1.08zm0.08 3c0 0.56-0.45 1-1 1h-6c-0.554 0-1 0.45-1 1 0 0.19 0.065 0.35 0.153 0.5 0.173-0.29 0.479-0.5 0.847-0.5h6c0.55 0 1-0.44 1-1v-1z" fill="#fff" opacity=".6"/>
</svg>
