<?xml version="1.0" encoding="UTF-8"?>
<svg id="svg29" width="16" height="16" version="1.1" xmlns="http://www.w3.org/2000/svg" xmlns:cc="http://creativecommons.org/ns#" xmlns:dc="http://purl.org/dc/elements/1.1/" xmlns:rdf="http://www.w3.org/1999/02/22-rdf-syntax-ns#">
 <metadata id="metadata33">
  <rdf:RDF>
   <cc:Work rdf:about="">
    <dc:format>image/svg+xml</dc:format>
    <dc:type rdf:resource="http://purl.org/dc/dcmitype/StillImage"/>
   </cc:Work>
  </rdf:RDF>
 </metadata>
 <defs id="defs7">
  <linearGradient id="gr0" x1="8" x2="8" y1="4" y2="12" gradientUnits="userSpaceOnUse">
   <stop id="stop2" stop-color="#ebebeb" offset="0"/>
   <stop id="stop4" stop-color="#aaa" offset="1"/>
  </linearGradient>
 </defs>
 <path id="path9" d="m2 3c-1.09 0-2 0.909-2 2v5c0 1.09 0.909 2 2 2h0.211c0.224 0.55 0.668 1 1.29 1h2c0.621 0 1.06-0.45 1.29-1h2.42c0.224 0.55 0.668 1 1.29 1h2c0.62 0 1.06-0.45 1.29-1h0.21c1.09 0 2-0.91 2-2v-5c0-1.09-0.91-2-2-2h-12zm0 1h12c0.55 0 1 0.446 1 1v5c0 0.55-0.45 1-1 1h-1v0.5c0 0.28-0.22 0.5-0.5 0.5h-2c-0.28 0-0.5-0.22-0.5-0.5v-0.5h-4v0.5c0 0.28-0.223 0.5-0.5 0.5h-2c-0.277 0-0.5-0.22-0.5-0.5v-0.5h-1c-0.554 0-1-0.45-1-1v-5c0-0.554 0.446-1 1-1zm0.5 1c-0.277 0-0.5 1.12-0.5 2.5s0.223 2.5 0.5 2.5 0.5-1.12 0.5-2.5-0.223-2.5-0.5-2.5zm2 0c-0.277 0-0.5 1.12-0.5 2.5s0.223 2.5 0.5 2.5 0.5-1.12 0.5-2.5-0.223-2.5-0.5-2.5zm7 0c-1.38 0-2.5 1.12-2.5 2.5s1.12 2.5 2.5 2.5 2.5-1.12 2.5-2.5-1.12-2.5-2.5-2.5zm0 1a1.5 1.5 0 0 1 1.5 1.5 1.5 1.5 0 0 1-1.5 1.5 1.5 1.5 0 0 1-1.5-1.5 1.5 1.5 0 0 1 1.5-1.5z" opacity=".25"/>
 <path id="base" d="m2 4c-.554 0-1 .446-1 1v5c0 .554.446 1 1 1h1v.5c0 .277.223.5.5.5h2c.277 0 .5-.223.5-.5v-.5h4v.5c0 .277.223.5.5.5h2c.277 0 .5-.223.5-.5v-.5h1c.554 0 1-.446 1-1v-5c0-.554-.446-1-1-1zm.5 1c.277 0 .5 1.115.5 2.5s-.223 2.5-.5 2.5-.5-1.115-.5-2.5.223-2.5.5-2.5zm2 0c.277 0 .5 1.115.5 2.5s-.223 2.5-.5 2.5-.5-1.115-.5-2.5.223-2.5.5-2.5zm7 0c1.3807 0 2.5 1.1193 2.5 2.5s-1.1193 2.5-2.5 2.5-2.5-1.1193-2.5-2.5 1.1193-2.5 2.5-2.5zm0 1a1.5 1.5 0 0 0 -1.5 1.5 1.5 1.5 0 0 0 1.5 1.5 1.5 1.5 0 0 0 1.5 -1.5 1.5 1.5 0 0 0 -1.5 -1.5z" fill="url(#gr0)"/>
 <path id="path17" d="m2.5 5c-0.277 0-0.5 1.12-0.5 2.5 0 0.178 0.013 0.333 0.02 0.5 0.047-1.14 0.239-2 0.48-2s0.433 0.865 0.48 2c7e-3 -0.167 0.02-0.322 0.02-0.5 0-1.38-0.223-2.5-0.5-2.5zm2 0c-0.277 0-0.5 1.12-0.5 2.5 0 0.178 0.013 0.333 0.02 0.5 0.047-1.14 0.239-2 0.48-2s0.433 0.865 0.48 2c7e-3 -0.167 0.02-0.322 0.02-0.5 0-1.38-0.223-2.5-0.5-2.5zm7 0c-1.38 0-2.5 1.12-2.5 2.5 0 0.17 0.018 0.336 0.051 0.496 0.213-1.04 1.08-1.83 2.15-1.96a1.5 1.5 0 0 1 0-2e-3 1.5 1.5 0 0 1 0.3-0.029 1.5 1.5 0 0 1 0.29 0.029c1.07 0.126 1.95 0.921 2.16 1.97 0.03-0.16 0.05-0.326 0.05-0.496 0-1.38-1.12-2.5-2.5-2.5zm-1.41 3a1.5 1.5 0 0 0-0.09 0.5 1.5 1.5 0 0 0 1.21 1.47c0.1 0.011 0.19 0.029 0.29 0.029s0.2-0.017 0.3-0.029a1.5 1.5 0 0 0 0-2e-3 1.5 1.5 0 0 0 1.2-1.47 1.5 1.5 0 0 0-0.09-0.5 1.5 1.5 0 0 1-1.41 1 1.5 1.5 0 0 1-1.41-1zm-9.09 2v1c0 0.55 0.446 1 1 1h1v0.5c0 0.28 0.223 0.5 0.5 0.5h2c0.277 0 0.5-0.22 0.5-0.5v-0.5h4v0.5c0 0.28 0.22 0.5 0.5 0.5h2c0.28 0 0.5-0.22 0.5-0.5v-0.5h1c0.55 0 1-0.45 1-1v-1c0 0.55-0.45 1-1 1h-1v0.5c0 0.28-0.22 0.5-0.5 0.5h-2c-0.28 0-0.5-0.22-0.5-0.5v-0.5h-4v0.5c0 0.28-0.223 0.5-0.5 0.5h-2c-0.277 0-0.5-0.22-0.5-0.5v-0.5h-1c-0.554 0-1-0.45-1-1z" opacity=".45"/>
 <path id="path24" d="m2 4c-0.554 0-1 0.446-1 1v1c0-0.554 0.446-1 1-1h12c0.55 0 1 0.446 1 1v-1c0-0.554-0.45-1-1-1h-12zm9.5 2c-0.1 0-0.2 0.017-0.3 0.029a1.5 1.5 0 0 0 0 2e-3 1.5 1.5 0 0 0-1.2 1.47 1.5 1.5 0 0 0 0.09 0.5 1.5 1.5 0 0 1 1.41-1 1.5 1.5 0 0 1 1.41 1 1.5 1.5 0 0 0 0.09-0.5 1.5 1.5 0 0 0-1.21-1.47c-0.1-0.011-0.19-0.029-0.29-0.029zm-9.48 2c-7e-3 0.167-0.02 0.322-0.02 0.5 0 1.38 0.223 2.5 0.5 2.5s0.5-1.12 0.5-2.5c0-0.178-0.013-0.333-0.02-0.5-0.047 1.14-0.239 2-0.48 2s-0.433-0.865-0.48-2zm2 0c-7e-3 0.167-0.02 0.322-0.02 0.5 0 1.38 0.223 2.5 0.5 2.5s0.5-1.12 0.5-2.5c0-0.178-0.013-0.333-0.02-0.5-0.047 1.14-0.239 2-0.48 2s-0.433-0.865-0.48-2zm5.03 4e-3c-0.033 0.16-0.051 0.326-0.051 0.496 0 1.38 1.12 2.5 2.5 2.5s2.5-1.12 2.5-2.5c0-0.17-0.02-0.336-0.05-0.496-0.21 1.04-1.08 1.83-2.15 1.96a1.5 1.5 0 0 1 0 2e-3 1.5 1.5 0 0 1-0.3 0.029 1.5 1.5 0 0 1-0.29-0.029c-1.07-0.126-1.94-0.921-2.16-1.97z" fill="#fff" opacity=".6"/>
</svg>
