<?xml version="1.0" encoding="UTF-8"?>
<svg id="svg2" width="16" height="16" version="1.0" xmlns="http://www.w3.org/2000/svg" xmlns:cc="http://creativecommons.org/ns#" xmlns:dc="http://purl.org/dc/elements/1.1/" xmlns:rdf="http://www.w3.org/1999/02/22-rdf-syntax-ns#" xmlns:xlink="http://www.w3.org/1999/xlink">
 <defs id="defs4">
  <radialGradient id="radialGradient4138" cx="48" cy="84" r="30" gradientTransform="matrix(.234 0 0 .0416 -3.24 9.31)" gradientUnits="userSpaceOnUse">
   <stop id="stop3315" stop-color="#4dbeff" offset="0"/>
   <stop id="stop4186" stop-color="#1379ff" stop-opacity=".902" offset=".672"/>
   <stop id="stop3317" stop-color="#06f" stop-opacity="0" offset="1"/>
  </radialGradient>
  <linearGradient id="linearGradient3322">
   <stop id="stop3324" stop-color="#7a7a7a" offset="0"/>
   <stop id="stop3326" stop-color="#f9f9f9" offset=".203"/>
   <stop id="stop3328" stop-color="#c9c9c9" offset=".43"/>
   <stop id="stop3632" stop-color="#dedede" stop-opacity="0" offset="1"/>
  </linearGradient>
  <linearGradient id="linearGradient4327">
   <stop id="stop4329" stop-color="#f0f0f0" offset="0"/>
   <stop id="stop4331" stop-color="#b4b4b4" offset="1"/>
  </linearGradient>
  <linearGradient id="linearGradient3204" x1="1" x2="15" y1="9" y2="9" gradientTransform="translate(-16,-1)" gradientUnits="userSpaceOnUse">
   <stop id="stop3189" stop-color="#29669f" offset="0"/>
   <stop id="stop3191" stop-color="#88b6e0" offset="1"/>
  </linearGradient>
  <linearGradient id="linearGradient2707" x1="-3.06" x2="-3.06" y1="23.3" y2="12.2" gradientTransform="translate(10.1 -23.3)" gradientUnits="userSpaceOnUse" xlink:href="#linearGradient4327"/>
  <linearGradient id="linearGradient3507" x2="5.35" y1="10" y2="10" gradientUnits="userSpaceOnUse" xlink:href="#linearGradient3322"/>
  <linearGradient id="linearGradient3511" x2="5.35" y1="10" y2="10" gradientTransform="matrix(-1,0,0,1,16,0)" gradientUnits="userSpaceOnUse" xlink:href="#linearGradient3322"/>
  <linearGradient id="linearGradient3537" x1="6.68" x2="6.68" y1="16" y2="-.00388" gradientUnits="userSpaceOnUse">
   <stop id="stop3533" stop-color="#020202" offset="0"/>
   <stop id="stop3535" stop-color="#a8a8a8" offset="1"/>
  </linearGradient>
  <linearGradient id="linearGradient3563" x1="-5.75" x2="-.937" y1="12.2" y2="22.7" gradientTransform="matrix(1 0 0 -1 10.1 23.3)" gradientUnits="userSpaceOnUse">
   <stop id="stop3222" stop-color="#fff" offset="0"/>
   <stop id="stop3224" stop-color="#bfbfbf" stop-opacity="0" offset="1"/>
  </linearGradient>
  <linearGradient id="linearGradient3672" x1="-3.06" x2="-3.06" y1="23.3" y2="12.2" gradientTransform="translate(10.1 -43.3)" gradientUnits="userSpaceOnUse" xlink:href="#linearGradient4327"/>
  <linearGradient id="linearGradient3767-6">
   <stop id="stop3769-8" stop-color="#4d4d4d" stop-opacity=".707" offset="0"/>
   <stop id="stop3771-9" stop-color="#4d4d4d" stop-opacity=".252" offset="1"/>
  </linearGradient>
  <clipPath id="clipPath3710">
   <path id="path3712" d="m-18 0.0312c-1.11 0-2 0.892-2 2v7c0 1.11 0.892 2 2 2h12c1.11 0 2-0.892 2-2v-7c0-1.11-0.892-2-2-2h-12zm8.91 1.97 1.47 1.25-1.84 1.56-1.44-1.25 1.81-1.56zm-5.53 0.0625 0.531 0.469-1.66 1.44-0.562-0.469 1.69-1.44zm1.09 0.938 0.562 0.5-1.66 1.41-0.562-0.469 1.66-1.44zm1.53 1.22c0.983 0 1.78 0.684 1.78 1.53s-0.798 1.56-1.78 1.56c-0.984-9.8e-5 -1.78-0.715-1.78-1.56s0.798-1.53 1.78-1.53zm0 0.688c-0.551 0-1 0.369-1 0.844-1.13e-4 0.475 0.449 0.875 1 0.875 0.551 0 1-0.4 1-0.875 0-0.474-0.449-0.844-1-0.844zm-1.16 3.06h2.34v0.688h-2.34v-0.688zm0 1.34h2.34v0.688h-2.34v-0.688z" fill="url(#linearGradient3714)" fill-rule="evenodd"/>
  </clipPath>
  <linearGradient id="linearGradient3714" x1="-3.06" x2="-3.06" y1="23.3" y2="12.2" gradientTransform="matrix(1 0 0 -1 -9.9 23.3)" gradientUnits="userSpaceOnUse" xlink:href="#linearGradient4327"/>
  <filter id="filter3716" x="-.115" y="-.125" width="1.23" height="1.25">
   <feGaussianBlur id="feGaussianBlur3718" stdDeviation="0.4166667"/>
  </filter>
  <linearGradient id="linearGradient2927" x1="85" x2="16.9" y1="66" y2="66" gradientTransform="matrix(0 .118 -.135 0 -3.06 0)" gradientUnits="userSpaceOnUse" xlink:href="#linearGradient3767-6"/>
  <linearGradient id="linearGradient3723" x1="85" x2="16.9" y1="66" y2="66" gradientTransform="matrix(0 .118 -.135 0 16.9 0)" gradientUnits="userSpaceOnUse" xlink:href="#linearGradient3767-6"/>
  <clipPath id="clipPath3737">
   <path id="path3739" d="m22 0.0312c-1.11 0-2 0.892-2 2v7c0 1.11 0.892 2 2 2h12c1.11 0 2-0.892 2-2v-7c0-1.11-0.892-2-2-2h-12zm3.03 1.97 1.81 1.56-1.44 1.25-1.84-1.56 1.47-1.25zm5.88 0 1.47 1.25-1.84 1.56-1.44-1.25 1.81-1.56zm-2.91 2.22c0.983 0 1.78 0.684 1.78 1.53s-0.798 1.56-1.78 1.56c-0.984-9.8e-5 -1.78-0.715-1.78-1.56s0.798-1.53 1.78-1.53zm0 0.688c-0.551 0-1 0.369-1 0.844-1.14e-4 0.475 0.449 0.875 1 0.875 0.551 0 1-0.4 1-0.875 0-0.474-0.449-0.844-1-0.844zm-0.969 3.09h2v2h-2v-2z" fill="url(#linearGradient3741)" fill-rule="evenodd"/>
  </clipPath>
  <linearGradient id="linearGradient3741" x1="-3.06" x2="-3.06" y1="23.3" y2="12.2" gradientTransform="matrix(1 0 0 -1 30.1 23.3)" gradientUnits="userSpaceOnUse" xlink:href="#linearGradient4327"/>
  <filter id="filter3743" x="-.114" y="-.126" width="1.23" height="1.25">
   <feGaussianBlur id="feGaussianBlur3745" stdDeviation="0.4203125"/>
  </filter>
 </defs>
 <metadata id="metadata7">
  <rdf:RDF>
   <cc:Work rdf:about="">
    <dc:format>image/svg+xml</dc:format>
    <dc:type rdf:resource="http://purl.org/dc/dcmitype/StillImage"/>
   </cc:Work>
  </rdf:RDF>
 </metadata>
 <g id="layer1">
  <rect id="rect3196" transform="rotate(-90)" x="-15" y="1" width="14" height="14" rx="2" ry="2" fill="url(#linearGradient3204)"/>
  <path id="rect2401" d="m3 1c-1.11 0-2 0.892-2 2v10c0 1.11 0.892 2 2 2h10c1.11 0 2-0.892 2-2v-10c0-1.11-0.892-2-2-2h-10zm0 1h10c0.576 0 1 0.424 1 1v10c0 0.576-0.424 1-1 1h-10c-0.576 0-1-0.424-1-1v-10c0-0.576 0.424-1 1-1z" fill="#2b6090"/>
  <path id="rect3183" d="m-25 7c-1.11 0-2 0.892-2 2v1c0-1.11 0.892-2 2-2h16c1.11 0 2 0.892 2 2v-1c0-1.11-0.892-2-2-2h-16z" fill="#fff" fill-rule="evenodd" opacity=".25"/>
  <rect id="rect4177" transform="scale(1,-1)" y="-16" width="16" height="12" rx="2" ry="2" fill="#cacaca" fill-rule="evenodd"/>
  <path id="rect2726" d="m2 4c-1.11 0-2 0.892-2 2v8c0 1.11 0.892 2 2 2h3v-12h-3z" fill="url(#linearGradient3507)" fill-rule="evenodd"/>
  <path id="path3509" d="m14 4c1.11 0 2 0.892 2 2v8c0 1.11-0.892 2-2 2h-3v-12h3z" fill="url(#linearGradient3511)" fill-rule="evenodd"/>
  <path id="rect3513" d="m0 10v2c0 1.11 0.892 2 2 2h12c1.11 0 2-0.892 2-2v-2c0 1.11-0.892 2-2 2h-12c-1.11 0-2-0.892-2-2z" fill="#282828" fill-rule="evenodd"/>
  <path id="path3518" d="m0 10v1c0 1.11 0.892 2 2 2h12c1.11 0 2-0.892 2-2v-1c0 1.11-0.892 2-2 2h-12c-1.11 0-2-0.892-2-2z" fill="#0f0f0f" fill-rule="evenodd"/>
 </g>
 <g id="layer2" fill-rule="evenodd">
  <rect id="rect3173" transform="scale(1,-1)" x="-.0177" y="-11" width="16" height="11" rx="2" ry="2" fill="url(#linearGradient2707)"/>
  <path id="rect3539" d="m1.97 0.0312c-1.11 0-2 0.892-2 2v7c0 1.11 0.892 2 2 2h12c1.11 0 2-0.892 2-2v-7c0-1.11-0.892-2-2-2h-12zm0.781 1h10.4c0.498 0 0.875 0.428 0.875 1v7c0 0.572-0.377 1-0.875 1h-10.4c-0.498 0-0.875-0.428-0.875-1v-7c-1e-7 -0.572 0.377-1 0.875-1z" fill="url(#linearGradient3563)"/>
 </g>
 <g id="layer5">
  <path id="rect3524" d="m2 0c-1.11 0-2 0.892-2 2v12c0 1.11 0.892 2 2 2h12c1.11 0 2-0.892 2-2v-12c0-1.11-0.892-2-2-2h-12zm0 1h12c0.575 0 1 0.425 1 1v12c0 0.575-0.425 1-1 1h-12c-0.575 0-1-0.425-1-1v-12c0-0.575 0.425-1 1-1z" fill="url(#linearGradient3537)" opacity=".5"/>
 </g>
 <g id="layer4">
  <rect id="rect3311" x=".969" y="11.6" width="14" height="2.49" rx="1.28" ry="2.49" fill="url(#radialGradient4138)"/>
 </g>
 <g id="layer3">
  <path id="path3730" transform="translate(-20)" d="m25 2-1.47 1.25 1.84 1.56 1.44-1.25-1.81-1.56zm5.88 0-1.81 1.56 1.44 1.25 1.84-1.56-1.47-1.25zm-2.91 2.22c-0.984 0-1.78 0.684-1.78 1.53 0 0.847 0.798 1.56 1.78 1.56 0.984 0 1.78-0.715 1.78-1.56s-0.798-1.53-1.78-1.53zm0 0.688c0.551 0 1 0.369 1 0.844 0 0.475-0.449 0.875-1 0.875-0.551 0-1-0.4-1-0.875 0-0.474 0.449-0.844 1-0.844zm-0.969 3.09v2h2v-2h-2z" clip-path="url(#clipPath3737)" fill="none" filter="url(#filter3743)" opacity=".6" stroke="#fff"/>
  <rect id="rect3667" transform="scale(1,-1)" x="-.0177" y="-31" width="16" height="11" rx="2" ry="2" fill="url(#linearGradient3672)" fill-rule="evenodd"/>
  <path id="path2935" d="m5 2-1.47 1.25 1.84 1.56 1.44-1.25-1.81-1.56zm5.88 0-1.81 1.56 1.44 1.25 1.84-1.56-1.47-1.25zm-2.91 2.22c-0.984 0-1.78 0.684-1.78 1.53 0 0.847 0.798 1.56 1.78 1.56 0.984 0 1.78-0.715 1.78-1.56s-0.798-1.53-1.78-1.53zm0 0.688c0.551 0 1 0.369 1 0.844 0 0.475-0.449 0.875-1 0.875-0.551 0-1-0.4-1-0.875 0-0.474 0.449-0.844 1-0.844zm-0.969 3.09v2h2v-2h-2z" fill="url(#linearGradient3723)"/>
  <path id="path2921" d="m-13.8 5.76c-3e-3 -0.948 0.988-1.6 1.87-1.53 0.854 0.00722 1.75 0.703 1.69 1.61-0.0594 0.982-1.14 1.59-2.05 1.44-0.765-0.0852-1.52-0.702-1.51-1.52zm1.78 0.859c0.571 0.0377 1.17-0.529 0.952-1.12-0.3-0.835-1.71-0.789-1.93 0.0823-0.144 0.577 0.436 1.05 0.977 1.03zm-1.18 1.35h2.35v0.675h-2.35v-0.675zm0 1.35h2.35v0.676h-2.35v-0.676zm-2.02-4.88c0.185 0.159 0.369 0.319 0.554 0.478 0.554-0.478 1.11-0.955 1.66-1.43-0.185-0.159-0.369-0.319-0.554-0.478-0.554 0.477-1.11 0.955-1.66 1.43zm-1.11-0.947c0.185 0.159 0.369 0.319 0.554 0.478 0.554-0.48 1.11-0.96 1.66-1.44l-0.554-0.47c-0.554 0.478-1.11 0.955-1.66 1.43zm7.22-1.49c-0.608 0.524-1.22 1.05-1.83 1.57 0.484 0.414 0.968 0.829 1.45 1.24 0.608-0.519 1.22-1.04 1.83-1.56-0.484-0.42-0.968-0.839-1.45-1.26z" clip-path="url(#clipPath3710)" fill="none" filter="url(#filter3716)" opacity=".6" stroke="#fff"/>
  <path id="path2923" d="m-13.8 5.76c0-0.847 0.797-1.53 1.78-1.53 0.983 0 1.78 0.687 1.78 1.53s-0.797 1.53-1.78 1.53c-0.984-9.8e-5 -1.78-0.687-1.78-1.53m1.78 0.859c0.551 0 0.997-0.385 0.997-0.859 0-0.474-0.446-0.86-0.997-0.86-0.551 0-0.997 0.385-0.997 0.86-1.13e-4 0.475 0.446 0.859 0.997 0.859zm-1.18 1.35h2.35v0.675h-2.35v-0.675zm0 1.35h2.35v0.676h-2.35v-0.676zm-2.02-4.88 0.554 0.478 1.66-1.43-0.554-0.478-1.66 1.43m-1.11-0.947 0.554 0.478 1.66-1.44-0.554-0.47-1.66 1.43m7.22-1.49-1.83 1.57 1.45 1.24 1.83-1.56-1.45-1.26" fill="url(#linearGradient2927)"/>
  <path id="path2925" d="m-13.8 5.76c0-0.847 0.797-1.53 1.78-1.53 0.983 0 1.78 0.687 1.78 1.53s-0.797 1.53-1.78 1.53c-0.984-9.8e-5 -1.78-0.687-1.78-1.53m1.78 0.859c0.551 0 0.997-0.385 0.997-0.859 0-0.474-0.446-0.86-0.997-0.86-0.551 0-0.997 0.385-0.997 0.86-1.13e-4 0.475 0.446 0.859 0.997 0.859zm-1.18 1.35h2.35v0.675h-2.35v-0.675zm0 1.35h2.35v0.676h-2.35v-0.676zm-2.02-4.88 0.554 0.478 1.66-1.43-0.554-0.478-1.66 1.43m-1.11-0.947 0.554 0.478 1.66-1.44-0.554-0.47-1.66 1.43m7.22-1.49-1.83 1.57 1.45 1.24 1.83-1.56-1.45-1.26" fill="url(#linearGradient2927)"/>
 </g>
</svg>
