<?xml version="1.0" encoding="UTF-8"?>
<svg id="svg2" width="16" height="16" version="1.0" xmlns="http://www.w3.org/2000/svg" xmlns:cc="http://creativecommons.org/ns#" xmlns:dc="http://purl.org/dc/elements/1.1/" xmlns:rdf="http://www.w3.org/1999/02/22-rdf-syntax-ns#">
 <defs id="defs4">
  <radialGradient id="radialGradient4138" cx="48" cy="84" r="30" gradientTransform="matrix(.234 0 0 .0247 -3.24 11.4)" gradientUnits="userSpaceOnUse">
   <stop id="stop3315" stop-color="#82d2ff" offset="0"/>
   <stop id="stop4186" stop-color="#1379ff" stop-opacity=".902" offset=".672"/>
   <stop id="stop3317" stop-color="#06f" stop-opacity="0" offset="1"/>
  </radialGradient>
  <linearGradient id="linearGradient3204" x1="1" x2="15" y1="9" y2="9" gradientTransform="translate(-16,-1)" gradientUnits="userSpaceOnUse">
   <stop id="stop3189" stop-color="#29669f" offset="0"/>
   <stop id="stop3191" stop-color="#88b6e0" offset="1"/>
  </linearGradient>
  <linearGradient id="linearGradient2707" x1="-3.06" x2="-3.06" y1="23.3" y2="11.3" gradientTransform="translate(10.1 -23.3)" gradientUnits="userSpaceOnUse">
   <stop id="stop4329" stop-color="#f5f5f5" offset="0"/>
   <stop id="stop4331" stop-color="#c3c3c3" offset="1"/>
  </linearGradient>
  <linearGradient id="linearGradient3537" x1="6.68" x2="6.68" y1="16" y2="-.00388" gradientUnits="userSpaceOnUse">
   <stop id="stop3533" stop-color="#020202" offset="0"/>
   <stop id="stop3535" stop-color="#868686" offset="1"/>
  </linearGradient>
  <linearGradient id="linearGradient3836" x1="8" x2="8" y2="32" gradientUnits="userSpaceOnUse">
   <stop id="stop3832" stop-color="#fff" offset="0"/>
   <stop id="stop3834" stop-color="#fff" stop-opacity="0" offset="1"/>
  </linearGradient>
  <linearGradient id="linearGradient3844" x2="8" y1="-10" y2="-10" gradientUnits="userSpaceOnUse" spreadMethod="reflect">
   <stop id="stop3840" stop-color="#b4b4b4" offset="0"/>
   <stop id="stop3842" stop-color="#a0a0a0" offset="1"/>
  </linearGradient>
  <linearGradient id="linearGradient3252" x1="48" x2="48" y1="62" y2="21.6" gradientTransform="matrix(.187 0 0 .187 -.957 -1.94)" gradientUnits="userSpaceOnUse">
   <stop id="stop3769-4" stop-color="#4d4d4d" stop-opacity=".707" offset="0"/>
   <stop id="stop3771-1" stop-color="#4d4d4d" stop-opacity=".314" offset="1"/>
  </linearGradient>
 </defs>
 <metadata id="metadata7">
  <rdf:RDF>
   <cc:Work rdf:about="">
    <dc:format>image/svg+xml</dc:format>
    <dc:type rdf:resource="http://purl.org/dc/dcmitype/StillImage"/>
    <dc:title/>
   </cc:Work>
  </rdf:RDF>
 </metadata>
 <g id="layer1">
  <rect id="rect3196" transform="rotate(-90)" x="-15" y="1" width="14" height="14" rx="2" ry="2" fill="url(#linearGradient3204)"/>
  <path id="rect2401" d="m3 1c-1.11 0-2 0.892-2 2v10c0 1.11 0.892 2 2 2h10c1.11 0 2-0.892 2-2v-10c0-1.11-0.892-2-2-2h-10zm0 1h10c0.576 0 1 0.424 1 1v10c0 0.576-0.424 1-1 1h-10c-0.576 0-1-0.424-1-1v-10c0-0.576 0.424-1 1-1z" fill="#2b6090"/>
  <path id="rect3183" d="m-25 7c-1.11 0-2 0.892-2 2v1c0-1.11 0.892-2 2-2h16c1.11 0 2 0.892 2 2v-1c0-1.11-0.892-2-2-2h-16z" fill="#fff" fill-rule="evenodd" opacity=".25"/>
  <rect id="rect4177" transform="scale(1,-1)" y="-16" width="16" height="12" rx="2" ry="2" fill="url(#linearGradient3844)" fill-rule="evenodd"/>
  <path id="rect3513" d="m0 11v1c0 1.11 0.892 2 2 2h12c1.11 0 2-0.892 2-2v-1c0 1.11-0.892 2-2 2h-12c-1.11 0-2-0.892-2-2z" fill="#282828" fill-rule="evenodd"/>
  <path id="path3518" d="m30 10v1c0 1.11 0.892 2 2 2h12c1.11 0 2-0.892 2-2v-1c0 1.11-0.892 2-2 2h-12c-1.11 0-2-0.892-2-2z" fill="#0f0f0f" fill-rule="evenodd"/>
 </g>
 <g id="layer2" fill-rule="evenodd">
  <rect id="rect3173" transform="scale(1,-1)" x="-.0177" y="-12" width="16" height="12" rx="2" ry="2" fill="url(#linearGradient2707)"/>
  <path id="rect3539" d="m1.97 0.0312c-1.11 0-2 0.892-2 2v8c0 1.11 0.892 2 2 2h12c1.11 0 2-0.892 2-2v-8c0-1.11-0.892-2-2-2zm0.781 1h10.4c0.498 0 0.875 0.428 0.875 1v8c0 0.572-0.377 1-0.875 1h-10.4c-0.498 0-0.875-0.428-0.875-1v-8c0-0.572 0.377-1 0.875-1z" fill="url(#linearGradient3836)" opacity=".6"/>
 </g>
 <g id="layer5">
  <path id="rect3524" d="m2 0c-1.11 0-2 0.892-2 2v12c0 1.11 0.892 2 2 2h12c1.11 0 2-0.892 2-2v-12c0-1.11-0.892-2-2-2h-12zm0 1h12c0.575 0 1 0.425 1 1v12c0 0.575-0.425 1-1 1h-12c-0.575 0-1-0.425-1-1v-12c0-0.575 0.425-1 1-1z" fill="url(#linearGradient3537)" opacity=".5"/>
 </g>
 <g id="layer4">
  <rect id="rect3311" x=".969" y="12.8" width="14" height="1.48" rx="1.28" ry="1.48" fill="url(#radialGradient4138)"/>
 </g>
 <g id="layer3" fill-rule="evenodd">
  <path id="path3936" d="m7.81 0.688a0.859 0.859 0 0 0-0.344 0.188l-4.88 4a0.859 0.859 0 0 0 0 1.34l2.91 2.31a0.859 0.859 0 0 0 0.75 0.156v1.34a0.859 0.859 0 0 0 0.844 0.844h1.84a0.859 0.859 0 0 0 0.844-0.844v-1.34a0.859 0.859 0 0 0 0.719-0.156l2.91-2.34a0.859 0.859 0 0 0 0-1.31l-4.88-4a0.859 0.859 0 0 0-0.719-0.188z" fill="#fff" opacity=".4"/>
  <path id="path3242" d="m8 1.53-4.87 4.02 2.9 2.29v-1.86l-0.531-0.438 2.5-2.09 2.5 2.09-0.531 0.438v1.9l2.91-2.34-4.88-4.02zm-0.908 3.56v4.94h1.85v-4.94h-1.85z" fill="url(#linearGradient3252)"/>
 </g>
</svg>
