<?xml version="1.0" encoding="UTF-8"?>
<svg id="svg2" width="16" height="16" version="1.0" xmlns="http://www.w3.org/2000/svg" xmlns:cc="http://creativecommons.org/ns#" xmlns:dc="http://purl.org/dc/elements/1.1/" xmlns:rdf="http://www.w3.org/1999/02/22-rdf-syntax-ns#" xmlns:xlink="http://www.w3.org/1999/xlink">
 <defs id="defs4">
  <linearGradient id="linearGradient3204" x1="1" x2="15" y1="9" y2="9" gradientTransform="translate(-17,-32)" gradientUnits="userSpaceOnUse">
   <stop id="stop3189" stop-color="#29669f" offset="0"/>
   <stop id="stop3191" stop-color="#88b6e0" offset="1"/>
  </linearGradient>
  <linearGradient id="linearGradient3629" x2="29" y1="8" y2="8" gradientTransform="matrix(0,-1,1,0,-20,16)" gradientUnits="userSpaceOnUse">
   <stop id="stop3330" offset="0"/>
   <stop id="stop3333" stop-opacity="0" offset="1"/>
  </linearGradient>
  <linearGradient id="linearGradient3102" x1="-3.06" x2="-3.06" y1="27.3" y2="7.25" gradientTransform="translate(10.1 -9.26)" gradientUnits="userSpaceOnUse">
   <stop id="stop3616" stop-color="#c8c4b7" offset="0"/>
   <stop id="stop3618" stop-color="#e3e2db" offset="1"/>
  </linearGradient>
  <linearGradient id="linearGradient3699" x1="4" x2="4" y1="21" y2=".975" gradientTransform="matrix(-1,0,0,1,21,-3)" gradientUnits="userSpaceOnUse" xlink:href="#linearGradient3688"/>
  <linearGradient id="linearGradient3688">
   <stop id="stop3690" stop-color="#333" offset="0"/>
   <stop id="stop3692" stop-color="#595959" offset="1"/>
  </linearGradient>
  <linearGradient id="linearGradient3127" x1="4" x2="4" y1="21" y2=".975" gradientTransform="translate(-1,-3)" gradientUnits="userSpaceOnUse" xlink:href="#linearGradient3688"/>
 </defs>
 <metadata id="metadata7">
  <rdf:RDF>
   <cc:Work rdf:about="">
    <dc:format>image/svg+xml</dc:format>
    <dc:type rdf:resource="http://purl.org/dc/dcmitype/StillImage"/>
    <dc:title/>
   </cc:Work>
  </rdf:RDF>
 </metadata>
 <g id="layer1">
  <path id="path3739" d="m2 0c-1.11 0-2 0.892-2 2v4c0 3.82 1 1.49 1 5v3c0 1.1 0.895 2 2 2h10c1.1 0 2-0.895 2-2v-3c0-3.51 1-1.18 1-5v-4c0-1.11-0.892-2-2-2z" fill="url(#linearGradient3102)" fill-rule="evenodd"/>
  <path id="path4168" d="m12 0c1.1 0 2 0.895 2 2v5c0 3.91-3 2-3 7v2h-1v-2c0-5 3-3.09 3-7v-5c0-1.1-0.895-2-2-2h1z" fill="#fff" opacity=".4"/>
  <path id="path3391" d="m4 0c-1.1 0-2 0.895-2 2v5c0 3.91 3 2 3 7v2h1v-2c0-5-3-3.09-3-7v-5c0-1.1 0.895-2 2-2h-1z" fill="#fff" opacity=".4"/>
  <path id="path3676" d="m2 0c-1.11 0-2 0.892-2 2v4c0 3.82 1 1.49 1 5v3c0 1.1 0.895 2 2 2h2v-2c0-5-3-3.09-3-7v-5c0-1.1 0.895-2 2-2z" fill="url(#linearGradient3127)"/>
  <rect id="rect3196" transform="rotate(-90)" x="-16" y="-30" width="16" height="16" rx="2" ry="2" fill="url(#linearGradient3204)"/>
  <path id="rect2835" d="m2 0c-1.11 0-2 0.892-2 2v4c0 3.82 1 1.49 1 5v3c0 1.1 0.895 2 2 2h10c1.1 0 2-0.895 2-2v-3c0-3.51 1-1.18 1-5v-4c0-1.11-0.892-2-2-2zm0 1h12c0.57 0 1 0.43 1 1v4c0 0.912-0.0644 1.41-0.125 1.66s-0.0737 0.192-0.188 0.344-0.366 0.521-0.5 1-0.188 1.07-0.188 2v3c0 0.563-0.437 1-1 1h-10c-0.563 0-1-0.437-1-1v-3c0-0.926-0.0533-1.52-0.188-2s-0.386-0.848-0.5-1-0.127-0.102-0.188-0.344-0.125-0.745-0.125-1.66v-4c0-0.57 0.43-1 1-1z" fill="url(#linearGradient3629)" opacity=".4"/>
  <path id="path3696" d="m14 0c1.11 0 2 0.892 2 2v4c0 3.82-1 1.49-1 5v3c0 1.1-0.895 2-2 2h-2v-2c0-5 3-3.09 3-7v-5c0-1.1-0.895-2-2-2z" fill="url(#linearGradient3699)"/>
  <rect id="rect4170" x="7.5" width="1" height="9" color="#000000" opacity=".3"/>
  <rect id="rect3747" x="7" y="1" width="2" height="5" rx="1" ry="1" fill="#666"/>
  <path id="path2843" d="m2 0.969c-0.583 0-1.03 0.448-1.03 1.03v1c0-0.583 0.448-1.03 1.03-1.03h12c0.583 0 1.03 0.448 1.03 1.03v-1c0-0.583-0.448-1.03-1.03-1.03h-12z" fill="#fff" opacity=".2"/>
  <path id="path4180" transform="translate(0,-1)" d="m9 12a1 1 0 1 1-2 0 1 1 0 1 1 2 0z" color="#000000" fill="#666" opacity=".2"/>
 </g>
</svg>
