<?xml version="1.0" encoding="UTF-8"?>
<svg id="svg2" width="16" height="16" version="1.0" xmlns="http://www.w3.org/2000/svg" xmlns:cc="http://creativecommons.org/ns#" xmlns:dc="http://purl.org/dc/elements/1.1/" xmlns:rdf="http://www.w3.org/1999/02/22-rdf-syntax-ns#">
 <defs id="defs4">
  <linearGradient id="linearGradient3204" x1="1" x2="15" y1="9" y2="9" gradientTransform="translate(-17,-2)" gradientUnits="userSpaceOnUse">
   <stop id="stop3988" stop-color="#67a708" offset="0"/>
   <stop id="stop3990" stop-color="#a0eb35" offset="1"/>
  </linearGradient>
  <linearGradient id="linearGradient3629" x2="29" y1="8" y2="8" gradientTransform="matrix(0,-1,1,0,0,16)" gradientUnits="userSpaceOnUse">
   <stop id="stop3330" offset="0"/>
   <stop id="stop3333" stop-opacity="0" offset="1"/>
  </linearGradient>
  <linearGradient id="linearGradient3970" x1="4" x2="20" y1="12" y2="12" gradientTransform="matrix(0 -.875 .875 0 -2.5 18.5)" gradientUnits="userSpaceOnUse">
   <stop id="stop3966" stop-color="#dcdcdc" offset="0"/>
   <stop id="stop3968" stop-color="#f5f5f5" offset="1"/>
  </linearGradient>
  <radialGradient id="radialGradient3090" cx="48" cy="44" r="16" gradientUnits="userSpaceOnUse">
   <stop id="stop3843-9" stop-color="#fff" offset="0"/>
   <stop id="stop3849-7" stop-color="#fff" stop-opacity=".336" offset=".5"/>
   <stop id="stop3845-4" stop-opacity=".168" offset="1"/>
  </radialGradient>
 </defs>
 <metadata id="metadata7">
  <rdf:RDF>
   <cc:Work rdf:about="">
    <dc:format>image/svg+xml</dc:format>
    <dc:type rdf:resource="http://purl.org/dc/dcmitype/StillImage"/>
    <dc:title/>
   </cc:Work>
  </rdf:RDF>
 </metadata>
 <g id="layer1">
  <rect id="rect3196" transform="rotate(-90)" x="-16" width="16" height="16" rx="2" ry="2" fill="url(#linearGradient3204)"/>
  <path id="rect2835" d="m0 14c0 1.11 0.892 2 2 2h12c1.11 0 2-0.892 2-2v-12c0-1.11-0.892-2-2-2h-12c-1.11 0-2 0.892-2 2v12zm0.969 0v-12c0-0.583 0.448-1.03 1.03-1.03h12c0.583 0 1.03 0.448 1.03 1.03v12c0 0.583-0.448 1.03-1.03 1.03h-12c-0.583 0-1.03-0.448-1.03-1.03z" fill="url(#linearGradient3629)" opacity=".4"/>
  <path id="path3995" d="m8 0.0312c-4.39 0-7.97 3.58-7.97 7.97s3.58 7.97 7.97 7.97 7.97-3.58 7.97-7.97-3.58-7.97-7.97-7.97zm0 4.94c1.69 0 3.03 1.34 3.03 3.03s-1.34 3.03-3.03 3.03-3.03-1.34-3.03-3.03 1.34-3.03 3.03-3.03z" color="#000000" opacity=".2"/>
  <path id="path3839" transform="matrix(.25 0 0 .25 -4 -4)" d="m64 48a16 16 0 1 1-32 0 16 16 0 1 1 32 0z" color="#000000" fill="url(#radialGradient3090)" opacity=".25"/>
  <path id="path3962" d="m8 1c-3.87 0-7 3.13-7 7s3.13 7 7 7 7-3.13 7-7-3.13-7-7-7zm0 3c2.21 0 4 1.79 4 4s-1.79 4-4 4-4-1.79-4-4 1.79-4 4-4z" color="#000000" fill="url(#linearGradient3970)"/>
  <path id="path2843" d="m2 0.969c-0.583 0-1.03 0.448-1.03 1.03v1c0-0.583 0.448-1.03 1.03-1.03h12c0.583 0 1.03 0.448 1.03 1.03v-1c0-0.583-0.448-1.03-1.03-1.03h-12z" fill="#fff" opacity=".25"/>
  <path id="path3997" transform="translate(-1 -.5)" d="m10 3a1 1 0 1 1-2 0 1 1 0 1 1 2 0z" color="#000000" opacity=".2"/>
  <path id="path3999" transform="matrix(0,1,-1,0,16.5,-1)" d="m10 3a1 1 0 1 1-2 0 1 1 0 1 1 2 0z" color="#000000" opacity=".2"/>
  <path id="path4001" transform="matrix(-1,0,0,-1,17,16.5)" d="m10 3a1 1 0 1 1-2 0 1 1 0 1 1 2 0z" color="#000000" opacity=".2"/>
  <path id="path4003" transform="matrix(0 -1 1 0 -.5 17)" d="m10 3a1 1 0 1 1-2 0 1 1 0 1 1 2 0z" color="#000000" opacity=".2"/>
  <path id="path4052" transform="matrix(.894 0 0 1.03 -1.84 -2.83)" d="m9.75 8.62a0.452 0.452 0 0 0-0.312 0.438v3.88a0.452 0.452 0 0 0 0.656 0.406l3.38-1.94a0.452 0.452 0 0 0 0-0.812l-3.38-1.94a0.452 0.452 0 0 0-0.344-0.0312z" color="#000000" opacity=".12"/>
  <path id="path4048" transform="matrix(.894 0 0 1.03 -1.84 -2.83)" d="m9.88 9.06v3.88l3.38-1.94-3.38-1.94z" color="#000000" opacity=".3"/>
  <path id="path4044" transform="matrix(.894 0 0 1.03 -1.84 -3.39)" d="m9.88 12.9 1e-7 -1.94-1e-7 -1.94 3.35 1.94-1.68 0.968z" color="#000000" fill="#fff"/>
 </g>
</svg>
