<?xml version="1.0" encoding="UTF-8"?>
<svg id="svg2" width="16" height="16" version="1.0" xmlns="http://www.w3.org/2000/svg" xmlns:cc="http://creativecommons.org/ns#" xmlns:dc="http://purl.org/dc/elements/1.1/" xmlns:rdf="http://www.w3.org/1999/02/22-rdf-syntax-ns#" xmlns:xlink="http://www.w3.org/1999/xlink">
 <defs id="defs4">
  <linearGradient id="linearGradient3204" x1="1" x2="15" y1="9" y2="9" gradientTransform="translate(-17,-2)" gradientUnits="userSpaceOnUse">
   <stop id="stop3702" stop-color="#bcbcbc" offset="0"/>
   <stop id="stop3704" stop-color="#dfdfdf" offset="1"/>
  </linearGradient>
  <linearGradient id="linearGradient3629" x2="29" y1="8" y2="8" gradientTransform="matrix(0,-1,1,0,0,16)" gradientUnits="userSpaceOnUse">
   <stop id="stop3330" offset="0"/>
   <stop id="stop3333" stop-opacity="0" offset="1"/>
  </linearGradient>
  <linearGradient id="linearGradient3980">
   <stop id="stop3982" stop-color="#cacaca" offset="0"/>
   <stop id="stop3984" stop-color="#f3f3f3" offset="1"/>
  </linearGradient>
  <linearGradient id="linearGradient2675" x1="65.2" x2="65.2" y1="16.1" y2="69.7" gradientTransform="matrix(.225 0 0 .225 -3.95 -1.62)" gradientUnits="userSpaceOnUse">
   <stop id="stop3739-8" stop-color="#fff" offset="0"/>
   <stop id="stop3741-1" stop-color="#fff" stop-opacity="0" offset="1"/>
  </linearGradient>
  <linearGradient id="linearGradient4225" x1="142" x2="142" y1="16.1" y2="64.2" gradientTransform="matrix(.225 0 0 .225 -21.9 -1.62)" gradientUnits="userSpaceOnUse">
   <stop id="stop3689" stop-color="#fff" offset="0"/>
   <stop id="stop3691" stop-color="#fff" stop-opacity="0" offset="1"/>
  </linearGradient>
  <radialGradient id="radialGradient3686" cx="10" cy="12" r="8" gradientTransform="matrix(.875 0 0 .625 -.75 3.5)" gradientUnits="userSpaceOnUse">
   <stop id="stop3226" stop-color="#4f445a" offset="0"/>
   <stop id="stop3228" offset="1"/>
  </radialGradient>
  <linearGradient id="linearGradient4150" x1="-84" x2="-76" y1="20" y2="20" gradientTransform="matrix(.25 0 0 .25 33 -1)" gradientUnits="userSpaceOnUse" xlink:href="#linearGradient3980"/>
  <linearGradient id="linearGradient4162" x1="-84" x2="-76" y1="20" y2="20" gradientTransform="matrix(.25 0 0 .25 33 7)" gradientUnits="userSpaceOnUse" xlink:href="#linearGradient3980"/>
  <linearGradient id="linearGradient4176" x1="-84" x2="-77.8" y1="20" y2="20" gradientTransform="matrix(.5 0 0 .5 54 -2)" gradientUnits="userSpaceOnUse" xlink:href="#linearGradient3980"/>
 </defs>
 <metadata id="metadata7">
  <rdf:RDF>
   <cc:Work rdf:about="">
    <dc:format>image/svg+xml</dc:format>
    <dc:type rdf:resource="http://purl.org/dc/dcmitype/StillImage"/>
    <dc:title/>
   </cc:Work>
  </rdf:RDF>
 </metadata>
 <g id="layer1">
  <rect id="rect3196" transform="rotate(-90)" x="-16" width="16" height="16" rx="2" ry="2" fill="url(#linearGradient3204)"/>
  <path id="path4191" d="m3.5 12c-0.546 0-1 0.454-1 1v1c0 0.546 0.454 1 1 1h1c0.546 0 1-0.454 1-1v0.5c0 0.823 0.677 1.5 1.5 1.5h2c0.823 0 1.5-0.677 1.5-1.5v-0.5c0 0.546 0.454 1 1 1h1c0.546 0 1-0.454 1-1v-1c0-0.546-0.454-1-1-1h-1c-0.546 0-1 0.454-1 1v0.5c0-0.823-0.677-1.5-1.5-1.5h-2c-0.823 0-1.5 0.677-1.5 1.5v-0.5c0-0.546-0.454-1-1-1h-1z" color="#000000" opacity=".1"/>
  <path id="rect2835" d="m0 14c0 1.11 0.892 2 2 2h12c1.11 0 2-0.892 2-2v-12c0-1.11-0.892-2-2-2h-12c-1.11 0-2 0.892-2 2v12zm0.969 0v-12c0-0.583 0.448-1.03 1.03-1.03h12c0.583 0 1.03 0.448 1.03 1.03v12c0 0.583-0.448 1.03-1.03 1.03h-12c-0.583 0-1.03-0.448-1.03-1.03z" fill="url(#linearGradient3629)" opacity=".4"/>
  <path id="path2843" d="m2 0.969c-0.583 0-1.03 0.448-1.03 1.03v1c0-0.583 0.448-1.03 1.03-1.03h12c0.583 0 1.03 0.448 1.03 1.03v-1c0-0.583-0.448-1.03-1.03-1.03h-12z" fill="#fff" opacity=".45"/>
  <rect id="rect3678" x="2" y="2" width="12" height="10" rx="1" ry="1" color="#000000" fill="url(#radialGradient3686)"/>
  <path id="path4199" d="m7.75 2 3.5 10h1.75c0.554 0 1-0.446 1-1v-8c0-0.554-0.446-1-1-1z" fill="url(#linearGradient4225)" fill-rule="evenodd" opacity=".7"/>
  <path id="path4201" d="m7.75 2 3.49 10h0.225l-3.49-10z" fill="url(#linearGradient2675)" fill-rule="evenodd" opacity=".5"/>
  <path id="rect3697" d="m3 2c-0.554 0-1 0.446-1 1v8c0 0.554 0.446 1 1 1h10c0.554 0 1-0.446 1-1v-8c0-0.554-0.446-1-1-1zm0 1h10v8h-10z" color="#000000" opacity=".6"/>
  <path id="rect4178" d="m3.5 12.5c-0.277 0-0.5 0.223-0.5 0.5v1c0 0.277 0.223 0.5 0.5 0.5h1c0.277 0 0.5-0.223 0.5-0.5v-1c0-0.277-0.223-0.5-0.5-0.5h-1zm3.5 0c-0.554 0-1 0.446-1 1v1c0 0.554 0.446 1 1 1h2c0.554 0 1-0.446 1-1v-1c0-0.554-0.446-1-1-1h-2zm4.5 0c-0.277 0-0.5 0.223-0.5 0.5v1c0 0.277 0.223 0.5 0.5 0.5h1c0.277 0 0.5-0.223 0.5-0.5v-1c0-0.277-0.223-0.5-0.5-0.5h-1z" color="#000000" opacity=".3"/>
  <rect id="rect4146" transform="matrix(0,1,1,0,0,0)" x="12" y="3" width="2" height="2" rx=".5" ry=".5" color="#000000" fill="url(#linearGradient4150)"/>
  <path id="path4148" d="m3.5 12c-0.277 0-0.5 0.223-0.5 0.5v1c0-0.277 0.223-0.5 0.5-0.5h1c0.277 0 0.5 0.223 0.5 0.5v-1c0-0.277-0.223-0.5-0.5-0.5h-1z" color="#000000" fill="#fff"/>
  <rect id="rect4158" transform="matrix(0,1,1,0,0,0)" x="12" y="11" width="2" height="2" rx=".5" ry=".5" color="#000000" fill="url(#linearGradient4162)"/>
  <path id="path4160" d="m11.5 12c-0.277 0-0.5 0.223-0.5 0.5v1c0-0.277 0.223-0.5 0.5-0.5h1c0.277 0 0.5 0.223 0.5 0.5v-1c0-0.277-0.223-0.5-0.5-0.5h-1z" color="#000000" fill="#fff"/>
  <rect id="rect4170" transform="matrix(0,1,1,0,0,0)" x="12" y="6" width="3.01" height="4" rx="1" ry="1" color="#000000" fill="url(#linearGradient4176)"/>
  <path id="path4172" d="m7 12c-0.554 0-1 0.446-1 1v1c0-0.554 0.446-1 1-1h2c0.554 0 1 0.446 1 1v-1c0-0.554-0.446-1-1-1h-2z" color="#000000" fill="#fff"/>
  <rect id="rect4174" x="7.02" y="13" width="1.98" height="1.05" rx=".5" ry=".5" color="#000000" fill="#666" opacity=".411"/>
 </g>
</svg>
