<?xml version="1.0" encoding="UTF-8"?>
<svg id="svg29" width="16" height="16" version="1.1" xmlns="http://www.w3.org/2000/svg" xmlns:cc="http://creativecommons.org/ns#" xmlns:dc="http://purl.org/dc/elements/1.1/" xmlns:rdf="http://www.w3.org/1999/02/22-rdf-syntax-ns#">
 <metadata id="metadata33">
  <rdf:RDF>
   <cc:Work rdf:about="">
    <dc:format>image/svg+xml</dc:format>
    <dc:type rdf:resource="http://purl.org/dc/dcmitype/StillImage"/>
   </cc:Work>
  </rdf:RDF>
 </metadata>
 <defs id="defs7">
  <linearGradient id="gr0" x1="8" x2="8" y1="1" y2="15" gradientUnits="userSpaceOnUse">
   <stop id="stop2" stop-color="#ebebeb" offset="0"/>
   <stop id="stop4" stop-color="#aaa" offset="1"/>
  </linearGradient>
 </defs>
 <path id="path9" d="m5.25 0c-1.23 0-2.25 1.02-2.25 2.25v11.5c0 1.23 1.02 2.25 2.25 2.25h5.5c1.23 0 2.25-1.02 2.25-2.25v-11.5c0-1.23-1.02-2.25-2.25-2.25h-5.5zm0 1h5.5c0.69 0 1.25 0.558 1.25 1.25v11.5c0 0.69-0.56 1.25-1.25 1.25h-5.5c-0.693 0-1.25-0.56-1.25-1.25v-11.5c0-0.692 0.557-1.25 1.25-1.25zm0.25 1c-0.277 0-0.5 0.223-0.5 0.5v10c0 0.28 0.223 0.5 0.5 0.5h5c0.28 0 0.5-0.22 0.5-0.5v-10c0-0.277-0.22-0.5-0.5-0.5h-5zm0.5 1h4v9h-4v-9z" opacity=".25"/>
 <path id="base" d="m5.25 1c-0.692 0-1.25 0.558-1.25 1.25v11.5c0 0.692 0.558 1.25 1.25 1.25h5.5c0.692 0 1.25-0.558 1.25-1.25v-11.5c0-0.692-0.558-1.25-1.25-1.25h-5.5zm0.25 1h5c0.277 0 0.5 0.223 0.5 0.5v10c0 0.277-0.223 0.5-0.5 0.5h-5c-0.277 0-0.5-0.223-0.5-0.5v-10c0-0.277 0.223-0.5 0.5-0.5z" fill="url(#gr0)"/>
 <path id="path17" d="m5.5 2c-0.277 0-0.5 0.223-0.5 0.5v1c0-0.277 0.223-0.5 0.5-0.5h5c0.28 0 0.5 0.223 0.5 0.5v-1c0-0.277-0.22-0.5-0.5-0.5h-5zm-1.5 11.8v1c0 0.69 0.557 1.25 1.25 1.25h5.5c0.69 0 1.25-0.56 1.25-1.25v-1c0 0.69-0.56 1.25-1.25 1.25h-5.5c-0.693 0-1.25-0.56-1.25-1.25z" opacity=".45"/>
 <path id="path24" d="m5.25 1c-0.693 0-1.25 0.558-1.25 1.25v1c0-0.692 0.557-1.25 1.25-1.25h5.5c0.69 0 1.25 0.558 1.25 1.25v-1c0-0.692-0.56-1.25-1.25-1.25h-5.5zm-0.25 11.5v1c0 0.28 0.223 0.5 0.5 0.5h5c0.28 0 0.5-0.22 0.5-0.5v-1c0 0.28-0.22 0.5-0.5 0.5h-5c-0.277 0-0.5-0.22-0.5-0.5z" fill="#fff" opacity=".6"/>
</svg>
