<?xml version="1.0" encoding="UTF-8"?>
<svg id="svg2" width="16" height="16" version="1.0" xmlns="http://www.w3.org/2000/svg" xmlns:cc="http://creativecommons.org/ns#" xmlns:dc="http://purl.org/dc/elements/1.1/" xmlns:rdf="http://www.w3.org/1999/02/22-rdf-syntax-ns#">
 <defs id="defs4">
  <linearGradient id="linearGradient3204" x1="1" x2="15" y1="9" y2="9" gradientTransform="translate(-17,-2)" gradientUnits="userSpaceOnUse">
   <stop id="stop3702" stop-color="#b8b8b8" offset="0"/>
   <stop id="stop3704" stop-color="#d0d0d0" offset="1"/>
  </linearGradient>
  <linearGradient id="linearGradient3629" x2="29" y1="8" y2="8" gradientTransform="matrix(0,-1,1,0,0,16)" gradientUnits="userSpaceOnUse">
   <stop id="stop3330" offset="0"/>
   <stop id="stop3333" stop-opacity="0" offset="1"/>
  </linearGradient>
  <radialGradient id="radialGradient3924" cx="53.1" cy="120" r="16" gradientTransform="matrix(.417 0 0 .197 -13 -6.51)" gradientUnits="userSpaceOnUse">
   <stop id="stop3921" stop-opacity=".381" offset="0"/>
   <stop id="stop3923" stop-opacity=".233" offset=".781"/>
   <stop id="stop3925" offset="1"/>
  </radialGradient>
  <radialGradient id="radialGradient3941" cx="77.5" cy="85" r="2.5" gradientTransform="matrix(.2 0 0 .2 -2 -2.5)" gradientUnits="userSpaceOnUse">
   <stop id="stop4108" stop-color="#a0ff0e" offset="0"/>
   <stop id="stop4110" stop-color="#5ce500" offset="1"/>
  </radialGradient>
  <linearGradient id="linearGradient3958" x1="12" x2="12" y1="19" y2="6" gradientTransform="translate(-2,-6)" gradientUnits="userSpaceOnUse">
   <stop id="stop3655" stop-color="#d4d4d4" offset="0"/>
   <stop id="stop3657" stop-color="#ededed" offset="1"/>
  </linearGradient>
  <linearGradient id="linearGradient3993" x1="12" x2="12" y1="15" y2="12" gradientTransform="translate(-3,-4)" gradientUnits="userSpaceOnUse">
   <stop id="stop3234-0" offset="0"/>
   <stop id="stop3236-0" stop-opacity="0" offset="1"/>
  </linearGradient>
 </defs>
 <metadata id="metadata7">
  <rdf:RDF>
   <cc:Work rdf:about="">
    <dc:format>image/svg+xml</dc:format>
    <dc:type rdf:resource="http://purl.org/dc/dcmitype/StillImage"/>
    <dc:title/>
   </cc:Work>
  </rdf:RDF>
 </metadata>
 <g id="layer1">
  <rect id="rect3196" transform="rotate(-90)" x="-16" width="16" height="16" rx="2" ry="2" fill="url(#linearGradient3204)"/>
  <path id="path3893" d="m8 14c-2.76 0-5 0.895-5 2h10c0-1.1-2.24-2-5-2z" color="#000000" fill="url(#radialGradient3924)" opacity=".3"/>
  <rect id="rect3485" x="13" y="14" width="1" height="1" rx=".2" ry=".5" fill="url(#radialGradient3941)"/>
  <path id="path3940" transform="translate(0 .5)" d="m2.91-0.5c-0.228 0.0461-0.408 0.267-0.406 0.5v10.5c0 1.1 0.897 2 2 2h7c1.1 0 2-0.897 2-2v-10.5c-0.0034-0.261-0.239-0.497-0.5-0.5h-10c-0.0312-0.0029-0.0626-0.0029-0.0938 0z" color="#000000" opacity=".15"/>
  <path id="path3934" transform="translate(0 .5)" d="m3 0v10.5c0 0.831 0.669 1.5 1.5 1.5h7c0.831 0 1.5-0.669 1.5-1.5v-10.5z" color="#000000" opacity=".3"/>
  <path id="rect3687" d="m3 0v10.5c0 0.831 0.669 1.5 1.5 1.5h7c0.831 0 1.5-0.669 1.5-1.5v-10.5z" color="#000000" fill="url(#linearGradient3958)"/>
  <path id="path3912" d="m3 0v10.5c0 0.831 0.669 1.5 1.5 1.5h7c0.831 0 1.5-0.669 1.5-1.5v-10.5h-1v10.5c0 0.293-0.207 0.5-0.5 0.5h-7c-0.293 0-0.5-0.207-0.5-0.5v-10.5z" color="#000000" opacity=".05"/>
  <path id="path3881" d="m6.5 8c-0.806 0-1.5 0.694-1.5 1.5s0.694 1.5 1.5 1.5h3c0.806 0 1.5-0.694 1.5-1.5s-0.694-1.5-1.5-1.5z" color="#000000" fill="url(#linearGradient3993)" opacity=".2"/>
  <rect id="rect3963" x="6" y="9" width="4" height="1" rx=".5" ry=".411" color="#000000" fill="#fff"/>
  <g id="text3927" transform="matrix(.1 0 0 .101 1.93 .954)" opacity=".3">
   <path id="path3957" d="m40.5 39.2h-1.79v-8.57h4.91v1.49h-3.12v2.21h2.91v1.48h-2.91v3.39"/>
   <path id="path3959" d="m50 39.2-0.586-2.04h-2.95l-0.592 2.04h-1.83l2.78-8.6h2.22l2.79 8.6h-1.83m-1.01-3.56-0.551-1.88c-0.0234-0.0703-0.0586-0.186-0.105-0.346-0.0469-0.16-0.0977-0.336-0.152-0.527-0.0508-0.195-0.0996-0.391-0.146-0.586-0.0469-0.195-0.0801-0.361-0.0996-0.498-0.0156 0.0859-0.0371 0.188-0.0644 0.305-0.0234 0.117-0.0527 0.242-0.0879 0.375-0.0312 0.129-0.0645 0.26-0.0996 0.393-0.0352 0.133-0.0684 0.258-0.0996 0.375-0.0312 0.117-0.0606 0.221-0.0879 0.311-0.0234 0.0898-0.041 0.156-0.0527 0.199l-0.545 1.88h2.09"/>
   <path id="path3961" d="m57.8 39.2h-4.93v-8.57h4.93v1.49h-3.12v1.88h2.9v1.49h-2.9v2.21h3.12v1.5"/>
   <path id="path3963" d="m66.9 39.2h-2.3l-3.37-6.48h-0.0527c0.0234 0.301 0.043 0.6 0.0586 0.896 0.0156 0.254 0.0273 0.521 0.0352 0.803 0.0117 0.277 0.0176 0.527 0.0176 0.75v4.03h-1.62v-8.57h2.29l3.36 6.42h0.0352c-0.0117-0.297-0.0254-0.59-0.041-0.879-0.0039-0.125-0.0098-0.252-0.0176-0.381-0.0039-0.133-0.0078-0.264-0.0117-0.393-0.0039-0.133-0.0078-0.26-0.0117-0.381-7e-6 -0.121-7e-6 -0.23 0-0.328v-4.05h1.63v8.57"/>
   <path id="path3965" d="m74.1 39.2h-5.89v-1.18l3.63-5.89h-3.52v-1.5h5.67v1.17l-3.62 5.89h3.73v1.5"/>
   <path id="path3967" d="m80.4 39.2-0.586-2.04h-2.95l-0.592 2.04h-1.83l2.78-8.6h2.22l2.79 8.6h-1.83m-1.01-3.56-0.551-1.88c-0.0234-0.0703-0.0586-0.186-0.105-0.346-0.0469-0.16-0.0977-0.336-0.152-0.527-0.0508-0.195-0.0996-0.391-0.146-0.586-0.0469-0.195-0.0801-0.361-0.0996-0.498-0.0156 0.0859-0.0371 0.188-0.0644 0.305-0.0234 0.117-0.0527 0.242-0.0879 0.375-0.0312 0.129-0.0645 0.26-0.0996 0.393-0.0352 0.133-0.0684 0.258-0.0996 0.375-0.0312 0.117-0.0606 0.221-0.0879 0.311-0.0234 0.0898-0.041 0.156-0.0527 0.199l-0.545 1.88h2.09"/>
  </g>
  <path id="path2843" d="m2 0.969c-0.583 0-1.03 0.448-1.03 1.03v1c0-0.583 0.448-1.03 1.03-1.03h12c0.583 0 1.03 0.448 1.03 1.03v-1c0-0.583-0.448-1.03-1.03-1.03h-12z" fill="#fff" opacity=".35"/>
  <path id="rect2835" d="m0 14c0 1.11 0.892 2 2 2h12c1.11 0 2-0.892 2-2v-12c0-1.11-0.892-2-2-2h-12c-1.11 0-2 0.892-2 2v12zm0.969 0v-12c0-0.583 0.448-1.03 1.03-1.03h12c0.583 0 1.03 0.448 1.03 1.03v12c0 0.583-0.448 1.03-1.03 1.03h-12c-0.583 0-1.03-0.448-1.03-1.03z" fill="url(#linearGradient3629)" opacity=".4"/>
 </g>
</svg>
