<?xml version="1.0" encoding="UTF-8"?>
<svg id="svg2" width="16" height="16" version="1.0" xmlns="http://www.w3.org/2000/svg" xmlns:cc="http://creativecommons.org/ns#" xmlns:dc="http://purl.org/dc/elements/1.1/" xmlns:rdf="http://www.w3.org/1999/02/22-rdf-syntax-ns#" xmlns:xlink="http://www.w3.org/1999/xlink">
 <defs id="defs4">
  <linearGradient id="linearGradient3204" x1="1" x2="15" y1="9" y2="9" gradientTransform="translate(-13,-2)" gradientUnits="userSpaceOnUse">
   <stop id="stop3702" offset="0"/>
   <stop id="stop3704" stop-color="#1f1f1f" offset="1"/>
  </linearGradient>
  <linearGradient id="linearGradient3629" x2="29" y1="8" y2="8" gradientTransform="matrix(0,-1,1,0,0,16)" gradientUnits="userSpaceOnUse">
   <stop id="stop3330" offset="0"/>
   <stop id="stop3333" stop-opacity="0" offset="1"/>
  </linearGradient>
  <linearGradient id="linearGradient3803">
   <stop id="stop3805" offset="0"/>
   <stop id="stop3807" stop-opacity="0" offset="1"/>
  </linearGradient>
  <linearGradient id="linearGradient3971" x1="15.2" x2="15.2" y1="4.96" y2="15.5" gradientTransform="matrix(.89 0 0 .666 -2.12 -.338)" gradientUnits="userSpaceOnUse">
   <stop id="stop3943" stop-color="#fff" offset="0"/>
   <stop id="stop3945" stop-color="#fff" stop-opacity="0" offset="1"/>
  </linearGradient>
  <radialGradient id="radialGradient4002" cx="44.3" cy="4.31" r="35.9" gradientTransform="matrix(-1.81e-8 1.76 -1.62 -1.67e-8 55 -72.4)" gradientUnits="userSpaceOnUse">
   <stop id="stop3177-8" stop-color="#7096d0" offset="0"/>
   <stop id="stop3179-7" stop-color="#3663a6" offset="1"/>
  </radialGradient>
  <linearGradient id="linearGradient4014" x1="10.6" x2="10.6" y1="20" y2="15.8" gradientTransform="matrix(1 0 0 .715 -3 1.7)" gradientUnits="userSpaceOnUse">
   <stop id="stop4945" stop-color="#ababab" stop-opacity="0" offset="0"/>
   <stop id="stop4947" stop-color="#e6e6e6" offset=".24"/>
   <stop id="stop4949" stop-color="#aaa" offset="1"/>
  </linearGradient>
  <linearGradient id="linearGradient4016" x1="11" x2="11" y1="21" y2="19" gradientTransform="matrix(.857 0 0 .5 -1.43 5.5)" gradientUnits="userSpaceOnUse">
   <stop id="stop3736" stop-color="#a2a2a2" offset="0"/>
   <stop id="stop3738" stop-color="#808080" offset="1"/>
  </linearGradient>
  <linearGradient id="linearGradient4018" x1="37" x2="37" y1="72.1" y2="84" gradientTransform="matrix(1 0 0 .214 -31 -2)" gradientUnits="userSpaceOnUse" xlink:href="#linearGradient3803"/>
  <linearGradient id="linearGradient4020" x1="44.7" x2="44.7" y1="67" y2="78.3" gradientTransform="matrix(.25 0 0 .105 -4 5.95)" gradientUnits="userSpaceOnUse" xlink:href="#linearGradient3803"/>
  <linearGradient id="linearGradient4022" x1="37" x2="37" y1="72.1" y2="84" gradientTransform="matrix(1 0 0 .214 -26 -2)" gradientUnits="userSpaceOnUse" xlink:href="#linearGradient3803"/>
 </defs>
 <metadata id="metadata7">
  <rdf:RDF>
   <cc:Work rdf:about="">
    <dc:format>image/svg+xml</dc:format>
    <dc:type rdf:resource="http://purl.org/dc/dcmitype/StillImage"/>
    <dc:title/>
   </cc:Work>
  </rdf:RDF>
 </metadata>
 <g id="layer1">
  <rect id="rect4004" x="5" y="13" width="6" height="3" fill="url(#linearGradient4014)"/>
  <path id="path4006" d="m3.2 15h9.6l1.2 1h-12l1.2-1z" fill="url(#linearGradient4016)"/>
  <rect id="rect4008" x="5" y="13" width="1" height="3" fill="url(#linearGradient4018)" opacity=".5"/>
  <rect id="rect4010" x="5" y="13" width="6" height="2" fill="url(#linearGradient4020)" opacity=".8"/>
  <rect id="rect4012" x="10" y="13" width="1" height="3" fill="url(#linearGradient4022)" opacity=".5"/>
  <rect id="rect3196" transform="rotate(-90)" x="-13" width="13" height="16" rx="2" ry="2" fill="url(#linearGradient3204)"/>
  <path id="rect3988" d="m0 10v1c0 1.11 0.892 2 2 2h12c1.11 0 2-0.892 2-2v-1c0 1.11-0.892 2-2 2h-12c-1.11 0-2-0.892-2-2z" fill="#787878"/>
  <path id="path2843" d="m2 0.969c-0.583 0-1.03 0.448-1.03 1.03v1c0-0.583 0.448-1.03 1.03-1.03h12c0.583 0 1.03 0.448 1.03 1.03v-1c0-0.583-0.448-1.03-1.03-1.03h-12z" fill="#fff" opacity=".15"/>
  <path id="path3215-7" transform="matrix(-.167 0 0 -.148 16 11.8)" d="m12.1 5.33v60.6h71.9v-60.6z" fill="url(#radialGradient4002)"/>
  <path id="path4130" d="m2 2v9h12v-9zm1 1h10v7h-10z" opacity=".3"/>
  <path id="path3937" d="m8 2.97 2.92 7.03h2.14v-7.03z" fill="url(#linearGradient3971)" fill-rule="evenodd" opacity=".7"/>
  <rect id="rect3997" x="9" y="12" width="2" height="1" fill="#d2d2d2" opacity=".8"/>
  <rect id="rect3999" x="12" y="12" width="2" height="1" fill="#d2d2d2" opacity=".8"/>
  <path id="rect2835" d="m0 11c0 1.11 0.892 2 2 2h12c1.11 0 2-0.892 2-2v-9c0-1.11-0.892-2-2-2h-12c-1.11 0-2 0.892-2 2zm0.969 0v-9c0-0.583 0.448-1.03 1.03-1.03h12c0.583 0 1.03 0.448 1.03 1.03v9c0 0.583-0.448 1.03-1.03 1.03h-12c-0.583 0-1.03-0.448-1.03-1.03z" fill="url(#linearGradient3629)" opacity=".4"/>
 </g>
</svg>
