<?xml version="1.0" encoding="UTF-8"?>
<!-- Created with Inkscape (http://www.inkscape.org/) -->
<svg id="svg2" width="16" height="16" version="1.1" xmlns="http://www.w3.org/2000/svg" xmlns:cc="http://creativecommons.org/ns#" xmlns:dc="http://purl.org/dc/elements/1.1/" xmlns:rdf="http://www.w3.org/1999/02/22-rdf-syntax-ns#" xmlns:xlink="http://www.w3.org/1999/xlink">
 <defs id="defs4">
  <linearGradient id="linearGradient3204" x1="1" x2="15" y1="9" y2="9" gradientTransform="translate(-1,-2)" gradientUnits="userSpaceOnUse">
   <stop id="stop3811" stop-color="#f0f0f0" offset="0"/>
   <stop id="stop3813" stop-color="#e1e1e1" offset=".2814"/>
   <stop id="stop3815" stop-color="#c0c0c0" offset=".7515"/>
   <stop id="stop3817" stop-color="#b2b2b2" offset="1"/>
  </linearGradient>
  <linearGradient id="linearGradient3629" x2="29.017" y1="8" y2="8" gradientTransform="matrix(0,-1,1,0,0,16)" gradientUnits="userSpaceOnUse">
   <stop id="stop3330" offset="0"/>
   <stop id="stop3333" stop-opacity="0" offset="1"/>
  </linearGradient>
  <linearGradient id="linearGradient3896" x1="220.37" x2="185.21" y1="756.76" y2="491.07" gradientTransform="matrix(.016389 0 0 .016389 1.0005 1.0015)" gradientUnits="userSpaceOnUse" xlink:href="#linearGradient5498"/>
  <linearGradient id="linearGradient5498">
   <stop id="stop5500" stop-color="#eee" offset="0"/>
   <stop id="stop5502" stop-color="#eee" stop-opacity="0" offset="1"/>
  </linearGradient>
  <linearGradient id="linearGradient3894" x1="247.48" x2="130.32" y1="274.88" y2="580.55" gradientTransform="matrix(.016389 0 0 .016389 1.0005 1.0015)" gradientUnits="userSpaceOnUse" xlink:href="#linearGradient5498"/>
  <linearGradient id="linearGradient3892" x1="370.62" x2="370.21" y1="-309.6" y2="458.38" gradientTransform="matrix(.016389 0 0 .016389 1.0005 1.0015)" gradientUnits="userSpaceOnUse" xlink:href="#linearGradient5498"/>
  <linearGradient id="linearGradient3890" x1="1508.5" x2="361.14" y1="-363.42" y2="630.52" gradientTransform="matrix(.016389 0 0 .016389 1.0005 1.0015)" gradientUnits="userSpaceOnUse" xlink:href="#linearGradient5498"/>
  <linearGradient id="linearGradient3887" x1="331.5" x2="409.85" y1="790.52" y2="688.75" gradientTransform="matrix(.018448 0 0 .018448 .31423 .35334)" gradientUnits="userSpaceOnUse" xlink:href="#XMLID_5_"/>
  <linearGradient id="XMLID_5_" x1="220.95" x2="278.14" y1="634.63" y2="560.35" gradientUnits="userSpaceOnUse">
   <stop id="stop119" stop-color="#fff" offset="0"/>
   <stop id="stop121" stop-color="#193d6b" offset="1"/>
  </linearGradient>
  <linearGradient id="linearGradient3885" x1="319.19" x2="373.13" y1="713.55" y2="626.01" gradientTransform="matrix(.018448 0 0 .018448 .31423 .35334)" gradientUnits="userSpaceOnUse" xlink:href="#XMLID_5_"/>
  <linearGradient id="linearGradient3883" x1="264.54" x2="335.1" y1="704.24" y2="612.61" gradientTransform="matrix(.018448 0 0 .018448 .31423 .35334)" gradientUnits="userSpaceOnUse" xlink:href="#XMLID_5_"/>
  <linearGradient id="linearGradient3880" x1="237.21" x2="328.18" y1="684.02" y2="565.87" gradientTransform="matrix(.018448 0 0 .018448 .31423 .35334)" gradientUnits="userSpaceOnUse" xlink:href="#XMLID_5_"/>
  <linearGradient id="linearGradient3878" x1="220.95" x2="278.14" y1="634.63" y2="560.35" gradientTransform="matrix(.018448 0 0 .018448 .31423 .35334)" gradientUnits="userSpaceOnUse" xlink:href="#XMLID_5_"/>
  <linearGradient id="linearGradient3876" x1="429.85" x2="480.12" y1="815.45" y2="643.31" gradientTransform="matrix(-.018448 0 0 .018448 17.863 .35334)" gradientUnits="userSpaceOnUse">
   <stop id="stop112" stop-color="#fff" offset="0"/>
   <stop id="stop114" stop-color="#e5eaf2" offset="1"/>
  </linearGradient>
  <radialGradient id="radialGradient3873" cx="375.21" cy="783.16" r="300.58" gradientTransform="matrix(.018448 0 0 .018448 .31423 .35334)" gradientUnits="userSpaceOnUse">
   <stop id="stop29547" stop-color="#eeeeef" stop-opacity=".94118" offset=".0112"/>
   <stop id="stop29549" stop-color="#6193cf" offset=".292"/>
   <stop id="stop29551" stop-color="#2c72c7" offset=".4575"/>
   <stop id="stop29553" stop-color="#0057ae" offset=".6767"/>
   <stop id="stop29555" stop-color="#004d9a" offset=".8653"/>
   <stop id="stop29557" stop-color="#00438a" offset="1"/>
  </radialGradient>
  <linearGradient id="linearGradient3871" x1="13.188" x2="82.812" y1="48" y2="48" gradientTransform="matrix(0 .19444 -.19444 0 17.333 -1.3333)" gradientUnits="userSpaceOnUse">
   <stop id="stop3987" offset="0"/>
   <stop id="stop3989" stop-opacity="0" offset="1"/>
  </linearGradient>
  <mask id="XMLID_23_" x="122.963" y="97.149" width="576.609" height="587.491" maskUnits="userSpaceOnUse">
   <g id="g31" filter="url(#Adobe_OpacityMaskFilter)">
    <radialGradient id="XMLID_24_" cx="88.978" cy="-20.899" r="673.12" gradientUnits="userSpaceOnUse">
     <stop id="stop34" stop-color="#fff" offset=".309"/>
     <stop id="stop36" offset="1"/>
    </radialGradient>
    <ellipse id="ellipse38" cx="295.89" cy="286.17" rx="512.93" ry="349.11" fill="url(#XMLID_24_) #000000"/>
   </g>
  </mask>
  <radialGradient id="radialGradient3078" cx="663.91" cy="649.23" r="427.12" gradientTransform="matrix(.016389 0 0 .016389 1.0005 1.0015)" gradientUnits="userSpaceOnUse">
   <stop id="stop14" stop-color="#fff" offset="0"/>
   <stop id="stop16" stop-color="#e6e6e6" offset=".2814"/>
   <stop id="stop18" stop-color="#c0c0c0" offset=".7515"/>
   <stop id="stop20" stop-color="#b2b2b2" offset="1"/>
  </radialGradient>
 </defs>
 <metadata id="metadata7">
  <rdf:RDF>
   <cc:Work rdf:about="">
    <dc:format>image/svg+xml</dc:format>
    <dc:type rdf:resource="http://purl.org/dc/dcmitype/StillImage"/>
    <dc:title/>
   </cc:Work>
  </rdf:RDF>
 </metadata>
 <g id="layer1">
  <rect id="rect3196" transform="matrix(0,1,1,0,0,0)" width="16" height="16" rx="2" ry="2" fill="url(#linearGradient3204)"/>
  <path id="rect2835" d="m0 14c0 1.108 0.892 2 2 2h12c1.108 0 2-0.892 2-2v-12c0-1.108-0.892-2-2-2h-12c-1.108 0-2 0.892-2 2v12zm0.96875 0v-12c0-0.5832 0.44805-1.0312 1.0312-1.0312h12c0.5832 0 1.0312 0.44805 1.0312 1.0312v12c0 0.5832-0.44805 1.0312-1.0312 1.0312h-12c-0.5832 0-1.0312-0.44805-1.0312-1.0312z" fill="url(#linearGradient3629)" opacity=".4"/>
  <path id="path2843" d="m2 0.96875c-0.5832 0-1.0312 0.44805-1.0312 1.0312v1c0-0.5832 0.44805-1.0312 1.0312-1.0312h12c0.5832 0 1.0312 0.44805 1.0312 1.0312v-1c0-0.5832-0.44805-1.0312-1.0312-1.0312h-12z" fill="#fff" opacity=".4"/>
  <path id="circle22" d="m14.77 8.0015c0 3.7367-3.0327 6.7694-6.7694 6.7694-3.7367 0-6.7694-3.0327-6.7694-6.7694 0-3.7367 3.0327-6.7694 6.7694-6.7694 3.7367 0 6.7694 3.0327 6.7694 6.7694z" fill="url(#radialGradient3078)"/>
  <path id="path4002" transform="matrix(.19444 0 0 .19444 -1.3333 -1.3333)" d="m66.719 33.375c-0.29378 0.19865-0.61017 0.39952-0.96875 0.6875-0.47372 0.38045-0.96692 0.80772-1.4375 1.1875s-0.80788 0.70388-1.5312 1.0312c0.16662-0.07537-0.73424 0.42352-1.6562 1s-2.0756 1.3064-3.2188 2.0625-2.2807 1.5316-3.1562 2.1562c-0.43778 0.31232-0.83118 0.60626-1.0938 0.8125s-0.46211 0.43692-0.28125 0.21875c-1.2295 1.4838-3.1292 2.1506-4.8438 2.0312-0.42776-0.02978-1.6001-0.05751-2.6875 0s-2.2965 0.36996-2.125 0.28125c0.17083-0.08833-0.52485 0.40445-1.2188 0.96875s-1.5675 1.268-2.4375 2-1.7491 1.4764-2.5312 2.0938-1.2818 1.0731-2.1562 1.4688c-1.7881 0.80883-3.6675 1.1437-4.8438 1.25 0.87551-0.07932 0.4364-0.12968 0.125 0.09375s-0.77222 0.58336-1.2188 0.96875c-0.89306 0.77077-1.6032 1.5064-2.4375 2.0938-0.66395 0.4671-1.0531 0.59898-1.75 0.90625s-1.5133 0.65622-2.3438 1c-0.6075 0.25149-1.1462 0.49438-1.6875 0.71875 0.36731 0.54724 0.72347 1.083 1.2188 1.7188 0.72757 0.93389 1.526 1.868 2.1562 2.5312 0.31514 0.33163 0.5877 0.5821 0.75 0.71875s0.48248 0.05442-0.5-0.09375c0.3153 0.04759 0.71709-0.03548 1.4375 0.625 0.3602 0.33024 0.7425 1.0534 0.71875 1.75-0.02375 0.69665-0.31938 1.1513-0.53125 1.4062-0.42375 0.50998-0.6963 0.59791-0.9375 0.71875s-0.45457 0.20365-0.6875 0.28125c-0.0084 0.0028-0.02277-0.0028-0.03125 0 0.34274 0.56279 0.55474 1.0174 1.0938 1.7188 1.9037 2.4772 5.0678 5.6144 10.062 8.0938 8.4653 4.2019 14.82 1.725 18.625 0.5625 1.0857-0.33168 1.493-0.55044 1.5938-0.59375 0.0943-1.2937 0.23871-2.3238 0.40625-3.6875 0.03609-0.29375 0.30317-3.9826 0.78125-7.6562 0.23904-1.8368 0.52486-3.7512 0.9375-5.4688s0.85582-3.2119 1.7812-4.5c1.4765-2.0557 3.8152-3.8197 6.1562-5.3125 1.0245-0.65327 1.9773-1.1762 2.9062-1.6562-0.57871 0.04516-1.078 0.10837-1.8125 0.09375-0.63346-0.01261-1.2839-0.05726-1.9375-0.1875-0.65358-0.13024-1.4865-0.09825-2.3125-1.3438-0.48143-0.72621-0.39574-1.2517-0.375-1.5938 0.02074-0.34202 0.05956-0.57262 0.125-0.8125 0.13088-0.47975 0.31589-0.94119 0.53125-1.4375 0.43072-0.99262 1.0053-2.1307 1.625-3.2812 1.2395-2.3011 2.5346-4.4516 2.9688-5.125 0.145-0.22502 0.18704-0.38594 0.1875-0.46875s0.01119-0.18514-0.28125-0.53125c-0.49948-0.59093-0.83031-1.0718-1.1562-1.5z" fill="#323232" opacity=".4"/>
  <path id="ellipse40" transform="matrix(.018448 0 0 .018448 .31423 .35334)" d="m699.57 390.89c0 162.15-129.16 293.75-288.3 293.75s-288.3-131.6-288.3-293.75 129.16-293.75 288.3-293.75 288.3 131.6 288.3 293.75z" fill="#eee" mask="url(#XMLID_23_)" opacity=".86"/>
  <path id="path3993" d="m8 1.2309c-3.7367 0-6.7691 3.0324-6.7691 6.7691s3.0324 6.7691 6.7691 6.7691c3.7367 0 6.7691-3.0324 6.7691-6.7691s-3.0324-6.7691-6.7691-6.7691zm0 0.68663c3.3572 0 6.0825 2.7252 6.0825 6.0825 0 3.3572-2.7252 6.0825-6.0825 6.0825-3.3572 0-6.0825-2.7252-6.0825-6.0825 0-3.3572 2.7252-6.0825 6.0825-6.0825z" opacity=".15"/>
  <path id="path3980" d="m14.769 8c0-3.7367-3.0324-6.7691-6.7691-6.7691-3.7367 0-6.7691 3.0324-6.7691 6.7691 0 3.7367 3.0324 6.7691 6.7691 6.7691 3.7367 0 6.7691-3.0324 6.7691-6.7691zm-0.44358 0c0 3.4928-2.8328 6.3255-6.3255 6.3255-3.4928 0-6.3316-2.8328-6.3316-6.3255 0-3.4928 2.8388-6.3255 6.3316-6.3255 3.4928 0 6.3255 2.8328 6.3255 6.3255z" fill="url(#linearGradient3871)" opacity=".4"/>
  <path id="path43" d="m11.73 4.6519c-0.2817 0-0.82869 0.58749-1.0336 0.68024-0.20505 0.092756-1.828 1.1439-1.9818 1.3294-0.15371 0.18549-0.35872 0.26281-0.58079 0.24735-0.22206-0.015458-0.92414-0.021805-1.1633 0.10187-0.23919 0.12367-1.3309 1.1348-1.6043 1.2585-0.27332 0.12364-0.62994 0.18702-0.80076 0.20246-0.17083 0.015478-0.73677 0.58594-0.89053 0.69419-0.15374 0.10816-1.2778 0.54157-1.4486 0.63429-0.17085 0.092774 1.0045 1.5608 1.2095 1.5918 0.20498 0.03094-0.20137 0.1825-0.59579 0.1825-0.043423 0 0.56367 1.592 2.6337 2.6195 1.7895 0.88826 3.2313 0.34885 3.9364 0.13341 0.49861-0.15232 0.58902-0.22025 0.60616-0.4676 0.0171-0.24733 0.04798-0.44278 0.08217-0.72103 0.03418-0.27821 0.15369-2.6126 0.59793-3.2309 0.44411-0.61835 1.7137-1.3607 2.1578-1.4379 0.44419-0.077295 0.35879-0.23187 0.35879-0.371 0-0.13913-0.06835-0.44832-0.18793-0.4947-0.1196-0.046359-0.58622 0.23213-0.73996 0.26305-0.15376 0.030918-0.88834 0.077296-0.99085-0.077278-0.1025-0.15461 0.82873-1.7314 0.94831-1.9169 0.11954-0.18551 0.17081-0.43286-0.05123-0.69565-0.22217-0.26284-0.37593-0.52563-0.46132-0.52563z" fill="#323232" opacity=".2"/>
  <path id="path58" d="m11.131 3.834c-0.27327 0-0.80381 0.62973-1.0027 0.72915-0.19885 0.099433-1.7731 1.2262-1.9222 1.4251-0.14913 0.19883-0.348 0.2817-0.5634 0.26513-0.2154-0.016547-0.89638-0.023373-1.1284 0.10919-0.23202 0.13258-1.2909 1.2165-1.5561 1.3491-0.26511 0.13253-0.61101 0.20044-0.77673 0.21702-0.16568 0.016547-0.71463 0.62804-0.86376 0.74406-0.14913 0.11602-1.3276 0.62595-1.4933 0.72533-0.16572 0.099433 1.2089 1.4919 1.4078 1.525 0.19885 0.03319-0.18855 0.5958-0.51955 0.78767-0.58077 0.33665 0.24358 1.3239 2.2515 2.4253 1.7358 0.95211 3.7494 0.75157 4.4333 0.52068 0.48366-0.16334 0.07055-0.54823 0.08715-0.81334 0.01653-0.26515 0.03046-0.61378 0.06361-0.91202 0.03317-0.29826 0.14911-2.8005 0.57998-3.4633 0.43081-0.66277 1.6622-1.4585 2.093-1.5413 0.43087-0.082849 0.34798-0.24857 0.34798-0.39768 0-0.14911-0.06627-0.48055-0.18228-0.53026-0.11598-0.049698-0.56858 0.24882-0.71771 0.28196-0.14913 0.033133-0.86168 0.082868-0.96113-0.082831-0.09942-0.16574 0.80384-1.8559 0.91984-2.0548 0.11602-0.19887 0.1657-0.46402-0.04974-0.74568-0.21534-0.28175-0.36449-0.56345-0.44734-0.56345z" fill="url(#radialGradient3873)"/>
  <path id="path60" d="m7.8253 6.9577s-0.65648-0.10102-1.0353 0.27779c-0.37881 0.37879-0.70714 1.2121-0.68181 1.4646 0.025216 0.25253 0.78281-0.85858 1.1111-0.93431 0.32832-0.075784 0.68183-0.63138 0.60603-0.80811z" fill="#fff"/>
  <path id="path116" d="m9.483 10.443s-0.58745 1.9998-0.6023 2.0307c-0.08396 0.17448-0.23881 0.68008-0.18549 0.84336 0.06277 0.19236 0.29808 0.47202 0.4079 0.61186 0.10982 0.13989 0.15688 0.20981 0.1255 0.26229-0.03136 0.05245-0.43926 0.05245-0.43926 0.05245s-0.31374-0.47204-0.37654-0.64687c-0.06272-0.17479-0.09412-0.54192-0.03134-0.66427 0.06274-0.1224 1.1015-2.4895 1.1015-2.4895z" fill="url(#linearGradient3876)" opacity=".18"/>
  <path id="polygon123" d="m5.3425 10.816-1.0732 0.92905 1.3455-0.80091-0.27231-0.12814z" fill="url(#linearGradient3878)" opacity=".2"/>
  <path id="polygon130" d="m6.3997 10.495-1.8261 2.3707 2.0984-2.2105-0.27229-0.16014z" fill="url(#linearGradient3880)" opacity=".2"/>
  <path id="polygon137" d="m6.5438 11.312-1.3936 2.2105 1.7139-2.0663-0.32035-0.14415z" fill="url(#linearGradient3883)" opacity=".20132"/>
  <path id="polygon144" d="m7.3607 11.216-1.1693 2.7391 1.5538-2.659-0.38443-0.08012z" fill="url(#linearGradient3885)" opacity=".2"/>
  <path id="polygon151" d="m7.8253 11.937-0.096131 2.4988 0.41646-2.4668-0.32033-0.032045z" fill="url(#linearGradient3887)" opacity=".2"/>
  <path id="path2270" d="m7.8988 12.955c-1.1409-0.50761-2.17-1.2042-3.059-2.0707-0.099808-0.097281-0.12211-0.12324-0.12211-0.14215 0-0.01986 0.028467-0.04813 0.20063-0.19929 0.35059-0.30782 0.42772-0.38998 0.48747-0.51924 0.061009-0.13197 0.18707-0.28754 0.43294-0.53429 0.54283-0.54476 1.5282-1.3589 1.993-1.6466 0.080782-0.050005 0.12721-0.086149 0.19111-0.14878 0.20274-0.19873 0.51676-0.60031 1.171-1.4975 0.69642-0.95503 0.93086-1.2637 1.1627-1.5309 0.14006-0.16143 0.24306-0.25726 0.28301-0.2633 0.01697-0.00257 0.04517-0.00712 0.06264-0.010121 0.01748-0.00299 0.03981-0.00162 0.04964 0.00307 0.0098 0.00468 0.0242 0.010528 0.03194 0.01299 0.01484 0.00471 0.29749 0.32453 0.40159 0.4544 0.12469 0.15555 0.13592 0.19887 0.07353 0.28362-0.02329 0.03163-0.04572 0.077117-0.06298 0.12772-0.02966 0.086926-0.18242 0.39573-0.41749 0.84389-0.18481 0.35235-0.43496 0.85045-0.51314 1.0218-0.16503 0.36165-0.24552 0.61077-0.22446 0.6947 0.0069 0.027475 0.04858 0.04713 0.16054 0.075702 0.2619 0.066835 0.50403 0.056716 0.72966-0.030494 0.03413-0.013191 0.11417-0.054068 0.17788-0.090838 0.19448-0.11225 0.34108-0.17501 0.52414-0.22436 0.08745-0.023577 0.10824-0.026054 0.22475-0.026783 0.12224-7.614e-4 0.13036 2.087e-4 0.16954 0.020338 0.03557 0.018272 0.04209 0.025569 0.04804 0.053777 0.01342 0.063558 0.01577 0.10442 0.0065 0.11365-0.0051 0.00504-0.0092 0.017426-0.0092 0.027521 0 0.041408-0.09958 0.074867-0.37721 0.12674-0.29122 0.05441-0.30528 0.060272-0.50794 0.21178-0.45366 0.33915-1.1595 0.95354-1.4099 1.2272-0.11359 0.12416-0.28773 0.36444-0.52244 0.72089-0.52661 0.79976-0.89143 1.4904-0.98889 1.8721-0.01937 0.07585-0.07384 0.41844-0.1233 0.77537-0.04565 0.32944-0.04768 0.33936-0.06954 0.33861-0.0096-3.1e-4 -0.088276-0.03207-0.17473-0.07053z" fill="url(#linearGradient3890)" opacity=".58"/>
  <path id="path2476" d="m4.8131 8.5031c-0.00506-0.018146-0.00404-0.17757 0.00171-0.25219 0.00404-0.053387 0.00739-0.071027 0.021669-0.11297 0.043999-0.12966 0.10833-0.20184 0.20138-0.22595 0.034712-9e-3 0.053542-0.018216 0.10374-0.05078 0.1031-0.066893 0.23469-0.17795 0.44528-0.37581 0.057143-0.053688 0.28897-0.2817 0.51516-0.5067 0.2262-0.225 0.42143-0.41645 0.43386-0.42545 0.012429-9e-3 0.03073-0.018513 0.04067-0.021144 0.072629-0.01922 0.24827-0.028537 0.69366-0.036797 0.4185-0.00776 0.59672-0.015824 0.65169-0.029482 0.056926-0.014146 0.18683-0.091071 0.44868-0.26571 0.18934-0.12627 0.59229-0.40489 0.8258-0.57098 0.06266-0.044571 0.08815-0.060237 0.09802-0.060237 0.0073 0 0.0146-0.00204 0.01613-0.00452 0.0016-0.00249 0.0059-0.00452 0.0097-0.00452 0.0057 0 0.0065 0.00461 0.0045 0.025984-0.0051 0.054823-0.0084 0.066092-0.02561 0.08908-0.04696 0.062632-0.17065 0.16372-0.31647 0.25864-0.03744 0.024368-0.11014 0.076914-0.16156 0.11677-0.51861 0.40195-0.87093 0.63987-1.0233 0.691-0.030201 0.01014-0.041891 0.01154-0.096266 0.01154-0.10487 0-0.22533 0.022732-0.43087 0.08131-0.30292 0.086341-0.58159 0.19958-0.72801 0.29584-0.12714 0.083588-0.2293 0.24403-0.33194 0.52131-0.040382 0.10909-0.088006 0.27035-0.14538 0.49225-0.014296 0.055292-0.02737 0.10276-0.029058 0.10549-0.00171 0.00272-0.27329 0.062782-0.60356 0.13346-0.33027 0.070677-0.60399 0.12958-0.60826 0.13089-0.0056 0.00171-0.00873-0.00117-0.011301-0.010306z" fill="url(#linearGradient3892)"/>
  <path id="path5482" d="m3.2577 10.515c-0.0063-0.0014-0.018667-0.0026-0.027518-0.0027-0.038826-3.95e-4 -0.14903-0.05605-0.26761-0.13516-0.12862-0.08581-0.23199-0.16784-0.34918-0.27709-0.02359-0.02199-0.064696-0.05985-0.091345-0.08412-0.071564-0.065202-0.18197-0.17612-0.21442-0.21544-0.059329-0.071873-0.091087-0.12477-0.095453-0.15899-0.00661-0.052033-0.00638-0.064299 0.0021-0.10905 0.00194-0.010143 0.027004-0.031974 0.061141-0.053192 0.063887-0.039713 0.19979-0.13189 0.67865-0.46027 0.72858-0.49964 1.0355-0.70278 1.1974-0.79241 0.041004-0.022711 0.052306-0.025247 0.11286-0.025309 0.058038-6.61e-5 0.10687 0.00513 0.14157 0.015104 0.069378 0.019911 0.17663 0.061826 0.2712 0.106 0.047203 0.02205 0.050594 0.02415 0.050594 0.031321 0 0.00692-0.00171 0.00814-0.016396 0.012297-0.03395 0.00954-0.12457 0.039371-0.19889 0.065481-0.45155 0.15863-0.90338 0.37742-1.3074 0.63307-0.095754 0.060589-0.10687 0.068732-0.14263 0.1045-0.10159 0.10159-0.19304 0.26032-0.21854 0.3793-0.00358 0.016613-0.00521 0.036346-0.00521 0.062736-3.19e-5 0.042078 0.00498 0.064089 0.020829 0.091076 0.062518 0.10668 0.37991 0.20742 0.79043 0.25088 0.11977 0.012678 0.17493 0.01561 0.29652 0.015758l0.11834 1.474e-4 0.031368-0.010834c0.083871-0.028965 0.19863-0.094525 0.44768-0.25575 0.21581-0.1397 0.28242-0.1804 0.35928-0.21951 0.071968-0.036618 0.10832-0.047499 0.13931-0.041689 0.011791 0.00218 0.013953 0.00884 0.014109 0.043035 1.842e-4 0.049451-0.00521 0.068273-0.030263 0.1055-0.07238 0.10756-0.2505 0.25375-0.50107 0.41123-0.21058 0.13234-0.45041 0.25505-0.57813 0.29581-0.012087 0.0039-0.044536 0.01217-0.072092 0.01848-0.14725 0.03368-0.29433 0.08612-0.48883 0.1743-0.027533 0.01248-0.051839 0.02159-0.061304 0.02298-0.027907 0.0041-0.055331 0.0051-0.067006 0.0025z" fill="url(#linearGradient3894)" opacity=".7"/>
  <path id="path6524" d="m3.7643 9.6864c-0.0028-3.685e-4 -0.038687-0.0014-0.079823-0.00226-0.074052-0.00156-0.12042-0.00474-0.18653-0.012833-0.15333-0.018768-0.25553-0.048984-0.29138-0.086147-0.00762-0.00788-0.010119-0.017236-0.00999-0.03724 1.105e-4 -0.026056 0.00257-0.036221 0.013705-0.058077 0.047234-0.092645 0.18311-0.23935 0.34313-0.37047 0.035109-0.02877 0.093338-0.072473 0.12356-0.092736l0.021801-0.014622 0.9898-0.11973 0.032768 0.00187c0.030466 0.00171 0.056537 0.00366 0.12292 0.00908 0.030621 0.00249 0.032993 0.00358 0.0301 0.014039-0.00109 0.0035-0.00171 0.0095-0.00171 0.01337-1.33e-5 0.00992-0.015587 0.04641-0.037295 0.087262-0.11701 0.22041-0.35333 0.49804-0.51056 0.59978-0.045064 0.029167-0.076689 0.042957-0.11732 0.051178-0.041448 0.00838-0.094382 0.013697-0.15323 0.0154-0.057836 0.00171-0.28086 0.00327-0.28988 0.0021z" fill="url(#linearGradient3896)"/>
  <path id="path3966" d="m8 1c-3.8615 0-7 3.1385-7 7 0 3.8615 3.1385 7 7 7 3.8615 0 7-3.1385 7-7 0-3.8615-3.1385-7-7-7zm0 0.46143c3.6119 0 6.5386 2.9266 6.5386 6.5386 0 3.6119-2.9266 6.5386-6.5386 6.5386-3.6119 0-6.5386-2.9266-6.5386-6.5386 0-3.6119 2.9266-6.5386 6.5386-6.5386z" color="#000000" fill="#1c5eaa" style="block-progression:tb;text-indent:0;text-transform:none"/>
 </g>
</svg>
