<?xml version="1.0" encoding="UTF-8"?>
<!-- Created with Inkscape (http://www.inkscape.org/) -->
<svg id="svg2" width="16" height="16" version="1.1" xmlns="http://www.w3.org/2000/svg" xmlns:cc="http://creativecommons.org/ns#" xmlns:dc="http://purl.org/dc/elements/1.1/" xmlns:rdf="http://www.w3.org/1999/02/22-rdf-syntax-ns#" xmlns:xlink="http://www.w3.org/1999/xlink">
 <defs id="defs4">
  <linearGradient id="linearGradient3327">
   <stop id="stop3330" offset="0"/>
   <stop id="stop3333" stop-opacity="0" offset="1"/>
  </linearGradient>
  <linearGradient id="linearGradient3192" x1="9.0575" x2="9.0575" y1="10.203" y2="-12.199" gradientTransform="translate(0 5.8007)" gradientUnits="userSpaceOnUse" xlink:href="#linearGradient3327"/>
  <linearGradient id="linearGradient3204" x1="1" x2="15" y1="9" y2="9" gradientTransform="translate(-17,-2)" gradientUnits="userSpaceOnUse">
   <stop id="stop4086" stop-color="#78a591" offset="0"/>
   <stop id="stop4088" stop-color="#b1cec2" offset="1"/>
  </linearGradient>
  <linearGradient id="linearGradient3629" x2="29.017" y1="8" y2="8" gradientTransform="matrix(0,-1,1,0,0,16)" gradientUnits="userSpaceOnUse" xlink:href="#linearGradient3327"/>
  <linearGradient id="linearGradient4152" x1="48" x2="48" y1="6" y2="109.11" gradientTransform="matrix(.19048 0 0 .19048 -1.1429 -1.1429)" gradientUnits="userSpaceOnUse">
   <stop id="stop3739" stop-color="#fff" offset="0"/>
   <stop id="stop3741" stop-color="#fff" stop-opacity="0" offset="1"/>
  </linearGradient>
  <radialGradient id="radialGradient3833" cx="24.218" cy="13.492" r="10.214" gradientTransform="scale(.88763 1.1266)" gradientUnits="userSpaceOnUse" xlink:href="#linearGradient556"/>
  <linearGradient id="linearGradient556">
   <stop id="stop557" stop-color="#fff" offset="0"/>
   <stop id="stop558" stop-color="#8f8f8f" offset="1"/>
  </linearGradient>
  <radialGradient id="radialGradient3835" cx="31.638" cy="4.2912" r="6.1138" gradientTransform="scale(1.0613 .94223)" gradientUnits="userSpaceOnUse" xlink:href="#linearGradient561"/>
  <linearGradient id="linearGradient561">
   <stop id="stop562" stop-color="#72a6db" offset="0"/>
   <stop id="stop563" stop-color="#4974aa" offset="1"/>
  </linearGradient>
  <linearGradient id="linearGradient3837" x1="66.897" x2="68.417" y1="9.7093" y2="18.199" gradientTransform="scale(.57791 1.7304)" gradientUnits="userSpaceOnUse" xlink:href="#linearGradient561"/>
  <linearGradient id="linearGradient3839" x1="42.008" x2="56.889" y1="5.456" y2="14.642" gradientTransform="scale(.65313 1.5311)" gradientUnits="userSpaceOnUse" xlink:href="#linearGradient635"/>
  <linearGradient id="linearGradient635">
   <stop id="stop636" stop-color="#fff" offset="0"/>
   <stop id="stop637" stop-color="#fff" stop-opacity=".17647" offset="1"/>
  </linearGradient>
  <radialGradient id="radialGradient3841" cx="15.486" cy="16.135" r="27.532" gradientTransform="scale(.99284 1.0072)" gradientUnits="userSpaceOnUse">
   <stop id="stop565" stop-color="#3278c6" offset="0"/>
   <stop id="stop566" stop-color="#264980" offset="1"/>
  </radialGradient>
  <linearGradient id="linearGradient3843" x1="40.971" x2="23.981" y1="41.885" y2="21.709" gradientTransform="scale(.99284 1.0072)" gradientUnits="userSpaceOnUse">
   <stop id="stop605" stop-opacity=".23922" offset="0"/>
   <stop id="stop606" stop-opacity="0" offset="1"/>
  </linearGradient>
  <radialGradient id="radialGradient3845" cx="56.925" cy="25.591" r="5.3431" gradientTransform="scale(1.122 .89128)" gradientUnits="userSpaceOnUse" xlink:href="#linearGradient561"/>
  <linearGradient id="linearGradient3847" x1="25.033" x2="25.338" y1="15.336" y2="24.687" gradientTransform="scale(.95998 1.0417)" gradientUnits="userSpaceOnUse" xlink:href="#linearGradient635"/>
  <linearGradient id="linearGradient3849" x1="27.607" x2="28.115" y1="16.387" y2="24.093" gradientTransform="scale(.88763 1.1266)" gradientUnits="userSpaceOnUse" xlink:href="#linearGradient556"/>
  <radialGradient id="radialGradient3851" cx="32.369" cy="3.3555" r="6.057" gradientTransform="scale(1.0404 .96117)" gradientUnits="userSpaceOnUse" xlink:href="#linearGradient561"/>
  <linearGradient id="linearGradient3853" x1="36.83" x2="37.26" y1="47.909" y2="54.864" gradientTransform="scale(1.5175 .65899)" gradientUnits="userSpaceOnUse" xlink:href="#linearGradient561"/>
  <linearGradient id="linearGradient3855" x1="29.954" x2="30.472" y1="68.697" y2="63.224" gradientTransform="scale(1.8472 .54137)" gradientUnits="userSpaceOnUse">
   <stop id="stop642" stop-opacity=".41569" offset="0"/>
   <stop id="stop643" stop-opacity="0" offset="1"/>
  </linearGradient>
  <linearGradient id="linearGradient3079" x1="29.049" x2="29.396" y1="63.282" y2="68.898" gradientTransform="scale(1.9257 .5193)" gradientUnits="userSpaceOnUse" xlink:href="#linearGradient561"/>
 </defs>
 <metadata id="metadata7">
  <rdf:RDF>
   <cc:Work rdf:about="">
    <dc:format>image/svg+xml</dc:format>
    <dc:type rdf:resource="http://purl.org/dc/dcmitype/StillImage"/>
    <dc:title/>
   </cc:Work>
  </rdf:RDF>
 </metadata>
 <g id="layer1">
  <rect id="rect2410" x=".49972" y=".5" width="15" height="15.5" rx="2" ry="2" fill="url(#linearGradient3192)" opacity=".3"/>
  <rect id="rect3194" x="1" y="2" width="14" height="14" rx="2" ry="2" opacity=".4"/>
  <rect id="rect3196" transform="rotate(-90)" x="-16" width="16" height="16" rx="2" ry="2" fill="url(#linearGradient3204)"/>
  <path id="path2843" d="m2 0.96875c-0.5832 0-1.0312 0.44805-1.0312 1.0312v1c0-0.5832 0.44805-1.0312 1.0312-1.0312h12c0.5832 0 1.0312 0.44805 1.0312 1.0312v-1c0-0.5832-0.44805-1.0312-1.0312-1.0312h-12z" fill="#fff" opacity=".4"/>
  <path id="path4141" d="m2.8333 0 4.9107 7.744-7.744-4.9821v3.5238l7.6607 1.7143-7.6607 1.6667v3.5l7.744-4.9107-4.9821 7.744h3.5238l1.7143-7.6607 1.6667 7.6607h3.5l-4.9107-7.744 7.744 4.9821v-3.5238l-7.6607-1.7143 7.6607-1.6667v-3.5l-7.744 4.9107 4.9821-7.744h-3.5238l-1.7143 7.6607-1.6667-7.6607h-3.5z" fill="url(#linearGradient4152)" opacity=".45"/>
  <path id="rect2835" d="m0 14c0 1.108 0.892 2 2 2h12c1.108 0 2-0.892 2-2v-12c0-1.108-0.892-2-2-2h-12c-1.108 0-2 0.892-2 2v12zm0.96875 0v-12c0-0.5832 0.44805-1.0312 1.0312-1.0312h12c0.5832 0 1.0312 0.44805 1.0312 1.0312v12c0 0.5832-0.44805 1.0312-1.0312 1.0312h-12c-0.5832 0-1.0312-0.44805-1.0312-1.0312z" fill="url(#linearGradient3629)" opacity=".4"/>
 </g>
 <g id="layer2" fill-rule="evenodd">
  <path id="path3816" d="m13.844 2.8125c-1.058 0.25833-1.5438 0.86126-1.9375 1.5625-0.30666 0.69998-0.52284 1.384-0.65625 2.0625-0.33212-0.41363-0.70103-0.84023-1.125-1.2188-0.082869-0.074088-0.16434-0.14778-0.25-0.21875-0.13226-0.10939-0.26822-0.21226-0.40625-0.3125-0.07977-0.057979-0.16846-0.10185-0.25-0.15625-0.15173-0.10124-0.31205-0.19456-0.46875-0.28125-0.01691-0.01671-0.04494-0.015357-0.0625-0.03125-0.01703-0.015414-0.04483-0.016745-0.0625-0.03125-0.18224-0.14958-0.38972-0.26899-0.65625-0.3125-0.0092-0.00321-0.02206 0.00315-0.03125 0-0.02188-0.00751-0.04061-0.02404-0.0625-0.03125-0.16565-0.053824-0.3326-0.094009-0.5-0.125-0.01028-0.00209-0.02096 2e-3 -0.03125 0-0.17735-0.031301-0.35341-0.060194-0.53125-0.0625-0.35744 0.00992-0.70585 0.07361-1.0312 0.15625-0.12879 0.032708-0.25177 0.081679-0.375 0.125-0.03081 0.011883-0.06326 0.018771-0.09375 0.03125-0.16312 0.061485-0.31638 0.13935-0.46875 0.21875-0.16801-0.081653-0.34853-0.14859-0.59375-0.15625-1.3053 0-2.2188 1.1791-2.2188 2.1875 0.03787-0.022237 0.08645-0.013019 0.125-0.03125-0.094914 0.26987-0.15625 0.56036-0.15625 0.875 0 0.48353 0.13305 0.92052 0.34375 1.2812-0.0088 0.13628-0.03125 0.26667-0.03125 0.40625 0 0.35398 0.03156 0.6953 0.09375 1.0312 0.0561 0.30306 0.15099 0.58809 0.25 0.875-0.03084-0.03665-0.05696-0.0705-0.0625-0.09375-0.23065 0.15687-0.36806 0.33108-0.375 0.5625-0.0273 0.10959-0.0088 0.22998 0.03125 0.375 0.02641 0.08402 0.08275 0.14878 0.15625 0.21875 0.0039 0.10337 0.02739 0.22393 0.125 0.40625 0.31985 0.54136 0.84232 0.87599 1.5312 0.9375 0.09473 0.0098 0.18816 0.02743 0.28125 0.03125 0.59573 0.4638 1.2959 0.77609 2.0312 0.875 0.0096 0.0014 0.02168-0.0013 0.03125 0 0.13968 0.01768 0.29516 0.0291 0.4375 0.03125 0.1663 0.0023 0.33249-0.0076 0.5-0.03125 0.02152-3e-3 0.04098-0.02784 0.0625-0.03125 0.1458-0.0231 0.2922-0.05299 0.4375-0.09375 0.1452-0.04086 0.29359-0.06824 0.4375-0.125 0.02143-0.0084 0.04111-0.02248 0.0625-0.03125 0.20685-0.08502 0.42363-0.19915 0.625-0.3125 0.27862-0.15857 0.55167-0.32934 0.8125-0.53125 0.07078-0.05429 0.11836-0.13067 0.1875-0.1875 0.18141-0.1502 0.36317-0.30405 0.53125-0.46875 0.03647-0.03574 0.08923-0.05746 0.125-0.09375 0.0787-0.07951 0.1437-0.16827 0.21875-0.25 0.34159-0.37202 0.62678-0.76739 0.875-1.1562 0.01509-0.02367 0.0478-0.03886 0.0625-0.0625 0.0065 0.02273-0.0067 0.03927 0 0.0625 0.56591 0.39365 1.2469 1.0832 2.2188 0.8125-0.73814-0.67661-1.2756-1.1025-1.3125-2.8125 0.09844-0.91034 0.28519-1.2968 0.53125-1.875 0.14762-1.3778-0.18697-2.5852 0.625-4z" opacity=".4"/>
  <g id="g2335" transform="matrix(.30195 0 0 .30195 -11.473 -19.611)">
   <path id="path617" transform="translate(25.684 64.782)" d="m30.267 20.252a5.6614 7.1856 0 1 1-11.323 0 5.6614 7.1856 0 1 1 11.323 0z" fill="url(#radialGradient3833)"/>
   <path id="path618" transform="translate(15.858 74.436)" d="m40.968 10.542c0 3.3396-6.81-5.8722-12.1-2.7657 0-3.3396 3.0212-7.2688 7.344-7.2688 5.5328 0.17288 4.7562 6.6949 4.7562 10.034z" fill="url(#radialGradient3835)" stroke-width="1pt"/>
   <path id="path619" transform="translate(40,65)" d="m34.713 23.554c-0.0815-3.9113 0.8148-8.1894 2.689-12.467 1.3038-2.3224 2.9743-4.278 6.4782-5.1336-2.6891 4.6855-1.589 8.6376-2.0779 13.201-0.8149 1.9149-1.5075 3.2189-1.8335 6.2338 0.1223 5.6633 1.9557 7.0487 4.4003 9.2895-3.2187 0.8964-5.4595-1.3853-7.3337-2.689-0.9779-3.3817-1.3446-5.0522-2.3224-8.434z" fill="url(#linearGradient3837)"/>
   <g id="g595" transform="matrix(.71859 0 0 .71858 2.1673 69.947)">
    <path id="path596" transform="translate(0 -.12225)" d="m64.476 21.173a2.0743 2.1607 0 1 1-4.1486 0 2.0743 2.1607 0 1 1 4.1486 0z"/>
    <path id="path597" d="m63.958 20.395a0.77786 1.0372 0 1 1-1.5557 0 0.77786 1.0372 0 1 1 1.5557 0z" fill="#808080"/>
   </g>
   <path id="path630" transform="translate(40,65)" d="m35.691 19.887c1.263-5.9486 1.5483-6.7634 2.3224-8.6783 0.8555-1.589 1.3445-2.9335 5.1336-4.7669-2.0372 1.7112-3.0965 3.6668-3.9113 6.2337-0.4075 2.1186-1.1816 4.2373-0.7334 11.245-0.6519-1.0593-2.1594-2.9743-2.8113-4.0336z" fill="url(#linearGradient3839)" fill-opacity=".47183"/>
   <path id="path615" transform="translate(40,65)" d="m39.358 25.754c-0.2444 5.9561-9.8889 17.357-18.701 17.234-8.0789-0.1222-15.034-7.9781-15.034-17.357 0-9.3784 6.0997-16.623 14.912-16.868 9.4235 0.12222 18.946 13.234 18.823 16.99z" fill="url(#radialGradient3841)" stroke-width="1pt"/>
   <path id="path599" transform="translate(40,65)" d="m39.358 25.754c-0.2444 5.9561-9.8889 17.357-18.701 17.234-8.0789-0.1222-15.034-7.9781-15.034-17.357 0-9.3784 6.0997-16.623 14.912-16.868 9.4235 0.12222 18.946 13.234 18.823 16.99z" fill="url(#linearGradient3843)" stroke-width="1pt"/>
   <path id="path632" transform="translate(40,65)" d="m30.557 20.498c2.0779 3.1331 1.3797 5.7609 0.2514 7.5749-1.1283 1.8142-4.2791 2.7994-5.9962 2.6924-6.0078-0.3667-5.1336-3.0235-5.1336-8.5562 0-5.5326 3.6483-10.878 7.0893-10.878 2.5854 0.6112 3.7891 3.6347 3.7891 9.1673z" fill-opacity=".19718" stroke-width="1pt"/>
   <path id="path624" transform="matrix(.95249 0 0 1.1466 1.8795 60.007)" d="m72.36 25.082a6.5393 5.1947 0 1 1-13.079 0 6.5393 5.1947 0 1 1 13.079 0z" fill="url(#radialGradient3845)"/>
   <path id="path633" transform="matrix(1 0 0 .93264 39.878 66.198)" d="m30.069 22.209a5.7448 6.2337 0 1 1-11.49 0 5.7448 6.2337 0 1 1 11.49 0z" fill="url(#linearGradient3847)"/>
   <path id="path552" transform="matrix(1.0324 0 0 1.0595 38.516 63.149)" d="m30.267 20.252a5.6614 7.1856 0 1 1-11.323 0 5.6614 7.1856 0 1 1 11.323 0z" fill="url(#linearGradient3849)"/>
   <path id="path600" transform="translate(28.937 74.68)" d="m40.89 10.542c-0.9766-0.87914-3.9537-5.755-11.788-2.7966 0-3.3396 1.32-8.0934 5.6428-8.0934 5.5328 0.17288 6.1449 7.5504 6.1449 10.89z" fill="url(#radialGradient3851)" stroke-width="1pt"/>
   <g id="g611" transform="matrix(.71859 0 0 .71858 21.479 70.386)">
    <path id="path604" transform="translate(0 -.12225)" d="m64.476 21.173a2.0743 2.1607 0 1 1-4.1486 0 2.0743 2.1607 0 1 1 4.1486 0z"/>
    <path id="path605" d="m63.958 20.395a0.77786 1.0372 0 1 1-1.5557 0 0.77786 1.0372 0 1 1 1.5557 0z" fill="#808080"/>
   </g>
   <path id="path623" transform="translate(-1.1915 67.2)" d="m47.792 31.621c0.2038 0.8556 6.2745 3.4224 15.89-0.2445 0.387-0.0408 2.2985-2.1103 2.2908-1.7026-0.0187 1.1104-0.8848 2.5877-2.0123 3.8196-2.404 2.9334-6.5529 4.7278-11.279 4.239-2.2816-0.2037-4.0423-1.3851-5.1016-3.178-0.9051-1.6907-0.3172-1.9963 0.2124-2.9335z" fill="url(#linearGradient3853)"/>
   <path id="path631" transform="translate(-1.6541 65.384)" d="m48.158 31.621c0.2038 0.8556 5.9078 3.7891 15.523 0.1222 1.2892-0.662 2.1738-0.0872 0.8556 1.9556-2.4039 2.4446-9.6969 3.4225-11.978 3.0558-2.2816-0.2037-5.0521-1.0186-5.5003-2.4446-0.3391-1.2267 0.0815-1.9963 1.1-2.689z" fill="url(#linearGradient3855)"/>
   <path id="path621" transform="translate(-1.5582 65)" d="m48.158 31.621c0.2038 0.8556 5.5953 4.9609 15.836 0.9816 0.6836-0.2919 1.9301-0.8606 2.1868-0.8178 0.3767 0.0741-0.4768 0.9707-1.4874 1.9922-2.4039 2.4445-9.8532 3.3443-12.135 2.9776-2.2816-0.2037-5.0521-1.0186-5.5003-2.4446-0.3391-1.2267 0.0815-1.9963 1.1-2.689z" fill="url(#linearGradient3079)"/>
  </g>
 </g>
</svg>
