<?xml version="1.0" encoding="UTF-8"?>
<svg id="svg2" width="16" height="16" version="1.1" xmlns="http://www.w3.org/2000/svg" xmlns:cc="http://creativecommons.org/ns#" xmlns:dc="http://purl.org/dc/elements/1.1/" xmlns:rdf="http://www.w3.org/1999/02/22-rdf-syntax-ns#">
 <metadata id="metadata31">
  <rdf:RDF>
   <cc:Work rdf:about="">
    <dc:format>image/svg+xml</dc:format>
    <dc:type rdf:resource="http://purl.org/dc/dcmitype/StillImage"/>
   </cc:Work>
  </rdf:RDF>
 </metadata>
 <defs id="defs4">
  <linearGradient id="linearGradient3204" x1="1" x2="15" y1="9" y2="9" gradientTransform="translate(-17,-2)" gradientUnits="userSpaceOnUse">
   <stop id="stop3189" stop-color="#e02051" offset="0"/>
   <stop id="stop3191" stop-color="#e43964" offset="1"/>
  </linearGradient>
  <linearGradient id="linearGradient3629" x2="29.017" y1="8" y2="8" gradientTransform="matrix(0,-1,1,0,0,16)" gradientUnits="userSpaceOnUse">
   <stop id="stop3330" offset="0"/>
   <stop id="stop3333" stop-opacity="0" offset="1"/>
  </linearGradient>
 </defs>
 <g id="layer1">
  <rect id="rect3196" transform="rotate(-90)" x="-16" width="16" height="16" rx="2" ry="2" fill="url(#linearGradient3204)"/>
  <path id="rect2835" d="m0 14c0 1.108 0.892 2 2 2h12c1.108 0 2-0.892 2-2v-12c0-1.108-0.892-2-2-2h-12c-1.108 0-2 0.892-2 2v12zm0.96875 0v-12c0-0.5832 0.44805-1.0312 1.0312-1.0312h12c0.5832 0 1.0312 0.44805 1.0312 1.0312v12c0 0.5832-0.44805 1.0312-1.0312 1.0312h-12c-0.5832 0-1.0312-0.44805-1.0312-1.0312z" fill="url(#linearGradient3629)" opacity=".4"/>
  <path id="path2843" d="m2 0.96875c-0.5832 0-1.0312 0.44805-1.0312 1.0312v1c0-0.5832 0.44805-1.0312 1.0312-1.0312h12c0.5832 0 1.0312 0.44805 1.0312 1.0312v-1c0-0.5832-0.44805-1.0312-1.0312-1.0312h-12z" fill="#fff" opacity=".35"/>
 </g>
 <g id="main" transform="translate(1 1) scale(.85714)">
  <path id="path23" d="m8 2c-0.67771 0.0029149-1.3514 0.10423-2 0.30078v8.6992c0 0.554-0.446 1-1 1s-1-0.446-1-1v-7.7422c-1.8789 1.3083-2.9992 3.4527-3 5.7422 0 3.866 3.134 7 7 7s7-3.134 7-7-3.134-7-7-7zm-0.68164 4c0.00976-4.095e-4 0.019536-4.095e-4 0.029297 0 0.057653 0.0012 0.11407 0.01665 0.16406 0.044922l4.8125 2.6602c0.23423 0.12913 0.23423 0.46071 0 0.58984l-2.4063 1.332-2.4062 1.3301c-0.22911 0.1262-0.51167-0.03665-0.51172-0.29492v-5.3242c-3.842e-4 -0.17731 0.13857-0.32479 0.31836-0.33789z" opacity=".3"/>
  <path id="base" d="m8 1c-0.67771 0.0029149-1.3514 0.10423-2 0.30078v8.6992c0 0.554-0.446 1-1 1s-1-0.446-1-1v-7.7422c-1.8789 1.3083-2.9992 3.4527-3 5.7422 0 3.866 3.134 7 7 7s7-3.134 7-7-3.134-7-7-7zm-0.68164 4c0.00976-4.095e-4 0.019536-4.095e-4 0.029297 0 0.057653 0.0012 0.11407 0.01665 0.16406 0.044922l4.8125 2.6602c0.23423 0.12913 0.23423 0.46071 0 0.58984l-2.4063 1.332-2.4062 1.3301c-0.22911 0.1262-0.51167-0.036647-0.51172-0.29492v-5.3242c-3.842e-4 -0.17731 0.13857-0.32479 0.31836-0.33789z" fill="#fff"/>
 </g>
</svg>
