<?xml version="1.0" encoding="UTF-8"?>
<!-- Created with Inkscape (http://www.inkscape.org/) -->
<svg id="svg2" width="16" height="16" version="1.1" xmlns="http://www.w3.org/2000/svg" xmlns:cc="http://creativecommons.org/ns#" xmlns:dc="http://purl.org/dc/elements/1.1/" xmlns:rdf="http://www.w3.org/1999/02/22-rdf-syntax-ns#" xmlns:xlink="http://www.w3.org/1999/xlink">
 <defs id="defs4">
  <linearGradient id="linearGradient3204" x1="1" x2="15" y1="9" y2="9" gradientTransform="translate(-1,-2)" gradientUnits="userSpaceOnUse">
   <stop id="stop3189-1" stop-color="#ff0a0a" offset="0"/>
   <stop id="stop4177" stop-color="#c70404" offset=".5"/>
   <stop id="stop3191-0" stop-color="#7c0000" offset="1"/>
  </linearGradient>
  <linearGradient id="linearGradient3629" x2="29.017" y1="8" y2="8" gradientTransform="matrix(0,-1,1,0,0,16)" gradientUnits="userSpaceOnUse">
   <stop id="stop3330" offset="0"/>
   <stop id="stop3333" stop-opacity="0" offset="1"/>
  </linearGradient>
  <radialGradient id="radialGradient4283" cx="46.29" cy="54.148" r="13.781" gradientUnits="userSpaceOnUse">
   <stop id="stop4461" stop-color="#fff" offset="0"/>
   <stop id="stop3483" stop-color="#fff" stop-opacity=".34146" offset=".5"/>
   <stop id="stop4463" stop-color="#fff" stop-opacity="0" offset="1"/>
  </radialGradient>
  <filter id="filter4689" color-interpolation-filters="sRGB">
   <feGaussianBlur id="feGaussianBlur4691" stdDeviation="0.65275495"/>
  </filter>
  <radialGradient id="radialGradient3930" cx="-26.369" cy="6.7089" r="59" gradientTransform="matrix(.13807 0 1.9745e-8 .07857 10.973 1.5085)" gradientUnits="userSpaceOnUse">
   <stop id="stop4629" stop-color="#595959" offset="0"/>
   <stop id="stop4625" offset="1"/>
  </radialGradient>
 </defs>
 <metadata id="metadata7">
  <rdf:RDF>
   <cc:Work rdf:about="">
    <dc:format>image/svg+xml</dc:format>
    <dc:type rdf:resource="http://purl.org/dc/dcmitype/StillImage"/>
    <dc:title/>
   </cc:Work>
  </rdf:RDF>
 </metadata>
 <g id="layer1">
  <rect id="rect3196" transform="matrix(0,1,1,0,0,0)" width="16" height="16" rx="2" ry="2" fill="url(#linearGradient3204)"/>
  <path id="path3932" transform="matrix(.164 0 0 .25027 -2.4735 -3.8659)" d="m89.45 33.898a25.486 9.8984 0 1 1-50.972 0 25.486 9.8984 0 1 1 50.972 0z" fill="#ffd903" filter="url(#filter4689)" opacity=".8"/>
  <rect id="rect3955" x="7" y="4" width="1" height="12" color="#000000" opacity=".1"/>
  <path id="path3942" d="m6.3397 3.4815c0.41022 0.0047789 0.54488 0.50237 0.39255 0.82124-0.093374 0.44271-0.51802 0.68504-0.6838 1.0846-0.21382 0.53838-0.029991 1.1293 0.23825 1.612 0.21664 0.45341 0.4842 0.99224 1.0138 1.1278 0.31168 0.098978 0.56933-0.18684 0.87516-0.1199 0.38664 0.065428 0.77444 0.40728 1.171 0.19006 0.26523-0.19397 0.42258-0.49943 0.59538-0.77193 0.38731-0.67087 0.25706-1.54-0.1819-2.1537-0.17314-0.28217-0.44077-0.50326-0.58522-0.80037-0.1062-0.41576 0.13655-0.85286-0.038439-1.259-0.24694-0.30526-0.69182-0.17885-1.0177-0.10009-0.46338 0.1444-0.95397 0.41252-1.4468 0.23743-0.12358-0.014993-0.25349 0.035117-0.33222 0.13185z" fill-opacity=".75" fill-rule="evenodd"/>
  <rect id="rect3957" x="8" y="4" width="1" height="12" color="#000000" fill="#fff" opacity=".1"/>
  <path id="path3928" d="m2 0c-1.108 0-2 0.892-2 2v0.96875c2.2071 1.0976 3.8618 1.8125 8 1.8125 4.1382 1e-7 5.7929-0.7149 8-1.8125v-0.96875c0-1.108-0.892-2-2-2z" fill="url(#radialGradient3930)"/>
  <path id="rect2835" d="m0 14c0 1.108 0.892 2 2 2h12c1.108 0 2-0.892 2-2v-12c0-1.108-0.892-2-2-2h-12c-1.108 0-2 0.892-2 2v12zm0.96875 0v-12c0-0.5832 0.44805-1.0312 1.0312-1.0312h12c0.5832 0 1.0312 0.44805 1.0312 1.0312v12c0 0.5832-0.44805 1.0312-1.0312 1.0312h-12c-0.5832 0-1.0312-0.44805-1.0312-1.0312z" fill="url(#linearGradient3629)" opacity=".4"/>
  <path id="path2843" d="m2 0.96875c-0.5832 0-1.0312 0.44805-1.0312 1.0312v1c0-0.5832 0.44805-1.0312 1.0312-1.0312h12c0.5832 0 1.0312 0.44805 1.0312 1.0312v-1c0-0.5832-0.44805-1.0312-1.0312-1.0312h-12z" fill="#fff" opacity=".1"/>
  <path id="path3477" transform="matrix(.11299 0 0 .118 -.052545 -4.2323)" d="m60.071 54.148a13.781 13.781 0 1 1-27.562 0 13.781 13.781 0 1 1 27.562 0z" fill="url(#radialGradient4283)" opacity=".7"/>
  <path id="path3934" d="m2.4406 7.1185v0c0-0.85186-1.6086 1.0941-1.4314 1.7125 0.21685 0.7567 0.071604 0.95139 0.90656 0.95139 0.50007 0 0.77394-0.41041 1.002-0.71354 0.33384-0.44378 0.42942-0.66962 0.42942-1.1417 0-0.15032-0.31416-0.54883-0.42942-0.65455-0.16947-0.15544-0.1167-0.082256-0.47714-0.15412z" fill-opacity=".70588" fill-rule="evenodd"/>
  <path id="path3936" d="m13.414 7.2012c-0.43273-0.2972-1.2512-0.38587-1.1871 0.21801 0.08214 0.77417 0.33865 1.0069 0.624 1.3844 0.10194 0.13486 0.62918 0.61482 0.81808 0.69103 0.45138 0.18213 0.69938-0.12272 0.92351-0.39904 0.32918-0.40583-0.3708-1.4407-0.61814-1.7679-0.20711-0.27399-0.17703-0.25812-0.38541-0.34221-0.085964-0.034687-0.11663 0.14378-0.17494 0.21568z" fill-opacity=".70588" fill-rule="evenodd"/>
  <path id="path3938" d="m5.8103 10.162c-0.11087-0.087854-0.51384-0.16502-0.70734-0.17961-0.1168-0.0088025-0.56058 0.382-0.68349 0.5041-0.22053 0.21908-0.44983 0.51822-0.65483 0.7967-0.13813 0.18764-0.22977 0.42504-0.34257 0.7571-0.13138 0.38673-0.062786 0.56178-0.17211 0.8836-0.10939 0.32202 0.057026 0.45852 0.2238 0.59775 0.087512 0.07305 0.47792 0.08492 0.63247 0.1487 0.14563 0.0601 0.33645 0.195 0.5074 0.26555 0.14942 0.06166 0.2601 0.05504 0.52294-0.17727 0.23836-0.21067 0.3741 0.06197 0.80577-0.34132 0.19567-0.18281 0.43632-0.78177 0.51783-1.0217 0.14778-0.43501 0.069452-0.79826 0.043068-0.8807-0.08694-0.27165-0.11846-0.67472-0.219-0.98886-0.11039-0.34491-0.19094-0.15403-0.47394-0.36405z" fill-opacity=".70588" fill-rule="evenodd"/>
  <path id="path3940" d="m10.103 10.336c0.10181-0.31923 0.64299-0.19287 0.97641-0.0438 0.36929 0.1651 0.40581 0.23643 0.67528 0.59194 0.37428 0.4938 0.49357 0.47989 0.60157 0.99297 0.1085 0.51545-0.20043 0.74024-0.30504 1.0683-0.05497 0.17236-0.31415 0.38853-0.41204 0.50961-0.11594 0.1434-0.35757 0.20771-0.53398 0.3331-0.26435 0.1879-0.62524-0.16466-0.80123-0.28197-0.30311-0.20204-0.36768-0.63907-0.40974-0.8389-0.063421-0.3013-0.30524-0.49424-0.47001-0.87346-0.10815-0.2489-0.28827-0.81564-0.31117-0.92444-0.045754-0.21737 0.21866-0.34316 0.33262-0.48412 0.081258-0.1005 0.24232-0.18559 0.47512-0.2603 0.14561-0.04673 0.06572-0.05703 0.18221 0.21108z" fill-opacity=".70588" fill-rule="evenodd"/>
  <path id="path3944" d="m0 2.9688c-1.6242e-4 0.010551 0 0.020659 0 0.03125v0.96875c2.2071 1.0976 3.8618 1.8125 8 1.8125 4.1382 1e-7 5.7929-0.7149 8-1.8125v-0.96875c0-0.010591 1.62e-4 -0.020699 0-0.03125-2.2071 1.0976-3.8618 1.8125-8 1.8125-4.1382 0-5.7929-0.7149-8-1.8125z" opacity=".3"/>
 </g>
</svg>
