<?xml version="1.0" encoding="UTF-8"?>
<svg id="svg2" width="16" height="16" version="1.1" xmlns="http://www.w3.org/2000/svg" xmlns:cc="http://creativecommons.org/ns#" xmlns:dc="http://purl.org/dc/elements/1.1/" xmlns:rdf="http://www.w3.org/1999/02/22-rdf-syntax-ns#">
 <metadata id="metadata31">
  <rdf:RDF>
   <cc:Work rdf:about="">
    <dc:format>image/svg+xml</dc:format>
    <dc:type rdf:resource="http://purl.org/dc/dcmitype/StillImage"/>
   </cc:Work>
  </rdf:RDF>
 </metadata>
 <defs id="defs4">
  <linearGradient id="linearGradient3204" x1="1" x2="15" y1="9" y2="9" gradientTransform="translate(-17,-2)" gradientUnits="userSpaceOnUse">
   <stop id="stop3189" stop-color="#860000" offset="0"/>
   <stop id="stop3191" stop-color="#b90909" offset="1"/>
  </linearGradient>
  <linearGradient id="linearGradient3629" x2="29.017" y1="8" y2="8" gradientTransform="matrix(0,-1,1,0,0,16)" gradientUnits="userSpaceOnUse">
   <stop id="stop3330" offset="0"/>
   <stop id="stop3333" stop-opacity="0" offset="1"/>
  </linearGradient>
 </defs>
 <g id="layer1">
  <rect id="rect3196" transform="rotate(-90)" x="-16" width="16" height="16" rx="2" ry="2" fill="url(#linearGradient3204)"/>
  <path id="rect2835" d="m0 14c0 1.108 0.892 2 2 2h12c1.108 0 2-0.892 2-2v-12c0-1.108-0.892-2-2-2h-12c-1.108 0-2 0.892-2 2v12zm0.96875 0v-12c0-0.5832 0.44805-1.0312 1.0312-1.0312h12c0.5832 0 1.0312 0.44805 1.0312 1.0312v12c0 0.5832-0.44805 1.0312-1.0312 1.0312h-12c-0.5832 0-1.0312-0.44805-1.0312-1.0312z" fill="url(#linearGradient3629)" opacity=".4"/>
  <path id="path2843" d="m2 0.96875c-0.5832 0-1.0312 0.44805-1.0312 1.0312v1c0-0.5832 0.44805-1.0312 1.0312-1.0312h12c0.5832 0 1.0312 0.44805 1.0312 1.0312v-1c0-0.5832-0.44805-1.0312-1.0312-1.0312h-12z" fill="#fff" opacity=".35"/>
 </g>
 <defs id="defs21">
  <linearGradient id="a" x1="8" x2="8" y1="1" y2="15" gradientUnits="userSpaceOnUse">
   <stop id="stop16" stop-color="#fff" offset="0"/>
   <stop id="stop18" stop-color="#fff" offset="1"/>
  </linearGradient>
 </defs>
 <g id="main" transform="translate(1 1) scale(.85714)">
  <path id="path23" d="m6.9375 2c-0.6108 0-0.86691 0.41796-0.68359 1.1152 0.15864 0.6034 0.00895 1.0919-0.5293 1.7266-0.08326 0.09817-0.44539 0.47657-0.80469 0.8418-0.35931 0.36522-0.74477 0.77438-0.85547 0.9082-0.74557 0.9012-1.0928 1.7574-1.1367 2.8066l-0.017578 0.42383 0.089844 0.035156c0.04881 0.0196 0.19366 0.041828 0.32227 0.048828 0.26242 0.01446 0.50628-0.040146 0.7168-0.16016l0.12695-0.072266 0.021484-0.25977c0.1036-1.2537 0.66897-2.3211 1.6289-3.0723 0.23991-0.18775 0.77231-0.5468 0.78516-0.5293 0.00398 0.00544 0.18754 0.33301 0.4082 0.72852 0.57685 1.0339 1.006 1.7116 1.4512 2.293 0.22327 0.2916 0.73114 0.82625 0.88867 0.93555 0.04811 0.03338 0.23696 0.088606 0.44336 0.12891 0.1978 0.0386 0.38147 0.071266 0.4082 0.072266 0.07972 0.00381 0.42578-0.33121 0.42578-0.41211 0-0.0753-0.07098-0.14719-0.54688-0.56445-0.6588-0.5777-1.3207-1.4122-1.7715-2.2344-0.43699-0.797-0.74737-1.7492-0.86719-2.6621-0.047495-0.3638-0.047185-1.3643 0-1.6016 0.027752-0.13873 0.0257-0.19348-0.0078124-0.27148-0.05831-0.13583-0.25491-0.22461-0.49609-0.22461zm5.8203 8.0664c-0.49536-0.01541-1.0045 0.16211-1.4629 0.5332l-0.14062 0.11328-0.21094-0.03125c-0.47732-0.07276-1.0862 0.02755-1.4648 0.24023-0.74694 0.4195-1.1175 1.3479-0.94727 2.3691 0.2311 1.3861 1.327 2.4439 2.7539 2.6602 0.29977 0.04501 0.93972 0.01384 1.2363-0.06055 0.57626-0.14444 1.0562-0.40312 1.4746-0.79492 0.66509-0.6228 1.0039-1.3923 1.0039-2.2812 0-0.8229-0.31171-1.598-0.85547-2.127-0.40925-0.39808-0.89136-0.60569-1.3867-0.62109zm-7.0488 0.17774c-0.22647-0.0466-0.65868-0.04098-0.88867 0.01172-0.2279 0.05227-0.58335 0.20804-0.7832 0.3418l-0.14258 0.09375-0.21875-0.05469c-0.16221-0.0404-0.32808-0.05373-0.63281-0.05273-0.36791 0.0012-0.44036 0.01023-0.65234 0.08203-0.8407 0.2848-1.3307 0.99627-1.3867 2.0137-0.0883 1.6037 1.1243 3.0542 2.7578 3.3008 0.10093 0.0152 0.36862 0.02358 0.5957 0.01758 0.8872-0.02263 1.6224-0.33903 2.2383-0.96289 0.39693-0.40208 0.63697-0.8067 0.80859-1.3594 0.076795-0.24836 0.084907-0.30589 0.085937-0.81641 0.00164-0.49152-0.00555-0.57886-0.070312-0.80469-0.2727-0.95065-0.93522-1.6509-1.7109-1.8105z" opacity=".3"/>
  <path id="base" d="m6.9375 1c-0.6108 0-0.86691 0.41796-0.68359 1.1152 0.15864 0.6034 0.0089532 1.0919-0.5293 1.7266-0.08326 0.09817-0.44539 0.47657-0.80469 0.8418-0.35931 0.36522-0.74477 0.77438-0.85547 0.9082-0.74557 0.9012-1.0928 1.7574-1.1367 2.8066l-0.017578 0.42383 0.089844 0.035156c0.04881 0.0196 0.19366 0.041828 0.32227 0.048828 0.26242 0.01446 0.50628-0.040146 0.7168-0.16016l0.12695-0.072266 0.021484-0.25977c0.1036-1.2537 0.66897-2.3211 1.6289-3.0723 0.23991-0.18775 0.77231-0.5468 0.78516-0.5293 0.00398 0.00544 0.18754 0.33301 0.4082 0.72852 0.57685 1.0339 1.006 1.7116 1.4512 2.293 0.22327 0.2916 0.73114 0.82625 0.88867 0.93555 0.04811 0.03338 0.23696 0.088606 0.44336 0.12891 0.1978 0.0386 0.38147 0.071266 0.4082 0.072266 0.07972 0.00381 0.42578-0.33121 0.42578-0.41211 0-0.0753-0.070975-0.14719-0.54688-0.56445-0.6588-0.5777-1.3207-1.4122-1.7715-2.2344-0.43699-0.797-0.74737-1.7492-0.86719-2.6621-0.047495-0.3638-0.047185-1.3643 0-1.6016 0.027752-0.13873 0.0257-0.19348-0.0078124-0.27148-0.05831-0.13583-0.25491-0.22461-0.49609-0.22461zm5.8203 8.0664c-0.49536-0.015405-1.0045 0.16211-1.4629 0.5332l-0.14062 0.11328-0.21094-0.03125c-0.47732-0.07276-1.0862 0.027554-1.4648 0.24023-0.74694 0.4195-1.1175 1.3479-0.94727 2.3691 0.2311 1.3861 1.327 2.4439 2.7539 2.6602 0.29977 0.045008 0.93972 0.013836 1.2363-0.060547 0.57626-0.14444 1.0562-0.40312 1.4746-0.79492 0.66509-0.6228 1.0039-1.3923 1.0039-2.2812 0-0.8229-0.31171-1.598-0.85547-2.127-0.40925-0.39808-0.89136-0.60569-1.3867-0.62109zm-7.0488 0.17773c-0.22647-0.0466-0.65868-0.040981-0.88867 0.011719-0.2279 0.05227-0.58335 0.20804-0.7832 0.3418l-0.14258 0.09375-0.21875-0.054687c-0.16221-0.0404-0.32808-0.053734-0.63281-0.052734-0.36791 0.0012-0.44036 0.010231-0.65234 0.082031-0.8407 0.2848-1.3307 0.99627-1.3867 2.0137-0.0883 1.6037 1.1243 3.0542 2.7578 3.3008 0.10093 0.0152 0.36862 0.023578 0.5957 0.017578 0.8872-0.02263 1.6224-0.33903 2.2383-0.96289 0.39693-0.40208 0.63697-0.8067 0.80859-1.3594 0.076795-0.24836 0.084908-0.30589 0.085938-0.81641 0.001645-0.49152-0.0055495-0.57886-0.070312-0.80469-0.2727-0.95065-0.93522-1.6509-1.7109-1.8105z" fill="url(#a)"/>
 </g>
</svg>
