<?xml version="1.0" encoding="UTF-8"?>
<!-- Created with Inkscape (http://www.inkscape.org/) -->
<svg id="svg2" width="16" height="16" version="1.1" xmlns="http://www.w3.org/2000/svg" xmlns:cc="http://creativecommons.org/ns#" xmlns:dc="http://purl.org/dc/elements/1.1/" xmlns:rdf="http://www.w3.org/1999/02/22-rdf-syntax-ns#" xmlns:xlink="http://www.w3.org/1999/xlink">
 <defs id="defs4">
  <linearGradient id="linearGradient3204" x1="1" x2="15" y1="9" y2="9" gradientTransform="translate(-17,-2)" gradientUnits="userSpaceOnUse">
   <stop id="stop3702" stop-color="#da8714" offset="0"/>
   <stop id="stop3704" stop-color="#f4d468" offset="1"/>
  </linearGradient>
  <linearGradient id="linearGradient2907" x2="16" y1="8" y2="8" gradientTransform="matrix(0,-1,1,0,0,16)" gradientUnits="userSpaceOnUse">
   <stop id="stop3700" stop-color="#90540e" offset="0"/>
   <stop id="stop3702-4" stop-color="#bd6f13" stop-opacity=".62016" offset="1"/>
  </linearGradient>
  <linearGradient id="linearGradient3824" x1="56" x2="56" y1="16" y2="80" gradientTransform="matrix(.2136 0 0 .20627 -2.2526 -.30171)" gradientUnits="userSpaceOnUse">
   <stop id="stop3855" offset="0"/>
   <stop id="stop3857" stop-color="#313131" offset="1"/>
  </linearGradient>
 </defs>
 <metadata id="metadata7">
  <rdf:RDF>
   <cc:Work rdf:about="">
    <dc:format>image/svg+xml</dc:format>
    <dc:type rdf:resource="http://purl.org/dc/dcmitype/StillImage"/>
   </cc:Work>
  </rdf:RDF>
 </metadata>
 <g id="layer1">
  <rect id="rect3196" transform="rotate(-90)" x="-16" width="16" height="16" rx="2" ry="2" fill="url(#linearGradient3204)"/>
  <path id="path3696" d="m0 14c0 1.108 0.892 2 2 2h12c1.108 0 2-0.892 2-2v-12c0-1.108-0.892-2-2-2h-12c-1.108 0-2 0.892-2 2v12zm1-0.03125v-11.938c0-0.58386 0.44739-1.0312 1.0312-1.0312h11.938c0.58386 0 1.0312 0.44739 1.0312 1.0312v11.938c0 0.58386-0.44739 1.0312-1.0312 1.0312h-11.938c-0.58386 0-1.0312-0.44739-1.0312-1.0312z" fill="url(#linearGradient2907)" opacity=".7"/>
  <path id="path3687" d="m2.0312 1c-0.58386 0-1.0312 0.44739-1.0312 1.0312v1c0-0.58386 0.44739-1.0312 1.0312-1.0312h11.938c0.58386 0 1.0312 0.44739 1.0312 1.0312v-1c0-0.58386-0.44739-1.0312-1.0312-1.0312h-11.938z" fill="#fff" opacity=".4"/>
  <path id="path3841" d="m8 2.3299c-1.8229 0-3.3825 1.3443-3.3825 3.0932a0.6933 0.6933 0 0 0 0 0.022254c0.00166 0.070329-0.00304 0.17861 0 0.26704-0.11077 0.19574-0.17038 0.41533-0.17803 0.60084-0.013624 0.33053 0.079577 0.65672 0.22253 0.97914 0.069268 0.15623 0.16291 0.29764 0.26704 0.44506 0.020795 0.080966 0.050052 0.17159 0.06676 0.24479a0.6933 0.6933 0 0 0 0.022254 0.06676c0.099194 0.28486 0.22796 0.50226 0.40056 0.75661 0.1317 0.19408 0.27649 0.38725 0.42281 0.57858 0.010914 0.14806-0.013741 0.30285-0.022253 0.44506-0.41078 0.24515-1.1012 0.50877-1.8248 0.77886-0.41455 0.15474-0.80546 0.31488-1.1572 0.53408-0.32376 0.20178-0.65657 0.54582-0.7121 1.0459h-0.044506l-0.11127 0.68985a0.6933 0.6933 0 0 0 0.68985 0.80111h10.682a0.6933 0.6933 0 0 0 0.68985-0.80111l-0.11127-0.68985h-0.0445c-0.03599-0.24416-0.11772-0.48226-0.24479-0.62309-0.14981-0.16604-0.3184-0.27732-0.48957-0.3783-0.34235-0.20197-0.72452-0.35271-1.1349-0.51182-0.72399-0.2807-1.4183-0.58434-1.8248-0.84562-0.0047-0.11779-0.02684-0.23485-0.02225-0.35605 0.1377-0.2048 0.28876-0.40698 0.42281-0.62309 0.17141-0.27634 0.30184-0.51762 0.40056-0.80112a0.6933 0.6933 0 0 0 0.02225-0.06676c0.0357-0.14445 0.04878-0.21947 0.06676-0.31154 0.08734-0.1136 0.16774-0.20453 0.24478-0.3783 0.13597-0.30666 0.20904-0.62219 0.20028-0.93463-0.0032-0.11117-0.12403-0.21504-0.15577-0.3338 0.01626-0.22385 0.01677-0.42441 0.02225-0.57858a0.6933 0.6933 0 0 0 0-0.022254c3e-6 -1.7489-1.5595-3.0932-3.3825-3.0932zm0 0.68985c1.4908 0 2.6926 1.0715 2.6926 2.4033-6e-3 0.16739-8e-3 0.36048-0.02225 0.55633 0.20368 0.14635 0.2221 0.57291 0.02225 1.0236-0.07213 0.16269-0.16932 0.28623-0.26704 0.40056-0.03162 0.1414-0.04831 0.25814-0.08901 0.42281-0.11073 0.31797-0.53697 0.95786-0.86788 1.4465-0.021328 0.32495-0.019647 0.64922 0.022254 0.97914 1.0347 0.86129 3.7343 1.3102 3.7385 2.0473l0.11127 0.68985h-10.682l0.11127-0.68985c-0.0040212-0.86129 2.691-1.2153 3.7385-2.0473 0.073012-0.40754 0.058556-0.75438 0.022254-1.1127-0.36395-0.46444-0.76786-1.0257-0.86788-1.3129-0.032287-0.14145-0.062314-0.23065-0.089013-0.35605-0.11184-0.12044-0.20814-0.2843-0.28929-0.46732-0.21045-0.47464-0.19142-0.94776 0.044506-1.0682-0.016576-0.18985-0.01864-0.35919-0.022253-0.51182 0-1.3319 1.2019-2.4033 2.6926-2.4033z" enable-background="new" fill="#fff" opacity=".2"/>
  <path id="path3798-5" d="m8 3.0198c-1.4908 0-2.6979 1.0608-2.6979 2.3927 0.00361 0.15264 0.010955 0.34185 0.027532 0.5317-0.23593 0.12039-0.26551 0.58877-0.055061 1.0634 0.081149 0.18302 0.19099 0.33151 0.30283 0.45195 0.026699 0.1254 0.050302 0.23074 0.082589 0.37219 0.10002 0.28722 0.517 0.83823 0.88095 1.3027 0.036303 0.35828 0.045482 0.70904-0.02753 1.1166-1.0476 0.83196-3.7481 1.1858-3.744 2.0471l-0.11012 0.69121h10.682l-0.11012-0.69121c-0.004273-0.73715-2.7093-1.1858-3.744-2.0471-0.0419-0.32992-0.048865-0.6587-0.027537-0.98365 0.3309-0.4886 0.77023-1.1176 0.88095-1.4356 0.04069-0.16467 0.05098-0.28396 0.08259-0.42536 0.09771-0.11433 0.20316-0.23609 0.2753-0.39878 0.19985-0.45074 0.17615-0.89048-0.02753-1.0368 0.01423-0.19585 0.02159-0.3909 0.02753-0.55829 1e-6 -1.3319-1.2071-2.3927-2.6979-2.3927z" enable-background="new" fill="url(#linearGradient3824)"/>
  <path id="path3855" d="m8 3.0198c-1.4908 0-2.6926 1.0715-2.6926 2.4033 0.00361 0.15264 0.00567 0.32197 0.022254 0.51182-0.23593 0.12039-0.25495 0.59352-0.044506 1.0682 0.081149 0.18302 0.17745 0.34688 0.28929 0.46732 0.0267 0.1254 0.056725 0.2146 0.089013 0.35605 0.10002 0.28722 0.50392 0.8485 0.86788 1.3129 0.036303 0.35828 0.050758 0.70512-0.022254 1.1127-1.0476 0.83196-3.7426 1.186-3.7385 2.0473l-0.11127 0.68985h10.682l-0.11127-0.68985c-0.004273-0.73714-2.7038-1.186-3.7385-2.0473-0.0419-0.32992-0.043581-0.65419-0.022253-0.97914 0.3309-0.4886 0.75715-1.1285 0.86788-1.4465 0.0407-0.16467 0.05739-0.28141 0.08901-0.42281 0.09771-0.11433 0.19491-0.23787 0.26704-0.40056 0.19985-0.45074 0.18143-0.8773-0.02225-1.0236 0.01423-0.19585 0.0163-0.38894 0.02225-0.55633 5e-6 -1.3319-1.2018-2.4033-2.6926-2.4033zm0 0.73436c1.1249 0 1.9457 0.77172 1.9583 1.6467 9.9e-5 0.00689 0 0.015352 0 0.022254-0.00591 0.174-0.010714 0.35297-0.022252 0.51182a0.74517 0.74517 0 0 0 0.13352 0.51182c-0.0044 0.055151-0.0155 0.12917-0.06676 0.24479-0.028266 0.063754-0.049511 0.12424-0.13352 0.22253a0.74517 0.74517 0 0 0-0.17803 0.3338c-0.031924 0.14277-0.04398 0.23057-0.06676 0.3338-0.0047 0.021235-0.016728 0.044392-0.022254 0.06676-0.030374 0.065356-0.1116 0.23035-0.24478 0.44506-0.1514 0.24409-0.34776 0.51436-0.51182 0.75661a0.74517 0.74517 0 0 0-0.11127 0.3783c-0.023614 0.35983-0.027024 0.72468 0.022253 1.1127a0.74517 0.74517 0 0 0 0.26704 0.48957c0.71333 0.59375 1.6603 0.87408 2.4479 1.1794 0.22552 0.08744 0.35946 0.16594 0.53408 0.24479h-8.1669c0.18775-0.09316 0.38378-0.18335 0.6676-0.28929 0.77741-0.29017 1.743-0.55743 2.4701-1.1349a0.74517 0.74517 0 0 0 0.26704-0.44506c0.088963-0.49657 0.061418-0.92641 0.022253-1.3129a0.74517 0.74517 0 0 0-0.15577-0.40056c-0.17463-0.22285-0.34524-0.4549-0.48957-0.6676s-0.24764-0.43101-0.24479-0.42281c-0.025708-0.10166-0.053267-0.20366-0.06676-0.26704a0.74517 0.74517 0 0 0-0.17803-0.35605c-0.027668-0.029795-0.096366-0.13306-0.15577-0.26704-0.055544-0.12527-0.062864-0.22866-0.06676-0.28929a0.74517 0.74517 0 0 0 0.15577-0.53408c-0.013052-0.14949-0.018785-0.29454-0.022253-0.44506-1.731e-4 -0.00751 1.787e-4 -0.0147 0-0.022253 0.012582-0.87502 0.83336-1.6467 1.9583-1.6467z" enable-background="new" opacity=".1"/>
  <path id="path3846" d="m8 3.0198c-1.4908 0-2.6926 1.0715-2.6926 2.4033 0.00345 0.14601 0.00715 0.30807 0.022254 0.48957 0.12666-1.2247 1.2644-2.1808 2.6704-2.1808 1.406 0 2.5437 0.95615 2.6704 2.1808 0.01115-0.17188 0.01701-0.34224 0.02225-0.48957 4e-6 -1.3319-1.2018-2.4033-2.6926-2.4033zm-2.6704 2.9152c-0.19876 0.10143-0.24781 0.45456-0.13352 0.84562 0.031998-0.060122 0.079394-0.1059 0.13352-0.13352-0.016576-0.18985-0.01864-0.35919-0.022253-0.51182 0-0.068232 0.016041-0.13358 0.022254-0.20028zm5.3408 0.06676c0.0027 0.045045 0.02225 0.087804 0.02225 0.13352-6e-3 0.16739-8e-3 0.36048-0.02225 0.55633 0.03785 0.027196 0.06388 0.065628 0.08901 0.11127 0.11054-0.36449 0.07225-0.66885-0.08901-0.80112zm-4.1391 3.9611c-0.00884 0.095395-0.00408 0.18785-0.022254 0.28929-1.0476 0.83196-3.7426 1.186-3.7385 2.0473l-0.11127 0.68985h0.11127c0.042604-0.84502 2.7001-1.2004 3.7385-2.025 0.065459-0.36538 0.049241-0.68095 0.022254-1.0014zm2.9374 0.044504c-0.019583 0.31775-0.0187 0.63445 0.022254 0.95689 1.0242 0.85256 3.6806 1.3011 3.7385 2.025h0.11127l-0.11127-0.68985c-0.0042-0.73714-2.7038-1.186-3.7385-2.0473-0.010476-0.08248-0.016044-0.16249-0.022254-0.24478z" enable-background="new" opacity=".4"/>
  <path id="path3073" d="m5.2812 7c-0.17489 0.16791-0.1894 0.57283 0 1 0.081149 0.18302 0.16941 0.34831 0.28125 0.46875 0.026699 0.1254 0.061463 0.23355 0.09375 0.375 0.098613 0.28319 0.51476 0.78976 0.875 1.25 0.043883-0.33778 0.031212-0.66071 0-0.96875-0.36395-0.46444-0.77498-0.99403-0.875-1.2812-0.032287-0.14145-0.067051-0.2496-0.09375-0.375-0.11184-0.12044-0.2001-0.28573-0.28125-0.46875zm5.4063 0c-0.07213 0.16269-0.15229 0.29192-0.25 0.40625-0.03161 0.1414-0.05306 0.27283-0.09375 0.4375-0.11073 0.31797-0.5441 0.9489-0.875 1.4375-0.020641 0.31448-0.00713 0.61829 0.03125 0.9375 0.32573-0.47982 0.73717-1.0689 0.84375-1.375 0.04069-0.16467 0.06214-0.2961 0.09375-0.4375 0.09771-0.11433 0.17787-0.24356 0.25-0.40625 0.18888-0.426 0.17371-0.83205 0-1zm-7.8125 6c-0.075503 0.09373-0.094252 0.20484-0.09375 0.3125l-0.125 0.6875h10.688l-0.125-0.6875c-5.93e-4 -0.10161-0.03323-0.22002-0.125-0.3125h-10.219z" enable-background="new" fill="#fff" opacity=".3"/>
 </g>
</svg>
