<?xml version="1.0" encoding="UTF-8"?>
<svg id="svg2" width="16" height="16" version="1.1" xmlns="http://www.w3.org/2000/svg" xmlns:cc="http://creativecommons.org/ns#" xmlns:dc="http://purl.org/dc/elements/1.1/" xmlns:rdf="http://www.w3.org/1999/02/22-rdf-syntax-ns#">
 <metadata id="metadata31">
  <rdf:RDF>
   <cc:Work rdf:about="">
    <dc:format>image/svg+xml</dc:format>
    <dc:type rdf:resource="http://purl.org/dc/dcmitype/StillImage"/>
   </cc:Work>
  </rdf:RDF>
 </metadata>
 <defs id="defs4">
  <linearGradient id="linearGradient3204" x1="1" x2="15" y1="9" y2="9" gradientTransform="translate(-17,-2)" gradientUnits="userSpaceOnUse">
   <stop id="stop3189" stop-color="#222" offset="0"/>
   <stop id="stop3191" stop-color="#555" offset="1"/>
  </linearGradient>
  <linearGradient id="linearGradient3629" x2="29.017" y1="8" y2="8" gradientTransform="matrix(0,-1,1,0,0,16)" gradientUnits="userSpaceOnUse">
   <stop id="stop3330" offset="0"/>
   <stop id="stop3333" stop-opacity="0" offset="1"/>
  </linearGradient>
 </defs>
 <g id="layer1">
  <rect id="rect3196" transform="rotate(-90)" x="-16" width="16" height="16" rx="2" ry="2" fill="url(#linearGradient3204)"/>
  <path id="rect2835" d="m0 14c0 1.108 0.892 2 2 2h12c1.108 0 2-0.892 2-2v-12c0-1.108-0.892-2-2-2h-12c-1.108 0-2 0.892-2 2v12zm0.96875 0v-12c0-0.5832 0.44805-1.0312 1.0312-1.0312h12c0.5832 0 1.0312 0.44805 1.0312 1.0312v12c0 0.5832-0.44805 1.0312-1.0312 1.0312h-12c-0.5832 0-1.0312-0.44805-1.0312-1.0312z" fill="url(#linearGradient3629)" opacity=".4"/>
  <path id="path2843" d="m2 0.96875c-0.5832 0-1.0312 0.44805-1.0312 1.0312v1c0-0.5832 0.44805-1.0312 1.0312-1.0312h12c0.5832 0 1.0312 0.44805 1.0312 1.0312v-1c0-0.5832-0.44805-1.0312-1.0312-1.0312h-12z" fill="#fff" opacity=".35"/>
 </g>
 <defs id="defs21">
  <filter id="w">
   <feGaussianBlur id="feGaussianBlur13" stdDeviation="0.26998568"/>
  </filter>
 </defs>
 <g id="main">
  <path id="path23" d="m11.502 1.0469c-0.9803 0.2056-1.8465 1.5283-2.2676 3.4648-0.15344 0.7055-0.45897 5.0618-0.36133 5.1543 0.0218 0.02067 0.82817 0.16991 1.791 0.33203 0.96286 0.16212 1.799 0.30044 1.8574 0.30664 0.1765 0.0188 1.1032-1.2858 1.6016-2.2539 0.67473-1.3106 0.93794-2.3801 0.86523-3.5195-0.06068-0.951-0.32131-1.7797-0.74609-2.377-0.5928-0.83349-1.7713-1.3106-2.7402-1.1074zm-6.8965 1.2695c-0.67752 1e-7 -0.87146 0.040601-1.293 0.27539-0.9394 0.5233-1.8361 1.8186-2.1602 3.1211-0.29456 1.1838-0.15124 3.111 0.3457 4.6582l0.19336 0.60352 1.8555 0.31055c1.3427 0.22416 1.8764 0.2781 1.9297 0.19531 0.04051-0.0629 0.3419-0.95156 0.66992-1.9727 0.69286-2.1569 0.94918-3.5367 0.86133-4.625-0.1534-1.9006-0.77694-2.5664-2.4023-2.5664zm4.4473 8.1465c-0.26264-0.04928-0.29391-0.01305-0.50391 0.57617-0.12334 0.34609-0.22461 0.86669-0.22461 1.1562-1e-7 0.67194 0.33185 1.0811 1.0449 1.2891 1.0208 0.29769 1.8268 0.14961 2.3848-0.43555 0.38427-0.403 0.54355-0.76792 0.65234-1.4961 0.0798-0.53389 0.06256-0.54316-1.7441-0.82812-0.73055-0.11522-1.4551-0.23277-1.6094-0.26172zm-7.2812 1.2715c-0.40616-0.0169-0.46856 1.8814-0.078125 2.377 0.3219 0.40854 0.7104 0.65045 1.2832 0.79883 0.9195 0.23819 1.7999-0.0095 2.0801-0.58398 0.2084-0.4275 0.3191-1.3542 0.20703-1.7363-0.0871-0.29698-0.094016-0.29952-1.7285-0.57422-0.90223-0.15163-1.6952-0.27845-1.7637-0.28125z" filter="url(#w)" opacity=".4"/>
  <path id="base" d="m11.502 1.0469c-0.9803 0.2056-1.8465 1.5283-2.2676 3.4648-0.15344 0.7055-0.45897 5.0618-0.36133 5.1543 0.0218 0.02067 0.82817 0.16991 1.791 0.33203 0.96286 0.16212 1.799 0.30044 1.8574 0.30664 0.1765 0.018799 1.1032-1.2858 1.6016-2.2539 0.67473-1.3106 0.93794-2.3801 0.86523-3.5195-0.06068-0.951-0.32131-1.7797-0.74609-2.377-0.5928-0.83349-1.7713-1.3106-2.7402-1.1074zm-6.8965 1.2695c-0.67752 1e-7 -0.87146 0.040601-1.293 0.27539-0.9394 0.5233-1.8361 1.8186-2.1602 3.1211-0.29456 1.1838-0.15124 3.111 0.3457 4.6582l0.19336 0.60352 1.8555 0.31055c1.3427 0.22416 1.8764 0.2781 1.9297 0.19531 0.04051-0.0629 0.3419-0.95156 0.66992-1.9727 0.69286-2.1569 0.94918-3.5367 0.86133-4.625-0.1534-1.9006-0.77694-2.5664-2.4023-2.5664zm4.4473 8.1465c-0.26264-0.04928-0.29391-0.013048-0.50391 0.57617-0.12334 0.34609-0.22461 0.86669-0.22461 1.1562-1e-7 0.67194 0.33185 1.0811 1.0449 1.2891 1.0208 0.29769 1.8268 0.14961 2.3848-0.43555 0.38427-0.403 0.54355-0.76792 0.65234-1.4961 0.0798-0.53389 0.062559-0.54316-1.7441-0.82812-0.73055-0.11522-1.4551-0.23277-1.6094-0.26172zm-7.2812 1.2715c-0.40616-0.0169-0.46856 1.8814-0.078125 2.377 0.3219 0.40854 0.7104 0.65045 1.2832 0.79883 0.9195 0.23819 1.7999-0.009474 2.0801-0.58398 0.2084-0.4275 0.3191-1.3542 0.20703-1.7363-0.0871-0.29698-0.094016-0.29952-1.7285-0.57422-0.90223-0.15163-1.6952-0.27845-1.7637-0.28125z" fill="#fff"/>
 </g>
</svg>
