<?xml version="1.0" encoding="UTF-8"?>
<!-- Created with Inkscape (http://www.inkscape.org/) -->
<svg id="svg2" width="16" height="16" version="1.1" xmlns="http://www.w3.org/2000/svg" xmlns:cc="http://creativecommons.org/ns#" xmlns:dc="http://purl.org/dc/elements/1.1/" xmlns:rdf="http://www.w3.org/1999/02/22-rdf-syntax-ns#" xmlns:xlink="http://www.w3.org/1999/xlink">
 <defs id="defs4">
  <linearGradient id="linearGradient3204" x1="1" x2="15" y1="9" y2="9" gradientTransform="translate(-17,-2)" gradientUnits="userSpaceOnUse">
   <stop id="stop3702" stop-color="#cacaca" offset="0"/>
   <stop id="stop3704" stop-color="#fcfcfc" offset="1"/>
  </linearGradient>
  <linearGradient id="linearGradient3629" x2="29.017" y1="8" y2="8" gradientTransform="matrix(0,-1,1,0,0,16)" gradientUnits="userSpaceOnUse">
   <stop id="stop3330" offset="0"/>
   <stop id="stop3333" stop-opacity="0" offset="1"/>
  </linearGradient>
  <radialGradient id="radialGradient4185" cx="8" cy="10.222" r="4" gradientUnits="userSpaceOnUse">
   <stop id="stop3993" stop-color="#787878" offset="0"/>
   <stop id="stop3995" stop-color="#141414" offset="1"/>
  </radialGradient>
  <radialGradient id="radialGradient4187" cx="10.5" cy="15.5" r="4.5" gradientTransform="translate(0,-2)" gradientUnits="userSpaceOnUse">
   <stop id="stop4027" stop-color="#464646" stop-opacity="0" offset="0"/>
   <stop id="stop4029" stop-color="#404040" stop-opacity="0" offset=".88235"/>
   <stop id="stop4031" stop-color="#141414" offset="1"/>
  </radialGradient>
  <linearGradient id="linearGradient4189" x1="4" x2="12" y1="8" y2="8" gradientUnits="userSpaceOnUse" xlink:href="#linearGradient3914"/>
  <linearGradient id="linearGradient3914">
   <stop id="stop3916" stop-color="#fff" offset="0"/>
   <stop id="stop3918" stop-color="#fff" stop-opacity="0" offset="1"/>
  </linearGradient>
  <linearGradient id="linearGradient4191" x1="10.826" x2="10.826" y1="19.986" y2="16.249" gradientTransform="translate(0 -1.6734)" gradientUnits="userSpaceOnUse" xlink:href="#linearGradient3914"/>
  <radialGradient id="radialGradient4193" cx="8" cy="10.222" r="4" gradientUnits="userSpaceOnUse" xlink:href="#linearGradient3829-1"/>
  <linearGradient id="linearGradient3829-1">
   <stop id="stop3831-2" stop-color="#eaeb54" offset="0"/>
   <stop id="stop3833-4" stop-color="#92a10a" offset="1"/>
  </linearGradient>
  <radialGradient id="radialGradient4195" cx="10.5" cy="15.5" r="4.5" gradientTransform="translate(0,-2)" gradientUnits="userSpaceOnUse" xlink:href="#linearGradient3900"/>
  <linearGradient id="linearGradient3900">
   <stop id="stop3902" stop-color="#66711a" stop-opacity="0" offset="0"/>
   <stop id="stop3908" stop-color="#5e6818" stop-opacity="0" offset=".88235"/>
   <stop id="stop3904" stop-color="#3c430f" offset="1"/>
  </linearGradient>
 </defs>
 <metadata id="metadata7">
  <rdf:RDF>
   <cc:Work rdf:about="">
    <dc:format>image/svg+xml</dc:format>
    <dc:type rdf:resource="http://purl.org/dc/dcmitype/StillImage"/>
    <dc:title/>
   </cc:Work>
  </rdf:RDF>
 </metadata>
 <g id="layer1">
  <rect id="rect3196" transform="rotate(-90)" x="-16" width="16" height="16" rx="2" ry="2" fill="url(#linearGradient3204)"/>
  <path id="rect2835" d="m0 14c0 1.108 0.892 2 2 2h12c1.108 0 2-0.892 2-2v-12c0-1.108-0.892-2-2-2h-12c-1.108 0-2 0.892-2 2v12zm0.96875 0v-12c0-0.5832 0.44805-1.0312 1.0312-1.0312h12c0.5832 0 1.0312 0.44805 1.0312 1.0312v12c0 0.5832-0.44805 1.0312-1.0312 1.0312h-12c-0.5832 0-1.0312-0.44805-1.0312-1.0312z" fill="url(#linearGradient3629)" opacity=".4"/>
  <path id="path2843" d="m2 0.96875c-0.5832 0-1.0312 0.44805-1.0312 1.0312v1c0-0.5832 0.44805-1.0312 1.0312-1.0312h12c0.5832 0 1.0312 0.44805 1.0312 1.0312v-1c0-0.5832-0.44805-1.0312-1.0312-1.0312h-12z" fill="#fff"/>
  <g id="g4145" transform="matrix(.73806 0 0 .73806 -2.6912 -5.076)">
   <path id="path4147" transform="matrix(1.125,0,0,1.125,1.5,5)" d="m8 3.125c-2.6735 0-4.875 2.2015-4.875 4.875 0 2.6735 2.2015 4.875 4.875 4.875 2.6735 0 4.875-2.2015 4.875-4.875 0-2.6735-2.2015-4.875-4.875-4.875z" color="#000000" opacity=".05"/>
   <path id="path4149" transform="matrix(1.125,0,0,1.125,1.5,5)" d="m8 3.5312c-2.4557 0-4.4688 2.0131-4.4688 4.4688 0 2.4557 2.0131 4.4688 4.4688 4.4688 2.4557 0 4.4688-2.0131 4.4688-4.4688 0-2.4557-2.0131-4.4688-4.4688-4.4688z" color="#000000" opacity=".12"/>
   <path id="path4151" transform="matrix(1.125,0,0,1.125,1.5,5)" d="m12 8c0 2.2091-1.7909 4-4 4s-4-1.7909-4-4 1.7909-4 4-4 4 1.7909 4 4z" color="#000000" opacity=".3"/>
   <path id="path4153" transform="matrix(1.125,0,0,1.125,1.5,4.5)" d="m12 8c0 2.2091-1.7909 4-4 4s-4-1.7909-4-4 1.7909-4 4-4 4 1.7909 4 4z" color="#000000" fill="url(#radialGradient4193)"/>
   <path id="path4155" d="m10.5 9c-2.4853 0-4.5 2.0147-4.5 4.5s2.0147 4.5 4.5 4.5c2.4853 0 4.5-2.0147 4.5-4.5s-2.0147-4.5-4.5-4.5zm0 1c1.9623 0 3.5 1.5377 3.5 3.5s-1.5377 3.5-3.5 3.5c-1.9623 0-3.5-1.5377-3.5-3.5s1.5377-3.5 3.5-3.5z" color="#000000" fill="url(#radialGradient4195)"/>
   <path id="path4157" transform="matrix(0 .54964 -.80882 0 16.971 7.4044)" d="m12 8c0 2.2091-1.7909 4-4 4s-4-1.7909-4-4 1.7909-4 4-4 4 1.7909 4 4z" color="#000000" fill="url(#linearGradient4189)"/>
   <path id="path4159" d="m7.0312 13.514c-0.0090843 0.10281-0.03125 0.20733-0.03125 0.3125 0 1.933 1.567 3.5 3.5 3.5 1.933 0 3.5-1.567 3.5-3.5 0-0.10517-0.02217-0.20969-0.03125-0.3125-0.15788 1.7868-1.6409 3.1875-3.4688 3.1875-1.8278 0-3.3109-1.4007-3.4688-3.1875z" color="#000000" fill="url(#linearGradient4191)" opacity=".5"/>
  </g>
  <g id="g4169" transform="matrix(.73806 0 0 .73806 3.2133 -3.7996)">
   <path id="path4171" transform="matrix(1.125,0,0,1.125,1.5,5)" d="m8 3.125c-2.6735 0-4.875 2.2015-4.875 4.875 0 2.6735 2.2015 4.875 4.875 4.875 2.6735 0 4.875-2.2015 4.875-4.875 0-2.6735-2.2015-4.875-4.875-4.875z" color="#000000" opacity=".05"/>
   <path id="path4173" transform="matrix(1.125,0,0,1.125,1.5,5)" d="m8 3.5312c-2.4557 0-4.4688 2.0131-4.4688 4.4688 0 2.4557 2.0131 4.4688 4.4688 4.4688 2.4557 0 4.4688-2.0131 4.4688-4.4688 0-2.4557-2.0131-4.4688-4.4688-4.4688z" color="#000000" opacity=".12"/>
   <path id="path4175" transform="matrix(1.125,0,0,1.125,1.5,5)" d="m12 8c0 2.2091-1.7909 4-4 4s-4-1.7909-4-4 1.7909-4 4-4 4 1.7909 4 4z" color="#000000" opacity=".3"/>
   <path id="path4177" transform="matrix(1.125,0,0,1.125,1.5,4.5)" d="m12 8c0 2.2091-1.7909 4-4 4s-4-1.7909-4-4 1.7909-4 4-4 4 1.7909 4 4z" color="#000000" fill="url(#radialGradient4185)"/>
   <path id="path4179" d="m10.5 9c-2.4853 0-4.5 2.0147-4.5 4.5s2.0147 4.5 4.5 4.5c2.4853 0 4.5-2.0147 4.5-4.5s-2.0147-4.5-4.5-4.5zm0 1c1.9623 0 3.5 1.5377 3.5 3.5s-1.5377 3.5-3.5 3.5c-1.9623 0-3.5-1.5377-3.5-3.5s1.5377-3.5 3.5-3.5z" color="#000000" fill="url(#radialGradient4187)"/>
   <path id="path4181" transform="matrix(0 .54964 -.80882 0 16.971 7.4044)" d="m12 8c0 2.2091-1.7909 4-4 4s-4-1.7909-4-4 1.7909-4 4-4 4 1.7909 4 4z" color="#000000" fill="url(#linearGradient4189)" opacity=".9"/>
   <path id="path4183" d="m7.0312 13.514c-0.0090843 0.10281-0.03125 0.20733-0.03125 0.3125 0 1.933 1.567 3.5 3.5 3.5 1.933 0 3.5-1.567 3.5-3.5 0-0.10517-0.02217-0.20969-0.03125-0.3125-0.15788 1.7868-1.6409 3.1875-3.4688 3.1875-1.8278 0-3.3109-1.4007-3.4688-3.1875z" color="#000000" fill="url(#linearGradient4191)" opacity=".5"/>
  </g>
  <g id="g4136" transform="matrix(.73806 0 0 .73806 -.47699 .82844)">
   <path id="path4134" transform="matrix(1.125,0,0,1.125,1.5,5)" d="m8 3.125c-2.6735 0-4.875 2.2015-4.875 4.875 0 2.6735 2.2015 4.875 4.875 4.875 2.6735 0 4.875-2.2015 4.875-4.875 0-2.6735-2.2015-4.875-4.875-4.875z" color="#000000" opacity=".05"/>
   <path id="path4130" transform="matrix(1.125,0,0,1.125,1.5,5)" d="m8 3.5312c-2.4557 0-4.4688 2.0131-4.4688 4.4688 0 2.4557 2.0131 4.4688 4.4688 4.4688 2.4557 0 4.4688-2.0131 4.4688-4.4688 0-2.4557-2.0131-4.4688-4.4688-4.4688z" color="#000000" opacity=".12"/>
   <path id="path4124" transform="matrix(1.125,0,0,1.125,1.5,5)" d="m12 8c0 2.2091-1.7909 4-4 4s-4-1.7909-4-4 1.7909-4 4-4 4 1.7909 4 4z" color="#000000" opacity=".3"/>
   <path id="path4055" transform="matrix(1.125,0,0,1.125,1.5,4.5)" d="m12 8c0 2.2091-1.7909 4-4 4s-4-1.7909-4-4 1.7909-4 4-4 4 1.7909 4 4z" color="#000000" fill="url(#radialGradient4193)"/>
   <path id="path4067" d="m10.5 9c-2.4853 0-4.5 2.0147-4.5 4.5s2.0147 4.5 4.5 4.5c2.4853 0 4.5-2.0147 4.5-4.5s-2.0147-4.5-4.5-4.5zm0 1c1.9623 0 3.5 1.5377 3.5 3.5s-1.5377 3.5-3.5 3.5c-1.9623 0-3.5-1.5377-3.5-3.5s1.5377-3.5 3.5-3.5z" color="#000000" fill="url(#radialGradient4195)"/>
   <path id="path4084" transform="matrix(0 .54964 -.80882 0 16.971 7.4044)" d="m12 8c0 2.2091-1.7909 4-4 4s-4-1.7909-4-4 1.7909-4 4-4 4 1.7909 4 4z" color="#000000" fill="url(#linearGradient4189)"/>
   <path id="path4101" d="m7.0312 13.514c-0.0090843 0.10281-0.03125 0.20733-0.03125 0.3125 0 1.933 1.567 3.5 3.5 3.5 1.933 0 3.5-1.567 3.5-3.5 0-0.10517-0.02217-0.20969-0.03125-0.3125-0.15788 1.7868-1.6409 3.1875-3.4688 3.1875-1.8278 0-3.3109-1.4007-3.4688-3.1875z" color="#000000" fill="url(#linearGradient4191)" opacity=".5"/>
  </g>
 </g>
</svg>
