<?xml version="1.0" encoding="UTF-8"?>
<svg id="svg2" width="16" height="16" version="1.1" xmlns="http://www.w3.org/2000/svg" xmlns:cc="http://creativecommons.org/ns#" xmlns:dc="http://purl.org/dc/elements/1.1/" xmlns:rdf="http://www.w3.org/1999/02/22-rdf-syntax-ns#">
 <metadata id="metadata31">
  <rdf:RDF>
   <cc:Work rdf:about="">
    <dc:format>image/svg+xml</dc:format>
    <dc:type rdf:resource="http://purl.org/dc/dcmitype/StillImage"/>
   </cc:Work>
  </rdf:RDF>
 </metadata>
 <defs id="defs4">
  <linearGradient id="linearGradient3204" x1="1" x2="15" y1="9" y2="9" gradientTransform="translate(-17,-2)" gradientUnits="userSpaceOnUse">
   <stop id="stop3189" stop-color="#940005" offset="0"/>
   <stop id="stop3191" stop-color="#b11c21" offset="1"/>
  </linearGradient>
  <linearGradient id="linearGradient3629" x2="29.017" y1="8" y2="8" gradientTransform="matrix(0,-1,1,0,0,16)" gradientUnits="userSpaceOnUse">
   <stop id="stop3330" offset="0"/>
   <stop id="stop3333" stop-opacity="0" offset="1"/>
  </linearGradient>
 </defs>
 <g id="layer1">
  <rect id="rect3196" transform="rotate(-90)" x="-16" width="16" height="16" rx="2" ry="2" fill="url(#linearGradient3204)"/>
  <path id="rect2835" d="m0 14c0 1.108 0.892 2 2 2h12c1.108 0 2-0.892 2-2v-12c0-1.108-0.892-2-2-2h-12c-1.108 0-2 0.892-2 2v12zm0.96875 0v-12c0-0.5832 0.44805-1.0312 1.0312-1.0312h12c0.5832 0 1.0312 0.44805 1.0312 1.0312v12c0 0.5832-0.44805 1.0312-1.0312 1.0312h-12c-0.5832 0-1.0312-0.44805-1.0312-1.0312z" fill="url(#linearGradient3629)" opacity=".4"/>
  <path id="path2843" d="m2 0.96875c-0.5832 0-1.0312 0.44805-1.0312 1.0312v1c0-0.5832 0.44805-1.0312 1.0312-1.0312h12c0.5832 0 1.0312 0.44805 1.0312 1.0312v-1c0-0.5832-0.44805-1.0312-1.0312-1.0312h-12z" fill="#fff" opacity=".35"/>
 </g>
 <defs id="defs21">
  <linearGradient id="a" x1="8" x2="8" y1="1" y2="15.001" gradientUnits="userSpaceOnUse">
   <stop id="stop16" stop-color="#fff" offset="0"/>
   <stop id="stop18" stop-color="#fff" offset="1"/>
  </linearGradient>
 </defs>
 <g id="main" transform="translate(1 1) scale(.85714)">
  <path id="path23" d="m6 2c-2.7614 0-5 2.2386-5 5s2.2386 5 5 5c0.97724-0.0016 1.9327-0.28947 2.748-0.82812l4.5352 4.5352c0.39174 0.39174 1.0223 0.39174 1.4141 0l0.0098-0.0098c0.39174-0.39174 0.39174-1.0223 0-1.4141l-4.5352-4.5352c0.53866-0.81539 0.82656-1.7708 0.82812-2.748 0-0.59543-0.12154-1.1579-0.3125-1.6875l-4.6875 4.6875-4-4 2-2 2 2 2.9883-2.9883c-0.83557-0.62744-1.8629-1.0117-2.9883-1.0117z" opacity=".3"/>
  <path id="base" d="m6 1c-2.7614 0-5 2.2386-5 5s2.2386 5 5 5c0.97724-0.0016 1.9327-0.28947 2.748-0.82812l4.5352 4.5352c0.39174 0.39174 1.0223 0.39174 1.4141 0l0.009765-0.009765c0.39174-0.39174 0.39174-1.0223 0-1.4141l-4.5352-4.5352c0.53866-0.81539 0.82656-1.7708 0.82812-2.748 0-0.59543-0.12154-1.1579-0.3125-1.6875l-4.6875 4.6875-4-4 2-2 2 2 2.9883-2.9883c-0.83557-0.62744-1.8629-1.0117-2.9883-1.0117z" fill="url(#a)"/>
 </g>
</svg>
