<?xml version="1.0" encoding="UTF-8"?>
<!-- Created with Inkscape (http://www.inkscape.org/) -->
<svg id="svg2" width="16" height="16" version="1.1" xmlns="http://www.w3.org/2000/svg" xmlns:cc="http://creativecommons.org/ns#" xmlns:dc="http://purl.org/dc/elements/1.1/" xmlns:rdf="http://www.w3.org/1999/02/22-rdf-syntax-ns#" xmlns:xlink="http://www.w3.org/1999/xlink">
 <defs id="defs4">
  <linearGradient id="linearGradient3327">
   <stop id="stop3330" offset="0"/>
   <stop id="stop3333" stop-opacity="0" offset="1"/>
  </linearGradient>
  <linearGradient id="linearGradient3192" x1="9.0575" x2="9.0575" y1="10.203" y2="-12.199" gradientTransform="translate(0 5.8007)" gradientUnits="userSpaceOnUse" xlink:href="#linearGradient3327"/>
  <linearGradient id="linearGradient3204" x1="1" x2="15" y1="9" y2="9" gradientTransform="translate(-17,-2)" gradientUnits="userSpaceOnUse">
   <stop id="stop3702-4" stop-color="#2b930b" offset="0"/>
   <stop id="stop3704-4" stop-color="#67d441" offset="1"/>
  </linearGradient>
  <linearGradient id="linearGradient3629" x2="29.017" y1="8" y2="8" gradientTransform="matrix(0,-1,1,0,0,16)" gradientUnits="userSpaceOnUse" xlink:href="#linearGradient3327"/>
  <clipPath id="clipPath3728">
   <rect id="rect3730" transform="scale(1,-1)" x="6" y="-90" width="84" height="84" rx="8.4" ry="8.4" fill="url(#linearGradient3732)" fill-rule="evenodd"/>
  </clipPath>
 </defs>
 <metadata id="metadata7">
  <rdf:RDF>
   <cc:Work rdf:about="">
    <dc:format>image/svg+xml</dc:format>
    <dc:type rdf:resource="http://purl.org/dc/dcmitype/StillImage"/>
    <dc:title/>
   </cc:Work>
  </rdf:RDF>
 </metadata>
 <g id="layer1">
  <rect id="rect2410" x=".49972" y=".5" width="15" height="15.5" rx="2" ry="2" fill="url(#linearGradient3192)" opacity=".3"/>
  <rect id="rect3194" x="1" y="2" width="14" height="14" rx="2" ry="2" opacity=".4"/>
  <rect id="rect3196" transform="rotate(-90)" x="-16" width="16" height="16" rx="2" ry="2" fill="url(#linearGradient3204)"/>
 </g>
 <g id="layer2">
  <g id="g3855" transform="matrix(.19048 0 0 .19048 -1.1429 -1.1429)" clip-path="url(#clipPath3728)" fill="#e8ffba" opacity=".9">
   <path id="path3819" d="m48 48 24-56h16l-40 56z" opacity=".15"/>
   <path id="path3821" d="m48 48 55.251 25.677-0.48222 15.993-54.769-41.67z" opacity=".15"/>
   <path id="path3823" d="m48 48-59.828 11.516-8.9688-13.25 68.797 1.734z" opacity=".15"/>
   <path id="path3825" d="m48 48-49.311-35.783 3.5361-15.604 45.775 51.387z" opacity=".15"/>
   <path id="path3827" d="m48 48 17.519-62.073 30.436 12.714-47.955 49.359z" opacity=".15"/>
   <path id="path3829" d="m48 48 61.636-19.001 5.8539 32.461-67.49-13.46z" opacity=".15"/>
   <path id="path3831" d="m48 48-31.246 56.424-26.723-19.336 57.969-37.089z" opacity=".15"/>
   <path id="path3833" d="m48 48-62.812-14.651 11.304-30.988 51.508 45.639z" opacity=".15"/>
   <path id="path3835" d="m48 48 45.81 45.403-3.6917 9.0215-42.118-54.425z" opacity=".15"/>
   <path id="path3837" d="m48 48-2.9701 64.43-9.1685 3.31 12.139-67.74z" opacity=".15"/>
   <path id="path3839" d="m48 48-44.859 46.343-9.0645-3.585 53.924-42.758z" opacity=".15"/>
   <path id="path3841" d="m48 48-62.116 17.366-6.0159-7.6698 68.132-9.6964z" opacity=".15"/>
   <path id="path3843" d="m48 48-29.147-57.537 6.3493-7.3962 22.797 64.933z" opacity=".15"/>
   <path id="path3845" d="m48 48 59.482-24.939 6.921 6.8641-66.403 18.074z" opacity=".15"/>
   <path id="path3849" d="m48 48 40.187 45.793-6.8963 14.437-33.29-60.231z" opacity=".15"/>
   <path id="path3851" d="m48 48-35.958-49.184 8.1521-13.767 27.806 62.951z" opacity=".15"/>
  </g>
 </g>
 <g id="layer4">
  <path id="path3713" d="m2 6.5947 1.7143-3 1.2857 3h-3zm4 0 2-3 2 3h-4zm5 0 1.2857-3 1.7143 3h-3zm-4.9286 1 1.9286 6.2857 1.9286-6.2857h-3.8571zm-1.9286-4 1.4246 2 2.004-2h-3.4286zm4.2857 0 2.1739 2 1.2547-2h-3.4286zm2.5714 4-2.6665 6.2857 5.6665-6.2857h-3zm-6 0 2.6665 6.2857-5.6665-6.2857h3z" opacity=".3"/>
  <path id="path3985" d="m2 6 1.7143-3 1.2857 3h-3zm4 0 2-3 2 3h-4zm5 0 1.2857-3 1.7143 3h-3zm-4.9286 1 1.9286 6.2857 1.9286-6.2857h-3.8571zm-1.9286-4 1.4246 2 2.004-2h-3.4286zm4.2857 0 2.1739 2 1.2547-2h-3.4286zm2.5714 4-2.6665 6.2857 5.6665-6.2857h-3zm-6 0 2.6665 6.2857-5.6665-6.2857h3z" fill="#fff"/>
 </g>
 <g id="layer3">
  <path id="rect2835" d="m0 14c0 1.108 0.892 2 2 2h12c1.108 0 2-0.892 2-2v-12c0-1.108-0.892-2-2-2h-12c-1.108 0-2 0.892-2 2v12zm0.96875 0v-12c0-0.5832 0.44805-1.0312 1.0312-1.0312h12c0.5832 0 1.0312 0.44805 1.0312 1.0312v12c0 0.5832-0.44805 1.0312-1.0312 1.0312h-12c-0.5832 0-1.0312-0.44805-1.0312-1.0312z" fill="url(#linearGradient3629)" opacity=".3"/>
  <path id="path2843" d="m2 0.96875c-0.5832 0-1.0312 0.44805-1.0312 1.0312v1c0-0.5832 0.44805-1.0312 1.0312-1.0312h12c0.5832 0 1.0312 0.44805 1.0312 1.0312v-1c0-0.5832-0.44805-1.0312-1.0312-1.0312h-12z" fill="#fff" opacity=".3"/>
 </g>
</svg>
