<?xml version="1.0" encoding="UTF-8"?>
<!-- Created with Inkscape (http://www.inkscape.org/) -->
<svg id="svg2" width="16" height="16" version="1.1" xmlns="http://www.w3.org/2000/svg" xmlns:cc="http://creativecommons.org/ns#" xmlns:dc="http://purl.org/dc/elements/1.1/" xmlns:rdf="http://www.w3.org/1999/02/22-rdf-syntax-ns#" xmlns:xlink="http://www.w3.org/1999/xlink">
 <defs id="defs4">
  <linearGradient id="linearGradient3327">
   <stop id="stop3330" offset="0"/>
   <stop id="stop3333" stop-opacity="0" offset="1"/>
  </linearGradient>
  <linearGradient id="linearGradient3192" x1="9.0575" x2="9.0575" y1="10.203" y2="-12.199" gradientTransform="translate(0 5.8007)" gradientUnits="userSpaceOnUse" xlink:href="#linearGradient3327"/>
  <linearGradient id="linearGradient3204" x1="1" x2="15" y1="9" y2="9" gradientTransform="translate(-17,-2)" gradientUnits="userSpaceOnUse">
   <stop id="stop2843" stop-color="#d89a6d" offset="0"/>
   <stop id="stop2845" stop-color="#fed4be" offset="1"/>
  </linearGradient>
  <linearGradient id="linearGradient3629" x2="29.017" y1="8" y2="8" gradientTransform="matrix(0,-1,1,0,0,16)" gradientUnits="userSpaceOnUse" xlink:href="#linearGradient3327"/>
  <clipPath id="clipPath3689">
   <rect id="rect3691" x="-29" y="1" width="20" height="20" rx="2" ry="2" fill="#f0f" fill-rule="evenodd"/>
  </clipPath>
  <filter id="filter3693" x="-.25513" y="-.13905" width="1.5103" height="1.2781" color-interpolation-filters="sRGB">
   <feGaussianBlur id="feGaussianBlur3695" stdDeviation="1.1587612"/>
  </filter>
  <clipPath id="clipPath3669">
   <rect id="rect3671" x="-29" y="1" width="20" height="20" rx="2" ry="2" fill="#f0f" fill-rule="evenodd"/>
  </clipPath>
  <filter id="filter3685" x="-.24963" y="-.64531" width="1.4993" height="2.2906" color-interpolation-filters="sRGB">
   <feGaussianBlur id="feGaussianBlur3687" stdDeviation="1.6847895"/>
  </filter>
  <linearGradient id="linearGradient3678" x1="-10" x2="-10" y1="12" y2="22" gradientUnits="userSpaceOnUse">
   <stop id="stop3699" stop-color="#fedbc5" offset="0"/>
   <stop id="stop3701" stop-color="#fedbc5" stop-opacity="0" offset="1"/>
  </linearGradient>
  <radialGradient id="radialGradient3750" cx="51.77" cy="56.478" r="10.733" gradientUnits="userSpaceOnUse" xlink:href="#linearGradient3739"/>
  <linearGradient id="linearGradient3739">
   <stop id="stop3742" stop-color="#fff" offset="0"/>
   <stop id="stop3744" stop-color="#fff" stop-opacity="0" offset="1"/>
  </linearGradient>
  <linearGradient id="linearGradient3738" x1="39.121" x2="69.125" y1="62.96" y2="69.617" gradientTransform="matrix(.17986 0 0 .17771 -.70717 -.98137)" gradientUnits="userSpaceOnUse" xlink:href="#linearGradient3731"/>
  <linearGradient id="linearGradient3731">
   <stop id="stop3733" stop-color="#d35f5f" offset="0"/>
   <stop id="stop3735" stop-color="#d35f5f" stop-opacity="0" offset="1"/>
  </linearGradient>
  <linearGradient id="linearGradient3728" x1="70.598" x2="73.643" y1="64.777" y2="66.384" gradientTransform="matrix(.17986 0 0 .17771 -.70717 -.98137)" gradientUnits="userSpaceOnUse">
   <stop id="stop3724" stop-color="#eaac96" offset="0"/>
   <stop id="stop3726" stop-color="#db6f49" offset="1"/>
  </linearGradient>
  <radialGradient id="radialGradient3894" cx="47.035" cy="28.844" r="30.11" gradientTransform="matrix(1 .30246 -.12745 .42139 -54.324 -7.9576)" gradientUnits="userSpaceOnUse">
   <stop id="stop3705" offset="0"/>
   <stop id="stop3711" stop-opacity=".70161" offset=".5"/>
   <stop id="stop3707" stop-opacity="0" offset="1"/>
  </radialGradient>
  <filter id="filter3756" color-interpolation-filters="sRGB">
   <feGaussianBlur id="feGaussianBlur3758" stdDeviation="0.63548831"/>
  </filter>
  <radialGradient id="radialGradient6145" cx="51.77" cy="56.478" r="10.733" gradientUnits="userSpaceOnUse">
   <stop id="stop6141" offset="0"/>
   <stop id="stop6147" stop-opacity=".90323" offset=".86"/>
   <stop id="stop6143" stop-opacity=".08871" offset="1"/>
  </radialGradient>
  <clipPath id="clipPath6135">
   <path id="path6137" d="m46.25 77.281c-3.1147 1.8786-5.2188 5.2849-5.2188 9.1875 0 5.9276 4.8224 10.75 10.75 10.75s10.719-4.8224 10.719-10.75c0-1.2418-0.2058-2.4218-0.59375-3.5312-4.8787-2.4345-10.35-4.3426-15.656-5.6562z" fill="#f00"/>
  </clipPath>
  <radialGradient id="radialGradient6175" cx="50.771" cy="77.765" r="22.413" gradientTransform="matrix(.32321 .085566 -.040219 .1483 -4.8575 -4.7608)" gradientUnits="userSpaceOnUse">
   <stop id="stop6171" stop-color="#fff" stop-opacity="0" offset="0"/>
   <stop id="stop6177" stop-color="#fff" stop-opacity=".49804" offset=".5"/>
   <stop id="stop6173" offset="1"/>
  </radialGradient>
  <radialGradient id="radialGradient3781" cx="51.766" cy="56.289" r="10.734" gradientTransform="matrix(.1679 0 0 .16503 -.087618 -.25574)" gradientUnits="userSpaceOnUse">
   <stop id="stop3777" stop-color="#b7dde5" offset="0"/>
   <stop id="stop3783" stop-color="#357099" offset=".89"/>
   <stop id="stop3779" stop-color="#2e4d6a" offset="1"/>
  </radialGradient>
  <radialGradient id="radialGradient3700" cx="47.12" cy="37.319" r="29.695" gradientTransform="matrix(.17986 .12058 -.047267 .068826 1.0568 -1.3373)" gradientUnits="userSpaceOnUse">
   <stop id="stop3688" stop-color="#5b4f4f" offset="0"/>
   <stop id="stop3698" stop-color="#5b4f4f" stop-opacity=".6129" offset=".5"/>
   <stop id="stop3690" stop-color="#5b4f4f" stop-opacity="0" offset="1"/>
  </radialGradient>
  <linearGradient id="linearGradient3773" x1="47.349" x2="6.9577" y1="36.894" y2="27.073" gradientTransform="matrix(.17986 0 0 .17771 -.70717 -.98137)" gradientUnits="userSpaceOnUse" xlink:href="#linearGradient3767"/>
  <linearGradient id="linearGradient3767">
   <stop id="stop3769" stop-color="#352822" offset="0"/>
   <stop id="stop3771" stop-color="#352822" stop-opacity="0" offset="1"/>
  </linearGradient>
  <radialGradient id="radialGradient3083" cx="48.675" cy="59.262" r="26.823" gradientTransform="matrix(.21698 -.0023661 .0010098 .090391 -2.5738 4.247)" gradientUnits="userSpaceOnUse" xlink:href="#linearGradient3767"/>
 </defs>
 <metadata id="metadata7">
  <rdf:RDF>
   <cc:Work rdf:about="">
    <dc:format>image/svg+xml</dc:format>
    <dc:type rdf:resource="http://purl.org/dc/dcmitype/StillImage"/>
    <dc:title/>
   </cc:Work>
  </rdf:RDF>
 </metadata>
 <g id="layer1">
  <rect id="rect2410" x=".49972" y=".5" width="15" height="15.5" rx="2" ry="2" fill="url(#linearGradient3192)" opacity=".3"/>
  <rect id="rect3194" x="1" y="2" width="14" height="14" rx="2" ry="2" opacity=".4"/>
  <rect id="rect3196" transform="rotate(-90)" x="-16" width="16" height="16" rx="2" ry="2" fill="url(#linearGradient3204)"/>
  <path id="path2913" transform="translate(29,-5)" d="m-24.433 14.734c-2.7204 0.80274-3.9461 3.7606-4.054 5.9311 0.2479 0.20749 0.56515 0.33482 0.91518 0.33482h10.283l-1.3467-3.5045s-2.9486 0.38478-5.7972-2.7615z" clip-path="url(#clipPath3669)" fill="#d79171" filter="url(#filter3685)"/>
  <path id="path3676" transform="translate(25,-1)" d="m-19.9 1c2.4673 1.6131 9.3295 6.5614 9.5387 11.86-0.033498 1.8759-1.0165 2.2975-1.4435 4.1399h1.3765c0.79143 0 1.4286-0.63714 1.4286-1.4286v-13.143c0-0.79143-0.63714-1.4286-1.4286-1.4286h-9.4717z" clip-path="url(#clipPath3689)" fill="url(#linearGradient3678)" filter="url(#filter3693)"/>
  <path id="rect2835" d="m0 14c0 1.108 0.892 2 2 2h12c1.108 0 2-0.892 2-2v-12c0-1.108-0.892-2-2-2h-12c-1.108 0-2 0.892-2 2v12zm0.96875 0v-12c0-0.5832 0.44805-1.0312 1.0312-1.0312h12c0.5832 0 1.0312 0.44805 1.0312 1.0312v12c0 0.5832-0.44805 1.0312-1.0312 1.0312h-12c-0.5832 0-1.0312-0.44805-1.0312-1.0312z" fill="url(#linearGradient3629)" opacity=".3"/>
  <path id="path2843" d="m2 0.96875c-0.5832 0-1.0312 0.44805-1.0312 1.0312v1c0-0.5832 0.44805-1.0312 1.0312-1.0312h12c0.5832 0 1.0312 0.44805 1.0312 1.0312v-1c0-0.5832-0.44805-1.0312-1.0312-1.0312h-12z" fill="#fff" opacity=".4"/>
  <path id="path6149" d="m12.494 10.938s-6.9376 2.2531-8.0939-3.8715c-1.6059-0.3808-1.3169 1.0155-1.3169 1.0155s1.3811 5.236 9.475 3.3637c0 0 0.38542-0.2856-0.06423-0.50773z" fill="url(#radialGradient3083)" opacity=".6"/>
  <path id="path3634" d="m1.8138 3.6085c-0.087687-0.2029 1.1165-0.70339 1.7261-0.6956 1.3394 0.016822 3.4416 0.71965 5.1327 1.5907 1.795 0.92459 5.2694 2.4285 5.1327 4.398-0.42816 0.35083-2.5234-2.1404-5.0873-3.6127-1.7808-1.0225-3.1921-1.3676-5.0192-1.9946-0.60194-0.20657-1.8027 0.50461-1.885 0.31414z" fill="url(#linearGradient3773)"/>
  <path id="path3636" d="m4.4256 7.058c0.54507 2.2214 1.6267 3.9079 4.2782 4.154 1.8571 0.17233 3.6139-0.19354 3.7843-0.4067 0 0-0.11356-1.1219-1.1356-1.8849-5.0192-2.5356-6.9269-1.8624-6.9269-1.8624z" fill="#fff"/>
  <path id="path3676-8" d="m4.3997 6.7171-1.9727-0.39957s1.4225-0.92064 3.0887-0.74048c3.4969 0.37809 6.6544 2.3336 7.5628 4.5102 0 0 0.18584 0.37438-0.36017 0.40611-0.44966-1.3645-2.4089-3.3003-8.3187-3.7763z" fill="url(#radialGradient3700)"/>
  <path id="path3643" d="m3.2673 6.5644c0.91216-0.15563 1.4157-0.19569 2.1121-0.089756 2.2131 0.33662 4.5019 0.96643 6.3137 2.2663 0.56483 0.40522 1.404 1.7068 1.022 1.9971-0.3237 0.24598-0.074879-0.94785-1.2945-1.7502-2.1313-1.4021-5.5386-2.1259-7.1995-1.8961-0.28371-0.4227-0.56477-0.41102-0.95387-0.52731z"/>
  <path id="path3651" d="m7.6115 7.4208c-0.56023 0.33384-0.93867 0.93916-0.93867 1.6327 0 1.0534 0.86738 1.9103 1.9335 1.9103 1.0662 0 1.9279-0.85697 1.9279-1.9103 0-0.22068-0.03701-0.43037-0.10679-0.62753-0.87751-0.43263-1.8616-0.7717-2.816-1.0052z" fill="url(#radialGradient3781)"/>
  <path id="path6167" d="m4.4256 7.058c0.54507 2.2214 1.6267 3.9079 4.2782 4.154 1.8571 0.17233 3.6139-0.19354 3.7843-0.4067 0 0-0.11356-1.1219-1.1356-1.8849-5.0192-2.5356-6.9269-1.8624-6.9269-1.8624z" fill="url(#radialGradient6175)" opacity=".3"/>
  <g id="g6131" transform="matrix(.17986 0 0 .17771 -.70717 -6.3126)" clip-path="url(#clipPath6135)">
   <path id="path3785" d="m55.967 96.892c-0.09433-1.073-0.3328-1.974-0.83521-3.1581-1.1879-2.1193-2.1854-4.1385-3.1288-6.5376 0.2721-1.1732 0.4682 0.76601 0.22699 1.3612 0.23617 2.6676-0.1612 6.0393 0.24617 8.6749 0.60986 1.1868 0.80799-0.66758 0.52461-1.1857-0.31007-3.1704-0.69267-6.0503-0.99449-9.0094 0.42428-1.3871-0.02452 1.2254-0.36308 1.4171-0.60094 2.5895-1.7385 5.608-2.0865 8.4837 0.05497 0.9855 0.42739-0.68846 0.37178-1.2899 0.78654-2.8482 1.1497-6.1515 1.7338-9 0.67771-1.1576-0.08018 1.159-0.41729 1.6447-1.5453 2.2345-3.4634 5.1764-4.7717 7.5047-0.46105 1.184 0.94947-0.22227 1.0586-0.81746 1.2659-2.7414 2.3027-5.5209 3.7548-8.2261 1.2669-0.71698-0.43005 1.3245-0.64739 1.4732-2.0405 1.6895-4.6878 3.3195-6.5647 5.4977-0.48286 0.85875 1.1035-0.20798 1.2899-0.7513 2.0732-2.26 4.0812-4.2537 6.1565-6.2102 1.0386-0.35628-0.75713 1.0954-1.3473 0.99238-2.4391 1.0328-5.4463 1.5395-7.7946 2.9861-0.68017 0.74456 0.91167-0.09587 1.2069-0.16414 2.8699-1.3543 5.0498-3.3059 7.6921-4.3275 1.183 0.17952-1.0519 0.82782-1.2941 0.69236-2.909 0.1533-5.9441 0.47763-8.8901 0.87953-0.94193 0.66418 1.1565 0.51447 1.6312 0.17477 3.1487-0.57425 5.5865-1.3678 8.7468-1.6221 1.1612 0.5724-1.3826 0.13362-1.5951-0.1791-2.6248-0.40022-6.0709-1.1922-8.698-1.4994-1.3311 0.30011 0.79882 0.63706 1.365 0.70322 2.8958 0.20852 5.9103 0.07303 8.6916 0.73774 1.2042 0.59108-1.0475-0.23836-1.2237-0.41483-2.7159-1.307-5.0413-3.0283-7.8102-4.0341-1.0532-0.01971 0.69292 0.81471 1.23 0.74043 2.755 1.055 5.4406 2.0862 7.9546 3.6311 0.88313 1.2014-0.74541-0.56949-1.0873-1.1126-2.0664-1.8014-4.3442-4.0689-6.3167-5.9194-0.87836-0.5666 0.21213 0.83927 0.71472 0.88155 2.0624 2.0807 4.6387 3.5117 6.94 5.7379 0.27583 1.1461-1.0151-0.21873-1.0524-0.85897-1.2317-2.3394-2.34-5.5362-3.6928-7.8408-0.93442-0.618-0.65008 1.0174-0.16782 1.2416 1.737 2.6246 3.4554 5.0553 5.0482 7.7674 0.13598 1.4803-0.87394-0.93444-0.75732-1.5709-0.34704-2.7742-0.76433-6.0458-1.3259-8.7131-0.4022-1.0833-0.39731 0.71949-0.21499 1.2749 0.5372 2.9072 2.0677 5.7364 2.4432 8.6894-0.18569 1.0885-0.52861-0.95224-0.2518-1.5394 0.31755-2.627 1.1054-5.5778 1.2097-8.222-0.08732-1.0656-0.50782 0.83098-0.32345 1.0571 0.0126 2.8869 0.1788 6.0245-0.14189 8.8074-0.6581 0.91881 0.02511-1.167 0.18351-1.36 1.2901-2.7086 2.7702-5.5045 3.6118-8.0216-0.10956-1.1542-0.86635 0.44466-0.86175 1.0458-1.1401 2.6589-1.7247 6.1297-2.8833 8.6992-0.83499 0.71283 0.63596-1.2311 0.83173-1.5219 2-2.0699 3.8152-3.8503 5.5169-6.352 0.23299-1.1244-1.1634 0.3977-1.156 0.65987-1.8151 2.1774-3.2459 5.2195-5.1092 7.3141-1.0988 0.74204 0.80942-1.3676 1.0659-1.5594 2.3388-1.3327 4.6504-2.6564 7.0956-4.245 0.67337-0.74074-0.8298-0.2252-1.2266 0.23296-2.4302 1.9433-4.2018 4.0342-6.7969 5.449-1.4799 0.20251 0.88373-0.38782 1.1894-0.49912 2.8581-0.59152 5.9916-1.5969 8.5836-2.3787 0.81635-0.77737-1.2892-0.34377-1.6395 0.07773-3.0401 0.91383-5.4077 1.9452-8.3291 2.9284-1.4727-0.17089 1.5857-0.43608 1.8121-0.33099 2.8059 0.27834 5.4314 0.48668 8.4617 0.40368 1.0753-0.54311-0.84166-0.3467-1.1033-0.38924-3.113-0.1004-6.189 0.91514-8.9906 0.79633-0.97134-0.63678 0.99188-0.40839 1.5433-0.15688 2.4939 0.92188 5.1893 2.4387 7.8592 2.99 1.0438-0.13356-0.8639-0.65023-1.074-0.62168-2.7482-0.6722-5.7922-1.3183-8.7365-2.1266-0.87381-1.0673 1.453 0.24584 1.5172 0.67375 2.2399 1.8538 4.5747 3.759 7.1443 5.1377 1.017 0.513-0.64729-0.94352-1.0329-1.2729-2.6968-1.6697-5.1014-2.6768-7.5641-4.2603-0.46086-1.0264 1.1252 0.31478 1.0753 0.81124 1.564 2.4126 3.6708 4.9212 5.3389 7.0864 1.0831 0.49608-0.10599-1.0301-0.42626-1.4656-2.0221-2.1267-4.5482-4.4267-6.3052-6.632-0.47906-1.2343 1.346 1.2239 1.1486 1.6765 0.75902 2.7255 1.4207 4.9041 2.6115 7.6996 0.20564 0.25703 0.08924 0.37591 0.14688 0.46578-6.96e-4 -0.2 0.34469-0.08298 0.38358 0.1132" opacity=".3"/>
   <path id="path3787" d="m50.932 97.57c0.73427-1.8322 0.77174-3.455 0.73809-5.1076-0.05974-1.9858-0.20317-3.7065 0.20869-5.4085 0.67953 1.0481-0.95771 2.8447-1.574 4.0996-0.6493 1.5678-1.7516 2.9694-2.5859 4.7891 0.42704 0.96413 1.6468-1.8893 1.7776-2.6706 0.76119-2.2737 1.3271-4.7697 2.2272-6.5852 0.40643 1.0446-2.1245 2.6111-2.736 3.7872-1.4911 1.4302-2.7461 2.9099-3.8959 4.2005 0.32563 1.2155 1.2997-1.6741 1.7325-1.9038 1.6229-1.9668 2.874-4.5422 4.4697-6.2772-0.01228 1.2683-2.3143 1.5799-3.4947 2.5374-1.6881 0.74054-3.5563 1.9461-4.9986 3.2463 0.89976 0.88404 2.1925-1.6949 3.2605-1.9526 1.5592-1.4888 3.5675-2.2977 5.361-3.659-0.48945 0.80316-2.9694 0.35415-4.19 0.99246-1.6185 0.32415-3.7872 1.2831-5.4026 1.7182-0.26098 1.2592 2.6758-0.96301 3.3194-1.0098 1.8867-0.70321 4.0666-1.4845 6.122-2.2221-0.79362 1.0073-2.9409 0.31466-4.0603 0.31656-1.9117-0.36915-4.1016-0.08793-5.8243-0.16813-0.45703 0.79922 1.6901-0.14251 2.3008 0.08713 2.5539 0.04535 5.2013-0.35234 7.7341-0.04571-0.74487 0.6559-3.1641-0.98711-4.2856-1.2032-1.5791-0.66961-3.4005-1.3423-5.4076-1.979-7e-3 0.95719 2.2969 1.0445 3.3191 1.3562 2.3612 0.55097 4.7034 0.54516 6.6124 1.3316-0.85136 0.27234-2.6582-1.4691-3.9708-2.1186-1.4146-0.99885-2.3978-2.6644-4.1699-3.6462-1.134 0.17552 1.2762 1.3711 1.5576 1.6155 1.9731 1.2963 4.4793 2.9051 6.6709 4.2942-0.94891 0.14978-2.4518-2.4878-3.1035-3.483-1.2102-1.5991-2.0397-3.2823-3.0157-4.6934-1.1326-0.12153 1.3214 2.6671 1.6571 3.1617 1.3329 1.7391 3.2552 3.1584 4.3605 4.9673-1.2125-0.26578-1.2565-2.9897-1.6883-4.0184-0.40657-1.9674-1.0462-3.8989-1.8598-5.4631-0.9676-0.49069 0.63296 1.4628 0.71073 2.1769 0.95439 2.4563 1.9734 4.5167 3.0012 6.9734-0.68643-0.59488 0.09176-2.6873-0.10341-4.186 0.03416-2.0827-0.14524-3.7888-0.46398-5.52-0.9702-0.40287-0.09565 2.0497-0.23283 2.4832 0.545 2.4776 0.86826 5.0973 1.1462 7.5561-0.83027-0.77457 0.72168-3.2959 0.76919-4.6606 0.77244-1.7253 1.203-3.3608 1.4275-5.3283-0.64648-0.62188-0.95038 1.8767-0.94362 2.3091-0.41286 2.7-0.40141 5.2775-0.90244 7.6-0.17913-1.091 1.49-2.6893 1.9738-4.0174 1.2807-1.5393 1.9376-2.9658 2.9843-4.7606-0.21874-1.0401-1.15 1.4943-1.6596 1.9396-1.2081 2.4456-2.352 4.9269-3.5598 6.9307-0.18421-1.2467 2.3088-1.8727 3.1657-3.0133 1.5528-0.98414 3.0678-2.6403 4.6327-3.9702-1.0181-0.73477-1.8802 1.6987-2.6858 2.4408-1.7117 1.6585-3.4004 3.3308-4.9233 4.8899 0.29594-1.2538 2.937-1.9374 4.0136-2.3809 1.6524-0.83701 3.5229-1.2856 5.0051-2.1072 0.40449-0.97032-1.7696 0.68189-2.1029 0.95237-2.1834 1.4352-4.572 2.6965-6.6951 3.6769 0.55463-0.72393 2.8474-0.66987 4.1346-1.1247 1.721 0.01483 3.7799-0.32138 5.5302-0.46996 0.3167-0.96997-1.3863 0.08481-2.1537 0.15256-2.6492 0.43613-5.0614 1.2916-7.4242 1.4558 0.65366-0.61703 2.6056 0.463 3.9947 0.41356 1.8263 0.2467 3.8074 1.0567 5.5356 1.1659 0.92795-0.86308-1.6047-0.19355-2.107-0.5011-2.3402-0.31004-4.9843-0.40631-7.5285-1.0704 1.1746-0.37737 2.6681 1.4459 3.7704 2.1282 1.7995 1.0324 3.0851 1.8838 4.8452 2.4668 1.0553-0.65662-1.0029-0.9968-1.7005-1.2535-2.4413-0.77642-4.9078-2.1681-7.2842-3.2065 1.2646 0.0084 2.0433 2.3547 3.2532 3.1668 1.2532 1.2277 3.1148 2.8769 4.3891 4.0333 0.6064-0.92553-2.0105-1.9374-2.429-2.781-1.9244-1.4589-3.2966-2.4559-5.0671-4.0104 1.0813-0.02535 1.2511 2.4189 1.929 3.7015 0.6366 1.5286 1.6825 2.8143 2.6328 4.5987 1.3152 0.13204-0.68621-2.0135-1.233-2.6295-1.3375-1.9962-2.5363-3.6865-3.7287-5.5487 1.1283 0.63906 0.58073 2.4838 1.0776 3.9025 0.08807 1.9987 0.40996 4.1474 1.0863 6.0306 0.77646-0.64657-0.10402-2.4177-0.29897-3.5794-0.51498-1.9739-1.5484-4.3973-1.7846-6.4755 0.95859 0.65949-0.54748 3.1586-0.39364 4.3696-0.19265 1.888-0.94331 4.2161-0.8721 6.0949-0.0501-0.19362 0.15692-0.26962 0.33456-0.17774-0.18089-0.08531-0.32075 0.35643-0.24764 0.17027 0.19095 0.05949 0.05362-0.0058 0.16305-0.17319" opacity=".1"/>
  </g>
  <path id="path3647" transform="matrix(.078294 0 0 .077355 4.5512 4.6863)" d="m62.503 56.478a10.733 10.733 0 1 1-21.466 0 10.733 10.733 0 1 1 21.466 0z" fill="url(#radialGradient6145)"/>
  <path id="path3649" transform="matrix(.17986 0 0 .17771 9.7249 2.9282)" d="m-26.844 13.812c-8.0413 0.32003-14.25 4.4375-14.25 4.4375l1.0625 1.625s7.6836-4.9682 16.531-4c19.144 2.095 36.424 13.078 41.25 24.781l1.7812-0.75c-5.2755-12.793-23.073-23.809-42.812-25.969-1.21-0.13241-2.4137-0.17072-3.5625-0.125z" color="#000000" fill="url(#radialGradient3894)" filter="url(#filter3756)" style="block-progression:tb;text-indent:0;text-transform:none"/>
  <path id="path3717" d="m12.142 9.8254c0.10677 0.9089-0.20514 1.1568-1.3715 1.3772 0.93129-0.08805 1.6172-0.27123 1.7199-0.39984 0 0-0.05175-0.45042-0.34849-0.97739z" fill="url(#linearGradient3728)"/>
  <path id="path3656" d="m4.2666 7.0805s-0.74947 0-1.3854 0.4039c1.3173-0.33658 1.4762 0 1.4762 0s-0.6132 0.044878-0.88574 0.53853c0.4088-0.42634 0.97658-0.26927 0.9993 0.022435 0 0-0.56778 0.15707-0.95387 0.85268 0.59049-0.65073 1.0901-0.44878 1.0901-0.44878s-0.17153 0.15071-0.52236 0.71804c0.45423-0.53853 0.84032-0.4039 0.84032-0.4039s-0.43151 0.24683-0.72676 1.1444c0.59049-0.98731 0.9993-0.71804 0.9993-0.71804s-0.24982 0.35902-0.31796 0.8078c0.34067-0.49365 0.70405-0.26927 0.70405-0.26927s-0.38609 0.17951-0.70405 0.83024c0.74947-0.74048 0.84032-0.49366 0.84032-0.49366s-0.13627 0.17951-0.24982 0.49366c0.47694-0.29171 0.54507-0.15707 1.022-0.02243-1.3854-1.481-2.2257-3.4556-2.2257-3.4556z" opacity=".7"/>
  <path id="path3638" d="m4.5538 6.9932c-0.25728 0.023489-0.37659 0.066636-0.37659 0.066636 0.54507 2.2214 1.6484 4.0411 4.2999 4.2872 1.8571 0.17233 3.9778-0.21444 4.1481-0.42761 0 0-0.02598-0.05428-0.03373-0.07219-0.71641 0.19896-2.3201 0.41235-3.7715 0.27767-2.5865-0.24001-3.7015-1.9846-4.2605-4.1317-0.00168 1.48e-4 -0.00401-1.501e-4 -0.00561 0z" fill="url(#linearGradient3738)"/>
  <path id="path3740" d="m4.5538 6.9932c-0.25728 0.023489-0.37659 0.066636-0.37659 0.066636 0.54507 2.2214 1.6484 4.0411 4.2999 4.2872 1.8571 0.17233 3.9778-0.21444 4.1481-0.42761 0 0-0.02598-0.05428-0.03373-0.07219-0.71641 0.19896-2.3201 0.41235-3.7715 0.27767-2.5865-0.24001-3.7015-1.9846-4.2605-4.1317-0.00168 1.48e-4 -0.00401-1.501e-4 -0.00561 0z" fill="url(#linearGradient3738)"/>
  <path id="path3732" d="m4.7337 6.8155c-0.25728 0.023489-0.37659 0.066643-0.37659 0.066643 0.01103 0.044954 0.022227 0.088662 0.033724 0.13328 0.046342-0.00707 0.10079-0.01653 0.163-0.022212 0.0016-1.501e-4 0.00394 1.487e-4 0.00561 0 0.55904 2.1471 1.6741 3.8917 4.2605 4.1317 1.4514 0.13468 3.0551-0.07871 3.7715-0.27767 0.10959-0.03815 0.18751-0.07287 0.21359-0.10551 0 0-0.02598-0.05428-0.03373-0.07219-0.7164 0.19896-2.3201 0.41235-3.7715 0.27767-2.5865-0.24001-3.7015-1.9846-4.2605-4.1317-0.00168 1.494e-4 -0.00401-1.487e-4 -0.00561 0z" opacity=".2"/>
  <path id="path3752" d="m4.5538 6.9932c-0.25728 0.023489-0.37659 0.066636-0.37659 0.066636 0.54507 2.2214 1.6484 4.0411 4.2999 4.2872 0.29108 0.02701 0.58695 0.03651 0.88246 0.03887-0.23605-0.0055-0.47046-0.01733-0.70259-0.03887-2.6515-0.24604-3.7548-2.0657-4.2999-4.2872 0 0 0.065874-0.022387 0.20797-0.044431-0.00197-0.00739-0.00372-0.014806-0.00561-0.022212-0.00168 1.487e-4 -0.00401-1.501e-4 -0.00561 0zm8.0377 3.854c-0.52985 0.14715-1.5449 0.30026-2.6249 0.31654 1.0492-4.25e-4 2.0493-0.13525 2.6418-0.27767-0.0078-0.01647-0.01275-0.02935-0.01686-0.03887z"/>
  <path id="path3736" transform="matrix(.078294 0 0 .077355 3.2921 4.3309)" d="m62.503 56.478a10.733 10.733 0 1 1-21.466 0 10.733 10.733 0 1 1 21.466 0z" fill="url(#radialGradient3750)"/>
  <path id="path3748" transform="matrix(.10792 0 0 .10662 4.8561 3.9837)" d="m62.503 56.478a10.733 10.733 0 1 1-21.466 0 10.733 10.733 0 1 1 21.466 0z" fill="url(#radialGradient3750)"/>
  <path id="path3770" d="m5.0468 6.8705s-1.9896 0.08225-2.229-1.5652c0.3768 1.3268 2.5429 1.4928 2.5429 1.4928s-2 0.02439-1.8045-2.1873c-0.07538 1.8701 2.1786 2.2355 2.1786 2.2355s-1.6725-0.59125-1.148-1.9712c-0.3089 1.3325 1.5271 1.9824 1.5271 1.9824s-1.1755-0.75286-0.29471-1.805c-0.60178 0.95643 0.61684 1.9592 0.61684 1.9592s-0.68418-0.72721 0.030714-1.3871c-0.47003 0.823 0.28325 1.3147 0.28325 1.3147s-0.3108-0.52876 0.25522-1.3582c-0.43341 0.9781 0.066915 1.5125 0.066915 1.5125s-0.074106-0.59228 0.31872-0.97407c-0.29763 0.52563-0.00475 0.9017-0.00475 0.9017s-0.10579-0.35198 0.32688-0.74744c-0.35297 0.36812-0.079587 0.89206-0.079587 0.89206s0.060947-0.46211 0.35455-0.66869c-0.31147 0.48625 0.01475 0.75382 0.01475 0.75382-2.7755-0.88363-2.956-0.38052-2.956-0.38052z"/>
  <path id="path3772" d="m5.392 6.7829s-1.7263 0.063467-1.934-1.2078c0.32693 1.0238 2.2064 1.1519 2.2064 1.1519s-1.7361 0.018819-1.5656-1.6878c-0.0654 1.443 1.8903 1.7249 1.8903 1.7249s-1.4511-0.45623-0.99606-1.521c-0.26802 1.0282 1.3249 1.5297 1.3249 1.5297s-1.0199-0.58093-0.25571-1.3928c-0.52214 0.73801 0.5352 1.5118 0.5352 1.5118s-0.59363-0.56114 0.026645-1.0703c-0.40782 0.63506 0.24576 1.0145 0.24576 1.0145s-0.26966-0.40801 0.22144-1.048c-0.37604 0.75474 0.05805 1.1671 0.05805 1.1671s-0.064297-0.45702 0.27653-0.75162c-0.25824 0.40559-0.00419 0.69578-0.00419 0.69578s-0.091792-0.2716 0.28362-0.57675c-0.30625 0.28405-0.069044 0.68834-0.069044 0.68834s0.052877-0.35658 0.30762-0.51598c-0.27024 0.37521 0.012788 0.58167 0.012788 0.58167-2.4081-0.68184-2.5647-0.29362-2.5647-0.29362z"/>
  <path id="path3774" d="m7.9985 7.2719s-0.66832-0.51552-0.12604-1.1441c-0.37662 0.57869 0.31053 1.2527 0.31053 1.2527s-0.38157-0.48154 0.053596-0.86991c-0.29611 0.4997 0.13193 0.83589 0.13193 0.83589s-0.16823-0.34334 0.18419-0.8436c-0.27867 0.59843 2.876e-4 0.95218 2.876e-4 0.95218s-0.028138-0.37462 0.21147-0.60007c-0.18762 0.31924-0.025939 0.56605-0.025939 0.56605s-0.052849-0.22488 0.21043-0.45746c-0.21594 0.21832-0.06947 0.55728-0.06947 0.55728s0.047516-0.28796 0.22459-0.407c-0.1947 0.29401-0.010736 0.4739-0.010736 0.4739-0.93354-0.23435-1.0367-0.097212-1.0948-0.31583z"/>
  <path id="path3776" d="m8.5114 7.5296s-0.69806-0.43148-0.13165-0.95763c-0.39337 0.48436 0.32434 1.0485 0.32434 1.0485s-0.39854-0.40304 0.055977-0.7281c-0.30929 0.41824 0.1378 0.69963 0.1378 0.69963s-0.17572-0.28737 0.19239-0.70608c-0.29107 0.50088 3.053e-4 0.79696 3.053e-4 0.79696s-0.029388-0.31355 0.22088-0.50225c-0.19597 0.2672-0.027098 0.47377-0.027098 0.47377s-0.055202-0.18822 0.21979-0.38289c-0.22555 0.18273-0.072569 0.46643-0.072569 0.46643s0.049638-0.24102 0.23458-0.34065c-0.20336 0.24608-0.011218 0.39665-0.011218 0.39665-0.97508-0.19615-1.0828-0.081365-1.1435-0.26434z"/>
 </g>
</svg>
