<?xml version="1.0" encoding="UTF-8"?>
<!-- Created with Inkscape (http://www.inkscape.org/) -->
<svg id="svg2" width="16" height="16" version="1.1" xmlns="http://www.w3.org/2000/svg" xmlns:cc="http://creativecommons.org/ns#" xmlns:dc="http://purl.org/dc/elements/1.1/" xmlns:rdf="http://www.w3.org/1999/02/22-rdf-syntax-ns#" xmlns:xlink="http://www.w3.org/1999/xlink">
 <defs id="defs4">
  <linearGradient id="linearGradient3629" x2="29.017" y1="8" y2="8" gradientTransform="matrix(0,-1,1,0,0,16)" gradientUnits="userSpaceOnUse">
   <stop id="stop3330" offset="0"/>
   <stop id="stop3333" stop-opacity="0" offset="1"/>
  </linearGradient>
  <radialGradient id="radialGradient3161" cx="48" cy="48" r="42" gradientTransform="matrix(.21769 0 0 .21769 -2.449 -2.4491)" gradientUnits="userSpaceOnUse">
   <stop id="stop4131" stop-color="#effac2" offset="0"/>
   <stop id="stop4179" stop-color="#effac2" stop-opacity=".79389" offset=".5"/>
   <stop id="stop4133" stop-color="#effac2" stop-opacity="0" offset="1"/>
  </radialGradient>
  <linearGradient id="linearGradient3163" x1="48" x2="48" y1="90" y2="5.9877" gradientTransform="matrix(.19048 0 0 .19048 -1.1429 -1.143)" gradientUnits="userSpaceOnUse">
   <stop id="stop3702" stop-color="#5eb71f" offset="0"/>
   <stop id="stop3704" stop-color="#4e9425" offset="1"/>
  </linearGradient>
  <radialGradient id="radialGradient4056" cx="56" cy="50.518" r="30.119" gradientTransform="matrix(.26556 0 0 .21576 -5.5385 -2.4093)" gradientUnits="userSpaceOnUse">
   <stop id="stop4173" stop-color="#8c8c8c" offset="0"/>
   <stop id="stop4175" stop-color="#303032" offset="1"/>
  </radialGradient>
 </defs>
 <metadata id="metadata7">
  <rdf:RDF>
   <cc:Work rdf:about="">
    <dc:format>image/svg+xml</dc:format>
    <dc:type rdf:resource="http://purl.org/dc/dcmitype/StillImage"/>
    <dc:title/>
   </cc:Work>
  </rdf:RDF>
 </metadata>
 <g id="layer1">
  <path id="rect2419" d="m2 0c-1.108 0-2 0.892-2 2v12c0 1.108 0.892 2 2 2h12c1.108 0 2-0.892 2-2v-12c0-1.108-0.892-2-2-2h-12z" fill="url(#linearGradient3163)"/>
  <path id="rect3359" d="m2 0c-1.108 0-2 0.892-2 2v12c0 1.108 0.892 2 2 2h12c1.108 0 2-0.892 2-2v-12c0-1.108-0.892-2-2-2h-12z" fill="url(#radialGradient3161)"/>
  <path id="rect2835" d="m0 14c0 1.108 0.892 2 2 2h12c1.108 0 2-0.892 2-2v-12c0-1.108-0.892-2-2-2h-12c-1.108 0-2 0.892-2 2v12zm0.96875 0v-12c0-0.5832 0.44805-1.0312 1.0312-1.0312h12c0.5832 0 1.0312 0.44805 1.0312 1.0312v12c0 0.5832-0.44805 1.0312-1.0312 1.0312h-12c-0.5832 0-1.0312-0.44805-1.0312-1.0312z" fill="url(#linearGradient3629)" opacity=".4"/>
  <path id="path2843" d="m2 0.96875c-0.5832 0-1.0312 0.44805-1.0312 1.0312v1c0-0.5832 0.44805-1.0312 1.0312-1.0312h12c0.5832 0 1.0312 0.44805 1.0312 1.0312v-1c0-0.5832-0.44805-1.0312-1.0312-1.0312h-12z" fill="#fff" opacity=".2"/>
  <path id="path3950" d="m6.9217 2.5025c-0.26563 0.0084412-0.47988 0.038737-0.58321 0.067694-0.21894 0.061192-0.46396 0.18688-0.59883 0.38013-0.090454 0.12908-0.14535 0.2949-0.1458 0.52593 0 0.13076 0.00187 0.43451 0.0052 0.70819 0.00333 0.27453 0.0052 0.52426 0.0052 0.52593-1.56e-4 0.24442-0.19713 0.44231-0.44262 0.44262h-1.1248c-0.24022 0-0.42217 0.04045-0.56238 0.10414-0.14042 0.063756-0.24208 0.14826-0.31765 0.24995-0.15041 0.20192-0.17767 0.4487-0.17705 0.70298 0 0 2e-3 0.21227 0.052073 0.61446 0.041626 0.31119 0.38244 2.484 0.70298 3.1452 0.12429 0.25724 0.20366 0.36568 0.44782 0.47907 0.54403 0.23292 1.7869 0.48818 2.3693 0.56238 0.58135 0.07438 0.94897 0.23202 1.1664-0.22391 7.333e-4 -0.0011 0.04002-0.11125 0.098937-0.27598 0.18879-0.57207 0.2187-1.0803 0.2187-1.4476 0-0.037346 0.052071-0.039067 0.052071 0 0 0.25933-0.047511 1.1754 0.6457 1.4216 0.27366 0.09705 0.83955 0.18234 1.4164 0.24995 0.52157 0.05993 0.90085 0.26572 0.90085 1.6038 0 0.81411-0.17358 0.92689-1.0675 0.92689-0.72462 0-0.99979 0.01852-0.99979-0.55718 0-0.46528 0.46086-0.41658 0.80192-0.41658 0.15233 0 0.041657-0.1139 0.041657-0.40096 0-0.28555 0.17932-0.44885 0.010414-0.45303-1.1793-0.03244-1.8746-0.0013-1.8746 1.4737 0 1.339 0.51325 1.5882 2.187 1.5882 1.3123 0 1.7754-0.04226 2.3172-1.7236 0.10726-0.33191 0.36899-1.3455 0.52593-3.0462 0.099254-1.0753-0.09703-4.3204-0.24994-5.1396-0.089442-0.47878-0.37272-0.71956-0.63008-0.81233-0.27767-0.10036-0.83914-0.20302-1.5466-0.2864-0.56913-0.067024-1.2414-0.059356-1.6455-0.046865-0.048493-0.33216-0.28086-0.63438-0.54155-0.73943-0.43411-0.17473-1.0153-0.21715-1.458-0.20308zm-1.5413 0.32285c-0.00434 7.333e-4 -0.01134 9e-4 -0.01562 0.0052l-2.187 2.1714c-0.00427 0.00352-0.00919 0.00572-0.010413 0.010414 0.045247-0.022397 0.11102-0.053433 0.11977-0.05728 0.19052-0.085966 0.42122-0.13018 0.69777-0.13018h1.1248c0.06452 0 0.11444-0.050534 0.11456-0.11456 0-4.166e-4 -0.010413-0.96576-0.010413-1.2341v-0.0052c0-0.22041 0.044407-0.41176 0.12497-0.5728l0.04166-0.072902zm5.1864 4.6605c0.02756-0.00212 0.05832-0.00106 0.08852 0 0.53499 0.018405 0.60735 0.5219 0.60925 0.8644-0.22557-0.10059-0.50296-0.16636-0.80712-0.17705-0.16213-0.0056657-0.31802 0.0078772-0.46344 0.031243 0.038366-0.30987 0.15944-0.68682 0.5728-0.7186z" fill="#fff" opacity=".4"/>
  <path id="path4183" d="m6.9217 2.0025c-0.26563 0.0084412-0.47988 0.038737-0.58321 0.067694-0.21894 0.061192-0.46396 0.18688-0.59883 0.38013-0.090454 0.12908-0.14535 0.2949-0.1458 0.52593 0 0.13076 0.00187 0.43451 0.0052 0.70819 0.00333 0.27453 0.0052 0.52426 0.0052 0.52593-1.56e-4 0.24442-0.19713 0.44231-0.44262 0.44262h-1.1248c-0.24022 0-0.42217 0.04045-0.56238 0.10414-0.14042 0.063756-0.24208 0.14826-0.31765 0.24995-0.15041 0.20192-0.17767 0.4487-0.17705 0.70298 0 0 2e-3 0.21227 0.052073 0.61446 0.041626 0.31119 0.38244 2.484 0.70298 3.1452 0.12429 0.25724 0.20366 0.36568 0.44782 0.47907 0.54403 0.23292 1.7869 0.48818 2.3693 0.56238 0.58135 0.07438 0.94897 0.23202 1.1664-0.22391 7.333e-4 -0.0011 0.04002-0.11125 0.098937-0.27598 0.18879-0.57207 0.2187-1.0803 0.2187-1.4476 0-0.037346 0.052071-0.039067 0.052071 0 0 0.25933-0.047511 1.1754 0.6457 1.4216 0.27366 0.09705 0.83955 0.18234 1.4164 0.24995 0.52157 0.05993 0.90085 0.26572 0.90085 1.6038 0 0.81411-0.17358 0.92689-1.0675 0.92689-0.72462 0-0.99979 0.01852-0.99979-0.55718 0-0.46528 0.46086-0.41658 0.80192-0.41658 0.15233 0 0.041657-0.1139 0.041657-0.40096 0-0.28555 0.17932-0.44885 0.010414-0.45303-1.1793-0.03244-1.8746-0.0013-1.8746 1.4737 0 1.339 0.51325 1.5882 2.187 1.5882 1.3123 0 1.7754-0.04226 2.3172-1.7236 0.10726-0.33191 0.36899-1.3455 0.52593-3.0462 0.099254-1.0753-0.09703-4.3204-0.24994-5.1396-0.089442-0.47878-0.37272-0.71956-0.63008-0.81233-0.27767-0.10036-0.83914-0.20302-1.5466-0.2864-0.56913-0.067024-1.2414-0.059356-1.6455-0.046865-0.048493-0.33216-0.28086-0.63438-0.54155-0.73943-0.43411-0.17473-1.0153-0.21715-1.458-0.20308zm-1.5413 0.32285c-0.00434 7.333e-4 -0.01134 9e-4 -0.01562 0.0052l-2.187 2.1714c-0.00427 0.00352-0.00919 0.00572-0.010413 0.010414 0.045247-0.022397 0.11102-0.053433 0.11977-0.05728 0.19052-0.085966 0.42122-0.13018 0.69777-0.13018h1.1248c0.06452 0 0.11444-0.050534 0.11456-0.11456 0-4.166e-4 -0.010413-0.96576-0.010413-1.2341v-0.0052c0-0.22041 0.044407-0.41176 0.12497-0.5728l0.04166-0.072902zm5.1864 4.6605c0.02756-0.00212 0.05832-0.00106 0.08852 0 0.53499 0.018405 0.60735 0.5219 0.60925 0.8644-0.22557-0.10059-0.50296-0.16636-0.80712-0.17705-0.16213-0.0056657-0.31802 0.0078772-0.46344 0.031243 0.038366-0.30987 0.15944-0.68682 0.5728-0.7186z" fill="url(#radialGradient4056)"/>
 </g>
</svg>
