<?xml version="1.0" encoding="UTF-8"?>
<!-- Created with Inkscape (http://www.inkscape.org/) -->
<svg id="svg2" width="16" height="16" version="1.1" xmlns="http://www.w3.org/2000/svg" xmlns:cc="http://creativecommons.org/ns#" xmlns:dc="http://purl.org/dc/elements/1.1/" xmlns:rdf="http://www.w3.org/1999/02/22-rdf-syntax-ns#" xmlns:xlink="http://www.w3.org/1999/xlink">
 <defs id="defs4">
  <linearGradient id="linearGradient3204" x1="1" x2="15" y1="9" y2="9" gradientTransform="translate(-17,-2)" gradientUnits="userSpaceOnUse">
   <stop id="stop3694" stop-color="#2f7d9e" offset="0"/>
   <stop id="stop3696" stop-color="#54a8cc" offset="1"/>
  </linearGradient>
  <linearGradient id="linearGradient3629" x2="29.017" y1="8" y2="8" gradientTransform="matrix(0,-1,1,0,0,16)" gradientUnits="userSpaceOnUse">
   <stop id="stop3330" offset="0"/>
   <stop id="stop3333" stop-opacity="0" offset="1"/>
  </linearGradient>
 </defs>
 <metadata id="metadata7">
  <rdf:RDF>
   <cc:Work rdf:about="">
    <dc:format>image/svg+xml</dc:format>
    <dc:type rdf:resource="http://purl.org/dc/dcmitype/StillImage"/>
    <dc:title/>
   </cc:Work>
  </rdf:RDF>
 </metadata>
 <g id="layer1">
  <rect id="rect3196" transform="rotate(-90)" x="-16" width="16" height="16" rx="2" ry="2" fill="url(#linearGradient3204)"/>
  <path id="rect2835" d="m0 14c0 1.108 0.892 2 2 2h12c1.108 0 2-0.892 2-2v-12c0-1.108-0.892-2-2-2h-12c-1.108 0-2 0.892-2 2v12zm0.96875 0v-12c0-0.5832 0.44805-1.0312 1.0312-1.0312h12c0.5832 0 1.0312 0.44805 1.0312 1.0312v12c0 0.5832-0.44805 1.0312-1.0312 1.0312h-12c-0.5832 0-1.0312-0.44805-1.0312-1.0312z" fill="url(#linearGradient3629)" opacity=".4"/>
  <path id="path2843" d="m2 0.96875c-0.5832 0-1.0312 0.44805-1.0312 1.0312v1c0-0.5832 0.44805-1.0312 1.0312-1.0312h12c0.5832 0 1.0312 0.44805 1.0312 1.0312v-1c0-0.5832-0.44805-1.0312-1.0312-1.0312h-12z" fill="#fff" opacity=".3"/>
  <path id="path3736" d="m7.0675 2.7526c-0.059176 0.00351-0.12017 0.01209-0.1775 0.022904a0.040749 0.040749 0 0 1-0.00575 0c-0.029547 0.00112-0.047899 0.010843-0.057255 0.01718-0.00936 0.00635-0.00568 0.00969-0.00575 0.011455-4.34e-5 0.0018-0.00389 0.00343 0.00575 0.011456 0.00957 0.00798 0.029009 0.018442 0.057255 0.022904a0.040749 0.040749 0 0 1 0.00575 0 0.040749 0.040749 0 0 1 0.00575 0c0.29507 0.12842 0.60862 0.23743 0.89324 0.40654 0.00224 0.00134 0.00351 0.00441 0.00575 0.00575 0.18263 0.082536 0.33337 0.22042 0.44662 0.37791 0.1312 0.19756 0.13952 0.46726 0.057255 0.68138a0.040749 0.040749 0 0 1-0.00575 0c-0.14079 0.2825-0.26068 0.59381-0.48097 0.84171-0.0018 0.00202-0.00396 0.00374-0.00575 0.00575-0.13634 0.19546-0.35619 0.28234-0.52106 0.41227-0.00202 0.00172-0.00374 0.00403-0.00575 0.00575-0.1262 0.1076-0.27343 0.20149-0.37219 0.31493-0.05473 0.094879-0.11477 0.1727-0.11452 0.26912a0.040749 0.040749 0 0 1 0 0.00575 0.040749 0.040749 0 0 1 0 0.00575c-0.048266 0.18766-0.017307 0.38577 0.045808 0.57259 0.044149 0.1892 0.14851 0.36165 0.29202 0.49243 0.00172 5.134e-4 0.00396-4.76e-4 0.00575 0 0.092475 0.025765 0.21071-0.00441 0.32065-0.034359 0.04719-0.07717 0.10309-0.14148 0.16033-0.20613 0.082714-0.097579 0.20116-0.16503 0.32065-0.20613 0.00165-8.22e-4 0.00411 8.22e-4 0.00575 0v-0.00575c0.30432-0.14537 0.6356-0.10532 0.93332-0.17178 0.08397-0.028448 0.1662-0.059706 0.22331-0.11452 0.00149-0.0018 0.00426-0.00389 0.00575-0.00575 0.040457-0.05186 0.066858-0.12368 0.097341-0.19468 0.031557-0.073516 0.069353-0.14923 0.1317-0.21186a0.040749 0.040749 0 0 1 0.022904-0.011455 0.040749 0.040749 0 0 1 0.00575 0c0.11153-0.00284 0.20144 0.049088 0.28057 0.10879 0.073342 0.055342 0.13956 0.11635 0.20613 0.16032 0.00129-0.00568 0.00497-0.00456 0.0058-0.011448 0.00258-0.022933 0.00414-0.047952 0.00571-0.074434 0.00157-0.026483-7.476e-4 -0.052151 0.00571-0.074435a0.040749 0.040749 0 0 1 0.00571-0.00575c0.050288-0.097951 0.11122-0.2188 0.21758-0.29202 2e-3 -0.00172 0.0037-0.00403 0.0057-0.00575 0.14435-0.11913 0.34908-0.13964 0.51533-0.051532v-0.00575c0.08882 0.036258 0.15868 0.10284 0.22904 0.1546 0.07036 0.051763 0.13999 0.091021 0.21758 0.09734 0.07 0.013249 0.13408-0.00613 0.19468-0.040083 0.0606-0.033941 0.11625-0.081288 0.17178-0.1317 0.05092-0.041981 0.10985-0.11264 0.1775-0.16605 0.06638-0.052405 0.15561-0.09089 0.25194-0.057256 0.0017 5.313e-4 0.0041-5.499e-4 0.0057 0 0.20298 0.065543 0.32852 0.23747 0.4638 0.36646 0.0018 0.0018 0.0039 0.00396 0.0057 0.00575 0.14601 0.094526 0.28621 0.20432 0.44662 0.1775a0.040749 0.040749 0 0 1 0.0057 0 0.040749 0.040749 0 0 1 0.0057 0c0.21547 0.023091 0.42939-0.1082 0.53251-0.29775 0.04047-0.074256 0.02985-0.15718-0.02291-0.22904a0.040749 0.040749 0 0 1-0.0057-0.011455 0.040749 0.040749 0 0 1 0-0.00575c-0.01405-0.097052-0.09882-0.17697-0.14315-0.29202-0.0017-0.00419-0.0041-0.00717-0.0057-0.011455-0.26187-0.43078-0.66085-0.76335-1.0478-1.0936-2e-3 -0.00172-0.0037-0.00396-0.0057-0.00575-0.16672-0.105-0.31442-0.23201-0.47525-0.3321-0.0015-8.22e-4 -0.0042 8.22e-4 -0.0057 0-0.27266-0.15002-0.52785-0.31678-0.81292-0.42373a0.040749 0.040749 0 0 1-0.01145-0.00575c-0.19474-0.11225-0.40595-0.19803-0.6184-0.28057-0.0017-4.768e-4 -4e-3 4.76e-4 -0.0058 0-0.19976-0.053389-0.38304-0.14285-0.57255-0.19469-0.28204-0.067568-0.56308-0.12798-0.84743-0.18896-0.3686-0.070265-0.74796-0.07025-1.128-0.09734-0.00187 6.7e-6 -0.00381-3.8e-6 -0.00575 0-0.18103 3.662e-4 -0.36255-0.016111-0.53824-0.00575zm-0.57832 0.16033c-0.26922 0.014714-0.54109 0.085944-0.81308 0.14887a0.069442 0.069442 0 0 1-0.00575 0c-0.36787 0.066918-0.72072 0.21327-1.0593 0.38364-0.46208 0.21328-0.88869 0.49949-1.254 0.85316-0.25373 0.21557-0.46108 0.48538-0.64703 0.76727-0.20139 0.2742-0.33725 0.59397-0.46953 0.91615-0.00165 0.00396-0.00411 0.00748-0.00575 0.011448l-0.057255 0.20613c-0.076711 0.32774-0.17035 0.6436-0.1775 0.96768 3.109e-4 0.00187-3.115e-4 0.00389 0 0.00575-3.66e-5 0.00187 3e-5 0.00381 0 0.00575 0.053908 0.32037 0.15625 0.6393 0.34355 0.89897 0.15251 0.23718 0.33577 0.45502 0.56686 0.60695a0.069442 0.069442 0 0 1 0.00575 0.00575c0.14991 0.126 0.35207 0.17659 0.54969 0.28057 0.00187 4.036e-4 0.00389-4.027e-4 0.00575 0 0.00389 0.00209 0.00756 0.00359 0.011455 0.00575 0.34428 0.073216 0.70021 0.12185 1.0307 0.034359a0.069442 0.069442 0 0 1 0.022904 0c-0.00456-3.67e-4 0.019286-0.0029 0.045808-0.011456 0.02652-0.00853 0.061006-0.019743 0.091614-0.028628 0.015304-0.00441 0.028777-0.00954 0.045808-0.011448 0.00927-0.00105 0.022537 0.00426 0.034352 0.00575 0.171-0.23171 0.33334-0.48018 0.52678-0.70429a0.069442 0.069442 0 0 1 0.00575-0.00575c0.15159-0.14196 0.31227-0.28386 0.50389-0.38362a0.069442 0.069442 0 0 1 0.01718-0.00575c0.10963-0.02698 0.19483-0.095837 0.25767-0.19468a0.069442 0.069442 0 0 1 0.00575-0.00575c0.036022-0.038324 0.054517-0.095046 0.074439-0.16033 0.019922-0.065281 0.041533-0.13954 0.10307-0.20613a0.069442 0.069442 0 0 1 0.00575-0.00575c0.14109-0.11757 0.34294-0.14532 0.51534-0.091618a0.069442 0.069442 0 0 1-0.00575-0.00575c-0.13973-0.17447-0.25188-0.37905-0.29203-0.60695-0.048961-0.24199-0.0075175-0.49492 0.11452-0.71001a0.069442 0.069442 0 0 1 0.01718-0.01718c0.037349-0.035263 0.071312-0.088723 0.11452-0.14315 0.038521-0.04852 0.088039-0.094871 0.1546-0.12597 0.16981-0.14 0.37116-0.2299 0.49815-0.37218a0.069442 0.069442 0 0 1 0.00575-0.00575c0.22639-0.19511 0.38485-0.45648 0.53251-0.72719 6.785e-4 -0.00165-6.778e-4 -0.00403 0-0.00575 0.058772-0.14413 0.10011-0.30562 0.12597-0.4638-9.26e-5 -0.00194 9.95e-5 -0.00381 0-0.00575-0.00732-0.14404-0.034262-0.28485-0.12597-0.37791a0.069442 0.069442 0 0 1-0.00575-0.011455c-0.076006-0.11211-0.20226-0.19084-0.33211-0.27485-0.00396-0.00172-0.00748-0.00396-0.011455-0.00575-0.24065-0.10599-0.45875-0.23843-0.69284-0.32066a0.069442 0.069442 0 0 1-0.01718-0.00575c-0.09473-0.062247-0.21312-0.070429-0.34928-0.10307-0.00381-8.967e-4 -0.00758 9.759e-4 -0.011455 0zm5.2965 3.0118c-0.10548 0.055305-0.19275 0.14152-0.2863 0.23476h-0.0057c-0.0839 0.095083-0.1966 0.16105-0.32638 0.17178a0.070353 0.070353 0 0 1-0.0058 0c-0.10387-4.036e-4 -0.19816-0.042183-0.27484-0.074435a0.070353 0.070353 0 0 1-0.02291-0.011456c-0.072609-0.071767-0.16322-0.12693-0.2634-0.17178a0.070353 0.070353 0 0 1-0.01718-0.011455c-0.05491-0.045576-0.12575-0.058369-0.20613-0.051532-0.0676 0.00795-0.1275 0.029584-0.1546 0.062987a0.070353 0.070353 0 0 1-0.02291 0.01718c-0.05623 0.030533-0.09028 0.063324-0.09734 0.11452a0.070353 0.070353 0 0 1-0.0057 0.01718c-0.0283 0.059497-0.03001 0.13127-0.02862 0.20613 0.13121 0.10866 0.26717 0.21086 0.41226 0.30347 0.0015 6.59e-4 0.0041-6.412e-4 0.0057 0 0.0022 0.00142 0.0034 0.00426 0.0057 0.00575 0.1123 0.046899 0.24024 0.080212 0.36646 0.13742 0.0017 8.22e-4 4e-3 -8.221e-4 0.0058 0 0.19293 0.061597 0.30676 0.21582 0.42372 0.32638 0.0018 0.00172 0.0039 0.00403 0.0057 0.00575 0.08064 0.059034 0.15588 0.13001 0.20613 0.22331a0.070353 0.070353 0 0 1 0 0.00575c0.07685 0.16301 0.14635 0.33013 0.21186 0.49815a0.070353 0.070353 0 0 1 0.0057 0c0.07169 0.22231 0.05994 0.45014 0.05726 0.66421a0.070353 0.070353 0 0 1 0 0.011455c-0.02089 0.16092-0.07123 0.29875-0.10879 0.4409 0.0686-0.0064 0.13833-0.01388 0.20613-0.01146 0.0038-2.19e-4 0.0076 2.21e-4 0.01144 0 0.29838-0.0178 0.6057-0.03739 0.91042-0.01718 0.30844 0.02751 0.62976 0.01674 0.9505 0.05726 0.0046-1.02e-4 0.0069-3e-5 0.01144 0 0.04285 2.94e-4 0.08313 0.0023 0.10879 0 0.01418-0.0013 0.02045-0.0042 0.02291-0.0058 0.0025-0.0016 0.0029 0.0039 0.0057-0.0058a0.070353 0.070353 0 0 1 0-0.0058c0.05022-0.16399 0.06639-0.34331 0.06298-0.52106-5.13e-4 -0.00389 4.95e-4 -0.0076 0-0.011456-0.02539-0.19843-0.02386-0.39675-0.02291-0.58977 1e-5 -0.00187-1e-5 -0.00389 0-0.00575-0.01597-0.24707-0.0447-0.49726-0.09162-0.73864-0.06329-0.3134-0.10963-0.6218-0.20613-0.91615-0.0026-0.00419-0.0034-0.00725-0.0058-0.011455-0.02802-0.049918-0.04266-0.10206-0.06298-0.13742-0.0172-0.029942-0.03612-0.037894-0.05726-0.045808-0.03841 0.026438-0.07013 0.07779-0.1317 0.1317h-0.0057c-0.09086 0.089642-0.19111 0.21403-0.34928 0.25767-0.0043 0.0012-7e-3 0.00463-0.01145 0.00575-0.09705 0.037819-0.19246 0.029965-0.27484 0.028628a0.070353 0.070353 0 0 1-0.01145 0c-0.13896-0.019272-0.25838-0.097221-0.35483-0.17735-0.15013-0.13918-0.27175-0.29375-0.42944-0.37791a0.070353 0.070353 0 0 1-0.01145-0.00575c-0.02951-0.023128-0.07773-0.024002-0.14315-0.022904zm-2.2904 0.48098c-0.090476 0.12085-0.19036 0.22883-0.3092 0.32065-0.15554 0.095639-0.32286 0.18061-0.50961 0.18895-0.17948 0.027656-0.36709 0.060439-0.53824 0.11452-0.13585 0.079879-0.29034 0.12159-0.40654 0.23476-0.20411 0.16354-0.46284 0.2471-0.71574 0.29202-0.18043-0.046973-0.37697-0.066768-0.56114-0.028628-0.10288 0.10652-0.15876 0.24463-0.21758 0.37791-0.05053 0.088753-0.14341 0.134-0.21186 0.20613-0.1432 0.048019-0.24688 0.16613-0.38936 0.21758-0.30596 0.23095-0.49337 0.57364-0.72719 0.87033-0.11739 0.09889-0.043274 0.25662-0.028628 0.38364 0.020856 0.2627 0.21072 0.49661 0.38936 0.65275 0.30489 0.26052 0.70347 0.3622 1.0822 0.4638 0.23015 0.03314 0.45906 0.07982 0.69284 0.06298 0.27511 0.0029 0.54719 0.0051 0.8188-0.0458 0.24237-0.02023 0.4769-0.07645 0.71001-0.14315 0.40359-0.08753 0.79194-0.232 1.1795-0.37218 0.25934-0.09297 0.53267-0.16161 0.76155-0.32065 0.20842-0.07016 0.36885-0.22973 0.50961-0.38936 0.04672-0.10578 0.14505-0.18596 0.16033-0.30347 0.06686-0.12463 0.07688-0.27295 0.12024-0.40654 0.0375-0.23004 0.07052-0.46225 0.01718-0.69284-0.018144-0.2399-0.14115-0.45169-0.28057-0.64129-0.15623-0.27905-0.48618-0.37915-0.75582-0.51533-0.10304-0.058929-0.23162-0.061208-0.31492-0.16033-0.14141-0.13914-0.29939-0.27085-0.47525-0.36646zm3.1951 2.8458c-0.04026 8.5e-5 -0.08067 0.0022-0.12024 0.0058a0.080811 0.080811 0 0 1-0.0057 0c-0.33536 0.0027-0.67274 0.04721-1.0135 0.08016-0.09894 0.16004-0.21804 0.30218-0.34928 0.42944-0.0017 0.0022-0.0039 0.0035-0.0057 0.0057-0.10894 0.12922-0.25484 0.18733-0.36646 0.25767-0.0041 0.0042-0.0072 0.0075-0.01144 0.01145-0.08002 0.07439-0.17501 0.09345-0.24621 0.12024v0.0058c-0.16603 0.08636-0.34014 0.13187-0.49243 0.20041a0.080811 0.080811 0 0 1-0.01144 0.0058c-0.19579 0.05392-0.39186 0.09913-0.57259 0.17178a0.080811 0.080811 0 0 1-0.00571 0c-0.10483 0.03281-0.19461 0.0741-0.28057 0.12597v0.21758 0.0057c0.030406 0.10236 0.054759 0.1995 0.09734 0.27484 0.092805 0.17667 0.2232 0.33652 0.38364 0.45235v-0.0057c0.20647 0.13752 0.41792 0.26592 0.64703 0.32065a0.080811 0.080811 0 0 1 0.0057 0c0.16724 0.05056 0.3458 0.07743 0.52678 0.09734 0.0038 4.22e-4 0.0076-4.21e-4 0.01145 0 0.22156 0.0022 0.45067-0.02335 0.68711-0.01718 0.25796-0.05384 0.51437-0.09474 0.72719-0.21758a0.080811 0.080811 0 0 1 0.0057-0.0058c0.18135-0.07879 0.34849-0.19747 0.49243-0.33783a0.080811 0.080811 0 0 1 0.0057-0.0057c0.08514-0.06796 0.14268-0.18226 0.25194-0.2863 0.0021-0.0048 0.0036-0.0068 0.0057-0.01144 0.05018-0.10805 0.11314-0.19224 0.12597-0.26912a0.080811 0.080811 0 0 1 0.0058-0.02291c0.04792-0.09869 0.08747-0.20715 0.08589-0.30347a0.080811 0.080811 0 0 1 0-0.01145c0.01366-0.088 0.02374-0.17041 0.01718-0.25194a0.080811 0.080811 0 0 1 0-0.01145c0.01401-0.16234-0.03615-0.33081-0.08589-0.50388a0.080811 0.080811 0 0 1 0.01718-0.07444c0.03962-0.04961 0.06233-0.14886 0.16605-0.22331a0.080811 0.080811 0 0 1 0-0.0058c0.03742-0.02544 0.05397-0.07664 0.07444-0.14315-1e-3 -0.0023 0.0028-0.0041-0.0057-0.01146-0.01153-0.01-0.03655-0.01755-0.05726-0.02863-0.11225-0.01048-0.22368-0.02436-0.32638-0.01718a0.080811 0.080811 0 0 1-0.01145 0c-0.12794-0.0099-0.25144-0.02316-0.37224-0.02291zm-3.802 1.609-1.0593 0.21758 0.58404 1.1509 0.64703 0.47525 0.41227 1.0822 1.1509-0.41226c-0.09753-0.19264-0.1877-0.3866-0.29775-0.57259-0.09879-0.15616-0.1618-0.32934-0.23476-0.49815-0.01595-0.06313-0.06218-0.11209-0.10879-0.1546-0.086563-0.098586-0.19632-0.16834-0.31493-0.22331-0.11876-0.052838-0.23996-0.10076-0.36646-0.1317l-0.41227-0.93332z" fill="#fff"/>
 </g>
</svg>
