<?xml version="1.0" encoding="UTF-8"?>
<!-- Created with Inkscape (http://www.inkscape.org/) -->
<svg id="svg2" width="16" height="16" version="1.1" xmlns="http://www.w3.org/2000/svg" xmlns:cc="http://creativecommons.org/ns#" xmlns:dc="http://purl.org/dc/elements/1.1/" xmlns:rdf="http://www.w3.org/1999/02/22-rdf-syntax-ns#" xmlns:xlink="http://www.w3.org/1999/xlink">
 <defs id="defs4">
  <linearGradient id="linearGradient3204" x1="1" x2="15" y1="9" y2="9" gradientTransform="translate(-17,28)" gradientUnits="userSpaceOnUse">
   <stop id="stop3189-7" stop-color="#607fb9" offset="0"/>
   <stop id="stop3191-9" stop-color="#91a7cf" offset="1"/>
  </linearGradient>
  <linearGradient id="linearGradient3629" x2="29.017" y1="8" y2="8" gradientTransform="matrix(0,-1,1,0,0,16)" gradientUnits="userSpaceOnUse">
   <stop id="stop3330" offset="0"/>
   <stop id="stop3333" stop-opacity="0" offset="1"/>
  </linearGradient>
  <clipPath id="clipPath3889">
   <rect id="rect3891" x="-29" y="1" width="20" height="20" rx="2" ry="2" fill="url(#linearGradient3893)" fill-rule="evenodd"/>
  </clipPath>
  <linearGradient id="linearGradient3101" x1="51.643" x2="51.643" y1="123" y2="4.9745" gradientTransform="matrix(.13559 0 0 .13559 -.67797 -.67791)" gradientUnits="userSpaceOnUse">
   <stop id="stop28130-6" stop-color="#444c7f" offset="0"/>
   <stop id="stop28132-1" stop-color="#5963a6" offset="1"/>
  </linearGradient>
  <linearGradient id="linearGradient3103" x1="-3.0608" x2="-3.0608" y1="27.258" y2="7.2537" gradientTransform="matrix(.8 0 0 .8 8.0955 -5.8065)" gradientUnits="userSpaceOnUse">
   <stop id="stop3189-9" stop-color="#d9853a" offset="0"/>
   <stop id="stop3191-8" stop-color="#dca466" offset="1"/>
  </linearGradient>
 </defs>
 <metadata id="metadata7">
  <rdf:RDF>
   <cc:Work rdf:about="">
    <dc:format>image/svg+xml</dc:format>
    <dc:type rdf:resource="http://purl.org/dc/dcmitype/StillImage"/>
    <dc:title/>
   </cc:Work>
  </rdf:RDF>
 </metadata>
 <g id="layer1">
  <path id="rect3173-4" d="m2 0c-1.108 0-2 0.892-2 2v12c0 1.108 0.892 2 2 2h12c1.108 0 2-0.892 2-2v-12c0-1.108-0.892-2-2-2h-12z" fill="url(#linearGradient3103)" fill-rule="evenodd"/>
  <g id="g3880" transform="matrix(.8 0 0 .8 23.2 -.79994)" clip-path="url(#clipPath3889)" fill-rule="evenodd">
   <path id="path3878" transform="translate(-30)" d="m10.5 0.3125a0.69558 0.69558 0 0 0-0.03125 0.03125c-1.0312 0.35096-1.6702 0.95809-2.375 1.1562v-0.03125c-0.82382 0.21293-1.2639 0.84366-1.5625 1.3125s-0.50581 0.781-0.6875 0.875v0.03125c-0.66138 0.26006-1.081 0.77929-1.3438 1.2188-0.27775 0.46462-0.47483 0.85838-0.59375 0.96875-0.87703 0.40169-1.5222 1.1127-1.8438 1.9375-0.31252 0.80176-0.36879 1.6802-0.25 2.5-0.37892 0.58972-0.916 1.3979-0.84375 2.4688 0.00155 0.02298-0.002152 0.03929 0 0.0625v8.7188a0.69558 0.69558 0 0 0 0 0.125c0.17222 1.044 1.1403 1.7477 2.1875 1.625 0.021558-0.0025 0.040887 0.0032 0.0625 0 0.21291-0.0049 0.53163 0.02984 0.90625 0 0.36042-0.02871 0.81217-0.17705 1.1562-0.53125 0.038231-0.03936 0.090188-0.04871 0.125-0.09375l-0.03125-0.03125c0.38234-0.38818 0.51464-0.88435 0.53125-1.2812 0.018289-0.43707-0.018932-0.81233 0-1.0312a0.69558 0.69558 0 0 0 0-0.0625v-6.9062c0.24912-0.30676 0.51897-0.59497 0.8125-0.96875a0.69558 0.69558 0 0 0 0.0625-0.125c0.25599-0.52103 0.23424-1.0715 0.15625-1.5-0.059582-0.32732-0.13052-0.57365-0.1875-0.8125 0.10773-0.012701 0.11495-6.157e-4 0.25-0.03125 0.014774-0.0028223 0.016599-0.028106 0.03125-0.03125 0.96067-0.20619 1.6669-1.0744 1.5625-2.0938a0.69558 0.69558 0 0 0 0-0.0625c0.00143-6.317e-4 -0.00155-0.030586 0-0.03125 0.05439-0.023232 0.14488-0.059563 0.28125-0.0625a0.69558 0.69558 0 0 0 0.03125 0c1.0455-0.061893 1.8133-0.94322 1.8125-1.9688-0.01834 0.017715 0.01118-0.014835 0.09375-0.03125 0.16513-0.03283 0.44655 0.069597 0.4375 0.0625a0.69558 0.69558 0 0 0 0.03125 0 0.69558 0.69558 0 0 0 0 0.03125c-0.0026 0.19716-0.03381 0.60212 0.28125 1 0.0089 0.01357 0.02211 0.01805 0.03125 0.03125 0.02461 0.028752 0.0024 0.065514 0.03125 0.09375l0.03125-0.03125c0.44919 0.58352 1.1346 0.8153 1.6875 0.875a0.69558 0.69558 0 0 0 0.0625 0c0.01044 0.057898 0.0496 0.20763 0.03125 0.40625a0.69558 0.69558 0 0 0 0 0.1875c0.16565 0.87453 0.89245 1.5517 1.8125 1.625v0.03125c0.01441 0.00173 0.01736-0.00164 0.03125 0-0.10177 0.37929-0.26172 0.88546-0.25 1.4375 0.01131 0.53285 0.28486 1.1458 0.84375 1.5312l-0.03125 0.03125c0.13811 0.11779 0.25046 0.35401 0.25 0.3125v8.3125a0.69558 0.69558 0 0 0 0 0.125c0.20024 0.98438 1.1228 1.7076 2.1562 1.5938 0.0217-0.0024 0.04071 0.0031 0.0625 0 0.24835-0.0024 0.56881 0.04271 0.96875 0 0.40288-0.04303 0.9082-0.22826 1.25-0.65625 0.0045-0.0056-0.0044-0.02558 0-0.03125 0.01061-0.01143 0.02108-0.01966 0.03125-0.03125 0.37778-0.4305 0.49381-0.93261 0.5-1.3438 0.0065-0.42928-0.05329-0.81202-0.03125-1.0312a0.69558 0.69558 0 0 0 0-0.0625c-9e-3 -2.551 0.03141-5.0841 0-7.6562 0.0024-0.02357-0.0015-0.03932 0-0.0625 0.0523-0.78954-0.35614-1.3489-0.59375-1.7188-0.12229-0.19035-0.22171-0.33887-0.25-0.4375s-0.019256-0.15217 0.03125-0.28125a0.69558 0.69558 0 0 0 0.03125-0.1875c0.064183-0.85739-0.12395-1.7539-0.5625-2.5312-0.36975-0.65535-0.96634-1.2026-1.7188-1.5-0.27985-1.1287-1.1794-1.8382-2.125-2.25-0.21633-0.65081-0.60513-1.1756-1.0938-1.5312-0.58074-0.42269-1.2298-0.69835-1.7812-0.90625-0.61131-0.4595-1.393-0.93114-2.375-0.78125a0.69558 0.69558 0 0 0-0.09375 0z" opacity=".05"/>
   <path id="path3868" d="m-19.312 1c-0.85046 0.28946-1.4919 0.91735-2.3937 1.1709-1.1548 0.29846-1.2697 1.6688-2.1321 2.1149-1.0017 0.32896-1.229 1.5631-1.7998 2.0929-1.6279 0.56365-2.1649 2.5762-1.8307 4.1212-0.40078 0.65412-0.95685 1.3984-0.875 2.2812v8.7812c0.11158 0.67644 0.7726 1.1655 1.4581 1.0625 0.59378-0.03147 1.3241 0.14928 1.7294-0.375 0.57521-0.47004 0.31748-1.3017 0.375-1.9668v-7.1894c0.30881-0.40218 0.62468-0.72665 0.9375-1.125 0.33007-0.67181-0.03129-1.4357-0.1488-2.1294-0.30739-0.66422 0.33079-0.4586 0.86755-0.5894 0.61022-0.11657 1.0975-0.71743 1.0312-1.3644-0.15981-0.62859 0.41801-0.89366 0.96882-0.90553 0.68609-0.040617 1.2123-0.68089 1.1752-1.3643-0.06488-0.7476 1.164-0.84291 1.6412-0.46866 0.50823 0.14682 0.09151 0.89314 0.43354 1.2279 0.28593 0.44933 0.77619 0.60172 1.2812 0.65625 0.734-0.0278 0.76846 0.61813 0.71875 1.1562 0.11091 0.58554 0.60709 1.0539 1.207 1.0787 0.77737 0.093411 0.85951 0.037643 0.59389 0.8568-0.20226 0.75564-0.46247 1.8319 0.35538 2.3145 0.21624 0.18443 0.49622 0.51595 0.5 0.85374v8.3025c0.13017 0.63993 0.7543 1.1278 1.4269 1.0312 0.63616-0.02018 1.4162 0.14159 1.8231-0.4375 0.51409-0.53492 0.24451-1.3425 0.3125-2.0187-0.0091-2.5809 0.01849-5.1628-0.01421-7.7432 0.10889-1.0746-1.1832-1.6327-0.77008-2.6886 0.10716-1.4315-0.64501-3.1103-2.1532-3.4558-0.085122-1.136-1.0947-1.9209-2.0938-2.2812-0.21328-1.2542-1.5259-1.8474-2.5938-2.25-0.5788-0.45857-1.2547-0.86853-2.0312-0.75zm6.6562 11.031c0.23532-0.04366 0.89155 0.17603 0.47968 0.39541-0.79228 0.52898 0.32076 0.0012 0.33282 0.41177-0.23472 0.02633-0.62052-0.1236-0.91644-0.1613-0.44742 0.09222-0.53631-0.40165-0.20544-0.39272 0.39729 0.51674 0.49442 0.45989 0.34231-0.07204-0.01098-0.06038-0.02195-0.12075-0.03293-0.18113z" opacity=".1"/>
   <path id="path3862" transform="translate(-30 .34375)" d="m10.781 1.3438c-0.3283 0.040837-0.56809 0.23261-0.6875 0.375-0.07186 0.085686-0.09143 0.11275-0.125 0.15625-0.00346 0.00448-0.028174-0.00397-0.03125 0-0.040644 0.00464-0.11954 0.016919-0.21875 0.0625-0.090634 0.041631-0.35164 0.169-0.6875 0.3125-0.34658 0.14808-1.0922 0.44328-1.5625 1.1875-0.1707 0.27011-0.20922 0.53125-0.21875 0.75-0.72775 0.26271-1.3999 0.64234-1.7812 1.375-0.16793 0.32266-0.18185 0.58154-0.21875 0.84375-0.4251 0.10709-0.88407 0.25535-1.2812 0.65625-0.80403 0.81157-0.89281 1.8556-0.8125 2.5625 0.03341 0.29408 0.078162 0.43863 0.125 0.625-0.024505 0.02603-0.03929-1.59e-4 -0.0625 0.03125-0.14158 0.19158-0.10271 0.28609-0.125 0.4375-0.00147 0.01 0.00119 0.02187 0 0.03125-0.031094 0.04291-0.093738 0.09373-0.09375 0.09375-0.067425 0.07032-0.16303 0.10803-0.21875 0.1875-0.34076 0.48602-0.4375 1.0196-0.4375 1.4062v8.5625a0.58053 0.58053 0 0 0 0.5625 0.59375c0.0444 0.0014 0.084388 0 0.09375 0h0.9375a0.58053 0.58053 0 0 0 0.59375-0.59375v-8.5625c0-0.09391-0.00467-0.07725 0-0.09375l0.1875-0.09375a0.58053 0.58053 0 0 0 0.28125-0.4375l0.03125-0.125 0.25-0.125a0.58053 0.58053 0 0 0 0.3125-0.625l-0.03125-0.25-0.03125-0.09375c-5.381e-4 -0.02625 0.013329 0.01029 0-0.0625-0.076844-0.42004-0.20849-0.79091-0.25-1.1562-0.036579-0.32197 0.019408-0.64283 0.1875-0.8125 0.088486-0.089316 0.33175-0.20843 0.8125-0.28125l0.4375-0.0625a0.58053 0.58053 0 0 0 0.5-0.5625v-0.4375c0.007138-0.28152 0.0018473-0.41963 0.125-0.65625 0.057081-0.10967 0.44234-0.43447 1.125-0.5625l0.375-0.0625a0.58053 0.58053 0 0 0 0.5-0.5l0.03125-0.375h-0.03125c0.021936-0.19006 0.051842-0.34618 0.0625-0.46875 0.09957-0.13005 0.1971-0.24103 0.4375-0.34375 0.29184-0.12469 0.5723-0.20216 0.8125-0.3125 2.84e-4 -1.319e-4 0.06689-0.049642 0.125-0.09375 0.01639-0.012441 0.02073-0.023251 0.03125-0.03125-6e-5 5.5e-5 0.02303-0.019793 0.03125-0.03125l0.1875-0.125c0.0029 0.00394 0.02784-0.00452 0.03125 0 0.02388 0.031608 0.03964 0.071674 0.09375 0.125 8e-3 0.00832 0.02297 0.022986 0.03125 0.03125 0.03763 0.037565 0.0658 0.083463 0.15625 0.125 0.24041 0.11043 0.5209 0.18785 0.8125 0.3125 0.24063 0.10287 0.33806 0.21386 0.4375 0.34375 0.01066 0.12257 0.04058 0.27874 0.0625 0.46875h-0.03125l0.03125 0.375a0.58053 0.58053 0 0 0 0.5 0.5l0.375 0.0625c0.69133 0.12843 1.1091 0.47471 1.1562 0.5625 0.09989 0.18607 0.11248 0.40393 0.125 0.6875 5.52e-4 0.012495-4.63e-4 0.018456 0 0.03125v0.375a0.58053 0.58053 0 0 0 0.5 0.5625l0.4375 0.0625c0.48236 0.073141 0.7296 0.19666 0.8125 0.28125 0.15943 0.16266 0.19962 0.46128 0.15625 0.8125-0.04721 0.3824-0.17378 0.7574-0.25 1.1562l-0.0625 0.40625a0.58053 0.58053 0 0 0 0.34375 0.625l0.28125 0.125 0.03125 0.15625a0.58053 0.58053 0 0 0 0.1875 0.34375l0.1875 0.15625a0.58053 0.58053 0 0 0 0.03125 0.03125c-3e-3 0.01414 0-0.0253 0 0.0625v8.5625a0.58053 0.58053 0 0 0 0.59375 0.59375h0.9375c0.0094 0 0.04935 0.0014 0.09375 0a0.58053 0.58053 0 0 0 0.5625-0.59375v-8.5625c0-0.34718-0.0551-0.85369-0.375-1.3438-0.09042-0.13852-0.20823-0.22464-0.3125-0.3125-0.02165-0.16632 0.02528-0.33361-0.15625-0.5625-0.03327-0.04195-0.02841-0.0306-0.0625-0.0625 0.040914-0.16515 0.063334-0.28491 0.09375-0.53125 0.084427-0.68381 0.02777-1.7371-0.78125-2.5625-0.38875-0.39665-0.8327-0.54734-1.25-0.65625-0.042797-0.28712-0.065897-0.56331-0.25-0.90625-0.40199-0.74881-1.0878-1.1062-1.8125-1.3438-0.014366-0.21151-0.05949-0.46666-0.21875-0.71875-0.47035-0.74449-1.2164-1.0395-1.5625-1.1875-0.33608-0.14367-0.597-0.27093-0.6875-0.3125-0.06889-0.031652-0.042619-0.025964-0.0625-0.03125-0.35064-0.35926-0.82953-0.63372-1.4375-0.5625z" opacity=".3"/>
  </g>
  <path id="path2470" d="m7.9463 5.372c0 0.93328-1.9496 1.1053-1.9496 2.2358v5.4496h1.9496 1.9496v-5.4496c0-1.1305-1.9496-1.3025-1.9496-2.2358z" fill-rule="evenodd" opacity=".5"/>
  <path id="path14773" d="m2 0c-1.108 0-2 0.892-2 2v12c0 1.108 0.892 2 2 2h0.5625v-6.8438c0-0.54207 0.39016-0.16917 0.375-0.59375-0.01694-0.47431 0.34375-0.25 0.34375-0.25 0.6768-0.53108-1.3803-2.7812 1.4688-2.7812-0.09583-0.69474-0.1119-1.875 1.5938-1.875-0.26797-1.6301 1.426-1.1625 1.6562-1.9062 0.2306 0.74339 1.9242 0.27632 1.6562 1.9062 1.7057 2e-7 1.7208 1.1803 1.625 1.875 2.8491 0 0.7607 2.2502 1.4375 2.7812 0 0 0.39194-0.22431 0.375 0.25-0.01516 0.42458 0.34375 0.051678 0.34375 0.59375v6.8438h0.5625c1.108 0 2-0.892 2-2v-12c0-1.108-0.892-2-2-2h-12z" fill="url(#linearGradient3101)" fill-rule="evenodd"/>
  <path id="path4475" d="m7.8823 0.72506c-0.20391 0.026936-0.27832 0.25774-0.42375 0.4-0.0045 0.0044-0.01909-0.00448-0.02354 0-0.01996 3.648e-4 -0.03391-2e-3 -0.04708 0-0.02635 4e-3 -0.03309 0.020752-0.04708 0.025-0.05597 0.016992-0.0842 0.00865-0.11771 0.025-0.08198 0.039992-0.28716 0.13462-0.54146 0.25-0.25975 0.11785-0.69176 0.3155-0.96521 0.775-0.16545 0.27802-0.10291 0.46779-0.09417 0.65-0.60742 0.17076-1.1455 0.48026-1.4125 1.025-0.14277 0.2913-0.16031 0.56092-0.18833 0.825-0.36697 0.088185-0.73982 0.18293-1.0123 0.475-0.48372 0.5185-0.5451 1.2008-0.49438 1.675 0.03494 0.32659 0.09425 0.52482 0.14125 0.725-0.05918 0.03868-0.11488 0.05328-0.16479 0.125-0.10924 0.15698-0.0821 0.25803-0.09417 0.375-2.18e-4 0.00208-0.02333-0.00208-0.02354 0-0.07214 0.045816-0.14778 0.12791-0.21188 0.225-0.19005 0.28786-0.23542 0.60046-0.23542 0.85v6.85c0.01584 5.17e-4 0.03113 0 0.04708 0h0.70625v-6.85c0-0.1621 0.01818-0.28492 0.09417-0.4 0.0029-0.00176 0.04323-0.00592 0.11771-0.05l0.16479-0.1 0.02354-0.2c0.02386-0.20046 0.0087-0.17859 0.02354-0.2 0.0321-0.00954 0.06809-0.013648 0.14125-0.05l0.25896-0.125-0.04708-0.275c-3.44e-4 -0.019112 0.0022-0.0372 0-0.05-0.04879-0.2832-0.15042-0.59565-0.18834-0.95-0.03531-0.33007-0.0052-0.74188 0.25896-1.025 0.17396-0.18647 0.44863-0.28584 0.8475-0.35l0.32958-0.05v-0.35c0.0061-0.25683 0.03637-0.48798 0.16479-0.75 0.14999-0.30603 0.56446-0.55768 1.1535-0.675l0.2825-0.05 0.02354-0.3c0.03626-0.33366 0.0495-0.55406 0.04708-0.55 0.14248-0.23942 0.35475-0.36892 0.58854-0.475 0.23925-0.10855 0.45093-0.18287 0.58854-0.25 0.0054-0.00264-0.0038-0.021336 0-0.025l0.23542-0.2c0.0039-0.00836 0.01842-0.010928 0.02354-0.025 0.0018-0.00504-0.0022-0.02016 0-0.025 0.03081-0.069432 0.09092-0.11524 0.16479-0.125 0.09381-0.011672 0.17318 0.037896 0.21188 0.125 0.0024 0.00736-0.0021 0.019144 0 0.025 0.10874 0.02428 0.15237 0.14635 0.23542 0.225 0.0017 0.00624 0.01283 0.019776 0.02354 0.025 0.13775 0.067192 0.34939 0.14143 0.58854 0.25 0.23392 0.10619 0.44617 0.23568 0.58854 0.475-0.0024-0.00408 0.01084 0.21642 0.04708 0.55l0.02354 0.3 0.2825 0.05c0.59766 0.11791 1.0273 0.37874 1.1771 0.675 0.12464 0.24657 0.1556 0.50553 0.16479 0.775v0.325l0.32958 0.05c0.39994 0.0644 0.67577 0.16392 0.8475 0.35 0.2604 0.28215 0.27485 0.68585 0.23542 1.025-0.04185 0.35993-0.13919 0.67689-0.18834 0.95l-0.04708 0.325 0.2825 0.125c0.07423 0.03168 0.10903 0.016752 0.14125 0.025 0.0013 3.304e-4 -0.0012 0.024688 0 0.025 0.01926 0.031136 0.02985 0.051064 0.04708 0.225l0.02354 0.175 0.14125 0.125c0.06687 0.044672 0.11549 0.04848 0.11771 0.05 0.07048 0.11465 0.07063 0.19911 0.07063 0.375v6.85h0.70625c0.01595 0 0.03124 5.17e-4 0.04708 0v-6.85c0-0.22612-0.0355-0.53808-0.21188-0.825-0.05964-0.097011-0.14509-0.17945-0.21188-0.225-0.01606-0.13586 0.0088-0.25562-0.11771-0.425-0.05474-0.073296-0.12415-0.086293-0.18834-0.125 0.04624-0.20099 0.10507-0.38885 0.14125-0.7 0.05396-0.46406 0.01386-1.1498-0.47084-1.675-0.26744-0.28977-0.62977-0.38668-0.98876-0.475-0.02428-0.27522-0.0537-0.56208-0.21188-0.875-0.27723-0.54841-0.83082-0.81215-1.436-0.975 0.0088-0.18221 0.07122-0.372-0.09417-0.65-0.27342-0.45959-0.7056-0.65714-0.96521-0.775-0.25437-0.11548-0.45943-0.20999-0.54146-0.25-0.02062-0.010064-0.04889-0.016104-0.07062-0.025-0.20382-0.26609-0.4881-0.46678-0.82396-0.425z" fill="#767fb7" fill-rule="evenodd"/>
  <rect id="rect3196" transform="rotate(-90)" x="-16" y="30" width="16" height="16" rx="2" ry="2" fill="url(#linearGradient3204)"/>
  <path id="rect2835" d="m0 14c0 1.108 0.892 2 2 2h12c1.108 0 2-0.892 2-2v-12c0-1.108-0.892-2-2-2h-12c-1.108 0-2 0.892-2 2v12zm0.96875 0v-12c0-0.5832 0.44805-1.0312 1.0312-1.0312h12c0.5832 0 1.0312 0.44805 1.0312 1.0312v12c0 0.5832-0.44805 1.0312-1.0312 1.0312h-12c-0.5832 0-1.0312-0.44805-1.0312-1.0312z" fill="url(#linearGradient3629)" opacity=".4"/>
  <path id="path2843" d="m2 0.96875c-0.5832 0-1.0312 0.44805-1.0312 1.0312v1c0-0.5832 0.44805-1.0312 1.0312-1.0312h12c0.5832 0 1.0312 0.44805 1.0312 1.0312v-1c0-0.5832-0.44805-1.0312-1.0312-1.0312h-12z" fill="#fff" opacity=".25"/>
  <rect id="rect3875" x="6" y="13" width="4" height="1" color="#000000" fill="#fff" opacity=".2"/>
 </g>
</svg>
