<?xml version="1.0" encoding="UTF-8"?>
<svg id="svg2" width="16" height="16" version="1.1" xmlns="http://www.w3.org/2000/svg" xmlns:cc="http://creativecommons.org/ns#" xmlns:dc="http://purl.org/dc/elements/1.1/" xmlns:rdf="http://www.w3.org/1999/02/22-rdf-syntax-ns#">
 <metadata id="metadata31">
  <rdf:RDF>
   <cc:Work rdf:about="">
    <dc:format>image/svg+xml</dc:format>
    <dc:type rdf:resource="http://purl.org/dc/dcmitype/StillImage"/>
   </cc:Work>
  </rdf:RDF>
 </metadata>
 <defs id="defs4">
  <linearGradient id="linearGradient3204" x1="1" x2="15" y1="9" y2="9" gradientTransform="translate(-17,-2)" gradientUnits="userSpaceOnUse">
   <stop id="stop3189" stop-color="#c00" offset="0"/>
   <stop id="stop3191" stop-color="#ef2929" offset="1"/>
  </linearGradient>
  <linearGradient id="linearGradient3629" x2="29.017" y1="8" y2="8" gradientTransform="matrix(0,-1,1,0,0,16)" gradientUnits="userSpaceOnUse">
   <stop id="stop3330" offset="0"/>
   <stop id="stop3333" stop-opacity="0" offset="1"/>
  </linearGradient>
 </defs>
 <g id="layer1">
  <rect id="rect3196" transform="rotate(-90)" x="-16" width="16" height="16" rx="2" ry="2" fill="url(#linearGradient3204)"/>
  <path id="rect2835" d="m0 14c0 1.108 0.892 2 2 2h12c1.108 0 2-0.892 2-2v-12c0-1.108-0.892-2-2-2h-12c-1.108 0-2 0.892-2 2v12zm0.96875 0v-12c0-0.5832 0.44805-1.0312 1.0312-1.0312h12c0.5832 0 1.0312 0.44805 1.0312 1.0312v12c0 0.5832-0.44805 1.0312-1.0312 1.0312h-12c-0.5832 0-1.0312-0.44805-1.0312-1.0312z" fill="url(#linearGradient3629)" opacity=".4"/>
  <path id="path2843" d="m2 0.96875c-0.5832 0-1.0312 0.44805-1.0312 1.0312v1c0-0.5832 0.44805-1.0312 1.0312-1.0312h12c0.5832 0 1.0312 0.44805 1.0312 1.0312v-1c0-0.5832-0.44805-1.0312-1.0312-1.0312h-12z" fill="#fff" opacity=".35"/>
 </g>
 <defs id="defs21">
  <linearGradient id="a" x1="8" x2="8" y1="1" y2="15" gradientUnits="userSpaceOnUse">
   <stop id="stop16" stop-color="#fff" offset="0"/>
   <stop id="stop18" stop-color="#fff" offset="1"/>
  </linearGradient>
 </defs>
 <g id="main" transform="translate(1 1) scale(.85714)">
  <path id="path23" d="m8 2c-0.23051 0-0.48028 0.079979-0.65625 0.25586l-1.2656 1.2656 1.3613 1.3613a1.25 1.25 0 0 1 0.56055-0.13281 1.25 1.25 0 0 1 1.25 1.25 1.25 1.25 0 0 1-0.13281 0.56055l1.291 1.291a1.25 1.25 0 0 1 0.49219-0.10156 1.25 1.25 0 0 1 1.25 1.25 1.25 1.25 0 0 1-1.25 1.25 1.25 1.25 0 0 1-1.25-1.25 1.25 1.25 0 0 1 0.072266-0.41992l-1.2129-1.2129v3.4922a1.25 1.25 0 0 1 0.74023 1.1406 1.25 1.25 0 0 1-1.25 1.25 1.25 1.25 0 0 1-1.25-1.25 1.25 1.25 0 0 1 0.75-1.1445v-3.7109a1.25 1.25 0 0 1-0.75-1.1445 1.25 1.25 0 0 1 0.050781-0.3418l-1.4277-1.4277-4.1094 4.1094c-0.35165 0.35224-0.35165 0.92347 0 1.2754l6.1172 6.1211c0.35154 0.35188 0.92332 0.35188 1.2754 0l6.0801-6.084c0.35176-0.35198 0.35176-0.9235 0-1.2754l-6.1172-6.1211c-0.17574-0.17597-0.38863-0.25586-0.61914-0.25586z" opacity=".3"/>
  <path id="base" d="m8 1c-0.23051 0-0.48028 0.079979-0.65625 0.25586l-1.2656 1.2656 1.3613 1.3613a1.25 1.25 0 0 1 0.56055-0.13281 1.25 1.25 0 0 1 1.25 1.25 1.25 1.25 0 0 1-0.13281 0.56055l1.291 1.291a1.25 1.25 0 0 1 0.49219-0.10156 1.25 1.25 0 0 1 1.25 1.25 1.25 1.25 0 0 1-1.25 1.25 1.25 1.25 0 0 1-1.25-1.25 1.25 1.25 0 0 1 0.072266-0.41992l-1.2129-1.2129v3.4922a1.25 1.25 0 0 1 0.74023 1.1406 1.25 1.25 0 0 1-1.25 1.25 1.25 1.25 0 0 1-1.25-1.25 1.25 1.25 0 0 1 0.75-1.1445v-3.7109a1.25 1.25 0 0 1-0.75-1.1445 1.25 1.25 0 0 1 0.050781-0.3418l-1.4277-1.4277-4.1094 4.1094c-0.35165 0.35224-0.35165 0.92347 0 1.2754l6.1172 6.1211c0.35154 0.35188 0.92332 0.35188 1.2754 0l6.0801-6.084c0.35176-0.35198 0.35176-0.9235 0-1.2754l-6.1172-6.1211c-0.17574-0.17597-0.38863-0.25586-0.61914-0.25586z" fill="url(#a)"/>
 </g>
</svg>
