<?xml version="1.0" encoding="UTF-8"?>
<!-- Created with Inkscape (http://www.inkscape.org/) -->
<svg id="svg2" width="16" height="16" version="1.1" xmlns="http://www.w3.org/2000/svg" xmlns:cc="http://creativecommons.org/ns#" xmlns:dc="http://purl.org/dc/elements/1.1/" xmlns:rdf="http://www.w3.org/1999/02/22-rdf-syntax-ns#" xmlns:xlink="http://www.w3.org/1999/xlink">
 <defs id="defs4">
  <linearGradient id="linearGradient3192" x1="9.0575" x2="9.0575" y1="10.203" y2="-12.199" gradientTransform="translate(0 5.8007)" gradientUnits="userSpaceOnUse">
   <stop id="stop3330" offset="0"/>
   <stop id="stop3333" stop-opacity="0" offset="1"/>
  </linearGradient>
  <linearGradient id="linearGradient3204" x1="1" x2="15" y1="9" y2="9" gradientTransform="translate(-16,-1)" gradientUnits="userSpaceOnUse">
   <stop id="stop3189" stop-color="#b4b4b4" offset="0"/>
   <stop id="stop3191" stop-color="#e6e6e6" offset="1"/>
  </linearGradient>
  <radialGradient id="radialGradient3678" cx="47.098" cy="78.287" r="38.957" gradientTransform="matrix(.213 0 0 .20213 -2.0321 -3.0013)" gradientUnits="userSpaceOnUse">
   <stop id="stop3226-2" stop-color="#840000" offset="0"/>
   <stop id="stop3228-0" stop-color="#190000" offset="1"/>
  </radialGradient>
 </defs>
 <metadata id="metadata7">
  <rdf:RDF>
   <cc:Work rdf:about="">
    <dc:format>image/svg+xml</dc:format>
    <dc:type rdf:resource="http://purl.org/dc/dcmitype/StillImage"/>
    <dc:title/>
   </cc:Work>
  </rdf:RDF>
 </metadata>
 <g id="layer1">
  <rect id="rect2410" x=".49972" y=".5" width="15" height="15.5" rx="2" ry="2" fill="url(#linearGradient3192)" opacity=".5"/>
  <rect id="rect3194" x="1" y="2" width="14" height="14" rx="2" ry="2" opacity=".3"/>
  <rect id="rect3196" transform="rotate(-90)" x="-15" y="1" width="14" height="14" rx="2" ry="2" fill="url(#linearGradient3204)"/>
  <rect id="rect3461" x="2" y="2" width="12" height="12" rx="1.5" ry="1.5" fill="url(#radialGradient3678)"/>
  <path id="rect2411" d="m3 1c-1.108 0-2 0.892-2 2v1c0-1.108 0.892-2 2-2h10c1.108 0 2 0.892 2 2v-1c0-1.108-0.892-2-2-2h-10z" fill="#fff" opacity=".7"/>
  <path id="rect3256" d="m3 2c-0.49938 0-0.90002 0.42623-0.90002 0.95296v7.5563c2.8992-2.1345 7.0556-3.6646 11.999-3.3546v-4.2017c0-0.52673-0.40545-0.95296-0.90483-0.95296h-10.194z" fill="#d9c6ed" opacity=".14"/>
  <path id="path3186" d="m3 15c-1.108 0-2-0.892-2-2v-1c0 1.108 0.892 2 2 2h10c1.108 0 2-0.892 2-2v1c0 1.108-0.892 2-2 2h-10z" opacity=".15"/>
  <path id="path5199" d="m8.0336 10.01v0.97375h3.9787v-0.97375h-3.9787z" fill="#fff" opacity=".85"/>
  <rect id="rect3935" x="2.5" y="2.5" width="11" height="11" rx="1.3" ry="1.3" fill="none" opacity=".5" stroke="#000" stroke-linejoin="round"/>
  <path id="path3837" d="m5 4.0938v1.0312c-0.39278 0.061933-0.71511 0.17463-0.96875 0.40625-0.28547 0.26467-0.4375 0.61155-0.4375 1 0 0.47383 0.22079 0.83763 0.65625 1.0938 0.15967 0.098183 0.5704 0.22833 1.2188 0.4375 0.43545 0.14087 0.65625 0.31218 0.65625 0.5-3e-6 0.12806-0.08328 0.23993-0.21875 0.3125-0.11612 0.0683-0.25142 0.09375-0.40625 0.09375-0.17902 1e-6 -0.31654-0.03536-0.4375-0.125-0.12096-0.08964-0.18266-0.22132-0.1875-0.375h-1.3125c0.01451 0.42261 0.1353 0.77086 0.40625 1.0312 0.24359 0.23026 0.59215 0.3416 1 0.40625v1.0312h1.0312v-1.0312c0.41564-0.07604 0.77655-0.2049 1.0312-0.4375 0.2903-0.26893 0.4375-0.62572 0.4375-1.0312-4e-6 -0.45675-0.21596-0.80211-0.65625-1.0625-0.17902-0.11098-0.6065-0.25958-1.25-0.46875-0.4403-0.1494-0.65625-0.30654-0.65625-0.46875-2e-6 -0.12806 0.06654-0.23566 0.1875-0.3125 0.10644-0.072565 0.22985-0.125 0.375-0.125 0.18386 3.7e-6 0.33105 0.049535 0.4375 0.15625 0.10644 0.10245 0.15625 0.24404 0.15625 0.40625h1.2812c-0.0096-0.82682-0.48472-1.3131-1.4062-1.4688v-1h-0.9375z" fill="#fff" opacity=".95"/>
 </g>
</svg>
