<?xml version="1.0" encoding="UTF-8"?>
<!-- Created with Inkscape (http://www.inkscape.org/) -->
<svg id="svg2" width="16" height="16" version="1.1" xmlns="http://www.w3.org/2000/svg" xmlns:cc="http://creativecommons.org/ns#" xmlns:dc="http://purl.org/dc/elements/1.1/" xmlns:rdf="http://www.w3.org/1999/02/22-rdf-syntax-ns#" xmlns:xlink="http://www.w3.org/1999/xlink">
 <defs id="defs4">
  <linearGradient id="linearGradient3629" x2="29.017" y1="8" y2="8" gradientTransform="matrix(0,-1,1,0,0,16)" gradientUnits="userSpaceOnUse">
   <stop id="stop3330" offset="0"/>
   <stop id="stop3333" stop-opacity="0" offset="1"/>
  </linearGradient>
  <linearGradient id="linearGradient3641" x1="11" x2="11" y1="14" y2="1" gradientTransform="matrix(.88675 0 0 .88675 -1.7543 -3.094)" gradientUnits="userSpaceOnUse">
   <stop id="stop3637" stop-color="#e6e6e6" offset="0"/>
   <stop id="stop3639" stop-color="#f0f0f0" offset="1"/>
  </linearGradient>
  <linearGradient id="linearGradient3863" x1="11" x2="11" y1="15" y2="5" gradientTransform="matrix(.8 0 0 -.8 -.8 16.792)" gradientUnits="userSpaceOnUse" xlink:href="#linearGradient2908"/>
  <linearGradient id="linearGradient2908">
   <stop id="stop2910" stop-color="#1e1e1e" offset="0"/>
   <stop id="stop2912" stop-color="#1e1e1e" stop-opacity="0" offset="1"/>
  </linearGradient>
  <linearGradient id="linearGradient3072" x1="11" x2="11" y1="15" y2="4.3779" gradientTransform="matrix(.8 0 0 .8 -.8 -1.6081)" gradientUnits="userSpaceOnUse" xlink:href="#linearGradient2908"/>
  <linearGradient id="linearGradient3703" x1="11" x2="11" y1="21" y2="10" gradientTransform="matrix(.88889 0 0 .88889 -1.7778 -1.9796)" gradientUnits="userSpaceOnUse">
   <stop id="stop3645" stop-color="#d2d2d2" offset="0"/>
   <stop id="stop3647" stop-color="#e1e1e1" offset="1"/>
  </linearGradient>
  <linearGradient id="linearGradient3705" x1="1" x2="15" y1="9" y2="9" gradientTransform="translate(-17,-2)" gradientUnits="userSpaceOnUse">
   <stop id="stop3189-8" stop-color="#dcdcdc" offset="0"/>
   <stop id="stop3191-3" stop-color="#f0f0f0" offset="1"/>
  </linearGradient>
  <linearGradient id="linearGradient3091" x1="11" x2="11" y1="21" y2=".90025" gradientTransform="matrix(.8 0 0 .8 -.8 -.8)" gradientUnits="userSpaceOnUse">
   <stop id="stop3687" stop-color="#ca0a0a" offset="0"/>
   <stop id="stop3689" stop-color="#f03131" offset="1"/>
  </linearGradient>
 </defs>
 <metadata id="metadata7">
  <rdf:RDF>
   <cc:Work rdf:about="">
    <dc:format>image/svg+xml</dc:format>
    <dc:type rdf:resource="http://purl.org/dc/dcmitype/StillImage"/>
    <dc:title/>
   </cc:Work>
  </rdf:RDF>
 </metadata>
 <g id="layer1">
  <rect id="rect3196" transform="rotate(-90)" x="-16" width="16" height="16" rx="2" ry="2" fill="url(#linearGradient3705)"/>
  <path id="path3633" d="m8 4.25-8 8v1.75c0 1.108 0.892 2 2 2h12c1.108 0 2-0.892 2-2v-1.75l-8-8z" fill="url(#linearGradient3703)"/>
  <path id="path3627" d="m2 0c-0.9695 0-1.7829 0.68074-1.9688 1.5938v1.3649l7.9688 8 7.9688-8v-1.3649c-0.18588-0.91301-0.99925-1.5938-1.9688-1.5938h-12z" fill="url(#linearGradient3641)"/>
  <path id="path3651" d="m0 1.8419v1.1l7.725 7.725 0.275 0.3 0.275-0.3 7.725-7.725v-1.1l-8 8-8-8z" color="#000000" fill="url(#linearGradient3072)" opacity=".5" style="block-progression:tb;text-indent:0;text-transform:none"/>
  <path id="path3815" d="m4.65 7.5919-4.65 4.65v1.1l5.2-5.2-0.55-0.55zm6.7 0-0.55 0.55 5.2 5.2v-1.1l-4.65-4.65z" color="#000000" fill="url(#linearGradient3863)" opacity=".5" style="block-progression:tb;text-indent:0;text-transform:none"/>
  <path id="rect3050" d="m2 0c-1.108 0-2 0.892-2 2v12c0 1.108 0.892 2 2 2h1v-12l5 4.8125 5-4.8125v12h1c1.108 0 2-0.892 2-2v-12c0-1.108-0.892-2-2-2h-0.40625l-5.5938 5.5938-5.5938-5.5938h-0.40625z" color="#000000" fill="url(#linearGradient3091)"/>
  <path id="rect2835" d="m0 14c0 1.108 0.892 2 2 2h12c1.108 0 2-0.892 2-2v-12c0-1.108-0.892-2-2-2h-12c-1.108 0-2 0.892-2 2v12zm0.96875 0v-12c0-0.5832 0.44805-1.0312 1.0312-1.0312h12c0.5832 0 1.0312 0.44805 1.0312 1.0312v12c0 0.5832-0.44805 1.0312-1.0312 1.0312h-12c-0.5832 0-1.0312-0.44805-1.0312-1.0312z" fill="url(#linearGradient3629)" opacity=".4"/>
  <path id="path2843" d="m2 0.96875c-0.5832 0-1.0312 0.44805-1.0312 1.0312v1c0-0.5832 0.44805-1.0312 1.0312-1.0312h12c0.5832 0 1.0312 0.44805 1.0312 1.0312v-1c0-0.5832-0.44805-1.0312-1.0312-1.0312h-12z" fill="#fff" opacity=".3"/>
 </g>
</svg>
