<?xml version="1.0" encoding="UTF-8"?>
<!-- Created with Inkscape (http://www.inkscape.org/) -->
<svg id="svg2" width="16" height="16" version="1.1" xmlns="http://www.w3.org/2000/svg" xmlns:cc="http://creativecommons.org/ns#" xmlns:dc="http://purl.org/dc/elements/1.1/" xmlns:rdf="http://www.w3.org/1999/02/22-rdf-syntax-ns#" xmlns:xlink="http://www.w3.org/1999/xlink">
 <defs id="defs4">
  <linearGradient id="ButtonColor-5" x1="10.32" x2="10.32" y1="21" y2=".9993" gradientUnits="userSpaceOnUse">
   <stop id="stop3189-0" stop-color="#e6e6e6" offset="0"/>
   <stop id="stop3191-2" stop-color="#f5f5f5" offset="1"/>
  </linearGradient>
  <linearGradient id="linearGradient2897" x1="9.0575" x2="9.0575" y1="10.203" y2="-19.304" gradientTransform="translate(-.49972 5.3007)" gradientUnits="userSpaceOnUse" xlink:href="#linearGradient3327-7"/>
  <linearGradient id="linearGradient3327-7">
   <stop id="stop3330-6" offset="0"/>
   <stop id="stop3333-8" stop-opacity="0" offset="1"/>
  </linearGradient>
  <linearGradient id="linearGradient3767" x1="1" x2="16.956" y1="9" y2="9" gradientTransform="translate(-17,-2)" gradientUnits="userSpaceOnUse" xlink:href="#ButtonColor-5"/>
  <linearGradient id="linearGradient3051" x1="1" x2="16.956" y1="9" y2="9" gradientTransform="matrix(.8125 0 0 .8125 -15.283 -2.0182)" gradientUnits="userSpaceOnUse" xlink:href="#ButtonColor-5"/>
  <linearGradient id="linearGradient3053" x1="9.0575" x2="9.0575" y1="10.203" y2="-19.304" gradientTransform="matrix(.80555 -.10605 .10605 .80555 -.038296 5.832)" gradientUnits="userSpaceOnUse" xlink:href="#linearGradient3327-7"/>
  <linearGradient id="linearGradient4126" x1="22" x2="22" y1="22" y2="2" gradientTransform="matrix(.48706 0 0 .48706 -5.2801 -.94368)" gradientUnits="userSpaceOnUse">
   <stop id="stop6741-4" stop-color="#ebebeb" offset="0"/>
   <stop id="stop6743-5" stop-color="#fafafa" offset="1"/>
  </linearGradient>
  <linearGradient id="linearGradient3922" x1="-28.946" x2="-16.919" y1="13.899" y2="29.362" gradientTransform="matrix(.36668 -.11659 .11659 .36668 11.013 -3.8246)" gradientUnits="userSpaceOnUse">
   <stop id="stop6701-7-4" stop-color="#f7a164" offset="0"/>
   <stop id="stop6295-0" stop-color="#e11c26" offset="1"/>
  </linearGradient>
  <linearGradient id="linearGradient3924" x1="-16.387" x2="-9.7353" y1="24.454" y2="28.196" gradientTransform="matrix(.36668 -.11659 .11659 .36668 11.013 -3.8246)" gradientUnits="userSpaceOnUse">
   <stop id="stop6713-9-9" stop-color="#8badea" offset="0"/>
   <stop id="stop6715-2-6" stop-color="#3b7caf" offset="1"/>
  </linearGradient>
  <linearGradient id="linearGradient3926" x1="-17.863" x2="-20.822" y1="30.828" y2="25.015" gradientTransform="matrix(.36668 -.11659 .11659 .36668 11.013 -3.8246)" gradientUnits="userSpaceOnUse">
   <stop id="stop6721-4-9" stop-color="#8cab2a" offset="0"/>
   <stop id="stop6723-4-1" stop-color="#d7e866" offset="1"/>
  </linearGradient>
 </defs>
 <metadata id="metadata7">
  <rdf:RDF>
   <cc:Work rdf:about="">
    <dc:format>image/svg+xml</dc:format>
    <dc:type rdf:resource="http://purl.org/dc/dcmitype/StillImage"/>
    <dc:title/>
   </cc:Work>
  </rdf:RDF>
 </metadata>
 <g id="layer1">
  <rect id="rect3196" transform="rotate(-90)" x="-16" width="16" height="16" rx="2" ry="2" fill="url(#linearGradient3767)"/>
  <path id="rect3770" d="m2.5 1c-0.831 0-1.5 0.669-1.5 1.5v1c0-0.831 0.669-1.5 1.5-1.5h11c0.831 0 1.5 0.669 1.5 1.5v-1c0-0.831-0.669-1.5-1.5-1.5h-11z" fill="#fff" opacity=".6"/>
  <rect id="rect3045" transform="matrix(-.13053 -.99144 .99144 -.13053 0 0)" x="-14.47" y="-.39318" width="13" height="13" rx="1.625" ry="1.625" fill="url(#linearGradient3051)"/>
  <path id="path3047" d="m1.4132 1.297c-0.89255 0.11751-1.5165 0.93065-1.399 1.8232l1.2726 9.6666c0.11751 0.89255 0.93065 1.5165 1.8232 1.399l9.6666-1.2726c0.89255-0.11751 1.5165-0.93065 1.399-1.8232l-1.2726-9.6666c-0.11751-0.89255-0.93065-1.5165-1.8232-1.399l-9.6666 1.2726zm0.50883 0.75252 8.861-1.1666c0.66941-0.08813 1.2793 0.37983 1.3674 1.0492l1.1666 8.861c0.08813 0.66941-0.37983 1.2793-1.0492 1.3674l-8.861 1.1666c-0.66941 0.088129-1.2793-0.37983-1.3674-1.0492l-1.1666-8.861c-0.08813-0.66941 0.37983-1.2793 1.0492-1.3674z" fill="url(#linearGradient3053)" opacity=".3"/>
  <path id="path3049" d="m1.922 2.0495c-0.66941 0.08813-1.1374 0.69799-1.0492 1.3674l0.10605 0.80555c-0.08813-0.66941 0.37983-1.2793 1.0492-1.3674l8.861-1.1666c0.66941-0.08813 1.2793 0.37983 1.3674 1.0492l-0.10605-0.80555c-0.08813-0.66941-0.69799-1.1374-1.3674-1.0492l-8.861 1.1666z" fill="#fff" opacity=".6"/>
  <path id="rect2410" d="m2 0c-1.108 0-2 0.892-2 2v12c0 1.108 0.892 2 2 2h12c1.108 0 2-0.892 2-2v-12c0-1.108-0.892-2-2-2h-12zm0.5 1h11c0.831 0 1.5 0.669 1.5 1.5v11c0 0.831-0.669 1.5-1.5 1.5h-11c-0.831 0-1.5-0.669-1.5-1.5v-11c0-0.831 0.669-1.5 1.5-1.5z" fill="url(#linearGradient2897)" opacity=".4"/>
  <g id="g3913">
   <path id="path3933" d="m11.288 5.9609c-0.90032-1.081-2.9051-1.4504-4.9435-0.80225-2.0385 0.64814-3.4618 2.1074-3.5724 3.5099l-0.1521 0.048355 0.24133 0.75901c0.51183 1.6098 2.9014 2.2868 5.3368 1.5124 2.4357-0.77442 3.995-2.707 3.4831-4.3167l-0.24133-0.75901-0.15186 0.048287z" fill="#b82525"/>
   <path id="path3935" d="m11.44 5.9126c0.51191 1.61-1.0474 3.5426-3.4831 4.317-2.4357 0.77443-4.825 0.097365-5.3369-1.5127-0.51191-1.61 1.0479-3.5427 3.4833-4.3171 2.4357-0.77442 4.8247-0.09729 5.3366 1.5127z" fill="url(#linearGradient3922)"/>
   <path id="path3937" d="m11.718 6.7851-0.25822-0.79258c0.04654 1.8024-0.80642 2.8434-2.0495 3.6155l0.23252 0.73131c1.3463-0.83326 2.3894-2.0875 2.0752-3.5543z" fill="#39619a"/>
   <path id="path3939" d="m11.44 5.9126c0.49119 1.8946-1.5423 3.4764-2.0467 3.6724l-2.3634-2.2702 4.4098-1.4021 2.37e-4 -7.54e-5z" fill="url(#linearGradient3924)"/>
   <path id="path3941" d="m7.2549 11.218-0.24125-0.75876c0.8643-0.1558 1.6318-0.37886 2.3888-0.84586l0.23998 0.72622c-0.61727 0.44516-1.692 0.79858-2.3875 0.87866l-7.66e-5 -2.4e-4z" fill="#70851f"/>
   <path id="path3943" d="m7.0302 7.315 2.3633 2.2699c-0.80217 0.6382-2.3798 0.8743-2.3798 0.8743l0.01651-3.1443z" fill="url(#linearGradient3926)"/>
   <path id="path3940" d="m11.329 5.6317c0.10888 0.53733 0.0046 1.0863-0.284 1.6294-0.01572 0.030567-0.04342 0.054089-0.05998 0.084099-0.09992 0.17565-0.21814 0.35645-0.35356 0.52429-0.51003 0.65676-1.1431 1.1043-1.3953 1.2023-0.37603 0.29917-0.92608 0.50085-1.4005 0.6404-0.013414 0.00432-0.025909 0.00822-0.039381 0.012519-0.018807 0.00546-0.040514 0.013578-0.059061 0.018783-0.22982 0.070862-0.4547 0.12798-0.68189 0.17346-0.068851 0.013814-0.14096 0.011745-0.20939 0.023238-1.948 0.32756-3.7-0.23204-4.2787-1.4577 0.015386 0.082016 0.029803 0.16192 0.055428 0.24251 0.4447 1.3986 2.3082 2.0764 4.386 1.727 0.068427-0.01149 0.14054-0.0094 0.20939-0.02324 0.22719-0.04547 0.45206-0.10262 0.68189-0.17346 0.01853-0.0052 0.040246-0.01336 0.059052-0.01878 0.013464-0.0042 0.025959-0.0082 0.039381-0.01252 0.47445-0.13955 1.0245-0.34122 1.4005-0.64039 0.25219-0.09802 0.88524-0.54559 1.3953-1.2023 0.13542-0.16784 0.25364-0.34864 0.35356-0.52429 0.01655-0.030009 0.04425-0.053531 0.05998-0.084099 0.32755-0.61638 0.42679-1.2485 0.23483-1.8522-0.032-0.10063-0.06742-0.19583-0.11358-0.28905z" fill="#fff" opacity=".3"/>
  </g>
  <path id="path3848" d="m3.5 0.03125c-0.5245 6.0568e-4 -0.96817 0.43334-0.96875 0.96875v0.5a0.45824 0.45824 0 0 0 0.46875 0.46875h2.5312l-0.03125 3.6562v-2.5625c0.0044415-0.306-0.12796-0.65695-0.4375-0.84375-0.34484-0.2081-0.73444-0.12935-1 0.03125-0.24487 0.14812-0.47333 0.45522-0.46875 0.8125v2.9375c-0.00533 0.22839 0.080246 0.47469 0.25 0.65625l0.96875 1c0.16822 0.18009 0.4168 0.3128 0.6875 0.3125 0.25889-2.728e-4 0.48896-0.14344 0.65625-0.3125h0.03125l0.9375-0.96875a0.45824 0.45824 0 0 0 0.03125 0c0.20395-0.21823 0.25489-0.45906 0.25-0.6875v-5c4.677e-4 -0.5365-0.443-0.96926-0.96875-0.96875h-2.9375z" opacity=".4"/>
  <path id="path3842" d="m3.4871 0.5c-0.26498 3.06e-4 -0.48676 0.22798-0.48706 0.50228v0.50228h2.9941l-0.01522 4.2907-0.45662 0.48706-0.48706-0.50228v-2.7184c0.0026-0.17913-0.07894-0.33604-0.22831-0.42618-0.14937-0.09014-0.33751-0.07522-0.48706 0.01522-0.14955 0.09046-0.24583 0.24703-0.24353 0.42618v2.9163c-0.0031 0.1329 0.03255 0.26988 0.12176 0.3653l0.9589 0.98935c0.09028 0.09665 0.22006 0.15235 0.35008 0.15221 0.13001-1.37e-4 0.25957-0.05539 0.35008-0.15221l0.94368-0.97412c0.08938-0.09564 0.13983-0.23241 0.13699-0.3653v-5.0061c2.391e-4 -0.27428-0.22208-0.50254-0.48706-0.50228z" opacity=".3"/>
  <path id="Symbol" d="m3.4871 1.2e-6c-0.26498 3.06e-4 -0.48676 0.22798-0.48706 0.50228v0.50228h2.9941l-0.01522 4.2907-0.45662 0.48706-0.48706-0.50228v-2.7184c0.0026-0.17913-0.07894-0.33604-0.22831-0.42618-0.14937-0.09014-0.33751-0.07522-0.48706 0.01522-0.14955 0.09046-0.24583 0.24703-0.24353 0.42618v2.9163c-0.0031 0.1329 0.03255 0.26988 0.12176 0.3653l0.9589 0.98935c0.09028 0.09665 0.22006 0.15235 0.35008 0.15221 0.13001-1.37e-4 0.25957-0.05539 0.35008-0.15221l0.94368-0.97412c0.08938-0.09564 0.13983-0.23241 0.13699-0.3653v-5.0061c2.391e-4 -0.27428-0.22208-0.50254-0.48706-0.50228z" fill="url(#linearGradient4126)"/>
 </g>
</svg>
