<?xml version="1.0" encoding="UTF-8"?>
<!-- Created with Inkscape (http://www.inkscape.org/) -->
<svg id="svg2" width="16" height="16" version="1.1" xmlns="http://www.w3.org/2000/svg" xmlns:cc="http://creativecommons.org/ns#" xmlns:dc="http://purl.org/dc/elements/1.1/" xmlns:rdf="http://www.w3.org/1999/02/22-rdf-syntax-ns#" xmlns:xlink="http://www.w3.org/1999/xlink">
 <defs id="defs4">
  <linearGradient id="linearGradient3204" x1="1" x2="15" y1="9" y2="9" gradientTransform="translate(-17,-2)" gradientUnits="userSpaceOnUse">
   <stop id="stop3890" stop-color="#6449b8" offset="0"/>
   <stop id="stop3892" stop-color="#b9afca" offset="1"/>
  </linearGradient>
  <linearGradient id="linearGradient3629" x2="29.017" y1="8" y2="8" gradientTransform="matrix(0,-1,1,0,0,16)" gradientUnits="userSpaceOnUse">
   <stop id="stop3330" offset="0"/>
   <stop id="stop3333" stop-opacity="0" offset="1"/>
  </linearGradient>
  <radialGradient id="radialGradient3093" cx="46.972" cy="-33.923" r="60.306" gradientTransform="matrix(.10843 0 0 .10306 1.3077 9.9477)" gradientUnits="userSpaceOnUse">
   <stop id="stop4473-6" stop-color="#fff" offset="0"/>
   <stop id="stop4544-9" stop-color="#f6f6f6" offset=".5"/>
   <stop id="stop4475-9" stop-color="#8aa6c6" offset="1"/>
  </radialGradient>
  <radialGradient id="radialGradient3146" cx="22.109" cy="19.781" r="19.19" gradientTransform="matrix(.28506 0 0 .26607 .87568 1.6393)" gradientUnits="userSpaceOnUse">
   <stop id="stop2314" stop-color="#e3ebf3" offset="0"/>
   <stop id="stop2316" stop-color="#cedceb" stop-opacity=".13178" offset="1"/>
  </radialGradient>
  <radialGradient id="radialGradient3926" cx="65.261" cy="-19.96" r="60.306" gradientTransform="matrix(1.1373 0 0 1.1082 -5.9284 3.6297)" gradientUnits="userSpaceOnUse">
   <stop id="stop4465-1" stop-opacity="0" offset="0"/>
   <stop id="stop4467-3" stop-opacity="0" offset=".91"/>
   <stop id="stop4469-1" offset="1"/>
  </radialGradient>
  <radialGradient id="radialGradient3916" cx="46.972" cy="-33.923" r="60.306" gradientTransform="matrix(1.1642 0 0 1.1066 -7.7152 3.6173)" gradientUnits="userSpaceOnUse">
   <stop id="stop4226-7" stop-color="#95d2f8" offset="0"/>
   <stop id="stop4240-8" stop-color="#357bb5" offset=".41"/>
   <stop id="stop4228-0" stop-color="#13324e" offset="1"/>
  </radialGradient>
 </defs>
 <metadata id="metadata7">
  <rdf:RDF>
   <cc:Work rdf:about="">
    <dc:format>image/svg+xml</dc:format>
    <dc:type rdf:resource="http://purl.org/dc/dcmitype/StillImage"/>
    <dc:title/>
   </cc:Work>
  </rdf:RDF>
 </metadata>
 <g id="layer1">
  <rect id="rect3196" transform="rotate(-90)" x="-16" width="16" height="16" rx="2" ry="2" fill="url(#linearGradient3204)"/>
  <path id="path3919" transform="matrix(.93605 0 0 .93605 .51156 .54353)" d="m8 1.4688c-3.87 0-7.0312 3.1612-7.0312 7.0312s3.1612 7.0312 7.0312 7.0312c3.87 0 7.0312-3.1612 7.0312-7.0312s-3.1612-7.0312-7.0312-7.0312z" color="#000000" fill-rule="evenodd" opacity=".05"/>
  <path id="path3915" transform="matrix(.93605 0 0 .93605 .51156 .54353)" d="m8 1.9375c-3.6237 0-6.5625 2.9388-6.5625 6.5625 0 3.6237 2.9388 6.5625 6.5625 6.5625s6.5625-2.9388 6.5625-6.5625c0-3.6237-2.9388-6.5625-6.5625-6.5625z" color="#000000" fill-rule="evenodd" opacity=".15"/>
  <path id="path3894" d="m8 2.8799c-3.1018 0-5.6163 2.5145-5.6163 5.6163 0 3.1018 2.5145 5.6163 5.6163 5.6163 3.1018 0 5.6163-2.5145 5.6163-5.6163 0-3.1018-2.5145-5.6163-5.6163-5.6163z" color="#000000" fill-rule="evenodd" opacity=".3"/>
  <path id="rect2835" d="m0 14c0 1.108 0.892 2 2 2h12c1.108 0 2-0.892 2-2v-12c0-1.108-0.892-2-2-2h-12c-1.108 0-2 0.892-2 2v12zm0.96875 0v-12c0-0.5832 0.44805-1.0312 1.0312-1.0312h12c0.5832 0 1.0312 0.44805 1.0312 1.0312v12c0 0.5832-0.44805 1.0312-1.0312 1.0312h-12c-0.5832 0-1.0312-0.44805-1.0312-1.0312z" fill="url(#linearGradient3629)" opacity=".4"/>
  <path id="path2843" d="m2 0.96875c-0.5832 0-1.0312 0.44805-1.0312 1.0312v1c0-0.5832 0.44805-1.0312 1.0312-1.0312h12c0.5832 0 1.0312 0.44805 1.0312 1.0312v-1c0-0.5832-0.44805-1.0312-1.0312-1.0312h-12z" fill="#fff" opacity=".35"/>
  <path id="path3253" transform="matrix(.09313 0 0 .09313 2.0262 9.6108)" d="m124.45-16.953a60.306 60.306 0 1 1-120.61 0 60.306 60.306 0 1 1 120.61 0z" color="#000000" fill="url(#radialGradient3916)" fill-rule="evenodd"/>
  <path id="path4449" transform="matrix(.09313 0 0 .09313 2.0262 9.6108)" d="m124.45-16.953a60.306 60.306 0 1 1-120.61 0 60.306 60.306 0 1 1 120.61 0z" color="#000000" fill="url(#radialGradient3926)" fill-rule="evenodd"/>
  <path id="path4144" d="m7.9955 2.6515-0.62142 0.072048-0.76552 0.21164-0.1441 0.13959 0.47732 0.32872v0.18913l-0.18913 0.18913 0.24767 0.49083 0.16661-0.09006 0.20714-0.33322c0.32013-0.099163 0.60984-0.21023 0.91412-0.35124l0.24767-0.63493-0.54036-0.21164zm-1.4545 0.076551c-0.13689 0.038709-0.27296 0.081719-0.40527 0.13059l-0.00449 0.00449c-0.00259 9.337e-4 -0.00638-9.99e-4 -9e-3 0-0.18265 0.068008-0.35851 0.14781-0.53136 0.23416l0.27018 0.049529 0.10357-0.094564 0.20714-0.045031c0.14196-0.069172 0.28616-0.1178 0.43679-0.16661l-0.067543-0.11257zm-1.2383 0.53586-0.040529 0.094564 0.018015 0.23416-0.16211 0.13959-0.10357 0.26118h0.20714l0.10357-0.23416c0.089367-0.063318 0.17466-0.12818 0.26568-0.18913l0.20714 0.072049c0.13809 0.093993 0.27608 0.18534 0.41428 0.27919l0.21164-0.18913-0.22966-0.09006-0.10357-0.21164-0.39627-0.049536-0.018014-0.11708-0.18913 0.04503-0.081055 0.16661-0.10357-0.21164zm5.3091 0.18913-0.39627 0.094564-0.24767 0.16211v0.13959l-0.39176 0.26118 0.081054 0.37375 0.22966-0.16211 0.1441 0.16211 0.16661 0.094564 0.10357-0.27919-0.06304-0.16661 0.06304-0.11708 0.22515-0.21164h0.10357l-0.10357 0.23416v0.21164c0.09521-0.025961 0.19526-0.032893 0.2927-0.045031l-0.27018 0.18462-0.02251 0.12158-0.31071 0.25667-0.31071-0.072049v-0.18462l-0.1441 0.09006 0.063043 0.16661h-0.22966l-0.12158 0.21164-0.15761 0.17562-0.27919 0.058541 0.16661 0.16661 0.040529 0.16211h-0.20714l-0.27018 0.1441v0.41878h0.12608l0.11258 0.13059 0.26118-0.13059 0.10357-0.25667 0.18462-0.11708 0.040522-0.094564 0.31071-0.072049 0.16661 0.18913 0.18463 0.094564-0.10357 0.21164 0.16661-0.04503 0.08555-0.21164-0.20714-0.23866h0.08105l0.20714 0.16661 0.04053 0.23416 0.18913 0.21164 0.04053-0.30621 0.10357-0.04503c0.10245 0.10656 0.18389 0.23131 0.27018 0.35124l0.31071 0.022515 0.18462 0.11708-0.08105 0.11708-0.18913 0.16661h-0.26568l-0.35574-0.11708-0.18462 0.022515-0.13509 0.1531-0.38276-0.38726-0.27018-0.072048-0.39176 0.049536-0.35574 0.094564c-0.19767 0.22451-0.3893 0.44679-0.57639 0.67996l-0.22965 0.54036 0.10357 0.11708-0.18462 0.28369 0.20714 0.49083c0.1762 0.1997 0.35091 0.39906 0.52685 0.5989l0.25667-0.22065 0.11708 0.13059 0.27919-0.18012 0.094565 0.10807h0.27919l0.15761 0.18012-0.099067 0.32422 0.19813 0.22515-9e-3 0.38726 0.1441 0.27919-0.10357 0.23866c-0.01033 0.17291-0.01801 0.34041-0.01801 0.51334 0.08492 0.23428 0.16748 0.47101 0.24767 0.70698l0.05854 0.37375v0.18913h0.1486l0.22515-0.13959h0.27018l0.40527-0.45931-0.05404-0.1531 0.27018-0.23416-0.19813-0.22515 0.23866-0.19813 0.22966-0.13959 0.10357-0.11708-0.06304-0.26117v-0.65744l0.18913-0.40077 0.22515-0.25667 0.24767-0.61241v-0.16211c-0.12287 0.015508-0.24005 0.027309-0.36024 0.036028l-9e-3 9e-3 -9e-3 -9e-3c-0.07276 0.00492-0.14584 9e-3 -0.22065 9e-3 -0.13191-0.2778-0.2327-0.55593-0.33318-0.84656l-0.17561-0.19814-0.09005-0.34223 0.05854-0.067546 0.23866 0.27018 0.27919 0.5989 0.16661 0.18462-0.08105 0.21164 0.15761 0.18012c0.0059-3.953e-4 0.01208 4.437e-4 0.01801 0l0.24767-0.24767 0.34223-0.23416 0.18912-0.21164v-0.23866c-0.04154-0.078367-0.08438-0.15578-0.12614-0.23416l-0.16662 0.18913-0.12608-0.13959-0.18462-0.1441v-0.3017l0.21614 0.24316 0.23866-0.031519c0.10855 0.098734 0.2155 0.18929 0.31071 0.3017l0.15309-0.17112c-0.21908-1.3421-0.92888-2.5193-1.9363-3.3458l-0.04052 0.063042-0.20714 0.23416-0.26568-0.27919h0.26568l0.11258-0.12608c-0.0093-0.00714-0.01768-0.015426-0.02702-0.022515l-0.45481-0.085557-0.27018-0.094564zm-5.6648 0.01801c-0.073268 0.050022-0.14098 0.10418-0.21164 0.15761l-0.031521 0.081054s-0.056789 0.00951-0.099067 0.01801c-1.1724 0.94271-1.9497 2.3603-2.0399 3.9582 0.056296 0.096658 0.12609 0.20714 0.12609 0.20714l0.43679 0.25667 0.43229 0.12158 0.18913 0.23416 0.28819 0.21164 0.16661-0.027022 0.12608 0.058544v0.036029l-0.16661 0.4458-0.12608 0.18913 0.040522 0.094564-0.10357 0.35124 0.37375 0.68446 0.37375 0.32872 0.16661 0.23416-0.022514 0.49533 0.12608 0.27919-0.12608 0.54036s-0.00295 0.0041 0.00449 0.03603c0.17417 0.12349 0.35648 0.2394 0.54487 0.34223 0.00295 0.0016 0.00604 0.0029 9e-3 0.0045 0.00811 0.0039 0.019369 0.01005 0.027014 0.01351 0.066784 0.03031 0.11579 0.04819 0.12609 0.04052 0.041048-0.03125 0.076551-0.05854 0.076551-0.05854l-0.040529-0.11708 0.16661-0.16661 0.063043-0.16211 0.26568-0.09456 0.20714-0.51785-0.058543-0.13959 0.1441-0.21164 0.31071-0.07205 0.16661-0.37825-0.040522-0.46831 0.24767-0.35124 0.040522-0.35124c-0.34017-0.16902-0.68-0.34383-1.0177-0.51785l-0.16211-0.32872-0.31071-0.072048-0.16661-0.4458-0.41428 0.045031-0.35124-0.25667-0.37375 0.32872v0.049536c-0.11288-0.032647-0.25072-0.03715-0.35124-0.099068l-0.085558-0.23416v-0.25667l-0.24767 0.022514c0.020753-0.16457 0.04215-0.32629 0.063043-0.49083h-0.1486l-0.1441 0.18462-0.1441 0.072048-0.20714-0.11708-0.022514-0.26118 0.045029-0.27919 0.31071-0.23416h0.24767l0.040522-0.1441 0.31071 0.072048 0.22965 0.28369 0.040528-0.47282 0.39176-0.32872 0.1486-0.35124 0.28819-0.11708 0.16661-0.23416 0.37375-0.072048 0.18462-0.28369h-0.55838l0.35124-0.16211h0.24767l0.35124-0.11708 0.045029-0.1441-0.12608-0.11708-0.1441-0.04503 0.040529-0.13959-0.10357-0.21164-0.24767 0.090061 0.040529-0.18462-0.28819-0.16661-0.22965 0.40077 0.022514 0.13959-0.22965 0.094564-0.1441 0.30621-0.063043-0.28369-0.39176-0.16211-0.063043-0.21164 0.51785-0.30621 0.22515-0.21164 0.022515-0.25667-0.12608-0.072049-0.022514-0.0044931zm3.6069 0.28819-0.16211 0.090061-0.085558-0.022515-0.018007 0.1441 0.1441 0.090061 0.24767-0.16211-0.12609-0.13959zm-2.7333 0.04503-0.16661 0.11708 0.20714 0.13959h0.16661v-0.16211l-0.20714-0.094564zm3.2737 0.54036v0.13959l0.085558 0.094564v0.21164l-0.045029 0.28369 0.22966-0.049536 0.16661-0.16211-0.1441-0.13959c-0.048722-0.12998-0.10564-0.25359-0.16661-0.37825h-0.12609zm-0.081053 0.28369-0.1486 0.04503 0.045029 0.25667 0.18462-0.090061-0.081053-0.21164zm-2.8594 0.42328 0.058543 0.32872 0.12608-0.18913-0.18462-0.13959z" fill="url(#radialGradient3146)" opacity=".6"/>
  <path id="path4540" d="m8 2.6497c-0.67112 0-1.3116 0.12629-1.9043 0.35102 1.6314 0.028624 2.5521 0.19805 3.3873 0.65524 0.069601 0.038097 0.13893 0.077756 0.20769 0.11993 0.20628 0.12653 0.41143 0.27249 0.62306 0.43878 0.91217 0.71671 0.992 1.5889 1.7668 2.2553 0.4717 0.40572 0.40786 0.3715 0.62599 0.3715 0.23873 0 0.36026-0.21578 0.4183-0.45048-0.69466-2.169-2.7263-3.7413-5.1249-3.7413zm-2.1588 0.98871c-0.11407 0-0.22774 0.012293-0.33932 0.035102-0.037194 0.0076-0.074321 0.016456-0.11116 0.026327-1.0314 0.27631-1.914 1.4141-2.2027 1.9365-0.018365 0.033224-0.039174 0.072278-0.058501 0.10823-0.1533 0.3255-0.27673 0.66666-0.36272 1.0238 0.082582-0.10566 0.16295-0.20483 0.24279-0.29837 0.55886-0.65475 1.0703-1.0092 1.8048-1.0092 1.3106 0 1.4771 0.58392 3.8788 2.15 1.182 0.77076 2.9756 1.8337 4.455 1.992 0.06069-0.19899 0.10876-0.40335 0.14626-0.61136-0.5535-0.03996-1.0521-0.25095-1.5913-0.60844-0.077028-0.051074-0.15507-0.10386-0.23401-0.16088-0.63154-0.45623-1.3334-1.1013-2.2465-1.9014-0.69526-0.6092-2.4439-2.6824-3.3815-2.6824zm-1.878 6.1458c-0.41556 0-0.72566 0.21063-0.76055 0.68449 0.58257 1.1437 1.561 2.0512 2.7555 2.542-0.015838-0.02215-0.030862-0.0455-0.046805-0.0702-0.11157-0.17298-0.21939-0.40695-0.21939-0.67572 0-0.31268 0.20221-0.43585 0.43-0.43585 0.30337 0 1.3047 0.4768 2.9808 0.4768 0.83831 0 1.8842-0.1228 2.6502-0.4183 0.30256-0.29458 0.56877-0.6244 0.79565-0.98286-0.48964 0.1985-1.3951 0.48558-2.5742 0.48558-2.2778 0-4.3551-0.97226-4.9552-1.2842-0.15919-0.082731-0.56724-0.32177-1.056-0.32177z" color="#000000" fill="url(#radialGradient3093)" fill-rule="evenodd"/>
 </g>
</svg>
