<?xml version="1.0" encoding="UTF-8"?>
<svg id="svg2408" width="16" height="16" version="1.1" xmlns="http://www.w3.org/2000/svg" xmlns:cc="http://creativecommons.org/ns#" xmlns:dc="http://purl.org/dc/elements/1.1/" xmlns:rdf="http://www.w3.org/1999/02/22-rdf-syntax-ns#" xmlns:xlink="http://www.w3.org/1999/xlink">
 <defs id="defs2410">
  <linearGradient id="ButtonShadow" x1="45.448" x2="45.448" y1="92.54" y2="7.0165" gradientTransform="scale(1.0059 .99417)" gradientUnits="userSpaceOnUse">
   <stop id="stop3750" offset="0"/>
   <stop id="stop3752" stop-opacity=".58824" offset="1"/>
  </linearGradient>
  <filter id="filter3174" color-interpolation-filters="sRGB">
   <feGaussianBlur id="feGaussianBlur3176" stdDeviation="1.71"/>
  </filter>
  <linearGradient id="linearGradient3188-6" x1="36.357" x2="36.357" y1="6" y2="63.893" gradientTransform="translate(-1.6279 .19594)" gradientUnits="userSpaceOnUse">
   <stop id="stop3739-6" stop-color="#fff" offset="0"/>
   <stop id="stop3741-1" stop-color="#fff" stop-opacity=".38288" offset="1"/>
  </linearGradient>
  <linearGradient id="linearGradient3617-3" x1="48" x2="48" y1="90" y2="5.9877" gradientTransform="matrix(.19048 0 0 .19048 -1.1429 -1.1429)" gradientUnits="userSpaceOnUse">
   <stop id="stop4630" stop-color="#790505" offset="0"/>
   <stop id="stop4632" stop-color="#bd0b0b" offset="1"/>
  </linearGradient>
  <linearGradient id="linearGradient1149" x1="48" x2="48" y1="90" y2="5.9877" gradientTransform="matrix(.19048 0 0 .19048 -1.1429 -1.1428)" gradientUnits="userSpaceOnUse">
   <stop id="stop3690-2" stop-color="#c00808" offset="0"/>
   <stop id="stop3692-9" stop-color="#f21212" offset="1"/>
  </linearGradient>
 </defs>
 <metadata id="metadata2413">
  <rdf:RDF>
   <cc:Work rdf:about="">
    <dc:format>image/svg+xml</dc:format>
    <dc:type rdf:resource="http://purl.org/dc/dcmitype/StillImage"/>
    <dc:title/>
   </cc:Work>
  </rdf:RDF>
 </metadata>
 <g id="layer1-5" transform="matrix(.19048 0 0 .19048 -.83296 -1.1802)">
  <path id="rect3728" d="m10.373 6.1959c-2.3021 0-4.2666 1.302-5.2734 3.1953-0.01072 0.01968-0.0286 0.03488-0.03908 0.05469-0.01204 0.0228-0.01928 0.04758-0.03124 0.07031-0.08723 0.17399-0.17187 0.34799-0.24219 0.53125-0.03036 0.07203-0.0757 0.13566-0.10156 0.21094-0.01036 0.03016-0.02136 0.06337-0.03124 0.09375-0.03548 0.10903-0.04524 0.22932-0.07031 0.34375-0.04528 0.17569-0.08772 0.34961-0.11719 0.53125-0.05149 0.31742-0.09375 0.63636-0.09375 0.96876v72c0 0.33472 0.04135 0.6507 0.09375 0.96875 0.02948 0.18164 0.0719 0.35556 0.11719 0.53125 0.02508 0.11444 0.03484 0.23472 0.07031 0.34376 0.0099 0.0304 0.02088 0.0636 0.03124 0.09376 0.02588 0.07528 0.07121 0.13892 0.10156 0.21092 0.07032 0.18324 0.15495 0.35724 0.24219 0.53125 0.01196 0.0228 0.0192 0.04752 0.03124 0.07032 0.01048 0.0196 0.02832 0.0352 0.03908 0.05468 1.0068 1.8933 2.9714 3.1953 5.2734 3.1953h72c2.302 0 4.2666-1.302 5.2734-3.1953 0.0104-0.0196 0.0288-0.0348 0.0392-0.05468 0.012-0.0228 0.0192-0.0476 0.0312-0.07032 0.0862-0.17192 0.17248-0.34248 0.2422-0.52344 0.0312-0.07412 0.0749-0.1412 0.10156-0.21876 0.0104-0.0308 0.0212-0.06276 0.0312-0.09376 0.042-0.12904 0.0578-0.27008 0.0859-0.40625 0.0336-0.13728 0.0618-0.27316 0.0859-0.41406 3e-3 -0.0188 0.0124-0.036 0.0156-0.05468 0.0524-0.31803 0.0938-0.63401 0.0938-0.96873v-72c0-0.33472-0.0414-0.6507-0.0938-0.96875-3e-3 -0.01876-0.0124-0.03592-0.0156-0.05469-0.024-0.14089-0.0522-0.27677-0.0859-0.41406-0.028-0.13615-0.044-0.27721-0.0859-0.40625-0.01-0.031-0.0208-0.06297-0.0312-0.09375-0.0268-0.07756-0.0702-0.14462-0.10156-0.21875-0.0697-0.18096-0.156-0.35153-0.2422-0.52344-0.0116-0.02284-0.0196-0.04764-0.0312-0.07031-0.0104-0.0198-0.0284-0.035-0.0392-0.05469-1.0068-1.8934-2.9714-3.1953-5.2734-3.1953zm2.3436 4.1011h66.99c2.7818 0 4.4343 1.3292 4.4343 4.1111v2l0.0808 64.606c3e-3 2.7818-1.1676 5.3233-3.9494 5.3233h-67.555c-2.7818 0-4.1919-1.6525-4.1919-4.4343v-2l0.08081-63.414v-2c0-2.7818 1.3292-4.1919 4.1111-4.1919z" fill="url(#linearGradient3188-6)" opacity=".4"/>
 </g>
 <g id="layer2" transform="translate(0,-80)" display="none">
  <rect id="rect3745" x="5" y="7" width="86" height="85" rx="6" ry="6" fill="url(#ButtonShadow)" filter="url(#filter3174)" opacity=".9"/>
 </g>
 <path id="rect2419-6" d="m0 8v6.8574c0 0.63314 0.50944 1.1426 1.1426 1.1426h13.715c0.63314 0 1.1426-0.50944 1.1426-1.1426v-6.8574h-16zm1.7637 0.70508h1.2969c0.16884 0 0.30469 0.13585 0.30469 0.30469v1.2949c0 0.16884-0.13585 0.30469-0.30469 0.30469h-1.2969c-0.16884 0-0.30469-0.13585-0.30469-0.30469v-1.2949c0-0.16884 0.13585-0.30469 0.30469-0.30469zm11.182 0.044922h1.2949c0.16884 0 0.30469 0.13585 0.30469 0.30469v1.2949c0 0.16884-0.13585 0.30469-0.30469 0.30469h-1.2949c-0.16884 0-0.30469-0.13585-0.30469-0.30469v-1.2949c0-0.16884 0.13585-0.30469 0.30469-0.30469zm-11.182 3.4629h1.2969c0.16884 0 0.30469 0.1378 0.30469 0.30664v1.2949c0 0.16884-0.13585 0.30469-0.30469 0.30469h-1.2969c-0.16884 0-0.30469-0.13585-0.30469-0.30469v-1.2949c0-0.16884 0.13585-0.30664 0.30469-0.30664zm11.182 0.046875h1.2949c0.16884 0 0.30469 0.13585 0.30469 0.30469v1.2949c0 0.16884-0.13585 0.30469-0.30469 0.30469h-1.2949c-0.16884 2e-6 -0.30469-0.13585-0.30469-0.30469v-1.2949c0-0.16884 0.13585-0.30469 0.30469-0.30469z" fill="url(#linearGradient1149)"/>
 <path id="rect2419-5" d="m1.1426 0c-0.63314 0-1.1426 0.50944-1.1426 1.1426v6.8574h16v-6.8574c0-0.63314-0.50944-1.1426-1.1426-1.1426h-13.715zm0.62109 1.9844h1.2969c0.16884 0 0.30469 0.13585 0.30469 0.30469v1.2949c0 0.16884-0.13585 0.30469-0.30469 0.30469h-1.2969c-0.16884 0-0.30469-0.13585-0.30469-0.30469v-1.2949c0-0.16884 0.13585-0.30469 0.30469-0.30469zm11.182 0.046875h1.2949c0.16884 0 0.30469 0.13585 0.30469 0.30469v1.2949c0 0.16884-0.13585 0.30469-0.30469 0.30469h-1.2949c-0.16884 0-0.30469-0.13585-0.30469-0.30469v-1.2949c0-0.16884 0.13585-0.30469 0.30469-0.30469zm-11.182 3.4629h1.2969c0.16884 0 0.30469 0.13585 0.30469 0.30469v1.2969c0 0.16884-0.13585 0.30469-0.30469 0.30469h-1.2969c-0.16884 0-0.30469-0.13585-0.30469-0.30469v-1.2969c0-0.16884 0.13585-0.30469 0.30469-0.30469zm11.182 0.046875h1.2949c0.16884 0 0.30469 0.13585 0.30469 0.30469v1.2949c0 0.16884-0.13585 0.30469-0.30469 0.30469h-1.2949c-0.16884 0-0.30469-0.13585-0.30469-0.30469v-1.2949c0-0.16884 0.13585-0.30469 0.30469-0.30469z" fill="url(#linearGradient3617-3)"/>
 <path id="path2843" d="m2.0272 0.97475c-0.13823 6e-7 -0.21069 0.00463-0.31445 0.00586-0.47067 0.024106-0.70488 0.27843-0.71289 0.76563-2.2e-5 0.089854-0.0039 0.14636-0.0039 0.25977v1c0-0.5832 0.39141-1.0313 0.97461-1.0313h12.057c0.5832 2.2e-6 0.97461 0.44805 0.97461 1.0313v-1c0-0.053825 0.0012-0.074686 2e-3 -0.12305v-0.31836c-2e-6 -0.46872-0.25607-0.56635-0.67969-0.58398-0.11513-0.00114-0.19365-0.00586-0.35352-0.00586z" fill="#fff" opacity=".2"/>
 <path id="rect3728-4" d="m1.1428 7e-6c-0.43849 0-0.81269 0.24799-1.0045 0.60863-0.0021 0.00375-0.0054 0.00665-0.0074 0.010416-0.0023 0.00434-0.0037 0.00906-0.0059 0.013392-0.01662 0.033141-0.03274 0.066284-0.04613 0.10119-0.0058 0.013719-0.01442 0.02584-0.01935 0.040178-2e-3 0.00574-0.0041 0.012071-6e-3 0.017856-0.0068 0.020767-0.0086 0.043681-0.0134 0.065476-0.0086 0.033465-0.01671 0.066592-0.02232 0.10119-0.0098 0.060461-0.01786 0.12121-0.01786 0.18453v13.714c0 0.06376 0.0079 0.12394 0.01786 0.18452 0.0056 0.0346 0.0137 0.06772 0.02232 0.10119 0.0048 0.0218 0.0066 0.04471 0.0134 0.06548 0.0019 0.0058 4e-3 0.01211 0.0059 0.01787 0.0049 0.01434 0.01357 0.02646 0.01935 0.04017 0.0134 0.0349 0.02951 0.06805 0.04613 0.10119 0.0023 0.0043 0.0037 9e-3 6e-3 0.01339 2e-3 0.0037 0.0054 0.0067 0.0074 0.01042 0.19177 0.36064 0.56598 0.60863 1.0045 0.60863h13.714c0.43849 0 0.81269-0.24799 1.0045-0.60863 2e-3 -0.0037 0.0055-0.0066 0.0075-0.01042 0.0023-0.0043 0.0037-0.0091 0.0059-0.01339 0.01642-0.03275 0.03285-0.06523 0.04613-0.0997 0.0059-0.01412 0.01427-0.02689 0.01934-0.04167 2e-3 -0.0059 4e-3 -0.01196 0.0059-0.01787 8e-3 -0.02458 0.01102-0.05144 0.01637-0.07738 0.0064-0.02615 0.01177-0.05203 0.01637-0.07887 4.95e-4 -0.0036 0.0024-0.0069 3e-3 -0.01042 0.01-0.06058 0.01786-0.12076 0.01786-0.18452v-13.714c0-0.063756-0.0079-0.12394-0.01786-0.18452-4.95e-4 -0.00357-0.0024-0.00684-3e-3 -0.010416-0.0046-0.026836-0.0099-0.052718-0.01637-0.078869-0.0053-0.025934-0.0084-0.052802-0.01637-0.077381-0.0019-0.00591-4e-3 -0.011994-0.0059-0.017856-0.0051-0.014772-0.01337-0.027546-0.01934-0.041666-0.01327-0.03447-0.02971-0.066959-0.04613-0.099703-0.0022-0.00435-0.0037-0.00907-0.0059-0.013392-2e-3 -0.00377-0.0054-0.00667-0.0075-0.010416-0.19177-0.36064-0.56598-0.60863-1.0045-0.60863zm0.63689 0.97129h12.38c0.52988 0 0.84463 0.063056 0.84463 0.59293v0.57108l0.01538 11.926c6.66e-4 0.52988-0.2224 1.014-0.75227 1.014h-12.487c-0.52988 0-0.79845-0.31476-0.79845-0.84463v-0.38095l0.0154-11.699v-0.38095c0-0.52988 0.25318-0.79845 0.78306-0.79845z" fill="#070707" opacity=".4"/>
</svg>
