<?xml version="1.0" encoding="UTF-8"?>
<!-- Created with Inkscape (http://www.inkscape.org/) -->
<svg id="svg2" width="16" height="16" version="1.1" xmlns="http://www.w3.org/2000/svg" xmlns:cc="http://creativecommons.org/ns#" xmlns:dc="http://purl.org/dc/elements/1.1/" xmlns:rdf="http://www.w3.org/1999/02/22-rdf-syntax-ns#" xmlns:xlink="http://www.w3.org/1999/xlink">
 <defs id="defs4">
  <linearGradient id="linearGradient3204" x1="1" x2="15" y1="9" y2="9" gradientTransform="translate(-1,-2)" gradientUnits="userSpaceOnUse">
   <stop id="stop3678" stop-color="#abc669" offset="0"/>
   <stop id="stop3680" stop-color="#abc622" offset="1"/>
  </linearGradient>
  <linearGradient id="linearGradient3629" x2="29.017" y1="8" y2="8" gradientTransform="matrix(0,-1,1,0,0,16)" gradientUnits="userSpaceOnUse">
   <stop id="stop3330" offset="0"/>
   <stop id="stop3333" stop-opacity="0" offset="1"/>
  </linearGradient>
  <linearGradient id="linearGradient3707" x1="48" x2="48" y1="8" y2="80" gradientTransform="matrix(.17965 0 0 .17758 -.1681 -.68774)" gradientUnits="userSpaceOnUse">
   <stop id="stop3846" stop-color="#789338" offset="0"/>
   <stop id="stop3848" stop-color="#728317" offset="1"/>
  </linearGradient>
 </defs>
 <metadata id="metadata7">
  <rdf:RDF>
   <cc:Work rdf:about="">
    <dc:format>image/svg+xml</dc:format>
    <dc:type rdf:resource="http://purl.org/dc/dcmitype/StillImage"/>
    <dc:title/>
   </cc:Work>
  </rdf:RDF>
 </metadata>
 <g id="layer1">
  <rect id="rect3196" transform="matrix(0,1,1,0,0,0)" width="16" height="16" rx="2" ry="2" fill="url(#linearGradient3204)"/>
  <path id="path3852" d="m9.9784 1.4397c-4.3486 0-7.8763 2.9359-7.8763 6.5594 0.20674-2.7327 2.694-4.889 5.7318-4.889 3.1732 0 5.7487 2.3505 5.7487 5.2553 0 2.9048-2.5754 5.2608-5.7487 5.2608-1.4349 0-2.7432-0.48022-3.7501-1.2764 1.4425 1.3554 3.5495 2.2087 5.8946 2.2087 2.482 0 4.6928-0.95712 6.136-2.4528v-8.2131c-1.4432-1.4949-3.6535-2.4528-6.136-2.4528zm-3.2841 2.808c-2.4219 0-4.3845 1.8217-4.3845 4.0677 0 2.2459 1.9625 4.0621 4.3845 4.0621 2.4219 0 4.3901-1.8162 4.3901-4.0621 0-2.2459-1.9682-4.0677-4.3901-4.0677zm0 0.77691c2.0099 0 3.6434 1.4761 3.6434 3.2908 0 1.8147-1.6335 3.2852-3.6434 3.2852-2.0099 0-3.6378-1.4705-3.6378-3.2852 0-1.8147 1.6279-3.2908 3.6378-3.2908zm-0.30315 1.3984c-1.1738 0-2.1277 0.84943-2.1277 1.8923 0 1.0429 0.95387 1.8868 2.1277 1.8868 1.1738 0 2.1221-0.84388 2.1221-1.8868 0-1.0429-0.94826-1.8923-2.1221-1.8923zm0 0.56604c0.8224 0 1.4877 0.59562 1.4877 1.3263 0 0.73068-0.6653 1.3208-1.4877 1.3208-0.82239 0-1.4933-0.59007-1.4933-1.3208 0-0.73068 0.67091-1.3263 1.4933-1.3263z" color="#000000" fill="#fff" opacity=".2"/>
  <path id="path3749" d="m9.864 0.94378c-4.3486 0-7.8763 2.9359-7.8763 6.5594 0.20674-2.7327 2.694-4.889 5.7318-4.889 3.1732 0 5.7487 2.3505 5.7487 5.2553 0 2.9048-2.5754 5.2608-5.7487 5.2608-1.4349 0-2.7432-0.48022-3.7501-1.2764 1.4425 1.3554 3.5495 2.2087 5.8946 2.2087 2.482 0 4.6928-0.95712 6.136-2.4528v-8.2131c-1.4432-1.4949-3.6535-2.4528-6.136-2.4528zm-3.2841 2.808c-2.4219 0-4.3845 1.8217-4.3845 4.0677 0 2.2459 1.9625 4.0621 4.3845 4.0621 2.4219 0 4.3901-1.8162 4.3901-4.0621 0-2.2459-1.9682-4.0677-4.3901-4.0677zm0 0.77691c2.0099 0 3.6434 1.4761 3.6434 3.2908 0 1.8147-1.6335 3.2852-3.6434 3.2852-2.0099 0-3.6378-1.4705-3.6378-3.2852 0-1.8147 1.6279-3.2908 3.6378-3.2908zm-0.30315 1.3984c-1.1738 0-2.1277 0.84943-2.1277 1.8923 0 1.0429 0.95387 1.8868 2.1277 1.8868 1.1738 0 2.1221-0.84388 2.1221-1.8868 0-1.0429-0.94826-1.8923-2.1221-1.8923zm0 0.56604c0.8224 0 1.4877 0.59562 1.4877 1.3263 0 0.73068-0.6653 1.3208-1.4877 1.3208-0.82239 0-1.4933-0.59007-1.4933-1.3208 0-0.73068 0.67091-1.3263 1.4933-1.3263z" color="#000000" fill="url(#linearGradient3707)"/>
  <path id="rect2835" d="m0 14c0 1.108 0.892 2 2 2h12c1.108 0 2-0.892 2-2v-12c0-1.108-0.892-2-2-2h-12c-1.108 0-2 0.892-2 2v12zm0.96875 0v-12c0-0.5832 0.44805-1.0312 1.0312-1.0312h12c0.5832 0 1.0312 0.44805 1.0312 1.0312v12c0 0.5832-0.44805 1.0312-1.0312 1.0312h-12c-0.5832 0-1.0312-0.44805-1.0312-1.0312z" fill="url(#linearGradient3629)" opacity=".4"/>
  <path id="path2843" d="m2 0.96875c-0.5832 0-1.0312 0.44805-1.0312 1.0312v1c0-0.5832 0.44805-1.0312 1.0312-1.0312h12c0.5832 0 1.0312 0.44805 1.0312 1.0312v-1c0-0.5832-0.44805-1.0312-1.0312-1.0312h-12z" fill="#fff" opacity=".25"/>
 </g>
</svg>
