<?xml version="1.0" encoding="UTF-8"?>
<!-- Created with Inkscape (http://www.inkscape.org/) -->
<svg id="svg2" width="16" height="16" version="1.1" xmlns="http://www.w3.org/2000/svg" xmlns:cc="http://creativecommons.org/ns#" xmlns:dc="http://purl.org/dc/elements/1.1/" xmlns:rdf="http://www.w3.org/1999/02/22-rdf-syntax-ns#" xmlns:xlink="http://www.w3.org/1999/xlink">
 <defs id="defs4">
  <linearGradient id="linearGradient3204" x1="1" x2="15" y1="9" y2="9" gradientTransform="translate(-17,-2)" gradientUnits="userSpaceOnUse">
   <stop id="stop3720-0" stop-color="#2e65a4" offset="0"/>
   <stop id="stop3722-2" stop-color="#67a0e1" offset="1"/>
  </linearGradient>
  <linearGradient id="linearGradient3629" x2="29.017" y1="8" y2="8" gradientTransform="matrix(0,-1,1,0,0,16)" gradientUnits="userSpaceOnUse">
   <stop id="stop3330" offset="0"/>
   <stop id="stop3333" stop-opacity="0" offset="1"/>
  </linearGradient>
  <linearGradient id="linearGradient3732" x1="45.79" x2="45.79" y1="78.067" y2="17.246" gradientTransform="matrix(.18182 0 0 .16507 -.72363 .19335)" gradientUnits="userSpaceOnUse" xlink:href="#linearGradient3731"/>
  <linearGradient id="linearGradient3731">
   <stop id="stop3733" stop-color="#dcdcdc" offset="0"/>
   <stop id="stop3757" stop-color="#ebebeb" offset=".30654"/>
   <stop id="stop3737" stop-color="#fff" offset=".70706"/>
   <stop id="stop3759" stop-color="#fafafa" offset=".84501"/>
   <stop id="stop3735" stop-color="#f0f0f0" offset="1"/>
  </linearGradient>
  <radialGradient id="radialGradient3990" cx="48" cy="48.277" r="33" gradientTransform="matrix(.13398 0 0 .13949 .41746 1.0358)" gradientUnits="userSpaceOnUse">
   <stop id="stop3995" stop-color="#6f99c1" offset="0"/>
   <stop id="stop3997" stop-color="#89abcf" stop-opacity=".62016" offset="1"/>
  </radialGradient>
  <clipPath id="clipPath3854">
   <path id="path3856" d="m8 3c-3.3137 0-6 1.976-6 4.4375 0 1.38 0.85934 2.6181 2.1875 3.4375 0.18263 1.5723-1.1562 2.0938-1.1562 2.0938 1.7496 0.17263 2.9144-0.60295 3.5312-1.1875 0.45882 0.08344 0.94406 0.15625 1.4375 0.15625 3.3137 0 6-2.0385 6-4.5 0-2.4615-2.6863-4.4375-6-4.4375z" fill="url(#linearGradient3732)"/>
  </clipPath>
 </defs>
 <metadata id="metadata7">
  <rdf:RDF>
   <cc:Work rdf:about="">
    <dc:format>image/svg+xml</dc:format>
    <dc:type rdf:resource="http://purl.org/dc/dcmitype/StillImage"/>
    <dc:title/>
   </cc:Work>
  </rdf:RDF>
 </metadata>
 <g id="layer1">
  <rect id="rect3196" transform="rotate(-90)" x="-16" width="16" height="16" rx="2" ry="2" fill="url(#linearGradient3204)"/>
  <path id="rect2835" d="m0 14c0 1.108 0.892 2 2 2h12c1.108 0 2-0.892 2-2v-12c0-1.108-0.892-2-2-2h-12c-1.108 0-2 0.892-2 2v12zm0.96875 0v-12c0-0.5832 0.44805-1.0312 1.0312-1.0312h12c0.5832 0 1.0312 0.44805 1.0312 1.0312v12c0 0.5832-0.44805 1.0312-1.0312 1.0312h-12c-0.5832 0-1.0312-0.44805-1.0312-1.0312z" fill="url(#linearGradient3629)" opacity=".4"/>
  <path id="path2843" d="m2 0.96875c-0.5832 0-1.0312 0.44805-1.0312 1.0312v1c0-0.5832 0.44805-1.0312 1.0312-1.0312h12c0.5832 0 1.0312 0.44805 1.0312 1.0312v-1c0-0.5832-0.44805-1.0312-1.0312-1.0312h-12z" fill="#fff" opacity=".3"/>
  <path id="path3707" d="m8 3.5c-3.3137 0-6 1.976-6 4.4375 0 1.38 0.85934 2.6181 2.1875 3.4375 0.18263 1.5723-1.1562 2.0938-1.1562 2.0938 1.7496 0.17263 2.9144-0.60295 3.5312-1.1875 0.45882 0.08344 0.94406 0.15625 1.4375 0.15625 3.3137 0 6-2.0385 6-4.5 0-2.4615-2.6863-4.4375-6-4.4375z" opacity=".4"/>
  <path id="path3687" d="m8 3c-3.3137 0-6 1.976-6 4.4375 0 1.38 0.85934 2.6181 2.1875 3.4375 0.18263 1.5723-1.1562 2.0938-1.1562 2.0938 1.7496 0.17263 2.9144-0.60295 3.5312-1.1875 0.45882 0.08344 0.94406 0.15625 1.4375 0.15625 3.3137 0 6-2.0385 6-4.5 0-2.4615-2.6863-4.4375-6-4.4375z" fill="url(#linearGradient3732)"/>
  <path id="path4834_2_" d="m11.524 8.293-0.0013-0.010536zm-4.7795 2.8685c-0.010712-0.07697-0.1792-0.05123 1.5e-6 1.1e-5m4.3194-2.1229-0.0045 5.324e-4zm-0.27613 0.019853-8e-3 0.031377 8e-3 -0.031377zm0.34846 1.9982-0.01876-8e-3zm-0.11302-0.23618 0.0099-0.01212zm0.01248 0.0065 0.0045-0.0021zm-0.0134-0.0127 0.0027-0.0056zm9.39e-4 6e-3c0.01657 0.04052 0.0082 0.02245-4e-6 2e-5m-5.8011-3.9063-0.0031221-0.025896zm-0.33727 0.19361-0.00572-0.017212 0.00572 0.017206m-0.023231-0.00106-0.018313-0.019821zm-0.057189-0.027398 0.00228-2.57e-5zm-0.073253-0.59665-0.015172-0.0090878zm-0.01739 0.051756 0.0045-0.00563zm-0.032601 0.031427 0.028735-0.017256-0.028735 0.017256m0.55164 0.59561 0.011184-0.011687zm-0.01691-0.38982-0.00542-0.00805zm-0.00275 0.03348-0.0013-0.01018zm-0.036121 0.42333c0.015783-0.091756 0.09169 0.0015 2.3e-6 -6e-7m-0.50349-0.76853-0.0089359-0.011131zm-0.00982-0.086687 0.00153 0.00513-0.00153-0.00513m-3.751e-4 0.11413c0.035003 0.00294 0.015141-0.07894 0-3.8e-6m-0.016133-0.087185-0.0045-0.0015zm-0.022301-0.00206 0.00866 0.040074-0.00866-0.040074m-0.00359-0.027361-0.00526-0.033261zm-0.00894 0.043522-0.0045-2e-3zm-0.020524-0.01668 0.011596 0.012695zm-0.01163-0.1054c0.032944-0.00363 0.00663 0.079469-2.2e-6 -1.3e-6m-0.024588-0.028393-0.00282-0.061203 0.00282 0.061209m-0.02009 0.054202 0.010262-4e-3zm-0.019236 0.077086-0.00267-0.03124 0.00267 0.03124m-0.0098-0.025859 0.00442-0.00357zm-0.00312-0.064391c0.059521 0.05255-0.05112 0.060089-2.3e-6 -5e-6m-0.010262-0.07855c-0.011192-0.048671 0.12457 0.01038 3.1e-6 -3.8e-6m-0.050471 0.50135c0.14369-0.054252 0.074252 0.086814 0-8.1e-6m0.73126 0.071491-9.198e-4 -0.00557zm-0.00275-0.00765-0.00893-0.00959zm-0.38324-0.2707-0.0045-0.00513zm-0.00804-0.00507-0.0045-0.00319zm-0.00982-0.00513-0.00228-0.00557zm-0.018717 0.00513 0.00404-0.00582-0.00404 0.00582m0.40112 0.21797 0.0089-0.00653zm-0.048733-0.03251-0.0045-2e-3zm-0.030276 0.023331-0.0045-2e-3zm-0.0045 0.038498 0.014692-0.00507zm-0.35204-0.14141 0.00161-1e-3 -0.00161 1e-3m-0.012064 0.079588-0.018016-0.015662zm-0.039768 0.039042-0.00487-0.0015zm-0.35555-0.077558 0.011482 1.051e-4 -0.011467-1.051e-4m0.88133-0.78781 0.00496-3e-3zm0.00267 1.2339 0.00404-0.014159zm-0.15138-0.37055 0.00894-0.00413zm-0.020601 0.00765c-0.16048 0.041369 0.044776-0.088679-1.6e-6 -4.82e-5m-0.64815-0.41415-0.0045 0.0025zm-0.021897 0.00106 0.00267 0.00513zm0.076833-0.18858 0.00404 0.036539zm-0.00487-0.029381 8.384e-4 -0.00932-8.384e-4 0.00932m-8.384e-4 -0.15972-0.00487 0.010643zm-0.012961 0.34214-0.016545 0.020785zm-0.06476-0.074494 0.00938-0.00964zm-0.00762 0.00319-0.0013-0.010686zm-0.00359-0.00106 0.0045 0.00413zm-8.384e-4 -0.017262-9.197e-4 0.00513zm0.90235 0.7974v-0.019784zm-0.097398 0.19671 0.00579 0.010593zm-0.059331-0.022849c-0.043694-0.00932 0.052347-0.032929 0 0zm-0.57808-0.67322-0.0089365-0.0080461zm-0.00579-0.011644-0.00488-0.012157zm-0.0062604-0.010136-0.011146-0.0091285zm-0.01739-0.0091285c-0.033012-0.00813 0.025678-0.00369-4.6e-6 0m-0.00982 0.1161-0.00487-0.00513zm-0.069708-0.14903v-4.19e-5m-0.033043-0.0091 0.00487-0.00357zm-0.10275 0.1019c-0.041941-0.038967 0.061192-0.01964 0-4.4e-6m0.9698 0.75023 0.0045-0.00413zm-9.197e-4 0.00307-0.011596 0.01018zm-9.198e-4 -0.00244 0.00137-0.00513zm-0.00359 0.029832 0.00496-2e-3zm-0.00978 0.0071 0.00236-0.00689-0.00236 0.00689m-0.0013-0.011644 0.01248-0.00765zm-0.0045 0.013189-0.013403-0.00413zm0.017429-0.2834 0.00137-0.015711zm-0.32206-0.30313-0.00893-0.00357zm0.39982 0.30766-0.00487-0.015166zm-1.2437-0.43893 0.01473-0.020322zm-0.026326 0.029381 0.00228-0.00613zm1.2128 0.32748-0.012824-0.02492 0.012831 0.02492m-0.012038-0.089699 0.00228-0.00653zm-0.011596-0.024883c7.195e-4 -0.042458 0.035962 0.030714 1.5e-6 -3.1e-6m-1.5e-6 0.00106-0.011116 0.012363zm-0.06527-0.10956 0.00579 0.00156zm-0.50719-0.10092c-0.14946 0.27536 0.49241-0.00382 0 0zm-0.41458-0.19836c-0.26276 0.041094 0.75407 0.3387 0.14641 0.028155l-0.082638-0.028174zm0.22858 0.16277-0.034369 2.134e-4zm-2.2247-2.2927c-0.21371 0.052225-0.11867 0.14165 0.012999 0.020472zm2.7757-0.83297c-0.11119-0.019646-0.31851 0.15139-0.09216 0.052106zm0.00938 0.049021-0.019251 0.00569zm-0.82858-0.066828c-0.31735 0.16772 0.17575 0.15291 0.12665 0.29527 0.31742 0.09257-0.43959-0.09328-0.61834-0.073828-0.49371 0.051906-1.0503-0.21774-1.4636 0.21321-0.11592 0.11555 0.11655 0.073592-0.18826 0.17894-0.3533 0.19099 0.21009 0.29526-0.25823 0.37265-0.45976 0.24772 0.47862-0.21379 0.65072-0.1959 0.68088-0.17359 0.45616 0.84535 0.19518 1.2312 0.010011 0.27056 0.43224 1.3903 0.23574 0.58186 0.087628-0.15888 0.25743 0.94883 0.69978 0.85053 0.3046 0.037396 0.90276 0.85803 0.53457 0.21284 0.12125-0.29746-0.40723-0.20736-0.12081-0.5656-0.49487 0.51539-0.64742-0.48861-0.088474-0.52176 0.257-0.18271 0.32788 0.070202 0.46858 0.24797 0.085387-0.54512 0.53636-1.0535 1.0176-1.1513 0.46457-0.090382-0.46991-0.31825 0.14583-0.34393 0.40274-0.27405-0.04557 0.40613 0.37015 0.13903-0.093425-0.22629-0.076878-0.74919-0.37499-0.72631-0.35324-0.529-0.57483 1.0106-0.81368 0.24933-0.48915-0.44638 0.51613-0.34916 0.51994-0.60586 0.23771-0.19337 0.3086-0.13687 0.38345-0.033809-0.3889 0.13659-0.096149 0.20982 0.12897 0.33126-0.17452-0.28797 0.48735-0.16339 0.11666-0.48404-0.31283-0.32163-0.64396-0.14197-0.75928 0.15449-0.016089-0.28382 0.18737-0.47227-0.16558-0.18003-0.25059 0.18409-0.58556 0.19171-0.20443-0.030082-0.0033348-0.12681-0.42389-0.098836-0.53813-0.14613zm1.2075 0.062596c-0.096678 0.096762 0.027325 0.058406 0 0zm0.17408 0.011356 0.035147 0.013252zm-0.23172 0.039805-0.00899 0.017857zm0.37076 0.00922-0.014241 0.00482zm0.090825 0.056855c-0.031496 0.045924-0.023269-0.026879 0 0zm0.065133 0.02987c0.013045 0.05509-0.093648 0.00723 0 0zm-0.62441 0.00282-0.011398-2.283e-4zm0.59683 0.00563-0.020844 0.00382zm-2.1124 0.00855-0.011398-2.283e-4zm1.6302 0.00282c-0.01306 0.032754-0.033356-0.031734 0 0zm0.092709-0.00213-0.021653-1.827e-4zm-1.7712 0.00922-0.018443 0.00519zm1.3653 0-0.011955-2.75e-5zm-0.10644 0.015629c-0.12533 0.18769-0.14248 0.01 0 0zm-1.3966 0.00926c-0.077121 0.034656 0.019914-0.037634 0 0zm2.3486-0.00501-0.043518-0.00282zm-0.82419 0.024188c-0.041567 0.099969-0.00389-0.056579 0 0zm0.48913-0.00144c-0.019495 0.030727-0.00991-0.029188 0 0zm-0.19103 0.00712-0.00861-2.891e-4zm0.22983-0.00282-0.011399-2.284e-4zm-0.43338 0.044748-0.011094 0.00419zm-0.39144 0.00357-0.018557 0.00413zm0.83796 0.00213-0.021653-1.827e-4zm-1.2388 0.034856-0.021401-0.00357zm0.43652 0.00708-0.011398-2.284e-4zm-0.87178 0.00994c-0.065888 0.16707-0.22518 0.031965-0.098179 0.017287zm1.7442-6.883e-4c0.10056 0.040687-0.098631 0.040687 0 0zm0.32195 0.00708-0.012298-0.00413zm-3.5429 0.012107-0.011398-2.284e-4zm2.6805 0.025559c-0.029612 0.053482-0.036291-0.084736 0 0zm-0.15156 0.024176c-0.00819 0.03403-0.043717-0.041351 0 0zm-2.6617 0.045499-0.011223 0.00551zm3.1409 0.0078c-0.013182 0.028093-0.02368-0.034287 0 0zm0.078273 0.056141-0.015005-3.347e-4zm-1.6233 0.084583c0.21787 0.020691-0.43533 0.086618 0 0zm1.8188 0.026309-0.011398-2.278e-4zm-3.2298 0.028412-0.01858-0.00413zm-0.051981 0.00712-0.011398-2.277e-4zm-0.026326 0.00993c-0.065697 0.084399-0.013144-0.030758 0 0zm-0.20166 0.068923-0.01845-2.584e-4zm0.035704-0.00206-0.020798 0.00388zm0.63755 0.057568-0.00572-0.011625zm0.010674 0.017763c-0.00976 0.029206-0.019602-0.030614 0 0zm-0.031305 0.014203c0.028156 0.0588-0.035269 0.00282 0 0zm-0.8048 0.00712-0.00861 2.284e-4zm0.85801 0.031966-0.02827 0.00225zm-0.00875 0.026272c-0.034927 0.054102-0.027332-0.03047 0 0zm-0.041315 0.022749-0.012221 0.010605zm0.025031 0.029162c-0.00633 0.037972-0.014265-0.038923 0 0zm0.04194-0.00641-0.011398-2.277e-4zm-0.074512 0.054759c-0.021882 0.061397 1.876e-4 -0.06377 0 0zm1.3139 0.083838c0.035734 0.2566-0.1303-0.013852 0 0zm1.5682-0.00501-0.028179 0.00813zm-2.8684 0.025602-0.00861 2.89e-4zm1.2839 0.12436-0.031358 0.029563zm-1.2175 0.086012c0.10016 0.096127-0.01547 0.062329 0 0zm1.5513 0.06398c0.036985 0.23356-0.49416 0.036846 0 0zm-1.5331 0.024852c-0.041429 0.037991-0.025435-0.033611 0 0zm2.405 0.020616c-0.025145 0.027417-0.013533-0.036639 0 0zm0.065758 0.096659-0.021439-0.00357zm-0.82356 0.013489-0.05311-0.00206zm-0.11586 0.00787c-0.1685 0.44262-0.34867 0.11948 0 0zm0.10644 0.021329c0.13001 0.18185-0.28307 0.032729-8.3e-6 1.2e-6zm0.015027-0.00997-0.014516-6.882e-4zm0.20417 0.11019c-0.17036 0.11961-0.18755-0.034287 0 0zm-0.14403 0.069722c-0.24022 0.12724-0.2025 0.024439 0 0zm-0.15972 0.039092-0.028026-2.127e-4zm0.17538 0.25658-0.011086-0.00419zm0 0.12012-0.00983-0.00494zm-0.73901 0.35533-0.011985-2.5e-5zm0.070737 1.1542c-0.04637 0.055047-0.029834-0.10624 0 0zm0.53362-3.8415c-0.62687 0.12438 0.75112 0.14244 0.065141 0.015792 0.065751-0.022956-0.060345-0.00981-0.065141-0.015792zm-0.013182 0.065403c0.052584 0.051192-0.18008-0.044285 0 0zm0.02256-0.01496c-0.039577 0.034625-0.023254-0.032034 0 0zm-0.00626 0.063977-0.020806-8.134e-4zm0.26179-0.16772c-0.21594 0.091507 0.17749 0.013027 0 0zm0.26118-0.032009c-0.14684 0.15056 0.2763-0.00679 0 0zm2.1231-0.16202c-0.57261 0.12203-1.3384-0.12547-1.7803 0.17768 0.36359 0.18686-0.97664 0.096839-0.2193 0.17967 0.070775 0.01038 0.67033 0.024307 0.19859-0.051155 0.24689 0.087154 1.3467-0.40786 0.685-0.10228-0.22202 0.047307 0.54342 0.23517 0.27905 0.41786-0.26217 0.24164 0.12518 0.82399 0.34442 0.2729 0.50947-0.090383 0.91611-0.56645 1.1036-0.82897-0.20759-0.0090785-0.39593-0.10681-0.61105-0.065704zm-0.24611 0.052581c-0.03241 0.034862-0.0015-0.038885 0 0zm0.6031 0.00357c-0.031496 0.045918-0.023262-0.026879 0 0zm-1.8933 0.011352-0.011398-2.277e-4zm0.031304 0.051199c-0.035064 0.070704-0.080631-0.042358 0 0zm0.098949-0.00569c-3.751e-4 0.054721-0.046309-0.021029 0 0zm-0.10334 0.047639c-0.023444 0.024032-0.012496-0.041351 0 0zm-0.012518 0.012069-0.012268 0.00463zm-0.119 0.029162-0.014196 0.00945zm0.60938 0.044035-0.015286-3.348e-4zm-0.093928 0.00712-0.015279-3.341e-4zm-1.0321 0.045457-0.011086-0.004192zm-0.098949 0.010686-0.01139-2.283e-4zm2.4788 0.12364-0.00861 2.891e-4zm-0.013765 0.021329c0.018288 0.10242-0.07381-0.040156 0 0zm0.056385-0.00213-0.018457-2.584e-4zm0.00238 0.013533-0.0114-2.278e-4zm-1.1787 0.44915-0.010202-0.0064444zm-2.4561 3.9122 0.010262-0.016806zm-0.042902 0.023763 0.00359-0.00507zm0.00487-0.034862-0.00176-0.016799zm-0.00717-0.063432-0.00267-0.00513zm-0.00579 0.039017-0.00846-0.012657zm-0.047368-0.023239c0.00458 0.089193 0.077446 0.045755 1.5e-6 0m0.00487 0.030289 8.384e-4 -0.013446zm1.9169 3.1317c-0.097464 0.11687 0.26481-0.03072 0 0zm-1.0125-3.8983c-0.45325 0.13421-0.20646 0.52437-0.44472 0.86793 0.048132 0.72268 0.83538 1.1729 0.60539 2.0239 0.13573 0.47761 0.0065601 0.65112 0.30472 1.0803 0.15974 0.26211 0.61016 0.17378 0.23415-0.05529-0.1239-0.43053-0.068228-0.6727 0.19178-0.92987-0.081352-0.10167 0.33943-0.32696 0.30085-0.62607 0.53131-0.30145 0.77895-1.55-0.062926-1.5425-0.23839-0.46965-0.7013-0.69556-1.1293-0.81861l2.2e-6 9.01e-5zm0.026326 0.16772c-0.059889 0.11439-0.010819-0.15487 0 0zm0.11711 1.5586c0.044906 0.075179-0.07429-0.034406 0 0zm1.2106 0.45979-0.00861 3.197e-4zm-0.2336 0.46339-0.00122-0.01277zm-0.45217 0.7377-0.021576 3.21e-4zm-0.33882 0.11732c-0.021553 0.03116 0.00145-0.03599 0 0zm-0.011887 0.02555c0.00794 0.05894-0.027112-0.05476 0 0zm0.028171 0.02346-0.018549 0.0042zm0.28182 0.452c0.12218 0.05573-0.046744 0.0376 0 0zm-0.040691-6.09e-4 -0.014364 0.0051zm2.9434-5.622 0.0045-3e-3zm-1.1739 0.10391-0.00588-0.00513zm-0.013809-0.047182c-0.052957-0.022975 0.053213-0.010805 0 0zm-0.067527-0.055728-0.00532-0.010643zm-0.030351 0.00513-0.018351-0.011143zm-0.00357-0.028405-4.692e-4 -0.00513zm-0.017025 0.038541c-0.044272-0.011256 0.033655-0.00225 0 1.3e-6m-0.016055-0.00813-0.00476-0.00719zm-0.10631-0.051117 0.00214-0.00822zm2.407 0.22654c0.049916 0.12376 0.22279-0.029457 0 0zm-0.63947-0.44419c-0.12299 0.22117 0.071751 0.37001 0 0zm-0.69076-0.73494c-0.42298 0.3785 0.3811 0.10164 0 0zm0.20539-0.2239c-0.23324 0.070615-0.036783 0.47325-0.042933 0.52067 0.35853-0.028731 0.054139-0.32994 0.042933-0.52067zm-0.11962 0.097413-0.00861-2.891e-4zm-0.01439-0.27221c-0.019077 0.10709 0.071346-0.00769 0 0zm-0.53924-0.22105c-0.14001 0.36544 0.64926-0.10374 0.075822 0.030057l-0.040787-0.00576-0.035044-0.024282zm1.7092-0.24519c-0.27049 0.03871-0.72164 0.36711-0.65653 0.64192 0.25249 0.043797 0.23874 0.18778 0.057274 0.15236-0.028455 0.3615-0.62652 0.38998-0.5247 0.70216-0.5875 0.17957 0.041038 0.85549 0.22 0.23778 0.19241-0.46232 0.76 0.12837 0.59063 0.19251 0.42437-0.074683-0.36358-0.6492 0.087172-0.33836 0.14438 0.2798 0.37772 0.56346 0.33577 0.15131 0.25401 0.019233 0.18506-0.54268 0.51407-0.23703 0.27163 0.012588 0.66684 0.4494 0.51482-0.15091 0.008735-0.38917 0.74695-0.1478 0.2321-0.51759 0.014929-0.34398 0.017963-1.0289-0.2536-0.71372-0.20619-0.030602-1.0489 0.32542-0.54256 0.11931-0.13107-0.19919-0.38726-0.16971-0.57444-0.23974zm0.028136 0.013489-0.0086-3.197e-4zm0.068928-0.00425-0.021429 0.00357zm-0.28809 0.068252-0.01862-0.00407zm-0.062655 0.014203-0.012088 0.00363zm-0.066345 0.046925-0.00755-3.341e-4zm0.049472-0.00641-0.015285-3.341e-4zm0.27931 0.15564c-0.42275 0.36221 0.47931 0.29216-0.056873 0.38946 0.21612 0.21894-0.73532 0.38886-0.17547 0.036639-0.016411-0.18133 0.034431-0.42458 0.23235-0.4261zm-0.48787 0.068252c-0.035701 0.12666-0.059983-0.016461 0 0zm-0.11464 0.080989-0.0114-2.277e-4zm0.1334 0.44349c-0.023225 0.033304-0.026979-0.042946 0 0zm0.37707 0.00144c-0.025834 0.00927 0.025596-0.032241 0 0zm-0.40838 0.012069c0.016286 0.057343-0.063142-0.029263 0 0zm-0.21606 0.12796-0.01023 0.00501zm1.3935 0.34113c-0.081207 0.20736-0.23882-0.028418 0 0zm-0.7077 0.52167c-0.00526 0.074726-0.049966-0.052975 0 0zm0.119-0.016342-0.013283 0.00257zm-0.039474 0.025559-0.0114-2.29e-4zm0.01252 0.025602-0.00131-0.01277zm1.1862-2.2068c-0.36362-0.1547-0.43571 0.58684-0.14442 0.14625 0.04578-0.020409 0.07076-0.16094 0.14442-0.14625zm-0.32191 0.15565-0.0114-2.277e-4zm-1.2257-0.29712c-0.53751 0.12378 0.38883 0.15986 0.22151 0.00634l-0.11797-0.011427-0.10354 0.005068zm0.055115 0.035532c-0.027104 0.032041-0.027198-0.043478 0 0zm-0.12398 0.047639-0.023-0.00626zm-0.043859 0.017763-0.012032 2.69e-5zm1.0472-0.13219c-0.32352 0.011124 0.23018 0.075337 0 0zm0.21543-0.032009c-0.37987 0.11509 0.42551 0.051205 0 0zm0.074541 0.036283-0.041194 0.011669zm-0.15968 0.00993-0.012294 0.00463zm-8.3207 5.26 0.00603-0.00857-0.00603 0.00857zm-0.031312-0.055184 0.0045-0.00357zm-0.020082 0.030376-0.00312-0.00513zm-0.00671-0.029963c0.025068-0.00369-0.023429-0.021023 3e-6 3.2e-6m14.339-0.86629 4.4e-5 -1.06e-5m-0.23154-0.092332-0.0044-0.010593zm-0.64139-0.50638 8.76e-4 -0.010142zm-0.0036 0.011137-0.0014-0.010643zm-0.02459-0.1911 0.0014-0.00513zm-0.0054 0.29303 0.0076-0.02233zm-0.0044-0.33409-0.0014-0.00557zm1.8879 2.2716-5e-3 0.00795zm-0.08761 0.1758-0.0014-0.00557zm-0.0075-0.011612c0.02518-0.015648-0.03096-0.01135 6e-6 0m0.05179-0.48208-5.35e-4 -0.00563zm0.21484 0.043121-0.02722-0.010686zm-0.04863-0.033436c-0.02682 0.021279 0.05732 0.00194 5e-6 -3.8e-6m0.07808 0.052631 0.0063-0.0071zm-0.34303-0.00307-0.0049-0.0015zm-0.66295 1.823 0.0049-0.0051zm-0.0053-0.01835c0.03938 0.01158 0.0031-0.045 5e-6 -4.5e-5m-0.04962-0.48149-0.0039 0.01706zm-0.03172 0.04211-8e-3 0.0036zm-0.17419 0.27371c0.41355-0.06174 0.1238-0.65773 0.04111-0.09855l-0.01707 0.07491-0.02411 0.02359m-0.01462-0.03493-0.01256 0.01266zm-0.5307 0.31989c0.26798 0.11826 0.77405-0.57536 0.23574-0.15459-0.0743 0.06006-0.16185 0.09661-0.23571 0.1546m0.0263 0.05326c-0.08037-6.89e-4 -0.0044 0.0425 0 1e-6m-0.22965 0.21795-0.02455 0.01626 0.02455-0.01626m-0.02097 0.01932-0.0044 1e-3zm-0.48171-0.55842c-0.13402 0.36823 0.33996-0.09938 0 0zm0.37951-1.8379c0.02429 0.43821-0.3735 0.41787-0.32391 0.051937-0.42563 0.015467-0.68825 0.45398-1.124 0.69415-0.07825 0.38412-0.15242 1.0021 0.35666 0.62616 0.54084-0.43334 0.68684 0.85495 1.1607 0.11773 0.57852-0.5011 0.05608-0.93425-0.06941-1.49zm-1.4793 0.9545c-0.0063 0.038091-0.01441-0.038942 0 0zm1.1899 0.72496c-0.02845 0.0364 0.0092-0.03565 0 0zm2.0078-1.315 0.0039-0.00557zm-0.06927 0.08061 0.0039-0.00507zm-0.01964-0.031928-0.0027-0.010593zm0.05498-0.11853c-0.14604 0.015385-0.0051 0.074067-6e-6 -3.2e-6m-0.07679 0.096284 0.0049-4e-3zm-0.05139-0.055265 9e-3 -0.00871zm0.0014 0.14086 0.01213-0.00723-0.01212 0.00716m-0.01256-0.034399 5.37e-4 -0.00513zm-0.0036-0.08656 0.0045-0.00463zm0.0027 0.059745c0.12955 0.05927-0.0047-0.13168 7.7e-5 -4.63e-5m-2.0091-1.0492c0.1076 0.25538 0.39839 0.64931 0.64086 0.49372 0.5472 0.32522-0.3175-0.6924-0.5156-0.38339-0.0044-0.064043-0.04734-0.16471-0.12527-0.11032zm1.622 1.1768 0.0039-0.00507zm-0.01024-0.035863v-0.020785zm8.76e-4 -0.040137c0.01829-0.05295-0.03428-0.00213 9e-6 -3.8e-6m-0.01156-0.21942 0.0026-0.026347zm-0.0029 0.036495 0.0029-0.031415zm-0.0048 0.031471 8.76e-4 -0.00507zm8e-3 0.020278-0.013-0.01312zm-0.0098-0.02945c0.03374-0.010468-0.0336-0.019846 4e-6 0m-0.0049-0.053207 0.0056-0.012463-0.0056 0.012457m-0.0032-0.093845 0.0027-0.014672zm-0.0031 0.2211 0.0045-0.00319zm0.0023-0.19826-0.0016-0.00867zm0.0031 0.21347c0.037-0.032979-0.03342-0.00723-5e-6 1.9e-6m-0.03256-0.12611h1.7e-5m0.0053 0.051105c0.04988-0.021786-0.04556-0.065569 3e-6 -2.5e-6m-0.01119-0.20785 0.0014-0.00507zm0.0085 0.11807c-0.01955-0.056873-0.04064 0.095268-5.8e-5 -1.2e-6m4e-3 -0.22864-4.03e-4 -0.00557zm-0.02632-0.030458 9e-3 -0.011099-9e-3 0.011081m-0.19746-0.065342-0.0064-0.023244 0.0064 0.023237m0.0071 0.058294c0.08033 0.017888-0.07623-0.066954-5e-6 -5e-6m-0.03614-0.0977c0.07151 0.10196-0.04798-0.1643-7e-6 4.3e-6m-0.02946 0.00307 0.0081-0.00457zm0.0014-0.00413-0.0049-0.00805zm-0.02773 0.14853 0.02171 0.015773-0.02171-0.015786m0.0032-0.1841-0.0014-0.01018zm0.0084 0.077597c0.12407 0.040687-0.06736-0.086475 0 4.69e-5m-0.03884-0.043121 0.0036-0.00601zm0.0053-0.06079c0.11001 0.090749-0.09991-0.12061 1e-6 7.5e-6m-0.02503-0.027955-0.0094-0.00357zm-0.0049-0.00601-0.0045-0.0025zm-0.01699 0.078101-4.01e-4 -0.00563zm-0.0089-4e-3 0.0044-0.015254zm-0.0068-0.079104v-0.00513zm-0.0062-0.00113-0.0045-0.0025zm-0.0049 0.081656-0.0044-2e-3zm0.0094-0.013658c0.01-0.056423-0.05486-0.021986 1.5e-5 5.7e-6m-0.02006 0.00962 8.76e-4 -0.019233zm-8e-3 -0.035451-0.0021-0.017944zm-0.0099-0.062886c0.09084 0.075825-0.06246-0.099537 0 0zm-0.01651 0.066329-0.0018-0.015623zm0.0063-0.015623-0.0019-0.021949 0.0019 0.021949m-0.42216-0.35989 8.76e-4 -0.00307zm-0.03887 0.011619c0.03003-0.051405 0.05742 0.010286 0-4.3e-6m0.43604 0.28948v-0.010136zm-0.01565 0.00866-1.1e-5 4.13e-5m-0.03267-0.055441c0.09664 0.12014-0.03571-0.1306 1.1e-5 -3.8e-6m-0.01465-0.046575v-0.025809zm-0.01561-0.052713-5.35e-4 -0.00563zm-0.07159-0.082627-0.0027-0.010643zm-0.01424 0.3656-0.0107-0.012695zm-0.01299-0.3798-0.0022-0.00507zm-0.0044-0.00913-4.03e-4 -0.00563zm0.03124 0.061378c-0.21691-0.32342-0.43426-0.53298-3.8e-5 1e-5m-0.0875-0.053169 9e-3 -0.00257zm-4e-3 0.3563 0.0014-0.025283-0.0014 0.025283m-0.031833-0.38524c0.0121 0.038604 0.03764-0.036539-5e-6 -2.44e-5m-0.01159-0.055234-0.0086-0.012526zm-0.01565 0.19005-0.0044-0.0015zm-0.03618 0.075037c0.28303-0.058832 0.12384-0.11962-7e-6 3.75e-5m-0.0344-0.029406-8.76e-4 -0.00557zm-0.0085-0.19013 0.0023-0.00513zm0.0014 0.21347-0.0049-0.021373zm-0.03932-0.024382-0.0022-0.015335zm-0.05354-0.042108 0.0027-0.014159zm0.55348 0.88824 0.0035-0.01073zm0.34484 0.14086c0.03336-0.00696-0.02332-0.034356 4e-5 7e-7m-0.02282-0.028875c0.018-0.063873-0.03247-0.010899 2e-6 0m-0.01434 0.09075 0.0031-0.00507zm-0.02009-0.11907 0.0081-0.015754zm-0.09965-0.00156c0.14571 0.331 0.06991-0.080903 1.8e-5 6e-7m-1.9691-2.4997 0.0026-0.00813zm0.67809 0.79129 0.0035-0.020785zm1.1597-2.6939 0.0094 0.00662zm-0.0081 0.014703-0.0063-0.019083 0.0064 0.019083m0.19787-0.055228-3e-3 -0.00867 3e-3 0.00867m-0.05401 0.016756-0.0039-0.00706 0.0039 0.00707m-0.02674 0.013108c0.0635-0.011262-0.07778-0.00382 0 0zm-0.04911-0.00653-0.0091 0.00206 0.0091-0.00206m-0.06805 0.031884c0.04222-0.012175-0.02638-0.028387 2e-5 -6e-7m-0.03167-4e-3 0.01241-0.011156-0.01241 0.011156m-0.02012-0.31482-0.0089-0.00357zm0.01204 0.31834-0.01818-0.020234 0.01814 0.020234m-0.11348-0.016288-9e-3 -0.00863zm-0.01839 0.014703 0.02895 0.012857-0.02895-0.012857m-0.02855-0.016255-0.0045-2e-3zm8.76e-4 0.00766-9e-3 -0.00313zm-0.04652-0.00313 0.0014-0.012432-0.0014 0.012438m-0.17512-0.030921-0.01377-3e-3zm-0.04947-0.023294c0.04692-0.012845-0.06609-0.013646 2e-6 0m-1.0972 1.4579-0.01303 0.02228 0.01304-0.02228m-0.01791 0.019821 0.0045 4e-3zm-8e-3 0.017725 0.0063 0.010643zm-0.0099 0.029407h-9e-6m-0.02189 0.081579 0.0131-0.046325-0.0131 0.046331m-0.04696-0.01877 0.0033 0.00513zm-0.04771 0.092302 8e-3 0.0071zm-0.05104 0.026347 0.0077-4.254e-4 -0.0077 4.254e-4m-0.01337 0.00206 0.0024 0.0083-0.0024-0.0083m1.1494-2.3816 0.01481-2e-3zm-1.3102 2.4354c0.09988 0.2708 0.0506-0.30444-4.5e-5 0m-0.49492 0.25596c0.08179 0.20572 0.13139-0.18684-8e-6 -4.13e-5m-0.73502 0.30979-0.01281-0.052606 0.01717 0.063255m-0.03323-0.135 2.81e-4 0.013152m1.7239 1.5141c-0.22588 0.03027-0.2067 0.20638 0 0zm0.09769-0.33828c-0.16221 0.10169 0.37049 0.013183 0 0zm-0.1938-0.25451c-0.40211-0.061003-0.24858 0.63018-0.082119 0.31429-0.043972-0.1745-0.12914-0.24506 0.082119-0.31429zm0.15285-0.038385c-0.046 0.40261 0.11242-0.045824 0 0zm-2.6367-0.11865 0.02565 0.083759zm0.03131 0.093097-0.01201-2.56e-5zm1.049-0.19901c0.13417 0.70729 1.0622 1.0602 1.3373 0.84997-0.47672 0.027955-0.86941-0.10041-0.9351-0.54958-0.14748-0.078472-0.23365-0.2659-0.40217-0.30039zm1.0804 0.87135-0.01862-0.00419zm-0.048265-0.97937c-0.2511 0.22174-0.60294 0.65534-0.03509 0.69297 0.08176-0.22222 0.2179-0.55742 0.03509-0.69297zm-1.7778-0.14641c-0.11141 0.35276 0.29215 0.22851 0 0zm1.8726-0.079606c-0.22558 0.28653-0.16399 0.38674 0 0zm0.11648-0.050448c0.0021 0.25969 0.25334 0.086458 0 0zm0.09832 0.066116-0.0014-0.012707zm-0.0044 0.051874-0.01047-0.018501zm0.01059-0.00213-0.0013-0.012764zm-0.02504 0.014209-0.0014-0.012782zm0.03319-0.16416c0.07886 0.17403-0.15979 0.4691 0.11603 0.31956 0.0078-0.067203-0.05509-0.34297-0.11603-0.31956zm-0.2172-0.37586c-0.03554 0.46699 0.40696 0.52899 0 0zm-4.1266-1.0498c-0.24685 3.341e-4 0.062217 0.10391 0 0zm4.6383-0.35534c0.15641 0.36323-0.4407 0.34415-0.20257 0.59373 0.14467-0.21752 0.61757-0.191 0.20257-0.59373zm0.0313 0.020616-0.01858 0.00407zm-0.1146 0.3987c-0.01844 0.055209-0.05167-0.051042 0 0zm-0.04575 0.021329c-0.05517 0.051562-0.0063-0.040668 0 0zm-0.05446 0.012069-0.0014-0.012707zm0.01813 0.00357c-0.06692 0.10031-0.05595-0.054358 0 0zm0.07144-0.69722c-0.02012 0.44949 0.52798 0.022962 0 0zm-1.3902-1.6113c0.1371 0.14365 0.21593-0.02935 0 0zm-1.3753-0.15632c-0.29389 0.09085-0.5482 0.26736-0.70925 0.28187 0.26992 0.67735-0.16871-0.45198-0.18657 0.14322-0.37889 0.2958 0.18034 0.92827 0.01009 0.99638-0.66305-0.19735 0.3193 1.3387-0.28367 0.64144-0.36698-0.39501-0.44098 0.075687-0.91017-0.033705-0.28821 0.44084 0.65549 0.066957 0.30063 0.63028 0.24237 0.29042 0.41351 1.5181 0.96755 0.87608 0.42928-0.11508 0.19984-0.74846-0.11808-0.50439-0.4762-0.64971 0.41426 0.15827 0.70174-0.017131 0.45037 0.060408 0.27331 1.0638 0.69679 0.88672-0.03213-0.51259 0.51804-0.99691 0.72196-0.35241 0.1843 0.16505 0.27165 1.0609 0.43206 0.84723-0.19382-0.26606-0.34144-0.87228 0.08029-0.42417 0.38197-0.25312-0.32787-0.76892 0.27349-0.78464 0.63784-0.22062-0.01668-0.92141 0.05075-1.0845 0.17714-0.092311 0.57363 0.64208 0.36471 0.039893-0.04632-0.25256 0.24527-0.33466 0.21227-0.65235 0.38311 0.53569-0.01016-0.36081-0.25596-0.22311-0.47416-0.19895 0.32541-0.40275 0.51394-0.41427-0.01619-0.00213 0.19202 0.8376 0.35289 0.40082-0.10394-0.26102-0.29901-0.36302 0.095-0.39737 0.05733-0.23881 0.040543-0.32761 0.31984-0.18684-0.46951-0.43644-1.1438-0.18095-1.6972-0.37879-0.52912 0.012689-1.0256-0.12063-1.5414-0.10927 0.07204-0.23657-0.2298-0.1017-0.39171-0.18091zm0.48606 0.17124-0.03055 6.883e-4zm-0.98583 0.27079c0.01521 0.060527-0.12766-0.10235 0 0zm3.9074 0.098795-0.0098-0.00488zm-0.11896 0.12083c-0.0378 0.03719-0.01638-0.037984 0 0zm-2.1782 0.51669c0.07584 0.17653-0.2009 0.26519 0 0zm-1.2044 0.51312c-0.02727 0.13042-0.08532 0.00476 0 0zm0.03692-0.00138-0.01528-3.497e-4zm0.08584 0.00926-0.0208-0.00619zm0.03755-6.882e-4 -0.0247-7.508e-4zm-0.75341 0.012069-0.0114-2.278e-4zm-0.04826 0.031302c0.12041 0.061297-0.08621 0.19996 0 0zm-0.02189 0.035532c0.0064 0.073559-0.03937-0.054283 0 0zm-0.01879 0.055434-0.01482-0.046625zm-0.17161 0.15917c0.1324 0.13408-0.12794-0.00884 0 0zm-0.77722 0.81236c-0.014259 0.039073-0.00631-0.038035 0 0zm2.4112 0.53659-0.0086 3.191e-4zm-2.0329 0.19759-0.01078 4.26e-4zm2.938 0.34185-0.0068 0.00895zm0.13151 0.064696c0.01544 0.052462-0.04015-0.058356 0 0zm-2.1294-4.0995c-0.04736 0.19504 0.40885 0.029582 0.08853 0.011775zm-0.28954 4.9741-0.0068-0.00959zm-0.43689 0.27837-0.0049-5.324e-4zm-0.0067 0.00646 0.0089-0.00438zm0.10319 0.211 0.0018-0.00563zm-0.01293 0.029782-0.0031-0.012063zm0.25723-1.5674c0.11578-0.00569-0.06229-0.047701-2e-6 -6.8e-6m-0.06609 0.010136-0.0089-0.00307zm-3.5367-0.2707 8.759e-4 -0.01571zm0.0045 0.03699-0.0045-0.015711zm-0.036182 0.065946-0.00808-0.025346zm-0.03393-0.096366c0.045155 0.00438-0.022493-0.029012-3.1e-6 3.7e-6m-0.00709 0.10189 0.00282-0.012782zm-0.036702-0.1283 0.01277-0.013489zm0.56563-0.72639 0.011231-0.016086-0.011237 0.016086m-0.027761 0.048145c-0.011268-0.086709 0.059545-0.015848-5e-6 -7e-7m-0.058438 0.019227c-0.036877-0.04431 0.039061-0.016311 0 0zm-0.049234-0.015166c-0.046168-0.059801 0.10808-0.032698 0 0zm-0.025509-0.0015 0.00219-0.011149zm-0.023187-0.031966-0.00544-0.014034 0.00544 0.014034m-0.01252 0.054252 0.00532-0.010643zm0.067002-0.30468c-0.038748-0.00494 0.024633-0.022768-6e-7 0m2.8411 2.7425-0.01333-0.012151zm-0.03127 6.081e-4 -0.01026-0.0078zm-0.01779-0.027398-0.0061-0.033849 0.0061 0.033849m0.5489 0.55201c-0.05989-0.019921 0.01859 0.059695 0 0zm-0.4717-0.48769v-0.017262zm0.18822-0.015592c-0.33534 0.12489-0.37375 1.21-0.03712 0.54385 0.0381-0.15247 0.16931-0.44793 0.03712-0.54385zm-1.899-3.0369c-0.64546-0.054146-1.1944 0.51526-1.2183 1.2532-0.10919 0.74445 0.69372 0.76586 1.1212 0.7318 0.33211 0.54078 0.24763 1.2258 0.33173 1.8538 0.039567 0.65589 0.62486 0.73631 0.87008 0.1456 0.17763-0.5045 0.45833-0.89395 0.38495-1.5161 0.2393-0.22348 0.82776-1.0083 0.16302-0.87076-0.38236-0.39101-0.48685-1.6734-1.1888-1.1775-0.28481-0.10134-0.35454-0.24733-0.46383-0.41992zm1.195 2.2949c-0.018113 0.34984-0.24849-0.064469 0 0zm-0.21668 0.27292c0.1377 0.30895-0.010374 0.24349 0 0zm0.22544 0.32555c0.073954 0.22931-0.018701 0.38342 0 0z" clip-path="url(#clipPath3854)" fill="url(#radialGradient3990)"/>
  <path id="path3952" d="m11-2c-4.4183 0-8 2.9163-8 6.5312 0 2.3027 1.4592 4.3333 3.6562 5.5-0.08355 0.60818-0.4801 2.1159-2.2812 2.625 2.3328 0.25353 3.8963-0.89153 4.7188-1.75 0.61176 0.12255 1.2483 0.1875 1.9062 0.1875 4.4183 0 8-2.9475 8-6.5625s-3.5817-6.5312-8-6.5312zm0.15625 1.9375c-7.4375 10.708-3.7188 5.3542 0 0z" fill="url(#linearGradient3954)"/>
 </g>
</svg>
