<?xml version="1.0" encoding="UTF-8"?>
<svg id="svg2" width="16" height="16" version="1.1" xmlns="http://www.w3.org/2000/svg" xmlns:cc="http://creativecommons.org/ns#" xmlns:dc="http://purl.org/dc/elements/1.1/" xmlns:rdf="http://www.w3.org/1999/02/22-rdf-syntax-ns#">
 <metadata id="metadata31">
  <rdf:RDF>
   <cc:Work rdf:about="">
    <dc:format>image/svg+xml</dc:format>
    <dc:type rdf:resource="http://purl.org/dc/dcmitype/StillImage"/>
   </cc:Work>
  </rdf:RDF>
 </metadata>
 <defs id="defs4">
  <linearGradient id="linearGradient3204" x1="1" x2="15" y1="9" y2="9" gradientTransform="translate(-17,-2)" gradientUnits="userSpaceOnUse">
   <stop id="stop3189" stop-color="#dcdcdc" offset="0"/>
   <stop id="stop3191" stop-color="#f0f0f0" offset="1"/>
  </linearGradient>
  <linearGradient id="linearGradient3629" x2="29.017" y1="8" y2="8" gradientTransform="matrix(0,-1,1,0,0,16)" gradientUnits="userSpaceOnUse">
   <stop id="stop3330" offset="0"/>
   <stop id="stop3333" stop-opacity="0" offset="1"/>
  </linearGradient>
 </defs>
 <g id="layer1">
  <rect id="rect3196" transform="rotate(-90)" x="-16" width="16" height="16" rx="2" ry="2" fill="url(#linearGradient3204)"/>
  <path id="rect2835" d="m0 14c0 1.108 0.892 2 2 2h12c1.108 0 2-0.892 2-2v-12c0-1.108-0.892-2-2-2h-12c-1.108 0-2 0.892-2 2v12zm0.96875 0v-12c0-0.5832 0.44805-1.0312 1.0312-1.0312h12c0.5832 0 1.0312 0.44805 1.0312 1.0312v12c0 0.5832-0.44805 1.0312-1.0312 1.0312h-12c-0.5832 0-1.0312-0.44805-1.0312-1.0312z" fill="url(#linearGradient3629)" opacity=".4"/>
  <path id="path2843" d="m2 0.96875c-0.5832 0-1.0312 0.44805-1.0312 1.0312v1c0-0.5832 0.44805-1.0312 1.0312-1.0312h12c0.5832 0 1.0312 0.44805 1.0312 1.0312v-1c0-0.5832-0.44805-1.0312-1.0312-1.0312h-12z" fill="#fff" opacity=".35"/>
 </g>
 <defs id="defs21">
  <linearGradient id="a" x1="8" x2="8" y1="1.9999" y2="14" gradientTransform="matrix(.85714 0 0 .85714 1 1)" gradientUnits="userSpaceOnUse">
   <stop id="stop16" stop-color="#ffd600" offset="0"/>
   <stop id="stop18" stop-color="#ff2600" offset="1"/>
  </linearGradient>
 </defs>
 <path id="path23" d="m7.8671 3.5714c-1.3701-0.0024818-2.7399 0.065762-3 0.20759-0.52019 0.28365-3.0089 4.356-3.01 4.9252-0.00115 0.56919 2.4709 4.648 2.99 4.9336 0.51904 0.28554 5.4798 0.29537 6 0.01172 0.52019-0.28366 3.0089-4.356 3.01-4.9252 0.001114-0.56919-2.4709-4.648-2.99-4.9336-0.25952-0.14277-1.6299-0.21682-3-0.21931zm-0.00167 1.2204c0.66149 0.0012 1.3259 0.019892 1.8281 0.053571 0.21148 0.014182 0.36968 0.032108 0.50055 0.048549 0.03196 0.039787 0.0802 0.10594 0.11719 0.15402l-2.4542 2.4542-2.4492-2.4492c0.041477-0.053122 0.093874-0.12416 0.12891-0.16741 0.13085-0.01595 0.28906-0.033481 0.50055-0.046875 0.50215-0.031802 1.1666-0.048074 1.8281-0.046875zm3.4135 1.7126c0.05731 0.092451 0.10739 0.16094 0.16407 0.25447 0.32968 0.54408 0.64347 1.1008 0.86382 1.5302 0.09262 0.18044 0.15717 0.31796 0.20759 0.43359-0.05089 0.11552-0.1156 0.2546-0.20926 0.43526-0.22211 0.42847-0.53864 0.98057-0.87051 1.5234-0.05421 0.08866-0.10262 0.15326-0.15736 0.24107l-2.2082-2.2082 2.2098-2.2098zm-6.842 0.0016714 2.2082 2.2082-2.2098 2.2098c-0.057306-0.092451-0.10739-0.16094-0.16407-0.25447-0.32968-0.54408-0.64347-1.1008-0.86383-1.5302-0.092623-0.18044-0.15717-0.31796-0.20759-0.43359 0.050885-0.11552 0.1156-0.2546 0.20926-0.43526 0.22211-0.42847 0.53864-0.98057 0.87051-1.5234 0.054209-0.088663 0.10262-0.15327 0.15736-0.24107zm3.4202 3.4202 2.4492 2.4492c-0.04148 0.05312-0.09387 0.12416-0.1289 0.16741-0.13089 0.01594-0.28901 0.03349-0.50055 0.04688-0.50227 0.03177-1.1666 0.0481-1.8281 0.04688-0.66158-0.0012-1.326-0.01994-1.8281-0.05357-0.21144-0.01416-0.36973-0.03213-0.50055-0.04855-0.031965-0.03979-0.080207-0.10594-0.11719-0.15402l2.4542-2.4542z" fill="#fff" stroke-width=".85714"/>
 <path id="path832" d="m7.8671 2.0712c-1.3701-0.0024818-2.7399 0.065762-3 0.20759-0.52019 0.28365-3.0089 4.356-3.01 4.9252-0.00115 0.56919 2.4709 4.648 2.99 4.9336 0.51904 0.28554 5.4798 0.29537 6 0.01172 0.52019-0.28366 3.0089-4.356 3.01-4.9252 0.001114-0.56919-2.4709-4.648-2.99-4.9336-0.25952-0.14277-1.6299-0.21682-3-0.21931zm-0.00167 1.2204c0.66149 0.0012 1.3259 0.019892 1.8281 0.053571 0.21148 0.014182 0.36968 0.032108 0.50055 0.048549 0.03196 0.039787 0.0802 0.10594 0.11719 0.15402l-2.4542 2.4542-2.4492-2.4492c0.041477-0.053122 0.093874-0.12416 0.12891-0.16741 0.13085-0.01595 0.28906-0.033481 0.50055-0.046875 0.50215-0.031802 1.1666-0.048074 1.8281-0.046875zm3.4135 1.7126c0.05731 0.092451 0.10739 0.16094 0.16407 0.25447 0.32968 0.54408 0.64347 1.1008 0.86382 1.5302 0.09262 0.18044 0.15717 0.31796 0.20759 0.43359-0.05089 0.11552-0.1156 0.2546-0.20926 0.43526-0.22211 0.42847-0.53864 0.98057-0.87051 1.5234-0.05421 0.08866-0.10262 0.15326-0.15736 0.24107l-2.2082-2.2082 2.2098-2.2098zm-6.842 0.00167 2.2082 2.2082-2.2098 2.2098c-0.057306-0.09245-0.10739-0.16094-0.16407-0.25447-0.32968-0.54408-0.64347-1.1008-0.86383-1.5302-0.092623-0.18044-0.15717-0.31796-0.20759-0.43359 0.050885-0.11552 0.1156-0.2546 0.20926-0.43526 0.22211-0.42847 0.53864-0.98057 0.87051-1.5234 0.054209-0.088663 0.10262-0.15327 0.15736-0.24107zm3.4202 3.4202 2.4492 2.4492c-0.04148 0.05312-0.09387 0.12416-0.1289 0.16741-0.13089 0.01594-0.28901 0.03349-0.50055 0.04688-0.50227 0.03177-1.1666 0.0481-1.8281 0.04688-0.66158-0.0012-1.326-0.01994-1.8281-0.05357-0.21144-0.01416-0.36973-0.03213-0.50055-0.04855-0.031965-0.03979-0.080207-0.10594-0.11719-0.15402l2.4542-2.4542z" opacity=".3" stroke-width=".85714"/>
 <path id="base" d="m7.8671 2.7143c-1.3701-0.0024818-2.7399 0.065762-3 0.20759-0.52019 0.28365-3.0089 4.356-3.01 4.9252-0.00115 0.56919 2.4709 4.648 2.99 4.9336 0.51904 0.28554 5.4798 0.29537 6 0.01172 0.52019-0.28366 3.0089-4.356 3.01-4.9252 0.001114-0.56919-2.4709-4.648-2.99-4.9336-0.25952-0.14277-1.6299-0.21682-3-0.21931zm-0.00167 1.2204c0.66149 0.0012 1.3259 0.019892 1.8281 0.053571 0.21148 0.014182 0.36968 0.032108 0.50055 0.048549 0.03196 0.039787 0.0802 0.10594 0.11719 0.15402l-2.4542 2.4542-2.4492-2.4492c0.041477-0.053122 0.093874-0.12416 0.12891-0.16741 0.13085-0.01595 0.28906-0.033481 0.50055-0.046875 0.50215-0.031802 1.1666-0.048074 1.8281-0.046875zm3.4135 1.7126c0.05731 0.092451 0.10739 0.16094 0.16406 0.25447 0.32968 0.54408 0.64347 1.1008 0.86382 1.5302 0.09262 0.18044 0.15717 0.31796 0.20759 0.43359-0.05089 0.11552-0.1156 0.2546-0.20926 0.43526-0.22211 0.42847-0.53864 0.98057-0.87051 1.5234-0.054206 0.088663-0.10262 0.15327-0.15736 0.24107l-2.2082-2.2082 2.2098-2.2098zm-6.842 0.0016714 2.2082 2.2082-2.2098 2.2098c-0.057306-0.092451-0.10739-0.16094-0.16407-0.25447-0.32968-0.54408-0.64347-1.1008-0.86383-1.5302-0.092623-0.18044-0.15717-0.31796-0.20759-0.43359 0.050885-0.11552 0.1156-0.2546 0.20926-0.43526 0.22211-0.42847 0.53864-0.98057 0.87051-1.5234 0.054209-0.088663 0.10262-0.15327 0.15736-0.24107zm3.4202 3.4202 2.4492 2.4492c-0.04148 0.05312-0.09387 0.12416-0.1289 0.16741-0.13089 0.01594-0.28901 0.03349-0.50055 0.04688-0.50227 0.03177-1.1666 0.0481-1.8281 0.04688-0.66158-0.0012-1.326-0.01994-1.8281-0.05357-0.21144-0.01416-0.36973-0.03213-0.50055-0.04855-0.031965-0.03979-0.080207-0.10594-0.11719-0.15402l2.4542-2.4542z" fill="url(#a)" stroke-width=".85714"/>
</svg>
