<?xml version="1.0" encoding="UTF-8"?>
<svg id="svg2" width="16" height="16" version="1.1" xmlns="http://www.w3.org/2000/svg" xmlns:cc="http://creativecommons.org/ns#" xmlns:dc="http://purl.org/dc/elements/1.1/" xmlns:rdf="http://www.w3.org/1999/02/22-rdf-syntax-ns#">
 <metadata id="metadata31">
  <rdf:RDF>
   <cc:Work rdf:about="">
    <dc:format>image/svg+xml</dc:format>
    <dc:type rdf:resource="http://purl.org/dc/dcmitype/StillImage"/>
   </cc:Work>
  </rdf:RDF>
 </metadata>
 <defs id="defs4">
  <linearGradient id="linearGradient3204" x1="1" x2="15" y1="9" y2="9" gradientTransform="translate(-17,-2)" gradientUnits="userSpaceOnUse">
   <stop id="stop3189" stop-color="#E01818" offset="0"/>
   <stop id="stop3191" stop-color="#FF7F7F" offset="1"/>
  </linearGradient>
  <linearGradient id="linearGradient3629" x2="29.017" y1="8" y2="8" gradientTransform="matrix(0,-1,1,0,0,16)" gradientUnits="userSpaceOnUse">
   <stop id="stop3330" offset="0"/>
   <stop id="stop3333" stop-opacity="0" offset="1"/>
  </linearGradient>
 </defs>
 <g id="layer1">
  <rect id="rect3196" transform="rotate(-90)" x="-16" width="16" height="16" rx="2" ry="2" fill="url(#linearGradient3204)"/>
  <path id="rect2835" d="m0 14c0 1.108 0.892 2 2 2h12c1.108 0 2-0.892 2-2v-12c0-1.108-0.892-2-2-2h-12c-1.108 0-2 0.892-2 2v12zm0.96875 0v-12c0-0.5832 0.44805-1.0312 1.0312-1.0312h12c0.5832 0 1.0312 0.44805 1.0312 1.0312v12c0 0.5832-0.44805 1.0312-1.0312 1.0312h-12c-0.5832 0-1.0312-0.44805-1.0312-1.0312z" fill="url(#linearGradient3629)" opacity=".4"/>
  <path id="path2843" d="m2 0.96875c-0.5832 0-1.0312 0.44805-1.0312 1.0312v1c0-0.5832 0.44805-1.0312 1.0312-1.0312h12c0.5832 0 1.0312 0.44805 1.0312 1.0312v-1c0-0.5832-0.44805-1.0312-1.0312-1.0312h-12z" fill="#fff" opacity=".35"/>
 </g>
 <defs id="defs21">
  <filter id="w">
   <feGaussianBlur id="feGaussianBlur13" stdDeviation="0.26998568"/>
  </filter>
 </defs>
 <g id="main">
  <path id="path23" d="m5.5156 1.168c-0.086309 0.15511-0.066786 0.36564 0.058594 0.73242 0.2006 0.5784 0.31426 1.1257 0.39648 1.9141 0.052486 0.4852 0.05053 2.638-0.00195 3.2305-0.182 2.0928-0.63441 3.6142-1.459 4.8965-0.7219 1.1237-1.8611 2.1413-3.2344 2.8906-0.14812 0.08222-0.26758 0.1512-0.26758 0.1582l-0.0078158 0.00586c0 0.01575 0.21447-0.0076 0.70898-0.07813 1.245-0.18195 2.1773-0.52632 2.9336-1.082 0.34753-0.2531 0.93278-0.89287 1.1719-1.2754 0.35105-0.5645 0.64164-1.331 0.8125-2.1328l0.078125-0.37109 0.40234 0.57617c1.9862 2.8491 3.0605 3.8833 4.2676 4.1113 0.7173 0.13704 3.4393-0.04273 3.6172-0.23633 0.03907-0.03849-0.06251-0.1495-0.18555-0.20898-0.05656-0.02508-0.37129-0.15393-0.69727-0.2793-0.73589-0.28456-1.0475-0.42839-1.5898-0.72461-0.866-0.4711-1.3813-0.8481-2.1172-1.5449-0.5313-0.5033-1.0699-1.1832-2.0059-2.5273-0.38254-0.55338-0.5944-0.84719-0.97461-1.3574l-0.14062-0.19141 0.019531-0.94531c0.03849-1.754 0.18921-3.0095 0.50586-4.1816 0.18253-0.68108 0.19323-0.74264 0.125-0.83594-0.0595-0.08455-0.21072-0.14153-1.2656-0.49023-0.85659-0.28048-1.0227-0.28948-1.1504-0.052734zm5.1934 2.2559c-0.02508 0.03208-0.09166 0.24113-0.14648 0.4668-0.14812 0.62864-0.15368 0.64326-0.71875 1.2695-0.41 0.4554-1.0681 1.2205-1.6309 1.8945h0.00195c-0.075225 0.086304-0.077115 0.1013-0.029297 0.087891 0.8123-0.23442 1.0643-0.34475 2.3379-1.0352 1.0934-0.5942 1.3833-0.73357 1.7344-0.84961 0.38022-0.12537 0.46289-0.17352 0.46289-0.27148 0-0.05948-0.04108-0.12551-0.13672-0.23047-0.1551-0.1592-1.2708-1.1213-1.4941-1.2852-0.16386-0.11837-0.30563-0.13784-0.38086-0.046875zm-8.6445 0.77734c-0.08456 0.21692-0.030416 0.4969 0.18359 0.98438 0.4414 0.99542 1.0397 1.7512 1.5703 1.9902h0.00195c0.19827 0.089219 0.35057 0.090411 0.50977 0.00586 0.25075-0.13179 0.41009-0.50225 0.4375-1.0078 0.01808-0.3487-0.024567-0.53625-0.17969-0.80273-0.2006-0.3417-0.70768-0.75513-1.334-1.0898-0.64434-0.34404-1.0757-0.37164-1.1895-0.080078z" filter="url(#w)" opacity=".4"/>
  <path id="base" d="m5.5156 1.168c-0.086309 0.15511-0.066786 0.36564 0.058594 0.73242 0.2006 0.5784 0.31426 1.1257 0.39648 1.9141 0.052486 0.4852 0.05053 2.638-0.0019531 3.2305-0.182 2.0928-0.63441 3.6142-1.459 4.8965-0.7219 1.1237-1.8611 2.1413-3.2344 2.8906-0.14812 0.08222-0.26758 0.1512-0.26758 0.1582l-0.0078125 0.00586c0 0.01575 0.21447-0.007565 0.70898-0.078125 1.245-0.18195 2.1773-0.52632 2.9336-1.082 0.34753-0.2531 0.93278-0.89287 1.1719-1.2754 0.35105-0.5645 0.64164-1.331 0.8125-2.1328l0.078125-0.37109 0.40234 0.57617c1.9862 2.8491 3.0605 3.8833 4.2676 4.1113 0.7173 0.13704 3.4393-0.042729 3.6172-0.23633 0.03907-0.03849-0.062507-0.1495-0.18555-0.20898-0.05656-0.02508-0.37129-0.15393-0.69727-0.2793-0.73589-0.28456-1.0475-0.42839-1.5898-0.72461-0.866-0.4711-1.3813-0.8481-2.1172-1.5449-0.5313-0.5033-1.0699-1.1832-2.0059-2.5273-0.38254-0.55338-0.5944-0.84719-0.97461-1.3574l-0.14062-0.19141 0.019531-0.94531c0.03849-1.754 0.18921-3.0095 0.50586-4.1816 0.18253-0.68108 0.19323-0.74264 0.125-0.83594-0.0595-0.08455-0.21072-0.14153-1.2656-0.49023-0.85659-0.28048-1.0227-0.28948-1.1504-0.052734zm5.1934 2.2559c-0.02508 0.03208-0.091664 0.24113-0.14648 0.4668-0.14812 0.62864-0.15368 0.64326-0.71875 1.2695-0.41 0.4554-1.0681 1.2205-1.6309 1.8945h0.0019532c-0.075225 0.086304-0.077115 0.1013-0.029297 0.087891 0.8123-0.23442 1.0643-0.34475 2.3379-1.0352 1.0934-0.5942 1.3833-0.73357 1.7344-0.84961 0.38022-0.12537 0.46289-0.17352 0.46289-0.27148 0-0.05948-0.041079-0.12551-0.13672-0.23047-0.1551-0.1592-1.2708-1.1213-1.4941-1.2852-0.16386-0.11837-0.30563-0.13784-0.38086-0.046875zm-8.6445 0.77734c-0.08456 0.21692-0.030416 0.4969 0.18359 0.98438 0.4414 0.99542 1.0397 1.7512 1.5703 1.9902h0.0019531c0.19827 0.089219 0.35057 0.090411 0.50977 0.0058594 0.25075-0.13179 0.41009-0.50225 0.4375-1.0078 0.01808-0.3487-0.024568-0.53625-0.17969-0.80273-0.2006-0.3417-0.70768-0.75513-1.334-1.0898-0.64434-0.34404-1.0757-0.37164-1.1895-0.080078z" fill="#fff"/>
 </g>
</svg>
