<?xml version="1.0" encoding="UTF-8"?>
<!-- Created with Inkscape (http://www.inkscape.org/) -->
<svg id="svg2" width="16" height="16" version="1.1" xmlns="http://www.w3.org/2000/svg" xmlns:cc="http://creativecommons.org/ns#" xmlns:dc="http://purl.org/dc/elements/1.1/" xmlns:rdf="http://www.w3.org/1999/02/22-rdf-syntax-ns#" xmlns:xlink="http://www.w3.org/1999/xlink">
 <defs id="defs4">
  <linearGradient id="linearGradient3204" x1="1" x2="15" y1="9" y2="9" gradientTransform="translate(-17,-2)" gradientUnits="userSpaceOnUse">
   <stop id="stop5343" stop-color="#6a2700" offset="0"/>
   <stop id="stop5345" stop-color="#c04700" offset="1"/>
  </linearGradient>
  <linearGradient id="linearGradient3629" x2="29.017" y1="8" y2="8" gradientTransform="matrix(0,-1,1,0,0,16)" gradientUnits="userSpaceOnUse">
   <stop id="stop3330" offset="0"/>
   <stop id="stop3333" stop-opacity="0" offset="1"/>
  </linearGradient>
  <radialGradient id="radialGradient3988-1" cx="373.03" cy="505.23" r="14.664" gradientTransform="matrix(-.025528 -.0098944 .012245 -.023621 9.5474 19.554)" gradientUnits="userSpaceOnUse">
   <stop id="stop5362-9-5-8-1" stop-color="#fbffce" stop-opacity=".64" offset="0"/>
   <stop id="stop5364-4-6-0-5" stop-color="#fbffce" stop-opacity="0" offset="1"/>
  </radialGradient>
  <radialGradient id="radialGradient3991-6" cx="373.03" cy="505.23" r="14.664" gradientTransform="matrix(-.044615 -.019902 .021401 -.047511 15.226 38.583)" gradientUnits="userSpaceOnUse">
   <stop id="stop5362-9-5-2" stop-color="#fbffce" offset="0"/>
   <stop id="stop5364-4-6-03" stop-color="#fbffce" stop-opacity="0" offset="1"/>
  </radialGradient>
  <radialGradient id="radialGradient4012-8" cx="370.52" cy="503.76" r="14.664" gradientTransform="matrix(.20997 -4.9994e-7 5.0368e-7 .19851 -70.33 -95.421)" gradientUnits="userSpaceOnUse">
   <stop id="stop5362-9-2" stop-color="#fbffce" stop-opacity=".728" offset="0"/>
   <stop id="stop5364-4-20" stop-color="#ffb058" stop-opacity="0" offset="1"/>
  </radialGradient>
  <linearGradient id="linearGradient4015-2" x1="373" x2="375.8" y1="597.84" y2="477.87" gradientTransform="matrix(.038858 0 0 .039322 -6.6325 -11.881)" gradientUnits="userSpaceOnUse">
   <stop id="stop3800-64" stop-color="#ff9d60" offset="0"/>
   <stop id="stop3802-2" stop-color="#ffe1ba" offset="1"/>
  </linearGradient>
 </defs>
 <metadata id="metadata7">
  <rdf:RDF>
   <cc:Work rdf:about="">
    <dc:format>image/svg+xml</dc:format>
    <dc:type rdf:resource="http://purl.org/dc/dcmitype/StillImage"/>
    <dc:title/>
   </cc:Work>
  </rdf:RDF>
 </metadata>
 <g id="layer1">
  <rect id="rect3196" transform="rotate(-90)" x="-16" width="16" height="16" rx="2" ry="2" fill="url(#linearGradient3204)"/>
  <path id="path3891" d="m7.9697 1.6198c-1.0581 0-2.0896 0.43397-2.8379 1.1932-0.74833 0.75921-1.1803 1.58-1.1803 2.6539 0 1.0739 0.432 2.1224 1.1803 2.8816 0.634 0.64322 1.2806 1.0536 2.165 1.1637v1.0335h-1.2579v0.98059h1.2579l0.48516 2.2263h0.37656l0.52331-2.2263h1.2198v-0.98059h-1.2198v-1.0335c0.88592-0.1101 1.499-0.52047 2.133-1.1637 0.74832-0.75921 1.1743-1.8077 1.1743-2.8816 0-1.0739-0.42593-1.8947-1.1743-2.6539-0.74832-0.75921-1.7871-1.1932-2.8452-1.1932zm0 0.52862c0.79379 0 1.6211 0.31785 2.1603 0.90809 1.2315 1.348 1.1804 3.2609 0 4.6038-0.52773 0.60035-1.3665 0.90686-2.1603 0.90686-0.79209 0-1.592-0.33977-2.153-0.90686h-0.00609c-1.2096-1.369-1.2241-3.3088 8.2e-6 -4.6038 0.534-0.56491 1.3801-0.8554 2.1591-0.90809z" color="#000000" fill="#692600" style="block-progression:tb;text-indent:0;text-transform:none"/>
  <path id="rect2835" d="m0 14c0 1.108 0.892 2 2 2h12c1.108 0 2-0.892 2-2v-12c0-1.108-0.892-2-2-2h-12c-1.108 0-2 0.892-2 2v12zm0.96875 0v-12c0-0.5832 0.44805-1.0312 1.0312-1.0312h12c0.5832 0 1.0312 0.44805 1.0312 1.0312v12c0 0.5832-0.44805 1.0312-1.0312 1.0312h-12c-0.5832 0-1.0312-0.44805-1.0312-1.0312z" fill="url(#linearGradient3629)" opacity=".4"/>
  <path id="path2843" d="m2 0.96875c-0.5832 0-1.0312 0.44805-1.0312 1.0312v1c0-0.5832 0.44805-1.0312 1.0312-1.0312h12c0.5832 0 1.0312 0.44805 1.0312 1.0312v-1c0-0.5832-0.44805-1.0312-1.0312-1.0312h-12z" fill="#fff" opacity=".15"/>
  <path id="path3939" d="m7.9697 2.0776c-1.0581 0-2.0896 0.43397-2.8379 1.1932-0.74833 0.75921-1.1803 1.58-1.1803 2.6539 0 1.0739 0.432 2.1224 1.1803 2.8816 0.634 0.64322 1.2806 1.0536 2.165 1.1637v1.0335h-1.2579v0.98059h1.2579l0.48516 2.2263h0.37656l0.52331-2.2263h1.2198v-0.98059h-1.2198v-1.0335c0.88592-0.1101 1.499-0.52047 2.133-1.1637 0.74832-0.75921 1.1743-1.8077 1.1743-2.8816 0-1.0739-0.42593-1.8947-1.1743-2.6539-0.74832-0.75921-1.7871-1.1932-2.8452-1.1932zm0 0.52862c0.79379 0 1.6211 0.31785 2.1603 0.90809 1.2315 1.348 1.1804 3.2609 0 4.6038-0.52773 0.60035-1.3665 0.90686-2.1603 0.90686-0.79209 0-1.592-0.33977-2.153-0.90686h-0.00609c-1.2096-1.369-1.2241-3.3088 8.2e-6 -4.6038 0.534-0.56491 1.3801-0.8554 2.1591-0.90809z" color="#000000" fill="url(#linearGradient4015-2)" style="block-progression:tb;text-indent:0;text-transform:none"/>
  <path id="path5448" d="m7.7049 8.226c-0.19546-0.023736-0.53925-0.097553-0.69579-0.14939-0.45318-0.15006-0.93376-0.44688-1.2336-0.76191-0.22739-0.23889-0.52157-0.74286-0.648-1.1101-0.40097-1.1647-0.22665-1.7804 0.44778-2.7813 0.33216-0.49298 1.0005-0.91733 1.7253-1.0955 0.30802-0.075698 1.124-0.070565 1.423 0.00897 1.1767 0.31294 1.8998 1.0474 2.2291 2.2638 0.19372 0.71574 0.1493 0.88987-0.11218 1.6063-0.33033 0.90505-0.88289 1.5039-1.6724 1.8125-0.42643 0.16669-1.0578 0.25584-1.4632 0.20661v-8.9e-6z" fill="url(#radialGradient4012-8)"/>
  <path id="path5448-8" d="m9.7691 6.4887c0.039307 0.023464 0.10548 0.071283 0.13391 0.096886 0.082179 0.07414 0.15674 0.18102 0.19108 0.27466 0.02596 0.070952 0.04157 0.20323 0.03415 0.29123-0.023417 0.27914-0.18919 0.54842-0.42584 0.69171-0.11653 0.070593-0.29813 0.095073-0.46877 0.063245-0.07246-0.013547-0.24541-0.091926-0.30153-0.13675-0.22082-0.17635-0.30603-0.39689-0.26254-0.67995 0.025566-0.16653 0.12258-0.35672 0.24495-0.48026 0.15456-0.15609 0.32789-0.22761 0.5244-0.21671 0.10614 0.00587 0.24862 0.047295 0.33016 0.095911z" fill="url(#radialGradient3991-6)"/>
  <path id="path5448-8-3" d="m6.4253 3.5981c0.022463 0.011652 0.060363 0.035457 0.076619 0.048166 0.04702 0.036853 0.089682 0.089995 0.10933 0.13655 0.014857 0.035276 0.023792 0.10104 0.019525 0.14479-0.013402 0.13878-0.10825 0.27265-0.24366 0.34389-0.066679 0.035099-0.17059 0.047268-0.26822 0.031473-0.041462-0.0067335-0.14042-0.045699-0.17252-0.067985-0.12636-0.087677-0.17511-0.19732-0.15022-0.33804 0.014627-0.0828 0.070137-0.17735 0.14016-0.23876 0.088435-0.07761 0.18761-0.11317 0.30005-0.10774 0.060727 0.00301 0.14225 0.023505 0.18892 0.047685z" fill="url(#radialGradient3988-1)"/>
 </g>
</svg>
