<?xml version="1.0" encoding="UTF-8"?>
<svg id="svg2" width="16" height="16" version="1.1" xmlns="http://www.w3.org/2000/svg" xmlns:cc="http://creativecommons.org/ns#" xmlns:dc="http://purl.org/dc/elements/1.1/" xmlns:rdf="http://www.w3.org/1999/02/22-rdf-syntax-ns#">
 <metadata id="metadata31">
  <rdf:RDF>
   <cc:Work rdf:about="">
    <dc:format>image/svg+xml</dc:format>
    <dc:type rdf:resource="http://purl.org/dc/dcmitype/StillImage"/>
   </cc:Work>
  </rdf:RDF>
 </metadata>
 <defs id="defs4">
  <linearGradient id="linearGradient3204" x1="1" x2="15" y1="9" y2="9" gradientTransform="translate(-17,-2)" gradientUnits="userSpaceOnUse">
   <stop id="stop3189" stop-color="#1eba48" offset="0"/>
   <stop id="stop3191" stop-color="#39df64" offset="1"/>
  </linearGradient>
  <linearGradient id="linearGradient3629" x2="29.017" y1="8" y2="8" gradientTransform="matrix(0,-1,1,0,0,16)" gradientUnits="userSpaceOnUse">
   <stop id="stop3330" offset="0"/>
   <stop id="stop3333" stop-opacity="0" offset="1"/>
  </linearGradient>
 </defs>
 <g id="layer1">
  <rect id="rect3196" transform="rotate(-90)" x="-16" width="16" height="16" rx="2" ry="2" fill="url(#linearGradient3204)"/>
  <path id="rect2835" d="m0 14c0 1.108 0.892 2 2 2h12c1.108 0 2-0.892 2-2v-12c0-1.108-0.892-2-2-2h-12c-1.108 0-2 0.892-2 2v12zm0.96875 0v-12c0-0.5832 0.44805-1.0312 1.0312-1.0312h12c0.5832 0 1.0312 0.44805 1.0312 1.0312v12c0 0.5832-0.44805 1.0312-1.0312 1.0312h-12c-0.5832 0-1.0312-0.44805-1.0312-1.0312z" fill="url(#linearGradient3629)" opacity=".4"/>
  <path id="path2843" d="m2 0.96875c-0.5832 0-1.0312 0.44805-1.0312 1.0312v1c0-0.5832 0.44805-1.0312 1.0312-1.0312h12c0.5832 0 1.0312 0.44805 1.0312 1.0312v-1c0-0.5832-0.44805-1.0312-1.0312-1.0312h-12z" fill="#fff" opacity=".35"/>
 </g>
 <defs id="defs21">
  <linearGradient id="a" x1="8" x2="8" y1="2.2402" y2="13.76" gradientUnits="userSpaceOnUse">
   <stop id="stop16" stop-color="#fff" offset="0"/>
   <stop id="stop18" stop-color="#fff" offset="1"/>
  </linearGradient>
 </defs>
 <g id="main" transform="translate(1 1) scale(.85714)">
  <path id="path23" d="m8.0059 3.2402-4 2.3047-2.0059 1.1465 0.0058594 2.3105-0.0058594 4.6055 2 1.1523 2-1.1523v-2.3047l-2-1.1543v-2.3047l2.0059-1.1465 2-1.1523 2 1.1523 1.9941 1.1465v2.3047l-1.9941 1.1602-0.005859 2.2988 2 1.1523 2-1.1523v-6.916l-1.9941-1.1465z" opacity=".3"/>
  <path id="base" d="m8.0059 2.2402-4 2.3047-2.0059 1.1465 0.0058594 2.3105-0.0058594 4.6055 2 1.1523 2-1.1523v-2.3047l-2-1.1543v-2.3047l2.0059-1.1465 2-1.1523 2 1.1523 1.9941 1.1465v2.3047l-1.9941 1.1602-0.005859 2.2988 2 1.1523 2-1.1523v-6.916l-1.9941-1.1465-4-2.3047z" fill="url(#a)"/>
 </g>
</svg>
