<?xml version="1.0" encoding="UTF-8"?>
<svg id="svg2" width="16" height="16" version="1.1" xmlns="http://www.w3.org/2000/svg" xmlns:cc="http://creativecommons.org/ns#" xmlns:dc="http://purl.org/dc/elements/1.1/" xmlns:rdf="http://www.w3.org/1999/02/22-rdf-syntax-ns#">
 <metadata id="metadata31">
  <rdf:RDF>
   <cc:Work rdf:about="">
    <dc:format>image/svg+xml</dc:format>
    <dc:type rdf:resource="http://purl.org/dc/dcmitype/StillImage"/>
   </cc:Work>
  </rdf:RDF>
 </metadata>
 <defs id="defs4">
  <linearGradient id="linearGradient3204" x1="1" x2="15" y1="9" y2="9" gradientTransform="translate(-17,-2)" gradientUnits="userSpaceOnUse">
   <stop id="stop3189" stop-color="#ff3677" offset="0"/>
   <stop id="stop3191" stop-color="#ff8aac" offset="1"/>
  </linearGradient>
  <linearGradient id="linearGradient3629" x2="29.017" y1="8" y2="8" gradientTransform="matrix(0,-1,1,0,0,16)" gradientUnits="userSpaceOnUse">
   <stop id="stop3330" offset="0"/>
   <stop id="stop3333" stop-opacity="0" offset="1"/>
  </linearGradient>
 </defs>
 <g id="layer1">
  <rect id="rect3196" transform="rotate(-90)" x="-16" width="16" height="16" rx="2" ry="2" fill="url(#linearGradient3204)"/>
  <path id="rect2835" d="m0 14c0 1.108 0.892 2 2 2h12c1.108 0 2-0.892 2-2v-12c0-1.108-0.892-2-2-2h-12c-1.108 0-2 0.892-2 2v12zm0.96875 0v-12c0-0.5832 0.44805-1.0312 1.0312-1.0312h12c0.5832 0 1.0312 0.44805 1.0312 1.0312v12c0 0.5832-0.44805 1.0312-1.0312 1.0312h-12c-0.5832 0-1.0312-0.44805-1.0312-1.0312z" fill="url(#linearGradient3629)" opacity=".4"/>
  <path id="path2843" d="m2 0.96875c-0.5832 0-1.0312 0.44805-1.0312 1.0312v1c0-0.5832 0.44805-1.0312 1.0312-1.0312h12c0.5832 0 1.0312 0.44805 1.0312 1.0312v-1c0-0.5832-0.44805-1.0312-1.0312-1.0312h-12z" fill="#fff" opacity=".35"/>
 </g>
 <path id="base" d="m2.7669 1c0.23321 2.1634 0.84725 3.796 1.5817 5.0023a4.1667 4.1667 0 0 0-0.47917 1.4899c-0.85175-0.25435-1.8159-0.69744-2.8695-1.4424v1.9717c1.087 0.63595 2.1055 1.0158 3.0254 1.2259a4.1667 4.1667 0 0 0 0.69466 1.3145c-0.869 0.47543-2.066 0.89975-3.7201 1.1169v1.6764c2.2855-0.27541 3.921-0.91856 5.0732-1.6631a4.1667 4.1667 0 0 0 1.3281 0.42741c-0.22998 0.81718-0.65498 1.7796-1.415 2.8805h1.9642c0.63868-1.1046 1.0064-2.11 1.1943-2.9974a4.1667 4.1667 0 0 0 1.2376-0.58659c0.4665 0.84189 0.88587 1.9956 1.1113 3.584h1.6761c-0.28109-2.1622-0.89465-3.7295-1.6055-4.8503a4.1667 4.1667 0 0 0 0.51888-1.3395c0.83009 0.25089 1.8064 0.70585 2.9167 1.4951v-1.9837c-1.0775-0.64306-2.0618-1.0265-2.9388-1.2376a4.1667 4.1667 0 0 0-0.59961-1.3997c0.88315-0.46774 2.0342-0.86513 3.5384-1.0596v-1.6732c-2.0462 0.24199-3.6076 0.82672-4.777 1.526a4.1667 4.1667 0 0 0-1.4974-0.57975c0.27393-0.86262 0.74156-1.8361 1.5166-2.8978h-1.9928c-0.64091 1.0601-1.0388 2.0583-1.2695 2.9655a4.1667 4.1667 0 0 0-1.4766 0.7054c-0.47688-0.91123-0.87829-2.1044-1.0622-3.6709zm3.7988 5c0.03808 8.67e-4 0.07542 0.011 0.1084 0.0293l1.6061 0.89062 1.6061 0.89095c0.15144 0.08405 0.15144 0.29388 0 0.37793l-1.6061 0.89095-1.6061 0.89062c-0.15152 0.084-0.34082-0.02108-0.34082-0.18913v-3.5632c4.1e-5 -0.12254 0.10489-0.22096 0.23242-0.2181z" fill="#fff"/>
 <path id="path834" d="m2.7676 0.5c0.019115 0.17732 0.05599 0.32975 0.080078 0.5h1.5938c0.18391 1.5665 0.58562 2.7587 1.0625 3.6699a4.1667 4.1667 0 0 1 1.4766-0.70508c0.2307-0.9072 0.62862-1.9047 1.2695-2.9648h1.6543c0.10904-0.16578 0.21348-0.32958 0.33789-0.5h-1.9922c-0.64091 1.0601-1.0388 2.0576-1.2695 2.9648a4.1667 4.1667 0 0 0-1.4766 0.70508c-0.47688-0.91123-0.87859-2.1034-1.0625-3.6699h-1.6738zm12.232 1.9512c-2.0462 0.24199-3.6079 0.82611-4.7773 1.5254a4.1667 4.1667 0 0 0-1.3281-0.54102c-0.059713 0.15607-0.12244 0.31337-0.16992 0.46289a4.1667 4.1667 0 0 1 1.498 0.57812c1.1694-0.69928 2.7311-1.2834 4.7773-1.5254v-0.5zm-14 3.0977v0.5c1.0536 0.74496 2.0174 1.189 2.8691 1.4434a4.1667 4.1667 0 0 1 0.47852-1.4902c-0.043962-0.072206-0.081956-0.16105-0.125-0.23633a4.1667 4.1667 0 0 0-0.35352 1.2266c-0.85175-0.25435-1.8155-0.6984-2.8691-1.4434zm10.688 0.029297c-0.073333 0.036089-0.15663 0.068432-0.22656 0.10547a4.1667 4.1667 0 0 1 0.59961 1.4004c0.877 0.2111 1.862 0.59522 2.9395 1.2383v-0.5c-1.0775-0.64306-2.0625-1.0272-2.9395-1.2383a4.1667 4.1667 0 0 0-0.37305-1.0059zm-1.9102 2.1719-1.498 0.83008-1.6055 0.89062c-0.15152 0.084-0.33984-0.021403-0.33984-0.18945v0.5c0 0.16805 0.18832 0.27345 0.33984 0.18945l1.6055-0.89062 1.6074-0.89062c0.15144-0.08405 0.15144-0.29486 0-0.37891l-0.10938-0.060547zm1.9238 2.1465a4.1667 4.1667 0 0 1-0.13672 0.25391c0.65206 1.0281 1.2088 2.4556 1.5156 4.3496h0.089844c-0.26239-2.0183-0.81825-3.5012-1.4688-4.6035zm-7.2383 0.28906c-0.84552 0.42321-1.9574 0.7965-3.4629 0.99414v0.5c1.6541-0.21715 2.8517-0.64176 3.7207-1.1172a4.1667 4.1667 0 0 1-0.25781-0.37695zm2.7812 1.9082c-0.25016 0.70948-0.63856 1.5092-1.2578 2.4062h0.31836c0.55566-0.89207 0.90169-1.6915 1.0957-2.3809a4.1667 4.1667 0 0 1-0.15625-0.025391z" opacity=".3"/>
</svg>
