<?xml version="1.0" encoding="UTF-8"?>
<!-- Created with Inkscape (http://www.inkscape.org/) -->
<svg id="svg2" width="16" height="16" version="1.1" xmlns="http://www.w3.org/2000/svg" xmlns:cc="http://creativecommons.org/ns#" xmlns:dc="http://purl.org/dc/elements/1.1/" xmlns:rdf="http://www.w3.org/1999/02/22-rdf-syntax-ns#" xmlns:xlink="http://www.w3.org/1999/xlink">
 <defs id="defs4">
  <linearGradient id="linearGradient3204" x1="1" x2="15" y1="9" y2="9" gradientTransform="translate(-17,-2)" gradientUnits="userSpaceOnUse">
   <stop id="stop3189-3" stop-color="#f49f0b" offset="0"/>
   <stop id="stop3191-1" stop-color="#f7ce50" offset="1"/>
  </linearGradient>
  <linearGradient id="linearGradient3629" x2="29.017" y1="8" y2="8" gradientTransform="matrix(0,-1,1,0,0,16)" gradientUnits="userSpaceOnUse">
   <stop id="stop3330" offset="0"/>
   <stop id="stop3333" stop-opacity="0" offset="1"/>
  </linearGradient>
  <radialGradient id="radialGradient3676" cx="63.75" cy="57.679" r="34" gradientTransform="matrix(-1.5582 1.4064e-7 -1.2408e-7 -1.3644 163.08 137.56)" gradientUnits="userSpaceOnUse">
   <stop id="stop7987" stop-color="#fff" offset="0"/>
   <stop id="stop7997" stop-color="#fff" offset=".1"/>
   <stop id="stop7993" stop-color="#e6e6e6" offset=".3"/>
   <stop id="stop7995" stop-color="#bebebe" offset=".8"/>
   <stop id="stop7989" stop-color="#e6e6e6" offset="1"/>
  </radialGradient>
  <linearGradient id="linearGradient3681" x1="46.808" x2="65.769" y1="16.687" y2="87.928" gradientTransform="matrix(.12634 0 0 .12754 .18695 .53976)" gradientUnits="userSpaceOnUse">
   <stop id="stop8007" stop-color="#1e61a8" offset="0"/>
   <stop id="stop8009" stop-color="#1d75d0" offset="1"/>
  </linearGradient>
 </defs>
 <metadata id="metadata7">
  <rdf:RDF>
   <cc:Work rdf:about="">
    <dc:format>image/svg+xml</dc:format>
    <dc:type rdf:resource="http://purl.org/dc/dcmitype/StillImage"/>
    <dc:title/>
   </cc:Work>
  </rdf:RDF>
 </metadata>
 <g id="layer1">
  <rect id="rect3196" transform="rotate(-90)" x="-16" width="16" height="16" rx="2" ry="2" fill="url(#linearGradient3204)"/>
  <path id="rect2835" d="m0 14c0 1.108 0.892 2 2 2h12c1.108 0 2-0.892 2-2v-12c0-1.108-0.892-2-2-2h-12c-1.108 0-2 0.892-2 2v12zm0.96875 0v-12c0-0.5832 0.44805-1.0312 1.0312-1.0312h12c0.5832 0 1.0312 0.44805 1.0312 1.0312v12c0 0.5832-0.44805 1.0312-1.0312 1.0312h-12c-0.5832 0-1.0312-0.44805-1.0312-1.0312z" fill="url(#linearGradient3629)" opacity=".4"/>
  <path id="path3687" transform="matrix(.13033 0 0 .13207 .15092 .67241)" d="m63.75 36.594c-21.616 0-39.656 16.453-39.656 37.156s18.04 37.156 39.656 37.156 39.656-16.453 39.656-37.156-18.04-37.156-39.656-37.156z" opacity=".2"/>
  <path id="path7975" transform="matrix(.13033 0 0 .13207 .15092 .088997)" d="m97.75 73.75a34 31.5 0 1 1-68 0 34 31.5 0 1 1 68 0z" fill="url(#radialGradient3676)"/>
  <path id="path8000" d="m7.2507 2.6599c-2.9496 0.10949-2.5563 1.2673-4.2174 2.3226 1.6572 0.047997 1.8869-0.98443 2.9714-0.94064v7.6838c1.641 0.15484 5.6657 0.20525 5.2105-2.4735-0.34874-2.0523-3.9644-0.59225-3.9644-0.59225v-5.9999zm1.6755 6.3561c0.45282 0.00246 0.83872 0.10116 0.90867 0.55741 0.21248 1.3859-2.6071 1.3935-2.6071 1.3935v-1.6103s0.94377-0.34474 1.6985-0.34064z" fill="url(#linearGradient3681)" fill-rule="evenodd"/>
  <path id="path2843" d="m2 0.96875c-0.5832 0-1.0312 0.44805-1.0312 1.0312v1c0-0.5832 0.44805-1.0312 1.0312-1.0312h12c0.5832 0 1.0312 0.44805 1.0312 1.0312v-1c0-0.5832-0.44805-1.0312-1.0312-1.0312h-12z" fill="#fff" opacity=".4"/>
 </g>
</svg>
