<?xml version="1.0" encoding="UTF-8"?>
<!-- Created with Inkscape (http://www.inkscape.org/) -->
<svg id="svg2" width="16" height="16" version="1.1" xmlns="http://www.w3.org/2000/svg" xmlns:cc="http://creativecommons.org/ns#" xmlns:dc="http://purl.org/dc/elements/1.1/" xmlns:rdf="http://www.w3.org/1999/02/22-rdf-syntax-ns#" xmlns:xlink="http://www.w3.org/1999/xlink">
 <defs id="defs4">
  <linearGradient id="linearGradient3894" x1="1" x2="17" y1="9" y2="9" gradientTransform="translate(-17,-2)" gradientUnits="userSpaceOnUse">
   <stop id="stop4580-5" stop-color="#a0a0a0" stop-opacity=".54118" offset="0"/>
   <stop id="stop4582-6" stop-color="#a0a0a0" stop-opacity=".3451" offset="1"/>
  </linearGradient>
  <linearGradient id="linearGradient3905" x1="1" x2="22" y1="8" y2="8" gradientTransform="matrix(0,1,-1,0,16,0)" gradientUnits="userSpaceOnUse">
   <stop id="stop3901" offset="0"/>
   <stop id="stop3903" stop-opacity="0" offset="1"/>
  </linearGradient>
  <linearGradient id="linearGradient3946" x2="29.017" y1="8" y2="8" gradientTransform="matrix(0,-1,1,0,0,16)" gradientUnits="userSpaceOnUse">
   <stop id="stop3330-7" offset="0"/>
   <stop id="stop3333-7" stop-opacity="0" offset="1"/>
  </linearGradient>
  <clipPath id="clipPath4187-1">
   <path id="path4189-3" d="m48 102c-19.882 0-36 16.118-36 36s16.118 36 36 36 36-16.118 36-36-16.118-36-36-36zm0 24c6.6274 0 12 5.3726 12 12s-5.3726 12-12 12-12-5.3726-12-12 5.3726-12 12-12z" fill="#bbb1bf"/>
  </clipPath>
  <filter id="filter4195-1" x="-.18" y="-.18" width="1.36" height="1.36" color-interpolation-filters="sRGB">
   <feGaussianBlur id="feGaussianBlur4197-9" stdDeviation="5.2159999"/>
  </filter>
  <clipPath id="clipPath4031-2">
   <path id="path4033-3" d="m48 32c-19.882 0-36 16.118-36 36s16.118 36 36 36 36-16.118 36-36-16.118-36-36-36zm0 24c6.6274 0 12 5.3726 12 12s-5.3726 12-12 12-12-5.3726-12-12 5.3726-12 12-12z" fill="#bbb1bf"/>
  </clipPath>
  <filter id="filter4035-6" x="-.19037" y="-.1707" width="1.3807" height="1.3414" color-interpolation-filters="sRGB">
   <feGaussianBlur id="feGaussianBlur4037-7" stdDeviation="4.9476562"/>
  </filter>
  <linearGradient id="linearGradient3172-4-6" x1="7" x2="10" y1="4" y2="7" gradientTransform="translate(-30)" gradientUnits="userSpaceOnUse">
   <stop id="stop3803-8-2" stop-color="#4a99e1" offset="0"/>
   <stop id="stop3805-5-2" stop-color="#0046b5" offset="1"/>
  </linearGradient>
  <radialGradient id="radialGradient3174-9-4" cx="5" cy="12.5" r="2" gradientTransform="matrix(1 0 0 .75 0 3.125)" gradientUnits="userSpaceOnUse" xlink:href="#linearGradient3958-5-7-7"/>
  <linearGradient id="linearGradient3958-5-7-7">
   <stop id="stop3960-3-5-7" stop-color="#01a3f1" offset="0"/>
   <stop id="stop3962-6-3-5" stop-color="#01a3f1" stop-opacity="0" offset="1"/>
  </linearGradient>
 </defs>
 <metadata id="metadata7">
  <rdf:RDF>
   <cc:Work rdf:about="">
    <dc:format>image/svg+xml</dc:format>
    <dc:type rdf:resource="http://purl.org/dc/dcmitype/StillImage"/>
    <dc:title/>
   </cc:Work>
  </rdf:RDF>
 </metadata>
 <g id="layer3">
  <rect id="rect3196" transform="rotate(-90)" x="-16" width="16" height="16" rx="2" ry="2" fill="url(#linearGradient3894)"/>
  <path id="path3652" d="m4.125 1c-1.3124 0.72786-2.3971 1.8126-3.125 3.125v3.875c0-3.866 3.134-7 7-7h-3.875zm3.875 0c3.866 0 7 3.134 7 7v-3.875c-0.72786-1.3124-1.8126-2.3971-3.125-3.125h-3.875zm7 7c0 3.866-3.134 7-7 7h3.875c1.3124-0.72786 2.3971-1.8126 3.125-3.125v-3.875zm-7 7c-3.866 0-7-3.134-7-7v3.875c0.72786 1.3124 1.8126 2.3971 3.125 3.125h3.875z" fill="#fff" opacity=".4"/>
  <path id="path3650" d="m15 8c0-3.866-3.134-7-7-7s-7 3.134-7 7 3.134 7 7 7 7-3.134 7-7zm-5 0c0 1.1046-0.89543 2-2 2-1.1046 0-2-0.89543-2-2 0-1.1046 0.89543-2 2-2 1.1046 0 2 0.89543 2 2z" fill="url(#linearGradient3905)" opacity=".45"/>
 </g>
 <g id="layer4">
  <path id="path3978" d="m7.9998 2c-3.3136 0-5.9998 2.6867-5.9998 6.0002 0 3.3136 2.6862 5.9998 5.9998 5.9998 3.3136 0 5.9998-2.6862 5.9998-5.9998 0-3.3136-2.6862-5.9998-5.9998-5.9998zm0 3.9998c1.1045 0 1.9999 0.89539 1.9999 1.9999 0 1.1045-0.89539 1.9999-1.9999 1.9999s-1.9999-0.89539-1.9999-1.9999c0-1.1045 0.89539-1.9999 1.9999-1.9999z" fill="#bbb1bf"/>
  <path id="path4018" transform="matrix(.16666 0 0 .16666 8.3e-5 -3.3326)" d="m57.312 33.219-9.3125 34.781 31.188-18c-4.7739-8.2686-12.653-14.31-21.875-16.781zm-9.3125 34.781-31.188 18c4.7739 8.2686 12.653 14.31 21.875 16.781l9.3125-34.781z" clip-path="url(#clipPath4031-2)" fill="#fff" filter="url(#filter4035-6)" opacity=".8"/>
  <g id="g4175" transform="matrix(.16666 0 0 .16666 8.3e-5 -14.999)" clip-path="url(#clipPath4187-1)" filter="url(#filter4195-1)" opacity=".6">
   <path id="path4039" transform="matrix(1.5055 .86922 -.95673 1.6571 27.56 21.5)" d="m60.947 57.784a20.708 18.814 0 0 1-2.6155 2.9059l-14.643-13.304z" fill="#7137c8"/>
   <path id="path4041" transform="matrix(1.6792 .44994 -.49524 1.8483 -1.8956 30.76)" d="m60.779 58.011a20.708 18.814 0 0 1-3.384 3.4788l-13.706-14.103z" fill="#0cf"/>
   <path id="path4043" transform="matrix(1.7384 0 -6.0266e-8 1.9135 -27.951 47.328)" d="m62.724 54.796a20.708 18.814 0 0 1-2.2597 3.6221l-16.775-11.031z" fill="#fc0"/>
   <path id="path4045" transform="matrix(1.6792 -.44994 .49524 1.8483 -48.831 70.075)" d="m61.623 56.793a20.708 18.814 0 0 1-1.6993 2.2728l-16.235-11.68z" fill="#f00"/>
   <path id="path4144" transform="matrix(1.6792 .44994 -.49524 1.8483 -1.8956 30.76)" d="m63.123 53.883a20.708 18.814 0 0 1-2.37 4.1619l-17.064-10.659z" fill="#0f0"/>
   <path id="path4155" transform="matrix(-1.5055 -.86922 .95673 -1.6571 68.44 254.5)" d="m60.947 57.784a20.708 18.814 0 0 1-2.6155 2.9059l-14.643-13.304z" fill="#7137c8"/>
   <path id="path4157" transform="matrix(-1.6792 -.44994 .49524 -1.8483 97.896 245.24)" d="m60.779 58.011a20.708 18.814 0 0 1-3.384 3.4788l-13.706-14.103z" fill="#0cf"/>
   <path id="path4159" transform="matrix(-1.7384 0 6.0266e-8 -1.9135 123.95 228.67)" d="m62.724 54.796a20.708 18.814 0 0 1-2.2597 3.6221l-16.775-11.031z" fill="#fc0"/>
   <path id="path4161" transform="matrix(-1.6792 .44994 -.49524 -1.8483 144.83 205.92)" d="m61.623 56.793a20.708 18.814 0 0 1-1.6993 2.2728l-16.235-11.68z" fill="#f00"/>
   <path id="path4163" transform="matrix(-1.6792 -.44994 .49524 -1.8483 97.896 245.24)" d="m63.123 53.883a20.708 18.814 0 0 1-2.37 4.1619l-17.064-10.659z" fill="#0f0"/>
  </g>
  <path id="path4199" d="m7.9998 2c-3.3136 0-5.9998 2.6867-5.9998 6.0002 0 0.056176 0.0037 0.11085 0.0052 0.16666 0.08896-3.2359 2.7372-5.8331 5.9945-5.8331 3.2574 0 5.9056 2.5972 5.9945 5.8331 0.0015-0.055811 0.0053-0.11048 0.0053-0.16666 0-3.3136-2.6862-5.9998-5.9997-5.9998z" fill="#fff" opacity=".4"/>
  <path id="path4063" d="m8 5c-1.6569 0-3 1.3431-3 3s1.3431 3 3 3 3-1.3431 3-3-1.3431-3-3-3zm0 1c1.1046 0 2 0.89543 2 2s-0.89543 2-2 2c-1.1046 0-2-0.89543-2-2s0.89543-2 2-2z" color="#000000" opacity=".1"/>
  <path id="path4080" transform="matrix(2,0,0,2,-8,-8)" d="m9 8a1 1 0 1 1-2 0 1 1 0 1 1 2 0z" color="#000000" fill="#fff" opacity=".7"/>
  <path id="path4078" d="m9 8a1 1 0 1 1-2 0 1 1 0 1 1 2 0z" color="#000000" opacity=".3"/>
 </g>
 <g id="layer1">
  <path id="rect2835" d="m0 14c0 1.108 0.892 2 2 2h12c1.108 0 2-0.892 2-2v-12c0-1.108-0.892-2-2-2h-12c-1.108 0-2 0.892-2 2v12zm0.96875 0v-12c0-0.5832 0.44805-1.0312 1.0312-1.0312h12c0.5832 0 1.0312 0.44805 1.0312 1.0312v12c0 0.5832-0.44805 1.0312-1.0312 1.0312h-12c-0.5832 0-1.0312-0.44805-1.0312-1.0312z" fill="url(#linearGradient3946)" opacity=".4"/>
  <path id="path2843" d="m2 0.96875c-0.5832 0-1.0312 0.44805-1.0312 1.0312v1c0-0.5832 0.44805-1.0312 1.0312-1.0312h12c0.5832 0 1.0312 0.44805 1.0312 1.0312v-1c0-0.5832-0.44805-1.0312-1.0312-1.0312h-12z" fill="#fff" opacity=".25"/>
  <g id="g3178" transform="translate(31,-2)">
   <path id="rect3760" d="m-18 3-6 1v1 1 4.0625c-0.39523-0.12552-0.86547-0.12815-1.3438 0-1.0669 0.28588-1.7769 1.1686-1.5625 1.9688s1.2768 1.1921 2.3438 0.90625c0.92036-0.24661 1.5415-0.9267 1.5625-1.625 3.02e-4 -0.01002-4.6e-5 -0.02123 0-0.03125v-5.4375l4-0.6875v3.9062c-0.39523-0.12552-0.86547-0.12815-1.3438 0-1.0669 0.28588-1.7769 1.1686-1.5625 1.9688s1.2768 1.1921 2.3438 0.90625c0.93357-0.25015 1.5593-0.94775 1.5625-1.6562v-5.2812-2z" color="#000000" fill="url(#linearGradient3172-4-6)"/>
   <path id="path3770" transform="matrix(.96593 -.25882 .25882 .96593 -33.024 .72002)" d="m7 12.5c0 0.82843-0.89543 1.5-2 1.5s-2-0.67157-2-1.5 0.89543-1.5 2-1.5 2 0.67157 2 1.5z" color="#000000" fill="url(#radialGradient3174-9-4)" opacity=".6"/>
   <path id="path3772" transform="matrix(.96593 -.25882 .25882 .96593 -28.024 -.27998)" d="m7 12.5c0 0.82843-0.89543 1.5-2 1.5s-2-0.67157-2-1.5 0.89543-1.5 2-1.5 2 0.67157 2 1.5z" color="#000000" fill="url(#radialGradient3174-9-4)" opacity=".6"/>
  </g>
 </g>
</svg>
