<?xml version="1.0" encoding="UTF-8"?>
<!-- Created with Inkscape (http://www.inkscape.org/) -->
<svg id="svg2" width="16" height="16" version="1.1" xmlns="http://www.w3.org/2000/svg" xmlns:cc="http://creativecommons.org/ns#" xmlns:dc="http://purl.org/dc/elements/1.1/" xmlns:rdf="http://www.w3.org/1999/02/22-rdf-syntax-ns#" xmlns:xlink="http://www.w3.org/1999/xlink">
 <defs id="defs4">
  <linearGradient id="linearGradient3204" x1="5" x2="15" y1="9" y2="9" gradientTransform="translate(-17,-2)" gradientUnits="userSpaceOnUse">
   <stop id="stop3890" stop-color="#0c0c0c" offset="0"/>
   <stop id="stop3892" stop-color="#2c2c2c" offset=".13739"/>
   <stop id="stop3894" stop-color="#353535" offset=".16723"/>
   <stop id="stop3896" stop-color="#424242" offset=".5"/>
   <stop id="stop3898" stop-color="#585858" offset=".5"/>
   <stop id="stop3900" stop-color="#151515" offset="1"/>
  </linearGradient>
  <linearGradient id="linearGradient3629" x2="29.017" y1="8" y2="8" gradientTransform="matrix(0,-1,1,0,0,16)" gradientUnits="userSpaceOnUse">
   <stop id="stop3330" offset="0"/>
   <stop id="stop3333" stop-opacity="0" offset="1"/>
  </linearGradient>
  <linearGradient id="linearGradient3680" x1="6" x2="6" y1="17" y2="13" gradientTransform="translate(-1,-6)" gradientUnits="userSpaceOnUse">
   <stop id="stop3676" stop-color="#999" offset="0"/>
   <stop id="stop3678" stop-color="#999" stop-opacity="0" offset="1"/>
  </linearGradient>
  <linearGradient id="linearGradient3123" x1="4" x2="4" y1="18" y2="7" gradientTransform="translate(-1,-7)" gradientUnits="userSpaceOnUse">
   <stop id="stop3624" stop-color="#bebebe" offset="0"/>
   <stop id="stop3626" stop-color="#e6e6e6" offset="1"/>
  </linearGradient>
  <linearGradient id="linearGradient3161" x1="7" x2="7" y1="15" y2="6" gradientTransform="matrix(1 0 0 .66667 -2 -2)" gradientUnits="userSpaceOnUse">
   <stop id="stop3817" stop-color="#fff" offset="0"/>
   <stop id="stop3819" stop-color="#fff" stop-opacity="0" offset="1"/>
  </linearGradient>
  <radialGradient id="radialGradient3178" cx="11" cy="15.5" r="4" gradientTransform="matrix(.75 0 0 .125 -.25 8.5625)" gradientUnits="userSpaceOnUse">
   <stop id="stop3802" stop-color="#fff" offset="0"/>
   <stop id="stop3804" stop-color="#fff" stop-opacity="0" offset="1"/>
  </radialGradient>
  <radialGradient id="radialGradient3721-9" cx="48.241" cy="38.667" r="25.55" gradientTransform="matrix(.14874 -.058959 .04386 .10709 -.34749 3.9603)" gradientUnits="userSpaceOnUse" xlink:href="#linearGradient3601-4"/>
  <linearGradient id="linearGradient3601-4">
   <stop id="stop3603-9" stop-color="#b8d9f4" offset="0"/>
   <stop id="stop3605-0" stop-color="#ebf4fc" offset="1"/>
  </linearGradient>
  <radialGradient id="radialGradient3725-9" cx="48.194" cy="58.668" r="33.906" gradientTransform="matrix(.16765 -.053205 .033427 .10171 -1.3534 5.8799)" gradientUnits="userSpaceOnUse" xlink:href="#linearGradient3601-4"/>
 </defs>
 <metadata id="metadata7">
  <rdf:RDF>
   <cc:Work rdf:about="">
    <dc:format>image/svg+xml</dc:format>
    <dc:type rdf:resource="http://purl.org/dc/dcmitype/StillImage"/>
    <dc:title/>
   </cc:Work>
  </rdf:RDF>
 </metadata>
 <g id="layer1">
  <rect id="rect3196" transform="rotate(-90)" x="-16" width="16" height="16" rx="2" ry="2" fill="url(#linearGradient3204)"/>
  <path id="rect3623" d="m2 0c-1.108 0-2 0.892-2 2v12c0 1.108 0.892 2 2 2h12c1.108 0 2-0.892 2-2v-12c0-1.108-0.892-2-2-2h-12zm2 2h0.5 7 0.5c0.554 0 1 0.446 1 1v0.5 4 0.5c0 0.554-0.446 1-1 1h-0.5-0.5v1.5c0 0.831-0.23 1.5-3 1.5s-3-0.669-3-1.5v-1.5h-0.5-0.5c-0.554 0-1-0.446-1-1v-0.5-4-0.5c0-0.554 0.446-1 1-1z" fill="url(#linearGradient3123)" fill-rule="evenodd"/>
  <path id="rect3635" d="m0 12v2c0 1.108 0.892 2 2 2h12c1.108 0 2-0.892 2-2v-2c0 1.108-0.892 2-2 2h-12c-1.108 0-2-0.892-2-2z" fill="#666"/>
  <path id="rect3640" d="m0 8v4c0 1.108 0.892 2 2 2h12c1.108 0 2-0.892 2-2v-4c0 1.108-0.892 2-2 2h-3v0.5c0 0.831-0.23 1.5-3 1.5s-3-0.669-3-1.5v-0.5h-3c-1.108 0-2-0.892-2-2z" fill="url(#linearGradient3680)" opacity=".8"/>
  <path id="path3879" d="m0 8v1c0 1.108 0.892 2 2 2h3v0.5c0 0.831 0.23 1.5 3 1.5s3-0.669 3-1.5v-0.5h3c1.108 0 2-0.892 2-2v-1c0 1.108-0.892 2-2 2h-3v0.5c0 0.831-0.23 1.5-3 1.5s-3-0.669-3-1.5v-0.5h-3c-1.108 0-2-0.892-2-2z" fill="#fff" opacity=".5"/>
  <path id="rect2835" d="m0 14c0 1.108 0.892 2 2 2h12c1.108 0 2-0.892 2-2v-12c0-1.108-0.892-2-2-2h-12c-1.108 0-2 0.892-2 2v12zm0.96875 0v-12c0-0.5832 0.44805-1.0312 1.0312-1.0312h12c0.5832 0 1.0312 0.44805 1.0312 1.0312v12c0 0.5832-0.44805 1.0312-1.0312 1.0312h-12c-0.5832 0-1.0312-0.44805-1.0312-1.0312z" fill="url(#linearGradient3629)" opacity=".4"/>
  <path id="rect3813" d="m4 2v6h1v-6zm2 0v6h1v-6zm2 0v6h1v-6zm2 0v6h1v-6zm2 0v6h1v-6z" fill="url(#linearGradient3161)" opacity=".1"/>
  <rect id="rect3798" x="5" y="10" width="6" height="1" fill="url(#radialGradient3178)" opacity=".6"/>
  <rect id="rect2922" x="1" y="7" width="1" height="1" fill="#f00"/>
  <rect id="rect3696" x="1" y="5" width="1" height="1" fill="#f60"/>
  <rect id="rect3698" x="1" y="3" width="1" height="1" fill="#00c300"/>
  <path id="path2843" d="m2 0.96875c-0.5832 0-1.0312 0.44805-1.0312 1.0312v1c0-0.5832 0.44805-1.0312 1.0312-1.0312h12c0.5832 0 1.0312 0.44805 1.0312 1.0312v-1c0-0.5832-0.44805-1.0312-1.0312-1.0312h-12z" fill="#fff" opacity=".45"/>
  <path id="path3727" d="m10.75 3.802c-0.82058 0.008767-1.8125 0.24423-2.625 1.0938-1.6775-0.59029-2.9511-0.29669-3.7812 0.15625-0.42092 0.22967-0.70645 0.49172-0.90625 0.71875-0.099899 0.11351-0.17148 0.22864-0.21875 0.3125-0.023637 0.041929-0.050867 0.054997-0.0625 0.09375-0.00582 0.019377 4.26e-4 0.035748 0 0.0625s-0.0042 0.084388 0.03125 0.125c0.034713 0.039774 0.064752 0.060432 0.09375 0.0625 0.028998 0.00207 0.042568-0.026838 0.0625-0.03125 0.039864-0.00882 0.080626-0.013097 0.125-0.03125 0.088748-0.036306 0.20283-0.092885 0.34375-0.15625 0.28184-0.12673 0.69365-0.28395 1.1562-0.40625 0.9252-0.24461 2.1324-0.31944 3.4062 0.40625a0.13487 0.13487 0 0 0 0.03125 0 0.13487 0.13487 0 0 0 0.03125 0 0.13487 0.13487 0 0 0 0.03125 0 0.13487 0.13487 0 0 0 0.03125 0 0.13487 0.13487 0 0 0 0.03125-0.03125 0.13487 0.13487 0 0 0 0.03125-0.03125c0.70059-1.0173 1.6408-1.3971 2.4062-1.5625 0.38274-0.08272 0.69782-0.10568 0.9375-0.125 0.11984-0.00966 0.23616-0.015266 0.3125-0.03125 0.03817-0.00799 0.04849 0.0031 0.09375-0.03125 0.02263-0.017173 0.05174-0.051753 0.0625-0.09375s0.01328-0.097769 0-0.125c-0.02677-0.054881-0.06044-0.071613-0.09375-0.09375s-0.08047-0.042948-0.125-0.0625c-0.08907-0.039104-0.20458-0.090324-0.34375-0.125-0.27834-0.069351-0.64186-0.098244-1.0625-0.09375zm1.9062 2.9375c-0.25607-0.00509-0.54829-0.00166-0.84375 0.03125-1.1503 0.12813-2.5219 0.64574-3.5312 1.9375-2.1029-0.60607-3.7741-0.12448-4.875 0.5625-0.56204 0.35071-0.97474 0.73945-1.25 1.0625-0.13763 0.16153-0.24556 0.32126-0.3125 0.4375-0.033471 0.05812-0.044706 0.10239-0.0625 0.15625-0.0089 0.02693-0.029313 0.05359-0.03125 0.09375-0.00194 0.04016-0.00257 0.12014 0.0625 0.1875 0.060005 0.06211 0.14564 0.06266 0.1875 0.0625 0.041863-1.64e-4 0.066752-0.02359 0.09375-0.03125 0.053997-0.01533 0.097425-0.03526 0.15625-0.0625 0.11765-0.05447 0.28314-0.12556 0.46875-0.21875 0.37122-0.18637 0.86554-0.4292 1.4688-0.625 1.2064-0.39159 2.775-0.58907 4.375 0.21875a0.20841 0.20841 0 0 0 0.03125 0 0.20841 0.20841 0 0 0 0.03125 0.03125 0.20841 0.20841 0 0 0 0.03125 0 0.20841 0.20841 0 0 0 0.03125 0 0.20841 0.20841 0 0 0 0.03125-0.03125 0.20841 0.20841 0 0 0 0.03125 0 0.20841 0.20841 0 0 0 0.03125-0.03125 0.20841 0.20841 0 0 0 0.03125-0.03125 0.20841 0.20841 0 0 0 0.03125-0.03125c0.86214-1.502 2.1558-2.1753 3.25-2.5312 0.54708-0.178 1.0552-0.27844 1.4062-0.34375 0.1755-0.032656 0.29686-0.062111 0.40625-0.09375 0.0547-0.01582 0.09529-0.01748 0.15625-0.0625 0.03048-0.02251 0.07206-0.060414 0.09375-0.125s0.02561-0.1412 0-0.1875c-0.04987-0.090147-0.10648-0.13025-0.15625-0.15625-0.04977-0.026-0.09194-0.041905-0.15625-0.0625-0.12863-0.041191-0.30106-0.064827-0.5-0.09375s-0.43143-0.057406-0.6875-0.0625z" fill-rule="evenodd" opacity=".4"/>
  <path id="path3159" d="m10.75 3.1562c-0.83689 0.0089412-1.8588 0.33843-2.75 1.0938-1.6663-0.48148-3.0644-0.24345-3.9688 0.25-0.49476 0.26996-0.85501 0.57248-1.0938 0.84375-0.14209 0.16145-0.22115 0.3309-0.28125 0.4375-0.036526 0.049405-0.093589 0.11411-0.125 0.21875-0.071556 0.23824-0.032498 0.32839-0.03125 0.25 3.09e-4 -0.019402-0.062895 0.27564 0.1875 0.5625 0.08345 0.095617 0.25947 0.25964 0.5625 0.28125 0.10837 0.00774 0.13672-0.03118 0.21875-0.0625-0.00802 0.00177 0.10983-0.00516 0.25-0.0625 0.12703-0.051967 0.24638-0.098413 0.375-0.15625 0.2493-0.1121 0.60949-0.26349 1.0312-0.375 0.82201-0.21732 1.8334-0.2852 2.9375 0.34375a0.64874 0.64874 0 0 0 0.25 0.09375c-0.00988-0.00115 0.041177 5.77e-4 0.03125 0-0.00988-0.00115 0.041177 5.77e-4 0.03125 0-0.00496-2.885e-4 0.0174-4.022e-4 0.03125 0s0.036222 0 0.03125 0c-0.00496-2.885e-4 0.0174-4.022e-4 0.03125 0s0.036222 0 0.03125 0c-0.00993 5.77e-4 0.041126-0.00115 0.03125 0-0.00993 5.77e-4 0.041126-0.00115 0.03125 0a0.64874 0.64874 0 0 0 0.3125-0.125c-0.00573 0.0041 0.036809-0.035582 0.03125-0.03125-0.00573 0.0041 0.036809-0.035582 0.03125-0.03125-0.00518 0.00477 0.036233-0.036233 0.03125-0.03125s0.036024-0.036434 0.03125-0.03125c-0.00498 0.00498 0.036024-0.036434 0.03125-0.03125-0.00477 0.00518 0.035806-0.00538 0.03125 0 0.00588-0.00787 0.00205-0.034116 0-0.03125-0.00433 0.00556 0.035349-0.036982 0.03125-0.03125 0.58961-0.85614 1.3277-1.1672 2-1.3125 0.33512-0.072427 0.63094-0.074073 0.875-0.09375 0.10637-0.00857 0.19906-0.025659 0.375-0.0625-0.0513 0.010738-0.08001 0.021552 0.03125 0 0.11126-0.021552 0.27543-0.073148 0.34375-0.125 0.14328-0.10873 0.22192-0.2372 0.28125-0.46875 0.019493-0.076082 0.03014-0.13915 0.03125-0.21875s0.027704-0.15878-0.0625-0.34375c-0.097954-0.20081-0.35277-0.34975-0.34375-0.34375-0.11229-0.074625-0.17344-0.10511-0.21875-0.125-0.087173-0.038271-0.23462-0.1057-0.4375-0.15625-0.3659-0.091165-0.76442-0.12985-1.2188-0.125zm1.9062 2.9375c-0.27166-0.0053999-0.56895-0.0063205-0.90625 0.03125-1.1692 0.13023-2.5303 0.72479-3.625 1.9062-2.1177-0.50623-3.8924-0.042635-5.0625 0.6875-0.62369 0.38918-1.09 0.8476-1.4062 1.2188-0.16596 0.19478-0.28583 0.3764-0.375 0.53125-0.073238 0.12717-0.11491 0.21946-0.125 0.25 0.043807-0.13255-0.050663 0.03584-0.0625 0.28125-0.00362 0.07486 0.0052 0.40284 0.25 0.65625 0.27295 0.28252 0.60532 0.28144 0.65625 0.28125 0.28284-0.0011 0.48763-0.12106 0.28125-0.0625 0.10819-0.03072 0.19019-0.06605 0.25-0.09375 0.10247-0.047443 0.2632-0.11555 0.46875-0.21875 0.36677-0.18414 0.82261-0.41445 1.375-0.59375 1.1103-0.36039 2.4965-0.52427 3.9062 0.1875a0.64874 0.64874 0 0 0 0.03125 0 0.64874 0.64874 0 0 0 0.03125 0 0.64874 0.64874 0 0 0 0.03125 0.03125 0.64874 0.64874 0 0 0 0.03125 0 0.64874 0.64874 0 0 0 0.09375 0.03125 0.64874 0.64874 0 0 0 0.0625 0.03125c-0.00549-4.13e-4 0.012436-7.06e-4 0.03125 0s0.036757 0 0.03125 0c0.021487 7.15e-4 0.069842 0 0.0625 0 0.010744-3.57e-4 0.034911-2.75e-4 0.03125 0 0.018814-7.06e-4 0.036741-4.13e-4 0.03125 0a0.64874 0.64874 0 0 0 0.0625-0.03125 0.64874 0.64874 0 0 0 0.125-0.03125 0.64874 0.64874 0 0 0 0.09375-0.0625 0.64874 0.64874 0 0 0 0.09375-0.0625c-0.0058 0.0052 0.036762-0.03676 0.03125-0.03125-0.00551 0.0055 0.036461-0.03705 0.03125-0.03125-0.00521 0.0058 0.036146-0.03731 0.03125-0.03125 0.00967-0.0092 0.034006-0.0028 0.03125 0-0.00521 0.0058 0.036146-0.03731 0.03125-0.03125-0.00551 0.0055 0.036461-0.03705 0.03125-0.03125-0.00521 0.0058 0.036146-0.03731 0.03125-0.03125a0.64874 0.64874 0 0 0 0.0625-0.09375c0.76433-1.3316 1.8666-1.8907 2.875-2.2188 0.50296-0.16364 0.99963-0.27972 1.3438-0.34375 0.1916-0.035651 0.33958-0.05639 0.46875-0.09375-0.01594 0.00461 0.17823-0.034011 0.34375-0.15625 0.08363-0.06176 0.26679-0.20835 0.34375-0.4375 0.06347-0.18898 0.12336-0.38273-0.0625-0.71875-0.11108-0.2008-0.29278-0.34697-0.40625-0.40625-0.08683-0.045358-0.203-0.09994-0.28125-0.125-0.22035-0.070565-0.39783-0.096516-0.59375-0.125-0.21014-0.030552-0.48491-0.056605-0.78125-0.0625z" fill-rule="evenodd" opacity=".2"/>
  <path id="path3723" transform="translate(0 .29171)" d="m12.656 5.75c-0.25607-0.00509-0.54829-0.00166-0.84375 0.03125-1.1503 0.12813-2.5219 0.64574-3.5312 1.9375-2.1029-0.60607-3.7741-0.12448-4.875 0.5625-0.56204 0.35071-0.97474 0.73945-1.25 1.0625-0.13763 0.16153-0.24556 0.32125-0.3125 0.4375-0.033471 0.058122-0.044706 0.10239-0.0625 0.15625-0.0089 0.026929-0.029313 0.053594-0.03125 0.09375-0.00194 0.04016-0.00257 0.12014 0.0625 0.1875 0.060005 0.06211 0.14564 0.06266 0.1875 0.0625 0.041863-1.64e-4 0.066752-0.02359 0.09375-0.03125 0.053997-0.01533 0.097425-0.03526 0.15625-0.0625 0.11765-0.054473 0.28314-0.12556 0.46875-0.21875 0.37122-0.18637 0.86554-0.4292 1.4688-0.625 1.2064-0.39159 2.775-0.58907 4.375 0.21875a0.20841 0.20841 0 0 0 0.03125 0 0.20841 0.20841 0 0 0 0.0625 0.03125 0.20841 0.20841 0 0 0 0.0625-0.03125 0.20841 0.20841 0 0 0 0.03125 0 0.20841 0.20841 0 0 0 0.03125-0.03125 0.20841 0.20841 0 0 0 0.03125-0.03125 0.20841 0.20841 0 0 0 0.03125-0.03125c0.86214-1.502 2.1558-2.1753 3.25-2.5312 0.54708-0.178 1.0552-0.27844 1.4062-0.34375 0.1755-0.032656 0.29686-0.06211 0.40625-0.09375 0.0547-0.01582 0.09529-0.01748 0.15625-0.0625 0.03048-0.02251 0.07206-0.060414 0.09375-0.125s0.02561-0.1412 0-0.1875c-0.049866-0.090147-0.10648-0.13025-0.15625-0.15625-0.04977-0.026-0.09194-0.041905-0.15625-0.0625-0.12863-0.041191-0.30106-0.064827-0.5-0.09375s-0.43143-0.057406-0.6875-0.0625z" fill="url(#radialGradient3725-9)" fill-rule="evenodd"/>
  <path id="path3719" d="m10.75 3.0938c-0.82058 0.0087673-1.8125 0.24423-2.625 1.0938-1.6775-0.59029-2.9511-0.29669-3.7812 0.15625-0.42092 0.22967-0.70645 0.49172-0.90625 0.71875-0.099899 0.11351-0.17148 0.22864-0.21875 0.3125-0.023637 0.041929-0.050867 0.054997-0.0625 0.09375-0.00582 0.019377 4.26e-4 0.035748 0 0.0625s-0.0042 0.084388 0.03125 0.125c0.034713 0.039774 0.064752 0.060432 0.09375 0.0625 0.028998 0.00207 0.042568-0.026838 0.0625-0.03125 0.039864-0.00882 0.080626-0.013097 0.125-0.03125 0.088748-0.036306 0.20283-0.092885 0.34375-0.15625 0.28184-0.12673 0.69365-0.28395 1.1562-0.40625 0.9252-0.24461 2.1324-0.31944 3.4062 0.40625a0.13487 0.13487 0 0 0 0.03125 0 0.13487 0.13487 0 0 0 0.03125 0 0.13487 0.13487 0 0 0 0.03125 0 0.13487 0.13487 0 0 0 0.03125 0 0.13487 0.13487 0 0 0 0.03125-0.03125 0.13487 0.13487 0 0 0 0.03125-0.03125c0.70059-1.0173 1.6408-1.3971 2.4062-1.5625 0.38274-0.08272 0.69782-0.10568 0.9375-0.125 0.11984-0.00966 0.23616-0.015266 0.3125-0.03125 0.03817-0.00799 0.04849 0.0031 0.09375-0.03125 0.02263-0.017173 0.05174-0.051753 0.0625-0.09375s0.01328-0.097769 0-0.125c-0.026768-0.054881-0.06044-0.071613-0.09375-0.09375s-0.080467-0.042948-0.125-0.0625c-0.089066-0.039104-0.20458-0.090324-0.34375-0.125-0.27834-0.069351-0.64186-0.098244-1.0625-0.09375z" fill="url(#radialGradient3721-9)" fill-rule="evenodd"/>
 </g>
</svg>
