<?xml version="1.0" encoding="UTF-8"?>
<svg id="svg2" width="16" height="16" version="1.1" xmlns="http://www.w3.org/2000/svg" xmlns:cc="http://creativecommons.org/ns#" xmlns:dc="http://purl.org/dc/elements/1.1/" xmlns:rdf="http://www.w3.org/1999/02/22-rdf-syntax-ns#">
 <metadata id="metadata31">
  <rdf:RDF>
   <cc:Work rdf:about="">
    <dc:format>image/svg+xml</dc:format>
    <dc:type rdf:resource="http://purl.org/dc/dcmitype/StillImage"/>
   </cc:Work>
  </rdf:RDF>
 </metadata>
 <defs id="defs4">
  <linearGradient id="linearGradient3204" x1="1" x2="15" y1="9" y2="9" gradientTransform="translate(-17,-2)" gradientUnits="userSpaceOnUse">
   <stop id="stop3189" stop-color="#e97300" offset="0"/>
   <stop id="stop3191" stop-color="#ff8209" offset="1"/>
  </linearGradient>
  <linearGradient id="linearGradient3629" x2="29.017" y1="8" y2="8" gradientTransform="matrix(0,-1,1,0,0,16)" gradientUnits="userSpaceOnUse">
   <stop id="stop3330" offset="0"/>
   <stop id="stop3333" stop-opacity="0" offset="1"/>
  </linearGradient>
 </defs>
 <g id="layer1">
  <rect id="rect3196" transform="rotate(-90)" x="-16" width="16" height="16" rx="2" ry="2" fill="url(#linearGradient3204)"/>
  <path id="rect2835" d="m0 14c0 1.108 0.892 2 2 2h12c1.108 0 2-0.892 2-2v-12c0-1.108-0.892-2-2-2h-12c-1.108 0-2 0.892-2 2v12zm0.96875 0v-12c0-0.5832 0.44805-1.0312 1.0312-1.0312h12c0.5832 0 1.0312 0.44805 1.0312 1.0312v12c0 0.5832-0.44805 1.0312-1.0312 1.0312h-12c-0.5832 0-1.0312-0.44805-1.0312-1.0312z" fill="url(#linearGradient3629)" opacity=".4"/>
  <path id="path2843" d="m2 0.96875c-0.5832 0-1.0312 0.44805-1.0312 1.0312v1c0-0.5832 0.44805-1.0312 1.0312-1.0312h12c0.5832 0 1.0312 0.44805 1.0312 1.0312v-1c0-0.5832-0.44805-1.0312-1.0312-1.0312h-12z" fill="#fff" opacity=".35"/>
 </g>
 <g id="main" transform="translate(1 1) scale(.85714)">
  <path id="path23" d="m4.7239 2.8186c-2.4826 8.7876-1.2413 4.3938 0 0zm0 0c-2.2896 1.2126-3.7222 3.5906-3.7239 6.1814 7.017e-4 1.6362 0.57454 3.2204 1.6218 4.4775zm8.5258 3.3821c0 1.5917-0.73044 2.4465-1.7466 3.2317-1.0161 0.7852-1.8564 1.1017-2.9634 1.2527-0.95669 0.13045-1.8763 0.10748-2.625 0.06494l-0.81006 4.6143c0.90856 0.41613 1.8957 0.6329 2.895 0.63574 3.866 0 7-3.134 7-7-0.0031-1.7942-0.69496-3.5188-1.9329-4.8176 0.12492 0.66761 0.14544 1.3518 0.18296 2.0182zm-5.2569-2.4558c-0.28515-0.012426-0.57542-0.015052-0.86816 0.005127l-0.875 5.25c0.5327 0.017759 1.1295-0.00261 1.7124-0.092285 0.82528-0.12696 1.5664-0.4528 1.9978-0.82886 0.43138-0.37605 0.6648-0.89789 0.6648-1.8748 0-1.0717-0.23306-1.4971-0.50928-1.7996-0.27622-0.30245-0.72257-0.51335-1.2852-0.60669-0.27223-0.018322-0.55225-0.040552-0.8374-0.052979z" opacity=".3"/>
  <path id="base" d="m4.7239 1.8186c-2.4826 8.7876-1.2413 4.3938 0 0zc-2.2896 1.2126-3.7222 3.5906-3.7239 6.1814 7.017e-4 1.6362 0.57454 3.2204 1.6218 4.4775zm8.5258 3.3821c0 1.5917-0.73044 2.4465-1.7466 3.2317-1.0161 0.7852-1.8564 1.1017-2.9634 1.2527-0.95669 0.13045-1.8763 0.10748-2.625 0.06494l-0.81006 4.6143c0.90856 0.41613 1.8957 0.6329 2.895 0.63574 3.866 0 7-3.134 7-7-0.0031-1.7942-0.69496-3.5188-1.9329-4.8176 0.12492 0.66761 0.14544 1.3518 0.18296 2.0182zm-5.2569-2.4558c-0.28515-0.012426-0.57542-0.015052-0.86816 0.005127l-0.875 5.25c0.5327 0.017759 1.1295-0.00261 1.7124-0.092285 0.82528-0.12696 1.5664-0.4528 1.9978-0.82886 0.43138-0.37605 0.6648-0.89789 0.6648-1.8748 0-1.0717-0.23306-1.4971-0.50928-1.7996-0.27622-0.30245-0.72257-0.51335-1.2852-0.60669-0.27223-0.018322-0.55225-0.040552-0.8374-0.052979z" fill="#fff"/>
 </g>
</svg>
