<?xml version="1.0" encoding="UTF-8"?>
<!-- Created with Inkscape (http://www.inkscape.org/) -->
<svg id="svg2" width="16" height="16" version="1.1" xmlns="http://www.w3.org/2000/svg" xmlns:cc="http://creativecommons.org/ns#" xmlns:dc="http://purl.org/dc/elements/1.1/" xmlns:rdf="http://www.w3.org/1999/02/22-rdf-syntax-ns#" xmlns:xlink="http://www.w3.org/1999/xlink">
 <defs id="defs4">
  <linearGradient id="linearGradient3204" x1="1" x2="15" y1="9" y2="9" gradientTransform="translate(-17,-2)" gradientUnits="userSpaceOnUse">
   <stop id="stop3189-6" offset="0"/>
   <stop id="stop3191-8" stop-color="#515151" offset="1"/>
  </linearGradient>
  <linearGradient id="linearGradient3629" x2="29.017" y1="8" y2="8" gradientTransform="matrix(0,-1,1,0,0,16)" gradientUnits="userSpaceOnUse">
   <stop id="stop3330" offset="0"/>
   <stop id="stop3333" stop-opacity="0" offset="1"/>
  </linearGradient>
  <linearGradient id="linearGradient3806">
   <stop id="stop3808" stop-color="#f7e0c0" offset="0"/>
   <stop id="stop3810" stop-color="#b67e35" offset="1"/>
  </linearGradient>
  <radialGradient id="radialGradient3701" cx="54.405" cy="64" r="42" gradientTransform="matrix(.21631 7.381e-8 -6.1671e-8 .18074 -3.8439 -15.939)" gradientUnits="userSpaceOnUse" xlink:href="#linearGradient3806"/>
  <radialGradient id="radialGradient2926" cx="54.873" cy="60.598" r="42" gradientTransform="matrix(.14478 0 0 .14455 .081398 -.70744)" gradientUnits="userSpaceOnUse" xlink:href="#linearGradient3806"/>
  <radialGradient id="radialGradient2940" cx="54.405" cy="64" r="42" gradientTransform="matrix(.21631 -7.381e-8 -6.1671e-8 -.18074 -3.8439 31.939)" gradientUnits="userSpaceOnUse" xlink:href="#linearGradient3806"/>
  <linearGradient id="linearGradient3684" x1="3.9997" x2="11.004" y1="11.042" y2="11.042" gradientTransform="matrix(.71561 0 0 1.2952 .13785 -6.2635)" gradientUnits="userSpaceOnUse" spreadMethod="reflect" xlink:href="#linearGradient3921"/>
  <linearGradient id="linearGradient3921">
   <stop id="stop3923" stop-color="#6b3715" offset="0"/>
   <stop id="stop3925" stop-color="#6b3715" stop-opacity="0" offset="1"/>
  </linearGradient>
  <linearGradient id="linearGradient3687" x1="11" x2="11" y1="5.0462" y2="11.042" gradientTransform="matrix(1.1296 0 0 .83436 -4.4163 -1.1745)" gradientUnits="userSpaceOnUse" spreadMethod="reflect" xlink:href="#linearGradient3921"/>
 </defs>
 <metadata id="metadata7">
  <rdf:RDF>
   <cc:Work rdf:about="">
    <dc:format>image/svg+xml</dc:format>
    <dc:type rdf:resource="http://purl.org/dc/dcmitype/StillImage"/>
    <dc:title/>
   </cc:Work>
  </rdf:RDF>
 </metadata>
 <g id="layer1">
  <rect id="rect3196" transform="rotate(-90)" x="-16" width="16" height="16" rx="2" ry="2" fill="url(#linearGradient3204)"/>
  <path id="rect3660" d="m1 1v1h1v-1h-1zm0 2v1h1v-1h-1zm0 2v1h1v-1h-1zm0 2v1h1v-1h-1zm0 2v1h1v-1h-1zm0 2v1h1v-1h-1zm0 2v1h1v-1h-1z" color="#000000" fill="#fff"/>
  <path id="path3675" d="m14 1v1h1v-1h-1zm0 2v1h1v-1h-1zm0 2v1h1v-1h-1zm0 2v1h1v-1h-1zm0 2v1h1v-1h-1zm0 2v1h1v-1h-1zm0 2v1h1v-1h-1z" color="#000000" fill="#fff"/>
  <path id="path3343" d="m3.3333 3.0462c-0.18467 0-0.33333 0.14867-0.33333 0.33333v9.3251c0 0.18467 0.14867 0.33333 0.33333 0.33333h9.3333c0.18467 0 0.33333-0.14867 0.33333-0.33333v-9.3251c0-0.18467-0.14867-0.33333-0.33333-0.33333h-9.3333z" fill="url(#radialGradient2926)" fill-rule="evenodd"/>
  <path id="path3487" d="M 3,0 3,1.65625 C 3,1.840917 3.1590833,2 3.34375,2 l 9.3125,0 C 12.840917,2 13,1.840917 13,1.65625 L 13,0 3,0 z" fill="url(#radialGradient3701)" fill-rule="evenodd"/>
  <path id="path2843" d="m2 0.96875c-0.5832 0-1.0312 0.44805-1.0312 1.0312v1c0-0.5832 0.44805-1.0312 1.0312-1.0312h12c0.5832 0 1.0312 0.44805 1.0312 1.0312v-1c0-0.5832-0.44805-1.0312-1.0312-1.0312h-12z" fill="#fff" opacity=".25"/>
  <path id="path2938" d="m3 16v-1.6562c0-0.18467 0.15908-0.34375 0.34375-0.34375h9.3125c0.18467 0 0.34375 0.15908 0.34375 0.34375v1.6562h-10z" fill="url(#radialGradient2940)" fill-rule="evenodd"/>
  <path id="rect2835" d="m0 14c0 1.108 0.892 2 2 2h12c1.108 0 2-0.892 2-2v-12c0-1.108-0.892-2-2-2h-12c-1.108 0-2 0.892-2 2v12zm0.96875 0v-12c0-0.5832 0.44805-1.0312 1.0312-1.0312h12c0.5832 0 1.0312 0.44805 1.0312 1.0312v12c0 0.5832-0.44805 1.0312-1.0312 1.0312h-12c-0.5832 0-1.0312-0.44805-1.0312-1.0312z" fill="url(#linearGradient3629)" opacity=".4"/>
  <path id="path3355" d="m8.0095 4.4304c-1.9927 0-3.6004 1.6077-3.6004 3.6004 0 1.9927 1.6077 3.6228 3.6004 3.6228 1.9927 0 3.6004-1.63 3.6004-3.6228 0-1.9927-1.6077-3.6004-3.6004-3.6004zm0 0.71561c1.5975 0 2.8848 1.2873 2.8848 2.8848 0 1.5975-1.2873 2.9072-2.8848 2.9072-1.5975 0-2.8848-1.3096-2.8848-2.9072 0-1.5975 1.2873-2.8848 2.8848-2.8848z" fill="#915b22" fill-rule="evenodd"/>
  <path id="path3359" transform="matrix(.31242 0 0 .31242 -14.829 -14.889)" d="m82.204 73.388a9.1021 9.1021 0 1 1-18.204 0 9.1021 9.1021 0 1 1 18.204 0z" fill="#fff" fill-rule="evenodd" opacity=".4"/>
  <path id="path3363" d="m7.7037 3.0358v10.005h0.61164v-10.005h-0.61164z" fill="url(#linearGradient3687)" fill-rule="evenodd"/>
  <path id="path3369" d="m13.018 7.6879h-10.017v0.70131h10.017v-0.70131z" fill="url(#linearGradient3684)" fill-rule="evenodd"/>
  <path id="text3383" d="m7.9831 5.9889c-0.36398 3.8e-6 -0.66719 0.11171-0.90531 0.3158-0.25173 0.21431-0.37897 0.50602-0.37897 0.8632h0.69477c0.011262-0.31534 0.27143-0.56845 0.5895-0.56845 0.32522 3e-7 0.5895 0.26428 0.5895 0.5895 0 0.32522-0.26428 0.5895-0.5895 0.5895-0.01431 0-0.028053 0.00101-0.042107 0v0.40002c0.014054-0.00101 0.027798 0 0.042107 0 0.32522 0 0.5895 0.26428 0.5895 0.5895 0 0.32522-0.26428 0.5895-0.5895 0.5895-0.32522 0-0.5895-0.26428-0.5895-0.5895 0-0.051384 0.00868-0.099849 0.021054-0.14738h-0.80004c-0.0068 0.064636-2e-7 0.12485 0 0.18948-2e-7 0.3878 0.13128 0.6842 0.40002 0.90531 0.24832 0.2075 0.57046 0.3158 0.96847 0.3158 0.4048 0 0.74119-0.1083 0.98952-0.3158 0.26193-0.22451 0.37896-0.52836 0.37897-0.92636-2.7e-6 -0.4048-0.15023-0.68971-0.46318-0.8632 0.25853-0.16668 0.37896-0.4252 0.37897-0.77899-3.4e-6 -0.35037-0.13469-0.63124-0.40002-0.84215-0.24493-0.2007-0.52708-0.3158-0.88425-0.3158z"/>
 </g>
</svg>
