<?xml version="1.0" encoding="UTF-8"?>
<!-- Created with Inkscape (http://www.inkscape.org/) -->
<svg id="svg2" width="16" height="16" version="1.1" xmlns="http://www.w3.org/2000/svg" xmlns:cc="http://creativecommons.org/ns#" xmlns:dc="http://purl.org/dc/elements/1.1/" xmlns:rdf="http://www.w3.org/1999/02/22-rdf-syntax-ns#" xmlns:xlink="http://www.w3.org/1999/xlink">
 <defs id="defs4">
  <linearGradient id="linearGradient3204" x1="1" x2="15" y1="9" y2="9" gradientTransform="translate(-17 -1.9619)" gradientUnits="userSpaceOnUse">
   <stop id="stop3189-9" stop-color="#1d5282" offset="0"/>
   <stop id="stop3191-8" stop-color="#568fc2" offset="1"/>
  </linearGradient>
  <linearGradient id="linearGradient3629" x2="29.017" y1="8" y2="8" gradientTransform="matrix(0,-1,1,0,0,16)" gradientUnits="userSpaceOnUse">
   <stop id="stop3330" offset="0"/>
   <stop id="stop3333" stop-opacity="0" offset="1"/>
  </linearGradient>
 </defs>
 <metadata id="metadata7">
  <rdf:RDF>
   <cc:Work rdf:about="">
    <dc:format>image/svg+xml</dc:format>
    <dc:type rdf:resource="http://purl.org/dc/dcmitype/StillImage"/>
    <dc:title/>
   </cc:Work>
  </rdf:RDF>
 </metadata>
 <g id="layer1">
  <rect id="rect3196" transform="rotate(-90)" x="-16" y=".038149" width="16" height="16" rx="2" ry="2" fill="url(#linearGradient3204)"/>
  <path id="rect2835" d="m0 14c0 1.108 0.892 2 2 2h12c1.108 0 2-0.892 2-2v-12c0-1.108-0.892-2-2-2h-12c-1.108 0-2 0.892-2 2v12zm0.96875 0v-12c0-0.5832 0.44805-1.0312 1.0312-1.0312h12c0.5832 0 1.0312 0.44805 1.0312 1.0312v12c0 0.5832-0.44805 1.0312-1.0312 1.0312h-12c-0.5832 0-1.0312-0.44805-1.0312-1.0312z" fill="url(#linearGradient3629)" opacity=".4"/>
  <path id="path2843" d="m2 0.96875c-0.5832 0-1.0312 0.44805-1.0312 1.0312v1c0-0.5832 0.44805-1.0312 1.0312-1.0312h12c0.5832 0 1.0312 0.44805 1.0312 1.0312v-1c0-0.5832-0.44805-1.0312-1.0312-1.0312h-12z" fill="#fff" opacity=".2"/>
  <path id="path2991" d="m7.9688 2c-1.1007 0-2 0.9367-2 2.0625 0 1.0185 0.73322 1.8481 1.6875 2-1.785 0.00283-3.4303 0-5.3438 0-0.14592-0.026-0.27969 0.1865-0.28125 0.3125-0.0014 0.126 0.07554 0.22265 0.1875 0.28125l3.1875 0.84375s0.54524 0.914 0.59375 1.4375c0.13915 1.5019-0.3125 4.5625-0.3125 4.5625-0.10452 0.1561-0.06302 0.36455 0.09375 0.46875 0.15678 0.1041 0.36422 0.06225 0.46875-0.09375l1.7188-3.375 1.75 3.375c0.09291 0.1621 0.30616 0.2175 0.46875 0.125 0.16259-0.092 0.21791-0.30675 0.125-0.46875 0 0-0.39678-3.0364-0.3125-4.5312 0.03002-0.5325 0.46875-1.5312 0.46875-1.5312l3.375-0.8125c0.12601-0.088 0.21083-0.26285 0.15625-0.40625-0.05459-0.1435-0.2221-0.23615-0.375-0.21875-1.638 0-3.5117-0.00277-5.25 0 0.90836-0.19028 1.5938-0.98359 1.5938-1.9688 0-1.1258-0.89931-2.0625-2-2.0625z" fill="#fff"/>
 </g>
</svg>
