<?xml version="1.0" encoding="UTF-8"?>
<!-- Created with Inkscape (http://www.inkscape.org/) -->
<svg id="svg2" width="16" height="16" version="1.1" xmlns="http://www.w3.org/2000/svg" xmlns:cc="http://creativecommons.org/ns#" xmlns:dc="http://purl.org/dc/elements/1.1/" xmlns:rdf="http://www.w3.org/1999/02/22-rdf-syntax-ns#" xmlns:xlink="http://www.w3.org/1999/xlink">
 <defs id="defs4">
  <linearGradient id="linearGradient3204" x1="1" x2="15" y1="9" y2="9" gradientTransform="translate(-17,-2)" gradientUnits="userSpaceOnUse">
   <stop id="stop3702" stop-color="#509528" offset="0"/>
   <stop id="stop3704" stop-color="#78cd46" offset="1"/>
  </linearGradient>
  <linearGradient id="linearGradient3629" x2="29.017" y1="8" y2="8" gradientTransform="matrix(0,-1,1,0,0,16)" gradientUnits="userSpaceOnUse">
   <stop id="stop3330" offset="0"/>
   <stop id="stop3333" stop-opacity="0" offset="1"/>
  </linearGradient>
 </defs>
 <metadata id="metadata7">
  <rdf:RDF>
   <cc:Work rdf:about="">
    <dc:format>image/svg+xml</dc:format>
    <dc:type rdf:resource="http://purl.org/dc/dcmitype/StillImage"/>
    <dc:title/>
   </cc:Work>
  </rdf:RDF>
 </metadata>
 <g id="layer1">
  <rect id="rect3196" transform="rotate(-90)" x="-16" width="16" height="16" rx="2" ry="2" fill="url(#linearGradient3204)"/>
  <path id="rect2835" d="m0 14c0 1.108 0.892 2 2 2h12c1.108 0 2-0.892 2-2v-12c0-1.108-0.892-2-2-2h-12c-1.108 0-2 0.892-2 2v12zm0.96875 0v-12c0-0.5832 0.44805-1.0312 1.0312-1.0312h12c0.5832 0 1.0312 0.44805 1.0312 1.0312v12c0 0.5832-0.44805 1.0312-1.0312 1.0312h-12c-0.5832 0-1.0312-0.44805-1.0312-1.0312z" fill="url(#linearGradient3629)" opacity=".4"/>
  <path id="path2843" d="m2 0.96875c-0.5832 0-1.0312 0.44805-1.0312 1.0312v1c0-0.5832 0.44805-1.0312 1.0312-1.0312h12c0.5832 0 1.0312 0.44805 1.0312 1.0312v-1c0-0.5832-0.44805-1.0312-1.0312-1.0312h-12z" fill="#fff" opacity=".3"/>
  <path id="path3700" d="m5.5312 3.0312c-1.1166 1.04e-5 -2.0827 0.42255-2.7812 1.25-0.78583 0.92964-1.1875 2.183-1.1875 3.6875-7e-7 1.1239 0.23825 2.1148 0.6875 2.9688 0.63087 1.1754 1.6671 1.8608 2.9375 1.9688 0.17823 0.5439 0.45925 1.041 0.9375 1.3438 0.58041 0.36736 1.3455 0.45917 2.3125 0.3125a0.46885 0.46885 0 0 0 0.40625-0.46875v-0.875a0.46885 0.46885 0 0 0-0.5-0.46875c-0.32898 0.03032-0.37974-0.01725-0.4375-0.09375-0.04471-0.05922-0.088292-0.28604-0.125-0.53125 0.19397-0.157 0.40413-0.31023 0.5625-0.5 0.75789-0.91004 1.0937-2.1504 1.0938-3.6562-5e-7 -0.066753-0.029766-0.12155-0.03125-0.1875h0.3125v2.4062c-1e-6 0.81948 0.088042 1.4119 0.40625 1.875 0.40656 0.60041 1.1753 0.84375 2.125 0.84375 0.3291-1e-6 0.71838-0.02535 1.1875-0.125a0.46885 0.46885 0 0 0 0.375-0.46875v-1.4375a0.46885 0.46885 0 0 0-0.5-0.46875c-0.305 0.01705-0.53388 0.03126-0.65625 0.03125-0.17283 1e-6 -0.23095-0.04552-0.21875-0.03125-0.017713-0.074882-0.031251-0.22075-0.03125-0.40625v-2.2188h0.84375a0.46885 0.46885 0 0 0 0.46875-0.46875v-1.4688a0.46885 0.46885 0 0 0-0.46875-0.46875h-0.84375v-1.5625a0.46885 0.46885 0 0 0-0.46875-0.46875l-1.2812 0.03125a0.46885 0.46885 0 0 0-0.46875 0.375l-0.34375 1.625h-0.5a0.46885 0.46885 0 0 0-0.375 0.1875c-0.076664-0.19488-0.11933-0.41177-0.21875-0.59375-0.69586-1.2522-1.8329-1.9375-3.2188-1.9375zm0 2.5938c0.33662 2.5e-6 0.5007 0.10589 0.6875 0.46875s0.3125 1.0048 0.3125 1.9062c-2.5e-6 0.90142-0.12752 1.5528-0.3125 1.9062-0.18498 0.35342-0.34589 0.4375-0.6875 0.4375-0.34829 0-0.52816-0.10795-0.71875-0.46875-0.19059-0.3608-0.3125-1.0017-0.3125-1.9062v-0.21875c0.022498-0.81781 0.15737-1.3966 0.34375-1.7188s0.35714-0.40625 0.6875-0.40625z" opacity=".1"/>
  <path id="path3696" d="m5.5312 3.4881c-1.0032 9.3e-6 -1.8214 0.36392-2.4375 1.0938-0.70302 0.83168-1.0625 1.9493-1.0625 3.375-7e-7 1.0608 0.21425 1.9692 0.625 2.75 0.62403 1.1626 1.5874 1.75 2.875 1.75 0.2782 1.2424 1.0388 1.8988 2.8438 1.625v-0.875c-0.84023 0.07744-1.0283-0.4015-1.0938-1.2188v-0.0625c0.25277-0.16124 0.48212-0.37889 0.6875-0.625 0.67142-0.80621 0.99999-1.9095 1-3.3437-7.5e-6 -1.0693-0.19845-2-0.625-2.7812-0.63194-1.1372-1.5644-1.6875-2.8125-1.6875zm6.4062 0.3125-1.2812 0.03125-0.40625 2h-0.90625v1.4688h0.84375v2.875c-1e-6 0.78076 0.09675 1.311 0.3125 1.625 0.27168 0.41584 0.86305 0.625 1.75 0.625 0.29564-1e-6 0.65427-0.03165 1.0938-0.125v-1.4375c-0.30364 0.01697-0.53568 0.03126-0.6875 0.03125-0.24771 2e-6 -0.42738-0.04012-0.53125-0.125-0.12785-0.10184-0.1875-0.36541-0.1875-0.78125v-2.6875h1.3125v-1.4688h-1.3125v-2.0312zm-6.4062 1.3438c0.97948 7.4e-6 1.4687 0.95976 1.4688 2.8438-5.3e-6 1.884-0.48927 2.8125-1.4688 2.8125-0.99529 1e-6 -1.5-0.95127-1.5-2.8437v-0.21875c0.047392-1.7227 0.5521-2.5937 1.5-2.5938z" opacity=".4"/>
  <path id="path3692" d="m5.5312 3.0312c-1.0032 9.3e-6 -1.8214 0.36392-2.4375 1.0938-0.70302 0.83168-1.0625 1.9493-1.0625 3.375-7e-7 1.0608 0.21425 1.9692 0.625 2.75 0.62403 1.1626 1.5874 1.75 2.875 1.75 0.2782 1.2424 1.0388 1.8988 2.8438 1.625v-0.875c-0.84023 0.07744-1.0283-0.4015-1.0938-1.2188v-0.0625c0.25277-0.16124 0.48212-0.37889 0.6875-0.625 0.67142-0.80621 0.99999-1.9095 1-3.3438-7.5e-6 -1.0693-0.19845-2.0005-0.625-2.7812-0.63194-1.1372-1.5644-1.6875-2.8125-1.6875zm6.4062 0.3125-1.2812 0.03125-0.40625 2h-0.90625v1.4688h0.84375v2.875c-1e-6 0.78076 0.096755 1.311 0.3125 1.625 0.27168 0.41584 0.86305 0.625 1.75 0.625 0.29564-1e-6 0.65427-0.031648 1.0938-0.125v-1.4375c-0.30364 0.01697-0.53568 0.03126-0.6875 0.03125-0.24771 2e-6 -0.42738-0.040124-0.53125-0.125-0.12785-0.10184-0.1875-0.36541-0.1875-0.78125v-2.6875h1.3125v-1.4688h-1.3125v-2.0312zm-6.4062 1.3438c0.97948 7.4e-6 1.4687 0.95976 1.4688 2.8438-5.3e-6 1.884-0.48927 2.8125-1.4688 2.8125-0.99529 1e-6 -1.5-0.95127-1.5-2.8438v-0.21875c0.047392-1.7227 0.5521-2.5937 1.5-2.5938z" fill="#fff"/>
 </g>
</svg>
