<?xml version="1.0" encoding="UTF-8"?>
<svg id="svg2" width="16" height="16" version="1.1" xmlns="http://www.w3.org/2000/svg" xmlns:cc="http://creativecommons.org/ns#" xmlns:dc="http://purl.org/dc/elements/1.1/" xmlns:rdf="http://www.w3.org/1999/02/22-rdf-syntax-ns#">
 <metadata id="metadata33">
  <rdf:RDF>
   <cc:Work rdf:about="">
    <dc:format>image/svg+xml</dc:format>
    <dc:type rdf:resource="http://purl.org/dc/dcmitype/StillImage"/>
   </cc:Work>
  </rdf:RDF>
 </metadata>
 <defs id="defs4">
  <linearGradient id="linearGradient3204" x1="1" x2="15" y1="9" y2="9" gradientTransform="translate(-17,-2)" gradientUnits="userSpaceOnUse">
   <stop id="stop3189" stop-color="#0053c5" offset="0"/>
   <stop id="stop3191" stop-color="#00a2ff" offset="1"/>
  </linearGradient>
  <linearGradient id="linearGradient3629" x2="29.017" y1="8" y2="8" gradientTransform="matrix(0,-1,1,0,0,16)" gradientUnits="userSpaceOnUse">
   <stop id="stop3330" offset="0"/>
   <stop id="stop3333" stop-opacity="0" offset="1"/>
  </linearGradient>
 </defs>
 <g id="layer1">
  <rect id="rect3196" transform="rotate(-90)" x="-16" width="16" height="16" rx="2" ry="2" fill="url(#linearGradient3204)"/>
  <path id="rect2835" d="m0 14c0 1.108 0.892 2 2 2h12c1.108 0 2-0.892 2-2v-12c0-1.108-0.892-2-2-2h-12c-1.108 0-2 0.892-2 2v12zm0.96875 0v-12c0-0.5832 0.44805-1.0312 1.0312-1.0312h12c0.5832 0 1.0312 0.44805 1.0312 1.0312v12c0 0.5832-0.44805 1.0312-1.0312 1.0312h-12c-0.5832 0-1.0312-0.44805-1.0312-1.0312z" fill="url(#linearGradient3629)" opacity=".4"/>
  <path id="path2843" d="m2 0.96875c-0.5832 0-1.0312 0.44805-1.0312 1.0312v1c0-0.5832 0.44805-1.0312 1.0312-1.0312h12c0.5832 0 1.0312 0.44805 1.0312 1.0312v-1c0-0.5832-0.44805-1.0312-1.0312-1.0312h-12z" fill="#fff" opacity=".35"/>
 </g>
 <defs id="defs21">
  <linearGradient id="a" x1="8" x2="8" y1="3" y2="11.337" gradientUnits="userSpaceOnUse">
   <stop id="stop16" stop-color="#fff" offset="0"/>
   <stop id="stop18" stop-color="#fff" offset="1"/>
  </linearGradient>
 </defs>
 <g id="main" transform="translate(1 1) scale(.85714)">
  <path id="path23" d="m1.5945 11.779c-0.35909-0.84379-0.54282-1.7056-0.58524-2.7453-0.057783-1.4161 0.15473-2.6341 0.66462-3.8091 0.22981-0.52958 0.24148-0.54309 0.63384-0.73418 1.0337-0.50342 2.4797-0.62897 3.819-0.33157 1.2449 0.27643 2.9293 0.80642 4.6212 1.7198 0.34879 0.18829 0.9956 0.52313 1.4432 0.73187l0.80899 0.38951-1.4114 0.036966c-1.2938 0.033884-1.559 0.20809-2.2005 0.3541-1.1013 0.25062-1.8398 0.52502-2.8491 1.0586-1.4708 0.77752-2.5256 1.6132-3.8683 3.065-0.4185 0.45248-0.77838 0.82268-0.79973 0.82268-0.021352 0-0.14573-0.25122-0.27641-0.55827z" opacity=".3"/>
  <path id="base" d="m1.5945 10.779c-0.35909-0.84379-0.54282-1.7056-0.58524-2.7453-0.057783-1.4161 0.15473-2.6341 0.66462-3.8091 0.22981-0.52958 0.24148-0.54309 0.63384-0.73418 1.0337-0.50342 2.4797-0.62897 3.819-0.33157 1.2449 0.27643 2.9293 0.80642 4.6212 1.7198 0.34879 0.18829 0.9956 0.52313 1.4432 0.73187l0.80899 0.38951-1.4114 0.036966c-1.2938 0.033884-1.559 0.20809-2.2005 0.3541-1.1013 0.25062-1.8398 0.52502-2.8491 1.0586-1.4708 0.77752-2.5256 1.6132-3.8683 3.065-0.4185 0.45248-0.77838 0.82268-0.79973 0.82268-0.021352 0-0.14573-0.25122-0.27641-0.55827z" fill="url(#a)"/>
  <path id="path27" d="m6.0664 7.7246c-1.2273 0.70707-2.2068 1.5028-3.3965 2.7891-0.34397 0.37189-0.54689 0.57686-0.65625 0.67773 0.094026-0.032048 0.20579-0.072467 0.39648-0.18164 0.51532-0.29502 1.5769-0.71024 2.207-0.86524 0.55348-0.13614 1.627-0.13399 2.1523 0.00586 0.22894 0.060942 0.9012 0.35536 1.4941 0.6543 1.4367 0.7243 1.9262 0.93075 2.5684 1.0781 0.867 0.19898 2.2053 0.14158 3.4551-0.14648 0.85229-0.19644 0.89201-0.2296 0.37695-0.33398-0.5534-0.11216-1.3656-0.40817-1.8789-0.68555-0.22056-0.11919-1.0414-0.6087-1.8262-1.0859-1.6622-1.0108-1.9181-1.1508-2.5762-1.4316-0.70939-0.30268-1.4395-0.47406-2.0293-0.47461h-0.28711z" fill="#fff" opacity=".45"/>
 </g>
</svg>
