<?xml version="1.0" encoding="UTF-8"?>
<!-- Created with Inkscape (http://www.inkscape.org/) -->
<svg id="svg2" width="16" height="16" version="1.1" xmlns="http://www.w3.org/2000/svg" xmlns:cc="http://creativecommons.org/ns#" xmlns:dc="http://purl.org/dc/elements/1.1/" xmlns:rdf="http://www.w3.org/1999/02/22-rdf-syntax-ns#" xmlns:xlink="http://www.w3.org/1999/xlink">
 <defs id="defs4">
  <linearGradient id="linearGradient3204" x1="1" x2="15" y1="9" y2="9" gradientTransform="translate(-1,-2)" gradientUnits="userSpaceOnUse">
   <stop id="stop6917-0" stop-color="#878787" offset="0"/>
   <stop id="stop6919-1" stop-color="#454545" offset="1"/>
  </linearGradient>
  <linearGradient id="linearGradient3629" x2="29.017" y1="8" y2="8" gradientTransform="matrix(0,-1,1,0,0,16)" gradientUnits="userSpaceOnUse">
   <stop id="stop3330" offset="0"/>
   <stop id="stop3333" stop-opacity="0" offset="1"/>
  </linearGradient>
  <linearGradient id="linearGradient4177" x1="-43" x2="-43" y1="69" y2="31" gradientTransform="translate(90,1)" gradientUnits="userSpaceOnUse" xlink:href="#linearGradient3155"/>
  <linearGradient id="linearGradient3155">
   <stop id="stop3157" stop-color="#ce0000" offset="0"/>
   <stop id="stop3159" stop-color="#f50000" offset="1"/>
  </linearGradient>
  <linearGradient id="linearGradient4179" x1="-43" x2="-43" y1="69" y2="31" gradientTransform="matrix(.24082 0 0 .24082 32.871 -18.144)" gradientUnits="userSpaceOnUse" xlink:href="#linearGradient3155"/>
  <linearGradient id="linearGradient4185" x1="310.24" x2="317.93" y1="66.92" y2="102.56" gradientTransform="matrix(.4605 0 0 .4605 -124 -39.767)" gradientUnits="userSpaceOnUse">
   <stop id="stop5276" stop-color="#feb3b3" offset="0"/>
   <stop id="stop5278" stop-color="#fc3e3e" stop-opacity="0" offset="1"/>
  </linearGradient>
  <linearGradient id="linearGradient4187" x1="-42.469" x2="-17.531" y1="42.391" y2="42.391" gradientTransform="matrix(.24082 0 0 .24082 32.871 -18.144)" gradientUnits="userSpaceOnUse" xlink:href="#linearGradient3155"/>
  <linearGradient id="linearGradient4189" x1="-42.469" x2="-17.531" y1="42.391" y2="42.391" gradientTransform="translate(90,1)" gradientUnits="userSpaceOnUse" xlink:href="#linearGradient3155"/>
  <linearGradient id="linearGradient4193" x1="313.22" x2="326.33" y1="83.392" y2="62.563" gradientTransform="matrix(.38916 0 0 .39117 -100.97 -35.22)" gradientUnits="userSpaceOnUse">
   <stop id="stop5242" stop-color="#fd6161" offset="0"/>
   <stop id="stop5244" stop-color="#fec5c5" offset="1"/>
  </linearGradient>
  <linearGradient id="linearGradient4293" x1="313.22" x2="326.33" y1="83.392" y2="62.563" gradientTransform="matrix(.38916 0 0 .39117 -100.97 -35.22)" gradientUnits="userSpaceOnUse">
   <stop id="stop5248" stop-color="#fd6161" offset="0"/>
   <stop id="stop5250" stop-color="#fec5c5" offset="1"/>
  </linearGradient>
 </defs>
 <metadata id="metadata7">
  <rdf:RDF>
   <cc:Work rdf:about="">
    <dc:format>image/svg+xml</dc:format>
    <dc:type rdf:resource="http://purl.org/dc/dcmitype/StillImage"/>
    <dc:title/>
   </cc:Work>
  </rdf:RDF>
 </metadata>
 <g id="layer1">
  <rect id="rect3196" transform="matrix(0,1,1,0,0,0)" width="16" height="16" rx="2" ry="2" fill="url(#linearGradient3204)"/>
  <path id="rect2835" d="m0 14c0 1.108 0.892 2 2 2h12c1.108 0 2-0.892 2-2v-12c0-1.108-0.892-2-2-2h-12c-1.108 0-2 0.892-2 2v12zm0.96875 0v-12c0-0.5832 0.44805-1.0312 1.0312-1.0312h12c0.5832 0 1.0312 0.44805 1.0312 1.0312v12c0 0.5832-0.44805 1.0312-1.0312 1.0312h-12c-0.5832 0-1.0312-0.44805-1.0312-1.0312z" fill="url(#linearGradient3629)" opacity=".4"/>
  <path id="path2843" d="m2 0.96875c-0.5832 0-1.0312 0.44805-1.0312 1.0312v1c0-0.5832 0.44805-1.0312 1.0312-1.0312h12c0.5832 0 1.0312 0.44805 1.0312 1.0312v-1c0-0.5832-0.44805-1.0312-1.0312-1.0312h-12z" fill="#fff" opacity=".15"/>
  <g id="g4120" transform="matrix(.875 0 0 .875 -11.906 13.581)">
   <path id="path4725-4" transform="matrix(.24082 0 0 .24082 11.198 -18.385)" d="m38.625 28.531c-0.75826 0.10567-1.4546 0.46657-1.9062 0.96875s-0.66252 1.0976-0.78125 1.6562c-0.23746 1.1173-0.11284 2.2113-0.09375 2.9375a1.1576 1.1576 0 0 0 0.03125 0.21875 1.1576 1.1576 0 0 0 0 0.03125c-0.26416 7.17e-4 -0.56444-0.02819-1.1562 0.03125a1.1576 1.1576 0 0 0-0.15625 0.03125c-1.2717 0.30205-1.9656 1.2981-2.4062 2.0938-0.38604 0.69695-0.66684 1.2196-0.90625 1.5312-1.1483 0.11141-2.1595 0.59731-2.8438 1.25-0.65391 0.6237-1.0944 1.1789-1.5625 1.6562-0.02363-0.15033 0.0053-0.25458-0.03125-0.40625-0.13329-0.55339-0.36987-1.1442-0.84375-1.625s-1.1788-0.78278-1.9375-0.84375a1.1576 1.1576 0 0 0-0.125 0c-2.1097 0.07145-4.6095-0.3674-7.125 0.25a1.1576 1.1576 0 0 0-0.3125 0.125c-1.3409 0.81892-1.7116 2.3141-1.7188 3.4688-0.0071 1.1546 0.15368 2.2141 0.0625 2.8125a1.1576 1.1576 0 0 0 0 0.25c0.10636 2.3179-0.50523 5.1722 0.8125 7.9375 0.75115 1.9876 1.3279 3.7887 1.0938 5.6562h0.03125c-0.45046 2.4118 1.769 4.4151 4.0938 4.0312v0.03125c1.6021-0.05701 3.593 0.09416 5.4375-0.15625 1.017 1.0399 2.1361 2.3023 3.7812 3.0312a1.1576 1.1576 0 0 0 0.40625 0.09375c1.5399 0.08107 2.9922-0.03099 4.4062-0.0625 1.8969 2.2599 3.6374 4.8335 5.875 7.0625a1.1576 1.1576 0 0 0 0.5 0.3125c2.5202 0.67954 4.9677 0.13294 6.9688 0.28125a1.1576 1.1576 0 0 0 0.125 0c3.6647-0.08298 7.4621 0.18002 11.281-0.125a1.1576 1.1576 0 0 0 0.46875-0.15625c1.6-0.92157 2.8592-2.0825 4.0938-3.0312 0.03186 0.04361 0.02827 0.11505 0.0625 0.15625 0.42461 0.51105 0.95825 0.81827 1.5 1 1.0725 0.35977 2.1671 0.31193 3.0312 0.21875 0.0089-9.56e-4 0.02244 9.65e-4 0.03125 0 1.3174-0.09824 3.0269 0.1292 4.7812 0 1.7658-0.13004 3.7108-0.76754 4.9062-2.6562a1.1576 1.1576 0 0 0 0.0625-0.09375c2.294-4.3015 2.1955-9.1618 2.625-13.438a1.1576 1.1576 0 0 0 0-0.15625c-0.08642-4.7654-1.9368-9.1629-3.5625-13.25a1.1576 1.1576 0 0 0-0.125-0.25c-0.88433-1.2053-2.3073-1.4758-3.4062-1.4688s-2.084 0.15193-2.6562 0.0625a1.1576 1.1576 0 0 0-0.1875 0h-7.25c-0.23473-0.85718-0.65906-1.6131-1.1875-2.125-0.78619-0.7616-1.5963-1.3354-1.9688-1.8125a1.1576 1.1576 0 0 0 0-0.03125c-0.83037-1.0116-2.0338-1.4522-3.2812-1.5938 0.01765-0.62252 0.04707-1.242 0.03125-2.0938-0.01122-0.60392-0.08851-1.2628-0.375-1.9062-0.28649-0.64349-0.83234-1.2456-1.5625-1.625a1.1576 1.1576 0 0 0-0.4375-0.125c-4.11-0.37298-8.1872-0.05655-12.125-0.15625a1.1576 1.1576 0 0 0-0.03125 0h-4.2812a1.1576 1.1576 0 0 0-0.15625 0zm0.625 15.969c4.9633 0.03961 10.008-0.05605 14.781 0.09375 0.10282 0.55663 0.30689 1.0857 0.59375 1.5 0.52156 0.75332 1.1813 1.2828 1.7812 1.7188 0.44759 0.33457 0.97003 0.91225 1.6875 1.4688 0.45381 0.35199 1.0806 0.65284 1.75 0.8125 0.0034 0.61256-0.07933 1.2038 0.15625 1.8438 0.38724 1.052 1.4927 2.0922 2.9375 2.0938a1.1576 1.1576 0 0 0 0.03125 0c2.4871-0.08903 5.1872 0.10658 7.9062-0.15625 0.01498 0.04679 0.01729 0.03736 0.03125 0.09375 0.11508 0.46491 0.1953 1.2037 0.1875 1.9062-0.0071 0.63576-0.12218 1.19-0.21875 1.5-3.74-0.01184-7.5611-0.13881-11.375 0.0625a1.1576 1.1576 0 0 0-0.28125 0.0625c-0.70465 0.2269-1.2986 0.67873-1.6562 1.2188s-0.49752 1.118-0.5625 1.6562c-0.10579 0.87627-0.04421 1.5826-0.03125 2.1875-0.20952 0.20674-0.38993 0.38294-0.75 0.4375-0.46454 0.07039-1.1182 0.01506-1.875 0a1.1576 1.1576 0 0 0-0.03125 0h-8.4688c-1.8897-2.2668-3.6368-4.8285-5.8438-7.0625a1.1576 1.1576 0 0 0-0.34375-0.25c-1.5899-0.71912-3.0063-0.49977-4.1875-0.40625 0.01464-2.3619 0.07048-4.7528 0.0625-7.1562 1.3936-0.2362 2.5408-1.2673 3.0625-2.5938l0.03125 0.03125 0.625-1.0625z" color="#000000" fill="url(#linearGradient4177)" opacity=".1" style="block-progression:tb;text-indent:0;text-transform:none"/>
   <path id="path4711-3" d="m20.537-11.236c-0.51606 0.07192-0.43894 0.67178-0.42896 1.0515 0.14163 0.43849-0.22931 0.32666-0.51926 0.35578-0.39813 0.094565-0.45266 0.60617-0.69988 0.85039-0.54569-0.080404-0.81013 0.5014-1.174 0.79018-0.24501 0.30887-0.09209 0.73687-0.13546 1.0987-0.36598 0.03088-0.0854-0.5848-0.17309-0.83222 0.01578-0.37415 0.07045-0.97773-0.44401-1.0191-0.54716 0.018528-1.1264-0.077224-1.6556 0.05268-0.44916 0.27432-0.19764 0.88508-0.26339 1.3167 0.02825 0.61557-0.10394 1.2589 0.18052 1.8288 0.18357 0.48574 0.34453 0.97514 0.27854 1.5014-0.09066 0.41929 0.30609 0.75712 0.71108 0.65872 0.46378-0.016503 1.0029 0.04113 1.4186-0.045154 0.27925 0.27476 0.5554 0.59937 0.91812 0.76008 0.39028 0.020546 0.78282-0.01207 1.174-0.015051 0.50406 0.58378 0.93986 1.243 1.4825 1.7836 0.51891 0.13991 1.0868 0.020378 1.6242 0.060204 0.89946-0.020366 1.811 0.041142 2.703-0.030102 0.43715-0.25179 0.84836-0.68068 1.2492-0.92564 0.0035 0.50527 0.58048 0.53026 0.95574 0.48916 0.72706-0.05685 1.6607 0.22928 2.1297-0.51174 0.50841-0.95333 0.49641-2.0866 0.60204-3.1382-0.01954-1.0778-0.44299-2.1066-0.83534-3.093-0.29225-0.39832-0.86094-0.16071-1.2773-0.22577h-1.9738c0.06728-0.50218-0.48814-0.7181-0.75001-1.0535-0.21198-0.25823-0.52933-0.36825-0.86046-0.31611-0.06622-0.4464 0.19758-1.0955-0.30102-1.3546-0.95861-0.08699-1.9395-0.01314-2.9067-0.03763h-1.0291zm-0.04515 3.2887c1.322 0.015082 2.7042-0.030145 3.9885 0.022577-0.08792 0.37531 0.19242 0.62822 0.4634 0.82512 0.28087 0.20995 0.52328 0.58354 0.9213 0.52948-0.04723 0.3671 0.0042 0.9176 0.48916 0.91812 0.67562-0.024186 1.365 0.049465 2.0319-0.037628 0.26113-0.034143 0.32517 1.6081-0.09783 1.3998-0.91345-0.00243-1.8369-0.032977-2.7468 0.015051-0.47191 0.15195-0.32532 0.71386-0.34618 1.0912-0.22599 0.3106-0.58102 0.25507-0.91884 0.24834h-2.1666c-0.50071-0.58506-0.93818-1.2402-1.475-1.7836-0.3613-0.16342-0.78726-0.018071-1.174-0.060204-0.0018-0.76584 0.02618-1.5282 0.01505-2.2953 0.35461 0.073028 0.67352-0.14591 0.78266-0.48163 0.07777-0.13044 0.15553-0.26089 0.23329-0.39133z" color="#000000" fill="url(#linearGradient4179)" opacity=".15" style="block-progression:tb;text-indent:0;text-transform:none"/>
   <path id="path4703-6" transform="matrix(.24082 0 0 .24082 11.198 -18.385)" d="m38.938 30.719a0.99091 0.99091 0 0 0-0.90625 1v3.8438a0.99091 0.99091 0 0 0 0.65625 0.9375h-2.3438-1.0938a0.99091 0.99091 0 0 0-0.84375 0.5l-0.5625 0.9375-1.25 2.1562h-0.65625-0.8125a0.99091 0.99091 0 0 0-0.6875 0.3125l-0.5625 0.5625-1.5 1.5a0.99091 0.99091 0 0 0-0.03125 0l-0.53125 0.5625a0.99091 0.99091 0 0 0-0.28125 0.6875v0.78125 3.4375h-2.7812v-6.7188a0.99091 0.99091 0 0 0-1-1h-5.75a0.99091 0.99091 0 0 0-1 1v8.375 0.46875a0.99091 0.99091 0 0 0 0.0625 0.34375l0.15625 0.40625v0.03125l1.6875 5v3.5938a0.99091 0.99091 0 0 0 1 1h5.75a0.99091 0.99091 0 0 0 1-1v-4.1562-0.46875a0.99091 0.99091 0 0 0-0.0625-0.3125l-0.15625-0.46875-0.09375-0.28125h1.125v5.625 0.875a0.99091 0.99091 0 0 0 0.34375 0.75l0.625 0.5625 1.25 1.125 0.5625 0.5a0.99091 0.99091 0 0 0 0.65625 0.25h0.75a0.99091 0.99091 0 0 0 0.03125 0l4.1875-0.09375 5.3125 6.5625 0.5625 0.71875a0.99091 0.99091 0 0 0 0.78125 0.375h0.9375 7.375 7.375 0.65625a0.99091 0.99091 0 0 0 0.625-0.21875l0.5-0.40625 3.875-3.0312 0.71875-0.5625a0.99091 0.99091 0 0 0 0.375-0.78125v-0.65625h0.78125v0.8125 1.9062a0.99091 0.99091 0 0 0 1 1h1.9375 5.125c1.5625 0 2.4925-1.0833 2.875-1.6562 0.37751-0.56541 0.60574-1.128 0.78125-1.6562 0.3588-1.0799 0.57673-2.2872 0.78125-3.5625 0.41166-2.5669 0.68437-5.4154 0.75-7.1875a0.99091 0.99091 0 0 0 0-0.03125v-0.03125c3.11e-4 -0.01024-2.81e-4 -0.02101 0-0.03125 0.06562-2.3963-0.71396-4.8626-1.375-6.9688-0.67237-2.1422-1.3307-3.8423-1.3438-3.875h-0.03125v-0.03125l-0.4375-1.1875a0.99091 0.99091 0 0 0-0.9375-0.65625h-1.3125-4.875-1.9375-1.9062-2.7188l-0.09375-0.0625v-0.71875-0.8125a0.99091 0.99091 0 0 0-0.34375-0.75l-0.59375-0.53125-0.03125-0.03125-2.0938-2a0.99091 0.99091 0 0 0-0.03125-0.03125l-0.5625-0.5a0.99091 0.99091 0 0 0-0.65625-0.25h-0.75-2.3438a0.99091 0.99091 0 0 0 0.71875-0.9375v-3.8438a0.99091 0.99091 0 0 0-1-1h-15.312a0.99091 0.99091 0 0 0-0.09375 0zm-0.90625 11.594h17.812l0.34375 0.3125v0.8125 0.875a0.99091 0.99091 0 0 0 0.375 0.78125l0.65625 0.53125 0.03125 0.03125 1.875 1.6562a0.99091 0.99091 0 0 0 0.03125 0l0.5625 0.46875a0.99091 0.99091 0 0 0 0.625 0.25h0.6875 0.90625v0.90625 1.9062a0.99091 0.99091 0 0 0 1 1h1.9062 3.8438 1.9062a0.99091 0.99091 0 0 0 1-1v-1.9062-0.78125c0.14431 0.39049 0.26763 0.6601 0.53125 1.5 0.29894 0.95243 0.58007 2.0461 0.78125 3s0.29322 1.8329 0.28125 2.1562c-0.05388 1.455-0.26656 4.2337-0.625 6.4688-0.12939 0.8068-0.29052 1.3819-0.4375 1.9375h-0.53125v-0.78125-1.9062a0.99091 0.99091 0 0 0-1-1h-1.9062-6.625-1.9062a0.99091 0.99091 0 0 0-1 1v1.9062 1.1875l-1.9688 1.5625h-6.3438-6l-5.3125-6.625a0.99091 0.99091 0 0 0-0.03125 0l-0.59375-0.71875a0.99091 0.99091 0 0 0-0.78125-0.375l-0.9375 0.03125-3.9062 0.0625v-4.4688a0.99091 0.99091 0 0 0 0.0625-0.34375v-1.9062-4.9062h0.90625 1.0938a0.99091 0.99091 0 0 0 0.84375-0.5l0.5625-0.96875 1.2812-2.1562z" color="#000000" fill="url(#linearGradient4177)" opacity=".3" style="block-progression:tb;text-indent:0;text-transform:none"/>
   <path id="path4597-4" d="m20.597-10.747v0.92564h0.45906v0.46658h-1.1063-0.26339l-0.13546 0.22577-0.36875 0.63967h-0.2935-0.19566l-0.13546 0.13546-0.36123 0.36123-0.12793 0.13546v0.18814 1.0686h-1.1514v-1.8588h-1.3847v2.0168 0.11288l0.03762 0.10536 0.42143 1.2568v0.89554h1.3847v-1.0009-0.11288l-0.03762-0.11288-0.12793-0.3838h0.84286v1.5954 0.21072l0.15051 0.13546 0.30102 0.27092 0.13546 0.12041h0.18061l1.1288-0.022577 1.3546 1.6707 0.13546 0.17309h0.22577 1.776 1.776 0.15804l0.12041-0.097832 0.93317-0.72998 0.17309-0.13546v-0.22577-0.17309h0.66977v0.43648 0.45906h0.46658 1.2342c0.27019 0 0.42103-0.18018 0.49669-0.2935 0.07566-0.11331 0.11863-0.22005 0.15804-0.33865 0.07882-0.2372 0.13203-0.51736 0.18061-0.82028 0.09716-0.60585 0.15779-1.2876 0.17309-1.7008v-0.015051c0.01582-0.52129-0.15706-1.1038-0.31607-1.6105-0.16049-0.51132-0.3236-0.91812-0.3236-0.91812l-0.11288-0.2935h-0.31607-1.174-0.46658-0.45906-0.74503l-0.17309-0.15051v-0.27845-0.19566l-0.15051-0.13546-0.51174-0.48916-0.13546-0.12041h-0.18061-1.0987v-0.46658h0.46658v-0.92564h-3.6875zm-0.37628 2.3103h4.5078l0.24082 0.21824v0.2935 0.21072l0.16556 0.13546 0.45906 0.40638 0.13546 0.11288h0.16556 0.45906v0.45906 0.45906h0.45906 0.92564 0.45906v-0.45906-0.45906h0.39885c0.0566 0.1495 0.09783 0.2527 0.19566 0.56442 0.14891 0.47444 0.28026 1.0648 0.27092 1.317-0.01348 0.36393-0.06942 1.0353-0.15804 1.5879-0.04384 0.27337-0.10153 0.52057-0.15051 0.66977h-0.55689v-0.42896-0.45906h-0.45906-1.5954-0.45906v0.45906 0.40638l-0.63215 0.49669h-1.6105-1.5578l-1.3546-1.6857-0.14298-0.17309-0.22577 0.00753-1.174 0.022577-0.01505-0.015051v-1.3922h0.01505v-0.45906-1.332l0.09031-0.090307h0.36875 0.2634l0.13546-0.23329 0.37628-0.63967z" color="#000000" fill="url(#linearGradient4179)" opacity=".6" style="block-progression:tb;text-indent:0;text-transform:none"/>
   <g id="g4099-2-2" transform="matrix(.4605 0 0 .4605 -124 -39.767)" stroke="#fc5454" stroke-width="2">
    <path id="path4103-2-2" d="m305.56 72.5h3.9375v-3.3125l0.78125-0.78125h1.2188l1.0911-1.8898h10.784l1.125 1.0543v1.0543l1.0102 0.875h1.9898v2h2v-2h2.5625s1.375 3.4375 1.3125 5.125-0.48873 5.875-1.1875 5.875h-2.6875v-1.9375h-3.4584v1.375l-2.0153 1.579h-3.8569-3.8569l-3.2451-4.0214-2.9424 0.0625-0.6538-0.5913v-4.3413" fill="none"/>
    <path id="path4105-4-7" d="m314 63.5h8.0002" enable-background="new" fill="#edd400"/>
    <rect id="rect4107-6-6" x="316" y="64" width="4" height="2" fill="#fcaf3e"/>
   </g>
   <path id="path4277-0-1" d="m16.223-8.6982v2.0147l0.4605 1.3675v1.0052" fill="none" stroke="#fc5454" stroke-width="1.3815"/>
   <path id="path4000-2-8" d="m20.839-10.756v0.4605h0.68018v0.94977h1.842v-0.94977h0.68018v-0.4605zm-1.0179 1.3959-0.07195 0.11512-0.43172 0.74831h-0.43172-0.10073l-0.05756 0.071952-0.35976 0.35976-0.07195 0.057562v0.10073 1.2951h-0.6044l-1.212 0.00903-0.03311-1.8404v-0.014392h-0.4605v1.7739 0.10073l0.07195 0.057562 0.40131 0.87782v1.0905h0.4605v-1.5942h1.3619v1.8276 0.10073l0.07195 0.071952 0.3022 0.27342 0.07195 0.057562h0.08634l1.252-0.028782 1.4391 1.792 0.07195 0.057562h0.08634 3.5389 0.02878l0.02878-0.01437 1.1652-0.72711 0.17269-0.043149v-0.17269-0.43172h0.90822v0.69075 0.23025h0.23025 1.2376c0.1552 0 0.24626-0.1033 0.3022-0.18708 0.05594-0.083778 0.09379-0.18028 0.12952-0.28781 0.07146-0.21506 0.12517-0.48082 0.17269-0.77709 0.09502-0.59254 0.15784-1.2685 0.17269-1.6693 0.0169-0.45673-0.14461-1.0521-0.3022-1.5542-0.15759-0.50209-0.31659-0.9066-0.31659-0.9066l-0.05756-0.14391h-0.1583-1.18-0.23025v0.23025 0.69075h-0.4605v-0.69075-0.23025h-0.23025-0.83465l-0.31659-0.27342v-0.38854-0.10073l-0.07195-0.05756-0.51806-0.48928-0.07195-0.05756h-0.08634-4.9647-0.12952v-4.56e-5zm0.25903 0.4605h4.7489l0.37415 0.34537v0.38854 0.10073l0.08634 0.071952 0.4605 0.40294 0.05756 0.057562h0.08634 0.69075v0.69075 0.23025h0.23025 0.92099 0.23025v-0.23025-0.69075h0.77709c0.03864 0.098872 0.13177 0.32847 0.25903 0.73392 0.1518 0.48366 0.29968 1.0611 0.28781 1.3815-0.01395 0.37624-0.06754 1.0602-0.1583 1.6261-0.04536 0.28295-0.10155 0.53435-0.1583 0.70514-0.02634 0.079329-0.05485 0.13028-0.07195 0.1583h-0.93538v-0.66196-0.23025h-0.23025-1.3687-0.23025v0.23025 0.4605l-0.93496 0.66955h-0.01437-3.4237l-1.4391-1.792-0.07198-0.057562h-0.08634l-1.2664 0.028781-0.1583-0.14391v-1.7269h0.01437v-0.23025-1.4391l0.21586-0.21586h0.47489 0.12952l0.07195-0.11512 0.43172-0.74831z" color="#000000" fill="url(#linearGradient4185)" style="block-progression:tb;text-indent:0;text-transform:none"/>
   <path id="path4664-5" d="m25.805-12.011c-0.31389 0.05143-0.4042 0.38022-0.55885 0.61268-0.54488 0.92949-1.0984 1.8582-1.638 2.7878-0.15866 0.35933-0.11581 0.83356 0.19508 1.0998-0.06773 0.12543-0.13546 0.25085-0.20319 0.37628-0.34953-0.031484-0.81774 0.067335-0.91059 0.45906-0.17012 0.76632-0.38505 1.5258-0.53431 2.2953-0.03297 0.36512 0.40622 0.65279 0.72245 0.45906 1.0566-0.66296 2.1147-1.3276 3.1683-1.9943 0.22379-0.19311 0.14337-0.50701 0.15804-0.76761-0.07215-0.20205-0.15987-0.32831 0.05938-0.46292 0.55335-0.57178 1.1151-1.1366 1.664-1.712 0.26162-0.27155 0.05971-0.77611-0.31607-0.80523-0.13176-0.00144-0.353 0.032184-0.14551-0.10198 0.51423-0.47615 1.0299-0.95091 1.5453-1.4257 0.26108-0.26498 0.08803-0.77469-0.28597-0.81276-0.97168-0.01754-1.947-0.0026-2.9199-0.0075z" enable-background="new" fill="url(#linearGradient4187)" opacity=".1"/>
   <path id="path4656-1" transform="matrix(.24082 0 0 .24082 11.198 -18.385)" d="m60.875 27.344a1.1626 1.1626 0 0 0-0.875 0.5625l-0.28125 0.46875-6.8438 11.625a1.1626 1.1626 0 0 0-0.03125 0.0625l-0.0625 0.125c-0.24136 0.3336-0.4895 0.73066-0.625 1.25-0.16866 0.64643-0.12213 1.2486 0 1.7812 0.20726 0.90444 0.75588 1.4266 1.3125 1.75l-1.4375 2.6562c-0.31712-0.01601-0.62583-0.02664-0.90625-0.03125-0.12205-2e-3 -0.28251-0.014-0.5 0 0.08084-0.0052-0.53214-0.0012-1 0.21875l-0.40625 0.1875a1.1626 1.1626 0 0 0-0.625 0.8125l-0.09375 0.40625v0.03125l-1.5625 6.4688a1.1626 1.1626 0 0 0 0 0.03125l-0.53125 2.2812a1.1626 1.1626 0 0 0 1.75 1.2188l1.9688-1.25 10.281-6.4688 0.03125-0.03125 0.4375-0.25a1.1626 1.1626 0 0 0 0.5625-1v-0.53125-0.9375a1.1626 1.1626 0 0 0-1.0312-1.1562l6.7812-6.9688 1.5625-1.5938a1.1626 1.1626 0 0 0-0.78125-1.9688l-2.2812-0.03125a1.1626 1.1626 0 0 0-0.03125 0h-0.8125l6.5938-6.0625 1.8125-1.6562a1.1626 1.1626 0 0 0-0.78125-2h-2.4688-8.4688-0.53125a1.1626 1.1626 0 0 0-0.125 0z" enable-background="new" fill="url(#linearGradient4189)" opacity=".2"/>
   <path id="path4607-1" d="m25.888-11.522-0.06773 0.11288-1.6481 2.7995-0.01505 0.030104c-0.0561 0.073392-0.10388 0.14864-0.12793 0.24082-0.02702 0.10355-0.02181 0.20592 0 0.30102 0.03216 0.14035 0.14597 0.23456 0.22577 0.27092 0.07979 0.036362 0.15804 0.037628 0.15804 0.037628h0.0075 0.06773l-0.59452 1.0987c-0.0487-0.00157-0.10304-0.00417-0.16556-0.00753-0.0767-0.00412-0.15614-0.00638-0.22576-0.00753-0.03481-5.78e-4 -0.0653-0.0021-0.09783 0-0.03254 0.0021-0.06026-0.00524-0.13546 0.030102l-0.09783 0.045154-0.02258 0.10536-0.37628 1.5653-0.12793 0.54936 0.47411-0.30102 2.4834-1.5653 0.11288-0.06773v-0.12793-0.22577h-0.23329-0.39886l2.0921-2.1523 0.3838-0.3838-0.54936-0.00752h-0.90306l2.1072-1.9416 0.43648-0.39886h-0.59452-2.0394-0.12793z" enable-background="new" fill="url(#linearGradient4187)" opacity=".6"/>
   <path id="path4308-3-3" d="m25.483-6.6501-2.4857 1.5633 0.37192-1.5633c0.07003-0.032916 0.62604 0.032921 0.66982 0l0.82288-1.5374-0.43922-0.010976s-0.13821-0.00805-0.16633-0.13073c-0.03569-0.15565-0.01561-0.23308 0.09815-0.37571l1.6625-2.8289h2.0394l-2.5447 2.3432 1.4986 0.00192-2.4762 2.5385h0.9489z" enable-background="new" fill="url(#linearGradient4193)" stroke="#fc5454" stroke-width=".4605"/>
   <path id="path7609-9-0" d="m25.483-6.6501-2.4857 1.5633 0.37192-1.5633c0.07003-0.032916 0.62605 0.032921 0.66982 0l0.82288-1.5374-0.43921-0.010976s-0.13822-0.00805-0.16633-0.13073c-0.03569-0.15565-0.01561-0.23308 0.09815-0.37571l1.6625-2.8289h2.0394l-2.5447 2.3432 1.4986 0.00192-2.4762 2.5385h0.9489z" enable-background="new" fill="url(#linearGradient4293)"/>
  </g>
 </g>
</svg>
