<?xml version="1.0" encoding="UTF-8"?>
<!-- Created with Inkscape (http://www.inkscape.org/) -->
<svg id="svg2" width="16" height="16" version="1.1" xmlns="http://www.w3.org/2000/svg" xmlns:cc="http://creativecommons.org/ns#" xmlns:dc="http://purl.org/dc/elements/1.1/" xmlns:rdf="http://www.w3.org/1999/02/22-rdf-syntax-ns#" xmlns:xlink="http://www.w3.org/1999/xlink">
 <defs id="defs4">
  <linearGradient id="linearGradient3204" x1="1" x2="15" y1="9" y2="9" gradientTransform="translate(-17,-2)" gradientUnits="userSpaceOnUse">
   <stop id="stop4061" stop-color="#969696" offset="0"/>
   <stop id="stop4063" stop-color="#cdcdcd" offset="1"/>
  </linearGradient>
  <linearGradient id="linearGradient3629" x2="29.017" y1="8" y2="8" gradientTransform="matrix(0,-1,1,0,0,16)" gradientUnits="userSpaceOnUse">
   <stop id="stop3330" offset="0"/>
   <stop id="stop3333" stop-opacity="0" offset="1"/>
  </linearGradient>
  <linearGradient id="linearGradient3744" x1="14" x2="14" y1="4" y2="7.0708" gradientTransform="translate(-3,-1)" gradientUnits="userSpaceOnUse">
   <stop id="stop3740" stop-color="#5dbcd3" offset="0"/>
   <stop id="stop3742" stop-color="#9ae8fb" offset="1"/>
  </linearGradient>
  <linearGradient id="linearGradient2984" x1="13" x2="13" y1="11" y2="5" gradientTransform="translate(-3,-3)" gradientUnits="userSpaceOnUse">
   <stop id="stop4166" stop-color="#fff" offset="0"/>
   <stop id="stop4168" stop-color="#fff" stop-opacity="0" offset="1"/>
  </linearGradient>
  <linearGradient id="linearGradient3769" x1="4" x2="6.3979" y1="14" y2="14" gradientTransform="translate(-1 -4)" gradientUnits="userSpaceOnUse">
   <stop id="stop4122-6" stop-color="#fff" offset="0"/>
   <stop id="stop4124-3" stop-color="#989898" offset="1"/>
  </linearGradient>
 </defs>
 <metadata id="metadata7">
  <rdf:RDF>
   <cc:Work rdf:about="">
    <dc:format>image/svg+xml</dc:format>
    <dc:type rdf:resource="http://purl.org/dc/dcmitype/StillImage"/>
    <dc:title/>
   </cc:Work>
  </rdf:RDF>
 </metadata>
 <g id="layer1">
  <rect id="rect3196" transform="rotate(-90)" x="-16" width="16" height="16" rx="2" ry="2" fill="url(#linearGradient3204)"/>
  <path id="rect2835" d="m0 14c0 1.108 0.892 2 2 2h12c1.108 0 2-0.892 2-2v-12c0-1.108-0.892-2-2-2h-12c-1.108 0-2 0.892-2 2v12zm0.96875 0v-12c0-0.5832 0.44805-1.0312 1.0312-1.0312h12c0.5832 0 1.0312 0.44805 1.0312 1.0312v12c0 0.5832-0.44805 1.0312-1.0312 1.0312h-12c-0.5832 0-1.0312-0.44805-1.0312-1.0312z" fill="url(#linearGradient3629)" opacity=".4"/>
  <path id="path2843" d="m2 0.96875c-0.5832 0-1.0312 0.44805-1.0312 1.0312v1c0-0.5832 0.44805-1.0312 1.0312-1.0312h12c0.5832 0 1.0312 0.44805 1.0312 1.0312v-1c0-0.5832-0.44805-1.0312-1.0312-1.0312h-12z" fill="#fff" opacity=".4"/>
  <rect id="rect3746" x="6" y="2" width="8" height="5" rx="2" ry="2" fill="url(#linearGradient2984)" opacity=".4"/>
  <rect id="rect3718" x="7.25" y="3.25" width="5.5086" height="2.5431" rx="1" ry="1" fill="url(#linearGradient3744)" stroke="#3197b1" stroke-width=".5"/>
  <rect id="rect3756" x="7" y="8" width="1" height="1" fill="#707070"/>
  <rect id="rect3684" x="9" y="8" width="1" height="1" fill="#707070"/>
  <rect id="rect3686" x="11" y="8" width="1" height="1" fill="#707070"/>
  <rect id="rect3688" x="7" y="10" width="1" height="1" fill="#707070"/>
  <rect id="rect3690" x="9" y="10" width="1" height="1" fill="#707070"/>
  <rect id="rect3692" x="11" y="10" width="1" height="1" fill="#707070"/>
  <rect id="rect3694" x="7" y="12" width="1" height="1" fill="#707070"/>
  <rect id="rect3696" x="9" y="12" width="1" height="1" fill="#707070"/>
  <rect id="rect3698" x="11" y="12" width="1" height="1" fill="#707070"/>
  <rect id="rect3700" x="8" y="8" width="1" height="1" fill="#9b9b9b"/>
  <rect id="rect3702" x="10" y="8" width="1" height="1" fill="#9b9b9b"/>
  <rect id="rect3704" x="12" y="8" width="1" height="1" fill="#9b9b9b"/>
  <rect id="rect3706" x="8" y="10" width="1" height="1" fill="#9b9b9b"/>
  <rect id="rect3708" x="10" y="10" width="1" height="1" fill="#9b9b9b"/>
  <rect id="rect3710" x="12" y="10" width="1" height="1" fill="#9b9b9b"/>
  <rect id="rect3712" x="8" y="12" width="1" height="1" fill="#9b9b9b"/>
  <rect id="rect3714" x="10" y="12" width="1" height="1" fill="#9b9b9b"/>
  <rect id="rect3716" x="12" y="12" width="1" height="1" fill="#9b9b9b"/>
  <path id="path3775" d="m3.9688 4.4062c-0.85924 0-1.5625 0.7294-1.5625 1.5938v6c0 0.86436 0.70326 1.5938 1.5625 1.5938h0.0625c0.85924 0 1.5625-0.7294 1.5625-1.5938v-6c0-0.86435-0.70326-1.5938-1.5625-1.5938h-0.0625z" opacity=".2"/>
  <rect id="rect3716-8" x="3" y="5" width="2" height="8" rx=".95583" ry="1" fill="url(#linearGradient3769)"/>
  <path id="path3779" transform="matrix(1.2414 0 0 1.2414 -.96547 -1.4484)" d="m4.9997 6.0005a0.99995 0.99995 0 1 1-1.9999 0 0.99995 0.99995 0 1 1 1.9999 0z" color="#000000" fill="#fff" opacity=".8"/>
 </g>
</svg>
