<?xml version="1.0" encoding="UTF-8"?>
<svg id="svg2" width="16" height="16" version="1.1" xmlns="http://www.w3.org/2000/svg" xmlns:cc="http://creativecommons.org/ns#" xmlns:dc="http://purl.org/dc/elements/1.1/" xmlns:rdf="http://www.w3.org/1999/02/22-rdf-syntax-ns#" xmlns:xlink="http://www.w3.org/1999/xlink">
 <defs id="defs4">
  <linearGradient id="linearGradient3204" x1="1" x2="15" y1="9" y2="9" gradientTransform="translate(-1,-2)" gradientUnits="userSpaceOnUse">
   <stop id="stop926" stop-color="#555" offset="0"/>
   <stop id="stop924" stop-color="#222" offset="1"/>
  </linearGradient>
  <linearGradient id="linearGradient3629" x2="29.017" y1="8" y2="8" gradientTransform="matrix(0,-1,1,0,0,16)" gradientUnits="userSpaceOnUse">
   <stop id="stop3330" offset="0"/>
   <stop id="stop3333" stop-opacity="0" offset="1"/>
  </linearGradient>
  <linearGradient id="a" x1="8" x2="8" y1="22.998" y2="69" gradientTransform="matrix(.20201 0 0 .20201 -1.6964 -1.3429)" gradientUnits="userSpaceOnUse">
   <stop id="stop49" stop-color="#ffd062" offset="0"/>
   <stop id="stop51" stop-color="#f18304" offset="1"/>
  </linearGradient>
  <clipPath id="clipPath891">
   <path id="path893" d="m46.573 23.012c-3.1032 0.10955-6.2296 1.0624-8.8438 3.1406a3.8854 3.8854 0 0 0-0.0039 0c-1.744 1.3864-3.1587 3.2152-3.9844 5.3945-0.83069 2.1924-1.0147 4.6258-0.375 6.9883a3.8854 3.8854 0 0 0 0.0039 2e-3c0.48612 1.7896 1.3875 3.3411 2.4922 4.6309a3.8854 3.8854 0 0 0 2e-3 0.0039c1.0999 1.2809 2.3791 2.2823 3.6934 3.0781 2.6159 1.5876 5.2975 2.3564 7.6387 3.0391 2.3339 0.68045 4.3804 1.2975 5.9434 2.1758 1.5088 0.84779 2.6048 2.0332 2.9648 3.0703 0.2429 0.70344 0.25467 1.6114-2e-3 2.4277-0.26113 0.83098-0.82157 1.6835-1.5742 2.3516-1.5119 1.342-4.0072 2.0562-6.4824 1.8887-3.5307-0.239-7.0767-2.1855-9.127-4.9824a3.8855 3.8855 0 0 0-6.2656 4.5957c3.4794 4.7466 8.9722 7.7396 14.867 8.1387 4.1983 0.28427 8.7076-0.76195 12.164-3.8301 1.7318-1.5371 3.1026-3.5169 3.8301-5.832 0.73225-2.3301 0.76934-4.8784-0.06445-7.293a3.8854 3.8854 0 0 0 0-2e-3c-1.1989-3.4639-3.8222-5.7986-6.5059-7.3066-2.6309-1.4782-5.2759-2.1952-7.5742-2.8652-2.291-0.66793-4.2874-1.314-5.7812-2.2207a3.8854 3.8854 0 0 0-0.0039-2e-3c-0.741-0.451-1.367-0.964-1.824-1.496-0.452-0.528-0.754-1.096-0.893-1.606v-2e-3c-0.17547-0.64998-0.13519-1.4732 0.14063-2.2012 0.28108-0.74186 0.83486-1.4942 1.5547-2.0664 1.4419-1.1462 3.7795-1.6786 6.0156-1.3672 2.6327 0.3668 5.2055 1.8198 6.8457 3.8457a3.8854 3.8854 0 1 0 6.0371-4.8887c-2.9359-3.6236-7.1823-6.008-11.814-6.6543-1.0085-0.1403-2.0392-0.195-3.0742-0.1582z" opacity=".4"/>
  </clipPath>
  <filter id="w">
   <feGaussianBlur id="feGaussianBlur46" stdDeviation="0.68880677"/>
  </filter>
 </defs>
 <metadata id="metadata7">
  <rdf:RDF>
   <cc:Work rdf:about="">
    <dc:format>image/svg+xml</dc:format>
    <dc:type rdf:resource="http://purl.org/dc/dcmitype/StillImage"/>
    <dc:title/>
   </cc:Work>
  </rdf:RDF>
 </metadata>
 <g id="layer1" opacity=".99">
  <rect id="rect3196" transform="matrix(0,1,1,0,0,0)" width="16" height="16" rx="2" ry="2" fill="url(#linearGradient3204)"/>
  <path id="rect2835" d="m0 14c0 1.108 0.892 2 2 2h12c1.108 0 2-0.892 2-2v-12c0-1.108-0.892-2-2-2h-12c-1.108 0-2 0.892-2 2v12zm0.96875 0v-12c0-0.5832 0.44805-1.0312 1.0312-1.0312h12c0.5832 0 1.0312 0.44805 1.0312 1.0312v12c0 0.5832-0.44805 1.0312-1.0312 1.0312h-12c-0.5832 0-1.0312-0.44805-1.0312-1.0312z" fill="url(#linearGradient3629)" opacity=".4"/>
  <path id="path2843" d="m2 0.96875c-0.5832 0-1.0312 0.44805-1.0312 1.0312v1c0-0.5832 0.44805-1.0312 1.0312-1.0312h12c0.5832 0 1.0312 0.44805 1.0312 1.0312v-1c0-0.5832-0.44805-1.0312-1.0312-1.0312h-12z" fill="#fff" opacity=".15"/>
  <path id="base-3" d="m7.7119 3.3058c-0.62689 0.02213-1.2585 0.21462-1.7866 0.63444a0.7849 0.7849 0 0 0-7.878e-4 0c-0.35231 0.28007-0.6381 0.64951-0.8049 1.0898-0.16781 0.44289-0.20498 0.93447-0.075755 1.4117a0.7849 0.7849 0 0 0 7.879e-4 4.04e-4c0.098203 0.36152 0.28029 0.67495 0.50346 0.9355a0.7849 0.7849 0 0 0 4.04e-4 7.878e-4c0.22219 0.25876 0.48061 0.46106 0.74612 0.62182 0.52845 0.32072 1.0702 0.47602 1.5431 0.61394 0.47148 0.13746 0.8849 0.26211 1.2006 0.43954 0.3048 0.17126 0.5262 0.41073 0.59893 0.62024 0.049069 0.1421 0.051447 0.32552-4.04e-4 0.49043-0.052752 0.16787-0.16597 0.34009-0.31801 0.47505-0.30542 0.2711-0.80951 0.41538-1.3095 0.38154-0.71325-0.04828-1.4296-0.4415-1.8438-1.0065a0.78492 0.78492 0 0 0-1.2657 0.92839c0.70289 0.95888 1.8125 1.5635 3.0033 1.6441 0.84811 0.05743 1.7591-0.15392 2.4573-0.77373 0.34985-0.31051 0.62677-0.71046 0.77373-1.1781 0.14792-0.47071 0.15542-0.9855-0.01302-1.4733a0.7849 0.7849 0 0 0 0-4.04e-4c-0.24219-0.69975-0.77214-1.1714-1.3143-1.476-0.53148-0.29862-1.0658-0.44346-1.5301-0.57881-0.46281-0.13493-0.86611-0.26545-1.1679-0.44861a0.7849 0.7849 0 0 0-7.879e-4 -4.04e-4c-0.14969-0.091108-0.27615-0.19474-0.36847-0.30221-0.09131-0.10666-0.15232-0.22141-0.1804-0.32443v-4.04e-4c-0.035447-0.1313-0.02731-0.29761 0.028409-0.44467 0.056782-0.14987 0.16865-0.30185 0.31407-0.41744 0.29128-0.23155 0.76351-0.3391 1.2152-0.27619 0.53184 0.074098 1.0516 0.36762 1.3829 0.77688a0.7849 0.7849 0 1 0 1.2196-0.98758c-0.59309-0.73202-1.4509-1.2137-2.3866-1.3443-0.20373-0.028342-0.41195-0.039393-0.62103-0.031959z" fill="url(#a)"/>
  <path id="path4216" transform="matrix(.20201 0 0 .20201 -1.6964 -1.3429)" d="m46.572 23.01v2e-3c-3.1032 0.10955-6.2296 1.0624-8.8438 3.1406a3.8854 3.8854 0 0 0-0.0039 0c-1.744 1.3864-3.1587 3.2152-3.9844 5.3945-0.83069 2.1924-1.0147 4.6258-0.375 6.9883a3.8854 3.8854 0 0 0 0.0039 2e-3c0.48612 1.7896 1.3875 3.3411 2.4922 4.6309a3.8854 3.8854 0 0 0 2e-3 0.0039c1.0999 1.2809 2.3791 2.2823 3.6934 3.0781 2.6159 1.5876 5.2975 2.3564 7.6387 3.0391 2.3339 0.68045 4.3804 1.2975 5.9434 2.1758 1.5088 0.84779 2.6048 2.0332 2.9648 3.0703 0.2429 0.70344 0.25472 1.6114-2e-3 2.4277-0.26113 0.83098-0.82159 1.6835-1.5742 2.3516-1.5119 1.342-4.0072 2.0562-6.4824 1.8887-3.5307-0.239-7.0767-2.1855-9.127-4.9824a3.8855 3.8855 0 0 0-6.2656 4.5957c3.4794 4.7466 8.9724 7.7396 14.867 8.1387 0.02197 0.0015 0.04441 5.38e-4 0.06641 2e-3 -5.5955-0.37941-10.818-3.2236-14.119-7.7207v-2e-3c-0.86895-1.2197-0.56506-3.1162 0.64258-4.002 1.2077-0.88582 3.1075-0.6055 4.0098 0.58984h2e-3c2.2455 3.0558 6.0114 5.1186 9.8574 5.3789 2.7114 0.18348 5.4242-0.55098 7.2129-2.1387 0.88416-0.78486 1.5401-1.7641 1.8652-2.7988 0.32294-1.0271 0.31848-2.1097-0.0078-3.0547a1.0001 1.0001 0 0 1 0-2e-3c-0.48884-1.4081-1.7444-2.6718-3.42-3.6133-1.7136-0.96293-3.8133-1.5817-6.1523-2.2637-2.3445-0.68367-4.9212-1.4309-7.4004-2.9355-1.2411-0.75148-2.4318-1.6871-3.4492-2.8711-9.64e-4 -0.0011-0.0029-8.31e-4 -0.0039-2e-3a1.0001 1.0001 0 0 0-2e-3 -0.0039c-1.0218-1.193-1.8446-2.6133-2.2871-4.2422a1.0001 1.0001 0 0 0-0.0039-0.01172c-0.57862-2.1455-0.4143-4.3555 0.3457-6.3613 0.7556-1.9943 2.0522-3.6744 3.6621-4.957a1.0001 1.0001 0 0 0 0.01367-0.0098c2.4267-1.9292 5.3333-2.8207 8.2559-2.9238a1.0001 1.0001 0 0 0 0.01563-2e-3c0.97165-0.03374 1.9397 0.01668 2.8867 0.14844 4.3811 0.61134 8.3998 2.8691 11.174 6.293a1.0001 1.0001 0 0 0 0.01758 0.01953c0.99637 1.1681 0.81234 3.149-0.38086 4.1152-1.1932 0.96622-3.1681 0.7331-4.1035-0.48438a1.0001 1.0001 0 0 0-0.01563-0.01953c-1.8148-2.2415-4.5824-3.8026-7.4843-4.2069-0.32624-0.04543-0.65382-0.07291-0.98047-0.08789 0.28074 0.01301 0.56228 0.0392 0.8418 0.07813 2.6327 0.3668 5.2055 1.8198 6.8457 3.8457a3.8854 3.8854 0 1 0 6.0371-4.8887c-2.9359-3.6236-7.1828-6.008-11.814-6.6543-1.0085-0.1403-2.0392-0.195-3.0742-0.1582zm1.1641 7.7773c-2.1611-0.09909-4.2869 0.46336-5.7949 1.6621-0.85852 0.68243-1.5132 1.5568-1.8691 2.4961-0.32829 0.86649-0.38849 1.7809-0.20312 2.623a1.0001 1.0001 0 0 1-2e-3 -0.06641l0.03516 0.25781c-0.01457-0.05396-0.01691-0.11137-0.0293-0.16602a1.0001 1.0001 0 0 0 0.0293 0.17188c0.18614 0.6828 0.5584 1.3622 1.0977 1.9922a1.0001 1.0001 0 0 1 2e-3 2e-3c0.54407 0.63336 1.2475 1.2032 2.0625 1.6992a1.0001 1.0001 0 0 0 0.0059 2e-3c1.6515 1.0024 3.712 1.6534 6.0195 2.3262 2.3122 0.67405 4.8615 1.3717 7.3633 2.7773 2.542 1.4284 4.9539 3.5926 6.0508 6.7617 0.75995 2.2008 0.72927 4.5276 0.05664 6.668-0.66868 2.1279-1.9321 3.9548-3.541 5.3828-2.4129 2.1419-5.3933 3.2374-8.4141 3.5371 3.2349-0.30374 6.4589-1.4641 9.0781-3.7891 1.7318-1.5371 3.1026-3.5169 3.8301-5.832 0.73216-2.3302 0.76925-4.8785-0.06454-7.2931a3.8854 3.8854 0 0 0 0-2e-3c-1.1989-3.4639-3.8222-5.7986-6.5059-7.3066-2.6309-1.4782-5.2759-2.1952-7.5742-2.8652-2.291-0.66793-4.2874-1.314-5.7812-2.2207a3.8854 3.8854 0 0 0-0.0039-2e-3c-0.741-0.451-1.3672-0.96409-1.8242-1.4961-0.452-0.528-0.75358-1.0955-0.89258-1.6055v-0.001859c-0.17547-0.64998-0.1352-1.4732 0.14062-2.2012 0.28108-0.74186 0.83485-1.4942 1.5547-2.0664 1.2617-1.0029 3.2087-1.5364 5.1738-1.4453z" clip-path="url(#clipPath891)" filter="url(#w)" opacity=".4" stroke-width="4.9502"/>
  <path id="path61" d="m7.7082 3.0023a0.10102 0.10102 0 0 0-0.016965 0.00237c-0.63308 0.025378-1.2726 0.22116-1.8114 0.64313a0.10102 0.10102 0 0 0-0.018149 0.011442c-0.36535 0.29044-0.66275 0.67429-0.83646 1.1328-0.17483 0.46143-0.21399 0.9752-0.078912 1.4741a0.10102 0.10102 0 0 0 0.011048 0.025252c0.060845 0.214 0.15181 0.4093 0.26001 0.58907-0.070013-0.1375-0.13051-0.28262-0.17282-0.43835a0.7849 0.7849 0 0 1-7.878e-4 -4.041e-4c-0.12923-0.47726-0.092056-0.96883 0.075755-1.4117 0.1668-0.44025 0.45259-0.8097 0.8049-1.0898a0.7849 0.7849 0 0 1 7.879e-4 0c0.5281-0.41982 1.1597-0.61232 1.7866-0.63445v-4.04e-4c0.20908-0.00743 0.4173 0.00362 0.62103 0.031959 0.93567 0.13056 1.7936 0.61224 2.3867 1.3443a0.7849 0.7849 0 0 1 0.12981 0.80529c0.084391-0.1241 0.14127-0.26712 0.15506-0.41665 0.021617-0.23441-0.054961-0.4761-0.20754-0.65536-0.6094-0.75145-1.4894-1.2458-2.4498-1.3798-0.20948-0.029143-0.42377-0.040393-0.63879-0.032748zm-1.0073 2.3784c-0.04768 0.066393-0.086983 0.13588-0.11324 0.20517-0.055719 0.14707-0.063855 0.31336-0.028408 0.44467v4.04e-4c0.02808 0.10303 0.089003 0.21766 0.18031 0.32433 0.09232 0.10747 0.21882 0.21112 0.36852 0.30223a0.7849 0.7849 0 0 1 7.878e-4 4.041e-4c0.30177 0.18317 0.70508 0.31368 1.1679 0.44861 0.46429 0.13535 0.99862 0.2802 1.5301 0.57882 0.54214 0.30464 1.0721 0.77629 1.3143 1.476a0.7849 0.7849 0 0 0 0 4.04e-4c0.16844 0.48778 0.16094 1.0026 0.01302 1.4733-0.0472 0.15021-0.10898 0.29258-0.1811 0.42809 0.11484-0.18508 0.20988-0.38496 0.27737-0.59973 0.15229-0.48461 0.16062-1.0153-0.0095-1.5198a0.10102 0.10102 0 0 0-0.0043-0.017361c-0.25251-0.72953-0.8036-1.2182-1.36-1.5309-0.54452-0.30595-1.0885-0.45295-1.5514-0.58789-0.46115-0.13445-0.85798-0.26446-1.1438-0.43796a0.10102 0.10102 0 0 0-0.00237-0.00158c-0.14127-0.086234-0.25937-0.18378-0.34247-0.28053-0.082258-0.096174-0.13646-0.19905-0.1598-0.28448v-4.04e-4a0.10102 0.10102 0 0 0 0-4.04e-4c-0.028841-0.10683-0.022289-0.25581 0.025646-0.38233 0.00488-0.012876 0.01266-0.026031 0.018545-0.039061zm-1.2054 4.0198c-0.17207 0.0090179-0.34147 0.068025-0.48057 0.17005-0.18547 0.13604-0.31433 0.34697-0.35076 0.57408-0.036433 0.22711 0.01987 0.46774 0.15348 0.65497a0.10102 0.10102 0 0 0 7.879e-4 0.0012c0.00111 0.0015 0.00244 0.0028 0.00355 0.0043a0.78492 0.78492 0 0 1 1.3435-0.79069c0.41419 0.56501 1.1305 0.95823 1.8438 1.0065 0.50002 0.03384 1.0041-0.11044 1.3095-0.38154 0.15204-0.13497 0.26526-0.30718 0.31801-0.47505 0.051851-0.1649 0.049464-0.34833 4.04e-4 -0.49044-0.021959-0.063259-0.061231-0.12889-0.1085-0.19491 0.00346 0.00836 0.0106 0.017927 0.013416 0.026041h-4.04e-4c0.040647 0.11774 0.043975 0.28333-0.0011908 0.42694-0.046284 0.14729-0.15006 0.3069-0.28882 0.43007-0.27746 0.24628-0.7592 0.38851-1.2354 0.35628-0.68093-0.046093-1.3746-0.42724-1.7692-0.96548a0.10102 0.10102 0 0 0-7.879e-4 -0.00119c-0.13844-0.18369-0.35125-0.30979-0.57882-0.34327-0.056891-0.0083674-0.11467-0.010897-0.17203-0.0078907z" opacity=".25"/>
  <path id="path69" d="m7.7777 4.8765c-0.33704 0.014563-0.65746 0.11831-0.87592 0.29197-0.14542 0.11559-0.25729 0.26758-0.31407 0.41744-0.055719 0.14707-0.063855 0.31336-0.028408 0.44467v4.04e-4c0.00231 0.00847 0.00632 0.017422 0.00907 0.026041 0.00619-0.022514 0.011058-0.045232 0.019333-0.067075 0.056786-0.14987 0.16865-0.30185 0.31407-0.41744 0.29128-0.23155 0.76351-0.3391 1.2152-0.27619 0.53184 0.074098 1.0516 0.36762 1.3829 0.77688a0.7849 0.7849 0 0 0 1.3802-0.67982 0.7849 0.7849 0 0 1-1.3802 0.2758c-0.33134-0.40926-0.85108-0.70279-1.3829-0.77688-0.11293-0.015727-0.22697-0.020637-0.33932-0.015783zm-2.8014 1.1884c-0.022369 0.25782-0.00279 0.52135 0.067469 0.78083a0.7849 0.7849 0 0 0 7.878e-4 4.04e-4c0.098203 0.36152 0.28029 0.67494 0.50346 0.9355a0.7849 0.7849 0 0 0 4.04e-4 7.879e-4c0.22219 0.25876 0.4806 0.46106 0.74611 0.62182 0.52845 0.32072 1.0702 0.47602 1.5431 0.61393 0.47148 0.13746 0.88489 0.26211 1.2006 0.43954 0.3048 0.17126 0.52621 0.41074 0.59894 0.62024 0.00438 0.0127 0.00623 0.02733 0.00986 0.04064 0.038285-0.15258 0.034767-0.31543-0.0098597-0.44467-0.072725-0.20951-0.29414-0.44898-0.59894-0.62024-0.31575-0.17743-0.72916-0.30208-1.2006-0.43954-0.47295-0.13791-1.0147-0.29321-1.5431-0.61393-0.26551-0.16076-0.52391-0.36306-0.74611-0.62182a0.7849 0.7849 0 0 1-4.04e-4 -7.878e-4c-0.22316-0.26056-0.40525-0.57397-0.50346-0.9355a0.7849 0.7849 0 0 1-7.878e-4 -4.041e-4c-0.033863-0.12506-0.055815-0.25091-0.067469-0.3768zm6.2608 4.047c-0.01516 0.17784-0.04964 0.35347-0.10298 0.52318-0.14696 0.46768-0.42388 0.86763-0.77373 1.1781-0.69824 0.61981-1.6092 0.83115-2.4573 0.77373-1.1908-0.08062-2.3005-0.68524-3.0034-1.6441a0.78492 0.78492 0 0 1-0.11837-0.2541 0.78492 0.78492 0 0 0 0.11837 0.65812c0.70289 0.95888 1.8125 1.5635 3.0034 1.6441 0.84811 0.05743 1.7591-0.15392 2.4573-0.77373 0.34985-0.31051 0.62676-0.71047 0.77373-1.1781 0.09347-0.29742 0.1306-0.61252 0.10298-0.92721z" fill="#fff" opacity=".2"/>
 </g>
</svg>
