<?xml version="1.0" encoding="UTF-8"?>
<!-- Created with Inkscape (http://www.inkscape.org/) -->
<svg id="svg2" width="16" height="16" version="1.1" xmlns="http://www.w3.org/2000/svg" xmlns:cc="http://creativecommons.org/ns#" xmlns:dc="http://purl.org/dc/elements/1.1/" xmlns:rdf="http://www.w3.org/1999/02/22-rdf-syntax-ns#" xmlns:xlink="http://www.w3.org/1999/xlink">
 <defs id="defs4">
  <linearGradient id="linearGradient3204" x1="1" x2="15" y1="9" y2="9" gradientTransform="translate(-17,-2)" gradientUnits="userSpaceOnUse">
   <stop id="stop3189-5" stop-color="#e4b31e" offset="0"/>
   <stop id="stop3191-4" stop-color="#ffef64" offset="1"/>
  </linearGradient>
  <clipPath id="clipPath3686">
   <rect id="rect3688" x=".86592" y="-.38933" width="22.682" height="22.682" rx="2.2682" ry="2.2682" fill="#f00" fill-rule="evenodd"/>
  </clipPath>
  <filter id="filter8716" x="-.26984" y="-.54066" width="1.5397" height="2.0813" color-interpolation-filters="sRGB">
   <feGaussianBlur id="feGaussianBlur8718" stdDeviation="2.0210388"/>
  </filter>
  <linearGradient id="linearGradient3643" x1="1" x2="15" y1="9" y2="9" gradientTransform="matrix(0,-1,1,0,-22,17)" gradientUnits="userSpaceOnUse" xlink:href="#ButtonColor-1"/>
  <linearGradient id="ButtonColor-1" x1="10.32" x2="10.32" y1="21" y2=".9993" gradientUnits="userSpaceOnUse">
   <stop id="stop3189-4" stop-color="#dcdcdc" offset="0"/>
   <stop id="stop3191-9" stop-color="#f0f0f0" offset="1"/>
  </linearGradient>
  <linearGradient id="linearGradient2883" x1="1" x2="15" y1="9" y2="9" gradientTransform="translate(-17,-22)" gradientUnits="userSpaceOnUse" xlink:href="#ButtonColor-1"/>
  <linearGradient id="linearGradient3704" x2="16" y1="8" y2="8" gradientTransform="matrix(0,-1,1,0,0,16)" gradientUnits="userSpaceOnUse">
   <stop id="stop3700" stop-color="#90540e" offset="0"/>
   <stop id="stop3702" stop-color="#bd6f13" stop-opacity=".62016" offset="1"/>
  </linearGradient>
  <linearGradient id="linearGradient6450" x1="136.41" x2="149.53" y1="115.49" y2="115.49" gradientTransform="matrix(.23804 0 0 .153 -39.57 .11016)" gradientUnits="userSpaceOnUse">
   <stop id="stop3487" stop-color="#e2433d" offset="0"/>
   <stop id="stop3489" stop-color="#f08682" offset="1"/>
  </linearGradient>
  <linearGradient id="linearGradient6447" x1="136" x2="150" y1="60" y2="60" gradientTransform="matrix(-.22834 .0002619 -.00043938 .13642 38.179 1.8736)" gradientUnits="userSpaceOnUse">
   <stop id="stop3280" stop-color="#165016" offset="0"/>
   <stop id="stop3290" stop-color="#165016" offset=".3"/>
   <stop id="stop3286" stop-color="#217821" offset=".35"/>
   <stop id="stop3288" stop-color="#217821" offset=".65"/>
   <stop id="stop3292" stop-color="#2ca02c" offset=".7"/>
   <stop id="stop3282" stop-color="#2ca02c" offset="1"/>
  </linearGradient>
  <linearGradient id="linearGradient6441" x1="136.99" x2="149" y1="17.043" y2="17.043" gradientTransform="matrix(-.25131 .00028433 -.00048359 .1481 41.461 1.5711)" gradientUnits="userSpaceOnUse">
   <stop id="stop3310" stop-color="#ba6920" offset="0"/>
   <stop id="stop3312" stop-color="#fff" offset="1"/>
  </linearGradient>
  <linearGradient id="linearGradient6454" x1="136" x2="150" y1="106" y2="106" gradientTransform="matrix(.22773 0 0 .1579 -38.092 -1.2315)" gradientUnits="userSpaceOnUse">
   <stop id="stop3403" stop-color="#292929" offset="0"/>
   <stop id="stop3447" stop-color="#595959" offset=".2"/>
   <stop id="stop3410" stop-color="#efefef" offset=".7"/>
   <stop id="stop3405" stop-color="#7f7f7f" offset="1"/>
  </linearGradient>
  <linearGradient id="linearGradient6444" x1="141.25" x2="144.81" y1="4.9219" y2="4.9219" gradientTransform="matrix(-.48471 .00066436 -.00093272 .34604 74.817 1.0714)" gradientUnits="userSpaceOnUse">
   <stop id="stop3396" offset="0"/>
   <stop id="stop3402" stop-color="#7d7d7d" offset=".5"/>
   <stop id="stop3398" offset="1"/>
  </linearGradient>
  <linearGradient id="linearGradient4885" x1="143.06" x2="144.81" y1="12.081" y2="64.081" gradientTransform="matrix(-.080107 -.15883 .10187 -.051921 14.664 37.392)" gradientUnits="userSpaceOnUse" xlink:href="#linearGradient3232-9"/>
  <linearGradient id="linearGradient3232-9">
   <stop id="stop3234-6" offset="0"/>
   <stop id="stop3236-2" stop-opacity="0" offset="1"/>
  </linearGradient>
  <linearGradient id="linearGradient3150" x1="143.05" x2="143.04" y1="12.101" y2="118.29" gradientTransform="matrix(-.15584 -.085766 .054703 -.1004 26.066 27.527)" gradientUnits="userSpaceOnUse" xlink:href="#linearGradient3232-9"/>
  <linearGradient id="linearGradient3226" x1="56.459" x2="125.64" y1="60.012" y2="129.19" gradientTransform="matrix(.16949 0 0 .16949 -4.8475 -4.8763)" gradientUnits="userSpaceOnUse">
   <stop id="stop3768-7" stop-color="#e7ba26" stop-opacity="0" offset="0"/>
   <stop id="stop3770-4" stop-color="#e9ab2c" offset=".48412"/>
   <stop id="stop3772-5" stop-color="#eaa82e" offset=".69663"/>
   <stop id="stop3774-2" stop-color="#ebba3f" offset=".84266"/>
   <stop id="stop3776-5" stop-color="#f3e38c" offset="1"/>
  </linearGradient>
  <linearGradient id="linearGradient3233" x1="81.033" x2="72.169" y1="75.165" y2="65.295" gradientTransform="matrix(.2381 0 0 .2381 -6.4286 -4.505)" gradientUnits="userSpaceOnUse">
   <stop id="stop4041" stop-color="#d7951b" offset="0"/>
   <stop id="stop4043" stop-color="#e9b42f" offset=".19094"/>
   <stop id="stop4045" stop-color="#f3e38c" offset="1"/>
  </linearGradient>
  <linearGradient id="linearGradient3200" x1="78.377" x2="87.542" y1="75.012" y2="85.748" gradientTransform="matrix(.2381 0 0 .2381 -5.4286 -4.505)" gradientUnits="userSpaceOnUse">
   <stop id="stop4061" stop-color="#ad760e" offset="0"/>
   <stop id="stop4104" stop-color="#c28510" offset=".15"/>
   <stop id="stop4063" stop-color="#c28510" stop-opacity="0" offset="1"/>
  </linearGradient>
 </defs>
 <metadata id="metadata7">
  <rdf:RDF>
   <cc:Work rdf:about="">
    <dc:format>image/svg+xml</dc:format>
    <dc:type rdf:resource="http://purl.org/dc/dcmitype/StillImage"/>
    <dc:title/>
   </cc:Work>
  </rdf:RDF>
 </metadata>
 <g id="layer1">
  <rect id="rect3196" transform="rotate(-90)" x="-16" width="16" height="16" rx="2" ry="2" fill="url(#linearGradient3204)"/>
  <rect id="rect3200" transform="matrix(.61724 0 0 .61724 .46552 1.2403)" x="2" y="1.98" width="17.976" height="8.9714" rx="2" ry="2" clip-path="url(#clipPath3686)" fill="#fff" filter="url(#filter8716)" opacity=".2"/>
  <rect id="rect3615" transform="rotate(-90)" x="-16" y="-20" width="16" height="16" rx="2" ry="2" fill="url(#linearGradient2883)"/>
  <path id="rect3619" d="m-18 0c-1.108 0-2 0.892-2 2v12c0 1.108 0.892 2 2 2h12c1.108 0 2-0.892 2-2v-12c0-1.108-0.892-2-2-2h-12zm0.03125 1h11.938c0.58386 0 1.0312 0.44739 1.0312 1.0312v11.938c0 0.58386-0.44739 1.0312-1.0312 1.0312h-11.938c-0.58386 0-1.0312-0.44739-1.0312-1.0312v-11.938c0-0.58386 0.44739-1.0312 1.0312-1.0312z" fill="#f00"/>
  <path id="rect3636" d="m-17.969 1c-0.58386 0-1.0312 0.44739-1.0312 1.0312v11.938c0 0.58386 0.44739 1.0312 1.0312 1.0312h11.938c0.58386 0 1.0312-0.44739 1.0312-1.0312v-11.938c0-0.58386-0.44739-1.0312-1.0312-1.0312h-11.938z" fill="url(#linearGradient3643)"/>
  <path id="rect4047" d="m16 8.7188-4 3.1562-2.7188 4.0938h5.125c0.91301-0.18588 1.5938-0.99925 1.5938-1.9688v-5.2812z" fill="url(#linearGradient3200)"/>
  <path id="path3177" d="m2 0c-1.108 0-2 0.892-2 2v12c0 0.11989 0.01133 0.22935 0.03125 0.34375 0.0035 0.02016-0.0041 0.04255 0 0.0625 0.01921 0.09411 0.06205 0.1923 0.09375 0.28125 0.01603 0.04394 0.04355 0.08258 0.0625 0.125 0.04717 0.10558 0.09228 0.21765 0.15625 0.3125 0.07174 0.10637 0.15962 0.19088 0.25 0.28125 0.03095 0.03163 0.06078 0.06424 0.09375 0.09375 0.06243 0.05454 0.11854 0.10974 0.1875 0.15625 0.10637 0.07174 0.22403 0.13703 0.34375 0.1875 0.1154 0.05042 0.21799 0.09743 0.34375 0.125 0.0097 0.0021 0.02147-2e-3 0.03125 0 4.0404 1.41e-4 4.8666 0.03125 7.6875 0.03125 0.99884 0 1.6471-0.92705 3.835-2.8838 1.9824-1.7729 2.8838-2.4986 2.8838-3.8662 0-2.6384-0.018247-3.1456 0-7.25 0-1.108-0.892-2-2-2z" fill="url(#linearGradient3226)"/>
  <path id="path3254" d="m15.969 9.7812c-0.82514 0.6561-4.0777 0.4631-5.7812 0.4375 0.06026 1.3123 0.23148 5.1525-0.46875 5.7188 0.06449-0.02108 0.18764-0.08556 0.28125-0.125 0.70625-0.35246 1.4841-1.2199 3.125-2.6875 1.3595-1.2159 2.2244-1.9432 2.625-2.7188 0.02946-0.07019 0.06623-0.14738 0.09375-0.21875 0.05393-0.13451 0.09658-0.26306 0.125-0.40625z" fill="url(#linearGradient3233)"/>
  <path id="path3696" d="m0 14c0 1.108 0.892 2 2 2h12c1.108 0 2-0.892 2-2v-12c0-1.108-0.892-2-2-2h-12c-1.108 0-2 0.892-2 2v12zm1-0.03125v-11.938c0-0.58386 0.44739-1.0312 1.0312-1.0312h11.938c0.58386 0 1.0312 0.44739 1.0312 1.0312v11.938c0 0.58386-0.44739 1.0312-1.0312 1.0312h-11.938c-0.58386 0-1.0312-0.44739-1.0312-1.0312z" fill="url(#linearGradient3704)" opacity=".7"/>
  <path id="path3687" d="m2.0312 1c-0.58386 0-1.0312 0.44739-1.0312 1.0312v1c0-0.58386 0.44739-1.0312 1.0312-1.0312h11.938c0.58386 0 1.0312 0.44739 1.0312 1.0312v-1c0-0.58386-0.44739-1.0312-1.0312-1.0312h-11.938z" fill="#fff" opacity=".4"/>
 </g>
 <g id="layer2">
  <path id="path4887" d="m9.534 2.5486c-0.04324 0.023075-0.08732 0.056796-0.11005 0.098513l-0.53619 0.9954-0.03071-0.012158-0.69775 1.2689-0.09438 0.19352-0.28953 0.50698-2.8518 5.2291c-0.00646 3.33e-4 -0.014841 0.0086-0.021432 0.0093-9.491e-4 0.01096 0.010028 0.01115 0.00928 0.02143l-0.027199 0.11355c-2.909e-4 0.0171 0.00639 0.07357 0.00639 0.07357l-0.20356 1.4113-0.063046 0.38352-0.19202 1.2027 0.021432-0.0093 1.1769-1.0437 0.99968-0.86518s0.15311-0.13433 0.24152-0.2063l2.8425-5.2505 0.33528-0.57766 0.04863-0.12283 0.69775-1.2689-0.03071-0.012157 0.55762-1.0047c0.09092-0.16687-0.0557-0.4083-0.31471-0.55085l-0.94326-0.53331c-0.19426-0.10691-0.40094-0.11949-0.53067-0.050264z" fill="url(#linearGradient3150)" opacity=".4"/>
  <path id="rect4829" d="m15.14 7.4423c-0.04872-0.00538-0.10413-0.00247-0.14646 0.019086l-1.0049 0.51822-0.01846-0.027381-1.2927 0.65255-0.18722 0.10632-0.52536 0.25465-5.3078 2.7025c-0.00553-0.0034-0.017121-0.0013-0.02292-0.0045-0.00695 0.0085 0.00194 0.01487-0.00448 0.02293l-0.086609 0.07831c-0.0099 0.01394-0.036304 0.06431-0.036304 0.06431l-0.96546 1.0493-0.26875 0.28078-0.83808 0.88374 0.022923 0.0045 1.5607-0.19596 1.3137-0.14886s0.20223-0.0243 0.31584-0.03371l5.3122-2.7254 0.60305-0.28712 0.10953-0.07386 1.2927-0.65255-0.01847-0.027381 1.0278-0.51376c0.16931-0.086293 0.18478-0.36834 0.05165-0.63231l-0.47681-0.97304c-0.099853-0.19798-0.26326-0.32515-0.40941-0.34135z" fill="url(#linearGradient4885)" opacity=".25"/>
  <g id="g4147" transform="matrix(.83106 .22268 .22268 -.83106 -.47093 14.713)">
   <rect id="rect3483" transform="matrix(-1 .0012341 -.0029936 1 0 0)" x="-6.9799" y="16.557" width="2.8841" height="2.448" rx=".71411" ry=".45901" fill="url(#linearGradient6450)"/>
   <path id="rect2480" d="M 7,6 5.5263594,1.979272 4.0316321,6.003405 4,15.077 6.9683651,15.073595 7,6 z" fill="url(#linearGradient6447)"/>
   <path id="path3274" d="m5.7949 2.8095 1.0506 2.8122s0.11676 0.24474 0.17415 0.38609c0.047746 0.095066-0.49306 0.23918-0.75772-0.23733-0.30761 0.66883-1.4029 0.51074-1.5049 0.0033387-0.086896 0.25208-0.44221 0.43738-0.75181 0.22625 0.059444-0.13465 0.11041-0.22552 0.11041-0.22552l1.1063-2.9421 0.57302-0.022972z" fill="url(#linearGradient6441)" fill-rule="evenodd"/>
   <rect id="rect6452" transform="matrix(-1 .0013312 -.0027752 1 0 0)" x="-7.0076" y="14.005" width="2.9604" height="3" fill="url(#linearGradient6454)"/>
   <path id="path3272" d="m6.2582 3.9586-1.457 0.0097361 0.70611-2.0051" fill="url(#linearGradient6444)" fill-rule="evenodd"/>
  </g>
 </g>
</svg>
