<?xml version="1.0" encoding="UTF-8"?>
<!-- Created with Inkscape (http://www.inkscape.org/) -->
<svg id="svg2" width="16" height="16" version="1.1" xmlns="http://www.w3.org/2000/svg" xmlns:cc="http://creativecommons.org/ns#" xmlns:dc="http://purl.org/dc/elements/1.1/" xmlns:rdf="http://www.w3.org/1999/02/22-rdf-syntax-ns#" xmlns:xlink="http://www.w3.org/1999/xlink">
 <defs id="defs4">
  <linearGradient id="linearGradient3204" x1="1" x2="15" y1="9" y2="9" gradientTransform="translate(-17,-2)" gradientUnits="userSpaceOnUse">
   <stop id="stop3226" stop-color="#e0d8b8" offset="0"/>
   <stop id="stop3228" stop-color="#b6a357" offset="1"/>
  </linearGradient>
  <linearGradient id="linearGradient3629" x2="29.017" y1="8" y2="8" gradientTransform="matrix(0,-1,1,0,0,16)" gradientUnits="userSpaceOnUse">
   <stop id="stop3330" offset="0"/>
   <stop id="stop3333" stop-opacity="0" offset="1"/>
  </linearGradient>
  <linearGradient id="linearGradient3658" x1="1" x2="15" y1="9" y2="9" gradientTransform="matrix(0,-1,1,0,-2,17)" gradientUnits="userSpaceOnUse">
   <stop id="stop3672" stop-color="#673c1c" offset="0"/>
   <stop id="stop3674" stop-color="#b87443" offset="1"/>
  </linearGradient>
  <linearGradient id="linearGradient3904" x1="48.714" x2="48.714" y1="16.321" y2="77.29" gradientTransform="matrix(.15244 0 0 .078403 .67181 .77406)" gradientUnits="userSpaceOnUse">
   <stop id="stop3739-2" stop-color="#fff" offset="0"/>
   <stop id="stop3741-7" stop-color="#fff" stop-opacity="0" offset="1"/>
  </linearGradient>
  <linearGradient id="linearGradient3035" x1="59.237" x2="59.237" y1="94.69" y2="20" gradientTransform="matrix(.10369 0 0 .094338 1.3526 .44827)" gradientUnits="userSpaceOnUse">
   <stop id="stop3779" stop-color="#536c5d" offset="0"/>
   <stop id="stop3781" stop-color="#93ac9d" offset="1"/>
  </linearGradient>
  <linearGradient id="linearGradient3237">
   <stop id="stop3239" stop-color="#6a3d0d" offset="0"/>
   <stop id="stop3241" stop-color="#ddb34b" offset="1"/>
  </linearGradient>
  <linearGradient id="linearGradient3054" x1="26.36" x2="26.36" y1="112.61" y2="99.666" gradientUnits="userSpaceOnUse" xlink:href="#linearGradient3237"/>
 </defs>
 <metadata id="metadata7">
  <rdf:RDF>
   <cc:Work rdf:about="">
    <dc:format>image/svg+xml</dc:format>
    <dc:type rdf:resource="http://purl.org/dc/dcmitype/StillImage"/>
    <dc:title/>
   </cc:Work>
  </rdf:RDF>
 </metadata>
 <g id="layer1">
  <rect id="rect3196" transform="rotate(-90)" x="-16" width="16" height="16" rx="2" ry="2" fill="url(#linearGradient3204)"/>
  <path id="rect3656" d="m2 0c-1.108 0-2 0.892-2 2v12c0 1.108 0.892 2 2 2h12c1.108 0 2-0.892 2-2v-12c0-1.108-0.892-2-2-2h-12zm0 2h12v12h-12v-12z" fill="url(#linearGradient3658)"/>
  <path id="rect2835" d="m0 14c0 1.108 0.892 2 2 2h12c1.108 0 2-0.892 2-2v-12c0-1.108-0.892-2-2-2h-12c-1.108 0-2 0.892-2 2v12zm0.96875 0v-12c0-0.5832 0.44805-1.0312 1.0312-1.0312h12c0.5832 0 1.0312 0.44805 1.0312 1.0312v12c0 0.5832-0.44805 1.0312-1.0312 1.0312h-12c-0.5832 0-1.0312-0.44805-1.0312-1.0312z" fill="url(#linearGradient3629)" opacity=".4"/>
  <path id="path2843" d="m2 0.96875c-0.5832 0-1.0312 0.44805-1.0312 1.0312v1c0-0.5832 0.44805-1.0312 1.0312-1.0312h12c0.5832 0 1.0312 0.44805 1.0312 1.0312v-1c0-0.5832-0.44805-1.0312-1.0312-1.0312h-12z" fill="#fff" opacity=".2"/>
  <path id="rect3202" d="m7.989 2c-0.10054 0-0.19837 0.00225-0.29622 0.00471-0.00235 2.2e-5 -0.00805-2.27e-5 -0.010391 0-1.3878 0.01341-2.0315 0.11738-2.8063 0.30624-1.8795 0.38768-1.8761 1.1457-1.8761 3.609 0 2.4363-0.00491 3.0855 1.8761 3.609 0.77476 0.18886 1.4185 0.29283 2.8063 0.30624 0.00235 2.28e-5 0.00805-2.14e-5 0.010391 0 0.097848 0.00249 0.19568 0.0047 0.29622 0.0047 0.10054 0 0.19837-0.00228 0.29622-0.0047 0.00235-2.14e-5 0.00805 2.28e-5 0.010391 0 1.3878-0.013406 2.0315-0.11738 2.8063-0.30624 1.881-0.52347 1.8761-1.1726 1.8761-3.609 0-2.4632 0.0034-3.2213-1.8761-3.609-0.77476-0.18886-1.4185-0.29283-2.8063-0.30624-0.00235-2.26e-5 -0.00805 2.2e-5 -0.010391 0-0.097848-0.002457-0.19568-0.004711-0.29622-0.004711z" fill="url(#linearGradient3035)"/>
  <path id="path3902" d="m7.989 2.1853c-0.092161 0-0.18184 0.00118-0.27154 0.00245-0.00214 1.16e-5 -0.00738-1.16e-5 -0.00953 0-1.2722 0.00697-1.8622 0.061039-2.5724 0.15926-1.7228 0.20161-1.7197 0.59581-1.7197 1.8768 0 1.267-0.0045 1.6046 1.7197 1.8768 0.71019 0.098217 1.3003 0.15228 2.5724 0.15926 0.00214 1.14e-5 0.00738-1.15e-5 0.00953 0 0.089694 0.00128 0.17937 0.00249 0.27154 0.00249 0.092162 0 0.18184-0.00114 0.27154-0.00249 0.00214-1.15e-5 0.00738 1.14e-5 0.00953 0 1.2722-0.00698 1.8622-0.061037 2.5724-0.15926 1.7242-0.27222 1.7197-0.60981 1.7197-1.8768 0-1.281 0.0031-1.6752-1.7197-1.8768-0.71019-0.098216-1.3003-0.15228-2.5724-0.15926-0.00214-1.17e-5 -0.00738 1.16e-5 -0.00953 0-0.089694-0.00129-0.17938-0.00245-0.27154-0.00245z" fill="url(#linearGradient3904)" opacity=".58874"/>
  <path id="path3797" transform="matrix(.21636 0 0 .21636 -1.2031 -11.464)" d="m30.983 106.14a4.6224 4.6224 0 1 1-9.2449 0 4.6224 4.6224 0 1 1 9.2449 0z" fill="#efcb73" stroke="url(#linearGradient3054)" stroke-linecap="square" stroke-width="4.622"/>
  <path id="path3717" transform="matrix(.21636 0 0 .21636 5.7969 -11.464)" d="m30.983 106.14a4.6224 4.6224 0 1 1-9.2449 0 4.6224 4.6224 0 1 1 9.2449 0z" fill="#efcb73" stroke="url(#linearGradient3054)" stroke-linecap="square" stroke-width="4.622"/>
  <rect id="rect3721" x="7.0982" y="10.992" width="1.7989" height=".97236" rx="2" ry=".97236" color="#000000" opacity=".4"/>
  <path id="path3723" d="m3.0312 6.6875c0.025765 1.7512 0.20279 2.3871 1.8438 2.8438 0.77476 0.18886 1.4247 0.29909 2.8125 0.3125 0.097848 0.00249 0.21196 0 0.3125 0 0.10054 0 0.1834 0.00242 0.28125 0 1.3878-0.013406 2.0377-0.12364 2.8125-0.3125 1.641-0.45668 1.818-1.0926 1.8438-2.8438-0.08679 1.2349-0.43302 1.7011-1.8438 2.0938-0.77476 0.18886-1.4247 0.29909-2.8125 0.3125-0.097848 0.00242-0.18071 0-0.28125 0-0.10054 0-0.21465 0.00249-0.3125 0-1.3878-0.01341-2.0377-0.12364-2.8125-0.3125-1.4107-0.3926-1.757-0.85881-1.8438-2.0938z" opacity=".3"/>
 </g>
</svg>
