<?xml version="1.0" encoding="UTF-8"?>
<svg id="svg2" width="24" height="24" version="1.1" xmlns="http://www.w3.org/2000/svg" xmlns:cc="http://creativecommons.org/ns#" xmlns:dc="http://purl.org/dc/elements/1.1/" xmlns:rdf="http://www.w3.org/1999/02/22-rdf-syntax-ns#">
 <metadata id="metadata49">
  <rdf:RDF>
   <cc:Work rdf:about="">
    <dc:format>image/svg+xml</dc:format>
    <dc:type rdf:resource="http://purl.org/dc/dcmitype/StillImage"/>
   </cc:Work>
  </rdf:RDF>
 </metadata>
 <defs id="defs4">
  <linearGradient id="linearGradient3335" x1="11.375" x2="11.375" y1="22" y2="-9.8173" gradientUnits="userSpaceOnUse">
   <stop id="stop3330" offset="0"/>
   <stop id="stop3333" stop-opacity="0" offset="1"/>
  </linearGradient>
  <linearGradient id="linearGradient3181" x1="-3.0608" x2="-3.0608" y1="27.258" y2="7.2537" gradientTransform="translate(12.119 -7.2582)" gradientUnits="userSpaceOnUse">
   <stop id="stop3189" stop-color="#3c3c3c" offset="0"/>
   <stop id="stop3191" stop-color="#505050" offset="1"/>
  </linearGradient>
  <filter id="filter3194" x="-.18" y="-.18" width="1.36" height="1.36" color-interpolation-filters="sRGB">
   <feGaussianBlur id="feGaussianBlur3196" stdDeviation="1.2"/>
  </filter>
  <clipPath id="clipPath2849">
   <rect id="rect2851" x="1" y="1" width="20" height="20" rx="2" ry="2" fill="#fff" fill-rule="evenodd"/>
  </clipPath>
  <linearGradient id="linearGradient3845" x1="11" x2="21" y1="19.5" y2="19.5" gradientTransform="translate(1,-1)" gradientUnits="userSpaceOnUse" spreadMethod="reflect">
   <stop id="stop3833" stop-color="#fff" offset="0"/>
   <stop id="stop3821" stop-color="#fff" stop-opacity=".49804" offset=".75"/>
   <stop id="stop3835" stop-color="#fff" stop-opacity="0" offset="1"/>
  </linearGradient>
  <linearGradient id="linearGradient3961" x1="10" x2="10" y1="1" y2="16" gradientTransform="translate(1,-1)" gradientUnits="userSpaceOnUse">
   <stop id="stop3825" stop-color="#fff" offset="0"/>
   <stop id="stop3829" stop-color="#fff" stop-opacity="0" offset="1"/>
  </linearGradient>
 </defs>
 <g id="layer1" transform="translate(0,2)">
  <g id="g3337" transform="translate(1,-1)">
   <rect id="rect3371" x=".5" y=".5" width="21" height="21.5" rx="2.5" ry="2.5" fill="url(#linearGradient3335)" opacity=".3"/>
   <rect id="rect2553" x="1" y="2" width="20" height="20" rx="2.381" ry="2.3256" opacity=".5"/>
  </g>
  <rect id="rect3173" x="2" width="20" height="20" rx="2" ry="2" fill="url(#linearGradient3181)" fill-rule="evenodd"/>
  <path id="rect3050" d="m4 0c-1.108 0-2 0.892-2 2v16c0 1.108 0.892 2 2 2h16c1.108 0 2-0.892 2-2v-16c0-1.108-0.892-2-2-2h-16zm0 1.0312h16c0.5497 0 0.96875 0.41905 0.96875 0.96875v16c0 0.5497-0.41905 0.96875-0.96875 0.96875h-16c-0.5497 0-0.96875-0.41905-0.96875-0.96875v-16c0-0.5497 0.41905-0.96875 0.96875-0.96875z" fill="url(#linearGradient3961)" fill-rule="evenodd" opacity=".35"/>
  <path id="path3235" d="m4 20c-1.108 0-2-0.892-2-2v-1c0 1.108 0.892 2 2 2h16c1.108 0 2-0.892 2-2v1c0 1.108-0.892 2-2 2h-16z" fill="url(#linearGradient3845)" fill-rule="evenodd" opacity=".2"/>
 </g>
 <g id="layer2" transform="translate(0,2)">
  <rect id="rect2410" transform="translate(1,-1)" x="3" y="3" width="16" height="16" rx="2" ry="2" clip-path="url(#clipPath2849)" fill="#fff" filter="url(#filter3194)" opacity=".15"/>
 </g>
 <g id="main">
  <path id="path39" d="m12.191 9c-0.33436 0.4853-0.65704 0.97995-0.97852 1.4922-0.3215 0.5055-0.65923 1.0432-1 1.6094-0.33433 0.5662-0.67842 1.1644-1.0449 1.8047-0.36011 0.6403-0.75004 1.3389-1.168 2.0938h0.55859c0.20408-0.3659 0.42131-0.75936 0.60938-1.0938 0.3665-0.64029 0.71059-1.2385 1.0449-1.8047 0.34077-0.56615 0.6785-1.1039 1-1.6094 0.32147-0.51224 0.64416-1.0069 0.97852-1.4922h1.3379c0.10283 0.48526 0.20294 1.028 0.29297 1.6211 0.09636 0.58639 0.18456 1.1866 0.26172 1.8066 0.08353 0.61332 0.15248 1.2257 0.2168 1.8457 0.029757 0.25811 0.055199 0.48204 0.083985 0.72656h0.11523c-0.05787-0.5392-0.12851-1.1132-0.19922-1.7266-0.06432-0.62-0.13327-1.2324-0.2168-1.8457-0.07716-0.62-0.16536-1.2202-0.26172-1.8066-0.09003-0.5931-0.19014-1.1358-0.29297-1.6211h-1.3379zm4.3828 1.2598c-0.007111 0.054567-0.004404 0.11216-0.013672 0.16602 0.01072 0.0039 0.020575 0.009666 0.03125 0.013672-0.004445-0.060317-0.010525-0.1202-0.017578-0.17969zm-10.025 0.40039c-0.017632 0.087295-0.021928 0.17917-0.03125 0.26953 0.020891-0.016065 0.039331-0.0352 0.060547-0.050782-0.016741-0.069758-0.016324-0.14669-0.029297-0.21875zm4.9883 2.5859c-0.18598 0.3297-0.37162 0.65897-0.55078 1h1.8066c-0.024435-0.31276-0.054348-0.65596-0.083985-1h-1.1719zm-6.4961 1.3027c-0.0244 0.18367-0.041016 0.36943-0.041016 0.56055 0 2.1556 1.5927 3.8906 3.5723 3.8906h6.8555c1.9795 0 3.5723-1.735 3.5723-3.8906 0-0.18852-0.017322-0.37167-0.041016-0.55273-0.205 1.9403-1.6927 3.4434-3.5312 3.4434h-6.8555c-1.8411 0-3.3295-1.5071-3.5312-3.4512z" opacity=".3"/>
  <path id="base" transform="translate(4,4)" d="m9.1914 2c-1.3256 0-2.472 0.82749-3.041 2.0273-0.36884-0.25522-0.80798-0.40039-1.2773-0.40039-1.3156 0-2.3828 1.1592-2.3828 2.5918 0 0.22778 0.037375 0.44966 0.087891 0.66016-0.95013 0.69784-1.5781 1.8832-1.5781 3.2305 0 2.1556 1.5927 3.8906 3.5723 3.8906h6.8555c1.9795 0 3.5723-1.735 3.5723-3.8906 0-1.7213-1.022-3.1679-2.4395-3.6836 0.0385-0.22372 0.058594-0.45357 0.058594-0.68945 0-2.0594-1.5365-3.7363-3.4277-3.7363zm-1 3h1.3379c0.10283 0.48526 0.20294 1.028 0.29297 1.6211 0.096357 0.58639 0.18456 1.1866 0.26172 1.8066 0.083535 0.61332 0.15248 1.2257 0.2168 1.8457 0.070705 0.61334 0.14135 1.1874 0.19922 1.7266h-1.5176c-0.012825-0.26285-0.02758-0.51041-0.046875-0.75977-0.012825-0.2561-0.02758-0.51038-0.046875-0.75976h-2.5059c-0.12859 0.24938-0.26285 0.50366-0.4043 0.75976-0.14146 0.24938-0.27765 0.49692-0.40625 0.75977h-1.5723c0.41793-0.75487 0.80789-1.4535 1.168-2.0938 0.3665-0.64029 0.71057-1.2385 1.0449-1.8047 0.34077-0.56615 0.6785-1.1039 1-1.6094 0.32147-0.51224 0.64416-1.0069 0.97852-1.4922zm0.34961 1.5312c-0.27006 0.45158-0.53913 0.90673-0.80273 1.3516-0.2572 0.44483-0.50762 0.89822-0.75195 1.3633h1.8066c-0.032119-0.41113-0.07274-0.84939-0.11133-1.3145-0.032119-0.46503-0.076308-0.93533-0.14062-1.4004z" fill="#fff"/>
 </g>
</svg>
