<?xml version="1.0" encoding="UTF-8"?>
<!-- Created with Inkscape (http://www.inkscape.org/) -->
<svg id="svg2" width="16" height="16" version="1.1" xmlns="http://www.w3.org/2000/svg" xmlns:cc="http://creativecommons.org/ns#" xmlns:dc="http://purl.org/dc/elements/1.1/" xmlns:rdf="http://www.w3.org/1999/02/22-rdf-syntax-ns#" xmlns:xlink="http://www.w3.org/1999/xlink">
 <defs id="defs4">
  <linearGradient id="linearGradient3629" x2="29.017" y1="8" y2="8" gradientTransform="matrix(0,-1,1,0,0,16)" gradientUnits="userSpaceOnUse">
   <stop id="stop3330" offset="0"/>
   <stop id="stop3333" stop-opacity="0" offset="1"/>
  </linearGradient>
  <linearGradient id="linearGradient3864" x1="-3.0608" x2="-3.0608" y1="27.258" y2="7.2537" gradientTransform="translate(-27.881 -13.258)" gradientUnits="userSpaceOnUse">
   <stop id="stop3702" stop-color="#da4714" offset="0"/>
   <stop id="stop3704" stop-color="#ee743e" offset="1"/>
  </linearGradient>
  <linearGradient id="linearGradient5288-5" x1="16.37" x2="20.208" y1="12.629" y2="21.851" gradientTransform="matrix(.26052 0 0 .43374 1.7353 -.47454)" gradientUnits="userSpaceOnUse">
   <stop id="stop2687-1-9-0" stop-color="#fff" offset="0"/>
   <stop id="stop2689-5-4-2" stop-color="#fff" stop-opacity="0" offset="1"/>
  </linearGradient>
  <linearGradient id="linearGradient3095" x1="1" x2="15" y1="9" y2="9" gradientTransform="translate(-17,-2)" gradientUnits="userSpaceOnUse">
   <stop id="stop3702-3" stop-color="#da4714" offset="0"/>
   <stop id="stop3704-4" stop-color="#ee743e" offset="1"/>
  </linearGradient>
 </defs>
 <metadata id="metadata7">
  <rdf:RDF>
   <cc:Work rdf:about="">
    <dc:format>image/svg+xml</dc:format>
    <dc:type rdf:resource="http://purl.org/dc/dcmitype/StillImage"/>
    <dc:title/>
   </cc:Work>
  </rdf:RDF>
 </metadata>
 <g id="layer1">
  <rect id="rect3196" transform="rotate(-90)" x="-16" width="16" height="16" rx="2" ry="2" fill="url(#linearGradient3095)"/>
  <path id="path5275-6" d="m1.3843 1.0031c-0.21448 0-0.38429 0.30415-0.38429 0.6l4e-3 7.4c0.34521-0.0081 13.734-2.949 13.996-3.0904v-4.3096c0-0.22614-0.16774-0.6-0.35346-0.6h-13.262z" enable-background="new" fill="url(#linearGradient5288-5)" fill-rule="evenodd" opacity=".2"/>
  <path id="rect2835" d="m0 14c0 1.108 0.892 2 2 2h12c1.108 0 2-0.892 2-2v-12c0-1.108-0.892-2-2-2h-12c-1.108 0-2 0.892-2 2v12zm0.96875 0v-12c0-0.5832 0.44805-1.0312 1.0312-1.0312h12c0.5832 0 1.0312 0.44805 1.0312 1.0312v12c0 0.5832-0.44805 1.0312-1.0312 1.0312h-12c-0.5832 0-1.0312-0.44805-1.0312-1.0312z" fill="url(#linearGradient3629)" opacity=".4"/>
  <path id="path2843" d="m2 0.96875c-0.5832 0-1.0312 0.44805-1.0312 1.0312v1c0-0.5832 0.44805-1.0312 1.0312-1.0312h12c0.5832 0 1.0312 0.44805 1.0312 1.0312v-1c0-0.5832-0.44805-1.0312-1.0312-1.0312h-12z" fill="#fff" opacity=".15"/>
  <rect id="rect3173" x="-38" y="-6" width="20" height="20" rx="2" ry="2" fill="url(#linearGradient3864)" fill-rule="evenodd"/>
  <path id="path3848" d="m2.8438 1.9688a0.51187 0.51187 0 0 0-0.34375 0.5v3.9375c0 3.2946 0.11251 4.1719 0.25 4.75 0.51793 2.1779 2.0437 3.5122 4.2812 3.8125a0.51187 0.51187 0 0 0 0.03125 0c2.1429 0.077449 3.6508 0.023812 5.9375-0.21875a0.51187 0.51187 0 0 0 0.4375-0.5v-11.781a0.51187 0.51187 0 0 0-0.5-0.5h-2.9375a0.51187 0.51187 0 0 0-0.5 0.5v8.5h-3v-4.5a0.51187 0.51187 0 0 0-0.5-0.5h-0.1875l1.6562-3.2812a0.51187 0.51187 0 0 0-0.46875-0.71875h-4a0.51187 0.51187 0 0 0-0.15625 0z" fill="#520" opacity=".15"/>
  <path id="path3844" d="m3 2.466v3.9469c0 3.2819 0.11483 4.0676 0.24267 4.6052 0.48062 2.0211 1.7736 3.1796 3.8573 3.4592 2.1258 0.07683 3.5802 0.01153 5.8522-0.22948v-11.782l-2.9522-0.0082588v9h-4v-5h-1l2-4z" fill="#520" opacity=".3"/>
  <path id="path3865" d="m3 2.0083v3.9469c0 3.2819 0.11483 4.0676 0.24267 4.6052 0.48062 2.0211 1.7736 3.1796 3.8573 3.4592 2.1258 0.07683 3.5802 0.01153 5.8522-0.22948v-11.782l-2.9522-0.0082588v9h-4v-5h-1l2-4z" fill="#fff"/>
 </g>
</svg>
