<?xml version="1.0" encoding="UTF-8"?>
<!-- Created with Inkscape (http://www.inkscape.org/) -->
<svg id="svg2" width="16" height="16" version="1.1" xmlns="http://www.w3.org/2000/svg" xmlns:cc="http://creativecommons.org/ns#" xmlns:dc="http://purl.org/dc/elements/1.1/" xmlns:rdf="http://www.w3.org/1999/02/22-rdf-syntax-ns#" xmlns:xlink="http://www.w3.org/1999/xlink">
 <defs id="defs4">
  <linearGradient id="linearGradient3204" x1="1" x2="15" y1="9" y2="9" gradientTransform="translate(-17,-2)" gradientUnits="userSpaceOnUse">
   <stop id="stop3678" stop-color="#68d003" offset="0"/>
   <stop id="stop3680" stop-color="#c0f988" offset="1"/>
  </linearGradient>
  <linearGradient id="linearGradient3629" x2="29.017" y1="8" y2="8" gradientTransform="matrix(0,-1,1,0,0,16)" gradientUnits="userSpaceOnUse">
   <stop id="stop3330" offset="0"/>
   <stop id="stop3333" stop-opacity="0" offset="1"/>
  </linearGradient>
  <linearGradient id="linearGradient3115" x1="12.75" x2="83.25" y1="48" y2="48" gradientTransform="matrix(0 -.18197 .18197 0 -.73461 16.735)" gradientUnits="userSpaceOnUse">
   <stop id="stop3705-2" stop-color="#a8e66c" offset="0"/>
   <stop id="stop3707-7" stop-color="#dbfabd" offset="1"/>
  </linearGradient>
 </defs>
 <metadata id="metadata7">
  <rdf:RDF>
   <cc:Work rdf:about="">
    <dc:format>image/svg+xml</dc:format>
    <dc:type rdf:resource="http://purl.org/dc/dcmitype/StillImage"/>
    <dc:title/>
   </cc:Work>
  </rdf:RDF>
 </metadata>
 <g id="layer1">
  <rect id="rect3196" transform="rotate(-90)" x="-16" width="16" height="16" rx="2" ry="2" fill="url(#linearGradient3204)"/>
  <path id="path3928" d="m6.5938 1.625c-0.85602 0.17837-1.6696 0.50557-2.375 0.96875a0.3199 0.3199 0 0 0-0.125 0.28125c0.016197 0.4049-0.1308 0.84955-0.4375 1.1562-0.313 0.313-0.71955 0.45372-1.125 0.4375a0.3199 0.3199 0 0 0-0.15625 0.03125 0.3199 0.3199 0 0 0-0.125 0.09375c-0.46069 0.70164-0.79004 1.4861-0.96875 2.3438a0.3199 0.3199 0 0 0 0.09375 0.3125c0.30032 0.2748 0.5 0.65435 0.5 1.0938s-0.19968 0.81895-0.5 1.0938a0.3199 0.3199 0 0 0-0.09375 0.3125c0.17837 0.85602 0.50557 1.6696 0.96875 2.375a0.3199 0.3199 0 0 0 0.28125 0.125c0.40545-0.01622 0.812 0.1245 1.125 0.4375 0.3067 0.3067 0.4537 0.75134 0.4375 1.1562a0.3199 0.3199 0 0 0 0.03125 0.15625 0.3199 0.3199 0 0 0 0.09375 0.125c0.70543 0.46318 1.519 0.79038 2.375 0.96875a0.3199 0.3199 0 0 0 0.3125-0.09375c0.2748-0.30032 0.65435-0.5 1.0938-0.5 0.4394 0 0.81895 0.19968 1.0938 0.5a0.3199 0.3199 0 0 0 0.3125 0.09375c0.85398-0.17795 1.6713-0.50789 2.375-0.96875a0.3199 0.3199 0 0 0 0.125-0.28125c-1.41e-4 -0.0034 0-0.05856 0-0.09375 0-0.38515 0.1425-0.7675 0.4375-1.0625 0.313-0.313 0.71955-0.45372 1.125-0.4375a0.3199 0.3199 0 0 0 0.15625-0.03125 0.3199 0.3199 0 0 0 0.125-0.09375c0.46318-0.70544 0.79038-1.519 0.96875-2.375a0.3199 0.3199 0 0 0-0.09375-0.3125c-0.30032-0.2748-0.5-0.65435-0.5-1.0938s0.19968-0.81895 0.5-1.0938a0.3199 0.3199 0 0 0 0.09375-0.3125c-0.17871-0.85762-0.50806-1.6421-0.96875-2.3438a0.3199 0.3199 0 0 0-0.28125-0.125c-0.40544 0.016219-0.812-0.1245-1.125-0.4375-0.28837-0.28837-0.4375-0.7086-0.4375-1.0938 0-0.035197-5.86e-4 -0.048517 0-0.0625a0.3199 0.3199 0 0 0-0.03125-0.15625 0.3199 0.3199 0 0 0-0.09375-0.125c-0.70373-0.46086-1.521-0.7908-2.375-0.96875a0.3199 0.3199 0 0 0-0.3125 0.09375c-0.2748 0.30032-0.65435 0.5-1.0938 0.5-0.4394 0-0.81895-0.19968-1.0938-0.5a0.3199 0.3199 0 0 0-0.3125-0.09375zm1.4062 5.5938c0.63598 0 1.1562 0.49731 1.1562 1.125s-0.52856 1.1562-1.1562 1.1562c-0.62769 0-1.1562-0.52856-1.1562-1.1562s0.52027-1.125 1.1562-1.125z" color="#000000" opacity=".15"/>
  <path id="rect2835" d="m0 14c0 1.108 0.892 2 2 2h12c1.108 0 2-0.892 2-2v-12c0-1.108-0.892-2-2-2h-12c-1.108 0-2 0.892-2 2v12zm0.96875 0v-12c0-0.5832 0.44805-1.0312 1.0312-1.0312h12c0.5832 0 1.0312 0.44805 1.0312 1.0312v12c0 0.5832-0.44805 1.0312-1.0312 1.0312h-12c-0.5832 0-1.0312-0.44805-1.0312-1.0312z" fill="url(#linearGradient3629)" opacity=".4"/>
  <path id="path2843" d="m2 0.96875c-0.5832 0-1.0312 0.44805-1.0312 1.0312v1c0-0.5832 0.44805-1.0312 1.0312-1.0312h12c0.5832 0 1.0312 0.44805 1.0312 1.0312v-1c0-0.5832-0.44805-1.0312-1.0312-1.0312h-12z" fill="#fff" opacity=".35"/>
  <path id="path3922" d="m6.658 1.9404c-0.81504 0.16983-1.5731 0.49631-2.2462 0.93829 0.019621 0.49049-0.15489 0.98514-0.52885 1.3591-0.37396 0.37396-0.86861 0.54847-1.3591 0.52885-0.44198 0.67314-0.76845 1.4312-0.93829 2.2462 0.36361 0.33271 0.59141 0.81034 0.59141 1.342s-0.2278 1.0093-0.59141 1.342c0.16983 0.81504 0.49631 1.5731 0.93829 2.2462 0.49049-0.01962 0.98514 0.15489 1.3591 0.52885 0.37396 0.37396 0.54847 0.86861 0.52885 1.3591 0.67314 0.44198 1.4312 0.76845 2.2462 0.93829 0.33271-0.36361 0.81034-0.59141 1.342-0.59141 0.5317 0 1.0093 0.2278 1.342 0.59141 0.8124-0.16928 1.569-0.49283 2.2405-0.9326-0.0011-0.02626 0-0.05335 0-0.07961 0-0.4657 0.17922-0.92985 0.53454-1.2852 0.37396-0.37396 0.86861-0.54847 1.3591-0.52885 0.44198-0.67314 0.76846-1.4312 0.93829-2.2462-0.36361-0.33271-0.59141-0.81034-0.59141-1.342s0.2278-1.0093 0.59141-1.342c-0.16983-0.81504-0.49631-1.5731-0.93829-2.2462-0.49049 0.019621-0.98514-0.15489-1.3591-0.52885-0.35532-0.35532-0.53454-0.81947-0.53454-1.2852 0-0.026266-0.0011-0.053345 0-0.079613-0.67152-0.43977-1.4281-0.76332-2.2405-0.9326-0.33271 0.36361-0.81034 0.59141-1.342 0.59141-0.5317 0-1.0093-0.2278-1.342-0.59141zm1.342 4.9587c0.804 0 1.4558 0.65177 1.4558 1.4558s-0.65177 1.4558-1.4558 1.4558c-0.804 0-1.4558-0.65177-1.4558-1.4558s0.65177-1.4558 1.4558-1.4558z" color="#000000" opacity=".3"/>
  <path id="path3683" d="m6.658 1.5855c-0.81504 0.16983-1.5731 0.49631-2.2462 0.93829 0.019621 0.49049-0.15489 0.98514-0.52885 1.3591-0.37396 0.37396-0.86861 0.54847-1.3591 0.52885-0.44198 0.67314-0.76845 1.4312-0.93829 2.2462 0.36361 0.33271 0.59141 0.81034 0.59141 1.342s-0.2278 1.0093-0.59141 1.342c0.16983 0.81504 0.49631 1.5731 0.93829 2.2462 0.49049-0.01962 0.98514 0.15489 1.3591 0.52885 0.37396 0.37396 0.54847 0.86861 0.52885 1.3591 0.67314 0.44198 1.4312 0.76845 2.2462 0.93829 0.33271-0.36361 0.81034-0.59141 1.342-0.59141 0.5317 0 1.0093 0.2278 1.342 0.59141 0.8124-0.16928 1.569-0.49283 2.2405-0.9326-0.0011-0.02626 0-0.05335 0-0.07961 0-0.4657 0.17922-0.92985 0.53454-1.2852 0.37396-0.37396 0.86861-0.54847 1.3591-0.52885 0.44198-0.67314 0.76846-1.4312 0.93829-2.2462-0.36361-0.33271-0.59141-0.81034-0.59141-1.342s0.2278-1.0093 0.59141-1.342c-0.16983-0.81504-0.49631-1.5731-0.93829-2.2462-0.49049 0.019621-0.98514-0.15489-1.3591-0.52885-0.35532-0.35532-0.53454-0.81947-0.53454-1.2852 0-0.026266-0.0011-0.053345 0-0.079613-0.67152-0.43977-1.4281-0.76332-2.2405-0.9326-0.33271 0.36361-0.81034 0.59141-1.342 0.59141-0.5317 0-1.0093-0.2278-1.342-0.59141zm1.342 4.9587c0.804 0 1.4558 0.65177 1.4558 1.4558s-0.65177 1.4558-1.4558 1.4558c-0.804 0-1.4558-0.65177-1.4558-1.4558s0.65177-1.4558 1.4558-1.4558z" color="#000000" fill="url(#linearGradient3115)"/>
  <path id="path3917" d="m10.235 2.9863c-0.57551 0-1.0415 0.46855-1.0415 1.0462 0 0.57762 0.46601 1.0462 1.0415 1.0462 0.57551 0 1.0415-0.46855 1.0415-1.0462 0-0.57762-0.46601-1.0462-1.0415-1.0462z"/>
  <path id="path3915" d="m8.0352 3.8057c-0.64231 8.42e-5 -1.2935 0.16292-1.8791 0.45358-0.020822 0.010371-0.033806 0.028791-0.040057 0.051212-0.00636 0.02242-0.00507 0.046093 0.00731 0.065843l0.84486 1.3425c0.021406 0.03414 0.064897 0.048566 0.10197 0.032923 0.31269-0.13278 0.63718-0.19753 0.96504-0.19753 1.206 0 2.2581 0.89765 2.4472 2.0887 0.0063 0.039998 0.03988 0.0695 0.08012 0.0695h1.5878c0.02315 0 0.04635-0.00832 0.06192-0.025606 0.01558-0.017234 0.02401-0.038925 0.02184-0.062184-0.08563-0.88372-0.46176-1.7393-1.0561-2.4033-0.02682-0.030122-0.0717-0.032982-0.10561-0.010974-0.23965 0.15546-0.51155 0.23777-0.7866 0.23777-0.8024 0-1.4529-0.65481-1.453-1.4559 8.34e-5 -4.174e-4 0-0.027923 0-0.029265 0-0.039909-0.029795-0.077271-0.069192-0.084132-0.2509-0.043672-0.49444-0.073159-0.72834-0.073159z"/>
  <path id="path3913" d="m5.4688 4.6875c-0.65091 0.50357-1.1413 1.2256-1.4062 2 0.43917 0.29824 0.71875 0.80329 0.71875 1.375s-0.27958 1.0784-0.71875 1.375c0.26731 0.74584 0.74788 1.4161 1.375 1.9062 0.018247 0.01431 0.039676 0.03525 0.0625 0.03125 0.022738-0.0039 0.050084-0.01175 0.0625-0.03125l0.84375-1.3438c0.021742-0.034218 0.030405-0.098143 0-0.125-0.53385-0.47181-0.84375-1.1375-0.84375-1.8438 0-0.71153 0.30432-1.403 0.84375-1.875 0.030405-0.026687 0.021568-0.05936 0-0.09375l-0.84375-1.3438c-0.012331-0.019577-0.008505-0.027232-0.03125-0.03125-0.011369-0.00197-0.02025-0.00275-0.03125 0-0.010991 0.00275-0.02221-0.007072-0.03125 0z"/>
  <path id="path3911" d="m3.1371 6.9808c-0.58899 0-1.067 0.48057-1.067 1.0718s0.47802 1.0681 1.067 1.0681c0.58899 0 1.067-0.47691 1.067-1.0681s-0.47802-1.0718-1.067-1.0718z"/>
  <path id="path3909" d="m12.15 8.3635-1.5878 0.00369c-0.04006 8.42e-5 -0.07735 0.029838-0.08377 0.069501-0.19166 1.1822-1.2409 2.0741-2.4436 2.0741-0.33169 0-0.65977-0.06879-0.97597-0.20484-0.036983-0.01582-0.080226-0.0046-0.10197 0.02926l-0.85215 1.3425c-0.012408 0.01967-0.013447 0.04333-0.00731 0.06584 0.00618 0.02242 0.019322 0.04085 0.040057 0.05122 0.59016 0.29678 1.2476 0.45358 1.8973 0.45358 0.24098 0 0.49257-0.02423 0.74654-0.0695 0.035651-0.0062 0.0613-0.03344 0.065552-0.0695 0.084629-0.7342 0.70277-1.2876 1.4385-1.2876 0.22807 0 0.4628 0.05782 0.67371 0.16827 0.03208 0.01681 0.06928 0.01139 0.09469-0.01463 0.66513-0.68132 1.0856-1.5796 1.1799-2.524 0.0024-0.023176-0.0062-0.044865-0.02184-0.062184-0.01565-0.017318-0.03874-0.025691-0.06192-0.025606z"/>
  <path id="path3324" d="m10.275 11.191c-0.58899 0-1.067 0.4763-1.067 1.0645 0 0.58816 0.47802 1.0645 1.067 1.0645 0.58899 0 1.067-0.4763 1.067-1.0645 0-0.58815-0.47802-1.0645-1.067-1.0645z"/>
 </g>
</svg>
