<?xml version="1.0" encoding="UTF-8"?>
<!-- Created with Inkscape (http://www.inkscape.org/) -->
<svg id="svg2" width="16" height="16" version="1.1" xmlns="http://www.w3.org/2000/svg" xmlns:cc="http://creativecommons.org/ns#" xmlns:dc="http://purl.org/dc/elements/1.1/" xmlns:rdf="http://www.w3.org/1999/02/22-rdf-syntax-ns#" xmlns:xlink="http://www.w3.org/1999/xlink">
 <defs id="defs4">
  <linearGradient id="linearGradient3204" x1="1" x2="15" y1="9" y2="9" gradientTransform="translate(-17,-2)" gradientUnits="userSpaceOnUse">
   <stop id="stop3702" stop-color="#236f23" offset="0"/>
   <stop id="stop3704" stop-color="#61a939" offset="1"/>
  </linearGradient>
  <linearGradient id="linearGradient3629" x2="29.017" y1="8" y2="8" gradientTransform="matrix(0,-1,1,0,0,16)" gradientUnits="userSpaceOnUse">
   <stop id="stop3330" offset="0"/>
   <stop id="stop3333" stop-opacity="0" offset="1"/>
  </linearGradient>
 </defs>
 <metadata id="metadata7">
  <rdf:RDF>
   <cc:Work rdf:about="">
    <dc:format>image/svg+xml</dc:format>
    <dc:type rdf:resource="http://purl.org/dc/dcmitype/StillImage"/>
    <dc:title/>
   </cc:Work>
  </rdf:RDF>
 </metadata>
 <g id="layer1">
  <rect id="rect3196" transform="rotate(-90)" x="-16" width="16" height="16" rx="2" ry="2" fill="url(#linearGradient3204)"/>
  <path id="path4174" d="m5.5 2c-0.831 0-1.5 0.669-1.5 1.5v1c0-0.831 0.669-1.5 1.5-1.5h8c0.831 0 1.5 0.669 1.5 1.5v-1c0-0.831-0.669-1.5-1.5-1.5h-8zm-4.5 4v1h2v-1h-2zm10 1v1h1.5 2.5v-1h-4zm-5.5 2 3.5 4.5 3.5-4.5h-0.77734l-2.7227 3.5-2.7227-3.5h-0.77734zm-2.5 0.5v1c0 0.277 0.223 0.5 0.5 0.5h0.5v-1h-0.5c-0.277 0-0.5-0.223-0.5-0.5z" fill="#1a1a1a" opacity=".65"/>
  <path id="rect2835" d="m0 14c0 1.108 0.892 2 2 2h12c1.108 0 2-0.892 2-2v-12c0-1.108-0.892-2-2-2h-12c-1.108 0-2 0.892-2 2v12zm0.96875 0v-12c0-0.5832 0.44805-1.0312 1.0312-1.0312h12c0.5832 0 1.0312 0.44805 1.0312 1.0312v12c0 0.5832-0.44805 1.0312-1.0312 1.0312h-12c-0.5832 0-1.0312-0.44805-1.0312-1.0312z" fill="url(#linearGradient3629)" opacity=".4"/>
  <path id="path2843" d="m2 0.96875c-0.5832 0-1.0312 0.44805-1.0312 1.0312v1c0-0.5832 0.44805-1.0312 1.0312-1.0312h12c0.5832 0 1.0312 0.44805 1.0312 1.0312v-1c0-0.5832-0.44805-1.0312-1.0312-1.0312h-12z" fill="#fff" opacity=".3"/>
  <path id="path4179" d="m7 4v1h4v-1h-4zm4 2v1h4v-1h-4zm-5.5 2 0.77734 1h0.72266v-1h-1.5zm5.5 0v1h0.72266l0.77734-1h-1.5zm-10 2.5v1c0 0.831 0.669 1.5 1.5 1.5h1.5v0.5c0 0.831 0.669 1.5 1.5 1.5h5.5 2.5c0.831 0 1.5-0.669 1.5-1.5v-1c0 0.831-0.669 1.5-1.5 1.5h-2.5-5.5c-0.831 0-1.5-0.669-1.5-1.5v-0.5h-1.5c-0.831 0-1.5-0.669-1.5-1.5z" fill="#fff" opacity=".2"/>
  <path id="Symbol-3-1" d="m5.5 2c-0.831 0-1.5 0.669-1.5 1.5v6.5h-0.5c-0.277 0-0.5-0.223-0.5-0.5v-3.5h-2v4.5c0 0.831 0.669 1.5 1.5 1.5h1.5v0.5c0 0.831 0.669 1.5 1.5 1.5l5.5 2e-7h2.5c0.831 0 1.5-0.669 1.5-1.5v-5.5h-4v1h1.5l-3.5 4.5-3.5-4.5h1.5v-4h4v2h4v-2.5c0-0.831-0.669-1.5-1.5-1.5h-8z" fill="#1a1a1a" opacity=".55"/>
 </g>
</svg>
