<?xml version="1.0" encoding="UTF-8"?>
<svg id="svg2" width="16" height="16" version="1.1" xmlns="http://www.w3.org/2000/svg" xmlns:cc="http://creativecommons.org/ns#" xmlns:dc="http://purl.org/dc/elements/1.1/" xmlns:rdf="http://www.w3.org/1999/02/22-rdf-syntax-ns#">
 <metadata id="metadata31">
  <rdf:RDF>
   <cc:Work rdf:about="">
    <dc:format>image/svg+xml</dc:format>
    <dc:type rdf:resource="http://purl.org/dc/dcmitype/StillImage"/>
   </cc:Work>
  </rdf:RDF>
 </metadata>
 <defs id="defs4">
  <linearGradient id="linearGradient3204" x1="1" x2="15" y1="9" y2="9" gradientTransform="translate(-17,-2)" gradientUnits="userSpaceOnUse">
   <stop id="stop3189" stop-color="#323232" offset="0"/>
   <stop id="stop3191" stop-color="#505050" offset="1"/>
  </linearGradient>
  <linearGradient id="linearGradient3629" x2="29.017" y1="8" y2="8" gradientTransform="matrix(0,-1,1,0,0,16)" gradientUnits="userSpaceOnUse">
   <stop id="stop3330" offset="0"/>
   <stop id="stop3333" stop-opacity="0" offset="1"/>
  </linearGradient>
 </defs>
 <g id="layer1">
  <rect id="rect3196" transform="rotate(-90)" x="-16" width="16" height="16" rx="2" ry="2" fill="url(#linearGradient3204)"/>
  <path id="rect2835" d="m0 14c0 1.108 0.892 2 2 2h12c1.108 0 2-0.892 2-2v-12c0-1.108-0.892-2-2-2h-12c-1.108 0-2 0.892-2 2v12zm0.96875 0v-12c0-0.5832 0.44805-1.0312 1.0312-1.0312h12c0.5832 0 1.0312 0.44805 1.0312 1.0312v12c0 0.5832-0.44805 1.0312-1.0312 1.0312h-12c-0.5832 0-1.0312-0.44805-1.0312-1.0312z" fill="url(#linearGradient3629)" opacity=".4"/>
  <path id="path2843" d="m2 0.96875c-0.5832 0-1.0312 0.44805-1.0312 1.0312v1c0-0.5832 0.44805-1.0312 1.0312-1.0312h12c0.5832 0 1.0312 0.44805 1.0312 1.0312v-1c0-0.5832-0.44805-1.0312-1.0312-1.0312h-12z" fill="#fff" opacity=".35"/>
 </g>
 <defs id="defs21">
  <linearGradient id="a" x1="8" x2="8" y1="1" y2="15" gradientUnits="userSpaceOnUse">
   <stop id="stop16" stop-color="#fff" offset="0"/>
   <stop id="stop18" stop-color="#fff" offset="1"/>
  </linearGradient>
 </defs>
 <g id="main" transform="translate(1 1) scale(.85714)">
  <path id="path23" d="m9.802 9.0003 2.4214-4.2306 1.1701 4.2306-1.1701 4.2297zm-1.1803 0.6869 2.4218 4.23-4.2176-1.0932-3.0473-3.1368h4.8432zm2.4213-5.6051-2.4213 4.2306h-4.8432l3.0473-3.1368 4.2173-1.0938zm3.457 3.4784-1.4774-5.5605-5.514 1.4903-0.81623 1.4518-1.6563-0.011994-4.0361 4.0706 4.0361 4.0696h9.39e-5l1.6556-0.01231 0.81742 1.4518 5.5134 1.4903 1.4774-5.5599-0.83904-1.4398 0.83904-1.4398" opacity=".3"/>
  <path id="base" d="m9.802 8.0003 2.4214-4.2306 1.1701 4.2306-1.1701 4.2297zm-1.1803 0.6869 2.4218 4.23-4.2176-1.0932-3.0473-3.1368h4.8432zm2.4213-5.6051-2.4213 4.2306h-4.8432l3.0473-3.1368 4.2173-1.0938zm3.457 3.4784-1.4774-5.5605-5.514 1.4903-0.81623 1.4518-1.6563-0.011994-4.0361 4.0706 4.0361 4.0696h9.39e-5l1.6556-0.01231 0.81742 1.4518 5.5134 1.4903 1.4774-5.5599-0.83904-1.4398 0.83904-1.4398" fill="url(#a)"/>
 </g>
</svg>
