<?xml version="1.0" encoding="UTF-8"?>
<!-- Created with Inkscape (http://www.inkscape.org/) -->
<svg id="svg2" width="16" height="16" version="1.1" xmlns="http://www.w3.org/2000/svg" xmlns:cc="http://creativecommons.org/ns#" xmlns:dc="http://purl.org/dc/elements/1.1/" xmlns:rdf="http://www.w3.org/1999/02/22-rdf-syntax-ns#" xmlns:xlink="http://www.w3.org/1999/xlink">
 <defs id="defs4">
  <linearGradient id="linearGradient3192" x1="9.0575" x2="9.0575" y1="10.203" y2="-12.199" gradientTransform="translate(0 5.8007)" gradientUnits="userSpaceOnUse">
   <stop id="stop3330" offset="0"/>
   <stop id="stop3333" stop-opacity="0" offset="1"/>
  </linearGradient>
  <linearGradient id="linearGradient3204" x1="1" x2="15" y1="9" y2="9" gradientTransform="translate(-16,-1)" gradientUnits="userSpaceOnUse">
   <stop id="stop3189" stop-color="#b4b4b4" offset="0"/>
   <stop id="stop3191" stop-color="#e6e6e6" offset="1"/>
  </linearGradient>
  <radialGradient id="radialGradient3678" cx="47.098" cy="78.287" r="38.957" gradientTransform="matrix(.213 0 0 .20213 -2.0321 -3.0013)" gradientUnits="userSpaceOnUse">
   <stop id="stop3226-51" stop-color="#523d23" offset="0"/>
   <stop id="stop3228-2" stop-color="#1b150c" offset="1"/>
  </radialGradient>
  <linearGradient id="linearGradient3865" x1="20.083" x2="89.096" y1="60.577" y2="60.577" gradientTransform="matrix(.17388 0 0 .1652 -1.4921 -2.0072)" gradientUnits="userSpaceOnUse" spreadMethod="reflect">
   <stop id="stop5854" stop-color="#f3cb20" stop-opacity="0" offset="0"/>
   <stop id="stop5856" stop-color="#f3cb20" offset=".18166"/>
   <stop id="stop5862" stop-color="#f3cb20" offset=".69319"/>
   <stop id="stop5858" stop-color="#f3cb20" stop-opacity="0" offset="1"/>
  </linearGradient>
 </defs>
 <metadata id="metadata7">
  <rdf:RDF>
   <cc:Work rdf:about="">
    <dc:format>image/svg+xml</dc:format>
    <dc:type rdf:resource="http://purl.org/dc/dcmitype/StillImage"/>
    <dc:title/>
   </cc:Work>
  </rdf:RDF>
 </metadata>
 <g id="layer1">
  <rect id="rect2410" x=".49972" y=".5" width="15" height="15.5" rx="2" ry="2" fill="url(#linearGradient3192)" opacity=".5"/>
  <rect id="rect3194" x="1" y="2" width="14" height="14" rx="2" ry="2" opacity=".3"/>
  <rect id="rect3196" transform="rotate(-90)" x="-15" y="1" width="14" height="14" rx="2" ry="2" fill="url(#linearGradient3204)"/>
  <rect id="rect3461" x="2" y="2" width="12" height="12" rx="1.5" ry="1.5" fill="url(#radialGradient3678)"/>
  <path id="rect2411" d="m3 1c-1.108 0-2 0.892-2 2v1c0-1.108 0.892-2 2-2h10c1.108 0 2 0.892 2 2v-1c0-1.108-0.892-2-2-2h-10z" fill="#fff" opacity=".7"/>
  <path id="path3186" d="m3 15c-1.108 0-2-0.892-2-2v-1c0 1.108 0.892 2 2 2h10c1.108 0 2-0.892 2-2v1c0 1.108-0.892 2-2 2h-10z" opacity=".15"/>
  <rect id="rect3935" x="2.5" y="2.5" width="11" height="11" rx="1.3" ry="1.3" fill="none" opacity=".5" stroke="#000" stroke-linejoin="round"/>
  <path id="path3267" d="m6.375 3.4688a0.32503 0.32503 0 0 0-0.09375 0.03125 0.32503 0.32503 0 0 0-0.21875 0.28125v0.09375l-0.90625 5.3438h-3.1562v0.65625h3.4062a0.32503 0.32503 0 0 0 0.25-0.09375 0.32503 0.32503 0 0 0 0.09375-0.1875l0.625-3.6875 1.0312 6.5v0.09375a0.32812 0.32812 0 0 0 0.53125 0.25 0.32812 0.32812 0 0 0 0.09375-0.125 0.32812 0.32812 0 0 0 0.03125-0.125v-0.09375l0.53125-3.4688h1.1562a0.32503 0.32503 0 0 0 0.3125-0.21875l0.125-0.40625 0.65625 2.1875a0.32503 0.32503 0 0 0 0.03125 0.0625 0.32503 0.32503 0 0 0 0.5625-0.03125l0.34375-0.6875h2.2188v-0.625h-2.4062a0.32503 0.32503 0 0 0-0.3125 0.15625l-0.0625 0.125-0.6875-2.375a0.32503 0.32503 0 0 0-0.53125-0.15625 0.32503 0.32503 0 0 0-0.03125 0.03125 0.32503 0.32503 0 0 0-0.0625 0.09375l-0.40625 1.2188h-1.1875a0.32503 0.32503 0 0 0-0.21875 0.09375 0.32503 0.32503 0 0 0-0.09375 0.15625l-0.28125 1.7188-1-6.4062v-0.09375a0.32503 0.32503 0 0 0-0.15625-0.25 0.32503 0.32503 0 0 0-0.1875-0.0625z" color="#000000" fill="url(#linearGradient3865)" style="block-progression:tb;text-indent:0;text-transform:none"/>
  <rect id="rect6772" x="11" y="12" width="2" height="1" fill="#f0c512" opacity=".5"/>
 </g>
</svg>
