<?xml version="1.0" encoding="UTF-8"?>
<!-- Created with Inkscape (http://www.inkscape.org/) -->
<svg id="svg2" width="16" height="16" version="1.1" xmlns="http://www.w3.org/2000/svg" xmlns:cc="http://creativecommons.org/ns#" xmlns:dc="http://purl.org/dc/elements/1.1/" xmlns:rdf="http://www.w3.org/1999/02/22-rdf-syntax-ns#" xmlns:xlink="http://www.w3.org/1999/xlink">
 <defs id="defs4">
  <linearGradient id="linearGradient3204" x1="1" x2="15" y1="9" y2="9" gradientTransform="translate(-17,-2)" gradientUnits="userSpaceOnUse">
   <stop id="stop3189" stop-color="#d7d7d7" offset="0"/>
   <stop id="stop3191" stop-color="#f5f5f5" offset="1"/>
  </linearGradient>
  <linearGradient id="linearGradient3629" x2="29.017" y1="8" y2="8" gradientTransform="matrix(0,-1,1,0,0,16)" gradientUnits="userSpaceOnUse">
   <stop id="stop3330" offset="0"/>
   <stop id="stop3333" stop-opacity="0" offset="1"/>
  </linearGradient>
  <linearGradient id="linearGradient3682" x1="13" x2="13" y1="16" y2="3.9584" gradientTransform="matrix(.75 0 0 .75 -1 .99999)" gradientUnits="userSpaceOnUse">
   <stop id="stop3659" offset="0"/>
   <stop id="stop3661" stop-color="#444" offset="1"/>
  </linearGradient>
 </defs>
 <metadata id="metadata7">
  <rdf:RDF>
   <cc:Work rdf:about="">
    <dc:format>image/svg+xml</dc:format>
    <dc:type rdf:resource="http://purl.org/dc/dcmitype/StillImage"/>
    <dc:title/>
   </cc:Work>
  </rdf:RDF>
 </metadata>
 <g id="layer1">
  <rect id="rect3196" transform="rotate(-90)" x="-16" width="16" height="16" rx="2" ry="2" fill="url(#linearGradient3204)"/>
  <path id="rect2835" d="m0 14c0 1.108 0.892 2 2 2h12c1.108 0 2-0.892 2-2v-12c0-1.108-0.892-2-2-2h-12c-1.108 0-2 0.892-2 2v12zm0.96875 0v-12c0-0.5832 0.44805-1.0312 1.0312-1.0312h12c0.5832 0 1.0312 0.44805 1.0312 1.0312v12c0 0.5832-0.44805 1.0312-1.0312 1.0312h-12c-0.5832 0-1.0312-0.44805-1.0312-1.0312z" fill="url(#linearGradient3629)" opacity=".4"/>
  <path id="path2843" d="m2 0.96875c-0.5832 0-1.0312 0.44805-1.0312 1.0312v1c0-0.5832 0.44805-1.0312 1.0312-1.0312h12c0.5832 0 1.0312 0.44805 1.0312 1.0312v-1c0-0.5832-0.44805-1.0312-1.0312-1.0312h-12z" fill="#fff" opacity=".5"/>
  <path id="text2810" d="m14 4.1521c-8e-6 0.050445-0.01338 0.096777-0.04005 0.13897-0.02675 0.042213-0.05607 0.063315-0.088 0.063306-0.2636 0.029607-0.47906 0.12977-0.64636 0.30051-0.16734 0.17076-0.33998 0.49649-0.51794 0.97721l-2.7237 7.2668c-0.017786 0.06742-0.067663 0.10114-0.14961 0.10114-0.064106 0-0.11387-0.03369-0.14929-0.10114l-1.5274-3.7822-1.7572 3.7822c-0.035434 0.06742-0.085192 0.10114-0.14929 0.10114-0.078454 0-0.13006-0.03369-0.15483-0.10114l-2.6758-7.2668c-0.16733-0.45138-0.34355-0.76663-0.5287-0.94575-0.18514-0.17911-0.4433-0.28976-0.77446-0.33197-0.028462 4.8e-6 -0.055148-0.01795-0.08002-0.053853-0.024908-0.035909-0.037282-0.076996-0.037282-0.12333 0-0.11811 0.028462-0.17717 0.085399-0.17718 0.23859 9.6e-6 0.48784 0.012757 0.74774 0.038215 0.24207 0.025219 0.46991 0.037833 0.68352 0.037833 0.21708 4.8e-6 0.47339-0.012614 0.76893-0.037833 0.30987-0.025458 0.584-0.038215 0.82238-0.038215 0.057135 9.6e-6 0.085727 0.05907 0.085727 0.17718 0 0.11813-0.017858 0.17719-0.053438 0.17718-0.2386 0.021135-0.42646 0.092777-0.56358 0.21501-0.13712 0.12225-0.20568 0.28245-0.20567 0.48059-7.5e-6 0.10114 0.028605 0.22763 0.085719 0.37945l2.2109 5.9134 1.2549-2.8079-1.1695-2.9029c-0.21013-0.5188-0.38284-0.85303-0.5181-1.0027-0.13527-0.14964-0.34003-0.24132-0.61426-0.27504-0.024763 4.1e-6 -0.048742-0.01795-0.071872-0.053853-0.023122-0.035909-0.034725-0.076996-0.034725-0.12333 0-0.11811 0.0249-0.17717 0.07464-0.17718 0.23859 9.6e-6 0.45753 0.012757 0.65679 0.038215 0.19231 0.025219 0.39701 0.037833 0.6141 0.037833 0.2136 4.8e-6 0.4397-0.012614 0.67831-0.037833 0.24577-0.025458 0.48784-0.038215 0.72623-0.038215 0.057137 9.6e-6 0.085719 0.05907 0.085726 0.17718-6.9e-6 0.11813-0.017786 0.17719-0.053434 0.17718-0.4772 0.037833-0.7158 0.19803-0.7158 0.48059-7.7e-6 0.12662 0.055217 0.32272 0.16558 0.58829l0.77447 1.8594 0.76892-1.7016c0.10691-0.2401 0.16036-0.44237 0.16037-0.60682-6e-6 -0.38807-0.2386-0.59472-0.71579-0.61994-0.042626 3.9e-6 -0.0639-0.059054-0.0639-0.17718-6e-6 -0.042213 0.010603-0.082275 0.031946-0.12024 0.021274-0.037928 0.042694-0.056924 0.064183-0.056931 0.17079 9.6e-6 0.38082 0.012757 0.63006 0.038215 0.23859 0.025219 0.43438 0.037833 0.58737 0.037833 0.11038 4.8e-6 0.27239-0.010539 0.486-0.031665 0.27054-0.029607 0.49663-0.044374 0.67831-0.044374 0.04255 9.5e-6 0.06389 0.050701 0.06389 0.15209-1.5e-5 0.13486-0.03914 0.20228-0.11735 0.20228-0.27772 0.033698-0.5011 0.12437-0.67016 0.27194-0.16907 0.1476-0.38007 0.48285-0.633 1.0058l-1.0251 2.2451 1.3882 3.3518 2.0509-5.6478c0.07126-0.20638 0.1069-0.39605 0.10692-0.56899-1.4e-5 -0.41329-0.23861-0.63254-0.7158-0.65777-0.04283 4.8e-6 -0.06425-0.059054-0.06417-0.17718-7e-6 -0.11811 0.03201-0.17717 0.09616-0.17718 0.17448 9.5e-6 0.38103 0.012757 0.61964 0.038215 0.22077 0.025219 0.4059 0.037832 0.55542 0.037832 0.15667 4.8e-6 0.33822-0.012605 0.54467-0.037832 0.2136-0.025458 0.4058-0.038215 0.57661-0.038215 0.04995 9.5e-6 0.07496 0.050701 0.07497 0.15209z" fill="url(#linearGradient3682)"/>
 </g>
</svg>
