<?xml version="1.0" encoding="UTF-8"?>
<!-- Created with Inkscape (http://www.inkscape.org/) -->
<svg id="svg2" width="16" height="16" version="1.1" xmlns="http://www.w3.org/2000/svg" xmlns:cc="http://creativecommons.org/ns#" xmlns:dc="http://purl.org/dc/elements/1.1/" xmlns:rdf="http://www.w3.org/1999/02/22-rdf-syntax-ns#" xmlns:xlink="http://www.w3.org/1999/xlink">
 <defs id="defs4">
  <linearGradient id="linearGradient3204" x1="1" x2="15" y1="9" y2="9" gradientTransform="translate(-17,-2)" gradientUnits="userSpaceOnUse">
   <stop id="stop3702" stop-color="#344262" offset="0"/>
   <stop id="stop3704" stop-color="#4a5e8c" offset="1"/>
  </linearGradient>
  <linearGradient id="linearGradient3629" x2="29.017" y1="8" y2="8" gradientTransform="matrix(0,-1,1,0,0,16)" gradientUnits="userSpaceOnUse">
   <stop id="stop3330" offset="0"/>
   <stop id="stop3333" stop-opacity="0" offset="1"/>
  </linearGradient>
 </defs>
 <metadata id="metadata7">
  <rdf:RDF>
   <cc:Work rdf:about="">
    <dc:format>image/svg+xml</dc:format>
    <dc:type rdf:resource="http://purl.org/dc/dcmitype/StillImage"/>
    <dc:title/>
   </cc:Work>
  </rdf:RDF>
 </metadata>
 <g id="layer1">
  <rect id="rect3196" transform="rotate(-90)" x="-16" width="16" height="16" rx="2" ry="2" fill="url(#linearGradient3204)"/>
  <path id="rect2835" d="m0 14c0 1.108 0.892 2 2 2h12c1.108 0 2-0.892 2-2v-12c0-1.108-0.892-2-2-2h-12c-1.108 0-2 0.892-2 2v12zm0.96875 0v-12c0-0.5832 0.44805-1.0312 1.0312-1.0312h12c0.5832 0 1.0312 0.44805 1.0312 1.0312v12c0 0.5832-0.44805 1.0312-1.0312 1.0312h-12c-0.5832 0-1.0312-0.44805-1.0312-1.0312z" fill="url(#linearGradient3629)" opacity=".4"/>
  <path id="path2843" d="m2 0.96875c-0.5832 0-1.0312 0.44805-1.0312 1.0312v1c0-0.5832 0.44805-1.0312 1.0312-1.0312h12c0.5832 0 1.0312 0.44805 1.0312 1.0312v-1c0-0.5832-0.44805-1.0312-1.0312-1.0312h-12z" fill="#fff" opacity=".25"/>
  <path id="path3672" d="m8.5863 9.145c-0.21118-0.001073-0.42759 0.024871-0.63552 0.077033-0.49756 0.12481-0.9598 0.37947-1.3442 0.74337-0.069761 0.066028-0.13021 0.1194-0.13481 0.1194-0.00456 0-0.043431-0.04822-0.088588-0.10785-0.1095-0.1446-0.30369-0.33445-0.45064-0.43909-0.23602-0.16807-0.56913-0.30768-0.86277-0.36206-0.17614-0.032619-0.65085-0.033409-0.8204-0.0038322-0.6144 0.1071-1.1406 0.38379-1.61 0.85122-0.26754 0.26643-0.44387 0.52095-0.60471 0.87047-0.067157 0.15428-0.068285 0.15627-0.084737 0.40057-0.023159 0.34397-0.061974 0.54467-0.16562 0.83196-0.025826 0.07159-0.055038 0.20678-0.088588 0.42368-0.029117 0.20055-0.076101 0.52672-0.15021 1.0322-0.037963 0.25894-0.052456 0.39434-0.042368 0.40057 0.026089 0.01613 0.14766 0.0037 0.26191-0.02697 0.087969-0.02361 0.17022-0.06001 0.25036-0.104 0.027938-0.01533 0.054194-0.03255 0.080885-0.05007 0.011575-0.0076 0.023347-0.01513 0.034664-0.0231 0.026249-0.01852 0.052264-0.03726 0.077033-0.05777 0.17186-0.14233 0.30634-0.33003 0.37746-0.53923 0.00993-0.03328 0.020645-0.07224 0.030813-0.1194 0.00493-0.02381 0.012202-0.06127 0.019257-0.10014 0.012352-0.0681 0.021846-0.12503 0.038516-0.22725 0.02323-0.14243 0.047966-0.29712 0.073182-0.4699 0.061984-0.42473 0.12588-0.82512 0.14251-0.88973 0.016629-0.06462 0.067192-0.18965 0.1117-0.28117 0.22626-0.4653 0.65445-0.8252 1.1324-0.95136 0.10313-0.02722 0.16522-0.03419 0.37746-0.03467 0.29467-6.5e-4 0.40373 0.02295 0.61241 0.13096 0.24097 0.12472 0.47749 0.41002 0.56619 0.68174 0.096217 0.29474 0.094819 0.38251-0.042367 1.3211-0.1187 0.81213-0.1301 0.96531-0.088588 1.1247 0.065436 0.25122 0.27593 0.48114 0.52383 0.5739 0.08491 0.03177 0.27976 0.06137 0.30428 0.04622 0.00795-0.0049 0.093395-0.56197 0.19258-1.2402 0.17544-1.1997 0.20752-1.3831 0.26962-1.5407 0.17611-0.4468 0.59039-0.85318 1.0361-1.0168 0.19179-0.07043 0.26512-0.08034 0.52768-0.08089 0.29733-6.17e-4 0.37462 0.01396 0.5893 0.1194 0.22663 0.11131 0.42769 0.32529 0.54694 0.57775 0.088607 0.1876 0.1045 0.27336 0.10399 0.54308-3.901e-4 0.21961-0.00774 0.29722-0.10785 0.96292-0.12403 0.82473-0.12872 0.93349-0.057774 1.1247 0.094155 0.25376 0.31828 0.46324 0.57005 0.52768 0.09507 0.02433 0.22803 0.03389 0.24266 0.01925 0.0048-0.0048 0.04036-0.23387 0.08088-0.51227 0.08191-0.5628 0.08484-0.5739 0.104-0.5739 0.0074 0 0.03195 0.03575 0.05777 0.08089 0.12106 0.2116 0.37918 0.4938 0.5893 0.64323 0.22948 0.16319 0.52274 0.28245 0.82426 0.33895 0.14976 0.02806 0.23981 0.03204 0.98602 0.03851 0.45078 0.0038 0.835 0.0012 0.85507-0.0038 0.03523-0.0088 0.03501-0.01259 0.03467-0.13866-2.46e-4 -0.07181-0.0069-0.15966-0.01542-0.19644-0.04615-0.20032-0.21341-0.41782-0.40057-0.51616-0.15783-0.08294-0.2571-0.09599-0.64708-0.09629-0.35731-2.72e-4 -0.51285-0.01833-0.68945-0.07704-0.27731-0.09224-0.55576-0.35114-0.68944-0.64327-0.197-0.4305-0.12746-0.98744 0.18103-1.4521 0.0922-0.13888 0.33748-0.38404 0.48531-0.48531 0.1464-0.1003 0.32952-0.18823 0.50072-0.2388 0.12736-0.03762 0.15771-0.03889 0.5893-0.05007 0.49326-0.01278 0.55175-0.02403 0.73182-0.10785 0.19805-0.092187 0.41645-0.28519 0.52383-0.46605 0.05864-0.098782 0.11592-0.2493 0.12325-0.32354l0.0038-0.053918-0.77804-0.00383c-0.80901-0.0046-0.95358 0.00506-1.2171 0.061629-0.69134 0.14845-1.3824 0.63083-1.8103 1.2672-0.1046 0.15556-0.11023 0.15746-0.16562 0-0.15836-0.45027-0.55078-0.88819-0.99368-1.1092-0.28575-0.14261-0.62635-0.2178-0.97832-0.21955z" fill="#bdd1e3"/>
  <path id="path3670" d="m9.7078 1.99c-0.066526 0-0.078063 0.00513-0.084468 0.034555-0.00399 0.018445-0.042874 0.29158-0.088309 0.60664-0.045434 0.31506-0.087486 0.57509-0.092148 0.57976-0.0046 0.00468-0.33076 0.014297-0.72566 0.019197-0.70239 0.00871-0.72244 0.00782-0.89844 0.046074-0.56911 0.12369-1.0606 0.40054-1.5358 0.86388l-0.16894 0.16126-0.026884-0.042234c-0.17627-0.28462-0.30863-0.44401-0.49145-0.59512-0.27288-0.22554-0.57454-0.35784-0.95219-0.41466-0.11861-0.017846-0.31386-0.022966-0.95603-0.023037-0.72224-7.45e-5 -0.80587 0.00194-0.81397 0.023037-0.016888 0.044019-0.00957 0.28167 0.01151 0.36091 0.061767 0.23202 0.23564 0.42019 0.46842 0.51065 0.078238 0.030404 0.11804 0.036027 0.50681 0.046074 0.46436 0.012001 0.56568 0.026945 0.7487 0.10367 0.30027 0.12587 0.55483 0.42941 0.64119 0.7679 0.057134 0.22391 0.034774 0.54987-0.053761 0.81013-0.18495 0.54379-0.68651 1.0113-1.244 1.1595-0.12982 0.034513-0.18133 0.039443-0.59128 0.04991-0.47292 0.012081-0.52528 0.019261-0.69878 0.095987-0.18421 0.081466-0.39129 0.25466-0.51449 0.43002-0.079082 0.11256-0.16275 0.29133-0.16894 0.36859l-0.00376 0.04991 0.73334 0.00769c0.76174 0.0046 0.95786-0.00491 1.2171-0.05759 0.54349-0.11043 1.0743-0.40957 1.5396-0.86772 0.081489-0.080229 0.14775-0.1459 0.14974-0.1459 0.00195 0 0.037285 0.052472 0.076789 0.11902 0.23856 0.40197 0.59995 0.69643 1.0367 0.84085 0.29633 0.097997 0.34519 0.101 1.2747 0.10751l0.83701 0.00768 0.015359-0.038391c0.022094-0.058128 0.017763-0.24407-0.0076823-0.34172-0.066384-0.25486-0.25086-0.45478-0.49529-0.53369-0.087969-0.028404-0.15113-0.032371-0.54137-0.04223-0.49616-0.01253-0.56118-0.022838-0.77558-0.13438-0.35246-0.18337-0.59458-0.59276-0.59512-1.0059-2.455e-4 -0.21614 0.07464-0.52963 0.17278-0.72566 0.1757-0.35098 0.52897-0.69604 0.89076-0.86772 0.25497-0.12099 0.48164-0.1574 0.97907-0.15742 0.23805-1.06e-5 0.3131-0.00765 0.40314-0.030716 0.13586-0.034807 0.24856-0.082443 0.35323-0.15358 0.043863-0.029812 0.085033-0.053753 0.088308-0.053753 0.01562 0-0.00422 0.1428-0.10751 0.84852-0.14382 0.98274-0.1426 0.98315-0.14206 1.2286 0.00123 0.55986 0.19436 1.0226 0.6028 1.4321 0.23098 0.23159 0.45854 0.3787 0.75638 0.48377 0.1178 0.041556 0.37247 0.093358 0.50681 0.10751 0.11598 0.012202 0.43042 0.010493 0.54905-0.00376 0.54107-0.0654 1.0087-0.26416 1.4628-0.62584 0.34037-0.27109 0.609-0.59195 0.80629-0.96371 0.03572-0.067297 0.06692-0.12121 0.06912-0.11902-0.07539 0.42732-0.0037 0.11033 0.04992-0.1459 0.10331-0.28637 0.142-0.48644 0.16509-0.82932l0.0077-0.23038-0.02688-0.18046c-0.057394-0.38533-0.20495-0.70691-0.46466-1.0137-0.23111-0.27302-0.531-0.48152-0.86388-0.59896-0.32822-0.11579-0.55932-0.13369-1.555-0.13438l-0.66807-0.00383 0.01151-0.076789c0.0534-0.41757-0.0057-0.63432-0.23037-0.86005-0.16324-0.16402-0.35552-0.25341-0.54904-0.25341l1e-5 -5.8e-6zm0.63735 2.1578 0.82549 0.00768c0.9298 0.00634 0.92411 0.00569 1.1672 0.12286 0.45535 0.21949 0.72479 0.72838 0.66423 1.2517-0.04566 0.39465-0.202 0.72619-0.46458 0.99827-0.27533 0.2853-0.54852 0.44587-0.87156 0.51449-0.15927 0.033826-0.46843 0.038277-0.622 0.00768-0.45716-0.09106-0.83482-0.48968-0.92148-0.96755-0.03485-0.19217-0.0227-0.36099 0.08831-1.1288 0.05849-0.40462 0.11506-0.75284 0.12286-0.77174l0.01152-0.034555z" fill="#85c226"/>
 </g>
</svg>
