<?xml version="1.0" encoding="UTF-8"?>
<!-- Created with Inkscape (http://www.inkscape.org/) -->
<svg id="svg2" width="16" height="16" version="1.1" xmlns="http://www.w3.org/2000/svg" xmlns:cc="http://creativecommons.org/ns#" xmlns:dc="http://purl.org/dc/elements/1.1/" xmlns:rdf="http://www.w3.org/1999/02/22-rdf-syntax-ns#" xmlns:xlink="http://www.w3.org/1999/xlink">
 <defs id="defs4">
  <linearGradient id="linearGradient3204" x1="1" x2="15" y1="9" y2="9" gradientTransform="translate(-17,-2)" gradientUnits="userSpaceOnUse">
   <stop id="stop3189-9" stop-color="#787878" offset="0"/>
   <stop id="stop3191-8" stop-color="#b4b4b4" offset="1"/>
  </linearGradient>
  <linearGradient id="linearGradient3629" x2="29.017" y1="8" y2="8" gradientTransform="matrix(0,-1,1,0,0,16)" gradientUnits="userSpaceOnUse">
   <stop id="stop3330" offset="0"/>
   <stop id="stop3333" stop-opacity="0" offset="1"/>
  </linearGradient>
  <clipPath id="clipPath4403">
   <path id="path4405" d="m30.916 135.97c-0.93727 0.54113-1.2283 1.7475-0.67792 2.7008l1.9375 3.3558c-1.4181 1.4141-2.6223 3.012-3.5955 4.71l-3.7836-0.99095c-0.53163-0.14245-1.0379-0.11751-1.4762 0.13061-0.43816 0.24835-0.79654 0.66758-0.9366 1.1903l-1.9788 7.3851c-0.2801 1.0454 0.36595 2.0654 1.4291 2.3503l3.7722 1.0336c-0.0062 1.9571 0.23771 3.943 0.75876 5.8767l-3.3558 1.9375c-0.95328 0.55037-1.3044 1.7407-0.7633 2.6779l3.8125 6.6034c0.54113 0.93727 1.7475 1.2283 2.7008 0.67793l3.3558-1.9375c1.4141 1.4181 3.012 2.6223 4.71 3.5954l-0.99094 3.7836c-0.28489 1.0632 0.27543 2.1328 1.3209 2.4128l7.3851 1.9788c1.0454 0.28011 2.0654-0.36588 2.3503-1.4291l1.0336-3.7722c1.9571 6e-3 3.943-0.23771 5.8767-0.75876l1.9375 3.3558c0.55038 0.95328 1.7407 1.3044 2.6779 0.7633l6.6034-3.8125c0.93726-0.54113 1.2283-1.7475 0.67792-2.7008l-1.9375-3.3558c1.4181-1.4141 2.6223-3.012 3.5955-4.71l3.7836 0.99094c1.0632 0.2849 2.1327-0.27549 2.4128-1.3209l1.9788-7.3851c0.2801-1.0454-0.36595-2.0654-1.4291-2.3503l-3.7722-1.0336c0.0062-1.9571-0.2377-3.943-0.75875-5.8767l3.3558-1.9375c0.95327-0.55037 1.3044-1.7407 0.7633-2.6779l-3.8125-6.6034c-0.54113-0.93726-1.7475-1.2283-2.7008-0.67792l-3.3558 1.9375c-1.4141-1.4181-3.012-2.6223-4.71-3.5955l0.99094-3.7836c0.28489-1.0632-0.27542-2.1328-1.3209-2.4128l-7.3851-1.9788c-1.0454-0.28011-2.0654 0.36588-2.3503 1.4291l-1.0336 3.7722c-1.9571-6e-3 -3.943 0.2377-5.8767 0.75875l-1.9375-3.3558c-0.55038-0.95328-1.7407-1.3044-2.6779-0.7633l-6.6034 3.8125zm10.052 9.7851c6.6961-3.866 15.258-1.5718 19.124 5.1244s1.5717 15.258-5.1244 19.124c-6.6961 3.866-15.258 1.5717-19.124-5.1244s-1.5717-15.258 5.1244-19.124z" display="block" fill="url(#linearGradient4407)"/>
  </clipPath>
  <linearGradient id="linearGradient3267" x1="48.234" x2="126.14" y1="48.047" y2="66.233" gradientUnits="userSpaceOnUse" xlink:href="#linearGradient4071-3"/>
  <linearGradient id="linearGradient4071-3">
   <stop id="stop4073-8" offset="0"/>
   <stop id="stop4075-4" stop-opacity="0" offset="1"/>
  </linearGradient>
  <linearGradient id="linearGradient3269" x1="48.055" x2="126.67" y1="48.032" y2="62.839" gradientUnits="userSpaceOnUse" xlink:href="#linearGradient4071-3"/>
  <linearGradient id="linearGradient3271" x1="47.997" x2="127.05" y1="48.029" y2="60.29" gradientUnits="userSpaceOnUse" xlink:href="#linearGradient4071-3"/>
  <linearGradient id="linearGradient3273" x1="47.998" x2="127.42" y1="48.029" y2="57.665" gradientUnits="userSpaceOnUse" xlink:href="#linearGradient4071-3"/>
  <linearGradient id="linearGradient3275" x1="48.234" x2="126.14" y1="48.047" y2="66.233" gradientUnits="userSpaceOnUse" xlink:href="#linearGradient4115-2"/>
  <linearGradient id="linearGradient4115-2">
   <stop id="stop4117-3" stop-color="#fff" offset="0"/>
   <stop id="stop4119-6" stop-color="#fff" stop-opacity="0" offset="1"/>
  </linearGradient>
  <linearGradient id="linearGradient3277" x1="48.055" x2="126.67" y1="48.032" y2="62.839" gradientUnits="userSpaceOnUse" xlink:href="#linearGradient4115-2"/>
  <linearGradient id="linearGradient3279" x1="47.997" x2="127.05" y1="48.029" y2="60.29" gradientUnits="userSpaceOnUse" xlink:href="#linearGradient4115-2"/>
  <linearGradient id="linearGradient3281" x1="47.998" x2="127.42" y1="48.029" y2="57.665" gradientUnits="userSpaceOnUse" xlink:href="#linearGradient4115-2"/>
  <linearGradient id="linearGradient3898" x1="20.759" x2="20.759" y1="1" y2="45.017" gradientTransform="matrix(.27907 0 0 .27907 1.3024 1.5814)" gradientUnits="userSpaceOnUse">
   <stop id="stop3311" stop-color="#f0f0f0" offset="0"/>
   <stop id="stop3313" stop-color="#aaa" offset="1"/>
  </linearGradient>
  <linearGradient id="linearGradient2983" x1="22.221" x2="83.447" y1="14.908" y2="78.168" gradientTransform="matrix(.24372 -.020878 .020878 .24372 18.424 .69747)" gradientUnits="userSpaceOnUse" xlink:href="#linearGradient4071-3"/>
  <radialGradient id="radialGradient2985" cx="63.938" cy="95.866" r="20.688" gradientTransform="matrix(.011723 -.020304 .11865 .068496 19.194 5.4415)" gradientUnits="userSpaceOnUse">
   <stop id="stop3407" stop-color="#d0d0d0" offset="0"/>
   <stop id="stop3409" stop-color="#a1a1a1" offset="1"/>
  </radialGradient>
  <linearGradient id="linearGradient2987" x1="40.113" x2="40.113" y1="2.6025" y2="75.04" gradientUnits="userSpaceOnUse">
   <stop id="stop3555" stop-color="#5496b4" stop-opacity=".61069" offset="0"/>
   <stop id="stop3557" stop-color="#dfecf2" stop-opacity=".26718" offset="1"/>
  </linearGradient>
  <linearGradient id="linearGradient2989" x1="12.75" x2="63.25" y1="11.75" y2="64" gradientUnits="userSpaceOnUse">
   <stop id="stop3194" stop-color="#404040" offset="0"/>
   <stop id="stop3200" stop-color="#b7b7b7" offset=".5"/>
   <stop id="stop3196" stop-color="#404040" offset="1"/>
  </linearGradient>
  <filter id="filter3274" color-interpolation-filters="sRGB">
   <feGaussianBlur id="feGaussianBlur3276" stdDeviation="1.9857422"/>
  </filter>
  <linearGradient id="linearGradient2991" x1="34.796" x2="26.033" y1="2.4125" y2="49.633" gradientTransform="matrix(.9931 0 0 .9931 .51207 .51034)" gradientUnits="userSpaceOnUse" xlink:href="#linearGradient4115-2"/>
  <linearGradient id="linearGradient2993" x1="124.34" x2="10.007" y1="42.894" y2="21.098" gradientUnits="userSpaceOnUse" xlink:href="#linearGradient4115-2"/>
  <radialGradient id="radialGradient2995" cx="31.357" cy="22.818" r="7.357" gradientTransform="matrix(1 4.829e-8 -3.481e-8 .72085 -6.5191e-6 6.3697)" gradientUnits="userSpaceOnUse" xlink:href="#linearGradient4115-2"/>
  <linearGradient id="linearGradient2997" x1="72" x2="55.941" y1="129.12" y2="129.12" gradientTransform="matrix(.11247 0 0 .11247 -.80798 22.685)" gradientUnits="userSpaceOnUse">
   <stop id="stop3365" offset="0"/>
   <stop id="stop3377" stop-color="#646464" offset=".2"/>
   <stop id="stop3371" stop-color="#c8c8c8" offset=".3"/>
   <stop id="stop3373" stop-color="#646464" offset=".4"/>
   <stop id="stop3367" offset="1"/>
  </linearGradient>
  <linearGradient id="linearGradient3170" x1="22.221" x2="83.447" y1="14.908" y2="78.168" gradientTransform="matrix(.24225 .033897 -.033897 .24225 19.78 -1.322)" gradientUnits="userSpaceOnUse" xlink:href="#linearGradient4071-3"/>
 </defs>
 <metadata id="metadata7">
  <rdf:RDF>
   <cc:Work rdf:about="">
    <dc:format>image/svg+xml</dc:format>
    <dc:type rdf:resource="http://purl.org/dc/dcmitype/StillImage"/>
    <dc:title/>
   </cc:Work>
  </rdf:RDF>
 </metadata>
 <g id="layer1">
  <rect id="rect3196" transform="rotate(-90)" x="-16" width="16" height="16" rx="2" ry="2" fill="url(#linearGradient3204)"/>
  <path id="path3904" d="m7.1562 1.4062c-0.83672 0-1.4321 0.70294-1.4688 1.4688-0.04591-0.03121-0.15593-0.09361-0.15625-0.09375-9.46e-5 -4.08e-5 -0.019978 0.00337-0.03125 0-0.18858-0.14783-0.44747-0.34039-0.84375-0.34375-0.34121-0.0030276-0.76406 0.1078-1.0938 0.4375l-1.1875 1.1875c-0.62734 0.62735-0.52174 1.567 0 2.125-0.76581 0.036644-1.4688 0.63203-1.4688 1.4688v1.6875c0 0.83672 0.70294 1.4321 1.4688 1.4688-0.5218 0.55802-0.6274 1.4977 0 2.125l1.1875 1.1875c0.50552 0.50552 1.1703 0.4413 1.7188 0.15625 0.00874-0.0045 0.022594 0.0047 0.03125 0a0.58576 0.58576 0 0 0 0.125-0.03125 0.58576 0.58576 0 0 0 0.21875-0.09375 0.58576 0.58576 0 0 0 0.03125-0.03125c0.036644 0.76582 0.63204 1.4688 1.4688 1.4688h1.6875c0.83671 0 1.4321-0.70294 1.4688-1.4688 0.55805 0.52182 1.4977 0.62731 2.125 0l1.1875-1.1875c0.50553-0.50554 0.44128-1.1703 0.15625-1.7188v-0.03125a0.58576 0.58576 0 0 0-0.03125-0.125 0.58576 0.58576 0 0 0-0.09375-0.21875c-0.0093-0.01046-0.02171-0.02105-0.03125-0.03125 0.7658-0.03665 1.4688-0.63203 1.4688-1.4688v-1.6875c0-0.82587-0.68378-1.4178-1.4375-1.4688a0.58576 0.58576 0 0 0 0.09375-0.28125 0.58576 0.58576 0 0 0 0.03125-0.09375v-0.03125c0.28505-0.54844 0.34934-1.2132-0.15625-1.7188l-1.1875-1.1875c-0.51358-0.51358-1.1981-0.45561-1.75-0.15625-0.0087 0.0047-0.02268-0.00485-0.03125 0-0.01726 0.00112-0.03748 0.026718-0.0625 0.03125-0.02224 0.00403-0.06223-7.11e-5 -0.0625 0-7.07e-4 1.866e-4 -0.0784 0.048963-0.15625 0.09375-0.0207 0.01111-0.0627 0.031439-0.0625 0.03125-0.036644-0.76581-0.63204-1.4688-1.4688-1.4688h-1.6875zm0.84375 5.125c1.0905 0 1.9688 0.87825 1.9688 1.9688 0 1.0905-0.87825 1.9688-1.9688 1.9688-1.0905 0-1.9688-0.87825-1.9688-1.9688 0-1.0905 0.87825-1.9688 1.9688-1.9688z" display="block" opacity=".1"/>
  <path id="rect2835" d="m0 14c0 1.108 0.892 2 2 2h12c1.108 0 2-0.892 2-2v-12c0-1.108-0.892-2-2-2h-12c-1.108 0-2 0.892-2 2v12zm0.96875 0v-12c0-0.5832 0.44805-1.0312 1.0312-1.0312h12c0.5832 0 1.0312 0.44805 1.0312 1.0312v12c0 0.5832-0.44805 1.0312-1.0312 1.0312h-12c-0.5832 0-1.0312-0.44805-1.0312-1.0312z" fill="url(#linearGradient3629)" opacity=".4"/>
  <path id="path2843" d="m2 0.96875c-0.5832 0-1.0312 0.44805-1.0312 1.0312v1c0-0.5832 0.44805-1.0312 1.0312-1.0312h12c0.5832 0 1.0312 0.44805 1.0312 1.0312v-1c0-0.5832-0.44805-1.0312-1.0312-1.0312h-12z" fill="#fff" opacity=".25"/>
  <path id="path4065" d="m7.1562 2c-0.52025 0-0.90625 0.45652-0.90625 0.9375v0.5c-0.19491 0.069543-0.38017 0.16019-0.5625 0.25l-0.375-0.375c-0.00433-0.00433-0.026605 0.0046-0.03125 0-0.11081-0.10963-0.31266-0.2786-0.625-0.28125-0.24459-0.00217-0.49366 0.056151-0.6875 0.25l-1.1875 1.1875c-0.36466 0.36466-0.28276 0.97665 0.03125 1.3125l0.375 0.40625c-0.089809 0.18233-0.18046 0.36759-0.25 0.5625h-0.5c-0.48098 0-0.9375 0.386-0.9375 0.90625v1.6875c0 0.52025 0.45651 0.90625 0.9375 0.90625h0.5c0.069543 0.19491 0.16019 0.38017 0.25 0.5625l-0.375 0.40625c-0.31404 0.33585-0.39594 0.94785-0.03125 1.3125l1.1875 1.1875c0.36465 0.36465 0.97664 0.28282 1.3125-0.03125h0.03125l0.375-0.375c0.18233 0.08981 0.36759 0.18046 0.5625 0.25v0.5c0 0.48098 0.38601 0.9375 0.90625 0.9375h1.6875c0.52025 0 0.90625-0.45651 0.90625-0.9375v-0.5c0.19491-0.06954 0.38017-0.16019 0.5625-0.25l0.40625 0.375c0.33586 0.31406 0.94785 0.39589 1.3125 0.03125l1.1875-1.1875c0.36466-0.36466 0.28278-0.97665-0.03125-1.3125v-0.03125l-0.375-0.375c0.08981-0.18233 0.18046-0.36759 0.25-0.5625h0.5c0.48098-6e-6 0.9375-0.386 0.9375-0.90625v-1.6875c0-0.52025-0.45652-0.90625-0.9375-0.90625h-0.5c-0.06954-0.19491-0.16019-0.38017-0.25-0.5625l0.375-0.375v-0.03125c0.31404-0.33585 0.39594-0.94785 0.03125-1.3125l-1.1875-1.1875c-0.36465-0.36465-0.97664-0.2828-1.3125 0.03125-0.0071 0.00667-0.02435-0.00689-0.03125 0l-0.375 0.375c-0.18233-0.08981-0.36759-0.18046-0.5625-0.25v-0.5c0-0.48099-0.386-0.9375-0.90625-0.9375h-1.6875zm0.84375 3.9375c1.4098 0 2.5625 1.1527 2.5625 2.5625 0 1.4098-1.1527 2.5625-2.5625 2.5625-1.4098 0-2.5625-1.1527-2.5625-2.5625 0-1.4098 1.1527-2.5625 2.5625-2.5625z" display="block" opacity=".15"/>
  <path id="path3291" d="m7.1682 2.5c-0.23613 0-0.42273 0.1962-0.42273 0.43636v0.84545c-0.42221 0.11249-0.82406 0.28305-1.1932 0.49773l-0.60682-0.6c-0.08491-0.084911-0.1833-0.13543-0.29318-0.13636-0.10988-9.75e-4 -0.22334 0.03924-0.30682 0.12273l-1.1795 1.1795c-0.16697 0.16697-0.15617 0.43018 0.01363 0.6l0.6 0.60682c-0.21468 0.36912-0.38523 0.77097-0.49773 1.1932h-0.84546c-0.24016 0-0.43636 0.1866-0.43636 0.42273v1.6636c0 0.23613 0.1962 0.42273 0.43636 0.42273h0.84545c0.1125 0.42222 0.28305 0.82406 0.49773 1.1932l-0.6 0.60682c-0.16982 0.16982-0.18062 0.43303-0.01363 0.6l1.1795 1.1795c0.16697 0.16697 0.43018 0.15618 0.6-0.01364l0.60682-0.6c0.36912 0.21468 0.77097 0.38523 1.1932 0.49773v0.84545c0 0.24017 0.1866 0.43637 0.42273 0.43637h1.6636c0.23613 0 0.42273-0.1962 0.42273-0.43636v-0.84545c0.42221-0.11249 0.82406-0.28305 1.1932-0.49773l0.60682 0.6c0.16982 0.16982 0.43303 0.1806 0.6 0.01364l1.1795-1.1795c0.16697-0.16697 0.15617-0.43018-0.01364-0.6l-0.6-0.60682c0.21468-0.36912 0.38524-0.77097 0.49773-1.1932h0.84545c0.24016-3e-6 0.43637-0.1866 0.43637-0.42273v-1.6636c0-0.23613-0.1962-0.42273-0.43636-0.42273h-0.84545c-0.11249-0.42221-0.28305-0.82406-0.49773-1.1932l0.6-0.60682c0.16982-0.16982 0.18062-0.43303 0.013635-0.6l-1.1795-1.1795c-0.16697-0.16697-0.43018-0.15619-0.6 0.013635l-0.60682 0.6c-0.36912-0.21468-0.77097-0.38523-1.1932-0.49773v-0.84545c0-0.24016-0.1866-0.43636-0.42273-0.43636h-1.6636zm0.83182 2.9455c1.687 0 3.0545 1.3676 3.0545 3.0545 0 1.687-1.3676 3.0545-3.0545 3.0545s-3.0545-1.3676-3.0545-3.0545c0-1.687 1.3676-3.0545 3.0545-3.0545z" display="block" opacity=".3"/>
  <path id="rect3267" d="m7.1682 2c-0.23613 0-0.42273 0.1962-0.42273 0.43636v0.84545c-0.42221 0.11249-0.82406 0.28305-1.1932 0.49773l-0.60682-0.6c-0.08491-0.084908-0.1833-0.13543-0.29318-0.13636-0.10988-9.75e-4 -0.22334 0.03924-0.30682 0.12273l-1.1795 1.1795c-0.16697 0.16697-0.15617 0.43018 0.01363 0.6l0.6 0.60682c-0.21468 0.36912-0.38523 0.77097-0.49773 1.1932h-0.84546c-0.24016 0-0.43636 0.1866-0.43636 0.42273v1.6636c0 0.23613 0.1962 0.42273 0.43636 0.42273h0.84545c0.1125 0.42222 0.28305 0.82406 0.49773 1.1932l-0.6 0.60682c-0.16982 0.16982-0.18062 0.43303-0.01363 0.6l1.1795 1.1795c0.16697 0.16697 0.43018 0.15618 0.6-0.01364l0.60682-0.6c0.36912 0.21468 0.77097 0.38523 1.1932 0.49773v0.84545c-5e-6 0.24017 0.18659 0.43637 0.42272 0.43637h1.6636c0.23613 0 0.42273-0.1962 0.42273-0.43636v-0.84545c0.42221-0.11249 0.82406-0.28305 1.1932-0.49773l0.60682 0.6c0.16982 0.16982 0.43303 0.1806 0.6 0.01364l1.1795-1.1795c0.16697-0.16697 0.15617-0.43018-0.01364-0.6l-0.6-0.60682c0.21468-0.36912 0.38524-0.77097 0.49773-1.1932h0.84545c0.24016-3e-6 0.43637-0.1866 0.43637-0.42273v-1.6636c0-0.23613-0.1962-0.42273-0.43636-0.42273h-0.84545c-0.11249-0.42221-0.28305-0.82406-0.49773-1.1932l0.6-0.60682c0.16982-0.16982 0.18062-0.43303 0.013635-0.6l-1.1795-1.1795c-0.16697-0.16697-0.43018-0.15619-0.6 0.013635l-0.60682 0.6c-0.36912-0.21468-0.77097-0.38523-1.1932-0.49773v-0.84545c0-0.24016-0.1866-0.43636-0.42273-0.43636h-1.6636zm0.83182 2.9455c1.687 0 3.0545 1.3676 3.0545 3.0545 0 1.687-1.3676 3.0545-3.0545 3.0545s-3.0545-1.3676-3.0545-3.0545c0-1.687 1.3676-3.0545 3.0545-3.0545z" display="block" fill="url(#linearGradient3898)"/>
  <g id="g4176" transform="matrix(.18895 .10909 -.10909 .18895 16.16 -27.065)" clip-path="url(#clipPath4403)">
   <g id="g4011" transform="matrix(.14137 .99272 -1.1652 .12045 96.937 104.81)" opacity=".9">
    <path id="path4009" transform="matrix(.99411 -.10837 .10837 .99411 -5.1582 5.4919)" d="m108.9 48c0 9.542-2.2423 18.95-6.5462 27.467l-54.35-27.467z" color="#000000" fill="url(#linearGradient3267)" opacity=".05"/>
    <path id="path4007" transform="matrix(.99786 -.065374 .065374 .99786 -3.094 3.2416)" d="m108.9 48c0 7.8388-1.5134 15.604-4.4572 22.869l-56.439-22.869z" color="#000000" fill="url(#linearGradient3269)" opacity=".07"/>
    <path id="path4005" transform="matrix(.99945 -.033121 .033121 .99945 -1.5635 1.6161)" d="m108.9 48c0 6.5505-1.0569 13.058-3.1299 19.272l-57.766-19.272z" color="#000000" fill="url(#linearGradient3271)" opacity=".1"/>
    <path id="path4003" d="m108.9 48c0 5.3218-0.6976 10.621-2.075 15.761l-58.821-15.761z" color="#000000" fill="url(#linearGradient3273)" opacity=".05"/>
   </g>
   <g id="g4027" transform="matrix(1.0628 -.13088 -.7401 3.2275 32.525 9.3323)" opacity=".9">
    <path id="path4029" transform="matrix(.99411 -.10837 .10837 .99411 -5.1582 5.4919)" d="m108.9 48c0 9.542-2.2423 18.95-6.5462 27.467l-54.35-27.467z" color="#000000" fill="url(#linearGradient3275)" opacity=".2"/>
    <path id="path4031" transform="matrix(.99786 -.065374 .065374 .99786 -3.094 3.2416)" d="m108.9 48c0 7.8388-1.5134 15.604-4.4572 22.869l-56.439-22.869z" color="#000000" fill="url(#linearGradient3277)" opacity=".4"/>
    <path id="path4033" transform="matrix(.99945 -.033121 .033121 .99945 -1.5635 1.6161)" d="m108.9 48c0 6.5505-1.0569 13.058-3.1299 19.272l-57.766-19.272z" color="#000000" fill="url(#linearGradient3279)" opacity=".6"/>
    <path id="path4035" d="m108.9 48c0 5.3218-0.6976 10.621-2.075 15.761l-58.821-15.761z" color="#000000" fill="url(#linearGradient3281)" opacity=".8"/>
   </g>
   <g id="g4079" transform="matrix(-.61679 .78713 -.78713 -.61679 115 150.01)" opacity=".5">
    <path id="path4081" transform="matrix(.99411 -.10837 .10837 .99411 -5.1582 5.4919)" d="m108.9 48c0 9.542-2.2423 18.95-6.5462 27.467l-54.35-27.467z" color="#000000" fill="url(#linearGradient3267)" opacity=".05"/>
    <path id="path4083" transform="matrix(.99786 -.065374 .065374 .99786 -3.094 3.2416)" d="m108.9 48c0 7.8388-1.5134 15.604-4.4572 22.869l-56.439-22.869z" color="#000000" fill="url(#linearGradient3269)" opacity=".07"/>
    <path id="path4085" transform="matrix(.99945 -.033121 .033121 .99945 -1.5635 1.6161)" d="m108.9 48c0 6.5505-1.0569 13.058-3.1299 19.272l-57.766-19.272z" color="#000000" fill="url(#linearGradient3271)" opacity=".1"/>
    <path id="path4087" d="m108.9 48c0 5.3218-0.6976 10.621-2.075 15.761l-58.821-15.761z" color="#000000" fill="url(#linearGradient3273)" opacity=".1"/>
   </g>
   <g id="g4097" transform="matrix(-.068172 -1.046 2.7107 .60163 -79.095 179.08)" opacity=".8">
    <path id="path4099" transform="matrix(.99411 -.10837 .10837 .99411 -5.1582 5.4919)" d="m108.9 48c0 9.542-2.2423 18.95-6.5462 27.467l-54.35-27.467z" color="#000000" fill="url(#linearGradient3267)" opacity=".05"/>
    <path id="path4101" transform="matrix(.99786 -.065374 .065374 .99786 -3.094 3.2416)" d="m108.9 48c0 7.8388-1.5134 15.604-4.4572 22.869l-56.439-22.869z" color="#000000" fill="url(#linearGradient3269)" opacity=".07"/>
    <path id="path4103" transform="matrix(.99945 -.033121 .033121 .99945 -1.5635 1.6161)" d="m108.9 48c0 6.5505-1.0569 13.058-3.1299 19.272l-57.766-19.272z" color="#000000" fill="url(#linearGradient3271)" opacity=".1"/>
    <path id="path4105" d="m108.9 48c0 5.3218-0.6976 10.621-2.075 15.761l-58.821-15.761z" color="#000000" fill="url(#linearGradient3273)" opacity=".1"/>
   </g>
   <g id="g4147" transform="matrix(-1.0628 .13088 .7401 -3.2275 62.997 306.67)" opacity=".9">
    <path id="path4149" transform="matrix(.99411 -.10837 .10837 .99411 -5.1582 5.4919)" d="m108.9 48c0 9.542-2.2423 18.95-6.5462 27.467l-54.35-27.467z" color="#000000" fill="url(#linearGradient3275)" opacity=".2"/>
    <path id="path4151" transform="matrix(.99786 -.065374 .065374 .99786 -3.094 3.2416)" d="m108.9 48c0 7.8388-1.5134 15.604-4.4572 22.869l-56.439-22.869z" color="#000000" fill="url(#linearGradient3277)" opacity=".4"/>
    <path id="path4153" transform="matrix(.99945 -.033121 .033121 .99945 -1.5635 1.6161)" d="m108.9 48c0 6.5505-1.0569 13.058-3.1299 19.272l-57.766-19.272z" color="#000000" fill="url(#linearGradient3279)" opacity=".6"/>
    <path id="path4155" d="m108.9 48c0 5.3218-0.6976 10.621-2.075 15.761l-58.821-15.761z" color="#000000" fill="url(#linearGradient3281)" opacity=".8"/>
   </g>
  </g>
  <path id="path4084" d="m7.1797 2c-0.23613 0-0.44531 0.20515-0.44531 0.44531v0.375c0-0.24016 0.20918-0.44531 0.44531-0.44531h1.6406c0.23613 0 0.44531 0.20515 0.44531 0.44531v-0.375c0-0.24016-0.20918-0.44531-0.44531-0.44531h-1.6406zm-2.5312 1.0547c-0.10988-9.75e-4 -0.2212 0.033701-0.30469 0.11719l-1.1719 1.1719c-0.13325 0.13325-0.15397 0.33273-0.07031 0.49219 0.01937-0.040002 0.0366-0.083473 0.07031-0.11719l1.1719-1.1719c0.08348-0.083487 0.1948-0.11816 0.30469-0.11719 0.10988 9.343e-4 0.21978 0.032277 0.30469 0.11719l0.60937 0.60937c0.36912-0.21468 0.74966-0.37969 1.1719-0.49219v-0.375c-0.42221 0.11249-0.80275 0.27751-1.1719 0.49219l-0.60937-0.60937c-0.08491-0.084911-0.1948-0.11626-0.30469-0.11719zm6.7031 0c-0.1079 0.00305-0.21978 0.032277-0.30469 0.11719l-0.60938 0.60937c-0.36912-0.21468-0.74966-0.37969-1.1719-0.49219v0.375c0.42221 0.11249 0.80275 0.27751 1.1719 0.49219l0.60938-0.60937c0.16982-0.16982 0.4424-0.16697 0.60937 0l1.1719 1.1719c0.03372 0.033715 0.05094 0.077186 0.07031 0.11719 0.083667-0.15946 0.062958-0.35893-0.07031-0.49219l-1.1719-1.1719c-0.083485-0.083484-0.19679-0.12024-0.30469-0.11719zm-7.6875 2.7656c-0.15044 0.297-0.28782 0.58685-0.375 0.91406h-0.84375c-0.24016 0-0.44531 0.20918-0.44531 0.44531v0.375c0-0.23613 0.20515-0.44531 0.44531-0.44531h0.84375c0.1125-0.42221 0.27751-0.80275 0.49219-1.1719l-0.11719-0.11719zm8.6719 0-0.11719 0.11719c0.21468 0.36912 0.37969 0.74966 0.49219 1.1719h0.84375c0.24016 0 0.44531 0.20918 0.44531 0.44531v-0.375c0-0.23613-0.20515-0.44531-0.44531-0.44531h-0.84375c-0.08718-0.32722-0.22456-0.61707-0.375-0.91406zm-7.3594 2.3672c-4e-3 0.06411-0.02344 0.12238-0.02344 0.1875 0 1.687 1.3599 3.0469 3.0469 3.0469 1.687 0 3.0469-1.3599 3.0469-3.0469 0-0.065122-0.01942-0.12339-0.02344-0.1875-0.10001 1.5966-1.4016 2.8594-3.0234 2.8594s-2.9234-1.2627-3.0234-2.8594zm-1.3125 2.3672-0.49219 0.49219c-0.13553 0.13553-0.14689 0.33409-0.07031 0.49219 0.02117-0.04035 0.03602-0.08289 0.07031-0.11719l0.60938-0.60937c-0.0483-0.08305-0.07351-0.17159-0.11719-0.25781zm8.6719 0c-0.04367 0.08622-0.06889 0.17476-0.11719 0.25781l0.60938 0.60937c0.03429 0.03429 0.04915 0.07684 0.07031 0.11719 0.07657-0.1581 0.0652-0.35666-0.07031-0.49219l-0.49219-0.49219z" display="block" fill="#fff" opacity=".7"/>
  <g id="g2971" transform="matrix(.69767 .18694 -.18694 .69767 -12.435 -4.5401)">
   <path id="path3188-5" d="m32.443 9.5231c-0.42941 0.89965-1.09 1.6189-1.8712 2.12 0.45351-0.03508 0.96348 0.03471 1.4283 0.35683-0.08143 0.19338-0.06766 0.42128 0.09982 0.5617l6.3527 5.3231c0.20542 0.17221 0.52267 0.14266 0.69602-0.06221l0.86974-1.0276c0.17336-0.2049 0.14324-0.52381-0.06221-0.69602l-6.3426-5.3268c-0.17339-0.14536-0.41653-0.11719-0.59481 0.0083-0.37068-0.38006-0.52405-0.83161-0.5758-1.2574z" fill="url(#linearGradient2983)" opacity=".6"/>
   <g id="g4536" transform="matrix(1.1108 0 0 1.1108 -1.2564 -1.3837)">
    <path id="path3310" d="m28.374 11.632s1.4478-1.2421 2.8358-0.44076l0.48318-0.80872c-1.4021-0.80946-1.0484-2.6831-1.0484-2.6831-0.05079 0.78261-0.01643 1.2656-0.59608 2.2695-0.58316 1.01-1.6746 1.6631-1.6746 1.6631z" fill="url(#radialGradient2985)" fill-rule="evenodd" stroke="#404141" stroke-width=".62322"/>
    <path id="path2420" transform="matrix(.11075 -.029675 .029673 .11074 21.117 4.835)" d="m74.25 37.75c0 20.02-16.23 36.25-36.25 36.25s-36.25-16.23-36.25-36.25 16.23-36.25 36.25-36.25 36.25 16.23 36.25 36.25z" fill="url(#linearGradient2987)" stroke="url(#linearGradient2989)" stroke-width="10.872"/>
    <path id="path3261" transform="matrix(.11152 -.029881 .029879 .11151 21.09 4.7964)" d="m56.375 13.757c5.1373 5.4535 8.3125 12.862 8.3125 21.031-2e-6 16.735-13.28 30.344-29.625 30.344-6.3178 0-12.159-2.0437-16.969-5.5 5.3809 5.6651 12.897 9.1875 21.219 9.1875 16.345 0 29.625-13.577 29.625-30.312 0-10.231-4.974-19.259-12.562-24.75z" fill="#b0cedd" filter="url(#filter3274)" opacity=".8"/>
    <g id="g3184" transform="matrix(.094236 -.02525 .02525 .094236 17.074 7.9777)" stroke-width="5.125">
     <path id="path3262" transform="matrix(.99802 0 0 .99797 54.75 -17.441)" d="m38.25 3.4688c-16.615 0-30.388 11.787-33.688 27.406a0.44507 0.44507 0 0 0 0.21875 0.5c8.1907 4.3501 19.485 7.1562 32.094 7.1562 13.928 0 26.283-3.443 34.562-8.5938a0.44507 0.44507 0 0 0 0.1875-0.5c-3.8192-14.901-17.269-25.969-33.375-25.969z" fill="url(#linearGradient2991)" stroke="url(#linearGradient2993)" stroke-width="6.401"/>
     <path id="path3278" transform="matrix(1.433 0 0 1.4329 36.223 -31.24)" d="m38.714 22.818c0 2.9289-3.2939 5.3033-7.357 5.3033s-7.357-2.3744-7.357-5.3033c0-2.9289 3.2939-5.3033 7.357-5.3033s7.357 2.3744 7.357 5.3033z" fill="url(#radialGradient2995)" opacity=".6"/>
    </g>
    <rect id="rect3361" transform="matrix(.50002 -.86601 .86604 .49998 0 0)" x="5.5467" y="32.638" width="1.6871" height="7.9855" rx=".22494" ry=".22494" fill="url(#linearGradient2997)" stroke="#000" stroke-width=".62322"/>
   </g>
   <path id="path4130" d="m31.482 10.403c-0.6189 0.78149-1.423 1.3356-2.2962 1.6503 0.44993 0.06676 0.93158 0.24831 1.313 0.6658-0.12243 0.1704-0.15973 0.39565-0.02771 0.56982l5.0084 6.6036c0.16193 0.21362 0.4778 0.25542 0.69241 0.09428l1.0767-0.80818c0.21462-0.16117 0.25624-0.47879 0.09428-0.69241l-4.9977-6.605c-0.13669-0.18031-0.37999-0.20697-0.58174-0.12428-0.27678-0.45302-0.32579-0.92739-0.28145-1.354z" fill="url(#linearGradient3170)" opacity=".2"/>
  </g>
 </g>
</svg>
