<?xml version="1.0" encoding="UTF-8"?>
<svg id="svg2" width="16" height="16" version="1.0" xmlns="http://www.w3.org/2000/svg" xmlns:cc="http://creativecommons.org/ns#" xmlns:dc="http://purl.org/dc/elements/1.1/" xmlns:rdf="http://www.w3.org/1999/02/22-rdf-syntax-ns#" xmlns:xlink="http://www.w3.org/1999/xlink">
 <defs id="defs4">
  <linearGradient id="linearGradient2870" x1="10" x2="10" y1="-1.5357" y2="11.503" gradientTransform="translate(-20.536 6.5357)" gradientUnits="userSpaceOnUse" xlink:href="#linearGradient4036"/>
  <linearGradient id="linearGradient4036" x1="11.64" x2="11.64" y1="4.0776" y2="17.924" gradientUnits="userSpaceOnUse">
   <stop id="stop4038" stop-color="#282828" offset="0"/>
   <stop id="stop4040" stop-color="#787878" offset="1"/>
  </linearGradient>
  <linearGradient id="linearGradient3629-5" x2="29.017" y1="8" y2="8" gradientTransform="matrix(0 -1 1 0 .46426 19)" gradientUnits="userSpaceOnUse">
   <stop id="stop3330" offset="0"/>
   <stop id="stop3333" stop-opacity="0" offset="1"/>
  </linearGradient>
  <linearGradient id="linearGradient3117" x1="1" x2="15" y1="9" y2="9" gradientTransform="translate(-20 -1.5357)" gradientUnits="userSpaceOnUse">
   <stop id="stop3189" stop-color="#c8c8c8" offset="0"/>
   <stop id="stop3191" stop-color="#e6e6e6" offset="1"/>
  </linearGradient>
  <linearGradient id="linearGradient3065" x1="10" x2="10" y1="-.53574" y2="10.464" gradientTransform="translate(-.53576 6.5357)" gradientUnits="userSpaceOnUse" xlink:href="#linearGradient4036"/>
 </defs>
 <metadata id="metadata7">
  <rdf:RDF>
   <cc:Work rdf:about="">
    <dc:format>image/svg+xml</dc:format>
    <dc:type rdf:resource="http://purl.org/dc/dcmitype/StillImage"/>
    <dc:title/>
   </cc:Work>
  </rdf:RDF>
 </metadata>
 <g id="layer3" transform="translate(-.46426 -3)">
  <path id="path4542" d="m-14.723 3a0.99018 0.99018 0 0 0-0.8125 1v1a0.99018 0.99018 0 0 0 0.15625 0.5 0.99018 0.99018 0 0 0-0.15625 0.5v2a0.99018 0.99018 0 0 0 0.15625 0.5 0.99018 0.99018 0 0 0-0.15625 0.5v2h-2a0.99018 0.99018 0 0 0-0.6875 1.6875l6 6a0.99018 0.99018 0 0 0 1.375 0l6-6a0.99018 0.99018 0 0 0-0.6875-1.6875h-2v-2a0.99018 0.99018 0 0 0-0.15625-0.46875 0.99018 0.99018 0 0 0 0-0.03125 0.99018 0.99018 0 0 0 0.15625-0.5v-2a0.99018 0.99018 0 0 0-0.15625-0.46875 0.99018 0.99018 0 0 0 0-0.03125 0.99018 0.99018 0 0 0 0.15625-0.5v-1a0.99018 0.99018 0 0 0-1-1h-6a0.99018 0.99018 0 0 0-0.09375 0 0.99018 0.99018 0 0 0-0.09375 0zm0.1875 1h6v1h-6v-1zm0 2h6v2h-6v-2zm0 3h6v3h3l-6 6-6-6h3v-3z" fill="#fff" opacity=".15"/>
  <path id="path2861" d="m-14.536 4v1h6v-1h-6zm0 2v2h6v-2h-6zm0 3v3h-3l6 6 6-6h-3v-3h-6z" fill="url(#linearGradient2870)"/>
  <path id="path2872" d="m-14.536 4v1h6v-1h-6zm0 2v1h6v-1h-6zm0 3v1h6v-1h-6zm-3 3 1 1h2v-1h-3zm9 0v1h2l1-1h-3z" opacity=".5"/>
  <path id="path3653" d="m-14.536 5v1h6v-1h-6zm0 3v1h6v-1h-6zm-3 5 6 6 6-6h-1l-5 5-5-5h-1z" fill="#fff" opacity=".3"/>
  <rect id="rect3196" transform="rotate(-90)" x="-19" y=".46426" width="16" height="16" rx="2" ry="2" fill="url(#linearGradient3117)" opacity=".75"/>
  <path id="rect2835" d="m0.46426 17c0 1.108 0.892 2 2 2h12c1.108 0 2-0.892 2-2v-12c0-1.108-0.892-2-2-2h-12c-1.108 0-2 0.892-2 2v12zm0.96875 0v-12c0-0.5832 0.44805-1.0312 1.0312-1.0312h12c0.5832 0 1.0312 0.44805 1.0312 1.0312v12c0 0.5832-0.44805 1.0312-1.0312 1.0312h-12c-0.5832 0-1.0312-0.44805-1.0312-1.0312z" fill="url(#linearGradient3629-5)" opacity=".4"/>
  <path id="path2843" d="m2.4643 3.9687c-0.5832 0-1.0312 0.44805-1.0312 1.0312v1c0-0.5832 0.44805-1.0312 1.0312-1.0312h12c0.5832 0 1.0312 0.44805 1.0312 1.0312v-1c0-0.5832-0.44805-1.0312-1.0312-1.0312h-12z" fill="#fff" opacity=".6"/>
  <path id="path3063" d="m6.4643 6v1h4v-1zm0 2v1h4v-1zm0 2v2h-3l5 5 5-5h-3v-2z" fill="url(#linearGradient3065)"/>
  <path id="path3067" transform="translate(.46426 3)" d="m6 3v1h4v-1h-4zm0 2v1h4v-1h-4zm0 2v1h4v-1h-4zm-3 2 1 1h2v-1h-3zm7 0v1h2l1-1h-3z" opacity=".5"/>
  <path id="path3844" transform="translate(.46426 3)" d="m6 4v1h4v-1h-4zm0 2v1h4v-1h-4zm-3 4 5 5 5-5h-1l-4 4-4-4h-1z" fill="#fff" opacity=".5"/>
 </g>
</svg>
